0, 0, Header, 1, 36, 480
1, 0, Start_track
1, 0, Sequencer_specific, 10, 0, 0, 91, 35, 2, 0, 3, 0, 51, 0
1, 0, Title_t, "Rite of Spring - 1. Adoration of the Earth"
1, 0, MIDI_port, 0
1, 0, Text_t, "by Igor Stravinsky"
1, 0, Time_signature, 4, 2, 24, 8
1, 0, Key_signature, 0, "major"
1, 0, Tempo, 2850356
1, 360, Tempo, 1701162
1, 480, Tempo, 1415762
1, 960, Tempo, 5185825
1, 1080, Tempo, 2748511
1, 1200, Tempo, 1340782
1, 1320, Tempo, 1156961
1, 1920, Time_signature, 3, 2, 24, 8
1, 1920, Tempo, 1389854
1, 2160, Tempo, 1232539
1, 2400, Tempo, 1090909
1, 3360, Time_signature, 4, 2, 24, 8
1, 3360, Tempo, 1499625
1, 4800, Tempo, 1139601
1, 5280, Time_signature, 2, 2, 24, 8
1, 6240, Time_signature, 3, 2, 24, 8
1, 6240, Tempo, 1340782
1, 6720, Tempo, 1193317
1, 7200, Tempo, 1060445
1, 7680, Tempo, 1174858
1, 8160, Tempo, 1340782
1, 8640, Tempo, 5338078
1, 8880, Tempo, 1612903
1, 9120, Time_signature, 2, 2, 24, 8
1, 9120, Tempo, 1257071
1, 9360, Tempo, 1165501
1, 9600, Tempo, 1062511
1, 10080, Time_signature, 3, 2, 24, 8
1, 10560, Tempo, 1031105
1, 10800, Tempo, 1000333
1, 11040, Tempo, 949367
1, 11280, Tempo, 988142
1, 11520, Time_signature, 2, 2, 24, 8
1, 11520, Tempo, 1091107
1, 11760, Tempo, 1188354
1, 12000, Tempo, 2164502
1, 12480, Tempo, 1225490
1, 12960, Tempo, 1159644
1, 14400, Tempo, 1454898
1, 15360, Time_signature, 3, 2, 24, 8
1, 15360, Tempo, 1342582
1, 16320, Tempo, 1805054
1, 16800, Time_signature, 2, 2, 24, 8
1, 16800, Tempo, 1243781
1, 19200, Tempo, 1154068
1, 19680, Tempo, 1101119
1, 21600, Time_signature, 3, 2, 24, 8
1, 24480, Time_signature, 2, 2, 24, 8
1, 25440, Tempo, 1062511
1, 25920, Tempo, 1034661
1, 26400, Tempo, 1004352
1, 27360, Time_signature, 3, 2, 24, 8
1, 28800, Time_signature, 2, 2, 24, 8
1, 31680, Tempo, 1039501
1, 33120, Tempo, 1096491
1, 34080, Tempo, 1137656
1, 34800, Tempo, 1342582
1, 35040, Tempo, 1951854
1, 35280, Tempo, 1342582
1, 35520, Tempo, 1218769
1, 37440, Tempo, 1326553
1, 37920, Tempo, 1237879
1, 39360, Tempo, 1270110
1, 42240, Tempo, 1057455
1, 45240, Tempo, 1122334
1, 46080, Tempo, 1039501
1, 47040, Tempo, 1250260
1, 47520, Tempo, 1326553
1, 48960, Tempo, 1052816
1, 54720, Time_signature, 3, 2, 24, 8
1, 54720, Tempo, 876040
1, 56160, Time_signature, 2, 2, 24, 8
1, 57120, Time_signature, 3, 2, 24, 8
1, 57120, Tempo, 912686
1, 57600, Tempo, 956480
1, 58080, Tempo, 996181
1, 58560, Tempo, 1025816
1, 60000, Time_signature, 2, 2, 24, 8
1, 60000, Tempo, 1048218
1, 60960, Tempo, 960307
1, 61920, Time_signature, 3, 2, 24, 8
1, 61920, Tempo, 988142
1, 62880, Tempo, 1021450
1, 63360, Time_signature, 2, 2, 24, 8
1, 63840, Tempo, 1066856
1, 64800, Tempo, 1116902
1, 65280, Tempo, 1048218
1, 65760, Tempo, 991899
1, 66240, Time_signature, 3, 2, 24, 8
1, 66240, Tempo, 952532
1, 70560, Time_signature, 2, 2, 24, 8
1, 71520, Tempo, 3205128
1, 71760, Tempo, 1520527
1, 72000, Tempo, 1403837
1, 72480, Time_signature, 3, 2, 24, 8
1, 72480, Tempo, 1148545
1, 72720, Tempo, 1231274
1, 72960, Tempo, 805477
1, 73440, Tempo, 1446480
1, 73680, Tempo, 899011
1, 73920, Tempo, 949367
1, 74400, Tempo, 1500375
1, 74880, Tempo, 1472754
1, 75120, Tempo, 1421127
1, 75360, Time_signature, 2, 2, 24, 8
1, 75360, Tempo, 1371742
1, 75600, Tempo, 1318971
1, 75840, Tempo, 1283697
1, 76080, Tempo, 1257071
1, 76320, Time_signature, 3, 2, 24, 8
1, 82080, Time_signature, 2, 2, 24, 8
1, 84000, Key_signature, -3, "major"
1, 84000, Tempo, 577034
1, 105120, Tempo, 553046
1, 116640, Tempo, 567483
1, 124320, Tempo, 556896
1, 127200, Tempo, 566091
1, 129120, Tempo, 578536
1, 132000, Tempo, 560800
1, 132960, Tempo, 550509
1, 133920, Tempo, 538213
1, 138720, Tempo, 546896
1, 139680, Tempo, 555607
1, 140640, Tempo, 564759
1, 141600, Tempo, 547995
1, 145440, Tempo, 537105
1, 147360, Tempo, 526408
1, 150240, Tempo, 652599
1, 150720, Tempo, 1936108
1, 151200, Tempo, 991899
1, 151680, Tempo, 2892960
1, 151920, Tempo, 774293
1, 152160, Tempo, 609446
1, 153600, Tempo, 581170
1, 155040, Tempo, 566091
1, 156960, Tempo, 554426
1, 157920, Tempo, 543183
1, 162720, Tempo, 531020
1, 168480, Tempo, 539374
1, 169440, Tempo, 545504
1, 170400, Tempo, 553046
1, 171360, Tempo, 560800
1, 172320, Tempo, 572847
1, 191520, Time_signature, 3, 2, 24, 8
1, 194400, Time_signature, 2, 2, 24, 8
1, 194400, Tempo, 562166
1, 198240, Tempo, 586854
1, 203040, Tempo, 577034
1, 211680, Tempo, 535762
1, 219360, Key_signature, 0, "major"
1, 219360, Tempo, 522921
1, 223200, Tempo, 517375
1, 227040, Tempo, 526085
1, 228960, Tempo, 515774
1, 230880, Tempo, 504965
1, 231840, Tempo, 511378
1, 232800, Tempo, 521331
1, 250080, Time_signature, 9, 3, 12, 8
1, 250080, Tempo, 326886
1, 254400, Tempo, 318640
1, 286800, Time_signature, 12, 3, 12, 8
1, 289680, Time_signature, 9, 3, 12, 8
1, 294000, Time_signature, 6, 3, 12, 8
1, 294000, Tempo, 332281
1, 305520, Time_signature, 7, 3, 12, 8
1, 305520, Tempo, 354400
1, 307200, Time_signature, 3, 2, 24, 8
1, 308640, Time_signature, 6, 3, 12, 8
1, 310080, Time_signature, 2, 2, 24, 8
1, 311040, Time_signature, 6, 3, 12, 8
1, 312480, Time_signature, 3, 2, 24, 8
1, 313920, Time_signature, 9, 3, 12, 8
1, 320400, Tempo, 348189
1, 322560, Tempo, 341744
1, 324720, Tempo, 337952
1, 326880, Tempo, 336511
1, 329040, Tempo, 329181
1, 331200, Time_signature, 3, 3, 12, 8
1, 331200, Tempo, 339847
1, 331920, Time_signature, 5, 3, 12, 8
1, 334320, Time_signature, 3, 3, 12, 8
1, 335040, Time_signature, 4, 3, 12, 8
1, 335040, Tempo, 349243
1, 336000, Time_signature, 5, 3, 12, 8
1, 337200, Time_signature, 6, 3, 12, 8
1, 337200, Tempo, 356994
1, 338640, Time_signature, 5, 3, 12, 8
1, 338640, Tempo, 361838
1, 338880, Tempo, 365742
1, 339120, Tempo, 369094
1, 339360, Tempo, 375422
1, 339600, Tempo, 383828
1, 339840, Time_signature, 2, 3, 12, 8
1, 339840, Tempo, 359152
1, 340320, Time_signature, 6, 3, 12, 8
1, 346080, Time_signature, 2, 3, 12, 8
1, 346080, Tempo, 366815
1, 346560, Time_signature, 6, 3, 12, 8
1, 348000, Time_signature, 4, 3, 12, 8
1, 348960, Time_signature, 6, 3, 12, 8
1, 350400, Time_signature, 3, 2, 24, 8
1, 351840, Time_signature, 4, 3, 12, 8
1, 352800, Time_signature, 3, 2, 24, 8
1, 354240, Time_signature, 4, 2, 24, 8
1, 354240, Tempo, 378453
1, 358080, Tempo, 629789
1, 360240, Tempo, 647948
1, 361920, Time_signature, 5, 2, 24, 8
1, 361920, Key_signature, -4, "major"
1, 361920, Tempo, 664084
1, 362160, Tempo, 666740
1, 364320, Time_signature, 7, 2, 24, 8
1, 364320, Tempo, 688389
1, 366240, Tempo, 717360
1, 367680, Time_signature, 6, 2, 24, 8
1, 367680, Tempo, 734214
1, 369120, Tempo, 764331
1, 370560, Tempo, 764331
1, 370800, Tempo, 796601
1, 371760, Tempo, 824742
1, 373440, Tempo, 846979
1, 374880, Tempo, 866551
1, 376320, Time_signature, 5, 2, 24, 8
1, 376320, Tempo, 940586
1, 376800, Tempo, 1006036
1, 377280, Tempo, 1107011
1, 377520, Tempo, 1203128
1, 377760, Tempo, 1410437
1, 378000, Tempo, 1512859
1, 378240, Tempo, 1589825
1, 378480, Tempo, 2157497
1, 378720, Time_signature, 4, 2, 24, 8
1, 378720, Key_signature, -5, "major"
1, 378720, Tempo, 1013856
1, 386400, Tempo, 928361
1, 388320, Tempo, 984413
1, 392160, Time_signature, 3, 2, 24, 8
1, 393600, Time_signature, 4, 2, 24, 8
1, 393600, Tempo, 1046025
1, 394560, Tempo, 990099
1, 395520, Tempo, 945477
1, 407040, Tempo, 1007895
1, 410880, Tempo, 934579
1, 412800, Time_signature, 6, 2, 24, 8
1, 415680, Time_signature, 4, 2, 24, 8
1, 415680, Tempo, 1052816
1, 417120, Tempo, 1170960
1, 417600, Tempo, 978314
1, 419040, Tempo, 1131008
1, 419520, Tempo, 956175
1, 421440, Tempo, 1179245
1, 421920, Tempo, 1026518
1, 423360, Tempo, 956175
1, 425280, Time_signature, 3, 2, 24, 8
1, 426720, Time_signature, 4, 2, 24, 8
1, 426720, Tempo, 1026518
1, 430560, Tempo, 961384
1, 432480, Time_signature, 5, 2, 24, 8
1, 434880, Time_signature, 4, 2, 24, 8
1, 436800, Time_signature, 3, 2, 24, 8
1, 438240, Time_signature, 4, 2, 24, 8
1, 438240, Tempo, 1032880
1, 438720, Tempo, 961384
1, 440160, Tempo, 1014027
1, 441120, Tempo, 1079719
1, 442080, Time_signature, 3, 2, 24, 8
1, 442080, Tempo, 1020408
1, 443520, Time_signature, 4, 2, 24, 8
1, 444960, Tempo, 1101119
1, 445440, Tempo, 1204577
1, 446400, Tempo, 1362707
1, 446880, Tempo, 2100105
1, 447360, Time_signature, 3, 2, 24, 8
1, 447360, Key_signature, 0, "major"
1, 447360, Tempo, 369253
1, 448800, Time_signature, 4, 2, 24, 8
1, 456480, Time_signature, 3, 2, 24, 8
1, 457920, Time_signature, 4, 2, 24, 8
1, 461760, Tempo, 341880
1, 467520, Time_signature, 3, 2, 24, 8
1, 468960, Time_signature, 4, 2, 24, 8
1, 468960, Tempo, 690131
1, 472800, Time_signature, 5, 2, 24, 8
1, 472800, Tempo, 737644
1, 475200, Time_signature, 7, 2, 24, 8
1, 476640, Tempo, 768147
1, 477120, Tempo, 794176
1, 477600, Tempo, 825309
1, 478080, Tempo, 891398
1, 478560, Time_signature, 6, 2, 24, 8
1, 478560, Tempo, 921093
1, 479040, Tempo, 931243
1, 479520, Tempo, 947119
1, 480000, Tempo, 963855
1, 480480, Tempo, 1104362
1, 480960, Tempo, 1190712
1, 481440, Tempo, 906344
1, 481920, Tempo, 936768
1, 482400, Tempo, 947119
1, 482880, Tempo, 1004184
1, 483360, Tempo, 891398
1, 483840, Tempo, 868181
1, 484320, Tempo, 841987
1, 484800, Tempo, 821130
1, 485040, Tempo, 846262
1, 485280, Tempo, 854944
1, 485520, Tempo, 887049
1, 485760, Tempo, 941767
1, 486000, Tempo, 992720
1, 486240, Tempo, 1068566
1, 486480, Tempo, 1126549
1, 486720, Tempo, 1141987
1, 486960, Tempo, 1312623
1, 487200, Time_signature, 5, 2, 24, 8
1, 487200, Tempo, 1366431
1, 487440, Tempo, 1244555
1, 487680, Tempo, 1199280
1, 487920, Tempo, 1182266
1, 488160, Tempo, 1272534
1, 488400, Tempo, 1389210
1, 488640, Tempo, 1437470
1, 488880, Tempo, 1488464
1, 489120, Tempo, 1558846
1, 489360, Tempo, 1558846
1, 489600, Tempo, 392182
1, 492000, Time_signature, 4, 2, 24, 8
1, 495840, Time_signature, 3, 2, 24, 8
1, 497280, Time_signature, 4, 2, 24, 8
1, 499200, Time_signature, 3, 2, 24, 8
1, 500640, Time_signature, 4, 2, 24, 8
1, 500640, Tempo, 373715
1, 502560, Time_signature, 2, 2, 24, 8
1, 503520, Time_signature, 4, 2, 24, 8
1, 505440, Time_signature, 3, 2, 24, 8
1, 506880, Time_signature, 4, 2, 24, 8
1, 508800, Time_signature, 3, 1, 48, 8
1, 508800, Tempo, 872727
1, 509040, Tempo, 896191
1, 509280, Tempo, 921093
1, 509520, Tempo, 952532
1, 509760, Tempo, 490236
1, 510720, Tempo, 497636
1, 511680, Time_signature, 4, 2, 24, 8
1, 511680, Tempo, 386747
1, 513600, Time_signature, 3, 1, 48, 8
1, 513600, Tempo, 376246
1, 516480, Time_signature, 4, 2, 24, 8
1, 518400, Time_signature, 5, 2, 24, 8
1, 520800, Time_signature, 4, 2, 24, 8
1, 522720, Tempo, 363130
1, 524640, Time_signature, 3, 2, 24, 8
1, 526080, Time_signature, 4, 2, 24, 8
1, 529920, Time_signature, 5, 2, 24, 8
1, 531840, Tempo, 406807
1, 532320, Time_signature, 4, 2, 24, 8
1, 540000, Time_signature, 5, 2, 24, 8
1, 540480, Tempo, 354924
1, 542400, Time_signature, 4, 2, 24, 8
1, 546240, Tempo, 406807
1, 550080, Time_signature, 6, 2, 24, 8
1, 552960, Time_signature, 4, 2, 24, 8
1, 554880, Time_signature, 6, 2, 24, 8
1, 557760, Time_signature, 4, 2, 24, 8
1, 565440, Tempo, 375610
1, 567360, Time_signature, 3, 2, 24, 8
1, 568800, Time_signature, 4, 2, 24, 8
1, 576480, Tempo, 387071
1, 584160, Time_signature, 2, 2, 24, 8
1, 584160, Tempo, 375610
1, 585120, Time_signature, 3, 2, 24, 8
1, 586560, Time_signature, 2, 2, 24, 8
1, 590400, Time_signature, 6, 2, 24, 8
1, 593280, Time_signature, 4, 2, 24, 8
1, 595200, Time_signature, 3, 2, 24, 8
1, 596640, Time_signature, 4, 2, 24, 8
1, 598560, Time_signature, 6, 2, 24, 8
1, 604320, Time_signature, 4, 2, 24, 8
1, 604320, Tempo, 392413
1, 612000, Tempo, 402955
1, 654240, Time_signature, 6, 2, 24, 8
1, 677280, Time_signature, 4, 2, 24, 8
1, 677280, Tempo, 1028983
1, 679200, Tempo, 1126549
1, 680160, Tempo, 1217285
1, 681120, Tempo, 1324503
1, 682080, Tempo, 1462701
1, 684960, Tempo, 1266357
1, 686880, Time_signature, 3, 2, 24, 8
1, 686880, Tempo, 376553
1, 721440, Tempo, 371517
1, 753120, Tempo, 360295
1, 753120, End_track
2, 0, Start_track
2, 0, Title_t, "Ottavino"
2, 0, MIDI_port, 0
2, 0, Program_c, 0, 73
2, 0, Control_c, 0, 7, 75
2, 0, Control_c, 0, 10, 33
2, 0, Control_c, 0, 91, 64
2, 63519, Note_on_c, 0, 87, 58
2, 63559, Note_on_c, 0, 87, 0
2, 63560, Note_on_c, 0, 92, 59
2, 63599, Note_on_c, 0, 92, 0
2, 63600, Note_on_c, 0, 99, 54
2, 63639, Note_on_c, 0, 99, 0
2, 63639, Note_on_c, 0, 87, 50
2, 63679, Note_on_c, 0, 87, 0
2, 63680, Note_on_c, 0, 92, 49
2, 63743, Note_on_c, 0, 92, 0
2, 64959, Note_on_c, 0, 87, 56
2, 64999, Note_on_c, 0, 87, 0
2, 65000, Note_on_c, 0, 92, 40
2, 65039, Note_on_c, 0, 92, 0
2, 65040, Note_on_c, 0, 99, 59
2, 65079, Note_on_c, 0, 99, 0
2, 65079, Note_on_c, 0, 87, 45
2, 65119, Note_on_c, 0, 87, 0
2, 65120, Note_on_c, 0, 92, 55
2, 65120, Note_on_c, 0, 92, 40
2, 65172, Note_on_c, 0, 92, 0
2, 65173, Note_on_c, 0, 99, 44
2, 65183, Note_on_c, 0, 92, 0
2, 65226, Note_on_c, 0, 99, 0
2, 65226, Note_on_c, 0, 87, 57
2, 65279, Note_on_c, 0, 87, 0
2, 65280, Note_on_c, 0, 92, 56
2, 65280, Note_on_c, 0, 92, 40
2, 65333, Note_on_c, 0, 92, 0
2, 65333, Note_on_c, 0, 99, 52
2, 65343, Note_on_c, 0, 92, 0
2, 65359, Note_on_c, 0, 99, 0
2, 65367, Note_on_c, 0, 87, 54
2, 65439, Note_on_c, 0, 92, 47
2, 65439, Note_on_c, 0, 92, 51
2, 65446, Note_on_c, 0, 87, 0
2, 65479, Note_on_c, 0, 92, 0
2, 65480, Note_on_c, 0, 87, 52
2, 65503, Note_on_c, 0, 92, 0
2, 65519, Note_on_c, 0, 87, 0
2, 65520, Note_on_c, 0, 80, 54
2, 65559, Note_on_c, 0, 80, 0
2, 65559, Note_on_c, 0, 87, 49
2, 65599, Note_on_c, 0, 87, 0
2, 65600, Note_on_c, 0, 92, 39
2, 65663, Note_on_c, 0, 92, 0
2, 66560, Note_on_c, 0, 80, 48
2, 66599, Note_on_c, 0, 80, 0
2, 66600, Note_on_c, 0, 87, 57
2, 66639, Note_on_c, 0, 87, 0
2, 66639, Note_on_c, 0, 92, 49
2, 66679, Note_on_c, 0, 92, 0
2, 66680, Note_on_c, 0, 87, 47
2, 66719, Note_on_c, 0, 87, 0
2, 66720, Note_on_c, 0, 99, 58
2, 66720, Note_on_c, 0, 99, 39
2, 66759, Note_on_c, 0, 99, 0
2, 66759, Note_on_c, 0, 87, 53
2, 66783, Note_on_c, 0, 99, 0
2, 66799, Note_on_c, 0, 87, 0
2, 66800, Note_on_c, 0, 92, 57
2, 66839, Note_on_c, 0, 92, 0
2, 66840, Note_on_c, 0, 87, 57
2, 66879, Note_on_c, 0, 87, 0
2, 66879, Note_on_c, 0, 99, 58
2, 66879, Note_on_c, 0, 99, 46
2, 66932, Note_on_c, 0, 99, 0
2, 66933, Note_on_c, 0, 87, 54
2, 66943, Note_on_c, 0, 99, 0
2, 66986, Note_on_c, 0, 87, 0
2, 66986, Note_on_c, 0, 92, 44
2, 67038, Note_on_c, 0, 92, 0
2, 67039, Note_on_c, 0, 80, 41
2, 67040, Note_on_c, 0, 80, 47
2, 67092, Note_on_c, 0, 80, 0
2, 67093, Note_on_c, 0, 87, 45
2, 67103, Note_on_c, 0, 80, 0
2, 67146, Note_on_c, 0, 87, 0
2, 67146, Note_on_c, 0, 92, 47
2, 67199, Note_on_c, 0, 92, 0
2, 67200, Note_on_c, 0, 99, 46
2, 67200, Note_on_c, 0, 99, 41
2, 67253, Note_on_c, 0, 99, 0
2, 67253, Note_on_c, 0, 87, 41
2, 67263, Note_on_c, 0, 99, 0
2, 67306, Note_on_c, 0, 87, 0
2, 67306, Note_on_c, 0, 92, 51
2, 67358, Note_on_c, 0, 92, 0
2, 67359, Note_on_c, 0, 99, 45
2, 67359, Note_on_c, 0, 99, 45
2, 67412, Note_on_c, 0, 99, 0
2, 67413, Note_on_c, 0, 87, 53
2, 67423, Note_on_c, 0, 99, 0
2, 67466, Note_on_c, 0, 87, 0
2, 67466, Note_on_c, 0, 92, 46
2, 67518, Note_on_c, 0, 92, 0
2, 67519, Note_on_c, 0, 80, 45
2, 67583, Note_on_c, 0, 80, 0
2, 67680, Note_on_c, 0, 80, 41
2, 67719, Note_on_c, 0, 80, 0
2, 67719, Note_on_c, 0, 87, 41
2, 67759, Note_on_c, 0, 87, 0
2, 67760, Note_on_c, 0, 92, 56
2, 67799, Note_on_c, 0, 92, 0
2, 67800, Note_on_c, 0, 87, 50
2, 67839, Note_on_c, 0, 87, 0
2, 67839, Note_on_c, 0, 99, 42
2, 67839, Note_on_c, 0, 99, 56
2, 67892, Note_on_c, 0, 99, 0
2, 67893, Note_on_c, 0, 87, 55
2, 67903, Note_on_c, 0, 99, 0
2, 67946, Note_on_c, 0, 87, 0
2, 67946, Note_on_c, 0, 92, 49
2, 67998, Note_on_c, 0, 92, 0
2, 67999, Note_on_c, 0, 80, 39
2, 68063, Note_on_c, 0, 80, 0
2, 68319, Note_on_c, 0, 80, 58
2, 68359, Note_on_c, 0, 80, 0
2, 68360, Note_on_c, 0, 87, 42
2, 68399, Note_on_c, 0, 87, 0
2, 68400, Note_on_c, 0, 92, 52
2, 68439, Note_on_c, 0, 92, 0
2, 68439, Note_on_c, 0, 87, 41
2, 68479, Note_on_c, 0, 87, 0
2, 68480, Note_on_c, 0, 99, 49
2, 68480, Note_on_c, 0, 99, 52
2, 68519, Note_on_c, 0, 99, 0
2, 68520, Note_on_c, 0, 87, 47
2, 68543, Note_on_c, 0, 99, 0
2, 68559, Note_on_c, 0, 87, 0
2, 68559, Note_on_c, 0, 92, 48
2, 68599, Note_on_c, 0, 92, 0
2, 68600, Note_on_c, 0, 87, 53
2, 68639, Note_on_c, 0, 87, 0
2, 68640, Note_on_c, 0, 80, 43
2, 68640, Note_on_c, 0, 80, 47
2, 68693, Note_on_c, 0, 80, 0
2, 68693, Note_on_c, 0, 87, 47
2, 68703, Note_on_c, 0, 80, 0
2, 68746, Note_on_c, 0, 87, 0
2, 68746, Note_on_c, 0, 92, 43
2, 68798, Note_on_c, 0, 92, 0
2, 68799, Note_on_c, 0, 99, 58
2, 68799, Note_on_c, 0, 99, 52
2, 68852, Note_on_c, 0, 99, 0
2, 68853, Note_on_c, 0, 87, 52
2, 68863, Note_on_c, 0, 99, 0
2, 68906, Note_on_c, 0, 87, 0
2, 68906, Note_on_c, 0, 92, 42
2, 68958, Note_on_c, 0, 92, 0
2, 68959, Note_on_c, 0, 80, 39
2, 69023, Note_on_c, 0, 80, 0
2, 69120, Note_on_c, 0, 80, 40
2, 69173, Note_on_c, 0, 80, 0
2, 69173, Note_on_c, 0, 87, 59
2, 69226, Note_on_c, 0, 87, 0
2, 69226, Note_on_c, 0, 92, 57
2, 69278, Note_on_c, 0, 92, 0
2, 69279, Note_on_c, 0, 99, 53
2, 69290, Note_on_c, 0, 99, 53
2, 69332, Note_on_c, 0, 99, 0
2, 69333, Note_on_c, 0, 87, 52
2, 69386, Note_on_c, 0, 87, 0
2, 69386, Note_on_c, 0, 92, 39
2, 69438, Note_on_c, 0, 92, 0
2, 69439, Note_on_c, 0, 80, 53
2, 69445, Note_on_c, 0, 80, 47
2, 69450, Note_on_c, 0, 99, 0
2, 69479, Note_on_c, 0, 80, 0
2, 69480, Note_on_c, 0, 87, 57
2, 69519, Note_on_c, 0, 87, 0
2, 69519, Note_on_c, 0, 92, 49
2, 69559, Note_on_c, 0, 92, 0
2, 69560, Note_on_c, 0, 87, 59
2, 69599, Note_on_c, 0, 87, 0
2, 69600, Note_on_c, 0, 99, 40
2, 69604, Note_on_c, 0, 80, 0
2, 69618, Note_on_c, 0, 99, 41
2, 69639, Note_on_c, 0, 99, 0
2, 69639, Note_on_c, 0, 87, 43
2, 69679, Note_on_c, 0, 87, 0
2, 69680, Note_on_c, 0, 92, 54
2, 69719, Note_on_c, 0, 92, 0
2, 69720, Note_on_c, 0, 87, 50
2, 69759, Note_on_c, 0, 87, 0
2, 69759, Note_on_c, 0, 99, 54
2, 69777, Note_on_c, 0, 99, 0
2, 69781, Note_on_c, 0, 99, 43
2, 69812, Note_on_c, 0, 99, 0
2, 69813, Note_on_c, 0, 87, 50
2, 69866, Note_on_c, 0, 87, 0
2, 69866, Note_on_c, 0, 92, 51
2, 69918, Note_on_c, 0, 92, 0
2, 69919, Note_on_c, 0, 80, 44
2, 69935, Note_on_c, 0, 80, 39
2, 69941, Note_on_c, 0, 99, 0
2, 69972, Note_on_c, 0, 80, 0
2, 69973, Note_on_c, 0, 87, 48
2, 70026, Note_on_c, 0, 87, 0
2, 70026, Note_on_c, 0, 92, 50
2, 70079, Note_on_c, 0, 92, 0
2, 70080, Note_on_c, 0, 99, 50
2, 70092, Note_on_c, 0, 99, 41
2, 70094, Note_on_c, 0, 80, 0
2, 70133, Note_on_c, 0, 99, 0
2, 70133, Note_on_c, 0, 87, 52
2, 70186, Note_on_c, 0, 87, 0
2, 70186, Note_on_c, 0, 92, 54
2, 70238, Note_on_c, 0, 92, 0
2, 70239, Note_on_c, 0, 80, 43
2, 70240, Note_on_c, 0, 80, 46
2, 70251, Note_on_c, 0, 99, 0
2, 70279, Note_on_c, 0, 80, 0
2, 70280, Note_on_c, 0, 87, 56
2, 70319, Note_on_c, 0, 87, 0
2, 70320, Note_on_c, 0, 92, 46
2, 70359, Note_on_c, 0, 92, 0
2, 70359, Note_on_c, 0, 87, 39
2, 70399, Note_on_c, 0, 87, 0
2, 70400, Note_on_c, 0, 80, 0
2, 70400, Note_on_c, 0, 99, 59
2, 70424, Note_on_c, 0, 99, 39
2, 70452, Note_on_c, 0, 99, 0
2, 70453, Note_on_c, 0, 87, 54
2, 70506, Note_on_c, 0, 87, 0
2, 70506, Note_on_c, 0, 92, 55
2, 70559, Note_on_c, 0, 92, 0
2, 70560, Note_on_c, 0, 99, 45
2, 70573, Note_on_c, 0, 99, 56
2, 70583, Note_on_c, 0, 99, 0
2, 70613, Note_on_c, 0, 99, 0
2, 70613, Note_on_c, 0, 87, 48
2, 70666, Note_on_c, 0, 87, 0
2, 70666, Note_on_c, 0, 92, 48
2, 70718, Note_on_c, 0, 92, 0
2, 70719, Note_on_c, 0, 80, 59
2, 70732, Note_on_c, 0, 99, 0
2, 70742, Note_on_c, 0, 80, 53
2, 70772, Note_on_c, 0, 80, 0
2, 70773, Note_on_c, 0, 87, 42
2, 70826, Note_on_c, 0, 87, 0
2, 70826, Note_on_c, 0, 92, 50
2, 70878, Note_on_c, 0, 92, 0
2, 70879, Note_on_c, 0, 99, 53
2, 70882, Note_on_c, 0, 99, 48
2, 70902, Note_on_c, 0, 80, 0
2, 70919, Note_on_c, 0, 99, 0
2, 70920, Note_on_c, 0, 87, 48
2, 70959, Note_on_c, 0, 87, 0
2, 70959, Note_on_c, 0, 92, 39
2, 70999, Note_on_c, 0, 92, 0
2, 71000, Note_on_c, 0, 87, 55
2, 71039, Note_on_c, 0, 87, 0
2, 71040, Note_on_c, 0, 99, 46
2, 71041, Note_on_c, 0, 99, 0
2, 71042, Note_on_c, 0, 99, 39
2, 71079, Note_on_c, 0, 99, 0
2, 71079, Note_on_c, 0, 87, 51
2, 71119, Note_on_c, 0, 87, 0
2, 71120, Note_on_c, 0, 92, 48
2, 71159, Note_on_c, 0, 92, 0
2, 71160, Note_on_c, 0, 87, 56
2, 71199, Note_on_c, 0, 87, 0
2, 71199, Note_on_c, 0, 80, 53
2, 71201, Note_on_c, 0, 99, 0
2, 71224, Note_on_c, 0, 80, 57
2, 71239, Note_on_c, 0, 80, 0
2, 71240, Note_on_c, 0, 87, 51
2, 71279, Note_on_c, 0, 87, 0
2, 71280, Note_on_c, 0, 92, 42
2, 71319, Note_on_c, 0, 92, 0
2, 71319, Note_on_c, 0, 87, 52
2, 71359, Note_on_c, 0, 87, 0
2, 71360, Note_on_c, 0, 99, 40
2, 71380, Note_on_c, 0, 99, 39
2, 71384, Note_on_c, 0, 80, 0
2, 71412, Note_on_c, 0, 99, 0
2, 71413, Note_on_c, 0, 87, 53
2, 71466, Note_on_c, 0, 87, 0
2, 71466, Note_on_c, 0, 92, 45
2, 71519, Note_on_c, 0, 92, 0
2, 71539, Note_on_c, 0, 99, 0
2, 99570, Note_on_c, 0, 96, 91
2, 99600, Note_on_c, 0, 96, 0
2, 99608, Note_on_c, 0, 89, 99
2, 99614, Note_on_c, 0, 101, 87
2, 99703, Note_on_c, 0, 89, 0
2, 99709, Note_on_c, 0, 101, 0
2, 100050, Note_on_c, 0, 96, 98
2, 100080, Note_on_c, 0, 96, 0
2, 100101, Note_on_c, 0, 103, 86
2, 100103, Note_on_c, 0, 91, 97
2, 100196, Note_on_c, 0, 103, 0
2, 100198, Note_on_c, 0, 91, 0
2, 108963, Note_on_c, 0, 96, 96
2, 108973, Note_on_c, 0, 96, 105
2, 109043, Note_on_c, 0, 96, 0
2, 109050, Note_on_c, 0, 108, 101
2, 109068, Note_on_c, 0, 96, 0
2, 109129, Note_on_c, 0, 108, 0
2, 109132, Note_on_c, 0, 96, 103
2, 109201, Note_on_c, 0, 94, 94
2, 109212, Note_on_c, 0, 96, 0
2, 109223, Note_on_c, 0, 94, 109
2, 109296, Note_on_c, 0, 94, 0
2, 109299, Note_on_c, 0, 96, 96
2, 109303, Note_on_c, 0, 94, 0
2, 109376, Note_on_c, 0, 94, 97
2, 109378, Note_on_c, 0, 96, 0
2, 109440, Note_on_c, 0, 93, 97
2, 109447, Note_on_c, 0, 93, 94
2, 109456, Note_on_c, 0, 94, 0
2, 109520, Note_on_c, 0, 93, 0
2, 109521, Note_on_c, 0, 94, 106
2, 109542, Note_on_c, 0, 93, 0
2, 109600, Note_on_c, 0, 94, 0
2, 109616, Note_on_c, 0, 93, 106
2, 109696, Note_on_c, 0, 93, 0
2, 109697, Note_on_c, 0, 91, 99
2, 109701, Note_on_c, 0, 91, 102
2, 109767, Note_on_c, 0, 103, 92
2, 109781, Note_on_c, 0, 91, 0
2, 109792, Note_on_c, 0, 91, 0
2, 109846, Note_on_c, 0, 103, 0
2, 109859, Note_on_c, 0, 91, 107
2, 109920, Note_on_c, 0, 93, 95
2, 109939, Note_on_c, 0, 91, 0
2, 110015, Note_on_c, 0, 93, 0
2, 112085, Note_on_c, 0, 91, 98
2, 112089, Note_on_c, 0, 91, 92
2, 112165, Note_on_c, 0, 91, 0
2, 112168, Note_on_c, 0, 103, 96
2, 112184, Note_on_c, 0, 91, 0
2, 112245, Note_on_c, 0, 91, 110
2, 112247, Note_on_c, 0, 103, 0
2, 112325, Note_on_c, 0, 91, 0
2, 112328, Note_on_c, 0, 93, 104
2, 112336, Note_on_c, 0, 93, 110
2, 112400, Note_on_c, 0, 94, 92
2, 112408, Note_on_c, 0, 93, 0
2, 112431, Note_on_c, 0, 93, 0
2, 112479, Note_on_c, 0, 94, 0
2, 112485, Note_on_c, 0, 93, 99
2, 112565, Note_on_c, 0, 93, 0
2, 112565, Note_on_c, 0, 94, 93
2, 112572, Note_on_c, 0, 94, 96
2, 112645, Note_on_c, 0, 94, 0
2, 112659, Note_on_c, 0, 96, 109
2, 112667, Note_on_c, 0, 94, 0
2, 112735, Note_on_c, 0, 94, 108
2, 112738, Note_on_c, 0, 96, 0
2, 112807, Note_on_c, 0, 96, 96
2, 112815, Note_on_c, 0, 94, 0
2, 112823, Note_on_c, 0, 96, 93
2, 112880, Note_on_c, 0, 108, 101
2, 112902, Note_on_c, 0, 96, 0
2, 112903, Note_on_c, 0, 96, 0
2, 112959, Note_on_c, 0, 108, 0
2, 112960, Note_on_c, 0, 96, 94
2, 113040, Note_on_c, 0, 96, 0
2, 113052, Note_on_c, 0, 94, 98
2, 113058, Note_on_c, 0, 94, 110
2, 113128, Note_on_c, 0, 96, 111
2, 113132, Note_on_c, 0, 94, 0
2, 113153, Note_on_c, 0, 94, 0
2, 113207, Note_on_c, 0, 96, 0
2, 113213, Note_on_c, 0, 94, 100
2, 113286, Note_on_c, 0, 93, 91
2, 113293, Note_on_c, 0, 94, 0
2, 113294, Note_on_c, 0, 93, 103
2, 113368, Note_on_c, 0, 94, 108
2, 113374, Note_on_c, 0, 93, 0
2, 113381, Note_on_c, 0, 93, 0
2, 113447, Note_on_c, 0, 94, 0
2, 113459, Note_on_c, 0, 93, 93
2, 113531, Note_on_c, 0, 91, 93
2, 113533, Note_on_c, 0, 91, 94
2, 113539, Note_on_c, 0, 93, 0
2, 113613, Note_on_c, 0, 91, 0
2, 113622, Note_on_c, 0, 103, 104
2, 113626, Note_on_c, 0, 91, 0
2, 113679, Note_on_c, 0, 91, 108
2, 113701, Note_on_c, 0, 103, 0
2, 113759, Note_on_c, 0, 91, 0
2, 113779, Note_on_c, 0, 93, 109
2, 113784, Note_on_c, 0, 96, 106
2, 113859, Note_on_c, 0, 93, 0
2, 113865, Note_on_c, 0, 94, 92
2, 113879, Note_on_c, 0, 96, 0
2, 113932, Note_on_c, 0, 93, 95
2, 113944, Note_on_c, 0, 94, 0
2, 114009, Note_on_c, 0, 91, 102
2, 114012, Note_on_c, 0, 93, 0
2, 114022, Note_on_c, 0, 94, 98
2, 114087, Note_on_c, 0, 96, 95
2, 114102, Note_on_c, 0, 94, 0
2, 114104, Note_on_c, 0, 91, 0
2, 114166, Note_on_c, 0, 96, 0
2, 114170, Note_on_c, 0, 94, 110
2, 114245, Note_on_c, 0, 96, 93
2, 114250, Note_on_c, 0, 94, 0
2, 114256, Note_on_c, 0, 96, 95
2, 114322, Note_on_c, 0, 108, 104
2, 114325, Note_on_c, 0, 96, 0
2, 114351, Note_on_c, 0, 96, 0
2, 114401, Note_on_c, 0, 108, 0
2, 114409, Note_on_c, 0, 96, 106
2, 114486, Note_on_c, 0, 94, 92
2, 114489, Note_on_c, 0, 96, 0
2, 114496, Note_on_c, 0, 94, 92
2, 114576, Note_on_c, 0, 94, 0
2, 114581, Note_on_c, 0, 94, 0
2, 114584, Note_on_c, 0, 96, 104
2, 114645, Note_on_c, 0, 94, 92
2, 114663, Note_on_c, 0, 96, 0
2, 114725, Note_on_c, 0, 94, 0
2, 114732, Note_on_c, 0, 93, 106
2, 114734, Note_on_c, 0, 93, 111
2, 114812, Note_on_c, 0, 94, 103
2, 114814, Note_on_c, 0, 93, 0
2, 114827, Note_on_c, 0, 93, 0
2, 114887, Note_on_c, 0, 93, 107
2, 114891, Note_on_c, 0, 94, 0
2, 114961, Note_on_c, 0, 91, 109
2, 114967, Note_on_c, 0, 93, 0
2, 114984, Note_on_c, 0, 91, 96
2, 115041, Note_on_c, 0, 91, 0
2, 115060, Note_on_c, 0, 103, 107
2, 115079, Note_on_c, 0, 91, 0
2, 115139, Note_on_c, 0, 103, 0
2, 115144, Note_on_c, 0, 91, 94
2, 115210, Note_on_c, 0, 93, 100
2, 115224, Note_on_c, 0, 91, 0
2, 115305, Note_on_c, 0, 93, 0
2, 152070, Note_on_c, 0, 95, 100
2, 152100, Note_on_c, 0, 95, 0
2, 152100, Note_on_c, 0, 96, 91
2, 152130, Note_on_c, 0, 96, 0
2, 152130, Note_on_c, 0, 98, 100
2, 152160, Note_on_c, 0, 98, 0
2, 152177, Note_on_c, 0, 97, 108
2, 152182, Note_on_c, 0, 100, 94
2, 152248, Note_on_c, 0, 97, 0
2, 152424, Note_on_c, 0, 94, 102
2, 152495, Note_on_c, 0, 94, 0
2, 152550, Note_on_c, 0, 95, 106
2, 152572, Note_on_c, 0, 100, 0
2, 152580, Note_on_c, 0, 95, 0
2, 152580, Note_on_c, 0, 88, 100
2, 152610, Note_on_c, 0, 88, 0
2, 152610, Note_on_c, 0, 86, 98
2, 152640, Note_on_c, 0, 86, 0
2, 152652, Note_on_c, 0, 83, 102
2, 153132, Note_on_c, 0, 83, 0
2, 203970, Note_on_c, 0, 99, 99
2, 204000, Note_on_c, 0, 92, 65
2, 204000, Note_on_c, 0, 92, 85
2, 204015, Note_on_c, 0, 99, 0
2, 204060, Note_on_c, 0, 93, 82
2, 204060, Note_on_c, 0, 93, 75
2, 204090, Note_on_c, 0, 92, 0
2, 204090, Note_on_c, 0, 92, 0
2, 204112, Note_on_c, 0, 93, 0
2, 204137, Note_on_c, 0, 92, 72
2, 204150, Note_on_c, 0, 93, 0
2, 204250, Note_on_c, 0, 87, 75
2, 204317, Note_on_c, 0, 92, 0
2, 204450, Note_on_c, 0, 99, 76
2, 204480, Note_on_c, 0, 94, 65
2, 204480, Note_on_c, 0, 94, 71
2, 204490, Note_on_c, 0, 87, 0
2, 204495, Note_on_c, 0, 99, 0
2, 204540, Note_on_c, 0, 95, 79
2, 204540, Note_on_c, 0, 95, 75
2, 204570, Note_on_c, 0, 94, 0
2, 204570, Note_on_c, 0, 94, 0
2, 204592, Note_on_c, 0, 95, 0
2, 204604, Note_on_c, 0, 94, 71
2, 204630, Note_on_c, 0, 95, 0
2, 204739, Note_on_c, 0, 87, 73
2, 204784, Note_on_c, 0, 94, 0
2, 204930, Note_on_c, 0, 99, 75
2, 204960, Note_on_c, 0, 92, 68
2, 204960, Note_on_c, 0, 92, 81
2, 204975, Note_on_c, 0, 99, 0
2, 204979, Note_on_c, 0, 87, 0
2, 205020, Note_on_c, 0, 93, 66
2, 205020, Note_on_c, 0, 93, 84
2, 205050, Note_on_c, 0, 92, 0
2, 205050, Note_on_c, 0, 92, 0
2, 205072, Note_on_c, 0, 93, 0
2, 205081, Note_on_c, 0, 92, 68
2, 205110, Note_on_c, 0, 93, 0
2, 205200, Note_on_c, 0, 87, 69
2, 205261, Note_on_c, 0, 92, 0
2, 205410, Note_on_c, 0, 99, 79
2, 205440, Note_on_c, 0, 87, 0
2, 205440, Note_on_c, 0, 94, 80
2, 205440, Note_on_c, 0, 94, 65
2, 205455, Note_on_c, 0, 99, 0
2, 205500, Note_on_c, 0, 95, 80
2, 205500, Note_on_c, 0, 95, 79
2, 205530, Note_on_c, 0, 94, 0
2, 205530, Note_on_c, 0, 94, 0
2, 205552, Note_on_c, 0, 95, 0
2, 205584, Note_on_c, 0, 94, 69
2, 205590, Note_on_c, 0, 95, 0
2, 205695, Note_on_c, 0, 87, 71
2, 205764, Note_on_c, 0, 94, 0
2, 205890, Note_on_c, 0, 99, 65
2, 205920, Note_on_c, 0, 92, 79
2, 205920, Note_on_c, 0, 92, 76
2, 205935, Note_on_c, 0, 87, 0
2, 205935, Note_on_c, 0, 99, 0
2, 205980, Note_on_c, 0, 93, 65
2, 205980, Note_on_c, 0, 93, 70
2, 206010, Note_on_c, 0, 92, 0
2, 206010, Note_on_c, 0, 92, 0
2, 206032, Note_on_c, 0, 93, 0
2, 206047, Note_on_c, 0, 92, 65
2, 206070, Note_on_c, 0, 93, 0
2, 206172, Note_on_c, 0, 87, 69
2, 206227, Note_on_c, 0, 92, 0
2, 206370, Note_on_c, 0, 99, 81
2, 206400, Note_on_c, 0, 94, 73
2, 206400, Note_on_c, 0, 94, 80
2, 206412, Note_on_c, 0, 87, 0
2, 206415, Note_on_c, 0, 99, 0
2, 206460, Note_on_c, 0, 95, 78
2, 206460, Note_on_c, 0, 95, 74
2, 206490, Note_on_c, 0, 94, 0
2, 206490, Note_on_c, 0, 94, 0
2, 206512, Note_on_c, 0, 95, 0
2, 206533, Note_on_c, 0, 94, 65
2, 206550, Note_on_c, 0, 95, 0
2, 206649, Note_on_c, 0, 87, 74
2, 206713, Note_on_c, 0, 94, 0
2, 206850, Note_on_c, 0, 99, 72
2, 206880, Note_on_c, 0, 92, 79
2, 206880, Note_on_c, 0, 92, 85
2, 206889, Note_on_c, 0, 87, 0
2, 206895, Note_on_c, 0, 99, 0
2, 206940, Note_on_c, 0, 93, 72
2, 206940, Note_on_c, 0, 93, 80
2, 206970, Note_on_c, 0, 92, 0
2, 206970, Note_on_c, 0, 92, 0
2, 206992, Note_on_c, 0, 93, 0
2, 207020, Note_on_c, 0, 92, 81
2, 207030, Note_on_c, 0, 93, 0
2, 207120, Note_on_c, 0, 87, 66
2, 207200, Note_on_c, 0, 92, 0
2, 207330, Note_on_c, 0, 99, 72
2, 207360, Note_on_c, 0, 87, 0
2, 207360, Note_on_c, 0, 94, 76
2, 207360, Note_on_c, 0, 94, 71
2, 207375, Note_on_c, 0, 99, 0
2, 207420, Note_on_c, 0, 95, 79
2, 207420, Note_on_c, 0, 95, 68
2, 207450, Note_on_c, 0, 94, 0
2, 207450, Note_on_c, 0, 94, 0
2, 207472, Note_on_c, 0, 95, 0
2, 207492, Note_on_c, 0, 94, 84
2, 207510, Note_on_c, 0, 95, 0
2, 207612, Note_on_c, 0, 87, 78
2, 207672, Note_on_c, 0, 94, 0
2, 207810, Note_on_c, 0, 99, 65
2, 207840, Note_on_c, 0, 92, 71
2, 207840, Note_on_c, 0, 92, 72
2, 207852, Note_on_c, 0, 87, 0
2, 207855, Note_on_c, 0, 99, 0
2, 207900, Note_on_c, 0, 93, 72
2, 207900, Note_on_c, 0, 93, 84
2, 207930, Note_on_c, 0, 92, 0
2, 207930, Note_on_c, 0, 92, 0
2, 207952, Note_on_c, 0, 93, 0
2, 207970, Note_on_c, 0, 92, 75
2, 207990, Note_on_c, 0, 93, 0
2, 208103, Note_on_c, 0, 87, 70
2, 208150, Note_on_c, 0, 92, 0
2, 208290, Note_on_c, 0, 99, 68
2, 208320, Note_on_c, 0, 94, 75
2, 208320, Note_on_c, 0, 94, 74
2, 208335, Note_on_c, 0, 99, 0
2, 208343, Note_on_c, 0, 87, 0
2, 208380, Note_on_c, 0, 95, 85
2, 208380, Note_on_c, 0, 95, 70
2, 208410, Note_on_c, 0, 94, 0
2, 208410, Note_on_c, 0, 94, 0
2, 208432, Note_on_c, 0, 95, 0
2, 208462, Note_on_c, 0, 94, 72
2, 208470, Note_on_c, 0, 95, 0
2, 208579, Note_on_c, 0, 87, 83
2, 208642, Note_on_c, 0, 94, 0
2, 208770, Note_on_c, 0, 99, 81
2, 208800, Note_on_c, 0, 92, 71
2, 208800, Note_on_c, 0, 92, 81
2, 208815, Note_on_c, 0, 99, 0
2, 208819, Note_on_c, 0, 87, 0
2, 208860, Note_on_c, 0, 93, 65
2, 208860, Note_on_c, 0, 93, 85
2, 208890, Note_on_c, 0, 92, 0
2, 208890, Note_on_c, 0, 92, 0
2, 208912, Note_on_c, 0, 93, 0
2, 208933, Note_on_c, 0, 92, 83
2, 208950, Note_on_c, 0, 93, 0
2, 209045, Note_on_c, 0, 87, 66
2, 209113, Note_on_c, 0, 92, 0
2, 209250, Note_on_c, 0, 99, 84
2, 209280, Note_on_c, 0, 94, 72
2, 209280, Note_on_c, 0, 94, 71
2, 209285, Note_on_c, 0, 87, 0
2, 209295, Note_on_c, 0, 99, 0
2, 209340, Note_on_c, 0, 95, 68
2, 209340, Note_on_c, 0, 95, 79
2, 209370, Note_on_c, 0, 94, 0
2, 209370, Note_on_c, 0, 94, 0
2, 209392, Note_on_c, 0, 95, 0
2, 209403, Note_on_c, 0, 94, 73
2, 209430, Note_on_c, 0, 95, 0
2, 209532, Note_on_c, 0, 87, 68
2, 209583, Note_on_c, 0, 94, 0
2, 209730, Note_on_c, 0, 99, 75
2, 209760, Note_on_c, 0, 92, 75
2, 209760, Note_on_c, 0, 92, 70
2, 209772, Note_on_c, 0, 87, 0
2, 209775, Note_on_c, 0, 99, 0
2, 209820, Note_on_c, 0, 93, 76
2, 209820, Note_on_c, 0, 93, 85
2, 209850, Note_on_c, 0, 92, 0
2, 209850, Note_on_c, 0, 92, 0
2, 209872, Note_on_c, 0, 93, 0
2, 209889, Note_on_c, 0, 92, 65
2, 209910, Note_on_c, 0, 93, 0
2, 210009, Note_on_c, 0, 87, 67
2, 210069, Note_on_c, 0, 92, 0
2, 210210, Note_on_c, 0, 99, 67
2, 210240, Note_on_c, 0, 94, 66
2, 210240, Note_on_c, 0, 94, 82
2, 210249, Note_on_c, 0, 87, 0
2, 210255, Note_on_c, 0, 99, 0
2, 210300, Note_on_c, 0, 95, 74
2, 210300, Note_on_c, 0, 95, 68
2, 210330, Note_on_c, 0, 94, 0
2, 210330, Note_on_c, 0, 94, 0
2, 210352, Note_on_c, 0, 95, 0
2, 210366, Note_on_c, 0, 94, 69
2, 210390, Note_on_c, 0, 95, 0
2, 210505, Note_on_c, 0, 87, 78
2, 210546, Note_on_c, 0, 94, 0
2, 210690, Note_on_c, 0, 99, 85
2, 210720, Note_on_c, 0, 92, 75
2, 210720, Note_on_c, 0, 92, 75
2, 210735, Note_on_c, 0, 99, 0
2, 210745, Note_on_c, 0, 87, 0
2, 210780, Note_on_c, 0, 93, 83
2, 210780, Note_on_c, 0, 93, 74
2, 210810, Note_on_c, 0, 92, 0
2, 210810, Note_on_c, 0, 92, 0
2, 210832, Note_on_c, 0, 93, 0
2, 210857, Note_on_c, 0, 92, 85
2, 210870, Note_on_c, 0, 93, 0
2, 210980, Note_on_c, 0, 87, 67
2, 211037, Note_on_c, 0, 92, 0
2, 211170, Note_on_c, 0, 99, 65
2, 211200, Note_on_c, 0, 94, 70
2, 211200, Note_on_c, 0, 94, 70
2, 211215, Note_on_c, 0, 99, 0
2, 211220, Note_on_c, 0, 87, 0
2, 211260, Note_on_c, 0, 95, 65
2, 211260, Note_on_c, 0, 95, 84
2, 211290, Note_on_c, 0, 94, 0
2, 211290, Note_on_c, 0, 94, 0
2, 211312, Note_on_c, 0, 95, 0
2, 211345, Note_on_c, 0, 94, 66
2, 211350, Note_on_c, 0, 95, 0
2, 211459, Note_on_c, 0, 87, 74
2, 211525, Note_on_c, 0, 94, 0
2, 211699, Note_on_c, 0, 87, 0
2, 219363, Note_on_c, 0, 93, 67
2, 219570, Note_on_c, 0, 96, 66
2, 219573, Note_on_c, 0, 93, 0
2, 219600, Note_on_c, 0, 96, 0
2, 219602, Note_on_c, 0, 95, 85
2, 219722, Note_on_c, 0, 95, 0
2, 219743, Note_on_c, 0, 91, 72
2, 219851, Note_on_c, 0, 93, 84
2, 219863, Note_on_c, 0, 91, 0
2, 220084, Note_on_c, 0, 98, 82
2, 220091, Note_on_c, 0, 93, 0
2, 220260, Note_on_c, 0, 96, 68
2, 220264, Note_on_c, 0, 98, 0
2, 220290, Note_on_c, 0, 96, 0
2, 220290, Note_on_c, 0, 98, 85
2, 220320, Note_on_c, 0, 98, 0
2, 220343, Note_on_c, 0, 96, 78
2, 220577, Note_on_c, 0, 95, 69
2, 220583, Note_on_c, 0, 96, 0
2, 220697, Note_on_c, 0, 95, 0
2, 220703, Note_on_c, 0, 93, 82
2, 220801, Note_on_c, 0, 95, 85
2, 220823, Note_on_c, 0, 93, 0
2, 221041, Note_on_c, 0, 95, 0
2, 221065, Note_on_c, 0, 91, 76
2, 221305, Note_on_c, 0, 91, 0
2, 223216, Note_on_c, 0, 93, 77
2, 223311, Note_on_c, 0, 93, 0
2, 223455, Note_on_c, 0, 98, 84
2, 223550, Note_on_c, 0, 98, 0
2, 223697, Note_on_c, 0, 103, 83
2, 223809, Note_on_c, 0, 96, 78
2, 223817, Note_on_c, 0, 103, 0
2, 223921, Note_on_c, 0, 98, 66
2, 223929, Note_on_c, 0, 96, 0
2, 224041, Note_on_c, 0, 98, 0
2, 224048, Note_on_c, 0, 91, 75
2, 224168, Note_on_c, 0, 91, 0
2, 224182, Note_on_c, 0, 93, 69
2, 224410, Note_on_c, 0, 98, 66
2, 224422, Note_on_c, 0, 93, 0
2, 224580, Note_on_c, 0, 96, 66
2, 224590, Note_on_c, 0, 98, 0
2, 224610, Note_on_c, 0, 98, 74
2, 224625, Note_on_c, 0, 96, 0
2, 224643, Note_on_c, 0, 96, 72
2, 224655, Note_on_c, 0, 98, 0
2, 224883, Note_on_c, 0, 96, 0
2, 224905, Note_on_c, 0, 95, 77
2, 225003, Note_on_c, 0, 91, 84
2, 225025, Note_on_c, 0, 95, 0
2, 225123, Note_on_c, 0, 91, 0
2, 230880, Note_on_c, 0, 93, 79
2, 230940, Note_on_c, 0, 93, 0
2, 230940, Note_on_c, 0, 94, 89
2, 231000, Note_on_c, 0, 94, 0
2, 231023, Note_on_c, 0, 93, 90
2, 231090, Note_on_c, 0, 98, 78
2, 231113, Note_on_c, 0, 93, 0
2, 231120, Note_on_c, 0, 98, 0
2, 231142, Note_on_c, 0, 95, 90
2, 231242, Note_on_c, 0, 91, 93
2, 231262, Note_on_c, 0, 95, 0
2, 231362, Note_on_c, 0, 91, 0
2, 231385, Note_on_c, 0, 93, 85
2, 231607, Note_on_c, 0, 98, 89
2, 231625, Note_on_c, 0, 93, 0
2, 231840, Note_on_c, 0, 96, 95
2, 231847, Note_on_c, 0, 98, 0
2, 231900, Note_on_c, 0, 96, 0
2, 231900, Note_on_c, 0, 97, 88
2, 231960, Note_on_c, 0, 97, 0
2, 231983, Note_on_c, 0, 96, 97
2, 232090, Note_on_c, 0, 95, 93
2, 232103, Note_on_c, 0, 96, 0
2, 232210, Note_on_c, 0, 95, 0
2, 232215, Note_on_c, 0, 93, 87
2, 232320, Note_on_c, 0, 95, 86
2, 232335, Note_on_c, 0, 93, 0
2, 232560, Note_on_c, 0, 95, 0
2, 232567, Note_on_c, 0, 91, 79
2, 232800, Note_on_c, 0, 93, 82
2, 232807, Note_on_c, 0, 91, 0
2, 232860, Note_on_c, 0, 93, 0
2, 232860, Note_on_c, 0, 94, 90
2, 232920, Note_on_c, 0, 94, 0
2, 232943, Note_on_c, 0, 93, 98
2, 233010, Note_on_c, 0, 98, 80
2, 233033, Note_on_c, 0, 93, 0
2, 233040, Note_on_c, 0, 98, 0
2, 233059, Note_on_c, 0, 95, 98
2, 233166, Note_on_c, 0, 91, 97
2, 233179, Note_on_c, 0, 95, 0
2, 233284, Note_on_c, 0, 93, 78
2, 233286, Note_on_c, 0, 91, 0
2, 233490, Note_on_c, 0, 98, 78
2, 233494, Note_on_c, 0, 93, 0
2, 233520, Note_on_c, 0, 98, 0
2, 233528, Note_on_c, 0, 95, 94
2, 233760, Note_on_c, 0, 93, 88
2, 233768, Note_on_c, 0, 95, 0
2, 233820, Note_on_c, 0, 93, 0
2, 233820, Note_on_c, 0, 94, 81
2, 233880, Note_on_c, 0, 94, 0
2, 233899, Note_on_c, 0, 93, 93
2, 234009, Note_on_c, 0, 98, 83
2, 234019, Note_on_c, 0, 93, 0
2, 234240, Note_on_c, 0, 96, 88
2, 234249, Note_on_c, 0, 98, 0
2, 234300, Note_on_c, 0, 96, 0
2, 234300, Note_on_c, 0, 97, 92
2, 234360, Note_on_c, 0, 97, 0
2, 234366, Note_on_c, 0, 96, 92
2, 234486, Note_on_c, 0, 96, 0
2, 234488, Note_on_c, 0, 95, 87
2, 234608, Note_on_c, 0, 95, 0
2, 234616, Note_on_c, 0, 91, 86
2, 234720, Note_on_c, 0, 93, 96
2, 234736, Note_on_c, 0, 91, 0
2, 234780, Note_on_c, 0, 93, 0
2, 234780, Note_on_c, 0, 94, 93
2, 234840, Note_on_c, 0, 94, 0
2, 234848, Note_on_c, 0, 93, 81
2, 234930, Note_on_c, 0, 98, 87
2, 234960, Note_on_c, 0, 98, 0
2, 234968, Note_on_c, 0, 93, 0
2, 234984, Note_on_c, 0, 95, 78
2, 235224, Note_on_c, 0, 95, 0
2, 235225, Note_on_c, 0, 93, 81
2, 235445, Note_on_c, 0, 98, 87
2, 235465, Note_on_c, 0, 93, 0
2, 235680, Note_on_c, 0, 96, 96
2, 235685, Note_on_c, 0, 98, 0
2, 235740, Note_on_c, 0, 96, 0
2, 235740, Note_on_c, 0, 97, 92
2, 235800, Note_on_c, 0, 97, 0
2, 235820, Note_on_c, 0, 96, 81
2, 235937, Note_on_c, 0, 95, 87
2, 235940, Note_on_c, 0, 96, 0
2, 236051, Note_on_c, 0, 93, 87
2, 236057, Note_on_c, 0, 95, 0
2, 236171, Note_on_c, 0, 93, 0
2, 236179, Note_on_c, 0, 95, 85
2, 236412, Note_on_c, 0, 91, 95
2, 236419, Note_on_c, 0, 95, 0
2, 236652, Note_on_c, 0, 91, 0
2, 236654, Note_on_c, 0, 93, 120
2, 236894, Note_on_c, 0, 93, 0
2, 236895, Note_on_c, 0, 98, 119
2, 237135, Note_on_c, 0, 98, 0
2, 237137, Note_on_c, 0, 103, 111
2, 237240, Note_on_c, 0, 96, 81
2, 237257, Note_on_c, 0, 103, 0
2, 237360, Note_on_c, 0, 96, 0
2, 237379, Note_on_c, 0, 98, 112
2, 237499, Note_on_c, 0, 98, 0
2, 237503, Note_on_c, 0, 91, 78
2, 237600, Note_on_c, 0, 93, 112
2, 237623, Note_on_c, 0, 91, 0
2, 237840, Note_on_c, 0, 93, 0
2, 237841, Note_on_c, 0, 98, 98
2, 238080, Note_on_c, 0, 96, 98
2, 238081, Note_on_c, 0, 98, 0
2, 238140, Note_on_c, 0, 96, 0
2, 238140, Note_on_c, 0, 97, 87
2, 238200, Note_on_c, 0, 97, 0
2, 238201, Note_on_c, 0, 96, 96
2, 238321, Note_on_c, 0, 96, 0
2, 238340, Note_on_c, 0, 95, 98
2, 238442, Note_on_c, 0, 91, 94
2, 238460, Note_on_c, 0, 95, 0
2, 238561, Note_on_c, 0, 93, 111
2, 238562, Note_on_c, 0, 91, 0
2, 238800, Note_on_c, 0, 95, 107
2, 238801, Note_on_c, 0, 93, 0
2, 238920, Note_on_c, 0, 95, 0
2, 238943, Note_on_c, 0, 91, 98
2, 239046, Note_on_c, 0, 93, 107
2, 239063, Note_on_c, 0, 91, 0
2, 239286, Note_on_c, 0, 93, 0
2, 239298, Note_on_c, 0, 98, 102
2, 239538, Note_on_c, 0, 98, 0
2, 239543, Note_on_c, 0, 96, 101
2, 239783, Note_on_c, 0, 96, 0
2, 239785, Note_on_c, 0, 95, 95
2, 239883, Note_on_c, 0, 93, 96
2, 239905, Note_on_c, 0, 95, 0
2, 240000, Note_on_c, 0, 95, 110
2, 240003, Note_on_c, 0, 93, 0
2, 240240, Note_on_c, 0, 95, 0
2, 240246, Note_on_c, 0, 91, 109
2, 240486, Note_on_c, 0, 91, 0
2, 240487, Note_on_c, 0, 93, 109
2, 240727, Note_on_c, 0, 93, 0
2, 240733, Note_on_c, 0, 98, 94
2, 240965, Note_on_c, 0, 103, 101
2, 240973, Note_on_c, 0, 98, 0
2, 241085, Note_on_c, 0, 103, 0
2, 241090, Note_on_c, 0, 96, 100
2, 241210, Note_on_c, 0, 96, 0
2, 241220, Note_on_c, 0, 98, 92
2, 241340, Note_on_c, 0, 98, 0
2, 241345, Note_on_c, 0, 91, 109
2, 241456, Note_on_c, 0, 93, 104
2, 241465, Note_on_c, 0, 91, 0
2, 241696, Note_on_c, 0, 93, 0
2, 241704, Note_on_c, 0, 95, 108
2, 241822, Note_on_c, 0, 91, 93
2, 241824, Note_on_c, 0, 95, 0
2, 241920, Note_on_c, 0, 93, 97
2, 241942, Note_on_c, 0, 91, 0
2, 242160, Note_on_c, 0, 93, 0
2, 242175, Note_on_c, 0, 98, 104
2, 242415, Note_on_c, 0, 98, 0
2, 242420, Note_on_c, 0, 96, 104
2, 242641, Note_on_c, 0, 95, 95
2, 242660, Note_on_c, 0, 96, 0
2, 242761, Note_on_c, 0, 95, 0
2, 242781, Note_on_c, 0, 93, 100
2, 242886, Note_on_c, 0, 95, 102
2, 242901, Note_on_c, 0, 93, 0
2, 243126, Note_on_c, 0, 95, 0
2, 243129, Note_on_c, 0, 91, 104
2, 243361, Note_on_c, 0, 93, 100
2, 243369, Note_on_c, 0, 91, 0
2, 243601, Note_on_c, 0, 93, 0
2, 243618, Note_on_c, 0, 95, 105
2, 243722, Note_on_c, 0, 91, 106
2, 243738, Note_on_c, 0, 95, 0
2, 243842, Note_on_c, 0, 91, 0
2, 243865, Note_on_c, 0, 93, 97
2, 244082, Note_on_c, 0, 98, 110
2, 244105, Note_on_c, 0, 93, 0
2, 244322, Note_on_c, 0, 98, 0
2, 244338, Note_on_c, 0, 93, 105
2, 244563, Note_on_c, 0, 98, 97
2, 244578, Note_on_c, 0, 93, 0
2, 244803, Note_on_c, 0, 98, 0
2, 244810, Note_on_c, 0, 103, 94
2, 244929, Note_on_c, 0, 96, 107
2, 244930, Note_on_c, 0, 103, 0
2, 245049, Note_on_c, 0, 96, 0
2, 245063, Note_on_c, 0, 98, 99
2, 245162, Note_on_c, 0, 91, 97
2, 245183, Note_on_c, 0, 98, 0
2, 245280, Note_on_c, 0, 93, 105
2, 245282, Note_on_c, 0, 91, 0
2, 245520, Note_on_c, 0, 93, 0
2, 245527, Note_on_c, 0, 95, 106
2, 245644, Note_on_c, 0, 91, 108
2, 245647, Note_on_c, 0, 95, 0
2, 245764, Note_on_c, 0, 91, 0
2, 245777, Note_on_c, 0, 93, 91
2, 246010, Note_on_c, 0, 98, 101
2, 246017, Note_on_c, 0, 93, 0
2, 246248, Note_on_c, 0, 93, 109
2, 246250, Note_on_c, 0, 98, 0
2, 246488, Note_on_c, 0, 93, 0
2, 246493, Note_on_c, 0, 98, 99
2, 246722, Note_on_c, 0, 103, 102
2, 246733, Note_on_c, 0, 98, 0
2, 246842, Note_on_c, 0, 103, 0
2, 246844, Note_on_c, 0, 96, 105
2, 246964, Note_on_c, 0, 96, 0
2, 246968, Note_on_c, 0, 98, 94
2, 247088, Note_on_c, 0, 98, 0
2, 247091, Note_on_c, 0, 91, 104
2, 247203, Note_on_c, 0, 93, 110
2, 247211, Note_on_c, 0, 91, 0
2, 247443, Note_on_c, 0, 93, 0
2, 247463, Note_on_c, 0, 98, 93
2, 247703, Note_on_c, 0, 98, 0
2, 247705, Note_on_c, 0, 103, 93
2, 247817, Note_on_c, 0, 96, 109
2, 247825, Note_on_c, 0, 103, 0
2, 247926, Note_on_c, 0, 98, 95
2, 247937, Note_on_c, 0, 96, 0
2, 248046, Note_on_c, 0, 98, 0
2, 248050, Note_on_c, 0, 91, 98
2, 248162, Note_on_c, 0, 93, 109
2, 248170, Note_on_c, 0, 91, 0
2, 248402, Note_on_c, 0, 93, 0
2, 248403, Note_on_c, 0, 98, 101
2, 248643, Note_on_c, 0, 98, 0
2, 248661, Note_on_c, 0, 103, 104
2, 248775, Note_on_c, 0, 96, 94
2, 248781, Note_on_c, 0, 103, 0
2, 248895, Note_on_c, 0, 96, 0
2, 248904, Note_on_c, 0, 98, 97
2, 249008, Note_on_c, 0, 91, 101
2, 249024, Note_on_c, 0, 98, 0
2, 249128, Note_on_c, 0, 91, 0
2, 249134, Note_on_c, 0, 93, 98
2, 249374, Note_on_c, 0, 93, 0
2, 249382, Note_on_c, 0, 98, 101
2, 249621, Note_on_c, 0, 96, 97
2, 249622, Note_on_c, 0, 98, 0
2, 249859, Note_on_c, 0, 95, 100
2, 249861, Note_on_c, 0, 96, 0
2, 249965, Note_on_c, 0, 91, 92
2, 249979, Note_on_c, 0, 95, 0
2, 250085, Note_on_c, 0, 91, 0
2, 257532, Note_on_c, 0, 93, 79
2, 257652, Note_on_c, 0, 93, 0
2, 257765, Note_on_c, 0, 95, 89
2, 257885, Note_on_c, 0, 95, 0
2, 258020, Note_on_c, 0, 98, 92
2, 258140, Note_on_c, 0, 98, 0
2, 258254, Note_on_c, 0, 103, 95
2, 258374, Note_on_c, 0, 103, 0
2, 258494, Note_on_c, 0, 102, 91
2, 258614, Note_on_c, 0, 102, 0
2, 258734, Note_on_c, 0, 100, 84
2, 258854, Note_on_c, 0, 100, 0
2, 258979, Note_on_c, 0, 98, 85
2, 259099, Note_on_c, 0, 98, 0
2, 259213, Note_on_c, 0, 93, 87
2, 259333, Note_on_c, 0, 93, 0
2, 259703, Note_on_c, 0, 95, 82
2, 259823, Note_on_c, 0, 95, 0
2, 259933, Note_on_c, 0, 98, 83
2, 260053, Note_on_c, 0, 98, 0
2, 260183, Note_on_c, 0, 96, 89
2, 260303, Note_on_c, 0, 96, 0
2, 260421, Note_on_c, 0, 93, 93
2, 260541, Note_on_c, 0, 93, 0
2, 260641, Note_on_c, 0, 93, 93
2, 260761, Note_on_c, 0, 93, 0
2, 260892, Note_on_c, 0, 93, 78
2, 261012, Note_on_c, 0, 93, 0
2, 274804, Note_on_c, 0, 94, 96
2, 274924, Note_on_c, 0, 94, 0
2, 275062, Note_on_c, 0, 99, 85
2, 275182, Note_on_c, 0, 99, 0
2, 275283, Note_on_c, 0, 94, 80
2, 275403, Note_on_c, 0, 94, 0
2, 275531, Note_on_c, 0, 99, 107
2, 275651, Note_on_c, 0, 99, 0
2, 275780, Note_on_c, 0, 101, 100
2, 275900, Note_on_c, 0, 101, 0
2, 276025, Note_on_c, 0, 104, 104
2, 276145, Note_on_c, 0, 104, 0
2, 276253, Note_on_c, 0, 103, 105
2, 276373, Note_on_c, 0, 103, 0
2, 276492, Note_on_c, 0, 101, 105
2, 276612, Note_on_c, 0, 101, 0
2, 276744, Note_on_c, 0, 99, 90
2, 276864, Note_on_c, 0, 99, 0
2, 276965, Note_on_c, 0, 94, 95
2, 277085, Note_on_c, 0, 94, 0
2, 278894, Note_on_c, 0, 99, 116
2, 279014, Note_on_c, 0, 99, 0
2, 279141, Note_on_c, 0, 104, 99
2, 279261, Note_on_c, 0, 104, 0
2, 279361, Note_on_c, 0, 103, 89
2, 279481, Note_on_c, 0, 103, 0
2, 279609, Note_on_c, 0, 101, 101
2, 279729, Note_on_c, 0, 101, 0
2, 279853, Note_on_c, 0, 99, 91
2, 279973, Note_on_c, 0, 99, 0
2, 280104, Note_on_c, 0, 94, 79
2, 280224, Note_on_c, 0, 94, 0
2, 280343, Note_on_c, 0, 96, 97
2, 280463, Note_on_c, 0, 96, 0
2, 280579, Note_on_c, 0, 99, 112
2, 280699, Note_on_c, 0, 99, 0
2, 280812, Note_on_c, 0, 97, 115
2, 280932, Note_on_c, 0, 97, 0
2, 281044, Note_on_c, 0, 94, 106
2, 281164, Note_on_c, 0, 94, 0
2, 281305, Note_on_c, 0, 94, 102
2, 281425, Note_on_c, 0, 94, 0
2, 281525, Note_on_c, 0, 94, 84
2, 281645, Note_on_c, 0, 94, 0
2, 294729, Note_on_c, 0, 90, 71
2, 294849, Note_on_c, 0, 90, 0
2, 294852, Note_on_c, 0, 90, 73
2, 294962, Note_on_c, 0, 90, 79
2, 294972, Note_on_c, 0, 90, 0
2, 295082, Note_on_c, 0, 90, 0
2, 295105, Note_on_c, 0, 90, 81
2, 295217, Note_on_c, 0, 90, 67
2, 295225, Note_on_c, 0, 90, 0
2, 295334, Note_on_c, 0, 90, 69
2, 295337, Note_on_c, 0, 90, 0
2, 295441, Note_on_c, 0, 90, 79
2, 295450, Note_on_c, 0, 90, 0
2, 295561, Note_on_c, 0, 90, 0
2, 295579, Note_on_c, 0, 90, 80
2, 295687, Note_on_c, 0, 90, 74
2, 295699, Note_on_c, 0, 90, 0
2, 295807, Note_on_c, 0, 90, 0
2, 295822, Note_on_c, 0, 90, 65
2, 295928, Note_on_c, 0, 90, 85
2, 295942, Note_on_c, 0, 90, 0
2, 296048, Note_on_c, 0, 90, 0
2, 296057, Note_on_c, 0, 90, 76
2, 296173, Note_on_c, 0, 90, 0
2, 297610, Note_on_c, 0, 90, 66
2, 297721, Note_on_c, 0, 90, 75
2, 297730, Note_on_c, 0, 90, 0
2, 297841, Note_on_c, 0, 90, 0
2, 297843, Note_on_c, 0, 90, 79
2, 297963, Note_on_c, 0, 90, 0
2, 297976, Note_on_c, 0, 90, 72
2, 298096, Note_on_c, 0, 90, 0
2, 298102, Note_on_c, 0, 90, 72
2, 298204, Note_on_c, 0, 90, 84
2, 298222, Note_on_c, 0, 90, 0
2, 298320, Note_on_c, 0, 90, 0
2, 298335, Note_on_c, 0, 90, 85
2, 299055, Note_on_c, 0, 90, 0
2, 300500, Note_on_c, 0, 90, 85
2, 301203, Note_on_c, 0, 90, 71
2, 301220, Note_on_c, 0, 90, 0
2, 301923, Note_on_c, 0, 90, 0
2, 302520, Note_on_c, 0, 88, 69
2, 302550, Note_on_c, 0, 88, 0
2, 302550, Note_on_c, 0, 90, 79
2, 302580, Note_on_c, 0, 90, 0
2, 302580, Note_on_c, 0, 91, 74
2, 302610, Note_on_c, 0, 91, 0
2, 302610, Note_on_c, 0, 93, 71
2, 302640, Note_on_c, 0, 93, 0
2, 302664, Note_on_c, 0, 94, 100
2, 302784, Note_on_c, 0, 94, 0
2, 302900, Note_on_c, 0, 92, 101
2, 303020, Note_on_c, 0, 92, 0
2, 303143, Note_on_c, 0, 94, 110
2, 303263, Note_on_c, 0, 94, 0
2, 303380, Note_on_c, 0, 92, 95
2, 303500, Note_on_c, 0, 92, 0
2, 303604, Note_on_c, 0, 90, 104
2, 303724, Note_on_c, 0, 90, 0
2, 303841, Note_on_c, 0, 89, 106
2, 303961, Note_on_c, 0, 89, 0
2, 304095, Note_on_c, 0, 94, 100
2, 304215, Note_on_c, 0, 94, 0
2, 304322, Note_on_c, 0, 92, 94
2, 304442, Note_on_c, 0, 92, 0
2, 304568, Note_on_c, 0, 94, 105
2, 304688, Note_on_c, 0, 94, 0
2, 304813, Note_on_c, 0, 92, 94
2, 304933, Note_on_c, 0, 92, 0
2, 305051, Note_on_c, 0, 90, 108
2, 305171, Note_on_c, 0, 90, 0
2, 305302, Note_on_c, 0, 89, 100
2, 305422, Note_on_c, 0, 89, 0
2, 305526, Note_on_c, 0, 94, 100
2, 305646, Note_on_c, 0, 94, 0
2, 305778, Note_on_c, 0, 92, 102
2, 305898, Note_on_c, 0, 92, 0
2, 306017, Note_on_c, 0, 94, 103
2, 306137, Note_on_c, 0, 94, 0
2, 306260, Note_on_c, 0, 92, 103
2, 306380, Note_on_c, 0, 92, 0
2, 306503, Note_on_c, 0, 90, 91
2, 306623, Note_on_c, 0, 90, 0
2, 306721, Note_on_c, 0, 89, 107
2, 306841, Note_on_c, 0, 89, 0
2, 306964, Note_on_c, 0, 90, 106
2, 307084, Note_on_c, 0, 90, 0
2, 307222, Note_on_c, 0, 87, 110
2, 307342, Note_on_c, 0, 87, 0
2, 307462, Note_on_c, 0, 87, 102
2, 307582, Note_on_c, 0, 87, 0
2, 307682, Note_on_c, 0, 87, 107
2, 307802, Note_on_c, 0, 87, 0
2, 307931, Note_on_c, 0, 89, 110
2, 308051, Note_on_c, 0, 89, 0
2, 308185, Note_on_c, 0, 90, 110
2, 308305, Note_on_c, 0, 90, 0
2, 308422, Note_on_c, 0, 92, 98
2, 308542, Note_on_c, 0, 92, 0
2, 308648, Note_on_c, 0, 94, 105
2, 308768, Note_on_c, 0, 94, 0
2, 308903, Note_on_c, 0, 92, 94
2, 309023, Note_on_c, 0, 92, 0
2, 309138, Note_on_c, 0, 94, 108
2, 309258, Note_on_c, 0, 94, 0
2, 309375, Note_on_c, 0, 92, 110
2, 309495, Note_on_c, 0, 92, 0
2, 309617, Note_on_c, 0, 90, 93
2, 309737, Note_on_c, 0, 90, 0
2, 309855, Note_on_c, 0, 89, 105
2, 309975, Note_on_c, 0, 89, 0
2, 310084, Note_on_c, 0, 87, 93
2, 310204, Note_on_c, 0, 87, 0
2, 310345, Note_on_c, 0, 89, 102
2, 310465, Note_on_c, 0, 89, 0
2, 310562, Note_on_c, 0, 90, 105
2, 310682, Note_on_c, 0, 90, 0
2, 310823, Note_on_c, 0, 92, 101
2, 310943, Note_on_c, 0, 92, 0
2, 311044, Note_on_c, 0, 93, 108
2, 311164, Note_on_c, 0, 93, 0
2, 311285, Note_on_c, 0, 91, 100
2, 311405, Note_on_c, 0, 91, 0
2, 311521, Note_on_c, 0, 93, 91
2, 311641, Note_on_c, 0, 93, 0
2, 311776, Note_on_c, 0, 91, 98
2, 311896, Note_on_c, 0, 91, 0
2, 312003, Note_on_c, 0, 89, 99
2, 312123, Note_on_c, 0, 89, 0
2, 312243, Note_on_c, 0, 88, 91
2, 312363, Note_on_c, 0, 88, 0
2, 312488, Note_on_c, 0, 86, 107
2, 312608, Note_on_c, 0, 86, 0
2, 312724, Note_on_c, 0, 86, 111
2, 312844, Note_on_c, 0, 86, 0
2, 312982, Note_on_c, 0, 86, 92
2, 313102, Note_on_c, 0, 86, 0
2, 313213, Note_on_c, 0, 88, 92
2, 313333, Note_on_c, 0, 88, 0
2, 313448, Note_on_c, 0, 89, 110
2, 313568, Note_on_c, 0, 89, 0
2, 313697, Note_on_c, 0, 91, 96
2, 313817, Note_on_c, 0, 91, 0
2, 324600, Note_on_c, 0, 92, 94
2, 324600, Note_on_c, 0, 96, 110
2, 324630, Note_on_c, 0, 92, 0
2, 324630, Note_on_c, 0, 96, 0
2, 324630, Note_on_c, 0, 96, 91
2, 324630, Note_on_c, 0, 99, 94
2, 324660, Note_on_c, 0, 96, 0
2, 324660, Note_on_c, 0, 99, 0
2, 324660, Note_on_c, 0, 99, 100
2, 324660, Note_on_c, 0, 102, 97
2, 324690, Note_on_c, 0, 99, 0
2, 324690, Note_on_c, 0, 102, 0
2, 324690, Note_on_c, 0, 102, 91
2, 324690, Note_on_c, 0, 104, 93
2, 324720, Note_on_c, 0, 102, 0
2, 324720, Note_on_c, 0, 104, 0
2, 324725, Note_on_c, 0, 108, 116
2, 324732, Note_on_c, 0, 108, 122
2, 324742, Note_on_c, 0, 104, 115
2, 324905, Note_on_c, 0, 108, 0
2, 324922, Note_on_c, 0, 104, 0
2, 324979, Note_on_c, 0, 104, 114
2, 324980, Note_on_c, 0, 108, 118
2, 325152, Note_on_c, 0, 108, 0
2, 325159, Note_on_c, 0, 104, 0
2, 325207, Note_on_c, 0, 108, 113
2, 325210, Note_on_c, 0, 104, 108
2, 325387, Note_on_c, 0, 108, 0
2, 325390, Note_on_c, 0, 104, 0
2, 325400, Note_on_c, 0, 108, 0
2, 325450, Note_on_c, 0, 105, 120
2, 325457, Note_on_c, 0, 101, 116
2, 325463, Note_on_c, 0, 105, 116
2, 325630, Note_on_c, 0, 105, 0
2, 325637, Note_on_c, 0, 101, 0
2, 325694, Note_on_c, 0, 101, 120
2, 325700, Note_on_c, 0, 105, 113
2, 325874, Note_on_c, 0, 101, 0
2, 325883, Note_on_c, 0, 105, 0
2, 325933, Note_on_c, 0, 105, 124
2, 325937, Note_on_c, 0, 101, 124
2, 326113, Note_on_c, 0, 105, 0
2, 326117, Note_on_c, 0, 101, 0
2, 326120, Note_on_c, 0, 105, 0
2, 326176, Note_on_c, 0, 102, 121
2, 326178, Note_on_c, 0, 98, 112
2, 326179, Note_on_c, 0, 102, 104
2, 326356, Note_on_c, 0, 102, 0
2, 326358, Note_on_c, 0, 98, 0
2, 326412, Note_on_c, 0, 98, 110
2, 326423, Note_on_c, 0, 102, 109
2, 326592, Note_on_c, 0, 98, 0
2, 326599, Note_on_c, 0, 102, 0
2, 326649, Note_on_c, 0, 98, 124
2, 326651, Note_on_c, 0, 102, 120
2, 326829, Note_on_c, 0, 98, 0
2, 326831, Note_on_c, 0, 102, 0
2, 326843, Note_on_c, 0, 102, 0
2, 326890, Note_on_c, 0, 99, 114
2, 326893, Note_on_c, 0, 99, 106
2, 326898, Note_on_c, 0, 95, 114
2, 327073, Note_on_c, 0, 99, 0
2, 327078, Note_on_c, 0, 95, 0
2, 327131, Note_on_c, 0, 95, 123
2, 327136, Note_on_c, 0, 99, 113
2, 327310, Note_on_c, 0, 99, 0
2, 327311, Note_on_c, 0, 95, 0
2, 327363, Note_on_c, 0, 95, 123
2, 327384, Note_on_c, 0, 99, 109
2, 327543, Note_on_c, 0, 95, 0
2, 327556, Note_on_c, 0, 99, 0
2, 327564, Note_on_c, 0, 99, 0
2, 327602, Note_on_c, 0, 93, 121
2, 327613, Note_on_c, 0, 89, 109
2, 327620, Note_on_c, 0, 93, 117
2, 327782, Note_on_c, 0, 93, 0
2, 327793, Note_on_c, 0, 89, 0
2, 327852, Note_on_c, 0, 89, 113
2, 327856, Note_on_c, 0, 93, 107
2, 328032, Note_on_c, 0, 89, 0
2, 328040, Note_on_c, 0, 93, 0
2, 328082, Note_on_c, 0, 89, 123
2, 328092, Note_on_c, 0, 93, 122
2, 328262, Note_on_c, 0, 89, 0
2, 328272, Note_on_c, 0, 93, 0
2, 328276, Note_on_c, 0, 93, 0
2, 328322, Note_on_c, 0, 90, 117
2, 328326, Note_on_c, 0, 86, 112
2, 328331, Note_on_c, 0, 90, 104
2, 328506, Note_on_c, 0, 86, 0
2, 328511, Note_on_c, 0, 90, 0
2, 328566, Note_on_c, 0, 90, 121
2, 328573, Note_on_c, 0, 86, 104
2, 328742, Note_on_c, 0, 90, 0
2, 328753, Note_on_c, 0, 86, 0
2, 328806, Note_on_c, 0, 90, 106
2, 328823, Note_on_c, 0, 86, 117
2, 328986, Note_on_c, 0, 90, 0
2, 328986, Note_on_c, 0, 90, 0
2, 329003, Note_on_c, 0, 86, 0
2, 329053, Note_on_c, 0, 87, 124
2, 329055, Note_on_c, 0, 83, 121
2, 329064, Note_on_c, 0, 87, 104
2, 329235, Note_on_c, 0, 83, 0
2, 329244, Note_on_c, 0, 87, 0
2, 329280, Note_on_c, 0, 87, 121
2, 329292, Note_on_c, 0, 83, 106
2, 329472, Note_on_c, 0, 83, 0
2, 329473, Note_on_c, 0, 87, 0
2, 329535, Note_on_c, 0, 83, 104
2, 329542, Note_on_c, 0, 87, 104
2, 329700, Note_on_c, 0, 87, 0
2, 329715, Note_on_c, 0, 83, 0
2, 329722, Note_on_c, 0, 87, 0
2, 329761, Note_on_c, 0, 84, 122
2, 329775, Note_on_c, 0, 80, 108
2, 329777, Note_on_c, 0, 84, 123
2, 329955, Note_on_c, 0, 80, 0
2, 329957, Note_on_c, 0, 84, 0
2, 330013, Note_on_c, 0, 80, 109
2, 330013, Note_on_c, 0, 84, 110
2, 330181, Note_on_c, 0, 84, 0
2, 330193, Note_on_c, 0, 80, 0
2, 330248, Note_on_c, 0, 80, 112
2, 330260, Note_on_c, 0, 84, 110
2, 330428, Note_on_c, 0, 80, 0
2, 330433, Note_on_c, 0, 84, 0
2, 330440, Note_on_c, 0, 84, 0
2, 330487, Note_on_c, 0, 78, 104
2, 330491, Note_on_c, 0, 81, 112
2, 330505, Note_on_c, 0, 81, 112
2, 330667, Note_on_c, 0, 78, 0
2, 330671, Note_on_c, 0, 81, 0
2, 330723, Note_on_c, 0, 78, 124
2, 330731, Note_on_c, 0, 81, 119
2, 330903, Note_on_c, 0, 78, 0
2, 330925, Note_on_c, 0, 81, 0
2, 330963, Note_on_c, 0, 78, 117
2, 330981, Note_on_c, 0, 81, 111
2, 331143, Note_on_c, 0, 78, 0
2, 331151, Note_on_c, 0, 81, 0
2, 331161, Note_on_c, 0, 81, 0
2, 331925, Note_on_c, 0, 89, 83
2, 332045, Note_on_c, 0, 89, 0
2, 332162, Note_on_c, 0, 94, 80
2, 332282, Note_on_c, 0, 94, 0
2, 332404, Note_on_c, 0, 89, 86
2, 332524, Note_on_c, 0, 89, 0
2, 332657, Note_on_c, 0, 94, 97
2, 332777, Note_on_c, 0, 94, 0
2, 332882, Note_on_c, 0, 96, 98
2, 333002, Note_on_c, 0, 96, 0
2, 333125, Note_on_c, 0, 99, 85
2, 333245, Note_on_c, 0, 99, 0
2, 333371, Note_on_c, 0, 98, 94
2, 333491, Note_on_c, 0, 98, 0
2, 333625, Note_on_c, 0, 96, 89
2, 333745, Note_on_c, 0, 96, 0
2, 333846, Note_on_c, 0, 94, 86
2, 333966, Note_on_c, 0, 94, 0
2, 334094, Note_on_c, 0, 89, 80
2, 334214, Note_on_c, 0, 89, 0
2, 335044, Note_on_c, 0, 94, 92
2, 335164, Note_on_c, 0, 94, 0
2, 335281, Note_on_c, 0, 89, 93
2, 335401, Note_on_c, 0, 89, 0
2, 335525, Note_on_c, 0, 94, 97
2, 335645, Note_on_c, 0, 94, 0
2, 335769, Note_on_c, 0, 96, 82
2, 335889, Note_on_c, 0, 96, 0
2, 336014, Note_on_c, 0, 99, 88
2, 336134, Note_on_c, 0, 99, 0
2, 336261, Note_on_c, 0, 98, 96
2, 336381, Note_on_c, 0, 98, 0
2, 336489, Note_on_c, 0, 96, 78
2, 336609, Note_on_c, 0, 96, 0
2, 336727, Note_on_c, 0, 94, 82
2, 336847, Note_on_c, 0, 94, 0
2, 336977, Note_on_c, 0, 89, 83
2, 337097, Note_on_c, 0, 89, 0
2, 337222, Note_on_c, 0, 94, 92
2, 337342, Note_on_c, 0, 94, 0
2, 337447, Note_on_c, 0, 99, 93
2, 337567, Note_on_c, 0, 99, 0
2, 337690, Note_on_c, 0, 98, 96
2, 337810, Note_on_c, 0, 98, 0
2, 337943, Note_on_c, 0, 96, 79
2, 338063, Note_on_c, 0, 96, 0
2, 338162, Note_on_c, 0, 94, 81
2, 338282, Note_on_c, 0, 94, 0
2, 338407, Note_on_c, 0, 89, 81
2, 338527, Note_on_c, 0, 89, 0
2, 338649, Note_on_c, 0, 91, 91
2, 338769, Note_on_c, 0, 91, 0
2, 338894, Note_on_c, 0, 94, 78
2, 339014, Note_on_c, 0, 94, 0
2, 339131, Note_on_c, 0, 92, 97
2, 339251, Note_on_c, 0, 92, 0
2, 339360, Note_on_c, 0, 89, 84
2, 339480, Note_on_c, 0, 89, 0
2, 339604, Note_on_c, 0, 89, 82
2, 339724, Note_on_c, 0, 89, 0
2, 354248, Note_on_c, 0, 100, 85
2, 354391, Note_on_c, 0, 100, 0
2, 355683, Note_on_c, 0, 100, 90
2, 355826, Note_on_c, 0, 100, 0
2, 357122, Note_on_c, 0, 100, 90
2, 357265, Note_on_c, 0, 100, 0
2, 358088, Note_on_c, 0, 100, 86
2, 358231, Note_on_c, 0, 100, 0
2, 407520, Note_on_c, 0, 89, 98
2, 407558, Note_on_c, 0, 90, 96
2, 407577, Note_on_c, 0, 89, 0
2, 407596, Note_on_c, 0, 89, 95
2, 407615, Note_on_c, 0, 90, 0
2, 407635, Note_on_c, 0, 90, 78
2, 407653, Note_on_c, 0, 89, 0
2, 407673, Note_on_c, 0, 89, 93
2, 407692, Note_on_c, 0, 90, 0
2, 407711, Note_on_c, 0, 90, 81
2, 407730, Note_on_c, 0, 89, 0
2, 407750, Note_on_c, 0, 89, 90
2, 407768, Note_on_c, 0, 90, 0
2, 407788, Note_on_c, 0, 90, 97
2, 407807, Note_on_c, 0, 89, 0
2, 407827, Note_on_c, 0, 89, 97
2, 407845, Note_on_c, 0, 90, 0
2, 407865, Note_on_c, 0, 90, 96
2, 407884, Note_on_c, 0, 89, 0
2, 407904, Note_on_c, 0, 89, 90
2, 407922, Note_on_c, 0, 90, 0
2, 407942, Note_on_c, 0, 90, 98
2, 407961, Note_on_c, 0, 89, 0
2, 407981, Note_on_c, 0, 89, 98
2, 407999, Note_on_c, 0, 90, 0
2, 408019, Note_on_c, 0, 90, 90
2, 408038, Note_on_c, 0, 89, 0
2, 408058, Note_on_c, 0, 89, 81
2, 408076, Note_on_c, 0, 90, 0
2, 408096, Note_on_c, 0, 90, 88
2, 408115, Note_on_c, 0, 89, 0
2, 408135, Note_on_c, 0, 89, 97
2, 408153, Note_on_c, 0, 90, 0
2, 408173, Note_on_c, 0, 90, 86
2, 408192, Note_on_c, 0, 89, 0
2, 408211, Note_on_c, 0, 89, 95
2, 408230, Note_on_c, 0, 90, 0
2, 408250, Note_on_c, 0, 90, 87
2, 408268, Note_on_c, 0, 89, 0
2, 408288, Note_on_c, 0, 89, 86
2, 408307, Note_on_c, 0, 90, 0
2, 408326, Note_on_c, 0, 90, 89
2, 408345, Note_on_c, 0, 89, 0
2, 408365, Note_on_c, 0, 89, 94
2, 408383, Note_on_c, 0, 90, 0
2, 408403, Note_on_c, 0, 90, 83
2, 408422, Note_on_c, 0, 89, 0
2, 408442, Note_on_c, 0, 89, 93
2, 408460, Note_on_c, 0, 90, 0
2, 408480, Note_on_c, 0, 90, 93
2, 408499, Note_on_c, 0, 89, 0
2, 408519, Note_on_c, 0, 89, 93
2, 408537, Note_on_c, 0, 90, 0
2, 408557, Note_on_c, 0, 90, 90
2, 408576, Note_on_c, 0, 89, 0
2, 408596, Note_on_c, 0, 89, 88
2, 408614, Note_on_c, 0, 90, 0
2, 408634, Note_on_c, 0, 90, 82
2, 408653, Note_on_c, 0, 89, 0
2, 408673, Note_on_c, 0, 89, 96
2, 408691, Note_on_c, 0, 90, 0
2, 408716, Note_on_c, 0, 89, 0
2, 408737, Note_on_c, 0, 89, 78
2, 408817, Note_on_c, 0, 89, 0
2, 408818, Note_on_c, 0, 87, 89
2, 408893, Note_on_c, 0, 85, 84
2, 408897, Note_on_c, 0, 87, 0
2, 408960, Note_on_c, 0, 84, 89
2, 408973, Note_on_c, 0, 85, 0
2, 408998, Note_on_c, 0, 85, 95
2, 409017, Note_on_c, 0, 84, 0
2, 409037, Note_on_c, 0, 84, 87
2, 409056, Note_on_c, 0, 85, 0
2, 409076, Note_on_c, 0, 85, 91
2, 409094, Note_on_c, 0, 84, 0
2, 409115, Note_on_c, 0, 84, 78
2, 409134, Note_on_c, 0, 85, 0
2, 409154, Note_on_c, 0, 85, 78
2, 409172, Note_on_c, 0, 84, 0
2, 409193, Note_on_c, 0, 84, 81
2, 409212, Note_on_c, 0, 85, 0
2, 409231, Note_on_c, 0, 85, 96
2, 409250, Note_on_c, 0, 84, 0
2, 409271, Note_on_c, 0, 84, 89
2, 409289, Note_on_c, 0, 85, 0
2, 409310, Note_on_c, 0, 85, 88
2, 409329, Note_on_c, 0, 84, 0
2, 409348, Note_on_c, 0, 84, 98
2, 409367, Note_on_c, 0, 85, 0
2, 409387, Note_on_c, 0, 85, 95
2, 409406, Note_on_c, 0, 84, 0
2, 409426, Note_on_c, 0, 84, 98
2, 409444, Note_on_c, 0, 85, 0
2, 409465, Note_on_c, 0, 85, 95
2, 409484, Note_on_c, 0, 84, 0
2, 409504, Note_on_c, 0, 84, 84
2, 409522, Note_on_c, 0, 85, 0
2, 409543, Note_on_c, 0, 85, 85
2, 409562, Note_on_c, 0, 84, 0
2, 409582, Note_on_c, 0, 84, 92
2, 409600, Note_on_c, 0, 85, 0
2, 409621, Note_on_c, 0, 85, 83
2, 409639, Note_on_c, 0, 84, 0
2, 409660, Note_on_c, 0, 84, 97
2, 409679, Note_on_c, 0, 85, 0
2, 409698, Note_on_c, 0, 85, 84
2, 409717, Note_on_c, 0, 84, 0
2, 409738, Note_on_c, 0, 84, 92
2, 409756, Note_on_c, 0, 85, 0
2, 409776, Note_on_c, 0, 85, 95
2, 409795, Note_on_c, 0, 84, 0
2, 409815, Note_on_c, 0, 84, 83
2, 409834, Note_on_c, 0, 85, 0
2, 409854, Note_on_c, 0, 85, 81
2, 409872, Note_on_c, 0, 84, 0
2, 409893, Note_on_c, 0, 84, 92
2, 409912, Note_on_c, 0, 85, 0
2, 409932, Note_on_c, 0, 85, 90
2, 409951, Note_on_c, 0, 84, 0
2, 409971, Note_on_c, 0, 84, 94
2, 409989, Note_on_c, 0, 85, 0
2, 410010, Note_on_c, 0, 85, 91
2, 410029, Note_on_c, 0, 84, 0
2, 410049, Note_on_c, 0, 84, 86
2, 410067, Note_on_c, 0, 85, 0
2, 410088, Note_on_c, 0, 85, 88
2, 410107, Note_on_c, 0, 84, 0
2, 410126, Note_on_c, 0, 84, 82
2, 410145, Note_on_c, 0, 85, 0
2, 410165, Note_on_c, 0, 85, 86
2, 410184, Note_on_c, 0, 84, 0
2, 410205, Note_on_c, 0, 84, 92
2, 410222, Note_on_c, 0, 85, 0
2, 410243, Note_on_c, 0, 85, 94
2, 410262, Note_on_c, 0, 84, 0
2, 410282, Note_on_c, 0, 84, 79
2, 410301, Note_on_c, 0, 85, 0
2, 410321, Note_on_c, 0, 85, 94
2, 410339, Note_on_c, 0, 84, 0
2, 410360, Note_on_c, 0, 84, 95
2, 410379, Note_on_c, 0, 85, 0
2, 410399, Note_on_c, 0, 85, 96
2, 410417, Note_on_c, 0, 84, 0
2, 410438, Note_on_c, 0, 84, 82
2, 410457, Note_on_c, 0, 85, 0
2, 410476, Note_on_c, 0, 85, 92
2, 410495, Note_on_c, 0, 84, 0
2, 410516, Note_on_c, 0, 84, 98
2, 410534, Note_on_c, 0, 85, 0
2, 410555, Note_on_c, 0, 85, 80
2, 410574, Note_on_c, 0, 84, 0
2, 410593, Note_on_c, 0, 84, 85
2, 410612, Note_on_c, 0, 85, 0
2, 410632, Note_on_c, 0, 85, 82
2, 410651, Note_on_c, 0, 84, 0
2, 410671, Note_on_c, 0, 84, 78
2, 410689, Note_on_c, 0, 85, 0
2, 410710, Note_on_c, 0, 85, 87
2, 410729, Note_on_c, 0, 84, 0
2, 410749, Note_on_c, 0, 84, 96
2, 410767, Note_on_c, 0, 85, 0
2, 410788, Note_on_c, 0, 85, 98
2, 410807, Note_on_c, 0, 84, 0
2, 410827, Note_on_c, 0, 84, 92
2, 410845, Note_on_c, 0, 85, 0
2, 410874, Note_on_c, 0, 85, 83
2, 410884, Note_on_c, 0, 84, 0
2, 410885, Note_on_c, 0, 85, 0
2, 411130, Note_on_c, 0, 84, 93
2, 411202, Note_on_c, 0, 85, 85
2, 411210, Note_on_c, 0, 84, 0
2, 411280, Note_on_c, 0, 87, 84
2, 411281, Note_on_c, 0, 85, 0
2, 411360, Note_on_c, 0, 87, 0
2, 411373, Note_on_c, 0, 89, 85
2, 411588, Note_on_c, 0, 89, 0
2, 411622, Note_on_c, 0, 89, 88
2, 411702, Note_on_c, 0, 89, 0
2, 411705, Note_on_c, 0, 87, 90
2, 411782, Note_on_c, 0, 85, 82
2, 411784, Note_on_c, 0, 87, 0
2, 411840, Note_on_c, 0, 84, 87
2, 411862, Note_on_c, 0, 85, 0
2, 411876, Note_on_c, 0, 85, 78
2, 411894, Note_on_c, 0, 84, 0
2, 411913, Note_on_c, 0, 84, 94
2, 411930, Note_on_c, 0, 85, 0
2, 411949, Note_on_c, 0, 85, 79
2, 411967, Note_on_c, 0, 84, 0
2, 411986, Note_on_c, 0, 84, 83
2, 412003, Note_on_c, 0, 85, 0
2, 412022, Note_on_c, 0, 85, 78
2, 412040, Note_on_c, 0, 84, 0
2, 412059, Note_on_c, 0, 84, 80
2, 412076, Note_on_c, 0, 85, 0
2, 412095, Note_on_c, 0, 85, 94
2, 412113, Note_on_c, 0, 84, 0
2, 412132, Note_on_c, 0, 84, 85
2, 412149, Note_on_c, 0, 85, 0
2, 412168, Note_on_c, 0, 85, 88
2, 412186, Note_on_c, 0, 84, 0
2, 412205, Note_on_c, 0, 84, 84
2, 412222, Note_on_c, 0, 85, 0
2, 412241, Note_on_c, 0, 85, 78
2, 412259, Note_on_c, 0, 84, 0
2, 412278, Note_on_c, 0, 84, 90
2, 412295, Note_on_c, 0, 85, 0
2, 412320, Note_on_c, 0, 85, 78
2, 412332, Note_on_c, 0, 84, 0
2, 412357, Note_on_c, 0, 84, 94
2, 412374, Note_on_c, 0, 85, 0
2, 412393, Note_on_c, 0, 85, 79
2, 412411, Note_on_c, 0, 84, 0
2, 412430, Note_on_c, 0, 84, 83
2, 412447, Note_on_c, 0, 85, 0
2, 412466, Note_on_c, 0, 85, 78
2, 412484, Note_on_c, 0, 84, 0
2, 412503, Note_on_c, 0, 84, 80
2, 412520, Note_on_c, 0, 85, 0
2, 412557, Note_on_c, 0, 84, 0
2, 412570, Note_on_c, 0, 84, 93
2, 412646, Note_on_c, 0, 85, 85
2, 412650, Note_on_c, 0, 84, 0
2, 412725, Note_on_c, 0, 85, 0
2, 412744, Note_on_c, 0, 87, 83
2, 412800, Note_on_c, 0, 89, 78
2, 412824, Note_on_c, 0, 87, 0
2, 412839, Note_on_c, 0, 90, 95
2, 412858, Note_on_c, 0, 89, 0
2, 412878, Note_on_c, 0, 89, 97
2, 412897, Note_on_c, 0, 90, 0
2, 412918, Note_on_c, 0, 90, 94
2, 412936, Note_on_c, 0, 89, 0
2, 412957, Note_on_c, 0, 89, 85
2, 412976, Note_on_c, 0, 90, 0
2, 412996, Note_on_c, 0, 90, 87
2, 413015, Note_on_c, 0, 89, 0
2, 413036, Note_on_c, 0, 89, 85
2, 413054, Note_on_c, 0, 90, 0
2, 413075, Note_on_c, 0, 90, 83
2, 413094, Note_on_c, 0, 89, 0
2, 413115, Note_on_c, 0, 89, 83
2, 413133, Note_on_c, 0, 90, 0
2, 413154, Note_on_c, 0, 90, 84
2, 413173, Note_on_c, 0, 89, 0
2, 413193, Note_on_c, 0, 89, 86
2, 413212, Note_on_c, 0, 90, 0
2, 413233, Note_on_c, 0, 90, 95
2, 413251, Note_on_c, 0, 89, 0
2, 413272, Note_on_c, 0, 89, 84
2, 413291, Note_on_c, 0, 90, 0
2, 413311, Note_on_c, 0, 90, 97
2, 413330, Note_on_c, 0, 89, 0
2, 413351, Note_on_c, 0, 89, 79
2, 413369, Note_on_c, 0, 90, 0
2, 413390, Note_on_c, 0, 90, 90
2, 413409, Note_on_c, 0, 89, 0
2, 413430, Note_on_c, 0, 89, 97
2, 413448, Note_on_c, 0, 90, 0
2, 413469, Note_on_c, 0, 90, 97
2, 413488, Note_on_c, 0, 89, 0
2, 413508, Note_on_c, 0, 89, 92
2, 413527, Note_on_c, 0, 90, 0
2, 413548, Note_on_c, 0, 90, 82
2, 413566, Note_on_c, 0, 89, 0
2, 413587, Note_on_c, 0, 89, 81
2, 413606, Note_on_c, 0, 90, 0
2, 413626, Note_on_c, 0, 90, 81
2, 413645, Note_on_c, 0, 89, 0
2, 413666, Note_on_c, 0, 89, 82
2, 413684, Note_on_c, 0, 90, 0
2, 413705, Note_on_c, 0, 90, 79
2, 413724, Note_on_c, 0, 89, 0
2, 413745, Note_on_c, 0, 89, 97
2, 413763, Note_on_c, 0, 90, 0
2, 413784, Note_on_c, 0, 90, 81
2, 413803, Note_on_c, 0, 89, 0
2, 413823, Note_on_c, 0, 89, 98
2, 413842, Note_on_c, 0, 90, 0
2, 413863, Note_on_c, 0, 90, 89
2, 413881, Note_on_c, 0, 89, 0
2, 413902, Note_on_c, 0, 89, 89
2, 413921, Note_on_c, 0, 90, 0
2, 413941, Note_on_c, 0, 90, 86
2, 413960, Note_on_c, 0, 89, 0
2, 413981, Note_on_c, 0, 89, 81
2, 413999, Note_on_c, 0, 90, 0
2, 414020, Note_on_c, 0, 90, 79
2, 414039, Note_on_c, 0, 89, 0
2, 414060, Note_on_c, 0, 89, 90
2, 414078, Note_on_c, 0, 90, 0
2, 414099, Note_on_c, 0, 90, 97
2, 414118, Note_on_c, 0, 89, 0
2, 414138, Note_on_c, 0, 89, 81
2, 414157, Note_on_c, 0, 90, 0
2, 414178, Note_on_c, 0, 90, 80
2, 414196, Note_on_c, 0, 89, 0
2, 414217, Note_on_c, 0, 89, 98
2, 414236, Note_on_c, 0, 90, 0
2, 414256, Note_on_c, 0, 90, 78
2, 414275, Note_on_c, 0, 89, 0
2, 414296, Note_on_c, 0, 89, 89
2, 414314, Note_on_c, 0, 90, 0
2, 414335, Note_on_c, 0, 90, 92
2, 414354, Note_on_c, 0, 89, 0
2, 414375, Note_on_c, 0, 89, 94
2, 414393, Note_on_c, 0, 90, 0
2, 414414, Note_on_c, 0, 90, 80
2, 414433, Note_on_c, 0, 89, 0
2, 414453, Note_on_c, 0, 89, 79
2, 414472, Note_on_c, 0, 90, 0
2, 414493, Note_on_c, 0, 90, 83
2, 414511, Note_on_c, 0, 89, 0
2, 414532, Note_on_c, 0, 89, 83
2, 414551, Note_on_c, 0, 90, 0
2, 414571, Note_on_c, 0, 90, 91
2, 414590, Note_on_c, 0, 89, 0
2, 414611, Note_on_c, 0, 89, 89
2, 414629, Note_on_c, 0, 90, 0
2, 414650, Note_on_c, 0, 90, 87
2, 414669, Note_on_c, 0, 89, 0
2, 414690, Note_on_c, 0, 89, 82
2, 414708, Note_on_c, 0, 90, 0
2, 414729, Note_on_c, 0, 90, 80
2, 414748, Note_on_c, 0, 89, 0
2, 414768, Note_on_c, 0, 89, 97
2, 414787, Note_on_c, 0, 90, 0
2, 414808, Note_on_c, 0, 90, 98
2, 414826, Note_on_c, 0, 89, 0
2, 414847, Note_on_c, 0, 89, 86
2, 414866, Note_on_c, 0, 90, 0
2, 414886, Note_on_c, 0, 90, 94
2, 414905, Note_on_c, 0, 89, 0
2, 414926, Note_on_c, 0, 89, 80
2, 414944, Note_on_c, 0, 90, 0
2, 414965, Note_on_c, 0, 90, 85
2, 414984, Note_on_c, 0, 89, 0
2, 415005, Note_on_c, 0, 89, 94
2, 415023, Note_on_c, 0, 90, 0
2, 415044, Note_on_c, 0, 90, 90
2, 415063, Note_on_c, 0, 89, 0
2, 415083, Note_on_c, 0, 89, 95
2, 415102, Note_on_c, 0, 90, 0
2, 415123, Note_on_c, 0, 90, 79
2, 415141, Note_on_c, 0, 89, 0
2, 415162, Note_on_c, 0, 89, 91
2, 415181, Note_on_c, 0, 90, 0
2, 415201, Note_on_c, 0, 90, 83
2, 415220, Note_on_c, 0, 89, 0
2, 415241, Note_on_c, 0, 89, 83
2, 415259, Note_on_c, 0, 90, 0
2, 415280, Note_on_c, 0, 90, 93
2, 415299, Note_on_c, 0, 89, 0
2, 415320, Note_on_c, 0, 89, 81
2, 415338, Note_on_c, 0, 90, 0
2, 415359, Note_on_c, 0, 90, 96
2, 415378, Note_on_c, 0, 89, 0
2, 415398, Note_on_c, 0, 89, 97
2, 415417, Note_on_c, 0, 90, 0
2, 415438, Note_on_c, 0, 90, 95
2, 415456, Note_on_c, 0, 89, 0
2, 415477, Note_on_c, 0, 89, 82
2, 415496, Note_on_c, 0, 90, 0
2, 415516, Note_on_c, 0, 90, 81
2, 415535, Note_on_c, 0, 89, 0
2, 415556, Note_on_c, 0, 89, 83
2, 415574, Note_on_c, 0, 90, 0
2, 415595, Note_on_c, 0, 90, 93
2, 415614, Note_on_c, 0, 89, 0
2, 415635, Note_on_c, 0, 89, 87
2, 415653, Note_on_c, 0, 90, 0
2, 415693, Note_on_c, 0, 89, 0
2, 427207, Note_on_c, 0, 94, 99
2, 427567, Note_on_c, 0, 94, 0
2, 427681, Note_on_c, 0, 94, 99
2, 428041, Note_on_c, 0, 94, 0
2, 428171, Note_on_c, 0, 94, 91
2, 428531, Note_on_c, 0, 94, 0
2, 428652, Note_on_c, 0, 96, 93
2, 428885, Note_on_c, 0, 97, 99
2, 428892, Note_on_c, 0, 96, 0
2, 429125, Note_on_c, 0, 97, 0
2, 429141, Note_on_c, 0, 99, 94
2, 429610, Note_on_c, 0, 97, 106
2, 429621, Note_on_c, 0, 99, 0
2, 430090, Note_on_c, 0, 97, 0
2, 430093, Note_on_c, 0, 96, 110
2, 430573, Note_on_c, 0, 96, 0
2, 430584, Note_on_c, 0, 94, 111
2, 430944, Note_on_c, 0, 94, 0
2, 431043, Note_on_c, 0, 94, 99
2, 431403, Note_on_c, 0, 94, 0
2, 431536, Note_on_c, 0, 96, 104
2, 431764, Note_on_c, 0, 97, 103
2, 431776, Note_on_c, 0, 96, 0
2, 432004, Note_on_c, 0, 97, 0
2, 432012, Note_on_c, 0, 99, 108
2, 432492, Note_on_c, 0, 99, 0
2, 432501, Note_on_c, 0, 94, 103
2, 432861, Note_on_c, 0, 94, 0
2, 432981, Note_on_c, 0, 94, 108
2, 433341, Note_on_c, 0, 94, 0
2, 433450, Note_on_c, 0, 94, 108
2, 433810, Note_on_c, 0, 94, 0
2, 433942, Note_on_c, 0, 96, 111
2, 434182, Note_on_c, 0, 96, 0
2, 434184, Note_on_c, 0, 97, 111
2, 434420, Note_on_c, 0, 99, 95
2, 434424, Note_on_c, 0, 97, 0
2, 434900, Note_on_c, 0, 99, 0
2, 435369, Note_on_c, 0, 94, 92
2, 435729, Note_on_c, 0, 94, 0
2, 435861, Note_on_c, 0, 94, 91
2, 436221, Note_on_c, 0, 94, 0
2, 436344, Note_on_c, 0, 94, 96
2, 436704, Note_on_c, 0, 94, 0
2, 436813, Note_on_c, 0, 94, 102
2, 437173, Note_on_c, 0, 94, 0
2, 437296, Note_on_c, 0, 94, 114
2, 437656, Note_on_c, 0, 94, 0
2, 437778, Note_on_c, 0, 94, 96
2, 438138, Note_on_c, 0, 94, 0
2, 438727, Note_on_c, 0, 95, 122
2, 439087, Note_on_c, 0, 95, 0
2, 439221, Note_on_c, 0, 95, 111
2, 439581, Note_on_c, 0, 95, 0
2, 439688, Note_on_c, 0, 95, 104
2, 440048, Note_on_c, 0, 95, 0
2, 440181, Note_on_c, 0, 96, 109
2, 440404, Note_on_c, 0, 97, 117
2, 440421, Note_on_c, 0, 96, 0
2, 440644, Note_on_c, 0, 97, 0
2, 440649, Note_on_c, 0, 99, 122
2, 442085, Note_on_c, 0, 96, 123
2, 442089, Note_on_c, 0, 99, 0
2, 442445, Note_on_c, 0, 96, 0
2, 442583, Note_on_c, 0, 96, 112
2, 442943, Note_on_c, 0, 96, 0
2, 443052, Note_on_c, 0, 96, 106
2, 443412, Note_on_c, 0, 96, 0
2, 443529, Note_on_c, 0, 96, 110
2, 443766, Note_on_c, 0, 97, 124
2, 443769, Note_on_c, 0, 96, 0
2, 444006, Note_on_c, 0, 97, 0
2, 444014, Note_on_c, 0, 99, 118
2, 444494, Note_on_c, 0, 99, 0
2, 444496, Note_on_c, 0, 96, 117
2, 444736, Note_on_c, 0, 96, 0
2, 444744, Note_on_c, 0, 97, 112
2, 444971, Note_on_c, 0, 99, 120
2, 444984, Note_on_c, 0, 97, 0
2, 445442, Note_on_c, 0, 94, 104
2, 445451, Note_on_c, 0, 99, 0
2, 445802, Note_on_c, 0, 94, 0
2, 445939, Note_on_c, 0, 94, 106
2, 446299, Note_on_c, 0, 94, 0
2, 446400, Note_on_c, 0, 96, 123
2, 446640, Note_on_c, 0, 96, 0
2, 446654, Note_on_c, 0, 97, 116
2, 446890, Note_on_c, 0, 99, 109
2, 446894, Note_on_c, 0, 97, 0
2, 447370, Note_on_c, 0, 99, 0
2, 447602, Note_on_c, 0, 94, 92
2, 447682, Note_on_c, 0, 94, 0
2, 447704, Note_on_c, 0, 93, 110
2, 447704, Note_on_c, 0, 105, 91
2, 447765, Note_on_c, 0, 94, 106
2, 447783, Note_on_c, 0, 93, 0
2, 447783, Note_on_c, 0, 105, 0
2, 447841, Note_on_c, 0, 103, 110
2, 447845, Note_on_c, 0, 94, 0
2, 448081, Note_on_c, 0, 103, 0
2, 448339, Note_on_c, 0, 94, 95
2, 448411, Note_on_c, 0, 93, 97
2, 448413, Note_on_c, 0, 105, 101
2, 448419, Note_on_c, 0, 94, 0
2, 448490, Note_on_c, 0, 93, 0
2, 448492, Note_on_c, 0, 105, 0
2, 448497, Note_on_c, 0, 94, 92
2, 448566, Note_on_c, 0, 103, 106
2, 448577, Note_on_c, 0, 94, 0
2, 448806, Note_on_c, 0, 103, 0
2, 448817, Note_on_c, 0, 91, 103
2, 448960, Note_on_c, 0, 91, 0
2, 453720, Note_on_c, 0, 84, 97
2, 453750, Note_on_c, 0, 84, 0
2, 453750, Note_on_c, 0, 86, 113
2, 453780, Note_on_c, 0, 86, 0
2, 453780, Note_on_c, 0, 87, 96
2, 453810, Note_on_c, 0, 87, 0
2, 453810, Note_on_c, 0, 89, 96
2, 453840, Note_on_c, 0, 89, 0
2, 453862, Note_on_c, 0, 91, 86
2, 453938, Note_on_c, 0, 92, 88
2, 453980, Note_on_c, 0, 91, 0
2, 454006, Note_on_c, 0, 91, 82
2, 454056, Note_on_c, 0, 92, 0
2, 454080, Note_on_c, 0, 92, 80
2, 454124, Note_on_c, 0, 91, 0
2, 454158, Note_on_c, 0, 91, 92
2, 454198, Note_on_c, 0, 92, 0
2, 454259, Note_on_c, 0, 92, 83
2, 454276, Note_on_c, 0, 91, 0
2, 454319, Note_on_c, 0, 91, 91
2, 454377, Note_on_c, 0, 92, 0
2, 454417, Note_on_c, 0, 92, 94
2, 454437, Note_on_c, 0, 91, 0
2, 454477, Note_on_c, 0, 91, 96
2, 454535, Note_on_c, 0, 92, 0
2, 454556, Note_on_c, 0, 91, 0
2, 454573, Note_on_c, 0, 91, 90
2, 454668, Note_on_c, 0, 91, 0
2, 455055, Note_on_c, 0, 95, 112
2, 455198, Note_on_c, 0, 95, 0
2, 455525, Note_on_c, 0, 91, 100
2, 455668, Note_on_c, 0, 91, 0
2, 456600, Note_on_c, 0, 84, 113
2, 456630, Note_on_c, 0, 84, 0
2, 456630, Note_on_c, 0, 86, 96
2, 456660, Note_on_c, 0, 86, 0
2, 456660, Note_on_c, 0, 87, 106
2, 456690, Note_on_c, 0, 87, 0
2, 456690, Note_on_c, 0, 89, 103
2, 456720, Note_on_c, 0, 89, 0
2, 456736, Note_on_c, 0, 91, 78
2, 456796, Note_on_c, 0, 92, 92
2, 456845, Note_on_c, 0, 91, 0
2, 456888, Note_on_c, 0, 91, 79
2, 456905, Note_on_c, 0, 92, 0
2, 456940, Note_on_c, 0, 92, 92
2, 456997, Note_on_c, 0, 91, 0
2, 457027, Note_on_c, 0, 91, 81
2, 457049, Note_on_c, 0, 92, 0
2, 457110, Note_on_c, 0, 92, 96
2, 457136, Note_on_c, 0, 91, 0
2, 457171, Note_on_c, 0, 91, 85
2, 457219, Note_on_c, 0, 92, 0
2, 457251, Note_on_c, 0, 92, 84
2, 457280, Note_on_c, 0, 91, 0
2, 457325, Note_on_c, 0, 91, 89
2, 457360, Note_on_c, 0, 92, 0
2, 457394, Note_on_c, 0, 92, 88
2, 457434, Note_on_c, 0, 91, 0
2, 457454, Note_on_c, 0, 91, 84
2, 457503, Note_on_c, 0, 92, 0
2, 457541, Note_on_c, 0, 92, 90
2, 457587, Note_on_c, 0, 91, 0
2, 457604, Note_on_c, 0, 91, 85
2, 457650, Note_on_c, 0, 92, 0
2, 457713, Note_on_c, 0, 91, 0
2, 457925, Note_on_c, 0, 91, 103
2, 458116, Note_on_c, 0, 91, 0
2, 458402, Note_on_c, 0, 88, 98
2, 458418, Note_on_c, 0, 84, 95
2, 458593, Note_on_c, 0, 88, 0
2, 458609, Note_on_c, 0, 84, 0
2, 458891, Note_on_c, 0, 91, 107
2, 459082, Note_on_c, 0, 91, 0
2, 459384, Note_on_c, 0, 88, 100
2, 459575, Note_on_c, 0, 88, 0
2, 459853, Note_on_c, 0, 91, 102
2, 460044, Note_on_c, 0, 91, 0
2, 460335, Note_on_c, 0, 88, 93
2, 460342, Note_on_c, 0, 84, 99
2, 460526, Note_on_c, 0, 88, 0
2, 460533, Note_on_c, 0, 84, 0
2, 460806, Note_on_c, 0, 91, 96
2, 460997, Note_on_c, 0, 91, 0
2, 461291, Note_on_c, 0, 88, 102
2, 461482, Note_on_c, 0, 88, 0
2, 461766, Note_on_c, 0, 95, 115
2, 461957, Note_on_c, 0, 95, 0
2, 462840, Note_on_c, 0, 84, 99
2, 462870, Note_on_c, 0, 84, 0
2, 462870, Note_on_c, 0, 86, 115
2, 462900, Note_on_c, 0, 86, 0
2, 462900, Note_on_c, 0, 87, 107
2, 462930, Note_on_c, 0, 87, 0
2, 462930, Note_on_c, 0, 89, 95
2, 462960, Note_on_c, 0, 89, 0
2, 463049, Note_on_c, 0, 92, 80
2, 463129, Note_on_c, 0, 91, 93
2, 463167, Note_on_c, 0, 92, 0
2, 463202, Note_on_c, 0, 92, 92
2, 463247, Note_on_c, 0, 91, 0
2, 463280, Note_on_c, 0, 91, 82
2, 463320, Note_on_c, 0, 92, 0
2, 463370, Note_on_c, 0, 92, 88
2, 463398, Note_on_c, 0, 91, 0
2, 463439, Note_on_c, 0, 91, 97
2, 463488, Note_on_c, 0, 92, 0
2, 463533, Note_on_c, 0, 92, 94
2, 463557, Note_on_c, 0, 91, 0
2, 463606, Note_on_c, 0, 91, 92
2, 463651, Note_on_c, 0, 92, 0
2, 463656, Note_on_c, 0, 91, 0
2, 463690, Note_on_c, 0, 91, 94
2, 463785, Note_on_c, 0, 91, 0
2, 464760, Note_on_c, 0, 84, 95
2, 464790, Note_on_c, 0, 84, 0
2, 464790, Note_on_c, 0, 86, 83
2, 464820, Note_on_c, 0, 86, 0
2, 464820, Note_on_c, 0, 87, 98
2, 464850, Note_on_c, 0, 87, 0
2, 464850, Note_on_c, 0, 89, 91
2, 464880, Note_on_c, 0, 89, 0
2, 464975, Note_on_c, 0, 92, 78
2, 465047, Note_on_c, 0, 91, 79
2, 465093, Note_on_c, 0, 92, 0
2, 465118, Note_on_c, 0, 92, 98
2, 465165, Note_on_c, 0, 91, 0
2, 465208, Note_on_c, 0, 91, 81
2, 465236, Note_on_c, 0, 92, 0
2, 465298, Note_on_c, 0, 92, 94
2, 465326, Note_on_c, 0, 91, 0
2, 465381, Note_on_c, 0, 91, 98
2, 465416, Note_on_c, 0, 92, 0
2, 465459, Note_on_c, 0, 92, 90
2, 465499, Note_on_c, 0, 91, 0
2, 465540, Note_on_c, 0, 91, 91
2, 465577, Note_on_c, 0, 92, 0
2, 465590, Note_on_c, 0, 91, 0
2, 465619, Note_on_c, 0, 91, 94
2, 465714, Note_on_c, 0, 91, 0
2, 466088, Note_on_c, 0, 95, 111
2, 466231, Note_on_c, 0, 95, 0
2, 466581, Note_on_c, 0, 91, 99
2, 466724, Note_on_c, 0, 91, 0
2, 467640, Note_on_c, 0, 84, 101
2, 467670, Note_on_c, 0, 84, 0
2, 467670, Note_on_c, 0, 86, 101
2, 467700, Note_on_c, 0, 86, 0
2, 467700, Note_on_c, 0, 87, 96
2, 467730, Note_on_c, 0, 87, 0
2, 467730, Note_on_c, 0, 89, 110
2, 467760, Note_on_c, 0, 89, 0
2, 467861, Note_on_c, 0, 92, 85
2, 467940, Note_on_c, 0, 91, 97
2, 467979, Note_on_c, 0, 92, 0
2, 468013, Note_on_c, 0, 92, 93
2, 468058, Note_on_c, 0, 91, 0
2, 468094, Note_on_c, 0, 91, 97
2, 468131, Note_on_c, 0, 92, 0
2, 468180, Note_on_c, 0, 92, 89
2, 468212, Note_on_c, 0, 91, 0
2, 468238, Note_on_c, 0, 91, 96
2, 468298, Note_on_c, 0, 92, 0
2, 468318, Note_on_c, 0, 92, 90
2, 468356, Note_on_c, 0, 91, 0
2, 468405, Note_on_c, 0, 91, 79
2, 468436, Note_on_c, 0, 92, 0
2, 468483, Note_on_c, 0, 91, 0
2, 468505, Note_on_c, 0, 91, 92
2, 468600, Note_on_c, 0, 91, 0
2, 468980, Note_on_c, 0, 95, 110
2, 469123, Note_on_c, 0, 95, 0
2, 497296, Note_on_c, 0, 93, 97
2, 497359, Note_on_c, 0, 95, 87
2, 497373, Note_on_c, 0, 93, 0
2, 497436, Note_on_c, 0, 95, 0
2, 497459, Note_on_c, 0, 93, 79
2, 497535, Note_on_c, 0, 95, 85
2, 497536, Note_on_c, 0, 93, 0
2, 497612, Note_on_c, 0, 95, 0
2, 497613, Note_on_c, 0, 93, 85
2, 497682, Note_on_c, 0, 95, 97
2, 497690, Note_on_c, 0, 93, 0
2, 497759, Note_on_c, 0, 95, 0
2, 497761, Note_on_c, 0, 93, 80
2, 497838, Note_on_c, 0, 93, 0
2, 497838, Note_on_c, 0, 95, 81
2, 497915, Note_on_c, 0, 95, 0
2, 497925, Note_on_c, 0, 93, 78
2, 497999, Note_on_c, 0, 95, 86
2, 498002, Note_on_c, 0, 93, 0
2, 498064, Note_on_c, 0, 93, 95
2, 498076, Note_on_c, 0, 95, 0
2, 498141, Note_on_c, 0, 93, 0
2, 498152, Note_on_c, 0, 95, 78
2, 498227, Note_on_c, 0, 93, 80
2, 498229, Note_on_c, 0, 95, 0
2, 498304, Note_on_c, 0, 93, 0
2, 498314, Note_on_c, 0, 95, 88
2, 498385, Note_on_c, 0, 93, 86
2, 498391, Note_on_c, 0, 95, 0
2, 498462, Note_on_c, 0, 93, 0
2, 498470, Note_on_c, 0, 95, 93
2, 498541, Note_on_c, 0, 93, 79
2, 498547, Note_on_c, 0, 95, 0
2, 498615, Note_on_c, 0, 95, 94
2, 498618, Note_on_c, 0, 93, 0
2, 498690, Note_on_c, 0, 93, 81
2, 498692, Note_on_c, 0, 95, 0
2, 498766, Note_on_c, 0, 95, 81
2, 498767, Note_on_c, 0, 93, 0
2, 498841, Note_on_c, 0, 93, 81
2, 498843, Note_on_c, 0, 95, 0
2, 498918, Note_on_c, 0, 93, 0
2, 498920, Note_on_c, 0, 95, 83
2, 498997, Note_on_c, 0, 95, 0
2, 498998, Note_on_c, 0, 93, 88
2, 499075, Note_on_c, 0, 93, 0
2, 499076, Note_on_c, 0, 95, 84
2, 499153, Note_on_c, 0, 95, 0
2, 499154, Note_on_c, 0, 93, 90
2, 499229, Note_on_c, 0, 95, 91
2, 499231, Note_on_c, 0, 93, 0
2, 499306, Note_on_c, 0, 95, 0
2, 499323, Note_on_c, 0, 93, 90
2, 499384, Note_on_c, 0, 95, 94
2, 499400, Note_on_c, 0, 93, 0
2, 499461, Note_on_c, 0, 95, 0
2, 499467, Note_on_c, 0, 93, 89
2, 499537, Note_on_c, 0, 95, 87
2, 499544, Note_on_c, 0, 93, 0
2, 499614, Note_on_c, 0, 95, 0
2, 499628, Note_on_c, 0, 93, 97
2, 499705, Note_on_c, 0, 93, 0
2, 499705, Note_on_c, 0, 95, 82
2, 499782, Note_on_c, 0, 95, 0
2, 499789, Note_on_c, 0, 93, 82
2, 499866, Note_on_c, 0, 93, 0
2, 499867, Note_on_c, 0, 95, 88
2, 499940, Note_on_c, 0, 93, 89
2, 499944, Note_on_c, 0, 95, 0
2, 500017, Note_on_c, 0, 93, 0
2, 500020, Note_on_c, 0, 95, 79
2, 500090, Note_on_c, 0, 93, 83
2, 500097, Note_on_c, 0, 95, 0
2, 500167, Note_on_c, 0, 93, 0
2, 500178, Note_on_c, 0, 95, 86
2, 500255, Note_on_c, 0, 95, 0
2, 500261, Note_on_c, 0, 93, 83
2, 500323, Note_on_c, 0, 95, 97
2, 500338, Note_on_c, 0, 93, 0
2, 500393, Note_on_c, 0, 93, 86
2, 500400, Note_on_c, 0, 95, 0
2, 500470, Note_on_c, 0, 93, 0
2, 500488, Note_on_c, 0, 95, 87
2, 500564, Note_on_c, 0, 93, 98
2, 500565, Note_on_c, 0, 95, 0
2, 500641, Note_on_c, 0, 93, 0
2, 503521, Note_on_c, 0, 93, 79
2, 503599, Note_on_c, 0, 93, 0
2, 503611, Note_on_c, 0, 95, 88
2, 503690, Note_on_c, 0, 95, 0
2, 503701, Note_on_c, 0, 93, 92
2, 503767, Note_on_c, 0, 95, 87
2, 503779, Note_on_c, 0, 93, 0
2, 503839, Note_on_c, 0, 93, 81
2, 503846, Note_on_c, 0, 95, 0
2, 503917, Note_on_c, 0, 93, 0
2, 503932, Note_on_c, 0, 95, 88
2, 504000, Note_on_c, 0, 93, 80
2, 504011, Note_on_c, 0, 95, 0
2, 504078, Note_on_c, 0, 93, 0
2, 504090, Note_on_c, 0, 95, 98
2, 504152, Note_on_c, 0, 93, 83
2, 504169, Note_on_c, 0, 95, 0
2, 504230, Note_on_c, 0, 93, 0
2, 504242, Note_on_c, 0, 95, 85
2, 504321, Note_on_c, 0, 95, 0
2, 504331, Note_on_c, 0, 93, 94
2, 504392, Note_on_c, 0, 95, 79
2, 504409, Note_on_c, 0, 93, 0
2, 504471, Note_on_c, 0, 95, 0
2, 504481, Note_on_c, 0, 93, 80
2, 504559, Note_on_c, 0, 93, 0
2, 504567, Note_on_c, 0, 95, 87
2, 504646, Note_on_c, 0, 95, 0
2, 504646, Note_on_c, 0, 93, 91
2, 504724, Note_on_c, 0, 93, 0
2, 504725, Note_on_c, 0, 95, 78
2, 504803, Note_on_c, 0, 93, 84
2, 504804, Note_on_c, 0, 95, 0
2, 504864, Note_on_c, 0, 95, 81
2, 504881, Note_on_c, 0, 93, 0
2, 504939, Note_on_c, 0, 93, 96
2, 504943, Note_on_c, 0, 95, 0
2, 505016, Note_on_c, 0, 95, 88
2, 505017, Note_on_c, 0, 93, 0
2, 505095, Note_on_c, 0, 95, 0
2, 505098, Note_on_c, 0, 93, 97
2, 505176, Note_on_c, 0, 93, 0
2, 505196, Note_on_c, 0, 95, 90
2, 505253, Note_on_c, 0, 93, 93
2, 505275, Note_on_c, 0, 95, 0
2, 505331, Note_on_c, 0, 93, 0
2, 505351, Note_on_c, 0, 95, 81
2, 505412, Note_on_c, 0, 93, 86
2, 505430, Note_on_c, 0, 95, 0
2, 505490, Note_on_c, 0, 93, 0
2, 505492, Note_on_c, 0, 95, 95
2, 505571, Note_on_c, 0, 95, 0
2, 505587, Note_on_c, 0, 93, 89
2, 505652, Note_on_c, 0, 95, 82
2, 505665, Note_on_c, 0, 93, 0
2, 505729, Note_on_c, 0, 93, 93
2, 505731, Note_on_c, 0, 95, 0
2, 505807, Note_on_c, 0, 93, 0
2, 505810, Note_on_c, 0, 95, 88
2, 505889, Note_on_c, 0, 95, 0
2, 505896, Note_on_c, 0, 93, 88
2, 505974, Note_on_c, 0, 93, 0
2, 505986, Note_on_c, 0, 95, 82
2, 506060, Note_on_c, 0, 93, 93
2, 506065, Note_on_c, 0, 95, 0
2, 506124, Note_on_c, 0, 95, 93
2, 506138, Note_on_c, 0, 93, 0
2, 506203, Note_on_c, 0, 95, 0
2, 506219, Note_on_c, 0, 93, 98
2, 506280, Note_on_c, 0, 95, 90
2, 506297, Note_on_c, 0, 93, 0
2, 506359, Note_on_c, 0, 95, 0
2, 506363, Note_on_c, 0, 93, 93
2, 506436, Note_on_c, 0, 95, 80
2, 506441, Note_on_c, 0, 93, 0
2, 506512, Note_on_c, 0, 93, 87
2, 506515, Note_on_c, 0, 95, 0
2, 506590, Note_on_c, 0, 93, 0
2, 506596, Note_on_c, 0, 95, 98
2, 506671, Note_on_c, 0, 93, 78
2, 506675, Note_on_c, 0, 95, 0
2, 506749, Note_on_c, 0, 93, 0
2, 506749, Note_on_c, 0, 95, 80
2, 506827, Note_on_c, 0, 93, 79
2, 506828, Note_on_c, 0, 95, 0
2, 506905, Note_on_c, 0, 93, 0
2, 506928, Note_on_c, 0, 95, 79
2, 507005, Note_on_c, 0, 93, 81
2, 507007, Note_on_c, 0, 95, 0
2, 507066, Note_on_c, 0, 95, 82
2, 507083, Note_on_c, 0, 93, 0
2, 507145, Note_on_c, 0, 95, 0
2, 507149, Note_on_c, 0, 93, 93
2, 507227, Note_on_c, 0, 93, 0
2, 507232, Note_on_c, 0, 95, 80
2, 507300, Note_on_c, 0, 93, 81
2, 507311, Note_on_c, 0, 95, 0
2, 507378, Note_on_c, 0, 93, 0
2, 507392, Note_on_c, 0, 95, 94
2, 507463, Note_on_c, 0, 93, 87
2, 507471, Note_on_c, 0, 95, 0
2, 507539, Note_on_c, 0, 95, 91
2, 507541, Note_on_c, 0, 93, 0
2, 507618, Note_on_c, 0, 95, 0
2, 507630, Note_on_c, 0, 93, 97
2, 507695, Note_on_c, 0, 95, 89
2, 507708, Note_on_c, 0, 93, 0
2, 507774, Note_on_c, 0, 95, 0
2, 507797, Note_on_c, 0, 93, 86
2, 507861, Note_on_c, 0, 95, 95
2, 507875, Note_on_c, 0, 93, 0
2, 507940, Note_on_c, 0, 95, 0
2, 507950, Note_on_c, 0, 93, 79
2, 508023, Note_on_c, 0, 95, 93
2, 508028, Note_on_c, 0, 93, 0
2, 508102, Note_on_c, 0, 95, 0
2, 508106, Note_on_c, 0, 93, 87
2, 508184, Note_on_c, 0, 93, 0
2, 508189, Note_on_c, 0, 95, 83
2, 508260, Note_on_c, 0, 93, 80
2, 508268, Note_on_c, 0, 95, 0
2, 508332, Note_on_c, 0, 95, 84
2, 508338, Note_on_c, 0, 93, 0
2, 508411, Note_on_c, 0, 95, 0
2, 508411, Note_on_c, 0, 93, 95
2, 508486, Note_on_c, 0, 95, 98
2, 508489, Note_on_c, 0, 93, 0
2, 508565, Note_on_c, 0, 95, 0
2, 508577, Note_on_c, 0, 93, 92
2, 508655, Note_on_c, 0, 93, 0
2, 508660, Note_on_c, 0, 95, 95
2, 508729, Note_on_c, 0, 93, 90
2, 508739, Note_on_c, 0, 95, 0
2, 508807, Note_on_c, 0, 93, 0
2, 571692, Note_on_c, 0, 96, 102
2, 572892, Note_on_c, 0, 96, 0
2, 574576, Note_on_c, 0, 96, 108
2, 575776, Note_on_c, 0, 96, 0
2, 590409, Note_on_c, 0, 93, 92
2, 590478, Note_on_c, 0, 95, 104
2, 590524, Note_on_c, 0, 93, 0
2, 590575, Note_on_c, 0, 93, 101
2, 590593, Note_on_c, 0, 95, 0
2, 590639, Note_on_c, 0, 95, 97
2, 590690, Note_on_c, 0, 93, 0
2, 590732, Note_on_c, 0, 93, 98
2, 590754, Note_on_c, 0, 95, 0
2, 590792, Note_on_c, 0, 95, 94
2, 590847, Note_on_c, 0, 93, 0
2, 590868, Note_on_c, 0, 93, 96
2, 590907, Note_on_c, 0, 95, 0
2, 590966, Note_on_c, 0, 95, 93
2, 590983, Note_on_c, 0, 93, 0
2, 591040, Note_on_c, 0, 93, 110
2, 591081, Note_on_c, 0, 95, 0
2, 591104, Note_on_c, 0, 95, 101
2, 591155, Note_on_c, 0, 93, 0
2, 591200, Note_on_c, 0, 93, 95
2, 591219, Note_on_c, 0, 95, 0
2, 591259, Note_on_c, 0, 95, 98
2, 591315, Note_on_c, 0, 93, 0
2, 591350, Note_on_c, 0, 93, 96
2, 591374, Note_on_c, 0, 95, 0
2, 591423, Note_on_c, 0, 95, 105
2, 591465, Note_on_c, 0, 93, 0
2, 591501, Note_on_c, 0, 93, 111
2, 591538, Note_on_c, 0, 95, 0
2, 591574, Note_on_c, 0, 95, 103
2, 591616, Note_on_c, 0, 93, 0
2, 591658, Note_on_c, 0, 93, 109
2, 591689, Note_on_c, 0, 95, 0
2, 591729, Note_on_c, 0, 95, 102
2, 591773, Note_on_c, 0, 93, 0
2, 591819, Note_on_c, 0, 93, 92
2, 591844, Note_on_c, 0, 95, 0
2, 591881, Note_on_c, 0, 95, 109
2, 591934, Note_on_c, 0, 93, 0
2, 591971, Note_on_c, 0, 93, 109
2, 591996, Note_on_c, 0, 95, 0
2, 592058, Note_on_c, 0, 95, 106
2, 592086, Note_on_c, 0, 93, 0
2, 592122, Note_on_c, 0, 93, 109
2, 592173, Note_on_c, 0, 95, 0
2, 592199, Note_on_c, 0, 95, 94
2, 592237, Note_on_c, 0, 93, 0
2, 592268, Note_on_c, 0, 93, 109
2, 592314, Note_on_c, 0, 95, 0
2, 592366, Note_on_c, 0, 95, 109
2, 592383, Note_on_c, 0, 93, 0
2, 592436, Note_on_c, 0, 93, 109
2, 592481, Note_on_c, 0, 95, 0
2, 592502, Note_on_c, 0, 95, 104
2, 592551, Note_on_c, 0, 93, 0
2, 592583, Note_on_c, 0, 93, 97
2, 592617, Note_on_c, 0, 95, 0
2, 592673, Note_on_c, 0, 95, 105
2, 592698, Note_on_c, 0, 93, 0
2, 592759, Note_on_c, 0, 93, 92
2, 592788, Note_on_c, 0, 95, 0
2, 592826, Note_on_c, 0, 95, 94
2, 592874, Note_on_c, 0, 93, 0
2, 592897, Note_on_c, 0, 93, 99
2, 592941, Note_on_c, 0, 95, 0
2, 592975, Note_on_c, 0, 95, 100
2, 593012, Note_on_c, 0, 93, 0
2, 593070, Note_on_c, 0, 93, 109
2, 593090, Note_on_c, 0, 95, 0
2, 593135, Note_on_c, 0, 95, 109
2, 593185, Note_on_c, 0, 93, 0
2, 593219, Note_on_c, 0, 93, 97
2, 593250, Note_on_c, 0, 95, 0
2, 593284, Note_on_c, 0, 95, 97
2, 593334, Note_on_c, 0, 93, 0
2, 593381, Note_on_c, 0, 93, 95
2, 593399, Note_on_c, 0, 95, 0
2, 593442, Note_on_c, 0, 95, 109
2, 593496, Note_on_c, 0, 93, 0
2, 593525, Note_on_c, 0, 93, 111
2, 593557, Note_on_c, 0, 95, 0
2, 593614, Note_on_c, 0, 95, 96
2, 593640, Note_on_c, 0, 93, 0
2, 593671, Note_on_c, 0, 93, 100
2, 593729, Note_on_c, 0, 95, 0
2, 593748, Note_on_c, 0, 93, 0
2, 593776, Note_on_c, 0, 93, 106
2, 593967, Note_on_c, 0, 93, 0
2, 594259, Note_on_c, 0, 91, 118
2, 594379, Note_on_c, 0, 91, 0
2, 594495, Note_on_c, 0, 93, 115
2, 594615, Note_on_c, 0, 93, 0
2, 594736, Note_on_c, 0, 95, 123
2, 594856, Note_on_c, 0, 95, 0
2, 594983, Note_on_c, 0, 96, 119
2, 595103, Note_on_c, 0, 96, 0
2, 595214, Note_on_c, 0, 95, 107
2, 595334, Note_on_c, 0, 95, 0
2, 595442, Note_on_c, 0, 96, 111
2, 595562, Note_on_c, 0, 96, 0
2, 595692, Note_on_c, 0, 95, 123
2, 595812, Note_on_c, 0, 95, 0
2, 595928, Note_on_c, 0, 98, 108
2, 596048, Note_on_c, 0, 98, 0
2, 596184, Note_on_c, 0, 93, 105
2, 596544, Note_on_c, 0, 93, 0
2, 596659, Note_on_c, 0, 95, 110
2, 596779, Note_on_c, 0, 95, 0
2, 596887, Note_on_c, 0, 96, 107
2, 597007, Note_on_c, 0, 96, 0
2, 597136, Note_on_c, 0, 95, 110
2, 597256, Note_on_c, 0, 95, 0
2, 597371, Note_on_c, 0, 98, 104
2, 597491, Note_on_c, 0, 98, 0
2, 597603, Note_on_c, 0, 93, 112
2, 597963, Note_on_c, 0, 93, 0
2, 598094, Note_on_c, 0, 93, 111
2, 598237, Note_on_c, 0, 93, 0
2, 598569, Note_on_c, 0, 91, 105
2, 598689, Note_on_c, 0, 91, 0
2, 598817, Note_on_c, 0, 93, 109
2, 598937, Note_on_c, 0, 93, 0
2, 599050, Note_on_c, 0, 95, 121
2, 599170, Note_on_c, 0, 95, 0
2, 599282, Note_on_c, 0, 96, 112
2, 599402, Note_on_c, 0, 96, 0
2, 599545, Note_on_c, 0, 95, 117
2, 599665, Note_on_c, 0, 95, 0
2, 599780, Note_on_c, 0, 96, 109
2, 599900, Note_on_c, 0, 96, 0
2, 600008, Note_on_c, 0, 95, 124
2, 600128, Note_on_c, 0, 95, 0
2, 600257, Note_on_c, 0, 98, 114
2, 600377, Note_on_c, 0, 98, 0
2, 600489, Note_on_c, 0, 96, 111
2, 600609, Note_on_c, 0, 96, 0
2, 600725, Note_on_c, 0, 95, 119
2, 600845, Note_on_c, 0, 95, 0
2, 600985, Note_on_c, 0, 93, 109
2, 601105, Note_on_c, 0, 93, 0
2, 601208, Note_on_c, 0, 91, 109
2, 601328, Note_on_c, 0, 91, 0
2, 601462, Note_on_c, 0, 93, 114
2, 601535, Note_on_c, 0, 95, 115
2, 601577, Note_on_c, 0, 93, 0
2, 601612, Note_on_c, 0, 93, 110
2, 601650, Note_on_c, 0, 95, 0
2, 601690, Note_on_c, 0, 95, 106
2, 601727, Note_on_c, 0, 93, 0
2, 601768, Note_on_c, 0, 93, 115
2, 601805, Note_on_c, 0, 95, 0
2, 601843, Note_on_c, 0, 95, 123
2, 601883, Note_on_c, 0, 93, 0
2, 601921, Note_on_c, 0, 93, 119
2, 601958, Note_on_c, 0, 95, 0
2, 601984, Note_on_c, 0, 95, 105
2, 602036, Note_on_c, 0, 93, 0
2, 602069, Note_on_c, 0, 93, 104
2, 602099, Note_on_c, 0, 95, 0
2, 602158, Note_on_c, 0, 95, 111
2, 602184, Note_on_c, 0, 93, 0
2, 602222, Note_on_c, 0, 93, 108
2, 602273, Note_on_c, 0, 95, 0
2, 602312, Note_on_c, 0, 95, 111
2, 602337, Note_on_c, 0, 93, 0
2, 602383, Note_on_c, 0, 93, 105
2, 602427, Note_on_c, 0, 95, 0
2, 602472, Note_on_c, 0, 95, 118
2, 602498, Note_on_c, 0, 93, 0
2, 602539, Note_on_c, 0, 93, 123
2, 602587, Note_on_c, 0, 95, 0
2, 602624, Note_on_c, 0, 95, 110
2, 602654, Note_on_c, 0, 93, 0
2, 602702, Note_on_c, 0, 93, 117
2, 602739, Note_on_c, 0, 95, 0
2, 602780, Note_on_c, 0, 95, 107
2, 602817, Note_on_c, 0, 93, 0
2, 602841, Note_on_c, 0, 93, 123
2, 602895, Note_on_c, 0, 95, 0
2, 602929, Note_on_c, 0, 95, 121
2, 602956, Note_on_c, 0, 93, 0
2, 603010, Note_on_c, 0, 93, 114
2, 603044, Note_on_c, 0, 95, 0
2, 603083, Note_on_c, 0, 95, 124
2, 603125, Note_on_c, 0, 93, 0
2, 603167, Note_on_c, 0, 93, 107
2, 603198, Note_on_c, 0, 95, 0
2, 603236, Note_on_c, 0, 95, 104
2, 603282, Note_on_c, 0, 93, 0
2, 603328, Note_on_c, 0, 93, 112
2, 603351, Note_on_c, 0, 95, 0
2, 603409, Note_on_c, 0, 95, 112
2, 603443, Note_on_c, 0, 93, 0
2, 603488, Note_on_c, 0, 93, 118
2, 603524, Note_on_c, 0, 95, 0
2, 603545, Note_on_c, 0, 95, 105
2, 603603, Note_on_c, 0, 93, 0
2, 603623, Note_on_c, 0, 93, 104
2, 603660, Note_on_c, 0, 95, 0
2, 603707, Note_on_c, 0, 95, 117
2, 603738, Note_on_c, 0, 93, 0
2, 603780, Note_on_c, 0, 93, 122
2, 603822, Note_on_c, 0, 95, 0
2, 603872, Note_on_c, 0, 95, 118
2, 603895, Note_on_c, 0, 93, 0
2, 603943, Note_on_c, 0, 93, 120
2, 603987, Note_on_c, 0, 95, 0
2, 604021, Note_on_c, 0, 95, 105
2, 604058, Note_on_c, 0, 93, 0
2, 604104, Note_on_c, 0, 93, 115
2, 604136, Note_on_c, 0, 95, 0
2, 604168, Note_on_c, 0, 95, 105
2, 604219, Note_on_c, 0, 93, 0
2, 604244, Note_on_c, 0, 93, 104
2, 604283, Note_on_c, 0, 95, 0
2, 604356, Note_on_c, 0, 93, 0
2, 613454, Note_on_c, 0, 88, 79
2, 613599, Note_on_c, 0, 81, 90
2, 613652, Note_on_c, 0, 81, 0
2, 613653, Note_on_c, 0, 83, 94
2, 613694, Note_on_c, 0, 88, 0
2, 613696, Note_on_c, 0, 89, 94
2, 613706, Note_on_c, 0, 83, 0
2, 613706, Note_on_c, 0, 84, 78
2, 613758, Note_on_c, 0, 84, 0
2, 613759, Note_on_c, 0, 86, 88
2, 613799, Note_on_c, 0, 86, 0
2, 613800, Note_on_c, 0, 88, 93
2, 613839, Note_on_c, 0, 88, 0
2, 613840, Note_on_c, 0, 89, 83
2, 613879, Note_on_c, 0, 91, 92
2, 613895, Note_on_c, 0, 89, 0
2, 613919, Note_on_c, 0, 91, 0
2, 613920, Note_on_c, 0, 89, 0
2, 613925, Note_on_c, 0, 91, 88
2, 613944, Note_on_c, 0, 93, 84
2, 614002, Note_on_c, 0, 95, 98
2, 614061, Note_on_c, 0, 93, 0
2, 614081, Note_on_c, 0, 93, 82
2, 614120, Note_on_c, 0, 95, 0
2, 614176, Note_on_c, 0, 95, 86
2, 614198, Note_on_c, 0, 93, 0
2, 614251, Note_on_c, 0, 93, 86
2, 614293, Note_on_c, 0, 95, 0
2, 614326, Note_on_c, 0, 95, 84
2, 614369, Note_on_c, 0, 93, 0
2, 614397, Note_on_c, 0, 93, 98
2, 614443, Note_on_c, 0, 95, 0
2, 614480, Note_on_c, 0, 95, 83
2, 614514, Note_on_c, 0, 93, 0
2, 614574, Note_on_c, 0, 93, 98
2, 614598, Note_on_c, 0, 95, 0
2, 614640, Note_on_c, 0, 89, 78
2, 614644, Note_on_c, 0, 95, 98
2, 614645, Note_on_c, 0, 91, 0
2, 614692, Note_on_c, 0, 93, 0
2, 614732, Note_on_c, 0, 93, 80
2, 614761, Note_on_c, 0, 95, 0
2, 614796, Note_on_c, 0, 95, 89
2, 614850, Note_on_c, 0, 93, 0
2, 614876, Note_on_c, 0, 93, 78
2, 614880, Note_on_c, 0, 89, 0
2, 614885, Note_on_c, 0, 88, 94
2, 614914, Note_on_c, 0, 95, 0
2, 614972, Note_on_c, 0, 95, 92
2, 614993, Note_on_c, 0, 93, 0
2, 615033, Note_on_c, 0, 93, 86
2, 615090, Note_on_c, 0, 95, 0
2, 615121, Note_on_c, 0, 95, 98
2, 615125, Note_on_c, 0, 88, 0
2, 615151, Note_on_c, 0, 93, 0
2, 615197, Note_on_c, 0, 93, 88
2, 615238, Note_on_c, 0, 95, 0
2, 615272, Note_on_c, 0, 95, 85
2, 615314, Note_on_c, 0, 93, 0
2, 615368, Note_on_c, 0, 93, 86
2, 615390, Note_on_c, 0, 95, 0
2, 615446, Note_on_c, 0, 95, 90
2, 615485, Note_on_c, 0, 93, 0
2, 615524, Note_on_c, 0, 93, 91
2, 615563, Note_on_c, 0, 95, 0
2, 615585, Note_on_c, 0, 95, 82
2, 615642, Note_on_c, 0, 93, 0
2, 615683, Note_on_c, 0, 93, 89
2, 615702, Note_on_c, 0, 95, 0
2, 615752, Note_on_c, 0, 95, 96
2, 615800, Note_on_c, 0, 93, 0
2, 615825, Note_on_c, 0, 93, 91
2, 615870, Note_on_c, 0, 95, 0
2, 615915, Note_on_c, 0, 95, 82
2, 615943, Note_on_c, 0, 93, 0
2, 616003, Note_on_c, 0, 93, 85
2, 616032, Note_on_c, 0, 95, 0
2, 616080, Note_on_c, 0, 95, 84
2, 616121, Note_on_c, 0, 93, 0
2, 616161, Note_on_c, 0, 93, 88
2, 616198, Note_on_c, 0, 95, 0
2, 616231, Note_on_c, 0, 95, 94
2, 616278, Note_on_c, 0, 93, 0
2, 616297, Note_on_c, 0, 93, 83
2, 616349, Note_on_c, 0, 95, 0
2, 616375, Note_on_c, 0, 95, 82
2, 616415, Note_on_c, 0, 93, 0
2, 616462, Note_on_c, 0, 93, 79
2, 616492, Note_on_c, 0, 95, 0
2, 616536, Note_on_c, 0, 95, 85
2, 616579, Note_on_c, 0, 93, 0
2, 616637, Note_on_c, 0, 93, 89
2, 616654, Note_on_c, 0, 95, 0
2, 616710, Note_on_c, 0, 95, 96
2, 616754, Note_on_c, 0, 93, 0
2, 616776, Note_on_c, 0, 93, 90
2, 616827, Note_on_c, 0, 95, 0
2, 616859, Note_on_c, 0, 95, 78
2, 616894, Note_on_c, 0, 93, 0
2, 616953, Note_on_c, 0, 93, 92
2, 616976, Note_on_c, 0, 95, 0
2, 617023, Note_on_c, 0, 95, 92
2, 617070, Note_on_c, 0, 93, 0
2, 617099, Note_on_c, 0, 93, 96
2, 617141, Note_on_c, 0, 95, 0
2, 617192, Note_on_c, 0, 95, 92
2, 617217, Note_on_c, 0, 93, 0
2, 617268, Note_on_c, 0, 93, 97
2, 617309, Note_on_c, 0, 95, 0
2, 617335, Note_on_c, 0, 95, 89
2, 617386, Note_on_c, 0, 93, 0
2, 617430, Note_on_c, 0, 93, 92
2, 617453, Note_on_c, 0, 95, 0
2, 617505, Note_on_c, 0, 95, 88
2, 617547, Note_on_c, 0, 93, 0
2, 617563, Note_on_c, 0, 93, 88
2, 617623, Note_on_c, 0, 95, 0
2, 617655, Note_on_c, 0, 95, 92
2, 617681, Note_on_c, 0, 93, 0
2, 617744, Note_on_c, 0, 93, 93
2, 617772, Note_on_c, 0, 95, 0
2, 617819, Note_on_c, 0, 95, 85
2, 617861, Note_on_c, 0, 93, 0
2, 617889, Note_on_c, 0, 93, 97
2, 617937, Note_on_c, 0, 95, 0
2, 617965, Note_on_c, 0, 95, 84
2, 618006, Note_on_c, 0, 93, 0
2, 618064, Note_on_c, 0, 93, 96
2, 618082, Note_on_c, 0, 95, 0
2, 618133, Note_on_c, 0, 95, 83
2, 618182, Note_on_c, 0, 93, 0
2, 618214, Note_on_c, 0, 93, 87
2, 618250, Note_on_c, 0, 95, 0
2, 618287, Note_on_c, 0, 95, 87
2, 618331, Note_on_c, 0, 93, 0
2, 618363, Note_on_c, 0, 93, 89
2, 618405, Note_on_c, 0, 95, 0
2, 618436, Note_on_c, 0, 95, 95
2, 618481, Note_on_c, 0, 93, 0
2, 618518, Note_on_c, 0, 93, 92
2, 618553, Note_on_c, 0, 95, 0
2, 618597, Note_on_c, 0, 95, 97
2, 618636, Note_on_c, 0, 93, 0
2, 618673, Note_on_c, 0, 93, 88
2, 618715, Note_on_c, 0, 95, 0
2, 618751, Note_on_c, 0, 95, 86
2, 618790, Note_on_c, 0, 93, 0
2, 618833, Note_on_c, 0, 93, 88
2, 618869, Note_on_c, 0, 95, 0
2, 618922, Note_on_c, 0, 95, 88
2, 618951, Note_on_c, 0, 93, 0
2, 619008, Note_on_c, 0, 93, 78
2, 619039, Note_on_c, 0, 95, 0
2, 619079, Note_on_c, 0, 95, 97
2, 619125, Note_on_c, 0, 93, 0
2, 619166, Note_on_c, 0, 93, 81
2, 619197, Note_on_c, 0, 95, 0
2, 619218, Note_on_c, 0, 88, 80
2, 619248, Note_on_c, 0, 95, 95
2, 619283, Note_on_c, 0, 93, 0
2, 619331, Note_on_c, 0, 93, 90
2, 619365, Note_on_c, 0, 95, 0
2, 619403, Note_on_c, 0, 95, 84
2, 619449, Note_on_c, 0, 93, 0
2, 619458, Note_on_c, 0, 88, 0
2, 619465, Note_on_c, 0, 89, 86
2, 619483, Note_on_c, 0, 93, 94
2, 619520, Note_on_c, 0, 95, 0
2, 619567, Note_on_c, 0, 95, 89
2, 619600, Note_on_c, 0, 93, 0
2, 619638, Note_on_c, 0, 93, 95
2, 619685, Note_on_c, 0, 95, 0
2, 619687, Note_on_c, 0, 91, 83
2, 619705, Note_on_c, 0, 89, 0
2, 619723, Note_on_c, 0, 95, 83
2, 619756, Note_on_c, 0, 93, 0
2, 619806, Note_on_c, 0, 93, 81
2, 619840, Note_on_c, 0, 95, 0
2, 619879, Note_on_c, 0, 95, 89
2, 619924, Note_on_c, 0, 93, 0
2, 619945, Note_on_c, 0, 93, 92
2, 619997, Note_on_c, 0, 95, 0
2, 620036, Note_on_c, 0, 95, 95
2, 620062, Note_on_c, 0, 93, 0
2, 620104, Note_on_c, 0, 93, 97
2, 620154, Note_on_c, 0, 95, 0
2, 620193, Note_on_c, 0, 95, 94
2, 620222, Note_on_c, 0, 93, 0
2, 620271, Note_on_c, 0, 93, 90
2, 620310, Note_on_c, 0, 95, 0
2, 620351, Note_on_c, 0, 95, 81
2, 620388, Note_on_c, 0, 93, 0
2, 620400, Note_on_c, 0, 89, 97
2, 620407, Note_on_c, 0, 91, 0
2, 620431, Note_on_c, 0, 93, 81
2, 620469, Note_on_c, 0, 95, 0
2, 620513, Note_on_c, 0, 95, 87
2, 620548, Note_on_c, 0, 93, 0
2, 620577, Note_on_c, 0, 93, 82
2, 620630, Note_on_c, 0, 95, 0
2, 620640, Note_on_c, 0, 89, 0
2, 620661, Note_on_c, 0, 95, 87
2, 620665, Note_on_c, 0, 88, 79
2, 620695, Note_on_c, 0, 93, 0
2, 620733, Note_on_c, 0, 93, 81
2, 620778, Note_on_c, 0, 95, 0
2, 620824, Note_on_c, 0, 95, 95
2, 620850, Note_on_c, 0, 93, 0
2, 620905, Note_on_c, 0, 88, 0
2, 620912, Note_on_c, 0, 93, 87
2, 620942, Note_on_c, 0, 95, 0
2, 620995, Note_on_c, 0, 95, 85
2, 621030, Note_on_c, 0, 93, 0
2, 621074, Note_on_c, 0, 93, 97
2, 621112, Note_on_c, 0, 95, 0
2, 621134, Note_on_c, 0, 95, 89
2, 621192, Note_on_c, 0, 93, 0
2, 621221, Note_on_c, 0, 93, 82
2, 621252, Note_on_c, 0, 95, 0
2, 621303, Note_on_c, 0, 95, 85
2, 621338, Note_on_c, 0, 93, 0
2, 621381, Note_on_c, 0, 93, 90
2, 621421, Note_on_c, 0, 95, 0
2, 621460, Note_on_c, 0, 95, 95
2, 621499, Note_on_c, 0, 93, 0
2, 621529, Note_on_c, 0, 93, 85
2, 621577, Note_on_c, 0, 95, 0
2, 621605, Note_on_c, 0, 91, 86
2, 621625, Note_on_c, 0, 95, 95
2, 621664, Note_on_c, 0, 93, 0
2, 621676, Note_on_c, 0, 91, 0
2, 621698, Note_on_c, 0, 93, 98
2, 621743, Note_on_c, 0, 95, 0
2, 621782, Note_on_c, 0, 95, 83
2, 621815, Note_on_c, 0, 93, 0
2, 621850, Note_on_c, 0, 93, 89
2, 621854, Note_on_c, 0, 93, 80
2, 621899, Note_on_c, 0, 95, 0
2, 621934, Note_on_c, 0, 95, 86
2, 621956, Note_on_c, 0, 93, 0
2, 621972, Note_on_c, 0, 93, 0
2, 622007, Note_on_c, 0, 93, 98
2, 622051, Note_on_c, 0, 95, 0
2, 622079, Note_on_c, 0, 95, 79
2, 622101, Note_on_c, 0, 95, 93
2, 622124, Note_on_c, 0, 93, 0
2, 622151, Note_on_c, 0, 95, 0
2, 622175, Note_on_c, 0, 93, 95
2, 622218, Note_on_c, 0, 95, 0
2, 622239, Note_on_c, 0, 96, 90
2, 622249, Note_on_c, 0, 95, 97
2, 622287, Note_on_c, 0, 96, 0
2, 622293, Note_on_c, 0, 93, 0
2, 622340, Note_on_c, 0, 93, 95
2, 622366, Note_on_c, 0, 95, 0
2, 622400, Note_on_c, 0, 98, 95
2, 622411, Note_on_c, 0, 95, 87
2, 622447, Note_on_c, 0, 98, 0
2, 622458, Note_on_c, 0, 93, 0
2, 622491, Note_on_c, 0, 93, 85
2, 622529, Note_on_c, 0, 95, 0
2, 622560, Note_on_c, 0, 100, 102
2, 622607, Note_on_c, 0, 100, 0
2, 622608, Note_on_c, 0, 93, 0
2, 622719, Note_on_c, 0, 98, 120
2, 622767, Note_on_c, 0, 98, 0
2, 622880, Note_on_c, 0, 96, 107
2, 622927, Note_on_c, 0, 96, 0
2, 623040, Note_on_c, 0, 95, 91
2, 623087, Note_on_c, 0, 95, 0
2, 623199, Note_on_c, 0, 94, 97
2, 623199, Note_on_c, 0, 88, 92
2, 623247, Note_on_c, 0, 94, 0
2, 623252, Note_on_c, 0, 88, 0
2, 623253, Note_on_c, 0, 89, 112
2, 623306, Note_on_c, 0, 89, 0
2, 623306, Note_on_c, 0, 90, 113
2, 623358, Note_on_c, 0, 90, 0
2, 623359, Note_on_c, 0, 91, 113
2, 623360, Note_on_c, 0, 93, 102
2, 623399, Note_on_c, 0, 91, 0
2, 623400, Note_on_c, 0, 92, 111
2, 623407, Note_on_c, 0, 93, 0
2, 623439, Note_on_c, 0, 92, 0
2, 623439, Note_on_c, 0, 93, 117
2, 623478, Note_on_c, 0, 93, 0
2, 623479, Note_on_c, 0, 94, 107
2, 623519, Note_on_c, 0, 94, 0
2, 623520, Note_on_c, 0, 95, 92
2, 623567, Note_on_c, 0, 95, 0
2, 623679, Note_on_c, 0, 93, 108
2, 623727, Note_on_c, 0, 93, 0
2, 623840, Note_on_c, 0, 91, 92
2, 623887, Note_on_c, 0, 91, 0
2, 624000, Note_on_c, 0, 89, 93
2, 624047, Note_on_c, 0, 89, 0
2, 624159, Note_on_c, 0, 88, 101
2, 624207, Note_on_c, 0, 88, 0
2, 665767, Note_on_c, 0, 90, 124
2, 666007, Note_on_c, 0, 90, 0
2, 666254, Note_on_c, 0, 98, 125
2, 667688, Note_on_c, 0, 92, 127
2, 667694, Note_on_c, 0, 98, 0
2, 667928, Note_on_c, 0, 92, 0
2, 668174, Note_on_c, 0, 98, 125
2, 669614, Note_on_c, 0, 98, 0
2, 669620, Note_on_c, 0, 90, 111
2, 669860, Note_on_c, 0, 90, 0
2, 670084, Note_on_c, 0, 98, 113
2, 671524, Note_on_c, 0, 98, 0
2, 671540, Note_on_c, 0, 92, 112
2, 671780, Note_on_c, 0, 92, 0
2, 672022, Note_on_c, 0, 98, 107
2, 673453, Note_on_c, 0, 90, 124
2, 673462, Note_on_c, 0, 98, 0
2, 673693, Note_on_c, 0, 90, 0
2, 673926, Note_on_c, 0, 98, 121
2, 675365, Note_on_c, 0, 92, 113
2, 675366, Note_on_c, 0, 98, 0
2, 675605, Note_on_c, 0, 92, 0
2, 675859, Note_on_c, 0, 98, 122
2, 677299, Note_on_c, 0, 98, 0
2, 690120, Note_on_c, 0, 84, 106
2, 690150, Note_on_c, 0, 84, 0
2, 690150, Note_on_c, 0, 86, 117
2, 690180, Note_on_c, 0, 86, 0
2, 690180, Note_on_c, 0, 88, 105
2, 690210, Note_on_c, 0, 88, 0
2, 690210, Note_on_c, 0, 90, 120
2, 690240, Note_on_c, 0, 90, 0
2, 690243, Note_on_c, 0, 91, 114
2, 690603, Note_on_c, 0, 91, 0
2, 691080, Note_on_c, 0, 84, 107
2, 691110, Note_on_c, 0, 84, 0
2, 691110, Note_on_c, 0, 86, 112
2, 691140, Note_on_c, 0, 86, 0
2, 691140, Note_on_c, 0, 88, 99
2, 691170, Note_on_c, 0, 88, 0
2, 691170, Note_on_c, 0, 90, 113
2, 691200, Note_on_c, 0, 90, 0
2, 691211, Note_on_c, 0, 91, 101
2, 691571, Note_on_c, 0, 91, 0
2, 692280, Note_on_c, 0, 84, 95
2, 692310, Note_on_c, 0, 84, 0
2, 692310, Note_on_c, 0, 86, 107
2, 692340, Note_on_c, 0, 86, 0
2, 692340, Note_on_c, 0, 88, 104
2, 692370, Note_on_c, 0, 88, 0
2, 692370, Note_on_c, 0, 90, 100
2, 692400, Note_on_c, 0, 90, 0
2, 692419, Note_on_c, 0, 91, 98
2, 692659, Note_on_c, 0, 91, 0
2, 693000, Note_on_c, 0, 84, 110
2, 693030, Note_on_c, 0, 84, 0
2, 693030, Note_on_c, 0, 86, 107
2, 693060, Note_on_c, 0, 86, 0
2, 693060, Note_on_c, 0, 88, 112
2, 693090, Note_on_c, 0, 88, 0
2, 693090, Note_on_c, 0, 90, 105
2, 693120, Note_on_c, 0, 90, 0
2, 693139, Note_on_c, 0, 91, 98
2, 693499, Note_on_c, 0, 91, 0
2, 693960, Note_on_c, 0, 86, 99
2, 693990, Note_on_c, 0, 86, 0
2, 693990, Note_on_c, 0, 88, 101
2, 694020, Note_on_c, 0, 88, 0
2, 694020, Note_on_c, 0, 90, 105
2, 694050, Note_on_c, 0, 90, 0
2, 694050, Note_on_c, 0, 92, 108
2, 694080, Note_on_c, 0, 92, 0
2, 694091, Note_on_c, 0, 93, 114
2, 694451, Note_on_c, 0, 93, 0
2, 694570, Note_on_c, 0, 93, 96
2, 694685, Note_on_c, 0, 93, 0
2, 694769, Note_on_c, 0, 93, 102
2, 694884, Note_on_c, 0, 93, 0
2, 694956, Note_on_c, 0, 93, 108
2, 695071, Note_on_c, 0, 93, 0
2, 695136, Note_on_c, 0, 93, 113
2, 695250, Note_on_c, 0, 93, 0
2, 695345, Note_on_c, 0, 93, 111
2, 695460, Note_on_c, 0, 93, 0
2, 695520, Note_on_c, 0, 93, 105
2, 695600, Note_on_c, 0, 93, 0
2, 695690, Note_on_c, 0, 93, 99
2, 695771, Note_on_c, 0, 93, 0
2, 695862, Note_on_c, 0, 93, 106
2, 695942, Note_on_c, 0, 93, 0
2, 696006, Note_on_c, 0, 93, 95
2, 696366, Note_on_c, 0, 93, 0
2, 697320, Note_on_c, 0, 86, 96
2, 697350, Note_on_c, 0, 86, 0
2, 697350, Note_on_c, 0, 88, 98
2, 697380, Note_on_c, 0, 88, 0
2, 697380, Note_on_c, 0, 90, 96
2, 697410, Note_on_c, 0, 90, 0
2, 697410, Note_on_c, 0, 92, 95
2, 697440, Note_on_c, 0, 92, 0
2, 697462, Note_on_c, 0, 93, 111
2, 697822, Note_on_c, 0, 93, 0
2, 698894, Note_on_c, 0, 93, 97
2, 699014, Note_on_c, 0, 93, 0
2, 699141, Note_on_c, 0, 93, 103
2, 699261, Note_on_c, 0, 93, 0
2, 699371, Note_on_c, 0, 93, 114
2, 699731, Note_on_c, 0, 93, 0
2, 700200, Note_on_c, 0, 86, 105
2, 700230, Note_on_c, 0, 86, 0
2, 700230, Note_on_c, 0, 88, 113
2, 700260, Note_on_c, 0, 88, 0
2, 700260, Note_on_c, 0, 90, 114
2, 700290, Note_on_c, 0, 90, 0
2, 700290, Note_on_c, 0, 92, 100
2, 700320, Note_on_c, 0, 92, 0
2, 700327, Note_on_c, 0, 93, 108
2, 700687, Note_on_c, 0, 93, 0
2, 701160, Note_on_c, 0, 84, 115
2, 701190, Note_on_c, 0, 84, 0
2, 701190, Note_on_c, 0, 86, 100
2, 701220, Note_on_c, 0, 86, 0
2, 701220, Note_on_c, 0, 88, 115
2, 701250, Note_on_c, 0, 88, 0
2, 701250, Note_on_c, 0, 90, 106
2, 701280, Note_on_c, 0, 90, 0
2, 701286, Note_on_c, 0, 91, 95
2, 701646, Note_on_c, 0, 91, 0
2, 701880, Note_on_c, 0, 84, 99
2, 701910, Note_on_c, 0, 84, 0
2, 701910, Note_on_c, 0, 86, 99
2, 701940, Note_on_c, 0, 86, 0
2, 701940, Note_on_c, 0, 88, 107
2, 701970, Note_on_c, 0, 88, 0
2, 701970, Note_on_c, 0, 90, 101
2, 702000, Note_on_c, 0, 90, 0
2, 702007, Note_on_c, 0, 91, 108
2, 702247, Note_on_c, 0, 91, 0
2, 703080, Note_on_c, 0, 84, 109
2, 703110, Note_on_c, 0, 84, 0
2, 703110, Note_on_c, 0, 86, 114
2, 703140, Note_on_c, 0, 86, 0
2, 703140, Note_on_c, 0, 88, 112
2, 703170, Note_on_c, 0, 88, 0
2, 703170, Note_on_c, 0, 90, 96
2, 703200, Note_on_c, 0, 90, 0
2, 703224, Note_on_c, 0, 91, 96
2, 703584, Note_on_c, 0, 91, 0
2, 704040, Note_on_c, 0, 86, 114
2, 704070, Note_on_c, 0, 86, 0
2, 704070, Note_on_c, 0, 88, 107
2, 704100, Note_on_c, 0, 88, 0
2, 704100, Note_on_c, 0, 90, 108
2, 704130, Note_on_c, 0, 90, 0
2, 704130, Note_on_c, 0, 92, 109
2, 704160, Note_on_c, 0, 92, 0
2, 704184, Note_on_c, 0, 93, 110
2, 704544, Note_on_c, 0, 93, 0
2, 704659, Note_on_c, 0, 93, 111
2, 704779, Note_on_c, 0, 93, 0
2, 704893, Note_on_c, 0, 93, 113
2, 705013, Note_on_c, 0, 93, 0
2, 705134, Note_on_c, 0, 93, 111
2, 705494, Note_on_c, 0, 93, 0
2, 706098, Note_on_c, 0, 93, 109
2, 706178, Note_on_c, 0, 93, 0
2, 706241, Note_on_c, 0, 93, 99
2, 706322, Note_on_c, 0, 93, 0
2, 706411, Note_on_c, 0, 93, 113
2, 706491, Note_on_c, 0, 93, 0
2, 706560, Note_on_c, 0, 93, 96
2, 706920, Note_on_c, 0, 93, 0
2, 707545, Note_on_c, 0, 93, 113
2, 707625, Note_on_c, 0, 93, 0
2, 707680, Note_on_c, 0, 93, 99
2, 707761, Note_on_c, 0, 93, 0
2, 707855, Note_on_c, 0, 93, 106
2, 707935, Note_on_c, 0, 93, 0
2, 708023, Note_on_c, 0, 93, 103
2, 708103, Note_on_c, 0, 93, 0
2, 708164, Note_on_c, 0, 93, 110
2, 708245, Note_on_c, 0, 93, 0
2, 708325, Note_on_c, 0, 93, 113
2, 708405, Note_on_c, 0, 93, 0
2, 710409, Note_on_c, 0, 93, 105
2, 710489, Note_on_c, 0, 93, 0
2, 710573, Note_on_c, 0, 93, 97
2, 710654, Note_on_c, 0, 93, 0
2, 710744, Note_on_c, 0, 93, 109
2, 710824, Note_on_c, 0, 93, 0
2, 710899, Note_on_c, 0, 93, 103
2, 710979, Note_on_c, 0, 93, 0
2, 711053, Note_on_c, 0, 93, 112
2, 711134, Note_on_c, 0, 93, 0
2, 711213, Note_on_c, 0, 93, 111
2, 711293, Note_on_c, 0, 93, 0
2, 712680, Note_on_c, 0, 84, 101
2, 712710, Note_on_c, 0, 84, 0
2, 712710, Note_on_c, 0, 86, 96
2, 712740, Note_on_c, 0, 86, 0
2, 712740, Note_on_c, 0, 88, 102
2, 712770, Note_on_c, 0, 88, 0
2, 712770, Note_on_c, 0, 90, 100
2, 712800, Note_on_c, 0, 90, 0
2, 712818, Note_on_c, 0, 91, 107
2, 713178, Note_on_c, 0, 91, 0
2, 713296, Note_on_c, 0, 91, 114
2, 713656, Note_on_c, 0, 91, 0
2, 714120, Note_on_c, 0, 84, 100
2, 714150, Note_on_c, 0, 84, 0
2, 714150, Note_on_c, 0, 86, 114
2, 714180, Note_on_c, 0, 86, 0
2, 714180, Note_on_c, 0, 88, 99
2, 714210, Note_on_c, 0, 88, 0
2, 714210, Note_on_c, 0, 90, 95
2, 714240, Note_on_c, 0, 90, 0
2, 714243, Note_on_c, 0, 91, 102
2, 714603, Note_on_c, 0, 91, 0
2, 715320, Note_on_c, 0, 84, 99
2, 715350, Note_on_c, 0, 84, 0
2, 715350, Note_on_c, 0, 86, 98
2, 715380, Note_on_c, 0, 86, 0
2, 715380, Note_on_c, 0, 88, 108
2, 715410, Note_on_c, 0, 88, 0
2, 715410, Note_on_c, 0, 90, 101
2, 715440, Note_on_c, 0, 90, 0
2, 715444, Note_on_c, 0, 91, 96
2, 715684, Note_on_c, 0, 91, 0
2, 716040, Note_on_c, 0, 84, 110
2, 716070, Note_on_c, 0, 84, 0
2, 716070, Note_on_c, 0, 86, 113
2, 716100, Note_on_c, 0, 86, 0
2, 716100, Note_on_c, 0, 88, 103
2, 716130, Note_on_c, 0, 88, 0
2, 716130, Note_on_c, 0, 90, 101
2, 716160, Note_on_c, 0, 90, 0
2, 716182, Note_on_c, 0, 91, 111
2, 716542, Note_on_c, 0, 91, 0
2, 717000, Note_on_c, 0, 84, 109
2, 717030, Note_on_c, 0, 84, 0
2, 717030, Note_on_c, 0, 86, 105
2, 717060, Note_on_c, 0, 86, 0
2, 717060, Note_on_c, 0, 88, 99
2, 717090, Note_on_c, 0, 88, 0
2, 717090, Note_on_c, 0, 90, 100
2, 717120, Note_on_c, 0, 90, 0
2, 717141, Note_on_c, 0, 91, 109
2, 717501, Note_on_c, 0, 91, 0
2, 717720, Note_on_c, 0, 84, 114
2, 717750, Note_on_c, 0, 84, 0
2, 717750, Note_on_c, 0, 86, 110
2, 717780, Note_on_c, 0, 86, 0
2, 717780, Note_on_c, 0, 88, 103
2, 717810, Note_on_c, 0, 88, 0
2, 717810, Note_on_c, 0, 90, 104
2, 717840, Note_on_c, 0, 90, 0
2, 717850, Note_on_c, 0, 91, 101
2, 718090, Note_on_c, 0, 91, 0
2, 718920, Note_on_c, 0, 84, 105
2, 718950, Note_on_c, 0, 84, 0
2, 718950, Note_on_c, 0, 86, 107
2, 718980, Note_on_c, 0, 86, 0
2, 718980, Note_on_c, 0, 88, 98
2, 719010, Note_on_c, 0, 88, 0
2, 719010, Note_on_c, 0, 90, 107
2, 719040, Note_on_c, 0, 90, 0
2, 719065, Note_on_c, 0, 91, 104
2, 719425, Note_on_c, 0, 91, 0
2, 719880, Note_on_c, 0, 84, 110
2, 719910, Note_on_c, 0, 84, 0
2, 719910, Note_on_c, 0, 86, 95
2, 719940, Note_on_c, 0, 86, 0
2, 719940, Note_on_c, 0, 88, 99
2, 719970, Note_on_c, 0, 88, 0
2, 719970, Note_on_c, 0, 90, 95
2, 720000, Note_on_c, 0, 90, 0
2, 720013, Note_on_c, 0, 91, 105
2, 720373, Note_on_c, 0, 91, 0
2, 720840, Note_on_c, 0, 84, 111
2, 720870, Note_on_c, 0, 84, 0
2, 720870, Note_on_c, 0, 86, 96
2, 720900, Note_on_c, 0, 86, 0
2, 720900, Note_on_c, 0, 88, 110
2, 720930, Note_on_c, 0, 88, 0
2, 720930, Note_on_c, 0, 90, 110
2, 720960, Note_on_c, 0, 90, 0
2, 720969, Note_on_c, 0, 91, 105
2, 721329, Note_on_c, 0, 91, 0
2, 764664, Note_on_c, 0, 83, 124
2, 764733, Note_on_c, 0, 88, 104
2, 764744, Note_on_c, 0, 83, 0
2, 764812, Note_on_c, 0, 88, 0
2, 764816, Note_on_c, 0, 90, 117
2, 764820, Note_on_c, 0, 91, 117
2, 764896, Note_on_c, 0, 90, 0
2, 764896, Note_on_c, 0, 91, 106
2, 764897, Note_on_c, 0, 94, 104
2, 764900, Note_on_c, 0, 91, 0
2, 764971, Note_on_c, 0, 100, 115
2, 764975, Note_on_c, 0, 98, 122
2, 764976, Note_on_c, 0, 91, 0
2, 764977, Note_on_c, 0, 94, 0
2, 765050, Note_on_c, 0, 100, 0
2, 765054, Note_on_c, 0, 98, 0
2, 765056, Note_on_c, 0, 102, 121
2, 765136, Note_on_c, 0, 102, 0
2, 765607, Note_on_c, 0, 102, 122
2, 765611, Note_on_c, 0, 103, 123
2, 766087, Note_on_c, 0, 102, 0
2, 766091, Note_on_c, 0, 103, 0
2, 766818, Note_on_c, 0, 103, 122
2, 766820, Note_on_c, 0, 102, 113
2, 767058, Note_on_c, 0, 103, 0
2, 767060, Note_on_c, 0, 102, 0
2, 768008, Note_on_c, 0, 103, 110
2, 768018, Note_on_c, 0, 102, 104
2, 768488, Note_on_c, 0, 103, 0
2, 768498, Note_on_c, 0, 102, 0
2, 768720, Note_on_c, 0, 103, 116
2, 768743, Note_on_c, 0, 102, 106
2, 768960, Note_on_c, 0, 103, 0
2, 768983, Note_on_c, 0, 102, 0
2, 769447, Note_on_c, 0, 103, 117
2, 769454, Note_on_c, 0, 102, 109
2, 769927, Note_on_c, 0, 103, 0
2, 769934, Note_on_c, 0, 102, 0
2, 770408, Note_on_c, 0, 102, 114
2, 770408, Note_on_c, 0, 103, 113
2, 770888, Note_on_c, 0, 102, 0
2, 770888, Note_on_c, 0, 103, 0
2, 771604, Note_on_c, 0, 102, 109
2, 771625, Note_on_c, 0, 103, 116
2, 771844, Note_on_c, 0, 102, 0
2, 771865, Note_on_c, 0, 103, 0
2, 772812, Note_on_c, 0, 103, 105
2, 772815, Note_on_c, 0, 102, 124
2, 773292, Note_on_c, 0, 103, 0
2, 773295, Note_on_c, 0, 102, 0
2, 773295, End_track
3, 0, Start_track
3, 0, Title_t, "Flauti I"
3, 0, MIDI_port, 0
3, 0, Program_c, 0, 73
3, 28810, Note_on_c, 0, 69, 61
3, 28890, Note_on_c, 0, 69, 0
3, 28895, Note_on_c, 0, 75, 75
3, 28974, Note_on_c, 0, 75, 0
3, 28983, Note_on_c, 0, 73, 67
3, 29040, Note_on_c, 0, 80, 59
3, 29063, Note_on_c, 0, 73, 0
3, 29100, Note_on_c, 0, 80, 0
3, 29100, Note_on_c, 0, 78, 64
3, 29160, Note_on_c, 0, 78, 0
3, 29160, Note_on_c, 0, 87, 75
3, 29220, Note_on_c, 0, 87, 0
3, 29220, Note_on_c, 0, 79, 64
3, 29280, Note_on_c, 0, 79, 0
3, 29295, Note_on_c, 0, 92, 71
3, 29453, Note_on_c, 0, 80, 62
3, 29454, Note_on_c, 0, 92, 0
3, 29533, Note_on_c, 0, 80, 0
3, 29541, Note_on_c, 0, 87, 59
3, 29607, Note_on_c, 0, 78, 60
3, 29621, Note_on_c, 0, 87, 0
3, 29679, Note_on_c, 0, 80, 66
3, 29686, Note_on_c, 0, 78, 0
3, 29759, Note_on_c, 0, 80, 0
3, 29761, Note_on_c, 0, 75, 74
3, 29920, Note_on_c, 0, 75, 0
3, 29920, Note_on_c, 0, 80, 74
3, 30000, Note_on_c, 0, 80, 0
3, 30004, Note_on_c, 0, 78, 68
3, 30081, Note_on_c, 0, 87, 77
3, 30084, Note_on_c, 0, 78, 0
3, 30160, Note_on_c, 0, 87, 0
3, 30170, Note_on_c, 0, 80, 75
3, 30240, Note_on_c, 0, 92, 75
3, 30250, Note_on_c, 0, 80, 0
3, 30261, Note_on_c, 0, 92, 67
3, 30287, Note_on_c, 0, 92, 0
3, 30287, Note_on_c, 0, 80, 76
3, 30335, Note_on_c, 0, 80, 0
3, 30335, Note_on_c, 0, 87, 66
3, 30382, Note_on_c, 0, 87, 0
3, 30383, Note_on_c, 0, 78, 65
3, 30431, Note_on_c, 0, 78, 0
3, 30431, Note_on_c, 0, 92, 59
3, 30480, Note_on_c, 0, 92, 0
3, 30480, Note_on_c, 0, 80, 69
3, 30499, Note_on_c, 0, 92, 0
3, 30499, Note_on_c, 0, 80, 64
3, 30527, Note_on_c, 0, 80, 0
3, 30527, Note_on_c, 0, 87, 61
3, 30575, Note_on_c, 0, 87, 0
3, 30575, Note_on_c, 0, 78, 73
3, 30622, Note_on_c, 0, 78, 0
3, 30626, Note_on_c, 0, 80, 69
3, 30671, Note_on_c, 0, 75, 69
3, 30690, Note_on_c, 0, 80, 0
3, 30718, Note_on_c, 0, 75, 0
3, 30721, Note_on_c, 0, 80, 0
3, 30745, Note_on_c, 0, 73, 47
3, 35219, Note_on_c, 0, 71, 55
3, 35224, Note_on_c, 0, 73, 0
3, 35371, Note_on_c, 0, 72, 39
3, 35379, Note_on_c, 0, 71, 0
3, 35524, Note_on_c, 0, 69, 58
3, 35530, Note_on_c, 0, 72, 0
3, 35680, Note_on_c, 0, 72, 40
3, 35683, Note_on_c, 0, 69, 0
3, 35840, Note_on_c, 0, 72, 0
3, 35843, Note_on_c, 0, 71, 52
3, 36002, Note_on_c, 0, 71, 0
3, 36024, Note_on_c, 0, 74, 43
3, 36177, Note_on_c, 0, 71, 59
3, 36183, Note_on_c, 0, 74, 0
3, 36332, Note_on_c, 0, 72, 50
3, 36337, Note_on_c, 0, 71, 0
3, 36491, Note_on_c, 0, 72, 0
3, 36492, Note_on_c, 0, 69, 46
3, 36651, Note_on_c, 0, 69, 0
3, 36659, Note_on_c, 0, 72, 57
3, 36819, Note_on_c, 0, 72, 0
3, 36824, Note_on_c, 0, 71, 56
3, 36981, Note_on_c, 0, 74, 40
3, 36983, Note_on_c, 0, 71, 0
3, 37125, Note_on_c, 0, 71, 54
3, 37140, Note_on_c, 0, 74, 0
3, 37285, Note_on_c, 0, 71, 0
3, 37303, Note_on_c, 0, 72, 45
3, 37450, Note_on_c, 0, 69, 52
3, 37462, Note_on_c, 0, 72, 0
3, 37690, Note_on_c, 0, 69, 0
3, 37690, Note_on_c, 0, 72, 43
3, 37930, Note_on_c, 0, 72, 0
3, 37931, Note_on_c, 0, 69, 42
3, 38570, Note_on_c, 0, 69, 0
3, 38583, Note_on_c, 0, 74, 40
3, 38725, Note_on_c, 0, 72, 47
3, 38743, Note_on_c, 0, 74, 0
3, 38884, Note_on_c, 0, 72, 0
3, 38894, Note_on_c, 0, 69, 50
3, 39134, Note_on_c, 0, 69, 0
3, 39137, Note_on_c, 0, 72, 46
3, 39377, Note_on_c, 0, 72, 0
3, 39382, Note_on_c, 0, 71, 39
3, 39610, Note_on_c, 0, 74, 43
3, 39622, Note_on_c, 0, 71, 0
3, 39850, Note_on_c, 0, 74, 0
3, 39853, Note_on_c, 0, 71, 58
3, 40093, Note_on_c, 0, 71, 0
3, 40104, Note_on_c, 0, 72, 52
3, 40336, Note_on_c, 0, 69, 47
3, 40344, Note_on_c, 0, 72, 0
3, 40576, Note_on_c, 0, 69, 0
3, 40584, Note_on_c, 0, 72, 55
3, 40805, Note_on_c, 0, 69, 43
3, 40824, Note_on_c, 0, 72, 0
3, 41760, Note_on_c, 0, 69, 88
3, 41765, Note_on_c, 0, 69, 0
3, 41813, Note_on_c, 0, 69, 0
3, 41813, Note_on_c, 0, 73, 75
3, 41866, Note_on_c, 0, 73, 0
3, 41866, Note_on_c, 0, 76, 71
3, 41918, Note_on_c, 0, 76, 0
3, 41919, Note_on_c, 0, 75, 81
3, 41972, Note_on_c, 0, 75, 0
3, 41973, Note_on_c, 0, 80, 89
3, 42026, Note_on_c, 0, 80, 0
3, 42026, Note_on_c, 0, 72, 89
3, 42078, Note_on_c, 0, 72, 0
3, 42079, Note_on_c, 0, 79, 73
3, 42132, Note_on_c, 0, 79, 0
3, 42133, Note_on_c, 0, 84, 90
3, 42186, Note_on_c, 0, 84, 0
3, 42186, Note_on_c, 0, 82, 84
3, 42239, Note_on_c, 0, 82, 0
3, 42259, Note_on_c, 0, 77, 90
3, 42499, Note_on_c, 0, 77, 0
3, 43680, Note_on_c, 0, 79, 42
3, 43717, Note_on_c, 0, 79, 0
3, 43727, Note_on_c, 0, 79, 44
3, 43763, Note_on_c, 0, 79, 0
3, 43775, Note_on_c, 0, 92, 49
3, 43812, Note_on_c, 0, 92, 0
3, 43823, Note_on_c, 0, 92, 44
3, 43859, Note_on_c, 0, 92, 0
3, 43871, Note_on_c, 0, 92, 45
3, 43908, Note_on_c, 0, 92, 0
3, 43920, Note_on_c, 0, 92, 53
3, 43955, Note_on_c, 0, 92, 0
3, 43967, Note_on_c, 0, 99, 51
3, 44004, Note_on_c, 0, 99, 0
3, 44015, Note_on_c, 0, 99, 56
3, 44051, Note_on_c, 0, 99, 0
3, 44063, Note_on_c, 0, 92, 56
3, 44100, Note_on_c, 0, 92, 0
3, 44111, Note_on_c, 0, 92, 47
3, 44147, Note_on_c, 0, 92, 0
3, 44160, Note_on_c, 0, 80, 52
3, 44197, Note_on_c, 0, 80, 0
3, 44207, Note_on_c, 0, 80, 45
3, 44243, Note_on_c, 0, 80, 0
3, 44255, Note_on_c, 0, 92, 48
3, 44292, Note_on_c, 0, 92, 0
3, 44303, Note_on_c, 0, 92, 52
3, 44339, Note_on_c, 0, 92, 0
3, 44351, Note_on_c, 0, 92, 40
3, 44388, Note_on_c, 0, 92, 0
3, 44400, Note_on_c, 0, 92, 52
3, 44435, Note_on_c, 0, 92, 0
3, 44447, Note_on_c, 0, 99, 55
3, 44484, Note_on_c, 0, 99, 0
3, 44495, Note_on_c, 0, 99, 46
3, 44531, Note_on_c, 0, 99, 0
3, 44543, Note_on_c, 0, 92, 49
3, 44580, Note_on_c, 0, 92, 0
3, 44591, Note_on_c, 0, 92, 45
3, 44627, Note_on_c, 0, 92, 0
3, 44640, Note_on_c, 0, 80, 49
3, 44677, Note_on_c, 0, 80, 0
3, 44687, Note_on_c, 0, 80, 46
3, 44723, Note_on_c, 0, 80, 0
3, 44735, Note_on_c, 0, 92, 45
3, 44772, Note_on_c, 0, 92, 0
3, 44783, Note_on_c, 0, 92, 54
3, 44819, Note_on_c, 0, 92, 0
3, 44831, Note_on_c, 0, 92, 46
3, 44868, Note_on_c, 0, 92, 0
3, 44880, Note_on_c, 0, 92, 55
3, 44915, Note_on_c, 0, 92, 0
3, 44927, Note_on_c, 0, 99, 51
3, 44964, Note_on_c, 0, 99, 0
3, 44975, Note_on_c, 0, 99, 59
3, 45011, Note_on_c, 0, 99, 0
3, 45023, Note_on_c, 0, 92, 47
3, 45060, Note_on_c, 0, 92, 0
3, 45071, Note_on_c, 0, 92, 46
3, 45107, Note_on_c, 0, 92, 0
3, 46080, Note_on_c, 0, 80, 40
3, 46117, Note_on_c, 0, 80, 0
3, 46127, Note_on_c, 0, 80, 42
3, 46163, Note_on_c, 0, 80, 0
3, 46175, Note_on_c, 0, 92, 57
3, 46212, Note_on_c, 0, 92, 0
3, 46223, Note_on_c, 0, 92, 50
3, 46259, Note_on_c, 0, 92, 0
3, 46271, Note_on_c, 0, 92, 46
3, 46308, Note_on_c, 0, 92, 0
3, 46320, Note_on_c, 0, 92, 47
3, 46355, Note_on_c, 0, 92, 0
3, 46367, Note_on_c, 0, 99, 40
3, 46404, Note_on_c, 0, 99, 0
3, 46415, Note_on_c, 0, 99, 46
3, 46451, Note_on_c, 0, 99, 0
3, 46463, Note_on_c, 0, 92, 42
3, 46500, Note_on_c, 0, 92, 0
3, 46511, Note_on_c, 0, 92, 55
3, 46547, Note_on_c, 0, 92, 0
3, 46560, Note_on_c, 0, 80, 52
3, 46597, Note_on_c, 0, 80, 0
3, 46607, Note_on_c, 0, 80, 50
3, 46643, Note_on_c, 0, 80, 0
3, 46655, Note_on_c, 0, 92, 54
3, 46692, Note_on_c, 0, 92, 0
3, 46703, Note_on_c, 0, 92, 39
3, 46739, Note_on_c, 0, 92, 0
3, 46751, Note_on_c, 0, 92, 53
3, 46788, Note_on_c, 0, 92, 0
3, 46800, Note_on_c, 0, 92, 46
3, 46835, Note_on_c, 0, 92, 0
3, 46847, Note_on_c, 0, 99, 44
3, 46884, Note_on_c, 0, 99, 0
3, 46895, Note_on_c, 0, 99, 53
3, 46931, Note_on_c, 0, 99, 0
3, 46943, Note_on_c, 0, 92, 39
3, 46980, Note_on_c, 0, 92, 0
3, 46991, Note_on_c, 0, 92, 54
3, 47027, Note_on_c, 0, 92, 0
3, 50894, Note_on_c, 0, 87, 58
3, 51374, Note_on_c, 0, 87, 0
3, 51384, Note_on_c, 0, 85, 47
3, 51564, Note_on_c, 0, 85, 0
3, 51570, Note_on_c, 0, 86, 57
3, 51613, Note_on_c, 0, 73, 39
3, 51637, Note_on_c, 0, 86, 0
3, 51853, Note_on_c, 0, 73, 0
3, 51860, Note_on_c, 0, 70, 47
3, 52340, Note_on_c, 0, 70, 0
3, 52340, Note_on_c, 0, 68, 40
3, 52520, Note_on_c, 0, 68, 0
3, 52530, Note_on_c, 0, 68, 49
3, 52560, Note_on_c, 0, 68, 0
3, 52583, Note_on_c, 0, 82, 49
3, 52809, Note_on_c, 0, 87, 58
3, 52823, Note_on_c, 0, 82, 0
3, 53289, Note_on_c, 0, 87, 0
3, 53304, Note_on_c, 0, 85, 43
3, 53484, Note_on_c, 0, 85, 0
3, 53490, Note_on_c, 0, 86, 57
3, 53525, Note_on_c, 0, 73, 55
3, 53569, Note_on_c, 0, 86, 0
3, 53765, Note_on_c, 0, 73, 0
3, 53770, Note_on_c, 0, 70, 58
3, 54250, Note_on_c, 0, 70, 0
3, 54265, Note_on_c, 0, 68, 47
3, 54445, Note_on_c, 0, 68, 0
3, 54450, Note_on_c, 0, 68, 50
3, 54480, Note_on_c, 0, 68, 0
3, 54492, Note_on_c, 0, 82, 56
3, 54732, Note_on_c, 0, 82, 0
3, 60000, Note_on_c, 0, 89, 42
3, 60047, Note_on_c, 0, 89, 0
3, 60047, Note_on_c, 0, 84, 51
3, 60095, Note_on_c, 0, 84, 0
3, 60095, Note_on_c, 0, 87, 49
3, 60142, Note_on_c, 0, 87, 0
3, 60143, Note_on_c, 0, 82, 57
3, 60191, Note_on_c, 0, 82, 0
3, 60191, Note_on_c, 0, 77, 58
3, 60238, Note_on_c, 0, 77, 0
3, 60255, Note_on_c, 0, 72, 46
3, 60495, Note_on_c, 0, 72, 0
3, 64560, Note_on_c, 0, 89, 39
3, 64575, Note_on_c, 0, 89, 0
3, 64593, Note_on_c, 0, 88, 54
3, 64608, Note_on_c, 0, 88, 0
3, 64628, Note_on_c, 0, 87, 43
3, 64643, Note_on_c, 0, 87, 0
3, 64662, Note_on_c, 0, 86, 57
3, 64677, Note_on_c, 0, 86, 0
3, 64696, Note_on_c, 0, 85, 39
3, 64711, Note_on_c, 0, 85, 0
3, 64731, Note_on_c, 0, 84, 41
3, 64746, Note_on_c, 0, 84, 0
3, 64765, Note_on_c, 0, 83, 43
3, 64780, Note_on_c, 0, 83, 0
3, 64822, Note_on_c, 0, 82, 46
3, 64917, Note_on_c, 0, 82, 0
3, 66240, Note_on_c, 0, 89, 44
3, 66255, Note_on_c, 0, 89, 0
3, 66273, Note_on_c, 0, 88, 51
3, 66288, Note_on_c, 0, 88, 0
3, 66308, Note_on_c, 0, 87, 52
3, 66323, Note_on_c, 0, 87, 0
3, 66342, Note_on_c, 0, 86, 55
3, 66357, Note_on_c, 0, 86, 0
3, 66376, Note_on_c, 0, 85, 41
3, 66391, Note_on_c, 0, 85, 0
3, 66411, Note_on_c, 0, 84, 48
3, 66426, Note_on_c, 0, 84, 0
3, 66445, Note_on_c, 0, 83, 56
3, 66460, Note_on_c, 0, 83, 0
3, 66482, Note_on_c, 0, 82, 40
3, 66577, Note_on_c, 0, 82, 0
3, 67680, Note_on_c, 0, 89, 39
3, 67695, Note_on_c, 0, 89, 0
3, 67713, Note_on_c, 0, 88, 59
3, 67728, Note_on_c, 0, 88, 0
3, 67748, Note_on_c, 0, 87, 51
3, 67763, Note_on_c, 0, 87, 0
3, 67782, Note_on_c, 0, 86, 45
3, 67797, Note_on_c, 0, 86, 0
3, 67816, Note_on_c, 0, 85, 39
3, 67831, Note_on_c, 0, 85, 0
3, 67851, Note_on_c, 0, 84, 58
3, 67866, Note_on_c, 0, 84, 0
3, 67885, Note_on_c, 0, 83, 55
3, 67900, Note_on_c, 0, 83, 0
3, 67940, Note_on_c, 0, 82, 56
3, 68035, Note_on_c, 0, 82, 0
3, 69120, Note_on_c, 0, 65, 53
3, 69167, Note_on_c, 0, 65, 0
3, 69167, Note_on_c, 0, 72, 43
3, 69215, Note_on_c, 0, 72, 0
3, 69215, Note_on_c, 0, 77, 44
3, 69262, Note_on_c, 0, 77, 0
3, 69263, Note_on_c, 0, 82, 56
3, 69311, Note_on_c, 0, 82, 0
3, 69311, Note_on_c, 0, 87, 43
3, 69358, Note_on_c, 0, 87, 0
3, 69360, Note_on_c, 0, 89, 54
3, 69407, Note_on_c, 0, 89, 0
3, 69407, Note_on_c, 0, 84, 41
3, 69455, Note_on_c, 0, 84, 0
3, 69455, Note_on_c, 0, 87, 51
3, 69502, Note_on_c, 0, 87, 0
3, 69503, Note_on_c, 0, 82, 54
3, 69551, Note_on_c, 0, 82, 0
3, 69551, Note_on_c, 0, 77, 45
3, 69598, Note_on_c, 0, 77, 0
3, 69625, Note_on_c, 0, 70, 43
3, 69840, Note_on_c, 0, 65, 40
3, 69865, Note_on_c, 0, 70, 0
3, 69887, Note_on_c, 0, 65, 0
3, 69887, Note_on_c, 0, 72, 59
3, 69935, Note_on_c, 0, 72, 0
3, 69935, Note_on_c, 0, 77, 53
3, 69982, Note_on_c, 0, 77, 0
3, 69983, Note_on_c, 0, 82, 58
3, 70031, Note_on_c, 0, 82, 0
3, 70031, Note_on_c, 0, 87, 50
3, 70078, Note_on_c, 0, 87, 0
3, 70080, Note_on_c, 0, 89, 40
3, 70127, Note_on_c, 0, 89, 0
3, 70127, Note_on_c, 0, 84, 58
3, 70175, Note_on_c, 0, 84, 0
3, 70175, Note_on_c, 0, 87, 45
3, 70222, Note_on_c, 0, 87, 0
3, 70223, Note_on_c, 0, 82, 55
3, 70271, Note_on_c, 0, 82, 0
3, 70271, Note_on_c, 0, 77, 43
3, 70318, Note_on_c, 0, 77, 0
3, 70320, Note_on_c, 0, 70, 59
3, 70560, Note_on_c, 0, 70, 0
3, 70560, Note_on_c, 0, 89, 53
3, 70607, Note_on_c, 0, 89, 0
3, 70607, Note_on_c, 0, 84, 45
3, 70655, Note_on_c, 0, 84, 0
3, 70655, Note_on_c, 0, 87, 56
3, 70702, Note_on_c, 0, 87, 0
3, 70703, Note_on_c, 0, 82, 42
3, 70751, Note_on_c, 0, 82, 0
3, 70751, Note_on_c, 0, 77, 55
3, 70798, Note_on_c, 0, 77, 0
3, 70801, Note_on_c, 0, 70, 58
3, 71040, Note_on_c, 0, 65, 40
3, 71041, Note_on_c, 0, 70, 0
3, 71087, Note_on_c, 0, 65, 0
3, 71087, Note_on_c, 0, 72, 48
3, 71135, Note_on_c, 0, 72, 0
3, 71135, Note_on_c, 0, 77, 53
3, 71182, Note_on_c, 0, 77, 0
3, 71183, Note_on_c, 0, 82, 45
3, 71231, Note_on_c, 0, 82, 0
3, 71231, Note_on_c, 0, 87, 56
3, 71278, Note_on_c, 0, 87, 0
3, 71280, Note_on_c, 0, 89, 46
3, 71327, Note_on_c, 0, 89, 0
3, 71327, Note_on_c, 0, 84, 56
3, 71375, Note_on_c, 0, 84, 0
3, 71375, Note_on_c, 0, 87, 40
3, 71422, Note_on_c, 0, 87, 0
3, 71423, Note_on_c, 0, 82, 51
3, 71471, Note_on_c, 0, 82, 0
3, 71471, Note_on_c, 0, 77, 57
3, 71518, Note_on_c, 0, 77, 0
3, 108960, Note_on_c, 0, 84, 97
3, 108991, Note_on_c, 0, 84, 0
3, 109040, Note_on_c, 0, 83, 95
3, 109071, Note_on_c, 0, 83, 0
3, 109119, Note_on_c, 0, 82, 107
3, 109151, Note_on_c, 0, 82, 0
3, 109200, Note_on_c, 0, 81, 100
3, 109231, Note_on_c, 0, 81, 0
3, 109280, Note_on_c, 0, 80, 91
3, 109311, Note_on_c, 0, 80, 0
3, 109359, Note_on_c, 0, 79, 108
3, 109391, Note_on_c, 0, 79, 0
3, 109440, Note_on_c, 0, 78, 110
3, 109471, Note_on_c, 0, 78, 0
3, 109520, Note_on_c, 0, 77, 98
3, 109551, Note_on_c, 0, 77, 0
3, 109599, Note_on_c, 0, 76, 103
3, 109631, Note_on_c, 0, 76, 0
3, 109680, Note_on_c, 0, 75, 103
3, 109711, Note_on_c, 0, 75, 0
3, 109760, Note_on_c, 0, 74, 110
3, 109791, Note_on_c, 0, 74, 0
3, 109839, Note_on_c, 0, 73, 98
3, 109871, Note_on_c, 0, 73, 0
3, 109941, Note_on_c, 0, 72, 108
3, 110036, Note_on_c, 0, 72, 0
3, 112102, Note_on_c, 0, 67, 91
3, 112179, Note_on_c, 0, 79, 93
3, 112182, Note_on_c, 0, 67, 0
3, 112247, Note_on_c, 0, 67, 98
3, 112258, Note_on_c, 0, 79, 0
3, 112327, Note_on_c, 0, 67, 0
3, 112339, Note_on_c, 0, 69, 96
3, 112407, Note_on_c, 0, 70, 92
3, 112419, Note_on_c, 0, 69, 0
3, 112486, Note_on_c, 0, 70, 0
3, 112502, Note_on_c, 0, 69, 109
3, 112565, Note_on_c, 0, 70, 94
3, 112582, Note_on_c, 0, 69, 0
3, 112645, Note_on_c, 0, 70, 0
3, 112658, Note_on_c, 0, 72, 105
3, 112728, Note_on_c, 0, 70, 95
3, 112737, Note_on_c, 0, 72, 0
3, 112808, Note_on_c, 0, 70, 0
3, 112808, Note_on_c, 0, 72, 96
3, 112903, Note_on_c, 0, 72, 0
3, 113760, Note_on_c, 0, 72, 100
3, 113791, Note_on_c, 0, 72, 0
3, 113840, Note_on_c, 0, 73, 94
3, 113871, Note_on_c, 0, 73, 0
3, 113919, Note_on_c, 0, 74, 99
3, 113951, Note_on_c, 0, 74, 0
3, 114000, Note_on_c, 0, 75, 101
3, 114031, Note_on_c, 0, 75, 0
3, 114080, Note_on_c, 0, 76, 105
3, 114111, Note_on_c, 0, 76, 0
3, 114159, Note_on_c, 0, 77, 99
3, 114191, Note_on_c, 0, 77, 0
3, 114240, Note_on_c, 0, 78, 95
3, 114271, Note_on_c, 0, 78, 0
3, 114320, Note_on_c, 0, 79, 107
3, 114351, Note_on_c, 0, 79, 0
3, 114399, Note_on_c, 0, 80, 98
3, 114431, Note_on_c, 0, 80, 0
3, 114488, Note_on_c, 0, 81, 91
3, 114583, Note_on_c, 0, 81, 0
3, 114730, Note_on_c, 0, 69, 102
3, 114810, Note_on_c, 0, 69, 0
3, 114816, Note_on_c, 0, 70, 97
3, 114895, Note_on_c, 0, 70, 0
3, 114898, Note_on_c, 0, 69, 93
3, 114976, Note_on_c, 0, 67, 101
3, 114978, Note_on_c, 0, 69, 0
3, 115056, Note_on_c, 0, 67, 0
3, 115064, Note_on_c, 0, 79, 102
3, 115138, Note_on_c, 0, 67, 97
3, 115143, Note_on_c, 0, 79, 0
3, 115218, Note_on_c, 0, 67, 0
3, 115224, Note_on_c, 0, 69, 96
3, 115464, Note_on_c, 0, 69, 0
3, 144690, Note_on_c, 0, 94, 107
3, 144720, Note_on_c, 0, 94, 0
3, 144732, Note_on_c, 0, 80, 84
3, 144852, Note_on_c, 0, 80, 0
3, 145170, Note_on_c, 0, 91, 97
3, 145200, Note_on_c, 0, 91, 0
3, 145210, Note_on_c, 0, 77, 85
3, 145330, Note_on_c, 0, 77, 0
3, 146610, Note_on_c, 0, 91, 82
3, 146651, Note_on_c, 0, 77, 85
3, 146655, Note_on_c, 0, 91, 0
3, 146771, Note_on_c, 0, 77, 0
3, 147090, Note_on_c, 0, 94, 90
3, 147135, Note_on_c, 0, 94, 0
3, 147138, Note_on_c, 0, 80, 88
3, 147258, Note_on_c, 0, 80, 0
3, 147570, Note_on_c, 0, 94, 97
3, 147611, Note_on_c, 0, 80, 92
3, 147615, Note_on_c, 0, 94, 0
3, 147731, Note_on_c, 0, 80, 0
3, 148050, Note_on_c, 0, 91, 79
3, 148094, Note_on_c, 0, 77, 94
3, 148095, Note_on_c, 0, 91, 0
3, 148214, Note_on_c, 0, 77, 0
3, 148530, Note_on_c, 0, 94, 84
3, 148575, Note_on_c, 0, 94, 0
3, 148578, Note_on_c, 0, 80, 96
3, 148698, Note_on_c, 0, 80, 0
3, 149010, Note_on_c, 0, 94, 90
3, 149046, Note_on_c, 0, 80, 84
3, 149055, Note_on_c, 0, 94, 0
3, 149166, Note_on_c, 0, 80, 0
3, 149490, Note_on_c, 0, 91, 98
3, 149535, Note_on_c, 0, 91, 0
3, 149535, Note_on_c, 0, 77, 88
3, 149655, Note_on_c, 0, 77, 0
3, 152550, Note_on_c, 0, 92, 93
3, 152580, Note_on_c, 0, 92, 0
3, 152580, Note_on_c, 0, 88, 98
3, 152610, Note_on_c, 0, 88, 0
3, 152610, Note_on_c, 0, 86, 88
3, 152640, Note_on_c, 0, 86, 0
3, 152651, Note_on_c, 0, 83, 109
3, 153131, Note_on_c, 0, 83, 0
3, 172329, Note_on_c, 0, 79, 73
3, 172564, Note_on_c, 0, 84, 64
3, 172569, Note_on_c, 0, 79, 0
3, 172804, Note_on_c, 0, 84, 0
3, 172808, Note_on_c, 0, 89, 63
3, 172928, Note_on_c, 0, 89, 0
3, 172932, Note_on_c, 0, 82, 64
3, 173050, Note_on_c, 0, 84, 58
3, 173052, Note_on_c, 0, 82, 0
3, 173170, Note_on_c, 0, 84, 0
3, 173181, Note_on_c, 0, 77, 57
3, 173299, Note_on_c, 0, 79, 71
3, 173301, Note_on_c, 0, 77, 0
3, 173528, Note_on_c, 0, 84, 59
3, 173539, Note_on_c, 0, 79, 0
3, 173768, Note_on_c, 0, 84, 0
3, 173778, Note_on_c, 0, 82, 75
3, 174018, Note_on_c, 0, 82, 0
3, 174025, Note_on_c, 0, 81, 63
3, 174124, Note_on_c, 0, 77, 56
3, 174145, Note_on_c, 0, 81, 0
3, 174244, Note_on_c, 0, 77, 0
3, 174254, Note_on_c, 0, 79, 72
3, 174494, Note_on_c, 0, 79, 0
3, 174502, Note_on_c, 0, 81, 74
3, 174690, Note_on_c, 0, 84, 62
3, 174712, Note_on_c, 0, 81, 0
3, 174733, Note_on_c, 0, 79, 61
3, 174806, Note_on_c, 0, 84, 0
3, 175933, Note_on_c, 0, 79, 0
3, 188850, Note_on_c, 0, 87, 58
3, 188882, Note_on_c, 0, 84, 79
3, 188932, Note_on_c, 0, 87, 0
3, 189122, Note_on_c, 0, 84, 0
3, 189136, Note_on_c, 0, 82, 83
3, 189856, Note_on_c, 0, 82, 0
3, 194410, Note_on_c, 0, 82, 65
3, 194505, Note_on_c, 0, 82, 0
3, 194644, Note_on_c, 0, 84, 83
3, 194739, Note_on_c, 0, 84, 0
3, 194893, Note_on_c, 0, 82, 78
3, 194988, Note_on_c, 0, 82, 0
3, 195123, Note_on_c, 0, 87, 74
3, 195218, Note_on_c, 0, 87, 0
3, 195374, Note_on_c, 0, 85, 73
3, 195469, Note_on_c, 0, 85, 0
3, 195600, Note_on_c, 0, 84, 75
3, 195695, Note_on_c, 0, 84, 0
3, 195840, Note_on_c, 0, 84, 79
3, 195935, Note_on_c, 0, 84, 0
3, 196091, Note_on_c, 0, 80, 74
3, 196186, Note_on_c, 0, 80, 0
3, 196320, Note_on_c, 0, 82, 80
3, 196415, Note_on_c, 0, 82, 0
3, 196575, Note_on_c, 0, 87, 74
3, 196670, Note_on_c, 0, 87, 0
3, 196803, Note_on_c, 0, 92, 69
3, 196898, Note_on_c, 0, 92, 0
3, 197065, Note_on_c, 0, 87, 77
3, 197160, Note_on_c, 0, 87, 0
3, 197302, Note_on_c, 0, 82, 69
3, 197397, Note_on_c, 0, 82, 0
3, 197535, Note_on_c, 0, 87, 85
3, 197630, Note_on_c, 0, 87, 0
3, 197780, Note_on_c, 0, 85, 67
3, 197875, Note_on_c, 0, 85, 0
3, 198007, Note_on_c, 0, 84, 79
3, 198102, Note_on_c, 0, 84, 0
3, 198265, Note_on_c, 0, 82, 84
3, 198360, Note_on_c, 0, 82, 0
3, 198485, Note_on_c, 0, 84, 65
3, 198580, Note_on_c, 0, 84, 0
3, 198725, Note_on_c, 0, 82, 80
3, 198820, Note_on_c, 0, 82, 0
3, 198966, Note_on_c, 0, 87, 75
3, 199061, Note_on_c, 0, 87, 0
3, 199202, Note_on_c, 0, 85, 84
3, 199297, Note_on_c, 0, 85, 0
3, 199447, Note_on_c, 0, 84, 70
3, 199542, Note_on_c, 0, 84, 0
3, 199696, Note_on_c, 0, 84, 65
3, 199791, Note_on_c, 0, 84, 0
3, 199932, Note_on_c, 0, 80, 78
3, 200027, Note_on_c, 0, 80, 0
3, 200174, Note_on_c, 0, 82, 82
3, 200269, Note_on_c, 0, 82, 0
3, 200422, Note_on_c, 0, 87, 81
3, 200517, Note_on_c, 0, 87, 0
3, 200644, Note_on_c, 0, 85, 65
3, 200739, Note_on_c, 0, 85, 0
3, 200884, Note_on_c, 0, 84, 77
3, 200979, Note_on_c, 0, 84, 0
3, 201144, Note_on_c, 0, 84, 78
3, 201239, Note_on_c, 0, 84, 0
3, 201364, Note_on_c, 0, 80, 76
3, 201459, Note_on_c, 0, 80, 0
3, 201619, Note_on_c, 0, 82, 70
3, 201714, Note_on_c, 0, 82, 0
3, 201846, Note_on_c, 0, 87, 75
3, 201941, Note_on_c, 0, 87, 0
3, 202097, Note_on_c, 0, 92, 67
3, 202192, Note_on_c, 0, 92, 0
3, 202324, Note_on_c, 0, 87, 72
3, 202419, Note_on_c, 0, 87, 0
3, 202562, Note_on_c, 0, 82, 82
3, 202657, Note_on_c, 0, 82, 0
3, 202819, Note_on_c, 0, 87, 76
3, 202914, Note_on_c, 0, 87, 0
3, 203043, Note_on_c, 0, 92, 71
3, 203138, Note_on_c, 0, 92, 0
3, 203294, Note_on_c, 0, 87, 82
3, 203389, Note_on_c, 0, 87, 0
3, 203541, Note_on_c, 0, 82, 66
3, 203636, Note_on_c, 0, 82, 0
3, 203762, Note_on_c, 0, 87, 85
3, 203857, Note_on_c, 0, 87, 0
3, 204016, Note_on_c, 0, 85, 83
3, 204111, Note_on_c, 0, 85, 0
3, 204244, Note_on_c, 0, 84, 80
3, 204339, Note_on_c, 0, 84, 0
3, 204504, Note_on_c, 0, 84, 72
3, 204599, Note_on_c, 0, 84, 0
3, 204738, Note_on_c, 0, 80, 66
3, 204833, Note_on_c, 0, 80, 0
3, 204964, Note_on_c, 0, 82, 73
3, 205059, Note_on_c, 0, 82, 0
3, 205214, Note_on_c, 0, 84, 66
3, 205309, Note_on_c, 0, 84, 0
3, 205443, Note_on_c, 0, 82, 66
3, 205538, Note_on_c, 0, 82, 0
3, 205684, Note_on_c, 0, 87, 71
3, 205779, Note_on_c, 0, 87, 0
3, 205936, Note_on_c, 0, 85, 70
3, 206007, Note_on_c, 0, 85, 0
3, 206183, Note_on_c, 0, 84, 65
3, 206298, Note_on_c, 0, 82, 75
3, 206303, Note_on_c, 0, 84, 0
3, 206414, Note_on_c, 0, 84, 81
3, 206418, Note_on_c, 0, 82, 0
3, 206485, Note_on_c, 0, 84, 0
3, 206648, Note_on_c, 0, 80, 75
3, 206719, Note_on_c, 0, 80, 0
3, 206902, Note_on_c, 0, 82, 66
3, 206973, Note_on_c, 0, 82, 0
3, 207129, Note_on_c, 0, 84, 73
3, 207243, Note_on_c, 0, 80, 85
3, 207249, Note_on_c, 0, 84, 0
3, 207363, Note_on_c, 0, 80, 0
3, 207378, Note_on_c, 0, 82, 84
3, 207449, Note_on_c, 0, 82, 0
3, 207608, Note_on_c, 0, 87, 69
3, 207679, Note_on_c, 0, 87, 0
3, 207861, Note_on_c, 0, 85, 85
3, 207932, Note_on_c, 0, 85, 0
3, 208103, Note_on_c, 0, 84, 78
3, 208222, Note_on_c, 0, 82, 81
3, 208223, Note_on_c, 0, 84, 0
3, 208335, Note_on_c, 0, 84, 73
3, 208342, Note_on_c, 0, 82, 0
3, 208406, Note_on_c, 0, 84, 0
3, 208561, Note_on_c, 0, 80, 67
3, 208632, Note_on_c, 0, 80, 0
3, 208818, Note_on_c, 0, 82, 82
3, 208889, Note_on_c, 0, 82, 0
3, 209055, Note_on_c, 0, 87, 81
3, 209126, Note_on_c, 0, 87, 0
3, 209286, Note_on_c, 0, 85, 78
3, 209357, Note_on_c, 0, 85, 0
3, 209534, Note_on_c, 0, 84, 78
3, 209654, Note_on_c, 0, 84, 0
3, 209656, Note_on_c, 0, 80, 74
3, 209764, Note_on_c, 0, 82, 67
3, 209776, Note_on_c, 0, 80, 0
3, 209835, Note_on_c, 0, 82, 0
3, 210008, Note_on_c, 0, 87, 69
3, 210079, Note_on_c, 0, 87, 0
3, 210253, Note_on_c, 0, 92, 80
3, 210373, Note_on_c, 0, 92, 0
3, 210380, Note_on_c, 0, 85, 79
3, 210500, Note_on_c, 0, 85, 0
3, 210504, Note_on_c, 0, 87, 68
3, 210604, Note_on_c, 0, 80, 65
3, 210624, Note_on_c, 0, 87, 0
3, 210724, Note_on_c, 0, 80, 0
3, 210739, Note_on_c, 0, 82, 69
3, 210810, Note_on_c, 0, 82, 0
3, 210972, Note_on_c, 0, 87, 73
3, 211043, Note_on_c, 0, 87, 0
3, 211208, Note_on_c, 0, 85, 72
3, 211279, Note_on_c, 0, 85, 0
3, 211442, Note_on_c, 0, 84, 70
3, 211562, Note_on_c, 0, 84, 0
3, 211577, Note_on_c, 0, 80, 76
3, 211697, Note_on_c, 0, 80, 0
3, 227047, Note_on_c, 0, 81, 95
3, 227286, Note_on_c, 0, 83, 98
3, 227287, Note_on_c, 0, 81, 0
3, 227406, Note_on_c, 0, 83, 0
3, 227419, Note_on_c, 0, 79, 88
3, 227527, Note_on_c, 0, 81, 95
3, 227539, Note_on_c, 0, 79, 0
3, 227767, Note_on_c, 0, 81, 0
3, 227774, Note_on_c, 0, 83, 98
3, 227888, Note_on_c, 0, 79, 79
3, 227894, Note_on_c, 0, 83, 0
3, 228008, Note_on_c, 0, 79, 0
3, 228020, Note_on_c, 0, 81, 83
3, 228244, Note_on_c, 0, 83, 82
3, 228260, Note_on_c, 0, 81, 0
3, 228364, Note_on_c, 0, 83, 0
3, 228369, Note_on_c, 0, 79, 83
3, 228480, Note_on_c, 0, 81, 87
3, 228489, Note_on_c, 0, 79, 0
3, 228540, Note_on_c, 0, 81, 0
3, 228540, Note_on_c, 0, 82, 78
3, 228600, Note_on_c, 0, 82, 0
3, 228608, Note_on_c, 0, 81, 78
3, 228721, Note_on_c, 0, 83, 89
3, 228728, Note_on_c, 0, 81, 0
3, 228841, Note_on_c, 0, 83, 0
3, 228841, Note_on_c, 0, 79, 95
3, 228961, Note_on_c, 0, 79, 0
3, 228971, Note_on_c, 0, 81, 80
3, 229211, Note_on_c, 0, 81, 0
3, 229211, Note_on_c, 0, 86, 83
3, 229440, Note_on_c, 0, 84, 80
3, 229451, Note_on_c, 0, 86, 0
3, 229500, Note_on_c, 0, 84, 0
3, 229500, Note_on_c, 0, 85, 90
3, 229560, Note_on_c, 0, 85, 0
3, 229563, Note_on_c, 0, 84, 80
3, 229683, Note_on_c, 0, 84, 0
3, 229702, Note_on_c, 0, 83, 87
3, 229804, Note_on_c, 0, 81, 86
3, 229822, Note_on_c, 0, 83, 0
3, 229924, Note_on_c, 0, 81, 0
3, 229936, Note_on_c, 0, 83, 98
3, 230176, Note_on_c, 0, 83, 0
3, 230176, Note_on_c, 0, 79, 82
3, 230401, Note_on_c, 0, 81, 85
3, 230416, Note_on_c, 0, 79, 0
3, 230610, Note_on_c, 0, 86, 97
3, 230611, Note_on_c, 0, 81, 0
3, 230640, Note_on_c, 0, 86, 0
3, 230642, Note_on_c, 0, 83, 93
3, 230882, Note_on_c, 0, 83, 0
3, 230894, Note_on_c, 0, 81, 95
3, 231090, Note_on_c, 0, 86, 93
3, 231104, Note_on_c, 0, 81, 0
3, 231120, Note_on_c, 0, 86, 0
3, 231143, Note_on_c, 0, 83, 88
3, 231258, Note_on_c, 0, 79, 96
3, 231263, Note_on_c, 0, 83, 0
3, 231367, Note_on_c, 0, 81, 97
3, 231378, Note_on_c, 0, 79, 0
3, 231602, Note_on_c, 0, 86, 83
3, 231607, Note_on_c, 0, 81, 0
3, 231842, Note_on_c, 0, 86, 0
3, 231861, Note_on_c, 0, 84, 96
3, 232093, Note_on_c, 0, 83, 81
3, 232101, Note_on_c, 0, 84, 0
3, 232200, Note_on_c, 0, 81, 91
3, 232213, Note_on_c, 0, 83, 0
3, 232320, Note_on_c, 0, 81, 0
3, 232331, Note_on_c, 0, 83, 96
3, 232566, Note_on_c, 0, 79, 85
3, 232571, Note_on_c, 0, 83, 0
3, 232800, Note_on_c, 0, 81, 89
3, 232806, Note_on_c, 0, 79, 0
3, 232860, Note_on_c, 0, 81, 0
3, 232860, Note_on_c, 0, 82, 94
3, 232920, Note_on_c, 0, 82, 0
3, 232939, Note_on_c, 0, 81, 98
3, 233010, Note_on_c, 0, 86, 96
3, 233029, Note_on_c, 0, 81, 0
3, 233040, Note_on_c, 0, 86, 0
3, 233043, Note_on_c, 0, 83, 79
3, 233163, Note_on_c, 0, 83, 0
3, 233166, Note_on_c, 0, 79, 91
3, 233286, Note_on_c, 0, 79, 0
3, 233286, Note_on_c, 0, 81, 89
3, 233490, Note_on_c, 0, 86, 85
3, 233496, Note_on_c, 0, 81, 0
3, 233520, Note_on_c, 0, 86, 0
3, 233530, Note_on_c, 0, 83, 89
3, 233770, Note_on_c, 0, 83, 0
3, 234723, Note_on_c, 0, 65, 89
3, 234791, Note_on_c, 0, 65, 0
3, 234809, Note_on_c, 0, 66, 84
3, 234877, Note_on_c, 0, 66, 0
3, 234880, Note_on_c, 0, 67, 90
3, 234935, Note_on_c, 0, 68, 86
3, 234948, Note_on_c, 0, 67, 0
3, 235003, Note_on_c, 0, 68, 0
3, 235008, Note_on_c, 0, 69, 82
3, 235076, Note_on_c, 0, 69, 0
3, 235083, Note_on_c, 0, 70, 82
3, 235133, Note_on_c, 0, 71, 96
3, 235151, Note_on_c, 0, 70, 0
3, 235201, Note_on_c, 0, 71, 0
3, 235214, Note_on_c, 0, 72, 89
3, 235282, Note_on_c, 0, 72, 0
3, 235282, Note_on_c, 0, 73, 86
3, 235350, Note_on_c, 0, 73, 0
3, 235357, Note_on_c, 0, 74, 85
3, 235419, Note_on_c, 0, 75, 97
3, 235425, Note_on_c, 0, 74, 0
3, 235487, Note_on_c, 0, 75, 0
3, 235494, Note_on_c, 0, 76, 97
3, 235547, Note_on_c, 0, 77, 89
3, 235562, Note_on_c, 0, 76, 0
3, 235615, Note_on_c, 0, 77, 0
3, 235620, Note_on_c, 0, 78, 88
3, 235688, Note_on_c, 0, 78, 0
3, 235703, Note_on_c, 0, 79, 89
3, 235823, Note_on_c, 0, 79, 0
3, 236660, Note_on_c, 0, 71, 82
3, 236740, Note_on_c, 0, 71, 0
3, 236744, Note_on_c, 0, 72, 86
3, 236811, Note_on_c, 0, 73, 100
3, 236823, Note_on_c, 0, 72, 0
3, 236891, Note_on_c, 0, 73, 0
3, 236898, Note_on_c, 0, 74, 103
3, 236978, Note_on_c, 0, 74, 0
3, 236978, Note_on_c, 0, 75, 87
3, 237041, Note_on_c, 0, 76, 91
3, 237057, Note_on_c, 0, 75, 0
3, 237121, Note_on_c, 0, 76, 0
3, 237130, Note_on_c, 0, 77, 88
3, 237202, Note_on_c, 0, 78, 95
3, 237210, Note_on_c, 0, 77, 0
3, 237281, Note_on_c, 0, 78, 0
3, 237303, Note_on_c, 0, 79, 106
3, 237383, Note_on_c, 0, 79, 0
3, 237384, Note_on_c, 0, 80, 106
3, 237442, Note_on_c, 0, 81, 95
3, 237464, Note_on_c, 0, 80, 0
3, 237521, Note_on_c, 0, 81, 0
3, 237535, Note_on_c, 0, 82, 116
3, 237615, Note_on_c, 0, 82, 0
3, 237623, Note_on_c, 0, 83, 90
3, 237743, Note_on_c, 0, 83, 0
3, 238574, Note_on_c, 0, 83, 89
3, 238654, Note_on_c, 0, 83, 0
3, 238665, Note_on_c, 0, 84, 86
3, 238721, Note_on_c, 0, 85, 85
3, 238744, Note_on_c, 0, 84, 0
3, 238801, Note_on_c, 0, 85, 0
3, 238802, Note_on_c, 0, 86, 90
3, 238882, Note_on_c, 0, 86, 0
3, 238898, Note_on_c, 0, 87, 102
3, 238972, Note_on_c, 0, 88, 104
3, 238977, Note_on_c, 0, 87, 0
3, 239052, Note_on_c, 0, 88, 0
3, 239057, Note_on_c, 0, 89, 92
3, 239137, Note_on_c, 0, 89, 0
3, 239142, Note_on_c, 0, 90, 93
3, 239212, Note_on_c, 0, 91, 92
3, 239221, Note_on_c, 0, 90, 0
3, 239286, Note_on_c, 0, 92, 103
3, 239292, Note_on_c, 0, 91, 0
3, 239366, Note_on_c, 0, 92, 0
3, 239371, Note_on_c, 0, 93, 111
3, 239444, Note_on_c, 0, 94, 99
3, 239450, Note_on_c, 0, 93, 0
3, 239524, Note_on_c, 0, 94, 0
3, 239533, Note_on_c, 0, 95, 115
3, 239613, Note_on_c, 0, 95, 0
3, 239614, Note_on_c, 0, 94, 98
3, 239693, Note_on_c, 0, 94, 0
3, 239698, Note_on_c, 0, 93, 97
3, 239774, Note_on_c, 0, 92, 99
3, 239778, Note_on_c, 0, 93, 0
3, 239842, Note_on_c, 0, 91, 96
3, 239854, Note_on_c, 0, 92, 0
3, 239921, Note_on_c, 0, 91, 0
3, 239944, Note_on_c, 0, 90, 109
3, 240018, Note_on_c, 0, 89, 94
3, 240024, Note_on_c, 0, 90, 0
3, 240087, Note_on_c, 0, 88, 96
3, 240098, Note_on_c, 0, 89, 0
3, 240165, Note_on_c, 0, 87, 93
3, 240166, Note_on_c, 0, 88, 0
3, 240245, Note_on_c, 0, 87, 0
3, 240248, Note_on_c, 0, 86, 93
3, 240328, Note_on_c, 0, 86, 0
3, 240340, Note_on_c, 0, 85, 90
3, 240419, Note_on_c, 0, 85, 0
3, 240421, Note_on_c, 0, 84, 85
3, 240487, Note_on_c, 0, 83, 98
3, 240501, Note_on_c, 0, 84, 0
3, 240607, Note_on_c, 0, 83, 0
3, 242410, Note_on_c, 0, 83, 86
3, 242490, Note_on_c, 0, 83, 0
3, 242497, Note_on_c, 0, 84, 99
3, 242559, Note_on_c, 0, 85, 96
3, 242576, Note_on_c, 0, 84, 0
3, 242639, Note_on_c, 0, 85, 0
3, 242643, Note_on_c, 0, 86, 87
3, 242723, Note_on_c, 0, 86, 0
3, 242738, Note_on_c, 0, 87, 101
3, 242812, Note_on_c, 0, 88, 101
3, 242817, Note_on_c, 0, 87, 0
3, 242892, Note_on_c, 0, 88, 0
3, 242894, Note_on_c, 0, 89, 93
3, 242974, Note_on_c, 0, 89, 0
3, 242979, Note_on_c, 0, 90, 97
3, 243058, Note_on_c, 0, 90, 0
3, 243058, Note_on_c, 0, 91, 99
3, 243128, Note_on_c, 0, 92, 101
3, 243138, Note_on_c, 0, 91, 0
3, 243206, Note_on_c, 0, 93, 115
3, 243208, Note_on_c, 0, 92, 0
3, 243285, Note_on_c, 0, 93, 0
3, 243296, Note_on_c, 0, 94, 116
3, 243364, Note_on_c, 0, 95, 107
3, 243376, Note_on_c, 0, 94, 0
3, 243443, Note_on_c, 0, 94, 106
3, 243444, Note_on_c, 0, 95, 0
3, 243522, Note_on_c, 0, 94, 0
3, 243525, Note_on_c, 0, 93, 107
3, 243605, Note_on_c, 0, 93, 0
3, 243619, Note_on_c, 0, 92, 96
3, 243699, Note_on_c, 0, 92, 0
3, 243700, Note_on_c, 0, 91, 107
3, 243769, Note_on_c, 0, 90, 109
3, 243779, Note_on_c, 0, 91, 0
3, 243840, Note_on_c, 0, 89, 94
3, 243849, Note_on_c, 0, 90, 0
3, 243920, Note_on_c, 0, 89, 0
3, 243935, Note_on_c, 0, 88, 95
3, 244011, Note_on_c, 0, 87, 91
3, 244014, Note_on_c, 0, 88, 0
3, 244084, Note_on_c, 0, 86, 95
3, 244091, Note_on_c, 0, 87, 0
3, 244164, Note_on_c, 0, 86, 0
3, 244170, Note_on_c, 0, 85, 82
3, 244245, Note_on_c, 0, 84, 82
3, 244249, Note_on_c, 0, 85, 0
3, 244325, Note_on_c, 0, 84, 0
3, 244325, Note_on_c, 0, 83, 82
3, 244445, Note_on_c, 0, 83, 0
3, 245299, Note_on_c, 0, 81, 78
3, 245539, Note_on_c, 0, 81, 0
3, 245544, Note_on_c, 0, 86, 80
3, 245760, Note_on_c, 0, 84, 93
3, 245784, Note_on_c, 0, 86, 0
3, 246000, Note_on_c, 0, 84, 0
3, 246013, Note_on_c, 0, 83, 84
3, 246133, Note_on_c, 0, 83, 0
3, 246134, Note_on_c, 0, 79, 89
3, 246253, Note_on_c, 0, 81, 97
3, 246254, Note_on_c, 0, 79, 0
3, 246493, Note_on_c, 0, 81, 0
3, 246745, Note_on_c, 0, 86, 90
3, 246828, Note_on_c, 0, 87, 83
3, 246840, Note_on_c, 0, 86, 0
3, 246923, Note_on_c, 0, 87, 0
3, 246934, Note_on_c, 0, 88, 95
3, 247029, Note_on_c, 0, 89, 91
3, 247030, Note_on_c, 0, 88, 0
3, 247119, Note_on_c, 0, 90, 112
3, 247124, Note_on_c, 0, 89, 0
3, 247213, Note_on_c, 0, 91, 112
3, 247214, Note_on_c, 0, 90, 0
3, 247333, Note_on_c, 0, 91, 0
3, 247701, Note_on_c, 0, 86, 84
3, 247787, Note_on_c, 0, 87, 96
3, 247796, Note_on_c, 0, 86, 0
3, 247882, Note_on_c, 0, 87, 0
3, 247892, Note_on_c, 0, 88, 92
3, 247988, Note_on_c, 0, 88, 0
3, 247989, Note_on_c, 0, 89, 100
3, 248083, Note_on_c, 0, 90, 103
3, 248084, Note_on_c, 0, 89, 0
3, 248169, Note_on_c, 0, 91, 106
3, 248178, Note_on_c, 0, 90, 0
3, 248289, Note_on_c, 0, 91, 0
3, 248640, Note_on_c, 0, 86, 96
3, 248735, Note_on_c, 0, 86, 0
3, 248759, Note_on_c, 0, 87, 100
3, 248837, Note_on_c, 0, 88, 91
3, 248854, Note_on_c, 0, 87, 0
3, 248933, Note_on_c, 0, 88, 0
3, 248952, Note_on_c, 0, 89, 103
3, 249028, Note_on_c, 0, 90, 114
3, 249047, Note_on_c, 0, 89, 0
3, 249123, Note_on_c, 0, 90, 0
3, 249144, Note_on_c, 0, 91, 98
3, 249264, Note_on_c, 0, 91, 0
3, 249616, Note_on_c, 0, 84, 79
3, 249853, Note_on_c, 0, 83, 85
3, 249856, Note_on_c, 0, 84, 0
3, 249967, Note_on_c, 0, 79, 97
3, 249973, Note_on_c, 0, 83, 0
3, 250087, Note_on_c, 0, 79, 0
3, 255363, Note_on_c, 0, 81, 96
3, 255483, Note_on_c, 0, 81, 0
3, 255608, Note_on_c, 0, 83, 111
3, 255728, Note_on_c, 0, 83, 0
3, 255842, Note_on_c, 0, 81, 98
3, 255962, Note_on_c, 0, 81, 0
3, 256097, Note_on_c, 0, 86, 109
3, 256217, Note_on_c, 0, 86, 0
3, 256324, Note_on_c, 0, 88, 99
3, 256444, Note_on_c, 0, 88, 0
3, 256581, Note_on_c, 0, 91, 107
3, 256701, Note_on_c, 0, 91, 0
3, 256821, Note_on_c, 0, 90, 102
3, 256941, Note_on_c, 0, 90, 0
3, 257054, Note_on_c, 0, 88, 103
3, 257174, Note_on_c, 0, 88, 0
3, 257290, Note_on_c, 0, 86, 106
3, 257410, Note_on_c, 0, 86, 0
3, 257529, Note_on_c, 0, 81, 94
3, 257649, Note_on_c, 0, 81, 0
3, 257785, Note_on_c, 0, 83, 104
3, 257905, Note_on_c, 0, 83, 0
3, 258015, Note_on_c, 0, 86, 110
3, 258135, Note_on_c, 0, 86, 0
3, 258260, Note_on_c, 0, 91, 107
3, 258380, Note_on_c, 0, 91, 0
3, 258480, Note_on_c, 0, 90, 92
3, 258600, Note_on_c, 0, 90, 0
3, 258724, Note_on_c, 0, 88, 91
3, 258844, Note_on_c, 0, 88, 0
3, 258979, Note_on_c, 0, 86, 108
3, 259099, Note_on_c, 0, 86, 0
3, 259218, Note_on_c, 0, 81, 97
3, 259338, Note_on_c, 0, 81, 0
3, 259702, Note_on_c, 0, 83, 94
3, 259822, Note_on_c, 0, 83, 0
3, 259939, Note_on_c, 0, 86, 95
3, 260059, Note_on_c, 0, 86, 0
3, 260181, Note_on_c, 0, 84, 92
3, 260301, Note_on_c, 0, 84, 0
3, 260410, Note_on_c, 0, 81, 105
3, 260530, Note_on_c, 0, 81, 0
3, 260650, Note_on_c, 0, 81, 111
3, 260770, Note_on_c, 0, 81, 0
3, 260890, Note_on_c, 0, 71, 92
3, 260905, Note_on_c, 0, 66, 96
3, 261008, Note_on_c, 0, 63, 96
3, 261010, Note_on_c, 0, 71, 0
3, 261017, Note_on_c, 0, 69, 82
3, 261025, Note_on_c, 0, 66, 0
3, 261123, Note_on_c, 0, 66, 93
3, 261128, Note_on_c, 0, 63, 0
3, 261137, Note_on_c, 0, 69, 0
3, 261140, Note_on_c, 0, 71, 92
3, 261243, Note_on_c, 0, 66, 0
3, 261246, Note_on_c, 0, 63, 91
3, 261260, Note_on_c, 0, 71, 0
3, 261264, Note_on_c, 0, 69, 94
3, 261366, Note_on_c, 0, 63, 0
3, 261372, Note_on_c, 0, 66, 91
3, 261379, Note_on_c, 0, 71, 78
3, 261384, Note_on_c, 0, 69, 0
3, 261492, Note_on_c, 0, 66, 0
3, 261493, Note_on_c, 0, 69, 81
3, 261494, Note_on_c, 0, 63, 98
3, 261499, Note_on_c, 0, 71, 0
3, 261601, Note_on_c, 0, 66, 95
3, 261611, Note_on_c, 0, 71, 82
3, 261613, Note_on_c, 0, 69, 0
3, 261614, Note_on_c, 0, 63, 0
3, 261721, Note_on_c, 0, 66, 0
3, 261731, Note_on_c, 0, 71, 0
3, 261744, Note_on_c, 0, 63, 81
3, 261744, Note_on_c, 0, 69, 91
3, 261840, Note_on_c, 0, 66, 88
3, 261858, Note_on_c, 0, 71, 79
3, 261864, Note_on_c, 0, 63, 0
3, 261864, Note_on_c, 0, 69, 0
3, 261960, Note_on_c, 0, 66, 0
3, 261966, Note_on_c, 0, 69, 83
3, 261977, Note_on_c, 0, 63, 78
3, 261978, Note_on_c, 0, 71, 0
3, 262086, Note_on_c, 0, 69, 0
3, 262086, Note_on_c, 0, 66, 78
3, 262094, Note_on_c, 0, 71, 80
3, 262097, Note_on_c, 0, 63, 0
3, 262203, Note_on_c, 0, 63, 98
3, 262206, Note_on_c, 0, 66, 0
3, 262212, Note_on_c, 0, 69, 95
3, 262214, Note_on_c, 0, 71, 0
3, 262323, Note_on_c, 0, 63, 0
3, 262328, Note_on_c, 0, 71, 87
3, 262332, Note_on_c, 0, 69, 0
3, 262337, Note_on_c, 0, 66, 85
3, 262442, Note_on_c, 0, 63, 87
3, 262448, Note_on_c, 0, 71, 0
3, 262457, Note_on_c, 0, 66, 0
3, 262463, Note_on_c, 0, 69, 79
3, 262561, Note_on_c, 0, 66, 85
3, 262562, Note_on_c, 0, 63, 0
3, 262581, Note_on_c, 0, 71, 91
3, 262583, Note_on_c, 0, 69, 0
3, 262681, Note_on_c, 0, 66, 0
3, 262687, Note_on_c, 0, 69, 78
3, 262689, Note_on_c, 0, 63, 82
3, 262701, Note_on_c, 0, 71, 0
3, 262807, Note_on_c, 0, 69, 0
3, 262809, Note_on_c, 0, 63, 0
3, 262820, Note_on_c, 0, 66, 91
3, 262822, Note_on_c, 0, 71, 84
3, 262925, Note_on_c, 0, 63, 93
3, 262940, Note_on_c, 0, 66, 0
3, 262942, Note_on_c, 0, 71, 0
3, 262945, Note_on_c, 0, 69, 89
3, 263045, Note_on_c, 0, 63, 0
3, 263051, Note_on_c, 0, 71, 88
3, 263053, Note_on_c, 0, 66, 98
3, 263065, Note_on_c, 0, 69, 0
3, 263160, Note_on_c, 0, 63, 96
3, 263171, Note_on_c, 0, 71, 0
3, 263171, Note_on_c, 0, 69, 86
3, 263173, Note_on_c, 0, 66, 0
3, 263280, Note_on_c, 0, 63, 0
3, 263291, Note_on_c, 0, 69, 0
3, 263293, Note_on_c, 0, 71, 88
3, 263298, Note_on_c, 0, 66, 88
3, 263401, Note_on_c, 0, 63, 94
3, 263413, Note_on_c, 0, 71, 0
3, 263418, Note_on_c, 0, 66, 0
3, 263421, Note_on_c, 0, 69, 80
3, 263521, Note_on_c, 0, 63, 0
3, 263526, Note_on_c, 0, 66, 98
3, 263536, Note_on_c, 0, 71, 87
3, 263541, Note_on_c, 0, 69, 0
3, 263646, Note_on_c, 0, 66, 0
3, 263650, Note_on_c, 0, 69, 80
3, 263653, Note_on_c, 0, 63, 97
3, 263656, Note_on_c, 0, 71, 0
3, 263770, Note_on_c, 0, 69, 0
3, 263773, Note_on_c, 0, 63, 0
3, 263782, Note_on_c, 0, 66, 91
3, 263782, Note_on_c, 0, 71, 93
3, 263884, Note_on_c, 0, 69, 93
3, 263891, Note_on_c, 0, 63, 85
3, 263902, Note_on_c, 0, 66, 0
3, 263902, Note_on_c, 0, 71, 0
3, 264004, Note_on_c, 0, 69, 0
3, 264008, Note_on_c, 0, 71, 89
3, 264011, Note_on_c, 0, 63, 0
3, 264021, Note_on_c, 0, 66, 91
3, 264121, Note_on_c, 0, 69, 91
3, 264128, Note_on_c, 0, 71, 0
3, 264129, Note_on_c, 0, 63, 86
3, 264141, Note_on_c, 0, 66, 0
3, 264241, Note_on_c, 0, 69, 0
3, 264249, Note_on_c, 0, 63, 0
3, 264249, Note_on_c, 0, 66, 82
3, 264260, Note_on_c, 0, 71, 89
3, 264369, Note_on_c, 0, 66, 0
3, 264377, Note_on_c, 0, 63, 79
3, 264380, Note_on_c, 0, 71, 0
3, 264381, Note_on_c, 0, 69, 84
3, 264497, Note_on_c, 0, 63, 0
3, 264500, Note_on_c, 0, 66, 78
3, 264501, Note_on_c, 0, 69, 0
3, 264503, Note_on_c, 0, 71, 80
3, 264618, Note_on_c, 0, 63, 88
3, 264620, Note_on_c, 0, 66, 0
3, 264623, Note_on_c, 0, 71, 0
3, 264624, Note_on_c, 0, 69, 80
3, 264722, Note_on_c, 0, 71, 91
3, 264737, Note_on_c, 0, 66, 91
3, 264738, Note_on_c, 0, 63, 0
3, 264744, Note_on_c, 0, 69, 0
3, 264842, Note_on_c, 0, 71, 0
3, 264849, Note_on_c, 0, 69, 87
3, 264857, Note_on_c, 0, 66, 0
3, 264864, Note_on_c, 0, 63, 98
3, 264964, Note_on_c, 0, 71, 91
3, 264969, Note_on_c, 0, 69, 0
3, 264974, Note_on_c, 0, 66, 85
3, 264984, Note_on_c, 0, 63, 0
3, 265084, Note_on_c, 0, 71, 0
3, 265094, Note_on_c, 0, 66, 0
3, 265094, Note_on_c, 0, 69, 97
3, 265095, Note_on_c, 0, 63, 93
3, 265208, Note_on_c, 0, 66, 78
3, 265214, Note_on_c, 0, 69, 0
3, 265215, Note_on_c, 0, 63, 0
3, 265220, Note_on_c, 0, 71, 82
3, 265320, Note_on_c, 0, 69, 79
3, 265328, Note_on_c, 0, 66, 0
3, 265333, Note_on_c, 0, 63, 90
3, 265340, Note_on_c, 0, 71, 0
3, 265440, Note_on_c, 0, 69, 0
3, 265450, Note_on_c, 0, 71, 98
3, 265452, Note_on_c, 0, 66, 97
3, 265453, Note_on_c, 0, 63, 0
3, 265570, Note_on_c, 0, 71, 0
3, 265572, Note_on_c, 0, 66, 0
3, 265580, Note_on_c, 0, 63, 92
3, 265582, Note_on_c, 0, 69, 84
3, 265698, Note_on_c, 0, 66, 91
3, 265700, Note_on_c, 0, 63, 0
3, 265702, Note_on_c, 0, 69, 0
3, 265703, Note_on_c, 0, 71, 95
3, 265807, Note_on_c, 0, 63, 85
3, 265818, Note_on_c, 0, 66, 0
3, 265820, Note_on_c, 0, 69, 82
3, 265823, Note_on_c, 0, 71, 0
3, 265927, Note_on_c, 0, 63, 0
3, 265932, Note_on_c, 0, 71, 84
3, 265940, Note_on_c, 0, 69, 0
3, 265945, Note_on_c, 0, 66, 89
3, 266046, Note_on_c, 0, 63, 97
3, 266052, Note_on_c, 0, 71, 0
3, 266060, Note_on_c, 0, 69, 97
3, 266065, Note_on_c, 0, 66, 0
3, 266166, Note_on_c, 0, 63, 0
3, 266169, Note_on_c, 0, 66, 79
3, 266180, Note_on_c, 0, 69, 0
3, 266185, Note_on_c, 0, 71, 95
3, 266289, Note_on_c, 0, 66, 0
3, 266291, Note_on_c, 0, 69, 96
3, 266305, Note_on_c, 0, 71, 0
3, 266305, Note_on_c, 0, 63, 92
3, 266400, Note_on_c, 0, 66, 93
3, 266407, Note_on_c, 0, 71, 78
3, 266411, Note_on_c, 0, 69, 0
3, 266425, Note_on_c, 0, 63, 0
3, 266520, Note_on_c, 0, 66, 0
3, 266522, Note_on_c, 0, 69, 88
3, 266527, Note_on_c, 0, 71, 0
3, 266527, Note_on_c, 0, 63, 92
3, 266642, Note_on_c, 0, 69, 0
3, 266646, Note_on_c, 0, 72, 81
3, 266647, Note_on_c, 0, 63, 0
3, 266656, Note_on_c, 0, 67, 91
3, 266886, Note_on_c, 0, 72, 0
3, 266896, Note_on_c, 0, 67, 0
3, 268326, Note_on_c, 0, 82, 92
3, 268344, Note_on_c, 0, 87, 87
3, 268453, Note_on_c, 0, 86, 87
3, 268459, Note_on_c, 0, 82, 0
3, 268460, Note_on_c, 0, 81, 83
3, 268477, Note_on_c, 0, 87, 0
3, 268586, Note_on_c, 0, 86, 0
3, 268589, Note_on_c, 0, 80, 94
3, 268593, Note_on_c, 0, 81, 0
3, 268610, Note_on_c, 0, 85, 82
3, 268722, Note_on_c, 0, 80, 0
3, 268725, Note_on_c, 0, 84, 83
3, 268730, Note_on_c, 0, 79, 93
3, 268743, Note_on_c, 0, 85, 0
3, 268856, Note_on_c, 0, 78, 89
3, 268858, Note_on_c, 0, 84, 0
3, 268863, Note_on_c, 0, 79, 0
3, 268874, Note_on_c, 0, 83, 78
3, 268988, Note_on_c, 0, 77, 93
3, 268989, Note_on_c, 0, 78, 0
3, 269007, Note_on_c, 0, 83, 0
3, 269007, Note_on_c, 0, 82, 81
3, 269121, Note_on_c, 0, 77, 0
3, 269123, Note_on_c, 0, 81, 90
3, 269133, Note_on_c, 0, 76, 82
3, 269140, Note_on_c, 0, 82, 0
3, 269256, Note_on_c, 0, 81, 0
3, 269260, Note_on_c, 0, 75, 79
3, 269261, Note_on_c, 0, 80, 88
3, 269266, Note_on_c, 0, 76, 0
3, 269387, Note_on_c, 0, 74, 88
3, 269393, Note_on_c, 0, 75, 0
3, 269394, Note_on_c, 0, 80, 0
3, 269398, Note_on_c, 0, 79, 82
3, 269520, Note_on_c, 0, 74, 0
3, 269531, Note_on_c, 0, 79, 0
3, 269532, Note_on_c, 0, 78, 80
3, 269537, Note_on_c, 0, 73, 84
3, 269652, Note_on_c, 0, 78, 0
3, 269657, Note_on_c, 0, 73, 0
3, 274810, Note_on_c, 0, 82, 90
3, 274930, Note_on_c, 0, 82, 0
3, 275040, Note_on_c, 0, 87, 84
3, 275160, Note_on_c, 0, 87, 0
3, 275303, Note_on_c, 0, 82, 89
3, 275423, Note_on_c, 0, 82, 0
3, 275531, Note_on_c, 0, 87, 98
3, 275651, Note_on_c, 0, 87, 0
3, 275784, Note_on_c, 0, 89, 101
3, 275904, Note_on_c, 0, 89, 0
3, 276005, Note_on_c, 0, 92, 100
3, 276125, Note_on_c, 0, 92, 0
3, 276251, Note_on_c, 0, 91, 97
3, 276371, Note_on_c, 0, 91, 0
3, 276481, Note_on_c, 0, 89, 98
3, 276601, Note_on_c, 0, 89, 0
3, 276740, Note_on_c, 0, 87, 94
3, 276860, Note_on_c, 0, 87, 0
3, 276979, Note_on_c, 0, 82, 96
3, 277099, Note_on_c, 0, 82, 0
3, 278903, Note_on_c, 0, 87, 108
3, 279023, Note_on_c, 0, 87, 0
3, 279121, Note_on_c, 0, 92, 93
3, 279241, Note_on_c, 0, 92, 0
3, 279367, Note_on_c, 0, 91, 89
3, 279487, Note_on_c, 0, 91, 0
3, 279614, Note_on_c, 0, 89, 97
3, 279734, Note_on_c, 0, 89, 0
3, 279852, Note_on_c, 0, 87, 95
3, 279972, Note_on_c, 0, 87, 0
3, 280080, Note_on_c, 0, 82, 93
3, 280200, Note_on_c, 0, 82, 0
3, 280339, Note_on_c, 0, 84, 104
3, 280459, Note_on_c, 0, 84, 0
3, 280575, Note_on_c, 0, 87, 105
3, 280695, Note_on_c, 0, 87, 0
3, 280812, Note_on_c, 0, 85, 103
3, 280932, Note_on_c, 0, 85, 0
3, 281042, Note_on_c, 0, 82, 93
3, 281162, Note_on_c, 0, 82, 0
3, 281292, Note_on_c, 0, 82, 103
3, 281412, Note_on_c, 0, 82, 0
3, 281534, Note_on_c, 0, 82, 95
3, 281654, Note_on_c, 0, 82, 0
3, 284641, Note_on_c, 0, 66, 78
3, 284644, Note_on_c, 0, 71, 81
3, 284761, Note_on_c, 0, 66, 0
3, 284764, Note_on_c, 0, 71, 0
3, 284770, Note_on_c, 0, 63, 86
3, 284772, Note_on_c, 0, 69, 85
3, 284880, Note_on_c, 0, 71, 84
3, 284886, Note_on_c, 0, 66, 86
3, 284890, Note_on_c, 0, 63, 0
3, 284892, Note_on_c, 0, 69, 0
3, 285000, Note_on_c, 0, 71, 0
3, 285004, Note_on_c, 0, 63, 85
3, 285006, Note_on_c, 0, 66, 0
3, 285014, Note_on_c, 0, 69, 91
3, 285124, Note_on_c, 0, 63, 0
3, 285130, Note_on_c, 0, 66, 86
3, 285134, Note_on_c, 0, 69, 0
3, 285143, Note_on_c, 0, 71, 85
3, 285249, Note_on_c, 0, 69, 98
3, 285250, Note_on_c, 0, 66, 0
3, 285250, Note_on_c, 0, 63, 92
3, 285263, Note_on_c, 0, 71, 0
3, 285361, Note_on_c, 0, 71, 93
3, 285369, Note_on_c, 0, 69, 0
3, 285370, Note_on_c, 0, 63, 0
3, 285371, Note_on_c, 0, 66, 81
3, 285481, Note_on_c, 0, 71, 0
3, 285491, Note_on_c, 0, 66, 0
3, 285491, Note_on_c, 0, 69, 94
3, 285502, Note_on_c, 0, 63, 86
3, 285609, Note_on_c, 0, 66, 91
3, 285611, Note_on_c, 0, 69, 0
3, 285611, Note_on_c, 0, 71, 95
3, 285622, Note_on_c, 0, 63, 0
3, 285726, Note_on_c, 0, 69, 94
3, 285729, Note_on_c, 0, 66, 0
3, 285731, Note_on_c, 0, 71, 0
3, 285743, Note_on_c, 0, 63, 96
3, 285846, Note_on_c, 0, 69, 0
3, 285858, Note_on_c, 0, 71, 92
3, 285859, Note_on_c, 0, 66, 88
3, 285863, Note_on_c, 0, 63, 0
3, 285975, Note_on_c, 0, 63, 89
3, 285978, Note_on_c, 0, 71, 0
3, 285979, Note_on_c, 0, 66, 0
3, 285981, Note_on_c, 0, 69, 89
3, 286086, Note_on_c, 0, 71, 79
3, 286093, Note_on_c, 0, 66, 89
3, 286095, Note_on_c, 0, 63, 0
3, 286101, Note_on_c, 0, 69, 0
3, 286206, Note_on_c, 0, 71, 0
3, 286210, Note_on_c, 0, 63, 92
3, 286213, Note_on_c, 0, 66, 0
3, 286220, Note_on_c, 0, 69, 97
3, 286321, Note_on_c, 0, 71, 91
3, 286330, Note_on_c, 0, 63, 0
3, 286340, Note_on_c, 0, 69, 0
3, 286342, Note_on_c, 0, 66, 87
3, 286441, Note_on_c, 0, 71, 0
3, 286452, Note_on_c, 0, 69, 95
3, 286455, Note_on_c, 0, 63, 83
3, 286462, Note_on_c, 0, 66, 0
3, 286563, Note_on_c, 0, 66, 90
3, 286572, Note_on_c, 0, 69, 0
3, 286575, Note_on_c, 0, 63, 0
3, 286576, Note_on_c, 0, 71, 80
3, 286681, Note_on_c, 0, 63, 87
3, 286683, Note_on_c, 0, 66, 0
3, 286686, Note_on_c, 0, 69, 80
3, 286696, Note_on_c, 0, 71, 0
3, 286801, Note_on_c, 0, 63, 0
3, 286806, Note_on_c, 0, 69, 0
3, 286813, Note_on_c, 0, 71, 80
3, 286814, Note_on_c, 0, 66, 82
3, 286920, Note_on_c, 0, 69, 79
3, 286928, Note_on_c, 0, 63, 83
3, 286933, Note_on_c, 0, 71, 0
3, 286934, Note_on_c, 0, 66, 0
3, 287040, Note_on_c, 0, 69, 0
3, 287048, Note_on_c, 0, 63, 0
3, 287050, Note_on_c, 0, 71, 81
3, 287051, Note_on_c, 0, 66, 85
3, 287170, Note_on_c, 0, 71, 0
3, 287171, Note_on_c, 0, 66, 0
3, 287177, Note_on_c, 0, 63, 88
3, 287177, Note_on_c, 0, 69, 88
3, 287290, Note_on_c, 0, 71, 91
3, 287294, Note_on_c, 0, 66, 88
3, 287297, Note_on_c, 0, 63, 0
3, 287297, Note_on_c, 0, 69, 0
3, 287406, Note_on_c, 0, 69, 94
3, 287410, Note_on_c, 0, 71, 0
3, 287412, Note_on_c, 0, 63, 82
3, 287414, Note_on_c, 0, 66, 0
3, 287526, Note_on_c, 0, 69, 0
3, 287532, Note_on_c, 0, 63, 0
3, 287537, Note_on_c, 0, 71, 94
3, 287540, Note_on_c, 0, 66, 90
3, 287644, Note_on_c, 0, 63, 94
3, 287644, Note_on_c, 0, 69, 96
3, 287657, Note_on_c, 0, 71, 0
3, 287660, Note_on_c, 0, 66, 0
3, 287760, Note_on_c, 0, 71, 86
3, 287764, Note_on_c, 0, 63, 0
3, 287764, Note_on_c, 0, 69, 0
3, 287778, Note_on_c, 0, 66, 80
3, 287880, Note_on_c, 0, 71, 0
3, 287882, Note_on_c, 0, 63, 92
3, 287882, Note_on_c, 0, 69, 97
3, 287898, Note_on_c, 0, 66, 0
3, 288002, Note_on_c, 0, 63, 0
3, 288002, Note_on_c, 0, 69, 0
3, 288011, Note_on_c, 0, 66, 83
3, 288021, Note_on_c, 0, 71, 94
3, 288121, Note_on_c, 0, 63, 94
3, 288131, Note_on_c, 0, 66, 0
3, 288141, Note_on_c, 0, 71, 0
3, 288145, Note_on_c, 0, 69, 94
3, 288241, Note_on_c, 0, 63, 0
3, 288247, Note_on_c, 0, 66, 78
3, 288252, Note_on_c, 0, 71, 92
3, 288265, Note_on_c, 0, 69, 0
3, 288367, Note_on_c, 0, 66, 0
3, 288372, Note_on_c, 0, 71, 0
3, 288374, Note_on_c, 0, 69, 87
3, 288383, Note_on_c, 0, 63, 90
3, 288490, Note_on_c, 0, 71, 94
3, 288494, Note_on_c, 0, 69, 0
3, 288494, Note_on_c, 0, 66, 89
3, 288503, Note_on_c, 0, 63, 0
3, 288600, Note_on_c, 0, 63, 90
3, 288604, Note_on_c, 0, 69, 82
3, 288610, Note_on_c, 0, 71, 0
3, 288614, Note_on_c, 0, 66, 0
3, 288720, Note_on_c, 0, 63, 0
3, 288724, Note_on_c, 0, 69, 0
3, 288727, Note_on_c, 0, 66, 87
3, 288742, Note_on_c, 0, 71, 83
3, 288847, Note_on_c, 0, 66, 0
3, 288856, Note_on_c, 0, 69, 93
3, 288858, Note_on_c, 0, 63, 92
3, 288862, Note_on_c, 0, 71, 0
3, 288974, Note_on_c, 0, 72, 81
3, 288975, Note_on_c, 0, 67, 84
3, 288976, Note_on_c, 0, 69, 0
3, 288978, Note_on_c, 0, 63, 0
3, 289214, Note_on_c, 0, 72, 0
3, 289215, Note_on_c, 0, 67, 0
3, 294014, Note_on_c, 0, 87, 83
3, 294124, Note_on_c, 0, 87, 72
3, 294134, Note_on_c, 0, 87, 0
3, 294244, Note_on_c, 0, 87, 0
3, 294264, Note_on_c, 0, 87, 76
3, 294372, Note_on_c, 0, 87, 76
3, 294384, Note_on_c, 0, 87, 0
3, 294492, Note_on_c, 0, 87, 0
3, 294502, Note_on_c, 0, 87, 68
3, 294611, Note_on_c, 0, 87, 79
3, 294622, Note_on_c, 0, 87, 0
3, 294731, Note_on_c, 0, 87, 0
3, 294731, Note_on_c, 0, 87, 78
3, 294840, Note_on_c, 0, 87, 65
3, 294851, Note_on_c, 0, 87, 0
3, 294960, Note_on_c, 0, 87, 0
3, 294961, Note_on_c, 0, 87, 66
3, 295081, Note_on_c, 0, 87, 0
3, 295089, Note_on_c, 0, 87, 78
3, 295209, Note_on_c, 0, 87, 0
3, 295211, Note_on_c, 0, 87, 81
3, 295326, Note_on_c, 0, 87, 82
3, 295331, Note_on_c, 0, 87, 0
3, 295442, Note_on_c, 0, 87, 0
3, 295444, Note_on_c, 0, 87, 71
3, 295564, Note_on_c, 0, 87, 0
3, 295575, Note_on_c, 0, 87, 66
3, 295695, Note_on_c, 0, 87, 0
3, 295703, Note_on_c, 0, 87, 65
3, 295822, Note_on_c, 0, 87, 85
3, 295823, Note_on_c, 0, 87, 0
3, 295932, Note_on_c, 0, 87, 75
3, 295942, Note_on_c, 0, 87, 0
3, 296041, Note_on_c, 0, 87, 65
3, 296052, Note_on_c, 0, 87, 0
3, 296161, Note_on_c, 0, 87, 0
3, 296174, Note_on_c, 0, 87, 72
3, 296281, Note_on_c, 0, 87, 67
3, 296294, Note_on_c, 0, 87, 0
3, 296401, Note_on_c, 0, 87, 0
3, 296406, Note_on_c, 0, 87, 84
3, 296526, Note_on_c, 0, 87, 0
3, 296533, Note_on_c, 0, 87, 65
3, 296650, Note_on_c, 0, 87, 65
3, 296653, Note_on_c, 0, 87, 0
3, 296770, Note_on_c, 0, 87, 0
3, 296781, Note_on_c, 0, 87, 73
3, 296896, Note_on_c, 0, 87, 84
3, 296897, Note_on_c, 0, 87, 0
3, 297008, Note_on_c, 0, 87, 81
3, 297016, Note_on_c, 0, 87, 0
3, 297128, Note_on_c, 0, 87, 0
3, 297137, Note_on_c, 0, 87, 81
3, 297255, Note_on_c, 0, 87, 69
3, 297257, Note_on_c, 0, 87, 0
3, 297375, Note_on_c, 0, 87, 0
3, 297381, Note_on_c, 0, 87, 75
3, 297501, Note_on_c, 0, 87, 0
3, 297505, Note_on_c, 0, 87, 65
3, 297611, Note_on_c, 0, 87, 76
3, 297625, Note_on_c, 0, 87, 0
3, 297720, Note_on_c, 0, 87, 65
3, 297731, Note_on_c, 0, 87, 0
3, 297840, Note_on_c, 0, 87, 0
3, 297849, Note_on_c, 0, 87, 68
3, 297967, Note_on_c, 0, 87, 73
3, 297969, Note_on_c, 0, 87, 0
3, 298087, Note_on_c, 0, 87, 0
3, 298093, Note_on_c, 0, 87, 78
3, 298213, Note_on_c, 0, 87, 0
3, 298222, Note_on_c, 0, 87, 67
3, 298336, Note_on_c, 0, 87, 72
3, 298338, Note_on_c, 0, 87, 0
3, 298456, Note_on_c, 0, 87, 0
3, 298458, Note_on_c, 0, 87, 74
3, 298575, Note_on_c, 0, 87, 85
3, 298578, Note_on_c, 0, 87, 0
3, 298695, Note_on_c, 0, 87, 0
3, 298700, Note_on_c, 0, 87, 74
3, 298820, Note_on_c, 0, 87, 0
3, 298824, Note_on_c, 0, 87, 66
3, 298944, Note_on_c, 0, 87, 0
3, 298945, Note_on_c, 0, 87, 72
3, 299059, Note_on_c, 0, 87, 73
3, 299065, Note_on_c, 0, 87, 0
3, 299165, Note_on_c, 0, 87, 80
3, 299179, Note_on_c, 0, 87, 0
3, 299285, Note_on_c, 0, 87, 0
3, 299294, Note_on_c, 0, 87, 83
3, 299407, Note_on_c, 0, 87, 65
3, 299414, Note_on_c, 0, 87, 0
3, 299527, Note_on_c, 0, 87, 0
3, 299529, Note_on_c, 0, 87, 81
3, 299649, Note_on_c, 0, 87, 0
3, 299656, Note_on_c, 0, 87, 69
3, 299769, Note_on_c, 0, 87, 75
3, 299772, Note_on_c, 0, 87, 0
3, 299881, Note_on_c, 0, 87, 70
3, 299889, Note_on_c, 0, 87, 0
3, 300001, Note_on_c, 0, 87, 0
3, 300017, Note_on_c, 0, 87, 69
3, 300125, Note_on_c, 0, 87, 80
3, 300137, Note_on_c, 0, 87, 0
3, 300245, Note_on_c, 0, 87, 0
3, 300261, Note_on_c, 0, 87, 80
3, 300381, Note_on_c, 0, 87, 0
3, 300383, Note_on_c, 0, 87, 81
3, 300487, Note_on_c, 0, 87, 71
3, 300503, Note_on_c, 0, 87, 0
3, 300605, Note_on_c, 0, 87, 76
3, 300607, Note_on_c, 0, 87, 0
3, 300725, Note_on_c, 0, 87, 0
3, 300726, Note_on_c, 0, 87, 84
3, 300846, Note_on_c, 0, 87, 0
3, 300865, Note_on_c, 0, 87, 83
3, 300961, Note_on_c, 0, 87, 70
3, 300985, Note_on_c, 0, 87, 0
3, 301081, Note_on_c, 0, 87, 0
3, 301102, Note_on_c, 0, 87, 85
3, 301218, Note_on_c, 0, 87, 0
3, 301218, Note_on_c, 0, 87, 69
3, 301330, Note_on_c, 0, 87, 69
3, 301338, Note_on_c, 0, 87, 0
3, 301443, Note_on_c, 0, 87, 75
3, 301450, Note_on_c, 0, 87, 0
3, 301563, Note_on_c, 0, 87, 0
3, 301573, Note_on_c, 0, 87, 81
3, 301686, Note_on_c, 0, 87, 73
3, 301693, Note_on_c, 0, 87, 0
3, 301806, Note_on_c, 0, 87, 0
3, 301818, Note_on_c, 0, 87, 74
3, 301929, Note_on_c, 0, 87, 73
3, 301938, Note_on_c, 0, 87, 0
3, 302049, Note_on_c, 0, 87, 0
3, 302058, Note_on_c, 0, 87, 71
3, 302178, Note_on_c, 0, 87, 0
3, 302178, Note_on_c, 0, 87, 67
3, 302292, Note_on_c, 0, 87, 72
3, 302298, Note_on_c, 0, 87, 0
3, 302405, Note_on_c, 0, 87, 85
3, 302412, Note_on_c, 0, 87, 0
3, 302525, Note_on_c, 0, 87, 0
3, 302527, Note_on_c, 0, 87, 73
3, 302642, Note_on_c, 0, 94, 107
3, 302643, Note_on_c, 0, 87, 0
3, 302762, Note_on_c, 0, 94, 0
3, 302891, Note_on_c, 0, 92, 96
3, 303011, Note_on_c, 0, 92, 0
3, 303135, Note_on_c, 0, 94, 103
3, 303255, Note_on_c, 0, 94, 0
3, 303368, Note_on_c, 0, 92, 97
3, 303488, Note_on_c, 0, 92, 0
3, 303611, Note_on_c, 0, 90, 106
3, 303731, Note_on_c, 0, 90, 0
3, 303863, Note_on_c, 0, 89, 107
3, 303983, Note_on_c, 0, 89, 0
3, 304099, Note_on_c, 0, 94, 103
3, 304219, Note_on_c, 0, 94, 0
3, 304326, Note_on_c, 0, 92, 97
3, 304446, Note_on_c, 0, 92, 0
3, 304571, Note_on_c, 0, 94, 96
3, 304691, Note_on_c, 0, 94, 0
3, 304809, Note_on_c, 0, 92, 95
3, 304929, Note_on_c, 0, 92, 0
3, 305058, Note_on_c, 0, 90, 106
3, 305178, Note_on_c, 0, 90, 0
3, 305301, Note_on_c, 0, 89, 101
3, 305421, Note_on_c, 0, 89, 0
3, 305529, Note_on_c, 0, 94, 92
3, 305649, Note_on_c, 0, 94, 0
3, 305760, Note_on_c, 0, 92, 94
3, 305880, Note_on_c, 0, 92, 0
3, 306013, Note_on_c, 0, 94, 104
3, 306133, Note_on_c, 0, 94, 0
3, 306261, Note_on_c, 0, 92, 97
3, 306381, Note_on_c, 0, 92, 0
3, 306483, Note_on_c, 0, 90, 95
3, 306603, Note_on_c, 0, 90, 0
3, 306736, Note_on_c, 0, 89, 103
3, 306856, Note_on_c, 0, 89, 0
3, 306960, Note_on_c, 0, 90, 103
3, 307080, Note_on_c, 0, 90, 0
3, 307206, Note_on_c, 0, 87, 93
3, 307326, Note_on_c, 0, 87, 0
3, 307458, Note_on_c, 0, 87, 102
3, 307578, Note_on_c, 0, 87, 0
3, 307680, Note_on_c, 0, 87, 100
3, 307800, Note_on_c, 0, 87, 0
3, 307934, Note_on_c, 0, 89, 93
3, 308054, Note_on_c, 0, 89, 0
3, 308179, Note_on_c, 0, 90, 108
3, 308299, Note_on_c, 0, 90, 0
3, 308407, Note_on_c, 0, 92, 91
3, 308527, Note_on_c, 0, 92, 0
3, 308653, Note_on_c, 0, 94, 103
3, 308773, Note_on_c, 0, 94, 0
3, 308897, Note_on_c, 0, 92, 93
3, 309017, Note_on_c, 0, 92, 0
3, 309135, Note_on_c, 0, 94, 109
3, 309255, Note_on_c, 0, 94, 0
3, 309370, Note_on_c, 0, 92, 99
3, 309490, Note_on_c, 0, 92, 0
3, 309623, Note_on_c, 0, 90, 106
3, 309743, Note_on_c, 0, 90, 0
3, 309865, Note_on_c, 0, 89, 106
3, 309985, Note_on_c, 0, 89, 0
3, 310102, Note_on_c, 0, 87, 98
3, 310222, Note_on_c, 0, 87, 0
3, 310337, Note_on_c, 0, 89, 91
3, 310457, Note_on_c, 0, 89, 0
3, 310572, Note_on_c, 0, 90, 101
3, 310692, Note_on_c, 0, 90, 0
3, 310801, Note_on_c, 0, 92, 93
3, 310921, Note_on_c, 0, 92, 0
3, 311052, Note_on_c, 0, 93, 92
3, 311172, Note_on_c, 0, 93, 0
3, 311290, Note_on_c, 0, 91, 102
3, 311410, Note_on_c, 0, 91, 0
3, 311520, Note_on_c, 0, 93, 108
3, 311640, Note_on_c, 0, 93, 0
3, 311779, Note_on_c, 0, 91, 94
3, 311899, Note_on_c, 0, 91, 0
3, 312025, Note_on_c, 0, 89, 91
3, 312145, Note_on_c, 0, 89, 0
3, 312243, Note_on_c, 0, 88, 108
3, 312363, Note_on_c, 0, 88, 0
3, 312497, Note_on_c, 0, 86, 109
3, 312617, Note_on_c, 0, 86, 0
3, 312720, Note_on_c, 0, 86, 100
3, 312840, Note_on_c, 0, 86, 0
3, 312965, Note_on_c, 0, 86, 110
3, 313085, Note_on_c, 0, 86, 0
3, 313222, Note_on_c, 0, 88, 91
3, 313342, Note_on_c, 0, 88, 0
3, 313465, Note_on_c, 0, 89, 93
3, 313585, Note_on_c, 0, 89, 0
3, 313681, Note_on_c, 0, 91, 96
3, 313801, Note_on_c, 0, 91, 0
3, 324600, Note_on_c, 0, 72, 100
3, 324630, Note_on_c, 0, 72, 0
3, 324630, Note_on_c, 0, 75, 107
3, 324660, Note_on_c, 0, 75, 0
3, 324660, Note_on_c, 0, 78, 101
3, 324690, Note_on_c, 0, 78, 0
3, 324690, Note_on_c, 0, 80, 109
3, 324720, Note_on_c, 0, 80, 0
3, 324743, Note_on_c, 0, 96, 105
3, 324923, Note_on_c, 0, 96, 0
3, 324974, Note_on_c, 0, 96, 111
3, 325154, Note_on_c, 0, 96, 0
3, 325221, Note_on_c, 0, 96, 105
3, 325401, Note_on_c, 0, 96, 0
3, 325444, Note_on_c, 0, 89, 104
3, 325624, Note_on_c, 0, 89, 0
3, 325693, Note_on_c, 0, 89, 122
3, 325873, Note_on_c, 0, 89, 0
3, 325931, Note_on_c, 0, 89, 116
3, 326111, Note_on_c, 0, 89, 0
3, 326185, Note_on_c, 0, 90, 122
3, 326365, Note_on_c, 0, 90, 0
3, 326419, Note_on_c, 0, 90, 111
3, 326599, Note_on_c, 0, 90, 0
3, 326657, Note_on_c, 0, 90, 113
3, 326837, Note_on_c, 0, 90, 0
3, 326881, Note_on_c, 0, 83, 111
3, 326883, Note_on_c, 0, 87, 108
3, 326892, Note_on_c, 0, 87, 112
3, 327061, Note_on_c, 0, 83, 0
3, 327072, Note_on_c, 0, 87, 0
3, 327139, Note_on_c, 0, 87, 104
3, 327143, Note_on_c, 0, 83, 116
3, 327303, Note_on_c, 0, 87, 0
3, 327323, Note_on_c, 0, 83, 0
3, 327362, Note_on_c, 0, 83, 118
3, 327372, Note_on_c, 0, 87, 112
3, 327542, Note_on_c, 0, 83, 0
3, 327552, Note_on_c, 0, 87, 0
3, 327559, Note_on_c, 0, 87, 0
3, 327600, Note_on_c, 0, 89, 121
3, 327610, Note_on_c, 0, 82, 106
3, 327622, Note_on_c, 0, 89, 121
3, 327780, Note_on_c, 0, 89, 0
3, 327790, Note_on_c, 0, 82, 0
3, 327843, Note_on_c, 0, 89, 111
3, 327858, Note_on_c, 0, 82, 119
3, 328038, Note_on_c, 0, 82, 0
3, 328042, Note_on_c, 0, 89, 0
3, 328102, Note_on_c, 0, 89, 115
3, 328104, Note_on_c, 0, 82, 118
3, 328263, Note_on_c, 0, 89, 0
3, 328282, Note_on_c, 0, 89, 0
3, 328284, Note_on_c, 0, 82, 0
3, 328329, Note_on_c, 0, 79, 121
3, 328339, Note_on_c, 0, 86, 112
3, 328345, Note_on_c, 0, 86, 122
3, 328509, Note_on_c, 0, 79, 0
3, 328525, Note_on_c, 0, 86, 0
3, 328572, Note_on_c, 0, 86, 123
3, 328576, Note_on_c, 0, 79, 112
3, 328756, Note_on_c, 0, 79, 0
3, 328759, Note_on_c, 0, 86, 0
3, 328800, Note_on_c, 0, 86, 109
3, 328812, Note_on_c, 0, 79, 122
3, 328980, Note_on_c, 0, 86, 0
3, 328992, Note_on_c, 0, 86, 0
3, 328992, Note_on_c, 0, 79, 0
3, 329053, Note_on_c, 0, 83, 115
3, 329056, Note_on_c, 0, 76, 122
3, 329061, Note_on_c, 0, 83, 124
3, 329236, Note_on_c, 0, 76, 0
3, 329241, Note_on_c, 0, 83, 0
3, 329291, Note_on_c, 0, 83, 113
3, 329293, Note_on_c, 0, 76, 106
3, 329473, Note_on_c, 0, 83, 0
3, 329473, Note_on_c, 0, 76, 0
3, 329524, Note_on_c, 0, 76, 104
3, 329534, Note_on_c, 0, 83, 122
3, 329704, Note_on_c, 0, 76, 0
3, 329711, Note_on_c, 0, 83, 0
3, 329714, Note_on_c, 0, 83, 0
3, 329764, Note_on_c, 0, 80, 105
3, 329776, Note_on_c, 0, 80, 107
3, 329777, Note_on_c, 0, 73, 118
3, 329956, Note_on_c, 0, 80, 0
3, 329957, Note_on_c, 0, 73, 0
3, 330002, Note_on_c, 0, 80, 115
3, 330017, Note_on_c, 0, 73, 118
3, 330184, Note_on_c, 0, 80, 0
3, 330197, Note_on_c, 0, 73, 0
3, 330255, Note_on_c, 0, 73, 119
3, 330255, Note_on_c, 0, 80, 109
3, 330422, Note_on_c, 0, 80, 0
3, 330435, Note_on_c, 0, 73, 0
3, 330435, Note_on_c, 0, 80, 0
3, 330489, Note_on_c, 0, 70, 113
3, 330493, Note_on_c, 0, 77, 118
3, 330502, Note_on_c, 0, 77, 108
3, 330669, Note_on_c, 0, 70, 0
3, 330682, Note_on_c, 0, 77, 0
3, 330725, Note_on_c, 0, 70, 123
3, 330745, Note_on_c, 0, 77, 106
3, 330905, Note_on_c, 0, 70, 0
3, 330913, Note_on_c, 0, 77, 0
3, 330974, Note_on_c, 0, 77, 108
3, 330982, Note_on_c, 0, 70, 104
3, 331154, Note_on_c, 0, 77, 0
3, 331162, Note_on_c, 0, 70, 0
3, 331165, Note_on_c, 0, 77, 0
3, 331935, Note_on_c, 0, 77, 79
3, 332055, Note_on_c, 0, 77, 0
3, 332184, Note_on_c, 0, 82, 81
3, 332304, Note_on_c, 0, 82, 0
3, 332404, Note_on_c, 0, 77, 90
3, 332524, Note_on_c, 0, 77, 0
3, 332645, Note_on_c, 0, 82, 98
3, 332765, Note_on_c, 0, 82, 0
3, 332885, Note_on_c, 0, 84, 98
3, 333005, Note_on_c, 0, 84, 0
3, 333138, Note_on_c, 0, 87, 78
3, 333258, Note_on_c, 0, 87, 0
3, 333384, Note_on_c, 0, 86, 93
3, 333504, Note_on_c, 0, 86, 0
3, 333618, Note_on_c, 0, 84, 94
3, 333738, Note_on_c, 0, 84, 0
3, 333843, Note_on_c, 0, 82, 83
3, 333963, Note_on_c, 0, 82, 0
3, 334088, Note_on_c, 0, 77, 80
3, 334208, Note_on_c, 0, 77, 0
3, 335040, Note_on_c, 0, 82, 78
3, 335160, Note_on_c, 0, 82, 0
3, 335303, Note_on_c, 0, 77, 83
3, 335423, Note_on_c, 0, 77, 0
3, 335523, Note_on_c, 0, 82, 82
3, 335643, Note_on_c, 0, 82, 0
3, 335769, Note_on_c, 0, 84, 83
3, 335889, Note_on_c, 0, 84, 0
3, 336002, Note_on_c, 0, 87, 94
3, 336122, Note_on_c, 0, 87, 0
3, 336250, Note_on_c, 0, 86, 92
3, 336370, Note_on_c, 0, 86, 0
3, 336488, Note_on_c, 0, 84, 92
3, 336608, Note_on_c, 0, 84, 0
3, 336737, Note_on_c, 0, 82, 92
3, 336857, Note_on_c, 0, 82, 0
3, 336977, Note_on_c, 0, 77, 91
3, 337097, Note_on_c, 0, 77, 0
3, 337212, Note_on_c, 0, 82, 90
3, 337332, Note_on_c, 0, 82, 0
3, 337455, Note_on_c, 0, 87, 95
3, 337575, Note_on_c, 0, 87, 0
3, 337701, Note_on_c, 0, 86, 92
3, 337821, Note_on_c, 0, 86, 0
3, 337942, Note_on_c, 0, 84, 84
3, 338062, Note_on_c, 0, 84, 0
3, 338164, Note_on_c, 0, 82, 81
3, 338284, Note_on_c, 0, 82, 0
3, 338401, Note_on_c, 0, 77, 88
3, 338521, Note_on_c, 0, 77, 0
3, 338644, Note_on_c, 0, 79, 93
3, 338764, Note_on_c, 0, 79, 0
3, 338890, Note_on_c, 0, 82, 83
3, 339010, Note_on_c, 0, 82, 0
3, 339128, Note_on_c, 0, 80, 87
3, 339248, Note_on_c, 0, 80, 0
3, 339384, Note_on_c, 0, 77, 81
3, 339504, Note_on_c, 0, 77, 0
3, 339621, Note_on_c, 0, 77, 91
3, 339741, Note_on_c, 0, 77, 0
3, 358080, Note_on_c, 0, 87, 27
3, 358140, Note_on_c, 0, 89, 30
3, 358170, Note_on_c, 0, 87, 0
3, 358200, Note_on_c, 0, 87, 19
3, 358230, Note_on_c, 0, 89, 0
3, 358260, Note_on_c, 0, 89, 26
3, 358290, Note_on_c, 0, 87, 0
3, 358320, Note_on_c, 0, 87, 25
3, 358350, Note_on_c, 0, 89, 0
3, 358380, Note_on_c, 0, 89, 21
3, 358410, Note_on_c, 0, 87, 0
3, 358440, Note_on_c, 0, 87, 29
3, 358470, Note_on_c, 0, 89, 0
3, 358500, Note_on_c, 0, 89, 24
3, 358530, Note_on_c, 0, 87, 0
3, 358560, Note_on_c, 0, 87, 24
3, 358590, Note_on_c, 0, 89, 0
3, 358620, Note_on_c, 0, 89, 29
3, 358650, Note_on_c, 0, 87, 0
3, 358680, Note_on_c, 0, 87, 26
3, 358710, Note_on_c, 0, 89, 0
3, 358740, Note_on_c, 0, 89, 39
3, 358770, Note_on_c, 0, 87, 0
3, 358800, Note_on_c, 0, 87, 30
3, 358830, Note_on_c, 0, 89, 0
3, 358860, Note_on_c, 0, 89, 22
3, 358890, Note_on_c, 0, 87, 0
3, 358920, Note_on_c, 0, 87, 23
3, 358950, Note_on_c, 0, 89, 0
3, 358980, Note_on_c, 0, 89, 26
3, 359010, Note_on_c, 0, 87, 0
3, 359040, Note_on_c, 0, 87, 20
3, 359070, Note_on_c, 0, 89, 0
3, 359100, Note_on_c, 0, 89, 30
3, 359130, Note_on_c, 0, 87, 0
3, 359160, Note_on_c, 0, 87, 28
3, 359190, Note_on_c, 0, 89, 0
3, 359220, Note_on_c, 0, 89, 31
3, 359250, Note_on_c, 0, 87, 0
3, 359280, Note_on_c, 0, 87, 32
3, 359310, Note_on_c, 0, 89, 0
3, 359340, Note_on_c, 0, 89, 31
3, 359370, Note_on_c, 0, 87, 0
3, 359400, Note_on_c, 0, 87, 28
3, 359430, Note_on_c, 0, 89, 0
3, 359460, Note_on_c, 0, 89, 33
3, 359490, Note_on_c, 0, 87, 0
3, 359520, Note_on_c, 0, 87, 19
3, 359550, Note_on_c, 0, 89, 0
3, 359580, Note_on_c, 0, 89, 38
3, 359610, Note_on_c, 0, 87, 0
3, 359640, Note_on_c, 0, 87, 38
3, 359670, Note_on_c, 0, 89, 0
3, 359700, Note_on_c, 0, 89, 23
3, 359730, Note_on_c, 0, 87, 0
3, 359760, Note_on_c, 0, 87, 24
3, 359790, Note_on_c, 0, 89, 0
3, 359820, Note_on_c, 0, 89, 37
3, 359850, Note_on_c, 0, 87, 0
3, 359880, Note_on_c, 0, 87, 26
3, 359910, Note_on_c, 0, 89, 0
3, 359940, Note_on_c, 0, 89, 23
3, 359970, Note_on_c, 0, 87, 0
3, 360000, Note_on_c, 0, 87, 23
3, 360030, Note_on_c, 0, 89, 0
3, 360060, Note_on_c, 0, 89, 22
3, 360090, Note_on_c, 0, 87, 0
3, 360120, Note_on_c, 0, 87, 34
3, 360150, Note_on_c, 0, 89, 0
3, 360180, Note_on_c, 0, 89, 38
3, 360210, Note_on_c, 0, 87, 0
3, 360240, Note_on_c, 0, 87, 27
3, 360270, Note_on_c, 0, 89, 0
3, 360300, Note_on_c, 0, 89, 38
3, 360330, Note_on_c, 0, 87, 0
3, 360360, Note_on_c, 0, 87, 26
3, 360390, Note_on_c, 0, 89, 0
3, 360420, Note_on_c, 0, 89, 32
3, 360450, Note_on_c, 0, 87, 0
3, 360480, Note_on_c, 0, 87, 23
3, 360510, Note_on_c, 0, 89, 0
3, 360540, Note_on_c, 0, 89, 36
3, 360570, Note_on_c, 0, 87, 0
3, 360600, Note_on_c, 0, 87, 38
3, 360630, Note_on_c, 0, 89, 0
3, 360660, Note_on_c, 0, 89, 29
3, 360690, Note_on_c, 0, 87, 0
3, 360720, Note_on_c, 0, 87, 21
3, 360750, Note_on_c, 0, 89, 0
3, 360780, Note_on_c, 0, 89, 34
3, 360810, Note_on_c, 0, 87, 0
3, 360840, Note_on_c, 0, 87, 28
3, 360870, Note_on_c, 0, 89, 0
3, 360900, Note_on_c, 0, 89, 39
3, 360930, Note_on_c, 0, 87, 0
3, 360960, Note_on_c, 0, 87, 29
3, 360990, Note_on_c, 0, 89, 0
3, 361020, Note_on_c, 0, 89, 21
3, 361050, Note_on_c, 0, 87, 0
3, 361080, Note_on_c, 0, 87, 33
3, 361110, Note_on_c, 0, 89, 0
3, 361140, Note_on_c, 0, 89, 24
3, 361170, Note_on_c, 0, 87, 0
3, 361200, Note_on_c, 0, 87, 30
3, 361230, Note_on_c, 0, 89, 0
3, 361260, Note_on_c, 0, 89, 20
3, 361290, Note_on_c, 0, 87, 0
3, 361320, Note_on_c, 0, 87, 20
3, 361350, Note_on_c, 0, 89, 0
3, 361380, Note_on_c, 0, 89, 29
3, 361410, Note_on_c, 0, 87, 0
3, 361440, Note_on_c, 0, 87, 31
3, 361470, Note_on_c, 0, 89, 0
3, 361500, Note_on_c, 0, 89, 31
3, 361530, Note_on_c, 0, 87, 0
3, 361560, Note_on_c, 0, 87, 20
3, 361590, Note_on_c, 0, 89, 0
3, 361620, Note_on_c, 0, 89, 38
3, 361650, Note_on_c, 0, 87, 0
3, 361680, Note_on_c, 0, 87, 27
3, 361710, Note_on_c, 0, 89, 0
3, 361740, Note_on_c, 0, 89, 36
3, 361770, Note_on_c, 0, 87, 0
3, 361800, Note_on_c, 0, 87, 33
3, 361830, Note_on_c, 0, 89, 0
3, 361860, Note_on_c, 0, 89, 33
3, 361890, Note_on_c, 0, 87, 0
3, 361920, Note_on_c, 0, 87, 26
3, 361950, Note_on_c, 0, 89, 0
3, 361980, Note_on_c, 0, 89, 39
3, 362010, Note_on_c, 0, 87, 0
3, 362040, Note_on_c, 0, 87, 36
3, 362070, Note_on_c, 0, 89, 0
3, 362100, Note_on_c, 0, 89, 38
3, 362130, Note_on_c, 0, 87, 0
3, 362160, Note_on_c, 0, 87, 38
3, 362190, Note_on_c, 0, 89, 0
3, 362220, Note_on_c, 0, 89, 35
3, 362250, Note_on_c, 0, 87, 0
3, 362280, Note_on_c, 0, 87, 39
3, 362310, Note_on_c, 0, 89, 0
3, 362340, Note_on_c, 0, 89, 25
3, 362370, Note_on_c, 0, 87, 0
3, 362400, Note_on_c, 0, 87, 37
3, 362430, Note_on_c, 0, 89, 0
3, 362460, Note_on_c, 0, 89, 25
3, 362490, Note_on_c, 0, 87, 0
3, 362520, Note_on_c, 0, 87, 25
3, 362550, Note_on_c, 0, 89, 0
3, 362580, Note_on_c, 0, 89, 33
3, 362610, Note_on_c, 0, 87, 0
3, 362640, Note_on_c, 0, 87, 21
3, 362670, Note_on_c, 0, 89, 0
3, 362700, Note_on_c, 0, 89, 21
3, 362730, Note_on_c, 0, 87, 0
3, 362760, Note_on_c, 0, 87, 31
3, 362790, Note_on_c, 0, 89, 0
3, 362820, Note_on_c, 0, 89, 39
3, 362850, Note_on_c, 0, 87, 0
3, 362880, Note_on_c, 0, 87, 38
3, 362910, Note_on_c, 0, 89, 0
3, 362940, Note_on_c, 0, 89, 37
3, 362970, Note_on_c, 0, 87, 0
3, 363000, Note_on_c, 0, 87, 29
3, 363030, Note_on_c, 0, 89, 0
3, 363060, Note_on_c, 0, 89, 27
3, 363090, Note_on_c, 0, 87, 0
3, 363120, Note_on_c, 0, 87, 20
3, 363150, Note_on_c, 0, 89, 0
3, 363180, Note_on_c, 0, 89, 28
3, 363210, Note_on_c, 0, 87, 0
3, 363240, Note_on_c, 0, 87, 33
3, 363270, Note_on_c, 0, 89, 0
3, 363300, Note_on_c, 0, 89, 34
3, 363330, Note_on_c, 0, 87, 0
3, 363360, Note_on_c, 0, 87, 23
3, 363390, Note_on_c, 0, 89, 0
3, 363420, Note_on_c, 0, 89, 30
3, 363450, Note_on_c, 0, 87, 0
3, 363480, Note_on_c, 0, 87, 38
3, 363510, Note_on_c, 0, 89, 0
3, 363540, Note_on_c, 0, 89, 24
3, 363570, Note_on_c, 0, 87, 0
3, 363600, Note_on_c, 0, 87, 34
3, 363630, Note_on_c, 0, 89, 0
3, 363660, Note_on_c, 0, 89, 34
3, 363690, Note_on_c, 0, 87, 0
3, 363720, Note_on_c, 0, 87, 31
3, 363750, Note_on_c, 0, 89, 0
3, 363780, Note_on_c, 0, 89, 27
3, 363810, Note_on_c, 0, 87, 0
3, 363840, Note_on_c, 0, 87, 34
3, 363870, Note_on_c, 0, 89, 0
3, 363900, Note_on_c, 0, 89, 28
3, 363930, Note_on_c, 0, 87, 0
3, 363960, Note_on_c, 0, 87, 37
3, 363990, Note_on_c, 0, 89, 0
3, 364020, Note_on_c, 0, 89, 34
3, 364050, Note_on_c, 0, 87, 0
3, 364080, Note_on_c, 0, 87, 26
3, 364110, Note_on_c, 0, 89, 0
3, 364140, Note_on_c, 0, 89, 34
3, 364170, Note_on_c, 0, 87, 0
3, 364200, Note_on_c, 0, 87, 29
3, 364230, Note_on_c, 0, 89, 0
3, 364260, Note_on_c, 0, 89, 23
3, 364290, Note_on_c, 0, 87, 0
3, 364320, Note_on_c, 0, 87, 19
3, 364350, Note_on_c, 0, 89, 0
3, 364380, Note_on_c, 0, 89, 35
3, 364410, Note_on_c, 0, 87, 0
3, 364440, Note_on_c, 0, 87, 38
3, 364470, Note_on_c, 0, 89, 0
3, 364500, Note_on_c, 0, 89, 27
3, 364530, Note_on_c, 0, 87, 0
3, 364560, Note_on_c, 0, 87, 23
3, 364590, Note_on_c, 0, 89, 0
3, 364620, Note_on_c, 0, 89, 22
3, 364650, Note_on_c, 0, 87, 0
3, 364680, Note_on_c, 0, 87, 22
3, 364710, Note_on_c, 0, 89, 0
3, 364740, Note_on_c, 0, 89, 37
3, 364770, Note_on_c, 0, 87, 0
3, 364800, Note_on_c, 0, 87, 28
3, 364830, Note_on_c, 0, 89, 0
3, 364860, Note_on_c, 0, 89, 31
3, 364890, Note_on_c, 0, 87, 0
3, 364920, Note_on_c, 0, 87, 25
3, 364950, Note_on_c, 0, 89, 0
3, 364980, Note_on_c, 0, 89, 39
3, 365010, Note_on_c, 0, 87, 0
3, 365040, Note_on_c, 0, 87, 20
3, 365070, Note_on_c, 0, 89, 0
3, 365100, Note_on_c, 0, 89, 32
3, 365130, Note_on_c, 0, 87, 0
3, 365160, Note_on_c, 0, 87, 22
3, 365190, Note_on_c, 0, 89, 0
3, 365220, Note_on_c, 0, 89, 33
3, 365250, Note_on_c, 0, 87, 0
3, 365280, Note_on_c, 0, 87, 20
3, 365310, Note_on_c, 0, 89, 0
3, 365340, Note_on_c, 0, 89, 20
3, 365370, Note_on_c, 0, 87, 0
3, 365400, Note_on_c, 0, 87, 26
3, 365430, Note_on_c, 0, 89, 0
3, 365460, Note_on_c, 0, 89, 19
3, 365490, Note_on_c, 0, 87, 0
3, 365520, Note_on_c, 0, 87, 20
3, 365550, Note_on_c, 0, 89, 0
3, 365580, Note_on_c, 0, 89, 27
3, 365610, Note_on_c, 0, 87, 0
3, 365640, Note_on_c, 0, 87, 31
3, 365670, Note_on_c, 0, 89, 0
3, 365700, Note_on_c, 0, 89, 27
3, 365730, Note_on_c, 0, 87, 0
3, 365760, Note_on_c, 0, 87, 36
3, 365790, Note_on_c, 0, 89, 0
3, 365820, Note_on_c, 0, 89, 28
3, 365850, Note_on_c, 0, 87, 0
3, 365880, Note_on_c, 0, 87, 27
3, 365910, Note_on_c, 0, 89, 0
3, 365940, Note_on_c, 0, 89, 23
3, 365970, Note_on_c, 0, 87, 0
3, 366000, Note_on_c, 0, 87, 38
3, 366030, Note_on_c, 0, 89, 0
3, 366060, Note_on_c, 0, 89, 37
3, 366090, Note_on_c, 0, 87, 0
3, 366120, Note_on_c, 0, 87, 28
3, 366150, Note_on_c, 0, 89, 0
3, 366180, Note_on_c, 0, 89, 38
3, 366210, Note_on_c, 0, 87, 0
3, 366240, Note_on_c, 0, 87, 39
3, 366270, Note_on_c, 0, 89, 0
3, 366300, Note_on_c, 0, 89, 34
3, 366330, Note_on_c, 0, 87, 0
3, 366360, Note_on_c, 0, 87, 39
3, 366390, Note_on_c, 0, 89, 0
3, 366420, Note_on_c, 0, 89, 22
3, 366450, Note_on_c, 0, 87, 0
3, 366480, Note_on_c, 0, 87, 27
3, 366510, Note_on_c, 0, 89, 0
3, 366540, Note_on_c, 0, 89, 35
3, 366570, Note_on_c, 0, 87, 0
3, 366600, Note_on_c, 0, 87, 24
3, 366630, Note_on_c, 0, 89, 0
3, 366660, Note_on_c, 0, 89, 29
3, 366690, Note_on_c, 0, 87, 0
3, 366720, Note_on_c, 0, 87, 37
3, 366750, Note_on_c, 0, 89, 0
3, 366780, Note_on_c, 0, 89, 28
3, 366810, Note_on_c, 0, 87, 0
3, 366840, Note_on_c, 0, 87, 27
3, 366870, Note_on_c, 0, 89, 0
3, 366900, Note_on_c, 0, 89, 29
3, 366930, Note_on_c, 0, 87, 0
3, 366960, Note_on_c, 0, 87, 26
3, 366990, Note_on_c, 0, 89, 0
3, 367020, Note_on_c, 0, 89, 34
3, 367050, Note_on_c, 0, 87, 0
3, 367080, Note_on_c, 0, 87, 25
3, 367110, Note_on_c, 0, 89, 0
3, 367140, Note_on_c, 0, 89, 26
3, 367170, Note_on_c, 0, 87, 0
3, 367200, Note_on_c, 0, 87, 21
3, 367230, Note_on_c, 0, 89, 0
3, 367260, Note_on_c, 0, 89, 24
3, 367290, Note_on_c, 0, 87, 0
3, 367320, Note_on_c, 0, 87, 33
3, 367350, Note_on_c, 0, 89, 0
3, 367380, Note_on_c, 0, 89, 39
3, 367410, Note_on_c, 0, 87, 0
3, 367440, Note_on_c, 0, 87, 39
3, 367470, Note_on_c, 0, 89, 0
3, 367500, Note_on_c, 0, 89, 31
3, 367530, Note_on_c, 0, 87, 0
3, 367560, Note_on_c, 0, 87, 28
3, 367590, Note_on_c, 0, 89, 0
3, 367620, Note_on_c, 0, 89, 28
3, 367650, Note_on_c, 0, 87, 0
3, 367680, Note_on_c, 0, 87, 20
3, 367710, Note_on_c, 0, 89, 0
3, 367740, Note_on_c, 0, 89, 37
3, 367770, Note_on_c, 0, 87, 0
3, 367800, Note_on_c, 0, 87, 23
3, 367830, Note_on_c, 0, 89, 0
3, 367860, Note_on_c, 0, 89, 33
3, 367890, Note_on_c, 0, 87, 0
3, 367920, Note_on_c, 0, 87, 29
3, 367950, Note_on_c, 0, 89, 0
3, 367980, Note_on_c, 0, 89, 20
3, 368010, Note_on_c, 0, 87, 0
3, 368040, Note_on_c, 0, 87, 21
3, 368070, Note_on_c, 0, 89, 0
3, 368100, Note_on_c, 0, 89, 29
3, 368130, Note_on_c, 0, 87, 0
3, 368160, Note_on_c, 0, 87, 34
3, 368190, Note_on_c, 0, 89, 0
3, 368220, Note_on_c, 0, 89, 27
3, 368250, Note_on_c, 0, 87, 0
3, 368280, Note_on_c, 0, 87, 25
3, 368310, Note_on_c, 0, 89, 0
3, 368340, Note_on_c, 0, 89, 21
3, 368370, Note_on_c, 0, 87, 0
3, 368400, Note_on_c, 0, 87, 20
3, 368430, Note_on_c, 0, 89, 0
3, 368460, Note_on_c, 0, 89, 28
3, 368490, Note_on_c, 0, 87, 0
3, 368520, Note_on_c, 0, 87, 29
3, 368550, Note_on_c, 0, 89, 0
3, 368580, Note_on_c, 0, 89, 21
3, 368610, Note_on_c, 0, 87, 0
3, 368640, Note_on_c, 0, 87, 36
3, 368670, Note_on_c, 0, 89, 0
3, 368700, Note_on_c, 0, 89, 30
3, 368730, Note_on_c, 0, 87, 0
3, 368760, Note_on_c, 0, 87, 20
3, 368790, Note_on_c, 0, 89, 0
3, 368820, Note_on_c, 0, 89, 20
3, 368850, Note_on_c, 0, 87, 0
3, 368880, Note_on_c, 0, 87, 32
3, 368910, Note_on_c, 0, 89, 0
3, 368940, Note_on_c, 0, 89, 20
3, 368970, Note_on_c, 0, 87, 0
3, 369000, Note_on_c, 0, 87, 39
3, 369030, Note_on_c, 0, 89, 0
3, 369060, Note_on_c, 0, 89, 30
3, 369090, Note_on_c, 0, 87, 0
3, 369120, Note_on_c, 0, 87, 32
3, 369150, Note_on_c, 0, 89, 0
3, 369180, Note_on_c, 0, 89, 27
3, 369210, Note_on_c, 0, 87, 0
3, 369240, Note_on_c, 0, 87, 37
3, 369270, Note_on_c, 0, 89, 0
3, 369300, Note_on_c, 0, 89, 36
3, 369330, Note_on_c, 0, 87, 0
3, 369360, Note_on_c, 0, 87, 25
3, 369390, Note_on_c, 0, 89, 0
3, 369420, Note_on_c, 0, 89, 33
3, 369450, Note_on_c, 0, 87, 0
3, 369480, Note_on_c, 0, 87, 29
3, 369510, Note_on_c, 0, 89, 0
3, 369540, Note_on_c, 0, 89, 29
3, 369570, Note_on_c, 0, 87, 0
3, 369600, Note_on_c, 0, 87, 25
3, 369630, Note_on_c, 0, 89, 0
3, 369660, Note_on_c, 0, 89, 23
3, 369690, Note_on_c, 0, 87, 0
3, 369720, Note_on_c, 0, 87, 28
3, 369750, Note_on_c, 0, 89, 0
3, 369780, Note_on_c, 0, 89, 35
3, 369810, Note_on_c, 0, 87, 0
3, 369840, Note_on_c, 0, 87, 20
3, 369870, Note_on_c, 0, 89, 0
3, 369900, Note_on_c, 0, 89, 34
3, 369930, Note_on_c, 0, 87, 0
3, 369960, Note_on_c, 0, 87, 26
3, 369990, Note_on_c, 0, 89, 0
3, 370020, Note_on_c, 0, 89, 25
3, 370050, Note_on_c, 0, 87, 0
3, 370080, Note_on_c, 0, 87, 27
3, 370110, Note_on_c, 0, 89, 0
3, 370140, Note_on_c, 0, 89, 29
3, 370170, Note_on_c, 0, 87, 0
3, 370200, Note_on_c, 0, 87, 25
3, 370230, Note_on_c, 0, 89, 0
3, 370260, Note_on_c, 0, 89, 39
3, 370290, Note_on_c, 0, 87, 0
3, 370320, Note_on_c, 0, 87, 26
3, 370350, Note_on_c, 0, 89, 0
3, 370380, Note_on_c, 0, 89, 32
3, 370410, Note_on_c, 0, 87, 0
3, 370440, Note_on_c, 0, 87, 38
3, 370470, Note_on_c, 0, 89, 0
3, 370500, Note_on_c, 0, 89, 36
3, 370530, Note_on_c, 0, 87, 0
3, 370560, Note_on_c, 0, 87, 37
3, 370590, Note_on_c, 0, 89, 0
3, 370620, Note_on_c, 0, 89, 28
3, 370650, Note_on_c, 0, 87, 0
3, 370680, Note_on_c, 0, 87, 25
3, 370710, Note_on_c, 0, 89, 0
3, 370740, Note_on_c, 0, 89, 37
3, 370770, Note_on_c, 0, 87, 0
3, 370800, Note_on_c, 0, 87, 29
3, 370830, Note_on_c, 0, 89, 0
3, 370860, Note_on_c, 0, 89, 20
3, 370890, Note_on_c, 0, 87, 0
3, 370920, Note_on_c, 0, 87, 22
3, 370950, Note_on_c, 0, 89, 0
3, 370980, Note_on_c, 0, 89, 22
3, 371010, Note_on_c, 0, 87, 0
3, 371040, Note_on_c, 0, 87, 29
3, 371070, Note_on_c, 0, 89, 0
3, 371100, Note_on_c, 0, 89, 23
3, 371130, Note_on_c, 0, 87, 0
3, 371160, Note_on_c, 0, 87, 31
3, 371190, Note_on_c, 0, 89, 0
3, 371220, Note_on_c, 0, 89, 32
3, 371250, Note_on_c, 0, 87, 0
3, 371280, Note_on_c, 0, 87, 32
3, 371310, Note_on_c, 0, 89, 0
3, 371340, Note_on_c, 0, 89, 38
3, 371370, Note_on_c, 0, 87, 0
3, 371400, Note_on_c, 0, 87, 29
3, 371430, Note_on_c, 0, 89, 0
3, 371460, Note_on_c, 0, 89, 31
3, 371490, Note_on_c, 0, 87, 0
3, 371520, Note_on_c, 0, 87, 26
3, 371550, Note_on_c, 0, 89, 0
3, 371580, Note_on_c, 0, 89, 20
3, 371610, Note_on_c, 0, 87, 0
3, 371640, Note_on_c, 0, 87, 29
3, 371670, Note_on_c, 0, 89, 0
3, 371700, Note_on_c, 0, 89, 26
3, 371730, Note_on_c, 0, 87, 0
3, 371760, Note_on_c, 0, 87, 23
3, 371790, Note_on_c, 0, 89, 0
3, 371820, Note_on_c, 0, 89, 19
3, 371850, Note_on_c, 0, 87, 0
3, 371880, Note_on_c, 0, 87, 19
3, 371910, Note_on_c, 0, 89, 0
3, 371940, Note_on_c, 0, 89, 23
3, 371970, Note_on_c, 0, 87, 0
3, 372000, Note_on_c, 0, 87, 28
3, 372030, Note_on_c, 0, 89, 0
3, 372060, Note_on_c, 0, 89, 35
3, 372090, Note_on_c, 0, 87, 0
3, 372120, Note_on_c, 0, 87, 25
3, 372150, Note_on_c, 0, 89, 0
3, 372180, Note_on_c, 0, 89, 30
3, 372210, Note_on_c, 0, 87, 0
3, 372240, Note_on_c, 0, 87, 32
3, 372270, Note_on_c, 0, 89, 0
3, 372300, Note_on_c, 0, 89, 19
3, 372330, Note_on_c, 0, 87, 0
3, 372360, Note_on_c, 0, 87, 39
3, 372390, Note_on_c, 0, 89, 0
3, 372420, Note_on_c, 0, 89, 20
3, 372450, Note_on_c, 0, 87, 0
3, 372480, Note_on_c, 0, 87, 28
3, 372510, Note_on_c, 0, 89, 0
3, 372540, Note_on_c, 0, 89, 37
3, 372570, Note_on_c, 0, 87, 0
3, 372600, Note_on_c, 0, 87, 26
3, 372630, Note_on_c, 0, 89, 0
3, 372660, Note_on_c, 0, 89, 33
3, 372690, Note_on_c, 0, 87, 0
3, 372720, Note_on_c, 0, 87, 33
3, 372750, Note_on_c, 0, 89, 0
3, 372780, Note_on_c, 0, 89, 21
3, 372810, Note_on_c, 0, 87, 0
3, 372840, Note_on_c, 0, 87, 22
3, 372870, Note_on_c, 0, 89, 0
3, 372900, Note_on_c, 0, 89, 38
3, 372930, Note_on_c, 0, 87, 0
3, 372960, Note_on_c, 0, 87, 23
3, 372990, Note_on_c, 0, 89, 0
3, 373020, Note_on_c, 0, 89, 20
3, 373050, Note_on_c, 0, 87, 0
3, 373080, Note_on_c, 0, 87, 28
3, 373110, Note_on_c, 0, 89, 0
3, 373140, Note_on_c, 0, 89, 28
3, 373170, Note_on_c, 0, 87, 0
3, 373200, Note_on_c, 0, 87, 28
3, 373230, Note_on_c, 0, 89, 0
3, 373260, Note_on_c, 0, 89, 28
3, 373290, Note_on_c, 0, 87, 0
3, 373320, Note_on_c, 0, 87, 31
3, 373350, Note_on_c, 0, 89, 0
3, 373380, Note_on_c, 0, 89, 20
3, 373410, Note_on_c, 0, 87, 0
3, 373440, Note_on_c, 0, 87, 25
3, 373470, Note_on_c, 0, 89, 0
3, 373500, Note_on_c, 0, 89, 27
3, 373530, Note_on_c, 0, 87, 0
3, 373560, Note_on_c, 0, 87, 27
3, 373590, Note_on_c, 0, 89, 0
3, 373620, Note_on_c, 0, 89, 39
3, 373650, Note_on_c, 0, 87, 0
3, 373680, Note_on_c, 0, 87, 35
3, 373710, Note_on_c, 0, 89, 0
3, 373740, Note_on_c, 0, 89, 19
3, 373770, Note_on_c, 0, 87, 0
3, 373800, Note_on_c, 0, 87, 30
3, 373830, Note_on_c, 0, 89, 0
3, 373860, Note_on_c, 0, 89, 29
3, 373890, Note_on_c, 0, 87, 0
3, 373920, Note_on_c, 0, 87, 36
3, 373950, Note_on_c, 0, 89, 0
3, 373980, Note_on_c, 0, 89, 38
3, 374010, Note_on_c, 0, 87, 0
3, 374040, Note_on_c, 0, 87, 36
3, 374070, Note_on_c, 0, 89, 0
3, 374100, Note_on_c, 0, 89, 29
3, 374130, Note_on_c, 0, 87, 0
3, 374160, Note_on_c, 0, 87, 23
3, 374190, Note_on_c, 0, 89, 0
3, 374220, Note_on_c, 0, 89, 35
3, 374250, Note_on_c, 0, 87, 0
3, 374280, Note_on_c, 0, 87, 26
3, 374310, Note_on_c, 0, 89, 0
3, 374340, Note_on_c, 0, 89, 34
3, 374370, Note_on_c, 0, 87, 0
3, 374400, Note_on_c, 0, 87, 26
3, 374430, Note_on_c, 0, 89, 0
3, 374460, Note_on_c, 0, 89, 35
3, 374490, Note_on_c, 0, 87, 0
3, 374520, Note_on_c, 0, 87, 27
3, 374550, Note_on_c, 0, 89, 0
3, 374580, Note_on_c, 0, 89, 26
3, 374610, Note_on_c, 0, 87, 0
3, 374640, Note_on_c, 0, 87, 39
3, 374670, Note_on_c, 0, 89, 0
3, 374700, Note_on_c, 0, 89, 38
3, 374730, Note_on_c, 0, 87, 0
3, 374760, Note_on_c, 0, 87, 29
3, 374790, Note_on_c, 0, 89, 0
3, 374820, Note_on_c, 0, 89, 38
3, 374850, Note_on_c, 0, 87, 0
3, 374880, Note_on_c, 0, 87, 35
3, 374910, Note_on_c, 0, 89, 0
3, 374940, Note_on_c, 0, 89, 27
3, 374970, Note_on_c, 0, 87, 0
3, 375000, Note_on_c, 0, 87, 27
3, 375030, Note_on_c, 0, 89, 0
3, 375060, Note_on_c, 0, 89, 28
3, 375090, Note_on_c, 0, 87, 0
3, 375120, Note_on_c, 0, 87, 33
3, 375150, Note_on_c, 0, 89, 0
3, 375180, Note_on_c, 0, 89, 39
3, 375210, Note_on_c, 0, 87, 0
3, 375240, Note_on_c, 0, 87, 39
3, 375270, Note_on_c, 0, 89, 0
3, 375300, Note_on_c, 0, 89, 38
3, 375330, Note_on_c, 0, 87, 0
3, 375360, Note_on_c, 0, 87, 33
3, 375390, Note_on_c, 0, 89, 0
3, 375420, Note_on_c, 0, 89, 39
3, 375450, Note_on_c, 0, 87, 0
3, 375480, Note_on_c, 0, 87, 39
3, 375510, Note_on_c, 0, 89, 0
3, 375540, Note_on_c, 0, 89, 38
3, 375570, Note_on_c, 0, 87, 0
3, 375600, Note_on_c, 0, 87, 37
3, 375630, Note_on_c, 0, 89, 0
3, 375660, Note_on_c, 0, 89, 23
3, 375690, Note_on_c, 0, 87, 0
3, 375720, Note_on_c, 0, 87, 37
3, 375750, Note_on_c, 0, 89, 0
3, 375780, Note_on_c, 0, 89, 25
3, 375810, Note_on_c, 0, 87, 0
3, 375840, Note_on_c, 0, 87, 27
3, 375870, Note_on_c, 0, 89, 0
3, 375900, Note_on_c, 0, 89, 19
3, 375930, Note_on_c, 0, 87, 0
3, 375960, Note_on_c, 0, 87, 30
3, 375990, Note_on_c, 0, 89, 0
3, 376020, Note_on_c, 0, 89, 30
3, 376050, Note_on_c, 0, 87, 0
3, 376080, Note_on_c, 0, 87, 39
3, 376110, Note_on_c, 0, 89, 0
3, 376140, Note_on_c, 0, 89, 36
3, 376170, Note_on_c, 0, 87, 0
3, 376200, Note_on_c, 0, 87, 23
3, 376230, Note_on_c, 0, 89, 0
3, 376260, Note_on_c, 0, 89, 23
3, 376290, Note_on_c, 0, 87, 0
3, 376320, Note_on_c, 0, 87, 32
3, 376350, Note_on_c, 0, 89, 0
3, 376380, Note_on_c, 0, 89, 31
3, 376410, Note_on_c, 0, 87, 0
3, 376440, Note_on_c, 0, 87, 24
3, 376470, Note_on_c, 0, 89, 0
3, 376500, Note_on_c, 0, 89, 37
3, 376530, Note_on_c, 0, 87, 0
3, 376560, Note_on_c, 0, 87, 34
3, 376590, Note_on_c, 0, 89, 0
3, 376620, Note_on_c, 0, 89, 36
3, 376650, Note_on_c, 0, 87, 0
3, 376680, Note_on_c, 0, 87, 32
3, 376710, Note_on_c, 0, 89, 0
3, 376740, Note_on_c, 0, 89, 30
3, 376770, Note_on_c, 0, 87, 0
3, 376800, Note_on_c, 0, 87, 27
3, 376830, Note_on_c, 0, 89, 0
3, 376860, Note_on_c, 0, 89, 30
3, 376890, Note_on_c, 0, 87, 0
3, 376920, Note_on_c, 0, 87, 24
3, 376950, Note_on_c, 0, 89, 0
3, 376980, Note_on_c, 0, 89, 23
3, 377010, Note_on_c, 0, 87, 0
3, 377040, Note_on_c, 0, 87, 36
3, 377070, Note_on_c, 0, 89, 0
3, 377100, Note_on_c, 0, 89, 27
3, 377130, Note_on_c, 0, 87, 0
3, 377160, Note_on_c, 0, 87, 28
3, 377190, Note_on_c, 0, 89, 0
3, 377220, Note_on_c, 0, 89, 20
3, 377250, Note_on_c, 0, 87, 0
3, 377280, Note_on_c, 0, 87, 31
3, 377310, Note_on_c, 0, 89, 0
3, 377340, Note_on_c, 0, 89, 23
3, 377370, Note_on_c, 0, 87, 0
3, 377400, Note_on_c, 0, 87, 22
3, 377430, Note_on_c, 0, 89, 0
3, 377460, Note_on_c, 0, 89, 20
3, 377490, Note_on_c, 0, 87, 0
3, 377520, Note_on_c, 0, 87, 20
3, 377550, Note_on_c, 0, 89, 0
3, 377580, Note_on_c, 0, 89, 18
3, 377610, Note_on_c, 0, 87, 0
3, 377640, Note_on_c, 0, 87, 16
3, 377670, Note_on_c, 0, 89, 0
3, 377700, Note_on_c, 0, 89, 25
3, 377730, Note_on_c, 0, 87, 0
3, 377760, Note_on_c, 0, 87, 25
3, 377790, Note_on_c, 0, 89, 0
3, 377820, Note_on_c, 0, 89, 24
3, 377850, Note_on_c, 0, 87, 0
3, 377880, Note_on_c, 0, 87, 23
3, 377910, Note_on_c, 0, 89, 0
3, 377940, Note_on_c, 0, 89, 22
3, 377970, Note_on_c, 0, 87, 0
3, 378000, Note_on_c, 0, 87, 21
3, 378030, Note_on_c, 0, 89, 0
3, 378060, Note_on_c, 0, 89, 20
3, 378090, Note_on_c, 0, 87, 0
3, 378120, Note_on_c, 0, 87, 19
3, 378150, Note_on_c, 0, 89, 0
3, 378180, Note_on_c, 0, 89, 19
3, 378210, Note_on_c, 0, 87, 0
3, 378240, Note_on_c, 0, 87, 18
3, 378270, Note_on_c, 0, 89, 0
3, 378300, Note_on_c, 0, 89, 17
3, 378330, Note_on_c, 0, 87, 0
3, 378360, Note_on_c, 0, 87, 16
3, 378390, Note_on_c, 0, 89, 0
3, 378420, Note_on_c, 0, 89, 15
3, 378450, Note_on_c, 0, 87, 0
3, 378480, Note_on_c, 0, 87, 14
3, 378510, Note_on_c, 0, 89, 0
3, 378540, Note_on_c, 0, 89, 13
3, 378570, Note_on_c, 0, 87, 0
3, 378600, Note_on_c, 0, 87, 13
3, 378630, Note_on_c, 0, 89, 0
3, 378660, Note_on_c, 0, 89, 12
3, 378690, Note_on_c, 0, 87, 0
3, 378750, Note_on_c, 0, 89, 0
3, 397934, Note_on_c, 0, 66, 76
3, 397938, Note_on_c, 0, 70, 79
3, 398294, Note_on_c, 0, 66, 0
3, 398298, Note_on_c, 0, 70, 0
3, 398404, Note_on_c, 0, 70, 85
3, 398409, Note_on_c, 0, 66, 83
3, 398764, Note_on_c, 0, 70, 0
3, 398769, Note_on_c, 0, 66, 0
3, 398890, Note_on_c, 0, 66, 80
3, 398891, Note_on_c, 0, 70, 84
3, 399250, Note_on_c, 0, 66, 0
3, 399251, Note_on_c, 0, 70, 0
3, 399365, Note_on_c, 0, 68, 65
3, 399382, Note_on_c, 0, 72, 68
3, 399605, Note_on_c, 0, 68, 0
3, 399622, Note_on_c, 0, 72, 0
3, 399623, Note_on_c, 0, 70, 67
3, 399624, Note_on_c, 0, 73, 65
3, 399842, Note_on_c, 0, 75, 82
3, 399848, Note_on_c, 0, 72, 78
3, 399863, Note_on_c, 0, 70, 0
3, 399864, Note_on_c, 0, 73, 0
3, 400322, Note_on_c, 0, 75, 0
3, 400328, Note_on_c, 0, 72, 0
3, 400328, Note_on_c, 0, 70, 77
3, 400339, Note_on_c, 0, 73, 78
3, 400808, Note_on_c, 0, 70, 0
3, 400808, Note_on_c, 0, 68, 69
3, 400815, Note_on_c, 0, 72, 85
3, 400819, Note_on_c, 0, 73, 0
3, 401288, Note_on_c, 0, 68, 0
3, 401295, Note_on_c, 0, 72, 0
3, 403213, Note_on_c, 0, 72, 76
3, 403224, Note_on_c, 0, 68, 70
3, 403453, Note_on_c, 0, 72, 0
3, 403460, Note_on_c, 0, 70, 66
3, 403462, Note_on_c, 0, 73, 85
3, 403464, Note_on_c, 0, 68, 0
3, 403681, Note_on_c, 0, 75, 85
3, 403694, Note_on_c, 0, 72, 67
3, 403700, Note_on_c, 0, 70, 0
3, 403702, Note_on_c, 0, 73, 0
3, 404161, Note_on_c, 0, 75, 0
3, 404166, Note_on_c, 0, 70, 70
3, 404173, Note_on_c, 0, 73, 67
3, 404174, Note_on_c, 0, 72, 0
3, 404646, Note_on_c, 0, 70, 0
3, 404651, Note_on_c, 0, 68, 78
3, 404653, Note_on_c, 0, 73, 0
3, 404653, Note_on_c, 0, 72, 84
3, 405122, Note_on_c, 0, 70, 82
3, 405131, Note_on_c, 0, 68, 0
3, 405133, Note_on_c, 0, 72, 0
3, 405143, Note_on_c, 0, 66, 83
3, 405482, Note_on_c, 0, 70, 0
3, 405503, Note_on_c, 0, 66, 0
3, 405613, Note_on_c, 0, 70, 78
3, 405617, Note_on_c, 0, 66, 76
3, 405973, Note_on_c, 0, 70, 0
3, 405977, Note_on_c, 0, 66, 0
3, 406080, Note_on_c, 0, 68, 75
3, 406085, Note_on_c, 0, 72, 77
3, 406320, Note_on_c, 0, 68, 0
3, 406320, Note_on_c, 0, 70, 84
3, 406325, Note_on_c, 0, 72, 0
3, 406330, Note_on_c, 0, 73, 81
3, 406560, Note_on_c, 0, 70, 0
3, 406570, Note_on_c, 0, 73, 0
3, 406575, Note_on_c, 0, 72, 84
3, 406575, Note_on_c, 0, 75, 66
3, 407055, Note_on_c, 0, 72, 0
3, 407055, Note_on_c, 0, 75, 0
3, 407530, Note_on_c, 0, 66, 70
3, 407531, Note_on_c, 0, 70, 78
3, 407890, Note_on_c, 0, 66, 0
3, 407891, Note_on_c, 0, 70, 0
3, 408000, Note_on_c, 0, 70, 80
3, 408002, Note_on_c, 0, 66, 65
3, 408360, Note_on_c, 0, 70, 0
3, 408362, Note_on_c, 0, 66, 0
3, 408489, Note_on_c, 0, 70, 68
3, 408503, Note_on_c, 0, 66, 72
3, 408849, Note_on_c, 0, 70, 0
3, 408863, Note_on_c, 0, 66, 0
3, 408961, Note_on_c, 0, 68, 66
3, 408971, Note_on_c, 0, 72, 76
3, 409201, Note_on_c, 0, 68, 0
3, 409207, Note_on_c, 0, 70, 72
3, 409208, Note_on_c, 0, 73, 71
3, 409211, Note_on_c, 0, 72, 0
3, 409447, Note_on_c, 0, 70, 0
3, 409448, Note_on_c, 0, 73, 0
3, 409454, Note_on_c, 0, 72, 79
3, 409458, Note_on_c, 0, 75, 73
3, 409931, Note_on_c, 0, 70, 81
3, 409934, Note_on_c, 0, 72, 0
3, 409936, Note_on_c, 0, 73, 84
3, 409938, Note_on_c, 0, 75, 0
3, 410403, Note_on_c, 0, 68, 84
3, 410411, Note_on_c, 0, 70, 0
3, 410416, Note_on_c, 0, 73, 0
3, 410419, Note_on_c, 0, 72, 71
3, 410881, Note_on_c, 0, 66, 71
3, 410883, Note_on_c, 0, 68, 0
3, 410899, Note_on_c, 0, 72, 0
3, 410899, Note_on_c, 0, 70, 83
3, 411241, Note_on_c, 0, 66, 0
3, 411259, Note_on_c, 0, 70, 0
3, 411373, Note_on_c, 0, 66, 81
3, 411383, Note_on_c, 0, 70, 65
3, 411733, Note_on_c, 0, 66, 0
3, 411743, Note_on_c, 0, 70, 0
3, 411841, Note_on_c, 0, 72, 75
3, 411850, Note_on_c, 0, 68, 69
3, 412081, Note_on_c, 0, 72, 0
3, 412083, Note_on_c, 0, 70, 66
3, 412088, Note_on_c, 0, 73, 75
3, 412090, Note_on_c, 0, 68, 0
3, 412323, Note_on_c, 0, 70, 0
3, 412328, Note_on_c, 0, 73, 0
3, 412331, Note_on_c, 0, 75, 73
3, 412335, Note_on_c, 0, 72, 76
3, 412811, Note_on_c, 0, 75, 0
3, 412815, Note_on_c, 0, 72, 0
3, 412817, Note_on_c, 0, 70, 74
3, 412823, Note_on_c, 0, 73, 74
3, 413297, Note_on_c, 0, 70, 0
3, 413297, Note_on_c, 0, 68, 71
3, 413298, Note_on_c, 0, 72, 85
3, 413303, Note_on_c, 0, 73, 0
3, 413769, Note_on_c, 0, 70, 78
3, 413777, Note_on_c, 0, 68, 0
3, 413778, Note_on_c, 0, 72, 0
3, 413778, Note_on_c, 0, 66, 75
3, 414129, Note_on_c, 0, 70, 0
3, 414138, Note_on_c, 0, 66, 0
3, 414251, Note_on_c, 0, 70, 78
3, 414254, Note_on_c, 0, 66, 83
3, 414611, Note_on_c, 0, 70, 0
3, 414614, Note_on_c, 0, 66, 0
3, 414733, Note_on_c, 0, 72, 76
3, 414738, Note_on_c, 0, 68, 72
3, 414973, Note_on_c, 0, 72, 0
3, 414976, Note_on_c, 0, 70, 66
3, 414977, Note_on_c, 0, 73, 73
3, 414978, Note_on_c, 0, 68, 0
3, 415213, Note_on_c, 0, 75, 80
3, 415216, Note_on_c, 0, 70, 0
3, 415217, Note_on_c, 0, 73, 0
3, 415217, Note_on_c, 0, 72, 72
3, 415693, Note_on_c, 0, 75, 0
3, 415697, Note_on_c, 0, 72, 0
3, 427213, Note_on_c, 0, 78, 110
3, 427215, Note_on_c, 0, 82, 101
3, 427573, Note_on_c, 0, 78, 0
3, 427575, Note_on_c, 0, 82, 0
3, 427681, Note_on_c, 0, 82, 91
3, 427690, Note_on_c, 0, 78, 101
3, 428041, Note_on_c, 0, 82, 0
3, 428050, Note_on_c, 0, 78, 0
3, 428160, Note_on_c, 0, 82, 94
3, 428166, Note_on_c, 0, 78, 103
3, 428520, Note_on_c, 0, 82, 0
3, 428526, Note_on_c, 0, 78, 0
3, 428642, Note_on_c, 0, 80, 94
3, 428660, Note_on_c, 0, 84, 101
3, 428882, Note_on_c, 0, 80, 0
3, 428900, Note_on_c, 0, 84, 0
3, 428900, Note_on_c, 0, 85, 91
3, 428904, Note_on_c, 0, 82, 99
3, 429126, Note_on_c, 0, 84, 94
3, 429135, Note_on_c, 0, 87, 110
3, 429140, Note_on_c, 0, 85, 0
3, 429144, Note_on_c, 0, 82, 0
3, 429606, Note_on_c, 0, 84, 0
3, 429615, Note_on_c, 0, 87, 0
3, 429615, Note_on_c, 0, 85, 95
3, 429620, Note_on_c, 0, 82, 111
3, 430091, Note_on_c, 0, 80, 102
3, 430095, Note_on_c, 0, 85, 0
3, 430100, Note_on_c, 0, 82, 0
3, 430102, Note_on_c, 0, 84, 94
3, 430571, Note_on_c, 0, 80, 0
3, 430575, Note_on_c, 0, 78, 98
3, 430578, Note_on_c, 0, 82, 98
3, 430582, Note_on_c, 0, 84, 0
3, 430935, Note_on_c, 0, 78, 0
3, 430938, Note_on_c, 0, 82, 0
3, 431054, Note_on_c, 0, 78, 110
3, 431063, Note_on_c, 0, 82, 98
3, 431414, Note_on_c, 0, 78, 0
3, 431423, Note_on_c, 0, 82, 0
3, 431533, Note_on_c, 0, 84, 109
3, 431543, Note_on_c, 0, 80, 92
3, 431764, Note_on_c, 0, 82, 95
3, 431768, Note_on_c, 0, 85, 97
3, 431773, Note_on_c, 0, 84, 0
3, 431783, Note_on_c, 0, 80, 0
3, 432004, Note_on_c, 0, 82, 0
3, 432008, Note_on_c, 0, 85, 0
3, 432011, Note_on_c, 0, 87, 96
3, 432014, Note_on_c, 0, 84, 97
3, 432482, Note_on_c, 0, 82, 95
3, 432491, Note_on_c, 0, 87, 0
3, 432493, Note_on_c, 0, 78, 103
3, 432494, Note_on_c, 0, 84, 0
3, 432842, Note_on_c, 0, 82, 0
3, 432853, Note_on_c, 0, 78, 0
3, 432962, Note_on_c, 0, 82, 103
3, 432981, Note_on_c, 0, 78, 94
3, 433322, Note_on_c, 0, 82, 0
3, 433341, Note_on_c, 0, 78, 0
3, 433440, Note_on_c, 0, 82, 103
3, 433458, Note_on_c, 0, 78, 109
3, 433800, Note_on_c, 0, 82, 0
3, 433818, Note_on_c, 0, 78, 0
3, 433922, Note_on_c, 0, 80, 105
3, 433930, Note_on_c, 0, 84, 96
3, 434162, Note_on_c, 0, 80, 0
3, 434170, Note_on_c, 0, 84, 0
3, 434173, Note_on_c, 0, 82, 109
3, 434185, Note_on_c, 0, 85, 105
3, 434410, Note_on_c, 0, 87, 107
3, 434413, Note_on_c, 0, 82, 0
3, 434415, Note_on_c, 0, 84, 98
3, 434425, Note_on_c, 0, 85, 0
3, 434890, Note_on_c, 0, 87, 0
3, 434895, Note_on_c, 0, 84, 0
3, 435372, Note_on_c, 0, 78, 102
3, 435381, Note_on_c, 0, 82, 94
3, 435732, Note_on_c, 0, 78, 0
3, 435741, Note_on_c, 0, 82, 0
3, 435845, Note_on_c, 0, 82, 97
3, 435864, Note_on_c, 0, 78, 99
3, 436205, Note_on_c, 0, 82, 0
3, 436224, Note_on_c, 0, 78, 0
3, 436332, Note_on_c, 0, 78, 95
3, 436337, Note_on_c, 0, 82, 97
3, 436692, Note_on_c, 0, 78, 0
3, 436697, Note_on_c, 0, 82, 0
3, 436812, Note_on_c, 0, 78, 98
3, 436821, Note_on_c, 0, 82, 104
3, 437172, Note_on_c, 0, 78, 0
3, 437181, Note_on_c, 0, 82, 0
3, 437280, Note_on_c, 0, 82, 108
3, 437285, Note_on_c, 0, 78, 99
3, 437640, Note_on_c, 0, 82, 0
3, 437645, Note_on_c, 0, 78, 0
3, 437766, Note_on_c, 0, 78, 103
3, 437781, Note_on_c, 0, 82, 102
3, 438126, Note_on_c, 0, 78, 0
3, 438141, Note_on_c, 0, 82, 0
3, 438729, Note_on_c, 0, 83, 121
3, 438731, Note_on_c, 0, 80, 117
3, 439089, Note_on_c, 0, 83, 0
3, 439091, Note_on_c, 0, 80, 0
3, 439215, Note_on_c, 0, 83, 110
3, 439216, Note_on_c, 0, 80, 107
3, 439575, Note_on_c, 0, 83, 0
3, 439576, Note_on_c, 0, 80, 0
3, 439682, Note_on_c, 0, 80, 124
3, 439688, Note_on_c, 0, 83, 119
3, 440042, Note_on_c, 0, 80, 0
3, 440048, Note_on_c, 0, 83, 0
3, 440163, Note_on_c, 0, 80, 113
3, 440176, Note_on_c, 0, 84, 124
3, 440402, Note_on_c, 0, 82, 122
3, 440403, Note_on_c, 0, 80, 0
3, 440406, Note_on_c, 0, 85, 120
3, 440416, Note_on_c, 0, 84, 0
3, 440642, Note_on_c, 0, 82, 0
3, 440646, Note_on_c, 0, 85, 0
3, 440652, Note_on_c, 0, 84, 110
3, 440656, Note_on_c, 0, 87, 113
3, 442089, Note_on_c, 0, 80, 118
3, 442092, Note_on_c, 0, 84, 0
3, 442096, Note_on_c, 0, 87, 0
3, 442100, Note_on_c, 0, 84, 116
3, 442449, Note_on_c, 0, 80, 0
3, 442460, Note_on_c, 0, 84, 0
3, 442563, Note_on_c, 0, 80, 112
3, 442584, Note_on_c, 0, 84, 110
3, 442923, Note_on_c, 0, 80, 0
3, 442944, Note_on_c, 0, 84, 0
3, 443049, Note_on_c, 0, 84, 115
3, 443055, Note_on_c, 0, 80, 104
3, 443409, Note_on_c, 0, 84, 0
3, 443415, Note_on_c, 0, 80, 0
3, 443531, Note_on_c, 0, 84, 123
3, 443543, Note_on_c, 0, 80, 108
3, 443771, Note_on_c, 0, 84, 0
3, 443778, Note_on_c, 0, 85, 108
3, 443780, Note_on_c, 0, 82, 108
3, 443783, Note_on_c, 0, 80, 0
3, 444011, Note_on_c, 0, 87, 111
3, 444018, Note_on_c, 0, 85, 0
3, 444018, Note_on_c, 0, 84, 114
3, 444020, Note_on_c, 0, 82, 0
3, 444489, Note_on_c, 0, 80, 109
3, 444491, Note_on_c, 0, 87, 0
3, 444498, Note_on_c, 0, 84, 0
3, 444500, Note_on_c, 0, 84, 120
3, 444722, Note_on_c, 0, 85, 107
3, 444729, Note_on_c, 0, 80, 0
3, 444738, Note_on_c, 0, 82, 123
3, 444740, Note_on_c, 0, 84, 0
3, 444962, Note_on_c, 0, 85, 0
3, 444970, Note_on_c, 0, 84, 119
3, 444978, Note_on_c, 0, 82, 0
3, 444985, Note_on_c, 0, 87, 105
3, 445440, Note_on_c, 0, 78, 123
3, 445450, Note_on_c, 0, 84, 0
3, 445454, Note_on_c, 0, 82, 120
3, 445465, Note_on_c, 0, 87, 0
3, 445800, Note_on_c, 0, 78, 0
3, 445814, Note_on_c, 0, 82, 0
3, 445925, Note_on_c, 0, 78, 111
3, 445944, Note_on_c, 0, 82, 110
3, 446285, Note_on_c, 0, 78, 0
3, 446304, Note_on_c, 0, 82, 0
3, 446400, Note_on_c, 0, 80, 117
3, 446410, Note_on_c, 0, 84, 105
3, 446640, Note_on_c, 0, 80, 0
3, 446646, Note_on_c, 0, 82, 123
3, 446646, Note_on_c, 0, 85, 113
3, 446650, Note_on_c, 0, 84, 0
3, 446886, Note_on_c, 0, 82, 0
3, 446886, Note_on_c, 0, 85, 0
3, 446891, Note_on_c, 0, 87, 111
3, 446903, Note_on_c, 0, 84, 112
3, 447371, Note_on_c, 0, 87, 0
3, 447383, Note_on_c, 0, 84, 0
3, 447607, Note_on_c, 0, 94, 108
3, 447687, Note_on_c, 0, 94, 0
3, 447702, Note_on_c, 0, 93, 93
3, 447763, Note_on_c, 0, 94, 103
3, 447781, Note_on_c, 0, 93, 0
3, 447843, Note_on_c, 0, 94, 0
3, 447843, Note_on_c, 0, 91, 98
3, 448083, Note_on_c, 0, 91, 0
3, 448331, Note_on_c, 0, 94, 98
3, 448411, Note_on_c, 0, 94, 0
3, 448412, Note_on_c, 0, 93, 103
3, 448491, Note_on_c, 0, 93, 0
3, 448491, Note_on_c, 0, 94, 95
3, 448571, Note_on_c, 0, 94, 0
3, 448576, Note_on_c, 0, 91, 91
3, 448816, Note_on_c, 0, 91, 0
3, 448816, Note_on_c, 0, 87, 104
3, 448817, Note_on_c, 0, 84, 95
3, 448959, Note_on_c, 0, 87, 0
3, 448960, Note_on_c, 0, 84, 0
3, 453126, Note_on_c, 0, 67, 95
3, 453246, Note_on_c, 0, 67, 0
3, 453253, Note_on_c, 0, 72, 83
3, 453362, Note_on_c, 0, 74, 90
3, 453373, Note_on_c, 0, 72, 0
3, 453482, Note_on_c, 0, 74, 0
3, 453489, Note_on_c, 0, 79, 95
3, 453609, Note_on_c, 0, 79, 0
3, 453619, Note_on_c, 0, 84, 98
3, 453720, Note_on_c, 0, 86, 93
3, 453739, Note_on_c, 0, 84, 0
3, 453840, Note_on_c, 0, 86, 0
3, 453847, Note_on_c, 0, 91, 105
3, 453964, Note_on_c, 0, 89, 107
3, 453967, Note_on_c, 0, 91, 0
3, 454084, Note_on_c, 0, 89, 0
3, 454086, Note_on_c, 0, 84, 104
3, 454206, Note_on_c, 0, 84, 0
3, 454216, Note_on_c, 0, 79, 96
3, 454336, Note_on_c, 0, 79, 0
3, 454337, Note_on_c, 0, 77, 91
3, 454441, Note_on_c, 0, 72, 93
3, 454457, Note_on_c, 0, 77, 0
3, 454561, Note_on_c, 0, 72, 0
3, 454569, Note_on_c, 0, 67, 79
3, 454809, Note_on_c, 0, 67, 0
3, 455041, Note_on_c, 0, 84, 105
3, 455060, Note_on_c, 0, 87, 99
3, 455184, Note_on_c, 0, 84, 0
3, 455203, Note_on_c, 0, 87, 0
3, 455540, Note_on_c, 0, 87, 102
3, 455541, Note_on_c, 0, 84, 114
3, 455683, Note_on_c, 0, 87, 0
3, 455684, Note_on_c, 0, 84, 0
3, 456005, Note_on_c, 0, 67, 83
3, 456122, Note_on_c, 0, 72, 84
3, 456125, Note_on_c, 0, 67, 0
3, 456241, Note_on_c, 0, 74, 86
3, 456242, Note_on_c, 0, 72, 0
3, 456361, Note_on_c, 0, 74, 0
3, 456367, Note_on_c, 0, 79, 100
3, 456487, Note_on_c, 0, 79, 0
3, 456499, Note_on_c, 0, 84, 97
3, 456600, Note_on_c, 0, 86, 89
3, 456619, Note_on_c, 0, 84, 0
3, 456720, Note_on_c, 0, 86, 0
3, 456729, Note_on_c, 0, 91, 94
3, 456849, Note_on_c, 0, 91, 0
3, 456859, Note_on_c, 0, 89, 94
3, 456964, Note_on_c, 0, 84, 93
3, 456979, Note_on_c, 0, 89, 0
3, 457084, Note_on_c, 0, 84, 0
3, 457090, Note_on_c, 0, 79, 87
3, 457210, Note_on_c, 0, 79, 0
3, 457225, Note_on_c, 0, 77, 102
3, 457320, Note_on_c, 0, 72, 81
3, 457345, Note_on_c, 0, 77, 0
3, 457440, Note_on_c, 0, 72, 0
3, 457444, Note_on_c, 0, 67, 96
3, 457684, Note_on_c, 0, 67, 0
3, 457939, Note_on_c, 0, 87, 98
3, 457940, Note_on_c, 0, 80, 107
3, 458130, Note_on_c, 0, 87, 0
3, 458131, Note_on_c, 0, 80, 0
3, 458419, Note_on_c, 0, 88, 97
3, 458424, Note_on_c, 0, 84, 94
3, 458610, Note_on_c, 0, 88, 0
3, 458615, Note_on_c, 0, 84, 0
3, 458884, Note_on_c, 0, 80, 105
3, 458898, Note_on_c, 0, 87, 95
3, 459075, Note_on_c, 0, 80, 0
3, 459089, Note_on_c, 0, 87, 0
3, 459373, Note_on_c, 0, 84, 92
3, 459384, Note_on_c, 0, 88, 98
3, 459564, Note_on_c, 0, 84, 0
3, 459575, Note_on_c, 0, 88, 0
3, 459852, Note_on_c, 0, 87, 97
3, 459859, Note_on_c, 0, 80, 98
3, 460043, Note_on_c, 0, 87, 0
3, 460050, Note_on_c, 0, 80, 0
3, 460322, Note_on_c, 0, 84, 95
3, 460331, Note_on_c, 0, 88, 100
3, 460513, Note_on_c, 0, 84, 0
3, 460522, Note_on_c, 0, 88, 0
3, 460808, Note_on_c, 0, 80, 103
3, 460815, Note_on_c, 0, 87, 101
3, 460999, Note_on_c, 0, 80, 0
3, 461006, Note_on_c, 0, 87, 0
3, 461293, Note_on_c, 0, 84, 93
3, 461295, Note_on_c, 0, 88, 106
3, 461484, Note_on_c, 0, 84, 0
3, 461486, Note_on_c, 0, 88, 0
3, 461771, Note_on_c, 0, 84, 97
3, 461779, Note_on_c, 0, 87, 110
3, 461914, Note_on_c, 0, 84, 0
3, 461922, Note_on_c, 0, 87, 0
3, 462240, Note_on_c, 0, 67, 72
3, 462360, Note_on_c, 0, 67, 0
3, 462361, Note_on_c, 0, 72, 74
3, 462481, Note_on_c, 0, 72, 0
3, 462498, Note_on_c, 0, 74, 70
3, 462616, Note_on_c, 0, 79, 92
3, 462618, Note_on_c, 0, 74, 0
3, 462736, Note_on_c, 0, 79, 0
3, 462738, Note_on_c, 0, 84, 90
3, 462853, Note_on_c, 0, 86, 94
3, 462858, Note_on_c, 0, 84, 0
3, 462968, Note_on_c, 0, 91, 110
3, 462973, Note_on_c, 0, 86, 0
3, 463088, Note_on_c, 0, 91, 0
3, 463099, Note_on_c, 0, 89, 100
3, 463211, Note_on_c, 0, 84, 96
3, 463219, Note_on_c, 0, 89, 0
3, 463322, Note_on_c, 0, 79, 78
3, 463331, Note_on_c, 0, 84, 0
3, 463442, Note_on_c, 0, 79, 0
3, 463451, Note_on_c, 0, 77, 77
3, 463561, Note_on_c, 0, 72, 80
3, 463571, Note_on_c, 0, 77, 0
3, 463681, Note_on_c, 0, 72, 0
3, 463693, Note_on_c, 0, 67, 79
3, 463813, Note_on_c, 0, 67, 0
3, 464175, Note_on_c, 0, 67, 68
3, 464285, Note_on_c, 0, 72, 69
3, 464295, Note_on_c, 0, 67, 0
3, 464405, Note_on_c, 0, 72, 0
3, 464405, Note_on_c, 0, 74, 75
3, 464525, Note_on_c, 0, 74, 0
3, 464538, Note_on_c, 0, 79, 87
3, 464642, Note_on_c, 0, 84, 91
3, 464658, Note_on_c, 0, 79, 0
3, 464762, Note_on_c, 0, 84, 0
3, 464773, Note_on_c, 0, 86, 103
3, 464893, Note_on_c, 0, 86, 0
3, 464898, Note_on_c, 0, 91, 92
3, 465009, Note_on_c, 0, 89, 106
3, 465018, Note_on_c, 0, 91, 0
3, 465129, Note_on_c, 0, 89, 0
3, 465129, Note_on_c, 0, 84, 101
3, 465249, Note_on_c, 0, 84, 0
3, 465250, Note_on_c, 0, 79, 87
3, 465361, Note_on_c, 0, 77, 88
3, 465370, Note_on_c, 0, 79, 0
3, 465481, Note_on_c, 0, 77, 0
3, 465500, Note_on_c, 0, 72, 73
3, 465605, Note_on_c, 0, 67, 75
3, 465620, Note_on_c, 0, 72, 0
3, 465725, Note_on_c, 0, 67, 0
3, 466089, Note_on_c, 0, 84, 99
3, 466103, Note_on_c, 0, 87, 109
3, 466232, Note_on_c, 0, 84, 0
3, 466246, Note_on_c, 0, 87, 0
3, 466577, Note_on_c, 0, 84, 106
3, 466583, Note_on_c, 0, 87, 101
3, 466720, Note_on_c, 0, 84, 0
3, 466726, Note_on_c, 0, 87, 0
3, 467051, Note_on_c, 0, 67, 70
3, 467171, Note_on_c, 0, 67, 0
3, 467185, Note_on_c, 0, 72, 73
3, 467283, Note_on_c, 0, 74, 87
3, 467305, Note_on_c, 0, 72, 0
3, 467403, Note_on_c, 0, 74, 0
3, 467420, Note_on_c, 0, 79, 82
3, 467540, Note_on_c, 0, 79, 0
3, 467543, Note_on_c, 0, 84, 87
3, 467640, Note_on_c, 0, 86, 106
3, 467663, Note_on_c, 0, 84, 0
3, 467760, Note_on_c, 0, 86, 0
3, 467772, Note_on_c, 0, 91, 93
3, 467883, Note_on_c, 0, 89, 109
3, 467892, Note_on_c, 0, 91, 0
3, 468003, Note_on_c, 0, 89, 0
3, 468012, Note_on_c, 0, 84, 97
3, 468132, Note_on_c, 0, 84, 0
3, 468135, Note_on_c, 0, 79, 81
3, 468241, Note_on_c, 0, 77, 89
3, 468255, Note_on_c, 0, 79, 0
3, 468361, Note_on_c, 0, 77, 0
3, 468361, Note_on_c, 0, 72, 72
3, 468481, Note_on_c, 0, 72, 0
3, 468488, Note_on_c, 0, 67, 65
3, 468608, Note_on_c, 0, 67, 0
3, 468960, Note_on_c, 0, 87, 24
3, 469007, Note_on_c, 0, 89, 28
3, 469030, Note_on_c, 0, 87, 0
3, 469055, Note_on_c, 0, 87, 20
3, 469077, Note_on_c, 0, 89, 0
3, 469103, Note_on_c, 0, 89, 26
3, 469125, Note_on_c, 0, 87, 0
3, 469151, Note_on_c, 0, 87, 31
3, 469173, Note_on_c, 0, 89, 0
3, 469198, Note_on_c, 0, 89, 37
3, 469221, Note_on_c, 0, 87, 0
3, 469246, Note_on_c, 0, 87, 39
3, 469268, Note_on_c, 0, 89, 0
3, 469294, Note_on_c, 0, 89, 27
3, 469316, Note_on_c, 0, 87, 0
3, 469342, Note_on_c, 0, 87, 22
3, 469364, Note_on_c, 0, 89, 0
3, 469390, Note_on_c, 0, 89, 25
3, 469412, Note_on_c, 0, 87, 0
3, 469438, Note_on_c, 0, 87, 23
3, 469460, Note_on_c, 0, 89, 0
3, 469485, Note_on_c, 0, 89, 39
3, 469508, Note_on_c, 0, 87, 0
3, 469533, Note_on_c, 0, 87, 33
3, 469555, Note_on_c, 0, 89, 0
3, 469581, Note_on_c, 0, 89, 36
3, 469603, Note_on_c, 0, 87, 0
3, 469629, Note_on_c, 0, 87, 22
3, 469651, Note_on_c, 0, 89, 0
3, 469676, Note_on_c, 0, 89, 35
3, 469699, Note_on_c, 0, 87, 0
3, 469725, Note_on_c, 0, 87, 25
3, 469746, Note_on_c, 0, 89, 0
3, 469772, Note_on_c, 0, 89, 38
3, 469795, Note_on_c, 0, 87, 0
3, 469820, Note_on_c, 0, 87, 33
3, 469842, Note_on_c, 0, 89, 0
3, 469868, Note_on_c, 0, 89, 35
3, 469890, Note_on_c, 0, 87, 0
3, 469916, Note_on_c, 0, 87, 31
3, 469938, Note_on_c, 0, 89, 0
3, 469963, Note_on_c, 0, 89, 36
3, 469986, Note_on_c, 0, 87, 0
3, 470011, Note_on_c, 0, 87, 38
3, 470033, Note_on_c, 0, 89, 0
3, 470059, Note_on_c, 0, 89, 27
3, 470081, Note_on_c, 0, 87, 0
3, 470107, Note_on_c, 0, 87, 19
3, 470129, Note_on_c, 0, 89, 0
3, 470155, Note_on_c, 0, 89, 26
3, 470177, Note_on_c, 0, 87, 0
3, 470203, Note_on_c, 0, 87, 19
3, 470225, Note_on_c, 0, 89, 0
3, 470250, Note_on_c, 0, 89, 39
3, 470273, Note_on_c, 0, 87, 0
3, 470298, Note_on_c, 0, 87, 37
3, 470320, Note_on_c, 0, 89, 0
3, 470346, Note_on_c, 0, 89, 25
3, 470368, Note_on_c, 0, 87, 0
3, 470394, Note_on_c, 0, 87, 36
3, 470416, Note_on_c, 0, 89, 0
3, 470441, Note_on_c, 0, 89, 31
3, 470464, Note_on_c, 0, 87, 0
3, 470490, Note_on_c, 0, 87, 30
3, 470511, Note_on_c, 0, 89, 0
3, 470537, Note_on_c, 0, 89, 36
3, 470560, Note_on_c, 0, 87, 0
3, 470585, Note_on_c, 0, 87, 19
3, 470607, Note_on_c, 0, 89, 0
3, 470633, Note_on_c, 0, 89, 21
3, 470655, Note_on_c, 0, 87, 0
3, 470681, Note_on_c, 0, 87, 22
3, 470703, Note_on_c, 0, 89, 0
3, 470728, Note_on_c, 0, 89, 38
3, 470751, Note_on_c, 0, 87, 0
3, 470776, Note_on_c, 0, 87, 34
3, 470798, Note_on_c, 0, 89, 0
3, 470824, Note_on_c, 0, 89, 23
3, 470846, Note_on_c, 0, 87, 0
3, 470872, Note_on_c, 0, 87, 21
3, 470894, Note_on_c, 0, 89, 0
3, 470920, Note_on_c, 0, 89, 26
3, 470942, Note_on_c, 0, 87, 0
3, 470968, Note_on_c, 0, 87, 22
3, 470990, Note_on_c, 0, 89, 0
3, 471015, Note_on_c, 0, 89, 34
3, 471038, Note_on_c, 0, 87, 0
3, 471063, Note_on_c, 0, 87, 23
3, 471085, Note_on_c, 0, 89, 0
3, 471111, Note_on_c, 0, 89, 27
3, 471133, Note_on_c, 0, 87, 0
3, 471159, Note_on_c, 0, 87, 39
3, 471181, Note_on_c, 0, 89, 0
3, 471206, Note_on_c, 0, 89, 22
3, 471229, Note_on_c, 0, 87, 0
3, 471255, Note_on_c, 0, 87, 20
3, 471276, Note_on_c, 0, 89, 0
3, 471302, Note_on_c, 0, 89, 34
3, 471325, Note_on_c, 0, 87, 0
3, 471350, Note_on_c, 0, 87, 28
3, 471372, Note_on_c, 0, 89, 0
3, 471398, Note_on_c, 0, 89, 24
3, 471420, Note_on_c, 0, 87, 0
3, 471446, Note_on_c, 0, 87, 20
3, 471468, Note_on_c, 0, 89, 0
3, 471493, Note_on_c, 0, 89, 38
3, 471516, Note_on_c, 0, 87, 0
3, 471541, Note_on_c, 0, 87, 22
3, 471563, Note_on_c, 0, 89, 0
3, 471589, Note_on_c, 0, 89, 25
3, 471611, Note_on_c, 0, 87, 0
3, 471637, Note_on_c, 0, 87, 20
3, 471659, Note_on_c, 0, 89, 0
3, 471685, Note_on_c, 0, 89, 36
3, 471707, Note_on_c, 0, 87, 0
3, 471733, Note_on_c, 0, 87, 30
3, 471755, Note_on_c, 0, 89, 0
3, 471780, Note_on_c, 0, 89, 19
3, 471803, Note_on_c, 0, 87, 0
3, 471828, Note_on_c, 0, 87, 25
3, 471850, Note_on_c, 0, 89, 0
3, 471876, Note_on_c, 0, 89, 31
3, 471898, Note_on_c, 0, 87, 0
3, 471924, Note_on_c, 0, 87, 35
3, 471946, Note_on_c, 0, 89, 0
3, 471971, Note_on_c, 0, 89, 20
3, 471994, Note_on_c, 0, 87, 0
3, 472020, Note_on_c, 0, 87, 26
3, 472041, Note_on_c, 0, 89, 0
3, 472067, Note_on_c, 0, 89, 21
3, 472090, Note_on_c, 0, 87, 0
3, 472115, Note_on_c, 0, 87, 21
3, 472137, Note_on_c, 0, 89, 0
3, 472163, Note_on_c, 0, 89, 37
3, 472185, Note_on_c, 0, 87, 0
3, 472211, Note_on_c, 0, 87, 28
3, 472233, Note_on_c, 0, 89, 0
3, 472258, Note_on_c, 0, 89, 20
3, 472281, Note_on_c, 0, 87, 0
3, 472306, Note_on_c, 0, 87, 32
3, 472328, Note_on_c, 0, 89, 0
3, 472354, Note_on_c, 0, 89, 24
3, 472376, Note_on_c, 0, 87, 0
3, 472402, Note_on_c, 0, 87, 35
3, 472424, Note_on_c, 0, 89, 0
3, 472450, Note_on_c, 0, 89, 39
3, 472472, Note_on_c, 0, 87, 0
3, 472498, Note_on_c, 0, 87, 23
3, 472520, Note_on_c, 0, 89, 0
3, 472545, Note_on_c, 0, 89, 30
3, 472568, Note_on_c, 0, 87, 0
3, 472593, Note_on_c, 0, 87, 33
3, 472615, Note_on_c, 0, 89, 0
3, 472641, Note_on_c, 0, 89, 30
3, 472663, Note_on_c, 0, 87, 0
3, 472689, Note_on_c, 0, 87, 21
3, 472711, Note_on_c, 0, 89, 0
3, 472736, Note_on_c, 0, 89, 28
3, 472759, Note_on_c, 0, 87, 0
3, 472785, Note_on_c, 0, 87, 29
3, 472806, Note_on_c, 0, 89, 0
3, 472832, Note_on_c, 0, 89, 22
3, 472855, Note_on_c, 0, 87, 0
3, 472880, Note_on_c, 0, 87, 19
3, 472902, Note_on_c, 0, 89, 0
3, 472928, Note_on_c, 0, 89, 34
3, 472950, Note_on_c, 0, 87, 0
3, 472976, Note_on_c, 0, 87, 33
3, 472998, Note_on_c, 0, 89, 0
3, 473023, Note_on_c, 0, 89, 33
3, 473046, Note_on_c, 0, 87, 0
3, 473071, Note_on_c, 0, 87, 22
3, 473093, Note_on_c, 0, 89, 0
3, 473119, Note_on_c, 0, 89, 20
3, 473141, Note_on_c, 0, 87, 0
3, 473167, Note_on_c, 0, 87, 33
3, 473189, Note_on_c, 0, 89, 0
3, 473215, Note_on_c, 0, 89, 39
3, 473237, Note_on_c, 0, 87, 0
3, 473263, Note_on_c, 0, 87, 20
3, 473285, Note_on_c, 0, 89, 0
3, 473310, Note_on_c, 0, 89, 37
3, 473333, Note_on_c, 0, 87, 0
3, 473358, Note_on_c, 0, 87, 33
3, 473380, Note_on_c, 0, 89, 0
3, 473406, Note_on_c, 0, 89, 33
3, 473428, Note_on_c, 0, 87, 0
3, 473454, Note_on_c, 0, 87, 22
3, 473476, Note_on_c, 0, 89, 0
3, 473501, Note_on_c, 0, 89, 33
3, 473524, Note_on_c, 0, 87, 0
3, 473550, Note_on_c, 0, 87, 24
3, 473571, Note_on_c, 0, 89, 0
3, 473597, Note_on_c, 0, 89, 29
3, 473620, Note_on_c, 0, 87, 0
3, 473645, Note_on_c, 0, 87, 27
3, 473667, Note_on_c, 0, 89, 0
3, 473693, Note_on_c, 0, 89, 28
3, 473715, Note_on_c, 0, 87, 0
3, 473741, Note_on_c, 0, 87, 22
3, 473763, Note_on_c, 0, 89, 0
3, 473788, Note_on_c, 0, 89, 20
3, 473811, Note_on_c, 0, 87, 0
3, 473836, Note_on_c, 0, 87, 30
3, 473858, Note_on_c, 0, 89, 0
3, 473884, Note_on_c, 0, 89, 23
3, 473906, Note_on_c, 0, 87, 0
3, 473932, Note_on_c, 0, 87, 28
3, 473954, Note_on_c, 0, 89, 0
3, 473980, Note_on_c, 0, 89, 35
3, 474002, Note_on_c, 0, 87, 0
3, 474028, Note_on_c, 0, 87, 29
3, 474050, Note_on_c, 0, 89, 0
3, 474075, Note_on_c, 0, 89, 24
3, 474098, Note_on_c, 0, 87, 0
3, 474123, Note_on_c, 0, 87, 32
3, 474145, Note_on_c, 0, 89, 0
3, 474171, Note_on_c, 0, 89, 19
3, 474193, Note_on_c, 0, 87, 0
3, 474219, Note_on_c, 0, 87, 26
3, 474241, Note_on_c, 0, 89, 0
3, 474266, Note_on_c, 0, 89, 28
3, 474289, Note_on_c, 0, 87, 0
3, 474315, Note_on_c, 0, 87, 34
3, 474336, Note_on_c, 0, 89, 0
3, 474362, Note_on_c, 0, 89, 34
3, 474385, Note_on_c, 0, 87, 0
3, 474410, Note_on_c, 0, 87, 28
3, 474432, Note_on_c, 0, 89, 0
3, 474458, Note_on_c, 0, 89, 26
3, 474480, Note_on_c, 0, 87, 0
3, 474506, Note_on_c, 0, 87, 34
3, 474528, Note_on_c, 0, 89, 0
3, 474553, Note_on_c, 0, 89, 30
3, 474576, Note_on_c, 0, 87, 0
3, 474601, Note_on_c, 0, 87, 28
3, 474623, Note_on_c, 0, 89, 0
3, 474649, Note_on_c, 0, 89, 26
3, 474671, Note_on_c, 0, 87, 0
3, 474697, Note_on_c, 0, 87, 29
3, 474719, Note_on_c, 0, 89, 0
3, 474745, Note_on_c, 0, 89, 31
3, 474767, Note_on_c, 0, 87, 0
3, 474793, Note_on_c, 0, 87, 30
3, 474815, Note_on_c, 0, 89, 0
3, 474840, Note_on_c, 0, 89, 28
3, 474863, Note_on_c, 0, 87, 0
3, 474888, Note_on_c, 0, 87, 20
3, 474910, Note_on_c, 0, 89, 0
3, 474936, Note_on_c, 0, 89, 26
3, 474958, Note_on_c, 0, 87, 0
3, 474984, Note_on_c, 0, 87, 33
3, 475006, Note_on_c, 0, 89, 0
3, 475031, Note_on_c, 0, 89, 21
3, 475054, Note_on_c, 0, 87, 0
3, 475080, Note_on_c, 0, 87, 30
3, 475101, Note_on_c, 0, 89, 0
3, 475127, Note_on_c, 0, 89, 22
3, 475150, Note_on_c, 0, 87, 0
3, 475175, Note_on_c, 0, 87, 22
3, 475197, Note_on_c, 0, 89, 0
3, 475223, Note_on_c, 0, 89, 29
3, 475245, Note_on_c, 0, 87, 0
3, 475271, Note_on_c, 0, 87, 23
3, 475293, Note_on_c, 0, 89, 0
3, 475318, Note_on_c, 0, 89, 34
3, 475341, Note_on_c, 0, 87, 0
3, 475366, Note_on_c, 0, 87, 34
3, 475388, Note_on_c, 0, 89, 0
3, 475414, Note_on_c, 0, 89, 31
3, 475436, Note_on_c, 0, 87, 0
3, 475462, Note_on_c, 0, 87, 23
3, 475484, Note_on_c, 0, 89, 0
3, 475510, Note_on_c, 0, 89, 21
3, 475532, Note_on_c, 0, 87, 0
3, 475558, Note_on_c, 0, 87, 30
3, 475580, Note_on_c, 0, 89, 0
3, 475605, Note_on_c, 0, 89, 37
3, 475628, Note_on_c, 0, 87, 0
3, 475653, Note_on_c, 0, 87, 36
3, 475675, Note_on_c, 0, 89, 0
3, 475701, Note_on_c, 0, 89, 27
3, 475723, Note_on_c, 0, 87, 0
3, 475749, Note_on_c, 0, 87, 23
3, 475771, Note_on_c, 0, 89, 0
3, 475796, Note_on_c, 0, 89, 38
3, 475819, Note_on_c, 0, 87, 0
3, 475845, Note_on_c, 0, 87, 32
3, 475866, Note_on_c, 0, 89, 0
3, 475892, Note_on_c, 0, 89, 32
3, 475915, Note_on_c, 0, 87, 0
3, 475940, Note_on_c, 0, 87, 21
3, 475962, Note_on_c, 0, 89, 0
3, 475988, Note_on_c, 0, 89, 23
3, 476010, Note_on_c, 0, 87, 0
3, 476036, Note_on_c, 0, 87, 28
3, 476058, Note_on_c, 0, 89, 0
3, 476083, Note_on_c, 0, 89, 39
3, 476106, Note_on_c, 0, 87, 0
3, 476131, Note_on_c, 0, 87, 26
3, 476153, Note_on_c, 0, 89, 0
3, 476179, Note_on_c, 0, 89, 19
3, 476201, Note_on_c, 0, 87, 0
3, 476227, Note_on_c, 0, 87, 39
3, 476249, Note_on_c, 0, 89, 0
3, 476275, Note_on_c, 0, 89, 21
3, 476297, Note_on_c, 0, 87, 0
3, 476323, Note_on_c, 0, 87, 30
3, 476345, Note_on_c, 0, 89, 0
3, 476370, Note_on_c, 0, 89, 31
3, 476393, Note_on_c, 0, 87, 0
3, 476418, Note_on_c, 0, 87, 31
3, 476440, Note_on_c, 0, 89, 0
3, 476466, Note_on_c, 0, 89, 31
3, 476488, Note_on_c, 0, 87, 0
3, 476514, Note_on_c, 0, 87, 24
3, 476536, Note_on_c, 0, 89, 0
3, 476561, Note_on_c, 0, 89, 29
3, 476584, Note_on_c, 0, 87, 0
3, 476610, Note_on_c, 0, 87, 30
3, 476631, Note_on_c, 0, 89, 0
3, 476657, Note_on_c, 0, 89, 30
3, 476680, Note_on_c, 0, 87, 0
3, 476705, Note_on_c, 0, 87, 27
3, 476727, Note_on_c, 0, 89, 0
3, 476753, Note_on_c, 0, 89, 24
3, 476775, Note_on_c, 0, 87, 0
3, 476801, Note_on_c, 0, 87, 20
3, 476823, Note_on_c, 0, 89, 0
3, 476848, Note_on_c, 0, 89, 20
3, 476871, Note_on_c, 0, 87, 0
3, 476896, Note_on_c, 0, 87, 32
3, 476918, Note_on_c, 0, 89, 0
3, 476944, Note_on_c, 0, 89, 37
3, 476966, Note_on_c, 0, 87, 0
3, 476992, Note_on_c, 0, 87, 21
3, 477014, Note_on_c, 0, 89, 0
3, 477040, Note_on_c, 0, 89, 20
3, 477062, Note_on_c, 0, 87, 0
3, 477088, Note_on_c, 0, 87, 21
3, 477110, Note_on_c, 0, 89, 0
3, 477135, Note_on_c, 0, 89, 23
3, 477158, Note_on_c, 0, 87, 0
3, 477183, Note_on_c, 0, 87, 38
3, 477205, Note_on_c, 0, 89, 0
3, 477231, Note_on_c, 0, 89, 21
3, 477253, Note_on_c, 0, 87, 0
3, 477279, Note_on_c, 0, 87, 36
3, 477301, Note_on_c, 0, 89, 0
3, 477326, Note_on_c, 0, 89, 24
3, 477349, Note_on_c, 0, 87, 0
3, 477375, Note_on_c, 0, 87, 21
3, 477396, Note_on_c, 0, 89, 0
3, 477422, Note_on_c, 0, 89, 27
3, 477445, Note_on_c, 0, 87, 0
3, 477470, Note_on_c, 0, 87, 27
3, 477492, Note_on_c, 0, 89, 0
3, 477518, Note_on_c, 0, 89, 25
3, 477540, Note_on_c, 0, 87, 0
3, 477566, Note_on_c, 0, 87, 24
3, 477588, Note_on_c, 0, 89, 0
3, 477613, Note_on_c, 0, 89, 19
3, 477636, Note_on_c, 0, 87, 0
3, 477661, Note_on_c, 0, 87, 39
3, 477683, Note_on_c, 0, 89, 0
3, 477709, Note_on_c, 0, 89, 21
3, 477731, Note_on_c, 0, 87, 0
3, 477757, Note_on_c, 0, 87, 24
3, 477779, Note_on_c, 0, 89, 0
3, 477805, Note_on_c, 0, 89, 36
3, 477827, Note_on_c, 0, 87, 0
3, 477853, Note_on_c, 0, 87, 29
3, 477875, Note_on_c, 0, 89, 0
3, 477900, Note_on_c, 0, 89, 35
3, 477923, Note_on_c, 0, 87, 0
3, 477948, Note_on_c, 0, 87, 33
3, 477970, Note_on_c, 0, 89, 0
3, 477996, Note_on_c, 0, 89, 33
3, 478018, Note_on_c, 0, 87, 0
3, 478044, Note_on_c, 0, 87, 33
3, 478066, Note_on_c, 0, 89, 0
3, 478091, Note_on_c, 0, 89, 33
3, 478114, Note_on_c, 0, 87, 0
3, 478140, Note_on_c, 0, 87, 23
3, 478161, Note_on_c, 0, 89, 0
3, 478187, Note_on_c, 0, 89, 20
3, 478210, Note_on_c, 0, 87, 0
3, 478235, Note_on_c, 0, 87, 35
3, 478257, Note_on_c, 0, 89, 0
3, 478283, Note_on_c, 0, 89, 21
3, 478305, Note_on_c, 0, 87, 0
3, 478331, Note_on_c, 0, 87, 20
3, 478353, Note_on_c, 0, 89, 0
3, 478378, Note_on_c, 0, 89, 21
3, 478401, Note_on_c, 0, 87, 0
3, 478426, Note_on_c, 0, 87, 38
3, 478448, Note_on_c, 0, 89, 0
3, 478474, Note_on_c, 0, 89, 26
3, 478496, Note_on_c, 0, 87, 0
3, 478522, Note_on_c, 0, 87, 20
3, 478544, Note_on_c, 0, 89, 0
3, 478570, Note_on_c, 0, 89, 39
3, 478600, Note_on_c, 0, 87, 0
3, 478618, Note_on_c, 0, 87, 22
3, 478640, Note_on_c, 0, 89, 0
3, 478665, Note_on_c, 0, 89, 23
3, 478688, Note_on_c, 0, 87, 0
3, 478713, Note_on_c, 0, 87, 34
3, 478735, Note_on_c, 0, 89, 0
3, 478761, Note_on_c, 0, 89, 38
3, 478783, Note_on_c, 0, 87, 0
3, 478809, Note_on_c, 0, 87, 28
3, 478831, Note_on_c, 0, 89, 0
3, 478856, Note_on_c, 0, 89, 27
3, 478879, Note_on_c, 0, 87, 0
3, 478905, Note_on_c, 0, 87, 30
3, 478926, Note_on_c, 0, 89, 0
3, 478952, Note_on_c, 0, 89, 34
3, 478975, Note_on_c, 0, 87, 0
3, 479000, Note_on_c, 0, 87, 27
3, 479022, Note_on_c, 0, 89, 0
3, 479048, Note_on_c, 0, 89, 33
3, 479070, Note_on_c, 0, 87, 0
3, 479096, Note_on_c, 0, 87, 28
3, 479118, Note_on_c, 0, 89, 0
3, 479143, Note_on_c, 0, 89, 38
3, 479166, Note_on_c, 0, 87, 0
3, 479191, Note_on_c, 0, 87, 32
3, 479213, Note_on_c, 0, 89, 0
3, 479239, Note_on_c, 0, 89, 19
3, 479261, Note_on_c, 0, 87, 0
3, 479287, Note_on_c, 0, 87, 31
3, 479309, Note_on_c, 0, 89, 0
3, 479335, Note_on_c, 0, 89, 19
3, 479357, Note_on_c, 0, 87, 0
3, 479383, Note_on_c, 0, 87, 25
3, 479405, Note_on_c, 0, 89, 0
3, 479430, Note_on_c, 0, 89, 25
3, 479453, Note_on_c, 0, 87, 0
3, 479478, Note_on_c, 0, 87, 20
3, 479500, Note_on_c, 0, 89, 0
3, 479526, Note_on_c, 0, 89, 35
3, 479548, Note_on_c, 0, 87, 0
3, 479574, Note_on_c, 0, 87, 23
3, 479596, Note_on_c, 0, 89, 0
3, 479621, Note_on_c, 0, 89, 24
3, 479644, Note_on_c, 0, 87, 0
3, 479670, Note_on_c, 0, 87, 33
3, 479691, Note_on_c, 0, 89, 0
3, 479717, Note_on_c, 0, 89, 19
3, 479740, Note_on_c, 0, 87, 0
3, 479765, Note_on_c, 0, 87, 38
3, 479787, Note_on_c, 0, 89, 0
3, 479813, Note_on_c, 0, 89, 32
3, 479835, Note_on_c, 0, 87, 0
3, 479861, Note_on_c, 0, 87, 20
3, 479883, Note_on_c, 0, 89, 0
3, 479908, Note_on_c, 0, 89, 20
3, 479931, Note_on_c, 0, 87, 0
3, 479956, Note_on_c, 0, 87, 35
3, 479978, Note_on_c, 0, 89, 0
3, 480004, Note_on_c, 0, 89, 37
3, 480026, Note_on_c, 0, 87, 0
3, 480052, Note_on_c, 0, 87, 20
3, 480074, Note_on_c, 0, 89, 0
3, 480100, Note_on_c, 0, 89, 25
3, 480122, Note_on_c, 0, 87, 0
3, 480148, Note_on_c, 0, 87, 23
3, 480170, Note_on_c, 0, 89, 0
3, 480195, Note_on_c, 0, 89, 24
3, 480218, Note_on_c, 0, 87, 0
3, 480243, Note_on_c, 0, 87, 37
3, 480265, Note_on_c, 0, 89, 0
3, 480291, Note_on_c, 0, 89, 39
3, 480313, Note_on_c, 0, 87, 0
3, 480339, Note_on_c, 0, 87, 38
3, 480361, Note_on_c, 0, 89, 0
3, 480386, Note_on_c, 0, 89, 20
3, 480409, Note_on_c, 0, 87, 0
3, 480435, Note_on_c, 0, 87, 34
3, 480456, Note_on_c, 0, 89, 0
3, 480482, Note_on_c, 0, 89, 25
3, 480505, Note_on_c, 0, 87, 0
3, 480530, Note_on_c, 0, 87, 23
3, 480552, Note_on_c, 0, 89, 0
3, 480578, Note_on_c, 0, 89, 27
3, 480600, Note_on_c, 0, 87, 0
3, 480626, Note_on_c, 0, 87, 23
3, 480648, Note_on_c, 0, 89, 0
3, 480673, Note_on_c, 0, 89, 32
3, 480696, Note_on_c, 0, 87, 0
3, 480721, Note_on_c, 0, 87, 35
3, 480743, Note_on_c, 0, 89, 0
3, 480769, Note_on_c, 0, 89, 28
3, 480791, Note_on_c, 0, 87, 0
3, 480817, Note_on_c, 0, 87, 27
3, 480839, Note_on_c, 0, 89, 0
3, 480865, Note_on_c, 0, 89, 39
3, 480887, Note_on_c, 0, 87, 0
3, 480913, Note_on_c, 0, 87, 27
3, 480935, Note_on_c, 0, 89, 0
3, 480960, Note_on_c, 0, 89, 21
3, 480983, Note_on_c, 0, 87, 0
3, 481008, Note_on_c, 0, 87, 26
3, 481030, Note_on_c, 0, 89, 0
3, 481056, Note_on_c, 0, 89, 22
3, 481078, Note_on_c, 0, 87, 0
3, 481104, Note_on_c, 0, 87, 26
3, 481126, Note_on_c, 0, 89, 0
3, 481151, Note_on_c, 0, 89, 19
3, 481174, Note_on_c, 0, 87, 0
3, 481200, Note_on_c, 0, 87, 34
3, 481221, Note_on_c, 0, 89, 0
3, 481247, Note_on_c, 0, 89, 28
3, 481270, Note_on_c, 0, 87, 0
3, 481295, Note_on_c, 0, 87, 28
3, 481317, Note_on_c, 0, 89, 0
3, 481343, Note_on_c, 0, 89, 19
3, 481365, Note_on_c, 0, 87, 0
3, 481391, Note_on_c, 0, 87, 23
3, 481413, Note_on_c, 0, 89, 0
3, 481438, Note_on_c, 0, 89, 35
3, 481461, Note_on_c, 0, 87, 0
3, 481486, Note_on_c, 0, 87, 29
3, 481508, Note_on_c, 0, 89, 0
3, 481534, Note_on_c, 0, 89, 39
3, 481556, Note_on_c, 0, 87, 0
3, 481582, Note_on_c, 0, 87, 22
3, 481604, Note_on_c, 0, 89, 0
3, 481630, Note_on_c, 0, 89, 25
3, 481652, Note_on_c, 0, 87, 0
3, 481678, Note_on_c, 0, 87, 25
3, 481700, Note_on_c, 0, 89, 0
3, 481725, Note_on_c, 0, 89, 32
3, 481748, Note_on_c, 0, 87, 0
3, 481773, Note_on_c, 0, 87, 33
3, 481795, Note_on_c, 0, 89, 0
3, 481821, Note_on_c, 0, 89, 20
3, 481843, Note_on_c, 0, 87, 0
3, 481869, Note_on_c, 0, 87, 28
3, 481891, Note_on_c, 0, 89, 0
3, 481916, Note_on_c, 0, 89, 38
3, 481939, Note_on_c, 0, 87, 0
3, 481965, Note_on_c, 0, 87, 31
3, 481986, Note_on_c, 0, 89, 0
3, 482012, Note_on_c, 0, 89, 36
3, 482035, Note_on_c, 0, 87, 0
3, 482060, Note_on_c, 0, 87, 25
3, 482082, Note_on_c, 0, 89, 0
3, 482108, Note_on_c, 0, 89, 33
3, 482130, Note_on_c, 0, 87, 0
3, 482156, Note_on_c, 0, 87, 24
3, 482178, Note_on_c, 0, 89, 0
3, 482203, Note_on_c, 0, 89, 22
3, 482226, Note_on_c, 0, 87, 0
3, 482251, Note_on_c, 0, 87, 36
3, 482273, Note_on_c, 0, 89, 0
3, 482299, Note_on_c, 0, 89, 34
3, 482321, Note_on_c, 0, 87, 0
3, 482347, Note_on_c, 0, 87, 21
3, 482369, Note_on_c, 0, 89, 0
3, 482395, Note_on_c, 0, 89, 21
3, 482417, Note_on_c, 0, 87, 0
3, 482443, Note_on_c, 0, 87, 32
3, 482465, Note_on_c, 0, 89, 0
3, 482490, Note_on_c, 0, 89, 20
3, 482513, Note_on_c, 0, 87, 0
3, 482538, Note_on_c, 0, 87, 35
3, 482560, Note_on_c, 0, 89, 0
3, 482586, Note_on_c, 0, 89, 21
3, 482608, Note_on_c, 0, 87, 0
3, 482634, Note_on_c, 0, 87, 33
3, 482656, Note_on_c, 0, 89, 0
3, 482681, Note_on_c, 0, 89, 19
3, 482704, Note_on_c, 0, 87, 0
3, 482730, Note_on_c, 0, 87, 20
3, 482751, Note_on_c, 0, 89, 0
3, 482777, Note_on_c, 0, 89, 36
3, 482800, Note_on_c, 0, 87, 0
3, 482825, Note_on_c, 0, 87, 22
3, 482847, Note_on_c, 0, 89, 0
3, 482873, Note_on_c, 0, 89, 35
3, 482895, Note_on_c, 0, 87, 0
3, 482921, Note_on_c, 0, 87, 25
3, 482943, Note_on_c, 0, 89, 0
3, 482968, Note_on_c, 0, 89, 28
3, 482991, Note_on_c, 0, 87, 0
3, 483016, Note_on_c, 0, 87, 24
3, 483038, Note_on_c, 0, 89, 0
3, 483064, Note_on_c, 0, 89, 33
3, 483086, Note_on_c, 0, 87, 0
3, 483112, Note_on_c, 0, 87, 37
3, 483134, Note_on_c, 0, 89, 0
3, 483160, Note_on_c, 0, 89, 23
3, 483182, Note_on_c, 0, 87, 0
3, 483208, Note_on_c, 0, 87, 30
3, 483230, Note_on_c, 0, 89, 0
3, 483255, Note_on_c, 0, 89, 32
3, 483278, Note_on_c, 0, 87, 0
3, 483303, Note_on_c, 0, 87, 38
3, 483325, Note_on_c, 0, 89, 0
3, 483351, Note_on_c, 0, 89, 39
3, 483373, Note_on_c, 0, 87, 0
3, 483399, Note_on_c, 0, 87, 23
3, 483421, Note_on_c, 0, 89, 0
3, 483446, Note_on_c, 0, 89, 34
3, 483469, Note_on_c, 0, 87, 0
3, 483495, Note_on_c, 0, 87, 21
3, 483516, Note_on_c, 0, 89, 0
3, 483542, Note_on_c, 0, 89, 29
3, 483565, Note_on_c, 0, 87, 0
3, 483590, Note_on_c, 0, 87, 32
3, 483612, Note_on_c, 0, 89, 0
3, 483638, Note_on_c, 0, 89, 28
3, 483660, Note_on_c, 0, 87, 0
3, 483686, Note_on_c, 0, 87, 34
3, 483708, Note_on_c, 0, 89, 0
3, 483733, Note_on_c, 0, 89, 33
3, 483756, Note_on_c, 0, 87, 0
3, 483781, Note_on_c, 0, 87, 26
3, 483803, Note_on_c, 0, 89, 0
3, 483829, Note_on_c, 0, 89, 28
3, 483851, Note_on_c, 0, 87, 0
3, 483877, Note_on_c, 0, 87, 23
3, 483899, Note_on_c, 0, 89, 0
3, 483925, Note_on_c, 0, 89, 36
3, 483947, Note_on_c, 0, 87, 0
3, 483973, Note_on_c, 0, 87, 38
3, 483995, Note_on_c, 0, 89, 0
3, 484020, Note_on_c, 0, 89, 30
3, 484043, Note_on_c, 0, 87, 0
3, 484068, Note_on_c, 0, 87, 36
3, 484090, Note_on_c, 0, 89, 0
3, 484116, Note_on_c, 0, 89, 19
3, 484138, Note_on_c, 0, 87, 0
3, 484164, Note_on_c, 0, 87, 33
3, 484186, Note_on_c, 0, 89, 0
3, 484211, Note_on_c, 0, 89, 32
3, 484234, Note_on_c, 0, 87, 0
3, 484260, Note_on_c, 0, 87, 36
3, 484281, Note_on_c, 0, 89, 0
3, 484307, Note_on_c, 0, 89, 23
3, 484330, Note_on_c, 0, 87, 0
3, 484355, Note_on_c, 0, 87, 19
3, 484377, Note_on_c, 0, 89, 0
3, 484403, Note_on_c, 0, 89, 36
3, 484425, Note_on_c, 0, 87, 0
3, 484451, Note_on_c, 0, 87, 25
3, 484473, Note_on_c, 0, 89, 0
3, 484498, Note_on_c, 0, 89, 27
3, 484521, Note_on_c, 0, 87, 0
3, 484546, Note_on_c, 0, 87, 20
3, 484568, Note_on_c, 0, 89, 0
3, 484594, Note_on_c, 0, 89, 31
3, 484616, Note_on_c, 0, 87, 0
3, 484642, Note_on_c, 0, 87, 22
3, 484664, Note_on_c, 0, 89, 0
3, 484690, Note_on_c, 0, 89, 24
3, 484712, Note_on_c, 0, 87, 0
3, 484738, Note_on_c, 0, 87, 34
3, 484760, Note_on_c, 0, 89, 0
3, 484785, Note_on_c, 0, 89, 28
3, 484808, Note_on_c, 0, 87, 0
3, 484833, Note_on_c, 0, 87, 36
3, 484855, Note_on_c, 0, 89, 0
3, 484881, Note_on_c, 0, 89, 30
3, 484903, Note_on_c, 0, 87, 0
3, 484929, Note_on_c, 0, 87, 38
3, 484951, Note_on_c, 0, 89, 0
3, 484976, Note_on_c, 0, 89, 29
3, 484999, Note_on_c, 0, 87, 0
3, 485025, Note_on_c, 0, 87, 32
3, 485046, Note_on_c, 0, 89, 0
3, 485072, Note_on_c, 0, 89, 21
3, 485095, Note_on_c, 0, 87, 0
3, 485120, Note_on_c, 0, 87, 36
3, 485142, Note_on_c, 0, 89, 0
3, 485168, Note_on_c, 0, 89, 32
3, 485190, Note_on_c, 0, 87, 0
3, 485216, Note_on_c, 0, 87, 37
3, 485238, Note_on_c, 0, 89, 0
3, 485263, Note_on_c, 0, 89, 29
3, 485286, Note_on_c, 0, 87, 0
3, 485311, Note_on_c, 0, 87, 29
3, 485333, Note_on_c, 0, 89, 0
3, 485359, Note_on_c, 0, 89, 29
3, 485381, Note_on_c, 0, 87, 0
3, 485407, Note_on_c, 0, 87, 35
3, 485429, Note_on_c, 0, 89, 0
3, 485455, Note_on_c, 0, 89, 19
3, 485477, Note_on_c, 0, 87, 0
3, 485503, Note_on_c, 0, 87, 29
3, 485525, Note_on_c, 0, 89, 0
3, 485550, Note_on_c, 0, 89, 23
3, 485573, Note_on_c, 0, 87, 0
3, 485598, Note_on_c, 0, 87, 32
3, 485620, Note_on_c, 0, 89, 0
3, 485646, Note_on_c, 0, 89, 20
3, 485668, Note_on_c, 0, 87, 0
3, 485694, Note_on_c, 0, 87, 19
3, 485716, Note_on_c, 0, 89, 0
3, 485741, Note_on_c, 0, 89, 26
3, 485764, Note_on_c, 0, 87, 0
3, 485790, Note_on_c, 0, 87, 35
3, 485811, Note_on_c, 0, 89, 0
3, 485837, Note_on_c, 0, 89, 30
3, 485860, Note_on_c, 0, 87, 0
3, 485885, Note_on_c, 0, 87, 28
3, 485907, Note_on_c, 0, 89, 0
3, 485933, Note_on_c, 0, 89, 29
3, 485955, Note_on_c, 0, 87, 0
3, 485981, Note_on_c, 0, 87, 22
3, 486003, Note_on_c, 0, 89, 0
3, 486028, Note_on_c, 0, 89, 33
3, 486051, Note_on_c, 0, 87, 0
3, 486076, Note_on_c, 0, 87, 35
3, 486098, Note_on_c, 0, 89, 0
3, 486124, Note_on_c, 0, 89, 32
3, 486146, Note_on_c, 0, 87, 0
3, 486172, Note_on_c, 0, 87, 33
3, 486194, Note_on_c, 0, 89, 0
3, 486220, Note_on_c, 0, 89, 23
3, 486242, Note_on_c, 0, 87, 0
3, 486268, Note_on_c, 0, 87, 38
3, 486290, Note_on_c, 0, 89, 0
3, 486315, Note_on_c, 0, 89, 20
3, 486338, Note_on_c, 0, 87, 0
3, 486363, Note_on_c, 0, 87, 33
3, 486385, Note_on_c, 0, 89, 0
3, 486411, Note_on_c, 0, 89, 28
3, 486433, Note_on_c, 0, 87, 0
3, 486459, Note_on_c, 0, 87, 32
3, 486481, Note_on_c, 0, 89, 0
3, 486506, Note_on_c, 0, 89, 27
3, 486529, Note_on_c, 0, 87, 0
3, 486555, Note_on_c, 0, 87, 33
3, 486576, Note_on_c, 0, 89, 0
3, 486602, Note_on_c, 0, 89, 24
3, 486625, Note_on_c, 0, 87, 0
3, 486650, Note_on_c, 0, 87, 30
3, 486672, Note_on_c, 0, 89, 0
3, 486698, Note_on_c, 0, 89, 28
3, 486720, Note_on_c, 0, 87, 0
3, 486746, Note_on_c, 0, 87, 39
3, 486768, Note_on_c, 0, 89, 0
3, 486793, Note_on_c, 0, 89, 38
3, 486816, Note_on_c, 0, 87, 0
3, 486841, Note_on_c, 0, 87, 25
3, 486863, Note_on_c, 0, 89, 0
3, 486889, Note_on_c, 0, 89, 37
3, 486911, Note_on_c, 0, 87, 0
3, 486937, Note_on_c, 0, 87, 36
3, 486959, Note_on_c, 0, 89, 0
3, 486985, Note_on_c, 0, 89, 24
3, 487007, Note_on_c, 0, 87, 0
3, 487033, Note_on_c, 0, 87, 21
3, 487055, Note_on_c, 0, 89, 0
3, 487080, Note_on_c, 0, 89, 26
3, 487103, Note_on_c, 0, 87, 0
3, 487128, Note_on_c, 0, 87, 29
3, 487150, Note_on_c, 0, 89, 0
3, 487176, Note_on_c, 0, 89, 30
3, 487198, Note_on_c, 0, 87, 0
3, 487224, Note_on_c, 0, 87, 38
3, 487246, Note_on_c, 0, 89, 0
3, 487271, Note_on_c, 0, 89, 20
3, 487294, Note_on_c, 0, 87, 0
3, 487320, Note_on_c, 0, 87, 23
3, 487341, Note_on_c, 0, 89, 0
3, 487367, Note_on_c, 0, 89, 22
3, 487390, Note_on_c, 0, 87, 0
3, 487415, Note_on_c, 0, 87, 35
3, 487437, Note_on_c, 0, 89, 0
3, 487463, Note_on_c, 0, 89, 19
3, 487485, Note_on_c, 0, 87, 0
3, 487511, Note_on_c, 0, 87, 21
3, 487533, Note_on_c, 0, 89, 0
3, 487558, Note_on_c, 0, 89, 19
3, 487581, Note_on_c, 0, 87, 0
3, 487606, Note_on_c, 0, 87, 29
3, 487628, Note_on_c, 0, 89, 0
3, 487654, Note_on_c, 0, 89, 39
3, 487676, Note_on_c, 0, 87, 0
3, 487702, Note_on_c, 0, 87, 23
3, 487724, Note_on_c, 0, 89, 0
3, 487750, Note_on_c, 0, 89, 19
3, 487772, Note_on_c, 0, 87, 0
3, 487798, Note_on_c, 0, 87, 35
3, 487820, Note_on_c, 0, 89, 0
3, 487845, Note_on_c, 0, 89, 22
3, 487868, Note_on_c, 0, 87, 0
3, 487893, Note_on_c, 0, 87, 30
3, 487915, Note_on_c, 0, 89, 0
3, 487941, Note_on_c, 0, 89, 23
3, 487963, Note_on_c, 0, 87, 0
3, 487989, Note_on_c, 0, 87, 20
3, 488011, Note_on_c, 0, 89, 0
3, 488036, Note_on_c, 0, 89, 32
3, 488059, Note_on_c, 0, 87, 0
3, 488085, Note_on_c, 0, 87, 23
3, 488106, Note_on_c, 0, 89, 0
3, 488132, Note_on_c, 0, 89, 37
3, 488155, Note_on_c, 0, 87, 0
3, 488180, Note_on_c, 0, 87, 34
3, 488202, Note_on_c, 0, 89, 0
3, 488228, Note_on_c, 0, 89, 31
3, 488250, Note_on_c, 0, 87, 0
3, 488276, Note_on_c, 0, 87, 22
3, 488298, Note_on_c, 0, 89, 0
3, 488323, Note_on_c, 0, 89, 37
3, 488346, Note_on_c, 0, 87, 0
3, 488371, Note_on_c, 0, 87, 34
3, 488393, Note_on_c, 0, 89, 0
3, 488419, Note_on_c, 0, 89, 33
3, 488441, Note_on_c, 0, 87, 0
3, 488467, Note_on_c, 0, 87, 23
3, 488489, Note_on_c, 0, 89, 0
3, 488515, Note_on_c, 0, 89, 39
3, 488537, Note_on_c, 0, 87, 0
3, 488563, Note_on_c, 0, 87, 34
3, 488585, Note_on_c, 0, 89, 0
3, 488610, Note_on_c, 0, 89, 36
3, 488633, Note_on_c, 0, 87, 0
3, 488658, Note_on_c, 0, 87, 26
3, 488680, Note_on_c, 0, 89, 0
3, 488706, Note_on_c, 0, 89, 36
3, 488728, Note_on_c, 0, 87, 0
3, 488754, Note_on_c, 0, 87, 38
3, 488776, Note_on_c, 0, 89, 0
3, 488801, Note_on_c, 0, 89, 36
3, 488824, Note_on_c, 0, 87, 0
3, 488850, Note_on_c, 0, 87, 24
3, 488871, Note_on_c, 0, 89, 0
3, 488897, Note_on_c, 0, 89, 37
3, 488920, Note_on_c, 0, 87, 0
3, 488945, Note_on_c, 0, 87, 28
3, 488967, Note_on_c, 0, 89, 0
3, 488993, Note_on_c, 0, 89, 19
3, 489015, Note_on_c, 0, 87, 0
3, 489041, Note_on_c, 0, 87, 29
3, 489063, Note_on_c, 0, 89, 0
3, 489088, Note_on_c, 0, 89, 36
3, 489111, Note_on_c, 0, 87, 0
3, 489136, Note_on_c, 0, 87, 20
3, 489158, Note_on_c, 0, 89, 0
3, 489184, Note_on_c, 0, 89, 29
3, 489206, Note_on_c, 0, 87, 0
3, 489232, Note_on_c, 0, 87, 39
3, 489254, Note_on_c, 0, 89, 0
3, 489280, Note_on_c, 0, 89, 39
3, 489302, Note_on_c, 0, 87, 0
3, 489328, Note_on_c, 0, 87, 30
3, 489350, Note_on_c, 0, 89, 0
3, 489375, Note_on_c, 0, 89, 38
3, 489398, Note_on_c, 0, 87, 0
3, 489423, Note_on_c, 0, 87, 29
3, 489445, Note_on_c, 0, 89, 0
3, 489471, Note_on_c, 0, 89, 31
3, 489493, Note_on_c, 0, 87, 0
3, 489519, Note_on_c, 0, 87, 26
3, 489541, Note_on_c, 0, 89, 0
3, 489589, Note_on_c, 0, 87, 0
3, 497294, Note_on_c, 0, 93, 83
3, 497294, Note_on_c, 0, 89, 91
3, 497305, Note_on_c, 0, 86, 92
3, 497400, Note_on_c, 0, 88, 73
3, 497410, Note_on_c, 0, 84, 75
3, 497414, Note_on_c, 0, 93, 0
3, 497414, Note_on_c, 0, 89, 0
3, 497418, Note_on_c, 0, 91, 83
3, 497425, Note_on_c, 0, 86, 0
3, 497520, Note_on_c, 0, 88, 0
3, 497527, Note_on_c, 0, 86, 85
3, 497530, Note_on_c, 0, 84, 0
3, 497533, Note_on_c, 0, 89, 85
3, 497538, Note_on_c, 0, 91, 0
3, 497541, Note_on_c, 0, 83, 71
3, 497643, Note_on_c, 0, 88, 74
3, 497647, Note_on_c, 0, 86, 0
3, 497653, Note_on_c, 0, 89, 0
3, 497660, Note_on_c, 0, 81, 82
3, 497661, Note_on_c, 0, 83, 0
3, 497664, Note_on_c, 0, 84, 83
3, 497763, Note_on_c, 0, 88, 0
3, 497767, Note_on_c, 0, 83, 66
3, 497771, Note_on_c, 0, 86, 60
3, 497780, Note_on_c, 0, 81, 0
3, 497780, Note_on_c, 0, 79, 66
3, 497784, Note_on_c, 0, 84, 0
3, 497887, Note_on_c, 0, 83, 0
3, 497891, Note_on_c, 0, 86, 0
3, 497896, Note_on_c, 0, 84, 55
3, 497898, Note_on_c, 0, 77, 73
3, 497900, Note_on_c, 0, 79, 0
3, 497902, Note_on_c, 0, 81, 74
3, 498001, Note_on_c, 0, 79, 62
3, 498005, Note_on_c, 0, 83, 53
3, 498011, Note_on_c, 0, 76, 57
3, 498016, Note_on_c, 0, 84, 0
3, 498018, Note_on_c, 0, 77, 0
3, 498022, Note_on_c, 0, 81, 0
3, 498121, Note_on_c, 0, 79, 0
3, 498125, Note_on_c, 0, 83, 0
3, 498131, Note_on_c, 0, 76, 0
3, 498137, Note_on_c, 0, 74, 64
3, 498138, Note_on_c, 0, 81, 53
3, 498140, Note_on_c, 0, 77, 50
3, 498240, Note_on_c, 0, 86, 92
3, 498247, Note_on_c, 0, 89, 83
3, 498257, Note_on_c, 0, 74, 0
3, 498258, Note_on_c, 0, 81, 0
3, 498260, Note_on_c, 0, 77, 0
3, 498260, Note_on_c, 0, 93, 86
3, 498360, Note_on_c, 0, 86, 0
3, 498362, Note_on_c, 0, 84, 91
3, 498367, Note_on_c, 0, 89, 0
3, 498368, Note_on_c, 0, 91, 85
3, 498375, Note_on_c, 0, 88, 84
3, 498380, Note_on_c, 0, 93, 0
3, 498482, Note_on_c, 0, 84, 0
3, 498488, Note_on_c, 0, 91, 0
3, 498492, Note_on_c, 0, 83, 84
3, 498495, Note_on_c, 0, 88, 0
3, 498498, Note_on_c, 0, 89, 88
3, 498501, Note_on_c, 0, 86, 77
3, 498612, Note_on_c, 0, 83, 0
3, 498614, Note_on_c, 0, 88, 84
3, 498618, Note_on_c, 0, 89, 0
3, 498620, Note_on_c, 0, 81, 64
3, 498621, Note_on_c, 0, 86, 0
3, 498623, Note_on_c, 0, 84, 65
3, 498731, Note_on_c, 0, 79, 79
3, 498734, Note_on_c, 0, 88, 0
3, 498734, Note_on_c, 0, 86, 69
3, 498739, Note_on_c, 0, 83, 76
3, 498740, Note_on_c, 0, 81, 0
3, 498743, Note_on_c, 0, 84, 0
3, 498840, Note_on_c, 0, 84, 63
3, 498845, Note_on_c, 0, 77, 75
3, 498851, Note_on_c, 0, 79, 0
3, 498854, Note_on_c, 0, 86, 0
3, 498859, Note_on_c, 0, 83, 0
3, 498864, Note_on_c, 0, 81, 70
3, 498960, Note_on_c, 0, 84, 0
3, 498965, Note_on_c, 0, 77, 0
3, 498967, Note_on_c, 0, 83, 59
3, 498978, Note_on_c, 0, 79, 71
3, 498981, Note_on_c, 0, 76, 60
3, 498984, Note_on_c, 0, 81, 0
3, 499087, Note_on_c, 0, 83, 0
3, 499087, Note_on_c, 0, 77, 61
3, 499095, Note_on_c, 0, 74, 55
3, 499098, Note_on_c, 0, 79, 0
3, 499101, Note_on_c, 0, 76, 0
3, 499104, Note_on_c, 0, 81, 47
3, 499206, Note_on_c, 0, 89, 82
3, 499207, Note_on_c, 0, 77, 0
3, 499214, Note_on_c, 0, 93, 94
3, 499215, Note_on_c, 0, 74, 0
3, 499224, Note_on_c, 0, 81, 0
3, 499225, Note_on_c, 0, 86, 95
3, 499326, Note_on_c, 0, 89, 0
3, 499329, Note_on_c, 0, 91, 79
3, 499330, Note_on_c, 0, 88, 82
3, 499334, Note_on_c, 0, 93, 0
3, 499339, Note_on_c, 0, 84, 88
3, 499345, Note_on_c, 0, 86, 0
3, 499449, Note_on_c, 0, 91, 0
3, 499449, Note_on_c, 0, 86, 75
3, 499450, Note_on_c, 0, 88, 0
3, 499451, Note_on_c, 0, 89, 85
3, 499458, Note_on_c, 0, 83, 67
3, 499459, Note_on_c, 0, 84, 0
3, 499569, Note_on_c, 0, 86, 0
3, 499569, Note_on_c, 0, 84, 66
3, 499571, Note_on_c, 0, 89, 0
3, 499573, Note_on_c, 0, 88, 82
3, 499578, Note_on_c, 0, 83, 0
3, 499581, Note_on_c, 0, 81, 65
3, 499689, Note_on_c, 0, 84, 0
3, 499693, Note_on_c, 0, 88, 0
3, 499698, Note_on_c, 0, 86, 80
3, 499698, Note_on_c, 0, 93, 84
3, 499701, Note_on_c, 0, 81, 0
3, 499705, Note_on_c, 0, 89, 89
3, 499814, Note_on_c, 0, 88, 91
3, 499816, Note_on_c, 0, 91, 89
3, 499818, Note_on_c, 0, 86, 0
3, 499818, Note_on_c, 0, 93, 0
3, 499818, Note_on_c, 0, 84, 90
3, 499825, Note_on_c, 0, 89, 0
3, 499934, Note_on_c, 0, 88, 0
3, 499936, Note_on_c, 0, 91, 0
3, 499938, Note_on_c, 0, 84, 0
3, 499939, Note_on_c, 0, 89, 75
3, 499940, Note_on_c, 0, 83, 82
3, 499943, Note_on_c, 0, 86, 79
3, 500040, Note_on_c, 0, 84, 66
3, 500051, Note_on_c, 0, 81, 73
3, 500055, Note_on_c, 0, 88, 68
3, 500059, Note_on_c, 0, 89, 0
3, 500060, Note_on_c, 0, 83, 0
3, 500063, Note_on_c, 0, 86, 0
3, 500160, Note_on_c, 0, 84, 0
3, 500165, Note_on_c, 0, 86, 68
3, 500166, Note_on_c, 0, 79, 74
3, 500171, Note_on_c, 0, 81, 0
3, 500175, Note_on_c, 0, 88, 0
3, 500184, Note_on_c, 0, 83, 65
3, 500285, Note_on_c, 0, 86, 0
3, 500286, Note_on_c, 0, 79, 0
3, 500298, Note_on_c, 0, 77, 69
3, 500300, Note_on_c, 0, 81, 60
3, 500301, Note_on_c, 0, 84, 65
3, 500304, Note_on_c, 0, 83, 0
3, 500411, Note_on_c, 0, 76, 53
3, 500418, Note_on_c, 0, 77, 0
3, 500420, Note_on_c, 0, 81, 0
3, 500421, Note_on_c, 0, 84, 0
3, 500423, Note_on_c, 0, 79, 67
3, 500424, Note_on_c, 0, 83, 57
3, 500520, Note_on_c, 0, 77, 59
3, 500528, Note_on_c, 0, 81, 50
3, 500531, Note_on_c, 0, 76, 0
3, 500532, Note_on_c, 0, 74, 59
3, 500543, Note_on_c, 0, 79, 0
3, 500544, Note_on_c, 0, 83, 0
3, 500640, Note_on_c, 0, 77, 0
3, 500648, Note_on_c, 0, 81, 0
3, 500652, Note_on_c, 0, 74, 0
3, 503521, Note_on_c, 0, 86, 82
3, 503522, Note_on_c, 0, 89, 81
3, 503545, Note_on_c, 0, 93, 98
3, 503641, Note_on_c, 0, 86, 0
3, 503642, Note_on_c, 0, 89, 0
3, 503646, Note_on_c, 0, 91, 88
3, 503657, Note_on_c, 0, 84, 90
3, 503660, Note_on_c, 0, 88, 83
3, 503665, Note_on_c, 0, 93, 0
3, 503766, Note_on_c, 0, 91, 0
3, 503767, Note_on_c, 0, 89, 88
3, 503777, Note_on_c, 0, 84, 0
3, 503777, Note_on_c, 0, 83, 82
3, 503780, Note_on_c, 0, 88, 0
3, 503781, Note_on_c, 0, 86, 89
3, 503881, Note_on_c, 0, 88, 83
3, 503887, Note_on_c, 0, 89, 0
3, 503889, Note_on_c, 0, 84, 65
3, 503889, Note_on_c, 0, 81, 79
3, 503897, Note_on_c, 0, 83, 0
3, 503901, Note_on_c, 0, 86, 0
3, 504001, Note_on_c, 0, 88, 0
3, 504009, Note_on_c, 0, 84, 0
3, 504009, Note_on_c, 0, 81, 0
3, 504014, Note_on_c, 0, 79, 77
3, 504021, Note_on_c, 0, 86, 71
3, 504025, Note_on_c, 0, 83, 63
3, 504123, Note_on_c, 0, 84, 60
3, 504134, Note_on_c, 0, 79, 0
3, 504141, Note_on_c, 0, 86, 0
3, 504143, Note_on_c, 0, 77, 59
3, 504144, Note_on_c, 0, 81, 66
3, 504145, Note_on_c, 0, 83, 0
3, 504243, Note_on_c, 0, 84, 0
3, 504249, Note_on_c, 0, 83, 55
3, 504252, Note_on_c, 0, 79, 65
3, 504255, Note_on_c, 0, 76, 51
3, 504263, Note_on_c, 0, 77, 0
3, 504264, Note_on_c, 0, 81, 0
3, 504363, Note_on_c, 0, 74, 49
3, 504367, Note_on_c, 0, 81, 56
3, 504369, Note_on_c, 0, 83, 0
3, 504372, Note_on_c, 0, 79, 0
3, 504375, Note_on_c, 0, 76, 0
3, 504379, Note_on_c, 0, 77, 49
3, 504483, Note_on_c, 0, 74, 0
3, 504484, Note_on_c, 0, 86, 98
3, 504487, Note_on_c, 0, 81, 0
3, 504493, Note_on_c, 0, 89, 82
3, 504493, Note_on_c, 0, 93, 97
3, 504499, Note_on_c, 0, 77, 0
3, 504600, Note_on_c, 0, 84, 89
3, 504604, Note_on_c, 0, 86, 0
3, 504613, Note_on_c, 0, 89, 0
3, 504613, Note_on_c, 0, 93, 0
3, 504615, Note_on_c, 0, 91, 80
3, 504617, Note_on_c, 0, 88, 93
3, 504720, Note_on_c, 0, 84, 0
3, 504727, Note_on_c, 0, 89, 88
3, 504735, Note_on_c, 0, 91, 0
3, 504737, Note_on_c, 0, 88, 0
3, 504741, Note_on_c, 0, 86, 77
3, 504744, Note_on_c, 0, 83, 71
3, 504847, Note_on_c, 0, 89, 0
3, 504855, Note_on_c, 0, 88, 81
3, 504858, Note_on_c, 0, 84, 72
3, 504861, Note_on_c, 0, 86, 0
3, 504862, Note_on_c, 0, 81, 66
3, 504864, Note_on_c, 0, 83, 0
3, 504961, Note_on_c, 0, 83, 71
3, 504966, Note_on_c, 0, 79, 77
3, 504968, Note_on_c, 0, 86, 79
3, 504975, Note_on_c, 0, 88, 0
3, 504978, Note_on_c, 0, 84, 0
3, 504982, Note_on_c, 0, 81, 0
3, 505081, Note_on_c, 0, 83, 0
3, 505085, Note_on_c, 0, 77, 71
3, 505086, Note_on_c, 0, 79, 0
3, 505088, Note_on_c, 0, 86, 0
3, 505088, Note_on_c, 0, 84, 57
3, 505099, Note_on_c, 0, 81, 71
3, 505205, Note_on_c, 0, 77, 0
3, 505207, Note_on_c, 0, 76, 63
3, 505208, Note_on_c, 0, 84, 0
3, 505214, Note_on_c, 0, 83, 62
3, 505218, Note_on_c, 0, 79, 68
3, 505219, Note_on_c, 0, 81, 0
3, 505325, Note_on_c, 0, 81, 54
3, 505327, Note_on_c, 0, 76, 0
3, 505333, Note_on_c, 0, 77, 46
3, 505334, Note_on_c, 0, 83, 0
3, 505338, Note_on_c, 0, 79, 0
3, 505338, Note_on_c, 0, 74, 47
3, 505441, Note_on_c, 0, 93, 93
3, 505444, Note_on_c, 0, 86, 85
3, 505445, Note_on_c, 0, 81, 0
3, 505453, Note_on_c, 0, 77, 0
3, 505456, Note_on_c, 0, 89, 86
3, 505458, Note_on_c, 0, 74, 0
3, 505561, Note_on_c, 0, 93, 0
3, 505563, Note_on_c, 0, 91, 87
3, 505564, Note_on_c, 0, 86, 0
3, 505576, Note_on_c, 0, 89, 0
3, 505582, Note_on_c, 0, 88, 86
3, 505582, Note_on_c, 0, 84, 84
3, 505683, Note_on_c, 0, 91, 0
3, 505683, Note_on_c, 0, 83, 77
3, 505694, Note_on_c, 0, 89, 84
3, 505701, Note_on_c, 0, 86, 86
3, 505702, Note_on_c, 0, 88, 0
3, 505702, Note_on_c, 0, 84, 0
3, 505803, Note_on_c, 0, 83, 0
3, 505813, Note_on_c, 0, 88, 66
3, 505814, Note_on_c, 0, 89, 0
3, 505814, Note_on_c, 0, 84, 77
3, 505820, Note_on_c, 0, 81, 82
3, 505821, Note_on_c, 0, 86, 0
3, 505923, Note_on_c, 0, 89, 88
3, 505925, Note_on_c, 0, 93, 80
3, 505933, Note_on_c, 0, 88, 0
3, 505934, Note_on_c, 0, 84, 0
3, 505939, Note_on_c, 0, 86, 95
3, 505940, Note_on_c, 0, 81, 0
3, 506043, Note_on_c, 0, 89, 0
3, 506045, Note_on_c, 0, 93, 0
3, 506047, Note_on_c, 0, 88, 77
3, 506048, Note_on_c, 0, 91, 74
3, 506056, Note_on_c, 0, 84, 90
3, 506059, Note_on_c, 0, 86, 0
3, 506167, Note_on_c, 0, 88, 0
3, 506168, Note_on_c, 0, 91, 0
3, 506169, Note_on_c, 0, 83, 83
3, 506176, Note_on_c, 0, 84, 0
3, 506179, Note_on_c, 0, 89, 69
3, 506185, Note_on_c, 0, 86, 80
3, 506286, Note_on_c, 0, 88, 68
3, 506289, Note_on_c, 0, 83, 0
3, 506299, Note_on_c, 0, 89, 0
3, 506301, Note_on_c, 0, 81, 84
3, 506305, Note_on_c, 0, 86, 0
3, 506305, Note_on_c, 0, 84, 76
3, 506406, Note_on_c, 0, 88, 0
3, 506406, Note_on_c, 0, 83, 64
3, 506417, Note_on_c, 0, 86, 61
3, 506419, Note_on_c, 0, 79, 63
3, 506421, Note_on_c, 0, 81, 0
3, 506425, Note_on_c, 0, 84, 0
3, 506520, Note_on_c, 0, 81, 66
3, 506526, Note_on_c, 0, 83, 0
3, 506526, Note_on_c, 0, 77, 64
3, 506537, Note_on_c, 0, 86, 0
3, 506539, Note_on_c, 0, 79, 0
3, 506541, Note_on_c, 0, 84, 68
3, 506640, Note_on_c, 0, 81, 0
3, 506646, Note_on_c, 0, 77, 0
3, 506647, Note_on_c, 0, 76, 61
3, 506659, Note_on_c, 0, 83, 52
3, 506661, Note_on_c, 0, 84, 0
3, 506662, Note_on_c, 0, 79, 52
3, 506766, Note_on_c, 0, 74, 48
3, 506767, Note_on_c, 0, 76, 0
3, 506768, Note_on_c, 0, 81, 53
3, 506774, Note_on_c, 0, 77, 51
3, 506779, Note_on_c, 0, 83, 0
3, 506782, Note_on_c, 0, 79, 0
3, 506886, Note_on_c, 0, 74, 0
3, 506888, Note_on_c, 0, 81, 0
3, 506893, Note_on_c, 0, 89, 97
3, 506894, Note_on_c, 0, 77, 0
3, 506901, Note_on_c, 0, 93, 97
3, 506904, Note_on_c, 0, 86, 97
3, 507000, Note_on_c, 0, 84, 75
3, 507003, Note_on_c, 0, 88, 79
3, 507005, Note_on_c, 0, 91, 79
3, 507013, Note_on_c, 0, 89, 0
3, 507021, Note_on_c, 0, 93, 0
3, 507024, Note_on_c, 0, 86, 0
3, 507120, Note_on_c, 0, 84, 0
3, 507123, Note_on_c, 0, 88, 0
3, 507125, Note_on_c, 0, 91, 0
3, 507130, Note_on_c, 0, 86, 88
3, 507132, Note_on_c, 0, 89, 70
3, 507143, Note_on_c, 0, 83, 74
3, 507249, Note_on_c, 0, 88, 78
3, 507250, Note_on_c, 0, 86, 0
3, 507252, Note_on_c, 0, 89, 0
3, 507252, Note_on_c, 0, 81, 82
3, 507259, Note_on_c, 0, 84, 83
3, 507263, Note_on_c, 0, 83, 0
3, 507369, Note_on_c, 0, 88, 0
3, 507371, Note_on_c, 0, 79, 66
3, 507372, Note_on_c, 0, 81, 0
3, 507374, Note_on_c, 0, 83, 73
3, 507379, Note_on_c, 0, 84, 0
3, 507382, Note_on_c, 0, 86, 66
3, 507483, Note_on_c, 0, 84, 60
3, 507488, Note_on_c, 0, 77, 58
3, 507491, Note_on_c, 0, 79, 0
3, 507494, Note_on_c, 0, 83, 0
3, 507502, Note_on_c, 0, 86, 0
3, 507502, Note_on_c, 0, 81, 62
3, 507600, Note_on_c, 0, 76, 55
3, 507603, Note_on_c, 0, 84, 0
3, 507603, Note_on_c, 0, 83, 67
3, 507608, Note_on_c, 0, 77, 0
3, 507619, Note_on_c, 0, 79, 69
3, 507622, Note_on_c, 0, 81, 0
3, 507720, Note_on_c, 0, 76, 0
3, 507721, Note_on_c, 0, 81, 65
3, 507723, Note_on_c, 0, 83, 0
3, 507723, Note_on_c, 0, 77, 58
3, 507739, Note_on_c, 0, 79, 0
3, 507744, Note_on_c, 0, 74, 49
3, 507841, Note_on_c, 0, 81, 0
3, 507843, Note_on_c, 0, 77, 0
3, 507846, Note_on_c, 0, 89, 97
3, 507852, Note_on_c, 0, 93, 89
3, 507864, Note_on_c, 0, 74, 0
3, 507864, Note_on_c, 0, 86, 84
3, 507962, Note_on_c, 0, 84, 93
3, 507962, Note_on_c, 0, 88, 82
3, 507966, Note_on_c, 0, 89, 0
3, 507972, Note_on_c, 0, 93, 0
3, 507984, Note_on_c, 0, 86, 0
3, 507984, Note_on_c, 0, 91, 80
3, 508082, Note_on_c, 0, 84, 0
3, 508082, Note_on_c, 0, 88, 0
3, 508088, Note_on_c, 0, 86, 77
3, 508093, Note_on_c, 0, 89, 74
3, 508100, Note_on_c, 0, 83, 71
3, 508104, Note_on_c, 0, 91, 0
3, 508207, Note_on_c, 0, 84, 84
3, 508208, Note_on_c, 0, 86, 0
3, 508213, Note_on_c, 0, 89, 0
3, 508220, Note_on_c, 0, 83, 0
3, 508220, Note_on_c, 0, 88, 83
3, 508222, Note_on_c, 0, 81, 82
3, 508325, Note_on_c, 0, 79, 64
3, 508327, Note_on_c, 0, 84, 0
3, 508330, Note_on_c, 0, 86, 64
3, 508340, Note_on_c, 0, 88, 0
3, 508342, Note_on_c, 0, 81, 0
3, 508345, Note_on_c, 0, 83, 65
3, 508444, Note_on_c, 0, 84, 56
3, 508445, Note_on_c, 0, 79, 0
3, 508450, Note_on_c, 0, 86, 0
3, 508450, Note_on_c, 0, 77, 75
3, 508460, Note_on_c, 0, 81, 74
3, 508465, Note_on_c, 0, 83, 0
3, 508564, Note_on_c, 0, 84, 0
3, 508568, Note_on_c, 0, 76, 67
3, 508568, Note_on_c, 0, 83, 64
3, 508570, Note_on_c, 0, 77, 0
3, 508580, Note_on_c, 0, 81, 0
3, 508583, Note_on_c, 0, 79, 52
3, 508680, Note_on_c, 0, 81, 56
3, 508686, Note_on_c, 0, 74, 61
3, 508688, Note_on_c, 0, 76, 0
3, 508688, Note_on_c, 0, 83, 0
3, 508692, Note_on_c, 0, 77, 54
3, 508703, Note_on_c, 0, 79, 0
3, 508800, Note_on_c, 0, 81, 0
3, 508806, Note_on_c, 0, 74, 0
3, 508812, Note_on_c, 0, 77, 0
3, 522016, Note_on_c, 0, 85, 98
3, 522019, Note_on_c, 0, 81, 81
3, 522136, Note_on_c, 0, 85, 0
3, 522139, Note_on_c, 0, 81, 0
3, 522260, Note_on_c, 0, 83, 81
3, 522263, Note_on_c, 0, 80, 84
3, 522380, Note_on_c, 0, 83, 0
3, 522383, Note_on_c, 0, 80, 0
3, 522500, Note_on_c, 0, 81, 79
3, 522502, Note_on_c, 0, 85, 92
3, 522620, Note_on_c, 0, 81, 0
3, 522622, Note_on_c, 0, 85, 0
3, 522729, Note_on_c, 0, 83, 91
3, 522739, Note_on_c, 0, 80, 83
3, 522849, Note_on_c, 0, 83, 0
3, 522859, Note_on_c, 0, 80, 0
3, 522960, Note_on_c, 0, 81, 95
3, 522964, Note_on_c, 0, 77, 93
3, 523080, Note_on_c, 0, 81, 0
3, 523084, Note_on_c, 0, 77, 0
3, 523208, Note_on_c, 0, 76, 79
3, 523211, Note_on_c, 0, 80, 80
3, 523328, Note_on_c, 0, 76, 0
3, 523331, Note_on_c, 0, 80, 0
3, 523442, Note_on_c, 0, 81, 94
3, 523462, Note_on_c, 0, 77, 78
3, 523562, Note_on_c, 0, 81, 0
3, 523582, Note_on_c, 0, 77, 0
3, 523684, Note_on_c, 0, 78, 78
3, 523697, Note_on_c, 0, 75, 89
3, 523804, Note_on_c, 0, 78, 0
3, 523817, Note_on_c, 0, 75, 0
3, 523923, Note_on_c, 0, 76, 91
3, 523941, Note_on_c, 0, 80, 80
3, 524043, Note_on_c, 0, 76, 0
3, 524061, Note_on_c, 0, 80, 0
3, 524169, Note_on_c, 0, 81, 92
3, 524182, Note_on_c, 0, 77, 83
3, 524289, Note_on_c, 0, 81, 0
3, 524302, Note_on_c, 0, 77, 0
3, 524410, Note_on_c, 0, 80, 92
3, 524418, Note_on_c, 0, 83, 91
3, 524530, Note_on_c, 0, 80, 0
3, 524538, Note_on_c, 0, 83, 0
3, 524643, Note_on_c, 0, 85, 80
3, 524649, Note_on_c, 0, 81, 84
3, 524763, Note_on_c, 0, 85, 0
3, 524769, Note_on_c, 0, 81, 0
3, 528245, Note_on_c, 0, 81, 88
3, 528258, Note_on_c, 0, 85, 85
3, 528365, Note_on_c, 0, 81, 0
3, 528378, Note_on_c, 0, 85, 0
3, 528492, Note_on_c, 0, 83, 96
3, 528496, Note_on_c, 0, 80, 89
3, 528612, Note_on_c, 0, 83, 0
3, 528616, Note_on_c, 0, 80, 0
3, 528733, Note_on_c, 0, 85, 86
3, 528735, Note_on_c, 0, 81, 89
3, 528853, Note_on_c, 0, 85, 0
3, 528855, Note_on_c, 0, 81, 0
3, 528965, Note_on_c, 0, 83, 81
3, 528984, Note_on_c, 0, 80, 83
3, 529085, Note_on_c, 0, 83, 0
3, 529104, Note_on_c, 0, 80, 0
3, 529207, Note_on_c, 0, 77, 84
3, 529224, Note_on_c, 0, 81, 91
3, 529327, Note_on_c, 0, 77, 0
3, 529344, Note_on_c, 0, 81, 0
3, 529460, Note_on_c, 0, 80, 91
3, 529463, Note_on_c, 0, 76, 93
3, 529580, Note_on_c, 0, 80, 0
3, 529583, Note_on_c, 0, 76, 0
3, 529702, Note_on_c, 0, 77, 98
3, 529703, Note_on_c, 0, 81, 87
3, 529822, Note_on_c, 0, 77, 0
3, 529823, Note_on_c, 0, 81, 0
3, 529921, Note_on_c, 0, 78, 91
3, 529942, Note_on_c, 0, 75, 78
3, 530041, Note_on_c, 0, 78, 0
3, 530062, Note_on_c, 0, 75, 0
3, 530160, Note_on_c, 0, 75, 87
3, 530163, Note_on_c, 0, 78, 92
3, 530280, Note_on_c, 0, 75, 0
3, 530283, Note_on_c, 0, 78, 0
3, 530419, Note_on_c, 0, 78, 96
3, 530424, Note_on_c, 0, 75, 84
3, 530539, Note_on_c, 0, 78, 0
3, 530544, Note_on_c, 0, 75, 0
3, 530656, Note_on_c, 0, 80, 93
3, 530660, Note_on_c, 0, 76, 85
3, 530776, Note_on_c, 0, 80, 0
3, 530780, Note_on_c, 0, 76, 0
3, 530897, Note_on_c, 0, 77, 92
3, 530901, Note_on_c, 0, 81, 89
3, 531017, Note_on_c, 0, 77, 0
3, 531021, Note_on_c, 0, 81, 0
3, 531122, Note_on_c, 0, 83, 90
3, 531144, Note_on_c, 0, 80, 90
3, 531242, Note_on_c, 0, 83, 0
3, 531264, Note_on_c, 0, 80, 0
3, 531369, Note_on_c, 0, 85, 79
3, 531379, Note_on_c, 0, 81, 85
3, 531489, Note_on_c, 0, 85, 0
3, 531499, Note_on_c, 0, 81, 0
3, 537609, Note_on_c, 0, 79, 78
3, 537616, Note_on_c, 0, 83, 69
3, 537848, Note_on_c, 0, 81, 66
3, 537849, Note_on_c, 0, 79, 0
3, 537856, Note_on_c, 0, 83, 0
3, 537863, Note_on_c, 0, 84, 81
3, 538088, Note_on_c, 0, 81, 0
3, 538096, Note_on_c, 0, 86, 67
3, 538103, Note_on_c, 0, 84, 0
3, 538105, Note_on_c, 0, 82, 85
3, 538807, Note_on_c, 0, 80, 66
3, 538812, Note_on_c, 0, 84, 74
3, 538816, Note_on_c, 0, 86, 0
3, 538825, Note_on_c, 0, 82, 0
3, 539042, Note_on_c, 0, 79, 83
3, 539043, Note_on_c, 0, 83, 85
3, 539047, Note_on_c, 0, 80, 0
3, 539052, Note_on_c, 0, 84, 0
3, 539282, Note_on_c, 0, 79, 0
3, 539283, Note_on_c, 0, 83, 0
3, 539288, Note_on_c, 0, 77, 77
3, 539299, Note_on_c, 0, 81, 68
3, 539520, Note_on_c, 0, 79, 79
3, 539528, Note_on_c, 0, 77, 0
3, 539539, Note_on_c, 0, 81, 0
3, 539539, Note_on_c, 0, 83, 80
3, 539760, Note_on_c, 0, 79, 0
3, 539764, Note_on_c, 0, 80, 69
3, 539769, Note_on_c, 0, 84, 77
3, 539779, Note_on_c, 0, 83, 0
3, 540004, Note_on_c, 0, 80, 0
3, 540009, Note_on_c, 0, 84, 0
3, 540015, Note_on_c, 0, 82, 75
3, 540015, Note_on_c, 0, 86, 77
3, 540255, Note_on_c, 0, 82, 0
3, 540255, Note_on_c, 0, 86, 0
3, 547689, Note_on_c, 0, 79, 54
3, 547702, Note_on_c, 0, 83, 44
3, 547929, Note_on_c, 0, 79, 0
3, 547936, Note_on_c, 0, 81, 68
3, 547938, Note_on_c, 0, 84, 69
3, 547942, Note_on_c, 0, 83, 0
3, 548162, Note_on_c, 0, 86, 59
3, 548170, Note_on_c, 0, 83, 63
3, 548176, Note_on_c, 0, 81, 0
3, 548178, Note_on_c, 0, 84, 0
3, 548881, Note_on_c, 0, 84, 39
3, 548882, Note_on_c, 0, 86, 0
3, 548890, Note_on_c, 0, 83, 0
3, 548900, Note_on_c, 0, 81, 46
3, 549121, Note_on_c, 0, 84, 0
3, 549123, Note_on_c, 0, 83, 43
3, 549134, Note_on_c, 0, 79, 41
3, 549140, Note_on_c, 0, 81, 0
3, 549363, Note_on_c, 0, 83, 0
3, 549368, Note_on_c, 0, 81, 51
3, 549374, Note_on_c, 0, 79, 0
3, 549381, Note_on_c, 0, 77, 49
3, 549603, Note_on_c, 0, 79, 49
3, 549608, Note_on_c, 0, 81, 0
3, 549612, Note_on_c, 0, 83, 52
3, 549621, Note_on_c, 0, 77, 0
3, 549843, Note_on_c, 0, 79, 0
3, 549852, Note_on_c, 0, 83, 0
3, 549853, Note_on_c, 0, 84, 58
3, 549863, Note_on_c, 0, 81, 68
3, 550089, Note_on_c, 0, 83, 77
3, 550093, Note_on_c, 0, 84, 0
3, 550102, Note_on_c, 0, 86, 62
3, 550103, Note_on_c, 0, 81, 0
3, 550329, Note_on_c, 0, 83, 0
3, 550342, Note_on_c, 0, 86, 0
3, 559200, Note_on_c, 0, 84, 80
3, 559214, Note_on_c, 0, 88, 88
3, 559440, Note_on_c, 0, 84, 0
3, 559454, Note_on_c, 0, 88, 0
3, 559459, Note_on_c, 0, 86, 95
3, 559459, Note_on_c, 0, 89, 103
3, 559688, Note_on_c, 0, 91, 110
3, 559699, Note_on_c, 0, 86, 0
3, 559699, Note_on_c, 0, 89, 0
3, 559701, Note_on_c, 0, 88, 125
3, 560405, Note_on_c, 0, 86, 96
3, 560408, Note_on_c, 0, 91, 0
3, 560409, Note_on_c, 0, 89, 96
3, 560421, Note_on_c, 0, 88, 0
3, 560642, Note_on_c, 0, 84, 96
3, 560645, Note_on_c, 0, 86, 0
3, 560649, Note_on_c, 0, 89, 0
3, 560660, Note_on_c, 0, 88, 92
3, 560882, Note_on_c, 0, 84, 0
3, 560893, Note_on_c, 0, 86, 93
3, 560900, Note_on_c, 0, 88, 0
3, 560902, Note_on_c, 0, 83, 94
3, 561129, Note_on_c, 0, 84, 99
3, 561133, Note_on_c, 0, 86, 0
3, 561142, Note_on_c, 0, 83, 0
3, 561142, Note_on_c, 0, 88, 107
3, 561368, Note_on_c, 0, 89, 110
3, 561369, Note_on_c, 0, 84, 0
3, 561373, Note_on_c, 0, 86, 107
3, 561382, Note_on_c, 0, 88, 0
3, 561608, Note_on_c, 0, 89, 0
3, 561613, Note_on_c, 0, 86, 0
3, 561617, Note_on_c, 0, 87, 123
3, 561620, Note_on_c, 0, 91, 124
3, 561857, Note_on_c, 0, 87, 0
3, 561860, Note_on_c, 0, 91, 0
3, 571696, Note_on_c, 0, 92, 100
3, 572896, Note_on_c, 0, 92, 0
3, 574584, Note_on_c, 0, 92, 99
3, 575784, Note_on_c, 0, 92, 0
3, 589440, Note_on_c, 0, 81, 97
3, 589471, Note_on_c, 0, 81, 0
3, 589520, Note_on_c, 0, 82, 86
3, 589551, Note_on_c, 0, 82, 0
3, 589599, Note_on_c, 0, 83, 98
3, 589631, Note_on_c, 0, 83, 0
3, 589680, Note_on_c, 0, 84, 89
3, 589711, Note_on_c, 0, 84, 0
3, 589760, Note_on_c, 0, 85, 86
3, 589791, Note_on_c, 0, 85, 0
3, 589839, Note_on_c, 0, 86, 85
3, 589871, Note_on_c, 0, 86, 0
3, 589920, Note_on_c, 0, 87, 79
3, 589951, Note_on_c, 0, 87, 0
3, 590000, Note_on_c, 0, 88, 79
3, 590031, Note_on_c, 0, 88, 0
3, 590079, Note_on_c, 0, 89, 92
3, 590111, Note_on_c, 0, 89, 0
3, 590160, Note_on_c, 0, 90, 88
3, 590191, Note_on_c, 0, 90, 0
3, 590240, Note_on_c, 0, 91, 82
3, 590271, Note_on_c, 0, 91, 0
3, 590319, Note_on_c, 0, 92, 89
3, 590351, Note_on_c, 0, 92, 0
3, 590422, Note_on_c, 0, 93, 109
3, 590481, Note_on_c, 0, 91, 93
3, 590542, Note_on_c, 0, 93, 0
3, 590570, Note_on_c, 0, 93, 102
3, 590599, Note_on_c, 0, 91, 0
3, 590646, Note_on_c, 0, 91, 96
3, 590690, Note_on_c, 0, 93, 0
3, 590744, Note_on_c, 0, 93, 104
3, 590766, Note_on_c, 0, 91, 0
3, 590820, Note_on_c, 0, 91, 108
3, 590862, Note_on_c, 0, 93, 0
3, 590892, Note_on_c, 0, 93, 108
3, 590940, Note_on_c, 0, 91, 0
3, 590972, Note_on_c, 0, 91, 108
3, 591012, Note_on_c, 0, 93, 0
3, 591049, Note_on_c, 0, 93, 111
3, 591090, Note_on_c, 0, 91, 0
3, 591141, Note_on_c, 0, 91, 106
3, 591169, Note_on_c, 0, 93, 0
3, 591225, Note_on_c, 0, 93, 97
3, 591261, Note_on_c, 0, 91, 0
3, 591290, Note_on_c, 0, 91, 100
3, 591343, Note_on_c, 0, 93, 0
3, 591381, Note_on_c, 0, 93, 105
3, 591410, Note_on_c, 0, 91, 0
3, 591448, Note_on_c, 0, 91, 108
3, 591501, Note_on_c, 0, 93, 0
3, 591543, Note_on_c, 0, 93, 102
3, 591566, Note_on_c, 0, 91, 0
3, 591619, Note_on_c, 0, 91, 107
3, 591663, Note_on_c, 0, 93, 0
3, 591694, Note_on_c, 0, 93, 91
3, 591739, Note_on_c, 0, 91, 0
3, 591773, Note_on_c, 0, 91, 103
3, 591812, Note_on_c, 0, 93, 0
3, 591854, Note_on_c, 0, 93, 111
3, 591893, Note_on_c, 0, 91, 0
3, 591943, Note_on_c, 0, 91, 107
3, 591974, Note_on_c, 0, 93, 0
3, 592013, Note_on_c, 0, 93, 93
3, 592061, Note_on_c, 0, 91, 0
3, 592082, Note_on_c, 0, 91, 94
3, 592133, Note_on_c, 0, 93, 0
3, 592169, Note_on_c, 0, 93, 107
3, 592202, Note_on_c, 0, 91, 0
3, 592256, Note_on_c, 0, 91, 110
3, 592287, Note_on_c, 0, 93, 0
3, 592331, Note_on_c, 0, 93, 105
3, 592376, Note_on_c, 0, 91, 0
3, 592419, Note_on_c, 0, 91, 101
3, 592451, Note_on_c, 0, 93, 0
3, 592492, Note_on_c, 0, 93, 91
3, 592537, Note_on_c, 0, 91, 0
3, 592583, Note_on_c, 0, 91, 98
3, 592612, Note_on_c, 0, 93, 0
3, 592662, Note_on_c, 0, 93, 94
3, 592703, Note_on_c, 0, 91, 0
3, 592734, Note_on_c, 0, 91, 107
3, 592780, Note_on_c, 0, 93, 0
3, 592824, Note_on_c, 0, 93, 92
3, 592854, Note_on_c, 0, 91, 0
3, 592895, Note_on_c, 0, 91, 97
3, 592944, Note_on_c, 0, 93, 0
3, 592977, Note_on_c, 0, 93, 98
3, 593013, Note_on_c, 0, 91, 0
3, 593060, Note_on_c, 0, 91, 101
3, 593097, Note_on_c, 0, 93, 0
3, 593137, Note_on_c, 0, 93, 103
3, 593180, Note_on_c, 0, 91, 0
3, 593207, Note_on_c, 0, 91, 101
3, 593255, Note_on_c, 0, 93, 0
3, 593300, Note_on_c, 0, 93, 99
3, 593327, Note_on_c, 0, 91, 0
3, 593385, Note_on_c, 0, 91, 108
3, 593420, Note_on_c, 0, 93, 0
3, 593451, Note_on_c, 0, 93, 100
3, 593503, Note_on_c, 0, 91, 0
3, 593531, Note_on_c, 0, 91, 94
3, 593571, Note_on_c, 0, 93, 0
3, 593609, Note_on_c, 0, 93, 96
3, 593651, Note_on_c, 0, 91, 0
3, 593694, Note_on_c, 0, 91, 108
3, 593727, Note_on_c, 0, 93, 0
3, 593770, Note_on_c, 0, 93, 113
3, 593814, Note_on_c, 0, 91, 0
3, 593961, Note_on_c, 0, 93, 0
3, 594256, Note_on_c, 0, 88, 116
3, 594376, Note_on_c, 0, 88, 0
3, 594496, Note_on_c, 0, 89, 115
3, 594616, Note_on_c, 0, 89, 0
3, 594745, Note_on_c, 0, 91, 117
3, 594865, Note_on_c, 0, 91, 0
3, 594978, Note_on_c, 0, 93, 117
3, 595098, Note_on_c, 0, 93, 0
3, 595203, Note_on_c, 0, 91, 121
3, 595323, Note_on_c, 0, 91, 0
3, 595446, Note_on_c, 0, 93, 114
3, 595566, Note_on_c, 0, 93, 0
3, 595683, Note_on_c, 0, 91, 116
3, 595803, Note_on_c, 0, 91, 0
3, 595942, Note_on_c, 0, 93, 105
3, 596062, Note_on_c, 0, 93, 0
3, 596183, Note_on_c, 0, 89, 122
3, 596543, Note_on_c, 0, 89, 0
3, 596664, Note_on_c, 0, 91, 107
3, 596784, Note_on_c, 0, 91, 0
3, 596888, Note_on_c, 0, 93, 120
3, 597008, Note_on_c, 0, 93, 0
3, 597144, Note_on_c, 0, 91, 112
3, 597264, Note_on_c, 0, 91, 0
3, 597371, Note_on_c, 0, 93, 112
3, 597491, Note_on_c, 0, 93, 0
3, 597604, Note_on_c, 0, 89, 112
3, 597964, Note_on_c, 0, 89, 0
3, 598092, Note_on_c, 0, 89, 124
3, 598235, Note_on_c, 0, 89, 0
3, 598568, Note_on_c, 0, 91, 117
3, 598688, Note_on_c, 0, 91, 0
3, 598804, Note_on_c, 0, 93, 113
3, 598924, Note_on_c, 0, 93, 0
3, 599060, Note_on_c, 0, 95, 113
3, 599180, Note_on_c, 0, 95, 0
3, 599304, Note_on_c, 0, 96, 116
3, 599424, Note_on_c, 0, 96, 0
3, 599534, Note_on_c, 0, 95, 106
3, 599654, Note_on_c, 0, 95, 0
3, 599775, Note_on_c, 0, 96, 107
3, 599895, Note_on_c, 0, 96, 0
3, 600010, Note_on_c, 0, 95, 111
3, 600130, Note_on_c, 0, 95, 0
3, 600252, Note_on_c, 0, 98, 116
3, 600372, Note_on_c, 0, 98, 0
3, 600497, Note_on_c, 0, 96, 104
3, 600617, Note_on_c, 0, 96, 0
3, 600734, Note_on_c, 0, 95, 120
3, 600854, Note_on_c, 0, 95, 0
3, 600980, Note_on_c, 0, 93, 106
3, 601100, Note_on_c, 0, 93, 0
3, 601216, Note_on_c, 0, 91, 111
3, 601336, Note_on_c, 0, 91, 0
3, 601464, Note_on_c, 0, 93, 122
3, 601522, Note_on_c, 0, 95, 107
3, 601579, Note_on_c, 0, 93, 0
3, 601599, Note_on_c, 0, 93, 122
3, 601637, Note_on_c, 0, 95, 0
3, 601696, Note_on_c, 0, 95, 105
3, 601714, Note_on_c, 0, 93, 0
3, 601776, Note_on_c, 0, 93, 108
3, 601811, Note_on_c, 0, 95, 0
3, 601851, Note_on_c, 0, 95, 117
3, 601891, Note_on_c, 0, 93, 0
3, 601924, Note_on_c, 0, 93, 107
3, 601966, Note_on_c, 0, 95, 0
3, 601995, Note_on_c, 0, 95, 121
3, 602039, Note_on_c, 0, 93, 0
3, 602069, Note_on_c, 0, 93, 114
3, 602110, Note_on_c, 0, 95, 0
3, 602150, Note_on_c, 0, 95, 115
3, 602184, Note_on_c, 0, 93, 0
3, 602231, Note_on_c, 0, 93, 109
3, 602265, Note_on_c, 0, 95, 0
3, 602314, Note_on_c, 0, 95, 108
3, 602346, Note_on_c, 0, 93, 0
3, 602379, Note_on_c, 0, 93, 106
3, 602429, Note_on_c, 0, 95, 0
3, 602457, Note_on_c, 0, 95, 108
3, 602494, Note_on_c, 0, 93, 0
3, 602546, Note_on_c, 0, 93, 117
3, 602572, Note_on_c, 0, 95, 0
3, 602623, Note_on_c, 0, 95, 122
3, 602661, Note_on_c, 0, 93, 0
3, 602705, Note_on_c, 0, 93, 122
3, 602738, Note_on_c, 0, 95, 0
3, 602784, Note_on_c, 0, 95, 120
3, 602820, Note_on_c, 0, 93, 0
3, 602864, Note_on_c, 0, 93, 104
3, 602899, Note_on_c, 0, 95, 0
3, 602926, Note_on_c, 0, 95, 115
3, 602979, Note_on_c, 0, 93, 0
3, 603003, Note_on_c, 0, 93, 110
3, 603041, Note_on_c, 0, 95, 0
3, 603089, Note_on_c, 0, 95, 115
3, 603118, Note_on_c, 0, 93, 0
3, 603156, Note_on_c, 0, 93, 106
3, 603204, Note_on_c, 0, 95, 0
3, 603241, Note_on_c, 0, 95, 107
3, 603271, Note_on_c, 0, 93, 0
3, 603320, Note_on_c, 0, 93, 107
3, 603356, Note_on_c, 0, 95, 0
3, 603385, Note_on_c, 0, 95, 114
3, 603435, Note_on_c, 0, 93, 0
3, 603475, Note_on_c, 0, 93, 107
3, 603500, Note_on_c, 0, 95, 0
3, 603559, Note_on_c, 0, 95, 108
3, 603590, Note_on_c, 0, 93, 0
3, 603632, Note_on_c, 0, 93, 121
3, 603674, Note_on_c, 0, 95, 0
3, 603717, Note_on_c, 0, 95, 124
3, 603747, Note_on_c, 0, 93, 0
3, 603790, Note_on_c, 0, 93, 118
3, 603832, Note_on_c, 0, 95, 0
3, 603855, Note_on_c, 0, 95, 120
3, 603905, Note_on_c, 0, 93, 0
3, 603930, Note_on_c, 0, 93, 124
3, 603970, Note_on_c, 0, 95, 0
3, 604023, Note_on_c, 0, 95, 105
3, 604045, Note_on_c, 0, 93, 0
3, 604100, Note_on_c, 0, 93, 108
3, 604138, Note_on_c, 0, 95, 0
3, 604179, Note_on_c, 0, 95, 118
3, 604215, Note_on_c, 0, 93, 0
3, 604252, Note_on_c, 0, 81, 123
3, 604294, Note_on_c, 0, 95, 0
3, 604327, Note_on_c, 0, 81, 0
3, 613599, Note_on_c, 0, 81, 79
3, 613652, Note_on_c, 0, 81, 0
3, 613653, Note_on_c, 0, 83, 82
3, 613706, Note_on_c, 0, 83, 0
3, 613706, Note_on_c, 0, 84, 78
3, 613758, Note_on_c, 0, 84, 0
3, 613759, Note_on_c, 0, 86, 84
3, 613799, Note_on_c, 0, 86, 0
3, 613800, Note_on_c, 0, 88, 97
3, 613839, Note_on_c, 0, 88, 0
3, 613839, Note_on_c, 0, 89, 84
3, 613878, Note_on_c, 0, 89, 0
3, 613879, Note_on_c, 0, 91, 90
3, 613919, Note_on_c, 0, 91, 0
3, 613928, Note_on_c, 0, 93, 83
3, 614168, Note_on_c, 0, 93, 0
3, 614891, Note_on_c, 0, 88, 80
3, 615131, Note_on_c, 0, 88, 0
3, 615132, Note_on_c, 0, 86, 79
3, 615367, Note_on_c, 0, 88, 98
3, 615372, Note_on_c, 0, 86, 0
3, 615607, Note_on_c, 0, 88, 0
3, 615617, Note_on_c, 0, 89, 87
3, 615855, Note_on_c, 0, 91, 87
3, 615857, Note_on_c, 0, 89, 0
3, 616335, Note_on_c, 0, 91, 0
3, 616342, Note_on_c, 0, 89, 98
3, 616562, Note_on_c, 0, 88, 95
3, 616582, Note_on_c, 0, 89, 0
3, 616802, Note_on_c, 0, 88, 0
3, 616802, Note_on_c, 0, 86, 83
3, 617282, Note_on_c, 0, 86, 0
3, 617293, Note_on_c, 0, 88, 81
3, 617533, Note_on_c, 0, 88, 0
3, 617540, Note_on_c, 0, 89, 87
3, 617775, Note_on_c, 0, 91, 85
3, 617780, Note_on_c, 0, 89, 0
3, 618255, Note_on_c, 0, 91, 0
3, 618261, Note_on_c, 0, 89, 83
3, 618501, Note_on_c, 0, 89, 0
3, 618504, Note_on_c, 0, 88, 85
3, 618722, Note_on_c, 0, 86, 84
3, 618744, Note_on_c, 0, 88, 0
3, 619202, Note_on_c, 0, 86, 0
3, 619210, Note_on_c, 0, 88, 82
3, 619449, Note_on_c, 0, 89, 94
3, 619450, Note_on_c, 0, 88, 0
3, 619687, Note_on_c, 0, 91, 98
3, 619689, Note_on_c, 0, 89, 0
3, 620400, Note_on_c, 0, 89, 86
3, 620407, Note_on_c, 0, 91, 0
3, 620640, Note_on_c, 0, 89, 0
3, 620650, Note_on_c, 0, 88, 84
3, 620887, Note_on_c, 0, 86, 78
3, 620890, Note_on_c, 0, 88, 0
3, 621127, Note_on_c, 0, 86, 0
3, 621127, Note_on_c, 0, 88, 78
3, 621363, Note_on_c, 0, 89, 78
3, 621367, Note_on_c, 0, 88, 0
3, 621603, Note_on_c, 0, 89, 0
3, 621616, Note_on_c, 0, 88, 91
3, 621687, Note_on_c, 0, 88, 0
3, 621850, Note_on_c, 0, 89, 85
3, 621921, Note_on_c, 0, 89, 0
3, 622080, Note_on_c, 0, 91, 103
3, 622127, Note_on_c, 0, 91, 0
3, 622239, Note_on_c, 0, 93, 105
3, 622287, Note_on_c, 0, 93, 0
3, 622400, Note_on_c, 0, 95, 98
3, 622447, Note_on_c, 0, 95, 0
3, 622560, Note_on_c, 0, 93, 98
3, 622607, Note_on_c, 0, 93, 0
3, 622719, Note_on_c, 0, 91, 93
3, 622767, Note_on_c, 0, 91, 0
3, 622880, Note_on_c, 0, 89, 91
3, 622927, Note_on_c, 0, 89, 0
3, 623040, Note_on_c, 0, 88, 107
3, 623087, Note_on_c, 0, 88, 0
3, 623199, Note_on_c, 0, 87, 109
3, 623247, Note_on_c, 0, 87, 0
3, 623360, Note_on_c, 0, 86, 93
3, 623407, Note_on_c, 0, 86, 0
3, 623520, Note_on_c, 0, 88, 91
3, 623567, Note_on_c, 0, 88, 0
3, 623679, Note_on_c, 0, 86, 103
3, 623727, Note_on_c, 0, 86, 0
3, 623840, Note_on_c, 0, 84, 94
3, 623887, Note_on_c, 0, 84, 0
3, 624000, Note_on_c, 0, 82, 95
3, 624047, Note_on_c, 0, 82, 0
3, 624159, Note_on_c, 0, 80, 97
3, 624207, Note_on_c, 0, 80, 0
3, 654259, Note_on_c, 0, 77, 101
3, 654327, Note_on_c, 0, 78, 98
3, 654379, Note_on_c, 0, 77, 0
3, 654406, Note_on_c, 0, 77, 109
3, 654445, Note_on_c, 0, 78, 0
3, 654486, Note_on_c, 0, 78, 93
3, 654526, Note_on_c, 0, 77, 0
3, 654565, Note_on_c, 0, 77, 97
3, 654606, Note_on_c, 0, 78, 0
3, 654640, Note_on_c, 0, 78, 97
3, 654683, Note_on_c, 0, 77, 0
3, 654723, Note_on_c, 0, 75, 103
3, 654760, Note_on_c, 0, 78, 0
3, 654801, Note_on_c, 0, 77, 101
3, 654843, Note_on_c, 0, 75, 0
3, 654884, Note_on_c, 0, 75, 97
3, 654919, Note_on_c, 0, 77, 0
3, 654960, Note_on_c, 0, 77, 91
3, 655004, Note_on_c, 0, 75, 0
3, 655049, Note_on_c, 0, 75, 98
3, 655080, Note_on_c, 0, 77, 0
3, 655144, Note_on_c, 0, 77, 108
3, 655167, Note_on_c, 0, 75, 0
3, 655222, Note_on_c, 0, 73, 105
3, 655264, Note_on_c, 0, 77, 0
3, 655296, Note_on_c, 0, 74, 101
3, 655342, Note_on_c, 0, 73, 0
3, 655373, Note_on_c, 0, 73, 105
3, 655414, Note_on_c, 0, 74, 0
3, 655462, Note_on_c, 0, 74, 104
3, 655493, Note_on_c, 0, 73, 0
3, 655541, Note_on_c, 0, 73, 103
3, 655582, Note_on_c, 0, 74, 0
3, 655609, Note_on_c, 0, 74, 97
3, 655659, Note_on_c, 0, 73, 0
3, 655686, Note_on_c, 0, 71, 100
3, 655729, Note_on_c, 0, 74, 0
3, 655777, Note_on_c, 0, 73, 98
3, 655806, Note_on_c, 0, 71, 0
3, 655854, Note_on_c, 0, 71, 104
3, 655895, Note_on_c, 0, 73, 0
3, 655936, Note_on_c, 0, 73, 104
3, 655974, Note_on_c, 0, 71, 0
3, 656018, Note_on_c, 0, 71, 100
3, 656056, Note_on_c, 0, 73, 0
3, 656083, Note_on_c, 0, 73, 103
3, 656136, Note_on_c, 0, 71, 0
3, 656161, Note_on_c, 0, 79, 96
3, 656203, Note_on_c, 0, 73, 0
3, 656247, Note_on_c, 0, 80, 101
3, 656281, Note_on_c, 0, 79, 0
3, 656337, Note_on_c, 0, 79, 100
3, 656365, Note_on_c, 0, 80, 0
3, 656421, Note_on_c, 0, 80, 100
3, 656457, Note_on_c, 0, 79, 0
3, 656488, Note_on_c, 0, 79, 95
3, 656541, Note_on_c, 0, 80, 0
3, 656564, Note_on_c, 0, 80, 105
3, 656606, Note_on_c, 0, 79, 0
3, 656662, Note_on_c, 0, 78, 102
3, 656684, Note_on_c, 0, 80, 0
3, 656744, Note_on_c, 0, 80, 109
3, 656782, Note_on_c, 0, 78, 0
3, 656802, Note_on_c, 0, 78, 110
3, 656862, Note_on_c, 0, 80, 0
3, 656890, Note_on_c, 0, 80, 105
3, 656922, Note_on_c, 0, 78, 0
3, 656979, Note_on_c, 0, 78, 103
3, 657010, Note_on_c, 0, 80, 0
3, 657053, Note_on_c, 0, 80, 95
3, 657097, Note_on_c, 0, 78, 0
3, 657140, Note_on_c, 0, 76, 96
3, 657173, Note_on_c, 0, 80, 0
3, 657200, Note_on_c, 0, 77, 91
3, 657260, Note_on_c, 0, 76, 0
3, 657285, Note_on_c, 0, 76, 95
3, 657318, Note_on_c, 0, 77, 0
3, 657383, Note_on_c, 0, 77, 111
3, 657405, Note_on_c, 0, 76, 0
3, 657464, Note_on_c, 0, 76, 102
3, 657503, Note_on_c, 0, 77, 0
3, 657528, Note_on_c, 0, 77, 92
3, 657582, Note_on_c, 0, 76, 0
3, 657620, Note_on_c, 0, 75, 111
3, 657648, Note_on_c, 0, 77, 0
3, 657694, Note_on_c, 0, 77, 103
3, 657740, Note_on_c, 0, 75, 0
3, 657770, Note_on_c, 0, 75, 97
3, 657812, Note_on_c, 0, 77, 0
3, 657852, Note_on_c, 0, 77, 111
3, 657890, Note_on_c, 0, 75, 0
3, 657935, Note_on_c, 0, 75, 98
3, 657972, Note_on_c, 0, 77, 0
3, 658014, Note_on_c, 0, 77, 91
3, 658053, Note_on_c, 0, 75, 0
3, 658083, Note_on_c, 0, 77, 91
3, 658134, Note_on_c, 0, 77, 0
3, 658183, Note_on_c, 0, 78, 95
3, 658203, Note_on_c, 0, 77, 0
3, 658246, Note_on_c, 0, 77, 110
3, 658301, Note_on_c, 0, 78, 0
3, 658339, Note_on_c, 0, 78, 111
3, 658366, Note_on_c, 0, 77, 0
3, 658423, Note_on_c, 0, 77, 95
3, 658459, Note_on_c, 0, 78, 0
3, 658485, Note_on_c, 0, 78, 98
3, 658541, Note_on_c, 0, 77, 0
3, 658575, Note_on_c, 0, 76, 94
3, 658605, Note_on_c, 0, 78, 0
3, 658653, Note_on_c, 0, 77, 106
3, 658695, Note_on_c, 0, 76, 0
3, 658727, Note_on_c, 0, 76, 106
3, 658771, Note_on_c, 0, 77, 0
3, 658823, Note_on_c, 0, 77, 111
3, 658847, Note_on_c, 0, 76, 0
3, 658886, Note_on_c, 0, 76, 92
3, 658943, Note_on_c, 0, 77, 0
3, 658973, Note_on_c, 0, 77, 99
3, 659004, Note_on_c, 0, 76, 0
3, 659059, Note_on_c, 0, 73, 98
3, 659093, Note_on_c, 0, 77, 0
3, 659133, Note_on_c, 0, 74, 109
3, 659179, Note_on_c, 0, 73, 0
3, 659217, Note_on_c, 0, 73, 103
3, 659251, Note_on_c, 0, 74, 0
3, 659298, Note_on_c, 0, 74, 95
3, 659337, Note_on_c, 0, 73, 0
3, 659366, Note_on_c, 0, 73, 97
3, 659418, Note_on_c, 0, 74, 0
3, 659459, Note_on_c, 0, 74, 101
3, 659484, Note_on_c, 0, 73, 0
3, 659543, Note_on_c, 0, 71, 108
3, 659579, Note_on_c, 0, 74, 0
3, 659619, Note_on_c, 0, 73, 111
3, 659663, Note_on_c, 0, 71, 0
3, 659685, Note_on_c, 0, 71, 104
3, 659737, Note_on_c, 0, 73, 0
3, 659761, Note_on_c, 0, 73, 99
3, 659805, Note_on_c, 0, 71, 0
3, 659855, Note_on_c, 0, 71, 100
3, 659881, Note_on_c, 0, 73, 0
3, 659937, Note_on_c, 0, 73, 99
3, 659973, Note_on_c, 0, 71, 0
3, 660011, Note_on_c, 0, 79, 92
3, 660057, Note_on_c, 0, 73, 0
3, 660085, Note_on_c, 0, 80, 108
3, 660131, Note_on_c, 0, 79, 0
3, 660173, Note_on_c, 0, 79, 94
3, 660203, Note_on_c, 0, 80, 0
3, 660265, Note_on_c, 0, 80, 105
3, 660293, Note_on_c, 0, 79, 0
3, 660337, Note_on_c, 0, 79, 95
3, 660385, Note_on_c, 0, 80, 0
3, 660414, Note_on_c, 0, 80, 97
3, 660455, Note_on_c, 0, 79, 0
3, 660489, Note_on_c, 0, 78, 107
3, 660534, Note_on_c, 0, 80, 0
3, 660578, Note_on_c, 0, 80, 100
3, 660609, Note_on_c, 0, 78, 0
3, 660652, Note_on_c, 0, 78, 109
3, 660696, Note_on_c, 0, 80, 0
3, 660726, Note_on_c, 0, 80, 102
3, 660772, Note_on_c, 0, 78, 0
3, 660815, Note_on_c, 0, 78, 101
3, 660846, Note_on_c, 0, 80, 0
3, 660901, Note_on_c, 0, 80, 104
3, 660933, Note_on_c, 0, 78, 0
3, 660983, Note_on_c, 0, 76, 95
3, 661021, Note_on_c, 0, 80, 0
3, 661041, Note_on_c, 0, 77, 99
3, 661103, Note_on_c, 0, 76, 0
3, 661128, Note_on_c, 0, 76, 102
3, 661159, Note_on_c, 0, 77, 0
3, 661218, Note_on_c, 0, 77, 103
3, 661248, Note_on_c, 0, 76, 0
3, 661305, Note_on_c, 0, 76, 109
3, 661338, Note_on_c, 0, 77, 0
3, 661372, Note_on_c, 0, 77, 105
3, 661423, Note_on_c, 0, 76, 0
3, 661452, Note_on_c, 0, 75, 105
3, 661492, Note_on_c, 0, 77, 0
3, 661539, Note_on_c, 0, 77, 91
3, 661572, Note_on_c, 0, 75, 0
3, 661605, Note_on_c, 0, 75, 95
3, 661657, Note_on_c, 0, 77, 0
3, 661689, Note_on_c, 0, 77, 107
3, 661725, Note_on_c, 0, 75, 0
3, 661774, Note_on_c, 0, 75, 102
3, 661809, Note_on_c, 0, 77, 0
3, 661856, Note_on_c, 0, 77, 98
3, 661892, Note_on_c, 0, 75, 0
3, 661922, Note_on_c, 0, 77, 97
3, 661976, Note_on_c, 0, 77, 0
3, 662021, Note_on_c, 0, 78, 92
3, 662042, Note_on_c, 0, 77, 0
3, 662082, Note_on_c, 0, 77, 111
3, 662139, Note_on_c, 0, 78, 0
3, 662164, Note_on_c, 0, 78, 95
3, 662202, Note_on_c, 0, 77, 0
3, 662245, Note_on_c, 0, 77, 104
3, 662284, Note_on_c, 0, 78, 0
3, 662340, Note_on_c, 0, 78, 92
3, 662363, Note_on_c, 0, 77, 0
3, 662408, Note_on_c, 0, 75, 97
3, 662460, Note_on_c, 0, 78, 0
3, 662488, Note_on_c, 0, 77, 94
3, 662528, Note_on_c, 0, 75, 0
3, 662574, Note_on_c, 0, 75, 100
3, 662606, Note_on_c, 0, 77, 0
3, 662643, Note_on_c, 0, 77, 97
3, 662694, Note_on_c, 0, 75, 0
3, 662744, Note_on_c, 0, 75, 99
3, 662763, Note_on_c, 0, 77, 0
3, 662817, Note_on_c, 0, 77, 92
3, 662862, Note_on_c, 0, 75, 0
3, 662895, Note_on_c, 0, 73, 102
3, 662937, Note_on_c, 0, 77, 0
3, 662962, Note_on_c, 0, 74, 92
3, 663015, Note_on_c, 0, 73, 0
3, 663054, Note_on_c, 0, 73, 100
3, 663080, Note_on_c, 0, 74, 0
3, 663128, Note_on_c, 0, 74, 102
3, 663174, Note_on_c, 0, 73, 0
3, 663225, Note_on_c, 0, 73, 99
3, 663248, Note_on_c, 0, 74, 0
3, 663296, Note_on_c, 0, 74, 91
3, 663343, Note_on_c, 0, 73, 0
3, 663375, Note_on_c, 0, 71, 95
3, 663416, Note_on_c, 0, 74, 0
3, 663461, Note_on_c, 0, 73, 100
3, 663495, Note_on_c, 0, 71, 0
3, 663531, Note_on_c, 0, 71, 106
3, 663579, Note_on_c, 0, 73, 0
3, 663600, Note_on_c, 0, 73, 108
3, 663651, Note_on_c, 0, 71, 0
3, 663693, Note_on_c, 0, 71, 110
3, 663720, Note_on_c, 0, 73, 0
3, 663766, Note_on_c, 0, 73, 100
3, 663811, Note_on_c, 0, 71, 0
3, 663853, Note_on_c, 0, 79, 108
3, 663886, Note_on_c, 0, 73, 0
3, 663928, Note_on_c, 0, 80, 102
3, 663973, Note_on_c, 0, 79, 0
3, 664008, Note_on_c, 0, 79, 106
3, 664046, Note_on_c, 0, 80, 0
3, 664102, Note_on_c, 0, 80, 94
3, 664128, Note_on_c, 0, 79, 0
3, 664176, Note_on_c, 0, 79, 92
3, 664222, Note_on_c, 0, 80, 0
3, 664256, Note_on_c, 0, 80, 93
3, 664294, Note_on_c, 0, 79, 0
3, 664344, Note_on_c, 0, 78, 109
3, 664376, Note_on_c, 0, 80, 0
3, 664408, Note_on_c, 0, 80, 91
3, 664464, Note_on_c, 0, 78, 0
3, 664494, Note_on_c, 0, 78, 110
3, 664526, Note_on_c, 0, 80, 0
3, 664576, Note_on_c, 0, 80, 110
3, 664614, Note_on_c, 0, 78, 0
3, 664640, Note_on_c, 0, 78, 93
3, 664696, Note_on_c, 0, 80, 0
3, 664722, Note_on_c, 0, 80, 98
3, 664758, Note_on_c, 0, 78, 0
3, 664817, Note_on_c, 0, 76, 98
3, 664842, Note_on_c, 0, 80, 0
3, 664892, Note_on_c, 0, 77, 97
3, 664937, Note_on_c, 0, 76, 0
3, 664969, Note_on_c, 0, 76, 95
3, 665010, Note_on_c, 0, 77, 0
3, 665044, Note_on_c, 0, 77, 91
3, 665089, Note_on_c, 0, 76, 0
3, 665126, Note_on_c, 0, 76, 101
3, 665164, Note_on_c, 0, 77, 0
3, 665217, Note_on_c, 0, 77, 109
3, 665244, Note_on_c, 0, 76, 0
3, 665293, Note_on_c, 0, 75, 98
3, 665337, Note_on_c, 0, 77, 0
3, 665368, Note_on_c, 0, 77, 100
3, 665413, Note_on_c, 0, 75, 0
3, 665457, Note_on_c, 0, 75, 110
3, 665486, Note_on_c, 0, 77, 0
3, 665536, Note_on_c, 0, 77, 104
3, 665577, Note_on_c, 0, 75, 0
3, 665619, Note_on_c, 0, 75, 95
3, 665656, Note_on_c, 0, 77, 0
3, 665684, Note_on_c, 0, 77, 102
3, 665737, Note_on_c, 0, 75, 0
3, 665773, Note_on_c, 0, 89, 106
3, 665804, Note_on_c, 0, 77, 0
3, 665820, Note_on_c, 0, 89, 0
3, 665837, Note_on_c, 0, 89, 108
3, 665884, Note_on_c, 0, 89, 0
3, 665897, Note_on_c, 0, 89, 111
3, 665944, Note_on_c, 0, 89, 0
3, 665981, Note_on_c, 0, 89, 97
3, 666028, Note_on_c, 0, 89, 0
3, 666056, Note_on_c, 0, 89, 98
3, 666103, Note_on_c, 0, 89, 0
3, 666111, Note_on_c, 0, 89, 101
3, 666158, Note_on_c, 0, 89, 0
3, 666180, Note_on_c, 0, 89, 102
3, 666225, Note_on_c, 0, 89, 0
3, 666255, Note_on_c, 0, 87, 107
3, 666302, Note_on_c, 0, 87, 0
3, 666314, Note_on_c, 0, 87, 107
3, 666361, Note_on_c, 0, 87, 0
3, 666383, Note_on_c, 0, 87, 103
3, 666430, Note_on_c, 0, 87, 0
3, 666446, Note_on_c, 0, 87, 99
3, 666493, Note_on_c, 0, 87, 0
3, 666526, Note_on_c, 0, 87, 100
3, 666573, Note_on_c, 0, 87, 0
3, 666585, Note_on_c, 0, 87, 97
3, 666632, Note_on_c, 0, 87, 0
3, 666666, Note_on_c, 0, 87, 91
3, 666711, Note_on_c, 0, 87, 0
3, 666729, Note_on_c, 0, 85, 93
3, 666776, Note_on_c, 0, 85, 0
3, 666805, Note_on_c, 0, 85, 98
3, 666852, Note_on_c, 0, 85, 0
3, 666879, Note_on_c, 0, 85, 96
3, 666926, Note_on_c, 0, 85, 0
3, 666935, Note_on_c, 0, 85, 101
3, 666982, Note_on_c, 0, 85, 0
3, 667005, Note_on_c, 0, 85, 98
3, 667052, Note_on_c, 0, 85, 0
3, 667066, Note_on_c, 0, 85, 102
3, 667113, Note_on_c, 0, 85, 0
3, 667134, Note_on_c, 0, 85, 101
3, 667179, Note_on_c, 0, 85, 0
3, 667212, Note_on_c, 0, 83, 95
3, 667259, Note_on_c, 0, 83, 0
3, 667282, Note_on_c, 0, 83, 107
3, 667329, Note_on_c, 0, 83, 0
3, 667345, Note_on_c, 0, 83, 102
3, 667392, Note_on_c, 0, 83, 0
3, 667415, Note_on_c, 0, 83, 94
3, 667462, Note_on_c, 0, 83, 0
3, 667484, Note_on_c, 0, 83, 102
3, 667531, Note_on_c, 0, 83, 0
3, 667544, Note_on_c, 0, 83, 97
3, 667591, Note_on_c, 0, 83, 0
3, 667622, Note_on_c, 0, 83, 110
3, 667667, Note_on_c, 0, 83, 0
3, 667683, Note_on_c, 0, 91, 96
3, 667730, Note_on_c, 0, 91, 0
3, 667752, Note_on_c, 0, 91, 98
3, 667799, Note_on_c, 0, 91, 0
3, 667819, Note_on_c, 0, 91, 104
3, 667866, Note_on_c, 0, 91, 0
3, 667902, Note_on_c, 0, 91, 96
3, 667949, Note_on_c, 0, 91, 0
3, 667959, Note_on_c, 0, 91, 92
3, 668006, Note_on_c, 0, 91, 0
3, 668031, Note_on_c, 0, 91, 102
3, 668078, Note_on_c, 0, 91, 0
3, 668090, Note_on_c, 0, 91, 97
3, 668135, Note_on_c, 0, 91, 0
3, 668169, Note_on_c, 0, 90, 91
3, 668216, Note_on_c, 0, 90, 0
3, 668228, Note_on_c, 0, 90, 97
3, 668275, Note_on_c, 0, 90, 0
3, 668320, Note_on_c, 0, 90, 103
3, 668367, Note_on_c, 0, 90, 0
3, 668368, Note_on_c, 0, 90, 101
3, 668415, Note_on_c, 0, 90, 0
3, 668447, Note_on_c, 0, 90, 92
3, 668494, Note_on_c, 0, 90, 0
3, 668519, Note_on_c, 0, 90, 94
3, 668566, Note_on_c, 0, 90, 0
3, 668578, Note_on_c, 0, 90, 104
3, 668623, Note_on_c, 0, 90, 0
3, 668641, Note_on_c, 0, 88, 101
3, 668688, Note_on_c, 0, 88, 0
3, 668723, Note_on_c, 0, 88, 109
3, 668770, Note_on_c, 0, 88, 0
3, 668797, Note_on_c, 0, 88, 111
3, 668844, Note_on_c, 0, 88, 0
3, 668845, Note_on_c, 0, 88, 95
3, 668892, Note_on_c, 0, 88, 0
3, 668936, Note_on_c, 0, 88, 100
3, 668983, Note_on_c, 0, 88, 0
3, 668993, Note_on_c, 0, 88, 108
3, 669040, Note_on_c, 0, 88, 0
3, 669050, Note_on_c, 0, 88, 96
3, 669095, Note_on_c, 0, 88, 0
3, 669124, Note_on_c, 0, 87, 107
3, 669171, Note_on_c, 0, 87, 0
3, 669206, Note_on_c, 0, 87, 109
3, 669253, Note_on_c, 0, 87, 0
3, 669259, Note_on_c, 0, 87, 106
3, 669306, Note_on_c, 0, 87, 0
3, 669348, Note_on_c, 0, 87, 95
3, 669395, Note_on_c, 0, 87, 0
3, 669413, Note_on_c, 0, 87, 111
3, 669460, Note_on_c, 0, 87, 0
3, 669467, Note_on_c, 0, 87, 107
3, 669514, Note_on_c, 0, 87, 0
3, 669547, Note_on_c, 0, 87, 100
3, 669592, Note_on_c, 0, 87, 0
3, 669624, Note_on_c, 0, 89, 108
3, 669671, Note_on_c, 0, 89, 0
3, 669686, Note_on_c, 0, 89, 101
3, 669733, Note_on_c, 0, 89, 0
3, 669759, Note_on_c, 0, 89, 109
3, 669806, Note_on_c, 0, 89, 0
3, 669806, Note_on_c, 0, 89, 110
3, 669853, Note_on_c, 0, 89, 0
3, 669885, Note_on_c, 0, 89, 108
3, 669932, Note_on_c, 0, 89, 0
3, 669944, Note_on_c, 0, 89, 106
3, 669991, Note_on_c, 0, 89, 0
3, 670030, Note_on_c, 0, 89, 95
3, 670075, Note_on_c, 0, 89, 0
3, 670102, Note_on_c, 0, 87, 101
3, 670149, Note_on_c, 0, 87, 0
3, 670153, Note_on_c, 0, 87, 97
3, 670200, Note_on_c, 0, 87, 0
3, 670235, Note_on_c, 0, 87, 106
3, 670282, Note_on_c, 0, 87, 0
3, 670305, Note_on_c, 0, 87, 101
3, 670352, Note_on_c, 0, 87, 0
3, 670363, Note_on_c, 0, 87, 91
3, 670410, Note_on_c, 0, 87, 0
3, 670425, Note_on_c, 0, 87, 106
3, 670472, Note_on_c, 0, 87, 0
3, 670509, Note_on_c, 0, 87, 101
3, 670554, Note_on_c, 0, 87, 0
3, 670574, Note_on_c, 0, 85, 104
3, 670621, Note_on_c, 0, 85, 0
3, 670647, Note_on_c, 0, 85, 111
3, 670694, Note_on_c, 0, 85, 0
3, 670703, Note_on_c, 0, 85, 111
3, 670750, Note_on_c, 0, 85, 0
3, 670772, Note_on_c, 0, 85, 108
3, 670819, Note_on_c, 0, 85, 0
3, 670835, Note_on_c, 0, 85, 97
3, 670882, Note_on_c, 0, 85, 0
3, 670925, Note_on_c, 0, 85, 107
3, 670972, Note_on_c, 0, 85, 0
3, 670992, Note_on_c, 0, 85, 93
3, 671037, Note_on_c, 0, 85, 0
3, 671063, Note_on_c, 0, 83, 107
3, 671110, Note_on_c, 0, 83, 0
3, 671123, Note_on_c, 0, 83, 107
3, 671170, Note_on_c, 0, 83, 0
3, 671179, Note_on_c, 0, 83, 105
3, 671226, Note_on_c, 0, 83, 0
3, 671246, Note_on_c, 0, 83, 102
3, 671293, Note_on_c, 0, 83, 0
3, 671333, Note_on_c, 0, 83, 105
3, 671380, Note_on_c, 0, 83, 0
3, 671384, Note_on_c, 0, 83, 107
3, 671431, Note_on_c, 0, 83, 0
3, 671470, Note_on_c, 0, 83, 106
3, 671515, Note_on_c, 0, 83, 0
3, 671531, Note_on_c, 0, 91, 95
3, 671578, Note_on_c, 0, 91, 0
3, 671605, Note_on_c, 0, 91, 102
3, 671652, Note_on_c, 0, 91, 0
3, 671676, Note_on_c, 0, 91, 105
3, 671723, Note_on_c, 0, 91, 0
3, 671738, Note_on_c, 0, 91, 96
3, 671785, Note_on_c, 0, 91, 0
3, 671816, Note_on_c, 0, 91, 104
3, 671863, Note_on_c, 0, 91, 0
3, 671880, Note_on_c, 0, 91, 102
3, 671927, Note_on_c, 0, 91, 0
3, 671935, Note_on_c, 0, 91, 111
3, 671980, Note_on_c, 0, 91, 0
3, 672004, Note_on_c, 0, 90, 106
3, 672051, Note_on_c, 0, 90, 0
3, 672091, Note_on_c, 0, 90, 105
3, 672138, Note_on_c, 0, 90, 0
3, 672142, Note_on_c, 0, 90, 101
3, 672189, Note_on_c, 0, 90, 0
3, 672220, Note_on_c, 0, 90, 93
3, 672267, Note_on_c, 0, 90, 0
3, 672283, Note_on_c, 0, 90, 107
3, 672330, Note_on_c, 0, 90, 0
3, 672356, Note_on_c, 0, 90, 107
3, 672403, Note_on_c, 0, 90, 0
3, 672418, Note_on_c, 0, 90, 99
3, 672463, Note_on_c, 0, 90, 0
3, 672480, Note_on_c, 0, 88, 102
3, 672527, Note_on_c, 0, 88, 0
3, 672550, Note_on_c, 0, 88, 100
3, 672597, Note_on_c, 0, 88, 0
3, 672624, Note_on_c, 0, 88, 97
3, 672671, Note_on_c, 0, 88, 0
3, 672695, Note_on_c, 0, 88, 107
3, 672742, Note_on_c, 0, 88, 0
3, 672762, Note_on_c, 0, 88, 91
3, 672809, Note_on_c, 0, 88, 0
3, 672832, Note_on_c, 0, 88, 99
3, 672879, Note_on_c, 0, 88, 0
3, 672904, Note_on_c, 0, 88, 99
3, 672949, Note_on_c, 0, 88, 0
3, 672983, Note_on_c, 0, 87, 98
3, 673030, Note_on_c, 0, 87, 0
3, 673035, Note_on_c, 0, 87, 98
3, 673082, Note_on_c, 0, 87, 0
3, 673115, Note_on_c, 0, 87, 98
3, 673162, Note_on_c, 0, 87, 0
3, 673172, Note_on_c, 0, 87, 98
3, 673219, Note_on_c, 0, 87, 0
3, 673253, Note_on_c, 0, 87, 105
3, 673300, Note_on_c, 0, 87, 0
3, 673304, Note_on_c, 0, 87, 110
3, 673351, Note_on_c, 0, 87, 0
3, 673386, Note_on_c, 0, 87, 111
3, 673431, Note_on_c, 0, 87, 0
3, 673445, Note_on_c, 0, 89, 95
3, 673492, Note_on_c, 0, 89, 0
3, 673511, Note_on_c, 0, 89, 111
3, 673558, Note_on_c, 0, 89, 0
3, 673589, Note_on_c, 0, 89, 101
3, 673636, Note_on_c, 0, 89, 0
3, 673649, Note_on_c, 0, 89, 108
3, 673696, Note_on_c, 0, 89, 0
3, 673713, Note_on_c, 0, 89, 95
3, 673760, Note_on_c, 0, 89, 0
3, 673805, Note_on_c, 0, 89, 101
3, 673852, Note_on_c, 0, 89, 0
3, 673854, Note_on_c, 0, 89, 91
3, 673899, Note_on_c, 0, 89, 0
3, 673944, Note_on_c, 0, 87, 108
3, 673991, Note_on_c, 0, 87, 0
3, 673995, Note_on_c, 0, 87, 98
3, 674042, Note_on_c, 0, 87, 0
3, 674075, Note_on_c, 0, 87, 109
3, 674122, Note_on_c, 0, 87, 0
3, 674144, Note_on_c, 0, 87, 99
3, 674191, Note_on_c, 0, 87, 0
3, 674217, Note_on_c, 0, 87, 111
3, 674263, Note_on_c, 0, 87, 94
3, 674264, Note_on_c, 0, 87, 0
3, 674310, Note_on_c, 0, 87, 0
3, 674350, Note_on_c, 0, 87, 109
3, 674395, Note_on_c, 0, 87, 0
3, 674405, Note_on_c, 0, 85, 111
3, 674452, Note_on_c, 0, 85, 0
3, 674487, Note_on_c, 0, 85, 108
3, 674534, Note_on_c, 0, 85, 0
3, 674548, Note_on_c, 0, 85, 92
3, 674595, Note_on_c, 0, 85, 0
3, 674627, Note_on_c, 0, 85, 109
3, 674674, Note_on_c, 0, 85, 0
3, 674686, Note_on_c, 0, 85, 103
3, 674733, Note_on_c, 0, 85, 0
3, 674744, Note_on_c, 0, 85, 105
3, 674791, Note_on_c, 0, 85, 0
3, 674833, Note_on_c, 0, 85, 97
3, 674878, Note_on_c, 0, 85, 0
3, 674899, Note_on_c, 0, 83, 103
3, 674946, Note_on_c, 0, 83, 0
3, 674948, Note_on_c, 0, 83, 106
3, 674995, Note_on_c, 0, 83, 0
3, 675028, Note_on_c, 0, 83, 105
3, 675075, Note_on_c, 0, 83, 0
3, 675085, Note_on_c, 0, 83, 101
3, 675132, Note_on_c, 0, 83, 0
3, 675173, Note_on_c, 0, 83, 93
3, 675220, Note_on_c, 0, 83, 0
3, 675244, Note_on_c, 0, 83, 96
3, 675291, Note_on_c, 0, 83, 0
3, 675296, Note_on_c, 0, 83, 93
3, 675341, Note_on_c, 0, 83, 0
3, 675372, Note_on_c, 0, 91, 98
3, 675419, Note_on_c, 0, 91, 0
3, 675442, Note_on_c, 0, 91, 101
3, 675489, Note_on_c, 0, 91, 0
3, 675497, Note_on_c, 0, 91, 102
3, 675544, Note_on_c, 0, 91, 0
3, 675583, Note_on_c, 0, 91, 101
3, 675630, Note_on_c, 0, 91, 0
3, 675648, Note_on_c, 0, 91, 107
3, 675695, Note_on_c, 0, 91, 0
3, 675726, Note_on_c, 0, 91, 94
3, 675773, Note_on_c, 0, 91, 0
3, 675793, Note_on_c, 0, 91, 108
3, 675838, Note_on_c, 0, 91, 0
3, 675852, Note_on_c, 0, 90, 97
3, 675899, Note_on_c, 0, 90, 0
3, 675915, Note_on_c, 0, 90, 109
3, 675962, Note_on_c, 0, 90, 0
3, 675993, Note_on_c, 0, 90, 108
3, 676040, Note_on_c, 0, 90, 0
3, 676052, Note_on_c, 0, 90, 111
3, 676099, Note_on_c, 0, 90, 0
3, 676131, Note_on_c, 0, 90, 94
3, 676178, Note_on_c, 0, 90, 0
3, 676184, Note_on_c, 0, 90, 94
3, 676231, Note_on_c, 0, 90, 0
3, 676272, Note_on_c, 0, 90, 94
3, 676317, Note_on_c, 0, 90, 0
3, 676334, Note_on_c, 0, 88, 110
3, 676381, Note_on_c, 0, 88, 0
3, 676406, Note_on_c, 0, 88, 99
3, 676453, Note_on_c, 0, 88, 0
3, 676462, Note_on_c, 0, 88, 91
3, 676509, Note_on_c, 0, 88, 0
3, 676533, Note_on_c, 0, 88, 101
3, 676580, Note_on_c, 0, 88, 0
3, 676617, Note_on_c, 0, 88, 97
3, 676664, Note_on_c, 0, 88, 0
3, 676682, Note_on_c, 0, 88, 106
3, 676729, Note_on_c, 0, 88, 0
3, 676731, Note_on_c, 0, 88, 97
3, 676776, Note_on_c, 0, 88, 0
3, 676801, Note_on_c, 0, 87, 104
3, 676848, Note_on_c, 0, 87, 0
3, 676880, Note_on_c, 0, 87, 106
3, 676927, Note_on_c, 0, 87, 0
3, 676941, Note_on_c, 0, 87, 92
3, 676988, Note_on_c, 0, 87, 0
3, 677027, Note_on_c, 0, 87, 99
3, 677074, Note_on_c, 0, 87, 0
3, 677077, Note_on_c, 0, 87, 109
3, 677124, Note_on_c, 0, 87, 0
3, 677159, Note_on_c, 0, 87, 91
3, 677206, Note_on_c, 0, 87, 0
3, 677223, Note_on_c, 0, 87, 107
3, 677268, Note_on_c, 0, 87, 0
3, 689286, Note_on_c, 0, 67, 100
3, 689354, Note_on_c, 0, 67, 0
3, 689361, Note_on_c, 0, 72, 107
3, 689429, Note_on_c, 0, 72, 0
3, 689431, Note_on_c, 0, 76, 109
3, 689499, Note_on_c, 0, 76, 0
3, 689507, Note_on_c, 0, 78, 98
3, 689564, Note_on_c, 0, 79, 107
3, 689575, Note_on_c, 0, 78, 0
3, 689632, Note_on_c, 0, 79, 0
3, 689636, Note_on_c, 0, 84, 108
3, 689704, Note_on_c, 0, 84, 0
3, 689707, Note_on_c, 0, 88, 91
3, 689775, Note_on_c, 0, 88, 0
3, 690258, Note_on_c, 0, 90, 113
3, 690618, Note_on_c, 0, 90, 0
3, 691210, Note_on_c, 0, 90, 105
3, 691570, Note_on_c, 0, 90, 0
3, 692423, Note_on_c, 0, 90, 101
3, 692663, Note_on_c, 0, 90, 0
3, 693134, Note_on_c, 0, 90, 104
3, 693494, Note_on_c, 0, 90, 0
3, 694080, Note_on_c, 0, 90, 104
3, 694440, Note_on_c, 0, 90, 0
3, 694572, Note_on_c, 0, 92, 114
3, 694687, Note_on_c, 0, 92, 0
3, 694762, Note_on_c, 0, 90, 105
3, 694877, Note_on_c, 0, 90, 0
3, 694962, Note_on_c, 0, 88, 95
3, 695077, Note_on_c, 0, 88, 0
3, 695140, Note_on_c, 0, 86, 101
3, 695254, Note_on_c, 0, 86, 0
3, 695342, Note_on_c, 0, 88, 102
3, 695457, Note_on_c, 0, 88, 0
3, 695521, Note_on_c, 0, 90, 104
3, 695601, Note_on_c, 0, 90, 0
3, 695699, Note_on_c, 0, 88, 109
3, 695780, Note_on_c, 0, 88, 0
3, 695840, Note_on_c, 0, 86, 104
3, 695920, Note_on_c, 0, 86, 0
3, 696002, Note_on_c, 0, 88, 102
3, 696362, Note_on_c, 0, 88, 0
3, 696504, Note_on_c, 0, 67, 115
3, 696550, Note_on_c, 0, 72, 109
3, 696572, Note_on_c, 0, 67, 0
3, 696618, Note_on_c, 0, 72, 0
3, 696626, Note_on_c, 0, 76, 98
3, 696694, Note_on_c, 0, 76, 0
3, 696700, Note_on_c, 0, 78, 105
3, 696767, Note_on_c, 0, 79, 98
3, 696768, Note_on_c, 0, 78, 0
3, 696832, Note_on_c, 0, 84, 101
3, 696835, Note_on_c, 0, 79, 0
3, 696898, Note_on_c, 0, 88, 101
3, 696900, Note_on_c, 0, 84, 0
3, 696966, Note_on_c, 0, 88, 0
3, 697458, Note_on_c, 0, 90, 111
3, 697818, Note_on_c, 0, 90, 0
3, 697931, Note_on_c, 0, 67, 101
3, 697999, Note_on_c, 0, 67, 0
3, 697999, Note_on_c, 0, 72, 115
3, 698067, Note_on_c, 0, 72, 0
3, 698074, Note_on_c, 0, 76, 111
3, 698142, Note_on_c, 0, 76, 0
3, 698146, Note_on_c, 0, 78, 100
3, 698207, Note_on_c, 0, 79, 103
3, 698214, Note_on_c, 0, 78, 0
3, 698267, Note_on_c, 0, 84, 112
3, 698275, Note_on_c, 0, 79, 0
3, 698335, Note_on_c, 0, 84, 0
3, 698336, Note_on_c, 0, 88, 110
3, 698404, Note_on_c, 0, 88, 0
3, 698898, Note_on_c, 0, 92, 104
3, 699018, Note_on_c, 0, 92, 0
3, 699133, Note_on_c, 0, 90, 110
3, 699253, Note_on_c, 0, 90, 0
3, 699360, Note_on_c, 0, 88, 97
3, 699720, Note_on_c, 0, 88, 0
3, 700335, Note_on_c, 0, 90, 112
3, 700695, Note_on_c, 0, 90, 0
3, 701303, Note_on_c, 0, 90, 96
3, 701663, Note_on_c, 0, 90, 0
3, 702013, Note_on_c, 0, 90, 109
3, 702253, Note_on_c, 0, 90, 0
3, 703201, Note_on_c, 0, 90, 108
3, 703561, Note_on_c, 0, 90, 0
3, 704168, Note_on_c, 0, 90, 96
3, 704528, Note_on_c, 0, 90, 0
3, 704650, Note_on_c, 0, 92, 96
3, 704770, Note_on_c, 0, 92, 0
3, 704884, Note_on_c, 0, 90, 110
3, 705004, Note_on_c, 0, 90, 0
3, 705144, Note_on_c, 0, 88, 96
3, 705504, Note_on_c, 0, 88, 0
3, 706092, Note_on_c, 0, 92, 112
3, 706172, Note_on_c, 0, 92, 0
3, 706256, Note_on_c, 0, 90, 106
3, 706337, Note_on_c, 0, 90, 0
3, 706405, Note_on_c, 0, 88, 103
3, 706485, Note_on_c, 0, 88, 0
3, 706560, Note_on_c, 0, 90, 108
3, 706920, Note_on_c, 0, 90, 0
3, 707532, Note_on_c, 0, 92, 104
3, 707612, Note_on_c, 0, 92, 0
3, 707703, Note_on_c, 0, 90, 104
3, 707784, Note_on_c, 0, 90, 0
3, 707865, Note_on_c, 0, 88, 109
3, 707945, Note_on_c, 0, 88, 0
3, 708014, Note_on_c, 0, 90, 102
3, 708094, Note_on_c, 0, 90, 0
3, 708178, Note_on_c, 0, 88, 98
3, 708259, Note_on_c, 0, 88, 0
3, 708328, Note_on_c, 0, 86, 109
3, 708408, Note_on_c, 0, 86, 0
3, 708981, Note_on_c, 0, 67, 98
3, 709049, Note_on_c, 0, 67, 0
3, 709051, Note_on_c, 0, 72, 98
3, 709107, Note_on_c, 0, 76, 109
3, 709119, Note_on_c, 0, 72, 0
3, 709175, Note_on_c, 0, 76, 0
3, 709177, Note_on_c, 0, 78, 111
3, 709245, Note_on_c, 0, 78, 0
3, 709251, Note_on_c, 0, 79, 115
3, 709304, Note_on_c, 0, 84, 115
3, 709319, Note_on_c, 0, 79, 0
3, 709372, Note_on_c, 0, 84, 0
3, 709394, Note_on_c, 0, 88, 112
3, 709462, Note_on_c, 0, 88, 0
3, 710411, Note_on_c, 0, 92, 101
3, 710491, Note_on_c, 0, 92, 0
3, 710565, Note_on_c, 0, 90, 109
3, 710646, Note_on_c, 0, 90, 0
3, 710744, Note_on_c, 0, 88, 115
3, 710824, Note_on_c, 0, 88, 0
3, 710905, Note_on_c, 0, 90, 108
3, 710985, Note_on_c, 0, 90, 0
3, 711046, Note_on_c, 0, 88, 112
3, 711127, Note_on_c, 0, 88, 0
3, 711214, Note_on_c, 0, 86, 110
3, 711294, Note_on_c, 0, 86, 0
3, 711865, Note_on_c, 0, 67, 102
3, 711910, Note_on_c, 0, 72, 96
3, 711933, Note_on_c, 0, 67, 0
3, 711978, Note_on_c, 0, 72, 0
3, 711985, Note_on_c, 0, 76, 101
3, 712051, Note_on_c, 0, 78, 115
3, 712053, Note_on_c, 0, 76, 0
3, 712119, Note_on_c, 0, 78, 0
3, 712120, Note_on_c, 0, 79, 109
3, 712182, Note_on_c, 0, 84, 105
3, 712188, Note_on_c, 0, 79, 0
3, 712250, Note_on_c, 0, 84, 0
3, 712260, Note_on_c, 0, 88, 111
3, 712328, Note_on_c, 0, 88, 0
3, 712806, Note_on_c, 0, 90, 107
3, 713166, Note_on_c, 0, 90, 0
3, 713282, Note_on_c, 0, 90, 109
3, 713642, Note_on_c, 0, 90, 0
3, 714246, Note_on_c, 0, 90, 110
3, 714606, Note_on_c, 0, 90, 0
3, 715456, Note_on_c, 0, 90, 99
3, 715696, Note_on_c, 0, 90, 0
3, 716165, Note_on_c, 0, 90, 96
3, 716525, Note_on_c, 0, 90, 0
3, 717121, Note_on_c, 0, 90, 100
3, 717481, Note_on_c, 0, 90, 0
3, 717865, Note_on_c, 0, 90, 106
3, 718105, Note_on_c, 0, 90, 0
3, 719055, Note_on_c, 0, 90, 115
3, 719415, Note_on_c, 0, 90, 0
3, 720008, Note_on_c, 0, 90, 103
3, 720368, Note_on_c, 0, 90, 0
3, 720963, Note_on_c, 0, 90, 99
3, 721323, Note_on_c, 0, 90, 0
3, 764663, Note_on_c, 0, 79, 111
3, 764721, Note_on_c, 0, 81, 120
3, 764731, Note_on_c, 0, 79, 0
3, 764784, Note_on_c, 0, 82, 112
3, 764789, Note_on_c, 0, 81, 0
3, 764847, Note_on_c, 0, 84, 117
3, 764852, Note_on_c, 0, 82, 0
3, 764915, Note_on_c, 0, 84, 0
3, 764935, Note_on_c, 0, 86, 107
3, 765000, Note_on_c, 0, 88, 120
3, 765003, Note_on_c, 0, 86, 0
3, 765063, Note_on_c, 0, 90, 107
3, 765068, Note_on_c, 0, 88, 0
3, 765131, Note_on_c, 0, 90, 0
3, 765603, Note_on_c, 0, 96, 110
3, 766083, Note_on_c, 0, 96, 0
3, 766818, Note_on_c, 0, 96, 111
3, 767058, Note_on_c, 0, 96, 0
3, 768017, Note_on_c, 0, 96, 124
3, 768497, Note_on_c, 0, 96, 0
3, 768742, Note_on_c, 0, 96, 119
3, 768982, Note_on_c, 0, 96, 0
3, 769446, Note_on_c, 0, 96, 118
3, 769926, Note_on_c, 0, 96, 0
3, 770402, Note_on_c, 0, 96, 123
3, 770882, Note_on_c, 0, 96, 0
3, 771620, Note_on_c, 0, 96, 110
3, 771860, Note_on_c, 0, 96, 0
3, 772805, Note_on_c, 0, 96, 124
3, 773285, Note_on_c, 0, 96, 0
3, 773285, End_track
4, 0, Start_track
4, 0, Title_t, "Flauti II"
4, 0, MIDI_port, 0
4, 0, Program_c, 0, 73
4, 28800, Note_on_c, 0, 73, 58
4, 28839, Note_on_c, 0, 73, 0
4, 28839, Note_on_c, 0, 75, 59
4, 28878, Note_on_c, 0, 75, 0
4, 28878, Note_on_c, 0, 73, 54
4, 28917, Note_on_c, 0, 73, 0
4, 28918, Note_on_c, 0, 75, 50
4, 28957, Note_on_c, 0, 75, 0
4, 28957, Note_on_c, 0, 73, 49
4, 28996, Note_on_c, 0, 73, 0
4, 28996, Note_on_c, 0, 75, 56
4, 29035, Note_on_c, 0, 75, 0
4, 29036, Note_on_c, 0, 73, 40
4, 29075, Note_on_c, 0, 73, 0
4, 29075, Note_on_c, 0, 75, 59
4, 29114, Note_on_c, 0, 75, 0
4, 29115, Note_on_c, 0, 73, 45
4, 29154, Note_on_c, 0, 73, 0
4, 29154, Note_on_c, 0, 75, 55
4, 29193, Note_on_c, 0, 75, 0
4, 29193, Note_on_c, 0, 73, 40
4, 29232, Note_on_c, 0, 73, 0
4, 29233, Note_on_c, 0, 75, 44
4, 29272, Note_on_c, 0, 75, 0
4, 29272, Note_on_c, 0, 73, 57
4, 29311, Note_on_c, 0, 73, 0
4, 29311, Note_on_c, 0, 75, 56
4, 29350, Note_on_c, 0, 75, 0
4, 29351, Note_on_c, 0, 73, 40
4, 29390, Note_on_c, 0, 73, 0
4, 29390, Note_on_c, 0, 75, 52
4, 29429, Note_on_c, 0, 75, 0
4, 29430, Note_on_c, 0, 73, 54
4, 29469, Note_on_c, 0, 73, 0
4, 29469, Note_on_c, 0, 75, 47
4, 29508, Note_on_c, 0, 75, 0
4, 29508, Note_on_c, 0, 73, 51
4, 29547, Note_on_c, 0, 73, 0
4, 29548, Note_on_c, 0, 75, 52
4, 29587, Note_on_c, 0, 75, 0
4, 29587, Note_on_c, 0, 73, 54
4, 29626, Note_on_c, 0, 73, 0
4, 29626, Note_on_c, 0, 75, 49
4, 29665, Note_on_c, 0, 75, 0
4, 29666, Note_on_c, 0, 73, 39
4, 29705, Note_on_c, 0, 73, 0
4, 29705, Note_on_c, 0, 75, 48
4, 29744, Note_on_c, 0, 75, 0
4, 29745, Note_on_c, 0, 73, 57
4, 29784, Note_on_c, 0, 73, 0
4, 29784, Note_on_c, 0, 75, 49
4, 29823, Note_on_c, 0, 75, 0
4, 29823, Note_on_c, 0, 73, 47
4, 29862, Note_on_c, 0, 73, 0
4, 29863, Note_on_c, 0, 75, 58
4, 29902, Note_on_c, 0, 75, 0
4, 29902, Note_on_c, 0, 73, 39
4, 29941, Note_on_c, 0, 73, 0
4, 29941, Note_on_c, 0, 75, 53
4, 29980, Note_on_c, 0, 75, 0
4, 29981, Note_on_c, 0, 73, 57
4, 30020, Note_on_c, 0, 73, 0
4, 30020, Note_on_c, 0, 75, 57
4, 30059, Note_on_c, 0, 75, 0
4, 30060, Note_on_c, 0, 73, 58
4, 30099, Note_on_c, 0, 73, 0
4, 30099, Note_on_c, 0, 75, 46
4, 30138, Note_on_c, 0, 75, 0
4, 30138, Note_on_c, 0, 73, 54
4, 30177, Note_on_c, 0, 73, 0
4, 30178, Note_on_c, 0, 75, 44
4, 30217, Note_on_c, 0, 75, 0
4, 30217, Note_on_c, 0, 73, 41
4, 30256, Note_on_c, 0, 73, 0
4, 30256, Note_on_c, 0, 75, 47
4, 30295, Note_on_c, 0, 75, 0
4, 30296, Note_on_c, 0, 73, 45
4, 30335, Note_on_c, 0, 73, 0
4, 30335, Note_on_c, 0, 75, 47
4, 30374, Note_on_c, 0, 75, 0
4, 30375, Note_on_c, 0, 73, 46
4, 30414, Note_on_c, 0, 73, 0
4, 30414, Note_on_c, 0, 75, 41
4, 30453, Note_on_c, 0, 75, 0
4, 30453, Note_on_c, 0, 73, 41
4, 30492, Note_on_c, 0, 73, 0
4, 30493, Note_on_c, 0, 75, 51
4, 30532, Note_on_c, 0, 75, 0
4, 30532, Note_on_c, 0, 73, 45
4, 30571, Note_on_c, 0, 73, 0
4, 30571, Note_on_c, 0, 75, 45
4, 30610, Note_on_c, 0, 75, 0
4, 30611, Note_on_c, 0, 73, 53
4, 30650, Note_on_c, 0, 73, 0
4, 30650, Note_on_c, 0, 75, 46
4, 30689, Note_on_c, 0, 75, 0
4, 30690, Note_on_c, 0, 73, 45
4, 30729, Note_on_c, 0, 75, 41
4, 30735, Note_on_c, 0, 73, 0
4, 30768, Note_on_c, 0, 75, 0
4, 30768, Note_on_c, 0, 73, 41
4, 30807, Note_on_c, 0, 73, 0
4, 30808, Note_on_c, 0, 75, 56
4, 30847, Note_on_c, 0, 75, 0
4, 30847, Note_on_c, 0, 73, 50
4, 30886, Note_on_c, 0, 73, 0
4, 30886, Note_on_c, 0, 75, 42
4, 30925, Note_on_c, 0, 75, 0
4, 30926, Note_on_c, 0, 73, 56
4, 30965, Note_on_c, 0, 73, 0
4, 30965, Note_on_c, 0, 75, 55
4, 31004, Note_on_c, 0, 75, 0
4, 31005, Note_on_c, 0, 73, 49
4, 31044, Note_on_c, 0, 73, 0
4, 31044, Note_on_c, 0, 75, 39
4, 31083, Note_on_c, 0, 75, 0
4, 31083, Note_on_c, 0, 73, 58
4, 31122, Note_on_c, 0, 73, 0
4, 31123, Note_on_c, 0, 75, 42
4, 31162, Note_on_c, 0, 75, 0
4, 31162, Note_on_c, 0, 73, 52
4, 31201, Note_on_c, 0, 73, 0
4, 31201, Note_on_c, 0, 75, 41
4, 31240, Note_on_c, 0, 75, 0
4, 31241, Note_on_c, 0, 73, 49
4, 31280, Note_on_c, 0, 73, 0
4, 31280, Note_on_c, 0, 75, 52
4, 31319, Note_on_c, 0, 75, 0
4, 31320, Note_on_c, 0, 73, 47
4, 31359, Note_on_c, 0, 73, 0
4, 31359, Note_on_c, 0, 75, 48
4, 31398, Note_on_c, 0, 75, 0
4, 31398, Note_on_c, 0, 73, 53
4, 31437, Note_on_c, 0, 73, 0
4, 31438, Note_on_c, 0, 75, 43
4, 31477, Note_on_c, 0, 75, 0
4, 31477, Note_on_c, 0, 73, 47
4, 31516, Note_on_c, 0, 73, 0
4, 31516, Note_on_c, 0, 75, 47
4, 31555, Note_on_c, 0, 75, 0
4, 31556, Note_on_c, 0, 73, 43
4, 31595, Note_on_c, 0, 73, 0
4, 31595, Note_on_c, 0, 75, 58
4, 31634, Note_on_c, 0, 75, 0
4, 31635, Note_on_c, 0, 73, 52
4, 31674, Note_on_c, 0, 73, 0
4, 33138, Note_on_c, 0, 62, 52
4, 35212, Note_on_c, 0, 64, 42
4, 35217, Note_on_c, 0, 62, 0
4, 35365, Note_on_c, 0, 63, 39
4, 35372, Note_on_c, 0, 64, 0
4, 35524, Note_on_c, 0, 63, 0
4, 35534, Note_on_c, 0, 62, 40
4, 35684, Note_on_c, 0, 63, 59
4, 35693, Note_on_c, 0, 62, 0
4, 35844, Note_on_c, 0, 63, 0
4, 35854, Note_on_c, 0, 64, 57
4, 36013, Note_on_c, 0, 64, 0
4, 36022, Note_on_c, 0, 65, 53
4, 36168, Note_on_c, 0, 64, 53
4, 36181, Note_on_c, 0, 65, 0
4, 36328, Note_on_c, 0, 64, 0
4, 36334, Note_on_c, 0, 63, 52
4, 36493, Note_on_c, 0, 63, 0
4, 36505, Note_on_c, 0, 62, 39
4, 36657, Note_on_c, 0, 63, 53
4, 36664, Note_on_c, 0, 62, 0
4, 36803, Note_on_c, 0, 64, 47
4, 36817, Note_on_c, 0, 63, 0
4, 36962, Note_on_c, 0, 64, 0
4, 36972, Note_on_c, 0, 65, 57
4, 37131, Note_on_c, 0, 65, 0
4, 37141, Note_on_c, 0, 64, 49
4, 37298, Note_on_c, 0, 63, 59
4, 37301, Note_on_c, 0, 64, 0
4, 37445, Note_on_c, 0, 62, 40
4, 37457, Note_on_c, 0, 63, 0
4, 37685, Note_on_c, 0, 62, 0
4, 37696, Note_on_c, 0, 63, 41
4, 37925, Note_on_c, 0, 62, 43
4, 37936, Note_on_c, 0, 63, 0
4, 38564, Note_on_c, 0, 62, 0
4, 38576, Note_on_c, 0, 63, 54
4, 38736, Note_on_c, 0, 63, 0
4, 38745, Note_on_c, 0, 64, 50
4, 38887, Note_on_c, 0, 62, 54
4, 38904, Note_on_c, 0, 64, 0
4, 39127, Note_on_c, 0, 62, 0
4, 39142, Note_on_c, 0, 63, 43
4, 39363, Note_on_c, 0, 64, 50
4, 39382, Note_on_c, 0, 63, 0
4, 39603, Note_on_c, 0, 64, 0
4, 39619, Note_on_c, 0, 65, 51
4, 39848, Note_on_c, 0, 64, 44
4, 39859, Note_on_c, 0, 65, 0
4, 40088, Note_on_c, 0, 64, 0
4, 40103, Note_on_c, 0, 63, 39
4, 40321, Note_on_c, 0, 62, 48
4, 40343, Note_on_c, 0, 63, 0
4, 40561, Note_on_c, 0, 62, 0
4, 40580, Note_on_c, 0, 63, 50
4, 40819, Note_on_c, 0, 62, 50
4, 40820, Note_on_c, 0, 63, 0
4, 42019, Note_on_c, 0, 62, 0
4, 43680, Note_on_c, 0, 80, 41
4, 43740, Note_on_c, 0, 80, 0
4, 43740, Note_on_c, 0, 80, 52
4, 43800, Note_on_c, 0, 80, 0
4, 43800, Note_on_c, 0, 80, 54
4, 43860, Note_on_c, 0, 80, 0
4, 43860, Note_on_c, 0, 80, 43
4, 43916, Note_on_c, 0, 80, 0
4, 43920, Note_on_c, 0, 80, 46
4, 43921, Note_on_c, 0, 80, 0
4, 44160, Note_on_c, 0, 80, 56
4, 44220, Note_on_c, 0, 80, 0
4, 44220, Note_on_c, 0, 80, 46
4, 44280, Note_on_c, 0, 80, 0
4, 44280, Note_on_c, 0, 80, 39
4, 44340, Note_on_c, 0, 80, 0
4, 44340, Note_on_c, 0, 80, 59
4, 44396, Note_on_c, 0, 80, 0
4, 44400, Note_on_c, 0, 80, 39
4, 44401, Note_on_c, 0, 80, 0
4, 44640, Note_on_c, 0, 80, 54
4, 44700, Note_on_c, 0, 80, 0
4, 44700, Note_on_c, 0, 80, 55
4, 44760, Note_on_c, 0, 80, 0
4, 44760, Note_on_c, 0, 80, 45
4, 44820, Note_on_c, 0, 80, 0
4, 44820, Note_on_c, 0, 80, 56
4, 44876, Note_on_c, 0, 80, 0
4, 44880, Note_on_c, 0, 80, 48
4, 44881, Note_on_c, 0, 80, 0
4, 46080, Note_on_c, 0, 80, 48
4, 46140, Note_on_c, 0, 80, 0
4, 46140, Note_on_c, 0, 80, 59
4, 46200, Note_on_c, 0, 80, 0
4, 46200, Note_on_c, 0, 80, 53
4, 46260, Note_on_c, 0, 80, 0
4, 46260, Note_on_c, 0, 80, 42
4, 46316, Note_on_c, 0, 80, 0
4, 46320, Note_on_c, 0, 80, 50
4, 46321, Note_on_c, 0, 80, 0
4, 46560, Note_on_c, 0, 80, 53
4, 46620, Note_on_c, 0, 80, 0
4, 46620, Note_on_c, 0, 80, 48
4, 46680, Note_on_c, 0, 80, 0
4, 46680, Note_on_c, 0, 80, 48
4, 46740, Note_on_c, 0, 80, 0
4, 46740, Note_on_c, 0, 80, 39
4, 46796, Note_on_c, 0, 80, 0
4, 46800, Note_on_c, 0, 80, 55
4, 46801, Note_on_c, 0, 80, 0
4, 59760, Note_on_c, 0, 65, 72
4, 59799, Note_on_c, 0, 65, 0
4, 59799, Note_on_c, 0, 70, 65
4, 59839, Note_on_c, 0, 70, 0
4, 59840, Note_on_c, 0, 72, 77
4, 59879, Note_on_c, 0, 72, 0
4, 59880, Note_on_c, 0, 75, 74
4, 59919, Note_on_c, 0, 75, 0
4, 59919, Note_on_c, 0, 77, 82
4, 59959, Note_on_c, 0, 77, 0
4, 59960, Note_on_c, 0, 82, 79
4, 59999, Note_on_c, 0, 82, 0
4, 60024, Note_on_c, 0, 89, 83
4, 60144, Note_on_c, 0, 89, 0
4, 60720, Note_on_c, 0, 66, 77
4, 60753, Note_on_c, 0, 66, 0
4, 60753, Note_on_c, 0, 67, 68
4, 60787, Note_on_c, 0, 67, 0
4, 60788, Note_on_c, 0, 69, 78
4, 60821, Note_on_c, 0, 69, 0
4, 60822, Note_on_c, 0, 70, 66
4, 60856, Note_on_c, 0, 70, 0
4, 60856, Note_on_c, 0, 72, 65
4, 60890, Note_on_c, 0, 72, 0
4, 60891, Note_on_c, 0, 74, 79
4, 60925, Note_on_c, 0, 74, 0
4, 60925, Note_on_c, 0, 75, 71
4, 60958, Note_on_c, 0, 75, 0
4, 60977, Note_on_c, 0, 77, 71
4, 61072, Note_on_c, 0, 77, 0
4, 63399, Note_on_c, 0, 68, 53
4, 63439, Note_on_c, 0, 68, 0
4, 63440, Note_on_c, 0, 75, 41
4, 63479, Note_on_c, 0, 75, 0
4, 63480, Note_on_c, 0, 80, 52
4, 63519, Note_on_c, 0, 80, 0
4, 63524, Note_on_c, 0, 87, 40
4, 63680, Note_on_c, 0, 92, 51
4, 63684, Note_on_c, 0, 87, 0
4, 63719, Note_on_c, 0, 92, 0
4, 63720, Note_on_c, 0, 87, 44
4, 63759, Note_on_c, 0, 87, 0
4, 63759, Note_on_c, 0, 80, 53
4, 63799, Note_on_c, 0, 80, 0
4, 63800, Note_on_c, 0, 75, 49
4, 63839, Note_on_c, 0, 75, 0
4, 63851, Note_on_c, 0, 68, 51
4, 64091, Note_on_c, 0, 68, 0
4, 64839, Note_on_c, 0, 68, 42
4, 64879, Note_on_c, 0, 68, 0
4, 64880, Note_on_c, 0, 75, 57
4, 64919, Note_on_c, 0, 75, 0
4, 64920, Note_on_c, 0, 80, 44
4, 64959, Note_on_c, 0, 80, 0
4, 64959, Note_on_c, 0, 87, 45
4, 65023, Note_on_c, 0, 87, 0
4, 65600, Note_on_c, 0, 92, 45
4, 65639, Note_on_c, 0, 92, 0
4, 65640, Note_on_c, 0, 87, 42
4, 65679, Note_on_c, 0, 87, 0
4, 65679, Note_on_c, 0, 80, 54
4, 65719, Note_on_c, 0, 80, 0
4, 65720, Note_on_c, 0, 75, 54
4, 65759, Note_on_c, 0, 75, 0
4, 65779, Note_on_c, 0, 68, 47
4, 66019, Note_on_c, 0, 68, 0
4, 66960, Note_on_c, 0, 65, 50
4, 67020, Note_on_c, 0, 65, 0
4, 67020, Note_on_c, 0, 72, 40
4, 67080, Note_on_c, 0, 72, 0
4, 67080, Note_on_c, 0, 77, 55
4, 67140, Note_on_c, 0, 77, 0
4, 67140, Note_on_c, 0, 82, 43
4, 67200, Note_on_c, 0, 82, 0
4, 67200, Note_on_c, 0, 89, 46
4, 67247, Note_on_c, 0, 89, 0
4, 67247, Note_on_c, 0, 84, 40
4, 67295, Note_on_c, 0, 84, 0
4, 67295, Note_on_c, 0, 87, 44
4, 67342, Note_on_c, 0, 87, 0
4, 67343, Note_on_c, 0, 82, 58
4, 67391, Note_on_c, 0, 82, 0
4, 67391, Note_on_c, 0, 77, 52
4, 67438, Note_on_c, 0, 77, 0
4, 67451, Note_on_c, 0, 70, 58
4, 67546, Note_on_c, 0, 70, 0
4, 68400, Note_on_c, 0, 65, 40
4, 68447, Note_on_c, 0, 65, 0
4, 68447, Note_on_c, 0, 72, 47
4, 68495, Note_on_c, 0, 72, 0
4, 68495, Note_on_c, 0, 77, 41
4, 68542, Note_on_c, 0, 77, 0
4, 68543, Note_on_c, 0, 82, 44
4, 68591, Note_on_c, 0, 82, 0
4, 68591, Note_on_c, 0, 87, 57
4, 68638, Note_on_c, 0, 87, 0
4, 68640, Note_on_c, 0, 89, 56
4, 68687, Note_on_c, 0, 89, 0
4, 68687, Note_on_c, 0, 84, 44
4, 68735, Note_on_c, 0, 84, 0
4, 68735, Note_on_c, 0, 87, 41
4, 68782, Note_on_c, 0, 87, 0
4, 68783, Note_on_c, 0, 82, 49
4, 68831, Note_on_c, 0, 82, 0
4, 68831, Note_on_c, 0, 77, 42
4, 68878, Note_on_c, 0, 77, 0
4, 68889, Note_on_c, 0, 70, 46
4, 68984, Note_on_c, 0, 70, 0
4, 69360, Note_on_c, 0, 65, 58
4, 69407, Note_on_c, 0, 65, 0
4, 69407, Note_on_c, 0, 72, 59
4, 69455, Note_on_c, 0, 72, 0
4, 69455, Note_on_c, 0, 77, 48
4, 69502, Note_on_c, 0, 77, 0
4, 69503, Note_on_c, 0, 82, 39
4, 69551, Note_on_c, 0, 82, 0
4, 69551, Note_on_c, 0, 87, 51
4, 69598, Note_on_c, 0, 87, 0
4, 69600, Note_on_c, 0, 89, 56
4, 69647, Note_on_c, 0, 89, 0
4, 69647, Note_on_c, 0, 84, 41
4, 69695, Note_on_c, 0, 84, 0
4, 69695, Note_on_c, 0, 87, 41
4, 69742, Note_on_c, 0, 87, 0
4, 69743, Note_on_c, 0, 82, 42
4, 69791, Note_on_c, 0, 82, 0
4, 69791, Note_on_c, 0, 77, 52
4, 69838, Note_on_c, 0, 77, 0
4, 69844, Note_on_c, 0, 70, 56
4, 70084, Note_on_c, 0, 70, 0
4, 70320, Note_on_c, 0, 65, 57
4, 70367, Note_on_c, 0, 65, 0
4, 70367, Note_on_c, 0, 72, 54
4, 70415, Note_on_c, 0, 72, 0
4, 70415, Note_on_c, 0, 77, 40
4, 70462, Note_on_c, 0, 77, 0
4, 70463, Note_on_c, 0, 82, 43
4, 70511, Note_on_c, 0, 82, 0
4, 70511, Note_on_c, 0, 87, 50
4, 70558, Note_on_c, 0, 87, 0
4, 70560, Note_on_c, 0, 82, 46
4, 70620, Note_on_c, 0, 82, 0
4, 70620, Note_on_c, 0, 77, 43
4, 70680, Note_on_c, 0, 77, 0
4, 70680, Note_on_c, 0, 82, 58
4, 70740, Note_on_c, 0, 82, 0
4, 70740, Note_on_c, 0, 87, 41
4, 70800, Note_on_c, 0, 87, 0
4, 70800, Note_on_c, 0, 89, 43
4, 70847, Note_on_c, 0, 89, 0
4, 70847, Note_on_c, 0, 84, 52
4, 70895, Note_on_c, 0, 84, 0
4, 70895, Note_on_c, 0, 87, 54
4, 70942, Note_on_c, 0, 87, 0
4, 70943, Note_on_c, 0, 82, 40
4, 70991, Note_on_c, 0, 82, 0
4, 70991, Note_on_c, 0, 77, 40
4, 71038, Note_on_c, 0, 77, 0
4, 71044, Note_on_c, 0, 70, 52
4, 71280, Note_on_c, 0, 65, 40
4, 71284, Note_on_c, 0, 70, 0
4, 71327, Note_on_c, 0, 65, 0
4, 71327, Note_on_c, 0, 72, 54
4, 71375, Note_on_c, 0, 72, 0
4, 71375, Note_on_c, 0, 77, 59
4, 71422, Note_on_c, 0, 77, 0
4, 71423, Note_on_c, 0, 82, 51
4, 71471, Note_on_c, 0, 82, 0
4, 71471, Note_on_c, 0, 87, 55
4, 71518, Note_on_c, 0, 87, 0
4, 108967, Note_on_c, 0, 72, 109
4, 109047, Note_on_c, 0, 72, 0
4, 109048, Note_on_c, 0, 84, 96
4, 109126, Note_on_c, 0, 72, 107
4, 109127, Note_on_c, 0, 84, 0
4, 109200, Note_on_c, 0, 70, 94
4, 109206, Note_on_c, 0, 72, 0
4, 109280, Note_on_c, 0, 70, 0
4, 109305, Note_on_c, 0, 72, 100
4, 109372, Note_on_c, 0, 70, 100
4, 109384, Note_on_c, 0, 72, 0
4, 109440, Note_on_c, 0, 69, 91
4, 109452, Note_on_c, 0, 70, 0
4, 109520, Note_on_c, 0, 69, 0
4, 109537, Note_on_c, 0, 70, 100
4, 109616, Note_on_c, 0, 70, 0
4, 109622, Note_on_c, 0, 69, 108
4, 109695, Note_on_c, 0, 67, 94
4, 109702, Note_on_c, 0, 69, 0
4, 109772, Note_on_c, 0, 79, 102
4, 109775, Note_on_c, 0, 67, 0
4, 109845, Note_on_c, 0, 67, 106
4, 109851, Note_on_c, 0, 79, 0
4, 109925, Note_on_c, 0, 67, 0
4, 109933, Note_on_c, 0, 69, 100
4, 110028, Note_on_c, 0, 69, 0
4, 112808, Note_on_c, 0, 72, 98
4, 112888, Note_on_c, 0, 72, 0
4, 112894, Note_on_c, 0, 84, 102
4, 112973, Note_on_c, 0, 84, 0
4, 112975, Note_on_c, 0, 72, 99
4, 113055, Note_on_c, 0, 72, 0
4, 113058, Note_on_c, 0, 70, 91
4, 113126, Note_on_c, 0, 72, 111
4, 113138, Note_on_c, 0, 70, 0
4, 113200, Note_on_c, 0, 70, 108
4, 113205, Note_on_c, 0, 72, 0
4, 113280, Note_on_c, 0, 70, 0
4, 113284, Note_on_c, 0, 69, 101
4, 113364, Note_on_c, 0, 69, 0
4, 113379, Note_on_c, 0, 70, 98
4, 113458, Note_on_c, 0, 70, 0
4, 113462, Note_on_c, 0, 69, 101
4, 113535, Note_on_c, 0, 67, 102
4, 113542, Note_on_c, 0, 69, 0
4, 113609, Note_on_c, 0, 79, 91
4, 113615, Note_on_c, 0, 67, 0
4, 113688, Note_on_c, 0, 79, 0
4, 113692, Note_on_c, 0, 67, 97
4, 113761, Note_on_c, 0, 69, 105
4, 113772, Note_on_c, 0, 67, 0
4, 113841, Note_on_c, 0, 69, 0
4, 113854, Note_on_c, 0, 70, 101
4, 113933, Note_on_c, 0, 70, 0
4, 113937, Note_on_c, 0, 69, 97
4, 114000, Note_on_c, 0, 70, 99
4, 114017, Note_on_c, 0, 69, 0
4, 114080, Note_on_c, 0, 70, 0
4, 114082, Note_on_c, 0, 72, 101
4, 114161, Note_on_c, 0, 72, 0
4, 114176, Note_on_c, 0, 70, 94
4, 114256, Note_on_c, 0, 70, 0
4, 114259, Note_on_c, 0, 72, 107
4, 114320, Note_on_c, 0, 84, 92
4, 114339, Note_on_c, 0, 72, 0
4, 114399, Note_on_c, 0, 84, 0
4, 114412, Note_on_c, 0, 72, 110
4, 114482, Note_on_c, 0, 70, 94
4, 114492, Note_on_c, 0, 72, 0
4, 114562, Note_on_c, 0, 70, 0
4, 114567, Note_on_c, 0, 72, 95
4, 114643, Note_on_c, 0, 70, 105
4, 114646, Note_on_c, 0, 72, 0
4, 114723, Note_on_c, 0, 70, 0
4, 114732, Note_on_c, 0, 69, 106
4, 114972, Note_on_c, 0, 69, 0
4, 194130, Note_on_c, 0, 87, 91
4, 194160, Note_on_c, 0, 87, 0
4, 194160, Note_on_c, 0, 84, 80
4, 194400, Note_on_c, 0, 84, 0
4, 194409, Note_on_c, 0, 82, 79
4, 194649, Note_on_c, 0, 82, 0
4, 194661, Note_on_c, 0, 84, 69
4, 194781, Note_on_c, 0, 84, 0
4, 194781, Note_on_c, 0, 80, 71
4, 194881, Note_on_c, 0, 82, 65
4, 194901, Note_on_c, 0, 80, 0
4, 195121, Note_on_c, 0, 82, 0
4, 195125, Note_on_c, 0, 87, 79
4, 195363, Note_on_c, 0, 85, 76
4, 195365, Note_on_c, 0, 87, 0
4, 195603, Note_on_c, 0, 85, 0
4, 195609, Note_on_c, 0, 84, 65
4, 195729, Note_on_c, 0, 84, 0
4, 195732, Note_on_c, 0, 82, 70
4, 195852, Note_on_c, 0, 82, 0
4, 195861, Note_on_c, 0, 84, 65
4, 196101, Note_on_c, 0, 84, 0
4, 196105, Note_on_c, 0, 80, 69
4, 196338, Note_on_c, 0, 82, 81
4, 196345, Note_on_c, 0, 80, 0
4, 196563, Note_on_c, 0, 87, 73
4, 196578, Note_on_c, 0, 82, 0
4, 196803, Note_on_c, 0, 87, 0
4, 196803, Note_on_c, 0, 92, 80
4, 196923, Note_on_c, 0, 92, 0
4, 196935, Note_on_c, 0, 85, 78
4, 197053, Note_on_c, 0, 87, 74
4, 197055, Note_on_c, 0, 85, 0
4, 197163, Note_on_c, 0, 80, 65
4, 197173, Note_on_c, 0, 87, 0
4, 197283, Note_on_c, 0, 80, 0
4, 197299, Note_on_c, 0, 82, 74
4, 197539, Note_on_c, 0, 82, 0
4, 197543, Note_on_c, 0, 87, 72
4, 197766, Note_on_c, 0, 85, 79
4, 197783, Note_on_c, 0, 87, 0
4, 198004, Note_on_c, 0, 84, 85
4, 198006, Note_on_c, 0, 85, 0
4, 198124, Note_on_c, 0, 84, 0
4, 198139, Note_on_c, 0, 80, 72
4, 198259, Note_on_c, 0, 80, 0
4, 198259, Note_on_c, 0, 82, 80
4, 198488, Note_on_c, 0, 84, 81
4, 198499, Note_on_c, 0, 82, 0
4, 198608, Note_on_c, 0, 84, 0
4, 198608, Note_on_c, 0, 80, 66
4, 198728, Note_on_c, 0, 80, 0
4, 198730, Note_on_c, 0, 82, 72
4, 198970, Note_on_c, 0, 82, 0
4, 198976, Note_on_c, 0, 87, 76
4, 199206, Note_on_c, 0, 85, 71
4, 199216, Note_on_c, 0, 87, 0
4, 199446, Note_on_c, 0, 85, 0
4, 199459, Note_on_c, 0, 84, 79
4, 199579, Note_on_c, 0, 84, 0
4, 199582, Note_on_c, 0, 82, 68
4, 199700, Note_on_c, 0, 84, 84
4, 199702, Note_on_c, 0, 82, 0
4, 199928, Note_on_c, 0, 80, 78
4, 199940, Note_on_c, 0, 84, 0
4, 200168, Note_on_c, 0, 80, 0
4, 200178, Note_on_c, 0, 82, 65
4, 200408, Note_on_c, 0, 87, 71
4, 200418, Note_on_c, 0, 82, 0
4, 200648, Note_on_c, 0, 87, 0
4, 200663, Note_on_c, 0, 85, 72
4, 200881, Note_on_c, 0, 84, 72
4, 200903, Note_on_c, 0, 85, 0
4, 201001, Note_on_c, 0, 84, 0
4, 201006, Note_on_c, 0, 82, 84
4, 201126, Note_on_c, 0, 82, 0
4, 201129, Note_on_c, 0, 84, 75
4, 201369, Note_on_c, 0, 84, 0
4, 201381, Note_on_c, 0, 80, 70
4, 201608, Note_on_c, 0, 82, 68
4, 201621, Note_on_c, 0, 80, 0
4, 201848, Note_on_c, 0, 82, 0
4, 201848, Note_on_c, 0, 87, 75
4, 202086, Note_on_c, 0, 92, 74
4, 202088, Note_on_c, 0, 87, 0
4, 202206, Note_on_c, 0, 92, 0
4, 202212, Note_on_c, 0, 85, 85
4, 202332, Note_on_c, 0, 85, 0
4, 202334, Note_on_c, 0, 87, 70
4, 202453, Note_on_c, 0, 80, 72
4, 202454, Note_on_c, 0, 87, 0
4, 202573, Note_on_c, 0, 80, 0
4, 202574, Note_on_c, 0, 82, 83
4, 202814, Note_on_c, 0, 82, 0
4, 202818, Note_on_c, 0, 87, 81
4, 203058, Note_on_c, 0, 87, 0
4, 203065, Note_on_c, 0, 92, 71
4, 203172, Note_on_c, 0, 85, 81
4, 203185, Note_on_c, 0, 92, 0
4, 203292, Note_on_c, 0, 85, 0
4, 203301, Note_on_c, 0, 87, 65
4, 203401, Note_on_c, 0, 80, 85
4, 203421, Note_on_c, 0, 87, 0
4, 203521, Note_on_c, 0, 80, 0
4, 203531, Note_on_c, 0, 82, 83
4, 203771, Note_on_c, 0, 82, 0
4, 203782, Note_on_c, 0, 87, 66
4, 204014, Note_on_c, 0, 85, 84
4, 204022, Note_on_c, 0, 87, 0
4, 204240, Note_on_c, 0, 84, 72
4, 204254, Note_on_c, 0, 85, 0
4, 204360, Note_on_c, 0, 84, 0
4, 204382, Note_on_c, 0, 82, 71
4, 204487, Note_on_c, 0, 84, 68
4, 204502, Note_on_c, 0, 82, 0
4, 204727, Note_on_c, 0, 84, 0
4, 204741, Note_on_c, 0, 80, 79
4, 204981, Note_on_c, 0, 80, 0
4, 204982, Note_on_c, 0, 82, 73
4, 205216, Note_on_c, 0, 84, 68
4, 205222, Note_on_c, 0, 82, 0
4, 205445, Note_on_c, 0, 82, 75
4, 205456, Note_on_c, 0, 84, 0
4, 205685, Note_on_c, 0, 82, 0
4, 205703, Note_on_c, 0, 87, 75
4, 205943, Note_on_c, 0, 87, 0
4, 233766, Note_on_c, 0, 81, 70
4, 234003, Note_on_c, 0, 86, 76
4, 234006, Note_on_c, 0, 81, 0
4, 234243, Note_on_c, 0, 86, 0
4, 234261, Note_on_c, 0, 84, 85
4, 234450, Note_on_c, 0, 86, 65
4, 234471, Note_on_c, 0, 84, 0
4, 234480, Note_on_c, 0, 86, 0
4, 234495, Note_on_c, 0, 83, 67
4, 234615, Note_on_c, 0, 83, 0
4, 234622, Note_on_c, 0, 79, 67
4, 234724, Note_on_c, 0, 81, 66
4, 234742, Note_on_c, 0, 79, 0
4, 234930, Note_on_c, 0, 86, 82
4, 234934, Note_on_c, 0, 81, 0
4, 234960, Note_on_c, 0, 86, 0
4, 234982, Note_on_c, 0, 83, 74
4, 235222, Note_on_c, 0, 83, 0
4, 235222, Note_on_c, 0, 81, 68
4, 235461, Note_on_c, 0, 86, 69
4, 235462, Note_on_c, 0, 81, 0
4, 235680, Note_on_c, 0, 84, 78
4, 235701, Note_on_c, 0, 86, 0
4, 235740, Note_on_c, 0, 84, 0
4, 235740, Note_on_c, 0, 85, 85
4, 235800, Note_on_c, 0, 85, 0
4, 235807, Note_on_c, 0, 84, 75
4, 235927, Note_on_c, 0, 84, 0
4, 235929, Note_on_c, 0, 83, 75
4, 236049, Note_on_c, 0, 83, 0
4, 236062, Note_on_c, 0, 81, 83
4, 236182, Note_on_c, 0, 81, 0
4, 236182, Note_on_c, 0, 83, 74
4, 236403, Note_on_c, 0, 79, 85
4, 236422, Note_on_c, 0, 83, 0
4, 236642, Note_on_c, 0, 81, 67
4, 236643, Note_on_c, 0, 79, 0
4, 236882, Note_on_c, 0, 81, 0
4, 236884, Note_on_c, 0, 86, 65
4, 237124, Note_on_c, 0, 86, 0
4, 237135, Note_on_c, 0, 91, 70
4, 237243, Note_on_c, 0, 84, 70
4, 237255, Note_on_c, 0, 91, 0
4, 237363, Note_on_c, 0, 84, 0
4, 237385, Note_on_c, 0, 86, 65
4, 237483, Note_on_c, 0, 79, 84
4, 237505, Note_on_c, 0, 86, 0
4, 237603, Note_on_c, 0, 79, 0
4, 237624, Note_on_c, 0, 81, 66
4, 237848, Note_on_c, 0, 86, 74
4, 237864, Note_on_c, 0, 81, 0
4, 238088, Note_on_c, 0, 86, 0
4, 238092, Note_on_c, 0, 84, 67
4, 238324, Note_on_c, 0, 83, 66
4, 238332, Note_on_c, 0, 84, 0
4, 238444, Note_on_c, 0, 83, 0
4, 238458, Note_on_c, 0, 79, 85
4, 238578, Note_on_c, 0, 79, 0
4, 238580, Note_on_c, 0, 81, 72
4, 238820, Note_on_c, 0, 81, 0
4, 239043, Note_on_c, 0, 86, 84
4, 239138, Note_on_c, 0, 86, 0
4, 239138, Note_on_c, 0, 87, 87
4, 239233, Note_on_c, 0, 87, 0
4, 239242, Note_on_c, 0, 88, 78
4, 239338, Note_on_c, 0, 88, 0
4, 239345, Note_on_c, 0, 89, 100
4, 239437, Note_on_c, 0, 90, 98
4, 239440, Note_on_c, 0, 89, 0
4, 239532, Note_on_c, 0, 90, 0
4, 239537, Note_on_c, 0, 91, 89
4, 239621, Note_on_c, 0, 90, 98
4, 239632, Note_on_c, 0, 91, 0
4, 239716, Note_on_c, 0, 90, 0
4, 239727, Note_on_c, 0, 89, 97
4, 239823, Note_on_c, 0, 89, 0
4, 239829, Note_on_c, 0, 88, 84
4, 239924, Note_on_c, 0, 88, 0
4, 239926, Note_on_c, 0, 87, 81
4, 240021, Note_on_c, 0, 87, 0
4, 240021, Note_on_c, 0, 86, 84
4, 240141, Note_on_c, 0, 86, 0
4, 240982, Note_on_c, 0, 86, 83
4, 241077, Note_on_c, 0, 86, 0
4, 241077, Note_on_c, 0, 87, 83
4, 241172, Note_on_c, 0, 87, 0
4, 241176, Note_on_c, 0, 88, 76
4, 241256, Note_on_c, 0, 89, 90
4, 241272, Note_on_c, 0, 88, 0
4, 241351, Note_on_c, 0, 89, 0
4, 241353, Note_on_c, 0, 90, 89
4, 241448, Note_on_c, 0, 90, 0
4, 241454, Note_on_c, 0, 91, 66
4, 241574, Note_on_c, 0, 91, 0
4, 241943, Note_on_c, 0, 84, 66
4, 242177, Note_on_c, 0, 83, 74
4, 242183, Note_on_c, 0, 84, 0
4, 242292, Note_on_c, 0, 79, 72
4, 242297, Note_on_c, 0, 83, 0
4, 242412, Note_on_c, 0, 79, 0
4, 242418, Note_on_c, 0, 81, 77
4, 242538, Note_on_c, 0, 81, 0
4, 242897, Note_on_c, 0, 86, 104
4, 242992, Note_on_c, 0, 86, 0
4, 243000, Note_on_c, 0, 87, 90
4, 243075, Note_on_c, 0, 88, 104
4, 243095, Note_on_c, 0, 87, 0
4, 243171, Note_on_c, 0, 88, 0
4, 243174, Note_on_c, 0, 89, 109
4, 243269, Note_on_c, 0, 89, 0
4, 243270, Note_on_c, 0, 90, 101
4, 243365, Note_on_c, 0, 90, 0
4, 243371, Note_on_c, 0, 91, 97
4, 243461, Note_on_c, 0, 90, 98
4, 243466, Note_on_c, 0, 91, 0
4, 243556, Note_on_c, 0, 90, 0
4, 243571, Note_on_c, 0, 89, 88
4, 243667, Note_on_c, 0, 89, 0
4, 243669, Note_on_c, 0, 88, 90
4, 243748, Note_on_c, 0, 87, 94
4, 243764, Note_on_c, 0, 88, 0
4, 243842, Note_on_c, 0, 86, 85
4, 243843, Note_on_c, 0, 87, 0
4, 243962, Note_on_c, 0, 86, 0
4, 244816, Note_on_c, 0, 86, 89
4, 244906, Note_on_c, 0, 87, 86
4, 244911, Note_on_c, 0, 86, 0
4, 245001, Note_on_c, 0, 87, 0
4, 245014, Note_on_c, 0, 88, 81
4, 245105, Note_on_c, 0, 89, 81
4, 245110, Note_on_c, 0, 88, 0
4, 245189, Note_on_c, 0, 90, 75
4, 245200, Note_on_c, 0, 89, 0
4, 245284, Note_on_c, 0, 90, 0
4, 245303, Note_on_c, 0, 91, 79
4, 245423, Note_on_c, 0, 91, 0
4, 246253, Note_on_c, 0, 79, 77
4, 246321, Note_on_c, 0, 79, 0
4, 246322, Note_on_c, 0, 80, 86
4, 246390, Note_on_c, 0, 80, 0
4, 246399, Note_on_c, 0, 81, 70
4, 246466, Note_on_c, 0, 82, 89
4, 246467, Note_on_c, 0, 81, 0
4, 246514, Note_on_c, 0, 83, 90
4, 246534, Note_on_c, 0, 82, 0
4, 246582, Note_on_c, 0, 83, 0
4, 246590, Note_on_c, 0, 84, 72
4, 246658, Note_on_c, 0, 84, 0
4, 246662, Note_on_c, 0, 85, 74
4, 246724, Note_on_c, 0, 86, 91
4, 246730, Note_on_c, 0, 85, 0
4, 246844, Note_on_c, 0, 86, 0
4, 247219, Note_on_c, 0, 79, 75
4, 247271, Note_on_c, 0, 80, 69
4, 247287, Note_on_c, 0, 79, 0
4, 247339, Note_on_c, 0, 80, 0
4, 247348, Note_on_c, 0, 81, 83
4, 247416, Note_on_c, 0, 81, 0
4, 247422, Note_on_c, 0, 82, 74
4, 247488, Note_on_c, 0, 83, 81
4, 247490, Note_on_c, 0, 82, 0
4, 247556, Note_on_c, 0, 83, 0
4, 247562, Note_on_c, 0, 84, 86
4, 247618, Note_on_c, 0, 85, 88
4, 247630, Note_on_c, 0, 84, 0
4, 247686, Note_on_c, 0, 85, 0
4, 247701, Note_on_c, 0, 86, 84
4, 247821, Note_on_c, 0, 86, 0
4, 248163, Note_on_c, 0, 79, 73
4, 248231, Note_on_c, 0, 79, 0
4, 248232, Note_on_c, 0, 80, 84
4, 248300, Note_on_c, 0, 80, 0
4, 248304, Note_on_c, 0, 81, 83
4, 248372, Note_on_c, 0, 81, 0
4, 248384, Note_on_c, 0, 82, 72
4, 248443, Note_on_c, 0, 83, 80
4, 248452, Note_on_c, 0, 82, 0
4, 248510, Note_on_c, 0, 84, 72
4, 248511, Note_on_c, 0, 83, 0
4, 248578, Note_on_c, 0, 84, 0
4, 248579, Note_on_c, 0, 85, 77
4, 248647, Note_on_c, 0, 85, 0
4, 248663, Note_on_c, 0, 86, 84
4, 248783, Note_on_c, 0, 86, 0
4, 249136, Note_on_c, 0, 81, 83
4, 249376, Note_on_c, 0, 81, 0
4, 249379, Note_on_c, 0, 86, 79
4, 249611, Note_on_c, 0, 84, 68
4, 249619, Note_on_c, 0, 86, 0
4, 249851, Note_on_c, 0, 84, 0
4, 249860, Note_on_c, 0, 83, 74
4, 249962, Note_on_c, 0, 79, 74
4, 249980, Note_on_c, 0, 83, 0
4, 250082, Note_on_c, 0, 79, 0
4, 268320, Note_on_c, 0, 85, 72
4, 268453, Note_on_c, 0, 85, 0
4, 268463, Note_on_c, 0, 84, 82
4, 268595, Note_on_c, 0, 83, 85
4, 268596, Note_on_c, 0, 84, 0
4, 268728, Note_on_c, 0, 83, 0
4, 268732, Note_on_c, 0, 82, 84
4, 268865, Note_on_c, 0, 82, 0
4, 268869, Note_on_c, 0, 81, 76
4, 269002, Note_on_c, 0, 81, 0
4, 269002, Note_on_c, 0, 80, 68
4, 269127, Note_on_c, 0, 79, 77
4, 269135, Note_on_c, 0, 80, 0
4, 269260, Note_on_c, 0, 79, 0
4, 269274, Note_on_c, 0, 78, 65
4, 269402, Note_on_c, 0, 77, 77
4, 269407, Note_on_c, 0, 78, 0
4, 269535, Note_on_c, 0, 77, 0
4, 269538, Note_on_c, 0, 76, 85
4, 269658, Note_on_c, 0, 76, 0
4, 294008, Note_on_c, 0, 85, 85
4, 294015, Note_on_c, 0, 85, 74
4, 294016, Note_on_c, 0, 82, 83
4, 294121, Note_on_c, 0, 85, 85
4, 294126, Note_on_c, 0, 82, 81
4, 294128, Note_on_c, 0, 85, 0
4, 294136, Note_on_c, 0, 82, 0
4, 294241, Note_on_c, 0, 82, 85
4, 294243, Note_on_c, 0, 85, 81
4, 294246, Note_on_c, 0, 82, 0
4, 294255, Note_on_c, 0, 85, 0
4, 294361, Note_on_c, 0, 85, 0
4, 294361, Note_on_c, 0, 82, 0
4, 294374, Note_on_c, 0, 85, 72
4, 294382, Note_on_c, 0, 82, 81
4, 294483, Note_on_c, 0, 85, 0
4, 294487, Note_on_c, 0, 82, 76
4, 294491, Note_on_c, 0, 85, 75
4, 294502, Note_on_c, 0, 82, 0
4, 294606, Note_on_c, 0, 82, 69
4, 294607, Note_on_c, 0, 82, 0
4, 294611, Note_on_c, 0, 85, 70
4, 294614, Note_on_c, 0, 85, 0
4, 294722, Note_on_c, 0, 82, 0
4, 294729, Note_on_c, 0, 88, 84
4, 294731, Note_on_c, 0, 85, 0
4, 294731, Note_on_c, 0, 85, 0
4, 294733, Note_on_c, 0, 85, 83
4, 294733, Note_on_c, 0, 88, 83
4, 294853, Note_on_c, 0, 88, 0
4, 294853, Note_on_c, 0, 85, 0
4, 294858, Note_on_c, 0, 85, 68
4, 294861, Note_on_c, 0, 88, 75
4, 294961, Note_on_c, 0, 88, 74
4, 294969, Note_on_c, 0, 88, 0
4, 294976, Note_on_c, 0, 85, 66
4, 294978, Note_on_c, 0, 85, 0
4, 295084, Note_on_c, 0, 85, 83
4, 295090, Note_on_c, 0, 88, 78
4, 295096, Note_on_c, 0, 85, 0
4, 295101, Note_on_c, 0, 88, 0
4, 295201, Note_on_c, 0, 88, 0
4, 295204, Note_on_c, 0, 85, 0
4, 295218, Note_on_c, 0, 88, 82
4, 295222, Note_on_c, 0, 85, 67
4, 295325, Note_on_c, 0, 85, 71
4, 295330, Note_on_c, 0, 88, 0
4, 295339, Note_on_c, 0, 88, 78
4, 295342, Note_on_c, 0, 85, 0
4, 295441, Note_on_c, 0, 85, 0
4, 295441, Note_on_c, 0, 85, 78
4, 295455, Note_on_c, 0, 88, 69
4, 295456, Note_on_c, 0, 88, 74
4, 295458, Note_on_c, 0, 88, 0
4, 295459, Note_on_c, 0, 88, 0
4, 295561, Note_on_c, 0, 85, 0
4, 295570, Note_on_c, 0, 85, 76
4, 295572, Note_on_c, 0, 88, 78
4, 295575, Note_on_c, 0, 88, 0
4, 295681, Note_on_c, 0, 85, 74
4, 295690, Note_on_c, 0, 85, 0
4, 295696, Note_on_c, 0, 88, 0
4, 295700, Note_on_c, 0, 88, 79
4, 295801, Note_on_c, 0, 85, 0
4, 295812, Note_on_c, 0, 88, 0
4, 295814, Note_on_c, 0, 88, 80
4, 295815, Note_on_c, 0, 85, 71
4, 295921, Note_on_c, 0, 88, 84
4, 295935, Note_on_c, 0, 85, 0
4, 295936, Note_on_c, 0, 85, 79
4, 295940, Note_on_c, 0, 88, 0
4, 296050, Note_on_c, 0, 85, 71
4, 296054, Note_on_c, 0, 88, 0
4, 296056, Note_on_c, 0, 85, 0
4, 296061, Note_on_c, 0, 88, 68
4, 296160, Note_on_c, 0, 85, 0
4, 296160, Note_on_c, 0, 85, 81
4, 296161, Note_on_c, 0, 88, 0
4, 296165, Note_on_c, 0, 85, 73
4, 296166, Note_on_c, 0, 85, 0
4, 296170, Note_on_c, 0, 82, 71
4, 296181, Note_on_c, 0, 88, 0
4, 296285, Note_on_c, 0, 85, 0
4, 296285, Note_on_c, 0, 82, 79
4, 296290, Note_on_c, 0, 82, 0
4, 296299, Note_on_c, 0, 85, 80
4, 296405, Note_on_c, 0, 82, 0
4, 296405, Note_on_c, 0, 82, 82
4, 296412, Note_on_c, 0, 85, 65
4, 296419, Note_on_c, 0, 85, 0
4, 296523, Note_on_c, 0, 82, 75
4, 296525, Note_on_c, 0, 82, 0
4, 296528, Note_on_c, 0, 85, 83
4, 296532, Note_on_c, 0, 85, 0
4, 296643, Note_on_c, 0, 82, 0
4, 296648, Note_on_c, 0, 85, 0
4, 296650, Note_on_c, 0, 82, 73
4, 296663, Note_on_c, 0, 85, 76
4, 296770, Note_on_c, 0, 82, 0
4, 296772, Note_on_c, 0, 85, 79
4, 296773, Note_on_c, 0, 82, 68
4, 296783, Note_on_c, 0, 85, 0
4, 296889, Note_on_c, 0, 82, 0
4, 296892, Note_on_c, 0, 85, 0
4, 296893, Note_on_c, 0, 85, 78
4, 296899, Note_on_c, 0, 85, 84
4, 296905, Note_on_c, 0, 82, 67
4, 297007, Note_on_c, 0, 85, 67
4, 297013, Note_on_c, 0, 85, 0
4, 297024, Note_on_c, 0, 82, 83
4, 297025, Note_on_c, 0, 82, 0
4, 297120, Note_on_c, 0, 85, 69
4, 297121, Note_on_c, 0, 82, 72
4, 297139, Note_on_c, 0, 85, 0
4, 297144, Note_on_c, 0, 82, 0
4, 297241, Note_on_c, 0, 82, 0
4, 297245, Note_on_c, 0, 85, 83
4, 297247, Note_on_c, 0, 85, 0
4, 297259, Note_on_c, 0, 82, 75
4, 297360, Note_on_c, 0, 85, 0
4, 297378, Note_on_c, 0, 85, 78
4, 297379, Note_on_c, 0, 82, 0
4, 297382, Note_on_c, 0, 82, 68
4, 297485, Note_on_c, 0, 85, 0
4, 297486, Note_on_c, 0, 85, 71
4, 297502, Note_on_c, 0, 82, 0
4, 297503, Note_on_c, 0, 82, 75
4, 297600, Note_on_c, 0, 88, 72
4, 297606, Note_on_c, 0, 85, 0
4, 297610, Note_on_c, 0, 88, 75
4, 297618, Note_on_c, 0, 85, 0
4, 297618, Note_on_c, 0, 85, 71
4, 297619, Note_on_c, 0, 82, 0
4, 297730, Note_on_c, 0, 88, 0
4, 297738, Note_on_c, 0, 85, 0
4, 297738, Note_on_c, 0, 85, 74
4, 297740, Note_on_c, 0, 88, 66
4, 297840, Note_on_c, 0, 88, 0
4, 297848, Note_on_c, 0, 88, 66
4, 297852, Note_on_c, 0, 85, 76
4, 297858, Note_on_c, 0, 85, 0
4, 297971, Note_on_c, 0, 85, 79
4, 297972, Note_on_c, 0, 85, 0
4, 297980, Note_on_c, 0, 88, 0
4, 297984, Note_on_c, 0, 88, 82
4, 298088, Note_on_c, 0, 88, 0
4, 298088, Note_on_c, 0, 85, 78
4, 298090, Note_on_c, 0, 88, 71
4, 298091, Note_on_c, 0, 85, 0
4, 298208, Note_on_c, 0, 85, 0
4, 298222, Note_on_c, 0, 88, 72
4, 298223, Note_on_c, 0, 85, 74
4, 298224, Note_on_c, 0, 88, 0
4, 298330, Note_on_c, 0, 88, 0
4, 298331, Note_on_c, 0, 88, 69
4, 298338, Note_on_c, 0, 85, 70
4, 298338, Note_on_c, 0, 88, 76
4, 298339, Note_on_c, 0, 85, 0
4, 298342, Note_on_c, 0, 88, 0
4, 298452, Note_on_c, 0, 85, 80
4, 298458, Note_on_c, 0, 88, 0
4, 298458, Note_on_c, 0, 85, 0
4, 298463, Note_on_c, 0, 88, 80
4, 298571, Note_on_c, 0, 88, 0
4, 298572, Note_on_c, 0, 85, 0
4, 298573, Note_on_c, 0, 85, 65
4, 298583, Note_on_c, 0, 88, 83
4, 298682, Note_on_c, 0, 85, 72
4, 298689, Note_on_c, 0, 88, 67
4, 298693, Note_on_c, 0, 85, 0
4, 298703, Note_on_c, 0, 88, 0
4, 298802, Note_on_c, 0, 85, 0
4, 298803, Note_on_c, 0, 85, 84
4, 298822, Note_on_c, 0, 88, 67
4, 298823, Note_on_c, 0, 88, 0
4, 298923, Note_on_c, 0, 85, 0
4, 298925, Note_on_c, 0, 88, 71
4, 298929, Note_on_c, 0, 88, 0
4, 298941, Note_on_c, 0, 85, 77
4, 299040, Note_on_c, 0, 85, 0
4, 299040, Note_on_c, 0, 85, 82
4, 299045, Note_on_c, 0, 88, 0
4, 299045, Note_on_c, 0, 85, 72
4, 299051, Note_on_c, 0, 82, 82
4, 299057, Note_on_c, 0, 85, 0
4, 299062, Note_on_c, 0, 88, 0
4, 299165, Note_on_c, 0, 85, 0
4, 299171, Note_on_c, 0, 82, 0
4, 299174, Note_on_c, 0, 82, 83
4, 299184, Note_on_c, 0, 85, 71
4, 299282, Note_on_c, 0, 82, 66
4, 299291, Note_on_c, 0, 85, 83
4, 299294, Note_on_c, 0, 82, 0
4, 299304, Note_on_c, 0, 85, 0
4, 299402, Note_on_c, 0, 82, 0
4, 299409, Note_on_c, 0, 82, 78
4, 299411, Note_on_c, 0, 85, 0
4, 299412, Note_on_c, 0, 85, 66
4, 299520, Note_on_c, 0, 82, 74
4, 299528, Note_on_c, 0, 85, 79
4, 299529, Note_on_c, 0, 82, 0
4, 299532, Note_on_c, 0, 85, 0
4, 299640, Note_on_c, 0, 82, 0
4, 299643, Note_on_c, 0, 85, 82
4, 299648, Note_on_c, 0, 85, 0
4, 299665, Note_on_c, 0, 82, 80
4, 299761, Note_on_c, 0, 82, 82
4, 299763, Note_on_c, 0, 85, 0
4, 299766, Note_on_c, 0, 85, 71
4, 299774, Note_on_c, 0, 85, 71
4, 299781, Note_on_c, 0, 82, 0
4, 299881, Note_on_c, 0, 82, 0
4, 299885, Note_on_c, 0, 82, 73
4, 299886, Note_on_c, 0, 85, 0
4, 299892, Note_on_c, 0, 85, 79
4, 300003, Note_on_c, 0, 82, 81
4, 300003, Note_on_c, 0, 85, 67
4, 300005, Note_on_c, 0, 82, 0
4, 300014, Note_on_c, 0, 85, 0
4, 300123, Note_on_c, 0, 82, 0
4, 300127, Note_on_c, 0, 82, 69
4, 300132, Note_on_c, 0, 85, 0
4, 300145, Note_on_c, 0, 85, 79
4, 300241, Note_on_c, 0, 85, 80
4, 300243, Note_on_c, 0, 85, 0
4, 300247, Note_on_c, 0, 82, 0
4, 300254, Note_on_c, 0, 82, 74
4, 300369, Note_on_c, 0, 85, 65
4, 300374, Note_on_c, 0, 82, 0
4, 300374, Note_on_c, 0, 82, 85
4, 300385, Note_on_c, 0, 85, 0
4, 300481, Note_on_c, 0, 85, 0
4, 300489, Note_on_c, 0, 85, 0
4, 300490, Note_on_c, 0, 82, 0
4, 300490, Note_on_c, 0, 88, 76
4, 300500, Note_on_c, 0, 85, 66
4, 300500, Note_on_c, 0, 88, 75
4, 300618, Note_on_c, 0, 88, 79
4, 300620, Note_on_c, 0, 88, 0
4, 300620, Note_on_c, 0, 85, 0
4, 300621, Note_on_c, 0, 85, 72
4, 300727, Note_on_c, 0, 85, 72
4, 300730, Note_on_c, 0, 88, 0
4, 300741, Note_on_c, 0, 85, 0
4, 300741, Note_on_c, 0, 88, 84
4, 300847, Note_on_c, 0, 85, 0
4, 300850, Note_on_c, 0, 88, 85
4, 300858, Note_on_c, 0, 88, 0
4, 300861, Note_on_c, 0, 85, 85
4, 300973, Note_on_c, 0, 85, 71
4, 300981, Note_on_c, 0, 88, 0
4, 300981, Note_on_c, 0, 85, 0
4, 300985, Note_on_c, 0, 88, 69
4, 301084, Note_on_c, 0, 85, 79
4, 301089, Note_on_c, 0, 88, 74
4, 301090, Note_on_c, 0, 88, 0
4, 301093, Note_on_c, 0, 85, 0
4, 301200, Note_on_c, 0, 85, 0
4, 301202, Note_on_c, 0, 88, 71
4, 301209, Note_on_c, 0, 88, 0
4, 301218, Note_on_c, 0, 88, 74
4, 301220, Note_on_c, 0, 85, 75
4, 301225, Note_on_c, 0, 88, 0
4, 301321, Note_on_c, 0, 85, 84
4, 301334, Note_on_c, 0, 88, 69
4, 301338, Note_on_c, 0, 88, 0
4, 301340, Note_on_c, 0, 85, 0
4, 301441, Note_on_c, 0, 85, 0
4, 301442, Note_on_c, 0, 88, 0
4, 301462, Note_on_c, 0, 85, 78
4, 301463, Note_on_c, 0, 88, 80
4, 301569, Note_on_c, 0, 88, 74
4, 301571, Note_on_c, 0, 85, 68
4, 301574, Note_on_c, 0, 88, 0
4, 301582, Note_on_c, 0, 85, 0
4, 301680, Note_on_c, 0, 85, 79
4, 301691, Note_on_c, 0, 85, 0
4, 301703, Note_on_c, 0, 88, 0
4, 301703, Note_on_c, 0, 88, 68
4, 301800, Note_on_c, 0, 85, 0
4, 301809, Note_on_c, 0, 88, 0
4, 301813, Note_on_c, 0, 88, 82
4, 301816, Note_on_c, 0, 85, 74
4, 301920, Note_on_c, 0, 85, 0
4, 301920, Note_on_c, 0, 85, 74
4, 301932, Note_on_c, 0, 85, 0
4, 301933, Note_on_c, 0, 88, 0
4, 301933, Note_on_c, 0, 85, 76
4, 301936, Note_on_c, 0, 82, 77
4, 301943, Note_on_c, 0, 88, 0
4, 302041, Note_on_c, 0, 82, 77
4, 302053, Note_on_c, 0, 85, 0
4, 302056, Note_on_c, 0, 82, 0
4, 302056, Note_on_c, 0, 85, 65
4, 302160, Note_on_c, 0, 82, 81
4, 302160, Note_on_c, 0, 85, 80
4, 302161, Note_on_c, 0, 82, 0
4, 302176, Note_on_c, 0, 85, 0
4, 302280, Note_on_c, 0, 82, 0
4, 302280, Note_on_c, 0, 85, 0
4, 302281, Note_on_c, 0, 85, 84
4, 302288, Note_on_c, 0, 82, 76
4, 302401, Note_on_c, 0, 85, 0
4, 302408, Note_on_c, 0, 82, 0
4, 302413, Note_on_c, 0, 82, 81
4, 302422, Note_on_c, 0, 85, 84
4, 302522, Note_on_c, 0, 82, 84
4, 302533, Note_on_c, 0, 82, 0
4, 302537, Note_on_c, 0, 85, 72
4, 302542, Note_on_c, 0, 85, 0
4, 302638, Note_on_c, 0, 82, 0
4, 302657, Note_on_c, 0, 85, 0
4, 305539, Note_on_c, 0, 90, 79
4, 305659, Note_on_c, 0, 90, 0
4, 305765, Note_on_c, 0, 89, 68
4, 305885, Note_on_c, 0, 89, 0
4, 306009, Note_on_c, 0, 90, 82
4, 306129, Note_on_c, 0, 90, 0
4, 306264, Note_on_c, 0, 89, 84
4, 306384, Note_on_c, 0, 89, 0
4, 306502, Note_on_c, 0, 87, 67
4, 306622, Note_on_c, 0, 87, 0
4, 306726, Note_on_c, 0, 85, 79
4, 306846, Note_on_c, 0, 85, 0
4, 306979, Note_on_c, 0, 87, 67
4, 307099, Note_on_c, 0, 87, 0
4, 307206, Note_on_c, 0, 84, 76
4, 307326, Note_on_c, 0, 84, 0
4, 307440, Note_on_c, 0, 84, 79
4, 307560, Note_on_c, 0, 84, 0
4, 307704, Note_on_c, 0, 84, 75
4, 307824, Note_on_c, 0, 84, 0
4, 307937, Note_on_c, 0, 85, 82
4, 308057, Note_on_c, 0, 85, 0
4, 308171, Note_on_c, 0, 87, 74
4, 308291, Note_on_c, 0, 87, 0
4, 308401, Note_on_c, 0, 89, 65
4, 308521, Note_on_c, 0, 89, 0
4, 308651, Note_on_c, 0, 90, 72
4, 308771, Note_on_c, 0, 90, 0
4, 308881, Note_on_c, 0, 89, 73
4, 309001, Note_on_c, 0, 89, 0
4, 309125, Note_on_c, 0, 90, 65
4, 309245, Note_on_c, 0, 90, 0
4, 309364, Note_on_c, 0, 89, 81
4, 309484, Note_on_c, 0, 89, 0
4, 309616, Note_on_c, 0, 87, 85
4, 309736, Note_on_c, 0, 87, 0
4, 309846, Note_on_c, 0, 85, 66
4, 309966, Note_on_c, 0, 85, 0
4, 310097, Note_on_c, 0, 84, 66
4, 310217, Note_on_c, 0, 84, 0
4, 310333, Note_on_c, 0, 85, 84
4, 310453, Note_on_c, 0, 85, 0
4, 310564, Note_on_c, 0, 87, 70
4, 310684, Note_on_c, 0, 87, 0
4, 310819, Note_on_c, 0, 89, 68
4, 310939, Note_on_c, 0, 89, 0
4, 311052, Note_on_c, 0, 89, 84
4, 311172, Note_on_c, 0, 89, 0
4, 311304, Note_on_c, 0, 88, 65
4, 311424, Note_on_c, 0, 88, 0
4, 311537, Note_on_c, 0, 89, 68
4, 311657, Note_on_c, 0, 89, 0
4, 311774, Note_on_c, 0, 88, 74
4, 311894, Note_on_c, 0, 88, 0
4, 312012, Note_on_c, 0, 86, 71
4, 312132, Note_on_c, 0, 86, 0
4, 312262, Note_on_c, 0, 84, 65
4, 312382, Note_on_c, 0, 84, 0
4, 312500, Note_on_c, 0, 83, 67
4, 312620, Note_on_c, 0, 83, 0
4, 312729, Note_on_c, 0, 83, 77
4, 312849, Note_on_c, 0, 83, 0
4, 312983, Note_on_c, 0, 83, 83
4, 313103, Note_on_c, 0, 83, 0
4, 313219, Note_on_c, 0, 84, 76
4, 313339, Note_on_c, 0, 84, 0
4, 313451, Note_on_c, 0, 86, 75
4, 313571, Note_on_c, 0, 86, 0
4, 313682, Note_on_c, 0, 88, 79
4, 313802, Note_on_c, 0, 88, 0
4, 324600, Note_on_c, 0, 68, 74
4, 324630, Note_on_c, 0, 68, 0
4, 324630, Note_on_c, 0, 72, 69
4, 324660, Note_on_c, 0, 72, 0
4, 324660, Note_on_c, 0, 75, 81
4, 324690, Note_on_c, 0, 75, 0
4, 324690, Note_on_c, 0, 78, 77
4, 324720, Note_on_c, 0, 78, 0
4, 324744, Note_on_c, 0, 92, 116
4, 324924, Note_on_c, 0, 92, 0
4, 324985, Note_on_c, 0, 92, 120
4, 325165, Note_on_c, 0, 92, 0
4, 325219, Note_on_c, 0, 92, 113
4, 325399, Note_on_c, 0, 92, 0
4, 325465, Note_on_c, 0, 93, 124
4, 325645, Note_on_c, 0, 93, 0
4, 325702, Note_on_c, 0, 93, 124
4, 325882, Note_on_c, 0, 93, 0
4, 325942, Note_on_c, 0, 93, 121
4, 326122, Note_on_c, 0, 93, 0
4, 326179, Note_on_c, 0, 86, 112
4, 326359, Note_on_c, 0, 86, 0
4, 326417, Note_on_c, 0, 86, 104
4, 326597, Note_on_c, 0, 86, 0
4, 326662, Note_on_c, 0, 86, 110
4, 326842, Note_on_c, 0, 86, 0
4, 358080, Note_on_c, 0, 75, 24
4, 358140, Note_on_c, 0, 77, 39
4, 358170, Note_on_c, 0, 75, 0
4, 358200, Note_on_c, 0, 75, 35
4, 358230, Note_on_c, 0, 77, 0
4, 358260, Note_on_c, 0, 77, 29
4, 358290, Note_on_c, 0, 75, 0
4, 358320, Note_on_c, 0, 75, 21
4, 358350, Note_on_c, 0, 77, 0
4, 358380, Note_on_c, 0, 77, 29
4, 358410, Note_on_c, 0, 75, 0
4, 358440, Note_on_c, 0, 75, 38
4, 358470, Note_on_c, 0, 77, 0
4, 358500, Note_on_c, 0, 77, 28
4, 358530, Note_on_c, 0, 75, 0
4, 358560, Note_on_c, 0, 75, 38
4, 358590, Note_on_c, 0, 77, 0
4, 358620, Note_on_c, 0, 77, 24
4, 358650, Note_on_c, 0, 75, 0
4, 358680, Note_on_c, 0, 75, 36
4, 358710, Note_on_c, 0, 77, 0
4, 358740, Note_on_c, 0, 77, 24
4, 358770, Note_on_c, 0, 75, 0
4, 358800, Note_on_c, 0, 75, 32
4, 358830, Note_on_c, 0, 77, 0
4, 358860, Note_on_c, 0, 77, 28
4, 358890, Note_on_c, 0, 75, 0
4, 358920, Note_on_c, 0, 75, 22
4, 358950, Note_on_c, 0, 77, 0
4, 358980, Note_on_c, 0, 77, 38
4, 359010, Note_on_c, 0, 75, 0
4, 359040, Note_on_c, 0, 75, 37
4, 359070, Note_on_c, 0, 77, 0
4, 359100, Note_on_c, 0, 77, 32
4, 359130, Note_on_c, 0, 75, 0
4, 359160, Note_on_c, 0, 75, 27
4, 359190, Note_on_c, 0, 77, 0
4, 359220, Note_on_c, 0, 77, 19
4, 359250, Note_on_c, 0, 75, 0
4, 359280, Note_on_c, 0, 75, 36
4, 359310, Note_on_c, 0, 77, 0
4, 359340, Note_on_c, 0, 77, 19
4, 359370, Note_on_c, 0, 75, 0
4, 359400, Note_on_c, 0, 75, 21
4, 359430, Note_on_c, 0, 77, 0
4, 359460, Note_on_c, 0, 77, 32
4, 359490, Note_on_c, 0, 75, 0
4, 359520, Note_on_c, 0, 75, 39
4, 359550, Note_on_c, 0, 77, 0
4, 359580, Note_on_c, 0, 77, 36
4, 359610, Note_on_c, 0, 75, 0
4, 359640, Note_on_c, 0, 75, 19
4, 359670, Note_on_c, 0, 77, 0
4, 359700, Note_on_c, 0, 77, 36
4, 359730, Note_on_c, 0, 75, 0
4, 359760, Note_on_c, 0, 75, 21
4, 359790, Note_on_c, 0, 77, 0
4, 359820, Note_on_c, 0, 77, 19
4, 359850, Note_on_c, 0, 75, 0
4, 359880, Note_on_c, 0, 75, 19
4, 359910, Note_on_c, 0, 77, 0
4, 359940, Note_on_c, 0, 77, 37
4, 359970, Note_on_c, 0, 75, 0
4, 360000, Note_on_c, 0, 75, 23
4, 360030, Note_on_c, 0, 77, 0
4, 360060, Note_on_c, 0, 77, 38
4, 360090, Note_on_c, 0, 75, 0
4, 360120, Note_on_c, 0, 75, 24
4, 360150, Note_on_c, 0, 77, 0
4, 360180, Note_on_c, 0, 77, 25
4, 360210, Note_on_c, 0, 75, 0
4, 360240, Note_on_c, 0, 75, 27
4, 360270, Note_on_c, 0, 77, 0
4, 360300, Note_on_c, 0, 77, 25
4, 360330, Note_on_c, 0, 75, 0
4, 360360, Note_on_c, 0, 75, 19
4, 360390, Note_on_c, 0, 77, 0
4, 360420, Note_on_c, 0, 77, 27
4, 360450, Note_on_c, 0, 75, 0
4, 360480, Note_on_c, 0, 75, 27
4, 360510, Note_on_c, 0, 77, 0
4, 360540, Note_on_c, 0, 77, 39
4, 360570, Note_on_c, 0, 75, 0
4, 360600, Note_on_c, 0, 75, 34
4, 360630, Note_on_c, 0, 77, 0
4, 360660, Note_on_c, 0, 77, 32
4, 360690, Note_on_c, 0, 75, 0
4, 360720, Note_on_c, 0, 75, 26
4, 360750, Note_on_c, 0, 77, 0
4, 360780, Note_on_c, 0, 77, 24
4, 360810, Note_on_c, 0, 75, 0
4, 360840, Note_on_c, 0, 75, 21
4, 360870, Note_on_c, 0, 77, 0
4, 360900, Note_on_c, 0, 77, 27
4, 360930, Note_on_c, 0, 75, 0
4, 360960, Note_on_c, 0, 75, 38
4, 360990, Note_on_c, 0, 77, 0
4, 361020, Note_on_c, 0, 77, 39
4, 361050, Note_on_c, 0, 75, 0
4, 361080, Note_on_c, 0, 75, 26
4, 361110, Note_on_c, 0, 77, 0
4, 361140, Note_on_c, 0, 77, 35
4, 361170, Note_on_c, 0, 75, 0
4, 361200, Note_on_c, 0, 75, 30
4, 361230, Note_on_c, 0, 77, 0
4, 361260, Note_on_c, 0, 77, 27
4, 361290, Note_on_c, 0, 75, 0
4, 361320, Note_on_c, 0, 75, 21
4, 361350, Note_on_c, 0, 77, 0
4, 361380, Note_on_c, 0, 77, 33
4, 361410, Note_on_c, 0, 75, 0
4, 361440, Note_on_c, 0, 75, 34
4, 361470, Note_on_c, 0, 77, 0
4, 361500, Note_on_c, 0, 77, 38
4, 361530, Note_on_c, 0, 75, 0
4, 361560, Note_on_c, 0, 75, 23
4, 361590, Note_on_c, 0, 77, 0
4, 361620, Note_on_c, 0, 77, 29
4, 361650, Note_on_c, 0, 75, 0
4, 361680, Note_on_c, 0, 75, 37
4, 361710, Note_on_c, 0, 77, 0
4, 361740, Note_on_c, 0, 77, 19
4, 361770, Note_on_c, 0, 75, 0
4, 361800, Note_on_c, 0, 75, 23
4, 361830, Note_on_c, 0, 77, 0
4, 361860, Note_on_c, 0, 77, 24
4, 361890, Note_on_c, 0, 75, 0
4, 361920, Note_on_c, 0, 75, 33
4, 361920, Note_on_c, 0, 75, 34
4, 361950, Note_on_c, 0, 77, 0
4, 361980, Note_on_c, 0, 77, 37
4, 361980, Note_on_c, 0, 77, 20
4, 362010, Note_on_c, 0, 75, 0
4, 362010, Note_on_c, 0, 75, 0
4, 362040, Note_on_c, 0, 75, 22
4, 362040, Note_on_c, 0, 75, 22
4, 362070, Note_on_c, 0, 77, 0
4, 362070, Note_on_c, 0, 77, 0
4, 362100, Note_on_c, 0, 77, 32
4, 362100, Note_on_c, 0, 77, 19
4, 362130, Note_on_c, 0, 75, 0
4, 362130, Note_on_c, 0, 75, 0
4, 362160, Note_on_c, 0, 75, 38
4, 362160, Note_on_c, 0, 75, 25
4, 362190, Note_on_c, 0, 77, 0
4, 362190, Note_on_c, 0, 77, 0
4, 362220, Note_on_c, 0, 77, 23
4, 362220, Note_on_c, 0, 77, 19
4, 362250, Note_on_c, 0, 75, 0
4, 362250, Note_on_c, 0, 75, 0
4, 362280, Note_on_c, 0, 75, 24
4, 362280, Note_on_c, 0, 75, 24
4, 362310, Note_on_c, 0, 77, 0
4, 362310, Note_on_c, 0, 77, 0
4, 362340, Note_on_c, 0, 77, 20
4, 362340, Note_on_c, 0, 77, 39
4, 362370, Note_on_c, 0, 75, 0
4, 362370, Note_on_c, 0, 75, 0
4, 362400, Note_on_c, 0, 75, 37
4, 362430, Note_on_c, 0, 77, 0
4, 362430, Note_on_c, 0, 77, 0
4, 362460, Note_on_c, 0, 77, 36
4, 362490, Note_on_c, 0, 75, 0
4, 362520, Note_on_c, 0, 75, 19
4, 362550, Note_on_c, 0, 77, 0
4, 362580, Note_on_c, 0, 77, 34
4, 362610, Note_on_c, 0, 75, 0
4, 362640, Note_on_c, 0, 75, 22
4, 362670, Note_on_c, 0, 77, 0
4, 362700, Note_on_c, 0, 77, 31
4, 362730, Note_on_c, 0, 75, 0
4, 362760, Note_on_c, 0, 75, 38
4, 362790, Note_on_c, 0, 77, 0
4, 362820, Note_on_c, 0, 77, 38
4, 362850, Note_on_c, 0, 75, 0
4, 362880, Note_on_c, 0, 75, 37
4, 362910, Note_on_c, 0, 77, 0
4, 362940, Note_on_c, 0, 77, 31
4, 362970, Note_on_c, 0, 75, 0
4, 363000, Note_on_c, 0, 75, 39
4, 363030, Note_on_c, 0, 77, 0
4, 363060, Note_on_c, 0, 77, 39
4, 363090, Note_on_c, 0, 75, 0
4, 363120, Note_on_c, 0, 75, 31
4, 363150, Note_on_c, 0, 77, 0
4, 363180, Note_on_c, 0, 77, 22
4, 363210, Note_on_c, 0, 75, 0
4, 363240, Note_on_c, 0, 75, 29
4, 363270, Note_on_c, 0, 77, 0
4, 363300, Note_on_c, 0, 77, 38
4, 363330, Note_on_c, 0, 75, 0
4, 363360, Note_on_c, 0, 75, 27
4, 363390, Note_on_c, 0, 77, 0
4, 363420, Note_on_c, 0, 77, 36
4, 363450, Note_on_c, 0, 75, 0
4, 363480, Note_on_c, 0, 75, 28
4, 363510, Note_on_c, 0, 77, 0
4, 363540, Note_on_c, 0, 77, 27
4, 363570, Note_on_c, 0, 75, 0
4, 363600, Note_on_c, 0, 75, 30
4, 363630, Note_on_c, 0, 77, 0
4, 363660, Note_on_c, 0, 77, 35
4, 363690, Note_on_c, 0, 75, 0
4, 363720, Note_on_c, 0, 75, 24
4, 363750, Note_on_c, 0, 77, 0
4, 363780, Note_on_c, 0, 77, 34
4, 363810, Note_on_c, 0, 75, 0
4, 363840, Note_on_c, 0, 75, 34
4, 363870, Note_on_c, 0, 77, 0
4, 363900, Note_on_c, 0, 77, 34
4, 363930, Note_on_c, 0, 75, 0
4, 363960, Note_on_c, 0, 75, 31
4, 363990, Note_on_c, 0, 77, 0
4, 364020, Note_on_c, 0, 77, 29
4, 364050, Note_on_c, 0, 75, 0
4, 364080, Note_on_c, 0, 75, 23
4, 364110, Note_on_c, 0, 77, 0
4, 364140, Note_on_c, 0, 77, 37
4, 364170, Note_on_c, 0, 75, 0
4, 364200, Note_on_c, 0, 75, 19
4, 364230, Note_on_c, 0, 77, 0
4, 364260, Note_on_c, 0, 77, 30
4, 364290, Note_on_c, 0, 75, 0
4, 364320, Note_on_c, 0, 75, 25
4, 364350, Note_on_c, 0, 77, 0
4, 364380, Note_on_c, 0, 77, 30
4, 364410, Note_on_c, 0, 75, 0
4, 364440, Note_on_c, 0, 75, 36
4, 364470, Note_on_c, 0, 77, 0
4, 364500, Note_on_c, 0, 77, 28
4, 364530, Note_on_c, 0, 75, 0
4, 364560, Note_on_c, 0, 75, 32
4, 364590, Note_on_c, 0, 77, 0
4, 364620, Note_on_c, 0, 77, 19
4, 364650, Note_on_c, 0, 75, 0
4, 364680, Note_on_c, 0, 75, 19
4, 364710, Note_on_c, 0, 77, 0
4, 364740, Note_on_c, 0, 77, 22
4, 364770, Note_on_c, 0, 75, 0
4, 364800, Note_on_c, 0, 75, 37
4, 364830, Note_on_c, 0, 77, 0
4, 364860, Note_on_c, 0, 77, 30
4, 364890, Note_on_c, 0, 75, 0
4, 364920, Note_on_c, 0, 75, 29
4, 364950, Note_on_c, 0, 77, 0
4, 364980, Note_on_c, 0, 77, 39
4, 365010, Note_on_c, 0, 75, 0
4, 365040, Note_on_c, 0, 75, 36
4, 365070, Note_on_c, 0, 77, 0
4, 365100, Note_on_c, 0, 77, 39
4, 365130, Note_on_c, 0, 75, 0
4, 365160, Note_on_c, 0, 75, 36
4, 365190, Note_on_c, 0, 77, 0
4, 365220, Note_on_c, 0, 77, 25
4, 365250, Note_on_c, 0, 75, 0
4, 365280, Note_on_c, 0, 75, 26
4, 365310, Note_on_c, 0, 77, 0
4, 365340, Note_on_c, 0, 77, 33
4, 365370, Note_on_c, 0, 75, 0
4, 365400, Note_on_c, 0, 75, 24
4, 365430, Note_on_c, 0, 77, 0
4, 365460, Note_on_c, 0, 77, 38
4, 365490, Note_on_c, 0, 75, 0
4, 365520, Note_on_c, 0, 75, 25
4, 365550, Note_on_c, 0, 77, 0
4, 365580, Note_on_c, 0, 77, 33
4, 365610, Note_on_c, 0, 75, 0
4, 365640, Note_on_c, 0, 75, 36
4, 365670, Note_on_c, 0, 77, 0
4, 365700, Note_on_c, 0, 77, 24
4, 365730, Note_on_c, 0, 75, 0
4, 365760, Note_on_c, 0, 75, 22
4, 365790, Note_on_c, 0, 77, 0
4, 365820, Note_on_c, 0, 77, 33
4, 365850, Note_on_c, 0, 75, 0
4, 365880, Note_on_c, 0, 75, 31
4, 365910, Note_on_c, 0, 77, 0
4, 365940, Note_on_c, 0, 77, 35
4, 365970, Note_on_c, 0, 75, 0
4, 366000, Note_on_c, 0, 75, 32
4, 366030, Note_on_c, 0, 77, 0
4, 366060, Note_on_c, 0, 77, 27
4, 366090, Note_on_c, 0, 75, 0
4, 366120, Note_on_c, 0, 75, 29
4, 366150, Note_on_c, 0, 77, 0
4, 366180, Note_on_c, 0, 77, 23
4, 366210, Note_on_c, 0, 75, 0
4, 366240, Note_on_c, 0, 75, 27
4, 366270, Note_on_c, 0, 77, 0
4, 366300, Note_on_c, 0, 77, 33
4, 366330, Note_on_c, 0, 75, 0
4, 366360, Note_on_c, 0, 75, 35
4, 366390, Note_on_c, 0, 77, 0
4, 366420, Note_on_c, 0, 77, 20
4, 366450, Note_on_c, 0, 75, 0
4, 366480, Note_on_c, 0, 75, 35
4, 366510, Note_on_c, 0, 77, 0
4, 366540, Note_on_c, 0, 77, 36
4, 366570, Note_on_c, 0, 75, 0
4, 366600, Note_on_c, 0, 75, 37
4, 366630, Note_on_c, 0, 77, 0
4, 366660, Note_on_c, 0, 77, 23
4, 366690, Note_on_c, 0, 75, 0
4, 366720, Note_on_c, 0, 75, 33
4, 366750, Note_on_c, 0, 77, 0
4, 366780, Note_on_c, 0, 77, 39
4, 366810, Note_on_c, 0, 75, 0
4, 366840, Note_on_c, 0, 75, 21
4, 366870, Note_on_c, 0, 77, 0
4, 366900, Note_on_c, 0, 77, 26
4, 366930, Note_on_c, 0, 75, 0
4, 366960, Note_on_c, 0, 75, 23
4, 366990, Note_on_c, 0, 77, 0
4, 367020, Note_on_c, 0, 77, 19
4, 367050, Note_on_c, 0, 75, 0
4, 367080, Note_on_c, 0, 75, 28
4, 367110, Note_on_c, 0, 77, 0
4, 367140, Note_on_c, 0, 77, 37
4, 367170, Note_on_c, 0, 75, 0
4, 367200, Note_on_c, 0, 75, 39
4, 367230, Note_on_c, 0, 77, 0
4, 367260, Note_on_c, 0, 77, 33
4, 367290, Note_on_c, 0, 75, 0
4, 367320, Note_on_c, 0, 75, 24
4, 367350, Note_on_c, 0, 77, 0
4, 367380, Note_on_c, 0, 77, 34
4, 367410, Note_on_c, 0, 75, 0
4, 367440, Note_on_c, 0, 75, 26
4, 367470, Note_on_c, 0, 77, 0
4, 367500, Note_on_c, 0, 77, 25
4, 367530, Note_on_c, 0, 75, 0
4, 367560, Note_on_c, 0, 75, 26
4, 367590, Note_on_c, 0, 77, 0
4, 367620, Note_on_c, 0, 77, 29
4, 367650, Note_on_c, 0, 75, 0
4, 367680, Note_on_c, 0, 75, 31
4, 367710, Note_on_c, 0, 77, 0
4, 367740, Note_on_c, 0, 77, 23
4, 367770, Note_on_c, 0, 75, 0
4, 367800, Note_on_c, 0, 75, 28
4, 367830, Note_on_c, 0, 77, 0
4, 367860, Note_on_c, 0, 77, 19
4, 367890, Note_on_c, 0, 75, 0
4, 367920, Note_on_c, 0, 75, 35
4, 367950, Note_on_c, 0, 77, 0
4, 367980, Note_on_c, 0, 77, 20
4, 368010, Note_on_c, 0, 75, 0
4, 368040, Note_on_c, 0, 75, 24
4, 368070, Note_on_c, 0, 77, 0
4, 368100, Note_on_c, 0, 77, 19
4, 368130, Note_on_c, 0, 75, 0
4, 368160, Note_on_c, 0, 75, 21
4, 368190, Note_on_c, 0, 77, 0
4, 368220, Note_on_c, 0, 77, 35
4, 368250, Note_on_c, 0, 75, 0
4, 368280, Note_on_c, 0, 75, 26
4, 368310, Note_on_c, 0, 77, 0
4, 368340, Note_on_c, 0, 77, 29
4, 368370, Note_on_c, 0, 75, 0
4, 368400, Note_on_c, 0, 75, 25
4, 368430, Note_on_c, 0, 77, 0
4, 368460, Note_on_c, 0, 77, 19
4, 368490, Note_on_c, 0, 75, 0
4, 368520, Note_on_c, 0, 75, 31
4, 368550, Note_on_c, 0, 77, 0
4, 368580, Note_on_c, 0, 77, 34
4, 368610, Note_on_c, 0, 75, 0
4, 368640, Note_on_c, 0, 75, 26
4, 368670, Note_on_c, 0, 77, 0
4, 368700, Note_on_c, 0, 77, 24
4, 368730, Note_on_c, 0, 75, 0
4, 368760, Note_on_c, 0, 75, 19
4, 368790, Note_on_c, 0, 77, 0
4, 368820, Note_on_c, 0, 77, 36
4, 368850, Note_on_c, 0, 75, 0
4, 368880, Note_on_c, 0, 75, 38
4, 368910, Note_on_c, 0, 77, 0
4, 368940, Note_on_c, 0, 77, 35
4, 368970, Note_on_c, 0, 75, 0
4, 369000, Note_on_c, 0, 75, 26
4, 369030, Note_on_c, 0, 77, 0
4, 369060, Note_on_c, 0, 77, 28
4, 369090, Note_on_c, 0, 75, 0
4, 369120, Note_on_c, 0, 75, 26
4, 369150, Note_on_c, 0, 77, 0
4, 369180, Note_on_c, 0, 77, 24
4, 369210, Note_on_c, 0, 75, 0
4, 369240, Note_on_c, 0, 75, 24
4, 369270, Note_on_c, 0, 77, 0
4, 369300, Note_on_c, 0, 77, 25
4, 369330, Note_on_c, 0, 75, 0
4, 369360, Note_on_c, 0, 75, 27
4, 369390, Note_on_c, 0, 77, 0
4, 369420, Note_on_c, 0, 77, 36
4, 369450, Note_on_c, 0, 75, 0
4, 369480, Note_on_c, 0, 75, 25
4, 369510, Note_on_c, 0, 77, 0
4, 369540, Note_on_c, 0, 77, 38
4, 369570, Note_on_c, 0, 75, 0
4, 369600, Note_on_c, 0, 75, 20
4, 369630, Note_on_c, 0, 77, 0
4, 369660, Note_on_c, 0, 77, 31
4, 369690, Note_on_c, 0, 75, 0
4, 369720, Note_on_c, 0, 75, 38
4, 369750, Note_on_c, 0, 77, 0
4, 369780, Note_on_c, 0, 77, 38
4, 369810, Note_on_c, 0, 75, 0
4, 369840, Note_on_c, 0, 75, 33
4, 369870, Note_on_c, 0, 77, 0
4, 369900, Note_on_c, 0, 77, 23
4, 369930, Note_on_c, 0, 75, 0
4, 369960, Note_on_c, 0, 75, 22
4, 369990, Note_on_c, 0, 77, 0
4, 370020, Note_on_c, 0, 77, 22
4, 370050, Note_on_c, 0, 75, 0
4, 370080, Note_on_c, 0, 75, 23
4, 370110, Note_on_c, 0, 77, 0
4, 370140, Note_on_c, 0, 77, 20
4, 370170, Note_on_c, 0, 75, 0
4, 370200, Note_on_c, 0, 75, 38
4, 370230, Note_on_c, 0, 77, 0
4, 370260, Note_on_c, 0, 77, 22
4, 370290, Note_on_c, 0, 75, 0
4, 370320, Note_on_c, 0, 75, 39
4, 370350, Note_on_c, 0, 77, 0
4, 370380, Note_on_c, 0, 77, 30
4, 370410, Note_on_c, 0, 75, 0
4, 370440, Note_on_c, 0, 75, 30
4, 370470, Note_on_c, 0, 77, 0
4, 370500, Note_on_c, 0, 77, 27
4, 370530, Note_on_c, 0, 75, 0
4, 370560, Note_on_c, 0, 75, 22
4, 370590, Note_on_c, 0, 77, 0
4, 370620, Note_on_c, 0, 77, 20
4, 370650, Note_on_c, 0, 75, 0
4, 370680, Note_on_c, 0, 75, 31
4, 370710, Note_on_c, 0, 77, 0
4, 370740, Note_on_c, 0, 77, 38
4, 370770, Note_on_c, 0, 75, 0
4, 370800, Note_on_c, 0, 75, 22
4, 370830, Note_on_c, 0, 77, 0
4, 370860, Note_on_c, 0, 77, 21
4, 370890, Note_on_c, 0, 75, 0
4, 370920, Note_on_c, 0, 75, 39
4, 370950, Note_on_c, 0, 77, 0
4, 370980, Note_on_c, 0, 77, 19
4, 371010, Note_on_c, 0, 75, 0
4, 371040, Note_on_c, 0, 75, 30
4, 371070, Note_on_c, 0, 77, 0
4, 371100, Note_on_c, 0, 77, 33
4, 371130, Note_on_c, 0, 75, 0
4, 371160, Note_on_c, 0, 75, 35
4, 371190, Note_on_c, 0, 77, 0
4, 371220, Note_on_c, 0, 77, 21
4, 371250, Note_on_c, 0, 75, 0
4, 371280, Note_on_c, 0, 75, 20
4, 371310, Note_on_c, 0, 77, 0
4, 371340, Note_on_c, 0, 77, 24
4, 371370, Note_on_c, 0, 75, 0
4, 371400, Note_on_c, 0, 75, 24
4, 371430, Note_on_c, 0, 77, 0
4, 371460, Note_on_c, 0, 77, 32
4, 371490, Note_on_c, 0, 75, 0
4, 371520, Note_on_c, 0, 75, 30
4, 371550, Note_on_c, 0, 77, 0
4, 371580, Note_on_c, 0, 77, 28
4, 371610, Note_on_c, 0, 75, 0
4, 371640, Note_on_c, 0, 75, 23
4, 371670, Note_on_c, 0, 77, 0
4, 371700, Note_on_c, 0, 77, 21
4, 371730, Note_on_c, 0, 75, 0
4, 371760, Note_on_c, 0, 75, 38
4, 371790, Note_on_c, 0, 77, 0
4, 371820, Note_on_c, 0, 77, 39
4, 371850, Note_on_c, 0, 75, 0
4, 371880, Note_on_c, 0, 75, 27
4, 371910, Note_on_c, 0, 77, 0
4, 371940, Note_on_c, 0, 77, 35
4, 371970, Note_on_c, 0, 75, 0
4, 372000, Note_on_c, 0, 75, 21
4, 372030, Note_on_c, 0, 77, 0
4, 372060, Note_on_c, 0, 77, 26
4, 372090, Note_on_c, 0, 75, 0
4, 372120, Note_on_c, 0, 75, 35
4, 372150, Note_on_c, 0, 77, 0
4, 372180, Note_on_c, 0, 77, 31
4, 372210, Note_on_c, 0, 75, 0
4, 372240, Note_on_c, 0, 75, 36
4, 372270, Note_on_c, 0, 77, 0
4, 372300, Note_on_c, 0, 77, 20
4, 372330, Note_on_c, 0, 75, 0
4, 372360, Note_on_c, 0, 75, 32
4, 372390, Note_on_c, 0, 77, 0
4, 372420, Note_on_c, 0, 77, 24
4, 372450, Note_on_c, 0, 75, 0
4, 372480, Note_on_c, 0, 75, 24
4, 372510, Note_on_c, 0, 77, 0
4, 372540, Note_on_c, 0, 77, 34
4, 372570, Note_on_c, 0, 75, 0
4, 372600, Note_on_c, 0, 75, 22
4, 372630, Note_on_c, 0, 77, 0
4, 372660, Note_on_c, 0, 77, 37
4, 372690, Note_on_c, 0, 75, 0
4, 372720, Note_on_c, 0, 75, 38
4, 372750, Note_on_c, 0, 77, 0
4, 372780, Note_on_c, 0, 77, 36
4, 372810, Note_on_c, 0, 75, 0
4, 372840, Note_on_c, 0, 75, 23
4, 372870, Note_on_c, 0, 77, 0
4, 372900, Note_on_c, 0, 77, 22
4, 372930, Note_on_c, 0, 75, 0
4, 372960, Note_on_c, 0, 75, 24
4, 372990, Note_on_c, 0, 77, 0
4, 373020, Note_on_c, 0, 77, 34
4, 373050, Note_on_c, 0, 75, 0
4, 373080, Note_on_c, 0, 75, 28
4, 373110, Note_on_c, 0, 77, 0
4, 373140, Note_on_c, 0, 77, 27
4, 373170, Note_on_c, 0, 75, 0
4, 373200, Note_on_c, 0, 75, 27
4, 373230, Note_on_c, 0, 77, 0
4, 373260, Note_on_c, 0, 77, 19
4, 373290, Note_on_c, 0, 75, 0
4, 373320, Note_on_c, 0, 75, 21
4, 373350, Note_on_c, 0, 77, 0
4, 373380, Note_on_c, 0, 77, 27
4, 373410, Note_on_c, 0, 75, 0
4, 373440, Note_on_c, 0, 75, 22
4, 373470, Note_on_c, 0, 77, 0
4, 373500, Note_on_c, 0, 77, 34
4, 373530, Note_on_c, 0, 75, 0
4, 373560, Note_on_c, 0, 75, 38
4, 373590, Note_on_c, 0, 77, 0
4, 373620, Note_on_c, 0, 77, 39
4, 373650, Note_on_c, 0, 75, 0
4, 373680, Note_on_c, 0, 75, 27
4, 373710, Note_on_c, 0, 77, 0
4, 373740, Note_on_c, 0, 77, 32
4, 373770, Note_on_c, 0, 75, 0
4, 373800, Note_on_c, 0, 75, 31
4, 373830, Note_on_c, 0, 77, 0
4, 373860, Note_on_c, 0, 77, 36
4, 373890, Note_on_c, 0, 75, 0
4, 373920, Note_on_c, 0, 75, 31
4, 373950, Note_on_c, 0, 77, 0
4, 373980, Note_on_c, 0, 77, 36
4, 374010, Note_on_c, 0, 75, 0
4, 374040, Note_on_c, 0, 75, 36
4, 374070, Note_on_c, 0, 77, 0
4, 374100, Note_on_c, 0, 77, 39
4, 374130, Note_on_c, 0, 75, 0
4, 374160, Note_on_c, 0, 75, 39
4, 374190, Note_on_c, 0, 77, 0
4, 374220, Note_on_c, 0, 77, 23
4, 374250, Note_on_c, 0, 75, 0
4, 374280, Note_on_c, 0, 75, 20
4, 374310, Note_on_c, 0, 77, 0
4, 374340, Note_on_c, 0, 77, 19
4, 374370, Note_on_c, 0, 75, 0
4, 374400, Note_on_c, 0, 75, 24
4, 374430, Note_on_c, 0, 77, 0
4, 374460, Note_on_c, 0, 77, 26
4, 374490, Note_on_c, 0, 75, 0
4, 374520, Note_on_c, 0, 75, 38
4, 374550, Note_on_c, 0, 77, 0
4, 374580, Note_on_c, 0, 77, 20
4, 374610, Note_on_c, 0, 75, 0
4, 374640, Note_on_c, 0, 75, 37
4, 374670, Note_on_c, 0, 77, 0
4, 374700, Note_on_c, 0, 77, 26
4, 374730, Note_on_c, 0, 75, 0
4, 374760, Note_on_c, 0, 75, 19
4, 374790, Note_on_c, 0, 77, 0
4, 374820, Note_on_c, 0, 77, 24
4, 374850, Note_on_c, 0, 75, 0
4, 374880, Note_on_c, 0, 75, 32
4, 374910, Note_on_c, 0, 77, 0
4, 374940, Note_on_c, 0, 77, 37
4, 374970, Note_on_c, 0, 75, 0
4, 375000, Note_on_c, 0, 75, 38
4, 375030, Note_on_c, 0, 77, 0
4, 375060, Note_on_c, 0, 77, 27
4, 375090, Note_on_c, 0, 75, 0
4, 375120, Note_on_c, 0, 75, 21
4, 375150, Note_on_c, 0, 77, 0
4, 375180, Note_on_c, 0, 77, 25
4, 375210, Note_on_c, 0, 75, 0
4, 375240, Note_on_c, 0, 75, 39
4, 375270, Note_on_c, 0, 77, 0
4, 375300, Note_on_c, 0, 77, 33
4, 375330, Note_on_c, 0, 75, 0
4, 375360, Note_on_c, 0, 75, 32
4, 375390, Note_on_c, 0, 77, 0
4, 375420, Note_on_c, 0, 77, 27
4, 375450, Note_on_c, 0, 75, 0
4, 375480, Note_on_c, 0, 75, 35
4, 375510, Note_on_c, 0, 77, 0
4, 375540, Note_on_c, 0, 77, 19
4, 375570, Note_on_c, 0, 75, 0
4, 375600, Note_on_c, 0, 75, 21
4, 375630, Note_on_c, 0, 77, 0
4, 375660, Note_on_c, 0, 77, 38
4, 375690, Note_on_c, 0, 75, 0
4, 375720, Note_on_c, 0, 75, 31
4, 375750, Note_on_c, 0, 77, 0
4, 375780, Note_on_c, 0, 77, 24
4, 375810, Note_on_c, 0, 75, 0
4, 375840, Note_on_c, 0, 75, 20
4, 375870, Note_on_c, 0, 77, 0
4, 375900, Note_on_c, 0, 77, 38
4, 375930, Note_on_c, 0, 75, 0
4, 375960, Note_on_c, 0, 75, 19
4, 375990, Note_on_c, 0, 77, 0
4, 376020, Note_on_c, 0, 77, 34
4, 376050, Note_on_c, 0, 75, 0
4, 376080, Note_on_c, 0, 75, 38
4, 376110, Note_on_c, 0, 77, 0
4, 376140, Note_on_c, 0, 77, 23
4, 376170, Note_on_c, 0, 75, 0
4, 376200, Note_on_c, 0, 75, 25
4, 376230, Note_on_c, 0, 77, 0
4, 376260, Note_on_c, 0, 77, 29
4, 376290, Note_on_c, 0, 75, 0
4, 376320, Note_on_c, 0, 75, 20
4, 376350, Note_on_c, 0, 77, 0
4, 376380, Note_on_c, 0, 77, 34
4, 376410, Note_on_c, 0, 75, 0
4, 376440, Note_on_c, 0, 75, 27
4, 376470, Note_on_c, 0, 77, 0
4, 376500, Note_on_c, 0, 77, 21
4, 376530, Note_on_c, 0, 75, 0
4, 376560, Note_on_c, 0, 75, 37
4, 376590, Note_on_c, 0, 77, 0
4, 376620, Note_on_c, 0, 77, 20
4, 376650, Note_on_c, 0, 75, 0
4, 376680, Note_on_c, 0, 75, 20
4, 376710, Note_on_c, 0, 77, 0
4, 376740, Note_on_c, 0, 77, 27
4, 376770, Note_on_c, 0, 75, 0
4, 376800, Note_on_c, 0, 75, 29
4, 376830, Note_on_c, 0, 77, 0
4, 376860, Note_on_c, 0, 77, 23
4, 376890, Note_on_c, 0, 75, 0
4, 376920, Note_on_c, 0, 75, 21
4, 376950, Note_on_c, 0, 77, 0
4, 376980, Note_on_c, 0, 77, 33
4, 377010, Note_on_c, 0, 75, 0
4, 377040, Note_on_c, 0, 75, 24
4, 377070, Note_on_c, 0, 77, 0
4, 377100, Note_on_c, 0, 77, 32
4, 377130, Note_on_c, 0, 75, 0
4, 377160, Note_on_c, 0, 75, 35
4, 377190, Note_on_c, 0, 77, 0
4, 377220, Note_on_c, 0, 77, 37
4, 377250, Note_on_c, 0, 75, 0
4, 377280, Note_on_c, 0, 75, 39
4, 377310, Note_on_c, 0, 77, 0
4, 377340, Note_on_c, 0, 77, 32
4, 377370, Note_on_c, 0, 75, 0
4, 377400, Note_on_c, 0, 75, 32
4, 377430, Note_on_c, 0, 77, 0
4, 377460, Note_on_c, 0, 77, 30
4, 377490, Note_on_c, 0, 75, 0
4, 377520, Note_on_c, 0, 75, 30
4, 377550, Note_on_c, 0, 77, 0
4, 377580, Note_on_c, 0, 77, 24
4, 377610, Note_on_c, 0, 75, 0
4, 377640, Note_on_c, 0, 75, 20
4, 377670, Note_on_c, 0, 77, 0
4, 377700, Note_on_c, 0, 77, 20
4, 377730, Note_on_c, 0, 75, 0
4, 377760, Note_on_c, 0, 75, 18
4, 377790, Note_on_c, 0, 77, 0
4, 377820, Note_on_c, 0, 77, 17
4, 377850, Note_on_c, 0, 75, 0
4, 377880, Note_on_c, 0, 75, 15
4, 377910, Note_on_c, 0, 77, 0
4, 377940, Note_on_c, 0, 77, 25
4, 377970, Note_on_c, 0, 75, 0
4, 378000, Note_on_c, 0, 75, 24
4, 378030, Note_on_c, 0, 77, 0
4, 378060, Note_on_c, 0, 77, 23
4, 378090, Note_on_c, 0, 75, 0
4, 378120, Note_on_c, 0, 75, 22
4, 378150, Note_on_c, 0, 77, 0
4, 378180, Note_on_c, 0, 77, 21
4, 378210, Note_on_c, 0, 75, 0
4, 378240, Note_on_c, 0, 75, 20
4, 378270, Note_on_c, 0, 77, 0
4, 378300, Note_on_c, 0, 77, 19
4, 378330, Note_on_c, 0, 75, 0
4, 378360, Note_on_c, 0, 75, 18
4, 378390, Note_on_c, 0, 77, 0
4, 378420, Note_on_c, 0, 77, 17
4, 378450, Note_on_c, 0, 75, 0
4, 378480, Note_on_c, 0, 75, 15
4, 378510, Note_on_c, 0, 77, 0
4, 378540, Note_on_c, 0, 77, 14
4, 378570, Note_on_c, 0, 75, 0
4, 378600, Note_on_c, 0, 75, 13
4, 378630, Note_on_c, 0, 77, 0
4, 378660, Note_on_c, 0, 77, 12
4, 378690, Note_on_c, 0, 75, 0
4, 378750, Note_on_c, 0, 77, 0
4, 397932, Note_on_c, 0, 65, 69
4, 398292, Note_on_c, 0, 65, 0
4, 398401, Note_on_c, 0, 65, 81
4, 398761, Note_on_c, 0, 65, 0
4, 398901, Note_on_c, 0, 65, 74
4, 399261, Note_on_c, 0, 65, 0
4, 399364, Note_on_c, 0, 66, 76
4, 399604, Note_on_c, 0, 66, 0
4, 399609, Note_on_c, 0, 68, 67
4, 399849, Note_on_c, 0, 68, 0
4, 399865, Note_on_c, 0, 70, 73
4, 400327, Note_on_c, 0, 68, 70
4, 400345, Note_on_c, 0, 70, 0
4, 400803, Note_on_c, 0, 66, 76
4, 400807, Note_on_c, 0, 68, 0
4, 401283, Note_on_c, 0, 66, 0
4, 403208, Note_on_c, 0, 66, 85
4, 403441, Note_on_c, 0, 68, 69
4, 403448, Note_on_c, 0, 66, 0
4, 403681, Note_on_c, 0, 68, 0
4, 403690, Note_on_c, 0, 70, 85
4, 404163, Note_on_c, 0, 68, 77
4, 404170, Note_on_c, 0, 70, 0
4, 404643, Note_on_c, 0, 68, 0
4, 404659, Note_on_c, 0, 66, 65
4, 405135, Note_on_c, 0, 65, 67
4, 405139, Note_on_c, 0, 66, 0
4, 405495, Note_on_c, 0, 65, 0
4, 405608, Note_on_c, 0, 65, 80
4, 405968, Note_on_c, 0, 65, 0
4, 406089, Note_on_c, 0, 66, 79
4, 406324, Note_on_c, 0, 68, 69
4, 406329, Note_on_c, 0, 66, 0
4, 406563, Note_on_c, 0, 70, 75
4, 406564, Note_on_c, 0, 68, 0
4, 407043, Note_on_c, 0, 70, 0
4, 407545, Note_on_c, 0, 65, 84
4, 407905, Note_on_c, 0, 65, 0
4, 408021, Note_on_c, 0, 65, 81
4, 408381, Note_on_c, 0, 65, 0
4, 408492, Note_on_c, 0, 65, 79
4, 408852, Note_on_c, 0, 65, 0
4, 408960, Note_on_c, 0, 66, 81
4, 409200, Note_on_c, 0, 66, 0
4, 409220, Note_on_c, 0, 68, 82
4, 409460, Note_on_c, 0, 68, 0
4, 409462, Note_on_c, 0, 70, 70
4, 409922, Note_on_c, 0, 68, 85
4, 409942, Note_on_c, 0, 70, 0
4, 410402, Note_on_c, 0, 68, 0
4, 410411, Note_on_c, 0, 66, 78
4, 410891, Note_on_c, 0, 66, 0
4, 410905, Note_on_c, 0, 65, 65
4, 411265, Note_on_c, 0, 65, 0
4, 411372, Note_on_c, 0, 65, 66
4, 411732, Note_on_c, 0, 65, 0
4, 411865, Note_on_c, 0, 66, 85
4, 412086, Note_on_c, 0, 68, 68
4, 412105, Note_on_c, 0, 66, 0
4, 412326, Note_on_c, 0, 68, 0
4, 412335, Note_on_c, 0, 70, 81
4, 412815, Note_on_c, 0, 70, 0
4, 412825, Note_on_c, 0, 68, 85
4, 413302, Note_on_c, 0, 66, 77
4, 413305, Note_on_c, 0, 68, 0
4, 413782, Note_on_c, 0, 66, 0
4, 413782, Note_on_c, 0, 65, 78
4, 414142, Note_on_c, 0, 65, 0
4, 414248, Note_on_c, 0, 65, 81
4, 414608, Note_on_c, 0, 65, 0
4, 414741, Note_on_c, 0, 66, 81
4, 414969, Note_on_c, 0, 68, 69
4, 414981, Note_on_c, 0, 66, 0
4, 415204, Note_on_c, 0, 70, 71
4, 415209, Note_on_c, 0, 68, 0
4, 415684, Note_on_c, 0, 70, 0
4, 448806, Note_on_c, 0, 84, 101
4, 448949, Note_on_c, 0, 84, 0
4, 468960, Note_on_c, 0, 87, 96
4, 469103, Note_on_c, 0, 87, 0
4, 589440, Note_on_c, 0, 77, 93
4, 589471, Note_on_c, 0, 77, 0
4, 589520, Note_on_c, 0, 78, 85
4, 589551, Note_on_c, 0, 78, 0
4, 589599, Note_on_c, 0, 79, 97
4, 589631, Note_on_c, 0, 79, 0
4, 589680, Note_on_c, 0, 80, 93
4, 589711, Note_on_c, 0, 80, 0
4, 589760, Note_on_c, 0, 81, 97
4, 589791, Note_on_c, 0, 81, 0
4, 589839, Note_on_c, 0, 82, 89
4, 589871, Note_on_c, 0, 82, 0
4, 589920, Note_on_c, 0, 83, 96
4, 589951, Note_on_c, 0, 83, 0
4, 590000, Note_on_c, 0, 84, 90
4, 590031, Note_on_c, 0, 84, 0
4, 590079, Note_on_c, 0, 85, 79
4, 590111, Note_on_c, 0, 85, 0
4, 590160, Note_on_c, 0, 86, 92
4, 590191, Note_on_c, 0, 86, 0
4, 590240, Note_on_c, 0, 87, 93
4, 590271, Note_on_c, 0, 87, 0
4, 590319, Note_on_c, 0, 88, 97
4, 590351, Note_on_c, 0, 88, 0
4, 590421, Note_on_c, 0, 77, 100
4, 593775, Note_on_c, 0, 89, 96
4, 593781, Note_on_c, 0, 77, 0
4, 593966, Note_on_c, 0, 89, 0
4, 613445, Note_on_c, 0, 84, 85
4, 613685, Note_on_c, 0, 84, 0
4, 613704, Note_on_c, 0, 86, 85
4, 613928, Note_on_c, 0, 88, 97
4, 613944, Note_on_c, 0, 86, 0
4, 614648, Note_on_c, 0, 88, 0
4, 614655, Note_on_c, 0, 86, 80
4, 614886, Note_on_c, 0, 84, 81
4, 614895, Note_on_c, 0, 86, 0
4, 615126, Note_on_c, 0, 84, 0
4, 615145, Note_on_c, 0, 82, 78
4, 615366, Note_on_c, 0, 84, 86
4, 615385, Note_on_c, 0, 82, 0
4, 615606, Note_on_c, 0, 84, 0
4, 615610, Note_on_c, 0, 86, 95
4, 615850, Note_on_c, 0, 86, 0
4, 615855, Note_on_c, 0, 88, 78
4, 616328, Note_on_c, 0, 86, 80
4, 616335, Note_on_c, 0, 88, 0
4, 616568, Note_on_c, 0, 86, 0
4, 616581, Note_on_c, 0, 84, 88
4, 616816, Note_on_c, 0, 82, 86
4, 616821, Note_on_c, 0, 84, 0
4, 617296, Note_on_c, 0, 82, 0
4, 617300, Note_on_c, 0, 84, 93
4, 617540, Note_on_c, 0, 84, 0
4, 617543, Note_on_c, 0, 86, 79
4, 617760, Note_on_c, 0, 88, 94
4, 617783, Note_on_c, 0, 86, 0
4, 618240, Note_on_c, 0, 88, 0
4, 618252, Note_on_c, 0, 86, 81
4, 618488, Note_on_c, 0, 84, 81
4, 618492, Note_on_c, 0, 86, 0
4, 618728, Note_on_c, 0, 84, 0
4, 618733, Note_on_c, 0, 82, 81
4, 619213, Note_on_c, 0, 82, 0
4, 619218, Note_on_c, 0, 84, 83
4, 619458, Note_on_c, 0, 84, 0
4, 619463, Note_on_c, 0, 86, 88
4, 619685, Note_on_c, 0, 88, 84
4, 619703, Note_on_c, 0, 86, 0
4, 620402, Note_on_c, 0, 86, 90
4, 620405, Note_on_c, 0, 88, 0
4, 620642, Note_on_c, 0, 86, 0
4, 620642, Note_on_c, 0, 84, 91
4, 620882, Note_on_c, 0, 84, 0
4, 620904, Note_on_c, 0, 82, 90
4, 621127, Note_on_c, 0, 84, 94
4, 621144, Note_on_c, 0, 82, 0
4, 621367, Note_on_c, 0, 84, 0
4, 621385, Note_on_c, 0, 86, 89
4, 621622, Note_on_c, 0, 79, 87
4, 621625, Note_on_c, 0, 86, 0
4, 621693, Note_on_c, 0, 79, 0
4, 621854, Note_on_c, 0, 81, 102
4, 621925, Note_on_c, 0, 81, 0
4, 622080, Note_on_c, 0, 83, 92
4, 622127, Note_on_c, 0, 83, 0
4, 622239, Note_on_c, 0, 84, 95
4, 622287, Note_on_c, 0, 84, 0
4, 622400, Note_on_c, 0, 86, 104
4, 622447, Note_on_c, 0, 86, 0
4, 622560, Note_on_c, 0, 88, 102
4, 622607, Note_on_c, 0, 88, 0
4, 622719, Note_on_c, 0, 86, 92
4, 622767, Note_on_c, 0, 86, 0
4, 622880, Note_on_c, 0, 84, 96
4, 622927, Note_on_c, 0, 84, 0
4, 623040, Note_on_c, 0, 88, 99
4, 623087, Note_on_c, 0, 88, 0
4, 623199, Note_on_c, 0, 87, 96
4, 623247, Note_on_c, 0, 87, 0
4, 623360, Note_on_c, 0, 86, 110
4, 623407, Note_on_c, 0, 86, 0
4, 623520, Note_on_c, 0, 88, 99
4, 623567, Note_on_c, 0, 88, 0
4, 623679, Note_on_c, 0, 86, 100
4, 623727, Note_on_c, 0, 86, 0
4, 623840, Note_on_c, 0, 84, 111
4, 623887, Note_on_c, 0, 84, 0
4, 624000, Note_on_c, 0, 82, 92
4, 624047, Note_on_c, 0, 82, 0
4, 624159, Note_on_c, 0, 81, 101
4, 624207, Note_on_c, 0, 81, 0
4, 654262, Note_on_c, 0, 65, 105
4, 654322, Note_on_c, 0, 66, 100
4, 654382, Note_on_c, 0, 65, 0
4, 654407, Note_on_c, 0, 65, 94
4, 654440, Note_on_c, 0, 66, 0
4, 654488, Note_on_c, 0, 66, 101
4, 654527, Note_on_c, 0, 65, 0
4, 654582, Note_on_c, 0, 65, 93
4, 654608, Note_on_c, 0, 66, 0
4, 654655, Note_on_c, 0, 66, 111
4, 654700, Note_on_c, 0, 65, 0
4, 654745, Note_on_c, 0, 63, 96
4, 654775, Note_on_c, 0, 66, 0
4, 654887, Note_on_c, 0, 63, 0
4, 655215, Note_on_c, 0, 61, 98
4, 655280, Note_on_c, 0, 62, 107
4, 655335, Note_on_c, 0, 61, 0
4, 655380, Note_on_c, 0, 61, 92
4, 655398, Note_on_c, 0, 62, 0
4, 655451, Note_on_c, 0, 62, 93
4, 655500, Note_on_c, 0, 61, 0
4, 655524, Note_on_c, 0, 61, 100
4, 655571, Note_on_c, 0, 62, 0
4, 655613, Note_on_c, 0, 62, 104
4, 655642, Note_on_c, 0, 61, 0
4, 655683, Note_on_c, 0, 59, 91
4, 655733, Note_on_c, 0, 62, 0
4, 655825, Note_on_c, 0, 59, 0
4, 656171, Note_on_c, 0, 67, 97
4, 656259, Note_on_c, 0, 68, 94
4, 656291, Note_on_c, 0, 67, 0
4, 656320, Note_on_c, 0, 67, 109
4, 656377, Note_on_c, 0, 68, 0
4, 656413, Note_on_c, 0, 68, 101
4, 656440, Note_on_c, 0, 67, 0
4, 656495, Note_on_c, 0, 67, 110
4, 656533, Note_on_c, 0, 68, 0
4, 656565, Note_on_c, 0, 68, 103
4, 656613, Note_on_c, 0, 67, 0
4, 656645, Note_on_c, 0, 66, 106
4, 656685, Note_on_c, 0, 68, 0
4, 656787, Note_on_c, 0, 66, 0
4, 657121, Note_on_c, 0, 64, 94
4, 657200, Note_on_c, 0, 65, 99
4, 657241, Note_on_c, 0, 64, 0
4, 657289, Note_on_c, 0, 64, 108
4, 657318, Note_on_c, 0, 65, 0
4, 657372, Note_on_c, 0, 65, 102
4, 657409, Note_on_c, 0, 64, 0
4, 657441, Note_on_c, 0, 64, 95
4, 657492, Note_on_c, 0, 65, 0
4, 657537, Note_on_c, 0, 65, 106
4, 657559, Note_on_c, 0, 64, 0
4, 657622, Note_on_c, 0, 63, 101
4, 657657, Note_on_c, 0, 65, 0
4, 657764, Note_on_c, 0, 63, 0
4, 658092, Note_on_c, 0, 65, 101
4, 658163, Note_on_c, 0, 66, 95
4, 658212, Note_on_c, 0, 65, 0
4, 658240, Note_on_c, 0, 65, 106
4, 658281, Note_on_c, 0, 66, 0
4, 658326, Note_on_c, 0, 66, 106
4, 658360, Note_on_c, 0, 65, 0
4, 658413, Note_on_c, 0, 65, 111
4, 658446, Note_on_c, 0, 66, 0
4, 658501, Note_on_c, 0, 66, 103
4, 658531, Note_on_c, 0, 65, 0
4, 658569, Note_on_c, 0, 63, 106
4, 658621, Note_on_c, 0, 66, 0
4, 658711, Note_on_c, 0, 63, 0
4, 659044, Note_on_c, 0, 61, 93
4, 659144, Note_on_c, 0, 62, 100
4, 659164, Note_on_c, 0, 61, 0
4, 659213, Note_on_c, 0, 61, 111
4, 659262, Note_on_c, 0, 62, 0
4, 659290, Note_on_c, 0, 62, 91
4, 659333, Note_on_c, 0, 61, 0
4, 659381, Note_on_c, 0, 61, 93
4, 659410, Note_on_c, 0, 62, 0
4, 659445, Note_on_c, 0, 62, 92
4, 659499, Note_on_c, 0, 61, 0
4, 659528, Note_on_c, 0, 60, 92
4, 659565, Note_on_c, 0, 62, 0
4, 659670, Note_on_c, 0, 60, 0
4, 660005, Note_on_c, 0, 67, 94
4, 660085, Note_on_c, 0, 68, 95
4, 660125, Note_on_c, 0, 67, 0
4, 660161, Note_on_c, 0, 67, 106
4, 660203, Note_on_c, 0, 68, 0
4, 660263, Note_on_c, 0, 68, 93
4, 660281, Note_on_c, 0, 67, 0
4, 660325, Note_on_c, 0, 67, 94
4, 660383, Note_on_c, 0, 68, 0
4, 660400, Note_on_c, 0, 68, 107
4, 660443, Note_on_c, 0, 67, 0
4, 660494, Note_on_c, 0, 66, 100
4, 660520, Note_on_c, 0, 68, 0
4, 660636, Note_on_c, 0, 66, 0
4, 660970, Note_on_c, 0, 64, 104
4, 661053, Note_on_c, 0, 65, 110
4, 661090, Note_on_c, 0, 64, 0
4, 661133, Note_on_c, 0, 64, 102
4, 661171, Note_on_c, 0, 65, 0
4, 661210, Note_on_c, 0, 65, 99
4, 661253, Note_on_c, 0, 64, 0
4, 661303, Note_on_c, 0, 64, 108
4, 661330, Note_on_c, 0, 65, 0
4, 661379, Note_on_c, 0, 65, 92
4, 661421, Note_on_c, 0, 64, 0
4, 661440, Note_on_c, 0, 63, 106
4, 661499, Note_on_c, 0, 65, 0
4, 661582, Note_on_c, 0, 63, 0
4, 661925, Note_on_c, 0, 65, 100
4, 662007, Note_on_c, 0, 66, 96
4, 662045, Note_on_c, 0, 65, 0
4, 662094, Note_on_c, 0, 65, 93
4, 662125, Note_on_c, 0, 66, 0
4, 662177, Note_on_c, 0, 66, 97
4, 662214, Note_on_c, 0, 65, 0
4, 662255, Note_on_c, 0, 65, 108
4, 662297, Note_on_c, 0, 66, 0
4, 662337, Note_on_c, 0, 66, 111
4, 662373, Note_on_c, 0, 65, 0
4, 662402, Note_on_c, 0, 63, 105
4, 662457, Note_on_c, 0, 66, 0
4, 662544, Note_on_c, 0, 63, 0
4, 662894, Note_on_c, 0, 61, 108
4, 662970, Note_on_c, 0, 62, 103
4, 663014, Note_on_c, 0, 61, 0
4, 663051, Note_on_c, 0, 61, 102
4, 663088, Note_on_c, 0, 62, 0
4, 663134, Note_on_c, 0, 62, 108
4, 663171, Note_on_c, 0, 61, 0
4, 663215, Note_on_c, 0, 61, 92
4, 663254, Note_on_c, 0, 62, 0
4, 663303, Note_on_c, 0, 62, 104
4, 663333, Note_on_c, 0, 61, 0
4, 663378, Note_on_c, 0, 59, 101
4, 663423, Note_on_c, 0, 62, 0
4, 663520, Note_on_c, 0, 59, 0
4, 663855, Note_on_c, 0, 67, 97
4, 663933, Note_on_c, 0, 68, 98
4, 663975, Note_on_c, 0, 67, 0
4, 664023, Note_on_c, 0, 67, 94
4, 664051, Note_on_c, 0, 68, 0
4, 664089, Note_on_c, 0, 68, 96
4, 664143, Note_on_c, 0, 67, 0
4, 664164, Note_on_c, 0, 67, 93
4, 664209, Note_on_c, 0, 68, 0
4, 664254, Note_on_c, 0, 68, 110
4, 664282, Note_on_c, 0, 67, 0
4, 664344, Note_on_c, 0, 66, 101
4, 664374, Note_on_c, 0, 68, 0
4, 664486, Note_on_c, 0, 66, 0
4, 664803, Note_on_c, 0, 64, 95
4, 664881, Note_on_c, 0, 65, 98
4, 664923, Note_on_c, 0, 64, 0
4, 664972, Note_on_c, 0, 64, 96
4, 664999, Note_on_c, 0, 65, 0
4, 665064, Note_on_c, 0, 65, 105
4, 665092, Note_on_c, 0, 64, 0
4, 665139, Note_on_c, 0, 64, 111
4, 665184, Note_on_c, 0, 65, 0
4, 665222, Note_on_c, 0, 65, 103
4, 665257, Note_on_c, 0, 64, 0
4, 665284, Note_on_c, 0, 63, 109
4, 665342, Note_on_c, 0, 65, 0
4, 665426, Note_on_c, 0, 63, 0
4, 665776, Note_on_c, 0, 77, 102
4, 665846, Note_on_c, 0, 78, 92
4, 665896, Note_on_c, 0, 77, 0
4, 665939, Note_on_c, 0, 77, 109
4, 665964, Note_on_c, 0, 78, 0
4, 666011, Note_on_c, 0, 78, 109
4, 666059, Note_on_c, 0, 77, 0
4, 666090, Note_on_c, 0, 77, 106
4, 666131, Note_on_c, 0, 78, 0
4, 666177, Note_on_c, 0, 78, 109
4, 666208, Note_on_c, 0, 77, 0
4, 666261, Note_on_c, 0, 75, 94
4, 666297, Note_on_c, 0, 78, 0
4, 666403, Note_on_c, 0, 75, 0
4, 666744, Note_on_c, 0, 73, 109
4, 666818, Note_on_c, 0, 74, 109
4, 666864, Note_on_c, 0, 73, 0
4, 666881, Note_on_c, 0, 73, 109
4, 666936, Note_on_c, 0, 74, 0
4, 666968, Note_on_c, 0, 74, 104
4, 667001, Note_on_c, 0, 73, 0
4, 667050, Note_on_c, 0, 73, 97
4, 667088, Note_on_c, 0, 74, 0
4, 667121, Note_on_c, 0, 74, 105
4, 667168, Note_on_c, 0, 73, 0
4, 667208, Note_on_c, 0, 71, 92
4, 667241, Note_on_c, 0, 74, 0
4, 667350, Note_on_c, 0, 71, 0
4, 667702, Note_on_c, 0, 79, 94
4, 667760, Note_on_c, 0, 80, 99
4, 667822, Note_on_c, 0, 79, 0
4, 667863, Note_on_c, 0, 79, 100
4, 667878, Note_on_c, 0, 80, 0
4, 667942, Note_on_c, 0, 80, 109
4, 667983, Note_on_c, 0, 79, 0
4, 668009, Note_on_c, 0, 79, 109
4, 668062, Note_on_c, 0, 80, 0
4, 668093, Note_on_c, 0, 80, 97
4, 668127, Note_on_c, 0, 79, 0
4, 668173, Note_on_c, 0, 78, 97
4, 668213, Note_on_c, 0, 80, 0
4, 668315, Note_on_c, 0, 78, 0
4, 668657, Note_on_c, 0, 76, 95
4, 668726, Note_on_c, 0, 77, 109
4, 668777, Note_on_c, 0, 76, 0
4, 668820, Note_on_c, 0, 76, 111
4, 668844, Note_on_c, 0, 77, 0
4, 668896, Note_on_c, 0, 77, 96
4, 668940, Note_on_c, 0, 76, 0
4, 668961, Note_on_c, 0, 76, 100
4, 669016, Note_on_c, 0, 77, 0
4, 669050, Note_on_c, 0, 77, 102
4, 669079, Note_on_c, 0, 76, 0
4, 669128, Note_on_c, 0, 75, 105
4, 669170, Note_on_c, 0, 77, 0
4, 669270, Note_on_c, 0, 75, 0
4, 669620, Note_on_c, 0, 77, 102
4, 669702, Note_on_c, 0, 78, 110
4, 669740, Note_on_c, 0, 77, 0
4, 669782, Note_on_c, 0, 77, 106
4, 669820, Note_on_c, 0, 78, 0
4, 669865, Note_on_c, 0, 78, 94
4, 669902, Note_on_c, 0, 77, 0
4, 669927, Note_on_c, 0, 77, 98
4, 669985, Note_on_c, 0, 78, 0
4, 669999, Note_on_c, 0, 78, 110
4, 670045, Note_on_c, 0, 77, 0
4, 670083, Note_on_c, 0, 75, 95
4, 670119, Note_on_c, 0, 78, 0
4, 670225, Note_on_c, 0, 75, 0
4, 670571, Note_on_c, 0, 73, 92
4, 670665, Note_on_c, 0, 74, 97
4, 670691, Note_on_c, 0, 73, 0
4, 670732, Note_on_c, 0, 73, 94
4, 670783, Note_on_c, 0, 74, 0
4, 670824, Note_on_c, 0, 74, 97
4, 670852, Note_on_c, 0, 73, 0
4, 670888, Note_on_c, 0, 73, 91
4, 670944, Note_on_c, 0, 74, 0
4, 670964, Note_on_c, 0, 74, 99
4, 671006, Note_on_c, 0, 73, 0
4, 671046, Note_on_c, 0, 71, 98
4, 671084, Note_on_c, 0, 74, 0
4, 671188, Note_on_c, 0, 71, 0
4, 671520, Note_on_c, 0, 79, 92
4, 671608, Note_on_c, 0, 80, 96
4, 671640, Note_on_c, 0, 79, 0
4, 671686, Note_on_c, 0, 79, 108
4, 671726, Note_on_c, 0, 80, 0
4, 671779, Note_on_c, 0, 80, 99
4, 671806, Note_on_c, 0, 79, 0
4, 671853, Note_on_c, 0, 79, 104
4, 671899, Note_on_c, 0, 80, 0
4, 671943, Note_on_c, 0, 80, 96
4, 671971, Note_on_c, 0, 79, 0
4, 672017, Note_on_c, 0, 78, 111
4, 672063, Note_on_c, 0, 80, 0
4, 672159, Note_on_c, 0, 78, 0
4, 672488, Note_on_c, 0, 76, 101
4, 672565, Note_on_c, 0, 77, 98
4, 672608, Note_on_c, 0, 76, 0
4, 672653, Note_on_c, 0, 76, 106
4, 672683, Note_on_c, 0, 77, 0
4, 672734, Note_on_c, 0, 77, 96
4, 672773, Note_on_c, 0, 76, 0
4, 672824, Note_on_c, 0, 76, 96
4, 672854, Note_on_c, 0, 77, 0
4, 672894, Note_on_c, 0, 77, 101
4, 672942, Note_on_c, 0, 76, 0
4, 672977, Note_on_c, 0, 75, 102
4, 673014, Note_on_c, 0, 77, 0
4, 673119, Note_on_c, 0, 75, 0
4, 673450, Note_on_c, 0, 77, 97
4, 673532, Note_on_c, 0, 78, 93
4, 673570, Note_on_c, 0, 77, 0
4, 673609, Note_on_c, 0, 77, 102
4, 673650, Note_on_c, 0, 78, 0
4, 673689, Note_on_c, 0, 78, 110
4, 673729, Note_on_c, 0, 77, 0
4, 673782, Note_on_c, 0, 77, 106
4, 673809, Note_on_c, 0, 78, 0
4, 673841, Note_on_c, 0, 78, 92
4, 673900, Note_on_c, 0, 77, 0
4, 673941, Note_on_c, 0, 75, 91
4, 673961, Note_on_c, 0, 78, 0
4, 674083, Note_on_c, 0, 75, 0
4, 674403, Note_on_c, 0, 73, 98
4, 674488, Note_on_c, 0, 74, 95
4, 674523, Note_on_c, 0, 73, 0
4, 674578, Note_on_c, 0, 73, 98
4, 674606, Note_on_c, 0, 74, 0
4, 674659, Note_on_c, 0, 74, 92
4, 674698, Note_on_c, 0, 73, 0
4, 674730, Note_on_c, 0, 73, 105
4, 674779, Note_on_c, 0, 74, 0
4, 674799, Note_on_c, 0, 74, 110
4, 674848, Note_on_c, 0, 73, 0
4, 674902, Note_on_c, 0, 71, 97
4, 674919, Note_on_c, 0, 74, 0
4, 675044, Note_on_c, 0, 71, 0
4, 675380, Note_on_c, 0, 79, 104
4, 675453, Note_on_c, 0, 80, 94
4, 675500, Note_on_c, 0, 79, 0
4, 675522, Note_on_c, 0, 79, 110
4, 675571, Note_on_c, 0, 80, 0
4, 675616, Note_on_c, 0, 80, 108
4, 675642, Note_on_c, 0, 79, 0
4, 675685, Note_on_c, 0, 79, 101
4, 675736, Note_on_c, 0, 80, 0
4, 675773, Note_on_c, 0, 80, 111
4, 675803, Note_on_c, 0, 79, 0
4, 675854, Note_on_c, 0, 78, 94
4, 675893, Note_on_c, 0, 80, 0
4, 675996, Note_on_c, 0, 78, 0
4, 676320, Note_on_c, 0, 76, 91
4, 676402, Note_on_c, 0, 77, 99
4, 676440, Note_on_c, 0, 76, 0
4, 676480, Note_on_c, 0, 76, 99
4, 676520, Note_on_c, 0, 77, 0
4, 676567, Note_on_c, 0, 77, 105
4, 676600, Note_on_c, 0, 76, 0
4, 676657, Note_on_c, 0, 76, 92
4, 676687, Note_on_c, 0, 77, 0
4, 676732, Note_on_c, 0, 77, 91
4, 676775, Note_on_c, 0, 76, 0
4, 676818, Note_on_c, 0, 75, 104
4, 676852, Note_on_c, 0, 77, 0
4, 676960, Note_on_c, 0, 75, 0
4, 676960, End_track
5, 0, Start_track
5, 0, Title_t, "Flauto contralto"
5, 0, MIDI_port, 0
5, 0, Program_c, 0, 73
5, 28800, Note_on_c, 0, 57, 58
5, 28839, Note_on_c, 0, 59, 59
5, 28858, Note_on_c, 0, 57, 0
5, 28878, Note_on_c, 0, 57, 54
5, 28897, Note_on_c, 0, 59, 0
5, 28918, Note_on_c, 0, 59, 50
5, 28936, Note_on_c, 0, 57, 0
5, 28957, Note_on_c, 0, 57, 49
5, 28976, Note_on_c, 0, 59, 0
5, 28996, Note_on_c, 0, 59, 56
5, 29015, Note_on_c, 0, 57, 0
5, 29036, Note_on_c, 0, 57, 40
5, 29054, Note_on_c, 0, 59, 0
5, 29075, Note_on_c, 0, 59, 59
5, 29094, Note_on_c, 0, 57, 0
5, 29115, Note_on_c, 0, 57, 45
5, 29133, Note_on_c, 0, 59, 0
5, 29154, Note_on_c, 0, 59, 55
5, 29173, Note_on_c, 0, 57, 0
5, 29193, Note_on_c, 0, 57, 40
5, 29212, Note_on_c, 0, 59, 0
5, 29233, Note_on_c, 0, 59, 44
5, 29251, Note_on_c, 0, 57, 0
5, 29272, Note_on_c, 0, 57, 57
5, 29291, Note_on_c, 0, 59, 0
5, 29311, Note_on_c, 0, 59, 56
5, 29330, Note_on_c, 0, 57, 0
5, 29351, Note_on_c, 0, 57, 40
5, 29369, Note_on_c, 0, 59, 0
5, 29390, Note_on_c, 0, 59, 52
5, 29409, Note_on_c, 0, 57, 0
5, 29430, Note_on_c, 0, 57, 54
5, 29448, Note_on_c, 0, 59, 0
5, 29469, Note_on_c, 0, 59, 47
5, 29488, Note_on_c, 0, 57, 0
5, 29508, Note_on_c, 0, 57, 51
5, 29527, Note_on_c, 0, 59, 0
5, 29548, Note_on_c, 0, 59, 52
5, 29566, Note_on_c, 0, 57, 0
5, 29587, Note_on_c, 0, 57, 54
5, 29606, Note_on_c, 0, 59, 0
5, 29626, Note_on_c, 0, 59, 49
5, 29645, Note_on_c, 0, 57, 0
5, 29666, Note_on_c, 0, 57, 39
5, 29684, Note_on_c, 0, 59, 0
5, 29705, Note_on_c, 0, 59, 48
5, 29724, Note_on_c, 0, 57, 0
5, 29745, Note_on_c, 0, 57, 57
5, 29763, Note_on_c, 0, 59, 0
5, 29784, Note_on_c, 0, 59, 49
5, 29803, Note_on_c, 0, 57, 0
5, 29823, Note_on_c, 0, 57, 47
5, 29842, Note_on_c, 0, 59, 0
5, 29863, Note_on_c, 0, 59, 58
5, 29881, Note_on_c, 0, 57, 0
5, 29902, Note_on_c, 0, 57, 39
5, 29921, Note_on_c, 0, 59, 0
5, 29941, Note_on_c, 0, 59, 53
5, 29960, Note_on_c, 0, 57, 0
5, 29981, Note_on_c, 0, 57, 57
5, 29999, Note_on_c, 0, 59, 0
5, 30020, Note_on_c, 0, 59, 57
5, 30039, Note_on_c, 0, 57, 0
5, 30060, Note_on_c, 0, 57, 58
5, 30078, Note_on_c, 0, 59, 0
5, 30099, Note_on_c, 0, 59, 46
5, 30118, Note_on_c, 0, 57, 0
5, 30138, Note_on_c, 0, 57, 54
5, 30157, Note_on_c, 0, 59, 0
5, 30178, Note_on_c, 0, 59, 44
5, 30196, Note_on_c, 0, 57, 0
5, 30217, Note_on_c, 0, 57, 41
5, 30236, Note_on_c, 0, 59, 0
5, 30256, Note_on_c, 0, 59, 47
5, 30275, Note_on_c, 0, 57, 0
5, 30296, Note_on_c, 0, 57, 45
5, 30314, Note_on_c, 0, 59, 0
5, 30335, Note_on_c, 0, 59, 47
5, 30354, Note_on_c, 0, 57, 0
5, 30375, Note_on_c, 0, 57, 46
5, 30393, Note_on_c, 0, 59, 0
5, 30414, Note_on_c, 0, 59, 41
5, 30433, Note_on_c, 0, 57, 0
5, 30453, Note_on_c, 0, 57, 41
5, 30472, Note_on_c, 0, 59, 0
5, 30493, Note_on_c, 0, 59, 51
5, 30511, Note_on_c, 0, 57, 0
5, 30532, Note_on_c, 0, 57, 45
5, 30551, Note_on_c, 0, 59, 0
5, 30571, Note_on_c, 0, 59, 45
5, 30590, Note_on_c, 0, 57, 0
5, 30611, Note_on_c, 0, 57, 53
5, 30629, Note_on_c, 0, 59, 0
5, 30650, Note_on_c, 0, 59, 46
5, 30669, Note_on_c, 0, 57, 0
5, 30690, Note_on_c, 0, 57, 45
5, 30708, Note_on_c, 0, 59, 0
5, 30729, Note_on_c, 0, 59, 41
5, 30757, Note_on_c, 0, 57, 0
5, 30768, Note_on_c, 0, 57, 41
5, 30787, Note_on_c, 0, 59, 0
5, 30808, Note_on_c, 0, 59, 56
5, 30826, Note_on_c, 0, 57, 0
5, 30847, Note_on_c, 0, 57, 50
5, 30866, Note_on_c, 0, 59, 0
5, 30886, Note_on_c, 0, 59, 42
5, 30905, Note_on_c, 0, 57, 0
5, 30926, Note_on_c, 0, 57, 56
5, 30944, Note_on_c, 0, 59, 0
5, 30965, Note_on_c, 0, 59, 55
5, 30984, Note_on_c, 0, 57, 0
5, 31005, Note_on_c, 0, 57, 49
5, 31023, Note_on_c, 0, 59, 0
5, 31044, Note_on_c, 0, 59, 39
5, 31063, Note_on_c, 0, 57, 0
5, 31083, Note_on_c, 0, 57, 58
5, 31102, Note_on_c, 0, 59, 0
5, 31123, Note_on_c, 0, 59, 42
5, 31141, Note_on_c, 0, 57, 0
5, 31162, Note_on_c, 0, 57, 52
5, 31181, Note_on_c, 0, 59, 0
5, 31201, Note_on_c, 0, 59, 41
5, 31220, Note_on_c, 0, 57, 0
5, 31241, Note_on_c, 0, 57, 49
5, 31259, Note_on_c, 0, 59, 0
5, 31280, Note_on_c, 0, 59, 52
5, 31299, Note_on_c, 0, 57, 0
5, 31320, Note_on_c, 0, 57, 47
5, 31338, Note_on_c, 0, 59, 0
5, 31359, Note_on_c, 0, 59, 48
5, 31378, Note_on_c, 0, 57, 0
5, 31398, Note_on_c, 0, 57, 53
5, 31417, Note_on_c, 0, 59, 0
5, 31438, Note_on_c, 0, 59, 43
5, 31456, Note_on_c, 0, 57, 0
5, 31477, Note_on_c, 0, 57, 47
5, 31496, Note_on_c, 0, 59, 0
5, 31516, Note_on_c, 0, 59, 47
5, 31535, Note_on_c, 0, 57, 0
5, 31556, Note_on_c, 0, 57, 43
5, 31574, Note_on_c, 0, 59, 0
5, 31595, Note_on_c, 0, 59, 58
5, 31614, Note_on_c, 0, 57, 0
5, 31635, Note_on_c, 0, 57, 52
5, 31653, Note_on_c, 0, 59, 0
5, 31693, Note_on_c, 0, 57, 0
5, 31703, Note_on_c, 0, 62, 91
5, 31853, Note_on_c, 0, 64, 81
5, 31862, Note_on_c, 0, 62, 0
5, 31970, Note_on_c, 0, 71, 78
5, 31983, Note_on_c, 0, 64, 0
5, 32017, Note_on_c, 0, 67, 79
5, 32044, Note_on_c, 0, 71, 0
5, 32161, Note_on_c, 0, 65, 98
5, 32176, Note_on_c, 0, 67, 0
5, 32401, Note_on_c, 0, 65, 0
5, 32408, Note_on_c, 0, 64, 96
5, 32645, Note_on_c, 0, 62, 92
5, 32648, Note_on_c, 0, 64, 0
5, 32820, Note_on_c, 0, 59, 92
5, 32825, Note_on_c, 0, 62, 0
5, 32880, Note_on_c, 0, 62, 91
5, 32892, Note_on_c, 0, 59, 0
5, 32919, Note_on_c, 0, 59, 78
5, 32927, Note_on_c, 0, 62, 0
5, 32960, Note_on_c, 0, 62, 92
5, 32967, Note_on_c, 0, 59, 0
5, 33000, Note_on_c, 0, 59, 86
5, 33007, Note_on_c, 0, 62, 0
5, 33039, Note_on_c, 0, 62, 96
5, 33047, Note_on_c, 0, 59, 0
5, 33080, Note_on_c, 0, 59, 88
5, 33087, Note_on_c, 0, 62, 0
5, 33124, Note_on_c, 0, 62, 98
5, 33127, Note_on_c, 0, 59, 0
5, 33364, Note_on_c, 0, 62, 0
5, 33600, Note_on_c, 0, 59, 79
5, 33639, Note_on_c, 0, 61, 80
5, 33647, Note_on_c, 0, 59, 0
5, 33680, Note_on_c, 0, 64, 82
5, 33687, Note_on_c, 0, 61, 0
5, 33720, Note_on_c, 0, 62, 93
5, 33727, Note_on_c, 0, 64, 0
5, 33759, Note_on_c, 0, 61, 89
5, 33767, Note_on_c, 0, 62, 0
5, 33800, Note_on_c, 0, 59, 93
5, 33807, Note_on_c, 0, 61, 0
5, 33847, Note_on_c, 0, 59, 0
5, 33865, Note_on_c, 0, 61, 82
5, 33972, Note_on_c, 0, 57, 89
5, 33985, Note_on_c, 0, 61, 0
5, 34083, Note_on_c, 0, 59, 90
5, 34092, Note_on_c, 0, 57, 0
5, 35166, Note_on_c, 0, 59, 0
5, 35204, Note_on_c, 0, 59, 83
5, 35348, Note_on_c, 0, 58, 78
5, 35364, Note_on_c, 0, 59, 0
5, 35532, Note_on_c, 0, 57, 87
5, 35536, Note_on_c, 0, 58, 0
5, 35689, Note_on_c, 0, 58, 89
5, 35691, Note_on_c, 0, 57, 0
5, 35844, Note_on_c, 0, 59, 89
5, 35849, Note_on_c, 0, 58, 0
5, 36003, Note_on_c, 0, 59, 0
5, 36011, Note_on_c, 0, 60, 80
5, 36170, Note_on_c, 0, 60, 0
5, 36177, Note_on_c, 0, 59, 91
5, 36335, Note_on_c, 0, 58, 93
5, 36337, Note_on_c, 0, 59, 0
5, 36488, Note_on_c, 0, 57, 82
5, 36494, Note_on_c, 0, 58, 0
5, 36645, Note_on_c, 0, 58, 85
5, 36647, Note_on_c, 0, 57, 0
5, 36802, Note_on_c, 0, 59, 95
5, 36805, Note_on_c, 0, 58, 0
5, 36961, Note_on_c, 0, 59, 0
5, 36968, Note_on_c, 0, 60, 85
5, 37127, Note_on_c, 0, 60, 0
5, 37134, Note_on_c, 0, 59, 78
5, 37291, Note_on_c, 0, 58, 98
5, 37294, Note_on_c, 0, 59, 0
5, 37440, Note_on_c, 0, 57, 78
5, 37450, Note_on_c, 0, 58, 0
5, 37680, Note_on_c, 0, 57, 0
5, 37681, Note_on_c, 0, 58, 93
5, 37903, Note_on_c, 0, 57, 94
5, 37921, Note_on_c, 0, 58, 0
5, 38565, Note_on_c, 0, 58, 84
5, 38579, Note_on_c, 0, 57, 0
5, 38725, Note_on_c, 0, 58, 0
5, 38744, Note_on_c, 0, 59, 95
5, 38900, Note_on_c, 0, 57, 87
5, 38903, Note_on_c, 0, 59, 0
5, 39124, Note_on_c, 0, 58, 87
5, 39140, Note_on_c, 0, 57, 0
5, 39364, Note_on_c, 0, 58, 0
5, 39378, Note_on_c, 0, 59, 98
5, 39618, Note_on_c, 0, 59, 0
5, 39619, Note_on_c, 0, 60, 92
5, 39847, Note_on_c, 0, 59, 81
5, 39859, Note_on_c, 0, 60, 0
5, 40084, Note_on_c, 0, 58, 89
5, 40087, Note_on_c, 0, 59, 0
5, 40324, Note_on_c, 0, 58, 0
5, 40330, Note_on_c, 0, 57, 92
5, 40570, Note_on_c, 0, 57, 0
5, 40576, Note_on_c, 0, 58, 87
5, 40816, Note_on_c, 0, 58, 0
5, 40822, Note_on_c, 0, 57, 87
5, 42022, Note_on_c, 0, 57, 0
5, 42210, Note_on_c, 0, 64, 78
5, 42245, Note_on_c, 0, 58, 94
5, 42255, Note_on_c, 0, 64, 0
5, 42404, Note_on_c, 0, 58, 0
5, 42530, Note_on_c, 0, 64, 85
5, 42574, Note_on_c, 0, 58, 78
5, 42575, Note_on_c, 0, 64, 0
5, 42733, Note_on_c, 0, 58, 0
5, 42849, Note_on_c, 0, 64, 90
5, 42894, Note_on_c, 0, 64, 0
5, 42896, Note_on_c, 0, 58, 87
5, 43056, Note_on_c, 0, 58, 0
5, 43170, Note_on_c, 0, 64, 95
5, 43215, Note_on_c, 0, 64, 0
5, 43215, Note_on_c, 0, 58, 92
5, 43374, Note_on_c, 0, 58, 0
5, 43490, Note_on_c, 0, 64, 96
5, 43535, Note_on_c, 0, 64, 0
5, 43535, Note_on_c, 0, 58, 90
5, 43694, Note_on_c, 0, 58, 0
5, 43809, Note_on_c, 0, 64, 81
5, 43848, Note_on_c, 0, 58, 91
5, 43854, Note_on_c, 0, 64, 0
5, 44008, Note_on_c, 0, 58, 0
5, 44130, Note_on_c, 0, 64, 79
5, 44169, Note_on_c, 0, 58, 78
5, 44175, Note_on_c, 0, 64, 0
5, 44328, Note_on_c, 0, 58, 0
5, 44450, Note_on_c, 0, 64, 92
5, 44495, Note_on_c, 0, 64, 0
5, 44502, Note_on_c, 0, 58, 84
5, 44661, Note_on_c, 0, 58, 0
5, 44769, Note_on_c, 0, 64, 84
5, 44799, Note_on_c, 0, 58, 92
5, 44814, Note_on_c, 0, 64, 0
5, 44959, Note_on_c, 0, 58, 0
5, 46050, Note_on_c, 0, 64, 80
5, 46080, Note_on_c, 0, 64, 0
5, 46087, Note_on_c, 0, 58, 91
5, 46246, Note_on_c, 0, 58, 0
5, 46370, Note_on_c, 0, 64, 79
5, 46400, Note_on_c, 0, 64, 0
5, 46412, Note_on_c, 0, 58, 90
5, 46571, Note_on_c, 0, 58, 0
5, 46689, Note_on_c, 0, 64, 83
5, 46719, Note_on_c, 0, 64, 0
5, 46725, Note_on_c, 0, 58, 92
5, 46885, Note_on_c, 0, 58, 0
5, 48962, Note_on_c, 0, 62, 88
5, 50081, Note_on_c, 0, 62, 0
5, 50084, Note_on_c, 0, 64, 90
5, 50241, Note_on_c, 0, 65, 81
5, 50244, Note_on_c, 0, 64, 0
5, 50370, Note_on_c, 0, 69, 96
5, 50400, Note_on_c, 0, 65, 0
5, 50400, Note_on_c, 0, 69, 0
5, 50410, Note_on_c, 0, 67, 83
5, 50486, Note_on_c, 0, 65, 84
5, 50490, Note_on_c, 0, 67, 0
5, 50565, Note_on_c, 0, 65, 0
5, 50576, Note_on_c, 0, 64, 84
5, 50648, Note_on_c, 0, 62, 81
5, 50656, Note_on_c, 0, 64, 0
5, 50728, Note_on_c, 0, 62, 0
5, 50742, Note_on_c, 0, 64, 93
5, 50805, Note_on_c, 0, 62, 93
5, 50821, Note_on_c, 0, 64, 0
5, 50885, Note_on_c, 0, 62, 0
5, 50899, Note_on_c, 0, 62, 86
5, 51371, Note_on_c, 0, 64, 89
5, 51379, Note_on_c, 0, 62, 0
5, 51606, Note_on_c, 0, 65, 79
5, 51611, Note_on_c, 0, 64, 0
5, 51846, Note_on_c, 0, 65, 0
5, 51857, Note_on_c, 0, 64, 94
5, 52097, Note_on_c, 0, 64, 0
5, 52102, Note_on_c, 0, 66, 82
5, 52342, Note_on_c, 0, 66, 0
5, 52342, Note_on_c, 0, 67, 85
5, 52422, Note_on_c, 0, 67, 0
5, 52424, Note_on_c, 0, 66, 79
5, 52501, Note_on_c, 0, 64, 83
5, 52503, Note_on_c, 0, 66, 0
5, 52560, Note_on_c, 0, 66, 97
5, 52581, Note_on_c, 0, 64, 0
5, 52620, Note_on_c, 0, 66, 0
5, 52620, Note_on_c, 0, 62, 91
5, 52680, Note_on_c, 0, 62, 0
5, 52680, Note_on_c, 0, 64, 97
5, 52740, Note_on_c, 0, 64, 0
5, 52740, Note_on_c, 0, 60, 79
5, 52800, Note_on_c, 0, 60, 0
5, 52800, Note_on_c, 0, 62, 86
5, 52860, Note_on_c, 0, 62, 0
5, 52860, Note_on_c, 0, 64, 80
5, 52920, Note_on_c, 0, 64, 0
5, 52920, Note_on_c, 0, 69, 83
5, 52980, Note_on_c, 0, 69, 0
5, 52980, Note_on_c, 0, 67, 96
5, 53040, Note_on_c, 0, 67, 0
5, 53040, Note_on_c, 0, 66, 95
5, 53100, Note_on_c, 0, 66, 0
5, 53100, Note_on_c, 0, 64, 83
5, 53160, Note_on_c, 0, 64, 0
5, 53160, Note_on_c, 0, 66, 80
5, 53220, Note_on_c, 0, 66, 0
5, 53220, Note_on_c, 0, 62, 88
5, 53280, Note_on_c, 0, 62, 0
5, 53280, Note_on_c, 0, 64, 81
5, 53340, Note_on_c, 0, 64, 0
5, 53340, Note_on_c, 0, 66, 85
5, 53400, Note_on_c, 0, 66, 0
5, 53400, Note_on_c, 0, 69, 97
5, 53460, Note_on_c, 0, 69, 0
5, 53460, Note_on_c, 0, 67, 98
5, 53520, Note_on_c, 0, 67, 0
5, 53520, Note_on_c, 0, 66, 87
5, 53580, Note_on_c, 0, 66, 0
5, 53580, Note_on_c, 0, 64, 78
5, 53640, Note_on_c, 0, 64, 0
5, 53640, Note_on_c, 0, 66, 90
5, 53700, Note_on_c, 0, 66, 0
5, 53700, Note_on_c, 0, 62, 95
5, 53760, Note_on_c, 0, 62, 0
5, 53760, Note_on_c, 0, 64, 80
5, 53820, Note_on_c, 0, 64, 0
5, 53820, Note_on_c, 0, 66, 80
5, 53880, Note_on_c, 0, 66, 0
5, 53880, Note_on_c, 0, 69, 81
5, 53940, Note_on_c, 0, 69, 0
5, 53940, Note_on_c, 0, 67, 91
5, 54000, Note_on_c, 0, 67, 0
5, 54000, Note_on_c, 0, 66, 95
5, 54060, Note_on_c, 0, 66, 0
5, 54060, Note_on_c, 0, 64, 96
5, 54120, Note_on_c, 0, 64, 0
5, 54120, Note_on_c, 0, 66, 93
5, 54180, Note_on_c, 0, 66, 0
5, 54180, Note_on_c, 0, 62, 79
5, 54240, Note_on_c, 0, 62, 0
5, 54240, Note_on_c, 0, 64, 82
5, 54287, Note_on_c, 0, 64, 0
5, 54287, Note_on_c, 0, 66, 89
5, 54335, Note_on_c, 0, 66, 0
5, 54335, Note_on_c, 0, 69, 85
5, 54382, Note_on_c, 0, 69, 0
5, 54383, Note_on_c, 0, 67, 82
5, 54431, Note_on_c, 0, 67, 0
5, 54431, Note_on_c, 0, 66, 97
5, 54478, Note_on_c, 0, 66, 0
5, 54480, Note_on_c, 0, 64, 80
5, 54527, Note_on_c, 0, 64, 0
5, 54527, Note_on_c, 0, 66, 82
5, 54575, Note_on_c, 0, 66, 0
5, 54575, Note_on_c, 0, 62, 91
5, 54622, Note_on_c, 0, 62, 0
5, 54623, Note_on_c, 0, 64, 93
5, 54671, Note_on_c, 0, 64, 0
5, 54671, Note_on_c, 0, 60, 79
5, 54718, Note_on_c, 0, 60, 0
5, 54720, Note_on_c, 0, 62, 79
5, 54767, Note_on_c, 0, 62, 0
5, 54767, Note_on_c, 0, 64, 91
5, 54815, Note_on_c, 0, 64, 0
5, 54815, Note_on_c, 0, 66, 79
5, 54862, Note_on_c, 0, 66, 0
5, 54863, Note_on_c, 0, 69, 93
5, 54911, Note_on_c, 0, 69, 0
5, 54911, Note_on_c, 0, 67, 98
5, 54958, Note_on_c, 0, 67, 0
5, 54960, Note_on_c, 0, 66, 90
5, 55007, Note_on_c, 0, 66, 0
5, 55007, Note_on_c, 0, 64, 94
5, 55055, Note_on_c, 0, 64, 0
5, 55055, Note_on_c, 0, 62, 96
5, 55102, Note_on_c, 0, 62, 0
5, 55103, Note_on_c, 0, 64, 83
5, 55151, Note_on_c, 0, 64, 0
5, 55151, Note_on_c, 0, 60, 94
5, 55198, Note_on_c, 0, 60, 0
5, 55200, Note_on_c, 0, 62, 81
5, 55247, Note_on_c, 0, 62, 0
5, 55320, Note_on_c, 0, 64, 87
5, 55367, Note_on_c, 0, 64, 0
5, 55440, Note_on_c, 0, 66, 87
5, 55457, Note_on_c, 0, 66, 0
5, 55530, Note_on_c, 0, 69, 78
5, 55560, Note_on_c, 0, 69, 0
5, 55560, Note_on_c, 0, 67, 87
5, 55599, Note_on_c, 0, 67, 0
5, 55599, Note_on_c, 0, 66, 95
5, 55639, Note_on_c, 0, 66, 0
5, 55640, Note_on_c, 0, 64, 81
5, 55679, Note_on_c, 0, 64, 0
5, 55680, Note_on_c, 0, 66, 89
5, 55715, Note_on_c, 0, 67, 93
5, 55732, Note_on_c, 0, 66, 0
5, 55750, Note_on_c, 0, 66, 87
5, 55767, Note_on_c, 0, 67, 0
5, 55785, Note_on_c, 0, 67, 85
5, 55802, Note_on_c, 0, 66, 0
5, 55820, Note_on_c, 0, 66, 89
5, 55837, Note_on_c, 0, 67, 0
5, 55855, Note_on_c, 0, 67, 86
5, 55872, Note_on_c, 0, 66, 0
5, 55890, Note_on_c, 0, 66, 78
5, 55907, Note_on_c, 0, 67, 0
5, 55925, Note_on_c, 0, 67, 98
5, 55942, Note_on_c, 0, 66, 0
5, 55961, Note_on_c, 0, 66, 95
5, 55977, Note_on_c, 0, 67, 0
5, 56013, Note_on_c, 0, 66, 0
5, 56040, Note_on_c, 0, 62, 88
5, 56079, Note_on_c, 0, 62, 0
5, 56079, Note_on_c, 0, 64, 85
5, 56119, Note_on_c, 0, 64, 0
5, 56120, Note_on_c, 0, 60, 88
5, 56159, Note_on_c, 0, 60, 0
5, 56160, Note_on_c, 0, 62, 89
5, 56196, Note_on_c, 0, 64, 78
5, 56214, Note_on_c, 0, 62, 0
5, 56233, Note_on_c, 0, 62, 84
5, 56250, Note_on_c, 0, 64, 0
5, 56269, Note_on_c, 0, 64, 92
5, 56287, Note_on_c, 0, 62, 0
5, 56306, Note_on_c, 0, 62, 88
5, 56323, Note_on_c, 0, 64, 0
5, 56342, Note_on_c, 0, 64, 84
5, 56360, Note_on_c, 0, 62, 0
5, 56379, Note_on_c, 0, 62, 86
5, 56396, Note_on_c, 0, 64, 0
5, 56415, Note_on_c, 0, 64, 88
5, 56433, Note_on_c, 0, 62, 0
5, 56452, Note_on_c, 0, 62, 81
5, 56469, Note_on_c, 0, 64, 0
5, 56488, Note_on_c, 0, 64, 94
5, 56506, Note_on_c, 0, 62, 0
5, 56525, Note_on_c, 0, 62, 79
5, 56542, Note_on_c, 0, 64, 0
5, 56561, Note_on_c, 0, 64, 97
5, 56579, Note_on_c, 0, 62, 0
5, 56598, Note_on_c, 0, 62, 81
5, 56615, Note_on_c, 0, 64, 0
5, 56634, Note_on_c, 0, 62, 0
5, 56640, Note_on_c, 0, 62, 82
5, 56687, Note_on_c, 0, 62, 0
5, 56687, Note_on_c, 0, 64, 92
5, 56735, Note_on_c, 0, 64, 0
5, 56735, Note_on_c, 0, 66, 93
5, 56782, Note_on_c, 0, 66, 0
5, 56783, Note_on_c, 0, 69, 78
5, 56831, Note_on_c, 0, 69, 0
5, 56831, Note_on_c, 0, 67, 93
5, 56878, Note_on_c, 0, 67, 0
5, 56880, Note_on_c, 0, 66, 92
5, 56927, Note_on_c, 0, 66, 0
5, 56927, Note_on_c, 0, 64, 82
5, 56975, Note_on_c, 0, 64, 0
5, 56975, Note_on_c, 0, 62, 84
5, 57022, Note_on_c, 0, 62, 0
5, 57023, Note_on_c, 0, 64, 78
5, 57071, Note_on_c, 0, 64, 0
5, 57071, Note_on_c, 0, 60, 92
5, 57118, Note_on_c, 0, 60, 0
5, 57120, Note_on_c, 0, 62, 89
5, 57156, Note_on_c, 0, 64, 78
5, 57174, Note_on_c, 0, 62, 0
5, 57193, Note_on_c, 0, 62, 83
5, 57210, Note_on_c, 0, 64, 0
5, 57229, Note_on_c, 0, 64, 78
5, 57247, Note_on_c, 0, 62, 0
5, 57266, Note_on_c, 0, 62, 82
5, 57283, Note_on_c, 0, 64, 0
5, 57302, Note_on_c, 0, 64, 94
5, 57320, Note_on_c, 0, 62, 0
5, 57339, Note_on_c, 0, 62, 86
5, 57356, Note_on_c, 0, 64, 0
5, 57375, Note_on_c, 0, 64, 93
5, 57393, Note_on_c, 0, 62, 0
5, 57412, Note_on_c, 0, 62, 91
5, 57429, Note_on_c, 0, 64, 0
5, 57448, Note_on_c, 0, 64, 87
5, 57466, Note_on_c, 0, 62, 0
5, 57485, Note_on_c, 0, 62, 78
5, 57502, Note_on_c, 0, 64, 0
5, 57521, Note_on_c, 0, 64, 87
5, 57539, Note_on_c, 0, 62, 0
5, 57558, Note_on_c, 0, 62, 85
5, 57575, Note_on_c, 0, 64, 0
5, 57594, Note_on_c, 0, 62, 0
5, 57600, Note_on_c, 0, 62, 92
5, 57647, Note_on_c, 0, 62, 0
5, 57647, Note_on_c, 0, 64, 98
5, 57695, Note_on_c, 0, 64, 0
5, 57695, Note_on_c, 0, 66, 85
5, 57742, Note_on_c, 0, 66, 0
5, 57743, Note_on_c, 0, 69, 93
5, 57791, Note_on_c, 0, 69, 0
5, 57791, Note_on_c, 0, 67, 94
5, 57838, Note_on_c, 0, 67, 0
5, 57840, Note_on_c, 0, 66, 79
5, 57887, Note_on_c, 0, 66, 0
5, 57887, Note_on_c, 0, 64, 85
5, 57935, Note_on_c, 0, 64, 0
5, 57935, Note_on_c, 0, 62, 89
5, 57982, Note_on_c, 0, 62, 0
5, 57983, Note_on_c, 0, 64, 84
5, 58031, Note_on_c, 0, 64, 0
5, 58031, Note_on_c, 0, 60, 92
5, 58078, Note_on_c, 0, 60, 0
5, 58080, Note_on_c, 0, 62, 81
5, 58116, Note_on_c, 0, 64, 97
5, 58134, Note_on_c, 0, 62, 0
5, 58153, Note_on_c, 0, 62, 91
5, 58170, Note_on_c, 0, 64, 0
5, 58189, Note_on_c, 0, 64, 78
5, 58207, Note_on_c, 0, 62, 0
5, 58226, Note_on_c, 0, 62, 84
5, 58243, Note_on_c, 0, 64, 0
5, 58262, Note_on_c, 0, 64, 85
5, 58280, Note_on_c, 0, 62, 0
5, 58299, Note_on_c, 0, 62, 85
5, 58316, Note_on_c, 0, 64, 0
5, 58335, Note_on_c, 0, 64, 97
5, 58353, Note_on_c, 0, 62, 0
5, 58372, Note_on_c, 0, 62, 88
5, 58389, Note_on_c, 0, 64, 0
5, 58408, Note_on_c, 0, 64, 83
5, 58426, Note_on_c, 0, 62, 0
5, 58445, Note_on_c, 0, 62, 81
5, 58462, Note_on_c, 0, 64, 0
5, 58481, Note_on_c, 0, 64, 88
5, 58499, Note_on_c, 0, 62, 0
5, 58518, Note_on_c, 0, 62, 87
5, 58535, Note_on_c, 0, 64, 0
5, 58554, Note_on_c, 0, 62, 0
5, 58560, Note_on_c, 0, 62, 98
5, 58607, Note_on_c, 0, 62, 0
5, 58607, Note_on_c, 0, 64, 83
5, 58655, Note_on_c, 0, 64, 0
5, 58655, Note_on_c, 0, 66, 85
5, 58702, Note_on_c, 0, 66, 0
5, 58703, Note_on_c, 0, 69, 96
5, 58751, Note_on_c, 0, 69, 0
5, 58751, Note_on_c, 0, 67, 94
5, 58798, Note_on_c, 0, 67, 0
5, 58800, Note_on_c, 0, 66, 84
5, 58847, Note_on_c, 0, 66, 0
5, 58847, Note_on_c, 0, 64, 94
5, 58895, Note_on_c, 0, 64, 0
5, 58895, Note_on_c, 0, 62, 78
5, 58942, Note_on_c, 0, 62, 0
5, 58943, Note_on_c, 0, 64, 98
5, 58991, Note_on_c, 0, 64, 0
5, 58991, Note_on_c, 0, 60, 96
5, 59038, Note_on_c, 0, 60, 0
5, 59040, Note_on_c, 0, 62, 79
5, 59087, Note_on_c, 0, 62, 0
5, 59160, Note_on_c, 0, 64, 97
5, 59207, Note_on_c, 0, 64, 0
5, 59280, Note_on_c, 0, 66, 85
5, 59297, Note_on_c, 0, 66, 0
5, 59370, Note_on_c, 0, 69, 84
5, 59400, Note_on_c, 0, 69, 0
5, 59400, Note_on_c, 0, 67, 81
5, 59439, Note_on_c, 0, 67, 0
5, 59439, Note_on_c, 0, 66, 92
5, 59479, Note_on_c, 0, 66, 0
5, 59480, Note_on_c, 0, 64, 86
5, 59519, Note_on_c, 0, 64, 0
5, 59520, Note_on_c, 0, 66, 81
5, 59555, Note_on_c, 0, 67, 88
5, 59572, Note_on_c, 0, 66, 0
5, 59590, Note_on_c, 0, 66, 88
5, 59607, Note_on_c, 0, 67, 0
5, 59625, Note_on_c, 0, 67, 83
5, 59642, Note_on_c, 0, 66, 0
5, 59660, Note_on_c, 0, 66, 89
5, 59677, Note_on_c, 0, 67, 0
5, 59695, Note_on_c, 0, 67, 98
5, 59712, Note_on_c, 0, 66, 0
5, 59730, Note_on_c, 0, 66, 78
5, 59747, Note_on_c, 0, 67, 0
5, 59765, Note_on_c, 0, 67, 80
5, 59782, Note_on_c, 0, 66, 0
5, 59801, Note_on_c, 0, 66, 80
5, 59817, Note_on_c, 0, 67, 0
5, 59853, Note_on_c, 0, 66, 0
5, 59880, Note_on_c, 0, 62, 79
5, 59919, Note_on_c, 0, 62, 0
5, 59919, Note_on_c, 0, 64, 95
5, 59959, Note_on_c, 0, 64, 0
5, 59960, Note_on_c, 0, 60, 87
5, 59999, Note_on_c, 0, 60, 0
5, 60000, Note_on_c, 0, 62, 81
5, 60047, Note_on_c, 0, 62, 0
5, 60047, Note_on_c, 0, 64, 82
5, 60095, Note_on_c, 0, 64, 0
5, 60095, Note_on_c, 0, 66, 91
5, 60142, Note_on_c, 0, 66, 0
5, 60143, Note_on_c, 0, 69, 98
5, 60191, Note_on_c, 0, 69, 0
5, 60191, Note_on_c, 0, 67, 88
5, 60238, Note_on_c, 0, 67, 0
5, 60240, Note_on_c, 0, 66, 88
5, 60287, Note_on_c, 0, 66, 0
5, 60287, Note_on_c, 0, 64, 96
5, 60335, Note_on_c, 0, 64, 0
5, 60335, Note_on_c, 0, 62, 87
5, 60382, Note_on_c, 0, 62, 0
5, 60383, Note_on_c, 0, 64, 98
5, 60431, Note_on_c, 0, 64, 0
5, 60431, Note_on_c, 0, 60, 80
5, 60478, Note_on_c, 0, 60, 0
5, 60480, Note_on_c, 0, 62, 78
5, 60527, Note_on_c, 0, 62, 0
5, 60527, Note_on_c, 0, 64, 83
5, 60575, Note_on_c, 0, 64, 0
5, 60575, Note_on_c, 0, 66, 83
5, 60622, Note_on_c, 0, 66, 0
5, 60623, Note_on_c, 0, 69, 78
5, 60671, Note_on_c, 0, 69, 0
5, 60671, Note_on_c, 0, 67, 97
5, 60718, Note_on_c, 0, 67, 0
5, 60720, Note_on_c, 0, 66, 79
5, 60767, Note_on_c, 0, 66, 0
5, 60767, Note_on_c, 0, 64, 87
5, 60815, Note_on_c, 0, 64, 0
5, 60815, Note_on_c, 0, 62, 80
5, 60862, Note_on_c, 0, 62, 0
5, 60863, Note_on_c, 0, 64, 79
5, 60911, Note_on_c, 0, 64, 0
5, 60911, Note_on_c, 0, 60, 98
5, 60958, Note_on_c, 0, 60, 0
5, 60966, Note_on_c, 0, 62, 85
5, 61206, Note_on_c, 0, 62, 0
5, 66720, Note_on_c, 0, 68, 97
5, 66758, Note_on_c, 0, 69, 95
5, 66777, Note_on_c, 0, 68, 0
5, 66797, Note_on_c, 0, 68, 81
5, 66816, Note_on_c, 0, 69, 0
5, 66836, Note_on_c, 0, 69, 98
5, 66854, Note_on_c, 0, 68, 0
5, 66875, Note_on_c, 0, 68, 91
5, 66894, Note_on_c, 0, 69, 0
5, 66914, Note_on_c, 0, 69, 82
5, 66932, Note_on_c, 0, 68, 0
5, 66953, Note_on_c, 0, 68, 95
5, 66972, Note_on_c, 0, 69, 0
5, 66991, Note_on_c, 0, 69, 98
5, 67010, Note_on_c, 0, 68, 0
5, 67031, Note_on_c, 0, 68, 89
5, 67049, Note_on_c, 0, 69, 0
5, 67070, Note_on_c, 0, 69, 90
5, 67089, Note_on_c, 0, 68, 0
5, 67108, Note_on_c, 0, 68, 97
5, 67127, Note_on_c, 0, 69, 0
5, 67147, Note_on_c, 0, 69, 96
5, 67166, Note_on_c, 0, 68, 0
5, 67186, Note_on_c, 0, 68, 91
5, 67204, Note_on_c, 0, 69, 0
5, 67225, Note_on_c, 0, 69, 79
5, 67244, Note_on_c, 0, 68, 0
5, 67264, Note_on_c, 0, 68, 88
5, 67282, Note_on_c, 0, 69, 0
5, 67303, Note_on_c, 0, 69, 82
5, 67322, Note_on_c, 0, 68, 0
5, 67342, Note_on_c, 0, 68, 79
5, 67360, Note_on_c, 0, 69, 0
5, 67381, Note_on_c, 0, 69, 79
5, 67399, Note_on_c, 0, 68, 0
5, 67420, Note_on_c, 0, 68, 87
5, 67439, Note_on_c, 0, 69, 0
5, 67458, Note_on_c, 0, 69, 85
5, 67477, Note_on_c, 0, 68, 0
5, 67498, Note_on_c, 0, 68, 90
5, 67516, Note_on_c, 0, 69, 0
5, 67536, Note_on_c, 0, 69, 97
5, 67555, Note_on_c, 0, 68, 0
5, 67575, Note_on_c, 0, 68, 79
5, 67594, Note_on_c, 0, 69, 0
5, 67614, Note_on_c, 0, 69, 89
5, 67632, Note_on_c, 0, 68, 0
5, 67653, Note_on_c, 0, 68, 90
5, 67672, Note_on_c, 0, 69, 0
5, 67692, Note_on_c, 0, 69, 78
5, 67714, Note_on_c, 0, 68, 0
5, 67731, Note_on_c, 0, 68, 90
5, 67749, Note_on_c, 0, 69, 0
5, 67770, Note_on_c, 0, 69, 93
5, 67789, Note_on_c, 0, 68, 0
5, 67809, Note_on_c, 0, 68, 85
5, 67827, Note_on_c, 0, 69, 0
5, 67848, Note_on_c, 0, 69, 89
5, 67867, Note_on_c, 0, 68, 0
5, 67886, Note_on_c, 0, 68, 95
5, 67905, Note_on_c, 0, 69, 0
5, 67925, Note_on_c, 0, 69, 88
5, 67944, Note_on_c, 0, 68, 0
5, 67965, Note_on_c, 0, 68, 97
5, 67982, Note_on_c, 0, 69, 0
5, 68003, Note_on_c, 0, 69, 93
5, 68022, Note_on_c, 0, 68, 0
5, 68042, Note_on_c, 0, 68, 87
5, 68061, Note_on_c, 0, 69, 0
5, 68081, Note_on_c, 0, 69, 86
5, 68099, Note_on_c, 0, 68, 0
5, 68120, Note_on_c, 0, 68, 79
5, 68139, Note_on_c, 0, 69, 0
5, 68159, Note_on_c, 0, 69, 82
5, 68177, Note_on_c, 0, 68, 0
5, 68198, Note_on_c, 0, 68, 90
5, 68217, Note_on_c, 0, 69, 0
5, 68236, Note_on_c, 0, 69, 98
5, 68255, Note_on_c, 0, 68, 0
5, 68276, Note_on_c, 0, 68, 80
5, 68294, Note_on_c, 0, 69, 0
5, 68315, Note_on_c, 0, 69, 98
5, 68334, Note_on_c, 0, 68, 0
5, 68353, Note_on_c, 0, 68, 97
5, 68372, Note_on_c, 0, 69, 0
5, 68411, Note_on_c, 0, 68, 0
5, 68880, Note_on_c, 0, 75, 78
5, 68895, Note_on_c, 0, 75, 0
5, 68913, Note_on_c, 0, 74, 78
5, 68928, Note_on_c, 0, 74, 0
5, 68948, Note_on_c, 0, 73, 94
5, 68963, Note_on_c, 0, 73, 0
5, 68982, Note_on_c, 0, 72, 88
5, 68997, Note_on_c, 0, 72, 0
5, 69016, Note_on_c, 0, 71, 81
5, 69031, Note_on_c, 0, 71, 0
5, 69051, Note_on_c, 0, 70, 93
5, 69066, Note_on_c, 0, 70, 0
5, 69085, Note_on_c, 0, 69, 83
5, 69100, Note_on_c, 0, 69, 0
5, 69120, Note_on_c, 0, 68, 88
5, 69156, Note_on_c, 0, 70, 92
5, 69174, Note_on_c, 0, 68, 0
5, 69193, Note_on_c, 0, 68, 92
5, 69210, Note_on_c, 0, 70, 0
5, 69229, Note_on_c, 0, 70, 87
5, 69247, Note_on_c, 0, 68, 0
5, 69266, Note_on_c, 0, 68, 86
5, 69283, Note_on_c, 0, 70, 0
5, 69302, Note_on_c, 0, 70, 96
5, 69320, Note_on_c, 0, 68, 0
5, 69339, Note_on_c, 0, 68, 93
5, 69356, Note_on_c, 0, 70, 0
5, 69375, Note_on_c, 0, 70, 81
5, 69393, Note_on_c, 0, 68, 0
5, 69412, Note_on_c, 0, 68, 87
5, 69429, Note_on_c, 0, 70, 0
5, 69448, Note_on_c, 0, 70, 78
5, 69466, Note_on_c, 0, 68, 0
5, 69485, Note_on_c, 0, 68, 81
5, 69502, Note_on_c, 0, 70, 0
5, 69521, Note_on_c, 0, 70, 87
5, 69539, Note_on_c, 0, 68, 0
5, 69558, Note_on_c, 0, 68, 96
5, 69575, Note_on_c, 0, 70, 0
5, 69612, Note_on_c, 0, 68, 0
5, 69840, Note_on_c, 0, 75, 92
5, 69855, Note_on_c, 0, 75, 0
5, 69873, Note_on_c, 0, 74, 81
5, 69888, Note_on_c, 0, 74, 0
5, 69908, Note_on_c, 0, 73, 87
5, 69923, Note_on_c, 0, 73, 0
5, 69942, Note_on_c, 0, 72, 87
5, 69957, Note_on_c, 0, 72, 0
5, 69976, Note_on_c, 0, 71, 85
5, 69991, Note_on_c, 0, 71, 0
5, 70011, Note_on_c, 0, 70, 95
5, 70026, Note_on_c, 0, 70, 0
5, 70045, Note_on_c, 0, 69, 98
5, 70060, Note_on_c, 0, 69, 0
5, 70080, Note_on_c, 0, 68, 97
5, 70116, Note_on_c, 0, 70, 89
5, 70134, Note_on_c, 0, 68, 0
5, 70153, Note_on_c, 0, 68, 81
5, 70170, Note_on_c, 0, 70, 0
5, 70189, Note_on_c, 0, 70, 90
5, 70207, Note_on_c, 0, 68, 0
5, 70226, Note_on_c, 0, 68, 78
5, 70243, Note_on_c, 0, 70, 0
5, 70262, Note_on_c, 0, 70, 90
5, 70280, Note_on_c, 0, 68, 0
5, 70299, Note_on_c, 0, 68, 98
5, 70316, Note_on_c, 0, 70, 0
5, 70335, Note_on_c, 0, 70, 98
5, 70353, Note_on_c, 0, 68, 0
5, 70372, Note_on_c, 0, 68, 87
5, 70389, Note_on_c, 0, 70, 0
5, 70408, Note_on_c, 0, 70, 96
5, 70426, Note_on_c, 0, 68, 0
5, 70445, Note_on_c, 0, 68, 98
5, 70462, Note_on_c, 0, 70, 0
5, 70481, Note_on_c, 0, 70, 94
5, 70499, Note_on_c, 0, 68, 0
5, 70518, Note_on_c, 0, 68, 98
5, 70535, Note_on_c, 0, 70, 0
5, 70572, Note_on_c, 0, 68, 0
5, 71040, Note_on_c, 0, 75, 94
5, 71055, Note_on_c, 0, 75, 0
5, 71073, Note_on_c, 0, 74, 85
5, 71088, Note_on_c, 0, 74, 0
5, 71108, Note_on_c, 0, 73, 94
5, 71123, Note_on_c, 0, 73, 0
5, 71142, Note_on_c, 0, 72, 89
5, 71157, Note_on_c, 0, 72, 0
5, 71176, Note_on_c, 0, 71, 88
5, 71191, Note_on_c, 0, 71, 0
5, 71211, Note_on_c, 0, 70, 82
5, 71226, Note_on_c, 0, 70, 0
5, 71245, Note_on_c, 0, 69, 83
5, 71260, Note_on_c, 0, 69, 0
5, 71294, Note_on_c, 0, 68, 97
5, 71389, Note_on_c, 0, 68, 0
5, 112080, Note_on_c, 0, 70, 109
5, 112111, Note_on_c, 0, 70, 0
5, 112160, Note_on_c, 0, 71, 109
5, 112191, Note_on_c, 0, 71, 0
5, 112239, Note_on_c, 0, 72, 94
5, 112271, Note_on_c, 0, 72, 0
5, 112320, Note_on_c, 0, 73, 101
5, 112351, Note_on_c, 0, 73, 0
5, 112400, Note_on_c, 0, 74, 100
5, 112431, Note_on_c, 0, 74, 0
5, 112479, Note_on_c, 0, 75, 92
5, 112511, Note_on_c, 0, 75, 0
5, 112560, Note_on_c, 0, 76, 109
5, 112591, Note_on_c, 0, 76, 0
5, 112640, Note_on_c, 0, 77, 104
5, 112671, Note_on_c, 0, 77, 0
5, 112719, Note_on_c, 0, 78, 108
5, 112751, Note_on_c, 0, 78, 0
5, 112803, Note_on_c, 0, 79, 93
5, 112898, Note_on_c, 0, 79, 0
5, 113760, Note_on_c, 0, 67, 97
5, 113791, Note_on_c, 0, 67, 0
5, 113840, Note_on_c, 0, 68, 104
5, 113871, Note_on_c, 0, 68, 0
5, 113919, Note_on_c, 0, 69, 104
5, 113951, Note_on_c, 0, 69, 0
5, 114000, Note_on_c, 0, 70, 95
5, 114031, Note_on_c, 0, 70, 0
5, 114080, Note_on_c, 0, 71, 100
5, 114111, Note_on_c, 0, 71, 0
5, 114159, Note_on_c, 0, 72, 102
5, 114191, Note_on_c, 0, 72, 0
5, 114240, Note_on_c, 0, 73, 104
5, 114271, Note_on_c, 0, 73, 0
5, 114320, Note_on_c, 0, 74, 100
5, 114351, Note_on_c, 0, 74, 0
5, 114399, Note_on_c, 0, 75, 105
5, 114431, Note_on_c, 0, 75, 0
5, 114485, Note_on_c, 0, 76, 106
5, 114580, Note_on_c, 0, 76, 0
5, 185761, Note_on_c, 0, 70, 84
5, 186001, Note_on_c, 0, 70, 0
5, 186022, Note_on_c, 0, 72, 97
5, 186122, Note_on_c, 0, 68, 92
5, 186142, Note_on_c, 0, 72, 0
5, 186242, Note_on_c, 0, 68, 0
5, 186253, Note_on_c, 0, 70, 84
5, 186489, Note_on_c, 0, 75, 81
5, 186493, Note_on_c, 0, 70, 0
5, 186729, Note_on_c, 0, 75, 0
5, 186733, Note_on_c, 0, 73, 94
5, 186963, Note_on_c, 0, 72, 86
5, 186973, Note_on_c, 0, 73, 0
5, 187082, Note_on_c, 0, 70, 84
5, 187083, Note_on_c, 0, 72, 0
5, 187202, Note_on_c, 0, 70, 0
5, 187209, Note_on_c, 0, 72, 92
5, 187448, Note_on_c, 0, 68, 93
5, 187449, Note_on_c, 0, 72, 0
5, 187680, Note_on_c, 0, 70, 95
5, 187688, Note_on_c, 0, 68, 0
5, 187890, Note_on_c, 0, 70, 0
5, 187890, Note_on_c, 0, 75, 78
5, 187939, Note_on_c, 0, 72, 88
5, 187990, Note_on_c, 0, 75, 0
5, 188179, Note_on_c, 0, 72, 0
5, 188184, Note_on_c, 0, 70, 96
5, 188904, Note_on_c, 0, 70, 0
5, 189810, Note_on_c, 0, 75, 86
5, 189850, Note_on_c, 0, 72, 89
5, 189895, Note_on_c, 0, 75, 0
5, 190090, Note_on_c, 0, 72, 0
5, 190091, Note_on_c, 0, 70, 92
5, 190330, Note_on_c, 0, 75, 81
5, 190331, Note_on_c, 0, 70, 0
5, 190570, Note_on_c, 0, 75, 0
5, 190577, Note_on_c, 0, 73, 91
5, 190803, Note_on_c, 0, 72, 97
5, 190817, Note_on_c, 0, 73, 0
5, 190920, Note_on_c, 0, 70, 80
5, 190923, Note_on_c, 0, 72, 0
5, 191040, Note_on_c, 0, 70, 0
5, 191047, Note_on_c, 0, 72, 80
5, 191287, Note_on_c, 0, 72, 0
5, 191302, Note_on_c, 0, 68, 96
5, 191531, Note_on_c, 0, 70, 82
5, 191542, Note_on_c, 0, 68, 0
5, 191771, Note_on_c, 0, 70, 0
5, 191779, Note_on_c, 0, 75, 85
5, 192019, Note_on_c, 0, 75, 0
5, 192021, Note_on_c, 0, 73, 96
5, 192244, Note_on_c, 0, 72, 88
5, 192261, Note_on_c, 0, 73, 0
5, 192363, Note_on_c, 0, 70, 91
5, 192364, Note_on_c, 0, 72, 0
5, 192483, Note_on_c, 0, 70, 0
5, 192483, Note_on_c, 0, 72, 81
5, 192723, Note_on_c, 0, 72, 0
5, 192724, Note_on_c, 0, 68, 84
5, 192964, Note_on_c, 0, 68, 0
5, 192965, Note_on_c, 0, 70, 88
5, 193203, Note_on_c, 0, 72, 85
5, 193205, Note_on_c, 0, 70, 0
5, 193443, Note_on_c, 0, 72, 0
5, 193460, Note_on_c, 0, 70, 88
5, 194178, Note_on_c, 0, 72, 84
5, 194180, Note_on_c, 0, 70, 0
5, 194417, Note_on_c, 0, 70, 87
5, 194418, Note_on_c, 0, 72, 0
5, 194647, Note_on_c, 0, 72, 79
5, 194657, Note_on_c, 0, 70, 0
5, 194765, Note_on_c, 0, 68, 79
5, 194767, Note_on_c, 0, 72, 0
5, 194885, Note_on_c, 0, 68, 0
5, 194894, Note_on_c, 0, 70, 89
5, 195134, Note_on_c, 0, 70, 0
5, 195144, Note_on_c, 0, 75, 92
5, 195383, Note_on_c, 0, 73, 95
5, 195384, Note_on_c, 0, 75, 0
5, 195601, Note_on_c, 0, 72, 91
5, 195623, Note_on_c, 0, 73, 0
5, 195721, Note_on_c, 0, 72, 0
5, 195742, Note_on_c, 0, 70, 84
5, 195842, Note_on_c, 0, 72, 85
5, 195862, Note_on_c, 0, 70, 0
5, 196082, Note_on_c, 0, 72, 0
5, 196102, Note_on_c, 0, 68, 87
5, 196333, Note_on_c, 0, 70, 82
5, 196342, Note_on_c, 0, 68, 0
5, 196565, Note_on_c, 0, 75, 83
5, 196573, Note_on_c, 0, 70, 0
5, 196805, Note_on_c, 0, 75, 0
5, 196820, Note_on_c, 0, 80, 89
5, 196925, Note_on_c, 0, 73, 93
5, 196940, Note_on_c, 0, 80, 0
5, 197045, Note_on_c, 0, 73, 0
5, 197059, Note_on_c, 0, 75, 93
5, 197176, Note_on_c, 0, 68, 78
5, 197179, Note_on_c, 0, 75, 0
5, 197294, Note_on_c, 0, 70, 96
5, 197296, Note_on_c, 0, 68, 0
5, 197534, Note_on_c, 0, 70, 0
5, 197537, Note_on_c, 0, 75, 85
5, 197770, Note_on_c, 0, 73, 80
5, 197777, Note_on_c, 0, 75, 0
5, 198010, Note_on_c, 0, 73, 0
5, 198025, Note_on_c, 0, 72, 97
5, 198145, Note_on_c, 0, 72, 0
5, 198145, Note_on_c, 0, 68, 80
5, 198257, Note_on_c, 0, 70, 84
5, 198265, Note_on_c, 0, 68, 0
5, 198481, Note_on_c, 0, 72, 90
5, 198497, Note_on_c, 0, 70, 0
5, 198601, Note_on_c, 0, 72, 0
5, 198604, Note_on_c, 0, 68, 95
5, 198724, Note_on_c, 0, 68, 0
5, 198745, Note_on_c, 0, 70, 85
5, 198961, Note_on_c, 0, 75, 95
5, 198985, Note_on_c, 0, 70, 0
5, 199201, Note_on_c, 0, 75, 0
5, 199207, Note_on_c, 0, 73, 96
5, 199447, Note_on_c, 0, 73, 0
5, 199450, Note_on_c, 0, 72, 84
5, 199569, Note_on_c, 0, 70, 79
5, 199570, Note_on_c, 0, 72, 0
5, 199689, Note_on_c, 0, 70, 0
5, 199701, Note_on_c, 0, 72, 96
5, 199941, Note_on_c, 0, 72, 0
5, 199941, Note_on_c, 0, 68, 91
5, 200179, Note_on_c, 0, 70, 79
5, 200181, Note_on_c, 0, 68, 0
5, 200401, Note_on_c, 0, 75, 87
5, 200419, Note_on_c, 0, 70, 0
5, 200641, Note_on_c, 0, 75, 0
5, 200650, Note_on_c, 0, 73, 92
5, 200890, Note_on_c, 0, 73, 0
5, 200903, Note_on_c, 0, 72, 95
5, 201005, Note_on_c, 0, 70, 93
5, 201023, Note_on_c, 0, 72, 0
5, 201125, Note_on_c, 0, 70, 0
5, 201141, Note_on_c, 0, 72, 95
5, 201378, Note_on_c, 0, 68, 84
5, 201381, Note_on_c, 0, 72, 0
5, 201613, Note_on_c, 0, 70, 84
5, 201618, Note_on_c, 0, 68, 0
5, 201844, Note_on_c, 0, 75, 86
5, 201853, Note_on_c, 0, 70, 0
5, 202084, Note_on_c, 0, 75, 0
5, 202104, Note_on_c, 0, 80, 92
5, 202211, Note_on_c, 0, 73, 94
5, 202224, Note_on_c, 0, 80, 0
5, 202331, Note_on_c, 0, 73, 0
5, 202339, Note_on_c, 0, 75, 80
5, 202445, Note_on_c, 0, 68, 82
5, 202459, Note_on_c, 0, 75, 0
5, 202565, Note_on_c, 0, 68, 0
5, 202575, Note_on_c, 0, 70, 92
5, 202815, Note_on_c, 0, 70, 0
5, 202818, Note_on_c, 0, 75, 93
5, 203058, Note_on_c, 0, 75, 0
5, 203062, Note_on_c, 0, 80, 87
5, 203167, Note_on_c, 0, 73, 78
5, 203182, Note_on_c, 0, 80, 0
5, 203287, Note_on_c, 0, 73, 0
5, 203296, Note_on_c, 0, 75, 98
5, 203401, Note_on_c, 0, 68, 89
5, 203416, Note_on_c, 0, 75, 0
5, 203521, Note_on_c, 0, 68, 0
5, 203527, Note_on_c, 0, 70, 79
5, 203767, Note_on_c, 0, 70, 0
5, 203784, Note_on_c, 0, 75, 88
5, 204006, Note_on_c, 0, 73, 92
5, 204024, Note_on_c, 0, 75, 0
5, 204246, Note_on_c, 0, 73, 0
5, 204246, Note_on_c, 0, 72, 85
5, 204361, Note_on_c, 0, 70, 85
5, 204366, Note_on_c, 0, 72, 0
5, 204481, Note_on_c, 0, 70, 0
5, 204504, Note_on_c, 0, 72, 97
5, 204739, Note_on_c, 0, 68, 98
5, 204744, Note_on_c, 0, 72, 0
5, 204979, Note_on_c, 0, 68, 0
5, 204981, Note_on_c, 0, 70, 98
5, 205221, Note_on_c, 0, 70, 0
5, 205223, Note_on_c, 0, 72, 84
5, 205440, Note_on_c, 0, 70, 82
5, 205463, Note_on_c, 0, 72, 0
5, 205680, Note_on_c, 0, 70, 0
5, 205704, Note_on_c, 0, 75, 92
5, 205924, Note_on_c, 0, 73, 87
5, 205944, Note_on_c, 0, 75, 0
5, 206164, Note_on_c, 0, 73, 0
5, 206181, Note_on_c, 0, 72, 84
5, 206290, Note_on_c, 0, 70, 87
5, 206301, Note_on_c, 0, 72, 0
5, 206405, Note_on_c, 0, 72, 88
5, 206410, Note_on_c, 0, 70, 0
5, 206640, Note_on_c, 0, 68, 97
5, 206645, Note_on_c, 0, 72, 0
5, 206880, Note_on_c, 0, 68, 0
5, 206883, Note_on_c, 0, 70, 82
5, 207123, Note_on_c, 0, 70, 0
5, 207144, Note_on_c, 0, 72, 91
5, 207259, Note_on_c, 0, 68, 93
5, 207264, Note_on_c, 0, 72, 0
5, 207375, Note_on_c, 0, 70, 87
5, 207379, Note_on_c, 0, 68, 0
5, 207615, Note_on_c, 0, 70, 0
5, 207616, Note_on_c, 0, 75, 81
5, 207856, Note_on_c, 0, 75, 0
5, 207857, Note_on_c, 0, 73, 92
5, 208091, Note_on_c, 0, 72, 81
5, 208097, Note_on_c, 0, 73, 0
5, 208209, Note_on_c, 0, 70, 95
5, 208211, Note_on_c, 0, 72, 0
5, 208329, Note_on_c, 0, 70, 0
5, 208345, Note_on_c, 0, 72, 87
5, 208573, Note_on_c, 0, 68, 87
5, 208585, Note_on_c, 0, 72, 0
5, 208806, Note_on_c, 0, 70, 89
5, 208813, Note_on_c, 0, 68, 0
5, 209046, Note_on_c, 0, 70, 0
5, 209050, Note_on_c, 0, 75, 90
5, 209286, Note_on_c, 0, 73, 90
5, 209290, Note_on_c, 0, 75, 0
5, 209524, Note_on_c, 0, 72, 78
5, 209526, Note_on_c, 0, 73, 0
5, 209644, Note_on_c, 0, 72, 0
5, 209662, Note_on_c, 0, 68, 94
5, 209771, Note_on_c, 0, 70, 93
5, 209782, Note_on_c, 0, 68, 0
5, 210011, Note_on_c, 0, 70, 0
5, 210013, Note_on_c, 0, 75, 97
5, 210245, Note_on_c, 0, 80, 89
5, 210253, Note_on_c, 0, 75, 0
5, 210365, Note_on_c, 0, 80, 0
5, 210385, Note_on_c, 0, 73, 94
5, 210492, Note_on_c, 0, 75, 97
5, 210505, Note_on_c, 0, 73, 0
5, 210604, Note_on_c, 0, 68, 97
5, 210612, Note_on_c, 0, 75, 0
5, 210724, Note_on_c, 0, 68, 0
5, 210730, Note_on_c, 0, 70, 85
5, 210970, Note_on_c, 0, 70, 0
5, 210982, Note_on_c, 0, 75, 92
5, 211213, Note_on_c, 0, 73, 81
5, 211222, Note_on_c, 0, 75, 0
5, 211444, Note_on_c, 0, 72, 95
5, 211453, Note_on_c, 0, 73, 0
5, 211564, Note_on_c, 0, 72, 0
5, 211577, Note_on_c, 0, 68, 97
5, 211697, Note_on_c, 0, 68, 0
5, 227049, Note_on_c, 0, 69, 80
5, 227250, Note_on_c, 0, 74, 92
5, 227259, Note_on_c, 0, 69, 0
5, 227280, Note_on_c, 0, 74, 0
5, 227283, Note_on_c, 0, 71, 80
5, 227523, Note_on_c, 0, 71, 0
5, 227540, Note_on_c, 0, 69, 89
5, 227730, Note_on_c, 0, 74, 92
5, 227750, Note_on_c, 0, 69, 0
5, 227760, Note_on_c, 0, 74, 0
5, 227768, Note_on_c, 0, 71, 88
5, 228008, Note_on_c, 0, 71, 0
5, 228020, Note_on_c, 0, 69, 95
5, 228210, Note_on_c, 0, 74, 87
5, 228230, Note_on_c, 0, 69, 0
5, 228240, Note_on_c, 0, 74, 0
5, 228250, Note_on_c, 0, 71, 78
5, 228481, Note_on_c, 0, 69, 85
5, 228490, Note_on_c, 0, 71, 0
5, 228690, Note_on_c, 0, 74, 86
5, 228691, Note_on_c, 0, 69, 0
5, 228720, Note_on_c, 0, 74, 0
5, 228732, Note_on_c, 0, 71, 78
5, 228971, Note_on_c, 0, 69, 94
5, 228972, Note_on_c, 0, 71, 0
5, 229205, Note_on_c, 0, 74, 98
5, 229211, Note_on_c, 0, 69, 0
5, 229440, Note_on_c, 0, 72, 79
5, 229445, Note_on_c, 0, 74, 0
5, 229500, Note_on_c, 0, 72, 0
5, 229500, Note_on_c, 0, 73, 79
5, 229560, Note_on_c, 0, 73, 0
5, 229580, Note_on_c, 0, 72, 97
5, 229688, Note_on_c, 0, 71, 83
5, 229700, Note_on_c, 0, 72, 0
5, 229806, Note_on_c, 0, 69, 81
5, 229808, Note_on_c, 0, 71, 0
5, 229926, Note_on_c, 0, 69, 0
5, 229936, Note_on_c, 0, 71, 97
5, 230170, Note_on_c, 0, 67, 78
5, 230176, Note_on_c, 0, 71, 0
5, 230410, Note_on_c, 0, 67, 0
5, 230422, Note_on_c, 0, 69, 81
5, 230610, Note_on_c, 0, 74, 87
5, 230632, Note_on_c, 0, 69, 0
5, 230640, Note_on_c, 0, 74, 0
5, 230664, Note_on_c, 0, 71, 84
5, 230904, Note_on_c, 0, 71, 0
5, 230905, Note_on_c, 0, 69, 78
5, 231090, Note_on_c, 0, 74, 80
5, 231115, Note_on_c, 0, 69, 0
5, 231120, Note_on_c, 0, 74, 0
5, 231130, Note_on_c, 0, 71, 90
5, 231250, Note_on_c, 0, 71, 0
5, 231251, Note_on_c, 0, 67, 96
5, 231371, Note_on_c, 0, 67, 0
5, 232819, Note_on_c, 0, 65, 76
5, 232887, Note_on_c, 0, 65, 0
5, 232893, Note_on_c, 0, 66, 75
5, 232951, Note_on_c, 0, 67, 80
5, 232961, Note_on_c, 0, 66, 0
5, 233009, Note_on_c, 0, 68, 75
5, 233019, Note_on_c, 0, 67, 0
5, 233077, Note_on_c, 0, 68, 0
5, 233083, Note_on_c, 0, 69, 71
5, 233150, Note_on_c, 0, 70, 83
5, 233151, Note_on_c, 0, 69, 0
5, 233218, Note_on_c, 0, 70, 0
5, 233235, Note_on_c, 0, 71, 80
5, 233294, Note_on_c, 0, 72, 80
5, 233303, Note_on_c, 0, 71, 0
5, 233353, Note_on_c, 0, 73, 85
5, 233362, Note_on_c, 0, 72, 0
5, 233421, Note_on_c, 0, 73, 0
5, 233424, Note_on_c, 0, 74, 78
5, 233485, Note_on_c, 0, 75, 90
5, 233492, Note_on_c, 0, 74, 0
5, 233553, Note_on_c, 0, 75, 0
5, 233575, Note_on_c, 0, 76, 90
5, 233642, Note_on_c, 0, 77, 88
5, 233643, Note_on_c, 0, 76, 0
5, 233692, Note_on_c, 0, 78, 79
5, 233710, Note_on_c, 0, 77, 0
5, 233760, Note_on_c, 0, 78, 0
5, 233774, Note_on_c, 0, 79, 72
5, 234014, Note_on_c, 0, 79, 0
5, 235689, Note_on_c, 0, 65, 71
5, 235757, Note_on_c, 0, 65, 0
5, 235773, Note_on_c, 0, 66, 71
5, 235822, Note_on_c, 0, 67, 87
5, 235841, Note_on_c, 0, 66, 0
5, 235890, Note_on_c, 0, 67, 0
5, 235890, Note_on_c, 0, 68, 84
5, 235957, Note_on_c, 0, 69, 79
5, 235958, Note_on_c, 0, 68, 0
5, 236025, Note_on_c, 0, 69, 0
5, 236044, Note_on_c, 0, 70, 72
5, 236112, Note_on_c, 0, 70, 0
5, 236113, Note_on_c, 0, 71, 81
5, 236181, Note_on_c, 0, 71, 0
5, 236181, Note_on_c, 0, 72, 91
5, 236248, Note_on_c, 0, 73, 81
5, 236249, Note_on_c, 0, 72, 0
5, 236302, Note_on_c, 0, 74, 92
5, 236316, Note_on_c, 0, 73, 0
5, 236370, Note_on_c, 0, 74, 0
5, 236373, Note_on_c, 0, 75, 79
5, 236441, Note_on_c, 0, 75, 0
5, 236441, Note_on_c, 0, 76, 92
5, 236509, Note_on_c, 0, 76, 0
5, 236511, Note_on_c, 0, 77, 81
5, 236579, Note_on_c, 0, 77, 0
5, 236587, Note_on_c, 0, 78, 90
5, 236645, Note_on_c, 0, 79, 87
5, 236655, Note_on_c, 0, 78, 0
5, 236765, Note_on_c, 0, 79, 0
5, 237139, Note_on_c, 0, 74, 68
5, 237233, Note_on_c, 0, 75, 88
5, 237234, Note_on_c, 0, 74, 0
5, 237328, Note_on_c, 0, 75, 0
5, 237333, Note_on_c, 0, 76, 91
5, 237409, Note_on_c, 0, 77, 90
5, 237429, Note_on_c, 0, 76, 0
5, 237504, Note_on_c, 0, 77, 0
5, 237527, Note_on_c, 0, 78, 89
5, 237611, Note_on_c, 0, 79, 85
5, 237622, Note_on_c, 0, 78, 0
5, 237706, Note_on_c, 0, 79, 0
5, 237706, Note_on_c, 0, 78, 98
5, 237801, Note_on_c, 0, 78, 0
5, 237814, Note_on_c, 0, 77, 77
5, 237893, Note_on_c, 0, 76, 75
5, 237910, Note_on_c, 0, 77, 0
5, 237986, Note_on_c, 0, 75, 82
5, 237988, Note_on_c, 0, 76, 0
5, 238081, Note_on_c, 0, 75, 0
5, 238085, Note_on_c, 0, 74, 85
5, 238205, Note_on_c, 0, 74, 0
5, 238583, Note_on_c, 0, 75, 82
5, 238648, Note_on_c, 0, 76, 68
5, 238663, Note_on_c, 0, 75, 0
5, 238727, Note_on_c, 0, 76, 0
5, 238736, Note_on_c, 0, 77, 89
5, 238816, Note_on_c, 0, 77, 0
5, 238816, Note_on_c, 0, 78, 77
5, 238896, Note_on_c, 0, 78, 0
5, 238902, Note_on_c, 0, 79, 78
5, 238962, Note_on_c, 0, 80, 82
5, 238981, Note_on_c, 0, 79, 0
5, 239042, Note_on_c, 0, 80, 0
5, 239059, Note_on_c, 0, 81, 103
5, 239179, Note_on_c, 0, 81, 0
5, 240000, Note_on_c, 0, 81, 89
5, 240080, Note_on_c, 0, 81, 0
5, 240100, Note_on_c, 0, 80, 100
5, 240178, Note_on_c, 0, 79, 82
5, 240179, Note_on_c, 0, 80, 0
5, 240250, Note_on_c, 0, 78, 79
5, 240258, Note_on_c, 0, 79, 0
5, 240330, Note_on_c, 0, 78, 0
5, 240335, Note_on_c, 0, 77, 77
5, 240414, Note_on_c, 0, 77, 0
5, 240420, Note_on_c, 0, 76, 71
5, 240500, Note_on_c, 0, 76, 0
5, 240504, Note_on_c, 0, 75, 65
5, 240566, Note_on_c, 0, 76, 76
5, 240584, Note_on_c, 0, 75, 0
5, 240645, Note_on_c, 0, 76, 0
5, 240654, Note_on_c, 0, 77, 80
5, 240734, Note_on_c, 0, 77, 0
5, 240737, Note_on_c, 0, 78, 95
5, 240817, Note_on_c, 0, 78, 0
5, 240821, Note_on_c, 0, 79, 93
5, 240900, Note_on_c, 0, 79, 0
5, 240904, Note_on_c, 0, 80, 95
5, 240982, Note_on_c, 0, 81, 92
5, 240984, Note_on_c, 0, 80, 0
5, 241102, Note_on_c, 0, 81, 0
5, 242408, Note_on_c, 0, 75, 70
5, 242488, Note_on_c, 0, 75, 0
5, 242500, Note_on_c, 0, 76, 69
5, 242570, Note_on_c, 0, 77, 76
5, 242579, Note_on_c, 0, 76, 0
5, 242650, Note_on_c, 0, 77, 0
5, 242659, Note_on_c, 0, 78, 89
5, 242735, Note_on_c, 0, 79, 92
5, 242739, Note_on_c, 0, 78, 0
5, 242805, Note_on_c, 0, 80, 80
5, 242814, Note_on_c, 0, 79, 0
5, 242885, Note_on_c, 0, 80, 0
5, 242896, Note_on_c, 0, 81, 91
5, 243016, Note_on_c, 0, 81, 0
5, 243852, Note_on_c, 0, 81, 86
5, 243932, Note_on_c, 0, 81, 0
5, 243938, Note_on_c, 0, 80, 81
5, 244017, Note_on_c, 0, 80, 0
5, 244018, Note_on_c, 0, 79, 74
5, 244094, Note_on_c, 0, 78, 84
5, 244098, Note_on_c, 0, 79, 0
5, 244169, Note_on_c, 0, 77, 83
5, 244174, Note_on_c, 0, 78, 0
5, 244248, Note_on_c, 0, 77, 0
5, 244263, Note_on_c, 0, 76, 86
5, 244331, Note_on_c, 0, 75, 69
5, 244343, Note_on_c, 0, 76, 0
5, 244411, Note_on_c, 0, 75, 0
5, 244417, Note_on_c, 0, 76, 77
5, 244480, Note_on_c, 0, 77, 86
5, 244496, Note_on_c, 0, 76, 0
5, 244560, Note_on_c, 0, 77, 0
5, 244565, Note_on_c, 0, 78, 70
5, 244645, Note_on_c, 0, 78, 0
5, 244664, Note_on_c, 0, 79, 76
5, 244737, Note_on_c, 0, 80, 78
5, 244743, Note_on_c, 0, 79, 0
5, 244815, Note_on_c, 0, 81, 89
5, 244817, Note_on_c, 0, 80, 0
5, 244935, Note_on_c, 0, 81, 0
5, 246241, Note_on_c, 0, 75, 80
5, 246321, Note_on_c, 0, 75, 0
5, 246328, Note_on_c, 0, 76, 85
5, 246407, Note_on_c, 0, 76, 0
5, 246419, Note_on_c, 0, 77, 69
5, 246497, Note_on_c, 0, 78, 73
5, 246499, Note_on_c, 0, 77, 0
5, 246570, Note_on_c, 0, 79, 75
5, 246577, Note_on_c, 0, 78, 0
5, 246642, Note_on_c, 0, 80, 86
5, 246649, Note_on_c, 0, 79, 0
5, 246722, Note_on_c, 0, 80, 0
5, 246732, Note_on_c, 0, 81, 75
5, 246852, Note_on_c, 0, 81, 0
5, 247214, Note_on_c, 0, 75, 84
5, 247294, Note_on_c, 0, 75, 0
5, 247299, Note_on_c, 0, 76, 73
5, 247370, Note_on_c, 0, 77, 72
5, 247378, Note_on_c, 0, 76, 0
5, 247449, Note_on_c, 0, 78, 70
5, 247450, Note_on_c, 0, 77, 0
5, 247523, Note_on_c, 0, 79, 77
5, 247529, Note_on_c, 0, 78, 0
5, 247602, Note_on_c, 0, 79, 0
5, 247609, Note_on_c, 0, 80, 78
5, 247689, Note_on_c, 0, 80, 0
5, 247705, Note_on_c, 0, 81, 76
5, 247825, Note_on_c, 0, 81, 0
5, 248173, Note_on_c, 0, 75, 85
5, 248253, Note_on_c, 0, 75, 0
5, 248264, Note_on_c, 0, 76, 85
5, 248321, Note_on_c, 0, 77, 85
5, 248343, Note_on_c, 0, 76, 0
5, 248401, Note_on_c, 0, 77, 0
5, 248421, Note_on_c, 0, 78, 70
5, 248501, Note_on_c, 0, 78, 0
5, 248505, Note_on_c, 0, 79, 87
5, 248581, Note_on_c, 0, 80, 76
5, 248584, Note_on_c, 0, 79, 0
5, 248657, Note_on_c, 0, 81, 87
5, 248661, Note_on_c, 0, 80, 0
5, 248777, Note_on_c, 0, 81, 0
5, 260904, Note_on_c, 0, 60, 97
5, 261013, Note_on_c, 0, 56, 97
5, 261024, Note_on_c, 0, 60, 0
5, 261133, Note_on_c, 0, 56, 0
5, 261142, Note_on_c, 0, 60, 96
5, 261244, Note_on_c, 0, 56, 90
5, 261262, Note_on_c, 0, 60, 0
5, 261364, Note_on_c, 0, 56, 0
5, 261368, Note_on_c, 0, 60, 98
5, 261481, Note_on_c, 0, 56, 98
5, 261488, Note_on_c, 0, 60, 0
5, 261601, Note_on_c, 0, 56, 0
5, 261621, Note_on_c, 0, 60, 90
5, 261727, Note_on_c, 0, 56, 81
5, 261741, Note_on_c, 0, 60, 0
5, 261847, Note_on_c, 0, 56, 0
5, 261861, Note_on_c, 0, 60, 88
5, 261981, Note_on_c, 0, 60, 0
5, 261985, Note_on_c, 0, 56, 97
5, 262098, Note_on_c, 0, 60, 86
5, 262105, Note_on_c, 0, 56, 0
5, 262203, Note_on_c, 0, 56, 95
5, 262218, Note_on_c, 0, 60, 0
5, 262320, Note_on_c, 0, 60, 87
5, 262323, Note_on_c, 0, 56, 0
5, 262440, Note_on_c, 0, 60, 0
5, 262457, Note_on_c, 0, 56, 86
5, 262568, Note_on_c, 0, 60, 89
5, 262577, Note_on_c, 0, 56, 0
5, 262685, Note_on_c, 0, 56, 94
5, 262688, Note_on_c, 0, 60, 0
5, 262805, Note_on_c, 0, 56, 0
5, 262822, Note_on_c, 0, 60, 83
5, 262931, Note_on_c, 0, 56, 93
5, 262942, Note_on_c, 0, 60, 0
5, 263048, Note_on_c, 0, 60, 93
5, 263051, Note_on_c, 0, 56, 0
5, 263165, Note_on_c, 0, 56, 93
5, 263168, Note_on_c, 0, 60, 0
5, 263285, Note_on_c, 0, 56, 0
5, 263290, Note_on_c, 0, 60, 90
5, 263407, Note_on_c, 0, 56, 88
5, 263410, Note_on_c, 0, 60, 0
5, 263527, Note_on_c, 0, 56, 0
5, 263529, Note_on_c, 0, 60, 82
5, 263649, Note_on_c, 0, 60, 0
5, 263660, Note_on_c, 0, 56, 96
5, 263775, Note_on_c, 0, 60, 78
5, 263780, Note_on_c, 0, 56, 0
5, 263893, Note_on_c, 0, 56, 89
5, 263895, Note_on_c, 0, 60, 0
5, 264013, Note_on_c, 0, 56, 0
5, 264025, Note_on_c, 0, 60, 84
5, 264124, Note_on_c, 0, 56, 89
5, 264145, Note_on_c, 0, 60, 0
5, 264244, Note_on_c, 0, 56, 0
5, 264248, Note_on_c, 0, 60, 95
5, 264368, Note_on_c, 0, 60, 0
5, 264384, Note_on_c, 0, 56, 87
5, 264496, Note_on_c, 0, 60, 91
5, 264504, Note_on_c, 0, 56, 0
5, 264601, Note_on_c, 0, 56, 78
5, 264616, Note_on_c, 0, 60, 0
5, 264721, Note_on_c, 0, 56, 0
5, 264724, Note_on_c, 0, 60, 78
5, 264844, Note_on_c, 0, 60, 0
5, 264849, Note_on_c, 0, 56, 81
5, 264969, Note_on_c, 0, 56, 0
5, 264982, Note_on_c, 0, 60, 96
5, 265085, Note_on_c, 0, 56, 89
5, 265102, Note_on_c, 0, 60, 0
5, 265205, Note_on_c, 0, 56, 0
5, 265210, Note_on_c, 0, 60, 88
5, 265324, Note_on_c, 0, 56, 98
5, 265330, Note_on_c, 0, 60, 0
5, 265442, Note_on_c, 0, 60, 95
5, 265444, Note_on_c, 0, 56, 0
5, 265562, Note_on_c, 0, 60, 0
5, 265575, Note_on_c, 0, 56, 98
5, 265689, Note_on_c, 0, 60, 95
5, 265695, Note_on_c, 0, 56, 0
5, 265809, Note_on_c, 0, 60, 0
5, 265824, Note_on_c, 0, 56, 84
5, 265933, Note_on_c, 0, 60, 85
5, 265944, Note_on_c, 0, 56, 0
5, 266053, Note_on_c, 0, 60, 0
5, 266065, Note_on_c, 0, 56, 92
5, 266185, Note_on_c, 0, 56, 0
5, 266185, Note_on_c, 0, 60, 83
5, 266293, Note_on_c, 0, 56, 97
5, 266305, Note_on_c, 0, 60, 0
5, 266407, Note_on_c, 0, 60, 84
5, 266413, Note_on_c, 0, 56, 0
5, 266527, Note_on_c, 0, 60, 0
5, 266527, Note_on_c, 0, 56, 92
5, 266647, Note_on_c, 0, 56, 0
5, 266647, Note_on_c, 0, 57, 95
5, 266887, Note_on_c, 0, 57, 0
5, 268341, Note_on_c, 0, 79, 83
5, 268455, Note_on_c, 0, 78, 81
5, 268474, Note_on_c, 0, 79, 0
5, 268588, Note_on_c, 0, 78, 0
5, 268604, Note_on_c, 0, 77, 92
5, 268722, Note_on_c, 0, 76, 90
5, 268737, Note_on_c, 0, 77, 0
5, 268855, Note_on_c, 0, 76, 0
5, 268869, Note_on_c, 0, 75, 94
5, 268987, Note_on_c, 0, 74, 91
5, 269002, Note_on_c, 0, 75, 0
5, 269120, Note_on_c, 0, 74, 0
5, 269125, Note_on_c, 0, 73, 86
5, 269258, Note_on_c, 0, 73, 0
5, 269269, Note_on_c, 0, 72, 88
5, 269402, Note_on_c, 0, 72, 0
5, 269402, Note_on_c, 0, 71, 82
5, 269532, Note_on_c, 0, 70, 86
5, 269535, Note_on_c, 0, 71, 0
5, 269652, Note_on_c, 0, 70, 0
5, 284645, Note_on_c, 0, 60, 92
5, 284765, Note_on_c, 0, 60, 0
5, 284775, Note_on_c, 0, 56, 94
5, 284881, Note_on_c, 0, 60, 79
5, 284895, Note_on_c, 0, 56, 0
5, 285001, Note_on_c, 0, 60, 0
5, 285007, Note_on_c, 0, 56, 94
5, 285127, Note_on_c, 0, 56, 0
5, 285135, Note_on_c, 0, 60, 95
5, 285252, Note_on_c, 0, 56, 96
5, 285255, Note_on_c, 0, 60, 0
5, 285362, Note_on_c, 0, 60, 82
5, 285372, Note_on_c, 0, 56, 0
5, 285482, Note_on_c, 0, 60, 0
5, 285497, Note_on_c, 0, 56, 92
5, 285617, Note_on_c, 0, 56, 0
5, 285617, Note_on_c, 0, 60, 98
5, 285723, Note_on_c, 0, 56, 80
5, 285737, Note_on_c, 0, 60, 0
5, 285843, Note_on_c, 0, 56, 0
5, 285852, Note_on_c, 0, 60, 85
5, 285972, Note_on_c, 0, 60, 0
5, 285977, Note_on_c, 0, 56, 82
5, 286083, Note_on_c, 0, 60, 78
5, 286097, Note_on_c, 0, 56, 0
5, 286200, Note_on_c, 0, 56, 87
5, 286203, Note_on_c, 0, 60, 0
5, 286320, Note_on_c, 0, 56, 0
5, 286336, Note_on_c, 0, 60, 96
5, 286441, Note_on_c, 0, 56, 98
5, 286456, Note_on_c, 0, 60, 0
5, 286561, Note_on_c, 0, 56, 0
5, 286574, Note_on_c, 0, 60, 92
5, 286694, Note_on_c, 0, 60, 0
5, 286700, Note_on_c, 0, 56, 83
5, 286800, Note_on_c, 0, 60, 93
5, 286820, Note_on_c, 0, 56, 0
5, 286920, Note_on_c, 0, 60, 0
5, 286941, Note_on_c, 0, 56, 85
5, 287041, Note_on_c, 0, 60, 84
5, 287061, Note_on_c, 0, 56, 0
5, 287161, Note_on_c, 0, 60, 0
5, 287170, Note_on_c, 0, 56, 85
5, 287290, Note_on_c, 0, 56, 0
5, 287305, Note_on_c, 0, 60, 88
5, 287404, Note_on_c, 0, 56, 90
5, 287425, Note_on_c, 0, 60, 0
5, 287524, Note_on_c, 0, 56, 0
5, 287537, Note_on_c, 0, 60, 82
5, 287648, Note_on_c, 0, 56, 87
5, 287657, Note_on_c, 0, 60, 0
5, 287768, Note_on_c, 0, 56, 0
5, 287774, Note_on_c, 0, 60, 78
5, 287887, Note_on_c, 0, 56, 94
5, 287894, Note_on_c, 0, 60, 0
5, 288007, Note_on_c, 0, 56, 0
5, 288021, Note_on_c, 0, 60, 79
5, 288141, Note_on_c, 0, 60, 0
5, 288142, Note_on_c, 0, 56, 83
5, 288260, Note_on_c, 0, 60, 78
5, 288262, Note_on_c, 0, 56, 0
5, 288361, Note_on_c, 0, 56, 80
5, 288380, Note_on_c, 0, 60, 0
5, 288481, Note_on_c, 0, 56, 0
5, 288497, Note_on_c, 0, 60, 94
5, 288617, Note_on_c, 0, 60, 0
5, 288621, Note_on_c, 0, 56, 85
5, 288722, Note_on_c, 0, 60, 88
5, 288741, Note_on_c, 0, 56, 0
5, 288842, Note_on_c, 0, 60, 0
5, 288862, Note_on_c, 0, 56, 84
5, 288971, Note_on_c, 0, 57, 78
5, 288982, Note_on_c, 0, 56, 0
5, 289211, Note_on_c, 0, 57, 0
5, 294020, Note_on_c, 0, 79, 77
5, 294129, Note_on_c, 0, 79, 80
5, 294140, Note_on_c, 0, 79, 0
5, 294249, Note_on_c, 0, 79, 0
5, 294253, Note_on_c, 0, 79, 72
5, 294373, Note_on_c, 0, 79, 0
5, 294385, Note_on_c, 0, 79, 70
5, 294491, Note_on_c, 0, 79, 65
5, 294505, Note_on_c, 0, 79, 0
5, 294611, Note_on_c, 0, 79, 0
5, 294618, Note_on_c, 0, 79, 82
5, 294734, Note_on_c, 0, 79, 0
5, 294742, Note_on_c, 0, 82, 84
5, 294844, Note_on_c, 0, 82, 81
5, 294862, Note_on_c, 0, 82, 0
5, 294964, Note_on_c, 0, 82, 0
5, 294984, Note_on_c, 0, 82, 72
5, 295100, Note_on_c, 0, 82, 74
5, 295104, Note_on_c, 0, 82, 0
5, 295213, Note_on_c, 0, 82, 72
5, 295220, Note_on_c, 0, 82, 0
5, 295333, Note_on_c, 0, 82, 0
5, 295336, Note_on_c, 0, 82, 70
5, 295446, Note_on_c, 0, 82, 70
5, 295452, Note_on_c, 0, 82, 0
5, 295566, Note_on_c, 0, 82, 0
5, 295585, Note_on_c, 0, 82, 71
5, 295699, Note_on_c, 0, 82, 73
5, 295705, Note_on_c, 0, 82, 0
5, 295808, Note_on_c, 0, 82, 82
5, 295819, Note_on_c, 0, 82, 0
5, 295928, Note_on_c, 0, 82, 0
5, 295945, Note_on_c, 0, 82, 71
5, 296063, Note_on_c, 0, 82, 84
5, 296065, Note_on_c, 0, 82, 0
5, 296179, Note_on_c, 0, 82, 0
5, 296180, Note_on_c, 0, 79, 66
5, 296295, Note_on_c, 0, 79, 77
5, 296300, Note_on_c, 0, 79, 0
5, 296415, Note_on_c, 0, 79, 0
5, 296425, Note_on_c, 0, 79, 84
5, 296524, Note_on_c, 0, 79, 84
5, 296545, Note_on_c, 0, 79, 0
5, 296644, Note_on_c, 0, 79, 0
5, 296655, Note_on_c, 0, 79, 79
5, 296765, Note_on_c, 0, 79, 69
5, 296775, Note_on_c, 0, 79, 0
5, 296881, Note_on_c, 0, 79, 0
5, 296903, Note_on_c, 0, 79, 68
5, 297012, Note_on_c, 0, 79, 68
5, 297023, Note_on_c, 0, 79, 0
5, 297130, Note_on_c, 0, 79, 69
5, 297132, Note_on_c, 0, 79, 0
5, 297250, Note_on_c, 0, 79, 0
5, 297259, Note_on_c, 0, 79, 66
5, 297371, Note_on_c, 0, 79, 84
5, 297379, Note_on_c, 0, 79, 0
5, 297491, Note_on_c, 0, 79, 0
5, 297503, Note_on_c, 0, 79, 68
5, 297619, Note_on_c, 0, 79, 0
5, 297623, Note_on_c, 0, 82, 85
5, 297723, Note_on_c, 0, 82, 76
5, 297743, Note_on_c, 0, 82, 0
5, 297843, Note_on_c, 0, 82, 0
5, 297857, Note_on_c, 0, 82, 76
5, 297972, Note_on_c, 0, 82, 73
5, 297977, Note_on_c, 0, 82, 0
5, 298092, Note_on_c, 0, 82, 0
5, 298098, Note_on_c, 0, 82, 68
5, 298212, Note_on_c, 0, 82, 66
5, 298218, Note_on_c, 0, 82, 0
5, 298328, Note_on_c, 0, 82, 0
5, 298333, Note_on_c, 0, 82, 77
5, 298453, Note_on_c, 0, 82, 0
5, 298455, Note_on_c, 0, 82, 84
5, 298572, Note_on_c, 0, 82, 68
5, 298575, Note_on_c, 0, 82, 0
5, 298692, Note_on_c, 0, 82, 0
5, 298694, Note_on_c, 0, 82, 67
5, 298802, Note_on_c, 0, 82, 85
5, 298814, Note_on_c, 0, 82, 0
5, 298922, Note_on_c, 0, 82, 0
5, 298939, Note_on_c, 0, 82, 65
5, 299042, Note_on_c, 0, 79, 76
5, 299055, Note_on_c, 0, 82, 0
5, 299162, Note_on_c, 0, 79, 0
5, 299184, Note_on_c, 0, 79, 79
5, 299291, Note_on_c, 0, 79, 81
5, 299304, Note_on_c, 0, 79, 0
5, 299410, Note_on_c, 0, 79, 67
5, 299411, Note_on_c, 0, 79, 0
5, 299530, Note_on_c, 0, 79, 0
5, 299530, Note_on_c, 0, 79, 66
5, 299648, Note_on_c, 0, 79, 70
5, 299650, Note_on_c, 0, 79, 0
5, 299764, Note_on_c, 0, 79, 0
5, 299773, Note_on_c, 0, 79, 70
5, 299885, Note_on_c, 0, 79, 78
5, 299893, Note_on_c, 0, 79, 0
5, 300005, Note_on_c, 0, 79, 0
5, 300007, Note_on_c, 0, 79, 76
5, 300127, Note_on_c, 0, 79, 0
5, 300139, Note_on_c, 0, 79, 74
5, 300251, Note_on_c, 0, 79, 69
5, 300259, Note_on_c, 0, 79, 0
5, 300371, Note_on_c, 0, 79, 0
5, 300385, Note_on_c, 0, 79, 67
5, 300481, Note_on_c, 0, 82, 84
5, 300501, Note_on_c, 0, 79, 0
5, 300601, Note_on_c, 0, 82, 0
5, 300608, Note_on_c, 0, 82, 85
5, 300721, Note_on_c, 0, 82, 73
5, 300728, Note_on_c, 0, 82, 0
5, 300841, Note_on_c, 0, 82, 0
5, 300862, Note_on_c, 0, 82, 81
5, 300965, Note_on_c, 0, 82, 67
5, 300982, Note_on_c, 0, 82, 0
5, 301085, Note_on_c, 0, 82, 0
5, 301096, Note_on_c, 0, 82, 72
5, 301206, Note_on_c, 0, 82, 81
5, 301212, Note_on_c, 0, 82, 0
5, 301326, Note_on_c, 0, 82, 0
5, 301335, Note_on_c, 0, 82, 77
5, 301454, Note_on_c, 0, 82, 82
5, 301455, Note_on_c, 0, 82, 0
5, 301574, Note_on_c, 0, 82, 0
5, 301574, Note_on_c, 0, 82, 66
5, 301694, Note_on_c, 0, 82, 0
5, 301695, Note_on_c, 0, 82, 78
5, 301812, Note_on_c, 0, 82, 70
5, 301815, Note_on_c, 0, 82, 0
5, 301928, Note_on_c, 0, 82, 0
5, 301933, Note_on_c, 0, 79, 70
5, 302053, Note_on_c, 0, 79, 0
5, 302053, Note_on_c, 0, 79, 80
5, 302173, Note_on_c, 0, 79, 0
5, 302178, Note_on_c, 0, 79, 68
5, 302282, Note_on_c, 0, 79, 83
5, 302298, Note_on_c, 0, 79, 0
5, 302402, Note_on_c, 0, 79, 0
5, 302423, Note_on_c, 0, 79, 84
5, 302530, Note_on_c, 0, 79, 82
5, 302543, Note_on_c, 0, 79, 0
5, 302645, Note_on_c, 0, 82, 95
5, 302646, Note_on_c, 0, 79, 0
5, 302765, Note_on_c, 0, 82, 0
5, 302893, Note_on_c, 0, 80, 94
5, 303013, Note_on_c, 0, 80, 0
5, 303145, Note_on_c, 0, 82, 96
5, 303265, Note_on_c, 0, 82, 0
5, 303362, Note_on_c, 0, 80, 106
5, 303482, Note_on_c, 0, 80, 0
5, 303619, Note_on_c, 0, 78, 100
5, 303739, Note_on_c, 0, 78, 0
5, 303849, Note_on_c, 0, 77, 99
5, 303969, Note_on_c, 0, 77, 0
5, 304096, Note_on_c, 0, 82, 99
5, 304216, Note_on_c, 0, 82, 0
5, 304339, Note_on_c, 0, 80, 91
5, 304459, Note_on_c, 0, 80, 0
5, 304568, Note_on_c, 0, 82, 93
5, 304688, Note_on_c, 0, 82, 0
5, 304805, Note_on_c, 0, 80, 99
5, 304925, Note_on_c, 0, 80, 0
5, 305064, Note_on_c, 0, 78, 94
5, 305184, Note_on_c, 0, 78, 0
5, 305289, Note_on_c, 0, 77, 106
5, 305409, Note_on_c, 0, 77, 0
5, 305526, Note_on_c, 0, 82, 110
5, 305646, Note_on_c, 0, 82, 0
5, 305771, Note_on_c, 0, 80, 111
5, 305891, Note_on_c, 0, 80, 0
5, 306008, Note_on_c, 0, 82, 99
5, 306128, Note_on_c, 0, 82, 0
5, 306252, Note_on_c, 0, 80, 104
5, 306372, Note_on_c, 0, 80, 0
5, 306492, Note_on_c, 0, 78, 103
5, 306612, Note_on_c, 0, 78, 0
5, 306741, Note_on_c, 0, 77, 108
5, 306861, Note_on_c, 0, 77, 0
5, 306963, Note_on_c, 0, 78, 103
5, 307083, Note_on_c, 0, 78, 0
5, 307210, Note_on_c, 0, 75, 108
5, 307330, Note_on_c, 0, 75, 0
5, 307444, Note_on_c, 0, 75, 108
5, 307564, Note_on_c, 0, 75, 0
5, 307689, Note_on_c, 0, 75, 111
5, 307809, Note_on_c, 0, 75, 0
5, 307930, Note_on_c, 0, 77, 111
5, 308050, Note_on_c, 0, 77, 0
5, 308163, Note_on_c, 0, 78, 95
5, 308283, Note_on_c, 0, 78, 0
5, 308420, Note_on_c, 0, 80, 92
5, 308540, Note_on_c, 0, 80, 0
5, 308663, Note_on_c, 0, 82, 91
5, 308783, Note_on_c, 0, 82, 0
5, 308889, Note_on_c, 0, 80, 96
5, 309009, Note_on_c, 0, 80, 0
5, 309125, Note_on_c, 0, 82, 98
5, 309245, Note_on_c, 0, 82, 0
5, 309379, Note_on_c, 0, 80, 110
5, 309499, Note_on_c, 0, 80, 0
5, 309609, Note_on_c, 0, 78, 92
5, 309729, Note_on_c, 0, 78, 0
5, 309840, Note_on_c, 0, 77, 109
5, 309960, Note_on_c, 0, 77, 0
5, 310087, Note_on_c, 0, 75, 98
5, 310207, Note_on_c, 0, 75, 0
5, 310341, Note_on_c, 0, 77, 91
5, 310461, Note_on_c, 0, 77, 0
5, 310579, Note_on_c, 0, 78, 96
5, 310699, Note_on_c, 0, 78, 0
5, 310810, Note_on_c, 0, 80, 104
5, 310930, Note_on_c, 0, 80, 0
5, 311057, Note_on_c, 0, 81, 109
5, 311177, Note_on_c, 0, 81, 0
5, 311301, Note_on_c, 0, 79, 110
5, 311421, Note_on_c, 0, 79, 0
5, 311524, Note_on_c, 0, 81, 99
5, 311644, Note_on_c, 0, 81, 0
5, 311782, Note_on_c, 0, 79, 93
5, 311902, Note_on_c, 0, 79, 0
5, 312015, Note_on_c, 0, 77, 97
5, 312135, Note_on_c, 0, 77, 0
5, 312253, Note_on_c, 0, 76, 111
5, 312373, Note_on_c, 0, 76, 0
5, 312502, Note_on_c, 0, 74, 105
5, 312622, Note_on_c, 0, 74, 0
5, 312725, Note_on_c, 0, 74, 104
5, 312845, Note_on_c, 0, 74, 0
5, 312975, Note_on_c, 0, 74, 99
5, 313095, Note_on_c, 0, 74, 0
5, 313206, Note_on_c, 0, 76, 107
5, 313326, Note_on_c, 0, 76, 0
5, 313447, Note_on_c, 0, 77, 91
5, 313567, Note_on_c, 0, 77, 0
5, 313694, Note_on_c, 0, 79, 93
5, 313814, Note_on_c, 0, 79, 0
5, 324734, Note_on_c, 0, 85, 110
5, 324914, Note_on_c, 0, 85, 0
5, 324962, Note_on_c, 0, 85, 103
5, 325142, Note_on_c, 0, 85, 0
5, 325222, Note_on_c, 0, 85, 96
5, 325402, Note_on_c, 0, 85, 0
5, 325440, Note_on_c, 0, 82, 92
5, 325620, Note_on_c, 0, 82, 0
5, 325681, Note_on_c, 0, 82, 110
5, 325861, Note_on_c, 0, 82, 0
5, 325935, Note_on_c, 0, 82, 91
5, 326115, Note_on_c, 0, 82, 0
5, 326173, Note_on_c, 0, 79, 106
5, 326353, Note_on_c, 0, 79, 0
5, 326417, Note_on_c, 0, 79, 110
5, 326597, Note_on_c, 0, 79, 0
5, 326655, Note_on_c, 0, 79, 95
5, 326835, Note_on_c, 0, 79, 0
5, 326884, Note_on_c, 0, 76, 97
5, 327064, Note_on_c, 0, 76, 0
5, 327123, Note_on_c, 0, 76, 101
5, 327303, Note_on_c, 0, 76, 0
5, 327374, Note_on_c, 0, 76, 92
5, 327554, Note_on_c, 0, 76, 0
5, 327617, Note_on_c, 0, 82, 106
5, 327797, Note_on_c, 0, 82, 0
5, 327857, Note_on_c, 0, 82, 99
5, 328037, Note_on_c, 0, 82, 0
5, 328097, Note_on_c, 0, 82, 93
5, 328277, Note_on_c, 0, 82, 0
5, 328325, Note_on_c, 0, 79, 109
5, 328505, Note_on_c, 0, 79, 0
5, 328565, Note_on_c, 0, 79, 92
5, 328745, Note_on_c, 0, 79, 0
5, 328807, Note_on_c, 0, 79, 92
5, 328987, Note_on_c, 0, 79, 0
5, 329061, Note_on_c, 0, 76, 99
5, 329241, Note_on_c, 0, 76, 0
5, 329296, Note_on_c, 0, 76, 101
5, 329476, Note_on_c, 0, 76, 0
5, 329521, Note_on_c, 0, 76, 95
5, 329701, Note_on_c, 0, 76, 0
5, 329776, Note_on_c, 0, 73, 93
5, 329956, Note_on_c, 0, 73, 0
5, 330006, Note_on_c, 0, 73, 105
5, 330186, Note_on_c, 0, 73, 0
5, 330240, Note_on_c, 0, 73, 96
5, 330420, Note_on_c, 0, 73, 0
5, 330489, Note_on_c, 0, 70, 104
5, 330669, Note_on_c, 0, 70, 0
5, 330720, Note_on_c, 0, 70, 107
5, 330900, Note_on_c, 0, 70, 0
5, 330980, Note_on_c, 0, 70, 109
5, 331160, Note_on_c, 0, 70, 0
5, 331932, Note_on_c, 0, 65, 98
5, 332052, Note_on_c, 0, 65, 0
5, 332171, Note_on_c, 0, 70, 90
5, 332291, Note_on_c, 0, 70, 0
5, 332415, Note_on_c, 0, 65, 95
5, 332535, Note_on_c, 0, 65, 0
5, 332649, Note_on_c, 0, 70, 83
5, 332769, Note_on_c, 0, 70, 0
5, 332891, Note_on_c, 0, 72, 96
5, 333011, Note_on_c, 0, 72, 0
5, 333136, Note_on_c, 0, 75, 79
5, 333256, Note_on_c, 0, 75, 0
5, 333374, Note_on_c, 0, 74, 89
5, 333494, Note_on_c, 0, 74, 0
5, 333603, Note_on_c, 0, 72, 86
5, 333723, Note_on_c, 0, 72, 0
5, 333856, Note_on_c, 0, 70, 78
5, 333976, Note_on_c, 0, 70, 0
5, 334092, Note_on_c, 0, 65, 92
5, 334212, Note_on_c, 0, 65, 0
5, 335040, Note_on_c, 0, 70, 79
5, 335160, Note_on_c, 0, 70, 0
5, 335296, Note_on_c, 0, 65, 92
5, 335416, Note_on_c, 0, 65, 0
5, 335520, Note_on_c, 0, 70, 81
5, 335640, Note_on_c, 0, 70, 0
5, 335762, Note_on_c, 0, 72, 96
5, 335882, Note_on_c, 0, 72, 0
5, 336014, Note_on_c, 0, 75, 85
5, 336134, Note_on_c, 0, 75, 0
5, 336241, Note_on_c, 0, 74, 84
5, 336361, Note_on_c, 0, 74, 0
5, 336496, Note_on_c, 0, 72, 89
5, 336616, Note_on_c, 0, 72, 0
5, 336742, Note_on_c, 0, 70, 88
5, 336862, Note_on_c, 0, 70, 0
5, 336978, Note_on_c, 0, 65, 84
5, 337098, Note_on_c, 0, 65, 0
5, 337212, Note_on_c, 0, 70, 86
5, 337332, Note_on_c, 0, 70, 0
5, 337452, Note_on_c, 0, 75, 90
5, 337572, Note_on_c, 0, 75, 0
5, 337695, Note_on_c, 0, 74, 85
5, 337815, Note_on_c, 0, 74, 0
5, 337936, Note_on_c, 0, 72, 90
5, 338056, Note_on_c, 0, 72, 0
5, 338177, Note_on_c, 0, 70, 85
5, 338297, Note_on_c, 0, 70, 0
5, 338425, Note_on_c, 0, 65, 82
5, 338545, Note_on_c, 0, 65, 0
5, 338656, Note_on_c, 0, 67, 94
5, 338776, Note_on_c, 0, 67, 0
5, 338888, Note_on_c, 0, 70, 87
5, 339008, Note_on_c, 0, 70, 0
5, 339126, Note_on_c, 0, 68, 89
5, 339246, Note_on_c, 0, 68, 0
5, 339374, Note_on_c, 0, 65, 80
5, 339494, Note_on_c, 0, 65, 0
5, 339623, Note_on_c, 0, 65, 86
5, 339743, Note_on_c, 0, 65, 0
5, 358080, Note_on_c, 0, 63, 24
5, 358140, Note_on_c, 0, 65, 30
5, 358170, Note_on_c, 0, 63, 0
5, 358200, Note_on_c, 0, 63, 39
5, 358230, Note_on_c, 0, 65, 0
5, 358260, Note_on_c, 0, 65, 23
5, 358290, Note_on_c, 0, 63, 0
5, 358320, Note_on_c, 0, 63, 39
5, 358350, Note_on_c, 0, 65, 0
5, 358380, Note_on_c, 0, 65, 31
5, 358410, Note_on_c, 0, 63, 0
5, 358440, Note_on_c, 0, 63, 19
5, 358470, Note_on_c, 0, 65, 0
5, 358500, Note_on_c, 0, 65, 21
5, 358530, Note_on_c, 0, 63, 0
5, 358560, Note_on_c, 0, 63, 34
5, 358590, Note_on_c, 0, 65, 0
5, 358620, Note_on_c, 0, 65, 33
5, 358650, Note_on_c, 0, 63, 0
5, 358680, Note_on_c, 0, 63, 23
5, 358710, Note_on_c, 0, 65, 0
5, 358740, Note_on_c, 0, 65, 29
5, 358770, Note_on_c, 0, 63, 0
5, 358800, Note_on_c, 0, 63, 38
5, 358830, Note_on_c, 0, 65, 0
5, 358860, Note_on_c, 0, 65, 35
5, 358890, Note_on_c, 0, 63, 0
5, 358920, Note_on_c, 0, 63, 33
5, 358950, Note_on_c, 0, 65, 0
5, 358980, Note_on_c, 0, 65, 35
5, 359010, Note_on_c, 0, 63, 0
5, 359040, Note_on_c, 0, 63, 36
5, 359070, Note_on_c, 0, 65, 0
5, 359100, Note_on_c, 0, 65, 24
5, 359130, Note_on_c, 0, 63, 0
5, 359160, Note_on_c, 0, 63, 39
5, 359190, Note_on_c, 0, 65, 0
5, 359220, Note_on_c, 0, 65, 32
5, 359250, Note_on_c, 0, 63, 0
5, 359280, Note_on_c, 0, 63, 19
5, 359310, Note_on_c, 0, 65, 0
5, 359340, Note_on_c, 0, 65, 20
5, 359370, Note_on_c, 0, 63, 0
5, 359400, Note_on_c, 0, 63, 39
5, 359430, Note_on_c, 0, 65, 0
5, 359460, Note_on_c, 0, 65, 22
5, 359490, Note_on_c, 0, 63, 0
5, 359520, Note_on_c, 0, 63, 35
5, 359550, Note_on_c, 0, 65, 0
5, 359580, Note_on_c, 0, 65, 39
5, 359610, Note_on_c, 0, 63, 0
5, 359640, Note_on_c, 0, 63, 31
5, 359670, Note_on_c, 0, 65, 0
5, 359700, Note_on_c, 0, 65, 32
5, 359730, Note_on_c, 0, 63, 0
5, 359760, Note_on_c, 0, 63, 35
5, 359790, Note_on_c, 0, 65, 0
5, 359820, Note_on_c, 0, 65, 35
5, 359850, Note_on_c, 0, 63, 0
5, 359880, Note_on_c, 0, 63, 23
5, 359910, Note_on_c, 0, 65, 0
5, 359940, Note_on_c, 0, 65, 25
5, 359970, Note_on_c, 0, 63, 0
5, 360000, Note_on_c, 0, 63, 25
5, 360030, Note_on_c, 0, 65, 0
5, 360060, Note_on_c, 0, 65, 20
5, 360090, Note_on_c, 0, 63, 0
5, 360120, Note_on_c, 0, 63, 34
5, 360150, Note_on_c, 0, 65, 0
5, 360180, Note_on_c, 0, 65, 26
5, 360210, Note_on_c, 0, 63, 0
5, 360240, Note_on_c, 0, 63, 38
5, 360270, Note_on_c, 0, 65, 0
5, 360300, Note_on_c, 0, 65, 34
5, 360330, Note_on_c, 0, 63, 0
5, 360360, Note_on_c, 0, 63, 38
5, 360390, Note_on_c, 0, 65, 0
5, 360420, Note_on_c, 0, 65, 30
5, 360450, Note_on_c, 0, 63, 0
5, 360480, Note_on_c, 0, 63, 37
5, 360510, Note_on_c, 0, 65, 0
5, 360540, Note_on_c, 0, 65, 31
5, 360570, Note_on_c, 0, 63, 0
5, 360600, Note_on_c, 0, 63, 20
5, 360630, Note_on_c, 0, 65, 0
5, 360660, Note_on_c, 0, 65, 33
5, 360690, Note_on_c, 0, 63, 0
5, 360720, Note_on_c, 0, 63, 34
5, 360750, Note_on_c, 0, 65, 0
5, 360780, Note_on_c, 0, 65, 38
5, 360810, Note_on_c, 0, 63, 0
5, 360840, Note_on_c, 0, 63, 28
5, 360870, Note_on_c, 0, 65, 0
5, 360900, Note_on_c, 0, 65, 20
5, 360930, Note_on_c, 0, 63, 0
5, 360960, Note_on_c, 0, 63, 26
5, 360990, Note_on_c, 0, 65, 0
5, 361020, Note_on_c, 0, 65, 26
5, 361050, Note_on_c, 0, 63, 0
5, 361080, Note_on_c, 0, 63, 38
5, 361110, Note_on_c, 0, 65, 0
5, 361140, Note_on_c, 0, 65, 21
5, 361170, Note_on_c, 0, 63, 0
5, 361200, Note_on_c, 0, 63, 22
5, 361230, Note_on_c, 0, 65, 0
5, 361260, Note_on_c, 0, 65, 19
5, 361290, Note_on_c, 0, 63, 0
5, 361320, Note_on_c, 0, 63, 27
5, 361350, Note_on_c, 0, 65, 0
5, 361380, Note_on_c, 0, 65, 36
5, 361410, Note_on_c, 0, 63, 0
5, 361440, Note_on_c, 0, 63, 19
5, 361470, Note_on_c, 0, 65, 0
5, 361500, Note_on_c, 0, 65, 21
5, 361530, Note_on_c, 0, 63, 0
5, 361560, Note_on_c, 0, 63, 29
5, 361590, Note_on_c, 0, 65, 0
5, 361620, Note_on_c, 0, 65, 27
5, 361650, Note_on_c, 0, 63, 0
5, 361680, Note_on_c, 0, 63, 34
5, 361710, Note_on_c, 0, 65, 0
5, 361740, Note_on_c, 0, 65, 20
5, 361770, Note_on_c, 0, 63, 0
5, 361800, Note_on_c, 0, 63, 35
5, 361830, Note_on_c, 0, 65, 0
5, 361860, Note_on_c, 0, 65, 22
5, 361890, Note_on_c, 0, 63, 0
5, 361920, Note_on_c, 0, 63, 22
5, 361950, Note_on_c, 0, 65, 0
5, 361980, Note_on_c, 0, 65, 22
5, 362010, Note_on_c, 0, 63, 0
5, 362040, Note_on_c, 0, 63, 24
5, 362070, Note_on_c, 0, 65, 0
5, 362100, Note_on_c, 0, 65, 29
5, 362130, Note_on_c, 0, 63, 0
5, 362160, Note_on_c, 0, 63, 25
5, 362190, Note_on_c, 0, 65, 0
5, 362220, Note_on_c, 0, 65, 31
5, 362250, Note_on_c, 0, 63, 0
5, 362280, Note_on_c, 0, 63, 32
5, 362310, Note_on_c, 0, 65, 0
5, 362340, Note_on_c, 0, 65, 31
5, 362370, Note_on_c, 0, 63, 0
5, 362400, Note_on_c, 0, 63, 35
5, 362430, Note_on_c, 0, 65, 0
5, 362460, Note_on_c, 0, 65, 30
5, 362490, Note_on_c, 0, 63, 0
5, 362520, Note_on_c, 0, 63, 28
5, 362550, Note_on_c, 0, 65, 0
5, 362580, Note_on_c, 0, 65, 38
5, 362610, Note_on_c, 0, 63, 0
5, 362640, Note_on_c, 0, 63, 23
5, 362670, Note_on_c, 0, 65, 0
5, 362700, Note_on_c, 0, 65, 23
5, 362730, Note_on_c, 0, 63, 0
5, 362760, Note_on_c, 0, 63, 29
5, 362790, Note_on_c, 0, 65, 0
5, 362820, Note_on_c, 0, 65, 30
5, 362850, Note_on_c, 0, 63, 0
5, 362880, Note_on_c, 0, 63, 20
5, 362910, Note_on_c, 0, 65, 0
5, 362940, Note_on_c, 0, 65, 24
5, 362970, Note_on_c, 0, 63, 0
5, 363000, Note_on_c, 0, 63, 27
5, 363030, Note_on_c, 0, 65, 0
5, 363060, Note_on_c, 0, 65, 24
5, 363090, Note_on_c, 0, 63, 0
5, 363120, Note_on_c, 0, 63, 38
5, 363150, Note_on_c, 0, 65, 0
5, 363180, Note_on_c, 0, 65, 27
5, 363210, Note_on_c, 0, 63, 0
5, 363240, Note_on_c, 0, 63, 28
5, 363270, Note_on_c, 0, 65, 0
5, 363300, Note_on_c, 0, 65, 39
5, 363330, Note_on_c, 0, 63, 0
5, 363360, Note_on_c, 0, 63, 20
5, 363390, Note_on_c, 0, 65, 0
5, 363420, Note_on_c, 0, 65, 29
5, 363450, Note_on_c, 0, 63, 0
5, 363480, Note_on_c, 0, 63, 33
5, 363510, Note_on_c, 0, 65, 0
5, 363540, Note_on_c, 0, 65, 28
5, 363570, Note_on_c, 0, 63, 0
5, 363600, Note_on_c, 0, 63, 22
5, 363630, Note_on_c, 0, 65, 0
5, 363660, Note_on_c, 0, 65, 29
5, 363690, Note_on_c, 0, 63, 0
5, 363720, Note_on_c, 0, 63, 21
5, 363750, Note_on_c, 0, 65, 0
5, 363780, Note_on_c, 0, 65, 39
5, 363810, Note_on_c, 0, 63, 0
5, 363840, Note_on_c, 0, 63, 24
5, 363870, Note_on_c, 0, 65, 0
5, 363900, Note_on_c, 0, 65, 26
5, 363930, Note_on_c, 0, 63, 0
5, 363960, Note_on_c, 0, 63, 35
5, 363990, Note_on_c, 0, 65, 0
5, 364020, Note_on_c, 0, 65, 20
5, 364050, Note_on_c, 0, 63, 0
5, 364080, Note_on_c, 0, 63, 21
5, 364110, Note_on_c, 0, 65, 0
5, 364140, Note_on_c, 0, 65, 28
5, 364170, Note_on_c, 0, 63, 0
5, 364200, Note_on_c, 0, 63, 32
5, 364230, Note_on_c, 0, 65, 0
5, 364260, Note_on_c, 0, 65, 19
5, 364290, Note_on_c, 0, 63, 0
5, 364320, Note_on_c, 0, 63, 25
5, 364350, Note_on_c, 0, 65, 0
5, 364380, Note_on_c, 0, 65, 22
5, 364410, Note_on_c, 0, 63, 0
5, 364440, Note_on_c, 0, 63, 37
5, 364470, Note_on_c, 0, 65, 0
5, 364500, Note_on_c, 0, 65, 29
5, 364530, Note_on_c, 0, 63, 0
5, 364560, Note_on_c, 0, 63, 38
5, 364590, Note_on_c, 0, 65, 0
5, 364620, Note_on_c, 0, 65, 31
5, 364650, Note_on_c, 0, 63, 0
5, 364680, Note_on_c, 0, 63, 34
5, 364710, Note_on_c, 0, 65, 0
5, 364740, Note_on_c, 0, 65, 22
5, 364770, Note_on_c, 0, 63, 0
5, 364800, Note_on_c, 0, 63, 27
5, 364830, Note_on_c, 0, 65, 0
5, 364860, Note_on_c, 0, 65, 36
5, 364890, Note_on_c, 0, 63, 0
5, 364920, Note_on_c, 0, 63, 30
5, 364950, Note_on_c, 0, 65, 0
5, 364980, Note_on_c, 0, 65, 23
5, 365010, Note_on_c, 0, 63, 0
5, 365040, Note_on_c, 0, 63, 34
5, 365070, Note_on_c, 0, 65, 0
5, 365100, Note_on_c, 0, 65, 29
5, 365130, Note_on_c, 0, 63, 0
5, 365160, Note_on_c, 0, 63, 29
5, 365190, Note_on_c, 0, 65, 0
5, 365220, Note_on_c, 0, 65, 23
5, 365250, Note_on_c, 0, 63, 0
5, 365280, Note_on_c, 0, 63, 34
5, 365310, Note_on_c, 0, 65, 0
5, 365340, Note_on_c, 0, 65, 34
5, 365370, Note_on_c, 0, 63, 0
5, 365400, Note_on_c, 0, 63, 39
5, 365430, Note_on_c, 0, 65, 0
5, 365460, Note_on_c, 0, 65, 31
5, 365490, Note_on_c, 0, 63, 0
5, 365520, Note_on_c, 0, 63, 34
5, 365550, Note_on_c, 0, 65, 0
5, 365580, Note_on_c, 0, 65, 21
5, 365610, Note_on_c, 0, 63, 0
5, 365640, Note_on_c, 0, 63, 28
5, 365670, Note_on_c, 0, 65, 0
5, 365700, Note_on_c, 0, 65, 39
5, 365730, Note_on_c, 0, 63, 0
5, 365760, Note_on_c, 0, 63, 19
5, 365790, Note_on_c, 0, 65, 0
5, 365820, Note_on_c, 0, 65, 21
5, 365850, Note_on_c, 0, 63, 0
5, 365880, Note_on_c, 0, 63, 20
5, 365910, Note_on_c, 0, 65, 0
5, 365940, Note_on_c, 0, 65, 20
5, 365970, Note_on_c, 0, 63, 0
5, 366000, Note_on_c, 0, 63, 22
5, 366030, Note_on_c, 0, 65, 0
5, 366060, Note_on_c, 0, 65, 23
5, 366090, Note_on_c, 0, 63, 0
5, 366120, Note_on_c, 0, 63, 34
5, 366150, Note_on_c, 0, 65, 0
5, 366180, Note_on_c, 0, 65, 21
5, 366210, Note_on_c, 0, 63, 0
5, 366240, Note_on_c, 0, 63, 22
5, 366270, Note_on_c, 0, 65, 0
5, 366300, Note_on_c, 0, 65, 35
5, 366330, Note_on_c, 0, 63, 0
5, 366360, Note_on_c, 0, 63, 28
5, 366390, Note_on_c, 0, 65, 0
5, 366420, Note_on_c, 0, 65, 32
5, 366450, Note_on_c, 0, 63, 0
5, 366480, Note_on_c, 0, 63, 38
5, 366510, Note_on_c, 0, 65, 0
5, 366540, Note_on_c, 0, 65, 30
5, 366570, Note_on_c, 0, 63, 0
5, 366600, Note_on_c, 0, 63, 27
5, 366630, Note_on_c, 0, 65, 0
5, 366660, Note_on_c, 0, 65, 36
5, 366690, Note_on_c, 0, 63, 0
5, 366720, Note_on_c, 0, 63, 20
5, 366750, Note_on_c, 0, 65, 0
5, 366780, Note_on_c, 0, 65, 34
5, 366810, Note_on_c, 0, 63, 0
5, 366840, Note_on_c, 0, 63, 28
5, 366870, Note_on_c, 0, 65, 0
5, 366900, Note_on_c, 0, 65, 24
5, 366930, Note_on_c, 0, 63, 0
5, 366960, Note_on_c, 0, 63, 21
5, 366990, Note_on_c, 0, 65, 0
5, 367020, Note_on_c, 0, 65, 25
5, 367050, Note_on_c, 0, 63, 0
5, 367080, Note_on_c, 0, 63, 36
5, 367110, Note_on_c, 0, 65, 0
5, 367140, Note_on_c, 0, 65, 39
5, 367170, Note_on_c, 0, 63, 0
5, 367200, Note_on_c, 0, 63, 33
5, 367230, Note_on_c, 0, 65, 0
5, 367260, Note_on_c, 0, 65, 36
5, 367290, Note_on_c, 0, 63, 0
5, 367320, Note_on_c, 0, 63, 31
5, 367350, Note_on_c, 0, 65, 0
5, 367380, Note_on_c, 0, 65, 30
5, 367410, Note_on_c, 0, 63, 0
5, 367440, Note_on_c, 0, 63, 36
5, 367470, Note_on_c, 0, 65, 0
5, 367500, Note_on_c, 0, 65, 20
5, 367530, Note_on_c, 0, 63, 0
5, 367560, Note_on_c, 0, 63, 32
5, 367590, Note_on_c, 0, 65, 0
5, 367620, Note_on_c, 0, 65, 29
5, 367650, Note_on_c, 0, 63, 0
5, 367680, Note_on_c, 0, 63, 25
5, 367710, Note_on_c, 0, 65, 0
5, 367740, Note_on_c, 0, 65, 26
5, 367770, Note_on_c, 0, 63, 0
5, 367800, Note_on_c, 0, 63, 22
5, 367830, Note_on_c, 0, 65, 0
5, 367860, Note_on_c, 0, 65, 24
5, 367890, Note_on_c, 0, 63, 0
5, 367920, Note_on_c, 0, 63, 21
5, 367950, Note_on_c, 0, 65, 0
5, 367980, Note_on_c, 0, 65, 38
5, 368010, Note_on_c, 0, 63, 0
5, 368040, Note_on_c, 0, 63, 29
5, 368070, Note_on_c, 0, 65, 0
5, 368100, Note_on_c, 0, 65, 23
5, 368130, Note_on_c, 0, 63, 0
5, 368160, Note_on_c, 0, 63, 26
5, 368190, Note_on_c, 0, 65, 0
5, 368220, Note_on_c, 0, 65, 24
5, 368250, Note_on_c, 0, 63, 0
5, 368280, Note_on_c, 0, 63, 33
5, 368310, Note_on_c, 0, 65, 0
5, 368340, Note_on_c, 0, 65, 39
5, 368370, Note_on_c, 0, 63, 0
5, 368400, Note_on_c, 0, 63, 31
5, 368430, Note_on_c, 0, 65, 0
5, 368460, Note_on_c, 0, 65, 37
5, 368490, Note_on_c, 0, 63, 0
5, 368520, Note_on_c, 0, 63, 30
5, 368550, Note_on_c, 0, 65, 0
5, 368580, Note_on_c, 0, 65, 20
5, 368610, Note_on_c, 0, 63, 0
5, 368640, Note_on_c, 0, 63, 37
5, 368670, Note_on_c, 0, 65, 0
5, 368700, Note_on_c, 0, 65, 37
5, 368730, Note_on_c, 0, 63, 0
5, 368760, Note_on_c, 0, 63, 34
5, 368790, Note_on_c, 0, 65, 0
5, 368820, Note_on_c, 0, 65, 37
5, 368850, Note_on_c, 0, 63, 0
5, 368880, Note_on_c, 0, 63, 22
5, 368910, Note_on_c, 0, 65, 0
5, 368940, Note_on_c, 0, 65, 37
5, 368970, Note_on_c, 0, 63, 0
5, 369000, Note_on_c, 0, 63, 37
5, 369030, Note_on_c, 0, 65, 0
5, 369060, Note_on_c, 0, 65, 37
5, 369090, Note_on_c, 0, 63, 0
5, 369120, Note_on_c, 0, 63, 32
5, 369150, Note_on_c, 0, 65, 0
5, 369180, Note_on_c, 0, 65, 25
5, 369210, Note_on_c, 0, 63, 0
5, 369240, Note_on_c, 0, 63, 33
5, 369270, Note_on_c, 0, 65, 0
5, 369300, Note_on_c, 0, 65, 20
5, 369330, Note_on_c, 0, 63, 0
5, 369360, Note_on_c, 0, 63, 22
5, 369390, Note_on_c, 0, 65, 0
5, 369420, Note_on_c, 0, 65, 27
5, 369450, Note_on_c, 0, 63, 0
5, 369480, Note_on_c, 0, 63, 28
5, 369510, Note_on_c, 0, 65, 0
5, 369540, Note_on_c, 0, 65, 37
5, 369570, Note_on_c, 0, 63, 0
5, 369600, Note_on_c, 0, 63, 37
5, 369630, Note_on_c, 0, 65, 0
5, 369660, Note_on_c, 0, 65, 25
5, 369690, Note_on_c, 0, 63, 0
5, 369720, Note_on_c, 0, 63, 25
5, 369750, Note_on_c, 0, 65, 0
5, 369780, Note_on_c, 0, 65, 23
5, 369810, Note_on_c, 0, 63, 0
5, 369840, Note_on_c, 0, 63, 37
5, 369870, Note_on_c, 0, 65, 0
5, 369900, Note_on_c, 0, 65, 39
5, 369930, Note_on_c, 0, 63, 0
5, 369960, Note_on_c, 0, 63, 24
5, 369990, Note_on_c, 0, 65, 0
5, 370020, Note_on_c, 0, 65, 28
5, 370050, Note_on_c, 0, 63, 0
5, 370080, Note_on_c, 0, 63, 30
5, 370110, Note_on_c, 0, 65, 0
5, 370140, Note_on_c, 0, 65, 33
5, 370170, Note_on_c, 0, 63, 0
5, 370200, Note_on_c, 0, 63, 30
5, 370230, Note_on_c, 0, 65, 0
5, 370260, Note_on_c, 0, 65, 38
5, 370290, Note_on_c, 0, 63, 0
5, 370320, Note_on_c, 0, 63, 34
5, 370350, Note_on_c, 0, 65, 0
5, 370380, Note_on_c, 0, 65, 22
5, 370410, Note_on_c, 0, 63, 0
5, 370440, Note_on_c, 0, 63, 26
5, 370470, Note_on_c, 0, 65, 0
5, 370500, Note_on_c, 0, 65, 38
5, 370530, Note_on_c, 0, 63, 0
5, 370560, Note_on_c, 0, 63, 23
5, 370590, Note_on_c, 0, 65, 0
5, 370620, Note_on_c, 0, 65, 20
5, 370650, Note_on_c, 0, 63, 0
5, 370680, Note_on_c, 0, 63, 25
5, 370710, Note_on_c, 0, 65, 0
5, 370740, Note_on_c, 0, 65, 22
5, 370770, Note_on_c, 0, 63, 0
5, 370800, Note_on_c, 0, 63, 25
5, 370830, Note_on_c, 0, 65, 0
5, 370860, Note_on_c, 0, 65, 19
5, 370890, Note_on_c, 0, 63, 0
5, 370920, Note_on_c, 0, 63, 27
5, 370950, Note_on_c, 0, 65, 0
5, 370980, Note_on_c, 0, 65, 26
5, 371010, Note_on_c, 0, 63, 0
5, 371040, Note_on_c, 0, 63, 20
5, 371070, Note_on_c, 0, 65, 0
5, 371100, Note_on_c, 0, 65, 24
5, 371130, Note_on_c, 0, 63, 0
5, 371160, Note_on_c, 0, 63, 36
5, 371190, Note_on_c, 0, 65, 0
5, 371220, Note_on_c, 0, 65, 27
5, 371250, Note_on_c, 0, 63, 0
5, 371280, Note_on_c, 0, 63, 32
5, 371310, Note_on_c, 0, 65, 0
5, 371340, Note_on_c, 0, 65, 24
5, 371370, Note_on_c, 0, 63, 0
5, 371400, Note_on_c, 0, 63, 39
5, 371430, Note_on_c, 0, 65, 0
5, 371460, Note_on_c, 0, 65, 29
5, 371490, Note_on_c, 0, 63, 0
5, 371520, Note_on_c, 0, 63, 26
5, 371550, Note_on_c, 0, 65, 0
5, 371580, Note_on_c, 0, 65, 34
5, 371610, Note_on_c, 0, 63, 0
5, 371640, Note_on_c, 0, 63, 24
5, 371670, Note_on_c, 0, 65, 0
5, 371700, Note_on_c, 0, 65, 24
5, 371730, Note_on_c, 0, 63, 0
5, 371760, Note_on_c, 0, 63, 29
5, 371790, Note_on_c, 0, 65, 0
5, 371820, Note_on_c, 0, 65, 30
5, 371850, Note_on_c, 0, 63, 0
5, 371880, Note_on_c, 0, 63, 25
5, 371910, Note_on_c, 0, 65, 0
5, 371940, Note_on_c, 0, 65, 21
5, 371970, Note_on_c, 0, 63, 0
5, 372000, Note_on_c, 0, 63, 30
5, 372030, Note_on_c, 0, 65, 0
5, 372060, Note_on_c, 0, 65, 38
5, 372090, Note_on_c, 0, 63, 0
5, 372120, Note_on_c, 0, 63, 34
5, 372150, Note_on_c, 0, 65, 0
5, 372180, Note_on_c, 0, 65, 20
5, 372210, Note_on_c, 0, 63, 0
5, 372240, Note_on_c, 0, 63, 19
5, 372270, Note_on_c, 0, 65, 0
5, 372300, Note_on_c, 0, 65, 26
5, 372330, Note_on_c, 0, 63, 0
5, 372360, Note_on_c, 0, 63, 23
5, 372390, Note_on_c, 0, 65, 0
5, 372420, Note_on_c, 0, 65, 26
5, 372450, Note_on_c, 0, 63, 0
5, 372480, Note_on_c, 0, 63, 20
5, 372510, Note_on_c, 0, 65, 0
5, 372540, Note_on_c, 0, 65, 33
5, 372570, Note_on_c, 0, 63, 0
5, 372600, Note_on_c, 0, 63, 38
5, 372630, Note_on_c, 0, 65, 0
5, 372660, Note_on_c, 0, 65, 25
5, 372690, Note_on_c, 0, 63, 0
5, 372720, Note_on_c, 0, 63, 32
5, 372750, Note_on_c, 0, 65, 0
5, 372780, Note_on_c, 0, 65, 22
5, 372810, Note_on_c, 0, 63, 0
5, 372840, Note_on_c, 0, 63, 38
5, 372870, Note_on_c, 0, 65, 0
5, 372900, Note_on_c, 0, 65, 36
5, 372930, Note_on_c, 0, 63, 0
5, 372960, Note_on_c, 0, 63, 29
5, 372990, Note_on_c, 0, 65, 0
5, 373020, Note_on_c, 0, 65, 39
5, 373050, Note_on_c, 0, 63, 0
5, 373080, Note_on_c, 0, 63, 22
5, 373110, Note_on_c, 0, 65, 0
5, 373140, Note_on_c, 0, 65, 19
5, 373170, Note_on_c, 0, 63, 0
5, 373200, Note_on_c, 0, 63, 27
5, 373230, Note_on_c, 0, 65, 0
5, 373260, Note_on_c, 0, 65, 27
5, 373290, Note_on_c, 0, 63, 0
5, 373320, Note_on_c, 0, 63, 33
5, 373350, Note_on_c, 0, 65, 0
5, 373380, Note_on_c, 0, 65, 20
5, 373410, Note_on_c, 0, 63, 0
5, 373440, Note_on_c, 0, 63, 19
5, 373470, Note_on_c, 0, 65, 0
5, 373500, Note_on_c, 0, 65, 32
5, 373530, Note_on_c, 0, 63, 0
5, 373560, Note_on_c, 0, 63, 37
5, 373590, Note_on_c, 0, 65, 0
5, 373620, Note_on_c, 0, 65, 33
5, 373650, Note_on_c, 0, 63, 0
5, 373680, Note_on_c, 0, 63, 35
5, 373710, Note_on_c, 0, 65, 0
5, 373740, Note_on_c, 0, 65, 20
5, 373770, Note_on_c, 0, 63, 0
5, 373800, Note_on_c, 0, 63, 30
5, 373830, Note_on_c, 0, 65, 0
5, 373860, Note_on_c, 0, 65, 20
5, 373890, Note_on_c, 0, 63, 0
5, 373920, Note_on_c, 0, 63, 19
5, 373950, Note_on_c, 0, 65, 0
5, 373980, Note_on_c, 0, 65, 20
5, 374010, Note_on_c, 0, 63, 0
5, 374040, Note_on_c, 0, 63, 31
5, 374070, Note_on_c, 0, 65, 0
5, 374100, Note_on_c, 0, 65, 35
5, 374130, Note_on_c, 0, 63, 0
5, 374160, Note_on_c, 0, 63, 35
5, 374190, Note_on_c, 0, 65, 0
5, 374220, Note_on_c, 0, 65, 19
5, 374250, Note_on_c, 0, 63, 0
5, 374280, Note_on_c, 0, 63, 29
5, 374310, Note_on_c, 0, 65, 0
5, 374340, Note_on_c, 0, 65, 34
5, 374370, Note_on_c, 0, 63, 0
5, 374400, Note_on_c, 0, 63, 24
5, 374430, Note_on_c, 0, 65, 0
5, 374460, Note_on_c, 0, 65, 33
5, 374490, Note_on_c, 0, 63, 0
5, 374520, Note_on_c, 0, 63, 29
5, 374550, Note_on_c, 0, 65, 0
5, 374580, Note_on_c, 0, 65, 25
5, 374610, Note_on_c, 0, 63, 0
5, 374640, Note_on_c, 0, 63, 39
5, 374670, Note_on_c, 0, 65, 0
5, 374700, Note_on_c, 0, 65, 23
5, 374730, Note_on_c, 0, 63, 0
5, 374760, Note_on_c, 0, 63, 27
5, 374790, Note_on_c, 0, 65, 0
5, 374820, Note_on_c, 0, 65, 27
5, 374850, Note_on_c, 0, 63, 0
5, 374880, Note_on_c, 0, 63, 25
5, 374910, Note_on_c, 0, 65, 0
5, 374940, Note_on_c, 0, 65, 39
5, 374970, Note_on_c, 0, 63, 0
5, 375000, Note_on_c, 0, 63, 24
5, 375030, Note_on_c, 0, 65, 0
5, 375060, Note_on_c, 0, 65, 39
5, 375090, Note_on_c, 0, 63, 0
5, 375120, Note_on_c, 0, 63, 19
5, 375150, Note_on_c, 0, 65, 0
5, 375180, Note_on_c, 0, 65, 39
5, 375210, Note_on_c, 0, 63, 0
5, 375240, Note_on_c, 0, 63, 21
5, 375270, Note_on_c, 0, 65, 0
5, 375300, Note_on_c, 0, 65, 30
5, 375330, Note_on_c, 0, 63, 0
5, 375360, Note_on_c, 0, 63, 19
5, 375390, Note_on_c, 0, 65, 0
5, 375420, Note_on_c, 0, 65, 35
5, 375450, Note_on_c, 0, 63, 0
5, 375480, Note_on_c, 0, 63, 33
5, 375510, Note_on_c, 0, 65, 0
5, 375540, Note_on_c, 0, 65, 27
5, 375570, Note_on_c, 0, 63, 0
5, 375600, Note_on_c, 0, 63, 39
5, 375630, Note_on_c, 0, 65, 0
5, 375660, Note_on_c, 0, 65, 29
5, 375690, Note_on_c, 0, 63, 0
5, 375720, Note_on_c, 0, 63, 26
5, 375750, Note_on_c, 0, 65, 0
5, 375780, Note_on_c, 0, 65, 27
5, 375810, Note_on_c, 0, 63, 0
5, 375840, Note_on_c, 0, 63, 31
5, 375870, Note_on_c, 0, 65, 0
5, 375900, Note_on_c, 0, 65, 32
5, 375930, Note_on_c, 0, 63, 0
5, 375960, Note_on_c, 0, 63, 23
5, 375990, Note_on_c, 0, 65, 0
5, 376020, Note_on_c, 0, 65, 30
5, 376050, Note_on_c, 0, 63, 0
5, 376080, Note_on_c, 0, 63, 37
5, 376110, Note_on_c, 0, 65, 0
5, 376140, Note_on_c, 0, 65, 32
5, 376170, Note_on_c, 0, 63, 0
5, 376200, Note_on_c, 0, 63, 23
5, 376230, Note_on_c, 0, 65, 0
5, 376260, Note_on_c, 0, 65, 26
5, 376290, Note_on_c, 0, 63, 0
5, 376320, Note_on_c, 0, 63, 25
5, 376350, Note_on_c, 0, 65, 0
5, 376380, Note_on_c, 0, 65, 29
5, 376410, Note_on_c, 0, 63, 0
5, 376440, Note_on_c, 0, 63, 35
5, 376470, Note_on_c, 0, 65, 0
5, 376500, Note_on_c, 0, 65, 24
5, 376530, Note_on_c, 0, 63, 0
5, 376560, Note_on_c, 0, 63, 23
5, 376590, Note_on_c, 0, 65, 0
5, 376620, Note_on_c, 0, 65, 20
5, 376650, Note_on_c, 0, 63, 0
5, 376680, Note_on_c, 0, 63, 26
5, 376710, Note_on_c, 0, 65, 0
5, 376740, Note_on_c, 0, 65, 30
5, 376770, Note_on_c, 0, 63, 0
5, 376800, Note_on_c, 0, 63, 37
5, 376830, Note_on_c, 0, 65, 0
5, 376860, Note_on_c, 0, 65, 31
5, 376890, Note_on_c, 0, 63, 0
5, 376920, Note_on_c, 0, 63, 19
5, 376950, Note_on_c, 0, 65, 0
5, 376980, Note_on_c, 0, 65, 33
5, 377010, Note_on_c, 0, 63, 0
5, 377040, Note_on_c, 0, 63, 33
5, 377070, Note_on_c, 0, 65, 0
5, 377100, Note_on_c, 0, 65, 37
5, 377130, Note_on_c, 0, 63, 0
5, 377160, Note_on_c, 0, 63, 33
5, 377190, Note_on_c, 0, 65, 0
5, 377220, Note_on_c, 0, 65, 38
5, 377250, Note_on_c, 0, 63, 0
5, 377280, Note_on_c, 0, 63, 30
5, 377310, Note_on_c, 0, 65, 0
5, 377340, Note_on_c, 0, 65, 33
5, 377370, Note_on_c, 0, 63, 0
5, 377400, Note_on_c, 0, 63, 29
5, 377430, Note_on_c, 0, 65, 0
5, 377460, Note_on_c, 0, 65, 29
5, 377490, Note_on_c, 0, 63, 0
5, 377520, Note_on_c, 0, 63, 28
5, 377550, Note_on_c, 0, 65, 0
5, 377580, Note_on_c, 0, 65, 25
5, 377610, Note_on_c, 0, 63, 0
5, 377640, Note_on_c, 0, 63, 21
5, 377670, Note_on_c, 0, 65, 0
5, 377700, Note_on_c, 0, 65, 25
5, 377730, Note_on_c, 0, 63, 0
5, 377760, Note_on_c, 0, 63, 25
5, 377790, Note_on_c, 0, 65, 0
5, 377820, Note_on_c, 0, 65, 24
5, 377850, Note_on_c, 0, 63, 0
5, 377880, Note_on_c, 0, 63, 23
5, 377910, Note_on_c, 0, 65, 0
5, 377940, Note_on_c, 0, 65, 22
5, 377970, Note_on_c, 0, 63, 0
5, 378000, Note_on_c, 0, 63, 21
5, 378030, Note_on_c, 0, 65, 0
5, 378060, Note_on_c, 0, 65, 20
5, 378090, Note_on_c, 0, 63, 0
5, 378120, Note_on_c, 0, 63, 19
5, 378150, Note_on_c, 0, 65, 0
5, 378180, Note_on_c, 0, 65, 19
5, 378210, Note_on_c, 0, 63, 0
5, 378240, Note_on_c, 0, 63, 18
5, 378270, Note_on_c, 0, 65, 0
5, 378300, Note_on_c, 0, 65, 17
5, 378330, Note_on_c, 0, 63, 0
5, 378360, Note_on_c, 0, 63, 16
5, 378390, Note_on_c, 0, 65, 0
5, 378420, Note_on_c, 0, 65, 15
5, 378450, Note_on_c, 0, 63, 0
5, 378480, Note_on_c, 0, 63, 14
5, 378510, Note_on_c, 0, 65, 0
5, 378540, Note_on_c, 0, 65, 13
5, 378570, Note_on_c, 0, 63, 0
5, 378600, Note_on_c, 0, 63, 13
5, 378630, Note_on_c, 0, 65, 0
5, 378660, Note_on_c, 0, 65, 12
5, 378690, Note_on_c, 0, 63, 0
5, 378750, Note_on_c, 0, 65, 0
5, 397941, Note_on_c, 0, 58, 67
5, 398301, Note_on_c, 0, 58, 0
5, 398425, Note_on_c, 0, 58, 82
5, 398785, Note_on_c, 0, 58, 0
5, 398892, Note_on_c, 0, 58, 77
5, 399252, Note_on_c, 0, 58, 0
5, 399383, Note_on_c, 0, 60, 71
5, 399617, Note_on_c, 0, 61, 73
5, 399623, Note_on_c, 0, 60, 0
5, 399846, Note_on_c, 0, 63, 81
5, 399857, Note_on_c, 0, 61, 0
5, 400326, Note_on_c, 0, 63, 0
5, 400344, Note_on_c, 0, 61, 76
5, 400823, Note_on_c, 0, 60, 82
5, 400824, Note_on_c, 0, 61, 0
5, 401303, Note_on_c, 0, 60, 0
5, 403223, Note_on_c, 0, 60, 70
5, 403463, Note_on_c, 0, 60, 0
5, 403465, Note_on_c, 0, 61, 70
5, 403701, Note_on_c, 0, 63, 68
5, 403705, Note_on_c, 0, 61, 0
5, 404163, Note_on_c, 0, 61, 76
5, 404181, Note_on_c, 0, 63, 0
5, 404643, Note_on_c, 0, 61, 0
5, 404645, Note_on_c, 0, 60, 79
5, 405125, Note_on_c, 0, 60, 0
5, 405129, Note_on_c, 0, 58, 82
5, 405489, Note_on_c, 0, 58, 0
5, 405625, Note_on_c, 0, 58, 84
5, 405985, Note_on_c, 0, 58, 0
5, 406091, Note_on_c, 0, 60, 81
5, 406331, Note_on_c, 0, 60, 0
5, 406332, Note_on_c, 0, 61, 77
5, 406560, Note_on_c, 0, 63, 68
5, 406572, Note_on_c, 0, 61, 0
5, 407040, Note_on_c, 0, 63, 0
5, 407542, Note_on_c, 0, 58, 84
5, 407902, Note_on_c, 0, 58, 0
5, 408014, Note_on_c, 0, 58, 68
5, 408374, Note_on_c, 0, 58, 0
5, 408484, Note_on_c, 0, 58, 74
5, 408844, Note_on_c, 0, 58, 0
5, 408982, Note_on_c, 0, 60, 69
5, 409210, Note_on_c, 0, 61, 74
5, 409222, Note_on_c, 0, 60, 0
5, 409450, Note_on_c, 0, 61, 0
5, 409458, Note_on_c, 0, 63, 66
5, 409938, Note_on_c, 0, 63, 0
5, 409943, Note_on_c, 0, 61, 68
5, 410421, Note_on_c, 0, 60, 82
5, 410423, Note_on_c, 0, 61, 0
5, 410896, Note_on_c, 0, 58, 74
5, 410901, Note_on_c, 0, 60, 0
5, 411256, Note_on_c, 0, 58, 0
5, 411376, Note_on_c, 0, 58, 72
5, 411736, Note_on_c, 0, 58, 0
5, 411844, Note_on_c, 0, 60, 84
5, 412084, Note_on_c, 0, 60, 0
5, 412096, Note_on_c, 0, 61, 76
5, 412333, Note_on_c, 0, 63, 69
5, 412336, Note_on_c, 0, 61, 0
5, 412813, Note_on_c, 0, 63, 0
5, 412823, Note_on_c, 0, 61, 72
5, 413303, Note_on_c, 0, 61, 0
5, 413305, Note_on_c, 0, 60, 77
5, 413764, Note_on_c, 0, 58, 82
5, 413785, Note_on_c, 0, 60, 0
5, 414124, Note_on_c, 0, 58, 0
5, 414252, Note_on_c, 0, 58, 72
5, 414612, Note_on_c, 0, 58, 0
5, 414733, Note_on_c, 0, 60, 73
5, 414973, Note_on_c, 0, 60, 0
5, 414973, Note_on_c, 0, 61, 82
5, 415204, Note_on_c, 0, 63, 85
5, 415213, Note_on_c, 0, 61, 0
5, 415684, Note_on_c, 0, 63, 0
5, 427216, Note_on_c, 0, 70, 96
5, 427576, Note_on_c, 0, 70, 0
5, 427705, Note_on_c, 0, 70, 100
5, 428065, Note_on_c, 0, 70, 0
5, 428177, Note_on_c, 0, 70, 93
5, 428537, Note_on_c, 0, 70, 0
5, 428647, Note_on_c, 0, 72, 99
5, 428887, Note_on_c, 0, 72, 0
5, 428890, Note_on_c, 0, 73, 111
5, 429130, Note_on_c, 0, 73, 0
5, 429142, Note_on_c, 0, 75, 92
5, 429608, Note_on_c, 0, 73, 101
5, 429622, Note_on_c, 0, 75, 0
5, 430080, Note_on_c, 0, 72, 108
5, 430088, Note_on_c, 0, 73, 0
5, 430560, Note_on_c, 0, 72, 0
5, 430568, Note_on_c, 0, 70, 97
5, 430928, Note_on_c, 0, 70, 0
5, 431051, Note_on_c, 0, 70, 110
5, 431411, Note_on_c, 0, 70, 0
5, 431526, Note_on_c, 0, 72, 108
5, 431766, Note_on_c, 0, 72, 0
5, 431775, Note_on_c, 0, 73, 100
5, 432003, Note_on_c, 0, 75, 100
5, 432015, Note_on_c, 0, 73, 0
5, 432483, Note_on_c, 0, 75, 0
5, 432489, Note_on_c, 0, 70, 98
5, 432849, Note_on_c, 0, 70, 0
5, 432972, Note_on_c, 0, 70, 92
5, 433332, Note_on_c, 0, 70, 0
5, 433443, Note_on_c, 0, 70, 109
5, 433803, Note_on_c, 0, 70, 0
5, 433936, Note_on_c, 0, 72, 94
5, 434169, Note_on_c, 0, 73, 91
5, 434176, Note_on_c, 0, 72, 0
5, 434409, Note_on_c, 0, 73, 0
5, 434411, Note_on_c, 0, 75, 97
5, 434891, Note_on_c, 0, 75, 0
5, 435371, Note_on_c, 0, 70, 92
5, 435731, Note_on_c, 0, 70, 0
5, 435846, Note_on_c, 0, 70, 109
5, 436206, Note_on_c, 0, 70, 0
5, 436341, Note_on_c, 0, 70, 107
5, 436701, Note_on_c, 0, 70, 0
5, 436801, Note_on_c, 0, 70, 108
5, 437161, Note_on_c, 0, 70, 0
5, 437299, Note_on_c, 0, 70, 106
5, 437659, Note_on_c, 0, 70, 0
5, 437770, Note_on_c, 0, 70, 104
5, 438130, Note_on_c, 0, 70, 0
5, 438735, Note_on_c, 0, 71, 116
5, 439095, Note_on_c, 0, 71, 0
5, 439215, Note_on_c, 0, 71, 104
5, 439575, Note_on_c, 0, 71, 0
5, 439687, Note_on_c, 0, 71, 105
5, 440047, Note_on_c, 0, 71, 0
5, 440184, Note_on_c, 0, 72, 121
5, 440423, Note_on_c, 0, 73, 105
5, 440424, Note_on_c, 0, 72, 0
5, 440646, Note_on_c, 0, 75, 106
5, 440663, Note_on_c, 0, 73, 0
5, 442086, Note_on_c, 0, 75, 0
5, 442102, Note_on_c, 0, 72, 114
5, 442462, Note_on_c, 0, 72, 0
5, 442582, Note_on_c, 0, 72, 111
5, 442942, Note_on_c, 0, 72, 0
5, 443044, Note_on_c, 0, 72, 112
5, 443404, Note_on_c, 0, 72, 0
5, 443524, Note_on_c, 0, 72, 119
5, 443764, Note_on_c, 0, 72, 0
5, 443770, Note_on_c, 0, 73, 112
5, 444006, Note_on_c, 0, 75, 111
5, 444010, Note_on_c, 0, 73, 0
5, 444486, Note_on_c, 0, 75, 0
5, 444489, Note_on_c, 0, 72, 113
5, 444727, Note_on_c, 0, 73, 112
5, 444729, Note_on_c, 0, 72, 0
5, 444967, Note_on_c, 0, 73, 0
5, 444968, Note_on_c, 0, 75, 107
5, 445440, Note_on_c, 0, 70, 124
5, 445448, Note_on_c, 0, 75, 0
5, 445800, Note_on_c, 0, 70, 0
5, 445929, Note_on_c, 0, 70, 121
5, 446289, Note_on_c, 0, 70, 0
5, 446406, Note_on_c, 0, 72, 113
5, 446646, Note_on_c, 0, 72, 0
5, 446650, Note_on_c, 0, 73, 122
5, 446890, Note_on_c, 0, 73, 0
5, 446904, Note_on_c, 0, 75, 106
5, 447384, Note_on_c, 0, 75, 0
5, 448807, Note_on_c, 0, 79, 117
5, 448950, Note_on_c, 0, 79, 0
5, 453138, Note_on_c, 0, 63, 79
5, 453258, Note_on_c, 0, 63, 0
5, 453259, Note_on_c, 0, 64, 97
5, 453379, Note_on_c, 0, 64, 0
5, 453379, Note_on_c, 0, 67, 104
5, 453497, Note_on_c, 0, 75, 100
5, 453499, Note_on_c, 0, 67, 0
5, 453602, Note_on_c, 0, 76, 108
5, 453617, Note_on_c, 0, 75, 0
5, 453722, Note_on_c, 0, 76, 0
5, 454088, Note_on_c, 0, 77, 95
5, 454204, Note_on_c, 0, 68, 106
5, 454208, Note_on_c, 0, 77, 0
5, 454324, Note_on_c, 0, 68, 0
5, 454328, Note_on_c, 0, 67, 90
5, 454446, Note_on_c, 0, 65, 81
5, 454448, Note_on_c, 0, 67, 0
5, 454566, Note_on_c, 0, 65, 0
5, 454578, Note_on_c, 0, 63, 90
5, 454698, Note_on_c, 0, 63, 0
5, 455047, Note_on_c, 0, 83, 104
5, 455190, Note_on_c, 0, 83, 0
5, 455521, Note_on_c, 0, 79, 100
5, 455664, Note_on_c, 0, 79, 0
5, 456002, Note_on_c, 0, 63, 81
5, 456122, Note_on_c, 0, 63, 0
5, 456125, Note_on_c, 0, 65, 96
5, 456245, Note_on_c, 0, 65, 0
5, 456255, Note_on_c, 0, 67, 97
5, 456366, Note_on_c, 0, 75, 105
5, 456375, Note_on_c, 0, 67, 0
5, 456486, Note_on_c, 0, 75, 0
5, 456491, Note_on_c, 0, 77, 101
5, 456611, Note_on_c, 0, 77, 0
5, 456979, Note_on_c, 0, 76, 94
5, 457091, Note_on_c, 0, 68, 92
5, 457099, Note_on_c, 0, 76, 0
5, 457203, Note_on_c, 0, 67, 90
5, 457211, Note_on_c, 0, 68, 0
5, 457323, Note_on_c, 0, 67, 0
5, 457331, Note_on_c, 0, 64, 91
5, 457451, Note_on_c, 0, 64, 0
5, 457454, Note_on_c, 0, 63, 91
5, 457574, Note_on_c, 0, 63, 0
5, 457924, Note_on_c, 0, 79, 110
5, 458115, Note_on_c, 0, 79, 0
5, 458413, Note_on_c, 0, 76, 92
5, 458604, Note_on_c, 0, 76, 0
5, 458903, Note_on_c, 0, 79, 98
5, 459094, Note_on_c, 0, 79, 0
5, 459365, Note_on_c, 0, 76, 104
5, 459556, Note_on_c, 0, 76, 0
5, 459857, Note_on_c, 0, 79, 109
5, 460048, Note_on_c, 0, 79, 0
5, 460338, Note_on_c, 0, 76, 107
5, 460529, Note_on_c, 0, 76, 0
5, 460807, Note_on_c, 0, 79, 101
5, 460998, Note_on_c, 0, 79, 0
5, 461284, Note_on_c, 0, 76, 95
5, 461475, Note_on_c, 0, 76, 0
5, 461773, Note_on_c, 0, 83, 106
5, 461916, Note_on_c, 0, 83, 0
5, 462241, Note_on_c, 0, 63, 59
5, 462361, Note_on_c, 0, 63, 0
5, 462361, Note_on_c, 0, 65, 68
5, 462481, Note_on_c, 0, 65, 0
5, 462487, Note_on_c, 0, 67, 78
5, 462607, Note_on_c, 0, 67, 0
5, 462608, Note_on_c, 0, 75, 84
5, 462721, Note_on_c, 0, 77, 91
5, 462728, Note_on_c, 0, 75, 0
5, 462841, Note_on_c, 0, 77, 0
5, 463222, Note_on_c, 0, 76, 107
5, 463342, Note_on_c, 0, 76, 0
5, 463342, Note_on_c, 0, 68, 85
5, 463445, Note_on_c, 0, 67, 83
5, 463462, Note_on_c, 0, 68, 0
5, 463565, Note_on_c, 0, 67, 0
5, 463585, Note_on_c, 0, 64, 86
5, 463699, Note_on_c, 0, 63, 69
5, 463705, Note_on_c, 0, 64, 0
5, 463819, Note_on_c, 0, 63, 0
5, 464184, Note_on_c, 0, 63, 77
5, 464304, Note_on_c, 0, 63, 0
5, 464304, Note_on_c, 0, 64, 86
5, 464424, Note_on_c, 0, 64, 0
5, 464424, Note_on_c, 0, 67, 80
5, 464539, Note_on_c, 0, 75, 96
5, 464544, Note_on_c, 0, 67, 0
5, 464649, Note_on_c, 0, 76, 111
5, 464659, Note_on_c, 0, 75, 0
5, 464769, Note_on_c, 0, 76, 0
5, 465123, Note_on_c, 0, 77, 96
5, 465243, Note_on_c, 0, 77, 0
5, 465258, Note_on_c, 0, 68, 103
5, 465360, Note_on_c, 0, 67, 86
5, 465378, Note_on_c, 0, 68, 0
5, 465480, Note_on_c, 0, 67, 0
5, 465492, Note_on_c, 0, 65, 67
5, 465612, Note_on_c, 0, 65, 0
5, 465619, Note_on_c, 0, 63, 63
5, 465739, Note_on_c, 0, 63, 0
5, 466082, Note_on_c, 0, 83, 99
5, 466225, Note_on_c, 0, 83, 0
5, 466567, Note_on_c, 0, 79, 107
5, 466710, Note_on_c, 0, 79, 0
5, 467052, Note_on_c, 0, 63, 65
5, 467172, Note_on_c, 0, 63, 0
5, 467185, Note_on_c, 0, 65, 80
5, 467280, Note_on_c, 0, 67, 89
5, 467305, Note_on_c, 0, 65, 0
5, 467400, Note_on_c, 0, 67, 0
5, 467406, Note_on_c, 0, 75, 102
5, 467526, Note_on_c, 0, 75, 0
5, 467537, Note_on_c, 0, 77, 108
5, 467657, Note_on_c, 0, 77, 0
5, 468010, Note_on_c, 0, 76, 92
5, 468128, Note_on_c, 0, 68, 84
5, 468130, Note_on_c, 0, 76, 0
5, 468240, Note_on_c, 0, 67, 94
5, 468248, Note_on_c, 0, 68, 0
5, 468360, Note_on_c, 0, 67, 0
5, 468366, Note_on_c, 0, 64, 79
5, 468483, Note_on_c, 0, 63, 72
5, 468486, Note_on_c, 0, 64, 0
5, 468603, Note_on_c, 0, 63, 0
5, 468964, Note_on_c, 0, 83, 109
5, 469107, Note_on_c, 0, 83, 0
5, 472801, Note_on_c, 0, 63, 74
5, 473289, Note_on_c, 0, 60, 75
5, 473329, Note_on_c, 0, 63, 0
5, 473700, Note_on_c, 0, 65, 77
5, 473751, Note_on_c, 0, 60, 0
5, 473770, Note_on_c, 0, 63, 75
5, 473808, Note_on_c, 0, 65, 0
5, 474250, Note_on_c, 0, 60, 73
5, 474298, Note_on_c, 0, 63, 0
5, 474725, Note_on_c, 0, 58, 63
5, 474778, Note_on_c, 0, 60, 0
5, 475205, Note_on_c, 0, 63, 77
5, 475253, Note_on_c, 0, 58, 0
5, 475691, Note_on_c, 0, 65, 60
5, 475733, Note_on_c, 0, 63, 0
5, 476177, Note_on_c, 0, 63, 77
5, 476219, Note_on_c, 0, 65, 0
5, 476642, Note_on_c, 0, 60, 63
5, 476705, Note_on_c, 0, 63, 0
5, 477060, Note_on_c, 0, 65, 70
5, 477104, Note_on_c, 0, 60, 0
5, 477128, Note_on_c, 0, 63, 67
5, 477168, Note_on_c, 0, 65, 0
5, 477615, Note_on_c, 0, 60, 74
5, 477656, Note_on_c, 0, 63, 0
5, 478080, Note_on_c, 0, 58, 77
5, 478143, Note_on_c, 0, 60, 0
5, 478567, Note_on_c, 0, 55, 69
5, 478608, Note_on_c, 0, 58, 0
5, 479048, Note_on_c, 0, 60, 61
5, 479095, Note_on_c, 0, 55, 0
5, 479522, Note_on_c, 0, 62, 73
5, 479576, Note_on_c, 0, 60, 0
5, 479880, Note_on_c, 0, 58, 67
5, 479918, Note_on_c, 0, 62, 0
5, 479940, Note_on_c, 0, 62, 76
5, 479988, Note_on_c, 0, 58, 0
5, 480014, Note_on_c, 0, 58, 75
5, 480048, Note_on_c, 0, 62, 0
5, 480488, Note_on_c, 0, 55, 65
5, 480542, Note_on_c, 0, 58, 0
5, 481403, Note_on_c, 0, 55, 0
5, 481457, Note_on_c, 0, 60, 60
5, 481935, Note_on_c, 0, 65, 66
5, 481985, Note_on_c, 0, 60, 0
5, 482760, Note_on_c, 0, 63, 64
5, 482820, Note_on_c, 0, 67, 71
5, 482859, Note_on_c, 0, 65, 0
5, 482868, Note_on_c, 0, 63, 0
5, 482903, Note_on_c, 0, 63, 78
5, 482928, Note_on_c, 0, 67, 0
5, 483381, Note_on_c, 0, 62, 64
5, 483431, Note_on_c, 0, 63, 0
5, 484813, Note_on_c, 0, 60, 78
5, 484965, Note_on_c, 0, 62, 0
5, 485220, Note_on_c, 0, 65, 63
5, 485275, Note_on_c, 0, 60, 0
5, 485295, Note_on_c, 0, 62, 59
5, 485328, Note_on_c, 0, 65, 0
5, 485785, Note_on_c, 0, 58, 66
5, 485823, Note_on_c, 0, 62, 0
5, 486240, Note_on_c, 0, 55, 63
5, 486313, Note_on_c, 0, 58, 0
5, 487123, Note_on_c, 0, 55, 0
5, 487213, Note_on_c, 0, 62, 62
5, 487620, Note_on_c, 0, 65, 72
5, 487675, Note_on_c, 0, 62, 0
5, 487681, Note_on_c, 0, 60, 65
5, 487728, Note_on_c, 0, 65, 0
5, 488100, Note_on_c, 0, 62, 60
5, 488143, Note_on_c, 0, 60, 0
5, 488165, Note_on_c, 0, 58, 74
5, 488183, Control_c, 0, 11, 126
5, 488208, Note_on_c, 0, 62, 0
5, 488209, Control_c, 0, 11, 124
5, 488234, Control_c, 0, 11, 123
5, 488266, Control_c, 0, 11, 120
5, 488305, Control_c, 0, 11, 117
5, 488382, Control_c, 0, 11, 115
5, 488452, Control_c, 0, 11, 111
5, 488522, Control_c, 0, 11, 109
5, 488599, Control_c, 0, 11, 105
5, 488645, Note_on_c, 0, 55, 77
5, 488670, Control_c, 0, 11, 103
5, 488693, Note_on_c, 0, 58, 0
5, 488714, Control_c, 0, 11, 100
5, 488766, Control_c, 0, 11, 98
5, 488823, Control_c, 0, 11, 95
5, 488881, Control_c, 0, 11, 91
5, 488945, Control_c, 0, 11, 86
5, 488970, Control_c, 0, 11, 84
5, 488990, Control_c, 0, 11, 83
5, 489015, Control_c, 0, 11, 82
5, 489060, Control_c, 0, 11, 78
5, 489105, Control_c, 0, 11, 73
5, 489130, Control_c, 0, 11, 72
5, 489169, Control_c, 0, 11, 70
5, 489194, Control_c, 0, 11, 69
5, 489233, Control_c, 0, 11, 66
5, 489258, Control_c, 0, 11, 64
5, 489303, Control_c, 0, 11, 61
5, 489342, Control_c, 0, 11, 58
5, 489386, Control_c, 0, 11, 56
5, 489425, Control_c, 0, 11, 53
5, 489470, Control_c, 0, 11, 50
5, 489495, Control_c, 0, 11, 48
5, 489540, Control_c, 0, 11, 47
5, 489566, Control_c, 0, 11, 44
5, 489604, Control_c, 0, 11, 42
5, 489617, Control_c, 0, 11, 41
5, 489636, Control_c, 0, 11, 40
5, 489674, Control_c, 0, 11, 39
5, 489701, Note_on_c, 0, 55, 0
5, 489713, Control_c, 0, 11, 38
5, 489732, Control_c, 0, 11, 36
5, 489777, Control_c, 0, 11, 35
5, 490090, Control_c, 0, 11, 127
5, 497282, Note_on_c, 0, 81, 86
5, 497402, Note_on_c, 0, 81, 0
5, 497407, Note_on_c, 0, 79, 79
5, 497527, Note_on_c, 0, 79, 0
5, 497535, Note_on_c, 0, 77, 85
5, 497655, Note_on_c, 0, 77, 0
5, 497664, Note_on_c, 0, 76, 78
5, 497780, Note_on_c, 0, 74, 70
5, 497784, Note_on_c, 0, 76, 0
5, 497898, Note_on_c, 0, 72, 59
5, 497900, Note_on_c, 0, 74, 0
5, 498011, Note_on_c, 0, 71, 56
5, 498018, Note_on_c, 0, 72, 0
5, 498131, Note_on_c, 0, 71, 0
5, 498143, Note_on_c, 0, 69, 60
5, 498261, Note_on_c, 0, 81, 97
5, 498263, Note_on_c, 0, 69, 0
5, 498361, Note_on_c, 0, 79, 88
5, 498381, Note_on_c, 0, 81, 0
5, 498481, Note_on_c, 0, 79, 0
5, 498482, Note_on_c, 0, 77, 77
5, 498602, Note_on_c, 0, 77, 0
5, 498620, Note_on_c, 0, 76, 73
5, 498739, Note_on_c, 0, 74, 66
5, 498740, Note_on_c, 0, 76, 0
5, 498853, Note_on_c, 0, 72, 65
5, 498859, Note_on_c, 0, 74, 0
5, 498973, Note_on_c, 0, 72, 0
5, 498984, Note_on_c, 0, 71, 63
5, 499085, Note_on_c, 0, 69, 49
5, 499104, Note_on_c, 0, 71, 0
5, 499205, Note_on_c, 0, 69, 0
5, 499222, Note_on_c, 0, 81, 90
5, 499333, Note_on_c, 0, 79, 82
5, 499342, Note_on_c, 0, 81, 0
5, 499453, Note_on_c, 0, 79, 0
5, 499458, Note_on_c, 0, 77, 82
5, 499567, Note_on_c, 0, 76, 62
5, 499578, Note_on_c, 0, 77, 0
5, 499685, Note_on_c, 0, 81, 82
5, 499687, Note_on_c, 0, 76, 0
5, 499805, Note_on_c, 0, 81, 0
5, 499825, Note_on_c, 0, 79, 73
5, 499920, Note_on_c, 0, 77, 79
5, 499945, Note_on_c, 0, 79, 0
5, 500040, Note_on_c, 0, 77, 0
5, 500063, Note_on_c, 0, 76, 80
5, 500169, Note_on_c, 0, 74, 61
5, 500183, Note_on_c, 0, 76, 0
5, 500289, Note_on_c, 0, 74, 0
5, 500292, Note_on_c, 0, 72, 70
5, 500412, Note_on_c, 0, 72, 0
5, 500412, Note_on_c, 0, 71, 66
5, 500532, Note_on_c, 0, 71, 0
5, 500544, Note_on_c, 0, 69, 56
5, 500664, Note_on_c, 0, 69, 0
5, 503520, Note_on_c, 0, 81, 98
5, 503640, Note_on_c, 0, 81, 0
5, 503647, Note_on_c, 0, 79, 73
5, 503767, Note_on_c, 0, 79, 0
5, 503775, Note_on_c, 0, 77, 82
5, 503885, Note_on_c, 0, 76, 77
5, 503895, Note_on_c, 0, 77, 0
5, 504005, Note_on_c, 0, 76, 0
5, 504018, Note_on_c, 0, 74, 62
5, 504120, Note_on_c, 0, 72, 55
5, 504138, Note_on_c, 0, 74, 0
5, 504240, Note_on_c, 0, 72, 0
5, 504246, Note_on_c, 0, 71, 62
5, 504366, Note_on_c, 0, 71, 0
5, 504370, Note_on_c, 0, 69, 64
5, 504489, Note_on_c, 0, 81, 95
5, 504490, Note_on_c, 0, 69, 0
5, 504609, Note_on_c, 0, 81, 0
5, 504623, Note_on_c, 0, 79, 91
5, 504742, Note_on_c, 0, 77, 88
5, 504743, Note_on_c, 0, 79, 0
5, 504855, Note_on_c, 0, 76, 82
5, 504862, Note_on_c, 0, 77, 0
5, 504975, Note_on_c, 0, 76, 0
5, 504975, Note_on_c, 0, 74, 69
5, 505095, Note_on_c, 0, 74, 0
5, 505097, Note_on_c, 0, 72, 61
5, 505217, Note_on_c, 0, 72, 0
5, 505220, Note_on_c, 0, 71, 51
5, 505330, Note_on_c, 0, 69, 58
5, 505340, Note_on_c, 0, 71, 0
5, 505450, Note_on_c, 0, 69, 0
5, 505460, Note_on_c, 0, 81, 80
5, 505567, Note_on_c, 0, 79, 86
5, 505580, Note_on_c, 0, 81, 0
5, 505686, Note_on_c, 0, 77, 72
5, 505687, Note_on_c, 0, 79, 0
5, 505806, Note_on_c, 0, 77, 0
5, 505823, Note_on_c, 0, 76, 72
5, 505940, Note_on_c, 0, 81, 87
5, 505943, Note_on_c, 0, 76, 0
5, 506053, Note_on_c, 0, 79, 78
5, 506060, Note_on_c, 0, 81, 0
5, 506169, Note_on_c, 0, 77, 81
5, 506173, Note_on_c, 0, 79, 0
5, 506288, Note_on_c, 0, 76, 65
5, 506289, Note_on_c, 0, 77, 0
5, 506404, Note_on_c, 0, 74, 80
5, 506408, Note_on_c, 0, 76, 0
5, 506524, Note_on_c, 0, 74, 0
5, 506538, Note_on_c, 0, 72, 71
5, 506652, Note_on_c, 0, 71, 54
5, 506658, Note_on_c, 0, 72, 0
5, 506771, Note_on_c, 0, 69, 61
5, 506772, Note_on_c, 0, 71, 0
5, 506891, Note_on_c, 0, 69, 0
5, 506895, Note_on_c, 0, 81, 92
5, 507008, Note_on_c, 0, 79, 89
5, 507015, Note_on_c, 0, 81, 0
5, 507128, Note_on_c, 0, 79, 0
5, 507128, Note_on_c, 0, 77, 86
5, 507248, Note_on_c, 0, 77, 0
5, 507256, Note_on_c, 0, 76, 76
5, 507365, Note_on_c, 0, 74, 78
5, 507376, Note_on_c, 0, 76, 0
5, 507485, Note_on_c, 0, 74, 0
5, 507495, Note_on_c, 0, 72, 57
5, 507614, Note_on_c, 0, 71, 71
5, 507615, Note_on_c, 0, 72, 0
5, 507730, Note_on_c, 0, 69, 59
5, 507734, Note_on_c, 0, 71, 0
5, 507842, Note_on_c, 0, 81, 92
5, 507850, Note_on_c, 0, 69, 0
5, 507960, Note_on_c, 0, 79, 75
5, 507962, Note_on_c, 0, 81, 0
5, 508080, Note_on_c, 0, 79, 0
5, 508097, Note_on_c, 0, 77, 88
5, 508216, Note_on_c, 0, 76, 74
5, 508217, Note_on_c, 0, 77, 0
5, 508333, Note_on_c, 0, 74, 64
5, 508336, Note_on_c, 0, 76, 0
5, 508447, Note_on_c, 0, 72, 62
5, 508453, Note_on_c, 0, 74, 0
5, 508565, Note_on_c, 0, 71, 52
5, 508567, Note_on_c, 0, 72, 0
5, 508685, Note_on_c, 0, 71, 0
5, 508685, Note_on_c, 0, 69, 64
5, 508805, Note_on_c, 0, 69, 0
5, 522009, Note_on_c, 0, 73, 94
5, 522129, Note_on_c, 0, 73, 0
5, 522265, Note_on_c, 0, 71, 91
5, 522385, Note_on_c, 0, 71, 0
5, 522483, Note_on_c, 0, 73, 82
5, 522603, Note_on_c, 0, 73, 0
5, 522743, Note_on_c, 0, 71, 80
5, 522863, Note_on_c, 0, 71, 0
5, 522969, Note_on_c, 0, 69, 98
5, 523089, Note_on_c, 0, 69, 0
5, 523217, Note_on_c, 0, 68, 84
5, 523337, Note_on_c, 0, 68, 0
5, 523446, Note_on_c, 0, 69, 89
5, 523566, Note_on_c, 0, 69, 0
5, 523685, Note_on_c, 0, 66, 94
5, 523805, Note_on_c, 0, 66, 0
5, 523927, Note_on_c, 0, 68, 86
5, 524047, Note_on_c, 0, 68, 0
5, 524180, Note_on_c, 0, 69, 89
5, 524300, Note_on_c, 0, 69, 0
5, 524422, Note_on_c, 0, 71, 82
5, 524542, Note_on_c, 0, 71, 0
5, 524657, Note_on_c, 0, 73, 81
5, 524777, Note_on_c, 0, 73, 0
5, 528241, Note_on_c, 0, 73, 84
5, 528361, Note_on_c, 0, 73, 0
5, 528488, Note_on_c, 0, 71, 94
5, 528608, Note_on_c, 0, 71, 0
5, 528745, Note_on_c, 0, 73, 83
5, 528865, Note_on_c, 0, 73, 0
5, 528965, Note_on_c, 0, 71, 87
5, 529085, Note_on_c, 0, 71, 0
5, 529201, Note_on_c, 0, 69, 82
5, 529321, Note_on_c, 0, 69, 0
5, 529464, Note_on_c, 0, 68, 94
5, 529584, Note_on_c, 0, 68, 0
5, 529697, Note_on_c, 0, 69, 98
5, 529817, Note_on_c, 0, 69, 0
5, 529927, Note_on_c, 0, 66, 81
5, 530047, Note_on_c, 0, 66, 0
5, 530182, Note_on_c, 0, 66, 80
5, 530302, Note_on_c, 0, 66, 0
5, 530407, Note_on_c, 0, 66, 88
5, 530527, Note_on_c, 0, 66, 0
5, 530664, Note_on_c, 0, 68, 88
5, 530784, Note_on_c, 0, 68, 0
5, 530892, Note_on_c, 0, 69, 94
5, 531012, Note_on_c, 0, 69, 0
5, 531124, Note_on_c, 0, 71, 85
5, 531244, Note_on_c, 0, 71, 0
5, 531375, Note_on_c, 0, 73, 81
5, 531495, Note_on_c, 0, 73, 0
5, 537606, Note_on_c, 0, 71, 76
5, 537846, Note_on_c, 0, 71, 0
5, 537860, Note_on_c, 0, 72, 73
5, 538099, Note_on_c, 0, 73, 65
5, 538100, Note_on_c, 0, 72, 0
5, 538813, Note_on_c, 0, 72, 83
5, 538819, Note_on_c, 0, 73, 0
5, 539053, Note_on_c, 0, 72, 0
5, 539057, Note_on_c, 0, 71, 73
5, 539292, Note_on_c, 0, 69, 68
5, 539297, Note_on_c, 0, 71, 0
5, 539520, Note_on_c, 0, 71, 76
5, 539532, Note_on_c, 0, 69, 0
5, 539760, Note_on_c, 0, 71, 0
5, 539776, Note_on_c, 0, 72, 83
5, 540011, Note_on_c, 0, 74, 72
5, 540016, Note_on_c, 0, 72, 0
5, 540251, Note_on_c, 0, 74, 0
5, 561619, Note_on_c, 0, 82, 95
5, 561859, Note_on_c, 0, 82, 0
5, 571692, Note_on_c, 0, 84, 92
5, 572892, Note_on_c, 0, 84, 0
5, 574581, Note_on_c, 0, 84, 98
5, 575781, Note_on_c, 0, 84, 0
5, 589440, Note_on_c, 0, 72, 79
5, 589471, Note_on_c, 0, 72, 0
5, 589520, Note_on_c, 0, 73, 88
5, 589551, Note_on_c, 0, 73, 0
5, 589599, Note_on_c, 0, 74, 81
5, 589631, Note_on_c, 0, 74, 0
5, 589680, Note_on_c, 0, 75, 89
5, 589711, Note_on_c, 0, 75, 0
5, 589760, Note_on_c, 0, 76, 85
5, 589791, Note_on_c, 0, 76, 0
5, 589839, Note_on_c, 0, 77, 94
5, 589871, Note_on_c, 0, 77, 0
5, 589920, Note_on_c, 0, 78, 83
5, 589951, Note_on_c, 0, 78, 0
5, 590000, Note_on_c, 0, 79, 80
5, 590031, Note_on_c, 0, 79, 0
5, 590079, Note_on_c, 0, 80, 89
5, 590111, Note_on_c, 0, 80, 0
5, 590160, Note_on_c, 0, 81, 84
5, 590191, Note_on_c, 0, 81, 0
5, 590240, Note_on_c, 0, 82, 91
5, 590271, Note_on_c, 0, 82, 0
5, 590319, Note_on_c, 0, 83, 81
5, 590351, Note_on_c, 0, 83, 0
5, 590412, Note_on_c, 0, 84, 98
5, 590487, Note_on_c, 0, 86, 92
5, 590527, Note_on_c, 0, 84, 0
5, 590575, Note_on_c, 0, 84, 110
5, 590602, Note_on_c, 0, 86, 0
5, 590639, Note_on_c, 0, 86, 106
5, 590690, Note_on_c, 0, 84, 0
5, 590720, Note_on_c, 0, 84, 94
5, 590754, Note_on_c, 0, 86, 0
5, 590811, Note_on_c, 0, 86, 106
5, 590835, Note_on_c, 0, 84, 0
5, 590890, Note_on_c, 0, 84, 93
5, 590926, Note_on_c, 0, 86, 0
5, 590969, Note_on_c, 0, 86, 104
5, 591005, Note_on_c, 0, 84, 0
5, 591037, Note_on_c, 0, 84, 105
5, 591084, Note_on_c, 0, 86, 0
5, 591107, Note_on_c, 0, 86, 91
5, 591152, Note_on_c, 0, 84, 0
5, 591181, Note_on_c, 0, 84, 94
5, 591222, Note_on_c, 0, 86, 0
5, 591273, Note_on_c, 0, 86, 92
5, 591296, Note_on_c, 0, 84, 0
5, 591337, Note_on_c, 0, 84, 99
5, 591388, Note_on_c, 0, 86, 0
5, 591434, Note_on_c, 0, 86, 96
5, 591452, Note_on_c, 0, 84, 0
5, 591501, Note_on_c, 0, 84, 107
5, 591549, Note_on_c, 0, 86, 0
5, 591570, Note_on_c, 0, 86, 106
5, 591616, Note_on_c, 0, 84, 0
5, 591650, Note_on_c, 0, 84, 104
5, 591685, Note_on_c, 0, 86, 0
5, 591734, Note_on_c, 0, 86, 108
5, 591765, Note_on_c, 0, 84, 0
5, 591818, Note_on_c, 0, 84, 105
5, 591849, Note_on_c, 0, 86, 0
5, 591887, Note_on_c, 0, 86, 110
5, 591933, Note_on_c, 0, 84, 0
5, 591979, Note_on_c, 0, 84, 109
5, 592002, Note_on_c, 0, 86, 0
5, 592045, Note_on_c, 0, 86, 104
5, 592094, Note_on_c, 0, 84, 0
5, 592112, Note_on_c, 0, 84, 111
5, 592160, Note_on_c, 0, 86, 0
5, 592196, Note_on_c, 0, 86, 100
5, 592227, Note_on_c, 0, 84, 0
5, 592277, Note_on_c, 0, 84, 109
5, 592311, Note_on_c, 0, 86, 0
5, 592365, Note_on_c, 0, 86, 106
5, 592392, Note_on_c, 0, 84, 0
5, 592426, Note_on_c, 0, 84, 111
5, 592480, Note_on_c, 0, 86, 0
5, 592500, Note_on_c, 0, 86, 97
5, 592541, Note_on_c, 0, 84, 0
5, 592580, Note_on_c, 0, 84, 98
5, 592615, Note_on_c, 0, 86, 0
5, 592670, Note_on_c, 0, 86, 106
5, 592695, Note_on_c, 0, 84, 0
5, 592738, Note_on_c, 0, 84, 97
5, 592785, Note_on_c, 0, 86, 0
5, 592833, Note_on_c, 0, 86, 97
5, 592853, Note_on_c, 0, 84, 0
5, 592914, Note_on_c, 0, 84, 110
5, 592948, Note_on_c, 0, 86, 0
5, 592983, Note_on_c, 0, 86, 98
5, 593029, Note_on_c, 0, 84, 0
5, 593052, Note_on_c, 0, 84, 100
5, 593098, Note_on_c, 0, 86, 0
5, 593143, Note_on_c, 0, 86, 110
5, 593167, Note_on_c, 0, 84, 0
5, 593206, Note_on_c, 0, 84, 97
5, 593258, Note_on_c, 0, 86, 0
5, 593295, Note_on_c, 0, 86, 107
5, 593321, Note_on_c, 0, 84, 0
5, 593368, Note_on_c, 0, 84, 102
5, 593410, Note_on_c, 0, 86, 0
5, 593441, Note_on_c, 0, 86, 108
5, 593483, Note_on_c, 0, 84, 0
5, 593526, Note_on_c, 0, 84, 98
5, 593556, Note_on_c, 0, 86, 0
5, 593608, Note_on_c, 0, 86, 103
5, 593641, Note_on_c, 0, 84, 0
5, 593673, Note_on_c, 0, 84, 99
5, 593723, Note_on_c, 0, 86, 0
5, 593750, Note_on_c, 0, 84, 0
5, 593769, Note_on_c, 0, 84, 115
5, 593960, Note_on_c, 0, 84, 0
5, 594251, Note_on_c, 0, 79, 121
5, 594371, Note_on_c, 0, 79, 0
5, 594496, Note_on_c, 0, 81, 122
5, 594616, Note_on_c, 0, 81, 0
5, 594737, Note_on_c, 0, 83, 121
5, 594857, Note_on_c, 0, 83, 0
5, 594961, Note_on_c, 0, 84, 123
5, 595081, Note_on_c, 0, 84, 0
5, 595209, Note_on_c, 0, 83, 121
5, 595329, Note_on_c, 0, 83, 0
5, 595462, Note_on_c, 0, 84, 116
5, 595582, Note_on_c, 0, 84, 0
5, 595683, Note_on_c, 0, 83, 111
5, 595803, Note_on_c, 0, 83, 0
5, 595925, Note_on_c, 0, 86, 120
5, 596045, Note_on_c, 0, 86, 0
5, 596168, Note_on_c, 0, 81, 119
5, 596528, Note_on_c, 0, 81, 0
5, 596655, Note_on_c, 0, 83, 113
5, 596775, Note_on_c, 0, 83, 0
5, 596890, Note_on_c, 0, 84, 106
5, 597010, Note_on_c, 0, 84, 0
5, 597138, Note_on_c, 0, 83, 104
5, 597258, Note_on_c, 0, 83, 0
5, 597367, Note_on_c, 0, 86, 111
5, 597487, Note_on_c, 0, 86, 0
5, 597616, Note_on_c, 0, 81, 104
5, 597976, Note_on_c, 0, 81, 0
5, 598092, Note_on_c, 0, 81, 108
5, 598235, Note_on_c, 0, 81, 0
5, 598563, Note_on_c, 0, 79, 118
5, 598683, Note_on_c, 0, 79, 0
5, 598803, Note_on_c, 0, 81, 112
5, 598923, Note_on_c, 0, 81, 0
5, 599048, Note_on_c, 0, 83, 104
5, 599168, Note_on_c, 0, 83, 0
5, 599297, Note_on_c, 0, 84, 124
5, 599417, Note_on_c, 0, 84, 0
5, 599521, Note_on_c, 0, 83, 108
5, 599641, Note_on_c, 0, 83, 0
5, 599772, Note_on_c, 0, 84, 108
5, 599892, Note_on_c, 0, 84, 0
5, 600019, Note_on_c, 0, 83, 113
5, 600139, Note_on_c, 0, 83, 0
5, 600245, Note_on_c, 0, 86, 107
5, 600365, Note_on_c, 0, 86, 0
5, 600494, Note_on_c, 0, 84, 105
5, 600614, Note_on_c, 0, 84, 0
5, 600738, Note_on_c, 0, 83, 121
5, 600858, Note_on_c, 0, 83, 0
5, 600975, Note_on_c, 0, 81, 124
5, 601095, Note_on_c, 0, 81, 0
5, 601222, Note_on_c, 0, 79, 120
5, 601342, Note_on_c, 0, 79, 0
5, 601453, Note_on_c, 0, 81, 111
5, 601525, Note_on_c, 0, 83, 107
5, 601568, Note_on_c, 0, 81, 0
5, 601615, Note_on_c, 0, 81, 119
5, 601640, Note_on_c, 0, 83, 0
5, 601676, Note_on_c, 0, 83, 111
5, 601730, Note_on_c, 0, 81, 0
5, 601762, Note_on_c, 0, 81, 115
5, 601791, Note_on_c, 0, 83, 0
5, 601851, Note_on_c, 0, 83, 106
5, 601877, Note_on_c, 0, 81, 0
5, 601914, Note_on_c, 0, 81, 115
5, 601966, Note_on_c, 0, 83, 0
5, 601997, Note_on_c, 0, 83, 119
5, 602029, Note_on_c, 0, 81, 0
5, 602080, Note_on_c, 0, 81, 119
5, 602112, Note_on_c, 0, 83, 0
5, 602165, Note_on_c, 0, 83, 122
5, 602195, Note_on_c, 0, 81, 0
5, 602235, Note_on_c, 0, 81, 119
5, 602280, Note_on_c, 0, 83, 0
5, 602304, Note_on_c, 0, 83, 121
5, 602350, Note_on_c, 0, 81, 0
5, 602395, Note_on_c, 0, 81, 122
5, 602419, Note_on_c, 0, 83, 0
5, 602451, Note_on_c, 0, 83, 111
5, 602510, Note_on_c, 0, 81, 0
5, 602543, Note_on_c, 0, 81, 123
5, 602566, Note_on_c, 0, 83, 0
5, 602620, Note_on_c, 0, 83, 110
5, 602658, Note_on_c, 0, 81, 0
5, 602708, Note_on_c, 0, 81, 114
5, 602735, Note_on_c, 0, 83, 0
5, 602775, Note_on_c, 0, 83, 115
5, 602823, Note_on_c, 0, 81, 0
5, 602841, Note_on_c, 0, 81, 108
5, 602890, Note_on_c, 0, 83, 0
5, 602918, Note_on_c, 0, 83, 113
5, 602956, Note_on_c, 0, 81, 0
5, 602999, Note_on_c, 0, 81, 111
5, 603033, Note_on_c, 0, 83, 0
5, 603074, Note_on_c, 0, 83, 110
5, 603114, Note_on_c, 0, 81, 0
5, 603171, Note_on_c, 0, 81, 113
5, 603189, Note_on_c, 0, 83, 0
5, 603230, Note_on_c, 0, 83, 108
5, 603286, Note_on_c, 0, 81, 0
5, 603330, Note_on_c, 0, 81, 117
5, 603345, Note_on_c, 0, 83, 0
5, 603409, Note_on_c, 0, 83, 105
5, 603445, Note_on_c, 0, 81, 0
5, 603482, Note_on_c, 0, 81, 117
5, 603524, Note_on_c, 0, 83, 0
5, 603564, Note_on_c, 0, 83, 110
5, 603597, Note_on_c, 0, 81, 0
5, 603635, Note_on_c, 0, 81, 112
5, 603679, Note_on_c, 0, 83, 0
5, 603714, Note_on_c, 0, 83, 105
5, 603750, Note_on_c, 0, 81, 0
5, 603774, Note_on_c, 0, 81, 122
5, 603829, Note_on_c, 0, 83, 0
5, 603856, Note_on_c, 0, 83, 109
5, 603889, Note_on_c, 0, 81, 0
5, 603945, Note_on_c, 0, 81, 116
5, 603971, Note_on_c, 0, 83, 0
5, 604017, Note_on_c, 0, 83, 123
5, 604060, Note_on_c, 0, 81, 0
5, 604093, Note_on_c, 0, 81, 118
5, 604132, Note_on_c, 0, 83, 0
5, 604175, Note_on_c, 0, 83, 122
5, 604208, Note_on_c, 0, 81, 0
5, 604246, Note_on_c, 0, 81, 120
5, 604290, Note_on_c, 0, 83, 0
5, 604358, Note_on_c, 0, 81, 0
5, 613944, Note_on_c, 0, 69, 97
5, 614012, Note_on_c, 0, 71, 93
5, 614062, Note_on_c, 0, 69, 0
5, 614080, Note_on_c, 0, 69, 87
5, 614130, Note_on_c, 0, 71, 0
5, 614168, Note_on_c, 0, 71, 82
5, 614198, Note_on_c, 0, 69, 0
5, 614250, Note_on_c, 0, 69, 90
5, 614286, Note_on_c, 0, 71, 0
5, 614319, Note_on_c, 0, 71, 82
5, 614368, Note_on_c, 0, 69, 0
5, 614412, Note_on_c, 0, 69, 78
5, 614437, Note_on_c, 0, 71, 0
5, 614477, Note_on_c, 0, 71, 92
5, 614530, Note_on_c, 0, 69, 0
5, 614576, Note_on_c, 0, 69, 78
5, 614595, Note_on_c, 0, 71, 0
5, 614638, Note_on_c, 0, 71, 95
5, 614694, Note_on_c, 0, 69, 0
5, 614730, Note_on_c, 0, 69, 81
5, 614756, Note_on_c, 0, 71, 0
5, 614817, Note_on_c, 0, 71, 90
5, 614848, Note_on_c, 0, 69, 0
5, 614896, Note_on_c, 0, 69, 89
5, 614935, Note_on_c, 0, 71, 0
5, 614966, Note_on_c, 0, 71, 84
5, 615014, Note_on_c, 0, 69, 0
5, 615053, Note_on_c, 0, 69, 94
5, 615084, Note_on_c, 0, 71, 0
5, 615129, Note_on_c, 0, 71, 90
5, 615171, Note_on_c, 0, 69, 0
5, 615210, Note_on_c, 0, 69, 92
5, 615247, Note_on_c, 0, 71, 0
5, 615277, Note_on_c, 0, 71, 84
5, 615328, Note_on_c, 0, 69, 0
5, 615377, Note_on_c, 0, 69, 81
5, 615395, Note_on_c, 0, 71, 0
5, 615436, Note_on_c, 0, 71, 86
5, 615495, Note_on_c, 0, 69, 0
5, 615522, Note_on_c, 0, 69, 86
5, 615554, Note_on_c, 0, 71, 0
5, 615611, Note_on_c, 0, 71, 95
5, 615640, Note_on_c, 0, 69, 0
5, 615684, Note_on_c, 0, 69, 81
5, 615729, Note_on_c, 0, 71, 0
5, 615768, Note_on_c, 0, 71, 83
5, 615802, Note_on_c, 0, 69, 0
5, 615833, Note_on_c, 0, 69, 82
5, 615886, Note_on_c, 0, 71, 0
5, 615935, Note_on_c, 0, 71, 88
5, 615951, Note_on_c, 0, 69, 0
5, 616007, Note_on_c, 0, 69, 95
5, 616053, Note_on_c, 0, 71, 0
5, 616081, Note_on_c, 0, 71, 85
5, 616125, Note_on_c, 0, 69, 0
5, 616163, Note_on_c, 0, 69, 91
5, 616199, Note_on_c, 0, 71, 0
5, 616240, Note_on_c, 0, 71, 97
5, 616281, Note_on_c, 0, 69, 0
5, 616322, Note_on_c, 0, 69, 89
5, 616358, Note_on_c, 0, 71, 0
5, 616400, Note_on_c, 0, 71, 82
5, 616440, Note_on_c, 0, 69, 0
5, 616483, Note_on_c, 0, 69, 87
5, 616518, Note_on_c, 0, 71, 0
5, 616553, Note_on_c, 0, 71, 96
5, 616601, Note_on_c, 0, 69, 0
5, 616635, Note_on_c, 0, 69, 94
5, 616671, Note_on_c, 0, 71, 0
5, 616715, Note_on_c, 0, 71, 90
5, 616753, Note_on_c, 0, 69, 0
5, 616802, Note_on_c, 0, 69, 91
5, 616833, Note_on_c, 0, 71, 0
5, 616870, Note_on_c, 0, 71, 85
5, 616920, Note_on_c, 0, 69, 0
5, 616957, Note_on_c, 0, 69, 89
5, 616988, Note_on_c, 0, 71, 0
5, 617051, Note_on_c, 0, 71, 96
5, 617075, Note_on_c, 0, 69, 0
5, 617113, Note_on_c, 0, 69, 80
5, 617169, Note_on_c, 0, 71, 0
5, 617200, Note_on_c, 0, 71, 81
5, 617231, Note_on_c, 0, 69, 0
5, 617281, Note_on_c, 0, 69, 94
5, 617318, Note_on_c, 0, 71, 0
5, 617350, Note_on_c, 0, 71, 78
5, 617399, Note_on_c, 0, 69, 0
5, 617449, Note_on_c, 0, 69, 97
5, 617468, Note_on_c, 0, 71, 0
5, 617516, Note_on_c, 0, 71, 86
5, 617567, Note_on_c, 0, 69, 0
5, 617608, Note_on_c, 0, 69, 86
5, 617634, Note_on_c, 0, 71, 0
5, 617672, Note_on_c, 0, 71, 95
5, 617726, Note_on_c, 0, 69, 0
5, 617748, Note_on_c, 0, 69, 95
5, 617790, Note_on_c, 0, 71, 0
5, 617830, Note_on_c, 0, 71, 84
5, 617866, Note_on_c, 0, 69, 0
5, 617921, Note_on_c, 0, 69, 96
5, 617948, Note_on_c, 0, 71, 0
5, 617992, Note_on_c, 0, 71, 82
5, 618039, Note_on_c, 0, 69, 0
5, 618063, Note_on_c, 0, 69, 95
5, 618110, Note_on_c, 0, 71, 0
5, 618166, Note_on_c, 0, 71, 97
5, 618181, Note_on_c, 0, 69, 0
5, 618225, Note_on_c, 0, 69, 97
5, 618284, Note_on_c, 0, 71, 0
5, 618311, Note_on_c, 0, 71, 95
5, 618343, Note_on_c, 0, 69, 0
5, 618387, Note_on_c, 0, 69, 80
5, 618429, Note_on_c, 0, 71, 0
5, 618463, Note_on_c, 0, 71, 89
5, 618505, Note_on_c, 0, 69, 0
5, 618548, Note_on_c, 0, 69, 86
5, 618581, Note_on_c, 0, 71, 0
5, 618638, Note_on_c, 0, 71, 82
5, 618666, Note_on_c, 0, 69, 0
5, 618717, Note_on_c, 0, 69, 97
5, 618756, Note_on_c, 0, 71, 0
5, 618785, Note_on_c, 0, 71, 94
5, 618835, Note_on_c, 0, 69, 0
5, 618882, Note_on_c, 0, 69, 89
5, 618903, Note_on_c, 0, 71, 0
5, 618945, Note_on_c, 0, 71, 86
5, 619000, Note_on_c, 0, 69, 0
5, 619033, Note_on_c, 0, 69, 84
5, 619063, Note_on_c, 0, 71, 0
5, 619102, Note_on_c, 0, 71, 87
5, 619151, Note_on_c, 0, 69, 0
5, 619184, Note_on_c, 0, 69, 78
5, 619220, Note_on_c, 0, 71, 0
5, 619270, Note_on_c, 0, 71, 88
5, 619302, Note_on_c, 0, 69, 0
5, 619341, Note_on_c, 0, 69, 78
5, 619388, Note_on_c, 0, 71, 0
5, 619424, Note_on_c, 0, 71, 96
5, 619459, Note_on_c, 0, 69, 0
5, 619499, Note_on_c, 0, 69, 78
5, 619542, Note_on_c, 0, 71, 0
5, 619583, Note_on_c, 0, 71, 98
5, 619617, Note_on_c, 0, 69, 0
5, 619678, Note_on_c, 0, 69, 82
5, 619701, Note_on_c, 0, 71, 0
5, 619760, Note_on_c, 0, 71, 83
5, 619796, Note_on_c, 0, 69, 0
5, 619839, Note_on_c, 0, 69, 86
5, 619878, Note_on_c, 0, 71, 0
5, 619913, Note_on_c, 0, 71, 87
5, 619957, Note_on_c, 0, 69, 0
5, 619977, Note_on_c, 0, 69, 85
5, 620031, Note_on_c, 0, 71, 0
5, 620075, Note_on_c, 0, 71, 91
5, 620095, Note_on_c, 0, 69, 0
5, 620151, Note_on_c, 0, 69, 93
5, 620193, Note_on_c, 0, 71, 0
5, 620233, Note_on_c, 0, 71, 97
5, 620269, Note_on_c, 0, 69, 0
5, 620319, Note_on_c, 0, 69, 88
5, 620351, Note_on_c, 0, 71, 0
5, 620394, Note_on_c, 0, 71, 88
5, 620437, Note_on_c, 0, 69, 0
5, 620479, Note_on_c, 0, 69, 84
5, 620512, Note_on_c, 0, 71, 0
5, 620537, Note_on_c, 0, 71, 89
5, 620597, Note_on_c, 0, 69, 0
5, 620627, Note_on_c, 0, 69, 92
5, 620655, Note_on_c, 0, 71, 0
5, 620713, Note_on_c, 0, 71, 87
5, 620745, Note_on_c, 0, 69, 0
5, 620796, Note_on_c, 0, 69, 88
5, 620831, Note_on_c, 0, 71, 0
5, 620856, Note_on_c, 0, 71, 83
5, 620914, Note_on_c, 0, 69, 0
5, 620945, Note_on_c, 0, 69, 81
5, 620974, Note_on_c, 0, 71, 0
5, 621032, Note_on_c, 0, 71, 81
5, 621063, Note_on_c, 0, 69, 0
5, 621102, Note_on_c, 0, 69, 86
5, 621150, Note_on_c, 0, 71, 0
5, 621171, Note_on_c, 0, 71, 79
5, 621220, Note_on_c, 0, 69, 0
5, 621254, Note_on_c, 0, 69, 87
5, 621289, Note_on_c, 0, 71, 0
5, 621331, Note_on_c, 0, 71, 88
5, 621372, Note_on_c, 0, 69, 0
5, 621430, Note_on_c, 0, 69, 81
5, 621449, Note_on_c, 0, 71, 0
5, 621493, Note_on_c, 0, 71, 90
5, 621548, Note_on_c, 0, 69, 0
5, 621584, Note_on_c, 0, 69, 88
5, 621611, Note_on_c, 0, 71, 0
5, 621667, Note_on_c, 0, 71, 96
5, 621702, Note_on_c, 0, 69, 0
5, 621753, Note_on_c, 0, 69, 92
5, 621785, Note_on_c, 0, 71, 0
5, 621832, Note_on_c, 0, 71, 80
5, 621871, Note_on_c, 0, 69, 0
5, 621901, Note_on_c, 0, 69, 78
5, 621950, Note_on_c, 0, 71, 0
5, 621992, Note_on_c, 0, 71, 91
5, 622019, Note_on_c, 0, 69, 0
5, 622056, Note_on_c, 0, 69, 89
5, 622110, Note_on_c, 0, 71, 0
5, 622150, Note_on_c, 0, 71, 98
5, 622174, Note_on_c, 0, 69, 0
5, 622226, Note_on_c, 0, 69, 98
5, 622268, Note_on_c, 0, 71, 0
5, 622311, Note_on_c, 0, 71, 88
5, 622344, Note_on_c, 0, 69, 0
5, 622381, Note_on_c, 0, 69, 79
5, 622429, Note_on_c, 0, 71, 0
5, 622470, Note_on_c, 0, 71, 84
5, 622499, Note_on_c, 0, 69, 0
5, 622544, Note_on_c, 0, 69, 89
5, 622588, Note_on_c, 0, 71, 0
5, 622616, Note_on_c, 0, 71, 93
5, 622662, Note_on_c, 0, 69, 0
5, 622695, Note_on_c, 0, 69, 92
5, 622734, Note_on_c, 0, 71, 0
5, 622813, Note_on_c, 0, 69, 0
5, 623040, Note_on_c, 0, 83, 100
5, 623087, Note_on_c, 0, 83, 0
5, 623199, Note_on_c, 0, 82, 107
5, 623247, Note_on_c, 0, 82, 0
5, 623360, Note_on_c, 0, 81, 100
5, 623407, Note_on_c, 0, 81, 0
5, 623520, Note_on_c, 0, 83, 111
5, 623567, Note_on_c, 0, 83, 0
5, 623679, Note_on_c, 0, 81, 92
5, 623727, Note_on_c, 0, 81, 0
5, 623840, Note_on_c, 0, 79, 94
5, 623887, Note_on_c, 0, 79, 0
5, 624000, Note_on_c, 0, 77, 92
5, 624047, Note_on_c, 0, 77, 0
5, 624159, Note_on_c, 0, 76, 100
5, 624207, Note_on_c, 0, 76, 0
5, 654739, Note_on_c, 0, 63, 108
5, 654825, Note_on_c, 0, 65, 99
5, 654859, Note_on_c, 0, 63, 0
5, 654883, Note_on_c, 0, 63, 92
5, 654943, Note_on_c, 0, 65, 0
5, 654966, Note_on_c, 0, 65, 93
5, 655003, Note_on_c, 0, 63, 0
5, 655040, Note_on_c, 0, 63, 105
5, 655086, Note_on_c, 0, 65, 0
5, 655133, Note_on_c, 0, 65, 96
5, 655158, Note_on_c, 0, 63, 0
5, 655210, Note_on_c, 0, 61, 95
5, 655253, Note_on_c, 0, 65, 0
5, 655570, Note_on_c, 0, 61, 0
5, 655681, Note_on_c, 0, 59, 110
5, 655763, Note_on_c, 0, 61, 109
5, 655801, Note_on_c, 0, 59, 0
5, 655839, Note_on_c, 0, 59, 92
5, 655881, Note_on_c, 0, 61, 0
5, 655944, Note_on_c, 0, 61, 110
5, 655959, Note_on_c, 0, 59, 0
5, 656017, Note_on_c, 0, 59, 99
5, 656064, Note_on_c, 0, 61, 0
5, 656096, Note_on_c, 0, 61, 91
5, 656135, Note_on_c, 0, 59, 0
5, 656216, Note_on_c, 0, 61, 0
5, 656645, Note_on_c, 0, 66, 105
5, 656741, Note_on_c, 0, 68, 98
5, 656765, Note_on_c, 0, 66, 0
5, 656810, Note_on_c, 0, 66, 105
5, 656859, Note_on_c, 0, 68, 0
5, 656890, Note_on_c, 0, 68, 93
5, 656930, Note_on_c, 0, 66, 0
5, 656984, Note_on_c, 0, 66, 99
5, 657010, Note_on_c, 0, 68, 0
5, 657063, Note_on_c, 0, 68, 102
5, 657102, Note_on_c, 0, 66, 0
5, 657120, Note_on_c, 0, 64, 109
5, 657183, Note_on_c, 0, 68, 0
5, 657480, Note_on_c, 0, 64, 0
5, 657612, Note_on_c, 0, 63, 100
5, 657694, Note_on_c, 0, 65, 91
5, 657732, Note_on_c, 0, 63, 0
5, 657769, Note_on_c, 0, 63, 105
5, 657812, Note_on_c, 0, 65, 0
5, 657845, Note_on_c, 0, 65, 92
5, 657889, Note_on_c, 0, 63, 0
5, 657920, Note_on_c, 0, 63, 92
5, 657965, Note_on_c, 0, 65, 0
5, 658002, Note_on_c, 0, 65, 104
5, 658038, Note_on_c, 0, 63, 0
5, 658122, Note_on_c, 0, 65, 0
5, 658570, Note_on_c, 0, 64, 110
5, 658655, Note_on_c, 0, 65, 110
5, 658690, Note_on_c, 0, 64, 0
5, 658725, Note_on_c, 0, 64, 93
5, 658773, Note_on_c, 0, 65, 0
5, 658801, Note_on_c, 0, 65, 93
5, 658845, Note_on_c, 0, 64, 0
5, 658905, Note_on_c, 0, 64, 108
5, 658921, Note_on_c, 0, 65, 0
5, 658974, Note_on_c, 0, 65, 91
5, 659023, Note_on_c, 0, 64, 0
5, 659047, Note_on_c, 0, 61, 96
5, 659094, Note_on_c, 0, 65, 0
5, 659407, Note_on_c, 0, 61, 0
5, 659533, Note_on_c, 0, 59, 98
5, 659619, Note_on_c, 0, 61, 110
5, 659653, Note_on_c, 0, 59, 0
5, 659679, Note_on_c, 0, 59, 106
5, 659737, Note_on_c, 0, 61, 0
5, 659763, Note_on_c, 0, 61, 94
5, 659799, Note_on_c, 0, 59, 0
5, 659859, Note_on_c, 0, 59, 92
5, 659883, Note_on_c, 0, 61, 0
5, 659944, Note_on_c, 0, 61, 99
5, 659977, Note_on_c, 0, 59, 0
5, 660064, Note_on_c, 0, 61, 0
5, 660505, Note_on_c, 0, 66, 96
5, 660574, Note_on_c, 0, 68, 92
5, 660625, Note_on_c, 0, 66, 0
5, 660642, Note_on_c, 0, 66, 97
5, 660692, Note_on_c, 0, 68, 0
5, 660735, Note_on_c, 0, 68, 99
5, 660762, Note_on_c, 0, 66, 0
5, 660811, Note_on_c, 0, 66, 99
5, 660855, Note_on_c, 0, 68, 0
5, 660888, Note_on_c, 0, 68, 95
5, 660929, Note_on_c, 0, 66, 0
5, 660961, Note_on_c, 0, 64, 103
5, 661008, Note_on_c, 0, 68, 0
5, 661321, Note_on_c, 0, 64, 0
5, 661460, Note_on_c, 0, 63, 104
5, 661527, Note_on_c, 0, 65, 102
5, 661580, Note_on_c, 0, 63, 0
5, 661613, Note_on_c, 0, 63, 102
5, 661645, Note_on_c, 0, 65, 0
5, 661685, Note_on_c, 0, 65, 103
5, 661733, Note_on_c, 0, 63, 0
5, 661782, Note_on_c, 0, 63, 99
5, 661805, Note_on_c, 0, 65, 0
5, 661848, Note_on_c, 0, 65, 109
5, 661900, Note_on_c, 0, 63, 0
5, 661968, Note_on_c, 0, 65, 0
5, 662417, Note_on_c, 0, 63, 96
5, 662496, Note_on_c, 0, 65, 107
5, 662537, Note_on_c, 0, 63, 0
5, 662583, Note_on_c, 0, 63, 106
5, 662614, Note_on_c, 0, 65, 0
5, 662656, Note_on_c, 0, 65, 91
5, 662703, Note_on_c, 0, 63, 0
5, 662734, Note_on_c, 0, 63, 110
5, 662776, Note_on_c, 0, 65, 0
5, 662821, Note_on_c, 0, 65, 97
5, 662852, Note_on_c, 0, 63, 0
5, 662904, Note_on_c, 0, 61, 109
5, 662941, Note_on_c, 0, 65, 0
5, 663264, Note_on_c, 0, 61, 0
5, 663365, Note_on_c, 0, 59, 109
5, 663442, Note_on_c, 0, 61, 97
5, 663485, Note_on_c, 0, 59, 0
5, 663536, Note_on_c, 0, 59, 96
5, 663560, Note_on_c, 0, 61, 0
5, 663624, Note_on_c, 0, 61, 99
5, 663656, Note_on_c, 0, 59, 0
5, 663681, Note_on_c, 0, 59, 109
5, 663744, Note_on_c, 0, 61, 0
5, 663766, Note_on_c, 0, 61, 91
5, 663799, Note_on_c, 0, 59, 0
5, 663886, Note_on_c, 0, 61, 0
5, 664340, Note_on_c, 0, 66, 111
5, 664422, Note_on_c, 0, 68, 103
5, 664460, Note_on_c, 0, 66, 0
5, 664479, Note_on_c, 0, 66, 98
5, 664540, Note_on_c, 0, 68, 0
5, 664578, Note_on_c, 0, 68, 98
5, 664599, Note_on_c, 0, 66, 0
5, 664664, Note_on_c, 0, 66, 99
5, 664698, Note_on_c, 0, 68, 0
5, 664733, Note_on_c, 0, 68, 95
5, 664782, Note_on_c, 0, 66, 0
5, 664809, Note_on_c, 0, 64, 102
5, 664853, Note_on_c, 0, 68, 0
5, 665169, Note_on_c, 0, 64, 0
5, 665285, Note_on_c, 0, 63, 103
5, 665381, Note_on_c, 0, 65, 93
5, 665405, Note_on_c, 0, 63, 0
5, 665439, Note_on_c, 0, 63, 92
5, 665499, Note_on_c, 0, 65, 0
5, 665532, Note_on_c, 0, 65, 97
5, 665559, Note_on_c, 0, 63, 0
5, 665622, Note_on_c, 0, 63, 110
5, 665652, Note_on_c, 0, 65, 0
5, 665681, Note_on_c, 0, 65, 92
5, 665740, Note_on_c, 0, 63, 0
5, 665801, Note_on_c, 0, 65, 0
5, 666258, Note_on_c, 0, 75, 93
5, 666322, Note_on_c, 0, 77, 100
5, 666378, Note_on_c, 0, 75, 0
5, 666414, Note_on_c, 0, 75, 95
5, 666440, Note_on_c, 0, 77, 0
5, 666480, Note_on_c, 0, 77, 96
5, 666534, Note_on_c, 0, 75, 0
5, 666570, Note_on_c, 0, 75, 93
5, 666600, Note_on_c, 0, 77, 0
5, 666639, Note_on_c, 0, 77, 99
5, 666688, Note_on_c, 0, 75, 0
5, 666743, Note_on_c, 0, 73, 102
5, 666759, Note_on_c, 0, 77, 0
5, 666885, Note_on_c, 0, 73, 0
5, 667205, Note_on_c, 0, 71, 107
5, 667291, Note_on_c, 0, 73, 101
5, 667325, Note_on_c, 0, 71, 0
5, 667378, Note_on_c, 0, 71, 92
5, 667409, Note_on_c, 0, 73, 0
5, 667446, Note_on_c, 0, 73, 101
5, 667498, Note_on_c, 0, 71, 0
5, 667536, Note_on_c, 0, 71, 104
5, 667566, Note_on_c, 0, 73, 0
5, 667615, Note_on_c, 0, 73, 104
5, 667654, Note_on_c, 0, 71, 0
5, 667735, Note_on_c, 0, 73, 0
5, 668183, Note_on_c, 0, 78, 111
5, 668259, Note_on_c, 0, 80, 96
5, 668303, Note_on_c, 0, 78, 0
5, 668330, Note_on_c, 0, 78, 98
5, 668377, Note_on_c, 0, 80, 0
5, 668422, Note_on_c, 0, 80, 111
5, 668450, Note_on_c, 0, 78, 0
5, 668503, Note_on_c, 0, 78, 104
5, 668542, Note_on_c, 0, 80, 0
5, 668577, Note_on_c, 0, 80, 94
5, 668621, Note_on_c, 0, 78, 0
5, 668644, Note_on_c, 0, 76, 110
5, 668697, Note_on_c, 0, 80, 0
5, 668786, Note_on_c, 0, 76, 0
5, 669133, Note_on_c, 0, 75, 106
5, 669214, Note_on_c, 0, 77, 99
5, 669253, Note_on_c, 0, 75, 0
5, 669280, Note_on_c, 0, 75, 102
5, 669332, Note_on_c, 0, 77, 0
5, 669372, Note_on_c, 0, 77, 93
5, 669400, Note_on_c, 0, 75, 0
5, 669441, Note_on_c, 0, 75, 96
5, 669492, Note_on_c, 0, 77, 0
5, 669534, Note_on_c, 0, 77, 95
5, 669559, Note_on_c, 0, 75, 0
5, 669654, Note_on_c, 0, 77, 0
5, 670084, Note_on_c, 0, 75, 95
5, 670181, Note_on_c, 0, 77, 97
5, 670204, Note_on_c, 0, 75, 0
5, 670243, Note_on_c, 0, 75, 91
5, 670299, Note_on_c, 0, 77, 0
5, 670345, Note_on_c, 0, 77, 110
5, 670363, Note_on_c, 0, 75, 0
5, 670417, Note_on_c, 0, 75, 111
5, 670465, Note_on_c, 0, 77, 0
5, 670497, Note_on_c, 0, 77, 96
5, 670535, Note_on_c, 0, 75, 0
5, 670580, Note_on_c, 0, 73, 99
5, 670617, Note_on_c, 0, 77, 0
5, 670722, Note_on_c, 0, 73, 0
5, 671061, Note_on_c, 0, 71, 92
5, 671123, Note_on_c, 0, 73, 100
5, 671181, Note_on_c, 0, 71, 0
5, 671217, Note_on_c, 0, 71, 95
5, 671241, Note_on_c, 0, 73, 0
5, 671301, Note_on_c, 0, 73, 98
5, 671337, Note_on_c, 0, 71, 0
5, 671367, Note_on_c, 0, 71, 108
5, 671421, Note_on_c, 0, 73, 0
5, 671447, Note_on_c, 0, 73, 95
5, 671485, Note_on_c, 0, 71, 0
5, 671567, Note_on_c, 0, 73, 0
5, 672022, Note_on_c, 0, 78, 95
5, 672091, Note_on_c, 0, 80, 106
5, 672142, Note_on_c, 0, 78, 0
5, 672165, Note_on_c, 0, 78, 103
5, 672209, Note_on_c, 0, 80, 0
5, 672249, Note_on_c, 0, 80, 96
5, 672285, Note_on_c, 0, 78, 0
5, 672332, Note_on_c, 0, 78, 94
5, 672369, Note_on_c, 0, 80, 0
5, 672408, Note_on_c, 0, 80, 94
5, 672450, Note_on_c, 0, 78, 0
5, 672492, Note_on_c, 0, 76, 92
5, 672528, Note_on_c, 0, 80, 0
5, 672634, Note_on_c, 0, 76, 0
5, 672968, Note_on_c, 0, 75, 109
5, 673047, Note_on_c, 0, 77, 96
5, 673088, Note_on_c, 0, 75, 0
5, 673141, Note_on_c, 0, 75, 98
5, 673165, Note_on_c, 0, 77, 0
5, 673220, Note_on_c, 0, 77, 108
5, 673261, Note_on_c, 0, 75, 0
5, 673302, Note_on_c, 0, 75, 106
5, 673340, Note_on_c, 0, 77, 0
5, 673382, Note_on_c, 0, 77, 105
5, 673420, Note_on_c, 0, 75, 0
5, 673502, Note_on_c, 0, 77, 0
5, 673929, Note_on_c, 0, 75, 105
5, 674001, Note_on_c, 0, 77, 97
5, 674049, Note_on_c, 0, 75, 0
5, 674087, Note_on_c, 0, 75, 94
5, 674119, Note_on_c, 0, 77, 0
5, 674163, Note_on_c, 0, 77, 110
5, 674207, Note_on_c, 0, 75, 0
5, 674257, Note_on_c, 0, 75, 102
5, 674283, Note_on_c, 0, 77, 0
5, 674332, Note_on_c, 0, 77, 101
5, 674375, Note_on_c, 0, 75, 0
5, 674402, Note_on_c, 0, 73, 110
5, 674452, Note_on_c, 0, 77, 0
5, 674544, Note_on_c, 0, 73, 0
5, 674898, Note_on_c, 0, 71, 95
5, 674979, Note_on_c, 0, 73, 99
5, 675018, Note_on_c, 0, 71, 0
5, 675043, Note_on_c, 0, 71, 93
5, 675097, Note_on_c, 0, 73, 0
5, 675131, Note_on_c, 0, 73, 104
5, 675163, Note_on_c, 0, 71, 0
5, 675215, Note_on_c, 0, 71, 99
5, 675251, Note_on_c, 0, 73, 0
5, 675286, Note_on_c, 0, 73, 109
5, 675333, Note_on_c, 0, 71, 0
5, 675406, Note_on_c, 0, 73, 0
5, 675861, Note_on_c, 0, 78, 100
5, 675927, Note_on_c, 0, 80, 94
5, 675981, Note_on_c, 0, 78, 0
5, 676009, Note_on_c, 0, 78, 92
5, 676045, Note_on_c, 0, 80, 0
5, 676082, Note_on_c, 0, 80, 105
5, 676129, Note_on_c, 0, 78, 0
5, 676174, Note_on_c, 0, 78, 105
5, 676202, Note_on_c, 0, 80, 0
5, 676242, Note_on_c, 0, 80, 93
5, 676292, Note_on_c, 0, 78, 0
5, 676331, Note_on_c, 0, 76, 103
5, 676362, Note_on_c, 0, 80, 0
5, 676473, Note_on_c, 0, 76, 0
5, 676817, Note_on_c, 0, 75, 95
5, 676885, Note_on_c, 0, 77, 102
5, 676937, Note_on_c, 0, 75, 0
5, 676978, Note_on_c, 0, 75, 91
5, 677003, Note_on_c, 0, 77, 0
5, 677049, Note_on_c, 0, 77, 99
5, 677098, Note_on_c, 0, 75, 0
5, 677135, Note_on_c, 0, 75, 110
5, 677169, Note_on_c, 0, 77, 0
5, 677214, Note_on_c, 0, 77, 107
5, 677253, Note_on_c, 0, 75, 0
5, 677334, Note_on_c, 0, 77, 0
5, 689300, Note_on_c, 0, 55, 93
5, 689363, Note_on_c, 0, 60, 97
5, 689368, Note_on_c, 0, 55, 0
5, 689425, Note_on_c, 0, 64, 100
5, 689431, Note_on_c, 0, 60, 0
5, 689493, Note_on_c, 0, 64, 0
5, 689506, Note_on_c, 0, 66, 94
5, 689566, Note_on_c, 0, 67, 98
5, 689574, Note_on_c, 0, 66, 0
5, 689634, Note_on_c, 0, 67, 0
5, 689646, Note_on_c, 0, 72, 109
5, 689708, Note_on_c, 0, 76, 103
5, 689714, Note_on_c, 0, 72, 0
5, 689776, Note_on_c, 0, 76, 0
5, 690262, Note_on_c, 0, 79, 110
5, 690622, Note_on_c, 0, 79, 0
5, 691215, Note_on_c, 0, 79, 112
5, 691575, Note_on_c, 0, 79, 0
5, 692422, Note_on_c, 0, 79, 113
5, 692662, Note_on_c, 0, 79, 0
5, 693135, Note_on_c, 0, 79, 107
5, 693495, Note_on_c, 0, 79, 0
5, 694096, Note_on_c, 0, 81, 111
5, 694456, Note_on_c, 0, 81, 0
5, 694584, Note_on_c, 0, 81, 96
5, 694699, Note_on_c, 0, 81, 0
5, 694770, Note_on_c, 0, 81, 107
5, 694885, Note_on_c, 0, 81, 0
5, 694945, Note_on_c, 0, 81, 114
5, 695060, Note_on_c, 0, 81, 0
5, 695144, Note_on_c, 0, 81, 108
5, 695258, Note_on_c, 0, 81, 0
5, 695340, Note_on_c, 0, 81, 102
5, 695455, Note_on_c, 0, 81, 0
5, 695536, Note_on_c, 0, 81, 106
5, 695616, Note_on_c, 0, 81, 0
5, 695695, Note_on_c, 0, 81, 101
5, 695776, Note_on_c, 0, 81, 0
5, 695840, Note_on_c, 0, 81, 110
5, 695920, Note_on_c, 0, 81, 0
5, 696011, Note_on_c, 0, 81, 108
5, 696371, Note_on_c, 0, 81, 0
5, 696504, Note_on_c, 0, 55, 98
5, 696569, Note_on_c, 0, 60, 100
5, 696572, Note_on_c, 0, 55, 0
5, 696621, Note_on_c, 0, 64, 101
5, 696637, Note_on_c, 0, 60, 0
5, 696689, Note_on_c, 0, 64, 0
5, 696694, Note_on_c, 0, 66, 97
5, 696754, Note_on_c, 0, 67, 106
5, 696762, Note_on_c, 0, 66, 0
5, 696822, Note_on_c, 0, 67, 0
5, 696845, Note_on_c, 0, 72, 109
5, 696900, Note_on_c, 0, 76, 96
5, 696913, Note_on_c, 0, 72, 0
5, 696968, Note_on_c, 0, 76, 0
5, 697455, Note_on_c, 0, 81, 97
5, 697815, Note_on_c, 0, 81, 0
5, 697920, Note_on_c, 0, 55, 112
5, 697988, Note_on_c, 0, 55, 0
5, 698000, Note_on_c, 0, 60, 95
5, 698058, Note_on_c, 0, 64, 110
5, 698068, Note_on_c, 0, 60, 0
5, 698125, Note_on_c, 0, 66, 109
5, 698126, Note_on_c, 0, 64, 0
5, 698193, Note_on_c, 0, 66, 0
5, 698216, Note_on_c, 0, 67, 103
5, 698284, Note_on_c, 0, 67, 0
5, 698285, Note_on_c, 0, 72, 115
5, 698350, Note_on_c, 0, 76, 115
5, 698353, Note_on_c, 0, 72, 0
5, 698418, Note_on_c, 0, 76, 0
5, 698902, Note_on_c, 0, 81, 111
5, 699022, Note_on_c, 0, 81, 0
5, 699122, Note_on_c, 0, 81, 103
5, 699242, Note_on_c, 0, 81, 0
5, 699369, Note_on_c, 0, 81, 98
5, 699729, Note_on_c, 0, 81, 0
5, 700330, Note_on_c, 0, 81, 100
5, 700690, Note_on_c, 0, 81, 0
5, 701303, Note_on_c, 0, 79, 105
5, 701663, Note_on_c, 0, 79, 0
5, 702024, Note_on_c, 0, 79, 113
5, 702264, Note_on_c, 0, 79, 0
5, 703209, Note_on_c, 0, 79, 114
5, 703569, Note_on_c, 0, 79, 0
5, 704181, Note_on_c, 0, 81, 113
5, 704541, Note_on_c, 0, 81, 0
5, 704642, Note_on_c, 0, 81, 115
5, 704762, Note_on_c, 0, 81, 0
5, 704880, Note_on_c, 0, 81, 101
5, 705000, Note_on_c, 0, 81, 0
5, 705124, Note_on_c, 0, 81, 107
5, 705484, Note_on_c, 0, 81, 0
5, 706102, Note_on_c, 0, 81, 107
5, 706182, Note_on_c, 0, 81, 0
5, 706245, Note_on_c, 0, 81, 111
5, 706326, Note_on_c, 0, 81, 0
5, 706402, Note_on_c, 0, 81, 104
5, 706482, Note_on_c, 0, 81, 0
5, 706571, Note_on_c, 0, 81, 111
5, 706931, Note_on_c, 0, 81, 0
5, 707543, Note_on_c, 0, 81, 107
5, 707623, Note_on_c, 0, 81, 0
5, 707692, Note_on_c, 0, 81, 102
5, 707773, Note_on_c, 0, 81, 0
5, 707840, Note_on_c, 0, 81, 109
5, 707920, Note_on_c, 0, 81, 0
5, 708008, Note_on_c, 0, 81, 95
5, 708088, Note_on_c, 0, 81, 0
5, 708176, Note_on_c, 0, 81, 112
5, 708257, Note_on_c, 0, 81, 0
5, 708343, Note_on_c, 0, 81, 106
5, 708423, Note_on_c, 0, 81, 0
5, 708964, Note_on_c, 0, 55, 97
5, 709032, Note_on_c, 0, 55, 0
5, 709034, Note_on_c, 0, 60, 104
5, 709102, Note_on_c, 0, 60, 0
5, 709119, Note_on_c, 0, 64, 113
5, 709176, Note_on_c, 0, 66, 114
5, 709187, Note_on_c, 0, 64, 0
5, 709244, Note_on_c, 0, 66, 0
5, 709255, Note_on_c, 0, 67, 113
5, 709323, Note_on_c, 0, 67, 0
5, 709323, Note_on_c, 0, 72, 114
5, 709391, Note_on_c, 0, 72, 0
5, 709391, Note_on_c, 0, 76, 108
5, 709459, Note_on_c, 0, 76, 0
5, 710420, Note_on_c, 0, 81, 113
5, 710500, Note_on_c, 0, 81, 0
5, 710561, Note_on_c, 0, 81, 111
5, 710642, Note_on_c, 0, 81, 0
5, 710722, Note_on_c, 0, 81, 104
5, 710802, Note_on_c, 0, 81, 0
5, 710899, Note_on_c, 0, 81, 106
5, 710979, Note_on_c, 0, 81, 0
5, 711050, Note_on_c, 0, 81, 98
5, 711131, Note_on_c, 0, 81, 0
5, 711223, Note_on_c, 0, 81, 109
5, 711303, Note_on_c, 0, 81, 0
5, 711841, Note_on_c, 0, 55, 110
5, 711909, Note_on_c, 0, 55, 0
5, 711911, Note_on_c, 0, 60, 97
5, 711979, Note_on_c, 0, 60, 0
5, 711979, Note_on_c, 0, 64, 105
5, 712047, Note_on_c, 0, 64, 0
5, 712068, Note_on_c, 0, 66, 105
5, 712125, Note_on_c, 0, 67, 109
5, 712136, Note_on_c, 0, 66, 0
5, 712193, Note_on_c, 0, 67, 0
5, 712197, Note_on_c, 0, 72, 108
5, 712259, Note_on_c, 0, 76, 105
5, 712265, Note_on_c, 0, 72, 0
5, 712327, Note_on_c, 0, 76, 0
5, 712811, Note_on_c, 0, 79, 113
5, 713171, Note_on_c, 0, 79, 0
5, 713296, Note_on_c, 0, 79, 102
5, 713656, Note_on_c, 0, 79, 0
5, 714264, Note_on_c, 0, 79, 105
5, 714624, Note_on_c, 0, 79, 0
5, 715464, Note_on_c, 0, 79, 98
5, 715704, Note_on_c, 0, 79, 0
5, 716172, Note_on_c, 0, 79, 106
5, 716532, Note_on_c, 0, 79, 0
5, 717131, Note_on_c, 0, 79, 115
5, 717491, Note_on_c, 0, 79, 0
5, 717851, Note_on_c, 0, 79, 111
5, 718091, Note_on_c, 0, 79, 0
5, 719060, Note_on_c, 0, 79, 114
5, 719420, Note_on_c, 0, 79, 0
5, 720002, Note_on_c, 0, 79, 103
5, 720362, Note_on_c, 0, 79, 0
5, 720972, Note_on_c, 0, 79, 105
5, 721332, Note_on_c, 0, 79, 0
5, 765611, Note_on_c, 0, 79, 111
5, 766091, Note_on_c, 0, 79, 0
5, 766817, Note_on_c, 0, 79, 108
5, 767057, Note_on_c, 0, 79, 0
5, 768011, Note_on_c, 0, 79, 115
5, 768491, Note_on_c, 0, 79, 0
5, 768740, Note_on_c, 0, 79, 104
5, 768980, Note_on_c, 0, 79, 0
5, 769456, Note_on_c, 0, 79, 124
5, 769936, Note_on_c, 0, 79, 0
5, 770408, Note_on_c, 0, 79, 121
5, 770888, Note_on_c, 0, 79, 0
5, 771605, Note_on_c, 0, 79, 112
5, 771845, Note_on_c, 0, 79, 0
5, 772803, Note_on_c, 0, 79, 121
5, 773283, Note_on_c, 0, 79, 0
5, 773283, End_track
6, 0, Start_track
6, 0, Title_t, "Oboi"
6, 0, MIDI_port, 0
6, 0, Program_c, 1, 68
6, 0, Control_c, 1, 7, 75
6, 0, Control_c, 1, 10, 44
6, 0, Control_c, 1, 91, 64
6, 23520, Program_c, 1, 68
6, 23531, Note_on_c, 1, 75, 84
6, 23609, Note_on_c, 1, 75, 0
6, 23679, Note_on_c, 1, 75, 85
6, 23718, Note_on_c, 1, 75, 0
6, 23760, Note_on_c, 1, 75, 80
6, 23799, Note_on_c, 1, 75, 0
6, 23840, Note_on_c, 1, 75, 76
6, 23879, Note_on_c, 1, 75, 0
6, 23919, Note_on_c, 1, 75, 75
6, 23958, Note_on_c, 1, 75, 0
6, 24014, Note_on_c, 1, 75, 82
6, 24133, Note_on_c, 1, 75, 0
6, 24159, Note_on_c, 1, 75, 66
6, 24198, Note_on_c, 1, 75, 0
6, 24240, Note_on_c, 1, 75, 85
6, 24279, Note_on_c, 1, 75, 0
6, 24320, Note_on_c, 1, 75, 71
6, 24359, Note_on_c, 1, 75, 0
6, 24399, Note_on_c, 1, 75, 81
6, 24438, Note_on_c, 1, 75, 0
6, 24488, Note_on_c, 1, 75, 66
6, 25748, Note_on_c, 1, 75, 0
6, 25922, Note_on_c, 1, 75, 70
6, 26002, Note_on_c, 1, 75, 0
6, 26079, Note_on_c, 1, 75, 83
6, 26119, Note_on_c, 1, 75, 0
6, 26160, Note_on_c, 1, 75, 82
6, 26200, Note_on_c, 1, 75, 0
6, 26240, Note_on_c, 1, 75, 66
6, 26279, Note_on_c, 1, 75, 0
6, 26319, Note_on_c, 1, 75, 78
6, 26359, Note_on_c, 1, 75, 0
6, 26404, Note_on_c, 1, 75, 80
6, 27339, Note_on_c, 1, 75, 0
6, 27373, Note_on_c, 1, 75, 73
6, 27450, Note_on_c, 1, 75, 0
6, 27519, Note_on_c, 1, 75, 77
6, 27559, Note_on_c, 1, 75, 0
6, 27600, Note_on_c, 1, 75, 78
6, 27640, Note_on_c, 1, 75, 0
6, 27680, Note_on_c, 1, 75, 80
6, 27719, Note_on_c, 1, 75, 0
6, 27759, Note_on_c, 1, 75, 75
6, 27799, Note_on_c, 1, 75, 0
6, 27862, Note_on_c, 1, 75, 65
6, 28812, Note_on_c, 1, 76, 87
6, 28822, Note_on_c, 1, 75, 0
6, 29439, Note_on_c, 1, 73, 96
6, 29451, Note_on_c, 1, 76, 0
6, 29599, Note_on_c, 1, 73, 0
6, 29600, Note_on_c, 1, 80, 88
6, 29699, Note_on_c, 1, 80, 0
6, 29730, Note_on_c, 1, 80, 86
6, 29784, Note_on_c, 1, 77, 97
6, 29801, Note_on_c, 1, 80, 0
6, 30419, Note_on_c, 1, 73, 78
6, 30423, Note_on_c, 1, 77, 0
6, 30568, Note_on_c, 1, 80, 92
6, 30579, Note_on_c, 1, 73, 0
6, 30667, Note_on_c, 1, 80, 0
6, 30690, Note_on_c, 1, 80, 96
6, 30726, Note_on_c, 1, 77, 96
6, 30741, Note_on_c, 1, 80, 0
6, 30885, Note_on_c, 1, 77, 0
6, 30902, Note_on_c, 1, 73, 97
6, 31052, Note_on_c, 1, 80, 85
6, 31062, Note_on_c, 1, 73, 0
6, 31151, Note_on_c, 1, 80, 0
6, 31170, Note_on_c, 1, 77, 93
6, 31200, Note_on_c, 1, 77, 0
6, 31221, Note_on_c, 1, 77, 83
6, 31359, Note_on_c, 1, 73, 80
6, 31380, Note_on_c, 1, 77, 0
6, 31519, Note_on_c, 1, 73, 0
6, 31540, Note_on_c, 1, 80, 86
6, 31590, Note_on_c, 1, 85, 84
6, 31609, Note_on_c, 1, 80, 0
6, 31635, Note_on_c, 1, 85, 0
6, 31635, Note_on_c, 1, 78, 86
6, 31663, Note_on_c, 1, 76, 85
6, 31680, Note_on_c, 1, 78, 0
6, 31939, Note_on_c, 1, 76, 0
6, 42243, Note_on_c, 1, 66, 67
6, 42259, Note_on_c, 1, 70, 67
6, 42339, Note_on_c, 1, 70, 0
6, 42399, Note_on_c, 1, 70, 77
6, 42438, Note_on_c, 1, 70, 0
6, 42480, Note_on_c, 1, 70, 71
6, 42519, Note_on_c, 1, 70, 0
6, 42560, Note_on_c, 1, 70, 71
6, 42599, Note_on_c, 1, 70, 0
6, 42639, Note_on_c, 1, 70, 79
6, 42678, Note_on_c, 1, 70, 0
6, 42729, Note_on_c, 1, 70, 72
6, 42809, Note_on_c, 1, 70, 0
6, 42879, Note_on_c, 1, 70, 71
6, 42918, Note_on_c, 1, 70, 0
6, 42930, Note_on_c, 1, 66, 67
6, 42933, Note_on_c, 1, 66, 0
6, 42960, Note_on_c, 1, 66, 0
6, 42960, Note_on_c, 1, 70, 67
6, 42968, Note_on_c, 1, 63, 82
6, 42999, Note_on_c, 1, 70, 0
6, 43040, Note_on_c, 1, 70, 76
6, 43079, Note_on_c, 1, 70, 0
6, 43119, Note_on_c, 1, 70, 68
6, 43158, Note_on_c, 1, 70, 0
6, 43200, Note_on_c, 1, 70, 82
6, 43202, Note_on_c, 1, 66, 81
6, 43208, Note_on_c, 1, 63, 0
6, 43238, Note_on_c, 1, 70, 0
6, 43238, Note_on_c, 1, 72, 75
6, 43277, Note_on_c, 1, 72, 0
6, 43277, Note_on_c, 1, 70, 65
6, 43315, Note_on_c, 1, 70, 0
6, 43316, Note_on_c, 1, 72, 84
6, 43355, Note_on_c, 1, 72, 0
6, 43355, Note_on_c, 1, 70, 68
6, 43359, Note_on_c, 1, 63, 78
6, 43361, Note_on_c, 1, 66, 0
6, 43393, Note_on_c, 1, 70, 0
6, 43394, Note_on_c, 1, 72, 67
6, 43433, Note_on_c, 1, 72, 0
6, 43433, Note_on_c, 1, 70, 75
6, 43471, Note_on_c, 1, 70, 0
6, 43471, Note_on_c, 1, 72, 78
6, 43510, Note_on_c, 1, 72, 0
6, 43511, Note_on_c, 1, 70, 73
6, 43519, Note_on_c, 1, 63, 0
6, 43526, Note_on_c, 1, 75, 74
6, 43550, Note_on_c, 1, 70, 0
6, 43550, Note_on_c, 1, 72, 79
6, 43588, Note_on_c, 1, 72, 0
6, 43588, Note_on_c, 1, 70, 69
6, 43627, Note_on_c, 1, 70, 0
6, 43627, Note_on_c, 1, 72, 73
6, 43650, Note_on_c, 1, 76, 73
6, 43655, Note_on_c, 1, 75, 0
6, 43665, Note_on_c, 1, 72, 0
6, 43666, Note_on_c, 1, 70, 69
6, 43680, Note_on_c, 1, 76, 0
6, 43704, Note_on_c, 1, 66, 84
6, 43705, Note_on_c, 1, 70, 0
6, 43705, Note_on_c, 1, 72, 78
6, 43743, Note_on_c, 1, 72, 0
6, 43744, Note_on_c, 1, 70, 78
6, 43783, Note_on_c, 1, 70, 0
6, 43783, Note_on_c, 1, 72, 68
6, 43821, Note_on_c, 1, 72, 0
6, 43822, Note_on_c, 1, 70, 65
6, 43860, Note_on_c, 1, 70, 0
6, 43861, Note_on_c, 1, 72, 66
6, 43900, Note_on_c, 1, 72, 0
6, 43900, Note_on_c, 1, 70, 85
6, 43938, Note_on_c, 1, 70, 0
6, 43938, Note_on_c, 1, 72, 83
6, 43977, Note_on_c, 1, 72, 0
6, 43978, Note_on_c, 1, 70, 79
6, 44016, Note_on_c, 1, 70, 0
6, 44016, Note_on_c, 1, 72, 79
6, 44055, Note_on_c, 1, 72, 0
6, 44055, Note_on_c, 1, 70, 78
6, 44093, Note_on_c, 1, 70, 0
6, 44094, Note_on_c, 1, 72, 65
6, 44133, Note_on_c, 1, 72, 0
6, 44133, Note_on_c, 1, 70, 79
6, 44172, Note_on_c, 1, 72, 73
6, 44174, Note_on_c, 1, 70, 0
6, 44210, Note_on_c, 1, 72, 0
6, 44211, Note_on_c, 1, 70, 83
6, 44250, Note_on_c, 1, 70, 0
6, 44250, Note_on_c, 1, 72, 75
6, 44288, Note_on_c, 1, 72, 0
6, 44289, Note_on_c, 1, 70, 85
6, 44319, Note_on_c, 1, 63, 66
6, 44328, Note_on_c, 1, 70, 0
6, 44328, Note_on_c, 1, 72, 67
6, 44343, Note_on_c, 1, 66, 0
6, 44366, Note_on_c, 1, 72, 0
6, 44366, Note_on_c, 1, 70, 69
6, 44405, Note_on_c, 1, 70, 0
6, 44405, Note_on_c, 1, 72, 80
6, 44443, Note_on_c, 1, 72, 0
6, 44445, Note_on_c, 1, 70, 76
6, 44479, Note_on_c, 1, 63, 0
6, 44483, Note_on_c, 1, 70, 0
6, 44483, Note_on_c, 1, 72, 80
6, 44489, Note_on_c, 1, 75, 69
6, 44522, Note_on_c, 1, 72, 0
6, 44522, Note_on_c, 1, 70, 76
6, 44560, Note_on_c, 1, 70, 0
6, 44561, Note_on_c, 1, 72, 77
6, 44600, Note_on_c, 1, 72, 0
6, 44600, Note_on_c, 1, 70, 70
6, 44610, Note_on_c, 1, 76, 65
6, 44618, Note_on_c, 1, 75, 0
6, 44638, Note_on_c, 1, 70, 0
6, 44639, Note_on_c, 1, 72, 74
6, 44640, Note_on_c, 1, 76, 0
6, 44651, Note_on_c, 1, 66, 76
6, 44678, Note_on_c, 1, 72, 0
6, 44678, Note_on_c, 1, 70, 76
6, 44716, Note_on_c, 1, 70, 0
6, 44716, Note_on_c, 1, 72, 67
6, 44755, Note_on_c, 1, 72, 0
6, 44756, Note_on_c, 1, 70, 78
6, 44795, Note_on_c, 1, 70, 0
6, 44795, Note_on_c, 1, 72, 80
6, 44810, Note_on_c, 1, 66, 0
6, 44821, Note_on_c, 1, 63, 69
6, 44833, Note_on_c, 1, 72, 0
6, 44833, Note_on_c, 1, 70, 72
6, 44872, Note_on_c, 1, 70, 0
6, 44872, Note_on_c, 1, 72, 82
6, 44910, Note_on_c, 1, 72, 0
6, 44911, Note_on_c, 1, 70, 72
6, 44950, Note_on_c, 1, 70, 0
6, 44950, Note_on_c, 1, 72, 65
6, 44981, Note_on_c, 1, 63, 0
6, 44985, Note_on_c, 1, 75, 85
6, 44988, Note_on_c, 1, 72, 0
6, 44989, Note_on_c, 1, 70, 65
6, 45028, Note_on_c, 1, 70, 0
6, 45028, Note_on_c, 1, 72, 80
6, 45066, Note_on_c, 1, 72, 0
6, 45067, Note_on_c, 1, 70, 81
6, 45105, Note_on_c, 1, 70, 0
6, 45144, Note_on_c, 1, 75, 0
6, 46080, Note_on_c, 1, 70, 71
6, 46102, Note_on_c, 1, 66, 82
6, 46117, Note_on_c, 1, 70, 0
6, 46117, Note_on_c, 1, 72, 74
6, 46154, Note_on_c, 1, 72, 0
6, 46155, Note_on_c, 1, 70, 74
6, 46192, Note_on_c, 1, 70, 0
6, 46193, Note_on_c, 1, 72, 85
6, 46230, Note_on_c, 1, 72, 0
6, 46231, Note_on_c, 1, 70, 79
6, 46249, Note_on_c, 1, 63, 68
6, 46261, Note_on_c, 1, 66, 0
6, 46268, Note_on_c, 1, 70, 0
6, 46269, Note_on_c, 1, 72, 76
6, 46306, Note_on_c, 1, 72, 0
6, 46307, Note_on_c, 1, 70, 79
6, 46344, Note_on_c, 1, 70, 0
6, 46345, Note_on_c, 1, 72, 74
6, 46382, Note_on_c, 1, 72, 0
6, 46383, Note_on_c, 1, 70, 74
6, 46400, Note_on_c, 1, 75, 65
6, 46409, Note_on_c, 1, 63, 0
6, 46420, Note_on_c, 1, 70, 0
6, 46421, Note_on_c, 1, 72, 81
6, 46458, Note_on_c, 1, 72, 0
6, 46459, Note_on_c, 1, 70, 72
6, 46496, Note_on_c, 1, 70, 0
6, 46497, Note_on_c, 1, 72, 65
6, 46529, Note_on_c, 1, 75, 0
6, 46530, Note_on_c, 1, 76, 77
6, 46534, Note_on_c, 1, 72, 0
6, 46535, Note_on_c, 1, 70, 74
6, 46560, Note_on_c, 1, 76, 0
6, 46572, Note_on_c, 1, 70, 0
6, 46573, Note_on_c, 1, 72, 82
6, 46584, Note_on_c, 1, 66, 79
6, 46610, Note_on_c, 1, 72, 0
6, 46611, Note_on_c, 1, 70, 83
6, 46648, Note_on_c, 1, 70, 0
6, 46649, Note_on_c, 1, 72, 77
6, 46686, Note_on_c, 1, 72, 0
6, 46687, Note_on_c, 1, 70, 68
6, 46724, Note_on_c, 1, 70, 0
6, 46725, Note_on_c, 1, 72, 78
6, 46743, Note_on_c, 1, 66, 0
6, 46744, Note_on_c, 1, 63, 66
6, 46762, Note_on_c, 1, 72, 0
6, 46763, Note_on_c, 1, 70, 65
6, 46800, Note_on_c, 1, 70, 0
6, 46801, Note_on_c, 1, 72, 79
6, 46838, Note_on_c, 1, 72, 0
6, 46839, Note_on_c, 1, 70, 71
6, 46876, Note_on_c, 1, 70, 0
6, 46876, Note_on_c, 1, 72, 71
6, 46881, Note_on_c, 1, 75, 79
6, 46904, Note_on_c, 1, 63, 0
6, 46913, Note_on_c, 1, 72, 0
6, 46915, Note_on_c, 1, 70, 67
6, 46952, Note_on_c, 1, 70, 0
6, 46953, Note_on_c, 1, 72, 78
6, 46990, Note_on_c, 1, 72, 0
6, 46991, Note_on_c, 1, 70, 66
6, 47028, Note_on_c, 1, 70, 0
6, 47040, Note_on_c, 1, 75, 0
6, 54731, Note_on_c, 1, 77, 96
6, 54851, Note_on_c, 1, 77, 0
6, 54960, Note_on_c, 1, 72, 70
6, 55295, Note_on_c, 1, 72, 0
6, 55301, Note_on_c, 1, 65, 79
6, 55396, Note_on_c, 1, 65, 0
6, 55413, Note_on_c, 1, 70, 75
6, 55505, Note_on_c, 1, 75, 77
6, 55509, Note_on_c, 1, 70, 0
6, 55591, Note_on_c, 1, 77, 68
6, 55600, Note_on_c, 1, 75, 0
6, 55682, Note_on_c, 1, 72, 83
6, 55686, Note_on_c, 1, 77, 0
6, 56242, Note_on_c, 1, 72, 0
6, 56255, Note_on_c, 1, 65, 70
6, 56325, Note_on_c, 1, 70, 71
6, 56334, Note_on_c, 1, 65, 0
6, 56400, Note_on_c, 1, 75, 71
6, 56405, Note_on_c, 1, 70, 0
6, 56480, Note_on_c, 1, 75, 0
6, 56503, Note_on_c, 1, 77, 68
6, 56582, Note_on_c, 1, 77, 0
6, 56583, Note_on_c, 1, 72, 80
6, 56659, Note_on_c, 1, 77, 99
6, 56663, Note_on_c, 1, 72, 0
6, 56919, Note_on_c, 1, 75, 73
6, 56938, Note_on_c, 1, 77, 0
6, 56959, Note_on_c, 1, 75, 0
6, 56960, Note_on_c, 1, 77, 76
6, 56999, Note_on_c, 1, 77, 0
6, 57000, Note_on_c, 1, 75, 66
6, 57039, Note_on_c, 1, 75, 0
6, 57039, Note_on_c, 1, 77, 81
6, 57079, Note_on_c, 1, 77, 0
6, 57080, Note_on_c, 1, 75, 69
6, 57119, Note_on_c, 1, 75, 0
6, 57144, Note_on_c, 1, 77, 72
6, 57879, Note_on_c, 1, 75, 66
6, 57903, Note_on_c, 1, 77, 0
6, 57919, Note_on_c, 1, 75, 0
6, 57920, Note_on_c, 1, 77, 70
6, 57959, Note_on_c, 1, 77, 0
6, 57960, Note_on_c, 1, 75, 84
6, 57999, Note_on_c, 1, 75, 0
6, 57999, Note_on_c, 1, 77, 78
6, 58039, Note_on_c, 1, 77, 0
6, 58040, Note_on_c, 1, 75, 84
6, 58079, Note_on_c, 1, 75, 0
6, 58103, Note_on_c, 1, 77, 66
6, 58327, Note_on_c, 1, 72, 73
6, 58343, Note_on_c, 1, 77, 0
6, 58567, Note_on_c, 1, 72, 0
6, 58573, Note_on_c, 1, 72, 67
6, 58668, Note_on_c, 1, 72, 0
6, 58680, Note_on_c, 1, 65, 70
6, 58761, Note_on_c, 1, 70, 83
6, 58775, Note_on_c, 1, 65, 0
6, 58857, Note_on_c, 1, 70, 0
6, 58860, Note_on_c, 1, 75, 82
6, 58955, Note_on_c, 1, 75, 0
6, 58968, Note_on_c, 1, 77, 70
6, 59048, Note_on_c, 1, 72, 67
6, 59063, Note_on_c, 1, 77, 0
6, 59143, Note_on_c, 1, 72, 0
6, 59154, Note_on_c, 1, 65, 75
6, 59240, Note_on_c, 1, 70, 68
6, 59249, Note_on_c, 1, 65, 0
6, 59336, Note_on_c, 1, 70, 0
6, 59339, Note_on_c, 1, 75, 72
6, 59434, Note_on_c, 1, 75, 0
6, 59447, Note_on_c, 1, 77, 84
6, 59525, Note_on_c, 1, 72, 85
6, 59542, Note_on_c, 1, 77, 0
6, 59605, Note_on_c, 1, 72, 0
6, 59614, Note_on_c, 1, 65, 74
6, 59691, Note_on_c, 1, 70, 65
6, 59693, Note_on_c, 1, 65, 0
6, 59771, Note_on_c, 1, 70, 0
6, 59780, Note_on_c, 1, 75, 77
6, 59860, Note_on_c, 1, 75, 0
6, 59861, Note_on_c, 1, 77, 82
6, 59940, Note_on_c, 1, 77, 0
6, 59944, Note_on_c, 1, 72, 67
6, 60012, Note_on_c, 1, 77, 86
6, 60024, Note_on_c, 1, 72, 0
6, 60279, Note_on_c, 1, 75, 68
6, 60291, Note_on_c, 1, 77, 0
6, 60319, Note_on_c, 1, 75, 0
6, 60320, Note_on_c, 1, 77, 78
6, 60359, Note_on_c, 1, 77, 0
6, 60360, Note_on_c, 1, 75, 82
6, 60399, Note_on_c, 1, 75, 0
6, 60399, Note_on_c, 1, 77, 83
6, 60439, Note_on_c, 1, 77, 0
6, 60440, Note_on_c, 1, 75, 80
6, 60479, Note_on_c, 1, 75, 0
6, 60480, Note_on_c, 1, 77, 66
6, 60515, Note_on_c, 1, 77, 0
6, 60515, Note_on_c, 1, 79, 69
6, 60550, Note_on_c, 1, 79, 0
6, 60550, Note_on_c, 1, 77, 76
6, 60585, Note_on_c, 1, 77, 0
6, 60585, Note_on_c, 1, 79, 72
6, 60620, Note_on_c, 1, 79, 0
6, 60620, Note_on_c, 1, 77, 69
6, 60655, Note_on_c, 1, 77, 0
6, 60655, Note_on_c, 1, 79, 84
6, 60690, Note_on_c, 1, 79, 0
6, 60690, Note_on_c, 1, 77, 67
6, 60725, Note_on_c, 1, 77, 0
6, 60725, Note_on_c, 1, 79, 69
6, 60760, Note_on_c, 1, 79, 0
6, 60761, Note_on_c, 1, 77, 78
6, 60796, Note_on_c, 1, 77, 0
6, 64560, Note_on_c, 1, 80, 80
6, 64560, Note_on_c, 1, 84, 66
6, 64575, Note_on_c, 1, 80, 0
6, 64575, Note_on_c, 1, 84, 0
6, 64593, Note_on_c, 1, 79, 66
6, 64593, Note_on_c, 1, 83, 78
6, 64608, Note_on_c, 1, 79, 0
6, 64608, Note_on_c, 1, 83, 0
6, 64628, Note_on_c, 1, 78, 66
6, 64628, Note_on_c, 1, 82, 80
6, 64643, Note_on_c, 1, 78, 0
6, 64643, Note_on_c, 1, 82, 0
6, 64662, Note_on_c, 1, 77, 85
6, 64662, Note_on_c, 1, 81, 77
6, 64677, Note_on_c, 1, 77, 0
6, 64677, Note_on_c, 1, 81, 0
6, 64696, Note_on_c, 1, 76, 81
6, 64696, Note_on_c, 1, 80, 83
6, 64711, Note_on_c, 1, 76, 0
6, 64711, Note_on_c, 1, 80, 0
6, 64731, Note_on_c, 1, 75, 70
6, 64731, Note_on_c, 1, 79, 81
6, 64746, Note_on_c, 1, 75, 0
6, 64746, Note_on_c, 1, 79, 0
6, 64765, Note_on_c, 1, 74, 68
6, 64765, Note_on_c, 1, 78, 74
6, 64780, Note_on_c, 1, 74, 0
6, 64780, Note_on_c, 1, 78, 0
6, 64805, Note_on_c, 1, 73, 74
6, 64817, Note_on_c, 1, 77, 65
6, 64900, Note_on_c, 1, 73, 0
6, 64912, Note_on_c, 1, 77, 0
6, 65290, Note_on_c, 1, 82, 74
6, 65410, Note_on_c, 1, 82, 0
6, 65539, Note_on_c, 1, 77, 82
6, 65855, Note_on_c, 1, 70, 68
6, 65874, Note_on_c, 1, 77, 0
6, 65903, Note_on_c, 1, 70, 0
6, 65951, Note_on_c, 1, 75, 76
6, 66000, Note_on_c, 1, 75, 0
6, 66047, Note_on_c, 1, 80, 80
6, 66095, Note_on_c, 1, 80, 0
6, 66143, Note_on_c, 1, 82, 74
6, 66192, Note_on_c, 1, 82, 0
6, 66240, Note_on_c, 1, 80, 72
6, 66240, Note_on_c, 1, 84, 76
6, 66252, Note_on_c, 1, 77, 73
6, 66255, Note_on_c, 1, 80, 0
6, 66255, Note_on_c, 1, 84, 0
6, 66273, Note_on_c, 1, 79, 65
6, 66273, Note_on_c, 1, 83, 85
6, 66288, Note_on_c, 1, 79, 0
6, 66288, Note_on_c, 1, 83, 0
6, 66308, Note_on_c, 1, 78, 82
6, 66308, Note_on_c, 1, 82, 75
6, 66323, Note_on_c, 1, 78, 0
6, 66323, Note_on_c, 1, 82, 0
6, 66325, Note_on_c, 1, 70, 72
6, 66332, Note_on_c, 1, 77, 0
6, 66342, Note_on_c, 1, 77, 75
6, 66342, Note_on_c, 1, 81, 76
6, 66357, Note_on_c, 1, 77, 0
6, 66357, Note_on_c, 1, 81, 0
6, 66376, Note_on_c, 1, 76, 65
6, 66376, Note_on_c, 1, 80, 71
6, 66391, Note_on_c, 1, 76, 0
6, 66391, Note_on_c, 1, 80, 0
6, 66399, Note_on_c, 1, 75, 79
6, 66404, Note_on_c, 1, 70, 0
6, 66411, Note_on_c, 1, 79, 75
6, 66425, Note_on_c, 1, 75, 0
6, 66426, Note_on_c, 1, 79, 0
6, 66428, Note_on_c, 1, 75, 71
6, 66445, Note_on_c, 1, 74, 73
6, 66445, Note_on_c, 1, 78, 75
6, 66460, Note_on_c, 1, 74, 0
6, 66460, Note_on_c, 1, 78, 0
6, 66480, Note_on_c, 1, 73, 68
6, 66480, Note_on_c, 1, 77, 81
6, 66496, Note_on_c, 1, 75, 0
6, 66499, Note_on_c, 1, 80, 66
6, 66518, Note_on_c, 1, 73, 0
6, 66518, Note_on_c, 1, 77, 0
6, 66572, Note_on_c, 1, 82, 84
6, 66579, Note_on_c, 1, 80, 0
6, 66646, Note_on_c, 1, 77, 68
6, 66651, Note_on_c, 1, 82, 0
6, 66720, Note_on_c, 1, 82, 69
6, 66726, Note_on_c, 1, 77, 0
6, 66815, Note_on_c, 1, 82, 0
6, 67680, Note_on_c, 1, 80, 79
6, 67680, Note_on_c, 1, 84, 80
6, 67682, Note_on_c, 1, 82, 65
6, 67695, Note_on_c, 1, 80, 0
6, 67695, Note_on_c, 1, 84, 0
6, 67713, Note_on_c, 1, 79, 80
6, 67713, Note_on_c, 1, 83, 79
6, 67728, Note_on_c, 1, 79, 0
6, 67728, Note_on_c, 1, 83, 0
6, 67748, Note_on_c, 1, 78, 69
6, 67763, Note_on_c, 1, 78, 0
6, 67764, Note_on_c, 1, 82, 71
6, 67765, Note_on_c, 1, 82, 0
6, 67782, Note_on_c, 1, 77, 65
6, 67782, Note_on_c, 1, 81, 79
6, 67797, Note_on_c, 1, 77, 0
6, 67797, Note_on_c, 1, 81, 0
6, 67816, Note_on_c, 1, 76, 76
6, 67816, Note_on_c, 1, 80, 65
6, 67831, Note_on_c, 1, 76, 0
6, 67831, Note_on_c, 1, 80, 0
6, 67851, Note_on_c, 1, 75, 70
6, 67851, Note_on_c, 1, 79, 65
6, 67866, Note_on_c, 1, 75, 0
6, 67866, Note_on_c, 1, 79, 0
6, 67885, Note_on_c, 1, 74, 69
6, 67885, Note_on_c, 1, 78, 81
6, 67900, Note_on_c, 1, 74, 0
6, 67900, Note_on_c, 1, 78, 0
6, 67920, Note_on_c, 1, 73, 73
6, 67920, Note_on_c, 1, 77, 80
6, 67958, Note_on_c, 1, 73, 0
6, 67958, Note_on_c, 1, 77, 0
6, 67959, Note_on_c, 1, 80, 78
6, 67975, Note_on_c, 1, 82, 0
6, 67999, Note_on_c, 1, 80, 0
6, 68000, Note_on_c, 1, 82, 74
6, 68039, Note_on_c, 1, 82, 0
6, 68040, Note_on_c, 1, 80, 65
6, 68079, Note_on_c, 1, 80, 0
6, 68079, Note_on_c, 1, 82, 74
6, 68119, Note_on_c, 1, 82, 0
6, 68120, Note_on_c, 1, 80, 72
6, 68159, Note_on_c, 1, 80, 0
6, 68172, Note_on_c, 1, 82, 79
6, 68242, Note_on_c, 1, 70, 85
6, 68252, Note_on_c, 1, 82, 0
6, 68321, Note_on_c, 1, 70, 0
6, 68340, Note_on_c, 1, 75, 72
6, 68405, Note_on_c, 1, 81, 80
6, 68420, Note_on_c, 1, 75, 0
6, 68480, Note_on_c, 1, 82, 81
6, 68485, Note_on_c, 1, 81, 0
6, 68559, Note_on_c, 1, 82, 0
6, 68577, Note_on_c, 1, 77, 66
6, 68648, Note_on_c, 1, 70, 72
6, 68657, Note_on_c, 1, 77, 0
6, 68768, Note_on_c, 1, 70, 0
6, 68880, Note_on_c, 1, 80, 76
6, 68880, Note_on_c, 1, 84, 71
6, 68895, Note_on_c, 1, 80, 0
6, 68895, Note_on_c, 1, 84, 0
6, 68913, Note_on_c, 1, 79, 79
6, 68913, Note_on_c, 1, 83, 68
6, 68928, Note_on_c, 1, 79, 0
6, 68928, Note_on_c, 1, 83, 0
6, 68948, Note_on_c, 1, 78, 84
6, 68948, Note_on_c, 1, 82, 78
6, 68963, Note_on_c, 1, 78, 0
6, 68963, Note_on_c, 1, 82, 0
6, 68982, Note_on_c, 1, 77, 65
6, 68982, Note_on_c, 1, 81, 71
6, 68997, Note_on_c, 1, 77, 0
6, 68997, Note_on_c, 1, 81, 0
6, 69016, Note_on_c, 1, 76, 72
6, 69016, Note_on_c, 1, 80, 72
6, 69031, Note_on_c, 1, 76, 0
6, 69031, Note_on_c, 1, 80, 0
6, 69051, Note_on_c, 1, 75, 84
6, 69051, Note_on_c, 1, 79, 75
6, 69066, Note_on_c, 1, 75, 0
6, 69066, Note_on_c, 1, 79, 0
6, 69085, Note_on_c, 1, 73, 70
6, 69085, Note_on_c, 1, 78, 68
6, 69100, Note_on_c, 1, 73, 0
6, 69100, Note_on_c, 1, 78, 0
6, 69135, Note_on_c, 1, 77, 75
6, 69141, Note_on_c, 1, 82, 74
6, 69141, Note_on_c, 1, 73, 85
6, 69261, Note_on_c, 1, 82, 0
6, 69375, Note_on_c, 1, 77, 0
6, 69381, Note_on_c, 1, 73, 0
6, 69406, Note_on_c, 1, 77, 70
6, 69649, Note_on_c, 1, 77, 0
6, 69695, Note_on_c, 1, 70, 72
6, 69730, Note_on_c, 1, 70, 0
6, 69791, Note_on_c, 1, 75, 83
6, 69827, Note_on_c, 1, 75, 0
6, 69840, Note_on_c, 1, 80, 81
6, 69840, Note_on_c, 1, 84, 71
6, 69855, Note_on_c, 1, 80, 0
6, 69855, Note_on_c, 1, 84, 0
6, 69873, Note_on_c, 1, 79, 81
6, 69873, Note_on_c, 1, 83, 65
6, 69887, Note_on_c, 1, 80, 85
6, 69888, Note_on_c, 1, 79, 0
6, 69888, Note_on_c, 1, 83, 0
6, 69908, Note_on_c, 1, 78, 83
6, 69908, Note_on_c, 1, 82, 66
6, 69922, Note_on_c, 1, 80, 0
6, 69923, Note_on_c, 1, 78, 0
6, 69923, Note_on_c, 1, 82, 0
6, 69942, Note_on_c, 1, 77, 84
6, 69942, Note_on_c, 1, 81, 72
6, 69957, Note_on_c, 1, 77, 0
6, 69957, Note_on_c, 1, 81, 0
6, 69976, Note_on_c, 1, 76, 71
6, 69976, Note_on_c, 1, 80, 68
6, 69983, Note_on_c, 1, 82, 79
6, 69991, Note_on_c, 1, 76, 0
6, 69991, Note_on_c, 1, 80, 0
6, 70011, Note_on_c, 1, 75, 73
6, 70011, Note_on_c, 1, 79, 68
6, 70018, Note_on_c, 1, 82, 0
6, 70026, Note_on_c, 1, 75, 0
6, 70026, Note_on_c, 1, 79, 0
6, 70045, Note_on_c, 1, 74, 75
6, 70045, Note_on_c, 1, 78, 75
6, 70060, Note_on_c, 1, 74, 0
6, 70060, Note_on_c, 1, 78, 0
6, 70080, Note_on_c, 1, 77, 70
6, 70080, Note_on_c, 1, 73, 76
6, 70080, Note_on_c, 1, 77, 85
6, 70100, Note_on_c, 1, 77, 0
6, 70118, Note_on_c, 1, 73, 0
6, 70118, Note_on_c, 1, 77, 0
6, 70160, Note_on_c, 1, 70, 65
6, 70179, Note_on_c, 1, 70, 0
6, 70239, Note_on_c, 1, 75, 67
6, 70259, Note_on_c, 1, 75, 0
6, 70320, Note_on_c, 1, 80, 67
6, 70340, Note_on_c, 1, 80, 0
6, 70400, Note_on_c, 1, 82, 66
6, 70419, Note_on_c, 1, 82, 0
6, 70479, Note_on_c, 1, 77, 82
6, 70499, Note_on_c, 1, 77, 0
6, 70585, Note_on_c, 1, 82, 74
6, 70680, Note_on_c, 1, 82, 0
6, 71040, Note_on_c, 1, 82, 68
6, 71040, Note_on_c, 1, 80, 69
6, 71040, Note_on_c, 1, 84, 78
6, 71055, Note_on_c, 1, 80, 0
6, 71055, Note_on_c, 1, 84, 0
6, 71060, Note_on_c, 1, 82, 0
6, 71073, Note_on_c, 1, 79, 85
6, 71073, Note_on_c, 1, 83, 75
6, 71088, Note_on_c, 1, 79, 0
6, 71088, Note_on_c, 1, 83, 0
6, 71108, Note_on_c, 1, 78, 75
6, 71108, Note_on_c, 1, 82, 83
6, 71120, Note_on_c, 1, 77, 74
6, 71123, Note_on_c, 1, 78, 0
6, 71123, Note_on_c, 1, 82, 0
6, 71139, Note_on_c, 1, 77, 0
6, 71142, Note_on_c, 1, 77, 85
6, 71142, Note_on_c, 1, 81, 67
6, 71157, Note_on_c, 1, 77, 0
6, 71157, Note_on_c, 1, 81, 0
6, 71176, Note_on_c, 1, 76, 65
6, 71176, Note_on_c, 1, 80, 70
6, 71191, Note_on_c, 1, 76, 0
6, 71191, Note_on_c, 1, 80, 0
6, 71199, Note_on_c, 1, 70, 70
6, 71211, Note_on_c, 1, 75, 65
6, 71211, Note_on_c, 1, 79, 84
6, 71219, Note_on_c, 1, 70, 0
6, 71226, Note_on_c, 1, 75, 0
6, 71226, Note_on_c, 1, 79, 0
6, 71245, Note_on_c, 1, 74, 66
6, 71245, Note_on_c, 1, 78, 74
6, 71260, Note_on_c, 1, 74, 0
6, 71260, Note_on_c, 1, 78, 0
6, 71280, Note_on_c, 1, 75, 67
6, 71280, Note_on_c, 1, 73, 66
6, 71280, Note_on_c, 1, 77, 85
6, 71300, Note_on_c, 1, 75, 0
6, 71318, Note_on_c, 1, 73, 0
6, 71318, Note_on_c, 1, 77, 0
6, 71360, Note_on_c, 1, 80, 72
6, 71379, Note_on_c, 1, 80, 0
6, 71439, Note_on_c, 1, 82, 84
6, 71459, Note_on_c, 1, 82, 0
6, 100324, Note_on_c, 1, 82, 95
6, 100340, Note_on_c, 1, 70, 81
6, 100403, Note_on_c, 1, 82, 0
6, 100419, Note_on_c, 1, 70, 0
6, 100479, Note_on_c, 1, 70, 98
6, 100489, Note_on_c, 1, 82, 91
6, 100559, Note_on_c, 1, 70, 0
6, 100569, Note_on_c, 1, 82, 0
6, 100652, Note_on_c, 1, 82, 82
6, 100663, Note_on_c, 1, 70, 95
6, 100731, Note_on_c, 1, 82, 0
6, 100742, Note_on_c, 1, 70, 0
6, 100816, Note_on_c, 1, 70, 98
6, 100822, Note_on_c, 1, 82, 89
6, 101536, Note_on_c, 1, 70, 0
6, 101542, Note_on_c, 1, 82, 0
6, 102241, Note_on_c, 1, 70, 112
6, 102253, Note_on_c, 1, 82, 119
6, 102361, Note_on_c, 1, 70, 0
6, 102373, Note_on_c, 1, 82, 0
6, 102495, Note_on_c, 1, 81, 118
6, 102505, Note_on_c, 1, 69, 113
6, 102615, Note_on_c, 1, 81, 0
6, 102625, Note_on_c, 1, 69, 0
6, 102720, Note_on_c, 1, 68, 79
6, 102720, Note_on_c, 1, 80, 88
6, 102783, Note_on_c, 1, 68, 0
6, 102783, Note_on_c, 1, 80, 0
6, 102879, Note_on_c, 1, 67, 82
6, 102879, Note_on_c, 1, 79, 79
6, 102943, Note_on_c, 1, 67, 0
6, 102943, Note_on_c, 1, 79, 0
6, 103040, Note_on_c, 1, 66, 79
6, 103040, Note_on_c, 1, 78, 87
6, 103103, Note_on_c, 1, 66, 0
6, 103103, Note_on_c, 1, 78, 0
6, 107534, Note_on_c, 1, 72, 107
6, 107535, Note_on_c, 1, 60, 112
6, 108487, Note_on_c, 1, 72, 119
6, 108494, Note_on_c, 1, 72, 0
6, 108495, Note_on_c, 1, 60, 0
6, 108502, Note_on_c, 1, 60, 101
6, 109447, Note_on_c, 1, 72, 0
6, 109448, Note_on_c, 1, 60, 111
6, 109462, Note_on_c, 1, 60, 0
6, 109463, Note_on_c, 1, 72, 112
6, 110403, Note_on_c, 1, 72, 100
6, 110408, Note_on_c, 1, 60, 0
6, 110408, Note_on_c, 1, 60, 112
6, 110423, Note_on_c, 1, 72, 0
6, 111363, Note_on_c, 1, 72, 0
6, 111365, Note_on_c, 1, 60, 115
6, 111368, Note_on_c, 1, 60, 0
6, 111373, Note_on_c, 1, 72, 107
6, 112325, Note_on_c, 1, 60, 0
6, 112327, Note_on_c, 1, 72, 111
6, 112332, Note_on_c, 1, 60, 117
6, 112333, Note_on_c, 1, 72, 0
6, 113285, Note_on_c, 1, 60, 110
6, 113286, Note_on_c, 1, 72, 119
6, 113287, Note_on_c, 1, 72, 0
6, 113292, Note_on_c, 1, 60, 0
6, 114242, Note_on_c, 1, 72, 115
6, 114245, Note_on_c, 1, 60, 0
6, 114246, Note_on_c, 1, 72, 0
6, 114264, Note_on_c, 1, 60, 109
6, 115202, Note_on_c, 1, 72, 0
6, 115205, Note_on_c, 1, 72, 108
6, 115214, Note_on_c, 1, 60, 101
6, 115224, Note_on_c, 1, 60, 0
6, 116163, Note_on_c, 1, 72, 104
6, 116165, Note_on_c, 1, 72, 0
6, 116174, Note_on_c, 1, 60, 0
6, 116183, Note_on_c, 1, 60, 112
6, 116643, Note_on_c, 1, 72, 0
6, 116663, Note_on_c, 1, 60, 0
6, 142770, Note_on_c, 1, 80, 98
6, 142800, Note_on_c, 1, 80, 0
6, 142807, Note_on_c, 1, 70, 80
6, 142822, Note_on_c, 1, 82, 98
6, 142927, Note_on_c, 1, 70, 0
6, 142942, Note_on_c, 1, 82, 0
6, 143010, Note_on_c, 1, 68, 97
6, 143040, Note_on_c, 1, 68, 0
6, 143055, Note_on_c, 1, 70, 78
6, 143060, Note_on_c, 1, 82, 78
6, 143175, Note_on_c, 1, 70, 0
6, 143180, Note_on_c, 1, 82, 0
6, 143250, Note_on_c, 1, 80, 94
6, 143280, Note_on_c, 1, 80, 0
6, 143302, Note_on_c, 1, 82, 88
6, 143302, Note_on_c, 1, 70, 81
6, 143422, Note_on_c, 1, 82, 0
6, 143422, Note_on_c, 1, 70, 0
6, 143490, Note_on_c, 1, 68, 93
6, 143520, Note_on_c, 1, 68, 0
6, 143535, Note_on_c, 1, 70, 83
6, 143541, Note_on_c, 1, 82, 88
6, 143655, Note_on_c, 1, 70, 0
6, 143661, Note_on_c, 1, 82, 0
6, 143730, Note_on_c, 1, 80, 92
6, 143760, Note_on_c, 1, 80, 0
6, 143760, Note_on_c, 1, 70, 92
6, 143780, Note_on_c, 1, 82, 87
6, 143880, Note_on_c, 1, 70, 0
6, 143900, Note_on_c, 1, 82, 0
6, 143970, Note_on_c, 1, 68, 86
6, 144000, Note_on_c, 1, 68, 0
6, 144000, Note_on_c, 1, 70, 96
6, 144016, Note_on_c, 1, 82, 93
6, 144120, Note_on_c, 1, 70, 0
6, 144136, Note_on_c, 1, 82, 0
6, 144210, Note_on_c, 1, 80, 81
6, 144240, Note_on_c, 1, 80, 0
6, 144258, Note_on_c, 1, 82, 87
6, 144262, Note_on_c, 1, 70, 78
6, 144378, Note_on_c, 1, 82, 0
6, 144382, Note_on_c, 1, 70, 0
6, 144450, Note_on_c, 1, 68, 81
6, 144480, Note_on_c, 1, 68, 0
6, 144493, Note_on_c, 1, 82, 87
6, 144495, Note_on_c, 1, 70, 96
6, 144613, Note_on_c, 1, 82, 0
6, 144615, Note_on_c, 1, 70, 0
6, 144725, Note_on_c, 1, 80, 92
6, 144732, Note_on_c, 1, 68, 81
6, 144845, Note_on_c, 1, 80, 0
6, 144852, Note_on_c, 1, 68, 0
6, 144930, Note_on_c, 1, 65, 87
6, 144960, Note_on_c, 1, 65, 0
6, 144982, Note_on_c, 1, 79, 87
6, 144985, Note_on_c, 1, 67, 85
6, 145102, Note_on_c, 1, 79, 0
6, 145105, Note_on_c, 1, 67, 0
6, 145202, Note_on_c, 1, 77, 95
6, 145205, Note_on_c, 1, 65, 98
6, 145322, Note_on_c, 1, 77, 0
6, 145325, Note_on_c, 1, 65, 0
6, 145410, Note_on_c, 1, 65, 97
6, 145440, Note_on_c, 1, 65, 0
6, 145446, Note_on_c, 1, 79, 89
6, 145446, Note_on_c, 1, 67, 81
6, 145566, Note_on_c, 1, 79, 0
6, 145566, Note_on_c, 1, 67, 0
6, 146656, Note_on_c, 1, 77, 90
6, 146663, Note_on_c, 1, 65, 78
6, 146776, Note_on_c, 1, 77, 0
6, 146783, Note_on_c, 1, 65, 0
6, 146850, Note_on_c, 1, 65, 90
6, 146880, Note_on_c, 1, 65, 0
6, 146881, Note_on_c, 1, 79, 98
6, 146888, Note_on_c, 1, 67, 98
6, 147001, Note_on_c, 1, 79, 0
6, 147008, Note_on_c, 1, 67, 0
6, 147140, Note_on_c, 1, 80, 87
6, 147140, Note_on_c, 1, 68, 96
6, 147260, Note_on_c, 1, 80, 0
6, 147260, Note_on_c, 1, 68, 0
6, 147330, Note_on_c, 1, 68, 98
6, 147360, Note_on_c, 1, 68, 0
6, 147372, Note_on_c, 1, 70, 94
6, 147373, Note_on_c, 1, 82, 98
6, 147492, Note_on_c, 1, 70, 0
6, 147493, Note_on_c, 1, 82, 0
6, 147623, Note_on_c, 1, 80, 94
6, 147625, Note_on_c, 1, 68, 85
6, 147743, Note_on_c, 1, 80, 0
6, 147745, Note_on_c, 1, 68, 0
6, 147810, Note_on_c, 1, 65, 94
6, 147840, Note_on_c, 1, 65, 0
6, 147846, Note_on_c, 1, 67, 89
6, 147857, Note_on_c, 1, 79, 88
6, 147966, Note_on_c, 1, 67, 0
6, 147977, Note_on_c, 1, 79, 0
6, 148101, Note_on_c, 1, 65, 82
6, 148104, Note_on_c, 1, 77, 83
6, 148221, Note_on_c, 1, 65, 0
6, 148224, Note_on_c, 1, 77, 0
6, 148290, Note_on_c, 1, 65, 97
6, 148320, Note_on_c, 1, 65, 0
6, 148326, Note_on_c, 1, 67, 96
6, 148333, Note_on_c, 1, 79, 96
6, 148446, Note_on_c, 1, 67, 0
6, 148453, Note_on_c, 1, 79, 0
6, 148566, Note_on_c, 1, 80, 81
6, 148580, Note_on_c, 1, 68, 88
6, 148686, Note_on_c, 1, 80, 0
6, 148700, Note_on_c, 1, 68, 0
6, 148770, Note_on_c, 1, 68, 87
6, 148800, Note_on_c, 1, 68, 0
6, 148811, Note_on_c, 1, 82, 79
6, 148822, Note_on_c, 1, 70, 96
6, 148931, Note_on_c, 1, 82, 0
6, 148942, Note_on_c, 1, 70, 0
6, 149051, Note_on_c, 1, 68, 91
6, 149060, Note_on_c, 1, 80, 95
6, 149171, Note_on_c, 1, 68, 0
6, 149180, Note_on_c, 1, 80, 0
6, 149250, Note_on_c, 1, 65, 80
6, 149280, Note_on_c, 1, 65, 0
6, 149288, Note_on_c, 1, 79, 84
6, 149296, Note_on_c, 1, 67, 91
6, 149408, Note_on_c, 1, 79, 0
6, 149416, Note_on_c, 1, 67, 0
6, 149534, Note_on_c, 1, 77, 91
6, 149535, Note_on_c, 1, 65, 82
6, 149654, Note_on_c, 1, 77, 0
6, 149655, Note_on_c, 1, 65, 0
6, 149730, Note_on_c, 1, 65, 87
6, 149760, Note_on_c, 1, 65, 0
6, 149760, Note_on_c, 1, 67, 89
6, 149779, Note_on_c, 1, 79, 91
6, 149880, Note_on_c, 1, 67, 0
6, 149899, Note_on_c, 1, 79, 0
6, 152653, Note_on_c, 1, 87, 100
6, 152724, Note_on_c, 1, 87, 0
6, 152893, Note_on_c, 1, 82, 105
6, 152964, Note_on_c, 1, 82, 0
6, 153134, Note_on_c, 1, 73, 106
6, 153205, Note_on_c, 1, 73, 0
6, 153370, Note_on_c, 1, 70, 97
6, 153441, Note_on_c, 1, 70, 0
6, 178080, Note_on_c, 1, 76, 84
6, 178080, Note_on_c, 1, 88, 79
6, 178143, Note_on_c, 1, 76, 0
6, 178143, Note_on_c, 1, 88, 0
6, 178239, Note_on_c, 1, 76, 71
6, 178239, Note_on_c, 1, 88, 68
6, 178303, Note_on_c, 1, 76, 0
6, 178303, Note_on_c, 1, 88, 0
6, 178400, Note_on_c, 1, 76, 81
6, 178400, Note_on_c, 1, 88, 73
6, 178463, Note_on_c, 1, 76, 0
6, 178463, Note_on_c, 1, 88, 0
6, 178572, Note_on_c, 1, 76, 71
6, 178579, Note_on_c, 1, 88, 79
6, 179250, Note_on_c, 1, 87, 80
6, 179280, Note_on_c, 1, 87, 0
6, 179288, Note_on_c, 1, 76, 82
6, 179292, Note_on_c, 1, 76, 0
6, 179299, Note_on_c, 1, 88, 0
6, 179383, Note_on_c, 1, 76, 0
6, 179490, Note_on_c, 1, 78, 65
6, 179520, Note_on_c, 1, 78, 0
6, 179527, Note_on_c, 1, 74, 75
6, 179622, Note_on_c, 1, 74, 0
6, 180960, Note_on_c, 1, 76, 83
6, 180960, Note_on_c, 1, 88, 73
6, 181023, Note_on_c, 1, 76, 0
6, 181023, Note_on_c, 1, 88, 0
6, 181119, Note_on_c, 1, 76, 76
6, 181119, Note_on_c, 1, 88, 79
6, 181183, Note_on_c, 1, 76, 0
6, 181183, Note_on_c, 1, 88, 0
6, 181280, Note_on_c, 1, 76, 68
6, 181280, Note_on_c, 1, 88, 78
6, 181343, Note_on_c, 1, 76, 0
6, 181343, Note_on_c, 1, 88, 0
6, 181650, Note_on_c, 1, 87, 84
6, 181680, Note_on_c, 1, 87, 0
6, 181704, Note_on_c, 1, 76, 67
6, 181799, Note_on_c, 1, 76, 0
6, 181890, Note_on_c, 1, 78, 67
6, 181920, Note_on_c, 1, 78, 0
6, 181942, Note_on_c, 1, 74, 83
6, 182037, Note_on_c, 1, 74, 0
6, 204971, Note_on_c, 1, 82, 82
6, 204974, Note_on_c, 1, 70, 85
6, 205066, Note_on_c, 1, 82, 0
6, 205069, Note_on_c, 1, 70, 0
6, 205207, Note_on_c, 1, 72, 96
6, 205225, Note_on_c, 1, 84, 88
6, 205302, Note_on_c, 1, 72, 0
6, 205320, Note_on_c, 1, 84, 0
6, 205457, Note_on_c, 1, 70, 91
6, 205461, Note_on_c, 1, 86, 81
6, 205552, Note_on_c, 1, 70, 0
6, 205556, Note_on_c, 1, 86, 0
6, 205698, Note_on_c, 1, 87, 84
6, 205705, Note_on_c, 1, 75, 88
6, 205793, Note_on_c, 1, 87, 0
6, 205800, Note_on_c, 1, 75, 0
6, 205924, Note_on_c, 1, 66, 59
6, 205927, Note_on_c, 1, 85, 62
6, 205940, Note_on_c, 1, 73, 58
6, 206022, Note_on_c, 1, 85, 0
6, 206035, Note_on_c, 1, 73, 0
6, 206169, Note_on_c, 1, 72, 61
6, 206184, Note_on_c, 1, 84, 53
6, 206264, Note_on_c, 1, 72, 0
6, 206279, Note_on_c, 1, 84, 0
6, 206408, Note_on_c, 1, 72, 53
6, 206423, Note_on_c, 1, 84, 63
6, 206503, Note_on_c, 1, 72, 0
6, 206518, Note_on_c, 1, 84, 0
6, 206661, Note_on_c, 1, 68, 66
6, 206664, Note_on_c, 1, 80, 69
6, 206756, Note_on_c, 1, 68, 0
6, 206759, Note_on_c, 1, 80, 0
6, 206882, Note_on_c, 1, 82, 65
6, 206883, Note_on_c, 1, 70, 58
6, 206884, Note_on_c, 1, 66, 0
6, 206889, Note_on_c, 1, 66, 59
6, 206977, Note_on_c, 1, 82, 0
6, 206978, Note_on_c, 1, 70, 0
6, 207127, Note_on_c, 1, 84, 61
6, 207130, Note_on_c, 1, 72, 56
6, 207222, Note_on_c, 1, 84, 0
6, 207225, Note_on_c, 1, 72, 0
6, 207360, Note_on_c, 1, 86, 57
6, 207376, Note_on_c, 1, 70, 63
6, 207455, Note_on_c, 1, 86, 0
6, 207471, Note_on_c, 1, 70, 0
6, 207619, Note_on_c, 1, 75, 67
6, 207623, Note_on_c, 1, 87, 67
6, 207714, Note_on_c, 1, 75, 0
6, 207718, Note_on_c, 1, 87, 0
6, 207840, Note_on_c, 1, 66, 52
6, 207849, Note_on_c, 1, 66, 0
6, 207860, Note_on_c, 1, 85, 70
6, 207861, Note_on_c, 1, 73, 59
6, 207955, Note_on_c, 1, 85, 0
6, 207956, Note_on_c, 1, 73, 0
6, 208090, Note_on_c, 1, 72, 54
6, 208099, Note_on_c, 1, 84, 71
6, 208185, Note_on_c, 1, 72, 0
6, 208194, Note_on_c, 1, 84, 0
6, 208337, Note_on_c, 1, 72, 54
6, 208343, Note_on_c, 1, 84, 58
6, 208432, Note_on_c, 1, 72, 0
6, 208438, Note_on_c, 1, 84, 0
6, 208573, Note_on_c, 1, 80, 64
6, 208575, Note_on_c, 1, 68, 69
6, 208668, Note_on_c, 1, 80, 0
6, 208670, Note_on_c, 1, 68, 0
6, 208800, Note_on_c, 1, 66, 0
6, 208811, Note_on_c, 1, 66, 59
6, 208820, Note_on_c, 1, 70, 69
6, 208822, Note_on_c, 1, 82, 70
6, 208915, Note_on_c, 1, 70, 0
6, 208917, Note_on_c, 1, 82, 0
6, 209054, Note_on_c, 1, 75, 58
6, 209056, Note_on_c, 1, 87, 53
6, 209149, Note_on_c, 1, 75, 0
6, 209151, Note_on_c, 1, 87, 0
6, 209288, Note_on_c, 1, 85, 70
6, 209295, Note_on_c, 1, 73, 65
6, 209383, Note_on_c, 1, 85, 0
6, 209390, Note_on_c, 1, 73, 0
6, 209529, Note_on_c, 1, 84, 53
6, 209536, Note_on_c, 1, 72, 61
6, 209624, Note_on_c, 1, 84, 0
6, 209631, Note_on_c, 1, 72, 0
6, 209769, Note_on_c, 1, 70, 66
6, 209771, Note_on_c, 1, 66, 0
6, 209775, Note_on_c, 1, 66, 69
6, 209784, Note_on_c, 1, 82, 67
6, 209864, Note_on_c, 1, 70, 0
6, 209879, Note_on_c, 1, 82, 0
6, 210015, Note_on_c, 1, 74, 69
6, 210018, Note_on_c, 1, 87, 58
6, 210110, Note_on_c, 1, 74, 0
6, 210113, Note_on_c, 1, 87, 0
6, 210260, Note_on_c, 1, 80, 58
6, 210355, Note_on_c, 1, 80, 0
6, 210495, Note_on_c, 1, 75, 60
6, 210505, Note_on_c, 1, 87, 66
6, 210590, Note_on_c, 1, 75, 0
6, 210600, Note_on_c, 1, 87, 0
6, 210722, Note_on_c, 1, 70, 68
6, 210731, Note_on_c, 1, 82, 54
6, 210735, Note_on_c, 1, 66, 0
6, 210744, Note_on_c, 1, 66, 56
6, 210817, Note_on_c, 1, 70, 0
6, 210826, Note_on_c, 1, 82, 0
6, 210971, Note_on_c, 1, 75, 66
6, 210977, Note_on_c, 1, 87, 67
6, 211066, Note_on_c, 1, 75, 0
6, 211072, Note_on_c, 1, 87, 0
6, 211205, Note_on_c, 1, 85, 61
6, 211210, Note_on_c, 1, 73, 52
6, 211300, Note_on_c, 1, 85, 0
6, 211305, Note_on_c, 1, 73, 0
6, 211443, Note_on_c, 1, 72, 72
6, 211444, Note_on_c, 1, 84, 63
6, 211538, Note_on_c, 1, 72, 0
6, 211539, Note_on_c, 1, 84, 0
6, 211704, Note_on_c, 1, 66, 0
6, 219376, Note_on_c, 1, 72, 66
6, 219377, Note_on_c, 1, 62, 75
6, 219384, Note_on_c, 1, 74, 79
6, 219471, Note_on_c, 1, 72, 0
6, 219472, Note_on_c, 1, 62, 0
6, 219479, Note_on_c, 1, 74, 0
6, 219602, Note_on_c, 1, 69, 72
6, 219603, Note_on_c, 1, 77, 72
6, 219606, Note_on_c, 1, 65, 84
6, 219697, Note_on_c, 1, 69, 0
6, 219698, Note_on_c, 1, 77, 0
6, 219701, Note_on_c, 1, 65, 0
6, 219847, Note_on_c, 1, 74, 85
6, 219848, Note_on_c, 1, 76, 85
6, 219861, Note_on_c, 1, 64, 71
6, 219942, Note_on_c, 1, 74, 0
6, 219943, Note_on_c, 1, 76, 0
6, 219956, Note_on_c, 1, 64, 0
6, 220083, Note_on_c, 1, 77, 69
6, 220095, Note_on_c, 1, 67, 79
6, 220098, Note_on_c, 1, 69, 74
6, 220178, Note_on_c, 1, 77, 0
6, 220190, Note_on_c, 1, 67, 0
6, 220193, Note_on_c, 1, 69, 0
6, 220327, Note_on_c, 1, 74, 71
6, 220340, Note_on_c, 1, 62, 74
6, 220342, Note_on_c, 1, 72, 75
6, 220422, Note_on_c, 1, 74, 0
6, 220435, Note_on_c, 1, 62, 0
6, 220437, Note_on_c, 1, 72, 0
6, 220565, Note_on_c, 1, 77, 84
6, 220566, Note_on_c, 1, 65, 69
6, 220575, Note_on_c, 1, 69, 78
6, 220660, Note_on_c, 1, 77, 0
6, 220661, Note_on_c, 1, 65, 0
6, 220670, Note_on_c, 1, 69, 0
6, 220813, Note_on_c, 1, 64, 80
6, 220820, Note_on_c, 1, 74, 74
6, 220824, Note_on_c, 1, 76, 68
6, 220908, Note_on_c, 1, 64, 0
6, 220915, Note_on_c, 1, 74, 0
6, 220919, Note_on_c, 1, 76, 0
6, 221054, Note_on_c, 1, 67, 79
6, 221057, Note_on_c, 1, 69, 68
6, 221061, Note_on_c, 1, 77, 82
6, 221149, Note_on_c, 1, 67, 0
6, 221152, Note_on_c, 1, 69, 0
6, 221156, Note_on_c, 1, 77, 0
6, 221281, Note_on_c, 1, 74, 74
6, 221291, Note_on_c, 1, 62, 74
6, 221297, Note_on_c, 1, 72, 76
6, 221376, Note_on_c, 1, 74, 0
6, 221386, Note_on_c, 1, 62, 0
6, 221392, Note_on_c, 1, 72, 0
6, 221529, Note_on_c, 1, 65, 77
6, 221535, Note_on_c, 1, 77, 77
6, 221545, Note_on_c, 1, 69, 65
6, 221624, Note_on_c, 1, 65, 0
6, 221630, Note_on_c, 1, 77, 0
6, 221640, Note_on_c, 1, 69, 0
6, 221770, Note_on_c, 1, 76, 81
6, 221770, Note_on_c, 1, 64, 80
6, 221781, Note_on_c, 1, 74, 84
6, 221865, Note_on_c, 1, 76, 0
6, 221865, Note_on_c, 1, 64, 0
6, 221876, Note_on_c, 1, 74, 0
6, 222016, Note_on_c, 1, 69, 76
6, 222025, Note_on_c, 1, 77, 81
6, 222025, Note_on_c, 1, 67, 84
6, 222111, Note_on_c, 1, 69, 0
6, 222120, Note_on_c, 1, 77, 0
6, 222120, Note_on_c, 1, 67, 0
6, 222245, Note_on_c, 1, 74, 84
6, 222253, Note_on_c, 1, 72, 72
6, 222254, Note_on_c, 1, 62, 79
6, 222340, Note_on_c, 1, 74, 0
6, 222348, Note_on_c, 1, 72, 0
6, 222349, Note_on_c, 1, 62, 0
6, 222484, Note_on_c, 1, 65, 68
6, 222486, Note_on_c, 1, 69, 82
6, 222501, Note_on_c, 1, 77, 84
6, 222579, Note_on_c, 1, 65, 0
6, 222581, Note_on_c, 1, 69, 0
6, 222596, Note_on_c, 1, 77, 0
6, 222720, Note_on_c, 1, 76, 67
6, 222725, Note_on_c, 1, 74, 79
6, 222736, Note_on_c, 1, 64, 67
6, 222815, Note_on_c, 1, 76, 0
6, 222820, Note_on_c, 1, 74, 0
6, 222831, Note_on_c, 1, 64, 0
6, 222965, Note_on_c, 1, 69, 76
6, 222975, Note_on_c, 1, 67, 79
6, 222977, Note_on_c, 1, 77, 75
6, 223060, Note_on_c, 1, 69, 0
6, 223070, Note_on_c, 1, 67, 0
6, 223072, Note_on_c, 1, 77, 0
6, 223208, Note_on_c, 1, 72, 82
6, 223212, Note_on_c, 1, 74, 74
6, 223212, Note_on_c, 1, 62, 65
6, 223303, Note_on_c, 1, 72, 0
6, 223307, Note_on_c, 1, 74, 0
6, 223307, Note_on_c, 1, 62, 0
6, 223448, Note_on_c, 1, 69, 72
6, 223453, Note_on_c, 1, 77, 73
6, 223462, Note_on_c, 1, 65, 65
6, 223543, Note_on_c, 1, 69, 0
6, 223548, Note_on_c, 1, 77, 0
6, 223557, Note_on_c, 1, 65, 0
6, 223688, Note_on_c, 1, 74, 81
6, 223700, Note_on_c, 1, 64, 85
6, 223703, Note_on_c, 1, 76, 66
6, 223783, Note_on_c, 1, 74, 0
6, 223795, Note_on_c, 1, 64, 0
6, 223798, Note_on_c, 1, 76, 0
6, 223922, Note_on_c, 1, 67, 66
6, 223935, Note_on_c, 1, 77, 84
6, 223941, Note_on_c, 1, 69, 70
6, 224017, Note_on_c, 1, 67, 0
6, 224030, Note_on_c, 1, 77, 0
6, 224036, Note_on_c, 1, 69, 0
6, 224169, Note_on_c, 1, 72, 68
6, 224177, Note_on_c, 1, 74, 84
6, 224180, Note_on_c, 1, 62, 65
6, 224264, Note_on_c, 1, 72, 0
6, 224272, Note_on_c, 1, 74, 0
6, 224275, Note_on_c, 1, 62, 0
6, 224403, Note_on_c, 1, 65, 68
6, 224404, Note_on_c, 1, 69, 74
6, 224409, Note_on_c, 1, 77, 71
6, 224498, Note_on_c, 1, 65, 0
6, 224499, Note_on_c, 1, 69, 0
6, 224504, Note_on_c, 1, 77, 0
6, 224641, Note_on_c, 1, 76, 65
6, 224658, Note_on_c, 1, 64, 67
6, 224661, Note_on_c, 1, 74, 77
6, 224736, Note_on_c, 1, 76, 0
6, 224753, Note_on_c, 1, 64, 0
6, 224756, Note_on_c, 1, 74, 0
6, 224886, Note_on_c, 1, 77, 83
6, 224900, Note_on_c, 1, 67, 76
6, 224903, Note_on_c, 1, 69, 75
6, 224981, Note_on_c, 1, 77, 0
6, 224995, Note_on_c, 1, 67, 0
6, 224998, Note_on_c, 1, 69, 0
6, 225120, Note_on_c, 1, 74, 79
6, 225122, Note_on_c, 1, 62, 74
6, 225123, Note_on_c, 1, 72, 69
6, 225215, Note_on_c, 1, 74, 0
6, 225217, Note_on_c, 1, 62, 0
6, 225218, Note_on_c, 1, 72, 0
6, 225365, Note_on_c, 1, 65, 81
6, 225372, Note_on_c, 1, 69, 77
6, 225378, Note_on_c, 1, 77, 77
6, 225460, Note_on_c, 1, 65, 0
6, 225467, Note_on_c, 1, 69, 0
6, 225473, Note_on_c, 1, 77, 0
6, 225610, Note_on_c, 1, 64, 81
6, 225612, Note_on_c, 1, 76, 74
6, 225619, Note_on_c, 1, 74, 85
6, 225705, Note_on_c, 1, 64, 0
6, 225707, Note_on_c, 1, 76, 0
6, 225714, Note_on_c, 1, 74, 0
6, 225840, Note_on_c, 1, 67, 85
6, 225841, Note_on_c, 1, 77, 82
6, 225848, Note_on_c, 1, 69, 73
6, 225935, Note_on_c, 1, 67, 0
6, 225936, Note_on_c, 1, 77, 0
6, 225943, Note_on_c, 1, 69, 0
6, 226090, Note_on_c, 1, 72, 65
6, 226092, Note_on_c, 1, 62, 71
6, 226095, Note_on_c, 1, 74, 70
6, 226185, Note_on_c, 1, 72, 0
6, 226187, Note_on_c, 1, 62, 0
6, 226190, Note_on_c, 1, 74, 0
6, 226329, Note_on_c, 1, 69, 85
6, 226331, Note_on_c, 1, 77, 81
6, 226332, Note_on_c, 1, 65, 75
6, 226424, Note_on_c, 1, 69, 0
6, 226426, Note_on_c, 1, 77, 0
6, 226427, Note_on_c, 1, 65, 0
6, 226563, Note_on_c, 1, 64, 67
6, 226579, Note_on_c, 1, 74, 75
6, 226584, Note_on_c, 1, 76, 84
6, 226658, Note_on_c, 1, 64, 0
6, 226674, Note_on_c, 1, 74, 0
6, 226679, Note_on_c, 1, 76, 0
6, 226802, Note_on_c, 1, 67, 74
6, 226811, Note_on_c, 1, 69, 84
6, 226814, Note_on_c, 1, 77, 70
6, 226897, Note_on_c, 1, 67, 0
6, 226906, Note_on_c, 1, 69, 0
6, 226909, Note_on_c, 1, 77, 0
6, 227040, Note_on_c, 1, 75, 95
6, 227041, Note_on_c, 1, 79, 83
6, 227047, Note_on_c, 1, 72, 91
6, 227058, Note_on_c, 1, 69, 87
6, 227111, Note_on_c, 1, 75, 0
6, 227112, Note_on_c, 1, 79, 0
6, 227118, Note_on_c, 1, 72, 0
6, 227129, Note_on_c, 1, 69, 0
6, 227523, Note_on_c, 1, 72, 81
6, 227537, Note_on_c, 1, 79, 97
6, 227538, Note_on_c, 1, 69, 96
6, 227545, Note_on_c, 1, 75, 91
6, 227594, Note_on_c, 1, 72, 0
6, 227608, Note_on_c, 1, 79, 0
6, 227609, Note_on_c, 1, 69, 0
6, 227616, Note_on_c, 1, 75, 0
6, 228003, Note_on_c, 1, 69, 86
6, 228007, Note_on_c, 1, 72, 78
6, 228012, Note_on_c, 1, 79, 95
6, 228012, Note_on_c, 1, 75, 78
6, 228074, Note_on_c, 1, 69, 0
6, 228078, Note_on_c, 1, 72, 0
6, 228083, Note_on_c, 1, 79, 0
6, 228083, Note_on_c, 1, 75, 0
6, 228487, Note_on_c, 1, 72, 80
6, 228492, Note_on_c, 1, 69, 91
6, 228499, Note_on_c, 1, 75, 98
6, 228504, Note_on_c, 1, 79, 95
6, 228558, Note_on_c, 1, 72, 0
6, 228563, Note_on_c, 1, 69, 0
6, 228570, Note_on_c, 1, 75, 0
6, 228575, Note_on_c, 1, 79, 0
6, 228961, Note_on_c, 1, 69, 78
6, 228971, Note_on_c, 1, 75, 95
6, 228981, Note_on_c, 1, 72, 80
6, 228985, Note_on_c, 1, 79, 78
6, 229032, Note_on_c, 1, 69, 0
6, 229042, Note_on_c, 1, 75, 0
6, 229052, Note_on_c, 1, 72, 0
6, 229056, Note_on_c, 1, 79, 0
6, 229442, Note_on_c, 1, 79, 78
6, 229443, Note_on_c, 1, 72, 96
6, 229445, Note_on_c, 1, 75, 82
6, 229465, Note_on_c, 1, 69, 97
6, 229513, Note_on_c, 1, 79, 0
6, 229514, Note_on_c, 1, 72, 0
6, 229516, Note_on_c, 1, 75, 0
6, 229536, Note_on_c, 1, 69, 0
6, 229921, Note_on_c, 1, 72, 83
6, 229927, Note_on_c, 1, 75, 84
6, 229930, Note_on_c, 1, 79, 86
6, 229938, Note_on_c, 1, 69, 84
6, 229992, Note_on_c, 1, 72, 0
6, 229998, Note_on_c, 1, 75, 0
6, 230001, Note_on_c, 1, 79, 0
6, 230009, Note_on_c, 1, 69, 0
6, 230410, Note_on_c, 1, 69, 78
6, 230414, Note_on_c, 1, 75, 86
6, 230417, Note_on_c, 1, 79, 86
6, 230419, Note_on_c, 1, 72, 98
6, 230481, Note_on_c, 1, 69, 0
6, 230485, Note_on_c, 1, 75, 0
6, 230488, Note_on_c, 1, 79, 0
6, 230490, Note_on_c, 1, 72, 0
6, 230880, Note_on_c, 1, 75, 93
6, 230880, Note_on_c, 1, 79, 91
6, 230880, Note_on_c, 1, 69, 85
6, 230880, Note_on_c, 1, 72, 83
6, 230915, Note_on_c, 1, 75, 0
6, 230915, Note_on_c, 1, 79, 0
6, 230915, Note_on_c, 1, 69, 0
6, 230915, Note_on_c, 1, 72, 0
6, 231000, Note_on_c, 1, 75, 80
6, 231000, Note_on_c, 1, 79, 86
6, 231000, Note_on_c, 1, 69, 97
6, 231000, Note_on_c, 1, 72, 98
6, 231035, Note_on_c, 1, 75, 0
6, 231035, Note_on_c, 1, 79, 0
6, 231035, Note_on_c, 1, 69, 0
6, 231035, Note_on_c, 1, 72, 0
6, 231360, Note_on_c, 1, 75, 85
6, 231360, Note_on_c, 1, 79, 94
6, 231360, Note_on_c, 1, 69, 89
6, 231360, Note_on_c, 1, 72, 86
6, 231395, Note_on_c, 1, 75, 0
6, 231395, Note_on_c, 1, 79, 0
6, 231395, Note_on_c, 1, 69, 0
6, 231395, Note_on_c, 1, 72, 0
6, 231480, Note_on_c, 1, 75, 80
6, 231480, Note_on_c, 1, 79, 92
6, 231480, Note_on_c, 1, 69, 93
6, 231480, Note_on_c, 1, 72, 97
6, 231515, Note_on_c, 1, 75, 0
6, 231515, Note_on_c, 1, 79, 0
6, 231515, Note_on_c, 1, 69, 0
6, 231515, Note_on_c, 1, 72, 0
6, 231840, Note_on_c, 1, 75, 82
6, 231840, Note_on_c, 1, 79, 88
6, 231840, Note_on_c, 1, 69, 96
6, 231840, Note_on_c, 1, 72, 78
6, 231875, Note_on_c, 1, 75, 0
6, 231875, Note_on_c, 1, 79, 0
6, 231875, Note_on_c, 1, 69, 0
6, 231875, Note_on_c, 1, 72, 0
6, 231960, Note_on_c, 1, 75, 82
6, 231960, Note_on_c, 1, 79, 83
6, 231960, Note_on_c, 1, 69, 92
6, 231960, Note_on_c, 1, 72, 93
6, 231995, Note_on_c, 1, 75, 0
6, 231995, Note_on_c, 1, 79, 0
6, 231995, Note_on_c, 1, 69, 0
6, 231995, Note_on_c, 1, 72, 0
6, 232320, Note_on_c, 1, 75, 96
6, 232320, Note_on_c, 1, 79, 79
6, 232320, Note_on_c, 1, 69, 81
6, 232320, Note_on_c, 1, 72, 81
6, 232355, Note_on_c, 1, 75, 0
6, 232355, Note_on_c, 1, 79, 0
6, 232355, Note_on_c, 1, 69, 0
6, 232355, Note_on_c, 1, 72, 0
6, 232440, Note_on_c, 1, 75, 91
6, 232440, Note_on_c, 1, 79, 78
6, 232440, Note_on_c, 1, 69, 97
6, 232440, Note_on_c, 1, 72, 84
6, 232475, Note_on_c, 1, 75, 0
6, 232475, Note_on_c, 1, 79, 0
6, 232475, Note_on_c, 1, 69, 0
6, 232475, Note_on_c, 1, 72, 0
6, 232800, Note_on_c, 1, 75, 82
6, 232800, Note_on_c, 1, 79, 78
6, 232800, Note_on_c, 1, 69, 83
6, 232800, Note_on_c, 1, 72, 83
6, 232835, Note_on_c, 1, 75, 0
6, 232835, Note_on_c, 1, 79, 0
6, 232835, Note_on_c, 1, 69, 0
6, 232835, Note_on_c, 1, 72, 0
6, 232920, Note_on_c, 1, 75, 79
6, 232920, Note_on_c, 1, 79, 98
6, 232920, Note_on_c, 1, 69, 96
6, 232920, Note_on_c, 1, 72, 95
6, 232955, Note_on_c, 1, 75, 0
6, 232955, Note_on_c, 1, 79, 0
6, 232955, Note_on_c, 1, 69, 0
6, 232955, Note_on_c, 1, 72, 0
6, 233280, Note_on_c, 1, 75, 78
6, 233280, Note_on_c, 1, 79, 93
6, 233280, Note_on_c, 1, 69, 81
6, 233280, Note_on_c, 1, 72, 90
6, 233315, Note_on_c, 1, 75, 0
6, 233315, Note_on_c, 1, 79, 0
6, 233315, Note_on_c, 1, 69, 0
6, 233315, Note_on_c, 1, 72, 0
6, 233400, Note_on_c, 1, 75, 97
6, 233400, Note_on_c, 1, 79, 97
6, 233400, Note_on_c, 1, 69, 96
6, 233400, Note_on_c, 1, 72, 90
6, 233435, Note_on_c, 1, 75, 0
6, 233435, Note_on_c, 1, 79, 0
6, 233435, Note_on_c, 1, 69, 0
6, 233435, Note_on_c, 1, 72, 0
6, 233760, Note_on_c, 1, 75, 98
6, 233760, Note_on_c, 1, 79, 98
6, 233760, Note_on_c, 1, 69, 90
6, 233760, Note_on_c, 1, 72, 81
6, 233795, Note_on_c, 1, 75, 0
6, 233795, Note_on_c, 1, 79, 0
6, 233795, Note_on_c, 1, 69, 0
6, 233795, Note_on_c, 1, 72, 0
6, 233880, Note_on_c, 1, 75, 88
6, 233880, Note_on_c, 1, 79, 97
6, 233880, Note_on_c, 1, 69, 86
6, 233880, Note_on_c, 1, 72, 95
6, 233915, Note_on_c, 1, 75, 0
6, 233915, Note_on_c, 1, 79, 0
6, 233915, Note_on_c, 1, 69, 0
6, 233915, Note_on_c, 1, 72, 0
6, 234240, Note_on_c, 1, 77, 87
6, 234240, Note_on_c, 1, 79, 86
6, 234240, Note_on_c, 1, 71, 89
6, 234240, Note_on_c, 1, 74, 94
6, 234275, Note_on_c, 1, 77, 0
6, 234275, Note_on_c, 1, 79, 0
6, 234275, Note_on_c, 1, 71, 0
6, 234275, Note_on_c, 1, 74, 0
6, 234360, Note_on_c, 1, 77, 83
6, 234360, Note_on_c, 1, 79, 93
6, 234360, Note_on_c, 1, 71, 93
6, 234360, Note_on_c, 1, 74, 93
6, 234395, Note_on_c, 1, 77, 0
6, 234395, Note_on_c, 1, 79, 0
6, 234395, Note_on_c, 1, 71, 0
6, 234395, Note_on_c, 1, 74, 0
6, 234720, Note_on_c, 1, 75, 90
6, 234720, Note_on_c, 1, 79, 88
6, 234720, Note_on_c, 1, 69, 82
6, 234720, Note_on_c, 1, 72, 96
6, 234755, Note_on_c, 1, 75, 0
6, 234755, Note_on_c, 1, 79, 0
6, 234755, Note_on_c, 1, 69, 0
6, 234755, Note_on_c, 1, 72, 0
6, 234840, Note_on_c, 1, 75, 78
6, 234840, Note_on_c, 1, 79, 89
6, 234840, Note_on_c, 1, 69, 84
6, 234840, Note_on_c, 1, 72, 89
6, 234875, Note_on_c, 1, 75, 0
6, 234875, Note_on_c, 1, 79, 0
6, 234875, Note_on_c, 1, 69, 0
6, 234875, Note_on_c, 1, 72, 0
6, 235200, Note_on_c, 1, 76, 95
6, 235200, Note_on_c, 1, 81, 87
6, 235200, Note_on_c, 1, 71, 91
6, 235200, Note_on_c, 1, 74, 78
6, 235235, Note_on_c, 1, 76, 0
6, 235235, Note_on_c, 1, 81, 0
6, 235235, Note_on_c, 1, 71, 0
6, 235235, Note_on_c, 1, 74, 0
6, 235320, Note_on_c, 1, 76, 78
6, 235320, Note_on_c, 1, 81, 81
6, 235320, Note_on_c, 1, 71, 96
6, 235320, Note_on_c, 1, 74, 89
6, 235355, Note_on_c, 1, 76, 0
6, 235355, Note_on_c, 1, 81, 0
6, 235355, Note_on_c, 1, 71, 0
6, 235355, Note_on_c, 1, 74, 0
6, 235680, Note_on_c, 1, 75, 88
6, 235680, Note_on_c, 1, 79, 98
6, 235680, Note_on_c, 1, 69, 95
6, 235680, Note_on_c, 1, 72, 98
6, 235715, Note_on_c, 1, 75, 0
6, 235715, Note_on_c, 1, 79, 0
6, 235715, Note_on_c, 1, 69, 0
6, 235715, Note_on_c, 1, 72, 0
6, 235800, Note_on_c, 1, 75, 95
6, 235800, Note_on_c, 1, 79, 84
6, 235800, Note_on_c, 1, 69, 85
6, 235800, Note_on_c, 1, 72, 92
6, 235835, Note_on_c, 1, 75, 0
6, 235835, Note_on_c, 1, 79, 0
6, 235835, Note_on_c, 1, 69, 0
6, 235835, Note_on_c, 1, 72, 0
6, 236160, Note_on_c, 1, 76, 83
6, 236160, Note_on_c, 1, 81, 97
6, 236160, Note_on_c, 1, 71, 84
6, 236160, Note_on_c, 1, 74, 92
6, 236195, Note_on_c, 1, 76, 0
6, 236195, Note_on_c, 1, 81, 0
6, 236195, Note_on_c, 1, 71, 0
6, 236195, Note_on_c, 1, 74, 0
6, 236280, Note_on_c, 1, 76, 95
6, 236280, Note_on_c, 1, 81, 83
6, 236280, Note_on_c, 1, 71, 81
6, 236280, Note_on_c, 1, 74, 92
6, 236315, Note_on_c, 1, 76, 0
6, 236315, Note_on_c, 1, 81, 0
6, 236315, Note_on_c, 1, 71, 0
6, 236315, Note_on_c, 1, 74, 0
6, 236640, Note_on_c, 1, 75, 90
6, 236640, Note_on_c, 1, 79, 94
6, 236640, Note_on_c, 1, 69, 91
6, 236640, Note_on_c, 1, 72, 86
6, 236675, Note_on_c, 1, 75, 0
6, 236675, Note_on_c, 1, 79, 0
6, 236675, Note_on_c, 1, 69, 0
6, 236675, Note_on_c, 1, 72, 0
6, 236760, Note_on_c, 1, 75, 88
6, 236760, Note_on_c, 1, 79, 82
6, 236760, Note_on_c, 1, 69, 86
6, 236760, Note_on_c, 1, 72, 92
6, 236795, Note_on_c, 1, 75, 0
6, 236795, Note_on_c, 1, 79, 0
6, 236795, Note_on_c, 1, 69, 0
6, 236795, Note_on_c, 1, 72, 0
6, 237120, Note_on_c, 1, 76, 94
6, 237120, Note_on_c, 1, 81, 79
6, 237120, Note_on_c, 1, 71, 94
6, 237120, Note_on_c, 1, 74, 95
6, 237155, Note_on_c, 1, 76, 0
6, 237155, Note_on_c, 1, 81, 0
6, 237155, Note_on_c, 1, 71, 0
6, 237155, Note_on_c, 1, 74, 0
6, 237240, Note_on_c, 1, 76, 96
6, 237240, Note_on_c, 1, 81, 82
6, 237240, Note_on_c, 1, 71, 92
6, 237240, Note_on_c, 1, 74, 98
6, 237275, Note_on_c, 1, 76, 0
6, 237275, Note_on_c, 1, 81, 0
6, 237275, Note_on_c, 1, 71, 0
6, 237275, Note_on_c, 1, 74, 0
6, 237600, Note_on_c, 1, 83, 80
6, 237600, Note_on_c, 1, 72, 85
6, 237600, Note_on_c, 1, 76, 82
6, 237600, Note_on_c, 1, 79, 78
6, 237635, Note_on_c, 1, 83, 0
6, 237635, Note_on_c, 1, 72, 0
6, 237635, Note_on_c, 1, 76, 0
6, 237635, Note_on_c, 1, 79, 0
6, 237720, Note_on_c, 1, 83, 87
6, 237720, Note_on_c, 1, 72, 96
6, 237720, Note_on_c, 1, 76, 98
6, 237720, Note_on_c, 1, 79, 92
6, 237755, Note_on_c, 1, 83, 0
6, 237755, Note_on_c, 1, 72, 0
6, 237755, Note_on_c, 1, 76, 0
6, 237755, Note_on_c, 1, 79, 0
6, 238080, Note_on_c, 1, 81, 83
6, 238080, Note_on_c, 1, 71, 93
6, 238080, Note_on_c, 1, 74, 85
6, 238080, Note_on_c, 1, 77, 84
6, 238115, Note_on_c, 1, 81, 0
6, 238115, Note_on_c, 1, 71, 0
6, 238115, Note_on_c, 1, 74, 0
6, 238115, Note_on_c, 1, 77, 0
6, 238200, Note_on_c, 1, 81, 85
6, 238200, Note_on_c, 1, 71, 88
6, 238200, Note_on_c, 1, 74, 90
6, 238200, Note_on_c, 1, 77, 82
6, 238235, Note_on_c, 1, 81, 0
6, 238235, Note_on_c, 1, 71, 0
6, 238235, Note_on_c, 1, 74, 0
6, 238235, Note_on_c, 1, 77, 0
6, 238560, Note_on_c, 1, 79, 87
6, 238560, Note_on_c, 1, 72, 78
6, 238560, Note_on_c, 1, 75, 94
6, 238560, Note_on_c, 1, 79, 79
6, 238595, Note_on_c, 1, 79, 0
6, 238595, Note_on_c, 1, 72, 0
6, 238595, Note_on_c, 1, 75, 0
6, 238607, Note_on_c, 1, 79, 0
6, 238680, Note_on_c, 1, 80, 86
6, 238680, Note_on_c, 1, 72, 78
6, 238680, Note_on_c, 1, 75, 80
6, 238680, Note_on_c, 1, 79, 94
6, 238715, Note_on_c, 1, 72, 0
6, 238715, Note_on_c, 1, 75, 0
6, 238715, Note_on_c, 1, 79, 0
6, 238727, Note_on_c, 1, 80, 0
6, 238800, Note_on_c, 1, 81, 90
6, 238847, Note_on_c, 1, 81, 0
6, 238920, Note_on_c, 1, 82, 96
6, 238967, Note_on_c, 1, 82, 0
6, 239040, Note_on_c, 1, 83, 94
6, 239040, Note_on_c, 1, 74, 78
6, 239040, Note_on_c, 1, 77, 90
6, 239040, Note_on_c, 1, 81, 93
6, 239075, Note_on_c, 1, 74, 0
6, 239075, Note_on_c, 1, 77, 0
6, 239075, Note_on_c, 1, 81, 0
6, 239087, Note_on_c, 1, 83, 0
6, 239160, Note_on_c, 1, 84, 98
6, 239160, Note_on_c, 1, 74, 83
6, 239160, Note_on_c, 1, 77, 78
6, 239160, Note_on_c, 1, 81, 95
6, 239195, Note_on_c, 1, 74, 0
6, 239195, Note_on_c, 1, 77, 0
6, 239195, Note_on_c, 1, 81, 0
6, 239207, Note_on_c, 1, 84, 0
6, 239280, Note_on_c, 1, 85, 112
6, 239327, Note_on_c, 1, 85, 0
6, 239400, Note_on_c, 1, 86, 112
6, 239447, Note_on_c, 1, 86, 0
6, 239520, Note_on_c, 1, 87, 105
6, 239520, Note_on_c, 1, 75, 87
6, 239520, Note_on_c, 1, 79, 85
6, 239520, Note_on_c, 1, 83, 83
6, 239555, Note_on_c, 1, 75, 0
6, 239555, Note_on_c, 1, 79, 0
6, 239555, Note_on_c, 1, 83, 0
6, 239567, Note_on_c, 1, 87, 0
6, 239640, Note_on_c, 1, 86, 100
6, 239640, Note_on_c, 1, 75, 84
6, 239640, Note_on_c, 1, 79, 86
6, 239640, Note_on_c, 1, 83, 95
6, 239675, Note_on_c, 1, 75, 0
6, 239675, Note_on_c, 1, 79, 0
6, 239675, Note_on_c, 1, 83, 0
6, 239687, Note_on_c, 1, 86, 0
6, 239760, Note_on_c, 1, 85, 99
6, 239807, Note_on_c, 1, 85, 0
6, 239880, Note_on_c, 1, 84, 109
6, 239927, Note_on_c, 1, 84, 0
6, 240000, Note_on_c, 1, 83, 89
6, 240000, Note_on_c, 1, 74, 90
6, 240000, Note_on_c, 1, 77, 97
6, 240000, Note_on_c, 1, 81, 97
6, 240035, Note_on_c, 1, 74, 0
6, 240035, Note_on_c, 1, 77, 0
6, 240035, Note_on_c, 1, 81, 0
6, 240047, Note_on_c, 1, 83, 0
6, 240120, Note_on_c, 1, 82, 99
6, 240120, Note_on_c, 1, 74, 82
6, 240120, Note_on_c, 1, 77, 81
6, 240120, Note_on_c, 1, 81, 81
6, 240155, Note_on_c, 1, 74, 0
6, 240155, Note_on_c, 1, 77, 0
6, 240155, Note_on_c, 1, 81, 0
6, 240167, Note_on_c, 1, 82, 0
6, 240240, Note_on_c, 1, 81, 87
6, 240287, Note_on_c, 1, 81, 0
6, 240360, Note_on_c, 1, 80, 81
6, 240407, Note_on_c, 1, 80, 0
6, 240480, Note_on_c, 1, 79, 97
6, 240480, Note_on_c, 1, 72, 81
6, 240480, Note_on_c, 1, 75, 98
6, 240480, Note_on_c, 1, 79, 89
6, 240515, Note_on_c, 1, 79, 0
6, 240515, Note_on_c, 1, 72, 0
6, 240515, Note_on_c, 1, 75, 0
6, 240527, Note_on_c, 1, 79, 0
6, 240600, Note_on_c, 1, 80, 92
6, 240600, Note_on_c, 1, 72, 86
6, 240600, Note_on_c, 1, 75, 81
6, 240600, Note_on_c, 1, 79, 79
6, 240635, Note_on_c, 1, 72, 0
6, 240635, Note_on_c, 1, 75, 0
6, 240635, Note_on_c, 1, 79, 0
6, 240647, Note_on_c, 1, 80, 0
6, 240720, Note_on_c, 1, 81, 95
6, 240767, Note_on_c, 1, 81, 0
6, 240840, Note_on_c, 1, 82, 105
6, 240887, Note_on_c, 1, 82, 0
6, 240960, Note_on_c, 1, 83, 91
6, 240960, Note_on_c, 1, 74, 80
6, 240960, Note_on_c, 1, 77, 98
6, 240960, Note_on_c, 1, 81, 78
6, 240995, Note_on_c, 1, 74, 0
6, 240995, Note_on_c, 1, 77, 0
6, 240995, Note_on_c, 1, 81, 0
6, 241007, Note_on_c, 1, 83, 0
6, 241080, Note_on_c, 1, 84, 102
6, 241080, Note_on_c, 1, 74, 92
6, 241080, Note_on_c, 1, 77, 94
6, 241080, Note_on_c, 1, 81, 80
6, 241115, Note_on_c, 1, 74, 0
6, 241115, Note_on_c, 1, 77, 0
6, 241115, Note_on_c, 1, 81, 0
6, 241127, Note_on_c, 1, 84, 0
6, 241200, Note_on_c, 1, 85, 94
6, 241247, Note_on_c, 1, 85, 0
6, 241320, Note_on_c, 1, 86, 101
6, 241367, Note_on_c, 1, 86, 0
6, 241440, Note_on_c, 1, 87, 83
6, 241487, Note_on_c, 1, 87, 0
6, 241680, Note_on_c, 1, 86, 108
6, 241682, Note_on_c, 1, 72, 106
6, 241700, Note_on_c, 1, 75, 104
6, 241704, Note_on_c, 1, 79, 99
6, 241727, Note_on_c, 1, 86, 0
6, 241753, Note_on_c, 1, 72, 0
6, 241771, Note_on_c, 1, 75, 0
6, 241775, Note_on_c, 1, 79, 0
6, 241800, Note_on_c, 1, 86, 97
6, 241847, Note_on_c, 1, 86, 0
6, 241920, Note_on_c, 1, 84, 114
6, 241967, Note_on_c, 1, 84, 0
6, 242040, Note_on_c, 1, 84, 115
6, 242087, Note_on_c, 1, 84, 0
6, 242160, Note_on_c, 1, 83, 103
6, 242161, Note_on_c, 1, 79, 111
6, 242167, Note_on_c, 1, 75, 97
6, 242178, Note_on_c, 1, 72, 102
6, 242207, Note_on_c, 1, 83, 0
6, 242232, Note_on_c, 1, 79, 0
6, 242238, Note_on_c, 1, 75, 0
6, 242249, Note_on_c, 1, 72, 0
6, 242280, Note_on_c, 1, 83, 111
6, 242327, Note_on_c, 1, 83, 0
6, 242400, Note_on_c, 1, 79, 107
6, 242400, Note_on_c, 1, 72, 112
6, 242400, Note_on_c, 1, 75, 96
6, 242424, Note_on_c, 1, 79, 108
6, 242435, Note_on_c, 1, 79, 0
6, 242435, Note_on_c, 1, 72, 0
6, 242435, Note_on_c, 1, 75, 0
6, 242520, Note_on_c, 1, 79, 100
6, 242520, Note_on_c, 1, 72, 100
6, 242520, Note_on_c, 1, 75, 110
6, 242526, Note_on_c, 1, 80, 98
6, 242544, Note_on_c, 1, 79, 0
6, 242555, Note_on_c, 1, 79, 0
6, 242555, Note_on_c, 1, 72, 0
6, 242555, Note_on_c, 1, 75, 0
6, 242644, Note_on_c, 1, 81, 113
6, 242646, Note_on_c, 1, 80, 0
6, 242762, Note_on_c, 1, 82, 114
6, 242764, Note_on_c, 1, 81, 0
6, 242880, Note_on_c, 1, 81, 112
6, 242880, Note_on_c, 1, 74, 99
6, 242880, Note_on_c, 1, 77, 98
6, 242882, Note_on_c, 1, 82, 0
6, 242901, Note_on_c, 1, 83, 100
6, 242915, Note_on_c, 1, 81, 0
6, 242915, Note_on_c, 1, 74, 0
6, 242915, Note_on_c, 1, 77, 0
6, 243000, Note_on_c, 1, 81, 110
6, 243000, Note_on_c, 1, 74, 104
6, 243000, Note_on_c, 1, 77, 103
6, 243020, Note_on_c, 1, 84, 103
6, 243021, Note_on_c, 1, 83, 0
6, 243035, Note_on_c, 1, 81, 0
6, 243035, Note_on_c, 1, 74, 0
6, 243035, Note_on_c, 1, 77, 0
6, 243140, Note_on_c, 1, 84, 0
6, 243143, Note_on_c, 1, 85, 95
6, 243246, Note_on_c, 1, 86, 97
6, 243263, Note_on_c, 1, 85, 0
6, 243360, Note_on_c, 1, 83, 103
6, 243360, Note_on_c, 1, 75, 98
6, 243360, Note_on_c, 1, 79, 110
6, 243366, Note_on_c, 1, 86, 0
6, 243376, Note_on_c, 1, 87, 114
6, 243395, Note_on_c, 1, 83, 0
6, 243395, Note_on_c, 1, 75, 0
6, 243395, Note_on_c, 1, 79, 0
6, 243480, Note_on_c, 1, 83, 115
6, 243480, Note_on_c, 1, 75, 103
6, 243480, Note_on_c, 1, 79, 108
6, 243496, Note_on_c, 1, 87, 0
6, 243498, Note_on_c, 1, 86, 107
6, 243515, Note_on_c, 1, 83, 0
6, 243515, Note_on_c, 1, 75, 0
6, 243515, Note_on_c, 1, 79, 0
6, 243611, Note_on_c, 1, 85, 112
6, 243618, Note_on_c, 1, 86, 0
6, 243729, Note_on_c, 1, 84, 107
6, 243731, Note_on_c, 1, 85, 0
6, 243840, Note_on_c, 1, 81, 112
6, 243840, Note_on_c, 1, 74, 112
6, 243840, Note_on_c, 1, 77, 115
6, 243849, Note_on_c, 1, 84, 0
6, 243864, Note_on_c, 1, 83, 115
6, 243875, Note_on_c, 1, 81, 0
6, 243875, Note_on_c, 1, 74, 0
6, 243875, Note_on_c, 1, 77, 0
6, 243960, Note_on_c, 1, 81, 99
6, 243960, Note_on_c, 1, 74, 96
6, 243960, Note_on_c, 1, 77, 95
6, 243980, Note_on_c, 1, 82, 100
6, 243984, Note_on_c, 1, 83, 0
6, 243995, Note_on_c, 1, 81, 0
6, 243995, Note_on_c, 1, 74, 0
6, 243995, Note_on_c, 1, 77, 0
6, 244100, Note_on_c, 1, 82, 0
6, 244102, Note_on_c, 1, 81, 102
6, 244204, Note_on_c, 1, 80, 114
6, 244222, Note_on_c, 1, 81, 0
6, 244320, Note_on_c, 1, 79, 96
6, 244320, Note_on_c, 1, 72, 113
6, 244320, Note_on_c, 1, 75, 102
6, 244320, Note_on_c, 1, 79, 95
6, 244324, Note_on_c, 1, 80, 0
6, 244355, Note_on_c, 1, 79, 0
6, 244355, Note_on_c, 1, 72, 0
6, 244355, Note_on_c, 1, 75, 0
6, 244367, Note_on_c, 1, 79, 0
6, 244440, Note_on_c, 1, 80, 100
6, 244440, Note_on_c, 1, 72, 108
6, 244440, Note_on_c, 1, 75, 113
6, 244440, Note_on_c, 1, 79, 114
6, 244475, Note_on_c, 1, 72, 0
6, 244475, Note_on_c, 1, 75, 0
6, 244475, Note_on_c, 1, 79, 0
6, 244487, Note_on_c, 1, 80, 0
6, 244560, Note_on_c, 1, 81, 103
6, 244607, Note_on_c, 1, 81, 0
6, 244680, Note_on_c, 1, 82, 97
6, 244727, Note_on_c, 1, 82, 0
6, 244800, Note_on_c, 1, 83, 101
6, 244800, Note_on_c, 1, 74, 115
6, 244800, Note_on_c, 1, 77, 109
6, 244800, Note_on_c, 1, 81, 108
6, 244835, Note_on_c, 1, 74, 0
6, 244835, Note_on_c, 1, 77, 0
6, 244835, Note_on_c, 1, 81, 0
6, 244847, Note_on_c, 1, 83, 0
6, 244920, Note_on_c, 1, 84, 103
6, 244920, Note_on_c, 1, 74, 111
6, 244920, Note_on_c, 1, 77, 95
6, 244920, Note_on_c, 1, 81, 97
6, 244955, Note_on_c, 1, 74, 0
6, 244955, Note_on_c, 1, 77, 0
6, 244955, Note_on_c, 1, 81, 0
6, 244967, Note_on_c, 1, 84, 0
6, 245040, Note_on_c, 1, 85, 114
6, 245087, Note_on_c, 1, 85, 0
6, 245160, Note_on_c, 1, 86, 107
6, 245207, Note_on_c, 1, 86, 0
6, 245280, Note_on_c, 1, 87, 100
6, 245327, Note_on_c, 1, 87, 0
6, 245520, Note_on_c, 1, 86, 96
6, 245538, Note_on_c, 1, 79, 114
6, 245539, Note_on_c, 1, 75, 95
6, 245542, Note_on_c, 1, 72, 110
6, 245567, Note_on_c, 1, 86, 0
6, 245609, Note_on_c, 1, 79, 0
6, 245610, Note_on_c, 1, 75, 0
6, 245613, Note_on_c, 1, 72, 0
6, 245640, Note_on_c, 1, 86, 114
6, 245687, Note_on_c, 1, 86, 0
6, 245760, Note_on_c, 1, 84, 99
6, 245807, Note_on_c, 1, 84, 0
6, 245880, Note_on_c, 1, 84, 101
6, 245927, Note_on_c, 1, 84, 0
6, 246000, Note_on_c, 1, 83, 105
6, 246000, Note_on_c, 1, 75, 96
6, 246008, Note_on_c, 1, 79, 110
6, 246024, Note_on_c, 1, 72, 103
6, 246047, Note_on_c, 1, 83, 0
6, 246071, Note_on_c, 1, 75, 0
6, 246079, Note_on_c, 1, 79, 0
6, 246095, Note_on_c, 1, 72, 0
6, 246120, Note_on_c, 1, 83, 97
6, 246167, Note_on_c, 1, 83, 0
6, 246240, Note_on_c, 1, 79, 113
6, 246240, Note_on_c, 1, 72, 96
6, 246240, Note_on_c, 1, 75, 96
6, 246240, Note_on_c, 1, 81, 103
6, 246275, Note_on_c, 1, 72, 0
6, 246275, Note_on_c, 1, 75, 0
6, 246275, Note_on_c, 1, 81, 0
6, 246287, Note_on_c, 1, 79, 0
6, 246360, Note_on_c, 1, 80, 105
6, 246360, Note_on_c, 1, 72, 99
6, 246360, Note_on_c, 1, 75, 97
6, 246360, Note_on_c, 1, 79, 109
6, 246395, Note_on_c, 1, 72, 0
6, 246395, Note_on_c, 1, 75, 0
6, 246395, Note_on_c, 1, 79, 0
6, 246407, Note_on_c, 1, 80, 0
6, 246480, Note_on_c, 1, 81, 100
6, 246527, Note_on_c, 1, 81, 0
6, 246600, Note_on_c, 1, 82, 108
6, 246647, Note_on_c, 1, 82, 0
6, 246720, Note_on_c, 1, 83, 111
6, 246720, Note_on_c, 1, 74, 113
6, 246720, Note_on_c, 1, 77, 115
6, 246720, Note_on_c, 1, 81, 107
6, 246755, Note_on_c, 1, 74, 0
6, 246755, Note_on_c, 1, 77, 0
6, 246755, Note_on_c, 1, 81, 0
6, 246767, Note_on_c, 1, 83, 0
6, 246840, Note_on_c, 1, 84, 112
6, 246840, Note_on_c, 1, 74, 100
6, 246840, Note_on_c, 1, 77, 113
6, 246840, Note_on_c, 1, 81, 96
6, 246875, Note_on_c, 1, 74, 0
6, 246875, Note_on_c, 1, 77, 0
6, 246875, Note_on_c, 1, 81, 0
6, 246887, Note_on_c, 1, 84, 0
6, 246960, Note_on_c, 1, 85, 106
6, 247007, Note_on_c, 1, 85, 0
6, 247080, Note_on_c, 1, 86, 103
6, 247127, Note_on_c, 1, 86, 0
6, 247200, Note_on_c, 1, 79, 95
6, 247200, Note_on_c, 1, 72, 109
6, 247200, Note_on_c, 1, 75, 96
6, 247200, Note_on_c, 1, 87, 109
6, 247235, Note_on_c, 1, 72, 0
6, 247235, Note_on_c, 1, 75, 0
6, 247235, Note_on_c, 1, 87, 0
6, 247247, Note_on_c, 1, 79, 0
6, 247320, Note_on_c, 1, 80, 98
6, 247320, Note_on_c, 1, 72, 113
6, 247320, Note_on_c, 1, 75, 102
6, 247320, Note_on_c, 1, 79, 101
6, 247355, Note_on_c, 1, 72, 0
6, 247355, Note_on_c, 1, 75, 0
6, 247355, Note_on_c, 1, 79, 0
6, 247367, Note_on_c, 1, 80, 0
6, 247440, Note_on_c, 1, 81, 106
6, 247487, Note_on_c, 1, 81, 0
6, 247560, Note_on_c, 1, 82, 105
6, 247607, Note_on_c, 1, 82, 0
6, 247680, Note_on_c, 1, 83, 101
6, 247680, Note_on_c, 1, 74, 103
6, 247680, Note_on_c, 1, 77, 107
6, 247680, Note_on_c, 1, 81, 102
6, 247715, Note_on_c, 1, 74, 0
6, 247715, Note_on_c, 1, 77, 0
6, 247715, Note_on_c, 1, 81, 0
6, 247727, Note_on_c, 1, 83, 0
6, 247800, Note_on_c, 1, 84, 107
6, 247800, Note_on_c, 1, 74, 102
6, 247800, Note_on_c, 1, 77, 99
6, 247800, Note_on_c, 1, 81, 111
6, 247835, Note_on_c, 1, 74, 0
6, 247835, Note_on_c, 1, 77, 0
6, 247835, Note_on_c, 1, 81, 0
6, 247847, Note_on_c, 1, 84, 0
6, 247920, Note_on_c, 1, 85, 104
6, 247967, Note_on_c, 1, 85, 0
6, 248040, Note_on_c, 1, 86, 106
6, 248087, Note_on_c, 1, 86, 0
6, 248160, Note_on_c, 1, 79, 97
6, 248160, Note_on_c, 1, 72, 103
6, 248160, Note_on_c, 1, 75, 100
6, 248160, Note_on_c, 1, 87, 106
6, 248195, Note_on_c, 1, 72, 0
6, 248195, Note_on_c, 1, 75, 0
6, 248195, Note_on_c, 1, 87, 0
6, 248207, Note_on_c, 1, 79, 0
6, 248280, Note_on_c, 1, 80, 115
6, 248280, Note_on_c, 1, 72, 99
6, 248280, Note_on_c, 1, 75, 115
6, 248280, Note_on_c, 1, 79, 107
6, 248315, Note_on_c, 1, 72, 0
6, 248315, Note_on_c, 1, 75, 0
6, 248315, Note_on_c, 1, 79, 0
6, 248327, Note_on_c, 1, 80, 0
6, 248400, Note_on_c, 1, 81, 95
6, 248447, Note_on_c, 1, 81, 0
6, 248520, Note_on_c, 1, 82, 97
6, 248567, Note_on_c, 1, 82, 0
6, 248640, Note_on_c, 1, 83, 110
6, 248640, Note_on_c, 1, 74, 109
6, 248640, Note_on_c, 1, 77, 99
6, 248640, Note_on_c, 1, 81, 105
6, 248675, Note_on_c, 1, 74, 0
6, 248675, Note_on_c, 1, 77, 0
6, 248675, Note_on_c, 1, 81, 0
6, 248687, Note_on_c, 1, 83, 0
6, 248760, Note_on_c, 1, 84, 114
6, 248760, Note_on_c, 1, 74, 111
6, 248760, Note_on_c, 1, 77, 109
6, 248760, Note_on_c, 1, 81, 111
6, 248795, Note_on_c, 1, 74, 0
6, 248795, Note_on_c, 1, 77, 0
6, 248795, Note_on_c, 1, 81, 0
6, 248807, Note_on_c, 1, 84, 0
6, 248880, Note_on_c, 1, 85, 112
6, 248927, Note_on_c, 1, 85, 0
6, 249000, Note_on_c, 1, 86, 100
6, 249047, Note_on_c, 1, 86, 0
6, 249120, Note_on_c, 1, 87, 115
6, 249167, Note_on_c, 1, 87, 0
6, 249360, Note_on_c, 1, 86, 108
6, 249360, Note_on_c, 1, 72, 95
6, 249364, Note_on_c, 1, 79, 96
6, 249373, Note_on_c, 1, 75, 115
6, 249407, Note_on_c, 1, 86, 0
6, 249431, Note_on_c, 1, 72, 0
6, 249435, Note_on_c, 1, 79, 0
6, 249444, Note_on_c, 1, 75, 0
6, 249480, Note_on_c, 1, 86, 98
6, 249527, Note_on_c, 1, 86, 0
6, 249600, Note_on_c, 1, 84, 111
6, 249647, Note_on_c, 1, 84, 0
6, 249720, Note_on_c, 1, 84, 115
6, 249767, Note_on_c, 1, 84, 0
6, 249840, Note_on_c, 1, 83, 107
6, 249845, Note_on_c, 1, 79, 108
6, 249863, Note_on_c, 1, 72, 111
6, 249864, Note_on_c, 1, 75, 111
6, 249887, Note_on_c, 1, 83, 0
6, 249916, Note_on_c, 1, 79, 0
6, 249934, Note_on_c, 1, 72, 0
6, 249935, Note_on_c, 1, 75, 0
6, 249960, Note_on_c, 1, 83, 99
6, 250007, Note_on_c, 1, 83, 0
6, 255381, Note_on_c, 1, 81, 97
6, 255501, Note_on_c, 1, 81, 0
6, 255618, Note_on_c, 1, 83, 97
6, 255738, Note_on_c, 1, 83, 0
6, 255855, Note_on_c, 1, 81, 92
6, 255975, Note_on_c, 1, 81, 0
6, 256087, Note_on_c, 1, 86, 106
6, 256207, Note_on_c, 1, 86, 0
6, 256334, Note_on_c, 1, 88, 98
6, 256454, Note_on_c, 1, 88, 0
6, 256583, Note_on_c, 1, 91, 110
6, 256703, Note_on_c, 1, 91, 0
6, 256824, Note_on_c, 1, 90, 106
6, 256944, Note_on_c, 1, 90, 0
6, 257064, Note_on_c, 1, 88, 110
6, 257184, Note_on_c, 1, 88, 0
6, 257296, Note_on_c, 1, 86, 102
6, 257416, Note_on_c, 1, 86, 0
6, 257522, Note_on_c, 1, 81, 109
6, 257642, Note_on_c, 1, 81, 0
6, 261510, Note_on_c, 1, 63, 103
6, 261510, Note_on_c, 1, 66, 97
6, 261510, Note_on_c, 1, 60, 115
6, 261540, Note_on_c, 1, 63, 0
6, 261540, Note_on_c, 1, 66, 0
6, 261540, Note_on_c, 1, 60, 0
6, 261540, Note_on_c, 1, 64, 106
6, 261540, Note_on_c, 1, 67, 115
6, 261540, Note_on_c, 1, 61, 110
6, 261540, Note_on_c, 1, 63, 102
6, 261570, Note_on_c, 1, 64, 0
6, 261570, Note_on_c, 1, 67, 0
6, 261570, Note_on_c, 1, 61, 0
6, 261570, Note_on_c, 1, 63, 0
6, 261570, Note_on_c, 1, 65, 98
6, 261570, Note_on_c, 1, 68, 103
6, 261570, Note_on_c, 1, 62, 120
6, 261570, Note_on_c, 1, 66, 103
6, 261600, Note_on_c, 1, 65, 0
6, 261600, Note_on_c, 1, 68, 0
6, 261600, Note_on_c, 1, 62, 0
6, 261600, Note_on_c, 1, 66, 0
6, 261601, Note_on_c, 1, 69, 86
6, 261610, Note_on_c, 1, 66, 78
6, 261624, Note_on_c, 1, 71, 96
6, 261625, Note_on_c, 1, 63, 105
6, 261696, Note_on_c, 1, 69, 0
6, 261705, Note_on_c, 1, 66, 0
6, 261719, Note_on_c, 1, 71, 0
6, 261720, Note_on_c, 1, 63, 0
6, 262950, Note_on_c, 1, 63, 78
6, 262950, Note_on_c, 1, 66, 85
6, 262950, Note_on_c, 1, 60, 98
6, 262980, Note_on_c, 1, 63, 0
6, 262980, Note_on_c, 1, 66, 0
6, 262980, Note_on_c, 1, 60, 0
6, 262980, Note_on_c, 1, 64, 86
6, 262980, Note_on_c, 1, 67, 98
6, 262980, Note_on_c, 1, 61, 89
6, 262980, Note_on_c, 1, 63, 104
6, 263010, Note_on_c, 1, 64, 0
6, 263010, Note_on_c, 1, 67, 0
6, 263010, Note_on_c, 1, 61, 0
6, 263010, Note_on_c, 1, 63, 0
6, 263010, Note_on_c, 1, 65, 81
6, 263010, Note_on_c, 1, 68, 86
6, 263010, Note_on_c, 1, 62, 91
6, 263010, Note_on_c, 1, 66, 93
6, 263040, Note_on_c, 1, 65, 0
6, 263040, Note_on_c, 1, 68, 0
6, 263040, Note_on_c, 1, 62, 0
6, 263040, Note_on_c, 1, 66, 0
6, 263040, Note_on_c, 1, 69, 93
6, 263045, Note_on_c, 1, 66, 84
6, 263053, Note_on_c, 1, 71, 100
6, 263060, Note_on_c, 1, 63, 101
6, 263135, Note_on_c, 1, 69, 0
6, 263140, Note_on_c, 1, 66, 0
6, 263148, Note_on_c, 1, 71, 0
6, 263155, Note_on_c, 1, 63, 0
6, 264390, Note_on_c, 1, 63, 90
6, 264390, Note_on_c, 1, 66, 99
6, 264390, Note_on_c, 1, 60, 94
6, 264420, Note_on_c, 1, 63, 0
6, 264420, Note_on_c, 1, 66, 0
6, 264420, Note_on_c, 1, 60, 0
6, 264420, Note_on_c, 1, 64, 87
6, 264420, Note_on_c, 1, 67, 102
6, 264420, Note_on_c, 1, 61, 87
6, 264420, Note_on_c, 1, 63, 82
6, 264450, Note_on_c, 1, 64, 0
6, 264450, Note_on_c, 1, 67, 0
6, 264450, Note_on_c, 1, 61, 0
6, 264450, Note_on_c, 1, 63, 0
6, 264450, Note_on_c, 1, 65, 88
6, 264450, Note_on_c, 1, 68, 94
6, 264450, Note_on_c, 1, 62, 84
6, 264450, Note_on_c, 1, 66, 83
6, 264480, Note_on_c, 1, 65, 0
6, 264480, Note_on_c, 1, 68, 0
6, 264480, Note_on_c, 1, 62, 0
6, 264480, Note_on_c, 1, 66, 0
6, 264485, Note_on_c, 1, 63, 91
6, 264486, Note_on_c, 1, 71, 83
6, 264500, Note_on_c, 1, 66, 97
6, 264504, Note_on_c, 1, 69, 91
6, 264580, Note_on_c, 1, 63, 0
6, 264581, Note_on_c, 1, 71, 0
6, 264595, Note_on_c, 1, 66, 0
6, 264599, Note_on_c, 1, 69, 0
6, 265830, Note_on_c, 1, 63, 87
6, 265830, Note_on_c, 1, 66, 103
6, 265830, Note_on_c, 1, 60, 84
6, 265860, Note_on_c, 1, 63, 0
6, 265860, Note_on_c, 1, 66, 0
6, 265860, Note_on_c, 1, 60, 0
6, 265860, Note_on_c, 1, 64, 88
6, 265860, Note_on_c, 1, 67, 97
6, 265860, Note_on_c, 1, 61, 92
6, 265860, Note_on_c, 1, 63, 81
6, 265890, Note_on_c, 1, 64, 0
6, 265890, Note_on_c, 1, 67, 0
6, 265890, Note_on_c, 1, 61, 0
6, 265890, Note_on_c, 1, 63, 0
6, 265890, Note_on_c, 1, 65, 88
6, 265890, Note_on_c, 1, 68, 85
6, 265890, Note_on_c, 1, 62, 103
6, 265890, Note_on_c, 1, 66, 83
6, 265920, Note_on_c, 1, 65, 0
6, 265920, Note_on_c, 1, 68, 0
6, 265920, Note_on_c, 1, 62, 0
6, 265920, Note_on_c, 1, 66, 0
6, 265923, Note_on_c, 1, 69, 90
6, 265925, Note_on_c, 1, 63, 99
6, 265936, Note_on_c, 1, 71, 79
6, 265941, Note_on_c, 1, 66, 80
6, 266018, Note_on_c, 1, 69, 0
6, 266020, Note_on_c, 1, 63, 0
6, 266031, Note_on_c, 1, 71, 0
6, 266036, Note_on_c, 1, 66, 0
6, 267603, Note_on_c, 1, 85, 87
6, 267611, Note_on_c, 1, 87, 91
6, 267621, Note_on_c, 1, 82, 78
6, 267624, Note_on_c, 1, 79, 84
6, 267722, Note_on_c, 1, 84, 81
6, 267723, Note_on_c, 1, 85, 0
6, 267731, Note_on_c, 1, 87, 0
6, 267732, Note_on_c, 1, 81, 96
6, 267740, Note_on_c, 1, 86, 88
6, 267741, Note_on_c, 1, 82, 0
6, 267744, Note_on_c, 1, 79, 0
6, 267745, Note_on_c, 1, 78, 97
6, 267842, Note_on_c, 1, 84, 0
6, 267850, Note_on_c, 1, 80, 90
6, 267850, Note_on_c, 1, 77, 93
6, 267851, Note_on_c, 1, 85, 81
6, 267852, Note_on_c, 1, 81, 0
6, 267857, Note_on_c, 1, 83, 86
6, 267860, Note_on_c, 1, 86, 0
6, 267865, Note_on_c, 1, 78, 0
6, 267962, Note_on_c, 1, 79, 95
6, 267963, Note_on_c, 1, 76, 89
6, 267963, Note_on_c, 1, 82, 82
6, 267966, Note_on_c, 1, 84, 93
6, 267970, Note_on_c, 1, 80, 0
6, 267970, Note_on_c, 1, 77, 0
6, 267971, Note_on_c, 1, 85, 0
6, 267977, Note_on_c, 1, 83, 0
6, 268082, Note_on_c, 1, 79, 0
6, 268082, Note_on_c, 1, 78, 88
6, 268083, Note_on_c, 1, 76, 0
6, 268083, Note_on_c, 1, 82, 0
6, 268086, Note_on_c, 1, 84, 0
6, 268088, Note_on_c, 1, 81, 88
6, 268097, Note_on_c, 1, 83, 82
6, 268100, Note_on_c, 1, 75, 93
6, 268202, Note_on_c, 1, 78, 0
6, 268204, Note_on_c, 1, 80, 93
6, 268204, Note_on_c, 1, 77, 98
6, 268207, Note_on_c, 1, 82, 90
6, 268208, Note_on_c, 1, 81, 0
6, 268212, Note_on_c, 1, 74, 93
6, 268217, Note_on_c, 1, 83, 0
6, 268220, Note_on_c, 1, 75, 0
6, 268320, Note_on_c, 1, 76, 80
6, 268324, Note_on_c, 1, 80, 0
6, 268324, Note_on_c, 1, 77, 0
6, 268327, Note_on_c, 1, 82, 0
6, 268328, Note_on_c, 1, 73, 87
6, 268332, Note_on_c, 1, 74, 0
6, 268336, Note_on_c, 1, 81, 98
6, 268341, Note_on_c, 1, 79, 78
6, 268440, Note_on_c, 1, 76, 0
6, 268448, Note_on_c, 1, 73, 0
6, 268456, Note_on_c, 1, 81, 0
6, 268461, Note_on_c, 1, 79, 0
6, 284550, Note_on_c, 1, 63, 80
6, 284550, Note_on_c, 1, 66, 84
6, 284550, Note_on_c, 1, 60, 89
6, 284580, Note_on_c, 1, 63, 0
6, 284580, Note_on_c, 1, 66, 0
6, 284580, Note_on_c, 1, 60, 0
6, 284580, Note_on_c, 1, 64, 81
6, 284580, Note_on_c, 1, 67, 87
6, 284580, Note_on_c, 1, 61, 103
6, 284610, Note_on_c, 1, 64, 0
6, 284610, Note_on_c, 1, 67, 0
6, 284610, Note_on_c, 1, 61, 0
6, 284610, Note_on_c, 1, 65, 80
6, 284610, Note_on_c, 1, 68, 86
6, 284610, Note_on_c, 1, 62, 104
6, 284640, Note_on_c, 1, 65, 0
6, 284640, Note_on_c, 1, 68, 0
6, 284640, Note_on_c, 1, 62, 0
6, 284647, Note_on_c, 1, 66, 87
6, 284661, Note_on_c, 1, 63, 101
6, 284664, Note_on_c, 1, 69, 102
6, 284742, Note_on_c, 1, 66, 0
6, 284756, Note_on_c, 1, 63, 0
6, 284759, Note_on_c, 1, 69, 0
6, 286710, Note_on_c, 1, 63, 89
6, 286710, Note_on_c, 1, 66, 91
6, 286710, Note_on_c, 1, 60, 105
6, 286740, Note_on_c, 1, 63, 0
6, 286740, Note_on_c, 1, 66, 0
6, 286740, Note_on_c, 1, 60, 0
6, 286740, Note_on_c, 1, 64, 79
6, 286740, Note_on_c, 1, 67, 98
6, 286740, Note_on_c, 1, 61, 97
6, 286770, Note_on_c, 1, 64, 0
6, 286770, Note_on_c, 1, 67, 0
6, 286770, Note_on_c, 1, 61, 0
6, 286770, Note_on_c, 1, 65, 83
6, 286770, Note_on_c, 1, 68, 85
6, 286770, Note_on_c, 1, 62, 94
6, 286800, Note_on_c, 1, 65, 0
6, 286800, Note_on_c, 1, 68, 0
6, 286800, Note_on_c, 1, 62, 0
6, 286803, Note_on_c, 1, 66, 95
6, 286805, Note_on_c, 1, 63, 108
6, 286809, Note_on_c, 1, 69, 97
6, 286898, Note_on_c, 1, 66, 0
6, 286900, Note_on_c, 1, 63, 0
6, 286904, Note_on_c, 1, 69, 0
6, 288150, Note_on_c, 1, 63, 95
6, 288150, Note_on_c, 1, 66, 95
6, 288150, Note_on_c, 1, 60, 99
6, 288180, Note_on_c, 1, 63, 0
6, 288180, Note_on_c, 1, 66, 0
6, 288180, Note_on_c, 1, 60, 0
6, 288180, Note_on_c, 1, 64, 95
6, 288180, Note_on_c, 1, 67, 84
6, 288180, Note_on_c, 1, 61, 101
6, 288210, Note_on_c, 1, 64, 0
6, 288210, Note_on_c, 1, 67, 0
6, 288210, Note_on_c, 1, 61, 0
6, 288210, Note_on_c, 1, 65, 88
6, 288210, Note_on_c, 1, 68, 89
6, 288210, Note_on_c, 1, 62, 95
6, 288240, Note_on_c, 1, 65, 0
6, 288240, Note_on_c, 1, 68, 0
6, 288240, Note_on_c, 1, 62, 0
6, 288254, Note_on_c, 1, 69, 86
6, 288256, Note_on_c, 1, 66, 83
6, 288263, Note_on_c, 1, 63, 90
6, 288349, Note_on_c, 1, 69, 0
6, 288351, Note_on_c, 1, 66, 0
6, 288358, Note_on_c, 1, 63, 0
6, 294020, Note_on_c, 1, 70, 58
6, 294115, Note_on_c, 1, 70, 0
6, 294253, Note_on_c, 1, 73, 49
6, 294348, Note_on_c, 1, 73, 0
6, 294481, Note_on_c, 1, 70, 43
6, 294576, Note_on_c, 1, 70, 0
6, 294728, Note_on_c, 1, 67, 46
6, 294823, Note_on_c, 1, 67, 0
6, 294979, Note_on_c, 1, 64, 44
6, 295074, Note_on_c, 1, 64, 0
6, 295211, Note_on_c, 1, 61, 53
6, 295306, Note_on_c, 1, 61, 0
6, 295445, Note_on_c, 1, 73, 72
6, 295459, Note_on_c, 1, 70, 64
6, 295540, Note_on_c, 1, 73, 0
6, 295554, Note_on_c, 1, 70, 0
6, 295693, Note_on_c, 1, 76, 70
6, 295702, Note_on_c, 1, 73, 63
6, 295788, Note_on_c, 1, 76, 0
6, 295797, Note_on_c, 1, 73, 0
6, 295923, Note_on_c, 1, 70, 53
6, 295945, Note_on_c, 1, 73, 70
6, 296018, Note_on_c, 1, 70, 0
6, 296040, Note_on_c, 1, 73, 0
6, 296168, Note_on_c, 1, 70, 70
6, 296176, Note_on_c, 1, 67, 67
6, 296263, Note_on_c, 1, 70, 0
6, 296271, Note_on_c, 1, 67, 0
6, 296414, Note_on_c, 1, 64, 70
6, 296423, Note_on_c, 1, 67, 55
6, 296509, Note_on_c, 1, 64, 0
6, 296518, Note_on_c, 1, 67, 0
6, 296645, Note_on_c, 1, 64, 70
6, 296646, Note_on_c, 1, 61, 70
6, 296740, Note_on_c, 1, 64, 0
6, 296741, Note_on_c, 1, 61, 0
6, 296884, Note_on_c, 1, 73, 70
6, 296900, Note_on_c, 1, 76, 65
6, 296979, Note_on_c, 1, 73, 0
6, 296995, Note_on_c, 1, 76, 0
6, 297140, Note_on_c, 1, 76, 58
6, 297143, Note_on_c, 1, 79, 66
6, 297235, Note_on_c, 1, 76, 0
6, 297238, Note_on_c, 1, 79, 0
6, 297372, Note_on_c, 1, 76, 53
6, 297375, Note_on_c, 1, 73, 55
6, 297467, Note_on_c, 1, 76, 0
6, 297470, Note_on_c, 1, 73, 0
6, 297603, Note_on_c, 1, 70, 60
6, 297613, Note_on_c, 1, 73, 61
6, 297698, Note_on_c, 1, 70, 0
6, 297708, Note_on_c, 1, 73, 0
6, 297849, Note_on_c, 1, 70, 70
6, 297859, Note_on_c, 1, 67, 70
6, 297944, Note_on_c, 1, 70, 0
6, 297954, Note_on_c, 1, 67, 0
6, 298083, Note_on_c, 1, 67, 58
6, 298098, Note_on_c, 1, 64, 58
6, 298178, Note_on_c, 1, 67, 0
6, 298193, Note_on_c, 1, 64, 0
6, 298320, Note_on_c, 1, 76, 56
6, 298335, Note_on_c, 1, 79, 70
6, 298415, Note_on_c, 1, 76, 0
6, 298430, Note_on_c, 1, 79, 0
6, 298576, Note_on_c, 1, 79, 72
6, 298578, Note_on_c, 1, 82, 57
6, 298671, Note_on_c, 1, 79, 0
6, 298673, Note_on_c, 1, 82, 0
6, 298805, Note_on_c, 1, 76, 61
6, 298811, Note_on_c, 1, 79, 63
6, 298900, Note_on_c, 1, 76, 0
6, 298906, Note_on_c, 1, 79, 0
6, 299048, Note_on_c, 1, 73, 66
6, 299058, Note_on_c, 1, 76, 63
6, 299143, Note_on_c, 1, 73, 0
6, 299153, Note_on_c, 1, 76, 0
6, 299289, Note_on_c, 1, 73, 71
6, 299292, Note_on_c, 1, 70, 67
6, 299384, Note_on_c, 1, 73, 0
6, 299387, Note_on_c, 1, 70, 0
6, 299524, Note_on_c, 1, 67, 55
6, 299526, Note_on_c, 1, 70, 59
6, 299619, Note_on_c, 1, 67, 0
6, 299621, Note_on_c, 1, 70, 0
6, 299761, Note_on_c, 1, 82, 71
6, 299765, Note_on_c, 1, 79, 56
6, 299856, Note_on_c, 1, 82, 0
6, 299860, Note_on_c, 1, 79, 0
6, 300005, Note_on_c, 1, 85, 53
6, 300025, Note_on_c, 1, 82, 58
6, 300100, Note_on_c, 1, 85, 0
6, 300120, Note_on_c, 1, 82, 0
6, 300257, Note_on_c, 1, 82, 55
6, 300265, Note_on_c, 1, 79, 58
6, 300352, Note_on_c, 1, 82, 0
6, 300360, Note_on_c, 1, 79, 0
6, 300485, Note_on_c, 1, 76, 52
6, 300500, Note_on_c, 1, 79, 60
6, 300580, Note_on_c, 1, 76, 0
6, 300595, Note_on_c, 1, 79, 0
6, 300739, Note_on_c, 1, 73, 59
6, 300745, Note_on_c, 1, 76, 53
6, 300834, Note_on_c, 1, 73, 0
6, 300840, Note_on_c, 1, 76, 0
6, 300963, Note_on_c, 1, 73, 57
6, 300977, Note_on_c, 1, 70, 69
6, 301058, Note_on_c, 1, 73, 0
6, 301072, Note_on_c, 1, 70, 0
6, 301205, Note_on_c, 1, 85, 60
6, 301224, Note_on_c, 1, 82, 65
6, 301300, Note_on_c, 1, 85, 0
6, 301319, Note_on_c, 1, 82, 0
6, 301453, Note_on_c, 1, 85, 57
6, 301458, Note_on_c, 1, 88, 72
6, 301548, Note_on_c, 1, 85, 0
6, 301553, Note_on_c, 1, 88, 0
6, 301694, Note_on_c, 1, 85, 62
6, 301701, Note_on_c, 1, 82, 59
6, 301789, Note_on_c, 1, 85, 0
6, 301796, Note_on_c, 1, 82, 0
6, 301925, Note_on_c, 1, 79, 67
6, 301941, Note_on_c, 1, 82, 57
6, 302020, Note_on_c, 1, 79, 0
6, 302036, Note_on_c, 1, 82, 0
6, 302165, Note_on_c, 1, 76, 57
6, 302181, Note_on_c, 1, 79, 62
6, 302260, Note_on_c, 1, 76, 0
6, 302276, Note_on_c, 1, 79, 0
6, 302405, Note_on_c, 1, 76, 63
6, 302425, Note_on_c, 1, 73, 58
6, 302500, Note_on_c, 1, 76, 0
6, 302520, Note_on_c, 1, 73, 0
6, 302661, Note_on_c, 1, 82, 93
6, 302664, Note_on_c, 1, 78, 102
6, 302781, Note_on_c, 1, 82, 0
6, 302784, Note_on_c, 1, 78, 0
6, 302888, Note_on_c, 1, 80, 110
6, 302904, Note_on_c, 1, 77, 106
6, 303008, Note_on_c, 1, 80, 0
6, 303024, Note_on_c, 1, 77, 0
6, 303133, Note_on_c, 1, 78, 92
6, 303136, Note_on_c, 1, 82, 91
6, 303253, Note_on_c, 1, 78, 0
6, 303256, Note_on_c, 1, 82, 0
6, 303361, Note_on_c, 1, 77, 98
6, 303375, Note_on_c, 1, 80, 95
6, 303481, Note_on_c, 1, 77, 0
6, 303495, Note_on_c, 1, 80, 0
6, 303611, Note_on_c, 1, 78, 98
6, 303614, Note_on_c, 1, 75, 92
6, 303731, Note_on_c, 1, 78, 0
6, 303734, Note_on_c, 1, 75, 0
6, 303844, Note_on_c, 1, 77, 105
6, 303853, Note_on_c, 1, 73, 110
6, 303964, Note_on_c, 1, 77, 0
6, 303973, Note_on_c, 1, 73, 0
6, 304086, Note_on_c, 1, 78, 97
6, 304089, Note_on_c, 1, 82, 104
6, 304206, Note_on_c, 1, 78, 0
6, 304209, Note_on_c, 1, 82, 0
6, 304328, Note_on_c, 1, 80, 94
6, 304340, Note_on_c, 1, 77, 110
6, 304448, Note_on_c, 1, 80, 0
6, 304460, Note_on_c, 1, 77, 0
6, 304562, Note_on_c, 1, 78, 108
6, 304572, Note_on_c, 1, 82, 101
6, 304682, Note_on_c, 1, 78, 0
6, 304692, Note_on_c, 1, 82, 0
6, 304805, Note_on_c, 1, 80, 111
6, 304806, Note_on_c, 1, 77, 94
6, 304925, Note_on_c, 1, 80, 0
6, 304926, Note_on_c, 1, 77, 0
6, 305060, Note_on_c, 1, 75, 91
6, 305063, Note_on_c, 1, 78, 99
6, 305180, Note_on_c, 1, 75, 0
6, 305183, Note_on_c, 1, 78, 0
6, 305286, Note_on_c, 1, 73, 99
6, 305304, Note_on_c, 1, 77, 105
6, 305406, Note_on_c, 1, 73, 0
6, 305424, Note_on_c, 1, 77, 0
6, 305528, Note_on_c, 1, 82, 92
6, 305545, Note_on_c, 1, 78, 91
6, 305648, Note_on_c, 1, 82, 0
6, 305665, Note_on_c, 1, 78, 0
6, 305776, Note_on_c, 1, 80, 104
6, 305784, Note_on_c, 1, 77, 109
6, 305896, Note_on_c, 1, 80, 0
6, 305904, Note_on_c, 1, 77, 0
6, 306006, Note_on_c, 1, 78, 105
6, 306008, Note_on_c, 1, 82, 107
6, 306126, Note_on_c, 1, 78, 0
6, 306128, Note_on_c, 1, 82, 0
6, 306252, Note_on_c, 1, 80, 92
6, 306258, Note_on_c, 1, 77, 102
6, 306372, Note_on_c, 1, 80, 0
6, 306378, Note_on_c, 1, 77, 0
6, 306488, Note_on_c, 1, 75, 92
6, 306492, Note_on_c, 1, 78, 91
6, 306608, Note_on_c, 1, 75, 0
6, 306612, Note_on_c, 1, 78, 0
6, 306720, Note_on_c, 1, 77, 92
6, 306739, Note_on_c, 1, 73, 103
6, 306840, Note_on_c, 1, 77, 0
6, 306859, Note_on_c, 1, 73, 0
6, 306962, Note_on_c, 1, 75, 107
6, 306969, Note_on_c, 1, 78, 107
6, 307082, Note_on_c, 1, 75, 0
6, 307089, Note_on_c, 1, 78, 0
6, 307203, Note_on_c, 1, 75, 91
6, 307220, Note_on_c, 1, 72, 101
6, 307323, Note_on_c, 1, 75, 0
6, 307340, Note_on_c, 1, 72, 0
6, 307441, Note_on_c, 1, 75, 106
6, 307459, Note_on_c, 1, 72, 96
6, 307561, Note_on_c, 1, 75, 0
6, 307579, Note_on_c, 1, 72, 0
6, 307680, Note_on_c, 1, 75, 105
6, 307700, Note_on_c, 1, 72, 101
6, 307800, Note_on_c, 1, 75, 0
6, 307820, Note_on_c, 1, 72, 0
6, 307926, Note_on_c, 1, 73, 97
6, 307942, Note_on_c, 1, 77, 111
6, 308046, Note_on_c, 1, 73, 0
6, 308062, Note_on_c, 1, 77, 0
6, 308162, Note_on_c, 1, 78, 95
6, 308180, Note_on_c, 1, 75, 99
6, 308282, Note_on_c, 1, 78, 0
6, 308300, Note_on_c, 1, 75, 0
6, 308409, Note_on_c, 1, 77, 99
6, 308417, Note_on_c, 1, 80, 97
6, 308529, Note_on_c, 1, 77, 0
6, 308537, Note_on_c, 1, 80, 0
6, 308643, Note_on_c, 1, 78, 111
6, 308657, Note_on_c, 1, 82, 96
6, 308763, Note_on_c, 1, 78, 0
6, 308777, Note_on_c, 1, 82, 0
6, 308880, Note_on_c, 1, 77, 111
6, 308889, Note_on_c, 1, 80, 91
6, 309000, Note_on_c, 1, 77, 0
6, 309009, Note_on_c, 1, 80, 0
6, 309123, Note_on_c, 1, 82, 111
6, 309124, Note_on_c, 1, 78, 93
6, 309243, Note_on_c, 1, 82, 0
6, 309244, Note_on_c, 1, 78, 0
6, 309363, Note_on_c, 1, 80, 102
6, 309383, Note_on_c, 1, 77, 91
6, 309483, Note_on_c, 1, 80, 0
6, 309503, Note_on_c, 1, 77, 0
6, 309608, Note_on_c, 1, 78, 107
6, 309619, Note_on_c, 1, 75, 105
6, 309728, Note_on_c, 1, 78, 0
6, 309739, Note_on_c, 1, 75, 0
6, 309849, Note_on_c, 1, 73, 99
6, 309860, Note_on_c, 1, 77, 111
6, 309969, Note_on_c, 1, 73, 0
6, 309980, Note_on_c, 1, 77, 0
6, 310081, Note_on_c, 1, 75, 101
6, 310083, Note_on_c, 1, 72, 98
6, 310201, Note_on_c, 1, 75, 0
6, 310203, Note_on_c, 1, 72, 0
6, 310320, Note_on_c, 1, 73, 99
6, 310343, Note_on_c, 1, 77, 103
6, 310440, Note_on_c, 1, 73, 0
6, 310463, Note_on_c, 1, 77, 0
6, 310568, Note_on_c, 1, 78, 104
6, 310577, Note_on_c, 1, 75, 95
6, 310688, Note_on_c, 1, 78, 0
6, 310697, Note_on_c, 1, 75, 0
6, 310802, Note_on_c, 1, 77, 102
6, 310810, Note_on_c, 1, 80, 109
6, 310922, Note_on_c, 1, 77, 0
6, 310930, Note_on_c, 1, 80, 0
6, 311048, Note_on_c, 1, 77, 104
6, 311051, Note_on_c, 1, 81, 95
6, 311168, Note_on_c, 1, 77, 0
6, 311171, Note_on_c, 1, 81, 0
6, 311294, Note_on_c, 1, 76, 98
6, 311299, Note_on_c, 1, 79, 97
6, 311414, Note_on_c, 1, 76, 0
6, 311419, Note_on_c, 1, 79, 0
6, 311521, Note_on_c, 1, 81, 101
6, 311526, Note_on_c, 1, 77, 107
6, 311641, Note_on_c, 1, 81, 0
6, 311646, Note_on_c, 1, 77, 0
6, 311771, Note_on_c, 1, 76, 96
6, 311776, Note_on_c, 1, 79, 95
6, 311891, Note_on_c, 1, 76, 0
6, 311896, Note_on_c, 1, 79, 0
6, 312002, Note_on_c, 1, 77, 92
6, 312017, Note_on_c, 1, 74, 98
6, 312122, Note_on_c, 1, 77, 0
6, 312137, Note_on_c, 1, 74, 0
6, 312243, Note_on_c, 1, 72, 102
6, 312252, Note_on_c, 1, 76, 109
6, 312363, Note_on_c, 1, 72, 0
6, 312372, Note_on_c, 1, 76, 0
6, 312497, Note_on_c, 1, 71, 103
6, 312500, Note_on_c, 1, 74, 91
6, 312617, Note_on_c, 1, 71, 0
6, 312620, Note_on_c, 1, 74, 0
6, 312729, Note_on_c, 1, 74, 105
6, 312731, Note_on_c, 1, 71, 105
6, 312849, Note_on_c, 1, 74, 0
6, 312851, Note_on_c, 1, 71, 0
6, 312968, Note_on_c, 1, 71, 109
6, 312968, Note_on_c, 1, 74, 105
6, 313088, Note_on_c, 1, 71, 0
6, 313088, Note_on_c, 1, 74, 0
6, 313216, Note_on_c, 1, 72, 110
6, 313224, Note_on_c, 1, 76, 102
6, 313336, Note_on_c, 1, 72, 0
6, 313344, Note_on_c, 1, 76, 0
6, 313445, Note_on_c, 1, 77, 105
6, 313447, Note_on_c, 1, 74, 101
6, 313565, Note_on_c, 1, 77, 0
6, 313567, Note_on_c, 1, 74, 0
6, 313699, Note_on_c, 1, 76, 101
6, 313701, Note_on_c, 1, 79, 105
6, 313819, Note_on_c, 1, 76, 0
6, 313821, Note_on_c, 1, 79, 0
6, 320400, Control_c, 1, 11, 64
6, 320401, Note_on_c, 1, 69, 106
6, 320416, Note_on_c, 1, 75, 98
6, 320419, Note_on_c, 1, 72, 110
6, 320468, Control_c, 1, 11, 65
6, 320536, Control_c, 1, 11, 66
6, 320605, Control_c, 1, 11, 67
6, 320673, Control_c, 1, 11, 68
6, 320742, Control_c, 1, 11, 69
6, 320811, Control_c, 1, 11, 70
6, 320880, Control_c, 1, 11, 71
6, 320948, Control_c, 1, 11, 72
6, 321016, Control_c, 1, 11, 73
6, 321085, Control_c, 1, 11, 74
6, 321153, Control_c, 1, 11, 75
6, 321222, Control_c, 1, 11, 76
6, 321291, Control_c, 1, 11, 77
6, 321360, Control_c, 1, 11, 78
6, 321428, Control_c, 1, 11, 79
6, 321496, Control_c, 1, 11, 80
6, 321565, Control_c, 1, 11, 81
6, 321633, Control_c, 1, 11, 82
6, 321702, Control_c, 1, 11, 83
6, 321771, Control_c, 1, 11, 84
6, 321840, Control_c, 1, 11, 85
6, 321908, Control_c, 1, 11, 86
6, 321976, Control_c, 1, 11, 87
6, 322045, Control_c, 1, 11, 88
6, 322113, Control_c, 1, 11, 89
6, 322182, Control_c, 1, 11, 90
6, 322251, Control_c, 1, 11, 91
6, 322320, Control_c, 1, 11, 92
6, 322388, Control_c, 1, 11, 93
6, 322456, Control_c, 1, 11, 94
6, 322525, Control_c, 1, 11, 95
6, 322593, Control_c, 1, 11, 96
6, 322662, Control_c, 1, 11, 97
6, 322731, Control_c, 1, 11, 98
6, 322800, Control_c, 1, 11, 99
6, 322868, Control_c, 1, 11, 100
6, 322936, Control_c, 1, 11, 101
6, 323005, Control_c, 1, 11, 102
6, 323073, Control_c, 1, 11, 103
6, 323142, Control_c, 1, 11, 104
6, 323211, Control_c, 1, 11, 105
6, 323280, Control_c, 1, 11, 106
6, 323348, Control_c, 1, 11, 107
6, 323416, Control_c, 1, 11, 108
6, 323485, Control_c, 1, 11, 109
6, 323553, Control_c, 1, 11, 110
6, 323622, Control_c, 1, 11, 111
6, 323691, Control_c, 1, 11, 112
6, 323760, Control_c, 1, 11, 113
6, 323828, Control_c, 1, 11, 114
6, 323896, Control_c, 1, 11, 115
6, 323965, Control_c, 1, 11, 116
6, 324033, Control_c, 1, 11, 117
6, 324102, Control_c, 1, 11, 118
6, 324171, Control_c, 1, 11, 119
6, 324240, Control_c, 1, 11, 120
6, 324308, Control_c, 1, 11, 121
6, 324376, Control_c, 1, 11, 122
6, 324445, Control_c, 1, 11, 123
6, 324513, Control_c, 1, 11, 124
6, 324582, Control_c, 1, 11, 125
6, 324651, Control_c, 1, 11, 126
6, 324721, Note_on_c, 1, 69, 0
6, 324728, Note_on_c, 1, 80, 97
6, 324729, Note_on_c, 1, 85, 109
6, 324730, Note_on_c, 1, 84, 96
6, 324736, Note_on_c, 1, 75, 0
6, 324739, Note_on_c, 1, 72, 0
6, 324744, Note_on_c, 1, 85, 100
6, 324908, Note_on_c, 1, 80, 0
6, 324910, Note_on_c, 1, 84, 0
6, 324924, Note_on_c, 1, 85, 0
6, 324960, Note_on_c, 1, 80, 100
6, 324970, Note_on_c, 1, 84, 102
6, 324982, Note_on_c, 1, 85, 108
6, 325140, Note_on_c, 1, 80, 0
6, 325149, Note_on_c, 1, 85, 0
6, 325150, Note_on_c, 1, 84, 0
6, 325209, Note_on_c, 1, 84, 105
6, 325216, Note_on_c, 1, 85, 110
6, 325224, Note_on_c, 1, 80, 101
6, 325389, Note_on_c, 1, 84, 0
6, 325396, Note_on_c, 1, 85, 0
6, 325402, Note_on_c, 1, 85, 0
6, 325404, Note_on_c, 1, 80, 0
6, 325452, Note_on_c, 1, 82, 99
6, 325453, Note_on_c, 1, 77, 101
6, 325455, Note_on_c, 1, 81, 101
6, 325459, Note_on_c, 1, 82, 91
6, 325632, Note_on_c, 1, 82, 0
6, 325633, Note_on_c, 1, 77, 0
6, 325635, Note_on_c, 1, 81, 0
6, 325683, Note_on_c, 1, 77, 110
6, 325688, Note_on_c, 1, 82, 94
6, 325691, Note_on_c, 1, 81, 93
6, 325863, Note_on_c, 1, 77, 0
6, 325871, Note_on_c, 1, 81, 0
6, 325879, Note_on_c, 1, 82, 0
6, 325923, Note_on_c, 1, 82, 108
6, 325931, Note_on_c, 1, 77, 103
6, 325943, Note_on_c, 1, 81, 97
6, 326103, Note_on_c, 1, 82, 0
6, 326108, Note_on_c, 1, 82, 0
6, 326111, Note_on_c, 1, 77, 0
6, 326123, Note_on_c, 1, 81, 0
6, 326161, Note_on_c, 1, 78, 99
6, 326171, Note_on_c, 1, 79, 107
6, 326178, Note_on_c, 1, 79, 102
6, 326183, Note_on_c, 1, 74, 108
6, 326341, Note_on_c, 1, 78, 0
6, 326351, Note_on_c, 1, 79, 0
6, 326363, Note_on_c, 1, 74, 0
6, 326407, Note_on_c, 1, 74, 96
6, 326423, Note_on_c, 1, 78, 96
6, 326425, Note_on_c, 1, 79, 94
6, 326587, Note_on_c, 1, 74, 0
6, 326598, Note_on_c, 1, 79, 0
6, 326603, Note_on_c, 1, 78, 0
6, 326647, Note_on_c, 1, 74, 102
6, 326656, Note_on_c, 1, 78, 105
6, 326663, Note_on_c, 1, 79, 108
6, 326827, Note_on_c, 1, 74, 0
6, 326836, Note_on_c, 1, 78, 0
6, 326843, Note_on_c, 1, 79, 0
6, 326845, Note_on_c, 1, 79, 0
6, 326881, Note_on_c, 1, 76, 110
6, 326885, Note_on_c, 1, 71, 107
6, 326891, Note_on_c, 1, 75, 103
6, 326901, Note_on_c, 1, 76, 94
6, 327061, Note_on_c, 1, 76, 0
6, 327065, Note_on_c, 1, 71, 0
6, 327071, Note_on_c, 1, 75, 0
6, 327138, Note_on_c, 1, 76, 110
6, 327144, Note_on_c, 1, 71, 94
6, 327145, Note_on_c, 1, 75, 100
6, 327321, Note_on_c, 1, 76, 0
6, 327324, Note_on_c, 1, 71, 0
6, 327325, Note_on_c, 1, 75, 0
6, 327361, Note_on_c, 1, 75, 95
6, 327378, Note_on_c, 1, 76, 100
6, 327384, Note_on_c, 1, 71, 92
6, 327541, Note_on_c, 1, 75, 0
6, 327558, Note_on_c, 1, 76, 0
6, 327558, Note_on_c, 1, 76, 0
6, 327564, Note_on_c, 1, 71, 0
6, 327601, Note_on_c, 1, 82, 94
6, 327602, Note_on_c, 1, 82, 108
6, 327607, Note_on_c, 1, 81, 100
6, 327616, Note_on_c, 1, 77, 98
6, 327782, Note_on_c, 1, 82, 0
6, 327787, Note_on_c, 1, 81, 0
6, 327796, Note_on_c, 1, 77, 0
6, 327840, Note_on_c, 1, 82, 110
6, 327841, Note_on_c, 1, 77, 102
6, 327843, Note_on_c, 1, 81, 95
6, 328021, Note_on_c, 1, 82, 0
6, 328021, Note_on_c, 1, 77, 0
6, 328023, Note_on_c, 1, 81, 0
6, 328090, Note_on_c, 1, 77, 98
6, 328094, Note_on_c, 1, 82, 103
6, 328100, Note_on_c, 1, 81, 108
6, 328260, Note_on_c, 1, 82, 0
6, 328270, Note_on_c, 1, 77, 0
6, 328274, Note_on_c, 1, 82, 0
6, 328280, Note_on_c, 1, 81, 0
6, 328321, Note_on_c, 1, 74, 98
6, 328326, Note_on_c, 1, 80, 99
6, 328329, Note_on_c, 1, 77, 108
6, 328338, Note_on_c, 1, 80, 111
6, 328501, Note_on_c, 1, 74, 0
6, 328509, Note_on_c, 1, 77, 0
6, 328518, Note_on_c, 1, 80, 0
6, 328576, Note_on_c, 1, 77, 96
6, 328581, Note_on_c, 1, 74, 100
6, 328582, Note_on_c, 1, 80, 93
6, 328746, Note_on_c, 1, 80, 0
6, 328756, Note_on_c, 1, 77, 0
6, 328761, Note_on_c, 1, 74, 0
6, 328800, Note_on_c, 1, 77, 99
6, 328805, Note_on_c, 1, 80, 111
6, 328810, Note_on_c, 1, 74, 92
6, 328980, Note_on_c, 1, 77, 0
6, 328985, Note_on_c, 1, 80, 0
6, 328990, Note_on_c, 1, 74, 0
6, 329002, Note_on_c, 1, 80, 0
6, 329049, Note_on_c, 1, 76, 101
6, 329049, Note_on_c, 1, 76, 108
6, 329055, Note_on_c, 1, 75, 97
6, 329063, Note_on_c, 1, 71, 110
6, 329229, Note_on_c, 1, 76, 0
6, 329235, Note_on_c, 1, 75, 0
6, 329243, Note_on_c, 1, 71, 0
6, 329281, Note_on_c, 1, 76, 108
6, 329284, Note_on_c, 1, 71, 100
6, 329291, Note_on_c, 1, 75, 100
6, 329464, Note_on_c, 1, 71, 0
6, 329469, Note_on_c, 1, 76, 0
6, 329471, Note_on_c, 1, 75, 0
6, 329523, Note_on_c, 1, 71, 98
6, 329526, Note_on_c, 1, 75, 92
6, 329534, Note_on_c, 1, 76, 109
6, 329701, Note_on_c, 1, 76, 0
6, 329703, Note_on_c, 1, 71, 0
6, 329706, Note_on_c, 1, 75, 0
6, 329714, Note_on_c, 1, 76, 0
6, 329763, Note_on_c, 1, 72, 94
6, 329763, Note_on_c, 1, 73, 91
6, 329771, Note_on_c, 1, 73, 97
6, 329784, Note_on_c, 1, 68, 92
6, 329943, Note_on_c, 1, 72, 0
6, 329951, Note_on_c, 1, 73, 0
6, 329964, Note_on_c, 1, 68, 0
6, 330008, Note_on_c, 1, 72, 109
6, 330012, Note_on_c, 1, 68, 107
6, 330013, Note_on_c, 1, 73, 104
6, 330183, Note_on_c, 1, 73, 0
6, 330188, Note_on_c, 1, 72, 0
6, 330192, Note_on_c, 1, 68, 0
6, 330245, Note_on_c, 1, 73, 102
6, 330246, Note_on_c, 1, 68, 100
6, 330256, Note_on_c, 1, 72, 103
6, 330425, Note_on_c, 1, 73, 0
6, 330426, Note_on_c, 1, 68, 0
6, 330433, Note_on_c, 1, 73, 0
6, 330436, Note_on_c, 1, 72, 0
6, 330484, Note_on_c, 1, 70, 91
6, 330489, Note_on_c, 1, 70, 92
6, 330498, Note_on_c, 1, 69, 108
6, 330502, Note_on_c, 1, 65, 92
6, 330664, Note_on_c, 1, 70, 0
6, 330678, Note_on_c, 1, 69, 0
6, 330682, Note_on_c, 1, 65, 0
6, 330724, Note_on_c, 1, 65, 93
6, 330724, Note_on_c, 1, 70, 101
6, 330736, Note_on_c, 1, 69, 98
6, 330904, Note_on_c, 1, 65, 0
6, 330909, Note_on_c, 1, 70, 0
6, 330916, Note_on_c, 1, 69, 0
6, 330965, Note_on_c, 1, 65, 99
6, 330969, Note_on_c, 1, 69, 106
6, 330978, Note_on_c, 1, 70, 99
6, 331144, Note_on_c, 1, 70, 0
6, 331145, Note_on_c, 1, 65, 0
6, 331149, Note_on_c, 1, 69, 0
6, 331158, Note_on_c, 1, 70, 0
6, 339847, Note_on_c, 1, 80, 92
6, 339847, Note_on_c, 1, 84, 94
6, 339854, Note_on_c, 1, 72, 93
6, 339864, Note_on_c, 1, 77, 88
6, 339990, Note_on_c, 1, 80, 0
6, 339990, Note_on_c, 1, 84, 0
6, 339997, Note_on_c, 1, 72, 0
6, 340007, Note_on_c, 1, 77, 0
6, 346083, Note_on_c, 1, 72, 105
6, 346088, Note_on_c, 1, 77, 102
6, 346098, Note_on_c, 1, 80, 94
6, 346105, Note_on_c, 1, 84, 103
6, 346226, Note_on_c, 1, 72, 0
6, 346231, Note_on_c, 1, 77, 0
6, 346241, Note_on_c, 1, 80, 0
6, 346248, Note_on_c, 1, 84, 0
6, 348000, Note_on_c, 1, 80, 87
6, 348014, Note_on_c, 1, 88, 98
6, 348014, Note_on_c, 1, 76, 86
6, 348023, Note_on_c, 1, 77, 101
6, 348143, Note_on_c, 1, 80, 0
6, 348157, Note_on_c, 1, 88, 0
6, 348157, Note_on_c, 1, 76, 0
6, 348166, Note_on_c, 1, 77, 0
6, 348485, Note_on_c, 1, 77, 104
6, 348488, Note_on_c, 1, 80, 97
6, 348494, Note_on_c, 1, 84, 102
6, 348504, Note_on_c, 1, 72, 89
6, 348628, Note_on_c, 1, 77, 0
6, 348631, Note_on_c, 1, 80, 0
6, 348637, Note_on_c, 1, 84, 0
6, 348647, Note_on_c, 1, 72, 0
6, 352321, Note_on_c, 1, 84, 103
6, 352330, Note_on_c, 1, 80, 91
6, 352331, Note_on_c, 1, 77, 85
6, 352338, Note_on_c, 1, 72, 97
6, 352464, Note_on_c, 1, 84, 0
6, 352473, Note_on_c, 1, 80, 0
6, 352474, Note_on_c, 1, 77, 0
6, 352481, Note_on_c, 1, 72, 0
6, 354240, Note_on_c, 1, 76, 94
6, 354250, Note_on_c, 1, 88, 90
6, 354256, Note_on_c, 1, 80, 88
6, 354257, Note_on_c, 1, 77, 100
6, 354383, Note_on_c, 1, 76, 0
6, 354393, Note_on_c, 1, 88, 0
6, 354399, Note_on_c, 1, 80, 0
6, 354400, Note_on_c, 1, 77, 0
6, 355212, Note_on_c, 1, 80, 97
6, 355214, Note_on_c, 1, 76, 102
6, 355215, Note_on_c, 1, 77, 95
6, 355223, Note_on_c, 1, 88, 88
6, 355355, Note_on_c, 1, 80, 0
6, 355357, Note_on_c, 1, 76, 0
6, 355358, Note_on_c, 1, 77, 0
6, 355366, Note_on_c, 1, 88, 0
6, 357121, Note_on_c, 1, 76, 89
6, 357126, Note_on_c, 1, 88, 91
6, 357129, Note_on_c, 1, 80, 95
6, 357141, Note_on_c, 1, 77, 98
6, 357264, Note_on_c, 1, 76, 0
6, 357269, Note_on_c, 1, 88, 0
6, 357272, Note_on_c, 1, 80, 0
6, 357284, Note_on_c, 1, 77, 0
6, 358080, Note_on_c, 1, 77, 104
6, 358093, Note_on_c, 1, 80, 86
6, 358096, Note_on_c, 1, 88, 92
6, 358098, Note_on_c, 1, 76, 98
6, 358223, Note_on_c, 1, 77, 0
6, 358236, Note_on_c, 1, 80, 0
6, 358239, Note_on_c, 1, 88, 0
6, 358241, Note_on_c, 1, 76, 0
6, 384732, Note_on_c, 1, 77, 103
6, 384972, Note_on_c, 1, 77, 0
6, 384976, Note_on_c, 1, 79, 101
6, 385170, Note_on_c, 1, 79, 95
6, 385186, Note_on_c, 1, 79, 0
6, 385200, Note_on_c, 1, 79, 0
6, 385200, Note_on_c, 1, 82, 89
6, 385410, Note_on_c, 1, 82, 0
6, 385410, Note_on_c, 1, 82, 96
6, 385440, Note_on_c, 1, 80, 85
6, 385477, Note_on_c, 1, 82, 0
6, 385680, Note_on_c, 1, 80, 0
6, 385688, Note_on_c, 1, 79, 86
6, 385924, Note_on_c, 1, 77, 88
6, 385928, Note_on_c, 1, 79, 0
6, 386130, Note_on_c, 1, 73, 86
6, 386134, Note_on_c, 1, 77, 0
6, 386181, Note_on_c, 1, 75, 85
6, 386197, Note_on_c, 1, 73, 0
6, 386421, Note_on_c, 1, 75, 0
6, 390486, Note_on_c, 1, 77, 101
6, 390726, Note_on_c, 1, 77, 0
6, 390736, Note_on_c, 1, 79, 87
6, 390877, Note_on_c, 1, 79, 0
6, 390930, Note_on_c, 1, 79, 93
6, 390980, Note_on_c, 1, 82, 104
6, 390997, Note_on_c, 1, 79, 0
6, 391125, Note_on_c, 1, 82, 0
6, 391170, Note_on_c, 1, 82, 95
6, 391218, Note_on_c, 1, 80, 103
6, 391261, Note_on_c, 1, 82, 0
6, 391458, Note_on_c, 1, 80, 0
6, 391459, Note_on_c, 1, 79, 104
6, 391699, Note_on_c, 1, 79, 0
6, 391703, Note_on_c, 1, 77, 90
6, 391890, Note_on_c, 1, 73, 98
6, 391913, Note_on_c, 1, 77, 0
6, 391942, Note_on_c, 1, 75, 105
6, 391957, Note_on_c, 1, 73, 0
6, 392164, Note_on_c, 1, 77, 90
6, 392182, Note_on_c, 1, 75, 0
6, 392404, Note_on_c, 1, 77, 0
6, 392425, Note_on_c, 1, 79, 105
6, 392610, Note_on_c, 1, 82, 96
6, 392635, Note_on_c, 1, 79, 0
6, 392662, Note_on_c, 1, 80, 85
6, 392677, Note_on_c, 1, 82, 0
6, 392896, Note_on_c, 1, 79, 89
6, 392902, Note_on_c, 1, 80, 0
6, 393136, Note_on_c, 1, 79, 0
6, 393139, Note_on_c, 1, 77, 89
6, 393330, Note_on_c, 1, 73, 97
6, 393349, Note_on_c, 1, 77, 0
6, 393382, Note_on_c, 1, 75, 91
6, 393397, Note_on_c, 1, 73, 0
6, 393612, Note_on_c, 1, 77, 98
6, 393622, Note_on_c, 1, 75, 0
6, 393852, Note_on_c, 1, 77, 0
6, 419783, Note_on_c, 1, 77, 79
6, 420022, Note_on_c, 1, 79, 84
6, 420023, Note_on_c, 1, 77, 0
6, 420190, Note_on_c, 1, 79, 0
6, 420210, Note_on_c, 1, 79, 82
6, 420242, Note_on_c, 1, 82, 66
6, 420255, Note_on_c, 1, 79, 0
6, 420410, Note_on_c, 1, 82, 0
6, 420450, Note_on_c, 1, 82, 66
6, 420481, Note_on_c, 1, 80, 84
6, 420495, Note_on_c, 1, 82, 0
6, 420721, Note_on_c, 1, 80, 0
6, 420740, Note_on_c, 1, 79, 77
6, 420960, Note_on_c, 1, 77, 78
6, 420980, Note_on_c, 1, 79, 0
6, 421170, Note_on_c, 1, 77, 0
6, 421170, Note_on_c, 1, 73, 79
6, 421201, Note_on_c, 1, 75, 80
6, 421215, Note_on_c, 1, 73, 0
6, 421441, Note_on_c, 1, 75, 0
6, 421460, Note_on_c, 1, 77, 81
6, 421700, Note_on_c, 1, 77, 0
6, 423613, Note_on_c, 1, 77, 83
6, 423840, Note_on_c, 1, 79, 81
6, 423853, Note_on_c, 1, 77, 0
6, 424029, Note_on_c, 1, 79, 0
6, 424050, Note_on_c, 1, 79, 79
6, 424082, Note_on_c, 1, 82, 69
6, 424110, Note_on_c, 1, 79, 0
6, 424271, Note_on_c, 1, 82, 0
6, 424290, Note_on_c, 1, 82, 83
6, 424335, Note_on_c, 1, 80, 66
6, 424350, Note_on_c, 1, 82, 0
6, 424565, Note_on_c, 1, 79, 83
6, 424575, Note_on_c, 1, 80, 0
6, 424800, Note_on_c, 1, 77, 69
6, 424805, Note_on_c, 1, 79, 0
6, 425010, Note_on_c, 1, 77, 0
6, 425010, Note_on_c, 1, 73, 76
6, 425047, Note_on_c, 1, 75, 73
6, 425070, Note_on_c, 1, 73, 0
6, 425287, Note_on_c, 1, 75, 0
6, 425296, Note_on_c, 1, 77, 80
6, 425520, Note_on_c, 1, 79, 83
6, 425536, Note_on_c, 1, 77, 0
6, 425730, Note_on_c, 1, 79, 0
6, 425730, Note_on_c, 1, 82, 75
6, 425784, Note_on_c, 1, 80, 67
6, 425790, Note_on_c, 1, 82, 0
6, 426018, Note_on_c, 1, 79, 79
6, 426024, Note_on_c, 1, 80, 0
6, 426257, Note_on_c, 1, 77, 73
6, 426258, Note_on_c, 1, 79, 0
6, 426450, Note_on_c, 1, 73, 82
6, 426467, Note_on_c, 1, 77, 0
6, 426505, Note_on_c, 1, 75, 81
6, 426510, Note_on_c, 1, 73, 0
6, 426745, Note_on_c, 1, 75, 0
6, 427207, Note_on_c, 1, 77, 97
6, 427210, Note_on_c, 1, 74, 92
6, 427212, Note_on_c, 1, 71, 98
6, 427222, Note_on_c, 1, 82, 96
6, 427567, Note_on_c, 1, 77, 0
6, 427570, Note_on_c, 1, 74, 0
6, 427572, Note_on_c, 1, 71, 0
6, 427582, Note_on_c, 1, 82, 0
6, 427682, Note_on_c, 1, 77, 103
6, 427685, Note_on_c, 1, 71, 110
6, 427688, Note_on_c, 1, 82, 96
6, 427688, Note_on_c, 1, 74, 110
6, 428042, Note_on_c, 1, 77, 0
6, 428045, Note_on_c, 1, 71, 0
6, 428048, Note_on_c, 1, 82, 0
6, 428048, Note_on_c, 1, 74, 0
6, 428160, Note_on_c, 1, 82, 95
6, 428165, Note_on_c, 1, 77, 91
6, 428183, Note_on_c, 1, 71, 98
6, 428183, Note_on_c, 1, 74, 95
6, 428520, Note_on_c, 1, 82, 0
6, 428525, Note_on_c, 1, 77, 0
6, 428543, Note_on_c, 1, 71, 0
6, 428543, Note_on_c, 1, 74, 0
6, 428653, Note_on_c, 1, 81, 94
6, 428658, Note_on_c, 1, 73, 104
6, 428661, Note_on_c, 1, 70, 97
6, 428661, Note_on_c, 1, 76, 92
6, 429013, Note_on_c, 1, 81, 0
6, 429021, Note_on_c, 1, 76, 0
6, 429042, Note_on_c, 1, 73, 0
6, 429045, Note_on_c, 1, 70, 0
6, 429127, Note_on_c, 1, 76, 106
6, 429129, Note_on_c, 1, 81, 109
6, 429129, Note_on_c, 1, 73, 99
6, 429139, Note_on_c, 1, 70, 97
6, 429487, Note_on_c, 1, 76, 0
6, 429489, Note_on_c, 1, 81, 0
6, 429513, Note_on_c, 1, 73, 0
6, 429523, Note_on_c, 1, 70, 0
6, 429605, Note_on_c, 1, 81, 107
6, 429613, Note_on_c, 1, 76, 105
6, 429616, Note_on_c, 1, 70, 101
6, 429616, Note_on_c, 1, 73, 95
6, 429965, Note_on_c, 1, 81, 0
6, 429973, Note_on_c, 1, 76, 0
6, 430000, Note_on_c, 1, 70, 0
6, 430000, Note_on_c, 1, 73, 0
6, 430088, Note_on_c, 1, 81, 96
6, 430101, Note_on_c, 1, 70, 105
6, 430103, Note_on_c, 1, 73, 110
6, 430105, Note_on_c, 1, 76, 106
6, 430448, Note_on_c, 1, 81, 0
6, 430465, Note_on_c, 1, 76, 0
6, 430485, Note_on_c, 1, 70, 0
6, 430487, Note_on_c, 1, 73, 0
6, 430562, Note_on_c, 1, 82, 99
6, 430577, Note_on_c, 1, 77, 100
6, 430581, Note_on_c, 1, 74, 97
6, 430582, Note_on_c, 1, 71, 101
6, 430922, Note_on_c, 1, 82, 0
6, 430937, Note_on_c, 1, 77, 0
6, 430941, Note_on_c, 1, 74, 0
6, 430942, Note_on_c, 1, 71, 0
6, 431043, Note_on_c, 1, 77, 103
6, 431051, Note_on_c, 1, 71, 94
6, 431057, Note_on_c, 1, 74, 103
6, 431064, Note_on_c, 1, 82, 100
6, 431403, Note_on_c, 1, 77, 0
6, 431411, Note_on_c, 1, 71, 0
6, 431417, Note_on_c, 1, 74, 0
6, 431424, Note_on_c, 1, 82, 0
6, 431525, Note_on_c, 1, 80, 106
6, 431526, Note_on_c, 1, 75, 91
6, 431535, Note_on_c, 1, 72, 95
6, 431536, Note_on_c, 1, 69, 91
6, 432005, Note_on_c, 1, 80, 0
6, 432006, Note_on_c, 1, 75, 0
6, 432006, Note_on_c, 1, 73, 101
6, 432012, Note_on_c, 1, 70, 107
6, 432015, Note_on_c, 1, 72, 0
6, 432016, Note_on_c, 1, 69, 0
6, 432021, Note_on_c, 1, 67, 92
6, 432023, Note_on_c, 1, 78, 106
6, 432480, Note_on_c, 1, 74, 106
6, 432484, Note_on_c, 1, 71, 101
6, 432486, Note_on_c, 1, 73, 0
6, 432492, Note_on_c, 1, 70, 0
6, 432496, Note_on_c, 1, 82, 111
6, 432498, Note_on_c, 1, 77, 91
6, 432501, Note_on_c, 1, 67, 0
6, 432503, Note_on_c, 1, 78, 0
6, 432840, Note_on_c, 1, 74, 0
6, 432844, Note_on_c, 1, 71, 0
6, 432856, Note_on_c, 1, 82, 0
6, 432858, Note_on_c, 1, 77, 0
6, 432963, Note_on_c, 1, 72, 104
6, 432970, Note_on_c, 1, 75, 104
6, 432975, Note_on_c, 1, 69, 93
6, 432983, Note_on_c, 1, 80, 91
6, 433323, Note_on_c, 1, 72, 0
6, 433330, Note_on_c, 1, 75, 0
6, 433335, Note_on_c, 1, 69, 0
6, 433343, Note_on_c, 1, 80, 0
6, 433451, Note_on_c, 1, 78, 102
6, 433454, Note_on_c, 1, 70, 109
6, 433459, Note_on_c, 1, 73, 108
6, 433465, Note_on_c, 1, 67, 109
6, 433811, Note_on_c, 1, 78, 0
6, 433814, Note_on_c, 1, 70, 0
6, 433819, Note_on_c, 1, 73, 0
6, 433825, Note_on_c, 1, 67, 0
6, 433927, Note_on_c, 1, 65, 110
6, 433938, Note_on_c, 1, 71, 109
6, 433942, Note_on_c, 1, 68, 100
6, 433944, Note_on_c, 1, 76, 97
6, 434406, Note_on_c, 1, 66, 91
6, 434407, Note_on_c, 1, 65, 0
6, 434411, Note_on_c, 1, 78, 103
6, 434416, Note_on_c, 1, 73, 93
6, 434417, Note_on_c, 1, 70, 104
6, 434418, Note_on_c, 1, 71, 0
6, 434422, Note_on_c, 1, 68, 0
6, 434424, Note_on_c, 1, 76, 0
6, 434642, Note_on_c, 1, 68, 96
6, 434646, Note_on_c, 1, 66, 0
6, 434651, Note_on_c, 1, 78, 0
6, 434653, Note_on_c, 1, 71, 101
6, 434656, Note_on_c, 1, 73, 0
6, 434657, Note_on_c, 1, 70, 0
6, 434664, Note_on_c, 1, 76, 100
6, 434664, Note_on_c, 1, 64, 96
6, 434882, Note_on_c, 1, 68, 0
6, 434893, Note_on_c, 1, 71, 0
6, 434904, Note_on_c, 1, 76, 0
6, 434904, Note_on_c, 1, 64, 0
6, 435366, Note_on_c, 1, 73, 103
6, 435369, Note_on_c, 1, 67, 92
6, 435371, Note_on_c, 1, 70, 111
6, 435372, Note_on_c, 1, 78, 107
6, 435726, Note_on_c, 1, 73, 0
6, 435729, Note_on_c, 1, 67, 0
6, 435731, Note_on_c, 1, 70, 0
6, 435732, Note_on_c, 1, 78, 0
6, 435844, Note_on_c, 1, 67, 94
6, 435848, Note_on_c, 1, 73, 106
6, 435848, Note_on_c, 1, 70, 105
6, 435850, Note_on_c, 1, 78, 107
6, 436204, Note_on_c, 1, 67, 0
6, 436208, Note_on_c, 1, 73, 0
6, 436208, Note_on_c, 1, 70, 0
6, 436210, Note_on_c, 1, 78, 0
6, 436330, Note_on_c, 1, 67, 108
6, 436334, Note_on_c, 1, 70, 103
6, 436334, Note_on_c, 1, 78, 109
6, 436335, Note_on_c, 1, 73, 93
6, 436690, Note_on_c, 1, 67, 0
6, 436694, Note_on_c, 1, 70, 0
6, 436694, Note_on_c, 1, 78, 0
6, 436695, Note_on_c, 1, 73, 0
6, 436820, Note_on_c, 1, 67, 115
6, 436821, Note_on_c, 1, 70, 108
6, 436823, Note_on_c, 1, 73, 109
6, 436825, Note_on_c, 1, 78, 97
6, 437180, Note_on_c, 1, 67, 0
6, 437181, Note_on_c, 1, 70, 0
6, 437183, Note_on_c, 1, 73, 0
6, 437185, Note_on_c, 1, 78, 0
6, 437280, Note_on_c, 1, 78, 114
6, 437283, Note_on_c, 1, 73, 105
6, 437286, Note_on_c, 1, 70, 99
6, 437287, Note_on_c, 1, 67, 102
6, 437640, Note_on_c, 1, 78, 0
6, 437643, Note_on_c, 1, 73, 0
6, 437646, Note_on_c, 1, 70, 0
6, 437647, Note_on_c, 1, 67, 0
6, 437764, Note_on_c, 1, 67, 96
6, 437776, Note_on_c, 1, 73, 113
6, 437777, Note_on_c, 1, 78, 111
6, 437785, Note_on_c, 1, 70, 108
6, 438124, Note_on_c, 1, 67, 0
6, 438136, Note_on_c, 1, 73, 0
6, 438137, Note_on_c, 1, 78, 0
6, 438145, Note_on_c, 1, 70, 0
6, 438721, Note_on_c, 1, 71, 108
6, 438728, Note_on_c, 1, 82, 106
6, 438730, Note_on_c, 1, 77, 124
6, 438730, Note_on_c, 1, 74, 110
6, 439081, Note_on_c, 1, 71, 0
6, 439088, Note_on_c, 1, 82, 0
6, 439090, Note_on_c, 1, 77, 0
6, 439090, Note_on_c, 1, 74, 0
6, 439206, Note_on_c, 1, 74, 115
6, 439206, Note_on_c, 1, 71, 120
6, 439214, Note_on_c, 1, 82, 112
6, 439225, Note_on_c, 1, 77, 115
6, 439566, Note_on_c, 1, 74, 0
6, 439566, Note_on_c, 1, 71, 0
6, 439574, Note_on_c, 1, 82, 0
6, 439585, Note_on_c, 1, 77, 0
6, 439687, Note_on_c, 1, 82, 108
6, 439691, Note_on_c, 1, 71, 107
6, 439699, Note_on_c, 1, 77, 110
6, 439701, Note_on_c, 1, 74, 120
6, 440047, Note_on_c, 1, 82, 0
6, 440051, Note_on_c, 1, 71, 0
6, 440059, Note_on_c, 1, 77, 0
6, 440061, Note_on_c, 1, 74, 0
6, 440165, Note_on_c, 1, 82, 109
6, 440172, Note_on_c, 1, 74, 113
6, 440182, Note_on_c, 1, 77, 108
6, 440184, Note_on_c, 1, 71, 120
6, 440640, Note_on_c, 1, 81, 124
6, 440645, Note_on_c, 1, 82, 0
6, 440649, Note_on_c, 1, 76, 107
6, 440652, Note_on_c, 1, 74, 0
6, 440653, Note_on_c, 1, 73, 106
6, 440655, Note_on_c, 1, 70, 114
6, 440662, Note_on_c, 1, 77, 0
6, 440664, Note_on_c, 1, 71, 0
6, 441120, Note_on_c, 1, 81, 0
6, 441129, Note_on_c, 1, 76, 0
6, 441130, Note_on_c, 1, 69, 114
6, 441133, Note_on_c, 1, 73, 0
6, 441133, Note_on_c, 1, 75, 120
6, 441133, Note_on_c, 1, 72, 111
6, 441135, Note_on_c, 1, 70, 0
6, 441137, Note_on_c, 1, 80, 107
6, 441609, Note_on_c, 1, 73, 115
6, 441610, Note_on_c, 1, 69, 0
6, 441613, Note_on_c, 1, 75, 0
6, 441613, Note_on_c, 1, 72, 0
6, 441617, Note_on_c, 1, 80, 0
6, 441617, Note_on_c, 1, 70, 112
6, 441619, Note_on_c, 1, 81, 104
6, 441622, Note_on_c, 1, 76, 122
6, 441843, Note_on_c, 1, 80, 112
6, 441849, Note_on_c, 1, 73, 0
6, 441851, Note_on_c, 1, 72, 107
6, 441857, Note_on_c, 1, 70, 0
6, 441859, Note_on_c, 1, 81, 0
6, 441862, Note_on_c, 1, 76, 0
6, 441864, Note_on_c, 1, 69, 115
6, 441865, Note_on_c, 1, 75, 122
6, 442080, Note_on_c, 1, 75, 0
6, 442083, Note_on_c, 1, 80, 0
6, 442091, Note_on_c, 1, 72, 0
6, 442092, Note_on_c, 1, 75, 111
6, 442095, Note_on_c, 1, 83, 114
6, 442100, Note_on_c, 1, 78, 105
6, 442101, Note_on_c, 1, 72, 111
6, 442104, Note_on_c, 1, 69, 0
6, 442452, Note_on_c, 1, 75, 0
6, 442455, Note_on_c, 1, 83, 0
6, 442460, Note_on_c, 1, 78, 0
6, 442461, Note_on_c, 1, 72, 0
6, 442566, Note_on_c, 1, 81, 105
6, 442567, Note_on_c, 1, 70, 114
6, 442571, Note_on_c, 1, 76, 107
6, 442576, Note_on_c, 1, 73, 115
6, 442926, Note_on_c, 1, 81, 0
6, 442927, Note_on_c, 1, 70, 0
6, 442931, Note_on_c, 1, 76, 0
6, 442936, Note_on_c, 1, 73, 0
6, 443043, Note_on_c, 1, 72, 111
6, 443044, Note_on_c, 1, 69, 120
6, 443052, Note_on_c, 1, 75, 109
6, 443061, Note_on_c, 1, 80, 106
6, 443403, Note_on_c, 1, 72, 0
6, 443404, Note_on_c, 1, 69, 0
6, 443412, Note_on_c, 1, 75, 0
6, 443421, Note_on_c, 1, 80, 0
6, 443525, Note_on_c, 1, 75, 115
6, 443541, Note_on_c, 1, 72, 110
6, 443541, Note_on_c, 1, 83, 117
6, 443542, Note_on_c, 1, 78, 107
6, 444002, Note_on_c, 1, 76, 111
6, 444005, Note_on_c, 1, 75, 0
6, 444016, Note_on_c, 1, 73, 105
6, 444019, Note_on_c, 1, 81, 123
6, 444021, Note_on_c, 1, 72, 0
6, 444021, Note_on_c, 1, 83, 0
6, 444022, Note_on_c, 1, 78, 0
6, 444023, Note_on_c, 1, 70, 119
6, 444482, Note_on_c, 1, 76, 0
6, 444484, Note_on_c, 1, 72, 107
6, 444484, Note_on_c, 1, 69, 119
6, 444488, Note_on_c, 1, 80, 106
6, 444496, Note_on_c, 1, 73, 0
6, 444499, Note_on_c, 1, 81, 0
6, 444501, Note_on_c, 1, 75, 117
6, 444503, Note_on_c, 1, 70, 0
6, 444962, Note_on_c, 1, 81, 118
6, 444962, Note_on_c, 1, 73, 104
6, 444964, Note_on_c, 1, 72, 0
6, 444964, Note_on_c, 1, 69, 0
6, 444968, Note_on_c, 1, 80, 0
6, 444973, Note_on_c, 1, 76, 107
6, 444973, Note_on_c, 1, 70, 105
6, 444981, Note_on_c, 1, 75, 0
6, 445202, Note_on_c, 1, 81, 0
6, 445202, Note_on_c, 1, 73, 0
6, 445209, Note_on_c, 1, 80, 112
6, 445210, Note_on_c, 1, 72, 109
6, 445213, Note_on_c, 1, 76, 0
6, 445213, Note_on_c, 1, 70, 0
6, 445213, Note_on_c, 1, 69, 120
6, 445219, Note_on_c, 1, 75, 119
6, 445449, Note_on_c, 1, 80, 0
6, 445450, Note_on_c, 1, 72, 0
6, 445450, Note_on_c, 1, 67, 117
6, 445451, Note_on_c, 1, 73, 121
6, 445452, Note_on_c, 1, 78, 118
6, 445453, Note_on_c, 1, 69, 0
6, 445459, Note_on_c, 1, 75, 0
6, 445461, Note_on_c, 1, 70, 123
6, 445810, Note_on_c, 1, 67, 0
6, 445811, Note_on_c, 1, 73, 0
6, 445812, Note_on_c, 1, 78, 0
6, 445821, Note_on_c, 1, 70, 0
6, 445925, Note_on_c, 1, 71, 122
6, 445926, Note_on_c, 1, 76, 117
6, 445935, Note_on_c, 1, 65, 124
6, 445941, Note_on_c, 1, 68, 113
6, 446285, Note_on_c, 1, 71, 0
6, 446286, Note_on_c, 1, 76, 0
6, 446295, Note_on_c, 1, 65, 0
6, 446301, Note_on_c, 1, 68, 0
6, 446410, Note_on_c, 1, 64, 122
6, 446421, Note_on_c, 1, 67, 119
6, 446422, Note_on_c, 1, 72, 124
6, 446425, Note_on_c, 1, 61, 110
6, 447370, Note_on_c, 1, 64, 0
6, 447381, Note_on_c, 1, 67, 0
6, 447382, Note_on_c, 1, 72, 0
6, 447385, Note_on_c, 1, 61, 0
6, 448805, Note_on_c, 1, 75, 102
6, 448814, Note_on_c, 1, 84, 110
6, 448817, Note_on_c, 1, 88, 101
6, 448817, Note_on_c, 1, 79, 101
6, 448948, Note_on_c, 1, 75, 0
6, 448957, Note_on_c, 1, 84, 0
6, 448960, Note_on_c, 1, 88, 0
6, 448960, Note_on_c, 1, 79, 0
6, 449280, Note_on_c, 1, 67, 97
6, 449289, Note_on_c, 1, 79, 85
6, 449358, Note_on_c, 1, 68, 87
6, 449373, Note_on_c, 1, 80, 97
6, 449395, Note_on_c, 1, 67, 0
6, 449404, Note_on_c, 1, 79, 0
6, 449435, Note_on_c, 1, 67, 84
6, 449459, Note_on_c, 1, 79, 94
6, 449473, Note_on_c, 1, 68, 0
6, 449488, Note_on_c, 1, 80, 0
6, 449525, Note_on_c, 1, 80, 89
6, 449538, Note_on_c, 1, 68, 95
6, 449550, Note_on_c, 1, 67, 0
6, 449574, Note_on_c, 1, 79, 0
6, 449606, Note_on_c, 1, 67, 85
6, 449610, Note_on_c, 1, 79, 90
6, 449640, Note_on_c, 1, 80, 0
6, 449653, Note_on_c, 1, 68, 0
6, 449673, Note_on_c, 1, 68, 86
6, 449677, Note_on_c, 1, 80, 98
6, 449721, Note_on_c, 1, 67, 0
6, 449725, Note_on_c, 1, 79, 0
6, 449764, Note_on_c, 1, 67, 95
6, 449765, Note_on_c, 1, 79, 96
6, 449788, Note_on_c, 1, 68, 0
6, 449792, Note_on_c, 1, 80, 0
6, 449826, Note_on_c, 1, 68, 95
6, 449840, Note_on_c, 1, 80, 97
6, 449879, Note_on_c, 1, 67, 0
6, 449880, Note_on_c, 1, 79, 0
6, 449904, Note_on_c, 1, 79, 95
6, 449909, Note_on_c, 1, 67, 90
6, 449941, Note_on_c, 1, 68, 0
6, 449955, Note_on_c, 1, 80, 0
6, 449996, Note_on_c, 1, 80, 85
6, 450005, Note_on_c, 1, 68, 94
6, 450019, Note_on_c, 1, 79, 0
6, 450024, Note_on_c, 1, 67, 0
6, 450060, Note_on_c, 1, 79, 93
6, 450069, Note_on_c, 1, 67, 87
6, 450111, Note_on_c, 1, 80, 0
6, 450120, Note_on_c, 1, 68, 0
6, 450144, Note_on_c, 1, 80, 80
6, 450145, Note_on_c, 1, 68, 78
6, 450175, Note_on_c, 1, 79, 0
6, 450184, Note_on_c, 1, 67, 0
6, 450215, Note_on_c, 1, 67, 85
6, 450225, Note_on_c, 1, 79, 78
6, 450259, Note_on_c, 1, 80, 0
6, 450260, Note_on_c, 1, 68, 0
6, 450294, Note_on_c, 1, 68, 82
6, 450301, Note_on_c, 1, 80, 92
6, 450330, Note_on_c, 1, 67, 0
6, 450340, Note_on_c, 1, 79, 0
6, 450387, Note_on_c, 1, 79, 86
6, 450387, Note_on_c, 1, 67, 78
6, 450409, Note_on_c, 1, 68, 0
6, 450416, Note_on_c, 1, 80, 0
6, 450448, Note_on_c, 1, 80, 98
6, 450448, Note_on_c, 1, 68, 82
6, 450502, Note_on_c, 1, 79, 0
6, 450502, Note_on_c, 1, 67, 0
6, 450535, Note_on_c, 1, 67, 82
6, 450545, Note_on_c, 1, 79, 87
6, 450563, Note_on_c, 1, 80, 0
6, 450563, Note_on_c, 1, 68, 0
6, 450610, Note_on_c, 1, 80, 81
6, 450618, Note_on_c, 1, 68, 79
6, 450650, Note_on_c, 1, 67, 0
6, 450660, Note_on_c, 1, 79, 0
6, 450680, Note_on_c, 1, 79, 95
6, 450680, Note_on_c, 1, 67, 98
6, 450715, Note_on_c, 1, 79, 0
6, 450715, Note_on_c, 1, 67, 0
6, 450725, Note_on_c, 1, 80, 0
6, 450730, Note_on_c, 1, 79, 94
6, 450733, Note_on_c, 1, 68, 0
6, 450745, Note_on_c, 1, 67, 85
6, 450825, Note_on_c, 1, 79, 0
6, 450840, Note_on_c, 1, 67, 0
6, 451213, Note_on_c, 1, 67, 81
6, 451220, Note_on_c, 1, 79, 93
6, 451296, Note_on_c, 1, 80, 85
6, 451300, Note_on_c, 1, 68, 89
6, 451325, Note_on_c, 1, 67, 0
6, 451332, Note_on_c, 1, 79, 0
6, 451350, Note_on_c, 1, 67, 80
6, 451366, Note_on_c, 1, 79, 89
6, 451408, Note_on_c, 1, 80, 0
6, 451412, Note_on_c, 1, 68, 0
6, 451441, Note_on_c, 1, 80, 93
6, 451445, Note_on_c, 1, 68, 93
6, 451462, Note_on_c, 1, 67, 0
6, 451478, Note_on_c, 1, 79, 0
6, 451504, Note_on_c, 1, 79, 96
6, 451524, Note_on_c, 1, 67, 93
6, 451553, Note_on_c, 1, 80, 0
6, 451557, Note_on_c, 1, 68, 0
6, 451592, Note_on_c, 1, 80, 95
6, 451601, Note_on_c, 1, 68, 96
6, 451616, Note_on_c, 1, 79, 0
6, 451636, Note_on_c, 1, 67, 0
6, 451657, Note_on_c, 1, 79, 85
6, 451672, Note_on_c, 1, 67, 97
6, 451704, Note_on_c, 1, 80, 0
6, 451713, Note_on_c, 1, 68, 0
6, 451729, Note_on_c, 1, 68, 84
6, 451741, Note_on_c, 1, 80, 88
6, 451769, Note_on_c, 1, 79, 0
6, 451784, Note_on_c, 1, 67, 0
6, 451818, Note_on_c, 1, 79, 89
6, 451824, Note_on_c, 1, 67, 82
6, 451841, Note_on_c, 1, 68, 0
6, 451853, Note_on_c, 1, 80, 0
6, 451884, Note_on_c, 1, 80, 87
6, 451886, Note_on_c, 1, 68, 85
6, 451930, Note_on_c, 1, 79, 0
6, 451936, Note_on_c, 1, 67, 0
6, 451966, Note_on_c, 1, 79, 84
6, 451976, Note_on_c, 1, 67, 87
6, 451996, Note_on_c, 1, 80, 0
6, 451998, Note_on_c, 1, 68, 0
6, 452032, Note_on_c, 1, 80, 82
6, 452049, Note_on_c, 1, 68, 91
6, 452078, Note_on_c, 1, 79, 0
6, 452088, Note_on_c, 1, 67, 0
6, 452108, Note_on_c, 1, 67, 79
6, 452117, Note_on_c, 1, 79, 91
6, 452144, Note_on_c, 1, 80, 0
6, 452161, Note_on_c, 1, 68, 0
6, 452196, Note_on_c, 1, 80, 84
6, 452196, Note_on_c, 1, 68, 86
6, 452220, Note_on_c, 1, 67, 0
6, 452229, Note_on_c, 1, 79, 0
6, 452256, Note_on_c, 1, 67, 79
6, 452275, Note_on_c, 1, 79, 96
6, 452308, Note_on_c, 1, 80, 0
6, 452308, Note_on_c, 1, 68, 0
6, 452339, Note_on_c, 1, 68, 83
6, 452346, Note_on_c, 1, 80, 90
6, 452368, Note_on_c, 1, 67, 0
6, 452387, Note_on_c, 1, 79, 0
6, 452407, Note_on_c, 1, 79, 97
6, 452409, Note_on_c, 1, 67, 92
6, 452451, Note_on_c, 1, 68, 0
6, 452458, Note_on_c, 1, 80, 0
6, 452486, Note_on_c, 1, 68, 96
6, 452500, Note_on_c, 1, 80, 94
6, 452519, Note_on_c, 1, 79, 0
6, 452521, Note_on_c, 1, 67, 0
6, 452567, Note_on_c, 1, 67, 97
6, 452579, Note_on_c, 1, 79, 93
6, 452598, Note_on_c, 1, 68, 0
6, 452612, Note_on_c, 1, 80, 0
6, 452640, Note_on_c, 1, 79, 0
6, 452642, Note_on_c, 1, 67, 0
6, 452651, Note_on_c, 1, 79, 87
6, 452657, Note_on_c, 1, 67, 82
6, 452746, Note_on_c, 1, 79, 0
6, 452752, Note_on_c, 1, 67, 0
6, 453145, Note_on_c, 1, 67, 90
6, 453200, Note_on_c, 1, 68, 82
6, 453257, Note_on_c, 1, 67, 0
6, 453285, Note_on_c, 1, 67, 78
6, 453312, Note_on_c, 1, 68, 0
6, 453356, Note_on_c, 1, 68, 92
6, 453397, Note_on_c, 1, 67, 0
6, 453424, Note_on_c, 1, 67, 78
6, 453468, Note_on_c, 1, 68, 0
6, 453516, Note_on_c, 1, 68, 95
6, 453536, Note_on_c, 1, 67, 0
6, 453586, Note_on_c, 1, 67, 81
6, 453628, Note_on_c, 1, 68, 0
6, 453658, Note_on_c, 1, 68, 90
6, 453698, Note_on_c, 1, 67, 0
6, 453720, Note_on_c, 1, 72, 89
6, 453735, Note_on_c, 1, 67, 84
6, 453750, Note_on_c, 1, 72, 0
6, 453750, Note_on_c, 1, 74, 94
6, 453770, Note_on_c, 1, 68, 0
6, 453780, Note_on_c, 1, 74, 0
6, 453780, Note_on_c, 1, 75, 90
6, 453806, Note_on_c, 1, 68, 92
6, 453810, Note_on_c, 1, 75, 0
6, 453810, Note_on_c, 1, 77, 84
6, 453840, Note_on_c, 1, 77, 0
6, 453847, Note_on_c, 1, 67, 0
6, 453855, Note_on_c, 1, 79, 81
6, 453897, Note_on_c, 1, 67, 86
6, 453918, Note_on_c, 1, 68, 0
6, 453939, Note_on_c, 1, 80, 86
6, 453959, Note_on_c, 1, 68, 95
6, 453973, Note_on_c, 1, 79, 0
6, 454007, Note_on_c, 1, 79, 81
6, 454009, Note_on_c, 1, 67, 0
6, 454048, Note_on_c, 1, 67, 83
6, 454057, Note_on_c, 1, 80, 0
6, 454071, Note_on_c, 1, 68, 0
6, 454078, Note_on_c, 1, 80, 82
6, 454125, Note_on_c, 1, 79, 0
6, 454125, Note_on_c, 1, 68, 88
6, 454160, Note_on_c, 1, 67, 0
6, 454170, Note_on_c, 1, 79, 95
6, 454182, Note_on_c, 1, 67, 85
6, 454196, Note_on_c, 1, 80, 0
6, 454237, Note_on_c, 1, 68, 0
6, 454241, Note_on_c, 1, 80, 91
6, 454262, Note_on_c, 1, 68, 97
6, 454288, Note_on_c, 1, 79, 0
6, 454294, Note_on_c, 1, 67, 0
6, 454332, Note_on_c, 1, 67, 89
6, 454343, Note_on_c, 1, 79, 82
6, 454359, Note_on_c, 1, 80, 0
6, 454374, Note_on_c, 1, 68, 0
6, 454410, Note_on_c, 1, 68, 87
6, 454411, Note_on_c, 1, 80, 96
6, 454444, Note_on_c, 1, 67, 0
6, 454461, Note_on_c, 1, 79, 0
6, 454481, Note_on_c, 1, 67, 94
6, 454496, Note_on_c, 1, 79, 90
6, 454522, Note_on_c, 1, 68, 0
6, 454529, Note_on_c, 1, 80, 0
6, 454556, Note_on_c, 1, 67, 0
6, 454556, Note_on_c, 1, 80, 91
6, 454560, Note_on_c, 1, 79, 0
6, 454575, Note_on_c, 1, 79, 85
6, 454584, Note_on_c, 1, 67, 89
6, 454609, Note_on_c, 1, 80, 0
6, 454670, Note_on_c, 1, 79, 0
6, 454679, Note_on_c, 1, 67, 0
6, 455047, Note_on_c, 1, 84, 113
6, 455057, Note_on_c, 1, 83, 97
6, 455060, Note_on_c, 1, 88, 98
6, 455060, Note_on_c, 1, 75, 111
6, 455190, Note_on_c, 1, 84, 0
6, 455200, Note_on_c, 1, 83, 0
6, 455203, Note_on_c, 1, 88, 0
6, 455203, Note_on_c, 1, 75, 0
6, 455522, Note_on_c, 1, 84, 95
6, 455531, Note_on_c, 1, 88, 114
6, 455539, Note_on_c, 1, 75, 103
6, 455541, Note_on_c, 1, 79, 103
6, 455665, Note_on_c, 1, 84, 0
6, 455674, Note_on_c, 1, 88, 0
6, 455682, Note_on_c, 1, 75, 0
6, 455684, Note_on_c, 1, 79, 0
6, 456000, Note_on_c, 1, 67, 112
6, 456083, Note_on_c, 1, 68, 112
6, 456114, Note_on_c, 1, 67, 0
6, 456173, Note_on_c, 1, 67, 101
6, 456197, Note_on_c, 1, 68, 0
6, 456241, Note_on_c, 1, 68, 113
6, 456287, Note_on_c, 1, 67, 0
6, 456329, Note_on_c, 1, 67, 99
6, 456355, Note_on_c, 1, 68, 0
6, 456381, Note_on_c, 1, 68, 112
6, 456443, Note_on_c, 1, 67, 0
6, 456470, Note_on_c, 1, 67, 114
6, 456495, Note_on_c, 1, 68, 0
6, 456543, Note_on_c, 1, 68, 114
6, 456584, Note_on_c, 1, 67, 0
6, 456600, Note_on_c, 1, 72, 112
6, 456619, Note_on_c, 1, 67, 97
6, 456630, Note_on_c, 1, 72, 0
6, 456630, Note_on_c, 1, 74, 106
6, 456657, Note_on_c, 1, 68, 0
6, 456660, Note_on_c, 1, 74, 0
6, 456660, Note_on_c, 1, 75, 103
6, 456690, Note_on_c, 1, 75, 0
6, 456690, Note_on_c, 1, 77, 99
6, 456710, Note_on_c, 1, 68, 114
6, 456720, Note_on_c, 1, 77, 0
6, 456733, Note_on_c, 1, 67, 0
6, 456743, Note_on_c, 1, 79, 94
6, 456784, Note_on_c, 1, 67, 89
6, 456815, Note_on_c, 1, 80, 86
6, 456824, Note_on_c, 1, 68, 0
6, 456852, Note_on_c, 1, 79, 0
6, 456852, Note_on_c, 1, 68, 84
6, 456871, Note_on_c, 1, 79, 87
6, 456898, Note_on_c, 1, 67, 0
6, 456924, Note_on_c, 1, 80, 0
6, 456939, Note_on_c, 1, 67, 78
6, 456952, Note_on_c, 1, 80, 88
6, 456966, Note_on_c, 1, 68, 0
6, 456980, Note_on_c, 1, 79, 0
6, 457004, Note_on_c, 1, 68, 78
6, 457029, Note_on_c, 1, 79, 96
6, 457053, Note_on_c, 1, 67, 0
6, 457061, Note_on_c, 1, 80, 0
6, 457073, Note_on_c, 1, 67, 78
6, 457094, Note_on_c, 1, 80, 98
6, 457118, Note_on_c, 1, 68, 0
6, 457138, Note_on_c, 1, 79, 0
6, 457159, Note_on_c, 1, 68, 82
6, 457186, Note_on_c, 1, 79, 83
6, 457187, Note_on_c, 1, 67, 0
6, 457203, Note_on_c, 1, 80, 0
6, 457240, Note_on_c, 1, 67, 86
6, 457259, Note_on_c, 1, 80, 87
6, 457273, Note_on_c, 1, 68, 0
6, 457295, Note_on_c, 1, 79, 0
6, 457308, Note_on_c, 1, 68, 85
6, 457326, Note_on_c, 1, 79, 91
6, 457354, Note_on_c, 1, 67, 0
6, 457368, Note_on_c, 1, 80, 0
6, 457375, Note_on_c, 1, 67, 93
6, 457386, Note_on_c, 1, 80, 97
6, 457422, Note_on_c, 1, 68, 0
6, 457435, Note_on_c, 1, 79, 0
6, 457440, Note_on_c, 1, 67, 88
6, 457456, Note_on_c, 1, 67, 0
6, 457456, Note_on_c, 1, 79, 88
6, 457458, Note_on_c, 1, 79, 84
6, 457464, Note_on_c, 1, 68, 89
6, 457471, Note_on_c, 1, 67, 0
6, 457495, Note_on_c, 1, 80, 0
6, 457528, Note_on_c, 1, 67, 92
6, 457535, Note_on_c, 1, 80, 87
6, 457578, Note_on_c, 1, 68, 0
6, 457579, Note_on_c, 1, 79, 0
6, 457587, Note_on_c, 1, 79, 0
6, 457607, Note_on_c, 1, 68, 88
6, 457626, Note_on_c, 1, 79, 83
6, 457644, Note_on_c, 1, 80, 0
6, 457648, Note_on_c, 1, 67, 0
6, 457686, Note_on_c, 1, 67, 81
6, 457721, Note_on_c, 1, 68, 0
6, 457735, Note_on_c, 1, 79, 0
6, 457768, Note_on_c, 1, 68, 81
6, 457800, Note_on_c, 1, 67, 0
6, 457854, Note_on_c, 1, 67, 86
6, 457882, Note_on_c, 1, 68, 0
6, 457923, Note_on_c, 1, 75, 92
6, 457932, Note_on_c, 1, 79, 100
6, 457932, Note_on_c, 1, 87, 101
6, 457934, Note_on_c, 1, 80, 94
6, 457968, Note_on_c, 1, 67, 0
6, 458114, Note_on_c, 1, 75, 0
6, 458123, Note_on_c, 1, 79, 0
6, 458123, Note_on_c, 1, 87, 0
6, 458125, Note_on_c, 1, 80, 0
6, 458402, Note_on_c, 1, 76, 103
6, 458416, Note_on_c, 1, 84, 101
6, 458416, Note_on_c, 1, 88, 109
6, 458420, Note_on_c, 1, 77, 105
6, 458593, Note_on_c, 1, 76, 0
6, 458607, Note_on_c, 1, 84, 0
6, 458607, Note_on_c, 1, 88, 0
6, 458611, Note_on_c, 1, 77, 0
6, 458880, Note_on_c, 1, 79, 93
6, 458880, Note_on_c, 1, 75, 91
6, 458882, Note_on_c, 1, 80, 104
6, 458889, Note_on_c, 1, 87, 102
6, 459071, Note_on_c, 1, 79, 0
6, 459071, Note_on_c, 1, 75, 0
6, 459073, Note_on_c, 1, 80, 0
6, 459080, Note_on_c, 1, 87, 0
6, 459364, Note_on_c, 1, 77, 111
6, 459365, Note_on_c, 1, 76, 111
6, 459366, Note_on_c, 1, 88, 101
6, 459374, Note_on_c, 1, 84, 92
6, 459555, Note_on_c, 1, 77, 0
6, 459556, Note_on_c, 1, 76, 0
6, 459557, Note_on_c, 1, 88, 0
6, 459565, Note_on_c, 1, 84, 0
6, 459849, Note_on_c, 1, 87, 97
6, 459856, Note_on_c, 1, 80, 102
6, 459857, Note_on_c, 1, 75, 106
6, 459858, Note_on_c, 1, 79, 105
6, 460040, Note_on_c, 1, 87, 0
6, 460047, Note_on_c, 1, 80, 0
6, 460048, Note_on_c, 1, 75, 0
6, 460049, Note_on_c, 1, 79, 0
6, 460320, Note_on_c, 1, 76, 100
6, 460323, Note_on_c, 1, 88, 107
6, 460330, Note_on_c, 1, 84, 100
6, 460343, Note_on_c, 1, 77, 111
6, 460511, Note_on_c, 1, 76, 0
6, 460514, Note_on_c, 1, 88, 0
6, 460521, Note_on_c, 1, 84, 0
6, 460534, Note_on_c, 1, 77, 0
6, 460805, Note_on_c, 1, 79, 92
6, 460815, Note_on_c, 1, 75, 94
6, 460821, Note_on_c, 1, 87, 92
6, 460825, Note_on_c, 1, 80, 100
6, 460996, Note_on_c, 1, 79, 0
6, 461006, Note_on_c, 1, 75, 0
6, 461012, Note_on_c, 1, 87, 0
6, 461016, Note_on_c, 1, 80, 0
6, 461289, Note_on_c, 1, 77, 108
6, 461291, Note_on_c, 1, 84, 99
6, 461298, Note_on_c, 1, 88, 92
6, 461302, Note_on_c, 1, 76, 93
6, 461480, Note_on_c, 1, 77, 0
6, 461482, Note_on_c, 1, 84, 0
6, 461489, Note_on_c, 1, 88, 0
6, 461493, Note_on_c, 1, 76, 0
6, 461762, Note_on_c, 1, 75, 109
6, 461770, Note_on_c, 1, 83, 100
6, 461771, Note_on_c, 1, 84, 99
6, 461777, Note_on_c, 1, 87, 114
6, 461905, Note_on_c, 1, 75, 0
6, 461913, Note_on_c, 1, 83, 0
6, 461914, Note_on_c, 1, 84, 0
6, 461920, Note_on_c, 1, 87, 0
6, 462249, Note_on_c, 1, 67, 96
6, 462327, Note_on_c, 1, 68, 79
6, 462361, Note_on_c, 1, 67, 0
6, 462413, Note_on_c, 1, 67, 97
6, 462439, Note_on_c, 1, 68, 0
6, 462467, Note_on_c, 1, 68, 86
6, 462525, Note_on_c, 1, 67, 0
6, 462551, Note_on_c, 1, 67, 78
6, 462579, Note_on_c, 1, 68, 0
6, 462638, Note_on_c, 1, 68, 92
6, 462663, Note_on_c, 1, 67, 0
6, 462693, Note_on_c, 1, 67, 85
6, 462750, Note_on_c, 1, 68, 0
6, 462776, Note_on_c, 1, 68, 92
6, 462805, Note_on_c, 1, 67, 0
6, 462840, Note_on_c, 1, 72, 80
6, 462844, Note_on_c, 1, 67, 86
6, 462870, Note_on_c, 1, 72, 0
6, 462870, Note_on_c, 1, 74, 89
6, 462888, Note_on_c, 1, 68, 0
6, 462900, Note_on_c, 1, 74, 0
6, 462900, Note_on_c, 1, 75, 96
6, 462930, Note_on_c, 1, 75, 0
6, 462930, Note_on_c, 1, 77, 87
6, 462943, Note_on_c, 1, 68, 78
6, 462956, Note_on_c, 1, 67, 0
6, 462960, Note_on_c, 1, 77, 0
6, 462963, Note_on_c, 1, 79, 92
6, 463019, Note_on_c, 1, 67, 79
6, 463045, Note_on_c, 1, 80, 79
6, 463055, Note_on_c, 1, 68, 0
6, 463081, Note_on_c, 1, 79, 0
6, 463094, Note_on_c, 1, 68, 91
6, 463131, Note_on_c, 1, 67, 0
6, 463142, Note_on_c, 1, 79, 97
6, 463160, Note_on_c, 1, 67, 97
6, 463163, Note_on_c, 1, 80, 0
6, 463206, Note_on_c, 1, 68, 0
6, 463218, Note_on_c, 1, 80, 80
6, 463232, Note_on_c, 1, 68, 80
6, 463260, Note_on_c, 1, 79, 0
6, 463272, Note_on_c, 1, 67, 0
6, 463299, Note_on_c, 1, 79, 95
6, 463314, Note_on_c, 1, 67, 78
6, 463336, Note_on_c, 1, 80, 0
6, 463344, Note_on_c, 1, 68, 0
6, 463374, Note_on_c, 1, 80, 83
6, 463374, Note_on_c, 1, 68, 85
6, 463417, Note_on_c, 1, 79, 0
6, 463426, Note_on_c, 1, 67, 0
6, 463452, Note_on_c, 1, 79, 97
6, 463460, Note_on_c, 1, 67, 93
6, 463486, Note_on_c, 1, 68, 0
6, 463492, Note_on_c, 1, 80, 0
6, 463540, Note_on_c, 1, 68, 79
6, 463540, Note_on_c, 1, 80, 81
6, 463540, Note_on_c, 1, 68, 79
6, 463570, Note_on_c, 1, 79, 0
6, 463572, Note_on_c, 1, 67, 0
6, 463603, Note_on_c, 1, 67, 86
6, 463622, Note_on_c, 1, 79, 83
6, 463652, Note_on_c, 1, 68, 0
6, 463652, Note_on_c, 1, 68, 0
6, 463658, Note_on_c, 1, 80, 0
6, 463678, Note_on_c, 1, 67, 0
6, 463686, Note_on_c, 1, 67, 84
6, 463692, Note_on_c, 1, 79, 0
6, 463702, Note_on_c, 1, 79, 86
6, 463781, Note_on_c, 1, 67, 0
6, 463797, Note_on_c, 1, 79, 0
6, 464185, Note_on_c, 1, 67, 86
6, 464256, Note_on_c, 1, 68, 82
6, 464297, Note_on_c, 1, 67, 0
6, 464332, Note_on_c, 1, 67, 90
6, 464368, Note_on_c, 1, 68, 0
6, 464388, Note_on_c, 1, 68, 91
6, 464444, Note_on_c, 1, 67, 0
6, 464463, Note_on_c, 1, 67, 89
6, 464500, Note_on_c, 1, 68, 0
6, 464542, Note_on_c, 1, 68, 89
6, 464575, Note_on_c, 1, 67, 0
6, 464625, Note_on_c, 1, 67, 90
6, 464654, Note_on_c, 1, 68, 0
6, 464700, Note_on_c, 1, 68, 86
6, 464737, Note_on_c, 1, 67, 0
6, 464760, Note_on_c, 1, 72, 96
6, 464784, Note_on_c, 1, 67, 83
6, 464790, Note_on_c, 1, 72, 0
6, 464790, Note_on_c, 1, 74, 94
6, 464812, Note_on_c, 1, 68, 0
6, 464820, Note_on_c, 1, 74, 0
6, 464820, Note_on_c, 1, 75, 93
6, 464847, Note_on_c, 1, 68, 78
6, 464850, Note_on_c, 1, 75, 0
6, 464850, Note_on_c, 1, 77, 97
6, 464880, Note_on_c, 1, 77, 0
6, 464896, Note_on_c, 1, 67, 0
6, 464897, Note_on_c, 1, 79, 84
6, 464927, Note_on_c, 1, 67, 96
6, 464959, Note_on_c, 1, 68, 0
6, 464963, Note_on_c, 1, 80, 96
6, 464992, Note_on_c, 1, 68, 84
6, 465015, Note_on_c, 1, 79, 0
6, 465039, Note_on_c, 1, 67, 0
6, 465044, Note_on_c, 1, 79, 83
6, 465078, Note_on_c, 1, 67, 86
6, 465081, Note_on_c, 1, 80, 0
6, 465104, Note_on_c, 1, 68, 0
6, 465143, Note_on_c, 1, 80, 96
6, 465144, Note_on_c, 1, 68, 78
6, 465162, Note_on_c, 1, 79, 0
6, 465190, Note_on_c, 1, 67, 0
6, 465206, Note_on_c, 1, 79, 98
6, 465226, Note_on_c, 1, 67, 90
6, 465256, Note_on_c, 1, 68, 0
6, 465261, Note_on_c, 1, 80, 0
6, 465297, Note_on_c, 1, 68, 85
6, 465303, Note_on_c, 1, 80, 85
6, 465324, Note_on_c, 1, 79, 0
6, 465338, Note_on_c, 1, 67, 0
6, 465374, Note_on_c, 1, 67, 86
6, 465379, Note_on_c, 1, 79, 82
6, 465409, Note_on_c, 1, 68, 0
6, 465421, Note_on_c, 1, 80, 0
6, 465446, Note_on_c, 1, 68, 89
6, 465452, Note_on_c, 1, 80, 90
6, 465486, Note_on_c, 1, 67, 0
6, 465497, Note_on_c, 1, 79, 0
6, 465519, Note_on_c, 1, 79, 80
6, 465533, Note_on_c, 1, 67, 79
6, 465558, Note_on_c, 1, 68, 0
6, 465562, Note_on_c, 1, 67, 0
6, 465570, Note_on_c, 1, 80, 0
6, 465600, Note_on_c, 1, 79, 0
6, 465605, Note_on_c, 1, 67, 97
6, 465621, Note_on_c, 1, 79, 79
6, 465700, Note_on_c, 1, 67, 0
6, 465716, Note_on_c, 1, 79, 0
6, 466093, Note_on_c, 1, 88, 97
6, 466096, Note_on_c, 1, 83, 104
6, 466096, Note_on_c, 1, 75, 99
6, 466101, Note_on_c, 1, 84, 100
6, 466236, Note_on_c, 1, 88, 0
6, 466239, Note_on_c, 1, 83, 0
6, 466239, Note_on_c, 1, 75, 0
6, 466244, Note_on_c, 1, 84, 0
6, 466560, Note_on_c, 1, 79, 97
6, 466566, Note_on_c, 1, 84, 103
6, 466581, Note_on_c, 1, 88, 106
6, 466585, Note_on_c, 1, 75, 111
6, 466703, Note_on_c, 1, 79, 0
6, 466709, Note_on_c, 1, 84, 0
6, 466724, Note_on_c, 1, 88, 0
6, 466728, Note_on_c, 1, 75, 0
6, 467050, Note_on_c, 1, 67, 88
6, 467133, Note_on_c, 1, 68, 79
6, 467164, Note_on_c, 1, 67, 0
6, 467200, Note_on_c, 1, 67, 88
6, 467247, Note_on_c, 1, 68, 0
6, 467275, Note_on_c, 1, 68, 91
6, 467314, Note_on_c, 1, 67, 0
6, 467347, Note_on_c, 1, 67, 91
6, 467389, Note_on_c, 1, 68, 0
6, 467444, Note_on_c, 1, 68, 98
6, 467461, Note_on_c, 1, 67, 0
6, 467506, Note_on_c, 1, 67, 83
6, 467558, Note_on_c, 1, 68, 0
6, 467595, Note_on_c, 1, 68, 85
6, 467620, Note_on_c, 1, 67, 0
6, 467640, Note_on_c, 1, 72, 98
6, 467670, Note_on_c, 1, 72, 0
6, 467670, Note_on_c, 1, 74, 91
6, 467671, Note_on_c, 1, 67, 81
6, 467700, Note_on_c, 1, 74, 0
6, 467700, Note_on_c, 1, 75, 97
6, 467709, Note_on_c, 1, 68, 0
6, 467728, Note_on_c, 1, 68, 93
6, 467730, Note_on_c, 1, 75, 0
6, 467730, Note_on_c, 1, 77, 86
6, 467775, Note_on_c, 1, 77, 0
6, 467782, Note_on_c, 1, 79, 89
6, 467785, Note_on_c, 1, 67, 0
6, 467808, Note_on_c, 1, 67, 80
6, 467842, Note_on_c, 1, 68, 0
6, 467854, Note_on_c, 1, 80, 83
6, 467891, Note_on_c, 1, 79, 0
6, 467892, Note_on_c, 1, 68, 82
6, 467922, Note_on_c, 1, 67, 0
6, 467926, Note_on_c, 1, 79, 82
6, 467963, Note_on_c, 1, 80, 0
6, 467977, Note_on_c, 1, 67, 84
6, 467983, Note_on_c, 1, 80, 78
6, 468006, Note_on_c, 1, 68, 0
6, 468035, Note_on_c, 1, 79, 0
6, 468036, Note_on_c, 1, 68, 97
6, 468076, Note_on_c, 1, 79, 98
6, 468091, Note_on_c, 1, 67, 0
6, 468092, Note_on_c, 1, 80, 0
6, 468126, Note_on_c, 1, 67, 83
6, 468132, Note_on_c, 1, 80, 86
6, 468150, Note_on_c, 1, 68, 0
6, 468185, Note_on_c, 1, 79, 0
6, 468206, Note_on_c, 1, 79, 79
6, 468207, Note_on_c, 1, 68, 87
6, 468240, Note_on_c, 1, 67, 0
6, 468241, Note_on_c, 1, 80, 0
6, 468284, Note_on_c, 1, 67, 82
6, 468289, Note_on_c, 1, 80, 85
6, 468315, Note_on_c, 1, 79, 0
6, 468321, Note_on_c, 1, 68, 0
6, 468339, Note_on_c, 1, 68, 95
6, 468356, Note_on_c, 1, 79, 82
6, 468398, Note_on_c, 1, 67, 0
6, 468398, Note_on_c, 1, 80, 0
6, 468415, Note_on_c, 1, 67, 82
6, 468440, Note_on_c, 1, 80, 93
6, 468453, Note_on_c, 1, 68, 0
6, 468465, Note_on_c, 1, 79, 0
6, 468493, Note_on_c, 1, 68, 83
6, 468502, Note_on_c, 1, 79, 81
6, 468511, Note_on_c, 1, 67, 0
6, 468548, Note_on_c, 1, 67, 79
6, 468549, Note_on_c, 1, 80, 0
6, 468570, Note_on_c, 1, 80, 96
6, 468607, Note_on_c, 1, 68, 0
6, 468635, Note_on_c, 1, 79, 0
6, 468664, Note_on_c, 1, 68, 83
6, 468668, Note_on_c, 1, 79, 85
6, 468673, Note_on_c, 1, 67, 0
6, 468679, Note_on_c, 1, 80, 0
6, 468720, Note_on_c, 1, 67, 95
6, 468777, Note_on_c, 1, 79, 0
6, 468778, Note_on_c, 1, 68, 0
6, 468821, Note_on_c, 1, 68, 93
6, 468834, Note_on_c, 1, 67, 0
6, 468877, Note_on_c, 1, 67, 92
6, 468935, Note_on_c, 1, 68, 0
6, 468963, Note_on_c, 1, 75, 109
6, 468974, Note_on_c, 1, 87, 101
6, 468982, Note_on_c, 1, 83, 98
6, 468984, Note_on_c, 1, 84, 114
6, 468991, Note_on_c, 1, 67, 0
6, 469106, Note_on_c, 1, 75, 0
6, 469117, Note_on_c, 1, 87, 0
6, 469125, Note_on_c, 1, 83, 0
6, 469127, Note_on_c, 1, 84, 0
6, 497290, Note_on_c, 1, 81, 89
6, 497296, Note_on_c, 1, 72, 88
6, 497305, Note_on_c, 1, 77, 97
6, 497650, Note_on_c, 1, 81, 0
6, 497656, Note_on_c, 1, 72, 0
6, 497665, Note_on_c, 1, 77, 0
6, 497764, Note_on_c, 1, 71, 82
6, 497765, Note_on_c, 1, 79, 86
6, 497783, Note_on_c, 1, 76, 80
6, 497884, Note_on_c, 1, 71, 0
6, 497885, Note_on_c, 1, 79, 0
6, 497903, Note_on_c, 1, 76, 0
6, 498013, Note_on_c, 1, 72, 91
6, 498013, Note_on_c, 1, 81, 86
6, 498023, Note_on_c, 1, 77, 96
6, 498133, Note_on_c, 1, 72, 0
6, 498133, Note_on_c, 1, 81, 0
6, 498143, Note_on_c, 1, 77, 0
6, 498257, Note_on_c, 1, 67, 87
6, 498261, Note_on_c, 1, 71, 81
6, 498265, Note_on_c, 1, 76, 79
6, 498377, Note_on_c, 1, 67, 0
6, 498381, Note_on_c, 1, 71, 0
6, 498385, Note_on_c, 1, 76, 0
6, 498481, Note_on_c, 1, 72, 92
6, 498486, Note_on_c, 1, 69, 92
6, 498500, Note_on_c, 1, 77, 80
6, 498601, Note_on_c, 1, 72, 0
6, 498606, Note_on_c, 1, 69, 0
6, 498620, Note_on_c, 1, 77, 0
6, 498723, Note_on_c, 1, 76, 90
6, 498740, Note_on_c, 1, 67, 82
6, 498740, Note_on_c, 1, 71, 89
6, 498843, Note_on_c, 1, 76, 0
6, 498860, Note_on_c, 1, 67, 0
6, 498860, Note_on_c, 1, 71, 0
6, 498974, Note_on_c, 1, 79, 78
6, 498978, Note_on_c, 1, 71, 86
6, 498985, Note_on_c, 1, 76, 97
6, 499094, Note_on_c, 1, 79, 0
6, 499098, Note_on_c, 1, 71, 0
6, 499105, Note_on_c, 1, 76, 0
6, 499205, Note_on_c, 1, 69, 94
6, 499209, Note_on_c, 1, 77, 80
6, 499219, Note_on_c, 1, 72, 84
6, 499325, Note_on_c, 1, 69, 0
6, 499329, Note_on_c, 1, 77, 0
6, 499339, Note_on_c, 1, 72, 0
6, 499458, Note_on_c, 1, 77, 87
6, 499463, Note_on_c, 1, 81, 81
6, 499464, Note_on_c, 1, 72, 85
6, 499578, Note_on_c, 1, 77, 0
6, 499583, Note_on_c, 1, 81, 0
6, 499584, Note_on_c, 1, 72, 0
6, 499686, Note_on_c, 1, 76, 96
6, 499687, Note_on_c, 1, 71, 90
6, 499691, Note_on_c, 1, 67, 93
6, 499806, Note_on_c, 1, 76, 0
6, 499807, Note_on_c, 1, 71, 0
6, 499811, Note_on_c, 1, 67, 0
6, 499921, Note_on_c, 1, 77, 95
6, 499931, Note_on_c, 1, 69, 96
6, 499941, Note_on_c, 1, 72, 90
6, 500041, Note_on_c, 1, 77, 0
6, 500051, Note_on_c, 1, 69, 0
6, 500061, Note_on_c, 1, 72, 0
6, 500166, Note_on_c, 1, 67, 94
6, 500174, Note_on_c, 1, 76, 79
6, 500177, Note_on_c, 1, 71, 90
6, 500286, Note_on_c, 1, 67, 0
6, 500294, Note_on_c, 1, 76, 0
6, 500297, Note_on_c, 1, 71, 0
6, 500409, Note_on_c, 1, 79, 97
6, 500414, Note_on_c, 1, 76, 91
6, 500418, Note_on_c, 1, 71, 85
6, 500529, Note_on_c, 1, 79, 0
6, 500534, Note_on_c, 1, 76, 0
6, 500538, Note_on_c, 1, 71, 0
6, 503528, Note_on_c, 1, 77, 89
6, 503532, Note_on_c, 1, 72, 84
6, 503534, Note_on_c, 1, 81, 93
6, 503888, Note_on_c, 1, 77, 0
6, 503892, Note_on_c, 1, 72, 0
6, 503894, Note_on_c, 1, 81, 0
6, 504005, Note_on_c, 1, 76, 91
6, 504021, Note_on_c, 1, 71, 81
6, 504024, Note_on_c, 1, 79, 83
6, 504125, Note_on_c, 1, 76, 0
6, 504141, Note_on_c, 1, 71, 0
6, 504144, Note_on_c, 1, 79, 0
6, 504245, Note_on_c, 1, 72, 84
6, 504248, Note_on_c, 1, 77, 80
6, 504251, Note_on_c, 1, 81, 89
6, 504365, Note_on_c, 1, 72, 0
6, 504368, Note_on_c, 1, 77, 0
6, 504371, Note_on_c, 1, 81, 0
6, 504492, Note_on_c, 1, 67, 92
6, 504499, Note_on_c, 1, 71, 79
6, 504502, Note_on_c, 1, 76, 80
6, 504612, Note_on_c, 1, 67, 0
6, 504619, Note_on_c, 1, 71, 0
6, 504622, Note_on_c, 1, 76, 0
6, 504721, Note_on_c, 1, 69, 95
6, 504733, Note_on_c, 1, 77, 78
6, 504745, Note_on_c, 1, 72, 93
6, 504841, Note_on_c, 1, 69, 0
6, 504853, Note_on_c, 1, 77, 0
6, 504865, Note_on_c, 1, 72, 0
6, 504960, Note_on_c, 1, 67, 92
6, 504972, Note_on_c, 1, 71, 86
6, 504973, Note_on_c, 1, 76, 98
6, 505080, Note_on_c, 1, 67, 0
6, 505092, Note_on_c, 1, 71, 0
6, 505093, Note_on_c, 1, 76, 0
6, 505203, Note_on_c, 1, 71, 98
6, 505210, Note_on_c, 1, 76, 94
6, 505217, Note_on_c, 1, 79, 86
6, 505323, Note_on_c, 1, 71, 0
6, 505330, Note_on_c, 1, 76, 0
6, 505337, Note_on_c, 1, 79, 0
6, 505441, Note_on_c, 1, 69, 81
6, 505448, Note_on_c, 1, 77, 83
6, 505449, Note_on_c, 1, 72, 88
6, 505561, Note_on_c, 1, 69, 0
6, 505568, Note_on_c, 1, 77, 0
6, 505569, Note_on_c, 1, 72, 0
6, 505698, Note_on_c, 1, 81, 96
6, 505699, Note_on_c, 1, 77, 97
6, 505703, Note_on_c, 1, 72, 96
6, 505818, Note_on_c, 1, 81, 0
6, 505819, Note_on_c, 1, 77, 0
6, 505823, Note_on_c, 1, 72, 0
6, 505921, Note_on_c, 1, 76, 98
6, 505937, Note_on_c, 1, 67, 84
6, 505944, Note_on_c, 1, 71, 90
6, 506041, Note_on_c, 1, 76, 0
6, 506057, Note_on_c, 1, 67, 0
6, 506064, Note_on_c, 1, 71, 0
6, 506180, Note_on_c, 1, 69, 90
6, 506183, Note_on_c, 1, 77, 94
6, 506184, Note_on_c, 1, 72, 87
6, 506300, Note_on_c, 1, 69, 0
6, 506303, Note_on_c, 1, 77, 0
6, 506304, Note_on_c, 1, 72, 0
6, 506402, Note_on_c, 1, 76, 94
6, 506407, Note_on_c, 1, 71, 90
6, 506410, Note_on_c, 1, 67, 85
6, 506522, Note_on_c, 1, 76, 0
6, 506527, Note_on_c, 1, 71, 0
6, 506530, Note_on_c, 1, 67, 0
6, 506643, Note_on_c, 1, 71, 92
6, 506657, Note_on_c, 1, 79, 78
6, 506665, Note_on_c, 1, 76, 95
6, 506763, Note_on_c, 1, 71, 0
6, 506777, Note_on_c, 1, 79, 0
6, 506785, Note_on_c, 1, 76, 0
6, 506881, Note_on_c, 1, 81, 89
6, 506889, Note_on_c, 1, 77, 80
6, 506902, Note_on_c, 1, 72, 87
6, 507241, Note_on_c, 1, 81, 0
6, 507249, Note_on_c, 1, 77, 0
6, 507262, Note_on_c, 1, 72, 0
6, 507360, Note_on_c, 1, 76, 96
6, 507363, Note_on_c, 1, 71, 97
6, 507385, Note_on_c, 1, 79, 96
6, 507480, Note_on_c, 1, 76, 0
6, 507483, Note_on_c, 1, 71, 0
6, 507505, Note_on_c, 1, 79, 0
6, 507612, Note_on_c, 1, 81, 97
6, 507614, Note_on_c, 1, 72, 91
6, 507616, Note_on_c, 1, 77, 96
6, 507732, Note_on_c, 1, 81, 0
6, 507734, Note_on_c, 1, 72, 0
6, 507736, Note_on_c, 1, 77, 0
6, 507854, Note_on_c, 1, 71, 94
6, 507855, Note_on_c, 1, 76, 87
6, 507858, Note_on_c, 1, 67, 89
6, 507974, Note_on_c, 1, 71, 0
6, 507975, Note_on_c, 1, 76, 0
6, 507978, Note_on_c, 1, 67, 0
6, 508082, Note_on_c, 1, 77, 81
6, 508097, Note_on_c, 1, 69, 92
6, 508099, Note_on_c, 1, 72, 93
6, 508202, Note_on_c, 1, 77, 0
6, 508217, Note_on_c, 1, 69, 0
6, 508219, Note_on_c, 1, 72, 0
6, 508326, Note_on_c, 1, 71, 80
6, 508340, Note_on_c, 1, 67, 88
6, 508344, Note_on_c, 1, 76, 88
6, 508446, Note_on_c, 1, 71, 0
6, 508460, Note_on_c, 1, 67, 0
6, 508464, Note_on_c, 1, 76, 0
6, 508561, Note_on_c, 1, 79, 92
6, 508574, Note_on_c, 1, 71, 91
6, 508583, Note_on_c, 1, 76, 88
6, 508681, Note_on_c, 1, 79, 0
6, 508694, Note_on_c, 1, 71, 0
6, 508703, Note_on_c, 1, 76, 0
6, 531854, Note_on_c, 1, 83, 70
6, 532088, Note_on_c, 1, 85, 59
6, 532094, Note_on_c, 1, 83, 0
6, 532321, Note_on_c, 1, 86, 62
6, 532328, Note_on_c, 1, 85, 0
6, 533041, Note_on_c, 1, 86, 0
6, 533062, Note_on_c, 1, 84, 55
6, 533293, Note_on_c, 1, 83, 63
6, 533302, Note_on_c, 1, 84, 0
6, 533533, Note_on_c, 1, 83, 0
6, 533542, Note_on_c, 1, 81, 72
6, 533781, Note_on_c, 1, 87, 68
6, 533782, Note_on_c, 1, 81, 0
6, 533785, Note_on_c, 1, 75, 71
6, 534014, Note_on_c, 1, 76, 60
6, 534021, Note_on_c, 1, 87, 0
6, 534021, Note_on_c, 1, 88, 62
6, 534025, Note_on_c, 1, 75, 0
6, 534243, Note_on_c, 1, 90, 59
6, 534251, Note_on_c, 1, 78, 56
6, 534254, Note_on_c, 1, 76, 0
6, 534261, Note_on_c, 1, 88, 0
6, 534962, Note_on_c, 1, 76, 63
6, 534963, Note_on_c, 1, 90, 0
6, 534971, Note_on_c, 1, 78, 0
6, 534982, Note_on_c, 1, 88, 52
6, 535202, Note_on_c, 1, 76, 0
6, 535215, Note_on_c, 1, 75, 72
6, 535222, Note_on_c, 1, 88, 0
6, 535225, Note_on_c, 1, 87, 69
6, 535452, Note_on_c, 1, 73, 60
6, 535455, Note_on_c, 1, 75, 0
6, 535458, Note_on_c, 1, 85, 69
6, 535465, Note_on_c, 1, 87, 0
6, 535692, Note_on_c, 1, 73, 0
6, 535698, Note_on_c, 1, 85, 0
6, 535705, Note_on_c, 1, 83, 53
6, 535939, Note_on_c, 1, 85, 59
6, 535945, Note_on_c, 1, 83, 0
6, 536172, Note_on_c, 1, 86, 60
6, 536179, Note_on_c, 1, 85, 0
6, 536486, Note_on_c, 1, 84, 59
6, 536492, Note_on_c, 1, 86, 0
6, 536805, Note_on_c, 1, 84, 0
6, 536816, Note_on_c, 1, 83, 69
6, 537130, Note_on_c, 1, 81, 64
6, 537136, Note_on_c, 1, 83, 0
6, 537610, Note_on_c, 1, 81, 0
6, 540502, Note_on_c, 1, 81, 102
6, 540502, Note_on_c, 1, 77, 92
6, 540645, Note_on_c, 1, 81, 0
6, 540645, Note_on_c, 1, 77, 0
6, 540962, Note_on_c, 1, 79, 111
6, 540978, Note_on_c, 1, 76, 111
6, 541033, Note_on_c, 1, 79, 0
6, 541049, Note_on_c, 1, 76, 0
6, 541215, Note_on_c, 1, 81, 102
6, 541218, Note_on_c, 1, 77, 102
6, 541286, Note_on_c, 1, 81, 0
6, 541289, Note_on_c, 1, 77, 0
6, 541452, Note_on_c, 1, 79, 104
6, 541465, Note_on_c, 1, 76, 91
6, 541523, Note_on_c, 1, 79, 0
6, 541536, Note_on_c, 1, 76, 0
6, 541684, Note_on_c, 1, 77, 93
6, 541697, Note_on_c, 1, 74, 95
6, 541755, Note_on_c, 1, 77, 0
6, 541768, Note_on_c, 1, 74, 0
6, 541926, Note_on_c, 1, 72, 94
6, 541942, Note_on_c, 1, 76, 100
6, 541997, Note_on_c, 1, 72, 0
6, 542013, Note_on_c, 1, 76, 0
6, 542162, Note_on_c, 1, 74, 101
6, 542176, Note_on_c, 1, 77, 103
6, 542233, Note_on_c, 1, 74, 0
6, 542247, Note_on_c, 1, 77, 0
6, 542406, Note_on_c, 1, 71, 105
6, 542413, Note_on_c, 1, 74, 99
6, 542477, Note_on_c, 1, 71, 0
6, 542484, Note_on_c, 1, 74, 0
6, 542655, Note_on_c, 1, 77, 96
6, 542658, Note_on_c, 1, 81, 102
6, 542726, Note_on_c, 1, 77, 0
6, 542729, Note_on_c, 1, 81, 0
6, 542881, Note_on_c, 1, 79, 99
6, 542882, Note_on_c, 1, 76, 109
6, 542952, Note_on_c, 1, 79, 0
6, 542953, Note_on_c, 1, 76, 0
6, 543120, Note_on_c, 1, 81, 99
6, 543130, Note_on_c, 1, 77, 97
6, 543191, Note_on_c, 1, 81, 0
6, 543201, Note_on_c, 1, 77, 0
6, 543373, Note_on_c, 1, 76, 102
6, 543385, Note_on_c, 1, 79, 93
6, 543444, Note_on_c, 1, 76, 0
6, 543456, Note_on_c, 1, 79, 0
6, 543617, Note_on_c, 1, 77, 101
6, 543622, Note_on_c, 1, 74, 100
6, 543688, Note_on_c, 1, 77, 0
6, 543693, Note_on_c, 1, 74, 0
6, 543854, Note_on_c, 1, 76, 100
6, 543861, Note_on_c, 1, 72, 104
6, 543925, Note_on_c, 1, 76, 0
6, 543932, Note_on_c, 1, 72, 0
6, 544083, Note_on_c, 1, 74, 106
6, 544104, Note_on_c, 1, 77, 106
6, 544154, Note_on_c, 1, 74, 0
6, 544175, Note_on_c, 1, 77, 0
6, 544320, Note_on_c, 1, 71, 104
6, 544339, Note_on_c, 1, 74, 99
6, 544391, Note_on_c, 1, 71, 0
6, 544410, Note_on_c, 1, 74, 0
6, 544577, Note_on_c, 1, 76, 105
6, 544580, Note_on_c, 1, 72, 101
6, 544648, Note_on_c, 1, 76, 0
6, 544651, Note_on_c, 1, 72, 0
6, 544806, Note_on_c, 1, 77, 107
6, 544814, Note_on_c, 1, 74, 95
6, 544877, Note_on_c, 1, 77, 0
6, 544885, Note_on_c, 1, 74, 0
6, 545052, Note_on_c, 1, 79, 98
6, 545057, Note_on_c, 1, 76, 101
6, 545123, Note_on_c, 1, 79, 0
6, 545128, Note_on_c, 1, 76, 0
6, 545285, Note_on_c, 1, 81, 103
6, 545288, Note_on_c, 1, 77, 103
6, 545356, Note_on_c, 1, 81, 0
6, 545359, Note_on_c, 1, 77, 0
6, 561614, Note_on_c, 1, 79, 99
6, 561622, Note_on_c, 1, 82, 96
6, 561623, Note_on_c, 1, 75, 95
6, 561624, Note_on_c, 1, 87, 104
6, 561854, Note_on_c, 1, 79, 0
6, 561862, Note_on_c, 1, 82, 0
6, 561863, Note_on_c, 1, 75, 0
6, 561864, Note_on_c, 1, 87, 0
6, 571682, Note_on_c, 1, 75, 92
6, 571691, Note_on_c, 1, 84, 100
6, 571700, Note_on_c, 1, 87, 94
6, 571703, Note_on_c, 1, 72, 98
6, 572882, Note_on_c, 1, 75, 0
6, 572891, Note_on_c, 1, 84, 0
6, 572900, Note_on_c, 1, 87, 0
6, 572903, Note_on_c, 1, 72, 0
6, 574571, Note_on_c, 1, 72, 108
6, 574576, Note_on_c, 1, 84, 92
6, 574582, Note_on_c, 1, 87, 96
6, 574583, Note_on_c, 1, 75, 109
6, 575771, Note_on_c, 1, 72, 0
6, 575776, Note_on_c, 1, 84, 0
6, 575782, Note_on_c, 1, 87, 0
6, 575783, Note_on_c, 1, 75, 0
6, 576001, Note_on_c, 1, 74, 110
6, 576003, Note_on_c, 1, 81, 97
6, 576007, Note_on_c, 1, 77, 95
6, 576023, Note_on_c, 1, 77, 97
6, 576144, Note_on_c, 1, 74, 0
6, 576146, Note_on_c, 1, 81, 0
6, 576150, Note_on_c, 1, 77, 0
6, 576166, Note_on_c, 1, 77, 0
6, 576480, Note_on_c, 1, 75, 111
6, 576490, Note_on_c, 1, 84, 110
6, 576493, Note_on_c, 1, 80, 101
6, 576497, Note_on_c, 1, 80, 115
6, 576623, Note_on_c, 1, 75, 0
6, 576633, Note_on_c, 1, 84, 0
6, 576636, Note_on_c, 1, 80, 0
6, 576640, Note_on_c, 1, 80, 0
6, 576960, Note_on_c, 1, 81, 96
6, 576967, Note_on_c, 1, 77, 99
6, 576972, Note_on_c, 1, 77, 106
6, 576973, Note_on_c, 1, 81, 108
6, 577103, Note_on_c, 1, 81, 0
6, 577110, Note_on_c, 1, 77, 0
6, 577115, Note_on_c, 1, 77, 0
6, 577116, Note_on_c, 1, 81, 0
6, 579360, Note_on_c, 1, 75, 101
6, 579364, Note_on_c, 1, 80, 95
6, 579373, Note_on_c, 1, 80, 98
6, 579385, Note_on_c, 1, 84, 109
6, 579503, Note_on_c, 1, 75, 0
6, 579507, Note_on_c, 1, 80, 0
6, 579516, Note_on_c, 1, 80, 0
6, 579528, Note_on_c, 1, 84, 0
6, 579841, Note_on_c, 1, 77, 108
6, 579844, Note_on_c, 1, 81, 107
6, 579850, Note_on_c, 1, 77, 112
6, 579864, Note_on_c, 1, 81, 107
6, 579984, Note_on_c, 1, 77, 0
6, 579987, Note_on_c, 1, 81, 0
6, 579993, Note_on_c, 1, 77, 0
6, 580007, Note_on_c, 1, 81, 0
6, 590404, Note_on_c, 1, 84, 110
6, 590422, Note_on_c, 1, 81, 94
6, 590481, Note_on_c, 1, 86, 110
6, 590494, Note_on_c, 1, 83, 106
6, 590519, Note_on_c, 1, 84, 0
6, 590537, Note_on_c, 1, 81, 0
6, 590555, Note_on_c, 1, 84, 111
6, 590576, Note_on_c, 1, 81, 94
6, 590596, Note_on_c, 1, 86, 0
6, 590609, Note_on_c, 1, 83, 0
6, 590635, Note_on_c, 1, 86, 102
6, 590652, Note_on_c, 1, 83, 99
6, 590670, Note_on_c, 1, 84, 0
6, 590691, Note_on_c, 1, 81, 0
6, 590731, Note_on_c, 1, 84, 92
6, 590733, Note_on_c, 1, 81, 110
6, 590750, Note_on_c, 1, 86, 0
6, 590767, Note_on_c, 1, 83, 0
6, 590789, Note_on_c, 1, 86, 110
6, 590812, Note_on_c, 1, 83, 95
6, 590846, Note_on_c, 1, 84, 0
6, 590848, Note_on_c, 1, 81, 0
6, 590878, Note_on_c, 1, 84, 110
6, 590882, Note_on_c, 1, 81, 100
6, 590904, Note_on_c, 1, 86, 0
6, 590927, Note_on_c, 1, 83, 0
6, 590953, Note_on_c, 1, 86, 94
6, 590966, Note_on_c, 1, 83, 111
6, 590993, Note_on_c, 1, 84, 0
6, 590997, Note_on_c, 1, 81, 0
6, 591041, Note_on_c, 1, 81, 110
6, 591046, Note_on_c, 1, 84, 91
6, 591068, Note_on_c, 1, 86, 0
6, 591081, Note_on_c, 1, 83, 0
6, 591100, Note_on_c, 1, 86, 95
6, 591110, Note_on_c, 1, 83, 102
6, 591156, Note_on_c, 1, 81, 0
6, 591161, Note_on_c, 1, 84, 0
6, 591193, Note_on_c, 1, 84, 100
6, 591202, Note_on_c, 1, 81, 108
6, 591215, Note_on_c, 1, 86, 0
6, 591225, Note_on_c, 1, 83, 0
6, 591255, Note_on_c, 1, 86, 111
6, 591278, Note_on_c, 1, 83, 98
6, 591308, Note_on_c, 1, 84, 0
6, 591317, Note_on_c, 1, 81, 0
6, 591340, Note_on_c, 1, 81, 104
6, 591355, Note_on_c, 1, 84, 100
6, 591370, Note_on_c, 1, 86, 0
6, 591393, Note_on_c, 1, 83, 0
6, 591412, Note_on_c, 1, 86, 100
6, 591412, Note_on_c, 1, 83, 108
6, 591455, Note_on_c, 1, 81, 0
6, 591470, Note_on_c, 1, 84, 0
6, 591495, Note_on_c, 1, 81, 97
6, 591508, Note_on_c, 1, 84, 109
6, 591527, Note_on_c, 1, 86, 0
6, 591527, Note_on_c, 1, 83, 0
6, 591589, Note_on_c, 1, 86, 99
6, 591591, Note_on_c, 1, 83, 97
6, 591610, Note_on_c, 1, 81, 0
6, 591623, Note_on_c, 1, 84, 0
6, 591645, Note_on_c, 1, 84, 92
6, 591668, Note_on_c, 1, 81, 100
6, 591704, Note_on_c, 1, 86, 0
6, 591706, Note_on_c, 1, 83, 0
6, 591745, Note_on_c, 1, 86, 110
6, 591746, Note_on_c, 1, 83, 107
6, 591760, Note_on_c, 1, 84, 0
6, 591783, Note_on_c, 1, 81, 0
6, 591811, Note_on_c, 1, 84, 94
6, 591812, Note_on_c, 1, 81, 93
6, 591860, Note_on_c, 1, 86, 0
6, 591861, Note_on_c, 1, 83, 0
6, 591878, Note_on_c, 1, 83, 100
6, 591890, Note_on_c, 1, 86, 105
6, 591926, Note_on_c, 1, 84, 0
6, 591927, Note_on_c, 1, 81, 0
6, 591978, Note_on_c, 1, 81, 98
6, 591979, Note_on_c, 1, 84, 110
6, 591993, Note_on_c, 1, 83, 0
6, 592005, Note_on_c, 1, 86, 0
6, 592039, Note_on_c, 1, 86, 107
6, 592041, Note_on_c, 1, 83, 92
6, 592093, Note_on_c, 1, 81, 0
6, 592094, Note_on_c, 1, 84, 0
6, 592125, Note_on_c, 1, 81, 102
6, 592126, Note_on_c, 1, 84, 101
6, 592154, Note_on_c, 1, 86, 0
6, 592156, Note_on_c, 1, 83, 0
6, 592190, Note_on_c, 1, 86, 99
6, 592211, Note_on_c, 1, 83, 103
6, 592240, Note_on_c, 1, 81, 0
6, 592241, Note_on_c, 1, 84, 0
6, 592270, Note_on_c, 1, 84, 98
6, 592273, Note_on_c, 1, 81, 95
6, 592305, Note_on_c, 1, 86, 0
6, 592326, Note_on_c, 1, 83, 0
6, 592346, Note_on_c, 1, 86, 97
6, 592370, Note_on_c, 1, 83, 109
6, 592385, Note_on_c, 1, 84, 0
6, 592388, Note_on_c, 1, 81, 0
6, 592432, Note_on_c, 1, 81, 102
6, 592443, Note_on_c, 1, 84, 110
6, 592461, Note_on_c, 1, 86, 0
6, 592485, Note_on_c, 1, 83, 0
6, 592518, Note_on_c, 1, 83, 95
6, 592521, Note_on_c, 1, 86, 99
6, 592547, Note_on_c, 1, 81, 0
6, 592558, Note_on_c, 1, 84, 0
6, 592589, Note_on_c, 1, 81, 94
6, 592593, Note_on_c, 1, 84, 99
6, 592633, Note_on_c, 1, 83, 0
6, 592636, Note_on_c, 1, 86, 0
6, 592670, Note_on_c, 1, 83, 109
6, 592677, Note_on_c, 1, 86, 108
6, 592704, Note_on_c, 1, 81, 0
6, 592708, Note_on_c, 1, 84, 0
6, 592740, Note_on_c, 1, 81, 93
6, 592757, Note_on_c, 1, 84, 102
6, 592785, Note_on_c, 1, 83, 0
6, 592792, Note_on_c, 1, 86, 0
6, 592814, Note_on_c, 1, 86, 111
6, 592826, Note_on_c, 1, 83, 110
6, 592855, Note_on_c, 1, 81, 0
6, 592872, Note_on_c, 1, 84, 0
6, 592898, Note_on_c, 1, 81, 101
6, 592909, Note_on_c, 1, 84, 105
6, 592929, Note_on_c, 1, 86, 0
6, 592941, Note_on_c, 1, 83, 0
6, 592972, Note_on_c, 1, 83, 101
6, 592982, Note_on_c, 1, 86, 94
6, 593013, Note_on_c, 1, 81, 0
6, 593024, Note_on_c, 1, 84, 0
6, 593050, Note_on_c, 1, 81, 109
6, 593059, Note_on_c, 1, 84, 100
6, 593087, Note_on_c, 1, 83, 0
6, 593097, Note_on_c, 1, 86, 0
6, 593142, Note_on_c, 1, 86, 100
6, 593147, Note_on_c, 1, 83, 93
6, 593165, Note_on_c, 1, 81, 0
6, 593174, Note_on_c, 1, 84, 0
6, 593225, Note_on_c, 1, 81, 111
6, 593226, Note_on_c, 1, 84, 91
6, 593257, Note_on_c, 1, 86, 0
6, 593262, Note_on_c, 1, 83, 0
6, 593279, Note_on_c, 1, 86, 105
6, 593285, Note_on_c, 1, 83, 94
6, 593340, Note_on_c, 1, 81, 0
6, 593341, Note_on_c, 1, 84, 0
6, 593356, Note_on_c, 1, 84, 109
6, 593380, Note_on_c, 1, 81, 104
6, 593394, Note_on_c, 1, 86, 0
6, 593400, Note_on_c, 1, 83, 0
6, 593441, Note_on_c, 1, 83, 109
6, 593449, Note_on_c, 1, 86, 103
6, 593471, Note_on_c, 1, 84, 0
6, 593495, Note_on_c, 1, 81, 0
6, 593512, Note_on_c, 1, 81, 96
6, 593518, Note_on_c, 1, 84, 96
6, 593556, Note_on_c, 1, 83, 0
6, 593564, Note_on_c, 1, 86, 0
6, 593590, Note_on_c, 1, 83, 93
6, 593612, Note_on_c, 1, 86, 106
6, 593627, Note_on_c, 1, 81, 0
6, 593633, Note_on_c, 1, 84, 0
6, 593686, Note_on_c, 1, 84, 105
6, 593690, Note_on_c, 1, 81, 95
6, 593705, Note_on_c, 1, 83, 0
6, 593727, Note_on_c, 1, 86, 0
6, 593746, Note_on_c, 1, 84, 0
6, 593750, Note_on_c, 1, 81, 0
6, 593765, Note_on_c, 1, 84, 97
6, 593768, Note_on_c, 1, 81, 103
6, 593956, Note_on_c, 1, 84, 0
6, 593959, Note_on_c, 1, 81, 0
6, 594247, Note_on_c, 1, 71, 109
6, 594255, Note_on_c, 1, 79, 108
6, 594256, Note_on_c, 1, 76, 109
6, 594262, Note_on_c, 1, 83, 105
6, 594367, Note_on_c, 1, 71, 0
6, 594375, Note_on_c, 1, 79, 0
6, 594376, Note_on_c, 1, 76, 0
6, 594382, Note_on_c, 1, 83, 0
6, 594494, Note_on_c, 1, 74, 123
6, 594497, Note_on_c, 1, 77, 106
6, 594498, Note_on_c, 1, 86, 118
6, 594498, Note_on_c, 1, 81, 107
6, 594614, Note_on_c, 1, 74, 0
6, 594617, Note_on_c, 1, 77, 0
6, 594618, Note_on_c, 1, 86, 0
6, 594618, Note_on_c, 1, 81, 0
6, 594722, Note_on_c, 1, 83, 119
6, 594723, Note_on_c, 1, 86, 114
6, 594725, Note_on_c, 1, 79, 121
6, 594729, Note_on_c, 1, 74, 118
6, 594842, Note_on_c, 1, 83, 0
6, 594843, Note_on_c, 1, 86, 0
6, 594845, Note_on_c, 1, 79, 0
6, 594849, Note_on_c, 1, 74, 0
6, 594963, Note_on_c, 1, 81, 124
6, 594965, Note_on_c, 1, 84, 118
6, 594980, Note_on_c, 1, 77, 114
6, 594982, Note_on_c, 1, 89, 123
6, 595083, Note_on_c, 1, 81, 0
6, 595085, Note_on_c, 1, 84, 0
6, 595100, Note_on_c, 1, 77, 0
6, 595102, Note_on_c, 1, 89, 0
6, 595204, Note_on_c, 1, 74, 118
6, 595213, Note_on_c, 1, 83, 120
6, 595223, Note_on_c, 1, 79, 107
6, 595225, Note_on_c, 1, 86, 124
6, 595324, Note_on_c, 1, 74, 0
6, 595333, Note_on_c, 1, 83, 0
6, 595343, Note_on_c, 1, 79, 0
6, 595345, Note_on_c, 1, 86, 0
6, 595450, Note_on_c, 1, 84, 105
6, 595453, Note_on_c, 1, 77, 124
6, 595460, Note_on_c, 1, 81, 119
6, 595463, Note_on_c, 1, 89, 118
6, 595570, Note_on_c, 1, 84, 0
6, 595573, Note_on_c, 1, 77, 0
6, 595580, Note_on_c, 1, 81, 0
6, 595583, Note_on_c, 1, 89, 0
6, 595680, Note_on_c, 1, 86, 123
6, 595690, Note_on_c, 1, 79, 108
6, 595700, Note_on_c, 1, 83, 116
6, 595705, Note_on_c, 1, 74, 109
6, 595800, Note_on_c, 1, 86, 0
6, 595810, Note_on_c, 1, 79, 0
6, 595820, Note_on_c, 1, 83, 0
6, 595825, Note_on_c, 1, 74, 0
6, 595925, Note_on_c, 1, 86, 118
6, 595929, Note_on_c, 1, 89, 109
6, 595934, Note_on_c, 1, 81, 110
6, 595935, Note_on_c, 1, 77, 122
6, 596045, Note_on_c, 1, 86, 0
6, 596049, Note_on_c, 1, 89, 0
6, 596054, Note_on_c, 1, 81, 0
6, 596055, Note_on_c, 1, 77, 0
6, 596162, Note_on_c, 1, 77, 116
6, 596174, Note_on_c, 1, 84, 104
6, 596181, Note_on_c, 1, 88, 115
6, 596181, Note_on_c, 1, 72, 115
6, 596522, Note_on_c, 1, 77, 0
6, 596534, Note_on_c, 1, 84, 0
6, 596541, Note_on_c, 1, 88, 0
6, 596541, Note_on_c, 1, 72, 0
6, 596646, Note_on_c, 1, 83, 104
6, 596654, Note_on_c, 1, 86, 109
6, 596654, Note_on_c, 1, 79, 107
6, 596660, Note_on_c, 1, 74, 122
6, 596766, Note_on_c, 1, 83, 0
6, 596774, Note_on_c, 1, 86, 0
6, 596774, Note_on_c, 1, 79, 0
6, 596780, Note_on_c, 1, 74, 0
6, 596881, Note_on_c, 1, 77, 112
6, 596884, Note_on_c, 1, 84, 107
6, 596884, Note_on_c, 1, 89, 112
6, 596901, Note_on_c, 1, 81, 119
6, 597001, Note_on_c, 1, 77, 0
6, 597004, Note_on_c, 1, 84, 0
6, 597004, Note_on_c, 1, 89, 0
6, 597021, Note_on_c, 1, 81, 0
6, 597123, Note_on_c, 1, 83, 108
6, 597133, Note_on_c, 1, 86, 112
6, 597136, Note_on_c, 1, 74, 112
6, 597138, Note_on_c, 1, 79, 121
6, 597243, Note_on_c, 1, 83, 0
6, 597253, Note_on_c, 1, 86, 0
6, 597256, Note_on_c, 1, 74, 0
6, 597258, Note_on_c, 1, 79, 0
6, 597370, Note_on_c, 1, 86, 105
6, 597373, Note_on_c, 1, 81, 108
6, 597375, Note_on_c, 1, 89, 104
6, 597383, Note_on_c, 1, 77, 114
6, 597490, Note_on_c, 1, 86, 0
6, 597493, Note_on_c, 1, 81, 0
6, 597495, Note_on_c, 1, 89, 0
6, 597503, Note_on_c, 1, 77, 0
6, 597601, Note_on_c, 1, 84, 121
6, 597608, Note_on_c, 1, 81, 109
6, 597612, Note_on_c, 1, 72, 109
6, 597612, Note_on_c, 1, 77, 110
6, 597961, Note_on_c, 1, 84, 0
6, 597968, Note_on_c, 1, 81, 0
6, 597972, Note_on_c, 1, 72, 0
6, 597972, Note_on_c, 1, 77, 0
6, 598093, Note_on_c, 1, 81, 113
6, 598094, Note_on_c, 1, 72, 122
6, 598104, Note_on_c, 1, 84, 116
6, 598104, Note_on_c, 1, 77, 120
6, 598236, Note_on_c, 1, 81, 0
6, 598237, Note_on_c, 1, 72, 0
6, 598247, Note_on_c, 1, 84, 0
6, 598247, Note_on_c, 1, 77, 0
6, 598563, Note_on_c, 1, 83, 113
6, 598576, Note_on_c, 1, 71, 123
6, 598581, Note_on_c, 1, 76, 122
6, 598583, Note_on_c, 1, 79, 114
6, 598683, Note_on_c, 1, 83, 0
6, 598696, Note_on_c, 1, 71, 0
6, 598701, Note_on_c, 1, 76, 0
6, 598703, Note_on_c, 1, 79, 0
6, 598809, Note_on_c, 1, 86, 119
6, 598815, Note_on_c, 1, 81, 120
6, 598815, Note_on_c, 1, 77, 111
6, 598818, Note_on_c, 1, 74, 111
6, 598929, Note_on_c, 1, 86, 0
6, 598935, Note_on_c, 1, 81, 0
6, 598935, Note_on_c, 1, 77, 0
6, 598938, Note_on_c, 1, 74, 0
6, 599043, Note_on_c, 1, 79, 120
6, 599056, Note_on_c, 1, 74, 114
6, 599056, Note_on_c, 1, 83, 122
6, 599063, Note_on_c, 1, 86, 116
6, 599163, Note_on_c, 1, 79, 0
6, 599176, Note_on_c, 1, 74, 0
6, 599176, Note_on_c, 1, 83, 0
6, 599183, Note_on_c, 1, 86, 0
6, 599281, Note_on_c, 1, 89, 120
6, 599282, Note_on_c, 1, 77, 110
6, 599294, Note_on_c, 1, 84, 115
6, 599303, Note_on_c, 1, 81, 105
6, 599401, Note_on_c, 1, 89, 0
6, 599402, Note_on_c, 1, 77, 0
6, 599414, Note_on_c, 1, 84, 0
6, 599423, Note_on_c, 1, 81, 0
6, 599528, Note_on_c, 1, 79, 108
6, 599531, Note_on_c, 1, 86, 106
6, 599532, Note_on_c, 1, 74, 123
6, 599544, Note_on_c, 1, 83, 122
6, 599648, Note_on_c, 1, 79, 0
6, 599651, Note_on_c, 1, 86, 0
6, 599652, Note_on_c, 1, 74, 0
6, 599664, Note_on_c, 1, 83, 0
6, 599764, Note_on_c, 1, 89, 105
6, 599767, Note_on_c, 1, 77, 109
6, 599768, Note_on_c, 1, 81, 114
6, 599781, Note_on_c, 1, 84, 112
6, 599884, Note_on_c, 1, 89, 0
6, 599887, Note_on_c, 1, 77, 0
6, 599888, Note_on_c, 1, 81, 0
6, 599901, Note_on_c, 1, 84, 0
6, 600000, Note_on_c, 1, 79, 113
6, 600004, Note_on_c, 1, 86, 124
6, 600008, Note_on_c, 1, 83, 118
6, 600009, Note_on_c, 1, 74, 124
6, 600120, Note_on_c, 1, 79, 0
6, 600124, Note_on_c, 1, 86, 0
6, 600128, Note_on_c, 1, 83, 0
6, 600129, Note_on_c, 1, 74, 0
6, 600247, Note_on_c, 1, 89, 119
6, 600247, Note_on_c, 1, 77, 118
6, 600253, Note_on_c, 1, 81, 119
6, 600258, Note_on_c, 1, 86, 111
6, 600367, Note_on_c, 1, 89, 0
6, 600367, Note_on_c, 1, 77, 0
6, 600373, Note_on_c, 1, 81, 0
6, 600378, Note_on_c, 1, 86, 0
6, 600481, Note_on_c, 1, 81, 116
6, 600483, Note_on_c, 1, 77, 118
6, 600490, Note_on_c, 1, 84, 124
6, 600495, Note_on_c, 1, 89, 124
6, 600601, Note_on_c, 1, 81, 0
6, 600603, Note_on_c, 1, 77, 0
6, 600610, Note_on_c, 1, 84, 0
6, 600615, Note_on_c, 1, 89, 0
6, 600722, Note_on_c, 1, 83, 107
6, 600727, Note_on_c, 1, 86, 112
6, 600738, Note_on_c, 1, 74, 107
6, 600744, Note_on_c, 1, 79, 105
6, 600842, Note_on_c, 1, 83, 0
6, 600847, Note_on_c, 1, 86, 0
6, 600858, Note_on_c, 1, 74, 0
6, 600864, Note_on_c, 1, 79, 0
6, 600960, Note_on_c, 1, 72, 109
6, 600965, Note_on_c, 1, 84, 123
6, 600980, Note_on_c, 1, 81, 124
6, 600982, Note_on_c, 1, 77, 112
6, 601080, Note_on_c, 1, 72, 0
6, 601085, Note_on_c, 1, 84, 0
6, 601100, Note_on_c, 1, 81, 0
6, 601102, Note_on_c, 1, 77, 0
6, 601202, Note_on_c, 1, 83, 113
6, 601204, Note_on_c, 1, 79, 122
6, 601210, Note_on_c, 1, 76, 118
6, 601216, Note_on_c, 1, 71, 118
6, 601322, Note_on_c, 1, 83, 0
6, 601324, Note_on_c, 1, 79, 0
6, 601330, Note_on_c, 1, 76, 0
6, 601336, Note_on_c, 1, 71, 0
6, 601444, Note_on_c, 1, 77, 118
6, 601445, Note_on_c, 1, 81, 117
6, 601448, Note_on_c, 1, 84, 104
6, 601459, Note_on_c, 1, 72, 117
6, 601535, Note_on_c, 1, 83, 118
6, 601535, Note_on_c, 1, 79, 107
6, 601545, Note_on_c, 1, 86, 106
6, 601545, Note_on_c, 1, 74, 122
6, 601564, Note_on_c, 1, 77, 0
6, 601565, Note_on_c, 1, 81, 0
6, 601568, Note_on_c, 1, 84, 0
6, 601579, Note_on_c, 1, 72, 0
6, 601604, Note_on_c, 1, 72, 117
6, 601606, Note_on_c, 1, 84, 104
6, 601614, Note_on_c, 1, 77, 112
6, 601618, Note_on_c, 1, 81, 104
6, 601653, Note_on_c, 1, 83, 0
6, 601653, Note_on_c, 1, 79, 0
6, 601663, Note_on_c, 1, 86, 0
6, 601663, Note_on_c, 1, 74, 0
6, 601681, Note_on_c, 1, 83, 113
6, 601681, Note_on_c, 1, 79, 121
6, 601687, Note_on_c, 1, 86, 107
6, 601698, Note_on_c, 1, 74, 111
6, 601724, Note_on_c, 1, 72, 0
6, 601726, Note_on_c, 1, 84, 0
6, 601734, Note_on_c, 1, 77, 0
6, 601738, Note_on_c, 1, 81, 0
6, 601765, Note_on_c, 1, 81, 115
6, 601775, Note_on_c, 1, 84, 117
6, 601777, Note_on_c, 1, 77, 109
6, 601784, Note_on_c, 1, 72, 121
6, 601801, Note_on_c, 1, 83, 0
6, 601801, Note_on_c, 1, 79, 0
6, 601807, Note_on_c, 1, 86, 0
6, 601818, Note_on_c, 1, 74, 0
6, 601839, Note_on_c, 1, 83, 124
6, 601843, Note_on_c, 1, 86, 106
6, 601847, Note_on_c, 1, 74, 124
6, 601863, Note_on_c, 1, 79, 111
6, 601883, Note_on_c, 1, 81, 0
6, 601893, Note_on_c, 1, 84, 0
6, 601895, Note_on_c, 1, 77, 0
6, 601902, Note_on_c, 1, 72, 0
6, 601921, Note_on_c, 1, 72, 106
6, 601925, Note_on_c, 1, 84, 116
6, 601932, Note_on_c, 1, 81, 120
6, 601938, Note_on_c, 1, 77, 107
6, 601959, Note_on_c, 1, 83, 0
6, 601963, Note_on_c, 1, 86, 0
6, 601967, Note_on_c, 1, 74, 0
6, 601983, Note_on_c, 1, 79, 0
6, 602004, Note_on_c, 1, 79, 119
6, 602010, Note_on_c, 1, 74, 106
6, 602011, Note_on_c, 1, 83, 109
6, 602013, Note_on_c, 1, 86, 107
6, 602041, Note_on_c, 1, 72, 0
6, 602045, Note_on_c, 1, 84, 0
6, 602052, Note_on_c, 1, 81, 0
6, 602058, Note_on_c, 1, 77, 0
6, 602081, Note_on_c, 1, 84, 105
6, 602088, Note_on_c, 1, 81, 109
6, 602101, Note_on_c, 1, 72, 112
6, 602104, Note_on_c, 1, 77, 123
6, 602122, Note_on_c, 1, 79, 0
6, 602128, Note_on_c, 1, 74, 0
6, 602129, Note_on_c, 1, 83, 0
6, 602131, Note_on_c, 1, 86, 0
6, 602167, Note_on_c, 1, 74, 120
6, 602177, Note_on_c, 1, 79, 124
6, 602178, Note_on_c, 1, 83, 105
6, 602184, Note_on_c, 1, 86, 105
6, 602201, Note_on_c, 1, 84, 0
6, 602208, Note_on_c, 1, 81, 0
6, 602221, Note_on_c, 1, 72, 0
6, 602224, Note_on_c, 1, 77, 0
6, 602244, Note_on_c, 1, 72, 121
6, 602261, Note_on_c, 1, 84, 124
6, 602263, Note_on_c, 1, 81, 122
6, 602265, Note_on_c, 1, 77, 115
6, 602287, Note_on_c, 1, 74, 0
6, 602297, Note_on_c, 1, 79, 0
6, 602298, Note_on_c, 1, 83, 0
6, 602304, Note_on_c, 1, 86, 0
6, 602319, Note_on_c, 1, 86, 112
6, 602332, Note_on_c, 1, 79, 116
6, 602335, Note_on_c, 1, 83, 108
6, 602341, Note_on_c, 1, 74, 112
6, 602362, Note_on_c, 1, 72, 0
6, 602379, Note_on_c, 1, 84, 0
6, 602381, Note_on_c, 1, 81, 0
6, 602383, Note_on_c, 1, 77, 0
6, 602402, Note_on_c, 1, 84, 121
6, 602405, Note_on_c, 1, 72, 120
6, 602417, Note_on_c, 1, 77, 116
6, 602418, Note_on_c, 1, 81, 107
6, 602439, Note_on_c, 1, 86, 0
6, 602452, Note_on_c, 1, 79, 0
6, 602455, Note_on_c, 1, 83, 0
6, 602461, Note_on_c, 1, 74, 0
6, 602489, Note_on_c, 1, 86, 115
6, 602490, Note_on_c, 1, 79, 121
6, 602496, Note_on_c, 1, 83, 113
6, 602498, Note_on_c, 1, 74, 114
6, 602522, Note_on_c, 1, 84, 0
6, 602525, Note_on_c, 1, 72, 0
6, 602537, Note_on_c, 1, 77, 0
6, 602538, Note_on_c, 1, 81, 0
6, 602562, Note_on_c, 1, 77, 111
6, 602573, Note_on_c, 1, 81, 110
6, 602581, Note_on_c, 1, 84, 112
6, 602584, Note_on_c, 1, 72, 109
6, 602607, Note_on_c, 1, 86, 0
6, 602608, Note_on_c, 1, 79, 0
6, 602614, Note_on_c, 1, 83, 0
6, 602616, Note_on_c, 1, 74, 0
6, 602643, Note_on_c, 1, 83, 107
6, 602645, Note_on_c, 1, 86, 119
6, 602646, Note_on_c, 1, 79, 113
6, 602661, Note_on_c, 1, 74, 123
6, 602682, Note_on_c, 1, 77, 0
6, 602693, Note_on_c, 1, 81, 0
6, 602701, Note_on_c, 1, 84, 0
6, 602704, Note_on_c, 1, 72, 0
6, 602720, Note_on_c, 1, 77, 108
6, 602733, Note_on_c, 1, 72, 104
6, 602738, Note_on_c, 1, 81, 111
6, 602743, Note_on_c, 1, 84, 117
6, 602763, Note_on_c, 1, 83, 0
6, 602765, Note_on_c, 1, 86, 0
6, 602766, Note_on_c, 1, 79, 0
6, 602781, Note_on_c, 1, 74, 0
6, 602802, Note_on_c, 1, 74, 121
6, 602816, Note_on_c, 1, 83, 118
6, 602821, Note_on_c, 1, 86, 116
6, 602823, Note_on_c, 1, 79, 119
6, 602838, Note_on_c, 1, 77, 0
6, 602851, Note_on_c, 1, 72, 0
6, 602856, Note_on_c, 1, 81, 0
6, 602861, Note_on_c, 1, 84, 0
6, 602889, Note_on_c, 1, 84, 107
6, 602890, Note_on_c, 1, 77, 109
6, 602895, Note_on_c, 1, 72, 123
6, 602905, Note_on_c, 1, 81, 105
6, 602922, Note_on_c, 1, 74, 0
6, 602936, Note_on_c, 1, 83, 0
6, 602941, Note_on_c, 1, 86, 0
6, 602943, Note_on_c, 1, 79, 0
6, 602968, Note_on_c, 1, 86, 104
6, 602974, Note_on_c, 1, 74, 123
6, 602982, Note_on_c, 1, 83, 113
6, 602982, Note_on_c, 1, 79, 119
6, 603009, Note_on_c, 1, 84, 0
6, 603010, Note_on_c, 1, 77, 0
6, 603015, Note_on_c, 1, 72, 0
6, 603025, Note_on_c, 1, 81, 0
6, 603042, Note_on_c, 1, 72, 109
6, 603044, Note_on_c, 1, 81, 119
6, 603052, Note_on_c, 1, 84, 112
6, 603054, Note_on_c, 1, 77, 118
6, 603086, Note_on_c, 1, 86, 0
6, 603092, Note_on_c, 1, 74, 0
6, 603100, Note_on_c, 1, 83, 0
6, 603100, Note_on_c, 1, 79, 0
6, 603121, Note_on_c, 1, 86, 106
6, 603125, Note_on_c, 1, 79, 112
6, 603136, Note_on_c, 1, 74, 105
6, 603136, Note_on_c, 1, 83, 124
6, 603162, Note_on_c, 1, 72, 0
6, 603164, Note_on_c, 1, 81, 0
6, 603172, Note_on_c, 1, 84, 0
6, 603174, Note_on_c, 1, 77, 0
6, 603204, Note_on_c, 1, 77, 123
6, 603205, Note_on_c, 1, 72, 117
6, 603211, Note_on_c, 1, 84, 120
6, 603216, Note_on_c, 1, 81, 121
6, 603241, Note_on_c, 1, 86, 0
6, 603245, Note_on_c, 1, 79, 0
6, 603256, Note_on_c, 1, 74, 0
6, 603256, Note_on_c, 1, 83, 0
6, 603279, Note_on_c, 1, 74, 116
6, 603288, Note_on_c, 1, 83, 113
6, 603295, Note_on_c, 1, 79, 115
6, 603303, Note_on_c, 1, 86, 114
6, 603322, Note_on_c, 1, 77, 0
6, 603323, Note_on_c, 1, 72, 0
6, 603329, Note_on_c, 1, 84, 0
6, 603334, Note_on_c, 1, 81, 0
6, 603360, Note_on_c, 1, 77, 107
6, 603367, Note_on_c, 1, 84, 122
6, 603373, Note_on_c, 1, 72, 106
6, 603375, Note_on_c, 1, 81, 115
6, 603399, Note_on_c, 1, 74, 0
6, 603408, Note_on_c, 1, 83, 0
6, 603415, Note_on_c, 1, 79, 0
6, 603423, Note_on_c, 1, 86, 0
6, 603444, Note_on_c, 1, 74, 111
6, 603446, Note_on_c, 1, 86, 111
6, 603451, Note_on_c, 1, 83, 117
6, 603458, Note_on_c, 1, 79, 121
6, 603480, Note_on_c, 1, 77, 0
6, 603487, Note_on_c, 1, 84, 0
6, 603493, Note_on_c, 1, 72, 0
6, 603495, Note_on_c, 1, 81, 0
6, 603521, Note_on_c, 1, 81, 117
6, 603535, Note_on_c, 1, 77, 113
6, 603541, Note_on_c, 1, 84, 120
6, 603544, Note_on_c, 1, 72, 112
6, 603562, Note_on_c, 1, 74, 0
6, 603564, Note_on_c, 1, 86, 0
6, 603569, Note_on_c, 1, 83, 0
6, 603576, Note_on_c, 1, 79, 0
6, 603603, Note_on_c, 1, 74, 114
6, 603604, Note_on_c, 1, 79, 107
6, 603617, Note_on_c, 1, 83, 114
6, 603620, Note_on_c, 1, 86, 110
6, 603641, Note_on_c, 1, 81, 0
6, 603655, Note_on_c, 1, 77, 0
6, 603661, Note_on_c, 1, 84, 0
6, 603664, Note_on_c, 1, 72, 0
6, 603684, Note_on_c, 1, 72, 104
6, 603691, Note_on_c, 1, 77, 106
6, 603691, Note_on_c, 1, 84, 112
6, 603703, Note_on_c, 1, 81, 112
6, 603723, Note_on_c, 1, 74, 0
6, 603724, Note_on_c, 1, 79, 0
6, 603737, Note_on_c, 1, 83, 0
6, 603740, Note_on_c, 1, 86, 0
6, 603762, Note_on_c, 1, 83, 111
6, 603763, Note_on_c, 1, 86, 120
6, 603765, Note_on_c, 1, 79, 108
6, 603774, Note_on_c, 1, 74, 104
6, 603802, Note_on_c, 1, 72, 0
6, 603809, Note_on_c, 1, 77, 0
6, 603809, Note_on_c, 1, 84, 0
6, 603821, Note_on_c, 1, 81, 0
6, 603846, Note_on_c, 1, 81, 111
6, 603847, Note_on_c, 1, 72, 104
6, 603849, Note_on_c, 1, 77, 113
6, 603854, Note_on_c, 1, 84, 113
6, 603882, Note_on_c, 1, 83, 0
6, 603883, Note_on_c, 1, 86, 0
6, 603885, Note_on_c, 1, 79, 0
6, 603894, Note_on_c, 1, 74, 0
6, 603925, Note_on_c, 1, 86, 110
6, 603927, Note_on_c, 1, 79, 113
6, 603938, Note_on_c, 1, 74, 106
6, 603939, Note_on_c, 1, 83, 120
6, 603966, Note_on_c, 1, 81, 0
6, 603967, Note_on_c, 1, 72, 0
6, 603969, Note_on_c, 1, 77, 0
6, 603974, Note_on_c, 1, 84, 0
6, 604001, Note_on_c, 1, 81, 110
6, 604007, Note_on_c, 1, 77, 124
6, 604022, Note_on_c, 1, 84, 113
6, 604022, Note_on_c, 1, 72, 119
6, 604043, Note_on_c, 1, 86, 0
6, 604045, Note_on_c, 1, 79, 0
6, 604056, Note_on_c, 1, 74, 0
6, 604057, Note_on_c, 1, 83, 0
6, 604086, Note_on_c, 1, 83, 109
6, 604091, Note_on_c, 1, 86, 122
6, 604091, Note_on_c, 1, 79, 105
6, 604098, Note_on_c, 1, 74, 113
6, 604121, Note_on_c, 1, 81, 0
6, 604127, Note_on_c, 1, 77, 0
6, 604142, Note_on_c, 1, 84, 0
6, 604142, Note_on_c, 1, 72, 0
6, 604160, Note_on_c, 1, 77, 110
6, 604167, Note_on_c, 1, 81, 119
6, 604172, Note_on_c, 1, 84, 124
6, 604183, Note_on_c, 1, 72, 117
6, 604206, Note_on_c, 1, 83, 0
6, 604211, Note_on_c, 1, 86, 0
6, 604211, Note_on_c, 1, 79, 0
6, 604218, Note_on_c, 1, 74, 0
6, 604247, Note_on_c, 1, 83, 105
6, 604249, Note_on_c, 1, 79, 105
6, 604257, Note_on_c, 1, 74, 105
6, 604260, Note_on_c, 1, 86, 110
6, 604278, Note_on_c, 1, 77, 0
6, 604285, Note_on_c, 1, 81, 0
6, 604290, Note_on_c, 1, 84, 0
6, 604301, Note_on_c, 1, 72, 0
6, 604367, Note_on_c, 1, 83, 0
6, 604369, Note_on_c, 1, 79, 0
6, 604377, Note_on_c, 1, 74, 0
6, 604380, Note_on_c, 1, 86, 0
6, 608184, Note_on_c, 1, 81, 114
6, 608258, Note_on_c, 1, 83, 105
6, 608302, Note_on_c, 1, 81, 0
6, 608341, Note_on_c, 1, 81, 114
6, 608376, Note_on_c, 1, 83, 0
6, 608420, Note_on_c, 1, 83, 105
6, 608459, Note_on_c, 1, 81, 0
6, 608495, Note_on_c, 1, 81, 110
6, 608538, Note_on_c, 1, 83, 0
6, 608568, Note_on_c, 1, 83, 113
6, 608613, Note_on_c, 1, 81, 0
6, 608654, Note_on_c, 1, 81, 124
6, 608686, Note_on_c, 1, 83, 0
6, 608728, Note_on_c, 1, 83, 121
6, 608772, Note_on_c, 1, 81, 0
6, 608820, Note_on_c, 1, 81, 112
6, 608846, Note_on_c, 1, 83, 0
6, 608876, Note_on_c, 1, 83, 115
6, 608938, Note_on_c, 1, 81, 0
6, 608981, Note_on_c, 1, 81, 114
6, 608994, Note_on_c, 1, 83, 0
6, 609057, Note_on_c, 1, 83, 117
6, 609099, Note_on_c, 1, 81, 0
6, 609122, Note_on_c, 1, 81, 114
6, 609175, Note_on_c, 1, 83, 0
6, 609201, Note_on_c, 1, 83, 116
6, 609240, Note_on_c, 1, 81, 0
6, 609283, Note_on_c, 1, 81, 106
6, 609319, Note_on_c, 1, 83, 0
6, 609363, Note_on_c, 1, 83, 109
6, 609401, Note_on_c, 1, 81, 0
6, 609443, Note_on_c, 1, 81, 120
6, 609481, Note_on_c, 1, 83, 0
6, 609537, Note_on_c, 1, 83, 109
6, 609561, Note_on_c, 1, 81, 0
6, 609613, Note_on_c, 1, 81, 111
6, 609620, Note_on_c, 1, 64, 92
6, 609623, Note_on_c, 1, 72, 96
6, 609655, Note_on_c, 1, 83, 0
6, 609686, Note_on_c, 1, 83, 92
6, 609731, Note_on_c, 1, 81, 0
6, 609769, Note_on_c, 1, 81, 94
6, 609804, Note_on_c, 1, 83, 0
6, 609847, Note_on_c, 1, 83, 88
6, 609851, Note_on_c, 1, 65, 92
6, 609859, Note_on_c, 1, 74, 82
6, 609860, Note_on_c, 1, 64, 0
6, 609863, Note_on_c, 1, 72, 0
6, 609887, Note_on_c, 1, 81, 0
6, 609919, Note_on_c, 1, 81, 87
6, 609965, Note_on_c, 1, 83, 0
6, 610002, Note_on_c, 1, 83, 95
6, 610037, Note_on_c, 1, 81, 0
6, 610080, Note_on_c, 1, 76, 95
6, 610085, Note_on_c, 1, 81, 84
6, 610091, Note_on_c, 1, 65, 0
6, 610095, Note_on_c, 1, 67, 78
6, 610099, Note_on_c, 1, 74, 0
6, 610120, Note_on_c, 1, 83, 0
6, 610168, Note_on_c, 1, 83, 83
6, 610203, Note_on_c, 1, 81, 0
6, 610239, Note_on_c, 1, 81, 89
6, 610286, Note_on_c, 1, 83, 0
6, 610328, Note_on_c, 1, 83, 84
6, 610357, Note_on_c, 1, 81, 0
6, 610414, Note_on_c, 1, 81, 79
6, 610446, Note_on_c, 1, 83, 0
6, 610493, Note_on_c, 1, 83, 83
6, 610532, Note_on_c, 1, 81, 0
6, 610553, Note_on_c, 1, 81, 84
6, 610611, Note_on_c, 1, 83, 0
6, 610636, Note_on_c, 1, 83, 93
6, 610671, Note_on_c, 1, 81, 0
6, 610724, Note_on_c, 1, 81, 93
6, 610754, Note_on_c, 1, 83, 0
6, 610800, Note_on_c, 1, 76, 0
6, 610808, Note_on_c, 1, 83, 94
6, 610815, Note_on_c, 1, 67, 0
6, 610824, Note_on_c, 1, 65, 82
6, 610825, Note_on_c, 1, 74, 81
6, 610842, Note_on_c, 1, 81, 0
6, 610872, Note_on_c, 1, 81, 82
6, 610926, Note_on_c, 1, 83, 0
6, 610953, Note_on_c, 1, 83, 82
6, 610990, Note_on_c, 1, 81, 0
6, 611036, Note_on_c, 1, 81, 96
6, 611044, Note_on_c, 1, 64, 85
6, 611062, Note_on_c, 1, 72, 84
6, 611064, Note_on_c, 1, 65, 0
6, 611065, Note_on_c, 1, 74, 0
6, 611071, Note_on_c, 1, 83, 0
6, 611128, Note_on_c, 1, 83, 88
6, 611154, Note_on_c, 1, 81, 0
6, 611195, Note_on_c, 1, 81, 81
6, 611246, Note_on_c, 1, 83, 0
6, 611280, Note_on_c, 1, 83, 92
6, 611284, Note_on_c, 1, 64, 0
6, 611289, Note_on_c, 1, 62, 83
6, 611299, Note_on_c, 1, 70, 79
6, 611302, Note_on_c, 1, 72, 0
6, 611313, Note_on_c, 1, 81, 0
6, 611358, Note_on_c, 1, 81, 79
6, 611398, Note_on_c, 1, 83, 0
6, 611436, Note_on_c, 1, 83, 80
6, 611476, Note_on_c, 1, 81, 0
6, 611521, Note_on_c, 1, 81, 80
6, 611529, Note_on_c, 1, 62, 0
6, 611530, Note_on_c, 1, 72, 91
6, 611533, Note_on_c, 1, 64, 91
6, 611539, Note_on_c, 1, 70, 0
6, 611554, Note_on_c, 1, 83, 0
6, 611597, Note_on_c, 1, 83, 95
6, 611639, Note_on_c, 1, 81, 0
6, 611689, Note_on_c, 1, 81, 92
6, 611715, Note_on_c, 1, 83, 0
6, 611750, Note_on_c, 1, 83, 78
6, 611761, Note_on_c, 1, 74, 89
6, 611768, Note_on_c, 1, 65, 83
6, 611770, Note_on_c, 1, 72, 0
6, 611773, Note_on_c, 1, 64, 0
6, 611807, Note_on_c, 1, 81, 0
6, 611836, Note_on_c, 1, 81, 92
6, 611868, Note_on_c, 1, 83, 0
6, 611907, Note_on_c, 1, 83, 84
6, 611954, Note_on_c, 1, 81, 0
6, 612001, Note_on_c, 1, 74, 0
6, 612004, Note_on_c, 1, 76, 87
6, 612008, Note_on_c, 1, 65, 0
6, 612010, Note_on_c, 1, 81, 93
6, 612015, Note_on_c, 1, 67, 93
6, 612025, Note_on_c, 1, 83, 0
6, 612069, Note_on_c, 1, 83, 93
6, 612128, Note_on_c, 1, 81, 0
6, 612165, Note_on_c, 1, 81, 88
6, 612187, Note_on_c, 1, 83, 0
6, 612223, Note_on_c, 1, 83, 98
6, 612283, Note_on_c, 1, 81, 0
6, 612322, Note_on_c, 1, 81, 92
6, 612341, Note_on_c, 1, 83, 0
6, 612388, Note_on_c, 1, 83, 86
6, 612440, Note_on_c, 1, 81, 0
6, 612481, Note_on_c, 1, 81, 93
6, 612484, Note_on_c, 1, 76, 0
6, 612495, Note_on_c, 1, 67, 0
6, 612500, Note_on_c, 1, 74, 90
6, 612501, Note_on_c, 1, 65, 80
6, 612506, Note_on_c, 1, 83, 0
6, 612556, Note_on_c, 1, 83, 88
6, 612599, Note_on_c, 1, 81, 0
6, 612640, Note_on_c, 1, 81, 94
6, 612674, Note_on_c, 1, 83, 0
6, 612721, Note_on_c, 1, 64, 86
6, 612722, Note_on_c, 1, 83, 83
6, 612740, Note_on_c, 1, 74, 0
6, 612741, Note_on_c, 1, 65, 0
6, 612742, Note_on_c, 1, 72, 83
6, 612758, Note_on_c, 1, 81, 0
6, 612802, Note_on_c, 1, 81, 96
6, 612840, Note_on_c, 1, 83, 0
6, 612871, Note_on_c, 1, 83, 90
6, 612920, Note_on_c, 1, 81, 0
6, 612946, Note_on_c, 1, 81, 82
6, 612961, Note_on_c, 1, 64, 0
6, 612964, Note_on_c, 1, 62, 89
6, 612970, Note_on_c, 1, 70, 82
6, 612982, Note_on_c, 1, 72, 0
6, 612989, Note_on_c, 1, 83, 0
6, 613039, Note_on_c, 1, 83, 85
6, 613064, Note_on_c, 1, 81, 0
6, 613120, Note_on_c, 1, 81, 85
6, 613157, Note_on_c, 1, 83, 0
6, 613202, Note_on_c, 1, 83, 80
6, 613238, Note_on_c, 1, 81, 0
6, 613283, Note_on_c, 1, 81, 80
6, 613320, Note_on_c, 1, 83, 0
6, 613353, Note_on_c, 1, 83, 84
6, 613401, Note_on_c, 1, 81, 0
6, 613419, Note_on_c, 1, 81, 93
6, 613444, Note_on_c, 1, 62, 0
6, 613447, Note_on_c, 1, 64, 89
6, 613447, Note_on_c, 1, 72, 88
6, 613450, Note_on_c, 1, 70, 0
6, 613471, Note_on_c, 1, 83, 0
6, 613523, Note_on_c, 1, 83, 85
6, 613537, Note_on_c, 1, 81, 0
6, 613599, Note_on_c, 1, 69, 86
6, 613602, Note_on_c, 1, 81, 89
6, 613641, Note_on_c, 1, 83, 0
6, 613652, Note_on_c, 1, 69, 0
6, 613653, Note_on_c, 1, 71, 85
6, 613666, Note_on_c, 1, 83, 88
6, 613680, Note_on_c, 1, 74, 96
6, 613687, Note_on_c, 1, 64, 0
6, 613687, Note_on_c, 1, 72, 0
6, 613697, Note_on_c, 1, 65, 88
6, 613706, Note_on_c, 1, 71, 0
6, 613706, Note_on_c, 1, 72, 85
6, 613720, Note_on_c, 1, 81, 0
6, 613757, Note_on_c, 1, 81, 98
6, 613758, Note_on_c, 1, 72, 0
6, 613767, Note_on_c, 1, 74, 81
6, 613784, Note_on_c, 1, 83, 0
6, 613800, Note_on_c, 1, 74, 0
6, 613800, Note_on_c, 1, 76, 78
6, 613825, Note_on_c, 1, 83, 78
6, 613839, Note_on_c, 1, 76, 0
6, 613839, Note_on_c, 1, 77, 84
6, 613875, Note_on_c, 1, 81, 0
6, 613878, Note_on_c, 1, 77, 0
6, 613879, Note_on_c, 1, 79, 93
6, 613914, Note_on_c, 1, 81, 98
6, 613919, Note_on_c, 1, 79, 0
6, 613927, Note_on_c, 1, 74, 0
6, 613937, Note_on_c, 1, 65, 0
6, 613937, Note_on_c, 1, 67, 89
6, 613941, Note_on_c, 1, 76, 93
6, 613943, Note_on_c, 1, 83, 0
6, 613983, Note_on_c, 1, 83, 83
6, 614032, Note_on_c, 1, 81, 0
6, 614073, Note_on_c, 1, 81, 84
6, 614101, Note_on_c, 1, 83, 0
6, 614154, Note_on_c, 1, 83, 91
6, 614191, Note_on_c, 1, 81, 0
6, 614226, Note_on_c, 1, 81, 94
6, 614272, Note_on_c, 1, 83, 0
6, 614317, Note_on_c, 1, 83, 94
6, 614344, Note_on_c, 1, 81, 0
6, 614386, Note_on_c, 1, 81, 79
6, 614435, Note_on_c, 1, 83, 0
6, 614475, Note_on_c, 1, 83, 79
6, 614504, Note_on_c, 1, 81, 0
6, 614535, Note_on_c, 1, 81, 87
6, 614593, Note_on_c, 1, 83, 0
6, 614617, Note_on_c, 1, 83, 84
6, 614642, Note_on_c, 1, 65, 80
6, 614653, Note_on_c, 1, 81, 0
6, 614655, Note_on_c, 1, 74, 84
6, 614657, Note_on_c, 1, 67, 0
6, 614661, Note_on_c, 1, 76, 0
6, 614705, Note_on_c, 1, 81, 96
6, 614735, Note_on_c, 1, 83, 0
6, 614795, Note_on_c, 1, 83, 87
6, 614823, Note_on_c, 1, 81, 0
6, 614856, Note_on_c, 1, 81, 80
6, 614882, Note_on_c, 1, 65, 0
6, 614887, Note_on_c, 1, 64, 83
6, 614895, Note_on_c, 1, 74, 0
6, 614901, Note_on_c, 1, 72, 82
6, 614913, Note_on_c, 1, 83, 0
6, 614941, Note_on_c, 1, 83, 82
6, 614974, Note_on_c, 1, 81, 0
6, 615037, Note_on_c, 1, 81, 86
6, 615059, Note_on_c, 1, 83, 0
6, 615103, Note_on_c, 1, 83, 84
6, 615127, Note_on_c, 1, 64, 0
6, 615135, Note_on_c, 1, 70, 83
6, 615141, Note_on_c, 1, 72, 0
6, 615141, Note_on_c, 1, 62, 80
6, 615155, Note_on_c, 1, 81, 0
6, 615196, Note_on_c, 1, 81, 98
6, 615221, Note_on_c, 1, 83, 0
6, 615259, Note_on_c, 1, 83, 81
6, 615314, Note_on_c, 1, 81, 0
6, 615337, Note_on_c, 1, 81, 95
6, 615360, Note_on_c, 1, 64, 79
6, 615373, Note_on_c, 1, 72, 93
6, 615375, Note_on_c, 1, 70, 0
6, 615377, Note_on_c, 1, 83, 0
6, 615381, Note_on_c, 1, 62, 0
6, 615434, Note_on_c, 1, 83, 97
6, 615455, Note_on_c, 1, 81, 0
6, 615496, Note_on_c, 1, 81, 93
6, 615552, Note_on_c, 1, 83, 0
6, 615582, Note_on_c, 1, 83, 84
6, 615600, Note_on_c, 1, 64, 0
6, 615613, Note_on_c, 1, 72, 0
6, 615614, Note_on_c, 1, 81, 0
6, 615617, Note_on_c, 1, 65, 78
6, 615619, Note_on_c, 1, 74, 78
6, 615664, Note_on_c, 1, 81, 93
6, 615700, Note_on_c, 1, 83, 0
6, 615744, Note_on_c, 1, 83, 78
6, 615782, Note_on_c, 1, 81, 0
6, 615820, Note_on_c, 1, 81, 93
6, 615857, Note_on_c, 1, 65, 0
6, 615858, Note_on_c, 1, 67, 91
6, 615858, Note_on_c, 1, 76, 92
6, 615859, Note_on_c, 1, 74, 0
6, 615862, Note_on_c, 1, 83, 0
6, 615892, Note_on_c, 1, 83, 89
6, 615938, Note_on_c, 1, 81, 0
6, 615983, Note_on_c, 1, 81, 94
6, 616010, Note_on_c, 1, 83, 0
6, 616070, Note_on_c, 1, 83, 91
6, 616101, Note_on_c, 1, 81, 0
6, 616138, Note_on_c, 1, 81, 82
6, 616188, Note_on_c, 1, 83, 0
6, 616213, Note_on_c, 1, 83, 80
6, 616256, Note_on_c, 1, 81, 0
6, 616308, Note_on_c, 1, 81, 90
6, 616320, Note_on_c, 1, 65, 84
6, 616331, Note_on_c, 1, 83, 0
6, 616338, Note_on_c, 1, 67, 0
6, 616338, Note_on_c, 1, 76, 0
6, 616338, Note_on_c, 1, 74, 98
6, 616388, Note_on_c, 1, 83, 85
6, 616426, Note_on_c, 1, 81, 0
6, 616464, Note_on_c, 1, 81, 83
6, 616506, Note_on_c, 1, 83, 0
6, 616543, Note_on_c, 1, 83, 78
6, 616560, Note_on_c, 1, 65, 0
6, 616578, Note_on_c, 1, 74, 0
6, 616582, Note_on_c, 1, 81, 0
6, 616582, Note_on_c, 1, 72, 88
6, 616584, Note_on_c, 1, 64, 79
6, 616625, Note_on_c, 1, 81, 84
6, 616661, Note_on_c, 1, 83, 0
6, 616701, Note_on_c, 1, 83, 86
6, 616743, Note_on_c, 1, 81, 0
6, 616778, Note_on_c, 1, 81, 91
6, 616808, Note_on_c, 1, 62, 81
6, 616808, Note_on_c, 1, 70, 82
6, 616819, Note_on_c, 1, 83, 0
6, 616822, Note_on_c, 1, 72, 0
6, 616824, Note_on_c, 1, 64, 0
6, 616866, Note_on_c, 1, 83, 89
6, 616896, Note_on_c, 1, 81, 0
6, 616930, Note_on_c, 1, 81, 78
6, 616984, Note_on_c, 1, 83, 0
6, 617010, Note_on_c, 1, 83, 87
6, 617048, Note_on_c, 1, 81, 0
6, 617098, Note_on_c, 1, 81, 95
6, 617128, Note_on_c, 1, 83, 0
6, 617176, Note_on_c, 1, 83, 84
6, 617216, Note_on_c, 1, 81, 0
6, 617268, Note_on_c, 1, 81, 88
6, 617288, Note_on_c, 1, 62, 0
6, 617288, Note_on_c, 1, 70, 0
6, 617289, Note_on_c, 1, 72, 90
6, 617290, Note_on_c, 1, 64, 79
6, 617294, Note_on_c, 1, 83, 0
6, 617323, Note_on_c, 1, 83, 98
6, 617386, Note_on_c, 1, 81, 0
6, 617409, Note_on_c, 1, 81, 88
6, 617441, Note_on_c, 1, 83, 0
6, 617497, Note_on_c, 1, 83, 96
6, 617526, Note_on_c, 1, 65, 83
6, 617527, Note_on_c, 1, 81, 0
6, 617529, Note_on_c, 1, 72, 0
6, 617529, Note_on_c, 1, 74, 84
6, 617530, Note_on_c, 1, 64, 0
6, 617582, Note_on_c, 1, 81, 88
6, 617615, Note_on_c, 1, 83, 0
6, 617664, Note_on_c, 1, 83, 79
6, 617700, Note_on_c, 1, 81, 0
6, 617722, Note_on_c, 1, 81, 85
6, 617766, Note_on_c, 1, 65, 0
6, 617769, Note_on_c, 1, 74, 0
6, 617770, Note_on_c, 1, 67, 95
6, 617782, Note_on_c, 1, 83, 0
6, 617784, Note_on_c, 1, 76, 92
6, 617806, Note_on_c, 1, 83, 92
6, 617840, Note_on_c, 1, 81, 0
6, 617896, Note_on_c, 1, 81, 89
6, 617924, Note_on_c, 1, 83, 0
6, 617977, Note_on_c, 1, 83, 95
6, 618014, Note_on_c, 1, 81, 0
6, 618047, Note_on_c, 1, 81, 98
6, 618095, Note_on_c, 1, 83, 0
6, 618133, Note_on_c, 1, 83, 82
6, 618165, Note_on_c, 1, 81, 0
6, 618212, Note_on_c, 1, 81, 97
6, 618243, Note_on_c, 1, 65, 96
6, 618250, Note_on_c, 1, 67, 0
6, 618250, Note_on_c, 1, 74, 92
6, 618251, Note_on_c, 1, 83, 0
6, 618264, Note_on_c, 1, 76, 0
6, 618295, Note_on_c, 1, 83, 91
6, 618330, Note_on_c, 1, 81, 0
6, 618370, Note_on_c, 1, 81, 83
6, 618413, Note_on_c, 1, 83, 0
6, 618459, Note_on_c, 1, 83, 80
6, 618483, Note_on_c, 1, 65, 0
6, 618488, Note_on_c, 1, 81, 0
6, 618488, Note_on_c, 1, 72, 86
6, 618490, Note_on_c, 1, 74, 0
6, 618500, Note_on_c, 1, 64, 86
6, 618540, Note_on_c, 1, 81, 95
6, 618577, Note_on_c, 1, 83, 0
6, 618621, Note_on_c, 1, 83, 92
6, 618658, Note_on_c, 1, 81, 0
6, 618703, Note_on_c, 1, 81, 86
6, 618728, Note_on_c, 1, 72, 0
6, 618739, Note_on_c, 1, 83, 0
6, 618740, Note_on_c, 1, 64, 0
6, 618743, Note_on_c, 1, 70, 90
6, 618744, Note_on_c, 1, 62, 97
6, 618781, Note_on_c, 1, 83, 94
6, 618821, Note_on_c, 1, 81, 0
6, 618838, Note_on_c, 1, 81, 95
6, 618899, Note_on_c, 1, 83, 0
6, 618929, Note_on_c, 1, 83, 82
6, 618956, Note_on_c, 1, 81, 0
6, 619022, Note_on_c, 1, 81, 89
6, 619047, Note_on_c, 1, 83, 0
6, 619099, Note_on_c, 1, 83, 95
6, 619140, Note_on_c, 1, 81, 0
6, 619178, Note_on_c, 1, 81, 89
6, 619212, Note_on_c, 1, 72, 82
6, 619215, Note_on_c, 1, 64, 82
6, 619217, Note_on_c, 1, 83, 0
6, 619223, Note_on_c, 1, 70, 0
6, 619224, Note_on_c, 1, 62, 0
6, 619241, Note_on_c, 1, 83, 95
6, 619296, Note_on_c, 1, 81, 0
6, 619322, Note_on_c, 1, 81, 87
6, 619359, Note_on_c, 1, 83, 0
6, 619400, Note_on_c, 1, 83, 85
6, 619440, Note_on_c, 1, 81, 0
6, 619452, Note_on_c, 1, 72, 0
6, 619455, Note_on_c, 1, 64, 0
6, 619455, Note_on_c, 1, 74, 80
6, 619462, Note_on_c, 1, 65, 79
6, 619485, Note_on_c, 1, 81, 80
6, 619518, Note_on_c, 1, 83, 0
6, 619580, Note_on_c, 1, 83, 98
6, 619603, Note_on_c, 1, 81, 0
6, 619636, Note_on_c, 1, 81, 96
6, 619686, Note_on_c, 1, 76, 88
6, 619695, Note_on_c, 1, 74, 0
6, 619698, Note_on_c, 1, 83, 0
6, 619700, Note_on_c, 1, 67, 84
6, 619702, Note_on_c, 1, 65, 0
6, 619731, Note_on_c, 1, 83, 88
6, 619754, Note_on_c, 1, 81, 0
6, 619808, Note_on_c, 1, 81, 98
6, 619849, Note_on_c, 1, 83, 0
6, 619894, Note_on_c, 1, 83, 87
6, 619926, Note_on_c, 1, 81, 0
6, 619954, Note_on_c, 1, 81, 80
6, 620012, Note_on_c, 1, 83, 0
6, 620036, Note_on_c, 1, 83, 98
6, 620072, Note_on_c, 1, 81, 0
6, 620119, Note_on_c, 1, 81, 96
6, 620154, Note_on_c, 1, 83, 0
6, 620206, Note_on_c, 1, 83, 92
6, 620237, Note_on_c, 1, 81, 0
6, 620289, Note_on_c, 1, 81, 97
6, 620324, Note_on_c, 1, 83, 0
6, 620356, Note_on_c, 1, 83, 89
6, 620406, Note_on_c, 1, 76, 0
6, 620407, Note_on_c, 1, 81, 0
6, 620420, Note_on_c, 1, 67, 0
6, 620420, Note_on_c, 1, 65, 96
6, 620425, Note_on_c, 1, 74, 94
6, 620450, Note_on_c, 1, 81, 92
6, 620474, Note_on_c, 1, 83, 0
6, 620534, Note_on_c, 1, 83, 81
6, 620568, Note_on_c, 1, 81, 0
6, 620612, Note_on_c, 1, 81, 86
6, 620640, Note_on_c, 1, 64, 84
6, 620645, Note_on_c, 1, 72, 93
6, 620652, Note_on_c, 1, 83, 0
6, 620660, Note_on_c, 1, 65, 0
6, 620665, Note_on_c, 1, 74, 0
6, 620685, Note_on_c, 1, 83, 83
6, 620730, Note_on_c, 1, 81, 0
6, 620758, Note_on_c, 1, 81, 85
6, 620803, Note_on_c, 1, 83, 0
6, 620835, Note_on_c, 1, 83, 88
6, 620876, Note_on_c, 1, 81, 0
6, 620880, Note_on_c, 1, 64, 0
6, 620883, Note_on_c, 1, 62, 86
6, 620885, Note_on_c, 1, 72, 0
6, 620898, Note_on_c, 1, 70, 80
6, 620920, Note_on_c, 1, 81, 88
6, 620953, Note_on_c, 1, 83, 0
6, 621005, Note_on_c, 1, 83, 82
6, 621038, Note_on_c, 1, 81, 0
6, 621075, Note_on_c, 1, 81, 88
6, 621123, Note_on_c, 1, 62, 0
6, 621123, Note_on_c, 1, 83, 0
6, 621128, Note_on_c, 1, 64, 91
6, 621136, Note_on_c, 1, 72, 84
6, 621138, Note_on_c, 1, 70, 0
6, 621172, Note_on_c, 1, 83, 82
6, 621193, Note_on_c, 1, 81, 0
6, 621238, Note_on_c, 1, 81, 97
6, 621290, Note_on_c, 1, 83, 0
6, 621311, Note_on_c, 1, 83, 85
6, 621356, Note_on_c, 1, 81, 0
6, 621368, Note_on_c, 1, 64, 0
6, 621376, Note_on_c, 1, 72, 0
6, 621379, Note_on_c, 1, 74, 92
6, 621383, Note_on_c, 1, 65, 81
6, 621390, Note_on_c, 1, 81, 80
6, 621429, Note_on_c, 1, 83, 0
6, 621471, Note_on_c, 1, 83, 84
6, 621508, Note_on_c, 1, 81, 0
6, 621559, Note_on_c, 1, 81, 84
6, 621589, Note_on_c, 1, 83, 0
6, 621607, Note_on_c, 1, 67, 93
6, 621614, Note_on_c, 1, 76, 97
6, 621619, Note_on_c, 1, 74, 0
6, 621623, Note_on_c, 1, 65, 0
6, 621648, Note_on_c, 1, 83, 94
6, 621677, Note_on_c, 1, 81, 0
6, 621718, Note_on_c, 1, 81, 88
6, 621766, Note_on_c, 1, 83, 0
6, 621790, Note_on_c, 1, 83, 83
6, 621836, Note_on_c, 1, 81, 0
6, 621873, Note_on_c, 1, 81, 93
6, 621908, Note_on_c, 1, 83, 0
6, 621966, Note_on_c, 1, 83, 89
6, 621991, Note_on_c, 1, 81, 0
6, 622026, Note_on_c, 1, 81, 94
6, 622084, Note_on_c, 1, 83, 0
6, 622087, Note_on_c, 1, 67, 0
6, 622092, Note_on_c, 1, 74, 87
6, 622094, Note_on_c, 1, 76, 0
6, 622099, Note_on_c, 1, 65, 83
6, 622116, Note_on_c, 1, 83, 78
6, 622144, Note_on_c, 1, 81, 0
6, 622196, Note_on_c, 1, 81, 79
6, 622234, Note_on_c, 1, 83, 0
6, 622278, Note_on_c, 1, 83, 93
6, 622314, Note_on_c, 1, 81, 0
6, 622332, Note_on_c, 1, 74, 0
6, 622336, Note_on_c, 1, 64, 89
6, 622338, Note_on_c, 1, 72, 87
6, 622339, Note_on_c, 1, 65, 0
6, 622364, Note_on_c, 1, 81, 80
6, 622396, Note_on_c, 1, 83, 0
6, 622428, Note_on_c, 1, 83, 92
6, 622482, Note_on_c, 1, 81, 0
6, 622519, Note_on_c, 1, 81, 85
6, 622546, Note_on_c, 1, 83, 0
6, 622567, Note_on_c, 1, 70, 95
6, 622573, Note_on_c, 1, 62, 88
6, 622576, Note_on_c, 1, 64, 0
6, 622578, Note_on_c, 1, 72, 0
6, 622608, Note_on_c, 1, 83, 89
6, 622637, Note_on_c, 1, 81, 0
6, 622688, Note_on_c, 1, 81, 85
6, 622726, Note_on_c, 1, 83, 0
6, 622806, Note_on_c, 1, 81, 0
6, 623047, Note_on_c, 1, 70, 0
6, 623053, Note_on_c, 1, 62, 0
6, 623520, Note_on_c, 1, 73, 79
6, 623520, Note_on_c, 1, 79, 78
6, 623520, Note_on_c, 1, 67, 82
6, 623551, Note_on_c, 1, 67, 0
6, 623558, Note_on_c, 1, 73, 0
6, 623558, Note_on_c, 1, 79, 0
6, 623600, Note_on_c, 1, 68, 96
6, 623615, Note_on_c, 1, 74, 80
6, 623615, Note_on_c, 1, 80, 84
6, 623631, Note_on_c, 1, 68, 0
6, 623653, Note_on_c, 1, 74, 0
6, 623653, Note_on_c, 1, 80, 0
6, 623679, Note_on_c, 1, 69, 85
6, 623711, Note_on_c, 1, 69, 0
6, 623711, Note_on_c, 1, 75, 80
6, 623711, Note_on_c, 1, 81, 95
6, 623749, Note_on_c, 1, 75, 0
6, 623749, Note_on_c, 1, 81, 0
6, 623760, Note_on_c, 1, 70, 98
6, 623791, Note_on_c, 1, 70, 0
6, 623807, Note_on_c, 1, 76, 98
6, 623807, Note_on_c, 1, 82, 85
6, 623840, Note_on_c, 1, 71, 95
6, 623845, Note_on_c, 1, 76, 0
6, 623845, Note_on_c, 1, 82, 0
6, 623871, Note_on_c, 1, 71, 0
6, 623903, Note_on_c, 1, 77, 78
6, 623903, Note_on_c, 1, 83, 95
6, 623919, Note_on_c, 1, 72, 85
6, 623941, Note_on_c, 1, 77, 0
6, 623941, Note_on_c, 1, 83, 0
6, 623951, Note_on_c, 1, 72, 0
6, 624003, Note_on_c, 1, 78, 90
6, 624012, Note_on_c, 1, 72, 97
6, 624025, Note_on_c, 1, 84, 94
6, 624098, Note_on_c, 1, 78, 0
6, 624107, Note_on_c, 1, 72, 0
6, 624120, Note_on_c, 1, 84, 0
6, 639255, Note_on_c, 1, 72, 104
6, 639263, Note_on_c, 1, 66, 102
6, 639362, Note_on_c, 1, 71, 103
6, 639375, Note_on_c, 1, 72, 0
6, 639383, Note_on_c, 1, 66, 0
6, 639385, Note_on_c, 1, 65, 91
6, 639602, Note_on_c, 1, 71, 0
6, 639625, Note_on_c, 1, 65, 0
6, 640217, Note_on_c, 1, 67, 92
6, 640223, Note_on_c, 1, 73, 102
6, 640324, Note_on_c, 1, 65, 91
6, 640333, Note_on_c, 1, 71, 103
6, 640337, Note_on_c, 1, 67, 0
6, 640343, Note_on_c, 1, 73, 0
6, 640564, Note_on_c, 1, 65, 0
6, 640573, Note_on_c, 1, 71, 0
6, 641167, Note_on_c, 1, 74, 98
6, 641177, Note_on_c, 1, 68, 102
6, 641287, Note_on_c, 1, 74, 0
6, 641292, Note_on_c, 1, 66, 93
6, 641292, Note_on_c, 1, 72, 105
6, 641297, Note_on_c, 1, 68, 0
6, 641532, Note_on_c, 1, 66, 0
6, 641532, Note_on_c, 1, 72, 0
6, 642121, Note_on_c, 1, 67, 100
6, 642136, Note_on_c, 1, 73, 100
6, 642241, Note_on_c, 1, 67, 0
6, 642250, Note_on_c, 1, 72, 86
6, 642256, Note_on_c, 1, 73, 0
6, 642262, Note_on_c, 1, 66, 86
6, 642490, Note_on_c, 1, 72, 0
6, 642502, Note_on_c, 1, 66, 0
6, 643082, Note_on_c, 1, 66, 87
6, 643101, Note_on_c, 1, 72, 85
6, 643202, Note_on_c, 1, 66, 0
6, 643212, Note_on_c, 1, 65, 101
6, 643217, Note_on_c, 1, 71, 86
6, 643221, Note_on_c, 1, 72, 0
6, 643452, Note_on_c, 1, 65, 0
6, 643457, Note_on_c, 1, 71, 0
6, 644055, Note_on_c, 1, 73, 85
6, 644059, Note_on_c, 1, 67, 95
6, 644175, Note_on_c, 1, 73, 0
6, 644175, Note_on_c, 1, 71, 89
6, 644179, Note_on_c, 1, 67, 0
6, 644181, Note_on_c, 1, 65, 104
6, 644415, Note_on_c, 1, 71, 0
6, 644421, Note_on_c, 1, 65, 0
6, 645010, Note_on_c, 1, 73, 85
6, 645014, Note_on_c, 1, 67, 94
6, 645123, Note_on_c, 1, 71, 87
6, 645130, Note_on_c, 1, 73, 0
6, 645134, Note_on_c, 1, 67, 0
6, 645136, Note_on_c, 1, 65, 100
6, 645363, Note_on_c, 1, 71, 0
6, 645376, Note_on_c, 1, 65, 0
6, 645966, Note_on_c, 1, 75, 86
6, 645975, Note_on_c, 1, 69, 92
6, 646086, Note_on_c, 1, 75, 0
6, 646092, Note_on_c, 1, 68, 86
6, 646095, Note_on_c, 1, 69, 0
6, 646096, Note_on_c, 1, 74, 103
6, 646332, Note_on_c, 1, 68, 0
6, 646336, Note_on_c, 1, 74, 0
6, 646921, Note_on_c, 1, 72, 100
6, 646935, Note_on_c, 1, 66, 103
6, 647041, Note_on_c, 1, 72, 0
6, 647045, Note_on_c, 1, 71, 105
6, 647055, Note_on_c, 1, 66, 0
6, 647057, Note_on_c, 1, 65, 88
6, 647285, Note_on_c, 1, 71, 0
6, 647297, Note_on_c, 1, 65, 0
6, 647892, Note_on_c, 1, 73, 85
6, 647904, Note_on_c, 1, 67, 102
6, 648005, Note_on_c, 1, 71, 90
6, 648012, Note_on_c, 1, 73, 0
6, 648024, Note_on_c, 1, 67, 0
6, 648024, Note_on_c, 1, 65, 86
6, 648245, Note_on_c, 1, 71, 0
6, 648264, Note_on_c, 1, 65, 0
6, 648841, Note_on_c, 1, 74, 86
6, 648847, Note_on_c, 1, 68, 102
6, 648961, Note_on_c, 1, 74, 0
6, 648965, Note_on_c, 1, 72, 101
6, 648967, Note_on_c, 1, 68, 0
6, 648968, Note_on_c, 1, 66, 88
6, 649205, Note_on_c, 1, 72, 0
6, 649208, Note_on_c, 1, 66, 0
6, 649802, Note_on_c, 1, 73, 105
6, 649808, Note_on_c, 1, 67, 88
6, 649922, Note_on_c, 1, 73, 0
6, 649923, Note_on_c, 1, 66, 90
6, 649928, Note_on_c, 1, 67, 0
6, 649937, Note_on_c, 1, 72, 90
6, 650163, Note_on_c, 1, 66, 0
6, 650177, Note_on_c, 1, 72, 0
6, 650778, Note_on_c, 1, 72, 104
6, 650783, Note_on_c, 1, 66, 92
6, 650897, Note_on_c, 1, 65, 95
6, 650898, Note_on_c, 1, 72, 0
6, 650898, Note_on_c, 1, 71, 101
6, 650903, Note_on_c, 1, 66, 0
6, 651137, Note_on_c, 1, 65, 0
6, 651138, Note_on_c, 1, 71, 0
6, 651721, Note_on_c, 1, 73, 94
6, 651741, Note_on_c, 1, 67, 98
6, 651840, Note_on_c, 1, 65, 105
6, 651841, Note_on_c, 1, 73, 0
6, 651854, Note_on_c, 1, 71, 86
6, 651861, Note_on_c, 1, 67, 0
6, 652080, Note_on_c, 1, 65, 0
6, 652094, Note_on_c, 1, 71, 0
6, 652682, Note_on_c, 1, 73, 96
6, 652686, Note_on_c, 1, 67, 101
6, 652802, Note_on_c, 1, 73, 0
6, 652806, Note_on_c, 1, 67, 0
6, 652807, Note_on_c, 1, 65, 95
6, 652818, Note_on_c, 1, 71, 96
6, 653047, Note_on_c, 1, 65, 0
6, 653058, Note_on_c, 1, 71, 0
6, 653651, Note_on_c, 1, 75, 93
6, 653665, Note_on_c, 1, 69, 98
6, 653766, Note_on_c, 1, 74, 101
6, 653771, Note_on_c, 1, 75, 0
6, 653783, Note_on_c, 1, 68, 87
6, 653785, Note_on_c, 1, 69, 0
6, 654006, Note_on_c, 1, 74, 0
6, 654023, Note_on_c, 1, 68, 0
6, 654602, Note_on_c, 1, 77, 104
6, 654622, Note_on_c, 1, 71, 103
6, 654722, Note_on_c, 1, 77, 0
6, 654729, Note_on_c, 1, 75, 101
6, 654740, Note_on_c, 1, 69, 106
6, 654742, Note_on_c, 1, 71, 0
6, 654969, Note_on_c, 1, 75, 0
6, 654980, Note_on_c, 1, 69, 0
6, 655570, Note_on_c, 1, 73, 92
6, 655583, Note_on_c, 1, 79, 96
6, 655690, Note_on_c, 1, 73, 0
6, 655698, Note_on_c, 1, 77, 95
6, 655703, Note_on_c, 1, 79, 0
6, 655705, Note_on_c, 1, 71, 104
6, 655938, Note_on_c, 1, 77, 0
6, 655945, Note_on_c, 1, 71, 0
6, 656529, Note_on_c, 1, 83, 96
6, 656530, Note_on_c, 1, 77, 96
6, 656647, Note_on_c, 1, 75, 108
6, 656648, Note_on_c, 1, 81, 91
6, 656649, Note_on_c, 1, 83, 0
6, 656650, Note_on_c, 1, 77, 0
6, 656887, Note_on_c, 1, 75, 0
6, 656888, Note_on_c, 1, 81, 0
6, 657501, Note_on_c, 1, 85, 92
6, 657503, Note_on_c, 1, 79, 102
6, 657611, Note_on_c, 1, 84, 103
6, 657621, Note_on_c, 1, 85, 0
6, 657623, Note_on_c, 1, 79, 0
6, 657624, Note_on_c, 1, 78, 97
6, 657851, Note_on_c, 1, 84, 0
6, 657864, Note_on_c, 1, 78, 0
6, 658447, Note_on_c, 1, 71, 108
6, 658456, Note_on_c, 1, 77, 95
6, 658565, Note_on_c, 1, 69, 92
6, 658567, Note_on_c, 1, 71, 0
6, 658576, Note_on_c, 1, 77, 0
6, 658578, Note_on_c, 1, 75, 102
6, 658805, Note_on_c, 1, 69, 0
6, 658818, Note_on_c, 1, 75, 0
6, 659400, Note_on_c, 1, 79, 109
6, 659411, Note_on_c, 1, 73, 94
6, 659520, Note_on_c, 1, 79, 0
6, 659531, Note_on_c, 1, 73, 0
6, 659533, Note_on_c, 1, 77, 94
6, 659537, Note_on_c, 1, 71, 96
6, 659773, Note_on_c, 1, 77, 0
6, 659777, Note_on_c, 1, 71, 0
6, 660364, Note_on_c, 1, 77, 102
6, 660380, Note_on_c, 1, 83, 101
6, 660484, Note_on_c, 1, 77, 0
6, 660498, Note_on_c, 1, 81, 107
6, 660500, Note_on_c, 1, 83, 0
6, 660502, Note_on_c, 1, 75, 106
6, 660738, Note_on_c, 1, 81, 0
6, 660742, Note_on_c, 1, 75, 0
6, 661324, Note_on_c, 1, 85, 94
6, 661333, Note_on_c, 1, 79, 92
6, 661444, Note_on_c, 1, 85, 0
6, 661446, Note_on_c, 1, 78, 93
6, 661453, Note_on_c, 1, 79, 0
6, 661459, Note_on_c, 1, 84, 91
6, 661686, Note_on_c, 1, 78, 0
6, 661699, Note_on_c, 1, 84, 0
6, 662298, Note_on_c, 1, 71, 97
6, 662299, Note_on_c, 1, 78, 91
6, 662416, Note_on_c, 1, 69, 110
6, 662418, Note_on_c, 1, 71, 0
6, 662419, Note_on_c, 1, 78, 0
6, 662421, Note_on_c, 1, 75, 109
6, 662656, Note_on_c, 1, 69, 0
6, 662661, Note_on_c, 1, 75, 0
6, 663247, Note_on_c, 1, 73, 111
6, 663260, Note_on_c, 1, 79, 99
6, 663367, Note_on_c, 1, 73, 0
6, 663379, Note_on_c, 1, 71, 111
6, 663380, Note_on_c, 1, 79, 0
6, 663383, Note_on_c, 1, 77, 91
6, 663619, Note_on_c, 1, 71, 0
6, 663623, Note_on_c, 1, 77, 0
6, 664214, Note_on_c, 1, 83, 102
6, 664218, Note_on_c, 1, 77, 94
6, 664334, Note_on_c, 1, 83, 0
6, 664336, Note_on_c, 1, 81, 97
6, 664338, Note_on_c, 1, 77, 0
6, 664340, Note_on_c, 1, 75, 109
6, 664576, Note_on_c, 1, 81, 0
6, 664580, Note_on_c, 1, 75, 0
6, 665164, Note_on_c, 1, 79, 109
6, 665182, Note_on_c, 1, 85, 111
6, 665284, Note_on_c, 1, 79, 0
6, 665286, Note_on_c, 1, 84, 101
6, 665291, Note_on_c, 1, 78, 96
6, 665302, Note_on_c, 1, 85, 0
6, 665526, Note_on_c, 1, 84, 0
6, 665531, Note_on_c, 1, 78, 0
6, 666129, Note_on_c, 1, 77, 109
6, 666140, Note_on_c, 1, 71, 104
6, 666249, Note_on_c, 1, 77, 0
6, 666250, Note_on_c, 1, 75, 106
6, 666260, Note_on_c, 1, 71, 0
6, 666262, Note_on_c, 1, 69, 107
6, 666490, Note_on_c, 1, 75, 0
6, 666502, Note_on_c, 1, 69, 0
6, 667083, Note_on_c, 1, 79, 103
6, 667090, Note_on_c, 1, 73, 106
6, 667200, Note_on_c, 1, 71, 97
6, 667203, Note_on_c, 1, 79, 0
6, 667210, Note_on_c, 1, 73, 0
6, 667224, Note_on_c, 1, 77, 101
6, 667440, Note_on_c, 1, 71, 0
6, 667464, Note_on_c, 1, 77, 0
6, 668042, Note_on_c, 1, 83, 109
6, 668062, Note_on_c, 1, 77, 106
6, 668161, Note_on_c, 1, 81, 91
6, 668162, Note_on_c, 1, 83, 0
6, 668181, Note_on_c, 1, 75, 91
6, 668182, Note_on_c, 1, 77, 0
6, 668401, Note_on_c, 1, 81, 0
6, 668421, Note_on_c, 1, 75, 0
6, 669018, Note_on_c, 1, 79, 99
6, 669025, Note_on_c, 1, 85, 97
6, 669120, Note_on_c, 1, 78, 97
6, 669138, Note_on_c, 1, 79, 0
6, 669141, Note_on_c, 1, 84, 102
6, 669145, Note_on_c, 1, 85, 0
6, 669360, Note_on_c, 1, 78, 0
6, 669381, Note_on_c, 1, 84, 0
6, 669962, Note_on_c, 1, 71, 95
6, 669976, Note_on_c, 1, 77, 107
6, 670082, Note_on_c, 1, 71, 0
6, 670093, Note_on_c, 1, 69, 98
6, 670096, Note_on_c, 1, 77, 0
6, 670103, Note_on_c, 1, 75, 94
6, 670333, Note_on_c, 1, 69, 0
6, 670343, Note_on_c, 1, 75, 0
6, 670922, Note_on_c, 1, 73, 101
6, 670940, Note_on_c, 1, 79, 107
6, 671041, Note_on_c, 1, 77, 111
6, 671042, Note_on_c, 1, 73, 0
6, 671046, Note_on_c, 1, 71, 103
6, 671060, Note_on_c, 1, 79, 0
6, 671281, Note_on_c, 1, 77, 0
6, 671286, Note_on_c, 1, 71, 0
6, 671892, Note_on_c, 1, 83, 109
6, 671895, Note_on_c, 1, 77, 92
6, 672002, Note_on_c, 1, 81, 93
6, 672006, Note_on_c, 1, 75, 91
6, 672012, Note_on_c, 1, 83, 0
6, 672015, Note_on_c, 1, 77, 0
6, 672242, Note_on_c, 1, 81, 0
6, 672246, Note_on_c, 1, 75, 0
6, 672848, Note_on_c, 1, 85, 109
6, 672863, Note_on_c, 1, 79, 107
6, 672963, Note_on_c, 1, 84, 102
6, 672968, Note_on_c, 1, 85, 0
6, 672970, Note_on_c, 1, 78, 92
6, 672983, Note_on_c, 1, 79, 0
6, 673203, Note_on_c, 1, 84, 0
6, 673210, Note_on_c, 1, 78, 0
6, 673809, Note_on_c, 1, 77, 98
6, 673817, Note_on_c, 1, 71, 111
6, 673929, Note_on_c, 1, 77, 0
6, 673933, Note_on_c, 1, 69, 105
6, 673934, Note_on_c, 1, 75, 92
6, 673937, Note_on_c, 1, 71, 0
6, 674173, Note_on_c, 1, 69, 0
6, 674174, Note_on_c, 1, 75, 0
6, 674766, Note_on_c, 1, 79, 95
6, 674783, Note_on_c, 1, 73, 96
6, 674886, Note_on_c, 1, 79, 0
6, 674900, Note_on_c, 1, 71, 109
6, 674903, Note_on_c, 1, 73, 0
6, 674903, Note_on_c, 1, 77, 96
6, 675140, Note_on_c, 1, 71, 0
6, 675143, Note_on_c, 1, 77, 0
6, 675726, Note_on_c, 1, 83, 92
6, 675737, Note_on_c, 1, 77, 110
6, 675846, Note_on_c, 1, 83, 0
6, 675852, Note_on_c, 1, 81, 99
6, 675856, Note_on_c, 1, 75, 107
6, 675857, Note_on_c, 1, 77, 0
6, 676092, Note_on_c, 1, 81, 0
6, 676096, Note_on_c, 1, 75, 0
6, 676690, Note_on_c, 1, 79, 94
6, 676696, Note_on_c, 1, 85, 111
6, 676805, Note_on_c, 1, 78, 95
6, 676810, Note_on_c, 1, 79, 0
6, 676816, Note_on_c, 1, 85, 0
6, 676820, Note_on_c, 1, 84, 99
6, 677045, Note_on_c, 1, 78, 0
6, 677060, Note_on_c, 1, 84, 0
6, 690240, Note_on_c, 1, 79, 106
6, 690256, Note_on_c, 1, 67, 111
6, 690261, Note_on_c, 1, 76, 112
6, 690600, Note_on_c, 1, 79, 0
6, 690616, Note_on_c, 1, 67, 0
6, 690621, Note_on_c, 1, 76, 0
6, 691214, Note_on_c, 1, 79, 99
6, 691218, Note_on_c, 1, 67, 100
6, 691223, Note_on_c, 1, 76, 106
6, 691574, Note_on_c, 1, 79, 0
6, 691578, Note_on_c, 1, 67, 0
6, 691583, Note_on_c, 1, 76, 0
6, 692401, Note_on_c, 1, 67, 99
6, 692407, Note_on_c, 1, 76, 107
6, 692421, Note_on_c, 1, 79, 110
6, 692641, Note_on_c, 1, 67, 0
6, 692647, Note_on_c, 1, 76, 0
6, 692661, Note_on_c, 1, 79, 0
6, 693125, Note_on_c, 1, 79, 108
6, 693131, Note_on_c, 1, 76, 99
6, 693140, Note_on_c, 1, 67, 102
6, 693485, Note_on_c, 1, 79, 0
6, 693491, Note_on_c, 1, 76, 0
6, 693500, Note_on_c, 1, 67, 0
6, 694080, Note_on_c, 1, 74, 112
6, 694083, Note_on_c, 1, 78, 95
6, 694094, Note_on_c, 1, 86, 113
6, 694440, Note_on_c, 1, 74, 0
6, 694443, Note_on_c, 1, 78, 0
6, 694454, Note_on_c, 1, 86, 0
6, 694572, Note_on_c, 1, 76, 102
6, 694581, Note_on_c, 1, 80, 103
6, 694584, Note_on_c, 1, 88, 115
6, 694687, Note_on_c, 1, 76, 0
6, 694696, Note_on_c, 1, 80, 0
6, 694699, Note_on_c, 1, 88, 0
6, 694751, Note_on_c, 1, 74, 115
6, 694759, Note_on_c, 1, 78, 107
6, 694770, Note_on_c, 1, 86, 105
6, 694866, Note_on_c, 1, 74, 0
6, 694874, Note_on_c, 1, 78, 0
6, 694885, Note_on_c, 1, 86, 0
6, 694950, Note_on_c, 1, 84, 99
6, 694951, Note_on_c, 1, 72, 102
6, 694962, Note_on_c, 1, 76, 96
6, 695065, Note_on_c, 1, 84, 0
6, 695066, Note_on_c, 1, 72, 0
6, 695077, Note_on_c, 1, 76, 0
6, 695140, Note_on_c, 1, 83, 97
6, 695153, Note_on_c, 1, 71, 111
6, 695155, Note_on_c, 1, 74, 114
6, 695254, Note_on_c, 1, 83, 0
6, 695267, Note_on_c, 1, 71, 0
6, 695269, Note_on_c, 1, 74, 0
6, 695327, Note_on_c, 1, 76, 108
6, 695345, Note_on_c, 1, 84, 111
6, 695347, Note_on_c, 1, 72, 98
6, 695442, Note_on_c, 1, 76, 0
6, 695460, Note_on_c, 1, 84, 0
6, 695462, Note_on_c, 1, 72, 0
6, 695524, Note_on_c, 1, 86, 111
6, 695530, Note_on_c, 1, 74, 102
6, 695540, Note_on_c, 1, 78, 95
6, 695604, Note_on_c, 1, 86, 0
6, 695610, Note_on_c, 1, 74, 0
6, 695620, Note_on_c, 1, 78, 0
6, 695687, Note_on_c, 1, 76, 107
6, 695702, Note_on_c, 1, 72, 95
6, 695703, Note_on_c, 1, 84, 115
6, 695768, Note_on_c, 1, 76, 0
6, 695783, Note_on_c, 1, 72, 0
6, 695784, Note_on_c, 1, 84, 0
6, 695843, Note_on_c, 1, 74, 108
6, 695844, Note_on_c, 1, 83, 98
6, 695860, Note_on_c, 1, 71, 104
6, 695923, Note_on_c, 1, 74, 0
6, 695924, Note_on_c, 1, 83, 0
6, 695940, Note_on_c, 1, 71, 0
6, 696009, Note_on_c, 1, 72, 110
6, 696017, Note_on_c, 1, 76, 113
6, 696021, Note_on_c, 1, 84, 95
6, 696369, Note_on_c, 1, 72, 0
6, 696377, Note_on_c, 1, 76, 0
6, 696381, Note_on_c, 1, 84, 0
6, 697445, Note_on_c, 1, 74, 104
6, 697447, Note_on_c, 1, 86, 110
6, 697461, Note_on_c, 1, 78, 109
6, 697805, Note_on_c, 1, 74, 0
6, 697807, Note_on_c, 1, 86, 0
6, 697821, Note_on_c, 1, 78, 0
6, 698882, Note_on_c, 1, 76, 102
6, 698882, Note_on_c, 1, 80, 100
6, 698891, Note_on_c, 1, 88, 115
6, 699002, Note_on_c, 1, 76, 0
6, 699002, Note_on_c, 1, 80, 0
6, 699011, Note_on_c, 1, 88, 0
6, 699128, Note_on_c, 1, 78, 99
6, 699131, Note_on_c, 1, 74, 104
6, 699131, Note_on_c, 1, 86, 114
6, 699248, Note_on_c, 1, 78, 0
6, 699251, Note_on_c, 1, 74, 0
6, 699251, Note_on_c, 1, 86, 0
6, 699370, Note_on_c, 1, 84, 112
6, 699373, Note_on_c, 1, 72, 99
6, 699373, Note_on_c, 1, 76, 97
6, 699730, Note_on_c, 1, 84, 0
6, 699733, Note_on_c, 1, 72, 0
6, 699733, Note_on_c, 1, 76, 0
6, 700326, Note_on_c, 1, 86, 98
6, 700328, Note_on_c, 1, 74, 112
6, 700342, Note_on_c, 1, 78, 102
6, 700686, Note_on_c, 1, 86, 0
6, 700688, Note_on_c, 1, 74, 0
6, 700702, Note_on_c, 1, 78, 0
6, 701292, Note_on_c, 1, 67, 107
6, 701294, Note_on_c, 1, 76, 109
6, 701303, Note_on_c, 1, 79, 106
6, 701652, Note_on_c, 1, 67, 0
6, 701654, Note_on_c, 1, 76, 0
6, 701663, Note_on_c, 1, 79, 0
6, 702000, Note_on_c, 1, 67, 109
6, 702006, Note_on_c, 1, 79, 97
6, 702016, Note_on_c, 1, 76, 99
6, 702240, Note_on_c, 1, 67, 0
6, 702246, Note_on_c, 1, 79, 0
6, 702256, Note_on_c, 1, 76, 0
6, 703200, Note_on_c, 1, 67, 100
6, 703218, Note_on_c, 1, 79, 102
6, 703222, Note_on_c, 1, 76, 110
6, 703560, Note_on_c, 1, 67, 0
6, 703578, Note_on_c, 1, 79, 0
6, 703582, Note_on_c, 1, 76, 0
6, 704163, Note_on_c, 1, 78, 100
6, 704168, Note_on_c, 1, 74, 100
6, 704179, Note_on_c, 1, 86, 98
6, 704523, Note_on_c, 1, 78, 0
6, 704528, Note_on_c, 1, 74, 0
6, 704539, Note_on_c, 1, 86, 0
6, 704641, Note_on_c, 1, 80, 95
6, 704643, Note_on_c, 1, 88, 95
6, 704661, Note_on_c, 1, 76, 100
6, 704761, Note_on_c, 1, 80, 0
6, 704763, Note_on_c, 1, 88, 0
6, 704781, Note_on_c, 1, 76, 0
6, 704881, Note_on_c, 1, 86, 103
6, 704899, Note_on_c, 1, 78, 103
6, 704904, Note_on_c, 1, 74, 96
6, 705001, Note_on_c, 1, 86, 0
6, 705019, Note_on_c, 1, 78, 0
6, 705024, Note_on_c, 1, 74, 0
6, 705126, Note_on_c, 1, 72, 104
6, 705132, Note_on_c, 1, 76, 102
6, 705140, Note_on_c, 1, 84, 101
6, 705486, Note_on_c, 1, 72, 0
6, 705492, Note_on_c, 1, 76, 0
6, 705500, Note_on_c, 1, 84, 0
6, 706085, Note_on_c, 1, 88, 95
6, 706097, Note_on_c, 1, 76, 101
6, 706099, Note_on_c, 1, 80, 106
6, 706165, Note_on_c, 1, 88, 0
6, 706177, Note_on_c, 1, 76, 0
6, 706179, Note_on_c, 1, 80, 0
6, 706245, Note_on_c, 1, 77, 110
6, 706247, Note_on_c, 1, 86, 103
6, 706258, Note_on_c, 1, 74, 113
6, 706326, Note_on_c, 1, 77, 0
6, 706328, Note_on_c, 1, 86, 0
6, 706339, Note_on_c, 1, 74, 0
6, 706402, Note_on_c, 1, 72, 110
6, 706403, Note_on_c, 1, 84, 114
6, 706406, Note_on_c, 1, 76, 111
6, 706482, Note_on_c, 1, 72, 0
6, 706483, Note_on_c, 1, 84, 0
6, 706486, Note_on_c, 1, 76, 0
6, 706567, Note_on_c, 1, 77, 99
6, 706575, Note_on_c, 1, 74, 95
6, 706580, Note_on_c, 1, 86, 108
6, 706927, Note_on_c, 1, 77, 0
6, 706935, Note_on_c, 1, 74, 0
6, 706940, Note_on_c, 1, 86, 0
6, 707520, Note_on_c, 1, 80, 103
6, 707527, Note_on_c, 1, 88, 103
6, 707532, Note_on_c, 1, 76, 99
6, 707600, Note_on_c, 1, 80, 0
6, 707607, Note_on_c, 1, 88, 0
6, 707612, Note_on_c, 1, 76, 0
6, 707690, Note_on_c, 1, 74, 95
6, 707692, Note_on_c, 1, 86, 113
6, 707697, Note_on_c, 1, 78, 97
6, 707771, Note_on_c, 1, 74, 0
6, 707773, Note_on_c, 1, 86, 0
6, 707778, Note_on_c, 1, 78, 0
6, 707844, Note_on_c, 1, 84, 105
6, 707850, Note_on_c, 1, 76, 114
6, 707852, Note_on_c, 1, 72, 113
6, 707924, Note_on_c, 1, 84, 0
6, 707930, Note_on_c, 1, 76, 0
6, 707932, Note_on_c, 1, 72, 0
6, 708004, Note_on_c, 1, 86, 99
6, 708005, Note_on_c, 1, 78, 115
6, 708021, Note_on_c, 1, 74, 102
6, 708084, Note_on_c, 1, 86, 0
6, 708085, Note_on_c, 1, 78, 0
6, 708101, Note_on_c, 1, 74, 0
6, 708163, Note_on_c, 1, 72, 105
6, 708165, Note_on_c, 1, 76, 114
6, 708182, Note_on_c, 1, 84, 110
6, 708244, Note_on_c, 1, 72, 0
6, 708246, Note_on_c, 1, 76, 0
6, 708263, Note_on_c, 1, 84, 0
6, 708331, Note_on_c, 1, 83, 113
6, 708332, Note_on_c, 1, 71, 112
6, 708340, Note_on_c, 1, 74, 95
6, 708411, Note_on_c, 1, 83, 0
6, 708412, Note_on_c, 1, 71, 0
6, 708420, Note_on_c, 1, 74, 0
6, 710414, Note_on_c, 1, 88, 99
6, 710418, Note_on_c, 1, 80, 111
6, 710419, Note_on_c, 1, 76, 115
6, 710494, Note_on_c, 1, 88, 0
6, 710498, Note_on_c, 1, 80, 0
6, 710499, Note_on_c, 1, 76, 0
6, 710566, Note_on_c, 1, 86, 110
6, 710569, Note_on_c, 1, 74, 102
6, 710578, Note_on_c, 1, 78, 107
6, 710647, Note_on_c, 1, 86, 0
6, 710650, Note_on_c, 1, 74, 0
6, 710659, Note_on_c, 1, 78, 0
6, 710720, Note_on_c, 1, 72, 107
6, 710727, Note_on_c, 1, 84, 103
6, 710737, Note_on_c, 1, 76, 97
6, 710800, Note_on_c, 1, 72, 0
6, 710807, Note_on_c, 1, 84, 0
6, 710817, Note_on_c, 1, 76, 0
6, 710890, Note_on_c, 1, 78, 113
6, 710896, Note_on_c, 1, 74, 104
6, 710905, Note_on_c, 1, 86, 106
6, 710970, Note_on_c, 1, 78, 0
6, 710976, Note_on_c, 1, 74, 0
6, 710985, Note_on_c, 1, 86, 0
6, 711043, Note_on_c, 1, 76, 114
6, 711054, Note_on_c, 1, 84, 112
6, 711064, Note_on_c, 1, 72, 107
6, 711124, Note_on_c, 1, 76, 0
6, 711135, Note_on_c, 1, 84, 0
6, 711145, Note_on_c, 1, 72, 0
6, 711201, Note_on_c, 1, 74, 105
6, 711210, Note_on_c, 1, 71, 96
6, 711218, Note_on_c, 1, 83, 99
6, 711281, Note_on_c, 1, 74, 0
6, 711290, Note_on_c, 1, 71, 0
6, 711298, Note_on_c, 1, 83, 0
6, 712803, Note_on_c, 1, 79, 102
6, 712804, Note_on_c, 1, 67, 104
6, 712820, Note_on_c, 1, 76, 103
6, 713163, Note_on_c, 1, 79, 0
6, 713164, Note_on_c, 1, 67, 0
6, 713180, Note_on_c, 1, 76, 0
6, 713289, Note_on_c, 1, 76, 108
6, 713297, Note_on_c, 1, 79, 111
6, 713299, Note_on_c, 1, 67, 98
6, 713649, Note_on_c, 1, 76, 0
6, 713657, Note_on_c, 1, 79, 0
6, 713659, Note_on_c, 1, 67, 0
6, 714262, Note_on_c, 1, 67, 99
6, 714262, Note_on_c, 1, 76, 113
6, 714263, Note_on_c, 1, 79, 113
6, 714622, Note_on_c, 1, 67, 0
6, 714622, Note_on_c, 1, 76, 0
6, 714623, Note_on_c, 1, 79, 0
6, 715442, Note_on_c, 1, 67, 105
6, 715442, Note_on_c, 1, 79, 101
6, 715444, Note_on_c, 1, 76, 107
6, 715682, Note_on_c, 1, 67, 0
6, 715682, Note_on_c, 1, 79, 0
6, 715684, Note_on_c, 1, 76, 0
6, 716168, Note_on_c, 1, 79, 101
6, 716182, Note_on_c, 1, 76, 113
6, 716185, Note_on_c, 1, 67, 111
6, 716528, Note_on_c, 1, 79, 0
6, 716542, Note_on_c, 1, 76, 0
6, 716545, Note_on_c, 1, 67, 0
6, 717126, Note_on_c, 1, 67, 101
6, 717139, Note_on_c, 1, 76, 97
6, 717143, Note_on_c, 1, 79, 106
6, 717486, Note_on_c, 1, 67, 0
6, 717499, Note_on_c, 1, 76, 0
6, 717503, Note_on_c, 1, 79, 0
6, 717845, Note_on_c, 1, 67, 114
6, 717845, Note_on_c, 1, 79, 107
6, 717851, Note_on_c, 1, 76, 106
6, 718085, Note_on_c, 1, 67, 0
6, 718085, Note_on_c, 1, 79, 0
6, 718091, Note_on_c, 1, 76, 0
6, 719055, Note_on_c, 1, 76, 114
6, 719057, Note_on_c, 1, 79, 96
6, 719063, Note_on_c, 1, 67, 106
6, 719415, Note_on_c, 1, 76, 0
6, 719417, Note_on_c, 1, 79, 0
6, 719423, Note_on_c, 1, 67, 0
6, 720017, Note_on_c, 1, 79, 114
6, 720017, Note_on_c, 1, 76, 98
6, 720022, Note_on_c, 1, 67, 114
6, 720377, Note_on_c, 1, 79, 0
6, 720377, Note_on_c, 1, 76, 0
6, 720382, Note_on_c, 1, 67, 0
6, 720968, Note_on_c, 1, 76, 101
6, 720975, Note_on_c, 1, 79, 101
6, 720981, Note_on_c, 1, 67, 108
6, 721328, Note_on_c, 1, 76, 0
6, 721335, Note_on_c, 1, 79, 0
6, 721341, Note_on_c, 1, 67, 0
6, 762246, Note_on_c, 1, 70, 89
6, 762249, Note_on_c, 1, 82, 91
6, 762255, Note_on_c, 1, 77, 82
6, 762363, Note_on_c, 1, 80, 97
6, 762366, Note_on_c, 1, 70, 0
6, 762366, Note_on_c, 1, 75, 81
6, 762369, Note_on_c, 1, 82, 0
6, 762371, Note_on_c, 1, 68, 97
6, 762375, Note_on_c, 1, 77, 0
6, 762480, Note_on_c, 1, 74, 97
6, 762483, Note_on_c, 1, 80, 0
6, 762486, Note_on_c, 1, 75, 0
6, 762488, Note_on_c, 1, 79, 94
6, 762491, Note_on_c, 1, 68, 0
6, 762496, Note_on_c, 1, 67, 97
6, 762600, Note_on_c, 1, 74, 0
6, 762608, Note_on_c, 1, 79, 0
6, 762610, Note_on_c, 1, 72, 97
6, 762611, Note_on_c, 1, 77, 86
6, 762614, Note_on_c, 1, 65, 78
6, 762616, Note_on_c, 1, 67, 0
6, 762720, Note_on_c, 1, 75, 96
6, 762730, Note_on_c, 1, 72, 0
6, 762731, Note_on_c, 1, 77, 0
6, 762734, Note_on_c, 1, 65, 0
6, 762734, Note_on_c, 1, 68, 85
6, 762743, Note_on_c, 1, 80, 95
6, 762840, Note_on_c, 1, 75, 0
6, 762854, Note_on_c, 1, 68, 0
6, 762863, Note_on_c, 1, 80, 0
6, 763321, Note_on_c, 1, 65, 92
6, 763331, Note_on_c, 1, 72, 98
6, 763338, Note_on_c, 1, 77, 96
6, 763441, Note_on_c, 1, 65, 0
6, 763446, Note_on_c, 1, 67, 87
6, 763451, Note_on_c, 1, 72, 0
6, 763452, Note_on_c, 1, 79, 92
6, 763457, Note_on_c, 1, 74, 98
6, 763458, Note_on_c, 1, 77, 0
6, 763564, Note_on_c, 1, 80, 93
6, 763566, Note_on_c, 1, 67, 0
6, 763572, Note_on_c, 1, 79, 0
6, 763574, Note_on_c, 1, 68, 84
6, 763574, Note_on_c, 1, 75, 92
6, 763577, Note_on_c, 1, 74, 0
6, 763684, Note_on_c, 1, 80, 0
6, 763694, Note_on_c, 1, 68, 0
6, 763694, Note_on_c, 1, 75, 0
6, 763701, Note_on_c, 1, 77, 86
6, 763704, Note_on_c, 1, 70, 94
6, 763704, Note_on_c, 1, 82, 80
6, 763807, Note_on_c, 1, 80, 82
6, 763820, Note_on_c, 1, 68, 98
6, 763821, Note_on_c, 1, 77, 0
6, 763822, Note_on_c, 1, 75, 97
6, 763824, Note_on_c, 1, 70, 0
6, 763824, Note_on_c, 1, 82, 0
6, 763924, Note_on_c, 1, 74, 81
6, 763925, Note_on_c, 1, 79, 96
6, 763927, Note_on_c, 1, 80, 0
6, 763931, Note_on_c, 1, 67, 95
6, 763940, Note_on_c, 1, 68, 0
6, 763942, Note_on_c, 1, 75, 0
6, 764044, Note_on_c, 1, 74, 0
6, 764045, Note_on_c, 1, 79, 0
6, 764045, Note_on_c, 1, 72, 85
6, 764049, Note_on_c, 1, 77, 85
6, 764051, Note_on_c, 1, 67, 0
6, 764058, Note_on_c, 1, 65, 83
6, 764164, Note_on_c, 1, 68, 78
6, 764165, Note_on_c, 1, 72, 0
6, 764169, Note_on_c, 1, 77, 0
6, 764176, Note_on_c, 1, 75, 85
6, 764178, Note_on_c, 1, 65, 0
6, 764183, Note_on_c, 1, 80, 87
6, 764284, Note_on_c, 1, 68, 0
6, 764296, Note_on_c, 1, 75, 0
6, 764303, Note_on_c, 1, 80, 0
6, 765602, Note_on_c, 1, 88, 115
6, 765609, Note_on_c, 1, 84, 119
6, 766082, Note_on_c, 1, 88, 0
6, 766089, Note_on_c, 1, 84, 0
6, 766800, Note_on_c, 1, 84, 115
6, 766814, Note_on_c, 1, 88, 109
6, 767040, Note_on_c, 1, 84, 0
6, 767054, Note_on_c, 1, 88, 0
6, 768015, Note_on_c, 1, 88, 123
6, 768025, Note_on_c, 1, 84, 107
6, 768495, Note_on_c, 1, 88, 0
6, 768505, Note_on_c, 1, 84, 0
6, 768732, Note_on_c, 1, 84, 104
6, 768745, Note_on_c, 1, 88, 115
6, 768972, Note_on_c, 1, 84, 0
6, 768985, Note_on_c, 1, 88, 0
6, 769445, Note_on_c, 1, 88, 121
6, 769447, Note_on_c, 1, 84, 120
6, 769925, Note_on_c, 1, 88, 0
6, 769927, Note_on_c, 1, 84, 0
6, 770403, Note_on_c, 1, 84, 111
6, 770406, Note_on_c, 1, 88, 107
6, 770883, Note_on_c, 1, 84, 0
6, 770886, Note_on_c, 1, 88, 0
6, 771620, Note_on_c, 1, 88, 122
6, 771625, Note_on_c, 1, 84, 107
6, 771860, Note_on_c, 1, 88, 0
6, 771865, Note_on_c, 1, 84, 0
6, 772812, Note_on_c, 1, 88, 121
6, 772822, Note_on_c, 1, 84, 114
6, 773292, Note_on_c, 1, 88, 0
6, 773302, Note_on_c, 1, 84, 0
6, 773302, End_track
7, 0, Start_track
7, 0, Title_t, "Corno inglese"
7, 0, MIDI_port, 0
7, 0, Program_c, 2, 69
7, 0, Control_c, 2, 7, 75
7, 0, Control_c, 2, 10, 54
7, 0, Control_c, 2, 91, 64
7, 11520, Program_c, 2, 69
7, 12496, Note_on_c, 2, 61, 88
7, 12726, Note_on_c, 2, 66, 89
7, 12736, Note_on_c, 2, 61, 0
7, 12900, Note_on_c, 2, 61, 84
7, 12906, Note_on_c, 2, 66, 0
7, 12930, Note_on_c, 2, 66, 80
7, 12954, Note_on_c, 2, 61, 0
7, 12974, Note_on_c, 2, 63, 79
7, 12986, Note_on_c, 2, 66, 0
7, 13124, Note_on_c, 2, 61, 86
7, 13133, Note_on_c, 2, 63, 0
7, 13284, Note_on_c, 2, 61, 0
7, 13291, Note_on_c, 2, 66, 70
7, 13380, Note_on_c, 2, 61, 89
7, 13390, Note_on_c, 2, 66, 0
7, 13410, Note_on_c, 2, 66, 75
7, 13434, Note_on_c, 2, 61, 0
7, 13443, Note_on_c, 2, 63, 85
7, 13475, Note_on_c, 2, 66, 0
7, 13608, Note_on_c, 2, 61, 70
7, 13642, Note_on_c, 2, 63, 0
7, 13770, Note_on_c, 2, 66, 74
7, 13784, Note_on_c, 2, 61, 0
7, 13859, Note_on_c, 2, 66, 0
7, 14097, Note_on_c, 2, 68, 87
7, 14177, Note_on_c, 2, 68, 0
7, 14177, Note_on_c, 2, 63, 86
7, 14256, Note_on_c, 2, 66, 70
7, 14257, Note_on_c, 2, 63, 0
7, 14335, Note_on_c, 2, 66, 0
7, 14344, Note_on_c, 2, 61, 82
7, 14400, Control_c, 2, 11, 127
7, 14410, Control_c, 2, 11, 126
7, 14420, Control_c, 2, 11, 125
7, 14422, Note_on_c, 2, 63, 84
7, 14424, Note_on_c, 2, 61, 0
7, 14430, Control_c, 2, 11, 124
7, 14440, Control_c, 2, 11, 123
7, 14450, Control_c, 2, 11, 122
7, 14460, Control_c, 2, 11, 121
7, 14470, Control_c, 2, 11, 120
7, 14480, Control_c, 2, 11, 119
7, 14490, Control_c, 2, 11, 118
7, 14501, Control_c, 2, 11, 117
7, 14510, Control_c, 2, 11, 116
7, 14521, Control_c, 2, 11, 115
7, 14531, Control_c, 2, 11, 114
7, 14541, Control_c, 2, 11, 113
7, 14551, Control_c, 2, 11, 112
7, 14561, Control_c, 2, 11, 111
7, 14571, Control_c, 2, 11, 110
7, 14581, Control_c, 2, 11, 109
7, 14591, Control_c, 2, 11, 108
7, 14601, Control_c, 2, 11, 107
7, 14611, Control_c, 2, 11, 106
7, 14621, Control_c, 2, 11, 105
7, 14632, Control_c, 2, 11, 104
7, 14641, Control_c, 2, 11, 103
7, 14652, Control_c, 2, 11, 102
7, 14662, Control_c, 2, 11, 101
7, 14672, Control_c, 2, 11, 100
7, 14683, Control_c, 2, 11, 99
7, 14692, Control_c, 2, 11, 98
7, 14703, Control_c, 2, 11, 97
7, 14713, Control_c, 2, 11, 96
7, 14723, Control_c, 2, 11, 95
7, 14733, Control_c, 2, 11, 94
7, 14743, Control_c, 2, 11, 93
7, 14753, Control_c, 2, 11, 92
7, 14763, Control_c, 2, 11, 91
7, 14773, Control_c, 2, 11, 90
7, 14783, Control_c, 2, 11, 89
7, 14793, Control_c, 2, 11, 88
7, 14803, Control_c, 2, 11, 87
7, 14814, Control_c, 2, 11, 86
7, 14823, Control_c, 2, 11, 85
7, 14834, Control_c, 2, 11, 84
7, 14844, Control_c, 2, 11, 83
7, 14854, Control_c, 2, 11, 82
7, 14865, Control_c, 2, 11, 81
7, 14874, Control_c, 2, 11, 80
7, 14885, Control_c, 2, 11, 79
7, 14895, Control_c, 2, 11, 78
7, 14905, Control_c, 2, 11, 77
7, 14915, Control_c, 2, 11, 76
7, 14925, Control_c, 2, 11, 75
7, 14935, Control_c, 2, 11, 74
7, 14945, Control_c, 2, 11, 73
7, 14955, Control_c, 2, 11, 72
7, 14965, Control_c, 2, 11, 71
7, 14975, Control_c, 2, 11, 70
7, 14985, Control_c, 2, 11, 69
7, 14996, Control_c, 2, 11, 68
7, 15005, Control_c, 2, 11, 67
7, 15016, Control_c, 2, 11, 66
7, 15026, Control_c, 2, 11, 65
7, 15036, Control_c, 2, 11, 64
7, 15046, Control_c, 2, 11, 63
7, 15056, Control_c, 2, 11, 62
7, 15066, Control_c, 2, 11, 61
7, 15076, Control_c, 2, 11, 60
7, 15086, Control_c, 2, 11, 59
7, 15096, Control_c, 2, 11, 58
7, 15106, Control_c, 2, 11, 57
7, 15117, Control_c, 2, 11, 56
7, 15127, Control_c, 2, 11, 55
7, 15137, Control_c, 2, 11, 54
7, 15147, Control_c, 2, 11, 53
7, 15157, Control_c, 2, 11, 52
7, 15167, Control_c, 2, 11, 51
7, 15178, Control_c, 2, 11, 50
7, 15188, Control_c, 2, 11, 49
7, 15198, Control_c, 2, 11, 48
7, 15208, Control_c, 2, 11, 47
7, 15218, Control_c, 2, 11, 46
7, 15228, Control_c, 2, 11, 45
7, 15238, Control_c, 2, 11, 44
7, 15248, Control_c, 2, 11, 43
7, 15258, Control_c, 2, 11, 42
7, 15268, Control_c, 2, 11, 41
7, 15279, Control_c, 2, 11, 40
7, 15288, Control_c, 2, 11, 39
7, 15299, Control_c, 2, 11, 38
7, 15309, Control_c, 2, 11, 37
7, 15319, Control_c, 2, 11, 36
7, 15329, Control_c, 2, 11, 35
7, 15339, Control_c, 2, 11, 34
7, 15349, Control_c, 2, 11, 33
7, 15382, Note_on_c, 2, 63, 0
7, 16800, Control_c, 2, 11, 127
7, 16801, Note_on_c, 2, 61, 77
7, 17063, Note_on_c, 2, 66, 81
7, 17092, Note_on_c, 2, 61, 0
7, 17160, Note_on_c, 2, 61, 82
7, 17183, Note_on_c, 2, 66, 0
7, 17220, Note_on_c, 2, 66, 84
7, 17232, Note_on_c, 2, 61, 0
7, 17259, Note_on_c, 2, 63, 79
7, 17292, Note_on_c, 2, 66, 0
7, 17439, Note_on_c, 2, 61, 69
7, 17450, Note_on_c, 2, 63, 0
7, 17486, Note_on_c, 2, 61, 0
7, 17510, Note_on_c, 2, 61, 78
7, 17555, Note_on_c, 2, 66, 87
7, 17590, Note_on_c, 2, 61, 0
7, 17597, Note_on_c, 2, 63, 79
7, 17635, Note_on_c, 2, 66, 0
7, 18399, Note_on_c, 2, 61, 77
7, 18409, Note_on_c, 2, 63, 0
7, 18446, Note_on_c, 2, 61, 0
7, 18470, Note_on_c, 2, 61, 88
7, 18515, Note_on_c, 2, 66, 69
7, 18550, Note_on_c, 2, 61, 0
7, 18573, Note_on_c, 2, 63, 83
7, 18595, Note_on_c, 2, 66, 0
7, 18779, Note_on_c, 2, 63, 0
7, 18789, Note_on_c, 2, 61, 87
7, 18834, Note_on_c, 2, 66, 87
7, 18869, Note_on_c, 2, 61, 0
7, 18891, Note_on_c, 2, 63, 88
7, 18914, Note_on_c, 2, 66, 0
7, 19204, Note_on_c, 2, 61, 76
7, 19226, Note_on_c, 2, 63, 0
7, 19684, Note_on_c, 2, 61, 0
7, 19685, Note_on_c, 2, 68, 84
7, 19784, Note_on_c, 2, 66, 74
7, 19790, Note_on_c, 2, 68, 0
7, 19864, Note_on_c, 2, 63, 71
7, 19888, Note_on_c, 2, 66, 0
7, 19920, Note_on_c, 2, 66, 77
7, 19969, Note_on_c, 2, 63, 0
7, 20019, Note_on_c, 2, 64, 75
7, 20025, Note_on_c, 2, 66, 0
7, 20094, Note_on_c, 2, 61, 77
7, 20123, Note_on_c, 2, 64, 0
7, 20163, Note_on_c, 2, 63, 76
7, 20199, Note_on_c, 2, 61, 0
7, 20310, Note_on_c, 2, 61, 71
7, 20328, Note_on_c, 2, 63, 0
7, 20355, Note_on_c, 2, 66, 71
7, 20383, Note_on_c, 2, 61, 0
7, 20412, Note_on_c, 2, 63, 81
7, 20428, Note_on_c, 2, 66, 0
7, 20892, Note_on_c, 2, 63, 0
7, 20892, Note_on_c, 2, 66, 75
7, 20967, Note_on_c, 2, 64, 75
7, 20980, Note_on_c, 2, 66, 0
7, 21054, Note_on_c, 2, 64, 0
7, 21055, Note_on_c, 2, 61, 83
7, 21132, Note_on_c, 2, 63, 76
7, 21143, Note_on_c, 2, 61, 0
7, 21610, Note_on_c, 2, 68, 75
7, 21612, Note_on_c, 2, 63, 0
7, 21843, Note_on_c, 2, 66, 71
7, 21850, Note_on_c, 2, 68, 0
7, 21951, Note_on_c, 2, 63, 71
7, 21963, Note_on_c, 2, 66, 0
7, 22081, Note_on_c, 2, 68, 86
7, 22097, Note_on_c, 2, 63, 0
7, 22321, Note_on_c, 2, 68, 0
7, 22323, Note_on_c, 2, 66, 80
7, 22443, Note_on_c, 2, 66, 0
7, 22445, Note_on_c, 2, 63, 72
7, 22565, Note_on_c, 2, 63, 0
7, 22572, Note_on_c, 2, 68, 86
7, 22649, Note_on_c, 2, 66, 85
7, 22668, Note_on_c, 2, 68, 0
7, 22734, Note_on_c, 2, 63, 79
7, 22744, Note_on_c, 2, 66, 0
7, 22800, Note_on_c, 2, 66, 69
7, 22830, Note_on_c, 2, 63, 0
7, 22896, Note_on_c, 2, 66, 0
7, 22903, Note_on_c, 2, 64, 88
7, 22959, Note_on_c, 2, 61, 72
7, 22998, Note_on_c, 2, 64, 0
7, 23041, Note_on_c, 2, 63, 82
7, 23055, Note_on_c, 2, 61, 0
7, 23185, Note_on_c, 2, 63, 0
7, 31680, Program_c, 2, 69
7, 31694, Note_on_c, 2, 65, 67
7, 31932, Note_on_c, 2, 70, 75
7, 31934, Note_on_c, 2, 65, 0
7, 32052, Note_on_c, 2, 70, 0
7, 32131, Note_on_c, 2, 70, 78
7, 32177, Note_on_c, 2, 67, 73
7, 32211, Note_on_c, 2, 70, 0
7, 32811, Note_on_c, 2, 70, 74
7, 32816, Note_on_c, 2, 67, 0
7, 32870, Note_on_c, 2, 65, 79
7, 32881, Note_on_c, 2, 70, 0
7, 32915, Note_on_c, 2, 70, 69
7, 32937, Note_on_c, 2, 65, 0
7, 32967, Note_on_c, 2, 67, 73
7, 32982, Note_on_c, 2, 70, 0
7, 33846, Note_on_c, 2, 67, 0
7, 33855, Note_on_c, 2, 65, 73
7, 34095, Note_on_c, 2, 65, 0
7, 34102, Note_on_c, 2, 70, 69
7, 34200, Note_on_c, 2, 65, 84
7, 34222, Note_on_c, 2, 70, 0
7, 34260, Note_on_c, 2, 70, 78
7, 34290, Note_on_c, 2, 65, 0
7, 34330, Note_on_c, 2, 67, 78
7, 34350, Note_on_c, 2, 70, 0
7, 35209, Note_on_c, 2, 67, 0
7, 35221, Note_on_c, 2, 66, 68
7, 35330, Note_on_c, 2, 69, 65
7, 35351, Note_on_c, 2, 66, 0
7, 35364, Note_on_c, 2, 67, 66
7, 35375, Note_on_c, 2, 69, 0
7, 35523, Note_on_c, 2, 67, 0
7, 35533, Note_on_c, 2, 65, 85
7, 35649, Note_on_c, 2, 69, 83
7, 35662, Note_on_c, 2, 65, 0
7, 35685, Note_on_c, 2, 67, 79
7, 35694, Note_on_c, 2, 69, 0
7, 35845, Note_on_c, 2, 67, 0
7, 35853, Note_on_c, 2, 66, 79
7, 36000, Note_on_c, 2, 69, 78
7, 36012, Note_on_c, 2, 66, 0
7, 36159, Note_on_c, 2, 69, 0
7, 36164, Note_on_c, 2, 65, 65
7, 36290, Note_on_c, 2, 69, 79
7, 36294, Note_on_c, 2, 65, 0
7, 36326, Note_on_c, 2, 67, 73
7, 36335, Note_on_c, 2, 69, 0
7, 36485, Note_on_c, 2, 67, 0
7, 36495, Note_on_c, 2, 65, 83
7, 36609, Note_on_c, 2, 69, 75
7, 36624, Note_on_c, 2, 65, 0
7, 36648, Note_on_c, 2, 67, 85
7, 36654, Note_on_c, 2, 69, 0
7, 36808, Note_on_c, 2, 67, 0
7, 36810, Note_on_c, 2, 66, 66
7, 36969, Note_on_c, 2, 66, 0
7, 36970, Note_on_c, 2, 69, 67
7, 37129, Note_on_c, 2, 69, 0
7, 37136, Note_on_c, 2, 65, 69
7, 37250, Note_on_c, 2, 69, 80
7, 37266, Note_on_c, 2, 65, 0
7, 37295, Note_on_c, 2, 69, 0
7, 37299, Note_on_c, 2, 67, 76
7, 37453, Note_on_c, 2, 65, 80
7, 37458, Note_on_c, 2, 67, 0
7, 37650, Note_on_c, 2, 69, 69
7, 37663, Note_on_c, 2, 65, 0
7, 37684, Note_on_c, 2, 67, 76
7, 37695, Note_on_c, 2, 69, 0
7, 37924, Note_on_c, 2, 67, 0
7, 37932, Note_on_c, 2, 66, 77
7, 38610, Note_on_c, 2, 69, 70
7, 38622, Note_on_c, 2, 66, 0
7, 38653, Note_on_c, 2, 67, 65
7, 38655, Note_on_c, 2, 69, 0
7, 38893, Note_on_c, 2, 67, 0
7, 38893, Note_on_c, 2, 65, 74
7, 39009, Note_on_c, 2, 69, 76
7, 39022, Note_on_c, 2, 65, 0
7, 39040, Note_on_c, 2, 67, 76
7, 39054, Note_on_c, 2, 69, 0
7, 39185, Note_on_c, 2, 66, 67
7, 39200, Note_on_c, 2, 67, 0
7, 39489, Note_on_c, 2, 69, 78
7, 39507, Note_on_c, 2, 66, 0
7, 39521, Note_on_c, 2, 67, 80
7, 39534, Note_on_c, 2, 69, 0
7, 39681, Note_on_c, 2, 67, 0
7, 39686, Note_on_c, 2, 65, 69
7, 39969, Note_on_c, 2, 69, 72
7, 39975, Note_on_c, 2, 65, 0
7, 40002, Note_on_c, 2, 67, 82
7, 40014, Note_on_c, 2, 69, 0
7, 40162, Note_on_c, 2, 67, 0
7, 40162, Note_on_c, 2, 66, 72
7, 40449, Note_on_c, 2, 69, 65
7, 40451, Note_on_c, 2, 66, 0
7, 40484, Note_on_c, 2, 67, 85
7, 40494, Note_on_c, 2, 69, 0
7, 40644, Note_on_c, 2, 67, 0
7, 40657, Note_on_c, 2, 65, 65
7, 40929, Note_on_c, 2, 69, 80
7, 40946, Note_on_c, 2, 65, 0
7, 40968, Note_on_c, 2, 67, 81
7, 40974, Note_on_c, 2, 69, 0
7, 41128, Note_on_c, 2, 67, 0
7, 41137, Note_on_c, 2, 66, 71
7, 42016, Note_on_c, 2, 66, 0
7, 45121, Note_on_c, 2, 65, 95
7, 45361, Note_on_c, 2, 65, 0
7, 45373, Note_on_c, 2, 70, 87
7, 45480, Note_on_c, 2, 65, 87
7, 45493, Note_on_c, 2, 70, 0
7, 45540, Note_on_c, 2, 65, 0
7, 45540, Note_on_c, 2, 70, 98
7, 45600, Note_on_c, 2, 70, 0
7, 45613, Note_on_c, 2, 67, 92
7, 46093, Note_on_c, 2, 67, 0
7, 47059, Note_on_c, 2, 65, 81
7, 47284, Note_on_c, 2, 70, 89
7, 47299, Note_on_c, 2, 65, 0
7, 47400, Note_on_c, 2, 65, 92
7, 47404, Note_on_c, 2, 70, 0
7, 47460, Note_on_c, 2, 70, 87
7, 47475, Note_on_c, 2, 65, 0
7, 47520, Note_on_c, 2, 67, 87
7, 47546, Note_on_c, 2, 70, 0
7, 48000, Note_on_c, 2, 67, 0
7, 48012, Note_on_c, 2, 65, 78
7, 48250, Note_on_c, 2, 70, 94
7, 48252, Note_on_c, 2, 65, 0
7, 48360, Note_on_c, 2, 65, 85
7, 48370, Note_on_c, 2, 70, 0
7, 48420, Note_on_c, 2, 70, 78
7, 48435, Note_on_c, 2, 65, 0
7, 48501, Note_on_c, 2, 67, 90
7, 48506, Note_on_c, 2, 70, 0
7, 48981, Note_on_c, 2, 67, 0
7, 61921, Note_on_c, 2, 65, 87
7, 62161, Note_on_c, 2, 65, 0
7, 62175, Note_on_c, 2, 70, 95
7, 62280, Note_on_c, 2, 65, 92
7, 62295, Note_on_c, 2, 70, 0
7, 62340, Note_on_c, 2, 70, 96
7, 62370, Note_on_c, 2, 65, 0
7, 62418, Note_on_c, 2, 67, 90
7, 62430, Note_on_c, 2, 70, 0
7, 62893, Note_on_c, 2, 65, 81
7, 62898, Note_on_c, 2, 67, 0
7, 63133, Note_on_c, 2, 65, 0
7, 63134, Note_on_c, 2, 70, 91
7, 63240, Note_on_c, 2, 65, 79
7, 63254, Note_on_c, 2, 70, 0
7, 63300, Note_on_c, 2, 70, 78
7, 63330, Note_on_c, 2, 65, 0
7, 63383, Note_on_c, 2, 67, 92
7, 63390, Note_on_c, 2, 70, 0
7, 63480, Note_on_c, 2, 65, 84
7, 63503, Note_on_c, 2, 67, 0
7, 63540, Note_on_c, 2, 70, 84
7, 63570, Note_on_c, 2, 65, 0
7, 63618, Note_on_c, 2, 67, 92
7, 63630, Note_on_c, 2, 70, 0
7, 63842, Note_on_c, 2, 72, 80
7, 63858, Note_on_c, 2, 67, 0
7, 63922, Note_on_c, 2, 72, 0
7, 63927, Note_on_c, 2, 70, 91
7, 63999, Note_on_c, 2, 67, 79
7, 64006, Note_on_c, 2, 70, 0
7, 64049, Note_on_c, 2, 67, 0
7, 64050, Note_on_c, 2, 72, 90
7, 64090, Note_on_c, 2, 70, 83
7, 64095, Note_on_c, 2, 72, 0
7, 64170, Note_on_c, 2, 70, 0
7, 64185, Note_on_c, 2, 68, 92
7, 64239, Note_on_c, 2, 65, 88
7, 64264, Note_on_c, 2, 68, 0
7, 64319, Note_on_c, 2, 65, 0
7, 64341, Note_on_c, 2, 67, 90
7, 64530, Note_on_c, 2, 72, 81
7, 64551, Note_on_c, 2, 67, 0
7, 64560, Note_on_c, 2, 70, 96
7, 64575, Note_on_c, 2, 72, 0
7, 64640, Note_on_c, 2, 70, 0
7, 64647, Note_on_c, 2, 68, 83
7, 64726, Note_on_c, 2, 68, 0
7, 64733, Note_on_c, 2, 65, 84
7, 64806, Note_on_c, 2, 67, 84
7, 64813, Note_on_c, 2, 65, 0
7, 65460, Note_on_c, 2, 65, 81
7, 65466, Note_on_c, 2, 67, 0
7, 65490, Note_on_c, 2, 70, 93
7, 65505, Note_on_c, 2, 65, 0
7, 65524, Note_on_c, 2, 67, 93
7, 65535, Note_on_c, 2, 70, 0
7, 65762, Note_on_c, 2, 70, 86
7, 65764, Note_on_c, 2, 67, 0
7, 65842, Note_on_c, 2, 70, 0
7, 65847, Note_on_c, 2, 68, 89
7, 65926, Note_on_c, 2, 68, 0
7, 65942, Note_on_c, 2, 65, 79
7, 66022, Note_on_c, 2, 65, 0
7, 66025, Note_on_c, 2, 67, 94
7, 66264, Note_on_c, 2, 67, 82
7, 66265, Note_on_c, 2, 67, 0
7, 66504, Note_on_c, 2, 67, 0
7, 66504, Note_on_c, 2, 70, 85
7, 66563, Note_on_c, 2, 68, 79
7, 66584, Note_on_c, 2, 70, 0
7, 66641, Note_on_c, 2, 65, 83
7, 66642, Note_on_c, 2, 68, 0
7, 66721, Note_on_c, 2, 65, 0
7, 66740, Note_on_c, 2, 67, 97
7, 66980, Note_on_c, 2, 67, 0
7, 66984, Note_on_c, 2, 72, 91
7, 67057, Note_on_c, 2, 70, 97
7, 67064, Note_on_c, 2, 72, 0
7, 67128, Note_on_c, 2, 67, 79
7, 67136, Note_on_c, 2, 70, 0
7, 67208, Note_on_c, 2, 67, 0
7, 67210, Note_on_c, 2, 70, 86
7, 67282, Note_on_c, 2, 68, 80
7, 67290, Note_on_c, 2, 70, 0
7, 67361, Note_on_c, 2, 68, 0
7, 67364, Note_on_c, 2, 65, 83
7, 67440, Note_on_c, 2, 67, 96
7, 67444, Note_on_c, 2, 65, 0
7, 67680, Note_on_c, 2, 67, 0
7, 67705, Note_on_c, 2, 70, 95
7, 67785, Note_on_c, 2, 70, 0
7, 67785, Note_on_c, 2, 68, 83
7, 67858, Note_on_c, 2, 65, 80
7, 67864, Note_on_c, 2, 68, 0
7, 67931, Note_on_c, 2, 72, 88
7, 67938, Note_on_c, 2, 65, 0
7, 68011, Note_on_c, 2, 72, 0
7, 68012, Note_on_c, 2, 70, 81
7, 68091, Note_on_c, 2, 70, 0
7, 68103, Note_on_c, 2, 67, 85
7, 68172, Note_on_c, 2, 70, 97
7, 68183, Note_on_c, 2, 67, 0
7, 68248, Note_on_c, 2, 68, 98
7, 68252, Note_on_c, 2, 70, 0
7, 68327, Note_on_c, 2, 68, 0
7, 68330, Note_on_c, 2, 65, 87
7, 68410, Note_on_c, 2, 65, 0
7, 68416, Note_on_c, 2, 67, 78
7, 68896, Note_on_c, 2, 67, 0
7, 68904, Note_on_c, 2, 70, 90
7, 68978, Note_on_c, 2, 68, 95
7, 68984, Note_on_c, 2, 70, 0
7, 69044, Note_on_c, 2, 67, 80
7, 69057, Note_on_c, 2, 68, 0
7, 69300, Note_on_c, 2, 65, 80
7, 69304, Note_on_c, 2, 67, 0
7, 69330, Note_on_c, 2, 70, 81
7, 69345, Note_on_c, 2, 65, 0
7, 69375, Note_on_c, 2, 70, 0
7, 69376, Note_on_c, 2, 67, 91
7, 69780, Note_on_c, 2, 65, 95
7, 69796, Note_on_c, 2, 67, 0
7, 69810, Note_on_c, 2, 70, 96
7, 69825, Note_on_c, 2, 65, 0
7, 69848, Note_on_c, 2, 67, 93
7, 69855, Note_on_c, 2, 70, 0
7, 70086, Note_on_c, 2, 70, 79
7, 70088, Note_on_c, 2, 67, 0
7, 70166, Note_on_c, 2, 70, 0
7, 70180, Note_on_c, 2, 68, 82
7, 70248, Note_on_c, 2, 65, 89
7, 70259, Note_on_c, 2, 68, 0
7, 70328, Note_on_c, 2, 65, 0
7, 70344, Note_on_c, 2, 67, 85
7, 70740, Note_on_c, 2, 65, 82
7, 70764, Note_on_c, 2, 67, 0
7, 70770, Note_on_c, 2, 70, 97
7, 70785, Note_on_c, 2, 65, 0
7, 70815, Note_on_c, 2, 70, 0
7, 70825, Note_on_c, 2, 67, 80
7, 71059, Note_on_c, 2, 72, 82
7, 71065, Note_on_c, 2, 67, 0
7, 71139, Note_on_c, 2, 72, 0
7, 71141, Note_on_c, 2, 70, 91
7, 71220, Note_on_c, 2, 70, 0
7, 71220, Note_on_c, 2, 67, 93
7, 71300, Note_on_c, 2, 67, 0
7, 71303, Note_on_c, 2, 70, 79
7, 71383, Note_on_c, 2, 70, 0
7, 71385, Note_on_c, 2, 68, 79
7, 71458, Note_on_c, 2, 65, 91
7, 71464, Note_on_c, 2, 68, 0
7, 71538, Note_on_c, 2, 65, 0
7, 91700, Note_on_c, 2, 61, 66
7, 91795, Note_on_c, 2, 61, 0
7, 91931, Note_on_c, 2, 58, 80
7, 92026, Note_on_c, 2, 58, 0
7, 92176, Note_on_c, 2, 63, 85
7, 92271, Note_on_c, 2, 63, 0
7, 92420, Note_on_c, 2, 58, 77
7, 92515, Note_on_c, 2, 58, 0
7, 92658, Note_on_c, 2, 61, 81
7, 92753, Note_on_c, 2, 61, 0
7, 92887, Note_on_c, 2, 58, 83
7, 92982, Note_on_c, 2, 58, 0
7, 93128, Note_on_c, 2, 63, 70
7, 93223, Note_on_c, 2, 63, 0
7, 93370, Note_on_c, 2, 58, 81
7, 93465, Note_on_c, 2, 58, 0
7, 93622, Note_on_c, 2, 61, 68
7, 93717, Note_on_c, 2, 61, 0
7, 93859, Note_on_c, 2, 58, 74
7, 93954, Note_on_c, 2, 58, 0
7, 94096, Note_on_c, 2, 63, 74
7, 94191, Note_on_c, 2, 63, 0
7, 94336, Note_on_c, 2, 58, 65
7, 94431, Note_on_c, 2, 58, 0
7, 94565, Note_on_c, 2, 61, 74
7, 94660, Note_on_c, 2, 61, 0
7, 94822, Note_on_c, 2, 58, 82
7, 94917, Note_on_c, 2, 58, 0
7, 95043, Note_on_c, 2, 63, 68
7, 95138, Note_on_c, 2, 63, 0
7, 95297, Note_on_c, 2, 58, 76
7, 95392, Note_on_c, 2, 58, 0
7, 99365, Note_on_c, 2, 61, 80
7, 99460, Note_on_c, 2, 61, 0
7, 99622, Note_on_c, 2, 58, 74
7, 99717, Note_on_c, 2, 58, 0
7, 99860, Note_on_c, 2, 63, 72
7, 99955, Note_on_c, 2, 63, 0
7, 100082, Note_on_c, 2, 58, 76
7, 100177, Note_on_c, 2, 58, 0
7, 100342, Note_on_c, 2, 61, 73
7, 100437, Note_on_c, 2, 61, 0
7, 100574, Note_on_c, 2, 58, 65
7, 100669, Note_on_c, 2, 58, 0
7, 100824, Note_on_c, 2, 63, 85
7, 100919, Note_on_c, 2, 63, 0
7, 101059, Note_on_c, 2, 58, 82
7, 101154, Note_on_c, 2, 58, 0
7, 101296, Note_on_c, 2, 61, 75
7, 101391, Note_on_c, 2, 61, 0
7, 101531, Note_on_c, 2, 58, 72
7, 101626, Note_on_c, 2, 58, 0
7, 101772, Note_on_c, 2, 63, 75
7, 101867, Note_on_c, 2, 63, 0
7, 102022, Note_on_c, 2, 58, 76
7, 102117, Note_on_c, 2, 58, 0
7, 102264, Note_on_c, 2, 61, 65
7, 102359, Note_on_c, 2, 61, 0
7, 102491, Note_on_c, 2, 58, 71
7, 102586, Note_on_c, 2, 58, 0
7, 102726, Note_on_c, 2, 63, 79
7, 102821, Note_on_c, 2, 63, 0
7, 102964, Note_on_c, 2, 58, 75
7, 103059, Note_on_c, 2, 58, 0
7, 103224, Note_on_c, 2, 61, 71
7, 103319, Note_on_c, 2, 61, 0
7, 103452, Note_on_c, 2, 58, 73
7, 103547, Note_on_c, 2, 58, 0
7, 103696, Note_on_c, 2, 63, 75
7, 103791, Note_on_c, 2, 63, 0
7, 103922, Note_on_c, 2, 58, 68
7, 104017, Note_on_c, 2, 58, 0
7, 104163, Note_on_c, 2, 61, 81
7, 104258, Note_on_c, 2, 61, 0
7, 104403, Note_on_c, 2, 58, 66
7, 104498, Note_on_c, 2, 58, 0
7, 104646, Note_on_c, 2, 63, 84
7, 104741, Note_on_c, 2, 63, 0
7, 104888, Note_on_c, 2, 58, 68
7, 104983, Note_on_c, 2, 58, 0
7, 105138, Note_on_c, 2, 61, 69
7, 105233, Note_on_c, 2, 61, 0
7, 105375, Note_on_c, 2, 58, 79
7, 105470, Note_on_c, 2, 58, 0
7, 105604, Note_on_c, 2, 63, 80
7, 105699, Note_on_c, 2, 63, 0
7, 105845, Note_on_c, 2, 58, 65
7, 105940, Note_on_c, 2, 58, 0
7, 106098, Note_on_c, 2, 61, 80
7, 106193, Note_on_c, 2, 61, 0
7, 106322, Note_on_c, 2, 58, 79
7, 106417, Note_on_c, 2, 58, 0
7, 106579, Note_on_c, 2, 63, 69
7, 106674, Note_on_c, 2, 63, 0
7, 106822, Note_on_c, 2, 58, 71
7, 106917, Note_on_c, 2, 58, 0
7, 107053, Note_on_c, 2, 61, 65
7, 107148, Note_on_c, 2, 61, 0
7, 107300, Note_on_c, 2, 58, 79
7, 107395, Note_on_c, 2, 58, 0
7, 107528, Note_on_c, 2, 63, 76
7, 107623, Note_on_c, 2, 63, 0
7, 107779, Note_on_c, 2, 58, 65
7, 107874, Note_on_c, 2, 58, 0
7, 108012, Note_on_c, 2, 61, 70
7, 108107, Note_on_c, 2, 61, 0
7, 108264, Note_on_c, 2, 58, 65
7, 108359, Note_on_c, 2, 58, 0
7, 108487, Note_on_c, 2, 63, 69
7, 108582, Note_on_c, 2, 63, 0
7, 108736, Note_on_c, 2, 58, 81
7, 108831, Note_on_c, 2, 58, 0
7, 108984, Note_on_c, 2, 61, 73
7, 109079, Note_on_c, 2, 61, 0
7, 109223, Note_on_c, 2, 58, 80
7, 109318, Note_on_c, 2, 58, 0
7, 109447, Note_on_c, 2, 63, 78
7, 109542, Note_on_c, 2, 63, 0
7, 109691, Note_on_c, 2, 58, 74
7, 109786, Note_on_c, 2, 58, 0
7, 109921, Note_on_c, 2, 61, 65
7, 110016, Note_on_c, 2, 61, 0
7, 110160, Note_on_c, 2, 58, 74
7, 110255, Note_on_c, 2, 58, 0
7, 110403, Note_on_c, 2, 63, 72
7, 110498, Note_on_c, 2, 63, 0
7, 110645, Note_on_c, 2, 58, 79
7, 110740, Note_on_c, 2, 58, 0
7, 110905, Note_on_c, 2, 61, 85
7, 111000, Note_on_c, 2, 61, 0
7, 111141, Note_on_c, 2, 58, 72
7, 111236, Note_on_c, 2, 58, 0
7, 111384, Note_on_c, 2, 63, 80
7, 111479, Note_on_c, 2, 63, 0
7, 111605, Note_on_c, 2, 58, 81
7, 111700, Note_on_c, 2, 58, 0
7, 111848, Note_on_c, 2, 61, 66
7, 111943, Note_on_c, 2, 61, 0
7, 112083, Note_on_c, 2, 58, 72
7, 112178, Note_on_c, 2, 58, 0
7, 112336, Note_on_c, 2, 63, 76
7, 112431, Note_on_c, 2, 63, 0
7, 112561, Note_on_c, 2, 58, 71
7, 112656, Note_on_c, 2, 58, 0
7, 112810, Note_on_c, 2, 61, 79
7, 112905, Note_on_c, 2, 61, 0
7, 113045, Note_on_c, 2, 58, 68
7, 113140, Note_on_c, 2, 58, 0
7, 113295, Note_on_c, 2, 63, 84
7, 113390, Note_on_c, 2, 63, 0
7, 113533, Note_on_c, 2, 58, 78
7, 113628, Note_on_c, 2, 58, 0
7, 113781, Note_on_c, 2, 61, 65
7, 113876, Note_on_c, 2, 61, 0
7, 114005, Note_on_c, 2, 58, 71
7, 114100, Note_on_c, 2, 58, 0
7, 114254, Note_on_c, 2, 63, 72
7, 114349, Note_on_c, 2, 63, 0
7, 114493, Note_on_c, 2, 58, 72
7, 114588, Note_on_c, 2, 58, 0
7, 114729, Note_on_c, 2, 61, 84
7, 114824, Note_on_c, 2, 61, 0
7, 114977, Note_on_c, 2, 58, 75
7, 115072, Note_on_c, 2, 58, 0
7, 115203, Note_on_c, 2, 63, 70
7, 115298, Note_on_c, 2, 63, 0
7, 115459, Note_on_c, 2, 58, 68
7, 115554, Note_on_c, 2, 58, 0
7, 115690, Note_on_c, 2, 61, 75
7, 115785, Note_on_c, 2, 61, 0
7, 115927, Note_on_c, 2, 58, 74
7, 116022, Note_on_c, 2, 58, 0
7, 116179, Note_on_c, 2, 63, 85
7, 116274, Note_on_c, 2, 63, 0
7, 116401, Note_on_c, 2, 58, 70
7, 116496, Note_on_c, 2, 58, 0
7, 153600, Note_on_c, 2, 63, 85
7, 153671, Note_on_c, 2, 63, 0
7, 153862, Note_on_c, 2, 58, 96
7, 153933, Note_on_c, 2, 58, 0
7, 154102, Note_on_c, 2, 61, 81
7, 154197, Note_on_c, 2, 61, 0
7, 154338, Note_on_c, 2, 58, 71
7, 154433, Note_on_c, 2, 58, 0
7, 154585, Note_on_c, 2, 63, 81
7, 154680, Note_on_c, 2, 63, 0
7, 154812, Note_on_c, 2, 58, 65
7, 154907, Note_on_c, 2, 58, 0
7, 155053, Note_on_c, 2, 61, 85
7, 155148, Note_on_c, 2, 61, 0
7, 155289, Note_on_c, 2, 58, 83
7, 155384, Note_on_c, 2, 58, 0
7, 155531, Note_on_c, 2, 63, 66
7, 155626, Note_on_c, 2, 63, 0
7, 155762, Note_on_c, 2, 58, 84
7, 155857, Note_on_c, 2, 58, 0
7, 156022, Note_on_c, 2, 61, 72
7, 156117, Note_on_c, 2, 61, 0
7, 156244, Note_on_c, 2, 58, 71
7, 156339, Note_on_c, 2, 58, 0
7, 156487, Note_on_c, 2, 63, 68
7, 156582, Note_on_c, 2, 63, 0
7, 156728, Note_on_c, 2, 58, 79
7, 156823, Note_on_c, 2, 58, 0
7, 156978, Note_on_c, 2, 61, 73
7, 157073, Note_on_c, 2, 61, 0
7, 157205, Note_on_c, 2, 58, 68
7, 157300, Note_on_c, 2, 58, 0
7, 157448, Note_on_c, 2, 63, 75
7, 157543, Note_on_c, 2, 63, 0
7, 157694, Note_on_c, 2, 58, 75
7, 157789, Note_on_c, 2, 58, 0
7, 160807, Note_on_c, 2, 61, 70
7, 160902, Note_on_c, 2, 61, 0
7, 161060, Note_on_c, 2, 58, 76
7, 161155, Note_on_c, 2, 58, 0
7, 161282, Note_on_c, 2, 63, 85
7, 161377, Note_on_c, 2, 63, 0
7, 161539, Note_on_c, 2, 58, 65
7, 161634, Note_on_c, 2, 58, 0
7, 162729, Note_on_c, 2, 61, 67
7, 162824, Note_on_c, 2, 61, 0
7, 162972, Note_on_c, 2, 58, 67
7, 163067, Note_on_c, 2, 58, 0
7, 163207, Note_on_c, 2, 63, 66
7, 163302, Note_on_c, 2, 63, 0
7, 163442, Note_on_c, 2, 58, 82
7, 163537, Note_on_c, 2, 58, 0
7, 163700, Note_on_c, 2, 61, 74
7, 163795, Note_on_c, 2, 61, 0
7, 163938, Note_on_c, 2, 58, 68
7, 164033, Note_on_c, 2, 58, 0
7, 164160, Note_on_c, 2, 63, 69
7, 164255, Note_on_c, 2, 63, 0
7, 164421, Note_on_c, 2, 58, 78
7, 164516, Note_on_c, 2, 58, 0
7, 164663, Note_on_c, 2, 61, 85
7, 164758, Note_on_c, 2, 61, 0
7, 164891, Note_on_c, 2, 58, 75
7, 164986, Note_on_c, 2, 58, 0
7, 165142, Note_on_c, 2, 63, 75
7, 165237, Note_on_c, 2, 63, 0
7, 165379, Note_on_c, 2, 58, 83
7, 165474, Note_on_c, 2, 58, 0
7, 165605, Note_on_c, 2, 61, 74
7, 165700, Note_on_c, 2, 61, 0
7, 165840, Note_on_c, 2, 58, 85
7, 165935, Note_on_c, 2, 58, 0
7, 166081, Note_on_c, 2, 63, 67
7, 166176, Note_on_c, 2, 63, 0
7, 166345, Note_on_c, 2, 58, 65
7, 166440, Note_on_c, 2, 58, 0
7, 205890, Note_on_c, 2, 60, 70
7, 205890, Note_on_c, 2, 68, 70
7, 205920, Note_on_c, 2, 60, 0
7, 205920, Note_on_c, 2, 68, 0
7, 205940, Note_on_c, 2, 72, 91
7, 205943, Note_on_c, 2, 66, 110
7, 206420, Note_on_c, 2, 72, 0
7, 206423, Note_on_c, 2, 66, 0
7, 206850, Note_on_c, 2, 60, 92
7, 206850, Note_on_c, 2, 68, 100
7, 206880, Note_on_c, 2, 60, 0
7, 206880, Note_on_c, 2, 68, 0
7, 206881, Note_on_c, 2, 72, 93
7, 206898, Note_on_c, 2, 66, 92
7, 207361, Note_on_c, 2, 72, 0
7, 207378, Note_on_c, 2, 66, 0
7, 207810, Note_on_c, 2, 60, 111
7, 207810, Note_on_c, 2, 68, 98
7, 207840, Note_on_c, 2, 60, 0
7, 207840, Note_on_c, 2, 68, 0
7, 207853, Note_on_c, 2, 72, 110
7, 207865, Note_on_c, 2, 66, 108
7, 208333, Note_on_c, 2, 72, 0
7, 208345, Note_on_c, 2, 66, 0
7, 208770, Note_on_c, 2, 60, 94
7, 208770, Note_on_c, 2, 68, 111
7, 208800, Note_on_c, 2, 60, 0
7, 208800, Note_on_c, 2, 68, 0
7, 208814, Note_on_c, 2, 72, 104
7, 208817, Note_on_c, 2, 66, 95
7, 209294, Note_on_c, 2, 72, 0
7, 209297, Note_on_c, 2, 66, 0
7, 209730, Note_on_c, 2, 60, 108
7, 209730, Note_on_c, 2, 68, 111
7, 209760, Note_on_c, 2, 60, 0
7, 209760, Note_on_c, 2, 68, 0
7, 209775, Note_on_c, 2, 72, 102
7, 209783, Note_on_c, 2, 66, 103
7, 210255, Note_on_c, 2, 72, 0
7, 210263, Note_on_c, 2, 66, 0
7, 210690, Note_on_c, 2, 60, 110
7, 210690, Note_on_c, 2, 68, 109
7, 210720, Note_on_c, 2, 60, 0
7, 210720, Note_on_c, 2, 68, 0
7, 210723, Note_on_c, 2, 72, 104
7, 210725, Note_on_c, 2, 66, 92
7, 211203, Note_on_c, 2, 72, 0
7, 211205, Note_on_c, 2, 66, 0
7, 219364, Note_on_c, 2, 60, 75
7, 219459, Note_on_c, 2, 60, 0
7, 219622, Note_on_c, 2, 57, 69
7, 219717, Note_on_c, 2, 57, 0
7, 219850, Note_on_c, 2, 62, 66
7, 219945, Note_on_c, 2, 62, 0
7, 220103, Note_on_c, 2, 57, 66
7, 220198, Note_on_c, 2, 57, 0
7, 220335, Note_on_c, 2, 60, 74
7, 220430, Note_on_c, 2, 60, 0
7, 220578, Note_on_c, 2, 57, 72
7, 220673, Note_on_c, 2, 57, 0
7, 220805, Note_on_c, 2, 62, 77
7, 220900, Note_on_c, 2, 62, 0
7, 221044, Note_on_c, 2, 57, 84
7, 221139, Note_on_c, 2, 57, 0
7, 221287, Note_on_c, 2, 60, 66
7, 221382, Note_on_c, 2, 60, 0
7, 221541, Note_on_c, 2, 57, 76
7, 221636, Note_on_c, 2, 57, 0
7, 221760, Note_on_c, 2, 62, 77
7, 221855, Note_on_c, 2, 62, 0
7, 222008, Note_on_c, 2, 57, 65
7, 222103, Note_on_c, 2, 57, 0
7, 222257, Note_on_c, 2, 60, 77
7, 222352, Note_on_c, 2, 60, 0
7, 222501, Note_on_c, 2, 57, 80
7, 222596, Note_on_c, 2, 57, 0
7, 222738, Note_on_c, 2, 62, 72
7, 222833, Note_on_c, 2, 62, 0
7, 222964, Note_on_c, 2, 57, 76
7, 223059, Note_on_c, 2, 57, 0
7, 223219, Note_on_c, 2, 60, 82
7, 223314, Note_on_c, 2, 60, 0
7, 223451, Note_on_c, 2, 57, 75
7, 223546, Note_on_c, 2, 57, 0
7, 223702, Note_on_c, 2, 62, 84
7, 223797, Note_on_c, 2, 62, 0
7, 223942, Note_on_c, 2, 57, 80
7, 224037, Note_on_c, 2, 57, 0
7, 224162, Note_on_c, 2, 60, 74
7, 224257, Note_on_c, 2, 60, 0
7, 224421, Note_on_c, 2, 57, 73
7, 224516, Note_on_c, 2, 57, 0
7, 224644, Note_on_c, 2, 62, 66
7, 224739, Note_on_c, 2, 62, 0
7, 224880, Note_on_c, 2, 57, 69
7, 224975, Note_on_c, 2, 57, 0
7, 225121, Note_on_c, 2, 60, 77
7, 225216, Note_on_c, 2, 60, 0
7, 225367, Note_on_c, 2, 57, 85
7, 225462, Note_on_c, 2, 57, 0
7, 225621, Note_on_c, 2, 62, 67
7, 225716, Note_on_c, 2, 62, 0
7, 225852, Note_on_c, 2, 57, 85
7, 225947, Note_on_c, 2, 57, 0
7, 226084, Note_on_c, 2, 60, 84
7, 226179, Note_on_c, 2, 60, 0
7, 226343, Note_on_c, 2, 57, 65
7, 226438, Note_on_c, 2, 57, 0
7, 226569, Note_on_c, 2, 62, 65
7, 226664, Note_on_c, 2, 62, 0
7, 226808, Note_on_c, 2, 57, 81
7, 226903, Note_on_c, 2, 57, 0
7, 227058, Note_on_c, 2, 60, 88
7, 227153, Note_on_c, 2, 60, 0
7, 227282, Note_on_c, 2, 57, 81
7, 227377, Note_on_c, 2, 57, 0
7, 227537, Note_on_c, 2, 62, 93
7, 227632, Note_on_c, 2, 62, 0
7, 227774, Note_on_c, 2, 57, 83
7, 227869, Note_on_c, 2, 57, 0
7, 228013, Note_on_c, 2, 60, 88
7, 228108, Note_on_c, 2, 60, 0
7, 228253, Note_on_c, 2, 57, 92
7, 228348, Note_on_c, 2, 57, 0
7, 228500, Note_on_c, 2, 62, 92
7, 228595, Note_on_c, 2, 62, 0
7, 228745, Note_on_c, 2, 57, 87
7, 228840, Note_on_c, 2, 57, 0
7, 228969, Note_on_c, 2, 60, 86
7, 229064, Note_on_c, 2, 60, 0
7, 229212, Note_on_c, 2, 57, 96
7, 229307, Note_on_c, 2, 57, 0
7, 229449, Note_on_c, 2, 62, 93
7, 229544, Note_on_c, 2, 62, 0
7, 229682, Note_on_c, 2, 57, 81
7, 229777, Note_on_c, 2, 57, 0
7, 229940, Note_on_c, 2, 60, 87
7, 230035, Note_on_c, 2, 60, 0
7, 230169, Note_on_c, 2, 57, 78
7, 230264, Note_on_c, 2, 57, 0
7, 230424, Note_on_c, 2, 62, 81
7, 230519, Note_on_c, 2, 62, 0
7, 230664, Note_on_c, 2, 57, 87
7, 230759, Note_on_c, 2, 57, 0
7, 230880, Note_on_c, 2, 60, 96
7, 230975, Note_on_c, 2, 60, 0
7, 231120, Note_on_c, 2, 57, 92
7, 231215, Note_on_c, 2, 57, 0
7, 231371, Note_on_c, 2, 62, 81
7, 231466, Note_on_c, 2, 62, 0
7, 231608, Note_on_c, 2, 57, 87
7, 231703, Note_on_c, 2, 57, 0
7, 231848, Note_on_c, 2, 60, 87
7, 231943, Note_on_c, 2, 60, 0
7, 232101, Note_on_c, 2, 57, 85
7, 232196, Note_on_c, 2, 57, 0
7, 232340, Note_on_c, 2, 62, 95
7, 232435, Note_on_c, 2, 62, 0
7, 232580, Note_on_c, 2, 57, 98
7, 232675, Note_on_c, 2, 57, 0
7, 232809, Note_on_c, 2, 60, 97
7, 232904, Note_on_c, 2, 60, 0
7, 233043, Note_on_c, 2, 57, 89
7, 233138, Note_on_c, 2, 57, 0
7, 233297, Note_on_c, 2, 62, 81
7, 233392, Note_on_c, 2, 62, 0
7, 233522, Note_on_c, 2, 57, 90
7, 233617, Note_on_c, 2, 57, 0
7, 233769, Note_on_c, 2, 60, 78
7, 233864, Note_on_c, 2, 60, 0
7, 234003, Note_on_c, 2, 57, 90
7, 234098, Note_on_c, 2, 57, 0
7, 234250, Note_on_c, 2, 62, 98
7, 234345, Note_on_c, 2, 62, 0
7, 234500, Note_on_c, 2, 57, 98
7, 234595, Note_on_c, 2, 57, 0
7, 236640, Note_on_c, 2, 67, 87
7, 236687, Note_on_c, 2, 67, 0
7, 236760, Note_on_c, 2, 68, 99
7, 236807, Note_on_c, 2, 68, 0
7, 236880, Note_on_c, 2, 69, 103
7, 236927, Note_on_c, 2, 69, 0
7, 237000, Note_on_c, 2, 70, 102
7, 237047, Note_on_c, 2, 70, 0
7, 237120, Note_on_c, 2, 71, 108
7, 237167, Note_on_c, 2, 71, 0
7, 237240, Note_on_c, 2, 72, 107
7, 237287, Note_on_c, 2, 72, 0
7, 237360, Note_on_c, 2, 73, 100
7, 237407, Note_on_c, 2, 73, 0
7, 237480, Note_on_c, 2, 74, 112
7, 237527, Note_on_c, 2, 74, 0
7, 237609, Note_on_c, 2, 75, 109
7, 237723, Note_on_c, 2, 74, 105
7, 237729, Note_on_c, 2, 75, 0
7, 237843, Note_on_c, 2, 74, 0
7, 237855, Note_on_c, 2, 73, 97
7, 237967, Note_on_c, 2, 72, 95
7, 237975, Note_on_c, 2, 73, 0
7, 238087, Note_on_c, 2, 72, 0
7, 238104, Note_on_c, 2, 71, 107
7, 238214, Note_on_c, 2, 70, 103
7, 238224, Note_on_c, 2, 71, 0
7, 238334, Note_on_c, 2, 70, 0
7, 238336, Note_on_c, 2, 69, 101
7, 238456, Note_on_c, 2, 69, 0
7, 238465, Note_on_c, 2, 68, 83
7, 238560, Note_on_c, 2, 69, 88
7, 238585, Note_on_c, 2, 68, 0
7, 238595, Note_on_c, 2, 69, 0
7, 238680, Note_on_c, 2, 69, 87
7, 238715, Note_on_c, 2, 69, 0
7, 239040, Note_on_c, 2, 71, 79
7, 239075, Note_on_c, 2, 71, 0
7, 239160, Note_on_c, 2, 71, 96
7, 239195, Note_on_c, 2, 71, 0
7, 239520, Note_on_c, 2, 72, 91
7, 239555, Note_on_c, 2, 72, 0
7, 239640, Note_on_c, 2, 72, 95
7, 239675, Note_on_c, 2, 72, 0
7, 240000, Note_on_c, 2, 71, 80
7, 240035, Note_on_c, 2, 71, 0
7, 240120, Note_on_c, 2, 71, 84
7, 240155, Note_on_c, 2, 71, 0
7, 240480, Note_on_c, 2, 69, 91
7, 240515, Note_on_c, 2, 69, 0
7, 240600, Note_on_c, 2, 69, 91
7, 240635, Note_on_c, 2, 69, 0
7, 240960, Note_on_c, 2, 71, 82
7, 240995, Note_on_c, 2, 71, 0
7, 241080, Note_on_c, 2, 71, 87
7, 241115, Note_on_c, 2, 71, 0
7, 241689, Note_on_c, 2, 69, 106
7, 241760, Note_on_c, 2, 69, 0
7, 242172, Note_on_c, 2, 69, 108
7, 242243, Note_on_c, 2, 69, 0
7, 242400, Note_on_c, 2, 69, 104
7, 242435, Note_on_c, 2, 69, 0
7, 242520, Note_on_c, 2, 69, 109
7, 242555, Note_on_c, 2, 69, 0
7, 242880, Note_on_c, 2, 71, 110
7, 242915, Note_on_c, 2, 71, 0
7, 243000, Note_on_c, 2, 71, 101
7, 243035, Note_on_c, 2, 71, 0
7, 243360, Note_on_c, 2, 72, 114
7, 243395, Note_on_c, 2, 72, 0
7, 243480, Note_on_c, 2, 72, 109
7, 243515, Note_on_c, 2, 72, 0
7, 243840, Note_on_c, 2, 71, 101
7, 243875, Note_on_c, 2, 71, 0
7, 243960, Note_on_c, 2, 71, 98
7, 243995, Note_on_c, 2, 71, 0
7, 244320, Note_on_c, 2, 69, 111
7, 244355, Note_on_c, 2, 69, 0
7, 244440, Note_on_c, 2, 69, 103
7, 244475, Note_on_c, 2, 69, 0
7, 244800, Note_on_c, 2, 71, 101
7, 244835, Note_on_c, 2, 71, 0
7, 244920, Note_on_c, 2, 71, 109
7, 244955, Note_on_c, 2, 71, 0
7, 245532, Note_on_c, 2, 69, 110
7, 245603, Note_on_c, 2, 69, 0
7, 246001, Note_on_c, 2, 69, 112
7, 246072, Note_on_c, 2, 69, 0
7, 246240, Note_on_c, 2, 69, 95
7, 246275, Note_on_c, 2, 69, 0
7, 246360, Note_on_c, 2, 69, 105
7, 246395, Note_on_c, 2, 69, 0
7, 246720, Note_on_c, 2, 71, 113
7, 246755, Note_on_c, 2, 71, 0
7, 246840, Note_on_c, 2, 71, 103
7, 246875, Note_on_c, 2, 71, 0
7, 247200, Note_on_c, 2, 69, 106
7, 247235, Note_on_c, 2, 69, 0
7, 247320, Note_on_c, 2, 69, 109
7, 247355, Note_on_c, 2, 69, 0
7, 247680, Note_on_c, 2, 71, 98
7, 247715, Note_on_c, 2, 71, 0
7, 247800, Note_on_c, 2, 71, 108
7, 247835, Note_on_c, 2, 71, 0
7, 248160, Note_on_c, 2, 69, 114
7, 248195, Note_on_c, 2, 69, 0
7, 248280, Note_on_c, 2, 69, 97
7, 248315, Note_on_c, 2, 69, 0
7, 248640, Note_on_c, 2, 71, 97
7, 248675, Note_on_c, 2, 71, 0
7, 248760, Note_on_c, 2, 71, 113
7, 248795, Note_on_c, 2, 71, 0
7, 249374, Note_on_c, 2, 69, 99
7, 249445, Note_on_c, 2, 69, 0
7, 249853, Note_on_c, 2, 69, 102
7, 249924, Note_on_c, 2, 69, 0
7, 261510, Note_on_c, 2, 60, 113
7, 261540, Note_on_c, 2, 60, 0
7, 261540, Note_on_c, 2, 59, 105
7, 261570, Note_on_c, 2, 59, 0
7, 261570, Note_on_c, 2, 57, 108
7, 261600, Note_on_c, 2, 57, 0
7, 261607, Note_on_c, 2, 56, 81
7, 261702, Note_on_c, 2, 56, 0
7, 262950, Note_on_c, 2, 60, 84
7, 262980, Note_on_c, 2, 60, 0
7, 262980, Note_on_c, 2, 59, 88
7, 263010, Note_on_c, 2, 59, 0
7, 263010, Note_on_c, 2, 57, 85
7, 263040, Note_on_c, 2, 57, 0
7, 263063, Note_on_c, 2, 56, 88
7, 263158, Note_on_c, 2, 56, 0
7, 264390, Note_on_c, 2, 60, 84
7, 264420, Note_on_c, 2, 60, 0
7, 264420, Note_on_c, 2, 59, 87
7, 264450, Note_on_c, 2, 59, 0
7, 264450, Note_on_c, 2, 57, 79
7, 264480, Note_on_c, 2, 57, 0
7, 264498, Note_on_c, 2, 56, 79
7, 264593, Note_on_c, 2, 56, 0
7, 265830, Note_on_c, 2, 60, 89
7, 265860, Note_on_c, 2, 60, 0
7, 265860, Note_on_c, 2, 59, 92
7, 265890, Note_on_c, 2, 59, 0
7, 265890, Note_on_c, 2, 57, 95
7, 265920, Note_on_c, 2, 57, 0
7, 265933, Note_on_c, 2, 56, 91
7, 266028, Note_on_c, 2, 56, 0
7, 284550, Note_on_c, 2, 60, 84
7, 284580, Note_on_c, 2, 60, 0
7, 284580, Note_on_c, 2, 59, 85
7, 284580, Note_on_c, 2, 63, 87
7, 284610, Note_on_c, 2, 59, 0
7, 284610, Note_on_c, 2, 63, 0
7, 284610, Note_on_c, 2, 57, 82
7, 284610, Note_on_c, 2, 66, 83
7, 284640, Note_on_c, 2, 57, 0
7, 284640, Note_on_c, 2, 66, 0
7, 284647, Note_on_c, 2, 71, 89
7, 284651, Note_on_c, 2, 56, 93
7, 284742, Note_on_c, 2, 71, 0
7, 284746, Note_on_c, 2, 56, 0
7, 286710, Note_on_c, 2, 60, 93
7, 286740, Note_on_c, 2, 60, 0
7, 286740, Note_on_c, 2, 59, 78
7, 286740, Note_on_c, 2, 63, 96
7, 286770, Note_on_c, 2, 59, 0
7, 286770, Note_on_c, 2, 63, 0
7, 286770, Note_on_c, 2, 57, 85
7, 286770, Note_on_c, 2, 66, 80
7, 286800, Note_on_c, 2, 57, 0
7, 286800, Note_on_c, 2, 66, 0
7, 286802, Note_on_c, 2, 71, 97
7, 286803, Note_on_c, 2, 56, 80
7, 286897, Note_on_c, 2, 71, 0
7, 286898, Note_on_c, 2, 56, 0
7, 288150, Note_on_c, 2, 60, 84
7, 288180, Note_on_c, 2, 60, 0
7, 288180, Note_on_c, 2, 59, 90
7, 288180, Note_on_c, 2, 63, 95
7, 288210, Note_on_c, 2, 59, 0
7, 288210, Note_on_c, 2, 63, 0
7, 288210, Note_on_c, 2, 57, 85
7, 288210, Note_on_c, 2, 66, 95
7, 288240, Note_on_c, 2, 57, 0
7, 288240, Note_on_c, 2, 66, 0
7, 288243, Note_on_c, 2, 56, 96
7, 288249, Note_on_c, 2, 71, 84
7, 288338, Note_on_c, 2, 56, 0
7, 288344, Note_on_c, 2, 71, 0
7, 294005, Note_on_c, 2, 63, 40
7, 294009, Note_on_c, 2, 67, 57
7, 294100, Note_on_c, 2, 63, 0
7, 294104, Note_on_c, 2, 67, 0
7, 294240, Note_on_c, 2, 70, 52
7, 294264, Note_on_c, 2, 66, 40
7, 294335, Note_on_c, 2, 70, 0
7, 294359, Note_on_c, 2, 66, 0
7, 294495, Note_on_c, 2, 63, 48
7, 294500, Note_on_c, 2, 67, 53
7, 294590, Note_on_c, 2, 63, 0
7, 294595, Note_on_c, 2, 67, 0
7, 294738, Note_on_c, 2, 64, 56
7, 294745, Note_on_c, 2, 60, 54
7, 294833, Note_on_c, 2, 64, 0
7, 294840, Note_on_c, 2, 60, 0
7, 294965, Note_on_c, 2, 57, 56
7, 294975, Note_on_c, 2, 61, 45
7, 295060, Note_on_c, 2, 57, 0
7, 295070, Note_on_c, 2, 61, 0
7, 295202, Note_on_c, 2, 58, 45
7, 295224, Note_on_c, 2, 54, 47
7, 295297, Note_on_c, 2, 58, 0
7, 295319, Note_on_c, 2, 54, 0
7, 295454, Note_on_c, 2, 66, 53
7, 295549, Note_on_c, 2, 66, 0
7, 295684, Note_on_c, 2, 69, 55
7, 295779, Note_on_c, 2, 69, 0
7, 295930, Note_on_c, 2, 66, 41
7, 296025, Note_on_c, 2, 66, 0
7, 296169, Note_on_c, 2, 63, 43
7, 296264, Note_on_c, 2, 63, 0
7, 296404, Note_on_c, 2, 60, 53
7, 296499, Note_on_c, 2, 60, 0
7, 296662, Note_on_c, 2, 57, 54
7, 296757, Note_on_c, 2, 57, 0
7, 296895, Note_on_c, 2, 69, 48
7, 296990, Note_on_c, 2, 69, 0
7, 297135, Note_on_c, 2, 72, 39
7, 297230, Note_on_c, 2, 72, 0
7, 297369, Note_on_c, 2, 69, 59
7, 297464, Note_on_c, 2, 69, 0
7, 297610, Note_on_c, 2, 66, 50
7, 297705, Note_on_c, 2, 66, 0
7, 297856, Note_on_c, 2, 63, 40
7, 297951, Note_on_c, 2, 63, 0
7, 298097, Note_on_c, 2, 60, 49
7, 298192, Note_on_c, 2, 60, 0
7, 298327, Note_on_c, 2, 72, 53
7, 298422, Note_on_c, 2, 72, 0
7, 298584, Note_on_c, 2, 75, 46
7, 298679, Note_on_c, 2, 75, 0
7, 298811, Note_on_c, 2, 72, 46
7, 298906, Note_on_c, 2, 72, 0
7, 299064, Note_on_c, 2, 69, 58
7, 299159, Note_on_c, 2, 69, 0
7, 299282, Note_on_c, 2, 66, 59
7, 299377, Note_on_c, 2, 66, 0
7, 299520, Note_on_c, 2, 63, 59
7, 299615, Note_on_c, 2, 63, 0
7, 299780, Note_on_c, 2, 75, 45
7, 299875, Note_on_c, 2, 75, 0
7, 300000, Note_on_c, 2, 78, 43
7, 300095, Note_on_c, 2, 78, 0
7, 300245, Note_on_c, 2, 75, 53
7, 300340, Note_on_c, 2, 75, 0
7, 300483, Note_on_c, 2, 72, 48
7, 300578, Note_on_c, 2, 72, 0
7, 300730, Note_on_c, 2, 69, 45
7, 300825, Note_on_c, 2, 69, 0
7, 300960, Note_on_c, 2, 66, 48
7, 301055, Note_on_c, 2, 66, 0
7, 301200, Note_on_c, 2, 78, 49
7, 301295, Note_on_c, 2, 78, 0
7, 301457, Note_on_c, 2, 81, 58
7, 301552, Note_on_c, 2, 81, 0
7, 301699, Note_on_c, 2, 78, 43
7, 301794, Note_on_c, 2, 78, 0
7, 301932, Note_on_c, 2, 75, 52
7, 302027, Note_on_c, 2, 75, 0
7, 302175, Note_on_c, 2, 72, 54
7, 302270, Note_on_c, 2, 72, 0
7, 302424, Note_on_c, 2, 69, 48
7, 302519, Note_on_c, 2, 69, 0
7, 302649, Note_on_c, 2, 78, 94
7, 302657, Note_on_c, 2, 73, 105
7, 302769, Note_on_c, 2, 78, 0
7, 302777, Note_on_c, 2, 73, 0
7, 302881, Note_on_c, 2, 73, 94
7, 302891, Note_on_c, 2, 77, 108
7, 303001, Note_on_c, 2, 73, 0
7, 303011, Note_on_c, 2, 77, 0
7, 303126, Note_on_c, 2, 73, 100
7, 303132, Note_on_c, 2, 78, 100
7, 303246, Note_on_c, 2, 73, 0
7, 303252, Note_on_c, 2, 78, 0
7, 303379, Note_on_c, 2, 73, 102
7, 303385, Note_on_c, 2, 77, 103
7, 303499, Note_on_c, 2, 73, 0
7, 303505, Note_on_c, 2, 77, 0
7, 303616, Note_on_c, 2, 73, 103
7, 303619, Note_on_c, 2, 75, 91
7, 303736, Note_on_c, 2, 73, 0
7, 303739, Note_on_c, 2, 75, 0
7, 303846, Note_on_c, 2, 73, 107
7, 303966, Note_on_c, 2, 73, 0
7, 304081, Note_on_c, 2, 73, 106
7, 304085, Note_on_c, 2, 78, 110
7, 304201, Note_on_c, 2, 73, 0
7, 304205, Note_on_c, 2, 78, 0
7, 304325, Note_on_c, 2, 73, 102
7, 304331, Note_on_c, 2, 77, 107
7, 304445, Note_on_c, 2, 73, 0
7, 304451, Note_on_c, 2, 77, 0
7, 304560, Note_on_c, 2, 78, 110
7, 304579, Note_on_c, 2, 73, 110
7, 304680, Note_on_c, 2, 78, 0
7, 304699, Note_on_c, 2, 73, 0
7, 304807, Note_on_c, 2, 77, 98
7, 304812, Note_on_c, 2, 73, 105
7, 304927, Note_on_c, 2, 77, 0
7, 304932, Note_on_c, 2, 73, 0
7, 305043, Note_on_c, 2, 75, 94
7, 305051, Note_on_c, 2, 73, 108
7, 305163, Note_on_c, 2, 75, 0
7, 305171, Note_on_c, 2, 73, 0
7, 305287, Note_on_c, 2, 73, 110
7, 305407, Note_on_c, 2, 73, 0
7, 305535, Note_on_c, 2, 78, 93
7, 305539, Note_on_c, 2, 73, 105
7, 305655, Note_on_c, 2, 78, 0
7, 305659, Note_on_c, 2, 73, 0
7, 305770, Note_on_c, 2, 77, 93
7, 305783, Note_on_c, 2, 73, 102
7, 305890, Note_on_c, 2, 77, 0
7, 305903, Note_on_c, 2, 73, 0
7, 306006, Note_on_c, 2, 78, 105
7, 306008, Note_on_c, 2, 73, 101
7, 306126, Note_on_c, 2, 78, 0
7, 306128, Note_on_c, 2, 73, 0
7, 306248, Note_on_c, 2, 77, 108
7, 306252, Note_on_c, 2, 73, 100
7, 306368, Note_on_c, 2, 77, 0
7, 306372, Note_on_c, 2, 73, 0
7, 306480, Note_on_c, 2, 75, 91
7, 306486, Note_on_c, 2, 73, 98
7, 306600, Note_on_c, 2, 75, 0
7, 306606, Note_on_c, 2, 73, 0
7, 306726, Note_on_c, 2, 73, 99
7, 306846, Note_on_c, 2, 73, 0
7, 306969, Note_on_c, 2, 73, 91
7, 306981, Note_on_c, 2, 75, 107
7, 307089, Note_on_c, 2, 73, 0
7, 307101, Note_on_c, 2, 75, 0
7, 307213, Note_on_c, 2, 73, 111
7, 307214, Note_on_c, 2, 72, 92
7, 307333, Note_on_c, 2, 73, 0
7, 307334, Note_on_c, 2, 72, 0
7, 307441, Note_on_c, 2, 72, 92
7, 307463, Note_on_c, 2, 73, 110
7, 307561, Note_on_c, 2, 72, 0
7, 307583, Note_on_c, 2, 73, 0
7, 307682, Note_on_c, 2, 73, 96
7, 307703, Note_on_c, 2, 72, 94
7, 307802, Note_on_c, 2, 73, 0
7, 307823, Note_on_c, 2, 72, 0
7, 307930, Note_on_c, 2, 73, 110
7, 308050, Note_on_c, 2, 73, 0
7, 308169, Note_on_c, 2, 73, 91
7, 308177, Note_on_c, 2, 75, 94
7, 308289, Note_on_c, 2, 73, 0
7, 308297, Note_on_c, 2, 75, 0
7, 308402, Note_on_c, 2, 77, 100
7, 308419, Note_on_c, 2, 73, 97
7, 308522, Note_on_c, 2, 77, 0
7, 308539, Note_on_c, 2, 73, 0
7, 308657, Note_on_c, 2, 73, 91
7, 308659, Note_on_c, 2, 78, 93
7, 308777, Note_on_c, 2, 73, 0
7, 308779, Note_on_c, 2, 78, 0
7, 308893, Note_on_c, 2, 73, 103
7, 308895, Note_on_c, 2, 77, 109
7, 309013, Note_on_c, 2, 73, 0
7, 309015, Note_on_c, 2, 77, 0
7, 309126, Note_on_c, 2, 78, 102
7, 309145, Note_on_c, 2, 73, 101
7, 309246, Note_on_c, 2, 78, 0
7, 309265, Note_on_c, 2, 73, 0
7, 309364, Note_on_c, 2, 73, 105
7, 309365, Note_on_c, 2, 77, 100
7, 309484, Note_on_c, 2, 73, 0
7, 309485, Note_on_c, 2, 77, 0
7, 309609, Note_on_c, 2, 75, 95
7, 309618, Note_on_c, 2, 73, 107
7, 309729, Note_on_c, 2, 75, 0
7, 309738, Note_on_c, 2, 73, 0
7, 309861, Note_on_c, 2, 73, 103
7, 309981, Note_on_c, 2, 73, 0
7, 310084, Note_on_c, 2, 73, 103
7, 310091, Note_on_c, 2, 72, 107
7, 310204, Note_on_c, 2, 73, 0
7, 310211, Note_on_c, 2, 72, 0
7, 310323, Note_on_c, 2, 73, 100
7, 310443, Note_on_c, 2, 73, 0
7, 310570, Note_on_c, 2, 75, 111
7, 310585, Note_on_c, 2, 73, 111
7, 310690, Note_on_c, 2, 75, 0
7, 310705, Note_on_c, 2, 73, 0
7, 310813, Note_on_c, 2, 77, 108
7, 310823, Note_on_c, 2, 73, 99
7, 310933, Note_on_c, 2, 77, 0
7, 310943, Note_on_c, 2, 73, 0
7, 311059, Note_on_c, 2, 66, 91
7, 311064, Note_on_c, 2, 77, 97
7, 311179, Note_on_c, 2, 66, 0
7, 311184, Note_on_c, 2, 77, 0
7, 311293, Note_on_c, 2, 66, 96
7, 311300, Note_on_c, 2, 76, 111
7, 311413, Note_on_c, 2, 66, 0
7, 311420, Note_on_c, 2, 76, 0
7, 311532, Note_on_c, 2, 77, 107
7, 311541, Note_on_c, 2, 66, 101
7, 311652, Note_on_c, 2, 77, 0
7, 311661, Note_on_c, 2, 66, 0
7, 311775, Note_on_c, 2, 76, 93
7, 311777, Note_on_c, 2, 66, 101
7, 311895, Note_on_c, 2, 76, 0
7, 311897, Note_on_c, 2, 66, 0
7, 312004, Note_on_c, 2, 66, 110
7, 312007, Note_on_c, 2, 74, 100
7, 312124, Note_on_c, 2, 66, 0
7, 312127, Note_on_c, 2, 74, 0
7, 312251, Note_on_c, 2, 72, 110
7, 312259, Note_on_c, 2, 66, 96
7, 312371, Note_on_c, 2, 72, 0
7, 312379, Note_on_c, 2, 66, 0
7, 312481, Note_on_c, 2, 66, 108
7, 312486, Note_on_c, 2, 71, 96
7, 312601, Note_on_c, 2, 66, 0
7, 312606, Note_on_c, 2, 71, 0
7, 312734, Note_on_c, 2, 66, 104
7, 312734, Note_on_c, 2, 71, 100
7, 312854, Note_on_c, 2, 66, 0
7, 312854, Note_on_c, 2, 71, 0
7, 312962, Note_on_c, 2, 71, 94
7, 312970, Note_on_c, 2, 66, 110
7, 313082, Note_on_c, 2, 71, 0
7, 313090, Note_on_c, 2, 66, 0
7, 313218, Note_on_c, 2, 72, 109
7, 313219, Note_on_c, 2, 66, 104
7, 313338, Note_on_c, 2, 72, 0
7, 313339, Note_on_c, 2, 66, 0
7, 313443, Note_on_c, 2, 66, 99
7, 313453, Note_on_c, 2, 74, 91
7, 313563, Note_on_c, 2, 66, 0
7, 313573, Note_on_c, 2, 74, 0
7, 313688, Note_on_c, 2, 66, 108
7, 313703, Note_on_c, 2, 76, 91
7, 313808, Note_on_c, 2, 66, 0
7, 313823, Note_on_c, 2, 76, 0
7, 320400, Control_c, 2, 11, 64
7, 320403, Note_on_c, 2, 63, 93
7, 320409, Note_on_c, 2, 66, 104
7, 320468, Control_c, 2, 11, 65
7, 320536, Control_c, 2, 11, 66
7, 320605, Control_c, 2, 11, 67
7, 320673, Control_c, 2, 11, 68
7, 320742, Control_c, 2, 11, 69
7, 320811, Control_c, 2, 11, 70
7, 320880, Control_c, 2, 11, 71
7, 320948, Control_c, 2, 11, 72
7, 321016, Control_c, 2, 11, 73
7, 321085, Control_c, 2, 11, 74
7, 321153, Control_c, 2, 11, 75
7, 321222, Control_c, 2, 11, 76
7, 321291, Control_c, 2, 11, 77
7, 321360, Control_c, 2, 11, 78
7, 321428, Control_c, 2, 11, 79
7, 321496, Control_c, 2, 11, 80
7, 321565, Control_c, 2, 11, 81
7, 321633, Control_c, 2, 11, 82
7, 321702, Control_c, 2, 11, 83
7, 321771, Control_c, 2, 11, 84
7, 321840, Control_c, 2, 11, 85
7, 321908, Control_c, 2, 11, 86
7, 321976, Control_c, 2, 11, 87
7, 322045, Control_c, 2, 11, 88
7, 322113, Control_c, 2, 11, 89
7, 322182, Control_c, 2, 11, 90
7, 322251, Control_c, 2, 11, 91
7, 322320, Control_c, 2, 11, 92
7, 322388, Control_c, 2, 11, 93
7, 322456, Control_c, 2, 11, 94
7, 322525, Control_c, 2, 11, 95
7, 322593, Control_c, 2, 11, 96
7, 322662, Control_c, 2, 11, 97
7, 322731, Control_c, 2, 11, 98
7, 322800, Control_c, 2, 11, 99
7, 322868, Control_c, 2, 11, 100
7, 322936, Control_c, 2, 11, 101
7, 323005, Control_c, 2, 11, 102
7, 323073, Control_c, 2, 11, 103
7, 323142, Control_c, 2, 11, 104
7, 323211, Control_c, 2, 11, 105
7, 323280, Control_c, 2, 11, 106
7, 323348, Control_c, 2, 11, 107
7, 323416, Control_c, 2, 11, 108
7, 323485, Control_c, 2, 11, 109
7, 323553, Control_c, 2, 11, 110
7, 323622, Control_c, 2, 11, 111
7, 323691, Control_c, 2, 11, 112
7, 323760, Control_c, 2, 11, 113
7, 323828, Control_c, 2, 11, 114
7, 323896, Control_c, 2, 11, 115
7, 323965, Control_c, 2, 11, 116
7, 324033, Control_c, 2, 11, 117
7, 324102, Control_c, 2, 11, 118
7, 324171, Control_c, 2, 11, 119
7, 324240, Control_c, 2, 11, 120
7, 324308, Control_c, 2, 11, 121
7, 324376, Control_c, 2, 11, 122
7, 324445, Control_c, 2, 11, 123
7, 324513, Control_c, 2, 11, 124
7, 324582, Control_c, 2, 11, 125
7, 324651, Control_c, 2, 11, 126
7, 324720, Note_on_c, 2, 73, 111
7, 324720, Note_on_c, 2, 73, 108
7, 324722, Note_on_c, 2, 72, 91
7, 324723, Note_on_c, 2, 63, 0
7, 324729, Note_on_c, 2, 66, 0
7, 324900, Note_on_c, 2, 73, 0
7, 324902, Note_on_c, 2, 72, 0
7, 324970, Note_on_c, 2, 72, 108
7, 324983, Note_on_c, 2, 73, 93
7, 325140, Note_on_c, 2, 73, 0
7, 325150, Note_on_c, 2, 72, 0
7, 325224, Note_on_c, 2, 72, 91
7, 325225, Note_on_c, 2, 73, 91
7, 325403, Note_on_c, 2, 73, 0
7, 325404, Note_on_c, 2, 72, 0
7, 325405, Note_on_c, 2, 73, 0
7, 325440, Note_on_c, 2, 70, 109
7, 325455, Note_on_c, 2, 70, 95
7, 325458, Note_on_c, 2, 69, 110
7, 325620, Note_on_c, 2, 70, 0
7, 325638, Note_on_c, 2, 69, 0
7, 325696, Note_on_c, 2, 70, 96
7, 325704, Note_on_c, 2, 69, 97
7, 325875, Note_on_c, 2, 70, 0
7, 325884, Note_on_c, 2, 69, 0
7, 325933, Note_on_c, 2, 69, 99
7, 325944, Note_on_c, 2, 70, 97
7, 326113, Note_on_c, 2, 69, 0
7, 326116, Note_on_c, 2, 70, 0
7, 326124, Note_on_c, 2, 70, 0
7, 326165, Note_on_c, 2, 66, 91
7, 326168, Note_on_c, 2, 67, 99
7, 326176, Note_on_c, 2, 67, 99
7, 326345, Note_on_c, 2, 66, 0
7, 326356, Note_on_c, 2, 67, 0
7, 326401, Note_on_c, 2, 67, 111
7, 326420, Note_on_c, 2, 66, 106
7, 326588, Note_on_c, 2, 67, 0
7, 326600, Note_on_c, 2, 66, 0
7, 326641, Note_on_c, 2, 67, 104
7, 326642, Note_on_c, 2, 66, 98
7, 326821, Note_on_c, 2, 67, 0
7, 326821, Note_on_c, 2, 67, 0
7, 326822, Note_on_c, 2, 66, 0
7, 326894, Note_on_c, 2, 64, 96
7, 326900, Note_on_c, 2, 63, 93
7, 326903, Note_on_c, 2, 64, 99
7, 327074, Note_on_c, 2, 64, 0
7, 327080, Note_on_c, 2, 63, 0
7, 327125, Note_on_c, 2, 63, 110
7, 327133, Note_on_c, 2, 64, 111
7, 327305, Note_on_c, 2, 63, 0
7, 327323, Note_on_c, 2, 64, 0
7, 327369, Note_on_c, 2, 63, 98
7, 327369, Note_on_c, 2, 64, 107
7, 327549, Note_on_c, 2, 64, 0
7, 327549, Note_on_c, 2, 63, 0
7, 327553, Note_on_c, 2, 64, 0
7, 327608, Note_on_c, 2, 69, 102
7, 327609, Note_on_c, 2, 67, 99
7, 327614, Note_on_c, 2, 69, 93
7, 327788, Note_on_c, 2, 69, 0
7, 327789, Note_on_c, 2, 67, 0
7, 327847, Note_on_c, 2, 69, 105
7, 327851, Note_on_c, 2, 67, 106
7, 328031, Note_on_c, 2, 67, 0
7, 328034, Note_on_c, 2, 69, 0
7, 328084, Note_on_c, 2, 67, 110
7, 328097, Note_on_c, 2, 69, 95
7, 328264, Note_on_c, 2, 67, 0
7, 328267, Note_on_c, 2, 69, 0
7, 328277, Note_on_c, 2, 69, 0
7, 328333, Note_on_c, 2, 67, 101
7, 328333, Note_on_c, 2, 67, 109
7, 328343, Note_on_c, 2, 66, 91
7, 328513, Note_on_c, 2, 67, 0
7, 328523, Note_on_c, 2, 66, 0
7, 328569, Note_on_c, 2, 66, 95
7, 328572, Note_on_c, 2, 67, 96
7, 328749, Note_on_c, 2, 66, 0
7, 328753, Note_on_c, 2, 67, 0
7, 328820, Note_on_c, 2, 67, 105
7, 328824, Note_on_c, 2, 66, 106
7, 328992, Note_on_c, 2, 67, 0
7, 329000, Note_on_c, 2, 67, 0
7, 329004, Note_on_c, 2, 66, 0
7, 329040, Note_on_c, 2, 63, 109
7, 329049, Note_on_c, 2, 64, 92
7, 329061, Note_on_c, 2, 64, 94
7, 329220, Note_on_c, 2, 63, 0
7, 329241, Note_on_c, 2, 64, 0
7, 329291, Note_on_c, 2, 63, 94
7, 329305, Note_on_c, 2, 64, 104
7, 329469, Note_on_c, 2, 64, 0
7, 329471, Note_on_c, 2, 63, 0
7, 329545, Note_on_c, 2, 63, 91
7, 329545, Note_on_c, 2, 64, 110
7, 329725, Note_on_c, 2, 64, 0
7, 329725, Note_on_c, 2, 63, 0
7, 329725, Note_on_c, 2, 64, 0
7, 329770, Note_on_c, 2, 68, 97
7, 329775, Note_on_c, 2, 68, 95
7, 329781, Note_on_c, 2, 61, 91
7, 329950, Note_on_c, 2, 68, 0
7, 329961, Note_on_c, 2, 61, 0
7, 330012, Note_on_c, 2, 61, 96
7, 330022, Note_on_c, 2, 68, 96
7, 330192, Note_on_c, 2, 61, 0
7, 330195, Note_on_c, 2, 68, 0
7, 330251, Note_on_c, 2, 61, 92
7, 330264, Note_on_c, 2, 68, 111
7, 330431, Note_on_c, 2, 61, 0
7, 330442, Note_on_c, 2, 68, 0
7, 330444, Note_on_c, 2, 68, 0
7, 330489, Note_on_c, 2, 69, 109
7, 330494, Note_on_c, 2, 58, 108
7, 330498, Note_on_c, 2, 69, 91
7, 330674, Note_on_c, 2, 58, 0
7, 330678, Note_on_c, 2, 69, 0
7, 330731, Note_on_c, 2, 58, 106
7, 330740, Note_on_c, 2, 69, 94
7, 330909, Note_on_c, 2, 69, 0
7, 330911, Note_on_c, 2, 58, 0
7, 330968, Note_on_c, 2, 69, 103
7, 330978, Note_on_c, 2, 58, 110
7, 331148, Note_on_c, 2, 69, 0
7, 331158, Note_on_c, 2, 58, 0
7, 331160, Note_on_c, 2, 69, 0
7, 339865, Note_on_c, 2, 68, 104
7, 340008, Note_on_c, 2, 68, 0
7, 346085, Note_on_c, 2, 68, 103
7, 346228, Note_on_c, 2, 68, 0
7, 348019, Note_on_c, 2, 68, 97
7, 348162, Note_on_c, 2, 68, 0
7, 348482, Note_on_c, 2, 68, 105
7, 348625, Note_on_c, 2, 68, 0
7, 352332, Note_on_c, 2, 68, 105
7, 352475, Note_on_c, 2, 68, 0
7, 354263, Note_on_c, 2, 68, 97
7, 354406, Note_on_c, 2, 68, 0
7, 355207, Note_on_c, 2, 68, 88
7, 355350, Note_on_c, 2, 68, 0
7, 357121, Note_on_c, 2, 68, 95
7, 357264, Note_on_c, 2, 68, 0
7, 358088, Note_on_c, 2, 68, 104
7, 358231, Note_on_c, 2, 68, 0
7, 432494, Note_on_c, 2, 74, 93
7, 432970, Note_on_c, 2, 68, 102
7, 432974, Note_on_c, 2, 74, 0
7, 433450, Note_on_c, 2, 68, 0
7, 433454, Note_on_c, 2, 68, 94
7, 433934, Note_on_c, 2, 68, 0
7, 433935, Note_on_c, 2, 71, 93
7, 434412, Note_on_c, 2, 73, 96
7, 434415, Note_on_c, 2, 71, 0
7, 434652, Note_on_c, 2, 73, 0
7, 434654, Note_on_c, 2, 75, 101
7, 434894, Note_on_c, 2, 75, 0
7, 435369, Note_on_c, 2, 70, 90
7, 435729, Note_on_c, 2, 70, 0
7, 435849, Note_on_c, 2, 70, 100
7, 436209, Note_on_c, 2, 70, 0
7, 436331, Note_on_c, 2, 70, 100
7, 436691, Note_on_c, 2, 70, 0
7, 436808, Note_on_c, 2, 70, 110
7, 437168, Note_on_c, 2, 70, 0
7, 437297, Note_on_c, 2, 70, 107
7, 437657, Note_on_c, 2, 70, 0
7, 437766, Note_on_c, 2, 70, 105
7, 438126, Note_on_c, 2, 70, 0
7, 438736, Note_on_c, 2, 70, 108
7, 439096, Note_on_c, 2, 70, 0
7, 439213, Note_on_c, 2, 70, 122
7, 439573, Note_on_c, 2, 70, 0
7, 439700, Note_on_c, 2, 70, 104
7, 440060, Note_on_c, 2, 70, 0
7, 440165, Note_on_c, 2, 70, 115
7, 440645, Note_on_c, 2, 70, 0
7, 440657, Note_on_c, 2, 70, 110
7, 441137, Note_on_c, 2, 70, 0
7, 441145, Note_on_c, 2, 72, 115
7, 441620, Note_on_c, 2, 73, 121
7, 441625, Note_on_c, 2, 72, 0
7, 441841, Note_on_c, 2, 75, 113
7, 441860, Note_on_c, 2, 73, 0
7, 442081, Note_on_c, 2, 75, 0
7, 442085, Note_on_c, 2, 72, 117
7, 442445, Note_on_c, 2, 72, 0
7, 442580, Note_on_c, 2, 73, 104
7, 442940, Note_on_c, 2, 73, 0
7, 443051, Note_on_c, 2, 75, 104
7, 443411, Note_on_c, 2, 75, 0
7, 443529, Note_on_c, 2, 72, 107
7, 444001, Note_on_c, 2, 73, 122
7, 444009, Note_on_c, 2, 72, 0
7, 444481, Note_on_c, 2, 73, 0
7, 444493, Note_on_c, 2, 75, 115
7, 444973, Note_on_c, 2, 75, 0
7, 444976, Note_on_c, 2, 73, 114
7, 445213, Note_on_c, 2, 75, 124
7, 445216, Note_on_c, 2, 73, 0
7, 445452, Note_on_c, 2, 70, 121
7, 445453, Note_on_c, 2, 75, 0
7, 445812, Note_on_c, 2, 70, 0
7, 445923, Note_on_c, 2, 71, 124
7, 446283, Note_on_c, 2, 71, 0
7, 446420, Note_on_c, 2, 72, 121
7, 447380, Note_on_c, 2, 72, 0
7, 497292, Note_on_c, 2, 60, 84
7, 497302, Note_on_c, 2, 65, 85
7, 497652, Note_on_c, 2, 60, 0
7, 497662, Note_on_c, 2, 65, 0
7, 497769, Note_on_c, 2, 64, 92
7, 497779, Note_on_c, 2, 59, 83
7, 497889, Note_on_c, 2, 64, 0
7, 497899, Note_on_c, 2, 59, 0
7, 498015, Note_on_c, 2, 65, 97
7, 498022, Note_on_c, 2, 60, 84
7, 498135, Note_on_c, 2, 65, 0
7, 498142, Note_on_c, 2, 60, 0
7, 498249, Note_on_c, 2, 55, 92
7, 498254, Note_on_c, 2, 59, 95
7, 498369, Note_on_c, 2, 55, 0
7, 498374, Note_on_c, 2, 59, 0
7, 498487, Note_on_c, 2, 57, 83
7, 498489, Note_on_c, 2, 60, 81
7, 498607, Note_on_c, 2, 57, 0
7, 498609, Note_on_c, 2, 60, 0
7, 498740, Note_on_c, 2, 55, 92
7, 498744, Note_on_c, 2, 59, 90
7, 498860, Note_on_c, 2, 55, 0
7, 498864, Note_on_c, 2, 59, 0
7, 498961, Note_on_c, 2, 59, 94
7, 498978, Note_on_c, 2, 64, 91
7, 499081, Note_on_c, 2, 59, 0
7, 499098, Note_on_c, 2, 64, 0
7, 499204, Note_on_c, 2, 57, 86
7, 499224, Note_on_c, 2, 60, 88
7, 499324, Note_on_c, 2, 57, 0
7, 499344, Note_on_c, 2, 60, 0
7, 499449, Note_on_c, 2, 65, 82
7, 499458, Note_on_c, 2, 60, 86
7, 499569, Note_on_c, 2, 65, 0
7, 499578, Note_on_c, 2, 60, 0
7, 499689, Note_on_c, 2, 55, 92
7, 499693, Note_on_c, 2, 59, 94
7, 499809, Note_on_c, 2, 55, 0
7, 499813, Note_on_c, 2, 59, 0
7, 499932, Note_on_c, 2, 60, 79
7, 499944, Note_on_c, 2, 57, 94
7, 500052, Note_on_c, 2, 60, 0
7, 500064, Note_on_c, 2, 57, 0
7, 500161, Note_on_c, 2, 55, 95
7, 500173, Note_on_c, 2, 59, 96
7, 500281, Note_on_c, 2, 55, 0
7, 500293, Note_on_c, 2, 59, 0
7, 500422, Note_on_c, 2, 64, 82
7, 500425, Note_on_c, 2, 59, 92
7, 500542, Note_on_c, 2, 64, 0
7, 500545, Note_on_c, 2, 59, 0
7, 503527, Note_on_c, 2, 60, 98
7, 503539, Note_on_c, 2, 65, 80
7, 503887, Note_on_c, 2, 60, 0
7, 503899, Note_on_c, 2, 65, 0
7, 504010, Note_on_c, 2, 64, 85
7, 504011, Note_on_c, 2, 59, 82
7, 504130, Note_on_c, 2, 64, 0
7, 504131, Note_on_c, 2, 59, 0
7, 504256, Note_on_c, 2, 60, 78
7, 504265, Note_on_c, 2, 65, 87
7, 504376, Note_on_c, 2, 60, 0
7, 504385, Note_on_c, 2, 65, 0
7, 504483, Note_on_c, 2, 59, 96
7, 504505, Note_on_c, 2, 55, 98
7, 504603, Note_on_c, 2, 59, 0
7, 504625, Note_on_c, 2, 55, 0
7, 504732, Note_on_c, 2, 57, 92
7, 504737, Note_on_c, 2, 60, 83
7, 504852, Note_on_c, 2, 57, 0
7, 504857, Note_on_c, 2, 60, 0
7, 504980, Note_on_c, 2, 59, 93
7, 504983, Note_on_c, 2, 55, 85
7, 505100, Note_on_c, 2, 59, 0
7, 505103, Note_on_c, 2, 55, 0
7, 505201, Note_on_c, 2, 64, 84
7, 505222, Note_on_c, 2, 59, 85
7, 505321, Note_on_c, 2, 64, 0
7, 505342, Note_on_c, 2, 59, 0
7, 505447, Note_on_c, 2, 60, 88
7, 505455, Note_on_c, 2, 57, 90
7, 505567, Note_on_c, 2, 60, 0
7, 505575, Note_on_c, 2, 57, 0
7, 505686, Note_on_c, 2, 65, 82
7, 505690, Note_on_c, 2, 60, 87
7, 505806, Note_on_c, 2, 65, 0
7, 505810, Note_on_c, 2, 60, 0
7, 505927, Note_on_c, 2, 59, 78
7, 505935, Note_on_c, 2, 55, 94
7, 506047, Note_on_c, 2, 59, 0
7, 506055, Note_on_c, 2, 55, 0
7, 506168, Note_on_c, 2, 57, 79
7, 506175, Note_on_c, 2, 60, 83
7, 506288, Note_on_c, 2, 57, 0
7, 506295, Note_on_c, 2, 60, 0
7, 506410, Note_on_c, 2, 55, 78
7, 506423, Note_on_c, 2, 59, 80
7, 506530, Note_on_c, 2, 55, 0
7, 506543, Note_on_c, 2, 59, 0
7, 506649, Note_on_c, 2, 59, 94
7, 506652, Note_on_c, 2, 64, 85
7, 506769, Note_on_c, 2, 59, 0
7, 506772, Note_on_c, 2, 64, 0
7, 506891, Note_on_c, 2, 60, 88
7, 506903, Note_on_c, 2, 65, 84
7, 507251, Note_on_c, 2, 60, 0
7, 507263, Note_on_c, 2, 65, 0
7, 507382, Note_on_c, 2, 59, 78
7, 507382, Note_on_c, 2, 64, 90
7, 507502, Note_on_c, 2, 59, 0
7, 507502, Note_on_c, 2, 64, 0
7, 507605, Note_on_c, 2, 60, 93
7, 507618, Note_on_c, 2, 65, 85
7, 507725, Note_on_c, 2, 60, 0
7, 507738, Note_on_c, 2, 65, 0
7, 507842, Note_on_c, 2, 59, 83
7, 507849, Note_on_c, 2, 55, 78
7, 507962, Note_on_c, 2, 59, 0
7, 507969, Note_on_c, 2, 55, 0
7, 508080, Note_on_c, 2, 60, 95
7, 508094, Note_on_c, 2, 57, 97
7, 508200, Note_on_c, 2, 60, 0
7, 508214, Note_on_c, 2, 57, 0
7, 508325, Note_on_c, 2, 55, 94
7, 508336, Note_on_c, 2, 59, 85
7, 508445, Note_on_c, 2, 55, 0
7, 508456, Note_on_c, 2, 59, 0
7, 508570, Note_on_c, 2, 64, 87
7, 508582, Note_on_c, 2, 59, 85
7, 508690, Note_on_c, 2, 64, 0
7, 508702, Note_on_c, 2, 59, 0
7, 522012, Note_on_c, 2, 59, 105
7, 522132, Note_on_c, 2, 59, 0
7, 522265, Note_on_c, 2, 53, 105
7, 522385, Note_on_c, 2, 53, 0
7, 522486, Note_on_c, 2, 59, 106
7, 522606, Note_on_c, 2, 59, 0
7, 522735, Note_on_c, 2, 53, 108
7, 522855, Note_on_c, 2, 53, 0
7, 522978, Note_on_c, 2, 59, 117
7, 523098, Note_on_c, 2, 59, 0
7, 523223, Note_on_c, 2, 53, 106
7, 523343, Note_on_c, 2, 53, 0
7, 523447, Note_on_c, 2, 59, 119
7, 523567, Note_on_c, 2, 59, 0
7, 523698, Note_on_c, 2, 53, 101
7, 523818, Note_on_c, 2, 53, 0
7, 523945, Note_on_c, 2, 59, 112
7, 524065, Note_on_c, 2, 59, 0
7, 524167, Note_on_c, 2, 53, 119
7, 524287, Note_on_c, 2, 53, 0
7, 524425, Note_on_c, 2, 59, 119
7, 524545, Note_on_c, 2, 59, 0
7, 524648, Note_on_c, 2, 53, 92
7, 524768, Note_on_c, 2, 53, 0
7, 528247, Note_on_c, 2, 59, 82
7, 528367, Note_on_c, 2, 59, 0
7, 528484, Note_on_c, 2, 53, 81
7, 528604, Note_on_c, 2, 53, 0
7, 528731, Note_on_c, 2, 59, 81
7, 528851, Note_on_c, 2, 59, 0
7, 528969, Note_on_c, 2, 53, 82
7, 529089, Note_on_c, 2, 53, 0
7, 529201, Note_on_c, 2, 59, 79
7, 529321, Note_on_c, 2, 59, 0
7, 529460, Note_on_c, 2, 53, 97
7, 529580, Note_on_c, 2, 53, 0
7, 529690, Note_on_c, 2, 59, 81
7, 529810, Note_on_c, 2, 59, 0
7, 529925, Note_on_c, 2, 53, 98
7, 530045, Note_on_c, 2, 53, 0
7, 530168, Note_on_c, 2, 59, 89
7, 530288, Note_on_c, 2, 59, 0
7, 530410, Note_on_c, 2, 53, 89
7, 530530, Note_on_c, 2, 53, 0
7, 530652, Note_on_c, 2, 59, 86
7, 530772, Note_on_c, 2, 59, 0
7, 530893, Note_on_c, 2, 53, 81
7, 531013, Note_on_c, 2, 53, 0
7, 531125, Note_on_c, 2, 59, 79
7, 531245, Note_on_c, 2, 59, 0
7, 531371, Note_on_c, 2, 53, 90
7, 531491, Note_on_c, 2, 53, 0
7, 532819, Note_on_c, 2, 69, 71
7, 533250, Note_on_c, 2, 74, 55
7, 533269, Note_on_c, 2, 69, 0
7, 533280, Note_on_c, 2, 74, 0
7, 533280, Note_on_c, 2, 72, 54
7, 533760, Note_on_c, 2, 72, 0
7, 533774, Note_on_c, 2, 71, 72
7, 534725, Note_on_c, 2, 69, 52
7, 534734, Note_on_c, 2, 71, 0
7, 535170, Note_on_c, 2, 74, 63
7, 535175, Note_on_c, 2, 69, 0
7, 535200, Note_on_c, 2, 74, 0
7, 535223, Note_on_c, 2, 72, 66
7, 535682, Note_on_c, 2, 71, 68
7, 535703, Note_on_c, 2, 72, 0
7, 536642, Note_on_c, 2, 71, 0
7, 536642, Note_on_c, 2, 69, 54
7, 537122, Note_on_c, 2, 69, 0
7, 537143, Note_on_c, 2, 70, 53
7, 537623, Note_on_c, 2, 70, 0
7, 540491, Note_on_c, 2, 66, 96
7, 540504, Note_on_c, 2, 69, 96
7, 540634, Note_on_c, 2, 66, 0
7, 540647, Note_on_c, 2, 69, 0
7, 540960, Note_on_c, 2, 68, 104
7, 540966, Note_on_c, 2, 64, 102
7, 541031, Note_on_c, 2, 68, 0
7, 541037, Note_on_c, 2, 64, 0
7, 541217, Note_on_c, 2, 66, 100
7, 541288, Note_on_c, 2, 66, 0
7, 541459, Note_on_c, 2, 68, 95
7, 541464, Note_on_c, 2, 64, 93
7, 541530, Note_on_c, 2, 68, 0
7, 541535, Note_on_c, 2, 64, 0
7, 541682, Note_on_c, 2, 66, 110
7, 541685, Note_on_c, 2, 62, 111
7, 541753, Note_on_c, 2, 66, 0
7, 541756, Note_on_c, 2, 62, 0
7, 541938, Note_on_c, 2, 61, 99
7, 541941, Note_on_c, 2, 64, 107
7, 542009, Note_on_c, 2, 61, 0
7, 542012, Note_on_c, 2, 64, 0
7, 542180, Note_on_c, 2, 62, 93
7, 542180, Note_on_c, 2, 66, 98
7, 542251, Note_on_c, 2, 62, 0
7, 542251, Note_on_c, 2, 66, 0
7, 542404, Note_on_c, 2, 63, 107
7, 542420, Note_on_c, 2, 59, 103
7, 542475, Note_on_c, 2, 63, 0
7, 542491, Note_on_c, 2, 59, 0
7, 542648, Note_on_c, 2, 69, 108
7, 542654, Note_on_c, 2, 66, 92
7, 542719, Note_on_c, 2, 69, 0
7, 542725, Note_on_c, 2, 66, 0
7, 542888, Note_on_c, 2, 68, 104
7, 542898, Note_on_c, 2, 64, 96
7, 542959, Note_on_c, 2, 68, 0
7, 542969, Note_on_c, 2, 64, 0
7, 543121, Note_on_c, 2, 66, 96
7, 543192, Note_on_c, 2, 66, 0
7, 543373, Note_on_c, 2, 64, 106
7, 543381, Note_on_c, 2, 68, 94
7, 543444, Note_on_c, 2, 64, 0
7, 543452, Note_on_c, 2, 68, 0
7, 543610, Note_on_c, 2, 62, 109
7, 543612, Note_on_c, 2, 66, 110
7, 543681, Note_on_c, 2, 62, 0
7, 543683, Note_on_c, 2, 66, 0
7, 543843, Note_on_c, 2, 64, 108
7, 543865, Note_on_c, 2, 61, 95
7, 543914, Note_on_c, 2, 64, 0
7, 543936, Note_on_c, 2, 61, 0
7, 544082, Note_on_c, 2, 66, 94
7, 544083, Note_on_c, 2, 62, 96
7, 544153, Note_on_c, 2, 66, 0
7, 544154, Note_on_c, 2, 62, 0
7, 544326, Note_on_c, 2, 58, 106
7, 544340, Note_on_c, 2, 63, 100
7, 544397, Note_on_c, 2, 58, 0
7, 544411, Note_on_c, 2, 63, 0
7, 544561, Note_on_c, 2, 64, 99
7, 544585, Note_on_c, 2, 61, 99
7, 544632, Note_on_c, 2, 64, 0
7, 544656, Note_on_c, 2, 61, 0
7, 544808, Note_on_c, 2, 63, 91
7, 544813, Note_on_c, 2, 66, 93
7, 544879, Note_on_c, 2, 63, 0
7, 544884, Note_on_c, 2, 66, 0
7, 545051, Note_on_c, 2, 68, 99
7, 545053, Note_on_c, 2, 64, 94
7, 545122, Note_on_c, 2, 68, 0
7, 545124, Note_on_c, 2, 64, 0
7, 545285, Note_on_c, 2, 69, 106
7, 545302, Note_on_c, 2, 66, 110
7, 545356, Note_on_c, 2, 69, 0
7, 545373, Note_on_c, 2, 66, 0
7, 590403, Note_on_c, 2, 72, 111
7, 590497, Note_on_c, 2, 74, 99
7, 590518, Note_on_c, 2, 72, 0
7, 590571, Note_on_c, 2, 72, 104
7, 590612, Note_on_c, 2, 74, 0
7, 590657, Note_on_c, 2, 74, 103
7, 590686, Note_on_c, 2, 72, 0
7, 590730, Note_on_c, 2, 72, 108
7, 590772, Note_on_c, 2, 74, 0
7, 590813, Note_on_c, 2, 74, 103
7, 590845, Note_on_c, 2, 72, 0
7, 590869, Note_on_c, 2, 72, 108
7, 590928, Note_on_c, 2, 74, 0
7, 590967, Note_on_c, 2, 74, 108
7, 590984, Note_on_c, 2, 72, 0
7, 591040, Note_on_c, 2, 72, 111
7, 591082, Note_on_c, 2, 74, 0
7, 591110, Note_on_c, 2, 74, 111
7, 591155, Note_on_c, 2, 72, 0
7, 591191, Note_on_c, 2, 72, 95
7, 591225, Note_on_c, 2, 74, 0
7, 591255, Note_on_c, 2, 74, 92
7, 591306, Note_on_c, 2, 72, 0
7, 591338, Note_on_c, 2, 72, 91
7, 591370, Note_on_c, 2, 74, 0
7, 591414, Note_on_c, 2, 74, 96
7, 591453, Note_on_c, 2, 72, 0
7, 591500, Note_on_c, 2, 72, 98
7, 591529, Note_on_c, 2, 74, 0
7, 591573, Note_on_c, 2, 74, 110
7, 591615, Note_on_c, 2, 72, 0
7, 591654, Note_on_c, 2, 72, 92
7, 591688, Note_on_c, 2, 74, 0
7, 591745, Note_on_c, 2, 74, 109
7, 591769, Note_on_c, 2, 72, 0
7, 591823, Note_on_c, 2, 72, 98
7, 591860, Note_on_c, 2, 74, 0
7, 591886, Note_on_c, 2, 74, 91
7, 591938, Note_on_c, 2, 72, 0
7, 591975, Note_on_c, 2, 72, 96
7, 592001, Note_on_c, 2, 74, 0
7, 592040, Note_on_c, 2, 74, 104
7, 592090, Note_on_c, 2, 72, 0
7, 592117, Note_on_c, 2, 72, 109
7, 592155, Note_on_c, 2, 74, 0
7, 592192, Note_on_c, 2, 74, 110
7, 592232, Note_on_c, 2, 72, 0
7, 592271, Note_on_c, 2, 72, 99
7, 592307, Note_on_c, 2, 74, 0
7, 592365, Note_on_c, 2, 74, 93
7, 592386, Note_on_c, 2, 72, 0
7, 592432, Note_on_c, 2, 72, 97
7, 592480, Note_on_c, 2, 74, 0
7, 592519, Note_on_c, 2, 74, 111
7, 592547, Note_on_c, 2, 72, 0
7, 592580, Note_on_c, 2, 72, 105
7, 592634, Note_on_c, 2, 74, 0
7, 592662, Note_on_c, 2, 74, 104
7, 592695, Note_on_c, 2, 72, 0
7, 592740, Note_on_c, 2, 72, 99
7, 592777, Note_on_c, 2, 74, 0
7, 592820, Note_on_c, 2, 74, 107
7, 592855, Note_on_c, 2, 72, 0
7, 592910, Note_on_c, 2, 72, 91
7, 592935, Note_on_c, 2, 74, 0
7, 592973, Note_on_c, 2, 74, 93
7, 593025, Note_on_c, 2, 72, 0
7, 593057, Note_on_c, 2, 72, 110
7, 593088, Note_on_c, 2, 74, 0
7, 593129, Note_on_c, 2, 74, 103
7, 593172, Note_on_c, 2, 72, 0
7, 593209, Note_on_c, 2, 72, 96
7, 593244, Note_on_c, 2, 74, 0
7, 593297, Note_on_c, 2, 74, 92
7, 593324, Note_on_c, 2, 72, 0
7, 593381, Note_on_c, 2, 72, 110
7, 593412, Note_on_c, 2, 74, 0
7, 593453, Note_on_c, 2, 74, 91
7, 593496, Note_on_c, 2, 72, 0
7, 593522, Note_on_c, 2, 72, 106
7, 593568, Note_on_c, 2, 74, 0
7, 593608, Note_on_c, 2, 74, 110
7, 593637, Note_on_c, 2, 72, 0
7, 593677, Note_on_c, 2, 72, 95
7, 593723, Note_on_c, 2, 74, 0
7, 593754, Note_on_c, 2, 72, 0
7, 593767, Note_on_c, 2, 72, 101
7, 593958, Note_on_c, 2, 72, 0
7, 594257, Note_on_c, 2, 71, 114
7, 594377, Note_on_c, 2, 71, 0
7, 594488, Note_on_c, 2, 74, 105
7, 594608, Note_on_c, 2, 74, 0
7, 594725, Note_on_c, 2, 74, 119
7, 594845, Note_on_c, 2, 74, 0
7, 594962, Note_on_c, 2, 76, 112
7, 595082, Note_on_c, 2, 76, 0
7, 595204, Note_on_c, 2, 74, 106
7, 595324, Note_on_c, 2, 74, 0
7, 595446, Note_on_c, 2, 77, 122
7, 595566, Note_on_c, 2, 77, 0
7, 595687, Note_on_c, 2, 74, 105
7, 595807, Note_on_c, 2, 74, 0
7, 595942, Note_on_c, 2, 77, 105
7, 596062, Note_on_c, 2, 77, 0
7, 596166, Note_on_c, 2, 72, 112
7, 596526, Note_on_c, 2, 72, 0
7, 596640, Note_on_c, 2, 74, 114
7, 596760, Note_on_c, 2, 74, 0
7, 596904, Note_on_c, 2, 77, 108
7, 597024, Note_on_c, 2, 77, 0
7, 597129, Note_on_c, 2, 74, 106
7, 597249, Note_on_c, 2, 74, 0
7, 597367, Note_on_c, 2, 77, 118
7, 597487, Note_on_c, 2, 77, 0
7, 597605, Note_on_c, 2, 72, 109
7, 597965, Note_on_c, 2, 72, 0
7, 598092, Note_on_c, 2, 72, 117
7, 598235, Note_on_c, 2, 72, 0
7, 598569, Note_on_c, 2, 71, 120
7, 598689, Note_on_c, 2, 71, 0
7, 598800, Note_on_c, 2, 74, 122
7, 598920, Note_on_c, 2, 74, 0
7, 599051, Note_on_c, 2, 74, 124
7, 599171, Note_on_c, 2, 74, 0
7, 599300, Note_on_c, 2, 77, 116
7, 599420, Note_on_c, 2, 77, 0
7, 599537, Note_on_c, 2, 74, 121
7, 599657, Note_on_c, 2, 74, 0
7, 599783, Note_on_c, 2, 77, 109
7, 599903, Note_on_c, 2, 77, 0
7, 600005, Note_on_c, 2, 74, 122
7, 600125, Note_on_c, 2, 74, 0
7, 600242, Note_on_c, 2, 77, 105
7, 600362, Note_on_c, 2, 77, 0
7, 600495, Note_on_c, 2, 77, 115
7, 600615, Note_on_c, 2, 77, 0
7, 600739, Note_on_c, 2, 74, 112
7, 600859, Note_on_c, 2, 74, 0
7, 600980, Note_on_c, 2, 72, 104
7, 601100, Note_on_c, 2, 72, 0
7, 601212, Note_on_c, 2, 71, 118
7, 601332, Note_on_c, 2, 71, 0
7, 601441, Note_on_c, 2, 72, 105
7, 601523, Note_on_c, 2, 74, 118
7, 601556, Note_on_c, 2, 72, 0
7, 601616, Note_on_c, 2, 72, 107
7, 601638, Note_on_c, 2, 74, 0
7, 601675, Note_on_c, 2, 74, 122
7, 601731, Note_on_c, 2, 72, 0
7, 601751, Note_on_c, 2, 72, 111
7, 601790, Note_on_c, 2, 74, 0
7, 601835, Note_on_c, 2, 74, 110
7, 601866, Note_on_c, 2, 72, 0
7, 601911, Note_on_c, 2, 72, 115
7, 601950, Note_on_c, 2, 74, 0
7, 601996, Note_on_c, 2, 74, 114
7, 602026, Note_on_c, 2, 72, 0
7, 602080, Note_on_c, 2, 72, 110
7, 602111, Note_on_c, 2, 74, 0
7, 602159, Note_on_c, 2, 74, 112
7, 602195, Note_on_c, 2, 72, 0
7, 602237, Note_on_c, 2, 72, 116
7, 602274, Note_on_c, 2, 74, 0
7, 602304, Note_on_c, 2, 74, 111
7, 602352, Note_on_c, 2, 72, 0
7, 602376, Note_on_c, 2, 72, 116
7, 602419, Note_on_c, 2, 74, 0
7, 602473, Note_on_c, 2, 74, 111
7, 602491, Note_on_c, 2, 72, 0
7, 602554, Note_on_c, 2, 72, 108
7, 602588, Note_on_c, 2, 74, 0
7, 602620, Note_on_c, 2, 74, 120
7, 602669, Note_on_c, 2, 72, 0
7, 602703, Note_on_c, 2, 72, 113
7, 602735, Note_on_c, 2, 74, 0
7, 602778, Note_on_c, 2, 74, 115
7, 602818, Note_on_c, 2, 72, 0
7, 602862, Note_on_c, 2, 72, 106
7, 602893, Note_on_c, 2, 74, 0
7, 602924, Note_on_c, 2, 74, 112
7, 602977, Note_on_c, 2, 72, 0
7, 603014, Note_on_c, 2, 72, 109
7, 603039, Note_on_c, 2, 74, 0
7, 603083, Note_on_c, 2, 74, 115
7, 603129, Note_on_c, 2, 72, 0
7, 603153, Note_on_c, 2, 72, 124
7, 603198, Note_on_c, 2, 74, 0
7, 603247, Note_on_c, 2, 74, 108
7, 603268, Note_on_c, 2, 72, 0
7, 603324, Note_on_c, 2, 72, 124
7, 603362, Note_on_c, 2, 74, 0
7, 603391, Note_on_c, 2, 74, 116
7, 603439, Note_on_c, 2, 72, 0
7, 603480, Note_on_c, 2, 72, 104
7, 603506, Note_on_c, 2, 74, 0
7, 603557, Note_on_c, 2, 74, 106
7, 603595, Note_on_c, 2, 72, 0
7, 603635, Note_on_c, 2, 72, 119
7, 603672, Note_on_c, 2, 74, 0
7, 603702, Note_on_c, 2, 74, 118
7, 603750, Note_on_c, 2, 72, 0
7, 603793, Note_on_c, 2, 72, 108
7, 603817, Note_on_c, 2, 74, 0
7, 603853, Note_on_c, 2, 74, 114
7, 603908, Note_on_c, 2, 72, 0
7, 603950, Note_on_c, 2, 72, 123
7, 603968, Note_on_c, 2, 74, 0
7, 604025, Note_on_c, 2, 74, 120
7, 604065, Note_on_c, 2, 72, 0
7, 604097, Note_on_c, 2, 72, 118
7, 604140, Note_on_c, 2, 74, 0
7, 604180, Note_on_c, 2, 74, 120
7, 604212, Note_on_c, 2, 72, 0
7, 604252, Note_on_c, 2, 72, 121
7, 604295, Note_on_c, 2, 74, 0
7, 604364, Note_on_c, 2, 72, 0
7, 608177, Note_on_c, 2, 69, 83
7, 622817, Note_on_c, 2, 69, 0
7, 654607, Note_on_c, 2, 65, 111
7, 654724, Note_on_c, 2, 63, 104
7, 654727, Note_on_c, 2, 65, 0
7, 654964, Note_on_c, 2, 63, 0
7, 655578, Note_on_c, 2, 67, 91
7, 655696, Note_on_c, 2, 65, 92
7, 655698, Note_on_c, 2, 67, 0
7, 655936, Note_on_c, 2, 65, 0
7, 656525, Note_on_c, 2, 71, 111
7, 656645, Note_on_c, 2, 71, 0
7, 656648, Note_on_c, 2, 69, 94
7, 656888, Note_on_c, 2, 69, 0
7, 657482, Note_on_c, 2, 73, 107
7, 657602, Note_on_c, 2, 73, 0
7, 657619, Note_on_c, 2, 72, 111
7, 657859, Note_on_c, 2, 72, 0
7, 658458, Note_on_c, 2, 65, 103
7, 658578, Note_on_c, 2, 65, 0
7, 658580, Note_on_c, 2, 63, 104
7, 658820, Note_on_c, 2, 63, 0
7, 659419, Note_on_c, 2, 67, 107
7, 659539, Note_on_c, 2, 67, 0
7, 659544, Note_on_c, 2, 65, 107
7, 659784, Note_on_c, 2, 65, 0
7, 660379, Note_on_c, 2, 71, 95
7, 660482, Note_on_c, 2, 69, 97
7, 660499, Note_on_c, 2, 71, 0
7, 660722, Note_on_c, 2, 69, 0
7, 661343, Note_on_c, 2, 73, 97
7, 661449, Note_on_c, 2, 72, 92
7, 661463, Note_on_c, 2, 73, 0
7, 661689, Note_on_c, 2, 72, 0
7, 662281, Note_on_c, 2, 65, 106
7, 662401, Note_on_c, 2, 65, 0
7, 662415, Note_on_c, 2, 63, 98
7, 662655, Note_on_c, 2, 63, 0
7, 663240, Note_on_c, 2, 67, 110
7, 663360, Note_on_c, 2, 67, 0
7, 663362, Note_on_c, 2, 65, 106
7, 663602, Note_on_c, 2, 65, 0
7, 664202, Note_on_c, 2, 71, 110
7, 664322, Note_on_c, 2, 71, 0
7, 664323, Note_on_c, 2, 69, 102
7, 664563, Note_on_c, 2, 69, 0
7, 665182, Note_on_c, 2, 73, 109
7, 665281, Note_on_c, 2, 72, 103
7, 665302, Note_on_c, 2, 73, 0
7, 665521, Note_on_c, 2, 72, 0
7, 666121, Note_on_c, 2, 65, 92
7, 666241, Note_on_c, 2, 65, 0
7, 666254, Note_on_c, 2, 63, 105
7, 666494, Note_on_c, 2, 63, 0
7, 667105, Note_on_c, 2, 67, 106
7, 667222, Note_on_c, 2, 65, 110
7, 667225, Note_on_c, 2, 67, 0
7, 667462, Note_on_c, 2, 65, 0
7, 668062, Note_on_c, 2, 71, 100
7, 668182, Note_on_c, 2, 71, 0
7, 668185, Note_on_c, 2, 69, 92
7, 668425, Note_on_c, 2, 69, 0
7, 669012, Note_on_c, 2, 73, 98
7, 669130, Note_on_c, 2, 72, 98
7, 669132, Note_on_c, 2, 73, 0
7, 669370, Note_on_c, 2, 72, 0
7, 669981, Note_on_c, 2, 65, 110
7, 670090, Note_on_c, 2, 63, 93
7, 670101, Note_on_c, 2, 65, 0
7, 670330, Note_on_c, 2, 63, 0
7, 670940, Note_on_c, 2, 67, 94
7, 671060, Note_on_c, 2, 67, 0
7, 671061, Note_on_c, 2, 65, 91
7, 671301, Note_on_c, 2, 65, 0
7, 671898, Note_on_c, 2, 71, 99
7, 672018, Note_on_c, 2, 71, 0
7, 672024, Note_on_c, 2, 69, 108
7, 672264, Note_on_c, 2, 69, 0
7, 672850, Note_on_c, 2, 73, 91
7, 672965, Note_on_c, 2, 72, 93
7, 672970, Note_on_c, 2, 73, 0
7, 673205, Note_on_c, 2, 72, 0
7, 673817, Note_on_c, 2, 65, 101
7, 673930, Note_on_c, 2, 63, 99
7, 673937, Note_on_c, 2, 65, 0
7, 674170, Note_on_c, 2, 63, 0
7, 674762, Note_on_c, 2, 67, 106
7, 674882, Note_on_c, 2, 67, 0
7, 674894, Note_on_c, 2, 65, 92
7, 675134, Note_on_c, 2, 65, 0
7, 675725, Note_on_c, 2, 71, 107
7, 675844, Note_on_c, 2, 69, 94
7, 675845, Note_on_c, 2, 71, 0
7, 676084, Note_on_c, 2, 69, 0
7, 676695, Note_on_c, 2, 73, 94
7, 676815, Note_on_c, 2, 73, 0
7, 676825, Note_on_c, 2, 72, 94
7, 677065, Note_on_c, 2, 72, 0
7, 690244, Note_on_c, 2, 72, 100
7, 690604, Note_on_c, 2, 72, 0
7, 691206, Note_on_c, 2, 72, 105
7, 691566, Note_on_c, 2, 72, 0
7, 692413, Note_on_c, 2, 72, 101
7, 692653, Note_on_c, 2, 72, 0
7, 693126, Note_on_c, 2, 72, 107
7, 693486, Note_on_c, 2, 72, 0
7, 694087, Note_on_c, 2, 74, 108
7, 694447, Note_on_c, 2, 74, 0
7, 694566, Note_on_c, 2, 76, 107
7, 694681, Note_on_c, 2, 76, 0
7, 694753, Note_on_c, 2, 74, 111
7, 694868, Note_on_c, 2, 74, 0
7, 694954, Note_on_c, 2, 72, 106
7, 695069, Note_on_c, 2, 72, 0
7, 695140, Note_on_c, 2, 71, 104
7, 695254, Note_on_c, 2, 71, 0
7, 695349, Note_on_c, 2, 72, 114
7, 695464, Note_on_c, 2, 72, 0
7, 695542, Note_on_c, 2, 74, 99
7, 695622, Note_on_c, 2, 74, 0
7, 695686, Note_on_c, 2, 72, 99
7, 695767, Note_on_c, 2, 72, 0
7, 695852, Note_on_c, 2, 71, 105
7, 695932, Note_on_c, 2, 71, 0
7, 696014, Note_on_c, 2, 72, 106
7, 696374, Note_on_c, 2, 72, 0
7, 697456, Note_on_c, 2, 74, 96
7, 697816, Note_on_c, 2, 74, 0
7, 698884, Note_on_c, 2, 76, 100
7, 699004, Note_on_c, 2, 76, 0
7, 699123, Note_on_c, 2, 74, 103
7, 699243, Note_on_c, 2, 74, 0
7, 699376, Note_on_c, 2, 72, 100
7, 699736, Note_on_c, 2, 72, 0
7, 700342, Note_on_c, 2, 74, 114
7, 700702, Note_on_c, 2, 74, 0
7, 701303, Note_on_c, 2, 72, 103
7, 701663, Note_on_c, 2, 72, 0
7, 702021, Note_on_c, 2, 72, 104
7, 702261, Note_on_c, 2, 72, 0
7, 703223, Note_on_c, 2, 72, 115
7, 703583, Note_on_c, 2, 72, 0
7, 704171, Note_on_c, 2, 74, 96
7, 704531, Note_on_c, 2, 74, 0
7, 704654, Note_on_c, 2, 76, 105
7, 704774, Note_on_c, 2, 76, 0
7, 704886, Note_on_c, 2, 74, 109
7, 705006, Note_on_c, 2, 74, 0
7, 705136, Note_on_c, 2, 72, 104
7, 705496, Note_on_c, 2, 72, 0
7, 706094, Note_on_c, 2, 76, 98
7, 706174, Note_on_c, 2, 76, 0
7, 706244, Note_on_c, 2, 74, 105
7, 706325, Note_on_c, 2, 74, 0
7, 706424, Note_on_c, 2, 72, 97
7, 706504, Note_on_c, 2, 72, 0
7, 706572, Note_on_c, 2, 74, 115
7, 706932, Note_on_c, 2, 74, 0
7, 707524, Note_on_c, 2, 76, 100
7, 707604, Note_on_c, 2, 76, 0
7, 707692, Note_on_c, 2, 74, 102
7, 707773, Note_on_c, 2, 74, 0
7, 707844, Note_on_c, 2, 72, 111
7, 707924, Note_on_c, 2, 72, 0
7, 708018, Note_on_c, 2, 74, 96
7, 708098, Note_on_c, 2, 74, 0
7, 708162, Note_on_c, 2, 72, 97
7, 708243, Note_on_c, 2, 72, 0
7, 708320, Note_on_c, 2, 71, 104
7, 708400, Note_on_c, 2, 71, 0
7, 710411, Note_on_c, 2, 76, 108
7, 710491, Note_on_c, 2, 76, 0
7, 710574, Note_on_c, 2, 74, 95
7, 710655, Note_on_c, 2, 74, 0
7, 710722, Note_on_c, 2, 72, 101
7, 710802, Note_on_c, 2, 72, 0
7, 710899, Note_on_c, 2, 74, 98
7, 710979, Note_on_c, 2, 74, 0
7, 711051, Note_on_c, 2, 72, 113
7, 711132, Note_on_c, 2, 72, 0
7, 711206, Note_on_c, 2, 71, 105
7, 711286, Note_on_c, 2, 71, 0
7, 712821, Note_on_c, 2, 72, 114
7, 713181, Note_on_c, 2, 72, 0
7, 713280, Note_on_c, 2, 72, 107
7, 713640, Note_on_c, 2, 72, 0
7, 714249, Note_on_c, 2, 72, 110
7, 714609, Note_on_c, 2, 72, 0
7, 715458, Note_on_c, 2, 72, 98
7, 715698, Note_on_c, 2, 72, 0
7, 716161, Note_on_c, 2, 72, 103
7, 716521, Note_on_c, 2, 72, 0
7, 717138, Note_on_c, 2, 72, 112
7, 717498, Note_on_c, 2, 72, 0
7, 717850, Note_on_c, 2, 72, 106
7, 718090, Note_on_c, 2, 72, 0
7, 719056, Note_on_c, 2, 72, 99
7, 719416, Note_on_c, 2, 72, 0
7, 720000, Note_on_c, 2, 72, 110
7, 720360, Note_on_c, 2, 72, 0
7, 720960, Note_on_c, 2, 72, 105
7, 721320, Note_on_c, 2, 72, 0
7, 765611, Note_on_c, 2, 78, 114
7, 766091, Note_on_c, 2, 78, 0
7, 766816, Note_on_c, 2, 78, 108
7, 767056, Note_on_c, 2, 78, 0
7, 768002, Note_on_c, 2, 78, 119
7, 768482, Note_on_c, 2, 78, 0
7, 768722, Note_on_c, 2, 78, 119
7, 768962, Note_on_c, 2, 78, 0
7, 769458, Note_on_c, 2, 78, 124
7, 769938, Note_on_c, 2, 78, 0
7, 770421, Note_on_c, 2, 78, 116
7, 770901, Note_on_c, 2, 78, 0
7, 771602, Note_on_c, 2, 78, 119
7, 771842, Note_on_c, 2, 78, 0
7, 772809, Note_on_c, 2, 78, 106
7, 773289, Note_on_c, 2, 78, 0
7, 773289, End_track
8, 0, Start_track
8, 0, Title_t, "Clarinetto piccolo"
8, 0, MIDI_port, 0
8, 0, Program_c, 3, 71
8, 0, Control_c, 3, 7, 75
8, 0, Control_c, 3, 10, 64
8, 0, Control_c, 3, 91, 64
8, 6737, Note_on_c, 3, 66, 71
8, 7851, Note_on_c, 3, 63, 72
8, 7856, Note_on_c, 3, 66, 0
8, 7970, Note_on_c, 3, 66, 67
8, 7981, Note_on_c, 3, 63, 0
8, 8011, Note_on_c, 3, 64, 63
8, 8040, Note_on_c, 3, 66, 0
8, 8170, Note_on_c, 3, 64, 0
8, 8171, Note_on_c, 3, 61, 62
8, 8289, Note_on_c, 3, 64, 69
8, 8300, Note_on_c, 3, 61, 0
8, 8338, Note_on_c, 3, 62, 53
8, 8353, Note_on_c, 3, 64, 0
8, 8484, Note_on_c, 3, 59, 72
8, 8498, Note_on_c, 3, 62, 0
8, 8803, Note_on_c, 3, 59, 0
8, 24021, Note_on_c, 3, 82, 58
8, 24643, Note_on_c, 3, 81, 68
8, 24660, Note_on_c, 3, 82, 0
8, 24770, Note_on_c, 3, 82, 53
8, 24773, Note_on_c, 3, 81, 0
8, 24808, Note_on_c, 3, 80, 57
8, 24832, Note_on_c, 3, 82, 0
8, 24967, Note_on_c, 3, 80, 0
8, 24984, Note_on_c, 3, 79, 70
8, 25089, Note_on_c, 3, 82, 69
8, 25113, Note_on_c, 3, 79, 0
8, 25144, Note_on_c, 3, 80, 53
8, 25162, Note_on_c, 3, 82, 0
8, 25286, Note_on_c, 3, 79, 65
8, 25304, Note_on_c, 3, 80, 0
8, 25445, Note_on_c, 3, 79, 0
8, 25455, Note_on_c, 3, 76, 67
8, 25693, Note_on_c, 3, 82, 60
8, 25695, Note_on_c, 3, 76, 0
8, 26083, Note_on_c, 3, 81, 64
8, 26092, Note_on_c, 3, 82, 0
8, 26210, Note_on_c, 3, 82, 65
8, 26213, Note_on_c, 3, 81, 0
8, 26254, Note_on_c, 3, 80, 67
8, 26281, Note_on_c, 3, 82, 0
8, 26412, Note_on_c, 3, 79, 62
8, 26413, Note_on_c, 3, 80, 0
8, 26529, Note_on_c, 3, 82, 52
8, 26541, Note_on_c, 3, 79, 0
8, 26582, Note_on_c, 3, 80, 61
8, 26602, Note_on_c, 3, 82, 0
8, 26730, Note_on_c, 3, 79, 70
8, 26742, Note_on_c, 3, 80, 0
8, 26884, Note_on_c, 3, 76, 62
8, 26889, Note_on_c, 3, 79, 0
8, 26960, Note_on_c, 3, 78, 60
8, 26964, Note_on_c, 3, 76, 0
8, 27039, Note_on_c, 3, 78, 0
8, 27045, Note_on_c, 3, 82, 71
8, 27120, Note_on_c, 3, 78, 52
8, 27125, Note_on_c, 3, 82, 0
8, 27200, Note_on_c, 3, 78, 0
8, 27204, Note_on_c, 3, 80, 66
8, 27283, Note_on_c, 3, 80, 0
8, 27292, Note_on_c, 3, 79, 70
8, 27372, Note_on_c, 3, 79, 0
8, 27374, Note_on_c, 3, 76, 70
8, 27934, Note_on_c, 3, 76, 0
8, 27943, Note_on_c, 3, 78, 71
8, 28001, Note_on_c, 3, 82, 59
8, 28022, Note_on_c, 3, 78, 0
8, 28081, Note_on_c, 3, 82, 0
8, 28095, Note_on_c, 3, 78, 67
8, 28166, Note_on_c, 3, 80, 57
8, 28175, Note_on_c, 3, 78, 0
8, 28241, Note_on_c, 3, 79, 54
8, 28245, Note_on_c, 3, 80, 0
8, 28321, Note_on_c, 3, 79, 0
8, 28344, Note_on_c, 3, 76, 60
8, 28404, Note_on_c, 3, 77, 58
8, 28424, Note_on_c, 3, 76, 0
8, 28479, Note_on_c, 3, 82, 60
8, 28483, Note_on_c, 3, 77, 0
8, 28559, Note_on_c, 3, 82, 0
8, 28571, Note_on_c, 3, 78, 59
8, 28651, Note_on_c, 3, 78, 0
8, 28656, Note_on_c, 3, 80, 54
8, 28735, Note_on_c, 3, 80, 0
8, 28741, Note_on_c, 3, 79, 54
8, 28821, Note_on_c, 3, 79, 0
8, 28822, Note_on_c, 3, 77, 64
8, 29062, Note_on_c, 3, 77, 0
8, 42736, Note_on_c, 3, 77, 58
8, 43373, Note_on_c, 3, 76, 58
8, 43375, Note_on_c, 3, 77, 0
8, 43490, Note_on_c, 3, 78, 66
8, 43503, Note_on_c, 3, 76, 0
8, 43535, Note_on_c, 3, 78, 0
8, 43539, Note_on_c, 3, 75, 59
8, 43695, Note_on_c, 3, 74, 58
8, 43698, Note_on_c, 3, 75, 0
8, 43809, Note_on_c, 3, 78, 54
8, 43824, Note_on_c, 3, 74, 0
8, 43854, Note_on_c, 3, 78, 0
8, 43860, Note_on_c, 3, 75, 54
8, 44016, Note_on_c, 3, 74, 69
8, 44020, Note_on_c, 3, 75, 0
8, 44163, Note_on_c, 3, 77, 63
8, 44175, Note_on_c, 3, 74, 0
8, 44322, Note_on_c, 3, 77, 0
8, 44327, Note_on_c, 3, 76, 55
8, 44450, Note_on_c, 3, 78, 69
8, 44457, Note_on_c, 3, 76, 0
8, 44485, Note_on_c, 3, 75, 68
8, 44495, Note_on_c, 3, 78, 0
8, 44644, Note_on_c, 3, 75, 0
8, 44644, Note_on_c, 3, 74, 62
8, 44769, Note_on_c, 3, 78, 52
8, 44773, Note_on_c, 3, 74, 0
8, 44807, Note_on_c, 3, 75, 71
8, 44814, Note_on_c, 3, 78, 0
8, 44967, Note_on_c, 3, 75, 0
8, 44979, Note_on_c, 3, 74, 55
8, 45138, Note_on_c, 3, 74, 0
8, 46084, Note_on_c, 3, 77, 65
8, 46243, Note_on_c, 3, 77, 0
8, 46262, Note_on_c, 3, 76, 54
8, 46370, Note_on_c, 3, 78, 62
8, 46392, Note_on_c, 3, 76, 0
8, 46407, Note_on_c, 3, 75, 65
8, 46415, Note_on_c, 3, 78, 0
8, 46566, Note_on_c, 3, 75, 0
8, 46577, Note_on_c, 3, 74, 60
8, 46689, Note_on_c, 3, 78, 61
8, 46706, Note_on_c, 3, 74, 0
8, 46734, Note_on_c, 3, 78, 0
8, 46743, Note_on_c, 3, 75, 66
8, 46882, Note_on_c, 3, 74, 56
8, 46903, Note_on_c, 3, 75, 0
8, 47041, Note_on_c, 3, 74, 0
8, 48968, Note_on_c, 3, 76, 60
8, 49607, Note_on_c, 3, 76, 0
8, 49616, Note_on_c, 3, 75, 60
8, 49716, Note_on_c, 3, 75, 0
8, 49730, Note_on_c, 3, 76, 56
8, 49783, Note_on_c, 3, 74, 71
8, 49797, Note_on_c, 3, 76, 0
8, 49941, Note_on_c, 3, 73, 65
8, 49942, Note_on_c, 3, 74, 0
8, 50040, Note_on_c, 3, 73, 0
8, 50049, Note_on_c, 3, 76, 65
8, 50082, Note_on_c, 3, 74, 55
8, 50116, Note_on_c, 3, 76, 0
8, 50242, Note_on_c, 3, 74, 0
8, 50250, Note_on_c, 3, 73, 52
8, 50409, Note_on_c, 3, 73, 0
8, 50420, Note_on_c, 3, 70, 53
8, 50900, Note_on_c, 3, 70, 0
8, 51144, Note_on_c, 3, 76, 98
8, 51535, Note_on_c, 3, 75, 92
8, 51560, Note_on_c, 3, 76, 0
8, 51635, Note_on_c, 3, 75, 0
8, 51650, Note_on_c, 3, 76, 92
8, 51682, Note_on_c, 3, 74, 91
8, 51717, Note_on_c, 3, 76, 0
8, 51841, Note_on_c, 3, 74, 0
8, 51846, Note_on_c, 3, 73, 78
8, 51945, Note_on_c, 3, 73, 0
8, 51969, Note_on_c, 3, 76, 92
8, 52009, Note_on_c, 3, 74, 86
8, 52036, Note_on_c, 3, 76, 0
8, 52168, Note_on_c, 3, 73, 96
8, 52169, Note_on_c, 3, 74, 0
8, 52327, Note_on_c, 3, 73, 0
8, 52330, Note_on_c, 3, 70, 88
8, 52810, Note_on_c, 3, 70, 0
8, 53057, Note_on_c, 3, 76, 98
8, 53456, Note_on_c, 3, 76, 0
8, 53462, Note_on_c, 3, 75, 79
8, 53562, Note_on_c, 3, 75, 0
8, 53570, Note_on_c, 3, 76, 80
8, 53624, Note_on_c, 3, 74, 82
8, 53637, Note_on_c, 3, 76, 0
8, 53763, Note_on_c, 3, 73, 93
8, 53783, Note_on_c, 3, 74, 0
8, 53862, Note_on_c, 3, 73, 0
8, 53889, Note_on_c, 3, 76, 89
8, 53930, Note_on_c, 3, 74, 93
8, 53956, Note_on_c, 3, 76, 0
8, 54090, Note_on_c, 3, 74, 0
8, 54102, Note_on_c, 3, 73, 82
8, 54258, Note_on_c, 3, 70, 89
8, 54261, Note_on_c, 3, 73, 0
8, 54738, Note_on_c, 3, 70, 0
8, 57134, Note_on_c, 3, 77, 103
8, 57254, Note_on_c, 3, 77, 0
8, 57367, Note_on_c, 3, 82, 96
8, 57487, Note_on_c, 3, 82, 0
8, 57611, Note_on_c, 3, 89, 116
8, 57729, Note_on_c, 3, 87, 100
8, 57731, Note_on_c, 3, 89, 0
8, 58320, Note_on_c, 3, 89, 102
8, 58329, Note_on_c, 3, 87, 0
8, 58367, Note_on_c, 3, 84, 102
8, 58390, Note_on_c, 3, 89, 0
8, 58415, Note_on_c, 3, 88, 93
8, 58439, Note_on_c, 3, 84, 0
8, 58463, Note_on_c, 3, 82, 104
8, 58485, Note_on_c, 3, 88, 0
8, 58516, Note_on_c, 3, 77, 106
8, 58535, Note_on_c, 3, 82, 0
8, 58802, Note_on_c, 3, 82, 95
8, 58803, Note_on_c, 3, 77, 0
8, 58922, Note_on_c, 3, 82, 0
8, 59046, Note_on_c, 3, 89, 123
8, 59166, Note_on_c, 3, 89, 0
8, 59172, Note_on_c, 3, 87, 108
8, 60240, Note_on_c, 3, 89, 98
8, 60252, Note_on_c, 3, 87, 0
8, 60300, Note_on_c, 3, 84, 91
8, 60330, Note_on_c, 3, 89, 0
8, 60360, Note_on_c, 3, 87, 111
8, 60390, Note_on_c, 3, 84, 0
8, 60420, Note_on_c, 3, 82, 91
8, 60450, Note_on_c, 3, 87, 0
8, 60494, Note_on_c, 3, 77, 106
8, 60510, Note_on_c, 3, 82, 0
8, 60734, Note_on_c, 3, 77, 0
8, 61449, Note_on_c, 3, 77, 107
8, 61569, Note_on_c, 3, 77, 0
8, 61696, Note_on_c, 3, 82, 97
8, 61816, Note_on_c, 3, 82, 0
8, 61945, Note_on_c, 3, 89, 108
8, 62042, Note_on_c, 3, 87, 100
8, 62065, Note_on_c, 3, 89, 0
8, 62640, Note_on_c, 3, 89, 100
8, 62642, Note_on_c, 3, 87, 0
8, 62700, Note_on_c, 3, 89, 0
8, 62700, Note_on_c, 3, 84, 111
8, 62760, Note_on_c, 3, 84, 0
8, 62760, Note_on_c, 3, 88, 105
8, 62820, Note_on_c, 3, 88, 0
8, 62820, Note_on_c, 3, 82, 94
8, 62880, Note_on_c, 3, 82, 0
8, 62891, Note_on_c, 3, 77, 102
8, 63131, Note_on_c, 3, 77, 0
8, 63854, Note_on_c, 3, 77, 105
8, 63974, Note_on_c, 3, 77, 0
8, 64102, Note_on_c, 3, 82, 100
8, 64222, Note_on_c, 3, 82, 0
8, 64333, Note_on_c, 3, 89, 100
8, 64453, Note_on_c, 3, 89, 0
8, 64464, Note_on_c, 3, 87, 91
8, 65064, Note_on_c, 3, 87, 0
8, 66240, Note_on_c, 3, 77, 107
8, 66360, Note_on_c, 3, 77, 0
8, 66480, Note_on_c, 3, 82, 98
8, 66600, Note_on_c, 3, 82, 0
8, 66729, Note_on_c, 3, 89, 91
8, 66846, Note_on_c, 3, 87, 103
8, 66849, Note_on_c, 3, 89, 0
8, 67440, Note_on_c, 3, 89, 100
8, 67446, Note_on_c, 3, 87, 0
8, 67487, Note_on_c, 3, 89, 0
8, 67487, Note_on_c, 3, 84, 108
8, 67535, Note_on_c, 3, 84, 0
8, 67535, Note_on_c, 3, 87, 105
8, 67582, Note_on_c, 3, 87, 0
8, 67583, Note_on_c, 3, 82, 109
8, 67631, Note_on_c, 3, 82, 0
8, 67656, Note_on_c, 3, 77, 103
8, 67823, Note_on_c, 3, 77, 0
8, 67926, Note_on_c, 3, 82, 94
8, 68046, Note_on_c, 3, 82, 0
8, 68161, Note_on_c, 3, 89, 104
8, 68281, Note_on_c, 3, 89, 0
8, 68293, Note_on_c, 3, 87, 92
8, 68880, Note_on_c, 3, 89, 91
8, 68893, Note_on_c, 3, 87, 0
8, 68940, Note_on_c, 3, 89, 0
8, 68940, Note_on_c, 3, 84, 105
8, 69000, Note_on_c, 3, 84, 0
8, 69000, Note_on_c, 3, 87, 97
8, 69060, Note_on_c, 3, 87, 0
8, 69060, Note_on_c, 3, 82, 97
8, 69120, Note_on_c, 3, 82, 0
8, 69137, Note_on_c, 3, 77, 105
8, 69257, Note_on_c, 3, 77, 0
8, 69379, Note_on_c, 3, 82, 93
8, 69499, Note_on_c, 3, 82, 0
8, 69600, Note_on_c, 3, 89, 104
8, 69660, Note_on_c, 3, 89, 0
8, 69662, Note_on_c, 3, 87, 92
8, 69840, Note_on_c, 3, 89, 103
8, 69842, Note_on_c, 3, 87, 0
8, 69887, Note_on_c, 3, 89, 0
8, 69887, Note_on_c, 3, 84, 96
8, 69935, Note_on_c, 3, 84, 0
8, 69935, Note_on_c, 3, 87, 105
8, 69982, Note_on_c, 3, 87, 0
8, 69983, Note_on_c, 3, 82, 101
8, 70031, Note_on_c, 3, 82, 0
8, 70038, Note_on_c, 3, 77, 103
8, 70320, Note_on_c, 3, 89, 94
8, 70325, Note_on_c, 3, 77, 0
8, 70380, Note_on_c, 3, 89, 0
8, 70380, Note_on_c, 3, 84, 109
8, 70440, Note_on_c, 3, 84, 0
8, 70440, Note_on_c, 3, 87, 96
8, 70500, Note_on_c, 3, 87, 0
8, 70500, Note_on_c, 3, 82, 97
8, 70560, Note_on_c, 3, 82, 0
8, 70562, Note_on_c, 3, 77, 97
8, 70802, Note_on_c, 3, 77, 0
8, 71049, Note_on_c, 3, 77, 94
8, 71289, Note_on_c, 3, 77, 0
8, 71296, Note_on_c, 3, 82, 106
8, 71536, Note_on_c, 3, 82, 0
8, 81617, Note_on_c, 3, 79, 41
8, 84017, Note_on_c, 3, 79, 0
8, 99615, Note_on_c, 3, 83, 93
8, 99686, Note_on_c, 3, 83, 0
8, 100105, Note_on_c, 3, 80, 96
8, 100176, Note_on_c, 3, 80, 0
8, 108720, Note_on_c, 3, 72, 79
8, 108751, Note_on_c, 3, 72, 0
8, 108800, Note_on_c, 3, 79, 94
8, 108831, Note_on_c, 3, 79, 0
8, 108879, Note_on_c, 3, 86, 82
8, 108911, Note_on_c, 3, 86, 0
8, 110640, Note_on_c, 3, 72, 85
8, 110671, Note_on_c, 3, 72, 0
8, 110720, Note_on_c, 3, 79, 79
8, 110751, Note_on_c, 3, 79, 0
8, 110799, Note_on_c, 3, 86, 83
8, 110831, Note_on_c, 3, 86, 0
8, 111600, Note_on_c, 3, 72, 97
8, 111631, Note_on_c, 3, 72, 0
8, 111680, Note_on_c, 3, 79, 91
8, 111711, Note_on_c, 3, 79, 0
8, 111759, Note_on_c, 3, 86, 97
8, 111791, Note_on_c, 3, 86, 0
8, 112800, Note_on_c, 3, 84, 92
8, 112831, Note_on_c, 3, 84, 0
8, 112880, Note_on_c, 3, 83, 99
8, 112911, Note_on_c, 3, 83, 0
8, 112959, Note_on_c, 3, 82, 93
8, 112991, Note_on_c, 3, 82, 0
8, 113040, Note_on_c, 3, 81, 96
8, 113071, Note_on_c, 3, 81, 0
8, 113120, Note_on_c, 3, 80, 109
8, 113151, Note_on_c, 3, 80, 0
8, 113199, Note_on_c, 3, 79, 108
8, 113231, Note_on_c, 3, 79, 0
8, 113280, Note_on_c, 3, 78, 96
8, 113327, Note_on_c, 3, 78, 0
8, 114240, Note_on_c, 3, 84, 93
8, 114271, Note_on_c, 3, 84, 0
8, 114320, Note_on_c, 3, 83, 101
8, 114351, Note_on_c, 3, 83, 0
8, 114399, Note_on_c, 3, 82, 94
8, 114431, Note_on_c, 3, 82, 0
8, 114480, Note_on_c, 3, 81, 98
8, 114511, Note_on_c, 3, 81, 0
8, 114560, Note_on_c, 3, 80, 110
8, 114591, Note_on_c, 3, 80, 0
8, 114639, Note_on_c, 3, 79, 111
8, 114671, Note_on_c, 3, 79, 0
8, 114720, Note_on_c, 3, 78, 100
8, 114751, Note_on_c, 3, 78, 0
8, 114800, Note_on_c, 3, 77, 91
8, 114831, Note_on_c, 3, 77, 0
8, 114879, Note_on_c, 3, 76, 103
8, 114911, Note_on_c, 3, 76, 0
8, 114960, Note_on_c, 3, 75, 108
8, 114991, Note_on_c, 3, 75, 0
8, 115040, Note_on_c, 3, 74, 93
8, 115071, Note_on_c, 3, 74, 0
8, 115119, Note_on_c, 3, 73, 93
8, 115151, Note_on_c, 3, 73, 0
8, 115219, Note_on_c, 3, 72, 94
8, 115314, Note_on_c, 3, 72, 0
8, 194400, Note_on_c, 3, 82, 91
8, 194460, Note_on_c, 3, 82, 0
8, 194460, Note_on_c, 3, 83, 95
8, 194520, Note_on_c, 3, 83, 0
8, 194532, Note_on_c, 3, 82, 96
8, 194652, Note_on_c, 3, 82, 0
8, 195360, Note_on_c, 3, 85, 93
8, 195420, Note_on_c, 3, 85, 0
8, 195420, Note_on_c, 3, 86, 79
8, 195480, Note_on_c, 3, 86, 0
8, 195488, Note_on_c, 3, 85, 82
8, 195608, Note_on_c, 3, 85, 0
8, 197760, Note_on_c, 3, 85, 89
8, 197820, Note_on_c, 3, 85, 0
8, 197820, Note_on_c, 3, 86, 85
8, 197880, Note_on_c, 3, 86, 0
8, 197903, Note_on_c, 3, 85, 82
8, 198023, Note_on_c, 3, 85, 0
8, 198240, Note_on_c, 3, 82, 97
8, 198300, Note_on_c, 3, 82, 0
8, 198300, Note_on_c, 3, 83, 80
8, 198360, Note_on_c, 3, 83, 0
8, 198367, Note_on_c, 3, 82, 82
8, 198487, Note_on_c, 3, 82, 0
8, 199200, Note_on_c, 3, 85, 91
8, 199260, Note_on_c, 3, 85, 0
8, 199260, Note_on_c, 3, 86, 93
8, 199320, Note_on_c, 3, 86, 0
8, 199333, Note_on_c, 3, 85, 79
8, 199453, Note_on_c, 3, 85, 0
8, 200640, Note_on_c, 3, 85, 79
8, 200700, Note_on_c, 3, 85, 0
8, 200700, Note_on_c, 3, 86, 91
8, 200760, Note_on_c, 3, 86, 0
8, 200764, Note_on_c, 3, 85, 79
8, 200884, Note_on_c, 3, 85, 0
8, 204000, Note_on_c, 3, 85, 93
8, 204060, Note_on_c, 3, 85, 0
8, 204060, Note_on_c, 3, 86, 98
8, 204120, Note_on_c, 3, 86, 0
8, 204140, Note_on_c, 3, 85, 90
8, 204260, Note_on_c, 3, 85, 0
8, 205920, Note_on_c, 3, 85, 94
8, 205980, Note_on_c, 3, 85, 0
8, 205980, Note_on_c, 3, 86, 96
8, 206040, Note_on_c, 3, 86, 0
8, 206061, Note_on_c, 3, 85, 83
8, 206181, Note_on_c, 3, 85, 0
8, 206880, Note_on_c, 3, 82, 94
8, 206940, Note_on_c, 3, 82, 0
8, 206940, Note_on_c, 3, 83, 81
8, 207000, Note_on_c, 3, 83, 0
8, 207004, Note_on_c, 3, 82, 87
8, 207124, Note_on_c, 3, 82, 0
8, 207840, Note_on_c, 3, 85, 87
8, 207900, Note_on_c, 3, 85, 0
8, 207900, Note_on_c, 3, 86, 78
8, 207960, Note_on_c, 3, 86, 0
8, 207979, Note_on_c, 3, 85, 87
8, 208099, Note_on_c, 3, 85, 0
8, 209280, Note_on_c, 3, 85, 95
8, 209340, Note_on_c, 3, 85, 0
8, 209340, Note_on_c, 3, 86, 81
8, 209400, Note_on_c, 3, 86, 0
8, 209408, Note_on_c, 3, 85, 89
8, 209528, Note_on_c, 3, 85, 0
8, 211200, Note_on_c, 3, 85, 93
8, 211260, Note_on_c, 3, 85, 0
8, 211260, Note_on_c, 3, 86, 87
8, 211320, Note_on_c, 3, 86, 0
8, 211326, Note_on_c, 3, 85, 85
8, 211446, Note_on_c, 3, 85, 0
8, 213847, Note_on_c, 3, 80, 96
8, 213918, Note_on_c, 3, 80, 0
8, 214335, Note_on_c, 3, 82, 93
8, 214406, Note_on_c, 3, 82, 0
8, 215773, Note_on_c, 3, 80, 85
8, 215844, Note_on_c, 3, 80, 0
8, 216499, Note_on_c, 3, 81, 105
8, 216570, Note_on_c, 3, 81, 0
8, 217444, Note_on_c, 3, 81, 102
8, 217515, Note_on_c, 3, 81, 0
8, 218656, Note_on_c, 3, 84, 95
8, 218727, Note_on_c, 3, 84, 0
8, 227064, Note_on_c, 3, 81, 85
8, 227250, Note_on_c, 3, 86, 88
8, 227274, Note_on_c, 3, 81, 0
8, 227280, Note_on_c, 3, 86, 0
8, 227299, Note_on_c, 3, 83, 89
8, 227535, Note_on_c, 3, 81, 78
8, 227539, Note_on_c, 3, 83, 0
8, 227730, Note_on_c, 3, 86, 84
8, 227745, Note_on_c, 3, 81, 0
8, 227760, Note_on_c, 3, 86, 0
8, 227785, Note_on_c, 3, 83, 92
8, 228009, Note_on_c, 3, 81, 88
8, 228025, Note_on_c, 3, 83, 0
8, 228210, Note_on_c, 3, 86, 84
8, 228219, Note_on_c, 3, 81, 0
8, 228240, Note_on_c, 3, 86, 0
8, 228252, Note_on_c, 3, 83, 86
8, 228489, Note_on_c, 3, 81, 88
8, 228492, Note_on_c, 3, 83, 0
8, 228690, Note_on_c, 3, 86, 81
8, 228699, Note_on_c, 3, 81, 0
8, 228720, Note_on_c, 3, 86, 0
8, 228724, Note_on_c, 3, 83, 94
8, 228964, Note_on_c, 3, 83, 0
8, 228975, Note_on_c, 3, 81, 79
8, 229215, Note_on_c, 3, 81, 0
8, 230885, Note_on_c, 3, 79, 97
8, 230980, Note_on_c, 3, 79, 0
8, 231255, Note_on_c, 3, 79, 81
8, 231375, Note_on_c, 3, 79, 0
8, 231376, Note_on_c, 3, 79, 82
8, 231471, Note_on_c, 3, 79, 0
8, 231725, Note_on_c, 3, 79, 92
8, 231845, Note_on_c, 3, 79, 0
8, 231853, Note_on_c, 3, 79, 93
8, 231948, Note_on_c, 3, 79, 0
8, 232204, Note_on_c, 3, 79, 78
8, 232324, Note_on_c, 3, 79, 0
8, 232332, Note_on_c, 3, 79, 93
8, 232427, Note_on_c, 3, 79, 0
8, 232702, Note_on_c, 3, 79, 92
8, 232813, Note_on_c, 3, 79, 82
8, 232822, Note_on_c, 3, 79, 0
8, 232908, Note_on_c, 3, 79, 0
8, 233162, Note_on_c, 3, 79, 84
8, 233282, Note_on_c, 3, 79, 0
8, 233302, Note_on_c, 3, 81, 78
8, 233397, Note_on_c, 3, 81, 0
8, 233644, Note_on_c, 3, 81, 92
8, 233763, Note_on_c, 3, 79, 89
8, 233764, Note_on_c, 3, 81, 0
8, 233858, Note_on_c, 3, 79, 0
8, 234145, Note_on_c, 3, 79, 78
8, 234248, Note_on_c, 3, 81, 83
8, 234265, Note_on_c, 3, 79, 0
8, 234343, Note_on_c, 3, 81, 0
8, 234602, Note_on_c, 3, 81, 78
8, 234722, Note_on_c, 3, 81, 0
8, 234731, Note_on_c, 3, 79, 82
8, 234826, Note_on_c, 3, 79, 0
8, 236646, Note_on_c, 3, 67, 94
8, 236726, Note_on_c, 3, 67, 0
8, 236726, Note_on_c, 3, 68, 87
8, 236805, Note_on_c, 3, 68, 0
8, 236824, Note_on_c, 3, 69, 95
8, 236886, Note_on_c, 3, 70, 94
8, 236904, Note_on_c, 3, 69, 0
8, 236961, Note_on_c, 3, 72, 91
8, 236966, Note_on_c, 3, 70, 0
8, 237040, Note_on_c, 3, 72, 0
8, 237048, Note_on_c, 3, 73, 83
8, 237128, Note_on_c, 3, 73, 0
8, 237140, Note_on_c, 3, 74, 94
8, 237260, Note_on_c, 3, 74, 0
8, 238561, Note_on_c, 3, 79, 85
8, 238629, Note_on_c, 3, 79, 0
8, 238641, Note_on_c, 3, 80, 93
8, 238709, Note_on_c, 3, 80, 0
8, 238720, Note_on_c, 3, 81, 101
8, 238783, Note_on_c, 3, 82, 89
8, 238788, Note_on_c, 3, 81, 0
8, 238851, Note_on_c, 3, 82, 0
8, 238856, Note_on_c, 3, 83, 99
8, 238920, Note_on_c, 3, 84, 101
8, 238924, Note_on_c, 3, 83, 0
8, 238977, Note_on_c, 3, 85, 88
8, 238988, Note_on_c, 3, 84, 0
8, 239045, Note_on_c, 3, 85, 0
8, 239048, Note_on_c, 3, 86, 95
8, 239168, Note_on_c, 3, 86, 0
8, 240014, Note_on_c, 3, 86, 99
8, 240072, Note_on_c, 3, 85, 93
8, 240082, Note_on_c, 3, 86, 0
8, 240137, Note_on_c, 3, 84, 99
8, 240140, Note_on_c, 3, 85, 0
8, 240205, Note_on_c, 3, 84, 0
8, 240223, Note_on_c, 3, 83, 87
8, 240287, Note_on_c, 3, 82, 101
8, 240291, Note_on_c, 3, 83, 0
8, 240343, Note_on_c, 3, 81, 94
8, 240355, Note_on_c, 3, 82, 0
8, 240411, Note_on_c, 3, 81, 0
8, 240418, Note_on_c, 3, 80, 79
8, 240486, Note_on_c, 3, 80, 0
8, 240500, Note_on_c, 3, 79, 84
8, 240568, Note_on_c, 3, 79, 0
8, 240569, Note_on_c, 3, 80, 86
8, 240637, Note_on_c, 3, 80, 0
8, 240637, Note_on_c, 3, 81, 88
8, 240703, Note_on_c, 3, 82, 101
8, 240705, Note_on_c, 3, 81, 0
8, 240761, Note_on_c, 3, 83, 94
8, 240771, Note_on_c, 3, 82, 0
8, 240829, Note_on_c, 3, 83, 0
8, 240841, Note_on_c, 3, 84, 90
8, 240891, Note_on_c, 3, 85, 90
8, 240909, Note_on_c, 3, 84, 0
8, 240959, Note_on_c, 3, 85, 0
8, 240976, Note_on_c, 3, 86, 98
8, 241096, Note_on_c, 3, 86, 0
8, 242408, Note_on_c, 3, 79, 87
8, 242476, Note_on_c, 3, 79, 0
8, 242493, Note_on_c, 3, 80, 99
8, 242541, Note_on_c, 3, 81, 86
8, 242561, Note_on_c, 3, 80, 0
8, 242607, Note_on_c, 3, 82, 89
8, 242609, Note_on_c, 3, 81, 0
8, 242675, Note_on_c, 3, 82, 0
8, 242696, Note_on_c, 3, 83, 102
8, 242764, Note_on_c, 3, 83, 0
8, 242765, Note_on_c, 3, 84, 101
8, 242816, Note_on_c, 3, 85, 93
8, 242833, Note_on_c, 3, 84, 0
8, 242883, Note_on_c, 3, 86, 104
8, 242884, Note_on_c, 3, 85, 0
8, 243003, Note_on_c, 3, 86, 0
8, 243845, Note_on_c, 3, 86, 88
8, 243913, Note_on_c, 3, 86, 0
8, 243916, Note_on_c, 3, 85, 107
8, 243984, Note_on_c, 3, 85, 0
8, 243996, Note_on_c, 3, 84, 103
8, 244060, Note_on_c, 3, 83, 85
8, 244064, Note_on_c, 3, 84, 0
8, 244115, Note_on_c, 3, 82, 101
8, 244128, Note_on_c, 3, 83, 0
8, 244183, Note_on_c, 3, 82, 0
8, 244183, Note_on_c, 3, 81, 88
8, 244251, Note_on_c, 3, 81, 0
8, 244259, Note_on_c, 3, 80, 85
8, 244324, Note_on_c, 3, 79, 81
8, 244327, Note_on_c, 3, 80, 0
8, 244392, Note_on_c, 3, 79, 0
8, 244404, Note_on_c, 3, 80, 93
8, 244459, Note_on_c, 3, 81, 89
8, 244472, Note_on_c, 3, 80, 0
8, 244527, Note_on_c, 3, 81, 0
8, 244528, Note_on_c, 3, 82, 85
8, 244596, Note_on_c, 3, 82, 0
8, 244601, Note_on_c, 3, 83, 94
8, 244669, Note_on_c, 3, 83, 0
8, 244685, Note_on_c, 3, 84, 95
8, 244731, Note_on_c, 3, 85, 92
8, 244753, Note_on_c, 3, 84, 0
8, 244799, Note_on_c, 3, 85, 0
8, 244802, Note_on_c, 3, 86, 99
8, 244922, Note_on_c, 3, 86, 0
8, 245286, Note_on_c, 3, 81, 98
8, 245520, Note_on_c, 3, 86, 78
8, 245526, Note_on_c, 3, 81, 0
8, 245760, Note_on_c, 3, 86, 0
8, 245781, Note_on_c, 3, 84, 80
8, 246016, Note_on_c, 3, 83, 80
8, 246021, Note_on_c, 3, 84, 0
8, 246128, Note_on_c, 3, 79, 79
8, 246136, Note_on_c, 3, 83, 0
8, 246245, Note_on_c, 3, 81, 95
8, 246248, Note_on_c, 3, 79, 0
8, 246485, Note_on_c, 3, 81, 0
8, 246726, Note_on_c, 3, 79, 87
8, 246818, Note_on_c, 3, 80, 85
8, 246821, Note_on_c, 3, 79, 0
8, 246913, Note_on_c, 3, 80, 0
8, 246921, Note_on_c, 3, 81, 90
8, 247017, Note_on_c, 3, 81, 0
8, 247026, Note_on_c, 3, 82, 103
8, 247105, Note_on_c, 3, 83, 114
8, 247121, Note_on_c, 3, 82, 0
8, 247200, Note_on_c, 3, 83, 0
8, 247225, Note_on_c, 3, 84, 108
8, 247345, Note_on_c, 3, 84, 0
8, 247691, Note_on_c, 3, 79, 88
8, 247778, Note_on_c, 3, 80, 101
8, 247786, Note_on_c, 3, 79, 0
8, 247873, Note_on_c, 3, 80, 0
8, 247879, Note_on_c, 3, 81, 97
8, 247975, Note_on_c, 3, 81, 0
8, 247992, Note_on_c, 3, 82, 113
8, 248087, Note_on_c, 3, 82, 0
8, 248088, Note_on_c, 3, 83, 100
8, 248160, Note_on_c, 3, 84, 98
8, 248183, Note_on_c, 3, 83, 0
8, 248280, Note_on_c, 3, 84, 0
8, 248643, Note_on_c, 3, 79, 83
8, 248738, Note_on_c, 3, 79, 0
8, 248743, Note_on_c, 3, 80, 88
8, 248838, Note_on_c, 3, 80, 0
8, 248848, Note_on_c, 3, 81, 88
8, 248944, Note_on_c, 3, 81, 0
8, 248950, Note_on_c, 3, 82, 112
8, 249029, Note_on_c, 3, 83, 99
8, 249045, Note_on_c, 3, 82, 0
8, 249124, Note_on_c, 3, 83, 0
8, 249124, Note_on_c, 3, 84, 107
8, 249244, Note_on_c, 3, 84, 0
8, 255364, Note_on_c, 3, 81, 43
8, 255484, Note_on_c, 3, 81, 0
8, 255623, Note_on_c, 3, 86, 42
8, 255743, Note_on_c, 3, 86, 0
8, 255844, Note_on_c, 3, 81, 61
8, 255964, Note_on_c, 3, 81, 0
8, 256104, Note_on_c, 3, 86, 48
8, 256224, Note_on_c, 3, 86, 0
8, 256328, Note_on_c, 3, 88, 60
8, 256448, Note_on_c, 3, 88, 0
8, 256566, Note_on_c, 3, 91, 58
8, 256686, Note_on_c, 3, 91, 0
8, 256820, Note_on_c, 3, 90, 44
8, 256940, Note_on_c, 3, 90, 0
8, 257060, Note_on_c, 3, 88, 61
8, 257180, Note_on_c, 3, 88, 0
8, 257287, Note_on_c, 3, 86, 54
8, 257407, Note_on_c, 3, 86, 0
8, 257522, Note_on_c, 3, 81, 45
8, 257642, Note_on_c, 3, 81, 0
8, 257760, Note_on_c, 3, 83, 58
8, 257880, Note_on_c, 3, 83, 0
8, 258015, Note_on_c, 3, 86, 61
8, 258135, Note_on_c, 3, 86, 0
8, 258261, Note_on_c, 3, 91, 52
8, 258381, Note_on_c, 3, 91, 0
8, 258497, Note_on_c, 3, 90, 53
8, 258617, Note_on_c, 3, 90, 0
8, 258727, Note_on_c, 3, 88, 60
8, 258847, Note_on_c, 3, 88, 0
8, 258973, Note_on_c, 3, 86, 59
8, 259093, Note_on_c, 3, 86, 0
8, 259209, Note_on_c, 3, 81, 54
8, 259329, Note_on_c, 3, 81, 0
8, 259692, Note_on_c, 3, 83, 42
8, 259812, Note_on_c, 3, 83, 0
8, 259935, Note_on_c, 3, 86, 51
8, 260055, Note_on_c, 3, 86, 0
8, 260173, Note_on_c, 3, 84, 45
8, 260293, Note_on_c, 3, 84, 0
8, 260421, Note_on_c, 3, 81, 42
8, 260541, Note_on_c, 3, 81, 0
8, 260644, Note_on_c, 3, 81, 42
8, 260764, Note_on_c, 3, 81, 0
8, 260887, Note_on_c, 3, 81, 50
8, 261007, Note_on_c, 3, 81, 0
8, 267373, Note_on_c, 3, 75, 85
8, 267452, Note_on_c, 3, 75, 0
8, 267454, Note_on_c, 3, 76, 90
8, 267522, Note_on_c, 3, 75, 97
8, 267533, Note_on_c, 3, 76, 0
8, 267601, Note_on_c, 3, 75, 0
8, 267622, Note_on_c, 3, 76, 79
8, 267680, Note_on_c, 3, 75, 89
8, 267701, Note_on_c, 3, 76, 0
8, 267759, Note_on_c, 3, 75, 0
8, 267767, Note_on_c, 3, 76, 90
8, 267846, Note_on_c, 3, 76, 0
8, 267850, Note_on_c, 3, 75, 78
8, 267928, Note_on_c, 3, 76, 90
8, 267929, Note_on_c, 3, 75, 0
8, 268007, Note_on_c, 3, 76, 0
8, 268015, Note_on_c, 3, 75, 93
8, 268085, Note_on_c, 3, 76, 85
8, 268094, Note_on_c, 3, 75, 0
8, 268156, Note_on_c, 3, 75, 89
8, 268164, Note_on_c, 3, 76, 0
8, 268235, Note_on_c, 3, 75, 0
8, 268236, Note_on_c, 3, 76, 95
8, 268315, Note_on_c, 3, 76, 0
8, 268338, Note_on_c, 3, 75, 88
8, 268402, Note_on_c, 3, 76, 97
8, 268417, Note_on_c, 3, 75, 0
8, 268481, Note_on_c, 3, 76, 0
8, 268483, Note_on_c, 3, 75, 93
8, 268562, Note_on_c, 3, 75, 0
8, 268565, Note_on_c, 3, 76, 87
8, 268635, Note_on_c, 3, 75, 86
8, 268644, Note_on_c, 3, 76, 0
8, 268714, Note_on_c, 3, 75, 0
8, 268715, Note_on_c, 3, 76, 79
8, 268794, Note_on_c, 3, 76, 0
8, 268802, Note_on_c, 3, 75, 82
8, 268881, Note_on_c, 3, 75, 0
8, 268893, Note_on_c, 3, 76, 90
8, 268968, Note_on_c, 3, 75, 98
8, 268972, Note_on_c, 3, 76, 0
8, 269047, Note_on_c, 3, 75, 0
8, 269049, Note_on_c, 3, 76, 80
8, 269128, Note_on_c, 3, 76, 0
8, 269132, Note_on_c, 3, 75, 98
8, 269195, Note_on_c, 3, 76, 97
8, 269211, Note_on_c, 3, 75, 0
8, 269274, Note_on_c, 3, 76, 0
8, 269293, Note_on_c, 3, 75, 78
8, 269372, Note_on_c, 3, 75, 0
8, 269376, Note_on_c, 3, 76, 78
8, 269440, Note_on_c, 3, 75, 94
8, 269455, Note_on_c, 3, 76, 0
8, 269519, Note_on_c, 3, 75, 0
8, 269527, Note_on_c, 3, 78, 88
8, 269767, Note_on_c, 3, 78, 0
8, 294016, Note_on_c, 3, 67, 42
8, 294106, Note_on_c, 3, 70, 54
8, 294118, Note_on_c, 3, 67, 0
8, 294209, Note_on_c, 3, 70, 0
8, 294222, Note_on_c, 3, 73, 44
8, 294324, Note_on_c, 3, 73, 0
8, 294333, Note_on_c, 3, 75, 49
8, 294420, Note_on_c, 3, 79, 53
8, 294436, Note_on_c, 3, 75, 0
8, 294522, Note_on_c, 3, 79, 0
8, 294527, Note_on_c, 3, 82, 53
8, 294620, Note_on_c, 3, 85, 48
8, 294630, Note_on_c, 3, 82, 0
8, 294722, Note_on_c, 3, 85, 0
8, 294725, Note_on_c, 3, 87, 47
8, 294822, Note_on_c, 3, 85, 57
8, 294827, Note_on_c, 3, 87, 0
8, 294925, Note_on_c, 3, 85, 0
8, 294933, Note_on_c, 3, 82, 54
8, 295035, Note_on_c, 3, 82, 0
8, 295041, Note_on_c, 3, 79, 42
8, 295133, Note_on_c, 3, 75, 48
8, 295144, Note_on_c, 3, 79, 0
8, 295235, Note_on_c, 3, 75, 0
8, 295250, Note_on_c, 3, 73, 39
8, 295353, Note_on_c, 3, 73, 0
8, 295353, Note_on_c, 3, 70, 42
8, 295455, Note_on_c, 3, 70, 0
8, 295458, Note_on_c, 3, 67, 48
8, 295560, Note_on_c, 3, 67, 0
8, 295567, Note_on_c, 3, 70, 57
8, 295650, Note_on_c, 3, 73, 53
8, 295670, Note_on_c, 3, 70, 0
8, 295752, Note_on_c, 3, 73, 0
8, 295767, Note_on_c, 3, 75, 42
8, 295870, Note_on_c, 3, 75, 0
8, 295873, Note_on_c, 3, 79, 48
8, 295974, Note_on_c, 3, 82, 48
8, 295975, Note_on_c, 3, 79, 0
8, 296077, Note_on_c, 3, 82, 0
8, 296081, Note_on_c, 3, 85, 46
8, 296183, Note_on_c, 3, 85, 0
8, 296185, Note_on_c, 3, 87, 56
8, 296279, Note_on_c, 3, 85, 59
8, 296287, Note_on_c, 3, 87, 0
8, 296380, Note_on_c, 3, 82, 58
8, 296382, Note_on_c, 3, 85, 0
8, 296481, Note_on_c, 3, 79, 50
8, 296482, Note_on_c, 3, 82, 0
8, 296581, Note_on_c, 3, 75, 42
8, 296584, Note_on_c, 3, 79, 0
8, 296683, Note_on_c, 3, 75, 0
8, 296688, Note_on_c, 3, 73, 51
8, 296790, Note_on_c, 3, 70, 39
8, 296791, Note_on_c, 3, 73, 0
8, 296892, Note_on_c, 3, 70, 0
8, 296905, Note_on_c, 3, 67, 51
8, 296995, Note_on_c, 3, 70, 59
8, 297007, Note_on_c, 3, 67, 0
8, 297098, Note_on_c, 3, 70, 0
8, 297107, Note_on_c, 3, 73, 59
8, 297189, Note_on_c, 3, 75, 48
8, 297209, Note_on_c, 3, 73, 0
8, 297292, Note_on_c, 3, 75, 0
8, 297315, Note_on_c, 3, 79, 57
8, 297408, Note_on_c, 3, 82, 59
8, 297417, Note_on_c, 3, 79, 0
8, 297508, Note_on_c, 3, 85, 55
8, 297511, Note_on_c, 3, 82, 0
8, 297604, Note_on_c, 3, 87, 59
8, 297610, Note_on_c, 3, 85, 0
8, 297706, Note_on_c, 3, 87, 0
8, 297716, Note_on_c, 3, 85, 55
8, 297809, Note_on_c, 3, 82, 46
8, 297819, Note_on_c, 3, 85, 0
8, 297911, Note_on_c, 3, 82, 0
8, 297917, Note_on_c, 3, 79, 55
8, 298020, Note_on_c, 3, 79, 0
8, 298021, Note_on_c, 3, 75, 50
8, 298123, Note_on_c, 3, 75, 0
8, 298135, Note_on_c, 3, 73, 49
8, 298225, Note_on_c, 3, 70, 43
8, 298238, Note_on_c, 3, 73, 0
8, 298327, Note_on_c, 3, 70, 0
8, 298337, Note_on_c, 3, 67, 44
8, 298427, Note_on_c, 3, 70, 58
8, 298439, Note_on_c, 3, 67, 0
8, 298530, Note_on_c, 3, 70, 0
8, 298533, Note_on_c, 3, 73, 57
8, 298635, Note_on_c, 3, 73, 0
8, 298645, Note_on_c, 3, 75, 57
8, 298737, Note_on_c, 3, 79, 42
8, 298748, Note_on_c, 3, 75, 0
8, 298839, Note_on_c, 3, 79, 0
8, 298844, Note_on_c, 3, 82, 49
8, 298939, Note_on_c, 3, 85, 48
8, 298947, Note_on_c, 3, 82, 0
8, 299041, Note_on_c, 3, 85, 0
8, 299051, Note_on_c, 3, 87, 40
8, 299153, Note_on_c, 3, 87, 0
8, 299164, Note_on_c, 3, 85, 57
8, 299259, Note_on_c, 3, 82, 52
8, 299267, Note_on_c, 3, 85, 0
8, 299358, Note_on_c, 3, 79, 56
8, 299361, Note_on_c, 3, 82, 0
8, 299458, Note_on_c, 3, 75, 41
8, 299461, Note_on_c, 3, 79, 0
8, 299560, Note_on_c, 3, 75, 0
8, 299570, Note_on_c, 3, 73, 45
8, 299673, Note_on_c, 3, 73, 0
8, 299680, Note_on_c, 3, 70, 52
8, 299764, Note_on_c, 3, 67, 52
8, 299782, Note_on_c, 3, 70, 0
8, 299865, Note_on_c, 3, 70, 43
8, 299866, Note_on_c, 3, 67, 0
8, 299968, Note_on_c, 3, 70, 0
8, 299978, Note_on_c, 3, 73, 48
8, 300080, Note_on_c, 3, 73, 0
8, 300087, Note_on_c, 3, 75, 50
8, 300181, Note_on_c, 3, 79, 52
8, 300190, Note_on_c, 3, 75, 0
8, 300273, Note_on_c, 3, 82, 48
8, 300283, Note_on_c, 3, 79, 0
8, 300376, Note_on_c, 3, 82, 0
8, 300378, Note_on_c, 3, 85, 53
8, 300480, Note_on_c, 3, 85, 0
8, 300499, Note_on_c, 3, 87, 54
8, 300585, Note_on_c, 3, 85, 45
8, 300601, Note_on_c, 3, 87, 0
8, 300688, Note_on_c, 3, 85, 0
8, 300699, Note_on_c, 3, 82, 58
8, 300801, Note_on_c, 3, 82, 0
8, 300802, Note_on_c, 3, 79, 53
8, 300895, Note_on_c, 3, 75, 45
8, 300905, Note_on_c, 3, 79, 0
8, 300997, Note_on_c, 3, 75, 0
8, 301004, Note_on_c, 3, 73, 42
8, 301107, Note_on_c, 3, 73, 0
8, 301111, Note_on_c, 3, 70, 55
8, 301213, Note_on_c, 3, 70, 0
8, 301217, Note_on_c, 3, 67, 47
8, 301302, Note_on_c, 3, 70, 45
8, 301319, Note_on_c, 3, 67, 0
8, 301405, Note_on_c, 3, 70, 0
8, 301414, Note_on_c, 3, 73, 53
8, 301516, Note_on_c, 3, 73, 0
8, 301522, Note_on_c, 3, 75, 54
8, 301625, Note_on_c, 3, 75, 0
8, 301635, Note_on_c, 3, 79, 56
8, 301722, Note_on_c, 3, 82, 39
8, 301737, Note_on_c, 3, 79, 0
8, 301820, Note_on_c, 3, 85, 49
8, 301825, Note_on_c, 3, 82, 0
8, 301922, Note_on_c, 3, 85, 0
8, 301941, Note_on_c, 3, 87, 57
8, 302036, Note_on_c, 3, 85, 47
8, 302043, Note_on_c, 3, 87, 0
8, 302139, Note_on_c, 3, 85, 0
8, 302144, Note_on_c, 3, 82, 50
8, 302245, Note_on_c, 3, 79, 53
8, 302246, Note_on_c, 3, 82, 0
8, 302342, Note_on_c, 3, 75, 42
8, 302348, Note_on_c, 3, 79, 0
8, 302440, Note_on_c, 3, 73, 52
8, 302444, Note_on_c, 3, 75, 0
8, 302543, Note_on_c, 3, 73, 0
8, 302553, Note_on_c, 3, 70, 58
8, 302649, Note_on_c, 3, 82, 93
8, 302655, Note_on_c, 3, 70, 0
8, 302769, Note_on_c, 3, 82, 0
8, 302905, Note_on_c, 3, 81, 93
8, 303025, Note_on_c, 3, 81, 0
8, 303134, Note_on_c, 3, 82, 109
8, 303254, Note_on_c, 3, 82, 0
8, 303369, Note_on_c, 3, 81, 95
8, 303489, Note_on_c, 3, 81, 0
8, 303603, Note_on_c, 3, 79, 98
8, 303723, Note_on_c, 3, 79, 0
8, 303841, Note_on_c, 3, 77, 109
8, 303961, Note_on_c, 3, 77, 0
8, 304080, Note_on_c, 3, 82, 101
8, 304200, Note_on_c, 3, 82, 0
8, 304335, Note_on_c, 3, 81, 104
8, 304455, Note_on_c, 3, 81, 0
8, 304583, Note_on_c, 3, 82, 94
8, 304703, Note_on_c, 3, 82, 0
8, 304808, Note_on_c, 3, 81, 97
8, 304928, Note_on_c, 3, 81, 0
8, 305061, Note_on_c, 3, 79, 101
8, 305181, Note_on_c, 3, 79, 0
8, 305286, Note_on_c, 3, 77, 98
8, 305406, Note_on_c, 3, 77, 0
8, 305538, Note_on_c, 3, 82, 101
8, 305658, Note_on_c, 3, 82, 0
8, 305777, Note_on_c, 3, 81, 97
8, 305897, Note_on_c, 3, 81, 0
8, 306001, Note_on_c, 3, 82, 100
8, 306121, Note_on_c, 3, 82, 0
8, 306259, Note_on_c, 3, 81, 92
8, 306379, Note_on_c, 3, 81, 0
8, 306500, Note_on_c, 3, 79, 92
8, 306620, Note_on_c, 3, 79, 0
8, 306737, Note_on_c, 3, 77, 102
8, 306857, Note_on_c, 3, 77, 0
8, 306975, Note_on_c, 3, 79, 105
8, 307095, Note_on_c, 3, 79, 0
8, 307215, Note_on_c, 3, 76, 108
8, 307335, Note_on_c, 3, 76, 0
8, 307443, Note_on_c, 3, 76, 104
8, 307563, Note_on_c, 3, 76, 0
8, 307688, Note_on_c, 3, 76, 97
8, 307808, Note_on_c, 3, 76, 0
8, 307927, Note_on_c, 3, 77, 98
8, 308047, Note_on_c, 3, 77, 0
8, 308177, Note_on_c, 3, 79, 100
8, 308297, Note_on_c, 3, 79, 0
8, 308408, Note_on_c, 3, 81, 95
8, 308528, Note_on_c, 3, 81, 0
8, 308648, Note_on_c, 3, 82, 96
8, 308768, Note_on_c, 3, 82, 0
8, 308886, Note_on_c, 3, 81, 102
8, 309006, Note_on_c, 3, 81, 0
8, 309130, Note_on_c, 3, 82, 106
8, 309250, Note_on_c, 3, 82, 0
8, 309381, Note_on_c, 3, 81, 106
8, 309501, Note_on_c, 3, 81, 0
8, 309603, Note_on_c, 3, 79, 91
8, 309723, Note_on_c, 3, 79, 0
8, 309850, Note_on_c, 3, 77, 109
8, 309970, Note_on_c, 3, 77, 0
8, 310099, Note_on_c, 3, 76, 98
8, 310219, Note_on_c, 3, 76, 0
8, 310328, Note_on_c, 3, 77, 93
8, 310448, Note_on_c, 3, 77, 0
8, 310581, Note_on_c, 3, 79, 110
8, 310701, Note_on_c, 3, 79, 0
8, 310807, Note_on_c, 3, 81, 93
8, 310927, Note_on_c, 3, 81, 0
8, 311051, Note_on_c, 3, 81, 97
8, 311171, Note_on_c, 3, 81, 0
8, 311280, Note_on_c, 3, 80, 103
8, 311400, Note_on_c, 3, 80, 0
8, 311539, Note_on_c, 3, 81, 108
8, 311659, Note_on_c, 3, 81, 0
8, 311778, Note_on_c, 3, 80, 98
8, 311898, Note_on_c, 3, 80, 0
8, 312010, Note_on_c, 3, 78, 108
8, 312130, Note_on_c, 3, 78, 0
8, 312259, Note_on_c, 3, 76, 109
8, 312379, Note_on_c, 3, 76, 0
8, 312480, Note_on_c, 3, 75, 97
8, 312600, Note_on_c, 3, 75, 0
8, 312732, Note_on_c, 3, 75, 92
8, 312852, Note_on_c, 3, 75, 0
8, 312974, Note_on_c, 3, 75, 109
8, 313094, Note_on_c, 3, 75, 0
8, 313202, Note_on_c, 3, 76, 104
8, 313322, Note_on_c, 3, 76, 0
8, 313465, Note_on_c, 3, 78, 92
8, 313585, Note_on_c, 3, 78, 0
8, 313688, Note_on_c, 3, 80, 100
8, 313808, Note_on_c, 3, 80, 0
8, 324727, Note_on_c, 3, 92, 105
8, 324907, Note_on_c, 3, 92, 0
8, 324980, Note_on_c, 3, 92, 108
8, 325160, Note_on_c, 3, 92, 0
8, 325203, Note_on_c, 3, 92, 106
8, 325383, Note_on_c, 3, 92, 0
8, 325450, Note_on_c, 3, 89, 108
8, 325630, Note_on_c, 3, 89, 0
8, 325699, Note_on_c, 3, 89, 97
8, 325879, Note_on_c, 3, 89, 0
8, 325937, Note_on_c, 3, 89, 97
8, 326117, Note_on_c, 3, 89, 0
8, 326168, Note_on_c, 3, 86, 99
8, 326348, Note_on_c, 3, 86, 0
8, 326424, Note_on_c, 3, 86, 105
8, 326604, Note_on_c, 3, 86, 0
8, 326657, Note_on_c, 3, 86, 107
8, 326837, Note_on_c, 3, 86, 0
8, 326884, Note_on_c, 3, 83, 93
8, 327064, Note_on_c, 3, 83, 0
8, 327126, Note_on_c, 3, 83, 95
8, 327306, Note_on_c, 3, 83, 0
8, 327375, Note_on_c, 3, 83, 105
8, 327555, Note_on_c, 3, 83, 0
8, 327620, Note_on_c, 3, 93, 106
8, 327800, Note_on_c, 3, 93, 0
8, 327850, Note_on_c, 3, 93, 100
8, 328030, Note_on_c, 3, 93, 0
8, 328082, Note_on_c, 3, 93, 91
8, 328262, Note_on_c, 3, 93, 0
8, 328334, Note_on_c, 3, 86, 111
8, 328514, Note_on_c, 3, 86, 0
8, 328583, Note_on_c, 3, 86, 102
8, 328763, Note_on_c, 3, 86, 0
8, 328806, Note_on_c, 3, 86, 92
8, 328986, Note_on_c, 3, 86, 0
8, 329051, Note_on_c, 3, 87, 101
8, 329231, Note_on_c, 3, 87, 0
8, 329289, Note_on_c, 3, 87, 105
8, 329469, Note_on_c, 3, 87, 0
8, 329539, Note_on_c, 3, 87, 98
8, 329719, Note_on_c, 3, 87, 0
8, 329767, Note_on_c, 3, 80, 98
8, 329947, Note_on_c, 3, 80, 0
8, 330001, Note_on_c, 3, 80, 110
8, 330181, Note_on_c, 3, 80, 0
8, 330250, Note_on_c, 3, 80, 111
8, 330430, Note_on_c, 3, 80, 0
8, 330482, Note_on_c, 3, 81, 111
8, 330662, Note_on_c, 3, 81, 0
8, 330732, Note_on_c, 3, 81, 97
8, 330912, Note_on_c, 3, 81, 0
8, 330972, Note_on_c, 3, 81, 95
8, 331152, Note_on_c, 3, 81, 0
8, 331925, Note_on_c, 3, 89, 92
8, 332045, Note_on_c, 3, 89, 0
8, 332175, Note_on_c, 3, 87, 87
8, 332295, Note_on_c, 3, 87, 0
8, 332414, Note_on_c, 3, 86, 84
8, 332534, Note_on_c, 3, 86, 0
8, 332659, Note_on_c, 3, 84, 87
8, 332779, Note_on_c, 3, 84, 0
8, 332899, Note_on_c, 3, 86, 88
8, 333019, Note_on_c, 3, 86, 0
8, 333137, Note_on_c, 3, 87, 97
8, 333257, Note_on_c, 3, 87, 0
8, 333362, Note_on_c, 3, 89, 82
8, 333482, Note_on_c, 3, 89, 0
8, 333610, Note_on_c, 3, 87, 91
8, 333730, Note_on_c, 3, 87, 0
8, 333865, Note_on_c, 3, 86, 93
8, 333985, Note_on_c, 3, 86, 0
8, 334081, Note_on_c, 3, 84, 87
8, 334201, Note_on_c, 3, 84, 0
8, 335052, Note_on_c, 3, 87, 81
8, 335172, Note_on_c, 3, 87, 0
8, 335295, Note_on_c, 3, 86, 92
8, 335415, Note_on_c, 3, 86, 0
8, 335528, Note_on_c, 3, 84, 81
8, 335648, Note_on_c, 3, 84, 0
8, 335774, Note_on_c, 3, 86, 95
8, 335894, Note_on_c, 3, 86, 0
8, 336012, Note_on_c, 3, 87, 87
8, 336132, Note_on_c, 3, 87, 0
8, 336246, Note_on_c, 3, 89, 87
8, 336366, Note_on_c, 3, 89, 0
8, 336494, Note_on_c, 3, 87, 89
8, 336614, Note_on_c, 3, 87, 0
8, 336731, Note_on_c, 3, 86, 90
8, 336851, Note_on_c, 3, 86, 0
8, 336967, Note_on_c, 3, 84, 90
8, 337087, Note_on_c, 3, 84, 0
8, 337205, Note_on_c, 3, 86, 78
8, 337325, Note_on_c, 3, 86, 0
8, 337449, Note_on_c, 3, 87, 94
8, 337569, Note_on_c, 3, 87, 0
8, 337701, Note_on_c, 3, 89, 93
8, 337821, Note_on_c, 3, 89, 0
8, 337928, Note_on_c, 3, 87, 97
8, 338048, Note_on_c, 3, 87, 0
8, 338162, Note_on_c, 3, 86, 89
8, 338282, Note_on_c, 3, 86, 0
8, 338425, Note_on_c, 3, 84, 94
8, 338545, Note_on_c, 3, 84, 0
8, 338663, Note_on_c, 3, 86, 97
8, 338783, Note_on_c, 3, 86, 0
8, 338889, Note_on_c, 3, 87, 97
8, 339009, Note_on_c, 3, 87, 0
8, 339145, Note_on_c, 3, 89, 85
8, 339265, Note_on_c, 3, 89, 0
8, 339360, Note_on_c, 3, 87, 92
8, 339480, Note_on_c, 3, 87, 0
8, 339600, Note_on_c, 3, 86, 81
8, 339720, Note_on_c, 3, 86, 0
8, 339843, Note_on_c, 3, 84, 102
8, 339986, Note_on_c, 3, 84, 0
8, 346103, Note_on_c, 3, 83, 104
8, 346246, Note_on_c, 3, 83, 0
8, 348018, Note_on_c, 3, 88, 87
8, 348161, Note_on_c, 3, 88, 0
8, 348491, Note_on_c, 3, 84, 99
8, 348634, Note_on_c, 3, 84, 0
8, 352330, Note_on_c, 3, 84, 87
8, 352473, Note_on_c, 3, 84, 0
8, 354252, Note_on_c, 3, 88, 96
8, 354395, Note_on_c, 3, 88, 0
8, 355225, Note_on_c, 3, 88, 99
8, 355368, Note_on_c, 3, 88, 0
8, 357128, Note_on_c, 3, 88, 95
8, 357271, Note_on_c, 3, 88, 0
8, 358096, Note_on_c, 3, 88, 102
8, 358239, Note_on_c, 3, 88, 0
8, 361918, Control_c, 3, 7, 127
8, 361938, Note_on_c, 3, 87, 48
8, 362418, Note_on_c, 3, 87, 0
8, 362422, Note_on_c, 3, 84, 39
8, 362883, Note_on_c, 3, 87, 46
8, 362902, Note_on_c, 3, 84, 0
8, 363363, Note_on_c, 3, 87, 0
8, 363380, Note_on_c, 3, 84, 47
8, 363847, Note_on_c, 3, 82, 39
8, 363860, Note_on_c, 3, 84, 0
8, 364327, Note_on_c, 3, 82, 0
8, 364344, Note_on_c, 3, 87, 55
8, 364824, Note_on_c, 3, 87, 0
8, 364825, Note_on_c, 3, 89, 59
8, 365294, Note_on_c, 3, 87, 40
8, 365305, Note_on_c, 3, 89, 0
8, 365774, Note_on_c, 3, 87, 0
8, 365785, Note_on_c, 3, 84, 40
8, 366180, Note_on_c, 3, 89, 58
8, 366205, Note_on_c, 3, 84, 0
8, 366262, Note_on_c, 3, 87, 44
8, 366270, Note_on_c, 3, 89, 0
8, 366722, Note_on_c, 3, 84, 42
8, 366742, Note_on_c, 3, 87, 0
8, 367202, Note_on_c, 3, 84, 0
8, 367219, Note_on_c, 3, 82, 58
8, 367690, Note_on_c, 3, 77, 39
8, 367699, Note_on_c, 3, 82, 0
8, 368170, Note_on_c, 3, 77, 0
8, 368176, Note_on_c, 3, 82, 42
8, 368649, Note_on_c, 3, 84, 48
8, 368656, Note_on_c, 3, 82, 0
8, 369000, Note_on_c, 3, 80, 45
8, 369009, Note_on_c, 3, 84, 0
8, 369060, Note_on_c, 3, 84, 39
8, 369090, Note_on_c, 3, 80, 0
8, 369135, Note_on_c, 3, 80, 41
8, 369150, Note_on_c, 3, 84, 0
8, 369612, Note_on_c, 3, 77, 51
8, 369615, Note_on_c, 3, 80, 0
8, 370560, Note_on_c, 3, 82, 57
8, 370572, Note_on_c, 3, 77, 0
8, 371040, Note_on_c, 3, 82, 0
8, 371058, Note_on_c, 3, 87, 50
8, 371880, Note_on_c, 3, 85, 49
8, 371898, Note_on_c, 3, 87, 0
8, 371940, Note_on_c, 3, 89, 53
8, 371970, Note_on_c, 3, 85, 0
8, 372005, Note_on_c, 3, 85, 48
8, 372030, Note_on_c, 3, 89, 0
8, 372485, Note_on_c, 3, 85, 0
8, 372490, Note_on_c, 3, 84, 43
8, 373921, Note_on_c, 3, 82, 55
8, 373930, Note_on_c, 3, 84, 0
8, 374340, Note_on_c, 3, 87, 51
8, 374341, Note_on_c, 3, 82, 0
8, 374401, Note_on_c, 3, 84, 51
8, 374430, Note_on_c, 3, 87, 0
8, 374881, Note_on_c, 3, 84, 0
8, 374899, Note_on_c, 3, 80, 55
8, 375365, Note_on_c, 3, 77, 48
8, 375379, Note_on_c, 3, 80, 0
8, 376325, Note_on_c, 3, 77, 0
8, 376342, Note_on_c, 3, 84, 59
8, 376740, Note_on_c, 3, 87, 59
8, 376762, Note_on_c, 3, 84, 0
8, 376805, Note_on_c, 3, 82, 56
8, 376830, Note_on_c, 3, 87, 0
8, 377220, Note_on_c, 3, 84, 47
8, 377225, Note_on_c, 3, 82, 0
8, 377304, Note_on_c, 3, 80, 39
8, 377310, Note_on_c, 3, 84, 0
8, 377673, Control_c, 3, 11, 127
8, 377705, Control_c, 3, 11, 124
8, 377729, Control_c, 3, 11, 123
8, 377737, Control_c, 3, 11, 122
8, 377753, Control_c, 3, 11, 119
8, 377784, Note_on_c, 3, 80, 0
8, 377785, Note_on_c, 3, 77, 45
8, 377793, Control_c, 3, 11, 116
8, 377825, Control_c, 3, 11, 113
8, 377865, Control_c, 3, 11, 110
8, 377873, Control_c, 3, 11, 109
8, 377889, Control_c, 3, 11, 106
8, 377913, Control_c, 3, 11, 104
8, 377937, Control_c, 3, 11, 103
8, 377969, Control_c, 3, 11, 98
8, 378025, Control_c, 3, 11, 93
8, 378041, Control_c, 3, 11, 92
8, 378049, Control_c, 3, 11, 91
8, 378057, Control_c, 3, 11, 90
8, 378081, Control_c, 3, 11, 87
8, 378137, Control_c, 3, 11, 82
8, 378209, Control_c, 3, 11, 77
8, 378241, Control_c, 3, 11, 73
8, 378265, Control_c, 3, 11, 71
8, 378329, Control_c, 3, 11, 66
8, 378433, Control_c, 3, 11, 56
8, 378593, Control_c, 3, 11, 43
8, 378720, Control_c, 3, 7, 75
8, 378729, Control_c, 3, 11, 30
8, 378745, Note_on_c, 3, 77, 0
8, 378809, Control_c, 3, 11, 22
8, 378825, Control_c, 3, 11, 21
8, 378857, Control_c, 3, 11, 16
8, 378897, Control_c, 3, 11, 14
8, 378929, Control_c, 3, 11, 12
8, 378953, Control_c, 3, 11, 9
8, 378977, Control_c, 3, 11, 6
8, 379025, Control_c, 3, 11, 3
8, 379097, Control_c, 3, 11, 0
8, 379153, Control_c, 3, 11, 0
8, 379257, Control_c, 3, 11, 127
8, 384731, Note_on_c, 3, 73, 70
8, 384963, Note_on_c, 3, 75, 85
8, 384971, Note_on_c, 3, 73, 0
8, 385200, Note_on_c, 3, 73, 81
8, 385203, Note_on_c, 3, 75, 0
8, 385440, Note_on_c, 3, 73, 0
8, 385459, Note_on_c, 3, 75, 75
8, 385683, Note_on_c, 3, 73, 67
8, 385699, Note_on_c, 3, 75, 0
8, 385923, Note_on_c, 3, 73, 0
8, 385936, Note_on_c, 3, 75, 75
8, 386171, Note_on_c, 3, 73, 84
8, 386176, Note_on_c, 3, 75, 0
8, 386411, Note_on_c, 3, 73, 0
8, 390482, Note_on_c, 3, 73, 74
8, 390722, Note_on_c, 3, 73, 0
8, 390735, Note_on_c, 3, 75, 84
8, 390962, Note_on_c, 3, 73, 70
8, 390975, Note_on_c, 3, 75, 0
8, 391202, Note_on_c, 3, 73, 0
8, 391211, Note_on_c, 3, 75, 82
8, 391451, Note_on_c, 3, 75, 0
8, 391465, Note_on_c, 3, 73, 70
8, 391682, Note_on_c, 3, 75, 78
8, 391705, Note_on_c, 3, 73, 0
8, 391922, Note_on_c, 3, 75, 0
8, 391931, Note_on_c, 3, 73, 74
8, 392171, Note_on_c, 3, 73, 0
8, 392182, Note_on_c, 3, 75, 68
8, 392419, Note_on_c, 3, 73, 84
8, 392422, Note_on_c, 3, 75, 0
8, 392658, Note_on_c, 3, 75, 83
8, 392659, Note_on_c, 3, 73, 0
8, 392898, Note_on_c, 3, 75, 0
8, 392905, Note_on_c, 3, 73, 78
8, 393132, Note_on_c, 3, 75, 73
8, 393145, Note_on_c, 3, 73, 0
8, 393363, Note_on_c, 3, 73, 65
8, 393372, Note_on_c, 3, 75, 0
8, 393603, Note_on_c, 3, 73, 0
8, 393608, Note_on_c, 3, 75, 82
8, 393848, Note_on_c, 3, 75, 0
8, 407520, Note_on_c, 3, 77, 78
8, 407558, Note_on_c, 3, 78, 80
8, 407577, Note_on_c, 3, 77, 0
8, 407596, Note_on_c, 3, 77, 91
8, 407615, Note_on_c, 3, 78, 0
8, 407635, Note_on_c, 3, 78, 98
8, 407653, Note_on_c, 3, 77, 0
8, 407673, Note_on_c, 3, 77, 95
8, 407692, Note_on_c, 3, 78, 0
8, 407711, Note_on_c, 3, 78, 78
8, 407730, Note_on_c, 3, 77, 0
8, 407750, Note_on_c, 3, 77, 95
8, 407768, Note_on_c, 3, 78, 0
8, 407788, Note_on_c, 3, 78, 80
8, 407807, Note_on_c, 3, 77, 0
8, 407827, Note_on_c, 3, 77, 78
8, 407845, Note_on_c, 3, 78, 0
8, 407865, Note_on_c, 3, 78, 78
8, 407884, Note_on_c, 3, 77, 0
8, 407904, Note_on_c, 3, 77, 96
8, 407922, Note_on_c, 3, 78, 0
8, 407942, Note_on_c, 3, 78, 82
8, 407961, Note_on_c, 3, 77, 0
8, 407981, Note_on_c, 3, 77, 97
8, 407999, Note_on_c, 3, 78, 0
8, 408019, Note_on_c, 3, 78, 83
8, 408038, Note_on_c, 3, 77, 0
8, 408058, Note_on_c, 3, 77, 84
8, 408076, Note_on_c, 3, 78, 0
8, 408096, Note_on_c, 3, 78, 86
8, 408115, Note_on_c, 3, 77, 0
8, 408135, Note_on_c, 3, 77, 84
8, 408153, Note_on_c, 3, 78, 0
8, 408173, Note_on_c, 3, 78, 78
8, 408192, Note_on_c, 3, 77, 0
8, 408211, Note_on_c, 3, 77, 86
8, 408230, Note_on_c, 3, 78, 0
8, 408250, Note_on_c, 3, 78, 86
8, 408268, Note_on_c, 3, 77, 0
8, 408288, Note_on_c, 3, 77, 98
8, 408307, Note_on_c, 3, 78, 0
8, 408326, Note_on_c, 3, 78, 93
8, 408345, Note_on_c, 3, 77, 0
8, 408365, Note_on_c, 3, 77, 91
8, 408383, Note_on_c, 3, 78, 0
8, 408403, Note_on_c, 3, 78, 85
8, 408422, Note_on_c, 3, 77, 0
8, 408442, Note_on_c, 3, 77, 83
8, 408460, Note_on_c, 3, 78, 0
8, 408480, Note_on_c, 3, 78, 80
8, 408499, Note_on_c, 3, 77, 0
8, 408519, Note_on_c, 3, 77, 86
8, 408537, Note_on_c, 3, 78, 0
8, 408557, Note_on_c, 3, 78, 97
8, 408576, Note_on_c, 3, 77, 0
8, 408596, Note_on_c, 3, 77, 98
8, 408614, Note_on_c, 3, 78, 0
8, 408634, Note_on_c, 3, 78, 85
8, 408653, Note_on_c, 3, 77, 0
8, 408673, Note_on_c, 3, 77, 94
8, 408691, Note_on_c, 3, 78, 0
8, 408726, Note_on_c, 3, 77, 89
8, 408730, Note_on_c, 3, 77, 0
8, 408806, Note_on_c, 3, 77, 0
8, 408825, Note_on_c, 3, 75, 86
8, 408880, Note_on_c, 3, 73, 80
8, 408904, Note_on_c, 3, 75, 0
8, 408960, Note_on_c, 3, 73, 0
8, 408960, Note_on_c, 3, 72, 92
8, 408998, Note_on_c, 3, 73, 93
8, 409017, Note_on_c, 3, 72, 0
8, 409037, Note_on_c, 3, 72, 97
8, 409056, Note_on_c, 3, 73, 0
8, 409076, Note_on_c, 3, 73, 82
8, 409094, Note_on_c, 3, 72, 0
8, 409115, Note_on_c, 3, 72, 88
8, 409134, Note_on_c, 3, 73, 0
8, 409154, Note_on_c, 3, 73, 96
8, 409172, Note_on_c, 3, 72, 0
8, 409193, Note_on_c, 3, 72, 78
8, 409212, Note_on_c, 3, 73, 0
8, 409231, Note_on_c, 3, 73, 82
8, 409250, Note_on_c, 3, 72, 0
8, 409271, Note_on_c, 3, 72, 83
8, 409289, Note_on_c, 3, 73, 0
8, 409310, Note_on_c, 3, 73, 92
8, 409329, Note_on_c, 3, 72, 0
8, 409348, Note_on_c, 3, 72, 93
8, 409367, Note_on_c, 3, 73, 0
8, 409387, Note_on_c, 3, 73, 96
8, 409406, Note_on_c, 3, 72, 0
8, 409426, Note_on_c, 3, 72, 79
8, 409444, Note_on_c, 3, 73, 0
8, 409465, Note_on_c, 3, 73, 81
8, 409484, Note_on_c, 3, 72, 0
8, 409504, Note_on_c, 3, 72, 81
8, 409522, Note_on_c, 3, 73, 0
8, 409543, Note_on_c, 3, 73, 91
8, 409562, Note_on_c, 3, 72, 0
8, 409582, Note_on_c, 3, 72, 78
8, 409600, Note_on_c, 3, 73, 0
8, 409621, Note_on_c, 3, 73, 97
8, 409639, Note_on_c, 3, 72, 0
8, 409660, Note_on_c, 3, 72, 84
8, 409679, Note_on_c, 3, 73, 0
8, 409698, Note_on_c, 3, 73, 82
8, 409717, Note_on_c, 3, 72, 0
8, 409738, Note_on_c, 3, 72, 78
8, 409756, Note_on_c, 3, 73, 0
8, 409776, Note_on_c, 3, 73, 83
8, 409795, Note_on_c, 3, 72, 0
8, 409815, Note_on_c, 3, 72, 83
8, 409834, Note_on_c, 3, 73, 0
8, 409854, Note_on_c, 3, 73, 79
8, 409872, Note_on_c, 3, 72, 0
8, 409893, Note_on_c, 3, 72, 98
8, 409912, Note_on_c, 3, 73, 0
8, 409932, Note_on_c, 3, 73, 96
8, 409951, Note_on_c, 3, 72, 0
8, 409971, Note_on_c, 3, 72, 95
8, 409989, Note_on_c, 3, 73, 0
8, 410010, Note_on_c, 3, 73, 78
8, 410029, Note_on_c, 3, 72, 0
8, 410049, Note_on_c, 3, 72, 93
8, 410067, Note_on_c, 3, 73, 0
8, 410088, Note_on_c, 3, 73, 81
8, 410107, Note_on_c, 3, 72, 0
8, 410126, Note_on_c, 3, 72, 90
8, 410145, Note_on_c, 3, 73, 0
8, 410165, Note_on_c, 3, 73, 97
8, 410184, Note_on_c, 3, 72, 0
8, 410205, Note_on_c, 3, 72, 97
8, 410222, Note_on_c, 3, 73, 0
8, 410243, Note_on_c, 3, 73, 96
8, 410262, Note_on_c, 3, 72, 0
8, 410282, Note_on_c, 3, 72, 90
8, 410301, Note_on_c, 3, 73, 0
8, 410321, Note_on_c, 3, 73, 98
8, 410339, Note_on_c, 3, 72, 0
8, 410360, Note_on_c, 3, 72, 98
8, 410379, Note_on_c, 3, 73, 0
8, 410399, Note_on_c, 3, 73, 90
8, 410417, Note_on_c, 3, 72, 0
8, 410438, Note_on_c, 3, 72, 81
8, 410457, Note_on_c, 3, 73, 0
8, 410476, Note_on_c, 3, 73, 88
8, 410495, Note_on_c, 3, 72, 0
8, 410516, Note_on_c, 3, 72, 97
8, 410534, Note_on_c, 3, 73, 0
8, 410555, Note_on_c, 3, 73, 86
8, 410574, Note_on_c, 3, 72, 0
8, 410593, Note_on_c, 3, 72, 95
8, 410612, Note_on_c, 3, 73, 0
8, 410632, Note_on_c, 3, 73, 87
8, 410651, Note_on_c, 3, 72, 0
8, 410671, Note_on_c, 3, 72, 86
8, 410689, Note_on_c, 3, 73, 0
8, 410710, Note_on_c, 3, 73, 89
8, 410729, Note_on_c, 3, 72, 0
8, 410749, Note_on_c, 3, 72, 94
8, 410767, Note_on_c, 3, 73, 0
8, 410788, Note_on_c, 3, 73, 83
8, 410807, Note_on_c, 3, 72, 0
8, 410827, Note_on_c, 3, 72, 93
8, 410845, Note_on_c, 3, 73, 0
8, 410866, Note_on_c, 3, 73, 93
8, 410884, Note_on_c, 3, 72, 0
8, 410885, Note_on_c, 3, 73, 0
8, 411128, Note_on_c, 3, 72, 93
8, 411201, Note_on_c, 3, 73, 90
8, 411208, Note_on_c, 3, 72, 0
8, 411280, Note_on_c, 3, 73, 0
8, 411292, Note_on_c, 3, 75, 88
8, 411372, Note_on_c, 3, 75, 0
8, 411385, Note_on_c, 3, 77, 82
8, 411583, Note_on_c, 3, 77, 0
8, 411610, Note_on_c, 3, 77, 96
8, 411684, Note_on_c, 3, 75, 78
8, 411690, Note_on_c, 3, 77, 0
8, 411762, Note_on_c, 3, 73, 89
8, 411763, Note_on_c, 3, 75, 0
8, 411840, Note_on_c, 3, 72, 84
8, 411842, Note_on_c, 3, 73, 0
8, 411876, Note_on_c, 3, 73, 89
8, 411894, Note_on_c, 3, 72, 0
8, 411913, Note_on_c, 3, 72, 95
8, 411930, Note_on_c, 3, 73, 0
8, 411949, Note_on_c, 3, 73, 87
8, 411967, Note_on_c, 3, 72, 0
8, 411986, Note_on_c, 3, 72, 91
8, 412003, Note_on_c, 3, 73, 0
8, 412022, Note_on_c, 3, 73, 78
8, 412040, Note_on_c, 3, 72, 0
8, 412059, Note_on_c, 3, 72, 78
8, 412076, Note_on_c, 3, 73, 0
8, 412095, Note_on_c, 3, 73, 81
8, 412113, Note_on_c, 3, 72, 0
8, 412132, Note_on_c, 3, 72, 96
8, 412149, Note_on_c, 3, 73, 0
8, 412168, Note_on_c, 3, 73, 89
8, 412186, Note_on_c, 3, 72, 0
8, 412205, Note_on_c, 3, 72, 88
8, 412222, Note_on_c, 3, 73, 0
8, 412241, Note_on_c, 3, 73, 98
8, 412259, Note_on_c, 3, 72, 0
8, 412278, Note_on_c, 3, 72, 95
8, 412295, Note_on_c, 3, 73, 0
8, 412320, Note_on_c, 3, 73, 89
8, 412332, Note_on_c, 3, 72, 0
8, 412357, Note_on_c, 3, 72, 95
8, 412374, Note_on_c, 3, 73, 0
8, 412393, Note_on_c, 3, 73, 87
8, 412411, Note_on_c, 3, 72, 0
8, 412430, Note_on_c, 3, 72, 91
8, 412447, Note_on_c, 3, 73, 0
8, 412466, Note_on_c, 3, 73, 78
8, 412484, Note_on_c, 3, 72, 0
8, 412503, Note_on_c, 3, 72, 78
8, 412520, Note_on_c, 3, 73, 0
8, 412540, Note_on_c, 3, 72, 0
8, 412564, Note_on_c, 3, 72, 98
8, 412642, Note_on_c, 3, 73, 95
8, 412644, Note_on_c, 3, 72, 0
8, 412721, Note_on_c, 3, 73, 0
8, 412739, Note_on_c, 3, 75, 84
8, 412800, Note_on_c, 3, 77, 85
8, 412839, Note_on_c, 3, 78, 92
8, 412858, Note_on_c, 3, 77, 0
8, 412859, Note_on_c, 3, 75, 0
8, 412878, Note_on_c, 3, 77, 83
8, 412897, Note_on_c, 3, 78, 0
8, 412918, Note_on_c, 3, 78, 97
8, 412936, Note_on_c, 3, 77, 0
8, 412957, Note_on_c, 3, 77, 84
8, 412976, Note_on_c, 3, 78, 0
8, 412996, Note_on_c, 3, 78, 92
8, 413015, Note_on_c, 3, 77, 0
8, 413036, Note_on_c, 3, 77, 95
8, 413054, Note_on_c, 3, 78, 0
8, 413075, Note_on_c, 3, 78, 83
8, 413094, Note_on_c, 3, 77, 0
8, 413115, Note_on_c, 3, 77, 81
8, 413133, Note_on_c, 3, 78, 0
8, 413154, Note_on_c, 3, 78, 92
8, 413173, Note_on_c, 3, 77, 0
8, 413193, Note_on_c, 3, 77, 90
8, 413212, Note_on_c, 3, 78, 0
8, 413233, Note_on_c, 3, 78, 94
8, 413251, Note_on_c, 3, 77, 0
8, 413272, Note_on_c, 3, 77, 91
8, 413291, Note_on_c, 3, 78, 0
8, 413311, Note_on_c, 3, 78, 86
8, 413330, Note_on_c, 3, 77, 0
8, 413351, Note_on_c, 3, 77, 88
8, 413369, Note_on_c, 3, 78, 0
8, 413390, Note_on_c, 3, 78, 82
8, 413409, Note_on_c, 3, 77, 0
8, 413430, Note_on_c, 3, 77, 86
8, 413448, Note_on_c, 3, 78, 0
8, 413469, Note_on_c, 3, 78, 92
8, 413488, Note_on_c, 3, 77, 0
8, 413508, Note_on_c, 3, 77, 94
8, 413527, Note_on_c, 3, 78, 0
8, 413548, Note_on_c, 3, 78, 79
8, 413566, Note_on_c, 3, 77, 0
8, 413587, Note_on_c, 3, 77, 94
8, 413606, Note_on_c, 3, 78, 0
8, 413626, Note_on_c, 3, 78, 95
8, 413645, Note_on_c, 3, 77, 0
8, 413666, Note_on_c, 3, 77, 96
8, 413684, Note_on_c, 3, 78, 0
8, 413705, Note_on_c, 3, 78, 82
8, 413724, Note_on_c, 3, 77, 0
8, 413745, Note_on_c, 3, 77, 92
8, 413763, Note_on_c, 3, 78, 0
8, 413784, Note_on_c, 3, 78, 98
8, 413803, Note_on_c, 3, 77, 0
8, 413823, Note_on_c, 3, 77, 80
8, 413842, Note_on_c, 3, 78, 0
8, 413863, Note_on_c, 3, 78, 85
8, 413881, Note_on_c, 3, 77, 0
8, 413902, Note_on_c, 3, 77, 82
8, 413921, Note_on_c, 3, 78, 0
8, 413941, Note_on_c, 3, 78, 78
8, 413960, Note_on_c, 3, 77, 0
8, 413981, Note_on_c, 3, 77, 87
8, 413999, Note_on_c, 3, 78, 0
8, 414020, Note_on_c, 3, 78, 96
8, 414039, Note_on_c, 3, 77, 0
8, 414060, Note_on_c, 3, 77, 98
8, 414078, Note_on_c, 3, 78, 0
8, 414099, Note_on_c, 3, 78, 92
8, 414118, Note_on_c, 3, 77, 0
8, 414138, Note_on_c, 3, 77, 83
8, 414157, Note_on_c, 3, 78, 0
8, 414178, Note_on_c, 3, 78, 93
8, 414196, Note_on_c, 3, 77, 0
8, 414217, Note_on_c, 3, 77, 85
8, 414236, Note_on_c, 3, 78, 0
8, 414256, Note_on_c, 3, 78, 84
8, 414275, Note_on_c, 3, 77, 0
8, 414296, Note_on_c, 3, 77, 85
8, 414314, Note_on_c, 3, 78, 0
8, 414335, Note_on_c, 3, 78, 88
8, 414354, Note_on_c, 3, 77, 0
8, 414375, Note_on_c, 3, 77, 90
8, 414393, Note_on_c, 3, 78, 0
8, 414414, Note_on_c, 3, 78, 82
8, 414433, Note_on_c, 3, 77, 0
8, 414453, Note_on_c, 3, 77, 87
8, 414472, Note_on_c, 3, 78, 0
8, 414493, Note_on_c, 3, 78, 78
8, 414511, Note_on_c, 3, 77, 0
8, 414532, Note_on_c, 3, 77, 94
8, 414551, Note_on_c, 3, 78, 0
8, 414571, Note_on_c, 3, 78, 79
8, 414590, Note_on_c, 3, 77, 0
8, 414611, Note_on_c, 3, 77, 83
8, 414629, Note_on_c, 3, 78, 0
8, 414650, Note_on_c, 3, 78, 78
8, 414669, Note_on_c, 3, 77, 0
8, 414690, Note_on_c, 3, 77, 80
8, 414708, Note_on_c, 3, 78, 0
8, 414729, Note_on_c, 3, 78, 94
8, 414748, Note_on_c, 3, 77, 0
8, 414768, Note_on_c, 3, 77, 85
8, 414787, Note_on_c, 3, 78, 0
8, 414808, Note_on_c, 3, 78, 88
8, 414826, Note_on_c, 3, 77, 0
8, 414847, Note_on_c, 3, 77, 84
8, 414866, Note_on_c, 3, 78, 0
8, 414886, Note_on_c, 3, 78, 78
8, 414905, Note_on_c, 3, 77, 0
8, 414926, Note_on_c, 3, 77, 90
8, 414944, Note_on_c, 3, 78, 0
8, 414965, Note_on_c, 3, 78, 93
8, 414984, Note_on_c, 3, 77, 0
8, 415005, Note_on_c, 3, 77, 85
8, 415023, Note_on_c, 3, 78, 0
8, 415044, Note_on_c, 3, 78, 83
8, 415063, Note_on_c, 3, 77, 0
8, 415083, Note_on_c, 3, 77, 78
8, 415102, Note_on_c, 3, 78, 0
8, 415123, Note_on_c, 3, 78, 95
8, 415141, Note_on_c, 3, 77, 0
8, 415162, Note_on_c, 3, 77, 97
8, 415181, Note_on_c, 3, 78, 0
8, 415201, Note_on_c, 3, 78, 94
8, 415220, Note_on_c, 3, 77, 0
8, 415241, Note_on_c, 3, 77, 85
8, 415259, Note_on_c, 3, 78, 0
8, 415280, Note_on_c, 3, 78, 87
8, 415299, Note_on_c, 3, 77, 0
8, 415320, Note_on_c, 3, 77, 85
8, 415338, Note_on_c, 3, 78, 0
8, 415359, Note_on_c, 3, 78, 83
8, 415378, Note_on_c, 3, 77, 0
8, 415398, Note_on_c, 3, 77, 83
8, 415417, Note_on_c, 3, 78, 0
8, 415438, Note_on_c, 3, 78, 84
8, 415456, Note_on_c, 3, 77, 0
8, 415477, Note_on_c, 3, 77, 86
8, 415496, Note_on_c, 3, 78, 0
8, 415516, Note_on_c, 3, 78, 95
8, 415535, Note_on_c, 3, 77, 0
8, 415556, Note_on_c, 3, 77, 84
8, 415574, Note_on_c, 3, 78, 0
8, 415595, Note_on_c, 3, 78, 97
8, 415614, Note_on_c, 3, 77, 0
8, 415635, Note_on_c, 3, 77, 79
8, 415653, Note_on_c, 3, 78, 0
8, 415693, Note_on_c, 3, 77, 0
8, 419781, Note_on_c, 3, 73, 77
8, 420003, Note_on_c, 3, 75, 84
8, 420021, Note_on_c, 3, 73, 0
8, 420243, Note_on_c, 3, 75, 0
8, 420263, Note_on_c, 3, 73, 84
8, 420487, Note_on_c, 3, 75, 79
8, 420503, Note_on_c, 3, 73, 0
8, 420727, Note_on_c, 3, 75, 0
8, 420740, Note_on_c, 3, 73, 69
8, 420980, Note_on_c, 3, 73, 0
8, 420982, Note_on_c, 3, 75, 68
8, 421222, Note_on_c, 3, 75, 0
8, 421223, Note_on_c, 3, 73, 68
8, 421447, Note_on_c, 3, 75, 69
8, 421463, Note_on_c, 3, 73, 0
8, 421687, Note_on_c, 3, 75, 0
8, 423605, Note_on_c, 3, 73, 66
8, 423842, Note_on_c, 3, 75, 84
8, 423845, Note_on_c, 3, 73, 0
8, 424082, Note_on_c, 3, 75, 0
8, 424085, Note_on_c, 3, 73, 68
8, 424325, Note_on_c, 3, 73, 0
8, 424329, Note_on_c, 3, 75, 85
8, 424567, Note_on_c, 3, 73, 76
8, 424569, Note_on_c, 3, 75, 0
8, 424807, Note_on_c, 3, 73, 0
8, 424808, Note_on_c, 3, 75, 76
8, 425048, Note_on_c, 3, 75, 0
8, 425058, Note_on_c, 3, 73, 73
8, 425291, Note_on_c, 3, 75, 68
8, 425298, Note_on_c, 3, 73, 0
8, 425521, Note_on_c, 3, 73, 66
8, 425531, Note_on_c, 3, 75, 0
8, 425761, Note_on_c, 3, 73, 0
8, 425765, Note_on_c, 3, 75, 77
8, 426005, Note_on_c, 3, 75, 0
8, 426005, Note_on_c, 3, 73, 84
8, 426245, Note_on_c, 3, 73, 0
8, 426251, Note_on_c, 3, 75, 68
8, 426491, Note_on_c, 3, 75, 0
8, 426495, Note_on_c, 3, 73, 67
8, 426735, Note_on_c, 3, 73, 0
8, 427202, Note_on_c, 3, 82, 111
8, 427562, Note_on_c, 3, 82, 0
8, 427683, Note_on_c, 3, 82, 91
8, 428043, Note_on_c, 3, 82, 0
8, 428171, Note_on_c, 3, 82, 102
8, 428531, Note_on_c, 3, 82, 0
8, 428663, Note_on_c, 3, 84, 105
8, 428893, Note_on_c, 3, 85, 107
8, 428903, Note_on_c, 3, 84, 0
8, 429133, Note_on_c, 3, 85, 0
8, 429138, Note_on_c, 3, 87, 93
8, 429618, Note_on_c, 3, 87, 0
8, 429620, Note_on_c, 3, 85, 92
8, 430080, Note_on_c, 3, 84, 96
8, 430100, Note_on_c, 3, 85, 0
8, 430560, Note_on_c, 3, 84, 0
8, 430585, Note_on_c, 3, 82, 96
8, 430945, Note_on_c, 3, 82, 0
8, 431054, Note_on_c, 3, 82, 104
8, 431414, Note_on_c, 3, 82, 0
8, 431533, Note_on_c, 3, 84, 102
8, 431766, Note_on_c, 3, 85, 100
8, 431773, Note_on_c, 3, 84, 0
8, 432006, Note_on_c, 3, 85, 0
8, 432019, Note_on_c, 3, 87, 95
8, 432499, Note_on_c, 3, 87, 0
8, 432501, Note_on_c, 3, 82, 93
8, 432861, Note_on_c, 3, 82, 0
8, 432978, Note_on_c, 3, 82, 110
8, 433338, Note_on_c, 3, 82, 0
8, 433459, Note_on_c, 3, 82, 111
8, 433819, Note_on_c, 3, 82, 0
8, 433937, Note_on_c, 3, 84, 99
8, 434177, Note_on_c, 3, 84, 0
8, 434182, Note_on_c, 3, 85, 107
8, 434420, Note_on_c, 3, 87, 93
8, 434422, Note_on_c, 3, 85, 0
8, 434900, Note_on_c, 3, 87, 0
8, 435372, Note_on_c, 3, 82, 98
8, 435732, Note_on_c, 3, 82, 0
8, 435855, Note_on_c, 3, 82, 107
8, 436215, Note_on_c, 3, 82, 0
8, 436334, Note_on_c, 3, 82, 103
8, 436694, Note_on_c, 3, 82, 0
8, 436823, Note_on_c, 3, 82, 112
8, 437183, Note_on_c, 3, 82, 0
8, 437289, Note_on_c, 3, 82, 96
8, 437649, Note_on_c, 3, 82, 0
8, 437773, Note_on_c, 3, 82, 108
8, 438133, Note_on_c, 3, 82, 0
8, 438731, Note_on_c, 3, 83, 109
8, 439091, Note_on_c, 3, 83, 0
8, 439203, Note_on_c, 3, 83, 109
8, 439563, Note_on_c, 3, 83, 0
8, 439690, Note_on_c, 3, 83, 119
8, 440050, Note_on_c, 3, 83, 0
8, 440170, Note_on_c, 3, 84, 107
8, 440410, Note_on_c, 3, 84, 0
8, 440414, Note_on_c, 3, 85, 122
8, 440650, Note_on_c, 3, 87, 123
8, 440654, Note_on_c, 3, 85, 0
8, 442090, Note_on_c, 3, 87, 0
8, 442099, Note_on_c, 3, 84, 121
8, 442459, Note_on_c, 3, 84, 0
8, 442563, Note_on_c, 3, 84, 108
8, 442923, Note_on_c, 3, 84, 0
8, 443045, Note_on_c, 3, 84, 107
8, 443405, Note_on_c, 3, 84, 0
8, 443533, Note_on_c, 3, 84, 109
8, 443763, Note_on_c, 3, 85, 119
8, 443773, Note_on_c, 3, 84, 0
8, 444003, Note_on_c, 3, 85, 0
8, 444017, Note_on_c, 3, 87, 113
8, 444497, Note_on_c, 3, 87, 0
8, 444499, Note_on_c, 3, 84, 112
8, 444733, Note_on_c, 3, 85, 112
8, 444739, Note_on_c, 3, 84, 0
8, 444960, Note_on_c, 3, 87, 104
8, 444973, Note_on_c, 3, 85, 0
8, 445440, Note_on_c, 3, 87, 0
8, 445459, Note_on_c, 3, 82, 106
8, 445819, Note_on_c, 3, 82, 0
8, 445926, Note_on_c, 3, 82, 112
8, 446286, Note_on_c, 3, 82, 0
8, 446425, Note_on_c, 3, 84, 107
8, 446643, Note_on_c, 3, 85, 119
8, 446665, Note_on_c, 3, 84, 0
8, 446883, Note_on_c, 3, 85, 0
8, 446904, Note_on_c, 3, 87, 123
8, 447384, Note_on_c, 3, 87, 0
8, 448807, Note_on_c, 3, 84, 115
8, 448950, Note_on_c, 3, 84, 0
8, 453624, Note_on_c, 3, 76, 99
8, 453733, Note_on_c, 3, 79, 104
8, 453744, Note_on_c, 3, 76, 0
8, 453853, Note_on_c, 3, 79, 0
8, 453865, Note_on_c, 3, 80, 103
8, 453960, Note_on_c, 3, 79, 108
8, 453985, Note_on_c, 3, 80, 0
8, 454080, Note_on_c, 3, 79, 0
8, 454088, Note_on_c, 3, 77, 103
8, 454208, Note_on_c, 3, 77, 0
8, 455048, Note_on_c, 3, 84, 112
8, 455191, Note_on_c, 3, 84, 0
8, 455536, Note_on_c, 3, 84, 112
8, 455679, Note_on_c, 3, 84, 0
8, 456493, Note_on_c, 3, 77, 111
8, 456613, Note_on_c, 3, 77, 0
8, 456620, Note_on_c, 3, 79, 111
8, 456740, Note_on_c, 3, 79, 0
8, 456744, Note_on_c, 3, 80, 95
8, 456845, Note_on_c, 3, 79, 92
8, 456864, Note_on_c, 3, 80, 0
8, 456961, Note_on_c, 3, 76, 91
8, 456965, Note_on_c, 3, 79, 0
8, 457081, Note_on_c, 3, 76, 0
8, 457929, Note_on_c, 3, 80, 96
8, 458120, Note_on_c, 3, 80, 0
8, 458409, Note_on_c, 3, 84, 98
8, 458600, Note_on_c, 3, 84, 0
8, 458886, Note_on_c, 3, 80, 110
8, 459077, Note_on_c, 3, 80, 0
8, 459367, Note_on_c, 3, 84, 92
8, 459558, Note_on_c, 3, 84, 0
8, 459843, Note_on_c, 3, 80, 109
8, 460034, Note_on_c, 3, 80, 0
8, 460341, Note_on_c, 3, 84, 98
8, 460532, Note_on_c, 3, 84, 0
8, 460824, Note_on_c, 3, 80, 91
8, 461015, Note_on_c, 3, 80, 0
8, 461296, Note_on_c, 3, 84, 96
8, 461487, Note_on_c, 3, 84, 0
8, 462736, Note_on_c, 3, 76, 104
8, 462856, Note_on_c, 3, 76, 0
8, 462861, Note_on_c, 3, 79, 109
8, 462964, Note_on_c, 3, 80, 110
8, 462981, Note_on_c, 3, 79, 0
8, 463080, Note_on_c, 3, 79, 99
8, 463084, Note_on_c, 3, 80, 0
8, 463200, Note_on_c, 3, 79, 0
8, 463206, Note_on_c, 3, 77, 93
8, 463326, Note_on_c, 3, 77, 0
8, 464659, Note_on_c, 3, 76, 97
8, 464764, Note_on_c, 3, 79, 111
8, 464779, Note_on_c, 3, 76, 0
8, 464884, Note_on_c, 3, 79, 0
8, 464896, Note_on_c, 3, 80, 105
8, 465005, Note_on_c, 3, 79, 104
8, 465016, Note_on_c, 3, 80, 0
8, 465125, Note_on_c, 3, 79, 0
8, 465144, Note_on_c, 3, 77, 99
8, 465264, Note_on_c, 3, 77, 0
8, 466092, Note_on_c, 3, 84, 111
8, 466235, Note_on_c, 3, 84, 0
8, 466564, Note_on_c, 3, 84, 95
8, 466707, Note_on_c, 3, 84, 0
8, 467528, Note_on_c, 3, 77, 93
8, 467640, Note_on_c, 3, 79, 110
8, 467648, Note_on_c, 3, 77, 0
8, 467760, Note_on_c, 3, 79, 0
8, 467761, Note_on_c, 3, 80, 103
8, 467881, Note_on_c, 3, 80, 0
8, 467893, Note_on_c, 3, 79, 96
8, 468013, Note_on_c, 3, 79, 0
8, 468014, Note_on_c, 3, 76, 92
8, 468134, Note_on_c, 3, 76, 0
8, 468960, Note_on_c, 3, 84, 114
8, 469103, Note_on_c, 3, 84, 0
8, 472819, Note_on_c, 3, 87, 59
8, 473301, Note_on_c, 3, 84, 74
8, 473347, Note_on_c, 3, 87, 0
8, 473700, Note_on_c, 3, 89, 78
8, 473763, Note_on_c, 3, 84, 0
8, 473770, Note_on_c, 3, 87, 63
8, 473819, Note_on_c, 3, 89, 0
8, 474257, Note_on_c, 3, 84, 65
8, 474298, Note_on_c, 3, 87, 0
8, 474726, Note_on_c, 3, 82, 69
8, 474785, Note_on_c, 3, 84, 0
8, 475210, Note_on_c, 3, 87, 60
8, 475254, Note_on_c, 3, 82, 0
8, 475685, Note_on_c, 3, 89, 74
8, 475738, Note_on_c, 3, 87, 0
8, 476165, Note_on_c, 3, 87, 67
8, 476213, Note_on_c, 3, 89, 0
8, 476646, Note_on_c, 3, 84, 61
8, 476693, Note_on_c, 3, 87, 0
8, 477060, Note_on_c, 3, 89, 77
8, 477108, Note_on_c, 3, 84, 0
8, 477139, Note_on_c, 3, 87, 60
8, 477179, Note_on_c, 3, 89, 0
8, 477620, Note_on_c, 3, 84, 60
8, 477667, Note_on_c, 3, 87, 0
8, 478099, Note_on_c, 3, 82, 67
8, 478148, Note_on_c, 3, 84, 0
8, 478562, Note_on_c, 3, 79, 69
8, 478627, Note_on_c, 3, 82, 0
8, 479054, Note_on_c, 3, 84, 63
8, 479090, Note_on_c, 3, 79, 0
8, 479520, Note_on_c, 3, 86, 61
8, 479582, Note_on_c, 3, 84, 0
8, 479835, Note_on_c, 3, 82, 73
8, 479916, Note_on_c, 3, 86, 0
8, 479940, Note_on_c, 3, 86, 64
8, 479954, Note_on_c, 3, 82, 0
8, 480000, Note_on_c, 3, 82, 72
8, 480059, Note_on_c, 3, 86, 0
8, 480503, Note_on_c, 3, 79, 75
8, 480528, Note_on_c, 3, 82, 0
8, 481401, Note_on_c, 3, 79, 0
8, 481441, Note_on_c, 3, 84, 77
8, 481936, Note_on_c, 3, 89, 79
8, 481969, Note_on_c, 3, 84, 0
8, 482760, Note_on_c, 3, 87, 71
8, 482820, Note_on_c, 3, 91, 76
8, 482860, Note_on_c, 3, 89, 0
8, 482879, Note_on_c, 3, 87, 0
8, 482887, Note_on_c, 3, 87, 64
8, 482939, Note_on_c, 3, 91, 0
8, 483385, Note_on_c, 3, 86, 77
8, 483415, Note_on_c, 3, 87, 0
8, 484808, Note_on_c, 3, 84, 60
8, 484849, Note_on_c, 3, 86, 0
8, 485220, Note_on_c, 3, 89, 70
8, 485270, Note_on_c, 3, 84, 0
8, 485301, Note_on_c, 3, 86, 67
8, 485339, Note_on_c, 3, 89, 0
8, 485767, Note_on_c, 3, 82, 59
8, 485829, Note_on_c, 3, 86, 0
8, 486246, Note_on_c, 3, 79, 73
8, 486295, Note_on_c, 3, 82, 0
8, 487080, Note_on_c, 3, 79, 0
8, 487222, Note_on_c, 3, 86, 60
8, 487620, Note_on_c, 3, 89, 73
8, 487684, Note_on_c, 3, 86, 0
8, 487684, Note_on_c, 3, 84, 62
8, 487739, Note_on_c, 3, 89, 0
8, 488100, Note_on_c, 3, 86, 77
8, 488146, Note_on_c, 3, 84, 0
8, 488160, Note_on_c, 3, 82, 66
8, 488215, Control_c, 3, 11, 127
8, 488219, Note_on_c, 3, 86, 0
8, 488266, Control_c, 3, 11, 126
8, 488343, Control_c, 3, 11, 122
8, 488401, Control_c, 3, 11, 120
8, 488426, Control_c, 3, 11, 117
8, 488484, Control_c, 3, 11, 116
8, 488554, Control_c, 3, 11, 112
8, 488631, Control_c, 3, 11, 108
8, 488663, Note_on_c, 3, 79, 65
8, 488688, Note_on_c, 3, 82, 0
8, 488702, Control_c, 3, 11, 104
8, 488759, Control_c, 3, 11, 101
8, 488836, Control_c, 3, 11, 97
8, 488874, Control_c, 3, 11, 94
8, 488932, Control_c, 3, 11, 90
8, 488977, Control_c, 3, 11, 87
8, 489015, Control_c, 3, 11, 85
8, 489073, Control_c, 3, 11, 82
8, 489118, Control_c, 3, 11, 78
8, 489169, Control_c, 3, 11, 77
8, 489214, Control_c, 3, 11, 73
8, 489258, Control_c, 3, 11, 70
8, 489322, Control_c, 3, 11, 68
8, 489348, Control_c, 3, 11, 66
8, 489380, Control_c, 3, 11, 64
8, 489406, Control_c, 3, 11, 63
8, 489412, Control_c, 3, 11, 61
8, 489444, Control_c, 3, 11, 60
8, 489476, Control_c, 3, 11, 59
8, 489502, Control_c, 3, 11, 57
8, 489534, Control_c, 3, 11, 54
8, 489578, Control_c, 3, 11, 51
8, 489604, Control_c, 3, 11, 50
8, 489623, Control_c, 3, 11, 48
8, 489636, Control_c, 3, 11, 47
8, 489662, Control_c, 3, 11, 46
8, 489687, Control_c, 3, 11, 44
8, 489719, Note_on_c, 3, 79, 0
8, 489726, Control_c, 3, 11, 43
8, 489758, Control_c, 3, 11, 40
8, 490016, Control_c, 3, 11, 127
8, 497299, Note_on_c, 3, 81, 89
8, 497376, Note_on_c, 3, 83, 88
8, 497414, Note_on_c, 3, 81, 0
8, 497439, Note_on_c, 3, 81, 84
8, 497491, Note_on_c, 3, 83, 0
8, 497514, Note_on_c, 3, 83, 86
8, 497554, Note_on_c, 3, 81, 0
8, 497606, Note_on_c, 3, 81, 90
8, 497629, Note_on_c, 3, 83, 0
8, 497682, Note_on_c, 3, 83, 85
8, 497721, Note_on_c, 3, 81, 0
8, 497770, Note_on_c, 3, 81, 90
8, 497797, Note_on_c, 3, 83, 0
8, 497827, Note_on_c, 3, 83, 85
8, 497885, Note_on_c, 3, 81, 0
8, 497908, Note_on_c, 3, 81, 82
8, 497942, Note_on_c, 3, 83, 0
8, 497989, Note_on_c, 3, 83, 94
8, 498023, Note_on_c, 3, 81, 0
8, 498074, Note_on_c, 3, 81, 87
8, 498104, Note_on_c, 3, 83, 0
8, 498153, Note_on_c, 3, 83, 89
8, 498189, Note_on_c, 3, 81, 0
8, 498228, Note_on_c, 3, 81, 80
8, 498268, Note_on_c, 3, 83, 0
8, 498309, Note_on_c, 3, 83, 86
8, 498343, Note_on_c, 3, 81, 0
8, 498382, Note_on_c, 3, 81, 83
8, 498424, Note_on_c, 3, 83, 0
8, 498471, Note_on_c, 3, 83, 89
8, 498497, Note_on_c, 3, 81, 0
8, 498545, Note_on_c, 3, 81, 98
8, 498586, Note_on_c, 3, 83, 0
8, 498603, Note_on_c, 3, 83, 82
8, 498660, Note_on_c, 3, 81, 0
8, 498697, Note_on_c, 3, 81, 98
8, 498718, Note_on_c, 3, 83, 0
8, 498759, Note_on_c, 3, 83, 90
8, 498812, Note_on_c, 3, 81, 0
8, 498853, Note_on_c, 3, 81, 78
8, 498874, Note_on_c, 3, 83, 0
8, 498922, Note_on_c, 3, 83, 80
8, 498968, Note_on_c, 3, 81, 0
8, 499005, Note_on_c, 3, 81, 93
8, 499037, Note_on_c, 3, 83, 0
8, 499087, Note_on_c, 3, 83, 92
8, 499120, Note_on_c, 3, 81, 0
8, 499159, Note_on_c, 3, 81, 82
8, 499202, Note_on_c, 3, 83, 0
8, 499235, Note_on_c, 3, 83, 88
8, 499274, Note_on_c, 3, 81, 0
8, 499308, Note_on_c, 3, 81, 97
8, 499350, Note_on_c, 3, 83, 0
8, 499391, Note_on_c, 3, 83, 94
8, 499423, Note_on_c, 3, 81, 0
8, 499473, Note_on_c, 3, 81, 92
8, 499506, Note_on_c, 3, 83, 0
8, 499550, Note_on_c, 3, 83, 94
8, 499588, Note_on_c, 3, 81, 0
8, 499619, Note_on_c, 3, 81, 95
8, 499665, Note_on_c, 3, 83, 0
8, 499698, Note_on_c, 3, 83, 83
8, 499734, Note_on_c, 3, 81, 0
8, 499772, Note_on_c, 3, 81, 98
8, 499813, Note_on_c, 3, 83, 0
8, 499855, Note_on_c, 3, 83, 91
8, 499887, Note_on_c, 3, 81, 0
8, 499936, Note_on_c, 3, 81, 78
8, 499970, Note_on_c, 3, 83, 0
8, 500004, Note_on_c, 3, 83, 79
8, 500051, Note_on_c, 3, 81, 0
8, 500101, Note_on_c, 3, 81, 98
8, 500119, Note_on_c, 3, 83, 0
8, 500166, Note_on_c, 3, 83, 81
8, 500216, Note_on_c, 3, 81, 0
8, 500248, Note_on_c, 3, 81, 94
8, 500281, Note_on_c, 3, 83, 0
8, 500332, Note_on_c, 3, 83, 98
8, 500363, Note_on_c, 3, 81, 0
8, 500410, Note_on_c, 3, 81, 90
8, 500447, Note_on_c, 3, 83, 0
8, 500490, Note_on_c, 3, 83, 91
8, 500525, Note_on_c, 3, 81, 0
8, 500551, Note_on_c, 3, 81, 94
8, 500605, Note_on_c, 3, 83, 0
8, 500666, Note_on_c, 3, 81, 0
8, 503539, Note_on_c, 3, 81, 94
8, 503618, Note_on_c, 3, 83, 82
8, 503656, Note_on_c, 3, 81, 0
8, 503699, Note_on_c, 3, 81, 84
8, 503736, Note_on_c, 3, 83, 0
8, 503768, Note_on_c, 3, 83, 84
8, 503816, Note_on_c, 3, 81, 0
8, 503843, Note_on_c, 3, 81, 79
8, 503886, Note_on_c, 3, 83, 0
8, 503924, Note_on_c, 3, 83, 93
8, 503960, Note_on_c, 3, 81, 0
8, 504017, Note_on_c, 3, 81, 85
8, 504042, Note_on_c, 3, 83, 0
8, 504094, Note_on_c, 3, 83, 97
8, 504134, Note_on_c, 3, 81, 0
8, 504170, Note_on_c, 3, 81, 93
8, 504212, Note_on_c, 3, 83, 0
8, 504246, Note_on_c, 3, 83, 97
8, 504287, Note_on_c, 3, 81, 0
8, 504314, Note_on_c, 3, 81, 89
8, 504364, Note_on_c, 3, 83, 0
8, 504392, Note_on_c, 3, 83, 96
8, 504431, Note_on_c, 3, 81, 0
8, 504470, Note_on_c, 3, 81, 90
8, 504510, Note_on_c, 3, 83, 0
8, 504549, Note_on_c, 3, 83, 79
8, 504587, Note_on_c, 3, 81, 0
8, 504629, Note_on_c, 3, 81, 92
8, 504667, Note_on_c, 3, 83, 0
8, 504715, Note_on_c, 3, 83, 93
8, 504746, Note_on_c, 3, 81, 0
8, 504784, Note_on_c, 3, 81, 97
8, 504833, Note_on_c, 3, 83, 0
8, 504862, Note_on_c, 3, 83, 87
8, 504901, Note_on_c, 3, 81, 0
8, 504938, Note_on_c, 3, 81, 79
8, 504980, Note_on_c, 3, 83, 0
8, 505022, Note_on_c, 3, 83, 85
8, 505055, Note_on_c, 3, 81, 0
8, 505116, Note_on_c, 3, 81, 85
8, 505140, Note_on_c, 3, 83, 0
8, 505178, Note_on_c, 3, 83, 97
8, 505233, Note_on_c, 3, 81, 0
8, 505270, Note_on_c, 3, 81, 80
8, 505296, Note_on_c, 3, 83, 0
8, 505348, Note_on_c, 3, 83, 81
8, 505387, Note_on_c, 3, 81, 0
8, 505423, Note_on_c, 3, 81, 78
8, 505466, Note_on_c, 3, 83, 0
8, 505505, Note_on_c, 3, 83, 86
8, 505540, Note_on_c, 3, 81, 0
8, 505569, Note_on_c, 3, 81, 95
8, 505623, Note_on_c, 3, 83, 0
8, 505658, Note_on_c, 3, 83, 78
8, 505686, Note_on_c, 3, 81, 0
8, 505742, Note_on_c, 3, 81, 80
8, 505776, Note_on_c, 3, 83, 0
8, 505806, Note_on_c, 3, 83, 88
8, 505859, Note_on_c, 3, 81, 0
8, 505906, Note_on_c, 3, 81, 86
8, 505924, Note_on_c, 3, 83, 0
8, 505968, Note_on_c, 3, 83, 93
8, 506023, Note_on_c, 3, 81, 0
8, 506048, Note_on_c, 3, 81, 79
8, 506086, Note_on_c, 3, 83, 0
8, 506120, Note_on_c, 3, 83, 94
8, 506165, Note_on_c, 3, 81, 0
8, 506205, Note_on_c, 3, 81, 81
8, 506238, Note_on_c, 3, 83, 0
8, 506280, Note_on_c, 3, 83, 81
8, 506322, Note_on_c, 3, 81, 0
8, 506359, Note_on_c, 3, 81, 81
8, 506398, Note_on_c, 3, 83, 0
8, 506443, Note_on_c, 3, 83, 83
8, 506476, Note_on_c, 3, 81, 0
8, 506515, Note_on_c, 3, 81, 88
8, 506561, Note_on_c, 3, 83, 0
8, 506606, Note_on_c, 3, 83, 84
8, 506632, Note_on_c, 3, 81, 0
8, 506685, Note_on_c, 3, 81, 90
8, 506724, Note_on_c, 3, 83, 0
8, 506754, Note_on_c, 3, 83, 91
8, 506802, Note_on_c, 3, 81, 0
8, 506830, Note_on_c, 3, 81, 90
8, 506872, Note_on_c, 3, 83, 0
8, 506910, Note_on_c, 3, 83, 94
8, 506947, Note_on_c, 3, 81, 0
8, 507002, Note_on_c, 3, 81, 89
8, 507028, Note_on_c, 3, 83, 0
8, 507088, Note_on_c, 3, 83, 87
8, 507119, Note_on_c, 3, 81, 0
8, 507150, Note_on_c, 3, 81, 97
8, 507206, Note_on_c, 3, 83, 0
8, 507221, Note_on_c, 3, 83, 82
8, 507267, Note_on_c, 3, 81, 0
8, 507303, Note_on_c, 3, 81, 82
8, 507339, Note_on_c, 3, 83, 0
8, 507390, Note_on_c, 3, 83, 88
8, 507420, Note_on_c, 3, 81, 0
8, 507461, Note_on_c, 3, 81, 89
8, 507508, Note_on_c, 3, 83, 0
8, 507558, Note_on_c, 3, 83, 79
8, 507578, Note_on_c, 3, 81, 0
8, 507622, Note_on_c, 3, 81, 83
8, 507676, Note_on_c, 3, 83, 0
8, 507693, Note_on_c, 3, 83, 86
8, 507739, Note_on_c, 3, 81, 0
8, 507780, Note_on_c, 3, 81, 83
8, 507811, Note_on_c, 3, 83, 0
8, 507876, Note_on_c, 3, 83, 97
8, 507897, Note_on_c, 3, 81, 0
8, 507937, Note_on_c, 3, 81, 86
8, 507994, Note_on_c, 3, 83, 0
8, 508026, Note_on_c, 3, 83, 87
8, 508054, Note_on_c, 3, 81, 0
8, 508112, Note_on_c, 3, 81, 98
8, 508144, Note_on_c, 3, 83, 0
8, 508186, Note_on_c, 3, 83, 79
8, 508229, Note_on_c, 3, 81, 0
8, 508256, Note_on_c, 3, 81, 88
8, 508304, Note_on_c, 3, 83, 0
8, 508333, Note_on_c, 3, 83, 92
8, 508373, Note_on_c, 3, 81, 0
8, 508414, Note_on_c, 3, 81, 87
8, 508451, Note_on_c, 3, 83, 0
8, 508491, Note_on_c, 3, 83, 81
8, 508531, Note_on_c, 3, 81, 0
8, 508578, Note_on_c, 3, 81, 88
8, 508609, Note_on_c, 3, 83, 0
8, 508662, Note_on_c, 3, 83, 80
8, 508695, Note_on_c, 3, 81, 0
8, 508719, Note_on_c, 3, 81, 98
8, 508780, Note_on_c, 3, 83, 0
8, 508836, Note_on_c, 3, 81, 0
8, 522022, Note_on_c, 3, 82, 83
8, 522142, Note_on_c, 3, 82, 0
8, 522265, Note_on_c, 3, 80, 85
8, 522385, Note_on_c, 3, 80, 0
8, 522500, Note_on_c, 3, 82, 94
8, 522620, Note_on_c, 3, 82, 0
8, 522737, Note_on_c, 3, 80, 79
8, 522857, Note_on_c, 3, 80, 0
8, 522975, Note_on_c, 3, 78, 80
8, 523095, Note_on_c, 3, 78, 0
8, 523206, Note_on_c, 3, 77, 87
8, 523326, Note_on_c, 3, 77, 0
8, 523464, Note_on_c, 3, 78, 91
8, 523584, Note_on_c, 3, 78, 0
8, 523680, Note_on_c, 3, 75, 78
8, 523800, Note_on_c, 3, 75, 0
8, 523927, Note_on_c, 3, 77, 84
8, 524047, Note_on_c, 3, 77, 0
8, 524176, Note_on_c, 3, 78, 81
8, 524296, Note_on_c, 3, 78, 0
8, 524401, Note_on_c, 3, 80, 96
8, 524521, Note_on_c, 3, 80, 0
8, 524650, Note_on_c, 3, 82, 88
8, 524770, Note_on_c, 3, 82, 0
8, 528243, Note_on_c, 3, 82, 97
8, 528363, Note_on_c, 3, 82, 0
8, 528504, Note_on_c, 3, 80, 90
8, 528624, Note_on_c, 3, 80, 0
8, 528741, Note_on_c, 3, 82, 93
8, 528861, Note_on_c, 3, 82, 0
8, 528969, Note_on_c, 3, 80, 81
8, 529089, Note_on_c, 3, 80, 0
8, 529222, Note_on_c, 3, 78, 86
8, 529342, Note_on_c, 3, 78, 0
8, 529459, Note_on_c, 3, 77, 95
8, 529579, Note_on_c, 3, 77, 0
8, 529697, Note_on_c, 3, 78, 89
8, 529817, Note_on_c, 3, 78, 0
8, 529923, Note_on_c, 3, 75, 82
8, 530043, Note_on_c, 3, 75, 0
8, 530183, Note_on_c, 3, 75, 93
8, 530303, Note_on_c, 3, 75, 0
8, 530404, Note_on_c, 3, 75, 88
8, 530524, Note_on_c, 3, 75, 0
8, 530662, Note_on_c, 3, 77, 88
8, 530782, Note_on_c, 3, 77, 0
8, 530883, Note_on_c, 3, 78, 82
8, 531003, Note_on_c, 3, 78, 0
8, 531127, Note_on_c, 3, 80, 93
8, 531247, Note_on_c, 3, 80, 0
8, 531380, Note_on_c, 3, 82, 93
8, 531500, Note_on_c, 3, 82, 0
8, 531855, Note_on_c, 3, 87, 72
8, 532095, Note_on_c, 3, 87, 0
8, 532095, Note_on_c, 3, 88, 64
8, 532324, Note_on_c, 3, 90, 67
8, 532335, Note_on_c, 3, 88, 0
8, 533044, Note_on_c, 3, 90, 0
8, 533065, Note_on_c, 3, 88, 54
8, 533291, Note_on_c, 3, 87, 61
8, 533305, Note_on_c, 3, 88, 0
8, 533527, Note_on_c, 3, 85, 72
8, 533531, Note_on_c, 3, 87, 0
8, 533767, Note_on_c, 3, 85, 0
8, 533779, Note_on_c, 3, 83, 52
8, 534009, Note_on_c, 3, 85, 54
8, 534019, Note_on_c, 3, 83, 0
8, 534249, Note_on_c, 3, 85, 0
8, 534258, Note_on_c, 3, 86, 53
8, 534966, Note_on_c, 3, 84, 53
8, 534978, Note_on_c, 3, 86, 0
8, 535202, Note_on_c, 3, 83, 55
8, 535206, Note_on_c, 3, 84, 0
8, 535442, Note_on_c, 3, 83, 0
8, 535451, Note_on_c, 3, 81, 56
8, 535684, Note_on_c, 3, 87, 67
8, 535691, Note_on_c, 3, 81, 0
8, 535923, Note_on_c, 3, 88, 54
8, 535924, Note_on_c, 3, 87, 0
8, 536163, Note_on_c, 3, 88, 0
8, 536168, Note_on_c, 3, 90, 55
8, 536481, Note_on_c, 3, 88, 68
8, 536488, Note_on_c, 3, 90, 0
8, 536800, Note_on_c, 3, 88, 0
8, 536800, Note_on_c, 3, 87, 61
8, 537120, Note_on_c, 3, 87, 0
8, 537143, Note_on_c, 3, 85, 65
8, 537623, Note_on_c, 3, 85, 0
8, 552500, Note_on_c, 3, 76, 97
8, 552722, Note_on_c, 3, 77, 89
8, 552740, Note_on_c, 3, 76, 0
8, 552962, Note_on_c, 3, 77, 0
8, 552962, Note_on_c, 3, 78, 86
8, 553682, Note_on_c, 3, 78, 0
8, 553684, Note_on_c, 3, 77, 95
8, 553924, Note_on_c, 3, 77, 0
8, 553942, Note_on_c, 3, 76, 79
8, 554173, Note_on_c, 3, 74, 93
8, 554182, Note_on_c, 3, 76, 0
8, 554410, Note_on_c, 3, 76, 87
8, 554413, Note_on_c, 3, 74, 0
8, 554650, Note_on_c, 3, 76, 0
8, 554653, Note_on_c, 3, 77, 83
8, 554887, Note_on_c, 3, 79, 80
8, 554893, Note_on_c, 3, 77, 0
8, 555367, Note_on_c, 3, 79, 0
8, 555377, Note_on_c, 3, 77, 84
8, 555617, Note_on_c, 3, 77, 0
8, 555621, Note_on_c, 3, 76, 95
8, 555857, Note_on_c, 3, 74, 98
8, 555861, Note_on_c, 3, 76, 0
8, 556337, Note_on_c, 3, 74, 0
8, 556339, Note_on_c, 3, 76, 92
8, 556579, Note_on_c, 3, 76, 0
8, 556579, Note_on_c, 3, 77, 95
8, 556819, Note_on_c, 3, 77, 0
8, 556821, Note_on_c, 3, 79, 90
8, 557301, Note_on_c, 3, 79, 0
8, 557305, Note_on_c, 3, 76, 89
8, 557539, Note_on_c, 3, 77, 95
8, 557545, Note_on_c, 3, 76, 0
8, 557779, Note_on_c, 3, 77, 0
8, 557785, Note_on_c, 3, 79, 79
8, 558487, Note_on_c, 3, 77, 91
8, 558505, Note_on_c, 3, 79, 0
8, 558727, Note_on_c, 3, 77, 0
8, 558741, Note_on_c, 3, 76, 88
8, 558981, Note_on_c, 3, 76, 0
8, 558984, Note_on_c, 3, 74, 84
8, 559209, Note_on_c, 3, 76, 85
8, 559224, Note_on_c, 3, 74, 0
8, 559449, Note_on_c, 3, 76, 0
8, 559455, Note_on_c, 3, 77, 81
8, 559683, Note_on_c, 3, 79, 83
8, 559695, Note_on_c, 3, 77, 0
8, 560403, Note_on_c, 3, 79, 0
8, 560417, Note_on_c, 3, 77, 80
8, 560653, Note_on_c, 3, 76, 97
8, 560657, Note_on_c, 3, 77, 0
8, 560893, Note_on_c, 3, 76, 0
8, 560904, Note_on_c, 3, 74, 88
8, 561137, Note_on_c, 3, 76, 82
8, 561144, Note_on_c, 3, 74, 0
8, 561360, Note_on_c, 3, 77, 85
8, 561377, Note_on_c, 3, 76, 0
8, 561600, Note_on_c, 3, 77, 0
8, 561601, Note_on_c, 3, 79, 90
8, 561841, Note_on_c, 3, 79, 0
8, 571700, Note_on_c, 3, 87, 105
8, 572900, Note_on_c, 3, 87, 0
8, 574583, Note_on_c, 3, 87, 111
8, 575783, Note_on_c, 3, 87, 0
8, 576010, Note_on_c, 3, 81, 107
8, 576153, Note_on_c, 3, 81, 0
8, 576499, Note_on_c, 3, 84, 113
8, 576642, Note_on_c, 3, 84, 0
8, 576981, Note_on_c, 3, 81, 106
8, 577124, Note_on_c, 3, 81, 0
8, 579365, Note_on_c, 3, 84, 96
8, 579508, Note_on_c, 3, 84, 0
8, 579850, Note_on_c, 3, 81, 113
8, 579993, Note_on_c, 3, 81, 0
8, 590405, Note_on_c, 3, 89, 109
8, 590494, Note_on_c, 3, 91, 106
8, 590520, Note_on_c, 3, 89, 0
8, 590568, Note_on_c, 3, 89, 109
8, 590609, Note_on_c, 3, 91, 0
8, 590646, Note_on_c, 3, 91, 94
8, 590683, Note_on_c, 3, 89, 0
8, 590713, Note_on_c, 3, 89, 109
8, 590761, Note_on_c, 3, 91, 0
8, 590788, Note_on_c, 3, 91, 109
8, 590828, Note_on_c, 3, 89, 0
8, 590888, Note_on_c, 3, 89, 109
8, 590903, Note_on_c, 3, 91, 0
8, 590963, Note_on_c, 3, 91, 104
8, 591003, Note_on_c, 3, 89, 0
8, 591037, Note_on_c, 3, 89, 97
8, 591078, Note_on_c, 3, 91, 0
8, 591112, Note_on_c, 3, 91, 105
8, 591152, Note_on_c, 3, 89, 0
8, 591200, Note_on_c, 3, 89, 92
8, 591227, Note_on_c, 3, 91, 0
8, 591273, Note_on_c, 3, 91, 94
8, 591315, Note_on_c, 3, 89, 0
8, 591341, Note_on_c, 3, 89, 99
8, 591388, Note_on_c, 3, 91, 0
8, 591434, Note_on_c, 3, 91, 100
8, 591456, Note_on_c, 3, 89, 0
8, 591512, Note_on_c, 3, 89, 109
8, 591549, Note_on_c, 3, 91, 0
8, 591577, Note_on_c, 3, 91, 109
8, 591627, Note_on_c, 3, 89, 0
8, 591649, Note_on_c, 3, 89, 97
8, 591692, Note_on_c, 3, 91, 0
8, 591744, Note_on_c, 3, 91, 97
8, 591764, Note_on_c, 3, 89, 0
8, 591800, Note_on_c, 3, 89, 95
8, 591859, Note_on_c, 3, 91, 0
8, 591887, Note_on_c, 3, 91, 109
8, 591915, Note_on_c, 3, 89, 0
8, 591975, Note_on_c, 3, 89, 111
8, 592002, Note_on_c, 3, 91, 0
8, 592058, Note_on_c, 3, 91, 96
8, 592090, Note_on_c, 3, 89, 0
8, 592131, Note_on_c, 3, 89, 100
8, 592173, Note_on_c, 3, 91, 0
8, 592213, Note_on_c, 3, 91, 102
8, 592246, Note_on_c, 3, 89, 0
8, 592269, Note_on_c, 3, 89, 105
8, 592328, Note_on_c, 3, 91, 0
8, 592349, Note_on_c, 3, 91, 102
8, 592384, Note_on_c, 3, 89, 0
8, 592443, Note_on_c, 3, 89, 110
8, 592464, Note_on_c, 3, 91, 0
8, 592516, Note_on_c, 3, 91, 106
8, 592558, Note_on_c, 3, 89, 0
8, 592578, Note_on_c, 3, 89, 94
8, 592631, Note_on_c, 3, 91, 0
8, 592662, Note_on_c, 3, 91, 98
8, 592693, Note_on_c, 3, 89, 0
8, 592734, Note_on_c, 3, 89, 110
8, 592777, Note_on_c, 3, 91, 0
8, 592836, Note_on_c, 3, 91, 95
8, 592849, Note_on_c, 3, 89, 0
8, 592908, Note_on_c, 3, 89, 92
8, 592951, Note_on_c, 3, 91, 0
8, 592968, Note_on_c, 3, 91, 97
8, 593023, Note_on_c, 3, 89, 0
8, 593059, Note_on_c, 3, 89, 94
8, 593083, Note_on_c, 3, 91, 0
8, 593129, Note_on_c, 3, 91, 97
8, 593174, Note_on_c, 3, 89, 0
8, 593215, Note_on_c, 3, 89, 91
8, 593244, Note_on_c, 3, 91, 0
8, 593288, Note_on_c, 3, 91, 99
8, 593330, Note_on_c, 3, 89, 0
8, 593380, Note_on_c, 3, 89, 98
8, 593403, Note_on_c, 3, 91, 0
8, 593457, Note_on_c, 3, 91, 92
8, 593495, Note_on_c, 3, 89, 0
8, 593535, Note_on_c, 3, 89, 96
8, 593572, Note_on_c, 3, 91, 0
8, 593590, Note_on_c, 3, 91, 108
8, 593650, Note_on_c, 3, 89, 0
8, 593668, Note_on_c, 3, 89, 99
8, 593705, Note_on_c, 3, 91, 0
8, 593768, Note_on_c, 3, 89, 0
8, 593785, Note_on_c, 3, 89, 108
8, 593976, Note_on_c, 3, 89, 0
8, 594249, Note_on_c, 3, 83, 109
8, 594369, Note_on_c, 3, 83, 0
8, 594487, Note_on_c, 3, 86, 124
8, 594607, Note_on_c, 3, 86, 0
8, 594734, Note_on_c, 3, 86, 114
8, 594854, Note_on_c, 3, 86, 0
8, 594962, Note_on_c, 3, 88, 111
8, 595082, Note_on_c, 3, 88, 0
8, 595208, Note_on_c, 3, 86, 119
8, 595328, Note_on_c, 3, 86, 0
8, 595445, Note_on_c, 3, 89, 109
8, 595565, Note_on_c, 3, 89, 0
8, 595685, Note_on_c, 3, 86, 109
8, 595805, Note_on_c, 3, 86, 0
8, 595936, Note_on_c, 3, 89, 114
8, 596056, Note_on_c, 3, 89, 0
8, 596160, Note_on_c, 3, 84, 115
8, 596520, Note_on_c, 3, 84, 0
8, 596654, Note_on_c, 3, 86, 110
8, 596774, Note_on_c, 3, 86, 0
8, 596899, Note_on_c, 3, 89, 106
8, 597019, Note_on_c, 3, 89, 0
8, 597136, Note_on_c, 3, 86, 115
8, 597256, Note_on_c, 3, 86, 0
8, 597382, Note_on_c, 3, 89, 123
8, 597502, Note_on_c, 3, 89, 0
8, 597605, Note_on_c, 3, 84, 119
8, 597965, Note_on_c, 3, 84, 0
8, 598098, Note_on_c, 3, 84, 105
8, 598241, Note_on_c, 3, 84, 0
8, 598578, Note_on_c, 3, 83, 104
8, 598698, Note_on_c, 3, 83, 0
8, 598815, Note_on_c, 3, 86, 111
8, 598935, Note_on_c, 3, 86, 0
8, 599046, Note_on_c, 3, 86, 108
8, 599166, Note_on_c, 3, 86, 0
8, 599286, Note_on_c, 3, 89, 111
8, 599406, Note_on_c, 3, 89, 0
8, 599543, Note_on_c, 3, 86, 105
8, 599663, Note_on_c, 3, 86, 0
8, 599764, Note_on_c, 3, 89, 118
8, 599884, Note_on_c, 3, 89, 0
8, 600007, Note_on_c, 3, 86, 123
8, 600127, Note_on_c, 3, 86, 0
8, 600259, Note_on_c, 3, 89, 110
8, 600379, Note_on_c, 3, 89, 0
8, 600497, Note_on_c, 3, 89, 117
8, 600617, Note_on_c, 3, 89, 0
8, 600741, Note_on_c, 3, 86, 107
8, 600861, Note_on_c, 3, 86, 0
8, 600975, Note_on_c, 3, 84, 123
8, 601095, Note_on_c, 3, 84, 0
8, 601202, Note_on_c, 3, 83, 121
8, 601322, Note_on_c, 3, 83, 0
8, 601457, Note_on_c, 3, 84, 114
8, 601532, Note_on_c, 3, 86, 124
8, 601572, Note_on_c, 3, 84, 0
8, 601597, Note_on_c, 3, 84, 107
8, 601647, Note_on_c, 3, 86, 0
8, 601691, Note_on_c, 3, 86, 104
8, 601712, Note_on_c, 3, 84, 0
8, 601774, Note_on_c, 3, 84, 112
8, 601806, Note_on_c, 3, 86, 0
8, 601836, Note_on_c, 3, 86, 112
8, 601889, Note_on_c, 3, 84, 0
8, 601911, Note_on_c, 3, 84, 118
8, 601951, Note_on_c, 3, 86, 0
8, 602009, Note_on_c, 3, 86, 105
8, 602026, Note_on_c, 3, 84, 0
8, 602082, Note_on_c, 3, 84, 104
8, 602124, Note_on_c, 3, 86, 0
8, 602157, Note_on_c, 3, 86, 117
8, 602197, Note_on_c, 3, 84, 0
8, 602229, Note_on_c, 3, 84, 122
8, 602272, Note_on_c, 3, 86, 0
8, 602307, Note_on_c, 3, 86, 118
8, 602344, Note_on_c, 3, 84, 0
8, 602380, Note_on_c, 3, 84, 120
8, 602422, Note_on_c, 3, 86, 0
8, 602455, Note_on_c, 3, 86, 105
8, 602495, Note_on_c, 3, 84, 0
8, 602546, Note_on_c, 3, 84, 115
8, 602570, Note_on_c, 3, 86, 0
8, 602628, Note_on_c, 3, 86, 105
8, 602661, Note_on_c, 3, 84, 0
8, 602697, Note_on_c, 3, 84, 104
8, 602743, Note_on_c, 3, 86, 0
8, 602772, Note_on_c, 3, 86, 105
8, 602812, Note_on_c, 3, 84, 0
8, 602846, Note_on_c, 3, 84, 116
8, 602887, Note_on_c, 3, 86, 0
8, 602921, Note_on_c, 3, 86, 120
8, 602961, Note_on_c, 3, 84, 0
8, 602999, Note_on_c, 3, 84, 120
8, 603036, Note_on_c, 3, 86, 0
8, 603076, Note_on_c, 3, 86, 104
8, 603114, Note_on_c, 3, 84, 0
8, 603159, Note_on_c, 3, 84, 114
8, 603191, Note_on_c, 3, 86, 0
8, 603244, Note_on_c, 3, 86, 119
8, 603274, Note_on_c, 3, 84, 0
8, 603318, Note_on_c, 3, 84, 109
8, 603359, Note_on_c, 3, 86, 0
8, 603387, Note_on_c, 3, 86, 118
8, 603433, Note_on_c, 3, 84, 0
8, 603469, Note_on_c, 3, 84, 114
8, 603502, Note_on_c, 3, 86, 0
8, 603556, Note_on_c, 3, 86, 110
8, 603584, Note_on_c, 3, 84, 0
8, 603625, Note_on_c, 3, 84, 124
8, 603671, Note_on_c, 3, 86, 0
8, 603712, Note_on_c, 3, 86, 108
8, 603740, Note_on_c, 3, 84, 0
8, 603774, Note_on_c, 3, 84, 112
8, 603827, Note_on_c, 3, 86, 0
8, 603868, Note_on_c, 3, 86, 112
8, 603889, Note_on_c, 3, 84, 0
8, 603939, Note_on_c, 3, 84, 110
8, 603983, Note_on_c, 3, 86, 0
8, 604026, Note_on_c, 3, 86, 124
8, 604054, Note_on_c, 3, 84, 0
8, 604099, Note_on_c, 3, 84, 109
8, 604141, Note_on_c, 3, 86, 0
8, 604184, Note_on_c, 3, 86, 124
8, 604214, Note_on_c, 3, 84, 0
8, 604248, Note_on_c, 3, 84, 104
8, 604299, Note_on_c, 3, 86, 0
8, 604360, Note_on_c, 3, 84, 0
8, 610085, Note_on_c, 3, 79, 98
8, 610805, Note_on_c, 3, 79, 0
8, 610824, Note_on_c, 3, 77, 80
8, 611049, Note_on_c, 3, 76, 89
8, 611064, Note_on_c, 3, 77, 0
8, 611284, Note_on_c, 3, 74, 78
8, 611289, Note_on_c, 3, 76, 0
8, 611524, Note_on_c, 3, 74, 0
8, 611527, Note_on_c, 3, 76, 94
8, 611767, Note_on_c, 3, 76, 0
8, 611774, Note_on_c, 3, 77, 92
8, 612004, Note_on_c, 3, 79, 86
8, 612014, Note_on_c, 3, 77, 0
8, 612484, Note_on_c, 3, 79, 0
8, 612493, Note_on_c, 3, 77, 98
8, 612733, Note_on_c, 3, 77, 0
8, 612737, Note_on_c, 3, 76, 88
8, 612960, Note_on_c, 3, 74, 85
8, 612977, Note_on_c, 3, 76, 0
8, 613440, Note_on_c, 3, 74, 0
8, 613451, Note_on_c, 3, 76, 86
8, 613691, Note_on_c, 3, 76, 0
8, 613700, Note_on_c, 3, 77, 90
8, 613940, Note_on_c, 3, 77, 0
8, 613945, Note_on_c, 3, 79, 91
8, 614654, Note_on_c, 3, 77, 82
8, 614665, Note_on_c, 3, 79, 0
8, 614884, Note_on_c, 3, 76, 89
8, 614894, Note_on_c, 3, 77, 0
8, 615124, Note_on_c, 3, 76, 0
8, 615143, Note_on_c, 3, 74, 96
8, 615383, Note_on_c, 3, 74, 0
8, 615384, Note_on_c, 3, 76, 91
8, 615617, Note_on_c, 3, 77, 82
8, 615624, Note_on_c, 3, 76, 0
8, 615857, Note_on_c, 3, 77, 0
8, 615858, Note_on_c, 3, 79, 85
8, 616338, Note_on_c, 3, 79, 0
8, 616340, Note_on_c, 3, 77, 84
8, 616564, Note_on_c, 3, 76, 88
8, 616580, Note_on_c, 3, 77, 0
8, 616804, Note_on_c, 3, 76, 0
8, 616825, Note_on_c, 3, 74, 94
8, 617288, Note_on_c, 3, 76, 83
8, 617305, Note_on_c, 3, 74, 0
8, 617520, Note_on_c, 3, 77, 82
8, 617528, Note_on_c, 3, 76, 0
8, 617760, Note_on_c, 3, 77, 0
8, 617768, Note_on_c, 3, 79, 79
8, 618248, Note_on_c, 3, 79, 0
8, 618254, Note_on_c, 3, 77, 85
8, 618480, Note_on_c, 3, 76, 89
8, 618494, Note_on_c, 3, 77, 0
8, 618720, Note_on_c, 3, 76, 0
8, 618728, Note_on_c, 3, 74, 96
8, 619208, Note_on_c, 3, 74, 0
8, 619222, Note_on_c, 3, 76, 90
8, 619448, Note_on_c, 3, 77, 78
8, 619462, Note_on_c, 3, 76, 0
8, 619688, Note_on_c, 3, 77, 0
8, 619697, Note_on_c, 3, 79, 92
8, 620406, Note_on_c, 3, 77, 92
8, 620417, Note_on_c, 3, 79, 0
8, 620646, Note_on_c, 3, 77, 0
8, 620657, Note_on_c, 3, 76, 96
8, 620894, Note_on_c, 3, 74, 92
8, 620897, Note_on_c, 3, 76, 0
8, 621134, Note_on_c, 3, 74, 0
8, 621141, Note_on_c, 3, 76, 97
8, 621381, Note_on_c, 3, 76, 0
8, 621384, Note_on_c, 3, 77, 89
8, 621613, Note_on_c, 3, 79, 92
8, 621624, Note_on_c, 3, 77, 0
8, 622093, Note_on_c, 3, 79, 0
8, 622097, Note_on_c, 3, 77, 88
8, 622325, Note_on_c, 3, 76, 88
8, 622337, Note_on_c, 3, 77, 0
8, 622561, Note_on_c, 3, 74, 92
8, 622565, Note_on_c, 3, 76, 0
8, 622801, Note_on_c, 3, 74, 0
8, 623199, Note_on_c, 3, 76, 106
8, 623220, Note_on_c, 3, 76, 0
8, 623253, Note_on_c, 3, 77, 101
8, 623274, Note_on_c, 3, 77, 0
8, 623306, Note_on_c, 3, 78, 116
8, 623326, Note_on_c, 3, 78, 0
8, 623359, Note_on_c, 3, 79, 106
8, 623375, Note_on_c, 3, 79, 0
8, 623400, Note_on_c, 3, 80, 120
8, 623415, Note_on_c, 3, 80, 0
8, 623439, Note_on_c, 3, 81, 110
8, 623455, Note_on_c, 3, 81, 0
8, 623479, Note_on_c, 3, 82, 116
8, 623495, Note_on_c, 3, 82, 0
8, 623520, Note_on_c, 3, 83, 116
8, 623567, Note_on_c, 3, 83, 0
8, 623679, Note_on_c, 3, 81, 118
8, 623727, Note_on_c, 3, 81, 0
8, 623840, Note_on_c, 3, 79, 124
8, 623887, Note_on_c, 3, 79, 0
8, 624000, Note_on_c, 3, 77, 121
8, 624047, Note_on_c, 3, 77, 0
8, 624159, Note_on_c, 3, 76, 126
8, 624207, Note_on_c, 3, 76, 0
8, 654251, Note_on_c, 3, 78, 127
8, 654491, Note_on_c, 3, 78, 0
8, 654738, Note_on_c, 3, 86, 125
8, 656171, Note_on_c, 3, 80, 114
8, 656178, Note_on_c, 3, 86, 0
8, 656411, Note_on_c, 3, 80, 0
8, 656646, Note_on_c, 3, 86, 127
8, 658085, Note_on_c, 3, 78, 117
8, 658086, Note_on_c, 3, 86, 0
8, 658325, Note_on_c, 3, 78, 0
8, 658582, Note_on_c, 3, 86, 127
8, 660011, Note_on_c, 3, 80, 120
8, 660022, Note_on_c, 3, 86, 0
8, 660251, Note_on_c, 3, 80, 0
8, 660498, Note_on_c, 3, 86, 119
8, 661935, Note_on_c, 3, 78, 127
8, 661938, Note_on_c, 3, 86, 0
8, 662175, Note_on_c, 3, 78, 0
8, 662413, Note_on_c, 3, 90, 127
8, 663844, Note_on_c, 3, 80, 123
8, 663853, Note_on_c, 3, 90, 0
8, 664084, Note_on_c, 3, 80, 0
8, 664329, Note_on_c, 3, 86, 125
8, 665768, Note_on_c, 3, 78, 127
8, 665769, Note_on_c, 3, 86, 0
8, 666008, Note_on_c, 3, 78, 0
8, 666258, Note_on_c, 3, 86, 127
8, 667698, Note_on_c, 3, 86, 0
8, 667698, Note_on_c, 3, 80, 121
8, 667938, Note_on_c, 3, 80, 0
8, 668174, Note_on_c, 3, 86, 122
8, 669601, Note_on_c, 3, 78, 122
8, 669614, Note_on_c, 3, 86, 0
8, 669841, Note_on_c, 3, 78, 0
8, 670081, Note_on_c, 3, 86, 120
8, 671521, Note_on_c, 3, 86, 0
8, 671543, Note_on_c, 3, 80, 115
8, 671783, Note_on_c, 3, 80, 0
8, 672022, Note_on_c, 3, 86, 127
8, 673461, Note_on_c, 3, 78, 127
8, 673462, Note_on_c, 3, 86, 0
8, 673701, Note_on_c, 3, 78, 0
8, 673924, Note_on_c, 3, 86, 127
8, 675364, Note_on_c, 3, 86, 0
8, 675368, Note_on_c, 3, 80, 120
8, 675608, Note_on_c, 3, 80, 0
8, 675859, Note_on_c, 3, 86, 127
8, 677299, Note_on_c, 3, 86, 0
8, 689303, Note_on_c, 3, 67, 94
8, 689360, Note_on_c, 3, 72, 110
8, 689371, Note_on_c, 3, 67, 0
8, 689422, Note_on_c, 3, 76, 94
8, 689428, Note_on_c, 3, 72, 0
8, 689490, Note_on_c, 3, 76, 0
8, 689493, Note_on_c, 3, 78, 100
8, 689561, Note_on_c, 3, 78, 0
8, 689572, Note_on_c, 3, 79, 95
8, 689628, Note_on_c, 3, 84, 100
8, 689640, Note_on_c, 3, 79, 0
8, 689696, Note_on_c, 3, 84, 0
8, 689696, Note_on_c, 3, 88, 92
8, 689764, Note_on_c, 3, 88, 0
8, 690243, Note_on_c, 3, 84, 98
8, 690603, Note_on_c, 3, 84, 0
8, 691204, Note_on_c, 3, 84, 112
8, 691564, Note_on_c, 3, 84, 0
8, 692419, Note_on_c, 3, 84, 104
8, 692659, Note_on_c, 3, 84, 0
8, 693124, Note_on_c, 3, 84, 102
8, 693484, Note_on_c, 3, 84, 0
8, 694099, Note_on_c, 3, 86, 114
8, 694459, Note_on_c, 3, 86, 0
8, 694564, Note_on_c, 3, 90, 106
8, 694679, Note_on_c, 3, 90, 0
8, 694757, Note_on_c, 3, 90, 99
8, 694872, Note_on_c, 3, 90, 0
8, 694951, Note_on_c, 3, 90, 102
8, 695066, Note_on_c, 3, 90, 0
8, 695149, Note_on_c, 3, 90, 107
8, 695263, Note_on_c, 3, 90, 0
8, 695351, Note_on_c, 3, 90, 112
8, 695466, Note_on_c, 3, 90, 0
8, 695531, Note_on_c, 3, 90, 102
8, 695611, Note_on_c, 3, 90, 0
8, 695698, Note_on_c, 3, 90, 103
8, 695779, Note_on_c, 3, 90, 0
8, 695856, Note_on_c, 3, 90, 112
8, 695936, Note_on_c, 3, 90, 0
8, 696011, Note_on_c, 3, 90, 115
8, 696371, Note_on_c, 3, 90, 0
8, 696499, Note_on_c, 3, 67, 100
8, 696553, Note_on_c, 3, 72, 104
8, 696567, Note_on_c, 3, 67, 0
8, 696621, Note_on_c, 3, 72, 0
8, 696629, Note_on_c, 3, 76, 97
8, 696697, Note_on_c, 3, 76, 0
8, 696706, Note_on_c, 3, 78, 103
8, 696756, Note_on_c, 3, 79, 115
8, 696774, Note_on_c, 3, 78, 0
8, 696824, Note_on_c, 3, 79, 0
8, 696829, Note_on_c, 3, 84, 96
8, 696897, Note_on_c, 3, 84, 0
8, 696903, Note_on_c, 3, 88, 105
8, 696971, Note_on_c, 3, 88, 0
8, 697451, Note_on_c, 3, 86, 112
8, 697811, Note_on_c, 3, 86, 0
8, 697934, Note_on_c, 3, 67, 101
8, 697998, Note_on_c, 3, 72, 114
8, 698002, Note_on_c, 3, 67, 0
8, 698066, Note_on_c, 3, 72, 0
8, 698069, Note_on_c, 3, 76, 112
8, 698129, Note_on_c, 3, 78, 104
8, 698137, Note_on_c, 3, 76, 0
8, 698197, Note_on_c, 3, 78, 0
8, 698209, Note_on_c, 3, 79, 104
8, 698263, Note_on_c, 3, 84, 102
8, 698277, Note_on_c, 3, 79, 0
8, 698331, Note_on_c, 3, 84, 0
8, 698356, Note_on_c, 3, 88, 96
8, 698424, Note_on_c, 3, 88, 0
8, 698889, Note_on_c, 3, 90, 113
8, 699009, Note_on_c, 3, 90, 0
8, 699123, Note_on_c, 3, 90, 98
8, 699243, Note_on_c, 3, 90, 0
8, 699362, Note_on_c, 3, 90, 95
8, 699722, Note_on_c, 3, 90, 0
8, 700345, Note_on_c, 3, 90, 101
8, 700705, Note_on_c, 3, 90, 0
8, 701305, Note_on_c, 3, 84, 96
8, 701665, Note_on_c, 3, 84, 0
8, 702018, Note_on_c, 3, 84, 113
8, 702258, Note_on_c, 3, 84, 0
8, 703205, Note_on_c, 3, 84, 111
8, 703565, Note_on_c, 3, 84, 0
8, 704176, Note_on_c, 3, 90, 108
8, 704536, Note_on_c, 3, 90, 0
8, 704641, Note_on_c, 3, 90, 106
8, 704761, Note_on_c, 3, 90, 0
8, 704896, Note_on_c, 3, 90, 104
8, 705016, Note_on_c, 3, 90, 0
8, 705123, Note_on_c, 3, 90, 107
8, 705483, Note_on_c, 3, 90, 0
8, 706104, Note_on_c, 3, 90, 95
8, 706184, Note_on_c, 3, 90, 0
8, 706244, Note_on_c, 3, 90, 96
8, 706325, Note_on_c, 3, 90, 0
8, 706413, Note_on_c, 3, 90, 112
8, 706493, Note_on_c, 3, 90, 0
8, 706569, Note_on_c, 3, 90, 96
8, 706929, Note_on_c, 3, 90, 0
8, 707531, Note_on_c, 3, 90, 97
8, 707611, Note_on_c, 3, 90, 0
8, 707681, Note_on_c, 3, 90, 105
8, 707762, Note_on_c, 3, 90, 0
8, 707855, Note_on_c, 3, 90, 102
8, 707935, Note_on_c, 3, 90, 0
8, 708017, Note_on_c, 3, 90, 103
8, 708097, Note_on_c, 3, 90, 0
8, 708163, Note_on_c, 3, 90, 110
8, 708244, Note_on_c, 3, 90, 0
8, 708321, Note_on_c, 3, 90, 103
8, 708401, Note_on_c, 3, 90, 0
8, 708973, Note_on_c, 3, 67, 102
8, 709041, Note_on_c, 3, 67, 0
8, 709046, Note_on_c, 3, 72, 104
8, 709114, Note_on_c, 3, 72, 0
8, 709115, Note_on_c, 3, 76, 103
8, 709175, Note_on_c, 3, 78, 98
8, 709183, Note_on_c, 3, 76, 0
8, 709240, Note_on_c, 3, 79, 115
8, 709243, Note_on_c, 3, 78, 0
8, 709308, Note_on_c, 3, 79, 0
8, 709314, Note_on_c, 3, 84, 112
8, 709374, Note_on_c, 3, 88, 104
8, 709382, Note_on_c, 3, 84, 0
8, 709442, Note_on_c, 3, 88, 0
8, 710412, Note_on_c, 3, 90, 113
8, 710492, Note_on_c, 3, 90, 0
8, 710563, Note_on_c, 3, 90, 97
8, 710644, Note_on_c, 3, 90, 0
8, 710726, Note_on_c, 3, 90, 108
8, 710806, Note_on_c, 3, 90, 0
8, 710902, Note_on_c, 3, 90, 96
8, 710982, Note_on_c, 3, 90, 0
8, 711051, Note_on_c, 3, 90, 111
8, 711132, Note_on_c, 3, 90, 0
8, 711215, Note_on_c, 3, 90, 114
8, 711295, Note_on_c, 3, 90, 0
8, 711863, Note_on_c, 3, 67, 107
8, 711918, Note_on_c, 3, 72, 112
8, 711931, Note_on_c, 3, 67, 0
8, 711986, Note_on_c, 3, 72, 0
8, 711994, Note_on_c, 3, 76, 99
8, 712049, Note_on_c, 3, 78, 113
8, 712062, Note_on_c, 3, 76, 0
8, 712117, Note_on_c, 3, 78, 0
8, 712133, Note_on_c, 3, 79, 101
8, 712194, Note_on_c, 3, 84, 95
8, 712201, Note_on_c, 3, 79, 0
8, 712260, Note_on_c, 3, 88, 107
8, 712262, Note_on_c, 3, 84, 0
8, 712328, Note_on_c, 3, 88, 0
8, 712816, Note_on_c, 3, 84, 104
8, 713176, Note_on_c, 3, 84, 0
8, 713287, Note_on_c, 3, 84, 100
8, 713647, Note_on_c, 3, 84, 0
8, 714257, Note_on_c, 3, 84, 98
8, 714617, Note_on_c, 3, 84, 0
8, 715463, Note_on_c, 3, 84, 110
8, 715703, Note_on_c, 3, 84, 0
8, 716168, Note_on_c, 3, 84, 107
8, 716528, Note_on_c, 3, 84, 0
8, 717132, Note_on_c, 3, 84, 112
8, 717492, Note_on_c, 3, 84, 0
8, 717855, Note_on_c, 3, 84, 105
8, 718095, Note_on_c, 3, 84, 0
8, 719044, Note_on_c, 3, 84, 98
8, 719404, Note_on_c, 3, 84, 0
8, 720025, Note_on_c, 3, 84, 99
8, 720385, Note_on_c, 3, 84, 0
8, 720971, Note_on_c, 3, 84, 101
8, 721331, Note_on_c, 3, 84, 0
8, 764658, Note_on_c, 3, 79, 114
8, 764714, Note_on_c, 3, 81, 117
8, 764726, Note_on_c, 3, 79, 0
8, 764782, Note_on_c, 3, 81, 0
8, 764801, Note_on_c, 3, 82, 123
8, 764851, Note_on_c, 3, 84, 105
8, 764869, Note_on_c, 3, 82, 0
8, 764919, Note_on_c, 3, 84, 0
8, 764936, Note_on_c, 3, 86, 111
8, 764984, Note_on_c, 3, 88, 117
8, 765004, Note_on_c, 3, 86, 0
8, 765052, Note_on_c, 3, 88, 0
8, 765059, Note_on_c, 3, 90, 122
8, 765127, Note_on_c, 3, 90, 0
8, 765600, Note_on_c, 3, 90, 120
8, 766080, Note_on_c, 3, 90, 0
8, 766811, Note_on_c, 3, 90, 114
8, 767051, Note_on_c, 3, 90, 0
8, 768013, Note_on_c, 3, 90, 108
8, 768493, Note_on_c, 3, 90, 0
8, 768728, Note_on_c, 3, 90, 115
8, 768968, Note_on_c, 3, 90, 0
8, 769452, Note_on_c, 3, 90, 104
8, 769932, Note_on_c, 3, 90, 0
8, 770425, Note_on_c, 3, 90, 105
8, 770905, Note_on_c, 3, 90, 0
8, 771609, Note_on_c, 3, 90, 107
8, 771849, Note_on_c, 3, 90, 0
8, 772803, Note_on_c, 3, 90, 105
8, 773283, Note_on_c, 3, 90, 0
8, 773283, End_track
9, 0, Start_track
9, 0, Title_t, "Clarinetti I"
9, 0, MIDI_port, 0
9, 0, Program_c, 3, 71
9, 5304, Note_on_c, 3, 61, 41
9, 6013, Note_on_c, 3, 60, 55
9, 6024, Note_on_c, 3, 61, 0
9, 6409, Note_on_c, 3, 59, 47
9, 6412, Note_on_c, 3, 60, 0
9, 6733, Note_on_c, 3, 58, 39
9, 6747, Note_on_c, 3, 59, 0
9, 7366, Note_on_c, 3, 57, 44
9, 7372, Note_on_c, 3, 58, 0
9, 7526, Note_on_c, 3, 57, 0
9, 7530, Note_on_c, 3, 56, 55
9, 7684, Note_on_c, 3, 55, 44
9, 7689, Note_on_c, 3, 56, 0
9, 7841, Note_on_c, 3, 54, 51
9, 7843, Note_on_c, 3, 55, 0
9, 8001, Note_on_c, 3, 54, 0
9, 8014, Note_on_c, 3, 53, 42
9, 8164, Note_on_c, 3, 52, 39
9, 8173, Note_on_c, 3, 53, 0
9, 8323, Note_on_c, 3, 52, 0
9, 8326, Note_on_c, 3, 51, 40
9, 8486, Note_on_c, 3, 51, 0
9, 8495, Note_on_c, 3, 50, 46
9, 8654, Note_on_c, 3, 50, 0
9, 25478, Note_on_c, 3, 70, 67
9, 25517, Note_on_c, 3, 70, 0
9, 25517, Note_on_c, 3, 68, 67
9, 25555, Note_on_c, 3, 68, 0
9, 25556, Note_on_c, 3, 70, 61
9, 25595, Note_on_c, 3, 70, 0
9, 25595, Note_on_c, 3, 68, 70
9, 25633, Note_on_c, 3, 68, 0
9, 25634, Note_on_c, 3, 70, 68
9, 25673, Note_on_c, 3, 70, 0
9, 25673, Note_on_c, 3, 68, 68
9, 25711, Note_on_c, 3, 68, 0
9, 25711, Note_on_c, 3, 70, 60
9, 25750, Note_on_c, 3, 70, 0
9, 25751, Note_on_c, 3, 68, 69
9, 25790, Note_on_c, 3, 68, 0
9, 25790, Note_on_c, 3, 70, 59
9, 25828, Note_on_c, 3, 70, 0
9, 25828, Note_on_c, 3, 68, 58
9, 25867, Note_on_c, 3, 68, 0
9, 25867, Note_on_c, 3, 70, 52
9, 25905, Note_on_c, 3, 70, 0
9, 25906, Note_on_c, 3, 68, 62
9, 25945, Note_on_c, 3, 68, 0
9, 25945, Note_on_c, 3, 70, 57
9, 25983, Note_on_c, 3, 70, 0
9, 25984, Note_on_c, 3, 68, 54
9, 26023, Note_on_c, 3, 68, 0
9, 26023, Note_on_c, 3, 70, 66
9, 26061, Note_on_c, 3, 70, 0
9, 26062, Note_on_c, 3, 68, 62
9, 26100, Note_on_c, 3, 68, 0
9, 26101, Note_on_c, 3, 70, 62
9, 26140, Note_on_c, 3, 70, 0
9, 26140, Note_on_c, 3, 68, 60
9, 26178, Note_on_c, 3, 68, 0
9, 26178, Note_on_c, 3, 70, 68
9, 26217, Note_on_c, 3, 70, 0
9, 26218, Note_on_c, 3, 68, 52
9, 26256, Note_on_c, 3, 68, 0
9, 26256, Note_on_c, 3, 70, 71
9, 26295, Note_on_c, 3, 70, 0
9, 26295, Note_on_c, 3, 68, 53
9, 26333, Note_on_c, 3, 68, 0
9, 26334, Note_on_c, 3, 70, 65
9, 26373, Note_on_c, 3, 70, 0
9, 26373, Note_on_c, 3, 68, 56
9, 26412, Note_on_c, 3, 70, 72
9, 26414, Note_on_c, 3, 68, 0
9, 26450, Note_on_c, 3, 70, 0
9, 26451, Note_on_c, 3, 68, 63
9, 26490, Note_on_c, 3, 68, 0
9, 26490, Note_on_c, 3, 70, 59
9, 26528, Note_on_c, 3, 70, 0
9, 26529, Note_on_c, 3, 68, 70
9, 26568, Note_on_c, 3, 68, 0
9, 26568, Note_on_c, 3, 70, 69
9, 26606, Note_on_c, 3, 70, 0
9, 26606, Note_on_c, 3, 68, 53
9, 26645, Note_on_c, 3, 68, 0
9, 26645, Note_on_c, 3, 70, 67
9, 26683, Note_on_c, 3, 70, 0
9, 26685, Note_on_c, 3, 68, 58
9, 26723, Note_on_c, 3, 68, 0
9, 26723, Note_on_c, 3, 70, 65
9, 26762, Note_on_c, 3, 70, 0
9, 26762, Note_on_c, 3, 68, 56
9, 26800, Note_on_c, 3, 68, 0
9, 26801, Note_on_c, 3, 70, 55
9, 26840, Note_on_c, 3, 70, 0
9, 26840, Note_on_c, 3, 68, 53
9, 26878, Note_on_c, 3, 68, 0
9, 26879, Note_on_c, 3, 70, 60
9, 26918, Note_on_c, 3, 70, 0
9, 26918, Note_on_c, 3, 68, 63
9, 26956, Note_on_c, 3, 68, 0
9, 26956, Note_on_c, 3, 70, 59
9, 26995, Note_on_c, 3, 70, 0
9, 26996, Note_on_c, 3, 68, 52
9, 27035, Note_on_c, 3, 68, 0
9, 27035, Note_on_c, 3, 70, 56
9, 27073, Note_on_c, 3, 70, 0
9, 27073, Note_on_c, 3, 68, 71
9, 27112, Note_on_c, 3, 68, 0
9, 27112, Note_on_c, 3, 70, 65
9, 27150, Note_on_c, 3, 70, 0
9, 27151, Note_on_c, 3, 68, 60
9, 27190, Note_on_c, 3, 68, 0
9, 27190, Note_on_c, 3, 70, 68
9, 27228, Note_on_c, 3, 70, 0
9, 27229, Note_on_c, 3, 68, 56
9, 27268, Note_on_c, 3, 68, 0
9, 27268, Note_on_c, 3, 70, 69
9, 27306, Note_on_c, 3, 70, 0
9, 27307, Note_on_c, 3, 68, 56
9, 27345, Note_on_c, 3, 68, 0
9, 28800, Note_on_c, 3, 76, 65
9, 28860, Note_on_c, 3, 76, 0
9, 28860, Note_on_c, 3, 75, 75
9, 28920, Note_on_c, 3, 75, 0
9, 28920, Note_on_c, 3, 74, 83
9, 28980, Note_on_c, 3, 74, 0
9, 28980, Note_on_c, 3, 73, 83
9, 29040, Note_on_c, 3, 73, 0
9, 29040, Note_on_c, 3, 75, 67
9, 29100, Note_on_c, 3, 75, 0
9, 29100, Note_on_c, 3, 73, 84
9, 29160, Note_on_c, 3, 73, 0
9, 29160, Note_on_c, 3, 72, 78
9, 29220, Note_on_c, 3, 72, 0
9, 29220, Note_on_c, 3, 71, 84
9, 29280, Note_on_c, 3, 71, 0
9, 29280, Note_on_c, 3, 69, 68
9, 29340, Note_on_c, 3, 69, 0
9, 29340, Note_on_c, 3, 76, 70
9, 29400, Note_on_c, 3, 76, 0
9, 29400, Note_on_c, 3, 75, 75
9, 29460, Note_on_c, 3, 75, 0
9, 29460, Note_on_c, 3, 74, 70
9, 29520, Note_on_c, 3, 74, 0
9, 29520, Note_on_c, 3, 73, 71
9, 29580, Note_on_c, 3, 73, 0
9, 29580, Note_on_c, 3, 72, 79
9, 29640, Note_on_c, 3, 72, 0
9, 29640, Note_on_c, 3, 71, 77
9, 29700, Note_on_c, 3, 71, 0
9, 29700, Note_on_c, 3, 70, 82
9, 29760, Note_on_c, 3, 70, 0
9, 29770, Note_on_c, 3, 69, 82
9, 30010, Note_on_c, 3, 69, 0
9, 30720, Note_on_c, 3, 76, 73
9, 30780, Note_on_c, 3, 76, 0
9, 30780, Note_on_c, 3, 75, 78
9, 30840, Note_on_c, 3, 75, 0
9, 30840, Note_on_c, 3, 74, 71
9, 30900, Note_on_c, 3, 74, 0
9, 30900, Note_on_c, 3, 73, 74
9, 30960, Note_on_c, 3, 73, 0
9, 30960, Note_on_c, 3, 75, 78
9, 31020, Note_on_c, 3, 75, 0
9, 31020, Note_on_c, 3, 73, 66
9, 31080, Note_on_c, 3, 73, 0
9, 31080, Note_on_c, 3, 72, 78
9, 31140, Note_on_c, 3, 72, 0
9, 31140, Note_on_c, 3, 71, 81
9, 31200, Note_on_c, 3, 71, 0
9, 31200, Note_on_c, 3, 69, 72
9, 31260, Note_on_c, 3, 69, 0
9, 31260, Note_on_c, 3, 77, 75
9, 31320, Note_on_c, 3, 77, 0
9, 31320, Note_on_c, 3, 76, 71
9, 31380, Note_on_c, 3, 76, 0
9, 31380, Note_on_c, 3, 75, 75
9, 31440, Note_on_c, 3, 75, 0
9, 31440, Note_on_c, 3, 74, 72
9, 31500, Note_on_c, 3, 74, 0
9, 31500, Note_on_c, 3, 73, 71
9, 31560, Note_on_c, 3, 73, 0
9, 31560, Note_on_c, 3, 72, 80
9, 31620, Note_on_c, 3, 72, 0
9, 31620, Note_on_c, 3, 71, 72
9, 31680, Note_on_c, 3, 71, 0
9, 31702, Note_on_c, 3, 70, 81
9, 31822, Note_on_c, 3, 70, 0
9, 42210, Note_on_c, 3, 62, 77
9, 42262, Note_on_c, 3, 66, 85
9, 42269, Note_on_c, 3, 62, 0
9, 42413, Note_on_c, 3, 63, 73
9, 42421, Note_on_c, 3, 66, 0
9, 42530, Note_on_c, 3, 62, 72
9, 42543, Note_on_c, 3, 63, 0
9, 42570, Note_on_c, 3, 66, 66
9, 42589, Note_on_c, 3, 62, 0
9, 42729, Note_on_c, 3, 66, 0
9, 42735, Note_on_c, 3, 63, 68
9, 42849, Note_on_c, 3, 62, 83
9, 42864, Note_on_c, 3, 63, 0
9, 42899, Note_on_c, 3, 66, 76
9, 42908, Note_on_c, 3, 62, 0
9, 43059, Note_on_c, 3, 66, 0
9, 43061, Note_on_c, 3, 63, 72
9, 43170, Note_on_c, 3, 62, 73
9, 43190, Note_on_c, 3, 63, 0
9, 43225, Note_on_c, 3, 66, 66
9, 43229, Note_on_c, 3, 62, 0
9, 43375, Note_on_c, 3, 63, 72
9, 43384, Note_on_c, 3, 66, 0
9, 43490, Note_on_c, 3, 62, 68
9, 43505, Note_on_c, 3, 63, 0
9, 43531, Note_on_c, 3, 66, 81
9, 43549, Note_on_c, 3, 62, 0
9, 43681, Note_on_c, 3, 63, 78
9, 43690, Note_on_c, 3, 66, 0
9, 43809, Note_on_c, 3, 62, 76
9, 43810, Note_on_c, 3, 63, 0
9, 43844, Note_on_c, 3, 66, 80
9, 43868, Note_on_c, 3, 62, 0
9, 44004, Note_on_c, 3, 66, 0
9, 44010, Note_on_c, 3, 63, 65
9, 44130, Note_on_c, 3, 62, 79
9, 44139, Note_on_c, 3, 63, 0
9, 44167, Note_on_c, 3, 66, 72
9, 44189, Note_on_c, 3, 62, 0
9, 44326, Note_on_c, 3, 66, 0
9, 44337, Note_on_c, 3, 63, 70
9, 44450, Note_on_c, 3, 62, 79
9, 44467, Note_on_c, 3, 63, 0
9, 44493, Note_on_c, 3, 66, 65
9, 44509, Note_on_c, 3, 62, 0
9, 44652, Note_on_c, 3, 66, 0
9, 44661, Note_on_c, 3, 63, 80
9, 44769, Note_on_c, 3, 62, 84
9, 44790, Note_on_c, 3, 63, 0
9, 44820, Note_on_c, 3, 66, 73
9, 44828, Note_on_c, 3, 62, 0
9, 44965, Note_on_c, 3, 63, 83
9, 44980, Note_on_c, 3, 66, 0
9, 45094, Note_on_c, 3, 63, 0
9, 46050, Note_on_c, 3, 62, 65
9, 46105, Note_on_c, 3, 66, 73
9, 46109, Note_on_c, 3, 62, 0
9, 46262, Note_on_c, 3, 63, 66
9, 46264, Note_on_c, 3, 66, 0
9, 46370, Note_on_c, 3, 62, 75
9, 46392, Note_on_c, 3, 63, 0
9, 46412, Note_on_c, 3, 66, 75
9, 46429, Note_on_c, 3, 62, 0
9, 46570, Note_on_c, 3, 63, 84
9, 46571, Note_on_c, 3, 66, 0
9, 46689, Note_on_c, 3, 62, 69
9, 46699, Note_on_c, 3, 63, 0
9, 46735, Note_on_c, 3, 66, 83
9, 46748, Note_on_c, 3, 62, 0
9, 46885, Note_on_c, 3, 63, 81
9, 46895, Note_on_c, 3, 66, 0
9, 47014, Note_on_c, 3, 63, 0
9, 48930, Note_on_c, 3, 61, 84
9, 48960, Note_on_c, 3, 56, 73
9, 48975, Note_on_c, 3, 61, 0
9, 48999, Note_on_c, 3, 56, 0
9, 49119, Note_on_c, 3, 52, 76
9, 49159, Note_on_c, 3, 52, 0
9, 49569, Note_on_c, 3, 66, 82
9, 49599, Note_on_c, 3, 56, 68
9, 49614, Note_on_c, 3, 66, 0
9, 49639, Note_on_c, 3, 56, 0
9, 49760, Note_on_c, 3, 52, 77
9, 49799, Note_on_c, 3, 52, 0
9, 50210, Note_on_c, 3, 66, 75
9, 50240, Note_on_c, 3, 56, 83
9, 50255, Note_on_c, 3, 66, 0
9, 50279, Note_on_c, 3, 56, 0
9, 50400, Note_on_c, 3, 52, 84
9, 50439, Note_on_c, 3, 52, 0
9, 50850, Note_on_c, 3, 61, 72
9, 50880, Note_on_c, 3, 56, 65
9, 50895, Note_on_c, 3, 61, 0
9, 50919, Note_on_c, 3, 56, 0
9, 51039, Note_on_c, 3, 52, 80
9, 51079, Note_on_c, 3, 52, 0
9, 51489, Note_on_c, 3, 66, 69
9, 51519, Note_on_c, 3, 56, 83
9, 51534, Note_on_c, 3, 66, 0
9, 51559, Note_on_c, 3, 56, 0
9, 51680, Note_on_c, 3, 52, 65
9, 51719, Note_on_c, 3, 52, 0
9, 52130, Note_on_c, 3, 66, 67
9, 52160, Note_on_c, 3, 56, 69
9, 52175, Note_on_c, 3, 66, 0
9, 52199, Note_on_c, 3, 56, 0
9, 52320, Note_on_c, 3, 52, 72
9, 52359, Note_on_c, 3, 52, 0
9, 52770, Note_on_c, 3, 61, 70
9, 52800, Note_on_c, 3, 56, 77
9, 52815, Note_on_c, 3, 61, 0
9, 52839, Note_on_c, 3, 56, 0
9, 52959, Note_on_c, 3, 52, 78
9, 52999, Note_on_c, 3, 52, 0
9, 53409, Note_on_c, 3, 66, 81
9, 53439, Note_on_c, 3, 56, 67
9, 53454, Note_on_c, 3, 66, 0
9, 53479, Note_on_c, 3, 56, 0
9, 53600, Note_on_c, 3, 52, 74
9, 53639, Note_on_c, 3, 52, 0
9, 54050, Note_on_c, 3, 66, 82
9, 54080, Note_on_c, 3, 56, 66
9, 54095, Note_on_c, 3, 66, 0
9, 54119, Note_on_c, 3, 56, 0
9, 54240, Note_on_c, 3, 52, 65
9, 54279, Note_on_c, 3, 52, 0
9, 61201, Note_on_c, 3, 77, 85
9, 61441, Note_on_c, 3, 77, 0
9, 61460, Note_on_c, 3, 77, 77
9, 61605, Note_on_c, 3, 76, 71
9, 61619, Note_on_c, 3, 77, 0
9, 61730, Note_on_c, 3, 77, 65
9, 61735, Note_on_c, 3, 76, 0
9, 61775, Note_on_c, 3, 77, 0
9, 61784, Note_on_c, 3, 75, 84
9, 61935, Note_on_c, 3, 74, 81
9, 61943, Note_on_c, 3, 75, 0
9, 62049, Note_on_c, 3, 77, 82
9, 62064, Note_on_c, 3, 74, 0
9, 62088, Note_on_c, 3, 75, 79
9, 62094, Note_on_c, 3, 77, 0
9, 62248, Note_on_c, 3, 75, 0
9, 62259, Note_on_c, 3, 74, 69
9, 62407, Note_on_c, 3, 71, 70
9, 62418, Note_on_c, 3, 74, 0
9, 62566, Note_on_c, 3, 71, 0
9, 62570, Note_on_c, 3, 76, 82
9, 62690, Note_on_c, 3, 77, 69
9, 62700, Note_on_c, 3, 76, 0
9, 62735, Note_on_c, 3, 77, 0
9, 62745, Note_on_c, 3, 75, 80
9, 62892, Note_on_c, 3, 74, 67
9, 62904, Note_on_c, 3, 75, 0
9, 63009, Note_on_c, 3, 77, 77
9, 63021, Note_on_c, 3, 74, 0
9, 63052, Note_on_c, 3, 75, 80
9, 63054, Note_on_c, 3, 77, 0
9, 63212, Note_on_c, 3, 75, 0
9, 63223, Note_on_c, 3, 74, 71
9, 63368, Note_on_c, 3, 71, 69
9, 63382, Note_on_c, 3, 74, 0
9, 63848, Note_on_c, 3, 71, 0
9, 63856, Note_on_c, 3, 73, 66
9, 63940, Note_on_c, 3, 77, 85
9, 63951, Note_on_c, 3, 73, 0
9, 64035, Note_on_c, 3, 77, 0
9, 64045, Note_on_c, 3, 73, 79
9, 64130, Note_on_c, 3, 75, 84
9, 64141, Note_on_c, 3, 73, 0
9, 64225, Note_on_c, 3, 75, 0
9, 64233, Note_on_c, 3, 74, 76
9, 64328, Note_on_c, 3, 74, 0
9, 64330, Note_on_c, 3, 71, 66
9, 64410, Note_on_c, 3, 71, 0
9, 64411, Note_on_c, 3, 72, 84
9, 64481, Note_on_c, 3, 77, 71
9, 64490, Note_on_c, 3, 72, 0
9, 64561, Note_on_c, 3, 77, 0
9, 64561, Note_on_c, 3, 73, 81
9, 64641, Note_on_c, 3, 73, 0
9, 64664, Note_on_c, 3, 75, 69
9, 64737, Note_on_c, 3, 74, 85
9, 64743, Note_on_c, 3, 75, 0
9, 64801, Note_on_c, 3, 71, 79
9, 64817, Note_on_c, 3, 74, 0
9, 65041, Note_on_c, 3, 71, 0
9, 65060, Note_on_c, 3, 77, 71
9, 65441, Note_on_c, 3, 76, 82
9, 65459, Note_on_c, 3, 77, 0
9, 65570, Note_on_c, 3, 77, 68
9, 65600, Note_on_c, 3, 77, 0
9, 65601, Note_on_c, 3, 76, 0
9, 65619, Note_on_c, 3, 75, 81
9, 65778, Note_on_c, 3, 75, 0
9, 65781, Note_on_c, 3, 74, 84
9, 65889, Note_on_c, 3, 77, 66
9, 65919, Note_on_c, 3, 77, 0
9, 65937, Note_on_c, 3, 75, 74
9, 65940, Note_on_c, 3, 74, 0
9, 66092, Note_on_c, 3, 74, 79
9, 66097, Note_on_c, 3, 75, 0
9, 66251, Note_on_c, 3, 74, 0
9, 66259, Note_on_c, 3, 71, 71
9, 66494, Note_on_c, 3, 77, 82
9, 66499, Note_on_c, 3, 71, 0
9, 66881, Note_on_c, 3, 76, 72
9, 66893, Note_on_c, 3, 77, 0
9, 67010, Note_on_c, 3, 77, 82
9, 67010, Note_on_c, 3, 77, 82
9, 67041, Note_on_c, 3, 76, 0
9, 67053, Note_on_c, 3, 75, 66
9, 67055, Note_on_c, 3, 77, 0
9, 67055, Note_on_c, 3, 77, 0
9, 67212, Note_on_c, 3, 75, 0
9, 67221, Note_on_c, 3, 74, 77
9, 67329, Note_on_c, 3, 77, 83
9, 67329, Note_on_c, 3, 77, 83
9, 67373, Note_on_c, 3, 75, 71
9, 67374, Note_on_c, 3, 77, 0
9, 67374, Note_on_c, 3, 77, 0
9, 67380, Note_on_c, 3, 74, 0
9, 67532, Note_on_c, 3, 74, 69
9, 67533, Note_on_c, 3, 75, 0
9, 67691, Note_on_c, 3, 74, 0
9, 67699, Note_on_c, 3, 71, 81
9, 67779, Note_on_c, 3, 71, 0
9, 67780, Note_on_c, 3, 72, 74
9, 67840, Note_on_c, 3, 77, 65
9, 67859, Note_on_c, 3, 72, 0
9, 67920, Note_on_c, 3, 77, 0
9, 67923, Note_on_c, 3, 73, 82
9, 68003, Note_on_c, 3, 73, 0
9, 68011, Note_on_c, 3, 75, 84
9, 68090, Note_on_c, 3, 75, 0
9, 68094, Note_on_c, 3, 74, 72
9, 68163, Note_on_c, 3, 71, 77
9, 68174, Note_on_c, 3, 74, 0
9, 68243, Note_on_c, 3, 71, 0
9, 68264, Note_on_c, 3, 72, 77
9, 68321, Note_on_c, 3, 76, 84
9, 68343, Note_on_c, 3, 72, 0
9, 68401, Note_on_c, 3, 76, 0
9, 68412, Note_on_c, 3, 73, 72
9, 68492, Note_on_c, 3, 73, 0
9, 68498, Note_on_c, 3, 75, 82
9, 68577, Note_on_c, 3, 75, 0
9, 68580, Note_on_c, 3, 74, 65
9, 68656, Note_on_c, 3, 71, 67
9, 68660, Note_on_c, 3, 74, 0
9, 68896, Note_on_c, 3, 71, 0
9, 68899, Note_on_c, 3, 77, 72
9, 69282, Note_on_c, 3, 76, 70
9, 69298, Note_on_c, 3, 77, 0
9, 69382, Note_on_c, 3, 76, 0
9, 69410, Note_on_c, 3, 77, 66
9, 69410, Note_on_c, 3, 77, 66
9, 69446, Note_on_c, 3, 75, 83
9, 69455, Note_on_c, 3, 77, 0
9, 69455, Note_on_c, 3, 77, 0
9, 69605, Note_on_c, 3, 75, 0
9, 69621, Note_on_c, 3, 74, 68
9, 69720, Note_on_c, 3, 74, 0
9, 69729, Note_on_c, 3, 77, 79
9, 69729, Note_on_c, 3, 77, 79
9, 69761, Note_on_c, 3, 75, 69
9, 69761, Note_on_c, 3, 75, 69
9, 69774, Note_on_c, 3, 77, 0
9, 69774, Note_on_c, 3, 77, 0
9, 69921, Note_on_c, 3, 75, 0
9, 69922, Note_on_c, 3, 74, 70
9, 70001, Note_on_c, 3, 75, 0
9, 70081, Note_on_c, 3, 74, 0
9, 70101, Note_on_c, 3, 71, 74
9, 70256, Note_on_c, 3, 76, 68
9, 70260, Note_on_c, 3, 71, 0
9, 70414, Note_on_c, 3, 75, 73
9, 70416, Note_on_c, 3, 76, 0
9, 70573, Note_on_c, 3, 75, 0
9, 70577, Note_on_c, 3, 74, 75
9, 70676, Note_on_c, 3, 74, 0
9, 70689, Note_on_c, 3, 77, 79
9, 70689, Note_on_c, 3, 77, 79
9, 70734, Note_on_c, 3, 77, 0
9, 70734, Note_on_c, 3, 77, 0
9, 70737, Note_on_c, 3, 75, 73
9, 70737, Note_on_c, 3, 75, 73
9, 70897, Note_on_c, 3, 75, 0
9, 70901, Note_on_c, 3, 74, 69
9, 70977, Note_on_c, 3, 75, 0
9, 71043, Note_on_c, 3, 71, 81
9, 71060, Note_on_c, 3, 74, 0
9, 71202, Note_on_c, 3, 71, 0
9, 71206, Note_on_c, 3, 76, 72
9, 71306, Note_on_c, 3, 76, 0
9, 71330, Note_on_c, 3, 77, 65
9, 71330, Note_on_c, 3, 77, 65
9, 71372, Note_on_c, 3, 75, 76
9, 71375, Note_on_c, 3, 77, 0
9, 71375, Note_on_c, 3, 77, 0
9, 71531, Note_on_c, 3, 75, 0
9, 78879, Note_on_c, 3, 60, 71
9, 78932, Note_on_c, 3, 60, 0
9, 78933, Note_on_c, 3, 55, 67
9, 78986, Note_on_c, 3, 55, 0
9, 78986, Note_on_c, 3, 50, 75
9, 79038, Note_on_c, 3, 50, 0
9, 79053, Note_on_c, 3, 53, 76
9, 79213, Note_on_c, 3, 53, 0
9, 81606, Note_on_c, 3, 73, 32
9, 84006, Note_on_c, 3, 73, 0
9, 108720, Note_on_c, 3, 65, 83
9, 108751, Note_on_c, 3, 65, 0
9, 108800, Note_on_c, 3, 72, 94
9, 108831, Note_on_c, 3, 72, 0
9, 108879, Note_on_c, 3, 79, 84
9, 108911, Note_on_c, 3, 79, 0
9, 110640, Note_on_c, 3, 65, 97
9, 110671, Note_on_c, 3, 65, 0
9, 110720, Note_on_c, 3, 72, 85
9, 110751, Note_on_c, 3, 72, 0
9, 110799, Note_on_c, 3, 79, 82
9, 110831, Note_on_c, 3, 79, 0
9, 111600, Note_on_c, 3, 65, 85
9, 111631, Note_on_c, 3, 65, 0
9, 111680, Note_on_c, 3, 72, 90
9, 111711, Note_on_c, 3, 72, 0
9, 111759, Note_on_c, 3, 79, 88
9, 111791, Note_on_c, 3, 79, 0
9, 113280, Note_on_c, 3, 73, 110
9, 113311, Note_on_c, 3, 73, 0
9, 113360, Note_on_c, 3, 72, 105
9, 113391, Note_on_c, 3, 72, 0
9, 113439, Note_on_c, 3, 71, 92
9, 113471, Note_on_c, 3, 71, 0
9, 113520, Note_on_c, 3, 70, 107
9, 113551, Note_on_c, 3, 70, 0
9, 113600, Note_on_c, 3, 69, 97
9, 113631, Note_on_c, 3, 69, 0
9, 113679, Note_on_c, 3, 68, 109
9, 113711, Note_on_c, 3, 68, 0
9, 113760, Note_on_c, 3, 67, 103
9, 113807, Note_on_c, 3, 67, 0
9, 114480, Note_on_c, 3, 76, 97
9, 114511, Note_on_c, 3, 76, 0
9, 114560, Note_on_c, 3, 75, 111
9, 114591, Note_on_c, 3, 75, 0
9, 114639, Note_on_c, 3, 74, 101
9, 114671, Note_on_c, 3, 74, 0
9, 114720, Note_on_c, 3, 73, 106
9, 114751, Note_on_c, 3, 73, 0
9, 114800, Note_on_c, 3, 72, 111
9, 114831, Note_on_c, 3, 72, 0
9, 114879, Note_on_c, 3, 71, 101
9, 114911, Note_on_c, 3, 71, 0
9, 114960, Note_on_c, 3, 70, 109
9, 114991, Note_on_c, 3, 70, 0
9, 115040, Note_on_c, 3, 69, 109
9, 115071, Note_on_c, 3, 69, 0
9, 115119, Note_on_c, 3, 68, 100
9, 115151, Note_on_c, 3, 68, 0
9, 115203, Note_on_c, 3, 67, 99
9, 115298, Note_on_c, 3, 67, 0
9, 194400, Note_on_c, 3, 75, 100
9, 194435, Note_on_c, 3, 75, 0
9, 194520, Note_on_c, 3, 82, 94
9, 194555, Note_on_c, 3, 82, 0
9, 194640, Note_on_c, 3, 78, 93
9, 194675, Note_on_c, 3, 78, 0
9, 194760, Note_on_c, 3, 72, 107
9, 194795, Note_on_c, 3, 72, 0
9, 194887, Note_on_c, 3, 73, 95
9, 194973, Note_on_c, 3, 74, 111
9, 194989, Note_on_c, 3, 73, 0
9, 195021, Note_on_c, 3, 73, 99
9, 195075, Note_on_c, 3, 74, 0
9, 195101, Note_on_c, 3, 74, 92
9, 195123, Note_on_c, 3, 73, 0
9, 195176, Note_on_c, 3, 73, 108
9, 195203, Note_on_c, 3, 74, 0
9, 195225, Note_on_c, 3, 74, 110
9, 195278, Note_on_c, 3, 73, 0
9, 195291, Note_on_c, 3, 73, 98
9, 195327, Note_on_c, 3, 74, 0
9, 195393, Note_on_c, 3, 73, 0
9, 195480, Note_on_c, 3, 82, 97
9, 195515, Note_on_c, 3, 82, 0
9, 195600, Note_on_c, 3, 78, 110
9, 195635, Note_on_c, 3, 78, 0
9, 195720, Note_on_c, 3, 72, 105
9, 195772, Note_on_c, 3, 72, 0
9, 195852, Note_on_c, 3, 73, 109
9, 195915, Note_on_c, 3, 74, 91
9, 195954, Note_on_c, 3, 73, 0
9, 195986, Note_on_c, 3, 73, 109
9, 196017, Note_on_c, 3, 74, 0
9, 196065, Note_on_c, 3, 74, 104
9, 196088, Note_on_c, 3, 73, 0
9, 196117, Note_on_c, 3, 73, 100
9, 196167, Note_on_c, 3, 74, 0
9, 196190, Note_on_c, 3, 74, 99
9, 196219, Note_on_c, 3, 73, 0
9, 196266, Note_on_c, 3, 73, 101
9, 196292, Note_on_c, 3, 74, 0
9, 196368, Note_on_c, 3, 73, 0
9, 196440, Note_on_c, 3, 82, 105
9, 196475, Note_on_c, 3, 82, 0
9, 196560, Note_on_c, 3, 78, 100
9, 196595, Note_on_c, 3, 78, 0
9, 196680, Note_on_c, 3, 72, 106
9, 196732, Note_on_c, 3, 72, 0
9, 196816, Note_on_c, 3, 73, 100
9, 196882, Note_on_c, 3, 74, 95
9, 196918, Note_on_c, 3, 73, 0
9, 196958, Note_on_c, 3, 73, 103
9, 196984, Note_on_c, 3, 74, 0
9, 197006, Note_on_c, 3, 74, 95
9, 197060, Note_on_c, 3, 73, 0
9, 197094, Note_on_c, 3, 73, 111
9, 197108, Note_on_c, 3, 74, 0
9, 197162, Note_on_c, 3, 74, 93
9, 197196, Note_on_c, 3, 73, 0
9, 197216, Note_on_c, 3, 73, 105
9, 197264, Note_on_c, 3, 74, 0
9, 197318, Note_on_c, 3, 73, 0
9, 197400, Note_on_c, 3, 82, 110
9, 197435, Note_on_c, 3, 82, 0
9, 197520, Note_on_c, 3, 78, 91
9, 197555, Note_on_c, 3, 78, 0
9, 197640, Note_on_c, 3, 72, 106
9, 197692, Note_on_c, 3, 72, 0
9, 197761, Note_on_c, 3, 73, 101
9, 197846, Note_on_c, 3, 74, 110
9, 197863, Note_on_c, 3, 73, 0
9, 197920, Note_on_c, 3, 73, 96
9, 197948, Note_on_c, 3, 74, 0
9, 197985, Note_on_c, 3, 74, 91
9, 198022, Note_on_c, 3, 73, 0
9, 198056, Note_on_c, 3, 73, 104
9, 198087, Note_on_c, 3, 74, 0
9, 198112, Note_on_c, 3, 74, 108
9, 198158, Note_on_c, 3, 73, 0
9, 198171, Note_on_c, 3, 73, 107
9, 198214, Note_on_c, 3, 74, 0
9, 198273, Note_on_c, 3, 73, 0
9, 198360, Note_on_c, 3, 82, 91
9, 198395, Note_on_c, 3, 82, 0
9, 198480, Note_on_c, 3, 78, 103
9, 198515, Note_on_c, 3, 78, 0
9, 198600, Note_on_c, 3, 72, 104
9, 198652, Note_on_c, 3, 72, 0
9, 198731, Note_on_c, 3, 73, 102
9, 198788, Note_on_c, 3, 74, 96
9, 198833, Note_on_c, 3, 73, 0
9, 198863, Note_on_c, 3, 73, 101
9, 198890, Note_on_c, 3, 74, 0
9, 198935, Note_on_c, 3, 74, 93
9, 198965, Note_on_c, 3, 73, 0
9, 199010, Note_on_c, 3, 73, 98
9, 199037, Note_on_c, 3, 74, 0
9, 199075, Note_on_c, 3, 74, 108
9, 199112, Note_on_c, 3, 73, 0
9, 199151, Note_on_c, 3, 73, 102
9, 199177, Note_on_c, 3, 74, 0
9, 199253, Note_on_c, 3, 73, 0
9, 199320, Note_on_c, 3, 82, 97
9, 199355, Note_on_c, 3, 82, 0
9, 199440, Note_on_c, 3, 78, 108
9, 199475, Note_on_c, 3, 78, 0
9, 199560, Note_on_c, 3, 72, 92
9, 199612, Note_on_c, 3, 72, 0
9, 199705, Note_on_c, 3, 73, 111
9, 199752, Note_on_c, 3, 74, 109
9, 199807, Note_on_c, 3, 73, 0
9, 199827, Note_on_c, 3, 73, 106
9, 199854, Note_on_c, 3, 74, 0
9, 199887, Note_on_c, 3, 74, 98
9, 199929, Note_on_c, 3, 73, 0
9, 199955, Note_on_c, 3, 73, 92
9, 199989, Note_on_c, 3, 74, 0
9, 200046, Note_on_c, 3, 74, 99
9, 200057, Note_on_c, 3, 73, 0
9, 200100, Note_on_c, 3, 73, 92
9, 200148, Note_on_c, 3, 74, 0
9, 200202, Note_on_c, 3, 73, 0
9, 200280, Note_on_c, 3, 82, 92
9, 200315, Note_on_c, 3, 82, 0
9, 200400, Note_on_c, 3, 78, 97
9, 200435, Note_on_c, 3, 78, 0
9, 200520, Note_on_c, 3, 72, 96
9, 200572, Note_on_c, 3, 72, 0
9, 200653, Note_on_c, 3, 73, 91
9, 200732, Note_on_c, 3, 74, 101
9, 200755, Note_on_c, 3, 73, 0
9, 200794, Note_on_c, 3, 73, 107
9, 200834, Note_on_c, 3, 74, 0
9, 200863, Note_on_c, 3, 74, 101
9, 200896, Note_on_c, 3, 73, 0
9, 200931, Note_on_c, 3, 73, 92
9, 200965, Note_on_c, 3, 74, 0
9, 200996, Note_on_c, 3, 74, 99
9, 201033, Note_on_c, 3, 73, 0
9, 201074, Note_on_c, 3, 73, 111
9, 201098, Note_on_c, 3, 74, 0
9, 201176, Note_on_c, 3, 73, 0
9, 201240, Note_on_c, 3, 82, 110
9, 201275, Note_on_c, 3, 82, 0
9, 201360, Note_on_c, 3, 78, 95
9, 201395, Note_on_c, 3, 78, 0
9, 201480, Note_on_c, 3, 72, 111
9, 201532, Note_on_c, 3, 72, 0
9, 201616, Note_on_c, 3, 73, 104
9, 201677, Note_on_c, 3, 74, 107
9, 201718, Note_on_c, 3, 73, 0
9, 201759, Note_on_c, 3, 73, 99
9, 201779, Note_on_c, 3, 74, 0
9, 201815, Note_on_c, 3, 74, 93
9, 201861, Note_on_c, 3, 73, 0
9, 201880, Note_on_c, 3, 73, 108
9, 201917, Note_on_c, 3, 74, 0
9, 201956, Note_on_c, 3, 74, 107
9, 201982, Note_on_c, 3, 73, 0
9, 202029, Note_on_c, 3, 73, 104
9, 202058, Note_on_c, 3, 74, 0
9, 202131, Note_on_c, 3, 73, 0
9, 202200, Note_on_c, 3, 82, 104
9, 202235, Note_on_c, 3, 82, 0
9, 202320, Note_on_c, 3, 78, 100
9, 202355, Note_on_c, 3, 78, 0
9, 202440, Note_on_c, 3, 72, 93
9, 202492, Note_on_c, 3, 72, 0
9, 202572, Note_on_c, 3, 73, 95
9, 202628, Note_on_c, 3, 74, 106
9, 202674, Note_on_c, 3, 73, 0
9, 202712, Note_on_c, 3, 73, 105
9, 202730, Note_on_c, 3, 74, 0
9, 202787, Note_on_c, 3, 74, 94
9, 202814, Note_on_c, 3, 73, 0
9, 202858, Note_on_c, 3, 73, 91
9, 202889, Note_on_c, 3, 74, 0
9, 202902, Note_on_c, 3, 74, 95
9, 202960, Note_on_c, 3, 73, 0
9, 202975, Note_on_c, 3, 73, 99
9, 203004, Note_on_c, 3, 74, 0
9, 203077, Note_on_c, 3, 73, 0
9, 203160, Note_on_c, 3, 82, 98
9, 203195, Note_on_c, 3, 82, 0
9, 203280, Note_on_c, 3, 78, 96
9, 203315, Note_on_c, 3, 78, 0
9, 203400, Note_on_c, 3, 72, 102
9, 203452, Note_on_c, 3, 72, 0
9, 203522, Note_on_c, 3, 73, 108
9, 203590, Note_on_c, 3, 74, 111
9, 203624, Note_on_c, 3, 73, 0
9, 203668, Note_on_c, 3, 73, 101
9, 203692, Note_on_c, 3, 74, 0
9, 203750, Note_on_c, 3, 74, 108
9, 203770, Note_on_c, 3, 73, 0
9, 203796, Note_on_c, 3, 73, 111
9, 203852, Note_on_c, 3, 74, 0
9, 203876, Note_on_c, 3, 74, 92
9, 203898, Note_on_c, 3, 73, 0
9, 203932, Note_on_c, 3, 73, 96
9, 203978, Note_on_c, 3, 74, 0
9, 204034, Note_on_c, 3, 73, 0
9, 204120, Note_on_c, 3, 82, 95
9, 204155, Note_on_c, 3, 82, 0
9, 204240, Note_on_c, 3, 78, 96
9, 204275, Note_on_c, 3, 78, 0
9, 204360, Note_on_c, 3, 72, 100
9, 204412, Note_on_c, 3, 72, 0
9, 204495, Note_on_c, 3, 73, 91
9, 204564, Note_on_c, 3, 74, 91
9, 204597, Note_on_c, 3, 73, 0
9, 204630, Note_on_c, 3, 73, 102
9, 204666, Note_on_c, 3, 74, 0
9, 204686, Note_on_c, 3, 74, 108
9, 204732, Note_on_c, 3, 73, 0
9, 204761, Note_on_c, 3, 73, 93
9, 204788, Note_on_c, 3, 74, 0
9, 204828, Note_on_c, 3, 74, 96
9, 204863, Note_on_c, 3, 73, 0
9, 204894, Note_on_c, 3, 73, 93
9, 204930, Note_on_c, 3, 74, 0
9, 204996, Note_on_c, 3, 73, 0
9, 205080, Note_on_c, 3, 82, 103
9, 205115, Note_on_c, 3, 82, 0
9, 205200, Note_on_c, 3, 78, 93
9, 205235, Note_on_c, 3, 78, 0
9, 205320, Note_on_c, 3, 72, 100
9, 205372, Note_on_c, 3, 72, 0
9, 205457, Note_on_c, 3, 73, 99
9, 205531, Note_on_c, 3, 74, 111
9, 205559, Note_on_c, 3, 73, 0
9, 205587, Note_on_c, 3, 73, 95
9, 205633, Note_on_c, 3, 74, 0
9, 205645, Note_on_c, 3, 74, 98
9, 205689, Note_on_c, 3, 73, 0
9, 205727, Note_on_c, 3, 73, 110
9, 205747, Note_on_c, 3, 74, 0
9, 205786, Note_on_c, 3, 74, 106
9, 205829, Note_on_c, 3, 73, 0
9, 205859, Note_on_c, 3, 73, 108
9, 205888, Note_on_c, 3, 74, 0
9, 205961, Note_on_c, 3, 73, 0
9, 206040, Note_on_c, 3, 82, 106
9, 206075, Note_on_c, 3, 82, 0
9, 206160, Note_on_c, 3, 78, 101
9, 206195, Note_on_c, 3, 78, 0
9, 206280, Note_on_c, 3, 72, 109
9, 206332, Note_on_c, 3, 72, 0
9, 206423, Note_on_c, 3, 73, 110
9, 206471, Note_on_c, 3, 74, 96
9, 206525, Note_on_c, 3, 73, 0
9, 206545, Note_on_c, 3, 73, 109
9, 206573, Note_on_c, 3, 74, 0
9, 206607, Note_on_c, 3, 74, 94
9, 206647, Note_on_c, 3, 73, 0
9, 206677, Note_on_c, 3, 73, 104
9, 206709, Note_on_c, 3, 74, 0
9, 206760, Note_on_c, 3, 74, 109
9, 206779, Note_on_c, 3, 73, 0
9, 206824, Note_on_c, 3, 73, 98
9, 206862, Note_on_c, 3, 74, 0
9, 206926, Note_on_c, 3, 73, 0
9, 207000, Note_on_c, 3, 82, 102
9, 207035, Note_on_c, 3, 82, 0
9, 207120, Note_on_c, 3, 78, 107
9, 207155, Note_on_c, 3, 78, 0
9, 207240, Note_on_c, 3, 72, 111
9, 207292, Note_on_c, 3, 72, 0
9, 207373, Note_on_c, 3, 73, 109
9, 207433, Note_on_c, 3, 74, 92
9, 207475, Note_on_c, 3, 73, 0
9, 207499, Note_on_c, 3, 73, 104
9, 207535, Note_on_c, 3, 74, 0
9, 207580, Note_on_c, 3, 74, 102
9, 207601, Note_on_c, 3, 73, 0
9, 207657, Note_on_c, 3, 73, 98
9, 207682, Note_on_c, 3, 74, 0
9, 207713, Note_on_c, 3, 74, 102
9, 207759, Note_on_c, 3, 73, 0
9, 207781, Note_on_c, 3, 73, 102
9, 207815, Note_on_c, 3, 74, 0
9, 207883, Note_on_c, 3, 73, 0
9, 207960, Note_on_c, 3, 82, 96
9, 207995, Note_on_c, 3, 82, 0
9, 208080, Note_on_c, 3, 78, 102
9, 208115, Note_on_c, 3, 78, 0
9, 208200, Note_on_c, 3, 72, 97
9, 208252, Note_on_c, 3, 72, 0
9, 208324, Note_on_c, 3, 73, 92
9, 208411, Note_on_c, 3, 74, 91
9, 208426, Note_on_c, 3, 73, 0
9, 208461, Note_on_c, 3, 73, 105
9, 208513, Note_on_c, 3, 74, 0
9, 208542, Note_on_c, 3, 74, 97
9, 208563, Note_on_c, 3, 73, 0
9, 208613, Note_on_c, 3, 73, 93
9, 208644, Note_on_c, 3, 74, 0
9, 208679, Note_on_c, 3, 74, 92
9, 208715, Note_on_c, 3, 73, 0
9, 208753, Note_on_c, 3, 73, 103
9, 208781, Note_on_c, 3, 74, 0
9, 208855, Note_on_c, 3, 73, 0
9, 208920, Note_on_c, 3, 82, 102
9, 208955, Note_on_c, 3, 82, 0
9, 209040, Note_on_c, 3, 78, 93
9, 209075, Note_on_c, 3, 78, 0
9, 209160, Note_on_c, 3, 72, 92
9, 209212, Note_on_c, 3, 72, 0
9, 209289, Note_on_c, 3, 73, 92
9, 209350, Note_on_c, 3, 74, 95
9, 209391, Note_on_c, 3, 73, 0
9, 209418, Note_on_c, 3, 73, 97
9, 209452, Note_on_c, 3, 74, 0
9, 209496, Note_on_c, 3, 74, 110
9, 209520, Note_on_c, 3, 73, 0
9, 209567, Note_on_c, 3, 73, 111
9, 209598, Note_on_c, 3, 74, 0
9, 209634, Note_on_c, 3, 74, 93
9, 209669, Note_on_c, 3, 73, 0
9, 209714, Note_on_c, 3, 73, 96
9, 209736, Note_on_c, 3, 74, 0
9, 209816, Note_on_c, 3, 73, 0
9, 209880, Note_on_c, 3, 82, 91
9, 209915, Note_on_c, 3, 82, 0
9, 210000, Note_on_c, 3, 78, 96
9, 210035, Note_on_c, 3, 78, 0
9, 210120, Note_on_c, 3, 72, 106
9, 210172, Note_on_c, 3, 72, 0
9, 210258, Note_on_c, 3, 73, 104
9, 210325, Note_on_c, 3, 74, 91
9, 210360, Note_on_c, 3, 73, 0
9, 210385, Note_on_c, 3, 73, 111
9, 210427, Note_on_c, 3, 74, 0
9, 210447, Note_on_c, 3, 74, 103
9, 210487, Note_on_c, 3, 73, 0
9, 210532, Note_on_c, 3, 73, 102
9, 210549, Note_on_c, 3, 74, 0
9, 210595, Note_on_c, 3, 74, 97
9, 210634, Note_on_c, 3, 73, 0
9, 210663, Note_on_c, 3, 73, 95
9, 210697, Note_on_c, 3, 74, 0
9, 210765, Note_on_c, 3, 73, 0
9, 210840, Note_on_c, 3, 82, 98
9, 210875, Note_on_c, 3, 82, 0
9, 210960, Note_on_c, 3, 78, 108
9, 210995, Note_on_c, 3, 78, 0
9, 211080, Note_on_c, 3, 72, 109
9, 211132, Note_on_c, 3, 72, 0
9, 211219, Note_on_c, 3, 73, 95
9, 211293, Note_on_c, 3, 74, 94
9, 211321, Note_on_c, 3, 73, 0
9, 211340, Note_on_c, 3, 73, 92
9, 211395, Note_on_c, 3, 74, 0
9, 211412, Note_on_c, 3, 74, 101
9, 211442, Note_on_c, 3, 73, 0
9, 211488, Note_on_c, 3, 73, 107
9, 211514, Note_on_c, 3, 74, 0
9, 211558, Note_on_c, 3, 74, 94
9, 211590, Note_on_c, 3, 73, 0
9, 211624, Note_on_c, 3, 73, 108
9, 211660, Note_on_c, 3, 74, 0
9, 211721, Note_on_c, 3, 73, 0
9, 213845, Note_on_c, 3, 74, 87
9, 213916, Note_on_c, 3, 74, 0
9, 214333, Note_on_c, 3, 76, 87
9, 214404, Note_on_c, 3, 76, 0
9, 215783, Note_on_c, 3, 74, 91
9, 215854, Note_on_c, 3, 74, 0
9, 216485, Note_on_c, 3, 75, 90
9, 216556, Note_on_c, 3, 75, 0
9, 217455, Note_on_c, 3, 75, 104
9, 217526, Note_on_c, 3, 75, 0
9, 218661, Note_on_c, 3, 78, 91
9, 218732, Note_on_c, 3, 78, 0
9, 230895, Note_on_c, 3, 75, 88
9, 230990, Note_on_c, 3, 75, 0
9, 231262, Note_on_c, 3, 75, 86
9, 231368, Note_on_c, 3, 75, 88
9, 231382, Note_on_c, 3, 75, 0
9, 231463, Note_on_c, 3, 75, 0
9, 231735, Note_on_c, 3, 75, 87
9, 231840, Note_on_c, 3, 75, 83
9, 231855, Note_on_c, 3, 75, 0
9, 231935, Note_on_c, 3, 75, 0
9, 232225, Note_on_c, 3, 75, 98
9, 232320, Note_on_c, 3, 75, 86
9, 232345, Note_on_c, 3, 75, 0
9, 232415, Note_on_c, 3, 75, 0
9, 232697, Note_on_c, 3, 75, 97
9, 232817, Note_on_c, 3, 75, 0
9, 232819, Note_on_c, 3, 75, 93
9, 232914, Note_on_c, 3, 75, 0
9, 233162, Note_on_c, 3, 75, 82
9, 233282, Note_on_c, 3, 75, 0
9, 233282, Note_on_c, 3, 77, 94
9, 233377, Note_on_c, 3, 77, 0
9, 233646, Note_on_c, 3, 77, 93
9, 233766, Note_on_c, 3, 77, 0
9, 233785, Note_on_c, 3, 75, 83
9, 233880, Note_on_c, 3, 75, 0
9, 234126, Note_on_c, 3, 75, 85
9, 234246, Note_on_c, 3, 75, 0
9, 234248, Note_on_c, 3, 77, 86
9, 234343, Note_on_c, 3, 77, 0
9, 234604, Note_on_c, 3, 77, 86
9, 234723, Note_on_c, 3, 75, 98
9, 234724, Note_on_c, 3, 77, 0
9, 234794, Note_on_c, 3, 75, 0
9, 235688, Note_on_c, 3, 62, 98
9, 235756, Note_on_c, 3, 62, 0
9, 235766, Note_on_c, 3, 63, 87
9, 235820, Note_on_c, 3, 64, 89
9, 235834, Note_on_c, 3, 63, 0
9, 235888, Note_on_c, 3, 64, 0
9, 235907, Note_on_c, 3, 65, 91
9, 235958, Note_on_c, 3, 66, 83
9, 235975, Note_on_c, 3, 65, 0
9, 236026, Note_on_c, 3, 66, 0
9, 236046, Note_on_c, 3, 67, 96
9, 236101, Note_on_c, 3, 68, 100
9, 236114, Note_on_c, 3, 67, 0
9, 236169, Note_on_c, 3, 68, 0
9, 236175, Note_on_c, 3, 69, 87
9, 236233, Note_on_c, 3, 70, 91
9, 236243, Note_on_c, 3, 69, 0
9, 236301, Note_on_c, 3, 70, 0
9, 236308, Note_on_c, 3, 71, 88
9, 236376, Note_on_c, 3, 71, 0
9, 236386, Note_on_c, 3, 72, 95
9, 236454, Note_on_c, 3, 72, 0
9, 236455, Note_on_c, 3, 73, 84
9, 236511, Note_on_c, 3, 74, 86
9, 236523, Note_on_c, 3, 73, 0
9, 236579, Note_on_c, 3, 74, 0
9, 236591, Note_on_c, 3, 75, 88
9, 236643, Note_on_c, 3, 76, 85
9, 236659, Note_on_c, 3, 75, 0
9, 236763, Note_on_c, 3, 76, 0
9, 238088, Note_on_c, 3, 74, 90
9, 238156, Note_on_c, 3, 74, 0
9, 238169, Note_on_c, 3, 73, 102
9, 238216, Note_on_c, 3, 72, 91
9, 238237, Note_on_c, 3, 73, 0
9, 238284, Note_on_c, 3, 72, 0
9, 238309, Note_on_c, 3, 71, 95
9, 238361, Note_on_c, 3, 70, 101
9, 238377, Note_on_c, 3, 71, 0
9, 238429, Note_on_c, 3, 70, 0
9, 238432, Note_on_c, 3, 69, 93
9, 238500, Note_on_c, 3, 69, 0
9, 238516, Note_on_c, 3, 68, 80
9, 238572, Note_on_c, 3, 67, 87
9, 238584, Note_on_c, 3, 68, 0
9, 238692, Note_on_c, 3, 67, 0
9, 239042, Note_on_c, 3, 79, 99
9, 239137, Note_on_c, 3, 79, 0
9, 239139, Note_on_c, 3, 80, 120
9, 239234, Note_on_c, 3, 80, 0
9, 239250, Note_on_c, 3, 81, 120
9, 239346, Note_on_c, 3, 81, 0
9, 239352, Note_on_c, 3, 82, 116
9, 239439, Note_on_c, 3, 83, 127
9, 239447, Note_on_c, 3, 82, 0
9, 239530, Note_on_c, 3, 84, 104
9, 239534, Note_on_c, 3, 83, 0
9, 239625, Note_on_c, 3, 84, 0
9, 239639, Note_on_c, 3, 83, 106
9, 239734, Note_on_c, 3, 83, 0
9, 239736, Note_on_c, 3, 82, 103
9, 239809, Note_on_c, 3, 81, 100
9, 239832, Note_on_c, 3, 82, 0
9, 239904, Note_on_c, 3, 81, 0
9, 239913, Note_on_c, 3, 80, 108
9, 240007, Note_on_c, 3, 79, 106
9, 240008, Note_on_c, 3, 80, 0
9, 240127, Note_on_c, 3, 79, 0
9, 240983, Note_on_c, 3, 79, 83
9, 241072, Note_on_c, 3, 80, 96
9, 241078, Note_on_c, 3, 79, 0
9, 241167, Note_on_c, 3, 80, 0
9, 241175, Note_on_c, 3, 81, 108
9, 241257, Note_on_c, 3, 82, 93
9, 241271, Note_on_c, 3, 81, 0
9, 241351, Note_on_c, 3, 83, 99
9, 241352, Note_on_c, 3, 82, 0
9, 241446, Note_on_c, 3, 83, 0
9, 241454, Note_on_c, 3, 84, 105
9, 241574, Note_on_c, 3, 84, 0
9, 242895, Note_on_c, 3, 79, 117
9, 242979, Note_on_c, 3, 80, 107
9, 242990, Note_on_c, 3, 79, 0
9, 243071, Note_on_c, 3, 81, 126
9, 243074, Note_on_c, 3, 80, 0
9, 243167, Note_on_c, 3, 81, 0
9, 243184, Note_on_c, 3, 82, 117
9, 243279, Note_on_c, 3, 82, 0
9, 243279, Note_on_c, 3, 83, 127
9, 243374, Note_on_c, 3, 83, 0
9, 243375, Note_on_c, 3, 84, 106
9, 243470, Note_on_c, 3, 84, 0
9, 243477, Note_on_c, 3, 83, 112
9, 243568, Note_on_c, 3, 82, 105
9, 243572, Note_on_c, 3, 83, 0
9, 243648, Note_on_c, 3, 81, 104
9, 243664, Note_on_c, 3, 82, 0
9, 243743, Note_on_c, 3, 81, 0
9, 243757, Note_on_c, 3, 80, 105
9, 243852, Note_on_c, 3, 80, 0
9, 243859, Note_on_c, 3, 79, 91
9, 243979, Note_on_c, 3, 79, 0
9, 244804, Note_on_c, 3, 79, 91
9, 244899, Note_on_c, 3, 79, 0
9, 244901, Note_on_c, 3, 80, 102
9, 244996, Note_on_c, 3, 80, 0
9, 245006, Note_on_c, 3, 81, 104
9, 245098, Note_on_c, 3, 82, 94
9, 245102, Note_on_c, 3, 81, 0
9, 245193, Note_on_c, 3, 82, 0
9, 245195, Note_on_c, 3, 83, 98
9, 245290, Note_on_c, 3, 83, 0
9, 246254, Note_on_c, 3, 72, 95
9, 246315, Note_on_c, 3, 73, 87
9, 246322, Note_on_c, 3, 72, 0
9, 246383, Note_on_c, 3, 73, 0
9, 246401, Note_on_c, 3, 74, 87
9, 246445, Note_on_c, 3, 75, 91
9, 246469, Note_on_c, 3, 74, 0
9, 246513, Note_on_c, 3, 75, 0
9, 246534, Note_on_c, 3, 76, 90
9, 246602, Note_on_c, 3, 76, 0
9, 246602, Note_on_c, 3, 77, 106
9, 246652, Note_on_c, 3, 78, 115
9, 246670, Note_on_c, 3, 77, 0
9, 246720, Note_on_c, 3, 78, 0
9, 246725, Note_on_c, 3, 79, 112
9, 246845, Note_on_c, 3, 79, 0
9, 247222, Note_on_c, 3, 72, 96
9, 247284, Note_on_c, 3, 73, 99
9, 247290, Note_on_c, 3, 72, 0
9, 247352, Note_on_c, 3, 73, 0
9, 247360, Note_on_c, 3, 74, 88
9, 247422, Note_on_c, 3, 75, 102
9, 247428, Note_on_c, 3, 74, 0
9, 247490, Note_on_c, 3, 75, 0
9, 247495, Note_on_c, 3, 76, 103
9, 247554, Note_on_c, 3, 77, 105
9, 247563, Note_on_c, 3, 76, 0
9, 247617, Note_on_c, 3, 78, 111
9, 247622, Note_on_c, 3, 77, 0
9, 247685, Note_on_c, 3, 78, 0
9, 247685, Note_on_c, 3, 79, 111
9, 247805, Note_on_c, 3, 79, 0
9, 248184, Note_on_c, 3, 72, 78
9, 248248, Note_on_c, 3, 73, 84
9, 248252, Note_on_c, 3, 72, 0
9, 248316, Note_on_c, 3, 73, 0
9, 248317, Note_on_c, 3, 74, 104
9, 248371, Note_on_c, 3, 75, 104
9, 248385, Note_on_c, 3, 74, 0
9, 248439, Note_on_c, 3, 75, 0
9, 248446, Note_on_c, 3, 76, 93
9, 248514, Note_on_c, 3, 76, 0
9, 248516, Note_on_c, 3, 77, 95
9, 248584, Note_on_c, 3, 77, 0
9, 248593, Note_on_c, 3, 78, 108
9, 248653, Note_on_c, 3, 79, 108
9, 248661, Note_on_c, 3, 78, 0
9, 248773, Note_on_c, 3, 79, 0
9, 260881, Note_on_c, 3, 63, 79
9, 260899, Note_on_c, 3, 69, 83
9, 261001, Note_on_c, 3, 63, 0
9, 261007, Note_on_c, 3, 71, 78
9, 261019, Note_on_c, 3, 69, 0
9, 261023, Note_on_c, 3, 66, 78
9, 261127, Note_on_c, 3, 71, 0
9, 261128, Note_on_c, 3, 69, 80
9, 261132, Note_on_c, 3, 63, 98
9, 261143, Note_on_c, 3, 66, 0
9, 261248, Note_on_c, 3, 69, 0
9, 261249, Note_on_c, 3, 71, 95
9, 261252, Note_on_c, 3, 63, 0
9, 261253, Note_on_c, 3, 66, 87
9, 261360, Note_on_c, 3, 69, 85
9, 261365, Note_on_c, 3, 63, 87
9, 261369, Note_on_c, 3, 71, 0
9, 261373, Note_on_c, 3, 66, 0
9, 261480, Note_on_c, 3, 69, 0
9, 261485, Note_on_c, 3, 63, 0
9, 261490, Note_on_c, 3, 66, 79
9, 261505, Note_on_c, 3, 71, 85
9, 261601, Note_on_c, 3, 63, 91
9, 261610, Note_on_c, 3, 66, 0
9, 261612, Note_on_c, 3, 69, 78
9, 261625, Note_on_c, 3, 71, 0
9, 261721, Note_on_c, 3, 63, 0
9, 261732, Note_on_c, 3, 69, 0
9, 261736, Note_on_c, 3, 71, 82
9, 261742, Note_on_c, 3, 66, 91
9, 261847, Note_on_c, 3, 63, 84
9, 261856, Note_on_c, 3, 71, 0
9, 261862, Note_on_c, 3, 66, 0
9, 261865, Note_on_c, 3, 69, 93
9, 261962, Note_on_c, 3, 71, 89
9, 261967, Note_on_c, 3, 63, 0
9, 261985, Note_on_c, 3, 69, 0
9, 261985, Note_on_c, 3, 66, 88
9, 262082, Note_on_c, 3, 71, 0
9, 262086, Note_on_c, 3, 69, 98
9, 262087, Note_on_c, 3, 63, 96
9, 262105, Note_on_c, 3, 66, 0
9, 262205, Note_on_c, 3, 66, 86
9, 262206, Note_on_c, 3, 69, 0
9, 262207, Note_on_c, 3, 63, 0
9, 262218, Note_on_c, 3, 71, 88
9, 262325, Note_on_c, 3, 66, 0
9, 262335, Note_on_c, 3, 69, 88
9, 262338, Note_on_c, 3, 71, 0
9, 262343, Note_on_c, 3, 63, 94
9, 262453, Note_on_c, 3, 71, 80
9, 262455, Note_on_c, 3, 69, 0
9, 262458, Note_on_c, 3, 66, 98
9, 262463, Note_on_c, 3, 63, 0
9, 262570, Note_on_c, 3, 69, 87
9, 262573, Note_on_c, 3, 71, 0
9, 262575, Note_on_c, 3, 63, 80
9, 262578, Note_on_c, 3, 66, 0
9, 262690, Note_on_c, 3, 69, 0
9, 262690, Note_on_c, 3, 71, 97
9, 262695, Note_on_c, 3, 63, 0
9, 262705, Note_on_c, 3, 66, 91
9, 262803, Note_on_c, 3, 69, 93
9, 262810, Note_on_c, 3, 71, 0
9, 262817, Note_on_c, 3, 63, 93
9, 262825, Note_on_c, 3, 66, 0
9, 262923, Note_on_c, 3, 69, 0
9, 262933, Note_on_c, 3, 71, 85
9, 262937, Note_on_c, 3, 63, 0
9, 262941, Note_on_c, 3, 66, 89
9, 263053, Note_on_c, 3, 71, 0
9, 263061, Note_on_c, 3, 66, 0
9, 263062, Note_on_c, 3, 69, 91
9, 263063, Note_on_c, 3, 63, 91
9, 263177, Note_on_c, 3, 71, 86
9, 263180, Note_on_c, 3, 66, 82
9, 263182, Note_on_c, 3, 69, 0
9, 263183, Note_on_c, 3, 63, 0
9, 263283, Note_on_c, 3, 69, 89
9, 263292, Note_on_c, 3, 63, 79
9, 263297, Note_on_c, 3, 71, 0
9, 263300, Note_on_c, 3, 66, 0
9, 263400, Note_on_c, 3, 66, 84
9, 263403, Note_on_c, 3, 69, 0
9, 263412, Note_on_c, 3, 63, 0
9, 263412, Note_on_c, 3, 71, 78
9, 263520, Note_on_c, 3, 66, 0
9, 263532, Note_on_c, 3, 71, 0
9, 263533, Note_on_c, 3, 63, 80
9, 263544, Note_on_c, 3, 69, 88
9, 263642, Note_on_c, 3, 71, 80
9, 263653, Note_on_c, 3, 63, 0
9, 263660, Note_on_c, 3, 66, 91
9, 263664, Note_on_c, 3, 69, 0
9, 263762, Note_on_c, 3, 71, 0
9, 263766, Note_on_c, 3, 69, 91
9, 263780, Note_on_c, 3, 66, 0
9, 263782, Note_on_c, 3, 63, 87
9, 263886, Note_on_c, 3, 69, 0
9, 263886, Note_on_c, 3, 71, 98
9, 263888, Note_on_c, 3, 66, 91
9, 263902, Note_on_c, 3, 63, 0
9, 264000, Note_on_c, 3, 69, 85
9, 264006, Note_on_c, 3, 71, 0
9, 264008, Note_on_c, 3, 66, 0
9, 264015, Note_on_c, 3, 63, 97
9, 264120, Note_on_c, 3, 69, 0
9, 264127, Note_on_c, 3, 66, 93
9, 264135, Note_on_c, 3, 63, 0
9, 264142, Note_on_c, 3, 71, 78
9, 264247, Note_on_c, 3, 66, 0
9, 264255, Note_on_c, 3, 63, 82
9, 264257, Note_on_c, 3, 69, 79
9, 264262, Note_on_c, 3, 71, 0
9, 264371, Note_on_c, 3, 71, 90
9, 264375, Note_on_c, 3, 63, 0
9, 264377, Note_on_c, 3, 69, 0
9, 264381, Note_on_c, 3, 66, 98
9, 264485, Note_on_c, 3, 69, 97
9, 264486, Note_on_c, 3, 63, 92
9, 264491, Note_on_c, 3, 71, 0
9, 264501, Note_on_c, 3, 66, 0
9, 264605, Note_on_c, 3, 69, 0
9, 264605, Note_on_c, 3, 71, 84
9, 264606, Note_on_c, 3, 63, 0
9, 264609, Note_on_c, 3, 66, 91
9, 264724, Note_on_c, 3, 69, 95
9, 264725, Note_on_c, 3, 71, 0
9, 264726, Note_on_c, 3, 63, 85
9, 264729, Note_on_c, 3, 66, 0
9, 264844, Note_on_c, 3, 69, 0
9, 264846, Note_on_c, 3, 63, 0
9, 264858, Note_on_c, 3, 66, 82
9, 264858, Note_on_c, 3, 71, 84
9, 264966, Note_on_c, 3, 69, 89
9, 264967, Note_on_c, 3, 63, 97
9, 264978, Note_on_c, 3, 66, 0
9, 264978, Note_on_c, 3, 71, 0
9, 265086, Note_on_c, 3, 69, 0
9, 265087, Note_on_c, 3, 63, 0
9, 265092, Note_on_c, 3, 66, 97
9, 265103, Note_on_c, 3, 71, 79
9, 265203, Note_on_c, 3, 63, 95
9, 265212, Note_on_c, 3, 66, 0
9, 265214, Note_on_c, 3, 69, 96
9, 265223, Note_on_c, 3, 71, 0
9, 265323, Note_on_c, 3, 63, 0
9, 265325, Note_on_c, 3, 66, 92
9, 265332, Note_on_c, 3, 71, 93
9, 265334, Note_on_c, 3, 69, 0
9, 265445, Note_on_c, 3, 66, 0
9, 265449, Note_on_c, 3, 69, 78
9, 265452, Note_on_c, 3, 71, 0
9, 265454, Note_on_c, 3, 63, 88
9, 265569, Note_on_c, 3, 69, 0
9, 265574, Note_on_c, 3, 63, 0
9, 265575, Note_on_c, 3, 66, 92
9, 265582, Note_on_c, 3, 71, 81
9, 265681, Note_on_c, 3, 63, 91
9, 265686, Note_on_c, 3, 69, 92
9, 265695, Note_on_c, 3, 66, 0
9, 265702, Note_on_c, 3, 71, 0
9, 265801, Note_on_c, 3, 63, 0
9, 265806, Note_on_c, 3, 69, 0
9, 265814, Note_on_c, 3, 71, 87
9, 265822, Note_on_c, 3, 66, 87
9, 265932, Note_on_c, 3, 69, 83
9, 265934, Note_on_c, 3, 71, 0
9, 265942, Note_on_c, 3, 66, 0
9, 265943, Note_on_c, 3, 63, 94
9, 266052, Note_on_c, 3, 69, 0
9, 266063, Note_on_c, 3, 63, 0
9, 266063, Note_on_c, 3, 66, 82
9, 266063, Note_on_c, 3, 71, 83
9, 266171, Note_on_c, 3, 63, 93
9, 266181, Note_on_c, 3, 69, 89
9, 266183, Note_on_c, 3, 66, 0
9, 266183, Note_on_c, 3, 71, 0
9, 266291, Note_on_c, 3, 63, 0
9, 266301, Note_on_c, 3, 69, 0
9, 266301, Note_on_c, 3, 66, 78
9, 266304, Note_on_c, 3, 71, 93
9, 266407, Note_on_c, 3, 69, 81
9, 266419, Note_on_c, 3, 63, 90
9, 266421, Note_on_c, 3, 66, 0
9, 266424, Note_on_c, 3, 71, 0
9, 266526, Note_on_c, 3, 66, 82
9, 266527, Note_on_c, 3, 69, 0
9, 266534, Note_on_c, 3, 71, 79
9, 266539, Note_on_c, 3, 63, 0
9, 266646, Note_on_c, 3, 66, 0
9, 266652, Note_on_c, 3, 64, 88
9, 266654, Note_on_c, 3, 71, 0
9, 266664, Note_on_c, 3, 70, 88
9, 266892, Note_on_c, 3, 64, 0
9, 266904, Note_on_c, 3, 70, 0
9, 267368, Note_on_c, 3, 73, 82
9, 267447, Note_on_c, 3, 73, 0
9, 267456, Note_on_c, 3, 74, 80
9, 267526, Note_on_c, 3, 73, 84
9, 267535, Note_on_c, 3, 74, 0
9, 267605, Note_on_c, 3, 73, 0
9, 267616, Note_on_c, 3, 74, 90
9, 267679, Note_on_c, 3, 73, 84
9, 267695, Note_on_c, 3, 74, 0
9, 267758, Note_on_c, 3, 73, 0
9, 267760, Note_on_c, 3, 74, 89
9, 267839, Note_on_c, 3, 74, 0
9, 267846, Note_on_c, 3, 73, 88
9, 267917, Note_on_c, 3, 74, 81
9, 267925, Note_on_c, 3, 73, 0
9, 267996, Note_on_c, 3, 74, 0
9, 267999, Note_on_c, 3, 73, 80
9, 268078, Note_on_c, 3, 73, 0
9, 268100, Note_on_c, 3, 74, 82
9, 268169, Note_on_c, 3, 73, 88
9, 268179, Note_on_c, 3, 74, 0
9, 268241, Note_on_c, 3, 74, 89
9, 268248, Note_on_c, 3, 73, 0
9, 268318, Note_on_c, 3, 73, 96
9, 268320, Note_on_c, 3, 74, 0
9, 268397, Note_on_c, 3, 73, 0
9, 268413, Note_on_c, 3, 74, 88
9, 268492, Note_on_c, 3, 74, 0
9, 268494, Note_on_c, 3, 73, 78
9, 268567, Note_on_c, 3, 74, 79
9, 268573, Note_on_c, 3, 73, 0
9, 268643, Note_on_c, 3, 73, 92
9, 268646, Note_on_c, 3, 74, 0
9, 268722, Note_on_c, 3, 73, 0
9, 268723, Note_on_c, 3, 74, 95
9, 268802, Note_on_c, 3, 74, 0
9, 268804, Note_on_c, 3, 73, 93
9, 268883, Note_on_c, 3, 73, 0
9, 268886, Note_on_c, 3, 74, 94
9, 268965, Note_on_c, 3, 74, 0
9, 268966, Note_on_c, 3, 73, 85
9, 269045, Note_on_c, 3, 73, 0
9, 269048, Note_on_c, 3, 74, 83
9, 269121, Note_on_c, 3, 73, 80
9, 269127, Note_on_c, 3, 74, 0
9, 269200, Note_on_c, 3, 73, 0
9, 269210, Note_on_c, 3, 74, 96
9, 269277, Note_on_c, 3, 73, 95
9, 269289, Note_on_c, 3, 74, 0
9, 269353, Note_on_c, 3, 74, 78
9, 269356, Note_on_c, 3, 73, 0
9, 269432, Note_on_c, 3, 74, 0
9, 269439, Note_on_c, 3, 73, 81
9, 269518, Note_on_c, 3, 73, 0
9, 269520, Note_on_c, 3, 76, 86
9, 269527, Note_on_c, 3, 70, 85
9, 269760, Note_on_c, 3, 76, 0
9, 269767, Note_on_c, 3, 70, 0
9, 284650, Note_on_c, 3, 63, 84
9, 284651, Note_on_c, 3, 69, 86
9, 284762, Note_on_c, 3, 71, 85
9, 284770, Note_on_c, 3, 63, 0
9, 284770, Note_on_c, 3, 66, 91
9, 284771, Note_on_c, 3, 69, 0
9, 284882, Note_on_c, 3, 71, 0
9, 284888, Note_on_c, 3, 63, 86
9, 284890, Note_on_c, 3, 66, 0
9, 284892, Note_on_c, 3, 69, 85
9, 285001, Note_on_c, 3, 71, 98
9, 285008, Note_on_c, 3, 63, 0
9, 285012, Note_on_c, 3, 69, 0
9, 285021, Note_on_c, 3, 66, 92
9, 285121, Note_on_c, 3, 71, 0
9, 285138, Note_on_c, 3, 69, 93
9, 285140, Note_on_c, 3, 63, 81
9, 285141, Note_on_c, 3, 66, 0
9, 285241, Note_on_c, 3, 66, 94
9, 285250, Note_on_c, 3, 71, 86
9, 285258, Note_on_c, 3, 69, 0
9, 285260, Note_on_c, 3, 63, 0
9, 285361, Note_on_c, 3, 66, 0
9, 285370, Note_on_c, 3, 71, 0
9, 285371, Note_on_c, 3, 69, 91
9, 285384, Note_on_c, 3, 63, 95
9, 285485, Note_on_c, 3, 71, 94
9, 285486, Note_on_c, 3, 66, 96
9, 285491, Note_on_c, 3, 69, 0
9, 285504, Note_on_c, 3, 63, 0
9, 285605, Note_on_c, 3, 71, 0
9, 285606, Note_on_c, 3, 66, 0
9, 285607, Note_on_c, 3, 69, 92
9, 285624, Note_on_c, 3, 63, 88
9, 285727, Note_on_c, 3, 69, 0
9, 285727, Note_on_c, 3, 66, 89
9, 285743, Note_on_c, 3, 71, 89
9, 285744, Note_on_c, 3, 63, 0
9, 285841, Note_on_c, 3, 63, 79
9, 285842, Note_on_c, 3, 69, 89
9, 285847, Note_on_c, 3, 66, 0
9, 285863, Note_on_c, 3, 71, 0
9, 285961, Note_on_c, 3, 63, 0
9, 285962, Note_on_c, 3, 69, 0
9, 285969, Note_on_c, 3, 66, 92
9, 285980, Note_on_c, 3, 71, 97
9, 286086, Note_on_c, 3, 63, 91
9, 286089, Note_on_c, 3, 66, 0
9, 286095, Note_on_c, 3, 69, 87
9, 286100, Note_on_c, 3, 71, 0
9, 286206, Note_on_c, 3, 63, 0
9, 286215, Note_on_c, 3, 69, 0
9, 286216, Note_on_c, 3, 66, 95
9, 286225, Note_on_c, 3, 71, 83
9, 286322, Note_on_c, 3, 69, 90
9, 286336, Note_on_c, 3, 66, 0
9, 286343, Note_on_c, 3, 63, 80
9, 286345, Note_on_c, 3, 71, 0
9, 286441, Note_on_c, 3, 66, 87
9, 286442, Note_on_c, 3, 69, 0
9, 286446, Note_on_c, 3, 71, 80
9, 286463, Note_on_c, 3, 63, 0
9, 286561, Note_on_c, 3, 66, 0
9, 286566, Note_on_c, 3, 71, 0
9, 286570, Note_on_c, 3, 63, 80
9, 286576, Note_on_c, 3, 69, 82
9, 286684, Note_on_c, 3, 71, 79
9, 286687, Note_on_c, 3, 66, 83
9, 286690, Note_on_c, 3, 63, 0
9, 286696, Note_on_c, 3, 69, 0
9, 286804, Note_on_c, 3, 71, 0
9, 286807, Note_on_c, 3, 66, 0
9, 286807, Note_on_c, 3, 69, 81
9, 286816, Note_on_c, 3, 63, 85
9, 286925, Note_on_c, 3, 71, 88
9, 286927, Note_on_c, 3, 69, 0
9, 286932, Note_on_c, 3, 66, 88
9, 286936, Note_on_c, 3, 63, 0
9, 287042, Note_on_c, 3, 63, 91
9, 287044, Note_on_c, 3, 69, 88
9, 287045, Note_on_c, 3, 71, 0
9, 287052, Note_on_c, 3, 66, 0
9, 287162, Note_on_c, 3, 63, 0
9, 287164, Note_on_c, 3, 69, 0
9, 287174, Note_on_c, 3, 71, 94
9, 287183, Note_on_c, 3, 66, 82
9, 287292, Note_on_c, 3, 69, 94
9, 287293, Note_on_c, 3, 63, 90
9, 287294, Note_on_c, 3, 71, 0
9, 287303, Note_on_c, 3, 66, 0
9, 287403, Note_on_c, 3, 71, 94
9, 287412, Note_on_c, 3, 69, 0
9, 287413, Note_on_c, 3, 63, 0
9, 287413, Note_on_c, 3, 66, 96
9, 287523, Note_on_c, 3, 71, 0
9, 287528, Note_on_c, 3, 69, 86
9, 287530, Note_on_c, 3, 63, 80
9, 287533, Note_on_c, 3, 66, 0
9, 287648, Note_on_c, 3, 69, 0
9, 287650, Note_on_c, 3, 63, 0
9, 287655, Note_on_c, 3, 71, 92
9, 287660, Note_on_c, 3, 66, 97
9, 287763, Note_on_c, 3, 63, 83
9, 287775, Note_on_c, 3, 71, 0
9, 287780, Note_on_c, 3, 66, 0
9, 287782, Note_on_c, 3, 69, 94
9, 287883, Note_on_c, 3, 63, 0
9, 287892, Note_on_c, 3, 71, 94
9, 287893, Note_on_c, 3, 66, 94
9, 287902, Note_on_c, 3, 69, 0
9, 288012, Note_on_c, 3, 71, 0
9, 288013, Note_on_c, 3, 66, 0
9, 288019, Note_on_c, 3, 63, 78
9, 288022, Note_on_c, 3, 69, 92
9, 288139, Note_on_c, 3, 63, 0
9, 288142, Note_on_c, 3, 69, 0
9, 288142, Note_on_c, 3, 66, 87
9, 288144, Note_on_c, 3, 71, 90
9, 288242, Note_on_c, 3, 69, 94
9, 288251, Note_on_c, 3, 63, 89
9, 288262, Note_on_c, 3, 66, 0
9, 288264, Note_on_c, 3, 71, 0
9, 288362, Note_on_c, 3, 69, 0
9, 288371, Note_on_c, 3, 63, 0
9, 288375, Note_on_c, 3, 71, 90
9, 288381, Note_on_c, 3, 66, 82
9, 288480, Note_on_c, 3, 69, 87
9, 288495, Note_on_c, 3, 71, 0
9, 288495, Note_on_c, 3, 63, 83
9, 288501, Note_on_c, 3, 66, 0
9, 288600, Note_on_c, 3, 69, 0
9, 288601, Note_on_c, 3, 66, 93
9, 288608, Note_on_c, 3, 71, 92
9, 288615, Note_on_c, 3, 63, 0
9, 288721, Note_on_c, 3, 66, 0
9, 288724, Note_on_c, 3, 69, 81
9, 288728, Note_on_c, 3, 71, 0
9, 288732, Note_on_c, 3, 63, 84
9, 288844, Note_on_c, 3, 69, 0
9, 288849, Note_on_c, 3, 71, 96
9, 288852, Note_on_c, 3, 63, 0
9, 288859, Note_on_c, 3, 66, 85
9, 288965, Note_on_c, 3, 70, 89
9, 288969, Note_on_c, 3, 71, 0
9, 288975, Note_on_c, 3, 64, 89
9, 288979, Note_on_c, 3, 66, 0
9, 289205, Note_on_c, 3, 70, 0
9, 289215, Note_on_c, 3, 64, 0
9, 294016, Note_on_c, 3, 70, 42
9, 295574, Note_on_c, 3, 73, 53
9, 295576, Note_on_c, 3, 70, 0
9, 295694, Note_on_c, 3, 73, 0
9, 295700, Note_on_c, 3, 75, 52
9, 295815, Note_on_c, 3, 79, 39
9, 295820, Note_on_c, 3, 75, 0
9, 295928, Note_on_c, 3, 82, 40
9, 295935, Note_on_c, 3, 79, 0
9, 296043, Note_on_c, 3, 85, 52
9, 296048, Note_on_c, 3, 82, 0
9, 296163, Note_on_c, 3, 85, 0
9, 296171, Note_on_c, 3, 87, 55
9, 296281, Note_on_c, 3, 85, 56
9, 296291, Note_on_c, 3, 87, 0
9, 296401, Note_on_c, 3, 85, 0
9, 296421, Note_on_c, 3, 82, 45
9, 296541, Note_on_c, 3, 82, 0
9, 296545, Note_on_c, 3, 79, 40
9, 296665, Note_on_c, 3, 79, 0
9, 296665, Note_on_c, 3, 75, 39
9, 296774, Note_on_c, 3, 73, 59
9, 296785, Note_on_c, 3, 75, 0
9, 296894, Note_on_c, 3, 73, 0
9, 296898, Note_on_c, 3, 70, 49
9, 297014, Note_on_c, 3, 73, 39
9, 297018, Note_on_c, 3, 70, 0
9, 297133, Note_on_c, 3, 75, 46
9, 297134, Note_on_c, 3, 73, 0
9, 297246, Note_on_c, 3, 79, 41
9, 297253, Note_on_c, 3, 75, 0
9, 297366, Note_on_c, 3, 79, 0
9, 297367, Note_on_c, 3, 82, 58
9, 297487, Note_on_c, 3, 82, 0
9, 297490, Note_on_c, 3, 85, 39
9, 297610, Note_on_c, 3, 85, 0
9, 297622, Note_on_c, 3, 87, 39
9, 297725, Note_on_c, 3, 85, 47
9, 297742, Note_on_c, 3, 87, 0
9, 297840, Note_on_c, 3, 82, 58
9, 297845, Note_on_c, 3, 85, 0
9, 297960, Note_on_c, 3, 82, 0
9, 297960, Note_on_c, 3, 79, 55
9, 298080, Note_on_c, 3, 79, 0
9, 298097, Note_on_c, 3, 75, 55
9, 298217, Note_on_c, 3, 75, 0
9, 298222, Note_on_c, 3, 73, 43
9, 298342, Note_on_c, 3, 73, 0
9, 298345, Note_on_c, 3, 70, 49
9, 298463, Note_on_c, 3, 73, 39
9, 298465, Note_on_c, 3, 70, 0
9, 298583, Note_on_c, 3, 73, 0
9, 298584, Note_on_c, 3, 75, 50
9, 298688, Note_on_c, 3, 79, 39
9, 298704, Note_on_c, 3, 75, 0
9, 298800, Note_on_c, 3, 82, 42
9, 298808, Note_on_c, 3, 79, 0
9, 298920, Note_on_c, 3, 82, 0
9, 298935, Note_on_c, 3, 85, 47
9, 299052, Note_on_c, 3, 87, 52
9, 299055, Note_on_c, 3, 85, 0
9, 299172, Note_on_c, 3, 87, 0
9, 299174, Note_on_c, 3, 85, 41
9, 299283, Note_on_c, 3, 82, 46
9, 299294, Note_on_c, 3, 85, 0
9, 299403, Note_on_c, 3, 82, 0
9, 299404, Note_on_c, 3, 79, 48
9, 299524, Note_on_c, 3, 79, 0
9, 299541, Note_on_c, 3, 75, 59
9, 299657, Note_on_c, 3, 73, 48
9, 299661, Note_on_c, 3, 75, 0
9, 299767, Note_on_c, 3, 70, 40
9, 299777, Note_on_c, 3, 73, 0
9, 299887, Note_on_c, 3, 70, 0
9, 299896, Note_on_c, 3, 73, 46
9, 300000, Note_on_c, 3, 75, 47
9, 300016, Note_on_c, 3, 73, 0
9, 300120, Note_on_c, 3, 75, 0
9, 300144, Note_on_c, 3, 79, 54
9, 300243, Note_on_c, 3, 82, 57
9, 300264, Note_on_c, 3, 79, 0
9, 300363, Note_on_c, 3, 82, 0
9, 300367, Note_on_c, 3, 85, 39
9, 300485, Note_on_c, 3, 87, 55
9, 300487, Note_on_c, 3, 85, 0
9, 300605, Note_on_c, 3, 87, 0
9, 300623, Note_on_c, 3, 85, 43
9, 300743, Note_on_c, 3, 85, 0
9, 300745, Note_on_c, 3, 82, 49
9, 300843, Note_on_c, 3, 79, 44
9, 300865, Note_on_c, 3, 82, 0
9, 300963, Note_on_c, 3, 79, 0
9, 300969, Note_on_c, 3, 75, 43
9, 301087, Note_on_c, 3, 73, 54
9, 301089, Note_on_c, 3, 75, 0
9, 301207, Note_on_c, 3, 73, 0
9, 301217, Note_on_c, 3, 70, 54
9, 301331, Note_on_c, 3, 73, 55
9, 301337, Note_on_c, 3, 70, 0
9, 301446, Note_on_c, 3, 75, 45
9, 301451, Note_on_c, 3, 73, 0
9, 301566, Note_on_c, 3, 75, 0
9, 301569, Note_on_c, 3, 79, 50
9, 301689, Note_on_c, 3, 79, 0
9, 301690, Note_on_c, 3, 82, 58
9, 301810, Note_on_c, 3, 82, 0
9, 301812, Note_on_c, 3, 85, 57
9, 301932, Note_on_c, 3, 85, 0
9, 301941, Note_on_c, 3, 87, 44
9, 302061, Note_on_c, 3, 87, 0
9, 302065, Note_on_c, 3, 85, 59
9, 302164, Note_on_c, 3, 82, 43
9, 302185, Note_on_c, 3, 85, 0
9, 302282, Note_on_c, 3, 79, 43
9, 302284, Note_on_c, 3, 82, 0
9, 302402, Note_on_c, 3, 79, 0
9, 302425, Note_on_c, 3, 75, 49
9, 302544, Note_on_c, 3, 73, 55
9, 302545, Note_on_c, 3, 75, 0
9, 302641, Note_on_c, 3, 79, 99
9, 302664, Note_on_c, 3, 73, 0
9, 302761, Note_on_c, 3, 79, 0
9, 302880, Note_on_c, 3, 77, 100
9, 303000, Note_on_c, 3, 77, 0
9, 303130, Note_on_c, 3, 79, 99
9, 303250, Note_on_c, 3, 79, 0
9, 303371, Note_on_c, 3, 77, 97
9, 303491, Note_on_c, 3, 77, 0
9, 303625, Note_on_c, 3, 75, 93
9, 303745, Note_on_c, 3, 75, 0
9, 303859, Note_on_c, 3, 74, 98
9, 303979, Note_on_c, 3, 74, 0
9, 304100, Note_on_c, 3, 79, 111
9, 304220, Note_on_c, 3, 79, 0
9, 304332, Note_on_c, 3, 77, 99
9, 304452, Note_on_c, 3, 77, 0
9, 304567, Note_on_c, 3, 79, 107
9, 304687, Note_on_c, 3, 79, 0
9, 304807, Note_on_c, 3, 77, 96
9, 304927, Note_on_c, 3, 77, 0
9, 305054, Note_on_c, 3, 75, 103
9, 305174, Note_on_c, 3, 75, 0
9, 305305, Note_on_c, 3, 74, 97
9, 305425, Note_on_c, 3, 74, 0
9, 305522, Note_on_c, 3, 79, 106
9, 305642, Note_on_c, 3, 79, 0
9, 305770, Note_on_c, 3, 77, 107
9, 305890, Note_on_c, 3, 77, 0
9, 306006, Note_on_c, 3, 79, 103
9, 306126, Note_on_c, 3, 79, 0
9, 306254, Note_on_c, 3, 77, 97
9, 306374, Note_on_c, 3, 77, 0
9, 306497, Note_on_c, 3, 75, 96
9, 306617, Note_on_c, 3, 75, 0
9, 306732, Note_on_c, 3, 74, 95
9, 306852, Note_on_c, 3, 74, 0
9, 306981, Note_on_c, 3, 75, 106
9, 307101, Note_on_c, 3, 75, 0
9, 307222, Note_on_c, 3, 72, 101
9, 307342, Note_on_c, 3, 72, 0
9, 307453, Note_on_c, 3, 72, 92
9, 307573, Note_on_c, 3, 72, 0
9, 307698, Note_on_c, 3, 72, 94
9, 307818, Note_on_c, 3, 72, 0
9, 307940, Note_on_c, 3, 74, 104
9, 308060, Note_on_c, 3, 74, 0
9, 308165, Note_on_c, 3, 75, 97
9, 308285, Note_on_c, 3, 75, 0
9, 308400, Note_on_c, 3, 77, 95
9, 308520, Note_on_c, 3, 77, 0
9, 308644, Note_on_c, 3, 79, 103
9, 308764, Note_on_c, 3, 79, 0
9, 308898, Note_on_c, 3, 77, 103
9, 309018, Note_on_c, 3, 77, 0
9, 309131, Note_on_c, 3, 79, 93
9, 309251, Note_on_c, 3, 79, 0
9, 309370, Note_on_c, 3, 77, 102
9, 309490, Note_on_c, 3, 77, 0
9, 309613, Note_on_c, 3, 75, 100
9, 309733, Note_on_c, 3, 75, 0
9, 309856, Note_on_c, 3, 74, 93
9, 309976, Note_on_c, 3, 74, 0
9, 310084, Note_on_c, 3, 72, 108
9, 310204, Note_on_c, 3, 72, 0
9, 310339, Note_on_c, 3, 74, 91
9, 310459, Note_on_c, 3, 74, 0
9, 310561, Note_on_c, 3, 75, 103
9, 310681, Note_on_c, 3, 75, 0
9, 310815, Note_on_c, 3, 77, 93
9, 310935, Note_on_c, 3, 77, 0
9, 311051, Note_on_c, 3, 78, 109
9, 311171, Note_on_c, 3, 78, 0
9, 311296, Note_on_c, 3, 76, 99
9, 311416, Note_on_c, 3, 76, 0
9, 311526, Note_on_c, 3, 78, 106
9, 311646, Note_on_c, 3, 78, 0
9, 311783, Note_on_c, 3, 76, 106
9, 311903, Note_on_c, 3, 76, 0
9, 312018, Note_on_c, 3, 74, 98
9, 312138, Note_on_c, 3, 74, 0
9, 312252, Note_on_c, 3, 73, 91
9, 312372, Note_on_c, 3, 73, 0
9, 312500, Note_on_c, 3, 71, 101
9, 312620, Note_on_c, 3, 71, 0
9, 312721, Note_on_c, 3, 71, 93
9, 312841, Note_on_c, 3, 71, 0
9, 312972, Note_on_c, 3, 71, 92
9, 313092, Note_on_c, 3, 71, 0
9, 313225, Note_on_c, 3, 73, 102
9, 313345, Note_on_c, 3, 73, 0
9, 313464, Note_on_c, 3, 74, 108
9, 313584, Note_on_c, 3, 74, 0
9, 313699, Note_on_c, 3, 76, 94
9, 313819, Note_on_c, 3, 76, 0
9, 324721, Note_on_c, 3, 85, 91
9, 324901, Note_on_c, 3, 85, 0
9, 324970, Note_on_c, 3, 85, 108
9, 325150, Note_on_c, 3, 85, 0
9, 325200, Note_on_c, 3, 85, 109
9, 325380, Note_on_c, 3, 85, 0
9, 325462, Note_on_c, 3, 82, 100
9, 325642, Note_on_c, 3, 82, 0
9, 325687, Note_on_c, 3, 82, 110
9, 325867, Note_on_c, 3, 82, 0
9, 325924, Note_on_c, 3, 82, 91
9, 326104, Note_on_c, 3, 82, 0
9, 326175, Note_on_c, 3, 79, 93
9, 326355, Note_on_c, 3, 79, 0
9, 326418, Note_on_c, 3, 79, 96
9, 326598, Note_on_c, 3, 79, 0
9, 326651, Note_on_c, 3, 79, 100
9, 326831, Note_on_c, 3, 79, 0
9, 326882, Note_on_c, 3, 76, 107
9, 326891, Note_on_c, 3, 71, 101
9, 326894, Note_on_c, 3, 76, 109
9, 327062, Note_on_c, 3, 76, 0
9, 327071, Note_on_c, 3, 71, 0
9, 327129, Note_on_c, 3, 76, 92
9, 327141, Note_on_c, 3, 71, 98
9, 327314, Note_on_c, 3, 76, 0
9, 327321, Note_on_c, 3, 71, 0
9, 327361, Note_on_c, 3, 76, 92
9, 327376, Note_on_c, 3, 71, 91
9, 327541, Note_on_c, 3, 76, 0
9, 327549, Note_on_c, 3, 76, 0
9, 327556, Note_on_c, 3, 71, 0
9, 327600, Note_on_c, 3, 89, 109
9, 327605, Note_on_c, 3, 89, 103
9, 327610, Note_on_c, 3, 82, 109
9, 327780, Note_on_c, 3, 89, 0
9, 327790, Note_on_c, 3, 82, 0
9, 327857, Note_on_c, 3, 89, 98
9, 327860, Note_on_c, 3, 82, 100
9, 328025, Note_on_c, 3, 89, 0
9, 328040, Note_on_c, 3, 82, 0
9, 328086, Note_on_c, 3, 82, 98
9, 328091, Note_on_c, 3, 89, 95
9, 328266, Note_on_c, 3, 82, 0
9, 328271, Note_on_c, 3, 89, 0
9, 328277, Note_on_c, 3, 89, 0
9, 328320, Note_on_c, 3, 79, 99
9, 328327, Note_on_c, 3, 90, 91
9, 328329, Note_on_c, 3, 90, 103
9, 328500, Note_on_c, 3, 79, 0
9, 328509, Note_on_c, 3, 90, 0
9, 328563, Note_on_c, 3, 79, 105
9, 328584, Note_on_c, 3, 90, 99
9, 328743, Note_on_c, 3, 79, 0
9, 328747, Note_on_c, 3, 90, 0
9, 328804, Note_on_c, 3, 79, 108
9, 328819, Note_on_c, 3, 90, 93
9, 328984, Note_on_c, 3, 79, 0
9, 328999, Note_on_c, 3, 90, 0
9, 329004, Note_on_c, 3, 90, 0
9, 329042, Note_on_c, 3, 83, 108
9, 329047, Note_on_c, 3, 76, 98
9, 329061, Note_on_c, 3, 83, 106
9, 329222, Note_on_c, 3, 83, 0
9, 329227, Note_on_c, 3, 76, 0
9, 329280, Note_on_c, 3, 76, 102
9, 329289, Note_on_c, 3, 83, 105
9, 329460, Note_on_c, 3, 76, 0
9, 329481, Note_on_c, 3, 83, 0
9, 329527, Note_on_c, 3, 83, 108
9, 329545, Note_on_c, 3, 76, 99
9, 329707, Note_on_c, 3, 83, 0
9, 329709, Note_on_c, 3, 83, 0
9, 329725, Note_on_c, 3, 76, 0
9, 329763, Note_on_c, 3, 73, 109
9, 329765, Note_on_c, 3, 84, 110
9, 329777, Note_on_c, 3, 84, 99
9, 329943, Note_on_c, 3, 73, 0
9, 329957, Note_on_c, 3, 84, 0
9, 330007, Note_on_c, 3, 84, 96
9, 330015, Note_on_c, 3, 73, 109
9, 330185, Note_on_c, 3, 84, 0
9, 330195, Note_on_c, 3, 73, 0
9, 330244, Note_on_c, 3, 84, 102
9, 330260, Note_on_c, 3, 73, 109
9, 330424, Note_on_c, 3, 84, 0
9, 330427, Note_on_c, 3, 84, 0
9, 330440, Note_on_c, 3, 73, 0
9, 330481, Note_on_c, 3, 77, 111
9, 330490, Note_on_c, 3, 70, 100
9, 330492, Note_on_c, 3, 77, 93
9, 330661, Note_on_c, 3, 77, 0
9, 330670, Note_on_c, 3, 70, 0
9, 330727, Note_on_c, 3, 70, 91
9, 330728, Note_on_c, 3, 77, 109
9, 330907, Note_on_c, 3, 70, 0
9, 330912, Note_on_c, 3, 77, 0
9, 330962, Note_on_c, 3, 77, 92
9, 330973, Note_on_c, 3, 70, 94
9, 331142, Note_on_c, 3, 77, 0
9, 331148, Note_on_c, 3, 77, 0
9, 331153, Note_on_c, 3, 70, 0
9, 331926, Note_on_c, 3, 72, 92
9, 332046, Note_on_c, 3, 72, 0
9, 332171, Note_on_c, 3, 77, 89
9, 332291, Note_on_c, 3, 77, 0
9, 332420, Note_on_c, 3, 82, 92
9, 332540, Note_on_c, 3, 82, 0
9, 332656, Note_on_c, 3, 87, 93
9, 332776, Note_on_c, 3, 87, 0
9, 332891, Note_on_c, 3, 82, 83
9, 333011, Note_on_c, 3, 82, 0
9, 333142, Note_on_c, 3, 77, 87
9, 333262, Note_on_c, 3, 77, 0
9, 333372, Note_on_c, 3, 72, 92
9, 333492, Note_on_c, 3, 72, 0
9, 333608, Note_on_c, 3, 77, 82
9, 333728, Note_on_c, 3, 77, 0
9, 333847, Note_on_c, 3, 82, 97
9, 333967, Note_on_c, 3, 82, 0
9, 334085, Note_on_c, 3, 87, 80
9, 334205, Note_on_c, 3, 87, 0
9, 335047, Note_on_c, 3, 77, 82
9, 335167, Note_on_c, 3, 77, 0
9, 335298, Note_on_c, 3, 82, 78
9, 335418, Note_on_c, 3, 82, 0
9, 335532, Note_on_c, 3, 87, 79
9, 335652, Note_on_c, 3, 87, 0
9, 335767, Note_on_c, 3, 82, 81
9, 335887, Note_on_c, 3, 82, 0
9, 336019, Note_on_c, 3, 77, 90
9, 336139, Note_on_c, 3, 77, 0
9, 336244, Note_on_c, 3, 72, 98
9, 336364, Note_on_c, 3, 72, 0
9, 336484, Note_on_c, 3, 77, 98
9, 336604, Note_on_c, 3, 77, 0
9, 336720, Note_on_c, 3, 82, 78
9, 336840, Note_on_c, 3, 82, 0
9, 336983, Note_on_c, 3, 87, 93
9, 337103, Note_on_c, 3, 87, 0
9, 337223, Note_on_c, 3, 82, 94
9, 337343, Note_on_c, 3, 82, 0
9, 337455, Note_on_c, 3, 77, 83
9, 337575, Note_on_c, 3, 77, 0
9, 337683, Note_on_c, 3, 72, 80
9, 337803, Note_on_c, 3, 72, 0
9, 337930, Note_on_c, 3, 77, 78
9, 338050, Note_on_c, 3, 77, 0
9, 338182, Note_on_c, 3, 82, 83
9, 338302, Note_on_c, 3, 82, 0
9, 338421, Note_on_c, 3, 87, 82
9, 338541, Note_on_c, 3, 87, 0
9, 338652, Note_on_c, 3, 82, 83
9, 338772, Note_on_c, 3, 82, 0
9, 338898, Note_on_c, 3, 77, 94
9, 339018, Note_on_c, 3, 77, 0
9, 339138, Note_on_c, 3, 72, 92
9, 339258, Note_on_c, 3, 72, 0
9, 339373, Note_on_c, 3, 77, 92
9, 339493, Note_on_c, 3, 77, 0
9, 339624, Note_on_c, 3, 82, 92
9, 339744, Note_on_c, 3, 82, 0
9, 339854, Note_on_c, 3, 84, 98
9, 339863, Note_on_c, 3, 80, 97
9, 339997, Note_on_c, 3, 84, 0
9, 340006, Note_on_c, 3, 80, 0
9, 346097, Note_on_c, 3, 84, 102
9, 346100, Note_on_c, 3, 80, 99
9, 346240, Note_on_c, 3, 84, 0
9, 346243, Note_on_c, 3, 80, 0
9, 348001, Note_on_c, 3, 88, 91
9, 348144, Note_on_c, 3, 88, 0
9, 348500, Note_on_c, 3, 84, 88
9, 348643, Note_on_c, 3, 84, 0
9, 352329, Note_on_c, 3, 84, 95
9, 352472, Note_on_c, 3, 84, 0
9, 354256, Note_on_c, 3, 88, 100
9, 354399, Note_on_c, 3, 88, 0
9, 355201, Note_on_c, 3, 88, 90
9, 355344, Note_on_c, 3, 88, 0
9, 357136, Note_on_c, 3, 88, 94
9, 357279, Note_on_c, 3, 88, 0
9, 358097, Note_on_c, 3, 88, 88
9, 358240, Note_on_c, 3, 88, 0
9, 384721, Note_on_c, 3, 65, 78
9, 384724, Note_on_c, 3, 72, 73
9, 384961, Note_on_c, 3, 65, 0
9, 384969, Note_on_c, 3, 70, 76
9, 385204, Note_on_c, 3, 72, 0
9, 385209, Note_on_c, 3, 70, 0
9, 385218, Note_on_c, 3, 65, 65
9, 385225, Note_on_c, 3, 72, 72
9, 385441, Note_on_c, 3, 70, 71
9, 385458, Note_on_c, 3, 65, 0
9, 385681, Note_on_c, 3, 70, 0
9, 385681, Note_on_c, 3, 65, 67
9, 385691, Note_on_c, 3, 72, 75
9, 385705, Note_on_c, 3, 72, 0
9, 385921, Note_on_c, 3, 65, 0
9, 385945, Note_on_c, 3, 70, 70
9, 386167, Note_on_c, 3, 65, 70
9, 386171, Note_on_c, 3, 72, 0
9, 386172, Note_on_c, 3, 72, 75
9, 386185, Note_on_c, 3, 70, 0
9, 386407, Note_on_c, 3, 65, 0
9, 386412, Note_on_c, 3, 72, 0
9, 390482, Note_on_c, 3, 72, 72
9, 390491, Note_on_c, 3, 65, 85
9, 390731, Note_on_c, 3, 65, 0
9, 390737, Note_on_c, 3, 70, 76
9, 390914, Note_on_c, 3, 72, 0
9, 390969, Note_on_c, 3, 65, 68
9, 390971, Note_on_c, 3, 72, 69
9, 390977, Note_on_c, 3, 70, 0
9, 391209, Note_on_c, 3, 65, 0
9, 391223, Note_on_c, 3, 70, 72
9, 391403, Note_on_c, 3, 72, 0
9, 391447, Note_on_c, 3, 72, 66
9, 391459, Note_on_c, 3, 65, 76
9, 391463, Note_on_c, 3, 70, 0
9, 391699, Note_on_c, 3, 65, 0
9, 391704, Note_on_c, 3, 70, 74
9, 391879, Note_on_c, 3, 72, 0
9, 391934, Note_on_c, 3, 72, 77
9, 391938, Note_on_c, 3, 65, 78
9, 391944, Note_on_c, 3, 70, 0
9, 392173, Note_on_c, 3, 70, 77
9, 392178, Note_on_c, 3, 65, 0
9, 392366, Note_on_c, 3, 72, 0
9, 392413, Note_on_c, 3, 70, 0
9, 392414, Note_on_c, 3, 65, 74
9, 392419, Note_on_c, 3, 72, 79
9, 392653, Note_on_c, 3, 70, 65
9, 392654, Note_on_c, 3, 65, 0
9, 392851, Note_on_c, 3, 72, 0
9, 392891, Note_on_c, 3, 65, 84
9, 392893, Note_on_c, 3, 70, 0
9, 392894, Note_on_c, 3, 72, 84
9, 393131, Note_on_c, 3, 65, 0
9, 393139, Note_on_c, 3, 70, 69
9, 393326, Note_on_c, 3, 72, 0
9, 393367, Note_on_c, 3, 72, 70
9, 393371, Note_on_c, 3, 65, 83
9, 393379, Note_on_c, 3, 70, 0
9, 393603, Note_on_c, 3, 70, 72
9, 393611, Note_on_c, 3, 65, 0
9, 393799, Note_on_c, 3, 72, 0
9, 393843, Note_on_c, 3, 70, 0
9, 419760, Note_on_c, 3, 72, 69
9, 420120, Note_on_c, 3, 72, 0
9, 420253, Note_on_c, 3, 72, 69
9, 420613, Note_on_c, 3, 72, 0
9, 420725, Note_on_c, 3, 72, 68
9, 421085, Note_on_c, 3, 72, 0
9, 421213, Note_on_c, 3, 72, 80
9, 421693, Note_on_c, 3, 72, 0
9, 423604, Note_on_c, 3, 72, 84
9, 423964, Note_on_c, 3, 72, 0
9, 424095, Note_on_c, 3, 72, 73
9, 424455, Note_on_c, 3, 72, 0
9, 424563, Note_on_c, 3, 72, 84
9, 424923, Note_on_c, 3, 72, 0
9, 425059, Note_on_c, 3, 72, 72
9, 425523, Note_on_c, 3, 72, 78
9, 425539, Note_on_c, 3, 72, 0
9, 425883, Note_on_c, 3, 72, 0
9, 426022, Note_on_c, 3, 72, 69
9, 426382, Note_on_c, 3, 72, 0
9, 426485, Note_on_c, 3, 72, 82
9, 426605, Note_on_c, 3, 72, 0
9, 427201, Note_on_c, 3, 78, 110
9, 427561, Note_on_c, 3, 78, 0
9, 427700, Note_on_c, 3, 78, 101
9, 428060, Note_on_c, 3, 78, 0
9, 428171, Note_on_c, 3, 78, 93
9, 428531, Note_on_c, 3, 78, 0
9, 428653, Note_on_c, 3, 80, 106
9, 428884, Note_on_c, 3, 82, 100
9, 428893, Note_on_c, 3, 80, 0
9, 429124, Note_on_c, 3, 82, 0
9, 429132, Note_on_c, 3, 84, 111
9, 429612, Note_on_c, 3, 84, 0
9, 429621, Note_on_c, 3, 82, 101
9, 430094, Note_on_c, 3, 80, 93
9, 430101, Note_on_c, 3, 82, 0
9, 430574, Note_on_c, 3, 80, 0
9, 430578, Note_on_c, 3, 78, 105
9, 430938, Note_on_c, 3, 78, 0
9, 431062, Note_on_c, 3, 78, 96
9, 431422, Note_on_c, 3, 78, 0
9, 431525, Note_on_c, 3, 80, 102
9, 431764, Note_on_c, 3, 82, 92
9, 431765, Note_on_c, 3, 80, 0
9, 432004, Note_on_c, 3, 82, 0
9, 432025, Note_on_c, 3, 84, 92
9, 432493, Note_on_c, 3, 78, 101
9, 432499, Note_on_c, 3, 70, 103
9, 432505, Note_on_c, 3, 84, 0
9, 432853, Note_on_c, 3, 78, 0
9, 432859, Note_on_c, 3, 70, 0
9, 432962, Note_on_c, 3, 78, 103
9, 432967, Note_on_c, 3, 70, 92
9, 433322, Note_on_c, 3, 78, 0
9, 433327, Note_on_c, 3, 70, 0
9, 433448, Note_on_c, 3, 70, 110
9, 433459, Note_on_c, 3, 78, 99
9, 433808, Note_on_c, 3, 70, 0
9, 433819, Note_on_c, 3, 78, 0
9, 433927, Note_on_c, 3, 72, 108
9, 433929, Note_on_c, 3, 80, 105
9, 434163, Note_on_c, 3, 73, 105
9, 434167, Note_on_c, 3, 72, 0
9, 434169, Note_on_c, 3, 80, 0
9, 434179, Note_on_c, 3, 82, 98
9, 434402, Note_on_c, 3, 75, 111
9, 434403, Note_on_c, 3, 73, 0
9, 434419, Note_on_c, 3, 82, 0
9, 434420, Note_on_c, 3, 84, 108
9, 434882, Note_on_c, 3, 75, 0
9, 434900, Note_on_c, 3, 84, 0
9, 435371, Note_on_c, 3, 78, 110
9, 435381, Note_on_c, 3, 70, 110
9, 435731, Note_on_c, 3, 78, 0
9, 435741, Note_on_c, 3, 70, 0
9, 435852, Note_on_c, 3, 70, 107
9, 435862, Note_on_c, 3, 78, 111
9, 436212, Note_on_c, 3, 70, 0
9, 436222, Note_on_c, 3, 78, 0
9, 436326, Note_on_c, 3, 78, 97
9, 436341, Note_on_c, 3, 70, 109
9, 436686, Note_on_c, 3, 78, 0
9, 436701, Note_on_c, 3, 70, 0
9, 436809, Note_on_c, 3, 70, 101
9, 436823, Note_on_c, 3, 78, 101
9, 437169, Note_on_c, 3, 70, 0
9, 437183, Note_on_c, 3, 78, 0
9, 437289, Note_on_c, 3, 70, 109
9, 437292, Note_on_c, 3, 78, 97
9, 437649, Note_on_c, 3, 70, 0
9, 437652, Note_on_c, 3, 78, 0
9, 437762, Note_on_c, 3, 78, 97
9, 437765, Note_on_c, 3, 70, 107
9, 438122, Note_on_c, 3, 78, 0
9, 438125, Note_on_c, 3, 70, 0
9, 438739, Note_on_c, 3, 71, 124
9, 438742, Note_on_c, 3, 80, 123
9, 439099, Note_on_c, 3, 71, 0
9, 439102, Note_on_c, 3, 80, 0
9, 439202, Note_on_c, 3, 80, 122
9, 439221, Note_on_c, 3, 71, 114
9, 439562, Note_on_c, 3, 80, 0
9, 439581, Note_on_c, 3, 71, 0
9, 439683, Note_on_c, 3, 80, 112
9, 439688, Note_on_c, 3, 71, 105
9, 440043, Note_on_c, 3, 80, 0
9, 440048, Note_on_c, 3, 71, 0
9, 440180, Note_on_c, 3, 72, 113
9, 440183, Note_on_c, 3, 80, 118
9, 440405, Note_on_c, 3, 82, 119
9, 440408, Note_on_c, 3, 73, 108
9, 440420, Note_on_c, 3, 72, 0
9, 440423, Note_on_c, 3, 80, 0
9, 440645, Note_on_c, 3, 82, 0
9, 440648, Note_on_c, 3, 73, 0
9, 440656, Note_on_c, 3, 84, 115
9, 440662, Note_on_c, 3, 75, 123
9, 442087, Note_on_c, 3, 80, 109
9, 442094, Note_on_c, 3, 72, 119
9, 442096, Note_on_c, 3, 84, 0
9, 442102, Note_on_c, 3, 75, 0
9, 442447, Note_on_c, 3, 80, 0
9, 442454, Note_on_c, 3, 72, 0
9, 442573, Note_on_c, 3, 80, 119
9, 442582, Note_on_c, 3, 72, 116
9, 442933, Note_on_c, 3, 80, 0
9, 442942, Note_on_c, 3, 72, 0
9, 443046, Note_on_c, 3, 72, 112
9, 443056, Note_on_c, 3, 80, 119
9, 443406, Note_on_c, 3, 72, 0
9, 443416, Note_on_c, 3, 80, 0
9, 443533, Note_on_c, 3, 72, 113
9, 443533, Note_on_c, 3, 80, 122
9, 443773, Note_on_c, 3, 72, 0
9, 443773, Note_on_c, 3, 80, 0
9, 443777, Note_on_c, 3, 73, 119
9, 443782, Note_on_c, 3, 82, 111
9, 444013, Note_on_c, 3, 84, 119
9, 444017, Note_on_c, 3, 73, 0
9, 444022, Note_on_c, 3, 82, 0
9, 444022, Note_on_c, 3, 75, 114
9, 444493, Note_on_c, 3, 84, 0
9, 444495, Note_on_c, 3, 80, 108
9, 444501, Note_on_c, 3, 72, 104
9, 444502, Note_on_c, 3, 75, 0
9, 444720, Note_on_c, 3, 73, 120
9, 444735, Note_on_c, 3, 80, 0
9, 444741, Note_on_c, 3, 72, 0
9, 444743, Note_on_c, 3, 82, 123
9, 444960, Note_on_c, 3, 73, 0
9, 444965, Note_on_c, 3, 75, 112
9, 444979, Note_on_c, 3, 84, 108
9, 444983, Note_on_c, 3, 82, 0
9, 445445, Note_on_c, 3, 75, 0
9, 445454, Note_on_c, 3, 78, 107
9, 445459, Note_on_c, 3, 84, 0
9, 445460, Note_on_c, 3, 70, 107
9, 445814, Note_on_c, 3, 78, 0
9, 445820, Note_on_c, 3, 70, 0
9, 445939, Note_on_c, 3, 70, 122
9, 445939, Note_on_c, 3, 78, 113
9, 446299, Note_on_c, 3, 70, 0
9, 446299, Note_on_c, 3, 78, 0
9, 446409, Note_on_c, 3, 80, 116
9, 446423, Note_on_c, 3, 72, 110
9, 446649, Note_on_c, 3, 80, 0
9, 446650, Note_on_c, 3, 82, 124
9, 446651, Note_on_c, 3, 73, 105
9, 446663, Note_on_c, 3, 72, 0
9, 446890, Note_on_c, 3, 82, 0
9, 446891, Note_on_c, 3, 73, 0
9, 446892, Note_on_c, 3, 84, 117
9, 446899, Note_on_c, 3, 75, 107
9, 447372, Note_on_c, 3, 84, 0
9, 447379, Note_on_c, 3, 75, 0
9, 448810, Note_on_c, 3, 79, 109
9, 448818, Note_on_c, 3, 75, 96
9, 448953, Note_on_c, 3, 79, 0
9, 448961, Note_on_c, 3, 75, 0
9, 453625, Note_on_c, 3, 76, 92
9, 453731, Note_on_c, 3, 79, 98
9, 453745, Note_on_c, 3, 76, 0
9, 453851, Note_on_c, 3, 79, 0
9, 453852, Note_on_c, 3, 80, 91
9, 453960, Note_on_c, 3, 79, 92
9, 453972, Note_on_c, 3, 80, 0
9, 454080, Note_on_c, 3, 79, 0
9, 454105, Note_on_c, 3, 77, 99
9, 454225, Note_on_c, 3, 77, 0
9, 455046, Note_on_c, 3, 83, 107
9, 455189, Note_on_c, 3, 83, 0
9, 455535, Note_on_c, 3, 79, 103
9, 455678, Note_on_c, 3, 79, 0
9, 456504, Note_on_c, 3, 77, 108
9, 456617, Note_on_c, 3, 79, 100
9, 456624, Note_on_c, 3, 77, 0
9, 456734, Note_on_c, 3, 80, 99
9, 456737, Note_on_c, 3, 79, 0
9, 456854, Note_on_c, 3, 80, 0
9, 456854, Note_on_c, 3, 79, 95
9, 456971, Note_on_c, 3, 76, 110
9, 456974, Note_on_c, 3, 79, 0
9, 457091, Note_on_c, 3, 76, 0
9, 457940, Note_on_c, 3, 79, 109
9, 458131, Note_on_c, 3, 79, 0
9, 458413, Note_on_c, 3, 77, 100
9, 458604, Note_on_c, 3, 77, 0
9, 458886, Note_on_c, 3, 79, 110
9, 459077, Note_on_c, 3, 79, 0
9, 459378, Note_on_c, 3, 77, 111
9, 459569, Note_on_c, 3, 77, 0
9, 459841, Note_on_c, 3, 79, 106
9, 460032, Note_on_c, 3, 79, 0
9, 460335, Note_on_c, 3, 77, 111
9, 460526, Note_on_c, 3, 77, 0
9, 460809, Note_on_c, 3, 79, 94
9, 461000, Note_on_c, 3, 79, 0
9, 461293, Note_on_c, 3, 77, 99
9, 461484, Note_on_c, 3, 77, 0
9, 461778, Note_on_c, 3, 83, 111
9, 461921, Note_on_c, 3, 83, 0
9, 462733, Note_on_c, 3, 77, 96
9, 462853, Note_on_c, 3, 77, 0
9, 462860, Note_on_c, 3, 79, 101
9, 462974, Note_on_c, 3, 80, 109
9, 462980, Note_on_c, 3, 79, 0
9, 463094, Note_on_c, 3, 80, 0
9, 463098, Note_on_c, 3, 79, 100
9, 463218, Note_on_c, 3, 79, 0
9, 463220, Note_on_c, 3, 76, 99
9, 463340, Note_on_c, 3, 76, 0
9, 464652, Note_on_c, 3, 76, 101
9, 464766, Note_on_c, 3, 79, 98
9, 464772, Note_on_c, 3, 76, 0
9, 464886, Note_on_c, 3, 79, 0
9, 464898, Note_on_c, 3, 80, 106
9, 465002, Note_on_c, 3, 79, 97
9, 465018, Note_on_c, 3, 80, 0
9, 465122, Note_on_c, 3, 79, 0
9, 465140, Note_on_c, 3, 77, 98
9, 465260, Note_on_c, 3, 77, 0
9, 466099, Note_on_c, 3, 83, 97
9, 466242, Note_on_c, 3, 83, 0
9, 466582, Note_on_c, 3, 79, 100
9, 466725, Note_on_c, 3, 79, 0
9, 467520, Note_on_c, 3, 77, 105
9, 467640, Note_on_c, 3, 77, 0
9, 467640, Note_on_c, 3, 79, 111
9, 467760, Note_on_c, 3, 79, 0
9, 467770, Note_on_c, 3, 80, 111
9, 467890, Note_on_c, 3, 80, 0
9, 467899, Note_on_c, 3, 79, 103
9, 468019, Note_on_c, 3, 79, 0
9, 468020, Note_on_c, 3, 76, 100
9, 468140, Note_on_c, 3, 76, 0
9, 468980, Note_on_c, 3, 83, 104
9, 469123, Note_on_c, 3, 83, 0
9, 497283, Note_on_c, 3, 74, 79
9, 497287, Note_on_c, 3, 77, 96
9, 497298, Note_on_c, 3, 81, 82
9, 497402, Note_on_c, 3, 76, 87
9, 497403, Note_on_c, 3, 74, 0
9, 497407, Note_on_c, 3, 77, 0
9, 497407, Note_on_c, 3, 72, 83
9, 497418, Note_on_c, 3, 81, 0
9, 497423, Note_on_c, 3, 79, 74
9, 497522, Note_on_c, 3, 76, 0
9, 497523, Note_on_c, 3, 77, 71
9, 497527, Note_on_c, 3, 72, 0
9, 497538, Note_on_c, 3, 74, 79
9, 497543, Note_on_c, 3, 79, 0
9, 497545, Note_on_c, 3, 71, 84
9, 497643, Note_on_c, 3, 77, 0
9, 497644, Note_on_c, 3, 69, 72
9, 497648, Note_on_c, 3, 72, 70
9, 497658, Note_on_c, 3, 74, 0
9, 497658, Note_on_c, 3, 76, 66
9, 497665, Note_on_c, 3, 71, 0
9, 497764, Note_on_c, 3, 69, 0
9, 497768, Note_on_c, 3, 72, 0
9, 497769, Note_on_c, 3, 67, 61
9, 497772, Note_on_c, 3, 74, 69
9, 497773, Note_on_c, 3, 71, 70
9, 497778, Note_on_c, 3, 76, 0
9, 497883, Note_on_c, 3, 69, 57
9, 497889, Note_on_c, 3, 67, 0
9, 497892, Note_on_c, 3, 74, 0
9, 497893, Note_on_c, 3, 71, 0
9, 497899, Note_on_c, 3, 65, 72
9, 497905, Note_on_c, 3, 72, 66
9, 498003, Note_on_c, 3, 69, 0
9, 498003, Note_on_c, 3, 71, 52
9, 498019, Note_on_c, 3, 65, 0
9, 498019, Note_on_c, 3, 67, 52
9, 498019, Note_on_c, 3, 64, 64
9, 498025, Note_on_c, 3, 72, 0
9, 498123, Note_on_c, 3, 71, 0
9, 498130, Note_on_c, 3, 62, 47
9, 498139, Note_on_c, 3, 67, 0
9, 498139, Note_on_c, 3, 64, 0
9, 498140, Note_on_c, 3, 69, 66
9, 498141, Note_on_c, 3, 65, 57
9, 498250, Note_on_c, 3, 62, 0
9, 498250, Note_on_c, 3, 77, 91
9, 498259, Note_on_c, 3, 74, 86
9, 498260, Note_on_c, 3, 69, 0
9, 498260, Note_on_c, 3, 81, 96
9, 498261, Note_on_c, 3, 65, 0
9, 498361, Note_on_c, 3, 72, 90
9, 498362, Note_on_c, 3, 76, 79
9, 498365, Note_on_c, 3, 79, 87
9, 498370, Note_on_c, 3, 77, 0
9, 498379, Note_on_c, 3, 74, 0
9, 498380, Note_on_c, 3, 81, 0
9, 498481, Note_on_c, 3, 72, 0
9, 498482, Note_on_c, 3, 76, 0
9, 498485, Note_on_c, 3, 79, 0
9, 498491, Note_on_c, 3, 77, 79
9, 498499, Note_on_c, 3, 74, 79
9, 498502, Note_on_c, 3, 71, 75
9, 498611, Note_on_c, 3, 77, 0
9, 498614, Note_on_c, 3, 76, 68
9, 498619, Note_on_c, 3, 74, 0
9, 498620, Note_on_c, 3, 72, 73
9, 498622, Note_on_c, 3, 71, 0
9, 498623, Note_on_c, 3, 69, 80
9, 498722, Note_on_c, 3, 71, 61
9, 498734, Note_on_c, 3, 76, 0
9, 498739, Note_on_c, 3, 74, 75
9, 498740, Note_on_c, 3, 72, 0
9, 498742, Note_on_c, 3, 67, 67
9, 498743, Note_on_c, 3, 69, 0
9, 498842, Note_on_c, 3, 71, 0
9, 498843, Note_on_c, 3, 65, 61
9, 498844, Note_on_c, 3, 69, 63
9, 498854, Note_on_c, 3, 72, 65
9, 498859, Note_on_c, 3, 74, 0
9, 498862, Note_on_c, 3, 67, 0
9, 498961, Note_on_c, 3, 67, 57
9, 498962, Note_on_c, 3, 71, 71
9, 498963, Note_on_c, 3, 65, 0
9, 498964, Note_on_c, 3, 69, 0
9, 498974, Note_on_c, 3, 72, 0
9, 498977, Note_on_c, 3, 64, 58
9, 499081, Note_on_c, 3, 67, 0
9, 499082, Note_on_c, 3, 71, 0
9, 499092, Note_on_c, 3, 65, 59
9, 499097, Note_on_c, 3, 64, 0
9, 499099, Note_on_c, 3, 69, 65
9, 499105, Note_on_c, 3, 62, 63
9, 499203, Note_on_c, 3, 74, 96
9, 499212, Note_on_c, 3, 65, 0
9, 499216, Note_on_c, 3, 81, 87
9, 499219, Note_on_c, 3, 69, 0
9, 499223, Note_on_c, 3, 77, 84
9, 499225, Note_on_c, 3, 62, 0
9, 499323, Note_on_c, 3, 74, 0
9, 499329, Note_on_c, 3, 72, 91
9, 499336, Note_on_c, 3, 81, 0
9, 499339, Note_on_c, 3, 79, 83
9, 499341, Note_on_c, 3, 76, 74
9, 499343, Note_on_c, 3, 77, 0
9, 499443, Note_on_c, 3, 71, 70
9, 499449, Note_on_c, 3, 72, 0
9, 499451, Note_on_c, 3, 74, 70
9, 499454, Note_on_c, 3, 77, 77
9, 499459, Note_on_c, 3, 79, 0
9, 499461, Note_on_c, 3, 76, 0
9, 499563, Note_on_c, 3, 71, 0
9, 499566, Note_on_c, 3, 72, 66
9, 499567, Note_on_c, 3, 69, 74
9, 499568, Note_on_c, 3, 76, 75
9, 499571, Note_on_c, 3, 74, 0
9, 499574, Note_on_c, 3, 77, 0
9, 499682, Note_on_c, 3, 74, 91
9, 499686, Note_on_c, 3, 72, 0
9, 499687, Note_on_c, 3, 69, 0
9, 499688, Note_on_c, 3, 76, 0
9, 499700, Note_on_c, 3, 77, 97
9, 499701, Note_on_c, 3, 81, 88
9, 499802, Note_on_c, 3, 74, 0
9, 499816, Note_on_c, 3, 79, 85
9, 499820, Note_on_c, 3, 77, 0
9, 499821, Note_on_c, 3, 81, 0
9, 499823, Note_on_c, 3, 72, 80
9, 499824, Note_on_c, 3, 76, 74
9, 499920, Note_on_c, 3, 74, 79
9, 499925, Note_on_c, 3, 77, 76
9, 499936, Note_on_c, 3, 79, 0
9, 499938, Note_on_c, 3, 71, 73
9, 499943, Note_on_c, 3, 72, 0
9, 499944, Note_on_c, 3, 76, 0
9, 500040, Note_on_c, 3, 74, 0
9, 500041, Note_on_c, 3, 72, 64
9, 500045, Note_on_c, 3, 77, 0
9, 500047, Note_on_c, 3, 69, 64
9, 500058, Note_on_c, 3, 71, 0
9, 500064, Note_on_c, 3, 76, 68
9, 500161, Note_on_c, 3, 72, 0
9, 500162, Note_on_c, 3, 74, 69
9, 500163, Note_on_c, 3, 71, 76
9, 500167, Note_on_c, 3, 69, 0
9, 500184, Note_on_c, 3, 76, 0
9, 500185, Note_on_c, 3, 67, 66
9, 500282, Note_on_c, 3, 74, 0
9, 500282, Note_on_c, 3, 65, 66
9, 500283, Note_on_c, 3, 71, 0
9, 500301, Note_on_c, 3, 69, 68
9, 500305, Note_on_c, 3, 67, 0
9, 500305, Note_on_c, 3, 72, 55
9, 500400, Note_on_c, 3, 64, 71
9, 500400, Note_on_c, 3, 71, 52
9, 500402, Note_on_c, 3, 65, 0
9, 500411, Note_on_c, 3, 67, 60
9, 500421, Note_on_c, 3, 69, 0
9, 500425, Note_on_c, 3, 72, 0
9, 500520, Note_on_c, 3, 64, 0
9, 500520, Note_on_c, 3, 71, 0
9, 500531, Note_on_c, 3, 67, 0
9, 500531, Note_on_c, 3, 69, 64
9, 500533, Note_on_c, 3, 62, 53
9, 500539, Note_on_c, 3, 65, 60
9, 500651, Note_on_c, 3, 69, 0
9, 500653, Note_on_c, 3, 62, 0
9, 500659, Note_on_c, 3, 65, 0
9, 503522, Note_on_c, 3, 81, 92
9, 503532, Note_on_c, 3, 74, 80
9, 503540, Note_on_c, 3, 77, 81
9, 503642, Note_on_c, 3, 81, 0
9, 503646, Note_on_c, 3, 76, 92
9, 503652, Note_on_c, 3, 74, 0
9, 503657, Note_on_c, 3, 79, 77
9, 503660, Note_on_c, 3, 77, 0
9, 503660, Note_on_c, 3, 72, 74
9, 503766, Note_on_c, 3, 76, 0
9, 503772, Note_on_c, 3, 74, 78
9, 503776, Note_on_c, 3, 77, 78
9, 503777, Note_on_c, 3, 79, 0
9, 503780, Note_on_c, 3, 72, 0
9, 503783, Note_on_c, 3, 71, 78
9, 503881, Note_on_c, 3, 76, 73
9, 503890, Note_on_c, 3, 72, 76
9, 503892, Note_on_c, 3, 74, 0
9, 503896, Note_on_c, 3, 77, 0
9, 503903, Note_on_c, 3, 71, 0
9, 503904, Note_on_c, 3, 69, 65
9, 504001, Note_on_c, 3, 76, 0
9, 504005, Note_on_c, 3, 71, 66
9, 504009, Note_on_c, 3, 74, 68
9, 504010, Note_on_c, 3, 72, 0
9, 504011, Note_on_c, 3, 67, 68
9, 504024, Note_on_c, 3, 69, 0
9, 504123, Note_on_c, 3, 65, 75
9, 504125, Note_on_c, 3, 71, 0
9, 504129, Note_on_c, 3, 74, 0
9, 504131, Note_on_c, 3, 67, 0
9, 504137, Note_on_c, 3, 72, 71
9, 504142, Note_on_c, 3, 69, 55
9, 504243, Note_on_c, 3, 65, 0
9, 504250, Note_on_c, 3, 71, 62
9, 504257, Note_on_c, 3, 72, 0
9, 504259, Note_on_c, 3, 64, 61
9, 504262, Note_on_c, 3, 69, 0
9, 504263, Note_on_c, 3, 67, 68
9, 504363, Note_on_c, 3, 65, 65
9, 504370, Note_on_c, 3, 71, 0
9, 504372, Note_on_c, 3, 62, 63
9, 504372, Note_on_c, 3, 69, 56
9, 504379, Note_on_c, 3, 64, 0
9, 504383, Note_on_c, 3, 67, 0
9, 504483, Note_on_c, 3, 65, 0
9, 504485, Note_on_c, 3, 81, 82
9, 504492, Note_on_c, 3, 62, 0
9, 504492, Note_on_c, 3, 69, 0
9, 504495, Note_on_c, 3, 77, 94
9, 504505, Note_on_c, 3, 74, 85
9, 504605, Note_on_c, 3, 81, 0
9, 504610, Note_on_c, 3, 79, 88
9, 504615, Note_on_c, 3, 77, 0
9, 504622, Note_on_c, 3, 72, 80
9, 504624, Note_on_c, 3, 76, 89
9, 504625, Note_on_c, 3, 74, 0
9, 504728, Note_on_c, 3, 77, 77
9, 504730, Note_on_c, 3, 79, 0
9, 504735, Note_on_c, 3, 71, 76
9, 504742, Note_on_c, 3, 72, 0
9, 504743, Note_on_c, 3, 74, 89
9, 504744, Note_on_c, 3, 76, 0
9, 504847, Note_on_c, 3, 72, 83
9, 504848, Note_on_c, 3, 77, 0
9, 504849, Note_on_c, 3, 76, 74
9, 504855, Note_on_c, 3, 71, 0
9, 504859, Note_on_c, 3, 69, 83
9, 504863, Note_on_c, 3, 74, 0
9, 504967, Note_on_c, 3, 72, 0
9, 504969, Note_on_c, 3, 76, 0
9, 504970, Note_on_c, 3, 74, 76
9, 504972, Note_on_c, 3, 71, 68
9, 504974, Note_on_c, 3, 67, 68
9, 504979, Note_on_c, 3, 69, 0
9, 505082, Note_on_c, 3, 65, 64
9, 505086, Note_on_c, 3, 69, 69
9, 505087, Note_on_c, 3, 72, 75
9, 505090, Note_on_c, 3, 74, 0
9, 505092, Note_on_c, 3, 71, 0
9, 505094, Note_on_c, 3, 67, 0
9, 505200, Note_on_c, 3, 64, 71
9, 505202, Note_on_c, 3, 65, 0
9, 505206, Note_on_c, 3, 69, 0
9, 505207, Note_on_c, 3, 72, 0
9, 505212, Note_on_c, 3, 67, 70
9, 505213, Note_on_c, 3, 71, 65
9, 505320, Note_on_c, 3, 64, 0
9, 505322, Note_on_c, 3, 62, 66
9, 505329, Note_on_c, 3, 69, 66
9, 505332, Note_on_c, 3, 67, 0
9, 505333, Note_on_c, 3, 71, 0
9, 505337, Note_on_c, 3, 65, 65
9, 505442, Note_on_c, 3, 62, 0
9, 505444, Note_on_c, 3, 81, 96
9, 505449, Note_on_c, 3, 69, 0
9, 505453, Note_on_c, 3, 77, 82
9, 505457, Note_on_c, 3, 65, 0
9, 505460, Note_on_c, 3, 74, 96
9, 505564, Note_on_c, 3, 81, 0
9, 505564, Note_on_c, 3, 76, 79
9, 505565, Note_on_c, 3, 72, 81
9, 505573, Note_on_c, 3, 77, 0
9, 505580, Note_on_c, 3, 74, 0
9, 505581, Note_on_c, 3, 79, 73
9, 505684, Note_on_c, 3, 76, 0
9, 505685, Note_on_c, 3, 72, 0
9, 505686, Note_on_c, 3, 77, 78
9, 505689, Note_on_c, 3, 71, 78
9, 505697, Note_on_c, 3, 74, 87
9, 505701, Note_on_c, 3, 79, 0
9, 505800, Note_on_c, 3, 69, 79
9, 505806, Note_on_c, 3, 77, 0
9, 505809, Note_on_c, 3, 71, 0
9, 505809, Note_on_c, 3, 76, 66
9, 505816, Note_on_c, 3, 72, 66
9, 505817, Note_on_c, 3, 74, 0
9, 505920, Note_on_c, 3, 69, 0
9, 505929, Note_on_c, 3, 76, 0
9, 505935, Note_on_c, 3, 81, 91
9, 505936, Note_on_c, 3, 72, 0
9, 505940, Note_on_c, 3, 77, 90
9, 505945, Note_on_c, 3, 74, 83
9, 506041, Note_on_c, 3, 79, 91
9, 506041, Note_on_c, 3, 76, 88
9, 506055, Note_on_c, 3, 81, 0
9, 506057, Note_on_c, 3, 72, 90
9, 506060, Note_on_c, 3, 77, 0
9, 506065, Note_on_c, 3, 74, 0
9, 506161, Note_on_c, 3, 79, 0
9, 506161, Note_on_c, 3, 76, 0
9, 506161, Note_on_c, 3, 77, 82
9, 506177, Note_on_c, 3, 72, 0
9, 506181, Note_on_c, 3, 71, 80
9, 506185, Note_on_c, 3, 74, 77
9, 506281, Note_on_c, 3, 77, 0
9, 506286, Note_on_c, 3, 69, 75
9, 506286, Note_on_c, 3, 72, 69
9, 506298, Note_on_c, 3, 76, 68
9, 506301, Note_on_c, 3, 71, 0
9, 506305, Note_on_c, 3, 74, 0
9, 506406, Note_on_c, 3, 69, 0
9, 506406, Note_on_c, 3, 72, 0
9, 506412, Note_on_c, 3, 74, 77
9, 506415, Note_on_c, 3, 71, 68
9, 506418, Note_on_c, 3, 76, 0
9, 506421, Note_on_c, 3, 67, 69
9, 506530, Note_on_c, 3, 72, 56
9, 506532, Note_on_c, 3, 74, 0
9, 506535, Note_on_c, 3, 71, 0
9, 506535, Note_on_c, 3, 69, 67
9, 506539, Note_on_c, 3, 65, 69
9, 506541, Note_on_c, 3, 67, 0
9, 506646, Note_on_c, 3, 71, 60
9, 506650, Note_on_c, 3, 72, 0
9, 506655, Note_on_c, 3, 69, 0
9, 506657, Note_on_c, 3, 64, 57
9, 506659, Note_on_c, 3, 65, 0
9, 506665, Note_on_c, 3, 67, 64
9, 506765, Note_on_c, 3, 65, 56
9, 506766, Note_on_c, 3, 71, 0
9, 506767, Note_on_c, 3, 62, 51
9, 506772, Note_on_c, 3, 69, 61
9, 506777, Note_on_c, 3, 64, 0
9, 506785, Note_on_c, 3, 67, 0
9, 506881, Note_on_c, 3, 77, 89
9, 506885, Note_on_c, 3, 65, 0
9, 506887, Note_on_c, 3, 62, 0
9, 506890, Note_on_c, 3, 81, 79
9, 506892, Note_on_c, 3, 69, 0
9, 506898, Note_on_c, 3, 74, 89
9, 507001, Note_on_c, 3, 77, 0
9, 507004, Note_on_c, 3, 72, 90
9, 507010, Note_on_c, 3, 81, 0
9, 507014, Note_on_c, 3, 76, 77
9, 507016, Note_on_c, 3, 79, 88
9, 507018, Note_on_c, 3, 74, 0
9, 507124, Note_on_c, 3, 72, 0
9, 507131, Note_on_c, 3, 71, 84
9, 507134, Note_on_c, 3, 76, 0
9, 507136, Note_on_c, 3, 79, 0
9, 507141, Note_on_c, 3, 74, 85
9, 507142, Note_on_c, 3, 77, 89
9, 507246, Note_on_c, 3, 72, 84
9, 507251, Note_on_c, 3, 71, 0
9, 507252, Note_on_c, 3, 76, 80
9, 507256, Note_on_c, 3, 69, 65
9, 507261, Note_on_c, 3, 74, 0
9, 507262, Note_on_c, 3, 77, 0
9, 507364, Note_on_c, 3, 71, 77
9, 507366, Note_on_c, 3, 72, 0
9, 507370, Note_on_c, 3, 74, 67
9, 507372, Note_on_c, 3, 76, 0
9, 507374, Note_on_c, 3, 67, 78
9, 507376, Note_on_c, 3, 69, 0
9, 507481, Note_on_c, 3, 65, 66
9, 507482, Note_on_c, 3, 69, 66
9, 507484, Note_on_c, 3, 71, 0
9, 507486, Note_on_c, 3, 72, 69
9, 507490, Note_on_c, 3, 74, 0
9, 507494, Note_on_c, 3, 67, 0
9, 507601, Note_on_c, 3, 65, 0
9, 507602, Note_on_c, 3, 69, 0
9, 507602, Note_on_c, 3, 64, 71
9, 507606, Note_on_c, 3, 72, 0
9, 507609, Note_on_c, 3, 71, 69
9, 507616, Note_on_c, 3, 67, 66
9, 507722, Note_on_c, 3, 64, 0
9, 507726, Note_on_c, 3, 65, 65
9, 507729, Note_on_c, 3, 71, 0
9, 507736, Note_on_c, 3, 67, 0
9, 507742, Note_on_c, 3, 62, 46
9, 507742, Note_on_c, 3, 69, 49
9, 507846, Note_on_c, 3, 65, 0
9, 507847, Note_on_c, 3, 81, 80
9, 507862, Note_on_c, 3, 62, 0
9, 507862, Note_on_c, 3, 69, 0
9, 507862, Note_on_c, 3, 77, 78
9, 507862, Note_on_c, 3, 74, 95
9, 507967, Note_on_c, 3, 81, 0
9, 507968, Note_on_c, 3, 72, 86
9, 507975, Note_on_c, 3, 79, 85
9, 507980, Note_on_c, 3, 76, 86
9, 507982, Note_on_c, 3, 77, 0
9, 507982, Note_on_c, 3, 74, 0
9, 508085, Note_on_c, 3, 77, 73
9, 508087, Note_on_c, 3, 71, 89
9, 508088, Note_on_c, 3, 72, 0
9, 508095, Note_on_c, 3, 79, 0
9, 508097, Note_on_c, 3, 74, 80
9, 508100, Note_on_c, 3, 76, 0
9, 508205, Note_on_c, 3, 77, 0
9, 508207, Note_on_c, 3, 71, 0
9, 508207, Note_on_c, 3, 76, 69
9, 508217, Note_on_c, 3, 74, 0
9, 508217, Note_on_c, 3, 69, 65
9, 508223, Note_on_c, 3, 72, 84
9, 508323, Note_on_c, 3, 67, 80
9, 508327, Note_on_c, 3, 76, 0
9, 508328, Note_on_c, 3, 74, 62
9, 508337, Note_on_c, 3, 69, 0
9, 508343, Note_on_c, 3, 72, 0
9, 508345, Note_on_c, 3, 71, 65
9, 508443, Note_on_c, 3, 67, 0
9, 508443, Note_on_c, 3, 69, 57
9, 508448, Note_on_c, 3, 74, 0
9, 508451, Note_on_c, 3, 65, 68
9, 508452, Note_on_c, 3, 72, 74
9, 508465, Note_on_c, 3, 71, 0
9, 508560, Note_on_c, 3, 71, 68
9, 508560, Note_on_c, 3, 67, 69
9, 508561, Note_on_c, 3, 64, 64
9, 508563, Note_on_c, 3, 69, 0
9, 508571, Note_on_c, 3, 65, 0
9, 508572, Note_on_c, 3, 72, 0
9, 508680, Note_on_c, 3, 71, 0
9, 508680, Note_on_c, 3, 67, 0
9, 508681, Note_on_c, 3, 64, 0
9, 508684, Note_on_c, 3, 69, 57
9, 508684, Note_on_c, 3, 65, 56
9, 508700, Note_on_c, 3, 62, 58
9, 508804, Note_on_c, 3, 69, 0
9, 508804, Note_on_c, 3, 65, 0
9, 508820, Note_on_c, 3, 62, 0
9, 522006, Note_on_c, 3, 70, 97
9, 522020, Note_on_c, 3, 73, 94
9, 522126, Note_on_c, 3, 70, 0
9, 522140, Note_on_c, 3, 73, 0
9, 522244, Note_on_c, 3, 68, 97
9, 522255, Note_on_c, 3, 72, 79
9, 522364, Note_on_c, 3, 68, 0
9, 522375, Note_on_c, 3, 72, 0
9, 522483, Note_on_c, 3, 70, 83
9, 522488, Note_on_c, 3, 73, 91
9, 522603, Note_on_c, 3, 70, 0
9, 522608, Note_on_c, 3, 73, 0
9, 522726, Note_on_c, 3, 72, 93
9, 522728, Note_on_c, 3, 68, 78
9, 522846, Note_on_c, 3, 72, 0
9, 522848, Note_on_c, 3, 68, 0
9, 522965, Note_on_c, 3, 69, 81
9, 522982, Note_on_c, 3, 66, 85
9, 523085, Note_on_c, 3, 69, 0
9, 523102, Note_on_c, 3, 66, 0
9, 523211, Note_on_c, 3, 65, 79
9, 523216, Note_on_c, 3, 68, 89
9, 523331, Note_on_c, 3, 65, 0
9, 523336, Note_on_c, 3, 68, 0
9, 523445, Note_on_c, 3, 66, 85
9, 523446, Note_on_c, 3, 69, 84
9, 523565, Note_on_c, 3, 66, 0
9, 523566, Note_on_c, 3, 69, 0
9, 523686, Note_on_c, 3, 63, 92
9, 523689, Note_on_c, 3, 67, 86
9, 523806, Note_on_c, 3, 63, 0
9, 523809, Note_on_c, 3, 67, 0
9, 523940, Note_on_c, 3, 68, 94
9, 523944, Note_on_c, 3, 65, 97
9, 524060, Note_on_c, 3, 68, 0
9, 524064, Note_on_c, 3, 65, 0
9, 524166, Note_on_c, 3, 66, 97
9, 524173, Note_on_c, 3, 69, 84
9, 524286, Note_on_c, 3, 66, 0
9, 524293, Note_on_c, 3, 69, 0
9, 524414, Note_on_c, 3, 72, 84
9, 524419, Note_on_c, 3, 68, 96
9, 524534, Note_on_c, 3, 72, 0
9, 524539, Note_on_c, 3, 68, 0
9, 524652, Note_on_c, 3, 73, 94
9, 524662, Note_on_c, 3, 70, 78
9, 524772, Note_on_c, 3, 73, 0
9, 524782, Note_on_c, 3, 70, 0
9, 528244, Note_on_c, 3, 73, 88
9, 528255, Note_on_c, 3, 70, 82
9, 528364, Note_on_c, 3, 73, 0
9, 528375, Note_on_c, 3, 70, 0
9, 528496, Note_on_c, 3, 72, 79
9, 528503, Note_on_c, 3, 68, 88
9, 528616, Note_on_c, 3, 72, 0
9, 528623, Note_on_c, 3, 68, 0
9, 528741, Note_on_c, 3, 70, 86
9, 528744, Note_on_c, 3, 73, 89
9, 528861, Note_on_c, 3, 70, 0
9, 528864, Note_on_c, 3, 73, 0
9, 528974, Note_on_c, 3, 68, 87
9, 528981, Note_on_c, 3, 72, 87
9, 529094, Note_on_c, 3, 68, 0
9, 529101, Note_on_c, 3, 72, 0
9, 529202, Note_on_c, 3, 69, 84
9, 529222, Note_on_c, 3, 66, 98
9, 529322, Note_on_c, 3, 69, 0
9, 529342, Note_on_c, 3, 66, 0
9, 529450, Note_on_c, 3, 68, 91
9, 529453, Note_on_c, 3, 65, 88
9, 529570, Note_on_c, 3, 68, 0
9, 529573, Note_on_c, 3, 65, 0
9, 529688, Note_on_c, 3, 69, 91
9, 529699, Note_on_c, 3, 66, 96
9, 529808, Note_on_c, 3, 69, 0
9, 529819, Note_on_c, 3, 66, 0
9, 529943, Note_on_c, 3, 63, 89
9, 529944, Note_on_c, 3, 67, 85
9, 530063, Note_on_c, 3, 63, 0
9, 530064, Note_on_c, 3, 67, 0
9, 530170, Note_on_c, 3, 67, 79
9, 530173, Note_on_c, 3, 63, 86
9, 530290, Note_on_c, 3, 67, 0
9, 530293, Note_on_c, 3, 63, 0
9, 530410, Note_on_c, 3, 63, 93
9, 530419, Note_on_c, 3, 67, 85
9, 530530, Note_on_c, 3, 63, 0
9, 530539, Note_on_c, 3, 67, 0
9, 530642, Note_on_c, 3, 65, 97
9, 530658, Note_on_c, 3, 68, 88
9, 530762, Note_on_c, 3, 65, 0
9, 530778, Note_on_c, 3, 68, 0
9, 530902, Note_on_c, 3, 69, 78
9, 530905, Note_on_c, 3, 66, 88
9, 531022, Note_on_c, 3, 69, 0
9, 531025, Note_on_c, 3, 66, 0
9, 531124, Note_on_c, 3, 72, 81
9, 531136, Note_on_c, 3, 68, 90
9, 531244, Note_on_c, 3, 72, 0
9, 531256, Note_on_c, 3, 68, 0
9, 531365, Note_on_c, 3, 70, 81
9, 531384, Note_on_c, 3, 73, 88
9, 531485, Note_on_c, 3, 70, 0
9, 531504, Note_on_c, 3, 73, 0
9, 531855, Note_on_c, 3, 75, 52
9, 532095, Note_on_c, 3, 75, 0
9, 532098, Note_on_c, 3, 76, 60
9, 532336, Note_on_c, 3, 78, 55
9, 532338, Note_on_c, 3, 76, 0
9, 533043, Note_on_c, 3, 76, 71
9, 533056, Note_on_c, 3, 78, 0
9, 533282, Note_on_c, 3, 75, 56
9, 533283, Note_on_c, 3, 76, 0
9, 533522, Note_on_c, 3, 75, 0
9, 533542, Note_on_c, 3, 73, 72
9, 533782, Note_on_c, 3, 73, 0
9, 535692, Note_on_c, 3, 75, 63
9, 535932, Note_on_c, 3, 75, 0
9, 535936, Note_on_c, 3, 76, 55
9, 536160, Note_on_c, 3, 78, 59
9, 536176, Note_on_c, 3, 76, 0
9, 536480, Note_on_c, 3, 78, 0
9, 536485, Note_on_c, 3, 76, 59
9, 536804, Note_on_c, 3, 76, 0
9, 536815, Note_on_c, 3, 75, 71
9, 537135, Note_on_c, 3, 75, 0
9, 537137, Note_on_c, 3, 73, 59
9, 537617, Note_on_c, 3, 73, 0
9, 552497, Note_on_c, 3, 72, 96
9, 552725, Note_on_c, 3, 74, 79
9, 552737, Note_on_c, 3, 72, 0
9, 552965, Note_on_c, 3, 74, 0
9, 552968, Note_on_c, 3, 76, 82
9, 553688, Note_on_c, 3, 76, 0
9, 553700, Note_on_c, 3, 74, 84
9, 553929, Note_on_c, 3, 72, 83
9, 553940, Note_on_c, 3, 74, 0
9, 554160, Note_on_c, 3, 71, 84
9, 554169, Note_on_c, 3, 72, 0
9, 554400, Note_on_c, 3, 71, 0
9, 554408, Note_on_c, 3, 72, 82
9, 554648, Note_on_c, 3, 72, 0
9, 554663, Note_on_c, 3, 74, 90
9, 554903, Note_on_c, 3, 74, 0
9, 554904, Note_on_c, 3, 76, 90
9, 555372, Note_on_c, 3, 74, 81
9, 555384, Note_on_c, 3, 76, 0
9, 555612, Note_on_c, 3, 74, 0
9, 555618, Note_on_c, 3, 72, 90
9, 555844, Note_on_c, 3, 71, 96
9, 555858, Note_on_c, 3, 72, 0
9, 556324, Note_on_c, 3, 71, 0
9, 556335, Note_on_c, 3, 72, 92
9, 556566, Note_on_c, 3, 74, 83
9, 556575, Note_on_c, 3, 72, 0
9, 556806, Note_on_c, 3, 74, 0
9, 556822, Note_on_c, 3, 76, 96
9, 557282, Note_on_c, 3, 72, 92
9, 557302, Note_on_c, 3, 76, 0
9, 557522, Note_on_c, 3, 72, 0
9, 557545, Note_on_c, 3, 74, 94
9, 557767, Note_on_c, 3, 76, 85
9, 557785, Note_on_c, 3, 74, 0
9, 558487, Note_on_c, 3, 76, 0
9, 558504, Note_on_c, 3, 74, 89
9, 558726, Note_on_c, 3, 72, 81
9, 558744, Note_on_c, 3, 74, 0
9, 558966, Note_on_c, 3, 72, 0
9, 558968, Note_on_c, 3, 71, 84
9, 559208, Note_on_c, 3, 71, 0
9, 559223, Note_on_c, 3, 72, 86
9, 559441, Note_on_c, 3, 74, 82
9, 559463, Note_on_c, 3, 72, 0
9, 559681, Note_on_c, 3, 74, 0
9, 559698, Note_on_c, 3, 76, 84
9, 560418, Note_on_c, 3, 76, 0
9, 560419, Note_on_c, 3, 74, 81
9, 560659, Note_on_c, 3, 74, 0
9, 560661, Note_on_c, 3, 72, 87
9, 560886, Note_on_c, 3, 71, 91
9, 560901, Note_on_c, 3, 72, 0
9, 561126, Note_on_c, 3, 71, 0
9, 561135, Note_on_c, 3, 72, 82
9, 561367, Note_on_c, 3, 74, 86
9, 561375, Note_on_c, 3, 72, 0
9, 561603, Note_on_c, 3, 75, 92
9, 561607, Note_on_c, 3, 74, 0
9, 561843, Note_on_c, 3, 75, 0
9, 571689, Note_on_c, 3, 80, 108
9, 571690, Note_on_c, 3, 84, 104
9, 572889, Note_on_c, 3, 80, 0
9, 572890, Note_on_c, 3, 84, 0
9, 574563, Note_on_c, 3, 84, 97
9, 574585, Note_on_c, 3, 80, 94
9, 575763, Note_on_c, 3, 84, 0
9, 575785, Note_on_c, 3, 80, 0
9, 576000, Note_on_c, 3, 77, 115
9, 576000, Note_on_c, 3, 81, 110
9, 576143, Note_on_c, 3, 77, 0
9, 576143, Note_on_c, 3, 81, 0
9, 576495, Note_on_c, 3, 75, 104
9, 576496, Note_on_c, 3, 80, 115
9, 576638, Note_on_c, 3, 75, 0
9, 576639, Note_on_c, 3, 80, 0
9, 576984, Note_on_c, 3, 74, 113
9, 576985, Note_on_c, 3, 77, 111
9, 577127, Note_on_c, 3, 74, 0
9, 577128, Note_on_c, 3, 77, 0
9, 579362, Note_on_c, 3, 75, 101
9, 579363, Note_on_c, 3, 80, 104
9, 579505, Note_on_c, 3, 75, 0
9, 579506, Note_on_c, 3, 80, 0
9, 579856, Note_on_c, 3, 77, 109
9, 579857, Note_on_c, 3, 74, 107
9, 579999, Note_on_c, 3, 77, 0
9, 580000, Note_on_c, 3, 74, 0
9, 590413, Note_on_c, 3, 84, 99
9, 590504, Note_on_c, 3, 83, 97
9, 590533, Note_on_c, 3, 84, 0
9, 590581, Note_on_c, 3, 84, 102
9, 590622, Note_on_c, 3, 83, 0
9, 590647, Note_on_c, 3, 83, 91
9, 590701, Note_on_c, 3, 84, 0
9, 590734, Note_on_c, 3, 84, 110
9, 590767, Note_on_c, 3, 83, 0
9, 590800, Note_on_c, 3, 83, 95
9, 590852, Note_on_c, 3, 84, 0
9, 590885, Note_on_c, 3, 84, 95
9, 590920, Note_on_c, 3, 83, 0
9, 590967, Note_on_c, 3, 83, 95
9, 591005, Note_on_c, 3, 84, 0
9, 591042, Note_on_c, 3, 84, 98
9, 591085, Note_on_c, 3, 83, 0
9, 591133, Note_on_c, 3, 83, 101
9, 591162, Note_on_c, 3, 84, 0
9, 591214, Note_on_c, 3, 84, 96
9, 591253, Note_on_c, 3, 83, 0
9, 591289, Note_on_c, 3, 83, 107
9, 591332, Note_on_c, 3, 84, 0
9, 591382, Note_on_c, 3, 84, 94
9, 591409, Note_on_c, 3, 83, 0
9, 591457, Note_on_c, 3, 83, 110
9, 591502, Note_on_c, 3, 84, 0
9, 591535, Note_on_c, 3, 84, 106
9, 591575, Note_on_c, 3, 83, 0
9, 591603, Note_on_c, 3, 83, 92
9, 591655, Note_on_c, 3, 84, 0
9, 591682, Note_on_c, 3, 84, 110
9, 591723, Note_on_c, 3, 83, 0
9, 591783, Note_on_c, 3, 83, 107
9, 591800, Note_on_c, 3, 84, 0
9, 591848, Note_on_c, 3, 84, 98
9, 591903, Note_on_c, 3, 83, 0
9, 591924, Note_on_c, 3, 83, 97
9, 591968, Note_on_c, 3, 84, 0
9, 592006, Note_on_c, 3, 84, 104
9, 592042, Note_on_c, 3, 83, 0
9, 592084, Note_on_c, 3, 83, 92
9, 592126, Note_on_c, 3, 84, 0
9, 592167, Note_on_c, 3, 84, 110
9, 592204, Note_on_c, 3, 83, 0
9, 592240, Note_on_c, 3, 83, 100
9, 592285, Note_on_c, 3, 84, 0
9, 592334, Note_on_c, 3, 84, 98
9, 592360, Note_on_c, 3, 83, 0
9, 592405, Note_on_c, 3, 83, 99
9, 592454, Note_on_c, 3, 84, 0
9, 592500, Note_on_c, 3, 84, 108
9, 592523, Note_on_c, 3, 83, 0
9, 592563, Note_on_c, 3, 83, 93
9, 592620, Note_on_c, 3, 84, 0
9, 592665, Note_on_c, 3, 84, 103
9, 592683, Note_on_c, 3, 83, 0
9, 592733, Note_on_c, 3, 83, 98
9, 592783, Note_on_c, 3, 84, 0
9, 592819, Note_on_c, 3, 84, 98
9, 592853, Note_on_c, 3, 83, 0
9, 592892, Note_on_c, 3, 83, 103
9, 592939, Note_on_c, 3, 84, 0
9, 592972, Note_on_c, 3, 84, 95
9, 593010, Note_on_c, 3, 83, 0
9, 593055, Note_on_c, 3, 83, 91
9, 593092, Note_on_c, 3, 84, 0
9, 593143, Note_on_c, 3, 84, 100
9, 593175, Note_on_c, 3, 83, 0
9, 593211, Note_on_c, 3, 83, 91
9, 593261, Note_on_c, 3, 84, 0
9, 593280, Note_on_c, 3, 84, 108
9, 593331, Note_on_c, 3, 83, 0
9, 593379, Note_on_c, 3, 83, 93
9, 593400, Note_on_c, 3, 84, 0
9, 593454, Note_on_c, 3, 84, 98
9, 593497, Note_on_c, 3, 83, 0
9, 593525, Note_on_c, 3, 83, 100
9, 593574, Note_on_c, 3, 84, 0
9, 593617, Note_on_c, 3, 84, 101
9, 593645, Note_on_c, 3, 83, 0
9, 593699, Note_on_c, 3, 83, 93
9, 593735, Note_on_c, 3, 84, 0
9, 593772, Note_on_c, 3, 84, 109
9, 593819, Note_on_c, 3, 83, 0
9, 593963, Note_on_c, 3, 84, 0
9, 594254, Note_on_c, 3, 79, 122
9, 594374, Note_on_c, 3, 79, 0
9, 594504, Note_on_c, 3, 81, 121
9, 594624, Note_on_c, 3, 81, 0
9, 594726, Note_on_c, 3, 83, 116
9, 594846, Note_on_c, 3, 83, 0
9, 594965, Note_on_c, 3, 84, 113
9, 595085, Note_on_c, 3, 84, 0
9, 595211, Note_on_c, 3, 83, 117
9, 595331, Note_on_c, 3, 83, 0
9, 595465, Note_on_c, 3, 84, 105
9, 595585, Note_on_c, 3, 84, 0
9, 595680, Note_on_c, 3, 83, 114
9, 595800, Note_on_c, 3, 83, 0
9, 595929, Note_on_c, 3, 86, 108
9, 596049, Note_on_c, 3, 86, 0
9, 596177, Note_on_c, 3, 81, 111
9, 596537, Note_on_c, 3, 81, 0
9, 596655, Note_on_c, 3, 83, 123
9, 596775, Note_on_c, 3, 83, 0
9, 596890, Note_on_c, 3, 84, 109
9, 597010, Note_on_c, 3, 84, 0
9, 597144, Note_on_c, 3, 83, 108
9, 597264, Note_on_c, 3, 83, 0
9, 597379, Note_on_c, 3, 86, 108
9, 597499, Note_on_c, 3, 86, 0
9, 597601, Note_on_c, 3, 81, 119
9, 597961, Note_on_c, 3, 81, 0
9, 598099, Note_on_c, 3, 81, 114
9, 598242, Note_on_c, 3, 81, 0
9, 598576, Note_on_c, 3, 76, 104
9, 598582, Note_on_c, 3, 79, 107
9, 598696, Note_on_c, 3, 76, 0
9, 598702, Note_on_c, 3, 79, 0
9, 598810, Note_on_c, 3, 81, 107
9, 598811, Note_on_c, 3, 77, 109
9, 598930, Note_on_c, 3, 81, 0
9, 598931, Note_on_c, 3, 77, 0
9, 599045, Note_on_c, 3, 79, 105
9, 599052, Note_on_c, 3, 83, 123
9, 599165, Note_on_c, 3, 79, 0
9, 599172, Note_on_c, 3, 83, 0
9, 599299, Note_on_c, 3, 81, 104
9, 599299, Note_on_c, 3, 84, 122
9, 599419, Note_on_c, 3, 81, 0
9, 599419, Note_on_c, 3, 84, 0
9, 599525, Note_on_c, 3, 83, 111
9, 599537, Note_on_c, 3, 79, 120
9, 599645, Note_on_c, 3, 83, 0
9, 599657, Note_on_c, 3, 79, 0
9, 599769, Note_on_c, 3, 81, 110
9, 599783, Note_on_c, 3, 84, 107
9, 599889, Note_on_c, 3, 81, 0
9, 599903, Note_on_c, 3, 84, 0
9, 600021, Note_on_c, 3, 83, 118
9, 600024, Note_on_c, 3, 79, 108
9, 600141, Note_on_c, 3, 83, 0
9, 600144, Note_on_c, 3, 79, 0
9, 600245, Note_on_c, 3, 86, 105
9, 600262, Note_on_c, 3, 81, 111
9, 600365, Note_on_c, 3, 86, 0
9, 600382, Note_on_c, 3, 81, 0
9, 600496, Note_on_c, 3, 81, 110
9, 600500, Note_on_c, 3, 84, 111
9, 600616, Note_on_c, 3, 81, 0
9, 600620, Note_on_c, 3, 84, 0
9, 600722, Note_on_c, 3, 83, 108
9, 600723, Note_on_c, 3, 79, 113
9, 600842, Note_on_c, 3, 83, 0
9, 600843, Note_on_c, 3, 79, 0
9, 600977, Note_on_c, 3, 81, 116
9, 600980, Note_on_c, 3, 77, 114
9, 601097, Note_on_c, 3, 81, 0
9, 601100, Note_on_c, 3, 77, 0
9, 601201, Note_on_c, 3, 79, 106
9, 601223, Note_on_c, 3, 76, 119
9, 601321, Note_on_c, 3, 79, 0
9, 601343, Note_on_c, 3, 76, 0
9, 601461, Note_on_c, 3, 81, 110
9, 601517, Note_on_c, 3, 83, 123
9, 601576, Note_on_c, 3, 81, 0
9, 601615, Note_on_c, 3, 81, 117
9, 601632, Note_on_c, 3, 83, 0
9, 601689, Note_on_c, 3, 83, 114
9, 601730, Note_on_c, 3, 81, 0
9, 601772, Note_on_c, 3, 81, 104
9, 601804, Note_on_c, 3, 83, 0
9, 601850, Note_on_c, 3, 83, 121
9, 601887, Note_on_c, 3, 81, 0
9, 601910, Note_on_c, 3, 81, 114
9, 601965, Note_on_c, 3, 83, 0
9, 601988, Note_on_c, 3, 83, 112
9, 602025, Note_on_c, 3, 81, 0
9, 602073, Note_on_c, 3, 81, 123
9, 602103, Note_on_c, 3, 83, 0
9, 602140, Note_on_c, 3, 83, 113
9, 602188, Note_on_c, 3, 81, 0
9, 602220, Note_on_c, 3, 81, 115
9, 602255, Note_on_c, 3, 83, 0
9, 602295, Note_on_c, 3, 83, 104
9, 602335, Note_on_c, 3, 81, 0
9, 602379, Note_on_c, 3, 81, 109
9, 602410, Note_on_c, 3, 83, 0
9, 602454, Note_on_c, 3, 83, 119
9, 602494, Note_on_c, 3, 81, 0
9, 602549, Note_on_c, 3, 81, 124
9, 602569, Note_on_c, 3, 83, 0
9, 602608, Note_on_c, 3, 83, 113
9, 602664, Note_on_c, 3, 81, 0
9, 602691, Note_on_c, 3, 81, 109
9, 602723, Note_on_c, 3, 83, 0
9, 602769, Note_on_c, 3, 83, 109
9, 602806, Note_on_c, 3, 81, 0
9, 602846, Note_on_c, 3, 81, 116
9, 602884, Note_on_c, 3, 83, 0
9, 602933, Note_on_c, 3, 83, 115
9, 602961, Note_on_c, 3, 81, 0
9, 602997, Note_on_c, 3, 81, 121
9, 603048, Note_on_c, 3, 83, 0
9, 603092, Note_on_c, 3, 83, 105
9, 603112, Note_on_c, 3, 81, 0
9, 603174, Note_on_c, 3, 81, 119
9, 603207, Note_on_c, 3, 83, 0
9, 603239, Note_on_c, 3, 83, 120
9, 603289, Note_on_c, 3, 81, 0
9, 603317, Note_on_c, 3, 81, 113
9, 603354, Note_on_c, 3, 83, 0
9, 603389, Note_on_c, 3, 83, 120
9, 603432, Note_on_c, 3, 81, 0
9, 603476, Note_on_c, 3, 81, 112
9, 603504, Note_on_c, 3, 83, 0
9, 603550, Note_on_c, 3, 83, 120
9, 603591, Note_on_c, 3, 81, 0
9, 603618, Note_on_c, 3, 81, 108
9, 603665, Note_on_c, 3, 83, 0
9, 603717, Note_on_c, 3, 83, 118
9, 603733, Note_on_c, 3, 81, 0
9, 603798, Note_on_c, 3, 81, 115
9, 603832, Note_on_c, 3, 83, 0
9, 603873, Note_on_c, 3, 83, 110
9, 603913, Note_on_c, 3, 81, 0
9, 603945, Note_on_c, 3, 81, 115
9, 603988, Note_on_c, 3, 83, 0
9, 604028, Note_on_c, 3, 83, 113
9, 604060, Note_on_c, 3, 81, 0
9, 604095, Note_on_c, 3, 81, 121
9, 604143, Note_on_c, 3, 83, 0
9, 604173, Note_on_c, 3, 83, 111
9, 604210, Note_on_c, 3, 81, 0
9, 604262, Note_on_c, 3, 81, 111
9, 604288, Note_on_c, 3, 83, 0
9, 604325, Note_on_c, 3, 79, 98
9, 604345, Note_on_c, 3, 76, 80
9, 604374, Note_on_c, 3, 81, 0
9, 605045, Note_on_c, 3, 79, 0
9, 605059, Note_on_c, 3, 74, 96
9, 605063, Note_on_c, 3, 77, 90
9, 605065, Note_on_c, 3, 76, 0
9, 605289, Note_on_c, 3, 76, 81
9, 605299, Note_on_c, 3, 74, 0
9, 605303, Note_on_c, 3, 77, 0
9, 605304, Note_on_c, 3, 72, 95
9, 605522, Note_on_c, 3, 74, 85
9, 605529, Note_on_c, 3, 76, 0
9, 605529, Note_on_c, 3, 70, 84
9, 605544, Note_on_c, 3, 72, 0
9, 605762, Note_on_c, 3, 74, 0
9, 605769, Note_on_c, 3, 70, 0
9, 605770, Note_on_c, 3, 76, 83
9, 605784, Note_on_c, 3, 72, 87
9, 606007, Note_on_c, 3, 77, 79
9, 606010, Note_on_c, 3, 76, 0
9, 606012, Note_on_c, 3, 74, 85
9, 606024, Note_on_c, 3, 72, 0
9, 606243, Note_on_c, 3, 79, 90
9, 606247, Note_on_c, 3, 77, 0
9, 606252, Note_on_c, 3, 74, 0
9, 606265, Note_on_c, 3, 76, 96
9, 606723, Note_on_c, 3, 79, 0
9, 606735, Note_on_c, 3, 74, 98
9, 606741, Note_on_c, 3, 77, 86
9, 606745, Note_on_c, 3, 76, 0
9, 606967, Note_on_c, 3, 76, 81
9, 606975, Note_on_c, 3, 74, 0
9, 606976, Note_on_c, 3, 72, 84
9, 606981, Note_on_c, 3, 77, 0
9, 607204, Note_on_c, 3, 70, 82
9, 607207, Note_on_c, 3, 76, 0
9, 607216, Note_on_c, 3, 72, 0
9, 607220, Note_on_c, 3, 74, 98
9, 607684, Note_on_c, 3, 70, 0
9, 607685, Note_on_c, 3, 72, 92
9, 607700, Note_on_c, 3, 74, 0
9, 607704, Note_on_c, 3, 76, 95
9, 607925, Note_on_c, 3, 72, 0
9, 607939, Note_on_c, 3, 77, 81
9, 607944, Note_on_c, 3, 76, 0
9, 607944, Note_on_c, 3, 74, 94
9, 608174, Note_on_c, 3, 79, 84
9, 608179, Note_on_c, 3, 77, 0
9, 608182, Note_on_c, 3, 76, 97
9, 608184, Note_on_c, 3, 74, 0
9, 608883, Note_on_c, 3, 77, 92
9, 608887, Note_on_c, 3, 74, 94
9, 608894, Note_on_c, 3, 79, 0
9, 608902, Note_on_c, 3, 76, 0
9, 609123, Note_on_c, 3, 77, 0
9, 609127, Note_on_c, 3, 74, 0
9, 609142, Note_on_c, 3, 76, 90
9, 609145, Note_on_c, 3, 72, 95
9, 609379, Note_on_c, 3, 70, 97
9, 609381, Note_on_c, 3, 74, 86
9, 609382, Note_on_c, 3, 76, 0
9, 609385, Note_on_c, 3, 72, 0
9, 609617, Note_on_c, 3, 72, 78
9, 609619, Note_on_c, 3, 70, 0
9, 609621, Note_on_c, 3, 74, 0
9, 609621, Note_on_c, 3, 76, 85
9, 609846, Note_on_c, 3, 77, 78
9, 609857, Note_on_c, 3, 72, 0
9, 609861, Note_on_c, 3, 76, 0
9, 609861, Note_on_c, 3, 74, 98
9, 610086, Note_on_c, 3, 77, 0
9, 610086, Note_on_c, 3, 76, 96
9, 610092, Note_on_c, 3, 79, 84
9, 610101, Note_on_c, 3, 74, 0
9, 610801, Note_on_c, 3, 77, 95
9, 610804, Note_on_c, 3, 74, 90
9, 610806, Note_on_c, 3, 76, 0
9, 610812, Note_on_c, 3, 79, 0
9, 611041, Note_on_c, 3, 77, 0
9, 611044, Note_on_c, 3, 74, 0
9, 611048, Note_on_c, 3, 72, 89
9, 611056, Note_on_c, 3, 76, 95
9, 611280, Note_on_c, 3, 74, 78
9, 611288, Note_on_c, 3, 72, 0
9, 611296, Note_on_c, 3, 76, 0
9, 611304, Note_on_c, 3, 70, 80
9, 611520, Note_on_c, 3, 74, 0
9, 611529, Note_on_c, 3, 76, 81
9, 611544, Note_on_c, 3, 70, 0
9, 611544, Note_on_c, 3, 72, 97
9, 611765, Note_on_c, 3, 77, 93
9, 611769, Note_on_c, 3, 76, 0
9, 611770, Note_on_c, 3, 74, 82
9, 611784, Note_on_c, 3, 72, 0
9, 612005, Note_on_c, 3, 77, 0
9, 612010, Note_on_c, 3, 74, 0
9, 612020, Note_on_c, 3, 79, 80
9, 612024, Note_on_c, 3, 76, 85
9, 612485, Note_on_c, 3, 77, 81
9, 612490, Note_on_c, 3, 74, 93
9, 612500, Note_on_c, 3, 79, 0
9, 612504, Note_on_c, 3, 76, 0
9, 612725, Note_on_c, 3, 77, 0
9, 612730, Note_on_c, 3, 74, 0
9, 612739, Note_on_c, 3, 72, 82
9, 612743, Note_on_c, 3, 76, 86
9, 612966, Note_on_c, 3, 70, 98
9, 612978, Note_on_c, 3, 74, 81
9, 612979, Note_on_c, 3, 72, 0
9, 612983, Note_on_c, 3, 76, 0
9, 613446, Note_on_c, 3, 70, 0
9, 613452, Note_on_c, 3, 76, 79
9, 613455, Note_on_c, 3, 72, 93
9, 613458, Note_on_c, 3, 74, 0
9, 613690, Note_on_c, 3, 77, 87
9, 613692, Note_on_c, 3, 76, 0
9, 613693, Note_on_c, 3, 74, 83
9, 613695, Note_on_c, 3, 72, 0
9, 613927, Note_on_c, 3, 79, 79
9, 613930, Note_on_c, 3, 77, 0
9, 613933, Note_on_c, 3, 74, 0
9, 613944, Note_on_c, 3, 76, 97
9, 614647, Note_on_c, 3, 79, 0
9, 614651, Note_on_c, 3, 74, 81
9, 614659, Note_on_c, 3, 77, 84
9, 614664, Note_on_c, 3, 76, 0
9, 614889, Note_on_c, 3, 72, 79
9, 614891, Note_on_c, 3, 74, 0
9, 614899, Note_on_c, 3, 77, 0
9, 614904, Note_on_c, 3, 76, 95
9, 615124, Note_on_c, 3, 74, 89
9, 615129, Note_on_c, 3, 72, 0
9, 615143, Note_on_c, 3, 70, 78
9, 615144, Note_on_c, 3, 76, 0
9, 615360, Note_on_c, 3, 72, 84
9, 615364, Note_on_c, 3, 74, 0
9, 615369, Note_on_c, 3, 76, 90
9, 615383, Note_on_c, 3, 70, 0
9, 615600, Note_on_c, 3, 72, 0
9, 615609, Note_on_c, 3, 76, 0
9, 615612, Note_on_c, 3, 77, 94
9, 615617, Note_on_c, 3, 74, 79
9, 615852, Note_on_c, 3, 77, 0
9, 615854, Note_on_c, 3, 76, 85
9, 615857, Note_on_c, 3, 74, 0
9, 615863, Note_on_c, 3, 79, 80
9, 616323, Note_on_c, 3, 77, 80
9, 616334, Note_on_c, 3, 76, 0
9, 616337, Note_on_c, 3, 74, 96
9, 616343, Note_on_c, 3, 79, 0
9, 616563, Note_on_c, 3, 77, 0
9, 616565, Note_on_c, 3, 72, 87
9, 616577, Note_on_c, 3, 74, 0
9, 616583, Note_on_c, 3, 76, 79
9, 616801, Note_on_c, 3, 70, 91
9, 616803, Note_on_c, 3, 74, 83
9, 616805, Note_on_c, 3, 72, 0
9, 616823, Note_on_c, 3, 76, 0
9, 617280, Note_on_c, 3, 72, 94
9, 617281, Note_on_c, 3, 70, 0
9, 617283, Note_on_c, 3, 74, 0
9, 617292, Note_on_c, 3, 76, 98
9, 617520, Note_on_c, 3, 72, 0
9, 617524, Note_on_c, 3, 74, 82
9, 617532, Note_on_c, 3, 76, 0
9, 617536, Note_on_c, 3, 77, 89
9, 617763, Note_on_c, 3, 76, 92
9, 617764, Note_on_c, 3, 74, 0
9, 617776, Note_on_c, 3, 77, 0
9, 617782, Note_on_c, 3, 79, 89
9, 618243, Note_on_c, 3, 76, 0
9, 618250, Note_on_c, 3, 74, 80
9, 618260, Note_on_c, 3, 77, 87
9, 618262, Note_on_c, 3, 79, 0
9, 618490, Note_on_c, 3, 74, 0
9, 618497, Note_on_c, 3, 76, 88
9, 618500, Note_on_c, 3, 77, 0
9, 618500, Note_on_c, 3, 72, 81
9, 618737, Note_on_c, 3, 76, 0
9, 618739, Note_on_c, 3, 70, 78
9, 618740, Note_on_c, 3, 72, 0
9, 618743, Note_on_c, 3, 74, 93
9, 619209, Note_on_c, 3, 72, 92
9, 619216, Note_on_c, 3, 76, 92
9, 619219, Note_on_c, 3, 70, 0
9, 619223, Note_on_c, 3, 74, 0
9, 619449, Note_on_c, 3, 72, 0
9, 619455, Note_on_c, 3, 77, 81
9, 619456, Note_on_c, 3, 76, 0
9, 619464, Note_on_c, 3, 74, 79
9, 619690, Note_on_c, 3, 76, 92
9, 619695, Note_on_c, 3, 77, 0
9, 619698, Note_on_c, 3, 79, 98
9, 619704, Note_on_c, 3, 74, 0
9, 620410, Note_on_c, 3, 76, 0
9, 620417, Note_on_c, 3, 74, 79
9, 620418, Note_on_c, 3, 79, 0
9, 620423, Note_on_c, 3, 77, 96
9, 620657, Note_on_c, 3, 74, 0
9, 620661, Note_on_c, 3, 72, 92
9, 620661, Note_on_c, 3, 76, 92
9, 620663, Note_on_c, 3, 77, 0
9, 620896, Note_on_c, 3, 74, 81
9, 620901, Note_on_c, 3, 72, 0
9, 620901, Note_on_c, 3, 76, 0
9, 620903, Note_on_c, 3, 70, 92
9, 621136, Note_on_c, 3, 74, 0
9, 621141, Note_on_c, 3, 72, 83
9, 621141, Note_on_c, 3, 76, 88
9, 621143, Note_on_c, 3, 70, 0
9, 621381, Note_on_c, 3, 72, 0
9, 621381, Note_on_c, 3, 76, 0
9, 621384, Note_on_c, 3, 77, 86
9, 621385, Note_on_c, 3, 74, 87
9, 621608, Note_on_c, 3, 76, 81
9, 621617, Note_on_c, 3, 79, 79
9, 621624, Note_on_c, 3, 77, 0
9, 621625, Note_on_c, 3, 74, 0
9, 622088, Note_on_c, 3, 76, 0
9, 622090, Note_on_c, 3, 74, 89
9, 622095, Note_on_c, 3, 77, 82
9, 622097, Note_on_c, 3, 79, 0
9, 622326, Note_on_c, 3, 72, 87
9, 622330, Note_on_c, 3, 74, 0
9, 622335, Note_on_c, 3, 77, 0
9, 622337, Note_on_c, 3, 76, 94
9, 622566, Note_on_c, 3, 72, 0
9, 622575, Note_on_c, 3, 74, 88
9, 622577, Note_on_c, 3, 76, 0
9, 622580, Note_on_c, 3, 70, 83
9, 623055, Note_on_c, 3, 74, 0
9, 623060, Note_on_c, 3, 70, 0
9, 624000, Note_on_c, 3, 77, 104
9, 624000, Note_on_c, 3, 70, 91
9, 624031, Note_on_c, 3, 70, 0
9, 624031, Note_on_c, 3, 72, 98
9, 624039, Note_on_c, 3, 77, 0
9, 624039, Note_on_c, 3, 78, 100
9, 624063, Note_on_c, 3, 72, 0
9, 624063, Note_on_c, 3, 73, 106
9, 624079, Note_on_c, 3, 78, 0
9, 624080, Note_on_c, 3, 82, 106
9, 624095, Note_on_c, 3, 73, 0
9, 624095, Note_on_c, 3, 77, 100
9, 624119, Note_on_c, 3, 82, 0
9, 624120, Note_on_c, 3, 84, 98
9, 624127, Note_on_c, 3, 77, 0
9, 624127, Note_on_c, 3, 78, 106
9, 624158, Note_on_c, 3, 78, 0
9, 624159, Note_on_c, 3, 84, 0
9, 624168, Note_on_c, 3, 81, 102
9, 624175, Note_on_c, 3, 88, 100
9, 624328, Note_on_c, 3, 81, 0
9, 624335, Note_on_c, 3, 88, 0
9, 654241, Note_on_c, 3, 56, 98
9, 654249, Note_on_c, 3, 50, 101
9, 654336, Note_on_c, 3, 56, 0
9, 654344, Note_on_c, 3, 50, 0
9, 654497, Note_on_c, 3, 50, 103
9, 654503, Note_on_c, 3, 56, 102
9, 654592, Note_on_c, 3, 50, 0
9, 654598, Note_on_c, 3, 56, 0
9, 654726, Note_on_c, 3, 51, 100
9, 654733, Note_on_c, 3, 57, 92
9, 654821, Note_on_c, 3, 51, 0
9, 654828, Note_on_c, 3, 57, 0
9, 654970, Note_on_c, 3, 51, 98
9, 654971, Note_on_c, 3, 57, 105
9, 655065, Note_on_c, 3, 51, 0
9, 655066, Note_on_c, 3, 57, 0
9, 655207, Note_on_c, 3, 58, 93
9, 655225, Note_on_c, 3, 52, 102
9, 655302, Note_on_c, 3, 58, 0
9, 655320, Note_on_c, 3, 52, 0
9, 655448, Note_on_c, 3, 52, 94
9, 655448, Note_on_c, 3, 58, 94
9, 655543, Note_on_c, 3, 52, 0
9, 655543, Note_on_c, 3, 58, 0
9, 655682, Note_on_c, 3, 59, 101
9, 655684, Note_on_c, 3, 53, 95
9, 655777, Note_on_c, 3, 59, 0
9, 655779, Note_on_c, 3, 53, 0
9, 655925, Note_on_c, 3, 53, 106
9, 655939, Note_on_c, 3, 59, 106
9, 656020, Note_on_c, 3, 53, 0
9, 656034, Note_on_c, 3, 59, 0
9, 656175, Note_on_c, 3, 50, 103
9, 656181, Note_on_c, 3, 55, 95
9, 656270, Note_on_c, 3, 50, 0
9, 656276, Note_on_c, 3, 55, 0
9, 656415, Note_on_c, 3, 55, 93
9, 656425, Note_on_c, 3, 50, 102
9, 656510, Note_on_c, 3, 55, 0
9, 656520, Note_on_c, 3, 50, 0
9, 656642, Note_on_c, 3, 51, 109
9, 656653, Note_on_c, 3, 56, 108
9, 656737, Note_on_c, 3, 51, 0
9, 656748, Note_on_c, 3, 56, 0
9, 656886, Note_on_c, 3, 56, 99
9, 656905, Note_on_c, 3, 51, 95
9, 656981, Note_on_c, 3, 56, 0
9, 657000, Note_on_c, 3, 51, 0
9, 657123, Note_on_c, 3, 57, 110
9, 657139, Note_on_c, 3, 52, 104
9, 657218, Note_on_c, 3, 57, 0
9, 657234, Note_on_c, 3, 52, 0
9, 657361, Note_on_c, 3, 57, 104
9, 657370, Note_on_c, 3, 52, 93
9, 657456, Note_on_c, 3, 57, 0
9, 657465, Note_on_c, 3, 52, 0
9, 657604, Note_on_c, 3, 54, 95
9, 657624, Note_on_c, 3, 59, 100
9, 657699, Note_on_c, 3, 54, 0
9, 657719, Note_on_c, 3, 59, 0
9, 657849, Note_on_c, 3, 59, 111
9, 657860, Note_on_c, 3, 54, 98
9, 657944, Note_on_c, 3, 59, 0
9, 657955, Note_on_c, 3, 54, 0
9, 658081, Note_on_c, 3, 53, 91
9, 658093, Note_on_c, 3, 59, 111
9, 658176, Note_on_c, 3, 53, 0
9, 658188, Note_on_c, 3, 59, 0
9, 658333, Note_on_c, 3, 53, 93
9, 658336, Note_on_c, 3, 59, 102
9, 658428, Note_on_c, 3, 53, 0
9, 658431, Note_on_c, 3, 59, 0
9, 658571, Note_on_c, 3, 60, 103
9, 658574, Note_on_c, 3, 54, 103
9, 658666, Note_on_c, 3, 60, 0
9, 658669, Note_on_c, 3, 54, 0
9, 658809, Note_on_c, 3, 54, 103
9, 658814, Note_on_c, 3, 60, 96
9, 658904, Note_on_c, 3, 54, 0
9, 658909, Note_on_c, 3, 60, 0
9, 659062, Note_on_c, 3, 55, 101
9, 659064, Note_on_c, 3, 61, 102
9, 659157, Note_on_c, 3, 55, 0
9, 659159, Note_on_c, 3, 61, 0
9, 659290, Note_on_c, 3, 61, 102
9, 659295, Note_on_c, 3, 55, 99
9, 659385, Note_on_c, 3, 61, 0
9, 659390, Note_on_c, 3, 55, 0
9, 659525, Note_on_c, 3, 56, 96
9, 659541, Note_on_c, 3, 62, 92
9, 659620, Note_on_c, 3, 56, 0
9, 659636, Note_on_c, 3, 62, 0
9, 659765, Note_on_c, 3, 62, 92
9, 659784, Note_on_c, 3, 56, 104
9, 659860, Note_on_c, 3, 62, 0
9, 659879, Note_on_c, 3, 56, 0
9, 660004, Note_on_c, 3, 53, 109
9, 660022, Note_on_c, 3, 59, 93
9, 660099, Note_on_c, 3, 53, 0
9, 660117, Note_on_c, 3, 59, 0
9, 660244, Note_on_c, 3, 59, 92
9, 660248, Note_on_c, 3, 53, 93
9, 660339, Note_on_c, 3, 59, 0
9, 660343, Note_on_c, 3, 53, 0
9, 660484, Note_on_c, 3, 60, 95
9, 660500, Note_on_c, 3, 54, 110
9, 660579, Note_on_c, 3, 60, 0
9, 660595, Note_on_c, 3, 54, 0
9, 660731, Note_on_c, 3, 60, 93
9, 660741, Note_on_c, 3, 54, 108
9, 660826, Note_on_c, 3, 60, 0
9, 660836, Note_on_c, 3, 54, 0
9, 660968, Note_on_c, 3, 61, 96
9, 660971, Note_on_c, 3, 55, 93
9, 661063, Note_on_c, 3, 61, 0
9, 661066, Note_on_c, 3, 55, 0
9, 661208, Note_on_c, 3, 55, 99
9, 661211, Note_on_c, 3, 61, 99
9, 661303, Note_on_c, 3, 55, 0
9, 661306, Note_on_c, 3, 61, 0
9, 661455, Note_on_c, 3, 57, 97
9, 661456, Note_on_c, 3, 63, 96
9, 661550, Note_on_c, 3, 57, 0
9, 661551, Note_on_c, 3, 63, 0
9, 661689, Note_on_c, 3, 57, 91
9, 661691, Note_on_c, 3, 63, 111
9, 661784, Note_on_c, 3, 57, 0
9, 661786, Note_on_c, 3, 63, 0
9, 661939, Note_on_c, 3, 56, 93
9, 661940, Note_on_c, 3, 62, 96
9, 662034, Note_on_c, 3, 56, 0
9, 662035, Note_on_c, 3, 62, 0
9, 662168, Note_on_c, 3, 56, 108
9, 662184, Note_on_c, 3, 62, 101
9, 662263, Note_on_c, 3, 56, 0
9, 662279, Note_on_c, 3, 62, 0
9, 662406, Note_on_c, 3, 63, 107
9, 662415, Note_on_c, 3, 57, 105
9, 662501, Note_on_c, 3, 63, 0
9, 662510, Note_on_c, 3, 57, 0
9, 662646, Note_on_c, 3, 63, 105
9, 662663, Note_on_c, 3, 57, 105
9, 662741, Note_on_c, 3, 63, 0
9, 662758, Note_on_c, 3, 57, 0
9, 662897, Note_on_c, 3, 64, 105
9, 662900, Note_on_c, 3, 58, 95
9, 662992, Note_on_c, 3, 64, 0
9, 662995, Note_on_c, 3, 58, 0
9, 663123, Note_on_c, 3, 58, 92
9, 663145, Note_on_c, 3, 64, 107
9, 663218, Note_on_c, 3, 58, 0
9, 663240, Note_on_c, 3, 64, 0
9, 663366, Note_on_c, 3, 65, 93
9, 663382, Note_on_c, 3, 59, 92
9, 663461, Note_on_c, 3, 65, 0
9, 663477, Note_on_c, 3, 59, 0
9, 663601, Note_on_c, 3, 59, 93
9, 663613, Note_on_c, 3, 65, 110
9, 663696, Note_on_c, 3, 59, 0
9, 663708, Note_on_c, 3, 65, 0
9, 663849, Note_on_c, 3, 62, 98
9, 663850, Note_on_c, 3, 55, 92
9, 663944, Note_on_c, 3, 62, 0
9, 663945, Note_on_c, 3, 55, 0
9, 664086, Note_on_c, 3, 62, 111
9, 664103, Note_on_c, 3, 55, 94
9, 664181, Note_on_c, 3, 62, 0
9, 664198, Note_on_c, 3, 55, 0
9, 664339, Note_on_c, 3, 56, 95
9, 664342, Note_on_c, 3, 63, 106
9, 664434, Note_on_c, 3, 56, 0
9, 664437, Note_on_c, 3, 63, 0
9, 664577, Note_on_c, 3, 63, 110
9, 664584, Note_on_c, 3, 56, 100
9, 664672, Note_on_c, 3, 63, 0
9, 664679, Note_on_c, 3, 56, 0
9, 664800, Note_on_c, 3, 64, 99
9, 664823, Note_on_c, 3, 57, 102
9, 664895, Note_on_c, 3, 64, 0
9, 664918, Note_on_c, 3, 57, 0
9, 665048, Note_on_c, 3, 57, 106
9, 665050, Note_on_c, 3, 64, 99
9, 665143, Note_on_c, 3, 57, 0
9, 665145, Note_on_c, 3, 64, 0
9, 665293, Note_on_c, 3, 59, 105
9, 665305, Note_on_c, 3, 66, 100
9, 665388, Note_on_c, 3, 59, 0
9, 665400, Note_on_c, 3, 66, 0
9, 665530, Note_on_c, 3, 59, 110
9, 665534, Note_on_c, 3, 66, 104
9, 665625, Note_on_c, 3, 59, 0
9, 665629, Note_on_c, 3, 66, 0
9, 665772, Note_on_c, 3, 59, 91
9, 665783, Note_on_c, 3, 65, 103
9, 665867, Note_on_c, 3, 59, 0
9, 665878, Note_on_c, 3, 65, 0
9, 666003, Note_on_c, 3, 65, 91
9, 666011, Note_on_c, 3, 59, 97
9, 666098, Note_on_c, 3, 65, 0
9, 666106, Note_on_c, 3, 59, 0
9, 666242, Note_on_c, 3, 66, 97
9, 666261, Note_on_c, 3, 60, 92
9, 666337, Note_on_c, 3, 66, 0
9, 666356, Note_on_c, 3, 60, 0
9, 666480, Note_on_c, 3, 66, 107
9, 666501, Note_on_c, 3, 60, 95
9, 666575, Note_on_c, 3, 66, 0
9, 666596, Note_on_c, 3, 60, 0
9, 666724, Note_on_c, 3, 61, 96
9, 666728, Note_on_c, 3, 67, 105
9, 666819, Note_on_c, 3, 61, 0
9, 666823, Note_on_c, 3, 67, 0
9, 666960, Note_on_c, 3, 67, 91
9, 666977, Note_on_c, 3, 61, 110
9, 667055, Note_on_c, 3, 67, 0
9, 667072, Note_on_c, 3, 61, 0
9, 667210, Note_on_c, 3, 68, 104
9, 667213, Note_on_c, 3, 62, 92
9, 667305, Note_on_c, 3, 68, 0
9, 667308, Note_on_c, 3, 62, 0
9, 667441, Note_on_c, 3, 68, 92
9, 667452, Note_on_c, 3, 62, 107
9, 667536, Note_on_c, 3, 68, 0
9, 667547, Note_on_c, 3, 62, 0
9, 667686, Note_on_c, 3, 65, 109
9, 667690, Note_on_c, 3, 59, 92
9, 667781, Note_on_c, 3, 65, 0
9, 667785, Note_on_c, 3, 59, 0
9, 667922, Note_on_c, 3, 59, 97
9, 667936, Note_on_c, 3, 65, 95
9, 668017, Note_on_c, 3, 59, 0
9, 668031, Note_on_c, 3, 65, 0
9, 668176, Note_on_c, 3, 60, 96
9, 668185, Note_on_c, 3, 66, 109
9, 668271, Note_on_c, 3, 60, 0
9, 668280, Note_on_c, 3, 66, 0
9, 668407, Note_on_c, 3, 66, 111
9, 668414, Note_on_c, 3, 60, 110
9, 668502, Note_on_c, 3, 66, 0
9, 668509, Note_on_c, 3, 60, 0
9, 668641, Note_on_c, 3, 61, 92
9, 668654, Note_on_c, 3, 67, 106
9, 668736, Note_on_c, 3, 61, 0
9, 668749, Note_on_c, 3, 67, 0
9, 668902, Note_on_c, 3, 61, 97
9, 668905, Note_on_c, 3, 67, 95
9, 668997, Note_on_c, 3, 61, 0
9, 669000, Note_on_c, 3, 67, 0
9, 669122, Note_on_c, 3, 63, 99
9, 669140, Note_on_c, 3, 69, 95
9, 669217, Note_on_c, 3, 63, 0
9, 669235, Note_on_c, 3, 69, 0
9, 669371, Note_on_c, 3, 69, 104
9, 669381, Note_on_c, 3, 63, 107
9, 669466, Note_on_c, 3, 69, 0
9, 669476, Note_on_c, 3, 63, 0
9, 669612, Note_on_c, 3, 62, 100
9, 669619, Note_on_c, 3, 68, 99
9, 669707, Note_on_c, 3, 62, 0
9, 669714, Note_on_c, 3, 68, 0
9, 669850, Note_on_c, 3, 62, 111
9, 669858, Note_on_c, 3, 68, 99
9, 669945, Note_on_c, 3, 62, 0
9, 669953, Note_on_c, 3, 68, 0
9, 670081, Note_on_c, 3, 63, 93
9, 670094, Note_on_c, 3, 69, 98
9, 670176, Note_on_c, 3, 63, 0
9, 670189, Note_on_c, 3, 69, 0
9, 670325, Note_on_c, 3, 69, 94
9, 670341, Note_on_c, 3, 63, 98
9, 670420, Note_on_c, 3, 69, 0
9, 670436, Note_on_c, 3, 63, 0
9, 670575, Note_on_c, 3, 64, 91
9, 670577, Note_on_c, 3, 70, 106
9, 670670, Note_on_c, 3, 64, 0
9, 670672, Note_on_c, 3, 70, 0
9, 670807, Note_on_c, 3, 64, 100
9, 670816, Note_on_c, 3, 70, 100
9, 670902, Note_on_c, 3, 64, 0
9, 670911, Note_on_c, 3, 70, 0
9, 671043, Note_on_c, 3, 65, 91
9, 671062, Note_on_c, 3, 71, 95
9, 671138, Note_on_c, 3, 65, 0
9, 671157, Note_on_c, 3, 71, 0
9, 671302, Note_on_c, 3, 71, 107
9, 671305, Note_on_c, 3, 65, 101
9, 671397, Note_on_c, 3, 71, 0
9, 671400, Note_on_c, 3, 65, 0
9, 671528, Note_on_c, 3, 62, 111
9, 671530, Note_on_c, 3, 69, 94
9, 671623, Note_on_c, 3, 62, 0
9, 671625, Note_on_c, 3, 69, 0
9, 671771, Note_on_c, 3, 69, 97
9, 671779, Note_on_c, 3, 62, 97
9, 671866, Note_on_c, 3, 69, 0
9, 671874, Note_on_c, 3, 62, 0
9, 672004, Note_on_c, 3, 68, 104
9, 672015, Note_on_c, 3, 63, 105
9, 672099, Note_on_c, 3, 68, 0
9, 672110, Note_on_c, 3, 63, 0
9, 672251, Note_on_c, 3, 68, 92
9, 672259, Note_on_c, 3, 63, 100
9, 672346, Note_on_c, 3, 68, 0
9, 672354, Note_on_c, 3, 63, 0
9, 672480, Note_on_c, 3, 64, 110
9, 672481, Note_on_c, 3, 69, 103
9, 672575, Note_on_c, 3, 64, 0
9, 672576, Note_on_c, 3, 69, 0
9, 672729, Note_on_c, 3, 69, 108
9, 672735, Note_on_c, 3, 64, 97
9, 672824, Note_on_c, 3, 69, 0
9, 672830, Note_on_c, 3, 64, 0
9, 672960, Note_on_c, 3, 66, 105
9, 672966, Note_on_c, 3, 71, 96
9, 673055, Note_on_c, 3, 66, 0
9, 673061, Note_on_c, 3, 71, 0
9, 673205, Note_on_c, 3, 66, 94
9, 673212, Note_on_c, 3, 71, 108
9, 673300, Note_on_c, 3, 66, 0
9, 673307, Note_on_c, 3, 71, 0
9, 673442, Note_on_c, 3, 71, 106
9, 673460, Note_on_c, 3, 65, 93
9, 673537, Note_on_c, 3, 71, 0
9, 673555, Note_on_c, 3, 65, 0
9, 673683, Note_on_c, 3, 65, 93
9, 673685, Note_on_c, 3, 71, 104
9, 673778, Note_on_c, 3, 65, 0
9, 673780, Note_on_c, 3, 71, 0
9, 673932, Note_on_c, 3, 72, 92
9, 673941, Note_on_c, 3, 66, 107
9, 674027, Note_on_c, 3, 72, 0
9, 674036, Note_on_c, 3, 66, 0
9, 674170, Note_on_c, 3, 66, 93
9, 674177, Note_on_c, 3, 72, 105
9, 674265, Note_on_c, 3, 66, 0
9, 674272, Note_on_c, 3, 72, 0
9, 674408, Note_on_c, 3, 73, 91
9, 674413, Note_on_c, 3, 67, 92
9, 674503, Note_on_c, 3, 73, 0
9, 674508, Note_on_c, 3, 67, 0
9, 674641, Note_on_c, 3, 73, 108
9, 674647, Note_on_c, 3, 67, 94
9, 674736, Note_on_c, 3, 73, 0
9, 674742, Note_on_c, 3, 67, 0
9, 674882, Note_on_c, 3, 68, 107
9, 674892, Note_on_c, 3, 74, 97
9, 674977, Note_on_c, 3, 68, 0
9, 674987, Note_on_c, 3, 74, 0
9, 675121, Note_on_c, 3, 68, 100
9, 675135, Note_on_c, 3, 74, 96
9, 675216, Note_on_c, 3, 68, 0
9, 675230, Note_on_c, 3, 74, 0
9, 675368, Note_on_c, 3, 65, 105
9, 675374, Note_on_c, 3, 71, 109
9, 675463, Note_on_c, 3, 65, 0
9, 675469, Note_on_c, 3, 71, 0
9, 675620, Note_on_c, 3, 65, 95
9, 675620, Note_on_c, 3, 71, 102
9, 675715, Note_on_c, 3, 65, 0
9, 675715, Note_on_c, 3, 71, 0
9, 675848, Note_on_c, 3, 66, 104
9, 675855, Note_on_c, 3, 72, 110
9, 675943, Note_on_c, 3, 66, 0
9, 675950, Note_on_c, 3, 72, 0
9, 676090, Note_on_c, 3, 66, 111
9, 676100, Note_on_c, 3, 72, 95
9, 676185, Note_on_c, 3, 66, 0
9, 676195, Note_on_c, 3, 72, 0
9, 676337, Note_on_c, 3, 73, 106
9, 676339, Note_on_c, 3, 67, 93
9, 676432, Note_on_c, 3, 73, 0
9, 676434, Note_on_c, 3, 67, 0
9, 676572, Note_on_c, 3, 67, 101
9, 676584, Note_on_c, 3, 73, 104
9, 676667, Note_on_c, 3, 67, 0
9, 676679, Note_on_c, 3, 73, 0
9, 676800, Note_on_c, 3, 75, 100
9, 676811, Note_on_c, 3, 69, 106
9, 676895, Note_on_c, 3, 75, 0
9, 676906, Note_on_c, 3, 69, 0
9, 677058, Note_on_c, 3, 75, 105
9, 677065, Note_on_c, 3, 69, 98
9, 677153, Note_on_c, 3, 75, 0
9, 677160, Note_on_c, 3, 69, 0
9, 689297, Note_on_c, 3, 55, 100
9, 689364, Note_on_c, 3, 60, 95
9, 689365, Note_on_c, 3, 55, 0
9, 689432, Note_on_c, 3, 60, 0
9, 689436, Note_on_c, 3, 64, 108
9, 689496, Note_on_c, 3, 66, 110
9, 689504, Note_on_c, 3, 64, 0
9, 689554, Note_on_c, 3, 67, 102
9, 689564, Note_on_c, 3, 66, 0
9, 689622, Note_on_c, 3, 67, 0
9, 689628, Note_on_c, 3, 72, 108
9, 689696, Note_on_c, 3, 72, 0
9, 689709, Note_on_c, 3, 76, 91
9, 689777, Note_on_c, 3, 76, 0
9, 690264, Note_on_c, 3, 78, 109
9, 690624, Note_on_c, 3, 78, 0
9, 691213, Note_on_c, 3, 78, 108
9, 691573, Note_on_c, 3, 78, 0
9, 692421, Note_on_c, 3, 78, 112
9, 692661, Note_on_c, 3, 78, 0
9, 693128, Note_on_c, 3, 78, 99
9, 693488, Note_on_c, 3, 78, 0
9, 694100, Note_on_c, 3, 78, 95
9, 694460, Note_on_c, 3, 78, 0
9, 694570, Note_on_c, 3, 76, 112
9, 694574, Note_on_c, 3, 80, 101
9, 694685, Note_on_c, 3, 76, 0
9, 694689, Note_on_c, 3, 80, 0
9, 694768, Note_on_c, 3, 78, 103
9, 694776, Note_on_c, 3, 74, 96
9, 694883, Note_on_c, 3, 78, 0
9, 694891, Note_on_c, 3, 74, 0
9, 694951, Note_on_c, 3, 76, 107
9, 694957, Note_on_c, 3, 72, 98
9, 695066, Note_on_c, 3, 76, 0
9, 695072, Note_on_c, 3, 72, 0
9, 695135, Note_on_c, 3, 74, 100
9, 695150, Note_on_c, 3, 71, 110
9, 695249, Note_on_c, 3, 74, 0
9, 695264, Note_on_c, 3, 71, 0
9, 695329, Note_on_c, 3, 72, 104
9, 695348, Note_on_c, 3, 76, 112
9, 695444, Note_on_c, 3, 72, 0
9, 695463, Note_on_c, 3, 76, 0
9, 695521, Note_on_c, 3, 74, 106
9, 695539, Note_on_c, 3, 78, 114
9, 695601, Note_on_c, 3, 74, 0
9, 695619, Note_on_c, 3, 78, 0
9, 695688, Note_on_c, 3, 72, 105
9, 695688, Note_on_c, 3, 76, 108
9, 695769, Note_on_c, 3, 72, 0
9, 695769, Note_on_c, 3, 76, 0
9, 695843, Note_on_c, 3, 74, 97
9, 695860, Note_on_c, 3, 71, 112
9, 695923, Note_on_c, 3, 74, 0
9, 695940, Note_on_c, 3, 71, 0
9, 696001, Note_on_c, 3, 76, 108
9, 696005, Note_on_c, 3, 72, 113
9, 696361, Note_on_c, 3, 76, 0
9, 696365, Note_on_c, 3, 72, 0
9, 696488, Note_on_c, 3, 55, 105
9, 696556, Note_on_c, 3, 55, 0
9, 696568, Note_on_c, 3, 60, 105
9, 696623, Note_on_c, 3, 64, 105
9, 696636, Note_on_c, 3, 60, 0
9, 696691, Note_on_c, 3, 64, 0
9, 696709, Note_on_c, 3, 66, 111
9, 696773, Note_on_c, 3, 67, 95
9, 696777, Note_on_c, 3, 66, 0
9, 696828, Note_on_c, 3, 72, 105
9, 696841, Note_on_c, 3, 67, 0
9, 696896, Note_on_c, 3, 72, 0
9, 696897, Note_on_c, 3, 76, 99
9, 696965, Note_on_c, 3, 76, 0
9, 697456, Note_on_c, 3, 74, 108
9, 697460, Note_on_c, 3, 78, 96
9, 697816, Note_on_c, 3, 74, 0
9, 697820, Note_on_c, 3, 78, 0
9, 697928, Note_on_c, 3, 55, 95
9, 697993, Note_on_c, 3, 60, 102
9, 697996, Note_on_c, 3, 55, 0
9, 698061, Note_on_c, 3, 60, 0
9, 698072, Note_on_c, 3, 64, 111
9, 698131, Note_on_c, 3, 66, 106
9, 698140, Note_on_c, 3, 64, 0
9, 698199, Note_on_c, 3, 66, 0
9, 698202, Note_on_c, 3, 67, 104
9, 698270, Note_on_c, 3, 67, 0
9, 698277, Note_on_c, 3, 72, 105
9, 698345, Note_on_c, 3, 72, 0
9, 698353, Note_on_c, 3, 76, 98
9, 698421, Note_on_c, 3, 76, 0
9, 698880, Note_on_c, 3, 80, 109
9, 698903, Note_on_c, 3, 76, 111
9, 699000, Note_on_c, 3, 80, 0
9, 699023, Note_on_c, 3, 76, 0
9, 699127, Note_on_c, 3, 78, 108
9, 699128, Note_on_c, 3, 74, 109
9, 699247, Note_on_c, 3, 78, 0
9, 699248, Note_on_c, 3, 74, 0
9, 699377, Note_on_c, 3, 72, 99
9, 699377, Note_on_c, 3, 76, 114
9, 699737, Note_on_c, 3, 72, 0
9, 699737, Note_on_c, 3, 76, 0
9, 700336, Note_on_c, 3, 74, 96
9, 700341, Note_on_c, 3, 78, 109
9, 700696, Note_on_c, 3, 74, 0
9, 700701, Note_on_c, 3, 78, 0
9, 701285, Note_on_c, 3, 78, 104
9, 701645, Note_on_c, 3, 78, 0
9, 702010, Note_on_c, 3, 78, 108
9, 702250, Note_on_c, 3, 78, 0
9, 703200, Note_on_c, 3, 78, 103
9, 703560, Note_on_c, 3, 78, 0
9, 704161, Note_on_c, 3, 74, 109
9, 704161, Note_on_c, 3, 78, 100
9, 704521, Note_on_c, 3, 74, 0
9, 704521, Note_on_c, 3, 78, 0
9, 704653, Note_on_c, 3, 80, 106
9, 704657, Note_on_c, 3, 76, 104
9, 704773, Note_on_c, 3, 80, 0
9, 704777, Note_on_c, 3, 76, 0
9, 704884, Note_on_c, 3, 78, 115
9, 704902, Note_on_c, 3, 74, 114
9, 705004, Note_on_c, 3, 78, 0
9, 705022, Note_on_c, 3, 74, 0
9, 705121, Note_on_c, 3, 72, 101
9, 705144, Note_on_c, 3, 76, 113
9, 705481, Note_on_c, 3, 72, 0
9, 705504, Note_on_c, 3, 76, 0
9, 706095, Note_on_c, 3, 76, 112
9, 706103, Note_on_c, 3, 80, 100
9, 706175, Note_on_c, 3, 76, 0
9, 706183, Note_on_c, 3, 80, 0
9, 706249, Note_on_c, 3, 77, 97
9, 706259, Note_on_c, 3, 74, 102
9, 706330, Note_on_c, 3, 77, 0
9, 706340, Note_on_c, 3, 74, 0
9, 706411, Note_on_c, 3, 76, 105
9, 706418, Note_on_c, 3, 72, 106
9, 706491, Note_on_c, 3, 76, 0
9, 706498, Note_on_c, 3, 72, 0
9, 706566, Note_on_c, 3, 77, 114
9, 706575, Note_on_c, 3, 74, 96
9, 706926, Note_on_c, 3, 77, 0
9, 706935, Note_on_c, 3, 74, 0
9, 707523, Note_on_c, 3, 76, 99
9, 707525, Note_on_c, 3, 80, 98
9, 707603, Note_on_c, 3, 76, 0
9, 707605, Note_on_c, 3, 80, 0
9, 707692, Note_on_c, 3, 74, 111
9, 707696, Note_on_c, 3, 78, 95
9, 707773, Note_on_c, 3, 74, 0
9, 707777, Note_on_c, 3, 78, 0
9, 707854, Note_on_c, 3, 72, 97
9, 707856, Note_on_c, 3, 76, 95
9, 707934, Note_on_c, 3, 72, 0
9, 707936, Note_on_c, 3, 76, 0
9, 708009, Note_on_c, 3, 74, 105
9, 708022, Note_on_c, 3, 78, 115
9, 708089, Note_on_c, 3, 74, 0
9, 708102, Note_on_c, 3, 78, 0
9, 708181, Note_on_c, 3, 72, 99
9, 708184, Note_on_c, 3, 76, 95
9, 708262, Note_on_c, 3, 72, 0
9, 708265, Note_on_c, 3, 76, 0
9, 708327, Note_on_c, 3, 74, 111
9, 708328, Note_on_c, 3, 71, 98
9, 708407, Note_on_c, 3, 74, 0
9, 708408, Note_on_c, 3, 71, 0
9, 708982, Note_on_c, 3, 55, 106
9, 709050, Note_on_c, 3, 55, 0
9, 709052, Note_on_c, 3, 60, 99
9, 709106, Note_on_c, 3, 64, 96
9, 709120, Note_on_c, 3, 60, 0
9, 709174, Note_on_c, 3, 64, 0
9, 709185, Note_on_c, 3, 66, 108
9, 709248, Note_on_c, 3, 67, 99
9, 709253, Note_on_c, 3, 66, 0
9, 709303, Note_on_c, 3, 72, 113
9, 709316, Note_on_c, 3, 67, 0
9, 709371, Note_on_c, 3, 72, 0
9, 709380, Note_on_c, 3, 76, 110
9, 709448, Note_on_c, 3, 76, 0
9, 710405, Note_on_c, 3, 76, 107
9, 710405, Note_on_c, 3, 80, 98
9, 710485, Note_on_c, 3, 76, 0
9, 710485, Note_on_c, 3, 80, 0
9, 710568, Note_on_c, 3, 74, 113
9, 710571, Note_on_c, 3, 78, 110
9, 710649, Note_on_c, 3, 74, 0
9, 710652, Note_on_c, 3, 78, 0
9, 710742, Note_on_c, 3, 72, 109
9, 710744, Note_on_c, 3, 76, 99
9, 710822, Note_on_c, 3, 72, 0
9, 710824, Note_on_c, 3, 76, 0
9, 710882, Note_on_c, 3, 74, 115
9, 710886, Note_on_c, 3, 78, 110
9, 710962, Note_on_c, 3, 74, 0
9, 710966, Note_on_c, 3, 78, 0
9, 711042, Note_on_c, 3, 76, 112
9, 711043, Note_on_c, 3, 72, 102
9, 711123, Note_on_c, 3, 76, 0
9, 711124, Note_on_c, 3, 72, 0
9, 711205, Note_on_c, 3, 71, 112
9, 711209, Note_on_c, 3, 74, 114
9, 711285, Note_on_c, 3, 71, 0
9, 711289, Note_on_c, 3, 74, 0
9, 711847, Note_on_c, 3, 55, 112
9, 711915, Note_on_c, 3, 55, 0
9, 711922, Note_on_c, 3, 60, 100
9, 711990, Note_on_c, 3, 60, 0
9, 711994, Note_on_c, 3, 64, 113
9, 712048, Note_on_c, 3, 66, 104
9, 712062, Note_on_c, 3, 64, 0
9, 712116, Note_on_c, 3, 66, 0
9, 712119, Note_on_c, 3, 67, 95
9, 712184, Note_on_c, 3, 72, 105
9, 712187, Note_on_c, 3, 67, 0
9, 712252, Note_on_c, 3, 72, 0
9, 712272, Note_on_c, 3, 76, 112
9, 712340, Note_on_c, 3, 76, 0
9, 712825, Note_on_c, 3, 78, 96
9, 713185, Note_on_c, 3, 78, 0
9, 713291, Note_on_c, 3, 78, 105
9, 713651, Note_on_c, 3, 78, 0
9, 714253, Note_on_c, 3, 78, 115
9, 714613, Note_on_c, 3, 78, 0
9, 715455, Note_on_c, 3, 78, 115
9, 715695, Note_on_c, 3, 78, 0
9, 716182, Note_on_c, 3, 78, 106
9, 716542, Note_on_c, 3, 78, 0
9, 717141, Note_on_c, 3, 78, 114
9, 717501, Note_on_c, 3, 78, 0
9, 717860, Note_on_c, 3, 78, 105
9, 718100, Note_on_c, 3, 78, 0
9, 719047, Note_on_c, 3, 78, 107
9, 719407, Note_on_c, 3, 78, 0
9, 720003, Note_on_c, 3, 78, 102
9, 720363, Note_on_c, 3, 78, 0
9, 720983, Note_on_c, 3, 78, 100
9, 721343, Note_on_c, 3, 78, 0
9, 737296, Note_on_c, 3, 54, 108
9, 737656, Note_on_c, 3, 54, 0
9, 737783, Note_on_c, 3, 56, 112
9, 738143, Note_on_c, 3, 56, 0
9, 738243, Note_on_c, 3, 58, 100
9, 738603, Note_on_c, 3, 58, 0
9, 738735, Note_on_c, 3, 54, 97
9, 739095, Note_on_c, 3, 54, 0
9, 739209, Note_on_c, 3, 56, 108
9, 739569, Note_on_c, 3, 56, 0
9, 739689, Note_on_c, 3, 58, 116
9, 740049, Note_on_c, 3, 58, 0
9, 740178, Note_on_c, 3, 54, 111
9, 740538, Note_on_c, 3, 54, 0
9, 740650, Note_on_c, 3, 56, 102
9, 741010, Note_on_c, 3, 56, 0
9, 741128, Note_on_c, 3, 58, 116
9, 741488, Note_on_c, 3, 58, 0
9, 741617, Note_on_c, 3, 60, 127
9, 741977, Note_on_c, 3, 60, 0
9, 742080, Note_on_c, 3, 62, 127
9, 742440, Note_on_c, 3, 62, 0
9, 742574, Note_on_c, 3, 64, 123
9, 742934, Note_on_c, 3, 64, 0
9, 743060, Note_on_c, 3, 54, 95
9, 743420, Note_on_c, 3, 54, 0
9, 743532, Note_on_c, 3, 56, 104
9, 743892, Note_on_c, 3, 56, 0
9, 744019, Note_on_c, 3, 58, 100
9, 744379, Note_on_c, 3, 58, 0
9, 744505, Note_on_c, 3, 54, 113
9, 744865, Note_on_c, 3, 54, 0
9, 744961, Note_on_c, 3, 56, 119
9, 745321, Note_on_c, 3, 56, 0
9, 745452, Note_on_c, 3, 58, 117
9, 745812, Note_on_c, 3, 58, 0
9, 745927, Note_on_c, 3, 60, 113
9, 746287, Note_on_c, 3, 60, 0
9, 746409, Note_on_c, 3, 62, 122
9, 746769, Note_on_c, 3, 62, 0
9, 746891, Note_on_c, 3, 64, 127
9, 747251, Note_on_c, 3, 64, 0
9, 747383, Note_on_c, 3, 54, 102
9, 747743, Note_on_c, 3, 54, 0
9, 747862, Note_on_c, 3, 56, 104
9, 748222, Note_on_c, 3, 56, 0
9, 748331, Note_on_c, 3, 58, 120
9, 748691, Note_on_c, 3, 58, 0
9, 748811, Note_on_c, 3, 60, 116
9, 749171, Note_on_c, 3, 60, 0
9, 749305, Note_on_c, 3, 62, 124
9, 749665, Note_on_c, 3, 62, 0
9, 749765, Note_on_c, 3, 64, 127
9, 750125, Note_on_c, 3, 64, 0
9, 750257, Note_on_c, 3, 54, 107
9, 750617, Note_on_c, 3, 54, 0
9, 750739, Note_on_c, 3, 56, 111
9, 751099, Note_on_c, 3, 56, 0
9, 751225, Note_on_c, 3, 58, 121
9, 751585, Note_on_c, 3, 58, 0
9, 751695, Note_on_c, 3, 60, 127
9, 752055, Note_on_c, 3, 60, 0
9, 752174, Note_on_c, 3, 62, 124
9, 752534, Note_on_c, 3, 62, 0
9, 752661, Note_on_c, 3, 64, 127
9, 753021, Note_on_c, 3, 64, 0
9, 753120, Note_on_c, 3, 54, 95
9, 753480, Note_on_c, 3, 54, 0
9, 753603, Note_on_c, 3, 56, 99
9, 753963, Note_on_c, 3, 56, 0
9, 754094, Note_on_c, 3, 58, 119
9, 754454, Note_on_c, 3, 58, 0
9, 754584, Note_on_c, 3, 54, 104
9, 754944, Note_on_c, 3, 54, 0
9, 755053, Note_on_c, 3, 56, 116
9, 755413, Note_on_c, 3, 56, 0
9, 755522, Note_on_c, 3, 58, 114
9, 755882, Note_on_c, 3, 58, 0
9, 756022, Note_on_c, 3, 60, 127
9, 756382, Note_on_c, 3, 60, 0
9, 756480, Note_on_c, 3, 62, 127
9, 756840, Note_on_c, 3, 62, 0
9, 756966, Note_on_c, 3, 64, 125
9, 757326, Note_on_c, 3, 64, 0
9, 757456, Note_on_c, 3, 54, 115
9, 757816, Note_on_c, 3, 54, 0
9, 757926, Note_on_c, 3, 56, 107
9, 758286, Note_on_c, 3, 56, 0
9, 758403, Note_on_c, 3, 58, 115
9, 758763, Note_on_c, 3, 58, 0
9, 758890, Note_on_c, 3, 54, 104
9, 759250, Note_on_c, 3, 54, 0
9, 759376, Note_on_c, 3, 56, 101
9, 759736, Note_on_c, 3, 56, 0
9, 759842, Note_on_c, 3, 58, 110
9, 760202, Note_on_c, 3, 58, 0
9, 760340, Note_on_c, 3, 60, 127
9, 760700, Note_on_c, 3, 60, 0
9, 760812, Note_on_c, 3, 62, 127
9, 761172, Note_on_c, 3, 62, 0
9, 761284, Note_on_c, 3, 64, 123
9, 761644, Note_on_c, 3, 64, 0
9, 761778, Note_on_c, 3, 54, 104
9, 762138, Note_on_c, 3, 54, 0
9, 762265, Note_on_c, 3, 56, 115
9, 762625, Note_on_c, 3, 56, 0
9, 762722, Note_on_c, 3, 58, 114
9, 763082, Note_on_c, 3, 58, 0
9, 763216, Note_on_c, 3, 60, 127
9, 763576, Note_on_c, 3, 60, 0
9, 763684, Note_on_c, 3, 62, 116
9, 764044, Note_on_c, 3, 62, 0
9, 764181, Note_on_c, 3, 64, 121
9, 764541, Note_on_c, 3, 64, 0
9, 764772, Note_on_c, 3, 77, 124
9, 764782, Note_on_c, 3, 72, 107
9, 764888, Note_on_c, 3, 79, 106
9, 764892, Note_on_c, 3, 77, 0
9, 764897, Note_on_c, 3, 74, 110
9, 764902, Note_on_c, 3, 72, 0
9, 765008, Note_on_c, 3, 79, 0
9, 765011, Note_on_c, 3, 80, 115
9, 765013, Note_on_c, 3, 75, 122
9, 765017, Note_on_c, 3, 74, 0
9, 765131, Note_on_c, 3, 80, 0
9, 765133, Note_on_c, 3, 75, 0
9, 765139, Note_on_c, 3, 82, 120
9, 765145, Note_on_c, 3, 77, 121
9, 765257, Note_on_c, 3, 80, 110
9, 765259, Note_on_c, 3, 82, 0
9, 765265, Note_on_c, 3, 77, 0
9, 765265, Note_on_c, 3, 75, 117
9, 765361, Note_on_c, 3, 79, 114
9, 765373, Note_on_c, 3, 74, 106
9, 765377, Note_on_c, 3, 80, 0
9, 765385, Note_on_c, 3, 75, 0
9, 765481, Note_on_c, 3, 79, 0
9, 765493, Note_on_c, 3, 74, 0
9, 765493, Note_on_c, 3, 77, 113
9, 765504, Note_on_c, 3, 72, 108
9, 765602, Note_on_c, 3, 80, 112
9, 765613, Note_on_c, 3, 77, 0
9, 765616, Note_on_c, 3, 75, 118
9, 765624, Note_on_c, 3, 72, 0
9, 765722, Note_on_c, 3, 80, 0
9, 765736, Note_on_c, 3, 75, 0
9, 766215, Note_on_c, 3, 72, 109
9, 766221, Note_on_c, 3, 77, 118
9, 766329, Note_on_c, 3, 74, 109
9, 766335, Note_on_c, 3, 72, 0
9, 766341, Note_on_c, 3, 77, 0
9, 766341, Note_on_c, 3, 79, 114
9, 766449, Note_on_c, 3, 74, 0
9, 766452, Note_on_c, 3, 80, 106
9, 766461, Note_on_c, 3, 79, 0
9, 766462, Note_on_c, 3, 75, 120
9, 766569, Note_on_c, 3, 77, 110
9, 766572, Note_on_c, 3, 80, 0
9, 766577, Note_on_c, 3, 82, 117
9, 766582, Note_on_c, 3, 75, 0
9, 766682, Note_on_c, 3, 75, 108
9, 766683, Note_on_c, 3, 80, 117
9, 766689, Note_on_c, 3, 77, 0
9, 766697, Note_on_c, 3, 82, 0
9, 766802, Note_on_c, 3, 75, 0
9, 766803, Note_on_c, 3, 80, 0
9, 766810, Note_on_c, 3, 79, 108
9, 766811, Note_on_c, 3, 74, 107
9, 766929, Note_on_c, 3, 72, 124
9, 766930, Note_on_c, 3, 79, 0
9, 766931, Note_on_c, 3, 74, 0
9, 766935, Note_on_c, 3, 77, 119
9, 767040, Note_on_c, 3, 75, 121
9, 767049, Note_on_c, 3, 72, 0
9, 767055, Note_on_c, 3, 77, 0
9, 767059, Note_on_c, 3, 80, 114
9, 767160, Note_on_c, 3, 75, 0
9, 767179, Note_on_c, 3, 80, 0
9, 767524, Note_on_c, 3, 77, 123
9, 767544, Note_on_c, 3, 82, 117
9, 767644, Note_on_c, 3, 77, 0
9, 767647, Note_on_c, 3, 75, 124
9, 767651, Note_on_c, 3, 80, 123
9, 767664, Note_on_c, 3, 82, 0
9, 767761, Note_on_c, 3, 79, 105
9, 767766, Note_on_c, 3, 74, 119
9, 767767, Note_on_c, 3, 75, 0
9, 767771, Note_on_c, 3, 80, 0
9, 767881, Note_on_c, 3, 79, 0
9, 767886, Note_on_c, 3, 74, 0
9, 767892, Note_on_c, 3, 72, 121
9, 767899, Note_on_c, 3, 77, 115
9, 768004, Note_on_c, 3, 80, 107
9, 768012, Note_on_c, 3, 72, 0
9, 768019, Note_on_c, 3, 77, 0
9, 768019, Note_on_c, 3, 75, 109
9, 768122, Note_on_c, 3, 76, 108
9, 768124, Note_on_c, 3, 80, 0
9, 768129, Note_on_c, 3, 71, 115
9, 768139, Note_on_c, 3, 75, 0
9, 768242, Note_on_c, 3, 76, 0
9, 768249, Note_on_c, 3, 71, 0
9, 768251, Note_on_c, 3, 72, 108
9, 768257, Note_on_c, 3, 77, 118
9, 768363, Note_on_c, 3, 74, 104
9, 768371, Note_on_c, 3, 72, 0
9, 768375, Note_on_c, 3, 79, 107
9, 768377, Note_on_c, 3, 77, 0
9, 768483, Note_on_c, 3, 74, 0
9, 768490, Note_on_c, 3, 82, 114
9, 768495, Note_on_c, 3, 79, 0
9, 768502, Note_on_c, 3, 77, 107
9, 768604, Note_on_c, 3, 80, 124
9, 768610, Note_on_c, 3, 82, 0
9, 768616, Note_on_c, 3, 75, 108
9, 768622, Note_on_c, 3, 77, 0
9, 768724, Note_on_c, 3, 80, 0
9, 768733, Note_on_c, 3, 79, 123
9, 768734, Note_on_c, 3, 74, 120
9, 768736, Note_on_c, 3, 75, 0
9, 768853, Note_on_c, 3, 79, 0
9, 768854, Note_on_c, 3, 74, 0
9, 768854, Note_on_c, 3, 72, 111
9, 768855, Note_on_c, 3, 77, 124
9, 768974, Note_on_c, 3, 72, 0
9, 768975, Note_on_c, 3, 77, 0
9, 768978, Note_on_c, 3, 80, 123
9, 768981, Note_on_c, 3, 75, 112
9, 769098, Note_on_c, 3, 80, 0
9, 769101, Note_on_c, 3, 75, 0
9, 769446, Note_on_c, 3, 71, 106
9, 769464, Note_on_c, 3, 76, 121
9, 769566, Note_on_c, 3, 71, 0
9, 769572, Note_on_c, 3, 72, 112
9, 769578, Note_on_c, 3, 77, 106
9, 769584, Note_on_c, 3, 76, 0
9, 769686, Note_on_c, 3, 79, 115
9, 769691, Note_on_c, 3, 74, 121
9, 769692, Note_on_c, 3, 72, 0
9, 769698, Note_on_c, 3, 77, 0
9, 769801, Note_on_c, 3, 80, 123
9, 769805, Note_on_c, 3, 75, 120
9, 769806, Note_on_c, 3, 79, 0
9, 769811, Note_on_c, 3, 74, 0
9, 769921, Note_on_c, 3, 80, 0
9, 769925, Note_on_c, 3, 75, 0
9, 769931, Note_on_c, 3, 77, 106
9, 769934, Note_on_c, 3, 82, 120
9, 770046, Note_on_c, 3, 75, 116
9, 770049, Note_on_c, 3, 80, 115
9, 770051, Note_on_c, 3, 77, 0
9, 770054, Note_on_c, 3, 82, 0
9, 770166, Note_on_c, 3, 75, 0
9, 770166, Note_on_c, 3, 79, 121
9, 770167, Note_on_c, 3, 74, 112
9, 770169, Note_on_c, 3, 80, 0
9, 770285, Note_on_c, 3, 77, 104
9, 770286, Note_on_c, 3, 79, 0
9, 770287, Note_on_c, 3, 74, 0
9, 770295, Note_on_c, 3, 72, 105
9, 770405, Note_on_c, 3, 77, 0
9, 770415, Note_on_c, 3, 72, 0
9, 770415, Note_on_c, 3, 71, 119
9, 770424, Note_on_c, 3, 76, 111
9, 770535, Note_on_c, 3, 71, 0
9, 770539, Note_on_c, 3, 72, 112
9, 770540, Note_on_c, 3, 77, 118
9, 770544, Note_on_c, 3, 76, 0
9, 770652, Note_on_c, 3, 79, 117
9, 770659, Note_on_c, 3, 72, 0
9, 770659, Note_on_c, 3, 74, 115
9, 770660, Note_on_c, 3, 77, 0
9, 770769, Note_on_c, 3, 80, 114
9, 770772, Note_on_c, 3, 79, 0
9, 770773, Note_on_c, 3, 75, 121
9, 770779, Note_on_c, 3, 74, 0
9, 770886, Note_on_c, 3, 77, 123
9, 770889, Note_on_c, 3, 80, 0
9, 770893, Note_on_c, 3, 75, 0
9, 770897, Note_on_c, 3, 82, 108
9, 771006, Note_on_c, 3, 77, 0
9, 771012, Note_on_c, 3, 80, 119
9, 771017, Note_on_c, 3, 82, 0
9, 771025, Note_on_c, 3, 75, 124
9, 771130, Note_on_c, 3, 79, 114
9, 771132, Note_on_c, 3, 80, 0
9, 771133, Note_on_c, 3, 74, 106
9, 771145, Note_on_c, 3, 75, 0
9, 771250, Note_on_c, 3, 79, 0
9, 771253, Note_on_c, 3, 74, 0
9, 771254, Note_on_c, 3, 72, 121
9, 771255, Note_on_c, 3, 77, 108
9, 771363, Note_on_c, 3, 80, 105
9, 771368, Note_on_c, 3, 75, 121
9, 771374, Note_on_c, 3, 72, 0
9, 771375, Note_on_c, 3, 77, 0
9, 771483, Note_on_c, 3, 80, 0
9, 771488, Note_on_c, 3, 75, 0
9, 771960, Note_on_c, 3, 72, 118
9, 771973, Note_on_c, 3, 77, 104
9, 772080, Note_on_c, 3, 72, 0
9, 772084, Note_on_c, 3, 79, 115
9, 772093, Note_on_c, 3, 77, 0
9, 772101, Note_on_c, 3, 74, 108
9, 772204, Note_on_c, 3, 79, 0
9, 772210, Note_on_c, 3, 80, 124
9, 772214, Note_on_c, 3, 75, 116
9, 772221, Note_on_c, 3, 74, 0
9, 772330, Note_on_c, 3, 80, 0
9, 772330, Note_on_c, 3, 82, 108
9, 772334, Note_on_c, 3, 75, 0
9, 772336, Note_on_c, 3, 77, 105
9, 772440, Note_on_c, 3, 80, 107
9, 772449, Note_on_c, 3, 75, 115
9, 772450, Note_on_c, 3, 82, 0
9, 772456, Note_on_c, 3, 77, 0
9, 772560, Note_on_c, 3, 80, 0
9, 772569, Note_on_c, 3, 75, 0
9, 772572, Note_on_c, 3, 79, 113
9, 772581, Note_on_c, 3, 74, 117
9, 772692, Note_on_c, 3, 79, 0
9, 772693, Note_on_c, 3, 77, 114
9, 772701, Note_on_c, 3, 74, 0
9, 772704, Note_on_c, 3, 72, 105
9, 772804, Note_on_c, 3, 75, 105
9, 772813, Note_on_c, 3, 77, 0
9, 772822, Note_on_c, 3, 80, 106
9, 772824, Note_on_c, 3, 72, 0
9, 772924, Note_on_c, 3, 75, 0
9, 772942, Note_on_c, 3, 80, 0
9, 772942, End_track
10, 0, Start_track
10, 0, Title_t, "Clarinetti II"
10, 0, MIDI_port, 0
10, 0, Program_c, 3, 71
10, 8654, Note_on_c, 3, 49, 58
10, 10733, Note_on_c, 3, 49, 0
10, 10741, Note_on_c, 3, 50, 59
10, 10901, Note_on_c, 3, 50, 0
10, 10902, Note_on_c, 3, 51, 54
10, 11281, Note_on_c, 3, 50, 50
10, 11301, Note_on_c, 3, 51, 0
10, 11521, Note_on_c, 3, 50, 0
10, 11531, Note_on_c, 3, 49, 49
10, 14891, Note_on_c, 3, 49, 0
10, 23040, Note_on_c, 3, 68, 69
10, 23079, Note_on_c, 3, 68, 0
10, 23079, Note_on_c, 3, 70, 53
10, 23118, Note_on_c, 3, 70, 0
10, 23118, Note_on_c, 3, 68, 72
10, 23157, Note_on_c, 3, 68, 0
10, 23158, Note_on_c, 3, 70, 58
10, 23197, Note_on_c, 3, 70, 0
10, 23197, Note_on_c, 3, 68, 68
10, 23236, Note_on_c, 3, 68, 0
10, 23236, Note_on_c, 3, 70, 53
10, 23275, Note_on_c, 3, 70, 0
10, 23276, Note_on_c, 3, 68, 57
10, 23315, Note_on_c, 3, 68, 0
10, 23315, Note_on_c, 3, 70, 70
10, 23354, Note_on_c, 3, 70, 0
10, 23355, Note_on_c, 3, 68, 69
10, 23394, Note_on_c, 3, 68, 0
10, 23394, Note_on_c, 3, 70, 53
10, 23433, Note_on_c, 3, 70, 0
10, 23433, Note_on_c, 3, 68, 65
10, 23472, Note_on_c, 3, 68, 0
10, 23473, Note_on_c, 3, 70, 67
10, 23512, Note_on_c, 3, 70, 0
10, 23512, Note_on_c, 3, 68, 60
10, 23551, Note_on_c, 3, 68, 0
10, 23551, Note_on_c, 3, 70, 64
10, 23590, Note_on_c, 3, 70, 0
10, 23591, Note_on_c, 3, 68, 65
10, 23630, Note_on_c, 3, 68, 0
10, 23630, Note_on_c, 3, 70, 67
10, 23669, Note_on_c, 3, 70, 0
10, 23670, Note_on_c, 3, 68, 62
10, 23709, Note_on_c, 3, 68, 0
10, 23709, Note_on_c, 3, 70, 52
10, 23748, Note_on_c, 3, 70, 0
10, 23748, Note_on_c, 3, 68, 61
10, 23787, Note_on_c, 3, 68, 0
10, 23788, Note_on_c, 3, 70, 70
10, 23827, Note_on_c, 3, 70, 0
10, 23827, Note_on_c, 3, 68, 62
10, 23866, Note_on_c, 3, 68, 0
10, 23866, Note_on_c, 3, 70, 60
10, 23905, Note_on_c, 3, 70, 0
10, 23906, Note_on_c, 3, 68, 71
10, 23945, Note_on_c, 3, 68, 0
10, 23945, Note_on_c, 3, 70, 52
10, 23984, Note_on_c, 3, 70, 0
10, 23985, Note_on_c, 3, 68, 66
10, 24024, Note_on_c, 3, 68, 0
10, 24024, Note_on_c, 3, 70, 70
10, 24063, Note_on_c, 3, 70, 0
10, 24063, Note_on_c, 3, 68, 70
10, 24102, Note_on_c, 3, 68, 0
10, 24103, Note_on_c, 3, 70, 71
10, 24142, Note_on_c, 3, 70, 0
10, 24142, Note_on_c, 3, 68, 59
10, 24181, Note_on_c, 3, 68, 0
10, 24181, Note_on_c, 3, 70, 67
10, 24220, Note_on_c, 3, 70, 0
10, 24221, Note_on_c, 3, 68, 57
10, 24260, Note_on_c, 3, 68, 0
10, 24260, Note_on_c, 3, 70, 54
10, 24299, Note_on_c, 3, 70, 0
10, 24300, Note_on_c, 3, 68, 60
10, 24339, Note_on_c, 3, 68, 0
10, 24339, Note_on_c, 3, 70, 58
10, 24378, Note_on_c, 3, 70, 0
10, 24378, Note_on_c, 3, 68, 60
10, 24417, Note_on_c, 3, 68, 0
10, 24418, Note_on_c, 3, 70, 59
10, 24457, Note_on_c, 3, 70, 0
10, 24457, Note_on_c, 3, 68, 54
10, 24496, Note_on_c, 3, 68, 0
10, 24496, Note_on_c, 3, 70, 54
10, 24535, Note_on_c, 3, 70, 0
10, 24536, Note_on_c, 3, 68, 64
10, 24575, Note_on_c, 3, 68, 0
10, 24575, Note_on_c, 3, 70, 58
10, 24614, Note_on_c, 3, 70, 0
10, 24615, Note_on_c, 3, 68, 58
10, 24654, Note_on_c, 3, 68, 0
10, 24654, Note_on_c, 3, 70, 66
10, 24693, Note_on_c, 3, 70, 0
10, 24693, Note_on_c, 3, 68, 59
10, 24732, Note_on_c, 3, 68, 0
10, 24733, Note_on_c, 3, 70, 58
10, 24772, Note_on_c, 3, 70, 0
10, 24772, Note_on_c, 3, 68, 54
10, 24811, Note_on_c, 3, 68, 0
10, 24811, Note_on_c, 3, 70, 54
10, 24850, Note_on_c, 3, 70, 0
10, 24851, Note_on_c, 3, 68, 69
10, 24890, Note_on_c, 3, 68, 0
10, 24890, Note_on_c, 3, 70, 63
10, 24929, Note_on_c, 3, 70, 0
10, 24930, Note_on_c, 3, 68, 55
10, 24969, Note_on_c, 3, 68, 0
10, 24969, Note_on_c, 3, 70, 69
10, 25008, Note_on_c, 3, 70, 0
10, 25008, Note_on_c, 3, 68, 68
10, 25047, Note_on_c, 3, 68, 0
10, 25048, Note_on_c, 3, 70, 62
10, 25087, Note_on_c, 3, 70, 0
10, 25087, Note_on_c, 3, 68, 52
10, 25126, Note_on_c, 3, 68, 0
10, 25126, Note_on_c, 3, 70, 71
10, 25165, Note_on_c, 3, 70, 0
10, 25166, Note_on_c, 3, 68, 55
10, 25205, Note_on_c, 3, 68, 0
10, 25205, Note_on_c, 3, 70, 65
10, 25244, Note_on_c, 3, 70, 0
10, 25245, Note_on_c, 3, 68, 54
10, 25284, Note_on_c, 3, 68, 0
10, 25284, Note_on_c, 3, 70, 62
10, 25323, Note_on_c, 3, 70, 0
10, 25323, Note_on_c, 3, 68, 65
10, 25362, Note_on_c, 3, 68, 0
10, 25363, Note_on_c, 3, 70, 60
10, 25402, Note_on_c, 3, 70, 0
10, 25402, Note_on_c, 3, 68, 61
10, 25439, Note_on_c, 3, 68, 0
10, 27360, Note_on_c, 3, 68, 66
10, 27398, Note_on_c, 3, 68, 0
10, 27398, Note_on_c, 3, 70, 56
10, 27437, Note_on_c, 3, 70, 0
10, 27437, Note_on_c, 3, 68, 60
10, 27475, Note_on_c, 3, 68, 0
10, 27476, Note_on_c, 3, 70, 60
10, 27515, Note_on_c, 3, 70, 0
10, 27515, Note_on_c, 3, 68, 56
10, 27553, Note_on_c, 3, 68, 0
10, 27554, Note_on_c, 3, 70, 71
10, 27593, Note_on_c, 3, 70, 0
10, 27593, Note_on_c, 3, 68, 65
10, 27631, Note_on_c, 3, 68, 0
10, 27631, Note_on_c, 3, 70, 65
10, 27670, Note_on_c, 3, 70, 0
10, 27671, Note_on_c, 3, 68, 55
10, 27710, Note_on_c, 3, 68, 0
10, 27710, Note_on_c, 3, 70, 52
10, 27748, Note_on_c, 3, 70, 0
10, 27748, Note_on_c, 3, 68, 53
10, 27787, Note_on_c, 3, 68, 0
10, 27787, Note_on_c, 3, 70, 72
10, 27825, Note_on_c, 3, 70, 0
10, 27826, Note_on_c, 3, 68, 70
10, 27865, Note_on_c, 3, 68, 0
10, 27865, Note_on_c, 3, 70, 66
10, 27903, Note_on_c, 3, 70, 0
10, 27904, Note_on_c, 3, 68, 66
10, 27943, Note_on_c, 3, 68, 0
10, 27943, Note_on_c, 3, 70, 65
10, 27981, Note_on_c, 3, 70, 0
10, 27982, Note_on_c, 3, 68, 52
10, 28020, Note_on_c, 3, 68, 0
10, 28021, Note_on_c, 3, 70, 66
10, 28060, Note_on_c, 3, 70, 0
10, 28060, Note_on_c, 3, 68, 60
10, 28098, Note_on_c, 3, 68, 0
10, 28098, Note_on_c, 3, 70, 70
10, 28137, Note_on_c, 3, 70, 0
10, 28138, Note_on_c, 3, 68, 62
10, 28176, Note_on_c, 3, 68, 0
10, 28176, Note_on_c, 3, 70, 72
10, 28215, Note_on_c, 3, 70, 0
10, 28215, Note_on_c, 3, 68, 53
10, 28253, Note_on_c, 3, 68, 0
10, 28254, Note_on_c, 3, 70, 54
10, 28293, Note_on_c, 3, 70, 0
10, 28293, Note_on_c, 3, 68, 56
10, 28332, Note_on_c, 3, 68, 0
10, 28332, Note_on_c, 3, 70, 67
10, 28370, Note_on_c, 3, 70, 0
10, 28371, Note_on_c, 3, 68, 63
10, 28410, Note_on_c, 3, 68, 0
10, 28410, Note_on_c, 3, 70, 67
10, 28448, Note_on_c, 3, 70, 0
10, 28449, Note_on_c, 3, 68, 56
10, 28488, Note_on_c, 3, 68, 0
10, 28488, Note_on_c, 3, 70, 63
10, 28526, Note_on_c, 3, 70, 0
10, 28526, Note_on_c, 3, 68, 64
10, 28565, Note_on_c, 3, 68, 0
10, 28565, Note_on_c, 3, 70, 57
10, 28603, Note_on_c, 3, 70, 0
10, 28605, Note_on_c, 3, 68, 52
10, 28643, Note_on_c, 3, 68, 0
10, 28643, Note_on_c, 3, 70, 61
10, 28682, Note_on_c, 3, 70, 0
10, 28682, Note_on_c, 3, 68, 63
10, 28720, Note_on_c, 3, 68, 0
10, 28721, Note_on_c, 3, 70, 63
10, 28760, Note_on_c, 3, 70, 0
10, 28760, Note_on_c, 3, 68, 54
10, 28795, Note_on_c, 3, 68, 0
10, 29378, Note_on_c, 3, 57, 65
10, 29453, Note_on_c, 3, 65, 67
10, 29457, Note_on_c, 3, 57, 0
10, 29533, Note_on_c, 3, 65, 0
10, 29534, Note_on_c, 3, 73, 56
10, 29609, Note_on_c, 3, 64, 59
10, 29614, Note_on_c, 3, 73, 0
10, 29688, Note_on_c, 3, 64, 0
10, 29703, Note_on_c, 3, 57, 69
10, 29783, Note_on_c, 3, 57, 0
10, 30321, Note_on_c, 3, 57, 59
10, 30400, Note_on_c, 3, 57, 0
10, 30423, Note_on_c, 3, 64, 52
10, 30488, Note_on_c, 3, 73, 72
10, 30503, Note_on_c, 3, 64, 0
10, 30568, Note_on_c, 3, 73, 0
10, 30583, Note_on_c, 3, 65, 52
10, 30654, Note_on_c, 3, 57, 67
10, 30662, Note_on_c, 3, 65, 0
10, 30814, Note_on_c, 3, 57, 0
10, 30821, Note_on_c, 3, 57, 68
10, 30894, Note_on_c, 3, 65, 58
10, 30900, Note_on_c, 3, 57, 0
10, 30972, Note_on_c, 3, 73, 69
10, 30974, Note_on_c, 3, 65, 0
10, 31052, Note_on_c, 3, 73, 0
10, 31052, Note_on_c, 3, 64, 61
10, 31124, Note_on_c, 3, 57, 61
10, 31131, Note_on_c, 3, 64, 0
10, 31284, Note_on_c, 3, 57, 0
10, 31286, Note_on_c, 3, 57, 72
10, 31365, Note_on_c, 3, 57, 0
10, 31366, Note_on_c, 3, 64, 66
10, 31446, Note_on_c, 3, 64, 0
10, 31453, Note_on_c, 3, 73, 55
10, 31522, Note_on_c, 3, 65, 63
10, 31533, Note_on_c, 3, 73, 0
10, 31601, Note_on_c, 3, 65, 0
10, 31603, Note_on_c, 3, 57, 66
10, 31683, Note_on_c, 3, 57, 0
10, 31684, Note_on_c, 3, 53, 61
10, 31804, Note_on_c, 3, 53, 0
10, 49250, Note_on_c, 3, 66, 61
10, 49280, Note_on_c, 3, 56, 52
10, 49295, Note_on_c, 3, 66, 0
10, 49319, Note_on_c, 3, 56, 0
10, 49440, Note_on_c, 3, 52, 68
10, 49479, Note_on_c, 3, 52, 0
10, 49890, Note_on_c, 3, 61, 59
10, 49920, Note_on_c, 3, 56, 52
10, 49935, Note_on_c, 3, 61, 0
10, 49959, Note_on_c, 3, 56, 0
10, 50079, Note_on_c, 3, 52, 64
10, 50119, Note_on_c, 3, 52, 0
10, 50529, Note_on_c, 3, 66, 61
10, 50559, Note_on_c, 3, 56, 69
10, 50574, Note_on_c, 3, 66, 0
10, 50599, Note_on_c, 3, 56, 0
10, 50720, Note_on_c, 3, 52, 66
10, 50759, Note_on_c, 3, 52, 0
10, 51170, Note_on_c, 3, 66, 70
10, 51200, Note_on_c, 3, 56, 64
10, 51215, Note_on_c, 3, 66, 0
10, 51239, Note_on_c, 3, 56, 0
10, 51360, Note_on_c, 3, 52, 55
10, 51399, Note_on_c, 3, 52, 0
10, 51810, Note_on_c, 3, 61, 65
10, 51840, Note_on_c, 3, 56, 53
10, 51855, Note_on_c, 3, 61, 0
10, 51879, Note_on_c, 3, 56, 0
10, 51999, Note_on_c, 3, 52, 52
10, 52039, Note_on_c, 3, 52, 0
10, 52449, Note_on_c, 3, 66, 66
10, 52479, Note_on_c, 3, 56, 58
10, 52494, Note_on_c, 3, 66, 0
10, 52519, Note_on_c, 3, 56, 0
10, 52640, Note_on_c, 3, 52, 58
10, 52679, Note_on_c, 3, 52, 0
10, 53090, Note_on_c, 3, 66, 66
10, 53120, Note_on_c, 3, 56, 54
10, 53135, Note_on_c, 3, 66, 0
10, 53159, Note_on_c, 3, 56, 0
10, 53280, Note_on_c, 3, 52, 65
10, 53319, Note_on_c, 3, 52, 0
10, 53730, Note_on_c, 3, 61, 53
10, 53760, Note_on_c, 3, 56, 64
10, 53775, Note_on_c, 3, 61, 0
10, 53799, Note_on_c, 3, 56, 0
10, 53919, Note_on_c, 3, 52, 57
10, 53959, Note_on_c, 3, 52, 0
10, 54369, Note_on_c, 3, 66, 66
10, 54399, Note_on_c, 3, 56, 62
10, 54414, Note_on_c, 3, 66, 0
10, 54439, Note_on_c, 3, 56, 0
10, 54560, Note_on_c, 3, 52, 64
10, 54599, Note_on_c, 3, 52, 0
10, 66240, Note_on_c, 3, 75, 55
10, 66255, Note_on_c, 3, 75, 0
10, 66273, Note_on_c, 3, 74, 70
10, 66288, Note_on_c, 3, 74, 0
10, 66308, Note_on_c, 3, 73, 57
10, 66323, Note_on_c, 3, 73, 0
10, 66342, Note_on_c, 3, 72, 58
10, 66357, Note_on_c, 3, 72, 0
10, 66376, Note_on_c, 3, 71, 58
10, 66391, Note_on_c, 3, 71, 0
10, 66411, Note_on_c, 3, 70, 55
10, 66426, Note_on_c, 3, 70, 0
10, 66445, Note_on_c, 3, 69, 67
10, 66460, Note_on_c, 3, 69, 0
10, 66490, Note_on_c, 3, 68, 67
10, 66585, Note_on_c, 3, 68, 0
10, 67680, Note_on_c, 3, 75, 60
10, 67695, Note_on_c, 3, 75, 0
10, 67713, Note_on_c, 3, 74, 63
10, 67728, Note_on_c, 3, 74, 0
10, 67748, Note_on_c, 3, 73, 53
10, 67763, Note_on_c, 3, 73, 0
10, 67782, Note_on_c, 3, 72, 68
10, 67797, Note_on_c, 3, 72, 0
10, 67816, Note_on_c, 3, 71, 56
10, 67831, Note_on_c, 3, 71, 0
10, 67851, Note_on_c, 3, 70, 59
10, 67866, Note_on_c, 3, 70, 0
10, 67885, Note_on_c, 3, 69, 53
10, 67900, Note_on_c, 3, 69, 0
10, 67941, Note_on_c, 3, 68, 57
10, 68036, Note_on_c, 3, 68, 0
10, 68880, Note_on_c, 3, 77, 71
10, 68895, Note_on_c, 3, 77, 0
10, 68913, Note_on_c, 3, 76, 65
10, 68928, Note_on_c, 3, 76, 0
10, 68948, Note_on_c, 3, 75, 71
10, 68963, Note_on_c, 3, 75, 0
10, 68982, Note_on_c, 3, 74, 53
10, 68997, Note_on_c, 3, 74, 0
10, 69016, Note_on_c, 3, 73, 60
10, 69031, Note_on_c, 3, 73, 0
10, 69051, Note_on_c, 3, 72, 54
10, 69066, Note_on_c, 3, 72, 0
10, 69085, Note_on_c, 3, 71, 57
10, 69100, Note_on_c, 3, 71, 0
10, 69136, Note_on_c, 3, 70, 70
10, 69231, Note_on_c, 3, 70, 0
10, 69840, Note_on_c, 3, 77, 69
10, 69855, Note_on_c, 3, 77, 0
10, 69873, Note_on_c, 3, 76, 57
10, 69888, Note_on_c, 3, 76, 0
10, 69908, Note_on_c, 3, 75, 54
10, 69923, Note_on_c, 3, 75, 0
10, 69942, Note_on_c, 3, 74, 62
10, 69957, Note_on_c, 3, 74, 0
10, 69976, Note_on_c, 3, 73, 55
10, 69991, Note_on_c, 3, 73, 0
10, 70011, Note_on_c, 3, 72, 59
10, 70026, Note_on_c, 3, 72, 0
10, 70045, Note_on_c, 3, 71, 71
10, 70060, Note_on_c, 3, 71, 0
10, 70099, Note_on_c, 3, 70, 72
10, 70194, Note_on_c, 3, 70, 0
10, 71040, Note_on_c, 3, 77, 61
10, 71055, Note_on_c, 3, 77, 0
10, 71073, Note_on_c, 3, 76, 52
10, 71088, Note_on_c, 3, 76, 0
10, 71108, Note_on_c, 3, 75, 64
10, 71123, Note_on_c, 3, 75, 0
10, 71142, Note_on_c, 3, 74, 69
10, 71157, Note_on_c, 3, 74, 0
10, 71176, Note_on_c, 3, 73, 54
10, 71191, Note_on_c, 3, 73, 0
10, 71211, Note_on_c, 3, 72, 54
10, 71226, Note_on_c, 3, 72, 0
10, 71245, Note_on_c, 3, 71, 55
10, 71260, Note_on_c, 3, 71, 0
10, 71288, Note_on_c, 3, 70, 65
10, 71383, Note_on_c, 3, 70, 0
10, 108720, Note_on_c, 3, 58, 95
10, 108751, Note_on_c, 3, 58, 0
10, 108800, Note_on_c, 3, 65, 96
10, 108831, Note_on_c, 3, 65, 0
10, 108879, Note_on_c, 3, 72, 93
10, 108911, Note_on_c, 3, 72, 0
10, 110640, Note_on_c, 3, 58, 79
10, 110671, Note_on_c, 3, 58, 0
10, 110720, Note_on_c, 3, 65, 82
10, 110751, Note_on_c, 3, 65, 0
10, 110799, Note_on_c, 3, 72, 89
10, 110831, Note_on_c, 3, 72, 0
10, 111600, Note_on_c, 3, 58, 85
10, 111631, Note_on_c, 3, 58, 0
10, 111680, Note_on_c, 3, 65, 82
10, 111711, Note_on_c, 3, 65, 0
10, 111759, Note_on_c, 3, 72, 97
10, 111791, Note_on_c, 3, 72, 0
10, 113280, Note_on_c, 3, 78, 93
10, 113311, Note_on_c, 3, 78, 0
10, 113360, Note_on_c, 3, 77, 95
10, 113391, Note_on_c, 3, 77, 0
10, 113439, Note_on_c, 3, 76, 104
10, 113471, Note_on_c, 3, 76, 0
10, 113520, Note_on_c, 3, 75, 106
10, 113551, Note_on_c, 3, 75, 0
10, 113600, Note_on_c, 3, 74, 92
10, 113631, Note_on_c, 3, 74, 0
10, 113679, Note_on_c, 3, 73, 92
10, 113711, Note_on_c, 3, 73, 0
10, 113760, Note_on_c, 3, 72, 104
10, 113807, Note_on_c, 3, 72, 0
10, 114720, Note_on_c, 3, 68, 92
10, 114751, Note_on_c, 3, 68, 0
10, 114800, Note_on_c, 3, 67, 106
10, 114831, Note_on_c, 3, 67, 0
10, 114879, Note_on_c, 3, 66, 111
10, 114911, Note_on_c, 3, 66, 0
10, 114960, Note_on_c, 3, 65, 103
10, 114991, Note_on_c, 3, 65, 0
10, 115040, Note_on_c, 3, 64, 107
10, 115071, Note_on_c, 3, 64, 0
10, 115119, Note_on_c, 3, 63, 109
10, 115151, Note_on_c, 3, 63, 0
10, 115222, Note_on_c, 3, 62, 96
10, 115317, Note_on_c, 3, 62, 0
10, 152659, Note_on_c, 3, 79, 94
10, 152711, Note_on_c, 3, 80, 81
10, 152727, Note_on_c, 3, 79, 0
10, 152776, Note_on_c, 3, 79, 87
10, 152779, Note_on_c, 3, 80, 0
10, 152844, Note_on_c, 3, 79, 0
10, 152868, Note_on_c, 3, 80, 87
10, 152922, Note_on_c, 3, 79, 78
10, 152936, Note_on_c, 3, 80, 0
10, 152982, Note_on_c, 3, 80, 87
10, 152990, Note_on_c, 3, 79, 0
10, 153050, Note_on_c, 3, 80, 0
10, 153061, Note_on_c, 3, 79, 95
10, 153129, Note_on_c, 3, 79, 0
10, 153209, Note_on_c, 3, 84, 81
10, 153282, Note_on_c, 3, 79, 89
10, 153288, Note_on_c, 3, 84, 0
10, 153362, Note_on_c, 3, 79, 0
10, 153376, Note_on_c, 3, 76, 93
10, 153450, Note_on_c, 3, 72, 87
10, 153456, Note_on_c, 3, 76, 0
10, 153523, Note_on_c, 3, 67, 85
10, 153529, Note_on_c, 3, 72, 0
10, 153603, Note_on_c, 3, 67, 0
10, 153611, Note_on_c, 3, 60, 89
10, 153851, Note_on_c, 3, 60, 0
10, 158400, Note_on_c, 3, 64, 86
10, 158447, Note_on_c, 3, 64, 0
10, 158520, Note_on_c, 3, 67, 78
10, 158567, Note_on_c, 3, 67, 0
10, 158640, Note_on_c, 3, 72, 98
10, 158687, Note_on_c, 3, 72, 0
10, 158760, Note_on_c, 3, 76, 95
10, 158807, Note_on_c, 3, 76, 0
10, 158880, Note_on_c, 3, 79, 88
10, 158927, Note_on_c, 3, 79, 0
10, 159000, Note_on_c, 3, 76, 85
10, 159047, Note_on_c, 3, 76, 0
10, 159120, Note_on_c, 3, 72, 88
10, 159167, Note_on_c, 3, 72, 0
10, 159240, Note_on_c, 3, 67, 89
10, 159287, Note_on_c, 3, 67, 0
10, 159360, Note_on_c, 3, 64, 78
10, 159407, Note_on_c, 3, 64, 0
10, 159480, Note_on_c, 3, 67, 84
10, 159527, Note_on_c, 3, 67, 0
10, 159600, Note_on_c, 3, 72, 92
10, 159647, Note_on_c, 3, 72, 0
10, 159720, Note_on_c, 3, 76, 88
10, 159767, Note_on_c, 3, 76, 0
10, 159840, Note_on_c, 3, 79, 84
10, 159887, Note_on_c, 3, 79, 0
10, 159960, Note_on_c, 3, 76, 86
10, 160007, Note_on_c, 3, 76, 0
10, 160080, Note_on_c, 3, 72, 88
10, 160127, Note_on_c, 3, 72, 0
10, 160200, Note_on_c, 3, 67, 81
10, 160247, Note_on_c, 3, 67, 0
10, 160320, Note_on_c, 3, 64, 94
10, 160367, Note_on_c, 3, 64, 0
10, 160440, Note_on_c, 3, 67, 79
10, 160487, Note_on_c, 3, 67, 0
10, 160560, Note_on_c, 3, 72, 97
10, 160607, Note_on_c, 3, 72, 0
10, 160680, Note_on_c, 3, 76, 81
10, 160727, Note_on_c, 3, 76, 0
10, 160800, Note_on_c, 3, 79, 82
10, 160847, Note_on_c, 3, 79, 0
10, 160920, Note_on_c, 3, 76, 92
10, 160967, Note_on_c, 3, 76, 0
10, 161040, Note_on_c, 3, 72, 93
10, 161087, Note_on_c, 3, 72, 0
10, 161160, Note_on_c, 3, 67, 78
10, 161207, Note_on_c, 3, 67, 0
10, 161280, Note_on_c, 3, 64, 93
10, 161327, Note_on_c, 3, 64, 0
10, 161400, Note_on_c, 3, 67, 92
10, 161447, Note_on_c, 3, 67, 0
10, 161520, Note_on_c, 3, 72, 82
10, 161567, Note_on_c, 3, 72, 0
10, 161640, Note_on_c, 3, 76, 84
10, 161687, Note_on_c, 3, 76, 0
10, 161779, Note_on_c, 3, 79, 78
10, 161899, Note_on_c, 3, 79, 0
10, 183845, Note_on_c, 3, 65, 53
10, 183855, Note_on_c, 3, 70, 50
10, 183940, Note_on_c, 3, 65, 0
10, 183950, Note_on_c, 3, 70, 0
10, 184082, Note_on_c, 3, 72, 39
10, 184098, Note_on_c, 3, 67, 44
10, 184177, Note_on_c, 3, 72, 0
10, 184193, Note_on_c, 3, 67, 0
10, 184334, Note_on_c, 3, 70, 39
10, 184338, Note_on_c, 3, 65, 43
10, 184429, Note_on_c, 3, 70, 0
10, 184433, Note_on_c, 3, 65, 0
10, 184567, Note_on_c, 3, 67, 55
10, 184570, Note_on_c, 3, 72, 47
10, 184662, Note_on_c, 3, 67, 0
10, 184665, Note_on_c, 3, 72, 0
10, 184803, Note_on_c, 3, 65, 54
10, 184824, Note_on_c, 3, 70, 52
10, 184898, Note_on_c, 3, 65, 0
10, 184919, Note_on_c, 3, 70, 0
10, 185043, Note_on_c, 3, 67, 48
10, 185061, Note_on_c, 3, 72, 39
10, 185138, Note_on_c, 3, 67, 0
10, 185156, Note_on_c, 3, 72, 0
10, 185281, Note_on_c, 3, 65, 48
10, 185290, Note_on_c, 3, 70, 46
10, 185376, Note_on_c, 3, 65, 0
10, 185385, Note_on_c, 3, 70, 0
10, 185521, Note_on_c, 3, 72, 53
10, 185529, Note_on_c, 3, 67, 59
10, 185616, Note_on_c, 3, 72, 0
10, 185624, Note_on_c, 3, 67, 0
10, 185763, Note_on_c, 3, 65, 46
10, 185784, Note_on_c, 3, 70, 54
10, 185858, Note_on_c, 3, 65, 0
10, 185879, Note_on_c, 3, 70, 0
10, 186002, Note_on_c, 3, 72, 55
10, 186024, Note_on_c, 3, 67, 40
10, 186097, Note_on_c, 3, 72, 0
10, 186119, Note_on_c, 3, 67, 0
10, 186245, Note_on_c, 3, 70, 46
10, 186254, Note_on_c, 3, 65, 50
10, 186340, Note_on_c, 3, 70, 0
10, 186349, Note_on_c, 3, 65, 0
10, 186480, Note_on_c, 3, 67, 45
10, 186483, Note_on_c, 3, 72, 53
10, 186575, Note_on_c, 3, 67, 0
10, 186578, Note_on_c, 3, 72, 0
10, 186727, Note_on_c, 3, 70, 42
10, 186739, Note_on_c, 3, 65, 58
10, 186822, Note_on_c, 3, 70, 0
10, 186834, Note_on_c, 3, 65, 0
10, 186975, Note_on_c, 3, 67, 52
10, 186985, Note_on_c, 3, 72, 39
10, 187070, Note_on_c, 3, 67, 0
10, 187080, Note_on_c, 3, 72, 0
10, 187224, Note_on_c, 3, 70, 45
10, 187225, Note_on_c, 3, 65, 46
10, 187319, Note_on_c, 3, 70, 0
10, 187320, Note_on_c, 3, 65, 0
10, 187446, Note_on_c, 3, 72, 46
10, 187449, Note_on_c, 3, 67, 58
10, 187541, Note_on_c, 3, 72, 0
10, 187544, Note_on_c, 3, 67, 0
10, 187685, Note_on_c, 3, 65, 49
10, 187688, Note_on_c, 3, 70, 44
10, 187780, Note_on_c, 3, 65, 0
10, 187783, Note_on_c, 3, 70, 0
10, 187923, Note_on_c, 3, 67, 42
10, 187943, Note_on_c, 3, 72, 49
10, 188018, Note_on_c, 3, 67, 0
10, 188038, Note_on_c, 3, 72, 0
10, 188166, Note_on_c, 3, 65, 48
10, 188176, Note_on_c, 3, 70, 59
10, 188261, Note_on_c, 3, 65, 0
10, 188271, Note_on_c, 3, 70, 0
10, 188400, Note_on_c, 3, 67, 44
10, 188412, Note_on_c, 3, 72, 46
10, 188495, Note_on_c, 3, 67, 0
10, 188507, Note_on_c, 3, 72, 0
10, 188653, Note_on_c, 3, 65, 57
10, 188661, Note_on_c, 3, 70, 55
10, 188748, Note_on_c, 3, 65, 0
10, 188756, Note_on_c, 3, 70, 0
10, 188889, Note_on_c, 3, 72, 45
10, 188905, Note_on_c, 3, 67, 55
10, 188984, Note_on_c, 3, 72, 0
10, 189000, Note_on_c, 3, 67, 0
10, 189125, Note_on_c, 3, 70, 39
10, 189143, Note_on_c, 3, 65, 59
10, 189220, Note_on_c, 3, 70, 0
10, 189238, Note_on_c, 3, 65, 0
10, 189377, Note_on_c, 3, 67, 57
10, 189380, Note_on_c, 3, 72, 40
10, 189472, Note_on_c, 3, 67, 0
10, 189475, Note_on_c, 3, 72, 0
10, 189610, Note_on_c, 3, 70, 58
10, 189622, Note_on_c, 3, 65, 46
10, 189705, Note_on_c, 3, 70, 0
10, 189717, Note_on_c, 3, 65, 0
10, 189844, Note_on_c, 3, 72, 45
10, 189859, Note_on_c, 3, 67, 42
10, 189939, Note_on_c, 3, 72, 0
10, 189954, Note_on_c, 3, 67, 0
10, 190099, Note_on_c, 3, 70, 53
10, 190103, Note_on_c, 3, 65, 47
10, 190194, Note_on_c, 3, 70, 0
10, 190198, Note_on_c, 3, 65, 0
10, 190337, Note_on_c, 3, 72, 42
10, 190340, Note_on_c, 3, 67, 49
10, 190432, Note_on_c, 3, 72, 0
10, 190435, Note_on_c, 3, 67, 0
10, 190562, Note_on_c, 3, 65, 49
10, 190570, Note_on_c, 3, 70, 44
10, 190657, Note_on_c, 3, 65, 0
10, 190665, Note_on_c, 3, 70, 0
10, 190811, Note_on_c, 3, 67, 50
10, 190811, Note_on_c, 3, 72, 59
10, 190906, Note_on_c, 3, 67, 0
10, 190906, Note_on_c, 3, 72, 0
10, 191049, Note_on_c, 3, 65, 39
10, 191060, Note_on_c, 3, 70, 41
10, 191144, Note_on_c, 3, 65, 0
10, 191155, Note_on_c, 3, 70, 0
10, 191295, Note_on_c, 3, 67, 41
10, 191302, Note_on_c, 3, 72, 40
10, 191390, Note_on_c, 3, 67, 0
10, 191397, Note_on_c, 3, 72, 0
10, 191532, Note_on_c, 3, 65, 56
10, 191533, Note_on_c, 3, 70, 48
10, 191627, Note_on_c, 3, 65, 0
10, 191628, Note_on_c, 3, 70, 0
10, 191772, Note_on_c, 3, 67, 42
10, 191782, Note_on_c, 3, 72, 43
10, 191867, Note_on_c, 3, 67, 0
10, 191877, Note_on_c, 3, 72, 0
10, 192014, Note_on_c, 3, 65, 52
10, 192019, Note_on_c, 3, 70, 59
10, 192109, Note_on_c, 3, 65, 0
10, 192114, Note_on_c, 3, 70, 0
10, 192245, Note_on_c, 3, 72, 49
10, 192264, Note_on_c, 3, 67, 49
10, 192340, Note_on_c, 3, 72, 0
10, 192359, Note_on_c, 3, 67, 0
10, 192485, Note_on_c, 3, 70, 57
10, 192488, Note_on_c, 3, 65, 48
10, 192580, Note_on_c, 3, 70, 0
10, 192583, Note_on_c, 3, 65, 0
10, 192720, Note_on_c, 3, 67, 59
10, 192726, Note_on_c, 3, 72, 41
10, 192815, Note_on_c, 3, 67, 0
10, 192821, Note_on_c, 3, 72, 0
10, 194423, Note_on_c, 3, 73, 65
10, 194477, Note_on_c, 3, 74, 70
10, 194525, Note_on_c, 3, 73, 0
10, 194546, Note_on_c, 3, 73, 70
10, 194579, Note_on_c, 3, 74, 0
10, 194617, Note_on_c, 3, 74, 65
10, 194648, Note_on_c, 3, 73, 0
10, 194696, Note_on_c, 3, 73, 84
10, 194719, Note_on_c, 3, 74, 0
10, 194747, Note_on_c, 3, 74, 66
10, 194798, Note_on_c, 3, 73, 0
10, 194818, Note_on_c, 3, 73, 74
10, 194849, Note_on_c, 3, 74, 0
10, 194880, Note_on_c, 3, 77, 67
10, 194915, Note_on_c, 3, 73, 0
10, 194915, Note_on_c, 3, 77, 0
10, 195000, Note_on_c, 3, 82, 66
10, 195035, Note_on_c, 3, 82, 0
10, 195120, Note_on_c, 3, 80, 85
10, 195155, Note_on_c, 3, 80, 0
10, 195240, Note_on_c, 3, 72, 72
10, 195275, Note_on_c, 3, 72, 0
10, 195374, Note_on_c, 3, 73, 84
10, 195438, Note_on_c, 3, 74, 82
10, 195476, Note_on_c, 3, 73, 0
10, 195509, Note_on_c, 3, 73, 68
10, 195540, Note_on_c, 3, 74, 0
10, 195578, Note_on_c, 3, 74, 85
10, 195611, Note_on_c, 3, 73, 0
10, 195640, Note_on_c, 3, 73, 78
10, 195680, Note_on_c, 3, 74, 0
10, 195705, Note_on_c, 3, 74, 69
10, 195742, Note_on_c, 3, 73, 0
10, 195777, Note_on_c, 3, 73, 82
10, 195807, Note_on_c, 3, 74, 0
10, 195840, Note_on_c, 3, 77, 85
10, 195874, Note_on_c, 3, 73, 0
10, 195875, Note_on_c, 3, 77, 0
10, 195960, Note_on_c, 3, 82, 76
10, 195995, Note_on_c, 3, 82, 0
10, 196080, Note_on_c, 3, 80, 77
10, 196115, Note_on_c, 3, 80, 0
10, 196200, Note_on_c, 3, 72, 84
10, 196235, Note_on_c, 3, 72, 0
10, 196342, Note_on_c, 3, 73, 83
10, 196409, Note_on_c, 3, 74, 78
10, 196444, Note_on_c, 3, 73, 0
10, 196464, Note_on_c, 3, 73, 66
10, 196511, Note_on_c, 3, 74, 0
10, 196549, Note_on_c, 3, 74, 75
10, 196566, Note_on_c, 3, 73, 0
10, 196595, Note_on_c, 3, 73, 69
10, 196651, Note_on_c, 3, 74, 0
10, 196675, Note_on_c, 3, 74, 66
10, 196697, Note_on_c, 3, 73, 0
10, 196753, Note_on_c, 3, 73, 66
10, 196777, Note_on_c, 3, 74, 0
10, 196800, Note_on_c, 3, 77, 74
10, 196835, Note_on_c, 3, 77, 0
10, 196850, Note_on_c, 3, 73, 0
10, 196920, Note_on_c, 3, 82, 72
10, 196955, Note_on_c, 3, 82, 0
10, 197040, Note_on_c, 3, 80, 77
10, 197075, Note_on_c, 3, 80, 0
10, 197160, Note_on_c, 3, 72, 84
10, 197195, Note_on_c, 3, 72, 0
10, 197283, Note_on_c, 3, 73, 66
10, 197355, Note_on_c, 3, 74, 76
10, 197385, Note_on_c, 3, 73, 0
10, 197423, Note_on_c, 3, 73, 77
10, 197457, Note_on_c, 3, 74, 0
10, 197485, Note_on_c, 3, 74, 65
10, 197525, Note_on_c, 3, 73, 0
10, 197564, Note_on_c, 3, 73, 77
10, 197587, Note_on_c, 3, 74, 0
10, 197623, Note_on_c, 3, 74, 80
10, 197666, Note_on_c, 3, 73, 0
10, 197702, Note_on_c, 3, 73, 72
10, 197725, Note_on_c, 3, 74, 0
10, 197760, Note_on_c, 3, 77, 76
10, 197795, Note_on_c, 3, 77, 0
10, 197799, Note_on_c, 3, 73, 0
10, 197880, Note_on_c, 3, 82, 82
10, 197915, Note_on_c, 3, 82, 0
10, 198000, Note_on_c, 3, 80, 75
10, 198035, Note_on_c, 3, 80, 0
10, 198120, Note_on_c, 3, 72, 84
10, 198155, Note_on_c, 3, 72, 0
10, 198241, Note_on_c, 3, 73, 80
10, 198325, Note_on_c, 3, 74, 74
10, 198343, Note_on_c, 3, 73, 0
10, 198379, Note_on_c, 3, 73, 73
10, 198427, Note_on_c, 3, 74, 0
10, 198467, Note_on_c, 3, 74, 66
10, 198481, Note_on_c, 3, 73, 0
10, 198533, Note_on_c, 3, 73, 69
10, 198569, Note_on_c, 3, 74, 0
10, 198594, Note_on_c, 3, 74, 77
10, 198635, Note_on_c, 3, 73, 0
10, 198673, Note_on_c, 3, 73, 85
10, 198696, Note_on_c, 3, 74, 0
10, 198720, Note_on_c, 3, 77, 67
10, 198755, Note_on_c, 3, 77, 0
10, 198770, Note_on_c, 3, 73, 0
10, 198840, Note_on_c, 3, 82, 85
10, 198875, Note_on_c, 3, 82, 0
10, 198960, Note_on_c, 3, 80, 84
10, 198995, Note_on_c, 3, 80, 0
10, 199080, Note_on_c, 3, 72, 65
10, 199115, Note_on_c, 3, 72, 0
10, 199211, Note_on_c, 3, 73, 65
10, 199292, Note_on_c, 3, 74, 81
10, 199313, Note_on_c, 3, 73, 0
10, 199343, Note_on_c, 3, 73, 75
10, 199394, Note_on_c, 3, 74, 0
10, 199419, Note_on_c, 3, 74, 68
10, 199445, Note_on_c, 3, 73, 0
10, 199494, Note_on_c, 3, 73, 80
10, 199521, Note_on_c, 3, 74, 0
10, 199560, Note_on_c, 3, 74, 70
10, 199596, Note_on_c, 3, 73, 0
10, 199630, Note_on_c, 3, 73, 75
10, 199662, Note_on_c, 3, 74, 0
10, 199680, Note_on_c, 3, 77, 79
10, 199715, Note_on_c, 3, 77, 0
10, 199727, Note_on_c, 3, 73, 0
10, 199800, Note_on_c, 3, 82, 79
10, 199835, Note_on_c, 3, 82, 0
10, 199920, Note_on_c, 3, 80, 74
10, 199955, Note_on_c, 3, 80, 0
10, 200040, Note_on_c, 3, 72, 73
10, 200075, Note_on_c, 3, 72, 0
10, 200182, Note_on_c, 3, 73, 83
10, 200246, Note_on_c, 3, 74, 80
10, 200284, Note_on_c, 3, 73, 0
10, 200298, Note_on_c, 3, 73, 68
10, 200348, Note_on_c, 3, 74, 0
10, 200378, Note_on_c, 3, 74, 74
10, 200400, Note_on_c, 3, 73, 0
10, 200452, Note_on_c, 3, 73, 65
10, 200480, Note_on_c, 3, 74, 0
10, 200524, Note_on_c, 3, 74, 68
10, 200554, Note_on_c, 3, 73, 0
10, 200595, Note_on_c, 3, 73, 74
10, 200626, Note_on_c, 3, 74, 0
10, 200640, Note_on_c, 3, 77, 83
10, 200675, Note_on_c, 3, 77, 0
10, 200692, Note_on_c, 3, 73, 0
10, 200760, Note_on_c, 3, 82, 79
10, 200795, Note_on_c, 3, 82, 0
10, 200880, Note_on_c, 3, 80, 68
10, 200915, Note_on_c, 3, 80, 0
10, 201000, Note_on_c, 3, 72, 74
10, 201035, Note_on_c, 3, 72, 0
10, 201127, Note_on_c, 3, 73, 74
10, 201188, Note_on_c, 3, 74, 72
10, 201229, Note_on_c, 3, 73, 0
10, 201261, Note_on_c, 3, 73, 82
10, 201290, Note_on_c, 3, 74, 0
10, 201330, Note_on_c, 3, 74, 85
10, 201363, Note_on_c, 3, 73, 0
10, 201414, Note_on_c, 3, 73, 84
10, 201432, Note_on_c, 3, 74, 0
10, 201467, Note_on_c, 3, 74, 76
10, 201516, Note_on_c, 3, 73, 0
10, 201531, Note_on_c, 3, 73, 68
10, 201569, Note_on_c, 3, 74, 0
10, 201600, Note_on_c, 3, 77, 77
10, 201628, Note_on_c, 3, 73, 0
10, 201635, Note_on_c, 3, 77, 0
10, 201720, Note_on_c, 3, 82, 65
10, 201755, Note_on_c, 3, 82, 0
10, 201840, Note_on_c, 3, 80, 77
10, 201875, Note_on_c, 3, 80, 0
10, 201960, Note_on_c, 3, 72, 85
10, 201995, Note_on_c, 3, 72, 0
10, 202092, Note_on_c, 3, 73, 85
10, 202172, Note_on_c, 3, 74, 74
10, 202194, Note_on_c, 3, 73, 0
10, 202221, Note_on_c, 3, 73, 83
10, 202274, Note_on_c, 3, 74, 0
10, 202296, Note_on_c, 3, 74, 85
10, 202323, Note_on_c, 3, 73, 0
10, 202367, Note_on_c, 3, 73, 81
10, 202398, Note_on_c, 3, 74, 0
10, 202421, Note_on_c, 3, 74, 85
10, 202469, Note_on_c, 3, 73, 0
10, 202506, Note_on_c, 3, 73, 81
10, 202523, Note_on_c, 3, 74, 0
10, 202560, Note_on_c, 3, 77, 72
10, 202595, Note_on_c, 3, 77, 0
10, 202603, Note_on_c, 3, 73, 0
10, 202680, Note_on_c, 3, 82, 81
10, 202715, Note_on_c, 3, 82, 0
10, 202800, Note_on_c, 3, 80, 76
10, 202835, Note_on_c, 3, 80, 0
10, 202920, Note_on_c, 3, 72, 75
10, 202955, Note_on_c, 3, 72, 0
10, 203050, Note_on_c, 3, 73, 69
10, 203115, Note_on_c, 3, 74, 70
10, 203152, Note_on_c, 3, 73, 0
10, 203188, Note_on_c, 3, 73, 84
10, 203217, Note_on_c, 3, 74, 0
10, 203256, Note_on_c, 3, 74, 83
10, 203290, Note_on_c, 3, 73, 0
10, 203338, Note_on_c, 3, 73, 83
10, 203358, Note_on_c, 3, 74, 0
10, 203391, Note_on_c, 3, 74, 68
10, 203440, Note_on_c, 3, 73, 0
10, 203472, Note_on_c, 3, 73, 75
10, 203493, Note_on_c, 3, 74, 0
10, 203520, Note_on_c, 3, 77, 74
10, 203555, Note_on_c, 3, 77, 0
10, 203569, Note_on_c, 3, 73, 0
10, 203640, Note_on_c, 3, 82, 66
10, 203675, Note_on_c, 3, 82, 0
10, 203760, Note_on_c, 3, 80, 83
10, 203795, Note_on_c, 3, 80, 0
10, 203880, Note_on_c, 3, 72, 78
10, 203915, Note_on_c, 3, 72, 0
10, 204008, Note_on_c, 3, 73, 82
10, 204074, Note_on_c, 3, 74, 67
10, 204110, Note_on_c, 3, 73, 0
10, 204138, Note_on_c, 3, 73, 71
10, 204176, Note_on_c, 3, 74, 0
10, 204215, Note_on_c, 3, 74, 78
10, 204240, Note_on_c, 3, 73, 0
10, 204289, Note_on_c, 3, 73, 78
10, 204317, Note_on_c, 3, 74, 0
10, 204345, Note_on_c, 3, 74, 69
10, 204391, Note_on_c, 3, 73, 0
10, 204435, Note_on_c, 3, 73, 74
10, 204447, Note_on_c, 3, 74, 0
10, 204480, Note_on_c, 3, 77, 76
10, 204515, Note_on_c, 3, 77, 0
10, 204532, Note_on_c, 3, 73, 0
10, 204600, Note_on_c, 3, 82, 78
10, 204635, Note_on_c, 3, 82, 0
10, 204720, Note_on_c, 3, 80, 74
10, 204755, Note_on_c, 3, 80, 0
10, 204840, Note_on_c, 3, 72, 79
10, 204875, Note_on_c, 3, 72, 0
10, 204960, Note_on_c, 3, 73, 80
10, 205049, Note_on_c, 3, 74, 71
10, 205062, Note_on_c, 3, 73, 0
10, 205104, Note_on_c, 3, 73, 84
10, 205151, Note_on_c, 3, 74, 0
10, 205167, Note_on_c, 3, 74, 79
10, 205206, Note_on_c, 3, 73, 0
10, 205252, Note_on_c, 3, 73, 71
10, 205269, Note_on_c, 3, 74, 0
10, 205321, Note_on_c, 3, 74, 68
10, 205354, Note_on_c, 3, 73, 0
10, 205389, Note_on_c, 3, 73, 81
10, 205423, Note_on_c, 3, 74, 0
10, 205440, Note_on_c, 3, 77, 73
10, 205475, Note_on_c, 3, 77, 0
10, 205486, Note_on_c, 3, 73, 0
10, 205560, Note_on_c, 3, 82, 71
10, 205595, Note_on_c, 3, 82, 0
10, 205680, Note_on_c, 3, 80, 79
10, 205715, Note_on_c, 3, 80, 0
10, 205800, Note_on_c, 3, 72, 80
10, 205835, Note_on_c, 3, 72, 0
10, 205939, Note_on_c, 3, 73, 82
10, 206012, Note_on_c, 3, 74, 65
10, 206041, Note_on_c, 3, 73, 0
10, 206074, Note_on_c, 3, 73, 75
10, 206114, Note_on_c, 3, 74, 0
10, 206132, Note_on_c, 3, 74, 83
10, 206176, Note_on_c, 3, 73, 0
10, 206194, Note_on_c, 3, 73, 73
10, 206234, Note_on_c, 3, 74, 0
10, 206284, Note_on_c, 3, 74, 76
10, 206296, Note_on_c, 3, 73, 0
10, 206355, Note_on_c, 3, 73, 79
10, 206386, Note_on_c, 3, 74, 0
10, 206400, Note_on_c, 3, 77, 68
10, 206435, Note_on_c, 3, 77, 0
10, 206452, Note_on_c, 3, 73, 0
10, 206520, Note_on_c, 3, 82, 78
10, 206555, Note_on_c, 3, 82, 0
10, 206640, Note_on_c, 3, 80, 84
10, 206675, Note_on_c, 3, 80, 0
10, 206760, Note_on_c, 3, 72, 67
10, 206795, Note_on_c, 3, 72, 0
10, 206895, Note_on_c, 3, 73, 67
10, 206967, Note_on_c, 3, 74, 83
10, 206997, Note_on_c, 3, 73, 0
10, 207030, Note_on_c, 3, 73, 69
10, 207069, Note_on_c, 3, 74, 0
10, 207097, Note_on_c, 3, 74, 72
10, 207132, Note_on_c, 3, 73, 0
10, 207162, Note_on_c, 3, 73, 83
10, 207199, Note_on_c, 3, 74, 0
10, 207228, Note_on_c, 3, 74, 75
10, 207264, Note_on_c, 3, 73, 0
10, 207292, Note_on_c, 3, 73, 78
10, 207330, Note_on_c, 3, 74, 0
10, 207360, Note_on_c, 3, 77, 68
10, 207389, Note_on_c, 3, 73, 0
10, 207395, Note_on_c, 3, 77, 0
10, 207480, Note_on_c, 3, 82, 71
10, 207515, Note_on_c, 3, 82, 0
10, 207600, Note_on_c, 3, 80, 75
10, 207635, Note_on_c, 3, 80, 0
10, 207720, Note_on_c, 3, 72, 72
10, 207755, Note_on_c, 3, 72, 0
10, 207844, Note_on_c, 3, 73, 75
10, 207921, Note_on_c, 3, 74, 71
10, 207946, Note_on_c, 3, 73, 0
10, 207986, Note_on_c, 3, 73, 74
10, 208023, Note_on_c, 3, 74, 0
10, 208053, Note_on_c, 3, 74, 66
10, 208088, Note_on_c, 3, 73, 0
10, 208119, Note_on_c, 3, 73, 66
10, 208155, Note_on_c, 3, 74, 0
10, 208205, Note_on_c, 3, 74, 76
10, 208221, Note_on_c, 3, 73, 0
10, 208269, Note_on_c, 3, 73, 79
10, 208307, Note_on_c, 3, 74, 0
10, 208320, Note_on_c, 3, 77, 82
10, 208355, Note_on_c, 3, 77, 0
10, 208366, Note_on_c, 3, 73, 0
10, 208440, Note_on_c, 3, 82, 78
10, 208475, Note_on_c, 3, 82, 0
10, 208560, Note_on_c, 3, 80, 71
10, 208595, Note_on_c, 3, 80, 0
10, 208680, Note_on_c, 3, 72, 72
10, 208715, Note_on_c, 3, 72, 0
10, 208823, Note_on_c, 3, 73, 74
10, 208883, Note_on_c, 3, 74, 69
10, 208925, Note_on_c, 3, 73, 0
10, 208940, Note_on_c, 3, 73, 70
10, 208985, Note_on_c, 3, 74, 0
10, 209006, Note_on_c, 3, 74, 76
10, 209042, Note_on_c, 3, 73, 0
10, 209084, Note_on_c, 3, 73, 80
10, 209108, Note_on_c, 3, 74, 0
10, 209141, Note_on_c, 3, 74, 80
10, 209186, Note_on_c, 3, 73, 0
10, 209221, Note_on_c, 3, 73, 65
10, 209243, Note_on_c, 3, 74, 0
10, 209280, Note_on_c, 3, 77, 83
10, 209315, Note_on_c, 3, 77, 0
10, 209318, Note_on_c, 3, 73, 0
10, 209400, Note_on_c, 3, 82, 72
10, 209435, Note_on_c, 3, 82, 0
10, 209520, Note_on_c, 3, 80, 67
10, 209555, Note_on_c, 3, 80, 0
10, 209640, Note_on_c, 3, 72, 84
10, 209675, Note_on_c, 3, 72, 0
10, 209764, Note_on_c, 3, 73, 67
10, 209844, Note_on_c, 3, 74, 71
10, 209866, Note_on_c, 3, 73, 0
10, 209896, Note_on_c, 3, 73, 77
10, 209946, Note_on_c, 3, 74, 0
10, 209990, Note_on_c, 3, 74, 82
10, 209998, Note_on_c, 3, 73, 0
10, 210041, Note_on_c, 3, 73, 72
10, 210092, Note_on_c, 3, 74, 0
10, 210116, Note_on_c, 3, 74, 82
10, 210143, Note_on_c, 3, 73, 0
10, 210191, Note_on_c, 3, 73, 83
10, 210218, Note_on_c, 3, 74, 0
10, 210240, Note_on_c, 3, 77, 71
10, 210275, Note_on_c, 3, 77, 0
10, 210288, Note_on_c, 3, 73, 0
10, 210360, Note_on_c, 3, 82, 66
10, 210395, Note_on_c, 3, 82, 0
10, 210480, Note_on_c, 3, 80, 83
10, 210515, Note_on_c, 3, 80, 0
10, 210600, Note_on_c, 3, 72, 78
10, 210635, Note_on_c, 3, 72, 0
10, 210729, Note_on_c, 3, 73, 66
10, 210801, Note_on_c, 3, 74, 74
10, 210831, Note_on_c, 3, 73, 0
10, 210873, Note_on_c, 3, 73, 79
10, 210903, Note_on_c, 3, 74, 0
10, 210944, Note_on_c, 3, 74, 82
10, 210975, Note_on_c, 3, 73, 0
10, 211009, Note_on_c, 3, 73, 80
10, 211046, Note_on_c, 3, 74, 0
10, 211061, Note_on_c, 3, 74, 82
10, 211111, Note_on_c, 3, 73, 0
10, 211130, Note_on_c, 3, 73, 71
10, 211163, Note_on_c, 3, 74, 0
10, 211200, Note_on_c, 3, 77, 71
10, 211227, Note_on_c, 3, 73, 0
10, 211235, Note_on_c, 3, 77, 0
10, 211320, Note_on_c, 3, 82, 73
10, 211355, Note_on_c, 3, 82, 0
10, 211440, Note_on_c, 3, 80, 79
10, 211475, Note_on_c, 3, 80, 0
10, 211560, Note_on_c, 3, 72, 81
10, 211595, Note_on_c, 3, 72, 0
10, 213850, Note_on_c, 3, 68, 87
10, 213860, Note_on_c, 3, 70, 89
10, 213921, Note_on_c, 3, 68, 0
10, 213931, Note_on_c, 3, 70, 0
10, 214323, Note_on_c, 3, 72, 99
10, 214328, Note_on_c, 3, 70, 100
10, 214394, Note_on_c, 3, 72, 0
10, 214399, Note_on_c, 3, 70, 0
10, 215762, Note_on_c, 3, 70, 94
10, 215783, Note_on_c, 3, 68, 85
10, 215833, Note_on_c, 3, 70, 0
10, 215854, Note_on_c, 3, 68, 0
10, 216498, Note_on_c, 3, 73, 105
10, 216505, Note_on_c, 3, 69, 96
10, 216569, Note_on_c, 3, 73, 0
10, 216576, Note_on_c, 3, 69, 0
10, 217456, Note_on_c, 3, 73, 86
10, 217465, Note_on_c, 3, 67, 95
10, 217527, Note_on_c, 3, 73, 0
10, 217536, Note_on_c, 3, 67, 0
10, 218664, Note_on_c, 3, 66, 99
10, 218665, Note_on_c, 3, 70, 92
10, 218735, Note_on_c, 3, 66, 0
10, 218736, Note_on_c, 3, 70, 0
10, 230892, Note_on_c, 3, 72, 85
10, 230987, Note_on_c, 3, 72, 0
10, 231260, Note_on_c, 3, 72, 97
10, 231363, Note_on_c, 3, 72, 98
10, 231380, Note_on_c, 3, 72, 0
10, 231458, Note_on_c, 3, 72, 0
10, 231736, Note_on_c, 3, 72, 98
10, 231843, Note_on_c, 3, 72, 84
10, 231856, Note_on_c, 3, 72, 0
10, 231938, Note_on_c, 3, 72, 0
10, 232208, Note_on_c, 3, 72, 82
10, 232328, Note_on_c, 3, 72, 0
10, 232334, Note_on_c, 3, 72, 92
10, 232429, Note_on_c, 3, 72, 0
10, 232697, Note_on_c, 3, 72, 87
10, 232810, Note_on_c, 3, 72, 84
10, 232817, Note_on_c, 3, 72, 0
10, 232905, Note_on_c, 3, 72, 0
10, 233174, Note_on_c, 3, 72, 87
10, 233294, Note_on_c, 3, 72, 0
10, 233299, Note_on_c, 3, 74, 88
10, 233394, Note_on_c, 3, 74, 0
10, 233642, Note_on_c, 3, 74, 97
10, 233762, Note_on_c, 3, 74, 0
10, 233767, Note_on_c, 3, 72, 82
10, 233862, Note_on_c, 3, 72, 0
10, 234142, Note_on_c, 3, 72, 91
10, 234249, Note_on_c, 3, 74, 93
10, 234262, Note_on_c, 3, 72, 0
10, 234344, Note_on_c, 3, 74, 0
10, 234620, Note_on_c, 3, 74, 87
10, 234726, Note_on_c, 3, 72, 81
10, 234740, Note_on_c, 3, 74, 0
10, 234797, Note_on_c, 3, 72, 0
10, 238575, Note_on_c, 3, 72, 92
10, 238641, Note_on_c, 3, 73, 82
10, 238643, Note_on_c, 3, 72, 0
10, 238709, Note_on_c, 3, 73, 0
10, 238711, Note_on_c, 3, 74, 98
10, 238779, Note_on_c, 3, 74, 0
10, 238789, Note_on_c, 3, 75, 91
10, 238833, Note_on_c, 3, 76, 93
10, 238857, Note_on_c, 3, 75, 0
10, 238901, Note_on_c, 3, 76, 0
10, 238909, Note_on_c, 3, 77, 96
10, 238977, Note_on_c, 3, 77, 0
10, 238990, Note_on_c, 3, 78, 99
10, 239056, Note_on_c, 3, 79, 100
10, 239058, Note_on_c, 3, 78, 0
10, 239176, Note_on_c, 3, 79, 0
10, 240487, Note_on_c, 3, 72, 78
10, 240555, Note_on_c, 3, 72, 0
10, 240564, Note_on_c, 3, 73, 97
10, 240619, Note_on_c, 3, 74, 99
10, 240632, Note_on_c, 3, 73, 0
10, 240687, Note_on_c, 3, 74, 0
10, 240691, Note_on_c, 3, 75, 106
10, 240759, Note_on_c, 3, 75, 0
10, 240767, Note_on_c, 3, 76, 100
10, 240833, Note_on_c, 3, 77, 108
10, 240835, Note_on_c, 3, 76, 0
10, 240901, Note_on_c, 3, 77, 0
10, 240916, Note_on_c, 3, 78, 114
10, 240984, Note_on_c, 3, 78, 0
10, 240984, Note_on_c, 3, 79, 117
10, 241104, Note_on_c, 3, 79, 0
10, 242420, Note_on_c, 3, 72, 85
10, 242468, Note_on_c, 3, 73, 95
10, 242488, Note_on_c, 3, 72, 0
10, 242536, Note_on_c, 3, 73, 0
10, 242554, Note_on_c, 3, 74, 87
10, 242622, Note_on_c, 3, 74, 0
10, 242627, Note_on_c, 3, 75, 104
10, 242686, Note_on_c, 3, 76, 108
10, 242695, Note_on_c, 3, 75, 0
10, 242748, Note_on_c, 3, 77, 94
10, 242754, Note_on_c, 3, 76, 0
10, 242816, Note_on_c, 3, 77, 0
10, 242824, Note_on_c, 3, 78, 109
10, 242886, Note_on_c, 3, 79, 100
10, 242892, Note_on_c, 3, 78, 0
10, 243006, Note_on_c, 3, 79, 0
10, 244321, Note_on_c, 3, 72, 89
10, 244389, Note_on_c, 3, 72, 0
10, 244403, Note_on_c, 3, 73, 95
10, 244471, Note_on_c, 3, 73, 0
10, 244471, Note_on_c, 3, 74, 94
10, 244533, Note_on_c, 3, 75, 104
10, 244539, Note_on_c, 3, 74, 0
10, 244601, Note_on_c, 3, 75, 0
10, 244607, Note_on_c, 3, 76, 98
10, 244672, Note_on_c, 3, 77, 92
10, 244675, Note_on_c, 3, 76, 0
10, 244738, Note_on_c, 3, 78, 102
10, 244740, Note_on_c, 3, 77, 0
10, 244806, Note_on_c, 3, 78, 0
10, 244816, Note_on_c, 3, 79, 106
10, 244936, Note_on_c, 3, 79, 0
10, 246734, Note_on_c, 3, 75, 88
10, 246814, Note_on_c, 3, 75, 0
10, 246814, Note_on_c, 3, 76, 106
10, 246881, Note_on_c, 3, 77, 111
10, 246893, Note_on_c, 3, 76, 0
10, 246961, Note_on_c, 3, 77, 0
10, 246969, Note_on_c, 3, 78, 94
10, 247049, Note_on_c, 3, 78, 0
10, 247054, Note_on_c, 3, 79, 96
10, 247123, Note_on_c, 3, 80, 115
10, 247133, Note_on_c, 3, 79, 0
10, 247201, Note_on_c, 3, 81, 83
10, 247203, Note_on_c, 3, 80, 0
10, 247321, Note_on_c, 3, 81, 0
10, 247683, Note_on_c, 3, 75, 91
10, 247763, Note_on_c, 3, 75, 0
10, 247774, Note_on_c, 3, 76, 109
10, 247853, Note_on_c, 3, 76, 0
10, 247864, Note_on_c, 3, 77, 91
10, 247927, Note_on_c, 3, 78, 96
10, 247944, Note_on_c, 3, 77, 0
10, 248007, Note_on_c, 3, 78, 0
10, 248018, Note_on_c, 3, 79, 104
10, 248082, Note_on_c, 3, 80, 102
10, 248097, Note_on_c, 3, 79, 0
10, 248162, Note_on_c, 3, 80, 0
10, 248173, Note_on_c, 3, 81, 78
10, 248293, Note_on_c, 3, 81, 0
10, 248641, Note_on_c, 3, 75, 90
10, 248721, Note_on_c, 3, 75, 0
10, 248729, Note_on_c, 3, 76, 102
10, 248805, Note_on_c, 3, 77, 109
10, 248808, Note_on_c, 3, 76, 0
10, 248885, Note_on_c, 3, 77, 0
10, 248890, Note_on_c, 3, 78, 104
10, 248970, Note_on_c, 3, 78, 0
10, 248978, Note_on_c, 3, 79, 105
10, 249048, Note_on_c, 3, 80, 110
10, 249057, Note_on_c, 3, 79, 0
10, 249128, Note_on_c, 3, 80, 0
10, 249133, Note_on_c, 3, 81, 87
10, 249253, Note_on_c, 3, 81, 0
10, 260903, Note_on_c, 3, 56, 82
10, 261023, Note_on_c, 3, 56, 0
10, 261025, Note_on_c, 3, 60, 94
10, 261139, Note_on_c, 3, 56, 90
10, 261145, Note_on_c, 3, 60, 0
10, 261240, Note_on_c, 3, 60, 90
10, 261259, Note_on_c, 3, 56, 0
10, 261360, Note_on_c, 3, 60, 0
10, 261375, Note_on_c, 3, 56, 94
10, 261495, Note_on_c, 3, 56, 0
10, 261496, Note_on_c, 3, 60, 87
10, 261616, Note_on_c, 3, 60, 0
10, 261618, Note_on_c, 3, 56, 98
10, 261730, Note_on_c, 3, 60, 98
10, 261738, Note_on_c, 3, 56, 0
10, 261850, Note_on_c, 3, 60, 0
10, 261850, Note_on_c, 3, 56, 95
10, 261970, Note_on_c, 3, 56, 0
10, 261985, Note_on_c, 3, 60, 86
10, 262087, Note_on_c, 3, 56, 78
10, 262105, Note_on_c, 3, 60, 0
10, 262201, Note_on_c, 3, 60, 84
10, 262207, Note_on_c, 3, 56, 0
10, 262321, Note_on_c, 3, 60, 0
10, 262329, Note_on_c, 3, 56, 83
10, 262449, Note_on_c, 3, 56, 0
10, 262463, Note_on_c, 3, 60, 98
10, 262567, Note_on_c, 3, 56, 94
10, 262583, Note_on_c, 3, 60, 0
10, 262687, Note_on_c, 3, 56, 0
10, 262704, Note_on_c, 3, 60, 88
10, 262818, Note_on_c, 3, 56, 80
10, 262824, Note_on_c, 3, 60, 0
10, 262938, Note_on_c, 3, 56, 0
10, 262944, Note_on_c, 3, 60, 88
10, 263043, Note_on_c, 3, 56, 97
10, 263064, Note_on_c, 3, 60, 0
10, 263163, Note_on_c, 3, 56, 0
10, 263180, Note_on_c, 3, 60, 87
10, 263299, Note_on_c, 3, 56, 97
10, 263300, Note_on_c, 3, 60, 0
10, 263409, Note_on_c, 3, 60, 83
10, 263419, Note_on_c, 3, 56, 0
10, 263529, Note_on_c, 3, 60, 0
10, 263541, Note_on_c, 3, 56, 95
10, 263661, Note_on_c, 3, 56, 0
10, 263665, Note_on_c, 3, 60, 83
10, 263782, Note_on_c, 3, 56, 91
10, 263785, Note_on_c, 3, 60, 0
10, 263897, Note_on_c, 3, 60, 87
10, 263902, Note_on_c, 3, 56, 0
10, 264017, Note_on_c, 3, 60, 0
10, 264017, Note_on_c, 3, 56, 81
10, 264137, Note_on_c, 3, 56, 0
10, 264137, Note_on_c, 3, 60, 97
10, 264257, Note_on_c, 3, 60, 0
10, 264263, Note_on_c, 3, 56, 96
10, 264363, Note_on_c, 3, 60, 91
10, 264383, Note_on_c, 3, 56, 0
10, 264483, Note_on_c, 3, 60, 0
10, 264490, Note_on_c, 3, 56, 86
10, 264606, Note_on_c, 3, 60, 78
10, 264610, Note_on_c, 3, 56, 0
10, 264724, Note_on_c, 3, 56, 95
10, 264726, Note_on_c, 3, 60, 0
10, 264844, Note_on_c, 3, 56, 0
10, 264850, Note_on_c, 3, 60, 78
10, 264963, Note_on_c, 3, 56, 80
10, 264970, Note_on_c, 3, 60, 0
10, 265080, Note_on_c, 3, 60, 91
10, 265083, Note_on_c, 3, 56, 0
10, 265200, Note_on_c, 3, 60, 0
10, 265213, Note_on_c, 3, 56, 98
10, 265323, Note_on_c, 3, 60, 95
10, 265333, Note_on_c, 3, 56, 0
10, 265443, Note_on_c, 3, 60, 0
10, 265460, Note_on_c, 3, 56, 78
10, 265580, Note_on_c, 3, 56, 0
10, 265580, Note_on_c, 3, 60, 95
10, 265687, Note_on_c, 3, 56, 80
10, 265700, Note_on_c, 3, 60, 0
10, 265807, Note_on_c, 3, 56, 0
10, 265808, Note_on_c, 3, 60, 78
10, 265923, Note_on_c, 3, 56, 78
10, 265928, Note_on_c, 3, 60, 0
10, 266043, Note_on_c, 3, 56, 0
10, 266061, Note_on_c, 3, 60, 96
10, 266163, Note_on_c, 3, 56, 82
10, 266181, Note_on_c, 3, 60, 0
10, 266283, Note_on_c, 3, 56, 0
10, 266297, Note_on_c, 3, 60, 97
10, 266417, Note_on_c, 3, 60, 0
10, 266418, Note_on_c, 3, 56, 83
10, 266530, Note_on_c, 3, 60, 84
10, 266538, Note_on_c, 3, 56, 0
10, 266650, Note_on_c, 3, 60, 0
10, 266651, Note_on_c, 3, 61, 86
10, 266891, Note_on_c, 3, 61, 0
10, 267365, Note_on_c, 3, 67, 84
10, 267444, Note_on_c, 3, 67, 0
10, 267449, Note_on_c, 3, 68, 78
10, 267522, Note_on_c, 3, 67, 86
10, 267528, Note_on_c, 3, 68, 0
10, 267601, Note_on_c, 3, 67, 0
10, 267617, Note_on_c, 3, 68, 86
10, 267681, Note_on_c, 3, 67, 98
10, 267696, Note_on_c, 3, 68, 0
10, 267760, Note_on_c, 3, 67, 0
10, 267775, Note_on_c, 3, 68, 93
10, 267848, Note_on_c, 3, 67, 91
10, 267854, Note_on_c, 3, 68, 0
10, 267927, Note_on_c, 3, 67, 0
10, 267933, Note_on_c, 3, 68, 85
10, 268004, Note_on_c, 3, 67, 83
10, 268012, Note_on_c, 3, 68, 0
10, 268083, Note_on_c, 3, 67, 0
10, 268093, Note_on_c, 3, 68, 80
10, 268172, Note_on_c, 3, 68, 0
10, 268181, Note_on_c, 3, 67, 86
10, 268241, Note_on_c, 3, 68, 97
10, 268260, Note_on_c, 3, 67, 0
10, 268316, Note_on_c, 3, 67, 98
10, 268320, Note_on_c, 3, 68, 0
10, 268395, Note_on_c, 3, 67, 0
10, 268400, Note_on_c, 3, 68, 85
10, 268479, Note_on_c, 3, 68, 0
10, 268484, Note_on_c, 3, 67, 94
10, 268563, Note_on_c, 3, 67, 0
10, 268563, Note_on_c, 3, 68, 89
10, 268638, Note_on_c, 3, 67, 86
10, 268642, Note_on_c, 3, 68, 0
10, 268717, Note_on_c, 3, 67, 0
10, 268729, Note_on_c, 3, 68, 80
10, 268808, Note_on_c, 3, 68, 0
10, 268813, Note_on_c, 3, 67, 92
10, 268880, Note_on_c, 3, 68, 93
10, 268892, Note_on_c, 3, 67, 0
10, 268959, Note_on_c, 3, 68, 0
10, 268971, Note_on_c, 3, 67, 97
10, 269036, Note_on_c, 3, 68, 82
10, 269050, Note_on_c, 3, 67, 0
10, 269115, Note_on_c, 3, 68, 0
10, 269137, Note_on_c, 3, 67, 88
10, 269208, Note_on_c, 3, 68, 96
10, 269216, Note_on_c, 3, 67, 0
10, 269287, Note_on_c, 3, 68, 0
10, 269292, Note_on_c, 3, 67, 78
10, 269371, Note_on_c, 3, 67, 0
10, 269373, Note_on_c, 3, 68, 82
10, 269452, Note_on_c, 3, 68, 0
10, 269452, Note_on_c, 3, 67, 83
10, 269524, Note_on_c, 3, 70, 92
10, 269531, Note_on_c, 3, 67, 0
10, 269764, Note_on_c, 3, 70, 0
10, 284659, Note_on_c, 3, 56, 93
10, 284760, Note_on_c, 3, 60, 96
10, 284779, Note_on_c, 3, 56, 0
10, 284880, Note_on_c, 3, 60, 0
10, 284904, Note_on_c, 3, 56, 79
10, 285011, Note_on_c, 3, 60, 81
10, 285024, Note_on_c, 3, 56, 0
10, 285131, Note_on_c, 3, 60, 0
10, 285138, Note_on_c, 3, 56, 81
10, 285253, Note_on_c, 3, 60, 91
10, 285258, Note_on_c, 3, 56, 0
10, 285360, Note_on_c, 3, 56, 78
10, 285373, Note_on_c, 3, 60, 0
10, 285480, Note_on_c, 3, 56, 0
10, 285505, Note_on_c, 3, 60, 97
10, 285624, Note_on_c, 3, 56, 84
10, 285625, Note_on_c, 3, 60, 0
10, 285734, Note_on_c, 3, 60, 82
10, 285744, Note_on_c, 3, 56, 0
10, 285852, Note_on_c, 3, 56, 78
10, 285854, Note_on_c, 3, 60, 0
10, 285972, Note_on_c, 3, 56, 0
10, 285981, Note_on_c, 3, 60, 83
10, 286090, Note_on_c, 3, 56, 83
10, 286101, Note_on_c, 3, 60, 0
10, 286201, Note_on_c, 3, 60, 79
10, 286210, Note_on_c, 3, 56, 0
10, 286321, Note_on_c, 3, 60, 0
10, 286325, Note_on_c, 3, 56, 98
10, 286445, Note_on_c, 3, 56, 0
10, 286447, Note_on_c, 3, 60, 96
10, 286567, Note_on_c, 3, 60, 0
10, 286583, Note_on_c, 3, 56, 95
10, 286690, Note_on_c, 3, 60, 78
10, 286703, Note_on_c, 3, 56, 0
10, 286806, Note_on_c, 3, 56, 93
10, 286810, Note_on_c, 3, 60, 0
10, 286926, Note_on_c, 3, 56, 0
10, 286928, Note_on_c, 3, 60, 81
10, 287048, Note_on_c, 3, 60, 0
10, 287055, Note_on_c, 3, 56, 90
10, 287164, Note_on_c, 3, 60, 97
10, 287175, Note_on_c, 3, 56, 0
10, 287284, Note_on_c, 3, 60, 0
10, 287288, Note_on_c, 3, 56, 97
10, 287408, Note_on_c, 3, 56, 0
10, 287423, Note_on_c, 3, 60, 96
10, 287529, Note_on_c, 3, 56, 90
10, 287543, Note_on_c, 3, 60, 0
10, 287649, Note_on_c, 3, 56, 0
10, 287663, Note_on_c, 3, 60, 98
10, 287782, Note_on_c, 3, 56, 98
10, 287783, Note_on_c, 3, 60, 0
10, 287898, Note_on_c, 3, 60, 90
10, 287902, Note_on_c, 3, 56, 0
10, 288018, Note_on_c, 3, 60, 0
10, 288023, Note_on_c, 3, 56, 81
10, 288125, Note_on_c, 3, 60, 88
10, 288143, Note_on_c, 3, 56, 0
10, 288245, Note_on_c, 3, 60, 0
10, 288248, Note_on_c, 3, 56, 97
10, 288368, Note_on_c, 3, 56, 0
10, 288385, Note_on_c, 3, 60, 86
10, 288503, Note_on_c, 3, 56, 95
10, 288505, Note_on_c, 3, 60, 0
10, 288600, Note_on_c, 3, 60, 87
10, 288623, Note_on_c, 3, 56, 0
10, 288720, Note_on_c, 3, 60, 0
10, 288731, Note_on_c, 3, 56, 86
10, 288851, Note_on_c, 3, 56, 0
10, 288853, Note_on_c, 3, 60, 89
10, 288970, Note_on_c, 3, 61, 94
10, 288973, Note_on_c, 3, 60, 0
10, 289210, Note_on_c, 3, 61, 0
10, 294025, Note_on_c, 3, 73, 44
10, 297025, Note_on_c, 3, 75, 54
10, 297048, Note_on_c, 3, 73, 0
10, 297169, Note_on_c, 3, 75, 0
10, 297180, Note_on_c, 3, 79, 54
10, 297324, Note_on_c, 3, 79, 0
10, 297325, Note_on_c, 3, 82, 54
10, 297461, Note_on_c, 3, 85, 51
10, 297469, Note_on_c, 3, 82, 0
10, 297604, Note_on_c, 3, 85, 0
10, 297604, Note_on_c, 3, 87, 49
10, 297747, Note_on_c, 3, 87, 0
10, 297767, Note_on_c, 3, 85, 43
10, 297902, Note_on_c, 3, 82, 57
10, 297911, Note_on_c, 3, 85, 0
10, 298042, Note_on_c, 3, 79, 39
10, 298046, Note_on_c, 3, 82, 0
10, 298186, Note_on_c, 3, 79, 0
10, 298195, Note_on_c, 3, 75, 50
10, 298323, Note_on_c, 3, 73, 45
10, 298338, Note_on_c, 3, 75, 0
10, 298466, Note_on_c, 3, 73, 0
10, 298485, Note_on_c, 3, 75, 50
10, 298629, Note_on_c, 3, 75, 0
10, 298632, Note_on_c, 3, 79, 56
10, 298756, Note_on_c, 3, 82, 48
10, 298776, Note_on_c, 3, 79, 0
10, 298900, Note_on_c, 3, 82, 0
10, 298914, Note_on_c, 3, 85, 52
10, 299045, Note_on_c, 3, 87, 39
10, 299057, Note_on_c, 3, 85, 0
10, 299188, Note_on_c, 3, 87, 0
10, 299205, Note_on_c, 3, 85, 39
10, 299330, Note_on_c, 3, 82, 42
10, 299349, Note_on_c, 3, 85, 0
10, 299474, Note_on_c, 3, 82, 0
10, 299488, Note_on_c, 3, 79, 57
10, 299632, Note_on_c, 3, 79, 0
10, 299633, Note_on_c, 3, 75, 50
10, 299774, Note_on_c, 3, 73, 49
10, 299776, Note_on_c, 3, 75, 0
10, 299913, Note_on_c, 3, 75, 59
10, 299917, Note_on_c, 3, 73, 0
10, 300057, Note_on_c, 3, 75, 0
10, 300057, Note_on_c, 3, 79, 56
10, 300197, Note_on_c, 3, 82, 59
10, 300201, Note_on_c, 3, 79, 0
10, 300341, Note_on_c, 3, 82, 0
10, 300354, Note_on_c, 3, 85, 56
10, 300497, Note_on_c, 3, 85, 0
10, 300502, Note_on_c, 3, 87, 45
10, 300626, Note_on_c, 3, 85, 46
10, 300645, Note_on_c, 3, 87, 0
10, 300770, Note_on_c, 3, 85, 0
10, 300779, Note_on_c, 3, 82, 53
10, 300923, Note_on_c, 3, 82, 0
10, 300935, Note_on_c, 3, 79, 44
10, 301067, Note_on_c, 3, 75, 58
10, 301079, Note_on_c, 3, 79, 0
10, 301201, Note_on_c, 3, 73, 45
10, 301210, Note_on_c, 3, 75, 0
10, 301344, Note_on_c, 3, 73, 0
10, 301348, Note_on_c, 3, 75, 53
10, 301492, Note_on_c, 3, 75, 0
10, 301493, Note_on_c, 3, 79, 56
10, 301637, Note_on_c, 3, 79, 0
10, 301641, Note_on_c, 3, 82, 44
10, 301785, Note_on_c, 3, 82, 0
10, 301794, Note_on_c, 3, 85, 42
10, 301928, Note_on_c, 3, 87, 53
10, 301937, Note_on_c, 3, 85, 0
10, 302063, Note_on_c, 3, 85, 51
10, 302071, Note_on_c, 3, 87, 0
10, 302207, Note_on_c, 3, 85, 0
10, 302209, Note_on_c, 3, 82, 55
10, 302353, Note_on_c, 3, 82, 0
10, 302357, Note_on_c, 3, 79, 52
10, 302501, Note_on_c, 3, 79, 0
10, 302506, Note_on_c, 3, 75, 47
10, 302649, Note_on_c, 3, 75, 0
10, 302649, Note_on_c, 3, 82, 101
10, 302769, Note_on_c, 3, 82, 0
10, 302890, Note_on_c, 3, 81, 95
10, 303010, Note_on_c, 3, 81, 0
10, 303145, Note_on_c, 3, 82, 99
10, 303265, Note_on_c, 3, 82, 0
10, 303373, Note_on_c, 3, 81, 105
10, 303493, Note_on_c, 3, 81, 0
10, 303609, Note_on_c, 3, 79, 107
10, 303729, Note_on_c, 3, 79, 0
10, 303843, Note_on_c, 3, 77, 92
10, 303963, Note_on_c, 3, 77, 0
10, 304103, Note_on_c, 3, 82, 107
10, 304223, Note_on_c, 3, 82, 0
10, 304330, Note_on_c, 3, 81, 108
10, 304450, Note_on_c, 3, 81, 0
10, 304572, Note_on_c, 3, 82, 109
10, 304692, Note_on_c, 3, 82, 0
10, 304817, Note_on_c, 3, 81, 95
10, 304937, Note_on_c, 3, 81, 0
10, 305064, Note_on_c, 3, 79, 105
10, 305184, Note_on_c, 3, 79, 0
10, 305301, Note_on_c, 3, 77, 111
10, 305421, Note_on_c, 3, 77, 0
10, 305520, Note_on_c, 3, 82, 93
10, 305640, Note_on_c, 3, 82, 0
10, 305761, Note_on_c, 3, 81, 98
10, 305881, Note_on_c, 3, 81, 0
10, 306006, Note_on_c, 3, 82, 95
10, 306126, Note_on_c, 3, 82, 0
10, 306250, Note_on_c, 3, 81, 91
10, 306370, Note_on_c, 3, 81, 0
10, 306502, Note_on_c, 3, 79, 100
10, 306622, Note_on_c, 3, 79, 0
10, 306726, Note_on_c, 3, 77, 109
10, 306846, Note_on_c, 3, 77, 0
10, 306972, Note_on_c, 3, 79, 111
10, 307092, Note_on_c, 3, 79, 0
10, 307210, Note_on_c, 3, 76, 105
10, 307330, Note_on_c, 3, 76, 0
10, 307451, Note_on_c, 3, 76, 96
10, 307571, Note_on_c, 3, 76, 0
10, 307691, Note_on_c, 3, 76, 106
10, 307811, Note_on_c, 3, 76, 0
10, 307926, Note_on_c, 3, 77, 98
10, 308046, Note_on_c, 3, 77, 0
10, 308163, Note_on_c, 3, 79, 97
10, 308283, Note_on_c, 3, 79, 0
10, 308416, Note_on_c, 3, 81, 98
10, 308536, Note_on_c, 3, 81, 0
10, 308644, Note_on_c, 3, 82, 101
10, 308764, Note_on_c, 3, 82, 0
10, 308882, Note_on_c, 3, 81, 103
10, 309002, Note_on_c, 3, 81, 0
10, 309124, Note_on_c, 3, 82, 95
10, 309244, Note_on_c, 3, 82, 0
10, 309370, Note_on_c, 3, 81, 100
10, 309490, Note_on_c, 3, 81, 0
10, 309619, Note_on_c, 3, 79, 91
10, 309739, Note_on_c, 3, 79, 0
10, 309856, Note_on_c, 3, 77, 107
10, 309976, Note_on_c, 3, 77, 0
10, 310093, Note_on_c, 3, 76, 92
10, 310213, Note_on_c, 3, 76, 0
10, 310326, Note_on_c, 3, 77, 96
10, 310446, Note_on_c, 3, 77, 0
10, 310585, Note_on_c, 3, 79, 91
10, 310705, Note_on_c, 3, 79, 0
10, 310806, Note_on_c, 3, 81, 93
10, 310926, Note_on_c, 3, 81, 0
10, 311065, Note_on_c, 3, 81, 107
10, 311185, Note_on_c, 3, 81, 0
10, 311289, Note_on_c, 3, 80, 98
10, 311409, Note_on_c, 3, 80, 0
10, 311542, Note_on_c, 3, 81, 101
10, 311662, Note_on_c, 3, 81, 0
10, 311778, Note_on_c, 3, 80, 97
10, 311898, Note_on_c, 3, 80, 0
10, 312018, Note_on_c, 3, 78, 91
10, 312138, Note_on_c, 3, 78, 0
10, 312262, Note_on_c, 3, 76, 103
10, 312382, Note_on_c, 3, 76, 0
10, 312505, Note_on_c, 3, 75, 106
10, 312625, Note_on_c, 3, 75, 0
10, 312725, Note_on_c, 3, 75, 98
10, 312845, Note_on_c, 3, 75, 0
10, 312970, Note_on_c, 3, 75, 96
10, 313090, Note_on_c, 3, 75, 0
10, 313213, Note_on_c, 3, 76, 91
10, 313333, Note_on_c, 3, 76, 0
10, 313444, Note_on_c, 3, 78, 108
10, 313564, Note_on_c, 3, 78, 0
10, 313692, Note_on_c, 3, 80, 110
10, 313812, Note_on_c, 3, 80, 0
10, 324720, Note_on_c, 3, 80, 107
10, 324900, Note_on_c, 3, 80, 0
10, 324961, Note_on_c, 3, 80, 98
10, 325141, Note_on_c, 3, 80, 0
10, 325214, Note_on_c, 3, 80, 100
10, 325394, Note_on_c, 3, 80, 0
10, 325464, Note_on_c, 3, 77, 98
10, 325644, Note_on_c, 3, 77, 0
10, 325680, Note_on_c, 3, 77, 96
10, 325860, Note_on_c, 3, 77, 0
10, 325931, Note_on_c, 3, 77, 96
10, 326111, Note_on_c, 3, 77, 0
10, 326173, Note_on_c, 3, 78, 97
10, 326353, Note_on_c, 3, 78, 0
10, 326419, Note_on_c, 3, 78, 99
10, 326599, Note_on_c, 3, 78, 0
10, 326643, Note_on_c, 3, 78, 108
10, 326823, Note_on_c, 3, 78, 0
10, 326889, Note_on_c, 3, 71, 97
10, 327069, Note_on_c, 3, 71, 0
10, 327144, Note_on_c, 3, 71, 110
10, 327324, Note_on_c, 3, 71, 0
10, 327364, Note_on_c, 3, 71, 92
10, 327544, Note_on_c, 3, 71, 0
10, 327612, Note_on_c, 3, 81, 103
10, 327792, Note_on_c, 3, 81, 0
10, 327850, Note_on_c, 3, 81, 110
10, 328030, Note_on_c, 3, 81, 0
10, 328088, Note_on_c, 3, 81, 110
10, 328268, Note_on_c, 3, 81, 0
10, 328335, Note_on_c, 3, 78, 105
10, 328515, Note_on_c, 3, 78, 0
10, 328572, Note_on_c, 3, 78, 95
10, 328752, Note_on_c, 3, 78, 0
10, 328811, Note_on_c, 3, 78, 94
10, 328991, Note_on_c, 3, 78, 0
10, 329061, Note_on_c, 3, 75, 94
10, 329241, Note_on_c, 3, 75, 0
10, 329290, Note_on_c, 3, 75, 95
10, 329470, Note_on_c, 3, 75, 0
10, 329544, Note_on_c, 3, 75, 92
10, 329724, Note_on_c, 3, 75, 0
10, 329765, Note_on_c, 3, 72, 110
10, 329945, Note_on_c, 3, 72, 0
10, 330024, Note_on_c, 3, 72, 94
10, 330204, Note_on_c, 3, 72, 0
10, 330258, Note_on_c, 3, 72, 111
10, 330438, Note_on_c, 3, 72, 0
10, 330496, Note_on_c, 3, 69, 102
10, 330676, Note_on_c, 3, 69, 0
10, 330737, Note_on_c, 3, 69, 102
10, 330917, Note_on_c, 3, 69, 0
10, 330964, Note_on_c, 3, 69, 99
10, 331144, Note_on_c, 3, 69, 0
10, 331925, Note_on_c, 3, 77, 81
10, 332045, Note_on_c, 3, 77, 0
10, 332176, Note_on_c, 3, 75, 79
10, 332296, Note_on_c, 3, 75, 0
10, 332421, Note_on_c, 3, 74, 90
10, 332541, Note_on_c, 3, 74, 0
10, 332663, Note_on_c, 3, 72, 97
10, 332783, Note_on_c, 3, 72, 0
10, 332904, Note_on_c, 3, 74, 81
10, 333024, Note_on_c, 3, 74, 0
10, 333138, Note_on_c, 3, 75, 80
10, 333258, Note_on_c, 3, 75, 0
10, 333373, Note_on_c, 3, 77, 98
10, 333493, Note_on_c, 3, 77, 0
10, 333605, Note_on_c, 3, 75, 78
10, 333725, Note_on_c, 3, 75, 0
10, 333856, Note_on_c, 3, 74, 89
10, 333976, Note_on_c, 3, 74, 0
10, 334088, Note_on_c, 3, 72, 92
10, 334208, Note_on_c, 3, 72, 0
10, 335052, Note_on_c, 3, 77, 94
10, 335172, Note_on_c, 3, 77, 0
10, 335296, Note_on_c, 3, 75, 80
10, 335416, Note_on_c, 3, 75, 0
10, 335545, Note_on_c, 3, 74, 79
10, 335665, Note_on_c, 3, 74, 0
10, 335766, Note_on_c, 3, 72, 83
10, 335886, Note_on_c, 3, 72, 0
10, 336015, Note_on_c, 3, 75, 83
10, 336135, Note_on_c, 3, 75, 0
10, 336255, Note_on_c, 3, 77, 91
10, 336375, Note_on_c, 3, 77, 0
10, 336499, Note_on_c, 3, 75, 89
10, 336619, Note_on_c, 3, 75, 0
10, 336725, Note_on_c, 3, 74, 87
10, 336845, Note_on_c, 3, 74, 0
10, 336972, Note_on_c, 3, 72, 82
10, 337092, Note_on_c, 3, 72, 0
10, 337222, Note_on_c, 3, 74, 80
10, 337342, Note_on_c, 3, 74, 0
10, 337449, Note_on_c, 3, 75, 97
10, 337569, Note_on_c, 3, 75, 0
10, 337680, Note_on_c, 3, 77, 98
10, 337800, Note_on_c, 3, 77, 0
10, 337925, Note_on_c, 3, 75, 86
10, 338045, Note_on_c, 3, 75, 0
10, 338170, Note_on_c, 3, 74, 94
10, 338290, Note_on_c, 3, 74, 0
10, 338403, Note_on_c, 3, 72, 80
10, 338523, Note_on_c, 3, 72, 0
10, 338656, Note_on_c, 3, 74, 85
10, 338776, Note_on_c, 3, 74, 0
10, 338894, Note_on_c, 3, 75, 94
10, 339014, Note_on_c, 3, 75, 0
10, 339137, Note_on_c, 3, 77, 90
10, 339257, Note_on_c, 3, 77, 0
10, 339363, Note_on_c, 3, 75, 95
10, 339483, Note_on_c, 3, 75, 0
10, 339617, Note_on_c, 3, 74, 79
10, 339737, Note_on_c, 3, 74, 0
10, 339853, Note_on_c, 3, 77, 98
10, 339996, Note_on_c, 3, 77, 0
10, 346098, Note_on_c, 3, 77, 90
10, 346241, Note_on_c, 3, 77, 0
10, 348004, Note_on_c, 3, 80, 90
10, 348019, Note_on_c, 3, 77, 100
10, 348195, Note_on_c, 3, 80, 0
10, 348210, Note_on_c, 3, 77, 0
10, 348481, Note_on_c, 3, 77, 88
10, 348484, Note_on_c, 3, 80, 103
10, 348672, Note_on_c, 3, 77, 0
10, 348675, Note_on_c, 3, 80, 0
10, 352324, Note_on_c, 3, 77, 104
10, 352324, Note_on_c, 3, 80, 102
10, 352515, Note_on_c, 3, 77, 0
10, 352515, Note_on_c, 3, 80, 0
10, 354252, Note_on_c, 3, 77, 89
10, 354262, Note_on_c, 3, 80, 88
10, 354443, Note_on_c, 3, 77, 0
10, 354453, Note_on_c, 3, 80, 0
10, 355219, Note_on_c, 3, 80, 90
10, 355220, Note_on_c, 3, 77, 100
10, 355410, Note_on_c, 3, 80, 0
10, 355411, Note_on_c, 3, 77, 0
10, 357129, Note_on_c, 3, 77, 94
10, 357132, Note_on_c, 3, 80, 93
10, 357320, Note_on_c, 3, 77, 0
10, 357323, Note_on_c, 3, 80, 0
10, 358081, Note_on_c, 3, 77, 93
10, 358095, Note_on_c, 3, 80, 85
10, 358272, Note_on_c, 3, 77, 0
10, 358286, Note_on_c, 3, 80, 0
10, 419769, Note_on_c, 3, 65, 67
10, 420004, Note_on_c, 3, 70, 73
10, 420009, Note_on_c, 3, 65, 0
10, 420244, Note_on_c, 3, 70, 0
10, 420259, Note_on_c, 3, 65, 68
10, 420499, Note_on_c, 3, 65, 0
10, 420501, Note_on_c, 3, 70, 80
10, 420730, Note_on_c, 3, 65, 84
10, 420741, Note_on_c, 3, 70, 0
10, 420965, Note_on_c, 3, 70, 85
10, 420970, Note_on_c, 3, 65, 0
10, 421205, Note_on_c, 3, 70, 0
10, 421220, Note_on_c, 3, 65, 73
10, 421460, Note_on_c, 3, 65, 0
10, 421460, Note_on_c, 3, 70, 78
10, 421700, Note_on_c, 3, 70, 0
10, 423616, Note_on_c, 3, 65, 77
10, 423854, Note_on_c, 3, 70, 82
10, 423856, Note_on_c, 3, 65, 0
10, 424087, Note_on_c, 3, 65, 77
10, 424094, Note_on_c, 3, 70, 0
10, 424327, Note_on_c, 3, 65, 0
10, 424339, Note_on_c, 3, 70, 82
10, 424571, Note_on_c, 3, 65, 82
10, 424579, Note_on_c, 3, 70, 0
10, 424806, Note_on_c, 3, 70, 85
10, 424811, Note_on_c, 3, 65, 0
10, 425046, Note_on_c, 3, 70, 0
10, 425064, Note_on_c, 3, 65, 85
10, 425293, Note_on_c, 3, 70, 69
10, 425304, Note_on_c, 3, 65, 0
10, 425533, Note_on_c, 3, 70, 0
10, 425542, Note_on_c, 3, 65, 66
10, 425769, Note_on_c, 3, 70, 65
10, 425782, Note_on_c, 3, 65, 0
10, 426009, Note_on_c, 3, 70, 0
10, 426022, Note_on_c, 3, 65, 70
10, 426247, Note_on_c, 3, 70, 72
10, 426262, Note_on_c, 3, 65, 0
10, 426487, Note_on_c, 3, 70, 0
10, 426497, Note_on_c, 3, 65, 84
10, 426737, Note_on_c, 3, 65, 0
10, 427216, Note_on_c, 3, 70, 92
10, 427576, Note_on_c, 3, 70, 0
10, 427688, Note_on_c, 3, 70, 109
10, 428048, Note_on_c, 3, 70, 0
10, 428162, Note_on_c, 3, 70, 98
10, 428522, Note_on_c, 3, 70, 0
10, 428642, Note_on_c, 3, 72, 91
10, 428882, Note_on_c, 3, 72, 0
10, 428891, Note_on_c, 3, 73, 96
10, 429131, Note_on_c, 3, 73, 0
10, 429142, Note_on_c, 3, 75, 104
10, 429608, Note_on_c, 3, 73, 109
10, 429622, Note_on_c, 3, 75, 0
10, 430087, Note_on_c, 3, 72, 110
10, 430088, Note_on_c, 3, 73, 0
10, 430567, Note_on_c, 3, 72, 0
10, 430577, Note_on_c, 3, 70, 99
10, 430937, Note_on_c, 3, 70, 0
10, 431056, Note_on_c, 3, 70, 93
10, 431416, Note_on_c, 3, 70, 0
10, 431526, Note_on_c, 3, 72, 97
10, 431766, Note_on_c, 3, 72, 0
10, 431776, Note_on_c, 3, 73, 111
10, 432002, Note_on_c, 3, 75, 105
10, 432016, Note_on_c, 3, 73, 0
10, 432482, Note_on_c, 3, 75, 0
10, 453125, Note_on_c, 3, 63, 91
10, 453245, Note_on_c, 3, 63, 0
10, 453248, Note_on_c, 3, 64, 89
10, 453368, Note_on_c, 3, 64, 0
10, 453370, Note_on_c, 3, 67, 101
10, 453490, Note_on_c, 3, 67, 0
10, 453502, Note_on_c, 3, 75, 88
10, 453609, Note_on_c, 3, 76, 93
10, 453622, Note_on_c, 3, 75, 0
10, 453729, Note_on_c, 3, 76, 0
10, 454094, Note_on_c, 3, 77, 110
10, 454214, Note_on_c, 3, 77, 0
10, 454220, Note_on_c, 3, 68, 100
10, 454328, Note_on_c, 3, 67, 89
10, 454340, Note_on_c, 3, 68, 0
10, 454448, Note_on_c, 3, 67, 0
10, 454462, Note_on_c, 3, 65, 82
10, 454574, Note_on_c, 3, 63, 97
10, 454582, Note_on_c, 3, 65, 0
10, 454694, Note_on_c, 3, 63, 0
10, 455048, Note_on_c, 3, 75, 95
10, 455191, Note_on_c, 3, 75, 0
10, 455533, Note_on_c, 3, 75, 110
10, 455676, Note_on_c, 3, 75, 0
10, 456015, Note_on_c, 3, 63, 97
10, 456135, Note_on_c, 3, 63, 0
10, 456137, Note_on_c, 3, 65, 85
10, 456244, Note_on_c, 3, 67, 91
10, 456257, Note_on_c, 3, 65, 0
10, 456364, Note_on_c, 3, 67, 0
10, 456364, Note_on_c, 3, 75, 98
10, 456484, Note_on_c, 3, 75, 0
10, 456498, Note_on_c, 3, 77, 92
10, 456618, Note_on_c, 3, 77, 0
10, 456980, Note_on_c, 3, 76, 106
10, 457097, Note_on_c, 3, 68, 96
10, 457100, Note_on_c, 3, 76, 0
10, 457217, Note_on_c, 3, 68, 0
10, 457219, Note_on_c, 3, 67, 86
10, 457326, Note_on_c, 3, 64, 99
10, 457339, Note_on_c, 3, 67, 0
10, 457446, Note_on_c, 3, 64, 0
10, 457448, Note_on_c, 3, 63, 79
10, 457568, Note_on_c, 3, 63, 0
10, 457927, Note_on_c, 3, 75, 92
10, 458118, Note_on_c, 3, 75, 0
10, 458405, Note_on_c, 3, 76, 99
10, 458596, Note_on_c, 3, 76, 0
10, 458891, Note_on_c, 3, 75, 101
10, 459082, Note_on_c, 3, 75, 0
10, 459374, Note_on_c, 3, 76, 95
10, 459565, Note_on_c, 3, 76, 0
10, 459865, Note_on_c, 3, 75, 93
10, 460056, Note_on_c, 3, 75, 0
10, 460330, Note_on_c, 3, 76, 105
10, 460521, Note_on_c, 3, 76, 0
10, 460802, Note_on_c, 3, 75, 96
10, 460993, Note_on_c, 3, 75, 0
10, 461287, Note_on_c, 3, 76, 104
10, 461478, Note_on_c, 3, 76, 0
10, 461765, Note_on_c, 3, 75, 111
10, 461908, Note_on_c, 3, 75, 0
10, 462241, Note_on_c, 3, 63, 96
10, 462361, Note_on_c, 3, 63, 0
10, 462371, Note_on_c, 3, 65, 101
10, 462488, Note_on_c, 3, 67, 97
10, 462491, Note_on_c, 3, 65, 0
10, 462603, Note_on_c, 3, 75, 105
10, 462608, Note_on_c, 3, 67, 0
10, 462723, Note_on_c, 3, 75, 0
10, 462725, Note_on_c, 3, 77, 96
10, 462845, Note_on_c, 3, 77, 0
10, 463205, Note_on_c, 3, 76, 109
10, 463321, Note_on_c, 3, 68, 89
10, 463325, Note_on_c, 3, 76, 0
10, 463441, Note_on_c, 3, 68, 0
10, 463458, Note_on_c, 3, 67, 95
10, 463563, Note_on_c, 3, 64, 89
10, 463578, Note_on_c, 3, 67, 0
10, 463683, Note_on_c, 3, 64, 0
10, 463705, Note_on_c, 3, 63, 78
10, 463825, Note_on_c, 3, 63, 0
10, 464183, Note_on_c, 3, 63, 92
10, 464280, Note_on_c, 3, 64, 82
10, 464303, Note_on_c, 3, 63, 0
10, 464400, Note_on_c, 3, 64, 0
10, 464405, Note_on_c, 3, 67, 99
10, 464525, Note_on_c, 3, 67, 0
10, 464528, Note_on_c, 3, 75, 91
10, 464648, Note_on_c, 3, 75, 0
10, 464662, Note_on_c, 3, 76, 109
10, 464782, Note_on_c, 3, 76, 0
10, 465138, Note_on_c, 3, 77, 98
10, 465251, Note_on_c, 3, 68, 94
10, 465258, Note_on_c, 3, 77, 0
10, 465371, Note_on_c, 3, 68, 0
10, 465375, Note_on_c, 3, 67, 95
10, 465495, Note_on_c, 3, 67, 0
10, 465504, Note_on_c, 3, 65, 91
10, 465608, Note_on_c, 3, 63, 84
10, 465624, Note_on_c, 3, 65, 0
10, 465728, Note_on_c, 3, 63, 0
10, 466101, Note_on_c, 3, 75, 103
10, 466244, Note_on_c, 3, 75, 0
10, 466571, Note_on_c, 3, 75, 107
10, 466714, Note_on_c, 3, 75, 0
10, 467053, Note_on_c, 3, 63, 85
10, 467160, Note_on_c, 3, 65, 93
10, 467173, Note_on_c, 3, 63, 0
10, 467280, Note_on_c, 3, 65, 0
10, 467296, Note_on_c, 3, 67, 92
10, 467404, Note_on_c, 3, 75, 92
10, 467416, Note_on_c, 3, 67, 0
10, 467524, Note_on_c, 3, 75, 0
10, 467533, Note_on_c, 3, 77, 107
10, 467653, Note_on_c, 3, 77, 0
10, 468012, Note_on_c, 3, 76, 100
10, 468132, Note_on_c, 3, 76, 0
10, 468140, Note_on_c, 3, 68, 99
10, 468252, Note_on_c, 3, 67, 86
10, 468260, Note_on_c, 3, 68, 0
10, 468372, Note_on_c, 3, 67, 0
10, 468385, Note_on_c, 3, 64, 89
10, 468504, Note_on_c, 3, 63, 83
10, 468505, Note_on_c, 3, 64, 0
10, 468624, Note_on_c, 3, 63, 0
10, 468985, Note_on_c, 3, 75, 106
10, 469128, Note_on_c, 3, 75, 0
10, 546260, Note_on_c, 3, 72, 85
10, 546333, Note_on_c, 3, 74, 69
10, 546369, Note_on_c, 3, 72, 0
10, 546401, Note_on_c, 3, 72, 85
10, 546442, Note_on_c, 3, 74, 0
10, 546471, Note_on_c, 3, 74, 77
10, 546510, Note_on_c, 3, 72, 0
10, 546539, Note_on_c, 3, 72, 65
10, 546580, Note_on_c, 3, 74, 0
10, 546609, Note_on_c, 3, 74, 67
10, 546648, Note_on_c, 3, 72, 0
10, 546685, Note_on_c, 3, 72, 80
10, 546718, Note_on_c, 3, 74, 0
10, 546769, Note_on_c, 3, 74, 79
10, 546794, Note_on_c, 3, 72, 0
10, 546828, Note_on_c, 3, 72, 69
10, 546878, Note_on_c, 3, 74, 0
10, 546902, Note_on_c, 3, 74, 75
10, 546937, Note_on_c, 3, 72, 0
10, 546997, Note_on_c, 3, 72, 84
10, 547011, Note_on_c, 3, 74, 0
10, 547067, Note_on_c, 3, 74, 81
10, 547106, Note_on_c, 3, 72, 0
10, 547148, Note_on_c, 3, 72, 79
10, 547176, Note_on_c, 3, 74, 0
10, 547219, Note_on_c, 3, 69, 81
10, 547257, Note_on_c, 3, 72, 0
10, 547291, Note_on_c, 3, 71, 82
10, 547328, Note_on_c, 3, 69, 0
10, 547365, Note_on_c, 3, 69, 70
10, 547400, Note_on_c, 3, 71, 0
10, 547445, Note_on_c, 3, 71, 85
10, 547474, Note_on_c, 3, 69, 0
10, 547509, Note_on_c, 3, 69, 78
10, 547554, Note_on_c, 3, 71, 0
10, 547577, Note_on_c, 3, 71, 65
10, 547618, Note_on_c, 3, 69, 0
10, 547663, Note_on_c, 3, 69, 66
10, 547686, Note_on_c, 3, 71, 0
10, 547716, Note_on_c, 3, 71, 85
10, 547772, Note_on_c, 3, 69, 0
10, 547802, Note_on_c, 3, 69, 68
10, 547825, Note_on_c, 3, 71, 0
10, 547863, Note_on_c, 3, 71, 81
10, 547911, Note_on_c, 3, 69, 0
10, 547948, Note_on_c, 3, 69, 85
10, 547972, Note_on_c, 3, 71, 0
10, 548009, Note_on_c, 3, 71, 77
10, 548057, Note_on_c, 3, 69, 0
10, 548103, Note_on_c, 3, 69, 78
10, 548118, Note_on_c, 3, 71, 0
10, 548165, Note_on_c, 3, 72, 81
10, 548212, Note_on_c, 3, 69, 0
10, 548250, Note_on_c, 3, 74, 81
10, 548274, Note_on_c, 3, 72, 0
10, 548318, Note_on_c, 3, 72, 69
10, 548359, Note_on_c, 3, 74, 0
10, 548390, Note_on_c, 3, 74, 71
10, 548427, Note_on_c, 3, 72, 0
10, 548466, Note_on_c, 3, 72, 71
10, 548499, Note_on_c, 3, 74, 0
10, 548529, Note_on_c, 3, 74, 66
10, 548575, Note_on_c, 3, 72, 0
10, 548622, Note_on_c, 3, 72, 80
10, 548638, Note_on_c, 3, 74, 0
10, 548685, Note_on_c, 3, 74, 72
10, 548731, Note_on_c, 3, 72, 0
10, 548755, Note_on_c, 3, 72, 84
10, 548794, Note_on_c, 3, 74, 0
10, 548832, Note_on_c, 3, 74, 80
10, 548864, Note_on_c, 3, 72, 0
10, 548916, Note_on_c, 3, 72, 84
10, 548941, Note_on_c, 3, 74, 0
10, 548982, Note_on_c, 3, 74, 76
10, 549025, Note_on_c, 3, 72, 0
10, 549068, Note_on_c, 3, 72, 83
10, 549091, Note_on_c, 3, 74, 0
10, 549135, Note_on_c, 3, 69, 77
10, 549177, Note_on_c, 3, 72, 0
10, 549202, Note_on_c, 3, 71, 66
10, 549244, Note_on_c, 3, 69, 0
10, 549290, Note_on_c, 3, 69, 79
10, 549311, Note_on_c, 3, 71, 0
10, 549351, Note_on_c, 3, 71, 80
10, 549399, Note_on_c, 3, 69, 0
10, 549422, Note_on_c, 3, 69, 84
10, 549460, Note_on_c, 3, 71, 0
10, 549489, Note_on_c, 3, 71, 74
10, 549531, Note_on_c, 3, 69, 0
10, 549586, Note_on_c, 3, 69, 66
10, 549598, Note_on_c, 3, 71, 0
10, 549643, Note_on_c, 3, 71, 72
10, 549695, Note_on_c, 3, 69, 0
10, 549708, Note_on_c, 3, 69, 72
10, 549752, Note_on_c, 3, 71, 0
10, 549794, Note_on_c, 3, 71, 84
10, 549817, Note_on_c, 3, 69, 0
10, 549858, Note_on_c, 3, 69, 67
10, 549903, Note_on_c, 3, 71, 0
10, 549930, Note_on_c, 3, 71, 68
10, 549967, Note_on_c, 3, 69, 0
10, 550021, Note_on_c, 3, 69, 65
10, 550039, Note_on_c, 3, 71, 0
10, 550102, Note_on_c, 3, 72, 73
10, 550130, Note_on_c, 3, 69, 0
10, 550159, Note_on_c, 3, 74, 82
10, 550211, Note_on_c, 3, 72, 0
10, 550232, Note_on_c, 3, 72, 65
10, 550268, Note_on_c, 3, 74, 0
10, 550324, Note_on_c, 3, 74, 67
10, 550341, Note_on_c, 3, 72, 0
10, 550399, Note_on_c, 3, 72, 75
10, 550433, Note_on_c, 3, 74, 0
10, 550460, Note_on_c, 3, 74, 73
10, 550508, Note_on_c, 3, 72, 0
10, 550523, Note_on_c, 3, 72, 80
10, 550569, Note_on_c, 3, 74, 0
10, 550613, Note_on_c, 3, 74, 66
10, 550632, Note_on_c, 3, 72, 0
10, 550680, Note_on_c, 3, 72, 81
10, 550722, Note_on_c, 3, 74, 0
10, 550763, Note_on_c, 3, 74, 68
10, 550789, Note_on_c, 3, 72, 0
10, 550824, Note_on_c, 3, 72, 68
10, 550872, Note_on_c, 3, 74, 0
10, 550913, Note_on_c, 3, 74, 68
10, 550933, Note_on_c, 3, 72, 0
10, 550968, Note_on_c, 3, 72, 70
10, 551022, Note_on_c, 3, 74, 0
10, 551046, Note_on_c, 3, 69, 75
10, 551077, Note_on_c, 3, 72, 0
10, 551138, Note_on_c, 3, 71, 71
10, 551155, Note_on_c, 3, 69, 0
10, 551210, Note_on_c, 3, 69, 77
10, 551247, Note_on_c, 3, 71, 0
10, 551264, Note_on_c, 3, 71, 78
10, 551319, Note_on_c, 3, 69, 0
10, 551338, Note_on_c, 3, 69, 77
10, 551373, Note_on_c, 3, 71, 0
10, 551428, Note_on_c, 3, 71, 81
10, 551447, Note_on_c, 3, 69, 0
10, 551492, Note_on_c, 3, 69, 76
10, 551537, Note_on_c, 3, 71, 0
10, 551572, Note_on_c, 3, 71, 74
10, 551601, Note_on_c, 3, 69, 0
10, 551651, Note_on_c, 3, 69, 84
10, 551681, Note_on_c, 3, 71, 0
10, 551723, Note_on_c, 3, 71, 69
10, 551760, Note_on_c, 3, 69, 0
10, 551777, Note_on_c, 3, 69, 69
10, 551832, Note_on_c, 3, 71, 0
10, 551871, Note_on_c, 3, 71, 75
10, 551886, Note_on_c, 3, 69, 0
10, 551933, Note_on_c, 3, 69, 76
10, 551980, Note_on_c, 3, 71, 0
10, 552014, Note_on_c, 3, 72, 66
10, 552042, Note_on_c, 3, 69, 0
10, 552254, Note_on_c, 3, 72, 0
10, 552968, Note_on_c, 3, 69, 83
10, 553058, Note_on_c, 3, 71, 86
10, 553077, Note_on_c, 3, 69, 0
10, 553117, Note_on_c, 3, 69, 83
10, 553167, Note_on_c, 3, 71, 0
10, 553201, Note_on_c, 3, 71, 97
10, 553226, Note_on_c, 3, 69, 0
10, 553277, Note_on_c, 3, 69, 86
10, 553310, Note_on_c, 3, 71, 0
10, 553336, Note_on_c, 3, 71, 87
10, 553386, Note_on_c, 3, 69, 0
10, 553414, Note_on_c, 3, 69, 98
10, 553445, Note_on_c, 3, 71, 0
10, 553477, Note_on_c, 3, 71, 79
10, 553523, Note_on_c, 3, 69, 0
10, 553554, Note_on_c, 3, 69, 88
10, 553586, Note_on_c, 3, 71, 0
10, 553628, Note_on_c, 3, 71, 92
10, 553663, Note_on_c, 3, 69, 0
10, 553704, Note_on_c, 3, 69, 87
10, 553737, Note_on_c, 3, 71, 0
10, 553779, Note_on_c, 3, 71, 81
10, 553813, Note_on_c, 3, 69, 0
10, 553851, Note_on_c, 3, 69, 88
10, 553888, Note_on_c, 3, 71, 0
10, 553929, Note_on_c, 3, 72, 80
10, 553960, Note_on_c, 3, 69, 0
10, 554007, Note_on_c, 3, 74, 98
10, 554038, Note_on_c, 3, 72, 0
10, 554068, Note_on_c, 3, 72, 83
10, 554116, Note_on_c, 3, 74, 0
10, 554147, Note_on_c, 3, 74, 85
10, 554177, Note_on_c, 3, 72, 0
10, 554236, Note_on_c, 3, 72, 94
10, 554256, Note_on_c, 3, 74, 0
10, 554287, Note_on_c, 3, 74, 79
10, 554345, Note_on_c, 3, 72, 0
10, 554386, Note_on_c, 3, 72, 80
10, 554396, Note_on_c, 3, 74, 0
10, 554445, Note_on_c, 3, 74, 87
10, 554495, Note_on_c, 3, 72, 0
10, 554508, Note_on_c, 3, 72, 91
10, 554554, Note_on_c, 3, 74, 0
10, 554605, Note_on_c, 3, 74, 78
10, 554617, Note_on_c, 3, 72, 0
10, 554662, Note_on_c, 3, 72, 84
10, 554714, Note_on_c, 3, 74, 0
10, 554743, Note_on_c, 3, 74, 81
10, 554771, Note_on_c, 3, 72, 0
10, 554822, Note_on_c, 3, 72, 96
10, 554852, Note_on_c, 3, 74, 0
10, 554902, Note_on_c, 3, 69, 88
10, 554931, Note_on_c, 3, 72, 0
10, 554969, Note_on_c, 3, 71, 97
10, 555011, Note_on_c, 3, 69, 0
10, 555045, Note_on_c, 3, 69, 90
10, 555078, Note_on_c, 3, 71, 0
10, 555101, Note_on_c, 3, 71, 93
10, 555154, Note_on_c, 3, 69, 0
10, 555191, Note_on_c, 3, 69, 81
10, 555210, Note_on_c, 3, 71, 0
10, 555255, Note_on_c, 3, 71, 86
10, 555300, Note_on_c, 3, 69, 0
10, 555325, Note_on_c, 3, 69, 95
10, 555364, Note_on_c, 3, 71, 0
10, 555401, Note_on_c, 3, 71, 89
10, 555434, Note_on_c, 3, 69, 0
10, 555491, Note_on_c, 3, 69, 82
10, 555510, Note_on_c, 3, 71, 0
10, 555558, Note_on_c, 3, 71, 93
10, 555600, Note_on_c, 3, 69, 0
10, 555638, Note_on_c, 3, 69, 88
10, 555667, Note_on_c, 3, 71, 0
10, 555705, Note_on_c, 3, 71, 88
10, 555747, Note_on_c, 3, 69, 0
10, 555768, Note_on_c, 3, 69, 82
10, 555814, Note_on_c, 3, 71, 0
10, 555845, Note_on_c, 3, 72, 93
10, 555877, Note_on_c, 3, 69, 0
10, 555914, Note_on_c, 3, 74, 93
10, 555954, Note_on_c, 3, 72, 0
10, 555992, Note_on_c, 3, 72, 98
10, 556023, Note_on_c, 3, 74, 0
10, 556073, Note_on_c, 3, 74, 90
10, 556101, Note_on_c, 3, 72, 0
10, 556154, Note_on_c, 3, 72, 93
10, 556182, Note_on_c, 3, 74, 0
10, 556224, Note_on_c, 3, 74, 80
10, 556263, Note_on_c, 3, 72, 0
10, 556304, Note_on_c, 3, 72, 87
10, 556333, Note_on_c, 3, 74, 0
10, 556376, Note_on_c, 3, 74, 98
10, 556413, Note_on_c, 3, 72, 0
10, 556429, Note_on_c, 3, 72, 78
10, 556485, Note_on_c, 3, 74, 0
10, 556506, Note_on_c, 3, 74, 80
10, 556538, Note_on_c, 3, 72, 0
10, 556595, Note_on_c, 3, 72, 79
10, 556615, Note_on_c, 3, 74, 0
10, 556673, Note_on_c, 3, 74, 79
10, 556704, Note_on_c, 3, 72, 0
10, 556747, Note_on_c, 3, 72, 81
10, 556782, Note_on_c, 3, 74, 0
10, 556802, Note_on_c, 3, 69, 82
10, 556856, Note_on_c, 3, 72, 0
10, 557282, Note_on_c, 3, 69, 0
10, 557782, Note_on_c, 3, 69, 93
10, 557851, Note_on_c, 3, 71, 80
10, 557891, Note_on_c, 3, 69, 0
10, 557927, Note_on_c, 3, 69, 81
10, 557960, Note_on_c, 3, 71, 0
10, 557998, Note_on_c, 3, 71, 94
10, 558036, Note_on_c, 3, 69, 0
10, 558065, Note_on_c, 3, 69, 87
10, 558107, Note_on_c, 3, 71, 0
10, 558134, Note_on_c, 3, 71, 91
10, 558174, Note_on_c, 3, 69, 0
10, 558216, Note_on_c, 3, 69, 97
10, 558243, Note_on_c, 3, 71, 0
10, 558300, Note_on_c, 3, 71, 89
10, 558325, Note_on_c, 3, 69, 0
10, 558352, Note_on_c, 3, 69, 86
10, 558409, Note_on_c, 3, 71, 0
10, 558438, Note_on_c, 3, 71, 95
10, 558461, Note_on_c, 3, 69, 0
10, 558508, Note_on_c, 3, 69, 79
10, 558547, Note_on_c, 3, 71, 0
10, 558574, Note_on_c, 3, 71, 93
10, 558617, Note_on_c, 3, 69, 0
10, 558656, Note_on_c, 3, 69, 87
10, 558683, Note_on_c, 3, 71, 0
10, 558734, Note_on_c, 3, 72, 83
10, 558765, Note_on_c, 3, 69, 0
10, 558817, Note_on_c, 3, 74, 80
10, 558843, Note_on_c, 3, 72, 0
10, 558886, Note_on_c, 3, 72, 84
10, 558926, Note_on_c, 3, 74, 0
10, 558952, Note_on_c, 3, 74, 95
10, 558995, Note_on_c, 3, 72, 0
10, 559020, Note_on_c, 3, 72, 98
10, 559061, Note_on_c, 3, 74, 0
10, 559087, Note_on_c, 3, 74, 92
10, 559129, Note_on_c, 3, 72, 0
10, 559168, Note_on_c, 3, 72, 95
10, 559196, Note_on_c, 3, 74, 0
10, 559246, Note_on_c, 3, 74, 90
10, 559277, Note_on_c, 3, 72, 0
10, 559325, Note_on_c, 3, 72, 89
10, 559355, Note_on_c, 3, 74, 0
10, 559390, Note_on_c, 3, 74, 95
10, 559434, Note_on_c, 3, 72, 0
10, 559475, Note_on_c, 3, 72, 79
10, 559499, Note_on_c, 3, 74, 0
10, 559537, Note_on_c, 3, 74, 91
10, 559584, Note_on_c, 3, 72, 0
10, 559628, Note_on_c, 3, 72, 88
10, 559646, Note_on_c, 3, 74, 0
10, 559695, Note_on_c, 3, 69, 84
10, 559737, Note_on_c, 3, 72, 0
10, 559755, Note_on_c, 3, 71, 85
10, 559804, Note_on_c, 3, 69, 0
10, 559829, Note_on_c, 3, 69, 81
10, 559864, Note_on_c, 3, 71, 0
10, 559917, Note_on_c, 3, 71, 83
10, 559938, Note_on_c, 3, 69, 0
10, 559997, Note_on_c, 3, 69, 80
10, 560026, Note_on_c, 3, 71, 0
10, 560049, Note_on_c, 3, 71, 97
10, 560106, Note_on_c, 3, 69, 0
10, 560140, Note_on_c, 3, 69, 88
10, 560158, Note_on_c, 3, 71, 0
10, 560207, Note_on_c, 3, 71, 82
10, 560249, Note_on_c, 3, 69, 0
10, 560291, Note_on_c, 3, 69, 85
10, 560316, Note_on_c, 3, 71, 0
10, 560341, Note_on_c, 3, 71, 83
10, 560400, Note_on_c, 3, 69, 0
10, 560439, Note_on_c, 3, 69, 92
10, 560450, Note_on_c, 3, 71, 0
10, 560493, Note_on_c, 3, 71, 98
10, 560548, Note_on_c, 3, 69, 0
10, 560565, Note_on_c, 3, 69, 90
10, 560602, Note_on_c, 3, 71, 0
10, 560641, Note_on_c, 3, 72, 96
10, 560674, Note_on_c, 3, 69, 0
10, 560722, Note_on_c, 3, 74, 89
10, 560750, Note_on_c, 3, 72, 0
10, 560791, Note_on_c, 3, 72, 79
10, 560831, Note_on_c, 3, 74, 0
10, 560882, Note_on_c, 3, 74, 96
10, 560900, Note_on_c, 3, 72, 0
10, 560947, Note_on_c, 3, 72, 96
10, 560991, Note_on_c, 3, 74, 0
10, 561032, Note_on_c, 3, 74, 93
10, 561056, Note_on_c, 3, 72, 0
10, 561104, Note_on_c, 3, 72, 96
10, 561141, Note_on_c, 3, 74, 0
10, 561165, Note_on_c, 3, 74, 81
10, 561213, Note_on_c, 3, 72, 0
10, 561241, Note_on_c, 3, 72, 96
10, 561274, Note_on_c, 3, 74, 0
10, 561309, Note_on_c, 3, 74, 96
10, 561350, Note_on_c, 3, 72, 0
10, 561392, Note_on_c, 3, 72, 96
10, 561418, Note_on_c, 3, 74, 0
10, 561472, Note_on_c, 3, 74, 91
10, 561501, Note_on_c, 3, 72, 0
10, 561527, Note_on_c, 3, 72, 84
10, 561581, Note_on_c, 3, 74, 0
10, 561611, Note_on_c, 3, 70, 92
10, 561636, Note_on_c, 3, 72, 0
10, 561851, Note_on_c, 3, 70, 0
10, 590402, Note_on_c, 3, 81, 92
10, 590496, Note_on_c, 3, 79, 94
10, 590522, Note_on_c, 3, 81, 0
10, 590568, Note_on_c, 3, 81, 99
10, 590614, Note_on_c, 3, 79, 0
10, 590657, Note_on_c, 3, 79, 100
10, 590688, Note_on_c, 3, 81, 0
10, 590728, Note_on_c, 3, 81, 109
10, 590777, Note_on_c, 3, 79, 0
10, 590821, Note_on_c, 3, 79, 109
10, 590846, Note_on_c, 3, 81, 0
10, 590895, Note_on_c, 3, 81, 97
10, 590941, Note_on_c, 3, 79, 0
10, 590966, Note_on_c, 3, 79, 97
10, 591015, Note_on_c, 3, 81, 0
10, 591051, Note_on_c, 3, 81, 95
10, 591084, Note_on_c, 3, 79, 0
10, 591130, Note_on_c, 3, 79, 109
10, 591171, Note_on_c, 3, 81, 0
10, 591205, Note_on_c, 3, 81, 111
10, 591250, Note_on_c, 3, 79, 0
10, 591290, Note_on_c, 3, 79, 96
10, 591323, Note_on_c, 3, 81, 0
10, 591366, Note_on_c, 3, 81, 100
10, 591410, Note_on_c, 3, 79, 0
10, 591460, Note_on_c, 3, 79, 102
10, 591486, Note_on_c, 3, 81, 0
10, 591538, Note_on_c, 3, 81, 105
10, 591578, Note_on_c, 3, 79, 0
10, 591610, Note_on_c, 3, 79, 102
10, 591658, Note_on_c, 3, 81, 0
10, 591680, Note_on_c, 3, 81, 110
10, 591730, Note_on_c, 3, 79, 0
10, 591779, Note_on_c, 3, 79, 106
10, 591798, Note_on_c, 3, 81, 0
10, 591845, Note_on_c, 3, 81, 94
10, 591899, Note_on_c, 3, 79, 0
10, 591930, Note_on_c, 3, 79, 98
10, 591965, Note_on_c, 3, 81, 0
10, 592003, Note_on_c, 3, 81, 110
10, 592048, Note_on_c, 3, 79, 0
10, 592080, Note_on_c, 3, 79, 95
10, 592123, Note_on_c, 3, 81, 0
10, 592169, Note_on_c, 3, 81, 92
10, 592200, Note_on_c, 3, 79, 0
10, 592240, Note_on_c, 3, 79, 97
10, 592287, Note_on_c, 3, 81, 0
10, 592342, Note_on_c, 3, 81, 94
10, 592360, Note_on_c, 3, 79, 0
10, 592407, Note_on_c, 3, 79, 97
10, 592462, Note_on_c, 3, 81, 0
10, 592500, Note_on_c, 3, 81, 91
10, 592525, Note_on_c, 3, 79, 0
10, 592565, Note_on_c, 3, 79, 99
10, 592620, Note_on_c, 3, 81, 0
10, 592651, Note_on_c, 3, 81, 98
10, 592685, Note_on_c, 3, 79, 0
10, 592720, Note_on_c, 3, 79, 92
10, 592769, Note_on_c, 3, 81, 0
10, 592803, Note_on_c, 3, 81, 96
10, 592840, Note_on_c, 3, 79, 0
10, 592884, Note_on_c, 3, 79, 108
10, 592923, Note_on_c, 3, 81, 0
10, 592973, Note_on_c, 3, 81, 99
10, 593002, Note_on_c, 3, 79, 0
10, 593052, Note_on_c, 3, 79, 104
10, 593093, Note_on_c, 3, 81, 0
10, 593145, Note_on_c, 3, 81, 96
10, 593172, Note_on_c, 3, 79, 0
10, 593211, Note_on_c, 3, 79, 111
10, 593263, Note_on_c, 3, 81, 0
10, 593286, Note_on_c, 3, 81, 101
10, 593331, Note_on_c, 3, 79, 0
10, 593385, Note_on_c, 3, 79, 98
10, 593406, Note_on_c, 3, 81, 0
10, 593453, Note_on_c, 3, 81, 106
10, 593503, Note_on_c, 3, 79, 0
10, 593536, Note_on_c, 3, 79, 96
10, 593573, Note_on_c, 3, 81, 0
10, 593605, Note_on_c, 3, 81, 96
10, 593656, Note_on_c, 3, 79, 0
10, 593685, Note_on_c, 3, 79, 101
10, 593723, Note_on_c, 3, 81, 0
10, 593761, Note_on_c, 3, 81, 106
10, 593805, Note_on_c, 3, 79, 0
10, 593952, Note_on_c, 3, 81, 0
10, 594250, Note_on_c, 3, 76, 110
10, 594370, Note_on_c, 3, 76, 0
10, 594504, Note_on_c, 3, 77, 106
10, 594624, Note_on_c, 3, 77, 0
10, 594738, Note_on_c, 3, 79, 115
10, 594858, Note_on_c, 3, 79, 0
10, 594974, Note_on_c, 3, 81, 123
10, 595094, Note_on_c, 3, 81, 0
10, 595206, Note_on_c, 3, 79, 119
10, 595326, Note_on_c, 3, 79, 0
10, 595463, Note_on_c, 3, 81, 105
10, 595583, Note_on_c, 3, 81, 0
10, 595700, Note_on_c, 3, 79, 104
10, 595820, Note_on_c, 3, 79, 0
10, 595928, Note_on_c, 3, 81, 111
10, 596048, Note_on_c, 3, 81, 0
10, 596180, Note_on_c, 3, 77, 108
10, 596540, Note_on_c, 3, 77, 0
10, 596650, Note_on_c, 3, 79, 111
10, 596770, Note_on_c, 3, 79, 0
10, 596894, Note_on_c, 3, 81, 105
10, 597014, Note_on_c, 3, 81, 0
10, 597126, Note_on_c, 3, 79, 118
10, 597246, Note_on_c, 3, 79, 0
10, 597368, Note_on_c, 3, 81, 123
10, 597488, Note_on_c, 3, 81, 0
10, 597602, Note_on_c, 3, 77, 110
10, 597962, Note_on_c, 3, 77, 0
10, 598083, Note_on_c, 3, 77, 117
10, 598226, Note_on_c, 3, 77, 0
10, 601446, Note_on_c, 3, 77, 107
10, 601540, Note_on_c, 3, 79, 123
10, 601561, Note_on_c, 3, 77, 0
10, 601609, Note_on_c, 3, 77, 121
10, 601655, Note_on_c, 3, 79, 0
10, 601690, Note_on_c, 3, 79, 114
10, 601724, Note_on_c, 3, 77, 0
10, 601775, Note_on_c, 3, 77, 124
10, 601805, Note_on_c, 3, 79, 0
10, 601841, Note_on_c, 3, 79, 107
10, 601890, Note_on_c, 3, 77, 0
10, 601916, Note_on_c, 3, 77, 104
10, 601956, Note_on_c, 3, 79, 0
10, 601989, Note_on_c, 3, 79, 112
10, 602031, Note_on_c, 3, 77, 0
10, 602087, Note_on_c, 3, 77, 112
10, 602104, Note_on_c, 3, 79, 0
10, 602143, Note_on_c, 3, 79, 118
10, 602202, Note_on_c, 3, 77, 0
10, 602223, Note_on_c, 3, 77, 105
10, 602258, Note_on_c, 3, 79, 0
10, 602320, Note_on_c, 3, 79, 104
10, 602338, Note_on_c, 3, 77, 0
10, 602380, Note_on_c, 3, 77, 117
10, 602435, Note_on_c, 3, 79, 0
10, 602473, Note_on_c, 3, 79, 122
10, 602495, Note_on_c, 3, 77, 0
10, 602533, Note_on_c, 3, 77, 118
10, 602588, Note_on_c, 3, 79, 0
10, 602625, Note_on_c, 3, 79, 120
10, 602648, Note_on_c, 3, 77, 0
10, 602686, Note_on_c, 3, 77, 105
10, 602740, Note_on_c, 3, 79, 0
10, 602779, Note_on_c, 3, 79, 115
10, 602801, Note_on_c, 3, 77, 0
10, 602857, Note_on_c, 3, 77, 105
10, 602894, Note_on_c, 3, 79, 0
10, 602937, Note_on_c, 3, 79, 104
10, 602972, Note_on_c, 3, 77, 0
10, 603004, Note_on_c, 3, 77, 105
10, 603052, Note_on_c, 3, 79, 0
10, 603075, Note_on_c, 3, 79, 116
10, 603119, Note_on_c, 3, 77, 0
10, 603160, Note_on_c, 3, 77, 120
10, 603190, Note_on_c, 3, 79, 0
10, 603244, Note_on_c, 3, 79, 120
10, 603275, Note_on_c, 3, 77, 0
10, 603311, Note_on_c, 3, 77, 104
10, 603359, Note_on_c, 3, 79, 0
10, 603399, Note_on_c, 3, 79, 114
10, 603426, Note_on_c, 3, 77, 0
10, 603485, Note_on_c, 3, 77, 119
10, 603514, Note_on_c, 3, 79, 0
10, 603564, Note_on_c, 3, 79, 109
10, 603600, Note_on_c, 3, 77, 0
10, 603619, Note_on_c, 3, 77, 118
10, 603679, Note_on_c, 3, 79, 0
10, 603708, Note_on_c, 3, 79, 114
10, 603734, Note_on_c, 3, 77, 0
10, 603791, Note_on_c, 3, 77, 110
10, 603823, Note_on_c, 3, 79, 0
10, 603874, Note_on_c, 3, 79, 124
10, 603906, Note_on_c, 3, 77, 0
10, 603930, Note_on_c, 3, 77, 108
10, 603989, Note_on_c, 3, 79, 0
10, 604028, Note_on_c, 3, 79, 112
10, 604045, Note_on_c, 3, 77, 0
10, 604087, Note_on_c, 3, 77, 112
10, 604143, Note_on_c, 3, 79, 0
10, 604184, Note_on_c, 3, 79, 110
10, 604202, Note_on_c, 3, 77, 0
10, 604257, Note_on_c, 3, 77, 124
10, 604299, Note_on_c, 3, 79, 0
10, 604369, Note_on_c, 3, 77, 0
10, 604369, End_track
11, 0, Start_track
11, 0, Title_t, "Clarinetti III"
11, 0, MIDI_port, 0
11, 0, Program_c, 3, 71
11, 59520, Note_on_c, 3, 65, 97
11, 59580, Note_on_c, 3, 65, 0
11, 59580, Note_on_c, 3, 70, 98
11, 59640, Note_on_c, 3, 70, 0
11, 59640, Note_on_c, 3, 72, 93
11, 59700, Note_on_c, 3, 72, 0
11, 59700, Note_on_c, 3, 74, 89
11, 59760, Note_on_c, 3, 74, 0
11, 59760, Note_on_c, 3, 77, 88
11, 59820, Note_on_c, 3, 77, 0
11, 59820, Note_on_c, 3, 82, 95
11, 59880, Note_on_c, 3, 82, 0
11, 59880, Note_on_c, 3, 77, 79
11, 59940, Note_on_c, 3, 77, 0
11, 59940, Note_on_c, 3, 75, 98
11, 60000, Note_on_c, 3, 75, 0
11, 60015, Note_on_c, 3, 70, 84
11, 60135, Note_on_c, 3, 70, 0
11, 66720, Note_on_c, 3, 65, 81
11, 66780, Note_on_c, 3, 65, 0
11, 66780, Note_on_c, 3, 70, 66
11, 66840, Note_on_c, 3, 70, 0
11, 66840, Note_on_c, 3, 72, 70
11, 66900, Note_on_c, 3, 72, 0
11, 66900, Note_on_c, 3, 75, 83
11, 66960, Note_on_c, 3, 75, 0
11, 66960, Note_on_c, 3, 77, 82
11, 67020, Note_on_c, 3, 77, 0
11, 67020, Note_on_c, 3, 82, 66
11, 67080, Note_on_c, 3, 82, 0
11, 67080, Note_on_c, 3, 77, 78
11, 67140, Note_on_c, 3, 77, 0
11, 67140, Note_on_c, 3, 75, 80
11, 67200, Note_on_c, 3, 75, 0
11, 67217, Note_on_c, 3, 70, 73
11, 67457, Note_on_c, 3, 70, 0
11, 67680, Note_on_c, 3, 65, 77
11, 67740, Note_on_c, 3, 65, 0
11, 67740, Note_on_c, 3, 70, 78
11, 67800, Note_on_c, 3, 70, 0
11, 67800, Note_on_c, 3, 72, 80
11, 67860, Note_on_c, 3, 72, 0
11, 67860, Note_on_c, 3, 75, 75
11, 67920, Note_on_c, 3, 75, 0
11, 67920, Note_on_c, 3, 77, 65
11, 67980, Note_on_c, 3, 77, 0
11, 67980, Note_on_c, 3, 82, 74
11, 68040, Note_on_c, 3, 82, 0
11, 68040, Note_on_c, 3, 77, 83
11, 68100, Note_on_c, 3, 77, 0
11, 68100, Note_on_c, 3, 72, 75
11, 68160, Note_on_c, 3, 72, 0
11, 68160, Note_on_c, 3, 65, 73
11, 68220, Note_on_c, 3, 65, 0
11, 68220, Note_on_c, 3, 70, 84
11, 68280, Note_on_c, 3, 70, 0
11, 68280, Note_on_c, 3, 72, 65
11, 68340, Note_on_c, 3, 72, 0
11, 68340, Note_on_c, 3, 75, 79
11, 68400, Note_on_c, 3, 75, 0
11, 68400, Note_on_c, 3, 77, 83
11, 68460, Note_on_c, 3, 77, 0
11, 68460, Note_on_c, 3, 82, 83
11, 68520, Note_on_c, 3, 82, 0
11, 68520, Note_on_c, 3, 77, 84
11, 68580, Note_on_c, 3, 77, 0
11, 68580, Note_on_c, 3, 72, 72
11, 68640, Note_on_c, 3, 72, 0
11, 68653, Note_on_c, 3, 70, 80
11, 68880, Note_on_c, 3, 65, 70
11, 68893, Note_on_c, 3, 70, 0
11, 68940, Note_on_c, 3, 65, 0
11, 68940, Note_on_c, 3, 70, 67
11, 69000, Note_on_c, 3, 70, 0
11, 69000, Note_on_c, 3, 72, 73
11, 69060, Note_on_c, 3, 72, 0
11, 69060, Note_on_c, 3, 74, 71
11, 69120, Note_on_c, 3, 74, 0
11, 69120, Note_on_c, 3, 77, 73
11, 69180, Note_on_c, 3, 77, 0
11, 69180, Note_on_c, 3, 82, 72
11, 69240, Note_on_c, 3, 82, 0
11, 69240, Note_on_c, 3, 77, 67
11, 69300, Note_on_c, 3, 77, 0
11, 69300, Note_on_c, 3, 72, 67
11, 69360, Note_on_c, 3, 72, 0
11, 69360, Note_on_c, 3, 65, 77
11, 69420, Note_on_c, 3, 65, 0
11, 69420, Note_on_c, 3, 70, 71
11, 69480, Note_on_c, 3, 70, 0
11, 69480, Note_on_c, 3, 72, 71
11, 69540, Note_on_c, 3, 72, 0
11, 69540, Note_on_c, 3, 75, 79
11, 69600, Note_on_c, 3, 75, 0
11, 69600, Note_on_c, 3, 77, 72
11, 69660, Note_on_c, 3, 77, 0
11, 69660, Note_on_c, 3, 82, 71
11, 69720, Note_on_c, 3, 82, 0
11, 69720, Note_on_c, 3, 77, 67
11, 69780, Note_on_c, 3, 77, 0
11, 69780, Note_on_c, 3, 75, 67
11, 69840, Note_on_c, 3, 75, 0
11, 69851, Note_on_c, 3, 70, 82
11, 70080, Note_on_c, 3, 65, 76
11, 70091, Note_on_c, 3, 70, 0
11, 70140, Note_on_c, 3, 65, 0
11, 70140, Note_on_c, 3, 70, 68
11, 70200, Note_on_c, 3, 70, 0
11, 70200, Note_on_c, 3, 72, 82
11, 70260, Note_on_c, 3, 72, 0
11, 70260, Note_on_c, 3, 75, 81
11, 70320, Note_on_c, 3, 75, 0
11, 70320, Note_on_c, 3, 77, 75
11, 70380, Note_on_c, 3, 77, 0
11, 70380, Note_on_c, 3, 82, 65
11, 70440, Note_on_c, 3, 82, 0
11, 70440, Note_on_c, 3, 77, 84
11, 70500, Note_on_c, 3, 77, 0
11, 70500, Note_on_c, 3, 75, 68
11, 70560, Note_on_c, 3, 75, 0
11, 70560, Note_on_c, 3, 72, 78
11, 70620, Note_on_c, 3, 72, 0
11, 70620, Note_on_c, 3, 70, 67
11, 70680, Note_on_c, 3, 70, 0
11, 70680, Note_on_c, 3, 72, 75
11, 70740, Note_on_c, 3, 72, 0
11, 70740, Note_on_c, 3, 75, 78
11, 70800, Note_on_c, 3, 75, 0
11, 70800, Note_on_c, 3, 77, 73
11, 70860, Note_on_c, 3, 77, 0
11, 70860, Note_on_c, 3, 82, 74
11, 70920, Note_on_c, 3, 82, 0
11, 70920, Note_on_c, 3, 77, 79
11, 70980, Note_on_c, 3, 77, 0
11, 70980, Note_on_c, 3, 75, 69
11, 71040, Note_on_c, 3, 75, 0
11, 71040, Note_on_c, 3, 72, 73
11, 71100, Note_on_c, 3, 72, 0
11, 71100, Note_on_c, 3, 70, 73
11, 71160, Note_on_c, 3, 70, 0
11, 71160, Note_on_c, 3, 72, 69
11, 71220, Note_on_c, 3, 72, 0
11, 71220, Note_on_c, 3, 75, 84
11, 71280, Note_on_c, 3, 75, 0
11, 71280, Note_on_c, 3, 77, 78
11, 71340, Note_on_c, 3, 77, 0
11, 71340, Note_on_c, 3, 82, 78
11, 71400, Note_on_c, 3, 82, 0
11, 71400, Note_on_c, 3, 77, 68
11, 71460, Note_on_c, 3, 77, 0
11, 71460, Note_on_c, 3, 75, 65
11, 71520, Note_on_c, 3, 75, 0
11, 74400, Note_on_c, 3, 60, 53
11, 74439, Note_on_c, 3, 62, 72
11, 74458, Note_on_c, 3, 60, 0
11, 74478, Note_on_c, 3, 60, 70
11, 74497, Note_on_c, 3, 62, 0
11, 74518, Note_on_c, 3, 62, 66
11, 74536, Note_on_c, 3, 60, 0
11, 74557, Note_on_c, 3, 60, 66
11, 74576, Note_on_c, 3, 62, 0
11, 74596, Note_on_c, 3, 62, 65
11, 74615, Note_on_c, 3, 60, 0
11, 74636, Note_on_c, 3, 60, 52
11, 74654, Note_on_c, 3, 62, 0
11, 74675, Note_on_c, 3, 62, 66
11, 74694, Note_on_c, 3, 60, 0
11, 74715, Note_on_c, 3, 60, 60
11, 74733, Note_on_c, 3, 62, 0
11, 74754, Note_on_c, 3, 62, 70
11, 74773, Note_on_c, 3, 60, 0
11, 74793, Note_on_c, 3, 60, 62
11, 74812, Note_on_c, 3, 62, 0
11, 74833, Note_on_c, 3, 62, 72
11, 74851, Note_on_c, 3, 60, 0
11, 74872, Note_on_c, 3, 60, 53
11, 74891, Note_on_c, 3, 62, 0
11, 74911, Note_on_c, 3, 62, 54
11, 74930, Note_on_c, 3, 60, 0
11, 74951, Note_on_c, 3, 60, 56
11, 74969, Note_on_c, 3, 62, 0
11, 74990, Note_on_c, 3, 62, 67
11, 75009, Note_on_c, 3, 60, 0
11, 75030, Note_on_c, 3, 60, 63
11, 75048, Note_on_c, 3, 62, 0
11, 75069, Note_on_c, 3, 62, 67
11, 75088, Note_on_c, 3, 60, 0
11, 75108, Note_on_c, 3, 60, 56
11, 75127, Note_on_c, 3, 62, 0
11, 75148, Note_on_c, 3, 62, 63
11, 75166, Note_on_c, 3, 60, 0
11, 75187, Note_on_c, 3, 60, 64
11, 75206, Note_on_c, 3, 62, 0
11, 75226, Note_on_c, 3, 62, 57
11, 75245, Note_on_c, 3, 60, 0
11, 75266, Note_on_c, 3, 60, 52
11, 75284, Note_on_c, 3, 62, 0
11, 75305, Note_on_c, 3, 62, 61
11, 75324, Note_on_c, 3, 60, 0
11, 75345, Note_on_c, 3, 60, 63
11, 75363, Note_on_c, 3, 62, 0
11, 75384, Note_on_c, 3, 62, 63
11, 75403, Note_on_c, 3, 60, 0
11, 75423, Note_on_c, 3, 60, 54
11, 75442, Note_on_c, 3, 62, 0
11, 75463, Note_on_c, 3, 62, 65
11, 75481, Note_on_c, 3, 60, 0
11, 75502, Note_on_c, 3, 60, 67
11, 75521, Note_on_c, 3, 62, 0
11, 75541, Note_on_c, 3, 62, 56
11, 75560, Note_on_c, 3, 60, 0
11, 75581, Note_on_c, 3, 60, 59
11, 75599, Note_on_c, 3, 62, 0
11, 75620, Note_on_c, 3, 62, 69
11, 75639, Note_on_c, 3, 60, 0
11, 75660, Note_on_c, 3, 60, 59
11, 75678, Note_on_c, 3, 62, 0
11, 75699, Note_on_c, 3, 62, 52
11, 75718, Note_on_c, 3, 60, 0
11, 75738, Note_on_c, 3, 60, 72
11, 75757, Note_on_c, 3, 62, 0
11, 75778, Note_on_c, 3, 62, 52
11, 75796, Note_on_c, 3, 60, 0
11, 75817, Note_on_c, 3, 60, 67
11, 75836, Note_on_c, 3, 62, 0
11, 75856, Note_on_c, 3, 62, 68
11, 75875, Note_on_c, 3, 60, 0
11, 75896, Note_on_c, 3, 60, 58
11, 75914, Note_on_c, 3, 62, 0
11, 75935, Note_on_c, 3, 62, 69
11, 75954, Note_on_c, 3, 60, 0
11, 75975, Note_on_c, 3, 60, 61
11, 75993, Note_on_c, 3, 62, 0
11, 76014, Note_on_c, 3, 62, 61
11, 76033, Note_on_c, 3, 60, 0
11, 76053, Note_on_c, 3, 60, 72
11, 76072, Note_on_c, 3, 62, 0
11, 76093, Note_on_c, 3, 62, 66
11, 76111, Note_on_c, 3, 60, 0
11, 76132, Note_on_c, 3, 60, 55
11, 76151, Note_on_c, 3, 62, 0
11, 76171, Note_on_c, 3, 62, 63
11, 76190, Note_on_c, 3, 60, 0
11, 76211, Note_on_c, 3, 60, 66
11, 76229, Note_on_c, 3, 62, 0
11, 76250, Note_on_c, 3, 62, 61
11, 76269, Note_on_c, 3, 60, 0
11, 76290, Note_on_c, 3, 60, 61
11, 76308, Note_on_c, 3, 62, 0
11, 76329, Note_on_c, 3, 62, 52
11, 76357, Note_on_c, 3, 60, 0
11, 76368, Note_on_c, 3, 60, 68
11, 76387, Note_on_c, 3, 62, 0
11, 76408, Note_on_c, 3, 62, 59
11, 76426, Note_on_c, 3, 60, 0
11, 76447, Note_on_c, 3, 60, 52
11, 76466, Note_on_c, 3, 62, 0
11, 76486, Note_on_c, 3, 62, 64
11, 76505, Note_on_c, 3, 60, 0
11, 76526, Note_on_c, 3, 60, 61
11, 76544, Note_on_c, 3, 62, 0
11, 76565, Note_on_c, 3, 62, 69
11, 76584, Note_on_c, 3, 60, 0
11, 76605, Note_on_c, 3, 60, 66
11, 76623, Note_on_c, 3, 62, 0
11, 76644, Note_on_c, 3, 62, 70
11, 76663, Note_on_c, 3, 60, 0
11, 76683, Note_on_c, 3, 60, 64
11, 76702, Note_on_c, 3, 62, 0
11, 76723, Note_on_c, 3, 62, 55
11, 76741, Note_on_c, 3, 60, 0
11, 76762, Note_on_c, 3, 60, 65
11, 76781, Note_on_c, 3, 62, 0
11, 76801, Note_on_c, 3, 62, 53
11, 76820, Note_on_c, 3, 60, 0
11, 76841, Note_on_c, 3, 60, 52
11, 76859, Note_on_c, 3, 62, 0
11, 76880, Note_on_c, 3, 62, 66
11, 76899, Note_on_c, 3, 60, 0
11, 76920, Note_on_c, 3, 60, 58
11, 76938, Note_on_c, 3, 62, 0
11, 76959, Note_on_c, 3, 62, 58
11, 76978, Note_on_c, 3, 60, 0
11, 76998, Note_on_c, 3, 60, 66
11, 77017, Note_on_c, 3, 62, 0
11, 77038, Note_on_c, 3, 62, 54
11, 77056, Note_on_c, 3, 60, 0
11, 77077, Note_on_c, 3, 60, 65
11, 77096, Note_on_c, 3, 62, 0
11, 77116, Note_on_c, 3, 62, 53
11, 77135, Note_on_c, 3, 60, 0
11, 77156, Note_on_c, 3, 60, 64
11, 77174, Note_on_c, 3, 62, 0
11, 77195, Note_on_c, 3, 62, 57
11, 77214, Note_on_c, 3, 60, 0
11, 77235, Note_on_c, 3, 60, 66
11, 77253, Note_on_c, 3, 62, 0
11, 77274, Note_on_c, 3, 62, 62
11, 77293, Note_on_c, 3, 60, 0
11, 77313, Note_on_c, 3, 60, 64
11, 77332, Note_on_c, 3, 62, 0
11, 77353, Note_on_c, 3, 62, 55
11, 77371, Note_on_c, 3, 60, 0
11, 77392, Note_on_c, 3, 60, 70
11, 77411, Note_on_c, 3, 62, 0
11, 77431, Note_on_c, 3, 62, 57
11, 77450, Note_on_c, 3, 60, 0
11, 77471, Note_on_c, 3, 60, 58
11, 77489, Note_on_c, 3, 62, 0
11, 77510, Note_on_c, 3, 62, 58
11, 77529, Note_on_c, 3, 60, 0
11, 77550, Note_on_c, 3, 60, 55
11, 77568, Note_on_c, 3, 62, 0
11, 77589, Note_on_c, 3, 62, 67
11, 77608, Note_on_c, 3, 60, 0
11, 77628, Note_on_c, 3, 60, 67
11, 77647, Note_on_c, 3, 62, 0
11, 77668, Note_on_c, 3, 62, 60
11, 77686, Note_on_c, 3, 60, 0
11, 77707, Note_on_c, 3, 60, 63
11, 77726, Note_on_c, 3, 62, 0
11, 77746, Note_on_c, 3, 62, 53
11, 77765, Note_on_c, 3, 60, 0
11, 77786, Note_on_c, 3, 60, 68
11, 77804, Note_on_c, 3, 62, 0
11, 77825, Note_on_c, 3, 62, 56
11, 77844, Note_on_c, 3, 60, 0
11, 77865, Note_on_c, 3, 60, 59
11, 77883, Note_on_c, 3, 62, 0
11, 77904, Note_on_c, 3, 62, 53
11, 77923, Note_on_c, 3, 60, 0
11, 77943, Note_on_c, 3, 60, 57
11, 77962, Note_on_c, 3, 62, 0
11, 77983, Note_on_c, 3, 62, 71
11, 78001, Note_on_c, 3, 60, 0
11, 78022, Note_on_c, 3, 60, 65
11, 78041, Note_on_c, 3, 62, 0
11, 78061, Note_on_c, 3, 62, 71
11, 78080, Note_on_c, 3, 60, 0
11, 78101, Note_on_c, 3, 60, 53
11, 78119, Note_on_c, 3, 62, 0
11, 78140, Note_on_c, 3, 62, 60
11, 78159, Note_on_c, 3, 60, 0
11, 78180, Note_on_c, 3, 60, 54
11, 78198, Note_on_c, 3, 62, 0
11, 78219, Note_on_c, 3, 62, 57
11, 78238, Note_on_c, 3, 60, 0
11, 78258, Note_on_c, 3, 60, 70
11, 78277, Note_on_c, 3, 62, 0
11, 78298, Note_on_c, 3, 62, 69
11, 78316, Note_on_c, 3, 60, 0
11, 78337, Note_on_c, 3, 60, 57
11, 78356, Note_on_c, 3, 62, 0
11, 78376, Note_on_c, 3, 62, 54
11, 78395, Note_on_c, 3, 60, 0
11, 78416, Note_on_c, 3, 60, 62
11, 78434, Note_on_c, 3, 62, 0
11, 78455, Note_on_c, 3, 62, 55
11, 78474, Note_on_c, 3, 60, 0
11, 78495, Note_on_c, 3, 60, 59
11, 78513, Note_on_c, 3, 62, 0
11, 78534, Note_on_c, 3, 62, 71
11, 78553, Note_on_c, 3, 60, 0
11, 78573, Note_on_c, 3, 60, 72
11, 78592, Note_on_c, 3, 62, 0
11, 78613, Note_on_c, 3, 62, 61
11, 78631, Note_on_c, 3, 60, 0
11, 78652, Note_on_c, 3, 60, 52
11, 78671, Note_on_c, 3, 62, 0
11, 78691, Note_on_c, 3, 62, 64
11, 78710, Note_on_c, 3, 60, 0
11, 78731, Note_on_c, 3, 60, 69
11, 78749, Note_on_c, 3, 62, 0
11, 78770, Note_on_c, 3, 62, 54
11, 78789, Note_on_c, 3, 60, 0
11, 78810, Note_on_c, 3, 60, 54
11, 78828, Note_on_c, 3, 62, 0
11, 78849, Note_on_c, 3, 62, 55
11, 78868, Note_on_c, 3, 60, 0
11, 78888, Note_on_c, 3, 60, 65
11, 78907, Note_on_c, 3, 62, 0
11, 78946, Note_on_c, 3, 60, 0
11, 81622, Note_on_c, 3, 61, 43
11, 81623, Note_on_c, 3, 55, 44
11, 84022, Note_on_c, 3, 61, 0
11, 84023, Note_on_c, 3, 55, 0
11, 99601, Note_on_c, 3, 76, 100
11, 99617, Note_on_c, 3, 71, 86
11, 99672, Note_on_c, 3, 76, 0
11, 99688, Note_on_c, 3, 71, 0
11, 100086, Note_on_c, 3, 73, 89
11, 100087, Note_on_c, 3, 68, 96
11, 100157, Note_on_c, 3, 73, 0
11, 100158, Note_on_c, 3, 68, 0
11, 108720, Note_on_c, 3, 51, 85
11, 108751, Note_on_c, 3, 51, 0
11, 108800, Note_on_c, 3, 58, 82
11, 108831, Note_on_c, 3, 58, 0
11, 108879, Note_on_c, 3, 65, 97
11, 108911, Note_on_c, 3, 65, 0
11, 110640, Note_on_c, 3, 51, 80
11, 110671, Note_on_c, 3, 51, 0
11, 110720, Note_on_c, 3, 58, 82
11, 110751, Note_on_c, 3, 58, 0
11, 110799, Note_on_c, 3, 65, 91
11, 110831, Note_on_c, 3, 65, 0
11, 111600, Note_on_c, 3, 51, 93
11, 111631, Note_on_c, 3, 51, 0
11, 111680, Note_on_c, 3, 58, 79
11, 111711, Note_on_c, 3, 58, 0
11, 111759, Note_on_c, 3, 65, 79
11, 111791, Note_on_c, 3, 65, 0
11, 112800, Note_on_c, 3, 79, 104
11, 112831, Note_on_c, 3, 79, 0
11, 112880, Note_on_c, 3, 78, 92
11, 112911, Note_on_c, 3, 78, 0
11, 112959, Note_on_c, 3, 77, 106
11, 112991, Note_on_c, 3, 77, 0
11, 113040, Note_on_c, 3, 76, 111
11, 113071, Note_on_c, 3, 76, 0
11, 113120, Note_on_c, 3, 75, 103
11, 113151, Note_on_c, 3, 75, 0
11, 113199, Note_on_c, 3, 74, 107
11, 113231, Note_on_c, 3, 74, 0
11, 113280, Note_on_c, 3, 73, 109
11, 113327, Note_on_c, 3, 73, 0
11, 114960, Note_on_c, 3, 60, 96
11, 114991, Note_on_c, 3, 60, 0
11, 115040, Note_on_c, 3, 59, 107
11, 115071, Note_on_c, 3, 59, 0
11, 115119, Note_on_c, 3, 58, 94
11, 115151, Note_on_c, 3, 58, 0
11, 115204, Note_on_c, 3, 57, 100
11, 115299, Note_on_c, 3, 57, 0
11, 194422, Note_on_c, 3, 55, 74
11, 198258, Note_on_c, 3, 55, 65
11, 198262, Note_on_c, 3, 55, 0
11, 205938, Note_on_c, 3, 55, 0
11, 206411, Note_on_c, 3, 53, 48
11, 206506, Note_on_c, 3, 53, 0
11, 206647, Note_on_c, 3, 60, 56
11, 206742, Note_on_c, 3, 60, 0
11, 206890, Note_on_c, 3, 53, 42
11, 206985, Note_on_c, 3, 53, 0
11, 207844, Note_on_c, 3, 53, 50
11, 207939, Note_on_c, 3, 53, 0
11, 208085, Note_on_c, 3, 60, 54
11, 208180, Note_on_c, 3, 60, 0
11, 208343, Note_on_c, 3, 53, 48
11, 208438, Note_on_c, 3, 53, 0
11, 209292, Note_on_c, 3, 53, 46
11, 209387, Note_on_c, 3, 53, 0
11, 209520, Note_on_c, 3, 60, 50
11, 209615, Note_on_c, 3, 60, 0
11, 209780, Note_on_c, 3, 53, 47
11, 209875, Note_on_c, 3, 53, 0
11, 210739, Note_on_c, 3, 53, 39
11, 210834, Note_on_c, 3, 53, 0
11, 210960, Note_on_c, 3, 60, 59
11, 211055, Note_on_c, 3, 60, 0
11, 211218, Note_on_c, 3, 53, 56
11, 211313, Note_on_c, 3, 53, 0
11, 227051, Note_on_c, 3, 69, 88
11, 227281, Note_on_c, 3, 71, 85
11, 227291, Note_on_c, 3, 69, 0
11, 227401, Note_on_c, 3, 71, 0
11, 227421, Note_on_c, 3, 67, 88
11, 227529, Note_on_c, 3, 69, 89
11, 227541, Note_on_c, 3, 67, 0
11, 227761, Note_on_c, 3, 71, 78
11, 227769, Note_on_c, 3, 69, 0
11, 227881, Note_on_c, 3, 71, 0
11, 227901, Note_on_c, 3, 67, 84
11, 228010, Note_on_c, 3, 69, 92
11, 228021, Note_on_c, 3, 67, 0
11, 228250, Note_on_c, 3, 69, 0
11, 228256, Note_on_c, 3, 71, 88
11, 228376, Note_on_c, 3, 71, 0
11, 228383, Note_on_c, 3, 67, 84
11, 228488, Note_on_c, 3, 69, 86
11, 228503, Note_on_c, 3, 67, 0
11, 228728, Note_on_c, 3, 69, 0
11, 228736, Note_on_c, 3, 71, 88
11, 228843, Note_on_c, 3, 67, 81
11, 228856, Note_on_c, 3, 71, 0
11, 228963, Note_on_c, 3, 67, 0
11, 228966, Note_on_c, 3, 69, 94
11, 229206, Note_on_c, 3, 69, 0
11, 229208, Note_on_c, 3, 74, 79
11, 229440, Note_on_c, 3, 72, 97
11, 229448, Note_on_c, 3, 74, 0
11, 229500, Note_on_c, 3, 72, 0
11, 229500, Note_on_c, 3, 73, 81
11, 229560, Note_on_c, 3, 73, 0
11, 229568, Note_on_c, 3, 72, 82
11, 229688, Note_on_c, 3, 72, 0
11, 229699, Note_on_c, 3, 71, 92
11, 229816, Note_on_c, 3, 69, 93
11, 229819, Note_on_c, 3, 71, 0
11, 229927, Note_on_c, 3, 71, 78
11, 229936, Note_on_c, 3, 69, 0
11, 230163, Note_on_c, 3, 67, 93
11, 230167, Note_on_c, 3, 71, 0
11, 230403, Note_on_c, 3, 67, 0
11, 230423, Note_on_c, 3, 69, 92
11, 230610, Note_on_c, 3, 74, 82
11, 230633, Note_on_c, 3, 69, 0
11, 230640, Note_on_c, 3, 74, 0
11, 230650, Note_on_c, 3, 71, 84
11, 230890, Note_on_c, 3, 71, 0
11, 230905, Note_on_c, 3, 69, 78
11, 231000, Note_on_c, 3, 69, 0
11, 231264, Note_on_c, 3, 69, 92
11, 231363, Note_on_c, 3, 69, 89
11, 231384, Note_on_c, 3, 69, 0
11, 231458, Note_on_c, 3, 69, 0
11, 231737, Note_on_c, 3, 69, 78
11, 231854, Note_on_c, 3, 69, 83
11, 231857, Note_on_c, 3, 69, 0
11, 231949, Note_on_c, 3, 69, 0
11, 232218, Note_on_c, 3, 69, 78
11, 232333, Note_on_c, 3, 69, 82
11, 232338, Note_on_c, 3, 69, 0
11, 232428, Note_on_c, 3, 69, 0
11, 232688, Note_on_c, 3, 69, 94
11, 232807, Note_on_c, 3, 69, 86
11, 232808, Note_on_c, 3, 69, 0
11, 232902, Note_on_c, 3, 69, 0
11, 233168, Note_on_c, 3, 69, 93
11, 233284, Note_on_c, 3, 71, 91
11, 233288, Note_on_c, 3, 69, 0
11, 233379, Note_on_c, 3, 71, 0
11, 233658, Note_on_c, 3, 71, 87
11, 233764, Note_on_c, 3, 69, 78
11, 233778, Note_on_c, 3, 71, 0
11, 233859, Note_on_c, 3, 69, 0
11, 234120, Note_on_c, 3, 69, 87
11, 234240, Note_on_c, 3, 69, 0
11, 234240, Note_on_c, 3, 71, 85
11, 234335, Note_on_c, 3, 71, 0
11, 234605, Note_on_c, 3, 71, 92
11, 234725, Note_on_c, 3, 71, 0
11, 234725, Note_on_c, 3, 69, 98
11, 234796, Note_on_c, 3, 69, 0
11, 237610, Note_on_c, 3, 83, 105
11, 237685, Note_on_c, 3, 82, 111
11, 237690, Note_on_c, 3, 83, 0
11, 237764, Note_on_c, 3, 82, 0
11, 237782, Note_on_c, 3, 81, 111
11, 237841, Note_on_c, 3, 80, 94
11, 237862, Note_on_c, 3, 81, 0
11, 237921, Note_on_c, 3, 80, 0
11, 237940, Note_on_c, 3, 79, 98
11, 238006, Note_on_c, 3, 78, 101
11, 238019, Note_on_c, 3, 79, 0
11, 238086, Note_on_c, 3, 78, 0
11, 238091, Note_on_c, 3, 77, 94
11, 238165, Note_on_c, 3, 76, 100
11, 238171, Note_on_c, 3, 77, 0
11, 238244, Note_on_c, 3, 76, 0
11, 238256, Note_on_c, 3, 75, 88
11, 238336, Note_on_c, 3, 75, 0
11, 238336, Note_on_c, 3, 74, 102
11, 238416, Note_on_c, 3, 74, 0
11, 238424, Note_on_c, 3, 73, 94
11, 238490, Note_on_c, 3, 72, 80
11, 238503, Note_on_c, 3, 73, 0
11, 238570, Note_on_c, 3, 72, 0
11, 238577, Note_on_c, 3, 71, 84
11, 238697, Note_on_c, 3, 71, 0
11, 240497, Note_on_c, 3, 69, 85
11, 240561, Note_on_c, 3, 70, 87
11, 240577, Note_on_c, 3, 69, 0
11, 240640, Note_on_c, 3, 70, 0
11, 240640, Note_on_c, 3, 71, 100
11, 240720, Note_on_c, 3, 71, 0
11, 240740, Note_on_c, 3, 72, 93
11, 240816, Note_on_c, 3, 73, 90
11, 240820, Note_on_c, 3, 72, 0
11, 240887, Note_on_c, 3, 74, 89
11, 240895, Note_on_c, 3, 73, 0
11, 240967, Note_on_c, 3, 74, 0
11, 240979, Note_on_c, 3, 75, 98
11, 241059, Note_on_c, 3, 75, 0
11, 241063, Note_on_c, 3, 76, 99
11, 241141, Note_on_c, 3, 77, 111
11, 241142, Note_on_c, 3, 76, 0
11, 241201, Note_on_c, 3, 78, 98
11, 241221, Note_on_c, 3, 77, 0
11, 241281, Note_on_c, 3, 78, 0
11, 241297, Note_on_c, 3, 79, 102
11, 241376, Note_on_c, 3, 79, 0
11, 241379, Note_on_c, 3, 80, 114
11, 241442, Note_on_c, 3, 81, 94
11, 241459, Note_on_c, 3, 80, 0
11, 241562, Note_on_c, 3, 81, 0
11, 241696, Note_on_c, 3, 86, 97
11, 241932, Note_on_c, 3, 84, 107
11, 241936, Note_on_c, 3, 86, 0
11, 242170, Note_on_c, 3, 83, 91
11, 242172, Note_on_c, 3, 84, 0
11, 242290, Note_on_c, 3, 83, 0
11, 242293, Note_on_c, 3, 79, 111
11, 242413, Note_on_c, 3, 79, 0
11, 244336, Note_on_c, 3, 69, 109
11, 244413, Note_on_c, 3, 70, 94
11, 244416, Note_on_c, 3, 69, 0
11, 244492, Note_on_c, 3, 70, 0
11, 244497, Note_on_c, 3, 71, 113
11, 244572, Note_on_c, 3, 72, 103
11, 244577, Note_on_c, 3, 71, 0
11, 244652, Note_on_c, 3, 72, 0
11, 244656, Note_on_c, 3, 73, 104
11, 244735, Note_on_c, 3, 73, 0
11, 244735, Note_on_c, 3, 74, 102
11, 244801, Note_on_c, 3, 75, 115
11, 244815, Note_on_c, 3, 74, 0
11, 244881, Note_on_c, 3, 75, 0
11, 244900, Note_on_c, 3, 76, 111
11, 244979, Note_on_c, 3, 76, 0
11, 244979, Note_on_c, 3, 77, 107
11, 245054, Note_on_c, 3, 78, 116
11, 245059, Note_on_c, 3, 77, 0
11, 245134, Note_on_c, 3, 78, 0
11, 245141, Note_on_c, 3, 79, 118
11, 245204, Note_on_c, 3, 80, 114
11, 245220, Note_on_c, 3, 79, 0
11, 245284, Note_on_c, 3, 80, 0
11, 245297, Note_on_c, 3, 81, 102
11, 245417, Note_on_c, 3, 81, 0
11, 246260, Note_on_c, 3, 69, 111
11, 246340, Note_on_c, 3, 69, 0
11, 246343, Note_on_c, 3, 70, 93
11, 246422, Note_on_c, 3, 70, 0
11, 246423, Note_on_c, 3, 71, 96
11, 246482, Note_on_c, 3, 72, 98
11, 246503, Note_on_c, 3, 71, 0
11, 246562, Note_on_c, 3, 72, 0
11, 246578, Note_on_c, 3, 73, 99
11, 246653, Note_on_c, 3, 74, 116
11, 246657, Note_on_c, 3, 73, 0
11, 246733, Note_on_c, 3, 74, 0
11, 246738, Note_on_c, 3, 75, 110
11, 246858, Note_on_c, 3, 75, 0
11, 247200, Note_on_c, 3, 69, 94
11, 247280, Note_on_c, 3, 69, 0
11, 247295, Note_on_c, 3, 70, 97
11, 247374, Note_on_c, 3, 70, 0
11, 247382, Note_on_c, 3, 71, 107
11, 247450, Note_on_c, 3, 72, 116
11, 247462, Note_on_c, 3, 71, 0
11, 247521, Note_on_c, 3, 73, 108
11, 247530, Note_on_c, 3, 72, 0
11, 247600, Note_on_c, 3, 73, 0
11, 247612, Note_on_c, 3, 74, 109
11, 247683, Note_on_c, 3, 75, 119
11, 247692, Note_on_c, 3, 74, 0
11, 247803, Note_on_c, 3, 75, 0
11, 248182, Note_on_c, 3, 69, 100
11, 248253, Note_on_c, 3, 70, 113
11, 248262, Note_on_c, 3, 69, 0
11, 248328, Note_on_c, 3, 71, 96
11, 248332, Note_on_c, 3, 70, 0
11, 248405, Note_on_c, 3, 72, 96
11, 248408, Note_on_c, 3, 71, 0
11, 248485, Note_on_c, 3, 72, 0
11, 248491, Note_on_c, 3, 73, 103
11, 248570, Note_on_c, 3, 73, 0
11, 248570, Note_on_c, 3, 74, 104
11, 248650, Note_on_c, 3, 74, 0
11, 248652, Note_on_c, 3, 75, 101
11, 248772, Note_on_c, 3, 75, 0
11, 249134, Note_on_c, 3, 81, 110
11, 249374, Note_on_c, 3, 81, 0
11, 249376, Note_on_c, 3, 86, 92
11, 249603, Note_on_c, 3, 84, 100
11, 249616, Note_on_c, 3, 86, 0
11, 249843, Note_on_c, 3, 84, 0
11, 249859, Note_on_c, 3, 83, 93
11, 249963, Note_on_c, 3, 79, 92
11, 249979, Note_on_c, 3, 83, 0
11, 250083, Note_on_c, 3, 79, 0
11, 267373, Note_on_c, 3, 71, 111
11, 267452, Note_on_c, 3, 71, 0
11, 267463, Note_on_c, 3, 72, 98
11, 267542, Note_on_c, 3, 72, 0
11, 267543, Note_on_c, 3, 71, 110
11, 267612, Note_on_c, 3, 72, 108
11, 267622, Note_on_c, 3, 71, 0
11, 267691, Note_on_c, 3, 72, 0
11, 267694, Note_on_c, 3, 71, 94
11, 267760, Note_on_c, 3, 72, 111
11, 267773, Note_on_c, 3, 71, 0
11, 267839, Note_on_c, 3, 72, 0
11, 267850, Note_on_c, 3, 71, 104
11, 267929, Note_on_c, 3, 71, 0
11, 267937, Note_on_c, 3, 72, 95
11, 268002, Note_on_c, 3, 71, 108
11, 268016, Note_on_c, 3, 72, 0
11, 268081, Note_on_c, 3, 71, 0
11, 268090, Note_on_c, 3, 72, 111
11, 268169, Note_on_c, 3, 72, 0
11, 268180, Note_on_c, 3, 71, 102
11, 268258, Note_on_c, 3, 72, 103
11, 268259, Note_on_c, 3, 71, 0
11, 268337, Note_on_c, 3, 72, 0
11, 268338, Note_on_c, 3, 71, 110
11, 268405, Note_on_c, 3, 72, 109
11, 268417, Note_on_c, 3, 71, 0
11, 268483, Note_on_c, 3, 71, 104
11, 268484, Note_on_c, 3, 72, 0
11, 268562, Note_on_c, 3, 71, 0
11, 268562, Note_on_c, 3, 72, 92
11, 268641, Note_on_c, 3, 72, 0
11, 268656, Note_on_c, 3, 71, 101
11, 268730, Note_on_c, 3, 72, 95
11, 268735, Note_on_c, 3, 71, 0
11, 268799, Note_on_c, 3, 71, 92
11, 268809, Note_on_c, 3, 72, 0
11, 268878, Note_on_c, 3, 71, 0
11, 268883, Note_on_c, 3, 72, 92
11, 268962, Note_on_c, 3, 72, 0
11, 268969, Note_on_c, 3, 71, 100
11, 269039, Note_on_c, 3, 72, 98
11, 269048, Note_on_c, 3, 71, 0
11, 269116, Note_on_c, 3, 71, 103
11, 269118, Note_on_c, 3, 72, 0
11, 269195, Note_on_c, 3, 71, 0
11, 269208, Note_on_c, 3, 72, 110
11, 269287, Note_on_c, 3, 72, 0
11, 269289, Note_on_c, 3, 71, 92
11, 269360, Note_on_c, 3, 72, 102
11, 269368, Note_on_c, 3, 71, 0
11, 269437, Note_on_c, 3, 71, 103
11, 269439, Note_on_c, 3, 72, 0
11, 269516, Note_on_c, 3, 71, 0
11, 269539, Note_on_c, 3, 73, 91
11, 269779, Note_on_c, 3, 73, 0
11, 294015, Note_on_c, 3, 75, 51
11, 298515, Note_on_c, 3, 75, 0
11, 298524, Note_on_c, 3, 79, 54
11, 298682, Note_on_c, 3, 82, 46
11, 298704, Note_on_c, 3, 79, 0
11, 298862, Note_on_c, 3, 82, 0
11, 298862, Note_on_c, 3, 85, 50
11, 299042, Note_on_c, 3, 85, 0
11, 299060, Note_on_c, 3, 87, 56
11, 299226, Note_on_c, 3, 85, 49
11, 299240, Note_on_c, 3, 87, 0
11, 299406, Note_on_c, 3, 85, 0
11, 299414, Note_on_c, 3, 82, 58
11, 299594, Note_on_c, 3, 82, 0
11, 299596, Note_on_c, 3, 79, 54
11, 299776, Note_on_c, 3, 79, 0
11, 299783, Note_on_c, 3, 75, 48
11, 299953, Note_on_c, 3, 79, 47
11, 299963, Note_on_c, 3, 75, 0
11, 300133, Note_on_c, 3, 79, 0
11, 300143, Note_on_c, 3, 82, 40
11, 300310, Note_on_c, 3, 85, 43
11, 300323, Note_on_c, 3, 82, 0
11, 300490, Note_on_c, 3, 85, 0
11, 300490, Note_on_c, 3, 87, 51
11, 300670, Note_on_c, 3, 87, 0
11, 300681, Note_on_c, 3, 85, 59
11, 300843, Note_on_c, 3, 82, 41
11, 300861, Note_on_c, 3, 85, 0
11, 301023, Note_on_c, 3, 82, 0
11, 301037, Note_on_c, 3, 79, 59
11, 301211, Note_on_c, 3, 75, 58
11, 301217, Note_on_c, 3, 79, 0
11, 301391, Note_on_c, 3, 75, 0
11, 301401, Note_on_c, 3, 79, 39
11, 301565, Note_on_c, 3, 82, 39
11, 301581, Note_on_c, 3, 79, 0
11, 301745, Note_on_c, 3, 82, 0
11, 301751, Note_on_c, 3, 85, 55
11, 301920, Note_on_c, 3, 87, 49
11, 301931, Note_on_c, 3, 85, 0
11, 302100, Note_on_c, 3, 87, 0
11, 302105, Note_on_c, 3, 85, 42
11, 302285, Note_on_c, 3, 85, 0
11, 302297, Note_on_c, 3, 82, 54
11, 302460, Note_on_c, 3, 79, 44
11, 302477, Note_on_c, 3, 82, 0
11, 302640, Note_on_c, 3, 79, 0
11, 325446, Note_on_c, 3, 77, 101
11, 325626, Note_on_c, 3, 77, 0
11, 325692, Note_on_c, 3, 77, 105
11, 325872, Note_on_c, 3, 77, 0
11, 325926, Note_on_c, 3, 77, 105
11, 326106, Note_on_c, 3, 77, 0
11, 326176, Note_on_c, 3, 74, 100
11, 326356, Note_on_c, 3, 74, 0
11, 326408, Note_on_c, 3, 74, 99
11, 326588, Note_on_c, 3, 74, 0
11, 326645, Note_on_c, 3, 74, 109
11, 326825, Note_on_c, 3, 74, 0
11, 468960, Note_on_c, 3, 63, 34
11, 469007, Note_on_c, 3, 65, 22
11, 469030, Note_on_c, 3, 63, 0
11, 469055, Note_on_c, 3, 63, 28
11, 469077, Note_on_c, 3, 65, 0
11, 469103, Note_on_c, 3, 65, 19
11, 469125, Note_on_c, 3, 63, 0
11, 469151, Note_on_c, 3, 63, 22
11, 469173, Note_on_c, 3, 65, 0
11, 469198, Note_on_c, 3, 65, 28
11, 469221, Note_on_c, 3, 63, 0
11, 469246, Note_on_c, 3, 63, 37
11, 469268, Note_on_c, 3, 65, 0
11, 469294, Note_on_c, 3, 65, 33
11, 469316, Note_on_c, 3, 63, 0
11, 469342, Note_on_c, 3, 63, 22
11, 469364, Note_on_c, 3, 65, 0
11, 469390, Note_on_c, 3, 65, 28
11, 469412, Note_on_c, 3, 63, 0
11, 469438, Note_on_c, 3, 63, 28
11, 469460, Note_on_c, 3, 65, 0
11, 469485, Note_on_c, 3, 65, 26
11, 469508, Note_on_c, 3, 63, 0
11, 469533, Note_on_c, 3, 63, 36
11, 469555, Note_on_c, 3, 65, 0
11, 469581, Note_on_c, 3, 65, 39
11, 469603, Note_on_c, 3, 63, 0
11, 469629, Note_on_c, 3, 63, 38
11, 469651, Note_on_c, 3, 65, 0
11, 469676, Note_on_c, 3, 65, 30
11, 469699, Note_on_c, 3, 63, 0
11, 469725, Note_on_c, 3, 63, 22
11, 469746, Note_on_c, 3, 65, 0
11, 469772, Note_on_c, 3, 65, 31
11, 469795, Note_on_c, 3, 63, 0
11, 469820, Note_on_c, 3, 63, 19
11, 469842, Note_on_c, 3, 65, 0
11, 469868, Note_on_c, 3, 65, 31
11, 469890, Note_on_c, 3, 63, 0
11, 469916, Note_on_c, 3, 63, 39
11, 469938, Note_on_c, 3, 65, 0
11, 469963, Note_on_c, 3, 65, 39
11, 469986, Note_on_c, 3, 63, 0
11, 470011, Note_on_c, 3, 63, 28
11, 470033, Note_on_c, 3, 65, 0
11, 470059, Note_on_c, 3, 65, 37
11, 470081, Note_on_c, 3, 63, 0
11, 470107, Note_on_c, 3, 63, 39
11, 470129, Note_on_c, 3, 65, 0
11, 470155, Note_on_c, 3, 65, 35
11, 470177, Note_on_c, 3, 63, 0
11, 470203, Note_on_c, 3, 63, 39
11, 470225, Note_on_c, 3, 65, 0
11, 470250, Note_on_c, 3, 65, 35
11, 470273, Note_on_c, 3, 63, 0
11, 470298, Note_on_c, 3, 63, 26
11, 470320, Note_on_c, 3, 65, 0
11, 470346, Note_on_c, 3, 65, 35
11, 470368, Note_on_c, 3, 63, 0
11, 470394, Note_on_c, 3, 63, 30
11, 470416, Note_on_c, 3, 65, 0
11, 470441, Note_on_c, 3, 65, 29
11, 470464, Note_on_c, 3, 63, 0
11, 470490, Note_on_c, 3, 63, 23
11, 470511, Note_on_c, 3, 65, 0
11, 470537, Note_on_c, 3, 65, 24
11, 470560, Note_on_c, 3, 63, 0
11, 470585, Note_on_c, 3, 63, 38
11, 470607, Note_on_c, 3, 65, 0
11, 470633, Note_on_c, 3, 65, 37
11, 470655, Note_on_c, 3, 63, 0
11, 470681, Note_on_c, 3, 63, 37
11, 470703, Note_on_c, 3, 65, 0
11, 470728, Note_on_c, 3, 65, 22
11, 470751, Note_on_c, 3, 63, 0
11, 470776, Note_on_c, 3, 63, 29
11, 470798, Note_on_c, 3, 65, 0
11, 470824, Note_on_c, 3, 65, 28
11, 470846, Note_on_c, 3, 63, 0
11, 470872, Note_on_c, 3, 63, 20
11, 470894, Note_on_c, 3, 65, 0
11, 470920, Note_on_c, 3, 65, 37
11, 470942, Note_on_c, 3, 63, 0
11, 470968, Note_on_c, 3, 63, 32
11, 470990, Note_on_c, 3, 65, 0
11, 471015, Note_on_c, 3, 65, 36
11, 471038, Note_on_c, 3, 63, 0
11, 471063, Note_on_c, 3, 63, 21
11, 471085, Note_on_c, 3, 65, 0
11, 471111, Note_on_c, 3, 65, 25
11, 471133, Note_on_c, 3, 63, 0
11, 471159, Note_on_c, 3, 63, 32
11, 471181, Note_on_c, 3, 65, 0
11, 471206, Note_on_c, 3, 65, 32
11, 471229, Note_on_c, 3, 63, 0
11, 471255, Note_on_c, 3, 63, 23
11, 471276, Note_on_c, 3, 65, 0
11, 471302, Note_on_c, 3, 65, 28
11, 471325, Note_on_c, 3, 63, 0
11, 471350, Note_on_c, 3, 63, 30
11, 471372, Note_on_c, 3, 65, 0
11, 471398, Note_on_c, 3, 65, 32
11, 471420, Note_on_c, 3, 63, 0
11, 471446, Note_on_c, 3, 63, 28
11, 471468, Note_on_c, 3, 65, 0
11, 471493, Note_on_c, 3, 65, 33
11, 471516, Note_on_c, 3, 63, 0
11, 471541, Note_on_c, 3, 63, 34
11, 471563, Note_on_c, 3, 65, 0
11, 471589, Note_on_c, 3, 65, 25
11, 471611, Note_on_c, 3, 63, 0
11, 471637, Note_on_c, 3, 63, 38
11, 471659, Note_on_c, 3, 65, 0
11, 471685, Note_on_c, 3, 65, 33
11, 471707, Note_on_c, 3, 63, 0
11, 471733, Note_on_c, 3, 63, 25
11, 471755, Note_on_c, 3, 65, 0
11, 471780, Note_on_c, 3, 65, 22
11, 471803, Note_on_c, 3, 63, 0
11, 471828, Note_on_c, 3, 63, 35
11, 471850, Note_on_c, 3, 65, 0
11, 471876, Note_on_c, 3, 65, 27
11, 471898, Note_on_c, 3, 63, 0
11, 471924, Note_on_c, 3, 63, 25
11, 471946, Note_on_c, 3, 65, 0
11, 471971, Note_on_c, 3, 65, 33
11, 471994, Note_on_c, 3, 63, 0
11, 472020, Note_on_c, 3, 63, 34
11, 472041, Note_on_c, 3, 65, 0
11, 472067, Note_on_c, 3, 65, 36
11, 472090, Note_on_c, 3, 63, 0
11, 472115, Note_on_c, 3, 63, 19
11, 472137, Note_on_c, 3, 65, 0
11, 472163, Note_on_c, 3, 65, 29
11, 472185, Note_on_c, 3, 63, 0
11, 472211, Note_on_c, 3, 63, 37
11, 472233, Note_on_c, 3, 65, 0
11, 472258, Note_on_c, 3, 65, 27
11, 472281, Note_on_c, 3, 63, 0
11, 472306, Note_on_c, 3, 63, 30
11, 472328, Note_on_c, 3, 65, 0
11, 472354, Note_on_c, 3, 65, 33
11, 472376, Note_on_c, 3, 63, 0
11, 472402, Note_on_c, 3, 63, 22
11, 472424, Note_on_c, 3, 65, 0
11, 472450, Note_on_c, 3, 65, 32
11, 472472, Note_on_c, 3, 63, 0
11, 472498, Note_on_c, 3, 63, 38
11, 472520, Note_on_c, 3, 65, 0
11, 472545, Note_on_c, 3, 65, 21
11, 472568, Note_on_c, 3, 63, 0
11, 472593, Note_on_c, 3, 63, 21
11, 472615, Note_on_c, 3, 65, 0
11, 472641, Note_on_c, 3, 65, 37
11, 472663, Note_on_c, 3, 63, 0
11, 472689, Note_on_c, 3, 63, 23
11, 472711, Note_on_c, 3, 65, 0
11, 472736, Note_on_c, 3, 65, 26
11, 472759, Note_on_c, 3, 63, 0
11, 472785, Note_on_c, 3, 63, 37
11, 472806, Note_on_c, 3, 65, 0
11, 472832, Note_on_c, 3, 65, 29
11, 472855, Note_on_c, 3, 63, 0
11, 472880, Note_on_c, 3, 63, 32
11, 472902, Note_on_c, 3, 65, 0
11, 472928, Note_on_c, 3, 65, 22
11, 472950, Note_on_c, 3, 63, 0
11, 472976, Note_on_c, 3, 63, 25
11, 472998, Note_on_c, 3, 65, 0
11, 473023, Note_on_c, 3, 65, 29
11, 473046, Note_on_c, 3, 63, 0
11, 473071, Note_on_c, 3, 63, 26
11, 473093, Note_on_c, 3, 65, 0
11, 473119, Note_on_c, 3, 65, 29
11, 473141, Note_on_c, 3, 63, 0
11, 473167, Note_on_c, 3, 63, 25
11, 473189, Note_on_c, 3, 65, 0
11, 473215, Note_on_c, 3, 65, 28
11, 473237, Note_on_c, 3, 63, 0
11, 473263, Note_on_c, 3, 63, 20
11, 473285, Note_on_c, 3, 65, 0
11, 473310, Note_on_c, 3, 65, 20
11, 473333, Note_on_c, 3, 63, 0
11, 473358, Note_on_c, 3, 63, 30
11, 473380, Note_on_c, 3, 65, 0
11, 473406, Note_on_c, 3, 65, 33
11, 473428, Note_on_c, 3, 63, 0
11, 473454, Note_on_c, 3, 63, 36
11, 473476, Note_on_c, 3, 65, 0
11, 473501, Note_on_c, 3, 65, 32
11, 473524, Note_on_c, 3, 63, 0
11, 473550, Note_on_c, 3, 63, 25
11, 473571, Note_on_c, 3, 65, 0
11, 473597, Note_on_c, 3, 65, 26
11, 473620, Note_on_c, 3, 63, 0
11, 473645, Note_on_c, 3, 63, 28
11, 473667, Note_on_c, 3, 65, 0
11, 473693, Note_on_c, 3, 65, 23
11, 473715, Note_on_c, 3, 63, 0
11, 473741, Note_on_c, 3, 63, 24
11, 473763, Note_on_c, 3, 65, 0
11, 473788, Note_on_c, 3, 65, 30
11, 473811, Note_on_c, 3, 63, 0
11, 473836, Note_on_c, 3, 63, 34
11, 473858, Note_on_c, 3, 65, 0
11, 473884, Note_on_c, 3, 65, 34
11, 473906, Note_on_c, 3, 63, 0
11, 473932, Note_on_c, 3, 63, 19
11, 473954, Note_on_c, 3, 65, 0
11, 473980, Note_on_c, 3, 65, 37
11, 474002, Note_on_c, 3, 63, 0
11, 474028, Note_on_c, 3, 63, 26
11, 474050, Note_on_c, 3, 65, 0
11, 474075, Note_on_c, 3, 65, 21
11, 474098, Note_on_c, 3, 63, 0
11, 474123, Note_on_c, 3, 63, 38
11, 474145, Note_on_c, 3, 65, 0
11, 474171, Note_on_c, 3, 65, 21
11, 474193, Note_on_c, 3, 63, 0
11, 474219, Note_on_c, 3, 63, 25
11, 474241, Note_on_c, 3, 65, 0
11, 474266, Note_on_c, 3, 65, 31
11, 474289, Note_on_c, 3, 63, 0
11, 474315, Note_on_c, 3, 63, 36
11, 474336, Note_on_c, 3, 65, 0
11, 474362, Note_on_c, 3, 65, 26
11, 474385, Note_on_c, 3, 63, 0
11, 474410, Note_on_c, 3, 63, 36
11, 474432, Note_on_c, 3, 65, 0
11, 474458, Note_on_c, 3, 65, 37
11, 474480, Note_on_c, 3, 63, 0
11, 474506, Note_on_c, 3, 63, 25
11, 474528, Note_on_c, 3, 65, 0
11, 474553, Note_on_c, 3, 65, 20
11, 474576, Note_on_c, 3, 63, 0
11, 474601, Note_on_c, 3, 63, 37
11, 474623, Note_on_c, 3, 65, 0
11, 474649, Note_on_c, 3, 65, 32
11, 474671, Note_on_c, 3, 63, 0
11, 474697, Note_on_c, 3, 63, 20
11, 474719, Note_on_c, 3, 65, 0
11, 474745, Note_on_c, 3, 65, 28
11, 474767, Note_on_c, 3, 63, 0
11, 474793, Note_on_c, 3, 63, 33
11, 474815, Note_on_c, 3, 65, 0
11, 474840, Note_on_c, 3, 65, 36
11, 474863, Note_on_c, 3, 63, 0
11, 474888, Note_on_c, 3, 63, 34
11, 474910, Note_on_c, 3, 65, 0
11, 474936, Note_on_c, 3, 65, 36
11, 474958, Note_on_c, 3, 63, 0
11, 474984, Note_on_c, 3, 63, 25
11, 475006, Note_on_c, 3, 65, 0
11, 475031, Note_on_c, 3, 65, 25
11, 475054, Note_on_c, 3, 63, 0
11, 475080, Note_on_c, 3, 63, 27
11, 475101, Note_on_c, 3, 65, 0
11, 475127, Note_on_c, 3, 65, 33
11, 475150, Note_on_c, 3, 63, 0
11, 475175, Note_on_c, 3, 63, 35
11, 475197, Note_on_c, 3, 65, 0
11, 475223, Note_on_c, 3, 65, 21
11, 475245, Note_on_c, 3, 63, 0
11, 475271, Note_on_c, 3, 63, 23
11, 475293, Note_on_c, 3, 65, 0
11, 475318, Note_on_c, 3, 65, 33
11, 475341, Note_on_c, 3, 63, 0
11, 475366, Note_on_c, 3, 63, 34
11, 475388, Note_on_c, 3, 65, 0
11, 475414, Note_on_c, 3, 65, 28
11, 475436, Note_on_c, 3, 63, 0
11, 475462, Note_on_c, 3, 63, 19
11, 475484, Note_on_c, 3, 65, 0
11, 475510, Note_on_c, 3, 65, 39
11, 475532, Note_on_c, 3, 63, 0
11, 475558, Note_on_c, 3, 63, 30
11, 475580, Note_on_c, 3, 65, 0
11, 475605, Note_on_c, 3, 65, 20
11, 475628, Note_on_c, 3, 63, 0
11, 475653, Note_on_c, 3, 63, 29
11, 475675, Note_on_c, 3, 65, 0
11, 475701, Note_on_c, 3, 65, 33
11, 475723, Note_on_c, 3, 63, 0
11, 475749, Note_on_c, 3, 63, 26
11, 475771, Note_on_c, 3, 65, 0
11, 475796, Note_on_c, 3, 65, 26
11, 475819, Note_on_c, 3, 63, 0
11, 475845, Note_on_c, 3, 63, 38
11, 475866, Note_on_c, 3, 65, 0
11, 475892, Note_on_c, 3, 65, 39
11, 475915, Note_on_c, 3, 63, 0
11, 475940, Note_on_c, 3, 63, 39
11, 475962, Note_on_c, 3, 65, 0
11, 475988, Note_on_c, 3, 65, 25
11, 476010, Note_on_c, 3, 63, 0
11, 476036, Note_on_c, 3, 63, 23
11, 476058, Note_on_c, 3, 65, 0
11, 476083, Note_on_c, 3, 65, 33
11, 476106, Note_on_c, 3, 63, 0
11, 476131, Note_on_c, 3, 63, 28
11, 476153, Note_on_c, 3, 65, 0
11, 476179, Note_on_c, 3, 65, 25
11, 476201, Note_on_c, 3, 63, 0
11, 476227, Note_on_c, 3, 63, 28
11, 476249, Note_on_c, 3, 65, 0
11, 476275, Note_on_c, 3, 65, 29
11, 476297, Note_on_c, 3, 63, 0
11, 476323, Note_on_c, 3, 63, 38
11, 476345, Note_on_c, 3, 65, 0
11, 476370, Note_on_c, 3, 65, 23
11, 476393, Note_on_c, 3, 63, 0
11, 476418, Note_on_c, 3, 63, 32
11, 476440, Note_on_c, 3, 65, 0
11, 476466, Note_on_c, 3, 65, 34
11, 476488, Note_on_c, 3, 63, 0
11, 476514, Note_on_c, 3, 63, 28
11, 476536, Note_on_c, 3, 65, 0
11, 476561, Note_on_c, 3, 65, 22
11, 476584, Note_on_c, 3, 63, 0
11, 476610, Note_on_c, 3, 63, 33
11, 476631, Note_on_c, 3, 65, 0
11, 476657, Note_on_c, 3, 65, 22
11, 476680, Note_on_c, 3, 63, 0
11, 476705, Note_on_c, 3, 63, 36
11, 476727, Note_on_c, 3, 65, 0
11, 476753, Note_on_c, 3, 65, 28
11, 476775, Note_on_c, 3, 63, 0
11, 476801, Note_on_c, 3, 63, 28
11, 476823, Note_on_c, 3, 65, 0
11, 476848, Note_on_c, 3, 65, 30
11, 476871, Note_on_c, 3, 63, 0
11, 476896, Note_on_c, 3, 63, 31
11, 476918, Note_on_c, 3, 65, 0
11, 476944, Note_on_c, 3, 65, 31
11, 476966, Note_on_c, 3, 63, 0
11, 476992, Note_on_c, 3, 63, 19
11, 477014, Note_on_c, 3, 65, 0
11, 477040, Note_on_c, 3, 65, 35
11, 477062, Note_on_c, 3, 63, 0
11, 477088, Note_on_c, 3, 63, 34
11, 477110, Note_on_c, 3, 65, 0
11, 477135, Note_on_c, 3, 65, 38
11, 477158, Note_on_c, 3, 63, 0
11, 477183, Note_on_c, 3, 63, 30
11, 477205, Note_on_c, 3, 65, 0
11, 477231, Note_on_c, 3, 65, 35
11, 477253, Note_on_c, 3, 63, 0
11, 477279, Note_on_c, 3, 63, 38
11, 477301, Note_on_c, 3, 65, 0
11, 477326, Note_on_c, 3, 65, 38
11, 477349, Note_on_c, 3, 63, 0
11, 477375, Note_on_c, 3, 63, 26
11, 477396, Note_on_c, 3, 65, 0
11, 477422, Note_on_c, 3, 65, 33
11, 477445, Note_on_c, 3, 63, 0
11, 477470, Note_on_c, 3, 63, 22
11, 477492, Note_on_c, 3, 65, 0
11, 477518, Note_on_c, 3, 65, 36
11, 477540, Note_on_c, 3, 63, 0
11, 477566, Note_on_c, 3, 63, 38
11, 477588, Note_on_c, 3, 65, 0
11, 477613, Note_on_c, 3, 65, 21
11, 477636, Note_on_c, 3, 63, 0
11, 477661, Note_on_c, 3, 63, 33
11, 477683, Note_on_c, 3, 65, 0
11, 477709, Note_on_c, 3, 65, 21
11, 477731, Note_on_c, 3, 63, 0
11, 477757, Note_on_c, 3, 63, 30
11, 477779, Note_on_c, 3, 65, 0
11, 477805, Note_on_c, 3, 65, 33
11, 477827, Note_on_c, 3, 63, 0
11, 477853, Note_on_c, 3, 63, 29
11, 477875, Note_on_c, 3, 65, 0
11, 477900, Note_on_c, 3, 65, 36
11, 477923, Note_on_c, 3, 63, 0
11, 477948, Note_on_c, 3, 63, 28
11, 477970, Note_on_c, 3, 65, 0
11, 477996, Note_on_c, 3, 65, 19
11, 478018, Note_on_c, 3, 63, 0
11, 478044, Note_on_c, 3, 63, 26
11, 478066, Note_on_c, 3, 65, 0
11, 478091, Note_on_c, 3, 65, 27
11, 478114, Note_on_c, 3, 63, 0
11, 478140, Note_on_c, 3, 63, 19
11, 478161, Note_on_c, 3, 65, 0
11, 478187, Note_on_c, 3, 65, 35
11, 478210, Note_on_c, 3, 63, 0
11, 478235, Note_on_c, 3, 63, 39
11, 478257, Note_on_c, 3, 65, 0
11, 478283, Note_on_c, 3, 65, 20
11, 478305, Note_on_c, 3, 63, 0
11, 478331, Note_on_c, 3, 63, 20
11, 478353, Note_on_c, 3, 65, 0
11, 478378, Note_on_c, 3, 65, 38
11, 478401, Note_on_c, 3, 63, 0
11, 478426, Note_on_c, 3, 63, 24
11, 478448, Note_on_c, 3, 65, 0
11, 478474, Note_on_c, 3, 65, 22
11, 478496, Note_on_c, 3, 63, 0
11, 478522, Note_on_c, 3, 63, 38
11, 478544, Note_on_c, 3, 65, 0
11, 478570, Note_on_c, 3, 65, 19
11, 478600, Note_on_c, 3, 63, 0
11, 478618, Note_on_c, 3, 63, 22
11, 478640, Note_on_c, 3, 65, 0
11, 478665, Note_on_c, 3, 65, 28
11, 478688, Note_on_c, 3, 63, 0
11, 478713, Note_on_c, 3, 63, 25
11, 478735, Note_on_c, 3, 65, 0
11, 478761, Note_on_c, 3, 65, 19
11, 478783, Note_on_c, 3, 63, 0
11, 478809, Note_on_c, 3, 63, 21
11, 478831, Note_on_c, 3, 65, 0
11, 478856, Note_on_c, 3, 65, 31
11, 478879, Note_on_c, 3, 63, 0
11, 478905, Note_on_c, 3, 63, 37
11, 478926, Note_on_c, 3, 65, 0
11, 478952, Note_on_c, 3, 65, 30
11, 478975, Note_on_c, 3, 63, 0
11, 479000, Note_on_c, 3, 63, 29
11, 479022, Note_on_c, 3, 65, 0
11, 479048, Note_on_c, 3, 65, 33
11, 479070, Note_on_c, 3, 63, 0
11, 479096, Note_on_c, 3, 63, 28
11, 479118, Note_on_c, 3, 65, 0
11, 479143, Note_on_c, 3, 65, 23
11, 479166, Note_on_c, 3, 63, 0
11, 479191, Note_on_c, 3, 63, 35
11, 479213, Note_on_c, 3, 65, 0
11, 479239, Note_on_c, 3, 65, 31
11, 479261, Note_on_c, 3, 63, 0
11, 479287, Note_on_c, 3, 63, 31
11, 479309, Note_on_c, 3, 65, 0
11, 479335, Note_on_c, 3, 65, 35
11, 479357, Note_on_c, 3, 63, 0
11, 479383, Note_on_c, 3, 63, 28
11, 479405, Note_on_c, 3, 65, 0
11, 479430, Note_on_c, 3, 65, 39
11, 479453, Note_on_c, 3, 63, 0
11, 479478, Note_on_c, 3, 63, 39
11, 479500, Note_on_c, 3, 65, 0
11, 479526, Note_on_c, 3, 65, 36
11, 479548, Note_on_c, 3, 63, 0
11, 479574, Note_on_c, 3, 63, 27
11, 479596, Note_on_c, 3, 65, 0
11, 479621, Note_on_c, 3, 65, 19
11, 479644, Note_on_c, 3, 63, 0
11, 479670, Note_on_c, 3, 63, 25
11, 479691, Note_on_c, 3, 65, 0
11, 479717, Note_on_c, 3, 65, 24
11, 479740, Note_on_c, 3, 63, 0
11, 479765, Note_on_c, 3, 63, 39
11, 479787, Note_on_c, 3, 65, 0
11, 479813, Note_on_c, 3, 65, 35
11, 479835, Note_on_c, 3, 63, 0
11, 479861, Note_on_c, 3, 63, 29
11, 479883, Note_on_c, 3, 65, 0
11, 479908, Note_on_c, 3, 65, 21
11, 479931, Note_on_c, 3, 63, 0
11, 479956, Note_on_c, 3, 63, 29
11, 479978, Note_on_c, 3, 65, 0
11, 480004, Note_on_c, 3, 65, 38
11, 480026, Note_on_c, 3, 63, 0
11, 480052, Note_on_c, 3, 63, 28
11, 480074, Note_on_c, 3, 65, 0
11, 480100, Note_on_c, 3, 65, 38
11, 480122, Note_on_c, 3, 63, 0
11, 480148, Note_on_c, 3, 63, 24
11, 480170, Note_on_c, 3, 65, 0
11, 480195, Note_on_c, 3, 65, 36
11, 480218, Note_on_c, 3, 63, 0
11, 480243, Note_on_c, 3, 63, 24
11, 480265, Note_on_c, 3, 65, 0
11, 480291, Note_on_c, 3, 65, 32
11, 480313, Note_on_c, 3, 63, 0
11, 480339, Note_on_c, 3, 63, 28
11, 480361, Note_on_c, 3, 65, 0
11, 480386, Note_on_c, 3, 65, 22
11, 480409, Note_on_c, 3, 63, 0
11, 480435, Note_on_c, 3, 63, 38
11, 480456, Note_on_c, 3, 65, 0
11, 480482, Note_on_c, 3, 65, 37
11, 480505, Note_on_c, 3, 63, 0
11, 480530, Note_on_c, 3, 63, 32
11, 480552, Note_on_c, 3, 65, 0
11, 480578, Note_on_c, 3, 65, 27
11, 480600, Note_on_c, 3, 63, 0
11, 480626, Note_on_c, 3, 63, 19
11, 480648, Note_on_c, 3, 65, 0
11, 480673, Note_on_c, 3, 65, 36
11, 480696, Note_on_c, 3, 63, 0
11, 480721, Note_on_c, 3, 63, 19
11, 480743, Note_on_c, 3, 65, 0
11, 480769, Note_on_c, 3, 65, 21
11, 480791, Note_on_c, 3, 63, 0
11, 480817, Note_on_c, 3, 63, 32
11, 480839, Note_on_c, 3, 65, 0
11, 480865, Note_on_c, 3, 65, 39
11, 480887, Note_on_c, 3, 63, 0
11, 480913, Note_on_c, 3, 63, 36
11, 480935, Note_on_c, 3, 65, 0
11, 480960, Note_on_c, 3, 65, 19
11, 480983, Note_on_c, 3, 63, 0
11, 481008, Note_on_c, 3, 63, 36
11, 481030, Note_on_c, 3, 65, 0
11, 481056, Note_on_c, 3, 65, 21
11, 481078, Note_on_c, 3, 63, 0
11, 481104, Note_on_c, 3, 63, 19
11, 481126, Note_on_c, 3, 65, 0
11, 481151, Note_on_c, 3, 65, 19
11, 481174, Note_on_c, 3, 63, 0
11, 481200, Note_on_c, 3, 63, 37
11, 481221, Note_on_c, 3, 65, 0
11, 481247, Note_on_c, 3, 65, 23
11, 481270, Note_on_c, 3, 63, 0
11, 481295, Note_on_c, 3, 63, 38
11, 481317, Note_on_c, 3, 65, 0
11, 481343, Note_on_c, 3, 65, 24
11, 481365, Note_on_c, 3, 63, 0
11, 481391, Note_on_c, 3, 63, 25
11, 481413, Note_on_c, 3, 65, 0
11, 481438, Note_on_c, 3, 65, 27
11, 481461, Note_on_c, 3, 63, 0
11, 481486, Note_on_c, 3, 63, 25
11, 481508, Note_on_c, 3, 65, 0
11, 481534, Note_on_c, 3, 65, 19
11, 481556, Note_on_c, 3, 63, 0
11, 481582, Note_on_c, 3, 63, 27
11, 481604, Note_on_c, 3, 65, 0
11, 481630, Note_on_c, 3, 65, 27
11, 481652, Note_on_c, 3, 63, 0
11, 481678, Note_on_c, 3, 63, 39
11, 481700, Note_on_c, 3, 65, 0
11, 481725, Note_on_c, 3, 65, 34
11, 481748, Note_on_c, 3, 63, 0
11, 481773, Note_on_c, 3, 63, 32
11, 481795, Note_on_c, 3, 65, 0
11, 481821, Note_on_c, 3, 65, 26
11, 481843, Note_on_c, 3, 63, 0
11, 481869, Note_on_c, 3, 63, 24
11, 481891, Note_on_c, 3, 65, 0
11, 481916, Note_on_c, 3, 65, 21
11, 481939, Note_on_c, 3, 63, 0
11, 481965, Note_on_c, 3, 63, 27
11, 481986, Note_on_c, 3, 65, 0
11, 482012, Note_on_c, 3, 65, 38
11, 482035, Note_on_c, 3, 63, 0
11, 482060, Note_on_c, 3, 63, 39
11, 482082, Note_on_c, 3, 65, 0
11, 482108, Note_on_c, 3, 65, 26
11, 482130, Note_on_c, 3, 63, 0
11, 482156, Note_on_c, 3, 63, 35
11, 482178, Note_on_c, 3, 65, 0
11, 482203, Note_on_c, 3, 65, 30
11, 482226, Note_on_c, 3, 63, 0
11, 482251, Note_on_c, 3, 63, 27
11, 482273, Note_on_c, 3, 65, 0
11, 482299, Note_on_c, 3, 65, 21
11, 482321, Note_on_c, 3, 63, 0
11, 482347, Note_on_c, 3, 63, 33
11, 482369, Note_on_c, 3, 65, 0
11, 482395, Note_on_c, 3, 65, 34
11, 482417, Note_on_c, 3, 63, 0
11, 482443, Note_on_c, 3, 63, 38
11, 482465, Note_on_c, 3, 65, 0
11, 482490, Note_on_c, 3, 65, 23
11, 482513, Note_on_c, 3, 63, 0
11, 482538, Note_on_c, 3, 63, 29
11, 482560, Note_on_c, 3, 65, 0
11, 482586, Note_on_c, 3, 65, 37
11, 482608, Note_on_c, 3, 63, 0
11, 482634, Note_on_c, 3, 63, 19
11, 482656, Note_on_c, 3, 65, 0
11, 482681, Note_on_c, 3, 65, 23
11, 482704, Note_on_c, 3, 63, 0
11, 482730, Note_on_c, 3, 63, 24
11, 482751, Note_on_c, 3, 65, 0
11, 482777, Note_on_c, 3, 65, 33
11, 482800, Note_on_c, 3, 63, 0
11, 482825, Note_on_c, 3, 63, 34
11, 482847, Note_on_c, 3, 65, 0
11, 482873, Note_on_c, 3, 65, 37
11, 482895, Note_on_c, 3, 63, 0
11, 482921, Note_on_c, 3, 63, 20
11, 482943, Note_on_c, 3, 65, 0
11, 482968, Note_on_c, 3, 65, 22
11, 482991, Note_on_c, 3, 63, 0
11, 483016, Note_on_c, 3, 63, 22
11, 483038, Note_on_c, 3, 65, 0
11, 483064, Note_on_c, 3, 65, 32
11, 483086, Note_on_c, 3, 63, 0
11, 483112, Note_on_c, 3, 63, 19
11, 483134, Note_on_c, 3, 65, 0
11, 483160, Note_on_c, 3, 65, 38
11, 483182, Note_on_c, 3, 63, 0
11, 483208, Note_on_c, 3, 63, 25
11, 483230, Note_on_c, 3, 65, 0
11, 483255, Note_on_c, 3, 65, 23
11, 483278, Note_on_c, 3, 63, 0
11, 483303, Note_on_c, 3, 63, 19
11, 483325, Note_on_c, 3, 65, 0
11, 483351, Note_on_c, 3, 65, 24
11, 483373, Note_on_c, 3, 63, 0
11, 483399, Note_on_c, 3, 63, 24
11, 483421, Note_on_c, 3, 65, 0
11, 483446, Note_on_c, 3, 65, 20
11, 483469, Note_on_c, 3, 63, 0
11, 483495, Note_on_c, 3, 63, 39
11, 483516, Note_on_c, 3, 65, 0
11, 483542, Note_on_c, 3, 65, 37
11, 483565, Note_on_c, 3, 63, 0
11, 483590, Note_on_c, 3, 63, 36
11, 483612, Note_on_c, 3, 65, 0
11, 483638, Note_on_c, 3, 65, 19
11, 483660, Note_on_c, 3, 63, 0
11, 483686, Note_on_c, 3, 63, 34
11, 483708, Note_on_c, 3, 65, 0
11, 483733, Note_on_c, 3, 65, 22
11, 483756, Note_on_c, 3, 63, 0
11, 483781, Note_on_c, 3, 63, 31
11, 483803, Note_on_c, 3, 65, 0
11, 483829, Note_on_c, 3, 65, 38
11, 483851, Note_on_c, 3, 63, 0
11, 483877, Note_on_c, 3, 63, 38
11, 483899, Note_on_c, 3, 65, 0
11, 483925, Note_on_c, 3, 65, 37
11, 483947, Note_on_c, 3, 63, 0
11, 483973, Note_on_c, 3, 63, 31
11, 483995, Note_on_c, 3, 65, 0
11, 484020, Note_on_c, 3, 65, 39
11, 484043, Note_on_c, 3, 63, 0
11, 484068, Note_on_c, 3, 63, 39
11, 484090, Note_on_c, 3, 65, 0
11, 484116, Note_on_c, 3, 65, 31
11, 484138, Note_on_c, 3, 63, 0
11, 484164, Note_on_c, 3, 63, 22
11, 484186, Note_on_c, 3, 65, 0
11, 484211, Note_on_c, 3, 65, 29
11, 484234, Note_on_c, 3, 63, 0
11, 484260, Note_on_c, 3, 63, 38
11, 484281, Note_on_c, 3, 65, 0
11, 484307, Note_on_c, 3, 65, 27
11, 484330, Note_on_c, 3, 63, 0
11, 484355, Note_on_c, 3, 63, 36
11, 484377, Note_on_c, 3, 65, 0
11, 484403, Note_on_c, 3, 65, 28
11, 484425, Note_on_c, 3, 63, 0
11, 484451, Note_on_c, 3, 63, 27
11, 484473, Note_on_c, 3, 65, 0
11, 484498, Note_on_c, 3, 65, 30
11, 484521, Note_on_c, 3, 63, 0
11, 484546, Note_on_c, 3, 63, 35
11, 484568, Note_on_c, 3, 65, 0
11, 484594, Note_on_c, 3, 65, 24
11, 484616, Note_on_c, 3, 63, 0
11, 484642, Note_on_c, 3, 63, 34
11, 484664, Note_on_c, 3, 65, 0
11, 484690, Note_on_c, 3, 65, 34
11, 484712, Note_on_c, 3, 63, 0
11, 484738, Note_on_c, 3, 63, 34
11, 484760, Note_on_c, 3, 65, 0
11, 484785, Note_on_c, 3, 65, 31
11, 484808, Note_on_c, 3, 63, 0
11, 484833, Note_on_c, 3, 63, 29
11, 484855, Note_on_c, 3, 65, 0
11, 484881, Note_on_c, 3, 65, 23
11, 484903, Note_on_c, 3, 63, 0
11, 484929, Note_on_c, 3, 63, 37
11, 484951, Note_on_c, 3, 65, 0
11, 484976, Note_on_c, 3, 65, 19
11, 484999, Note_on_c, 3, 63, 0
11, 485025, Note_on_c, 3, 63, 30
11, 485046, Note_on_c, 3, 65, 0
11, 485072, Note_on_c, 3, 65, 25
11, 485095, Note_on_c, 3, 63, 0
11, 485120, Note_on_c, 3, 63, 30
11, 485142, Note_on_c, 3, 65, 0
11, 485168, Note_on_c, 3, 65, 36
11, 485190, Note_on_c, 3, 63, 0
11, 485216, Note_on_c, 3, 63, 28
11, 485238, Note_on_c, 3, 65, 0
11, 485263, Note_on_c, 3, 65, 32
11, 485286, Note_on_c, 3, 63, 0
11, 485311, Note_on_c, 3, 63, 19
11, 485333, Note_on_c, 3, 65, 0
11, 485359, Note_on_c, 3, 65, 19
11, 485381, Note_on_c, 3, 63, 0
11, 485407, Note_on_c, 3, 63, 22
11, 485429, Note_on_c, 3, 65, 0
11, 485455, Note_on_c, 3, 65, 37
11, 485477, Note_on_c, 3, 63, 0
11, 485503, Note_on_c, 3, 63, 30
11, 485525, Note_on_c, 3, 65, 0
11, 485550, Note_on_c, 3, 65, 29
11, 485573, Note_on_c, 3, 63, 0
11, 485598, Note_on_c, 3, 63, 39
11, 485620, Note_on_c, 3, 65, 0
11, 485646, Note_on_c, 3, 65, 36
11, 485668, Note_on_c, 3, 63, 0
11, 485694, Note_on_c, 3, 63, 39
11, 485716, Note_on_c, 3, 65, 0
11, 485741, Note_on_c, 3, 65, 36
11, 485764, Note_on_c, 3, 63, 0
11, 485790, Note_on_c, 3, 63, 25
11, 485811, Note_on_c, 3, 65, 0
11, 485837, Note_on_c, 3, 65, 26
11, 485860, Note_on_c, 3, 63, 0
11, 485885, Note_on_c, 3, 63, 33
11, 485907, Note_on_c, 3, 65, 0
11, 485933, Note_on_c, 3, 65, 24
11, 485955, Note_on_c, 3, 63, 0
11, 485981, Note_on_c, 3, 63, 38
11, 486003, Note_on_c, 3, 65, 0
11, 486028, Note_on_c, 3, 65, 25
11, 486051, Note_on_c, 3, 63, 0
11, 486076, Note_on_c, 3, 63, 33
11, 486098, Note_on_c, 3, 65, 0
11, 486124, Note_on_c, 3, 65, 36
11, 486146, Note_on_c, 3, 63, 0
11, 486172, Note_on_c, 3, 63, 24
11, 486194, Note_on_c, 3, 65, 0
11, 486220, Note_on_c, 3, 65, 22
11, 486242, Note_on_c, 3, 63, 0
11, 486268, Note_on_c, 3, 63, 33
11, 486290, Note_on_c, 3, 65, 0
11, 486315, Note_on_c, 3, 65, 31
11, 486338, Note_on_c, 3, 63, 0
11, 486363, Note_on_c, 3, 63, 35
11, 486385, Note_on_c, 3, 65, 0
11, 486411, Note_on_c, 3, 65, 32
11, 486433, Note_on_c, 3, 63, 0
11, 486459, Note_on_c, 3, 63, 27
11, 486481, Note_on_c, 3, 65, 0
11, 486506, Note_on_c, 3, 65, 29
11, 486529, Note_on_c, 3, 63, 0
11, 486555, Note_on_c, 3, 63, 23
11, 486576, Note_on_c, 3, 65, 0
11, 486602, Note_on_c, 3, 65, 27
11, 486625, Note_on_c, 3, 63, 0
11, 486650, Note_on_c, 3, 63, 33
11, 486672, Note_on_c, 3, 65, 0
11, 486698, Note_on_c, 3, 65, 35
11, 486720, Note_on_c, 3, 63, 0
11, 486746, Note_on_c, 3, 63, 20
11, 486768, Note_on_c, 3, 65, 0
11, 486793, Note_on_c, 3, 65, 35
11, 486816, Note_on_c, 3, 63, 0
11, 486841, Note_on_c, 3, 63, 36
11, 486863, Note_on_c, 3, 65, 0
11, 486889, Note_on_c, 3, 65, 37
11, 486911, Note_on_c, 3, 63, 0
11, 486937, Note_on_c, 3, 63, 23
11, 486959, Note_on_c, 3, 65, 0
11, 486985, Note_on_c, 3, 65, 33
11, 487007, Note_on_c, 3, 63, 0
11, 487033, Note_on_c, 3, 63, 39
11, 487055, Note_on_c, 3, 65, 0
11, 487080, Note_on_c, 3, 65, 21
11, 487103, Note_on_c, 3, 63, 0
11, 487128, Note_on_c, 3, 63, 26
11, 487150, Note_on_c, 3, 65, 0
11, 487176, Note_on_c, 3, 65, 23
11, 487198, Note_on_c, 3, 63, 0
11, 487224, Note_on_c, 3, 63, 19
11, 487246, Note_on_c, 3, 65, 0
11, 487271, Note_on_c, 3, 65, 28
11, 487294, Note_on_c, 3, 63, 0
11, 487320, Note_on_c, 3, 63, 37
11, 487341, Note_on_c, 3, 65, 0
11, 487367, Note_on_c, 3, 65, 39
11, 487390, Note_on_c, 3, 63, 0
11, 487415, Note_on_c, 3, 63, 33
11, 487437, Note_on_c, 3, 65, 0
11, 487463, Note_on_c, 3, 65, 24
11, 487485, Note_on_c, 3, 63, 0
11, 487511, Note_on_c, 3, 63, 34
11, 487533, Note_on_c, 3, 65, 0
11, 487558, Note_on_c, 3, 65, 26
11, 487581, Note_on_c, 3, 63, 0
11, 487606, Note_on_c, 3, 63, 25
11, 487628, Note_on_c, 3, 65, 0
11, 487654, Note_on_c, 3, 65, 26
11, 487676, Note_on_c, 3, 63, 0
11, 487702, Note_on_c, 3, 63, 29
11, 487724, Note_on_c, 3, 65, 0
11, 487750, Note_on_c, 3, 65, 31
11, 487772, Note_on_c, 3, 63, 0
11, 487798, Note_on_c, 3, 63, 23
11, 487820, Note_on_c, 3, 65, 0
11, 487845, Note_on_c, 3, 65, 28
11, 487868, Note_on_c, 3, 63, 0
11, 487893, Note_on_c, 3, 63, 19
11, 487915, Note_on_c, 3, 65, 0
11, 487941, Note_on_c, 3, 65, 35
11, 487963, Note_on_c, 3, 63, 0
11, 487989, Note_on_c, 3, 63, 20
11, 488011, Note_on_c, 3, 65, 0
11, 488036, Note_on_c, 3, 65, 24
11, 488059, Note_on_c, 3, 63, 0
11, 488085, Note_on_c, 3, 63, 19
11, 488106, Note_on_c, 3, 65, 0
11, 488132, Note_on_c, 3, 65, 21
11, 488155, Note_on_c, 3, 63, 0
11, 488180, Note_on_c, 3, 63, 35
11, 488202, Note_on_c, 3, 65, 0
11, 488228, Note_on_c, 3, 65, 26
11, 488250, Note_on_c, 3, 63, 0
11, 488276, Note_on_c, 3, 63, 29
11, 488298, Note_on_c, 3, 65, 0
11, 488323, Note_on_c, 3, 65, 25
11, 488346, Note_on_c, 3, 63, 0
11, 488371, Note_on_c, 3, 63, 19
11, 488393, Note_on_c, 3, 65, 0
11, 488419, Note_on_c, 3, 65, 31
11, 488441, Note_on_c, 3, 63, 0
11, 488467, Note_on_c, 3, 63, 34
11, 488489, Note_on_c, 3, 65, 0
11, 488515, Note_on_c, 3, 65, 26
11, 488537, Note_on_c, 3, 63, 0
11, 488563, Note_on_c, 3, 63, 24
11, 488585, Note_on_c, 3, 65, 0
11, 488610, Note_on_c, 3, 65, 19
11, 488633, Note_on_c, 3, 63, 0
11, 488658, Note_on_c, 3, 63, 36
11, 488680, Note_on_c, 3, 65, 0
11, 488706, Note_on_c, 3, 65, 38
11, 488728, Note_on_c, 3, 63, 0
11, 488754, Note_on_c, 3, 63, 35
11, 488776, Note_on_c, 3, 65, 0
11, 488801, Note_on_c, 3, 65, 26
11, 488824, Note_on_c, 3, 63, 0
11, 488850, Note_on_c, 3, 63, 28
11, 488871, Note_on_c, 3, 65, 0
11, 488897, Note_on_c, 3, 65, 26
11, 488920, Note_on_c, 3, 63, 0
11, 488945, Note_on_c, 3, 63, 24
11, 488967, Note_on_c, 3, 65, 0
11, 488993, Note_on_c, 3, 65, 24
11, 489015, Note_on_c, 3, 63, 0
11, 489041, Note_on_c, 3, 63, 25
11, 489063, Note_on_c, 3, 65, 0
11, 489088, Note_on_c, 3, 65, 27
11, 489111, Note_on_c, 3, 63, 0
11, 489136, Note_on_c, 3, 63, 36
11, 489158, Note_on_c, 3, 65, 0
11, 489184, Note_on_c, 3, 65, 25
11, 489206, Note_on_c, 3, 63, 0
11, 489232, Note_on_c, 3, 63, 38
11, 489254, Note_on_c, 3, 65, 0
11, 489280, Note_on_c, 3, 65, 20
11, 489302, Note_on_c, 3, 63, 0
11, 489328, Note_on_c, 3, 63, 31
11, 489350, Note_on_c, 3, 65, 0
11, 489375, Note_on_c, 3, 65, 38
11, 489398, Note_on_c, 3, 63, 0
11, 489423, Note_on_c, 3, 63, 38
11, 489445, Note_on_c, 3, 65, 0
11, 489471, Note_on_c, 3, 65, 33
11, 489493, Note_on_c, 3, 63, 0
11, 489519, Note_on_c, 3, 63, 23
11, 489541, Note_on_c, 3, 65, 0
11, 489589, Note_on_c, 3, 63, 0
11, 489589, End_track
12, 0, Start_track
12, 0, Title_t, "Clarinetto basso"
12, 0, MIDI_port, 0
12, 0, Program_c, 3, 71
12, 5296, Note_on_c, 3, 56, 58
12, 6007, Note_on_c, 3, 55, 59
12, 6016, Note_on_c, 3, 56, 0
12, 6247, Note_on_c, 3, 55, 0
12, 6254, Note_on_c, 3, 55, 54
12, 6413, Note_on_c, 3, 55, 0
12, 6424, Note_on_c, 3, 54, 50
12, 6742, Note_on_c, 3, 53, 49
12, 6744, Note_on_c, 3, 54, 0
12, 7378, Note_on_c, 3, 52, 56
12, 7381, Note_on_c, 3, 53, 0
12, 7526, Note_on_c, 3, 51, 40
12, 7538, Note_on_c, 3, 52, 0
12, 7685, Note_on_c, 3, 51, 0
12, 7697, Note_on_c, 3, 50, 59
12, 7856, Note_on_c, 3, 50, 0
12, 7863, Note_on_c, 3, 49, 45
12, 8016, Note_on_c, 3, 48, 55
12, 8023, Note_on_c, 3, 49, 0
12, 8175, Note_on_c, 3, 48, 0
12, 8182, Note_on_c, 3, 47, 40
12, 8319, Note_on_c, 3, 46, 44
12, 8341, Note_on_c, 3, 47, 0
12, 8479, Note_on_c, 3, 46, 0
12, 8497, Note_on_c, 3, 45, 57
12, 8656, Note_on_c, 3, 45, 0
12, 8662, Note_on_c, 3, 44, 56
12, 10726, Note_on_c, 3, 45, 40
12, 10741, Note_on_c, 3, 44, 0
12, 10881, Note_on_c, 3, 46, 52
12, 10886, Note_on_c, 3, 45, 0
12, 11280, Note_on_c, 3, 46, 0
12, 11293, Note_on_c, 3, 45, 54
12, 11530, Control_c, 3, 11, 126
12, 11531, Note_on_c, 3, 44, 47
12, 11533, Note_on_c, 3, 45, 0
12, 11545, Control_c, 3, 11, 125
12, 11561, Control_c, 3, 11, 124
12, 11576, Control_c, 3, 11, 123
12, 11591, Control_c, 3, 11, 122
12, 11606, Control_c, 3, 11, 121
12, 11622, Control_c, 3, 11, 120
12, 11637, Control_c, 3, 11, 119
12, 11653, Control_c, 3, 11, 118
12, 11668, Control_c, 3, 11, 117
12, 11683, Control_c, 3, 11, 116
12, 11698, Control_c, 3, 11, 115
12, 11714, Control_c, 3, 11, 114
12, 11729, Control_c, 3, 11, 113
12, 11745, Control_c, 3, 11, 112
12, 11760, Control_c, 3, 11, 111
12, 11775, Control_c, 3, 11, 110
12, 11790, Control_c, 3, 11, 109
12, 11806, Control_c, 3, 11, 108
12, 11821, Control_c, 3, 11, 107
12, 11836, Control_c, 3, 11, 106
12, 11851, Control_c, 3, 11, 105
12, 11866, Control_c, 3, 11, 104
12, 11882, Control_c, 3, 11, 103
12, 11898, Control_c, 3, 11, 102
12, 11913, Control_c, 3, 11, 101
12, 11928, Control_c, 3, 11, 100
12, 11943, Control_c, 3, 11, 99
12, 11958, Control_c, 3, 11, 98
12, 11974, Control_c, 3, 11, 97
12, 11990, Control_c, 3, 11, 96
12, 12005, Control_c, 3, 11, 95
12, 12020, Control_c, 3, 11, 94
12, 12035, Control_c, 3, 11, 93
12, 12050, Control_c, 3, 11, 92
12, 12066, Control_c, 3, 11, 91
12, 12081, Control_c, 3, 11, 90
12, 12096, Control_c, 3, 11, 89
12, 12112, Control_c, 3, 11, 88
12, 12127, Control_c, 3, 11, 87
12, 12142, Control_c, 3, 11, 86
12, 12158, Control_c, 3, 11, 85
12, 12173, Control_c, 3, 11, 84
12, 12188, Control_c, 3, 11, 83
12, 12204, Control_c, 3, 11, 82
12, 12219, Control_c, 3, 11, 81
12, 12234, Control_c, 3, 11, 80
12, 12250, Control_c, 3, 11, 79
12, 12265, Control_c, 3, 11, 78
12, 12280, Control_c, 3, 11, 77
12, 12296, Control_c, 3, 11, 76
12, 12311, Control_c, 3, 11, 75
12, 12326, Control_c, 3, 11, 74
12, 12341, Control_c, 3, 11, 73
12, 12357, Control_c, 3, 11, 72
12, 12372, Control_c, 3, 11, 71
12, 12388, Control_c, 3, 11, 70
12, 12403, Control_c, 3, 11, 69
12, 12418, Control_c, 3, 11, 68
12, 12433, Control_c, 3, 11, 67
12, 12449, Control_c, 3, 11, 66
12, 12464, Control_c, 3, 11, 65
12, 14895, Control_c, 3, 11, 64
12, 14915, Control_c, 3, 11, 65
12, 14940, Control_c, 3, 11, 66
12, 14960, Control_c, 3, 11, 67
12, 14964, Control_c, 3, 11, 68
12, 14968, Control_c, 3, 11, 69
12, 14989, Control_c, 3, 11, 71
12, 15001, Control_c, 3, 11, 72
12, 15017, Control_c, 3, 11, 73
12, 15033, Control_c, 3, 11, 75
12, 15046, Control_c, 3, 11, 76
12, 15050, Control_c, 3, 11, 77
12, 15070, Control_c, 3, 11, 78
12, 15078, Control_c, 3, 11, 79
12, 15094, Control_c, 3, 11, 81
12, 15103, Control_c, 3, 11, 82
12, 15119, Control_c, 3, 11, 83
12, 15123, Control_c, 3, 11, 84
12, 15139, Control_c, 3, 11, 85
12, 15143, Control_c, 3, 11, 86
12, 15160, Control_c, 3, 11, 89
12, 15168, Control_c, 3, 11, 90
12, 15172, Control_c, 3, 11, 91
12, 15176, Control_c, 3, 11, 93
12, 15184, Control_c, 3, 11, 94
12, 15196, Control_c, 3, 11, 95
12, 15200, Control_c, 3, 11, 98
12, 15212, Control_c, 3, 11, 99
12, 15221, Control_c, 3, 11, 100
12, 15225, Control_c, 3, 11, 101
12, 15237, Control_c, 3, 11, 103
12, 15241, Control_c, 3, 11, 104
12, 15249, Control_c, 3, 11, 105
12, 15253, Control_c, 3, 11, 106
12, 15265, Control_c, 3, 11, 109
12, 15269, Control_c, 3, 11, 110
12, 15282, Control_c, 3, 11, 111
12, 15286, Control_c, 3, 11, 112
12, 15290, Control_c, 3, 11, 113
12, 15294, Control_c, 3, 11, 114
12, 15298, Control_c, 3, 11, 116
12, 15302, Control_c, 3, 11, 118
12, 15310, Control_c, 3, 11, 119
12, 15314, Control_c, 3, 11, 120
12, 15318, Control_c, 3, 11, 121
12, 15322, Control_c, 3, 11, 122
12, 15330, Control_c, 3, 11, 124
12, 15334, Control_c, 3, 11, 125
12, 15347, Note_on_c, 3, 44, 0
12, 15347, Control_c, 3, 11, 126
12, 15351, Control_c, 3, 11, 127
12, 15355, Control_c, 3, 11, 127
12, 15359, Control_c, 3, 11, 127
12, 15383, Note_on_c, 3, 43, 51
12, 15385, Note_on_c, 3, 51, 52
12, 15696, Note_on_c, 3, 50, 54
12, 15705, Note_on_c, 3, 51, 0
12, 15840, Note_on_c, 3, 49, 49
12, 15855, Note_on_c, 3, 50, 0
12, 16320, Note_on_c, 3, 49, 0
12, 16342, Note_on_c, 3, 48, 39
12, 16807, Note_on_c, 3, 42, 48
12, 16822, Note_on_c, 3, 48, 0
12, 16823, Note_on_c, 3, 43, 0
12, 16825, Note_on_c, 3, 47, 57
12, 17047, Note_on_c, 3, 42, 0
12, 17065, Note_on_c, 3, 47, 0
12, 24491, Note_on_c, 3, 56, 75
12, 24567, Note_on_c, 3, 58, 73
12, 24571, Note_on_c, 3, 56, 0
12, 24646, Note_on_c, 3, 58, 0
12, 24646, Note_on_c, 3, 56, 84
12, 24726, Note_on_c, 3, 56, 0
12, 24731, Note_on_c, 3, 58, 65
12, 24806, Note_on_c, 3, 56, 79
12, 24811, Note_on_c, 3, 58, 0
12, 24965, Note_on_c, 3, 56, 0
12, 26412, Note_on_c, 3, 56, 83
12, 26480, Note_on_c, 3, 58, 83
12, 26492, Note_on_c, 3, 56, 0
12, 26559, Note_on_c, 3, 58, 0
12, 26567, Note_on_c, 3, 56, 84
12, 26647, Note_on_c, 3, 56, 0
12, 26665, Note_on_c, 3, 58, 72
12, 26745, Note_on_c, 3, 58, 0
12, 26745, Note_on_c, 3, 56, 80
12, 26904, Note_on_c, 3, 56, 0
12, 27843, Note_on_c, 3, 56, 70
12, 27923, Note_on_c, 3, 56, 0
12, 27933, Note_on_c, 3, 58, 67
12, 28008, Note_on_c, 3, 56, 73
12, 28012, Note_on_c, 3, 58, 0
12, 28088, Note_on_c, 3, 56, 0
12, 28096, Note_on_c, 3, 58, 71
12, 28176, Note_on_c, 3, 58, 0
12, 28185, Note_on_c, 3, 56, 73
12, 28320, Note_on_c, 3, 56, 72
12, 28344, Note_on_c, 3, 56, 0
12, 28400, Note_on_c, 3, 56, 0
12, 28416, Note_on_c, 3, 58, 67
12, 28486, Note_on_c, 3, 56, 67
12, 28495, Note_on_c, 3, 58, 0
12, 28566, Note_on_c, 3, 56, 0
12, 28583, Note_on_c, 3, 58, 77
12, 28651, Note_on_c, 3, 56, 71
12, 28663, Note_on_c, 3, 58, 0
12, 28810, Note_on_c, 3, 56, 0
12, 29280, Note_on_c, 3, 69, 71
12, 29340, Note_on_c, 3, 69, 0
12, 29340, Note_on_c, 3, 71, 79
12, 29400, Note_on_c, 3, 71, 0
12, 29400, Note_on_c, 3, 70, 72
12, 29460, Note_on_c, 3, 70, 0
12, 29460, Note_on_c, 3, 69, 71
12, 29520, Note_on_c, 3, 69, 0
12, 29520, Note_on_c, 3, 68, 67
12, 29580, Note_on_c, 3, 68, 0
12, 29580, Note_on_c, 3, 67, 67
12, 29640, Note_on_c, 3, 67, 0
12, 29640, Note_on_c, 3, 66, 82
12, 29700, Note_on_c, 3, 66, 0
12, 29700, Note_on_c, 3, 65, 76
12, 29760, Note_on_c, 3, 65, 0
12, 29761, Note_on_c, 3, 64, 68
12, 30001, Note_on_c, 3, 64, 0
12, 31200, Note_on_c, 3, 69, 82
12, 31260, Note_on_c, 3, 69, 0
12, 31260, Note_on_c, 3, 71, 81
12, 31320, Note_on_c, 3, 71, 0
12, 31320, Note_on_c, 3, 70, 75
12, 31380, Note_on_c, 3, 70, 0
12, 31380, Note_on_c, 3, 69, 65
12, 31440, Note_on_c, 3, 69, 0
12, 31440, Note_on_c, 3, 68, 84
12, 31500, Note_on_c, 3, 68, 0
12, 31500, Note_on_c, 3, 67, 68
12, 31560, Note_on_c, 3, 67, 0
12, 31560, Note_on_c, 3, 66, 78
12, 31620, Note_on_c, 3, 66, 0
12, 31620, Note_on_c, 3, 65, 67
12, 31670, Note_on_c, 3, 65, 0
12, 31687, Note_on_c, 3, 65, 75
12, 31807, Note_on_c, 3, 65, 0
12, 32289, Note_on_c, 3, 38, 91
12, 32322, Note_on_c, 3, 40, 86
12, 32334, Note_on_c, 3, 38, 0
12, 32452, Note_on_c, 3, 40, 0
12, 32502, Note_on_c, 3, 40, 87
12, 32610, Note_on_c, 3, 38, 92
12, 32631, Note_on_c, 3, 40, 0
12, 32653, Note_on_c, 3, 40, 82
12, 32655, Note_on_c, 3, 38, 0
12, 32725, Note_on_c, 3, 40, 0
12, 32758, Note_on_c, 3, 40, 86
12, 32830, Note_on_c, 3, 40, 0
12, 32849, Note_on_c, 3, 40, 86
12, 32921, Note_on_c, 3, 40, 0
12, 32949, Note_on_c, 3, 40, 82
12, 33021, Note_on_c, 3, 40, 0
12, 33041, Note_on_c, 3, 40, 97
12, 33072, Note_on_c, 3, 40, 0
12, 33120, Note_on_c, 3, 40, 91
12, 33180, Note_on_c, 3, 40, 0
12, 33180, Note_on_c, 3, 43, 91
12, 33240, Note_on_c, 3, 50, 81
12, 33255, Note_on_c, 3, 43, 0
12, 33300, Note_on_c, 3, 54, 78
12, 33315, Note_on_c, 3, 50, 0
12, 33360, Note_on_c, 3, 52, 79
12, 33375, Note_on_c, 3, 54, 0
12, 33420, Note_on_c, 3, 58, 98
12, 33435, Note_on_c, 3, 52, 0
12, 33480, Note_on_c, 3, 50, 96
12, 33495, Note_on_c, 3, 58, 0
12, 33540, Note_on_c, 3, 43, 92
12, 33555, Note_on_c, 3, 50, 0
12, 33615, Note_on_c, 3, 43, 0
12, 33615, Note_on_c, 3, 40, 92
12, 33810, Note_on_c, 3, 38, 91
12, 33825, Note_on_c, 3, 40, 0
12, 33848, Note_on_c, 3, 40, 78
12, 33855, Note_on_c, 3, 38, 0
12, 34140, Note_on_c, 3, 43, 92
12, 34148, Note_on_c, 3, 40, 0
12, 34200, Note_on_c, 3, 50, 86
12, 34215, Note_on_c, 3, 43, 0
12, 34260, Note_on_c, 3, 54, 96
12, 34275, Note_on_c, 3, 50, 0
12, 34320, Note_on_c, 3, 52, 88
12, 34335, Note_on_c, 3, 54, 0
12, 34380, Note_on_c, 3, 58, 98
12, 34395, Note_on_c, 3, 52, 0
12, 34440, Note_on_c, 3, 50, 79
12, 34455, Note_on_c, 3, 58, 0
12, 34500, Note_on_c, 3, 43, 80
12, 34515, Note_on_c, 3, 50, 0
12, 34560, Note_on_c, 3, 40, 82
12, 34575, Note_on_c, 3, 43, 0
12, 34620, Note_on_c, 3, 43, 93
12, 34635, Note_on_c, 3, 40, 0
12, 34680, Note_on_c, 3, 50, 89
12, 34695, Note_on_c, 3, 43, 0
12, 34740, Note_on_c, 3, 54, 93
12, 34755, Note_on_c, 3, 50, 0
12, 34800, Note_on_c, 3, 52, 82
12, 34815, Note_on_c, 3, 54, 0
12, 34860, Note_on_c, 3, 58, 89
12, 34875, Note_on_c, 3, 52, 0
12, 34920, Note_on_c, 3, 50, 90
12, 34935, Note_on_c, 3, 58, 0
12, 34980, Note_on_c, 3, 43, 83
12, 34995, Note_on_c, 3, 50, 0
12, 35055, Note_on_c, 3, 43, 0
12, 35062, Note_on_c, 3, 39, 78
12, 35130, Note_on_c, 3, 38, 87
12, 35152, Note_on_c, 3, 39, 0
12, 35175, Note_on_c, 3, 38, 0
12, 35183, Note_on_c, 3, 39, 89
12, 35273, Note_on_c, 3, 39, 0
12, 35293, Note_on_c, 3, 39, 89
12, 35383, Note_on_c, 3, 39, 0
12, 35425, Note_on_c, 3, 39, 80
12, 35515, Note_on_c, 3, 39, 0
12, 42210, Note_on_c, 3, 62, 91
12, 42255, Note_on_c, 3, 62, 0
12, 42257, Note_on_c, 3, 58, 93
12, 42401, Note_on_c, 3, 48, 82
12, 42416, Note_on_c, 3, 58, 0
12, 42530, Note_on_c, 3, 62, 85
12, 42531, Note_on_c, 3, 48, 0
12, 42572, Note_on_c, 3, 58, 95
12, 42575, Note_on_c, 3, 62, 0
12, 42730, Note_on_c, 3, 48, 85
12, 42731, Note_on_c, 3, 58, 0
12, 42849, Note_on_c, 3, 62, 78
12, 42859, Note_on_c, 3, 48, 0
12, 42892, Note_on_c, 3, 58, 98
12, 42894, Note_on_c, 3, 62, 0
12, 43052, Note_on_c, 3, 58, 0
12, 43057, Note_on_c, 3, 48, 78
12, 43170, Note_on_c, 3, 62, 93
12, 43186, Note_on_c, 3, 48, 0
12, 43215, Note_on_c, 3, 62, 0
12, 43216, Note_on_c, 3, 58, 94
12, 43375, Note_on_c, 3, 58, 0
12, 43375, Note_on_c, 3, 48, 84
12, 43490, Note_on_c, 3, 62, 95
12, 43505, Note_on_c, 3, 48, 0
12, 43521, Note_on_c, 3, 58, 87
12, 43535, Note_on_c, 3, 62, 0
12, 43680, Note_on_c, 3, 58, 0
12, 43696, Note_on_c, 3, 48, 87
12, 43809, Note_on_c, 3, 62, 98
12, 43825, Note_on_c, 3, 48, 0
12, 43843, Note_on_c, 3, 58, 92
12, 43854, Note_on_c, 3, 62, 0
12, 44003, Note_on_c, 3, 58, 0
12, 44005, Note_on_c, 3, 48, 81
12, 44130, Note_on_c, 3, 62, 89
12, 44134, Note_on_c, 3, 48, 0
12, 44175, Note_on_c, 3, 62, 0
12, 44175, Note_on_c, 3, 58, 92
12, 44334, Note_on_c, 3, 58, 0
12, 44340, Note_on_c, 3, 48, 87
12, 44450, Note_on_c, 3, 62, 87
12, 44470, Note_on_c, 3, 48, 0
12, 44492, Note_on_c, 3, 58, 78
12, 44495, Note_on_c, 3, 62, 0
12, 44651, Note_on_c, 3, 58, 0
12, 44657, Note_on_c, 3, 48, 94
12, 44769, Note_on_c, 3, 62, 85
12, 44786, Note_on_c, 3, 48, 0
12, 44809, Note_on_c, 3, 58, 78
12, 44814, Note_on_c, 3, 62, 0
12, 44969, Note_on_c, 3, 58, 0
12, 44971, Note_on_c, 3, 48, 90
12, 45100, Note_on_c, 3, 48, 0
12, 46050, Note_on_c, 3, 62, 87
12, 46093, Note_on_c, 3, 58, 95
12, 46095, Note_on_c, 3, 62, 0
12, 46252, Note_on_c, 3, 58, 0
12, 46262, Note_on_c, 3, 48, 92
12, 46370, Note_on_c, 3, 62, 96
12, 46392, Note_on_c, 3, 48, 0
12, 46415, Note_on_c, 3, 62, 0
12, 46423, Note_on_c, 3, 58, 90
12, 46582, Note_on_c, 3, 58, 0
12, 46585, Note_on_c, 3, 48, 81
12, 46689, Note_on_c, 3, 62, 91
12, 46714, Note_on_c, 3, 48, 0
12, 46726, Note_on_c, 3, 58, 79
12, 46734, Note_on_c, 3, 62, 0
12, 46886, Note_on_c, 3, 58, 0
12, 46892, Note_on_c, 3, 48, 78
12, 47021, Note_on_c, 3, 48, 0
12, 64560, Note_on_c, 3, 63, 92
12, 64575, Note_on_c, 3, 63, 0
12, 64593, Note_on_c, 3, 62, 84
12, 64608, Note_on_c, 3, 62, 0
12, 64628, Note_on_c, 3, 61, 84
12, 64643, Note_on_c, 3, 61, 0
12, 64662, Note_on_c, 3, 60, 92
12, 64677, Note_on_c, 3, 60, 0
12, 64696, Note_on_c, 3, 59, 80
12, 64711, Note_on_c, 3, 59, 0
12, 64731, Note_on_c, 3, 58, 91
12, 64746, Note_on_c, 3, 58, 0
12, 64765, Note_on_c, 3, 57, 79
12, 64780, Note_on_c, 3, 57, 0
12, 64821, Note_on_c, 3, 56, 90
12, 64916, Note_on_c, 3, 56, 0
12, 67329, Note_on_c, 3, 46, 70
12, 67359, Note_on_c, 3, 46, 0
12, 67384, Note_on_c, 3, 49, 79
12, 67465, Note_on_c, 3, 49, 0
12, 67490, Note_on_c, 3, 46, 75
12, 67520, Note_on_c, 3, 46, 0
12, 67532, Note_on_c, 3, 49, 77
12, 67612, Note_on_c, 3, 49, 0
12, 67920, Note_on_c, 3, 49, 68
12, 67980, Note_on_c, 3, 49, 0
12, 67980, Note_on_c, 3, 51, 83
12, 68040, Note_on_c, 3, 51, 0
12, 68040, Note_on_c, 3, 58, 70
12, 68100, Note_on_c, 3, 58, 0
12, 68100, Note_on_c, 3, 63, 71
12, 68160, Note_on_c, 3, 63, 0
12, 68160, Note_on_c, 3, 61, 71
12, 68220, Note_on_c, 3, 61, 0
12, 68220, Note_on_c, 3, 67, 68
12, 68280, Note_on_c, 3, 67, 0
12, 68280, Note_on_c, 3, 58, 80
12, 68340, Note_on_c, 3, 58, 0
12, 68340, Note_on_c, 3, 51, 80
12, 68400, Note_on_c, 3, 51, 0
12, 68424, Note_on_c, 3, 49, 73
12, 68664, Note_on_c, 3, 49, 0
12, 68769, Note_on_c, 3, 46, 76
12, 68799, Note_on_c, 3, 46, 0
12, 68823, Note_on_c, 3, 49, 66
12, 68904, Note_on_c, 3, 49, 0
12, 68963, Note_on_c, 3, 49, 81
12, 69043, Note_on_c, 3, 49, 0
12, 69143, Note_on_c, 3, 49, 69
12, 69259, Note_on_c, 3, 49, 72
12, 69263, Note_on_c, 3, 49, 0
12, 69369, Note_on_c, 3, 49, 66
12, 69379, Note_on_c, 3, 49, 0
12, 69487, Note_on_c, 3, 49, 70
12, 69489, Note_on_c, 3, 49, 0
12, 69600, Note_on_c, 3, 49, 84
12, 69607, Note_on_c, 3, 49, 0
12, 69660, Note_on_c, 3, 49, 0
12, 69660, Note_on_c, 3, 51, 78
12, 69720, Note_on_c, 3, 51, 0
12, 69720, Note_on_c, 3, 58, 84
12, 69780, Note_on_c, 3, 58, 0
12, 69780, Note_on_c, 3, 63, 66
12, 69840, Note_on_c, 3, 63, 0
12, 69840, Note_on_c, 3, 61, 73
12, 69900, Note_on_c, 3, 61, 0
12, 69900, Note_on_c, 3, 67, 67
12, 69960, Note_on_c, 3, 67, 0
12, 69960, Note_on_c, 3, 58, 70
12, 70020, Note_on_c, 3, 58, 0
12, 70020, Note_on_c, 3, 51, 83
12, 70080, Note_on_c, 3, 51, 0
12, 70080, Note_on_c, 3, 49, 82
12, 70140, Note_on_c, 3, 49, 0
12, 70140, Note_on_c, 3, 51, 70
12, 70200, Note_on_c, 3, 51, 0
12, 70200, Note_on_c, 3, 58, 67
12, 70260, Note_on_c, 3, 58, 0
12, 70260, Note_on_c, 3, 63, 75
12, 70320, Note_on_c, 3, 63, 0
12, 70320, Note_on_c, 3, 61, 68
12, 70380, Note_on_c, 3, 61, 0
12, 70380, Note_on_c, 3, 67, 72
12, 70440, Note_on_c, 3, 67, 0
12, 70440, Note_on_c, 3, 58, 84
12, 70500, Note_on_c, 3, 58, 0
12, 70500, Note_on_c, 3, 51, 85
12, 70560, Note_on_c, 3, 51, 0
12, 70573, Note_on_c, 3, 49, 74
12, 70800, Note_on_c, 3, 49, 65
12, 70813, Note_on_c, 3, 49, 0
12, 70860, Note_on_c, 3, 49, 0
12, 70860, Note_on_c, 3, 51, 77
12, 70920, Note_on_c, 3, 51, 0
12, 70920, Note_on_c, 3, 58, 82
12, 70980, Note_on_c, 3, 58, 0
12, 70980, Note_on_c, 3, 63, 67
12, 71040, Note_on_c, 3, 63, 0
12, 71040, Note_on_c, 3, 61, 67
12, 71100, Note_on_c, 3, 61, 0
12, 71100, Note_on_c, 3, 67, 68
12, 71160, Note_on_c, 3, 67, 0
12, 71160, Note_on_c, 3, 58, 78
12, 71220, Note_on_c, 3, 58, 0
12, 71220, Note_on_c, 3, 51, 82
12, 71280, Note_on_c, 3, 51, 0
12, 71288, Note_on_c, 3, 49, 83
12, 71528, Note_on_c, 3, 49, 0
12, 79040, Note_on_c, 3, 53, 80
12, 79092, Note_on_c, 3, 53, 0
12, 79093, Note_on_c, 3, 58, 66
12, 79146, Note_on_c, 3, 58, 0
12, 79146, Note_on_c, 3, 48, 69
12, 79199, Note_on_c, 3, 48, 0
12, 79223, Note_on_c, 3, 42, 76
12, 84023, Note_on_c, 3, 42, 0
12, 194423, Note_on_c, 3, 44, 72
12, 198256, Note_on_c, 3, 44, 69
12, 198263, Note_on_c, 3, 44, 0
12, 205936, Note_on_c, 3, 44, 0
12, 205941, Note_on_c, 3, 39, 84
12, 206036, Note_on_c, 3, 39, 0
12, 206160, Note_on_c, 3, 46, 67
12, 206255, Note_on_c, 3, 46, 0
12, 207129, Note_on_c, 3, 46, 69
12, 207224, Note_on_c, 3, 46, 0
12, 207361, Note_on_c, 3, 39, 78
12, 207456, Note_on_c, 3, 39, 0
12, 207621, Note_on_c, 3, 46, 80
12, 207716, Note_on_c, 3, 46, 0
12, 208562, Note_on_c, 3, 46, 66
12, 208657, Note_on_c, 3, 46, 0
12, 208801, Note_on_c, 3, 39, 66
12, 208896, Note_on_c, 3, 39, 0
12, 209040, Note_on_c, 3, 46, 78
12, 209135, Note_on_c, 3, 46, 0
12, 210003, Note_on_c, 3, 46, 66
12, 210098, Note_on_c, 3, 46, 0
12, 210241, Note_on_c, 3, 39, 80
12, 210336, Note_on_c, 3, 39, 0
12, 210483, Note_on_c, 3, 46, 85
12, 210578, Note_on_c, 3, 46, 0
12, 211447, Note_on_c, 3, 46, 77
12, 211542, Note_on_c, 3, 46, 0
12, 213846, Note_on_c, 3, 62, 101
12, 213917, Note_on_c, 3, 62, 0
12, 214338, Note_on_c, 3, 64, 103
12, 214409, Note_on_c, 3, 64, 0
12, 215772, Note_on_c, 3, 62, 90
12, 215843, Note_on_c, 3, 62, 0
12, 216482, Note_on_c, 3, 63, 101
12, 216553, Note_on_c, 3, 63, 0
12, 217445, Note_on_c, 3, 62, 88
12, 217516, Note_on_c, 3, 62, 0
12, 218652, Note_on_c, 3, 62, 94
12, 218723, Note_on_c, 3, 62, 0
12, 238104, Note_on_c, 3, 69, 94
12, 238180, Note_on_c, 3, 68, 85
12, 238184, Note_on_c, 3, 69, 0
12, 238244, Note_on_c, 3, 67, 94
12, 238259, Note_on_c, 3, 68, 0
12, 238324, Note_on_c, 3, 67, 0
12, 238333, Note_on_c, 3, 66, 102
12, 238413, Note_on_c, 3, 66, 0
12, 238423, Note_on_c, 3, 65, 88
12, 238500, Note_on_c, 3, 64, 96
12, 238502, Note_on_c, 3, 65, 0
12, 238567, Note_on_c, 3, 63, 100
12, 238580, Note_on_c, 3, 64, 0
12, 238687, Note_on_c, 3, 63, 0
12, 239767, Note_on_c, 3, 41, 125
12, 240247, Note_on_c, 3, 41, 0
12, 240251, Note_on_c, 3, 43, 123
12, 240731, Note_on_c, 3, 43, 0
12, 241700, Note_on_c, 3, 41, 127
12, 242171, Note_on_c, 3, 43, 124
12, 242180, Note_on_c, 3, 41, 0
12, 242411, Note_on_c, 3, 43, 0
12, 243608, Note_on_c, 3, 41, 116
12, 244088, Note_on_c, 3, 41, 0
12, 244101, Note_on_c, 3, 43, 127
12, 244581, Note_on_c, 3, 43, 0
12, 245521, Note_on_c, 3, 41, 127
12, 246001, Note_on_c, 3, 41, 0
12, 246025, Note_on_c, 3, 43, 126
12, 246265, Note_on_c, 3, 43, 0
12, 247452, Note_on_c, 3, 41, 123
12, 247929, Note_on_c, 3, 43, 126
12, 247932, Note_on_c, 3, 41, 0
12, 248409, Note_on_c, 3, 43, 0
12, 249361, Note_on_c, 3, 41, 127
12, 249841, Note_on_c, 3, 41, 0
12, 249863, Note_on_c, 3, 43, 116
12, 250103, Note_on_c, 3, 43, 0
12, 262690, Note_on_c, 3, 48, 84
12, 263410, Note_on_c, 3, 48, 0
12, 263761, Note_on_c, 3, 48, 92
12, 264841, Note_on_c, 3, 48, 0
12, 265579, Note_on_c, 3, 48, 88
12, 266299, Note_on_c, 3, 48, 0
12, 266644, Note_on_c, 3, 48, 84
12, 267364, Note_on_c, 3, 48, 0
12, 285009, Note_on_c, 3, 48, 86
12, 285729, Note_on_c, 3, 48, 0
12, 286092, Note_on_c, 3, 48, 88
12, 287172, Note_on_c, 3, 48, 0
12, 287901, Note_on_c, 3, 48, 81
12, 288621, Note_on_c, 3, 48, 0
12, 288973, Note_on_c, 3, 48, 94
12, 289333, Note_on_c, 3, 48, 0
12, 324732, Note_on_c, 3, 57, 105
12, 325452, Note_on_c, 3, 57, 0
12, 325453, Note_on_c, 3, 64, 123
12, 326173, Note_on_c, 3, 64, 0
12, 326185, Note_on_c, 3, 59, 107
12, 326665, Note_on_c, 3, 59, 0
12, 328342, Note_on_c, 3, 56, 108
12, 328413, Note_on_c, 3, 56, 0
12, 361923, Note_on_c, 3, 63, 53
12, 362403, Note_on_c, 3, 63, 0
12, 362409, Note_on_c, 3, 60, 54
12, 362889, Note_on_c, 3, 60, 0
12, 362892, Note_on_c, 3, 63, 39
12, 363372, Note_on_c, 3, 63, 0
12, 363376, Note_on_c, 3, 60, 54
12, 363856, Note_on_c, 3, 60, 0
12, 363856, Note_on_c, 3, 58, 53
12, 364336, Note_on_c, 3, 58, 0
12, 364337, Note_on_c, 3, 63, 43
12, 364815, Note_on_c, 3, 65, 45
12, 364817, Note_on_c, 3, 63, 0
12, 365286, Note_on_c, 3, 63, 39
12, 365295, Note_on_c, 3, 65, 0
12, 365765, Note_on_c, 3, 60, 53
12, 365766, Note_on_c, 3, 63, 0
12, 366180, Note_on_c, 3, 65, 50
12, 366180, Note_on_c, 3, 65, 50
12, 366185, Note_on_c, 3, 60, 0
12, 366254, Note_on_c, 3, 63, 39
12, 366270, Note_on_c, 3, 65, 0
12, 366270, Note_on_c, 3, 65, 0
12, 366727, Note_on_c, 3, 60, 44
12, 366734, Note_on_c, 3, 63, 0
12, 367207, Note_on_c, 3, 60, 0
12, 367214, Note_on_c, 3, 58, 39
12, 367694, Note_on_c, 3, 58, 0
12, 367702, Note_on_c, 3, 53, 43
12, 368177, Note_on_c, 3, 58, 55
12, 368182, Note_on_c, 3, 53, 0
12, 368641, Note_on_c, 3, 60, 47
12, 368657, Note_on_c, 3, 58, 0
12, 369000, Note_on_c, 3, 56, 54
12, 369000, Note_on_c, 3, 56, 54
12, 369001, Note_on_c, 3, 60, 0
12, 369060, Note_on_c, 3, 60, 52
12, 369060, Note_on_c, 3, 60, 52
12, 369090, Note_on_c, 3, 56, 0
12, 369090, Note_on_c, 3, 56, 0
12, 369145, Note_on_c, 3, 56, 48
12, 369150, Note_on_c, 3, 60, 0
12, 369150, Note_on_c, 3, 60, 0
12, 369621, Note_on_c, 3, 53, 39
12, 369625, Note_on_c, 3, 56, 0
12, 370575, Note_on_c, 3, 58, 48
12, 370581, Note_on_c, 3, 53, 0
12, 371042, Note_on_c, 3, 63, 46
12, 371055, Note_on_c, 3, 58, 0
12, 371880, Note_on_c, 3, 61, 53
12, 371882, Note_on_c, 3, 63, 0
12, 371940, Note_on_c, 3, 65, 59
12, 371970, Note_on_c, 3, 61, 0
12, 372023, Note_on_c, 3, 61, 46
12, 372030, Note_on_c, 3, 65, 0
12, 372503, Note_on_c, 3, 61, 0
12, 372505, Note_on_c, 3, 60, 54
12, 373944, Note_on_c, 3, 58, 55
12, 373945, Note_on_c, 3, 60, 0
12, 374340, Note_on_c, 3, 63, 40
12, 374364, Note_on_c, 3, 58, 0
12, 374409, Note_on_c, 3, 60, 46
12, 374430, Note_on_c, 3, 63, 0
12, 374887, Note_on_c, 3, 56, 50
12, 374889, Note_on_c, 3, 60, 0
12, 375365, Note_on_c, 3, 53, 45
12, 375367, Note_on_c, 3, 56, 0
12, 376325, Note_on_c, 3, 53, 0
12, 376333, Note_on_c, 3, 60, 53
12, 376740, Note_on_c, 3, 63, 42
12, 376753, Note_on_c, 3, 60, 0
12, 376825, Note_on_c, 3, 58, 58
12, 376830, Note_on_c, 3, 63, 0
12, 377220, Note_on_c, 3, 60, 52
12, 377245, Note_on_c, 3, 58, 0
12, 377303, Note_on_c, 3, 56, 39
12, 377310, Note_on_c, 3, 60, 0
12, 377782, Note_on_c, 3, 53, 45
12, 377783, Note_on_c, 3, 56, 0
12, 378742, Note_on_c, 3, 53, 0
12, 379442, Note_on_c, 3, 48, 72
12, 379451, Note_on_c, 3, 41, 72
12, 379921, Note_on_c, 3, 42, 84
12, 379922, Note_on_c, 3, 48, 0
12, 379928, Note_on_c, 3, 49, 75
12, 379931, Note_on_c, 3, 41, 0
12, 380401, Note_on_c, 3, 42, 0
12, 380405, Note_on_c, 3, 51, 70
12, 380408, Note_on_c, 3, 49, 0
12, 380417, Note_on_c, 3, 44, 68
12, 380645, Note_on_c, 3, 51, 0
12, 380657, Note_on_c, 3, 44, 0
12, 381374, Note_on_c, 3, 41, 75
12, 381376, Note_on_c, 3, 48, 74
12, 381845, Note_on_c, 3, 42, 85
12, 381846, Note_on_c, 3, 49, 70
12, 381854, Note_on_c, 3, 41, 0
12, 381856, Note_on_c, 3, 48, 0
12, 382325, Note_on_c, 3, 42, 0
12, 382326, Note_on_c, 3, 49, 0
12, 382330, Note_on_c, 3, 51, 72
12, 382344, Note_on_c, 3, 44, 83
12, 382570, Note_on_c, 3, 51, 0
12, 382584, Note_on_c, 3, 44, 0
12, 383298, Note_on_c, 3, 41, 81
12, 383304, Note_on_c, 3, 48, 71
12, 383767, Note_on_c, 3, 42, 81
12, 383778, Note_on_c, 3, 41, 0
12, 383780, Note_on_c, 3, 49, 65
12, 383784, Note_on_c, 3, 48, 0
12, 384247, Note_on_c, 3, 42, 0
12, 384247, Note_on_c, 3, 44, 85
12, 384260, Note_on_c, 3, 49, 0
12, 384261, Note_on_c, 3, 51, 83
12, 384487, Note_on_c, 3, 44, 0
12, 384501, Note_on_c, 3, 51, 0
12, 387124, Note_on_c, 3, 41, 66
12, 387143, Note_on_c, 3, 48, 84
12, 387604, Note_on_c, 3, 41, 0
12, 387613, Note_on_c, 3, 49, 72
12, 387623, Note_on_c, 3, 48, 0
12, 387625, Note_on_c, 3, 42, 71
12, 388093, Note_on_c, 3, 49, 0
12, 388094, Note_on_c, 3, 44, 68
12, 388097, Note_on_c, 3, 51, 79
12, 388105, Note_on_c, 3, 42, 0
12, 388334, Note_on_c, 3, 44, 0
12, 388337, Note_on_c, 3, 51, 0
12, 389045, Note_on_c, 3, 41, 73
12, 389063, Note_on_c, 3, 48, 68
12, 389525, Note_on_c, 3, 41, 0
12, 389531, Note_on_c, 3, 49, 75
12, 389543, Note_on_c, 3, 48, 0
12, 389543, Note_on_c, 3, 42, 75
12, 390011, Note_on_c, 3, 49, 0
12, 390014, Note_on_c, 3, 44, 70
12, 390023, Note_on_c, 3, 42, 0
12, 390025, Note_on_c, 3, 51, 76
12, 390254, Note_on_c, 3, 44, 0
12, 390265, Note_on_c, 3, 51, 0
12, 394322, Note_on_c, 3, 48, 85
12, 394339, Note_on_c, 3, 41, 65
12, 394801, Note_on_c, 3, 42, 67
12, 394802, Note_on_c, 3, 48, 0
12, 394819, Note_on_c, 3, 41, 0
12, 394825, Note_on_c, 3, 49, 67
12, 395281, Note_on_c, 3, 42, 0
12, 395295, Note_on_c, 3, 44, 66
12, 395304, Note_on_c, 3, 51, 82
12, 395305, Note_on_c, 3, 49, 0
12, 395535, Note_on_c, 3, 44, 0
12, 395544, Note_on_c, 3, 51, 0
12, 396258, Note_on_c, 3, 48, 74
12, 396260, Note_on_c, 3, 41, 68
12, 396721, Note_on_c, 3, 49, 69
12, 396732, Note_on_c, 3, 42, 78
12, 396738, Note_on_c, 3, 48, 0
12, 396740, Note_on_c, 3, 41, 0
12, 397201, Note_on_c, 3, 49, 0
12, 397208, Note_on_c, 3, 51, 85
12, 397209, Note_on_c, 3, 44, 75
12, 397212, Note_on_c, 3, 42, 0
12, 397448, Note_on_c, 3, 51, 0
12, 397449, Note_on_c, 3, 44, 0
12, 398163, Note_on_c, 3, 41, 75
12, 398164, Note_on_c, 3, 48, 83
12, 398643, Note_on_c, 3, 41, 0
12, 398644, Note_on_c, 3, 48, 0
12, 398651, Note_on_c, 3, 49, 74
12, 398657, Note_on_c, 3, 42, 85
12, 399125, Note_on_c, 3, 44, 67
12, 399131, Note_on_c, 3, 49, 0
12, 399133, Note_on_c, 3, 51, 65
12, 399137, Note_on_c, 3, 42, 0
12, 399365, Note_on_c, 3, 44, 0
12, 399373, Note_on_c, 3, 51, 0
12, 400082, Note_on_c, 3, 41, 70
12, 400097, Note_on_c, 3, 48, 70
12, 400562, Note_on_c, 3, 41, 0
12, 400562, Note_on_c, 3, 42, 65
12, 400576, Note_on_c, 3, 49, 84
12, 400577, Note_on_c, 3, 48, 0
12, 401042, Note_on_c, 3, 42, 0
12, 401056, Note_on_c, 3, 49, 0
12, 401057, Note_on_c, 3, 51, 66
12, 401065, Note_on_c, 3, 44, 74
12, 401297, Note_on_c, 3, 51, 0
12, 401305, Note_on_c, 3, 44, 0
12, 402005, Note_on_c, 3, 48, 67
12, 402020, Note_on_c, 3, 41, 66
12, 402481, Note_on_c, 3, 42, 85
12, 402483, Note_on_c, 3, 49, 72
12, 402485, Note_on_c, 3, 48, 0
12, 402500, Note_on_c, 3, 41, 0
12, 402961, Note_on_c, 3, 42, 0
12, 402963, Note_on_c, 3, 49, 0
12, 402969, Note_on_c, 3, 44, 84
12, 402971, Note_on_c, 3, 51, 82
12, 403209, Note_on_c, 3, 44, 0
12, 403211, Note_on_c, 3, 51, 0
12, 403938, Note_on_c, 3, 48, 68
12, 403941, Note_on_c, 3, 41, 85
12, 404404, Note_on_c, 3, 42, 78
12, 404414, Note_on_c, 3, 49, 69
12, 404418, Note_on_c, 3, 48, 0
12, 404421, Note_on_c, 3, 41, 0
12, 404884, Note_on_c, 3, 42, 0
12, 404894, Note_on_c, 3, 49, 0
12, 404900, Note_on_c, 3, 44, 82
12, 404902, Note_on_c, 3, 51, 85
12, 405140, Note_on_c, 3, 44, 0
12, 405142, Note_on_c, 3, 51, 0
12, 405849, Note_on_c, 3, 48, 76
12, 405854, Note_on_c, 3, 41, 77
12, 406328, Note_on_c, 3, 49, 84
12, 406329, Note_on_c, 3, 48, 0
12, 406329, Note_on_c, 3, 42, 83
12, 406334, Note_on_c, 3, 41, 0
12, 406808, Note_on_c, 3, 49, 0
12, 406809, Note_on_c, 3, 42, 0
12, 406811, Note_on_c, 3, 44, 78
12, 406825, Note_on_c, 3, 51, 66
12, 407051, Note_on_c, 3, 44, 0
12, 407065, Note_on_c, 3, 51, 0
12, 407767, Note_on_c, 3, 48, 75
12, 407768, Note_on_c, 3, 41, 69
12, 408242, Note_on_c, 3, 49, 66
12, 408247, Note_on_c, 3, 48, 0
12, 408248, Note_on_c, 3, 41, 0
12, 408260, Note_on_c, 3, 42, 66
12, 408722, Note_on_c, 3, 49, 0
12, 408725, Note_on_c, 3, 51, 74
12, 408729, Note_on_c, 3, 44, 72
12, 408740, Note_on_c, 3, 42, 0
12, 408965, Note_on_c, 3, 51, 0
12, 408969, Note_on_c, 3, 44, 0
12, 409696, Note_on_c, 3, 41, 77
12, 409703, Note_on_c, 3, 48, 84
12, 410161, Note_on_c, 3, 49, 66
12, 410174, Note_on_c, 3, 42, 76
12, 410176, Note_on_c, 3, 41, 0
12, 410183, Note_on_c, 3, 48, 0
12, 410641, Note_on_c, 3, 49, 0
12, 410649, Note_on_c, 3, 44, 77
12, 410652, Note_on_c, 3, 51, 65
12, 410654, Note_on_c, 3, 42, 0
12, 410889, Note_on_c, 3, 44, 0
12, 410892, Note_on_c, 3, 51, 0
12, 411603, Note_on_c, 3, 41, 77
12, 411622, Note_on_c, 3, 48, 80
12, 412080, Note_on_c, 3, 42, 72
12, 412083, Note_on_c, 3, 41, 0
12, 412088, Note_on_c, 3, 49, 76
12, 412102, Note_on_c, 3, 48, 0
12, 412560, Note_on_c, 3, 42, 0
12, 412568, Note_on_c, 3, 49, 0
12, 412574, Note_on_c, 3, 51, 82
12, 412584, Note_on_c, 3, 44, 75
12, 412814, Note_on_c, 3, 51, 0
12, 412824, Note_on_c, 3, 44, 0
12, 413543, Note_on_c, 3, 41, 84
12, 413543, Note_on_c, 3, 48, 80
12, 414005, Note_on_c, 3, 49, 74
12, 414010, Note_on_c, 3, 42, 73
12, 414023, Note_on_c, 3, 41, 0
12, 414023, Note_on_c, 3, 48, 0
12, 414484, Note_on_c, 3, 51, 66
12, 414485, Note_on_c, 3, 49, 0
12, 414488, Note_on_c, 3, 44, 69
12, 414490, Note_on_c, 3, 42, 0
12, 414960, Note_on_c, 3, 53, 77
12, 414964, Note_on_c, 3, 51, 0
12, 414965, Note_on_c, 3, 46, 85
12, 414968, Note_on_c, 3, 44, 0
12, 415440, Note_on_c, 3, 53, 0
12, 415445, Note_on_c, 3, 46, 0
12, 415446, Note_on_c, 3, 44, 67
12, 415463, Note_on_c, 3, 51, 85
12, 415686, Note_on_c, 3, 44, 0
12, 415703, Note_on_c, 3, 51, 0
12, 416416, Note_on_c, 3, 41, 84
12, 416417, Note_on_c, 3, 48, 65
12, 416896, Note_on_c, 3, 41, 0
12, 416897, Note_on_c, 3, 48, 0
12, 416904, Note_on_c, 3, 42, 65
12, 416905, Note_on_c, 3, 49, 81
12, 417366, Note_on_c, 3, 51, 75
12, 417372, Note_on_c, 3, 44, 68
12, 417384, Note_on_c, 3, 42, 0
12, 417385, Note_on_c, 3, 49, 0
12, 417606, Note_on_c, 3, 51, 0
12, 417612, Note_on_c, 3, 44, 0
12, 418341, Note_on_c, 3, 41, 80
12, 418342, Note_on_c, 3, 48, 70
12, 418807, Note_on_c, 3, 49, 75
12, 418821, Note_on_c, 3, 41, 0
12, 418822, Note_on_c, 3, 48, 0
12, 418823, Note_on_c, 3, 42, 79
12, 419287, Note_on_c, 3, 49, 0
12, 419294, Note_on_c, 3, 51, 79
12, 419300, Note_on_c, 3, 44, 74
12, 419303, Note_on_c, 3, 42, 0
12, 419534, Note_on_c, 3, 51, 0
12, 419540, Note_on_c, 3, 44, 0
12, 422165, Note_on_c, 3, 48, 73
12, 422184, Note_on_c, 3, 41, 83
12, 422645, Note_on_c, 3, 48, 0
12, 422657, Note_on_c, 3, 42, 80
12, 422659, Note_on_c, 3, 49, 68
12, 422664, Note_on_c, 3, 41, 0
12, 423137, Note_on_c, 3, 42, 0
12, 423137, Note_on_c, 3, 44, 74
12, 423139, Note_on_c, 3, 49, 0
12, 423140, Note_on_c, 3, 51, 65
12, 423377, Note_on_c, 3, 44, 0
12, 423380, Note_on_c, 3, 51, 0
12, 427451, Note_on_c, 3, 41, 94
12, 427464, Note_on_c, 3, 48, 100
12, 427931, Note_on_c, 3, 41, 0
12, 427932, Note_on_c, 3, 42, 109
12, 427939, Note_on_c, 3, 49, 105
12, 427944, Note_on_c, 3, 48, 0
12, 428401, Note_on_c, 3, 51, 94
12, 428405, Note_on_c, 3, 44, 100
12, 428412, Note_on_c, 3, 42, 0
12, 428419, Note_on_c, 3, 49, 0
12, 428641, Note_on_c, 3, 51, 0
12, 428645, Note_on_c, 3, 44, 0
12, 429361, Note_on_c, 3, 48, 100
12, 429382, Note_on_c, 3, 41, 98
12, 429841, Note_on_c, 3, 48, 0
12, 429849, Note_on_c, 3, 49, 108
12, 429852, Note_on_c, 3, 42, 111
12, 429862, Note_on_c, 3, 41, 0
12, 430329, Note_on_c, 3, 49, 0
12, 430331, Note_on_c, 3, 44, 110
12, 430332, Note_on_c, 3, 42, 0
12, 430334, Note_on_c, 3, 51, 102
12, 430571, Note_on_c, 3, 44, 0
12, 430574, Note_on_c, 3, 51, 0
12, 431296, Note_on_c, 3, 41, 94
12, 431304, Note_on_c, 3, 48, 103
12, 431775, Note_on_c, 3, 49, 91
12, 431776, Note_on_c, 3, 41, 0
12, 431778, Note_on_c, 3, 42, 103
12, 431784, Note_on_c, 3, 48, 0
12, 432246, Note_on_c, 3, 51, 111
12, 432255, Note_on_c, 3, 49, 0
12, 432258, Note_on_c, 3, 42, 0
12, 432259, Note_on_c, 3, 44, 111
12, 432483, Note_on_c, 3, 46, 100
12, 432486, Note_on_c, 3, 51, 0
12, 432495, Note_on_c, 3, 39, 109
12, 432499, Note_on_c, 3, 44, 0
12, 432723, Note_on_c, 3, 46, 0
12, 432725, Note_on_c, 3, 48, 111
12, 432735, Note_on_c, 3, 39, 0
12, 432737, Note_on_c, 3, 41, 107
12, 433205, Note_on_c, 3, 48, 0
12, 433208, Note_on_c, 3, 42, 111
12, 433217, Note_on_c, 3, 41, 0
12, 433223, Note_on_c, 3, 49, 107
12, 433688, Note_on_c, 3, 42, 0
12, 433697, Note_on_c, 3, 51, 98
12, 433703, Note_on_c, 3, 49, 0
12, 433705, Note_on_c, 3, 44, 107
12, 434160, Note_on_c, 3, 53, 102
12, 434161, Note_on_c, 3, 46, 101
12, 434177, Note_on_c, 3, 51, 0
12, 434185, Note_on_c, 3, 44, 0
12, 434640, Note_on_c, 3, 53, 0
12, 434641, Note_on_c, 3, 46, 0
12, 434645, Note_on_c, 3, 44, 95
12, 434662, Note_on_c, 3, 51, 96
12, 434885, Note_on_c, 3, 44, 0
12, 434902, Note_on_c, 3, 51, 0
12, 435610, Note_on_c, 3, 48, 110
12, 435618, Note_on_c, 3, 41, 109
12, 436087, Note_on_c, 3, 42, 109
12, 436090, Note_on_c, 3, 48, 0
12, 436092, Note_on_c, 3, 49, 94
12, 436098, Note_on_c, 3, 41, 0
12, 436567, Note_on_c, 3, 42, 0
12, 436572, Note_on_c, 3, 49, 0
12, 436576, Note_on_c, 3, 44, 101
12, 436585, Note_on_c, 3, 51, 100
12, 436816, Note_on_c, 3, 44, 0
12, 436825, Note_on_c, 3, 51, 0
12, 436986, Note_on_c, 3, 48, 92
12, 436995, Note_on_c, 3, 41, 109
12, 437346, Note_on_c, 3, 48, 0
12, 437346, Note_on_c, 3, 49, 104
12, 437355, Note_on_c, 3, 41, 0
12, 437355, Note_on_c, 3, 42, 108
12, 437701, Note_on_c, 3, 44, 93
12, 437706, Note_on_c, 3, 49, 0
12, 437715, Note_on_c, 3, 42, 0
12, 437725, Note_on_c, 3, 51, 97
12, 437881, Note_on_c, 3, 44, 0
12, 437905, Note_on_c, 3, 51, 0
12, 438968, Note_on_c, 3, 48, 104
12, 438984, Note_on_c, 3, 41, 104
12, 439448, Note_on_c, 3, 48, 0
12, 439448, Note_on_c, 3, 42, 95
12, 439463, Note_on_c, 3, 49, 100
12, 439464, Note_on_c, 3, 41, 0
12, 439924, Note_on_c, 3, 51, 102
12, 439928, Note_on_c, 3, 42, 0
12, 439936, Note_on_c, 3, 44, 104
12, 439943, Note_on_c, 3, 49, 0
12, 440164, Note_on_c, 3, 51, 0
12, 440176, Note_on_c, 3, 44, 0
12, 440892, Note_on_c, 3, 48, 100
12, 440898, Note_on_c, 3, 41, 105
12, 441372, Note_on_c, 3, 48, 0
12, 441377, Note_on_c, 3, 49, 106
12, 441378, Note_on_c, 3, 41, 0
12, 441381, Note_on_c, 3, 42, 97
12, 441853, Note_on_c, 3, 44, 110
12, 441857, Note_on_c, 3, 49, 0
12, 441861, Note_on_c, 3, 42, 0
12, 441865, Note_on_c, 3, 51, 105
12, 442093, Note_on_c, 3, 44, 0
12, 442105, Note_on_c, 3, 51, 0
12, 442331, Note_on_c, 3, 41, 97
12, 442336, Note_on_c, 3, 48, 94
12, 442811, Note_on_c, 3, 41, 0
12, 442816, Note_on_c, 3, 48, 0
12, 442819, Note_on_c, 3, 42, 107
12, 442823, Note_on_c, 3, 49, 99
12, 443281, Note_on_c, 3, 44, 97
12, 443289, Note_on_c, 3, 51, 105
12, 443299, Note_on_c, 3, 42, 0
12, 443303, Note_on_c, 3, 49, 0
12, 443521, Note_on_c, 3, 44, 0
12, 443529, Note_on_c, 3, 51, 0
12, 444240, Note_on_c, 3, 41, 106
12, 444245, Note_on_c, 3, 48, 108
12, 444720, Note_on_c, 3, 41, 0
12, 444721, Note_on_c, 3, 49, 91
12, 444725, Note_on_c, 3, 48, 0
12, 444725, Note_on_c, 3, 42, 101
12, 445200, Note_on_c, 3, 44, 109
12, 445201, Note_on_c, 3, 49, 0
12, 445205, Note_on_c, 3, 42, 0
12, 445222, Note_on_c, 3, 51, 99
12, 445440, Note_on_c, 3, 44, 0
12, 445448, Note_on_c, 3, 44, 102
12, 445460, Note_on_c, 3, 37, 105
12, 445462, Note_on_c, 3, 51, 0
12, 445921, Note_on_c, 3, 44, 94
12, 445928, Note_on_c, 3, 44, 0
12, 445938, Note_on_c, 3, 49, 104
12, 445940, Note_on_c, 3, 37, 0
12, 446400, Note_on_c, 3, 52, 110
12, 446401, Note_on_c, 3, 44, 0
12, 446418, Note_on_c, 3, 49, 0
12, 446425, Note_on_c, 3, 45, 93
12, 447360, Note_on_c, 3, 52, 0
12, 447385, Note_on_c, 3, 45, 0
12, 448816, Note_on_c, 3, 55, 97
12, 448959, Note_on_c, 3, 55, 0
12, 455055, Note_on_c, 3, 55, 113
12, 455198, Note_on_c, 3, 55, 0
12, 455533, Note_on_c, 3, 55, 99
12, 455676, Note_on_c, 3, 55, 0
12, 457920, Note_on_c, 3, 52, 98
12, 458400, Note_on_c, 3, 52, 0
12, 458895, Note_on_c, 3, 53, 109
12, 459375, Note_on_c, 3, 53, 0
12, 459844, Note_on_c, 3, 52, 101
12, 460324, Note_on_c, 3, 52, 0
12, 460808, Note_on_c, 3, 53, 104
12, 461288, Note_on_c, 3, 53, 0
12, 461783, Note_on_c, 3, 55, 98
12, 461926, Note_on_c, 3, 55, 0
12, 466100, Note_on_c, 3, 55, 101
12, 466243, Note_on_c, 3, 55, 0
12, 466582, Note_on_c, 3, 55, 105
12, 466725, Note_on_c, 3, 55, 0
12, 468980, Note_on_c, 3, 55, 102
12, 469123, Note_on_c, 3, 55, 0
12, 498247, Note_on_c, 3, 42, 101
12, 499207, Note_on_c, 3, 42, 0
12, 499684, Note_on_c, 3, 42, 97
12, 500644, Note_on_c, 3, 42, 0
12, 504504, Note_on_c, 3, 42, 100
12, 505464, Note_on_c, 3, 42, 0
12, 505921, Note_on_c, 3, 42, 92
12, 506881, Note_on_c, 3, 42, 0
12, 507851, Note_on_c, 3, 42, 92
12, 508811, Note_on_c, 3, 42, 0
12, 561620, Note_on_c, 3, 42, 89
12, 561853, Note_on_c, 3, 40, 92
12, 561860, Note_on_c, 3, 42, 0
12, 561973, Note_on_c, 3, 40, 0
12, 562092, Note_on_c, 3, 42, 95
12, 562332, Note_on_c, 3, 42, 0
12, 562338, Note_on_c, 3, 40, 91
12, 562458, Note_on_c, 3, 40, 0
12, 562576, Note_on_c, 3, 42, 84
12, 562806, Note_on_c, 3, 40, 85
12, 562816, Note_on_c, 3, 42, 0
12, 562926, Note_on_c, 3, 40, 0
12, 563041, Note_on_c, 3, 42, 87
12, 563281, Note_on_c, 3, 42, 0
12, 563285, Note_on_c, 3, 40, 82
12, 563405, Note_on_c, 3, 40, 0
12, 563524, Note_on_c, 3, 42, 83
12, 563764, Note_on_c, 3, 42, 0
12, 563776, Note_on_c, 3, 40, 89
12, 563896, Note_on_c, 3, 40, 0
12, 564019, Note_on_c, 3, 42, 93
12, 564259, Note_on_c, 3, 42, 0
12, 564259, Note_on_c, 3, 40, 93
12, 564379, Note_on_c, 3, 40, 0
12, 564485, Note_on_c, 3, 42, 78
12, 564725, Note_on_c, 3, 42, 0
12, 564741, Note_on_c, 3, 40, 96
12, 564861, Note_on_c, 3, 40, 0
12, 564966, Note_on_c, 3, 42, 85
12, 565206, Note_on_c, 3, 42, 0
12, 565220, Note_on_c, 3, 40, 80
12, 565340, Note_on_c, 3, 40, 0
12, 565440, Note_on_c, 3, 42, 97
12, 565680, Note_on_c, 3, 42, 0
12, 565682, Note_on_c, 3, 40, 80
12, 565802, Note_on_c, 3, 40, 0
12, 565932, Note_on_c, 3, 42, 84
12, 566161, Note_on_c, 3, 40, 90
12, 566172, Note_on_c, 3, 42, 0
12, 566281, Note_on_c, 3, 40, 0
12, 566408, Note_on_c, 3, 42, 95
12, 566647, Note_on_c, 3, 40, 85
12, 566648, Note_on_c, 3, 42, 0
12, 566767, Note_on_c, 3, 40, 0
12, 566898, Note_on_c, 3, 42, 95
12, 567131, Note_on_c, 3, 40, 96
12, 567138, Note_on_c, 3, 42, 0
12, 567251, Note_on_c, 3, 40, 0
12, 567364, Note_on_c, 3, 42, 84
12, 567604, Note_on_c, 3, 42, 0
12, 567604, Note_on_c, 3, 40, 79
12, 567724, Note_on_c, 3, 40, 0
12, 567852, Note_on_c, 3, 42, 96
12, 568087, Note_on_c, 3, 40, 91
12, 568092, Note_on_c, 3, 42, 0
12, 568207, Note_on_c, 3, 40, 0
12, 568322, Note_on_c, 3, 42, 79
12, 568562, Note_on_c, 3, 42, 0
12, 568584, Note_on_c, 3, 40, 87
12, 568704, Note_on_c, 3, 40, 0
12, 568823, Note_on_c, 3, 42, 92
12, 569048, Note_on_c, 3, 40, 95
12, 569063, Note_on_c, 3, 42, 0
12, 569168, Note_on_c, 3, 40, 0
12, 569304, Note_on_c, 3, 42, 93
12, 569526, Note_on_c, 3, 40, 95
12, 569544, Note_on_c, 3, 42, 0
12, 569646, Note_on_c, 3, 40, 0
12, 569768, Note_on_c, 3, 42, 84
12, 570008, Note_on_c, 3, 42, 0
12, 570011, Note_on_c, 3, 40, 84
12, 570131, Note_on_c, 3, 40, 0
12, 570249, Note_on_c, 3, 42, 86
12, 570489, Note_on_c, 3, 42, 0
12, 570492, Note_on_c, 3, 40, 92
12, 570612, Note_on_c, 3, 40, 0
12, 570722, Note_on_c, 3, 42, 94
12, 570962, Note_on_c, 3, 42, 0
12, 570979, Note_on_c, 3, 40, 80
12, 571099, Note_on_c, 3, 40, 0
12, 571214, Note_on_c, 3, 42, 82
12, 571454, Note_on_c, 3, 42, 0
12, 571459, Note_on_c, 3, 40, 92
12, 571579, Note_on_c, 3, 40, 0
12, 571698, Note_on_c, 3, 42, 93
12, 571938, Note_on_c, 3, 42, 0
12, 571940, Note_on_c, 3, 40, 87
12, 572060, Note_on_c, 3, 40, 0
12, 572169, Note_on_c, 3, 42, 78
12, 572409, Note_on_c, 3, 42, 0
12, 572423, Note_on_c, 3, 40, 98
12, 572543, Note_on_c, 3, 40, 0
12, 572653, Note_on_c, 3, 42, 89
12, 572890, Note_on_c, 3, 40, 79
12, 572893, Note_on_c, 3, 42, 0
12, 573010, Note_on_c, 3, 40, 0
12, 573122, Note_on_c, 3, 42, 88
12, 573362, Note_on_c, 3, 42, 0
12, 573362, Note_on_c, 3, 40, 92
12, 573482, Note_on_c, 3, 40, 0
12, 573612, Note_on_c, 3, 42, 85
12, 573852, Note_on_c, 3, 42, 0
12, 573858, Note_on_c, 3, 40, 85
12, 573978, Note_on_c, 3, 40, 0
12, 574084, Note_on_c, 3, 42, 97
12, 574324, Note_on_c, 3, 42, 0
12, 574338, Note_on_c, 3, 40, 98
12, 574458, Note_on_c, 3, 40, 0
12, 574573, Note_on_c, 3, 42, 98
12, 574813, Note_on_c, 3, 42, 0
12, 574819, Note_on_c, 3, 40, 84
12, 574939, Note_on_c, 3, 40, 0
12, 575044, Note_on_c, 3, 42, 82
12, 575284, Note_on_c, 3, 42, 0
12, 575297, Note_on_c, 3, 40, 92
12, 575417, Note_on_c, 3, 40, 0
12, 575527, Note_on_c, 3, 42, 87
12, 575767, Note_on_c, 3, 42, 0
12, 575778, Note_on_c, 3, 40, 84
12, 575898, Note_on_c, 3, 40, 0
12, 576010, Note_on_c, 3, 42, 87
12, 576250, Note_on_c, 3, 42, 0
12, 576263, Note_on_c, 3, 40, 88
12, 576383, Note_on_c, 3, 40, 0
12, 576495, Note_on_c, 3, 42, 97
12, 576735, Note_on_c, 3, 42, 0
12, 576741, Note_on_c, 3, 40, 82
12, 576861, Note_on_c, 3, 40, 0
12, 576963, Note_on_c, 3, 42, 91
12, 577203, Note_on_c, 3, 42, 0
12, 577211, Note_on_c, 3, 40, 93
12, 577331, Note_on_c, 3, 40, 0
12, 577464, Note_on_c, 3, 42, 87
12, 577697, Note_on_c, 3, 40, 81
12, 577704, Note_on_c, 3, 42, 0
12, 577817, Note_on_c, 3, 40, 0
12, 577921, Note_on_c, 3, 42, 92
12, 578161, Note_on_c, 3, 42, 0
12, 578169, Note_on_c, 3, 40, 81
12, 578289, Note_on_c, 3, 40, 0
12, 578425, Note_on_c, 3, 42, 95
12, 578661, Note_on_c, 3, 40, 87
12, 578665, Note_on_c, 3, 42, 0
12, 578781, Note_on_c, 3, 40, 0
12, 578880, Note_on_c, 3, 42, 87
12, 579120, Note_on_c, 3, 42, 0
12, 579141, Note_on_c, 3, 40, 89
12, 579261, Note_on_c, 3, 40, 0
12, 579367, Note_on_c, 3, 42, 90
12, 579607, Note_on_c, 3, 42, 0
12, 579624, Note_on_c, 3, 40, 90
12, 579744, Note_on_c, 3, 40, 0
12, 579852, Note_on_c, 3, 42, 78
12, 580089, Note_on_c, 3, 40, 94
12, 580092, Note_on_c, 3, 42, 0
12, 580209, Note_on_c, 3, 40, 0
12, 580344, Note_on_c, 3, 42, 93
12, 580582, Note_on_c, 3, 40, 97
12, 580584, Note_on_c, 3, 42, 0
12, 580702, Note_on_c, 3, 40, 0
12, 580824, Note_on_c, 3, 42, 89
12, 581054, Note_on_c, 3, 40, 94
12, 581064, Note_on_c, 3, 42, 0
12, 581174, Note_on_c, 3, 40, 0
12, 581295, Note_on_c, 3, 42, 97
12, 581535, Note_on_c, 3, 42, 0
12, 581543, Note_on_c, 3, 40, 97
12, 581663, Note_on_c, 3, 40, 0
12, 581768, Note_on_c, 3, 42, 85
12, 582008, Note_on_c, 3, 42, 0
12, 582024, Note_on_c, 3, 40, 92
12, 582144, Note_on_c, 3, 40, 0
12, 582249, Note_on_c, 3, 42, 81
12, 582482, Note_on_c, 3, 40, 95
12, 582489, Note_on_c, 3, 42, 0
12, 582602, Note_on_c, 3, 40, 0
12, 582727, Note_on_c, 3, 42, 97
12, 582965, Note_on_c, 3, 40, 80
12, 582967, Note_on_c, 3, 42, 0
12, 583085, Note_on_c, 3, 40, 0
12, 583201, Note_on_c, 3, 42, 92
12, 583441, Note_on_c, 3, 42, 0
12, 583449, Note_on_c, 3, 40, 80
12, 583569, Note_on_c, 3, 40, 0
12, 583703, Note_on_c, 3, 42, 89
12, 583937, Note_on_c, 3, 40, 92
12, 583943, Note_on_c, 3, 42, 0
12, 584057, Note_on_c, 3, 40, 0
12, 584177, Note_on_c, 3, 42, 88
12, 584415, Note_on_c, 3, 40, 95
12, 584417, Note_on_c, 3, 42, 0
12, 584535, Note_on_c, 3, 40, 0
12, 584655, Note_on_c, 3, 42, 87
12, 584895, Note_on_c, 3, 42, 0
12, 584901, Note_on_c, 3, 40, 78
12, 585021, Note_on_c, 3, 40, 0
12, 585124, Note_on_c, 3, 42, 85
12, 585364, Note_on_c, 3, 42, 0
12, 585366, Note_on_c, 3, 40, 86
12, 585486, Note_on_c, 3, 40, 0
12, 585608, Note_on_c, 3, 42, 78
12, 585848, Note_on_c, 3, 42, 0
12, 585853, Note_on_c, 3, 40, 94
12, 585973, Note_on_c, 3, 40, 0
12, 586089, Note_on_c, 3, 42, 98
12, 586329, Note_on_c, 3, 42, 0
12, 586340, Note_on_c, 3, 40, 79
12, 586460, Note_on_c, 3, 40, 0
12, 586576, Note_on_c, 3, 42, 79
12, 586816, Note_on_c, 3, 42, 0
12, 586822, Note_on_c, 3, 40, 97
12, 586942, Note_on_c, 3, 40, 0
12, 587051, Note_on_c, 3, 42, 83
12, 587291, Note_on_c, 3, 42, 0
12, 587291, Note_on_c, 3, 40, 81
12, 587411, Note_on_c, 3, 40, 0
12, 587524, Note_on_c, 3, 42, 97
12, 587764, Note_on_c, 3, 42, 0
12, 587777, Note_on_c, 3, 40, 78
12, 587897, Note_on_c, 3, 40, 0
12, 588010, Note_on_c, 3, 42, 81
12, 588250, Note_on_c, 3, 42, 0
12, 588255, Note_on_c, 3, 40, 87
12, 588375, Note_on_c, 3, 40, 0
12, 588498, Note_on_c, 3, 42, 84
12, 588724, Note_on_c, 3, 40, 78
12, 588738, Note_on_c, 3, 42, 0
12, 588844, Note_on_c, 3, 40, 0
12, 588969, Note_on_c, 3, 42, 80
12, 589209, Note_on_c, 3, 42, 0
12, 589212, Note_on_c, 3, 40, 90
12, 589332, Note_on_c, 3, 40, 0
12, 589458, Note_on_c, 3, 42, 96
12, 589695, Note_on_c, 3, 40, 89
12, 589698, Note_on_c, 3, 42, 0
12, 589815, Note_on_c, 3, 40, 0
12, 589942, Note_on_c, 3, 42, 88
12, 590160, Note_on_c, 3, 40, 92
12, 590182, Note_on_c, 3, 42, 0
12, 590280, Note_on_c, 3, 40, 0
12, 590404, Note_on_c, 3, 42, 87
12, 590643, Note_on_c, 3, 40, 82
12, 590644, Note_on_c, 3, 42, 0
12, 590763, Note_on_c, 3, 40, 0
12, 590904, Note_on_c, 3, 42, 94
12, 591142, Note_on_c, 3, 40, 90
12, 591144, Note_on_c, 3, 42, 0
12, 591262, Note_on_c, 3, 40, 0
12, 591360, Note_on_c, 3, 42, 90
12, 591600, Note_on_c, 3, 42, 0
12, 591607, Note_on_c, 3, 40, 94
12, 591727, Note_on_c, 3, 40, 0
12, 591852, Note_on_c, 3, 42, 87
12, 592092, Note_on_c, 3, 42, 0
12, 592095, Note_on_c, 3, 40, 98
12, 592215, Note_on_c, 3, 40, 0
12, 592333, Note_on_c, 3, 42, 98
12, 592573, Note_on_c, 3, 42, 0
12, 592581, Note_on_c, 3, 40, 95
12, 592701, Note_on_c, 3, 40, 0
12, 592803, Note_on_c, 3, 42, 86
12, 593043, Note_on_c, 3, 42, 0
12, 593063, Note_on_c, 3, 40, 78
12, 593183, Note_on_c, 3, 40, 0
12, 593290, Note_on_c, 3, 42, 84
12, 593530, Note_on_c, 3, 42, 0
12, 593532, Note_on_c, 3, 40, 83
12, 593652, Note_on_c, 3, 40, 0
12, 593780, Note_on_c, 3, 42, 98
12, 594007, Note_on_c, 3, 40, 94
12, 594020, Note_on_c, 3, 42, 0
12, 594127, Note_on_c, 3, 40, 0
12, 594256, Note_on_c, 3, 42, 88
12, 594493, Note_on_c, 3, 40, 80
12, 594496, Note_on_c, 3, 42, 0
12, 594613, Note_on_c, 3, 40, 0
12, 594737, Note_on_c, 3, 42, 88
12, 594965, Note_on_c, 3, 40, 97
12, 594977, Note_on_c, 3, 42, 0
12, 595085, Note_on_c, 3, 40, 0
12, 595217, Note_on_c, 3, 42, 87
12, 595446, Note_on_c, 3, 40, 97
12, 595457, Note_on_c, 3, 42, 0
12, 595566, Note_on_c, 3, 40, 0
12, 595701, Note_on_c, 3, 42, 83
12, 595923, Note_on_c, 3, 40, 95
12, 595941, Note_on_c, 3, 42, 0
12, 596043, Note_on_c, 3, 40, 0
12, 596182, Note_on_c, 3, 42, 83
12, 596422, Note_on_c, 3, 42, 0
12, 596425, Note_on_c, 3, 40, 91
12, 596545, Note_on_c, 3, 40, 0
12, 596656, Note_on_c, 3, 42, 87
12, 596896, Note_on_c, 3, 42, 0
12, 596905, Note_on_c, 3, 40, 81
12, 597025, Note_on_c, 3, 40, 0
12, 597142, Note_on_c, 3, 42, 97
12, 597365, Note_on_c, 3, 40, 96
12, 597382, Note_on_c, 3, 42, 0
12, 597485, Note_on_c, 3, 40, 0
12, 597612, Note_on_c, 3, 42, 91
12, 597848, Note_on_c, 3, 40, 86
12, 597852, Note_on_c, 3, 42, 0
12, 597968, Note_on_c, 3, 40, 0
12, 598094, Note_on_c, 3, 42, 78
12, 598326, Note_on_c, 3, 40, 95
12, 598334, Note_on_c, 3, 42, 0
12, 598446, Note_on_c, 3, 40, 0
12, 598576, Note_on_c, 3, 42, 78
12, 598814, Note_on_c, 3, 40, 80
12, 598816, Note_on_c, 3, 42, 0
12, 598934, Note_on_c, 3, 40, 0
12, 599061, Note_on_c, 3, 42, 91
12, 599296, Note_on_c, 3, 40, 98
12, 599301, Note_on_c, 3, 42, 0
12, 599416, Note_on_c, 3, 40, 0
12, 599530, Note_on_c, 3, 42, 95
12, 599763, Note_on_c, 3, 40, 78
12, 599770, Note_on_c, 3, 42, 0
12, 599883, Note_on_c, 3, 40, 0
12, 600011, Note_on_c, 3, 42, 95
12, 600247, Note_on_c, 3, 40, 80
12, 600251, Note_on_c, 3, 42, 0
12, 600367, Note_on_c, 3, 40, 0
12, 600492, Note_on_c, 3, 42, 78
12, 600720, Note_on_c, 3, 40, 78
12, 600732, Note_on_c, 3, 42, 0
12, 600840, Note_on_c, 3, 40, 0
12, 600963, Note_on_c, 3, 42, 96
12, 601203, Note_on_c, 3, 42, 0
12, 601222, Note_on_c, 3, 40, 82
12, 601342, Note_on_c, 3, 40, 0
12, 601457, Note_on_c, 3, 42, 97
12, 601689, Note_on_c, 3, 40, 83
12, 601697, Note_on_c, 3, 42, 0
12, 601809, Note_on_c, 3, 40, 0
12, 601929, Note_on_c, 3, 42, 84
12, 602169, Note_on_c, 3, 42, 0
12, 602183, Note_on_c, 3, 40, 86
12, 602303, Note_on_c, 3, 40, 0
12, 602419, Note_on_c, 3, 42, 84
12, 602641, Note_on_c, 3, 40, 78
12, 602659, Note_on_c, 3, 42, 0
12, 602761, Note_on_c, 3, 40, 0
12, 602903, Note_on_c, 3, 42, 86
12, 603134, Note_on_c, 3, 40, 86
12, 603143, Note_on_c, 3, 42, 0
12, 603254, Note_on_c, 3, 40, 0
12, 603385, Note_on_c, 3, 42, 98
12, 603612, Note_on_c, 3, 40, 93
12, 603625, Note_on_c, 3, 42, 0
12, 603732, Note_on_c, 3, 40, 0
12, 603863, Note_on_c, 3, 42, 91
12, 604097, Note_on_c, 3, 40, 85
12, 604103, Note_on_c, 3, 42, 0
12, 604217, Note_on_c, 3, 40, 0
12, 654258, Note_on_c, 3, 41, 96
12, 654259, Note_on_c, 3, 47, 93
12, 654353, Note_on_c, 3, 41, 0
12, 654354, Note_on_c, 3, 47, 0
12, 654491, Note_on_c, 3, 47, 99
12, 654505, Note_on_c, 3, 41, 110
12, 654586, Note_on_c, 3, 47, 0
12, 654600, Note_on_c, 3, 41, 0
12, 654723, Note_on_c, 3, 48, 111
12, 654735, Note_on_c, 3, 42, 98
12, 654818, Note_on_c, 3, 48, 0
12, 654830, Note_on_c, 3, 42, 0
12, 654960, Note_on_c, 3, 48, 107
12, 654971, Note_on_c, 3, 42, 102
12, 655055, Note_on_c, 3, 48, 0
12, 655066, Note_on_c, 3, 42, 0
12, 655202, Note_on_c, 3, 43, 99
12, 655217, Note_on_c, 3, 49, 93
12, 655297, Note_on_c, 3, 43, 0
12, 655312, Note_on_c, 3, 49, 0
12, 655441, Note_on_c, 3, 43, 105
12, 655459, Note_on_c, 3, 49, 106
12, 655536, Note_on_c, 3, 43, 0
12, 655554, Note_on_c, 3, 49, 0
12, 655696, Note_on_c, 3, 44, 110
12, 655699, Note_on_c, 3, 50, 95
12, 655791, Note_on_c, 3, 44, 0
12, 655794, Note_on_c, 3, 50, 0
12, 655937, Note_on_c, 3, 50, 101
12, 655945, Note_on_c, 3, 44, 109
12, 656032, Note_on_c, 3, 50, 0
12, 656040, Note_on_c, 3, 44, 0
12, 656164, Note_on_c, 3, 41, 91
12, 656184, Note_on_c, 3, 47, 95
12, 656259, Note_on_c, 3, 41, 0
12, 656279, Note_on_c, 3, 47, 0
12, 656402, Note_on_c, 3, 41, 96
12, 656408, Note_on_c, 3, 47, 105
12, 656497, Note_on_c, 3, 41, 0
12, 656503, Note_on_c, 3, 47, 0
12, 656645, Note_on_c, 3, 48, 106
12, 656648, Note_on_c, 3, 42, 109
12, 656740, Note_on_c, 3, 48, 0
12, 656743, Note_on_c, 3, 42, 0
12, 656888, Note_on_c, 3, 42, 92
12, 656899, Note_on_c, 3, 48, 94
12, 656983, Note_on_c, 3, 42, 0
12, 656994, Note_on_c, 3, 48, 0
12, 657135, Note_on_c, 3, 49, 94
12, 657143, Note_on_c, 3, 43, 104
12, 657230, Note_on_c, 3, 49, 0
12, 657238, Note_on_c, 3, 43, 0
12, 657364, Note_on_c, 3, 49, 91
12, 657371, Note_on_c, 3, 43, 110
12, 657459, Note_on_c, 3, 49, 0
12, 657466, Note_on_c, 3, 43, 0
12, 657614, Note_on_c, 3, 45, 97
12, 657619, Note_on_c, 3, 51, 95
12, 657709, Note_on_c, 3, 45, 0
12, 657714, Note_on_c, 3, 51, 0
12, 657850, Note_on_c, 3, 51, 91
12, 657853, Note_on_c, 3, 45, 96
12, 657945, Note_on_c, 3, 51, 0
12, 657948, Note_on_c, 3, 45, 0
12, 658088, Note_on_c, 3, 44, 96
12, 658104, Note_on_c, 3, 50, 92
12, 658183, Note_on_c, 3, 44, 0
12, 658199, Note_on_c, 3, 50, 0
12, 658344, Note_on_c, 3, 50, 111
12, 658345, Note_on_c, 3, 44, 109
12, 658439, Note_on_c, 3, 50, 0
12, 658440, Note_on_c, 3, 44, 0
12, 658573, Note_on_c, 3, 45, 108
12, 658581, Note_on_c, 3, 51, 91
12, 658668, Note_on_c, 3, 45, 0
12, 658676, Note_on_c, 3, 51, 0
12, 658810, Note_on_c, 3, 51, 106
12, 658823, Note_on_c, 3, 45, 94
12, 658905, Note_on_c, 3, 51, 0
12, 658918, Note_on_c, 3, 45, 0
12, 659042, Note_on_c, 3, 52, 103
12, 659060, Note_on_c, 3, 46, 110
12, 659137, Note_on_c, 3, 52, 0
12, 659155, Note_on_c, 3, 46, 0
12, 659284, Note_on_c, 3, 46, 110
12, 659297, Note_on_c, 3, 52, 109
12, 659379, Note_on_c, 3, 46, 0
12, 659392, Note_on_c, 3, 52, 0
12, 659525, Note_on_c, 3, 53, 103
12, 659529, Note_on_c, 3, 47, 111
12, 659620, Note_on_c, 3, 53, 0
12, 659624, Note_on_c, 3, 47, 0
12, 659781, Note_on_c, 3, 47, 111
12, 659782, Note_on_c, 3, 53, 103
12, 659876, Note_on_c, 3, 47, 0
12, 659877, Note_on_c, 3, 53, 0
12, 660014, Note_on_c, 3, 50, 94
12, 660017, Note_on_c, 3, 43, 101
12, 660109, Note_on_c, 3, 50, 0
12, 660112, Note_on_c, 3, 43, 0
12, 660250, Note_on_c, 3, 43, 110
12, 660252, Note_on_c, 3, 50, 99
12, 660345, Note_on_c, 3, 43, 0
12, 660347, Note_on_c, 3, 50, 0
12, 660489, Note_on_c, 3, 51, 108
12, 660505, Note_on_c, 3, 44, 100
12, 660584, Note_on_c, 3, 51, 0
12, 660600, Note_on_c, 3, 44, 0
12, 660724, Note_on_c, 3, 51, 99
12, 660727, Note_on_c, 3, 44, 102
12, 660819, Note_on_c, 3, 51, 0
12, 660822, Note_on_c, 3, 44, 0
12, 660962, Note_on_c, 3, 52, 107
12, 660981, Note_on_c, 3, 45, 96
12, 661057, Note_on_c, 3, 52, 0
12, 661076, Note_on_c, 3, 45, 0
12, 661214, Note_on_c, 3, 45, 106
12, 661215, Note_on_c, 3, 52, 106
12, 661309, Note_on_c, 3, 45, 0
12, 661310, Note_on_c, 3, 52, 0
12, 661444, Note_on_c, 3, 47, 106
12, 661451, Note_on_c, 3, 54, 103
12, 661539, Note_on_c, 3, 47, 0
12, 661546, Note_on_c, 3, 54, 0
12, 661694, Note_on_c, 3, 47, 101
12, 661702, Note_on_c, 3, 54, 95
12, 661789, Note_on_c, 3, 47, 0
12, 661797, Note_on_c, 3, 54, 0
12, 661931, Note_on_c, 3, 53, 109
12, 661935, Note_on_c, 3, 47, 91
12, 662026, Note_on_c, 3, 53, 0
12, 662030, Note_on_c, 3, 47, 0
12, 662168, Note_on_c, 3, 47, 102
12, 662170, Note_on_c, 3, 53, 97
12, 662263, Note_on_c, 3, 47, 0
12, 662265, Note_on_c, 3, 53, 0
12, 662401, Note_on_c, 3, 54, 102
12, 662411, Note_on_c, 3, 48, 108
12, 662496, Note_on_c, 3, 54, 0
12, 662506, Note_on_c, 3, 48, 0
12, 662644, Note_on_c, 3, 48, 100
12, 662661, Note_on_c, 3, 54, 104
12, 662739, Note_on_c, 3, 48, 0
12, 662756, Note_on_c, 3, 54, 0
12, 662895, Note_on_c, 3, 49, 91
12, 662896, Note_on_c, 3, 55, 91
12, 662990, Note_on_c, 3, 49, 0
12, 662991, Note_on_c, 3, 55, 0
12, 663125, Note_on_c, 3, 49, 94
12, 663132, Note_on_c, 3, 55, 109
12, 663220, Note_on_c, 3, 49, 0
12, 663227, Note_on_c, 3, 55, 0
12, 663376, Note_on_c, 3, 50, 102
12, 663378, Note_on_c, 3, 56, 101
12, 663471, Note_on_c, 3, 50, 0
12, 663473, Note_on_c, 3, 56, 0
12, 663610, Note_on_c, 3, 56, 111
12, 663625, Note_on_c, 3, 50, 108
12, 663705, Note_on_c, 3, 56, 0
12, 663720, Note_on_c, 3, 50, 0
12, 663859, Note_on_c, 3, 47, 111
12, 663860, Note_on_c, 3, 54, 108
12, 663954, Note_on_c, 3, 47, 0
12, 663955, Note_on_c, 3, 54, 0
12, 664080, Note_on_c, 3, 47, 97
12, 664082, Note_on_c, 3, 54, 98
12, 664175, Note_on_c, 3, 47, 0
12, 664177, Note_on_c, 3, 54, 0
12, 664335, Note_on_c, 3, 54, 105
12, 664341, Note_on_c, 3, 48, 96
12, 664430, Note_on_c, 3, 54, 0
12, 664436, Note_on_c, 3, 48, 0
12, 664560, Note_on_c, 3, 54, 110
12, 664585, Note_on_c, 3, 48, 97
12, 664655, Note_on_c, 3, 54, 0
12, 664680, Note_on_c, 3, 48, 0
12, 664812, Note_on_c, 3, 49, 105
12, 664817, Note_on_c, 3, 55, 108
12, 664907, Note_on_c, 3, 49, 0
12, 664912, Note_on_c, 3, 55, 0
12, 665043, Note_on_c, 3, 49, 96
12, 665052, Note_on_c, 3, 55, 94
12, 665138, Note_on_c, 3, 49, 0
12, 665147, Note_on_c, 3, 55, 0
12, 665286, Note_on_c, 3, 51, 105
12, 665287, Note_on_c, 3, 57, 103
12, 665381, Note_on_c, 3, 51, 0
12, 665382, Note_on_c, 3, 57, 0
12, 665520, Note_on_c, 3, 51, 107
12, 665529, Note_on_c, 3, 57, 104
12, 665615, Note_on_c, 3, 51, 0
12, 665624, Note_on_c, 3, 57, 0
12, 665760, Note_on_c, 3, 50, 99
12, 665784, Note_on_c, 3, 56, 101
12, 665855, Note_on_c, 3, 50, 0
12, 665879, Note_on_c, 3, 56, 0
12, 666006, Note_on_c, 3, 50, 95
12, 666013, Note_on_c, 3, 56, 99
12, 666101, Note_on_c, 3, 50, 0
12, 666108, Note_on_c, 3, 56, 0
12, 666251, Note_on_c, 3, 51, 105
12, 666259, Note_on_c, 3, 57, 107
12, 666346, Note_on_c, 3, 51, 0
12, 666354, Note_on_c, 3, 57, 0
12, 666487, Note_on_c, 3, 57, 92
12, 666499, Note_on_c, 3, 51, 107
12, 666582, Note_on_c, 3, 57, 0
12, 666594, Note_on_c, 3, 51, 0
12, 666737, Note_on_c, 3, 52, 108
12, 666738, Note_on_c, 3, 58, 109
12, 666832, Note_on_c, 3, 52, 0
12, 666833, Note_on_c, 3, 58, 0
12, 666966, Note_on_c, 3, 58, 95
12, 666982, Note_on_c, 3, 52, 105
12, 667061, Note_on_c, 3, 58, 0
12, 667077, Note_on_c, 3, 52, 0
12, 667209, Note_on_c, 3, 53, 111
12, 667215, Note_on_c, 3, 59, 93
12, 667304, Note_on_c, 3, 53, 0
12, 667310, Note_on_c, 3, 59, 0
12, 667446, Note_on_c, 3, 59, 98
12, 667452, Note_on_c, 3, 53, 95
12, 667541, Note_on_c, 3, 59, 0
12, 667547, Note_on_c, 3, 53, 0
12, 667683, Note_on_c, 3, 55, 91
12, 667697, Note_on_c, 3, 50, 100
12, 667778, Note_on_c, 3, 55, 0
12, 667792, Note_on_c, 3, 50, 0
12, 667929, Note_on_c, 3, 50, 109
12, 667941, Note_on_c, 3, 55, 111
12, 668024, Note_on_c, 3, 50, 0
12, 668036, Note_on_c, 3, 55, 0
12, 668160, Note_on_c, 3, 56, 105
12, 668184, Note_on_c, 3, 51, 96
12, 668255, Note_on_c, 3, 56, 0
12, 668279, Note_on_c, 3, 51, 0
12, 668411, Note_on_c, 3, 56, 106
12, 668412, Note_on_c, 3, 51, 98
12, 668506, Note_on_c, 3, 56, 0
12, 668507, Note_on_c, 3, 51, 0
12, 668647, Note_on_c, 3, 57, 97
12, 668649, Note_on_c, 3, 52, 98
12, 668742, Note_on_c, 3, 57, 0
12, 668744, Note_on_c, 3, 52, 0
12, 668889, Note_on_c, 3, 57, 101
12, 668897, Note_on_c, 3, 52, 103
12, 668984, Note_on_c, 3, 57, 0
12, 668992, Note_on_c, 3, 52, 0
12, 669127, Note_on_c, 3, 54, 95
12, 669127, Note_on_c, 3, 59, 100
12, 669222, Note_on_c, 3, 54, 0
12, 669222, Note_on_c, 3, 59, 0
12, 669361, Note_on_c, 3, 54, 91
12, 669377, Note_on_c, 3, 59, 107
12, 669456, Note_on_c, 3, 54, 0
12, 669472, Note_on_c, 3, 59, 0
12, 669613, Note_on_c, 3, 53, 92
12, 669624, Note_on_c, 3, 59, 96
12, 669708, Note_on_c, 3, 53, 0
12, 669719, Note_on_c, 3, 59, 0
12, 669840, Note_on_c, 3, 59, 91
12, 669853, Note_on_c, 3, 53, 93
12, 669935, Note_on_c, 3, 59, 0
12, 669948, Note_on_c, 3, 53, 0
12, 670085, Note_on_c, 3, 60, 107
12, 670094, Note_on_c, 3, 54, 98
12, 670180, Note_on_c, 3, 60, 0
12, 670189, Note_on_c, 3, 54, 0
12, 670323, Note_on_c, 3, 54, 101
12, 670328, Note_on_c, 3, 60, 97
12, 670418, Note_on_c, 3, 54, 0
12, 670423, Note_on_c, 3, 60, 0
12, 670577, Note_on_c, 3, 61, 91
12, 670579, Note_on_c, 3, 55, 103
12, 670672, Note_on_c, 3, 61, 0
12, 670674, Note_on_c, 3, 55, 0
12, 670803, Note_on_c, 3, 61, 106
12, 670813, Note_on_c, 3, 55, 98
12, 670898, Note_on_c, 3, 61, 0
12, 670908, Note_on_c, 3, 55, 0
12, 671051, Note_on_c, 3, 56, 96
12, 671054, Note_on_c, 3, 62, 91
12, 671146, Note_on_c, 3, 56, 0
12, 671149, Note_on_c, 3, 62, 0
12, 671294, Note_on_c, 3, 56, 108
12, 671305, Note_on_c, 3, 62, 110
12, 671389, Note_on_c, 3, 56, 0
12, 671400, Note_on_c, 3, 62, 0
12, 671520, Note_on_c, 3, 53, 107
12, 671520, Note_on_c, 3, 59, 98
12, 671615, Note_on_c, 3, 53, 0
12, 671615, Note_on_c, 3, 59, 0
12, 671772, Note_on_c, 3, 59, 100
12, 671776, Note_on_c, 3, 53, 98
12, 671867, Note_on_c, 3, 59, 0
12, 671871, Note_on_c, 3, 53, 0
12, 672000, Note_on_c, 3, 60, 96
12, 672005, Note_on_c, 3, 54, 96
12, 672095, Note_on_c, 3, 60, 0
12, 672100, Note_on_c, 3, 54, 0
12, 672248, Note_on_c, 3, 60, 97
12, 672263, Note_on_c, 3, 54, 99
12, 672343, Note_on_c, 3, 60, 0
12, 672358, Note_on_c, 3, 54, 0
12, 672488, Note_on_c, 3, 55, 108
12, 672495, Note_on_c, 3, 61, 97
12, 672583, Note_on_c, 3, 55, 0
12, 672590, Note_on_c, 3, 61, 0
12, 672730, Note_on_c, 3, 55, 110
12, 672744, Note_on_c, 3, 61, 92
12, 672825, Note_on_c, 3, 55, 0
12, 672839, Note_on_c, 3, 61, 0
12, 672973, Note_on_c, 3, 57, 103
12, 672981, Note_on_c, 3, 63, 110
12, 673068, Note_on_c, 3, 57, 0
12, 673076, Note_on_c, 3, 63, 0
12, 673200, Note_on_c, 3, 63, 110
12, 673225, Note_on_c, 3, 57, 105
12, 673295, Note_on_c, 3, 63, 0
12, 673320, Note_on_c, 3, 57, 0
12, 673450, Note_on_c, 3, 56, 95
12, 673457, Note_on_c, 3, 62, 94
12, 673545, Note_on_c, 3, 56, 0
12, 673552, Note_on_c, 3, 62, 0
12, 673697, Note_on_c, 3, 56, 94
12, 673699, Note_on_c, 3, 62, 95
12, 673792, Note_on_c, 3, 56, 0
12, 673794, Note_on_c, 3, 62, 0
12, 673937, Note_on_c, 3, 57, 92
12, 673942, Note_on_c, 3, 63, 110
12, 674032, Note_on_c, 3, 57, 0
12, 674037, Note_on_c, 3, 63, 0
12, 674161, Note_on_c, 3, 63, 94
12, 674162, Note_on_c, 3, 57, 111
12, 674256, Note_on_c, 3, 63, 0
12, 674257, Note_on_c, 3, 57, 0
12, 674415, Note_on_c, 3, 64, 102
12, 674422, Note_on_c, 3, 58, 102
12, 674510, Note_on_c, 3, 64, 0
12, 674517, Note_on_c, 3, 58, 0
12, 674645, Note_on_c, 3, 58, 99
12, 674646, Note_on_c, 3, 64, 94
12, 674740, Note_on_c, 3, 58, 0
12, 674741, Note_on_c, 3, 64, 0
12, 674893, Note_on_c, 3, 65, 92
12, 674895, Note_on_c, 3, 59, 103
12, 674988, Note_on_c, 3, 65, 0
12, 674990, Note_on_c, 3, 59, 0
12, 675136, Note_on_c, 3, 59, 110
12, 675136, Note_on_c, 3, 65, 94
12, 675231, Note_on_c, 3, 59, 0
12, 675231, Note_on_c, 3, 65, 0
12, 675373, Note_on_c, 3, 62, 93
12, 675382, Note_on_c, 3, 55, 111
12, 675468, Note_on_c, 3, 62, 0
12, 675477, Note_on_c, 3, 55, 0
12, 675617, Note_on_c, 3, 55, 91
12, 675622, Note_on_c, 3, 62, 102
12, 675712, Note_on_c, 3, 55, 0
12, 675717, Note_on_c, 3, 62, 0
12, 675845, Note_on_c, 3, 63, 105
12, 675854, Note_on_c, 3, 56, 107
12, 675940, Note_on_c, 3, 63, 0
12, 675949, Note_on_c, 3, 56, 0
12, 676094, Note_on_c, 3, 56, 93
12, 676105, Note_on_c, 3, 63, 92
12, 676189, Note_on_c, 3, 56, 0
12, 676200, Note_on_c, 3, 63, 0
12, 676320, Note_on_c, 3, 64, 96
12, 676336, Note_on_c, 3, 57, 96
12, 676415, Note_on_c, 3, 64, 0
12, 676431, Note_on_c, 3, 57, 0
12, 676564, Note_on_c, 3, 57, 104
12, 676582, Note_on_c, 3, 64, 102
12, 676659, Note_on_c, 3, 57, 0
12, 676677, Note_on_c, 3, 64, 0
12, 676805, Note_on_c, 3, 59, 100
12, 676812, Note_on_c, 3, 66, 95
12, 676900, Note_on_c, 3, 59, 0
12, 676907, Note_on_c, 3, 66, 0
12, 677047, Note_on_c, 3, 59, 93
12, 677047, Note_on_c, 3, 66, 110
12, 677142, Note_on_c, 3, 59, 0
12, 677142, Note_on_c, 3, 66, 0
12, 689292, Note_on_c, 3, 43, 111
12, 689363, Note_on_c, 3, 48, 99
12, 689372, Note_on_c, 3, 43, 0
12, 689442, Note_on_c, 3, 48, 0
12, 689461, Note_on_c, 3, 52, 107
12, 689531, Note_on_c, 3, 55, 93
12, 689541, Note_on_c, 3, 52, 0
12, 689611, Note_on_c, 3, 55, 0
12, 689615, Note_on_c, 3, 60, 98
12, 689692, Note_on_c, 3, 64, 107
12, 689694, Note_on_c, 3, 60, 0
12, 689772, Note_on_c, 3, 64, 0
12, 690253, Note_on_c, 3, 55, 107
12, 690613, Note_on_c, 3, 55, 0
12, 691200, Note_on_c, 3, 55, 112
12, 691560, Note_on_c, 3, 55, 0
12, 692411, Note_on_c, 3, 55, 96
12, 692531, Note_on_c, 3, 55, 0
12, 693128, Note_on_c, 3, 55, 108
12, 693488, Note_on_c, 3, 55, 0
12, 694096, Note_on_c, 3, 57, 100
12, 694456, Note_on_c, 3, 57, 0
12, 694581, Note_on_c, 3, 57, 100
12, 694941, Note_on_c, 3, 57, 0
12, 696494, Note_on_c, 3, 43, 110
12, 696574, Note_on_c, 3, 43, 0
12, 696579, Note_on_c, 3, 48, 98
12, 696646, Note_on_c, 3, 52, 113
12, 696658, Note_on_c, 3, 48, 0
12, 696726, Note_on_c, 3, 52, 0
12, 696741, Note_on_c, 3, 55, 114
12, 696815, Note_on_c, 3, 60, 112
12, 696821, Note_on_c, 3, 55, 0
12, 696894, Note_on_c, 3, 60, 0
12, 696894, Note_on_c, 3, 64, 99
12, 696974, Note_on_c, 3, 64, 0
12, 697462, Note_on_c, 3, 57, 98
12, 697941, Note_on_c, 3, 43, 100
12, 697942, Note_on_c, 3, 57, 0
12, 698018, Note_on_c, 3, 48, 110
12, 698021, Note_on_c, 3, 43, 0
12, 698093, Note_on_c, 3, 52, 104
12, 698097, Note_on_c, 3, 48, 0
12, 698173, Note_on_c, 3, 52, 0
12, 698183, Note_on_c, 3, 55, 103
12, 698245, Note_on_c, 3, 60, 103
12, 698263, Note_on_c, 3, 55, 0
12, 698324, Note_on_c, 3, 60, 0
12, 698343, Note_on_c, 3, 64, 95
12, 698423, Note_on_c, 3, 64, 0
12, 698902, Note_on_c, 3, 57, 97
12, 699373, Note_on_c, 3, 57, 103
12, 699382, Note_on_c, 3, 57, 0
12, 699853, Note_on_c, 3, 57, 0
12, 700342, Note_on_c, 3, 57, 98
12, 700822, Note_on_c, 3, 57, 0
12, 701292, Note_on_c, 3, 55, 110
12, 701652, Note_on_c, 3, 55, 0
12, 702002, Note_on_c, 3, 55, 114
12, 702122, Note_on_c, 3, 55, 0
12, 703215, Note_on_c, 3, 57, 115
12, 703575, Note_on_c, 3, 57, 0
12, 704182, Note_on_c, 3, 57, 103
12, 704542, Note_on_c, 3, 57, 0
12, 708981, Note_on_c, 3, 43, 108
12, 709045, Note_on_c, 3, 48, 107
12, 709061, Note_on_c, 3, 43, 0
12, 709124, Note_on_c, 3, 48, 0
12, 709141, Note_on_c, 3, 52, 112
12, 709221, Note_on_c, 3, 52, 0
12, 709225, Note_on_c, 3, 55, 107
12, 709283, Note_on_c, 3, 60, 112
12, 709305, Note_on_c, 3, 55, 0
12, 709362, Note_on_c, 3, 60, 0
12, 709365, Note_on_c, 3, 64, 112
12, 709445, Note_on_c, 3, 64, 0
12, 711850, Note_on_c, 3, 43, 115
12, 711928, Note_on_c, 3, 48, 115
12, 711930, Note_on_c, 3, 43, 0
12, 712007, Note_on_c, 3, 48, 0
12, 712010, Note_on_c, 3, 52, 99
12, 712090, Note_on_c, 3, 52, 0
12, 712092, Note_on_c, 3, 55, 96
12, 712163, Note_on_c, 3, 60, 95
12, 712172, Note_on_c, 3, 55, 0
12, 712242, Note_on_c, 3, 60, 0
12, 712242, Note_on_c, 3, 64, 100
12, 712322, Note_on_c, 3, 64, 0
12, 712821, Note_on_c, 3, 55, 102
12, 713181, Note_on_c, 3, 55, 0
12, 713298, Note_on_c, 3, 55, 114
12, 713658, Note_on_c, 3, 55, 0
12, 714243, Note_on_c, 3, 55, 96
12, 714603, Note_on_c, 3, 55, 0
12, 715458, Note_on_c, 3, 55, 113
12, 715578, Note_on_c, 3, 55, 0
12, 716164, Note_on_c, 3, 55, 102
12, 716524, Note_on_c, 3, 55, 0
12, 717145, Note_on_c, 3, 55, 95
12, 717505, Note_on_c, 3, 55, 0
12, 717851, Note_on_c, 3, 55, 100
12, 717971, Note_on_c, 3, 55, 0
12, 719043, Note_on_c, 3, 55, 108
12, 719403, Note_on_c, 3, 55, 0
12, 720010, Note_on_c, 3, 55, 113
12, 720370, Note_on_c, 3, 55, 0
12, 720965, Note_on_c, 3, 55, 114
12, 721325, Note_on_c, 3, 55, 0
12, 721455, Note_on_c, 3, 42, 47
12, 721932, Note_on_c, 3, 44, 41
12, 721935, Note_on_c, 3, 42, 0
12, 722408, Note_on_c, 3, 46, 45
12, 722412, Note_on_c, 3, 44, 0
12, 722883, Note_on_c, 3, 42, 59
12, 722888, Note_on_c, 3, 46, 0
12, 723363, Note_on_c, 3, 42, 0
12, 723374, Note_on_c, 3, 44, 53
12, 723854, Note_on_c, 3, 44, 0
12, 723857, Note_on_c, 3, 45, 52
12, 724329, Note_on_c, 3, 42, 47
12, 724337, Note_on_c, 3, 45, 0
12, 724689, Note_on_c, 3, 42, 0
12, 724821, Note_on_c, 3, 44, 60
12, 725181, Note_on_c, 3, 44, 0
12, 725297, Note_on_c, 3, 46, 50
12, 725657, Note_on_c, 3, 46, 0
12, 725776, Note_on_c, 3, 48, 57
12, 726136, Note_on_c, 3, 48, 0
12, 726241, Note_on_c, 3, 50, 79
12, 726601, Note_on_c, 3, 50, 0
12, 726731, Note_on_c, 3, 52, 78
12, 727091, Note_on_c, 3, 52, 0
12, 727203, Note_on_c, 3, 42, 44
12, 727563, Note_on_c, 3, 42, 0
12, 727686, Note_on_c, 3, 44, 45
12, 728046, Note_on_c, 3, 44, 0
12, 728181, Note_on_c, 3, 46, 69
12, 728541, Note_on_c, 3, 46, 0
12, 728650, Note_on_c, 3, 48, 55
12, 729010, Note_on_c, 3, 48, 0
12, 729145, Note_on_c, 3, 50, 75
12, 729505, Note_on_c, 3, 50, 0
12, 729618, Note_on_c, 3, 52, 85
12, 729978, Note_on_c, 3, 52, 0
12, 730081, Note_on_c, 3, 42, 43
12, 730441, Note_on_c, 3, 42, 0
12, 730572, Note_on_c, 3, 44, 50
12, 730932, Note_on_c, 3, 44, 0
12, 731057, Note_on_c, 3, 46, 60
12, 731417, Note_on_c, 3, 46, 0
12, 731528, Note_on_c, 3, 48, 56
12, 731888, Note_on_c, 3, 48, 0
12, 732025, Note_on_c, 3, 50, 75
12, 732385, Note_on_c, 3, 50, 0
12, 732486, Note_on_c, 3, 52, 74
12, 732846, Note_on_c, 3, 52, 0
12, 732962, Note_on_c, 3, 42, 41
12, 733322, Note_on_c, 3, 42, 0
12, 733463, Note_on_c, 3, 44, 60
12, 733823, Note_on_c, 3, 44, 0
12, 733938, Note_on_c, 3, 46, 45
12, 734298, Note_on_c, 3, 46, 0
12, 734403, Note_on_c, 3, 42, 40
12, 734763, Note_on_c, 3, 42, 0
12, 734884, Note_on_c, 3, 44, 52
12, 735244, Note_on_c, 3, 44, 0
12, 735379, Note_on_c, 3, 46, 60
12, 735739, Note_on_c, 3, 46, 0
12, 735845, Note_on_c, 3, 48, 59
12, 736205, Note_on_c, 3, 48, 0
12, 736338, Note_on_c, 3, 50, 62
12, 736698, Note_on_c, 3, 50, 0
12, 736809, Note_on_c, 3, 52, 80
12, 737169, Note_on_c, 3, 52, 0
12, 737297, Note_on_c, 3, 42, 44
12, 737657, Note_on_c, 3, 42, 0
12, 737766, Note_on_c, 3, 44, 55
12, 738126, Note_on_c, 3, 44, 0
12, 738256, Note_on_c, 3, 46, 60
12, 738616, Note_on_c, 3, 46, 0
12, 738724, Note_on_c, 3, 42, 57
12, 739084, Note_on_c, 3, 42, 0
12, 739201, Note_on_c, 3, 44, 62
12, 739561, Note_on_c, 3, 44, 0
12, 739700, Note_on_c, 3, 46, 56
12, 740060, Note_on_c, 3, 46, 0
12, 740163, Note_on_c, 3, 42, 56
12, 740523, Note_on_c, 3, 42, 0
12, 740652, Note_on_c, 3, 44, 49
12, 741012, Note_on_c, 3, 44, 0
12, 741121, Note_on_c, 3, 46, 68
12, 741481, Note_on_c, 3, 46, 0
12, 741602, Note_on_c, 3, 48, 56
12, 741962, Note_on_c, 3, 48, 0
12, 742086, Note_on_c, 3, 50, 71
12, 742446, Note_on_c, 3, 50, 0
12, 742580, Note_on_c, 3, 52, 74
12, 742940, Note_on_c, 3, 52, 0
12, 743043, Note_on_c, 3, 42, 39
12, 743403, Note_on_c, 3, 42, 0
12, 743526, Note_on_c, 3, 44, 56
12, 743886, Note_on_c, 3, 44, 0
12, 744016, Note_on_c, 3, 46, 45
12, 744376, Note_on_c, 3, 46, 0
12, 744496, Note_on_c, 3, 42, 53
12, 744856, Note_on_c, 3, 42, 0
12, 744967, Note_on_c, 3, 44, 47
12, 745327, Note_on_c, 3, 44, 0
12, 745465, Note_on_c, 3, 46, 68
12, 745825, Note_on_c, 3, 46, 0
12, 745934, Note_on_c, 3, 48, 62
12, 746294, Note_on_c, 3, 48, 0
12, 746424, Note_on_c, 3, 50, 66
12, 746784, Note_on_c, 3, 50, 0
12, 746899, Note_on_c, 3, 52, 77
12, 747259, Note_on_c, 3, 52, 0
12, 747368, Note_on_c, 3, 42, 49
12, 747728, Note_on_c, 3, 42, 0
12, 747851, Note_on_c, 3, 44, 50
12, 748211, Note_on_c, 3, 44, 0
12, 748324, Note_on_c, 3, 46, 58
12, 748684, Note_on_c, 3, 46, 0
12, 748817, Note_on_c, 3, 48, 67
12, 749177, Note_on_c, 3, 48, 0
12, 749305, Note_on_c, 3, 50, 67
12, 749665, Note_on_c, 3, 50, 0
12, 749767, Note_on_c, 3, 52, 78
12, 750127, Note_on_c, 3, 52, 0
12, 750251, Note_on_c, 3, 42, 46
12, 750611, Note_on_c, 3, 42, 0
12, 750734, Note_on_c, 3, 44, 48
12, 751094, Note_on_c, 3, 44, 0
12, 751215, Note_on_c, 3, 46, 66
12, 751575, Note_on_c, 3, 46, 0
12, 751701, Note_on_c, 3, 48, 64
12, 752061, Note_on_c, 3, 48, 0
12, 752163, Note_on_c, 3, 50, 71
12, 752523, Note_on_c, 3, 50, 0
12, 752646, Note_on_c, 3, 52, 68
12, 753006, Note_on_c, 3, 52, 0
12, 753137, Note_on_c, 3, 42, 47
12, 753497, Note_on_c, 3, 42, 0
12, 753624, Note_on_c, 3, 44, 47
12, 753984, Note_on_c, 3, 44, 0
12, 754102, Note_on_c, 3, 46, 55
12, 754462, Note_on_c, 3, 46, 0
12, 754580, Note_on_c, 3, 42, 59
12, 754940, Note_on_c, 3, 42, 0
12, 755055, Note_on_c, 3, 44, 48
12, 755415, Note_on_c, 3, 44, 0
12, 755538, Note_on_c, 3, 46, 70
12, 755898, Note_on_c, 3, 46, 0
12, 756001, Note_on_c, 3, 48, 67
12, 756361, Note_on_c, 3, 48, 0
12, 756480, Note_on_c, 3, 50, 60
12, 756840, Note_on_c, 3, 50, 0
12, 756967, Note_on_c, 3, 52, 68
12, 757327, Note_on_c, 3, 52, 0
12, 757459, Note_on_c, 3, 42, 54
12, 757819, Note_on_c, 3, 42, 0
12, 757936, Note_on_c, 3, 44, 56
12, 758296, Note_on_c, 3, 44, 0
12, 758414, Note_on_c, 3, 46, 48
12, 758774, Note_on_c, 3, 46, 0
12, 758902, Note_on_c, 3, 42, 49
12, 759262, Note_on_c, 3, 42, 0
12, 759381, Note_on_c, 3, 44, 63
12, 759741, Note_on_c, 3, 44, 0
12, 759860, Note_on_c, 3, 46, 66
12, 760220, Note_on_c, 3, 46, 0
12, 760341, Note_on_c, 3, 48, 69
12, 760701, Note_on_c, 3, 48, 0
12, 760808, Note_on_c, 3, 50, 76
12, 761168, Note_on_c, 3, 50, 0
12, 761297, Note_on_c, 3, 52, 83
12, 761657, Note_on_c, 3, 52, 0
12, 761765, Note_on_c, 3, 42, 44
12, 762125, Note_on_c, 3, 42, 0
12, 762258, Note_on_c, 3, 44, 64
12, 762618, Note_on_c, 3, 44, 0
12, 762725, Note_on_c, 3, 46, 63
12, 763085, Note_on_c, 3, 46, 0
12, 763215, Note_on_c, 3, 48, 55
12, 763575, Note_on_c, 3, 48, 0
12, 763694, Note_on_c, 3, 50, 61
12, 764054, Note_on_c, 3, 50, 0
12, 764177, Note_on_c, 3, 52, 86
12, 764537, Note_on_c, 3, 52, 0
12, 764665, Note_on_c, 3, 42, 107
12, 764774, Note_on_c, 3, 65, 120
12, 764890, Note_on_c, 3, 67, 124
12, 764894, Note_on_c, 3, 65, 0
12, 765010, Note_on_c, 3, 67, 0
12, 765013, Note_on_c, 3, 68, 116
12, 765133, Note_on_c, 3, 68, 0
12, 765135, Note_on_c, 3, 44, 117
12, 765144, Note_on_c, 3, 70, 120
12, 765145, Note_on_c, 3, 42, 0
12, 765241, Note_on_c, 3, 68, 120
12, 765264, Note_on_c, 3, 70, 0
12, 765361, Note_on_c, 3, 68, 0
12, 765365, Note_on_c, 3, 67, 108
12, 765485, Note_on_c, 3, 67, 0
12, 765500, Note_on_c, 3, 65, 110
12, 765611, Note_on_c, 3, 68, 110
12, 765615, Note_on_c, 3, 44, 0
12, 765617, Note_on_c, 3, 46, 105
12, 765620, Note_on_c, 3, 65, 0
12, 765731, Note_on_c, 3, 68, 0
12, 766097, Note_on_c, 3, 46, 0
12, 766099, Note_on_c, 3, 48, 119
12, 766214, Note_on_c, 3, 65, 111
12, 766334, Note_on_c, 3, 65, 0
12, 766334, Note_on_c, 3, 67, 123
12, 766454, Note_on_c, 3, 67, 0
12, 766459, Note_on_c, 3, 68, 119
12, 766561, Note_on_c, 3, 70, 123
12, 766570, Note_on_c, 3, 50, 115
12, 766579, Note_on_c, 3, 48, 0
12, 766579, Note_on_c, 3, 68, 0
12, 766681, Note_on_c, 3, 70, 0
12, 766703, Note_on_c, 3, 68, 122
12, 766802, Note_on_c, 3, 67, 116
12, 766823, Note_on_c, 3, 68, 0
12, 766922, Note_on_c, 3, 67, 0
12, 766932, Note_on_c, 3, 65, 105
12, 767040, Note_on_c, 3, 68, 118
12, 767045, Note_on_c, 3, 52, 119
12, 767050, Note_on_c, 3, 50, 0
12, 767052, Note_on_c, 3, 65, 0
12, 767160, Note_on_c, 3, 68, 0
12, 767524, Note_on_c, 3, 70, 123
12, 767525, Note_on_c, 3, 52, 0
12, 767533, Note_on_c, 3, 42, 113
12, 767644, Note_on_c, 3, 70, 0
12, 767656, Note_on_c, 3, 68, 105
12, 767774, Note_on_c, 3, 67, 111
12, 767776, Note_on_c, 3, 68, 0
12, 767892, Note_on_c, 3, 65, 111
12, 767894, Note_on_c, 3, 67, 0
12, 768012, Note_on_c, 3, 65, 0
12, 768013, Note_on_c, 3, 42, 0
12, 768014, Note_on_c, 3, 68, 123
12, 768021, Note_on_c, 3, 44, 106
12, 768130, Note_on_c, 3, 64, 107
12, 768134, Note_on_c, 3, 68, 0
12, 768250, Note_on_c, 3, 64, 0
12, 768254, Note_on_c, 3, 65, 104
12, 768365, Note_on_c, 3, 67, 112
12, 768374, Note_on_c, 3, 65, 0
12, 768485, Note_on_c, 3, 67, 0
12, 768485, Note_on_c, 3, 70, 121
12, 768499, Note_on_c, 3, 46, 104
12, 768501, Note_on_c, 3, 44, 0
12, 768605, Note_on_c, 3, 70, 0
12, 768620, Note_on_c, 3, 68, 106
12, 768736, Note_on_c, 3, 67, 114
12, 768740, Note_on_c, 3, 68, 0
12, 768856, Note_on_c, 3, 67, 0
12, 768856, Note_on_c, 3, 65, 112
12, 768967, Note_on_c, 3, 48, 119
12, 768969, Note_on_c, 3, 68, 105
12, 768976, Note_on_c, 3, 65, 0
12, 768979, Note_on_c, 3, 46, 0
12, 769089, Note_on_c, 3, 68, 0
12, 769441, Note_on_c, 3, 64, 120
12, 769447, Note_on_c, 3, 48, 0
12, 769449, Note_on_c, 3, 50, 107
12, 769561, Note_on_c, 3, 64, 0
12, 769567, Note_on_c, 3, 65, 107
12, 769687, Note_on_c, 3, 65, 0
12, 769693, Note_on_c, 3, 67, 107
12, 769813, Note_on_c, 3, 67, 0
12, 769820, Note_on_c, 3, 68, 109
12, 769927, Note_on_c, 3, 70, 114
12, 769929, Note_on_c, 3, 50, 0
12, 769940, Note_on_c, 3, 68, 0
12, 769945, Note_on_c, 3, 52, 110
12, 770047, Note_on_c, 3, 70, 0
12, 770063, Note_on_c, 3, 68, 116
12, 770166, Note_on_c, 3, 67, 117
12, 770183, Note_on_c, 3, 68, 0
12, 770286, Note_on_c, 3, 67, 0
12, 770297, Note_on_c, 3, 65, 116
12, 770405, Note_on_c, 3, 54, 120
12, 770411, Note_on_c, 3, 64, 115
12, 770417, Note_on_c, 3, 65, 0
12, 770425, Note_on_c, 3, 52, 0
12, 770531, Note_on_c, 3, 64, 0
12, 770544, Note_on_c, 3, 65, 113
12, 770664, Note_on_c, 3, 65, 0
12, 770664, Note_on_c, 3, 67, 123
12, 770765, Note_on_c, 3, 68, 108
12, 770784, Note_on_c, 3, 67, 0
12, 770885, Note_on_c, 3, 54, 0
12, 770885, Note_on_c, 3, 68, 0
12, 770885, Note_on_c, 3, 56, 108
12, 770895, Note_on_c, 3, 70, 114
12, 771015, Note_on_c, 3, 70, 0
12, 771018, Note_on_c, 3, 68, 115
12, 771138, Note_on_c, 3, 68, 0
12, 771140, Note_on_c, 3, 67, 105
12, 771250, Note_on_c, 3, 65, 109
12, 771260, Note_on_c, 3, 67, 0
12, 771365, Note_on_c, 3, 56, 0
12, 771367, Note_on_c, 3, 58, 112
12, 771370, Note_on_c, 3, 65, 0
12, 771378, Note_on_c, 3, 68, 109
12, 771498, Note_on_c, 3, 68, 0
12, 771847, Note_on_c, 3, 58, 0
12, 771859, Note_on_c, 3, 60, 123
12, 771977, Note_on_c, 3, 65, 112
12, 772081, Note_on_c, 3, 67, 113
12, 772097, Note_on_c, 3, 65, 0
12, 772201, Note_on_c, 3, 67, 0
12, 772214, Note_on_c, 3, 68, 124
12, 772320, Note_on_c, 3, 62, 105
12, 772331, Note_on_c, 3, 70, 114
12, 772334, Note_on_c, 3, 68, 0
12, 772339, Note_on_c, 3, 60, 0
12, 772451, Note_on_c, 3, 70, 0
12, 772462, Note_on_c, 3, 68, 118
12, 772580, Note_on_c, 3, 67, 113
12, 772582, Note_on_c, 3, 68, 0
12, 772699, Note_on_c, 3, 65, 107
12, 772700, Note_on_c, 3, 67, 0
12, 772800, Note_on_c, 3, 62, 0
12, 772808, Note_on_c, 3, 68, 114
12, 772819, Note_on_c, 3, 65, 0
12, 772822, Note_on_c, 3, 64, 106
12, 772928, Note_on_c, 3, 68, 0
12, 773302, Note_on_c, 3, 64, 0
12, 773302, End_track
13, 0, Start_track
13, 0, Title_t, "Fagotti - Controfagotti"
13, 0, MIDI_port, 0
13, 0, Program_c, 4, 70
13, 0, Control_c, 4, 7, 75
13, 0, Control_c, 4, 10, 84
13, 0, Control_c, 4, 91, 64
13, 0, Control_c, 4, 11, 41
13, 6, Note_on_c, 4, 72, 54
13, 12, Control_c, 4, 11, 43
13, 24, Control_c, 4, 11, 48
13, 36, Control_c, 4, 11, 54
13, 52, Control_c, 4, 11, 61
13, 65, Control_c, 4, 11, 68
13, 81, Control_c, 4, 11, 77
13, 85, Control_c, 4, 11, 79
13, 89, Control_c, 4, 11, 84
13, 93, Control_c, 4, 11, 85
13, 97, Control_c, 4, 11, 89
13, 105, Control_c, 4, 11, 93
13, 109, Control_c, 4, 11, 96
13, 117, Control_c, 4, 11, 99
13, 122, Control_c, 4, 11, 109
13, 126, Control_c, 4, 11, 115
13, 134, Control_c, 4, 11, 119
13, 138, Control_c, 4, 11, 121
13, 142, Control_c, 4, 11, 123
13, 146, Control_c, 4, 11, 126
13, 150, Control_c, 4, 11, 127
13, 154, Control_c, 4, 11, 127
13, 420, Note_on_c, 4, 71, 68
13, 426, Note_on_c, 4, 72, 0
13, 450, Note_on_c, 4, 72, 60
13, 460, Note_on_c, 4, 71, 0
13, 491, Note_on_c, 4, 71, 52
13, 505, Note_on_c, 4, 72, 0
13, 611, Note_on_c, 4, 71, 0
13, 612, Note_on_c, 4, 67, 57
13, 725, Note_on_c, 4, 64, 68
13, 732, Note_on_c, 4, 67, 0
13, 843, Note_on_c, 4, 71, 57
13, 845, Note_on_c, 4, 64, 0
13, 934, Note_on_c, 4, 69, 64
13, 963, Note_on_c, 4, 71, 0
13, 1120, Note_on_c, 4, 72, 55
13, 1128, Note_on_c, 4, 69, 0
13, 1220, Note_on_c, 4, 72, 0
13, 1220, Note_on_c, 4, 71, 52
13, 1250, Note_on_c, 4, 72, 53
13, 1261, Note_on_c, 4, 71, 0
13, 1287, Note_on_c, 4, 71, 59
13, 1300, Note_on_c, 4, 72, 0
13, 1446, Note_on_c, 4, 71, 0
13, 1452, Note_on_c, 4, 67, 67
13, 1611, Note_on_c, 4, 67, 0
13, 1612, Note_on_c, 4, 64, 67
13, 1772, Note_on_c, 4, 64, 0
13, 1785, Note_on_c, 4, 71, 61
13, 1931, Note_on_c, 4, 69, 70
13, 1944, Note_on_c, 4, 71, 0
13, 2171, Note_on_c, 4, 69, 0
13, 2181, Note_on_c, 4, 72, 68
13, 2340, Note_on_c, 4, 71, 68
13, 2361, Note_on_c, 4, 72, 0
13, 2370, Note_on_c, 4, 72, 60
13, 2400, Note_on_c, 4, 71, 0
13, 2409, Note_on_c, 4, 71, 69
13, 2429, Note_on_c, 4, 72, 0
13, 2651, Note_on_c, 4, 69, 59
13, 2674, Note_on_c, 4, 71, 0
13, 2891, Note_on_c, 4, 69, 0
13, 2905, Note_on_c, 4, 74, 58
13, 3090, Note_on_c, 4, 67, 52
13, 3115, Note_on_c, 4, 74, 0
13, 3136, Note_on_c, 4, 69, 62
13, 3151, Note_on_c, 4, 67, 0
13, 3360, Note_on_c, 4, 72, 57
13, 3376, Note_on_c, 4, 69, 0
13, 3395, Note_on_c, 4, 71, 54
13, 3407, Note_on_c, 4, 72, 0
13, 3425, Note_on_c, 4, 72, 66
13, 3439, Note_on_c, 4, 71, 0
13, 3466, Note_on_c, 4, 71, 62
13, 3479, Note_on_c, 4, 72, 0
13, 3561, Note_on_c, 4, 71, 0
13, 3562, Note_on_c, 4, 67, 62
13, 3658, Note_on_c, 4, 67, 0
13, 3662, Note_on_c, 4, 64, 60
13, 3751, Note_on_c, 4, 71, 68
13, 3757, Note_on_c, 4, 64, 0
13, 3850, Note_on_c, 4, 69, 52
13, 3859, Control_c, 4, 11, 126
13, 3870, Note_on_c, 4, 71, 0
13, 3879, Control_c, 4, 11, 125
13, 3898, Control_c, 4, 11, 124
13, 3918, Control_c, 4, 11, 123
13, 3938, Control_c, 4, 11, 122
13, 3958, Control_c, 4, 11, 121
13, 3978, Control_c, 4, 11, 120
13, 3997, Control_c, 4, 11, 119
13, 4017, Control_c, 4, 11, 118
13, 4036, Control_c, 4, 11, 117
13, 4056, Control_c, 4, 11, 116
13, 4076, Control_c, 4, 11, 115
13, 4096, Control_c, 4, 11, 114
13, 4115, Control_c, 4, 11, 113
13, 4135, Control_c, 4, 11, 112
13, 4155, Control_c, 4, 11, 111
13, 4175, Control_c, 4, 11, 110
13, 4194, Control_c, 4, 11, 109
13, 4215, Control_c, 4, 11, 108
13, 4234, Control_c, 4, 11, 107
13, 4254, Control_c, 4, 11, 106
13, 4273, Control_c, 4, 11, 105
13, 4293, Control_c, 4, 11, 104
13, 4313, Control_c, 4, 11, 103
13, 4333, Control_c, 4, 11, 102
13, 4352, Control_c, 4, 11, 101
13, 4372, Control_c, 4, 11, 100
13, 4391, Control_c, 4, 11, 99
13, 4411, Control_c, 4, 11, 98
13, 4431, Control_c, 4, 11, 97
13, 4451, Control_c, 4, 11, 96
13, 4471, Control_c, 4, 11, 95
13, 4490, Control_c, 4, 11, 94
13, 4510, Control_c, 4, 11, 93
13, 4530, Control_c, 4, 11, 92
13, 4550, Control_c, 4, 11, 91
13, 4569, Control_c, 4, 11, 90
13, 4589, Control_c, 4, 11, 89
13, 4608, Control_c, 4, 11, 88
13, 4628, Control_c, 4, 11, 87
13, 4648, Control_c, 4, 11, 86
13, 4668, Control_c, 4, 11, 85
13, 4687, Control_c, 4, 11, 84
13, 4707, Control_c, 4, 11, 83
13, 4727, Control_c, 4, 11, 82
13, 4747, Control_c, 4, 11, 81
13, 4766, Control_c, 4, 11, 80
13, 4786, Control_c, 4, 11, 79
13, 4806, Control_c, 4, 11, 78
13, 4826, Control_c, 4, 11, 77
13, 4845, Control_c, 4, 11, 76
13, 4865, Control_c, 4, 11, 75
13, 4885, Control_c, 4, 11, 74
13, 4905, Control_c, 4, 11, 73
13, 4924, Control_c, 4, 11, 72
13, 4930, Note_on_c, 4, 69, 0
13, 4944, Control_c, 4, 11, 71
13, 4964, Control_c, 4, 11, 70
13, 4983, Control_c, 4, 11, 69
13, 5003, Control_c, 4, 11, 68
13, 5023, Control_c, 4, 11, 67
13, 5041, Note_on_c, 4, 72, 71
13, 5043, Control_c, 4, 11, 66
13, 5062, Control_c, 4, 11, 65
13, 5110, Control_c, 4, 11, 65
13, 5120, Control_c, 4, 11, 66
13, 5131, Control_c, 4, 11, 67
13, 5142, Control_c, 4, 11, 68
13, 5152, Control_c, 4, 11, 69
13, 5163, Control_c, 4, 11, 70
13, 5173, Control_c, 4, 11, 71
13, 5184, Control_c, 4, 11, 72
13, 5195, Control_c, 4, 11, 73
13, 5205, Control_c, 4, 11, 74
13, 5216, Control_c, 4, 11, 75
13, 5227, Control_c, 4, 11, 76
13, 5237, Control_c, 4, 11, 77
13, 5248, Control_c, 4, 11, 78
13, 5259, Control_c, 4, 11, 79
13, 5269, Control_c, 4, 11, 80
13, 5280, Control_c, 4, 11, 81
13, 5290, Control_c, 4, 11, 82
13, 5301, Control_c, 4, 11, 83
13, 5311, Control_c, 4, 11, 84
13, 5322, Control_c, 4, 11, 85
13, 5333, Control_c, 4, 11, 86
13, 5343, Control_c, 4, 11, 87
13, 5354, Control_c, 4, 11, 88
13, 5365, Control_c, 4, 11, 89
13, 5375, Control_c, 4, 11, 90
13, 5386, Control_c, 4, 11, 91
13, 5396, Control_c, 4, 11, 92
13, 5407, Control_c, 4, 11, 93
13, 5418, Control_c, 4, 11, 94
13, 5428, Control_c, 4, 11, 95
13, 5439, Control_c, 4, 11, 96
13, 5450, Control_c, 4, 11, 97
13, 5460, Control_c, 4, 11, 98
13, 5471, Control_c, 4, 11, 99
13, 5481, Control_c, 4, 11, 100
13, 5491, Control_c, 4, 11, 101
13, 5503, Control_c, 4, 11, 102
13, 5513, Control_c, 4, 11, 103
13, 5523, Control_c, 4, 11, 104
13, 5535, Control_c, 4, 11, 105
13, 5545, Control_c, 4, 11, 106
13, 5555, Control_c, 4, 11, 107
13, 5566, Control_c, 4, 11, 108
13, 5577, Control_c, 4, 11, 109
13, 5587, Control_c, 4, 11, 110
13, 5598, Control_c, 4, 11, 111
13, 5608, Control_c, 4, 11, 112
13, 5619, Control_c, 4, 11, 113
13, 5630, Control_c, 4, 11, 114
13, 5640, Control_c, 4, 11, 115
13, 5651, Control_c, 4, 11, 116
13, 5662, Control_c, 4, 11, 117
13, 5672, Control_c, 4, 11, 118
13, 5683, Control_c, 4, 11, 119
13, 5694, Control_c, 4, 11, 120
13, 5704, Control_c, 4, 11, 121
13, 5715, Control_c, 4, 11, 122
13, 5725, Control_c, 4, 11, 123
13, 5736, Control_c, 4, 11, 124
13, 5746, Control_c, 4, 11, 125
13, 5757, Control_c, 4, 11, 126
13, 5795, Note_on_c, 4, 71, 53
13, 5796, Note_on_c, 4, 72, 0
13, 5825, Note_on_c, 4, 72, 65
13, 5837, Note_on_c, 4, 71, 0
13, 5875, Note_on_c, 4, 71, 56
13, 5879, Note_on_c, 4, 72, 0
13, 5951, Note_on_c, 4, 67, 72
13, 5970, Note_on_c, 4, 71, 0
13, 6047, Note_on_c, 4, 67, 0
13, 6055, Note_on_c, 4, 71, 63
13, 6113, Note_on_c, 4, 72, 59
13, 6120, Note_on_c, 4, 71, 0
13, 6165, Note_on_c, 4, 70, 70
13, 6178, Note_on_c, 4, 72, 0
13, 6260, Note_on_c, 4, 70, 0
13, 6262, Note_on_c, 4, 69, 69
13, 6369, Note_on_c, 4, 72, 53
13, 6411, Note_on_c, 4, 70, 67
13, 6421, Note_on_c, 4, 69, 0
13, 6422, Note_on_c, 4, 72, 0
13, 6566, Note_on_c, 4, 69, 58
13, 6571, Note_on_c, 4, 70, 0
13, 6725, Note_on_c, 4, 69, 0
13, 6725, Note_on_c, 4, 66, 65
13, 6965, Note_on_c, 4, 66, 0
13, 6965, Note_on_c, 4, 72, 56
13, 7085, Note_on_c, 4, 72, 0
13, 8984, Note_on_c, 4, 72, 55
13, 9540, Note_on_c, 4, 71, 53
13, 9563, Note_on_c, 4, 72, 0
13, 9570, Note_on_c, 4, 72, 60
13, 9600, Note_on_c, 4, 71, 0
13, 9614, Note_on_c, 4, 71, 63
13, 9630, Note_on_c, 4, 72, 0
13, 9731, Note_on_c, 4, 67, 59
13, 9734, Note_on_c, 4, 71, 0
13, 9851, Note_on_c, 4, 67, 0
13, 9851, Note_on_c, 4, 64, 52
13, 9960, Note_on_c, 4, 71, 56
13, 9971, Note_on_c, 4, 64, 0
13, 10087, Note_on_c, 4, 69, 71
13, 10104, Note_on_c, 4, 71, 0
13, 10327, Note_on_c, 4, 69, 0
13, 10341, Note_on_c, 4, 72, 65
13, 10500, Note_on_c, 4, 71, 60
13, 10521, Note_on_c, 4, 72, 0
13, 10530, Note_on_c, 4, 72, 68
13, 10539, Note_on_c, 4, 71, 0
13, 10564, Note_on_c, 4, 71, 56
13, 10587, Note_on_c, 4, 72, 0
13, 10804, Note_on_c, 4, 71, 0
13, 10807, Note_on_c, 4, 69, 69
13, 11047, Note_on_c, 4, 69, 0
13, 11064, Note_on_c, 4, 74, 56
13, 11227, Note_on_c, 4, 67, 52
13, 11274, Note_on_c, 4, 74, 0
13, 11284, Note_on_c, 4, 69, 62
13, 11307, Note_on_c, 4, 67, 0
13, 11520, Note_on_c, 4, 72, 70
13, 11524, Note_on_c, 4, 69, 0
13, 11555, Note_on_c, 4, 71, 70
13, 11570, Note_on_c, 4, 72, 0
13, 11585, Note_on_c, 4, 72, 54
13, 11608, Note_on_c, 4, 71, 0
13, 11631, Note_on_c, 4, 71, 71
13, 11647, Note_on_c, 4, 72, 0
13, 11723, Note_on_c, 4, 67, 65
13, 11726, Note_on_c, 4, 71, 0
13, 11819, Note_on_c, 4, 67, 0
13, 11829, Note_on_c, 4, 64, 71
13, 11924, Note_on_c, 4, 64, 0
13, 11928, Note_on_c, 4, 71, 55
13, 11990, Control_c, 4, 11, 126
13, 12000, Control_c, 4, 11, 125
13, 12011, Control_c, 4, 11, 124
13, 12020, Note_on_c, 4, 69, 57
13, 12021, Control_c, 4, 11, 123
13, 12032, Control_c, 4, 11, 122
13, 12040, Note_on_c, 4, 71, 0
13, 12043, Control_c, 4, 11, 121
13, 12053, Control_c, 4, 11, 120
13, 12063, Control_c, 4, 11, 119
13, 12075, Control_c, 4, 11, 118
13, 12085, Control_c, 4, 11, 117
13, 12095, Control_c, 4, 11, 116
13, 12106, Control_c, 4, 11, 115
13, 12116, Control_c, 4, 11, 114
13, 12127, Control_c, 4, 11, 113
13, 12138, Control_c, 4, 11, 112
13, 12148, Control_c, 4, 11, 111
13, 12159, Control_c, 4, 11, 110
13, 12169, Control_c, 4, 11, 109
13, 12180, Control_c, 4, 11, 108
13, 12191, Control_c, 4, 11, 107
13, 12201, Control_c, 4, 11, 106
13, 12211, Control_c, 4, 11, 105
13, 12222, Control_c, 4, 11, 104
13, 12233, Control_c, 4, 11, 103
13, 12243, Control_c, 4, 11, 102
13, 12254, Control_c, 4, 11, 101
13, 12264, Control_c, 4, 11, 100
13, 12275, Control_c, 4, 11, 99
13, 12285, Control_c, 4, 11, 98
13, 12296, Control_c, 4, 11, 97
13, 12306, Control_c, 4, 11, 96
13, 12317, Control_c, 4, 11, 95
13, 12328, Control_c, 4, 11, 94
13, 12338, Control_c, 4, 11, 93
13, 12348, Control_c, 4, 11, 92
13, 12360, Control_c, 4, 11, 91
13, 12370, Control_c, 4, 11, 90
13, 12380, Control_c, 4, 11, 89
13, 12391, Control_c, 4, 11, 88
13, 12401, Control_c, 4, 11, 87
13, 12412, Control_c, 4, 11, 86
13, 12423, Control_c, 4, 11, 85
13, 12433, Control_c, 4, 11, 84
13, 12444, Control_c, 4, 11, 83
13, 12455, Control_c, 4, 11, 82
13, 12465, Control_c, 4, 11, 81
13, 12476, Control_c, 4, 11, 80
13, 12486, Control_c, 4, 11, 79
13, 12496, Control_c, 4, 11, 78
13, 12507, Control_c, 4, 11, 77
13, 12518, Control_c, 4, 11, 76
13, 12528, Control_c, 4, 11, 75
13, 12539, Control_c, 4, 11, 74
13, 12549, Control_c, 4, 11, 73
13, 12560, Control_c, 4, 11, 72
13, 12570, Control_c, 4, 11, 71
13, 12581, Control_c, 4, 11, 70
13, 12592, Control_c, 4, 11, 69
13, 12602, Control_c, 4, 11, 68
13, 12613, Control_c, 4, 11, 67
13, 12623, Control_c, 4, 11, 66
13, 12634, Control_c, 4, 11, 65
13, 12645, Control_c, 4, 11, 64
13, 12655, Control_c, 4, 11, 63
13, 12665, Control_c, 4, 11, 62
13, 12676, Control_c, 4, 11, 61
13, 12686, Control_c, 4, 11, 60
13, 12697, Control_c, 4, 11, 59
13, 12708, Control_c, 4, 11, 58
13, 12718, Control_c, 4, 11, 57
13, 12729, Control_c, 4, 11, 56
13, 12740, Control_c, 4, 11, 55
13, 12750, Control_c, 4, 11, 54
13, 12761, Control_c, 4, 11, 53
13, 12771, Control_c, 4, 11, 52
13, 12781, Control_c, 4, 11, 51
13, 12793, Control_c, 4, 11, 50
13, 12803, Control_c, 4, 11, 49
13, 12813, Control_c, 4, 11, 48
13, 12824, Control_c, 4, 11, 47
13, 12835, Control_c, 4, 11, 46
13, 12845, Control_c, 4, 11, 45
13, 12856, Control_c, 4, 11, 44
13, 12866, Control_c, 4, 11, 43
13, 12877, Control_c, 4, 11, 42
13, 12887, Control_c, 4, 11, 41
13, 12898, Control_c, 4, 11, 40
13, 12908, Control_c, 4, 11, 39
13, 12919, Control_c, 4, 11, 38
13, 12930, Control_c, 4, 11, 37
13, 12940, Control_c, 4, 11, 36
13, 12950, Control_c, 4, 11, 35
13, 12961, Control_c, 4, 11, 34
13, 12971, Control_c, 4, 11, 33
13, 14863, Control_c, 4, 11, 33
13, 14887, Control_c, 4, 11, 35
13, 14903, Control_c, 4, 11, 36
13, 14924, Control_c, 4, 11, 37
13, 14932, Control_c, 4, 11, 39
13, 14944, Control_c, 4, 11, 40
13, 14956, Control_c, 4, 11, 41
13, 14972, Control_c, 4, 11, 44
13, 15001, Control_c, 4, 11, 49
13, 15017, Control_c, 4, 11, 51
13, 15033, Control_c, 4, 11, 52
13, 15054, Control_c, 4, 11, 55
13, 15058, Control_c, 4, 11, 56
13, 15070, Control_c, 4, 11, 59
13, 15086, Control_c, 4, 11, 63
13, 15107, Control_c, 4, 11, 66
13, 15115, Control_c, 4, 11, 69
13, 15127, Control_c, 4, 11, 72
13, 15131, Control_c, 4, 11, 73
13, 15143, Control_c, 4, 11, 74
13, 15155, Control_c, 4, 11, 77
13, 15172, Control_c, 4, 11, 80
13, 15184, Control_c, 4, 11, 83
13, 15196, Control_c, 4, 11, 86
13, 15200, Control_c, 4, 11, 87
13, 15212, Control_c, 4, 11, 88
13, 15216, Control_c, 4, 11, 90
13, 15233, Control_c, 4, 11, 92
13, 15241, Control_c, 4, 11, 95
13, 15261, Control_c, 4, 11, 98
13, 15273, Control_c, 4, 11, 101
13, 15277, Control_c, 4, 11, 104
13, 15290, Control_c, 4, 11, 107
13, 15294, Control_c, 4, 11, 109
13, 15298, Control_c, 4, 11, 111
13, 15310, Control_c, 4, 11, 114
13, 15318, Control_c, 4, 11, 118
13, 15330, Control_c, 4, 11, 121
13, 15334, Control_c, 4, 11, 122
13, 15338, Control_c, 4, 11, 125
13, 15343, Control_c, 4, 11, 127
13, 15351, Note_on_c, 4, 69, 0
13, 15355, Control_c, 4, 11, 127
13, 15359, Control_c, 4, 11, 127
13, 15360, Control_c, 4, 11, 127
13, 15365, Note_on_c, 4, 74, 62
13, 15537, Note_on_c, 4, 67, 57
13, 15575, Note_on_c, 4, 74, 0
13, 15583, Note_on_c, 4, 69, 58
13, 15596, Note_on_c, 4, 67, 0
13, 15840, Note_on_c, 4, 72, 66
13, 15859, Note_on_c, 4, 69, 0
13, 15871, Note_on_c, 4, 71, 64
13, 15888, Note_on_c, 4, 72, 0
13, 15905, Note_on_c, 4, 72, 69
13, 15930, Note_on_c, 4, 71, 0
13, 15953, Note_on_c, 4, 71, 69
13, 15956, Note_on_c, 4, 72, 0
13, 16042, Note_on_c, 4, 67, 60
13, 16048, Note_on_c, 4, 71, 0
13, 16138, Note_on_c, 4, 67, 0
13, 16152, Note_on_c, 4, 64, 65
13, 16244, Note_on_c, 4, 71, 58
13, 16247, Note_on_c, 4, 64, 0
13, 16336, Note_on_c, 4, 69, 61
13, 16339, Note_on_c, 4, 71, 0
13, 16812, Note_on_c, 4, 59, 78
13, 16815, Note_on_c, 4, 54, 66
13, 17040, Note_on_c, 4, 69, 78
13, 17056, Note_on_c, 4, 69, 0
13, 17439, Note_on_c, 4, 69, 0
13, 17449, Note_on_c, 4, 68, 81
13, 17451, Note_on_c, 4, 59, 0
13, 17454, Note_on_c, 4, 54, 0
13, 17460, Note_on_c, 4, 53, 72
13, 17463, Note_on_c, 4, 58, 75
13, 17570, Note_on_c, 4, 69, 71
13, 17582, Note_on_c, 4, 68, 0
13, 17603, Note_on_c, 4, 57, 75
13, 17612, Note_on_c, 4, 52, 72
13, 17616, Note_on_c, 4, 67, 71
13, 17620, Note_on_c, 4, 53, 0
13, 17623, Note_on_c, 4, 58, 0
13, 17640, Note_on_c, 4, 69, 0
13, 17762, Note_on_c, 4, 57, 0
13, 17766, Note_on_c, 4, 66, 80
13, 17771, Note_on_c, 4, 52, 0
13, 17775, Note_on_c, 4, 67, 0
13, 17775, Note_on_c, 4, 56, 72
13, 17777, Note_on_c, 4, 51, 81
13, 17889, Note_on_c, 4, 69, 77
13, 17925, Note_on_c, 4, 66, 0
13, 17928, Note_on_c, 4, 57, 85
13, 17934, Note_on_c, 4, 56, 0
13, 17934, Note_on_c, 4, 52, 73
13, 17936, Note_on_c, 4, 51, 0
13, 17942, Note_on_c, 4, 67, 72
13, 17951, Note_on_c, 4, 69, 0
13, 18087, Note_on_c, 4, 65, 66
13, 18088, Note_on_c, 4, 57, 0
13, 18094, Note_on_c, 4, 52, 0
13, 18097, Note_on_c, 4, 53, 68
13, 18099, Note_on_c, 4, 58, 83
13, 18102, Note_on_c, 4, 67, 0
13, 18240, Note_on_c, 4, 54, 76
13, 18241, Note_on_c, 4, 63, 72
13, 18246, Note_on_c, 4, 65, 0
13, 18256, Note_on_c, 4, 53, 0
13, 18258, Note_on_c, 4, 58, 0
13, 18258, Note_on_c, 4, 59, 73
13, 18399, Note_on_c, 4, 54, 0
13, 18399, Note_on_c, 4, 53, 66
13, 18411, Note_on_c, 4, 58, 72
13, 18417, Note_on_c, 4, 59, 0
13, 18481, Note_on_c, 4, 63, 0
13, 18559, Note_on_c, 4, 53, 0
13, 18571, Note_on_c, 4, 58, 0
13, 18575, Note_on_c, 4, 52, 68
13, 18580, Note_on_c, 4, 57, 81
13, 18732, Note_on_c, 4, 51, 78
13, 18734, Note_on_c, 4, 52, 0
13, 18739, Note_on_c, 4, 57, 0
13, 18741, Note_on_c, 4, 51, 76
13, 18742, Note_on_c, 4, 56, 80
13, 18884, Note_on_c, 4, 57, 65
13, 18891, Note_on_c, 4, 51, 0
13, 18891, Note_on_c, 4, 52, 79
13, 18900, Note_on_c, 4, 51, 0
13, 18901, Note_on_c, 4, 56, 0
13, 18966, Note_on_c, 4, 53, 72
13, 18971, Note_on_c, 4, 52, 0
13, 19044, Note_on_c, 4, 57, 0
13, 19060, Note_on_c, 4, 58, 70
13, 19206, Note_on_c, 4, 53, 0
13, 19209, Note_on_c, 4, 57, 79
13, 19215, Note_on_c, 4, 52, 65
13, 19219, Note_on_c, 4, 58, 0
13, 19368, Note_on_c, 4, 57, 0
13, 19373, Note_on_c, 4, 56, 80
13, 19374, Note_on_c, 4, 52, 0
13, 19383, Note_on_c, 4, 51, 84
13, 19533, Note_on_c, 4, 56, 0
13, 19534, Note_on_c, 4, 50, 73
13, 19538, Note_on_c, 4, 55, 83
13, 19543, Note_on_c, 4, 51, 0
13, 19693, Note_on_c, 4, 50, 0
13, 19693, Note_on_c, 4, 49, 65
13, 19694, Note_on_c, 4, 54, 73
13, 19697, Note_on_c, 4, 55, 0
13, 19704, Note_on_c, 4, 54, 66
13, 19852, Note_on_c, 4, 49, 0
13, 19853, Note_on_c, 4, 54, 0
13, 19861, Note_on_c, 4, 50, 75
13, 19863, Note_on_c, 4, 54, 0
13, 19863, Note_on_c, 4, 55, 75
13, 20012, Note_on_c, 4, 51, 84
13, 20019, Note_on_c, 4, 56, 69
13, 20021, Note_on_c, 4, 50, 0
13, 20023, Note_on_c, 4, 55, 0
13, 20171, Note_on_c, 4, 51, 0
13, 20178, Note_on_c, 4, 56, 0
13, 20184, Note_on_c, 4, 57, 83
13, 20184, Note_on_c, 4, 52, 81
13, 20325, Note_on_c, 4, 56, 84
13, 20329, Note_on_c, 4, 51, 73
13, 20343, Note_on_c, 4, 57, 0
13, 20343, Note_on_c, 4, 52, 0
13, 20485, Note_on_c, 4, 56, 0
13, 20486, Note_on_c, 4, 55, 76
13, 20489, Note_on_c, 4, 51, 0
13, 20500, Note_on_c, 4, 50, 82
13, 20645, Note_on_c, 4, 55, 0
13, 20648, Note_on_c, 4, 54, 68
13, 20648, Note_on_c, 4, 49, 77
13, 20655, Note_on_c, 4, 54, 75
13, 20659, Note_on_c, 4, 50, 0
13, 20807, Note_on_c, 4, 54, 0
13, 20807, Note_on_c, 4, 49, 0
13, 20811, Note_on_c, 4, 50, 83
13, 20814, Note_on_c, 4, 54, 0
13, 20814, Note_on_c, 4, 55, 84
13, 20967, Note_on_c, 4, 56, 72
13, 20968, Note_on_c, 4, 51, 65
13, 20971, Note_on_c, 4, 50, 0
13, 20974, Note_on_c, 4, 55, 0
13, 21122, Note_on_c, 4, 52, 80
13, 21126, Note_on_c, 4, 56, 0
13, 21127, Note_on_c, 4, 51, 0
13, 21127, Note_on_c, 4, 57, 69
13, 21281, Note_on_c, 4, 52, 0
13, 21281, Note_on_c, 4, 56, 83
13, 21286, Note_on_c, 4, 57, 0
13, 21297, Note_on_c, 4, 51, 65
13, 21441, Note_on_c, 4, 56, 0
13, 21448, Note_on_c, 4, 55, 67
13, 21457, Note_on_c, 4, 51, 0
13, 21463, Note_on_c, 4, 50, 69
13, 21607, Note_on_c, 4, 55, 0
13, 21614, Note_on_c, 4, 49, 72
13, 21620, Note_on_c, 4, 54, 70
13, 21622, Note_on_c, 4, 50, 0
13, 21766, Note_on_c, 4, 50, 77
13, 21773, Note_on_c, 4, 49, 0
13, 21774, Note_on_c, 4, 55, 78
13, 21779, Note_on_c, 4, 54, 0
13, 21926, Note_on_c, 4, 50, 0
13, 21929, Note_on_c, 4, 51, 81
13, 21934, Note_on_c, 4, 55, 0
13, 21944, Note_on_c, 4, 56, 67
13, 22082, Note_on_c, 4, 57, 74
13, 22087, Note_on_c, 4, 52, 82
13, 22088, Note_on_c, 4, 51, 0
13, 22103, Note_on_c, 4, 56, 0
13, 22241, Note_on_c, 4, 57, 0
13, 22244, Note_on_c, 4, 51, 66
13, 22246, Note_on_c, 4, 52, 0
13, 22261, Note_on_c, 4, 56, 65
13, 22404, Note_on_c, 4, 51, 0
13, 22420, Note_on_c, 4, 55, 85
13, 22420, Note_on_c, 4, 50, 77
13, 22421, Note_on_c, 4, 56, 0
13, 22564, Note_on_c, 4, 49, 71
13, 22569, Note_on_c, 4, 54, 65
13, 22579, Note_on_c, 4, 55, 0
13, 22579, Note_on_c, 4, 50, 0
13, 22721, Note_on_c, 4, 51, 84
13, 22723, Note_on_c, 4, 49, 0
13, 22728, Note_on_c, 4, 54, 0
13, 22731, Note_on_c, 4, 56, 81
13, 22881, Note_on_c, 4, 51, 0
13, 22891, Note_on_c, 4, 56, 0
13, 22902, Note_on_c, 4, 50, 82
13, 22903, Note_on_c, 4, 55, 79
13, 23046, Note_on_c, 4, 47, 69
13, 23061, Note_on_c, 4, 50, 0
13, 23062, Note_on_c, 4, 55, 0
13, 23065, Note_on_c, 4, 56, 70
13, 23286, Note_on_c, 4, 47, 0
13, 23305, Note_on_c, 4, 56, 0
13, 31685, Note_on_c, 4, 59, 82
13, 33605, Note_on_c, 4, 59, 0
13, 45141, Note_on_c, 4, 50, 82
13, 45288, Note_on_c, 4, 52, 93
13, 45300, Note_on_c, 4, 50, 0
13, 45410, Note_on_c, 4, 57, 80
13, 45440, Note_on_c, 4, 57, 0
13, 45448, Note_on_c, 4, 52, 0
13, 45454, Note_on_c, 4, 55, 90
13, 45613, Note_on_c, 4, 55, 0
13, 45624, Note_on_c, 4, 53, 93
13, 45863, Note_on_c, 4, 52, 84
13, 45864, Note_on_c, 4, 53, 0
13, 46103, Note_on_c, 4, 52, 0
13, 47055, Note_on_c, 4, 50, 82
13, 47214, Note_on_c, 4, 50, 0
13, 47218, Note_on_c, 4, 52, 79
13, 47372, Note_on_c, 4, 55, 98
13, 47378, Note_on_c, 4, 52, 0
13, 47531, Note_on_c, 4, 55, 0
13, 47544, Note_on_c, 4, 53, 92
13, 47773, Note_on_c, 4, 52, 97
13, 47784, Note_on_c, 4, 53, 0
13, 48001, Note_on_c, 4, 50, 89
13, 48013, Note_on_c, 4, 52, 0
13, 48241, Note_on_c, 4, 50, 0
13, 48252, Note_on_c, 4, 52, 79
13, 48450, Note_on_c, 4, 55, 97
13, 48480, Note_on_c, 4, 55, 0
13, 48491, Note_on_c, 4, 53, 84
13, 48492, Note_on_c, 4, 52, 0
13, 48644, Note_on_c, 4, 52, 94
13, 48650, Note_on_c, 4, 53, 0
13, 48804, Note_on_c, 4, 52, 0
13, 48823, Note_on_c, 4, 50, 82
13, 48930, Note_on_c, 4, 66, 98
13, 48952, Note_on_c, 4, 50, 0
13, 48960, Note_on_c, 4, 66, 0
13, 48973, Note_on_c, 4, 34, 79
13, 48984, Note_on_c, 4, 62, 71
13, 49080, Note_on_c, 4, 35, 82
13, 49093, Note_on_c, 4, 34, 0
13, 49137, Note_on_c, 4, 58, 68
13, 49143, Note_on_c, 4, 62, 0
13, 49200, Note_on_c, 4, 35, 0
13, 49223, Note_on_c, 4, 34, 81
13, 49250, Note_on_c, 4, 65, 84
13, 49267, Note_on_c, 4, 58, 0
13, 49280, Note_on_c, 4, 65, 0
13, 49295, Note_on_c, 4, 61, 66
13, 49342, Note_on_c, 4, 35, 74
13, 49343, Note_on_c, 4, 34, 0
13, 49446, Note_on_c, 4, 58, 79
13, 49448, Note_on_c, 4, 34, 71
13, 49454, Note_on_c, 4, 61, 0
13, 49462, Note_on_c, 4, 35, 0
13, 49569, Note_on_c, 4, 66, 82
13, 49575, Note_on_c, 4, 58, 0
13, 49599, Note_on_c, 4, 66, 0
13, 49621, Note_on_c, 4, 62, 72
13, 49688, Note_on_c, 4, 34, 0
13, 49705, Note_on_c, 4, 35, 82
13, 49776, Note_on_c, 4, 58, 66
13, 49781, Note_on_c, 4, 62, 0
13, 49890, Note_on_c, 4, 66, 77
13, 49905, Note_on_c, 4, 58, 0
13, 49920, Note_on_c, 4, 66, 0
13, 49920, Note_on_c, 4, 34, 83
13, 49932, Note_on_c, 4, 61, 71
13, 49945, Note_on_c, 4, 35, 0
13, 50040, Note_on_c, 4, 34, 0
13, 50055, Note_on_c, 4, 35, 69
13, 50086, Note_on_c, 4, 58, 81
13, 50091, Note_on_c, 4, 61, 0
13, 50165, Note_on_c, 4, 34, 74
13, 50175, Note_on_c, 4, 35, 0
13, 50210, Note_on_c, 4, 66, 65
13, 50216, Note_on_c, 4, 58, 0
13, 50240, Note_on_c, 4, 66, 0
13, 50263, Note_on_c, 4, 62, 82
13, 50285, Note_on_c, 4, 34, 0
13, 50286, Note_on_c, 4, 35, 84
13, 50402, Note_on_c, 4, 58, 72
13, 50406, Note_on_c, 4, 35, 0
13, 50422, Note_on_c, 4, 62, 0
13, 50422, Note_on_c, 4, 34, 77
13, 50521, Note_on_c, 4, 35, 77
13, 50529, Note_on_c, 4, 66, 84
13, 50531, Note_on_c, 4, 58, 0
13, 50542, Note_on_c, 4, 34, 0
13, 50559, Note_on_c, 4, 66, 0
13, 50577, Note_on_c, 4, 61, 72
13, 50641, Note_on_c, 4, 35, 0
13, 50656, Note_on_c, 4, 34, 82
13, 50737, Note_on_c, 4, 61, 0
13, 50741, Note_on_c, 4, 58, 65
13, 50762, Note_on_c, 4, 35, 67
13, 50776, Note_on_c, 4, 34, 0
13, 50850, Note_on_c, 4, 66, 72
13, 50880, Note_on_c, 4, 66, 0
13, 50882, Note_on_c, 4, 35, 0
13, 50895, Note_on_c, 4, 62, 70
13, 50898, Note_on_c, 4, 34, 66
13, 50900, Note_on_c, 4, 58, 0
13, 51054, Note_on_c, 4, 62, 0
13, 51063, Note_on_c, 4, 58, 83
13, 51170, Note_on_c, 4, 66, 68
13, 51193, Note_on_c, 4, 58, 0
13, 51200, Note_on_c, 4, 66, 0
13, 51214, Note_on_c, 4, 61, 79
13, 51363, Note_on_c, 4, 35, 69
13, 51373, Note_on_c, 4, 61, 0
13, 51374, Note_on_c, 4, 34, 0
13, 51375, Note_on_c, 4, 58, 70
13, 51489, Note_on_c, 4, 66, 74
13, 51504, Note_on_c, 4, 58, 0
13, 51519, Note_on_c, 4, 66, 0
13, 51536, Note_on_c, 4, 61, 68
13, 51696, Note_on_c, 4, 61, 0
13, 51699, Note_on_c, 4, 58, 73
13, 51810, Note_on_c, 4, 66, 75
13, 51839, Note_on_c, 4, 35, 0
13, 51840, Note_on_c, 4, 66, 0
13, 51844, Note_on_c, 4, 34, 53
13, 51858, Note_on_c, 4, 58, 0
13, 51865, Note_on_c, 4, 61, 47
13, 51964, Note_on_c, 4, 34, 0
13, 51964, Note_on_c, 4, 35, 43
13, 52009, Note_on_c, 4, 58, 55
13, 52024, Note_on_c, 4, 61, 0
13, 52084, Note_on_c, 4, 35, 0
13, 52103, Note_on_c, 4, 34, 46
13, 52130, Note_on_c, 4, 66, 39
13, 52139, Note_on_c, 4, 58, 0
13, 52160, Note_on_c, 4, 66, 0
13, 52177, Note_on_c, 4, 62, 50
13, 52221, Note_on_c, 4, 35, 45
13, 52223, Note_on_c, 4, 34, 0
13, 52336, Note_on_c, 4, 62, 0
13, 52341, Note_on_c, 4, 35, 0
13, 52342, Note_on_c, 4, 58, 41
13, 52345, Note_on_c, 4, 34, 49
13, 52449, Note_on_c, 4, 66, 50
13, 52471, Note_on_c, 4, 58, 0
13, 52479, Note_on_c, 4, 66, 0
13, 52482, Note_on_c, 4, 61, 45
13, 52576, Note_on_c, 4, 35, 44
13, 52585, Note_on_c, 4, 34, 0
13, 52642, Note_on_c, 4, 61, 0
13, 52660, Note_on_c, 4, 58, 55
13, 52770, Note_on_c, 4, 66, 45
13, 52800, Note_on_c, 4, 66, 0
13, 52804, Note_on_c, 4, 34, 58
13, 52809, Note_on_c, 4, 62, 46
13, 52816, Note_on_c, 4, 35, 0
13, 52819, Note_on_c, 4, 58, 0
13, 52924, Note_on_c, 4, 34, 0
13, 52933, Note_on_c, 4, 35, 43
13, 52968, Note_on_c, 4, 62, 0
13, 52982, Note_on_c, 4, 58, 46
13, 53040, Note_on_c, 4, 34, 51
13, 53053, Note_on_c, 4, 35, 0
13, 53090, Note_on_c, 4, 66, 49
13, 53112, Note_on_c, 4, 58, 0
13, 53120, Note_on_c, 4, 66, 0
13, 53141, Note_on_c, 4, 61, 58
13, 53160, Note_on_c, 4, 34, 0
13, 53178, Note_on_c, 4, 35, 53
13, 53285, Note_on_c, 4, 34, 40
13, 53290, Note_on_c, 4, 58, 55
13, 53298, Note_on_c, 4, 35, 0
13, 53300, Note_on_c, 4, 61, 0
13, 53405, Note_on_c, 4, 34, 0
13, 53409, Note_on_c, 4, 66, 45
13, 53410, Note_on_c, 4, 35, 57
13, 53419, Note_on_c, 4, 58, 0
13, 53439, Note_on_c, 4, 66, 0
13, 53444, Note_on_c, 4, 61, 51
13, 53530, Note_on_c, 4, 35, 0
13, 53532, Note_on_c, 4, 34, 45
13, 53604, Note_on_c, 4, 61, 0
13, 53604, Note_on_c, 4, 58, 59
13, 53650, Note_on_c, 4, 35, 49
13, 53652, Note_on_c, 4, 34, 0
13, 53730, Note_on_c, 4, 66, 54
13, 53760, Note_on_c, 4, 66, 0
13, 53763, Note_on_c, 4, 58, 0
13, 53763, Note_on_c, 4, 61, 59
13, 53770, Note_on_c, 4, 35, 0
13, 53777, Note_on_c, 4, 34, 49
13, 53896, Note_on_c, 4, 35, 57
13, 53897, Note_on_c, 4, 34, 0
13, 53922, Note_on_c, 4, 61, 0
13, 53938, Note_on_c, 4, 58, 57
13, 54010, Note_on_c, 4, 34, 48
13, 54016, Note_on_c, 4, 35, 0
13, 54050, Note_on_c, 4, 66, 47
13, 54068, Note_on_c, 4, 58, 0
13, 54080, Note_on_c, 4, 66, 0
13, 54082, Note_on_c, 4, 62, 48
13, 54130, Note_on_c, 4, 34, 0
13, 54145, Note_on_c, 4, 35, 42
13, 54241, Note_on_c, 4, 62, 0
13, 54244, Note_on_c, 4, 34, 41
13, 54263, Note_on_c, 4, 58, 55
13, 54265, Note_on_c, 4, 35, 0
13, 54364, Note_on_c, 4, 34, 0
13, 54368, Note_on_c, 4, 35, 43
13, 54369, Note_on_c, 4, 66, 59
13, 54392, Note_on_c, 4, 58, 0
13, 54399, Note_on_c, 4, 66, 0
13, 54400, Note_on_c, 4, 61, 47
13, 54488, Note_on_c, 4, 35, 0
13, 54501, Note_on_c, 4, 34, 40
13, 54560, Note_on_c, 4, 61, 0
13, 54581, Note_on_c, 4, 58, 56
13, 54621, Note_on_c, 4, 34, 0
13, 54624, Note_on_c, 4, 35, 58
13, 54740, Note_on_c, 4, 58, 0
13, 54744, Note_on_c, 4, 35, 0
13, 60930, Note_on_c, 4, 50, 46
13, 60960, Note_on_c, 4, 44, 71
13, 60961, Note_on_c, 4, 43, 84
13, 60975, Note_on_c, 4, 50, 0
13, 61119, Note_on_c, 4, 44, 0
13, 61120, Note_on_c, 4, 43, 0
13, 61120, Note_on_c, 4, 35, 79
13, 61125, Note_on_c, 4, 40, 83
13, 61220, Note_on_c, 4, 35, 0
13, 61250, Note_on_c, 4, 50, 65
13, 61285, Note_on_c, 4, 40, 0
13, 61295, Note_on_c, 4, 50, 0
13, 61300, Note_on_c, 4, 43, 83
13, 61300, Note_on_c, 4, 44, 78
13, 61446, Note_on_c, 4, 35, 74
13, 61459, Note_on_c, 4, 43, 0
13, 61459, Note_on_c, 4, 44, 0
13, 61461, Note_on_c, 4, 40, 73
13, 61569, Note_on_c, 4, 50, 75
13, 61590, Note_on_c, 4, 40, 0
13, 61605, Note_on_c, 4, 35, 0
13, 61613, Note_on_c, 4, 43, 79
13, 61614, Note_on_c, 4, 50, 0
13, 61621, Note_on_c, 4, 44, 74
13, 61760, Note_on_c, 4, 40, 80
13, 61770, Note_on_c, 4, 35, 74
13, 61773, Note_on_c, 4, 43, 0
13, 61781, Note_on_c, 4, 44, 0
13, 61869, Note_on_c, 4, 35, 0
13, 61890, Note_on_c, 4, 50, 69
13, 61919, Note_on_c, 4, 40, 0
13, 61930, Note_on_c, 4, 43, 77
13, 61931, Note_on_c, 4, 44, 69
13, 61935, Note_on_c, 4, 50, 0
13, 62085, Note_on_c, 4, 35, 85
13, 62087, Note_on_c, 4, 40, 67
13, 62089, Note_on_c, 4, 43, 0
13, 62090, Note_on_c, 4, 44, 0
13, 62210, Note_on_c, 4, 50, 79
13, 62217, Note_on_c, 4, 40, 0
13, 62243, Note_on_c, 4, 44, 84
13, 62245, Note_on_c, 4, 35, 0
13, 62255, Note_on_c, 4, 50, 0
13, 62258, Note_on_c, 4, 43, 65
13, 62372, Note_on_c, 4, 44, 0
13, 62402, Note_on_c, 4, 40, 80
13, 62415, Note_on_c, 4, 35, 75
13, 62417, Note_on_c, 4, 43, 0
13, 62514, Note_on_c, 4, 35, 0
13, 62529, Note_on_c, 4, 50, 84
13, 62559, Note_on_c, 4, 44, 70
13, 62561, Note_on_c, 4, 40, 0
13, 62566, Note_on_c, 4, 43, 65
13, 62574, Note_on_c, 4, 50, 0
13, 62719, Note_on_c, 4, 44, 0
13, 62724, Note_on_c, 4, 35, 78
13, 62726, Note_on_c, 4, 43, 0
13, 62739, Note_on_c, 4, 40, 82
13, 62850, Note_on_c, 4, 50, 81
13, 62868, Note_on_c, 4, 40, 0
13, 62883, Note_on_c, 4, 35, 0
13, 62887, Note_on_c, 4, 44, 65
13, 62894, Note_on_c, 4, 43, 77
13, 62895, Note_on_c, 4, 50, 0
13, 63043, Note_on_c, 4, 35, 78
13, 63046, Note_on_c, 4, 44, 0
13, 63046, Note_on_c, 4, 40, 76
13, 63053, Note_on_c, 4, 43, 0
13, 63143, Note_on_c, 4, 35, 0
13, 63170, Note_on_c, 4, 50, 70
13, 63204, Note_on_c, 4, 43, 75
13, 63204, Note_on_c, 4, 44, 67
13, 63206, Note_on_c, 4, 40, 0
13, 63215, Note_on_c, 4, 50, 0
13, 63363, Note_on_c, 4, 43, 0
13, 63363, Note_on_c, 4, 44, 0
13, 63368, Note_on_c, 4, 40, 72
13, 63369, Note_on_c, 4, 35, 82
13, 63489, Note_on_c, 4, 50, 76
13, 63497, Note_on_c, 4, 40, 0
13, 63520, Note_on_c, 4, 43, 71
13, 63528, Note_on_c, 4, 35, 0
13, 63531, Note_on_c, 4, 44, 82
13, 63534, Note_on_c, 4, 50, 0
13, 63680, Note_on_c, 4, 43, 0
13, 63687, Note_on_c, 4, 40, 66
13, 63690, Note_on_c, 4, 35, 85
13, 63691, Note_on_c, 4, 44, 0
13, 63810, Note_on_c, 4, 50, 83
13, 63819, Note_on_c, 4, 35, 0
13, 63846, Note_on_c, 4, 40, 0
13, 63854, Note_on_c, 4, 44, 80
13, 63855, Note_on_c, 4, 50, 0
13, 63865, Note_on_c, 4, 43, 72
13, 64004, Note_on_c, 4, 40, 66
13, 64013, Note_on_c, 4, 44, 0
13, 64014, Note_on_c, 4, 35, 73
13, 64024, Note_on_c, 4, 43, 0
13, 64130, Note_on_c, 4, 50, 66
13, 64134, Note_on_c, 4, 40, 0
13, 64174, Note_on_c, 4, 35, 0
13, 64174, Note_on_c, 4, 44, 66
13, 64175, Note_on_c, 4, 50, 0
13, 64176, Note_on_c, 4, 43, 71
13, 64323, Note_on_c, 4, 35, 70
13, 64333, Note_on_c, 4, 44, 0
13, 64335, Note_on_c, 4, 43, 0
13, 64336, Note_on_c, 4, 40, 65
13, 64422, Note_on_c, 4, 35, 0
13, 64449, Note_on_c, 4, 50, 75
13, 64492, Note_on_c, 4, 44, 81
13, 64493, Note_on_c, 4, 43, 75
13, 64494, Note_on_c, 4, 50, 0
13, 64495, Note_on_c, 4, 40, 0
13, 64641, Note_on_c, 4, 40, 66
13, 64648, Note_on_c, 4, 35, 73
13, 64652, Note_on_c, 4, 44, 0
13, 64653, Note_on_c, 4, 43, 0
13, 64770, Note_on_c, 4, 40, 0
13, 64770, Note_on_c, 4, 50, 85
13, 64807, Note_on_c, 4, 35, 0
13, 64811, Note_on_c, 4, 44, 84
13, 64815, Note_on_c, 4, 50, 0
13, 64817, Note_on_c, 4, 43, 69
13, 64964, Note_on_c, 4, 40, 85
13, 64970, Note_on_c, 4, 44, 0
13, 64975, Note_on_c, 4, 35, 78
13, 64976, Note_on_c, 4, 43, 0
13, 65075, Note_on_c, 4, 35, 0
13, 65090, Note_on_c, 4, 50, 81
13, 65123, Note_on_c, 4, 43, 73
13, 65124, Note_on_c, 4, 40, 0
13, 65135, Note_on_c, 4, 50, 0
13, 65138, Note_on_c, 4, 44, 67
13, 65282, Note_on_c, 4, 43, 0
13, 65283, Note_on_c, 4, 40, 82
13, 65297, Note_on_c, 4, 44, 0
13, 65302, Note_on_c, 4, 35, 81
13, 65409, Note_on_c, 4, 50, 78
13, 65412, Note_on_c, 4, 40, 0
13, 65447, Note_on_c, 4, 43, 78
13, 65454, Note_on_c, 4, 50, 0
13, 65461, Note_on_c, 4, 35, 0
13, 65461, Note_on_c, 4, 44, 74
13, 65607, Note_on_c, 4, 43, 0
13, 65621, Note_on_c, 4, 44, 0
13, 65622, Note_on_c, 4, 35, 67
13, 65624, Note_on_c, 4, 40, 69
13, 65721, Note_on_c, 4, 35, 0
13, 65730, Note_on_c, 4, 50, 80
13, 65774, Note_on_c, 4, 43, 79
13, 65774, Note_on_c, 4, 44, 68
13, 65775, Note_on_c, 4, 50, 0
13, 65783, Note_on_c, 4, 40, 0
13, 65927, Note_on_c, 4, 40, 65
13, 65933, Note_on_c, 4, 43, 0
13, 65933, Note_on_c, 4, 44, 0
13, 65941, Note_on_c, 4, 35, 69
13, 66050, Note_on_c, 4, 50, 73
13, 66057, Note_on_c, 4, 40, 0
13, 66090, Note_on_c, 4, 44, 72
13, 66091, Note_on_c, 4, 43, 70
13, 66095, Note_on_c, 4, 50, 0
13, 66101, Note_on_c, 4, 35, 0
13, 66249, Note_on_c, 4, 44, 0
13, 66250, Note_on_c, 4, 43, 0
13, 66256, Note_on_c, 4, 35, 89
13, 66264, Note_on_c, 4, 40, 95
13, 66355, Note_on_c, 4, 35, 0
13, 66369, Note_on_c, 4, 62, 98
13, 66369, Note_on_c, 4, 50, 88
13, 66414, Note_on_c, 4, 62, 0
13, 66414, Note_on_c, 4, 50, 0
13, 66414, Note_on_c, 4, 56, 95
13, 66419, Note_on_c, 4, 44, 98
13, 66422, Note_on_c, 4, 43, 79
13, 66423, Note_on_c, 4, 40, 0
13, 66564, Note_on_c, 4, 35, 82
13, 66568, Note_on_c, 4, 47, 83
13, 66572, Note_on_c, 4, 52, 87
13, 66574, Note_on_c, 4, 56, 0
13, 66579, Note_on_c, 4, 44, 0
13, 66580, Note_on_c, 4, 40, 78
13, 66582, Note_on_c, 4, 43, 0
13, 66671, Note_on_c, 4, 52, 0
13, 66679, Note_on_c, 4, 40, 0
13, 66690, Note_on_c, 4, 62, 78
13, 66690, Note_on_c, 4, 50, 89
13, 66721, Note_on_c, 4, 43, 95
13, 66723, Note_on_c, 4, 35, 0
13, 66727, Note_on_c, 4, 47, 0
13, 66735, Note_on_c, 4, 62, 0
13, 66735, Note_on_c, 4, 50, 0
13, 66738, Note_on_c, 4, 56, 80
13, 66745, Note_on_c, 4, 44, 80
13, 66880, Note_on_c, 4, 43, 0
13, 66880, Note_on_c, 4, 47, 90
13, 66888, Note_on_c, 4, 52, 80
13, 66897, Note_on_c, 4, 56, 0
13, 66898, Note_on_c, 4, 40, 87
13, 66904, Note_on_c, 4, 44, 0
13, 66904, Note_on_c, 4, 35, 86
13, 66980, Note_on_c, 4, 47, 0
13, 67004, Note_on_c, 4, 35, 0
13, 67010, Note_on_c, 4, 62, 98
13, 67010, Note_on_c, 4, 50, 82
13, 67046, Note_on_c, 4, 43, 85
13, 67048, Note_on_c, 4, 52, 0
13, 67055, Note_on_c, 4, 62, 0
13, 67055, Note_on_c, 4, 50, 0
13, 67056, Note_on_c, 4, 56, 97
13, 67058, Note_on_c, 4, 40, 0
13, 67060, Note_on_c, 4, 44, 93
13, 67203, Note_on_c, 4, 35, 93
13, 67205, Note_on_c, 4, 43, 0
13, 67205, Note_on_c, 4, 52, 88
13, 67205, Note_on_c, 4, 47, 96
13, 67209, Note_on_c, 4, 40, 97
13, 67215, Note_on_c, 4, 56, 0
13, 67219, Note_on_c, 4, 44, 0
13, 67304, Note_on_c, 4, 52, 0
13, 67308, Note_on_c, 4, 40, 0
13, 67329, Note_on_c, 4, 62, 83
13, 67329, Note_on_c, 4, 50, 96
13, 67362, Note_on_c, 4, 35, 0
13, 67364, Note_on_c, 4, 47, 0
13, 67367, Note_on_c, 4, 56, 81
13, 67374, Note_on_c, 4, 62, 0
13, 67374, Note_on_c, 4, 50, 0
13, 67380, Note_on_c, 4, 44, 96
13, 67382, Note_on_c, 4, 43, 85
13, 67524, Note_on_c, 4, 47, 89
13, 67527, Note_on_c, 4, 56, 0
13, 67536, Note_on_c, 4, 40, 94
13, 67540, Note_on_c, 4, 44, 0
13, 67541, Note_on_c, 4, 35, 98
13, 67542, Note_on_c, 4, 43, 0
13, 67542, Note_on_c, 4, 52, 96
13, 67623, Note_on_c, 4, 47, 0
13, 67640, Note_on_c, 4, 35, 0
13, 67650, Note_on_c, 4, 62, 79
13, 67650, Note_on_c, 4, 50, 91
13, 67690, Note_on_c, 4, 44, 89
13, 67692, Note_on_c, 4, 56, 85
13, 67695, Note_on_c, 4, 40, 0
13, 67695, Note_on_c, 4, 62, 0
13, 67695, Note_on_c, 4, 50, 0
13, 67701, Note_on_c, 4, 52, 0
13, 67701, Note_on_c, 4, 43, 89
13, 67841, Note_on_c, 4, 35, 83
13, 67849, Note_on_c, 4, 44, 0
13, 67850, Note_on_c, 4, 47, 89
13, 67851, Note_on_c, 4, 56, 0
13, 67856, Note_on_c, 4, 40, 84
13, 67860, Note_on_c, 4, 43, 0
13, 67861, Note_on_c, 4, 52, 79
13, 67956, Note_on_c, 4, 40, 0
13, 67961, Note_on_c, 4, 52, 0
13, 67970, Note_on_c, 4, 62, 78
13, 67970, Note_on_c, 4, 50, 92
13, 68001, Note_on_c, 4, 35, 0
13, 68007, Note_on_c, 4, 56, 84
13, 68010, Note_on_c, 4, 47, 0
13, 68015, Note_on_c, 4, 62, 0
13, 68015, Note_on_c, 4, 50, 0
13, 68020, Note_on_c, 4, 44, 80
13, 68024, Note_on_c, 4, 43, 90
13, 68166, Note_on_c, 4, 56, 0
13, 68167, Note_on_c, 4, 52, 89
13, 68174, Note_on_c, 4, 35, 80
13, 68176, Note_on_c, 4, 47, 79
13, 68179, Note_on_c, 4, 44, 0
13, 68183, Note_on_c, 4, 43, 0
13, 68184, Note_on_c, 4, 40, 79
13, 68273, Note_on_c, 4, 35, 0
13, 68275, Note_on_c, 4, 47, 0
13, 68289, Note_on_c, 4, 62, 82
13, 68289, Note_on_c, 4, 50, 84
13, 68323, Note_on_c, 4, 56, 97
13, 68326, Note_on_c, 4, 52, 0
13, 68334, Note_on_c, 4, 62, 0
13, 68334, Note_on_c, 4, 50, 0
13, 68341, Note_on_c, 4, 44, 80
13, 68343, Note_on_c, 4, 40, 0
13, 68344, Note_on_c, 4, 43, 83
13, 68483, Note_on_c, 4, 56, 0
13, 68483, Note_on_c, 4, 52, 78
13, 68489, Note_on_c, 4, 40, 83
13, 68491, Note_on_c, 4, 35, 93
13, 68498, Note_on_c, 4, 47, 91
13, 68501, Note_on_c, 4, 44, 0
13, 68504, Note_on_c, 4, 43, 0
13, 68582, Note_on_c, 4, 52, 0
13, 68588, Note_on_c, 4, 40, 0
13, 68610, Note_on_c, 4, 62, 78
13, 68610, Note_on_c, 4, 50, 98
13, 68644, Note_on_c, 4, 43, 90
13, 68646, Note_on_c, 4, 56, 89
13, 68650, Note_on_c, 4, 35, 0
13, 68650, Note_on_c, 4, 44, 82
13, 68655, Note_on_c, 4, 62, 0
13, 68655, Note_on_c, 4, 50, 0
13, 68657, Note_on_c, 4, 47, 0
13, 68801, Note_on_c, 4, 35, 85
13, 68803, Note_on_c, 4, 43, 0
13, 68805, Note_on_c, 4, 56, 0
13, 68809, Note_on_c, 4, 44, 0
13, 68809, Note_on_c, 4, 52, 95
13, 68816, Note_on_c, 4, 47, 96
13, 68818, Note_on_c, 4, 40, 82
13, 68901, Note_on_c, 4, 35, 0
13, 68916, Note_on_c, 4, 47, 0
13, 68930, Note_on_c, 4, 62, 81
13, 68930, Note_on_c, 4, 50, 79
13, 68960, Note_on_c, 4, 44, 88
13, 68969, Note_on_c, 4, 52, 0
13, 68975, Note_on_c, 4, 62, 0
13, 68975, Note_on_c, 4, 50, 0
13, 68978, Note_on_c, 4, 40, 0
13, 68978, Note_on_c, 4, 43, 94
13, 68981, Note_on_c, 4, 56, 81
13, 69119, Note_on_c, 4, 44, 0
13, 69124, Note_on_c, 4, 35, 80
13, 69126, Note_on_c, 4, 52, 80
13, 69129, Note_on_c, 4, 40, 84
13, 69137, Note_on_c, 4, 43, 0
13, 69140, Note_on_c, 4, 56, 0
13, 69142, Note_on_c, 4, 47, 83
13, 69223, Note_on_c, 4, 35, 0
13, 69241, Note_on_c, 4, 47, 0
13, 69249, Note_on_c, 4, 62, 97
13, 69249, Note_on_c, 4, 50, 84
13, 69282, Note_on_c, 4, 56, 88
13, 69285, Note_on_c, 4, 52, 0
13, 69288, Note_on_c, 4, 40, 0
13, 69294, Note_on_c, 4, 62, 0
13, 69294, Note_on_c, 4, 50, 0
13, 69297, Note_on_c, 4, 44, 88
13, 69299, Note_on_c, 4, 43, 87
13, 69442, Note_on_c, 4, 56, 0
13, 69445, Note_on_c, 4, 52, 83
13, 69452, Note_on_c, 4, 40, 98
13, 69457, Note_on_c, 4, 44, 0
13, 69459, Note_on_c, 4, 43, 0
13, 69460, Note_on_c, 4, 47, 86
13, 69464, Note_on_c, 4, 35, 97
13, 69544, Note_on_c, 4, 52, 0
13, 69551, Note_on_c, 4, 40, 0
13, 69570, Note_on_c, 4, 62, 93
13, 69570, Note_on_c, 4, 50, 82
13, 69612, Note_on_c, 4, 44, 94
13, 69614, Note_on_c, 4, 56, 93
13, 69615, Note_on_c, 4, 62, 0
13, 69615, Note_on_c, 4, 50, 0
13, 69619, Note_on_c, 4, 47, 0
13, 69622, Note_on_c, 4, 43, 85
13, 69623, Note_on_c, 4, 35, 0
13, 69762, Note_on_c, 4, 52, 86
13, 69764, Note_on_c, 4, 40, 86
13, 69771, Note_on_c, 4, 44, 0
13, 69773, Note_on_c, 4, 56, 0
13, 69773, Note_on_c, 4, 35, 98
13, 69778, Note_on_c, 4, 47, 98
13, 69781, Note_on_c, 4, 43, 0
13, 69873, Note_on_c, 4, 35, 0
13, 69878, Note_on_c, 4, 47, 0
13, 69890, Note_on_c, 4, 62, 87
13, 69890, Note_on_c, 4, 50, 88
13, 69920, Note_on_c, 4, 44, 90
13, 69922, Note_on_c, 4, 52, 0
13, 69924, Note_on_c, 4, 40, 0
13, 69926, Note_on_c, 4, 43, 81
13, 69935, Note_on_c, 4, 62, 0
13, 69935, Note_on_c, 4, 50, 0
13, 69937, Note_on_c, 4, 56, 94
13, 70079, Note_on_c, 4, 44, 0
13, 70085, Note_on_c, 4, 43, 0
13, 70087, Note_on_c, 4, 52, 84
13, 70093, Note_on_c, 4, 35, 87
13, 70096, Note_on_c, 4, 56, 0
13, 70098, Note_on_c, 4, 47, 84
13, 70103, Note_on_c, 4, 40, 90
13, 70186, Note_on_c, 4, 52, 0
13, 70202, Note_on_c, 4, 40, 0
13, 70209, Note_on_c, 4, 62, 79
13, 70209, Note_on_c, 4, 50, 80
13, 70246, Note_on_c, 4, 44, 82
13, 70250, Note_on_c, 4, 56, 78
13, 70252, Note_on_c, 4, 35, 0
13, 70254, Note_on_c, 4, 62, 0
13, 70254, Note_on_c, 4, 50, 0
13, 70254, Note_on_c, 4, 43, 93
13, 70257, Note_on_c, 4, 47, 0
13, 70406, Note_on_c, 4, 44, 0
13, 70407, Note_on_c, 4, 52, 84
13, 70410, Note_on_c, 4, 56, 0
13, 70412, Note_on_c, 4, 47, 89
13, 70414, Note_on_c, 4, 43, 0
13, 70414, Note_on_c, 4, 40, 97
13, 70421, Note_on_c, 4, 35, 90
13, 70506, Note_on_c, 4, 52, 0
13, 70511, Note_on_c, 4, 47, 0
13, 70513, Note_on_c, 4, 40, 0
13, 70530, Note_on_c, 4, 62, 79
13, 70530, Note_on_c, 4, 50, 87
13, 70561, Note_on_c, 4, 43, 79
13, 70562, Note_on_c, 4, 44, 96
13, 70565, Note_on_c, 4, 55, 92
13, 70575, Note_on_c, 4, 62, 0
13, 70575, Note_on_c, 4, 50, 0
13, 70580, Note_on_c, 4, 35, 0
13, 70584, Note_on_c, 4, 56, 84
13, 70720, Note_on_c, 4, 43, 0
13, 70721, Note_on_c, 4, 44, 0
13, 70722, Note_on_c, 4, 40, 92
13, 70722, Note_on_c, 4, 47, 84
13, 70724, Note_on_c, 4, 55, 0
13, 70737, Note_on_c, 4, 52, 88
13, 70742, Note_on_c, 4, 35, 87
13, 70743, Note_on_c, 4, 56, 0
13, 70822, Note_on_c, 4, 47, 0
13, 70842, Note_on_c, 4, 35, 0
13, 70850, Note_on_c, 4, 62, 86
13, 70850, Note_on_c, 4, 50, 96
13, 70880, Note_on_c, 4, 56, 96
13, 70882, Note_on_c, 4, 40, 0
13, 70882, Note_on_c, 4, 55, 83
13, 70888, Note_on_c, 4, 44, 91
13, 70894, Note_on_c, 4, 43, 98
13, 70895, Note_on_c, 4, 62, 0
13, 70895, Note_on_c, 4, 50, 0
13, 70897, Note_on_c, 4, 52, 0
13, 71039, Note_on_c, 4, 56, 0
13, 71041, Note_on_c, 4, 55, 0
13, 71047, Note_on_c, 4, 44, 0
13, 71052, Note_on_c, 4, 52, 78
13, 71053, Note_on_c, 4, 43, 0
13, 71054, Note_on_c, 4, 35, 79
13, 71057, Note_on_c, 4, 47, 85
13, 71062, Note_on_c, 4, 40, 97
13, 71151, Note_on_c, 4, 52, 0
13, 71161, Note_on_c, 4, 40, 0
13, 71169, Note_on_c, 4, 62, 83
13, 71169, Note_on_c, 4, 50, 98
13, 71208, Note_on_c, 4, 56, 85
13, 71209, Note_on_c, 4, 43, 96
13, 71213, Note_on_c, 4, 35, 0
13, 71214, Note_on_c, 4, 62, 0
13, 71214, Note_on_c, 4, 50, 0
13, 71216, Note_on_c, 4, 47, 0
13, 71221, Note_on_c, 4, 55, 86
13, 71224, Note_on_c, 4, 44, 94
13, 71361, Note_on_c, 4, 40, 89
13, 71368, Note_on_c, 4, 56, 0
13, 71369, Note_on_c, 4, 43, 0
13, 71372, Note_on_c, 4, 35, 90
13, 71373, Note_on_c, 4, 52, 93
13, 71378, Note_on_c, 4, 47, 81
13, 71381, Note_on_c, 4, 55, 0
13, 71384, Note_on_c, 4, 44, 0
13, 71520, Note_on_c, 4, 40, 0
13, 71527, Note_on_c, 4, 71, 91
13, 71531, Note_on_c, 4, 35, 0
13, 71532, Note_on_c, 4, 52, 0
13, 71537, Note_on_c, 4, 47, 0
13, 71940, Note_on_c, 4, 70, 97
13, 71947, Note_on_c, 4, 71, 0
13, 71970, Note_on_c, 4, 71, 94
13, 71985, Note_on_c, 4, 70, 0
13, 72014, Note_on_c, 4, 70, 79
13, 72015, Note_on_c, 4, 71, 0
13, 72134, Note_on_c, 4, 70, 0
13, 72139, Note_on_c, 4, 66, 78
13, 72259, Note_on_c, 4, 66, 0
13, 72259, Note_on_c, 4, 63, 95
13, 72364, Note_on_c, 4, 70, 84
13, 72379, Note_on_c, 4, 63, 0
13, 72484, Note_on_c, 4, 70, 0
13, 72487, Note_on_c, 4, 68, 81
13, 72727, Note_on_c, 4, 68, 0
13, 72732, Note_on_c, 4, 71, 82
13, 72900, Note_on_c, 4, 70, 79
13, 72912, Note_on_c, 4, 71, 0
13, 72930, Note_on_c, 4, 71, 92
13, 72945, Note_on_c, 4, 70, 0
13, 72975, Note_on_c, 4, 71, 0
13, 72976, Note_on_c, 4, 70, 98
13, 73216, Note_on_c, 4, 70, 0
13, 73220, Note_on_c, 4, 68, 92
13, 73458, Note_on_c, 4, 73, 96
13, 73460, Note_on_c, 4, 68, 0
13, 73630, Note_on_c, 4, 66, 96
13, 73668, Note_on_c, 4, 73, 0
13, 73671, Note_on_c, 4, 68, 82
13, 73687, Note_on_c, 4, 66, 0
13, 73920, Note_on_c, 4, 71, 93
13, 73930, Note_on_c, 4, 68, 0
13, 73955, Note_on_c, 4, 70, 92
13, 73972, Note_on_c, 4, 71, 0
13, 73985, Note_on_c, 4, 71, 91
13, 74000, Note_on_c, 4, 70, 0
13, 74021, Note_on_c, 4, 70, 94
13, 74030, Note_on_c, 4, 71, 0
13, 74116, Note_on_c, 4, 70, 0
13, 74125, Note_on_c, 4, 66, 91
13, 74221, Note_on_c, 4, 66, 0
13, 74222, Note_on_c, 4, 63, 78
13, 74307, Note_on_c, 4, 70, 81
13, 74317, Note_on_c, 4, 63, 0
13, 74389, Note_on_c, 4, 68, 98
13, 74402, Note_on_c, 4, 70, 0
13, 75625, Note_on_c, 4, 68, 0
13, 91680, Note_on_c, 4, 55, 95
13, 91727, Note_on_c, 4, 55, 0
13, 91800, Note_on_c, 4, 52, 82
13, 91847, Note_on_c, 4, 52, 0
13, 91920, Note_on_c, 4, 48, 81
13, 91967, Note_on_c, 4, 48, 0
13, 92040, Note_on_c, 4, 43, 91
13, 92087, Note_on_c, 4, 43, 0
13, 92160, Note_on_c, 4, 40, 88
13, 92207, Note_on_c, 4, 40, 0
13, 92280, Note_on_c, 4, 43, 79
13, 92327, Note_on_c, 4, 43, 0
13, 92400, Note_on_c, 4, 47, 83
13, 92447, Note_on_c, 4, 47, 0
13, 92520, Note_on_c, 4, 52, 78
13, 92567, Note_on_c, 4, 52, 0
13, 92640, Note_on_c, 4, 55, 78
13, 92687, Note_on_c, 4, 55, 0
13, 92760, Note_on_c, 4, 52, 80
13, 92807, Note_on_c, 4, 52, 0
13, 92880, Note_on_c, 4, 48, 98
13, 92927, Note_on_c, 4, 48, 0
13, 93000, Note_on_c, 4, 43, 95
13, 93047, Note_on_c, 4, 43, 0
13, 93120, Note_on_c, 4, 40, 87
13, 93167, Note_on_c, 4, 40, 0
13, 93240, Note_on_c, 4, 43, 85
13, 93287, Note_on_c, 4, 43, 0
13, 93360, Note_on_c, 4, 47, 87
13, 93407, Note_on_c, 4, 47, 0
13, 93480, Note_on_c, 4, 52, 79
13, 93527, Note_on_c, 4, 52, 0
13, 93600, Note_on_c, 4, 55, 85
13, 93647, Note_on_c, 4, 55, 0
13, 93720, Note_on_c, 4, 52, 91
13, 93767, Note_on_c, 4, 52, 0
13, 93840, Note_on_c, 4, 48, 78
13, 93887, Note_on_c, 4, 48, 0
13, 93960, Note_on_c, 4, 43, 82
13, 94007, Note_on_c, 4, 43, 0
13, 94080, Note_on_c, 4, 40, 91
13, 94127, Note_on_c, 4, 40, 0
13, 94200, Note_on_c, 4, 43, 84
13, 94247, Note_on_c, 4, 43, 0
13, 94320, Note_on_c, 4, 47, 93
13, 94367, Note_on_c, 4, 47, 0
13, 94440, Note_on_c, 4, 52, 89
13, 94487, Note_on_c, 4, 52, 0
13, 94560, Note_on_c, 4, 55, 88
13, 94607, Note_on_c, 4, 55, 0
13, 94680, Note_on_c, 4, 52, 98
13, 94727, Note_on_c, 4, 52, 0
13, 94800, Note_on_c, 4, 48, 96
13, 94847, Note_on_c, 4, 48, 0
13, 94920, Note_on_c, 4, 43, 86
13, 94967, Note_on_c, 4, 43, 0
13, 95040, Note_on_c, 4, 40, 88
13, 95087, Note_on_c, 4, 40, 0
13, 95160, Note_on_c, 4, 43, 88
13, 95207, Note_on_c, 4, 43, 0
13, 95280, Note_on_c, 4, 47, 94
13, 95327, Note_on_c, 4, 47, 0
13, 95400, Note_on_c, 4, 52, 80
13, 95447, Note_on_c, 4, 52, 0
13, 105133, Note_on_c, 4, 60, 98
13, 105203, Note_on_c, 4, 62, 87
13, 105211, Note_on_c, 4, 60, 0
13, 105282, Note_on_c, 4, 62, 0
13, 105296, Note_on_c, 4, 60, 80
13, 105369, Note_on_c, 4, 62, 97
13, 105374, Note_on_c, 4, 60, 0
13, 105447, Note_on_c, 4, 62, 0
13, 105453, Note_on_c, 4, 60, 91
13, 105532, Note_on_c, 4, 60, 0
13, 105537, Note_on_c, 4, 62, 93
13, 105613, Note_on_c, 4, 60, 93
13, 105615, Note_on_c, 4, 62, 0
13, 105676, Note_on_c, 4, 62, 85
13, 105691, Note_on_c, 4, 60, 0
13, 105755, Note_on_c, 4, 62, 0
13, 105755, Note_on_c, 4, 60, 89
13, 105834, Note_on_c, 4, 60, 0
13, 105840, Note_on_c, 4, 62, 91
13, 105915, Note_on_c, 4, 60, 91
13, 105918, Note_on_c, 4, 62, 0
13, 105994, Note_on_c, 4, 60, 0
13, 106012, Note_on_c, 4, 62, 86
13, 106089, Note_on_c, 4, 60, 82
13, 106091, Note_on_c, 4, 62, 0
13, 106167, Note_on_c, 4, 60, 0
13, 106173, Note_on_c, 4, 62, 89
13, 106231, Note_on_c, 4, 60, 79
13, 106252, Note_on_c, 4, 62, 0
13, 106310, Note_on_c, 4, 60, 0
13, 106328, Note_on_c, 4, 62, 84
13, 106397, Note_on_c, 4, 60, 78
13, 106406, Note_on_c, 4, 62, 0
13, 106475, Note_on_c, 4, 60, 0
13, 106478, Note_on_c, 4, 62, 80
13, 106554, Note_on_c, 4, 60, 88
13, 106557, Note_on_c, 4, 62, 0
13, 106632, Note_on_c, 4, 60, 0
13, 106649, Note_on_c, 4, 62, 80
13, 106711, Note_on_c, 4, 60, 91
13, 106727, Note_on_c, 4, 62, 0
13, 106790, Note_on_c, 4, 60, 0
13, 106800, Note_on_c, 4, 62, 91
13, 106870, Note_on_c, 4, 60, 87
13, 106878, Note_on_c, 4, 62, 0
13, 106943, Note_on_c, 4, 62, 98
13, 106948, Note_on_c, 4, 60, 0
13, 107022, Note_on_c, 4, 62, 0
13, 107032, Note_on_c, 4, 60, 91
13, 107111, Note_on_c, 4, 60, 0
13, 107124, Note_on_c, 4, 62, 85
13, 107184, Note_on_c, 4, 60, 97
13, 107202, Note_on_c, 4, 62, 0
13, 107262, Note_on_c, 4, 62, 93
13, 107263, Note_on_c, 4, 60, 0
13, 107341, Note_on_c, 4, 62, 0
13, 107342, Note_on_c, 4, 60, 78
13, 107420, Note_on_c, 4, 60, 0
13, 107423, Note_on_c, 4, 62, 82
13, 107502, Note_on_c, 4, 62, 0
13, 107507, Note_on_c, 4, 60, 79
13, 107576, Note_on_c, 4, 62, 90
13, 107586, Note_on_c, 4, 60, 0
13, 107654, Note_on_c, 4, 62, 0
13, 107659, Note_on_c, 4, 60, 98
13, 107737, Note_on_c, 4, 60, 0
13, 107744, Note_on_c, 4, 62, 97
13, 107823, Note_on_c, 4, 62, 0
13, 107830, Note_on_c, 4, 60, 92
13, 107893, Note_on_c, 4, 62, 84
13, 107908, Note_on_c, 4, 60, 0
13, 107971, Note_on_c, 4, 62, 0
13, 107992, Note_on_c, 4, 60, 91
13, 108059, Note_on_c, 4, 62, 95
13, 108071, Note_on_c, 4, 60, 0
13, 108137, Note_on_c, 4, 62, 0
13, 108150, Note_on_c, 4, 60, 85
13, 108224, Note_on_c, 4, 62, 82
13, 108228, Note_on_c, 4, 60, 0
13, 108303, Note_on_c, 4, 62, 0
13, 108313, Note_on_c, 4, 60, 84
13, 108380, Note_on_c, 4, 62, 89
13, 108392, Note_on_c, 4, 60, 0
13, 108458, Note_on_c, 4, 62, 0
13, 108465, Note_on_c, 4, 60, 97
13, 108544, Note_on_c, 4, 60, 0
13, 108550, Note_on_c, 4, 62, 97
13, 108621, Note_on_c, 4, 60, 79
13, 108629, Note_on_c, 4, 62, 0
13, 108699, Note_on_c, 4, 60, 0
13, 108706, Note_on_c, 4, 62, 95
13, 108777, Note_on_c, 4, 60, 96
13, 108785, Note_on_c, 4, 62, 0
13, 108856, Note_on_c, 4, 60, 0
13, 108859, Note_on_c, 4, 62, 92
13, 108931, Note_on_c, 4, 60, 93
13, 108937, Note_on_c, 4, 62, 0
13, 109009, Note_on_c, 4, 60, 0
13, 109018, Note_on_c, 4, 62, 78
13, 109097, Note_on_c, 4, 62, 0
13, 109104, Note_on_c, 4, 60, 88
13, 109168, Note_on_c, 4, 62, 92
13, 109182, Note_on_c, 4, 60, 0
13, 109246, Note_on_c, 4, 62, 0
13, 109249, Note_on_c, 4, 60, 81
13, 109328, Note_on_c, 4, 60, 0
13, 109329, Note_on_c, 4, 62, 91
13, 109402, Note_on_c, 4, 60, 92
13, 109407, Note_on_c, 4, 62, 0
13, 109480, Note_on_c, 4, 60, 0
13, 109480, Note_on_c, 4, 62, 87
13, 109559, Note_on_c, 4, 62, 0
13, 109575, Note_on_c, 4, 60, 87
13, 109645, Note_on_c, 4, 62, 83
13, 109654, Note_on_c, 4, 60, 0
13, 109718, Note_on_c, 4, 60, 94
13, 109723, Note_on_c, 4, 62, 0
13, 109797, Note_on_c, 4, 60, 0
13, 109810, Note_on_c, 4, 62, 82
13, 109873, Note_on_c, 4, 60, 83
13, 109889, Note_on_c, 4, 62, 0
13, 109951, Note_on_c, 4, 60, 0
13, 109970, Note_on_c, 4, 62, 93
13, 110034, Note_on_c, 4, 60, 89
13, 110049, Note_on_c, 4, 62, 0
13, 110113, Note_on_c, 4, 60, 0
13, 110126, Note_on_c, 4, 62, 78
13, 110202, Note_on_c, 4, 60, 93
13, 110204, Note_on_c, 4, 62, 0
13, 110268, Note_on_c, 4, 62, 81
13, 110280, Note_on_c, 4, 60, 0
13, 110347, Note_on_c, 4, 62, 0
13, 110368, Note_on_c, 4, 60, 90
13, 110436, Note_on_c, 4, 62, 82
13, 110446, Note_on_c, 4, 60, 0
13, 110512, Note_on_c, 4, 60, 79
13, 110514, Note_on_c, 4, 62, 0
13, 110591, Note_on_c, 4, 60, 0
13, 110607, Note_on_c, 4, 62, 88
13, 110678, Note_on_c, 4, 60, 88
13, 110685, Note_on_c, 4, 62, 0
13, 110748, Note_on_c, 4, 62, 82
13, 110756, Note_on_c, 4, 60, 0
13, 110827, Note_on_c, 4, 62, 0
13, 110842, Note_on_c, 4, 60, 80
13, 110921, Note_on_c, 4, 60, 0
13, 110924, Note_on_c, 4, 62, 84
13, 110997, Note_on_c, 4, 60, 90
13, 111002, Note_on_c, 4, 62, 0
13, 111073, Note_on_c, 4, 62, 84
13, 111076, Note_on_c, 4, 60, 0
13, 111152, Note_on_c, 4, 62, 0
13, 111154, Note_on_c, 4, 60, 89
13, 111221, Note_on_c, 4, 62, 88
13, 111232, Note_on_c, 4, 60, 0
13, 111300, Note_on_c, 4, 62, 0
13, 111301, Note_on_c, 4, 60, 81
13, 111380, Note_on_c, 4, 60, 0
13, 111383, Note_on_c, 4, 62, 80
13, 111457, Note_on_c, 4, 60, 82
13, 111461, Note_on_c, 4, 62, 0
13, 111535, Note_on_c, 4, 60, 0
13, 111541, Note_on_c, 4, 62, 88
13, 111620, Note_on_c, 4, 62, 0
13, 111620, Note_on_c, 4, 60, 89
13, 111698, Note_on_c, 4, 60, 0
13, 111717, Note_on_c, 4, 62, 96
13, 111774, Note_on_c, 4, 60, 88
13, 111795, Note_on_c, 4, 62, 0
13, 111855, Note_on_c, 4, 60, 0
13, 111867, Note_on_c, 4, 62, 78
13, 111944, Note_on_c, 4, 60, 79
13, 111945, Note_on_c, 4, 62, 0
13, 112015, Note_on_c, 4, 62, 92
13, 112022, Note_on_c, 4, 60, 0
13, 112092, Note_on_c, 4, 60, 95
13, 112094, Note_on_c, 4, 62, 0
13, 112171, Note_on_c, 4, 60, 0
13, 112194, Note_on_c, 4, 62, 93
13, 112253, Note_on_c, 4, 60, 94
13, 112272, Note_on_c, 4, 62, 0
13, 112332, Note_on_c, 4, 60, 0
13, 112342, Note_on_c, 4, 62, 85
13, 112421, Note_on_c, 4, 62, 0
13, 112427, Note_on_c, 4, 60, 83
13, 112486, Note_on_c, 4, 62, 80
13, 112505, Note_on_c, 4, 60, 0
13, 112565, Note_on_c, 4, 62, 0
13, 112590, Note_on_c, 4, 60, 96
13, 112647, Note_on_c, 4, 62, 95
13, 112669, Note_on_c, 4, 60, 0
13, 112725, Note_on_c, 4, 62, 0
13, 112741, Note_on_c, 4, 60, 78
13, 112816, Note_on_c, 4, 62, 81
13, 112831, Note_on_c, 4, 60, 0
13, 112895, Note_on_c, 4, 62, 0
13, 112900, Note_on_c, 4, 60, 86
13, 112978, Note_on_c, 4, 60, 0
13, 112984, Note_on_c, 4, 62, 85
13, 113060, Note_on_c, 4, 60, 84
13, 113062, Note_on_c, 4, 62, 0
13, 113122, Note_on_c, 4, 62, 86
13, 113139, Note_on_c, 4, 60, 0
13, 113200, Note_on_c, 4, 62, 0
13, 113225, Note_on_c, 4, 60, 85
13, 113297, Note_on_c, 4, 62, 91
13, 113303, Note_on_c, 4, 60, 0
13, 113376, Note_on_c, 4, 62, 0
13, 113382, Note_on_c, 4, 60, 86
13, 113461, Note_on_c, 4, 60, 0
13, 113462, Note_on_c, 4, 62, 85
13, 113540, Note_on_c, 4, 62, 0
13, 113541, Note_on_c, 4, 60, 98
13, 113597, Note_on_c, 4, 62, 92
13, 113620, Note_on_c, 4, 60, 0
13, 113676, Note_on_c, 4, 62, 0
13, 113693, Note_on_c, 4, 60, 93
13, 113756, Note_on_c, 4, 62, 81
13, 113771, Note_on_c, 4, 60, 0
13, 113835, Note_on_c, 4, 62, 0
13, 113849, Note_on_c, 4, 60, 94
13, 113920, Note_on_c, 4, 62, 86
13, 113928, Note_on_c, 4, 60, 0
13, 113998, Note_on_c, 4, 62, 0
13, 114001, Note_on_c, 4, 60, 91
13, 114076, Note_on_c, 4, 62, 95
13, 114079, Note_on_c, 4, 60, 0
13, 114155, Note_on_c, 4, 62, 0
13, 114156, Note_on_c, 4, 60, 94
13, 114234, Note_on_c, 4, 60, 0
13, 114247, Note_on_c, 4, 62, 96
13, 114311, Note_on_c, 4, 60, 92
13, 114325, Note_on_c, 4, 62, 0
13, 114390, Note_on_c, 4, 60, 0
13, 114398, Note_on_c, 4, 62, 88
13, 114476, Note_on_c, 4, 62, 0
13, 114492, Note_on_c, 4, 60, 89
13, 114568, Note_on_c, 4, 62, 89
13, 114570, Note_on_c, 4, 60, 0
13, 114629, Note_on_c, 4, 60, 79
13, 114647, Note_on_c, 4, 62, 0
13, 114708, Note_on_c, 4, 60, 0
13, 114711, Note_on_c, 4, 62, 89
13, 114789, Note_on_c, 4, 62, 0
13, 114793, Note_on_c, 4, 60, 92
13, 114872, Note_on_c, 4, 60, 0
13, 114877, Note_on_c, 4, 62, 97
13, 114947, Note_on_c, 4, 60, 91
13, 114956, Note_on_c, 4, 62, 0
13, 115025, Note_on_c, 4, 60, 0
13, 115044, Note_on_c, 4, 62, 87
13, 115123, Note_on_c, 4, 62, 0
13, 115124, Note_on_c, 4, 60, 95
13, 115194, Note_on_c, 4, 62, 83
13, 115203, Note_on_c, 4, 60, 0
13, 115272, Note_on_c, 4, 62, 0
13, 115274, Note_on_c, 4, 60, 90
13, 115351, Note_on_c, 4, 62, 80
13, 115352, Note_on_c, 4, 60, 0
13, 115430, Note_on_c, 4, 62, 0
13, 115438, Note_on_c, 4, 60, 87
13, 115505, Note_on_c, 4, 62, 80
13, 115516, Note_on_c, 4, 60, 0
13, 115583, Note_on_c, 4, 62, 0
13, 115585, Note_on_c, 4, 60, 80
13, 115662, Note_on_c, 4, 62, 82
13, 115664, Note_on_c, 4, 60, 0
13, 115740, Note_on_c, 4, 62, 0
13, 115753, Note_on_c, 4, 60, 79
13, 115831, Note_on_c, 4, 60, 0
13, 115837, Note_on_c, 4, 62, 83
13, 115912, Note_on_c, 4, 60, 81
13, 115916, Note_on_c, 4, 62, 0
13, 115987, Note_on_c, 4, 62, 85
13, 115991, Note_on_c, 4, 60, 0
13, 116065, Note_on_c, 4, 62, 0
13, 116075, Note_on_c, 4, 60, 88
13, 116147, Note_on_c, 4, 62, 88
13, 116154, Note_on_c, 4, 60, 0
13, 116225, Note_on_c, 4, 60, 91
13, 116226, Note_on_c, 4, 62, 0
13, 116303, Note_on_c, 4, 60, 0
13, 116311, Note_on_c, 4, 62, 88
13, 116376, Note_on_c, 4, 60, 94
13, 116390, Note_on_c, 4, 62, 0
13, 116455, Note_on_c, 4, 60, 0
13, 116455, Note_on_c, 4, 62, 82
13, 116530, Note_on_c, 4, 60, 94
13, 116533, Note_on_c, 4, 62, 0
13, 116608, Note_on_c, 4, 60, 0
13, 124560, Note_on_c, 4, 46, 112
13, 124564, Note_on_c, 4, 46, 116
13, 124580, Note_on_c, 4, 58, 118
13, 124680, Note_on_c, 4, 46, 0
13, 124684, Note_on_c, 4, 46, 0
13, 124700, Note_on_c, 4, 58, 0
13, 124801, Note_on_c, 4, 46, 86
13, 124819, Note_on_c, 4, 58, 80
13, 124823, Note_on_c, 4, 46, 92
13, 124921, Note_on_c, 4, 46, 0
13, 124939, Note_on_c, 4, 58, 0
13, 124943, Note_on_c, 4, 46, 0
13, 125040, Note_on_c, 4, 46, 119
13, 125053, Note_on_c, 4, 46, 105
13, 125062, Note_on_c, 4, 58, 116
13, 125160, Note_on_c, 4, 46, 0
13, 125173, Note_on_c, 4, 46, 0
13, 125182, Note_on_c, 4, 58, 0
13, 125287, Note_on_c, 4, 46, 94
13, 125299, Note_on_c, 4, 46, 94
13, 125299, Note_on_c, 4, 58, 78
13, 125407, Note_on_c, 4, 46, 0
13, 125419, Note_on_c, 4, 46, 0
13, 125419, Note_on_c, 4, 58, 0
13, 125530, Note_on_c, 4, 46, 114
13, 125536, Note_on_c, 4, 58, 109
13, 125544, Note_on_c, 4, 46, 112
13, 125650, Note_on_c, 4, 46, 0
13, 125656, Note_on_c, 4, 58, 0
13, 125664, Note_on_c, 4, 46, 0
13, 125775, Note_on_c, 4, 46, 94
13, 125776, Note_on_c, 4, 46, 89
13, 125779, Note_on_c, 4, 58, 90
13, 125895, Note_on_c, 4, 46, 0
13, 125896, Note_on_c, 4, 46, 0
13, 125899, Note_on_c, 4, 58, 0
13, 126006, Note_on_c, 4, 46, 104
13, 126006, Note_on_c, 4, 46, 109
13, 126018, Note_on_c, 4, 58, 105
13, 126126, Note_on_c, 4, 46, 0
13, 126126, Note_on_c, 4, 46, 0
13, 126138, Note_on_c, 4, 58, 0
13, 126245, Note_on_c, 4, 46, 115
13, 126257, Note_on_c, 4, 58, 114
13, 126265, Note_on_c, 4, 46, 103
13, 126365, Note_on_c, 4, 46, 0
13, 126377, Note_on_c, 4, 58, 0
13, 126385, Note_on_c, 4, 46, 0
13, 126491, Note_on_c, 4, 56, 84
13, 126491, Note_on_c, 4, 44, 96
13, 126492, Note_on_c, 4, 44, 85
13, 126611, Note_on_c, 4, 56, 0
13, 126611, Note_on_c, 4, 44, 0
13, 126612, Note_on_c, 4, 44, 0
13, 126738, Note_on_c, 4, 55, 89
13, 126741, Note_on_c, 4, 43, 89
13, 126743, Note_on_c, 4, 43, 81
13, 126858, Note_on_c, 4, 55, 0
13, 126861, Note_on_c, 4, 43, 0
13, 126863, Note_on_c, 4, 43, 0
13, 126961, Note_on_c, 4, 41, 92
13, 126975, Note_on_c, 4, 53, 91
13, 126979, Note_on_c, 4, 41, 78
13, 127081, Note_on_c, 4, 41, 0
13, 127095, Note_on_c, 4, 53, 0
13, 127099, Note_on_c, 4, 41, 0
13, 127200, Note_on_c, 4, 43, 79
13, 127203, Note_on_c, 4, 43, 91
13, 127209, Note_on_c, 4, 55, 94
13, 127320, Note_on_c, 4, 43, 0
13, 127323, Note_on_c, 4, 43, 0
13, 127329, Note_on_c, 4, 55, 0
13, 129361, Note_on_c, 4, 53, 95
13, 129372, Note_on_c, 4, 41, 84
13, 129382, Note_on_c, 4, 41, 79
13, 129481, Note_on_c, 4, 53, 0
13, 129492, Note_on_c, 4, 41, 0
13, 129502, Note_on_c, 4, 41, 0
13, 129602, Note_on_c, 4, 43, 78
13, 129608, Note_on_c, 4, 43, 98
13, 129610, Note_on_c, 4, 55, 88
13, 129722, Note_on_c, 4, 43, 0
13, 129728, Note_on_c, 4, 43, 0
13, 129730, Note_on_c, 4, 55, 0
13, 129847, Note_on_c, 4, 44, 78
13, 129853, Note_on_c, 4, 56, 85
13, 129865, Note_on_c, 4, 44, 80
13, 129967, Note_on_c, 4, 44, 0
13, 129973, Note_on_c, 4, 56, 0
13, 129985, Note_on_c, 4, 44, 0
13, 130090, Note_on_c, 4, 58, 97
13, 130091, Note_on_c, 4, 46, 78
13, 130102, Note_on_c, 4, 46, 78
13, 130210, Note_on_c, 4, 58, 0
13, 130211, Note_on_c, 4, 46, 0
13, 130222, Note_on_c, 4, 46, 0
13, 130329, Note_on_c, 4, 44, 86
13, 130330, Note_on_c, 4, 44, 97
13, 130333, Note_on_c, 4, 56, 94
13, 130449, Note_on_c, 4, 44, 0
13, 130450, Note_on_c, 4, 44, 0
13, 130453, Note_on_c, 4, 56, 0
13, 130563, Note_on_c, 4, 43, 94
13, 130565, Note_on_c, 4, 43, 82
13, 130578, Note_on_c, 4, 55, 88
13, 130683, Note_on_c, 4, 43, 0
13, 130685, Note_on_c, 4, 43, 0
13, 130698, Note_on_c, 4, 55, 0
13, 130803, Note_on_c, 4, 41, 78
13, 130808, Note_on_c, 4, 41, 89
13, 130823, Note_on_c, 4, 53, 78
13, 130923, Note_on_c, 4, 41, 0
13, 130928, Note_on_c, 4, 41, 0
13, 130943, Note_on_c, 4, 53, 0
13, 131041, Note_on_c, 4, 43, 81
13, 131052, Note_on_c, 4, 55, 86
13, 131061, Note_on_c, 4, 43, 91
13, 131161, Note_on_c, 4, 43, 0
13, 131172, Note_on_c, 4, 55, 0
13, 131181, Note_on_c, 4, 43, 0
13, 134646, Note_on_c, 4, 41, 88
13, 134646, Note_on_c, 4, 41, 93
13, 134648, Note_on_c, 4, 53, 95
13, 134766, Note_on_c, 4, 41, 0
13, 134766, Note_on_c, 4, 41, 0
13, 134768, Note_on_c, 4, 53, 0
13, 134880, Note_on_c, 4, 43, 106
13, 134884, Note_on_c, 4, 43, 95
13, 134884, Note_on_c, 4, 55, 87
13, 135000, Note_on_c, 4, 43, 0
13, 135004, Note_on_c, 4, 43, 0
13, 135004, Note_on_c, 4, 55, 0
13, 135123, Note_on_c, 4, 56, 93
13, 135131, Note_on_c, 4, 44, 94
13, 135138, Note_on_c, 4, 44, 101
13, 135243, Note_on_c, 4, 56, 0
13, 135251, Note_on_c, 4, 44, 0
13, 135258, Note_on_c, 4, 44, 0
13, 135375, Note_on_c, 4, 46, 104
13, 135384, Note_on_c, 4, 46, 86
13, 135385, Note_on_c, 4, 58, 102
13, 135495, Note_on_c, 4, 46, 0
13, 135504, Note_on_c, 4, 46, 0
13, 135505, Note_on_c, 4, 58, 0
13, 135604, Note_on_c, 4, 56, 90
13, 135613, Note_on_c, 4, 44, 96
13, 135625, Note_on_c, 4, 44, 91
13, 135724, Note_on_c, 4, 56, 0
13, 135733, Note_on_c, 4, 44, 0
13, 135745, Note_on_c, 4, 44, 0
13, 135841, Note_on_c, 4, 43, 82
13, 135847, Note_on_c, 4, 43, 93
13, 135851, Note_on_c, 4, 55, 93
13, 135961, Note_on_c, 4, 43, 0
13, 135967, Note_on_c, 4, 43, 0
13, 135971, Note_on_c, 4, 55, 0
13, 136092, Note_on_c, 4, 41, 94
13, 136101, Note_on_c, 4, 41, 84
13, 136102, Note_on_c, 4, 53, 89
13, 136212, Note_on_c, 4, 41, 0
13, 136221, Note_on_c, 4, 41, 0
13, 136222, Note_on_c, 4, 53, 0
13, 136325, Note_on_c, 4, 43, 97
13, 136327, Note_on_c, 4, 55, 96
13, 136344, Note_on_c, 4, 43, 83
13, 136445, Note_on_c, 4, 43, 0
13, 136447, Note_on_c, 4, 55, 0
13, 136464, Note_on_c, 4, 43, 0
13, 140880, Note_on_c, 4, 46, 120
13, 140882, Note_on_c, 4, 58, 104
13, 140903, Note_on_c, 4, 46, 104
13, 141000, Note_on_c, 4, 46, 0
13, 141002, Note_on_c, 4, 58, 0
13, 141023, Note_on_c, 4, 46, 0
13, 141120, Note_on_c, 4, 46, 88
13, 141129, Note_on_c, 4, 58, 94
13, 141142, Note_on_c, 4, 46, 86
13, 141240, Note_on_c, 4, 46, 0
13, 141249, Note_on_c, 4, 58, 0
13, 141262, Note_on_c, 4, 46, 0
13, 141364, Note_on_c, 4, 58, 109
13, 141378, Note_on_c, 4, 46, 86
13, 141381, Note_on_c, 4, 46, 106
13, 141484, Note_on_c, 4, 58, 0
13, 141498, Note_on_c, 4, 46, 0
13, 141501, Note_on_c, 4, 46, 0
13, 141601, Note_on_c, 4, 58, 80
13, 141602, Note_on_c, 4, 46, 85
13, 141603, Note_on_c, 4, 46, 98
13, 141721, Note_on_c, 4, 58, 0
13, 141722, Note_on_c, 4, 46, 0
13, 141723, Note_on_c, 4, 46, 0
13, 141848, Note_on_c, 4, 58, 108
13, 141858, Note_on_c, 4, 46, 116
13, 141859, Note_on_c, 4, 46, 105
13, 141968, Note_on_c, 4, 58, 0
13, 141978, Note_on_c, 4, 46, 0
13, 141979, Note_on_c, 4, 46, 0
13, 142095, Note_on_c, 4, 46, 90
13, 142101, Note_on_c, 4, 46, 84
13, 142105, Note_on_c, 4, 58, 93
13, 142215, Note_on_c, 4, 46, 0
13, 142221, Note_on_c, 4, 46, 0
13, 142225, Note_on_c, 4, 58, 0
13, 142322, Note_on_c, 4, 58, 116
13, 142324, Note_on_c, 4, 46, 112
13, 142333, Note_on_c, 4, 46, 106
13, 142442, Note_on_c, 4, 58, 0
13, 142444, Note_on_c, 4, 46, 0
13, 142453, Note_on_c, 4, 46, 0
13, 142566, Note_on_c, 4, 46, 105
13, 142571, Note_on_c, 4, 58, 104
13, 142577, Note_on_c, 4, 46, 115
13, 142686, Note_on_c, 4, 46, 0
13, 142691, Note_on_c, 4, 58, 0
13, 142697, Note_on_c, 4, 46, 0
13, 142803, Note_on_c, 4, 44, 88
13, 142804, Note_on_c, 4, 44, 79
13, 142811, Note_on_c, 4, 56, 81
13, 142923, Note_on_c, 4, 44, 0
13, 142924, Note_on_c, 4, 44, 0
13, 142931, Note_on_c, 4, 56, 0
13, 143047, Note_on_c, 4, 43, 91
13, 143049, Note_on_c, 4, 55, 84
13, 143055, Note_on_c, 4, 43, 82
13, 143167, Note_on_c, 4, 43, 0
13, 143169, Note_on_c, 4, 55, 0
13, 143175, Note_on_c, 4, 43, 0
13, 143285, Note_on_c, 4, 41, 90
13, 143286, Note_on_c, 4, 53, 90
13, 143290, Note_on_c, 4, 41, 80
13, 143405, Note_on_c, 4, 41, 0
13, 143406, Note_on_c, 4, 53, 0
13, 143410, Note_on_c, 4, 41, 0
13, 143521, Note_on_c, 4, 55, 89
13, 143528, Note_on_c, 4, 43, 87
13, 143532, Note_on_c, 4, 43, 80
13, 143641, Note_on_c, 4, 55, 0
13, 143648, Note_on_c, 4, 43, 0
13, 143652, Note_on_c, 4, 43, 0
13, 144726, Note_on_c, 4, 41, 95
13, 144730, Note_on_c, 4, 53, 78
13, 144742, Note_on_c, 4, 41, 90
13, 144846, Note_on_c, 4, 41, 0
13, 144850, Note_on_c, 4, 53, 0
13, 144862, Note_on_c, 4, 41, 0
13, 144961, Note_on_c, 4, 43, 80
13, 144964, Note_on_c, 4, 43, 96
13, 144979, Note_on_c, 4, 55, 86
13, 145081, Note_on_c, 4, 43, 0
13, 145084, Note_on_c, 4, 43, 0
13, 145099, Note_on_c, 4, 55, 0
13, 145219, Note_on_c, 4, 44, 93
13, 145220, Note_on_c, 4, 56, 93
13, 145225, Note_on_c, 4, 44, 85
13, 145339, Note_on_c, 4, 44, 0
13, 145340, Note_on_c, 4, 56, 0
13, 145345, Note_on_c, 4, 44, 0
13, 145440, Note_on_c, 4, 58, 78
13, 145451, Note_on_c, 4, 46, 88
13, 145458, Note_on_c, 4, 46, 80
13, 145560, Note_on_c, 4, 58, 0
13, 145571, Note_on_c, 4, 46, 0
13, 145578, Note_on_c, 4, 46, 0
13, 145689, Note_on_c, 4, 56, 79
13, 145696, Note_on_c, 4, 44, 89
13, 145697, Note_on_c, 4, 44, 95
13, 145809, Note_on_c, 4, 56, 0
13, 145816, Note_on_c, 4, 44, 0
13, 145817, Note_on_c, 4, 44, 0
13, 145929, Note_on_c, 4, 55, 81
13, 145930, Note_on_c, 4, 43, 78
13, 145942, Note_on_c, 4, 43, 95
13, 146049, Note_on_c, 4, 55, 0
13, 146050, Note_on_c, 4, 43, 0
13, 146062, Note_on_c, 4, 43, 0
13, 146165, Note_on_c, 4, 53, 96
13, 146167, Note_on_c, 4, 41, 87
13, 146181, Note_on_c, 4, 41, 97
13, 146285, Note_on_c, 4, 53, 0
13, 146287, Note_on_c, 4, 41, 0
13, 146301, Note_on_c, 4, 41, 0
13, 146408, Note_on_c, 4, 43, 78
13, 146416, Note_on_c, 4, 55, 80
13, 146420, Note_on_c, 4, 43, 83
13, 146528, Note_on_c, 4, 43, 0
13, 146536, Note_on_c, 4, 55, 0
13, 146540, Note_on_c, 4, 43, 0
13, 147605, Note_on_c, 4, 41, 95
13, 147611, Note_on_c, 4, 41, 102
13, 147617, Note_on_c, 4, 53, 96
13, 147725, Note_on_c, 4, 41, 0
13, 147731, Note_on_c, 4, 41, 0
13, 147737, Note_on_c, 4, 53, 0
13, 147841, Note_on_c, 4, 55, 104
13, 147845, Note_on_c, 4, 43, 87
13, 147852, Note_on_c, 4, 43, 93
13, 147961, Note_on_c, 4, 55, 0
13, 147965, Note_on_c, 4, 43, 0
13, 147972, Note_on_c, 4, 43, 0
13, 148089, Note_on_c, 4, 44, 87
13, 148092, Note_on_c, 4, 56, 86
13, 148104, Note_on_c, 4, 44, 104
13, 148209, Note_on_c, 4, 44, 0
13, 148212, Note_on_c, 4, 56, 0
13, 148224, Note_on_c, 4, 44, 0
13, 148329, Note_on_c, 4, 58, 98
13, 148334, Note_on_c, 4, 46, 104
13, 148340, Note_on_c, 4, 46, 93
13, 148449, Note_on_c, 4, 58, 0
13, 148454, Note_on_c, 4, 46, 0
13, 148460, Note_on_c, 4, 46, 0
13, 148569, Note_on_c, 4, 56, 95
13, 148575, Note_on_c, 4, 44, 93
13, 148579, Note_on_c, 4, 44, 90
13, 148689, Note_on_c, 4, 56, 0
13, 148695, Note_on_c, 4, 44, 0
13, 148699, Note_on_c, 4, 44, 0
13, 148810, Note_on_c, 4, 43, 94
13, 148817, Note_on_c, 4, 43, 86
13, 148817, Note_on_c, 4, 55, 98
13, 148930, Note_on_c, 4, 43, 0
13, 148937, Note_on_c, 4, 43, 0
13, 148937, Note_on_c, 4, 55, 0
13, 149057, Note_on_c, 4, 41, 100
13, 149057, Note_on_c, 4, 41, 94
13, 149064, Note_on_c, 4, 53, 103
13, 149177, Note_on_c, 4, 41, 0
13, 149177, Note_on_c, 4, 41, 0
13, 149184, Note_on_c, 4, 53, 0
13, 149285, Note_on_c, 4, 43, 88
13, 149288, Note_on_c, 4, 55, 103
13, 149302, Note_on_c, 4, 43, 93
13, 149405, Note_on_c, 4, 43, 0
13, 149408, Note_on_c, 4, 55, 0
13, 149422, Note_on_c, 4, 43, 0
13, 153605, Note_on_c, 4, 60, 80
13, 153689, Note_on_c, 4, 61, 76
13, 153722, Note_on_c, 4, 60, 0
13, 153771, Note_on_c, 4, 60, 79
13, 153806, Note_on_c, 4, 61, 0
13, 153842, Note_on_c, 4, 61, 82
13, 153888, Note_on_c, 4, 60, 0
13, 153921, Note_on_c, 4, 60, 73
13, 153959, Note_on_c, 4, 61, 0
13, 153992, Note_on_c, 4, 61, 83
13, 154038, Note_on_c, 4, 60, 0
13, 154083, Note_on_c, 4, 60, 84
13, 154109, Note_on_c, 4, 61, 0
13, 154150, Note_on_c, 4, 61, 73
13, 154200, Note_on_c, 4, 60, 0
13, 154243, Note_on_c, 4, 60, 70
13, 154267, Note_on_c, 4, 61, 0
13, 154306, Note_on_c, 4, 61, 83
13, 154360, Note_on_c, 4, 60, 0
13, 154406, Note_on_c, 4, 60, 76
13, 154423, Note_on_c, 4, 61, 0
13, 154461, Note_on_c, 4, 61, 83
13, 154523, Note_on_c, 4, 60, 0
13, 154548, Note_on_c, 4, 60, 85
13, 154578, Note_on_c, 4, 61, 0
13, 154623, Note_on_c, 4, 61, 74
13, 154665, Note_on_c, 4, 60, 0
13, 154717, Note_on_c, 4, 60, 67
13, 154740, Note_on_c, 4, 61, 0
13, 154794, Note_on_c, 4, 61, 65
13, 154834, Note_on_c, 4, 60, 0
13, 154871, Note_on_c, 4, 60, 83
13, 154911, Note_on_c, 4, 61, 0
13, 154948, Note_on_c, 4, 61, 66
13, 154988, Note_on_c, 4, 60, 0
13, 155028, Note_on_c, 4, 60, 68
13, 155065, Note_on_c, 4, 61, 0
13, 155093, Note_on_c, 4, 61, 79
13, 155145, Note_on_c, 4, 60, 0
13, 155177, Note_on_c, 4, 60, 76
13, 155210, Note_on_c, 4, 61, 0
13, 155251, Note_on_c, 4, 61, 79
13, 155294, Note_on_c, 4, 60, 0
13, 155324, Note_on_c, 4, 60, 80
13, 155368, Note_on_c, 4, 61, 0
13, 155422, Note_on_c, 4, 61, 70
13, 155441, Note_on_c, 4, 60, 0
13, 155489, Note_on_c, 4, 60, 74
13, 155539, Note_on_c, 4, 61, 0
13, 155562, Note_on_c, 4, 61, 79
13, 155606, Note_on_c, 4, 60, 0
13, 155644, Note_on_c, 4, 60, 69
13, 155679, Note_on_c, 4, 61, 0
13, 155738, Note_on_c, 4, 61, 84
13, 155761, Note_on_c, 4, 60, 0
13, 155816, Note_on_c, 4, 60, 67
13, 155855, Note_on_c, 4, 61, 0
13, 155877, Note_on_c, 4, 61, 69
13, 155933, Note_on_c, 4, 60, 0
13, 155971, Note_on_c, 4, 60, 65
13, 155994, Note_on_c, 4, 61, 0
13, 156039, Note_on_c, 4, 61, 66
13, 156088, Note_on_c, 4, 60, 0
13, 156106, Note_on_c, 4, 60, 68
13, 156156, Note_on_c, 4, 61, 0
13, 156185, Note_on_c, 4, 61, 77
13, 156223, Note_on_c, 4, 60, 0
13, 156277, Note_on_c, 4, 60, 85
13, 156302, Note_on_c, 4, 61, 0
13, 156347, Note_on_c, 4, 61, 85
13, 156394, Note_on_c, 4, 60, 0
13, 156429, Note_on_c, 4, 60, 65
13, 156464, Note_on_c, 4, 61, 0
13, 156503, Note_on_c, 4, 61, 80
13, 156546, Note_on_c, 4, 60, 0
13, 156574, Note_on_c, 4, 60, 81
13, 156620, Note_on_c, 4, 61, 0
13, 156658, Note_on_c, 4, 61, 70
13, 156691, Note_on_c, 4, 60, 0
13, 156735, Note_on_c, 4, 60, 67
13, 156775, Note_on_c, 4, 61, 0
13, 156812, Note_on_c, 4, 61, 65
13, 156852, Note_on_c, 4, 60, 0
13, 156901, Note_on_c, 4, 60, 70
13, 156929, Note_on_c, 4, 61, 0
13, 156980, Note_on_c, 4, 61, 69
13, 157030, Note_on_c, 4, 60, 0
13, 157063, Note_on_c, 4, 60, 70
13, 157097, Note_on_c, 4, 61, 0
13, 157138, Note_on_c, 4, 61, 81
13, 157180, Note_on_c, 4, 60, 0
13, 157215, Note_on_c, 4, 60, 79
13, 157255, Note_on_c, 4, 61, 0
13, 157302, Note_on_c, 4, 61, 79
13, 157332, Note_on_c, 4, 60, 0
13, 157370, Note_on_c, 4, 60, 79
13, 157419, Note_on_c, 4, 61, 0
13, 157452, Note_on_c, 4, 61, 78
13, 157487, Note_on_c, 4, 60, 0
13, 157526, Note_on_c, 4, 60, 77
13, 157569, Note_on_c, 4, 61, 0
13, 157610, Note_on_c, 4, 61, 82
13, 157643, Note_on_c, 4, 60, 0
13, 157677, Note_on_c, 4, 60, 79
13, 157727, Note_on_c, 4, 61, 0
13, 157757, Note_on_c, 4, 61, 71
13, 157794, Note_on_c, 4, 60, 0
13, 157850, Note_on_c, 4, 60, 68
13, 157874, Note_on_c, 4, 61, 0
13, 157967, Note_on_c, 4, 60, 0
13, 162743, Note_on_c, 4, 60, 75
13, 162805, Note_on_c, 4, 62, 80
13, 162860, Note_on_c, 4, 60, 0
13, 162899, Note_on_c, 4, 60, 70
13, 162923, Note_on_c, 4, 62, 0
13, 162957, Note_on_c, 4, 62, 74
13, 163016, Note_on_c, 4, 60, 0
13, 163054, Note_on_c, 4, 60, 68
13, 163075, Note_on_c, 4, 62, 0
13, 163114, Note_on_c, 4, 62, 78
13, 163171, Note_on_c, 4, 60, 0
13, 163208, Note_on_c, 4, 60, 73
13, 163232, Note_on_c, 4, 62, 0
13, 163292, Note_on_c, 4, 62, 76
13, 163325, Note_on_c, 4, 60, 0
13, 163360, Note_on_c, 4, 60, 65
13, 163410, Note_on_c, 4, 62, 0
13, 163439, Note_on_c, 4, 62, 72
13, 163477, Note_on_c, 4, 60, 0
13, 163525, Note_on_c, 4, 60, 71
13, 163557, Note_on_c, 4, 62, 0
13, 163594, Note_on_c, 4, 62, 67
13, 163642, Note_on_c, 4, 60, 0
13, 163675, Note_on_c, 4, 60, 75
13, 163712, Note_on_c, 4, 62, 0
13, 163746, Note_on_c, 4, 62, 70
13, 163792, Note_on_c, 4, 60, 0
13, 163838, Note_on_c, 4, 60, 70
13, 163864, Note_on_c, 4, 62, 0
13, 163915, Note_on_c, 4, 62, 75
13, 163955, Note_on_c, 4, 60, 0
13, 164003, Note_on_c, 4, 60, 72
13, 164033, Note_on_c, 4, 62, 0
13, 164082, Note_on_c, 4, 62, 85
13, 164120, Note_on_c, 4, 60, 0
13, 164138, Note_on_c, 4, 60, 76
13, 164200, Note_on_c, 4, 62, 0
13, 164220, Note_on_c, 4, 62, 68
13, 164255, Note_on_c, 4, 60, 0
13, 164317, Note_on_c, 4, 60, 69
13, 164338, Note_on_c, 4, 62, 0
13, 164378, Note_on_c, 4, 62, 72
13, 164434, Note_on_c, 4, 60, 0
13, 164452, Note_on_c, 4, 60, 66
13, 164496, Note_on_c, 4, 62, 0
13, 164547, Note_on_c, 4, 62, 76
13, 164550, Note_on_c, 4, 60, 74
13, 164569, Note_on_c, 4, 60, 0
13, 164580, Note_on_c, 4, 62, 77
13, 164595, Note_on_c, 4, 60, 0
13, 164610, Note_on_c, 4, 64, 78
13, 164634, Note_on_c, 4, 60, 77
13, 164641, Note_on_c, 4, 62, 0
13, 164649, Note_on_c, 4, 62, 0
13, 164655, Note_on_c, 4, 64, 0
13, 164662, Note_on_c, 4, 65, 74
13, 164712, Note_on_c, 4, 62, 79
13, 164723, Note_on_c, 4, 64, 65
13, 164751, Note_on_c, 4, 60, 0
13, 164782, Note_on_c, 4, 65, 0
13, 164792, Note_on_c, 4, 60, 84
13, 164818, Note_on_c, 4, 65, 84
13, 164830, Note_on_c, 4, 62, 0
13, 164841, Note_on_c, 4, 64, 0
13, 164862, Note_on_c, 4, 62, 69
13, 164891, Note_on_c, 4, 64, 70
13, 164909, Note_on_c, 4, 60, 0
13, 164938, Note_on_c, 4, 65, 0
13, 164941, Note_on_c, 4, 60, 83
13, 164968, Note_on_c, 4, 65, 72
13, 164980, Note_on_c, 4, 62, 0
13, 165004, Note_on_c, 4, 62, 69
13, 165011, Note_on_c, 4, 64, 0
13, 165058, Note_on_c, 4, 60, 0
13, 165060, Note_on_c, 4, 64, 69
13, 165086, Note_on_c, 4, 65, 0
13, 165103, Note_on_c, 4, 60, 68
13, 165122, Note_on_c, 4, 62, 0
13, 165127, Note_on_c, 4, 65, 80
13, 165167, Note_on_c, 4, 62, 84
13, 165180, Note_on_c, 4, 64, 0
13, 165216, Note_on_c, 4, 64, 73
13, 165220, Note_on_c, 4, 60, 0
13, 165241, Note_on_c, 4, 60, 84
13, 165247, Note_on_c, 4, 65, 0
13, 165285, Note_on_c, 4, 62, 0
13, 165297, Note_on_c, 4, 65, 72
13, 165334, Note_on_c, 4, 64, 0
13, 165342, Note_on_c, 4, 62, 78
13, 165358, Note_on_c, 4, 60, 0
13, 165380, Note_on_c, 4, 64, 69
13, 165406, Note_on_c, 4, 60, 82
13, 165417, Note_on_c, 4, 65, 0
13, 165460, Note_on_c, 4, 62, 0
13, 165460, Note_on_c, 4, 65, 84
13, 165499, Note_on_c, 4, 62, 75
13, 165500, Note_on_c, 4, 64, 0
13, 165523, Note_on_c, 4, 60, 0
13, 165532, Note_on_c, 4, 64, 67
13, 165558, Note_on_c, 4, 60, 80
13, 165578, Note_on_c, 4, 65, 0
13, 165607, Note_on_c, 4, 65, 74
13, 165617, Note_on_c, 4, 62, 0
13, 165651, Note_on_c, 4, 62, 85
13, 165652, Note_on_c, 4, 64, 0
13, 165675, Note_on_c, 4, 60, 0
13, 165697, Note_on_c, 4, 64, 75
13, 165727, Note_on_c, 4, 65, 0
13, 165729, Note_on_c, 4, 60, 67
13, 165765, Note_on_c, 4, 65, 79
13, 165769, Note_on_c, 4, 62, 0
13, 165794, Note_on_c, 4, 62, 70
13, 165815, Note_on_c, 4, 64, 0
13, 165840, Note_on_c, 4, 64, 76
13, 165846, Note_on_c, 4, 60, 0
13, 165884, Note_on_c, 4, 60, 66
13, 165885, Note_on_c, 4, 65, 0
13, 165912, Note_on_c, 4, 62, 0
13, 165932, Note_on_c, 4, 65, 66
13, 165956, Note_on_c, 4, 62, 75
13, 165960, Note_on_c, 4, 64, 0
13, 166001, Note_on_c, 4, 60, 0
13, 166015, Note_on_c, 4, 64, 77
13, 166045, Note_on_c, 4, 60, 77
13, 166050, Note_on_c, 4, 65, 0
13, 166074, Note_on_c, 4, 62, 0
13, 166080, Note_on_c, 4, 65, 66
13, 166128, Note_on_c, 4, 62, 84
13, 166135, Note_on_c, 4, 64, 0
13, 166162, Note_on_c, 4, 60, 0
13, 166162, Note_on_c, 4, 64, 73
13, 166186, Note_on_c, 4, 60, 82
13, 166200, Note_on_c, 4, 65, 0
13, 166243, Note_on_c, 4, 65, 79
13, 166246, Note_on_c, 4, 62, 0
13, 166280, Note_on_c, 4, 64, 0
13, 166285, Note_on_c, 4, 62, 79
13, 166303, Note_on_c, 4, 60, 0
13, 166339, Note_on_c, 4, 64, 72
13, 166355, Note_on_c, 4, 60, 85
13, 166363, Note_on_c, 4, 65, 0
13, 166403, Note_on_c, 4, 62, 0
13, 166414, Note_on_c, 4, 65, 82
13, 166436, Note_on_c, 4, 62, 84
13, 166459, Note_on_c, 4, 64, 0
13, 166472, Note_on_c, 4, 60, 0
13, 166480, Note_on_c, 4, 64, 84
13, 166510, Note_on_c, 4, 60, 81
13, 166532, Note_on_c, 4, 65, 0
13, 166554, Note_on_c, 4, 62, 0
13, 166579, Note_on_c, 4, 65, 59
13, 166600, Note_on_c, 4, 64, 0
13, 166601, Note_on_c, 4, 62, 45
13, 166627, Note_on_c, 4, 60, 0
13, 166662, Note_on_c, 4, 64, 57
13, 166666, Note_on_c, 4, 60, 45
13, 166699, Note_on_c, 4, 65, 0
13, 166719, Note_on_c, 4, 62, 0
13, 166730, Note_on_c, 4, 65, 45
13, 166759, Note_on_c, 4, 62, 53
13, 166780, Note_on_c, 4, 64, 0
13, 166783, Note_on_c, 4, 60, 0
13, 166802, Note_on_c, 4, 64, 41
13, 166815, Note_on_c, 4, 60, 41
13, 166850, Note_on_c, 4, 65, 0
13, 166877, Note_on_c, 4, 62, 0
13, 166891, Note_on_c, 4, 65, 51
13, 166914, Note_on_c, 4, 62, 59
13, 166922, Note_on_c, 4, 64, 0
13, 166932, Note_on_c, 4, 60, 0
13, 166962, Note_on_c, 4, 64, 58
13, 166979, Note_on_c, 4, 60, 57
13, 167009, Note_on_c, 4, 65, 0
13, 167032, Note_on_c, 4, 62, 0
13, 167045, Note_on_c, 4, 65, 49
13, 167076, Note_on_c, 4, 62, 47
13, 167082, Note_on_c, 4, 64, 0
13, 167096, Note_on_c, 4, 60, 0
13, 167132, Note_on_c, 4, 60, 40
13, 167139, Note_on_c, 4, 64, 48
13, 167165, Note_on_c, 4, 65, 0
13, 167194, Note_on_c, 4, 62, 0
13, 167212, Note_on_c, 4, 65, 53
13, 167225, Note_on_c, 4, 62, 54
13, 167249, Note_on_c, 4, 60, 0
13, 167257, Note_on_c, 4, 64, 0
13, 167282, Note_on_c, 4, 64, 43
13, 167301, Note_on_c, 4, 60, 50
13, 167332, Note_on_c, 4, 65, 0
13, 167343, Note_on_c, 4, 62, 0
13, 167360, Note_on_c, 4, 65, 58
13, 167374, Note_on_c, 4, 62, 44
13, 167402, Note_on_c, 4, 64, 0
13, 167418, Note_on_c, 4, 60, 0
13, 167458, Note_on_c, 4, 60, 54
13, 167461, Note_on_c, 4, 64, 54
13, 167478, Note_on_c, 4, 65, 0
13, 167492, Note_on_c, 4, 62, 0
13, 167543, Note_on_c, 4, 62, 51
13, 167545, Note_on_c, 4, 65, 47
13, 167581, Note_on_c, 4, 64, 0
13, 167593, Note_on_c, 4, 60, 0
13, 167608, Note_on_c, 4, 60, 54
13, 167617, Note_on_c, 4, 64, 48
13, 167661, Note_on_c, 4, 62, 0
13, 167665, Note_on_c, 4, 65, 0
13, 167686, Note_on_c, 4, 65, 57
13, 167692, Note_on_c, 4, 62, 54
13, 167725, Note_on_c, 4, 60, 0
13, 167735, Note_on_c, 4, 64, 0
13, 167761, Note_on_c, 4, 64, 46
13, 167767, Note_on_c, 4, 60, 54
13, 167806, Note_on_c, 4, 65, 0
13, 167810, Note_on_c, 4, 62, 0
13, 167838, Note_on_c, 4, 62, 49
13, 167854, Note_on_c, 4, 65, 43
13, 167881, Note_on_c, 4, 64, 0
13, 167884, Note_on_c, 4, 60, 0
13, 167924, Note_on_c, 4, 64, 39
13, 167926, Note_on_c, 4, 60, 55
13, 167956, Note_on_c, 4, 62, 0
13, 167972, Note_on_c, 4, 65, 0
13, 168019, Note_on_c, 4, 62, 58
13, 168022, Note_on_c, 4, 65, 47
13, 168043, Note_on_c, 4, 60, 0
13, 168044, Note_on_c, 4, 64, 0
13, 168080, Note_on_c, 4, 60, 43
13, 168096, Note_on_c, 4, 64, 42
13, 168137, Note_on_c, 4, 62, 0
13, 168142, Note_on_c, 4, 65, 0
13, 168153, Note_on_c, 4, 62, 42
13, 168176, Note_on_c, 4, 65, 57
13, 168197, Note_on_c, 4, 60, 0
13, 168214, Note_on_c, 4, 64, 0
13, 168242, Note_on_c, 4, 60, 48
13, 168257, Note_on_c, 4, 64, 51
13, 168271, Note_on_c, 4, 62, 0
13, 168296, Note_on_c, 4, 65, 0
13, 168313, Note_on_c, 4, 62, 45
13, 168327, Note_on_c, 4, 65, 59
13, 168359, Note_on_c, 4, 60, 0
13, 168377, Note_on_c, 4, 64, 0
13, 168390, Note_on_c, 4, 60, 40
13, 168413, Note_on_c, 4, 64, 52
13, 168431, Note_on_c, 4, 62, 0
13, 168445, Note_on_c, 4, 65, 0
13, 168471, Note_on_c, 4, 62, 42
13, 168503, Note_on_c, 4, 65, 53
13, 168507, Note_on_c, 4, 60, 0
13, 168533, Note_on_c, 4, 64, 0
13, 168554, Note_on_c, 4, 60, 40
13, 168573, Note_on_c, 4, 64, 40
13, 168589, Note_on_c, 4, 62, 0
13, 168623, Note_on_c, 4, 65, 0
13, 168641, Note_on_c, 4, 62, 46
13, 168651, Note_on_c, 4, 65, 39
13, 168671, Note_on_c, 4, 60, 0
13, 168691, Note_on_c, 4, 64, 0
13, 168721, Note_on_c, 4, 60, 40
13, 168733, Note_on_c, 4, 64, 47
13, 168759, Note_on_c, 4, 62, 0
13, 168771, Note_on_c, 4, 65, 0
13, 168796, Note_on_c, 4, 62, 51
13, 168816, Note_on_c, 4, 65, 47
13, 168838, Note_on_c, 4, 60, 0
13, 168853, Note_on_c, 4, 64, 0
13, 168870, Note_on_c, 4, 60, 56
13, 168885, Note_on_c, 4, 64, 48
13, 168914, Note_on_c, 4, 62, 0
13, 168934, Note_on_c, 4, 65, 0
13, 168947, Note_on_c, 4, 62, 47
13, 168982, Note_on_c, 4, 65, 43
13, 168987, Note_on_c, 4, 60, 0
13, 169005, Note_on_c, 4, 64, 0
13, 169039, Note_on_c, 4, 60, 58
13, 169063, Note_on_c, 4, 64, 57
13, 169065, Note_on_c, 4, 62, 0
13, 169102, Note_on_c, 4, 65, 0
13, 169104, Note_on_c, 4, 62, 48
13, 169121, Note_on_c, 4, 65, 58
13, 169156, Note_on_c, 4, 60, 0
13, 169181, Note_on_c, 4, 64, 0
13, 169182, Note_on_c, 4, 60, 59
13, 169211, Note_on_c, 4, 64, 54
13, 169222, Note_on_c, 4, 62, 0
13, 169241, Note_on_c, 4, 65, 0
13, 169281, Note_on_c, 4, 62, 59
13, 169299, Note_on_c, 4, 60, 0
13, 169300, Note_on_c, 4, 65, 42
13, 169331, Note_on_c, 4, 64, 0
13, 169342, Note_on_c, 4, 60, 47
13, 169361, Note_on_c, 4, 64, 55
13, 169399, Note_on_c, 4, 62, 0
13, 169418, Note_on_c, 4, 65, 0
13, 169437, Note_on_c, 4, 62, 44
13, 169459, Note_on_c, 4, 60, 0
13, 169461, Note_on_c, 4, 65, 49
13, 169481, Note_on_c, 4, 64, 0
13, 169514, Note_on_c, 4, 60, 57
13, 169544, Note_on_c, 4, 64, 48
13, 169555, Note_on_c, 4, 62, 0
13, 169581, Note_on_c, 4, 65, 0
13, 169593, Note_on_c, 4, 62, 47
13, 169601, Note_on_c, 4, 65, 49
13, 169631, Note_on_c, 4, 60, 0
13, 169662, Note_on_c, 4, 64, 0
13, 169669, Note_on_c, 4, 60, 46
13, 169688, Note_on_c, 4, 64, 54
13, 169711, Note_on_c, 4, 62, 0
13, 169721, Note_on_c, 4, 65, 0
13, 169744, Note_on_c, 4, 62, 45
13, 169768, Note_on_c, 4, 65, 46
13, 169786, Note_on_c, 4, 60, 0
13, 169808, Note_on_c, 4, 64, 0
13, 169815, Note_on_c, 4, 60, 41
13, 169852, Note_on_c, 4, 64, 44
13, 169862, Note_on_c, 4, 62, 0
13, 169886, Note_on_c, 4, 65, 0
13, 169897, Note_on_c, 4, 62, 53
13, 169932, Note_on_c, 4, 60, 0
13, 169942, Note_on_c, 4, 65, 59
13, 169971, Note_on_c, 4, 60, 59
13, 169972, Note_on_c, 4, 64, 0
13, 170015, Note_on_c, 4, 62, 0
13, 170019, Note_on_c, 4, 64, 51
13, 170061, Note_on_c, 4, 62, 48
13, 170062, Note_on_c, 4, 65, 0
13, 170088, Note_on_c, 4, 60, 0
13, 170100, Note_on_c, 4, 65, 48
13, 170137, Note_on_c, 4, 64, 0
13, 170141, Note_on_c, 4, 60, 40
13, 170172, Note_on_c, 4, 64, 57
13, 170179, Note_on_c, 4, 62, 0
13, 170220, Note_on_c, 4, 65, 0
13, 170220, Note_on_c, 4, 62, 43
13, 170241, Note_on_c, 4, 65, 53
13, 170258, Note_on_c, 4, 60, 0
13, 170292, Note_on_c, 4, 64, 0
13, 170305, Note_on_c, 4, 60, 49
13, 170336, Note_on_c, 4, 64, 40
13, 170338, Note_on_c, 4, 62, 0
13, 170359, Note_on_c, 4, 65, 0
13, 170366, Note_on_c, 4, 62, 41
13, 170402, Note_on_c, 4, 65, 49
13, 170422, Note_on_c, 4, 60, 0
13, 170455, Note_on_c, 4, 60, 54
13, 170456, Note_on_c, 4, 64, 0
13, 170484, Note_on_c, 4, 62, 0
13, 170489, Note_on_c, 4, 64, 47
13, 170517, Note_on_c, 4, 62, 45
13, 170522, Note_on_c, 4, 65, 0
13, 170572, Note_on_c, 4, 60, 0
13, 170576, Note_on_c, 4, 65, 41
13, 170607, Note_on_c, 4, 64, 0
13, 170610, Note_on_c, 4, 60, 40
13, 170635, Note_on_c, 4, 62, 0
13, 170662, Note_on_c, 4, 64, 48
13, 170677, Note_on_c, 4, 62, 49
13, 170696, Note_on_c, 4, 65, 0
13, 170727, Note_on_c, 4, 60, 0
13, 170731, Note_on_c, 4, 65, 41
13, 170760, Note_on_c, 4, 60, 56
13, 170782, Note_on_c, 4, 64, 0
13, 170795, Note_on_c, 4, 62, 0
13, 170824, Note_on_c, 4, 64, 50
13, 170838, Note_on_c, 4, 62, 40
13, 170849, Note_on_c, 4, 65, 0
13, 170877, Note_on_c, 4, 60, 0
13, 170895, Note_on_c, 4, 65, 40
13, 170933, Note_on_c, 4, 60, 52
13, 170944, Note_on_c, 4, 64, 0
13, 170956, Note_on_c, 4, 62, 0
13, 170985, Note_on_c, 4, 64, 40
13, 170999, Note_on_c, 4, 62, 59
13, 171015, Note_on_c, 4, 65, 0
13, 171050, Note_on_c, 4, 60, 0
13, 171061, Note_on_c, 4, 65, 50
13, 171084, Note_on_c, 4, 60, 52
13, 171103, Note_on_c, 4, 64, 0
13, 171117, Note_on_c, 4, 62, 0
13, 171127, Note_on_c, 4, 64, 47
13, 171165, Note_on_c, 4, 62, 57
13, 171181, Note_on_c, 4, 65, 0
13, 171201, Note_on_c, 4, 60, 0
13, 171223, Note_on_c, 4, 65, 56
13, 171236, Note_on_c, 4, 60, 45
13, 171247, Note_on_c, 4, 64, 0
13, 171283, Note_on_c, 4, 62, 0
13, 171288, Note_on_c, 4, 64, 53
13, 171322, Note_on_c, 4, 62, 49
13, 171341, Note_on_c, 4, 65, 0
13, 171353, Note_on_c, 4, 60, 0
13, 171366, Note_on_c, 4, 65, 49
13, 171394, Note_on_c, 4, 60, 45
13, 171408, Note_on_c, 4, 64, 0
13, 171440, Note_on_c, 4, 62, 0
13, 171456, Note_on_c, 4, 64, 43
13, 171483, Note_on_c, 4, 62, 48
13, 171486, Note_on_c, 4, 65, 0
13, 171511, Note_on_c, 4, 60, 0
13, 171520, Note_on_c, 4, 65, 55
13, 171556, Note_on_c, 4, 60, 40
13, 171574, Note_on_c, 4, 64, 0
13, 171601, Note_on_c, 4, 62, 0
13, 171609, Note_on_c, 4, 64, 54
13, 171623, Note_on_c, 4, 62, 46
13, 171640, Note_on_c, 4, 65, 0
13, 171673, Note_on_c, 4, 60, 0
13, 171699, Note_on_c, 4, 65, 45
13, 171713, Note_on_c, 4, 60, 47
13, 171729, Note_on_c, 4, 64, 0
13, 171741, Note_on_c, 4, 62, 0
13, 171782, Note_on_c, 4, 62, 49
13, 171784, Note_on_c, 4, 64, 45
13, 171817, Note_on_c, 4, 65, 0
13, 171830, Note_on_c, 4, 60, 0
13, 171851, Note_on_c, 4, 65, 59
13, 171862, Note_on_c, 4, 60, 46
13, 171900, Note_on_c, 4, 62, 0
13, 171904, Note_on_c, 4, 64, 0
13, 171934, Note_on_c, 4, 64, 52
13, 171958, Note_on_c, 4, 62, 58
13, 171971, Note_on_c, 4, 65, 0
13, 171979, Note_on_c, 4, 60, 0
13, 172004, Note_on_c, 4, 65, 56
13, 172037, Note_on_c, 4, 60, 57
13, 172052, Note_on_c, 4, 64, 0
13, 172076, Note_on_c, 4, 62, 0
13, 172088, Note_on_c, 4, 64, 48
13, 172109, Note_on_c, 4, 62, 45
13, 172124, Note_on_c, 4, 65, 0
13, 172154, Note_on_c, 4, 60, 0
13, 172174, Note_on_c, 4, 60, 57
13, 172182, Note_on_c, 4, 65, 49
13, 172208, Note_on_c, 4, 64, 0
13, 172227, Note_on_c, 4, 62, 0
13, 172249, Note_on_c, 4, 64, 40
13, 172252, Note_on_c, 4, 62, 42
13, 172291, Note_on_c, 4, 60, 0
13, 172300, Note_on_c, 4, 65, 0
13, 172336, Note_on_c, 4, 60, 42
13, 172345, Note_on_c, 4, 65, 49
13, 172369, Note_on_c, 4, 64, 0
13, 172381, Note_on_c, 4, 62, 0
13, 172404, Note_on_c, 4, 64, 43
13, 172417, Note_on_c, 4, 62, 51
13, 172453, Note_on_c, 4, 60, 0
13, 172465, Note_on_c, 4, 65, 0
13, 172483, Note_on_c, 4, 65, 52
13, 172508, Note_on_c, 4, 60, 52
13, 172522, Note_on_c, 4, 64, 0
13, 172535, Note_on_c, 4, 62, 0
13, 172575, Note_on_c, 4, 64, 58
13, 172584, Note_on_c, 4, 62, 49
13, 172603, Note_on_c, 4, 65, 0
13, 172625, Note_on_c, 4, 60, 0
13, 172649, Note_on_c, 4, 65, 51
13, 172653, Note_on_c, 4, 60, 46
13, 172695, Note_on_c, 4, 64, 0
13, 172702, Note_on_c, 4, 62, 0
13, 172725, Note_on_c, 4, 64, 40
13, 172728, Note_on_c, 4, 62, 49
13, 172767, Note_on_c, 4, 65, 0
13, 172770, Note_on_c, 4, 60, 0
13, 172802, Note_on_c, 4, 65, 46
13, 172811, Note_on_c, 4, 60, 43
13, 172845, Note_on_c, 4, 64, 0
13, 172846, Note_on_c, 4, 62, 0
13, 172884, Note_on_c, 4, 64, 39
13, 172903, Note_on_c, 4, 62, 39
13, 172922, Note_on_c, 4, 65, 0
13, 172928, Note_on_c, 4, 60, 0
13, 172961, Note_on_c, 4, 65, 43
13, 172976, Note_on_c, 4, 60, 48
13, 173002, Note_on_c, 4, 64, 0
13, 173021, Note_on_c, 4, 62, 0
13, 173040, Note_on_c, 4, 62, 55
13, 173047, Note_on_c, 4, 64, 45
13, 173081, Note_on_c, 4, 65, 0
13, 173093, Note_on_c, 4, 60, 0
13, 173121, Note_on_c, 4, 60, 50
13, 173133, Note_on_c, 4, 65, 52
13, 173158, Note_on_c, 4, 62, 0
13, 173167, Note_on_c, 4, 64, 0
13, 173197, Note_on_c, 4, 62, 39
13, 173216, Note_on_c, 4, 64, 59
13, 173238, Note_on_c, 4, 60, 0
13, 173251, Note_on_c, 4, 65, 0
13, 173281, Note_on_c, 4, 60, 40
13, 173292, Note_on_c, 4, 65, 48
13, 173315, Note_on_c, 4, 62, 0
13, 173336, Note_on_c, 4, 64, 0
13, 173362, Note_on_c, 4, 62, 57
13, 173364, Note_on_c, 4, 64, 46
13, 173398, Note_on_c, 4, 60, 0
13, 173412, Note_on_c, 4, 65, 0
13, 173433, Note_on_c, 4, 60, 53
13, 173447, Note_on_c, 4, 65, 53
13, 173480, Note_on_c, 4, 62, 0
13, 173482, Note_on_c, 4, 64, 0
13, 173527, Note_on_c, 4, 62, 41
13, 173535, Note_on_c, 4, 64, 42
13, 173550, Note_on_c, 4, 60, 0
13, 173567, Note_on_c, 4, 65, 0
13, 173603, Note_on_c, 4, 60, 58
13, 173617, Note_on_c, 4, 65, 43
13, 173645, Note_on_c, 4, 62, 0
13, 173655, Note_on_c, 4, 64, 0
13, 173678, Note_on_c, 4, 62, 40
13, 173681, Note_on_c, 4, 64, 48
13, 173720, Note_on_c, 4, 60, 0
13, 173735, Note_on_c, 4, 65, 0
13, 173750, Note_on_c, 4, 60, 48
13, 173762, Note_on_c, 4, 65, 48
13, 173796, Note_on_c, 4, 62, 0
13, 173801, Note_on_c, 4, 64, 0
13, 173825, Note_on_c, 4, 62, 48
13, 173850, Note_on_c, 4, 64, 51
13, 173867, Note_on_c, 4, 60, 0
13, 173882, Note_on_c, 4, 65, 0
13, 173906, Note_on_c, 4, 60, 40
13, 173942, Note_on_c, 4, 65, 45
13, 173943, Note_on_c, 4, 62, 0
13, 173968, Note_on_c, 4, 64, 0
13, 173997, Note_on_c, 4, 62, 47
13, 174009, Note_on_c, 4, 64, 47
13, 174023, Note_on_c, 4, 60, 0
13, 174062, Note_on_c, 4, 65, 0
13, 174068, Note_on_c, 4, 60, 59
13, 174080, Note_on_c, 4, 65, 55
13, 174115, Note_on_c, 4, 62, 0
13, 174129, Note_on_c, 4, 64, 0
13, 174160, Note_on_c, 4, 62, 39
13, 174171, Note_on_c, 4, 64, 50
13, 174185, Note_on_c, 4, 60, 0
13, 174198, Note_on_c, 4, 65, 0
13, 174226, Note_on_c, 4, 60, 49
13, 174255, Note_on_c, 4, 65, 56
13, 174278, Note_on_c, 4, 62, 0
13, 174291, Note_on_c, 4, 64, 0
13, 174309, Note_on_c, 4, 62, 58
13, 174333, Note_on_c, 4, 64, 56
13, 174343, Note_on_c, 4, 60, 0
13, 174375, Note_on_c, 4, 65, 0
13, 174379, Note_on_c, 4, 60, 49
13, 174405, Note_on_c, 4, 65, 43
13, 174427, Note_on_c, 4, 62, 0
13, 174451, Note_on_c, 4, 64, 0
13, 174478, Note_on_c, 4, 62, 55
13, 174496, Note_on_c, 4, 60, 0
13, 174498, Note_on_c, 4, 64, 46
13, 174525, Note_on_c, 4, 65, 0
13, 174548, Note_on_c, 4, 60, 54
13, 174580, Note_on_c, 4, 65, 46
13, 174596, Note_on_c, 4, 62, 0
13, 174618, Note_on_c, 4, 64, 0
13, 174625, Note_on_c, 4, 62, 55
13, 174646, Note_on_c, 4, 64, 47
13, 174665, Note_on_c, 4, 60, 0
13, 174698, Note_on_c, 4, 65, 0
13, 174705, Note_on_c, 4, 60, 46
13, 174743, Note_on_c, 4, 62, 0
13, 174744, Note_on_c, 4, 65, 59
13, 174766, Note_on_c, 4, 64, 0
13, 174780, Note_on_c, 4, 62, 58
13, 174816, Note_on_c, 4, 64, 49
13, 174822, Note_on_c, 4, 60, 0
13, 174855, Note_on_c, 4, 60, 58
13, 174864, Note_on_c, 4, 65, 0
13, 174887, Note_on_c, 4, 65, 55
13, 174898, Note_on_c, 4, 62, 0
13, 174930, Note_on_c, 4, 62, 47
13, 174934, Note_on_c, 4, 64, 0
13, 174972, Note_on_c, 4, 60, 0
13, 174982, Note_on_c, 4, 64, 47
13, 175007, Note_on_c, 4, 65, 0
13, 175022, Note_on_c, 4, 60, 48
13, 175048, Note_on_c, 4, 62, 0
13, 175053, Note_on_c, 4, 65, 53
13, 175102, Note_on_c, 4, 64, 0
13, 175102, Note_on_c, 4, 62, 59
13, 175120, Note_on_c, 4, 64, 59
13, 175139, Note_on_c, 4, 60, 0
13, 175166, Note_on_c, 4, 60, 58
13, 175171, Note_on_c, 4, 65, 0
13, 175216, Note_on_c, 4, 65, 53
13, 175220, Note_on_c, 4, 62, 0
13, 175240, Note_on_c, 4, 64, 0
13, 175262, Note_on_c, 4, 62, 59
13, 175282, Note_on_c, 4, 64, 59
13, 175283, Note_on_c, 4, 60, 0
13, 175321, Note_on_c, 4, 60, 58
13, 175336, Note_on_c, 4, 65, 0
13, 175380, Note_on_c, 4, 62, 0
13, 175384, Note_on_c, 4, 65, 57
13, 175400, Note_on_c, 4, 64, 0
13, 175412, Note_on_c, 4, 62, 43
13, 175438, Note_on_c, 4, 60, 0
13, 175457, Note_on_c, 4, 64, 57
13, 175485, Note_on_c, 4, 60, 45
13, 175504, Note_on_c, 4, 65, 0
13, 175524, Note_on_c, 4, 65, 47
13, 175530, Note_on_c, 4, 62, 0
13, 175568, Note_on_c, 4, 62, 39
13, 175577, Note_on_c, 4, 64, 0
13, 175599, Note_on_c, 4, 64, 50
13, 175602, Note_on_c, 4, 60, 0
13, 175641, Note_on_c, 4, 60, 50
13, 175642, Note_on_c, 4, 65, 0
13, 175686, Note_on_c, 4, 62, 0
13, 175690, Note_on_c, 4, 65, 59
13, 175719, Note_on_c, 4, 64, 0
13, 175725, Note_on_c, 4, 62, 56
13, 175758, Note_on_c, 4, 60, 0
13, 175781, Note_on_c, 4, 64, 43
13, 175799, Note_on_c, 4, 60, 43
13, 175810, Note_on_c, 4, 65, 0
13, 175843, Note_on_c, 4, 62, 0
13, 175849, Note_on_c, 4, 65, 52
13, 175885, Note_on_c, 4, 62, 51
13, 175899, Note_on_c, 4, 64, 0
13, 175916, Note_on_c, 4, 60, 0
13, 175932, Note_on_c, 4, 64, 44
13, 175964, Note_on_c, 4, 60, 57
13, 175969, Note_on_c, 4, 65, 0
13, 176003, Note_on_c, 4, 62, 0
13, 176013, Note_on_c, 4, 65, 54
13, 176035, Note_on_c, 4, 62, 56
13, 176052, Note_on_c, 4, 64, 0
13, 176081, Note_on_c, 4, 60, 0
13, 176087, Note_on_c, 4, 64, 52
13, 176108, Note_on_c, 4, 60, 50
13, 176131, Note_on_c, 4, 65, 0
13, 176153, Note_on_c, 4, 62, 0
13, 176174, Note_on_c, 4, 65, 47
13, 176188, Note_on_c, 4, 62, 50
13, 176207, Note_on_c, 4, 64, 0
13, 176225, Note_on_c, 4, 60, 0
13, 176258, Note_on_c, 4, 64, 44
13, 176268, Note_on_c, 4, 60, 43
13, 176294, Note_on_c, 4, 65, 0
13, 176306, Note_on_c, 4, 62, 0
13, 176332, Note_on_c, 4, 65, 56
13, 176362, Note_on_c, 4, 62, 47
13, 176376, Note_on_c, 4, 64, 0
13, 176385, Note_on_c, 4, 60, 0
13, 176413, Note_on_c, 4, 64, 48
13, 176431, Note_on_c, 4, 60, 40
13, 176452, Note_on_c, 4, 65, 0
13, 176480, Note_on_c, 4, 62, 0
13, 176499, Note_on_c, 4, 65, 51
13, 176520, Note_on_c, 4, 62, 53
13, 176533, Note_on_c, 4, 64, 0
13, 176548, Note_on_c, 4, 60, 0
13, 176562, Note_on_c, 4, 64, 48
13, 176591, Note_on_c, 4, 60, 45
13, 176617, Note_on_c, 4, 65, 0
13, 176638, Note_on_c, 4, 62, 0
13, 176659, Note_on_c, 4, 65, 52
13, 176682, Note_on_c, 4, 64, 0
13, 176682, Note_on_c, 4, 62, 49
13, 176708, Note_on_c, 4, 60, 0
13, 176729, Note_on_c, 4, 64, 44
13, 176761, Note_on_c, 4, 60, 54
13, 176779, Note_on_c, 4, 65, 0
13, 176800, Note_on_c, 4, 62, 0
13, 176801, Note_on_c, 4, 65, 50
13, 176820, Note_on_c, 4, 62, 40
13, 176847, Note_on_c, 4, 64, 0
13, 176878, Note_on_c, 4, 60, 0
13, 176893, Note_on_c, 4, 64, 50
13, 176913, Note_on_c, 4, 60, 56
13, 176921, Note_on_c, 4, 65, 0
13, 176938, Note_on_c, 4, 62, 0
13, 176979, Note_on_c, 4, 65, 43
13, 176985, Note_on_c, 4, 62, 54
13, 177013, Note_on_c, 4, 64, 0
13, 177030, Note_on_c, 4, 60, 0
13, 177055, Note_on_c, 4, 60, 54
13, 177060, Note_on_c, 4, 64, 55
13, 177097, Note_on_c, 4, 65, 0
13, 177103, Note_on_c, 4, 62, 0
13, 177122, Note_on_c, 4, 65, 59
13, 177137, Note_on_c, 4, 62, 59
13, 177178, Note_on_c, 4, 60, 0
13, 177180, Note_on_c, 4, 64, 0
13, 177215, Note_on_c, 4, 60, 55
13, 177217, Note_on_c, 4, 64, 40
13, 177242, Note_on_c, 4, 65, 0
13, 177255, Note_on_c, 4, 62, 0
13, 177292, Note_on_c, 4, 65, 56
13, 177294, Note_on_c, 4, 62, 46
13, 177332, Note_on_c, 4, 60, 0
13, 177335, Note_on_c, 4, 64, 0
13, 177378, Note_on_c, 4, 60, 57
13, 177384, Note_on_c, 4, 64, 50
13, 177412, Note_on_c, 4, 65, 0
13, 177412, Note_on_c, 4, 62, 0
13, 177461, Note_on_c, 4, 65, 50
13, 177466, Note_on_c, 4, 62, 53
13, 177495, Note_on_c, 4, 60, 0
13, 177504, Note_on_c, 4, 64, 0
13, 177521, Note_on_c, 4, 64, 59
13, 177532, Note_on_c, 4, 60, 57
13, 177579, Note_on_c, 4, 65, 0
13, 177584, Note_on_c, 4, 62, 0
13, 177609, Note_on_c, 4, 65, 54
13, 177615, Note_on_c, 4, 62, 58
13, 177641, Note_on_c, 4, 64, 0
13, 177649, Note_on_c, 4, 60, 0
13, 177691, Note_on_c, 4, 60, 39
13, 177698, Note_on_c, 4, 64, 42
13, 177729, Note_on_c, 4, 65, 0
13, 177733, Note_on_c, 4, 62, 0
13, 177762, Note_on_c, 4, 62, 41
13, 177779, Note_on_c, 4, 65, 39
13, 177808, Note_on_c, 4, 60, 0
13, 177816, Note_on_c, 4, 64, 0
13, 177861, Note_on_c, 4, 64, 56
13, 177862, Note_on_c, 4, 60, 52
13, 177880, Note_on_c, 4, 62, 0
13, 177899, Note_on_c, 4, 65, 0
13, 177924, Note_on_c, 4, 65, 51
13, 177935, Note_on_c, 4, 62, 52
13, 177979, Note_on_c, 4, 60, 0
13, 177981, Note_on_c, 4, 64, 0
13, 178000, Note_on_c, 4, 64, 43
13, 178007, Note_on_c, 4, 60, 59
13, 178042, Note_on_c, 4, 65, 0
13, 178053, Note_on_c, 4, 62, 0
13, 178081, Note_on_c, 4, 62, 50
13, 178095, Note_on_c, 4, 65, 44
13, 178120, Note_on_c, 4, 64, 0
13, 178124, Note_on_c, 4, 60, 0
13, 178162, Note_on_c, 4, 60, 40
13, 178177, Note_on_c, 4, 64, 59
13, 178199, Note_on_c, 4, 62, 0
13, 178215, Note_on_c, 4, 65, 0
13, 178234, Note_on_c, 4, 62, 59
13, 178241, Note_on_c, 4, 65, 41
13, 178279, Note_on_c, 4, 60, 0
13, 178295, Note_on_c, 4, 64, 0
13, 178328, Note_on_c, 4, 60, 44
13, 178332, Note_on_c, 4, 64, 41
13, 178352, Note_on_c, 4, 62, 0
13, 178361, Note_on_c, 4, 65, 0
13, 178394, Note_on_c, 4, 62, 52
13, 178403, Note_on_c, 4, 65, 58
13, 178445, Note_on_c, 4, 60, 0
13, 178452, Note_on_c, 4, 64, 0
13, 178484, Note_on_c, 4, 60, 56
13, 178502, Note_on_c, 4, 64, 57
13, 178512, Note_on_c, 4, 62, 0
13, 178521, Note_on_c, 4, 65, 0
13, 178552, Note_on_c, 4, 62, 52
13, 178574, Note_on_c, 4, 65, 50
13, 178601, Note_on_c, 4, 60, 0
13, 178622, Note_on_c, 4, 64, 0
13, 178648, Note_on_c, 4, 60, 49
13, 178654, Note_on_c, 4, 64, 51
13, 178670, Note_on_c, 4, 62, 0
13, 178694, Note_on_c, 4, 65, 0
13, 178711, Note_on_c, 4, 62, 58
13, 178733, Note_on_c, 4, 65, 55
13, 178765, Note_on_c, 4, 60, 0
13, 178772, Note_on_c, 4, 64, 0
13, 178791, Note_on_c, 4, 60, 58
13, 178820, Note_on_c, 4, 64, 40
13, 178829, Note_on_c, 4, 62, 0
13, 178853, Note_on_c, 4, 65, 0
13, 178869, Note_on_c, 4, 62, 44
13, 178899, Note_on_c, 4, 65, 52
13, 178908, Note_on_c, 4, 60, 0
13, 178940, Note_on_c, 4, 64, 0
13, 178958, Note_on_c, 4, 60, 54
13, 178965, Note_on_c, 4, 64, 39
13, 178987, Note_on_c, 4, 62, 0
13, 179017, Note_on_c, 4, 65, 0
13, 179038, Note_on_c, 4, 62, 42
13, 179042, Note_on_c, 4, 65, 46
13, 179075, Note_on_c, 4, 60, 0
13, 179085, Note_on_c, 4, 64, 0
13, 179103, Note_on_c, 4, 60, 40
13, 179136, Note_on_c, 4, 64, 50
13, 179156, Note_on_c, 4, 62, 0
13, 179162, Note_on_c, 4, 65, 0
13, 179180, Note_on_c, 4, 62, 46
13, 179216, Note_on_c, 4, 65, 45
13, 179220, Note_on_c, 4, 60, 0
13, 179254, Note_on_c, 4, 64, 0
13, 179275, Note_on_c, 4, 60, 53
13, 179280, Note_on_c, 4, 64, 47
13, 179298, Note_on_c, 4, 62, 0
13, 179336, Note_on_c, 4, 65, 0
13, 179351, Note_on_c, 4, 62, 55
13, 179372, Note_on_c, 4, 65, 58
13, 179392, Note_on_c, 4, 60, 0
13, 179400, Note_on_c, 4, 64, 0
13, 179426, Note_on_c, 4, 60, 58
13, 179448, Note_on_c, 4, 64, 45
13, 179469, Note_on_c, 4, 62, 0
13, 179490, Note_on_c, 4, 65, 0
13, 179517, Note_on_c, 4, 62, 45
13, 179538, Note_on_c, 4, 65, 57
13, 179543, Note_on_c, 4, 60, 0
13, 179568, Note_on_c, 4, 64, 0
13, 179582, Note_on_c, 4, 60, 55
13, 179606, Note_on_c, 4, 64, 39
13, 179635, Note_on_c, 4, 62, 0
13, 179655, Note_on_c, 4, 62, 49
13, 179658, Note_on_c, 4, 65, 0
13, 179694, Note_on_c, 4, 65, 43
13, 179699, Note_on_c, 4, 60, 0
13, 179724, Note_on_c, 4, 64, 0
13, 179740, Note_on_c, 4, 60, 40
13, 179773, Note_on_c, 4, 62, 0
13, 179785, Note_on_c, 4, 64, 49
13, 179814, Note_on_c, 4, 65, 0
13, 179828, Note_on_c, 4, 62, 47
13, 179857, Note_on_c, 4, 60, 0
13, 179861, Note_on_c, 4, 65, 50
13, 179900, Note_on_c, 4, 60, 48
13, 179905, Note_on_c, 4, 64, 0
13, 179920, Note_on_c, 4, 64, 48
13, 179946, Note_on_c, 4, 62, 0
13, 179979, Note_on_c, 4, 65, 0
13, 179991, Note_on_c, 4, 62, 45
13, 180016, Note_on_c, 4, 65, 59
13, 180017, Note_on_c, 4, 60, 0
13, 180040, Note_on_c, 4, 64, 0
13, 180070, Note_on_c, 4, 60, 52
13, 180090, Note_on_c, 4, 64, 49
13, 180109, Note_on_c, 4, 62, 0
13, 180128, Note_on_c, 4, 62, 52
13, 180136, Note_on_c, 4, 65, 0
13, 180173, Note_on_c, 4, 65, 57
13, 180187, Note_on_c, 4, 60, 0
13, 180208, Note_on_c, 4, 64, 0
13, 180214, Note_on_c, 4, 60, 50
13, 180246, Note_on_c, 4, 62, 0
13, 180257, Note_on_c, 4, 64, 46
13, 180293, Note_on_c, 4, 65, 0
13, 180301, Note_on_c, 4, 62, 40
13, 180323, Note_on_c, 4, 65, 47
13, 180331, Note_on_c, 4, 60, 0
13, 180377, Note_on_c, 4, 64, 0
13, 180378, Note_on_c, 4, 60, 54
13, 180401, Note_on_c, 4, 64, 46
13, 180419, Note_on_c, 4, 62, 0
13, 180441, Note_on_c, 4, 65, 0
13, 180441, Note_on_c, 4, 62, 58
13, 180483, Note_on_c, 4, 65, 49
13, 180495, Note_on_c, 4, 60, 0
13, 180521, Note_on_c, 4, 64, 0
13, 180528, Note_on_c, 4, 60, 39
13, 180559, Note_on_c, 4, 62, 0
13, 180578, Note_on_c, 4, 64, 49
13, 180603, Note_on_c, 4, 65, 0
13, 180619, Note_on_c, 4, 62, 42
13, 180645, Note_on_c, 4, 60, 0
13, 180649, Note_on_c, 4, 65, 51
13, 180690, Note_on_c, 4, 60, 42
13, 180696, Note_on_c, 4, 64, 0
13, 180720, Note_on_c, 4, 64, 49
13, 180737, Note_on_c, 4, 62, 0
13, 180769, Note_on_c, 4, 65, 0
13, 180777, Note_on_c, 4, 62, 39
13, 180807, Note_on_c, 4, 60, 0
13, 180824, Note_on_c, 4, 65, 47
13, 180840, Note_on_c, 4, 64, 0
13, 180842, Note_on_c, 4, 60, 42
13, 180895, Note_on_c, 4, 62, 0
13, 180900, Note_on_c, 4, 64, 58
13, 180916, Note_on_c, 4, 62, 43
13, 180942, Note_on_c, 4, 65, 0
13, 180959, Note_on_c, 4, 60, 0
13, 180976, Note_on_c, 4, 65, 59
13, 180994, Note_on_c, 4, 60, 50
13, 181020, Note_on_c, 4, 64, 0
13, 181034, Note_on_c, 4, 62, 0
13, 181061, Note_on_c, 4, 64, 42
13, 181079, Note_on_c, 4, 62, 46
13, 181096, Note_on_c, 4, 65, 0
13, 181111, Note_on_c, 4, 60, 0
13, 181143, Note_on_c, 4, 65, 46
13, 181166, Note_on_c, 4, 60, 58
13, 181179, Note_on_c, 4, 64, 0
13, 181197, Note_on_c, 4, 62, 0
13, 181200, Note_on_c, 4, 64, 46
13, 181251, Note_on_c, 4, 62, 57
13, 181263, Note_on_c, 4, 65, 0
13, 181283, Note_on_c, 4, 60, 0
13, 181302, Note_on_c, 4, 65, 40
13, 181320, Note_on_c, 4, 64, 0
13, 181325, Note_on_c, 4, 60, 43
13, 181369, Note_on_c, 4, 62, 0
13, 181382, Note_on_c, 4, 64, 45
13, 181389, Note_on_c, 4, 62, 44
13, 181420, Note_on_c, 4, 65, 0
13, 181442, Note_on_c, 4, 60, 0
13, 181444, Note_on_c, 4, 65, 45
13, 181479, Note_on_c, 4, 60, 43
13, 181502, Note_on_c, 4, 64, 0
13, 181507, Note_on_c, 4, 62, 0
13, 181540, Note_on_c, 4, 64, 51
13, 181562, Note_on_c, 4, 62, 51
13, 181564, Note_on_c, 4, 65, 0
13, 181596, Note_on_c, 4, 60, 0
13, 181601, Note_on_c, 4, 65, 42
13, 181641, Note_on_c, 4, 60, 51
13, 181658, Note_on_c, 4, 64, 0
13, 181680, Note_on_c, 4, 62, 0
13, 181695, Note_on_c, 4, 64, 57
13, 181720, Note_on_c, 4, 62, 53
13, 181721, Note_on_c, 4, 65, 0
13, 181758, Note_on_c, 4, 60, 0
13, 181775, Note_on_c, 4, 65, 44
13, 181799, Note_on_c, 4, 60, 57
13, 181815, Note_on_c, 4, 64, 0
13, 181838, Note_on_c, 4, 62, 0
13, 181853, Note_on_c, 4, 64, 53
13, 181857, Note_on_c, 4, 62, 55
13, 181893, Note_on_c, 4, 65, 0
13, 181916, Note_on_c, 4, 60, 0
13, 181935, Note_on_c, 4, 65, 46
13, 181936, Note_on_c, 4, 60, 50
13, 181973, Note_on_c, 4, 64, 0
13, 181975, Note_on_c, 4, 62, 0
13, 182024, Note_on_c, 4, 64, 42
13, 182025, Note_on_c, 4, 62, 45
13, 182053, Note_on_c, 4, 60, 0
13, 182055, Note_on_c, 4, 65, 0
13, 182094, Note_on_c, 4, 60, 47
13, 182099, Note_on_c, 4, 65, 43
13, 182142, Note_on_c, 4, 64, 0
13, 182143, Note_on_c, 4, 62, 0
13, 182163, Note_on_c, 4, 64, 45
13, 182191, Note_on_c, 4, 62, 42
13, 182211, Note_on_c, 4, 60, 0
13, 182219, Note_on_c, 4, 65, 0
13, 182245, Note_on_c, 4, 65, 48
13, 182263, Note_on_c, 4, 60, 52
13, 182283, Note_on_c, 4, 64, 0
13, 182309, Note_on_c, 4, 62, 0
13, 182334, Note_on_c, 4, 62, 43
13, 182340, Note_on_c, 4, 64, 47
13, 182363, Note_on_c, 4, 65, 0
13, 182380, Note_on_c, 4, 60, 0
13, 182417, Note_on_c, 4, 60, 46
13, 182425, Note_on_c, 4, 65, 56
13, 182452, Note_on_c, 4, 62, 0
13, 182460, Note_on_c, 4, 64, 0
13, 182485, Note_on_c, 4, 64, 52
13, 182494, Note_on_c, 4, 62, 45
13, 182534, Note_on_c, 4, 60, 0
13, 182545, Note_on_c, 4, 65, 0
13, 182559, Note_on_c, 4, 65, 42
13, 182587, Note_on_c, 4, 60, 59
13, 182603, Note_on_c, 4, 64, 0
13, 182612, Note_on_c, 4, 62, 0
13, 182650, Note_on_c, 4, 62, 54
13, 182665, Note_on_c, 4, 64, 48
13, 182679, Note_on_c, 4, 65, 0
13, 182704, Note_on_c, 4, 60, 0
13, 182725, Note_on_c, 4, 65, 59
13, 182740, Note_on_c, 4, 60, 57
13, 182768, Note_on_c, 4, 62, 0
13, 182785, Note_on_c, 4, 64, 0
13, 182801, Note_on_c, 4, 62, 55
13, 182807, Note_on_c, 4, 64, 45
13, 182843, Note_on_c, 4, 65, 0
13, 182857, Note_on_c, 4, 60, 0
13, 182889, Note_on_c, 4, 60, 48
13, 182902, Note_on_c, 4, 65, 53
13, 182919, Note_on_c, 4, 62, 0
13, 182927, Note_on_c, 4, 64, 0
13, 182968, Note_on_c, 4, 64, 51
13, 182974, Note_on_c, 4, 62, 47
13, 183006, Note_on_c, 4, 60, 0
13, 183022, Note_on_c, 4, 65, 0
13, 183044, Note_on_c, 4, 60, 45
13, 183048, Note_on_c, 4, 65, 50
13, 183086, Note_on_c, 4, 64, 0
13, 183092, Note_on_c, 4, 62, 0
13, 183130, Note_on_c, 4, 62, 39
13, 183132, Note_on_c, 4, 64, 58
13, 183161, Note_on_c, 4, 60, 0
13, 183168, Note_on_c, 4, 65, 0
13, 183199, Note_on_c, 4, 60, 43
13, 183221, Note_on_c, 4, 65, 43
13, 183248, Note_on_c, 4, 62, 0
13, 183252, Note_on_c, 4, 64, 0
13, 183283, Note_on_c, 4, 62, 43
13, 183302, Note_on_c, 4, 64, 46
13, 183316, Note_on_c, 4, 60, 0
13, 183339, Note_on_c, 4, 65, 0
13, 183361, Note_on_c, 4, 65, 49
13, 183362, Note_on_c, 4, 60, 44
13, 183401, Note_on_c, 4, 62, 0
13, 183422, Note_on_c, 4, 64, 0
13, 183446, Note_on_c, 4, 62, 55
13, 183457, Note_on_c, 4, 64, 42
13, 183479, Note_on_c, 4, 60, 0
13, 183481, Note_on_c, 4, 65, 0
13, 183534, Note_on_c, 4, 60, 58
13, 183536, Note_on_c, 4, 65, 54
13, 183564, Note_on_c, 4, 62, 0
13, 183575, Note_on_c, 4, 64, 0
13, 183599, Note_on_c, 4, 62, 40
13, 183601, Note_on_c, 4, 64, 58
13, 183651, Note_on_c, 4, 60, 0
13, 183656, Note_on_c, 4, 65, 0
13, 183677, Note_on_c, 4, 60, 55
13, 183690, Note_on_c, 4, 65, 46
13, 183717, Note_on_c, 4, 62, 0
13, 183721, Note_on_c, 4, 64, 0
13, 183766, Note_on_c, 4, 62, 45
13, 183776, Note_on_c, 4, 64, 52
13, 183794, Note_on_c, 4, 60, 0
13, 183808, Note_on_c, 4, 65, 0
13, 183837, Note_on_c, 4, 60, 40
13, 183865, Note_on_c, 4, 65, 58
13, 183884, Note_on_c, 4, 62, 0
13, 183896, Note_on_c, 4, 64, 0
13, 183917, Note_on_c, 4, 62, 48
13, 183922, Note_on_c, 4, 64, 46
13, 183954, Note_on_c, 4, 60, 0
13, 183985, Note_on_c, 4, 65, 0
13, 183994, Note_on_c, 4, 60, 47
13, 184005, Note_on_c, 4, 65, 56
13, 184035, Note_on_c, 4, 62, 0
13, 184040, Note_on_c, 4, 64, 0
13, 184072, Note_on_c, 4, 62, 41
13, 184103, Note_on_c, 4, 64, 51
13, 184111, Note_on_c, 4, 60, 0
13, 184125, Note_on_c, 4, 65, 0
13, 184160, Note_on_c, 4, 65, 46
13, 184162, Note_on_c, 4, 60, 46
13, 184190, Note_on_c, 4, 62, 0
13, 184223, Note_on_c, 4, 64, 0
13, 184233, Note_on_c, 4, 62, 51
13, 184250, Note_on_c, 4, 64, 43
13, 184278, Note_on_c, 4, 65, 0
13, 184279, Note_on_c, 4, 60, 0
13, 184316, Note_on_c, 4, 60, 39
13, 184335, Note_on_c, 4, 65, 48
13, 184351, Note_on_c, 4, 62, 0
13, 184370, Note_on_c, 4, 64, 0
13, 184379, Note_on_c, 4, 62, 39
13, 184424, Note_on_c, 4, 64, 56
13, 184433, Note_on_c, 4, 60, 0
13, 184455, Note_on_c, 4, 65, 0
13, 184456, Note_on_c, 4, 60, 41
13, 184494, Note_on_c, 4, 65, 46
13, 184497, Note_on_c, 4, 62, 0
13, 184542, Note_on_c, 4, 64, 0
13, 184551, Note_on_c, 4, 62, 48
13, 184571, Note_on_c, 4, 64, 49
13, 184573, Note_on_c, 4, 60, 0
13, 184614, Note_on_c, 4, 65, 0
13, 184619, Note_on_c, 4, 60, 41
13, 184641, Note_on_c, 4, 65, 53
13, 184669, Note_on_c, 4, 62, 0
13, 184691, Note_on_c, 4, 64, 0
13, 184697, Note_on_c, 4, 62, 57
13, 184724, Note_on_c, 4, 64, 56
13, 184736, Note_on_c, 4, 60, 0
13, 184759, Note_on_c, 4, 65, 0
13, 184776, Note_on_c, 4, 60, 51
13, 184814, Note_on_c, 4, 65, 48
13, 184815, Note_on_c, 4, 62, 0
13, 184844, Note_on_c, 4, 64, 0
13, 184850, Note_on_c, 4, 62, 52
13, 184893, Note_on_c, 4, 60, 0
13, 184900, Note_on_c, 4, 64, 40
13, 184934, Note_on_c, 4, 65, 0
13, 184949, Note_on_c, 4, 60, 49
13, 184968, Note_on_c, 4, 62, 0
13, 184983, Note_on_c, 4, 65, 43
13, 185018, Note_on_c, 4, 64, 0
13, 185020, Note_on_c, 4, 62, 46
13, 185040, Note_on_c, 4, 64, 58
13, 185066, Note_on_c, 4, 60, 0
13, 185099, Note_on_c, 4, 60, 44
13, 185103, Note_on_c, 4, 65, 0
13, 185135, Note_on_c, 4, 65, 43
13, 185138, Note_on_c, 4, 62, 0
13, 185160, Note_on_c, 4, 64, 0
13, 185174, Note_on_c, 4, 62, 43
13, 185208, Note_on_c, 4, 64, 54
13, 185216, Note_on_c, 4, 60, 0
13, 185245, Note_on_c, 4, 60, 49
13, 185253, Note_on_c, 4, 65, 0
13, 185283, Note_on_c, 4, 65, 39
13, 185292, Note_on_c, 4, 62, 0
13, 185328, Note_on_c, 4, 64, 0
13, 185345, Note_on_c, 4, 62, 42
13, 185362, Note_on_c, 4, 60, 0
13, 185371, Note_on_c, 4, 64, 42
13, 185403, Note_on_c, 4, 65, 0
13, 185413, Note_on_c, 4, 60, 44
13, 185439, Note_on_c, 4, 65, 40
13, 185463, Note_on_c, 4, 62, 0
13, 185478, Note_on_c, 4, 62, 58
13, 185489, Note_on_c, 4, 64, 0
13, 185530, Note_on_c, 4, 60, 0
13, 185544, Note_on_c, 4, 64, 39
13, 185559, Note_on_c, 4, 65, 0
13, 185580, Note_on_c, 4, 60, 57
13, 185596, Note_on_c, 4, 62, 0
13, 185607, Note_on_c, 4, 65, 46
13, 185645, Note_on_c, 4, 62, 55
13, 185664, Note_on_c, 4, 64, 0
13, 185696, Note_on_c, 4, 64, 45
13, 185697, Note_on_c, 4, 60, 0
13, 185725, Note_on_c, 4, 65, 0
13, 185736, Note_on_c, 4, 60, 42
13, 185763, Note_on_c, 4, 62, 0
13, 185775, Note_on_c, 4, 65, 53
13, 185800, Note_on_c, 4, 62, 43
13, 185816, Note_on_c, 4, 64, 0
13, 185847, Note_on_c, 4, 64, 40
13, 185853, Note_on_c, 4, 60, 0
13, 185879, Note_on_c, 4, 60, 46
13, 185895, Note_on_c, 4, 65, 0
13, 185918, Note_on_c, 4, 62, 0
13, 185919, Note_on_c, 4, 65, 45
13, 185965, Note_on_c, 4, 64, 0
13, 185967, Note_on_c, 4, 62, 46
13, 185996, Note_on_c, 4, 60, 0
13, 186000, Note_on_c, 4, 64, 43
13, 186039, Note_on_c, 4, 65, 0
13, 186041, Note_on_c, 4, 60, 48
13, 186085, Note_on_c, 4, 62, 0
13, 186101, Note_on_c, 4, 65, 51
13, 186115, Note_on_c, 4, 62, 49
13, 186120, Note_on_c, 4, 64, 0
13, 186158, Note_on_c, 4, 60, 0
13, 186163, Note_on_c, 4, 64, 41
13, 186196, Note_on_c, 4, 60, 54
13, 186219, Note_on_c, 4, 65, 0
13, 186233, Note_on_c, 4, 62, 0
13, 186250, Note_on_c, 4, 65, 45
13, 186283, Note_on_c, 4, 64, 0
13, 186286, Note_on_c, 4, 62, 58
13, 186313, Note_on_c, 4, 60, 0
13, 186338, Note_on_c, 4, 64, 52
13, 186353, Note_on_c, 4, 60, 49
13, 186370, Note_on_c, 4, 65, 0
13, 186404, Note_on_c, 4, 62, 0
13, 186422, Note_on_c, 4, 65, 39
13, 186436, Note_on_c, 4, 62, 56
13, 186456, Note_on_c, 4, 64, 0
13, 186470, Note_on_c, 4, 60, 0
13, 186498, Note_on_c, 4, 64, 49
13, 186518, Note_on_c, 4, 60, 47
13, 186542, Note_on_c, 4, 65, 0
13, 186554, Note_on_c, 4, 62, 0
13, 186568, Note_on_c, 4, 65, 58
13, 186584, Note_on_c, 4, 62, 48
13, 186618, Note_on_c, 4, 64, 0
13, 186635, Note_on_c, 4, 60, 0
13, 186639, Note_on_c, 4, 64, 50
13, 186682, Note_on_c, 4, 60, 39
13, 186686, Note_on_c, 4, 65, 0
13, 186702, Note_on_c, 4, 62, 0
13, 186726, Note_on_c, 4, 65, 44
13, 186746, Note_on_c, 4, 62, 54
13, 186759, Note_on_c, 4, 64, 0
13, 186799, Note_on_c, 4, 60, 0
13, 186814, Note_on_c, 4, 63, 59
13, 186836, Note_on_c, 4, 60, 48
13, 186846, Note_on_c, 4, 65, 0
13, 186864, Note_on_c, 4, 62, 0
13, 186886, Note_on_c, 4, 65, 44
13, 186914, Note_on_c, 4, 62, 44
13, 186932, Note_on_c, 4, 63, 0
13, 186953, Note_on_c, 4, 60, 0
13, 186966, Note_on_c, 4, 63, 51
13, 187000, Note_on_c, 4, 60, 50
13, 187006, Note_on_c, 4, 65, 0
13, 187032, Note_on_c, 4, 62, 0
13, 187060, Note_on_c, 4, 65, 56
13, 187066, Note_on_c, 4, 62, 40
13, 187086, Note_on_c, 4, 63, 0
13, 187117, Note_on_c, 4, 60, 0
13, 187131, Note_on_c, 4, 63, 54
13, 187142, Note_on_c, 4, 60, 55
13, 187178, Note_on_c, 4, 65, 0
13, 187184, Note_on_c, 4, 62, 0
13, 187224, Note_on_c, 4, 65, 48
13, 187230, Note_on_c, 4, 62, 55
13, 187251, Note_on_c, 4, 63, 0
13, 187259, Note_on_c, 4, 60, 0
13, 187286, Note_on_c, 4, 63, 47
13, 187300, Note_on_c, 4, 60, 55
13, 187344, Note_on_c, 4, 65, 0
13, 187348, Note_on_c, 4, 62, 0
13, 187375, Note_on_c, 4, 65, 43
13, 187383, Note_on_c, 4, 62, 53
13, 187404, Note_on_c, 4, 63, 0
13, 187417, Note_on_c, 4, 60, 0
13, 187450, Note_on_c, 4, 60, 50
13, 187463, Note_on_c, 4, 63, 45
13, 187495, Note_on_c, 4, 65, 0
13, 187501, Note_on_c, 4, 62, 0
13, 187525, Note_on_c, 4, 65, 50
13, 187533, Note_on_c, 4, 62, 48
13, 187567, Note_on_c, 4, 60, 0
13, 187583, Note_on_c, 4, 63, 0
13, 187614, Note_on_c, 4, 63, 56
13, 187620, Note_on_c, 4, 60, 46
13, 187643, Note_on_c, 4, 65, 0
13, 187651, Note_on_c, 4, 62, 0
13, 187695, Note_on_c, 4, 65, 46
13, 187700, Note_on_c, 4, 62, 59
13, 187734, Note_on_c, 4, 63, 0
13, 187755, Note_on_c, 4, 60, 0
13, 187777, Note_on_c, 4, 63, 41
13, 187778, Note_on_c, 4, 60, 57
13, 187815, Note_on_c, 4, 65, 0
13, 187818, Note_on_c, 4, 62, 0
13, 187839, Note_on_c, 4, 65, 51
13, 187862, Note_on_c, 4, 62, 42
13, 187895, Note_on_c, 4, 63, 0
13, 187895, Note_on_c, 4, 60, 0
13, 187930, Note_on_c, 4, 63, 56
13, 187942, Note_on_c, 4, 60, 46
13, 187959, Note_on_c, 4, 65, 0
13, 187980, Note_on_c, 4, 62, 0
13, 188004, Note_on_c, 4, 65, 45
13, 188005, Note_on_c, 4, 62, 44
13, 188050, Note_on_c, 4, 63, 0
13, 188059, Note_on_c, 4, 60, 0
13, 188099, Note_on_c, 4, 63, 48
13, 188101, Note_on_c, 4, 60, 40
13, 188122, Note_on_c, 4, 65, 0
13, 188123, Note_on_c, 4, 62, 0
13, 188169, Note_on_c, 4, 65, 46
13, 188174, Note_on_c, 4, 62, 51
13, 188218, Note_on_c, 4, 60, 0
13, 188219, Note_on_c, 4, 63, 0
13, 188252, Note_on_c, 4, 60, 57
13, 188257, Note_on_c, 4, 63, 59
13, 188289, Note_on_c, 4, 65, 0
13, 188292, Note_on_c, 4, 62, 0
13, 188333, Note_on_c, 4, 62, 47
13, 188339, Note_on_c, 4, 65, 42
13, 188369, Note_on_c, 4, 60, 0
13, 188375, Note_on_c, 4, 63, 0
13, 188417, Note_on_c, 4, 60, 45
13, 188425, Note_on_c, 4, 63, 43
13, 188451, Note_on_c, 4, 62, 0
13, 188459, Note_on_c, 4, 65, 0
13, 188474, Note_on_c, 4, 62, 59
13, 188486, Note_on_c, 4, 65, 53
13, 188534, Note_on_c, 4, 60, 0
13, 188545, Note_on_c, 4, 63, 0
13, 188558, Note_on_c, 4, 60, 56
13, 188559, Note_on_c, 4, 63, 42
13, 188592, Note_on_c, 4, 62, 0
13, 188604, Note_on_c, 4, 65, 0
13, 188651, Note_on_c, 4, 62, 55
13, 188653, Note_on_c, 4, 65, 45
13, 188675, Note_on_c, 4, 60, 0
13, 188679, Note_on_c, 4, 63, 0
13, 188719, Note_on_c, 4, 60, 58
13, 188739, Note_on_c, 4, 63, 53
13, 188769, Note_on_c, 4, 62, 0
13, 188773, Note_on_c, 4, 65, 0
13, 188808, Note_on_c, 4, 65, 55
13, 188811, Note_on_c, 4, 62, 51
13, 188836, Note_on_c, 4, 60, 0
13, 188857, Note_on_c, 4, 63, 0
13, 188888, Note_on_c, 4, 60, 56
13, 188903, Note_on_c, 4, 63, 58
13, 188928, Note_on_c, 4, 65, 0
13, 188929, Note_on_c, 4, 62, 0
13, 188947, Note_on_c, 4, 62, 47
13, 188982, Note_on_c, 4, 65, 39
13, 189005, Note_on_c, 4, 60, 0
13, 189023, Note_on_c, 4, 63, 0
13, 189039, Note_on_c, 4, 60, 46
13, 189043, Note_on_c, 4, 63, 39
13, 189065, Note_on_c, 4, 62, 0
13, 189100, Note_on_c, 4, 65, 0
13, 189112, Note_on_c, 4, 62, 59
13, 189128, Note_on_c, 4, 65, 57
13, 189156, Note_on_c, 4, 60, 0
13, 189163, Note_on_c, 4, 63, 0
13, 189201, Note_on_c, 4, 60, 45
13, 189204, Note_on_c, 4, 63, 56
13, 189230, Note_on_c, 4, 62, 0
13, 189248, Note_on_c, 4, 65, 0
13, 189268, Note_on_c, 4, 62, 51
13, 189280, Note_on_c, 4, 65, 50
13, 189318, Note_on_c, 4, 60, 0
13, 189322, Note_on_c, 4, 63, 0
13, 189351, Note_on_c, 4, 60, 56
13, 189375, Note_on_c, 4, 63, 39
13, 189386, Note_on_c, 4, 62, 0
13, 189400, Note_on_c, 4, 65, 0
13, 189436, Note_on_c, 4, 62, 41
13, 189461, Note_on_c, 4, 65, 42
13, 189468, Note_on_c, 4, 60, 0
13, 189495, Note_on_c, 4, 63, 0
13, 189505, Note_on_c, 4, 60, 58
13, 189542, Note_on_c, 4, 63, 54
13, 189554, Note_on_c, 4, 62, 0
13, 189579, Note_on_c, 4, 65, 0
13, 189595, Note_on_c, 4, 62, 43
13, 189615, Note_on_c, 4, 65, 41
13, 189622, Note_on_c, 4, 60, 0
13, 189662, Note_on_c, 4, 63, 0
13, 189670, Note_on_c, 4, 60, 46
13, 189697, Note_on_c, 4, 63, 42
13, 189713, Note_on_c, 4, 62, 0
13, 189735, Note_on_c, 4, 65, 0
13, 189754, Note_on_c, 4, 62, 54
13, 189764, Note_on_c, 4, 65, 43
13, 189787, Note_on_c, 4, 60, 0
13, 189814, Note_on_c, 4, 60, 47
13, 189815, Note_on_c, 4, 63, 0
13, 189861, Note_on_c, 4, 63, 59
13, 189872, Note_on_c, 4, 62, 0
13, 189884, Note_on_c, 4, 65, 0
13, 189893, Note_on_c, 4, 62, 42
13, 189931, Note_on_c, 4, 60, 0
13, 189938, Note_on_c, 4, 65, 40
13, 189979, Note_on_c, 4, 60, 54
13, 189981, Note_on_c, 4, 63, 0
13, 189999, Note_on_c, 4, 63, 48
13, 190011, Note_on_c, 4, 62, 0
13, 190056, Note_on_c, 4, 65, 0
13, 190060, Note_on_c, 4, 62, 44
13, 190096, Note_on_c, 4, 60, 0
13, 190104, Note_on_c, 4, 65, 40
13, 190119, Note_on_c, 4, 63, 0
13, 190130, Note_on_c, 4, 60, 58
13, 190178, Note_on_c, 4, 62, 0
13, 190178, Note_on_c, 4, 63, 42
13, 190220, Note_on_c, 4, 62, 45
13, 190224, Note_on_c, 4, 65, 0
13, 190240, Note_on_c, 4, 65, 40
13, 190247, Note_on_c, 4, 60, 0
13, 190282, Note_on_c, 4, 60, 56
13, 190296, Note_on_c, 4, 63, 0
13, 190331, Note_on_c, 4, 63, 50
13, 190338, Note_on_c, 4, 62, 0
13, 190360, Note_on_c, 4, 65, 0
13, 190364, Note_on_c, 4, 62, 39
13, 190399, Note_on_c, 4, 60, 0
13, 190414, Note_on_c, 4, 65, 45
13, 190451, Note_on_c, 4, 63, 0
13, 190462, Note_on_c, 4, 60, 51
13, 190482, Note_on_c, 4, 62, 0
13, 190484, Note_on_c, 4, 63, 55
13, 190528, Note_on_c, 4, 62, 40
13, 190532, Note_on_c, 4, 65, 0
13, 190575, Note_on_c, 4, 65, 46
13, 190579, Note_on_c, 4, 60, 0
13, 190604, Note_on_c, 4, 63, 0
13, 190620, Note_on_c, 4, 60, 41
13, 190646, Note_on_c, 4, 62, 0
13, 190646, Note_on_c, 4, 64, 41
13, 190695, Note_on_c, 4, 65, 0
13, 190696, Note_on_c, 4, 62, 57
13, 190727, Note_on_c, 4, 65, 48
13, 190737, Note_on_c, 4, 60, 0
13, 190761, Note_on_c, 4, 60, 40
13, 190764, Note_on_c, 4, 64, 0
13, 190812, Note_on_c, 4, 64, 52
13, 190814, Note_on_c, 4, 62, 0
13, 190847, Note_on_c, 4, 65, 0
13, 190857, Note_on_c, 4, 62, 44
13, 190878, Note_on_c, 4, 60, 0
13, 190890, Note_on_c, 4, 65, 55
13, 190922, Note_on_c, 4, 60, 59
13, 190932, Note_on_c, 4, 64, 0
13, 190968, Note_on_c, 4, 64, 43
13, 190975, Note_on_c, 4, 62, 0
13, 191008, Note_on_c, 4, 65, 0
13, 191011, Note_on_c, 4, 62, 50
13, 191039, Note_on_c, 4, 60, 0
13, 191047, Note_on_c, 4, 65, 53
13, 191071, Note_on_c, 4, 60, 50
13, 191088, Note_on_c, 4, 64, 0
13, 191123, Note_on_c, 4, 64, 41
13, 191129, Note_on_c, 4, 62, 0
13, 191167, Note_on_c, 4, 65, 0
13, 191167, Note_on_c, 4, 62, 48
13, 191188, Note_on_c, 4, 60, 0
13, 191218, Note_on_c, 4, 65, 49
13, 191232, Note_on_c, 4, 60, 42
13, 191241, Note_on_c, 4, 64, 0
13, 191280, Note_on_c, 4, 64, 39
13, 191285, Note_on_c, 4, 62, 0
13, 191328, Note_on_c, 4, 62, 54
13, 191338, Note_on_c, 4, 65, 0
13, 191349, Note_on_c, 4, 60, 0
13, 191371, Note_on_c, 4, 65, 53
13, 191399, Note_on_c, 4, 60, 53
13, 191400, Note_on_c, 4, 64, 0
13, 191443, Note_on_c, 4, 64, 42
13, 191446, Note_on_c, 4, 62, 0
13, 191486, Note_on_c, 4, 62, 40
13, 191489, Note_on_c, 4, 65, 0
13, 191516, Note_on_c, 4, 60, 0
13, 191527, Note_on_c, 4, 65, 53
13, 191563, Note_on_c, 4, 64, 0
13, 191566, Note_on_c, 4, 60, 59
13, 191601, Note_on_c, 4, 64, 40
13, 191604, Note_on_c, 4, 62, 0
13, 191637, Note_on_c, 4, 62, 57
13, 191647, Note_on_c, 4, 65, 0
13, 191683, Note_on_c, 4, 60, 0
13, 191703, Note_on_c, 4, 65, 53
13, 191713, Note_on_c, 4, 60, 53
13, 191719, Note_on_c, 4, 64, 0
13, 191755, Note_on_c, 4, 62, 0
13, 191767, Note_on_c, 4, 64, 42
13, 191800, Note_on_c, 4, 62, 53
13, 191823, Note_on_c, 4, 65, 0
13, 191830, Note_on_c, 4, 60, 0
13, 191852, Note_on_c, 4, 65, 44
13, 191864, Note_on_c, 4, 60, 49
13, 191887, Note_on_c, 4, 64, 0
13, 191918, Note_on_c, 4, 62, 0
13, 191942, Note_on_c, 4, 64, 47
13, 191945, Note_on_c, 4, 62, 48
13, 191970, Note_on_c, 4, 65, 0
13, 191981, Note_on_c, 4, 60, 0
13, 192012, Note_on_c, 4, 65, 42
13, 192025, Note_on_c, 4, 60, 40
13, 192062, Note_on_c, 4, 64, 0
13, 192063, Note_on_c, 4, 62, 0
13, 192105, Note_on_c, 4, 64, 50
13, 192108, Note_on_c, 4, 62, 43
13, 192132, Note_on_c, 4, 65, 0
13, 192142, Note_on_c, 4, 60, 0
13, 192178, Note_on_c, 4, 65, 48
13, 192192, Note_on_c, 4, 60, 55
13, 192223, Note_on_c, 4, 64, 0
13, 192226, Note_on_c, 4, 62, 0
13, 192247, Note_on_c, 4, 64, 49
13, 192264, Note_on_c, 4, 62, 44
13, 192298, Note_on_c, 4, 65, 0
13, 192309, Note_on_c, 4, 60, 0
13, 192336, Note_on_c, 4, 65, 52
13, 192349, Note_on_c, 4, 60, 39
13, 192367, Note_on_c, 4, 64, 0
13, 192382, Note_on_c, 4, 62, 0
13, 192401, Note_on_c, 4, 64, 46
13, 192417, Note_on_c, 4, 62, 48
13, 192454, Note_on_c, 4, 65, 0
13, 192466, Note_on_c, 4, 60, 0
13, 192487, Note_on_c, 4, 65, 54
13, 192512, Note_on_c, 4, 60, 54
13, 192521, Note_on_c, 4, 64, 0
13, 192535, Note_on_c, 4, 62, 0
13, 192563, Note_on_c, 4, 64, 48
13, 192566, Note_on_c, 4, 62, 46
13, 192607, Note_on_c, 4, 65, 0
13, 192629, Note_on_c, 4, 60, 0
13, 192655, Note_on_c, 4, 60, 54
13, 192658, Note_on_c, 4, 65, 50
13, 192681, Note_on_c, 4, 64, 0
13, 192684, Note_on_c, 4, 62, 0
13, 192725, Note_on_c, 4, 64, 48
13, 192728, Note_on_c, 4, 62, 46
13, 192772, Note_on_c, 4, 60, 0
13, 192778, Note_on_c, 4, 65, 0
13, 192815, Note_on_c, 4, 65, 49
13, 192816, Note_on_c, 4, 60, 51
13, 192845, Note_on_c, 4, 64, 0
13, 192846, Note_on_c, 4, 62, 0
13, 192899, Note_on_c, 4, 64, 50
13, 192900, Note_on_c, 4, 62, 48
13, 192933, Note_on_c, 4, 65, 0
13, 192933, Note_on_c, 4, 60, 0
13, 192965, Note_on_c, 4, 60, 40
13, 192971, Note_on_c, 4, 65, 46
13, 193018, Note_on_c, 4, 62, 0
13, 193019, Note_on_c, 4, 64, 0
13, 193046, Note_on_c, 4, 62, 53
13, 193065, Note_on_c, 4, 64, 41
13, 193082, Note_on_c, 4, 60, 0
13, 193091, Note_on_c, 4, 65, 0
13, 193125, Note_on_c, 4, 60, 50
13, 193143, Note_on_c, 4, 65, 42
13, 193164, Note_on_c, 4, 62, 0
13, 193183, Note_on_c, 4, 64, 0
13, 193198, Note_on_c, 4, 62, 42
13, 193202, Note_on_c, 4, 64, 49
13, 193242, Note_on_c, 4, 60, 0
13, 193263, Note_on_c, 4, 65, 0
13, 193288, Note_on_c, 4, 60, 43
13, 193294, Note_on_c, 4, 65, 54
13, 193316, Note_on_c, 4, 62, 0
13, 193322, Note_on_c, 4, 64, 0
13, 193360, Note_on_c, 4, 64, 54
13, 193371, Note_on_c, 4, 62, 51
13, 193405, Note_on_c, 4, 60, 0
13, 193412, Note_on_c, 4, 65, 0
13, 193436, Note_on_c, 4, 60, 43
13, 193450, Note_on_c, 4, 65, 41
13, 193480, Note_on_c, 4, 64, 0
13, 193489, Note_on_c, 4, 62, 0
13, 193532, Note_on_c, 4, 62, 50
13, 193544, Note_on_c, 4, 64, 57
13, 193553, Note_on_c, 4, 60, 0
13, 193570, Note_on_c, 4, 65, 0
13, 193590, Note_on_c, 4, 60, 56
13, 193607, Note_on_c, 4, 65, 47
13, 193650, Note_on_c, 4, 62, 0
13, 193662, Note_on_c, 4, 64, 0
13, 193684, Note_on_c, 4, 62, 43
13, 193696, Note_on_c, 4, 64, 58
13, 193707, Note_on_c, 4, 60, 0
13, 193727, Note_on_c, 4, 65, 0
13, 193747, Note_on_c, 4, 60, 52
13, 193785, Note_on_c, 4, 65, 52
13, 193802, Note_on_c, 4, 62, 0
13, 193816, Note_on_c, 4, 64, 0
13, 193827, Note_on_c, 4, 62, 41
13, 193845, Note_on_c, 4, 64, 43
13, 193864, Note_on_c, 4, 60, 0
13, 193903, Note_on_c, 4, 65, 0
13, 193914, Note_on_c, 4, 60, 48
13, 193934, Note_on_c, 4, 65, 59
13, 193945, Note_on_c, 4, 62, 0
13, 193965, Note_on_c, 4, 64, 0
13, 193997, Note_on_c, 4, 62, 46
13, 194018, Note_on_c, 4, 64, 39
13, 194031, Note_on_c, 4, 60, 0
13, 194054, Note_on_c, 4, 65, 0
13, 194062, Note_on_c, 4, 60, 59
13, 194104, Note_on_c, 4, 65, 41
13, 194115, Note_on_c, 4, 62, 0
13, 194136, Note_on_c, 4, 64, 0
13, 194161, Note_on_c, 4, 62, 50
13, 194169, Note_on_c, 4, 64, 51
13, 194179, Note_on_c, 4, 60, 0
13, 194224, Note_on_c, 4, 65, 0
13, 194232, Note_on_c, 4, 60, 51
13, 194259, Note_on_c, 4, 65, 51
13, 194279, Note_on_c, 4, 62, 0
13, 194289, Note_on_c, 4, 64, 0
13, 194303, Note_on_c, 4, 62, 44
13, 194334, Note_on_c, 4, 64, 49
13, 194349, Note_on_c, 4, 60, 0
13, 194377, Note_on_c, 4, 65, 0
13, 194377, Note_on_c, 4, 60, 50
13, 194400, Note_on_c, 4, 65, 50
13, 194400, Note_on_c, 4, 60, 47
13, 194410, Note_on_c, 4, 60, 0
13, 194421, Note_on_c, 4, 62, 0
13, 194454, Note_on_c, 4, 64, 0
13, 194478, Note_on_c, 4, 62, 44
13, 194484, Note_on_c, 4, 60, 0
13, 194539, Note_on_c, 4, 60, 40
13, 194580, Note_on_c, 4, 65, 0
13, 194596, Note_on_c, 4, 62, 0
13, 194632, Note_on_c, 4, 62, 40
13, 194656, Note_on_c, 4, 60, 0
13, 194711, Note_on_c, 4, 60, 52
13, 194750, Note_on_c, 4, 62, 0
13, 194775, Note_on_c, 4, 62, 57
13, 194828, Note_on_c, 4, 60, 0
13, 194857, Note_on_c, 4, 60, 41
13, 194893, Note_on_c, 4, 62, 0
13, 194948, Note_on_c, 4, 62, 40
13, 194974, Note_on_c, 4, 60, 0
13, 195027, Note_on_c, 4, 60, 41
13, 195066, Note_on_c, 4, 62, 0
13, 195086, Note_on_c, 4, 62, 43
13, 195144, Note_on_c, 4, 60, 0
13, 195182, Note_on_c, 4, 60, 58
13, 195204, Note_on_c, 4, 62, 0
13, 195251, Note_on_c, 4, 62, 41
13, 195299, Note_on_c, 4, 60, 0
13, 195332, Note_on_c, 4, 60, 56
13, 195369, Note_on_c, 4, 62, 0
13, 195377, Note_on_c, 4, 65, 44
13, 195377, Note_on_c, 4, 39, 41
13, 195409, Note_on_c, 4, 62, 47
13, 195449, Note_on_c, 4, 60, 0
13, 195456, Note_on_c, 4, 66, 47
13, 195494, Note_on_c, 4, 65, 0
13, 195505, Note_on_c, 4, 60, 45
13, 195525, Note_on_c, 4, 65, 44
13, 195527, Note_on_c, 4, 62, 0
13, 195565, Note_on_c, 4, 62, 39
13, 195574, Note_on_c, 4, 66, 0
13, 195615, Note_on_c, 4, 66, 59
13, 195622, Note_on_c, 4, 60, 0
13, 195638, Note_on_c, 4, 60, 41
13, 195642, Note_on_c, 4, 65, 0
13, 195683, Note_on_c, 4, 62, 0
13, 195691, Note_on_c, 4, 65, 44
13, 195719, Note_on_c, 4, 62, 56
13, 195733, Note_on_c, 4, 66, 0
13, 195755, Note_on_c, 4, 60, 0
13, 195763, Note_on_c, 4, 66, 49
13, 195808, Note_on_c, 4, 65, 0
13, 195811, Note_on_c, 4, 60, 55
13, 195834, Note_on_c, 4, 65, 53
13, 195837, Note_on_c, 4, 62, 0
13, 195881, Note_on_c, 4, 66, 0
13, 195882, Note_on_c, 4, 62, 53
13, 195923, Note_on_c, 4, 66, 53
13, 195928, Note_on_c, 4, 60, 0
13, 195951, Note_on_c, 4, 65, 0
13, 195958, Note_on_c, 4, 60, 53
13, 196000, Note_on_c, 4, 62, 0
13, 196009, Note_on_c, 4, 65, 43
13, 196041, Note_on_c, 4, 66, 0
13, 196046, Note_on_c, 4, 62, 40
13, 196075, Note_on_c, 4, 60, 0
13, 196085, Note_on_c, 4, 66, 55
13, 196126, Note_on_c, 4, 65, 0
13, 196127, Note_on_c, 4, 60, 41
13, 196164, Note_on_c, 4, 62, 0
13, 196164, Note_on_c, 4, 65, 40
13, 196198, Note_on_c, 4, 62, 41
13, 196203, Note_on_c, 4, 66, 0
13, 196228, Note_on_c, 4, 66, 58
13, 196244, Note_on_c, 4, 60, 0
13, 196281, Note_on_c, 4, 65, 0
13, 196281, Note_on_c, 4, 60, 46
13, 196316, Note_on_c, 4, 62, 0
13, 196322, Note_on_c, 4, 65, 40
13, 196346, Note_on_c, 4, 66, 0
13, 196355, Note_on_c, 4, 62, 59
13, 196388, Note_on_c, 4, 66, 42
13, 196398, Note_on_c, 4, 60, 0
13, 196439, Note_on_c, 4, 65, 0
13, 196448, Note_on_c, 4, 60, 43
13, 196470, Note_on_c, 4, 65, 54
13, 196473, Note_on_c, 4, 62, 0
13, 196506, Note_on_c, 4, 66, 0
13, 196519, Note_on_c, 4, 62, 58
13, 196565, Note_on_c, 4, 60, 0
13, 196565, Note_on_c, 4, 66, 48
13, 196587, Note_on_c, 4, 65, 0
13, 196591, Note_on_c, 4, 60, 47
13, 196620, Note_on_c, 4, 65, 50
13, 196637, Note_on_c, 4, 62, 0
13, 196662, Note_on_c, 4, 62, 54
13, 196683, Note_on_c, 4, 66, 0
13, 196706, Note_on_c, 4, 66, 47
13, 196708, Note_on_c, 4, 60, 0
13, 196737, Note_on_c, 4, 65, 0
13, 196761, Note_on_c, 4, 60, 53
13, 196778, Note_on_c, 4, 65, 48
13, 196780, Note_on_c, 4, 62, 0
13, 196824, Note_on_c, 4, 66, 0
13, 196824, Note_on_c, 4, 62, 58
13, 196857, Note_on_c, 4, 66, 52
13, 196878, Note_on_c, 4, 60, 0
13, 196895, Note_on_c, 4, 65, 0
13, 196915, Note_on_c, 4, 60, 39
13, 196942, Note_on_c, 4, 62, 0
13, 196951, Note_on_c, 4, 65, 51
13, 196975, Note_on_c, 4, 66, 0
13, 196998, Note_on_c, 4, 62, 39
13, 197022, Note_on_c, 4, 66, 45
13, 197032, Note_on_c, 4, 60, 0
13, 197068, Note_on_c, 4, 65, 0
13, 197073, Note_on_c, 4, 60, 45
13, 197113, Note_on_c, 4, 65, 40
13, 197116, Note_on_c, 4, 62, 0
13, 197140, Note_on_c, 4, 66, 0
13, 197149, Note_on_c, 4, 62, 55
13, 197183, Note_on_c, 4, 66, 43
13, 197190, Note_on_c, 4, 60, 0
13, 197212, Note_on_c, 4, 60, 44
13, 197230, Note_on_c, 4, 65, 0
13, 197267, Note_on_c, 4, 62, 0
13, 197272, Note_on_c, 4, 65, 53
13, 197301, Note_on_c, 4, 66, 0
13, 197306, Note_on_c, 4, 62, 39
13, 197335, Note_on_c, 4, 60, 0
13, 197340, Note_on_c, 4, 66, 58
13, 197386, Note_on_c, 4, 60, 52
13, 197389, Note_on_c, 4, 65, 0
13, 197424, Note_on_c, 4, 62, 0
13, 197430, Note_on_c, 4, 65, 40
13, 197457, Note_on_c, 4, 62, 40
13, 197458, Note_on_c, 4, 66, 0
13, 197495, Note_on_c, 4, 66, 55
13, 197503, Note_on_c, 4, 60, 0
13, 197537, Note_on_c, 4, 60, 57
13, 197547, Note_on_c, 4, 65, 0
13, 197575, Note_on_c, 4, 62, 0
13, 197590, Note_on_c, 4, 65, 40
13, 197613, Note_on_c, 4, 66, 0
13, 197616, Note_on_c, 4, 62, 45
13, 197652, Note_on_c, 4, 66, 43
13, 197654, Note_on_c, 4, 60, 0
13, 197707, Note_on_c, 4, 65, 0
13, 197710, Note_on_c, 4, 60, 44
13, 197731, Note_on_c, 4, 65, 57
13, 197734, Note_on_c, 4, 62, 0
13, 197770, Note_on_c, 4, 66, 0
13, 197779, Note_on_c, 4, 62, 59
13, 197812, Note_on_c, 4, 66, 58
13, 197827, Note_on_c, 4, 60, 0
13, 197846, Note_on_c, 4, 60, 40
13, 197848, Note_on_c, 4, 65, 0
13, 197897, Note_on_c, 4, 62, 0
13, 197899, Note_on_c, 4, 65, 54
13, 197921, Note_on_c, 4, 62, 45
13, 197930, Note_on_c, 4, 66, 0
13, 197963, Note_on_c, 4, 60, 0
13, 197968, Note_on_c, 4, 66, 43
13, 198012, Note_on_c, 4, 60, 47
13, 198016, Note_on_c, 4, 65, 0
13, 198039, Note_on_c, 4, 62, 0
13, 198056, Note_on_c, 4, 65, 43
13, 198086, Note_on_c, 4, 66, 0
13, 198090, Note_on_c, 4, 62, 52
13, 198129, Note_on_c, 4, 60, 0
13, 198131, Note_on_c, 4, 66, 55
13, 198172, Note_on_c, 4, 60, 48
13, 198173, Note_on_c, 4, 65, 0
13, 198198, Note_on_c, 4, 65, 47
13, 198208, Note_on_c, 4, 62, 0
13, 198249, Note_on_c, 4, 66, 0
13, 198260, Note_on_c, 4, 62, 59
13, 198288, Note_on_c, 4, 66, 47
13, 198289, Note_on_c, 4, 60, 0
13, 198315, Note_on_c, 4, 65, 0
13, 198315, Note_on_c, 4, 60, 41
13, 198371, Note_on_c, 4, 65, 46
13, 198378, Note_on_c, 4, 62, 0
13, 198406, Note_on_c, 4, 66, 0
13, 198410, Note_on_c, 4, 62, 42
13, 198432, Note_on_c, 4, 60, 0
13, 198441, Note_on_c, 4, 66, 46
13, 198488, Note_on_c, 4, 65, 0
13, 198493, Note_on_c, 4, 60, 39
13, 198528, Note_on_c, 4, 62, 0
13, 198533, Note_on_c, 4, 65, 54
13, 198559, Note_on_c, 4, 66, 0
13, 198575, Note_on_c, 4, 62, 48
13, 198607, Note_on_c, 4, 66, 48
13, 198610, Note_on_c, 4, 60, 0
13, 198632, Note_on_c, 4, 60, 39
13, 198650, Note_on_c, 4, 65, 0
13, 198669, Note_on_c, 4, 65, 43
13, 198693, Note_on_c, 4, 62, 0
13, 198725, Note_on_c, 4, 66, 0
13, 198731, Note_on_c, 4, 62, 55
13, 198746, Note_on_c, 4, 66, 49
13, 198749, Note_on_c, 4, 60, 0
13, 198786, Note_on_c, 4, 65, 0
13, 198800, Note_on_c, 4, 60, 59
13, 198848, Note_on_c, 4, 65, 42
13, 198849, Note_on_c, 4, 62, 0
13, 198864, Note_on_c, 4, 66, 0
13, 198869, Note_on_c, 4, 62, 45
13, 198917, Note_on_c, 4, 60, 0
13, 198926, Note_on_c, 4, 66, 45
13, 198961, Note_on_c, 4, 60, 52
13, 198965, Note_on_c, 4, 65, 0
13, 198987, Note_on_c, 4, 62, 0
13, 198995, Note_on_c, 4, 65, 53
13, 199023, Note_on_c, 4, 62, 40
13, 199044, Note_on_c, 4, 66, 0
13, 199078, Note_on_c, 4, 60, 0
13, 199085, Note_on_c, 4, 66, 48
13, 199108, Note_on_c, 4, 60, 58
13, 199112, Note_on_c, 4, 65, 0
13, 199141, Note_on_c, 4, 62, 0
13, 199159, Note_on_c, 4, 65, 51
13, 199182, Note_on_c, 4, 62, 56
13, 199203, Note_on_c, 4, 66, 0
13, 199225, Note_on_c, 4, 60, 0
13, 199238, Note_on_c, 4, 66, 45
13, 199276, Note_on_c, 4, 65, 0
13, 199281, Note_on_c, 4, 60, 53
13, 199300, Note_on_c, 4, 62, 0
13, 199320, Note_on_c, 4, 65, 44
13, 199350, Note_on_c, 4, 62, 42
13, 199356, Note_on_c, 4, 66, 0
13, 199379, Note_on_c, 4, 66, 56
13, 199398, Note_on_c, 4, 60, 0
13, 199429, Note_on_c, 4, 60, 54
13, 199437, Note_on_c, 4, 65, 0
13, 199463, Note_on_c, 4, 65, 41
13, 199468, Note_on_c, 4, 62, 0
13, 199497, Note_on_c, 4, 66, 0
13, 199497, Note_on_c, 4, 62, 41
13, 199540, Note_on_c, 4, 66, 52
13, 199546, Note_on_c, 4, 60, 0
13, 199578, Note_on_c, 4, 60, 40
13, 199580, Note_on_c, 4, 65, 0
13, 199615, Note_on_c, 4, 62, 0
13, 199624, Note_on_c, 4, 65, 55
13, 199658, Note_on_c, 4, 66, 0
13, 199676, Note_on_c, 4, 62, 41
13, 199695, Note_on_c, 4, 60, 0
13, 199695, Note_on_c, 4, 66, 53
13, 199733, Note_on_c, 4, 60, 39
13, 199741, Note_on_c, 4, 65, 0
13, 199789, Note_on_c, 4, 65, 40
13, 199794, Note_on_c, 4, 62, 0
13, 199813, Note_on_c, 4, 66, 0
13, 199819, Note_on_c, 4, 62, 56
13, 199850, Note_on_c, 4, 60, 0
13, 199857, Note_on_c, 4, 66, 42
13, 199903, Note_on_c, 4, 60, 55
13, 199906, Note_on_c, 4, 65, 0
13, 199931, Note_on_c, 4, 65, 45
13, 199937, Note_on_c, 4, 62, 0
13, 199975, Note_on_c, 4, 66, 0
13, 199987, Note_on_c, 4, 62, 48
13, 200014, Note_on_c, 4, 66, 44
13, 200020, Note_on_c, 4, 60, 0
13, 200048, Note_on_c, 4, 65, 0
13, 200058, Note_on_c, 4, 60, 53
13, 200088, Note_on_c, 4, 65, 57
13, 200105, Note_on_c, 4, 62, 0
13, 200132, Note_on_c, 4, 66, 0
13, 200143, Note_on_c, 4, 62, 43
13, 200175, Note_on_c, 4, 60, 0
13, 200179, Note_on_c, 4, 66, 50
13, 200219, Note_on_c, 4, 60, 52
13, 200223, Note_on_c, 4, 65, 0
13, 200248, Note_on_c, 4, 65, 58
13, 200261, Note_on_c, 4, 62, 0
13, 200297, Note_on_c, 4, 66, 0
13, 200307, Note_on_c, 4, 62, 59
13, 200328, Note_on_c, 4, 66, 43
13, 200336, Note_on_c, 4, 60, 0
13, 200365, Note_on_c, 4, 65, 0
13, 200372, Note_on_c, 4, 60, 54
13, 200422, Note_on_c, 4, 65, 41
13, 200425, Note_on_c, 4, 62, 0
13, 200446, Note_on_c, 4, 66, 0
13, 200465, Note_on_c, 4, 62, 49
13, 200489, Note_on_c, 4, 60, 0
13, 200489, Note_on_c, 4, 66, 52
13, 200539, Note_on_c, 4, 65, 0
13, 200543, Note_on_c, 4, 60, 48
13, 200575, Note_on_c, 4, 65, 54
13, 200583, Note_on_c, 4, 62, 0
13, 200600, Note_on_c, 4, 62, 53
13, 200607, Note_on_c, 4, 66, 0
13, 200646, Note_on_c, 4, 66, 46
13, 200660, Note_on_c, 4, 60, 0
13, 200692, Note_on_c, 4, 65, 0
13, 200694, Note_on_c, 4, 60, 48
13, 200718, Note_on_c, 4, 62, 0
13, 200726, Note_on_c, 4, 65, 43
13, 200764, Note_on_c, 4, 66, 0
13, 200776, Note_on_c, 4, 62, 56
13, 200793, Note_on_c, 4, 66, 58
13, 200811, Note_on_c, 4, 60, 0
13, 200843, Note_on_c, 4, 65, 0
13, 200854, Note_on_c, 4, 60, 50
13, 200874, Note_on_c, 4, 65, 56
13, 200894, Note_on_c, 4, 62, 0
13, 200911, Note_on_c, 4, 66, 0
13, 200916, Note_on_c, 4, 62, 39
13, 200962, Note_on_c, 4, 66, 53
13, 200971, Note_on_c, 4, 60, 0
13, 200991, Note_on_c, 4, 65, 0
13, 201015, Note_on_c, 4, 60, 52
13, 201034, Note_on_c, 4, 62, 0
13, 201036, Note_on_c, 4, 65, 56
13, 201080, Note_on_c, 4, 66, 0
13, 201083, Note_on_c, 4, 62, 43
13, 201108, Note_on_c, 4, 66, 39
13, 201124, Note_on_c, 4, 66, 0
13, 201132, Note_on_c, 4, 60, 0
13, 201132, Note_on_c, 4, 67, 56
13, 201153, Note_on_c, 4, 65, 0
13, 201163, Note_on_c, 4, 60, 45
13, 201201, Note_on_c, 4, 62, 0
13, 201209, Note_on_c, 4, 65, 47
13, 201232, Note_on_c, 4, 67, 0
13, 201236, Note_on_c, 4, 62, 40
13, 201274, Note_on_c, 4, 66, 51
13, 201280, Note_on_c, 4, 60, 0
13, 201317, Note_on_c, 4, 60, 42
13, 201326, Note_on_c, 4, 65, 0
13, 201347, Note_on_c, 4, 65, 44
13, 201354, Note_on_c, 4, 62, 0
13, 201392, Note_on_c, 4, 66, 0
13, 201405, Note_on_c, 4, 62, 54
13, 201434, Note_on_c, 4, 60, 0
13, 201436, Note_on_c, 4, 66, 48
13, 201464, Note_on_c, 4, 65, 0
13, 201475, Note_on_c, 4, 60, 56
13, 201523, Note_on_c, 4, 62, 0
13, 201527, Note_on_c, 4, 65, 50
13, 201544, Note_on_c, 4, 62, 58
13, 201554, Note_on_c, 4, 66, 0
13, 201582, Note_on_c, 4, 66, 49
13, 201592, Note_on_c, 4, 60, 0
13, 201644, Note_on_c, 4, 65, 0
13, 201645, Note_on_c, 4, 60, 52
13, 201662, Note_on_c, 4, 62, 0
13, 201666, Note_on_c, 4, 65, 41
13, 201700, Note_on_c, 4, 66, 0
13, 201721, Note_on_c, 4, 62, 56
13, 201761, Note_on_c, 4, 66, 52
13, 201762, Note_on_c, 4, 60, 0
13, 201783, Note_on_c, 4, 65, 0
13, 201799, Note_on_c, 4, 60, 57
13, 201832, Note_on_c, 4, 65, 49
13, 201839, Note_on_c, 4, 62, 0
13, 201877, Note_on_c, 4, 62, 49
13, 201879, Note_on_c, 4, 66, 0
13, 201901, Note_on_c, 4, 66, 49
13, 201916, Note_on_c, 4, 60, 0
13, 201949, Note_on_c, 4, 65, 0
13, 201957, Note_on_c, 4, 60, 55
13, 201990, Note_on_c, 4, 65, 39
13, 201995, Note_on_c, 4, 62, 0
13, 202019, Note_on_c, 4, 66, 0
13, 202030, Note_on_c, 4, 62, 49
13, 202053, Note_on_c, 4, 66, 43
13, 202074, Note_on_c, 4, 60, 0
13, 202080, Note_on_c, 4, 67, 52
13, 202092, Note_on_c, 4, 66, 0
13, 202107, Note_on_c, 4, 65, 0
13, 202111, Note_on_c, 4, 60, 40
13, 202148, Note_on_c, 4, 62, 0
13, 202150, Note_on_c, 4, 65, 39
13, 202158, Note_on_c, 4, 67, 0
13, 202176, Note_on_c, 4, 62, 46
13, 202218, Note_on_c, 4, 66, 55
13, 202228, Note_on_c, 4, 60, 0
13, 202252, Note_on_c, 4, 60, 50
13, 202267, Note_on_c, 4, 65, 0
13, 202294, Note_on_c, 4, 62, 0
13, 202314, Note_on_c, 4, 65, 48
13, 202336, Note_on_c, 4, 66, 0
13, 202352, Note_on_c, 4, 62, 49
13, 202369, Note_on_c, 4, 60, 0
13, 202369, Note_on_c, 4, 66, 42
13, 202431, Note_on_c, 4, 65, 0
13, 202431, Note_on_c, 4, 60, 53
13, 202467, Note_on_c, 4, 65, 55
13, 202470, Note_on_c, 4, 62, 0
13, 202487, Note_on_c, 4, 66, 0
13, 202488, Note_on_c, 4, 62, 52
13, 202539, Note_on_c, 4, 66, 53
13, 202548, Note_on_c, 4, 60, 0
13, 202575, Note_on_c, 4, 60, 43
13, 202584, Note_on_c, 4, 65, 0
13, 202606, Note_on_c, 4, 62, 0
13, 202622, Note_on_c, 4, 65, 58
13, 202656, Note_on_c, 4, 62, 40
13, 202657, Note_on_c, 4, 66, 0
13, 202692, Note_on_c, 4, 60, 0
13, 202694, Note_on_c, 4, 66, 53
13, 202726, Note_on_c, 4, 60, 48
13, 202739, Note_on_c, 4, 65, 0
13, 202774, Note_on_c, 4, 62, 0
13, 202778, Note_on_c, 4, 65, 52
13, 202812, Note_on_c, 4, 66, 0
13, 202813, Note_on_c, 4, 62, 47
13, 202843, Note_on_c, 4, 60, 0
13, 202862, Note_on_c, 4, 66, 53
13, 202895, Note_on_c, 4, 65, 0
13, 202895, Note_on_c, 4, 60, 44
13, 202931, Note_on_c, 4, 62, 0
13, 202932, Note_on_c, 4, 65, 50
13, 202966, Note_on_c, 4, 62, 48
13, 202980, Note_on_c, 4, 66, 0
13, 202998, Note_on_c, 4, 66, 59
13, 203012, Note_on_c, 4, 60, 0
13, 203040, Note_on_c, 4, 67, 58
13, 203049, Note_on_c, 4, 65, 0
13, 203051, Note_on_c, 4, 60, 45
13, 203059, Note_on_c, 4, 66, 0
13, 203084, Note_on_c, 4, 62, 0
13, 203094, Note_on_c, 4, 65, 57
13, 203095, Note_on_c, 4, 67, 0
13, 203132, Note_on_c, 4, 62, 56
13, 203168, Note_on_c, 4, 60, 0
13, 203178, Note_on_c, 4, 66, 44
13, 203211, Note_on_c, 4, 65, 0
13, 203222, Note_on_c, 4, 60, 41
13, 203235, Note_on_c, 4, 65, 46
13, 203250, Note_on_c, 4, 62, 0
13, 203285, Note_on_c, 4, 62, 49
13, 203296, Note_on_c, 4, 66, 0
13, 203315, Note_on_c, 4, 66, 50
13, 203339, Note_on_c, 4, 60, 0
13, 203352, Note_on_c, 4, 65, 0
13, 203363, Note_on_c, 4, 60, 58
13, 203397, Note_on_c, 4, 65, 40
13, 203403, Note_on_c, 4, 62, 0
13, 203433, Note_on_c, 4, 66, 0
13, 203453, Note_on_c, 4, 62, 43
13, 203480, Note_on_c, 4, 60, 0
13, 203480, Note_on_c, 4, 66, 42
13, 203514, Note_on_c, 4, 65, 0
13, 203514, Note_on_c, 4, 60, 55
13, 203560, Note_on_c, 4, 65, 39
13, 203571, Note_on_c, 4, 62, 0
13, 203596, Note_on_c, 4, 62, 41
13, 203598, Note_on_c, 4, 66, 0
13, 203631, Note_on_c, 4, 60, 0
13, 203640, Note_on_c, 4, 66, 39
13, 203677, Note_on_c, 4, 65, 0
13, 203678, Note_on_c, 4, 60, 49
13, 203707, Note_on_c, 4, 65, 59
13, 203714, Note_on_c, 4, 62, 0
13, 203754, Note_on_c, 4, 62, 43
13, 203758, Note_on_c, 4, 66, 0
13, 203790, Note_on_c, 4, 66, 39
13, 203795, Note_on_c, 4, 60, 0
13, 203824, Note_on_c, 4, 65, 0
13, 203829, Note_on_c, 4, 60, 55
13, 203872, Note_on_c, 4, 62, 0
13, 203875, Note_on_c, 4, 65, 42
13, 203908, Note_on_c, 4, 66, 0
13, 203914, Note_on_c, 4, 62, 50
13, 203943, Note_on_c, 4, 66, 43
13, 203946, Note_on_c, 4, 60, 0
13, 203989, Note_on_c, 4, 60, 40
13, 203992, Note_on_c, 4, 65, 0
13, 204000, Note_on_c, 4, 67, 52
13, 204027, Note_on_c, 4, 66, 0
13, 204032, Note_on_c, 4, 62, 0
13, 204033, Note_on_c, 4, 67, 0
13, 204036, Note_on_c, 4, 65, 43
13, 204069, Note_on_c, 4, 62, 57
13, 204106, Note_on_c, 4, 60, 0
13, 204110, Note_on_c, 4, 66, 54
13, 204149, Note_on_c, 4, 60, 51
13, 204153, Note_on_c, 4, 65, 0
13, 204180, Note_on_c, 4, 65, 42
13, 204187, Note_on_c, 4, 62, 0
13, 204228, Note_on_c, 4, 66, 0
13, 204231, Note_on_c, 4, 62, 57
13, 204266, Note_on_c, 4, 60, 0
13, 204267, Note_on_c, 4, 66, 54
13, 204297, Note_on_c, 4, 65, 0
13, 204310, Note_on_c, 4, 60, 53
13, 204340, Note_on_c, 4, 65, 43
13, 204349, Note_on_c, 4, 62, 0
13, 204385, Note_on_c, 4, 66, 0
13, 204401, Note_on_c, 4, 62, 59
13, 204427, Note_on_c, 4, 60, 0
13, 204433, Note_on_c, 4, 66, 54
13, 204457, Note_on_c, 4, 65, 0
13, 204480, Note_on_c, 4, 60, 56
13, 204518, Note_on_c, 4, 65, 46
13, 204519, Note_on_c, 4, 62, 0
13, 204550, Note_on_c, 4, 62, 56
13, 204551, Note_on_c, 4, 66, 0
13, 204579, Note_on_c, 4, 66, 58
13, 204597, Note_on_c, 4, 60, 0
13, 204619, Note_on_c, 4, 60, 56
13, 204635, Note_on_c, 4, 65, 0
13, 204668, Note_on_c, 4, 62, 0
13, 204669, Note_on_c, 4, 65, 44
13, 204697, Note_on_c, 4, 66, 0
13, 204718, Note_on_c, 4, 62, 57
13, 204735, Note_on_c, 4, 66, 48
13, 204736, Note_on_c, 4, 60, 0
13, 204781, Note_on_c, 4, 60, 39
13, 204786, Note_on_c, 4, 65, 0
13, 204810, Note_on_c, 4, 65, 49
13, 204836, Note_on_c, 4, 62, 0
13, 204853, Note_on_c, 4, 66, 0
13, 204854, Note_on_c, 4, 62, 56
13, 204895, Note_on_c, 4, 66, 40
13, 204898, Note_on_c, 4, 60, 0
13, 204927, Note_on_c, 4, 65, 0
13, 204942, Note_on_c, 4, 60, 49
13, 204960, Note_on_c, 4, 67, 59
13, 204972, Note_on_c, 4, 62, 0
13, 204977, Note_on_c, 4, 65, 59
13, 204982, Note_on_c, 4, 67, 0
13, 205001, Note_on_c, 4, 66, 0
13, 205010, Note_on_c, 4, 62, 50
13, 205059, Note_on_c, 4, 60, 0
13, 205063, Note_on_c, 4, 66, 58
13, 205094, Note_on_c, 4, 65, 0
13, 205100, Note_on_c, 4, 60, 49
13, 205128, Note_on_c, 4, 62, 0
13, 205132, Note_on_c, 4, 65, 51
13, 205181, Note_on_c, 4, 66, 0
13, 205182, Note_on_c, 4, 62, 46
13, 205217, Note_on_c, 4, 60, 0
13, 205222, Note_on_c, 4, 66, 44
13, 205246, Note_on_c, 4, 60, 52
13, 205249, Note_on_c, 4, 65, 0
13, 205300, Note_on_c, 4, 62, 0
13, 205301, Note_on_c, 4, 65, 53
13, 205340, Note_on_c, 4, 66, 0
13, 205340, Note_on_c, 4, 62, 39
13, 205363, Note_on_c, 4, 60, 0
13, 205383, Note_on_c, 4, 66, 41
13, 205406, Note_on_c, 4, 60, 49
13, 205418, Note_on_c, 4, 65, 0
13, 205448, Note_on_c, 4, 65, 55
13, 205458, Note_on_c, 4, 62, 0
13, 205490, Note_on_c, 4, 62, 55
13, 205501, Note_on_c, 4, 66, 0
13, 205523, Note_on_c, 4, 60, 0
13, 205528, Note_on_c, 4, 66, 41
13, 205565, Note_on_c, 4, 65, 0
13, 205582, Note_on_c, 4, 60, 49
13, 205608, Note_on_c, 4, 62, 0
13, 205621, Note_on_c, 4, 65, 57
13, 205643, Note_on_c, 4, 62, 58
13, 205646, Note_on_c, 4, 66, 0
13, 205693, Note_on_c, 4, 66, 45
13, 205699, Note_on_c, 4, 60, 0
13, 205721, Note_on_c, 4, 60, 39
13, 205738, Note_on_c, 4, 65, 0
13, 205761, Note_on_c, 4, 62, 0
13, 205767, Note_on_c, 4, 65, 45
13, 205804, Note_on_c, 4, 62, 39
13, 205811, Note_on_c, 4, 66, 0
13, 205838, Note_on_c, 4, 60, 0
13, 205854, Note_on_c, 4, 66, 57
13, 205884, Note_on_c, 4, 65, 0
13, 205899, Note_on_c, 4, 60, 58
13, 205915, Note_on_c, 4, 65, 50
13, 205922, Note_on_c, 4, 62, 0
13, 205937, Note_on_c, 4, 39, 0
13, 205966, Note_on_c, 4, 62, 41
13, 205972, Note_on_c, 4, 66, 0
13, 206015, Note_on_c, 4, 66, 45
13, 206016, Note_on_c, 4, 60, 0
13, 206032, Note_on_c, 4, 65, 0
13, 206056, Note_on_c, 4, 60, 57
13, 206082, Note_on_c, 4, 65, 46
13, 206084, Note_on_c, 4, 62, 0
13, 206133, Note_on_c, 4, 66, 0
13, 206133, Note_on_c, 4, 62, 43
13, 206151, Note_on_c, 4, 66, 53
13, 206173, Note_on_c, 4, 60, 0
13, 206199, Note_on_c, 4, 65, 0
13, 206215, Note_on_c, 4, 60, 44
13, 206245, Note_on_c, 4, 65, 47
13, 206251, Note_on_c, 4, 62, 0
13, 206269, Note_on_c, 4, 66, 0
13, 206291, Note_on_c, 4, 62, 57
13, 206324, Note_on_c, 4, 66, 51
13, 206332, Note_on_c, 4, 60, 0
13, 206348, Note_on_c, 4, 60, 50
13, 206362, Note_on_c, 4, 65, 0
13, 206394, Note_on_c, 4, 65, 54
13, 206409, Note_on_c, 4, 62, 0
13, 206442, Note_on_c, 4, 66, 0
13, 206444, Note_on_c, 4, 62, 58
13, 206465, Note_on_c, 4, 60, 0
13, 206469, Note_on_c, 4, 66, 47
13, 206511, Note_on_c, 4, 65, 0
13, 206513, Note_on_c, 4, 60, 59
13, 206549, Note_on_c, 4, 65, 39
13, 206562, Note_on_c, 4, 62, 0
13, 206587, Note_on_c, 4, 66, 0
13, 206605, Note_on_c, 4, 62, 40
13, 206630, Note_on_c, 4, 60, 0
13, 206639, Note_on_c, 4, 66, 58
13, 206666, Note_on_c, 4, 65, 0
13, 206676, Note_on_c, 4, 60, 48
13, 206707, Note_on_c, 4, 65, 55
13, 206723, Note_on_c, 4, 62, 0
13, 206757, Note_on_c, 4, 66, 0
13, 206765, Note_on_c, 4, 62, 47
13, 206784, Note_on_c, 4, 66, 59
13, 206793, Note_on_c, 4, 60, 0
13, 206822, Note_on_c, 4, 60, 54
13, 206824, Note_on_c, 4, 65, 0
13, 206858, Note_on_c, 4, 65, 47
13, 206883, Note_on_c, 4, 62, 0
13, 206902, Note_on_c, 4, 66, 0
13, 206913, Note_on_c, 4, 62, 59
13, 206939, Note_on_c, 4, 60, 0
13, 206956, Note_on_c, 4, 66, 48
13, 206975, Note_on_c, 4, 65, 0
13, 206978, Note_on_c, 4, 60, 54
13, 207031, Note_on_c, 4, 62, 0
13, 207035, Note_on_c, 4, 65, 48
13, 207061, Note_on_c, 4, 62, 40
13, 207074, Note_on_c, 4, 66, 0
13, 207095, Note_on_c, 4, 60, 0
13, 207108, Note_on_c, 4, 66, 43
13, 207150, Note_on_c, 4, 60, 55
13, 207152, Note_on_c, 4, 65, 0
13, 207172, Note_on_c, 4, 65, 56
13, 207179, Note_on_c, 4, 62, 0
13, 207226, Note_on_c, 4, 66, 0
13, 207231, Note_on_c, 4, 62, 45
13, 207264, Note_on_c, 4, 66, 48
13, 207267, Note_on_c, 4, 60, 0
13, 207289, Note_on_c, 4, 65, 0
13, 207293, Note_on_c, 4, 60, 54
13, 207346, Note_on_c, 4, 65, 47
13, 207349, Note_on_c, 4, 62, 0
13, 207382, Note_on_c, 4, 66, 0
13, 207396, Note_on_c, 4, 62, 57
13, 207410, Note_on_c, 4, 60, 0
13, 207419, Note_on_c, 4, 66, 39
13, 207463, Note_on_c, 4, 65, 0
13, 207468, Note_on_c, 4, 60, 43
13, 207502, Note_on_c, 4, 65, 59
13, 207514, Note_on_c, 4, 62, 0
13, 207529, Note_on_c, 4, 62, 42
13, 207537, Note_on_c, 4, 66, 0
13, 207566, Note_on_c, 4, 66, 41
13, 207585, Note_on_c, 4, 60, 0
13, 207619, Note_on_c, 4, 65, 0
13, 207620, Note_on_c, 4, 60, 45
13, 207647, Note_on_c, 4, 62, 0
13, 207655, Note_on_c, 4, 65, 50
13, 207684, Note_on_c, 4, 66, 0
13, 207709, Note_on_c, 4, 62, 57
13, 207734, Note_on_c, 4, 66, 55
13, 207737, Note_on_c, 4, 60, 0
13, 207772, Note_on_c, 4, 65, 0
13, 207774, Note_on_c, 4, 60, 56
13, 207802, Note_on_c, 4, 65, 45
13, 207827, Note_on_c, 4, 62, 0
13, 207852, Note_on_c, 4, 66, 0
13, 207861, Note_on_c, 4, 62, 52
13, 207903, Note_on_c, 4, 66, 49
13, 207909, Note_on_c, 4, 60, 0
13, 207919, Note_on_c, 4, 65, 0
13, 207935, Note_on_c, 4, 60, 41
13, 207977, Note_on_c, 4, 65, 48
13, 207979, Note_on_c, 4, 62, 0
13, 208011, Note_on_c, 4, 62, 43
13, 208021, Note_on_c, 4, 66, 0
13, 208045, Note_on_c, 4, 66, 47
13, 208052, Note_on_c, 4, 60, 0
13, 208086, Note_on_c, 4, 60, 53
13, 208094, Note_on_c, 4, 65, 0
13, 208124, Note_on_c, 4, 65, 44
13, 208129, Note_on_c, 4, 62, 0
13, 208163, Note_on_c, 4, 66, 0
13, 208183, Note_on_c, 4, 62, 53
13, 208203, Note_on_c, 4, 60, 0
13, 208219, Note_on_c, 4, 66, 44
13, 208241, Note_on_c, 4, 65, 0
13, 208258, Note_on_c, 4, 60, 49
13, 208293, Note_on_c, 4, 65, 41
13, 208301, Note_on_c, 4, 62, 0
13, 208322, Note_on_c, 4, 62, 55
13, 208337, Note_on_c, 4, 66, 0
13, 208366, Note_on_c, 4, 66, 45
13, 208375, Note_on_c, 4, 60, 0
13, 208410, Note_on_c, 4, 65, 0
13, 208414, Note_on_c, 4, 60, 52
13, 208440, Note_on_c, 4, 62, 0
13, 208453, Note_on_c, 4, 65, 43
13, 208484, Note_on_c, 4, 66, 0
13, 208490, Note_on_c, 4, 62, 52
13, 208528, Note_on_c, 4, 66, 43
13, 208531, Note_on_c, 4, 60, 0
13, 208570, Note_on_c, 4, 65, 0
13, 208576, Note_on_c, 4, 60, 42
13, 208591, Note_on_c, 4, 65, 59
13, 208608, Note_on_c, 4, 62, 0
13, 208639, Note_on_c, 4, 62, 54
13, 208646, Note_on_c, 4, 66, 0
13, 208682, Note_on_c, 4, 66, 56
13, 208693, Note_on_c, 4, 60, 0
13, 208708, Note_on_c, 4, 65, 0
13, 208725, Note_on_c, 4, 60, 49
13, 208757, Note_on_c, 4, 62, 0
13, 208761, Note_on_c, 4, 65, 58
13, 208799, Note_on_c, 4, 62, 52
13, 208800, Note_on_c, 4, 66, 0
13, 208834, Note_on_c, 4, 66, 59
13, 208842, Note_on_c, 4, 60, 0
13, 208878, Note_on_c, 4, 65, 0
13, 208892, Note_on_c, 4, 60, 58
13, 208914, Note_on_c, 4, 65, 40
13, 208917, Note_on_c, 4, 62, 0
13, 208952, Note_on_c, 4, 66, 0
13, 208960, Note_on_c, 4, 62, 54
13, 209001, Note_on_c, 4, 66, 56
13, 209009, Note_on_c, 4, 60, 0
13, 209031, Note_on_c, 4, 65, 0
13, 209031, Note_on_c, 4, 60, 50
13, 209062, Note_on_c, 4, 65, 42
13, 209078, Note_on_c, 4, 62, 0
13, 209109, Note_on_c, 4, 62, 44
13, 209119, Note_on_c, 4, 66, 0
13, 209148, Note_on_c, 4, 60, 0
13, 209150, Note_on_c, 4, 66, 43
13, 209179, Note_on_c, 4, 65, 0
13, 209202, Note_on_c, 4, 60, 50
13, 209222, Note_on_c, 4, 65, 43
13, 209227, Note_on_c, 4, 62, 0
13, 209268, Note_on_c, 4, 66, 0
13, 209284, Note_on_c, 4, 62, 53
13, 209307, Note_on_c, 4, 66, 39
13, 209319, Note_on_c, 4, 60, 0
13, 209339, Note_on_c, 4, 65, 0
13, 209360, Note_on_c, 4, 60, 42
13, 209391, Note_on_c, 4, 65, 49
13, 209402, Note_on_c, 4, 62, 0
13, 209425, Note_on_c, 4, 66, 0
13, 209439, Note_on_c, 4, 62, 42
13, 209477, Note_on_c, 4, 60, 0
13, 209477, Note_on_c, 4, 66, 59
13, 209504, Note_on_c, 4, 60, 43
13, 209508, Note_on_c, 4, 65, 0
13, 209557, Note_on_c, 4, 62, 0
13, 209560, Note_on_c, 4, 65, 58
13, 209592, Note_on_c, 4, 62, 55
13, 209595, Note_on_c, 4, 66, 0
13, 209621, Note_on_c, 4, 60, 0
13, 209621, Note_on_c, 4, 66, 46
13, 209664, Note_on_c, 4, 60, 59
13, 209677, Note_on_c, 4, 65, 0
13, 209704, Note_on_c, 4, 65, 58
13, 209710, Note_on_c, 4, 62, 0
13, 209739, Note_on_c, 4, 66, 0
13, 209747, Note_on_c, 4, 62, 47
13, 209773, Note_on_c, 4, 66, 41
13, 209781, Note_on_c, 4, 60, 0
13, 209827, Note_on_c, 4, 65, 0
13, 209829, Note_on_c, 4, 60, 56
13, 209865, Note_on_c, 4, 62, 0
13, 209869, Note_on_c, 4, 65, 47
13, 209891, Note_on_c, 4, 66, 0
13, 209901, Note_on_c, 4, 62, 41
13, 209933, Note_on_c, 4, 66, 50
13, 209946, Note_on_c, 4, 60, 0
13, 209985, Note_on_c, 4, 60, 56
13, 209986, Note_on_c, 4, 65, 0
13, 210007, Note_on_c, 4, 65, 58
13, 210019, Note_on_c, 4, 62, 0
13, 210051, Note_on_c, 4, 66, 0
13, 210052, Note_on_c, 4, 62, 55
13, 210099, Note_on_c, 4, 66, 41
13, 210102, Note_on_c, 4, 60, 0
13, 210124, Note_on_c, 4, 65, 0
13, 210127, Note_on_c, 4, 60, 55
13, 210170, Note_on_c, 4, 62, 0
13, 210181, Note_on_c, 4, 65, 51
13, 210217, Note_on_c, 4, 66, 0
13, 210222, Note_on_c, 4, 62, 50
13, 210244, Note_on_c, 4, 60, 0
13, 210245, Note_on_c, 4, 66, 56
13, 210287, Note_on_c, 4, 60, 47
13, 210298, Note_on_c, 4, 65, 0
13, 210329, Note_on_c, 4, 65, 39
13, 210340, Note_on_c, 4, 62, 0
13, 210363, Note_on_c, 4, 66, 0
13, 210383, Note_on_c, 4, 62, 40
13, 210404, Note_on_c, 4, 60, 0
13, 210416, Note_on_c, 4, 66, 54
13, 210446, Note_on_c, 4, 65, 0
13, 210464, Note_on_c, 4, 60, 46
13, 210499, Note_on_c, 4, 65, 47
13, 210501, Note_on_c, 4, 62, 0
13, 210529, Note_on_c, 4, 62, 53
13, 210534, Note_on_c, 4, 66, 0
13, 210561, Note_on_c, 4, 66, 52
13, 210581, Note_on_c, 4, 60, 0
13, 210604, Note_on_c, 4, 60, 50
13, 210616, Note_on_c, 4, 65, 0
13, 210647, Note_on_c, 4, 62, 0
13, 210653, Note_on_c, 4, 65, 49
13, 210679, Note_on_c, 4, 66, 0
13, 210703, Note_on_c, 4, 62, 56
13, 210716, Note_on_c, 4, 66, 58
13, 210721, Note_on_c, 4, 60, 0
13, 210722, Note_on_c, 4, 66, 0
13, 210743, Note_on_c, 4, 67, 43
13, 210770, Note_on_c, 4, 65, 0
13, 210775, Note_on_c, 4, 60, 54
13, 210804, Note_on_c, 4, 65, 59
13, 210821, Note_on_c, 4, 62, 0
13, 210846, Note_on_c, 4, 62, 49
13, 210855, Note_on_c, 4, 67, 0
13, 210889, Note_on_c, 4, 66, 41
13, 210892, Note_on_c, 4, 60, 0
13, 210921, Note_on_c, 4, 65, 0
13, 210940, Note_on_c, 4, 60, 56
13, 210964, Note_on_c, 4, 62, 0
13, 210974, Note_on_c, 4, 65, 43
13, 211007, Note_on_c, 4, 66, 0
13, 211009, Note_on_c, 4, 62, 40
13, 211056, Note_on_c, 4, 66, 56
13, 211057, Note_on_c, 4, 60, 0
13, 211091, Note_on_c, 4, 65, 0
13, 211097, Note_on_c, 4, 60, 53
13, 211122, Note_on_c, 4, 65, 39
13, 211127, Note_on_c, 4, 62, 0
13, 211172, Note_on_c, 4, 62, 50
13, 211174, Note_on_c, 4, 66, 0
13, 211205, Note_on_c, 4, 66, 43
13, 211214, Note_on_c, 4, 60, 0
13, 211234, Note_on_c, 4, 60, 59
13, 211239, Note_on_c, 4, 65, 0
13, 211284, Note_on_c, 4, 65, 51
13, 211290, Note_on_c, 4, 62, 0
13, 211323, Note_on_c, 4, 66, 0
13, 211325, Note_on_c, 4, 62, 43
13, 211351, Note_on_c, 4, 60, 0
13, 211368, Note_on_c, 4, 66, 40
13, 211388, Note_on_c, 4, 60, 42
13, 211401, Note_on_c, 4, 65, 0
13, 211426, Note_on_c, 4, 65, 50
13, 211443, Note_on_c, 4, 62, 0
13, 211474, Note_on_c, 4, 62, 48
13, 211486, Note_on_c, 4, 66, 0
13, 211503, Note_on_c, 4, 66, 52
13, 211505, Note_on_c, 4, 60, 0
13, 211543, Note_on_c, 4, 65, 0
13, 211562, Note_on_c, 4, 60, 49
13, 211592, Note_on_c, 4, 62, 0
13, 211607, Note_on_c, 4, 65, 40
13, 211621, Note_on_c, 4, 66, 0
13, 211679, Note_on_c, 4, 60, 0
13, 211724, Note_on_c, 4, 65, 0
13, 221544, Note_on_c, 4, 44, 110
13, 222015, Note_on_c, 4, 43, 111
13, 222024, Note_on_c, 4, 44, 0
13, 222484, Note_on_c, 4, 30, 116
13, 222495, Note_on_c, 4, 43, 0
13, 222964, Note_on_c, 4, 30, 0
13, 222967, Note_on_c, 4, 31, 114
13, 223447, Note_on_c, 4, 31, 0
13, 225381, Note_on_c, 4, 44, 127
13, 225861, Note_on_c, 4, 44, 0
13, 225863, Note_on_c, 4, 43, 127
13, 226328, Note_on_c, 4, 30, 127
13, 226343, Note_on_c, 4, 43, 0
13, 226808, Note_on_c, 4, 30, 0
13, 226810, Note_on_c, 4, 31, 111
13, 227050, Note_on_c, 4, 31, 0
13, 228241, Note_on_c, 4, 41, 106
13, 228816, Note_on_c, 4, 41, 0
13, 230174, Note_on_c, 4, 41, 106
13, 230749, Note_on_c, 4, 41, 0
13, 231128, Note_on_c, 4, 41, 119
13, 231602, Note_on_c, 4, 39, 101
13, 231608, Note_on_c, 4, 41, 0
13, 232082, Note_on_c, 4, 39, 0
13, 232097, Note_on_c, 4, 29, 105
13, 232100, Note_on_c, 4, 41, 114
13, 232564, Note_on_c, 4, 43, 118
13, 232567, Note_on_c, 4, 31, 119
13, 232577, Note_on_c, 4, 29, 0
13, 232580, Note_on_c, 4, 41, 0
13, 233044, Note_on_c, 4, 43, 0
13, 233047, Note_on_c, 4, 31, 0
13, 233050, Note_on_c, 4, 41, 106
13, 233530, Note_on_c, 4, 41, 0
13, 233544, Note_on_c, 4, 39, 113
13, 234012, Note_on_c, 4, 41, 106
13, 234016, Note_on_c, 4, 29, 105
13, 234024, Note_on_c, 4, 39, 0
13, 234492, Note_on_c, 4, 41, 0
13, 234492, Note_on_c, 4, 43, 103
13, 234496, Note_on_c, 4, 29, 0
13, 234502, Note_on_c, 4, 31, 85
13, 234966, Note_on_c, 4, 53, 104
13, 234972, Note_on_c, 4, 43, 0
13, 234974, Note_on_c, 4, 41, 116
13, 234982, Note_on_c, 4, 31, 0
13, 234983, Note_on_c, 4, 41, 96
13, 235069, Note_on_c, 4, 41, 0
13, 235443, Note_on_c, 4, 51, 119
13, 235446, Note_on_c, 4, 53, 0
13, 235452, Note_on_c, 4, 39, 90
13, 235461, Note_on_c, 4, 39, 103
13, 235463, Note_on_c, 4, 41, 0
13, 235556, Note_on_c, 4, 39, 0
13, 235920, Note_on_c, 4, 31, 97
13, 235923, Note_on_c, 4, 51, 0
13, 235923, Note_on_c, 4, 41, 111
13, 235932, Note_on_c, 4, 39, 0
13, 235938, Note_on_c, 4, 41, 106
13, 236400, Note_on_c, 4, 31, 0
13, 236401, Note_on_c, 4, 43, 120
13, 236403, Note_on_c, 4, 41, 0
13, 236411, Note_on_c, 4, 31, 87
13, 236415, Note_on_c, 4, 43, 107
13, 236418, Note_on_c, 4, 41, 0
13, 236881, Note_on_c, 4, 43, 0
13, 236886, Note_on_c, 4, 41, 108
13, 236887, Note_on_c, 4, 41, 105
13, 236888, Note_on_c, 4, 41, 80
13, 236891, Note_on_c, 4, 31, 0
13, 236895, Note_on_c, 4, 43, 0
13, 236981, Note_on_c, 4, 41, 0
13, 237366, Note_on_c, 4, 39, 120
13, 237367, Note_on_c, 4, 41, 0
13, 237368, Note_on_c, 4, 41, 0
13, 237371, Note_on_c, 4, 39, 97
13, 237373, Note_on_c, 4, 51, 118
13, 237461, Note_on_c, 4, 39, 0
13, 237851, Note_on_c, 4, 39, 0
13, 237853, Note_on_c, 4, 51, 0
13, 237858, Note_on_c, 4, 29, 82
13, 237859, Note_on_c, 4, 43, 82
13, 238331, Note_on_c, 4, 31, 83
13, 238338, Note_on_c, 4, 29, 0
13, 238339, Note_on_c, 4, 43, 0
13, 238341, Note_on_c, 4, 43, 79
13, 238804, Note_on_c, 4, 53, 98
13, 238811, Note_on_c, 4, 31, 0
13, 238816, Note_on_c, 4, 41, 97
13, 238821, Note_on_c, 4, 43, 0
13, 238872, Note_on_c, 4, 53, 0
13, 238887, Note_on_c, 4, 55, 94
13, 238955, Note_on_c, 4, 55, 0
13, 238959, Note_on_c, 4, 53, 91
13, 239017, Note_on_c, 4, 55, 79
13, 239027, Note_on_c, 4, 53, 0
13, 239081, Note_on_c, 4, 53, 88
13, 239085, Note_on_c, 4, 55, 0
13, 239149, Note_on_c, 4, 53, 0
13, 239151, Note_on_c, 4, 55, 93
13, 239219, Note_on_c, 4, 55, 0
13, 239227, Note_on_c, 4, 53, 86
13, 239286, Note_on_c, 4, 39, 98
13, 239292, Note_on_c, 4, 53, 0
13, 239296, Note_on_c, 4, 41, 0
13, 239304, Note_on_c, 4, 51, 81
13, 239367, Note_on_c, 4, 53, 81
13, 239383, Note_on_c, 4, 51, 0
13, 239446, Note_on_c, 4, 53, 0
13, 239461, Note_on_c, 4, 51, 84
13, 239533, Note_on_c, 4, 53, 79
13, 239540, Note_on_c, 4, 51, 0
13, 239599, Note_on_c, 4, 51, 92
13, 239612, Note_on_c, 4, 53, 0
13, 239678, Note_on_c, 4, 51, 0
13, 239692, Note_on_c, 4, 53, 91
13, 239758, Note_on_c, 4, 51, 83
13, 239760, Note_on_c, 4, 51, 0
13, 239766, Note_on_c, 4, 39, 0
13, 239769, Note_on_c, 4, 29, 95
13, 239771, Note_on_c, 4, 53, 0
13, 239854, Note_on_c, 4, 53, 93
13, 239933, Note_on_c, 4, 53, 0
13, 239941, Note_on_c, 4, 51, 79
13, 240019, Note_on_c, 4, 53, 80
13, 240020, Note_on_c, 4, 51, 0
13, 240093, Note_on_c, 4, 51, 94
13, 240098, Note_on_c, 4, 53, 0
13, 240164, Note_on_c, 4, 53, 78
13, 240172, Note_on_c, 4, 51, 0
13, 240243, Note_on_c, 4, 53, 0
13, 240244, Note_on_c, 4, 51, 78
13, 240249, Note_on_c, 4, 29, 0
13, 240253, Note_on_c, 4, 31, 89
13, 240320, Note_on_c, 4, 53, 91
13, 240323, Note_on_c, 4, 51, 0
13, 240399, Note_on_c, 4, 53, 0
13, 240410, Note_on_c, 4, 51, 80
13, 240489, Note_on_c, 4, 51, 0
13, 240733, Note_on_c, 4, 31, 0
13, 240739, Note_on_c, 4, 41, 92
13, 240745, Note_on_c, 4, 53, 83
13, 240813, Note_on_c, 4, 53, 0
13, 240813, Note_on_c, 4, 55, 92
13, 240863, Note_on_c, 4, 53, 91
13, 240881, Note_on_c, 4, 55, 0
13, 240931, Note_on_c, 4, 53, 0
13, 240937, Note_on_c, 4, 55, 80
13, 241005, Note_on_c, 4, 55, 0
13, 241008, Note_on_c, 4, 53, 84
13, 241076, Note_on_c, 4, 53, 0
13, 241084, Note_on_c, 4, 55, 88
13, 241148, Note_on_c, 4, 53, 85
13, 241152, Note_on_c, 4, 55, 0
13, 241209, Note_on_c, 4, 51, 96
13, 241213, Note_on_c, 4, 53, 0
13, 241219, Note_on_c, 4, 41, 0
13, 241224, Note_on_c, 4, 39, 89
13, 241286, Note_on_c, 4, 53, 86
13, 241288, Note_on_c, 4, 51, 0
13, 241365, Note_on_c, 4, 53, 0
13, 241367, Note_on_c, 4, 51, 89
13, 241445, Note_on_c, 4, 53, 81
13, 241446, Note_on_c, 4, 51, 0
13, 241524, Note_on_c, 4, 53, 0
13, 241525, Note_on_c, 4, 51, 83
13, 241604, Note_on_c, 4, 51, 0
13, 241611, Note_on_c, 4, 53, 84
13, 241678, Note_on_c, 4, 51, 91
13, 241680, Note_on_c, 4, 51, 0
13, 241690, Note_on_c, 4, 53, 0
13, 241691, Note_on_c, 4, 29, 108
13, 241704, Note_on_c, 4, 39, 0
13, 241762, Note_on_c, 4, 29, 0
13, 241778, Note_on_c, 4, 53, 110
13, 241842, Note_on_c, 4, 51, 115
13, 241857, Note_on_c, 4, 53, 0
13, 241921, Note_on_c, 4, 51, 0
13, 241926, Note_on_c, 4, 53, 104
13, 242002, Note_on_c, 4, 51, 108
13, 242005, Note_on_c, 4, 53, 0
13, 242081, Note_on_c, 4, 51, 0
13, 242089, Note_on_c, 4, 53, 95
13, 242168, Note_on_c, 4, 53, 0
13, 242178, Note_on_c, 4, 51, 104
13, 242181, Note_on_c, 4, 29, 109
13, 242237, Note_on_c, 4, 53, 113
13, 242252, Note_on_c, 4, 29, 0
13, 242257, Note_on_c, 4, 51, 0
13, 242316, Note_on_c, 4, 53, 0
13, 242323, Note_on_c, 4, 51, 101
13, 242402, Note_on_c, 4, 51, 0
13, 242658, Note_on_c, 4, 53, 110
13, 242661, Note_on_c, 4, 41, 102
13, 242713, Note_on_c, 4, 55, 109
13, 242726, Note_on_c, 4, 53, 0
13, 242776, Note_on_c, 4, 53, 106
13, 242781, Note_on_c, 4, 55, 0
13, 242844, Note_on_c, 4, 53, 0
13, 242863, Note_on_c, 4, 55, 107
13, 242931, Note_on_c, 4, 55, 0
13, 242932, Note_on_c, 4, 53, 107
13, 243000, Note_on_c, 4, 53, 0
13, 243004, Note_on_c, 4, 55, 96
13, 243054, Note_on_c, 4, 53, 102
13, 243072, Note_on_c, 4, 55, 0
13, 243119, Note_on_c, 4, 53, 0
13, 243130, Note_on_c, 4, 51, 108
13, 243141, Note_on_c, 4, 41, 0
13, 243142, Note_on_c, 4, 39, 99
13, 243199, Note_on_c, 4, 53, 96
13, 243209, Note_on_c, 4, 51, 0
13, 243278, Note_on_c, 4, 53, 0
13, 243297, Note_on_c, 4, 51, 111
13, 243376, Note_on_c, 4, 51, 0
13, 243383, Note_on_c, 4, 53, 97
13, 243442, Note_on_c, 4, 51, 115
13, 243462, Note_on_c, 4, 53, 0
13, 243521, Note_on_c, 4, 51, 0
13, 243534, Note_on_c, 4, 53, 96
13, 243598, Note_on_c, 4, 51, 104
13, 243600, Note_on_c, 4, 51, 0
13, 243606, Note_on_c, 4, 29, 113
13, 243613, Note_on_c, 4, 53, 0
13, 243622, Note_on_c, 4, 39, 0
13, 243695, Note_on_c, 4, 53, 115
13, 243758, Note_on_c, 4, 51, 107
13, 243774, Note_on_c, 4, 53, 0
13, 243837, Note_on_c, 4, 51, 0
13, 243856, Note_on_c, 4, 53, 98
13, 243924, Note_on_c, 4, 51, 109
13, 243935, Note_on_c, 4, 53, 0
13, 244003, Note_on_c, 4, 51, 0
13, 244018, Note_on_c, 4, 53, 110
13, 244086, Note_on_c, 4, 29, 0
13, 244088, Note_on_c, 4, 51, 99
13, 244097, Note_on_c, 4, 53, 0
13, 244104, Note_on_c, 4, 31, 107
13, 244167, Note_on_c, 4, 51, 0
13, 244167, Note_on_c, 4, 53, 105
13, 244245, Note_on_c, 4, 51, 107
13, 244246, Note_on_c, 4, 53, 0
13, 244324, Note_on_c, 4, 51, 0
13, 244569, Note_on_c, 4, 53, 110
13, 244569, Note_on_c, 4, 41, 100
13, 244584, Note_on_c, 4, 31, 0
13, 244637, Note_on_c, 4, 53, 0
13, 244644, Note_on_c, 4, 55, 114
13, 244712, Note_on_c, 4, 55, 0
13, 244717, Note_on_c, 4, 53, 115
13, 244785, Note_on_c, 4, 53, 0
13, 244790, Note_on_c, 4, 55, 95
13, 244847, Note_on_c, 4, 53, 99
13, 244858, Note_on_c, 4, 55, 0
13, 244906, Note_on_c, 4, 55, 95
13, 244915, Note_on_c, 4, 53, 0
13, 244974, Note_on_c, 4, 55, 0
13, 244993, Note_on_c, 4, 53, 102
13, 245049, Note_on_c, 4, 41, 0
13, 245054, Note_on_c, 4, 39, 99
13, 245058, Note_on_c, 4, 53, 0
13, 245065, Note_on_c, 4, 51, 97
13, 245137, Note_on_c, 4, 53, 107
13, 245144, Note_on_c, 4, 51, 0
13, 245213, Note_on_c, 4, 51, 105
13, 245216, Note_on_c, 4, 53, 0
13, 245289, Note_on_c, 4, 53, 98
13, 245292, Note_on_c, 4, 51, 0
13, 245368, Note_on_c, 4, 53, 0
13, 245381, Note_on_c, 4, 51, 101
13, 245455, Note_on_c, 4, 53, 101
13, 245460, Note_on_c, 4, 51, 0
13, 245518, Note_on_c, 4, 51, 111
13, 245520, Note_on_c, 4, 51, 0
13, 245534, Note_on_c, 4, 39, 0
13, 245534, Note_on_c, 4, 53, 0
13, 245534, Note_on_c, 4, 29, 113
13, 245605, Note_on_c, 4, 29, 0
13, 245614, Note_on_c, 4, 53, 98
13, 245679, Note_on_c, 4, 51, 97
13, 245693, Note_on_c, 4, 53, 0
13, 245758, Note_on_c, 4, 51, 0
13, 245762, Note_on_c, 4, 53, 105
13, 245841, Note_on_c, 4, 53, 0
13, 245860, Note_on_c, 4, 51, 97
13, 245918, Note_on_c, 4, 53, 105
13, 245939, Note_on_c, 4, 51, 0
13, 245997, Note_on_c, 4, 53, 0
13, 245997, Note_on_c, 4, 51, 97
13, 246021, Note_on_c, 4, 29, 112
13, 246076, Note_on_c, 4, 51, 0
13, 246078, Note_on_c, 4, 53, 113
13, 246092, Note_on_c, 4, 29, 0
13, 246157, Note_on_c, 4, 53, 0
13, 246166, Note_on_c, 4, 51, 113
13, 246245, Note_on_c, 4, 51, 0
13, 246481, Note_on_c, 4, 53, 107
13, 246489, Note_on_c, 4, 41, 103
13, 246549, Note_on_c, 4, 53, 0
13, 246554, Note_on_c, 4, 55, 98
13, 246618, Note_on_c, 4, 53, 99
13, 246622, Note_on_c, 4, 55, 0
13, 246686, Note_on_c, 4, 53, 0
13, 246689, Note_on_c, 4, 55, 98
13, 246757, Note_on_c, 4, 55, 0
13, 246776, Note_on_c, 4, 53, 106
13, 246838, Note_on_c, 4, 55, 103
13, 246844, Note_on_c, 4, 53, 0
13, 246902, Note_on_c, 4, 53, 100
13, 246906, Note_on_c, 4, 55, 0
13, 246967, Note_on_c, 4, 53, 0
13, 246969, Note_on_c, 4, 41, 0
13, 246975, Note_on_c, 4, 51, 103
13, 246985, Note_on_c, 4, 39, 104
13, 247039, Note_on_c, 4, 53, 104
13, 247054, Note_on_c, 4, 51, 0
13, 247118, Note_on_c, 4, 53, 0
13, 247135, Note_on_c, 4, 51, 103
13, 247210, Note_on_c, 4, 53, 114
13, 247214, Note_on_c, 4, 51, 0
13, 247282, Note_on_c, 4, 51, 103
13, 247289, Note_on_c, 4, 53, 0
13, 247361, Note_on_c, 4, 51, 0
13, 247363, Note_on_c, 4, 53, 115
13, 247438, Note_on_c, 4, 51, 106
13, 247440, Note_on_c, 4, 51, 0
13, 247442, Note_on_c, 4, 53, 0
13, 247458, Note_on_c, 4, 29, 103
13, 247465, Note_on_c, 4, 39, 0
13, 247535, Note_on_c, 4, 53, 102
13, 247614, Note_on_c, 4, 53, 0
13, 247618, Note_on_c, 4, 51, 96
13, 247686, Note_on_c, 4, 53, 96
13, 247697, Note_on_c, 4, 51, 0
13, 247765, Note_on_c, 4, 53, 0
13, 247774, Note_on_c, 4, 51, 109
13, 247852, Note_on_c, 4, 53, 105
13, 247853, Note_on_c, 4, 51, 0
13, 247920, Note_on_c, 4, 31, 99
13, 247931, Note_on_c, 4, 53, 0
13, 247933, Note_on_c, 4, 51, 106
13, 247938, Note_on_c, 4, 29, 0
13, 248008, Note_on_c, 4, 53, 113
13, 248012, Note_on_c, 4, 51, 0
13, 248081, Note_on_c, 4, 51, 97
13, 248087, Note_on_c, 4, 53, 0
13, 248160, Note_on_c, 4, 51, 0
13, 248400, Note_on_c, 4, 31, 0
13, 248405, Note_on_c, 4, 41, 106
13, 248418, Note_on_c, 4, 53, 100
13, 248481, Note_on_c, 4, 55, 108
13, 248486, Note_on_c, 4, 53, 0
13, 248547, Note_on_c, 4, 53, 112
13, 248549, Note_on_c, 4, 55, 0
13, 248611, Note_on_c, 4, 55, 112
13, 248615, Note_on_c, 4, 53, 0
13, 248677, Note_on_c, 4, 53, 112
13, 248679, Note_on_c, 4, 55, 0
13, 248742, Note_on_c, 4, 55, 115
13, 248745, Note_on_c, 4, 53, 0
13, 248810, Note_on_c, 4, 55, 0
13, 248823, Note_on_c, 4, 53, 110
13, 248885, Note_on_c, 4, 41, 0
13, 248887, Note_on_c, 4, 39, 101
13, 248888, Note_on_c, 4, 53, 0
13, 248892, Note_on_c, 4, 51, 104
13, 248966, Note_on_c, 4, 53, 109
13, 248971, Note_on_c, 4, 51, 0
13, 249044, Note_on_c, 4, 51, 112
13, 249045, Note_on_c, 4, 53, 0
13, 249123, Note_on_c, 4, 51, 0
13, 249130, Note_on_c, 4, 53, 106
13, 249208, Note_on_c, 4, 51, 111
13, 249209, Note_on_c, 4, 53, 0
13, 249287, Note_on_c, 4, 51, 0
13, 249289, Note_on_c, 4, 53, 95
13, 249358, Note_on_c, 4, 51, 107
13, 249360, Note_on_c, 4, 51, 0
13, 249367, Note_on_c, 4, 39, 0
13, 249368, Note_on_c, 4, 53, 0
13, 249373, Note_on_c, 4, 29, 115
13, 249444, Note_on_c, 4, 29, 0
13, 249458, Note_on_c, 4, 53, 111
13, 249537, Note_on_c, 4, 53, 0
13, 249538, Note_on_c, 4, 51, 97
13, 249614, Note_on_c, 4, 53, 98
13, 249617, Note_on_c, 4, 51, 0
13, 249693, Note_on_c, 4, 53, 0
13, 249699, Note_on_c, 4, 51, 111
13, 249778, Note_on_c, 4, 51, 0
13, 249778, Note_on_c, 4, 53, 114
13, 249857, Note_on_c, 4, 53, 0
13, 249859, Note_on_c, 4, 51, 109
13, 249863, Note_on_c, 4, 29, 105
13, 249920, Note_on_c, 4, 53, 95
13, 249934, Note_on_c, 4, 29, 0
13, 249938, Note_on_c, 4, 51, 0
13, 249999, Note_on_c, 4, 53, 0
13, 250004, Note_on_c, 4, 51, 102
13, 250083, Note_on_c, 4, 51, 0
13, 260895, Note_on_c, 4, 56, 81
13, 260990, Note_on_c, 4, 56, 0
13, 261132, Note_on_c, 4, 60, 94
13, 261227, Note_on_c, 4, 60, 0
13, 261366, Note_on_c, 4, 63, 79
13, 261461, Note_on_c, 4, 63, 0
13, 261607, Note_on_c, 4, 66, 84
13, 261702, Note_on_c, 4, 66, 0
13, 261847, Note_on_c, 4, 69, 85
13, 261942, Note_on_c, 4, 69, 0
13, 262093, Note_on_c, 4, 71, 88
13, 262188, Note_on_c, 4, 71, 0
13, 262324, Note_on_c, 4, 56, 90
13, 262419, Note_on_c, 4, 56, 0
13, 262581, Note_on_c, 4, 60, 88
13, 262676, Note_on_c, 4, 60, 0
13, 262815, Note_on_c, 4, 63, 86
13, 262910, Note_on_c, 4, 63, 0
13, 263065, Note_on_c, 4, 66, 95
13, 263160, Note_on_c, 4, 66, 0
13, 263293, Note_on_c, 4, 69, 87
13, 263388, Note_on_c, 4, 69, 0
13, 263538, Note_on_c, 4, 71, 81
13, 263633, Note_on_c, 4, 71, 0
13, 263768, Note_on_c, 4, 56, 83
13, 263863, Note_on_c, 4, 56, 0
13, 264016, Note_on_c, 4, 60, 95
13, 264111, Note_on_c, 4, 60, 0
13, 264260, Note_on_c, 4, 63, 96
13, 264355, Note_on_c, 4, 63, 0
13, 264505, Note_on_c, 4, 66, 90
13, 264600, Note_on_c, 4, 66, 0
13, 264743, Note_on_c, 4, 69, 89
13, 264838, Note_on_c, 4, 69, 0
13, 264964, Note_on_c, 4, 71, 91
13, 265059, Note_on_c, 4, 71, 0
13, 265210, Note_on_c, 4, 56, 91
13, 265305, Note_on_c, 4, 56, 0
13, 265452, Note_on_c, 4, 60, 95
13, 265547, Note_on_c, 4, 60, 0
13, 265691, Note_on_c, 4, 63, 88
13, 265786, Note_on_c, 4, 63, 0
13, 265920, Note_on_c, 4, 66, 90
13, 266015, Note_on_c, 4, 66, 0
13, 266177, Note_on_c, 4, 69, 79
13, 266272, Note_on_c, 4, 69, 0
13, 266417, Note_on_c, 4, 71, 96
13, 266512, Note_on_c, 4, 71, 0
13, 284661, Note_on_c, 4, 56, 81
13, 284756, Note_on_c, 4, 56, 0
13, 284882, Note_on_c, 4, 60, 94
13, 284977, Note_on_c, 4, 60, 0
13, 285129, Note_on_c, 4, 63, 86
13, 285224, Note_on_c, 4, 63, 0
13, 285362, Note_on_c, 4, 66, 86
13, 285457, Note_on_c, 4, 66, 0
13, 285602, Note_on_c, 4, 69, 86
13, 285697, Note_on_c, 4, 69, 0
13, 285862, Note_on_c, 4, 71, 98
13, 285957, Note_on_c, 4, 71, 0
13, 286099, Note_on_c, 4, 56, 91
13, 286194, Note_on_c, 4, 56, 0
13, 286342, Note_on_c, 4, 60, 87
13, 286437, Note_on_c, 4, 60, 0
13, 286572, Note_on_c, 4, 63, 87
13, 286667, Note_on_c, 4, 63, 0
13, 286816, Note_on_c, 4, 66, 90
13, 286911, Note_on_c, 4, 66, 0
13, 287057, Note_on_c, 4, 69, 80
13, 287152, Note_on_c, 4, 69, 0
13, 287296, Note_on_c, 4, 71, 81
13, 287391, Note_on_c, 4, 71, 0
13, 287545, Note_on_c, 4, 56, 85
13, 287640, Note_on_c, 4, 56, 0
13, 287769, Note_on_c, 4, 60, 90
13, 287864, Note_on_c, 4, 60, 0
13, 288013, Note_on_c, 4, 63, 78
13, 288108, Note_on_c, 4, 63, 0
13, 288256, Note_on_c, 4, 66, 94
13, 288351, Note_on_c, 4, 66, 0
13, 288490, Note_on_c, 4, 69, 80
13, 288585, Note_on_c, 4, 69, 0
13, 288727, Note_on_c, 4, 71, 85
13, 288822, Note_on_c, 4, 71, 0
13, 302654, Note_on_c, 4, 67, 109
13, 302655, Note_on_c, 4, 55, 94
13, 302655, Note_on_c, 4, 61, 109
13, 302774, Note_on_c, 4, 67, 0
13, 302775, Note_on_c, 4, 55, 0
13, 302775, Note_on_c, 4, 61, 0
13, 302897, Note_on_c, 4, 61, 92
13, 302899, Note_on_c, 4, 55, 95
13, 302901, Note_on_c, 4, 67, 104
13, 303017, Note_on_c, 4, 61, 0
13, 303019, Note_on_c, 4, 55, 0
13, 303021, Note_on_c, 4, 67, 0
13, 303126, Note_on_c, 4, 67, 94
13, 303129, Note_on_c, 4, 61, 108
13, 303132, Note_on_c, 4, 55, 101
13, 303246, Note_on_c, 4, 67, 0
13, 303249, Note_on_c, 4, 61, 0
13, 303252, Note_on_c, 4, 55, 0
13, 303375, Note_on_c, 4, 67, 102
13, 303375, Note_on_c, 4, 61, 96
13, 303380, Note_on_c, 4, 55, 95
13, 303495, Note_on_c, 4, 67, 0
13, 303495, Note_on_c, 4, 61, 0
13, 303500, Note_on_c, 4, 55, 0
13, 303602, Note_on_c, 4, 55, 93
13, 303604, Note_on_c, 4, 67, 95
13, 303617, Note_on_c, 4, 61, 104
13, 303722, Note_on_c, 4, 55, 0
13, 303724, Note_on_c, 4, 67, 0
13, 303737, Note_on_c, 4, 61, 0
13, 303850, Note_on_c, 4, 55, 109
13, 303851, Note_on_c, 4, 61, 109
13, 303855, Note_on_c, 4, 67, 107
13, 303970, Note_on_c, 4, 55, 0
13, 303971, Note_on_c, 4, 61, 0
13, 303975, Note_on_c, 4, 67, 0
13, 304088, Note_on_c, 4, 55, 91
13, 304088, Note_on_c, 4, 67, 102
13, 304102, Note_on_c, 4, 61, 97
13, 304208, Note_on_c, 4, 55, 0
13, 304208, Note_on_c, 4, 67, 0
13, 304222, Note_on_c, 4, 61, 0
13, 304323, Note_on_c, 4, 55, 102
13, 304327, Note_on_c, 4, 67, 93
13, 304339, Note_on_c, 4, 61, 94
13, 304443, Note_on_c, 4, 55, 0
13, 304447, Note_on_c, 4, 67, 0
13, 304459, Note_on_c, 4, 61, 0
13, 304561, Note_on_c, 4, 55, 94
13, 304578, Note_on_c, 4, 61, 101
13, 304583, Note_on_c, 4, 67, 94
13, 304681, Note_on_c, 4, 55, 0
13, 304698, Note_on_c, 4, 61, 0
13, 304703, Note_on_c, 4, 67, 0
13, 304805, Note_on_c, 4, 67, 95
13, 304816, Note_on_c, 4, 55, 108
13, 304822, Note_on_c, 4, 61, 111
13, 304925, Note_on_c, 4, 67, 0
13, 304936, Note_on_c, 4, 55, 0
13, 304942, Note_on_c, 4, 61, 0
13, 305044, Note_on_c, 4, 61, 105
13, 305050, Note_on_c, 4, 55, 107
13, 305060, Note_on_c, 4, 67, 111
13, 305164, Note_on_c, 4, 61, 0
13, 305170, Note_on_c, 4, 55, 0
13, 305180, Note_on_c, 4, 67, 0
13, 305282, Note_on_c, 4, 61, 92
13, 305283, Note_on_c, 4, 55, 95
13, 305291, Note_on_c, 4, 67, 105
13, 305402, Note_on_c, 4, 61, 0
13, 305403, Note_on_c, 4, 55, 0
13, 305411, Note_on_c, 4, 67, 0
13, 305521, Note_on_c, 4, 67, 110
13, 305535, Note_on_c, 4, 55, 92
13, 305536, Note_on_c, 4, 61, 95
13, 305761, Note_on_c, 4, 67, 0
13, 305775, Note_on_c, 4, 55, 0
13, 305776, Note_on_c, 4, 61, 0
13, 308644, Note_on_c, 4, 67, 91
13, 308644, Note_on_c, 4, 55, 97
13, 308649, Note_on_c, 4, 61, 110
13, 308764, Note_on_c, 4, 67, 0
13, 308764, Note_on_c, 4, 55, 0
13, 308769, Note_on_c, 4, 61, 0
13, 308892, Note_on_c, 4, 67, 97
13, 308894, Note_on_c, 4, 55, 103
13, 308899, Note_on_c, 4, 61, 96
13, 309012, Note_on_c, 4, 67, 0
13, 309014, Note_on_c, 4, 55, 0
13, 309019, Note_on_c, 4, 61, 0
13, 309125, Note_on_c, 4, 61, 93
13, 309138, Note_on_c, 4, 67, 92
13, 309140, Note_on_c, 4, 55, 111
13, 309245, Note_on_c, 4, 61, 0
13, 309258, Note_on_c, 4, 67, 0
13, 309260, Note_on_c, 4, 55, 0
13, 309367, Note_on_c, 4, 55, 100
13, 309368, Note_on_c, 4, 67, 100
13, 309370, Note_on_c, 4, 61, 111
13, 309487, Note_on_c, 4, 55, 0
13, 309488, Note_on_c, 4, 67, 0
13, 309490, Note_on_c, 4, 61, 0
13, 309603, Note_on_c, 4, 61, 108
13, 309620, Note_on_c, 4, 67, 96
13, 309624, Note_on_c, 4, 55, 94
13, 309723, Note_on_c, 4, 61, 0
13, 309740, Note_on_c, 4, 67, 0
13, 309744, Note_on_c, 4, 55, 0
13, 309843, Note_on_c, 4, 61, 100
13, 309853, Note_on_c, 4, 55, 98
13, 309864, Note_on_c, 4, 67, 96
13, 309963, Note_on_c, 4, 61, 0
13, 309973, Note_on_c, 4, 55, 0
13, 309984, Note_on_c, 4, 67, 0
13, 310087, Note_on_c, 4, 61, 98
13, 310092, Note_on_c, 4, 55, 97
13, 310105, Note_on_c, 4, 67, 95
13, 310207, Note_on_c, 4, 61, 0
13, 310212, Note_on_c, 4, 55, 0
13, 310225, Note_on_c, 4, 67, 0
13, 310322, Note_on_c, 4, 61, 107
13, 310324, Note_on_c, 4, 55, 111
13, 310330, Note_on_c, 4, 67, 99
13, 310442, Note_on_c, 4, 61, 0
13, 310444, Note_on_c, 4, 55, 0
13, 310450, Note_on_c, 4, 67, 0
13, 310569, Note_on_c, 4, 55, 97
13, 310570, Note_on_c, 4, 67, 91
13, 310571, Note_on_c, 4, 61, 91
13, 310689, Note_on_c, 4, 55, 0
13, 310690, Note_on_c, 4, 67, 0
13, 310691, Note_on_c, 4, 61, 0
13, 310800, Note_on_c, 4, 55, 91
13, 310820, Note_on_c, 4, 61, 104
13, 310822, Note_on_c, 4, 67, 93
13, 310920, Note_on_c, 4, 55, 0
13, 310940, Note_on_c, 4, 61, 0
13, 310942, Note_on_c, 4, 67, 0
13, 311055, Note_on_c, 4, 67, 106
13, 311058, Note_on_c, 4, 61, 105
13, 311063, Note_on_c, 4, 55, 95
13, 311295, Note_on_c, 4, 67, 0
13, 311298, Note_on_c, 4, 61, 0
13, 311303, Note_on_c, 4, 55, 0
13, 324729, Note_on_c, 4, 45, 111
13, 324729, Note_on_c, 4, 57, 106
13, 324729, Note_on_c, 4, 33, 104
13, 325445, Note_on_c, 4, 64, 120
13, 325449, Note_on_c, 4, 45, 0
13, 325449, Note_on_c, 4, 57, 0
13, 325449, Note_on_c, 4, 33, 0
13, 325449, Note_on_c, 4, 40, 122
13, 325464, Note_on_c, 4, 52, 106
13, 326165, Note_on_c, 4, 64, 0
13, 326169, Note_on_c, 4, 40, 0
13, 326172, Note_on_c, 4, 47, 104
13, 326173, Note_on_c, 4, 35, 116
13, 326184, Note_on_c, 4, 52, 0
13, 326184, Note_on_c, 4, 59, 107
13, 326652, Note_on_c, 4, 47, 0
13, 326653, Note_on_c, 4, 35, 0
13, 326664, Note_on_c, 4, 59, 0
13, 328320, Note_on_c, 4, 32, 108
13, 328326, Note_on_c, 4, 56, 110
13, 328336, Note_on_c, 4, 44, 114
13, 328391, Note_on_c, 4, 32, 0
13, 328397, Note_on_c, 4, 56, 0
13, 328407, Note_on_c, 4, 44, 0
13, 339847, Note_on_c, 4, 48, 92
13, 339857, Note_on_c, 4, 36, 103
13, 339990, Note_on_c, 4, 48, 0
13, 340000, Note_on_c, 4, 36, 0
13, 346089, Note_on_c, 4, 36, 87
13, 346098, Note_on_c, 4, 48, 91
13, 346232, Note_on_c, 4, 36, 0
13, 346241, Note_on_c, 4, 48, 0
13, 348015, Note_on_c, 4, 48, 91
13, 348024, Note_on_c, 4, 36, 97
13, 348158, Note_on_c, 4, 48, 0
13, 348167, Note_on_c, 4, 36, 0
13, 348495, Note_on_c, 4, 36, 95
13, 348502, Note_on_c, 4, 48, 91
13, 348638, Note_on_c, 4, 36, 0
13, 348645, Note_on_c, 4, 48, 0
13, 352329, Note_on_c, 4, 48, 85
13, 352335, Note_on_c, 4, 36, 92
13, 352472, Note_on_c, 4, 48, 0
13, 352478, Note_on_c, 4, 36, 0
13, 354257, Note_on_c, 4, 48, 102
13, 354259, Note_on_c, 4, 36, 99
13, 354400, Note_on_c, 4, 48, 0
13, 354402, Note_on_c, 4, 36, 0
13, 355206, Note_on_c, 4, 48, 95
13, 355208, Note_on_c, 4, 36, 99
13, 355349, Note_on_c, 4, 48, 0
13, 355351, Note_on_c, 4, 36, 0
13, 357124, Note_on_c, 4, 36, 98
13, 357133, Note_on_c, 4, 48, 97
13, 357267, Note_on_c, 4, 36, 0
13, 357276, Note_on_c, 4, 48, 0
13, 358080, Note_on_c, 4, 48, 91
13, 358095, Note_on_c, 4, 36, 94
13, 358223, Note_on_c, 4, 48, 0
13, 358238, Note_on_c, 4, 36, 0
13, 378728, Note_on_c, 4, 27, 72
13, 378738, Note_on_c, 4, 34, 78
13, 378739, Note_on_c, 4, 39, 78
13, 378744, Note_on_c, 4, 46, 74
13, 379208, Note_on_c, 4, 27, 0
13, 379218, Note_on_c, 4, 34, 0
13, 379219, Note_on_c, 4, 39, 0
13, 379224, Note_on_c, 4, 46, 0
13, 380645, Note_on_c, 4, 39, 77
13, 380648, Note_on_c, 4, 34, 70
13, 380654, Note_on_c, 4, 27, 75
13, 380654, Note_on_c, 4, 46, 74
13, 381125, Note_on_c, 4, 39, 0
13, 381128, Note_on_c, 4, 34, 0
13, 381134, Note_on_c, 4, 27, 0
13, 381134, Note_on_c, 4, 46, 0
13, 382561, Note_on_c, 4, 27, 74
13, 382568, Note_on_c, 4, 34, 69
13, 382575, Note_on_c, 4, 39, 79
13, 382581, Note_on_c, 4, 46, 76
13, 383041, Note_on_c, 4, 27, 0
13, 383048, Note_on_c, 4, 34, 0
13, 383055, Note_on_c, 4, 39, 0
13, 383061, Note_on_c, 4, 46, 0
13, 384483, Note_on_c, 4, 27, 83
13, 384484, Note_on_c, 4, 39, 84
13, 384503, Note_on_c, 4, 46, 79
13, 384503, Note_on_c, 4, 34, 77
13, 384723, Note_on_c, 4, 27, 0
13, 384724, Note_on_c, 4, 39, 0
13, 384743, Note_on_c, 4, 46, 0
13, 384743, Note_on_c, 4, 34, 0
13, 384743, Note_on_c, 4, 53, 69
13, 384980, Note_on_c, 4, 55, 70
13, 384983, Note_on_c, 4, 53, 0
13, 385148, Note_on_c, 4, 55, 0
13, 385170, Note_on_c, 4, 55, 65
13, 385207, Note_on_c, 4, 58, 69
13, 385260, Note_on_c, 4, 55, 0
13, 385375, Note_on_c, 4, 58, 0
13, 385410, Note_on_c, 4, 58, 85
13, 385441, Note_on_c, 4, 56, 76
13, 385500, Note_on_c, 4, 58, 0
13, 385681, Note_on_c, 4, 56, 0
13, 385685, Note_on_c, 4, 55, 66
13, 385925, Note_on_c, 4, 55, 0
13, 385944, Note_on_c, 4, 53, 85
13, 386130, Note_on_c, 4, 49, 77
13, 386154, Note_on_c, 4, 53, 0
13, 386177, Note_on_c, 4, 51, 71
13, 386220, Note_on_c, 4, 49, 0
13, 386407, Note_on_c, 4, 39, 85
13, 386410, Note_on_c, 4, 27, 72
13, 386413, Note_on_c, 4, 46, 65
13, 386417, Note_on_c, 4, 51, 0
13, 386424, Note_on_c, 4, 34, 65
13, 386887, Note_on_c, 4, 39, 0
13, 386890, Note_on_c, 4, 27, 0
13, 386893, Note_on_c, 4, 46, 0
13, 386904, Note_on_c, 4, 34, 0
13, 388320, Note_on_c, 4, 46, 69
13, 388330, Note_on_c, 4, 27, 84
13, 388340, Note_on_c, 4, 39, 85
13, 388345, Note_on_c, 4, 34, 69
13, 388800, Note_on_c, 4, 46, 0
13, 388810, Note_on_c, 4, 27, 0
13, 388820, Note_on_c, 4, 39, 0
13, 388825, Note_on_c, 4, 34, 0
13, 390498, Note_on_c, 4, 53, 72
13, 390733, Note_on_c, 4, 55, 68
13, 390738, Note_on_c, 4, 53, 0
13, 390903, Note_on_c, 4, 55, 0
13, 390930, Note_on_c, 4, 55, 80
13, 390964, Note_on_c, 4, 58, 80
13, 390997, Note_on_c, 4, 55, 0
13, 391153, Note_on_c, 4, 58, 0
13, 391170, Note_on_c, 4, 58, 85
13, 391201, Note_on_c, 4, 56, 66
13, 391237, Note_on_c, 4, 58, 0
13, 391441, Note_on_c, 4, 56, 0
13, 391451, Note_on_c, 4, 55, 73
13, 391691, Note_on_c, 4, 55, 0
13, 391698, Note_on_c, 4, 53, 72
13, 391890, Note_on_c, 4, 49, 83
13, 391908, Note_on_c, 4, 53, 0
13, 391933, Note_on_c, 4, 51, 77
13, 391957, Note_on_c, 4, 49, 0
13, 392173, Note_on_c, 4, 51, 0
13, 393602, Note_on_c, 4, 27, 69
13, 393604, Note_on_c, 4, 39, 71
13, 393615, Note_on_c, 4, 46, 75
13, 393625, Note_on_c, 4, 34, 82
13, 394082, Note_on_c, 4, 27, 0
13, 394084, Note_on_c, 4, 39, 0
13, 394095, Note_on_c, 4, 46, 0
13, 394105, Note_on_c, 4, 34, 0
13, 395522, Note_on_c, 4, 27, 85
13, 395532, Note_on_c, 4, 34, 78
13, 395532, Note_on_c, 4, 39, 73
13, 395536, Note_on_c, 4, 46, 74
13, 396002, Note_on_c, 4, 27, 0
13, 396012, Note_on_c, 4, 34, 0
13, 396012, Note_on_c, 4, 39, 0
13, 396016, Note_on_c, 4, 46, 0
13, 397447, Note_on_c, 4, 34, 73
13, 397450, Note_on_c, 4, 46, 66
13, 397452, Note_on_c, 4, 27, 82
13, 397455, Note_on_c, 4, 39, 68
13, 397927, Note_on_c, 4, 34, 0
13, 397930, Note_on_c, 4, 46, 0
13, 397932, Note_on_c, 4, 27, 0
13, 397935, Note_on_c, 4, 39, 0
13, 399361, Note_on_c, 4, 27, 79
13, 399370, Note_on_c, 4, 34, 69
13, 399370, Note_on_c, 4, 39, 71
13, 399382, Note_on_c, 4, 46, 81
13, 399841, Note_on_c, 4, 27, 0
13, 399850, Note_on_c, 4, 34, 0
13, 399850, Note_on_c, 4, 39, 0
13, 399862, Note_on_c, 4, 46, 0
13, 401281, Note_on_c, 4, 34, 74
13, 401290, Note_on_c, 4, 39, 83
13, 401291, Note_on_c, 4, 27, 76
13, 401293, Note_on_c, 4, 46, 75
13, 401761, Note_on_c, 4, 34, 0
13, 401770, Note_on_c, 4, 39, 0
13, 401771, Note_on_c, 4, 27, 0
13, 401773, Note_on_c, 4, 46, 0
13, 403202, Note_on_c, 4, 46, 78
13, 403215, Note_on_c, 4, 27, 69
13, 403216, Note_on_c, 4, 39, 73
13, 403219, Note_on_c, 4, 34, 76
13, 403682, Note_on_c, 4, 46, 0
13, 403695, Note_on_c, 4, 27, 0
13, 403696, Note_on_c, 4, 39, 0
13, 403699, Note_on_c, 4, 34, 0
13, 405123, Note_on_c, 4, 27, 77
13, 405127, Note_on_c, 4, 46, 83
13, 405139, Note_on_c, 4, 39, 79
13, 405140, Note_on_c, 4, 34, 79
13, 405603, Note_on_c, 4, 27, 0
13, 405607, Note_on_c, 4, 46, 0
13, 405619, Note_on_c, 4, 39, 0
13, 405620, Note_on_c, 4, 34, 0
13, 407041, Note_on_c, 4, 34, 65
13, 407047, Note_on_c, 4, 27, 69
13, 407049, Note_on_c, 4, 46, 81
13, 407051, Note_on_c, 4, 39, 76
13, 407521, Note_on_c, 4, 34, 0
13, 407527, Note_on_c, 4, 27, 0
13, 407529, Note_on_c, 4, 46, 0
13, 407531, Note_on_c, 4, 39, 0
13, 408960, Note_on_c, 4, 39, 72
13, 408962, Note_on_c, 4, 46, 71
13, 408973, Note_on_c, 4, 34, 66
13, 408976, Note_on_c, 4, 27, 85
13, 409440, Note_on_c, 4, 39, 0
13, 409442, Note_on_c, 4, 46, 0
13, 409453, Note_on_c, 4, 34, 0
13, 409456, Note_on_c, 4, 27, 0
13, 410889, Note_on_c, 4, 34, 69
13, 410895, Note_on_c, 4, 39, 78
13, 410895, Note_on_c, 4, 27, 66
13, 410900, Note_on_c, 4, 46, 71
13, 411369, Note_on_c, 4, 34, 0
13, 411375, Note_on_c, 4, 39, 0
13, 411375, Note_on_c, 4, 27, 0
13, 411380, Note_on_c, 4, 46, 0
13, 412803, Note_on_c, 4, 46, 68
13, 412818, Note_on_c, 4, 27, 74
13, 412825, Note_on_c, 4, 39, 71
13, 412825, Note_on_c, 4, 34, 73
13, 413283, Note_on_c, 4, 46, 0
13, 413298, Note_on_c, 4, 27, 0
13, 413305, Note_on_c, 4, 39, 0
13, 413305, Note_on_c, 4, 34, 0
13, 415684, Note_on_c, 4, 34, 66
13, 415688, Note_on_c, 4, 46, 76
13, 415694, Note_on_c, 4, 27, 66
13, 415701, Note_on_c, 4, 39, 74
13, 416164, Note_on_c, 4, 34, 0
13, 416168, Note_on_c, 4, 46, 0
13, 416174, Note_on_c, 4, 27, 0
13, 416181, Note_on_c, 4, 39, 0
13, 417601, Note_on_c, 4, 34, 76
13, 417604, Note_on_c, 4, 39, 73
13, 417608, Note_on_c, 4, 46, 65
13, 417624, Note_on_c, 4, 27, 69
13, 418081, Note_on_c, 4, 34, 0
13, 418084, Note_on_c, 4, 39, 0
13, 418088, Note_on_c, 4, 46, 0
13, 418104, Note_on_c, 4, 27, 0
13, 419525, Note_on_c, 4, 34, 74
13, 419533, Note_on_c, 4, 27, 80
13, 419537, Note_on_c, 4, 39, 82
13, 419541, Note_on_c, 4, 46, 84
13, 419765, Note_on_c, 4, 34, 0
13, 419773, Note_on_c, 4, 27, 0
13, 419774, Note_on_c, 4, 53, 74
13, 419777, Note_on_c, 4, 39, 0
13, 419781, Note_on_c, 4, 46, 0
13, 420000, Note_on_c, 4, 55, 82
13, 420014, Note_on_c, 4, 53, 0
13, 420189, Note_on_c, 4, 55, 0
13, 420210, Note_on_c, 4, 55, 76
13, 420242, Note_on_c, 4, 58, 80
13, 420242, Note_on_c, 4, 58, 80
13, 420255, Note_on_c, 4, 55, 0
13, 420431, Note_on_c, 4, 58, 0
13, 420431, Note_on_c, 4, 58, 0
13, 420450, Note_on_c, 4, 58, 68
13, 420485, Note_on_c, 4, 56, 66
13, 420495, Note_on_c, 4, 58, 0
13, 420725, Note_on_c, 4, 56, 0
13, 420744, Note_on_c, 4, 55, 67
13, 420974, Note_on_c, 4, 53, 83
13, 420984, Note_on_c, 4, 55, 0
13, 421170, Note_on_c, 4, 49, 65
13, 421184, Note_on_c, 4, 53, 0
13, 421207, Note_on_c, 4, 51, 84
13, 421215, Note_on_c, 4, 49, 0
13, 421445, Note_on_c, 4, 53, 84
13, 421447, Note_on_c, 4, 51, 0
13, 421454, Note_on_c, 4, 39, 67
13, 421454, Note_on_c, 4, 46, 72
13, 421454, Note_on_c, 4, 27, 72
13, 421460, Note_on_c, 4, 34, 71
13, 421685, Note_on_c, 4, 53, 0
13, 421934, Note_on_c, 4, 39, 0
13, 421934, Note_on_c, 4, 46, 0
13, 421934, Note_on_c, 4, 27, 0
13, 421940, Note_on_c, 4, 34, 0
13, 423361, Note_on_c, 4, 46, 69
13, 423372, Note_on_c, 4, 34, 65
13, 423378, Note_on_c, 4, 39, 75
13, 423381, Note_on_c, 4, 27, 83
13, 423601, Note_on_c, 4, 46, 0
13, 423612, Note_on_c, 4, 34, 0
13, 423618, Note_on_c, 4, 39, 0
13, 423619, Note_on_c, 4, 53, 72
13, 423621, Note_on_c, 4, 27, 0
13, 423844, Note_on_c, 4, 55, 74
13, 423859, Note_on_c, 4, 53, 0
13, 424033, Note_on_c, 4, 55, 0
13, 424050, Note_on_c, 4, 55, 84
13, 424086, Note_on_c, 4, 58, 78
13, 424110, Note_on_c, 4, 55, 0
13, 424275, Note_on_c, 4, 58, 0
13, 424290, Note_on_c, 4, 58, 69
13, 424344, Note_on_c, 4, 56, 76
13, 424350, Note_on_c, 4, 58, 0
13, 424581, Note_on_c, 4, 55, 80
13, 424584, Note_on_c, 4, 56, 0
13, 424803, Note_on_c, 4, 53, 82
13, 424821, Note_on_c, 4, 55, 0
13, 425010, Note_on_c, 4, 49, 85
13, 425013, Note_on_c, 4, 53, 0
13, 425062, Note_on_c, 4, 51, 71
13, 425070, Note_on_c, 4, 49, 0
13, 425288, Note_on_c, 4, 53, 72
13, 425302, Note_on_c, 4, 51, 0
13, 425527, Note_on_c, 4, 55, 75
13, 425528, Note_on_c, 4, 53, 0
13, 425730, Note_on_c, 4, 58, 76
13, 425737, Note_on_c, 4, 55, 0
13, 425774, Note_on_c, 4, 56, 81
13, 425790, Note_on_c, 4, 58, 0
13, 426007, Note_on_c, 4, 55, 81
13, 426014, Note_on_c, 4, 56, 0
13, 426246, Note_on_c, 4, 53, 77
13, 426247, Note_on_c, 4, 55, 0
13, 426450, Note_on_c, 4, 49, 73
13, 426456, Note_on_c, 4, 53, 0
13, 426498, Note_on_c, 4, 51, 74
13, 426510, Note_on_c, 4, 49, 0
13, 426720, Note_on_c, 4, 46, 97
13, 426721, Note_on_c, 4, 39, 91
13, 426729, Note_on_c, 4, 27, 93
13, 426738, Note_on_c, 4, 51, 0
13, 426740, Note_on_c, 4, 34, 98
13, 427200, Note_on_c, 4, 46, 0
13, 427201, Note_on_c, 4, 39, 0
13, 427209, Note_on_c, 4, 27, 0
13, 427220, Note_on_c, 4, 34, 0
13, 427443, Note_on_c, 4, 36, 96
13, 427444, Note_on_c, 4, 29, 101
13, 427923, Note_on_c, 4, 36, 0
13, 427924, Note_on_c, 4, 29, 0
13, 427928, Note_on_c, 4, 37, 98
13, 427941, Note_on_c, 4, 30, 102
13, 428405, Note_on_c, 4, 32, 101
13, 428408, Note_on_c, 4, 37, 0
13, 428421, Note_on_c, 4, 30, 0
13, 428422, Note_on_c, 4, 39, 95
13, 428642, Note_on_c, 4, 27, 107
13, 428645, Note_on_c, 4, 32, 0
13, 428645, Note_on_c, 4, 34, 102
13, 428659, Note_on_c, 4, 46, 94
13, 428662, Note_on_c, 4, 39, 0
13, 428662, Note_on_c, 4, 39, 102
13, 429122, Note_on_c, 4, 27, 0
13, 429125, Note_on_c, 4, 34, 0
13, 429139, Note_on_c, 4, 46, 0
13, 429142, Note_on_c, 4, 39, 0
13, 429373, Note_on_c, 4, 36, 97
13, 429381, Note_on_c, 4, 29, 110
13, 429841, Note_on_c, 4, 37, 96
13, 429853, Note_on_c, 4, 36, 0
13, 429861, Note_on_c, 4, 29, 0
13, 429863, Note_on_c, 4, 30, 98
13, 430321, Note_on_c, 4, 37, 0
13, 430327, Note_on_c, 4, 39, 104
13, 430337, Note_on_c, 4, 32, 96
13, 430343, Note_on_c, 4, 30, 0
13, 430567, Note_on_c, 4, 39, 0
13, 430572, Note_on_c, 4, 39, 92
13, 430577, Note_on_c, 4, 32, 0
13, 430577, Note_on_c, 4, 27, 102
13, 430579, Note_on_c, 4, 34, 97
13, 430581, Note_on_c, 4, 46, 91
13, 431052, Note_on_c, 4, 39, 0
13, 431057, Note_on_c, 4, 27, 0
13, 431059, Note_on_c, 4, 34, 0
13, 431061, Note_on_c, 4, 46, 0
13, 431285, Note_on_c, 4, 36, 97
13, 431287, Note_on_c, 4, 29, 103
13, 431760, Note_on_c, 4, 30, 101
13, 431765, Note_on_c, 4, 36, 0
13, 431767, Note_on_c, 4, 29, 0
13, 431781, Note_on_c, 4, 37, 92
13, 432240, Note_on_c, 4, 30, 0
13, 432249, Note_on_c, 4, 39, 94
13, 432249, Note_on_c, 4, 32, 104
13, 432261, Note_on_c, 4, 37, 0
13, 432489, Note_on_c, 4, 39, 0
13, 432489, Note_on_c, 4, 32, 0
13, 432497, Note_on_c, 4, 27, 101
13, 432502, Note_on_c, 4, 34, 109
13, 432728, Note_on_c, 4, 36, 111
13, 432734, Note_on_c, 4, 29, 95
13, 432737, Note_on_c, 4, 27, 0
13, 432742, Note_on_c, 4, 34, 0
13, 433208, Note_on_c, 4, 36, 0
13, 433212, Note_on_c, 4, 30, 100
13, 433214, Note_on_c, 4, 29, 0
13, 433217, Note_on_c, 4, 37, 108
13, 433692, Note_on_c, 4, 30, 0
13, 433697, Note_on_c, 4, 37, 0
13, 433697, Note_on_c, 4, 39, 96
13, 433698, Note_on_c, 4, 32, 107
13, 434170, Note_on_c, 4, 41, 109
13, 434177, Note_on_c, 4, 39, 0
13, 434178, Note_on_c, 4, 32, 0
13, 434185, Note_on_c, 4, 34, 106
13, 434642, Note_on_c, 4, 39, 95
13, 434650, Note_on_c, 4, 41, 0
13, 434663, Note_on_c, 4, 32, 111
13, 434665, Note_on_c, 4, 34, 0
13, 434882, Note_on_c, 4, 39, 0
13, 434883, Note_on_c, 4, 39, 107
13, 434886, Note_on_c, 4, 34, 100
13, 434895, Note_on_c, 4, 27, 108
13, 434896, Note_on_c, 4, 46, 101
13, 434903, Note_on_c, 4, 32, 0
13, 435363, Note_on_c, 4, 39, 0
13, 435366, Note_on_c, 4, 34, 0
13, 435375, Note_on_c, 4, 27, 0
13, 435376, Note_on_c, 4, 46, 0
13, 435608, Note_on_c, 4, 29, 109
13, 435614, Note_on_c, 4, 36, 110
13, 436084, Note_on_c, 4, 37, 108
13, 436088, Note_on_c, 4, 29, 0
13, 436094, Note_on_c, 4, 36, 0
13, 436100, Note_on_c, 4, 30, 106
13, 436564, Note_on_c, 4, 37, 0
13, 436580, Note_on_c, 4, 30, 0
13, 436583, Note_on_c, 4, 39, 95
13, 436584, Note_on_c, 4, 32, 101
13, 436823, Note_on_c, 4, 39, 0
13, 436824, Note_on_c, 4, 32, 0
13, 437057, Note_on_c, 4, 29, 97
13, 437062, Note_on_c, 4, 36, 106
13, 437521, Note_on_c, 4, 30, 101
13, 437530, Note_on_c, 4, 37, 91
13, 437537, Note_on_c, 4, 29, 0
13, 437542, Note_on_c, 4, 36, 0
13, 438001, Note_on_c, 4, 30, 0
13, 438005, Note_on_c, 4, 32, 106
13, 438010, Note_on_c, 4, 37, 0
13, 438018, Note_on_c, 4, 39, 101
13, 438245, Note_on_c, 4, 32, 0
13, 438247, Note_on_c, 4, 34, 104
13, 438250, Note_on_c, 4, 27, 111
13, 438251, Note_on_c, 4, 39, 111
13, 438258, Note_on_c, 4, 39, 0
13, 438260, Note_on_c, 4, 46, 108
13, 438727, Note_on_c, 4, 34, 0
13, 438730, Note_on_c, 4, 27, 0
13, 438731, Note_on_c, 4, 39, 0
13, 438740, Note_on_c, 4, 46, 0
13, 438967, Note_on_c, 4, 29, 97
13, 438982, Note_on_c, 4, 36, 107
13, 439447, Note_on_c, 4, 29, 0
13, 439462, Note_on_c, 4, 36, 0
13, 439463, Note_on_c, 4, 30, 93
13, 439465, Note_on_c, 4, 37, 107
13, 439930, Note_on_c, 4, 39, 107
13, 439939, Note_on_c, 4, 32, 105
13, 439943, Note_on_c, 4, 30, 0
13, 439945, Note_on_c, 4, 37, 0
13, 440170, Note_on_c, 4, 39, 0
13, 440175, Note_on_c, 4, 27, 102
13, 440179, Note_on_c, 4, 32, 0
13, 440181, Note_on_c, 4, 34, 105
13, 440184, Note_on_c, 4, 39, 107
13, 440185, Note_on_c, 4, 46, 106
13, 440655, Note_on_c, 4, 27, 0
13, 440661, Note_on_c, 4, 34, 0
13, 440664, Note_on_c, 4, 39, 0
13, 440665, Note_on_c, 4, 46, 0
13, 440885, Note_on_c, 4, 36, 95
13, 440886, Note_on_c, 4, 29, 102
13, 441365, Note_on_c, 4, 36, 0
13, 441366, Note_on_c, 4, 29, 0
13, 441373, Note_on_c, 4, 37, 105
13, 441381, Note_on_c, 4, 30, 96
13, 441853, Note_on_c, 4, 37, 0
13, 441861, Note_on_c, 4, 30, 0
13, 441861, Note_on_c, 4, 32, 104
13, 441865, Note_on_c, 4, 39, 102
13, 442101, Note_on_c, 4, 32, 0
13, 442105, Note_on_c, 4, 39, 0
13, 442329, Note_on_c, 4, 36, 111
13, 442329, Note_on_c, 4, 29, 106
13, 442804, Note_on_c, 4, 37, 105
13, 442809, Note_on_c, 4, 36, 0
13, 442809, Note_on_c, 4, 29, 0
13, 442814, Note_on_c, 4, 30, 101
13, 443283, Note_on_c, 4, 39, 93
13, 443284, Note_on_c, 4, 37, 0
13, 443294, Note_on_c, 4, 30, 0
13, 443303, Note_on_c, 4, 32, 107
13, 443523, Note_on_c, 4, 39, 0
13, 443527, Note_on_c, 4, 27, 107
13, 443528, Note_on_c, 4, 46, 99
13, 443532, Note_on_c, 4, 39, 102
13, 443535, Note_on_c, 4, 34, 100
13, 443543, Note_on_c, 4, 32, 0
13, 444007, Note_on_c, 4, 27, 0
13, 444008, Note_on_c, 4, 46, 0
13, 444012, Note_on_c, 4, 39, 0
13, 444015, Note_on_c, 4, 34, 0
13, 444243, Note_on_c, 4, 29, 97
13, 444252, Note_on_c, 4, 36, 107
13, 444723, Note_on_c, 4, 29, 0
13, 444725, Note_on_c, 4, 37, 91
13, 444728, Note_on_c, 4, 30, 99
13, 444732, Note_on_c, 4, 36, 0
13, 445200, Note_on_c, 4, 39, 99
13, 445205, Note_on_c, 4, 37, 0
13, 445205, Note_on_c, 4, 32, 98
13, 445208, Note_on_c, 4, 30, 0
13, 445440, Note_on_c, 4, 39, 0
13, 445445, Note_on_c, 4, 32, 0
13, 445449, Note_on_c, 4, 39, 98
13, 445453, Note_on_c, 4, 32, 98
13, 445462, Note_on_c, 4, 44, 98
13, 445920, Note_on_c, 4, 44, 105
13, 445920, Note_on_c, 4, 37, 110
13, 445928, Note_on_c, 4, 49, 111
13, 445929, Note_on_c, 4, 39, 0
13, 445933, Note_on_c, 4, 32, 0
13, 445936, Note_on_c, 4, 37, 95
13, 445942, Note_on_c, 4, 44, 0
13, 446400, Note_on_c, 4, 44, 0
13, 446400, Note_on_c, 4, 37, 0
13, 446400, Note_on_c, 4, 45, 111
13, 446400, Note_on_c, 4, 52, 101
13, 446406, Note_on_c, 4, 40, 108
13, 446408, Note_on_c, 4, 49, 0
13, 446416, Note_on_c, 4, 37, 0
13, 446417, Note_on_c, 4, 40, 95
13, 447360, Note_on_c, 4, 45, 0
13, 447360, Note_on_c, 4, 52, 0
13, 447366, Note_on_c, 4, 40, 0
13, 447377, Note_on_c, 4, 40, 0
13, 448802, Note_on_c, 4, 52, 105
13, 448805, Note_on_c, 4, 49, 95
13, 448821, Note_on_c, 4, 55, 112
13, 448825, Note_on_c, 4, 43, 102
13, 448945, Note_on_c, 4, 52, 0
13, 448948, Note_on_c, 4, 49, 0
13, 448964, Note_on_c, 4, 55, 0
13, 448968, Note_on_c, 4, 43, 0
13, 455041, Note_on_c, 4, 49, 113
13, 455058, Note_on_c, 4, 55, 103
13, 455059, Note_on_c, 4, 52, 115
13, 455062, Note_on_c, 4, 43, 98
13, 455184, Note_on_c, 4, 49, 0
13, 455201, Note_on_c, 4, 55, 0
13, 455202, Note_on_c, 4, 52, 0
13, 455205, Note_on_c, 4, 43, 0
13, 455521, Note_on_c, 4, 52, 113
13, 455525, Note_on_c, 4, 49, 115
13, 455534, Note_on_c, 4, 55, 112
13, 455544, Note_on_c, 4, 43, 96
13, 455664, Note_on_c, 4, 52, 0
13, 455668, Note_on_c, 4, 49, 0
13, 455677, Note_on_c, 4, 55, 0
13, 455687, Note_on_c, 4, 43, 0
13, 457920, Note_on_c, 4, 52, 109
13, 457925, Note_on_c, 4, 40, 103
13, 457929, Note_on_c, 4, 40, 105
13, 458400, Note_on_c, 4, 52, 0
13, 458405, Note_on_c, 4, 40, 0
13, 458409, Note_on_c, 4, 40, 0
13, 458895, Note_on_c, 4, 53, 97
13, 458901, Note_on_c, 4, 41, 103
13, 458902, Note_on_c, 4, 41, 106
13, 459375, Note_on_c, 4, 53, 0
13, 459381, Note_on_c, 4, 41, 0
13, 459382, Note_on_c, 4, 41, 0
13, 459846, Note_on_c, 4, 40, 105
13, 459863, Note_on_c, 4, 40, 101
13, 459865, Note_on_c, 4, 52, 93
13, 460326, Note_on_c, 4, 40, 0
13, 460343, Note_on_c, 4, 40, 0
13, 460345, Note_on_c, 4, 52, 0
13, 460808, Note_on_c, 4, 41, 96
13, 460818, Note_on_c, 4, 53, 93
13, 460822, Note_on_c, 4, 41, 98
13, 461288, Note_on_c, 4, 41, 0
13, 461298, Note_on_c, 4, 53, 0
13, 461302, Note_on_c, 4, 41, 0
13, 461761, Note_on_c, 4, 49, 105
13, 461781, Note_on_c, 4, 55, 106
13, 461784, Note_on_c, 4, 52, 105
13, 461784, Note_on_c, 4, 43, 111
13, 461904, Note_on_c, 4, 49, 0
13, 461924, Note_on_c, 4, 55, 0
13, 461927, Note_on_c, 4, 52, 0
13, 461927, Note_on_c, 4, 43, 0
13, 466081, Note_on_c, 4, 52, 98
13, 466089, Note_on_c, 4, 55, 112
13, 466093, Note_on_c, 4, 43, 101
13, 466101, Note_on_c, 4, 49, 113
13, 466224, Note_on_c, 4, 52, 0
13, 466232, Note_on_c, 4, 55, 0
13, 466236, Note_on_c, 4, 43, 0
13, 466244, Note_on_c, 4, 49, 0
13, 466567, Note_on_c, 4, 43, 112
13, 466568, Note_on_c, 4, 55, 115
13, 466576, Note_on_c, 4, 49, 98
13, 466576, Note_on_c, 4, 52, 98
13, 466710, Note_on_c, 4, 43, 0
13, 466711, Note_on_c, 4, 55, 0
13, 466719, Note_on_c, 4, 49, 0
13, 466719, Note_on_c, 4, 52, 0
13, 468961, Note_on_c, 4, 49, 98
13, 468971, Note_on_c, 4, 43, 114
13, 468971, Note_on_c, 4, 55, 103
13, 468980, Note_on_c, 4, 52, 95
13, 469104, Note_on_c, 4, 49, 0
13, 469114, Note_on_c, 4, 43, 0
13, 469114, Note_on_c, 4, 55, 0
13, 469123, Note_on_c, 4, 52, 0
13, 493926, Note_on_c, 4, 42, 88
13, 493929, Note_on_c, 4, 36, 84
13, 493935, Note_on_c, 4, 48, 93
13, 494286, Note_on_c, 4, 42, 0
13, 494289, Note_on_c, 4, 36, 0
13, 494295, Note_on_c, 4, 48, 0
13, 494418, Note_on_c, 4, 36, 84
13, 494420, Note_on_c, 4, 48, 91
13, 494421, Note_on_c, 4, 42, 93
13, 494538, Note_on_c, 4, 36, 0
13, 494540, Note_on_c, 4, 48, 0
13, 494541, Note_on_c, 4, 42, 0
13, 494652, Note_on_c, 4, 48, 79
13, 494654, Note_on_c, 4, 42, 86
13, 494654, Note_on_c, 4, 36, 96
13, 494772, Note_on_c, 4, 48, 0
13, 494774, Note_on_c, 4, 42, 0
13, 494774, Note_on_c, 4, 36, 0
13, 494887, Note_on_c, 4, 48, 78
13, 494901, Note_on_c, 4, 42, 94
13, 494905, Note_on_c, 4, 36, 87
13, 495007, Note_on_c, 4, 48, 0
13, 495021, Note_on_c, 4, 42, 0
13, 495025, Note_on_c, 4, 36, 0
13, 495129, Note_on_c, 4, 42, 94
13, 495133, Note_on_c, 4, 36, 96
13, 495145, Note_on_c, 4, 48, 85
13, 495249, Note_on_c, 4, 42, 0
13, 495253, Note_on_c, 4, 36, 0
13, 495265, Note_on_c, 4, 48, 0
13, 495373, Note_on_c, 4, 36, 94
13, 495374, Note_on_c, 4, 42, 95
13, 495377, Note_on_c, 4, 48, 78
13, 495493, Note_on_c, 4, 36, 0
13, 495494, Note_on_c, 4, 42, 0
13, 495497, Note_on_c, 4, 48, 0
13, 495604, Note_on_c, 4, 36, 96
13, 495619, Note_on_c, 4, 42, 88
13, 495623, Note_on_c, 4, 48, 84
13, 495724, Note_on_c, 4, 36, 0
13, 495739, Note_on_c, 4, 42, 0
13, 495743, Note_on_c, 4, 48, 0
13, 495846, Note_on_c, 4, 36, 87
13, 495849, Note_on_c, 4, 42, 87
13, 495850, Note_on_c, 4, 48, 97
13, 495966, Note_on_c, 4, 36, 0
13, 495969, Note_on_c, 4, 42, 0
13, 495970, Note_on_c, 4, 48, 0
13, 496086, Note_on_c, 4, 48, 88
13, 496087, Note_on_c, 4, 36, 78
13, 496092, Note_on_c, 4, 42, 84
13, 496206, Note_on_c, 4, 48, 0
13, 496207, Note_on_c, 4, 36, 0
13, 496212, Note_on_c, 4, 42, 0
13, 496337, Note_on_c, 4, 42, 85
13, 496339, Note_on_c, 4, 48, 87
13, 496342, Note_on_c, 4, 36, 92
13, 496457, Note_on_c, 4, 42, 0
13, 496459, Note_on_c, 4, 48, 0
13, 496462, Note_on_c, 4, 36, 0
13, 496571, Note_on_c, 4, 36, 87
13, 496577, Note_on_c, 4, 42, 85
13, 496579, Note_on_c, 4, 48, 98
13, 496691, Note_on_c, 4, 36, 0
13, 496697, Note_on_c, 4, 42, 0
13, 496699, Note_on_c, 4, 48, 0
13, 496811, Note_on_c, 4, 42, 92
13, 496814, Note_on_c, 4, 48, 81
13, 496821, Note_on_c, 4, 36, 88
13, 496931, Note_on_c, 4, 42, 0
13, 496934, Note_on_c, 4, 48, 0
13, 496941, Note_on_c, 4, 36, 0
13, 497048, Note_on_c, 4, 42, 81
13, 497052, Note_on_c, 4, 36, 84
13, 497055, Note_on_c, 4, 48, 84
13, 497168, Note_on_c, 4, 42, 0
13, 497172, Note_on_c, 4, 36, 0
13, 497175, Note_on_c, 4, 48, 0
13, 498259, Note_on_c, 4, 30, 107
13, 499219, Note_on_c, 4, 30, 0
13, 499687, Note_on_c, 4, 30, 97
13, 500647, Note_on_c, 4, 30, 0
13, 500649, Note_on_c, 4, 42, 98
13, 500662, Note_on_c, 4, 36, 94
13, 500665, Note_on_c, 4, 48, 83
13, 501009, Note_on_c, 4, 42, 0
13, 501022, Note_on_c, 4, 36, 0
13, 501025, Note_on_c, 4, 48, 0
13, 501133, Note_on_c, 4, 42, 86
13, 501142, Note_on_c, 4, 48, 95
13, 501143, Note_on_c, 4, 36, 93
13, 501253, Note_on_c, 4, 42, 0
13, 501262, Note_on_c, 4, 48, 0
13, 501263, Note_on_c, 4, 36, 0
13, 501363, Note_on_c, 4, 36, 87
13, 501379, Note_on_c, 4, 42, 93
13, 501385, Note_on_c, 4, 48, 80
13, 501483, Note_on_c, 4, 36, 0
13, 501499, Note_on_c, 4, 42, 0
13, 501505, Note_on_c, 4, 48, 0
13, 501601, Note_on_c, 4, 48, 95
13, 501609, Note_on_c, 4, 42, 79
13, 501624, Note_on_c, 4, 36, 92
13, 501721, Note_on_c, 4, 48, 0
13, 501729, Note_on_c, 4, 42, 0
13, 501744, Note_on_c, 4, 36, 0
13, 501858, Note_on_c, 4, 48, 91
13, 501864, Note_on_c, 4, 42, 79
13, 501864, Note_on_c, 4, 36, 79
13, 501978, Note_on_c, 4, 48, 0
13, 501984, Note_on_c, 4, 42, 0
13, 501984, Note_on_c, 4, 36, 0
13, 502098, Note_on_c, 4, 42, 93
13, 502103, Note_on_c, 4, 48, 79
13, 502105, Note_on_c, 4, 36, 95
13, 502218, Note_on_c, 4, 42, 0
13, 502223, Note_on_c, 4, 48, 0
13, 502225, Note_on_c, 4, 36, 0
13, 502336, Note_on_c, 4, 36, 89
13, 502344, Note_on_c, 4, 42, 86
13, 502345, Note_on_c, 4, 48, 91
13, 502456, Note_on_c, 4, 36, 0
13, 502464, Note_on_c, 4, 42, 0
13, 502465, Note_on_c, 4, 48, 0
13, 502563, Note_on_c, 4, 36, 87
13, 502563, Note_on_c, 4, 48, 87
13, 502577, Note_on_c, 4, 42, 92
13, 502683, Note_on_c, 4, 36, 0
13, 502683, Note_on_c, 4, 48, 0
13, 502697, Note_on_c, 4, 42, 0
13, 502800, Note_on_c, 4, 42, 85
13, 502815, Note_on_c, 4, 36, 81
13, 502825, Note_on_c, 4, 48, 92
13, 502920, Note_on_c, 4, 42, 0
13, 502935, Note_on_c, 4, 36, 0
13, 502945, Note_on_c, 4, 48, 0
13, 503042, Note_on_c, 4, 42, 81
13, 503048, Note_on_c, 4, 48, 81
13, 503054, Note_on_c, 4, 36, 92
13, 503162, Note_on_c, 4, 42, 0
13, 503168, Note_on_c, 4, 48, 0
13, 503174, Note_on_c, 4, 36, 0
13, 503292, Note_on_c, 4, 42, 94
13, 503294, Note_on_c, 4, 48, 98
13, 503294, Note_on_c, 4, 36, 98
13, 503412, Note_on_c, 4, 42, 0
13, 503414, Note_on_c, 4, 48, 0
13, 503414, Note_on_c, 4, 36, 0
13, 504483, Note_on_c, 4, 30, 108
13, 505443, Note_on_c, 4, 30, 0
13, 505931, Note_on_c, 4, 30, 97
13, 506891, Note_on_c, 4, 30, 0
13, 507853, Note_on_c, 4, 30, 105
13, 508813, Note_on_c, 4, 30, 0
13, 509713, Control_c, 4, 11, 127
13, 509720, Control_c, 4, 11, 126
13, 509726, Control_c, 4, 11, 125
13, 509731, Control_c, 4, 11, 124
13, 509738, Control_c, 4, 11, 123
13, 509744, Control_c, 4, 11, 122
13, 509750, Control_c, 4, 11, 121
13, 509756, Control_c, 4, 11, 120
13, 509762, Control_c, 4, 11, 119
13, 509768, Control_c, 4, 11, 118
13, 509774, Control_c, 4, 11, 117
13, 509777, Note_on_c, 4, 40, 115
13, 509780, Control_c, 4, 11, 116
13, 509786, Control_c, 4, 11, 115
13, 509792, Control_c, 4, 11, 114
13, 509798, Control_c, 4, 11, 113
13, 509805, Control_c, 4, 11, 112
13, 509810, Control_c, 4, 11, 111
13, 509816, Control_c, 4, 11, 110
13, 509823, Control_c, 4, 11, 109
13, 509829, Control_c, 4, 11, 108
13, 509835, Control_c, 4, 11, 107
13, 509841, Control_c, 4, 11, 106
13, 509847, Control_c, 4, 11, 105
13, 509853, Control_c, 4, 11, 104
13, 509859, Control_c, 4, 11, 103
13, 509865, Control_c, 4, 11, 102
13, 509871, Control_c, 4, 11, 101
13, 509878, Control_c, 4, 11, 100
13, 509883, Control_c, 4, 11, 99
13, 509889, Control_c, 4, 11, 98
13, 509895, Control_c, 4, 11, 97
13, 509901, Control_c, 4, 11, 96
13, 509908, Control_c, 4, 11, 95
13, 509913, Control_c, 4, 11, 94
13, 509920, Control_c, 4, 11, 93
13, 509926, Control_c, 4, 11, 92
13, 509932, Control_c, 4, 11, 91
13, 509938, Control_c, 4, 11, 90
13, 509944, Control_c, 4, 11, 89
13, 509950, Control_c, 4, 11, 88
13, 509956, Control_c, 4, 11, 87
13, 509962, Control_c, 4, 11, 86
13, 509968, Control_c, 4, 11, 85
13, 509975, Control_c, 4, 11, 84
13, 509981, Control_c, 4, 11, 83
13, 509986, Control_c, 4, 11, 82
13, 509993, Control_c, 4, 11, 81
13, 509999, Control_c, 4, 11, 80
13, 510005, Control_c, 4, 11, 79
13, 510011, Control_c, 4, 11, 78
13, 510016, Control_c, 4, 11, 77
13, 510023, Control_c, 4, 11, 76
13, 510029, Control_c, 4, 11, 75
13, 510035, Control_c, 4, 11, 74
13, 510041, Control_c, 4, 11, 73
13, 510047, Control_c, 4, 11, 72
13, 510053, Control_c, 4, 11, 71
13, 510060, Control_c, 4, 11, 70
13, 510065, Control_c, 4, 11, 69
13, 510071, Control_c, 4, 11, 68
13, 510078, Control_c, 4, 11, 67
13, 510084, Control_c, 4, 11, 66
13, 510090, Control_c, 4, 11, 65
13, 510096, Control_c, 4, 11, 64
13, 510102, Control_c, 4, 11, 63
13, 510108, Control_c, 4, 11, 62
13, 510114, Control_c, 4, 11, 61
13, 510120, Control_c, 4, 11, 60
13, 510126, Control_c, 4, 11, 59
13, 510132, Control_c, 4, 11, 58
13, 510138, Control_c, 4, 11, 57
13, 510144, Control_c, 4, 11, 56
13, 510150, Control_c, 4, 11, 55
13, 510156, Control_c, 4, 11, 54
13, 510163, Control_c, 4, 11, 53
13, 510168, Control_c, 4, 11, 52
13, 510175, Control_c, 4, 11, 51
13, 510181, Control_c, 4, 11, 50
13, 510187, Control_c, 4, 11, 49
13, 510193, Control_c, 4, 11, 48
13, 510199, Control_c, 4, 11, 47
13, 510205, Control_c, 4, 11, 46
13, 510211, Control_c, 4, 11, 45
13, 510217, Control_c, 4, 11, 44
13, 510223, Control_c, 4, 11, 43
13, 510230, Control_c, 4, 11, 42
13, 510235, Control_c, 4, 11, 41
13, 510241, Control_c, 4, 11, 40
13, 510247, Control_c, 4, 11, 39
13, 510253, Control_c, 4, 11, 38
13, 510260, Control_c, 4, 11, 37
13, 510266, Control_c, 4, 11, 36
13, 510271, Control_c, 4, 11, 35
13, 510290, Control_c, 4, 11, 32
13, 510305, Control_c, 4, 11, 33
13, 510319, Control_c, 4, 11, 34
13, 510334, Control_c, 4, 11, 35
13, 510348, Control_c, 4, 11, 36
13, 510363, Control_c, 4, 11, 37
13, 510378, Control_c, 4, 11, 38
13, 510392, Control_c, 4, 11, 39
13, 510407, Control_c, 4, 11, 40
13, 510421, Control_c, 4, 11, 41
13, 510436, Control_c, 4, 11, 42
13, 510451, Control_c, 4, 11, 43
13, 510465, Control_c, 4, 11, 44
13, 510480, Control_c, 4, 11, 45
13, 510495, Control_c, 4, 11, 46
13, 510510, Control_c, 4, 11, 47
13, 510524, Control_c, 4, 11, 48
13, 510538, Control_c, 4, 11, 49
13, 510553, Control_c, 4, 11, 50
13, 510568, Control_c, 4, 11, 51
13, 510583, Control_c, 4, 11, 52
13, 510597, Control_c, 4, 11, 53
13, 510611, Control_c, 4, 11, 54
13, 510626, Control_c, 4, 11, 55
13, 510641, Control_c, 4, 11, 56
13, 510656, Control_c, 4, 11, 57
13, 510670, Control_c, 4, 11, 58
13, 510685, Control_c, 4, 11, 59
13, 510700, Control_c, 4, 11, 60
13, 510714, Control_c, 4, 11, 61
13, 510729, Control_c, 4, 11, 62
13, 510743, Control_c, 4, 11, 63
13, 510758, Control_c, 4, 11, 64
13, 510773, Control_c, 4, 11, 65
13, 510787, Control_c, 4, 11, 66
13, 510802, Control_c, 4, 11, 67
13, 510816, Control_c, 4, 11, 68
13, 510831, Control_c, 4, 11, 69
13, 510846, Control_c, 4, 11, 70
13, 510860, Control_c, 4, 11, 71
13, 510875, Control_c, 4, 11, 72
13, 510890, Control_c, 4, 11, 73
13, 510904, Control_c, 4, 11, 74
13, 510919, Control_c, 4, 11, 75
13, 510933, Control_c, 4, 11, 76
13, 510948, Control_c, 4, 11, 77
13, 510963, Control_c, 4, 11, 78
13, 510977, Control_c, 4, 11, 79
13, 510992, Control_c, 4, 11, 80
13, 511006, Control_c, 4, 11, 81
13, 511021, Control_c, 4, 11, 82
13, 511036, Control_c, 4, 11, 83
13, 511050, Control_c, 4, 11, 84
13, 511065, Control_c, 4, 11, 85
13, 511080, Control_c, 4, 11, 86
13, 511095, Control_c, 4, 11, 87
13, 511109, Control_c, 4, 11, 88
13, 511123, Control_c, 4, 11, 89
13, 511138, Control_c, 4, 11, 90
13, 511153, Control_c, 4, 11, 91
13, 511168, Control_c, 4, 11, 92
13, 511182, Control_c, 4, 11, 93
13, 511196, Control_c, 4, 11, 94
13, 511211, Control_c, 4, 11, 95
13, 511226, Control_c, 4, 11, 96
13, 511241, Control_c, 4, 11, 97
13, 511255, Control_c, 4, 11, 98
13, 511270, Control_c, 4, 11, 99
13, 511285, Control_c, 4, 11, 100
13, 511299, Control_c, 4, 11, 101
13, 511314, Control_c, 4, 11, 102
13, 511328, Control_c, 4, 11, 103
13, 511343, Control_c, 4, 11, 104
13, 511358, Control_c, 4, 11, 105
13, 511372, Control_c, 4, 11, 106
13, 511387, Control_c, 4, 11, 107
13, 511401, Control_c, 4, 11, 108
13, 511416, Control_c, 4, 11, 109
13, 511431, Control_c, 4, 11, 110
13, 511445, Control_c, 4, 11, 111
13, 511460, Control_c, 4, 11, 112
13, 511475, Control_c, 4, 11, 113
13, 511489, Control_c, 4, 11, 114
13, 511504, Control_c, 4, 11, 115
13, 511518, Control_c, 4, 11, 116
13, 511533, Control_c, 4, 11, 117
13, 511548, Control_c, 4, 11, 118
13, 511562, Control_c, 4, 11, 119
13, 511577, Control_c, 4, 11, 120
13, 511591, Control_c, 4, 11, 121
13, 511606, Control_c, 4, 11, 122
13, 511621, Control_c, 4, 11, 123
13, 511635, Control_c, 4, 11, 124
13, 511650, Control_c, 4, 11, 125
13, 511665, Control_c, 4, 11, 126
13, 511937, Note_on_c, 4, 40, 0
13, 513600, Control_c, 4, 11, 124
13, 513603, Control_c, 4, 11, 123
13, 513606, Control_c, 4, 11, 122
13, 513609, Control_c, 4, 11, 121
13, 513613, Control_c, 4, 11, 120
13, 513616, Control_c, 4, 11, 119
13, 513619, Control_c, 4, 11, 118
13, 513622, Note_on_c, 4, 40, 108
13, 513622, Control_c, 4, 11, 117
13, 513626, Control_c, 4, 11, 116
13, 513629, Control_c, 4, 11, 115
13, 513632, Control_c, 4, 11, 114
13, 513635, Control_c, 4, 11, 113
13, 513639, Control_c, 4, 11, 112
13, 513643, Control_c, 4, 11, 111
13, 513646, Control_c, 4, 11, 110
13, 513649, Control_c, 4, 11, 109
13, 513652, Control_c, 4, 11, 108
13, 513656, Control_c, 4, 11, 107
13, 513659, Control_c, 4, 11, 106
13, 513662, Control_c, 4, 11, 105
13, 513665, Control_c, 4, 11, 104
13, 513669, Control_c, 4, 11, 103
13, 513672, Control_c, 4, 11, 102
13, 513675, Control_c, 4, 11, 101
13, 513678, Control_c, 4, 11, 100
13, 513682, Control_c, 4, 11, 99
13, 513685, Control_c, 4, 11, 98
13, 513688, Control_c, 4, 11, 97
13, 513691, Control_c, 4, 11, 96
13, 513695, Control_c, 4, 11, 95
13, 513698, Control_c, 4, 11, 94
13, 513701, Control_c, 4, 11, 93
13, 513705, Control_c, 4, 11, 92
13, 513708, Control_c, 4, 11, 91
13, 513711, Control_c, 4, 11, 90
13, 513715, Control_c, 4, 11, 89
13, 513718, Control_c, 4, 11, 88
13, 513721, Control_c, 4, 11, 87
13, 513725, Control_c, 4, 11, 86
13, 513728, Control_c, 4, 11, 85
13, 513731, Control_c, 4, 11, 84
13, 513735, Control_c, 4, 11, 83
13, 513738, Control_c, 4, 11, 82
13, 513741, Control_c, 4, 11, 81
13, 513744, Control_c, 4, 11, 80
13, 513748, Control_c, 4, 11, 79
13, 513751, Control_c, 4, 11, 78
13, 513755, Control_c, 4, 11, 77
13, 513758, Control_c, 4, 11, 76
13, 513761, Control_c, 4, 11, 75
13, 513765, Control_c, 4, 11, 74
13, 513768, Control_c, 4, 11, 73
13, 513771, Control_c, 4, 11, 72
13, 513774, Control_c, 4, 11, 71
13, 513778, Control_c, 4, 11, 70
13, 513781, Control_c, 4, 11, 69
13, 513784, Control_c, 4, 11, 68
13, 513787, Control_c, 4, 11, 67
13, 513791, Control_c, 4, 11, 66
13, 513794, Control_c, 4, 11, 65
13, 513797, Control_c, 4, 11, 64
13, 513800, Control_c, 4, 11, 63
13, 513804, Control_c, 4, 11, 62
13, 513807, Control_c, 4, 11, 61
13, 513810, Control_c, 4, 11, 60
13, 513813, Control_c, 4, 11, 59
13, 513817, Control_c, 4, 11, 58
13, 513820, Control_c, 4, 11, 57
13, 513823, Control_c, 4, 11, 56
13, 513826, Control_c, 4, 11, 55
13, 513830, Control_c, 4, 11, 54
13, 513833, Control_c, 4, 11, 53
13, 513836, Control_c, 4, 11, 52
13, 513840, Control_c, 4, 11, 51
13, 513843, Control_c, 4, 11, 50
13, 513846, Control_c, 4, 11, 49
13, 513850, Control_c, 4, 11, 48
13, 513853, Control_c, 4, 11, 47
13, 513856, Control_c, 4, 11, 46
13, 513860, Control_c, 4, 11, 45
13, 513863, Control_c, 4, 11, 44
13, 513866, Control_c, 4, 11, 43
13, 513870, Control_c, 4, 11, 42
13, 513873, Control_c, 4, 11, 41
13, 513876, Control_c, 4, 11, 40
13, 513880, Control_c, 4, 11, 39
13, 513883, Control_c, 4, 11, 38
13, 513886, Control_c, 4, 11, 37
13, 513890, Control_c, 4, 11, 36
13, 513930, Control_c, 4, 11, 33
13, 513957, Control_c, 4, 11, 34
13, 513984, Control_c, 4, 11, 35
13, 514011, Control_c, 4, 11, 36
13, 514038, Control_c, 4, 11, 37
13, 514065, Control_c, 4, 11, 38
13, 514093, Control_c, 4, 11, 39
13, 514120, Control_c, 4, 11, 40
13, 514147, Control_c, 4, 11, 41
13, 514174, Control_c, 4, 11, 42
13, 514201, Control_c, 4, 11, 43
13, 514228, Control_c, 4, 11, 44
13, 514255, Control_c, 4, 11, 45
13, 514282, Control_c, 4, 11, 46
13, 514310, Control_c, 4, 11, 47
13, 514336, Control_c, 4, 11, 48
13, 514364, Control_c, 4, 11, 49
13, 514391, Control_c, 4, 11, 50
13, 514418, Control_c, 4, 11, 51
13, 514445, Control_c, 4, 11, 52
13, 514472, Control_c, 4, 11, 53
13, 514500, Control_c, 4, 11, 54
13, 514526, Control_c, 4, 11, 55
13, 514554, Control_c, 4, 11, 56
13, 514581, Control_c, 4, 11, 57
13, 514608, Control_c, 4, 11, 58
13, 514635, Control_c, 4, 11, 59
13, 514662, Control_c, 4, 11, 60
13, 514689, Control_c, 4, 11, 61
13, 514716, Control_c, 4, 11, 62
13, 514743, Control_c, 4, 11, 63
13, 514771, Control_c, 4, 11, 64
13, 514798, Control_c, 4, 11, 65
13, 514825, Control_c, 4, 11, 66
13, 514852, Control_c, 4, 11, 67
13, 514879, Control_c, 4, 11, 68
13, 514906, Control_c, 4, 11, 69
13, 514933, Control_c, 4, 11, 70
13, 514961, Control_c, 4, 11, 71
13, 514988, Control_c, 4, 11, 72
13, 515015, Control_c, 4, 11, 73
13, 515041, Control_c, 4, 11, 74
13, 515069, Control_c, 4, 11, 75
13, 515096, Control_c, 4, 11, 76
13, 515123, Control_c, 4, 11, 77
13, 515150, Control_c, 4, 11, 78
13, 515178, Control_c, 4, 11, 79
13, 515205, Control_c, 4, 11, 80
13, 515231, Control_c, 4, 11, 81
13, 515259, Control_c, 4, 11, 82
13, 515286, Control_c, 4, 11, 83
13, 515313, Control_c, 4, 11, 84
13, 515340, Control_c, 4, 11, 85
13, 515368, Control_c, 4, 11, 86
13, 515394, Control_c, 4, 11, 87
13, 515421, Control_c, 4, 11, 88
13, 515448, Control_c, 4, 11, 89
13, 515476, Control_c, 4, 11, 90
13, 515503, Control_c, 4, 11, 91
13, 515530, Control_c, 4, 11, 92
13, 515557, Control_c, 4, 11, 93
13, 515585, Control_c, 4, 11, 94
13, 515611, Control_c, 4, 11, 95
13, 515638, Control_c, 4, 11, 96
13, 515666, Control_c, 4, 11, 97
13, 515693, Control_c, 4, 11, 98
13, 515720, Control_c, 4, 11, 99
13, 515747, Control_c, 4, 11, 100
13, 515775, Control_c, 4, 11, 101
13, 515801, Control_c, 4, 11, 102
13, 515828, Control_c, 4, 11, 103
13, 515855, Control_c, 4, 11, 104
13, 515883, Control_c, 4, 11, 105
13, 515910, Control_c, 4, 11, 106
13, 515937, Control_c, 4, 11, 107
13, 515964, Control_c, 4, 11, 108
13, 515991, Control_c, 4, 11, 109
13, 516018, Control_c, 4, 11, 110
13, 516045, Control_c, 4, 11, 111
13, 516073, Control_c, 4, 11, 112
13, 516100, Control_c, 4, 11, 113
13, 516127, Control_c, 4, 11, 114
13, 516154, Control_c, 4, 11, 115
13, 516181, Control_c, 4, 11, 116
13, 516208, Control_c, 4, 11, 117
13, 516235, Control_c, 4, 11, 118
13, 516262, Control_c, 4, 11, 119
13, 516290, Control_c, 4, 11, 120
13, 516316, Control_c, 4, 11, 121
13, 516344, Control_c, 4, 11, 122
13, 516371, Control_c, 4, 11, 123
13, 516398, Control_c, 4, 11, 124
13, 516425, Control_c, 4, 11, 125
13, 516452, Control_c, 4, 11, 126
13, 516742, Note_on_c, 4, 40, 0
13, 540491, Note_on_c, 4, 42, 108
13, 540497, Note_on_c, 4, 36, 106
13, 540504, Note_on_c, 4, 48, 98
13, 540634, Note_on_c, 4, 42, 0
13, 540640, Note_on_c, 4, 36, 0
13, 540647, Note_on_c, 4, 48, 0
13, 540971, Note_on_c, 4, 48, 92
13, 540974, Note_on_c, 4, 42, 97
13, 540978, Note_on_c, 4, 36, 111
13, 541042, Note_on_c, 4, 48, 0
13, 541045, Note_on_c, 4, 42, 0
13, 541049, Note_on_c, 4, 36, 0
13, 541206, Note_on_c, 4, 36, 105
13, 541223, Note_on_c, 4, 42, 101
13, 541225, Note_on_c, 4, 48, 107
13, 541277, Note_on_c, 4, 36, 0
13, 541294, Note_on_c, 4, 42, 0
13, 541296, Note_on_c, 4, 48, 0
13, 541453, Note_on_c, 4, 42, 103
13, 541459, Note_on_c, 4, 48, 105
13, 541460, Note_on_c, 4, 36, 106
13, 541524, Note_on_c, 4, 42, 0
13, 541530, Note_on_c, 4, 48, 0
13, 541531, Note_on_c, 4, 36, 0
13, 541695, Note_on_c, 4, 42, 95
13, 541703, Note_on_c, 4, 48, 92
13, 541705, Note_on_c, 4, 36, 96
13, 541766, Note_on_c, 4, 42, 0
13, 541774, Note_on_c, 4, 48, 0
13, 541776, Note_on_c, 4, 36, 0
13, 541929, Note_on_c, 4, 42, 102
13, 541945, Note_on_c, 4, 48, 111
13, 541945, Note_on_c, 4, 36, 99
13, 542000, Note_on_c, 4, 42, 0
13, 542016, Note_on_c, 4, 48, 0
13, 542016, Note_on_c, 4, 36, 0
13, 542164, Note_on_c, 4, 42, 95
13, 542175, Note_on_c, 4, 48, 98
13, 542181, Note_on_c, 4, 36, 107
13, 542235, Note_on_c, 4, 42, 0
13, 542246, Note_on_c, 4, 48, 0
13, 542252, Note_on_c, 4, 36, 0
13, 542405, Note_on_c, 4, 48, 99
13, 542412, Note_on_c, 4, 36, 104
13, 542419, Note_on_c, 4, 42, 94
13, 542476, Note_on_c, 4, 48, 0
13, 542483, Note_on_c, 4, 36, 0
13, 542490, Note_on_c, 4, 42, 0
13, 542641, Note_on_c, 4, 48, 107
13, 542644, Note_on_c, 4, 36, 94
13, 542653, Note_on_c, 4, 42, 97
13, 542712, Note_on_c, 4, 48, 0
13, 542715, Note_on_c, 4, 36, 0
13, 542724, Note_on_c, 4, 42, 0
13, 542881, Note_on_c, 4, 36, 98
13, 542892, Note_on_c, 4, 42, 111
13, 542895, Note_on_c, 4, 48, 106
13, 542952, Note_on_c, 4, 36, 0
13, 542963, Note_on_c, 4, 42, 0
13, 542966, Note_on_c, 4, 48, 0
13, 543127, Note_on_c, 4, 36, 105
13, 543128, Note_on_c, 4, 42, 110
13, 543135, Note_on_c, 4, 48, 97
13, 543198, Note_on_c, 4, 36, 0
13, 543199, Note_on_c, 4, 42, 0
13, 543206, Note_on_c, 4, 48, 0
13, 543366, Note_on_c, 4, 36, 111
13, 543379, Note_on_c, 4, 42, 97
13, 543382, Note_on_c, 4, 48, 101
13, 543437, Note_on_c, 4, 36, 0
13, 543450, Note_on_c, 4, 42, 0
13, 543453, Note_on_c, 4, 48, 0
13, 543600, Note_on_c, 4, 36, 97
13, 543602, Note_on_c, 4, 42, 98
13, 543616, Note_on_c, 4, 48, 93
13, 543671, Note_on_c, 4, 36, 0
13, 543673, Note_on_c, 4, 42, 0
13, 543687, Note_on_c, 4, 48, 0
13, 543846, Note_on_c, 4, 42, 109
13, 543851, Note_on_c, 4, 36, 103
13, 543857, Note_on_c, 4, 48, 105
13, 543917, Note_on_c, 4, 42, 0
13, 543922, Note_on_c, 4, 36, 0
13, 543928, Note_on_c, 4, 48, 0
13, 544091, Note_on_c, 4, 36, 106
13, 544098, Note_on_c, 4, 48, 94
13, 544102, Note_on_c, 4, 42, 101
13, 544162, Note_on_c, 4, 36, 0
13, 544169, Note_on_c, 4, 48, 0
13, 544173, Note_on_c, 4, 42, 0
13, 544323, Note_on_c, 4, 36, 99
13, 544324, Note_on_c, 4, 42, 98
13, 544325, Note_on_c, 4, 48, 104
13, 544394, Note_on_c, 4, 36, 0
13, 544395, Note_on_c, 4, 42, 0
13, 544396, Note_on_c, 4, 48, 0
13, 544560, Note_on_c, 4, 42, 96
13, 544564, Note_on_c, 4, 36, 108
13, 544584, Note_on_c, 4, 48, 104
13, 544631, Note_on_c, 4, 42, 0
13, 544635, Note_on_c, 4, 36, 0
13, 544655, Note_on_c, 4, 48, 0
13, 544807, Note_on_c, 4, 48, 98
13, 544807, Note_on_c, 4, 42, 111
13, 544817, Note_on_c, 4, 36, 92
13, 544878, Note_on_c, 4, 48, 0
13, 544878, Note_on_c, 4, 42, 0
13, 544888, Note_on_c, 4, 36, 0
13, 545041, Note_on_c, 4, 48, 110
13, 545049, Note_on_c, 4, 36, 108
13, 545065, Note_on_c, 4, 42, 100
13, 545112, Note_on_c, 4, 48, 0
13, 545120, Note_on_c, 4, 36, 0
13, 545136, Note_on_c, 4, 42, 0
13, 545298, Note_on_c, 4, 48, 101
13, 545299, Note_on_c, 4, 36, 95
13, 545300, Note_on_c, 4, 42, 100
13, 545369, Note_on_c, 4, 48, 0
13, 545370, Note_on_c, 4, 36, 0
13, 545371, Note_on_c, 4, 42, 0
13, 552983, Note_on_c, 4, 57, 92
13, 553054, Note_on_c, 4, 59, 80
13, 553092, Note_on_c, 4, 57, 0
13, 553128, Note_on_c, 4, 57, 94
13, 553163, Note_on_c, 4, 59, 0
13, 553195, Note_on_c, 4, 59, 94
13, 553237, Note_on_c, 4, 57, 0
13, 553266, Note_on_c, 4, 57, 80
13, 553304, Note_on_c, 4, 59, 0
13, 553341, Note_on_c, 4, 59, 93
13, 553375, Note_on_c, 4, 57, 0
13, 553420, Note_on_c, 4, 57, 90
13, 553450, Note_on_c, 4, 59, 0
13, 553496, Note_on_c, 4, 59, 86
13, 553529, Note_on_c, 4, 57, 0
13, 553563, Note_on_c, 4, 57, 97
13, 553605, Note_on_c, 4, 59, 0
13, 553635, Note_on_c, 4, 59, 83
13, 553672, Note_on_c, 4, 57, 0
13, 553716, Note_on_c, 4, 57, 81
13, 553744, Note_on_c, 4, 59, 0
13, 553791, Note_on_c, 4, 59, 83
13, 553825, Note_on_c, 4, 57, 0
13, 553859, Note_on_c, 4, 57, 88
13, 553900, Note_on_c, 4, 59, 0
13, 553921, Note_on_c, 4, 60, 82
13, 553968, Note_on_c, 4, 57, 0
13, 553994, Note_on_c, 4, 62, 89
13, 554030, Note_on_c, 4, 60, 0
13, 554067, Note_on_c, 4, 60, 80
13, 554103, Note_on_c, 4, 62, 0
13, 554150, Note_on_c, 4, 62, 86
13, 554176, Note_on_c, 4, 60, 0
13, 554225, Note_on_c, 4, 60, 95
13, 554259, Note_on_c, 4, 62, 0
13, 554304, Note_on_c, 4, 62, 81
13, 554334, Note_on_c, 4, 60, 0
13, 554386, Note_on_c, 4, 60, 79
13, 554413, Note_on_c, 4, 62, 0
13, 554454, Note_on_c, 4, 62, 83
13, 554495, Note_on_c, 4, 60, 0
13, 554528, Note_on_c, 4, 60, 83
13, 554563, Note_on_c, 4, 62, 0
13, 554597, Note_on_c, 4, 62, 94
13, 554637, Note_on_c, 4, 60, 0
13, 554659, Note_on_c, 4, 60, 85
13, 554706, Note_on_c, 4, 62, 0
13, 554747, Note_on_c, 4, 62, 84
13, 554768, Note_on_c, 4, 60, 0
13, 554814, Note_on_c, 4, 60, 97
13, 554856, Note_on_c, 4, 62, 0
13, 554895, Note_on_c, 4, 57, 87
13, 554923, Note_on_c, 4, 60, 0
13, 554953, Note_on_c, 4, 59, 87
13, 555004, Note_on_c, 4, 57, 0
13, 555047, Note_on_c, 4, 57, 98
13, 555062, Note_on_c, 4, 59, 0
13, 555102, Note_on_c, 4, 59, 94
13, 555156, Note_on_c, 4, 57, 0
13, 555195, Note_on_c, 4, 57, 84
13, 555211, Note_on_c, 4, 59, 0
13, 555266, Note_on_c, 4, 59, 98
13, 555304, Note_on_c, 4, 57, 0
13, 555336, Note_on_c, 4, 57, 90
13, 555375, Note_on_c, 4, 59, 0
13, 555403, Note_on_c, 4, 59, 86
13, 555445, Note_on_c, 4, 57, 0
13, 555473, Note_on_c, 4, 57, 80
13, 555512, Note_on_c, 4, 59, 0
13, 555565, Note_on_c, 4, 59, 81
13, 555582, Note_on_c, 4, 57, 0
13, 555632, Note_on_c, 4, 57, 84
13, 555674, Note_on_c, 4, 59, 0
13, 555695, Note_on_c, 4, 59, 98
13, 555741, Note_on_c, 4, 57, 0
13, 555787, Note_on_c, 4, 57, 88
13, 555804, Note_on_c, 4, 59, 0
13, 555860, Note_on_c, 4, 60, 91
13, 555896, Note_on_c, 4, 57, 0
13, 555930, Note_on_c, 4, 62, 91
13, 555969, Note_on_c, 4, 60, 0
13, 555999, Note_on_c, 4, 60, 96
13, 556039, Note_on_c, 4, 62, 0
13, 556073, Note_on_c, 4, 62, 89
13, 556108, Note_on_c, 4, 60, 0
13, 556146, Note_on_c, 4, 60, 80
13, 556182, Note_on_c, 4, 62, 0
13, 556222, Note_on_c, 4, 62, 92
13, 556255, Note_on_c, 4, 60, 0
13, 556287, Note_on_c, 4, 60, 81
13, 556331, Note_on_c, 4, 62, 0
13, 556375, Note_on_c, 4, 62, 82
13, 556396, Note_on_c, 4, 60, 0
13, 556448, Note_on_c, 4, 60, 97
13, 556484, Note_on_c, 4, 62, 0
13, 556521, Note_on_c, 4, 62, 98
13, 556557, Note_on_c, 4, 60, 0
13, 556594, Note_on_c, 4, 60, 84
13, 556630, Note_on_c, 4, 62, 0
13, 556655, Note_on_c, 4, 62, 90
13, 556703, Note_on_c, 4, 60, 0
13, 556733, Note_on_c, 4, 60, 79
13, 556764, Note_on_c, 4, 62, 0
13, 556805, Note_on_c, 4, 57, 90
13, 556842, Note_on_c, 4, 60, 0
13, 557285, Note_on_c, 4, 57, 0
13, 557762, Note_on_c, 4, 57, 81
13, 557845, Note_on_c, 4, 59, 85
13, 557871, Note_on_c, 4, 57, 0
13, 557913, Note_on_c, 4, 57, 83
13, 557954, Note_on_c, 4, 59, 0
13, 558004, Note_on_c, 4, 59, 97
13, 558022, Note_on_c, 4, 57, 0
13, 558063, Note_on_c, 4, 57, 90
13, 558113, Note_on_c, 4, 59, 0
13, 558131, Note_on_c, 4, 59, 85
13, 558172, Note_on_c, 4, 57, 0
13, 558218, Note_on_c, 4, 57, 78
13, 558240, Note_on_c, 4, 59, 0
13, 558285, Note_on_c, 4, 59, 94
13, 558327, Note_on_c, 4, 57, 0
13, 558348, Note_on_c, 4, 57, 91
13, 558394, Note_on_c, 4, 59, 0
13, 558432, Note_on_c, 4, 59, 92
13, 558457, Note_on_c, 4, 57, 0
13, 558504, Note_on_c, 4, 57, 88
13, 558541, Note_on_c, 4, 59, 0
13, 558582, Note_on_c, 4, 59, 92
13, 558613, Note_on_c, 4, 57, 0
13, 558643, Note_on_c, 4, 57, 89
13, 558691, Note_on_c, 4, 59, 0
13, 558732, Note_on_c, 4, 60, 92
13, 558752, Note_on_c, 4, 57, 0
13, 558816, Note_on_c, 4, 62, 94
13, 558841, Note_on_c, 4, 60, 0
13, 558881, Note_on_c, 4, 60, 96
13, 558925, Note_on_c, 4, 62, 0
13, 558965, Note_on_c, 4, 62, 98
13, 558990, Note_on_c, 4, 60, 0
13, 559020, Note_on_c, 4, 60, 78
13, 559074, Note_on_c, 4, 62, 0
13, 559099, Note_on_c, 4, 62, 87
13, 559129, Note_on_c, 4, 60, 0
13, 559166, Note_on_c, 4, 60, 96
13, 559208, Note_on_c, 4, 62, 0
13, 559241, Note_on_c, 4, 62, 89
13, 559275, Note_on_c, 4, 60, 0
13, 559319, Note_on_c, 4, 60, 85
13, 559350, Note_on_c, 4, 62, 0
13, 559399, Note_on_c, 4, 62, 84
13, 559428, Note_on_c, 4, 60, 0
13, 559477, Note_on_c, 4, 60, 98
13, 559508, Note_on_c, 4, 62, 0
13, 559530, Note_on_c, 4, 62, 83
13, 559586, Note_on_c, 4, 60, 0
13, 559627, Note_on_c, 4, 60, 86
13, 559639, Note_on_c, 4, 62, 0
13, 559682, Note_on_c, 4, 57, 91
13, 559736, Note_on_c, 4, 60, 0
13, 559764, Note_on_c, 4, 59, 85
13, 559791, Note_on_c, 4, 57, 0
13, 559841, Note_on_c, 4, 57, 89
13, 559873, Note_on_c, 4, 59, 0
13, 559925, Note_on_c, 4, 59, 95
13, 559950, Note_on_c, 4, 57, 0
13, 559987, Note_on_c, 4, 57, 96
13, 560034, Note_on_c, 4, 59, 0
13, 560055, Note_on_c, 4, 59, 82
13, 560096, Note_on_c, 4, 57, 0
13, 560128, Note_on_c, 4, 57, 90
13, 560164, Note_on_c, 4, 59, 0
13, 560198, Note_on_c, 4, 59, 98
13, 560237, Note_on_c, 4, 57, 0
13, 560287, Note_on_c, 4, 57, 85
13, 560307, Note_on_c, 4, 59, 0
13, 560362, Note_on_c, 4, 59, 84
13, 560396, Note_on_c, 4, 57, 0
13, 560419, Note_on_c, 4, 57, 90
13, 560471, Note_on_c, 4, 59, 0
13, 560509, Note_on_c, 4, 59, 87
13, 560528, Note_on_c, 4, 57, 0
13, 560569, Note_on_c, 4, 57, 88
13, 560618, Note_on_c, 4, 59, 0
13, 560655, Note_on_c, 4, 60, 84
13, 560678, Note_on_c, 4, 57, 0
13, 560719, Note_on_c, 4, 62, 83
13, 560764, Note_on_c, 4, 60, 0
13, 560800, Note_on_c, 4, 60, 88
13, 560828, Note_on_c, 4, 62, 0
13, 560860, Note_on_c, 4, 62, 94
13, 560909, Note_on_c, 4, 60, 0
13, 560950, Note_on_c, 4, 60, 97
13, 560969, Note_on_c, 4, 62, 0
13, 561013, Note_on_c, 4, 62, 88
13, 561059, Note_on_c, 4, 60, 0
13, 561105, Note_on_c, 4, 60, 79
13, 561122, Note_on_c, 4, 62, 0
13, 561159, Note_on_c, 4, 62, 97
13, 561214, Note_on_c, 4, 60, 0
13, 561240, Note_on_c, 4, 60, 78
13, 561268, Note_on_c, 4, 62, 0
13, 561307, Note_on_c, 4, 62, 89
13, 561349, Note_on_c, 4, 60, 0
13, 561387, Note_on_c, 4, 60, 87
13, 561416, Note_on_c, 4, 62, 0
13, 561472, Note_on_c, 4, 62, 83
13, 561496, Note_on_c, 4, 60, 0
13, 561537, Note_on_c, 4, 60, 79
13, 561581, Note_on_c, 4, 62, 0
13, 561605, Note_on_c, 4, 30, 81
13, 561625, Note_on_c, 4, 58, 86
13, 561646, Note_on_c, 4, 60, 0
13, 561845, Note_on_c, 4, 30, 0
13, 561862, Note_on_c, 4, 28, 92
13, 561865, Note_on_c, 4, 58, 0
13, 561982, Note_on_c, 4, 28, 0
13, 562098, Note_on_c, 4, 30, 95
13, 562338, Note_on_c, 4, 30, 0
13, 562345, Note_on_c, 4, 28, 89
13, 562465, Note_on_c, 4, 28, 0
13, 562569, Note_on_c, 4, 30, 79
13, 562809, Note_on_c, 4, 30, 0
13, 562820, Note_on_c, 4, 28, 88
13, 562940, Note_on_c, 4, 28, 0
13, 563050, Note_on_c, 4, 30, 94
13, 563285, Note_on_c, 4, 28, 96
13, 563290, Note_on_c, 4, 30, 0
13, 563405, Note_on_c, 4, 28, 0
13, 563524, Note_on_c, 4, 30, 81
13, 563764, Note_on_c, 4, 30, 0
13, 563775, Note_on_c, 4, 28, 87
13, 563895, Note_on_c, 4, 28, 0
13, 564016, Note_on_c, 4, 30, 79
13, 564241, Note_on_c, 4, 28, 81
13, 564256, Note_on_c, 4, 30, 0
13, 564361, Note_on_c, 4, 28, 0
13, 564498, Note_on_c, 4, 30, 89
13, 564730, Note_on_c, 4, 28, 82
13, 564738, Note_on_c, 4, 30, 0
13, 564850, Note_on_c, 4, 28, 0
13, 564964, Note_on_c, 4, 30, 81
13, 565204, Note_on_c, 4, 30, 0
13, 565214, Note_on_c, 4, 28, 87
13, 565334, Note_on_c, 4, 28, 0
13, 565456, Note_on_c, 4, 30, 83
13, 565682, Note_on_c, 4, 28, 96
13, 565696, Note_on_c, 4, 30, 0
13, 565802, Note_on_c, 4, 28, 0
13, 565931, Note_on_c, 4, 30, 83
13, 566160, Note_on_c, 4, 28, 80
13, 566171, Note_on_c, 4, 30, 0
13, 566280, Note_on_c, 4, 28, 0
13, 566423, Note_on_c, 4, 30, 81
13, 566661, Note_on_c, 4, 28, 90
13, 566663, Note_on_c, 4, 30, 0
13, 566781, Note_on_c, 4, 28, 0
13, 566903, Note_on_c, 4, 30, 79
13, 567127, Note_on_c, 4, 28, 92
13, 567143, Note_on_c, 4, 30, 0
13, 567247, Note_on_c, 4, 28, 0
13, 567385, Note_on_c, 4, 30, 81
13, 567614, Note_on_c, 4, 28, 83
13, 567625, Note_on_c, 4, 30, 0
13, 567734, Note_on_c, 4, 28, 0
13, 567844, Note_on_c, 4, 30, 87
13, 568084, Note_on_c, 4, 30, 0
13, 568105, Note_on_c, 4, 28, 79
13, 568225, Note_on_c, 4, 28, 0
13, 568322, Note_on_c, 4, 30, 93
13, 568562, Note_on_c, 4, 30, 0
13, 568575, Note_on_c, 4, 28, 78
13, 568695, Note_on_c, 4, 28, 0
13, 568801, Note_on_c, 4, 30, 96
13, 569041, Note_on_c, 4, 30, 0
13, 569061, Note_on_c, 4, 28, 95
13, 569181, Note_on_c, 4, 28, 0
13, 569299, Note_on_c, 4, 30, 91
13, 569532, Note_on_c, 4, 28, 87
13, 569539, Note_on_c, 4, 30, 0
13, 569652, Note_on_c, 4, 28, 0
13, 569782, Note_on_c, 4, 30, 88
13, 570022, Note_on_c, 4, 30, 0
13, 570023, Note_on_c, 4, 28, 80
13, 570143, Note_on_c, 4, 28, 0
13, 570257, Note_on_c, 4, 30, 79
13, 570487, Note_on_c, 4, 28, 93
13, 570497, Note_on_c, 4, 30, 0
13, 570607, Note_on_c, 4, 28, 0
13, 570737, Note_on_c, 4, 30, 90
13, 570977, Note_on_c, 4, 30, 0
13, 570982, Note_on_c, 4, 28, 91
13, 571102, Note_on_c, 4, 28, 0
13, 571212, Note_on_c, 4, 30, 93
13, 571452, Note_on_c, 4, 30, 0
13, 571464, Note_on_c, 4, 28, 95
13, 571584, Note_on_c, 4, 28, 0
13, 571684, Note_on_c, 4, 30, 96
13, 571924, Note_on_c, 4, 30, 0
13, 571933, Note_on_c, 4, 28, 92
13, 572053, Note_on_c, 4, 28, 0
13, 572165, Note_on_c, 4, 30, 95
13, 572405, Note_on_c, 4, 30, 0
13, 572417, Note_on_c, 4, 28, 95
13, 572537, Note_on_c, 4, 28, 0
13, 572663, Note_on_c, 4, 30, 96
13, 572880, Note_on_c, 4, 28, 91
13, 572903, Note_on_c, 4, 30, 0
13, 573000, Note_on_c, 4, 28, 0
13, 573129, Note_on_c, 4, 30, 89
13, 573369, Note_on_c, 4, 30, 0
13, 573381, Note_on_c, 4, 28, 84
13, 573501, Note_on_c, 4, 28, 0
13, 573612, Note_on_c, 4, 30, 88
13, 573852, Note_on_c, 4, 30, 0
13, 573862, Note_on_c, 4, 28, 96
13, 573982, Note_on_c, 4, 28, 0
13, 574105, Note_on_c, 4, 30, 86
13, 574331, Note_on_c, 4, 28, 91
13, 574345, Note_on_c, 4, 30, 0
13, 574451, Note_on_c, 4, 28, 0
13, 574570, Note_on_c, 4, 30, 80
13, 574806, Note_on_c, 4, 28, 97
13, 574810, Note_on_c, 4, 30, 0
13, 574926, Note_on_c, 4, 28, 0
13, 575050, Note_on_c, 4, 30, 90
13, 575290, Note_on_c, 4, 30, 0
13, 575305, Note_on_c, 4, 28, 83
13, 575425, Note_on_c, 4, 28, 0
13, 575543, Note_on_c, 4, 30, 78
13, 575772, Note_on_c, 4, 28, 88
13, 575783, Note_on_c, 4, 30, 0
13, 575892, Note_on_c, 4, 28, 0
13, 576013, Note_on_c, 4, 30, 96
13, 576253, Note_on_c, 4, 30, 0
13, 576262, Note_on_c, 4, 28, 98
13, 576382, Note_on_c, 4, 28, 0
13, 576484, Note_on_c, 4, 30, 89
13, 576724, Note_on_c, 4, 30, 0
13, 576739, Note_on_c, 4, 28, 90
13, 576859, Note_on_c, 4, 28, 0
13, 576967, Note_on_c, 4, 30, 83
13, 577204, Note_on_c, 4, 28, 94
13, 577207, Note_on_c, 4, 30, 0
13, 577324, Note_on_c, 4, 28, 0
13, 577459, Note_on_c, 4, 30, 84
13, 577682, Note_on_c, 4, 28, 83
13, 577699, Note_on_c, 4, 30, 0
13, 577802, Note_on_c, 4, 28, 0
13, 577927, Note_on_c, 4, 30, 88
13, 578167, Note_on_c, 4, 30, 0
13, 578176, Note_on_c, 4, 28, 90
13, 578296, Note_on_c, 4, 28, 0
13, 578408, Note_on_c, 4, 30, 81
13, 578648, Note_on_c, 4, 30, 0
13, 578656, Note_on_c, 4, 28, 79
13, 578776, Note_on_c, 4, 28, 0
13, 578899, Note_on_c, 4, 30, 97
13, 579125, Note_on_c, 4, 28, 97
13, 579139, Note_on_c, 4, 30, 0
13, 579245, Note_on_c, 4, 28, 0
13, 579372, Note_on_c, 4, 30, 80
13, 579603, Note_on_c, 4, 28, 86
13, 579612, Note_on_c, 4, 30, 0
13, 579723, Note_on_c, 4, 28, 0
13, 579846, Note_on_c, 4, 30, 80
13, 580086, Note_on_c, 4, 30, 0
13, 580097, Note_on_c, 4, 28, 83
13, 580217, Note_on_c, 4, 28, 0
13, 580344, Note_on_c, 4, 30, 89
13, 580562, Note_on_c, 4, 28, 82
13, 580584, Note_on_c, 4, 30, 0
13, 580682, Note_on_c, 4, 28, 0
13, 580820, Note_on_c, 4, 30, 89
13, 581043, Note_on_c, 4, 28, 79
13, 581060, Note_on_c, 4, 30, 0
13, 581163, Note_on_c, 4, 28, 0
13, 581300, Note_on_c, 4, 30, 89
13, 581539, Note_on_c, 4, 28, 78
13, 581540, Note_on_c, 4, 30, 0
13, 581659, Note_on_c, 4, 28, 0
13, 581761, Note_on_c, 4, 30, 93
13, 582001, Note_on_c, 4, 30, 0
13, 582009, Note_on_c, 4, 28, 91
13, 582129, Note_on_c, 4, 28, 0
13, 582243, Note_on_c, 4, 30, 82
13, 582483, Note_on_c, 4, 30, 0
13, 582487, Note_on_c, 4, 28, 92
13, 582607, Note_on_c, 4, 28, 0
13, 582726, Note_on_c, 4, 30, 93
13, 582966, Note_on_c, 4, 30, 0
13, 582977, Note_on_c, 4, 28, 97
13, 583097, Note_on_c, 4, 28, 0
13, 583214, Note_on_c, 4, 30, 91
13, 583451, Note_on_c, 4, 28, 83
13, 583454, Note_on_c, 4, 30, 0
13, 583571, Note_on_c, 4, 28, 0
13, 583700, Note_on_c, 4, 30, 97
13, 583938, Note_on_c, 4, 28, 91
13, 583940, Note_on_c, 4, 30, 0
13, 584058, Note_on_c, 4, 28, 0
13, 584168, Note_on_c, 4, 30, 88
13, 584408, Note_on_c, 4, 30, 0
13, 584419, Note_on_c, 4, 28, 89
13, 584539, Note_on_c, 4, 28, 0
13, 584647, Note_on_c, 4, 30, 97
13, 584887, Note_on_c, 4, 30, 0
13, 584899, Note_on_c, 4, 28, 79
13, 585019, Note_on_c, 4, 28, 0
13, 585123, Note_on_c, 4, 30, 83
13, 585363, Note_on_c, 4, 30, 0
13, 585366, Note_on_c, 4, 28, 86
13, 585486, Note_on_c, 4, 28, 0
13, 585608, Note_on_c, 4, 30, 90
13, 585848, Note_on_c, 4, 30, 0
13, 585854, Note_on_c, 4, 28, 83
13, 585974, Note_on_c, 4, 28, 0
13, 586090, Note_on_c, 4, 30, 87
13, 586330, Note_on_c, 4, 30, 0
13, 586335, Note_on_c, 4, 28, 78
13, 586455, Note_on_c, 4, 28, 0
13, 586564, Note_on_c, 4, 30, 98
13, 586801, Note_on_c, 4, 28, 88
13, 586804, Note_on_c, 4, 30, 0
13, 586921, Note_on_c, 4, 28, 0
13, 587059, Note_on_c, 4, 30, 95
13, 587299, Note_on_c, 4, 30, 0
13, 587303, Note_on_c, 4, 28, 86
13, 587423, Note_on_c, 4, 28, 0
13, 587530, Note_on_c, 4, 30, 93
13, 587763, Note_on_c, 4, 28, 81
13, 587770, Note_on_c, 4, 30, 0
13, 587883, Note_on_c, 4, 28, 0
13, 588006, Note_on_c, 4, 30, 95
13, 588243, Note_on_c, 4, 28, 78
13, 588246, Note_on_c, 4, 30, 0
13, 588363, Note_on_c, 4, 28, 0
13, 588480, Note_on_c, 4, 30, 93
13, 588720, Note_on_c, 4, 30, 0
13, 588742, Note_on_c, 4, 28, 85
13, 588862, Note_on_c, 4, 28, 0
13, 588960, Note_on_c, 4, 30, 81
13, 589200, Note_on_c, 4, 30, 0
13, 589203, Note_on_c, 4, 28, 94
13, 589323, Note_on_c, 4, 28, 0
13, 589446, Note_on_c, 4, 30, 98
13, 589686, Note_on_c, 4, 30, 0
13, 589695, Note_on_c, 4, 28, 91
13, 589815, Note_on_c, 4, 28, 0
13, 589926, Note_on_c, 4, 30, 83
13, 590166, Note_on_c, 4, 30, 0
13, 590167, Note_on_c, 4, 28, 87
13, 590287, Note_on_c, 4, 28, 0
13, 590421, Note_on_c, 4, 30, 92
13, 590661, Note_on_c, 4, 30, 0
13, 590662, Note_on_c, 4, 28, 84
13, 590782, Note_on_c, 4, 28, 0
13, 590893, Note_on_c, 4, 30, 79
13, 591133, Note_on_c, 4, 30, 0
13, 591145, Note_on_c, 4, 28, 85
13, 591265, Note_on_c, 4, 28, 0
13, 591381, Note_on_c, 4, 30, 95
13, 591616, Note_on_c, 4, 28, 85
13, 591621, Note_on_c, 4, 30, 0
13, 591736, Note_on_c, 4, 28, 0
13, 591865, Note_on_c, 4, 30, 86
13, 592095, Note_on_c, 4, 28, 83
13, 592105, Note_on_c, 4, 30, 0
13, 592215, Note_on_c, 4, 28, 0
13, 592333, Note_on_c, 4, 30, 82
13, 592563, Note_on_c, 4, 28, 87
13, 592573, Note_on_c, 4, 30, 0
13, 592683, Note_on_c, 4, 28, 0
13, 592810, Note_on_c, 4, 30, 83
13, 593050, Note_on_c, 4, 30, 0
13, 593052, Note_on_c, 4, 28, 98
13, 593172, Note_on_c, 4, 28, 0
13, 593300, Note_on_c, 4, 30, 97
13, 593532, Note_on_c, 4, 28, 88
13, 593540, Note_on_c, 4, 30, 0
13, 593652, Note_on_c, 4, 28, 0
13, 593760, Note_on_c, 4, 30, 98
13, 594000, Note_on_c, 4, 30, 0
13, 594015, Note_on_c, 4, 28, 98
13, 594135, Note_on_c, 4, 28, 0
13, 594242, Note_on_c, 4, 30, 106
13, 594246, Note_on_c, 4, 52, 121
13, 594250, Note_on_c, 4, 55, 119
13, 594254, Note_on_c, 4, 47, 118
13, 594366, Note_on_c, 4, 52, 0
13, 594370, Note_on_c, 4, 55, 0
13, 594374, Note_on_c, 4, 47, 0
13, 594482, Note_on_c, 4, 30, 0
13, 594490, Note_on_c, 4, 28, 118
13, 594494, Note_on_c, 4, 57, 123
13, 594501, Note_on_c, 4, 50, 111
13, 594504, Note_on_c, 4, 53, 109
13, 594610, Note_on_c, 4, 28, 0
13, 594614, Note_on_c, 4, 57, 0
13, 594621, Note_on_c, 4, 50, 0
13, 594624, Note_on_c, 4, 53, 0
13, 594722, Note_on_c, 4, 59, 118
13, 594728, Note_on_c, 4, 50, 104
13, 594732, Note_on_c, 4, 55, 120
13, 594740, Note_on_c, 4, 30, 109
13, 594842, Note_on_c, 4, 59, 0
13, 594848, Note_on_c, 4, 50, 0
13, 594852, Note_on_c, 4, 55, 0
13, 594965, Note_on_c, 4, 28, 117
13, 594968, Note_on_c, 4, 57, 122
13, 594980, Note_on_c, 4, 30, 0
13, 594981, Note_on_c, 4, 53, 111
13, 594982, Note_on_c, 4, 60, 116
13, 595085, Note_on_c, 4, 28, 0
13, 595088, Note_on_c, 4, 57, 0
13, 595101, Note_on_c, 4, 53, 0
13, 595102, Note_on_c, 4, 60, 0
13, 595200, Note_on_c, 4, 59, 118
13, 595217, Note_on_c, 4, 50, 117
13, 595217, Note_on_c, 4, 30, 106
13, 595219, Note_on_c, 4, 55, 119
13, 595320, Note_on_c, 4, 59, 0
13, 595337, Note_on_c, 4, 50, 0
13, 595339, Note_on_c, 4, 55, 0
13, 595440, Note_on_c, 4, 28, 104
13, 595447, Note_on_c, 4, 57, 120
13, 595457, Note_on_c, 4, 30, 0
13, 595457, Note_on_c, 4, 53, 124
13, 595464, Note_on_c, 4, 60, 123
13, 595560, Note_on_c, 4, 28, 0
13, 595567, Note_on_c, 4, 57, 0
13, 595577, Note_on_c, 4, 53, 0
13, 595584, Note_on_c, 4, 60, 0
13, 595681, Note_on_c, 4, 55, 112
13, 595686, Note_on_c, 4, 30, 117
13, 595692, Note_on_c, 4, 59, 119
13, 595693, Note_on_c, 4, 50, 121
13, 595801, Note_on_c, 4, 55, 0
13, 595812, Note_on_c, 4, 59, 0
13, 595813, Note_on_c, 4, 50, 0
13, 595926, Note_on_c, 4, 30, 0
13, 595927, Note_on_c, 4, 53, 108
13, 595929, Note_on_c, 4, 62, 115
13, 595929, Note_on_c, 4, 57, 115
13, 595934, Note_on_c, 4, 28, 109
13, 596047, Note_on_c, 4, 53, 0
13, 596049, Note_on_c, 4, 62, 0
13, 596049, Note_on_c, 4, 57, 0
13, 596054, Note_on_c, 4, 28, 0
13, 596162, Note_on_c, 4, 48, 111
13, 596165, Note_on_c, 4, 57, 115
13, 596171, Note_on_c, 4, 30, 110
13, 596177, Note_on_c, 4, 53, 124
13, 596411, Note_on_c, 4, 30, 0
13, 596422, Note_on_c, 4, 28, 112
13, 596522, Note_on_c, 4, 48, 0
13, 596525, Note_on_c, 4, 57, 0
13, 596537, Note_on_c, 4, 53, 0
13, 596542, Note_on_c, 4, 28, 0
13, 596642, Note_on_c, 4, 50, 114
13, 596657, Note_on_c, 4, 59, 123
13, 596661, Note_on_c, 4, 30, 123
13, 596664, Note_on_c, 4, 55, 109
13, 596762, Note_on_c, 4, 50, 0
13, 596777, Note_on_c, 4, 59, 0
13, 596784, Note_on_c, 4, 55, 0
13, 596880, Note_on_c, 4, 28, 106
13, 596881, Note_on_c, 4, 57, 124
13, 596888, Note_on_c, 4, 60, 107
13, 596901, Note_on_c, 4, 30, 0
13, 596903, Note_on_c, 4, 53, 112
13, 597000, Note_on_c, 4, 28, 0
13, 597001, Note_on_c, 4, 57, 0
13, 597008, Note_on_c, 4, 60, 0
13, 597023, Note_on_c, 4, 53, 0
13, 597121, Note_on_c, 4, 59, 111
13, 597133, Note_on_c, 4, 55, 118
13, 597141, Note_on_c, 4, 50, 118
13, 597142, Note_on_c, 4, 30, 116
13, 597241, Note_on_c, 4, 59, 0
13, 597253, Note_on_c, 4, 55, 0
13, 597261, Note_on_c, 4, 50, 0
13, 597370, Note_on_c, 4, 53, 110
13, 597371, Note_on_c, 4, 62, 118
13, 597375, Note_on_c, 4, 28, 114
13, 597379, Note_on_c, 4, 57, 121
13, 597382, Note_on_c, 4, 30, 0
13, 597490, Note_on_c, 4, 53, 0
13, 597491, Note_on_c, 4, 62, 0
13, 597495, Note_on_c, 4, 28, 0
13, 597499, Note_on_c, 4, 57, 0
13, 597604, Note_on_c, 4, 30, 116
13, 597613, Note_on_c, 4, 53, 120
13, 597617, Note_on_c, 4, 48, 109
13, 597623, Note_on_c, 4, 57, 112
13, 597840, Note_on_c, 4, 28, 104
13, 597844, Note_on_c, 4, 30, 0
13, 597960, Note_on_c, 4, 28, 0
13, 597973, Note_on_c, 4, 53, 0
13, 597977, Note_on_c, 4, 48, 0
13, 597983, Note_on_c, 4, 57, 0
13, 598093, Note_on_c, 4, 57, 115
13, 598096, Note_on_c, 4, 48, 107
13, 598104, Note_on_c, 4, 53, 113
13, 598104, Note_on_c, 4, 30, 119
13, 598236, Note_on_c, 4, 57, 0
13, 598239, Note_on_c, 4, 48, 0
13, 598247, Note_on_c, 4, 53, 0
13, 598331, Note_on_c, 4, 28, 114
13, 598344, Note_on_c, 4, 30, 0
13, 598451, Note_on_c, 4, 28, 0
13, 598562, Note_on_c, 4, 30, 124
13, 598564, Note_on_c, 4, 52, 109
13, 598572, Note_on_c, 4, 55, 106
13, 598578, Note_on_c, 4, 47, 107
13, 598684, Note_on_c, 4, 52, 0
13, 598692, Note_on_c, 4, 55, 0
13, 598698, Note_on_c, 4, 47, 0
13, 598800, Note_on_c, 4, 50, 115
13, 598801, Note_on_c, 4, 57, 122
13, 598802, Note_on_c, 4, 30, 0
13, 598802, Note_on_c, 4, 53, 116
13, 598822, Note_on_c, 4, 28, 105
13, 598920, Note_on_c, 4, 50, 0
13, 598921, Note_on_c, 4, 57, 0
13, 598922, Note_on_c, 4, 53, 0
13, 598942, Note_on_c, 4, 28, 0
13, 599041, Note_on_c, 4, 59, 107
13, 599047, Note_on_c, 4, 30, 104
13, 599048, Note_on_c, 4, 55, 113
13, 599065, Note_on_c, 4, 50, 124
13, 599161, Note_on_c, 4, 59, 0
13, 599168, Note_on_c, 4, 55, 0
13, 599185, Note_on_c, 4, 50, 0
13, 599282, Note_on_c, 4, 57, 122
13, 599282, Note_on_c, 4, 28, 122
13, 599287, Note_on_c, 4, 30, 0
13, 599295, Note_on_c, 4, 53, 117
13, 599296, Note_on_c, 4, 60, 118
13, 599402, Note_on_c, 4, 57, 0
13, 599402, Note_on_c, 4, 28, 0
13, 599415, Note_on_c, 4, 53, 0
13, 599416, Note_on_c, 4, 60, 0
13, 599530, Note_on_c, 4, 59, 114
13, 599540, Note_on_c, 4, 55, 124
13, 599540, Note_on_c, 4, 50, 113
13, 599542, Note_on_c, 4, 30, 119
13, 599650, Note_on_c, 4, 59, 0
13, 599660, Note_on_c, 4, 55, 0
13, 599660, Note_on_c, 4, 50, 0
13, 599760, Note_on_c, 4, 60, 118
13, 599766, Note_on_c, 4, 28, 110
13, 599774, Note_on_c, 4, 57, 112
13, 599782, Note_on_c, 4, 30, 0
13, 599784, Note_on_c, 4, 53, 123
13, 599880, Note_on_c, 4, 60, 0
13, 599886, Note_on_c, 4, 28, 0
13, 599894, Note_on_c, 4, 57, 0
13, 599904, Note_on_c, 4, 53, 0
13, 600003, Note_on_c, 4, 55, 121
13, 600004, Note_on_c, 4, 50, 118
13, 600014, Note_on_c, 4, 59, 106
13, 600014, Note_on_c, 4, 30, 117
13, 600123, Note_on_c, 4, 55, 0
13, 600124, Note_on_c, 4, 50, 0
13, 600134, Note_on_c, 4, 59, 0
13, 600254, Note_on_c, 4, 30, 0
13, 600255, Note_on_c, 4, 57, 111
13, 600255, Note_on_c, 4, 53, 110
13, 600256, Note_on_c, 4, 28, 115
13, 600262, Note_on_c, 4, 62, 115
13, 600375, Note_on_c, 4, 57, 0
13, 600375, Note_on_c, 4, 53, 0
13, 600376, Note_on_c, 4, 28, 0
13, 600382, Note_on_c, 4, 62, 0
13, 600482, Note_on_c, 4, 57, 113
13, 600485, Note_on_c, 4, 53, 115
13, 600499, Note_on_c, 4, 30, 124
13, 600505, Note_on_c, 4, 60, 118
13, 600602, Note_on_c, 4, 57, 0
13, 600605, Note_on_c, 4, 53, 0
13, 600625, Note_on_c, 4, 60, 0
13, 600723, Note_on_c, 4, 59, 113
13, 600726, Note_on_c, 4, 50, 107
13, 600731, Note_on_c, 4, 28, 120
13, 600735, Note_on_c, 4, 55, 120
13, 600739, Note_on_c, 4, 30, 0
13, 600843, Note_on_c, 4, 59, 0
13, 600846, Note_on_c, 4, 50, 0
13, 600851, Note_on_c, 4, 28, 0
13, 600855, Note_on_c, 4, 55, 0
13, 600961, Note_on_c, 4, 53, 109
13, 600971, Note_on_c, 4, 57, 120
13, 600972, Note_on_c, 4, 48, 112
13, 600984, Note_on_c, 4, 30, 123
13, 601081, Note_on_c, 4, 53, 0
13, 601091, Note_on_c, 4, 57, 0
13, 601092, Note_on_c, 4, 48, 0
13, 601204, Note_on_c, 4, 28, 124
13, 601210, Note_on_c, 4, 52, 116
13, 601210, Note_on_c, 4, 55, 115
13, 601218, Note_on_c, 4, 47, 105
13, 601224, Note_on_c, 4, 30, 0
13, 601324, Note_on_c, 4, 28, 0
13, 601330, Note_on_c, 4, 52, 0
13, 601330, Note_on_c, 4, 55, 0
13, 601338, Note_on_c, 4, 47, 0
13, 601441, Note_on_c, 4, 48, 111
13, 601450, Note_on_c, 4, 30, 117
13, 601459, Note_on_c, 4, 53, 119
13, 601459, Note_on_c, 4, 57, 106
13, 601561, Note_on_c, 4, 48, 0
13, 601579, Note_on_c, 4, 53, 0
13, 601579, Note_on_c, 4, 57, 0
13, 601690, Note_on_c, 4, 30, 0
13, 601701, Note_on_c, 4, 28, 115
13, 601821, Note_on_c, 4, 28, 0
13, 601934, Note_on_c, 4, 30, 114
13, 602170, Note_on_c, 4, 28, 113
13, 602174, Note_on_c, 4, 30, 0
13, 602290, Note_on_c, 4, 28, 0
13, 602407, Note_on_c, 4, 30, 115
13, 602647, Note_on_c, 4, 30, 0
13, 602661, Note_on_c, 4, 28, 120
13, 602781, Note_on_c, 4, 28, 0
13, 602905, Note_on_c, 4, 30, 106
13, 603134, Note_on_c, 4, 28, 119
13, 603145, Note_on_c, 4, 30, 0
13, 603254, Note_on_c, 4, 28, 0
13, 603385, Note_on_c, 4, 30, 104
13, 603605, Note_on_c, 4, 28, 115
13, 603625, Note_on_c, 4, 30, 0
13, 603725, Note_on_c, 4, 28, 0
13, 603843, Note_on_c, 4, 30, 120
13, 604083, Note_on_c, 4, 30, 0
13, 604087, Note_on_c, 4, 28, 109
13, 604207, Note_on_c, 4, 28, 0
13, 625410, Note_on_c, 4, 42, 107
13, 625410, Note_on_c, 4, 42, 113
13, 625440, Note_on_c, 4, 42, 0
13, 625440, Note_on_c, 4, 42, 0
13, 625446, Note_on_c, 4, 44, 49
13, 625460, Note_on_c, 4, 44, 53
13, 625461, Note_on_c, 4, 38, 43
13, 625556, Note_on_c, 4, 38, 0
13, 625580, Note_on_c, 4, 44, 0
13, 625692, Note_on_c, 4, 26, 41
13, 625702, Note_on_c, 4, 44, 46
13, 625787, Note_on_c, 4, 26, 0
13, 625806, Note_on_c, 4, 44, 0
13, 625822, Note_on_c, 4, 44, 0
13, 625890, Note_on_c, 4, 42, 43
13, 625890, Note_on_c, 4, 42, 47
13, 625920, Note_on_c, 4, 42, 0
13, 625920, Note_on_c, 4, 42, 0
13, 625923, Note_on_c, 4, 38, 46
13, 625926, Note_on_c, 4, 44, 59
13, 625931, Note_on_c, 4, 44, 59
13, 626018, Note_on_c, 4, 38, 0
13, 626046, Note_on_c, 4, 44, 0
13, 626166, Note_on_c, 4, 26, 43
13, 626173, Note_on_c, 4, 44, 46
13, 626261, Note_on_c, 4, 26, 0
13, 626291, Note_on_c, 4, 44, 0
13, 626293, Note_on_c, 4, 44, 0
13, 626370, Note_on_c, 4, 42, 46
13, 626370, Note_on_c, 4, 42, 46
13, 626400, Note_on_c, 4, 42, 0
13, 626400, Note_on_c, 4, 42, 0
13, 626404, Note_on_c, 4, 44, 55
13, 626413, Note_on_c, 4, 44, 41
13, 626416, Note_on_c, 4, 38, 40
13, 626511, Note_on_c, 4, 38, 0
13, 626533, Note_on_c, 4, 44, 0
13, 626641, Note_on_c, 4, 26, 44
13, 626657, Note_on_c, 4, 44, 43
13, 626736, Note_on_c, 4, 26, 0
13, 626764, Note_on_c, 4, 44, 0
13, 626777, Note_on_c, 4, 44, 0
13, 626850, Note_on_c, 4, 42, 54
13, 626850, Note_on_c, 4, 42, 42
13, 626880, Note_on_c, 4, 42, 0
13, 626880, Note_on_c, 4, 42, 0
13, 626883, Note_on_c, 4, 38, 45
13, 626898, Note_on_c, 4, 44, 53
13, 626900, Note_on_c, 4, 44, 56
13, 626978, Note_on_c, 4, 38, 0
13, 627020, Note_on_c, 4, 44, 0
13, 627138, Note_on_c, 4, 44, 39
13, 627143, Note_on_c, 4, 26, 53
13, 627238, Note_on_c, 4, 26, 0
13, 627258, Note_on_c, 4, 44, 0
13, 627258, Note_on_c, 4, 44, 0
13, 627330, Note_on_c, 4, 42, 43
13, 627330, Note_on_c, 4, 42, 39
13, 627360, Note_on_c, 4, 42, 0
13, 627360, Note_on_c, 4, 42, 0
13, 627362, Note_on_c, 4, 38, 45
13, 627368, Note_on_c, 4, 44, 58
13, 627377, Note_on_c, 4, 44, 52
13, 627457, Note_on_c, 4, 38, 0
13, 627488, Note_on_c, 4, 44, 0
13, 627618, Note_on_c, 4, 26, 48
13, 627625, Note_on_c, 4, 44, 48
13, 627713, Note_on_c, 4, 26, 0
13, 627737, Note_on_c, 4, 44, 0
13, 627745, Note_on_c, 4, 44, 0
13, 627810, Note_on_c, 4, 42, 44
13, 627810, Note_on_c, 4, 42, 52
13, 627840, Note_on_c, 4, 42, 0
13, 627840, Note_on_c, 4, 42, 0
13, 627848, Note_on_c, 4, 44, 46
13, 627848, Note_on_c, 4, 44, 48
13, 627862, Note_on_c, 4, 38, 50
13, 627957, Note_on_c, 4, 38, 0
13, 627968, Note_on_c, 4, 44, 0
13, 628089, Note_on_c, 4, 44, 41
13, 628097, Note_on_c, 4, 26, 49
13, 628192, Note_on_c, 4, 26, 0
13, 628208, Note_on_c, 4, 44, 0
13, 628209, Note_on_c, 4, 44, 0
13, 628290, Note_on_c, 4, 42, 59
13, 628290, Note_on_c, 4, 42, 57
13, 628320, Note_on_c, 4, 42, 0
13, 628320, Note_on_c, 4, 42, 0
13, 628323, Note_on_c, 4, 38, 43
13, 628331, Note_on_c, 4, 44, 54
13, 628343, Note_on_c, 4, 44, 40
13, 628418, Note_on_c, 4, 38, 0
13, 628463, Note_on_c, 4, 44, 0
13, 628567, Note_on_c, 4, 44, 43
13, 628571, Note_on_c, 4, 26, 53
13, 628666, Note_on_c, 4, 26, 0
13, 628687, Note_on_c, 4, 44, 0
13, 628691, Note_on_c, 4, 44, 0
13, 628770, Note_on_c, 4, 42, 47
13, 628770, Note_on_c, 4, 42, 50
13, 628800, Note_on_c, 4, 42, 0
13, 628800, Note_on_c, 4, 42, 0
13, 628811, Note_on_c, 4, 44, 58
13, 628821, Note_on_c, 4, 44, 47
13, 628821, Note_on_c, 4, 38, 55
13, 628916, Note_on_c, 4, 38, 0
13, 628941, Note_on_c, 4, 44, 0
13, 629056, Note_on_c, 4, 26, 45
13, 629062, Note_on_c, 4, 44, 55
13, 629151, Note_on_c, 4, 26, 0
13, 629171, Note_on_c, 4, 44, 0
13, 629182, Note_on_c, 4, 44, 0
13, 629250, Note_on_c, 4, 42, 57
13, 629250, Note_on_c, 4, 42, 56
13, 629280, Note_on_c, 4, 42, 0
13, 629280, Note_on_c, 4, 42, 0
13, 629282, Note_on_c, 4, 44, 47
13, 629284, Note_on_c, 4, 44, 59
13, 629299, Note_on_c, 4, 38, 52
13, 629394, Note_on_c, 4, 38, 0
13, 629404, Note_on_c, 4, 44, 0
13, 629521, Note_on_c, 4, 26, 45
13, 629542, Note_on_c, 4, 44, 48
13, 629616, Note_on_c, 4, 26, 0
13, 629642, Note_on_c, 4, 44, 0
13, 629662, Note_on_c, 4, 44, 0
13, 629730, Note_on_c, 4, 42, 42
13, 629730, Note_on_c, 4, 42, 52
13, 629760, Note_on_c, 4, 42, 0
13, 629760, Note_on_c, 4, 42, 0
13, 629774, Note_on_c, 4, 38, 40
13, 629781, Note_on_c, 4, 44, 48
13, 629784, Note_on_c, 4, 44, 40
13, 629869, Note_on_c, 4, 38, 0
13, 629901, Note_on_c, 4, 44, 0
13, 630001, Note_on_c, 4, 44, 40
13, 630017, Note_on_c, 4, 26, 46
13, 630112, Note_on_c, 4, 26, 0
13, 630121, Note_on_c, 4, 44, 0
13, 630144, Note_on_c, 4, 44, 0
13, 630210, Note_on_c, 4, 42, 52
13, 630210, Note_on_c, 4, 42, 57
13, 630240, Note_on_c, 4, 42, 0
13, 630240, Note_on_c, 4, 42, 0
13, 630240, Note_on_c, 4, 44, 47
13, 630240, Note_on_c, 4, 38, 54
13, 630241, Note_on_c, 4, 44, 56
13, 630335, Note_on_c, 4, 38, 0
13, 630360, Note_on_c, 4, 44, 0
13, 630490, Note_on_c, 4, 26, 39
13, 630491, Note_on_c, 4, 44, 51
13, 630585, Note_on_c, 4, 26, 0
13, 630601, Note_on_c, 4, 44, 0
13, 630611, Note_on_c, 4, 44, 0
13, 630690, Note_on_c, 4, 42, 47
13, 630690, Note_on_c, 4, 42, 58
13, 630720, Note_on_c, 4, 42, 0
13, 630720, Note_on_c, 4, 42, 0
13, 630721, Note_on_c, 4, 38, 48
13, 630725, Note_on_c, 4, 44, 44
13, 630729, Note_on_c, 4, 44, 59
13, 630816, Note_on_c, 4, 38, 0
13, 630849, Note_on_c, 4, 44, 0
13, 630970, Note_on_c, 4, 44, 57
13, 630983, Note_on_c, 4, 26, 55
13, 631078, Note_on_c, 4, 26, 0
13, 631085, Note_on_c, 4, 44, 0
13, 631090, Note_on_c, 4, 44, 0
13, 631170, Note_on_c, 4, 42, 45
13, 631170, Note_on_c, 4, 42, 41
13, 631200, Note_on_c, 4, 42, 0
13, 631200, Note_on_c, 4, 42, 0
13, 631203, Note_on_c, 4, 44, 55
13, 631206, Note_on_c, 4, 38, 52
13, 631215, Note_on_c, 4, 44, 40
13, 631301, Note_on_c, 4, 38, 0
13, 631335, Note_on_c, 4, 44, 0
13, 631443, Note_on_c, 4, 26, 59
13, 631452, Note_on_c, 4, 44, 54
13, 631538, Note_on_c, 4, 26, 0
13, 631563, Note_on_c, 4, 44, 0
13, 631572, Note_on_c, 4, 44, 0
13, 631650, Note_on_c, 4, 42, 39
13, 631650, Note_on_c, 4, 42, 46
13, 631680, Note_on_c, 4, 42, 0
13, 631680, Note_on_c, 4, 42, 0
13, 631690, Note_on_c, 4, 44, 40
13, 631694, Note_on_c, 4, 38, 55
13, 631700, Note_on_c, 4, 44, 51
13, 631789, Note_on_c, 4, 38, 0
13, 631810, Note_on_c, 4, 44, 0
13, 631935, Note_on_c, 4, 26, 42
13, 631944, Note_on_c, 4, 44, 58
13, 632030, Note_on_c, 4, 26, 0
13, 632060, Note_on_c, 4, 44, 0
13, 632064, Note_on_c, 4, 44, 0
13, 632130, Note_on_c, 4, 42, 47
13, 632130, Note_on_c, 4, 42, 43
13, 632160, Note_on_c, 4, 42, 0
13, 632160, Note_on_c, 4, 42, 0
13, 632162, Note_on_c, 4, 44, 54
13, 632170, Note_on_c, 4, 44, 53
13, 632185, Note_on_c, 4, 38, 57
13, 632280, Note_on_c, 4, 38, 0
13, 632290, Note_on_c, 4, 44, 0
13, 632419, Note_on_c, 4, 26, 45
13, 632424, Note_on_c, 4, 44, 54
13, 632514, Note_on_c, 4, 26, 0
13, 632522, Note_on_c, 4, 44, 0
13, 632544, Note_on_c, 4, 44, 0
13, 632610, Note_on_c, 4, 42, 54
13, 632610, Note_on_c, 4, 42, 48
13, 632640, Note_on_c, 4, 42, 0
13, 632640, Note_on_c, 4, 42, 0
13, 632645, Note_on_c, 4, 44, 47
13, 632648, Note_on_c, 4, 38, 47
13, 632662, Note_on_c, 4, 44, 51
13, 632743, Note_on_c, 4, 38, 0
13, 632765, Note_on_c, 4, 44, 0
13, 632887, Note_on_c, 4, 44, 47
13, 632900, Note_on_c, 4, 26, 45
13, 632995, Note_on_c, 4, 26, 0
13, 633007, Note_on_c, 4, 44, 0
13, 633022, Note_on_c, 4, 44, 0
13, 633090, Note_on_c, 4, 42, 45
13, 633090, Note_on_c, 4, 42, 57
13, 633120, Note_on_c, 4, 42, 0
13, 633120, Note_on_c, 4, 42, 0
13, 633122, Note_on_c, 4, 44, 51
13, 633126, Note_on_c, 4, 38, 52
13, 633131, Note_on_c, 4, 44, 56
13, 633221, Note_on_c, 4, 38, 0
13, 633242, Note_on_c, 4, 44, 0
13, 633367, Note_on_c, 4, 26, 49
13, 633373, Note_on_c, 4, 44, 59
13, 633462, Note_on_c, 4, 26, 0
13, 633491, Note_on_c, 4, 44, 0
13, 633493, Note_on_c, 4, 44, 0
13, 633570, Note_on_c, 4, 42, 49
13, 633570, Note_on_c, 4, 42, 53
13, 633600, Note_on_c, 4, 42, 0
13, 633600, Note_on_c, 4, 42, 0
13, 633608, Note_on_c, 4, 38, 44
13, 633613, Note_on_c, 4, 44, 56
13, 633620, Note_on_c, 4, 44, 55
13, 633703, Note_on_c, 4, 38, 0
13, 633740, Note_on_c, 4, 44, 0
13, 633850, Note_on_c, 4, 26, 47
13, 633865, Note_on_c, 4, 44, 54
13, 633945, Note_on_c, 4, 26, 0
13, 633973, Note_on_c, 4, 44, 0
13, 633985, Note_on_c, 4, 44, 0
13, 634050, Note_on_c, 4, 42, 49
13, 634050, Note_on_c, 4, 42, 46
13, 634080, Note_on_c, 4, 42, 0
13, 634080, Note_on_c, 4, 42, 0
13, 634087, Note_on_c, 4, 38, 45
13, 634091, Note_on_c, 4, 44, 45
13, 634094, Note_on_c, 4, 44, 56
13, 634182, Note_on_c, 4, 38, 0
13, 634211, Note_on_c, 4, 44, 0
13, 634334, Note_on_c, 4, 26, 39
13, 634339, Note_on_c, 4, 44, 47
13, 634429, Note_on_c, 4, 26, 0
13, 634454, Note_on_c, 4, 44, 0
13, 634459, Note_on_c, 4, 44, 0
13, 634530, Note_on_c, 4, 42, 44
13, 634530, Note_on_c, 4, 42, 40
13, 634560, Note_on_c, 4, 42, 0
13, 634560, Note_on_c, 4, 42, 0
13, 634562, Note_on_c, 4, 38, 59
13, 634573, Note_on_c, 4, 44, 41
13, 634579, Note_on_c, 4, 44, 53
13, 634657, Note_on_c, 4, 38, 0
13, 634693, Note_on_c, 4, 44, 0
13, 634808, Note_on_c, 4, 26, 48
13, 634815, Note_on_c, 4, 44, 44
13, 634903, Note_on_c, 4, 26, 0
13, 634935, Note_on_c, 4, 44, 0
13, 634939, Note_on_c, 4, 44, 0
13, 635010, Note_on_c, 4, 42, 49
13, 635010, Note_on_c, 4, 42, 59
13, 635040, Note_on_c, 4, 42, 0
13, 635040, Note_on_c, 4, 42, 0
13, 635042, Note_on_c, 4, 44, 50
13, 635053, Note_on_c, 4, 44, 40
13, 635060, Note_on_c, 4, 38, 46
13, 635155, Note_on_c, 4, 38, 0
13, 635162, Note_on_c, 4, 44, 0
13, 635282, Note_on_c, 4, 26, 54
13, 635296, Note_on_c, 4, 44, 53
13, 635377, Note_on_c, 4, 26, 0
13, 635413, Note_on_c, 4, 44, 0
13, 635416, Note_on_c, 4, 44, 0
13, 635490, Note_on_c, 4, 42, 43
13, 635490, Note_on_c, 4, 42, 56
13, 635520, Note_on_c, 4, 42, 0
13, 635520, Note_on_c, 4, 42, 0
13, 635520, Note_on_c, 4, 38, 59
13, 635542, Note_on_c, 4, 44, 45
13, 635544, Note_on_c, 4, 44, 52
13, 635615, Note_on_c, 4, 38, 0
13, 635664, Note_on_c, 4, 44, 0
13, 635765, Note_on_c, 4, 26, 41
13, 635773, Note_on_c, 4, 44, 45
13, 635860, Note_on_c, 4, 26, 0
13, 635893, Note_on_c, 4, 44, 0
13, 635902, Note_on_c, 4, 44, 0
13, 635970, Note_on_c, 4, 42, 44
13, 635970, Note_on_c, 4, 42, 52
13, 636000, Note_on_c, 4, 42, 0
13, 636000, Note_on_c, 4, 42, 0
13, 636010, Note_on_c, 4, 44, 54
13, 636017, Note_on_c, 4, 44, 58
13, 636019, Note_on_c, 4, 38, 41
13, 636114, Note_on_c, 4, 38, 0
13, 636130, Note_on_c, 4, 44, 0
13, 636256, Note_on_c, 4, 44, 49
13, 636262, Note_on_c, 4, 26, 41
13, 636357, Note_on_c, 4, 26, 0
13, 636376, Note_on_c, 4, 44, 0
13, 636377, Note_on_c, 4, 44, 0
13, 636450, Note_on_c, 4, 42, 44
13, 636450, Note_on_c, 4, 42, 59
13, 636480, Note_on_c, 4, 42, 0
13, 636480, Note_on_c, 4, 42, 0
13, 636485, Note_on_c, 4, 44, 39
13, 636503, Note_on_c, 4, 38, 43
13, 636504, Note_on_c, 4, 44, 58
13, 636598, Note_on_c, 4, 38, 0
13, 636605, Note_on_c, 4, 44, 0
13, 636726, Note_on_c, 4, 44, 58
13, 636728, Note_on_c, 4, 26, 47
13, 636823, Note_on_c, 4, 26, 0
13, 636846, Note_on_c, 4, 44, 0
13, 636864, Note_on_c, 4, 44, 0
13, 636930, Note_on_c, 4, 42, 47
13, 636930, Note_on_c, 4, 42, 47
13, 636960, Note_on_c, 4, 42, 0
13, 636960, Note_on_c, 4, 42, 0
13, 636967, Note_on_c, 4, 44, 40
13, 636977, Note_on_c, 4, 44, 47
13, 636982, Note_on_c, 4, 38, 51
13, 637077, Note_on_c, 4, 38, 0
13, 637097, Note_on_c, 4, 44, 0
13, 637214, Note_on_c, 4, 26, 55
13, 637220, Note_on_c, 4, 44, 42
13, 637309, Note_on_c, 4, 26, 0
13, 637327, Note_on_c, 4, 44, 0
13, 637340, Note_on_c, 4, 44, 0
13, 637410, Note_on_c, 4, 42, 42
13, 637410, Note_on_c, 4, 42, 54
13, 637440, Note_on_c, 4, 42, 0
13, 637440, Note_on_c, 4, 42, 0
13, 637452, Note_on_c, 4, 44, 40
13, 637462, Note_on_c, 4, 44, 40
13, 637462, Note_on_c, 4, 38, 44
13, 637557, Note_on_c, 4, 38, 0
13, 637582, Note_on_c, 4, 44, 0
13, 637693, Note_on_c, 4, 26, 57
13, 637705, Note_on_c, 4, 44, 47
13, 637788, Note_on_c, 4, 26, 0
13, 637812, Note_on_c, 4, 44, 0
13, 637825, Note_on_c, 4, 44, 0
13, 637890, Note_on_c, 4, 42, 44
13, 637890, Note_on_c, 4, 42, 57
13, 637920, Note_on_c, 4, 42, 0
13, 637920, Note_on_c, 4, 42, 0
13, 637925, Note_on_c, 4, 44, 46
13, 637926, Note_on_c, 4, 38, 49
13, 637935, Note_on_c, 4, 44, 58
13, 638021, Note_on_c, 4, 38, 0
13, 638045, Note_on_c, 4, 44, 0
13, 638174, Note_on_c, 4, 44, 54
13, 638181, Note_on_c, 4, 26, 40
13, 638276, Note_on_c, 4, 26, 0
13, 638294, Note_on_c, 4, 44, 0
13, 638295, Note_on_c, 4, 44, 0
13, 638370, Note_on_c, 4, 42, 51
13, 638370, Note_on_c, 4, 42, 52
13, 638400, Note_on_c, 4, 42, 0
13, 638400, Note_on_c, 4, 42, 0
13, 638403, Note_on_c, 4, 38, 54
13, 638413, Note_on_c, 4, 44, 49
13, 638416, Note_on_c, 4, 44, 42
13, 638498, Note_on_c, 4, 38, 0
13, 638533, Note_on_c, 4, 44, 0
13, 638650, Note_on_c, 4, 26, 59
13, 638655, Note_on_c, 4, 44, 52
13, 638745, Note_on_c, 4, 26, 0
13, 638775, Note_on_c, 4, 44, 0
13, 638776, Note_on_c, 4, 44, 0
13, 638850, Note_on_c, 4, 42, 59
13, 638850, Note_on_c, 4, 42, 51
13, 638880, Note_on_c, 4, 42, 0
13, 638880, Note_on_c, 4, 42, 0
13, 638888, Note_on_c, 4, 44, 77
13, 638892, Note_on_c, 4, 44, 81
13, 638900, Note_on_c, 4, 38, 71
13, 638995, Note_on_c, 4, 38, 0
13, 639012, Note_on_c, 4, 44, 0
13, 639127, Note_on_c, 4, 44, 74
13, 639134, Note_on_c, 4, 26, 73
13, 639229, Note_on_c, 4, 26, 0
13, 639247, Note_on_c, 4, 44, 0
13, 639248, Note_on_c, 4, 44, 0
13, 639330, Note_on_c, 4, 42, 81
13, 639330, Note_on_c, 4, 42, 71
13, 639360, Note_on_c, 4, 42, 0
13, 639360, Note_on_c, 4, 42, 0
13, 639362, Note_on_c, 4, 38, 85
13, 639371, Note_on_c, 4, 44, 76
13, 639373, Note_on_c, 4, 44, 82
13, 639457, Note_on_c, 4, 38, 0
13, 639493, Note_on_c, 4, 44, 0
13, 639609, Note_on_c, 4, 44, 85
13, 639616, Note_on_c, 4, 26, 83
13, 639711, Note_on_c, 4, 26, 0
13, 639729, Note_on_c, 4, 44, 0
13, 639731, Note_on_c, 4, 44, 0
13, 639810, Note_on_c, 4, 42, 79
13, 639810, Note_on_c, 4, 42, 72
13, 639840, Note_on_c, 4, 42, 0
13, 639840, Note_on_c, 4, 42, 0
13, 639846, Note_on_c, 4, 38, 67
13, 639861, Note_on_c, 4, 44, 70
13, 639864, Note_on_c, 4, 44, 85
13, 639941, Note_on_c, 4, 38, 0
13, 639984, Note_on_c, 4, 44, 0
13, 640083, Note_on_c, 4, 44, 83
13, 640098, Note_on_c, 4, 26, 79
13, 640193, Note_on_c, 4, 26, 0
13, 640203, Note_on_c, 4, 44, 0
13, 640221, Note_on_c, 4, 44, 0
13, 640290, Note_on_c, 4, 42, 69
13, 640290, Note_on_c, 4, 42, 65
13, 640320, Note_on_c, 4, 42, 0
13, 640320, Note_on_c, 4, 42, 0
13, 640330, Note_on_c, 4, 44, 73
13, 640341, Note_on_c, 4, 44, 71
13, 640343, Note_on_c, 4, 38, 75
13, 640438, Note_on_c, 4, 38, 0
13, 640461, Note_on_c, 4, 44, 0
13, 640566, Note_on_c, 4, 44, 71
13, 640582, Note_on_c, 4, 26, 85
13, 640677, Note_on_c, 4, 26, 0
13, 640686, Note_on_c, 4, 44, 0
13, 640690, Note_on_c, 4, 44, 0
13, 640770, Note_on_c, 4, 42, 73
13, 640770, Note_on_c, 4, 42, 83
13, 640800, Note_on_c, 4, 42, 0
13, 640800, Note_on_c, 4, 42, 0
13, 640809, Note_on_c, 4, 44, 82
13, 640820, Note_on_c, 4, 38, 84
13, 640824, Note_on_c, 4, 44, 82
13, 640915, Note_on_c, 4, 38, 0
13, 640929, Note_on_c, 4, 44, 0
13, 641045, Note_on_c, 4, 44, 68
13, 641058, Note_on_c, 4, 26, 76
13, 641153, Note_on_c, 4, 26, 0
13, 641165, Note_on_c, 4, 44, 0
13, 641184, Note_on_c, 4, 44, 0
13, 641250, Note_on_c, 4, 42, 77
13, 641250, Note_on_c, 4, 42, 67
13, 641280, Note_on_c, 4, 42, 0
13, 641280, Note_on_c, 4, 42, 0
13, 641284, Note_on_c, 4, 38, 81
13, 641296, Note_on_c, 4, 44, 84
13, 641305, Note_on_c, 4, 44, 73
13, 641379, Note_on_c, 4, 38, 0
13, 641425, Note_on_c, 4, 44, 0
13, 641523, Note_on_c, 4, 26, 76
13, 641531, Note_on_c, 4, 44, 75
13, 641618, Note_on_c, 4, 26, 0
13, 641651, Note_on_c, 4, 44, 0
13, 641656, Note_on_c, 4, 44, 0
13, 641730, Note_on_c, 4, 42, 70
13, 641730, Note_on_c, 4, 42, 81
13, 641760, Note_on_c, 4, 42, 0
13, 641760, Note_on_c, 4, 42, 0
13, 641766, Note_on_c, 4, 44, 68
13, 641770, Note_on_c, 4, 38, 66
13, 641781, Note_on_c, 4, 44, 71
13, 641865, Note_on_c, 4, 38, 0
13, 641886, Note_on_c, 4, 44, 0
13, 642004, Note_on_c, 4, 26, 82
13, 642014, Note_on_c, 4, 44, 73
13, 642099, Note_on_c, 4, 26, 0
13, 642134, Note_on_c, 4, 44, 0
13, 642141, Note_on_c, 4, 44, 0
13, 642210, Note_on_c, 4, 42, 66
13, 642210, Note_on_c, 4, 42, 76
13, 642240, Note_on_c, 4, 42, 0
13, 642240, Note_on_c, 4, 42, 0
13, 642252, Note_on_c, 4, 38, 71
13, 642254, Note_on_c, 4, 44, 83
13, 642261, Note_on_c, 4, 44, 72
13, 642347, Note_on_c, 4, 38, 0
13, 642374, Note_on_c, 4, 44, 0
13, 642481, Note_on_c, 4, 44, 74
13, 642494, Note_on_c, 4, 26, 82
13, 642589, Note_on_c, 4, 26, 0
13, 642601, Note_on_c, 4, 44, 0
13, 642621, Note_on_c, 4, 44, 0
13, 642690, Note_on_c, 4, 42, 80
13, 642690, Note_on_c, 4, 42, 85
13, 642720, Note_on_c, 4, 42, 0
13, 642720, Note_on_c, 4, 42, 0
13, 642735, Note_on_c, 4, 44, 80
13, 642744, Note_on_c, 4, 44, 84
13, 642744, Note_on_c, 4, 38, 77
13, 642839, Note_on_c, 4, 38, 0
13, 642855, Note_on_c, 4, 44, 0
13, 642963, Note_on_c, 4, 44, 70
13, 642965, Note_on_c, 4, 26, 70
13, 643060, Note_on_c, 4, 26, 0
13, 643083, Note_on_c, 4, 44, 0
13, 643104, Note_on_c, 4, 44, 0
13, 643170, Note_on_c, 4, 42, 70
13, 643170, Note_on_c, 4, 42, 81
13, 643200, Note_on_c, 4, 42, 0
13, 643200, Note_on_c, 4, 42, 0
13, 643203, Note_on_c, 4, 38, 71
13, 643213, Note_on_c, 4, 44, 75
13, 643220, Note_on_c, 4, 44, 80
13, 643298, Note_on_c, 4, 38, 0
13, 643340, Note_on_c, 4, 44, 0
13, 643457, Note_on_c, 4, 44, 85
13, 643465, Note_on_c, 4, 26, 66
13, 643560, Note_on_c, 4, 26, 0
13, 643573, Note_on_c, 4, 44, 0
13, 643577, Note_on_c, 4, 44, 0
13, 643650, Note_on_c, 4, 42, 75
13, 643650, Note_on_c, 4, 42, 82
13, 643680, Note_on_c, 4, 42, 0
13, 643680, Note_on_c, 4, 42, 0
13, 643688, Note_on_c, 4, 44, 74
13, 643690, Note_on_c, 4, 44, 79
13, 643700, Note_on_c, 4, 38, 84
13, 643795, Note_on_c, 4, 38, 0
13, 643810, Note_on_c, 4, 44, 0
13, 643932, Note_on_c, 4, 26, 85
13, 643943, Note_on_c, 4, 44, 65
13, 644027, Note_on_c, 4, 26, 0
13, 644048, Note_on_c, 4, 44, 0
13, 644063, Note_on_c, 4, 44, 0
13, 644130, Note_on_c, 4, 42, 67
13, 644130, Note_on_c, 4, 42, 75
13, 644160, Note_on_c, 4, 42, 0
13, 644160, Note_on_c, 4, 42, 0
13, 644160, Note_on_c, 4, 44, 85
13, 644161, Note_on_c, 4, 38, 70
13, 644184, Note_on_c, 4, 44, 82
13, 644256, Note_on_c, 4, 38, 0
13, 644280, Note_on_c, 4, 44, 0
13, 644413, Note_on_c, 4, 26, 75
13, 644417, Note_on_c, 4, 44, 81
13, 644508, Note_on_c, 4, 26, 0
13, 644537, Note_on_c, 4, 44, 0
13, 644544, Note_on_c, 4, 44, 0
13, 644610, Note_on_c, 4, 42, 68
13, 644610, Note_on_c, 4, 42, 71
13, 644640, Note_on_c, 4, 42, 0
13, 644640, Note_on_c, 4, 42, 0
13, 644660, Note_on_c, 4, 38, 67
13, 644660, Note_on_c, 4, 44, 70
13, 644664, Note_on_c, 4, 44, 84
13, 644755, Note_on_c, 4, 38, 0
13, 644784, Note_on_c, 4, 44, 0
13, 644885, Note_on_c, 4, 44, 76
13, 644901, Note_on_c, 4, 26, 81
13, 644996, Note_on_c, 4, 26, 0
13, 645005, Note_on_c, 4, 44, 0
13, 645020, Note_on_c, 4, 44, 0
13, 645090, Note_on_c, 4, 42, 70
13, 645090, Note_on_c, 4, 42, 71
13, 645120, Note_on_c, 4, 42, 0
13, 645120, Note_on_c, 4, 42, 0
13, 645124, Note_on_c, 4, 38, 85
13, 645126, Note_on_c, 4, 44, 80
13, 645126, Note_on_c, 4, 44, 65
13, 645219, Note_on_c, 4, 38, 0
13, 645246, Note_on_c, 4, 44, 0
13, 645384, Note_on_c, 4, 44, 75
13, 645385, Note_on_c, 4, 26, 81
13, 645480, Note_on_c, 4, 26, 0
13, 645486, Note_on_c, 4, 44, 0
13, 645504, Note_on_c, 4, 44, 0
13, 645570, Note_on_c, 4, 42, 81
13, 645570, Note_on_c, 4, 42, 83
13, 645600, Note_on_c, 4, 42, 0
13, 645600, Note_on_c, 4, 42, 0
13, 645608, Note_on_c, 4, 44, 74
13, 645622, Note_on_c, 4, 44, 80
13, 645625, Note_on_c, 4, 38, 84
13, 645720, Note_on_c, 4, 38, 0
13, 645742, Note_on_c, 4, 44, 0
13, 645854, Note_on_c, 4, 44, 73
13, 645857, Note_on_c, 4, 26, 69
13, 645952, Note_on_c, 4, 26, 0
13, 645968, Note_on_c, 4, 44, 0
13, 645974, Note_on_c, 4, 44, 0
13, 646050, Note_on_c, 4, 42, 78
13, 646050, Note_on_c, 4, 42, 82
13, 646080, Note_on_c, 4, 42, 0
13, 646080, Note_on_c, 4, 42, 0
13, 646089, Note_on_c, 4, 38, 76
13, 646096, Note_on_c, 4, 44, 82
13, 646097, Note_on_c, 4, 44, 73
13, 646184, Note_on_c, 4, 38, 0
13, 646216, Note_on_c, 4, 44, 0
13, 646332, Note_on_c, 4, 26, 69
13, 646333, Note_on_c, 4, 44, 66
13, 646427, Note_on_c, 4, 26, 0
13, 646453, Note_on_c, 4, 44, 0
13, 646457, Note_on_c, 4, 44, 0
13, 646530, Note_on_c, 4, 42, 83
13, 646530, Note_on_c, 4, 42, 84
13, 646560, Note_on_c, 4, 42, 0
13, 646560, Note_on_c, 4, 42, 0
13, 646573, Note_on_c, 4, 38, 83
13, 646580, Note_on_c, 4, 44, 96
13, 646581, Note_on_c, 4, 44, 85
13, 646668, Note_on_c, 4, 38, 0
13, 646700, Note_on_c, 4, 44, 0
13, 646807, Note_on_c, 4, 26, 87
13, 646816, Note_on_c, 4, 44, 91
13, 646902, Note_on_c, 4, 26, 0
13, 646936, Note_on_c, 4, 44, 0
13, 646941, Note_on_c, 4, 44, 0
13, 647010, Note_on_c, 4, 42, 79
13, 647010, Note_on_c, 4, 42, 82
13, 647040, Note_on_c, 4, 42, 0
13, 647040, Note_on_c, 4, 42, 0
13, 647043, Note_on_c, 4, 44, 92
13, 647053, Note_on_c, 4, 38, 82
13, 647063, Note_on_c, 4, 44, 96
13, 647148, Note_on_c, 4, 38, 0
13, 647163, Note_on_c, 4, 44, 0
13, 647289, Note_on_c, 4, 44, 93
13, 647295, Note_on_c, 4, 26, 81
13, 647390, Note_on_c, 4, 26, 0
13, 647409, Note_on_c, 4, 44, 0
13, 647423, Note_on_c, 4, 44, 0
13, 647490, Note_on_c, 4, 42, 92
13, 647490, Note_on_c, 4, 42, 86
13, 647520, Note_on_c, 4, 42, 0
13, 647520, Note_on_c, 4, 42, 0
13, 647532, Note_on_c, 4, 44, 96
13, 647534, Note_on_c, 4, 38, 93
13, 647541, Note_on_c, 4, 44, 79
13, 647629, Note_on_c, 4, 38, 0
13, 647652, Note_on_c, 4, 44, 0
13, 647760, Note_on_c, 4, 44, 83
13, 647771, Note_on_c, 4, 26, 90
13, 647866, Note_on_c, 4, 26, 0
13, 647880, Note_on_c, 4, 44, 0
13, 647901, Note_on_c, 4, 44, 0
13, 647970, Note_on_c, 4, 42, 95
13, 647970, Note_on_c, 4, 42, 91
13, 648000, Note_on_c, 4, 42, 0
13, 648000, Note_on_c, 4, 42, 0
13, 648003, Note_on_c, 4, 38, 82
13, 648018, Note_on_c, 4, 44, 85
13, 648023, Note_on_c, 4, 44, 95
13, 648098, Note_on_c, 4, 38, 0
13, 648138, Note_on_c, 4, 44, 0
13, 648241, Note_on_c, 4, 44, 97
13, 648245, Note_on_c, 4, 26, 86
13, 648340, Note_on_c, 4, 26, 0
13, 648361, Note_on_c, 4, 44, 0
13, 648383, Note_on_c, 4, 44, 0
13, 648450, Note_on_c, 4, 42, 88
13, 648450, Note_on_c, 4, 42, 89
13, 648480, Note_on_c, 4, 42, 0
13, 648480, Note_on_c, 4, 42, 0
13, 648495, Note_on_c, 4, 44, 91
13, 648499, Note_on_c, 4, 44, 82
13, 648502, Note_on_c, 4, 38, 94
13, 648597, Note_on_c, 4, 38, 0
13, 648619, Note_on_c, 4, 44, 0
13, 648733, Note_on_c, 4, 44, 97
13, 648737, Note_on_c, 4, 26, 88
13, 648832, Note_on_c, 4, 26, 0
13, 648853, Note_on_c, 4, 44, 0
13, 648855, Note_on_c, 4, 44, 0
13, 648930, Note_on_c, 4, 42, 96
13, 648930, Note_on_c, 4, 42, 90
13, 648960, Note_on_c, 4, 42, 0
13, 648960, Note_on_c, 4, 42, 0
13, 648961, Note_on_c, 4, 44, 86
13, 648962, Note_on_c, 4, 44, 83
13, 648968, Note_on_c, 4, 38, 87
13, 649063, Note_on_c, 4, 38, 0
13, 649082, Note_on_c, 4, 44, 0
13, 649208, Note_on_c, 4, 26, 91
13, 649224, Note_on_c, 4, 44, 84
13, 649303, Note_on_c, 4, 26, 0
13, 649321, Note_on_c, 4, 44, 0
13, 649344, Note_on_c, 4, 44, 0
13, 649410, Note_on_c, 4, 42, 79
13, 649410, Note_on_c, 4, 42, 85
13, 649440, Note_on_c, 4, 42, 0
13, 649440, Note_on_c, 4, 42, 0
13, 649443, Note_on_c, 4, 44, 81
13, 649459, Note_on_c, 4, 44, 91
13, 649461, Note_on_c, 4, 38, 95
13, 649556, Note_on_c, 4, 38, 0
13, 649563, Note_on_c, 4, 44, 0
13, 649699, Note_on_c, 4, 44, 96
13, 649704, Note_on_c, 4, 26, 81
13, 649799, Note_on_c, 4, 26, 0
13, 649819, Note_on_c, 4, 44, 0
13, 649819, Note_on_c, 4, 44, 0
13, 649890, Note_on_c, 4, 42, 84
13, 649890, Note_on_c, 4, 42, 91
13, 649920, Note_on_c, 4, 42, 0
13, 649920, Note_on_c, 4, 42, 0
13, 649939, Note_on_c, 4, 44, 80
13, 649943, Note_on_c, 4, 44, 93
13, 649945, Note_on_c, 4, 38, 90
13, 650040, Note_on_c, 4, 38, 0
13, 650059, Note_on_c, 4, 44, 0
13, 650168, Note_on_c, 4, 44, 92
13, 650174, Note_on_c, 4, 26, 83
13, 650269, Note_on_c, 4, 26, 0
13, 650288, Note_on_c, 4, 44, 0
13, 650303, Note_on_c, 4, 44, 0
13, 650370, Note_on_c, 4, 42, 91
13, 650370, Note_on_c, 4, 42, 93
13, 650400, Note_on_c, 4, 42, 0
13, 650400, Note_on_c, 4, 42, 0
13, 650400, Note_on_c, 4, 38, 95
13, 650405, Note_on_c, 4, 44, 86
13, 650425, Note_on_c, 4, 44, 88
13, 650495, Note_on_c, 4, 38, 0
13, 650545, Note_on_c, 4, 44, 0
13, 650641, Note_on_c, 4, 26, 90
13, 650652, Note_on_c, 4, 44, 84
13, 650736, Note_on_c, 4, 26, 0
13, 650765, Note_on_c, 4, 44, 0
13, 650772, Note_on_c, 4, 44, 0
13, 650850, Note_on_c, 4, 42, 86
13, 650850, Note_on_c, 4, 42, 87
13, 650880, Note_on_c, 4, 42, 0
13, 650880, Note_on_c, 4, 42, 0
13, 650896, Note_on_c, 4, 44, 80
13, 650898, Note_on_c, 4, 44, 96
13, 650898, Note_on_c, 4, 38, 92
13, 650993, Note_on_c, 4, 38, 0
13, 651016, Note_on_c, 4, 44, 0
13, 651138, Note_on_c, 4, 44, 92
13, 651142, Note_on_c, 4, 26, 94
13, 651237, Note_on_c, 4, 26, 0
13, 651258, Note_on_c, 4, 44, 0
13, 651258, Note_on_c, 4, 44, 0
13, 651330, Note_on_c, 4, 42, 97
13, 651330, Note_on_c, 4, 42, 80
13, 651360, Note_on_c, 4, 42, 0
13, 651360, Note_on_c, 4, 42, 0
13, 651361, Note_on_c, 4, 38, 79
13, 651370, Note_on_c, 4, 44, 78
13, 651374, Note_on_c, 4, 44, 85
13, 651456, Note_on_c, 4, 38, 0
13, 651494, Note_on_c, 4, 44, 0
13, 651609, Note_on_c, 4, 26, 87
13, 651613, Note_on_c, 4, 44, 96
13, 651704, Note_on_c, 4, 26, 0
13, 651730, Note_on_c, 4, 44, 0
13, 651733, Note_on_c, 4, 44, 0
13, 651810, Note_on_c, 4, 42, 86
13, 651810, Note_on_c, 4, 42, 85
13, 651840, Note_on_c, 4, 42, 0
13, 651840, Note_on_c, 4, 42, 0
13, 651848, Note_on_c, 4, 44, 94
13, 651852, Note_on_c, 4, 38, 91
13, 651853, Note_on_c, 4, 44, 92
13, 651947, Note_on_c, 4, 38, 0
13, 651968, Note_on_c, 4, 44, 0
13, 652089, Note_on_c, 4, 26, 97
13, 652090, Note_on_c, 4, 44, 91
13, 652184, Note_on_c, 4, 26, 0
13, 652210, Note_on_c, 4, 44, 0
13, 652213, Note_on_c, 4, 44, 0
13, 652290, Note_on_c, 4, 42, 87
13, 652290, Note_on_c, 4, 42, 87
13, 652320, Note_on_c, 4, 42, 0
13, 652320, Note_on_c, 4, 42, 0
13, 652324, Note_on_c, 4, 38, 79
13, 652338, Note_on_c, 4, 44, 90
13, 652345, Note_on_c, 4, 44, 94
13, 652419, Note_on_c, 4, 38, 0
13, 652465, Note_on_c, 4, 44, 0
13, 652572, Note_on_c, 4, 44, 82
13, 652577, Note_on_c, 4, 26, 83
13, 652672, Note_on_c, 4, 26, 0
13, 652692, Note_on_c, 4, 44, 0
13, 652698, Note_on_c, 4, 44, 0
13, 652770, Note_on_c, 4, 42, 85
13, 652770, Note_on_c, 4, 42, 88
13, 652800, Note_on_c, 4, 42, 0
13, 652800, Note_on_c, 4, 42, 0
13, 652800, Note_on_c, 4, 38, 98
13, 652806, Note_on_c, 4, 44, 91
13, 652814, Note_on_c, 4, 44, 83
13, 652895, Note_on_c, 4, 38, 0
13, 652926, Note_on_c, 4, 44, 0
13, 653054, Note_on_c, 4, 44, 79
13, 653054, Note_on_c, 4, 26, 95
13, 653149, Note_on_c, 4, 26, 0
13, 653174, Note_on_c, 4, 44, 0
13, 653174, Note_on_c, 4, 44, 0
13, 653250, Note_on_c, 4, 42, 91
13, 653250, Note_on_c, 4, 42, 86
13, 653280, Note_on_c, 4, 42, 0
13, 653280, Note_on_c, 4, 42, 0
13, 653287, Note_on_c, 4, 44, 81
13, 653289, Note_on_c, 4, 38, 86
13, 653301, Note_on_c, 4, 44, 82
13, 653384, Note_on_c, 4, 38, 0
13, 653421, Note_on_c, 4, 44, 0
13, 653532, Note_on_c, 4, 44, 82
13, 653542, Note_on_c, 4, 26, 85
13, 653637, Note_on_c, 4, 26, 0
13, 653647, Note_on_c, 4, 44, 0
13, 653652, Note_on_c, 4, 44, 0
13, 653730, Note_on_c, 4, 42, 96
13, 653730, Note_on_c, 4, 42, 79
13, 653760, Note_on_c, 4, 42, 0
13, 653760, Note_on_c, 4, 42, 0
13, 653760, Note_on_c, 4, 44, 98
13, 653761, Note_on_c, 4, 38, 97
13, 653780, Note_on_c, 4, 44, 78
13, 653856, Note_on_c, 4, 38, 0
13, 653880, Note_on_c, 4, 44, 0
13, 654000, Note_on_c, 4, 26, 97
13, 654016, Note_on_c, 4, 44, 97
13, 654095, Note_on_c, 4, 26, 0
13, 654136, Note_on_c, 4, 44, 0
13, 654140, Note_on_c, 4, 44, 0
13, 654210, Note_on_c, 4, 42, 95
13, 654210, Note_on_c, 4, 42, 94
13, 654240, Note_on_c, 4, 42, 0
13, 654240, Note_on_c, 4, 42, 0
13, 654248, Note_on_c, 4, 38, 95
13, 654251, Note_on_c, 4, 44, 96
13, 654252, Note_on_c, 4, 44, 111
13, 654319, Note_on_c, 4, 38, 0
13, 654371, Note_on_c, 4, 44, 0
13, 654492, Note_on_c, 4, 44, 107
13, 654501, Note_on_c, 4, 26, 108
13, 654572, Note_on_c, 4, 26, 0
13, 654612, Note_on_c, 4, 44, 0
13, 654612, Note_on_c, 4, 44, 0
13, 654690, Note_on_c, 4, 42, 92
13, 654690, Note_on_c, 4, 42, 105
13, 654720, Note_on_c, 4, 42, 0
13, 654720, Note_on_c, 4, 42, 0
13, 654724, Note_on_c, 4, 44, 104
13, 654742, Note_on_c, 4, 44, 100
13, 654744, Note_on_c, 4, 38, 105
13, 654815, Note_on_c, 4, 38, 0
13, 654862, Note_on_c, 4, 44, 0
13, 654964, Note_on_c, 4, 44, 111
13, 654975, Note_on_c, 4, 26, 109
13, 655046, Note_on_c, 4, 26, 0
13, 655084, Note_on_c, 4, 44, 0
13, 655084, Note_on_c, 4, 44, 0
13, 655170, Note_on_c, 4, 42, 105
13, 655170, Note_on_c, 4, 42, 93
13, 655200, Note_on_c, 4, 42, 0
13, 655200, Note_on_c, 4, 42, 0
13, 655218, Note_on_c, 4, 44, 99
13, 655221, Note_on_c, 4, 44, 99
13, 655221, Note_on_c, 4, 38, 91
13, 655292, Note_on_c, 4, 38, 0
13, 655341, Note_on_c, 4, 44, 0
13, 655448, Note_on_c, 4, 26, 109
13, 655456, Note_on_c, 4, 44, 104
13, 655519, Note_on_c, 4, 26, 0
13, 655576, Note_on_c, 4, 44, 0
13, 655578, Note_on_c, 4, 44, 0
13, 655650, Note_on_c, 4, 42, 96
13, 655650, Note_on_c, 4, 42, 102
13, 655680, Note_on_c, 4, 42, 0
13, 655680, Note_on_c, 4, 42, 0
13, 655687, Note_on_c, 4, 44, 97
13, 655696, Note_on_c, 4, 38, 94
13, 655702, Note_on_c, 4, 44, 101
13, 655767, Note_on_c, 4, 38, 0
13, 655807, Note_on_c, 4, 44, 0
13, 655934, Note_on_c, 4, 26, 92
13, 655939, Note_on_c, 4, 44, 104
13, 656005, Note_on_c, 4, 26, 0
13, 656059, Note_on_c, 4, 44, 0
13, 656062, Note_on_c, 4, 44, 0
13, 656130, Note_on_c, 4, 42, 98
13, 656130, Note_on_c, 4, 42, 102
13, 656160, Note_on_c, 4, 42, 0
13, 656160, Note_on_c, 4, 42, 0
13, 656161, Note_on_c, 4, 38, 108
13, 656167, Note_on_c, 4, 44, 103
13, 656174, Note_on_c, 4, 44, 102
13, 656232, Note_on_c, 4, 38, 0
13, 656287, Note_on_c, 4, 44, 0
13, 656411, Note_on_c, 4, 26, 105
13, 656424, Note_on_c, 4, 44, 105
13, 656482, Note_on_c, 4, 26, 0
13, 656534, Note_on_c, 4, 44, 0
13, 656544, Note_on_c, 4, 44, 0
13, 656610, Note_on_c, 4, 42, 101
13, 656610, Note_on_c, 4, 42, 91
13, 656640, Note_on_c, 4, 42, 0
13, 656640, Note_on_c, 4, 42, 0
13, 656646, Note_on_c, 4, 44, 94
13, 656649, Note_on_c, 4, 44, 98
13, 656659, Note_on_c, 4, 38, 105
13, 656730, Note_on_c, 4, 38, 0
13, 656769, Note_on_c, 4, 44, 0
13, 656890, Note_on_c, 4, 26, 98
13, 656891, Note_on_c, 4, 44, 95
13, 656961, Note_on_c, 4, 26, 0
13, 657006, Note_on_c, 4, 44, 0
13, 657011, Note_on_c, 4, 44, 0
13, 657090, Note_on_c, 4, 42, 100
13, 657090, Note_on_c, 4, 42, 94
13, 657120, Note_on_c, 4, 42, 0
13, 657120, Note_on_c, 4, 42, 0
13, 657137, Note_on_c, 4, 44, 93
13, 657143, Note_on_c, 4, 44, 92
13, 657145, Note_on_c, 4, 38, 108
13, 657216, Note_on_c, 4, 38, 0
13, 657263, Note_on_c, 4, 44, 0
13, 657371, Note_on_c, 4, 26, 94
13, 657372, Note_on_c, 4, 44, 109
13, 657442, Note_on_c, 4, 26, 0
13, 657492, Note_on_c, 4, 44, 0
13, 657497, Note_on_c, 4, 44, 0
13, 657570, Note_on_c, 4, 42, 97
13, 657570, Note_on_c, 4, 42, 103
13, 657600, Note_on_c, 4, 42, 0
13, 657600, Note_on_c, 4, 42, 0
13, 657604, Note_on_c, 4, 44, 102
13, 657606, Note_on_c, 4, 44, 111
13, 657608, Note_on_c, 4, 38, 91
13, 657679, Note_on_c, 4, 38, 0
13, 657724, Note_on_c, 4, 44, 0
13, 657849, Note_on_c, 4, 44, 93
13, 657859, Note_on_c, 4, 26, 101
13, 657930, Note_on_c, 4, 26, 0
13, 657966, Note_on_c, 4, 44, 0
13, 657969, Note_on_c, 4, 44, 0
13, 658050, Note_on_c, 4, 42, 91
13, 658050, Note_on_c, 4, 42, 99
13, 658080, Note_on_c, 4, 42, 0
13, 658080, Note_on_c, 4, 42, 0
13, 658080, Note_on_c, 4, 44, 96
13, 658097, Note_on_c, 4, 38, 102
13, 658099, Note_on_c, 4, 44, 102
13, 658168, Note_on_c, 4, 38, 0
13, 658219, Note_on_c, 4, 44, 0
13, 658331, Note_on_c, 4, 44, 97
13, 658339, Note_on_c, 4, 26, 92
13, 658410, Note_on_c, 4, 26, 0
13, 658440, Note_on_c, 4, 44, 0
13, 658451, Note_on_c, 4, 44, 0
13, 658530, Note_on_c, 4, 42, 99
13, 658530, Note_on_c, 4, 42, 93
13, 658560, Note_on_c, 4, 42, 0
13, 658560, Note_on_c, 4, 42, 0
13, 658568, Note_on_c, 4, 44, 97
13, 658572, Note_on_c, 4, 44, 94
13, 658576, Note_on_c, 4, 38, 101
13, 658647, Note_on_c, 4, 38, 0
13, 658688, Note_on_c, 4, 44, 0
13, 658800, Note_on_c, 4, 26, 107
13, 658811, Note_on_c, 4, 44, 98
13, 658871, Note_on_c, 4, 26, 0
13, 658931, Note_on_c, 4, 44, 0
13, 658932, Note_on_c, 4, 44, 0
13, 659010, Note_on_c, 4, 42, 104
13, 659010, Note_on_c, 4, 42, 104
13, 659040, Note_on_c, 4, 42, 0
13, 659040, Note_on_c, 4, 42, 0
13, 659045, Note_on_c, 4, 38, 108
13, 659055, Note_on_c, 4, 44, 108
13, 659058, Note_on_c, 4, 44, 111
13, 659116, Note_on_c, 4, 38, 0
13, 659178, Note_on_c, 4, 44, 0
13, 659289, Note_on_c, 4, 44, 107
13, 659291, Note_on_c, 4, 26, 100
13, 659362, Note_on_c, 4, 26, 0
13, 659409, Note_on_c, 4, 44, 0
13, 659415, Note_on_c, 4, 44, 0
13, 659490, Note_on_c, 4, 42, 103
13, 659490, Note_on_c, 4, 42, 101
13, 659520, Note_on_c, 4, 42, 0
13, 659520, Note_on_c, 4, 42, 0
13, 659532, Note_on_c, 4, 44, 97
13, 659534, Note_on_c, 4, 38, 94
13, 659539, Note_on_c, 4, 44, 111
13, 659605, Note_on_c, 4, 38, 0
13, 659659, Note_on_c, 4, 44, 0
13, 659771, Note_on_c, 4, 26, 100
13, 659781, Note_on_c, 4, 44, 108
13, 659842, Note_on_c, 4, 26, 0
13, 659892, Note_on_c, 4, 44, 0
13, 659901, Note_on_c, 4, 44, 0
13, 659970, Note_on_c, 4, 42, 102
13, 659970, Note_on_c, 4, 42, 95
13, 660000, Note_on_c, 4, 42, 0
13, 660000, Note_on_c, 4, 42, 0
13, 660001, Note_on_c, 4, 44, 111
13, 660007, Note_on_c, 4, 38, 104
13, 660025, Note_on_c, 4, 44, 98
13, 660078, Note_on_c, 4, 38, 0
13, 660121, Note_on_c, 4, 44, 0
13, 660247, Note_on_c, 4, 26, 92
13, 660258, Note_on_c, 4, 44, 92
13, 660318, Note_on_c, 4, 26, 0
13, 660378, Note_on_c, 4, 44, 0
13, 660385, Note_on_c, 4, 44, 0
13, 660450, Note_on_c, 4, 42, 92
13, 660450, Note_on_c, 4, 42, 111
13, 660480, Note_on_c, 4, 42, 0
13, 660480, Note_on_c, 4, 42, 0
13, 660482, Note_on_c, 4, 44, 100
13, 660482, Note_on_c, 4, 44, 96
13, 660497, Note_on_c, 4, 38, 93
13, 660568, Note_on_c, 4, 38, 0
13, 660602, Note_on_c, 4, 44, 0
13, 660743, Note_on_c, 4, 44, 94
13, 660745, Note_on_c, 4, 26, 101
13, 660816, Note_on_c, 4, 26, 0
13, 660842, Note_on_c, 4, 44, 0
13, 660863, Note_on_c, 4, 44, 0
13, 660930, Note_on_c, 4, 42, 96
13, 660930, Note_on_c, 4, 42, 108
13, 660960, Note_on_c, 4, 42, 0
13, 660960, Note_on_c, 4, 42, 0
13, 660962, Note_on_c, 4, 44, 91
13, 660965, Note_on_c, 4, 38, 105
13, 660982, Note_on_c, 4, 44, 110
13, 661036, Note_on_c, 4, 38, 0
13, 661082, Note_on_c, 4, 44, 0
13, 661205, Note_on_c, 4, 44, 101
13, 661215, Note_on_c, 4, 26, 97
13, 661286, Note_on_c, 4, 26, 0
13, 661325, Note_on_c, 4, 44, 0
13, 661342, Note_on_c, 4, 44, 0
13, 661410, Note_on_c, 4, 42, 100
13, 661410, Note_on_c, 4, 42, 104
13, 661440, Note_on_c, 4, 42, 0
13, 661440, Note_on_c, 4, 42, 0
13, 661450, Note_on_c, 4, 38, 104
13, 661450, Note_on_c, 4, 44, 93
13, 661458, Note_on_c, 4, 44, 98
13, 661521, Note_on_c, 4, 38, 0
13, 661578, Note_on_c, 4, 44, 0
13, 661692, Note_on_c, 4, 44, 92
13, 661699, Note_on_c, 4, 26, 108
13, 661770, Note_on_c, 4, 26, 0
13, 661810, Note_on_c, 4, 44, 0
13, 661812, Note_on_c, 4, 44, 0
13, 661890, Note_on_c, 4, 42, 102
13, 661890, Note_on_c, 4, 42, 99
13, 661920, Note_on_c, 4, 42, 0
13, 661920, Note_on_c, 4, 42, 0
13, 661943, Note_on_c, 4, 44, 105
13, 661943, Note_on_c, 4, 44, 101
13, 661944, Note_on_c, 4, 38, 98
13, 662015, Note_on_c, 4, 38, 0
13, 662063, Note_on_c, 4, 44, 0
13, 662167, Note_on_c, 4, 44, 98
13, 662185, Note_on_c, 4, 26, 92
13, 662256, Note_on_c, 4, 26, 0
13, 662287, Note_on_c, 4, 44, 0
13, 662303, Note_on_c, 4, 44, 0
13, 662370, Note_on_c, 4, 42, 93
13, 662370, Note_on_c, 4, 42, 95
13, 662400, Note_on_c, 4, 42, 0
13, 662400, Note_on_c, 4, 42, 0
13, 662406, Note_on_c, 4, 38, 99
13, 662410, Note_on_c, 4, 44, 106
13, 662421, Note_on_c, 4, 44, 109
13, 662477, Note_on_c, 4, 38, 0
13, 662530, Note_on_c, 4, 44, 0
13, 662653, Note_on_c, 4, 44, 102
13, 662658, Note_on_c, 4, 26, 107
13, 662729, Note_on_c, 4, 26, 0
13, 662773, Note_on_c, 4, 44, 0
13, 662781, Note_on_c, 4, 44, 0
13, 662850, Note_on_c, 4, 42, 106
13, 662850, Note_on_c, 4, 42, 94
13, 662880, Note_on_c, 4, 42, 0
13, 662880, Note_on_c, 4, 42, 0
13, 662882, Note_on_c, 4, 38, 97
13, 662895, Note_on_c, 4, 44, 91
13, 662898, Note_on_c, 4, 44, 110
13, 662953, Note_on_c, 4, 38, 0
13, 663015, Note_on_c, 4, 44, 0
13, 663120, Note_on_c, 4, 26, 97
13, 663144, Note_on_c, 4, 44, 101
13, 663191, Note_on_c, 4, 26, 0
13, 663258, Note_on_c, 4, 44, 0
13, 663264, Note_on_c, 4, 44, 0
13, 663330, Note_on_c, 4, 42, 91
13, 663330, Note_on_c, 4, 42, 107
13, 663360, Note_on_c, 4, 42, 0
13, 663360, Note_on_c, 4, 42, 0
13, 663363, Note_on_c, 4, 38, 91
13, 663365, Note_on_c, 4, 44, 96
13, 663370, Note_on_c, 4, 44, 111
13, 663434, Note_on_c, 4, 38, 0
13, 663485, Note_on_c, 4, 44, 0
13, 663614, Note_on_c, 4, 26, 102
13, 663619, Note_on_c, 4, 44, 97
13, 663685, Note_on_c, 4, 26, 0
13, 663730, Note_on_c, 4, 44, 0
13, 663739, Note_on_c, 4, 44, 0
13, 663810, Note_on_c, 4, 42, 95
13, 663810, Note_on_c, 4, 42, 100
13, 663840, Note_on_c, 4, 42, 0
13, 663840, Note_on_c, 4, 42, 0
13, 663844, Note_on_c, 4, 44, 102
13, 663848, Note_on_c, 4, 44, 99
13, 663848, Note_on_c, 4, 38, 95
13, 663919, Note_on_c, 4, 38, 0
13, 663968, Note_on_c, 4, 44, 0
13, 664099, Note_on_c, 4, 44, 104
13, 664103, Note_on_c, 4, 26, 99
13, 664174, Note_on_c, 4, 26, 0
13, 664204, Note_on_c, 4, 44, 0
13, 664219, Note_on_c, 4, 44, 0
13, 664290, Note_on_c, 4, 42, 107
13, 664290, Note_on_c, 4, 42, 93
13, 664320, Note_on_c, 4, 42, 0
13, 664320, Note_on_c, 4, 42, 0
13, 664324, Note_on_c, 4, 44, 101
13, 664340, Note_on_c, 4, 38, 99
13, 664344, Note_on_c, 4, 44, 98
13, 664411, Note_on_c, 4, 38, 0
13, 664464, Note_on_c, 4, 44, 0
13, 664561, Note_on_c, 4, 44, 102
13, 664561, Note_on_c, 4, 26, 97
13, 664632, Note_on_c, 4, 26, 0
13, 664681, Note_on_c, 4, 44, 0
13, 664684, Note_on_c, 4, 44, 0
13, 664770, Note_on_c, 4, 42, 94
13, 664770, Note_on_c, 4, 42, 102
13, 664800, Note_on_c, 4, 42, 0
13, 664800, Note_on_c, 4, 42, 0
13, 664804, Note_on_c, 4, 44, 99
13, 664805, Note_on_c, 4, 38, 111
13, 664806, Note_on_c, 4, 44, 96
13, 664876, Note_on_c, 4, 38, 0
13, 664926, Note_on_c, 4, 44, 0
13, 665044, Note_on_c, 4, 44, 109
13, 665048, Note_on_c, 4, 26, 105
13, 665119, Note_on_c, 4, 26, 0
13, 665164, Note_on_c, 4, 44, 0
13, 665164, Note_on_c, 4, 44, 0
13, 665250, Note_on_c, 4, 42, 100
13, 665250, Note_on_c, 4, 42, 105
13, 665280, Note_on_c, 4, 42, 0
13, 665280, Note_on_c, 4, 42, 0
13, 665286, Note_on_c, 4, 38, 97
13, 665302, Note_on_c, 4, 44, 109
13, 665304, Note_on_c, 4, 44, 103
13, 665357, Note_on_c, 4, 38, 0
13, 665424, Note_on_c, 4, 44, 0
13, 665527, Note_on_c, 4, 44, 108
13, 665545, Note_on_c, 4, 26, 93
13, 665616, Note_on_c, 4, 26, 0
13, 665647, Note_on_c, 4, 44, 0
13, 665662, Note_on_c, 4, 44, 0
13, 665730, Note_on_c, 4, 42, 94
13, 665730, Note_on_c, 4, 42, 96
13, 665760, Note_on_c, 4, 42, 0
13, 665760, Note_on_c, 4, 42, 0
13, 665760, Note_on_c, 4, 38, 105
13, 665761, Note_on_c, 4, 44, 100
13, 665781, Note_on_c, 4, 44, 101
13, 665831, Note_on_c, 4, 38, 0
13, 665901, Note_on_c, 4, 44, 0
13, 666004, Note_on_c, 4, 44, 94
13, 666023, Note_on_c, 4, 26, 101
13, 666094, Note_on_c, 4, 26, 0
13, 666121, Note_on_c, 4, 44, 0
13, 666124, Note_on_c, 4, 44, 0
13, 666210, Note_on_c, 4, 42, 104
13, 666210, Note_on_c, 4, 42, 104
13, 666240, Note_on_c, 4, 42, 0
13, 666240, Note_on_c, 4, 42, 0
13, 666256, Note_on_c, 4, 44, 108
13, 666262, Note_on_c, 4, 44, 109
13, 666265, Note_on_c, 4, 38, 99
13, 666336, Note_on_c, 4, 38, 0
13, 666382, Note_on_c, 4, 44, 0
13, 666480, Note_on_c, 4, 44, 96
13, 666496, Note_on_c, 4, 26, 92
13, 666567, Note_on_c, 4, 26, 0
13, 666600, Note_on_c, 4, 44, 0
13, 666616, Note_on_c, 4, 44, 0
13, 666690, Note_on_c, 4, 42, 91
13, 666690, Note_on_c, 4, 42, 106
13, 666720, Note_on_c, 4, 42, 0
13, 666720, Note_on_c, 4, 42, 0
13, 666723, Note_on_c, 4, 38, 111
13, 666724, Note_on_c, 4, 44, 101
13, 666724, Note_on_c, 4, 44, 94
13, 666794, Note_on_c, 4, 38, 0
13, 666844, Note_on_c, 4, 44, 0
13, 666975, Note_on_c, 4, 26, 100
13, 666976, Note_on_c, 4, 44, 92
13, 667046, Note_on_c, 4, 26, 0
13, 667084, Note_on_c, 4, 44, 0
13, 667096, Note_on_c, 4, 44, 0
13, 667170, Note_on_c, 4, 42, 100
13, 667170, Note_on_c, 4, 42, 99
13, 667200, Note_on_c, 4, 42, 0
13, 667200, Note_on_c, 4, 42, 0
13, 667200, Note_on_c, 4, 44, 99
13, 667215, Note_on_c, 4, 44, 106
13, 667222, Note_on_c, 4, 38, 110
13, 667293, Note_on_c, 4, 38, 0
13, 667335, Note_on_c, 4, 44, 0
13, 667457, Note_on_c, 4, 26, 93
13, 667464, Note_on_c, 4, 44, 92
13, 667528, Note_on_c, 4, 26, 0
13, 667560, Note_on_c, 4, 44, 0
13, 667584, Note_on_c, 4, 44, 0
13, 667650, Note_on_c, 4, 42, 105
13, 667650, Note_on_c, 4, 42, 96
13, 667680, Note_on_c, 4, 42, 0
13, 667680, Note_on_c, 4, 42, 0
13, 667682, Note_on_c, 4, 44, 104
13, 667696, Note_on_c, 4, 38, 105
13, 667697, Note_on_c, 4, 44, 99
13, 667767, Note_on_c, 4, 38, 0
13, 667817, Note_on_c, 4, 44, 0
13, 667940, Note_on_c, 4, 44, 95
13, 667944, Note_on_c, 4, 26, 106
13, 668015, Note_on_c, 4, 26, 0
13, 668042, Note_on_c, 4, 44, 0
13, 668060, Note_on_c, 4, 44, 0
13, 668130, Note_on_c, 4, 42, 98
13, 668130, Note_on_c, 4, 42, 101
13, 668160, Note_on_c, 4, 42, 0
13, 668160, Note_on_c, 4, 42, 0
13, 668162, Note_on_c, 4, 38, 92
13, 668167, Note_on_c, 4, 44, 91
13, 668177, Note_on_c, 4, 44, 107
13, 668233, Note_on_c, 4, 38, 0
13, 668297, Note_on_c, 4, 44, 0
13, 668400, Note_on_c, 4, 44, 108
13, 668410, Note_on_c, 4, 26, 109
13, 668481, Note_on_c, 4, 26, 0
13, 668520, Note_on_c, 4, 44, 0
13, 668527, Note_on_c, 4, 44, 0
13, 668610, Note_on_c, 4, 42, 92
13, 668610, Note_on_c, 4, 42, 104
13, 668640, Note_on_c, 4, 42, 0
13, 668640, Note_on_c, 4, 42, 0
13, 668648, Note_on_c, 4, 44, 105
13, 668649, Note_on_c, 4, 38, 93
13, 668663, Note_on_c, 4, 44, 105
13, 668720, Note_on_c, 4, 38, 0
13, 668768, Note_on_c, 4, 44, 0
13, 668892, Note_on_c, 4, 44, 96
13, 668900, Note_on_c, 4, 26, 109
13, 668971, Note_on_c, 4, 26, 0
13, 669012, Note_on_c, 4, 44, 0
13, 669023, Note_on_c, 4, 44, 0
13, 669090, Note_on_c, 4, 42, 109
13, 669090, Note_on_c, 4, 42, 98
13, 669120, Note_on_c, 4, 42, 0
13, 669120, Note_on_c, 4, 42, 0
13, 669126, Note_on_c, 4, 44, 106
13, 669130, Note_on_c, 4, 44, 104
13, 669133, Note_on_c, 4, 38, 99
13, 669204, Note_on_c, 4, 38, 0
13, 669246, Note_on_c, 4, 44, 0
13, 669365, Note_on_c, 4, 26, 102
13, 669384, Note_on_c, 4, 44, 96
13, 669436, Note_on_c, 4, 26, 0
13, 669490, Note_on_c, 4, 44, 0
13, 669504, Note_on_c, 4, 44, 0
13, 669570, Note_on_c, 4, 42, 107
13, 669570, Note_on_c, 4, 42, 102
13, 669600, Note_on_c, 4, 42, 0
13, 669600, Note_on_c, 4, 42, 0
13, 669606, Note_on_c, 4, 38, 94
13, 669606, Note_on_c, 4, 44, 108
13, 669610, Note_on_c, 4, 44, 109
13, 669677, Note_on_c, 4, 38, 0
13, 669730, Note_on_c, 4, 44, 0
13, 669849, Note_on_c, 4, 26, 104
13, 669864, Note_on_c, 4, 44, 99
13, 669920, Note_on_c, 4, 26, 0
13, 669966, Note_on_c, 4, 44, 0
13, 669984, Note_on_c, 4, 44, 0
13, 670050, Note_on_c, 4, 42, 92
13, 670050, Note_on_c, 4, 42, 95
13, 670080, Note_on_c, 4, 42, 0
13, 670080, Note_on_c, 4, 42, 0
13, 670089, Note_on_c, 4, 44, 92
13, 670097, Note_on_c, 4, 44, 102
13, 670104, Note_on_c, 4, 38, 101
13, 670175, Note_on_c, 4, 38, 0
13, 670209, Note_on_c, 4, 44, 0
13, 670324, Note_on_c, 4, 26, 101
13, 670328, Note_on_c, 4, 44, 98
13, 670395, Note_on_c, 4, 26, 0
13, 670448, Note_on_c, 4, 44, 0
13, 670457, Note_on_c, 4, 44, 0
13, 670530, Note_on_c, 4, 42, 94
13, 670530, Note_on_c, 4, 42, 99
13, 670560, Note_on_c, 4, 42, 0
13, 670560, Note_on_c, 4, 42, 0
13, 670574, Note_on_c, 4, 44, 107
13, 670574, Note_on_c, 4, 44, 97
13, 670578, Note_on_c, 4, 38, 103
13, 670649, Note_on_c, 4, 38, 0
13, 670694, Note_on_c, 4, 44, 0
13, 670803, Note_on_c, 4, 26, 107
13, 670813, Note_on_c, 4, 44, 111
13, 670874, Note_on_c, 4, 26, 0
13, 670933, Note_on_c, 4, 44, 0
13, 670934, Note_on_c, 4, 44, 0
13, 671010, Note_on_c, 4, 42, 108
13, 671010, Note_on_c, 4, 42, 109
13, 671040, Note_on_c, 4, 42, 0
13, 671040, Note_on_c, 4, 42, 0
13, 671042, Note_on_c, 4, 44, 108
13, 671053, Note_on_c, 4, 38, 100
13, 671055, Note_on_c, 4, 44, 96
13, 671124, Note_on_c, 4, 38, 0
13, 671162, Note_on_c, 4, 44, 0
13, 671283, Note_on_c, 4, 44, 97
13, 671296, Note_on_c, 4, 26, 111
13, 671367, Note_on_c, 4, 26, 0
13, 671403, Note_on_c, 4, 44, 0
13, 671415, Note_on_c, 4, 44, 0
13, 671490, Note_on_c, 4, 42, 110
13, 671490, Note_on_c, 4, 42, 91
13, 671520, Note_on_c, 4, 42, 0
13, 671520, Note_on_c, 4, 42, 0
13, 671529, Note_on_c, 4, 38, 93
13, 671541, Note_on_c, 4, 44, 102
13, 671542, Note_on_c, 4, 44, 91
13, 671600, Note_on_c, 4, 38, 0
13, 671662, Note_on_c, 4, 44, 0
13, 671761, Note_on_c, 4, 26, 103
13, 671781, Note_on_c, 4, 44, 101
13, 671832, Note_on_c, 4, 26, 0
13, 671901, Note_on_c, 4, 44, 0
13, 671901, Note_on_c, 4, 44, 0
13, 671970, Note_on_c, 4, 42, 110
13, 671970, Note_on_c, 4, 42, 93
13, 672000, Note_on_c, 4, 42, 0
13, 672000, Note_on_c, 4, 42, 0
13, 672013, Note_on_c, 4, 44, 92
13, 672021, Note_on_c, 4, 44, 97
13, 672021, Note_on_c, 4, 38, 93
13, 672092, Note_on_c, 4, 38, 0
13, 672133, Note_on_c, 4, 44, 0
13, 672247, Note_on_c, 4, 26, 101
13, 672251, Note_on_c, 4, 44, 98
13, 672318, Note_on_c, 4, 26, 0
13, 672371, Note_on_c, 4, 44, 0
13, 672381, Note_on_c, 4, 44, 0
13, 672450, Note_on_c, 4, 42, 101
13, 672450, Note_on_c, 4, 42, 106
13, 672480, Note_on_c, 4, 42, 0
13, 672480, Note_on_c, 4, 42, 0
13, 672480, Note_on_c, 4, 38, 105
13, 672481, Note_on_c, 4, 44, 108
13, 672483, Note_on_c, 4, 44, 99
13, 672551, Note_on_c, 4, 38, 0
13, 672601, Note_on_c, 4, 44, 0
13, 672732, Note_on_c, 4, 44, 100
13, 672736, Note_on_c, 4, 26, 107
13, 672807, Note_on_c, 4, 26, 0
13, 672843, Note_on_c, 4, 44, 0
13, 672852, Note_on_c, 4, 44, 0
13, 672930, Note_on_c, 4, 42, 108
13, 672930, Note_on_c, 4, 42, 91
13, 672960, Note_on_c, 4, 42, 0
13, 672960, Note_on_c, 4, 42, 0
13, 672965, Note_on_c, 4, 38, 97
13, 672966, Note_on_c, 4, 44, 110
13, 672980, Note_on_c, 4, 44, 98
13, 673036, Note_on_c, 4, 38, 0
13, 673086, Note_on_c, 4, 44, 0
13, 673206, Note_on_c, 4, 26, 103
13, 673223, Note_on_c, 4, 44, 101
13, 673277, Note_on_c, 4, 26, 0
13, 673340, Note_on_c, 4, 44, 0
13, 673343, Note_on_c, 4, 44, 0
13, 673410, Note_on_c, 4, 42, 111
13, 673410, Note_on_c, 4, 42, 94
13, 673440, Note_on_c, 4, 42, 0
13, 673440, Note_on_c, 4, 42, 0
13, 673441, Note_on_c, 4, 38, 101
13, 673446, Note_on_c, 4, 44, 91
13, 673446, Note_on_c, 4, 44, 99
13, 673512, Note_on_c, 4, 38, 0
13, 673566, Note_on_c, 4, 44, 0
13, 673683, Note_on_c, 4, 26, 109
13, 673686, Note_on_c, 4, 44, 100
13, 673754, Note_on_c, 4, 26, 0
13, 673806, Note_on_c, 4, 44, 0
13, 673806, Note_on_c, 4, 44, 0
13, 673890, Note_on_c, 4, 42, 93
13, 673890, Note_on_c, 4, 42, 100
13, 673920, Note_on_c, 4, 42, 0
13, 673920, Note_on_c, 4, 42, 0
13, 673921, Note_on_c, 4, 44, 94
13, 673932, Note_on_c, 4, 44, 105
13, 673945, Note_on_c, 4, 38, 102
13, 674016, Note_on_c, 4, 38, 0
13, 674041, Note_on_c, 4, 44, 0
13, 674166, Note_on_c, 4, 44, 102
13, 674179, Note_on_c, 4, 26, 104
13, 674250, Note_on_c, 4, 26, 0
13, 674286, Note_on_c, 4, 44, 0
13, 674292, Note_on_c, 4, 44, 0
13, 674370, Note_on_c, 4, 42, 93
13, 674370, Note_on_c, 4, 42, 104
13, 674400, Note_on_c, 4, 42, 0
13, 674400, Note_on_c, 4, 42, 0
13, 674408, Note_on_c, 4, 38, 92
13, 674422, Note_on_c, 4, 44, 99
13, 674425, Note_on_c, 4, 44, 110
13, 674479, Note_on_c, 4, 38, 0
13, 674545, Note_on_c, 4, 44, 0
13, 674650, Note_on_c, 4, 26, 111
13, 674655, Note_on_c, 4, 44, 105
13, 674721, Note_on_c, 4, 26, 0
13, 674775, Note_on_c, 4, 44, 0
13, 674782, Note_on_c, 4, 44, 0
13, 674850, Note_on_c, 4, 42, 108
13, 674850, Note_on_c, 4, 42, 109
13, 674880, Note_on_c, 4, 42, 0
13, 674880, Note_on_c, 4, 42, 0
13, 674880, Note_on_c, 4, 44, 96
13, 674881, Note_on_c, 4, 38, 95
13, 674894, Note_on_c, 4, 44, 111
13, 674952, Note_on_c, 4, 38, 0
13, 675014, Note_on_c, 4, 44, 0
13, 675124, Note_on_c, 4, 26, 98
13, 675135, Note_on_c, 4, 44, 95
13, 675195, Note_on_c, 4, 26, 0
13, 675240, Note_on_c, 4, 44, 0
13, 675255, Note_on_c, 4, 44, 0
13, 675330, Note_on_c, 4, 42, 104
13, 675330, Note_on_c, 4, 42, 91
13, 675360, Note_on_c, 4, 42, 0
13, 675360, Note_on_c, 4, 42, 0
13, 675362, Note_on_c, 4, 44, 104
13, 675367, Note_on_c, 4, 44, 106
13, 675385, Note_on_c, 4, 38, 99
13, 675456, Note_on_c, 4, 38, 0
13, 675487, Note_on_c, 4, 44, 0
13, 675602, Note_on_c, 4, 44, 107
13, 675623, Note_on_c, 4, 26, 111
13, 675694, Note_on_c, 4, 26, 0
13, 675722, Note_on_c, 4, 44, 0
13, 675722, Note_on_c, 4, 44, 0
13, 675810, Note_on_c, 4, 42, 99
13, 675810, Note_on_c, 4, 42, 108
13, 675840, Note_on_c, 4, 42, 0
13, 675840, Note_on_c, 4, 42, 0
13, 675854, Note_on_c, 4, 44, 97
13, 675858, Note_on_c, 4, 44, 110
13, 675862, Note_on_c, 4, 38, 95
13, 675933, Note_on_c, 4, 38, 0
13, 675974, Note_on_c, 4, 44, 0
13, 676081, Note_on_c, 4, 26, 107
13, 676082, Note_on_c, 4, 44, 106
13, 676152, Note_on_c, 4, 26, 0
13, 676202, Note_on_c, 4, 44, 0
13, 676218, Note_on_c, 4, 44, 0
13, 676290, Note_on_c, 4, 42, 98
13, 676290, Note_on_c, 4, 42, 100
13, 676320, Note_on_c, 4, 42, 0
13, 676320, Note_on_c, 4, 42, 0
13, 676320, Note_on_c, 4, 44, 104
13, 676325, Note_on_c, 4, 38, 108
13, 676329, Note_on_c, 4, 44, 109
13, 676396, Note_on_c, 4, 38, 0
13, 676440, Note_on_c, 4, 44, 0
13, 676571, Note_on_c, 4, 26, 92
13, 676574, Note_on_c, 4, 44, 96
13, 676642, Note_on_c, 4, 26, 0
13, 676689, Note_on_c, 4, 44, 0
13, 676694, Note_on_c, 4, 44, 0
13, 676770, Note_on_c, 4, 42, 98
13, 676770, Note_on_c, 4, 42, 111
13, 676800, Note_on_c, 4, 42, 0
13, 676800, Note_on_c, 4, 42, 0
13, 676806, Note_on_c, 4, 38, 111
13, 676809, Note_on_c, 4, 44, 108
13, 676815, Note_on_c, 4, 44, 100
13, 676877, Note_on_c, 4, 38, 0
13, 676935, Note_on_c, 4, 44, 0
13, 677059, Note_on_c, 4, 44, 99
13, 677060, Note_on_c, 4, 26, 109
13, 677131, Note_on_c, 4, 26, 0
13, 677169, Note_on_c, 4, 44, 0
13, 677179, Note_on_c, 4, 44, 0
13, 679205, Note_on_c, 4, 49, 44
13, 679207, Note_on_c, 4, 64, 46
13, 679223, Note_on_c, 4, 46, 43
13, 679224, Note_on_c, 4, 60, 37
13, 679698, Note_on_c, 4, 53, 61
13, 679793, Note_on_c, 4, 53, 0
13, 679935, Note_on_c, 4, 53, 68
13, 680030, Note_on_c, 4, 53, 0
13, 680165, Note_on_c, 4, 49, 0
13, 680173, Note_on_c, 4, 50, 65
13, 680665, Note_on_c, 4, 53, 56
13, 680760, Note_on_c, 4, 53, 0
13, 680895, Note_on_c, 4, 53, 63
13, 680990, Note_on_c, 4, 53, 0
13, 681607, Note_on_c, 4, 53, 57
13, 681702, Note_on_c, 4, 53, 0
13, 681864, Note_on_c, 4, 53, 58
13, 681959, Note_on_c, 4, 53, 0
13, 682083, Note_on_c, 4, 49, 68
13, 682093, Note_on_c, 4, 50, 0
13, 683040, Control_c, 4, 11, 127
13, 683055, Control_c, 4, 11, 126
13, 683070, Control_c, 4, 11, 125
13, 683085, Control_c, 4, 11, 124
13, 683100, Control_c, 4, 11, 123
13, 683115, Control_c, 4, 11, 122
13, 683130, Control_c, 4, 11, 121
13, 683145, Control_c, 4, 11, 120
13, 683160, Control_c, 4, 11, 119
13, 683175, Control_c, 4, 11, 118
13, 683191, Control_c, 4, 11, 117
13, 683206, Control_c, 4, 11, 116
13, 683221, Control_c, 4, 11, 115
13, 683236, Control_c, 4, 11, 114
13, 683251, Control_c, 4, 11, 113
13, 683266, Control_c, 4, 11, 112
13, 683281, Control_c, 4, 11, 111
13, 683296, Control_c, 4, 11, 110
13, 683311, Control_c, 4, 11, 109
13, 683326, Control_c, 4, 11, 108
13, 683341, Control_c, 4, 11, 107
13, 683356, Control_c, 4, 11, 106
13, 683372, Control_c, 4, 11, 105
13, 683387, Control_c, 4, 11, 104
13, 683402, Control_c, 4, 11, 103
13, 683417, Control_c, 4, 11, 102
13, 683433, Control_c, 4, 11, 101
13, 683448, Control_c, 4, 11, 100
13, 683463, Control_c, 4, 11, 99
13, 683478, Control_c, 4, 11, 98
13, 683493, Control_c, 4, 11, 97
13, 683508, Control_c, 4, 11, 96
13, 683523, Control_c, 4, 11, 95
13, 683537, Note_on_c, 4, 53, 61
13, 683538, Control_c, 4, 11, 94
13, 683553, Control_c, 4, 11, 93
13, 683568, Control_c, 4, 11, 92
13, 683583, Control_c, 4, 11, 91
13, 683598, Control_c, 4, 11, 90
13, 683614, Control_c, 4, 11, 89
13, 683629, Control_c, 4, 11, 88
13, 683632, Note_on_c, 4, 53, 0
13, 683644, Control_c, 4, 11, 87
13, 683659, Control_c, 4, 11, 86
13, 683675, Control_c, 4, 11, 85
13, 683690, Control_c, 4, 11, 84
13, 683705, Control_c, 4, 11, 83
13, 683720, Control_c, 4, 11, 82
13, 683735, Control_c, 4, 11, 81
13, 683750, Control_c, 4, 11, 80
13, 683765, Control_c, 4, 11, 79
13, 683780, Control_c, 4, 11, 78
13, 683784, Note_on_c, 4, 53, 52
13, 683795, Control_c, 4, 11, 77
13, 683810, Control_c, 4, 11, 76
13, 683825, Control_c, 4, 11, 75
13, 683840, Control_c, 4, 11, 74
13, 683856, Control_c, 4, 11, 73
13, 683871, Control_c, 4, 11, 72
13, 683879, Note_on_c, 4, 53, 0
13, 683886, Control_c, 4, 11, 71
13, 683901, Control_c, 4, 11, 70
13, 683916, Control_c, 4, 11, 69
13, 683931, Control_c, 4, 11, 68
13, 683946, Control_c, 4, 11, 67
13, 683961, Control_c, 4, 11, 66
13, 683977, Control_c, 4, 11, 65
13, 683992, Control_c, 4, 11, 64
13, 684007, Control_c, 4, 11, 63
13, 684022, Control_c, 4, 11, 62
13, 684037, Control_c, 4, 11, 61
13, 684052, Control_c, 4, 11, 60
13, 684067, Control_c, 4, 11, 59
13, 684082, Control_c, 4, 11, 58
13, 684098, Control_c, 4, 11, 57
13, 684113, Control_c, 4, 11, 56
13, 684128, Control_c, 4, 11, 55
13, 684143, Control_c, 4, 11, 54
13, 684158, Control_c, 4, 11, 53
13, 684173, Control_c, 4, 11, 52
13, 684188, Control_c, 4, 11, 51
13, 684203, Control_c, 4, 11, 50
13, 684219, Control_c, 4, 11, 49
13, 684234, Control_c, 4, 11, 48
13, 684249, Control_c, 4, 11, 47
13, 684264, Control_c, 4, 11, 46
13, 684279, Control_c, 4, 11, 45
13, 684294, Control_c, 4, 11, 44
13, 684309, Control_c, 4, 11, 43
13, 684324, Control_c, 4, 11, 42
13, 684340, Control_c, 4, 11, 41
13, 684355, Control_c, 4, 11, 40
13, 684370, Control_c, 4, 11, 39
13, 684385, Control_c, 4, 11, 38
13, 684400, Control_c, 4, 11, 37
13, 684415, Control_c, 4, 11, 36
13, 684430, Control_c, 4, 11, 35
13, 684445, Control_c, 4, 11, 34
13, 684461, Control_c, 4, 11, 33
13, 684476, Control_c, 4, 11, 32
13, 684483, Note_on_c, 4, 49, 0
13, 684487, Note_on_c, 4, 64, 0
13, 684491, Control_c, 4, 11, 31
13, 684503, Note_on_c, 4, 46, 0
13, 684504, Note_on_c, 4, 60, 0
13, 684506, Control_c, 4, 11, 30
13, 684521, Control_c, 4, 11, 29
13, 684536, Control_c, 4, 11, 28
13, 684551, Control_c, 4, 11, 27
13, 684566, Control_c, 4, 11, 26
13, 684581, Control_c, 4, 11, 25
13, 684596, Control_c, 4, 11, 24
13, 684611, Control_c, 4, 11, 23
13, 684626, Control_c, 4, 11, 22
13, 684642, Control_c, 4, 11, 21
13, 684657, Control_c, 4, 11, 20
13, 684672, Control_c, 4, 11, 19
13, 684687, Control_c, 4, 11, 18
13, 684703, Control_c, 4, 11, 17
13, 684718, Control_c, 4, 11, 16
13, 684733, Control_c, 4, 11, 15
13, 684748, Control_c, 4, 11, 14
13, 684763, Control_c, 4, 11, 13
13, 684778, Control_c, 4, 11, 12
13, 684793, Control_c, 4, 11, 11
13, 684808, Control_c, 4, 11, 10
13, 684823, Control_c, 4, 11, 9
13, 684838, Control_c, 4, 11, 8
13, 684853, Control_c, 4, 11, 7
13, 684868, Control_c, 4, 11, 6
13, 684884, Control_c, 4, 11, 5
13, 684899, Control_c, 4, 11, 4
13, 684914, Control_c, 4, 11, 3
13, 684929, Control_c, 4, 11, 2
13, 684945, Control_c, 4, 11, 1
13, 684960, Control_c, 4, 11, 127
13, 689280, Note_on_c, 4, 43, 98
13, 689360, Note_on_c, 4, 43, 0
13, 689377, Note_on_c, 4, 48, 91
13, 689439, Note_on_c, 4, 52, 100
13, 689456, Note_on_c, 4, 48, 0
13, 689519, Note_on_c, 4, 52, 0
13, 689533, Note_on_c, 4, 55, 91
13, 689613, Note_on_c, 4, 55, 0
13, 689623, Note_on_c, 4, 60, 102
13, 689695, Note_on_c, 4, 64, 102
13, 689702, Note_on_c, 4, 60, 0
13, 689761, Note_on_c, 4, 42, 88
13, 689772, Note_on_c, 4, 54, 81
13, 689775, Note_on_c, 4, 64, 0
13, 690241, Note_on_c, 4, 42, 0
13, 690250, Note_on_c, 4, 56, 100
13, 690252, Note_on_c, 4, 54, 0
13, 690252, Note_on_c, 4, 43, 108
13, 690261, Note_on_c, 4, 44, 112
13, 690725, Note_on_c, 4, 46, 110
13, 690730, Note_on_c, 4, 56, 0
13, 690732, Note_on_c, 4, 43, 0
13, 690736, Note_on_c, 4, 58, 104
13, 690741, Note_on_c, 4, 44, 0
13, 691200, Note_on_c, 4, 42, 112
13, 691205, Note_on_c, 4, 46, 0
13, 691216, Note_on_c, 4, 58, 0
13, 691222, Note_on_c, 4, 54, 100
13, 691224, Note_on_c, 4, 43, 100
13, 691680, Note_on_c, 4, 42, 0
13, 691702, Note_on_c, 4, 54, 0
13, 691703, Note_on_c, 4, 56, 113
13, 691703, Note_on_c, 4, 44, 104
13, 691704, Note_on_c, 4, 43, 0
13, 692161, Note_on_c, 4, 58, 113
13, 692177, Note_on_c, 4, 46, 96
13, 692183, Note_on_c, 4, 56, 0
13, 692183, Note_on_c, 4, 44, 0
13, 692406, Note_on_c, 4, 43, 114
13, 692641, Note_on_c, 4, 58, 0
13, 692646, Note_on_c, 4, 43, 0
13, 692657, Note_on_c, 4, 46, 0
13, 692660, Note_on_c, 4, 42, 97
13, 692665, Note_on_c, 4, 54, 102
13, 693128, Note_on_c, 4, 44, 115
13, 693129, Note_on_c, 4, 56, 98
13, 693133, Note_on_c, 4, 43, 95
13, 693140, Note_on_c, 4, 42, 0
13, 693145, Note_on_c, 4, 54, 0
13, 693493, Note_on_c, 4, 43, 0
13, 693601, Note_on_c, 4, 46, 100
13, 693608, Note_on_c, 4, 44, 0
13, 693608, Note_on_c, 4, 58, 96
13, 693609, Note_on_c, 4, 56, 0
13, 694081, Note_on_c, 4, 46, 0
13, 694088, Note_on_c, 4, 58, 0
13, 694096, Note_on_c, 4, 45, 111
13, 694101, Note_on_c, 4, 42, 103
13, 694104, Note_on_c, 4, 54, 114
13, 694456, Note_on_c, 4, 45, 0
13, 694562, Note_on_c, 4, 44, 110
13, 694574, Note_on_c, 4, 56, 97
13, 694577, Note_on_c, 4, 45, 97
13, 694581, Note_on_c, 4, 42, 0
13, 694584, Note_on_c, 4, 54, 0
13, 694937, Note_on_c, 4, 45, 0
13, 695042, Note_on_c, 4, 44, 0
13, 695045, Note_on_c, 4, 58, 101
13, 695053, Note_on_c, 4, 46, 102
13, 695054, Note_on_c, 4, 56, 0
13, 695520, Note_on_c, 4, 54, 112
13, 695522, Note_on_c, 4, 42, 114
13, 695525, Note_on_c, 4, 58, 0
13, 695533, Note_on_c, 4, 46, 0
13, 696000, Note_on_c, 4, 54, 0
13, 696002, Note_on_c, 4, 42, 0
13, 696009, Note_on_c, 4, 44, 102
13, 696011, Note_on_c, 4, 56, 111
13, 696489, Note_on_c, 4, 44, 0
13, 696491, Note_on_c, 4, 56, 0
13, 696498, Note_on_c, 4, 46, 108
13, 696502, Note_on_c, 4, 43, 101
13, 696503, Note_on_c, 4, 58, 108
13, 696573, Note_on_c, 4, 48, 97
13, 696582, Note_on_c, 4, 43, 0
13, 696649, Note_on_c, 4, 52, 96
13, 696652, Note_on_c, 4, 48, 0
13, 696726, Note_on_c, 4, 55, 101
13, 696729, Note_on_c, 4, 52, 0
13, 696802, Note_on_c, 4, 60, 112
13, 696806, Note_on_c, 4, 55, 0
13, 696881, Note_on_c, 4, 60, 0
13, 696891, Note_on_c, 4, 64, 97
13, 696964, Note_on_c, 4, 54, 102
13, 696971, Note_on_c, 4, 64, 0
13, 696978, Note_on_c, 4, 46, 0
13, 696983, Note_on_c, 4, 58, 0
13, 696984, Note_on_c, 4, 42, 115
13, 697444, Note_on_c, 4, 54, 0
13, 697453, Note_on_c, 4, 45, 96
13, 697462, Note_on_c, 4, 56, 95
13, 697462, Note_on_c, 4, 44, 97
13, 697464, Note_on_c, 4, 42, 0
13, 697922, Note_on_c, 4, 43, 96
13, 697927, Note_on_c, 4, 46, 104
13, 697933, Note_on_c, 4, 45, 0
13, 697941, Note_on_c, 4, 58, 95
13, 697942, Note_on_c, 4, 56, 0
13, 697942, Note_on_c, 4, 44, 0
13, 698002, Note_on_c, 4, 43, 0
13, 698012, Note_on_c, 4, 48, 103
13, 698091, Note_on_c, 4, 48, 0
13, 698100, Note_on_c, 4, 52, 108
13, 698174, Note_on_c, 4, 55, 114
13, 698180, Note_on_c, 4, 52, 0
13, 698254, Note_on_c, 4, 55, 0
13, 698260, Note_on_c, 4, 60, 102
13, 698327, Note_on_c, 4, 64, 107
13, 698339, Note_on_c, 4, 60, 0
13, 698405, Note_on_c, 4, 42, 96
13, 698407, Note_on_c, 4, 46, 0
13, 698407, Note_on_c, 4, 64, 0
13, 698417, Note_on_c, 4, 54, 103
13, 698421, Note_on_c, 4, 58, 0
13, 698885, Note_on_c, 4, 42, 0
13, 698892, Note_on_c, 4, 45, 114
13, 698895, Note_on_c, 4, 56, 108
13, 698897, Note_on_c, 4, 54, 0
13, 698898, Note_on_c, 4, 44, 100
13, 699252, Note_on_c, 4, 45, 0
13, 699361, Note_on_c, 4, 46, 112
13, 699366, Note_on_c, 4, 58, 110
13, 699375, Note_on_c, 4, 56, 0
13, 699375, Note_on_c, 4, 45, 108
13, 699378, Note_on_c, 4, 44, 0
13, 699735, Note_on_c, 4, 45, 0
13, 699841, Note_on_c, 4, 46, 0
13, 699845, Note_on_c, 4, 54, 100
13, 699846, Note_on_c, 4, 58, 0
13, 699862, Note_on_c, 4, 42, 99
13, 700325, Note_on_c, 4, 54, 0
13, 700330, Note_on_c, 4, 44, 115
13, 700335, Note_on_c, 4, 45, 113
13, 700340, Note_on_c, 4, 56, 114
13, 700342, Note_on_c, 4, 42, 0
13, 700695, Note_on_c, 4, 45, 0
13, 700804, Note_on_c, 4, 58, 99
13, 700810, Note_on_c, 4, 44, 0
13, 700816, Note_on_c, 4, 46, 103
13, 700820, Note_on_c, 4, 56, 0
13, 701281, Note_on_c, 4, 43, 102
13, 701284, Note_on_c, 4, 58, 0
13, 701286, Note_on_c, 4, 54, 110
13, 701296, Note_on_c, 4, 46, 0
13, 701304, Note_on_c, 4, 42, 99
13, 701641, Note_on_c, 4, 43, 0
13, 701766, Note_on_c, 4, 54, 0
13, 701774, Note_on_c, 4, 44, 112
13, 701779, Note_on_c, 4, 56, 97
13, 701784, Note_on_c, 4, 42, 0
13, 702000, Note_on_c, 4, 43, 101
13, 702240, Note_on_c, 4, 43, 0
13, 702243, Note_on_c, 4, 58, 102
13, 702246, Note_on_c, 4, 46, 112
13, 702254, Note_on_c, 4, 44, 0
13, 702259, Note_on_c, 4, 56, 0
13, 702723, Note_on_c, 4, 58, 0
13, 702723, Note_on_c, 4, 54, 113
13, 702726, Note_on_c, 4, 46, 0
13, 702736, Note_on_c, 4, 42, 105
13, 703202, Note_on_c, 4, 56, 114
13, 703203, Note_on_c, 4, 54, 0
13, 703206, Note_on_c, 4, 43, 97
13, 703216, Note_on_c, 4, 42, 0
13, 703222, Note_on_c, 4, 44, 95
13, 703566, Note_on_c, 4, 43, 0
13, 703681, Note_on_c, 4, 46, 99
13, 703682, Note_on_c, 4, 56, 0
13, 703687, Note_on_c, 4, 58, 112
13, 703702, Note_on_c, 4, 44, 0
13, 704161, Note_on_c, 4, 46, 0
13, 704161, Note_on_c, 4, 54, 115
13, 704167, Note_on_c, 4, 58, 0
13, 704167, Note_on_c, 4, 45, 105
13, 704185, Note_on_c, 4, 42, 97
13, 704527, Note_on_c, 4, 45, 0
13, 704640, Note_on_c, 4, 44, 102
13, 704641, Note_on_c, 4, 54, 0
13, 704665, Note_on_c, 4, 42, 0
13, 704665, Note_on_c, 4, 56, 112
13, 705120, Note_on_c, 4, 44, 0
13, 705126, Note_on_c, 4, 46, 100
13, 705138, Note_on_c, 4, 58, 107
13, 705145, Note_on_c, 4, 56, 0
13, 705606, Note_on_c, 4, 46, 0
13, 705606, Note_on_c, 4, 54, 101
13, 705617, Note_on_c, 4, 42, 102
13, 705618, Note_on_c, 4, 58, 0
13, 706086, Note_on_c, 4, 54, 0
13, 706093, Note_on_c, 4, 56, 114
13, 706097, Note_on_c, 4, 42, 0
13, 706100, Note_on_c, 4, 44, 96
13, 706573, Note_on_c, 4, 56, 0
13, 706577, Note_on_c, 4, 46, 112
13, 706579, Note_on_c, 4, 58, 110
13, 706580, Note_on_c, 4, 44, 0
13, 707055, Note_on_c, 4, 54, 112
13, 707057, Note_on_c, 4, 46, 0
13, 707059, Note_on_c, 4, 58, 0
13, 707064, Note_on_c, 4, 42, 96
13, 707528, Note_on_c, 4, 44, 101
13, 707535, Note_on_c, 4, 54, 0
13, 707540, Note_on_c, 4, 56, 95
13, 707544, Note_on_c, 4, 42, 0
13, 708008, Note_on_c, 4, 44, 0
13, 708010, Note_on_c, 4, 46, 110
13, 708019, Note_on_c, 4, 58, 104
13, 708020, Note_on_c, 4, 56, 0
13, 708490, Note_on_c, 4, 46, 0
13, 708495, Note_on_c, 4, 54, 111
13, 708499, Note_on_c, 4, 58, 0
13, 708500, Note_on_c, 4, 42, 95
13, 708965, Note_on_c, 4, 44, 113
13, 708970, Note_on_c, 4, 56, 108
13, 708971, Note_on_c, 4, 43, 97
13, 708975, Note_on_c, 4, 54, 0
13, 708980, Note_on_c, 4, 42, 0
13, 709051, Note_on_c, 4, 43, 0
13, 709064, Note_on_c, 4, 48, 100
13, 709120, Note_on_c, 4, 52, 111
13, 709143, Note_on_c, 4, 48, 0
13, 709200, Note_on_c, 4, 52, 0
13, 709200, Note_on_c, 4, 55, 110
13, 709280, Note_on_c, 4, 55, 0
13, 709287, Note_on_c, 4, 60, 104
13, 709360, Note_on_c, 4, 64, 109
13, 709366, Note_on_c, 4, 60, 0
13, 709440, Note_on_c, 4, 64, 0
13, 709445, Note_on_c, 4, 44, 0
13, 709450, Note_on_c, 4, 56, 0
13, 709452, Note_on_c, 4, 58, 114
13, 709456, Note_on_c, 4, 46, 105
13, 709921, Note_on_c, 4, 42, 114
13, 709927, Note_on_c, 4, 54, 102
13, 709932, Note_on_c, 4, 58, 0
13, 709936, Note_on_c, 4, 46, 0
13, 710401, Note_on_c, 4, 42, 0
13, 710407, Note_on_c, 4, 54, 0
13, 710418, Note_on_c, 4, 56, 103
13, 710424, Note_on_c, 4, 44, 114
13, 710885, Note_on_c, 4, 58, 97
13, 710898, Note_on_c, 4, 56, 0
13, 710901, Note_on_c, 4, 46, 101
13, 710904, Note_on_c, 4, 44, 0
13, 711365, Note_on_c, 4, 58, 0
13, 711375, Note_on_c, 4, 42, 107
13, 711380, Note_on_c, 4, 54, 111
13, 711381, Note_on_c, 4, 46, 0
13, 711842, Note_on_c, 4, 43, 99
13, 711855, Note_on_c, 4, 42, 0
13, 711858, Note_on_c, 4, 44, 102
13, 711860, Note_on_c, 4, 54, 0
13, 711862, Note_on_c, 4, 56, 102
13, 711922, Note_on_c, 4, 43, 0
13, 711925, Note_on_c, 4, 48, 102
13, 712000, Note_on_c, 4, 52, 115
13, 712004, Note_on_c, 4, 48, 0
13, 712080, Note_on_c, 4, 52, 0
13, 712088, Note_on_c, 4, 55, 112
13, 712167, Note_on_c, 4, 60, 96
13, 712168, Note_on_c, 4, 55, 0
13, 712246, Note_on_c, 4, 60, 0
13, 712253, Note_on_c, 4, 64, 103
13, 712331, Note_on_c, 4, 46, 102
13, 712333, Note_on_c, 4, 64, 0
13, 712338, Note_on_c, 4, 44, 0
13, 712340, Note_on_c, 4, 58, 115
13, 712342, Note_on_c, 4, 56, 0
13, 712802, Note_on_c, 4, 42, 110
13, 712811, Note_on_c, 4, 46, 0
13, 712819, Note_on_c, 4, 54, 96
13, 712820, Note_on_c, 4, 58, 0
13, 712824, Note_on_c, 4, 43, 103
13, 713184, Note_on_c, 4, 43, 0
13, 713282, Note_on_c, 4, 42, 0
13, 713288, Note_on_c, 4, 43, 106
13, 713292, Note_on_c, 4, 56, 102
13, 713296, Note_on_c, 4, 44, 104
13, 713299, Note_on_c, 4, 54, 0
13, 713648, Note_on_c, 4, 43, 0
13, 713761, Note_on_c, 4, 58, 106
13, 713764, Note_on_c, 4, 46, 112
13, 713772, Note_on_c, 4, 56, 0
13, 713776, Note_on_c, 4, 44, 0
13, 714241, Note_on_c, 4, 58, 0
13, 714243, Note_on_c, 4, 42, 107
13, 714244, Note_on_c, 4, 46, 0
13, 714244, Note_on_c, 4, 43, 97
13, 714246, Note_on_c, 4, 54, 103
13, 714604, Note_on_c, 4, 43, 0
13, 714723, Note_on_c, 4, 42, 0
13, 714726, Note_on_c, 4, 54, 0
13, 714729, Note_on_c, 4, 44, 110
13, 714732, Note_on_c, 4, 56, 98
13, 715200, Note_on_c, 4, 58, 99
13, 715203, Note_on_c, 4, 46, 100
13, 715209, Note_on_c, 4, 44, 0
13, 715212, Note_on_c, 4, 56, 0
13, 715446, Note_on_c, 4, 43, 102
13, 715680, Note_on_c, 4, 58, 0
13, 715683, Note_on_c, 4, 46, 0
13, 715686, Note_on_c, 4, 43, 0
13, 715690, Note_on_c, 4, 54, 108
13, 715695, Note_on_c, 4, 42, 108
13, 716160, Note_on_c, 4, 56, 101
13, 716170, Note_on_c, 4, 54, 0
13, 716172, Note_on_c, 4, 44, 114
13, 716175, Note_on_c, 4, 42, 0
13, 716180, Note_on_c, 4, 43, 101
13, 716540, Note_on_c, 4, 43, 0
13, 716640, Note_on_c, 4, 56, 0
13, 716646, Note_on_c, 4, 46, 109
13, 716652, Note_on_c, 4, 44, 0
13, 716659, Note_on_c, 4, 58, 108
13, 717126, Note_on_c, 4, 46, 0
13, 717133, Note_on_c, 4, 54, 111
13, 717134, Note_on_c, 4, 42, 107
13, 717137, Note_on_c, 4, 43, 110
13, 717139, Note_on_c, 4, 58, 0
13, 717497, Note_on_c, 4, 43, 0
13, 717613, Note_on_c, 4, 54, 0
13, 717614, Note_on_c, 4, 42, 0
13, 717621, Note_on_c, 4, 56, 109
13, 717622, Note_on_c, 4, 44, 108
13, 717849, Note_on_c, 4, 43, 103
13, 718089, Note_on_c, 4, 43, 0
13, 718091, Note_on_c, 4, 58, 114
13, 718100, Note_on_c, 4, 46, 113
13, 718101, Note_on_c, 4, 56, 0
13, 718102, Note_on_c, 4, 44, 0
13, 718563, Note_on_c, 4, 54, 104
13, 718571, Note_on_c, 4, 58, 0
13, 718580, Note_on_c, 4, 46, 0
13, 718584, Note_on_c, 4, 42, 111
13, 719042, Note_on_c, 4, 56, 102
13, 719043, Note_on_c, 4, 54, 0
13, 719055, Note_on_c, 4, 44, 108
13, 719057, Note_on_c, 4, 43, 95
13, 719064, Note_on_c, 4, 42, 0
13, 719417, Note_on_c, 4, 43, 0
13, 719522, Note_on_c, 4, 56, 0
13, 719525, Note_on_c, 4, 58, 115
13, 719526, Note_on_c, 4, 46, 110
13, 719535, Note_on_c, 4, 44, 0
13, 720001, Note_on_c, 4, 54, 106
13, 720003, Note_on_c, 4, 42, 103
13, 720005, Note_on_c, 4, 58, 0
13, 720006, Note_on_c, 4, 46, 0
13, 720021, Note_on_c, 4, 43, 103
13, 720381, Note_on_c, 4, 43, 0
13, 720481, Note_on_c, 4, 54, 0
13, 720482, Note_on_c, 4, 56, 114
13, 720483, Note_on_c, 4, 42, 0
13, 720486, Note_on_c, 4, 44, 107
13, 720962, Note_on_c, 4, 56, 0
13, 720963, Note_on_c, 4, 58, 97
13, 720966, Note_on_c, 4, 44, 0
13, 720976, Note_on_c, 4, 46, 105
13, 720980, Note_on_c, 4, 43, 109
13, 721340, Note_on_c, 4, 43, 0
13, 721443, Note_on_c, 4, 58, 0
13, 721456, Note_on_c, 4, 46, 0
13, 740161, Note_on_c, 4, 42, 40
13, 740174, Note_on_c, 4, 54, 55
13, 740352, Note_on_c, 4, 42, 0
13, 740365, Note_on_c, 4, 54, 0
13, 740656, Note_on_c, 4, 56, 49
13, 740662, Note_on_c, 4, 44, 60
13, 740847, Note_on_c, 4, 56, 0
13, 740853, Note_on_c, 4, 44, 0
13, 741134, Note_on_c, 4, 46, 68
13, 741137, Note_on_c, 4, 58, 63
13, 741325, Note_on_c, 4, 46, 0
13, 741328, Note_on_c, 4, 58, 0
13, 741619, Note_on_c, 4, 48, 63
13, 741623, Note_on_c, 4, 60, 74
13, 741810, Note_on_c, 4, 48, 0
13, 741814, Note_on_c, 4, 60, 0
13, 742082, Note_on_c, 4, 50, 69
13, 742084, Note_on_c, 4, 62, 76
13, 742273, Note_on_c, 4, 50, 0
13, 742275, Note_on_c, 4, 62, 0
13, 742566, Note_on_c, 4, 52, 73
13, 742575, Note_on_c, 4, 64, 87
13, 742757, Note_on_c, 4, 52, 0
13, 742766, Note_on_c, 4, 64, 0
13, 743041, Note_on_c, 4, 42, 45
13, 743052, Note_on_c, 4, 54, 54
13, 743232, Note_on_c, 4, 42, 0
13, 743243, Note_on_c, 4, 54, 0
13, 743540, Note_on_c, 4, 44, 66
13, 743543, Note_on_c, 4, 56, 59
13, 743731, Note_on_c, 4, 44, 0
13, 743734, Note_on_c, 4, 56, 0
13, 744000, Note_on_c, 4, 46, 88
13, 744001, Note_on_c, 4, 58, 88
13, 744191, Note_on_c, 4, 46, 0
13, 744192, Note_on_c, 4, 58, 0
13, 744498, Note_on_c, 4, 42, 54
13, 744501, Note_on_c, 4, 54, 46
13, 744689, Note_on_c, 4, 42, 0
13, 744692, Note_on_c, 4, 54, 0
13, 744972, Note_on_c, 4, 44, 47
13, 744982, Note_on_c, 4, 56, 56
13, 745163, Note_on_c, 4, 44, 0
13, 745173, Note_on_c, 4, 56, 0
13, 745444, Note_on_c, 4, 46, 67
13, 745465, Note_on_c, 4, 58, 68
13, 745635, Note_on_c, 4, 46, 0
13, 745656, Note_on_c, 4, 58, 0
13, 745926, Note_on_c, 4, 48, 72
13, 745926, Note_on_c, 4, 60, 63
13, 746117, Note_on_c, 4, 48, 0
13, 746117, Note_on_c, 4, 60, 0
13, 746406, Note_on_c, 4, 62, 66
13, 746425, Note_on_c, 4, 50, 81
13, 746597, Note_on_c, 4, 62, 0
13, 746616, Note_on_c, 4, 50, 0
13, 746882, Note_on_c, 4, 52, 90
13, 746896, Note_on_c, 4, 64, 83
13, 747073, Note_on_c, 4, 52, 0
13, 747087, Note_on_c, 4, 64, 0
13, 747371, Note_on_c, 4, 42, 48
13, 747385, Note_on_c, 4, 54, 59
13, 747562, Note_on_c, 4, 42, 0
13, 747576, Note_on_c, 4, 54, 0
13, 747848, Note_on_c, 4, 56, 64
13, 747865, Note_on_c, 4, 44, 65
13, 748039, Note_on_c, 4, 56, 0
13, 748056, Note_on_c, 4, 44, 0
13, 748330, Note_on_c, 4, 46, 68
13, 748331, Note_on_c, 4, 58, 71
13, 748521, Note_on_c, 4, 46, 0
13, 748522, Note_on_c, 4, 58, 0
13, 748802, Note_on_c, 4, 48, 60
13, 748803, Note_on_c, 4, 60, 65
13, 748993, Note_on_c, 4, 48, 0
13, 748994, Note_on_c, 4, 60, 0
13, 749289, Note_on_c, 4, 62, 71
13, 749305, Note_on_c, 4, 50, 70
13, 749480, Note_on_c, 4, 62, 0
13, 749496, Note_on_c, 4, 50, 0
13, 749773, Note_on_c, 4, 64, 85
13, 749776, Note_on_c, 4, 52, 78
13, 749964, Note_on_c, 4, 64, 0
13, 749967, Note_on_c, 4, 52, 0
13, 750241, Note_on_c, 4, 42, 45
13, 750257, Note_on_c, 4, 54, 50
13, 750432, Note_on_c, 4, 42, 0
13, 750448, Note_on_c, 4, 54, 0
13, 750722, Note_on_c, 4, 56, 51
13, 750742, Note_on_c, 4, 44, 47
13, 750913, Note_on_c, 4, 56, 0
13, 750933, Note_on_c, 4, 44, 0
13, 751211, Note_on_c, 4, 58, 68
13, 751220, Note_on_c, 4, 46, 69
13, 751402, Note_on_c, 4, 58, 0
13, 751411, Note_on_c, 4, 46, 0
13, 751685, Note_on_c, 4, 48, 67
13, 751686, Note_on_c, 4, 60, 67
13, 751876, Note_on_c, 4, 48, 0
13, 751877, Note_on_c, 4, 60, 0
13, 752165, Note_on_c, 4, 50, 75
13, 752182, Note_on_c, 4, 62, 65
13, 752356, Note_on_c, 4, 50, 0
13, 752373, Note_on_c, 4, 62, 0
13, 752658, Note_on_c, 4, 52, 72
13, 752662, Note_on_c, 4, 64, 75
13, 752849, Note_on_c, 4, 52, 0
13, 752853, Note_on_c, 4, 64, 0
13, 753138, Note_on_c, 4, 42, 46
13, 753139, Note_on_c, 4, 54, 49
13, 753329, Note_on_c, 4, 42, 0
13, 753330, Note_on_c, 4, 54, 0
13, 753601, Note_on_c, 4, 44, 67
13, 753605, Note_on_c, 4, 56, 68
13, 753792, Note_on_c, 4, 44, 0
13, 753796, Note_on_c, 4, 56, 0
13, 754100, Note_on_c, 4, 46, 75
13, 754104, Note_on_c, 4, 58, 71
13, 754291, Note_on_c, 4, 46, 0
13, 754295, Note_on_c, 4, 58, 0
13, 754568, Note_on_c, 4, 42, 41
13, 754568, Note_on_c, 4, 54, 41
13, 754759, Note_on_c, 4, 42, 0
13, 754759, Note_on_c, 4, 54, 0
13, 755044, Note_on_c, 4, 44, 50
13, 755056, Note_on_c, 4, 56, 65
13, 755235, Note_on_c, 4, 44, 0
13, 755247, Note_on_c, 4, 56, 0
13, 755525, Note_on_c, 4, 58, 69
13, 755532, Note_on_c, 4, 46, 64
13, 755716, Note_on_c, 4, 58, 0
13, 755723, Note_on_c, 4, 46, 0
13, 756002, Note_on_c, 4, 48, 65
13, 756025, Note_on_c, 4, 60, 68
13, 756193, Note_on_c, 4, 48, 0
13, 756216, Note_on_c, 4, 60, 0
13, 756498, Note_on_c, 4, 62, 77
13, 756501, Note_on_c, 4, 50, 78
13, 756689, Note_on_c, 4, 62, 0
13, 756692, Note_on_c, 4, 50, 0
13, 756977, Note_on_c, 4, 52, 87
13, 756977, Note_on_c, 4, 64, 77
13, 757168, Note_on_c, 4, 52, 0
13, 757168, Note_on_c, 4, 64, 0
13, 757454, Note_on_c, 4, 54, 52
13, 757457, Note_on_c, 4, 42, 52
13, 757645, Note_on_c, 4, 54, 0
13, 757648, Note_on_c, 4, 42, 0
13, 757933, Note_on_c, 4, 44, 57
13, 757942, Note_on_c, 4, 56, 66
13, 758124, Note_on_c, 4, 44, 0
13, 758133, Note_on_c, 4, 56, 0
13, 758410, Note_on_c, 4, 46, 74
13, 758417, Note_on_c, 4, 58, 75
13, 758601, Note_on_c, 4, 46, 0
13, 758608, Note_on_c, 4, 58, 0
13, 758900, Note_on_c, 4, 54, 59
13, 758904, Note_on_c, 4, 42, 45
13, 759091, Note_on_c, 4, 54, 0
13, 759095, Note_on_c, 4, 42, 0
13, 759361, Note_on_c, 4, 56, 65
13, 759377, Note_on_c, 4, 44, 62
13, 759552, Note_on_c, 4, 56, 0
13, 759568, Note_on_c, 4, 44, 0
13, 759852, Note_on_c, 4, 46, 62
13, 759853, Note_on_c, 4, 58, 57
13, 760043, Note_on_c, 4, 46, 0
13, 760044, Note_on_c, 4, 58, 0
13, 760322, Note_on_c, 4, 60, 77
13, 760337, Note_on_c, 4, 48, 68
13, 760513, Note_on_c, 4, 60, 0
13, 760528, Note_on_c, 4, 48, 0
13, 760813, Note_on_c, 4, 50, 76
13, 760817, Note_on_c, 4, 62, 72
13, 761004, Note_on_c, 4, 50, 0
13, 761008, Note_on_c, 4, 62, 0
13, 761294, Note_on_c, 4, 52, 81
13, 761301, Note_on_c, 4, 64, 78
13, 761485, Note_on_c, 4, 52, 0
13, 761492, Note_on_c, 4, 64, 0
13, 761769, Note_on_c, 4, 42, 39
13, 761785, Note_on_c, 4, 54, 48
13, 761960, Note_on_c, 4, 42, 0
13, 761976, Note_on_c, 4, 54, 0
13, 762255, Note_on_c, 4, 44, 49
13, 762256, Note_on_c, 4, 56, 64
13, 762446, Note_on_c, 4, 44, 0
13, 762447, Note_on_c, 4, 56, 0
13, 762724, Note_on_c, 4, 46, 70
13, 762727, Note_on_c, 4, 58, 58
13, 762915, Note_on_c, 4, 46, 0
13, 762918, Note_on_c, 4, 58, 0
13, 763209, Note_on_c, 4, 60, 71
13, 763214, Note_on_c, 4, 48, 73
13, 763400, Note_on_c, 4, 60, 0
13, 763405, Note_on_c, 4, 48, 0
13, 763700, Note_on_c, 4, 50, 72
13, 763704, Note_on_c, 4, 62, 82
13, 763891, Note_on_c, 4, 50, 0
13, 763895, Note_on_c, 4, 62, 0
13, 764183, Note_on_c, 4, 64, 90
13, 764185, Note_on_c, 4, 52, 86
13, 764374, Note_on_c, 4, 64, 0
13, 764376, Note_on_c, 4, 52, 0
13, 764652, Note_on_c, 4, 54, 91
13, 764660, Note_on_c, 4, 42, 97
13, 765132, Note_on_c, 4, 54, 0
13, 765132, Note_on_c, 4, 44, 99
13, 765135, Note_on_c, 4, 56, 96
13, 765140, Note_on_c, 4, 42, 0
13, 765612, Note_on_c, 4, 44, 0
13, 765615, Note_on_c, 4, 56, 0
13, 765620, Note_on_c, 4, 46, 92
13, 765621, Note_on_c, 4, 58, 110
13, 766099, Note_on_c, 4, 48, 97
13, 766100, Note_on_c, 4, 46, 0
13, 766101, Note_on_c, 4, 58, 0
13, 766105, Note_on_c, 4, 60, 111
13, 766561, Note_on_c, 4, 50, 106
13, 766577, Note_on_c, 4, 62, 120
13, 766579, Note_on_c, 4, 48, 0
13, 766585, Note_on_c, 4, 60, 0
13, 767041, Note_on_c, 4, 50, 0
13, 767045, Note_on_c, 4, 52, 127
13, 767050, Note_on_c, 4, 64, 124
13, 767057, Note_on_c, 4, 62, 0
13, 767525, Note_on_c, 4, 52, 0
13, 767525, Note_on_c, 4, 42, 78
13, 767530, Note_on_c, 4, 64, 0
13, 767540, Note_on_c, 4, 54, 95
13, 768005, Note_on_c, 4, 42, 0
13, 768014, Note_on_c, 4, 44, 90
13, 768020, Note_on_c, 4, 54, 0
13, 768025, Note_on_c, 4, 56, 102
13, 768494, Note_on_c, 4, 44, 0
13, 768495, Note_on_c, 4, 46, 106
13, 768505, Note_on_c, 4, 56, 0
13, 768505, Note_on_c, 4, 58, 107
13, 768968, Note_on_c, 4, 48, 113
13, 768975, Note_on_c, 4, 46, 0
13, 768978, Note_on_c, 4, 60, 102
13, 768985, Note_on_c, 4, 58, 0
13, 769446, Note_on_c, 4, 50, 113
13, 769448, Note_on_c, 4, 48, 0
13, 769458, Note_on_c, 4, 60, 0
13, 769464, Note_on_c, 4, 62, 104
13, 769926, Note_on_c, 4, 50, 0
13, 769933, Note_on_c, 4, 52, 113
13, 769941, Note_on_c, 4, 64, 106
13, 769944, Note_on_c, 4, 62, 0
13, 770413, Note_on_c, 4, 52, 0
13, 770421, Note_on_c, 4, 64, 0
13, 770421, Note_on_c, 4, 66, 124
13, 770422, Note_on_c, 4, 54, 122
13, 770889, Note_on_c, 4, 68, 125
13, 770900, Note_on_c, 4, 56, 127
13, 770901, Note_on_c, 4, 66, 0
13, 770902, Note_on_c, 4, 54, 0
13, 771363, Note_on_c, 4, 58, 127
13, 771369, Note_on_c, 4, 68, 0
13, 771376, Note_on_c, 4, 70, 123
13, 771380, Note_on_c, 4, 56, 0
13, 771840, Note_on_c, 4, 72, 125
13, 771843, Note_on_c, 4, 58, 0
13, 771856, Note_on_c, 4, 70, 0
13, 771863, Note_on_c, 4, 60, 117
13, 772320, Note_on_c, 4, 72, 0
13, 772329, Note_on_c, 4, 62, 127
13, 772334, Note_on_c, 4, 74, 127
13, 772343, Note_on_c, 4, 60, 0
13, 772809, Note_on_c, 4, 62, 0
13, 772812, Note_on_c, 4, 76, 127
13, 772814, Note_on_c, 4, 74, 0
13, 772823, Note_on_c, 4, 64, 124
13, 773292, Note_on_c, 4, 76, 0
13, 773303, Note_on_c, 4, 64, 0
13, 773303, End_track
14, 0, Start_track
14, 0, Title_t, "Corni"
14, 0, MIDI_port, 0
14, 0, Program_c, 5, 60
14, 0, Control_c, 5, 7, 92
14, 0, Control_c, 5, 10, 44
14, 0, Control_c, 5, 91, 92
14, 1925, Note_on_c, 5, 61, 54
14, 2564, Note_on_c, 5, 61, 0
14, 2574, Note_on_c, 5, 62, 68
14, 3845, Control_c, 5, 11, 126
14, 3846, Note_on_c, 5, 61, 60
14, 3854, Note_on_c, 5, 62, 0
14, 3855, Control_c, 5, 11, 125
14, 3866, Control_c, 5, 11, 124
14, 3876, Control_c, 5, 11, 123
14, 3886, Control_c, 5, 11, 122
14, 3897, Control_c, 5, 11, 121
14, 3907, Control_c, 5, 11, 120
14, 3918, Control_c, 5, 11, 119
14, 3928, Control_c, 5, 11, 118
14, 3939, Control_c, 5, 11, 117
14, 3950, Control_c, 5, 11, 116
14, 3960, Control_c, 5, 11, 115
14, 3971, Control_c, 5, 11, 114
14, 3981, Control_c, 5, 11, 113
14, 3991, Control_c, 5, 11, 112
14, 4002, Control_c, 5, 11, 111
14, 4012, Control_c, 5, 11, 110
14, 4023, Control_c, 5, 11, 109
14, 4033, Control_c, 5, 11, 108
14, 4044, Control_c, 5, 11, 107
14, 4054, Control_c, 5, 11, 106
14, 4065, Control_c, 5, 11, 105
14, 4075, Control_c, 5, 11, 104
14, 4085, Control_c, 5, 11, 103
14, 4096, Control_c, 5, 11, 102
14, 4106, Control_c, 5, 11, 101
14, 4117, Control_c, 5, 11, 100
14, 4128, Control_c, 5, 11, 99
14, 4138, Control_c, 5, 11, 98
14, 4148, Control_c, 5, 11, 97
14, 4159, Control_c, 5, 11, 96
14, 4170, Control_c, 5, 11, 95
14, 4180, Control_c, 5, 11, 94
14, 4190, Control_c, 5, 11, 93
14, 4201, Control_c, 5, 11, 92
14, 4211, Control_c, 5, 11, 91
14, 4222, Control_c, 5, 11, 90
14, 4232, Control_c, 5, 11, 89
14, 4243, Control_c, 5, 11, 88
14, 4253, Control_c, 5, 11, 87
14, 4263, Control_c, 5, 11, 86
14, 4275, Control_c, 5, 11, 85
14, 4285, Control_c, 5, 11, 84
14, 4295, Control_c, 5, 11, 83
14, 4306, Control_c, 5, 11, 82
14, 4316, Control_c, 5, 11, 81
14, 4326, Control_c, 5, 11, 80
14, 4337, Control_c, 5, 11, 79
14, 4348, Control_c, 5, 11, 78
14, 4358, Control_c, 5, 11, 77
14, 4368, Control_c, 5, 11, 76
14, 4379, Control_c, 5, 11, 75
14, 4389, Control_c, 5, 11, 74
14, 4400, Control_c, 5, 11, 73
14, 4410, Control_c, 5, 11, 72
14, 4421, Control_c, 5, 11, 71
14, 4431, Control_c, 5, 11, 70
14, 4441, Control_c, 5, 11, 69
14, 4452, Control_c, 5, 11, 68
14, 4463, Control_c, 5, 11, 67
14, 4473, Control_c, 5, 11, 66
14, 4484, Control_c, 5, 11, 65
14, 4494, Control_c, 5, 11, 64
14, 4505, Control_c, 5, 11, 63
14, 4515, Control_c, 5, 11, 62
14, 4526, Control_c, 5, 11, 61
14, 4536, Control_c, 5, 11, 60
14, 4546, Control_c, 5, 11, 59
14, 4557, Control_c, 5, 11, 58
14, 4567, Control_c, 5, 11, 57
14, 4578, Control_c, 5, 11, 56
14, 4588, Control_c, 5, 11, 55
14, 4599, Control_c, 5, 11, 54
14, 4610, Control_c, 5, 11, 53
14, 4620, Control_c, 5, 11, 52
14, 4630, Control_c, 5, 11, 51
14, 4641, Control_c, 5, 11, 50
14, 4651, Control_c, 5, 11, 49
14, 4661, Control_c, 5, 11, 48
14, 4672, Control_c, 5, 11, 47
14, 4683, Control_c, 5, 11, 46
14, 4693, Control_c, 5, 11, 45
14, 4704, Control_c, 5, 11, 44
14, 4714, Control_c, 5, 11, 43
14, 4725, Control_c, 5, 11, 42
14, 4735, Control_c, 5, 11, 41
14, 4745, Control_c, 5, 11, 40
14, 4756, Control_c, 5, 11, 39
14, 4766, Control_c, 5, 11, 38
14, 4777, Control_c, 5, 11, 37
14, 4788, Control_c, 5, 11, 36
14, 4798, Control_c, 5, 11, 35
14, 4808, Control_c, 5, 11, 34
14, 4819, Control_c, 5, 11, 33
14, 5046, Note_on_c, 5, 61, 0
14, 5280, Control_c, 5, 11, 127
14, 23048, Note_on_c, 5, 64, 39
14, 23055, Note_on_c, 5, 56, 44
14, 23056, Note_on_c, 5, 47, 55
14, 28805, Note_on_c, 5, 57, 57
14, 28808, Note_on_c, 5, 64, 0
14, 28809, Note_on_c, 5, 46, 64
14, 28815, Note_on_c, 5, 56, 0
14, 28816, Note_on_c, 5, 47, 0
14, 28819, Note_on_c, 5, 65, 55
14, 29531, Note_on_c, 5, 64, 52
14, 29539, Note_on_c, 5, 65, 0
14, 30486, Note_on_c, 5, 65, 53
14, 30491, Note_on_c, 5, 64, 0
14, 30966, Note_on_c, 5, 65, 0
14, 30972, Note_on_c, 5, 64, 59
14, 31452, Note_on_c, 5, 64, 0
14, 31462, Note_on_c, 5, 65, 67
14, 31682, Note_on_c, 5, 50, 67
14, 31685, Note_on_c, 5, 57, 0
14, 31689, Note_on_c, 5, 46, 0
14, 31698, Note_on_c, 5, 47, 61
14, 31922, Note_on_c, 5, 50, 0
14, 31938, Note_on_c, 5, 47, 0
14, 31942, Note_on_c, 5, 65, 0
14, 42265, Note_on_c, 5, 62, 57
14, 45145, Note_on_c, 5, 62, 0
14, 45145, Note_on_c, 5, 59, 68
14, 45263, Note_on_c, 5, 61, 68
14, 45265, Note_on_c, 5, 59, 0
14, 45368, Note_on_c, 5, 59, 60
14, 45383, Note_on_c, 5, 61, 0
14, 45488, Note_on_c, 5, 59, 0
14, 45492, Note_on_c, 5, 61, 69
14, 45607, Note_on_c, 5, 59, 59
14, 45612, Note_on_c, 5, 61, 0
14, 45727, Note_on_c, 5, 59, 0
14, 45742, Note_on_c, 5, 61, 58
14, 45859, Note_on_c, 5, 59, 52
14, 45862, Note_on_c, 5, 61, 0
14, 45979, Note_on_c, 5, 59, 0
14, 45983, Note_on_c, 5, 61, 62
14, 46081, Note_on_c, 5, 62, 57
14, 46103, Note_on_c, 5, 61, 0
14, 46561, Note_on_c, 5, 62, 0
14, 47041, Note_on_c, 5, 59, 54
14, 47161, Note_on_c, 5, 59, 0
14, 47185, Note_on_c, 5, 61, 66
14, 47300, Note_on_c, 5, 59, 62
14, 47305, Note_on_c, 5, 61, 0
14, 47420, Note_on_c, 5, 59, 0
14, 47425, Note_on_c, 5, 61, 62
14, 47538, Note_on_c, 5, 59, 60
14, 47545, Note_on_c, 5, 61, 0
14, 47658, Note_on_c, 5, 59, 0
14, 47660, Note_on_c, 5, 61, 68
14, 47768, Note_on_c, 5, 59, 52
14, 47780, Note_on_c, 5, 61, 0
14, 47888, Note_on_c, 5, 59, 0
14, 47903, Note_on_c, 5, 61, 71
14, 48023, Note_on_c, 5, 61, 0
14, 48025, Note_on_c, 5, 59, 53
14, 48143, Note_on_c, 5, 61, 65
14, 48145, Note_on_c, 5, 59, 0
14, 48263, Note_on_c, 5, 61, 0
14, 48264, Note_on_c, 5, 59, 56
14, 48367, Note_on_c, 5, 61, 72
14, 48384, Note_on_c, 5, 59, 0
14, 48487, Note_on_c, 5, 61, 0
14, 48498, Note_on_c, 5, 59, 63
14, 48618, Note_on_c, 5, 59, 0
14, 48618, Note_on_c, 5, 61, 59
14, 48723, Note_on_c, 5, 59, 70
14, 48738, Note_on_c, 5, 61, 0
14, 48843, Note_on_c, 5, 59, 0
14, 48850, Note_on_c, 5, 61, 69
14, 48970, Note_on_c, 5, 61, 0
14, 66404, Note_on_c, 5, 56, 66
14, 66423, Note_on_c, 5, 55, 80
14, 66564, Note_on_c, 5, 56, 0
14, 66583, Note_on_c, 5, 55, 0
14, 66730, Note_on_c, 5, 56, 71
14, 66731, Note_on_c, 5, 55, 78
14, 66889, Note_on_c, 5, 56, 0
14, 66890, Note_on_c, 5, 55, 0
14, 67041, Note_on_c, 5, 56, 69
14, 67058, Note_on_c, 5, 55, 68
14, 67200, Note_on_c, 5, 56, 0
14, 67217, Note_on_c, 5, 55, 0
14, 67364, Note_on_c, 5, 56, 66
14, 67373, Note_on_c, 5, 55, 73
14, 67524, Note_on_c, 5, 56, 0
14, 67533, Note_on_c, 5, 55, 0
14, 67695, Note_on_c, 5, 56, 76
14, 67699, Note_on_c, 5, 55, 72
14, 67854, Note_on_c, 5, 56, 0
14, 67858, Note_on_c, 5, 55, 0
14, 68006, Note_on_c, 5, 56, 65
14, 68025, Note_on_c, 5, 55, 69
14, 68165, Note_on_c, 5, 56, 0
14, 68184, Note_on_c, 5, 55, 0
14, 68336, Note_on_c, 5, 56, 84
14, 68341, Note_on_c, 5, 55, 78
14, 68496, Note_on_c, 5, 56, 0
14, 68501, Note_on_c, 5, 55, 0
14, 68650, Note_on_c, 5, 55, 73
14, 68650, Note_on_c, 5, 56, 81
14, 68809, Note_on_c, 5, 55, 0
14, 68809, Note_on_c, 5, 56, 0
14, 68966, Note_on_c, 5, 55, 69
14, 68980, Note_on_c, 5, 56, 82
14, 69125, Note_on_c, 5, 55, 0
14, 69139, Note_on_c, 5, 56, 0
14, 69285, Note_on_c, 5, 56, 69
14, 69292, Note_on_c, 5, 55, 65
14, 69445, Note_on_c, 5, 56, 0
14, 69452, Note_on_c, 5, 55, 0
14, 69611, Note_on_c, 5, 55, 75
14, 69620, Note_on_c, 5, 56, 83
14, 69770, Note_on_c, 5, 55, 0
14, 69779, Note_on_c, 5, 56, 0
14, 69924, Note_on_c, 5, 56, 83
14, 69925, Note_on_c, 5, 55, 67
14, 70083, Note_on_c, 5, 56, 0
14, 70084, Note_on_c, 5, 55, 0
14, 70240, Note_on_c, 5, 56, 84
14, 70259, Note_on_c, 5, 55, 78
14, 70400, Note_on_c, 5, 56, 0
14, 70419, Note_on_c, 5, 55, 0
14, 70570, Note_on_c, 5, 55, 84
14, 70574, Note_on_c, 5, 56, 68
14, 70729, Note_on_c, 5, 55, 0
14, 70733, Note_on_c, 5, 56, 0
14, 70888, Note_on_c, 5, 55, 70
14, 70890, Note_on_c, 5, 56, 75
14, 71047, Note_on_c, 5, 55, 0
14, 71049, Note_on_c, 5, 56, 0
14, 71212, Note_on_c, 5, 55, 70
14, 71219, Note_on_c, 5, 56, 71
14, 71372, Note_on_c, 5, 55, 0
14, 71379, Note_on_c, 5, 56, 0
14, 81602, Note_on_c, 5, 63, 53
14, 81619, Note_on_c, 5, 67, 51
14, 84002, Note_on_c, 5, 63, 0
14, 84019, Note_on_c, 5, 67, 0
14, 86164, Note_on_c, 5, 52, 102
14, 86165, Note_on_c, 5, 40, 102
14, 86169, Note_on_c, 5, 44, 93
14, 86179, Note_on_c, 5, 63, 98
14, 86182, Note_on_c, 5, 55, 91
14, 86182, Note_on_c, 5, 58, 94
14, 86184, Note_on_c, 5, 61, 98
14, 86185, Note_on_c, 5, 47, 86
14, 86259, Note_on_c, 5, 52, 0
14, 86260, Note_on_c, 5, 40, 0
14, 86264, Note_on_c, 5, 44, 0
14, 86274, Note_on_c, 5, 63, 0
14, 86277, Note_on_c, 5, 55, 0
14, 86277, Note_on_c, 5, 58, 0
14, 86279, Note_on_c, 5, 61, 0
14, 86280, Note_on_c, 5, 47, 0
14, 86644, Note_on_c, 5, 44, 98
14, 86646, Note_on_c, 5, 47, 101
14, 86646, Note_on_c, 5, 58, 92
14, 86647, Note_on_c, 5, 40, 95
14, 86648, Note_on_c, 5, 52, 91
14, 86650, Note_on_c, 5, 55, 95
14, 86659, Note_on_c, 5, 63, 92
14, 86661, Note_on_c, 5, 61, 91
14, 86739, Note_on_c, 5, 44, 0
14, 86741, Note_on_c, 5, 47, 0
14, 86741, Note_on_c, 5, 58, 0
14, 86742, Note_on_c, 5, 40, 0
14, 86743, Note_on_c, 5, 52, 0
14, 86745, Note_on_c, 5, 55, 0
14, 86754, Note_on_c, 5, 63, 0
14, 86756, Note_on_c, 5, 61, 0
14, 88080, Note_on_c, 5, 47, 100
14, 88082, Note_on_c, 5, 52, 92
14, 88084, Note_on_c, 5, 61, 101
14, 88087, Note_on_c, 5, 40, 97
14, 88091, Note_on_c, 5, 55, 105
14, 88098, Note_on_c, 5, 44, 93
14, 88100, Note_on_c, 5, 63, 92
14, 88104, Note_on_c, 5, 58, 86
14, 88175, Note_on_c, 5, 47, 0
14, 88177, Note_on_c, 5, 52, 0
14, 88179, Note_on_c, 5, 61, 0
14, 88182, Note_on_c, 5, 40, 0
14, 88186, Note_on_c, 5, 55, 0
14, 88193, Note_on_c, 5, 44, 0
14, 88195, Note_on_c, 5, 63, 0
14, 88199, Note_on_c, 5, 58, 0
14, 88803, Note_on_c, 5, 55, 88
14, 88804, Note_on_c, 5, 44, 103
14, 88805, Note_on_c, 5, 52, 96
14, 88806, Note_on_c, 5, 40, 92
14, 88808, Note_on_c, 5, 61, 93
14, 88809, Note_on_c, 5, 58, 86
14, 88815, Note_on_c, 5, 47, 92
14, 88815, Note_on_c, 5, 63, 88
14, 88898, Note_on_c, 5, 55, 0
14, 88899, Note_on_c, 5, 44, 0
14, 88900, Note_on_c, 5, 52, 0
14, 88901, Note_on_c, 5, 40, 0
14, 88903, Note_on_c, 5, 61, 0
14, 88904, Note_on_c, 5, 58, 0
14, 88910, Note_on_c, 5, 47, 0
14, 88910, Note_on_c, 5, 63, 0
14, 89762, Note_on_c, 5, 55, 101
14, 89764, Note_on_c, 5, 47, 98
14, 89772, Note_on_c, 5, 52, 96
14, 89773, Note_on_c, 5, 58, 100
14, 89777, Note_on_c, 5, 40, 85
14, 89777, Note_on_c, 5, 44, 99
14, 89780, Note_on_c, 5, 61, 92
14, 89785, Note_on_c, 5, 63, 90
14, 89857, Note_on_c, 5, 55, 0
14, 89859, Note_on_c, 5, 47, 0
14, 89867, Note_on_c, 5, 52, 0
14, 89868, Note_on_c, 5, 58, 0
14, 89872, Note_on_c, 5, 40, 0
14, 89872, Note_on_c, 5, 44, 0
14, 89875, Note_on_c, 5, 61, 0
14, 89880, Note_on_c, 5, 63, 0
14, 90963, Note_on_c, 5, 63, 99
14, 90967, Note_on_c, 5, 44, 85
14, 90968, Note_on_c, 5, 40, 100
14, 90972, Note_on_c, 5, 52, 104
14, 90973, Note_on_c, 5, 55, 93
14, 90980, Note_on_c, 5, 61, 103
14, 90983, Note_on_c, 5, 47, 85
14, 90984, Note_on_c, 5, 58, 93
14, 91058, Note_on_c, 5, 63, 0
14, 91062, Note_on_c, 5, 44, 0
14, 91063, Note_on_c, 5, 40, 0
14, 91067, Note_on_c, 5, 52, 0
14, 91068, Note_on_c, 5, 55, 0
14, 91075, Note_on_c, 5, 61, 0
14, 91078, Note_on_c, 5, 47, 0
14, 91079, Note_on_c, 5, 58, 0
14, 96724, Note_on_c, 5, 55, 86
14, 96727, Note_on_c, 5, 44, 95
14, 96730, Note_on_c, 5, 58, 95
14, 96734, Note_on_c, 5, 52, 104
14, 96735, Note_on_c, 5, 63, 89
14, 96737, Note_on_c, 5, 61, 103
14, 96738, Note_on_c, 5, 40, 101
14, 96741, Note_on_c, 5, 47, 104
14, 96819, Note_on_c, 5, 55, 0
14, 96822, Note_on_c, 5, 44, 0
14, 96825, Note_on_c, 5, 58, 0
14, 96829, Note_on_c, 5, 52, 0
14, 96830, Note_on_c, 5, 63, 0
14, 96832, Note_on_c, 5, 61, 0
14, 96833, Note_on_c, 5, 40, 0
14, 96836, Note_on_c, 5, 47, 0
14, 97205, Note_on_c, 5, 58, 93
14, 97206, Note_on_c, 5, 40, 96
14, 97208, Note_on_c, 5, 44, 102
14, 97209, Note_on_c, 5, 47, 88
14, 97217, Note_on_c, 5, 61, 97
14, 97218, Note_on_c, 5, 55, 95
14, 97220, Note_on_c, 5, 63, 103
14, 97225, Note_on_c, 5, 52, 104
14, 97300, Note_on_c, 5, 58, 0
14, 97301, Note_on_c, 5, 40, 0
14, 97303, Note_on_c, 5, 44, 0
14, 97304, Note_on_c, 5, 47, 0
14, 97312, Note_on_c, 5, 61, 0
14, 97313, Note_on_c, 5, 55, 0
14, 97315, Note_on_c, 5, 63, 0
14, 97320, Note_on_c, 5, 52, 0
14, 98640, Note_on_c, 5, 55, 92
14, 98640, Note_on_c, 5, 58, 85
14, 98644, Note_on_c, 5, 47, 100
14, 98645, Note_on_c, 5, 52, 89
14, 98647, Note_on_c, 5, 44, 103
14, 98648, Note_on_c, 5, 63, 85
14, 98653, Note_on_c, 5, 61, 87
14, 98655, Note_on_c, 5, 40, 89
14, 98735, Note_on_c, 5, 55, 0
14, 98735, Note_on_c, 5, 58, 0
14, 98739, Note_on_c, 5, 47, 0
14, 98740, Note_on_c, 5, 52, 0
14, 98742, Note_on_c, 5, 44, 0
14, 98743, Note_on_c, 5, 63, 0
14, 98748, Note_on_c, 5, 61, 0
14, 98750, Note_on_c, 5, 40, 0
14, 104179, Note_on_c, 5, 57, 72
14, 104259, Note_on_c, 5, 57, 0
14, 104333, Note_on_c, 5, 57, 70
14, 104414, Note_on_c, 5, 57, 0
14, 104495, Note_on_c, 5, 57, 77
14, 104575, Note_on_c, 5, 57, 0
14, 104655, Note_on_c, 5, 57, 78
14, 105135, Note_on_c, 5, 57, 0
14, 108250, Note_on_c, 5, 51, 94
14, 108720, Note_on_c, 5, 51, 102
14, 108730, Note_on_c, 5, 51, 0
14, 108760, Note_on_c, 5, 51, 0
14, 108800, Note_on_c, 5, 51, 87
14, 108839, Note_on_c, 5, 51, 0
14, 108879, Note_on_c, 5, 51, 95
14, 108919, Note_on_c, 5, 51, 0
14, 110400, Note_on_c, 5, 51, 101
14, 110440, Note_on_c, 5, 51, 0
14, 110480, Note_on_c, 5, 51, 78
14, 110519, Note_on_c, 5, 51, 0
14, 110559, Note_on_c, 5, 51, 98
14, 110599, Note_on_c, 5, 51, 0
14, 111131, Note_on_c, 5, 51, 90
14, 111600, Note_on_c, 5, 51, 106
14, 111611, Note_on_c, 5, 51, 0
14, 111640, Note_on_c, 5, 51, 0
14, 111680, Note_on_c, 5, 51, 78
14, 111719, Note_on_c, 5, 51, 0
14, 111759, Note_on_c, 5, 51, 97
14, 111799, Note_on_c, 5, 51, 0
14, 116484, Note_on_c, 5, 62, 94
14, 116643, Note_on_c, 5, 62, 0
14, 118800, Note_on_c, 5, 61, 102
14, 118802, Note_on_c, 5, 63, 99
14, 118806, Note_on_c, 5, 55, 89
14, 118808, Note_on_c, 5, 40, 90
14, 118814, Note_on_c, 5, 47, 102
14, 118818, Note_on_c, 5, 52, 89
14, 118822, Note_on_c, 5, 58, 100
14, 118825, Note_on_c, 5, 44, 87
14, 118895, Note_on_c, 5, 61, 0
14, 118897, Note_on_c, 5, 63, 0
14, 118901, Note_on_c, 5, 55, 0
14, 118903, Note_on_c, 5, 40, 0
14, 118909, Note_on_c, 5, 47, 0
14, 118913, Note_on_c, 5, 52, 0
14, 118917, Note_on_c, 5, 58, 0
14, 118920, Note_on_c, 5, 44, 0
14, 119280, Note_on_c, 5, 55, 97
14, 119283, Note_on_c, 5, 52, 100
14, 119284, Note_on_c, 5, 61, 91
14, 119285, Note_on_c, 5, 44, 89
14, 119285, Note_on_c, 5, 47, 86
14, 119290, Note_on_c, 5, 58, 105
14, 119300, Note_on_c, 5, 40, 99
14, 119303, Note_on_c, 5, 63, 104
14, 119375, Note_on_c, 5, 55, 0
14, 119378, Note_on_c, 5, 52, 0
14, 119379, Note_on_c, 5, 61, 0
14, 119380, Note_on_c, 5, 44, 0
14, 119380, Note_on_c, 5, 47, 0
14, 119385, Note_on_c, 5, 58, 0
14, 119395, Note_on_c, 5, 40, 0
14, 119398, Note_on_c, 5, 63, 0
14, 120724, Note_on_c, 5, 44, 96
14, 120729, Note_on_c, 5, 40, 86
14, 120735, Note_on_c, 5, 58, 104
14, 120736, Note_on_c, 5, 47, 91
14, 120736, Note_on_c, 5, 63, 101
14, 120741, Note_on_c, 5, 61, 89
14, 120741, Note_on_c, 5, 52, 105
14, 120745, Note_on_c, 5, 55, 99
14, 120819, Note_on_c, 5, 44, 0
14, 120824, Note_on_c, 5, 40, 0
14, 120830, Note_on_c, 5, 58, 0
14, 120831, Note_on_c, 5, 47, 0
14, 120831, Note_on_c, 5, 63, 0
14, 120836, Note_on_c, 5, 61, 0
14, 120836, Note_on_c, 5, 52, 0
14, 120840, Note_on_c, 5, 55, 0
14, 121441, Note_on_c, 5, 55, 91
14, 121449, Note_on_c, 5, 61, 102
14, 121450, Note_on_c, 5, 63, 88
14, 121454, Note_on_c, 5, 44, 101
14, 121457, Note_on_c, 5, 47, 104
14, 121458, Note_on_c, 5, 40, 86
14, 121460, Note_on_c, 5, 58, 94
14, 121460, Note_on_c, 5, 52, 99
14, 121536, Note_on_c, 5, 55, 0
14, 121544, Note_on_c, 5, 61, 0
14, 121545, Note_on_c, 5, 63, 0
14, 121549, Note_on_c, 5, 44, 0
14, 121552, Note_on_c, 5, 47, 0
14, 121553, Note_on_c, 5, 40, 0
14, 121555, Note_on_c, 5, 58, 0
14, 121555, Note_on_c, 5, 52, 0
14, 122405, Note_on_c, 5, 52, 91
14, 122408, Note_on_c, 5, 40, 102
14, 122408, Note_on_c, 5, 63, 92
14, 122411, Note_on_c, 5, 55, 102
14, 122417, Note_on_c, 5, 58, 86
14, 122418, Note_on_c, 5, 44, 97
14, 122419, Note_on_c, 5, 47, 103
14, 122423, Note_on_c, 5, 61, 91
14, 122500, Note_on_c, 5, 52, 0
14, 122503, Note_on_c, 5, 40, 0
14, 122503, Note_on_c, 5, 63, 0
14, 122506, Note_on_c, 5, 55, 0
14, 122512, Note_on_c, 5, 58, 0
14, 122513, Note_on_c, 5, 44, 0
14, 122514, Note_on_c, 5, 47, 0
14, 122518, Note_on_c, 5, 61, 0
14, 123603, Note_on_c, 5, 52, 89
14, 123605, Note_on_c, 5, 58, 101
14, 123610, Note_on_c, 5, 44, 94
14, 123614, Note_on_c, 5, 61, 85
14, 123614, Note_on_c, 5, 63, 102
14, 123617, Note_on_c, 5, 47, 104
14, 123625, Note_on_c, 5, 55, 92
14, 123625, Note_on_c, 5, 40, 97
14, 123698, Note_on_c, 5, 52, 0
14, 123700, Note_on_c, 5, 58, 0
14, 123705, Note_on_c, 5, 44, 0
14, 123709, Note_on_c, 5, 61, 0
14, 123709, Note_on_c, 5, 63, 0
14, 123712, Note_on_c, 5, 47, 0
14, 123720, Note_on_c, 5, 55, 0
14, 123720, Note_on_c, 5, 40, 0
14, 150720, Note_on_c, 5, 63, 112
14, 150728, Note_on_c, 5, 51, 119
14, 150736, Note_on_c, 5, 51, 107
14, 150741, Note_on_c, 5, 39, 117
14, 151200, Note_on_c, 5, 63, 0
14, 151208, Note_on_c, 5, 51, 0
14, 151216, Note_on_c, 5, 51, 0
14, 151221, Note_on_c, 5, 39, 0
14, 168483, Note_on_c, 5, 67, 62
14, 168723, Note_on_c, 5, 67, 0
14, 168723, Note_on_c, 5, 69, 64
14, 168843, Note_on_c, 5, 69, 0
14, 168858, Note_on_c, 5, 65, 69
14, 168976, Note_on_c, 5, 67, 67
14, 168978, Note_on_c, 5, 65, 0
14, 169202, Note_on_c, 5, 72, 63
14, 169216, Note_on_c, 5, 67, 0
14, 169442, Note_on_c, 5, 72, 0
14, 169455, Note_on_c, 5, 70, 80
14, 169684, Note_on_c, 5, 69, 65
14, 169695, Note_on_c, 5, 70, 0
14, 169802, Note_on_c, 5, 67, 76
14, 169804, Note_on_c, 5, 69, 0
14, 169922, Note_on_c, 5, 67, 0
14, 169940, Note_on_c, 5, 69, 66
14, 170164, Note_on_c, 5, 65, 67
14, 170180, Note_on_c, 5, 69, 0
14, 170404, Note_on_c, 5, 65, 0
14, 170414, Note_on_c, 5, 67, 71
14, 171090, Note_on_c, 5, 72, 65
14, 171104, Note_on_c, 5, 67, 0
14, 171120, Note_on_c, 5, 72, 0
14, 171132, Note_on_c, 5, 69, 70
14, 171366, Note_on_c, 5, 67, 59
14, 171372, Note_on_c, 5, 69, 0
14, 174450, Note_on_c, 5, 72, 53
14, 174456, Note_on_c, 5, 67, 0
14, 174480, Note_on_c, 5, 72, 0
14, 174502, Note_on_c, 5, 69, 47
14, 174726, Note_on_c, 5, 67, 43
14, 174742, Note_on_c, 5, 69, 0
14, 175926, Note_on_c, 5, 67, 0
14, 185785, Note_on_c, 5, 61, 81
14, 185880, Note_on_c, 5, 61, 0
14, 186015, Note_on_c, 5, 58, 72
14, 186110, Note_on_c, 5, 58, 0
14, 186249, Note_on_c, 5, 63, 65
14, 186344, Note_on_c, 5, 63, 0
14, 186490, Note_on_c, 5, 58, 76
14, 186585, Note_on_c, 5, 58, 0
14, 186727, Note_on_c, 5, 61, 71
14, 186822, Note_on_c, 5, 61, 0
14, 186966, Note_on_c, 5, 58, 67
14, 187061, Note_on_c, 5, 58, 0
14, 187220, Note_on_c, 5, 63, 75
14, 187315, Note_on_c, 5, 63, 0
14, 187464, Note_on_c, 5, 58, 76
14, 187559, Note_on_c, 5, 58, 0
14, 187698, Note_on_c, 5, 61, 71
14, 187793, Note_on_c, 5, 61, 0
14, 187926, Note_on_c, 5, 58, 70
14, 188021, Note_on_c, 5, 58, 0
14, 188169, Note_on_c, 5, 63, 81
14, 188264, Note_on_c, 5, 63, 0
14, 188417, Note_on_c, 5, 58, 71
14, 188512, Note_on_c, 5, 58, 0
14, 188645, Note_on_c, 5, 61, 84
14, 188740, Note_on_c, 5, 61, 0
14, 188901, Note_on_c, 5, 58, 72
14, 188996, Note_on_c, 5, 58, 0
14, 189131, Note_on_c, 5, 63, 69
14, 189226, Note_on_c, 5, 63, 0
14, 189375, Note_on_c, 5, 58, 72
14, 189470, Note_on_c, 5, 58, 0
14, 189619, Note_on_c, 5, 61, 77
14, 189714, Note_on_c, 5, 61, 0
14, 189849, Note_on_c, 5, 58, 75
14, 189944, Note_on_c, 5, 58, 0
14, 190083, Note_on_c, 5, 63, 84
14, 190178, Note_on_c, 5, 63, 0
14, 190335, Note_on_c, 5, 58, 79
14, 190430, Note_on_c, 5, 58, 0
14, 190565, Note_on_c, 5, 61, 66
14, 190660, Note_on_c, 5, 61, 0
14, 190800, Note_on_c, 5, 58, 81
14, 190895, Note_on_c, 5, 58, 0
14, 191061, Note_on_c, 5, 63, 71
14, 191156, Note_on_c, 5, 63, 0
14, 191288, Note_on_c, 5, 58, 83
14, 191383, Note_on_c, 5, 58, 0
14, 191533, Note_on_c, 5, 61, 77
14, 191628, Note_on_c, 5, 61, 0
14, 191781, Note_on_c, 5, 58, 71
14, 191876, Note_on_c, 5, 58, 0
14, 192006, Note_on_c, 5, 63, 85
14, 192101, Note_on_c, 5, 63, 0
14, 192242, Note_on_c, 5, 58, 75
14, 192337, Note_on_c, 5, 58, 0
14, 192497, Note_on_c, 5, 61, 80
14, 192592, Note_on_c, 5, 61, 0
14, 192720, Note_on_c, 5, 58, 85
14, 192815, Note_on_c, 5, 58, 0
14, 192982, Note_on_c, 5, 63, 75
14, 193077, Note_on_c, 5, 63, 0
14, 193225, Note_on_c, 5, 58, 83
14, 193320, Note_on_c, 5, 58, 0
14, 193445, Note_on_c, 5, 61, 83
14, 193540, Note_on_c, 5, 61, 0
14, 193687, Note_on_c, 5, 58, 74
14, 193782, Note_on_c, 5, 58, 0
14, 193927, Note_on_c, 5, 63, 73
14, 194022, Note_on_c, 5, 63, 0
14, 194166, Note_on_c, 5, 58, 74
14, 194261, Note_on_c, 5, 58, 0
14, 205926, Control_c, 5, 11, 125
14, 205935, Control_c, 5, 11, 124
14, 205935, Note_on_c, 5, 55, 81
14, 205936, Note_on_c, 5, 61, 80
14, 205938, Note_on_c, 5, 39, 94
14, 205942, Control_c, 5, 11, 123
14, 205945, Note_on_c, 5, 46, 82
14, 205950, Control_c, 5, 11, 122
14, 205959, Control_c, 5, 11, 121
14, 205966, Control_c, 5, 11, 120
14, 205975, Control_c, 5, 11, 119
14, 205983, Control_c, 5, 11, 118
14, 205991, Control_c, 5, 11, 117
14, 205999, Control_c, 5, 11, 116
14, 206007, Control_c, 5, 11, 115
14, 206015, Control_c, 5, 11, 114
14, 206023, Control_c, 5, 11, 113
14, 206031, Control_c, 5, 11, 112
14, 206040, Control_c, 5, 11, 111
14, 206047, Control_c, 5, 11, 110
14, 206056, Control_c, 5, 11, 109
14, 206064, Control_c, 5, 11, 108
14, 206071, Control_c, 5, 11, 107
14, 206080, Control_c, 5, 11, 106
14, 206088, Control_c, 5, 11, 105
14, 206096, Control_c, 5, 11, 104
14, 206104, Control_c, 5, 11, 103
14, 206112, Control_c, 5, 11, 102
14, 206120, Control_c, 5, 11, 101
14, 206128, Control_c, 5, 11, 100
14, 206136, Control_c, 5, 11, 99
14, 206145, Control_c, 5, 11, 98
14, 206153, Control_c, 5, 11, 97
14, 206161, Control_c, 5, 11, 96
14, 206169, Control_c, 5, 11, 95
14, 206176, Control_c, 5, 11, 94
14, 206185, Control_c, 5, 11, 93
14, 206193, Control_c, 5, 11, 92
14, 206201, Control_c, 5, 11, 91
14, 206209, Control_c, 5, 11, 90
14, 206218, Control_c, 5, 11, 89
14, 206225, Control_c, 5, 11, 88
14, 206233, Control_c, 5, 11, 87
14, 206241, Control_c, 5, 11, 86
14, 206250, Control_c, 5, 11, 85
14, 206258, Control_c, 5, 11, 84
14, 206266, Control_c, 5, 11, 83
14, 206274, Control_c, 5, 11, 82
14, 206282, Control_c, 5, 11, 81
14, 206290, Control_c, 5, 11, 80
14, 206298, Control_c, 5, 11, 79
14, 206306, Control_c, 5, 11, 78
14, 206315, Control_c, 5, 11, 77
14, 206323, Control_c, 5, 11, 76
14, 206330, Control_c, 5, 11, 75
14, 206338, Control_c, 5, 11, 74
14, 206347, Control_c, 5, 11, 73
14, 206355, Control_c, 5, 11, 72
14, 206363, Control_c, 5, 11, 71
14, 206371, Control_c, 5, 11, 70
14, 206379, Control_c, 5, 11, 69
14, 206387, Control_c, 5, 11, 68
14, 206395, Control_c, 5, 11, 67
14, 206403, Control_c, 5, 11, 66
14, 206411, Control_c, 5, 11, 65
14, 206880, Note_on_c, 5, 61, 98
14, 206881, Note_on_c, 5, 39, 86
14, 206886, Control_c, 5, 11, 125
14, 206895, Note_on_c, 5, 55, 0
14, 206895, Note_on_c, 5, 55, 79
14, 206895, Control_c, 5, 11, 124
14, 206896, Note_on_c, 5, 61, 0
14, 206898, Note_on_c, 5, 39, 0
14, 206901, Note_on_c, 5, 46, 95
14, 206902, Control_c, 5, 11, 123
14, 206905, Note_on_c, 5, 46, 0
14, 206910, Control_c, 5, 11, 122
14, 206919, Control_c, 5, 11, 121
14, 206926, Control_c, 5, 11, 120
14, 206935, Control_c, 5, 11, 119
14, 206943, Control_c, 5, 11, 118
14, 206951, Control_c, 5, 11, 117
14, 206959, Control_c, 5, 11, 116
14, 206967, Control_c, 5, 11, 115
14, 206975, Control_c, 5, 11, 114
14, 206983, Control_c, 5, 11, 113
14, 206991, Control_c, 5, 11, 112
14, 207000, Control_c, 5, 11, 111
14, 207007, Control_c, 5, 11, 110
14, 207016, Control_c, 5, 11, 109
14, 207024, Control_c, 5, 11, 108
14, 207031, Control_c, 5, 11, 107
14, 207040, Control_c, 5, 11, 106
14, 207048, Control_c, 5, 11, 105
14, 207056, Control_c, 5, 11, 104
14, 207064, Control_c, 5, 11, 103
14, 207072, Control_c, 5, 11, 102
14, 207080, Control_c, 5, 11, 101
14, 207088, Control_c, 5, 11, 100
14, 207096, Control_c, 5, 11, 99
14, 207105, Control_c, 5, 11, 98
14, 207113, Control_c, 5, 11, 97
14, 207121, Control_c, 5, 11, 96
14, 207129, Control_c, 5, 11, 95
14, 207136, Control_c, 5, 11, 94
14, 207145, Control_c, 5, 11, 93
14, 207153, Control_c, 5, 11, 92
14, 207161, Control_c, 5, 11, 91
14, 207169, Control_c, 5, 11, 90
14, 207178, Control_c, 5, 11, 89
14, 207185, Control_c, 5, 11, 88
14, 207193, Control_c, 5, 11, 87
14, 207201, Control_c, 5, 11, 86
14, 207210, Control_c, 5, 11, 85
14, 207218, Control_c, 5, 11, 84
14, 207226, Control_c, 5, 11, 83
14, 207234, Control_c, 5, 11, 82
14, 207242, Control_c, 5, 11, 81
14, 207250, Control_c, 5, 11, 80
14, 207258, Control_c, 5, 11, 79
14, 207266, Control_c, 5, 11, 78
14, 207275, Control_c, 5, 11, 77
14, 207283, Control_c, 5, 11, 76
14, 207290, Control_c, 5, 11, 75
14, 207298, Control_c, 5, 11, 74
14, 207307, Control_c, 5, 11, 73
14, 207315, Control_c, 5, 11, 72
14, 207323, Control_c, 5, 11, 71
14, 207331, Control_c, 5, 11, 70
14, 207339, Control_c, 5, 11, 69
14, 207347, Control_c, 5, 11, 68
14, 207355, Control_c, 5, 11, 67
14, 207363, Control_c, 5, 11, 66
14, 207371, Control_c, 5, 11, 65
14, 207840, Note_on_c, 5, 61, 0
14, 207841, Note_on_c, 5, 39, 0
14, 207846, Control_c, 5, 11, 125
14, 207851, Note_on_c, 5, 39, 97
14, 207855, Note_on_c, 5, 55, 0
14, 207855, Control_c, 5, 11, 124
14, 207857, Note_on_c, 5, 61, 85
14, 207860, Note_on_c, 5, 55, 84
14, 207861, Note_on_c, 5, 46, 0
14, 207862, Control_c, 5, 11, 123
14, 207863, Note_on_c, 5, 46, 97
14, 207870, Control_c, 5, 11, 122
14, 207879, Control_c, 5, 11, 121
14, 207886, Control_c, 5, 11, 120
14, 207895, Control_c, 5, 11, 119
14, 207903, Control_c, 5, 11, 118
14, 207911, Control_c, 5, 11, 117
14, 207919, Control_c, 5, 11, 116
14, 207927, Control_c, 5, 11, 115
14, 207935, Control_c, 5, 11, 114
14, 207943, Control_c, 5, 11, 113
14, 207951, Control_c, 5, 11, 112
14, 207960, Control_c, 5, 11, 111
14, 207967, Control_c, 5, 11, 110
14, 207976, Control_c, 5, 11, 109
14, 207984, Control_c, 5, 11, 108
14, 207991, Control_c, 5, 11, 107
14, 208000, Control_c, 5, 11, 106
14, 208008, Control_c, 5, 11, 105
14, 208016, Control_c, 5, 11, 104
14, 208024, Control_c, 5, 11, 103
14, 208032, Control_c, 5, 11, 102
14, 208040, Control_c, 5, 11, 101
14, 208048, Control_c, 5, 11, 100
14, 208056, Control_c, 5, 11, 99
14, 208065, Control_c, 5, 11, 98
14, 208073, Control_c, 5, 11, 97
14, 208081, Control_c, 5, 11, 96
14, 208089, Control_c, 5, 11, 95
14, 208096, Control_c, 5, 11, 94
14, 208105, Control_c, 5, 11, 93
14, 208113, Control_c, 5, 11, 92
14, 208121, Control_c, 5, 11, 91
14, 208129, Control_c, 5, 11, 90
14, 208138, Control_c, 5, 11, 89
14, 208145, Control_c, 5, 11, 88
14, 208153, Control_c, 5, 11, 87
14, 208161, Control_c, 5, 11, 86
14, 208170, Control_c, 5, 11, 85
14, 208178, Control_c, 5, 11, 84
14, 208186, Control_c, 5, 11, 83
14, 208194, Control_c, 5, 11, 82
14, 208202, Control_c, 5, 11, 81
14, 208210, Control_c, 5, 11, 80
14, 208218, Control_c, 5, 11, 79
14, 208226, Control_c, 5, 11, 78
14, 208235, Control_c, 5, 11, 77
14, 208243, Control_c, 5, 11, 76
14, 208250, Control_c, 5, 11, 75
14, 208258, Control_c, 5, 11, 74
14, 208267, Control_c, 5, 11, 73
14, 208275, Control_c, 5, 11, 72
14, 208283, Control_c, 5, 11, 71
14, 208291, Control_c, 5, 11, 70
14, 208299, Control_c, 5, 11, 69
14, 208307, Control_c, 5, 11, 68
14, 208315, Control_c, 5, 11, 67
14, 208323, Control_c, 5, 11, 66
14, 208331, Control_c, 5, 11, 65
14, 208806, Control_c, 5, 11, 125
14, 208809, Note_on_c, 5, 46, 92
14, 208811, Note_on_c, 5, 39, 0
14, 208815, Control_c, 5, 11, 124
14, 208817, Note_on_c, 5, 61, 0
14, 208820, Note_on_c, 5, 55, 0
14, 208820, Note_on_c, 5, 61, 96
14, 208821, Note_on_c, 5, 55, 78
14, 208822, Control_c, 5, 11, 123
14, 208823, Note_on_c, 5, 46, 0
14, 208825, Note_on_c, 5, 39, 96
14, 208830, Control_c, 5, 11, 122
14, 208839, Control_c, 5, 11, 121
14, 208846, Control_c, 5, 11, 120
14, 208855, Control_c, 5, 11, 119
14, 208863, Control_c, 5, 11, 118
14, 208871, Control_c, 5, 11, 117
14, 208879, Control_c, 5, 11, 116
14, 208887, Control_c, 5, 11, 115
14, 208895, Control_c, 5, 11, 114
14, 208903, Control_c, 5, 11, 113
14, 208911, Control_c, 5, 11, 112
14, 208920, Control_c, 5, 11, 111
14, 208927, Control_c, 5, 11, 110
14, 208936, Control_c, 5, 11, 109
14, 208944, Control_c, 5, 11, 108
14, 208951, Control_c, 5, 11, 107
14, 208960, Control_c, 5, 11, 106
14, 208968, Control_c, 5, 11, 105
14, 208976, Control_c, 5, 11, 104
14, 208984, Control_c, 5, 11, 103
14, 208992, Control_c, 5, 11, 102
14, 209000, Control_c, 5, 11, 101
14, 209008, Control_c, 5, 11, 100
14, 209016, Control_c, 5, 11, 99
14, 209025, Control_c, 5, 11, 98
14, 209033, Control_c, 5, 11, 97
14, 209041, Control_c, 5, 11, 96
14, 209049, Control_c, 5, 11, 95
14, 209056, Control_c, 5, 11, 94
14, 209065, Control_c, 5, 11, 93
14, 209073, Control_c, 5, 11, 92
14, 209081, Control_c, 5, 11, 91
14, 209089, Control_c, 5, 11, 90
14, 209098, Control_c, 5, 11, 89
14, 209105, Control_c, 5, 11, 88
14, 209113, Control_c, 5, 11, 87
14, 209121, Control_c, 5, 11, 86
14, 209130, Control_c, 5, 11, 85
14, 209138, Control_c, 5, 11, 84
14, 209146, Control_c, 5, 11, 83
14, 209154, Control_c, 5, 11, 82
14, 209162, Control_c, 5, 11, 81
14, 209170, Control_c, 5, 11, 80
14, 209178, Control_c, 5, 11, 79
14, 209186, Control_c, 5, 11, 78
14, 209195, Control_c, 5, 11, 77
14, 209203, Control_c, 5, 11, 76
14, 209210, Control_c, 5, 11, 75
14, 209218, Control_c, 5, 11, 74
14, 209227, Control_c, 5, 11, 73
14, 209235, Control_c, 5, 11, 72
14, 209243, Control_c, 5, 11, 71
14, 209251, Control_c, 5, 11, 70
14, 209259, Control_c, 5, 11, 69
14, 209267, Control_c, 5, 11, 68
14, 209275, Control_c, 5, 11, 67
14, 209283, Control_c, 5, 11, 66
14, 209291, Control_c, 5, 11, 65
14, 209761, Note_on_c, 5, 46, 91
14, 209766, Control_c, 5, 11, 125
14, 209769, Note_on_c, 5, 46, 0
14, 209775, Control_c, 5, 11, 124
14, 209775, Note_on_c, 5, 39, 87
14, 209776, Note_on_c, 5, 61, 86
14, 209778, Note_on_c, 5, 55, 88
14, 209780, Note_on_c, 5, 61, 0
14, 209781, Note_on_c, 5, 55, 0
14, 209782, Control_c, 5, 11, 123
14, 209785, Note_on_c, 5, 39, 0
14, 209790, Control_c, 5, 11, 122
14, 209799, Control_c, 5, 11, 121
14, 209806, Control_c, 5, 11, 120
14, 209815, Control_c, 5, 11, 119
14, 209823, Control_c, 5, 11, 118
14, 209831, Control_c, 5, 11, 117
14, 209839, Control_c, 5, 11, 116
14, 209847, Control_c, 5, 11, 115
14, 209855, Control_c, 5, 11, 114
14, 209863, Control_c, 5, 11, 113
14, 209871, Control_c, 5, 11, 112
14, 209880, Control_c, 5, 11, 111
14, 209887, Control_c, 5, 11, 110
14, 209896, Control_c, 5, 11, 109
14, 209904, Control_c, 5, 11, 108
14, 209911, Control_c, 5, 11, 107
14, 209920, Control_c, 5, 11, 106
14, 209928, Control_c, 5, 11, 105
14, 209936, Control_c, 5, 11, 104
14, 209944, Control_c, 5, 11, 103
14, 209952, Control_c, 5, 11, 102
14, 209960, Control_c, 5, 11, 101
14, 209968, Control_c, 5, 11, 100
14, 209976, Control_c, 5, 11, 99
14, 209985, Control_c, 5, 11, 98
14, 209993, Control_c, 5, 11, 97
14, 210001, Control_c, 5, 11, 96
14, 210009, Control_c, 5, 11, 95
14, 210016, Control_c, 5, 11, 94
14, 210025, Control_c, 5, 11, 93
14, 210033, Control_c, 5, 11, 92
14, 210041, Control_c, 5, 11, 91
14, 210049, Control_c, 5, 11, 90
14, 210058, Control_c, 5, 11, 89
14, 210065, Control_c, 5, 11, 88
14, 210073, Control_c, 5, 11, 87
14, 210081, Control_c, 5, 11, 86
14, 210090, Control_c, 5, 11, 85
14, 210098, Control_c, 5, 11, 84
14, 210106, Control_c, 5, 11, 83
14, 210114, Control_c, 5, 11, 82
14, 210122, Control_c, 5, 11, 81
14, 210130, Control_c, 5, 11, 80
14, 210138, Control_c, 5, 11, 79
14, 210146, Control_c, 5, 11, 78
14, 210155, Control_c, 5, 11, 77
14, 210163, Control_c, 5, 11, 76
14, 210170, Control_c, 5, 11, 75
14, 210178, Control_c, 5, 11, 74
14, 210187, Control_c, 5, 11, 73
14, 210195, Control_c, 5, 11, 72
14, 210203, Control_c, 5, 11, 71
14, 210211, Control_c, 5, 11, 70
14, 210219, Control_c, 5, 11, 69
14, 210227, Control_c, 5, 11, 68
14, 210235, Control_c, 5, 11, 67
14, 210243, Control_c, 5, 11, 66
14, 210251, Control_c, 5, 11, 65
14, 210721, Note_on_c, 5, 46, 0
14, 210721, Note_on_c, 5, 61, 92
14, 210726, Control_c, 5, 11, 125
14, 210733, Note_on_c, 5, 55, 87
14, 210735, Note_on_c, 5, 39, 0
14, 210735, Note_on_c, 5, 39, 93
14, 210735, Control_c, 5, 11, 124
14, 210736, Note_on_c, 5, 61, 0
14, 210738, Note_on_c, 5, 55, 0
14, 210740, Note_on_c, 5, 46, 87
14, 210742, Control_c, 5, 11, 123
14, 210750, Control_c, 5, 11, 122
14, 210759, Control_c, 5, 11, 121
14, 210766, Control_c, 5, 11, 120
14, 210775, Control_c, 5, 11, 119
14, 210783, Control_c, 5, 11, 118
14, 210791, Control_c, 5, 11, 117
14, 210799, Control_c, 5, 11, 116
14, 210807, Control_c, 5, 11, 115
14, 210815, Control_c, 5, 11, 114
14, 210823, Control_c, 5, 11, 113
14, 210831, Control_c, 5, 11, 112
14, 210840, Control_c, 5, 11, 111
14, 210847, Control_c, 5, 11, 110
14, 210856, Control_c, 5, 11, 109
14, 210864, Control_c, 5, 11, 108
14, 210871, Control_c, 5, 11, 107
14, 210880, Control_c, 5, 11, 106
14, 210888, Control_c, 5, 11, 105
14, 210896, Control_c, 5, 11, 104
14, 210904, Control_c, 5, 11, 103
14, 210912, Control_c, 5, 11, 102
14, 210920, Control_c, 5, 11, 101
14, 210928, Control_c, 5, 11, 100
14, 210936, Control_c, 5, 11, 99
14, 210945, Control_c, 5, 11, 98
14, 210953, Control_c, 5, 11, 97
14, 210961, Control_c, 5, 11, 96
14, 210969, Control_c, 5, 11, 95
14, 210976, Control_c, 5, 11, 94
14, 210985, Control_c, 5, 11, 93
14, 210993, Control_c, 5, 11, 92
14, 211001, Control_c, 5, 11, 91
14, 211009, Control_c, 5, 11, 90
14, 211018, Control_c, 5, 11, 89
14, 211025, Control_c, 5, 11, 88
14, 211033, Control_c, 5, 11, 87
14, 211041, Control_c, 5, 11, 86
14, 211050, Control_c, 5, 11, 85
14, 211058, Control_c, 5, 11, 84
14, 211066, Control_c, 5, 11, 83
14, 211074, Control_c, 5, 11, 82
14, 211082, Control_c, 5, 11, 81
14, 211090, Control_c, 5, 11, 80
14, 211098, Control_c, 5, 11, 79
14, 211106, Control_c, 5, 11, 78
14, 211115, Control_c, 5, 11, 77
14, 211123, Control_c, 5, 11, 76
14, 211130, Control_c, 5, 11, 75
14, 211138, Control_c, 5, 11, 74
14, 211147, Control_c, 5, 11, 73
14, 211155, Control_c, 5, 11, 72
14, 211163, Control_c, 5, 11, 71
14, 211171, Control_c, 5, 11, 70
14, 211179, Control_c, 5, 11, 69
14, 211187, Control_c, 5, 11, 68
14, 211195, Control_c, 5, 11, 67
14, 211203, Control_c, 5, 11, 66
14, 211211, Control_c, 5, 11, 65
14, 211675, Control_c, 5, 11, 127
14, 211681, Note_on_c, 5, 61, 0
14, 211693, Note_on_c, 5, 55, 0
14, 211695, Note_on_c, 5, 39, 0
14, 211700, Note_on_c, 5, 46, 0
14, 219610, Note_on_c, 5, 44, 113
14, 220083, Note_on_c, 5, 55, 121
14, 220090, Note_on_c, 5, 44, 0
14, 220562, Note_on_c, 5, 54, 113
14, 220563, Note_on_c, 5, 55, 0
14, 221042, Note_on_c, 5, 54, 0
14, 221054, Note_on_c, 5, 43, 127
14, 221534, Note_on_c, 5, 43, 0
14, 223457, Note_on_c, 5, 44, 111
14, 223921, Note_on_c, 5, 55, 123
14, 223937, Note_on_c, 5, 44, 0
14, 224401, Note_on_c, 5, 55, 0
14, 224405, Note_on_c, 5, 54, 127
14, 224881, Note_on_c, 5, 43, 109
14, 224885, Note_on_c, 5, 54, 0
14, 225361, Note_on_c, 5, 43, 0
14, 227043, Note_on_c, 5, 63, 80
14, 227058, Note_on_c, 5, 67, 75
14, 227061, Note_on_c, 5, 60, 84
14, 227063, Note_on_c, 5, 57, 70
14, 227283, Note_on_c, 5, 63, 0
14, 227284, Note_on_c, 5, 59, 65
14, 227291, Note_on_c, 5, 65, 78
14, 227292, Note_on_c, 5, 55, 82
14, 227296, Note_on_c, 5, 62, 81
14, 227298, Note_on_c, 5, 67, 0
14, 227301, Note_on_c, 5, 60, 0
14, 227303, Note_on_c, 5, 57, 0
14, 227524, Note_on_c, 5, 59, 0
14, 227524, Note_on_c, 5, 60, 65
14, 227528, Note_on_c, 5, 57, 77
14, 227530, Note_on_c, 5, 63, 78
14, 227531, Note_on_c, 5, 65, 0
14, 227532, Note_on_c, 5, 55, 0
14, 227536, Note_on_c, 5, 62, 0
14, 227537, Note_on_c, 5, 67, 76
14, 227760, Note_on_c, 5, 62, 70
14, 227764, Note_on_c, 5, 60, 0
14, 227765, Note_on_c, 5, 55, 75
14, 227768, Note_on_c, 5, 57, 0
14, 227770, Note_on_c, 5, 63, 0
14, 227773, Note_on_c, 5, 59, 67
14, 227775, Note_on_c, 5, 65, 72
14, 227777, Note_on_c, 5, 67, 0
14, 228000, Note_on_c, 5, 62, 0
14, 228001, Note_on_c, 5, 57, 82
14, 228005, Note_on_c, 5, 55, 0
14, 228006, Note_on_c, 5, 67, 76
14, 228013, Note_on_c, 5, 59, 0
14, 228015, Note_on_c, 5, 65, 0
14, 228015, Note_on_c, 5, 60, 71
14, 228025, Note_on_c, 5, 63, 82
14, 228241, Note_on_c, 5, 57, 0
14, 228242, Note_on_c, 5, 55, 66
14, 228246, Note_on_c, 5, 67, 0
14, 228246, Note_on_c, 5, 59, 85
14, 228255, Note_on_c, 5, 60, 0
14, 228255, Note_on_c, 5, 65, 83
14, 228265, Note_on_c, 5, 63, 0
14, 228265, Note_on_c, 5, 62, 80
14, 228482, Note_on_c, 5, 55, 0
14, 228486, Note_on_c, 5, 59, 0
14, 228488, Note_on_c, 5, 57, 72
14, 228494, Note_on_c, 5, 60, 66
14, 228495, Note_on_c, 5, 65, 0
14, 228503, Note_on_c, 5, 63, 73
14, 228504, Note_on_c, 5, 67, 66
14, 228505, Note_on_c, 5, 62, 0
14, 228728, Note_on_c, 5, 57, 0
14, 228733, Note_on_c, 5, 62, 66
14, 228734, Note_on_c, 5, 60, 0
14, 228734, Note_on_c, 5, 59, 71
14, 228736, Note_on_c, 5, 55, 70
14, 228741, Note_on_c, 5, 65, 65
14, 228743, Note_on_c, 5, 63, 0
14, 228744, Note_on_c, 5, 67, 0
14, 228965, Note_on_c, 5, 57, 75
14, 228966, Note_on_c, 5, 67, 81
14, 228973, Note_on_c, 5, 62, 0
14, 228973, Note_on_c, 5, 63, 75
14, 228974, Note_on_c, 5, 59, 0
14, 228976, Note_on_c, 5, 55, 0
14, 228980, Note_on_c, 5, 60, 66
14, 228981, Note_on_c, 5, 65, 0
14, 229204, Note_on_c, 5, 55, 73
14, 229205, Note_on_c, 5, 57, 0
14, 229206, Note_on_c, 5, 67, 0
14, 229209, Note_on_c, 5, 59, 85
14, 229213, Note_on_c, 5, 63, 0
14, 229216, Note_on_c, 5, 62, 84
14, 229218, Note_on_c, 5, 65, 69
14, 229220, Note_on_c, 5, 60, 0
14, 229440, Note_on_c, 5, 57, 85
14, 229441, Note_on_c, 5, 63, 78
14, 229444, Note_on_c, 5, 55, 0
14, 229447, Note_on_c, 5, 67, 81
14, 229449, Note_on_c, 5, 59, 0
14, 229456, Note_on_c, 5, 62, 0
14, 229458, Note_on_c, 5, 65, 0
14, 229460, Note_on_c, 5, 60, 73
14, 229680, Note_on_c, 5, 57, 0
14, 229681, Note_on_c, 5, 63, 0
14, 229685, Note_on_c, 5, 62, 67
14, 229685, Note_on_c, 5, 59, 82
14, 229686, Note_on_c, 5, 65, 81
14, 229687, Note_on_c, 5, 67, 0
14, 229692, Note_on_c, 5, 55, 78
14, 229700, Note_on_c, 5, 60, 0
14, 229925, Note_on_c, 5, 62, 0
14, 229925, Note_on_c, 5, 59, 0
14, 229925, Note_on_c, 5, 60, 78
14, 229926, Note_on_c, 5, 65, 0
14, 229927, Note_on_c, 5, 63, 74
14, 229931, Note_on_c, 5, 67, 67
14, 229932, Note_on_c, 5, 55, 0
14, 229933, Note_on_c, 5, 57, 69
14, 230165, Note_on_c, 5, 60, 0
14, 230167, Note_on_c, 5, 63, 0
14, 230171, Note_on_c, 5, 67, 0
14, 230173, Note_on_c, 5, 57, 0
14, 230173, Note_on_c, 5, 55, 80
14, 230174, Note_on_c, 5, 59, 79
14, 230175, Note_on_c, 5, 65, 68
14, 230185, Note_on_c, 5, 62, 65
14, 230405, Note_on_c, 5, 67, 69
14, 230411, Note_on_c, 5, 63, 73
14, 230413, Note_on_c, 5, 55, 0
14, 230414, Note_on_c, 5, 59, 0
14, 230415, Note_on_c, 5, 65, 0
14, 230416, Note_on_c, 5, 60, 72
14, 230419, Note_on_c, 5, 57, 70
14, 230425, Note_on_c, 5, 62, 0
14, 230644, Note_on_c, 5, 55, 76
14, 230644, Note_on_c, 5, 65, 82
14, 230645, Note_on_c, 5, 67, 0
14, 230651, Note_on_c, 5, 63, 0
14, 230656, Note_on_c, 5, 60, 0
14, 230657, Note_on_c, 5, 59, 85
14, 230659, Note_on_c, 5, 57, 0
14, 230661, Note_on_c, 5, 62, 75
14, 230882, Note_on_c, 5, 67, 82
14, 230884, Note_on_c, 5, 55, 0
14, 230884, Note_on_c, 5, 65, 0
14, 230886, Note_on_c, 5, 60, 85
14, 230891, Note_on_c, 5, 57, 66
14, 230897, Note_on_c, 5, 59, 0
14, 230901, Note_on_c, 5, 62, 0
14, 230904, Note_on_c, 5, 63, 70
14, 231122, Note_on_c, 5, 67, 0
14, 231126, Note_on_c, 5, 60, 0
14, 231129, Note_on_c, 5, 59, 69
14, 231131, Note_on_c, 5, 57, 0
14, 231131, Note_on_c, 5, 55, 70
14, 231134, Note_on_c, 5, 65, 74
14, 231140, Note_on_c, 5, 62, 65
14, 231144, Note_on_c, 5, 63, 0
14, 231369, Note_on_c, 5, 59, 0
14, 231371, Note_on_c, 5, 55, 0
14, 231374, Note_on_c, 5, 65, 0
14, 231377, Note_on_c, 5, 67, 65
14, 231380, Note_on_c, 5, 62, 0
14, 231381, Note_on_c, 5, 63, 76
14, 231381, Note_on_c, 5, 60, 82
14, 231385, Note_on_c, 5, 57, 67
14, 231605, Note_on_c, 5, 55, 70
14, 231613, Note_on_c, 5, 65, 67
14, 231617, Note_on_c, 5, 67, 0
14, 231618, Note_on_c, 5, 62, 77
14, 231621, Note_on_c, 5, 63, 0
14, 231621, Note_on_c, 5, 60, 0
14, 231625, Note_on_c, 5, 57, 0
14, 231625, Note_on_c, 5, 59, 67
14, 231843, Note_on_c, 5, 57, 74
14, 231845, Note_on_c, 5, 55, 0
14, 231852, Note_on_c, 5, 63, 73
14, 231853, Note_on_c, 5, 65, 0
14, 231855, Note_on_c, 5, 60, 85
14, 231857, Note_on_c, 5, 67, 69
14, 231858, Note_on_c, 5, 62, 0
14, 231865, Note_on_c, 5, 59, 0
14, 232083, Note_on_c, 5, 57, 0
14, 232089, Note_on_c, 5, 65, 72
14, 232091, Note_on_c, 5, 62, 84
14, 232091, Note_on_c, 5, 59, 80
14, 232092, Note_on_c, 5, 63, 0
14, 232095, Note_on_c, 5, 60, 0
14, 232097, Note_on_c, 5, 67, 0
14, 232103, Note_on_c, 5, 55, 82
14, 232328, Note_on_c, 5, 57, 80
14, 232329, Note_on_c, 5, 65, 0
14, 232329, Note_on_c, 5, 63, 75
14, 232331, Note_on_c, 5, 62, 0
14, 232331, Note_on_c, 5, 59, 0
14, 232331, Note_on_c, 5, 67, 83
14, 232334, Note_on_c, 5, 60, 84
14, 232343, Note_on_c, 5, 55, 0
14, 232565, Note_on_c, 5, 65, 70
14, 232567, Note_on_c, 5, 55, 83
14, 232568, Note_on_c, 5, 57, 0
14, 232569, Note_on_c, 5, 63, 0
14, 232571, Note_on_c, 5, 67, 0
14, 232574, Note_on_c, 5, 60, 0
14, 232576, Note_on_c, 5, 59, 68
14, 232581, Note_on_c, 5, 62, 78
14, 232805, Note_on_c, 5, 65, 0
14, 232805, Note_on_c, 5, 63, 83
14, 232806, Note_on_c, 5, 67, 72
14, 232807, Note_on_c, 5, 55, 0
14, 232812, Note_on_c, 5, 57, 76
14, 232816, Note_on_c, 5, 59, 0
14, 232818, Note_on_c, 5, 60, 81
14, 232821, Note_on_c, 5, 62, 0
14, 233040, Note_on_c, 5, 62, 85
14, 233045, Note_on_c, 5, 63, 0
14, 233046, Note_on_c, 5, 67, 0
14, 233048, Note_on_c, 5, 59, 83
14, 233052, Note_on_c, 5, 57, 0
14, 233055, Note_on_c, 5, 55, 66
14, 233055, Note_on_c, 5, 65, 78
14, 233058, Note_on_c, 5, 60, 0
14, 233280, Note_on_c, 5, 62, 0
14, 233288, Note_on_c, 5, 59, 0
14, 233288, Note_on_c, 5, 60, 76
14, 233295, Note_on_c, 5, 55, 0
14, 233295, Note_on_c, 5, 65, 0
14, 233296, Note_on_c, 5, 57, 72
14, 233298, Note_on_c, 5, 63, 76
14, 233303, Note_on_c, 5, 67, 76
14, 233523, Note_on_c, 5, 59, 70
14, 233528, Note_on_c, 5, 60, 0
14, 233531, Note_on_c, 5, 55, 76
14, 233536, Note_on_c, 5, 57, 0
14, 233538, Note_on_c, 5, 63, 0
14, 233541, Note_on_c, 5, 62, 71
14, 233543, Note_on_c, 5, 67, 0
14, 233543, Note_on_c, 5, 65, 66
14, 233762, Note_on_c, 5, 57, 65
14, 233762, Note_on_c, 5, 63, 79
14, 233763, Note_on_c, 5, 59, 0
14, 233770, Note_on_c, 5, 67, 71
14, 233771, Note_on_c, 5, 55, 0
14, 233775, Note_on_c, 5, 60, 67
14, 233781, Note_on_c, 5, 62, 0
14, 233783, Note_on_c, 5, 65, 0
14, 234002, Note_on_c, 5, 57, 0
14, 234002, Note_on_c, 5, 63, 0
14, 234002, Note_on_c, 5, 55, 66
14, 234008, Note_on_c, 5, 65, 77
14, 234008, Note_on_c, 5, 62, 76
14, 234010, Note_on_c, 5, 67, 0
14, 234015, Note_on_c, 5, 60, 0
14, 234019, Note_on_c, 5, 59, 67
14, 234242, Note_on_c, 5, 55, 0
14, 234242, Note_on_c, 5, 63, 66
14, 234244, Note_on_c, 5, 57, 66
14, 234247, Note_on_c, 5, 60, 69
14, 234248, Note_on_c, 5, 65, 0
14, 234248, Note_on_c, 5, 62, 0
14, 234258, Note_on_c, 5, 67, 71
14, 234259, Note_on_c, 5, 59, 0
14, 234482, Note_on_c, 5, 63, 0
14, 234484, Note_on_c, 5, 57, 0
14, 234487, Note_on_c, 5, 60, 0
14, 234488, Note_on_c, 5, 62, 84
14, 234495, Note_on_c, 5, 65, 85
14, 234498, Note_on_c, 5, 67, 0
14, 234501, Note_on_c, 5, 59, 67
14, 234505, Note_on_c, 5, 55, 70
14, 234728, Note_on_c, 5, 62, 0
14, 234730, Note_on_c, 5, 60, 65
14, 234735, Note_on_c, 5, 65, 0
14, 234736, Note_on_c, 5, 57, 70
14, 234737, Note_on_c, 5, 67, 80
14, 234738, Note_on_c, 5, 63, 78
14, 234741, Note_on_c, 5, 59, 0
14, 234745, Note_on_c, 5, 55, 0
14, 234967, Note_on_c, 5, 62, 65
14, 234970, Note_on_c, 5, 60, 0
14, 234976, Note_on_c, 5, 57, 0
14, 234976, Note_on_c, 5, 59, 85
14, 234977, Note_on_c, 5, 67, 0
14, 234978, Note_on_c, 5, 63, 0
14, 234983, Note_on_c, 5, 65, 77
14, 234984, Note_on_c, 5, 55, 76
14, 235203, Note_on_c, 5, 60, 71
14, 235204, Note_on_c, 5, 67, 69
14, 235207, Note_on_c, 5, 62, 0
14, 235211, Note_on_c, 5, 63, 72
14, 235216, Note_on_c, 5, 59, 0
14, 235219, Note_on_c, 5, 57, 82
14, 235223, Note_on_c, 5, 65, 0
14, 235224, Note_on_c, 5, 55, 0
14, 235443, Note_on_c, 5, 60, 0
14, 235444, Note_on_c, 5, 67, 0
14, 235446, Note_on_c, 5, 65, 83
14, 235447, Note_on_c, 5, 59, 69
14, 235451, Note_on_c, 5, 63, 0
14, 235459, Note_on_c, 5, 57, 0
14, 235464, Note_on_c, 5, 62, 68
14, 235465, Note_on_c, 5, 55, 66
14, 235684, Note_on_c, 5, 67, 75
14, 235686, Note_on_c, 5, 65, 0
14, 235687, Note_on_c, 5, 59, 0
14, 235690, Note_on_c, 5, 63, 81
14, 235702, Note_on_c, 5, 57, 68
14, 235704, Note_on_c, 5, 62, 0
14, 235704, Note_on_c, 5, 60, 82
14, 235705, Note_on_c, 5, 55, 0
14, 235924, Note_on_c, 5, 67, 0
14, 235930, Note_on_c, 5, 63, 0
14, 235930, Note_on_c, 5, 65, 67
14, 235931, Note_on_c, 5, 59, 67
14, 235938, Note_on_c, 5, 62, 71
14, 235941, Note_on_c, 5, 55, 70
14, 235942, Note_on_c, 5, 57, 0
14, 235944, Note_on_c, 5, 60, 0
14, 236164, Note_on_c, 5, 67, 84
14, 236170, Note_on_c, 5, 65, 0
14, 236171, Note_on_c, 5, 59, 0
14, 236174, Note_on_c, 5, 60, 71
14, 236176, Note_on_c, 5, 63, 75
14, 236178, Note_on_c, 5, 62, 0
14, 236180, Note_on_c, 5, 57, 73
14, 236181, Note_on_c, 5, 55, 0
14, 236401, Note_on_c, 5, 55, 75
14, 236401, Note_on_c, 5, 59, 74
14, 236404, Note_on_c, 5, 67, 0
14, 236410, Note_on_c, 5, 62, 70
14, 236411, Note_on_c, 5, 65, 85
14, 236414, Note_on_c, 5, 60, 0
14, 236416, Note_on_c, 5, 63, 0
14, 236420, Note_on_c, 5, 57, 0
14, 236641, Note_on_c, 5, 55, 0
14, 236641, Note_on_c, 5, 59, 0
14, 236649, Note_on_c, 5, 67, 73
14, 236650, Note_on_c, 5, 62, 0
14, 236650, Note_on_c, 5, 60, 84
14, 236651, Note_on_c, 5, 65, 0
14, 236653, Note_on_c, 5, 63, 80
14, 236657, Note_on_c, 5, 57, 69
14, 236886, Note_on_c, 5, 65, 81
14, 236889, Note_on_c, 5, 67, 0
14, 236890, Note_on_c, 5, 60, 0
14, 236893, Note_on_c, 5, 63, 0
14, 236897, Note_on_c, 5, 57, 0
14, 236897, Note_on_c, 5, 55, 80
14, 236900, Note_on_c, 5, 62, 70
14, 236905, Note_on_c, 5, 59, 72
14, 237126, Note_on_c, 5, 65, 0
14, 237130, Note_on_c, 5, 63, 73
14, 237133, Note_on_c, 5, 57, 73
14, 237134, Note_on_c, 5, 67, 85
14, 237137, Note_on_c, 5, 55, 0
14, 237140, Note_on_c, 5, 62, 0
14, 237143, Note_on_c, 5, 60, 85
14, 237145, Note_on_c, 5, 59, 0
14, 237367, Note_on_c, 5, 59, 74
14, 237370, Note_on_c, 5, 63, 0
14, 237373, Note_on_c, 5, 57, 0
14, 237374, Note_on_c, 5, 67, 0
14, 237377, Note_on_c, 5, 55, 75
14, 237378, Note_on_c, 5, 62, 77
14, 237383, Note_on_c, 5, 60, 0
14, 237385, Note_on_c, 5, 65, 68
14, 237600, Note_on_c, 5, 60, 81
14, 237607, Note_on_c, 5, 59, 0
14, 237608, Note_on_c, 5, 63, 84
14, 237609, Note_on_c, 5, 57, 71
14, 237613, Note_on_c, 5, 67, 74
14, 237617, Note_on_c, 5, 55, 0
14, 237618, Note_on_c, 5, 62, 0
14, 237625, Note_on_c, 5, 65, 0
14, 237840, Note_on_c, 5, 60, 0
14, 237848, Note_on_c, 5, 63, 0
14, 237849, Note_on_c, 5, 57, 0
14, 237853, Note_on_c, 5, 67, 0
14, 237860, Note_on_c, 5, 55, 71
14, 237863, Note_on_c, 5, 59, 77
14, 237863, Note_on_c, 5, 62, 66
14, 237865, Note_on_c, 5, 65, 67
14, 238082, Note_on_c, 5, 57, 69
14, 238098, Note_on_c, 5, 63, 65
14, 238100, Note_on_c, 5, 55, 0
14, 238102, Note_on_c, 5, 60, 67
14, 238103, Note_on_c, 5, 59, 0
14, 238103, Note_on_c, 5, 62, 0
14, 238105, Note_on_c, 5, 65, 0
14, 238105, Note_on_c, 5, 67, 80
14, 238322, Note_on_c, 5, 57, 0
14, 238325, Note_on_c, 5, 55, 71
14, 238326, Note_on_c, 5, 62, 76
14, 238327, Note_on_c, 5, 59, 84
14, 238333, Note_on_c, 5, 65, 77
14, 238338, Note_on_c, 5, 63, 0
14, 238342, Note_on_c, 5, 60, 0
14, 238345, Note_on_c, 5, 67, 0
14, 238565, Note_on_c, 5, 55, 0
14, 238566, Note_on_c, 5, 62, 0
14, 238567, Note_on_c, 5, 59, 0
14, 238569, Note_on_c, 5, 63, 79
14, 238571, Note_on_c, 5, 67, 87
14, 238573, Note_on_c, 5, 65, 0
14, 238574, Note_on_c, 5, 60, 79
14, 238578, Note_on_c, 5, 57, 96
14, 238809, Note_on_c, 5, 63, 0
14, 238810, Note_on_c, 5, 59, 92
14, 238811, Note_on_c, 5, 67, 0
14, 238814, Note_on_c, 5, 60, 0
14, 238818, Note_on_c, 5, 57, 0
14, 238820, Note_on_c, 5, 65, 84
14, 238823, Note_on_c, 5, 55, 92
14, 238824, Note_on_c, 5, 62, 84
14, 239040, Note_on_c, 5, 60, 88
14, 239047, Note_on_c, 5, 67, 87
14, 239050, Note_on_c, 5, 59, 0
14, 239055, Note_on_c, 5, 57, 86
14, 239056, Note_on_c, 5, 63, 96
14, 239060, Note_on_c, 5, 65, 0
14, 239063, Note_on_c, 5, 55, 0
14, 239064, Note_on_c, 5, 62, 0
14, 239280, Note_on_c, 5, 60, 0
14, 239282, Note_on_c, 5, 65, 96
14, 239284, Note_on_c, 5, 55, 83
14, 239287, Note_on_c, 5, 67, 0
14, 239287, Note_on_c, 5, 59, 91
14, 239295, Note_on_c, 5, 57, 0
14, 239296, Note_on_c, 5, 63, 0
14, 239303, Note_on_c, 5, 62, 98
14, 239520, Note_on_c, 5, 57, 78
14, 239520, Note_on_c, 5, 67, 79
14, 239521, Note_on_c, 5, 60, 85
14, 239522, Note_on_c, 5, 65, 0
14, 239524, Note_on_c, 5, 55, 0
14, 239527, Note_on_c, 5, 59, 0
14, 239530, Note_on_c, 5, 63, 97
14, 239543, Note_on_c, 5, 62, 0
14, 239760, Note_on_c, 5, 57, 0
14, 239760, Note_on_c, 5, 67, 0
14, 239761, Note_on_c, 5, 60, 0
14, 239762, Note_on_c, 5, 65, 83
14, 239767, Note_on_c, 5, 62, 98
14, 239770, Note_on_c, 5, 63, 0
14, 239771, Note_on_c, 5, 55, 85
14, 239779, Note_on_c, 5, 59, 96
14, 240002, Note_on_c, 5, 65, 0
14, 240007, Note_on_c, 5, 62, 0
14, 240009, Note_on_c, 5, 57, 86
14, 240009, Note_on_c, 5, 67, 94
14, 240011, Note_on_c, 5, 55, 0
14, 240013, Note_on_c, 5, 60, 89
14, 240016, Note_on_c, 5, 63, 90
14, 240019, Note_on_c, 5, 59, 0
14, 240240, Note_on_c, 5, 65, 93
14, 240244, Note_on_c, 5, 55, 81
14, 240245, Note_on_c, 5, 62, 91
14, 240249, Note_on_c, 5, 57, 0
14, 240249, Note_on_c, 5, 67, 0
14, 240253, Note_on_c, 5, 60, 0
14, 240256, Note_on_c, 5, 63, 0
14, 240262, Note_on_c, 5, 59, 97
14, 240480, Note_on_c, 5, 65, 0
14, 240484, Note_on_c, 5, 55, 0
14, 240485, Note_on_c, 5, 62, 0
14, 240487, Note_on_c, 5, 57, 94
14, 240492, Note_on_c, 5, 60, 79
14, 240496, Note_on_c, 5, 63, 78
14, 240502, Note_on_c, 5, 59, 0
14, 240504, Note_on_c, 5, 67, 95
14, 240721, Note_on_c, 5, 59, 84
14, 240724, Note_on_c, 5, 62, 81
14, 240727, Note_on_c, 5, 57, 0
14, 240727, Note_on_c, 5, 65, 82
14, 240732, Note_on_c, 5, 60, 0
14, 240735, Note_on_c, 5, 55, 79
14, 240736, Note_on_c, 5, 63, 0
14, 240744, Note_on_c, 5, 67, 0
14, 240961, Note_on_c, 5, 59, 0
14, 240964, Note_on_c, 5, 62, 0
14, 240967, Note_on_c, 5, 65, 0
14, 240975, Note_on_c, 5, 55, 0
14, 240975, Note_on_c, 5, 67, 92
14, 240978, Note_on_c, 5, 60, 98
14, 240979, Note_on_c, 5, 63, 92
14, 240985, Note_on_c, 5, 57, 96
14, 241203, Note_on_c, 5, 55, 96
14, 241203, Note_on_c, 5, 65, 82
14, 241210, Note_on_c, 5, 62, 93
14, 241215, Note_on_c, 5, 67, 0
14, 241218, Note_on_c, 5, 60, 0
14, 241219, Note_on_c, 5, 63, 0
14, 241219, Note_on_c, 5, 59, 92
14, 241225, Note_on_c, 5, 57, 0
14, 241443, Note_on_c, 5, 55, 0
14, 241443, Note_on_c, 5, 65, 0
14, 241443, Note_on_c, 5, 60, 91
14, 241445, Note_on_c, 5, 67, 94
14, 241450, Note_on_c, 5, 62, 0
14, 241452, Note_on_c, 5, 57, 91
14, 241459, Note_on_c, 5, 59, 0
14, 241462, Note_on_c, 5, 63, 78
14, 241683, Note_on_c, 5, 60, 0
14, 241685, Note_on_c, 5, 67, 0
14, 241686, Note_on_c, 5, 65, 81
14, 241688, Note_on_c, 5, 55, 98
14, 241692, Note_on_c, 5, 57, 0
14, 241692, Note_on_c, 5, 62, 95
14, 241700, Note_on_c, 5, 59, 82
14, 241702, Note_on_c, 5, 63, 0
14, 241926, Note_on_c, 5, 65, 0
14, 241928, Note_on_c, 5, 55, 0
14, 241930, Note_on_c, 5, 57, 81
14, 241932, Note_on_c, 5, 62, 0
14, 241932, Note_on_c, 5, 63, 91
14, 241934, Note_on_c, 5, 67, 88
14, 241936, Note_on_c, 5, 60, 79
14, 241940, Note_on_c, 5, 59, 0
14, 242169, Note_on_c, 5, 59, 83
14, 242170, Note_on_c, 5, 57, 0
14, 242171, Note_on_c, 5, 55, 78
14, 242172, Note_on_c, 5, 63, 0
14, 242174, Note_on_c, 5, 67, 0
14, 242176, Note_on_c, 5, 60, 0
14, 242178, Note_on_c, 5, 62, 78
14, 242178, Note_on_c, 5, 65, 80
14, 242409, Note_on_c, 5, 59, 0
14, 242410, Note_on_c, 5, 57, 98
14, 242411, Note_on_c, 5, 55, 0
14, 242411, Note_on_c, 5, 63, 95
14, 242414, Note_on_c, 5, 60, 87
14, 242418, Note_on_c, 5, 62, 0
14, 242418, Note_on_c, 5, 65, 0
14, 242424, Note_on_c, 5, 67, 85
14, 242640, Note_on_c, 5, 65, 87
14, 242644, Note_on_c, 5, 62, 79
14, 242650, Note_on_c, 5, 57, 0
14, 242651, Note_on_c, 5, 63, 0
14, 242652, Note_on_c, 5, 59, 85
14, 242654, Note_on_c, 5, 60, 0
14, 242657, Note_on_c, 5, 55, 91
14, 242664, Note_on_c, 5, 67, 0
14, 242880, Note_on_c, 5, 65, 0
14, 242882, Note_on_c, 5, 57, 78
14, 242883, Note_on_c, 5, 63, 82
14, 242884, Note_on_c, 5, 62, 0
14, 242892, Note_on_c, 5, 59, 0
14, 242897, Note_on_c, 5, 55, 0
14, 242897, Note_on_c, 5, 67, 91
14, 242903, Note_on_c, 5, 60, 84
14, 243120, Note_on_c, 5, 55, 93
14, 243120, Note_on_c, 5, 65, 89
14, 243122, Note_on_c, 5, 57, 0
14, 243123, Note_on_c, 5, 63, 0
14, 243127, Note_on_c, 5, 62, 88
14, 243131, Note_on_c, 5, 59, 98
14, 243137, Note_on_c, 5, 67, 0
14, 243143, Note_on_c, 5, 60, 0
14, 243360, Note_on_c, 5, 55, 0
14, 243360, Note_on_c, 5, 65, 0
14, 243360, Note_on_c, 5, 60, 96
14, 243367, Note_on_c, 5, 62, 0
14, 243371, Note_on_c, 5, 59, 0
14, 243374, Note_on_c, 5, 63, 86
14, 243380, Note_on_c, 5, 67, 88
14, 243384, Note_on_c, 5, 57, 88
14, 243600, Note_on_c, 5, 60, 0
14, 243605, Note_on_c, 5, 62, 94
14, 243607, Note_on_c, 5, 59, 80
14, 243611, Note_on_c, 5, 65, 98
14, 243614, Note_on_c, 5, 63, 0
14, 243619, Note_on_c, 5, 55, 87
14, 243620, Note_on_c, 5, 67, 0
14, 243624, Note_on_c, 5, 57, 0
14, 243840, Note_on_c, 5, 60, 80
14, 243845, Note_on_c, 5, 62, 0
14, 243847, Note_on_c, 5, 59, 0
14, 243847, Note_on_c, 5, 57, 97
14, 243851, Note_on_c, 5, 65, 0
14, 243859, Note_on_c, 5, 55, 0
14, 243860, Note_on_c, 5, 67, 91
14, 243861, Note_on_c, 5, 63, 93
14, 244080, Note_on_c, 5, 60, 0
14, 244087, Note_on_c, 5, 57, 0
14, 244092, Note_on_c, 5, 55, 93
14, 244092, Note_on_c, 5, 62, 85
14, 244097, Note_on_c, 5, 59, 89
14, 244100, Note_on_c, 5, 67, 0
14, 244101, Note_on_c, 5, 63, 0
14, 244103, Note_on_c, 5, 65, 91
14, 244320, Note_on_c, 5, 60, 91
14, 244328, Note_on_c, 5, 57, 86
14, 244330, Note_on_c, 5, 63, 82
14, 244332, Note_on_c, 5, 55, 0
14, 244332, Note_on_c, 5, 62, 0
14, 244337, Note_on_c, 5, 59, 0
14, 244337, Note_on_c, 5, 67, 89
14, 244343, Note_on_c, 5, 65, 0
14, 244560, Note_on_c, 5, 60, 0
14, 244568, Note_on_c, 5, 57, 0
14, 244570, Note_on_c, 5, 63, 0
14, 244574, Note_on_c, 5, 59, 79
14, 244577, Note_on_c, 5, 67, 0
14, 244579, Note_on_c, 5, 62, 84
14, 244579, Note_on_c, 5, 65, 78
14, 244584, Note_on_c, 5, 55, 80
14, 244809, Note_on_c, 5, 60, 88
14, 244814, Note_on_c, 5, 59, 0
14, 244819, Note_on_c, 5, 62, 0
14, 244819, Note_on_c, 5, 65, 0
14, 244819, Note_on_c, 5, 63, 80
14, 244820, Note_on_c, 5, 57, 91
14, 244821, Note_on_c, 5, 67, 91
14, 244824, Note_on_c, 5, 55, 0
14, 245046, Note_on_c, 5, 55, 87
14, 245047, Note_on_c, 5, 59, 98
14, 245049, Note_on_c, 5, 60, 0
14, 245051, Note_on_c, 5, 65, 91
14, 245059, Note_on_c, 5, 63, 0
14, 245060, Note_on_c, 5, 57, 0
14, 245061, Note_on_c, 5, 67, 0
14, 245061, Note_on_c, 5, 62, 85
14, 245281, Note_on_c, 5, 63, 97
14, 245285, Note_on_c, 5, 60, 93
14, 245286, Note_on_c, 5, 55, 0
14, 245287, Note_on_c, 5, 59, 0
14, 245290, Note_on_c, 5, 67, 78
14, 245291, Note_on_c, 5, 65, 0
14, 245301, Note_on_c, 5, 62, 0
14, 245305, Note_on_c, 5, 57, 82
14, 245521, Note_on_c, 5, 63, 0
14, 245525, Note_on_c, 5, 60, 0
14, 245527, Note_on_c, 5, 65, 79
14, 245528, Note_on_c, 5, 62, 90
14, 245530, Note_on_c, 5, 67, 0
14, 245536, Note_on_c, 5, 59, 98
14, 245545, Note_on_c, 5, 57, 0
14, 245545, Note_on_c, 5, 55, 97
14, 245761, Note_on_c, 5, 63, 92
14, 245767, Note_on_c, 5, 65, 0
14, 245768, Note_on_c, 5, 62, 0
14, 245769, Note_on_c, 5, 67, 84
14, 245770, Note_on_c, 5, 60, 91
14, 245773, Note_on_c, 5, 57, 95
14, 245776, Note_on_c, 5, 59, 0
14, 245785, Note_on_c, 5, 55, 0
14, 246001, Note_on_c, 5, 63, 0
14, 246007, Note_on_c, 5, 62, 85
14, 246009, Note_on_c, 5, 67, 0
14, 246010, Note_on_c, 5, 60, 0
14, 246011, Note_on_c, 5, 65, 82
14, 246013, Note_on_c, 5, 57, 0
14, 246017, Note_on_c, 5, 55, 84
14, 246022, Note_on_c, 5, 59, 89
14, 246243, Note_on_c, 5, 67, 97
14, 246247, Note_on_c, 5, 62, 0
14, 246247, Note_on_c, 5, 63, 97
14, 246251, Note_on_c, 5, 65, 0
14, 246257, Note_on_c, 5, 55, 0
14, 246260, Note_on_c, 5, 57, 79
14, 246262, Note_on_c, 5, 59, 0
14, 246262, Note_on_c, 5, 57, 95
14, 246263, Note_on_c, 5, 60, 96
14, 246480, Note_on_c, 5, 60, 92
14, 246483, Note_on_c, 5, 67, 0
14, 246487, Note_on_c, 5, 63, 0
14, 246487, Note_on_c, 5, 62, 93
14, 246496, Note_on_c, 5, 65, 78
14, 246500, Note_on_c, 5, 57, 0
14, 246502, Note_on_c, 5, 57, 0
14, 246503, Note_on_c, 5, 60, 0
14, 246503, Note_on_c, 5, 55, 88
14, 246503, Note_on_c, 5, 59, 92
14, 246540, Note_on_c, 5, 60, 0
14, 246540, Note_on_c, 5, 63, 81
14, 246600, Note_on_c, 5, 63, 0
14, 246609, Note_on_c, 5, 65, 91
14, 246660, Note_on_c, 5, 67, 92
14, 246676, Note_on_c, 5, 65, 0
14, 246720, Note_on_c, 5, 67, 0
14, 246724, Note_on_c, 5, 67, 87
14, 246727, Note_on_c, 5, 62, 0
14, 246728, Note_on_c, 5, 57, 87
14, 246729, Note_on_c, 5, 65, 0
14, 246730, Note_on_c, 5, 60, 83
14, 246734, Note_on_c, 5, 63, 94
14, 246737, Note_on_c, 5, 69, 82
14, 246743, Note_on_c, 5, 55, 0
14, 246743, Note_on_c, 5, 59, 0
14, 246964, Note_on_c, 5, 67, 0
14, 246965, Note_on_c, 5, 62, 83
14, 246968, Note_on_c, 5, 57, 0
14, 246970, Note_on_c, 5, 60, 0
14, 246973, Note_on_c, 5, 55, 93
14, 246974, Note_on_c, 5, 63, 0
14, 246975, Note_on_c, 5, 65, 89
14, 246977, Note_on_c, 5, 69, 0
14, 246978, Note_on_c, 5, 59, 78
14, 247202, Note_on_c, 5, 63, 93
14, 247203, Note_on_c, 5, 67, 81
14, 247203, Note_on_c, 5, 60, 90
14, 247205, Note_on_c, 5, 62, 0
14, 247213, Note_on_c, 5, 55, 0
14, 247215, Note_on_c, 5, 65, 0
14, 247218, Note_on_c, 5, 59, 0
14, 247222, Note_on_c, 5, 57, 82
14, 247224, Note_on_c, 5, 57, 79
14, 247440, Note_on_c, 5, 60, 88
14, 247442, Note_on_c, 5, 63, 0
14, 247442, Note_on_c, 5, 62, 88
14, 247443, Note_on_c, 5, 67, 0
14, 247443, Note_on_c, 5, 60, 0
14, 247447, Note_on_c, 5, 55, 82
14, 247451, Note_on_c, 5, 59, 80
14, 247457, Note_on_c, 5, 65, 84
14, 247462, Note_on_c, 5, 57, 0
14, 247464, Note_on_c, 5, 57, 0
14, 247500, Note_on_c, 5, 60, 0
14, 247500, Note_on_c, 5, 63, 90
14, 247560, Note_on_c, 5, 63, 0
14, 247576, Note_on_c, 5, 65, 84
14, 247620, Note_on_c, 5, 67, 89
14, 247637, Note_on_c, 5, 65, 0
14, 247680, Note_on_c, 5, 67, 0
14, 247682, Note_on_c, 5, 62, 0
14, 247684, Note_on_c, 5, 60, 88
14, 247686, Note_on_c, 5, 67, 81
14, 247687, Note_on_c, 5, 55, 0
14, 247691, Note_on_c, 5, 59, 0
14, 247696, Note_on_c, 5, 65, 0
14, 247698, Note_on_c, 5, 63, 80
14, 247701, Note_on_c, 5, 57, 82
14, 247704, Note_on_c, 5, 69, 88
14, 247920, Note_on_c, 5, 59, 89
14, 247924, Note_on_c, 5, 60, 0
14, 247926, Note_on_c, 5, 67, 0
14, 247926, Note_on_c, 5, 55, 96
14, 247936, Note_on_c, 5, 65, 88
14, 247938, Note_on_c, 5, 63, 0
14, 247941, Note_on_c, 5, 57, 0
14, 247944, Note_on_c, 5, 69, 0
14, 247945, Note_on_c, 5, 62, 78
14, 248160, Note_on_c, 5, 59, 0
14, 248162, Note_on_c, 5, 60, 79
14, 248166, Note_on_c, 5, 55, 0
14, 248170, Note_on_c, 5, 63, 92
14, 248174, Note_on_c, 5, 57, 95
14, 248176, Note_on_c, 5, 65, 0
14, 248180, Note_on_c, 5, 67, 93
14, 248185, Note_on_c, 5, 62, 0
14, 248185, Note_on_c, 5, 57, 94
14, 248185, Note_on_c, 5, 63, 85
14, 248185, Note_on_c, 5, 60, 83
14, 248400, Note_on_c, 5, 60, 80
14, 248400, Note_on_c, 5, 63, 96
14, 248400, Note_on_c, 5, 65, 95
14, 248402, Note_on_c, 5, 60, 0
14, 248405, Note_on_c, 5, 55, 78
14, 248409, Note_on_c, 5, 62, 81
14, 248410, Note_on_c, 5, 63, 0
14, 248410, Note_on_c, 5, 65, 86
14, 248414, Note_on_c, 5, 57, 0
14, 248420, Note_on_c, 5, 67, 0
14, 248420, Note_on_c, 5, 59, 85
14, 248425, Note_on_c, 5, 57, 0
14, 248425, Note_on_c, 5, 63, 0
14, 248425, Note_on_c, 5, 60, 0
14, 248460, Note_on_c, 5, 60, 0
14, 248460, Note_on_c, 5, 63, 0
14, 248460, Note_on_c, 5, 65, 0
14, 248460, Note_on_c, 5, 63, 84
14, 248460, Note_on_c, 5, 67, 86
14, 248484, Note_on_c, 5, 65, 85
14, 248520, Note_on_c, 5, 63, 0
14, 248520, Note_on_c, 5, 67, 0
14, 248520, Note_on_c, 5, 69, 91
14, 248520, Note_on_c, 5, 67, 86
14, 248522, Note_on_c, 5, 65, 85
14, 248530, Note_on_c, 5, 65, 0
14, 248580, Note_on_c, 5, 69, 0
14, 248580, Note_on_c, 5, 67, 0
14, 248580, Note_on_c, 5, 67, 98
14, 248580, Note_on_c, 5, 69, 92
14, 248580, Note_on_c, 5, 72, 93
14, 248604, Note_on_c, 5, 65, 0
14, 248640, Note_on_c, 5, 67, 0
14, 248640, Note_on_c, 5, 69, 0
14, 248640, Note_on_c, 5, 72, 0
14, 248642, Note_on_c, 5, 65, 0
14, 248645, Note_on_c, 5, 55, 0
14, 248647, Note_on_c, 5, 60, 81
14, 248649, Note_on_c, 5, 62, 0
14, 248652, Note_on_c, 5, 57, 94
14, 248656, Note_on_c, 5, 67, 86
14, 248656, Note_on_c, 5, 72, 91
14, 248658, Note_on_c, 5, 63, 95
14, 248659, Note_on_c, 5, 75, 94
14, 248660, Note_on_c, 5, 59, 0
14, 248664, Note_on_c, 5, 69, 96
14, 248751, Note_on_c, 5, 72, 0
14, 248754, Note_on_c, 5, 75, 0
14, 248759, Note_on_c, 5, 69, 0
14, 248887, Note_on_c, 5, 60, 0
14, 248890, Note_on_c, 5, 65, 92
14, 248892, Note_on_c, 5, 57, 0
14, 248896, Note_on_c, 5, 67, 0
14, 248898, Note_on_c, 5, 63, 0
14, 248901, Note_on_c, 5, 55, 88
14, 248901, Note_on_c, 5, 62, 89
14, 248905, Note_on_c, 5, 59, 89
14, 249121, Note_on_c, 5, 60, 79
14, 249123, Note_on_c, 5, 63, 89
14, 249130, Note_on_c, 5, 65, 0
14, 249134, Note_on_c, 5, 67, 92
14, 249138, Note_on_c, 5, 57, 97
14, 249141, Note_on_c, 5, 55, 0
14, 249141, Note_on_c, 5, 62, 0
14, 249145, Note_on_c, 5, 59, 0
14, 249361, Note_on_c, 5, 60, 0
14, 249361, Note_on_c, 5, 62, 108
14, 249363, Note_on_c, 5, 63, 0
14, 249366, Note_on_c, 5, 65, 104
14, 249367, Note_on_c, 5, 59, 112
14, 249369, Note_on_c, 5, 55, 100
14, 249371, Note_on_c, 5, 59, 107
14, 249374, Note_on_c, 5, 67, 0
14, 249374, Note_on_c, 5, 55, 97
14, 249377, Note_on_c, 5, 65, 104
14, 249378, Note_on_c, 5, 57, 0
14, 249381, Note_on_c, 5, 62, 97
14, 249440, Note_on_c, 5, 55, 0
14, 249442, Note_on_c, 5, 59, 0
14, 249448, Note_on_c, 5, 65, 0
14, 249452, Note_on_c, 5, 62, 0
14, 249601, Note_on_c, 5, 62, 0
14, 249606, Note_on_c, 5, 65, 0
14, 249607, Note_on_c, 5, 59, 0
14, 249611, Note_on_c, 5, 63, 97
14, 249614, Note_on_c, 5, 55, 0
14, 249617, Note_on_c, 5, 60, 99
14, 249621, Note_on_c, 5, 67, 96
14, 249624, Note_on_c, 5, 57, 100
14, 249841, Note_on_c, 5, 55, 98
14, 249848, Note_on_c, 5, 59, 102
14, 249849, Note_on_c, 5, 55, 105
14, 249850, Note_on_c, 5, 65, 105
14, 249851, Note_on_c, 5, 63, 0
14, 249852, Note_on_c, 5, 59, 108
14, 249857, Note_on_c, 5, 60, 0
14, 249861, Note_on_c, 5, 67, 0
14, 249864, Note_on_c, 5, 57, 0
14, 249864, Note_on_c, 5, 62, 105
14, 249864, Note_on_c, 5, 62, 111
14, 249865, Note_on_c, 5, 65, 99
14, 249919, Note_on_c, 5, 59, 0
14, 249920, Note_on_c, 5, 55, 0
14, 249921, Note_on_c, 5, 65, 0
14, 249935, Note_on_c, 5, 62, 0
14, 250081, Note_on_c, 5, 55, 0
14, 250083, Note_on_c, 5, 60, 94
14, 250092, Note_on_c, 5, 59, 0
14, 250097, Note_on_c, 5, 64, 90
14, 250102, Note_on_c, 5, 67, 94
14, 250104, Note_on_c, 5, 62, 0
14, 250105, Note_on_c, 5, 65, 0
14, 260163, Note_on_c, 5, 60, 0
14, 260169, Note_on_c, 5, 59, 96
14, 260889, Note_on_c, 5, 59, 0
14, 260891, Note_on_c, 5, 63, 86
14, 260897, Note_on_c, 5, 64, 0
14, 260899, Note_on_c, 5, 56, 80
14, 260900, Note_on_c, 5, 60, 92
14, 260902, Note_on_c, 5, 67, 0
14, 260902, Note_on_c, 5, 66, 97
14, 261131, Note_on_c, 5, 63, 0
14, 261139, Note_on_c, 5, 56, 0
14, 261140, Note_on_c, 5, 60, 0
14, 261142, Note_on_c, 5, 66, 0
14, 263403, Note_on_c, 5, 59, 83
14, 263763, Note_on_c, 5, 59, 0
14, 264856, Note_on_c, 5, 59, 94
14, 265576, Note_on_c, 5, 59, 0
14, 266282, Note_on_c, 5, 59, 94
14, 266642, Note_on_c, 5, 59, 0
14, 266643, Note_on_c, 5, 67, 94
14, 266650, Note_on_c, 5, 64, 78
14, 266650, Note_on_c, 5, 61, 92
14, 266650, Note_on_c, 5, 72, 87
14, 266655, Note_on_c, 5, 57, 90
14, 266656, Note_on_c, 5, 70, 94
14, 266880, Note_on_c, 5, 58, 89
14, 266880, Note_on_c, 5, 73, 90
14, 266883, Note_on_c, 5, 67, 0
14, 266885, Note_on_c, 5, 71, 82
14, 266889, Note_on_c, 5, 62, 87
14, 266890, Note_on_c, 5, 64, 0
14, 266890, Note_on_c, 5, 61, 0
14, 266890, Note_on_c, 5, 72, 0
14, 266891, Note_on_c, 5, 65, 83
14, 266895, Note_on_c, 5, 57, 0
14, 266896, Note_on_c, 5, 70, 0
14, 266903, Note_on_c, 5, 68, 93
14, 267120, Note_on_c, 5, 58, 0
14, 267120, Note_on_c, 5, 73, 0
14, 267122, Note_on_c, 5, 66, 92
14, 267125, Note_on_c, 5, 71, 0
14, 267129, Note_on_c, 5, 62, 0
14, 267131, Note_on_c, 5, 65, 0
14, 267131, Note_on_c, 5, 74, 81
14, 267134, Note_on_c, 5, 63, 84
14, 267138, Note_on_c, 5, 72, 96
14, 267138, Note_on_c, 5, 69, 85
14, 267143, Note_on_c, 5, 68, 0
14, 267143, Note_on_c, 5, 59, 89
14, 267362, Note_on_c, 5, 66, 0
14, 267362, Note_on_c, 5, 67, 89
14, 267362, Note_on_c, 5, 64, 81
14, 267369, Note_on_c, 5, 75, 92
14, 267371, Note_on_c, 5, 74, 0
14, 267372, Note_on_c, 5, 73, 91
14, 267374, Note_on_c, 5, 63, 0
14, 267378, Note_on_c, 5, 72, 0
14, 267378, Note_on_c, 5, 69, 0
14, 267381, Note_on_c, 5, 70, 78
14, 267383, Note_on_c, 5, 59, 0
14, 267384, Note_on_c, 5, 60, 79
14, 267602, Note_on_c, 5, 67, 0
14, 267602, Note_on_c, 5, 64, 0
14, 267609, Note_on_c, 5, 75, 0
14, 267612, Note_on_c, 5, 73, 0
14, 267621, Note_on_c, 5, 70, 0
14, 267624, Note_on_c, 5, 60, 0
14, 271701, Note_on_c, 5, 69, 113
14, 272163, Note_on_c, 5, 62, 94
14, 272181, Note_on_c, 5, 69, 0
14, 272403, Note_on_c, 5, 62, 0
14, 272417, Note_on_c, 5, 69, 117
14, 272897, Note_on_c, 5, 69, 0
14, 272897, Note_on_c, 5, 62, 84
14, 273135, Note_on_c, 5, 69, 101
14, 273137, Note_on_c, 5, 62, 0
14, 273615, Note_on_c, 5, 69, 0
14, 273616, Note_on_c, 5, 62, 78
14, 274091, Note_on_c, 5, 69, 98
14, 274096, Note_on_c, 5, 62, 0
14, 274331, Note_on_c, 5, 69, 0
14, 274333, Note_on_c, 5, 62, 88
14, 274573, Note_on_c, 5, 62, 0
14, 274575, Note_on_c, 5, 69, 78
14, 274815, Note_on_c, 5, 69, 0
14, 277458, Note_on_c, 5, 69, 107
14, 277923, Note_on_c, 5, 62, 80
14, 277938, Note_on_c, 5, 69, 0
14, 278403, Note_on_c, 5, 62, 0
14, 278404, Note_on_c, 5, 69, 97
14, 278644, Note_on_c, 5, 69, 0
14, 278665, Note_on_c, 5, 62, 78
14, 278893, Note_on_c, 5, 69, 78
14, 278905, Note_on_c, 5, 62, 0
14, 279133, Note_on_c, 5, 69, 0
14, 281045, Note_on_c, 5, 69, 108
14, 281525, Note_on_c, 5, 69, 0
14, 281540, Note_on_c, 5, 62, 97
14, 281772, Note_on_c, 5, 69, 116
14, 281780, Note_on_c, 5, 62, 0
14, 282244, Note_on_c, 5, 62, 94
14, 282252, Note_on_c, 5, 69, 0
14, 282721, Note_on_c, 5, 69, 82
14, 282724, Note_on_c, 5, 62, 0
14, 282961, Note_on_c, 5, 69, 0
14, 282965, Note_on_c, 5, 62, 88
14, 283205, Note_on_c, 5, 62, 0
14, 283221, Note_on_c, 5, 69, 78
14, 284163, Note_on_c, 5, 62, 89
14, 284181, Note_on_c, 5, 69, 0
14, 284403, Note_on_c, 5, 62, 0
14, 284409, Note_on_c, 5, 69, 78
14, 284649, Note_on_c, 5, 69, 0
14, 285745, Note_on_c, 5, 59, 81
14, 286105, Note_on_c, 5, 59, 0
14, 287183, Note_on_c, 5, 59, 86
14, 287903, Note_on_c, 5, 59, 0
14, 288625, Note_on_c, 5, 59, 91
14, 288985, Note_on_c, 5, 59, 0
14, 290656, Note_on_c, 5, 52, 93
14, 290776, Note_on_c, 5, 52, 0
14, 290889, Note_on_c, 5, 55, 98
14, 291009, Note_on_c, 5, 55, 0
14, 291136, Note_on_c, 5, 57, 100
14, 291256, Note_on_c, 5, 57, 0
14, 291379, Note_on_c, 5, 61, 111
14, 291499, Note_on_c, 5, 61, 0
14, 291603, Note_on_c, 5, 64, 100
14, 291723, Note_on_c, 5, 64, 0
14, 291857, Note_on_c, 5, 60, 92
14, 291977, Note_on_c, 5, 60, 0
14, 294013, Note_on_c, 5, 67, 46
14, 295459, Note_on_c, 5, 70, 47
14, 298342, Note_on_c, 5, 73, 67
14, 302647, Note_on_c, 5, 61, 96
14, 302651, Note_on_c, 5, 55, 78
14, 302652, Note_on_c, 5, 67, 94
14, 302653, Note_on_c, 5, 67, 0
14, 302654, Note_on_c, 5, 70, 82
14, 302659, Note_on_c, 5, 70, 0
14, 302662, Note_on_c, 5, 73, 0
14, 302767, Note_on_c, 5, 61, 0
14, 302771, Note_on_c, 5, 55, 0
14, 302772, Note_on_c, 5, 67, 0
14, 302774, Note_on_c, 5, 70, 0
14, 302890, Note_on_c, 5, 65, 88
14, 302893, Note_on_c, 5, 61, 83
14, 302896, Note_on_c, 5, 67, 82
14, 302899, Note_on_c, 5, 55, 93
14, 302901, Note_on_c, 5, 69, 93
14, 303010, Note_on_c, 5, 65, 0
14, 303013, Note_on_c, 5, 61, 0
14, 303016, Note_on_c, 5, 67, 0
14, 303019, Note_on_c, 5, 55, 0
14, 303021, Note_on_c, 5, 69, 0
14, 303129, Note_on_c, 5, 61, 94
14, 303136, Note_on_c, 5, 55, 84
14, 303137, Note_on_c, 5, 70, 89
14, 303140, Note_on_c, 5, 67, 97
14, 303249, Note_on_c, 5, 61, 0
14, 303256, Note_on_c, 5, 55, 0
14, 303257, Note_on_c, 5, 70, 0
14, 303260, Note_on_c, 5, 67, 0
14, 303360, Note_on_c, 5, 69, 96
14, 303373, Note_on_c, 5, 67, 83
14, 303378, Note_on_c, 5, 55, 98
14, 303380, Note_on_c, 5, 61, 82
14, 303380, Note_on_c, 5, 65, 82
14, 303480, Note_on_c, 5, 69, 0
14, 303493, Note_on_c, 5, 67, 0
14, 303498, Note_on_c, 5, 55, 0
14, 303500, Note_on_c, 5, 61, 0
14, 303500, Note_on_c, 5, 65, 0
14, 303601, Note_on_c, 5, 67, 88
14, 303615, Note_on_c, 5, 61, 94
14, 303623, Note_on_c, 5, 63, 86
14, 303625, Note_on_c, 5, 55, 87
14, 303721, Note_on_c, 5, 67, 0
14, 303735, Note_on_c, 5, 61, 0
14, 303743, Note_on_c, 5, 63, 0
14, 303745, Note_on_c, 5, 55, 0
14, 303840, Note_on_c, 5, 62, 86
14, 303847, Note_on_c, 5, 61, 84
14, 303848, Note_on_c, 5, 67, 80
14, 303863, Note_on_c, 5, 65, 85
14, 303863, Note_on_c, 5, 55, 98
14, 303960, Note_on_c, 5, 62, 0
14, 303967, Note_on_c, 5, 61, 0
14, 303968, Note_on_c, 5, 67, 0
14, 303983, Note_on_c, 5, 65, 0
14, 303983, Note_on_c, 5, 55, 0
14, 304088, Note_on_c, 5, 67, 86
14, 304095, Note_on_c, 5, 55, 94
14, 304100, Note_on_c, 5, 70, 83
14, 304104, Note_on_c, 5, 61, 90
14, 304208, Note_on_c, 5, 67, 0
14, 304215, Note_on_c, 5, 55, 0
14, 304220, Note_on_c, 5, 70, 0
14, 304224, Note_on_c, 5, 61, 0
14, 304330, Note_on_c, 5, 67, 84
14, 304337, Note_on_c, 5, 55, 93
14, 304341, Note_on_c, 5, 61, 94
14, 304343, Note_on_c, 5, 69, 90
14, 304345, Note_on_c, 5, 65, 84
14, 304450, Note_on_c, 5, 67, 0
14, 304457, Note_on_c, 5, 55, 0
14, 304461, Note_on_c, 5, 61, 0
14, 304463, Note_on_c, 5, 69, 0
14, 304465, Note_on_c, 5, 65, 0
14, 304562, Note_on_c, 5, 67, 83
14, 304567, Note_on_c, 5, 70, 82
14, 304571, Note_on_c, 5, 61, 93
14, 304577, Note_on_c, 5, 55, 88
14, 304682, Note_on_c, 5, 67, 0
14, 304687, Note_on_c, 5, 70, 0
14, 304691, Note_on_c, 5, 61, 0
14, 304697, Note_on_c, 5, 55, 0
14, 304804, Note_on_c, 5, 65, 79
14, 304811, Note_on_c, 5, 67, 81
14, 304814, Note_on_c, 5, 69, 91
14, 304814, Note_on_c, 5, 61, 84
14, 304823, Note_on_c, 5, 55, 82
14, 304924, Note_on_c, 5, 65, 0
14, 304931, Note_on_c, 5, 67, 0
14, 304934, Note_on_c, 5, 69, 0
14, 304934, Note_on_c, 5, 61, 0
14, 304943, Note_on_c, 5, 55, 0
14, 305048, Note_on_c, 5, 67, 90
14, 305049, Note_on_c, 5, 63, 90
14, 305051, Note_on_c, 5, 61, 80
14, 305055, Note_on_c, 5, 55, 89
14, 305168, Note_on_c, 5, 67, 0
14, 305169, Note_on_c, 5, 63, 0
14, 305171, Note_on_c, 5, 61, 0
14, 305175, Note_on_c, 5, 55, 0
14, 305280, Note_on_c, 5, 62, 87
14, 305285, Note_on_c, 5, 67, 80
14, 305288, Note_on_c, 5, 61, 95
14, 305298, Note_on_c, 5, 65, 78
14, 305299, Note_on_c, 5, 55, 90
14, 305400, Note_on_c, 5, 62, 0
14, 305405, Note_on_c, 5, 67, 0
14, 305408, Note_on_c, 5, 61, 0
14, 305418, Note_on_c, 5, 65, 0
14, 305419, Note_on_c, 5, 55, 0
14, 305523, Note_on_c, 5, 70, 80
14, 305525, Note_on_c, 5, 61, 96
14, 305531, Note_on_c, 5, 67, 86
14, 305539, Note_on_c, 5, 55, 93
14, 305643, Note_on_c, 5, 70, 0
14, 305645, Note_on_c, 5, 61, 0
14, 305651, Note_on_c, 5, 67, 0
14, 305659, Note_on_c, 5, 55, 0
14, 305763, Note_on_c, 5, 69, 93
14, 305776, Note_on_c, 5, 65, 85
14, 305883, Note_on_c, 5, 69, 0
14, 305896, Note_on_c, 5, 65, 0
14, 306003, Note_on_c, 5, 70, 78
14, 306019, Note_on_c, 5, 67, 88
14, 306123, Note_on_c, 5, 70, 0
14, 306139, Note_on_c, 5, 67, 0
14, 306253, Note_on_c, 5, 69, 80
14, 306263, Note_on_c, 5, 65, 79
14, 306373, Note_on_c, 5, 69, 0
14, 306383, Note_on_c, 5, 65, 0
14, 306483, Note_on_c, 5, 67, 89
14, 306496, Note_on_c, 5, 63, 95
14, 306603, Note_on_c, 5, 67, 0
14, 306616, Note_on_c, 5, 63, 0
14, 306727, Note_on_c, 5, 62, 81
14, 306737, Note_on_c, 5, 65, 78
14, 306847, Note_on_c, 5, 62, 0
14, 306857, Note_on_c, 5, 65, 0
14, 306972, Note_on_c, 5, 63, 95
14, 306981, Note_on_c, 5, 67, 96
14, 307092, Note_on_c, 5, 63, 0
14, 307101, Note_on_c, 5, 67, 0
14, 307205, Note_on_c, 5, 60, 87
14, 307221, Note_on_c, 5, 64, 97
14, 307325, Note_on_c, 5, 60, 0
14, 307341, Note_on_c, 5, 64, 0
14, 307446, Note_on_c, 5, 60, 78
14, 307463, Note_on_c, 5, 64, 80
14, 307566, Note_on_c, 5, 60, 0
14, 307583, Note_on_c, 5, 64, 0
14, 307687, Note_on_c, 5, 60, 83
14, 307701, Note_on_c, 5, 64, 87
14, 307807, Note_on_c, 5, 60, 0
14, 307821, Note_on_c, 5, 64, 0
14, 307924, Note_on_c, 5, 65, 94
14, 307941, Note_on_c, 5, 62, 88
14, 308044, Note_on_c, 5, 65, 0
14, 308061, Note_on_c, 5, 62, 0
14, 308169, Note_on_c, 5, 67, 96
14, 308176, Note_on_c, 5, 63, 79
14, 308289, Note_on_c, 5, 67, 0
14, 308296, Note_on_c, 5, 63, 0
14, 308420, Note_on_c, 5, 69, 85
14, 308421, Note_on_c, 5, 65, 79
14, 308540, Note_on_c, 5, 69, 0
14, 308541, Note_on_c, 5, 65, 0
14, 308640, Note_on_c, 5, 70, 78
14, 308654, Note_on_c, 5, 61, 96
14, 308657, Note_on_c, 5, 55, 90
14, 308665, Note_on_c, 5, 67, 96
14, 308760, Note_on_c, 5, 70, 0
14, 308774, Note_on_c, 5, 61, 0
14, 308777, Note_on_c, 5, 55, 0
14, 308785, Note_on_c, 5, 67, 0
14, 308898, Note_on_c, 5, 69, 85
14, 308900, Note_on_c, 5, 61, 87
14, 308902, Note_on_c, 5, 65, 85
14, 308903, Note_on_c, 5, 55, 82
14, 309018, Note_on_c, 5, 69, 0
14, 309020, Note_on_c, 5, 61, 0
14, 309022, Note_on_c, 5, 65, 0
14, 309023, Note_on_c, 5, 55, 0
14, 309120, Note_on_c, 5, 67, 86
14, 309123, Note_on_c, 5, 61, 78
14, 309142, Note_on_c, 5, 70, 90
14, 309143, Note_on_c, 5, 55, 92
14, 309240, Note_on_c, 5, 67, 0
14, 309243, Note_on_c, 5, 61, 0
14, 309262, Note_on_c, 5, 70, 0
14, 309263, Note_on_c, 5, 55, 0
14, 309361, Note_on_c, 5, 61, 86
14, 309366, Note_on_c, 5, 65, 95
14, 309374, Note_on_c, 5, 69, 80
14, 309375, Note_on_c, 5, 55, 95
14, 309481, Note_on_c, 5, 61, 0
14, 309486, Note_on_c, 5, 65, 0
14, 309494, Note_on_c, 5, 69, 0
14, 309495, Note_on_c, 5, 55, 0
14, 309601, Note_on_c, 5, 67, 85
14, 309609, Note_on_c, 5, 61, 93
14, 309612, Note_on_c, 5, 55, 89
14, 309618, Note_on_c, 5, 63, 92
14, 309721, Note_on_c, 5, 67, 0
14, 309729, Note_on_c, 5, 61, 0
14, 309732, Note_on_c, 5, 55, 0
14, 309738, Note_on_c, 5, 63, 0
14, 309849, Note_on_c, 5, 62, 95
14, 309854, Note_on_c, 5, 61, 86
14, 309861, Note_on_c, 5, 55, 96
14, 309862, Note_on_c, 5, 65, 97
14, 309969, Note_on_c, 5, 62, 0
14, 309974, Note_on_c, 5, 61, 0
14, 309981, Note_on_c, 5, 55, 0
14, 309982, Note_on_c, 5, 65, 0
14, 310084, Note_on_c, 5, 60, 86
14, 310085, Note_on_c, 5, 67, 83
14, 310098, Note_on_c, 5, 55, 96
14, 310100, Note_on_c, 5, 64, 89
14, 310103, Note_on_c, 5, 61, 96
14, 310204, Note_on_c, 5, 60, 0
14, 310205, Note_on_c, 5, 67, 0
14, 310218, Note_on_c, 5, 55, 0
14, 310220, Note_on_c, 5, 64, 0
14, 310223, Note_on_c, 5, 61, 0
14, 310321, Note_on_c, 5, 67, 98
14, 310331, Note_on_c, 5, 65, 87
14, 310332, Note_on_c, 5, 55, 80
14, 310333, Note_on_c, 5, 62, 78
14, 310344, Note_on_c, 5, 61, 96
14, 310441, Note_on_c, 5, 67, 0
14, 310451, Note_on_c, 5, 65, 0
14, 310452, Note_on_c, 5, 55, 0
14, 310453, Note_on_c, 5, 62, 0
14, 310464, Note_on_c, 5, 61, 0
14, 310570, Note_on_c, 5, 63, 79
14, 310585, Note_on_c, 5, 67, 81
14, 310690, Note_on_c, 5, 63, 0
14, 310705, Note_on_c, 5, 67, 0
14, 310804, Note_on_c, 5, 55, 92
14, 310808, Note_on_c, 5, 69, 89
14, 310809, Note_on_c, 5, 61, 92
14, 310812, Note_on_c, 5, 67, 93
14, 310817, Note_on_c, 5, 65, 83
14, 310924, Note_on_c, 5, 55, 0
14, 310928, Note_on_c, 5, 69, 0
14, 310929, Note_on_c, 5, 61, 0
14, 310932, Note_on_c, 5, 67, 0
14, 310937, Note_on_c, 5, 65, 0
14, 311044, Note_on_c, 5, 66, 87
14, 311049, Note_on_c, 5, 54, 92
14, 311051, Note_on_c, 5, 66, 82
14, 311052, Note_on_c, 5, 60, 97
14, 311054, Note_on_c, 5, 69, 80
14, 311164, Note_on_c, 5, 66, 0
14, 311169, Note_on_c, 5, 54, 0
14, 311171, Note_on_c, 5, 66, 0
14, 311172, Note_on_c, 5, 60, 0
14, 311174, Note_on_c, 5, 69, 0
14, 311284, Note_on_c, 5, 64, 82
14, 311297, Note_on_c, 5, 68, 78
14, 311404, Note_on_c, 5, 64, 0
14, 311417, Note_on_c, 5, 68, 0
14, 311523, Note_on_c, 5, 66, 79
14, 311530, Note_on_c, 5, 69, 81
14, 311643, Note_on_c, 5, 66, 0
14, 311650, Note_on_c, 5, 69, 0
14, 311768, Note_on_c, 5, 68, 90
14, 311771, Note_on_c, 5, 64, 98
14, 311888, Note_on_c, 5, 68, 0
14, 311891, Note_on_c, 5, 64, 0
14, 312016, Note_on_c, 5, 62, 98
14, 312017, Note_on_c, 5, 66, 78
14, 312136, Note_on_c, 5, 62, 0
14, 312137, Note_on_c, 5, 66, 0
14, 312257, Note_on_c, 5, 64, 93
14, 312259, Note_on_c, 5, 61, 94
14, 312377, Note_on_c, 5, 64, 0
14, 312379, Note_on_c, 5, 61, 0
14, 312487, Note_on_c, 5, 63, 83
14, 312505, Note_on_c, 5, 59, 80
14, 312607, Note_on_c, 5, 63, 0
14, 312625, Note_on_c, 5, 59, 0
14, 312736, Note_on_c, 5, 59, 78
14, 312745, Note_on_c, 5, 63, 83
14, 312856, Note_on_c, 5, 59, 0
14, 312865, Note_on_c, 5, 63, 0
14, 312977, Note_on_c, 5, 63, 82
14, 312984, Note_on_c, 5, 59, 83
14, 313097, Note_on_c, 5, 63, 0
14, 313104, Note_on_c, 5, 59, 0
14, 313200, Note_on_c, 5, 64, 94
14, 313218, Note_on_c, 5, 61, 92
14, 313320, Note_on_c, 5, 64, 0
14, 313338, Note_on_c, 5, 61, 0
14, 313450, Note_on_c, 5, 66, 92
14, 313464, Note_on_c, 5, 62, 92
14, 313570, Note_on_c, 5, 66, 0
14, 313584, Note_on_c, 5, 62, 0
14, 313689, Note_on_c, 5, 64, 91
14, 313701, Note_on_c, 5, 68, 90
14, 313809, Note_on_c, 5, 64, 0
14, 313821, Note_on_c, 5, 68, 0
14, 313936, Note_on_c, 5, 74, 117
14, 314404, Note_on_c, 5, 69, 92
14, 314416, Note_on_c, 5, 74, 0
14, 314644, Note_on_c, 5, 69, 0
14, 314651, Note_on_c, 5, 74, 106
14, 315124, Note_on_c, 5, 69, 81
14, 315131, Note_on_c, 5, 74, 0
14, 315364, Note_on_c, 5, 69, 0
14, 315383, Note_on_c, 5, 74, 110
14, 315858, Note_on_c, 5, 69, 93
14, 315863, Note_on_c, 5, 74, 0
14, 316095, Note_on_c, 5, 74, 83
14, 316098, Note_on_c, 5, 69, 0
14, 316335, Note_on_c, 5, 74, 0
14, 316345, Note_on_c, 5, 69, 87
14, 316582, Note_on_c, 5, 74, 81
14, 316585, Note_on_c, 5, 69, 0
14, 316812, Note_on_c, 5, 69, 91
14, 316822, Note_on_c, 5, 74, 0
14, 317772, Note_on_c, 5, 69, 0
14, 317781, Note_on_c, 5, 74, 86
14, 318017, Note_on_c, 5, 69, 89
14, 318021, Note_on_c, 5, 74, 0
14, 318247, Note_on_c, 5, 74, 78
14, 318257, Note_on_c, 5, 69, 0
14, 318484, Note_on_c, 5, 69, 85
14, 318487, Note_on_c, 5, 74, 0
14, 318724, Note_on_c, 5, 69, 0
14, 318738, Note_on_c, 5, 74, 84
14, 318978, Note_on_c, 5, 74, 0
14, 318982, Note_on_c, 5, 69, 80
14, 319942, Note_on_c, 5, 69, 0
14, 324723, Note_on_c, 5, 61, 101
14, 324729, Note_on_c, 5, 68, 96
14, 324738, Note_on_c, 5, 68, 96
14, 324915, Note_on_c, 5, 61, 0
14, 324921, Note_on_c, 5, 68, 0
14, 324969, Note_on_c, 5, 68, 101
14, 324983, Note_on_c, 5, 61, 98
14, 325122, Note_on_c, 5, 68, 0
14, 325175, Note_on_c, 5, 61, 0
14, 325217, Note_on_c, 5, 68, 111
14, 325221, Note_on_c, 5, 61, 102
14, 325353, Note_on_c, 5, 68, 0
14, 325409, Note_on_c, 5, 68, 0
14, 325410, Note_on_c, 5, 61, 0
14, 325448, Note_on_c, 5, 58, 94
14, 325452, Note_on_c, 5, 65, 95
14, 325456, Note_on_c, 5, 65, 98
14, 325640, Note_on_c, 5, 58, 0
14, 325647, Note_on_c, 5, 65, 0
14, 325698, Note_on_c, 5, 65, 92
14, 325705, Note_on_c, 5, 58, 102
14, 325837, Note_on_c, 5, 65, 0
14, 325897, Note_on_c, 5, 58, 0
14, 325924, Note_on_c, 5, 58, 100
14, 325927, Note_on_c, 5, 65, 103
14, 326073, Note_on_c, 5, 65, 0
14, 326113, Note_on_c, 5, 58, 0
14, 326128, Note_on_c, 5, 65, 0
14, 326164, Note_on_c, 5, 55, 104
14, 326165, Note_on_c, 5, 66, 103
14, 326168, Note_on_c, 5, 67, 100
14, 326170, Note_on_c, 5, 67, 105
14, 326184, Note_on_c, 5, 66, 91
14, 326356, Note_on_c, 5, 55, 0
14, 326357, Note_on_c, 5, 66, 0
14, 326361, Note_on_c, 5, 67, 0
14, 326376, Note_on_c, 5, 66, 0
14, 326405, Note_on_c, 5, 66, 110
14, 326422, Note_on_c, 5, 67, 110
14, 326552, Note_on_c, 5, 67, 0
14, 326597, Note_on_c, 5, 66, 0
14, 326643, Note_on_c, 5, 66, 95
14, 326663, Note_on_c, 5, 67, 96
14, 326806, Note_on_c, 5, 67, 0
14, 326832, Note_on_c, 5, 66, 0
14, 326855, Note_on_c, 5, 67, 0
14, 326893, Note_on_c, 5, 63, 109
14, 326896, Note_on_c, 5, 64, 98
14, 326901, Note_on_c, 5, 64, 95
14, 327085, Note_on_c, 5, 63, 0
14, 327092, Note_on_c, 5, 64, 0
14, 327132, Note_on_c, 5, 63, 95
14, 327142, Note_on_c, 5, 64, 94
14, 327281, Note_on_c, 5, 64, 0
14, 327324, Note_on_c, 5, 63, 0
14, 327375, Note_on_c, 5, 64, 106
14, 327384, Note_on_c, 5, 63, 110
14, 327520, Note_on_c, 5, 64, 0
14, 327572, Note_on_c, 5, 64, 0
14, 327573, Note_on_c, 5, 63, 0
14, 327615, Note_on_c, 5, 65, 99
14, 327623, Note_on_c, 5, 58, 110
14, 327807, Note_on_c, 5, 65, 0
14, 327815, Note_on_c, 5, 58, 0
14, 328810, Note_on_c, 5, 63, 111
14, 328825, Note_on_c, 5, 51, 117
14, 329049, Note_on_c, 5, 70, 108
14, 329049, Note_on_c, 5, 58, 121
14, 329050, Note_on_c, 5, 63, 0
14, 329065, Note_on_c, 5, 51, 0
14, 331209, Note_on_c, 5, 70, 0
14, 331209, Note_on_c, 5, 58, 0
14, 339842, Note_on_c, 5, 57, 104
14, 339845, Note_on_c, 5, 54, 95
14, 339846, Note_on_c, 5, 60, 87
14, 339985, Note_on_c, 5, 57, 0
14, 339988, Note_on_c, 5, 54, 0
14, 339989, Note_on_c, 5, 60, 0
14, 346095, Note_on_c, 5, 54, 100
14, 346096, Note_on_c, 5, 60, 94
14, 346102, Note_on_c, 5, 57, 105
14, 346238, Note_on_c, 5, 54, 0
14, 346239, Note_on_c, 5, 60, 0
14, 346245, Note_on_c, 5, 57, 0
14, 348000, Note_on_c, 5, 57, 95
14, 348008, Note_on_c, 5, 60, 87
14, 348013, Note_on_c, 5, 54, 99
14, 348143, Note_on_c, 5, 57, 0
14, 348151, Note_on_c, 5, 60, 0
14, 348156, Note_on_c, 5, 54, 0
14, 348490, Note_on_c, 5, 60, 90
14, 348491, Note_on_c, 5, 57, 96
14, 348502, Note_on_c, 5, 54, 86
14, 348633, Note_on_c, 5, 60, 0
14, 348634, Note_on_c, 5, 57, 0
14, 348645, Note_on_c, 5, 54, 0
14, 352323, Note_on_c, 5, 57, 86
14, 352325, Note_on_c, 5, 54, 95
14, 352331, Note_on_c, 5, 60, 97
14, 352466, Note_on_c, 5, 57, 0
14, 352468, Note_on_c, 5, 54, 0
14, 352474, Note_on_c, 5, 60, 0
14, 354241, Note_on_c, 5, 57, 97
14, 354245, Note_on_c, 5, 66, 86
14, 354250, Note_on_c, 5, 69, 104
14, 354384, Note_on_c, 5, 57, 0
14, 354388, Note_on_c, 5, 66, 0
14, 354393, Note_on_c, 5, 69, 0
14, 355681, Note_on_c, 5, 69, 93
14, 355694, Note_on_c, 5, 57, 102
14, 355702, Note_on_c, 5, 66, 99
14, 355824, Note_on_c, 5, 69, 0
14, 355837, Note_on_c, 5, 57, 0
14, 355845, Note_on_c, 5, 66, 0
14, 357128, Note_on_c, 5, 57, 99
14, 357129, Note_on_c, 5, 66, 92
14, 357144, Note_on_c, 5, 69, 105
14, 357271, Note_on_c, 5, 57, 0
14, 357272, Note_on_c, 5, 66, 0
14, 357287, Note_on_c, 5, 69, 0
14, 358085, Note_on_c, 5, 66, 102
14, 358091, Note_on_c, 5, 57, 104
14, 358103, Note_on_c, 5, 69, 104
14, 358228, Note_on_c, 5, 66, 0
14, 358234, Note_on_c, 5, 57, 0
14, 358246, Note_on_c, 5, 69, 0
14, 384485, Note_on_c, 5, 39, 55
14, 384501, Note_on_c, 5, 46, 59
14, 386405, Note_on_c, 5, 39, 0
14, 386421, Note_on_c, 5, 46, 0
14, 390248, Note_on_c, 5, 39, 45
14, 390260, Note_on_c, 5, 46, 57
14, 393848, Note_on_c, 5, 39, 0
14, 393860, Note_on_c, 5, 46, 0
14, 394080, Note_on_c, 5, 65, 58
14, 394081, Note_on_c, 5, 70, 58
14, 394082, Note_on_c, 5, 66, 66
14, 394084, Note_on_c, 5, 58, 54
14, 394440, Note_on_c, 5, 65, 0
14, 394441, Note_on_c, 5, 70, 0
14, 394442, Note_on_c, 5, 66, 0
14, 394444, Note_on_c, 5, 58, 0
14, 394572, Note_on_c, 5, 70, 54
14, 394574, Note_on_c, 5, 58, 64
14, 394575, Note_on_c, 5, 65, 72
14, 394579, Note_on_c, 5, 66, 71
14, 394932, Note_on_c, 5, 70, 0
14, 394934, Note_on_c, 5, 58, 0
14, 394935, Note_on_c, 5, 65, 0
14, 394939, Note_on_c, 5, 66, 0
14, 395044, Note_on_c, 5, 70, 70
14, 395045, Note_on_c, 5, 65, 62
14, 395060, Note_on_c, 5, 58, 60
14, 395063, Note_on_c, 5, 66, 53
14, 395404, Note_on_c, 5, 70, 0
14, 395405, Note_on_c, 5, 65, 0
14, 395420, Note_on_c, 5, 58, 0
14, 395423, Note_on_c, 5, 66, 0
14, 396007, Note_on_c, 5, 70, 61
14, 396008, Note_on_c, 5, 66, 66
14, 396013, Note_on_c, 5, 58, 67
14, 396023, Note_on_c, 5, 65, 56
14, 396367, Note_on_c, 5, 70, 0
14, 396368, Note_on_c, 5, 66, 0
14, 396373, Note_on_c, 5, 58, 0
14, 396383, Note_on_c, 5, 65, 0
14, 396482, Note_on_c, 5, 70, 63
14, 396489, Note_on_c, 5, 58, 71
14, 396500, Note_on_c, 5, 66, 57
14, 396505, Note_on_c, 5, 65, 67
14, 396842, Note_on_c, 5, 70, 0
14, 396849, Note_on_c, 5, 58, 0
14, 396860, Note_on_c, 5, 66, 0
14, 396865, Note_on_c, 5, 65, 0
14, 396967, Note_on_c, 5, 66, 67
14, 396974, Note_on_c, 5, 70, 64
14, 396975, Note_on_c, 5, 65, 60
14, 396979, Note_on_c, 5, 58, 67
14, 397327, Note_on_c, 5, 66, 0
14, 397334, Note_on_c, 5, 70, 0
14, 397335, Note_on_c, 5, 65, 0
14, 397339, Note_on_c, 5, 58, 0
14, 401764, Note_on_c, 5, 70, 61
14, 401782, Note_on_c, 5, 66, 70
14, 401784, Note_on_c, 5, 58, 67
14, 401784, Note_on_c, 5, 65, 59
14, 402124, Note_on_c, 5, 70, 0
14, 402142, Note_on_c, 5, 66, 0
14, 402144, Note_on_c, 5, 58, 0
14, 402144, Note_on_c, 5, 65, 0
14, 402245, Note_on_c, 5, 58, 67
14, 402246, Note_on_c, 5, 66, 62
14, 402249, Note_on_c, 5, 70, 56
14, 402262, Note_on_c, 5, 65, 52
14, 402605, Note_on_c, 5, 58, 0
14, 402606, Note_on_c, 5, 66, 0
14, 402609, Note_on_c, 5, 70, 0
14, 402622, Note_on_c, 5, 65, 0
14, 402727, Note_on_c, 5, 70, 68
14, 402729, Note_on_c, 5, 58, 71
14, 402732, Note_on_c, 5, 65, 60
14, 402738, Note_on_c, 5, 66, 56
14, 403087, Note_on_c, 5, 70, 0
14, 403089, Note_on_c, 5, 58, 0
14, 403092, Note_on_c, 5, 65, 0
14, 403098, Note_on_c, 5, 66, 0
14, 403204, Note_on_c, 5, 68, 55
14, 403217, Note_on_c, 5, 60, 55
14, 403221, Note_on_c, 5, 72, 70
14, 403221, Note_on_c, 5, 66, 61
14, 403442, Note_on_c, 5, 70, 64
14, 403444, Note_on_c, 5, 68, 0
14, 403457, Note_on_c, 5, 60, 0
14, 403457, Note_on_c, 5, 61, 58
14, 403461, Note_on_c, 5, 72, 0
14, 403461, Note_on_c, 5, 66, 0
14, 403461, Note_on_c, 5, 73, 72
14, 403461, Note_on_c, 5, 68, 53
14, 403680, Note_on_c, 5, 75, 65
14, 403682, Note_on_c, 5, 70, 0
14, 403683, Note_on_c, 5, 63, 55
14, 403687, Note_on_c, 5, 70, 66
14, 403693, Note_on_c, 5, 72, 53
14, 403697, Note_on_c, 5, 61, 0
14, 403701, Note_on_c, 5, 73, 0
14, 403701, Note_on_c, 5, 68, 0
14, 404160, Note_on_c, 5, 75, 0
14, 404160, Note_on_c, 5, 61, 53
14, 404163, Note_on_c, 5, 63, 0
14, 404166, Note_on_c, 5, 73, 59
14, 404166, Note_on_c, 5, 70, 52
14, 404167, Note_on_c, 5, 70, 0
14, 404171, Note_on_c, 5, 68, 53
14, 404173, Note_on_c, 5, 72, 0
14, 404640, Note_on_c, 5, 61, 0
14, 404641, Note_on_c, 5, 66, 60
14, 404646, Note_on_c, 5, 73, 0
14, 404646, Note_on_c, 5, 70, 0
14, 404647, Note_on_c, 5, 60, 64
14, 404651, Note_on_c, 5, 68, 0
14, 404664, Note_on_c, 5, 68, 60
14, 404665, Note_on_c, 5, 72, 69
14, 405121, Note_on_c, 5, 66, 0
14, 405127, Note_on_c, 5, 60, 0
14, 405129, Note_on_c, 5, 58, 61
14, 405136, Note_on_c, 5, 65, 60
14, 405138, Note_on_c, 5, 70, 56
14, 405141, Note_on_c, 5, 66, 71
14, 405144, Note_on_c, 5, 68, 0
14, 405145, Note_on_c, 5, 72, 0
14, 405489, Note_on_c, 5, 58, 0
14, 405496, Note_on_c, 5, 65, 0
14, 405498, Note_on_c, 5, 70, 0
14, 405501, Note_on_c, 5, 66, 0
14, 405601, Note_on_c, 5, 66, 70
14, 405609, Note_on_c, 5, 70, 61
14, 405613, Note_on_c, 5, 65, 71
14, 405621, Note_on_c, 5, 58, 72
14, 405961, Note_on_c, 5, 66, 0
14, 405969, Note_on_c, 5, 70, 0
14, 405973, Note_on_c, 5, 65, 0
14, 405981, Note_on_c, 5, 58, 0
14, 406080, Note_on_c, 5, 66, 67
14, 406083, Note_on_c, 5, 72, 72
14, 406095, Note_on_c, 5, 60, 55
14, 406097, Note_on_c, 5, 68, 60
14, 406320, Note_on_c, 5, 66, 0
14, 406321, Note_on_c, 5, 61, 68
14, 406323, Note_on_c, 5, 72, 0
14, 406325, Note_on_c, 5, 70, 57
14, 406331, Note_on_c, 5, 73, 62
14, 406335, Note_on_c, 5, 60, 0
14, 406336, Note_on_c, 5, 68, 70
14, 406337, Note_on_c, 5, 68, 0
14, 406561, Note_on_c, 5, 61, 0
14, 406565, Note_on_c, 5, 70, 0
14, 406567, Note_on_c, 5, 72, 61
14, 406568, Note_on_c, 5, 70, 60
14, 406569, Note_on_c, 5, 75, 62
14, 406571, Note_on_c, 5, 73, 0
14, 406576, Note_on_c, 5, 68, 0
14, 406584, Note_on_c, 5, 63, 59
14, 407047, Note_on_c, 5, 72, 0
14, 407048, Note_on_c, 5, 70, 0
14, 407049, Note_on_c, 5, 75, 0
14, 407064, Note_on_c, 5, 63, 0
14, 419520, Note_on_c, 5, 39, 54
14, 419541, Note_on_c, 5, 46, 45
14, 421680, Note_on_c, 5, 39, 0
14, 421701, Note_on_c, 5, 46, 0
14, 423366, Note_on_c, 5, 39, 46
14, 423379, Note_on_c, 5, 46, 41
14, 426726, Note_on_c, 5, 39, 0
14, 426731, Note_on_c, 5, 46, 96
14, 426739, Note_on_c, 5, 46, 0
14, 426744, Note_on_c, 5, 39, 105
14, 427200, Note_on_c, 5, 65, 111
14, 427211, Note_on_c, 5, 46, 0
14, 427211, Note_on_c, 5, 66, 111
14, 427217, Note_on_c, 5, 62, 103
14, 427218, Note_on_c, 5, 59, 100
14, 427223, Note_on_c, 5, 70, 100
14, 427224, Note_on_c, 5, 39, 0
14, 427449, Note_on_c, 5, 48, 92
14, 427460, Note_on_c, 5, 41, 109
14, 427560, Note_on_c, 5, 65, 0
14, 427571, Note_on_c, 5, 66, 0
14, 427577, Note_on_c, 5, 62, 0
14, 427578, Note_on_c, 5, 59, 0
14, 427583, Note_on_c, 5, 70, 0
14, 427683, Note_on_c, 5, 59, 95
14, 427694, Note_on_c, 5, 70, 105
14, 427695, Note_on_c, 5, 62, 101
14, 427699, Note_on_c, 5, 66, 92
14, 427703, Note_on_c, 5, 65, 93
14, 427927, Note_on_c, 5, 42, 101
14, 427929, Note_on_c, 5, 48, 0
14, 427932, Note_on_c, 5, 49, 106
14, 427940, Note_on_c, 5, 41, 0
14, 428043, Note_on_c, 5, 59, 0
14, 428054, Note_on_c, 5, 70, 0
14, 428055, Note_on_c, 5, 62, 0
14, 428059, Note_on_c, 5, 66, 0
14, 428063, Note_on_c, 5, 65, 0
14, 428177, Note_on_c, 5, 65, 99
14, 428180, Note_on_c, 5, 62, 97
14, 428182, Note_on_c, 5, 59, 93
14, 428184, Note_on_c, 5, 70, 92
14, 428185, Note_on_c, 5, 66, 100
14, 428406, Note_on_c, 5, 44, 101
14, 428407, Note_on_c, 5, 42, 0
14, 428412, Note_on_c, 5, 49, 0
14, 428420, Note_on_c, 5, 51, 93
14, 428537, Note_on_c, 5, 65, 0
14, 428540, Note_on_c, 5, 62, 0
14, 428542, Note_on_c, 5, 59, 0
14, 428544, Note_on_c, 5, 70, 0
14, 428545, Note_on_c, 5, 66, 0
14, 428641, Note_on_c, 5, 72, 108
14, 428642, Note_on_c, 5, 58, 102
14, 428642, Note_on_c, 5, 61, 92
14, 428644, Note_on_c, 5, 39, 92
14, 428646, Note_on_c, 5, 44, 0
14, 428647, Note_on_c, 5, 46, 104
14, 428653, Note_on_c, 5, 69, 92
14, 428658, Note_on_c, 5, 68, 111
14, 428660, Note_on_c, 5, 51, 0
14, 428661, Note_on_c, 5, 64, 102
14, 428881, Note_on_c, 5, 72, 0
14, 428882, Note_on_c, 5, 73, 104
14, 428898, Note_on_c, 5, 68, 0
14, 428901, Note_on_c, 5, 70, 99
14, 429122, Note_on_c, 5, 58, 0
14, 429122, Note_on_c, 5, 61, 0
14, 429122, Note_on_c, 5, 73, 0
14, 429122, Note_on_c, 5, 61, 109
14, 429124, Note_on_c, 5, 39, 0
14, 429126, Note_on_c, 5, 58, 108
14, 429127, Note_on_c, 5, 46, 0
14, 429129, Note_on_c, 5, 69, 97
14, 429133, Note_on_c, 5, 69, 0
14, 429141, Note_on_c, 5, 64, 0
14, 429141, Note_on_c, 5, 70, 0
14, 429143, Note_on_c, 5, 64, 105
14, 429143, Note_on_c, 5, 75, 101
14, 429144, Note_on_c, 5, 72, 101
14, 429366, Note_on_c, 5, 48, 97
14, 429375, Note_on_c, 5, 41, 95
14, 429601, Note_on_c, 5, 73, 100
14, 429602, Note_on_c, 5, 61, 0
14, 429605, Note_on_c, 5, 70, 107
14, 429606, Note_on_c, 5, 58, 0
14, 429609, Note_on_c, 5, 69, 0
14, 429615, Note_on_c, 5, 64, 92
14, 429620, Note_on_c, 5, 69, 106
14, 429620, Note_on_c, 5, 58, 98
14, 429621, Note_on_c, 5, 61, 97
14, 429623, Note_on_c, 5, 64, 0
14, 429623, Note_on_c, 5, 75, 0
14, 429624, Note_on_c, 5, 72, 0
14, 429846, Note_on_c, 5, 48, 0
14, 429851, Note_on_c, 5, 42, 99
14, 429855, Note_on_c, 5, 41, 0
14, 429862, Note_on_c, 5, 49, 101
14, 430081, Note_on_c, 5, 73, 0
14, 430084, Note_on_c, 5, 58, 97
14, 430085, Note_on_c, 5, 70, 0
14, 430086, Note_on_c, 5, 68, 111
14, 430095, Note_on_c, 5, 64, 0
14, 430095, Note_on_c, 5, 61, 98
14, 430097, Note_on_c, 5, 69, 104
14, 430099, Note_on_c, 5, 64, 110
14, 430100, Note_on_c, 5, 69, 0
14, 430100, Note_on_c, 5, 58, 0
14, 430100, Note_on_c, 5, 72, 108
14, 430101, Note_on_c, 5, 61, 0
14, 430327, Note_on_c, 5, 51, 109
14, 430331, Note_on_c, 5, 42, 0
14, 430341, Note_on_c, 5, 44, 100
14, 430342, Note_on_c, 5, 49, 0
14, 430562, Note_on_c, 5, 59, 97
14, 430564, Note_on_c, 5, 58, 0
14, 430566, Note_on_c, 5, 68, 0
14, 430567, Note_on_c, 5, 51, 0
14, 430567, Note_on_c, 5, 62, 109
14, 430573, Note_on_c, 5, 66, 101
14, 430573, Note_on_c, 5, 65, 92
14, 430575, Note_on_c, 5, 61, 0
14, 430577, Note_on_c, 5, 69, 0
14, 430579, Note_on_c, 5, 64, 0
14, 430579, Note_on_c, 5, 46, 94
14, 430580, Note_on_c, 5, 72, 0
14, 430581, Note_on_c, 5, 44, 0
14, 430584, Note_on_c, 5, 70, 94
14, 430585, Note_on_c, 5, 39, 101
14, 430922, Note_on_c, 5, 59, 0
14, 430927, Note_on_c, 5, 62, 0
14, 430933, Note_on_c, 5, 66, 0
14, 430933, Note_on_c, 5, 65, 0
14, 430944, Note_on_c, 5, 70, 0
14, 431050, Note_on_c, 5, 70, 95
14, 431054, Note_on_c, 5, 66, 103
14, 431056, Note_on_c, 5, 62, 104
14, 431058, Note_on_c, 5, 59, 104
14, 431059, Note_on_c, 5, 46, 0
14, 431063, Note_on_c, 5, 65, 110
14, 431065, Note_on_c, 5, 39, 0
14, 431283, Note_on_c, 5, 48, 101
14, 431290, Note_on_c, 5, 41, 103
14, 431410, Note_on_c, 5, 70, 0
14, 431414, Note_on_c, 5, 66, 0
14, 431416, Note_on_c, 5, 62, 0
14, 431418, Note_on_c, 5, 59, 0
14, 431423, Note_on_c, 5, 65, 0
14, 431521, Note_on_c, 5, 60, 98
14, 431524, Note_on_c, 5, 68, 92
14, 431524, Note_on_c, 5, 57, 101
14, 431534, Note_on_c, 5, 72, 98
14, 431535, Note_on_c, 5, 63, 95
14, 431763, Note_on_c, 5, 48, 0
14, 431764, Note_on_c, 5, 68, 0
14, 431767, Note_on_c, 5, 70, 91
14, 431770, Note_on_c, 5, 41, 0
14, 431774, Note_on_c, 5, 72, 0
14, 431774, Note_on_c, 5, 42, 91
14, 431781, Note_on_c, 5, 73, 95
14, 431785, Note_on_c, 5, 49, 100
14, 432001, Note_on_c, 5, 60, 0
14, 432001, Note_on_c, 5, 66, 107
14, 432002, Note_on_c, 5, 58, 97
14, 432004, Note_on_c, 5, 57, 0
14, 432007, Note_on_c, 5, 70, 0
14, 432011, Note_on_c, 5, 55, 102
14, 432015, Note_on_c, 5, 63, 0
14, 432016, Note_on_c, 5, 61, 104
14, 432019, Note_on_c, 5, 75, 91
14, 432021, Note_on_c, 5, 73, 0
14, 432023, Note_on_c, 5, 72, 111
14, 432253, Note_on_c, 5, 44, 92
14, 432254, Note_on_c, 5, 42, 0
14, 432257, Note_on_c, 5, 51, 100
14, 432265, Note_on_c, 5, 49, 0
14, 432481, Note_on_c, 5, 66, 0
14, 432481, Note_on_c, 5, 39, 109
14, 432482, Note_on_c, 5, 58, 0
14, 432482, Note_on_c, 5, 46, 98
14, 432483, Note_on_c, 5, 59, 105
14, 432485, Note_on_c, 5, 66, 105
14, 432485, Note_on_c, 5, 70, 93
14, 432488, Note_on_c, 5, 62, 94
14, 432491, Note_on_c, 5, 55, 0
14, 432493, Note_on_c, 5, 44, 0
14, 432496, Note_on_c, 5, 61, 0
14, 432497, Note_on_c, 5, 51, 0
14, 432499, Note_on_c, 5, 75, 0
14, 432503, Note_on_c, 5, 72, 0
14, 432503, Note_on_c, 5, 65, 110
14, 432721, Note_on_c, 5, 39, 0
14, 432722, Note_on_c, 5, 46, 0
14, 432732, Note_on_c, 5, 41, 95
14, 432733, Note_on_c, 5, 48, 92
14, 432843, Note_on_c, 5, 59, 0
14, 432845, Note_on_c, 5, 66, 0
14, 432845, Note_on_c, 5, 70, 0
14, 432848, Note_on_c, 5, 62, 0
14, 432863, Note_on_c, 5, 65, 0
14, 432965, Note_on_c, 5, 60, 100
14, 432974, Note_on_c, 5, 63, 100
14, 432975, Note_on_c, 5, 66, 100
14, 432977, Note_on_c, 5, 57, 100
14, 432979, Note_on_c, 5, 68, 103
14, 432981, Note_on_c, 5, 70, 92
14, 433203, Note_on_c, 5, 42, 97
14, 433212, Note_on_c, 5, 41, 0
14, 433213, Note_on_c, 5, 48, 0
14, 433216, Note_on_c, 5, 49, 99
14, 433325, Note_on_c, 5, 60, 0
14, 433334, Note_on_c, 5, 63, 0
14, 433335, Note_on_c, 5, 66, 0
14, 433337, Note_on_c, 5, 57, 0
14, 433339, Note_on_c, 5, 68, 0
14, 433341, Note_on_c, 5, 70, 0
14, 433443, Note_on_c, 5, 70, 99
14, 433452, Note_on_c, 5, 55, 111
14, 433455, Note_on_c, 5, 58, 107
14, 433458, Note_on_c, 5, 61, 91
14, 433459, Note_on_c, 5, 66, 102
14, 433683, Note_on_c, 5, 42, 0
14, 433695, Note_on_c, 5, 51, 101
14, 433696, Note_on_c, 5, 49, 0
14, 433702, Note_on_c, 5, 44, 108
14, 433803, Note_on_c, 5, 70, 0
14, 433812, Note_on_c, 5, 55, 0
14, 433815, Note_on_c, 5, 58, 0
14, 433818, Note_on_c, 5, 61, 0
14, 433819, Note_on_c, 5, 66, 0
14, 433927, Note_on_c, 5, 53, 110
14, 433928, Note_on_c, 5, 72, 108
14, 433934, Note_on_c, 5, 59, 101
14, 433939, Note_on_c, 5, 64, 95
14, 433940, Note_on_c, 5, 68, 107
14, 433945, Note_on_c, 5, 56, 98
14, 434166, Note_on_c, 5, 70, 106
14, 434167, Note_on_c, 5, 46, 98
14, 434168, Note_on_c, 5, 72, 0
14, 434175, Note_on_c, 5, 51, 0
14, 434180, Note_on_c, 5, 68, 0
14, 434182, Note_on_c, 5, 44, 0
14, 434182, Note_on_c, 5, 73, 107
14, 434184, Note_on_c, 5, 53, 99
14, 434406, Note_on_c, 5, 70, 0
14, 434407, Note_on_c, 5, 53, 0
14, 434409, Note_on_c, 5, 55, 98
14, 434410, Note_on_c, 5, 63, 111
14, 434412, Note_on_c, 5, 75, 110
14, 434414, Note_on_c, 5, 59, 0
14, 434416, Note_on_c, 5, 66, 101
14, 434419, Note_on_c, 5, 64, 0
14, 434422, Note_on_c, 5, 73, 0
14, 434423, Note_on_c, 5, 72, 110
14, 434424, Note_on_c, 5, 58, 107
14, 434425, Note_on_c, 5, 56, 0
14, 434640, Note_on_c, 5, 57, 99
14, 434647, Note_on_c, 5, 46, 0
14, 434649, Note_on_c, 5, 55, 0
14, 434649, Note_on_c, 5, 61, 99
14, 434650, Note_on_c, 5, 63, 0
14, 434653, Note_on_c, 5, 64, 100
14, 434656, Note_on_c, 5, 66, 0
14, 434657, Note_on_c, 5, 53, 105
14, 434660, Note_on_c, 5, 51, 111
14, 434664, Note_on_c, 5, 53, 0
14, 434664, Note_on_c, 5, 58, 0
14, 434665, Note_on_c, 5, 44, 111
14, 434880, Note_on_c, 5, 57, 0
14, 434881, Note_on_c, 5, 46, 110
14, 434889, Note_on_c, 5, 61, 0
14, 434892, Note_on_c, 5, 75, 0
14, 434893, Note_on_c, 5, 64, 0
14, 434893, Note_on_c, 5, 39, 105
14, 434897, Note_on_c, 5, 53, 0
14, 434900, Note_on_c, 5, 51, 0
14, 434903, Note_on_c, 5, 72, 0
14, 434905, Note_on_c, 5, 44, 0
14, 435241, Note_on_c, 5, 46, 0
14, 435253, Note_on_c, 5, 39, 0
14, 435363, Note_on_c, 5, 66, 111
14, 435368, Note_on_c, 5, 70, 111
14, 435374, Note_on_c, 5, 61, 110
14, 435375, Note_on_c, 5, 55, 109
14, 435383, Note_on_c, 5, 52, 95
14, 435613, Note_on_c, 5, 41, 109
14, 435625, Note_on_c, 5, 48, 97
14, 435723, Note_on_c, 5, 66, 0
14, 435728, Note_on_c, 5, 70, 0
14, 435734, Note_on_c, 5, 61, 0
14, 435735, Note_on_c, 5, 55, 0
14, 435743, Note_on_c, 5, 52, 0
14, 435840, Note_on_c, 5, 61, 99
14, 435847, Note_on_c, 5, 52, 91
14, 435856, Note_on_c, 5, 66, 102
14, 435858, Note_on_c, 5, 70, 102
14, 435860, Note_on_c, 5, 55, 111
14, 435973, Note_on_c, 5, 41, 0
14, 435985, Note_on_c, 5, 48, 0
14, 436101, Note_on_c, 5, 42, 108
14, 436104, Note_on_c, 5, 49, 95
14, 436200, Note_on_c, 5, 61, 0
14, 436207, Note_on_c, 5, 52, 0
14, 436216, Note_on_c, 5, 66, 0
14, 436218, Note_on_c, 5, 70, 0
14, 436220, Note_on_c, 5, 55, 0
14, 436328, Note_on_c, 5, 61, 95
14, 436329, Note_on_c, 5, 55, 104
14, 436338, Note_on_c, 5, 52, 103
14, 436339, Note_on_c, 5, 66, 96
14, 436342, Note_on_c, 5, 70, 109
14, 436461, Note_on_c, 5, 42, 0
14, 436464, Note_on_c, 5, 49, 0
14, 436564, Note_on_c, 5, 51, 106
14, 436585, Note_on_c, 5, 44, 108
14, 436684, Note_on_c, 5, 51, 0
14, 436688, Note_on_c, 5, 61, 0
14, 436689, Note_on_c, 5, 55, 0
14, 436698, Note_on_c, 5, 52, 0
14, 436699, Note_on_c, 5, 66, 0
14, 436702, Note_on_c, 5, 70, 0
14, 436705, Note_on_c, 5, 44, 0
14, 436801, Note_on_c, 5, 61, 104
14, 436804, Note_on_c, 5, 55, 102
14, 436815, Note_on_c, 5, 70, 99
14, 436818, Note_on_c, 5, 66, 102
14, 436821, Note_on_c, 5, 52, 96
14, 436984, Note_on_c, 5, 41, 95
14, 436989, Note_on_c, 5, 48, 108
14, 437161, Note_on_c, 5, 61, 0
14, 437164, Note_on_c, 5, 55, 0
14, 437175, Note_on_c, 5, 70, 0
14, 437178, Note_on_c, 5, 66, 0
14, 437181, Note_on_c, 5, 52, 0
14, 437224, Note_on_c, 5, 41, 0
14, 437229, Note_on_c, 5, 48, 0
14, 437290, Note_on_c, 5, 52, 99
14, 437294, Note_on_c, 5, 70, 100
14, 437300, Note_on_c, 5, 66, 92
14, 437304, Note_on_c, 5, 61, 103
14, 437304, Note_on_c, 5, 55, 105
14, 437340, Note_on_c, 5, 49, 100
14, 437351, Note_on_c, 5, 42, 97
14, 437580, Note_on_c, 5, 49, 0
14, 437591, Note_on_c, 5, 42, 0
14, 437650, Note_on_c, 5, 52, 0
14, 437654, Note_on_c, 5, 70, 0
14, 437660, Note_on_c, 5, 66, 0
14, 437664, Note_on_c, 5, 61, 0
14, 437664, Note_on_c, 5, 55, 0
14, 437700, Note_on_c, 5, 44, 104
14, 437700, Note_on_c, 5, 51, 101
14, 437760, Note_on_c, 5, 44, 0
14, 437760, Note_on_c, 5, 51, 0
14, 437765, Note_on_c, 5, 70, 96
14, 437770, Note_on_c, 5, 61, 106
14, 437784, Note_on_c, 5, 55, 102
14, 437784, Note_on_c, 5, 52, 92
14, 437785, Note_on_c, 5, 66, 102
14, 438125, Note_on_c, 5, 70, 0
14, 438130, Note_on_c, 5, 61, 0
14, 438144, Note_on_c, 5, 55, 0
14, 438144, Note_on_c, 5, 52, 0
14, 438145, Note_on_c, 5, 66, 0
14, 438248, Note_on_c, 5, 46, 108
14, 438249, Note_on_c, 5, 39, 95
14, 438608, Note_on_c, 5, 46, 0
14, 438609, Note_on_c, 5, 39, 0
14, 438720, Note_on_c, 5, 65, 106
14, 438720, Note_on_c, 5, 71, 106
14, 438721, Note_on_c, 5, 70, 107
14, 438727, Note_on_c, 5, 68, 111
14, 438729, Note_on_c, 5, 55, 111
14, 438733, Note_on_c, 5, 58, 107
14, 438967, Note_on_c, 5, 41, 92
14, 438984, Note_on_c, 5, 48, 108
14, 439080, Note_on_c, 5, 65, 0
14, 439080, Note_on_c, 5, 71, 0
14, 439081, Note_on_c, 5, 70, 0
14, 439087, Note_on_c, 5, 68, 0
14, 439089, Note_on_c, 5, 55, 0
14, 439093, Note_on_c, 5, 58, 0
14, 439211, Note_on_c, 5, 71, 98
14, 439213, Note_on_c, 5, 70, 109
14, 439216, Note_on_c, 5, 65, 102
14, 439223, Note_on_c, 5, 58, 102
14, 439224, Note_on_c, 5, 55, 105
14, 439225, Note_on_c, 5, 68, 111
14, 439327, Note_on_c, 5, 41, 0
14, 439344, Note_on_c, 5, 48, 0
14, 439450, Note_on_c, 5, 49, 109
14, 439462, Note_on_c, 5, 42, 106
14, 439571, Note_on_c, 5, 71, 0
14, 439573, Note_on_c, 5, 70, 0
14, 439576, Note_on_c, 5, 65, 0
14, 439583, Note_on_c, 5, 58, 0
14, 439584, Note_on_c, 5, 55, 0
14, 439585, Note_on_c, 5, 68, 0
14, 439681, Note_on_c, 5, 68, 110
14, 439686, Note_on_c, 5, 55, 91
14, 439689, Note_on_c, 5, 71, 94
14, 439692, Note_on_c, 5, 70, 93
14, 439692, Note_on_c, 5, 65, 91
14, 439699, Note_on_c, 5, 58, 108
14, 439810, Note_on_c, 5, 49, 0
14, 439822, Note_on_c, 5, 42, 0
14, 439924, Note_on_c, 5, 51, 104
14, 439939, Note_on_c, 5, 44, 103
14, 440041, Note_on_c, 5, 68, 0
14, 440044, Note_on_c, 5, 51, 0
14, 440046, Note_on_c, 5, 55, 0
14, 440049, Note_on_c, 5, 71, 0
14, 440052, Note_on_c, 5, 70, 0
14, 440052, Note_on_c, 5, 65, 0
14, 440059, Note_on_c, 5, 58, 0
14, 440059, Note_on_c, 5, 44, 0
14, 440162, Note_on_c, 5, 39, 104
14, 440163, Note_on_c, 5, 70, 95
14, 440163, Note_on_c, 5, 68, 111
14, 440163, Note_on_c, 5, 59, 102
14, 440172, Note_on_c, 5, 62, 96
14, 440180, Note_on_c, 5, 46, 92
14, 440182, Note_on_c, 5, 72, 111
14, 440185, Note_on_c, 5, 67, 111
14, 440401, Note_on_c, 5, 74, 93
14, 440403, Note_on_c, 5, 68, 0
14, 440413, Note_on_c, 5, 70, 96
14, 440422, Note_on_c, 5, 72, 0
14, 440640, Note_on_c, 5, 72, 93
14, 440641, Note_on_c, 5, 74, 0
14, 440641, Note_on_c, 5, 61, 104
14, 440642, Note_on_c, 5, 39, 0
14, 440643, Note_on_c, 5, 70, 0
14, 440643, Note_on_c, 5, 59, 0
14, 440645, Note_on_c, 5, 58, 110
14, 440652, Note_on_c, 5, 62, 0
14, 440653, Note_on_c, 5, 70, 0
14, 440657, Note_on_c, 5, 69, 108
14, 440659, Note_on_c, 5, 64, 109
14, 440659, Note_on_c, 5, 75, 104
14, 440660, Note_on_c, 5, 46, 0
14, 440665, Note_on_c, 5, 67, 0
14, 440896, Note_on_c, 5, 48, 102
14, 440904, Note_on_c, 5, 41, 101
14, 441121, Note_on_c, 5, 61, 0
14, 441121, Note_on_c, 5, 60, 103
14, 441125, Note_on_c, 5, 58, 0
14, 441128, Note_on_c, 5, 63, 110
14, 441137, Note_on_c, 5, 69, 0
14, 441139, Note_on_c, 5, 64, 0
14, 441144, Note_on_c, 5, 57, 107
14, 441145, Note_on_c, 5, 68, 110
14, 441366, Note_on_c, 5, 49, 92
14, 441376, Note_on_c, 5, 48, 0
14, 441378, Note_on_c, 5, 42, 96
14, 441384, Note_on_c, 5, 41, 0
14, 441601, Note_on_c, 5, 60, 0
14, 441603, Note_on_c, 5, 58, 104
14, 441608, Note_on_c, 5, 63, 0
14, 441608, Note_on_c, 5, 69, 106
14, 441614, Note_on_c, 5, 64, 91
14, 441614, Note_on_c, 5, 61, 94
14, 441624, Note_on_c, 5, 57, 0
14, 441625, Note_on_c, 5, 68, 0
14, 441841, Note_on_c, 5, 68, 98
14, 441843, Note_on_c, 5, 58, 0
14, 441846, Note_on_c, 5, 49, 0
14, 441848, Note_on_c, 5, 69, 0
14, 441854, Note_on_c, 5, 64, 0
14, 441854, Note_on_c, 5, 61, 0
14, 441854, Note_on_c, 5, 63, 92
14, 441854, Note_on_c, 5, 57, 102
14, 441857, Note_on_c, 5, 60, 98
14, 441858, Note_on_c, 5, 42, 0
14, 441862, Note_on_c, 5, 51, 97
14, 441864, Note_on_c, 5, 44, 105
14, 442080, Note_on_c, 5, 72, 0
14, 442081, Note_on_c, 5, 68, 0
14, 442082, Note_on_c, 5, 63, 99
14, 442082, Note_on_c, 5, 71, 107
14, 442085, Note_on_c, 5, 60, 110
14, 442086, Note_on_c, 5, 66, 110
14, 442094, Note_on_c, 5, 63, 0
14, 442094, Note_on_c, 5, 57, 0
14, 442094, Note_on_c, 5, 68, 97
14, 442097, Note_on_c, 5, 60, 0
14, 442099, Note_on_c, 5, 75, 0
14, 442102, Note_on_c, 5, 51, 0
14, 442103, Note_on_c, 5, 72, 97
14, 442104, Note_on_c, 5, 44, 0
14, 442323, Note_on_c, 5, 41, 109
14, 442329, Note_on_c, 5, 48, 107
14, 442442, Note_on_c, 5, 63, 0
14, 442442, Note_on_c, 5, 71, 0
14, 442445, Note_on_c, 5, 60, 0
14, 442446, Note_on_c, 5, 66, 0
14, 442454, Note_on_c, 5, 68, 0
14, 442463, Note_on_c, 5, 72, 0
14, 442562, Note_on_c, 5, 64, 91
14, 442564, Note_on_c, 5, 58, 101
14, 442565, Note_on_c, 5, 72, 95
14, 442571, Note_on_c, 5, 61, 92
14, 442574, Note_on_c, 5, 69, 101
14, 442580, Note_on_c, 5, 68, 99
14, 442683, Note_on_c, 5, 41, 0
14, 442689, Note_on_c, 5, 48, 0
14, 442801, Note_on_c, 5, 42, 102
14, 442817, Note_on_c, 5, 49, 100
14, 442922, Note_on_c, 5, 64, 0
14, 442924, Note_on_c, 5, 58, 0
14, 442925, Note_on_c, 5, 72, 0
14, 442931, Note_on_c, 5, 61, 0
14, 442934, Note_on_c, 5, 69, 0
14, 442940, Note_on_c, 5, 68, 0
14, 443040, Note_on_c, 5, 72, 100
14, 443045, Note_on_c, 5, 57, 97
14, 443049, Note_on_c, 5, 60, 111
14, 443050, Note_on_c, 5, 63, 104
14, 443056, Note_on_c, 5, 68, 101
14, 443161, Note_on_c, 5, 42, 0
14, 443177, Note_on_c, 5, 49, 0
14, 443292, Note_on_c, 5, 44, 104
14, 443300, Note_on_c, 5, 51, 109
14, 443400, Note_on_c, 5, 72, 0
14, 443405, Note_on_c, 5, 57, 0
14, 443409, Note_on_c, 5, 60, 0
14, 443410, Note_on_c, 5, 63, 0
14, 443412, Note_on_c, 5, 44, 0
14, 443416, Note_on_c, 5, 68, 0
14, 443420, Note_on_c, 5, 51, 0
14, 443520, Note_on_c, 5, 39, 102
14, 443525, Note_on_c, 5, 46, 98
14, 443525, Note_on_c, 5, 68, 92
14, 443528, Note_on_c, 5, 59, 99
14, 443535, Note_on_c, 5, 70, 106
14, 443538, Note_on_c, 5, 62, 98
14, 443541, Note_on_c, 5, 67, 110
14, 443544, Note_on_c, 5, 72, 101
14, 443765, Note_on_c, 5, 68, 0
14, 443765, Note_on_c, 5, 70, 91
14, 443771, Note_on_c, 5, 74, 101
14, 443784, Note_on_c, 5, 72, 0
14, 444000, Note_on_c, 5, 39, 0
14, 444001, Note_on_c, 5, 69, 94
14, 444005, Note_on_c, 5, 46, 0
14, 444005, Note_on_c, 5, 70, 0
14, 444008, Note_on_c, 5, 59, 0
14, 444011, Note_on_c, 5, 74, 0
14, 444011, Note_on_c, 5, 64, 103
14, 444012, Note_on_c, 5, 75, 94
14, 444012, Note_on_c, 5, 61, 101
14, 444013, Note_on_c, 5, 58, 91
14, 444015, Note_on_c, 5, 70, 0
14, 444018, Note_on_c, 5, 62, 0
14, 444020, Note_on_c, 5, 72, 99
14, 444021, Note_on_c, 5, 67, 0
14, 444241, Note_on_c, 5, 41, 94
14, 444248, Note_on_c, 5, 48, 110
14, 444481, Note_on_c, 5, 69, 0
14, 444487, Note_on_c, 5, 63, 95
14, 444491, Note_on_c, 5, 64, 0
14, 444492, Note_on_c, 5, 75, 0
14, 444492, Note_on_c, 5, 61, 0
14, 444492, Note_on_c, 5, 72, 111
14, 444493, Note_on_c, 5, 58, 0
14, 444495, Note_on_c, 5, 60, 102
14, 444498, Note_on_c, 5, 57, 94
14, 444499, Note_on_c, 5, 68, 98
14, 444500, Note_on_c, 5, 72, 0
14, 444721, Note_on_c, 5, 41, 0
14, 444723, Note_on_c, 5, 49, 98
14, 444728, Note_on_c, 5, 48, 0
14, 444729, Note_on_c, 5, 42, 110
14, 444732, Note_on_c, 5, 72, 0
14, 444739, Note_on_c, 5, 74, 98
14, 444745, Note_on_c, 5, 70, 109
14, 444961, Note_on_c, 5, 58, 92
14, 444963, Note_on_c, 5, 75, 95
14, 444964, Note_on_c, 5, 72, 97
14, 444964, Note_on_c, 5, 69, 96
14, 444967, Note_on_c, 5, 63, 0
14, 444969, Note_on_c, 5, 61, 97
14, 444975, Note_on_c, 5, 60, 0
14, 444978, Note_on_c, 5, 57, 0
14, 444979, Note_on_c, 5, 68, 0
14, 444979, Note_on_c, 5, 74, 0
14, 444981, Note_on_c, 5, 64, 95
14, 444985, Note_on_c, 5, 70, 0
14, 445201, Note_on_c, 5, 58, 0
14, 445203, Note_on_c, 5, 49, 0
14, 445203, Note_on_c, 5, 44, 103
14, 445204, Note_on_c, 5, 69, 0
14, 445208, Note_on_c, 5, 68, 103
14, 445209, Note_on_c, 5, 42, 0
14, 445209, Note_on_c, 5, 61, 0
14, 445210, Note_on_c, 5, 57, 94
14, 445219, Note_on_c, 5, 60, 103
14, 445221, Note_on_c, 5, 64, 0
14, 445223, Note_on_c, 5, 51, 109
14, 445224, Note_on_c, 5, 63, 105
14, 445440, Note_on_c, 5, 61, 109
14, 445442, Note_on_c, 5, 66, 122
14, 445443, Note_on_c, 5, 75, 0
14, 445443, Note_on_c, 5, 44, 0
14, 445444, Note_on_c, 5, 72, 0
14, 445447, Note_on_c, 5, 44, 118
14, 445447, Note_on_c, 5, 58, 120
14, 445448, Note_on_c, 5, 68, 0
14, 445450, Note_on_c, 5, 57, 0
14, 445456, Note_on_c, 5, 55, 111
14, 445459, Note_on_c, 5, 60, 0
14, 445462, Note_on_c, 5, 70, 115
14, 445463, Note_on_c, 5, 51, 0
14, 445464, Note_on_c, 5, 63, 0
14, 445920, Note_on_c, 5, 61, 0
14, 445922, Note_on_c, 5, 66, 0
14, 445927, Note_on_c, 5, 44, 0
14, 445927, Note_on_c, 5, 58, 0
14, 445932, Note_on_c, 5, 66, 107
14, 445933, Note_on_c, 5, 49, 110
14, 445936, Note_on_c, 5, 55, 0
14, 445936, Note_on_c, 5, 56, 112
14, 445938, Note_on_c, 5, 70, 108
14, 445938, Note_on_c, 5, 53, 110
14, 445941, Note_on_c, 5, 59, 107
14, 445942, Note_on_c, 5, 70, 0
14, 445942, Note_on_c, 5, 64, 113
14, 446400, Note_on_c, 5, 72, 117
14, 446406, Note_on_c, 5, 60, 108
14, 446409, Note_on_c, 5, 45, 112
14, 446411, Note_on_c, 5, 55, 111
14, 446412, Note_on_c, 5, 66, 0
14, 446413, Note_on_c, 5, 49, 0
14, 446415, Note_on_c, 5, 49, 121
14, 446415, Note_on_c, 5, 52, 117
14, 446416, Note_on_c, 5, 56, 0
14, 446416, Note_on_c, 5, 40, 110
14, 446418, Note_on_c, 5, 70, 0
14, 446418, Note_on_c, 5, 53, 0
14, 446421, Note_on_c, 5, 59, 0
14, 446422, Note_on_c, 5, 64, 0
14, 446423, Note_on_c, 5, 68, 107
14, 446640, Note_on_c, 5, 72, 0
14, 446656, Note_on_c, 5, 70, 124
14, 446659, Note_on_c, 5, 73, 119
14, 446663, Note_on_c, 5, 68, 0
14, 446889, Note_on_c, 5, 75, 113
14, 446896, Note_on_c, 5, 70, 0
14, 446896, Note_on_c, 5, 72, 124
14, 446899, Note_on_c, 5, 73, 0
14, 447366, Note_on_c, 5, 60, 0
14, 447369, Note_on_c, 5, 45, 0
14, 447369, Note_on_c, 5, 75, 0
14, 447371, Note_on_c, 5, 55, 0
14, 447375, Note_on_c, 5, 49, 0
14, 447375, Note_on_c, 5, 52, 0
14, 447376, Note_on_c, 5, 40, 0
14, 447376, Note_on_c, 5, 72, 0
14, 448801, Note_on_c, 5, 55, 103
14, 448805, Note_on_c, 5, 67, 101
14, 448809, Note_on_c, 5, 64, 91
14, 448821, Note_on_c, 5, 61, 94
14, 448944, Note_on_c, 5, 55, 0
14, 448948, Note_on_c, 5, 67, 0
14, 448952, Note_on_c, 5, 64, 0
14, 448964, Note_on_c, 5, 61, 0
14, 455043, Note_on_c, 5, 61, 99
14, 455053, Note_on_c, 5, 64, 97
14, 455053, Note_on_c, 5, 67, 93
14, 455054, Note_on_c, 5, 55, 91
14, 455186, Note_on_c, 5, 61, 0
14, 455196, Note_on_c, 5, 64, 0
14, 455196, Note_on_c, 5, 67, 0
14, 455197, Note_on_c, 5, 55, 0
14, 455528, Note_on_c, 5, 64, 96
14, 455530, Note_on_c, 5, 55, 85
14, 455531, Note_on_c, 5, 67, 104
14, 455540, Note_on_c, 5, 61, 89
14, 455671, Note_on_c, 5, 64, 0
14, 455673, Note_on_c, 5, 55, 0
14, 455674, Note_on_c, 5, 67, 0
14, 455683, Note_on_c, 5, 61, 0
14, 458416, Note_on_c, 5, 70, 120
14, 458656, Note_on_c, 5, 70, 0
14, 458662, Note_on_c, 5, 68, 95
14, 458902, Note_on_c, 5, 68, 0
14, 459360, Note_on_c, 5, 71, 98
14, 459381, Note_on_c, 5, 59, 101
14, 459551, Note_on_c, 5, 71, 0
14, 459572, Note_on_c, 5, 59, 0
14, 460322, Note_on_c, 5, 70, 121
14, 460323, Note_on_c, 5, 58, 127
14, 460562, Note_on_c, 5, 70, 0
14, 460563, Note_on_c, 5, 58, 0
14, 460566, Note_on_c, 5, 68, 94
14, 460575, Note_on_c, 5, 56, 110
14, 460806, Note_on_c, 5, 68, 0
14, 460815, Note_on_c, 5, 56, 0
14, 461296, Note_on_c, 5, 71, 106
14, 461304, Note_on_c, 5, 59, 92
14, 461487, Note_on_c, 5, 71, 0
14, 461495, Note_on_c, 5, 59, 0
14, 461763, Note_on_c, 5, 61, 104
14, 461766, Note_on_c, 5, 67, 101
14, 461768, Note_on_c, 5, 55, 92
14, 461775, Note_on_c, 5, 64, 91
14, 461906, Note_on_c, 5, 61, 0
14, 461909, Note_on_c, 5, 67, 0
14, 461911, Note_on_c, 5, 55, 0
14, 461918, Note_on_c, 5, 64, 0
14, 466086, Note_on_c, 5, 67, 98
14, 466091, Note_on_c, 5, 61, 86
14, 466099, Note_on_c, 5, 64, 104
14, 466102, Note_on_c, 5, 55, 94
14, 466229, Note_on_c, 5, 67, 0
14, 466234, Note_on_c, 5, 61, 0
14, 466242, Note_on_c, 5, 64, 0
14, 466245, Note_on_c, 5, 55, 0
14, 466569, Note_on_c, 5, 64, 92
14, 466575, Note_on_c, 5, 61, 93
14, 466578, Note_on_c, 5, 55, 102
14, 466582, Note_on_c, 5, 67, 87
14, 466712, Note_on_c, 5, 64, 0
14, 466718, Note_on_c, 5, 61, 0
14, 466721, Note_on_c, 5, 55, 0
14, 466725, Note_on_c, 5, 67, 0
14, 468966, Note_on_c, 5, 64, 97
14, 468976, Note_on_c, 5, 67, 92
14, 468982, Note_on_c, 5, 55, 92
14, 468985, Note_on_c, 5, 61, 97
14, 469109, Note_on_c, 5, 64, 0
14, 469119, Note_on_c, 5, 67, 0
14, 469125, Note_on_c, 5, 55, 0
14, 469128, Note_on_c, 5, 61, 0
14, 493921, Note_on_c, 5, 65, 82
14, 493922, Note_on_c, 5, 57, 78
14, 493926, Note_on_c, 5, 54, 87
14, 493927, Note_on_c, 5, 69, 78
14, 494281, Note_on_c, 5, 65, 0
14, 494282, Note_on_c, 5, 57, 0
14, 494286, Note_on_c, 5, 54, 0
14, 494287, Note_on_c, 5, 69, 0
14, 494403, Note_on_c, 5, 56, 95
14, 494414, Note_on_c, 5, 67, 80
14, 494414, Note_on_c, 5, 52, 85
14, 494425, Note_on_c, 5, 64, 87
14, 494523, Note_on_c, 5, 56, 0
14, 494534, Note_on_c, 5, 67, 0
14, 494534, Note_on_c, 5, 52, 0
14, 494545, Note_on_c, 5, 64, 0
14, 494649, Note_on_c, 5, 69, 88
14, 494654, Note_on_c, 5, 54, 80
14, 494663, Note_on_c, 5, 65, 92
14, 494665, Note_on_c, 5, 57, 96
14, 494769, Note_on_c, 5, 69, 0
14, 494774, Note_on_c, 5, 54, 0
14, 494783, Note_on_c, 5, 65, 0
14, 494785, Note_on_c, 5, 57, 0
14, 494884, Note_on_c, 5, 67, 95
14, 494885, Note_on_c, 5, 64, 90
14, 494901, Note_on_c, 5, 56, 87
14, 494902, Note_on_c, 5, 52, 91
14, 495004, Note_on_c, 5, 67, 0
14, 495005, Note_on_c, 5, 64, 0
14, 495021, Note_on_c, 5, 56, 0
14, 495022, Note_on_c, 5, 52, 0
14, 495129, Note_on_c, 5, 50, 79
14, 495136, Note_on_c, 5, 62, 88
14, 495142, Note_on_c, 5, 54, 82
14, 495145, Note_on_c, 5, 65, 85
14, 495249, Note_on_c, 5, 50, 0
14, 495256, Note_on_c, 5, 62, 0
14, 495262, Note_on_c, 5, 54, 0
14, 495265, Note_on_c, 5, 65, 0
14, 495360, Note_on_c, 5, 64, 97
14, 495362, Note_on_c, 5, 49, 83
14, 495378, Note_on_c, 5, 52, 82
14, 495384, Note_on_c, 5, 60, 82
14, 495480, Note_on_c, 5, 64, 0
14, 495482, Note_on_c, 5, 49, 0
14, 495498, Note_on_c, 5, 52, 0
14, 495504, Note_on_c, 5, 60, 0
14, 495603, Note_on_c, 5, 50, 93
14, 495608, Note_on_c, 5, 54, 88
14, 495610, Note_on_c, 5, 62, 78
14, 495615, Note_on_c, 5, 65, 81
14, 495723, Note_on_c, 5, 50, 0
14, 495728, Note_on_c, 5, 54, 0
14, 495730, Note_on_c, 5, 62, 0
14, 495735, Note_on_c, 5, 65, 0
14, 495843, Note_on_c, 5, 51, 81
14, 495845, Note_on_c, 5, 62, 83
14, 495849, Note_on_c, 5, 47, 79
14, 495854, Note_on_c, 5, 59, 97
14, 495963, Note_on_c, 5, 51, 0
14, 495965, Note_on_c, 5, 62, 0
14, 495969, Note_on_c, 5, 47, 0
14, 495974, Note_on_c, 5, 59, 0
14, 496085, Note_on_c, 5, 62, 80
14, 496086, Note_on_c, 5, 59, 98
14, 496101, Note_on_c, 5, 47, 87
14, 496104, Note_on_c, 5, 51, 96
14, 496205, Note_on_c, 5, 62, 0
14, 496206, Note_on_c, 5, 59, 0
14, 496221, Note_on_c, 5, 47, 0
14, 496224, Note_on_c, 5, 51, 0
14, 496327, Note_on_c, 5, 62, 88
14, 496328, Note_on_c, 5, 47, 85
14, 496339, Note_on_c, 5, 51, 96
14, 496345, Note_on_c, 5, 59, 86
14, 496447, Note_on_c, 5, 62, 0
14, 496448, Note_on_c, 5, 47, 0
14, 496459, Note_on_c, 5, 51, 0
14, 496465, Note_on_c, 5, 59, 0
14, 496564, Note_on_c, 5, 64, 86
14, 496568, Note_on_c, 5, 49, 92
14, 496583, Note_on_c, 5, 60, 91
14, 496585, Note_on_c, 5, 52, 92
14, 496684, Note_on_c, 5, 64, 0
14, 496688, Note_on_c, 5, 49, 0
14, 496703, Note_on_c, 5, 60, 0
14, 496705, Note_on_c, 5, 52, 0
14, 496803, Note_on_c, 5, 62, 91
14, 496806, Note_on_c, 5, 50, 96
14, 496811, Note_on_c, 5, 65, 99
14, 496821, Note_on_c, 5, 54, 97
14, 496923, Note_on_c, 5, 62, 0
14, 496926, Note_on_c, 5, 50, 0
14, 496931, Note_on_c, 5, 65, 0
14, 496941, Note_on_c, 5, 54, 0
14, 497043, Note_on_c, 5, 56, 91
14, 497052, Note_on_c, 5, 67, 104
14, 497057, Note_on_c, 5, 64, 95
14, 497065, Note_on_c, 5, 52, 108
14, 497163, Note_on_c, 5, 56, 0
14, 497172, Note_on_c, 5, 67, 0
14, 497177, Note_on_c, 5, 64, 0
14, 497185, Note_on_c, 5, 52, 0
14, 500641, Note_on_c, 5, 69, 91
14, 500642, Note_on_c, 5, 65, 88
14, 500650, Note_on_c, 5, 54, 78
14, 500662, Note_on_c, 5, 57, 95
14, 501001, Note_on_c, 5, 69, 0
14, 501002, Note_on_c, 5, 65, 0
14, 501010, Note_on_c, 5, 54, 0
14, 501022, Note_on_c, 5, 57, 0
14, 501123, Note_on_c, 5, 64, 88
14, 501123, Note_on_c, 5, 56, 86
14, 501138, Note_on_c, 5, 52, 97
14, 501143, Note_on_c, 5, 67, 87
14, 501243, Note_on_c, 5, 64, 0
14, 501243, Note_on_c, 5, 56, 0
14, 501258, Note_on_c, 5, 52, 0
14, 501263, Note_on_c, 5, 67, 0
14, 501364, Note_on_c, 5, 65, 89
14, 501372, Note_on_c, 5, 54, 78
14, 501379, Note_on_c, 5, 57, 83
14, 501382, Note_on_c, 5, 69, 93
14, 501484, Note_on_c, 5, 65, 0
14, 501492, Note_on_c, 5, 54, 0
14, 501499, Note_on_c, 5, 57, 0
14, 501502, Note_on_c, 5, 69, 0
14, 501604, Note_on_c, 5, 52, 98
14, 501605, Note_on_c, 5, 64, 87
14, 501611, Note_on_c, 5, 56, 83
14, 501617, Note_on_c, 5, 67, 83
14, 501724, Note_on_c, 5, 52, 0
14, 501725, Note_on_c, 5, 64, 0
14, 501731, Note_on_c, 5, 56, 0
14, 501737, Note_on_c, 5, 67, 0
14, 501844, Note_on_c, 5, 65, 90
14, 501850, Note_on_c, 5, 54, 89
14, 501856, Note_on_c, 5, 50, 95
14, 501862, Note_on_c, 5, 62, 79
14, 501964, Note_on_c, 5, 65, 0
14, 501970, Note_on_c, 5, 54, 0
14, 501976, Note_on_c, 5, 50, 0
14, 501982, Note_on_c, 5, 62, 0
14, 502089, Note_on_c, 5, 64, 93
14, 502093, Note_on_c, 5, 49, 94
14, 502095, Note_on_c, 5, 52, 87
14, 502097, Note_on_c, 5, 60, 94
14, 502209, Note_on_c, 5, 64, 0
14, 502213, Note_on_c, 5, 49, 0
14, 502215, Note_on_c, 5, 52, 0
14, 502217, Note_on_c, 5, 60, 0
14, 502322, Note_on_c, 5, 65, 86
14, 502324, Note_on_c, 5, 50, 94
14, 502325, Note_on_c, 5, 62, 82
14, 502326, Note_on_c, 5, 54, 92
14, 502442, Note_on_c, 5, 65, 0
14, 502444, Note_on_c, 5, 50, 0
14, 502445, Note_on_c, 5, 62, 0
14, 502446, Note_on_c, 5, 54, 0
14, 502564, Note_on_c, 5, 51, 93
14, 502571, Note_on_c, 5, 59, 88
14, 502580, Note_on_c, 5, 47, 93
14, 502581, Note_on_c, 5, 62, 91
14, 502684, Note_on_c, 5, 51, 0
14, 502691, Note_on_c, 5, 59, 0
14, 502700, Note_on_c, 5, 47, 0
14, 502701, Note_on_c, 5, 62, 0
14, 502803, Note_on_c, 5, 64, 102
14, 502818, Note_on_c, 5, 52, 92
14, 502823, Note_on_c, 5, 60, 92
14, 502825, Note_on_c, 5, 49, 105
14, 502923, Note_on_c, 5, 64, 0
14, 502938, Note_on_c, 5, 52, 0
14, 502943, Note_on_c, 5, 60, 0
14, 502945, Note_on_c, 5, 49, 0
14, 503041, Note_on_c, 5, 65, 89
14, 503042, Note_on_c, 5, 50, 105
14, 503045, Note_on_c, 5, 54, 99
14, 503056, Note_on_c, 5, 62, 90
14, 503161, Note_on_c, 5, 65, 0
14, 503162, Note_on_c, 5, 50, 0
14, 503165, Note_on_c, 5, 54, 0
14, 503176, Note_on_c, 5, 62, 0
14, 503286, Note_on_c, 5, 56, 106
14, 503287, Note_on_c, 5, 52, 96
14, 503289, Note_on_c, 5, 67, 95
14, 503289, Note_on_c, 5, 64, 94
14, 503406, Note_on_c, 5, 56, 0
14, 503407, Note_on_c, 5, 52, 0
14, 503409, Note_on_c, 5, 67, 0
14, 503409, Note_on_c, 5, 64, 0
14, 508650, Note_on_c, 5, 65, 87
14, 508650, Note_on_c, 5, 60, 79
14, 508680, Note_on_c, 5, 65, 0
14, 508680, Note_on_c, 5, 60, 0
14, 508680, Note_on_c, 5, 67, 85
14, 508680, Note_on_c, 5, 63, 90
14, 508710, Note_on_c, 5, 67, 0
14, 508710, Note_on_c, 5, 63, 0
14, 508710, Note_on_c, 5, 69, 96
14, 508710, Note_on_c, 5, 65, 98
14, 508740, Note_on_c, 5, 69, 0
14, 508740, Note_on_c, 5, 65, 0
14, 508740, Note_on_c, 5, 70, 86
14, 508740, Note_on_c, 5, 67, 81
14, 508770, Note_on_c, 5, 70, 0
14, 508770, Note_on_c, 5, 67, 0
14, 508770, Note_on_c, 5, 72, 84
14, 508770, Note_on_c, 5, 69, 82
14, 508800, Note_on_c, 5, 72, 0
14, 508800, Note_on_c, 5, 69, 0
14, 508803, Note_on_c, 5, 62, 111
14, 508807, Note_on_c, 5, 47, 105
14, 508812, Note_on_c, 5, 70, 108
14, 508814, Note_on_c, 5, 53, 94
14, 508817, Note_on_c, 5, 59, 107
14, 508820, Note_on_c, 5, 74, 97
14, 509003, Note_on_c, 5, 62, 0
14, 509012, Note_on_c, 5, 70, 0
14, 509020, Note_on_c, 5, 74, 0
14, 509122, Note_on_c, 5, 51, 110
14, 509122, Note_on_c, 5, 62, 105
14, 509127, Note_on_c, 5, 47, 0
14, 509133, Note_on_c, 5, 70, 107
14, 509134, Note_on_c, 5, 53, 0
14, 509137, Note_on_c, 5, 59, 0
14, 509139, Note_on_c, 5, 74, 103
14, 509143, Note_on_c, 5, 59, 108
14, 509145, Note_on_c, 5, 45, 110
14, 509321, Note_on_c, 5, 62, 0
14, 509332, Note_on_c, 5, 70, 0
14, 509338, Note_on_c, 5, 74, 0
14, 509440, Note_on_c, 5, 72, 99
14, 509440, Note_on_c, 5, 61, 91
14, 509441, Note_on_c, 5, 51, 0
14, 509443, Note_on_c, 5, 49, 98
14, 509445, Note_on_c, 5, 57, 91
14, 509445, Note_on_c, 5, 43, 111
14, 509461, Note_on_c, 5, 69, 109
14, 509462, Note_on_c, 5, 59, 0
14, 509464, Note_on_c, 5, 45, 0
14, 509640, Note_on_c, 5, 72, 0
14, 509640, Note_on_c, 5, 61, 0
14, 509661, Note_on_c, 5, 69, 0
14, 509711, Control_c, 5, 11, 127
14, 509718, Control_c, 5, 11, 126
14, 509726, Control_c, 5, 11, 125
14, 509733, Control_c, 5, 11, 124
14, 509741, Control_c, 5, 11, 123
14, 509748, Control_c, 5, 11, 122
14, 509755, Control_c, 5, 11, 121
14, 509762, Control_c, 5, 11, 120
14, 509763, Note_on_c, 5, 49, 0
14, 509765, Note_on_c, 5, 57, 0
14, 509765, Note_on_c, 5, 43, 0
14, 509770, Control_c, 5, 11, 119
14, 509771, Note_on_c, 5, 63, 101
14, 509774, Note_on_c, 5, 67, 112
14, 509774, Note_on_c, 5, 46, 107
14, 509776, Control_c, 5, 11, 118
14, 509784, Control_c, 5, 11, 117
14, 509785, Note_on_c, 5, 55, 106
14, 509791, Control_c, 5, 11, 116
14, 509798, Control_c, 5, 11, 115
14, 509806, Control_c, 5, 11, 114
14, 509813, Control_c, 5, 11, 113
14, 509820, Control_c, 5, 11, 112
14, 509827, Control_c, 5, 11, 111
14, 509835, Control_c, 5, 11, 110
14, 509842, Control_c, 5, 11, 109
14, 509849, Control_c, 5, 11, 108
14, 509856, Control_c, 5, 11, 107
14, 509863, Control_c, 5, 11, 106
14, 509871, Control_c, 5, 11, 105
14, 509878, Control_c, 5, 11, 104
14, 509885, Control_c, 5, 11, 103
14, 509893, Control_c, 5, 11, 102
14, 509900, Control_c, 5, 11, 101
14, 509907, Control_c, 5, 11, 100
14, 509914, Control_c, 5, 11, 99
14, 509921, Control_c, 5, 11, 98
14, 509928, Control_c, 5, 11, 97
14, 509936, Control_c, 5, 11, 96
14, 509943, Control_c, 5, 11, 95
14, 509951, Control_c, 5, 11, 94
14, 509958, Control_c, 5, 11, 93
14, 509965, Control_c, 5, 11, 92
14, 509972, Control_c, 5, 11, 91
14, 509979, Control_c, 5, 11, 90
14, 509986, Control_c, 5, 11, 89
14, 509994, Control_c, 5, 11, 88
14, 510001, Control_c, 5, 11, 87
14, 510008, Control_c, 5, 11, 86
14, 510016, Control_c, 5, 11, 85
14, 510023, Control_c, 5, 11, 84
14, 510030, Control_c, 5, 11, 83
14, 510037, Control_c, 5, 11, 82
14, 510045, Control_c, 5, 11, 81
14, 510052, Control_c, 5, 11, 80
14, 510059, Control_c, 5, 11, 79
14, 510066, Control_c, 5, 11, 78
14, 510073, Control_c, 5, 11, 77
14, 510081, Control_c, 5, 11, 76
14, 510088, Control_c, 5, 11, 75
14, 510095, Control_c, 5, 11, 74
14, 510103, Control_c, 5, 11, 73
14, 510110, Control_c, 5, 11, 72
14, 510117, Control_c, 5, 11, 71
14, 510124, Control_c, 5, 11, 70
14, 510131, Control_c, 5, 11, 69
14, 510138, Control_c, 5, 11, 68
14, 510146, Control_c, 5, 11, 67
14, 510153, Control_c, 5, 11, 66
14, 510160, Control_c, 5, 11, 65
14, 510168, Control_c, 5, 11, 64
14, 510175, Control_c, 5, 11, 63
14, 510182, Control_c, 5, 11, 62
14, 510189, Control_c, 5, 11, 61
14, 510196, Control_c, 5, 11, 60
14, 510204, Control_c, 5, 11, 59
14, 510211, Control_c, 5, 11, 58
14, 510218, Control_c, 5, 11, 57
14, 510225, Control_c, 5, 11, 56
14, 510233, Control_c, 5, 11, 55
14, 510240, Control_c, 5, 11, 54
14, 510247, Control_c, 5, 11, 53
14, 510255, Control_c, 5, 11, 52
14, 510262, Control_c, 5, 11, 51
14, 510269, Control_c, 5, 11, 50
14, 510276, Control_c, 5, 11, 49
14, 510283, Control_c, 5, 11, 48
14, 510290, Control_c, 5, 11, 47
14, 510298, Control_c, 5, 11, 46
14, 510305, Control_c, 5, 11, 45
14, 510313, Control_c, 5, 11, 44
14, 510320, Control_c, 5, 11, 43
14, 510327, Control_c, 5, 11, 42
14, 510334, Control_c, 5, 11, 41
14, 510356, Control_c, 5, 11, 32
14, 510371, Control_c, 5, 11, 33
14, 510384, Control_c, 5, 11, 34
14, 510398, Control_c, 5, 11, 35
14, 510412, Control_c, 5, 11, 36
14, 510426, Control_c, 5, 11, 37
14, 510440, Control_c, 5, 11, 38
14, 510454, Control_c, 5, 11, 39
14, 510468, Control_c, 5, 11, 40
14, 510481, Control_c, 5, 11, 41
14, 510496, Control_c, 5, 11, 42
14, 510510, Control_c, 5, 11, 43
14, 510523, Control_c, 5, 11, 44
14, 510538, Control_c, 5, 11, 45
14, 510551, Control_c, 5, 11, 46
14, 510566, Control_c, 5, 11, 47
14, 510579, Control_c, 5, 11, 48
14, 510593, Control_c, 5, 11, 49
14, 510607, Control_c, 5, 11, 50
14, 510621, Control_c, 5, 11, 51
14, 510635, Control_c, 5, 11, 52
14, 510649, Control_c, 5, 11, 53
14, 510663, Control_c, 5, 11, 54
14, 510676, Control_c, 5, 11, 55
14, 510691, Control_c, 5, 11, 56
14, 510705, Control_c, 5, 11, 57
14, 510718, Control_c, 5, 11, 58
14, 510733, Control_c, 5, 11, 59
14, 510746, Control_c, 5, 11, 60
14, 510760, Control_c, 5, 11, 61
14, 510774, Control_c, 5, 11, 62
14, 510788, Control_c, 5, 11, 63
14, 510802, Control_c, 5, 11, 64
14, 510816, Control_c, 5, 11, 65
14, 510830, Control_c, 5, 11, 66
14, 510844, Control_c, 5, 11, 67
14, 510858, Control_c, 5, 11, 68
14, 510871, Control_c, 5, 11, 69
14, 510886, Control_c, 5, 11, 70
14, 510900, Control_c, 5, 11, 71
14, 510913, Control_c, 5, 11, 72
14, 510928, Control_c, 5, 11, 73
14, 510941, Control_c, 5, 11, 74
14, 510955, Control_c, 5, 11, 75
14, 510969, Control_c, 5, 11, 76
14, 510983, Control_c, 5, 11, 77
14, 510997, Control_c, 5, 11, 78
14, 511011, Control_c, 5, 11, 79
14, 511025, Control_c, 5, 11, 80
14, 511039, Control_c, 5, 11, 81
14, 511053, Control_c, 5, 11, 82
14, 511066, Control_c, 5, 11, 83
14, 511081, Control_c, 5, 11, 84
14, 511095, Control_c, 5, 11, 85
14, 511108, Control_c, 5, 11, 86
14, 511123, Control_c, 5, 11, 87
14, 511136, Control_c, 5, 11, 88
14, 511150, Control_c, 5, 11, 89
14, 511164, Control_c, 5, 11, 90
14, 511178, Control_c, 5, 11, 91
14, 511192, Control_c, 5, 11, 92
14, 511206, Control_c, 5, 11, 93
14, 511220, Control_c, 5, 11, 94
14, 511233, Control_c, 5, 11, 95
14, 511248, Control_c, 5, 11, 96
14, 511261, Control_c, 5, 11, 97
14, 511276, Control_c, 5, 11, 98
14, 511290, Control_c, 5, 11, 99
14, 511303, Control_c, 5, 11, 100
14, 511318, Control_c, 5, 11, 101
14, 511331, Control_c, 5, 11, 102
14, 511345, Control_c, 5, 11, 103
14, 511359, Control_c, 5, 11, 104
14, 511373, Control_c, 5, 11, 105
14, 511387, Control_c, 5, 11, 106
14, 511401, Control_c, 5, 11, 107
14, 511415, Control_c, 5, 11, 108
14, 511428, Control_c, 5, 11, 109
14, 511443, Control_c, 5, 11, 110
14, 511456, Control_c, 5, 11, 111
14, 511470, Control_c, 5, 11, 112
14, 511485, Control_c, 5, 11, 113
14, 511498, Control_c, 5, 11, 114
14, 511513, Control_c, 5, 11, 115
14, 511526, Control_c, 5, 11, 116
14, 511540, Control_c, 5, 11, 117
14, 511554, Control_c, 5, 11, 118
14, 511568, Control_c, 5, 11, 119
14, 511582, Control_c, 5, 11, 120
14, 511596, Control_c, 5, 11, 121
14, 511610, Control_c, 5, 11, 122
14, 511623, Control_c, 5, 11, 123
14, 511638, Control_c, 5, 11, 124
14, 511651, Control_c, 5, 11, 125
14, 511665, Control_c, 5, 11, 126
14, 511789, Note_on_c, 5, 46, 0
14, 511931, Note_on_c, 5, 63, 0
14, 511934, Note_on_c, 5, 67, 0
14, 511945, Note_on_c, 5, 55, 0
14, 513600, Control_c, 5, 11, 124
14, 513603, Control_c, 5, 11, 123
14, 513605, Note_on_c, 5, 55, 112
14, 513606, Control_c, 5, 11, 122
14, 513607, Note_on_c, 5, 46, 95
14, 513608, Note_on_c, 5, 67, 97
14, 513609, Control_c, 5, 11, 121
14, 513613, Control_c, 5, 11, 120
14, 513614, Note_on_c, 5, 63, 98
14, 513616, Control_c, 5, 11, 119
14, 513619, Control_c, 5, 11, 118
14, 513622, Control_c, 5, 11, 117
14, 513626, Control_c, 5, 11, 116
14, 513629, Control_c, 5, 11, 115
14, 513632, Control_c, 5, 11, 114
14, 513635, Control_c, 5, 11, 113
14, 513639, Control_c, 5, 11, 112
14, 513643, Control_c, 5, 11, 111
14, 513646, Control_c, 5, 11, 110
14, 513649, Control_c, 5, 11, 109
14, 513652, Control_c, 5, 11, 108
14, 513656, Control_c, 5, 11, 107
14, 513659, Control_c, 5, 11, 106
14, 513662, Control_c, 5, 11, 105
14, 513665, Control_c, 5, 11, 104
14, 513669, Control_c, 5, 11, 103
14, 513672, Control_c, 5, 11, 102
14, 513675, Control_c, 5, 11, 101
14, 513678, Control_c, 5, 11, 100
14, 513682, Control_c, 5, 11, 99
14, 513685, Control_c, 5, 11, 98
14, 513688, Control_c, 5, 11, 97
14, 513691, Control_c, 5, 11, 96
14, 513695, Control_c, 5, 11, 95
14, 513698, Control_c, 5, 11, 94
14, 513701, Control_c, 5, 11, 93
14, 513705, Control_c, 5, 11, 92
14, 513708, Control_c, 5, 11, 91
14, 513711, Control_c, 5, 11, 90
14, 513715, Control_c, 5, 11, 89
14, 513718, Control_c, 5, 11, 88
14, 513721, Control_c, 5, 11, 87
14, 513725, Control_c, 5, 11, 86
14, 513728, Control_c, 5, 11, 85
14, 513731, Control_c, 5, 11, 84
14, 513735, Control_c, 5, 11, 83
14, 513738, Control_c, 5, 11, 82
14, 513741, Control_c, 5, 11, 81
14, 513744, Control_c, 5, 11, 80
14, 513748, Control_c, 5, 11, 79
14, 513751, Control_c, 5, 11, 78
14, 513755, Control_c, 5, 11, 77
14, 513758, Control_c, 5, 11, 76
14, 513761, Control_c, 5, 11, 75
14, 513765, Control_c, 5, 11, 74
14, 513768, Control_c, 5, 11, 73
14, 513771, Control_c, 5, 11, 72
14, 513774, Control_c, 5, 11, 71
14, 513778, Control_c, 5, 11, 70
14, 513781, Control_c, 5, 11, 69
14, 513784, Control_c, 5, 11, 68
14, 513787, Control_c, 5, 11, 67
14, 513791, Control_c, 5, 11, 66
14, 513794, Control_c, 5, 11, 65
14, 513797, Control_c, 5, 11, 64
14, 513800, Control_c, 5, 11, 63
14, 513804, Control_c, 5, 11, 62
14, 513807, Control_c, 5, 11, 61
14, 513810, Control_c, 5, 11, 60
14, 513813, Control_c, 5, 11, 59
14, 513817, Control_c, 5, 11, 58
14, 513820, Control_c, 5, 11, 57
14, 513823, Control_c, 5, 11, 56
14, 513826, Control_c, 5, 11, 55
14, 513830, Control_c, 5, 11, 54
14, 513833, Control_c, 5, 11, 53
14, 513836, Control_c, 5, 11, 52
14, 513840, Control_c, 5, 11, 51
14, 513843, Control_c, 5, 11, 50
14, 513846, Control_c, 5, 11, 49
14, 513850, Control_c, 5, 11, 48
14, 513853, Control_c, 5, 11, 47
14, 513856, Control_c, 5, 11, 46
14, 513860, Control_c, 5, 11, 45
14, 513863, Control_c, 5, 11, 44
14, 513866, Control_c, 5, 11, 43
14, 513870, Control_c, 5, 11, 42
14, 513873, Control_c, 5, 11, 41
14, 513876, Control_c, 5, 11, 40
14, 513880, Control_c, 5, 11, 39
14, 513883, Control_c, 5, 11, 38
14, 513886, Control_c, 5, 11, 37
14, 513890, Control_c, 5, 11, 36
14, 513930, Control_c, 5, 11, 33
14, 513957, Control_c, 5, 11, 34
14, 513984, Control_c, 5, 11, 35
14, 514011, Control_c, 5, 11, 36
14, 514038, Control_c, 5, 11, 37
14, 514065, Control_c, 5, 11, 38
14, 514093, Control_c, 5, 11, 39
14, 514120, Control_c, 5, 11, 40
14, 514147, Control_c, 5, 11, 41
14, 514174, Control_c, 5, 11, 42
14, 514201, Control_c, 5, 11, 43
14, 514228, Control_c, 5, 11, 44
14, 514255, Control_c, 5, 11, 45
14, 514282, Control_c, 5, 11, 46
14, 514310, Control_c, 5, 11, 47
14, 514336, Control_c, 5, 11, 48
14, 514364, Control_c, 5, 11, 49
14, 514391, Control_c, 5, 11, 50
14, 514418, Control_c, 5, 11, 51
14, 514445, Control_c, 5, 11, 52
14, 514472, Control_c, 5, 11, 53
14, 514500, Control_c, 5, 11, 54
14, 514526, Control_c, 5, 11, 55
14, 514554, Control_c, 5, 11, 56
14, 514581, Control_c, 5, 11, 57
14, 514608, Control_c, 5, 11, 58
14, 514635, Control_c, 5, 11, 59
14, 514662, Control_c, 5, 11, 60
14, 514689, Control_c, 5, 11, 61
14, 514716, Control_c, 5, 11, 62
14, 514743, Control_c, 5, 11, 63
14, 514771, Control_c, 5, 11, 64
14, 514798, Control_c, 5, 11, 65
14, 514825, Control_c, 5, 11, 66
14, 514852, Control_c, 5, 11, 67
14, 514879, Control_c, 5, 11, 68
14, 514906, Control_c, 5, 11, 69
14, 514933, Control_c, 5, 11, 70
14, 514961, Control_c, 5, 11, 71
14, 514988, Control_c, 5, 11, 72
14, 515015, Control_c, 5, 11, 73
14, 515041, Control_c, 5, 11, 74
14, 515069, Control_c, 5, 11, 75
14, 515096, Control_c, 5, 11, 76
14, 515123, Control_c, 5, 11, 77
14, 515150, Control_c, 5, 11, 78
14, 515178, Control_c, 5, 11, 79
14, 515205, Control_c, 5, 11, 80
14, 515231, Control_c, 5, 11, 81
14, 515259, Control_c, 5, 11, 82
14, 515286, Control_c, 5, 11, 83
14, 515313, Control_c, 5, 11, 84
14, 515340, Control_c, 5, 11, 85
14, 515368, Control_c, 5, 11, 86
14, 515394, Control_c, 5, 11, 87
14, 515421, Control_c, 5, 11, 88
14, 515448, Control_c, 5, 11, 89
14, 515476, Control_c, 5, 11, 90
14, 515503, Control_c, 5, 11, 91
14, 515530, Control_c, 5, 11, 92
14, 515557, Control_c, 5, 11, 93
14, 515585, Control_c, 5, 11, 94
14, 515611, Control_c, 5, 11, 95
14, 515638, Control_c, 5, 11, 96
14, 515666, Control_c, 5, 11, 97
14, 515693, Control_c, 5, 11, 98
14, 515720, Control_c, 5, 11, 99
14, 515747, Control_c, 5, 11, 100
14, 515775, Control_c, 5, 11, 101
14, 515801, Control_c, 5, 11, 102
14, 515828, Control_c, 5, 11, 103
14, 515855, Control_c, 5, 11, 104
14, 515883, Control_c, 5, 11, 105
14, 515910, Control_c, 5, 11, 106
14, 515937, Control_c, 5, 11, 107
14, 515964, Control_c, 5, 11, 108
14, 515991, Control_c, 5, 11, 109
14, 516018, Control_c, 5, 11, 110
14, 516045, Control_c, 5, 11, 111
14, 516073, Control_c, 5, 11, 112
14, 516100, Control_c, 5, 11, 113
14, 516127, Control_c, 5, 11, 114
14, 516154, Control_c, 5, 11, 115
14, 516181, Control_c, 5, 11, 116
14, 516208, Control_c, 5, 11, 117
14, 516235, Control_c, 5, 11, 118
14, 516262, Control_c, 5, 11, 119
14, 516290, Control_c, 5, 11, 120
14, 516316, Control_c, 5, 11, 121
14, 516344, Control_c, 5, 11, 122
14, 516371, Control_c, 5, 11, 123
14, 516398, Control_c, 5, 11, 124
14, 516425, Control_c, 5, 11, 125
14, 516452, Control_c, 5, 11, 126
14, 516582, Note_on_c, 5, 46, 0
14, 516725, Note_on_c, 5, 55, 0
14, 516728, Note_on_c, 5, 67, 0
14, 516734, Note_on_c, 5, 63, 0
14, 518892, Note_on_c, 5, 69, 97
14, 518902, Note_on_c, 5, 57, 93
14, 518904, Note_on_c, 5, 65, 82
14, 518904, Note_on_c, 5, 54, 80
14, 519252, Note_on_c, 5, 69, 0
14, 519262, Note_on_c, 5, 57, 0
14, 519264, Note_on_c, 5, 65, 0
14, 519264, Note_on_c, 5, 54, 0
14, 519364, Note_on_c, 5, 52, 85
14, 519369, Note_on_c, 5, 56, 81
14, 519380, Note_on_c, 5, 67, 93
14, 519380, Note_on_c, 5, 64, 82
14, 519484, Note_on_c, 5, 52, 0
14, 519489, Note_on_c, 5, 56, 0
14, 519500, Note_on_c, 5, 67, 0
14, 519500, Note_on_c, 5, 64, 0
14, 519601, Note_on_c, 5, 65, 86
14, 519606, Note_on_c, 5, 69, 98
14, 519611, Note_on_c, 5, 57, 81
14, 519625, Note_on_c, 5, 54, 79
14, 519721, Note_on_c, 5, 65, 0
14, 519726, Note_on_c, 5, 69, 0
14, 519731, Note_on_c, 5, 57, 0
14, 519745, Note_on_c, 5, 54, 0
14, 519842, Note_on_c, 5, 52, 93
14, 519861, Note_on_c, 5, 67, 87
14, 519863, Note_on_c, 5, 64, 83
14, 519863, Note_on_c, 5, 56, 79
14, 519962, Note_on_c, 5, 52, 0
14, 519981, Note_on_c, 5, 67, 0
14, 519983, Note_on_c, 5, 64, 0
14, 519983, Note_on_c, 5, 56, 0
14, 520084, Note_on_c, 5, 54, 97
14, 520084, Note_on_c, 5, 62, 81
14, 520091, Note_on_c, 5, 50, 84
14, 520099, Note_on_c, 5, 65, 79
14, 520204, Note_on_c, 5, 54, 0
14, 520204, Note_on_c, 5, 62, 0
14, 520211, Note_on_c, 5, 50, 0
14, 520219, Note_on_c, 5, 65, 0
14, 520334, Note_on_c, 5, 52, 95
14, 520335, Note_on_c, 5, 60, 89
14, 520343, Note_on_c, 5, 49, 78
14, 520344, Note_on_c, 5, 64, 84
14, 520454, Note_on_c, 5, 52, 0
14, 520455, Note_on_c, 5, 60, 0
14, 520463, Note_on_c, 5, 49, 0
14, 520464, Note_on_c, 5, 64, 0
14, 520563, Note_on_c, 5, 54, 90
14, 520571, Note_on_c, 5, 62, 94
14, 520581, Note_on_c, 5, 65, 79
14, 520581, Note_on_c, 5, 50, 85
14, 520683, Note_on_c, 5, 54, 0
14, 520691, Note_on_c, 5, 62, 0
14, 520701, Note_on_c, 5, 65, 0
14, 520701, Note_on_c, 5, 50, 0
14, 520807, Note_on_c, 5, 62, 80
14, 520808, Note_on_c, 5, 59, 80
14, 520808, Note_on_c, 5, 47, 96
14, 520823, Note_on_c, 5, 51, 87
14, 520927, Note_on_c, 5, 62, 0
14, 520928, Note_on_c, 5, 59, 0
14, 520928, Note_on_c, 5, 47, 0
14, 520943, Note_on_c, 5, 51, 0
14, 521040, Note_on_c, 5, 60, 79
14, 521046, Note_on_c, 5, 64, 91
14, 521062, Note_on_c, 5, 52, 83
14, 521064, Note_on_c, 5, 49, 94
14, 521160, Note_on_c, 5, 60, 0
14, 521166, Note_on_c, 5, 64, 0
14, 521182, Note_on_c, 5, 52, 0
14, 521184, Note_on_c, 5, 49, 0
14, 521282, Note_on_c, 5, 62, 98
14, 521284, Note_on_c, 5, 54, 82
14, 521286, Note_on_c, 5, 65, 89
14, 521294, Note_on_c, 5, 50, 92
14, 521402, Note_on_c, 5, 62, 0
14, 521404, Note_on_c, 5, 54, 0
14, 521406, Note_on_c, 5, 65, 0
14, 521414, Note_on_c, 5, 50, 0
14, 521521, Note_on_c, 5, 52, 89
14, 521524, Note_on_c, 5, 64, 80
14, 521527, Note_on_c, 5, 67, 87
14, 521537, Note_on_c, 5, 56, 88
14, 521641, Note_on_c, 5, 52, 0
14, 521644, Note_on_c, 5, 64, 0
14, 521647, Note_on_c, 5, 67, 0
14, 521657, Note_on_c, 5, 56, 0
14, 521769, Note_on_c, 5, 69, 81
14, 521778, Note_on_c, 5, 57, 78
14, 521780, Note_on_c, 5, 54, 93
14, 521785, Note_on_c, 5, 65, 92
14, 521889, Note_on_c, 5, 69, 0
14, 521898, Note_on_c, 5, 57, 0
14, 521900, Note_on_c, 5, 54, 0
14, 521905, Note_on_c, 5, 65, 0
14, 538093, Note_on_c, 5, 71, 66
14, 538102, Note_on_c, 5, 67, 55
14, 539053, Note_on_c, 5, 71, 0
14, 539053, Note_on_c, 5, 72, 53
14, 539055, Note_on_c, 5, 66, 66
14, 539062, Note_on_c, 5, 67, 0
14, 540006, Note_on_c, 5, 71, 72
14, 540013, Note_on_c, 5, 72, 0
14, 540015, Note_on_c, 5, 66, 0
14, 540021, Note_on_c, 5, 65, 53
14, 540101, Note_on_c, 5, 71, 0
14, 540116, Note_on_c, 5, 65, 0
14, 540481, Note_on_c, 5, 69, 96
14, 540489, Note_on_c, 5, 65, 92
14, 540494, Note_on_c, 5, 54, 92
14, 540497, Note_on_c, 5, 57, 81
14, 540841, Note_on_c, 5, 69, 0
14, 540849, Note_on_c, 5, 65, 0
14, 540854, Note_on_c, 5, 54, 0
14, 540857, Note_on_c, 5, 57, 0
14, 540963, Note_on_c, 5, 67, 92
14, 540964, Note_on_c, 5, 64, 83
14, 540965, Note_on_c, 5, 52, 88
14, 540974, Note_on_c, 5, 56, 86
14, 541083, Note_on_c, 5, 67, 0
14, 541084, Note_on_c, 5, 64, 0
14, 541085, Note_on_c, 5, 52, 0
14, 541094, Note_on_c, 5, 56, 0
14, 541200, Note_on_c, 5, 54, 87
14, 541218, Note_on_c, 5, 57, 81
14, 541221, Note_on_c, 5, 69, 79
14, 541223, Note_on_c, 5, 65, 89
14, 541320, Note_on_c, 5, 54, 0
14, 541338, Note_on_c, 5, 57, 0
14, 541341, Note_on_c, 5, 69, 0
14, 541343, Note_on_c, 5, 65, 0
14, 541444, Note_on_c, 5, 56, 82
14, 541450, Note_on_c, 5, 52, 87
14, 541451, Note_on_c, 5, 67, 94
14, 541452, Note_on_c, 5, 64, 88
14, 541564, Note_on_c, 5, 56, 0
14, 541570, Note_on_c, 5, 52, 0
14, 541571, Note_on_c, 5, 67, 0
14, 541572, Note_on_c, 5, 64, 0
14, 541688, Note_on_c, 5, 62, 83
14, 541697, Note_on_c, 5, 65, 91
14, 541702, Note_on_c, 5, 54, 78
14, 541705, Note_on_c, 5, 50, 85
14, 541808, Note_on_c, 5, 62, 0
14, 541817, Note_on_c, 5, 65, 0
14, 541822, Note_on_c, 5, 54, 0
14, 541825, Note_on_c, 5, 50, 0
14, 541926, Note_on_c, 5, 60, 87
14, 541931, Note_on_c, 5, 52, 93
14, 541935, Note_on_c, 5, 49, 93
14, 541941, Note_on_c, 5, 64, 87
14, 542046, Note_on_c, 5, 60, 0
14, 542051, Note_on_c, 5, 52, 0
14, 542055, Note_on_c, 5, 49, 0
14, 542061, Note_on_c, 5, 64, 0
14, 542160, Note_on_c, 5, 65, 85
14, 542170, Note_on_c, 5, 54, 93
14, 542179, Note_on_c, 5, 62, 89
14, 542185, Note_on_c, 5, 50, 87
14, 542280, Note_on_c, 5, 65, 0
14, 542290, Note_on_c, 5, 54, 0
14, 542299, Note_on_c, 5, 62, 0
14, 542305, Note_on_c, 5, 50, 0
14, 542403, Note_on_c, 5, 62, 85
14, 542406, Note_on_c, 5, 59, 88
14, 542407, Note_on_c, 5, 51, 90
14, 542417, Note_on_c, 5, 47, 89
14, 542523, Note_on_c, 5, 62, 0
14, 542526, Note_on_c, 5, 59, 0
14, 542527, Note_on_c, 5, 51, 0
14, 542537, Note_on_c, 5, 47, 0
14, 542657, Note_on_c, 5, 57, 87
14, 542663, Note_on_c, 5, 69, 79
14, 542664, Note_on_c, 5, 54, 85
14, 542664, Note_on_c, 5, 65, 92
14, 542777, Note_on_c, 5, 57, 0
14, 542783, Note_on_c, 5, 69, 0
14, 542784, Note_on_c, 5, 54, 0
14, 542784, Note_on_c, 5, 65, 0
14, 542887, Note_on_c, 5, 64, 80
14, 542889, Note_on_c, 5, 52, 89
14, 542892, Note_on_c, 5, 67, 81
14, 542894, Note_on_c, 5, 56, 81
14, 543007, Note_on_c, 5, 64, 0
14, 543009, Note_on_c, 5, 52, 0
14, 543012, Note_on_c, 5, 67, 0
14, 543014, Note_on_c, 5, 56, 0
14, 543134, Note_on_c, 5, 69, 88
14, 543142, Note_on_c, 5, 54, 82
14, 543144, Note_on_c, 5, 57, 93
14, 543145, Note_on_c, 5, 65, 93
14, 543254, Note_on_c, 5, 69, 0
14, 543262, Note_on_c, 5, 54, 0
14, 543264, Note_on_c, 5, 57, 0
14, 543265, Note_on_c, 5, 65, 0
14, 543364, Note_on_c, 5, 64, 90
14, 543379, Note_on_c, 5, 67, 82
14, 543380, Note_on_c, 5, 56, 80
14, 543385, Note_on_c, 5, 52, 89
14, 543484, Note_on_c, 5, 64, 0
14, 543499, Note_on_c, 5, 67, 0
14, 543500, Note_on_c, 5, 56, 0
14, 543505, Note_on_c, 5, 52, 0
14, 543600, Note_on_c, 5, 62, 96
14, 543608, Note_on_c, 5, 65, 95
14, 543613, Note_on_c, 5, 50, 86
14, 543621, Note_on_c, 5, 54, 82
14, 543720, Note_on_c, 5, 62, 0
14, 543728, Note_on_c, 5, 65, 0
14, 543733, Note_on_c, 5, 50, 0
14, 543741, Note_on_c, 5, 54, 0
14, 543842, Note_on_c, 5, 49, 97
14, 543846, Note_on_c, 5, 64, 91
14, 543846, Note_on_c, 5, 60, 91
14, 543862, Note_on_c, 5, 52, 80
14, 543962, Note_on_c, 5, 49, 0
14, 543966, Note_on_c, 5, 64, 0
14, 543966, Note_on_c, 5, 60, 0
14, 543982, Note_on_c, 5, 52, 0
14, 544087, Note_on_c, 5, 62, 82
14, 544089, Note_on_c, 5, 65, 87
14, 544093, Note_on_c, 5, 54, 98
14, 544098, Note_on_c, 5, 50, 85
14, 544207, Note_on_c, 5, 62, 0
14, 544209, Note_on_c, 5, 65, 0
14, 544213, Note_on_c, 5, 54, 0
14, 544218, Note_on_c, 5, 50, 0
14, 544323, Note_on_c, 5, 51, 78
14, 544324, Note_on_c, 5, 47, 98
14, 544332, Note_on_c, 5, 59, 80
14, 544336, Note_on_c, 5, 62, 89
14, 544443, Note_on_c, 5, 51, 0
14, 544444, Note_on_c, 5, 47, 0
14, 544452, Note_on_c, 5, 59, 0
14, 544456, Note_on_c, 5, 62, 0
14, 544561, Note_on_c, 5, 60, 90
14, 544563, Note_on_c, 5, 64, 90
14, 544563, Note_on_c, 5, 49, 90
14, 544568, Note_on_c, 5, 52, 83
14, 544681, Note_on_c, 5, 60, 0
14, 544683, Note_on_c, 5, 64, 0
14, 544683, Note_on_c, 5, 49, 0
14, 544688, Note_on_c, 5, 52, 0
14, 544804, Note_on_c, 5, 54, 88
14, 544807, Note_on_c, 5, 65, 89
14, 544814, Note_on_c, 5, 51, 89
14, 544823, Note_on_c, 5, 62, 86
14, 544924, Note_on_c, 5, 54, 0
14, 544927, Note_on_c, 5, 65, 0
14, 544934, Note_on_c, 5, 51, 0
14, 544943, Note_on_c, 5, 62, 0
14, 545042, Note_on_c, 5, 67, 83
14, 545042, Note_on_c, 5, 56, 79
14, 545059, Note_on_c, 5, 52, 79
14, 545064, Note_on_c, 5, 64, 91
14, 545162, Note_on_c, 5, 67, 0
14, 545162, Note_on_c, 5, 56, 0
14, 545179, Note_on_c, 5, 52, 0
14, 545184, Note_on_c, 5, 64, 0
14, 545280, Note_on_c, 5, 57, 96
14, 545283, Note_on_c, 5, 65, 80
14, 545285, Note_on_c, 5, 69, 79
14, 545297, Note_on_c, 5, 54, 80
14, 545400, Note_on_c, 5, 57, 0
14, 545403, Note_on_c, 5, 65, 0
14, 545405, Note_on_c, 5, 69, 0
14, 545417, Note_on_c, 5, 54, 0
14, 561600, Note_on_c, 5, 55, 89
14, 561601, Note_on_c, 5, 67, 104
14, 561602, Note_on_c, 5, 58, 87
14, 561611, Note_on_c, 5, 63, 102
14, 561720, Note_on_c, 5, 55, 0
14, 561721, Note_on_c, 5, 67, 0
14, 561722, Note_on_c, 5, 58, 0
14, 561731, Note_on_c, 5, 63, 0
14, 562105, Note_on_c, 5, 51, 70
14, 562225, Note_on_c, 5, 51, 0
14, 562578, Note_on_c, 5, 55, 67
14, 562580, Note_on_c, 5, 51, 73
14, 562698, Note_on_c, 5, 55, 0
14, 562700, Note_on_c, 5, 51, 0
14, 563046, Note_on_c, 5, 51, 73
14, 563054, Note_on_c, 5, 55, 71
14, 563054, Note_on_c, 5, 58, 70
14, 563166, Note_on_c, 5, 51, 0
14, 563174, Note_on_c, 5, 55, 0
14, 563174, Note_on_c, 5, 58, 0
14, 563520, Note_on_c, 5, 63, 65
14, 563531, Note_on_c, 5, 55, 85
14, 563537, Note_on_c, 5, 58, 67
14, 563540, Note_on_c, 5, 51, 70
14, 563640, Note_on_c, 5, 63, 0
14, 563651, Note_on_c, 5, 55, 0
14, 563657, Note_on_c, 5, 58, 0
14, 563660, Note_on_c, 5, 51, 0
14, 564002, Note_on_c, 5, 63, 82
14, 564007, Note_on_c, 5, 58, 75
14, 564018, Note_on_c, 5, 51, 81
14, 564019, Note_on_c, 5, 55, 79
14, 564122, Note_on_c, 5, 63, 0
14, 564127, Note_on_c, 5, 58, 0
14, 564138, Note_on_c, 5, 51, 0
14, 564139, Note_on_c, 5, 55, 0
14, 564483, Note_on_c, 5, 55, 92
14, 564486, Note_on_c, 5, 51, 92
14, 564499, Note_on_c, 5, 58, 92
14, 564503, Note_on_c, 5, 63, 82
14, 564603, Note_on_c, 5, 55, 0
14, 564606, Note_on_c, 5, 51, 0
14, 564619, Note_on_c, 5, 58, 0
14, 564623, Note_on_c, 5, 63, 0
14, 564960, Note_on_c, 5, 55, 79
14, 564963, Note_on_c, 5, 58, 94
14, 564972, Note_on_c, 5, 63, 80
14, 564974, Note_on_c, 5, 51, 79
14, 565080, Note_on_c, 5, 55, 0
14, 565083, Note_on_c, 5, 58, 0
14, 565092, Note_on_c, 5, 63, 0
14, 565094, Note_on_c, 5, 51, 0
14, 565444, Note_on_c, 5, 58, 87
14, 565446, Note_on_c, 5, 63, 104
14, 565454, Note_on_c, 5, 67, 92
14, 565455, Note_on_c, 5, 51, 86
14, 565458, Note_on_c, 5, 55, 105
14, 565459, Note_on_c, 5, 70, 88
14, 565564, Note_on_c, 5, 58, 0
14, 565566, Note_on_c, 5, 63, 0
14, 565574, Note_on_c, 5, 67, 0
14, 565575, Note_on_c, 5, 51, 0
14, 565578, Note_on_c, 5, 55, 0
14, 565819, Note_on_c, 5, 70, 0
14, 565944, Note_on_c, 5, 69, 89
14, 566064, Note_on_c, 5, 69, 0
14, 566182, Note_on_c, 5, 67, 100
14, 566302, Note_on_c, 5, 67, 0
14, 566411, Note_on_c, 5, 69, 97
14, 566424, Note_on_c, 5, 65, 87
14, 566531, Note_on_c, 5, 69, 0
14, 566544, Note_on_c, 5, 65, 0
14, 566644, Note_on_c, 5, 63, 86
14, 566662, Note_on_c, 5, 67, 89
14, 566764, Note_on_c, 5, 63, 0
14, 566782, Note_on_c, 5, 67, 0
14, 566881, Note_on_c, 5, 65, 93
14, 566894, Note_on_c, 5, 69, 86
14, 566895, Note_on_c, 5, 62, 92
14, 567001, Note_on_c, 5, 65, 0
14, 567014, Note_on_c, 5, 69, 0
14, 567015, Note_on_c, 5, 62, 0
14, 567131, Note_on_c, 5, 57, 87
14, 567134, Note_on_c, 5, 65, 97
14, 567143, Note_on_c, 5, 62, 91
14, 567251, Note_on_c, 5, 57, 0
14, 567254, Note_on_c, 5, 65, 0
14, 567263, Note_on_c, 5, 62, 0
14, 567366, Note_on_c, 5, 55, 78
14, 567370, Note_on_c, 5, 58, 90
14, 567379, Note_on_c, 5, 63, 78
14, 567486, Note_on_c, 5, 55, 0
14, 567490, Note_on_c, 5, 58, 0
14, 567499, Note_on_c, 5, 63, 0
14, 567612, Note_on_c, 5, 58, 84
14, 567616, Note_on_c, 5, 63, 84
14, 567618, Note_on_c, 5, 67, 79
14, 567732, Note_on_c, 5, 58, 0
14, 567736, Note_on_c, 5, 63, 0
14, 567738, Note_on_c, 5, 67, 0
14, 567848, Note_on_c, 5, 62, 94
14, 567852, Note_on_c, 5, 53, 82
14, 567864, Note_on_c, 5, 57, 83
14, 567968, Note_on_c, 5, 62, 0
14, 567972, Note_on_c, 5, 53, 0
14, 567984, Note_on_c, 5, 57, 0
14, 568087, Note_on_c, 5, 58, 92
14, 568087, Note_on_c, 5, 63, 78
14, 568102, Note_on_c, 5, 55, 97
14, 568207, Note_on_c, 5, 58, 0
14, 568207, Note_on_c, 5, 63, 0
14, 568222, Note_on_c, 5, 55, 0
14, 568325, Note_on_c, 5, 53, 91
14, 568336, Note_on_c, 5, 62, 79
14, 568336, Note_on_c, 5, 57, 79
14, 568445, Note_on_c, 5, 53, 0
14, 568456, Note_on_c, 5, 62, 0
14, 568456, Note_on_c, 5, 57, 0
14, 568573, Note_on_c, 5, 65, 94
14, 568574, Note_on_c, 5, 55, 96
14, 568577, Note_on_c, 5, 62, 79
14, 568693, Note_on_c, 5, 65, 0
14, 568694, Note_on_c, 5, 55, 0
14, 568697, Note_on_c, 5, 62, 0
14, 568805, Note_on_c, 5, 58, 84
14, 568810, Note_on_c, 5, 63, 82
14, 568811, Note_on_c, 5, 67, 83
14, 568822, Note_on_c, 5, 70, 96
14, 568925, Note_on_c, 5, 58, 0
14, 568930, Note_on_c, 5, 63, 0
14, 568931, Note_on_c, 5, 67, 0
14, 569182, Note_on_c, 5, 70, 0
14, 569299, Note_on_c, 5, 65, 98
14, 569303, Note_on_c, 5, 69, 97
14, 569419, Note_on_c, 5, 65, 0
14, 569423, Note_on_c, 5, 69, 0
14, 569522, Note_on_c, 5, 67, 79
14, 569532, Note_on_c, 5, 63, 93
14, 569642, Note_on_c, 5, 67, 0
14, 569652, Note_on_c, 5, 63, 0
14, 569780, Note_on_c, 5, 65, 84
14, 569780, Note_on_c, 5, 69, 82
14, 569900, Note_on_c, 5, 65, 0
14, 569900, Note_on_c, 5, 69, 0
14, 570001, Note_on_c, 5, 63, 86
14, 570015, Note_on_c, 5, 67, 82
14, 570121, Note_on_c, 5, 63, 0
14, 570135, Note_on_c, 5, 67, 0
14, 570246, Note_on_c, 5, 69, 91
14, 570252, Note_on_c, 5, 65, 94
14, 570263, Note_on_c, 5, 62, 87
14, 570366, Note_on_c, 5, 69, 0
14, 570372, Note_on_c, 5, 65, 0
14, 570383, Note_on_c, 5, 62, 0
14, 570480, Note_on_c, 5, 57, 86
14, 570488, Note_on_c, 5, 62, 98
14, 570499, Note_on_c, 5, 65, 86
14, 570600, Note_on_c, 5, 57, 0
14, 570608, Note_on_c, 5, 62, 0
14, 570619, Note_on_c, 5, 65, 0
14, 570727, Note_on_c, 5, 68, 87
14, 570728, Note_on_c, 5, 60, 92
14, 570737, Note_on_c, 5, 72, 88
14, 570740, Note_on_c, 5, 63, 92
14, 570870, Note_on_c, 5, 68, 0
14, 570871, Note_on_c, 5, 60, 0
14, 570880, Note_on_c, 5, 72, 0
14, 570883, Note_on_c, 5, 63, 0
14, 571205, Note_on_c, 5, 69, 85
14, 571210, Note_on_c, 5, 57, 100
14, 571217, Note_on_c, 5, 62, 94
14, 571222, Note_on_c, 5, 65, 94
14, 571348, Note_on_c, 5, 69, 0
14, 571353, Note_on_c, 5, 57, 0
14, 571360, Note_on_c, 5, 62, 0
14, 571365, Note_on_c, 5, 65, 0
14, 573120, Note_on_c, 5, 69, 78
14, 573121, Note_on_c, 5, 62, 82
14, 573126, Note_on_c, 5, 57, 94
14, 573144, Note_on_c, 5, 65, 88
14, 573263, Note_on_c, 5, 69, 0
14, 573264, Note_on_c, 5, 62, 0
14, 573269, Note_on_c, 5, 57, 0
14, 573287, Note_on_c, 5, 65, 0
14, 573610, Note_on_c, 5, 63, 98
14, 573617, Note_on_c, 5, 60, 81
14, 573622, Note_on_c, 5, 72, 84
14, 573625, Note_on_c, 5, 68, 84
14, 573681, Note_on_c, 5, 63, 0
14, 573688, Note_on_c, 5, 60, 0
14, 573693, Note_on_c, 5, 72, 0
14, 573696, Note_on_c, 5, 68, 0
14, 573844, Note_on_c, 5, 69, 91
14, 573854, Note_on_c, 5, 74, 92
14, 573857, Note_on_c, 5, 62, 79
14, 573861, Note_on_c, 5, 65, 87
14, 573915, Note_on_c, 5, 69, 0
14, 573925, Note_on_c, 5, 74, 0
14, 573928, Note_on_c, 5, 62, 0
14, 573932, Note_on_c, 5, 65, 0
14, 574082, Note_on_c, 5, 57, 97
14, 574094, Note_on_c, 5, 69, 90
14, 574095, Note_on_c, 5, 65, 95
14, 574102, Note_on_c, 5, 62, 84
14, 574153, Note_on_c, 5, 57, 0
14, 574165, Note_on_c, 5, 69, 0
14, 574166, Note_on_c, 5, 65, 0
14, 574173, Note_on_c, 5, 62, 0
14, 574321, Note_on_c, 5, 63, 92
14, 574322, Note_on_c, 5, 70, 83
14, 574339, Note_on_c, 5, 58, 81
14, 574345, Note_on_c, 5, 67, 95
14, 574392, Note_on_c, 5, 63, 0
14, 574393, Note_on_c, 5, 70, 0
14, 574410, Note_on_c, 5, 58, 0
14, 574416, Note_on_c, 5, 67, 0
14, 577921, Note_on_c, 5, 62, 93
14, 577936, Note_on_c, 5, 69, 80
14, 577937, Note_on_c, 5, 57, 80
14, 577940, Note_on_c, 5, 65, 91
14, 578064, Note_on_c, 5, 62, 0
14, 578079, Note_on_c, 5, 69, 0
14, 578080, Note_on_c, 5, 57, 0
14, 578083, Note_on_c, 5, 65, 0
14, 578403, Note_on_c, 5, 60, 79
14, 578403, Note_on_c, 5, 63, 94
14, 578404, Note_on_c, 5, 72, 80
14, 578416, Note_on_c, 5, 68, 92
14, 578474, Note_on_c, 5, 60, 0
14, 578474, Note_on_c, 5, 63, 0
14, 578475, Note_on_c, 5, 72, 0
14, 578487, Note_on_c, 5, 68, 0
14, 578640, Note_on_c, 5, 74, 78
14, 578655, Note_on_c, 5, 65, 79
14, 578656, Note_on_c, 5, 69, 95
14, 578659, Note_on_c, 5, 62, 81
14, 578711, Note_on_c, 5, 74, 0
14, 578726, Note_on_c, 5, 65, 0
14, 578727, Note_on_c, 5, 69, 0
14, 578730, Note_on_c, 5, 62, 0
14, 578889, Note_on_c, 5, 57, 94
14, 578889, Note_on_c, 5, 62, 84
14, 578895, Note_on_c, 5, 65, 87
14, 578895, Note_on_c, 5, 69, 83
14, 578960, Note_on_c, 5, 57, 0
14, 578960, Note_on_c, 5, 62, 0
14, 578966, Note_on_c, 5, 65, 0
14, 578966, Note_on_c, 5, 69, 0
14, 579126, Note_on_c, 5, 58, 92
14, 579132, Note_on_c, 5, 70, 96
14, 579134, Note_on_c, 5, 67, 82
14, 579141, Note_on_c, 5, 63, 89
14, 579197, Note_on_c, 5, 58, 0
14, 579203, Note_on_c, 5, 70, 0
14, 579205, Note_on_c, 5, 67, 0
14, 579212, Note_on_c, 5, 63, 0
14, 580801, Note_on_c, 5, 65, 91
14, 580812, Note_on_c, 5, 69, 97
14, 580820, Note_on_c, 5, 62, 98
14, 580824, Note_on_c, 5, 57, 82
14, 580944, Note_on_c, 5, 65, 0
14, 580955, Note_on_c, 5, 69, 0
14, 580963, Note_on_c, 5, 62, 0
14, 580967, Note_on_c, 5, 57, 0
14, 581281, Note_on_c, 5, 72, 93
14, 581282, Note_on_c, 5, 68, 80
14, 581286, Note_on_c, 5, 63, 88
14, 581295, Note_on_c, 5, 60, 91
14, 581352, Note_on_c, 5, 72, 0
14, 581353, Note_on_c, 5, 68, 0
14, 581357, Note_on_c, 5, 63, 0
14, 581366, Note_on_c, 5, 60, 0
14, 581521, Note_on_c, 5, 62, 87
14, 581525, Note_on_c, 5, 69, 93
14, 581537, Note_on_c, 5, 74, 92
14, 581542, Note_on_c, 5, 65, 85
14, 581592, Note_on_c, 5, 62, 0
14, 581596, Note_on_c, 5, 69, 0
14, 581608, Note_on_c, 5, 74, 0
14, 581613, Note_on_c, 5, 65, 0
14, 581768, Note_on_c, 5, 57, 87
14, 581769, Note_on_c, 5, 65, 82
14, 581770, Note_on_c, 5, 69, 95
14, 581781, Note_on_c, 5, 62, 97
14, 581839, Note_on_c, 5, 57, 0
14, 581840, Note_on_c, 5, 65, 0
14, 581841, Note_on_c, 5, 69, 0
14, 581852, Note_on_c, 5, 62, 0
14, 582013, Note_on_c, 5, 70, 89
14, 582014, Note_on_c, 5, 63, 95
14, 582024, Note_on_c, 5, 67, 78
14, 582025, Note_on_c, 5, 58, 92
14, 582084, Note_on_c, 5, 70, 0
14, 582085, Note_on_c, 5, 63, 0
14, 582095, Note_on_c, 5, 67, 0
14, 582096, Note_on_c, 5, 58, 0
14, 582243, Note_on_c, 5, 60, 91
14, 582248, Note_on_c, 5, 68, 95
14, 582251, Note_on_c, 5, 72, 82
14, 582251, Note_on_c, 5, 63, 78
14, 582386, Note_on_c, 5, 60, 0
14, 582391, Note_on_c, 5, 68, 0
14, 582394, Note_on_c, 5, 72, 0
14, 582394, Note_on_c, 5, 63, 0
14, 582721, Note_on_c, 5, 57, 95
14, 582727, Note_on_c, 5, 69, 84
14, 582727, Note_on_c, 5, 65, 86
14, 582727, Note_on_c, 5, 62, 79
14, 582864, Note_on_c, 5, 57, 0
14, 582870, Note_on_c, 5, 69, 0
14, 582870, Note_on_c, 5, 65, 0
14, 582870, Note_on_c, 5, 62, 0
14, 583206, Note_on_c, 5, 72, 90
14, 583210, Note_on_c, 5, 68, 81
14, 583214, Note_on_c, 5, 63, 83
14, 583219, Note_on_c, 5, 60, 93
14, 583277, Note_on_c, 5, 72, 0
14, 583281, Note_on_c, 5, 68, 0
14, 583285, Note_on_c, 5, 63, 0
14, 583290, Note_on_c, 5, 60, 0
14, 583442, Note_on_c, 5, 74, 87
14, 583444, Note_on_c, 5, 62, 95
14, 583446, Note_on_c, 5, 65, 89
14, 583458, Note_on_c, 5, 69, 97
14, 583513, Note_on_c, 5, 74, 0
14, 583515, Note_on_c, 5, 62, 0
14, 583517, Note_on_c, 5, 65, 0
14, 583529, Note_on_c, 5, 69, 0
14, 583680, Note_on_c, 5, 65, 88
14, 583684, Note_on_c, 5, 62, 91
14, 583688, Note_on_c, 5, 57, 80
14, 583698, Note_on_c, 5, 69, 95
14, 583751, Note_on_c, 5, 65, 0
14, 583755, Note_on_c, 5, 62, 0
14, 583759, Note_on_c, 5, 57, 0
14, 583769, Note_on_c, 5, 69, 0
14, 583924, Note_on_c, 5, 58, 91
14, 583931, Note_on_c, 5, 67, 96
14, 583939, Note_on_c, 5, 63, 88
14, 583942, Note_on_c, 5, 70, 88
14, 583995, Note_on_c, 5, 58, 0
14, 584002, Note_on_c, 5, 67, 0
14, 584010, Note_on_c, 5, 63, 0
14, 584013, Note_on_c, 5, 70, 0
14, 584170, Note_on_c, 5, 62, 88
14, 584171, Note_on_c, 5, 57, 94
14, 584172, Note_on_c, 5, 65, 78
14, 584176, Note_on_c, 5, 69, 88
14, 584241, Note_on_c, 5, 62, 0
14, 584242, Note_on_c, 5, 57, 0
14, 584243, Note_on_c, 5, 65, 0
14, 584247, Note_on_c, 5, 69, 0
14, 584403, Note_on_c, 5, 69, 82
14, 584407, Note_on_c, 5, 74, 91
14, 584411, Note_on_c, 5, 62, 79
14, 584416, Note_on_c, 5, 65, 78
14, 584474, Note_on_c, 5, 69, 0
14, 584478, Note_on_c, 5, 74, 0
14, 584482, Note_on_c, 5, 62, 0
14, 584487, Note_on_c, 5, 65, 0
14, 584653, Note_on_c, 5, 68, 85
14, 584659, Note_on_c, 5, 60, 94
14, 584660, Note_on_c, 5, 63, 89
14, 584662, Note_on_c, 5, 72, 87
14, 584796, Note_on_c, 5, 68, 0
14, 584802, Note_on_c, 5, 60, 0
14, 584803, Note_on_c, 5, 63, 0
14, 584805, Note_on_c, 5, 72, 0
14, 585120, Note_on_c, 5, 69, 88
14, 585134, Note_on_c, 5, 65, 81
14, 585139, Note_on_c, 5, 57, 92
14, 585139, Note_on_c, 5, 62, 94
14, 585191, Note_on_c, 5, 69, 0
14, 585205, Note_on_c, 5, 65, 0
14, 585210, Note_on_c, 5, 57, 0
14, 585210, Note_on_c, 5, 62, 0
14, 585367, Note_on_c, 5, 63, 91
14, 585369, Note_on_c, 5, 58, 92
14, 585371, Note_on_c, 5, 70, 82
14, 585381, Note_on_c, 5, 67, 97
14, 585438, Note_on_c, 5, 63, 0
14, 585440, Note_on_c, 5, 58, 0
14, 585442, Note_on_c, 5, 70, 0
14, 585452, Note_on_c, 5, 67, 0
14, 585601, Note_on_c, 5, 69, 79
14, 585607, Note_on_c, 5, 65, 92
14, 585621, Note_on_c, 5, 62, 87
14, 585624, Note_on_c, 5, 57, 91
14, 585672, Note_on_c, 5, 69, 0
14, 585678, Note_on_c, 5, 65, 0
14, 585692, Note_on_c, 5, 62, 0
14, 585695, Note_on_c, 5, 57, 0
14, 585841, Note_on_c, 5, 74, 86
14, 585854, Note_on_c, 5, 65, 92
14, 585856, Note_on_c, 5, 69, 83
14, 585857, Note_on_c, 5, 62, 89
14, 585912, Note_on_c, 5, 74, 0
14, 585925, Note_on_c, 5, 65, 0
14, 585927, Note_on_c, 5, 69, 0
14, 585928, Note_on_c, 5, 62, 0
14, 586082, Note_on_c, 5, 71, 87
14, 586088, Note_on_c, 5, 63, 98
14, 586103, Note_on_c, 5, 69, 97
14, 586104, Note_on_c, 5, 60, 84
14, 586225, Note_on_c, 5, 71, 0
14, 586231, Note_on_c, 5, 63, 0
14, 586246, Note_on_c, 5, 69, 0
14, 586247, Note_on_c, 5, 60, 0
14, 586569, Note_on_c, 5, 62, 96
14, 586571, Note_on_c, 5, 65, 95
14, 586572, Note_on_c, 5, 69, 83
14, 586583, Note_on_c, 5, 57, 80
14, 587769, Note_on_c, 5, 62, 0
14, 587771, Note_on_c, 5, 65, 0
14, 587772, Note_on_c, 5, 69, 0
14, 587783, Note_on_c, 5, 57, 0
14, 590400, Note_on_c, 5, 60, 98
14, 590400, Note_on_c, 5, 69, 101
14, 590419, Note_on_c, 5, 65, 102
14, 590481, Note_on_c, 5, 71, 110
14, 590484, Note_on_c, 5, 67, 92
14, 590484, Note_on_c, 5, 62, 95
14, 590520, Note_on_c, 5, 60, 0
14, 590520, Note_on_c, 5, 69, 0
14, 590539, Note_on_c, 5, 65, 0
14, 590561, Note_on_c, 5, 69, 94
14, 590565, Note_on_c, 5, 65, 107
14, 590569, Note_on_c, 5, 60, 91
14, 590599, Note_on_c, 5, 71, 0
14, 590602, Note_on_c, 5, 67, 0
14, 590602, Note_on_c, 5, 62, 0
14, 590641, Note_on_c, 5, 62, 93
14, 590659, Note_on_c, 5, 71, 91
14, 590660, Note_on_c, 5, 67, 101
14, 590681, Note_on_c, 5, 69, 0
14, 590685, Note_on_c, 5, 65, 0
14, 590689, Note_on_c, 5, 60, 0
14, 590720, Note_on_c, 5, 69, 111
14, 590725, Note_on_c, 5, 65, 95
14, 590738, Note_on_c, 5, 60, 91
14, 590761, Note_on_c, 5, 62, 0
14, 590779, Note_on_c, 5, 71, 0
14, 590780, Note_on_c, 5, 67, 0
14, 590811, Note_on_c, 5, 67, 107
14, 590817, Note_on_c, 5, 71, 94
14, 590823, Note_on_c, 5, 62, 102
14, 590838, Note_on_c, 5, 69, 0
14, 590843, Note_on_c, 5, 65, 0
14, 590856, Note_on_c, 5, 60, 0
14, 590886, Note_on_c, 5, 60, 95
14, 590894, Note_on_c, 5, 69, 92
14, 590895, Note_on_c, 5, 65, 104
14, 590931, Note_on_c, 5, 67, 0
14, 590937, Note_on_c, 5, 71, 0
14, 590943, Note_on_c, 5, 62, 0
14, 590966, Note_on_c, 5, 62, 95
14, 590968, Note_on_c, 5, 67, 109
14, 590973, Note_on_c, 5, 71, 106
14, 591006, Note_on_c, 5, 60, 0
14, 591014, Note_on_c, 5, 69, 0
14, 591015, Note_on_c, 5, 65, 0
14, 591043, Note_on_c, 5, 60, 103
14, 591052, Note_on_c, 5, 65, 94
14, 591060, Note_on_c, 5, 69, 109
14, 591084, Note_on_c, 5, 62, 0
14, 591086, Note_on_c, 5, 67, 0
14, 591091, Note_on_c, 5, 71, 0
14, 591131, Note_on_c, 5, 67, 106
14, 591135, Note_on_c, 5, 62, 105
14, 591142, Note_on_c, 5, 71, 95
14, 591163, Note_on_c, 5, 60, 0
14, 591172, Note_on_c, 5, 65, 0
14, 591180, Note_on_c, 5, 69, 0
14, 591200, Note_on_c, 5, 60, 111
14, 591200, Note_on_c, 5, 69, 106
14, 591201, Note_on_c, 5, 65, 108
14, 591251, Note_on_c, 5, 67, 0
14, 591255, Note_on_c, 5, 62, 0
14, 591262, Note_on_c, 5, 71, 0
14, 591281, Note_on_c, 5, 71, 98
14, 591286, Note_on_c, 5, 62, 108
14, 591289, Note_on_c, 5, 67, 110
14, 591318, Note_on_c, 5, 60, 0
14, 591318, Note_on_c, 5, 69, 0
14, 591319, Note_on_c, 5, 65, 0
14, 591376, Note_on_c, 5, 60, 108
14, 591379, Note_on_c, 5, 69, 96
14, 591381, Note_on_c, 5, 65, 109
14, 591401, Note_on_c, 5, 71, 0
14, 591406, Note_on_c, 5, 62, 0
14, 591409, Note_on_c, 5, 67, 0
14, 591452, Note_on_c, 5, 67, 100
14, 591454, Note_on_c, 5, 62, 91
14, 591456, Note_on_c, 5, 71, 101
14, 591496, Note_on_c, 5, 60, 0
14, 591499, Note_on_c, 5, 69, 0
14, 591501, Note_on_c, 5, 65, 0
14, 591525, Note_on_c, 5, 60, 108
14, 591527, Note_on_c, 5, 65, 92
14, 591538, Note_on_c, 5, 69, 101
14, 591570, Note_on_c, 5, 67, 0
14, 591572, Note_on_c, 5, 62, 0
14, 591574, Note_on_c, 5, 71, 0
14, 591609, Note_on_c, 5, 67, 111
14, 591609, Note_on_c, 5, 62, 111
14, 591620, Note_on_c, 5, 71, 102
14, 591645, Note_on_c, 5, 60, 0
14, 591647, Note_on_c, 5, 65, 0
14, 591658, Note_on_c, 5, 69, 0
14, 591690, Note_on_c, 5, 69, 110
14, 591692, Note_on_c, 5, 65, 101
14, 591694, Note_on_c, 5, 60, 103
14, 591729, Note_on_c, 5, 67, 0
14, 591729, Note_on_c, 5, 62, 0
14, 591740, Note_on_c, 5, 71, 0
14, 591762, Note_on_c, 5, 62, 98
14, 591770, Note_on_c, 5, 71, 96
14, 591774, Note_on_c, 5, 67, 104
14, 591808, Note_on_c, 5, 69, 0
14, 591810, Note_on_c, 5, 65, 0
14, 591812, Note_on_c, 5, 60, 0
14, 591840, Note_on_c, 5, 65, 105
14, 591859, Note_on_c, 5, 69, 91
14, 591863, Note_on_c, 5, 60, 93
14, 591882, Note_on_c, 5, 62, 0
14, 591890, Note_on_c, 5, 71, 0
14, 591894, Note_on_c, 5, 67, 0
14, 591929, Note_on_c, 5, 62, 101
14, 591934, Note_on_c, 5, 71, 107
14, 591935, Note_on_c, 5, 67, 107
14, 591960, Note_on_c, 5, 65, 0
14, 591979, Note_on_c, 5, 69, 0
14, 591983, Note_on_c, 5, 60, 0
14, 592001, Note_on_c, 5, 69, 93
14, 592009, Note_on_c, 5, 65, 101
14, 592014, Note_on_c, 5, 60, 109
14, 592047, Note_on_c, 5, 62, 0
14, 592052, Note_on_c, 5, 71, 0
14, 592053, Note_on_c, 5, 67, 0
14, 592081, Note_on_c, 5, 62, 110
14, 592094, Note_on_c, 5, 67, 97
14, 592101, Note_on_c, 5, 71, 91
14, 592121, Note_on_c, 5, 69, 0
14, 592129, Note_on_c, 5, 65, 0
14, 592134, Note_on_c, 5, 60, 0
14, 592160, Note_on_c, 5, 60, 97
14, 592168, Note_on_c, 5, 69, 91
14, 592183, Note_on_c, 5, 65, 109
14, 592201, Note_on_c, 5, 62, 0
14, 592214, Note_on_c, 5, 67, 0
14, 592221, Note_on_c, 5, 71, 0
14, 592249, Note_on_c, 5, 71, 110
14, 592252, Note_on_c, 5, 67, 102
14, 592262, Note_on_c, 5, 62, 93
14, 592278, Note_on_c, 5, 60, 0
14, 592286, Note_on_c, 5, 69, 0
14, 592301, Note_on_c, 5, 65, 0
14, 592330, Note_on_c, 5, 69, 97
14, 592335, Note_on_c, 5, 65, 109
14, 592335, Note_on_c, 5, 60, 98
14, 592369, Note_on_c, 5, 71, 0
14, 592372, Note_on_c, 5, 67, 0
14, 592382, Note_on_c, 5, 62, 0
14, 592411, Note_on_c, 5, 62, 95
14, 592416, Note_on_c, 5, 67, 105
14, 592417, Note_on_c, 5, 71, 96
14, 592450, Note_on_c, 5, 69, 0
14, 592455, Note_on_c, 5, 65, 0
14, 592455, Note_on_c, 5, 60, 0
14, 592501, Note_on_c, 5, 60, 99
14, 592503, Note_on_c, 5, 69, 109
14, 592504, Note_on_c, 5, 65, 103
14, 592529, Note_on_c, 5, 62, 0
14, 592534, Note_on_c, 5, 67, 0
14, 592535, Note_on_c, 5, 71, 0
14, 592562, Note_on_c, 5, 67, 102
14, 592573, Note_on_c, 5, 62, 106
14, 592585, Note_on_c, 5, 71, 110
14, 592621, Note_on_c, 5, 60, 0
14, 592623, Note_on_c, 5, 69, 0
14, 592624, Note_on_c, 5, 65, 0
14, 592658, Note_on_c, 5, 69, 99
14, 592662, Note_on_c, 5, 65, 111
14, 592662, Note_on_c, 5, 60, 91
14, 592682, Note_on_c, 5, 67, 0
14, 592693, Note_on_c, 5, 62, 0
14, 592705, Note_on_c, 5, 71, 0
14, 592724, Note_on_c, 5, 71, 92
14, 592730, Note_on_c, 5, 67, 110
14, 592744, Note_on_c, 5, 62, 100
14, 592776, Note_on_c, 5, 69, 0
14, 592780, Note_on_c, 5, 65, 0
14, 592780, Note_on_c, 5, 60, 0
14, 592812, Note_on_c, 5, 69, 107
14, 592817, Note_on_c, 5, 65, 99
14, 592823, Note_on_c, 5, 60, 111
14, 592844, Note_on_c, 5, 71, 0
14, 592850, Note_on_c, 5, 67, 0
14, 592864, Note_on_c, 5, 62, 0
14, 592895, Note_on_c, 5, 71, 106
14, 592900, Note_on_c, 5, 67, 99
14, 592901, Note_on_c, 5, 62, 111
14, 592932, Note_on_c, 5, 69, 0
14, 592937, Note_on_c, 5, 65, 0
14, 592943, Note_on_c, 5, 60, 0
14, 592975, Note_on_c, 5, 65, 100
14, 592975, Note_on_c, 5, 69, 106
14, 592976, Note_on_c, 5, 60, 100
14, 593013, Note_on_c, 5, 71, 0
14, 593018, Note_on_c, 5, 67, 0
14, 593019, Note_on_c, 5, 62, 0
14, 593040, Note_on_c, 5, 62, 92
14, 593061, Note_on_c, 5, 71, 95
14, 593065, Note_on_c, 5, 67, 107
14, 593095, Note_on_c, 5, 65, 0
14, 593095, Note_on_c, 5, 69, 0
14, 593096, Note_on_c, 5, 60, 0
14, 593122, Note_on_c, 5, 69, 108
14, 593127, Note_on_c, 5, 65, 97
14, 593131, Note_on_c, 5, 60, 100
14, 593160, Note_on_c, 5, 62, 0
14, 593181, Note_on_c, 5, 71, 0
14, 593185, Note_on_c, 5, 67, 0
14, 593209, Note_on_c, 5, 67, 106
14, 593215, Note_on_c, 5, 71, 99
14, 593221, Note_on_c, 5, 62, 109
14, 593240, Note_on_c, 5, 69, 0
14, 593245, Note_on_c, 5, 65, 0
14, 593249, Note_on_c, 5, 60, 0
14, 593283, Note_on_c, 5, 60, 91
14, 593291, Note_on_c, 5, 65, 95
14, 593299, Note_on_c, 5, 69, 111
14, 593329, Note_on_c, 5, 67, 0
14, 593335, Note_on_c, 5, 71, 0
14, 593341, Note_on_c, 5, 62, 0
14, 593360, Note_on_c, 5, 67, 94
14, 593376, Note_on_c, 5, 71, 93
14, 593378, Note_on_c, 5, 62, 97
14, 593403, Note_on_c, 5, 60, 0
14, 593411, Note_on_c, 5, 65, 0
14, 593419, Note_on_c, 5, 69, 0
14, 593440, Note_on_c, 5, 65, 102
14, 593441, Note_on_c, 5, 69, 109
14, 593447, Note_on_c, 5, 60, 107
14, 593478, Note_on_c, 5, 67, 0
14, 593494, Note_on_c, 5, 71, 0
14, 593496, Note_on_c, 5, 62, 0
14, 593522, Note_on_c, 5, 71, 108
14, 593531, Note_on_c, 5, 62, 97
14, 593540, Note_on_c, 5, 67, 104
14, 593560, Note_on_c, 5, 65, 0
14, 593561, Note_on_c, 5, 69, 0
14, 593567, Note_on_c, 5, 60, 0
14, 593601, Note_on_c, 5, 60, 101
14, 593610, Note_on_c, 5, 65, 93
14, 593613, Note_on_c, 5, 69, 100
14, 593642, Note_on_c, 5, 71, 0
14, 593651, Note_on_c, 5, 62, 0
14, 593660, Note_on_c, 5, 67, 0
14, 593688, Note_on_c, 5, 71, 95
14, 593694, Note_on_c, 5, 67, 99
14, 593701, Note_on_c, 5, 62, 105
14, 593719, Note_on_c, 5, 60, 0
14, 593728, Note_on_c, 5, 65, 0
14, 593731, Note_on_c, 5, 69, 0
14, 593774, Note_on_c, 5, 69, 100
14, 593775, Note_on_c, 5, 65, 109
14, 593777, Note_on_c, 5, 60, 100
14, 593808, Note_on_c, 5, 71, 0
14, 593814, Note_on_c, 5, 67, 0
14, 593821, Note_on_c, 5, 62, 0
14, 593965, Note_on_c, 5, 69, 0
14, 593966, Note_on_c, 5, 65, 0
14, 593968, Note_on_c, 5, 60, 0
14, 594245, Note_on_c, 5, 59, 88
14, 594253, Note_on_c, 5, 67, 80
14, 594263, Note_on_c, 5, 64, 94
14, 594340, Note_on_c, 5, 59, 0
14, 594348, Note_on_c, 5, 67, 0
14, 594358, Note_on_c, 5, 64, 0
14, 594484, Note_on_c, 5, 69, 84
14, 594496, Note_on_c, 5, 62, 91
14, 594497, Note_on_c, 5, 65, 82
14, 594579, Note_on_c, 5, 69, 0
14, 594591, Note_on_c, 5, 62, 0
14, 594592, Note_on_c, 5, 65, 0
14, 594734, Note_on_c, 5, 67, 91
14, 594735, Note_on_c, 5, 62, 82
14, 594740, Note_on_c, 5, 71, 81
14, 594829, Note_on_c, 5, 67, 0
14, 594830, Note_on_c, 5, 62, 0
14, 594835, Note_on_c, 5, 71, 0
14, 594969, Note_on_c, 5, 69, 98
14, 594975, Note_on_c, 5, 65, 93
14, 594981, Note_on_c, 5, 72, 95
14, 595064, Note_on_c, 5, 69, 0
14, 595070, Note_on_c, 5, 65, 0
14, 595076, Note_on_c, 5, 72, 0
14, 595205, Note_on_c, 5, 67, 88
14, 595205, Note_on_c, 5, 62, 97
14, 595211, Note_on_c, 5, 71, 91
14, 595300, Note_on_c, 5, 67, 0
14, 595300, Note_on_c, 5, 62, 0
14, 595306, Note_on_c, 5, 71, 0
14, 595448, Note_on_c, 5, 69, 98
14, 595462, Note_on_c, 5, 65, 97
14, 595465, Note_on_c, 5, 72, 79
14, 595543, Note_on_c, 5, 69, 0
14, 595557, Note_on_c, 5, 65, 0
14, 595560, Note_on_c, 5, 72, 0
14, 595691, Note_on_c, 5, 67, 93
14, 595695, Note_on_c, 5, 62, 95
14, 595703, Note_on_c, 5, 71, 89
14, 595786, Note_on_c, 5, 67, 0
14, 595790, Note_on_c, 5, 62, 0
14, 595798, Note_on_c, 5, 71, 0
14, 595923, Note_on_c, 5, 69, 81
14, 595936, Note_on_c, 5, 74, 83
14, 595945, Note_on_c, 5, 65, 82
14, 596018, Note_on_c, 5, 69, 0
14, 596031, Note_on_c, 5, 74, 0
14, 596040, Note_on_c, 5, 65, 0
14, 596161, Note_on_c, 5, 69, 89
14, 596178, Note_on_c, 5, 60, 82
14, 596182, Note_on_c, 5, 65, 92
14, 596352, Note_on_c, 5, 69, 0
14, 596369, Note_on_c, 5, 60, 0
14, 596373, Note_on_c, 5, 65, 0
14, 596642, Note_on_c, 5, 71, 78
14, 596654, Note_on_c, 5, 62, 81
14, 596664, Note_on_c, 5, 67, 88
14, 596737, Note_on_c, 5, 71, 0
14, 596749, Note_on_c, 5, 62, 0
14, 596759, Note_on_c, 5, 67, 0
14, 596885, Note_on_c, 5, 69, 81
14, 596894, Note_on_c, 5, 65, 98
14, 596900, Note_on_c, 5, 72, 82
14, 596980, Note_on_c, 5, 69, 0
14, 596989, Note_on_c, 5, 65, 0
14, 596995, Note_on_c, 5, 72, 0
14, 597123, Note_on_c, 5, 62, 97
14, 597126, Note_on_c, 5, 71, 94
14, 597132, Note_on_c, 5, 67, 85
14, 597218, Note_on_c, 5, 62, 0
14, 597221, Note_on_c, 5, 71, 0
14, 597227, Note_on_c, 5, 67, 0
14, 597360, Note_on_c, 5, 74, 98
14, 597374, Note_on_c, 5, 69, 97
14, 597375, Note_on_c, 5, 65, 86
14, 597455, Note_on_c, 5, 74, 0
14, 597469, Note_on_c, 5, 69, 0
14, 597470, Note_on_c, 5, 65, 0
14, 597602, Note_on_c, 5, 65, 80
14, 597604, Note_on_c, 5, 69, 95
14, 597617, Note_on_c, 5, 60, 86
14, 597793, Note_on_c, 5, 65, 0
14, 597795, Note_on_c, 5, 69, 0
14, 597808, Note_on_c, 5, 60, 0
14, 598083, Note_on_c, 5, 65, 87
14, 598089, Note_on_c, 5, 69, 96
14, 598091, Note_on_c, 5, 60, 102
14, 598274, Note_on_c, 5, 65, 0
14, 598280, Note_on_c, 5, 69, 0
14, 598282, Note_on_c, 5, 60, 0
14, 598560, Note_on_c, 5, 59, 104
14, 598562, Note_on_c, 5, 67, 101
14, 598581, Note_on_c, 5, 64, 87
14, 598611, Note_on_c, 5, 59, 0
14, 598682, Note_on_c, 5, 67, 0
14, 598701, Note_on_c, 5, 64, 0
14, 598800, Note_on_c, 5, 62, 101
14, 598809, Note_on_c, 5, 65, 97
14, 598824, Note_on_c, 5, 69, 96
14, 598851, Note_on_c, 5, 62, 0
14, 598929, Note_on_c, 5, 65, 0
14, 598944, Note_on_c, 5, 69, 0
14, 599040, Note_on_c, 5, 62, 102
14, 599040, Note_on_c, 5, 67, 93
14, 599062, Note_on_c, 5, 71, 85
14, 599091, Note_on_c, 5, 62, 0
14, 599160, Note_on_c, 5, 67, 0
14, 599182, Note_on_c, 5, 71, 0
14, 599280, Note_on_c, 5, 65, 86
14, 599284, Note_on_c, 5, 69, 100
14, 599296, Note_on_c, 5, 72, 92
14, 599331, Note_on_c, 5, 65, 0
14, 599404, Note_on_c, 5, 69, 0
14, 599416, Note_on_c, 5, 72, 0
14, 599520, Note_on_c, 5, 62, 93
14, 599524, Note_on_c, 5, 67, 99
14, 599544, Note_on_c, 5, 71, 98
14, 599571, Note_on_c, 5, 62, 0
14, 599644, Note_on_c, 5, 67, 0
14, 599664, Note_on_c, 5, 71, 0
14, 599760, Note_on_c, 5, 65, 96
14, 599761, Note_on_c, 5, 72, 95
14, 599780, Note_on_c, 5, 69, 102
14, 599811, Note_on_c, 5, 65, 0
14, 599881, Note_on_c, 5, 72, 0
14, 599900, Note_on_c, 5, 69, 0
14, 600000, Note_on_c, 5, 62, 104
14, 600010, Note_on_c, 5, 71, 89
14, 600011, Note_on_c, 5, 67, 100
14, 600051, Note_on_c, 5, 62, 0
14, 600130, Note_on_c, 5, 71, 0
14, 600131, Note_on_c, 5, 67, 0
14, 600240, Note_on_c, 5, 65, 105
14, 600245, Note_on_c, 5, 74, 95
14, 600265, Note_on_c, 5, 69, 87
14, 600291, Note_on_c, 5, 65, 0
14, 600365, Note_on_c, 5, 74, 0
14, 600385, Note_on_c, 5, 69, 0
14, 600480, Note_on_c, 5, 65, 102
14, 600486, Note_on_c, 5, 69, 89
14, 600488, Note_on_c, 5, 72, 86
14, 600531, Note_on_c, 5, 65, 0
14, 600606, Note_on_c, 5, 69, 0
14, 600608, Note_on_c, 5, 72, 0
14, 600720, Note_on_c, 5, 62, 102
14, 600727, Note_on_c, 5, 67, 99
14, 600741, Note_on_c, 5, 71, 85
14, 600771, Note_on_c, 5, 62, 0
14, 600847, Note_on_c, 5, 67, 0
14, 600861, Note_on_c, 5, 71, 0
14, 600960, Note_on_c, 5, 60, 96
14, 600973, Note_on_c, 5, 65, 89
14, 600973, Note_on_c, 5, 69, 105
14, 601011, Note_on_c, 5, 60, 0
14, 601093, Note_on_c, 5, 65, 0
14, 601093, Note_on_c, 5, 69, 0
14, 601200, Note_on_c, 5, 59, 97
14, 601216, Note_on_c, 5, 67, 89
14, 601220, Note_on_c, 5, 64, 86
14, 601251, Note_on_c, 5, 59, 0
14, 601336, Note_on_c, 5, 67, 0
14, 601340, Note_on_c, 5, 64, 0
14, 601444, Note_on_c, 5, 69, 88
14, 601449, Note_on_c, 5, 65, 96
14, 601464, Note_on_c, 5, 60, 94
14, 601523, Note_on_c, 5, 71, 98
14, 601524, Note_on_c, 5, 62, 95
14, 601533, Note_on_c, 5, 67, 86
14, 601564, Note_on_c, 5, 69, 0
14, 601569, Note_on_c, 5, 65, 0
14, 601579, Note_on_c, 5, 60, 0
14, 601603, Note_on_c, 5, 69, 86
14, 601612, Note_on_c, 5, 65, 87
14, 601615, Note_on_c, 5, 60, 92
14, 601639, Note_on_c, 5, 62, 0
14, 601641, Note_on_c, 5, 71, 0
14, 601651, Note_on_c, 5, 67, 0
14, 601687, Note_on_c, 5, 62, 90
14, 601700, Note_on_c, 5, 71, 104
14, 601702, Note_on_c, 5, 67, 104
14, 601723, Note_on_c, 5, 69, 0
14, 601730, Note_on_c, 5, 60, 0
14, 601732, Note_on_c, 5, 65, 0
14, 601751, Note_on_c, 5, 60, 104
14, 601762, Note_on_c, 5, 65, 87
14, 601778, Note_on_c, 5, 69, 91
14, 601802, Note_on_c, 5, 62, 0
14, 601820, Note_on_c, 5, 71, 0
14, 601822, Note_on_c, 5, 67, 0
14, 601836, Note_on_c, 5, 62, 91
14, 601841, Note_on_c, 5, 67, 104
14, 601862, Note_on_c, 5, 71, 86
14, 601866, Note_on_c, 5, 60, 0
14, 601880, Note_on_c, 5, 65, 0
14, 601896, Note_on_c, 5, 69, 0
14, 601906, Note_on_c, 5, 60, 90
14, 601938, Note_on_c, 5, 69, 99
14, 601940, Note_on_c, 5, 65, 103
14, 601951, Note_on_c, 5, 62, 0
14, 601961, Note_on_c, 5, 67, 0
14, 601982, Note_on_c, 5, 71, 0
14, 601995, Note_on_c, 5, 62, 104
14, 602001, Note_on_c, 5, 71, 91
14, 602004, Note_on_c, 5, 67, 98
14, 602021, Note_on_c, 5, 60, 0
14, 602058, Note_on_c, 5, 69, 0
14, 602060, Note_on_c, 5, 65, 0
14, 602080, Note_on_c, 5, 65, 91
14, 602085, Note_on_c, 5, 60, 90
14, 602092, Note_on_c, 5, 69, 88
14, 602110, Note_on_c, 5, 62, 0
14, 602119, Note_on_c, 5, 71, 0
14, 602122, Note_on_c, 5, 67, 0
14, 602165, Note_on_c, 5, 62, 92
14, 602179, Note_on_c, 5, 67, 89
14, 602181, Note_on_c, 5, 71, 101
14, 602200, Note_on_c, 5, 65, 0
14, 602200, Note_on_c, 5, 60, 0
14, 602212, Note_on_c, 5, 69, 0
14, 602240, Note_on_c, 5, 60, 103
14, 602255, Note_on_c, 5, 65, 104
14, 602257, Note_on_c, 5, 69, 97
14, 602280, Note_on_c, 5, 62, 0
14, 602298, Note_on_c, 5, 62, 88
14, 602299, Note_on_c, 5, 67, 0
14, 602301, Note_on_c, 5, 71, 0
14, 602325, Note_on_c, 5, 67, 104
14, 602327, Note_on_c, 5, 71, 96
14, 602355, Note_on_c, 5, 60, 0
14, 602373, Note_on_c, 5, 65, 0
14, 602375, Note_on_c, 5, 69, 0
14, 602393, Note_on_c, 5, 60, 91
14, 602404, Note_on_c, 5, 65, 105
14, 602410, Note_on_c, 5, 69, 94
14, 602413, Note_on_c, 5, 62, 0
14, 602445, Note_on_c, 5, 67, 0
14, 602447, Note_on_c, 5, 71, 0
14, 602457, Note_on_c, 5, 62, 92
14, 602495, Note_on_c, 5, 67, 93
14, 602498, Note_on_c, 5, 71, 90
14, 602508, Note_on_c, 5, 60, 0
14, 602524, Note_on_c, 5, 65, 0
14, 602530, Note_on_c, 5, 69, 0
14, 602537, Note_on_c, 5, 60, 87
14, 602569, Note_on_c, 5, 69, 105
14, 602570, Note_on_c, 5, 65, 104
14, 602572, Note_on_c, 5, 62, 0
14, 602609, Note_on_c, 5, 62, 103
14, 602613, Note_on_c, 5, 67, 0
14, 602616, Note_on_c, 5, 71, 0
14, 602641, Note_on_c, 5, 71, 89
14, 602652, Note_on_c, 5, 60, 0
14, 602652, Note_on_c, 5, 67, 89
14, 602689, Note_on_c, 5, 69, 0
14, 602690, Note_on_c, 5, 65, 0
14, 602694, Note_on_c, 5, 60, 90
14, 602724, Note_on_c, 5, 62, 0
14, 602729, Note_on_c, 5, 69, 86
14, 602731, Note_on_c, 5, 65, 105
14, 602761, Note_on_c, 5, 71, 0
14, 602770, Note_on_c, 5, 62, 104
14, 602772, Note_on_c, 5, 67, 0
14, 602807, Note_on_c, 5, 67, 101
14, 602809, Note_on_c, 5, 60, 0
14, 602818, Note_on_c, 5, 71, 98
14, 602840, Note_on_c, 5, 60, 86
14, 602847, Note_on_c, 5, 69, 0
14, 602849, Note_on_c, 5, 65, 0
14, 602883, Note_on_c, 5, 69, 95
14, 602885, Note_on_c, 5, 62, 0
14, 602900, Note_on_c, 5, 65, 100
14, 602927, Note_on_c, 5, 67, 0
14, 602927, Note_on_c, 5, 62, 93
14, 602938, Note_on_c, 5, 71, 0
14, 602955, Note_on_c, 5, 60, 0
14, 602960, Note_on_c, 5, 71, 105
14, 602965, Note_on_c, 5, 67, 88
14, 602999, Note_on_c, 5, 60, 88
14, 603003, Note_on_c, 5, 69, 0
14, 603020, Note_on_c, 5, 65, 0
14, 603042, Note_on_c, 5, 62, 0
14, 603050, Note_on_c, 5, 69, 91
14, 603059, Note_on_c, 5, 65, 86
14, 603078, Note_on_c, 5, 71, 0
14, 603083, Note_on_c, 5, 67, 0
14, 603085, Note_on_c, 5, 62, 99
14, 603114, Note_on_c, 5, 60, 0
14, 603120, Note_on_c, 5, 71, 98
14, 603145, Note_on_c, 5, 67, 90
14, 603154, Note_on_c, 5, 60, 102
14, 603170, Note_on_c, 5, 69, 0
14, 603179, Note_on_c, 5, 65, 0
14, 603200, Note_on_c, 5, 62, 0
14, 603213, Note_on_c, 5, 65, 100
14, 603219, Note_on_c, 5, 69, 86
14, 603240, Note_on_c, 5, 71, 0
14, 603249, Note_on_c, 5, 62, 87
14, 603265, Note_on_c, 5, 67, 0
14, 603269, Note_on_c, 5, 60, 0
14, 603283, Note_on_c, 5, 67, 101
14, 603292, Note_on_c, 5, 71, 85
14, 603316, Note_on_c, 5, 60, 85
14, 603331, Note_on_c, 5, 65, 0
14, 603337, Note_on_c, 5, 69, 0
14, 603362, Note_on_c, 5, 69, 96
14, 603364, Note_on_c, 5, 62, 0
14, 603381, Note_on_c, 5, 65, 98
14, 603403, Note_on_c, 5, 67, 0
14, 603403, Note_on_c, 5, 62, 87
14, 603412, Note_on_c, 5, 71, 0
14, 603431, Note_on_c, 5, 60, 0
14, 603452, Note_on_c, 5, 67, 99
14, 603461, Note_on_c, 5, 71, 90
14, 603468, Note_on_c, 5, 60, 99
14, 603482, Note_on_c, 5, 69, 0
14, 603501, Note_on_c, 5, 65, 0
14, 603518, Note_on_c, 5, 62, 0
14, 603532, Note_on_c, 5, 65, 98
14, 603540, Note_on_c, 5, 69, 87
14, 603551, Note_on_c, 5, 62, 91
14, 603570, Note_on_c, 5, 67, 0
14, 603579, Note_on_c, 5, 71, 0
14, 603583, Note_on_c, 5, 60, 0
14, 603605, Note_on_c, 5, 67, 95
14, 603614, Note_on_c, 5, 71, 92
14, 603635, Note_on_c, 5, 60, 103
14, 603652, Note_on_c, 5, 65, 0
14, 603660, Note_on_c, 5, 69, 0
14, 603666, Note_on_c, 5, 62, 0
14, 603695, Note_on_c, 5, 65, 96
14, 603702, Note_on_c, 5, 69, 93
14, 603714, Note_on_c, 5, 62, 96
14, 603725, Note_on_c, 5, 67, 0
14, 603734, Note_on_c, 5, 71, 0
14, 603750, Note_on_c, 5, 60, 0
14, 603769, Note_on_c, 5, 67, 88
14, 603773, Note_on_c, 5, 71, 90
14, 603799, Note_on_c, 5, 60, 91
14, 603813, Note_on_c, 5, 65, 0
14, 603820, Note_on_c, 5, 69, 0
14, 603829, Note_on_c, 5, 62, 0
14, 603847, Note_on_c, 5, 65, 98
14, 603862, Note_on_c, 5, 69, 98
14, 603863, Note_on_c, 5, 62, 100
14, 603889, Note_on_c, 5, 67, 0
14, 603893, Note_on_c, 5, 71, 0
14, 603914, Note_on_c, 5, 60, 0
14, 603924, Note_on_c, 5, 71, 105
14, 603927, Note_on_c, 5, 67, 94
14, 603952, Note_on_c, 5, 60, 98
14, 603967, Note_on_c, 5, 65, 0
14, 603978, Note_on_c, 5, 62, 0
14, 603982, Note_on_c, 5, 69, 0
14, 604006, Note_on_c, 5, 65, 85
14, 604009, Note_on_c, 5, 69, 94
14, 604026, Note_on_c, 5, 62, 99
14, 604042, Note_on_c, 5, 71, 0
14, 604045, Note_on_c, 5, 67, 0
14, 604067, Note_on_c, 5, 60, 0
14, 604102, Note_on_c, 5, 67, 103
14, 604102, Note_on_c, 5, 71, 91
14, 604108, Note_on_c, 5, 60, 100
14, 604126, Note_on_c, 5, 65, 0
14, 604129, Note_on_c, 5, 69, 0
14, 604141, Note_on_c, 5, 62, 0
14, 604162, Note_on_c, 5, 65, 92
14, 604170, Note_on_c, 5, 62, 99
14, 604171, Note_on_c, 5, 69, 96
14, 604222, Note_on_c, 5, 67, 0
14, 604222, Note_on_c, 5, 71, 0
14, 604223, Note_on_c, 5, 60, 0
14, 604242, Note_on_c, 5, 67, 97
14, 604247, Note_on_c, 5, 60, 97
14, 604263, Note_on_c, 5, 71, 86
14, 604280, Note_on_c, 5, 65, 0
14, 604285, Note_on_c, 5, 62, 0
14, 604289, Note_on_c, 5, 69, 0
14, 604359, Note_on_c, 5, 60, 0
14, 604362, Note_on_c, 5, 67, 0
14, 604383, Note_on_c, 5, 71, 0
14, 613453, Note_on_c, 5, 64, 72
14, 613680, Note_on_c, 5, 65, 78
14, 613693, Note_on_c, 5, 64, 0
14, 613920, Note_on_c, 5, 65, 0
14, 613935, Note_on_c, 5, 67, 69
14, 614655, Note_on_c, 5, 67, 0
14, 614665, Note_on_c, 5, 65, 66
14, 614895, Note_on_c, 5, 64, 81
14, 614905, Note_on_c, 5, 65, 0
14, 615135, Note_on_c, 5, 64, 0
14, 615141, Note_on_c, 5, 62, 67
14, 615376, Note_on_c, 5, 64, 85
14, 615381, Note_on_c, 5, 62, 0
14, 615611, Note_on_c, 5, 65, 66
14, 615616, Note_on_c, 5, 64, 0
14, 615845, Note_on_c, 5, 67, 74
14, 615851, Note_on_c, 5, 65, 0
14, 616325, Note_on_c, 5, 67, 0
14, 616327, Note_on_c, 5, 65, 83
14, 616563, Note_on_c, 5, 64, 85
14, 616567, Note_on_c, 5, 65, 0
14, 616803, Note_on_c, 5, 64, 0
14, 616803, Note_on_c, 5, 62, 77
14, 617283, Note_on_c, 5, 62, 0
14, 617298, Note_on_c, 5, 64, 68
14, 617538, Note_on_c, 5, 64, 0
14, 617545, Note_on_c, 5, 65, 79
14, 617763, Note_on_c, 5, 67, 106
14, 617776, Note_on_c, 5, 74, 95
14, 617785, Note_on_c, 5, 65, 0
14, 617785, Note_on_c, 5, 62, 103
14, 618243, Note_on_c, 5, 67, 0
14, 618263, Note_on_c, 5, 65, 101
14, 618494, Note_on_c, 5, 64, 103
14, 618503, Note_on_c, 5, 65, 0
14, 618734, Note_on_c, 5, 64, 0
14, 618741, Note_on_c, 5, 62, 106
14, 619219, Note_on_c, 5, 60, 83
14, 619225, Note_on_c, 5, 62, 0
14, 619225, Note_on_c, 5, 52, 97
14, 619440, Note_on_c, 5, 53, 98
14, 619453, Note_on_c, 5, 62, 78
14, 619459, Note_on_c, 5, 60, 0
14, 619465, Note_on_c, 5, 52, 0
14, 619680, Note_on_c, 5, 53, 0
14, 619682, Note_on_c, 5, 55, 82
14, 619701, Note_on_c, 5, 62, 0
14, 619704, Note_on_c, 5, 64, 78
14, 620173, Note_on_c, 5, 62, 0
14, 620176, Note_on_c, 5, 74, 0
14, 620402, Note_on_c, 5, 55, 0
14, 620415, Note_on_c, 5, 53, 85
14, 620421, Note_on_c, 5, 62, 82
14, 620424, Note_on_c, 5, 64, 0
14, 620640, Note_on_c, 5, 52, 80
14, 620644, Note_on_c, 5, 60, 90
14, 620652, Note_on_c, 5, 74, 88
14, 620655, Note_on_c, 5, 53, 0
14, 620661, Note_on_c, 5, 62, 0
14, 620663, Note_on_c, 5, 62, 81
14, 620880, Note_on_c, 5, 52, 0
14, 620884, Note_on_c, 5, 60, 0
14, 620890, Note_on_c, 5, 58, 84
14, 620896, Note_on_c, 5, 50, 84
14, 621125, Note_on_c, 5, 60, 94
14, 621126, Note_on_c, 5, 52, 96
14, 621130, Note_on_c, 5, 58, 0
14, 621136, Note_on_c, 5, 50, 0
14, 621365, Note_on_c, 5, 60, 0
14, 621366, Note_on_c, 5, 52, 0
14, 621381, Note_on_c, 5, 62, 81
14, 621381, Note_on_c, 5, 53, 80
14, 621606, Note_on_c, 5, 64, 88
14, 621619, Note_on_c, 5, 55, 80
14, 621621, Note_on_c, 5, 53, 0
14, 621623, Note_on_c, 5, 62, 0
14, 622086, Note_on_c, 5, 64, 0
14, 622094, Note_on_c, 5, 62, 88
14, 622098, Note_on_c, 5, 53, 80
14, 622099, Note_on_c, 5, 55, 0
14, 622329, Note_on_c, 5, 60, 95
14, 622335, Note_on_c, 5, 52, 96
14, 622338, Note_on_c, 5, 53, 0
14, 622341, Note_on_c, 5, 62, 0
14, 622564, Note_on_c, 5, 58, 96
14, 622566, Note_on_c, 5, 50, 90
14, 622569, Note_on_c, 5, 60, 0
14, 622575, Note_on_c, 5, 52, 0
14, 623044, Note_on_c, 5, 58, 0
14, 623046, Note_on_c, 5, 50, 0
14, 623052, Note_on_c, 5, 74, 0
14, 623054, Note_on_c, 5, 62, 0
14, 624493, Note_on_c, 5, 74, 86
14, 624500, Note_on_c, 5, 62, 81
14, 629773, Note_on_c, 5, 74, 0
14, 629780, Note_on_c, 5, 62, 0
14, 630729, Note_on_c, 5, 69, 104
14, 630742, Note_on_c, 5, 57, 103
14, 631206, Note_on_c, 5, 74, 111
14, 631209, Note_on_c, 5, 69, 0
14, 631216, Note_on_c, 5, 62, 108
14, 631222, Note_on_c, 5, 57, 0
14, 631650, Note_on_c, 5, 60, 83
14, 631680, Note_on_c, 5, 60, 0
14, 631686, Note_on_c, 5, 74, 0
14, 631690, Note_on_c, 5, 59, 73
14, 631693, Note_on_c, 5, 53, 74
14, 631696, Note_on_c, 5, 62, 0
14, 631700, Note_on_c, 5, 72, 74
14, 631705, Note_on_c, 5, 60, 73
14, 631930, Note_on_c, 5, 59, 0
14, 631933, Note_on_c, 5, 53, 0
14, 632174, Note_on_c, 5, 74, 84
14, 632180, Note_on_c, 5, 72, 0
14, 632182, Note_on_c, 5, 62, 73
14, 632185, Note_on_c, 5, 60, 0
14, 632610, Note_on_c, 5, 60, 85
14, 632640, Note_on_c, 5, 60, 0
14, 632652, Note_on_c, 5, 59, 76
14, 632655, Note_on_c, 5, 53, 73
14, 632892, Note_on_c, 5, 59, 0
14, 632895, Note_on_c, 5, 53, 0
14, 633592, Note_on_c, 5, 62, 72
14, 633608, Note_on_c, 5, 61, 66
14, 633614, Note_on_c, 5, 55, 66
14, 633622, Note_on_c, 5, 62, 0
14, 633848, Note_on_c, 5, 61, 0
14, 633854, Note_on_c, 5, 55, 0
14, 634094, Note_on_c, 5, 74, 0
14, 634102, Note_on_c, 5, 62, 0
14, 634530, Note_on_c, 5, 62, 79
14, 634560, Note_on_c, 5, 62, 0
14, 634561, Note_on_c, 5, 60, 75
14, 634569, Note_on_c, 5, 54, 69
14, 634801, Note_on_c, 5, 60, 0
14, 634809, Note_on_c, 5, 54, 0
14, 635490, Note_on_c, 5, 62, 76
14, 635520, Note_on_c, 5, 62, 0
14, 635539, Note_on_c, 5, 60, 83
14, 635541, Note_on_c, 5, 54, 67
14, 635779, Note_on_c, 5, 60, 0
14, 635781, Note_on_c, 5, 54, 0
14, 636450, Note_on_c, 5, 62, 76
14, 636480, Note_on_c, 5, 62, 0
14, 636489, Note_on_c, 5, 55, 70
14, 636505, Note_on_c, 5, 61, 78
14, 636729, Note_on_c, 5, 55, 0
14, 636745, Note_on_c, 5, 61, 0
14, 636960, Note_on_c, 5, 69, 101
14, 636978, Note_on_c, 5, 57, 101
14, 637410, Note_on_c, 5, 60, 82
14, 637440, Note_on_c, 5, 69, 0
14, 637440, Note_on_c, 5, 60, 0
14, 637440, Note_on_c, 5, 74, 127
14, 637445, Note_on_c, 5, 62, 122
14, 637451, Note_on_c, 5, 59, 71
14, 637458, Note_on_c, 5, 57, 0
14, 637465, Note_on_c, 5, 53, 74
14, 637691, Note_on_c, 5, 59, 0
14, 637705, Note_on_c, 5, 53, 0
14, 637920, Note_on_c, 5, 74, 0
14, 637925, Note_on_c, 5, 62, 0
14, 637928, Note_on_c, 5, 72, 79
14, 637930, Note_on_c, 5, 60, 82
14, 638370, Note_on_c, 5, 60, 76
14, 638400, Note_on_c, 5, 60, 0
14, 638402, Note_on_c, 5, 53, 81
14, 638402, Note_on_c, 5, 59, 65
14, 638408, Note_on_c, 5, 72, 0
14, 638410, Note_on_c, 5, 60, 0
14, 638415, Note_on_c, 5, 74, 77
14, 638417, Note_on_c, 5, 62, 85
14, 638642, Note_on_c, 5, 53, 0
14, 638642, Note_on_c, 5, 59, 0
14, 639241, Note_on_c, 5, 60, 81
14, 639250, Note_on_c, 5, 54, 67
14, 639361, Note_on_c, 5, 60, 0
14, 639362, Note_on_c, 5, 53, 68
14, 639364, Note_on_c, 5, 59, 81
14, 639370, Note_on_c, 5, 54, 0
14, 639602, Note_on_c, 5, 53, 0
14, 639604, Note_on_c, 5, 59, 0
14, 640212, Note_on_c, 5, 61, 84
14, 640217, Note_on_c, 5, 55, 79
14, 640320, Note_on_c, 5, 53, 75
14, 640322, Note_on_c, 5, 59, 65
14, 640332, Note_on_c, 5, 61, 0
14, 640337, Note_on_c, 5, 55, 0
14, 640560, Note_on_c, 5, 53, 0
14, 640562, Note_on_c, 5, 59, 0
14, 641163, Note_on_c, 5, 56, 72
14, 641180, Note_on_c, 5, 62, 68
14, 641281, Note_on_c, 5, 54, 81
14, 641283, Note_on_c, 5, 56, 0
14, 641296, Note_on_c, 5, 60, 66
14, 641297, Note_on_c, 5, 62, 0
14, 641521, Note_on_c, 5, 54, 0
14, 641536, Note_on_c, 5, 60, 0
14, 642130, Note_on_c, 5, 55, 71
14, 642136, Note_on_c, 5, 61, 72
14, 642248, Note_on_c, 5, 60, 75
14, 642250, Note_on_c, 5, 55, 0
14, 642255, Note_on_c, 5, 74, 0
14, 642256, Note_on_c, 5, 61, 0
14, 642260, Note_on_c, 5, 62, 0
14, 642260, Note_on_c, 5, 54, 77
14, 642488, Note_on_c, 5, 60, 0
14, 642500, Note_on_c, 5, 54, 0
14, 643085, Note_on_c, 5, 54, 75
14, 643101, Note_on_c, 5, 60, 73
14, 643205, Note_on_c, 5, 54, 0
14, 643208, Note_on_c, 5, 59, 82
14, 643213, Note_on_c, 5, 74, 74
14, 643215, Note_on_c, 5, 62, 68
14, 643221, Note_on_c, 5, 60, 0
14, 643223, Note_on_c, 5, 53, 70
14, 643448, Note_on_c, 5, 59, 0
14, 643463, Note_on_c, 5, 53, 0
14, 644051, Note_on_c, 5, 55, 82
14, 644063, Note_on_c, 5, 61, 83
14, 644171, Note_on_c, 5, 55, 0
14, 644171, Note_on_c, 5, 59, 77
14, 644172, Note_on_c, 5, 53, 76
14, 644183, Note_on_c, 5, 61, 0
14, 644411, Note_on_c, 5, 59, 0
14, 644412, Note_on_c, 5, 53, 0
14, 645016, Note_on_c, 5, 61, 78
14, 645017, Note_on_c, 5, 55, 78
14, 645122, Note_on_c, 5, 53, 82
14, 645127, Note_on_c, 5, 59, 75
14, 645136, Note_on_c, 5, 61, 0
14, 645137, Note_on_c, 5, 55, 0
14, 645362, Note_on_c, 5, 53, 0
14, 645367, Note_on_c, 5, 59, 0
14, 645611, Note_on_c, 5, 57, 96
14, 645613, Note_on_c, 5, 74, 0
14, 645615, Note_on_c, 5, 62, 0
14, 645620, Note_on_c, 5, 69, 85
14, 645961, Note_on_c, 5, 63, 83
14, 645983, Note_on_c, 5, 57, 68
14, 646081, Note_on_c, 5, 63, 0
14, 646081, Note_on_c, 5, 62, 81
14, 646089, Note_on_c, 5, 62, 92
14, 646091, Note_on_c, 5, 57, 0
14, 646097, Note_on_c, 5, 56, 73
14, 646100, Note_on_c, 5, 69, 0
14, 646100, Note_on_c, 5, 74, 92
14, 646103, Note_on_c, 5, 57, 0
14, 646329, Note_on_c, 5, 62, 0
14, 646337, Note_on_c, 5, 56, 0
14, 646561, Note_on_c, 5, 62, 0
14, 646564, Note_on_c, 5, 72, 85
14, 646566, Note_on_c, 5, 60, 78
14, 646580, Note_on_c, 5, 74, 0
14, 646922, Note_on_c, 5, 60, 74
14, 646925, Note_on_c, 5, 54, 74
14, 647040, Note_on_c, 5, 53, 77
14, 647042, Note_on_c, 5, 60, 0
14, 647043, Note_on_c, 5, 74, 67
14, 647044, Note_on_c, 5, 72, 0
14, 647045, Note_on_c, 5, 54, 0
14, 647046, Note_on_c, 5, 60, 0
14, 647046, Note_on_c, 5, 59, 68
14, 647047, Note_on_c, 5, 62, 72
14, 647280, Note_on_c, 5, 53, 0
14, 647286, Note_on_c, 5, 59, 0
14, 647900, Note_on_c, 5, 55, 77
14, 647900, Note_on_c, 5, 61, 65
14, 648011, Note_on_c, 5, 53, 81
14, 648012, Note_on_c, 5, 59, 67
14, 648020, Note_on_c, 5, 55, 0
14, 648020, Note_on_c, 5, 61, 0
14, 648251, Note_on_c, 5, 53, 0
14, 648252, Note_on_c, 5, 59, 0
14, 648842, Note_on_c, 5, 62, 72
14, 648850, Note_on_c, 5, 56, 83
14, 648966, Note_on_c, 5, 60, 68
14, 648967, Note_on_c, 5, 62, 0
14, 648967, Note_on_c, 5, 54, 83
14, 648970, Note_on_c, 5, 56, 0
14, 649206, Note_on_c, 5, 60, 0
14, 649207, Note_on_c, 5, 54, 0
14, 649810, Note_on_c, 5, 55, 66
14, 649814, Note_on_c, 5, 61, 69
14, 649922, Note_on_c, 5, 62, 0
14, 649923, Note_on_c, 5, 74, 0
14, 649930, Note_on_c, 5, 55, 0
14, 649930, Note_on_c, 5, 54, 78
14, 649934, Note_on_c, 5, 61, 0
14, 649934, Note_on_c, 5, 60, 68
14, 650170, Note_on_c, 5, 54, 0
14, 650174, Note_on_c, 5, 60, 0
14, 650778, Note_on_c, 5, 54, 82
14, 650783, Note_on_c, 5, 60, 75
14, 650894, Note_on_c, 5, 59, 76
14, 650895, Note_on_c, 5, 53, 70
14, 650898, Note_on_c, 5, 54, 0
14, 650903, Note_on_c, 5, 60, 0
14, 651134, Note_on_c, 5, 59, 0
14, 651135, Note_on_c, 5, 53, 0
14, 651363, Note_on_c, 5, 74, 69
14, 651372, Note_on_c, 5, 62, 67
14, 651720, Note_on_c, 5, 61, 69
14, 651734, Note_on_c, 5, 55, 78
14, 651840, Note_on_c, 5, 61, 0
14, 651847, Note_on_c, 5, 53, 83
14, 651854, Note_on_c, 5, 55, 0
14, 651865, Note_on_c, 5, 59, 83
14, 652087, Note_on_c, 5, 53, 0
14, 652105, Note_on_c, 5, 59, 0
14, 652692, Note_on_c, 5, 55, 81
14, 652704, Note_on_c, 5, 61, 65
14, 652803, Note_on_c, 5, 74, 0
14, 652812, Note_on_c, 5, 62, 0
14, 652812, Note_on_c, 5, 55, 0
14, 652815, Note_on_c, 5, 57, 95
14, 652820, Note_on_c, 5, 69, 90
14, 652823, Note_on_c, 5, 59, 76
14, 652824, Note_on_c, 5, 61, 0
14, 652824, Note_on_c, 5, 53, 67
14, 653063, Note_on_c, 5, 59, 0
14, 653064, Note_on_c, 5, 53, 0
14, 653283, Note_on_c, 5, 62, 87
14, 653295, Note_on_c, 5, 57, 0
14, 653297, Note_on_c, 5, 74, 87
14, 653300, Note_on_c, 5, 69, 0
14, 653644, Note_on_c, 5, 57, 75
14, 653661, Note_on_c, 5, 63, 68
14, 653762, Note_on_c, 5, 56, 69
14, 653763, Note_on_c, 5, 62, 0
14, 653764, Note_on_c, 5, 57, 0
14, 653765, Note_on_c, 5, 72, 82
14, 653774, Note_on_c, 5, 60, 85
14, 653777, Note_on_c, 5, 74, 0
14, 653781, Note_on_c, 5, 63, 0
14, 653782, Note_on_c, 5, 62, 79
14, 654002, Note_on_c, 5, 56, 0
14, 654022, Note_on_c, 5, 62, 0
14, 654245, Note_on_c, 5, 72, 0
14, 654254, Note_on_c, 5, 60, 0
14, 654255, Note_on_c, 5, 62, 81
14, 654257, Note_on_c, 5, 74, 85
14, 654605, Note_on_c, 5, 53, 66
14, 654619, Note_on_c, 5, 59, 69
14, 654725, Note_on_c, 5, 53, 0
14, 654737, Note_on_c, 5, 57, 79
14, 654738, Note_on_c, 5, 51, 84
14, 654739, Note_on_c, 5, 59, 0
14, 654977, Note_on_c, 5, 57, 0
14, 654978, Note_on_c, 5, 51, 0
14, 655569, Note_on_c, 5, 55, 66
14, 655572, Note_on_c, 5, 61, 69
14, 655688, Note_on_c, 5, 59, 65
14, 655689, Note_on_c, 5, 55, 0
14, 655692, Note_on_c, 5, 61, 0
14, 655694, Note_on_c, 5, 53, 71
14, 655928, Note_on_c, 5, 59, 0
14, 655934, Note_on_c, 5, 53, 0
14, 656524, Note_on_c, 5, 65, 84
14, 656530, Note_on_c, 5, 59, 71
14, 656641, Note_on_c, 5, 69, 96
14, 656644, Note_on_c, 5, 65, 0
14, 656646, Note_on_c, 5, 57, 89
14, 656650, Note_on_c, 5, 59, 0
14, 656655, Note_on_c, 5, 62, 0
14, 656657, Note_on_c, 5, 74, 0
14, 656657, Note_on_c, 5, 63, 67
14, 656663, Note_on_c, 5, 57, 66
14, 656886, Note_on_c, 5, 57, 0
14, 656897, Note_on_c, 5, 63, 0
14, 657121, Note_on_c, 5, 69, 0
14, 657122, Note_on_c, 5, 74, 104
14, 657140, Note_on_c, 5, 62, 93
14, 657143, Note_on_c, 5, 57, 0
14, 657485, Note_on_c, 5, 61, 74
14, 657505, Note_on_c, 5, 67, 85
14, 657602, Note_on_c, 5, 74, 0
14, 657605, Note_on_c, 5, 61, 0
14, 657606, Note_on_c, 5, 66, 82
14, 657608, Note_on_c, 5, 60, 70
14, 657608, Note_on_c, 5, 72, 68
14, 657617, Note_on_c, 5, 60, 74
14, 657620, Note_on_c, 5, 62, 0
14, 657625, Note_on_c, 5, 67, 0
14, 657846, Note_on_c, 5, 66, 0
14, 657857, Note_on_c, 5, 60, 0
14, 658083, Note_on_c, 5, 74, 72
14, 658088, Note_on_c, 5, 72, 0
14, 658088, Note_on_c, 5, 60, 0
14, 658097, Note_on_c, 5, 62, 70
14, 658443, Note_on_c, 5, 53, 72
14, 658455, Note_on_c, 5, 59, 71
14, 658563, Note_on_c, 5, 53, 0
14, 658571, Note_on_c, 5, 51, 69
14, 658575, Note_on_c, 5, 59, 0
14, 658577, Note_on_c, 5, 57, 81
14, 658811, Note_on_c, 5, 51, 0
14, 658817, Note_on_c, 5, 57, 0
14, 659403, Note_on_c, 5, 55, 85
14, 659415, Note_on_c, 5, 61, 73
14, 659522, Note_on_c, 5, 59, 71
14, 659523, Note_on_c, 5, 55, 0
14, 659535, Note_on_c, 5, 61, 0
14, 659536, Note_on_c, 5, 53, 65
14, 659762, Note_on_c, 5, 59, 0
14, 659776, Note_on_c, 5, 53, 0
14, 660373, Note_on_c, 5, 59, 65
14, 660380, Note_on_c, 5, 65, 65
14, 660483, Note_on_c, 5, 74, 0
14, 660488, Note_on_c, 5, 57, 78
14, 660488, Note_on_c, 5, 69, 86
14, 660493, Note_on_c, 5, 59, 0
14, 660495, Note_on_c, 5, 63, 80
14, 660497, Note_on_c, 5, 62, 0
14, 660500, Note_on_c, 5, 65, 0
14, 660500, Note_on_c, 5, 57, 98
14, 660735, Note_on_c, 5, 63, 0
14, 660740, Note_on_c, 5, 57, 0
14, 660967, Note_on_c, 5, 62, 88
14, 660968, Note_on_c, 5, 69, 0
14, 660968, Note_on_c, 5, 57, 0
14, 660980, Note_on_c, 5, 74, 91
14, 661342, Note_on_c, 5, 61, 67
14, 661344, Note_on_c, 5, 67, 65
14, 661444, Note_on_c, 5, 60, 81
14, 661447, Note_on_c, 5, 62, 0
14, 661451, Note_on_c, 5, 66, 83
14, 661451, Note_on_c, 5, 60, 67
14, 661460, Note_on_c, 5, 74, 0
14, 661462, Note_on_c, 5, 61, 0
14, 661463, Note_on_c, 5, 72, 65
14, 661464, Note_on_c, 5, 67, 0
14, 661691, Note_on_c, 5, 60, 0
14, 661691, Note_on_c, 5, 66, 0
14, 661924, Note_on_c, 5, 60, 0
14, 661931, Note_on_c, 5, 74, 77
14, 661943, Note_on_c, 5, 72, 0
14, 661944, Note_on_c, 5, 62, 68
14, 662286, Note_on_c, 5, 53, 69
14, 662286, Note_on_c, 5, 59, 71
14, 662406, Note_on_c, 5, 53, 0
14, 662406, Note_on_c, 5, 59, 0
14, 662416, Note_on_c, 5, 51, 75
14, 662416, Note_on_c, 5, 57, 72
14, 662656, Note_on_c, 5, 51, 0
14, 662656, Note_on_c, 5, 57, 0
14, 663246, Note_on_c, 5, 55, 83
14, 663261, Note_on_c, 5, 61, 67
14, 663360, Note_on_c, 5, 53, 71
14, 663366, Note_on_c, 5, 55, 0
14, 663372, Note_on_c, 5, 59, 71
14, 663381, Note_on_c, 5, 61, 0
14, 663600, Note_on_c, 5, 53, 0
14, 663612, Note_on_c, 5, 59, 0
14, 664202, Note_on_c, 5, 65, 77
14, 664213, Note_on_c, 5, 59, 75
14, 664322, Note_on_c, 5, 65, 0
14, 664324, Note_on_c, 5, 57, 71
14, 664330, Note_on_c, 5, 57, 84
14, 664331, Note_on_c, 5, 74, 0
14, 664333, Note_on_c, 5, 59, 0
14, 664339, Note_on_c, 5, 69, 91
14, 664343, Note_on_c, 5, 63, 82
14, 664344, Note_on_c, 5, 62, 0
14, 664570, Note_on_c, 5, 57, 0
14, 664583, Note_on_c, 5, 63, 0
14, 664801, Note_on_c, 5, 62, 98
14, 664801, Note_on_c, 5, 74, 94
14, 664804, Note_on_c, 5, 57, 0
14, 664819, Note_on_c, 5, 69, 0
14, 665163, Note_on_c, 5, 61, 79
14, 665172, Note_on_c, 5, 67, 78
14, 665280, Note_on_c, 5, 60, 77
14, 665281, Note_on_c, 5, 62, 0
14, 665281, Note_on_c, 5, 74, 0
14, 665283, Note_on_c, 5, 61, 0
14, 665292, Note_on_c, 5, 67, 0
14, 665293, Note_on_c, 5, 60, 71
14, 665304, Note_on_c, 5, 66, 74
14, 665305, Note_on_c, 5, 72, 72
14, 665533, Note_on_c, 5, 60, 0
14, 665544, Note_on_c, 5, 66, 0
14, 665760, Note_on_c, 5, 60, 0
14, 665760, Note_on_c, 5, 62, 78
14, 665763, Note_on_c, 5, 74, 78
14, 665785, Note_on_c, 5, 72, 0
14, 666141, Note_on_c, 5, 53, 74
14, 666144, Note_on_c, 5, 59, 77
14, 666244, Note_on_c, 5, 51, 70
14, 666250, Note_on_c, 5, 57, 75
14, 666261, Note_on_c, 5, 53, 0
14, 666264, Note_on_c, 5, 59, 0
14, 666484, Note_on_c, 5, 51, 0
14, 666490, Note_on_c, 5, 57, 0
14, 667091, Note_on_c, 5, 61, 74
14, 667093, Note_on_c, 5, 55, 74
14, 667204, Note_on_c, 5, 59, 69
14, 667211, Note_on_c, 5, 61, 0
14, 667213, Note_on_c, 5, 55, 0
14, 667218, Note_on_c, 5, 53, 79
14, 667444, Note_on_c, 5, 59, 0
14, 667458, Note_on_c, 5, 53, 0
14, 668046, Note_on_c, 5, 59, 76
14, 668063, Note_on_c, 5, 65, 83
14, 668160, Note_on_c, 5, 62, 0
14, 668160, Note_on_c, 5, 63, 84
14, 668163, Note_on_c, 5, 74, 0
14, 668165, Note_on_c, 5, 57, 98
14, 668166, Note_on_c, 5, 59, 0
14, 668167, Note_on_c, 5, 57, 77
14, 668182, Note_on_c, 5, 69, 88
14, 668183, Note_on_c, 5, 65, 0
14, 668400, Note_on_c, 5, 63, 0
14, 668405, Note_on_c, 5, 57, 0
14, 668647, Note_on_c, 5, 57, 0
14, 668649, Note_on_c, 5, 62, 89
14, 668652, Note_on_c, 5, 74, 84
14, 668662, Note_on_c, 5, 69, 0
14, 669005, Note_on_c, 5, 61, 69
14, 669021, Note_on_c, 5, 67, 85
14, 669125, Note_on_c, 5, 61, 0
14, 669129, Note_on_c, 5, 62, 0
14, 669129, Note_on_c, 5, 72, 76
14, 669132, Note_on_c, 5, 74, 0
14, 669136, Note_on_c, 5, 60, 66
14, 669138, Note_on_c, 5, 66, 85
14, 669141, Note_on_c, 5, 67, 0
14, 669141, Note_on_c, 5, 60, 77
14, 669378, Note_on_c, 5, 66, 0
14, 669381, Note_on_c, 5, 60, 0
14, 669606, Note_on_c, 5, 74, 71
14, 669609, Note_on_c, 5, 72, 0
14, 669609, Note_on_c, 5, 62, 85
14, 669616, Note_on_c, 5, 60, 0
14, 669963, Note_on_c, 5, 59, 72
14, 669973, Note_on_c, 5, 53, 65
14, 670083, Note_on_c, 5, 59, 0
14, 670090, Note_on_c, 5, 51, 65
14, 670093, Note_on_c, 5, 53, 0
14, 670095, Note_on_c, 5, 57, 69
14, 670330, Note_on_c, 5, 51, 0
14, 670335, Note_on_c, 5, 57, 0
14, 670924, Note_on_c, 5, 61, 84
14, 670945, Note_on_c, 5, 55, 85
14, 671043, Note_on_c, 5, 59, 69
14, 671044, Note_on_c, 5, 61, 0
14, 671064, Note_on_c, 5, 53, 72
14, 671065, Note_on_c, 5, 55, 0
14, 671283, Note_on_c, 5, 59, 0
14, 671304, Note_on_c, 5, 53, 0
14, 671886, Note_on_c, 5, 59, 68
14, 671889, Note_on_c, 5, 65, 80
14, 672005, Note_on_c, 5, 57, 99
14, 672006, Note_on_c, 5, 74, 0
14, 672006, Note_on_c, 5, 59, 0
14, 672009, Note_on_c, 5, 62, 0
14, 672009, Note_on_c, 5, 65, 0
14, 672010, Note_on_c, 5, 63, 85
14, 672016, Note_on_c, 5, 69, 85
14, 672017, Note_on_c, 5, 57, 73
14, 672245, Note_on_c, 5, 57, 0
14, 672250, Note_on_c, 5, 63, 0
14, 672483, Note_on_c, 5, 62, 91
14, 672489, Note_on_c, 5, 74, 102
14, 672496, Note_on_c, 5, 69, 0
14, 672497, Note_on_c, 5, 57, 0
14, 672847, Note_on_c, 5, 61, 77
14, 672848, Note_on_c, 5, 67, 69
14, 672963, Note_on_c, 5, 62, 0
14, 672967, Note_on_c, 5, 61, 0
14, 672968, Note_on_c, 5, 67, 0
14, 672969, Note_on_c, 5, 74, 0
14, 672974, Note_on_c, 5, 60, 71
14, 672976, Note_on_c, 5, 72, 75
14, 672981, Note_on_c, 5, 66, 82
14, 672984, Note_on_c, 5, 60, 85
14, 673214, Note_on_c, 5, 60, 0
14, 673221, Note_on_c, 5, 66, 0
14, 673456, Note_on_c, 5, 72, 0
14, 673460, Note_on_c, 5, 74, 78
14, 673462, Note_on_c, 5, 62, 73
14, 673464, Note_on_c, 5, 60, 0
14, 673810, Note_on_c, 5, 53, 74
14, 673816, Note_on_c, 5, 59, 73
14, 673930, Note_on_c, 5, 53, 0
14, 673936, Note_on_c, 5, 59, 0
14, 673938, Note_on_c, 5, 51, 66
14, 673941, Note_on_c, 5, 57, 82
14, 674178, Note_on_c, 5, 51, 0
14, 674181, Note_on_c, 5, 57, 0
14, 674774, Note_on_c, 5, 61, 68
14, 674781, Note_on_c, 5, 55, 79
14, 674883, Note_on_c, 5, 53, 69
14, 674884, Note_on_c, 5, 59, 71
14, 674894, Note_on_c, 5, 61, 0
14, 674901, Note_on_c, 5, 55, 0
14, 675123, Note_on_c, 5, 53, 0
14, 675124, Note_on_c, 5, 59, 0
14, 675723, Note_on_c, 5, 65, 81
14, 675724, Note_on_c, 5, 59, 74
14, 675843, Note_on_c, 5, 65, 0
14, 675844, Note_on_c, 5, 59, 0
14, 675849, Note_on_c, 5, 57, 102
14, 675853, Note_on_c, 5, 69, 95
14, 675853, Note_on_c, 5, 57, 75
14, 675858, Note_on_c, 5, 63, 78
14, 675860, Note_on_c, 5, 74, 0
14, 675862, Note_on_c, 5, 62, 0
14, 676089, Note_on_c, 5, 57, 0
14, 676098, Note_on_c, 5, 63, 0
14, 676326, Note_on_c, 5, 62, 88
14, 676330, Note_on_c, 5, 74, 92
14, 676333, Note_on_c, 5, 69, 0
14, 676333, Note_on_c, 5, 57, 0
14, 676692, Note_on_c, 5, 61, 76
14, 676692, Note_on_c, 5, 67, 77
14, 676804, Note_on_c, 5, 72, 83
14, 676806, Note_on_c, 5, 62, 0
14, 676808, Note_on_c, 5, 60, 79
14, 676810, Note_on_c, 5, 74, 0
14, 676812, Note_on_c, 5, 61, 0
14, 676812, Note_on_c, 5, 67, 0
14, 676817, Note_on_c, 5, 66, 79
14, 676819, Note_on_c, 5, 60, 65
14, 677057, Note_on_c, 5, 66, 0
14, 677059, Note_on_c, 5, 60, 0
14, 677284, Note_on_c, 5, 72, 0
14, 677288, Note_on_c, 5, 60, 0
14, 689288, Note_on_c, 5, 43, 82
14, 689362, Note_on_c, 5, 48, 94
14, 689368, Note_on_c, 5, 43, 0
14, 689441, Note_on_c, 5, 48, 0
14, 689451, Note_on_c, 5, 52, 89
14, 689531, Note_on_c, 5, 52, 0
14, 689545, Note_on_c, 5, 55, 85
14, 689611, Note_on_c, 5, 58, 84
14, 689625, Note_on_c, 5, 55, 0
14, 689679, Note_on_c, 5, 60, 79
14, 689690, Note_on_c, 5, 58, 0
14, 689759, Note_on_c, 5, 60, 0
14, 690247, Note_on_c, 5, 60, 105
14, 690265, Note_on_c, 5, 64, 89
14, 690607, Note_on_c, 5, 60, 0
14, 690625, Note_on_c, 5, 64, 0
14, 691202, Note_on_c, 5, 64, 98
14, 691219, Note_on_c, 5, 60, 86
14, 691562, Note_on_c, 5, 64, 0
14, 691579, Note_on_c, 5, 60, 0
14, 692410, Note_on_c, 5, 64, 91
14, 692412, Note_on_c, 5, 60, 88
14, 692650, Note_on_c, 5, 64, 0
14, 692652, Note_on_c, 5, 60, 0
14, 693134, Note_on_c, 5, 60, 94
14, 693143, Note_on_c, 5, 64, 91
14, 693494, Note_on_c, 5, 60, 0
14, 693503, Note_on_c, 5, 64, 0
14, 694097, Note_on_c, 5, 66, 93
14, 694098, Note_on_c, 5, 62, 86
14, 694457, Note_on_c, 5, 66, 0
14, 694458, Note_on_c, 5, 62, 0
14, 694568, Note_on_c, 5, 68, 96
14, 694585, Note_on_c, 5, 64, 86
14, 694683, Note_on_c, 5, 68, 0
14, 694700, Note_on_c, 5, 64, 0
14, 694751, Note_on_c, 5, 62, 94
14, 694752, Note_on_c, 5, 66, 96
14, 694866, Note_on_c, 5, 62, 0
14, 694867, Note_on_c, 5, 66, 0
14, 694952, Note_on_c, 5, 64, 93
14, 694966, Note_on_c, 5, 60, 85
14, 695067, Note_on_c, 5, 64, 0
14, 695081, Note_on_c, 5, 60, 0
14, 695147, Note_on_c, 5, 62, 89
14, 695152, Note_on_c, 5, 59, 94
14, 695261, Note_on_c, 5, 62, 0
14, 695266, Note_on_c, 5, 59, 0
14, 695332, Note_on_c, 5, 60, 100
14, 695339, Note_on_c, 5, 64, 102
14, 695447, Note_on_c, 5, 60, 0
14, 695454, Note_on_c, 5, 64, 0
14, 695522, Note_on_c, 5, 62, 104
14, 695541, Note_on_c, 5, 66, 94
14, 695602, Note_on_c, 5, 62, 0
14, 695621, Note_on_c, 5, 66, 0
14, 695679, Note_on_c, 5, 64, 102
14, 695694, Note_on_c, 5, 60, 96
14, 695760, Note_on_c, 5, 64, 0
14, 695775, Note_on_c, 5, 60, 0
14, 695847, Note_on_c, 5, 62, 100
14, 695861, Note_on_c, 5, 59, 88
14, 695927, Note_on_c, 5, 62, 0
14, 695941, Note_on_c, 5, 59, 0
14, 696004, Note_on_c, 5, 64, 86
14, 696009, Note_on_c, 5, 60, 87
14, 696364, Note_on_c, 5, 64, 0
14, 696369, Note_on_c, 5, 60, 0
14, 696492, Note_on_c, 5, 43, 103
14, 696572, Note_on_c, 5, 43, 0
14, 696573, Note_on_c, 5, 48, 85
14, 696641, Note_on_c, 5, 52, 104
14, 696652, Note_on_c, 5, 48, 0
14, 696721, Note_on_c, 5, 52, 0
14, 696729, Note_on_c, 5, 55, 104
14, 696809, Note_on_c, 5, 55, 0
14, 696810, Note_on_c, 5, 58, 87
14, 696889, Note_on_c, 5, 58, 0
14, 696898, Note_on_c, 5, 60, 92
14, 696978, Note_on_c, 5, 60, 0
14, 697446, Note_on_c, 5, 62, 92
14, 697461, Note_on_c, 5, 66, 91
14, 697806, Note_on_c, 5, 62, 0
14, 697821, Note_on_c, 5, 66, 0
14, 697926, Note_on_c, 5, 43, 89
14, 698005, Note_on_c, 5, 48, 85
14, 698006, Note_on_c, 5, 43, 0
14, 698084, Note_on_c, 5, 48, 0
14, 698089, Note_on_c, 5, 52, 95
14, 698169, Note_on_c, 5, 52, 0
14, 698179, Note_on_c, 5, 55, 103
14, 698242, Note_on_c, 5, 58, 92
14, 698259, Note_on_c, 5, 55, 0
14, 698321, Note_on_c, 5, 58, 0
14, 698343, Note_on_c, 5, 60, 94
14, 698423, Note_on_c, 5, 60, 0
14, 698881, Note_on_c, 5, 68, 104
14, 698892, Note_on_c, 5, 64, 98
14, 699001, Note_on_c, 5, 68, 0
14, 699012, Note_on_c, 5, 64, 0
14, 699126, Note_on_c, 5, 62, 89
14, 699136, Note_on_c, 5, 66, 96
14, 699246, Note_on_c, 5, 62, 0
14, 699256, Note_on_c, 5, 66, 0
14, 699362, Note_on_c, 5, 60, 100
14, 699369, Note_on_c, 5, 64, 102
14, 699722, Note_on_c, 5, 60, 0
14, 699729, Note_on_c, 5, 64, 0
14, 700324, Note_on_c, 5, 66, 105
14, 700328, Note_on_c, 5, 62, 91
14, 700684, Note_on_c, 5, 66, 0
14, 700688, Note_on_c, 5, 62, 0
14, 701280, Note_on_c, 5, 60, 92
14, 701303, Note_on_c, 5, 64, 95
14, 701640, Note_on_c, 5, 60, 0
14, 701663, Note_on_c, 5, 64, 0
14, 702001, Note_on_c, 5, 64, 96
14, 702023, Note_on_c, 5, 60, 101
14, 702241, Note_on_c, 5, 64, 0
14, 702263, Note_on_c, 5, 60, 0
14, 702720, Note_on_c, 5, 63, 94
14, 702783, Note_on_c, 5, 63, 0
14, 702879, Note_on_c, 5, 58, 90
14, 702943, Note_on_c, 5, 58, 0
14, 703040, Note_on_c, 5, 58, 86
14, 703103, Note_on_c, 5, 58, 0
14, 703200, Note_on_c, 5, 60, 87
14, 703200, Note_on_c, 5, 58, 84
14, 703212, Note_on_c, 5, 64, 78
14, 703263, Note_on_c, 5, 58, 0
14, 703359, Note_on_c, 5, 58, 80
14, 703423, Note_on_c, 5, 58, 0
14, 703520, Note_on_c, 5, 58, 85
14, 703560, Note_on_c, 5, 60, 0
14, 703572, Note_on_c, 5, 64, 0
14, 703583, Note_on_c, 5, 58, 0
14, 704170, Note_on_c, 5, 62, 83
14, 704174, Note_on_c, 5, 66, 88
14, 704530, Note_on_c, 5, 62, 0
14, 704534, Note_on_c, 5, 66, 0
14, 704644, Note_on_c, 5, 68, 85
14, 704665, Note_on_c, 5, 64, 89
14, 704764, Note_on_c, 5, 68, 0
14, 704785, Note_on_c, 5, 64, 0
14, 704890, Note_on_c, 5, 66, 88
14, 704897, Note_on_c, 5, 62, 82
14, 705010, Note_on_c, 5, 66, 0
14, 705017, Note_on_c, 5, 62, 0
14, 705126, Note_on_c, 5, 64, 94
14, 705136, Note_on_c, 5, 60, 89
14, 705486, Note_on_c, 5, 64, 0
14, 705496, Note_on_c, 5, 60, 0
14, 706100, Note_on_c, 5, 64, 81
14, 706103, Note_on_c, 5, 68, 89
14, 706180, Note_on_c, 5, 64, 0
14, 706183, Note_on_c, 5, 68, 0
14, 706253, Note_on_c, 5, 62, 84
14, 706262, Note_on_c, 5, 65, 97
14, 706334, Note_on_c, 5, 62, 0
14, 706343, Note_on_c, 5, 65, 0
14, 706409, Note_on_c, 5, 60, 83
14, 706415, Note_on_c, 5, 64, 85
14, 706489, Note_on_c, 5, 60, 0
14, 706495, Note_on_c, 5, 64, 0
14, 706568, Note_on_c, 5, 64, 91
14, 706580, Note_on_c, 5, 68, 83
14, 706928, Note_on_c, 5, 64, 0
14, 706940, Note_on_c, 5, 68, 0
14, 707520, Note_on_c, 5, 68, 79
14, 707533, Note_on_c, 5, 64, 89
14, 707600, Note_on_c, 5, 68, 0
14, 707613, Note_on_c, 5, 64, 0
14, 707682, Note_on_c, 5, 62, 84
14, 707682, Note_on_c, 5, 66, 78
14, 707763, Note_on_c, 5, 62, 0
14, 707763, Note_on_c, 5, 66, 0
14, 707840, Note_on_c, 5, 60, 84
14, 707865, Note_on_c, 5, 64, 90
14, 707920, Note_on_c, 5, 60, 0
14, 707945, Note_on_c, 5, 64, 0
14, 708003, Note_on_c, 5, 62, 88
14, 708025, Note_on_c, 5, 66, 79
14, 708083, Note_on_c, 5, 62, 0
14, 708105, Note_on_c, 5, 66, 0
14, 708166, Note_on_c, 5, 64, 81
14, 708180, Note_on_c, 5, 60, 91
14, 708247, Note_on_c, 5, 64, 0
14, 708261, Note_on_c, 5, 60, 0
14, 708320, Note_on_c, 5, 59, 88
14, 708324, Note_on_c, 5, 62, 96
14, 708400, Note_on_c, 5, 59, 0
14, 708404, Note_on_c, 5, 62, 0
14, 708979, Note_on_c, 5, 43, 98
14, 709059, Note_on_c, 5, 43, 0
14, 709059, Note_on_c, 5, 48, 82
14, 709124, Note_on_c, 5, 52, 87
14, 709138, Note_on_c, 5, 48, 0
14, 709204, Note_on_c, 5, 52, 0
14, 709220, Note_on_c, 5, 55, 95
14, 709297, Note_on_c, 5, 58, 83
14, 709300, Note_on_c, 5, 55, 0
14, 709376, Note_on_c, 5, 58, 0
14, 709380, Note_on_c, 5, 60, 94
14, 709440, Note_on_c, 5, 63, 96
14, 709460, Note_on_c, 5, 60, 0
14, 709503, Note_on_c, 5, 63, 0
14, 709599, Note_on_c, 5, 58, 93
14, 709663, Note_on_c, 5, 58, 0
14, 709760, Note_on_c, 5, 58, 82
14, 709823, Note_on_c, 5, 58, 0
14, 709925, Note_on_c, 5, 58, 98
14, 710084, Note_on_c, 5, 58, 0
14, 710425, Note_on_c, 5, 64, 94
14, 710425, Note_on_c, 5, 68, 87
14, 710505, Note_on_c, 5, 64, 0
14, 710505, Note_on_c, 5, 68, 0
14, 710568, Note_on_c, 5, 66, 95
14, 710580, Note_on_c, 5, 62, 88
14, 710649, Note_on_c, 5, 66, 0
14, 710661, Note_on_c, 5, 62, 0
14, 710731, Note_on_c, 5, 60, 96
14, 710738, Note_on_c, 5, 64, 97
14, 710811, Note_on_c, 5, 60, 0
14, 710818, Note_on_c, 5, 64, 0
14, 710883, Note_on_c, 5, 66, 95
14, 710887, Note_on_c, 5, 62, 93
14, 710963, Note_on_c, 5, 66, 0
14, 710967, Note_on_c, 5, 62, 0
14, 711053, Note_on_c, 5, 64, 82
14, 711063, Note_on_c, 5, 60, 88
14, 711134, Note_on_c, 5, 64, 0
14, 711144, Note_on_c, 5, 60, 0
14, 711206, Note_on_c, 5, 62, 84
14, 711207, Note_on_c, 5, 59, 93
14, 711286, Note_on_c, 5, 62, 0
14, 711287, Note_on_c, 5, 59, 0
14, 711853, Note_on_c, 5, 43, 88
14, 711928, Note_on_c, 5, 48, 78
14, 711933, Note_on_c, 5, 43, 0
14, 712007, Note_on_c, 5, 48, 0
14, 712013, Note_on_c, 5, 52, 93
14, 712093, Note_on_c, 5, 52, 0
14, 712105, Note_on_c, 5, 55, 88
14, 712164, Note_on_c, 5, 58, 91
14, 712185, Note_on_c, 5, 55, 0
14, 712243, Note_on_c, 5, 58, 0
14, 712253, Note_on_c, 5, 60, 98
14, 712333, Note_on_c, 5, 60, 0
14, 712811, Note_on_c, 5, 60, 98
14, 712816, Note_on_c, 5, 64, 95
14, 713171, Note_on_c, 5, 60, 0
14, 713176, Note_on_c, 5, 64, 0
14, 713289, Note_on_c, 5, 60, 84
14, 713299, Note_on_c, 5, 64, 94
14, 713649, Note_on_c, 5, 60, 0
14, 713659, Note_on_c, 5, 64, 0
14, 713760, Note_on_c, 5, 63, 80
14, 713823, Note_on_c, 5, 63, 0
14, 713919, Note_on_c, 5, 58, 94
14, 713983, Note_on_c, 5, 58, 0
14, 714080, Note_on_c, 5, 58, 94
14, 714143, Note_on_c, 5, 58, 0
14, 714254, Note_on_c, 5, 60, 92
14, 714259, Note_on_c, 5, 64, 89
14, 714614, Note_on_c, 5, 60, 0
14, 714619, Note_on_c, 5, 64, 0
14, 714720, Note_on_c, 5, 63, 92
14, 714783, Note_on_c, 5, 63, 0
14, 714879, Note_on_c, 5, 58, 94
14, 714943, Note_on_c, 5, 58, 0
14, 715040, Note_on_c, 5, 58, 93
14, 715103, Note_on_c, 5, 58, 0
14, 715200, Note_on_c, 5, 58, 82
14, 715263, Note_on_c, 5, 58, 0
14, 715359, Note_on_c, 5, 58, 89
14, 715423, Note_on_c, 5, 58, 0
14, 715461, Note_on_c, 5, 60, 92
14, 715462, Note_on_c, 5, 64, 83
14, 715520, Note_on_c, 5, 58, 91
14, 715583, Note_on_c, 5, 58, 0
14, 715680, Note_on_c, 5, 63, 89
14, 715701, Note_on_c, 5, 60, 0
14, 715702, Note_on_c, 5, 64, 0
14, 715743, Note_on_c, 5, 63, 0
14, 715839, Note_on_c, 5, 58, 98
14, 715903, Note_on_c, 5, 58, 0
14, 716000, Note_on_c, 5, 58, 93
14, 716063, Note_on_c, 5, 58, 0
14, 716180, Note_on_c, 5, 64, 92
14, 716185, Note_on_c, 5, 60, 88
14, 716540, Note_on_c, 5, 64, 0
14, 716545, Note_on_c, 5, 60, 0
14, 717122, Note_on_c, 5, 60, 80
14, 717123, Note_on_c, 5, 64, 94
14, 717482, Note_on_c, 5, 60, 0
14, 717483, Note_on_c, 5, 64, 0
14, 717851, Note_on_c, 5, 64, 94
14, 717864, Note_on_c, 5, 60, 86
14, 718091, Note_on_c, 5, 64, 0
14, 718104, Note_on_c, 5, 60, 0
14, 719040, Note_on_c, 5, 63, 89
14, 719049, Note_on_c, 5, 64, 87
14, 719057, Note_on_c, 5, 60, 84
14, 719103, Note_on_c, 5, 63, 0
14, 719199, Note_on_c, 5, 58, 94
14, 719263, Note_on_c, 5, 58, 0
14, 719360, Note_on_c, 5, 58, 78
14, 719409, Note_on_c, 5, 64, 0
14, 719417, Note_on_c, 5, 60, 0
14, 719423, Note_on_c, 5, 58, 0
14, 719520, Note_on_c, 5, 63, 86
14, 719583, Note_on_c, 5, 63, 0
14, 719679, Note_on_c, 5, 58, 86
14, 719743, Note_on_c, 5, 58, 0
14, 719840, Note_on_c, 5, 58, 85
14, 719903, Note_on_c, 5, 58, 0
14, 720001, Note_on_c, 5, 60, 85
14, 720012, Note_on_c, 5, 64, 85
14, 720361, Note_on_c, 5, 60, 0
14, 720372, Note_on_c, 5, 64, 0
14, 720480, Note_on_c, 5, 63, 85
14, 720543, Note_on_c, 5, 63, 0
14, 720639, Note_on_c, 5, 58, 92
14, 720703, Note_on_c, 5, 58, 0
14, 720800, Note_on_c, 5, 58, 97
14, 720863, Note_on_c, 5, 58, 0
14, 720960, Note_on_c, 5, 64, 98
14, 720971, Note_on_c, 5, 60, 82
14, 721320, Note_on_c, 5, 64, 0
14, 721331, Note_on_c, 5, 60, 0
14, 721440, Note_on_c, 5, 63, 59
14, 721503, Note_on_c, 5, 63, 0
14, 721599, Note_on_c, 5, 58, 49
14, 721663, Note_on_c, 5, 58, 0
14, 721760, Note_on_c, 5, 58, 56
14, 721823, Note_on_c, 5, 58, 0
14, 721920, Note_on_c, 5, 63, 43
14, 721983, Note_on_c, 5, 63, 0
14, 722079, Note_on_c, 5, 58, 49
14, 722143, Note_on_c, 5, 58, 0
14, 722240, Note_on_c, 5, 58, 39
14, 722303, Note_on_c, 5, 58, 0
14, 722400, Note_on_c, 5, 58, 56
14, 722463, Note_on_c, 5, 58, 0
14, 723360, Note_on_c, 5, 63, 46
14, 723423, Note_on_c, 5, 63, 0
14, 723519, Note_on_c, 5, 58, 57
14, 723583, Note_on_c, 5, 58, 0
14, 723680, Note_on_c, 5, 58, 47
14, 723743, Note_on_c, 5, 58, 0
14, 723840, Note_on_c, 5, 58, 59
14, 723903, Note_on_c, 5, 58, 0
14, 724320, Note_on_c, 5, 63, 42
14, 724383, Note_on_c, 5, 63, 0
14, 724479, Note_on_c, 5, 58, 57
14, 724543, Note_on_c, 5, 58, 0
14, 724640, Note_on_c, 5, 58, 59
14, 724703, Note_on_c, 5, 58, 0
14, 724800, Note_on_c, 5, 58, 56
14, 724863, Note_on_c, 5, 58, 0
14, 725139, Note_on_c, 5, 63, 40
14, 725288, Note_on_c, 5, 61, 57
14, 725298, Note_on_c, 5, 63, 0
14, 725447, Note_on_c, 5, 61, 0
14, 725454, Note_on_c, 5, 60, 51
14, 725614, Note_on_c, 5, 60, 0
14, 725614, Note_on_c, 5, 58, 53
14, 725760, Note_on_c, 5, 63, 45
14, 725773, Note_on_c, 5, 58, 0
14, 725823, Note_on_c, 5, 63, 0
14, 725919, Note_on_c, 5, 58, 51
14, 725983, Note_on_c, 5, 58, 0
14, 726080, Note_on_c, 5, 58, 54
14, 726143, Note_on_c, 5, 58, 0
14, 726240, Note_on_c, 5, 58, 53
14, 726303, Note_on_c, 5, 58, 0
14, 728640, Note_on_c, 5, 63, 75
14, 728703, Note_on_c, 5, 63, 0
14, 728799, Note_on_c, 5, 58, 67
14, 728863, Note_on_c, 5, 58, 0
14, 728960, Note_on_c, 5, 63, 70
14, 729023, Note_on_c, 5, 63, 0
14, 729120, Note_on_c, 5, 61, 67
14, 729183, Note_on_c, 5, 61, 0
14, 729279, Note_on_c, 5, 60, 72
14, 729343, Note_on_c, 5, 60, 0
14, 729440, Note_on_c, 5, 58, 75
14, 729503, Note_on_c, 5, 58, 0
14, 729600, Note_on_c, 5, 63, 76
14, 729663, Note_on_c, 5, 63, 0
14, 729759, Note_on_c, 5, 58, 75
14, 729823, Note_on_c, 5, 58, 0
14, 729920, Note_on_c, 5, 58, 81
14, 729983, Note_on_c, 5, 58, 0
14, 730080, Note_on_c, 5, 63, 68
14, 730143, Note_on_c, 5, 63, 0
14, 730239, Note_on_c, 5, 58, 82
14, 730303, Note_on_c, 5, 58, 0
14, 730400, Note_on_c, 5, 58, 71
14, 730463, Note_on_c, 5, 58, 0
14, 730560, Note_on_c, 5, 63, 83
14, 730623, Note_on_c, 5, 63, 0
14, 730719, Note_on_c, 5, 58, 82
14, 730783, Note_on_c, 5, 58, 0
14, 730880, Note_on_c, 5, 58, 85
14, 730943, Note_on_c, 5, 58, 0
14, 731040, Note_on_c, 5, 58, 68
14, 731103, Note_on_c, 5, 58, 0
14, 732000, Note_on_c, 5, 63, 68
14, 732063, Note_on_c, 5, 63, 0
14, 732159, Note_on_c, 5, 58, 68
14, 732223, Note_on_c, 5, 58, 0
14, 732320, Note_on_c, 5, 58, 84
14, 732383, Note_on_c, 5, 58, 0
14, 732480, Note_on_c, 5, 58, 73
14, 732543, Note_on_c, 5, 58, 0
14, 732639, Note_on_c, 5, 58, 65
14, 732703, Note_on_c, 5, 58, 0
14, 732800, Note_on_c, 5, 63, 75
14, 732863, Note_on_c, 5, 63, 0
14, 732960, Note_on_c, 5, 61, 71
14, 733023, Note_on_c, 5, 61, 0
14, 733119, Note_on_c, 5, 60, 80
14, 733183, Note_on_c, 5, 60, 0
14, 733280, Note_on_c, 5, 58, 71
14, 733343, Note_on_c, 5, 58, 0
14, 733440, Note_on_c, 5, 63, 78
14, 733503, Note_on_c, 5, 63, 0
14, 734400, Note_on_c, 5, 63, 80
14, 734463, Note_on_c, 5, 63, 0
14, 734559, Note_on_c, 5, 58, 66
14, 734623, Note_on_c, 5, 58, 0
14, 734720, Note_on_c, 5, 58, 73
14, 734783, Note_on_c, 5, 58, 0
14, 734880, Note_on_c, 5, 58, 83
14, 734943, Note_on_c, 5, 58, 0
14, 735039, Note_on_c, 5, 58, 65
14, 735103, Note_on_c, 5, 58, 0
14, 735200, Note_on_c, 5, 58, 81
14, 735263, Note_on_c, 5, 58, 0
14, 735360, Note_on_c, 5, 70, 74
14, 735360, Note_on_c, 5, 63, 81
14, 735423, Note_on_c, 5, 70, 0
14, 735423, Note_on_c, 5, 63, 0
14, 735519, Note_on_c, 5, 65, 83
14, 735519, Note_on_c, 5, 58, 72
14, 735583, Note_on_c, 5, 65, 0
14, 735583, Note_on_c, 5, 58, 0
14, 735680, Note_on_c, 5, 70, 81
14, 735680, Note_on_c, 5, 63, 82
14, 735743, Note_on_c, 5, 70, 0
14, 735743, Note_on_c, 5, 63, 0
14, 735840, Note_on_c, 5, 68, 65
14, 735840, Note_on_c, 5, 61, 83
14, 735903, Note_on_c, 5, 68, 0
14, 735903, Note_on_c, 5, 61, 0
14, 735999, Note_on_c, 5, 67, 75
14, 735999, Note_on_c, 5, 60, 71
14, 736063, Note_on_c, 5, 67, 0
14, 736063, Note_on_c, 5, 60, 0
14, 736160, Note_on_c, 5, 65, 74
14, 736160, Note_on_c, 5, 58, 74
14, 736223, Note_on_c, 5, 65, 0
14, 736223, Note_on_c, 5, 58, 0
14, 736320, Note_on_c, 5, 70, 84
14, 736320, Note_on_c, 5, 63, 75
14, 736383, Note_on_c, 5, 70, 0
14, 736383, Note_on_c, 5, 63, 0
14, 736479, Note_on_c, 5, 65, 65
14, 736479, Note_on_c, 5, 58, 71
14, 736543, Note_on_c, 5, 65, 0
14, 736543, Note_on_c, 5, 58, 0
14, 736640, Note_on_c, 5, 65, 72
14, 736640, Note_on_c, 5, 58, 74
14, 736703, Note_on_c, 5, 65, 0
14, 736703, Note_on_c, 5, 58, 0
14, 736800, Note_on_c, 5, 65, 79
14, 736800, Note_on_c, 5, 58, 74
14, 736863, Note_on_c, 5, 65, 0
14, 736863, Note_on_c, 5, 58, 0
14, 736959, Note_on_c, 5, 65, 72
14, 736959, Note_on_c, 5, 58, 85
14, 737023, Note_on_c, 5, 65, 0
14, 737023, Note_on_c, 5, 58, 0
14, 737120, Note_on_c, 5, 65, 79
14, 737120, Note_on_c, 5, 58, 68
14, 737183, Note_on_c, 5, 65, 0
14, 737183, Note_on_c, 5, 58, 0
14, 737280, Note_on_c, 5, 65, 75
14, 737280, Note_on_c, 5, 58, 68
14, 737343, Note_on_c, 5, 65, 0
14, 737343, Note_on_c, 5, 58, 0
14, 737439, Note_on_c, 5, 65, 71
14, 737439, Note_on_c, 5, 58, 71
14, 737503, Note_on_c, 5, 65, 0
14, 737503, Note_on_c, 5, 58, 0
14, 737600, Note_on_c, 5, 65, 81
14, 737600, Note_on_c, 5, 58, 71
14, 737663, Note_on_c, 5, 65, 0
14, 737663, Note_on_c, 5, 58, 0
14, 737760, Note_on_c, 5, 70, 85
14, 737760, Note_on_c, 5, 63, 81
14, 737823, Note_on_c, 5, 70, 0
14, 737823, Note_on_c, 5, 63, 0
14, 737919, Note_on_c, 5, 65, 70
14, 737919, Note_on_c, 5, 58, 73
14, 737983, Note_on_c, 5, 65, 0
14, 737983, Note_on_c, 5, 58, 0
14, 738080, Note_on_c, 5, 65, 82
14, 738080, Note_on_c, 5, 58, 80
14, 738143, Note_on_c, 5, 65, 0
14, 738143, Note_on_c, 5, 58, 0
14, 738240, Note_on_c, 5, 70, 74
14, 738240, Note_on_c, 5, 63, 80
14, 738303, Note_on_c, 5, 70, 0
14, 738303, Note_on_c, 5, 63, 0
14, 738399, Note_on_c, 5, 65, 67
14, 738399, Note_on_c, 5, 58, 82
14, 738463, Note_on_c, 5, 65, 0
14, 738463, Note_on_c, 5, 58, 0
14, 738560, Note_on_c, 5, 65, 66
14, 738560, Note_on_c, 5, 58, 79
14, 738623, Note_on_c, 5, 65, 0
14, 738623, Note_on_c, 5, 58, 0
14, 738720, Note_on_c, 5, 65, 78
14, 738720, Note_on_c, 5, 58, 66
14, 738783, Note_on_c, 5, 65, 0
14, 738783, Note_on_c, 5, 58, 0
14, 738879, Note_on_c, 5, 65, 66
14, 738879, Note_on_c, 5, 58, 80
14, 738943, Note_on_c, 5, 65, 0
14, 738943, Note_on_c, 5, 58, 0
14, 739040, Note_on_c, 5, 65, 66
14, 739040, Note_on_c, 5, 58, 82
14, 739103, Note_on_c, 5, 65, 0
14, 739103, Note_on_c, 5, 58, 0
14, 739200, Note_on_c, 5, 70, 76
14, 739200, Note_on_c, 5, 63, 73
14, 739263, Note_on_c, 5, 70, 0
14, 739263, Note_on_c, 5, 63, 0
14, 739359, Note_on_c, 5, 65, 78
14, 739359, Note_on_c, 5, 58, 74
14, 739423, Note_on_c, 5, 65, 0
14, 739423, Note_on_c, 5, 58, 0
14, 739520, Note_on_c, 5, 65, 74
14, 739520, Note_on_c, 5, 58, 79
14, 739583, Note_on_c, 5, 65, 0
14, 739583, Note_on_c, 5, 58, 0
14, 739680, Note_on_c, 5, 65, 72
14, 739680, Note_on_c, 5, 58, 68
14, 739743, Note_on_c, 5, 65, 0
14, 739743, Note_on_c, 5, 58, 0
14, 739839, Note_on_c, 5, 65, 79
14, 739839, Note_on_c, 5, 58, 68
14, 739903, Note_on_c, 5, 65, 0
14, 739903, Note_on_c, 5, 58, 0
14, 740000, Note_on_c, 5, 65, 68
14, 740000, Note_on_c, 5, 58, 79
14, 740063, Note_on_c, 5, 65, 0
14, 740063, Note_on_c, 5, 58, 0
14, 740160, Note_on_c, 5, 70, 81
14, 740160, Note_on_c, 5, 63, 85
14, 740223, Note_on_c, 5, 70, 0
14, 740223, Note_on_c, 5, 63, 0
14, 740319, Note_on_c, 5, 65, 85
14, 740319, Note_on_c, 5, 58, 82
14, 740383, Note_on_c, 5, 65, 0
14, 740383, Note_on_c, 5, 58, 0
14, 740480, Note_on_c, 5, 70, 71
14, 740480, Note_on_c, 5, 63, 79
14, 740543, Note_on_c, 5, 70, 0
14, 740543, Note_on_c, 5, 63, 0
14, 740640, Note_on_c, 5, 68, 85
14, 740640, Note_on_c, 5, 61, 78
14, 740703, Note_on_c, 5, 68, 0
14, 740703, Note_on_c, 5, 61, 0
14, 740799, Note_on_c, 5, 67, 82
14, 740799, Note_on_c, 5, 60, 80
14, 740863, Note_on_c, 5, 67, 0
14, 740863, Note_on_c, 5, 60, 0
14, 740960, Note_on_c, 5, 65, 72
14, 740960, Note_on_c, 5, 58, 66
14, 741023, Note_on_c, 5, 65, 0
14, 741023, Note_on_c, 5, 58, 0
14, 741120, Note_on_c, 5, 70, 71
14, 741120, Note_on_c, 5, 63, 85
14, 741183, Note_on_c, 5, 70, 0
14, 741183, Note_on_c, 5, 63, 0
14, 741279, Note_on_c, 5, 65, 79
14, 741279, Note_on_c, 5, 58, 75
14, 741343, Note_on_c, 5, 65, 0
14, 741343, Note_on_c, 5, 58, 0
14, 741440, Note_on_c, 5, 65, 81
14, 741440, Note_on_c, 5, 58, 77
14, 741503, Note_on_c, 5, 65, 0
14, 741503, Note_on_c, 5, 58, 0
14, 741600, Note_on_c, 5, 63, 92
14, 741600, Note_on_c, 5, 70, 93
14, 741600, Note_on_c, 5, 75, 82
14, 741600, Note_on_c, 5, 63, 79
14, 741600, Note_on_c, 5, 72, 83
14, 741663, Note_on_c, 5, 63, 0
14, 741663, Note_on_c, 5, 70, 0
14, 741663, Note_on_c, 5, 75, 0
14, 741663, Note_on_c, 5, 63, 0
14, 741663, Note_on_c, 5, 72, 0
14, 741759, Note_on_c, 5, 65, 89
14, 741759, Note_on_c, 5, 58, 98
14, 741759, Note_on_c, 5, 70, 86
14, 741823, Note_on_c, 5, 65, 0
14, 741823, Note_on_c, 5, 58, 0
14, 741823, Note_on_c, 5, 70, 0
14, 741920, Note_on_c, 5, 70, 82
14, 741920, Note_on_c, 5, 63, 85
14, 741983, Note_on_c, 5, 70, 0
14, 741983, Note_on_c, 5, 63, 0
14, 742080, Note_on_c, 5, 68, 94
14, 742080, Note_on_c, 5, 61, 86
14, 742143, Note_on_c, 5, 68, 0
14, 742143, Note_on_c, 5, 61, 0
14, 742239, Note_on_c, 5, 67, 91
14, 742239, Note_on_c, 5, 60, 81
14, 742303, Note_on_c, 5, 67, 0
14, 742303, Note_on_c, 5, 60, 0
14, 742400, Note_on_c, 5, 65, 94
14, 742400, Note_on_c, 5, 58, 81
14, 742400, Note_on_c, 5, 70, 84
14, 742463, Note_on_c, 5, 65, 0
14, 742463, Note_on_c, 5, 58, 0
14, 742463, Note_on_c, 5, 70, 0
14, 742560, Note_on_c, 5, 70, 85
14, 742560, Note_on_c, 5, 63, 98
14, 742623, Note_on_c, 5, 70, 0
14, 742623, Note_on_c, 5, 63, 0
14, 742719, Note_on_c, 5, 65, 93
14, 742719, Note_on_c, 5, 58, 92
14, 742783, Note_on_c, 5, 65, 0
14, 742783, Note_on_c, 5, 58, 0
14, 742880, Note_on_c, 5, 65, 97
14, 742880, Note_on_c, 5, 58, 84
14, 742943, Note_on_c, 5, 65, 0
14, 742943, Note_on_c, 5, 58, 0
14, 743040, Note_on_c, 5, 70, 98
14, 743040, Note_on_c, 5, 63, 84
14, 743103, Note_on_c, 5, 70, 0
14, 743103, Note_on_c, 5, 63, 0
14, 743199, Note_on_c, 5, 65, 88
14, 743199, Note_on_c, 5, 58, 84
14, 743263, Note_on_c, 5, 65, 0
14, 743263, Note_on_c, 5, 58, 0
14, 743360, Note_on_c, 5, 65, 85
14, 743360, Note_on_c, 5, 63, 80
14, 743423, Note_on_c, 5, 65, 0
14, 743423, Note_on_c, 5, 63, 0
14, 743520, Note_on_c, 5, 70, 96
14, 743520, Note_on_c, 5, 61, 90
14, 743583, Note_on_c, 5, 70, 0
14, 743583, Note_on_c, 5, 61, 0
14, 743679, Note_on_c, 5, 65, 92
14, 743679, Note_on_c, 5, 60, 93
14, 743743, Note_on_c, 5, 65, 0
14, 743743, Note_on_c, 5, 60, 0
14, 743840, Note_on_c, 5, 70, 81
14, 743840, Note_on_c, 5, 58, 88
14, 743903, Note_on_c, 5, 70, 0
14, 743903, Note_on_c, 5, 58, 0
14, 744000, Note_on_c, 5, 68, 86
14, 744000, Note_on_c, 5, 63, 85
14, 744063, Note_on_c, 5, 68, 0
14, 744063, Note_on_c, 5, 63, 0
14, 744159, Note_on_c, 5, 67, 91
14, 744159, Note_on_c, 5, 58, 83
14, 744223, Note_on_c, 5, 67, 0
14, 744223, Note_on_c, 5, 58, 0
14, 744320, Note_on_c, 5, 65, 95
14, 744320, Note_on_c, 5, 58, 91
14, 744383, Note_on_c, 5, 65, 0
14, 744383, Note_on_c, 5, 58, 0
14, 744480, Note_on_c, 5, 70, 85
14, 744480, Note_on_c, 5, 63, 98
14, 744543, Note_on_c, 5, 70, 0
14, 744543, Note_on_c, 5, 63, 0
14, 744639, Note_on_c, 5, 68, 79
14, 744639, Note_on_c, 5, 61, 97
14, 744703, Note_on_c, 5, 68, 0
14, 744703, Note_on_c, 5, 61, 0
14, 744800, Note_on_c, 5, 67, 95
14, 744800, Note_on_c, 5, 60, 87
14, 744863, Note_on_c, 5, 67, 0
14, 744863, Note_on_c, 5, 60, 0
14, 744960, Note_on_c, 5, 65, 88
14, 744960, Note_on_c, 5, 58, 82
14, 745023, Note_on_c, 5, 65, 0
14, 745023, Note_on_c, 5, 58, 0
14, 745119, Note_on_c, 5, 70, 87
14, 745119, Note_on_c, 5, 63, 92
14, 745183, Note_on_c, 5, 70, 0
14, 745183, Note_on_c, 5, 63, 0
14, 745280, Note_on_c, 5, 68, 80
14, 745280, Note_on_c, 5, 61, 94
14, 745343, Note_on_c, 5, 68, 0
14, 745343, Note_on_c, 5, 61, 0
14, 745440, Note_on_c, 5, 67, 94
14, 745440, Note_on_c, 5, 60, 80
14, 745503, Note_on_c, 5, 67, 0
14, 745503, Note_on_c, 5, 60, 0
14, 745599, Note_on_c, 5, 65, 93
14, 745599, Note_on_c, 5, 58, 90
14, 745663, Note_on_c, 5, 65, 0
14, 745663, Note_on_c, 5, 58, 0
14, 745760, Note_on_c, 5, 70, 86
14, 745760, Note_on_c, 5, 63, 97
14, 745823, Note_on_c, 5, 70, 0
14, 745823, Note_on_c, 5, 63, 0
14, 745920, Note_on_c, 5, 68, 83
14, 745920, Note_on_c, 5, 61, 81
14, 745983, Note_on_c, 5, 68, 0
14, 745983, Note_on_c, 5, 61, 0
14, 746079, Note_on_c, 5, 67, 83
14, 746079, Note_on_c, 5, 60, 88
14, 746143, Note_on_c, 5, 67, 0
14, 746143, Note_on_c, 5, 60, 0
14, 746240, Note_on_c, 5, 65, 82
14, 746240, Note_on_c, 5, 58, 89
14, 746303, Note_on_c, 5, 65, 0
14, 746303, Note_on_c, 5, 58, 0
14, 746400, Note_on_c, 5, 70, 80
14, 746400, Note_on_c, 5, 63, 86
14, 746463, Note_on_c, 5, 70, 0
14, 746463, Note_on_c, 5, 63, 0
14, 746559, Note_on_c, 5, 65, 95
14, 746559, Note_on_c, 5, 58, 81
14, 746623, Note_on_c, 5, 65, 0
14, 746623, Note_on_c, 5, 58, 0
14, 746720, Note_on_c, 5, 65, 79
14, 746720, Note_on_c, 5, 58, 83
14, 746783, Note_on_c, 5, 65, 0
14, 746783, Note_on_c, 5, 58, 0
14, 746880, Note_on_c, 5, 70, 83
14, 746880, Note_on_c, 5, 75, 94
14, 746880, Note_on_c, 5, 63, 85
14, 746943, Note_on_c, 5, 70, 0
14, 746943, Note_on_c, 5, 75, 0
14, 746943, Note_on_c, 5, 63, 0
14, 747039, Note_on_c, 5, 65, 84
14, 747039, Note_on_c, 5, 70, 97
14, 747039, Note_on_c, 5, 58, 87
14, 747103, Note_on_c, 5, 65, 0
14, 747103, Note_on_c, 5, 70, 0
14, 747103, Note_on_c, 5, 58, 0
14, 747200, Note_on_c, 5, 65, 87
14, 747200, Note_on_c, 5, 70, 98
14, 747200, Note_on_c, 5, 58, 94
14, 747263, Note_on_c, 5, 65, 0
14, 747263, Note_on_c, 5, 70, 0
14, 747263, Note_on_c, 5, 58, 0
14, 747360, Note_on_c, 5, 65, 84
14, 747360, Note_on_c, 5, 70, 98
14, 747360, Note_on_c, 5, 58, 90
14, 747423, Note_on_c, 5, 65, 0
14, 747423, Note_on_c, 5, 70, 0
14, 747423, Note_on_c, 5, 58, 0
14, 747519, Note_on_c, 5, 65, 86
14, 747519, Note_on_c, 5, 70, 80
14, 747519, Note_on_c, 5, 58, 81
14, 747583, Note_on_c, 5, 65, 0
14, 747583, Note_on_c, 5, 70, 0
14, 747583, Note_on_c, 5, 58, 0
14, 747680, Note_on_c, 5, 65, 84
14, 747680, Note_on_c, 5, 70, 98
14, 747680, Note_on_c, 5, 58, 88
14, 747743, Note_on_c, 5, 65, 0
14, 747743, Note_on_c, 5, 70, 0
14, 747743, Note_on_c, 5, 58, 0
14, 747840, Note_on_c, 5, 65, 91
14, 747840, Note_on_c, 5, 70, 91
14, 747840, Note_on_c, 5, 58, 96
14, 747903, Note_on_c, 5, 65, 0
14, 747903, Note_on_c, 5, 70, 0
14, 747903, Note_on_c, 5, 58, 0
14, 747999, Note_on_c, 5, 65, 89
14, 747999, Note_on_c, 5, 70, 80
14, 747999, Note_on_c, 5, 58, 92
14, 748063, Note_on_c, 5, 65, 0
14, 748063, Note_on_c, 5, 70, 0
14, 748063, Note_on_c, 5, 58, 0
14, 748160, Note_on_c, 5, 65, 81
14, 748160, Note_on_c, 5, 70, 82
14, 748160, Note_on_c, 5, 58, 97
14, 748223, Note_on_c, 5, 65, 0
14, 748223, Note_on_c, 5, 70, 0
14, 748223, Note_on_c, 5, 58, 0
14, 748320, Note_on_c, 5, 63, 98
14, 748320, Note_on_c, 5, 70, 84
14, 748320, Note_on_c, 5, 75, 90
14, 748320, Note_on_c, 5, 63, 79
14, 748383, Note_on_c, 5, 63, 0
14, 748383, Note_on_c, 5, 70, 0
14, 748383, Note_on_c, 5, 75, 0
14, 748383, Note_on_c, 5, 63, 0
14, 748479, Note_on_c, 5, 65, 90
14, 748479, Note_on_c, 5, 70, 81
14, 748479, Note_on_c, 5, 58, 85
14, 748543, Note_on_c, 5, 65, 0
14, 748543, Note_on_c, 5, 70, 0
14, 748543, Note_on_c, 5, 58, 0
14, 748640, Note_on_c, 5, 70, 83
14, 748640, Note_on_c, 5, 75, 97
14, 748640, Note_on_c, 5, 63, 90
14, 748703, Note_on_c, 5, 70, 0
14, 748703, Note_on_c, 5, 75, 0
14, 748703, Note_on_c, 5, 63, 0
14, 748800, Note_on_c, 5, 68, 85
14, 748800, Note_on_c, 5, 73, 78
14, 748800, Note_on_c, 5, 61, 94
14, 748863, Note_on_c, 5, 68, 0
14, 748863, Note_on_c, 5, 73, 0
14, 748863, Note_on_c, 5, 61, 0
14, 748959, Note_on_c, 5, 67, 91
14, 748959, Note_on_c, 5, 60, 92
14, 748959, Note_on_c, 5, 72, 88
14, 749023, Note_on_c, 5, 67, 0
14, 749023, Note_on_c, 5, 60, 0
14, 749023, Note_on_c, 5, 72, 0
14, 749120, Note_on_c, 5, 65, 92
14, 749120, Note_on_c, 5, 58, 89
14, 749120, Note_on_c, 5, 70, 92
14, 749183, Note_on_c, 5, 65, 0
14, 749183, Note_on_c, 5, 58, 0
14, 749183, Note_on_c, 5, 70, 0
14, 749280, Note_on_c, 5, 70, 94
14, 749280, Note_on_c, 5, 75, 96
14, 749280, Note_on_c, 5, 63, 98
14, 749343, Note_on_c, 5, 70, 0
14, 749343, Note_on_c, 5, 75, 0
14, 749343, Note_on_c, 5, 63, 0
14, 749439, Note_on_c, 5, 65, 78
14, 749439, Note_on_c, 5, 58, 87
14, 749503, Note_on_c, 5, 65, 0
14, 749503, Note_on_c, 5, 58, 0
14, 749600, Note_on_c, 5, 70, 96
14, 749600, Note_on_c, 5, 63, 89
14, 749663, Note_on_c, 5, 70, 0
14, 749663, Note_on_c, 5, 63, 0
14, 749760, Note_on_c, 5, 68, 85
14, 749760, Note_on_c, 5, 61, 84
14, 749823, Note_on_c, 5, 68, 0
14, 749823, Note_on_c, 5, 61, 0
14, 749919, Note_on_c, 5, 67, 98
14, 749919, Note_on_c, 5, 60, 83
14, 749983, Note_on_c, 5, 67, 0
14, 749983, Note_on_c, 5, 60, 0
14, 750080, Note_on_c, 5, 65, 86
14, 750080, Note_on_c, 5, 58, 91
14, 750143, Note_on_c, 5, 65, 0
14, 750143, Note_on_c, 5, 58, 0
14, 750240, Note_on_c, 5, 70, 85
14, 750240, Note_on_c, 5, 63, 89
14, 750303, Note_on_c, 5, 70, 0
14, 750303, Note_on_c, 5, 63, 0
14, 750399, Note_on_c, 5, 65, 95
14, 750399, Note_on_c, 5, 58, 96
14, 750463, Note_on_c, 5, 65, 0
14, 750463, Note_on_c, 5, 58, 0
14, 750560, Note_on_c, 5, 65, 82
14, 750560, Note_on_c, 5, 58, 90
14, 750623, Note_on_c, 5, 65, 0
14, 750623, Note_on_c, 5, 58, 0
14, 750720, Note_on_c, 5, 65, 98
14, 750720, Note_on_c, 5, 58, 85
14, 750783, Note_on_c, 5, 65, 0
14, 750783, Note_on_c, 5, 58, 0
14, 750879, Note_on_c, 5, 65, 84
14, 750879, Note_on_c, 5, 58, 90
14, 750943, Note_on_c, 5, 65, 0
14, 750943, Note_on_c, 5, 58, 0
14, 751040, Note_on_c, 5, 65, 87
14, 751040, Note_on_c, 5, 58, 88
14, 751103, Note_on_c, 5, 65, 0
14, 751103, Note_on_c, 5, 58, 0
14, 751200, Note_on_c, 5, 70, 84
14, 751200, Note_on_c, 5, 63, 83
14, 751263, Note_on_c, 5, 70, 0
14, 751263, Note_on_c, 5, 63, 0
14, 751359, Note_on_c, 5, 65, 88
14, 751359, Note_on_c, 5, 58, 94
14, 751423, Note_on_c, 5, 65, 0
14, 751423, Note_on_c, 5, 58, 0
14, 751520, Note_on_c, 5, 65, 97
14, 751520, Note_on_c, 5, 58, 88
14, 751583, Note_on_c, 5, 65, 0
14, 751583, Note_on_c, 5, 58, 0
14, 751680, Note_on_c, 5, 70, 79
14, 751680, Note_on_c, 5, 63, 97
14, 751743, Note_on_c, 5, 70, 0
14, 751743, Note_on_c, 5, 63, 0
14, 751839, Note_on_c, 5, 65, 78
14, 751839, Note_on_c, 5, 58, 89
14, 751903, Note_on_c, 5, 65, 0
14, 751903, Note_on_c, 5, 58, 0
14, 752000, Note_on_c, 5, 70, 87
14, 752000, Note_on_c, 5, 63, 83
14, 752063, Note_on_c, 5, 70, 0
14, 752063, Note_on_c, 5, 63, 0
14, 752160, Note_on_c, 5, 68, 79
14, 752160, Note_on_c, 5, 61, 81
14, 752223, Note_on_c, 5, 68, 0
14, 752223, Note_on_c, 5, 61, 0
14, 752319, Note_on_c, 5, 67, 86
14, 752319, Note_on_c, 5, 60, 92
14, 752383, Note_on_c, 5, 67, 0
14, 752383, Note_on_c, 5, 60, 0
14, 752480, Note_on_c, 5, 65, 95
14, 752480, Note_on_c, 5, 58, 89
14, 752543, Note_on_c, 5, 65, 0
14, 752543, Note_on_c, 5, 58, 0
14, 752640, Note_on_c, 5, 70, 79
14, 752640, Note_on_c, 5, 63, 88
14, 752703, Note_on_c, 5, 70, 0
14, 752703, Note_on_c, 5, 63, 0
14, 752799, Note_on_c, 5, 68, 94
14, 752799, Note_on_c, 5, 61, 96
14, 752863, Note_on_c, 5, 68, 0
14, 752863, Note_on_c, 5, 61, 0
14, 752960, Note_on_c, 5, 67, 81
14, 752960, Note_on_c, 5, 60, 87
14, 753023, Note_on_c, 5, 67, 0
14, 753023, Note_on_c, 5, 60, 0
14, 753120, Note_on_c, 5, 65, 79
14, 753120, Note_on_c, 5, 58, 81
14, 753183, Note_on_c, 5, 65, 0
14, 753183, Note_on_c, 5, 58, 0
14, 753279, Note_on_c, 5, 70, 89
14, 753279, Note_on_c, 5, 63, 82
14, 753343, Note_on_c, 5, 70, 0
14, 753343, Note_on_c, 5, 63, 0
14, 753440, Note_on_c, 5, 68, 81
14, 753440, Note_on_c, 5, 61, 87
14, 753503, Note_on_c, 5, 68, 0
14, 753503, Note_on_c, 5, 61, 0
14, 753600, Note_on_c, 5, 67, 83
14, 753600, Note_on_c, 5, 60, 96
14, 753663, Note_on_c, 5, 67, 0
14, 753663, Note_on_c, 5, 60, 0
14, 753759, Note_on_c, 5, 65, 83
14, 753759, Note_on_c, 5, 58, 80
14, 753823, Note_on_c, 5, 65, 0
14, 753823, Note_on_c, 5, 58, 0
14, 753920, Note_on_c, 5, 70, 81
14, 753920, Note_on_c, 5, 63, 90
14, 753983, Note_on_c, 5, 70, 0
14, 753983, Note_on_c, 5, 63, 0
14, 754080, Note_on_c, 5, 68, 79
14, 754080, Note_on_c, 5, 61, 92
14, 754143, Note_on_c, 5, 68, 0
14, 754143, Note_on_c, 5, 61, 0
14, 754239, Note_on_c, 5, 67, 81
14, 754239, Note_on_c, 5, 60, 83
14, 754303, Note_on_c, 5, 67, 0
14, 754303, Note_on_c, 5, 60, 0
14, 754400, Note_on_c, 5, 65, 87
14, 754400, Note_on_c, 5, 58, 79
14, 754463, Note_on_c, 5, 65, 0
14, 754463, Note_on_c, 5, 58, 0
14, 754560, Note_on_c, 5, 63, 93
14, 754560, Note_on_c, 5, 70, 78
14, 754560, Note_on_c, 5, 63, 96
14, 754623, Note_on_c, 5, 63, 0
14, 754623, Note_on_c, 5, 70, 0
14, 754623, Note_on_c, 5, 63, 0
14, 754719, Note_on_c, 5, 65, 95
14, 754719, Note_on_c, 5, 58, 91
14, 754783, Note_on_c, 5, 65, 0
14, 754783, Note_on_c, 5, 58, 0
14, 754880, Note_on_c, 5, 65, 87
14, 754880, Note_on_c, 5, 70, 88
14, 754880, Note_on_c, 5, 58, 80
14, 754943, Note_on_c, 5, 65, 0
14, 754943, Note_on_c, 5, 70, 0
14, 754943, Note_on_c, 5, 58, 0
14, 755040, Note_on_c, 5, 70, 79
14, 755040, Note_on_c, 5, 75, 93
14, 755040, Note_on_c, 5, 63, 90
14, 755103, Note_on_c, 5, 70, 0
14, 755103, Note_on_c, 5, 75, 0
14, 755103, Note_on_c, 5, 63, 0
14, 755199, Note_on_c, 5, 65, 91
14, 755199, Note_on_c, 5, 70, 93
14, 755199, Note_on_c, 5, 58, 95
14, 755263, Note_on_c, 5, 65, 0
14, 755263, Note_on_c, 5, 70, 0
14, 755263, Note_on_c, 5, 58, 0
14, 755360, Note_on_c, 5, 65, 96
14, 755360, Note_on_c, 5, 70, 92
14, 755360, Note_on_c, 5, 58, 95
14, 755423, Note_on_c, 5, 65, 0
14, 755423, Note_on_c, 5, 70, 0
14, 755423, Note_on_c, 5, 58, 0
14, 755520, Note_on_c, 5, 65, 95
14, 755520, Note_on_c, 5, 70, 96
14, 755520, Note_on_c, 5, 58, 91
14, 755583, Note_on_c, 5, 65, 0
14, 755583, Note_on_c, 5, 70, 0
14, 755583, Note_on_c, 5, 58, 0
14, 755679, Note_on_c, 5, 65, 89
14, 755679, Note_on_c, 5, 70, 84
14, 755679, Note_on_c, 5, 58, 88
14, 755743, Note_on_c, 5, 65, 0
14, 755743, Note_on_c, 5, 70, 0
14, 755743, Note_on_c, 5, 58, 0
14, 755840, Note_on_c, 5, 65, 96
14, 755840, Note_on_c, 5, 70, 86
14, 755840, Note_on_c, 5, 58, 91
14, 755903, Note_on_c, 5, 65, 0
14, 755903, Note_on_c, 5, 70, 0
14, 755903, Note_on_c, 5, 58, 0
14, 756000, Note_on_c, 5, 70, 80
14, 756000, Note_on_c, 5, 75, 97
14, 756000, Note_on_c, 5, 63, 90
14, 756063, Note_on_c, 5, 70, 0
14, 756063, Note_on_c, 5, 75, 0
14, 756063, Note_on_c, 5, 63, 0
14, 756159, Note_on_c, 5, 65, 83
14, 756159, Note_on_c, 5, 70, 78
14, 756159, Note_on_c, 5, 58, 88
14, 756223, Note_on_c, 5, 65, 0
14, 756223, Note_on_c, 5, 70, 0
14, 756223, Note_on_c, 5, 58, 0
14, 756320, Note_on_c, 5, 65, 96
14, 756320, Note_on_c, 5, 70, 98
14, 756320, Note_on_c, 5, 58, 89
14, 756383, Note_on_c, 5, 65, 0
14, 756383, Note_on_c, 5, 70, 0
14, 756383, Note_on_c, 5, 58, 0
14, 756480, Note_on_c, 5, 65, 90
14, 756480, Note_on_c, 5, 70, 83
14, 756480, Note_on_c, 5, 58, 94
14, 756543, Note_on_c, 5, 65, 0
14, 756543, Note_on_c, 5, 70, 0
14, 756543, Note_on_c, 5, 58, 0
14, 756639, Note_on_c, 5, 65, 84
14, 756639, Note_on_c, 5, 70, 83
14, 756639, Note_on_c, 5, 58, 88
14, 756703, Note_on_c, 5, 65, 0
14, 756703, Note_on_c, 5, 70, 0
14, 756703, Note_on_c, 5, 58, 0
14, 756800, Note_on_c, 5, 65, 90
14, 756800, Note_on_c, 5, 70, 81
14, 756800, Note_on_c, 5, 58, 79
14, 756863, Note_on_c, 5, 65, 0
14, 756863, Note_on_c, 5, 70, 0
14, 756863, Note_on_c, 5, 58, 0
14, 756960, Note_on_c, 5, 63, 97
14, 756960, Note_on_c, 5, 70, 97
14, 756960, Note_on_c, 5, 75, 80
14, 756960, Note_on_c, 5, 63, 86
14, 757023, Note_on_c, 5, 63, 0
14, 757023, Note_on_c, 5, 70, 0
14, 757023, Note_on_c, 5, 75, 0
14, 757023, Note_on_c, 5, 63, 0
14, 757119, Note_on_c, 5, 65, 80
14, 757119, Note_on_c, 5, 70, 83
14, 757119, Note_on_c, 5, 58, 89
14, 757183, Note_on_c, 5, 65, 0
14, 757183, Note_on_c, 5, 70, 0
14, 757183, Note_on_c, 5, 58, 0
14, 757280, Note_on_c, 5, 63, 82
14, 757280, Note_on_c, 5, 75, 89
14, 757280, Note_on_c, 5, 63, 79
14, 757343, Note_on_c, 5, 63, 0
14, 757343, Note_on_c, 5, 75, 0
14, 757343, Note_on_c, 5, 63, 0
14, 757440, Note_on_c, 5, 68, 89
14, 757440, Note_on_c, 5, 73, 78
14, 757440, Note_on_c, 5, 61, 93
14, 757503, Note_on_c, 5, 68, 0
14, 757503, Note_on_c, 5, 73, 0
14, 757503, Note_on_c, 5, 61, 0
14, 757599, Note_on_c, 5, 67, 91
14, 757599, Note_on_c, 5, 72, 82
14, 757599, Note_on_c, 5, 60, 92
14, 757663, Note_on_c, 5, 67, 0
14, 757663, Note_on_c, 5, 72, 0
14, 757663, Note_on_c, 5, 60, 0
14, 757760, Note_on_c, 5, 65, 93
14, 757760, Note_on_c, 5, 70, 97
14, 757760, Note_on_c, 5, 58, 91
14, 757823, Note_on_c, 5, 65, 0
14, 757823, Note_on_c, 5, 70, 0
14, 757823, Note_on_c, 5, 58, 0
14, 757920, Note_on_c, 5, 70, 83
14, 757920, Note_on_c, 5, 75, 97
14, 757920, Note_on_c, 5, 63, 91
14, 757983, Note_on_c, 5, 70, 0
14, 757983, Note_on_c, 5, 75, 0
14, 757983, Note_on_c, 5, 63, 0
14, 758079, Note_on_c, 5, 65, 88
14, 758079, Note_on_c, 5, 70, 89
14, 758079, Note_on_c, 5, 58, 97
14, 758143, Note_on_c, 5, 65, 0
14, 758143, Note_on_c, 5, 70, 0
14, 758143, Note_on_c, 5, 58, 0
14, 758240, Note_on_c, 5, 65, 79
14, 758240, Note_on_c, 5, 70, 83
14, 758240, Note_on_c, 5, 58, 86
14, 758303, Note_on_c, 5, 65, 0
14, 758303, Note_on_c, 5, 70, 0
14, 758303, Note_on_c, 5, 58, 0
14, 758400, Note_on_c, 5, 70, 90
14, 758400, Note_on_c, 5, 75, 83
14, 758400, Note_on_c, 5, 63, 87
14, 758463, Note_on_c, 5, 70, 0
14, 758463, Note_on_c, 5, 75, 0
14, 758463, Note_on_c, 5, 63, 0
14, 758559, Note_on_c, 5, 65, 78
14, 758559, Note_on_c, 5, 70, 98
14, 758559, Note_on_c, 5, 58, 88
14, 758623, Note_on_c, 5, 65, 0
14, 758623, Note_on_c, 5, 70, 0
14, 758623, Note_on_c, 5, 58, 0
14, 758720, Note_on_c, 5, 65, 95
14, 758720, Note_on_c, 5, 70, 86
14, 758720, Note_on_c, 5, 58, 93
14, 758783, Note_on_c, 5, 65, 0
14, 758783, Note_on_c, 5, 70, 0
14, 758783, Note_on_c, 5, 58, 0
14, 758880, Note_on_c, 5, 65, 81
14, 758880, Note_on_c, 5, 70, 95
14, 758880, Note_on_c, 5, 58, 78
14, 758943, Note_on_c, 5, 65, 0
14, 758943, Note_on_c, 5, 70, 0
14, 758943, Note_on_c, 5, 58, 0
14, 759039, Note_on_c, 5, 65, 93
14, 759039, Note_on_c, 5, 70, 85
14, 759039, Note_on_c, 5, 58, 81
14, 759103, Note_on_c, 5, 65, 0
14, 759103, Note_on_c, 5, 70, 0
14, 759103, Note_on_c, 5, 58, 0
14, 759200, Note_on_c, 5, 65, 94
14, 759200, Note_on_c, 5, 70, 98
14, 759200, Note_on_c, 5, 58, 91
14, 759263, Note_on_c, 5, 65, 0
14, 759263, Note_on_c, 5, 70, 0
14, 759263, Note_on_c, 5, 58, 0
14, 759360, Note_on_c, 5, 70, 83
14, 759360, Note_on_c, 5, 75, 87
14, 759360, Note_on_c, 5, 63, 92
14, 759423, Note_on_c, 5, 70, 0
14, 759423, Note_on_c, 5, 75, 0
14, 759423, Note_on_c, 5, 63, 0
14, 759519, Note_on_c, 5, 65, 84
14, 759519, Note_on_c, 5, 70, 79
14, 759519, Note_on_c, 5, 58, 85
14, 759583, Note_on_c, 5, 65, 0
14, 759583, Note_on_c, 5, 70, 0
14, 759583, Note_on_c, 5, 58, 0
14, 759680, Note_on_c, 5, 65, 95
14, 759680, Note_on_c, 5, 70, 85
14, 759680, Note_on_c, 5, 58, 86
14, 759743, Note_on_c, 5, 65, 0
14, 759743, Note_on_c, 5, 70, 0
14, 759743, Note_on_c, 5, 58, 0
14, 759840, Note_on_c, 5, 70, 83
14, 759840, Note_on_c, 5, 75, 82
14, 759840, Note_on_c, 5, 63, 87
14, 759903, Note_on_c, 5, 70, 0
14, 759903, Note_on_c, 5, 75, 0
14, 759903, Note_on_c, 5, 63, 0
14, 759999, Note_on_c, 5, 65, 83
14, 759999, Note_on_c, 5, 58, 98
14, 759999, Note_on_c, 5, 70, 97
14, 760063, Note_on_c, 5, 65, 0
14, 760063, Note_on_c, 5, 58, 0
14, 760063, Note_on_c, 5, 70, 0
14, 760160, Note_on_c, 5, 63, 88
14, 760160, Note_on_c, 5, 70, 98
14, 760160, Note_on_c, 5, 63, 98
14, 760160, Note_on_c, 5, 75, 80
14, 760223, Note_on_c, 5, 63, 0
14, 760223, Note_on_c, 5, 70, 0
14, 760223, Note_on_c, 5, 63, 0
14, 760223, Note_on_c, 5, 75, 0
14, 760320, Note_on_c, 5, 68, 95
14, 760320, Note_on_c, 5, 61, 93
14, 760320, Note_on_c, 5, 73, 92
14, 760383, Note_on_c, 5, 68, 0
14, 760383, Note_on_c, 5, 61, 0
14, 760383, Note_on_c, 5, 73, 0
14, 760479, Note_on_c, 5, 67, 92
14, 760479, Note_on_c, 5, 72, 97
14, 760479, Note_on_c, 5, 60, 85
14, 760543, Note_on_c, 5, 67, 0
14, 760543, Note_on_c, 5, 72, 0
14, 760543, Note_on_c, 5, 60, 0
14, 760640, Note_on_c, 5, 65, 83
14, 760640, Note_on_c, 5, 70, 92
14, 760640, Note_on_c, 5, 58, 78
14, 760703, Note_on_c, 5, 65, 0
14, 760703, Note_on_c, 5, 70, 0
14, 760703, Note_on_c, 5, 58, 0
14, 760800, Note_on_c, 5, 65, 94
14, 760800, Note_on_c, 5, 70, 83
14, 760800, Note_on_c, 5, 75, 91
14, 760800, Note_on_c, 5, 63, 96
14, 760863, Note_on_c, 5, 65, 0
14, 760863, Note_on_c, 5, 70, 0
14, 760863, Note_on_c, 5, 75, 0
14, 760863, Note_on_c, 5, 63, 0
14, 760959, Note_on_c, 5, 68, 85
14, 760959, Note_on_c, 5, 70, 90
14, 760959, Note_on_c, 5, 73, 92
14, 760959, Note_on_c, 5, 61, 91
14, 761023, Note_on_c, 5, 68, 0
14, 761023, Note_on_c, 5, 70, 0
14, 761023, Note_on_c, 5, 73, 0
14, 761023, Note_on_c, 5, 61, 0
14, 761120, Note_on_c, 5, 67, 80
14, 761120, Note_on_c, 5, 72, 93
14, 761120, Note_on_c, 5, 60, 78
14, 761183, Note_on_c, 5, 67, 0
14, 761183, Note_on_c, 5, 72, 0
14, 761183, Note_on_c, 5, 60, 0
14, 761280, Note_on_c, 5, 65, 94
14, 761280, Note_on_c, 5, 70, 98
14, 761280, Note_on_c, 5, 58, 97
14, 761280, Note_on_c, 5, 67, 86
14, 761343, Note_on_c, 5, 65, 0
14, 761343, Note_on_c, 5, 70, 0
14, 761343, Note_on_c, 5, 58, 0
14, 761343, Note_on_c, 5, 67, 0
14, 761439, Note_on_c, 5, 70, 91
14, 761439, Note_on_c, 5, 63, 93
14, 761439, Note_on_c, 5, 75, 95
14, 761503, Note_on_c, 5, 70, 0
14, 761503, Note_on_c, 5, 63, 0
14, 761503, Note_on_c, 5, 75, 0
14, 761600, Note_on_c, 5, 68, 82
14, 761600, Note_on_c, 5, 61, 89
14, 761600, Note_on_c, 5, 73, 89
14, 761663, Note_on_c, 5, 68, 0
14, 761663, Note_on_c, 5, 61, 0
14, 761663, Note_on_c, 5, 73, 0
14, 761760, Note_on_c, 5, 67, 83
14, 761760, Note_on_c, 5, 60, 85
14, 761760, Note_on_c, 5, 72, 89
14, 761823, Note_on_c, 5, 67, 0
14, 761823, Note_on_c, 5, 60, 0
14, 761823, Note_on_c, 5, 72, 0
14, 761919, Note_on_c, 5, 65, 84
14, 761919, Note_on_c, 5, 70, 98
14, 761919, Note_on_c, 5, 58, 86
14, 761983, Note_on_c, 5, 65, 0
14, 761983, Note_on_c, 5, 70, 0
14, 761983, Note_on_c, 5, 58, 0
14, 762080, Note_on_c, 5, 63, 88
14, 762080, Note_on_c, 5, 70, 97
14, 762080, Note_on_c, 5, 75, 97
14, 762080, Note_on_c, 5, 63, 83
14, 762143, Note_on_c, 5, 63, 0
14, 762143, Note_on_c, 5, 70, 0
14, 762143, Note_on_c, 5, 75, 0
14, 762143, Note_on_c, 5, 63, 0
14, 762240, Note_on_c, 5, 68, 80
14, 762240, Note_on_c, 5, 73, 98
14, 762240, Note_on_c, 5, 61, 81
14, 762303, Note_on_c, 5, 68, 0
14, 762303, Note_on_c, 5, 73, 0
14, 762303, Note_on_c, 5, 61, 0
14, 762399, Note_on_c, 5, 67, 86
14, 762399, Note_on_c, 5, 72, 85
14, 762399, Note_on_c, 5, 60, 92
14, 762463, Note_on_c, 5, 67, 0
14, 762463, Note_on_c, 5, 72, 0
14, 762463, Note_on_c, 5, 60, 0
14, 762560, Note_on_c, 5, 67, 92
14, 762560, Note_on_c, 5, 70, 90
14, 762560, Note_on_c, 5, 58, 84
14, 762623, Note_on_c, 5, 67, 0
14, 762623, Note_on_c, 5, 70, 0
14, 762623, Note_on_c, 5, 58, 0
14, 762720, Note_on_c, 5, 70, 92
14, 762720, Note_on_c, 5, 75, 88
14, 762720, Note_on_c, 5, 63, 95
14, 762720, Note_on_c, 5, 70, 90
14, 762783, Note_on_c, 5, 70, 0
14, 762783, Note_on_c, 5, 75, 0
14, 762783, Note_on_c, 5, 63, 0
14, 762783, Note_on_c, 5, 70, 0
14, 762879, Note_on_c, 5, 65, 94
14, 762879, Note_on_c, 5, 58, 83
14, 762879, Note_on_c, 5, 70, 86
14, 762943, Note_on_c, 5, 65, 0
14, 762943, Note_on_c, 5, 58, 0
14, 762943, Note_on_c, 5, 70, 0
14, 763040, Note_on_c, 5, 65, 78
14, 763040, Note_on_c, 5, 58, 89
14, 763040, Note_on_c, 5, 70, 81
14, 763103, Note_on_c, 5, 65, 0
14, 763103, Note_on_c, 5, 58, 0
14, 763103, Note_on_c, 5, 70, 0
14, 763200, Note_on_c, 5, 63, 87
14, 763200, Note_on_c, 5, 70, 93
14, 763200, Note_on_c, 5, 63, 88
14, 763200, Note_on_c, 5, 75, 98
14, 763263, Note_on_c, 5, 63, 0
14, 763263, Note_on_c, 5, 70, 0
14, 763263, Note_on_c, 5, 63, 0
14, 763263, Note_on_c, 5, 75, 0
14, 763359, Note_on_c, 5, 65, 83
14, 763359, Note_on_c, 5, 70, 80
14, 763359, Note_on_c, 5, 58, 81
14, 763423, Note_on_c, 5, 65, 0
14, 763423, Note_on_c, 5, 70, 0
14, 763423, Note_on_c, 5, 58, 0
14, 763520, Note_on_c, 5, 70, 89
14, 763520, Note_on_c, 5, 75, 96
14, 763520, Note_on_c, 5, 63, 90
14, 763583, Note_on_c, 5, 70, 0
14, 763583, Note_on_c, 5, 75, 0
14, 763583, Note_on_c, 5, 63, 0
14, 763680, Note_on_c, 5, 68, 79
14, 763680, Note_on_c, 5, 73, 81
14, 763680, Note_on_c, 5, 61, 78
14, 763743, Note_on_c, 5, 68, 0
14, 763743, Note_on_c, 5, 73, 0
14, 763743, Note_on_c, 5, 61, 0
14, 763839, Note_on_c, 5, 67, 87
14, 763839, Note_on_c, 5, 72, 98
14, 763839, Note_on_c, 5, 60, 96
14, 763903, Note_on_c, 5, 67, 0
14, 763903, Note_on_c, 5, 72, 0
14, 763903, Note_on_c, 5, 60, 0
14, 764000, Note_on_c, 5, 65, 96
14, 764000, Note_on_c, 5, 70, 91
14, 764000, Note_on_c, 5, 58, 92
14, 764063, Note_on_c, 5, 65, 0
14, 764063, Note_on_c, 5, 70, 0
14, 764063, Note_on_c, 5, 58, 0
14, 764160, Note_on_c, 5, 70, 88
14, 764160, Note_on_c, 5, 75, 98
14, 764160, Note_on_c, 5, 63, 87
14, 764223, Note_on_c, 5, 70, 0
14, 764223, Note_on_c, 5, 75, 0
14, 764223, Note_on_c, 5, 63, 0
14, 764319, Note_on_c, 5, 65, 93
14, 764319, Note_on_c, 5, 58, 92
14, 764319, Note_on_c, 5, 70, 84
14, 764383, Note_on_c, 5, 65, 0
14, 764383, Note_on_c, 5, 58, 0
14, 764383, Note_on_c, 5, 70, 0
14, 764480, Note_on_c, 5, 65, 86
14, 764480, Note_on_c, 5, 58, 97
14, 764480, Note_on_c, 5, 70, 95
14, 764543, Note_on_c, 5, 65, 0
14, 764543, Note_on_c, 5, 58, 0
14, 764543, Note_on_c, 5, 70, 0
14, 764640, Note_on_c, 5, 70, 92
14, 764640, Note_on_c, 5, 63, 80
14, 764640, Note_on_c, 5, 75, 91
14, 764703, Note_on_c, 5, 70, 0
14, 764703, Note_on_c, 5, 63, 0
14, 764703, Note_on_c, 5, 75, 0
14, 764799, Note_on_c, 5, 65, 85
14, 764799, Note_on_c, 5, 70, 84
14, 764799, Note_on_c, 5, 58, 89
14, 764863, Note_on_c, 5, 65, 0
14, 764863, Note_on_c, 5, 70, 0
14, 764863, Note_on_c, 5, 58, 0
14, 764960, Note_on_c, 5, 65, 89
14, 764960, Note_on_c, 5, 70, 87
14, 764960, Note_on_c, 5, 58, 89
14, 765023, Note_on_c, 5, 65, 0
14, 765023, Note_on_c, 5, 70, 0
14, 765023, Note_on_c, 5, 58, 0
14, 765120, Note_on_c, 5, 65, 98
14, 765120, Note_on_c, 5, 70, 92
14, 765120, Note_on_c, 5, 58, 87
14, 765183, Note_on_c, 5, 65, 0
14, 765183, Note_on_c, 5, 70, 0
14, 765183, Note_on_c, 5, 58, 0
14, 765279, Note_on_c, 5, 65, 81
14, 765279, Note_on_c, 5, 70, 94
14, 765279, Note_on_c, 5, 58, 94
14, 765343, Note_on_c, 5, 65, 0
14, 765343, Note_on_c, 5, 70, 0
14, 765343, Note_on_c, 5, 58, 0
14, 765440, Note_on_c, 5, 65, 83
14, 765440, Note_on_c, 5, 70, 94
14, 765440, Note_on_c, 5, 58, 86
14, 765503, Note_on_c, 5, 65, 0
14, 765503, Note_on_c, 5, 70, 0
14, 765503, Note_on_c, 5, 58, 0
14, 765600, Note_on_c, 5, 70, 97
14, 765600, Note_on_c, 5, 75, 98
14, 765600, Note_on_c, 5, 63, 90
14, 765663, Note_on_c, 5, 70, 0
14, 765663, Note_on_c, 5, 75, 0
14, 765663, Note_on_c, 5, 63, 0
14, 765759, Note_on_c, 5, 65, 89
14, 765759, Note_on_c, 5, 70, 79
14, 765759, Note_on_c, 5, 58, 85
14, 765823, Note_on_c, 5, 65, 0
14, 765823, Note_on_c, 5, 70, 0
14, 765823, Note_on_c, 5, 58, 0
14, 765920, Note_on_c, 5, 65, 91
14, 765920, Note_on_c, 5, 70, 93
14, 765920, Note_on_c, 5, 58, 80
14, 765983, Note_on_c, 5, 65, 0
14, 765983, Note_on_c, 5, 70, 0
14, 765983, Note_on_c, 5, 58, 0
14, 766093, Note_on_c, 5, 75, 89
14, 766101, Note_on_c, 5, 70, 88
14, 766105, Note_on_c, 5, 63, 87
14, 766251, Note_on_c, 5, 70, 89
14, 766252, Note_on_c, 5, 75, 0
14, 766252, Note_on_c, 5, 65, 94
14, 766256, Note_on_c, 5, 58, 80
14, 766260, Note_on_c, 5, 70, 0
14, 766264, Note_on_c, 5, 63, 0
14, 766401, Note_on_c, 5, 70, 93
14, 766408, Note_on_c, 5, 63, 78
14, 766411, Note_on_c, 5, 70, 0
14, 766412, Note_on_c, 5, 65, 0
14, 766416, Note_on_c, 5, 58, 0
14, 766421, Note_on_c, 5, 75, 89
14, 766560, Note_on_c, 5, 70, 0
14, 766563, Note_on_c, 5, 61, 94
14, 766564, Note_on_c, 5, 68, 83
14, 766566, Note_on_c, 5, 73, 81
14, 766567, Note_on_c, 5, 63, 0
14, 766580, Note_on_c, 5, 75, 0
14, 766720, Note_on_c, 5, 72, 87
14, 766722, Note_on_c, 5, 61, 0
14, 766723, Note_on_c, 5, 68, 0
14, 766725, Note_on_c, 5, 73, 0
14, 766725, Note_on_c, 5, 67, 88
14, 766729, Note_on_c, 5, 60, 92
14, 766880, Note_on_c, 5, 72, 0
14, 766885, Note_on_c, 5, 67, 0
14, 766887, Note_on_c, 5, 65, 82
14, 766889, Note_on_c, 5, 60, 0
14, 766895, Note_on_c, 5, 58, 80
14, 766897, Note_on_c, 5, 70, 85
14, 767046, Note_on_c, 5, 65, 0
14, 767047, Note_on_c, 5, 70, 82
14, 767053, Note_on_c, 5, 75, 86
14, 767054, Note_on_c, 5, 58, 0
14, 767056, Note_on_c, 5, 70, 0
14, 767060, Note_on_c, 5, 63, 85
14, 767206, Note_on_c, 5, 70, 0
14, 767212, Note_on_c, 5, 75, 0
14, 767212, Note_on_c, 5, 65, 98
14, 767216, Note_on_c, 5, 58, 98
14, 767218, Note_on_c, 5, 70, 82
14, 767219, Note_on_c, 5, 63, 0
14, 767365, Note_on_c, 5, 58, 85
14, 767372, Note_on_c, 5, 65, 0
14, 767376, Note_on_c, 5, 58, 0
14, 767378, Note_on_c, 5, 70, 0
14, 767381, Note_on_c, 5, 70, 85
14, 767383, Note_on_c, 5, 65, 85
14, 767520, Note_on_c, 5, 65, 94
14, 767520, Note_on_c, 5, 70, 80
14, 767520, Note_on_c, 5, 58, 79
14, 767524, Note_on_c, 5, 58, 0
14, 767540, Note_on_c, 5, 70, 0
14, 767542, Note_on_c, 5, 65, 0
14, 767583, Note_on_c, 5, 65, 0
14, 767583, Note_on_c, 5, 70, 0
14, 767583, Note_on_c, 5, 58, 0
14, 767679, Note_on_c, 5, 65, 83
14, 767679, Note_on_c, 5, 70, 82
14, 767679, Note_on_c, 5, 58, 93
14, 767743, Note_on_c, 5, 65, 0
14, 767743, Note_on_c, 5, 70, 0
14, 767743, Note_on_c, 5, 58, 0
14, 767840, Note_on_c, 5, 65, 81
14, 767840, Note_on_c, 5, 70, 84
14, 767840, Note_on_c, 5, 58, 92
14, 767903, Note_on_c, 5, 65, 0
14, 767903, Note_on_c, 5, 70, 0
14, 767903, Note_on_c, 5, 58, 0
14, 768000, Note_on_c, 5, 70, 95
14, 768000, Note_on_c, 5, 75, 78
14, 768000, Note_on_c, 5, 63, 92
14, 768063, Note_on_c, 5, 70, 0
14, 768063, Note_on_c, 5, 75, 0
14, 768063, Note_on_c, 5, 63, 0
14, 768159, Note_on_c, 5, 65, 82
14, 768159, Note_on_c, 5, 70, 78
14, 768159, Note_on_c, 5, 58, 84
14, 768223, Note_on_c, 5, 65, 0
14, 768223, Note_on_c, 5, 70, 0
14, 768223, Note_on_c, 5, 58, 0
14, 768320, Note_on_c, 5, 65, 97
14, 768320, Note_on_c, 5, 70, 91
14, 768320, Note_on_c, 5, 58, 87
14, 768383, Note_on_c, 5, 65, 0
14, 768383, Note_on_c, 5, 70, 0
14, 768383, Note_on_c, 5, 58, 0
14, 768480, Note_on_c, 5, 70, 87
14, 768480, Note_on_c, 5, 75, 83
14, 768480, Note_on_c, 5, 58, 91
14, 768543, Note_on_c, 5, 70, 0
14, 768543, Note_on_c, 5, 75, 0
14, 768543, Note_on_c, 5, 58, 0
14, 768639, Note_on_c, 5, 65, 85
14, 768639, Note_on_c, 5, 58, 87
14, 768703, Note_on_c, 5, 65, 0
14, 768703, Note_on_c, 5, 58, 0
14, 768800, Note_on_c, 5, 65, 89
14, 768800, Note_on_c, 5, 58, 80
14, 768863, Note_on_c, 5, 65, 0
14, 768863, Note_on_c, 5, 58, 0
14, 768960, Note_on_c, 5, 65, 88
14, 768960, Note_on_c, 5, 58, 98
14, 769023, Note_on_c, 5, 65, 0
14, 769023, Note_on_c, 5, 58, 0
14, 769119, Note_on_c, 5, 65, 96
14, 769119, Note_on_c, 5, 58, 82
14, 769183, Note_on_c, 5, 65, 0
14, 769183, Note_on_c, 5, 58, 0
14, 769280, Note_on_c, 5, 65, 93
14, 769280, Note_on_c, 5, 58, 79
14, 769343, Note_on_c, 5, 65, 0
14, 769343, Note_on_c, 5, 58, 0
14, 769440, Note_on_c, 5, 70, 82
14, 769440, Note_on_c, 5, 63, 92
14, 769503, Note_on_c, 5, 70, 0
14, 769503, Note_on_c, 5, 63, 0
14, 769599, Note_on_c, 5, 65, 86
14, 769599, Note_on_c, 5, 70, 89
14, 769599, Note_on_c, 5, 58, 97
14, 769663, Note_on_c, 5, 65, 0
14, 769663, Note_on_c, 5, 70, 0
14, 769663, Note_on_c, 5, 58, 0
14, 769760, Note_on_c, 5, 65, 86
14, 769760, Note_on_c, 5, 70, 94
14, 769760, Note_on_c, 5, 58, 84
14, 769823, Note_on_c, 5, 65, 0
14, 769823, Note_on_c, 5, 70, 0
14, 769823, Note_on_c, 5, 58, 0
14, 769920, Note_on_c, 5, 65, 94
14, 769920, Note_on_c, 5, 70, 96
14, 769920, Note_on_c, 5, 63, 95
14, 769983, Note_on_c, 5, 65, 0
14, 769983, Note_on_c, 5, 70, 0
14, 769983, Note_on_c, 5, 63, 0
14, 770079, Note_on_c, 5, 65, 86
14, 770079, Note_on_c, 5, 70, 98
14, 770079, Note_on_c, 5, 58, 91
14, 770143, Note_on_c, 5, 65, 0
14, 770143, Note_on_c, 5, 70, 0
14, 770143, Note_on_c, 5, 58, 0
14, 770240, Note_on_c, 5, 65, 84
14, 770240, Note_on_c, 5, 70, 87
14, 770240, Note_on_c, 5, 58, 81
14, 770303, Note_on_c, 5, 65, 0
14, 770303, Note_on_c, 5, 70, 0
14, 770303, Note_on_c, 5, 58, 0
14, 770400, Note_on_c, 5, 70, 91
14, 770400, Note_on_c, 5, 75, 79
14, 770400, Note_on_c, 5, 63, 87
14, 770463, Note_on_c, 5, 70, 0
14, 770463, Note_on_c, 5, 75, 0
14, 770463, Note_on_c, 5, 63, 0
14, 770559, Note_on_c, 5, 65, 79
14, 770559, Note_on_c, 5, 70, 79
14, 770559, Note_on_c, 5, 58, 85
14, 770623, Note_on_c, 5, 65, 0
14, 770623, Note_on_c, 5, 70, 0
14, 770623, Note_on_c, 5, 58, 0
14, 770720, Note_on_c, 5, 65, 91
14, 770720, Note_on_c, 5, 70, 96
14, 770720, Note_on_c, 5, 58, 86
14, 770720, Note_on_c, 5, 63, 93
14, 770783, Note_on_c, 5, 65, 0
14, 770783, Note_on_c, 5, 70, 0
14, 770783, Note_on_c, 5, 58, 0
14, 770783, Note_on_c, 5, 63, 0
14, 770880, Note_on_c, 5, 66, 95
14, 770880, Note_on_c, 5, 70, 78
14, 770880, Note_on_c, 5, 63, 90
14, 770943, Note_on_c, 5, 66, 0
14, 770943, Note_on_c, 5, 70, 0
14, 770943, Note_on_c, 5, 63, 0
14, 771039, Note_on_c, 5, 68, 86
14, 771039, Note_on_c, 5, 73, 97
14, 771039, Note_on_c, 5, 61, 87
14, 771103, Note_on_c, 5, 68, 0
14, 771103, Note_on_c, 5, 73, 0
14, 771103, Note_on_c, 5, 61, 0
14, 771200, Note_on_c, 5, 66, 83
14, 771200, Note_on_c, 5, 72, 98
14, 771200, Note_on_c, 5, 60, 96
14, 771263, Note_on_c, 5, 66, 0
14, 771263, Note_on_c, 5, 72, 0
14, 771263, Note_on_c, 5, 60, 0
14, 771360, Note_on_c, 5, 65, 94
14, 771360, Note_on_c, 5, 70, 84
14, 771360, Note_on_c, 5, 58, 80
14, 771423, Note_on_c, 5, 65, 0
14, 771423, Note_on_c, 5, 70, 0
14, 771423, Note_on_c, 5, 58, 0
14, 771519, Note_on_c, 5, 70, 94
14, 771519, Note_on_c, 5, 63, 91
14, 771519, Note_on_c, 5, 75, 79
14, 771583, Note_on_c, 5, 70, 0
14, 771583, Note_on_c, 5, 63, 0
14, 771583, Note_on_c, 5, 75, 0
14, 771680, Note_on_c, 5, 68, 98
14, 771680, Note_on_c, 5, 61, 93
14, 771680, Note_on_c, 5, 73, 78
14, 771743, Note_on_c, 5, 68, 0
14, 771743, Note_on_c, 5, 61, 0
14, 771743, Note_on_c, 5, 73, 0
14, 771840, Note_on_c, 5, 67, 85
14, 771840, Note_on_c, 5, 60, 79
14, 771840, Note_on_c, 5, 72, 94
14, 771903, Note_on_c, 5, 67, 0
14, 771903, Note_on_c, 5, 60, 0
14, 771903, Note_on_c, 5, 72, 0
14, 771999, Note_on_c, 5, 65, 90
14, 771999, Note_on_c, 5, 70, 81
14, 771999, Note_on_c, 5, 58, 97
14, 772063, Note_on_c, 5, 65, 0
14, 772063, Note_on_c, 5, 70, 0
14, 772063, Note_on_c, 5, 58, 0
14, 772160, Note_on_c, 5, 70, 86
14, 772160, Note_on_c, 5, 75, 82
14, 772160, Note_on_c, 5, 63, 93
14, 772223, Note_on_c, 5, 70, 0
14, 772223, Note_on_c, 5, 75, 0
14, 772223, Note_on_c, 5, 63, 0
14, 772320, Note_on_c, 5, 68, 92
14, 772320, Note_on_c, 5, 73, 96
14, 772320, Note_on_c, 5, 61, 84
14, 772383, Note_on_c, 5, 68, 0
14, 772383, Note_on_c, 5, 73, 0
14, 772383, Note_on_c, 5, 61, 0
14, 772479, Note_on_c, 5, 67, 93
14, 772479, Note_on_c, 5, 72, 93
14, 772479, Note_on_c, 5, 60, 87
14, 772543, Note_on_c, 5, 67, 0
14, 772543, Note_on_c, 5, 72, 0
14, 772543, Note_on_c, 5, 60, 0
14, 772640, Note_on_c, 5, 65, 86
14, 772640, Note_on_c, 5, 70, 86
14, 772640, Note_on_c, 5, 58, 90
14, 772703, Note_on_c, 5, 65, 0
14, 772703, Note_on_c, 5, 70, 0
14, 772703, Note_on_c, 5, 58, 0
14, 772800, Note_on_c, 5, 70, 86
14, 772800, Note_on_c, 5, 63, 84
14, 772800, Note_on_c, 5, 75, 84
14, 772863, Note_on_c, 5, 70, 0
14, 772863, Note_on_c, 5, 63, 0
14, 772863, Note_on_c, 5, 75, 0
14, 772863, End_track
15, 0, Start_track
15, 0, Title_t, "Trombe"
15, 0, MIDI_port, 0
15, 0, Program_c, 6, 59
15, 0, Control_c, 6, 7, 127
15, 0, Control_c, 6, 10, 64
15, 0, Control_c, 6, 91, 127
15, 65301, Note_on_c, 6, 82, 67
15, 65421, Note_on_c, 6, 82, 0
15, 65545, Note_on_c, 6, 77, 81
15, 65855, Note_on_c, 6, 70, 73
15, 65880, Note_on_c, 6, 77, 0
15, 65903, Note_on_c, 6, 70, 0
15, 65951, Note_on_c, 6, 75, 65
15, 66000, Note_on_c, 6, 75, 0
15, 66047, Note_on_c, 6, 80, 70
15, 66095, Note_on_c, 6, 80, 0
15, 66143, Note_on_c, 6, 82, 81
15, 66192, Note_on_c, 6, 82, 0
15, 66243, Note_on_c, 6, 77, 70
15, 66363, Note_on_c, 6, 77, 0
15, 66732, Note_on_c, 6, 82, 77
15, 66999, Note_on_c, 6, 81, 68
15, 67011, Note_on_c, 6, 82, 0
15, 67039, Note_on_c, 6, 81, 0
15, 67040, Note_on_c, 6, 82, 65
15, 67079, Note_on_c, 6, 82, 0
15, 67080, Note_on_c, 6, 81, 66
15, 67119, Note_on_c, 6, 81, 0
15, 67119, Note_on_c, 6, 82, 72
15, 67159, Note_on_c, 6, 82, 0
15, 67160, Note_on_c, 6, 81, 80
15, 67199, Note_on_c, 6, 81, 0
15, 67200, Note_on_c, 6, 82, 80
15, 67800, Note_on_c, 6, 82, 0
15, 68640, Note_on_c, 6, 70, 74
15, 68675, Note_on_c, 6, 70, 0
15, 68735, Note_on_c, 6, 75, 83
15, 68770, Note_on_c, 6, 75, 0
15, 68831, Note_on_c, 6, 80, 81
15, 68867, Note_on_c, 6, 80, 0
15, 68927, Note_on_c, 6, 82, 81
15, 68962, Note_on_c, 6, 82, 0
15, 69023, Note_on_c, 6, 77, 73
15, 69058, Note_on_c, 6, 77, 0
15, 69121, Note_on_c, 6, 82, 82
15, 69241, Note_on_c, 6, 82, 0
15, 69385, Note_on_c, 6, 77, 72
15, 69695, Note_on_c, 6, 70, 71
15, 69720, Note_on_c, 6, 77, 0
15, 69743, Note_on_c, 6, 70, 0
15, 69791, Note_on_c, 6, 75, 65
15, 69840, Note_on_c, 6, 75, 0
15, 69887, Note_on_c, 6, 80, 75
15, 69935, Note_on_c, 6, 80, 0
15, 69983, Note_on_c, 6, 82, 70
15, 70032, Note_on_c, 6, 82, 0
15, 70105, Note_on_c, 6, 77, 67
15, 70225, Note_on_c, 6, 77, 0
15, 70583, Note_on_c, 6, 82, 79
15, 70729, Note_on_c, 6, 82, 75
15, 70742, Note_on_c, 6, 82, 0
15, 70839, Note_on_c, 6, 81, 75
15, 70849, Note_on_c, 6, 82, 0
15, 70879, Note_on_c, 6, 81, 0
15, 70880, Note_on_c, 6, 82, 73
15, 70919, Note_on_c, 6, 82, 0
15, 70920, Note_on_c, 6, 81, 81
15, 70959, Note_on_c, 6, 81, 0
15, 70959, Note_on_c, 6, 82, 65
15, 70999, Note_on_c, 6, 82, 0
15, 71000, Note_on_c, 6, 81, 84
15, 71039, Note_on_c, 6, 81, 0
15, 71047, Note_on_c, 6, 82, 66
15, 71167, Note_on_c, 6, 82, 0
15, 100320, Program_c, 6, 59
15, 100338, Note_on_c, 6, 70, 78
15, 100417, Note_on_c, 6, 70, 0
15, 100496, Note_on_c, 6, 70, 69
15, 100576, Note_on_c, 6, 70, 0
15, 100659, Note_on_c, 6, 70, 85
15, 100738, Note_on_c, 6, 70, 0
15, 100805, Note_on_c, 6, 70, 76
15, 101444, Note_on_c, 6, 70, 0
15, 101447, Note_on_c, 6, 69, 72
15, 101528, Note_on_c, 6, 69, 0
15, 101624, Note_on_c, 6, 68, 83
15, 101704, Note_on_c, 6, 68, 0
15, 101760, Note_on_c, 6, 67, 82
15, 101880, Note_on_c, 6, 67, 0
15, 102009, Note_on_c, 6, 66, 66
15, 102129, Note_on_c, 6, 66, 0
15, 108242, Note_on_c, 6, 65, 93
15, 108248, Note_on_c, 6, 72, 84
15, 108253, Note_on_c, 6, 79, 91
15, 108255, Note_on_c, 6, 86, 82
15, 108264, Note_on_c, 6, 58, 81
15, 108626, Note_on_c, 6, 65, 0
15, 108632, Note_on_c, 6, 72, 0
15, 108637, Note_on_c, 6, 79, 0
15, 108639, Note_on_c, 6, 86, 0
15, 108648, Note_on_c, 6, 58, 0
15, 108720, Note_on_c, 6, 86, 101
15, 108720, Note_on_c, 6, 58, 108
15, 108720, Note_on_c, 6, 65, 111
15, 108720, Note_on_c, 6, 72, 107
15, 108720, Note_on_c, 6, 79, 100
15, 108760, Note_on_c, 6, 86, 0
15, 108760, Note_on_c, 6, 58, 0
15, 108760, Note_on_c, 6, 65, 0
15, 108760, Note_on_c, 6, 72, 0
15, 108760, Note_on_c, 6, 79, 0
15, 108800, Note_on_c, 6, 86, 82
15, 108800, Note_on_c, 6, 58, 97
15, 108800, Note_on_c, 6, 65, 91
15, 108800, Note_on_c, 6, 72, 86
15, 108800, Note_on_c, 6, 79, 94
15, 108839, Note_on_c, 6, 86, 0
15, 108839, Note_on_c, 6, 58, 0
15, 108839, Note_on_c, 6, 65, 0
15, 108839, Note_on_c, 6, 72, 0
15, 108839, Note_on_c, 6, 79, 0
15, 108879, Note_on_c, 6, 86, 82
15, 108879, Note_on_c, 6, 58, 95
15, 108879, Note_on_c, 6, 65, 82
15, 108879, Note_on_c, 6, 72, 78
15, 108879, Note_on_c, 6, 79, 88
15, 108919, Note_on_c, 6, 86, 0
15, 108919, Note_on_c, 6, 58, 0
15, 108919, Note_on_c, 6, 65, 0
15, 108919, Note_on_c, 6, 72, 0
15, 108919, Note_on_c, 6, 79, 0
15, 110400, Note_on_c, 6, 86, 118
15, 110400, Note_on_c, 6, 58, 118
15, 110400, Note_on_c, 6, 65, 102
15, 110400, Note_on_c, 6, 72, 119
15, 110400, Note_on_c, 6, 79, 113
15, 110440, Note_on_c, 6, 86, 0
15, 110440, Note_on_c, 6, 58, 0
15, 110440, Note_on_c, 6, 65, 0
15, 110440, Note_on_c, 6, 72, 0
15, 110440, Note_on_c, 6, 79, 0
15, 110480, Note_on_c, 6, 86, 97
15, 110480, Note_on_c, 6, 58, 81
15, 110480, Note_on_c, 6, 65, 83
15, 110480, Note_on_c, 6, 72, 88
15, 110480, Note_on_c, 6, 79, 83
15, 110519, Note_on_c, 6, 86, 0
15, 110519, Note_on_c, 6, 58, 0
15, 110519, Note_on_c, 6, 65, 0
15, 110519, Note_on_c, 6, 72, 0
15, 110519, Note_on_c, 6, 79, 0
15, 110559, Note_on_c, 6, 86, 84
15, 110559, Note_on_c, 6, 58, 92
15, 110559, Note_on_c, 6, 65, 90
15, 110559, Note_on_c, 6, 72, 95
15, 110559, Note_on_c, 6, 79, 95
15, 110599, Note_on_c, 6, 86, 0
15, 110599, Note_on_c, 6, 58, 0
15, 110599, Note_on_c, 6, 65, 0
15, 110599, Note_on_c, 6, 72, 0
15, 110599, Note_on_c, 6, 79, 0
15, 111127, Note_on_c, 6, 79, 86
15, 111128, Note_on_c, 6, 72, 91
15, 111131, Note_on_c, 6, 65, 84
15, 111136, Note_on_c, 6, 86, 87
15, 111138, Note_on_c, 6, 58, 91
15, 111511, Note_on_c, 6, 79, 0
15, 111512, Note_on_c, 6, 72, 0
15, 111515, Note_on_c, 6, 65, 0
15, 111520, Note_on_c, 6, 86, 0
15, 111522, Note_on_c, 6, 58, 0
15, 111600, Note_on_c, 6, 86, 101
15, 111600, Note_on_c, 6, 58, 113
15, 111600, Note_on_c, 6, 65, 116
15, 111600, Note_on_c, 6, 72, 107
15, 111600, Note_on_c, 6, 79, 110
15, 111640, Note_on_c, 6, 86, 0
15, 111640, Note_on_c, 6, 58, 0
15, 111640, Note_on_c, 6, 65, 0
15, 111640, Note_on_c, 6, 72, 0
15, 111640, Note_on_c, 6, 79, 0
15, 111680, Note_on_c, 6, 86, 84
15, 111680, Note_on_c, 6, 58, 88
15, 111680, Note_on_c, 6, 65, 85
15, 111680, Note_on_c, 6, 72, 84
15, 111680, Note_on_c, 6, 79, 93
15, 111719, Note_on_c, 6, 86, 0
15, 111719, Note_on_c, 6, 58, 0
15, 111719, Note_on_c, 6, 65, 0
15, 111719, Note_on_c, 6, 72, 0
15, 111719, Note_on_c, 6, 79, 0
15, 111759, Note_on_c, 6, 86, 85
15, 111759, Note_on_c, 6, 58, 94
15, 111759, Note_on_c, 6, 65, 90
15, 111759, Note_on_c, 6, 72, 98
15, 111759, Note_on_c, 6, 79, 86
15, 111799, Note_on_c, 6, 86, 0
15, 111799, Note_on_c, 6, 58, 0
15, 111799, Note_on_c, 6, 65, 0
15, 111799, Note_on_c, 6, 72, 0
15, 111799, Note_on_c, 6, 79, 0
15, 115379, Note_on_c, 6, 72, 46
15, 115507, Note_on_c, 6, 72, 0
15, 115534, Note_on_c, 6, 77, 56
15, 115539, Note_on_c, 6, 72, 42
15, 115693, Note_on_c, 6, 77, 0
15, 115698, Note_on_c, 6, 72, 0
15, 115920, Note_on_c, 6, 82, 83
15, 115935, Note_on_c, 6, 77, 70
15, 115935, Note_on_c, 6, 72, 66
15, 115938, Note_on_c, 6, 67, 67
15, 116160, Note_on_c, 6, 82, 0
15, 116175, Note_on_c, 6, 77, 0
15, 116175, Note_on_c, 6, 72, 0
15, 116178, Note_on_c, 6, 67, 0
15, 116483, Note_on_c, 6, 77, 79
15, 116489, Note_on_c, 6, 87, 85
15, 116496, Note_on_c, 6, 72, 81
15, 116498, Note_on_c, 6, 67, 94
15, 116501, Note_on_c, 6, 82, 91
15, 116642, Note_on_c, 6, 77, 0
15, 116648, Note_on_c, 6, 87, 0
15, 116655, Note_on_c, 6, 72, 0
15, 116657, Note_on_c, 6, 67, 0
15, 116660, Note_on_c, 6, 82, 0
15, 117600, Program_c, 6, 56
15, 152180, Note_on_c, 6, 85, 89
15, 152251, Note_on_c, 6, 85, 0
15, 152418, Note_on_c, 6, 82, 93
15, 152489, Note_on_c, 6, 82, 0
15, 152665, Note_on_c, 6, 75, 78
15, 152736, Note_on_c, 6, 75, 0
15, 152902, Note_on_c, 6, 70, 92
15, 152973, Note_on_c, 6, 70, 0
15, 157926, Note_on_c, 6, 73, 85
15, 158021, Note_on_c, 6, 73, 0
15, 158168, Note_on_c, 6, 70, 83
15, 158263, Note_on_c, 6, 70, 0
15, 158408, Note_on_c, 6, 75, 92
15, 158503, Note_on_c, 6, 75, 0
15, 158654, Note_on_c, 6, 70, 78
15, 158749, Note_on_c, 6, 70, 0
15, 158894, Note_on_c, 6, 73, 93
15, 158989, Note_on_c, 6, 73, 0
15, 159130, Note_on_c, 6, 70, 97
15, 159225, Note_on_c, 6, 70, 0
15, 159370, Note_on_c, 6, 75, 86
15, 159465, Note_on_c, 6, 75, 0
15, 159606, Note_on_c, 6, 70, 96
15, 159701, Note_on_c, 6, 70, 0
15, 159864, Note_on_c, 6, 73, 78
15, 159959, Note_on_c, 6, 73, 0
15, 160082, Note_on_c, 6, 70, 86
15, 160177, Note_on_c, 6, 70, 0
15, 160324, Note_on_c, 6, 75, 79
15, 160419, Note_on_c, 6, 75, 0
15, 160581, Note_on_c, 6, 70, 88
15, 160676, Note_on_c, 6, 70, 0
15, 161767, Note_on_c, 6, 73, 88
15, 161862, Note_on_c, 6, 73, 0
15, 162020, Note_on_c, 6, 70, 97
15, 162115, Note_on_c, 6, 70, 0
15, 162248, Note_on_c, 6, 75, 82
15, 162343, Note_on_c, 6, 75, 0
15, 162490, Note_on_c, 6, 70, 96
15, 162585, Note_on_c, 6, 70, 0
15, 179526, Note_on_c, 6, 74, 81
15, 180159, Note_on_c, 6, 73, 84
15, 180165, Note_on_c, 6, 74, 0
15, 180223, Note_on_c, 6, 73, 0
15, 180320, Note_on_c, 6, 72, 73
15, 180383, Note_on_c, 6, 72, 0
15, 180502, Note_on_c, 6, 71, 76
15, 180597, Note_on_c, 6, 71, 0
15, 180724, Note_on_c, 6, 70, 82
15, 180819, Note_on_c, 6, 70, 0
15, 181922, Note_on_c, 6, 74, 68
15, 182079, Note_on_c, 6, 73, 77
15, 182081, Note_on_c, 6, 74, 0
15, 182143, Note_on_c, 6, 73, 0
15, 182240, Note_on_c, 6, 72, 75
15, 182303, Note_on_c, 6, 72, 0
15, 182422, Note_on_c, 6, 71, 83
15, 182517, Note_on_c, 6, 71, 0
15, 182658, Note_on_c, 6, 70, 84
15, 182753, Note_on_c, 6, 70, 0
15, 182880, Program_c, 6, 59
15, 182886, Note_on_c, 6, 74, 72
15, 183039, Note_on_c, 6, 73, 65
15, 183045, Note_on_c, 6, 74, 0
15, 183103, Note_on_c, 6, 73, 0
15, 183200, Note_on_c, 6, 72, 80
15, 183263, Note_on_c, 6, 72, 0
15, 183380, Note_on_c, 6, 71, 69
15, 183475, Note_on_c, 6, 71, 0
15, 183617, Note_on_c, 6, 70, 83
15, 183712, Note_on_c, 6, 70, 0
15, 183840, Program_c, 6, 56
15, 198248, Note_on_c, 6, 66, 82
15, 198255, Note_on_c, 6, 70, 84
15, 198255, Note_on_c, 6, 65, 86
15, 198256, Note_on_c, 6, 61, 89
15, 198728, Note_on_c, 6, 66, 0
15, 198730, Note_on_c, 6, 66, 87
15, 198734, Note_on_c, 6, 70, 94
15, 198735, Note_on_c, 6, 70, 0
15, 198735, Note_on_c, 6, 65, 0
15, 198735, Note_on_c, 6, 62, 95
15, 198736, Note_on_c, 6, 61, 0
15, 198739, Note_on_c, 6, 65, 98
15, 199206, Note_on_c, 6, 61, 84
15, 199207, Note_on_c, 6, 65, 91
15, 199210, Note_on_c, 6, 66, 0
15, 199214, Note_on_c, 6, 70, 0
15, 199215, Note_on_c, 6, 62, 0
15, 199219, Note_on_c, 6, 65, 0
15, 199222, Note_on_c, 6, 66, 99
15, 199225, Note_on_c, 6, 70, 83
15, 199681, Note_on_c, 6, 66, 82
15, 199686, Note_on_c, 6, 61, 0
15, 199687, Note_on_c, 6, 65, 0
15, 199687, Note_on_c, 6, 61, 102
15, 199689, Note_on_c, 6, 70, 94
15, 199701, Note_on_c, 6, 65, 88
15, 199702, Note_on_c, 6, 66, 0
15, 199705, Note_on_c, 6, 70, 0
15, 200161, Note_on_c, 6, 66, 0
15, 200164, Note_on_c, 6, 68, 82
15, 200167, Note_on_c, 6, 61, 0
15, 200169, Note_on_c, 6, 70, 0
15, 200169, Note_on_c, 6, 66, 101
15, 200173, Note_on_c, 6, 72, 98
15, 200175, Note_on_c, 6, 63, 99
15, 200181, Note_on_c, 6, 65, 0
15, 200404, Note_on_c, 6, 68, 0
15, 200409, Note_on_c, 6, 66, 0
15, 200409, Note_on_c, 6, 73, 96
15, 200411, Note_on_c, 6, 70, 86
15, 200413, Note_on_c, 6, 72, 0
15, 200415, Note_on_c, 6, 63, 0
15, 200417, Note_on_c, 6, 65, 87
15, 200417, Note_on_c, 6, 68, 99
15, 200641, Note_on_c, 6, 66, 86
15, 200648, Note_on_c, 6, 75, 97
15, 200649, Note_on_c, 6, 73, 0
15, 200649, Note_on_c, 6, 72, 84
15, 200651, Note_on_c, 6, 70, 0
15, 200654, Note_on_c, 6, 70, 94
15, 200657, Note_on_c, 6, 65, 0
15, 200657, Note_on_c, 6, 68, 0
15, 201120, Note_on_c, 6, 70, 97
15, 201121, Note_on_c, 6, 66, 0
15, 201128, Note_on_c, 6, 75, 0
15, 201129, Note_on_c, 6, 72, 0
15, 201131, Note_on_c, 6, 68, 88
15, 201134, Note_on_c, 6, 70, 0
15, 201135, Note_on_c, 6, 65, 86
15, 201141, Note_on_c, 6, 73, 83
15, 201600, Note_on_c, 6, 70, 0
15, 201606, Note_on_c, 6, 63, 102
15, 201608, Note_on_c, 6, 66, 96
15, 201611, Note_on_c, 6, 68, 0
15, 201615, Note_on_c, 6, 65, 0
15, 201620, Note_on_c, 6, 72, 101
15, 201621, Note_on_c, 6, 73, 0
15, 201625, Note_on_c, 6, 68, 93
15, 202082, Note_on_c, 6, 70, 83
15, 202086, Note_on_c, 6, 63, 0
15, 202088, Note_on_c, 6, 66, 0
15, 202094, Note_on_c, 6, 61, 101
15, 202095, Note_on_c, 6, 66, 88
15, 202096, Note_on_c, 6, 65, 98
15, 202100, Note_on_c, 6, 72, 0
15, 202105, Note_on_c, 6, 68, 0
15, 202562, Note_on_c, 6, 70, 0
15, 202570, Note_on_c, 6, 66, 86
15, 202572, Note_on_c, 6, 70, 102
15, 202574, Note_on_c, 6, 61, 0
15, 202575, Note_on_c, 6, 66, 0
15, 202575, Note_on_c, 6, 61, 96
15, 202576, Note_on_c, 6, 65, 0
15, 202576, Note_on_c, 6, 65, 88
15, 203045, Note_on_c, 6, 66, 99
15, 203050, Note_on_c, 6, 66, 0
15, 203052, Note_on_c, 6, 70, 0
15, 203052, Note_on_c, 6, 63, 85
15, 203055, Note_on_c, 6, 61, 0
15, 203056, Note_on_c, 6, 65, 0
15, 203057, Note_on_c, 6, 68, 98
15, 203062, Note_on_c, 6, 72, 101
15, 203285, Note_on_c, 6, 66, 0
15, 203292, Note_on_c, 6, 63, 0
15, 203293, Note_on_c, 6, 65, 83
15, 203297, Note_on_c, 6, 68, 0
15, 203301, Note_on_c, 6, 68, 91
15, 203302, Note_on_c, 6, 72, 0
15, 203302, Note_on_c, 6, 73, 96
15, 203303, Note_on_c, 6, 70, 88
15, 203524, Note_on_c, 6, 75, 99
15, 203533, Note_on_c, 6, 65, 0
15, 203533, Note_on_c, 6, 72, 89
15, 203540, Note_on_c, 6, 66, 99
15, 203541, Note_on_c, 6, 68, 0
15, 203542, Note_on_c, 6, 73, 0
15, 203543, Note_on_c, 6, 70, 0
15, 203543, Note_on_c, 6, 70, 83
15, 204004, Note_on_c, 6, 75, 0
15, 204005, Note_on_c, 6, 66, 94
15, 204005, Note_on_c, 6, 61, 100
15, 204013, Note_on_c, 6, 72, 0
15, 204019, Note_on_c, 6, 70, 88
15, 204019, Note_on_c, 6, 65, 86
15, 204020, Note_on_c, 6, 66, 0
15, 204023, Note_on_c, 6, 70, 0
15, 204484, Note_on_c, 6, 70, 98
15, 204485, Note_on_c, 6, 66, 0
15, 204485, Note_on_c, 6, 61, 0
15, 204493, Note_on_c, 6, 61, 91
15, 204499, Note_on_c, 6, 70, 0
15, 204499, Note_on_c, 6, 65, 0
15, 204499, Note_on_c, 6, 65, 82
15, 204504, Note_on_c, 6, 66, 99
15, 204960, Note_on_c, 6, 63, 101
15, 204964, Note_on_c, 6, 70, 0
15, 204965, Note_on_c, 6, 66, 89
15, 204973, Note_on_c, 6, 61, 0
15, 204979, Note_on_c, 6, 65, 0
15, 204981, Note_on_c, 6, 68, 94
15, 204984, Note_on_c, 6, 66, 0
15, 204985, Note_on_c, 6, 72, 94
15, 205200, Note_on_c, 6, 63, 0
15, 205204, Note_on_c, 6, 73, 101
15, 205205, Note_on_c, 6, 66, 0
15, 205211, Note_on_c, 6, 68, 89
15, 205213, Note_on_c, 6, 70, 99
15, 205214, Note_on_c, 6, 65, 82
15, 205221, Note_on_c, 6, 68, 0
15, 205225, Note_on_c, 6, 72, 0
15, 205444, Note_on_c, 6, 73, 0
15, 205447, Note_on_c, 6, 75, 84
15, 205451, Note_on_c, 6, 68, 0
15, 205453, Note_on_c, 6, 70, 0
15, 205454, Note_on_c, 6, 65, 0
15, 205456, Note_on_c, 6, 66, 89
15, 205462, Note_on_c, 6, 70, 87
15, 205465, Note_on_c, 6, 72, 83
15, 205922, Note_on_c, 6, 68, 100
15, 205927, Note_on_c, 6, 75, 0
15, 205936, Note_on_c, 6, 66, 0
15, 205936, Note_on_c, 6, 73, 85
15, 205937, Note_on_c, 6, 70, 96
15, 205942, Note_on_c, 6, 70, 0
15, 205945, Note_on_c, 6, 72, 0
15, 205945, Note_on_c, 6, 65, 86
15, 206400, Note_on_c, 6, 68, 87
15, 206402, Note_on_c, 6, 68, 0
15, 206403, Note_on_c, 6, 66, 91
15, 206407, Note_on_c, 6, 72, 85
15, 206415, Note_on_c, 6, 63, 90
15, 206416, Note_on_c, 6, 73, 0
15, 206417, Note_on_c, 6, 70, 0
15, 206425, Note_on_c, 6, 65, 0
15, 206880, Note_on_c, 6, 68, 0
15, 206883, Note_on_c, 6, 66, 0
15, 206884, Note_on_c, 6, 66, 92
15, 206887, Note_on_c, 6, 72, 0
15, 206894, Note_on_c, 6, 61, 96
15, 206895, Note_on_c, 6, 63, 0
15, 206899, Note_on_c, 6, 70, 90
15, 206904, Note_on_c, 6, 65, 86
15, 207364, Note_on_c, 6, 66, 0
15, 207367, Note_on_c, 6, 70, 98
15, 207374, Note_on_c, 6, 61, 0
15, 207375, Note_on_c, 6, 65, 89
15, 207377, Note_on_c, 6, 66, 82
15, 207378, Note_on_c, 6, 61, 93
15, 207379, Note_on_c, 6, 70, 0
15, 207384, Note_on_c, 6, 65, 0
15, 207847, Note_on_c, 6, 70, 0
15, 207848, Note_on_c, 6, 68, 88
15, 207848, Note_on_c, 6, 63, 84
15, 207849, Note_on_c, 6, 72, 92
15, 207850, Note_on_c, 6, 66, 93
15, 207855, Note_on_c, 6, 65, 0
15, 207857, Note_on_c, 6, 66, 0
15, 207858, Note_on_c, 6, 61, 0
15, 208088, Note_on_c, 6, 68, 0
15, 208088, Note_on_c, 6, 63, 0
15, 208089, Note_on_c, 6, 72, 0
15, 208090, Note_on_c, 6, 66, 0
15, 208097, Note_on_c, 6, 68, 88
15, 208098, Note_on_c, 6, 70, 87
15, 208103, Note_on_c, 6, 65, 98
15, 208104, Note_on_c, 6, 73, 88
15, 208330, Note_on_c, 6, 66, 101
15, 208337, Note_on_c, 6, 68, 0
15, 208338, Note_on_c, 6, 70, 0
15, 208343, Note_on_c, 6, 65, 0
15, 208343, Note_on_c, 6, 72, 89
15, 208344, Note_on_c, 6, 73, 0
15, 208344, Note_on_c, 6, 75, 86
15, 208345, Note_on_c, 6, 70, 89
15, 208810, Note_on_c, 6, 66, 0
15, 208823, Note_on_c, 6, 72, 0
15, 208824, Note_on_c, 6, 75, 0
15, 208825, Note_on_c, 6, 70, 0
15, 209040, Note_on_c, 6, 70, 94
15, 209052, Note_on_c, 6, 66, 92
15, 209055, Note_on_c, 6, 65, 101
15, 209063, Note_on_c, 6, 61, 96
15, 209760, Note_on_c, 6, 70, 0
15, 209772, Note_on_c, 6, 66, 0
15, 209772, Note_on_c, 6, 66, 83
15, 209772, Note_on_c, 6, 65, 98
15, 209775, Note_on_c, 6, 65, 0
15, 209780, Note_on_c, 6, 70, 88
15, 209782, Note_on_c, 6, 61, 100
15, 209783, Note_on_c, 6, 61, 0
15, 210245, Note_on_c, 6, 61, 94
15, 210248, Note_on_c, 6, 70, 88
15, 210248, Note_on_c, 6, 65, 102
15, 210252, Note_on_c, 6, 66, 0
15, 210252, Note_on_c, 6, 65, 0
15, 210259, Note_on_c, 6, 66, 92
15, 210260, Note_on_c, 6, 70, 0
15, 210262, Note_on_c, 6, 61, 0
15, 210725, Note_on_c, 6, 61, 0
15, 210725, Note_on_c, 6, 72, 97
15, 210725, Note_on_c, 6, 66, 102
15, 210728, Note_on_c, 6, 70, 0
15, 210728, Note_on_c, 6, 65, 0
15, 210733, Note_on_c, 6, 63, 92
15, 210738, Note_on_c, 6, 68, 100
15, 210739, Note_on_c, 6, 66, 0
15, 210962, Note_on_c, 6, 65, 100
15, 210965, Note_on_c, 6, 72, 0
15, 210965, Note_on_c, 6, 66, 0
15, 210973, Note_on_c, 6, 63, 0
15, 210974, Note_on_c, 6, 70, 91
15, 210975, Note_on_c, 6, 68, 90
15, 210978, Note_on_c, 6, 68, 0
15, 210983, Note_on_c, 6, 73, 91
15, 211202, Note_on_c, 6, 65, 0
15, 211209, Note_on_c, 6, 66, 85
15, 211214, Note_on_c, 6, 70, 0
15, 211215, Note_on_c, 6, 68, 0
15, 211215, Note_on_c, 6, 70, 84
15, 211218, Note_on_c, 6, 72, 98
15, 211223, Note_on_c, 6, 73, 0
15, 211225, Note_on_c, 6, 75, 86
15, 211689, Note_on_c, 6, 66, 0
15, 211695, Note_on_c, 6, 70, 0
15, 211698, Note_on_c, 6, 72, 0
15, 211705, Note_on_c, 6, 75, 0
15, 227046, Note_on_c, 6, 69, 85
15, 227141, Note_on_c, 6, 69, 0
15, 227281, Note_on_c, 6, 72, 73
15, 227376, Note_on_c, 6, 72, 0
15, 227541, Note_on_c, 6, 71, 66
15, 227636, Note_on_c, 6, 71, 0
15, 227765, Note_on_c, 6, 74, 82
15, 227860, Note_on_c, 6, 74, 0
15, 228018, Note_on_c, 6, 69, 84
15, 228113, Note_on_c, 6, 69, 0
15, 228257, Note_on_c, 6, 72, 72
15, 228352, Note_on_c, 6, 72, 0
15, 228492, Note_on_c, 6, 71, 71
15, 228587, Note_on_c, 6, 71, 0
15, 228731, Note_on_c, 6, 74, 84
15, 228826, Note_on_c, 6, 74, 0
15, 228975, Note_on_c, 6, 69, 79
15, 229070, Note_on_c, 6, 69, 0
15, 229221, Note_on_c, 6, 72, 83
15, 229316, Note_on_c, 6, 72, 0
15, 229465, Note_on_c, 6, 71, 65
15, 229560, Note_on_c, 6, 71, 0
15, 229690, Note_on_c, 6, 74, 83
15, 229785, Note_on_c, 6, 74, 0
15, 229941, Note_on_c, 6, 69, 78
15, 230036, Note_on_c, 6, 69, 0
15, 230174, Note_on_c, 6, 72, 74
15, 230269, Note_on_c, 6, 72, 0
15, 230418, Note_on_c, 6, 71, 73
15, 230513, Note_on_c, 6, 71, 0
15, 230661, Note_on_c, 6, 74, 75
15, 230756, Note_on_c, 6, 74, 0
15, 230883, Note_on_c, 6, 69, 79
15, 230978, Note_on_c, 6, 69, 0
15, 231126, Note_on_c, 6, 72, 74
15, 231221, Note_on_c, 6, 72, 0
15, 231381, Note_on_c, 6, 71, 80
15, 231476, Note_on_c, 6, 71, 0
15, 231606, Note_on_c, 6, 74, 74
15, 231701, Note_on_c, 6, 74, 0
15, 231860, Note_on_c, 6, 69, 69
15, 231955, Note_on_c, 6, 69, 0
15, 232080, Note_on_c, 6, 72, 77
15, 232175, Note_on_c, 6, 72, 0
15, 232341, Note_on_c, 6, 71, 69
15, 232436, Note_on_c, 6, 71, 0
15, 232577, Note_on_c, 6, 74, 85
15, 232672, Note_on_c, 6, 74, 0
15, 232803, Note_on_c, 6, 75, 67
15, 232805, Note_on_c, 6, 69, 79
15, 232811, Note_on_c, 6, 69, 84
15, 232823, Note_on_c, 6, 72, 65
15, 232824, Note_on_c, 6, 79, 80
15, 232898, Note_on_c, 6, 75, 0
15, 232900, Note_on_c, 6, 69, 0
15, 232906, Note_on_c, 6, 69, 0
15, 232918, Note_on_c, 6, 72, 0
15, 232919, Note_on_c, 6, 79, 0
15, 233062, Note_on_c, 6, 72, 75
15, 233157, Note_on_c, 6, 72, 0
15, 233172, Note_on_c, 6, 75, 116
15, 233172, Note_on_c, 6, 72, 102
15, 233181, Note_on_c, 6, 69, 97
15, 233185, Note_on_c, 6, 79, 110
15, 233283, Note_on_c, 6, 77, 114
15, 233285, Note_on_c, 6, 81, 113
15, 233292, Note_on_c, 6, 75, 0
15, 233292, Note_on_c, 6, 72, 0
15, 233296, Note_on_c, 6, 74, 97
15, 233299, Note_on_c, 6, 71, 77
15, 233301, Note_on_c, 6, 69, 0
15, 233302, Note_on_c, 6, 71, 110
15, 233305, Note_on_c, 6, 79, 0
15, 233378, Note_on_c, 6, 77, 0
15, 233380, Note_on_c, 6, 81, 0
15, 233391, Note_on_c, 6, 74, 0
15, 233394, Note_on_c, 6, 71, 0
15, 233397, Note_on_c, 6, 71, 0
15, 233530, Note_on_c, 6, 74, 76
15, 233625, Note_on_c, 6, 74, 0
15, 233652, Note_on_c, 6, 71, 70
15, 233657, Note_on_c, 6, 81, 75
15, 233657, Note_on_c, 6, 74, 67
15, 233660, Note_on_c, 6, 77, 72
15, 233765, Note_on_c, 6, 75, 82
15, 233772, Note_on_c, 6, 71, 0
15, 233776, Note_on_c, 6, 69, 76
15, 233776, Note_on_c, 6, 79, 71
15, 233777, Note_on_c, 6, 81, 0
15, 233777, Note_on_c, 6, 74, 0
15, 233780, Note_on_c, 6, 77, 0
15, 233782, Note_on_c, 6, 72, 82
15, 233783, Note_on_c, 6, 69, 66
15, 233860, Note_on_c, 6, 75, 0
15, 233871, Note_on_c, 6, 69, 0
15, 233871, Note_on_c, 6, 79, 0
15, 233877, Note_on_c, 6, 72, 0
15, 233878, Note_on_c, 6, 69, 0
15, 234001, Note_on_c, 6, 72, 85
15, 234096, Note_on_c, 6, 72, 0
15, 234265, Note_on_c, 6, 71, 83
15, 234360, Note_on_c, 6, 71, 0
15, 234496, Note_on_c, 6, 74, 80
15, 234591, Note_on_c, 6, 74, 0
15, 234723, Note_on_c, 6, 79, 85
15, 234728, Note_on_c, 6, 69, 79
15, 234736, Note_on_c, 6, 69, 86
15, 234737, Note_on_c, 6, 75, 79
15, 234737, Note_on_c, 6, 72, 79
15, 234818, Note_on_c, 6, 79, 0
15, 234823, Note_on_c, 6, 69, 0
15, 234831, Note_on_c, 6, 69, 0
15, 234832, Note_on_c, 6, 75, 0
15, 234832, Note_on_c, 6, 72, 0
15, 234964, Note_on_c, 6, 72, 84
15, 235059, Note_on_c, 6, 72, 0
15, 235081, Note_on_c, 6, 69, 115
15, 235102, Note_on_c, 6, 79, 110
15, 235103, Note_on_c, 6, 75, 120
15, 235104, Note_on_c, 6, 72, 126
15, 235201, Note_on_c, 6, 69, 0
15, 235203, Note_on_c, 6, 71, 88
15, 235214, Note_on_c, 6, 77, 111
15, 235215, Note_on_c, 6, 81, 118
15, 235217, Note_on_c, 6, 74, 127
15, 235222, Note_on_c, 6, 79, 0
15, 235223, Note_on_c, 6, 75, 0
15, 235224, Note_on_c, 6, 72, 0
15, 235224, Note_on_c, 6, 71, 127
15, 235298, Note_on_c, 6, 71, 0
15, 235309, Note_on_c, 6, 77, 0
15, 235310, Note_on_c, 6, 81, 0
15, 235312, Note_on_c, 6, 74, 0
15, 235319, Note_on_c, 6, 71, 0
15, 235456, Note_on_c, 6, 74, 82
15, 235551, Note_on_c, 6, 74, 0
15, 235561, Note_on_c, 6, 81, 98
15, 235568, Note_on_c, 6, 71, 91
15, 235583, Note_on_c, 6, 74, 94
15, 235585, Note_on_c, 6, 77, 86
15, 235681, Note_on_c, 6, 81, 0
15, 235682, Note_on_c, 6, 75, 80
15, 235684, Note_on_c, 6, 72, 95
15, 235686, Note_on_c, 6, 69, 94
15, 235688, Note_on_c, 6, 71, 0
15, 235698, Note_on_c, 6, 69, 91
15, 235703, Note_on_c, 6, 74, 0
15, 235705, Note_on_c, 6, 77, 0
15, 235705, Note_on_c, 6, 79, 91
15, 235777, Note_on_c, 6, 75, 0
15, 235779, Note_on_c, 6, 72, 0
15, 235781, Note_on_c, 6, 69, 0
15, 235793, Note_on_c, 6, 69, 0
15, 235800, Note_on_c, 6, 79, 0
15, 235929, Note_on_c, 6, 72, 87
15, 236024, Note_on_c, 6, 72, 0
15, 236040, Note_on_c, 6, 79, 112
15, 236045, Note_on_c, 6, 72, 114
15, 236050, Note_on_c, 6, 75, 125
15, 236054, Note_on_c, 6, 69, 124
15, 236160, Note_on_c, 6, 79, 0
15, 236163, Note_on_c, 6, 71, 81
15, 236165, Note_on_c, 6, 72, 0
15, 236166, Note_on_c, 6, 77, 110
15, 236170, Note_on_c, 6, 75, 0
15, 236171, Note_on_c, 6, 81, 114
15, 236174, Note_on_c, 6, 69, 0
15, 236175, Note_on_c, 6, 74, 118
15, 236182, Note_on_c, 6, 71, 117
15, 236258, Note_on_c, 6, 71, 0
15, 236261, Note_on_c, 6, 77, 0
15, 236266, Note_on_c, 6, 81, 0
15, 236270, Note_on_c, 6, 74, 0
15, 236277, Note_on_c, 6, 71, 0
15, 236418, Note_on_c, 6, 74, 83
15, 236513, Note_on_c, 6, 74, 0
15, 236528, Note_on_c, 6, 77, 89
15, 236535, Note_on_c, 6, 71, 95
15, 236542, Note_on_c, 6, 74, 98
15, 236543, Note_on_c, 6, 81, 88
15, 236645, Note_on_c, 6, 79, 95
15, 236647, Note_on_c, 6, 75, 98
15, 236648, Note_on_c, 6, 77, 0
15, 236652, Note_on_c, 6, 72, 79
15, 236653, Note_on_c, 6, 69, 83
15, 236655, Note_on_c, 6, 71, 0
15, 236659, Note_on_c, 6, 69, 82
15, 236662, Note_on_c, 6, 74, 0
15, 236663, Note_on_c, 6, 81, 0
15, 236740, Note_on_c, 6, 79, 0
15, 236742, Note_on_c, 6, 75, 0
15, 236747, Note_on_c, 6, 72, 0
15, 236748, Note_on_c, 6, 69, 0
15, 236754, Note_on_c, 6, 69, 0
15, 236902, Note_on_c, 6, 72, 83
15, 236997, Note_on_c, 6, 72, 0
15, 237002, Note_on_c, 6, 72, 119
15, 237016, Note_on_c, 6, 75, 110
15, 237021, Note_on_c, 6, 69, 110
15, 237023, Note_on_c, 6, 79, 121
15, 237120, Note_on_c, 6, 81, 127
15, 237122, Note_on_c, 6, 72, 0
15, 237125, Note_on_c, 6, 71, 112
15, 237126, Note_on_c, 6, 74, 115
15, 237128, Note_on_c, 6, 77, 112
15, 237131, Note_on_c, 6, 71, 90
15, 237136, Note_on_c, 6, 75, 0
15, 237141, Note_on_c, 6, 69, 0
15, 237143, Note_on_c, 6, 79, 0
15, 237215, Note_on_c, 6, 81, 0
15, 237220, Note_on_c, 6, 71, 0
15, 237221, Note_on_c, 6, 74, 0
15, 237223, Note_on_c, 6, 77, 0
15, 237226, Note_on_c, 6, 71, 0
15, 237382, Note_on_c, 6, 74, 80
15, 237477, Note_on_c, 6, 74, 0
15, 237483, Note_on_c, 6, 71, 87
15, 237498, Note_on_c, 6, 81, 86
15, 237498, Note_on_c, 6, 74, 98
15, 237503, Note_on_c, 6, 77, 82
15, 237601, Note_on_c, 6, 72, 85
15, 237603, Note_on_c, 6, 71, 0
15, 237614, Note_on_c, 6, 69, 97
15, 237615, Note_on_c, 6, 79, 93
15, 237617, Note_on_c, 6, 83, 95
15, 237618, Note_on_c, 6, 81, 0
15, 237618, Note_on_c, 6, 74, 0
15, 237623, Note_on_c, 6, 77, 0
15, 237623, Note_on_c, 6, 75, 93
15, 237696, Note_on_c, 6, 72, 0
15, 237709, Note_on_c, 6, 69, 0
15, 237710, Note_on_c, 6, 79, 0
15, 237712, Note_on_c, 6, 83, 0
15, 237718, Note_on_c, 6, 75, 0
15, 237850, Note_on_c, 6, 72, 88
15, 237945, Note_on_c, 6, 72, 0
15, 237962, Note_on_c, 6, 75, 127
15, 237969, Note_on_c, 6, 79, 127
15, 237981, Note_on_c, 6, 83, 83
15, 237984, Note_on_c, 6, 72, 96
15, 238082, Note_on_c, 6, 75, 0
15, 238085, Note_on_c, 6, 77, 113
15, 238086, Note_on_c, 6, 81, 123
15, 238089, Note_on_c, 6, 79, 0
15, 238089, Note_on_c, 6, 71, 96
15, 238099, Note_on_c, 6, 71, 85
15, 238101, Note_on_c, 6, 83, 0
15, 238104, Note_on_c, 6, 72, 0
15, 238104, Note_on_c, 6, 74, 89
15, 238180, Note_on_c, 6, 77, 0
15, 238181, Note_on_c, 6, 81, 0
15, 238184, Note_on_c, 6, 71, 0
15, 238194, Note_on_c, 6, 71, 0
15, 238199, Note_on_c, 6, 74, 0
15, 238330, Note_on_c, 6, 74, 94
15, 238425, Note_on_c, 6, 74, 0
15, 238447, Note_on_c, 6, 71, 98
15, 238447, Note_on_c, 6, 74, 96
15, 238459, Note_on_c, 6, 77, 79
15, 238464, Note_on_c, 6, 81, 91
15, 238560, Note_on_c, 6, 81, 89
15, 238567, Note_on_c, 6, 71, 0
15, 238567, Note_on_c, 6, 74, 0
15, 238572, Note_on_c, 6, 75, 85
15, 238573, Note_on_c, 6, 79, 89
15, 238579, Note_on_c, 6, 77, 0
15, 238583, Note_on_c, 6, 72, 89
15, 238583, Note_on_c, 6, 83, 83
15, 238584, Note_on_c, 6, 81, 0
15, 238607, Note_on_c, 6, 81, 0
15, 238667, Note_on_c, 6, 75, 0
15, 238668, Note_on_c, 6, 79, 0
15, 238678, Note_on_c, 6, 72, 0
15, 238678, Note_on_c, 6, 83, 0
15, 238680, Note_on_c, 6, 81, 89
15, 238727, Note_on_c, 6, 81, 0
15, 238800, Note_on_c, 6, 83, 84
15, 238847, Note_on_c, 6, 83, 0
15, 238920, Note_on_c, 6, 83, 79
15, 238920, Note_on_c, 6, 75, 110
15, 238922, Note_on_c, 6, 83, 92
15, 238936, Note_on_c, 6, 79, 116
15, 238937, Note_on_c, 6, 72, 80
15, 238967, Note_on_c, 6, 83, 0
15, 239040, Note_on_c, 6, 75, 0
15, 239040, Note_on_c, 6, 81, 79
15, 239042, Note_on_c, 6, 83, 0
15, 239047, Note_on_c, 6, 77, 122
15, 239050, Note_on_c, 6, 71, 89
15, 239056, Note_on_c, 6, 79, 0
15, 239057, Note_on_c, 6, 72, 0
15, 239059, Note_on_c, 6, 81, 112
15, 239060, Note_on_c, 6, 74, 79
15, 239087, Note_on_c, 6, 81, 0
15, 239142, Note_on_c, 6, 77, 0
15, 239145, Note_on_c, 6, 71, 0
15, 239154, Note_on_c, 6, 81, 0
15, 239155, Note_on_c, 6, 74, 0
15, 239160, Note_on_c, 6, 81, 79
15, 239207, Note_on_c, 6, 81, 0
15, 239280, Note_on_c, 6, 86, 82
15, 239327, Note_on_c, 6, 86, 0
15, 239400, Note_on_c, 6, 86, 84
15, 239401, Note_on_c, 6, 77, 97
15, 239403, Note_on_c, 6, 74, 98
15, 239411, Note_on_c, 6, 71, 80
15, 239411, Note_on_c, 6, 81, 83
15, 239447, Note_on_c, 6, 86, 0
15, 239520, Note_on_c, 6, 84, 78
15, 239521, Note_on_c, 6, 77, 0
15, 239522, Note_on_c, 6, 72, 83
15, 239523, Note_on_c, 6, 74, 0
15, 239524, Note_on_c, 6, 75, 93
15, 239531, Note_on_c, 6, 71, 0
15, 239531, Note_on_c, 6, 81, 0
15, 239531, Note_on_c, 6, 83, 91
15, 239540, Note_on_c, 6, 79, 78
15, 239567, Note_on_c, 6, 84, 0
15, 239617, Note_on_c, 6, 72, 0
15, 239619, Note_on_c, 6, 75, 0
15, 239626, Note_on_c, 6, 83, 0
15, 239635, Note_on_c, 6, 79, 0
15, 239640, Note_on_c, 6, 84, 98
15, 239687, Note_on_c, 6, 84, 0
15, 239760, Note_on_c, 6, 83, 90
15, 239807, Note_on_c, 6, 83, 0
15, 239880, Note_on_c, 6, 83, 89
15, 239890, Note_on_c, 6, 72, 84
15, 239892, Note_on_c, 6, 75, 114
15, 239893, Note_on_c, 6, 79, 117
15, 239896, Note_on_c, 6, 83, 95
15, 239927, Note_on_c, 6, 83, 0
15, 240000, Note_on_c, 6, 83, 96
15, 240010, Note_on_c, 6, 72, 0
15, 240012, Note_on_c, 6, 75, 0
15, 240013, Note_on_c, 6, 79, 0
15, 240015, Note_on_c, 6, 81, 114
15, 240016, Note_on_c, 6, 83, 0
15, 240018, Note_on_c, 6, 74, 81
15, 240019, Note_on_c, 6, 71, 79
15, 240019, Note_on_c, 6, 77, 120
15, 240047, Note_on_c, 6, 83, 0
15, 240110, Note_on_c, 6, 81, 0
15, 240113, Note_on_c, 6, 74, 0
15, 240114, Note_on_c, 6, 71, 0
15, 240114, Note_on_c, 6, 77, 0
15, 240120, Note_on_c, 6, 83, 94
15, 240167, Note_on_c, 6, 83, 0
15, 240240, Note_on_c, 6, 79, 81
15, 240287, Note_on_c, 6, 79, 0
15, 240360, Note_on_c, 6, 79, 95
15, 240372, Note_on_c, 6, 77, 80
15, 240376, Note_on_c, 6, 81, 80
15, 240377, Note_on_c, 6, 71, 84
15, 240381, Note_on_c, 6, 74, 83
15, 240407, Note_on_c, 6, 79, 0
15, 240480, Note_on_c, 6, 81, 97
15, 240482, Note_on_c, 6, 83, 84
15, 240485, Note_on_c, 6, 79, 88
15, 240492, Note_on_c, 6, 77, 0
15, 240496, Note_on_c, 6, 81, 0
15, 240497, Note_on_c, 6, 71, 0
15, 240500, Note_on_c, 6, 75, 86
15, 240501, Note_on_c, 6, 74, 0
15, 240502, Note_on_c, 6, 72, 88
15, 240527, Note_on_c, 6, 81, 0
15, 240577, Note_on_c, 6, 83, 0
15, 240580, Note_on_c, 6, 79, 0
15, 240595, Note_on_c, 6, 75, 0
15, 240597, Note_on_c, 6, 72, 0
15, 240600, Note_on_c, 6, 81, 87
15, 240647, Note_on_c, 6, 81, 0
15, 240720, Note_on_c, 6, 86, 83
15, 240767, Note_on_c, 6, 86, 0
15, 240840, Note_on_c, 6, 86, 98
15, 240853, Note_on_c, 6, 75, 118
15, 240854, Note_on_c, 6, 79, 127
15, 240854, Note_on_c, 6, 83, 93
15, 240859, Note_on_c, 6, 72, 82
15, 240887, Note_on_c, 6, 86, 0
15, 240960, Note_on_c, 6, 79, 94
15, 240962, Note_on_c, 6, 71, 93
15, 240964, Note_on_c, 6, 77, 115
15, 240966, Note_on_c, 6, 81, 117
15, 240973, Note_on_c, 6, 75, 0
15, 240974, Note_on_c, 6, 79, 0
15, 240974, Note_on_c, 6, 83, 0
15, 240978, Note_on_c, 6, 74, 86
15, 240979, Note_on_c, 6, 72, 0
15, 241007, Note_on_c, 6, 79, 0
15, 241057, Note_on_c, 6, 71, 0
15, 241059, Note_on_c, 6, 77, 0
15, 241061, Note_on_c, 6, 81, 0
15, 241073, Note_on_c, 6, 74, 0
15, 241080, Note_on_c, 6, 79, 86
15, 241127, Note_on_c, 6, 79, 0
15, 241200, Note_on_c, 6, 86, 98
15, 241247, Note_on_c, 6, 86, 0
15, 241320, Note_on_c, 6, 86, 98
15, 241324, Note_on_c, 6, 71, 87
15, 241331, Note_on_c, 6, 77, 88
15, 241334, Note_on_c, 6, 81, 90
15, 241341, Note_on_c, 6, 74, 81
15, 241367, Note_on_c, 6, 86, 0
15, 241441, Note_on_c, 6, 79, 94
15, 241444, Note_on_c, 6, 71, 0
15, 241449, Note_on_c, 6, 75, 97
15, 241449, Note_on_c, 6, 83, 84
15, 241451, Note_on_c, 6, 77, 0
15, 241454, Note_on_c, 6, 81, 0
15, 241459, Note_on_c, 6, 72, 87
15, 241461, Note_on_c, 6, 74, 0
15, 241464, Note_on_c, 6, 81, 84
15, 241536, Note_on_c, 6, 79, 0
15, 241544, Note_on_c, 6, 75, 0
15, 241544, Note_on_c, 6, 83, 0
15, 241554, Note_on_c, 6, 72, 0
15, 241559, Note_on_c, 6, 81, 0
15, 241693, Note_on_c, 6, 72, 97
15, 241695, Note_on_c, 6, 75, 118
15, 241701, Note_on_c, 6, 83, 87
15, 241705, Note_on_c, 6, 79, 121
15, 241764, Note_on_c, 6, 72, 0
15, 241766, Note_on_c, 6, 75, 0
15, 241772, Note_on_c, 6, 83, 0
15, 241776, Note_on_c, 6, 79, 0
15, 242165, Note_on_c, 6, 72, 85
15, 242165, Note_on_c, 6, 79, 119
15, 242168, Note_on_c, 6, 75, 127
15, 242173, Note_on_c, 6, 83, 91
15, 242236, Note_on_c, 6, 72, 0
15, 242236, Note_on_c, 6, 79, 0
15, 242239, Note_on_c, 6, 75, 0
15, 242244, Note_on_c, 6, 83, 0
15, 242400, Note_on_c, 6, 81, 96
15, 242403, Note_on_c, 6, 69, 104
15, 242405, Note_on_c, 6, 79, 97
15, 242411, Note_on_c, 6, 72, 86
15, 242423, Note_on_c, 6, 75, 94
15, 242447, Note_on_c, 6, 81, 0
15, 242498, Note_on_c, 6, 69, 0
15, 242500, Note_on_c, 6, 79, 0
15, 242506, Note_on_c, 6, 72, 0
15, 242518, Note_on_c, 6, 75, 0
15, 242520, Note_on_c, 6, 81, 86
15, 242567, Note_on_c, 6, 81, 0
15, 242640, Note_on_c, 6, 83, 103
15, 242687, Note_on_c, 6, 83, 0
15, 242760, Note_on_c, 6, 83, 99
15, 242766, Note_on_c, 6, 79, 123
15, 242782, Note_on_c, 6, 72, 99
15, 242784, Note_on_c, 6, 69, 91
15, 242785, Note_on_c, 6, 75, 127
15, 242807, Note_on_c, 6, 83, 0
15, 242880, Note_on_c, 6, 81, 94
15, 242880, Note_on_c, 6, 71, 93
15, 242881, Note_on_c, 6, 77, 127
15, 242886, Note_on_c, 6, 79, 0
15, 242899, Note_on_c, 6, 74, 103
15, 242902, Note_on_c, 6, 72, 0
15, 242904, Note_on_c, 6, 69, 0
15, 242904, Note_on_c, 6, 81, 122
15, 242905, Note_on_c, 6, 75, 0
15, 242927, Note_on_c, 6, 81, 0
15, 242975, Note_on_c, 6, 71, 0
15, 242976, Note_on_c, 6, 77, 0
15, 242994, Note_on_c, 6, 74, 0
15, 242999, Note_on_c, 6, 81, 0
15, 243000, Note_on_c, 6, 81, 98
15, 243047, Note_on_c, 6, 81, 0
15, 243120, Note_on_c, 6, 86, 105
15, 243167, Note_on_c, 6, 86, 0
15, 243240, Note_on_c, 6, 86, 85
15, 243253, Note_on_c, 6, 81, 86
15, 243256, Note_on_c, 6, 71, 92
15, 243259, Note_on_c, 6, 74, 104
15, 243260, Note_on_c, 6, 77, 90
15, 243287, Note_on_c, 6, 86, 0
15, 243360, Note_on_c, 6, 84, 105
15, 243373, Note_on_c, 6, 81, 0
15, 243375, Note_on_c, 6, 75, 92
15, 243376, Note_on_c, 6, 71, 0
15, 243379, Note_on_c, 6, 74, 0
15, 243379, Note_on_c, 6, 79, 103
15, 243380, Note_on_c, 6, 77, 0
15, 243380, Note_on_c, 6, 72, 93
15, 243382, Note_on_c, 6, 83, 101
15, 243407, Note_on_c, 6, 84, 0
15, 243470, Note_on_c, 6, 75, 0
15, 243474, Note_on_c, 6, 79, 0
15, 243475, Note_on_c, 6, 72, 0
15, 243477, Note_on_c, 6, 83, 0
15, 243480, Note_on_c, 6, 84, 96
15, 243527, Note_on_c, 6, 84, 0
15, 243600, Note_on_c, 6, 83, 97
15, 243647, Note_on_c, 6, 83, 0
15, 243720, Note_on_c, 6, 83, 100
15, 243720, Note_on_c, 6, 72, 88
15, 243721, Note_on_c, 6, 79, 127
15, 243731, Note_on_c, 6, 83, 104
15, 243733, Note_on_c, 6, 75, 127
15, 243767, Note_on_c, 6, 83, 0
15, 243840, Note_on_c, 6, 72, 0
15, 243840, Note_on_c, 6, 83, 86
15, 243841, Note_on_c, 6, 79, 0
15, 243842, Note_on_c, 6, 77, 117
15, 243842, Note_on_c, 6, 81, 127
15, 243851, Note_on_c, 6, 83, 0
15, 243853, Note_on_c, 6, 75, 0
15, 243853, Note_on_c, 6, 71, 91
15, 243861, Note_on_c, 6, 74, 88
15, 243887, Note_on_c, 6, 83, 0
15, 243937, Note_on_c, 6, 77, 0
15, 243937, Note_on_c, 6, 81, 0
15, 243948, Note_on_c, 6, 71, 0
15, 243956, Note_on_c, 6, 74, 0
15, 243960, Note_on_c, 6, 83, 89
15, 244007, Note_on_c, 6, 83, 0
15, 244080, Note_on_c, 6, 79, 86
15, 244127, Note_on_c, 6, 79, 0
15, 244200, Note_on_c, 6, 79, 99
15, 244201, Note_on_c, 6, 81, 105
15, 244204, Note_on_c, 6, 77, 99
15, 244206, Note_on_c, 6, 74, 103
15, 244208, Note_on_c, 6, 71, 103
15, 244247, Note_on_c, 6, 79, 0
15, 244320, Note_on_c, 6, 81, 89
15, 244321, Note_on_c, 6, 81, 0
15, 244321, Note_on_c, 6, 75, 100
15, 244324, Note_on_c, 6, 77, 0
15, 244324, Note_on_c, 6, 72, 99
15, 244326, Note_on_c, 6, 74, 0
15, 244328, Note_on_c, 6, 71, 0
15, 244330, Note_on_c, 6, 79, 98
15, 244342, Note_on_c, 6, 69, 101
15, 244367, Note_on_c, 6, 81, 0
15, 244416, Note_on_c, 6, 75, 0
15, 244419, Note_on_c, 6, 72, 0
15, 244425, Note_on_c, 6, 79, 0
15, 244437, Note_on_c, 6, 69, 0
15, 244440, Note_on_c, 6, 81, 98
15, 244487, Note_on_c, 6, 81, 0
15, 244560, Note_on_c, 6, 86, 85
15, 244607, Note_on_c, 6, 86, 0
15, 244680, Note_on_c, 6, 86, 88
15, 244688, Note_on_c, 6, 79, 127
15, 244693, Note_on_c, 6, 75, 127
15, 244700, Note_on_c, 6, 72, 89
15, 244701, Note_on_c, 6, 69, 88
15, 244727, Note_on_c, 6, 86, 0
15, 244800, Note_on_c, 6, 79, 98
15, 244808, Note_on_c, 6, 79, 0
15, 244813, Note_on_c, 6, 75, 0
15, 244815, Note_on_c, 6, 77, 127
15, 244819, Note_on_c, 6, 74, 86
15, 244820, Note_on_c, 6, 72, 0
15, 244820, Note_on_c, 6, 81, 122
15, 244821, Note_on_c, 6, 69, 0
15, 244824, Note_on_c, 6, 71, 85
15, 244847, Note_on_c, 6, 79, 0
15, 244910, Note_on_c, 6, 77, 0
15, 244914, Note_on_c, 6, 74, 0
15, 244915, Note_on_c, 6, 81, 0
15, 244919, Note_on_c, 6, 71, 0
15, 244920, Note_on_c, 6, 79, 85
15, 244967, Note_on_c, 6, 79, 0
15, 245040, Note_on_c, 6, 86, 87
15, 245087, Note_on_c, 6, 86, 0
15, 245160, Note_on_c, 6, 86, 105
15, 245164, Note_on_c, 6, 71, 102
15, 245174, Note_on_c, 6, 81, 94
15, 245177, Note_on_c, 6, 77, 92
15, 245180, Note_on_c, 6, 74, 94
15, 245207, Note_on_c, 6, 86, 0
15, 245282, Note_on_c, 6, 79, 86
15, 245283, Note_on_c, 6, 83, 92
15, 245284, Note_on_c, 6, 71, 0
15, 245287, Note_on_c, 6, 75, 98
15, 245292, Note_on_c, 6, 72, 85
15, 245294, Note_on_c, 6, 81, 0
15, 245297, Note_on_c, 6, 77, 0
15, 245300, Note_on_c, 6, 74, 0
15, 245302, Note_on_c, 6, 81, 89
15, 245353, Note_on_c, 6, 79, 0
15, 245354, Note_on_c, 6, 83, 0
15, 245358, Note_on_c, 6, 75, 0
15, 245363, Note_on_c, 6, 72, 0
15, 245397, Note_on_c, 6, 81, 0
15, 245520, Note_on_c, 6, 83, 98
15, 245534, Note_on_c, 6, 75, 123
15, 245538, Note_on_c, 6, 72, 100
15, 245542, Note_on_c, 6, 79, 127
15, 245591, Note_on_c, 6, 83, 0
15, 245605, Note_on_c, 6, 75, 0
15, 245609, Note_on_c, 6, 72, 0
15, 245613, Note_on_c, 6, 79, 0
15, 246005, Note_on_c, 6, 72, 95
15, 246011, Note_on_c, 6, 75, 127
15, 246019, Note_on_c, 6, 83, 103
15, 246023, Note_on_c, 6, 79, 125
15, 246076, Note_on_c, 6, 72, 0
15, 246082, Note_on_c, 6, 75, 0
15, 246090, Note_on_c, 6, 83, 0
15, 246094, Note_on_c, 6, 79, 0
15, 246240, Note_on_c, 6, 81, 95
15, 246243, Note_on_c, 6, 75, 95
15, 246248, Note_on_c, 6, 79, 101
15, 246264, Note_on_c, 6, 72, 87
15, 246265, Note_on_c, 6, 69, 105
15, 246287, Note_on_c, 6, 81, 0
15, 246338, Note_on_c, 6, 75, 0
15, 246343, Note_on_c, 6, 79, 0
15, 246359, Note_on_c, 6, 72, 0
15, 246360, Note_on_c, 6, 69, 0
15, 246360, Note_on_c, 6, 81, 94
15, 246407, Note_on_c, 6, 81, 0
15, 246480, Note_on_c, 6, 86, 87
15, 246527, Note_on_c, 6, 86, 0
15, 246600, Note_on_c, 6, 86, 104
15, 246607, Note_on_c, 6, 69, 98
15, 246616, Note_on_c, 6, 79, 127
15, 246618, Note_on_c, 6, 75, 127
15, 246625, Note_on_c, 6, 72, 92
15, 246647, Note_on_c, 6, 86, 0
15, 246720, Note_on_c, 6, 79, 96
15, 246725, Note_on_c, 6, 71, 98
15, 246727, Note_on_c, 6, 69, 0
15, 246732, Note_on_c, 6, 74, 98
15, 246735, Note_on_c, 6, 77, 125
15, 246736, Note_on_c, 6, 79, 0
15, 246738, Note_on_c, 6, 75, 0
15, 246744, Note_on_c, 6, 81, 121
15, 246745, Note_on_c, 6, 72, 0
15, 246767, Note_on_c, 6, 79, 0
15, 246820, Note_on_c, 6, 71, 0
15, 246827, Note_on_c, 6, 74, 0
15, 246830, Note_on_c, 6, 77, 0
15, 246839, Note_on_c, 6, 81, 0
15, 246840, Note_on_c, 6, 79, 96
15, 246887, Note_on_c, 6, 79, 0
15, 246960, Note_on_c, 6, 86, 86
15, 247007, Note_on_c, 6, 86, 0
15, 247080, Note_on_c, 6, 86, 91
15, 247086, Note_on_c, 6, 77, 85
15, 247091, Note_on_c, 6, 71, 87
15, 247092, Note_on_c, 6, 81, 95
15, 247102, Note_on_c, 6, 74, 87
15, 247127, Note_on_c, 6, 86, 0
15, 247200, Note_on_c, 6, 81, 98
15, 247200, Note_on_c, 6, 75, 98
15, 247202, Note_on_c, 6, 72, 94
15, 247206, Note_on_c, 6, 77, 0
15, 247211, Note_on_c, 6, 71, 0
15, 247212, Note_on_c, 6, 81, 0
15, 247221, Note_on_c, 6, 83, 105
15, 247222, Note_on_c, 6, 74, 0
15, 247222, Note_on_c, 6, 79, 98
15, 247247, Note_on_c, 6, 81, 0
15, 247295, Note_on_c, 6, 75, 0
15, 247297, Note_on_c, 6, 72, 0
15, 247316, Note_on_c, 6, 83, 0
15, 247317, Note_on_c, 6, 79, 0
15, 247320, Note_on_c, 6, 81, 92
15, 247367, Note_on_c, 6, 81, 0
15, 247440, Note_on_c, 6, 86, 104
15, 247487, Note_on_c, 6, 86, 0
15, 247560, Note_on_c, 6, 86, 100
15, 247560, Note_on_c, 6, 75, 117
15, 247561, Note_on_c, 6, 79, 121
15, 247561, Note_on_c, 6, 83, 86
15, 247584, Note_on_c, 6, 72, 97
15, 247607, Note_on_c, 6, 86, 0
15, 247680, Note_on_c, 6, 75, 0
15, 247680, Note_on_c, 6, 79, 105
15, 247681, Note_on_c, 6, 79, 0
15, 247681, Note_on_c, 6, 83, 0
15, 247687, Note_on_c, 6, 74, 104
15, 247689, Note_on_c, 6, 81, 127
15, 247692, Note_on_c, 6, 71, 91
15, 247703, Note_on_c, 6, 77, 127
15, 247704, Note_on_c, 6, 72, 0
15, 247727, Note_on_c, 6, 79, 0
15, 247782, Note_on_c, 6, 74, 0
15, 247784, Note_on_c, 6, 81, 0
15, 247787, Note_on_c, 6, 71, 0
15, 247798, Note_on_c, 6, 77, 0
15, 247800, Note_on_c, 6, 79, 102
15, 247847, Note_on_c, 6, 79, 0
15, 247920, Note_on_c, 6, 86, 92
15, 247967, Note_on_c, 6, 86, 0
15, 248040, Note_on_c, 6, 86, 89
15, 248044, Note_on_c, 6, 71, 91
15, 248061, Note_on_c, 6, 81, 96
15, 248063, Note_on_c, 6, 77, 104
15, 248063, Note_on_c, 6, 74, 104
15, 248087, Note_on_c, 6, 86, 0
15, 248160, Note_on_c, 6, 81, 86
15, 248161, Note_on_c, 6, 75, 102
15, 248164, Note_on_c, 6, 71, 0
15, 248165, Note_on_c, 6, 69, 103
15, 248176, Note_on_c, 6, 72, 99
15, 248181, Note_on_c, 6, 81, 0
15, 248182, Note_on_c, 6, 79, 100
15, 248183, Note_on_c, 6, 77, 0
15, 248183, Note_on_c, 6, 74, 0
15, 248207, Note_on_c, 6, 81, 0
15, 248256, Note_on_c, 6, 75, 0
15, 248260, Note_on_c, 6, 69, 0
15, 248271, Note_on_c, 6, 72, 0
15, 248277, Note_on_c, 6, 79, 0
15, 248280, Note_on_c, 6, 81, 85
15, 248327, Note_on_c, 6, 81, 0
15, 248400, Note_on_c, 6, 86, 95
15, 248447, Note_on_c, 6, 86, 0
15, 248520, Note_on_c, 6, 86, 99
15, 248532, Note_on_c, 6, 72, 88
15, 248535, Note_on_c, 6, 79, 127
15, 248540, Note_on_c, 6, 69, 99
15, 248540, Note_on_c, 6, 75, 126
15, 248567, Note_on_c, 6, 86, 0
15, 248640, Note_on_c, 6, 79, 94
15, 248645, Note_on_c, 6, 77, 122
15, 248652, Note_on_c, 6, 72, 0
15, 248655, Note_on_c, 6, 79, 0
15, 248657, Note_on_c, 6, 74, 101
15, 248659, Note_on_c, 6, 81, 121
15, 248660, Note_on_c, 6, 69, 0
15, 248660, Note_on_c, 6, 75, 0
15, 248662, Note_on_c, 6, 71, 90
15, 248687, Note_on_c, 6, 79, 0
15, 248740, Note_on_c, 6, 77, 0
15, 248752, Note_on_c, 6, 74, 0
15, 248754, Note_on_c, 6, 81, 0
15, 248757, Note_on_c, 6, 71, 0
15, 248760, Note_on_c, 6, 79, 100
15, 248807, Note_on_c, 6, 79, 0
15, 248880, Note_on_c, 6, 86, 96
15, 248927, Note_on_c, 6, 86, 0
15, 249000, Note_on_c, 6, 86, 85
15, 249004, Note_on_c, 6, 71, 100
15, 249006, Note_on_c, 6, 74, 88
15, 249019, Note_on_c, 6, 81, 97
15, 249022, Note_on_c, 6, 77, 89
15, 249047, Note_on_c, 6, 86, 0
15, 249122, Note_on_c, 6, 81, 86
15, 249124, Note_on_c, 6, 71, 0
15, 249125, Note_on_c, 6, 72, 95
15, 249125, Note_on_c, 6, 83, 95
15, 249126, Note_on_c, 6, 74, 0
15, 249139, Note_on_c, 6, 81, 0
15, 249142, Note_on_c, 6, 77, 0
15, 249142, Note_on_c, 6, 79, 89
15, 249143, Note_on_c, 6, 75, 87
15, 249196, Note_on_c, 6, 72, 0
15, 249196, Note_on_c, 6, 83, 0
15, 249213, Note_on_c, 6, 79, 0
15, 249214, Note_on_c, 6, 75, 0
15, 249217, Note_on_c, 6, 81, 0
15, 249366, Note_on_c, 6, 83, 91
15, 249367, Note_on_c, 6, 72, 97
15, 249367, Note_on_c, 6, 79, 123
15, 249378, Note_on_c, 6, 75, 127
15, 249437, Note_on_c, 6, 83, 0
15, 249438, Note_on_c, 6, 72, 0
15, 249438, Note_on_c, 6, 79, 0
15, 249449, Note_on_c, 6, 75, 0
15, 249841, Note_on_c, 6, 83, 95
15, 249850, Note_on_c, 6, 79, 120
15, 249851, Note_on_c, 6, 75, 119
15, 249856, Note_on_c, 6, 72, 89
15, 249912, Note_on_c, 6, 83, 0
15, 249921, Note_on_c, 6, 79, 0
15, 249922, Note_on_c, 6, 75, 0
15, 249927, Note_on_c, 6, 72, 0
15, 250083, Note_on_c, 6, 73, 88
15, 250086, Note_on_c, 6, 75, 89
15, 250088, Note_on_c, 6, 70, 96
15, 250102, Note_on_c, 6, 67, 88
15, 255379, Note_on_c, 6, 69, 78
15, 255484, Note_on_c, 6, 69, 79
15, 255499, Note_on_c, 6, 69, 0
15, 255600, Note_on_c, 6, 69, 0
15, 255609, Note_on_c, 6, 74, 92
15, 255729, Note_on_c, 6, 74, 0
15, 255736, Note_on_c, 6, 74, 95
15, 255852, Note_on_c, 6, 74, 0
15, 255862, Note_on_c, 6, 69, 93
15, 255970, Note_on_c, 6, 69, 94
15, 255982, Note_on_c, 6, 69, 0
15, 256086, Note_on_c, 6, 69, 0
15, 256090, Note_on_c, 6, 74, 85
15, 256208, Note_on_c, 6, 74, 83
15, 256210, Note_on_c, 6, 74, 0
15, 256324, Note_on_c, 6, 74, 0
15, 256332, Note_on_c, 6, 76, 80
15, 256441, Note_on_c, 6, 76, 96
15, 256452, Note_on_c, 6, 76, 0
15, 256557, Note_on_c, 6, 76, 0
15, 256572, Note_on_c, 6, 79, 95
15, 256683, Note_on_c, 6, 79, 78
15, 256692, Note_on_c, 6, 79, 0
15, 256799, Note_on_c, 6, 79, 0
15, 256825, Note_on_c, 6, 78, 81
15, 256929, Note_on_c, 6, 78, 86
15, 256945, Note_on_c, 6, 78, 0
15, 257045, Note_on_c, 6, 78, 0
15, 257055, Note_on_c, 6, 76, 85
15, 257161, Note_on_c, 6, 76, 84
15, 257175, Note_on_c, 6, 76, 0
15, 257277, Note_on_c, 6, 76, 0
15, 257287, Note_on_c, 6, 74, 86
15, 257402, Note_on_c, 6, 74, 85
15, 257407, Note_on_c, 6, 74, 0
15, 257518, Note_on_c, 6, 74, 0
15, 257530, Note_on_c, 6, 69, 91
15, 257647, Note_on_c, 6, 69, 86
15, 257650, Note_on_c, 6, 69, 0
15, 257763, Note_on_c, 6, 69, 0
15, 257778, Note_on_c, 6, 71, 85
15, 257883, Note_on_c, 6, 71, 98
15, 257898, Note_on_c, 6, 71, 0
15, 257999, Note_on_c, 6, 71, 0
15, 258017, Note_on_c, 6, 74, 92
15, 258129, Note_on_c, 6, 74, 93
15, 258137, Note_on_c, 6, 74, 0
15, 258245, Note_on_c, 6, 74, 0
15, 258250, Note_on_c, 6, 79, 81
15, 258370, Note_on_c, 6, 79, 0
15, 258381, Note_on_c, 6, 79, 94
15, 258489, Note_on_c, 6, 78, 86
15, 258497, Note_on_c, 6, 79, 0
15, 258609, Note_on_c, 6, 78, 0
15, 258609, Note_on_c, 6, 78, 91
15, 258725, Note_on_c, 6, 78, 0
15, 258738, Note_on_c, 6, 76, 95
15, 258846, Note_on_c, 6, 76, 94
15, 258858, Note_on_c, 6, 76, 0
15, 258962, Note_on_c, 6, 76, 0
15, 258984, Note_on_c, 6, 74, 96
15, 259103, Note_on_c, 6, 74, 92
15, 259104, Note_on_c, 6, 74, 0
15, 259210, Note_on_c, 6, 69, 88
15, 259219, Note_on_c, 6, 74, 0
15, 259320, Note_on_c, 6, 69, 89
15, 259330, Note_on_c, 6, 69, 0
15, 259436, Note_on_c, 6, 69, 0
15, 259703, Note_on_c, 6, 71, 89
15, 259819, Note_on_c, 6, 71, 79
15, 259823, Note_on_c, 6, 71, 0
15, 259925, Note_on_c, 6, 74, 89
15, 259935, Note_on_c, 6, 71, 0
15, 260041, Note_on_c, 6, 74, 92
15, 260045, Note_on_c, 6, 74, 0
15, 260157, Note_on_c, 6, 74, 0
15, 260164, Note_on_c, 6, 72, 97
15, 260283, Note_on_c, 6, 72, 91
15, 260284, Note_on_c, 6, 72, 0
15, 260399, Note_on_c, 6, 72, 0
15, 260422, Note_on_c, 6, 69, 87
15, 260531, Note_on_c, 6, 69, 95
15, 260542, Note_on_c, 6, 69, 0
15, 260647, Note_on_c, 6, 69, 0
15, 260662, Note_on_c, 6, 69, 83
15, 260782, Note_on_c, 6, 69, 0
15, 260782, Note_on_c, 6, 69, 90
15, 260883, Note_on_c, 6, 73, 0
15, 260883, Note_on_c, 6, 69, 80
15, 260886, Note_on_c, 6, 75, 0
15, 260886, Note_on_c, 6, 66, 87
15, 260886, Note_on_c, 6, 75, 80
15, 260888, Note_on_c, 6, 70, 0
15, 260898, Note_on_c, 6, 69, 0
15, 260902, Note_on_c, 6, 67, 0
15, 260902, Note_on_c, 6, 71, 80
15, 261123, Note_on_c, 6, 69, 0
15, 261126, Note_on_c, 6, 66, 0
15, 261126, Note_on_c, 6, 75, 0
15, 261142, Note_on_c, 6, 71, 0
15, 271684, Note_on_c, 6, 70, 69
15, 271692, Note_on_c, 6, 73, 66
15, 271698, Note_on_c, 6, 67, 70
15, 271804, Note_on_c, 6, 70, 0
15, 271809, Note_on_c, 6, 70, 68
15, 271812, Note_on_c, 6, 73, 0
15, 271812, Note_on_c, 6, 67, 72
15, 271816, Note_on_c, 6, 73, 75
15, 271818, Note_on_c, 6, 67, 0
15, 271928, Note_on_c, 6, 67, 75
15, 271929, Note_on_c, 6, 70, 0
15, 271929, Note_on_c, 6, 73, 78
15, 271932, Note_on_c, 6, 67, 0
15, 271936, Note_on_c, 6, 73, 0
15, 271941, Note_on_c, 6, 70, 75
15, 272045, Note_on_c, 6, 73, 81
15, 272048, Note_on_c, 6, 67, 0
15, 272049, Note_on_c, 6, 73, 0
15, 272049, Note_on_c, 6, 70, 69
15, 272052, Note_on_c, 6, 67, 81
15, 272061, Note_on_c, 6, 70, 0
15, 272165, Note_on_c, 6, 73, 0
15, 272167, Note_on_c, 6, 73, 77
15, 272169, Note_on_c, 6, 70, 0
15, 272172, Note_on_c, 6, 67, 0
15, 272178, Note_on_c, 6, 70, 81
15, 272184, Note_on_c, 6, 67, 83
15, 272287, Note_on_c, 6, 73, 0
15, 272288, Note_on_c, 6, 67, 73
15, 272291, Note_on_c, 6, 70, 67
15, 272298, Note_on_c, 6, 70, 0
15, 272304, Note_on_c, 6, 67, 0
15, 272305, Note_on_c, 6, 73, 79
15, 272402, Note_on_c, 6, 73, 84
15, 272408, Note_on_c, 6, 67, 0
15, 272411, Note_on_c, 6, 70, 0
15, 272416, Note_on_c, 6, 70, 70
15, 272425, Note_on_c, 6, 73, 0
15, 272425, Note_on_c, 6, 67, 81
15, 272522, Note_on_c, 6, 73, 0
15, 272526, Note_on_c, 6, 73, 81
15, 272527, Note_on_c, 6, 70, 81
15, 272536, Note_on_c, 6, 70, 0
15, 272542, Note_on_c, 6, 67, 65
15, 272545, Note_on_c, 6, 67, 0
15, 272646, Note_on_c, 6, 73, 0
15, 272647, Note_on_c, 6, 70, 0
15, 272651, Note_on_c, 6, 67, 79
15, 272657, Note_on_c, 6, 70, 74
15, 272659, Note_on_c, 6, 73, 77
15, 272662, Note_on_c, 6, 67, 0
15, 272768, Note_on_c, 6, 70, 81
15, 272771, Note_on_c, 6, 67, 0
15, 272776, Note_on_c, 6, 67, 76
15, 272777, Note_on_c, 6, 70, 0
15, 272778, Note_on_c, 6, 73, 77
15, 272779, Note_on_c, 6, 73, 0
15, 272884, Note_on_c, 6, 70, 69
15, 272885, Note_on_c, 6, 67, 74
15, 272888, Note_on_c, 6, 70, 0
15, 272889, Note_on_c, 6, 73, 70
15, 272896, Note_on_c, 6, 67, 0
15, 272898, Note_on_c, 6, 73, 0
15, 273004, Note_on_c, 6, 70, 0
15, 273005, Note_on_c, 6, 67, 0
15, 273007, Note_on_c, 6, 70, 80
15, 273009, Note_on_c, 6, 73, 0
15, 273012, Note_on_c, 6, 73, 79
15, 273020, Note_on_c, 6, 67, 68
15, 273123, Note_on_c, 6, 70, 0
15, 273128, Note_on_c, 6, 73, 0
15, 273130, Note_on_c, 6, 73, 71
15, 273136, Note_on_c, 6, 67, 0
15, 273137, Note_on_c, 6, 70, 83
15, 273138, Note_on_c, 6, 67, 72
15, 273145, Note_on_c, 6, 75, 76
15, 273242, Note_on_c, 6, 67, 76
15, 273250, Note_on_c, 6, 73, 0
15, 273250, Note_on_c, 6, 75, 68
15, 273257, Note_on_c, 6, 70, 0
15, 273258, Note_on_c, 6, 67, 0
15, 273262, Note_on_c, 6, 70, 79
15, 273265, Note_on_c, 6, 75, 0
15, 273265, Note_on_c, 6, 73, 78
15, 273362, Note_on_c, 6, 67, 0
15, 273366, Note_on_c, 6, 73, 65
15, 273370, Note_on_c, 6, 75, 0
15, 273374, Note_on_c, 6, 75, 66
15, 273382, Note_on_c, 6, 70, 0
15, 273382, Note_on_c, 6, 70, 78
15, 273382, Note_on_c, 6, 67, 81
15, 273385, Note_on_c, 6, 73, 0
15, 273486, Note_on_c, 6, 73, 0
15, 273490, Note_on_c, 6, 75, 82
15, 273491, Note_on_c, 6, 73, 71
15, 273494, Note_on_c, 6, 75, 0
15, 273494, Note_on_c, 6, 67, 66
15, 273500, Note_on_c, 6, 70, 65
15, 273502, Note_on_c, 6, 70, 0
15, 273502, Note_on_c, 6, 67, 0
15, 273603, Note_on_c, 6, 67, 85
15, 273606, Note_on_c, 6, 73, 75
15, 273610, Note_on_c, 6, 75, 0
15, 273611, Note_on_c, 6, 73, 0
15, 273614, Note_on_c, 6, 67, 0
15, 273616, Note_on_c, 6, 70, 65
15, 273620, Note_on_c, 6, 70, 0
15, 273624, Note_on_c, 6, 75, 72
15, 273723, Note_on_c, 6, 67, 0
15, 273726, Note_on_c, 6, 73, 0
15, 273726, Note_on_c, 6, 67, 67
15, 273731, Note_on_c, 6, 73, 84
15, 273731, Note_on_c, 6, 70, 65
15, 273736, Note_on_c, 6, 70, 0
15, 273737, Note_on_c, 6, 75, 65
15, 273744, Note_on_c, 6, 75, 0
15, 273840, Note_on_c, 6, 73, 73
15, 273842, Note_on_c, 6, 67, 0
15, 273844, Note_on_c, 6, 67, 84
15, 273847, Note_on_c, 6, 73, 0
15, 273847, Note_on_c, 6, 70, 0
15, 273853, Note_on_c, 6, 75, 0
15, 273857, Note_on_c, 6, 70, 81
15, 273864, Note_on_c, 6, 75, 81
15, 273960, Note_on_c, 6, 73, 0
15, 273961, Note_on_c, 6, 75, 69
15, 273964, Note_on_c, 6, 67, 0
15, 273977, Note_on_c, 6, 70, 0
15, 273978, Note_on_c, 6, 73, 75
15, 273979, Note_on_c, 6, 67, 65
15, 273984, Note_on_c, 6, 75, 0
15, 273984, Note_on_c, 6, 70, 76
15, 274081, Note_on_c, 6, 75, 0
15, 274084, Note_on_c, 6, 75, 65
15, 274091, Note_on_c, 6, 70, 68
15, 274091, Note_on_c, 6, 67, 73
15, 274093, Note_on_c, 6, 73, 78
15, 274098, Note_on_c, 6, 73, 0
15, 274099, Note_on_c, 6, 67, 0
15, 274104, Note_on_c, 6, 70, 0
15, 274202, Note_on_c, 6, 73, 67
15, 274203, Note_on_c, 6, 67, 72
15, 274204, Note_on_c, 6, 75, 0
15, 274211, Note_on_c, 6, 70, 0
15, 274211, Note_on_c, 6, 67, 0
15, 274213, Note_on_c, 6, 73, 0
15, 274215, Note_on_c, 6, 70, 74
15, 274225, Note_on_c, 6, 75, 85
15, 274320, Note_on_c, 6, 70, 74
15, 274322, Note_on_c, 6, 73, 0
15, 274323, Note_on_c, 6, 67, 0
15, 274324, Note_on_c, 6, 73, 66
15, 274331, Note_on_c, 6, 67, 72
15, 274335, Note_on_c, 6, 70, 0
15, 274335, Note_on_c, 6, 75, 73
15, 274345, Note_on_c, 6, 75, 0
15, 274440, Note_on_c, 6, 70, 0
15, 274443, Note_on_c, 6, 73, 80
15, 274444, Note_on_c, 6, 73, 0
15, 274451, Note_on_c, 6, 67, 0
15, 274452, Note_on_c, 6, 70, 83
15, 274453, Note_on_c, 6, 67, 65
15, 274453, Note_on_c, 6, 75, 81
15, 274455, Note_on_c, 6, 75, 0
15, 274559, Note_on_c, 6, 73, 0
15, 274560, Note_on_c, 6, 73, 69
15, 274561, Note_on_c, 6, 73, 0
15, 274565, Note_on_c, 6, 75, 75
15, 274566, Note_on_c, 6, 67, 70
15, 274572, Note_on_c, 6, 70, 0
15, 274573, Note_on_c, 6, 67, 0
15, 274573, Note_on_c, 6, 75, 0
15, 274581, Note_on_c, 6, 70, 69
15, 274683, Note_on_c, 6, 70, 80
15, 274684, Note_on_c, 6, 67, 80
15, 274685, Note_on_c, 6, 75, 0
15, 274686, Note_on_c, 6, 67, 0
15, 274699, Note_on_c, 6, 75, 81
15, 274701, Note_on_c, 6, 70, 0
15, 274803, Note_on_c, 6, 70, 0
15, 274803, Note_on_c, 6, 70, 71
15, 274804, Note_on_c, 6, 67, 0
15, 274816, Note_on_c, 6, 75, 76
15, 274819, Note_on_c, 6, 75, 0
15, 274824, Note_on_c, 6, 67, 84
15, 274923, Note_on_c, 6, 70, 0
15, 274925, Note_on_c, 6, 67, 83
15, 274928, Note_on_c, 6, 75, 70
15, 274936, Note_on_c, 6, 75, 0
15, 274940, Note_on_c, 6, 70, 85
15, 274944, Note_on_c, 6, 67, 0
15, 275042, Note_on_c, 6, 67, 69
15, 275043, Note_on_c, 6, 70, 69
15, 275045, Note_on_c, 6, 67, 0
15, 275048, Note_on_c, 6, 75, 0
15, 275051, Note_on_c, 6, 75, 75
15, 275060, Note_on_c, 6, 70, 0
15, 275162, Note_on_c, 6, 67, 0
15, 275163, Note_on_c, 6, 70, 0
15, 275168, Note_on_c, 6, 67, 81
15, 275171, Note_on_c, 6, 75, 0
15, 275174, Note_on_c, 6, 75, 73
15, 275179, Note_on_c, 6, 70, 74
15, 275280, Note_on_c, 6, 70, 73
15, 275280, Note_on_c, 6, 67, 71
15, 275284, Note_on_c, 6, 67, 0
15, 275290, Note_on_c, 6, 75, 0
15, 275295, Note_on_c, 6, 70, 0
15, 275298, Note_on_c, 6, 75, 67
15, 275400, Note_on_c, 6, 70, 0
15, 275400, Note_on_c, 6, 67, 0
15, 275401, Note_on_c, 6, 67, 72
15, 275401, Note_on_c, 6, 75, 85
15, 275405, Note_on_c, 6, 70, 73
15, 275418, Note_on_c, 6, 75, 0
15, 275520, Note_on_c, 6, 75, 81
15, 275521, Note_on_c, 6, 67, 0
15, 275521, Note_on_c, 6, 75, 0
15, 275525, Note_on_c, 6, 70, 0
15, 275535, Note_on_c, 6, 67, 70
15, 275541, Note_on_c, 6, 70, 77
15, 275640, Note_on_c, 6, 75, 0
15, 275645, Note_on_c, 6, 75, 71
15, 275652, Note_on_c, 6, 70, 80
15, 275655, Note_on_c, 6, 67, 0
15, 275660, Note_on_c, 6, 67, 81
15, 275661, Note_on_c, 6, 70, 0
15, 275764, Note_on_c, 6, 70, 77
15, 275765, Note_on_c, 6, 75, 0
15, 275772, Note_on_c, 6, 70, 0
15, 275774, Note_on_c, 6, 67, 71
15, 275776, Note_on_c, 6, 75, 70
15, 275780, Note_on_c, 6, 67, 0
15, 275884, Note_on_c, 6, 70, 0
15, 275885, Note_on_c, 6, 70, 69
15, 275894, Note_on_c, 6, 67, 0
15, 275896, Note_on_c, 6, 75, 0
15, 275902, Note_on_c, 6, 75, 80
15, 275905, Note_on_c, 6, 67, 75
15, 276001, Note_on_c, 6, 70, 0
15, 276011, Note_on_c, 6, 67, 66
15, 276018, Note_on_c, 6, 75, 0
15, 276021, Note_on_c, 6, 67, 0
15, 276022, Note_on_c, 6, 75, 68
15, 276022, Note_on_c, 6, 70, 78
15, 276022, Note_on_c, 6, 73, 71
15, 276120, Note_on_c, 6, 75, 69
15, 276120, Note_on_c, 6, 73, 77
15, 276122, Note_on_c, 6, 70, 77
15, 276126, Note_on_c, 6, 67, 67
15, 276131, Note_on_c, 6, 67, 0
15, 276142, Note_on_c, 6, 75, 0
15, 276142, Note_on_c, 6, 70, 0
15, 276142, Note_on_c, 6, 73, 0
15, 276240, Note_on_c, 6, 75, 0
15, 276240, Note_on_c, 6, 73, 0
15, 276242, Note_on_c, 6, 70, 0
15, 276246, Note_on_c, 6, 67, 0
15, 276248, Note_on_c, 6, 70, 76
15, 276251, Note_on_c, 6, 73, 74
15, 276254, Note_on_c, 6, 75, 67
15, 276260, Note_on_c, 6, 67, 82
15, 276368, Note_on_c, 6, 70, 0
15, 276371, Note_on_c, 6, 73, 0
15, 276374, Note_on_c, 6, 75, 0
15, 276377, Note_on_c, 6, 73, 65
15, 276379, Note_on_c, 6, 70, 77
15, 276380, Note_on_c, 6, 67, 0
15, 276380, Note_on_c, 6, 67, 67
15, 276381, Note_on_c, 6, 75, 83
15, 276484, Note_on_c, 6, 70, 73
15, 276489, Note_on_c, 6, 67, 80
15, 276493, Note_on_c, 6, 75, 80
15, 276497, Note_on_c, 6, 73, 0
15, 276499, Note_on_c, 6, 70, 0
15, 276499, Note_on_c, 6, 73, 72
15, 276500, Note_on_c, 6, 67, 0
15, 276501, Note_on_c, 6, 75, 0
15, 276604, Note_on_c, 6, 70, 0
15, 276607, Note_on_c, 6, 70, 65
15, 276608, Note_on_c, 6, 73, 75
15, 276609, Note_on_c, 6, 67, 0
15, 276610, Note_on_c, 6, 67, 67
15, 276613, Note_on_c, 6, 75, 0
15, 276617, Note_on_c, 6, 75, 66
15, 276619, Note_on_c, 6, 73, 0
15, 276726, Note_on_c, 6, 70, 76
15, 276727, Note_on_c, 6, 70, 0
15, 276728, Note_on_c, 6, 73, 0
15, 276730, Note_on_c, 6, 67, 0
15, 276732, Note_on_c, 6, 75, 82
15, 276737, Note_on_c, 6, 75, 0
15, 276739, Note_on_c, 6, 67, 68
15, 276742, Note_on_c, 6, 73, 65
15, 276846, Note_on_c, 6, 70, 0
15, 276848, Note_on_c, 6, 67, 82
15, 276852, Note_on_c, 6, 75, 0
15, 276858, Note_on_c, 6, 70, 83
15, 276859, Note_on_c, 6, 67, 0
15, 276859, Note_on_c, 6, 73, 74
15, 276862, Note_on_c, 6, 73, 0
15, 276864, Note_on_c, 6, 75, 84
15, 276962, Note_on_c, 6, 70, 65
15, 276968, Note_on_c, 6, 67, 0
15, 276968, Note_on_c, 6, 67, 67
15, 276971, Note_on_c, 6, 75, 70
15, 276974, Note_on_c, 6, 73, 74
15, 276978, Note_on_c, 6, 70, 0
15, 276979, Note_on_c, 6, 73, 0
15, 276984, Note_on_c, 6, 75, 0
15, 277081, Note_on_c, 6, 75, 81
15, 277082, Note_on_c, 6, 70, 0
15, 277083, Note_on_c, 6, 70, 75
15, 277088, Note_on_c, 6, 67, 0
15, 277091, Note_on_c, 6, 75, 0
15, 277092, Note_on_c, 6, 67, 83
15, 277094, Note_on_c, 6, 73, 0
15, 277095, Note_on_c, 6, 73, 66
15, 277201, Note_on_c, 6, 75, 0
15, 277203, Note_on_c, 6, 70, 0
15, 277207, Note_on_c, 6, 70, 72
15, 277209, Note_on_c, 6, 73, 66
15, 277210, Note_on_c, 6, 75, 65
15, 277212, Note_on_c, 6, 67, 0
15, 277215, Note_on_c, 6, 73, 0
15, 277224, Note_on_c, 6, 67, 83
15, 277326, Note_on_c, 6, 67, 77
15, 277327, Note_on_c, 6, 70, 0
15, 277329, Note_on_c, 6, 73, 0
15, 277330, Note_on_c, 6, 75, 0
15, 277332, Note_on_c, 6, 73, 83
15, 277333, Note_on_c, 6, 75, 72
15, 277335, Note_on_c, 6, 70, 74
15, 277344, Note_on_c, 6, 67, 0
15, 277440, Note_on_c, 6, 70, 0
15, 277440, Note_on_c, 6, 70, 72
15, 277442, Note_on_c, 6, 67, 0
15, 277448, Note_on_c, 6, 73, 0
15, 277449, Note_on_c, 6, 75, 0
15, 277451, Note_on_c, 6, 70, 0
15, 277454, Note_on_c, 6, 67, 69
15, 277457, Note_on_c, 6, 73, 73
15, 277465, Note_on_c, 6, 75, 65
15, 277561, Note_on_c, 6, 73, 77
15, 277567, Note_on_c, 6, 75, 79
15, 277574, Note_on_c, 6, 67, 0
15, 277577, Note_on_c, 6, 73, 0
15, 277577, Note_on_c, 6, 67, 73
15, 277585, Note_on_c, 6, 75, 0
15, 277681, Note_on_c, 6, 73, 0
15, 277684, Note_on_c, 6, 67, 82
15, 277686, Note_on_c, 6, 73, 67
15, 277687, Note_on_c, 6, 75, 0
15, 277697, Note_on_c, 6, 67, 0
15, 277704, Note_on_c, 6, 75, 82
15, 277804, Note_on_c, 6, 67, 0
15, 277806, Note_on_c, 6, 73, 0
15, 277807, Note_on_c, 6, 67, 72
15, 277818, Note_on_c, 6, 73, 80
15, 277824, Note_on_c, 6, 75, 0
15, 277825, Note_on_c, 6, 75, 76
15, 277926, Note_on_c, 6, 67, 79
15, 277927, Note_on_c, 6, 67, 0
15, 277935, Note_on_c, 6, 73, 82
15, 277938, Note_on_c, 6, 73, 0
15, 277945, Note_on_c, 6, 75, 0
15, 277945, Note_on_c, 6, 75, 73
15, 278046, Note_on_c, 6, 67, 0
15, 278048, Note_on_c, 6, 75, 83
15, 278055, Note_on_c, 6, 73, 0
15, 278056, Note_on_c, 6, 67, 84
15, 278062, Note_on_c, 6, 73, 73
15, 278065, Note_on_c, 6, 75, 0
15, 278164, Note_on_c, 6, 75, 0
15, 278167, Note_on_c, 6, 73, 70
15, 278172, Note_on_c, 6, 67, 0
15, 278178, Note_on_c, 6, 73, 0
15, 278180, Note_on_c, 6, 75, 83
15, 278185, Note_on_c, 6, 67, 76
15, 278286, Note_on_c, 6, 75, 83
15, 278287, Note_on_c, 6, 73, 0
15, 278291, Note_on_c, 6, 73, 85
15, 278292, Note_on_c, 6, 67, 74
15, 278300, Note_on_c, 6, 75, 0
15, 278305, Note_on_c, 6, 67, 0
15, 278402, Note_on_c, 6, 75, 67
15, 278403, Note_on_c, 6, 73, 65
15, 278406, Note_on_c, 6, 75, 0
15, 278411, Note_on_c, 6, 73, 0
15, 278412, Note_on_c, 6, 67, 0
15, 278419, Note_on_c, 6, 67, 83
15, 278522, Note_on_c, 6, 75, 0
15, 278523, Note_on_c, 6, 73, 0
15, 278525, Note_on_c, 6, 67, 66
15, 278527, Note_on_c, 6, 75, 68
15, 278531, Note_on_c, 6, 73, 79
15, 278539, Note_on_c, 6, 67, 0
15, 278644, Note_on_c, 6, 73, 76
15, 278645, Note_on_c, 6, 67, 0
15, 278647, Note_on_c, 6, 75, 0
15, 278651, Note_on_c, 6, 73, 0
15, 278651, Note_on_c, 6, 67, 79
15, 278652, Note_on_c, 6, 75, 80
15, 278764, Note_on_c, 6, 73, 0
15, 278765, Note_on_c, 6, 75, 70
15, 278769, Note_on_c, 6, 67, 74
15, 278771, Note_on_c, 6, 67, 0
15, 278772, Note_on_c, 6, 75, 0
15, 278772, Note_on_c, 6, 73, 79
15, 278885, Note_on_c, 6, 75, 0
15, 278886, Note_on_c, 6, 73, 69
15, 278889, Note_on_c, 6, 67, 0
15, 278891, Note_on_c, 6, 70, 84
15, 278892, Note_on_c, 6, 73, 0
15, 278894, Note_on_c, 6, 75, 67
15, 278895, Note_on_c, 6, 67, 69
15, 279002, Note_on_c, 6, 75, 65
15, 279006, Note_on_c, 6, 73, 0
15, 279011, Note_on_c, 6, 70, 0
15, 279011, Note_on_c, 6, 70, 66
15, 279014, Note_on_c, 6, 75, 0
15, 279014, Note_on_c, 6, 67, 68
15, 279015, Note_on_c, 6, 67, 0
15, 279022, Note_on_c, 6, 73, 77
15, 279122, Note_on_c, 6, 75, 0
15, 279122, Note_on_c, 6, 67, 85
15, 279122, Note_on_c, 6, 73, 85
15, 279131, Note_on_c, 6, 70, 0
15, 279134, Note_on_c, 6, 67, 0
15, 279137, Note_on_c, 6, 70, 65
15, 279142, Note_on_c, 6, 73, 0
15, 279145, Note_on_c, 6, 75, 80
15, 279242, Note_on_c, 6, 67, 0
15, 279242, Note_on_c, 6, 73, 0
15, 279244, Note_on_c, 6, 75, 81
15, 279254, Note_on_c, 6, 67, 70
15, 279257, Note_on_c, 6, 70, 0
15, 279261, Note_on_c, 6, 70, 67
15, 279263, Note_on_c, 6, 73, 65
15, 279265, Note_on_c, 6, 75, 0
15, 279364, Note_on_c, 6, 75, 0
15, 279365, Note_on_c, 6, 70, 70
15, 279367, Note_on_c, 6, 75, 69
15, 279374, Note_on_c, 6, 67, 0
15, 279380, Note_on_c, 6, 67, 70
15, 279381, Note_on_c, 6, 70, 0
15, 279383, Note_on_c, 6, 73, 0
15, 279384, Note_on_c, 6, 73, 81
15, 279485, Note_on_c, 6, 70, 0
15, 279486, Note_on_c, 6, 70, 79
15, 279486, Note_on_c, 6, 73, 79
15, 279487, Note_on_c, 6, 75, 0
15, 279491, Note_on_c, 6, 67, 79
15, 279491, Note_on_c, 6, 75, 78
15, 279500, Note_on_c, 6, 67, 0
15, 279504, Note_on_c, 6, 73, 0
15, 279602, Note_on_c, 6, 73, 0
15, 279606, Note_on_c, 6, 70, 0
15, 279607, Note_on_c, 6, 67, 0
15, 279607, Note_on_c, 6, 75, 0
15, 279609, Note_on_c, 6, 67, 77
15, 279619, Note_on_c, 6, 70, 82
15, 279620, Note_on_c, 6, 75, 79
15, 279620, Note_on_c, 6, 73, 71
15, 279727, Note_on_c, 6, 70, 68
15, 279729, Note_on_c, 6, 67, 0
15, 279729, Note_on_c, 6, 67, 75
15, 279739, Note_on_c, 6, 70, 0
15, 279739, Note_on_c, 6, 73, 80
15, 279740, Note_on_c, 6, 75, 0
15, 279740, Note_on_c, 6, 73, 0
15, 279742, Note_on_c, 6, 75, 70
15, 279840, Note_on_c, 6, 67, 74
15, 279847, Note_on_c, 6, 70, 0
15, 279849, Note_on_c, 6, 67, 0
15, 279849, Note_on_c, 6, 75, 68
15, 279854, Note_on_c, 6, 70, 78
15, 279855, Note_on_c, 6, 73, 73
15, 279859, Note_on_c, 6, 73, 0
15, 279862, Note_on_c, 6, 75, 0
15, 279960, Note_on_c, 6, 67, 0
15, 279962, Note_on_c, 6, 70, 76
15, 279964, Note_on_c, 6, 67, 65
15, 279968, Note_on_c, 6, 75, 72
15, 279969, Note_on_c, 6, 75, 0
15, 279974, Note_on_c, 6, 70, 0
15, 279975, Note_on_c, 6, 73, 0
15, 279980, Note_on_c, 6, 73, 71
15, 280082, Note_on_c, 6, 70, 0
15, 280082, Note_on_c, 6, 67, 67
15, 280084, Note_on_c, 6, 67, 0
15, 280085, Note_on_c, 6, 75, 75
15, 280088, Note_on_c, 6, 75, 0
15, 280094, Note_on_c, 6, 70, 70
15, 280100, Note_on_c, 6, 73, 0
15, 280103, Note_on_c, 6, 73, 70
15, 280201, Note_on_c, 6, 70, 75
15, 280202, Note_on_c, 6, 67, 0
15, 280205, Note_on_c, 6, 75, 0
15, 280208, Note_on_c, 6, 75, 72
15, 280212, Note_on_c, 6, 73, 85
15, 280214, Note_on_c, 6, 70, 0
15, 280219, Note_on_c, 6, 67, 76
15, 280223, Note_on_c, 6, 73, 0
15, 280317, Note_on_c, 6, 70, 0
15, 280324, Note_on_c, 6, 75, 0
15, 280328, Note_on_c, 6, 73, 0
15, 280330, Note_on_c, 6, 70, 68
15, 280335, Note_on_c, 6, 67, 0
15, 280339, Note_on_c, 6, 73, 69
15, 280342, Note_on_c, 6, 67, 72
15, 280342, Note_on_c, 6, 75, 66
15, 280445, Note_on_c, 6, 75, 76
15, 280446, Note_on_c, 6, 70, 74
15, 280450, Note_on_c, 6, 70, 0
15, 280458, Note_on_c, 6, 73, 77
15, 280459, Note_on_c, 6, 73, 0
15, 280462, Note_on_c, 6, 67, 0
15, 280462, Note_on_c, 6, 75, 0
15, 280565, Note_on_c, 6, 75, 0
15, 280565, Note_on_c, 6, 70, 78
15, 280566, Note_on_c, 6, 70, 0
15, 280566, Note_on_c, 6, 75, 77
15, 280570, Note_on_c, 6, 73, 74
15, 280578, Note_on_c, 6, 73, 0
15, 280685, Note_on_c, 6, 70, 0
15, 280686, Note_on_c, 6, 75, 0
15, 280686, Note_on_c, 6, 73, 79
15, 280687, Note_on_c, 6, 70, 65
15, 280690, Note_on_c, 6, 73, 0
15, 280698, Note_on_c, 6, 75, 84
15, 280805, Note_on_c, 6, 73, 84
15, 280806, Note_on_c, 6, 73, 0
15, 280806, Note_on_c, 6, 70, 69
15, 280807, Note_on_c, 6, 70, 0
15, 280818, Note_on_c, 6, 75, 0
15, 280824, Note_on_c, 6, 75, 70
15, 280925, Note_on_c, 6, 73, 0
15, 280926, Note_on_c, 6, 70, 0
15, 280930, Note_on_c, 6, 73, 83
15, 280935, Note_on_c, 6, 75, 72
15, 280939, Note_on_c, 6, 70, 69
15, 280944, Note_on_c, 6, 75, 0
15, 281040, Note_on_c, 6, 70, 69
15, 281050, Note_on_c, 6, 73, 0
15, 281055, Note_on_c, 6, 75, 0
15, 281059, Note_on_c, 6, 70, 0
15, 281061, Note_on_c, 6, 75, 68
15, 281063, Note_on_c, 6, 73, 80
15, 281160, Note_on_c, 6, 70, 0
15, 281164, Note_on_c, 6, 73, 84
15, 281166, Note_on_c, 6, 75, 73
15, 281177, Note_on_c, 6, 70, 84
15, 281181, Note_on_c, 6, 75, 0
15, 281183, Note_on_c, 6, 73, 0
15, 281281, Note_on_c, 6, 75, 72
15, 281284, Note_on_c, 6, 73, 0
15, 281286, Note_on_c, 6, 75, 0
15, 281286, Note_on_c, 6, 70, 78
15, 281297, Note_on_c, 6, 70, 0
15, 281301, Note_on_c, 6, 73, 69
15, 281400, Note_on_c, 6, 70, 82
15, 281401, Note_on_c, 6, 75, 0
15, 281406, Note_on_c, 6, 70, 0
15, 281406, Note_on_c, 6, 73, 84
15, 281412, Note_on_c, 6, 75, 75
15, 281421, Note_on_c, 6, 73, 0
15, 281520, Note_on_c, 6, 70, 0
15, 281526, Note_on_c, 6, 73, 0
15, 281531, Note_on_c, 6, 70, 67
15, 281532, Note_on_c, 6, 75, 0
15, 281540, Note_on_c, 6, 75, 80
15, 281540, Note_on_c, 6, 73, 74
15, 281640, Note_on_c, 6, 73, 85
15, 281651, Note_on_c, 6, 70, 0
15, 281654, Note_on_c, 6, 70, 75
15, 281657, Note_on_c, 6, 75, 67
15, 281660, Note_on_c, 6, 75, 0
15, 281660, Note_on_c, 6, 73, 0
15, 281756, Note_on_c, 6, 73, 0
15, 281765, Note_on_c, 6, 67, 79
15, 281769, Note_on_c, 6, 70, 70
15, 281770, Note_on_c, 6, 70, 0
15, 281770, Note_on_c, 6, 75, 76
15, 281773, Note_on_c, 6, 75, 0
15, 281784, Note_on_c, 6, 73, 66
15, 281885, Note_on_c, 6, 67, 0
15, 281889, Note_on_c, 6, 70, 0
15, 281890, Note_on_c, 6, 75, 0
15, 281894, Note_on_c, 6, 73, 66
15, 281900, Note_on_c, 6, 70, 75
15, 281901, Note_on_c, 6, 67, 77
15, 281902, Note_on_c, 6, 75, 77
15, 281904, Note_on_c, 6, 73, 0
15, 282010, Note_on_c, 6, 67, 66
15, 282010, Note_on_c, 6, 75, 84
15, 282014, Note_on_c, 6, 73, 0
15, 282020, Note_on_c, 6, 70, 0
15, 282021, Note_on_c, 6, 67, 0
15, 282022, Note_on_c, 6, 75, 0
15, 282024, Note_on_c, 6, 70, 73
15, 282024, Note_on_c, 6, 73, 82
15, 282120, Note_on_c, 6, 73, 79
15, 282125, Note_on_c, 6, 67, 79
15, 282125, Note_on_c, 6, 75, 72
15, 282130, Note_on_c, 6, 67, 0
15, 282130, Note_on_c, 6, 75, 0
15, 282139, Note_on_c, 6, 70, 85
15, 282144, Note_on_c, 6, 70, 0
15, 282144, Note_on_c, 6, 73, 0
15, 282240, Note_on_c, 6, 73, 0
15, 282244, Note_on_c, 6, 70, 82
15, 282245, Note_on_c, 6, 67, 0
15, 282245, Note_on_c, 6, 75, 0
15, 282249, Note_on_c, 6, 75, 84
15, 282251, Note_on_c, 6, 73, 84
15, 282252, Note_on_c, 6, 67, 81
15, 282259, Note_on_c, 6, 70, 0
15, 282363, Note_on_c, 6, 73, 85
15, 282364, Note_on_c, 6, 70, 0
15, 282369, Note_on_c, 6, 75, 0
15, 282371, Note_on_c, 6, 73, 0
15, 282372, Note_on_c, 6, 67, 0
15, 282377, Note_on_c, 6, 75, 71
15, 282383, Note_on_c, 6, 70, 83
15, 282383, Note_on_c, 6, 67, 71
15, 282479, Note_on_c, 6, 73, 0
15, 282486, Note_on_c, 6, 73, 71
15, 282493, Note_on_c, 6, 75, 0
15, 282497, Note_on_c, 6, 75, 79
15, 282499, Note_on_c, 6, 70, 0
15, 282499, Note_on_c, 6, 67, 0
15, 282501, Note_on_c, 6, 70, 67
15, 282503, Note_on_c, 6, 67, 67
15, 282603, Note_on_c, 6, 75, 77
15, 282605, Note_on_c, 6, 67, 85
15, 282606, Note_on_c, 6, 73, 0
15, 282606, Note_on_c, 6, 73, 84
15, 282609, Note_on_c, 6, 70, 83
15, 282617, Note_on_c, 6, 75, 0
15, 282621, Note_on_c, 6, 70, 0
15, 282623, Note_on_c, 6, 67, 0
15, 282723, Note_on_c, 6, 75, 0
15, 282724, Note_on_c, 6, 73, 75
15, 282725, Note_on_c, 6, 67, 0
15, 282726, Note_on_c, 6, 73, 0
15, 282726, Note_on_c, 6, 70, 73
15, 282729, Note_on_c, 6, 70, 0
15, 282732, Note_on_c, 6, 67, 66
15, 282742, Note_on_c, 6, 75, 74
15, 282840, Note_on_c, 6, 75, 79
15, 282841, Note_on_c, 6, 70, 80
15, 282844, Note_on_c, 6, 73, 0
15, 282846, Note_on_c, 6, 70, 0
15, 282849, Note_on_c, 6, 73, 69
15, 282852, Note_on_c, 6, 67, 0
15, 282852, Note_on_c, 6, 67, 76
15, 282862, Note_on_c, 6, 75, 0
15, 282960, Note_on_c, 6, 75, 0
15, 282961, Note_on_c, 6, 70, 0
15, 282964, Note_on_c, 6, 73, 84
15, 282969, Note_on_c, 6, 73, 0
15, 282972, Note_on_c, 6, 67, 0
15, 282976, Note_on_c, 6, 70, 70
15, 282983, Note_on_c, 6, 75, 80
15, 282985, Note_on_c, 6, 67, 80
15, 283084, Note_on_c, 6, 73, 0
15, 283090, Note_on_c, 6, 75, 77
15, 283094, Note_on_c, 6, 73, 73
15, 283095, Note_on_c, 6, 67, 80
15, 283096, Note_on_c, 6, 70, 0
15, 283103, Note_on_c, 6, 75, 0
15, 283104, Note_on_c, 6, 70, 74
15, 283105, Note_on_c, 6, 67, 0
15, 283206, Note_on_c, 6, 73, 83
15, 283210, Note_on_c, 6, 75, 0
15, 283211, Note_on_c, 6, 70, 80
15, 283213, Note_on_c, 6, 75, 72
15, 283214, Note_on_c, 6, 73, 0
15, 283215, Note_on_c, 6, 67, 0
15, 283223, Note_on_c, 6, 67, 80
15, 283224, Note_on_c, 6, 70, 0
15, 283323, Note_on_c, 6, 75, 75
15, 283326, Note_on_c, 6, 73, 0
15, 283328, Note_on_c, 6, 73, 69
15, 283331, Note_on_c, 6, 70, 0
15, 283333, Note_on_c, 6, 75, 0
15, 283335, Note_on_c, 6, 70, 65
15, 283342, Note_on_c, 6, 67, 81
15, 283343, Note_on_c, 6, 67, 0
15, 283443, Note_on_c, 6, 75, 0
15, 283447, Note_on_c, 6, 67, 84
15, 283448, Note_on_c, 6, 73, 0
15, 283454, Note_on_c, 6, 70, 73
15, 283455, Note_on_c, 6, 70, 0
15, 283458, Note_on_c, 6, 75, 69
15, 283462, Note_on_c, 6, 67, 0
15, 283465, Note_on_c, 6, 73, 68
15, 283566, Note_on_c, 6, 75, 68
15, 283566, Note_on_c, 6, 73, 83
15, 283567, Note_on_c, 6, 67, 0
15, 283574, Note_on_c, 6, 70, 0
15, 283574, Note_on_c, 6, 70, 74
15, 283577, Note_on_c, 6, 67, 77
15, 283578, Note_on_c, 6, 75, 0
15, 283585, Note_on_c, 6, 73, 0
15, 283683, Note_on_c, 6, 70, 71
15, 283686, Note_on_c, 6, 75, 0
15, 283686, Note_on_c, 6, 73, 0
15, 283686, Note_on_c, 6, 75, 85
15, 283694, Note_on_c, 6, 70, 0
15, 283694, Note_on_c, 6, 73, 66
15, 283696, Note_on_c, 6, 67, 78
15, 283697, Note_on_c, 6, 67, 0
15, 283800, Note_on_c, 6, 70, 68
15, 283800, Note_on_c, 6, 75, 79
15, 283800, Note_on_c, 6, 67, 66
15, 283800, Note_on_c, 6, 73, 66
15, 283803, Note_on_c, 6, 70, 0
15, 283806, Note_on_c, 6, 75, 0
15, 283814, Note_on_c, 6, 73, 0
15, 283815, Note_on_c, 6, 67, 0
15, 283815, Note_on_c, 6, 70, 0
15, 283815, Note_on_c, 6, 75, 0
15, 283815, Note_on_c, 6, 73, 0
15, 283816, Note_on_c, 6, 67, 0
15, 283923, Note_on_c, 6, 74, 123
15, 283934, Note_on_c, 6, 69, 116
15, 283937, Note_on_c, 6, 66, 117
15, 283945, Note_on_c, 6, 72, 124
15, 284043, Note_on_c, 6, 74, 0
15, 284054, Note_on_c, 6, 69, 0
15, 284057, Note_on_c, 6, 66, 0
15, 284065, Note_on_c, 6, 72, 0
15, 284164, Note_on_c, 6, 65, 127
15, 284168, Note_on_c, 6, 68, 124
15, 284169, Note_on_c, 6, 71, 127
15, 284181, Note_on_c, 6, 73, 125
15, 284284, Note_on_c, 6, 65, 0
15, 284288, Note_on_c, 6, 68, 0
15, 284289, Note_on_c, 6, 71, 0
15, 284301, Note_on_c, 6, 73, 0
15, 284400, Note_on_c, 6, 72, 124
15, 284405, Note_on_c, 6, 70, 120
15, 284409, Note_on_c, 6, 67, 127
15, 284420, Note_on_c, 6, 64, 127
15, 284520, Note_on_c, 6, 72, 0
15, 284525, Note_on_c, 6, 70, 0
15, 284529, Note_on_c, 6, 67, 0
15, 284540, Note_on_c, 6, 64, 0
15, 293040, Note_on_c, 6, 65, 100
15, 293045, Note_on_c, 6, 62, 110
15, 293046, Note_on_c, 6, 58, 111
15, 293160, Note_on_c, 6, 65, 0
15, 293165, Note_on_c, 6, 62, 0
15, 293166, Note_on_c, 6, 58, 0
15, 293288, Note_on_c, 6, 64, 106
15, 293303, Note_on_c, 6, 67, 111
15, 293303, Note_on_c, 6, 60, 94
15, 293408, Note_on_c, 6, 64, 0
15, 293423, Note_on_c, 6, 67, 0
15, 293423, Note_on_c, 6, 60, 0
15, 293525, Note_on_c, 6, 68, 99
15, 293525, Note_on_c, 6, 71, 107
15, 293536, Note_on_c, 6, 64, 96
15, 293645, Note_on_c, 6, 68, 0
15, 293645, Note_on_c, 6, 71, 0
15, 293656, Note_on_c, 6, 64, 0
15, 293764, Note_on_c, 6, 74, 101
15, 293783, Note_on_c, 6, 71, 109
15, 293784, Note_on_c, 6, 67, 100
15, 293884, Note_on_c, 6, 74, 0
15, 293903, Note_on_c, 6, 71, 0
15, 293904, Note_on_c, 6, 67, 0
15, 294012, Note_on_c, 6, 67, 99
15, 294013, Note_on_c, 6, 63, 101
15, 294019, Note_on_c, 6, 70, 98
15, 294132, Note_on_c, 6, 67, 0
15, 294133, Note_on_c, 6, 63, 0
15, 294139, Note_on_c, 6, 70, 0
15, 295440, Note_on_c, 6, 79, 54
15, 295440, Note_on_c, 6, 81, 45
15, 295440, Note_on_c, 6, 73, 46
15, 295440, Note_on_c, 6, 76, 41
15, 295487, Note_on_c, 6, 79, 0
15, 295487, Note_on_c, 6, 81, 0
15, 295487, Note_on_c, 6, 73, 0
15, 295487, Note_on_c, 6, 76, 0
15, 295560, Note_on_c, 6, 79, 44
15, 295560, Note_on_c, 6, 81, 53
15, 295560, Note_on_c, 6, 73, 59
15, 295560, Note_on_c, 6, 76, 59
15, 295607, Note_on_c, 6, 79, 0
15, 295607, Note_on_c, 6, 81, 0
15, 295607, Note_on_c, 6, 73, 0
15, 295607, Note_on_c, 6, 76, 0
15, 295680, Note_on_c, 6, 79, 51
15, 295680, Note_on_c, 6, 81, 48
15, 295680, Note_on_c, 6, 73, 48
15, 295680, Note_on_c, 6, 76, 40
15, 295727, Note_on_c, 6, 79, 0
15, 295727, Note_on_c, 6, 81, 0
15, 295727, Note_on_c, 6, 73, 0
15, 295727, Note_on_c, 6, 76, 0
15, 295800, Note_on_c, 6, 79, 57
15, 295800, Note_on_c, 6, 81, 43
15, 295800, Note_on_c, 6, 73, 53
15, 295800, Note_on_c, 6, 76, 49
15, 295847, Note_on_c, 6, 79, 0
15, 295847, Note_on_c, 6, 81, 0
15, 295847, Note_on_c, 6, 73, 0
15, 295847, Note_on_c, 6, 76, 0
15, 295920, Note_on_c, 6, 79, 40
15, 295920, Note_on_c, 6, 81, 41
15, 295920, Note_on_c, 6, 73, 49
15, 295920, Note_on_c, 6, 76, 54
15, 295967, Note_on_c, 6, 79, 0
15, 295967, Note_on_c, 6, 81, 0
15, 295967, Note_on_c, 6, 73, 0
15, 295967, Note_on_c, 6, 76, 0
15, 296040, Note_on_c, 6, 79, 47
15, 296040, Note_on_c, 6, 81, 45
15, 296040, Note_on_c, 6, 73, 41
15, 296040, Note_on_c, 6, 76, 40
15, 296087, Note_on_c, 6, 79, 0
15, 296087, Note_on_c, 6, 81, 0
15, 296087, Note_on_c, 6, 73, 0
15, 296087, Note_on_c, 6, 76, 0
15, 298320, Note_on_c, 6, 79, 61
15, 298320, Note_on_c, 6, 81, 62
15, 298320, Note_on_c, 6, 73, 54
15, 298320, Note_on_c, 6, 76, 69
15, 298367, Note_on_c, 6, 79, 0
15, 298367, Note_on_c, 6, 81, 0
15, 298367, Note_on_c, 6, 73, 0
15, 298367, Note_on_c, 6, 76, 0
15, 298440, Note_on_c, 6, 79, 63
15, 298440, Note_on_c, 6, 81, 53
15, 298440, Note_on_c, 6, 73, 53
15, 298440, Note_on_c, 6, 76, 65
15, 298487, Note_on_c, 6, 79, 0
15, 298487, Note_on_c, 6, 81, 0
15, 298487, Note_on_c, 6, 73, 0
15, 298487, Note_on_c, 6, 76, 0
15, 298560, Note_on_c, 6, 79, 53
15, 298560, Note_on_c, 6, 81, 72
15, 298560, Note_on_c, 6, 73, 63
15, 298560, Note_on_c, 6, 76, 65
15, 298607, Note_on_c, 6, 79, 0
15, 298607, Note_on_c, 6, 81, 0
15, 298607, Note_on_c, 6, 73, 0
15, 298607, Note_on_c, 6, 76, 0
15, 298680, Note_on_c, 6, 79, 60
15, 298680, Note_on_c, 6, 81, 70
15, 298680, Note_on_c, 6, 73, 69
15, 298680, Note_on_c, 6, 76, 58
15, 298727, Note_on_c, 6, 79, 0
15, 298727, Note_on_c, 6, 81, 0
15, 298727, Note_on_c, 6, 73, 0
15, 298727, Note_on_c, 6, 76, 0
15, 298800, Note_on_c, 6, 79, 66
15, 298800, Note_on_c, 6, 81, 62
15, 298800, Note_on_c, 6, 73, 62
15, 298800, Note_on_c, 6, 76, 58
15, 298847, Note_on_c, 6, 79, 0
15, 298847, Note_on_c, 6, 81, 0
15, 298847, Note_on_c, 6, 73, 0
15, 298847, Note_on_c, 6, 76, 0
15, 298920, Note_on_c, 6, 79, 56
15, 298920, Note_on_c, 6, 81, 61
15, 298920, Note_on_c, 6, 73, 68
15, 298920, Note_on_c, 6, 76, 53
15, 298967, Note_on_c, 6, 79, 0
15, 298967, Note_on_c, 6, 81, 0
15, 298967, Note_on_c, 6, 73, 0
15, 298967, Note_on_c, 6, 76, 0
15, 301200, Note_on_c, 6, 79, 80
15, 301200, Note_on_c, 6, 81, 72
15, 301200, Note_on_c, 6, 73, 71
15, 301200, Note_on_c, 6, 76, 73
15, 301247, Note_on_c, 6, 79, 0
15, 301247, Note_on_c, 6, 81, 0
15, 301247, Note_on_c, 6, 73, 0
15, 301247, Note_on_c, 6, 76, 0
15, 301320, Note_on_c, 6, 79, 75
15, 301320, Note_on_c, 6, 81, 71
15, 301320, Note_on_c, 6, 73, 85
15, 301320, Note_on_c, 6, 76, 72
15, 301367, Note_on_c, 6, 79, 0
15, 301367, Note_on_c, 6, 81, 0
15, 301367, Note_on_c, 6, 73, 0
15, 301367, Note_on_c, 6, 76, 0
15, 301440, Note_on_c, 6, 79, 78
15, 301440, Note_on_c, 6, 81, 84
15, 301440, Note_on_c, 6, 73, 82
15, 301440, Note_on_c, 6, 76, 83
15, 301487, Note_on_c, 6, 79, 0
15, 301487, Note_on_c, 6, 81, 0
15, 301487, Note_on_c, 6, 73, 0
15, 301487, Note_on_c, 6, 76, 0
15, 301560, Note_on_c, 6, 79, 74
15, 301560, Note_on_c, 6, 81, 71
15, 301560, Note_on_c, 6, 73, 83
15, 301560, Note_on_c, 6, 76, 75
15, 301607, Note_on_c, 6, 79, 0
15, 301607, Note_on_c, 6, 81, 0
15, 301607, Note_on_c, 6, 73, 0
15, 301607, Note_on_c, 6, 76, 0
15, 301680, Note_on_c, 6, 79, 66
15, 301680, Note_on_c, 6, 81, 68
15, 301680, Note_on_c, 6, 73, 68
15, 301680, Note_on_c, 6, 76, 75
15, 301727, Note_on_c, 6, 79, 0
15, 301727, Note_on_c, 6, 81, 0
15, 301727, Note_on_c, 6, 73, 0
15, 301727, Note_on_c, 6, 76, 0
15, 301800, Note_on_c, 6, 79, 69
15, 301800, Note_on_c, 6, 81, 77
15, 301800, Note_on_c, 6, 73, 78
15, 301800, Note_on_c, 6, 76, 78
15, 301847, Note_on_c, 6, 79, 0
15, 301847, Note_on_c, 6, 81, 0
15, 301847, Note_on_c, 6, 73, 0
15, 301847, Note_on_c, 6, 76, 0
15, 305542, Note_on_c, 6, 82, 97
15, 305544, Note_on_c, 6, 78, 88
15, 305662, Note_on_c, 6, 82, 0
15, 305664, Note_on_c, 6, 78, 0
15, 305764, Note_on_c, 6, 80, 90
15, 305780, Note_on_c, 6, 77, 85
15, 305884, Note_on_c, 6, 80, 0
15, 305900, Note_on_c, 6, 77, 0
15, 306007, Note_on_c, 6, 82, 79
15, 306023, Note_on_c, 6, 78, 88
15, 306127, Note_on_c, 6, 82, 0
15, 306143, Note_on_c, 6, 78, 0
15, 306247, Note_on_c, 6, 80, 85
15, 306258, Note_on_c, 6, 77, 82
15, 306367, Note_on_c, 6, 80, 0
15, 306378, Note_on_c, 6, 77, 0
15, 306485, Note_on_c, 6, 75, 78
15, 306505, Note_on_c, 6, 78, 78
15, 306605, Note_on_c, 6, 75, 0
15, 306625, Note_on_c, 6, 78, 0
15, 306721, Note_on_c, 6, 77, 82
15, 306739, Note_on_c, 6, 73, 87
15, 306841, Note_on_c, 6, 77, 0
15, 306859, Note_on_c, 6, 73, 0
15, 306975, Note_on_c, 6, 78, 94
15, 306975, Note_on_c, 6, 75, 84
15, 307095, Note_on_c, 6, 78, 0
15, 307095, Note_on_c, 6, 75, 0
15, 307200, Note_on_c, 6, 72, 89
15, 307204, Note_on_c, 6, 75, 91
15, 307320, Note_on_c, 6, 72, 0
15, 307324, Note_on_c, 6, 75, 0
15, 307447, Note_on_c, 6, 75, 78
15, 307457, Note_on_c, 6, 72, 98
15, 307567, Note_on_c, 6, 75, 0
15, 307577, Note_on_c, 6, 72, 0
15, 307694, Note_on_c, 6, 72, 79
15, 307702, Note_on_c, 6, 75, 87
15, 307814, Note_on_c, 6, 72, 0
15, 307822, Note_on_c, 6, 75, 0
15, 307921, Note_on_c, 6, 73, 96
15, 307941, Note_on_c, 6, 77, 85
15, 308041, Note_on_c, 6, 73, 0
15, 308061, Note_on_c, 6, 77, 0
15, 308164, Note_on_c, 6, 75, 92
15, 308179, Note_on_c, 6, 78, 92
15, 308284, Note_on_c, 6, 75, 0
15, 308299, Note_on_c, 6, 78, 0
15, 308403, Note_on_c, 6, 77, 80
15, 308410, Note_on_c, 6, 80, 81
15, 308523, Note_on_c, 6, 77, 0
15, 308530, Note_on_c, 6, 80, 0
15, 308660, Note_on_c, 6, 82, 97
15, 308662, Note_on_c, 6, 78, 82
15, 308780, Note_on_c, 6, 82, 0
15, 308782, Note_on_c, 6, 78, 0
15, 311043, Note_on_c, 6, 77, 79
15, 311062, Note_on_c, 6, 81, 87
15, 311163, Note_on_c, 6, 77, 0
15, 311182, Note_on_c, 6, 81, 0
15, 311293, Note_on_c, 6, 76, 87
15, 311299, Note_on_c, 6, 79, 87
15, 311413, Note_on_c, 6, 76, 0
15, 311419, Note_on_c, 6, 79, 0
15, 311532, Note_on_c, 6, 81, 87
15, 311534, Note_on_c, 6, 77, 90
15, 311652, Note_on_c, 6, 81, 0
15, 311654, Note_on_c, 6, 77, 0
15, 311777, Note_on_c, 6, 79, 79
15, 311780, Note_on_c, 6, 76, 84
15, 311897, Note_on_c, 6, 79, 0
15, 311900, Note_on_c, 6, 76, 0
15, 312002, Note_on_c, 6, 74, 86
15, 312011, Note_on_c, 6, 77, 86
15, 312122, Note_on_c, 6, 74, 0
15, 312131, Note_on_c, 6, 77, 0
15, 312247, Note_on_c, 6, 72, 98
15, 312259, Note_on_c, 6, 76, 94
15, 312367, Note_on_c, 6, 72, 0
15, 312379, Note_on_c, 6, 76, 0
15, 312494, Note_on_c, 6, 74, 78
15, 312504, Note_on_c, 6, 71, 89
15, 312614, Note_on_c, 6, 74, 0
15, 312624, Note_on_c, 6, 71, 0
15, 312732, Note_on_c, 6, 74, 88
15, 312735, Note_on_c, 6, 71, 95
15, 312852, Note_on_c, 6, 74, 0
15, 312855, Note_on_c, 6, 71, 0
15, 312972, Note_on_c, 6, 71, 97
15, 312974, Note_on_c, 6, 74, 95
15, 313092, Note_on_c, 6, 71, 0
15, 313094, Note_on_c, 6, 74, 0
15, 313207, Note_on_c, 6, 72, 88
15, 313208, Note_on_c, 6, 76, 82
15, 313327, Note_on_c, 6, 72, 0
15, 313328, Note_on_c, 6, 76, 0
15, 313445, Note_on_c, 6, 74, 94
15, 313454, Note_on_c, 6, 77, 85
15, 313565, Note_on_c, 6, 74, 0
15, 313574, Note_on_c, 6, 77, 0
15, 313690, Note_on_c, 6, 79, 93
15, 313700, Note_on_c, 6, 76, 85
15, 313810, Note_on_c, 6, 79, 0
15, 313820, Note_on_c, 6, 76, 0
15, 313921, Note_on_c, 6, 72, 55
15, 313922, Note_on_c, 6, 77, 47
15, 313922, Note_on_c, 6, 77, 46
15, 313929, Note_on_c, 6, 75, 59
15, 313931, Note_on_c, 6, 72, 58
15, 313943, Note_on_c, 6, 69, 49
15, 314041, Note_on_c, 6, 72, 0
15, 314042, Note_on_c, 6, 77, 0
15, 314049, Note_on_c, 6, 75, 0
15, 314049, Note_on_c, 6, 72, 59
15, 314052, Note_on_c, 6, 75, 56
15, 314053, Note_on_c, 6, 69, 48
15, 314063, Note_on_c, 6, 69, 0
15, 314064, Note_on_c, 6, 77, 48
15, 314162, Note_on_c, 6, 77, 0
15, 314171, Note_on_c, 6, 72, 0
15, 314172, Note_on_c, 6, 75, 0
15, 314173, Note_on_c, 6, 69, 0
15, 314177, Note_on_c, 6, 69, 49
15, 314179, Note_on_c, 6, 77, 54
15, 314184, Note_on_c, 6, 75, 60
15, 314185, Note_on_c, 6, 72, 60
15, 314289, Note_on_c, 6, 72, 0
15, 314295, Note_on_c, 6, 69, 60
15, 314297, Note_on_c, 6, 69, 0
15, 314298, Note_on_c, 6, 75, 55
15, 314302, Note_on_c, 6, 72, 61
15, 314304, Note_on_c, 6, 77, 0
15, 314304, Note_on_c, 6, 75, 0
15, 314304, Note_on_c, 6, 77, 61
15, 314408, Note_on_c, 6, 75, 60
15, 314413, Note_on_c, 6, 77, 59
15, 314415, Note_on_c, 6, 69, 0
15, 314418, Note_on_c, 6, 75, 0
15, 314419, Note_on_c, 6, 77, 0
15, 314420, Note_on_c, 6, 69, 45
15, 314425, Note_on_c, 6, 72, 0
15, 314425, Note_on_c, 6, 72, 59
15, 314525, Note_on_c, 6, 77, 48
15, 314527, Note_on_c, 6, 75, 50
15, 314528, Note_on_c, 6, 75, 0
15, 314533, Note_on_c, 6, 69, 42
15, 314537, Note_on_c, 6, 72, 53
15, 314540, Note_on_c, 6, 69, 0
15, 314542, Note_on_c, 6, 72, 0
15, 314544, Note_on_c, 6, 77, 0
15, 314643, Note_on_c, 6, 75, 0
15, 314644, Note_on_c, 6, 77, 53
15, 314645, Note_on_c, 6, 77, 0
15, 314646, Note_on_c, 6, 72, 62
15, 314649, Note_on_c, 6, 69, 0
15, 314653, Note_on_c, 6, 77, 0
15, 314655, Note_on_c, 6, 75, 59
15, 314657, Note_on_c, 6, 72, 0
15, 314657, Note_on_c, 6, 72, 46
15, 314662, Note_on_c, 6, 77, 46
15, 314663, Note_on_c, 6, 69, 55
15, 314665, Note_on_c, 6, 72, 0
15, 314764, Note_on_c, 6, 72, 55
15, 314771, Note_on_c, 6, 77, 48
15, 314775, Note_on_c, 6, 75, 0
15, 314777, Note_on_c, 6, 72, 0
15, 314779, Note_on_c, 6, 75, 61
15, 314780, Note_on_c, 6, 69, 58
15, 314782, Note_on_c, 6, 77, 0
15, 314783, Note_on_c, 6, 69, 0
15, 314880, Note_on_c, 6, 75, 60
15, 314884, Note_on_c, 6, 77, 0
15, 314884, Note_on_c, 6, 77, 56
15, 314886, Note_on_c, 6, 72, 0
15, 314899, Note_on_c, 6, 75, 0
15, 314900, Note_on_c, 6, 69, 0
15, 314902, Note_on_c, 6, 69, 54
15, 314902, Note_on_c, 6, 72, 51
15, 315000, Note_on_c, 6, 75, 0
15, 315004, Note_on_c, 6, 72, 0
15, 315007, Note_on_c, 6, 77, 55
15, 315009, Note_on_c, 6, 75, 49
15, 315010, Note_on_c, 6, 72, 48
15, 315011, Note_on_c, 6, 77, 0
15, 315020, Note_on_c, 6, 69, 61
15, 315022, Note_on_c, 6, 69, 0
15, 315121, Note_on_c, 6, 77, 52
15, 315122, Note_on_c, 6, 72, 53
15, 315123, Note_on_c, 6, 69, 45
15, 315124, Note_on_c, 6, 77, 0
15, 315129, Note_on_c, 6, 75, 0
15, 315136, Note_on_c, 6, 75, 56
15, 315140, Note_on_c, 6, 69, 0
15, 315142, Note_on_c, 6, 72, 0
15, 315243, Note_on_c, 6, 69, 0
15, 315247, Note_on_c, 6, 77, 0
15, 315249, Note_on_c, 6, 75, 59
15, 315250, Note_on_c, 6, 72, 0
15, 315256, Note_on_c, 6, 75, 0
15, 315258, Note_on_c, 6, 69, 54
15, 315259, Note_on_c, 6, 77, 51
15, 315260, Note_on_c, 6, 72, 58
15, 315361, Note_on_c, 6, 77, 0
15, 315361, Note_on_c, 6, 69, 56
15, 315362, Note_on_c, 6, 72, 0
15, 315365, Note_on_c, 6, 75, 0
15, 315371, Note_on_c, 6, 75, 51
15, 315373, Note_on_c, 6, 77, 61
15, 315374, Note_on_c, 6, 69, 0
15, 315374, Note_on_c, 6, 72, 57
15, 315377, Note_on_c, 6, 77, 47
15, 315379, Note_on_c, 6, 77, 0
15, 315380, Note_on_c, 6, 72, 0
15, 315381, Note_on_c, 6, 72, 57
15, 315481, Note_on_c, 6, 69, 0
15, 315486, Note_on_c, 6, 69, 63
15, 315487, Note_on_c, 6, 77, 50
15, 315491, Note_on_c, 6, 75, 0
15, 315496, Note_on_c, 6, 72, 61
15, 315497, Note_on_c, 6, 77, 0
15, 315500, Note_on_c, 6, 75, 61
15, 315501, Note_on_c, 6, 72, 0
15, 315606, Note_on_c, 6, 69, 0
15, 315613, Note_on_c, 6, 77, 0
15, 315614, Note_on_c, 6, 72, 0
15, 315616, Note_on_c, 6, 69, 63
15, 315619, Note_on_c, 6, 77, 67
15, 315619, Note_on_c, 6, 75, 67
15, 315620, Note_on_c, 6, 75, 0
15, 315620, Note_on_c, 6, 72, 63
15, 315727, Note_on_c, 6, 77, 0
15, 315730, Note_on_c, 6, 75, 48
15, 315731, Note_on_c, 6, 69, 64
15, 315736, Note_on_c, 6, 72, 0
15, 315736, Note_on_c, 6, 69, 0
15, 315737, Note_on_c, 6, 72, 54
15, 315739, Note_on_c, 6, 75, 0
15, 315745, Note_on_c, 6, 77, 65
15, 315845, Note_on_c, 6, 75, 59
15, 315848, Note_on_c, 6, 77, 59
15, 315850, Note_on_c, 6, 75, 0
15, 315851, Note_on_c, 6, 69, 0
15, 315859, Note_on_c, 6, 77, 0
15, 315860, Note_on_c, 6, 72, 0
15, 315862, Note_on_c, 6, 69, 62
15, 315864, Note_on_c, 6, 72, 68
15, 315964, Note_on_c, 6, 72, 66
15, 315965, Note_on_c, 6, 75, 0
15, 315972, Note_on_c, 6, 77, 63
15, 315976, Note_on_c, 6, 75, 67
15, 315976, Note_on_c, 6, 69, 48
15, 315977, Note_on_c, 6, 72, 0
15, 315982, Note_on_c, 6, 69, 0
15, 315985, Note_on_c, 6, 77, 0
15, 316083, Note_on_c, 6, 77, 52
15, 316084, Note_on_c, 6, 72, 0
15, 316088, Note_on_c, 6, 77, 0
15, 316089, Note_on_c, 6, 69, 51
15, 316090, Note_on_c, 6, 72, 49
15, 316092, Note_on_c, 6, 77, 0
15, 316092, Note_on_c, 6, 75, 0
15, 316092, Note_on_c, 6, 69, 0
15, 316100, Note_on_c, 6, 72, 66
15, 316104, Note_on_c, 6, 72, 0
15, 316105, Note_on_c, 6, 77, 62
15, 316105, Note_on_c, 6, 75, 61
15, 316203, Note_on_c, 6, 77, 0
15, 316209, Note_on_c, 6, 69, 0
15, 316210, Note_on_c, 6, 72, 0
15, 316210, Note_on_c, 6, 72, 62
15, 316212, Note_on_c, 6, 75, 53
15, 316214, Note_on_c, 6, 69, 69
15, 316223, Note_on_c, 6, 77, 60
15, 316225, Note_on_c, 6, 75, 0
15, 316320, Note_on_c, 6, 72, 55
15, 316332, Note_on_c, 6, 75, 0
15, 316332, Note_on_c, 6, 75, 51
15, 316334, Note_on_c, 6, 69, 0
15, 316336, Note_on_c, 6, 77, 70
15, 316340, Note_on_c, 6, 72, 0
15, 316343, Note_on_c, 6, 69, 70
15, 316345, Note_on_c, 6, 77, 0
15, 316445, Note_on_c, 6, 75, 52
15, 316446, Note_on_c, 6, 77, 55
15, 316450, Note_on_c, 6, 72, 0
15, 316452, Note_on_c, 6, 75, 0
15, 316460, Note_on_c, 6, 72, 52
15, 316463, Note_on_c, 6, 77, 0
15, 316463, Note_on_c, 6, 69, 0
15, 316464, Note_on_c, 6, 69, 63
15, 316560, Note_on_c, 6, 72, 0
15, 316560, Note_on_c, 6, 77, 70
15, 316565, Note_on_c, 6, 75, 0
15, 316568, Note_on_c, 6, 75, 68
15, 316569, Note_on_c, 6, 72, 69
15, 316570, Note_on_c, 6, 69, 64
15, 316576, Note_on_c, 6, 77, 0
15, 316584, Note_on_c, 6, 69, 0
15, 316682, Note_on_c, 6, 69, 62
15, 316686, Note_on_c, 6, 77, 0
15, 316688, Note_on_c, 6, 75, 0
15, 316690, Note_on_c, 6, 69, 0
15, 316696, Note_on_c, 6, 72, 61
15, 316700, Note_on_c, 6, 72, 0
15, 316701, Note_on_c, 6, 77, 63
15, 316703, Note_on_c, 6, 75, 70
15, 316798, Note_on_c, 6, 69, 0
15, 316800, Note_on_c, 6, 77, 0
15, 316802, Note_on_c, 6, 77, 68
15, 316803, Note_on_c, 6, 72, 71
15, 316804, Note_on_c, 6, 69, 53
15, 316806, Note_on_c, 6, 72, 57
15, 316807, Note_on_c, 6, 75, 65
15, 316809, Note_on_c, 6, 72, 0
15, 316816, Note_on_c, 6, 72, 0
15, 316819, Note_on_c, 6, 75, 0
15, 316821, Note_on_c, 6, 77, 0
15, 316823, Note_on_c, 6, 77, 67
15, 316920, Note_on_c, 6, 77, 53
15, 316922, Note_on_c, 6, 77, 0
15, 316924, Note_on_c, 6, 69, 0
15, 316926, Note_on_c, 6, 72, 0
15, 316926, Note_on_c, 6, 75, 56
15, 316926, Note_on_c, 6, 69, 60
15, 316927, Note_on_c, 6, 75, 0
15, 316929, Note_on_c, 6, 72, 54
15, 317043, Note_on_c, 6, 72, 0
15, 317046, Note_on_c, 6, 75, 0
15, 317046, Note_on_c, 6, 69, 0
15, 317052, Note_on_c, 6, 77, 64
15, 317053, Note_on_c, 6, 72, 60
15, 317054, Note_on_c, 6, 69, 59
15, 317060, Note_on_c, 6, 75, 67
15, 317063, Note_on_c, 6, 77, 0
15, 317160, Note_on_c, 6, 77, 0
15, 317166, Note_on_c, 6, 75, 62
15, 317169, Note_on_c, 6, 72, 0
15, 317170, Note_on_c, 6, 72, 70
15, 317174, Note_on_c, 6, 69, 0
15, 317177, Note_on_c, 6, 69, 73
15, 317178, Note_on_c, 6, 77, 73
15, 317180, Note_on_c, 6, 75, 0
15, 317281, Note_on_c, 6, 75, 60
15, 317283, Note_on_c, 6, 72, 60
15, 317286, Note_on_c, 6, 75, 0
15, 317292, Note_on_c, 6, 77, 0
15, 317293, Note_on_c, 6, 72, 0
15, 317295, Note_on_c, 6, 69, 72
15, 317296, Note_on_c, 6, 77, 70
15, 317297, Note_on_c, 6, 69, 0
15, 317400, Note_on_c, 6, 69, 55
15, 317401, Note_on_c, 6, 75, 0
15, 317410, Note_on_c, 6, 72, 0
15, 317415, Note_on_c, 6, 69, 0
15, 317418, Note_on_c, 6, 77, 0
15, 317418, Note_on_c, 6, 75, 65
15, 317420, Note_on_c, 6, 72, 59
15, 317421, Note_on_c, 6, 77, 56
15, 317516, Note_on_c, 6, 69, 0
15, 317520, Note_on_c, 6, 72, 65
15, 317523, Note_on_c, 6, 72, 0
15, 317525, Note_on_c, 6, 77, 63
15, 317529, Note_on_c, 6, 75, 66
15, 317530, Note_on_c, 6, 77, 64
15, 317534, Note_on_c, 6, 75, 0
15, 317534, Note_on_c, 6, 69, 64
15, 317536, Note_on_c, 6, 77, 0
15, 317540, Note_on_c, 6, 72, 0
15, 317541, Note_on_c, 6, 77, 0
15, 317545, Note_on_c, 6, 72, 61
15, 317640, Note_on_c, 6, 72, 0
15, 317645, Note_on_c, 6, 77, 0
15, 317645, Note_on_c, 6, 72, 76
15, 317646, Note_on_c, 6, 77, 69
15, 317649, Note_on_c, 6, 75, 0
15, 317654, Note_on_c, 6, 69, 0
15, 317660, Note_on_c, 6, 69, 66
15, 317661, Note_on_c, 6, 75, 69
15, 317769, Note_on_c, 6, 77, 74
15, 317770, Note_on_c, 6, 77, 0
15, 317771, Note_on_c, 6, 72, 67
15, 317773, Note_on_c, 6, 69, 63
15, 317780, Note_on_c, 6, 69, 0
15, 317780, Note_on_c, 6, 75, 57
15, 317781, Note_on_c, 6, 75, 0
15, 317785, Note_on_c, 6, 72, 0
15, 317883, Note_on_c, 6, 72, 65
15, 317885, Note_on_c, 6, 72, 0
15, 317886, Note_on_c, 6, 77, 0
15, 317886, Note_on_c, 6, 69, 72
15, 317886, Note_on_c, 6, 77, 64
15, 317893, Note_on_c, 6, 69, 0
15, 317900, Note_on_c, 6, 75, 0
15, 317900, Note_on_c, 6, 75, 76
15, 318006, Note_on_c, 6, 69, 0
15, 318007, Note_on_c, 6, 72, 67
15, 318009, Note_on_c, 6, 77, 0
15, 318011, Note_on_c, 6, 72, 0
15, 318011, Note_on_c, 6, 75, 57
15, 318020, Note_on_c, 6, 75, 0
15, 318020, Note_on_c, 6, 69, 67
15, 318024, Note_on_c, 6, 77, 60
15, 318123, Note_on_c, 6, 72, 0
15, 318125, Note_on_c, 6, 75, 70
15, 318126, Note_on_c, 6, 77, 0
15, 318128, Note_on_c, 6, 77, 61
15, 318129, Note_on_c, 6, 72, 68
15, 318131, Note_on_c, 6, 75, 0
15, 318140, Note_on_c, 6, 69, 0
15, 318142, Note_on_c, 6, 69, 58
15, 318241, Note_on_c, 6, 75, 0
15, 318242, Note_on_c, 6, 77, 67
15, 318247, Note_on_c, 6, 72, 0
15, 318248, Note_on_c, 6, 77, 0
15, 318249, Note_on_c, 6, 72, 0
15, 318251, Note_on_c, 6, 75, 62
15, 318256, Note_on_c, 6, 69, 78
15, 318258, Note_on_c, 6, 69, 0
15, 318258, Note_on_c, 6, 72, 63
15, 318259, Note_on_c, 6, 77, 79
15, 318262, Note_on_c, 6, 72, 70
15, 318264, Note_on_c, 6, 77, 0
15, 318362, Note_on_c, 6, 77, 0
15, 318362, Note_on_c, 6, 75, 62
15, 318365, Note_on_c, 6, 72, 66
15, 318371, Note_on_c, 6, 75, 0
15, 318371, Note_on_c, 6, 77, 66
15, 318376, Note_on_c, 6, 69, 0
15, 318382, Note_on_c, 6, 72, 0
15, 318385, Note_on_c, 6, 69, 78
15, 318481, Note_on_c, 6, 75, 67
15, 318482, Note_on_c, 6, 75, 0
15, 318489, Note_on_c, 6, 77, 78
15, 318491, Note_on_c, 6, 69, 61
15, 318498, Note_on_c, 6, 72, 0
15, 318499, Note_on_c, 6, 77, 0
15, 318505, Note_on_c, 6, 69, 0
15, 318505, Note_on_c, 6, 72, 64
15, 318601, Note_on_c, 6, 75, 0
15, 318605, Note_on_c, 6, 72, 0
15, 318606, Note_on_c, 6, 77, 66
15, 318607, Note_on_c, 6, 69, 65
15, 318611, Note_on_c, 6, 77, 0
15, 318611, Note_on_c, 6, 69, 0
15, 318611, Note_on_c, 6, 75, 66
15, 318623, Note_on_c, 6, 72, 64
15, 318727, Note_on_c, 6, 69, 0
15, 318728, Note_on_c, 6, 77, 73
15, 318729, Note_on_c, 6, 77, 0
15, 318729, Note_on_c, 6, 75, 73
15, 318731, Note_on_c, 6, 75, 0
15, 318739, Note_on_c, 6, 69, 64
15, 318741, Note_on_c, 6, 72, 73
15, 318745, Note_on_c, 6, 72, 0
15, 318840, Note_on_c, 6, 75, 79
15, 318845, Note_on_c, 6, 77, 75
15, 318846, Note_on_c, 6, 77, 0
15, 318849, Note_on_c, 6, 75, 0
15, 318851, Note_on_c, 6, 72, 66
15, 318859, Note_on_c, 6, 69, 0
15, 318859, Note_on_c, 6, 69, 79
15, 318863, Note_on_c, 6, 72, 0
15, 318956, Note_on_c, 6, 75, 0
15, 318960, Note_on_c, 6, 69, 76
15, 318960, Note_on_c, 6, 72, 78
15, 318965, Note_on_c, 6, 77, 0
15, 318968, Note_on_c, 6, 77, 0
15, 318968, Note_on_c, 6, 77, 69
15, 318971, Note_on_c, 6, 72, 0
15, 318974, Note_on_c, 6, 75, 73
15, 318975, Note_on_c, 6, 69, 0
15, 318976, Note_on_c, 6, 72, 65
15, 318981, Note_on_c, 6, 72, 0
15, 318982, Note_on_c, 6, 77, 68
15, 319080, Note_on_c, 6, 69, 0
15, 319080, Note_on_c, 6, 72, 0
15, 319086, Note_on_c, 6, 69, 70
15, 319094, Note_on_c, 6, 75, 0
15, 319094, Note_on_c, 6, 75, 66
15, 319102, Note_on_c, 6, 77, 0
15, 319103, Note_on_c, 6, 72, 68
15, 319104, Note_on_c, 6, 77, 65
15, 319205, Note_on_c, 6, 72, 72
15, 319206, Note_on_c, 6, 69, 0
15, 319206, Note_on_c, 6, 69, 76
15, 319208, Note_on_c, 6, 77, 0
15, 319213, Note_on_c, 6, 77, 67
15, 319214, Note_on_c, 6, 75, 0
15, 319216, Note_on_c, 6, 72, 0
15, 319216, Note_on_c, 6, 75, 71
15, 319326, Note_on_c, 6, 69, 0
15, 319330, Note_on_c, 6, 69, 70
15, 319331, Note_on_c, 6, 72, 80
15, 319336, Note_on_c, 6, 75, 0
15, 319341, Note_on_c, 6, 77, 76
15, 319343, Note_on_c, 6, 72, 0
15, 319344, Note_on_c, 6, 77, 0
15, 319345, Note_on_c, 6, 75, 69
15, 319445, Note_on_c, 6, 72, 0
15, 319450, Note_on_c, 6, 69, 0
15, 319451, Note_on_c, 6, 77, 67
15, 319451, Note_on_c, 6, 72, 84
15, 319453, Note_on_c, 6, 77, 0
15, 319462, Note_on_c, 6, 69, 79
15, 319465, Note_on_c, 6, 75, 0
15, 319465, Note_on_c, 6, 75, 73
15, 319563, Note_on_c, 6, 77, 84
15, 319570, Note_on_c, 6, 72, 82
15, 319571, Note_on_c, 6, 72, 0
15, 319574, Note_on_c, 6, 69, 80
15, 319576, Note_on_c, 6, 75, 70
15, 319581, Note_on_c, 6, 77, 0
15, 319582, Note_on_c, 6, 69, 0
15, 319585, Note_on_c, 6, 75, 0
15, 319680, Note_on_c, 6, 77, 74
15, 319683, Note_on_c, 6, 77, 0
15, 319686, Note_on_c, 6, 77, 79
15, 319690, Note_on_c, 6, 72, 0
15, 319690, Note_on_c, 6, 69, 0
15, 319690, Note_on_c, 6, 69, 77
15, 319691, Note_on_c, 6, 77, 0
15, 319691, Note_on_c, 6, 72, 0
15, 319692, Note_on_c, 6, 75, 0
15, 319694, Note_on_c, 6, 72, 73
15, 319697, Note_on_c, 6, 72, 71
15, 319698, Note_on_c, 6, 75, 76
15, 319800, Note_on_c, 6, 77, 0
15, 319800, Note_on_c, 6, 72, 66
15, 319810, Note_on_c, 6, 69, 0
15, 319812, Note_on_c, 6, 75, 85
15, 319814, Note_on_c, 6, 72, 0
15, 319814, Note_on_c, 6, 77, 70
15, 319818, Note_on_c, 6, 75, 0
15, 319823, Note_on_c, 6, 69, 70
15, 319926, Note_on_c, 6, 77, 0
15, 319926, Note_on_c, 6, 77, 70
15, 319932, Note_on_c, 6, 75, 0
15, 319937, Note_on_c, 6, 72, 0
15, 319942, Note_on_c, 6, 72, 73
15, 319943, Note_on_c, 6, 69, 0
15, 319944, Note_on_c, 6, 75, 76
15, 319945, Note_on_c, 6, 69, 71
15, 320040, Note_on_c, 6, 72, 0
15, 320044, Note_on_c, 6, 69, 83
15, 320054, Note_on_c, 6, 77, 0
15, 320056, Note_on_c, 6, 77, 70
15, 320057, Note_on_c, 6, 75, 86
15, 320062, Note_on_c, 6, 72, 82
15, 320064, Note_on_c, 6, 75, 0
15, 320065, Note_on_c, 6, 69, 0
15, 320164, Note_on_c, 6, 69, 0
15, 320166, Note_on_c, 6, 77, 0
15, 320175, Note_on_c, 6, 77, 68
15, 320177, Note_on_c, 6, 75, 0
15, 320179, Note_on_c, 6, 69, 86
15, 320180, Note_on_c, 6, 75, 83
15, 320182, Note_on_c, 6, 72, 0
15, 320184, Note_on_c, 6, 72, 74
15, 320284, Note_on_c, 6, 69, 74
15, 320296, Note_on_c, 6, 77, 0
15, 320299, Note_on_c, 6, 69, 0
15, 320300, Note_on_c, 6, 75, 0
15, 320300, Note_on_c, 6, 77, 81
15, 320301, Note_on_c, 6, 75, 69
15, 320301, Note_on_c, 6, 72, 87
15, 320302, Note_on_c, 6, 72, 0
15, 320400, Note_on_c, 6, 69, 0
15, 320401, Note_on_c, 6, 75, 77
15, 320402, Note_on_c, 6, 72, 75
15, 320404, Note_on_c, 6, 77, 76
15, 320415, Note_on_c, 6, 77, 0
15, 320417, Note_on_c, 6, 75, 0
15, 320420, Note_on_c, 6, 77, 0
15, 320421, Note_on_c, 6, 72, 0
15, 320421, Note_on_c, 6, 69, 85
15, 320424, Note_on_c, 6, 72, 0
15, 320521, Note_on_c, 6, 75, 0
15, 320522, Note_on_c, 6, 72, 0
15, 320524, Note_on_c, 6, 77, 0
15, 320541, Note_on_c, 6, 69, 0
15, 324730, Note_on_c, 6, 72, 80
15, 324922, Note_on_c, 6, 72, 0
15, 324967, Note_on_c, 6, 72, 90
15, 325159, Note_on_c, 6, 72, 0
15, 325201, Note_on_c, 6, 72, 85
15, 325390, Note_on_c, 6, 72, 0
15, 325456, Note_on_c, 6, 69, 85
15, 325648, Note_on_c, 6, 69, 0
15, 325680, Note_on_c, 6, 69, 90
15, 325872, Note_on_c, 6, 69, 0
15, 325926, Note_on_c, 6, 69, 82
15, 326115, Note_on_c, 6, 69, 0
15, 326162, Note_on_c, 6, 74, 78
15, 326170, Note_on_c, 6, 66, 87
15, 326354, Note_on_c, 6, 74, 0
15, 326362, Note_on_c, 6, 66, 0
15, 326405, Note_on_c, 6, 74, 95
15, 326597, Note_on_c, 6, 74, 0
15, 326641, Note_on_c, 6, 74, 85
15, 326830, Note_on_c, 6, 74, 0
15, 326885, Note_on_c, 6, 75, 88
15, 326892, Note_on_c, 6, 71, 80
15, 327077, Note_on_c, 6, 75, 0
15, 327084, Note_on_c, 6, 71, 0
15, 327144, Note_on_c, 6, 75, 92
15, 327145, Note_on_c, 6, 71, 96
15, 327336, Note_on_c, 6, 75, 0
15, 327337, Note_on_c, 6, 71, 0
15, 327364, Note_on_c, 6, 71, 95
15, 327371, Note_on_c, 6, 75, 90
15, 327553, Note_on_c, 6, 71, 0
15, 327560, Note_on_c, 6, 75, 0
15, 327600, Note_on_c, 6, 69, 87
15, 327601, Note_on_c, 6, 64, 91
15, 327613, Note_on_c, 6, 81, 79
15, 327617, Note_on_c, 6, 70, 88
15, 327622, Note_on_c, 6, 77, 82
15, 327793, Note_on_c, 6, 64, 0
15, 327805, Note_on_c, 6, 81, 0
15, 327809, Note_on_c, 6, 69, 0
15, 327809, Note_on_c, 6, 70, 0
15, 327814, Note_on_c, 6, 77, 0
15, 327843, Note_on_c, 6, 69, 97
15, 327845, Note_on_c, 6, 77, 83
15, 327851, Note_on_c, 6, 70, 82
15, 327856, Note_on_c, 6, 81, 82
15, 327862, Note_on_c, 6, 64, 93
15, 328037, Note_on_c, 6, 77, 0
15, 328043, Note_on_c, 6, 70, 0
15, 328048, Note_on_c, 6, 81, 0
15, 328054, Note_on_c, 6, 64, 0
15, 328084, Note_on_c, 6, 81, 78
15, 328088, Note_on_c, 6, 70, 81
15, 328088, Note_on_c, 6, 64, 81
15, 328091, Note_on_c, 6, 77, 83
15, 328224, Note_on_c, 6, 69, 0
15, 328273, Note_on_c, 6, 81, 0
15, 328277, Note_on_c, 6, 70, 0
15, 328277, Note_on_c, 6, 64, 0
15, 328280, Note_on_c, 6, 77, 0
15, 328320, Note_on_c, 6, 66, 94
15, 328322, Note_on_c, 6, 62, 79
15, 328326, Note_on_c, 6, 67, 97
15, 328330, Note_on_c, 6, 74, 78
15, 328334, Note_on_c, 6, 66, 96
15, 328337, Note_on_c, 6, 78, 85
15, 328514, Note_on_c, 6, 62, 0
15, 328518, Note_on_c, 6, 67, 0
15, 328522, Note_on_c, 6, 74, 0
15, 328529, Note_on_c, 6, 78, 0
15, 328531, Note_on_c, 6, 66, 0
15, 328565, Note_on_c, 6, 74, 84
15, 328568, Note_on_c, 6, 67, 81
15, 328572, Note_on_c, 6, 78, 92
15, 328578, Note_on_c, 6, 62, 82
15, 328581, Note_on_c, 6, 66, 79
15, 328698, Note_on_c, 6, 66, 0
15, 328757, Note_on_c, 6, 74, 0
15, 328760, Note_on_c, 6, 67, 0
15, 328764, Note_on_c, 6, 78, 0
15, 328770, Note_on_c, 6, 62, 0
15, 328801, Note_on_c, 6, 66, 85
15, 328811, Note_on_c, 6, 74, 84
15, 328812, Note_on_c, 6, 78, 85
15, 328813, Note_on_c, 6, 67, 82
15, 328817, Note_on_c, 6, 62, 87
15, 328949, Note_on_c, 6, 66, 0
15, 329000, Note_on_c, 6, 74, 0
15, 329001, Note_on_c, 6, 78, 0
15, 329002, Note_on_c, 6, 67, 0
15, 329006, Note_on_c, 6, 62, 0
15, 329009, Note_on_c, 6, 66, 0
15, 329042, Note_on_c, 6, 64, 90
15, 329045, Note_on_c, 6, 62, 88
15, 329047, Note_on_c, 6, 75, 80
15, 329053, Note_on_c, 6, 71, 93
15, 329063, Note_on_c, 6, 64, 84
15, 329234, Note_on_c, 6, 64, 0
15, 329237, Note_on_c, 6, 62, 0
15, 329239, Note_on_c, 6, 75, 0
15, 329245, Note_on_c, 6, 71, 0
15, 329255, Note_on_c, 6, 64, 0
15, 329280, Note_on_c, 6, 75, 97
15, 329282, Note_on_c, 6, 64, 91
15, 329299, Note_on_c, 6, 71, 88
15, 329299, Note_on_c, 6, 62, 78
15, 329472, Note_on_c, 6, 75, 0
15, 329474, Note_on_c, 6, 64, 0
15, 329491, Note_on_c, 6, 71, 0
15, 329491, Note_on_c, 6, 62, 0
15, 329520, Note_on_c, 6, 71, 95
15, 329522, Note_on_c, 6, 75, 88
15, 329526, Note_on_c, 6, 64, 86
15, 329543, Note_on_c, 6, 62, 97
15, 329709, Note_on_c, 6, 71, 0
15, 329711, Note_on_c, 6, 75, 0
15, 329715, Note_on_c, 6, 64, 0
15, 329732, Note_on_c, 6, 62, 0
15, 329777, Note_on_c, 6, 61, 87
15, 329779, Note_on_c, 6, 68, 89
15, 329780, Note_on_c, 6, 72, 78
15, 329780, Note_on_c, 6, 68, 83
15, 329969, Note_on_c, 6, 61, 0
15, 329971, Note_on_c, 6, 68, 0
15, 329972, Note_on_c, 6, 72, 0
15, 329972, Note_on_c, 6, 68, 0
15, 330011, Note_on_c, 6, 61, 93
15, 330020, Note_on_c, 6, 68, 98
15, 330025, Note_on_c, 6, 72, 87
15, 330203, Note_on_c, 6, 61, 0
15, 330212, Note_on_c, 6, 68, 0
15, 330217, Note_on_c, 6, 72, 0
15, 330240, Note_on_c, 6, 72, 83
15, 330244, Note_on_c, 6, 61, 83
15, 330250, Note_on_c, 6, 68, 90
15, 330429, Note_on_c, 6, 72, 0
15, 330433, Note_on_c, 6, 61, 0
15, 330439, Note_on_c, 6, 68, 0
15, 330481, Note_on_c, 6, 65, 89
15, 330486, Note_on_c, 6, 69, 95
15, 330487, Note_on_c, 6, 58, 79
15, 330673, Note_on_c, 6, 65, 0
15, 330678, Note_on_c, 6, 69, 0
15, 330679, Note_on_c, 6, 58, 0
15, 330726, Note_on_c, 6, 58, 93
15, 330731, Note_on_c, 6, 65, 94
15, 330738, Note_on_c, 6, 69, 87
15, 330918, Note_on_c, 6, 58, 0
15, 330923, Note_on_c, 6, 65, 0
15, 330930, Note_on_c, 6, 69, 0
15, 330968, Note_on_c, 6, 58, 94
15, 330983, Note_on_c, 6, 69, 86
15, 330985, Note_on_c, 6, 65, 94
15, 331157, Note_on_c, 6, 58, 0
15, 331172, Note_on_c, 6, 69, 0
15, 331174, Note_on_c, 6, 65, 0
15, 331944, Note_on_c, 6, 65, 82
15, 332064, Note_on_c, 6, 65, 0
15, 332165, Note_on_c, 6, 70, 92
15, 332285, Note_on_c, 6, 70, 0
15, 332408, Note_on_c, 6, 65, 89
15, 332528, Note_on_c, 6, 65, 0
15, 332647, Note_on_c, 6, 70, 84
15, 332767, Note_on_c, 6, 70, 0
15, 332880, Note_on_c, 6, 72, 89
15, 333000, Note_on_c, 6, 72, 0
15, 333128, Note_on_c, 6, 75, 87
15, 333248, Note_on_c, 6, 75, 0
15, 333360, Note_on_c, 6, 74, 95
15, 333480, Note_on_c, 6, 74, 0
15, 333620, Note_on_c, 6, 72, 85
15, 333740, Note_on_c, 6, 72, 0
15, 333856, Note_on_c, 6, 70, 85
15, 333976, Note_on_c, 6, 70, 0
15, 334088, Note_on_c, 6, 65, 98
15, 334208, Note_on_c, 6, 65, 0
15, 335059, Note_on_c, 6, 70, 80
15, 335179, Note_on_c, 6, 70, 0
15, 335304, Note_on_c, 6, 65, 96
15, 335424, Note_on_c, 6, 65, 0
15, 335531, Note_on_c, 6, 70, 90
15, 335651, Note_on_c, 6, 70, 0
15, 335779, Note_on_c, 6, 72, 81
15, 335899, Note_on_c, 6, 72, 0
15, 336006, Note_on_c, 6, 75, 95
15, 336126, Note_on_c, 6, 75, 0
15, 336260, Note_on_c, 6, 74, 85
15, 336380, Note_on_c, 6, 74, 0
15, 336496, Note_on_c, 6, 72, 84
15, 336616, Note_on_c, 6, 72, 0
15, 336732, Note_on_c, 6, 70, 83
15, 336852, Note_on_c, 6, 70, 0
15, 336972, Note_on_c, 6, 65, 87
15, 337092, Note_on_c, 6, 65, 0
15, 337210, Note_on_c, 6, 70, 79
15, 337330, Note_on_c, 6, 70, 0
15, 337458, Note_on_c, 6, 75, 85
15, 337578, Note_on_c, 6, 75, 0
15, 337694, Note_on_c, 6, 74, 90
15, 337814, Note_on_c, 6, 74, 0
15, 337943, Note_on_c, 6, 72, 96
15, 338063, Note_on_c, 6, 72, 0
15, 338179, Note_on_c, 6, 70, 98
15, 338299, Note_on_c, 6, 70, 0
15, 338401, Note_on_c, 6, 65, 86
15, 338521, Note_on_c, 6, 65, 0
15, 338647, Note_on_c, 6, 67, 81
15, 338767, Note_on_c, 6, 67, 0
15, 338898, Note_on_c, 6, 70, 84
15, 339018, Note_on_c, 6, 70, 0
15, 339136, Note_on_c, 6, 68, 82
15, 339256, Note_on_c, 6, 68, 0
15, 339361, Note_on_c, 6, 65, 98
15, 339481, Note_on_c, 6, 65, 0
15, 339610, Note_on_c, 6, 65, 92
15, 339730, Note_on_c, 6, 65, 0
15, 354245, Note_on_c, 6, 77, 102
15, 354249, Note_on_c, 6, 72, 88
15, 354249, Note_on_c, 6, 68, 101
15, 354260, Note_on_c, 6, 80, 91
15, 354388, Note_on_c, 6, 77, 0
15, 354392, Note_on_c, 6, 72, 0
15, 354392, Note_on_c, 6, 68, 0
15, 354403, Note_on_c, 6, 80, 0
15, 355689, Note_on_c, 6, 77, 104
15, 355693, Note_on_c, 6, 80, 99
15, 355696, Note_on_c, 6, 68, 101
15, 355699, Note_on_c, 6, 72, 97
15, 355832, Note_on_c, 6, 77, 0
15, 355836, Note_on_c, 6, 80, 0
15, 355839, Note_on_c, 6, 68, 0
15, 355842, Note_on_c, 6, 72, 0
15, 357120, Note_on_c, 6, 77, 102
15, 357123, Note_on_c, 6, 68, 104
15, 357125, Note_on_c, 6, 72, 93
15, 357144, Note_on_c, 6, 80, 85
15, 357263, Note_on_c, 6, 77, 0
15, 357266, Note_on_c, 6, 68, 0
15, 357268, Note_on_c, 6, 72, 0
15, 357287, Note_on_c, 6, 80, 0
15, 358081, Note_on_c, 6, 68, 92
15, 358085, Note_on_c, 6, 77, 85
15, 358088, Note_on_c, 6, 72, 105
15, 358097, Note_on_c, 6, 80, 103
15, 358224, Note_on_c, 6, 68, 0
15, 358228, Note_on_c, 6, 77, 0
15, 358231, Note_on_c, 6, 72, 0
15, 358240, Note_on_c, 6, 80, 0
15, 434401, Note_on_c, 6, 63, 101
15, 434404, Note_on_c, 6, 66, 112
15, 434419, Note_on_c, 6, 78, 107
15, 434420, Note_on_c, 6, 70, 106
15, 434425, Note_on_c, 6, 73, 112
15, 434640, Note_on_c, 6, 61, 95
15, 434641, Note_on_c, 6, 63, 0
15, 434644, Note_on_c, 6, 66, 0
15, 434651, Note_on_c, 6, 64, 97
15, 434657, Note_on_c, 6, 76, 98
15, 434659, Note_on_c, 6, 78, 0
15, 434660, Note_on_c, 6, 70, 0
15, 434660, Note_on_c, 6, 68, 114
15, 434662, Note_on_c, 6, 71, 110
15, 434665, Note_on_c, 6, 73, 0
15, 434880, Note_on_c, 6, 61, 0
15, 434891, Note_on_c, 6, 64, 0
15, 434897, Note_on_c, 6, 76, 0
15, 434900, Note_on_c, 6, 68, 0
15, 434902, Note_on_c, 6, 71, 0
15, 436810, Note_on_c, 6, 67, 82
15, 436813, Note_on_c, 6, 70, 80
15, 436825, Note_on_c, 6, 70, 85
15, 437170, Note_on_c, 6, 67, 0
15, 437173, Note_on_c, 6, 70, 0
15, 437185, Note_on_c, 6, 70, 0
15, 437287, Note_on_c, 6, 67, 88
15, 437288, Note_on_c, 6, 73, 100
15, 437294, Note_on_c, 6, 70, 89
15, 437647, Note_on_c, 6, 67, 0
15, 437648, Note_on_c, 6, 73, 0
15, 437654, Note_on_c, 6, 70, 0
15, 437770, Note_on_c, 6, 70, 99
15, 437783, Note_on_c, 6, 67, 111
15, 437783, Note_on_c, 6, 78, 94
15, 437785, Note_on_c, 6, 73, 92
15, 438130, Note_on_c, 6, 70, 0
15, 438143, Note_on_c, 6, 67, 0
15, 438143, Note_on_c, 6, 78, 0
15, 438145, Note_on_c, 6, 73, 0
15, 438735, Note_on_c, 6, 77, 106
15, 438737, Note_on_c, 6, 74, 100
15, 438745, Note_on_c, 6, 82, 96
15, 438745, Note_on_c, 6, 71, 92
15, 439095, Note_on_c, 6, 77, 0
15, 439097, Note_on_c, 6, 74, 0
15, 439105, Note_on_c, 6, 82, 0
15, 439105, Note_on_c, 6, 71, 0
15, 439205, Note_on_c, 6, 71, 110
15, 439206, Note_on_c, 6, 77, 94
15, 439212, Note_on_c, 6, 74, 97
15, 439214, Note_on_c, 6, 82, 92
15, 439565, Note_on_c, 6, 71, 0
15, 439566, Note_on_c, 6, 77, 0
15, 439572, Note_on_c, 6, 74, 0
15, 439574, Note_on_c, 6, 82, 0
15, 439689, Note_on_c, 6, 82, 108
15, 439690, Note_on_c, 6, 74, 102
15, 439698, Note_on_c, 6, 77, 91
15, 439705, Note_on_c, 6, 71, 97
15, 440049, Note_on_c, 6, 82, 0
15, 440050, Note_on_c, 6, 74, 0
15, 440058, Note_on_c, 6, 77, 0
15, 440065, Note_on_c, 6, 71, 0
15, 440163, Note_on_c, 6, 74, 103
15, 440178, Note_on_c, 6, 71, 107
15, 440178, Note_on_c, 6, 82, 92
15, 440181, Note_on_c, 6, 77, 98
15, 440643, Note_on_c, 6, 74, 0
15, 440649, Note_on_c, 6, 76, 93
15, 440652, Note_on_c, 6, 73, 93
15, 440654, Note_on_c, 6, 70, 109
15, 440655, Note_on_c, 6, 79, 100
15, 440658, Note_on_c, 6, 71, 0
15, 440658, Note_on_c, 6, 82, 0
15, 440661, Note_on_c, 6, 77, 0
15, 441128, Note_on_c, 6, 75, 92
15, 441129, Note_on_c, 6, 76, 0
15, 441132, Note_on_c, 6, 73, 0
15, 441132, Note_on_c, 6, 72, 104
15, 441134, Note_on_c, 6, 70, 0
15, 441135, Note_on_c, 6, 79, 0
15, 441138, Note_on_c, 6, 80, 96
15, 441142, Note_on_c, 6, 69, 107
15, 441606, Note_on_c, 6, 70, 115
15, 441607, Note_on_c, 6, 76, 99
15, 441608, Note_on_c, 6, 75, 0
15, 441612, Note_on_c, 6, 72, 0
15, 441613, Note_on_c, 6, 73, 106
15, 441618, Note_on_c, 6, 80, 0
15, 441621, Note_on_c, 6, 61, 109
15, 441622, Note_on_c, 6, 69, 0
15, 441625, Note_on_c, 6, 82, 106
15, 441846, Note_on_c, 6, 70, 0
15, 441847, Note_on_c, 6, 76, 0
15, 441851, Note_on_c, 6, 80, 97
15, 441853, Note_on_c, 6, 73, 0
15, 441856, Note_on_c, 6, 72, 104
15, 441861, Note_on_c, 6, 61, 0
15, 441861, Note_on_c, 6, 75, 105
15, 441864, Note_on_c, 6, 69, 98
15, 441865, Note_on_c, 6, 82, 0
15, 441865, Note_on_c, 6, 60, 95
15, 442085, Note_on_c, 6, 78, 110
15, 442088, Note_on_c, 6, 83, 109
15, 442091, Note_on_c, 6, 80, 0
15, 442094, Note_on_c, 6, 71, 109
15, 442096, Note_on_c, 6, 72, 0
15, 442100, Note_on_c, 6, 75, 98
15, 442101, Note_on_c, 6, 75, 0
15, 442104, Note_on_c, 6, 69, 0
15, 442105, Note_on_c, 6, 60, 0
15, 442445, Note_on_c, 6, 78, 0
15, 442448, Note_on_c, 6, 83, 0
15, 442454, Note_on_c, 6, 71, 0
15, 442460, Note_on_c, 6, 75, 0
15, 442568, Note_on_c, 6, 73, 96
15, 442579, Note_on_c, 6, 70, 109
15, 442584, Note_on_c, 6, 81, 115
15, 442585, Note_on_c, 6, 76, 96
15, 442928, Note_on_c, 6, 73, 0
15, 442939, Note_on_c, 6, 70, 0
15, 442944, Note_on_c, 6, 81, 0
15, 442945, Note_on_c, 6, 76, 0
15, 443048, Note_on_c, 6, 71, 113
15, 443054, Note_on_c, 6, 69, 109
15, 443058, Note_on_c, 6, 80, 109
15, 443062, Note_on_c, 6, 75, 98
15, 443408, Note_on_c, 6, 71, 0
15, 443414, Note_on_c, 6, 69, 0
15, 443418, Note_on_c, 6, 80, 0
15, 443422, Note_on_c, 6, 75, 0
15, 443520, Note_on_c, 6, 77, 109
15, 443534, Note_on_c, 6, 83, 100
15, 443534, Note_on_c, 6, 71, 105
15, 443543, Note_on_c, 6, 74, 103
15, 444000, Note_on_c, 6, 77, 0
15, 444000, Note_on_c, 6, 73, 104
15, 444004, Note_on_c, 6, 70, 98
15, 444009, Note_on_c, 6, 81, 96
15, 444014, Note_on_c, 6, 83, 0
15, 444014, Note_on_c, 6, 71, 0
15, 444019, Note_on_c, 6, 76, 106
15, 444023, Note_on_c, 6, 74, 0
15, 444480, Note_on_c, 6, 73, 0
15, 444484, Note_on_c, 6, 70, 0
15, 444489, Note_on_c, 6, 81, 0
15, 444491, Note_on_c, 6, 72, 99
15, 444493, Note_on_c, 6, 75, 104
15, 444498, Note_on_c, 6, 80, 111
15, 444499, Note_on_c, 6, 76, 0
15, 444504, Note_on_c, 6, 69, 105
15, 444963, Note_on_c, 6, 73, 100
15, 444964, Note_on_c, 6, 76, 108
15, 444971, Note_on_c, 6, 72, 0
15, 444973, Note_on_c, 6, 75, 0
15, 444978, Note_on_c, 6, 80, 0
15, 444979, Note_on_c, 6, 81, 95
15, 444984, Note_on_c, 6, 69, 0
15, 444984, Note_on_c, 6, 70, 102
15, 444984, Note_on_c, 6, 61, 104
15, 445201, Note_on_c, 6, 72, 110
15, 445203, Note_on_c, 6, 73, 0
15, 445204, Note_on_c, 6, 76, 0
15, 445208, Note_on_c, 6, 75, 110
15, 445219, Note_on_c, 6, 81, 0
15, 445219, Note_on_c, 6, 79, 104
15, 445219, Note_on_c, 6, 60, 102
15, 445221, Note_on_c, 6, 69, 110
15, 445224, Note_on_c, 6, 70, 0
15, 445224, Note_on_c, 6, 61, 0
15, 445441, Note_on_c, 6, 72, 0
15, 445441, Note_on_c, 6, 73, 115
15, 445446, Note_on_c, 6, 66, 113
15, 445448, Note_on_c, 6, 75, 0
15, 445451, Note_on_c, 6, 66, 111
15, 445458, Note_on_c, 6, 78, 114
15, 445459, Note_on_c, 6, 79, 0
15, 445459, Note_on_c, 6, 60, 0
15, 445461, Note_on_c, 6, 69, 0
15, 445461, Note_on_c, 6, 70, 116
15, 445921, Note_on_c, 6, 73, 0
15, 445926, Note_on_c, 6, 66, 0
15, 445931, Note_on_c, 6, 66, 0
15, 445937, Note_on_c, 6, 65, 115
15, 445938, Note_on_c, 6, 78, 0
15, 445938, Note_on_c, 6, 72, 113
15, 445939, Note_on_c, 6, 64, 105
15, 445940, Note_on_c, 6, 76, 111
15, 445941, Note_on_c, 6, 70, 0
15, 445944, Note_on_c, 6, 68, 118
15, 446400, Note_on_c, 6, 64, 106
15, 446401, Note_on_c, 6, 72, 115
15, 446403, Note_on_c, 6, 66, 107
15, 446414, Note_on_c, 6, 61, 107
15, 446417, Note_on_c, 6, 65, 0
15, 446418, Note_on_c, 6, 72, 0
15, 446419, Note_on_c, 6, 64, 0
15, 446420, Note_on_c, 6, 76, 0
15, 446424, Note_on_c, 6, 68, 0
15, 446425, Note_on_c, 6, 60, 114
15, 447360, Note_on_c, 6, 64, 0
15, 447361, Note_on_c, 6, 72, 0
15, 447363, Note_on_c, 6, 66, 0
15, 447374, Note_on_c, 6, 61, 0
15, 447385, Note_on_c, 6, 60, 0
15, 448801, Note_on_c, 6, 67, 89
15, 448804, Note_on_c, 6, 75, 100
15, 448813, Note_on_c, 6, 72, 100
15, 448823, Note_on_c, 6, 79, 97
15, 448944, Note_on_c, 6, 67, 0
15, 448947, Note_on_c, 6, 75, 0
15, 448956, Note_on_c, 6, 72, 0
15, 448966, Note_on_c, 6, 79, 0
15, 455048, Note_on_c, 6, 83, 89
15, 455050, Note_on_c, 6, 71, 87
15, 455051, Note_on_c, 6, 72, 96
15, 455065, Note_on_c, 6, 75, 103
15, 455191, Note_on_c, 6, 83, 0
15, 455193, Note_on_c, 6, 71, 0
15, 455194, Note_on_c, 6, 72, 0
15, 455208, Note_on_c, 6, 75, 0
15, 455529, Note_on_c, 6, 75, 102
15, 455530, Note_on_c, 6, 72, 93
15, 455533, Note_on_c, 6, 67, 89
15, 455539, Note_on_c, 6, 79, 104
15, 455672, Note_on_c, 6, 75, 0
15, 455673, Note_on_c, 6, 72, 0
15, 455676, Note_on_c, 6, 67, 0
15, 455682, Note_on_c, 6, 79, 0
15, 457922, Note_on_c, 6, 79, 91
15, 457937, Note_on_c, 6, 75, 91
15, 457943, Note_on_c, 6, 67, 80
15, 457943, Note_on_c, 6, 68, 82
15, 458113, Note_on_c, 6, 79, 0
15, 458128, Note_on_c, 6, 75, 0
15, 458134, Note_on_c, 6, 67, 0
15, 458134, Note_on_c, 6, 68, 0
15, 458402, Note_on_c, 6, 76, 87
15, 458409, Note_on_c, 6, 64, 98
15, 458413, Note_on_c, 6, 65, 85
15, 458415, Note_on_c, 6, 72, 78
15, 458593, Note_on_c, 6, 76, 0
15, 458600, Note_on_c, 6, 64, 0
15, 458604, Note_on_c, 6, 65, 0
15, 458606, Note_on_c, 6, 72, 0
15, 458889, Note_on_c, 6, 79, 98
15, 458890, Note_on_c, 6, 75, 80
15, 458895, Note_on_c, 6, 68, 89
15, 458899, Note_on_c, 6, 67, 90
15, 459080, Note_on_c, 6, 79, 0
15, 459081, Note_on_c, 6, 75, 0
15, 459086, Note_on_c, 6, 68, 0
15, 459090, Note_on_c, 6, 67, 0
15, 459361, Note_on_c, 6, 64, 90
15, 459369, Note_on_c, 6, 72, 90
15, 459376, Note_on_c, 6, 65, 83
15, 459377, Note_on_c, 6, 76, 88
15, 459552, Note_on_c, 6, 64, 0
15, 459560, Note_on_c, 6, 72, 0
15, 459567, Note_on_c, 6, 65, 0
15, 459568, Note_on_c, 6, 76, 0
15, 459842, Note_on_c, 6, 67, 89
15, 459843, Note_on_c, 6, 75, 89
15, 459847, Note_on_c, 6, 79, 86
15, 459864, Note_on_c, 6, 68, 83
15, 460033, Note_on_c, 6, 67, 0
15, 460034, Note_on_c, 6, 75, 0
15, 460038, Note_on_c, 6, 79, 0
15, 460055, Note_on_c, 6, 68, 0
15, 460320, Note_on_c, 6, 64, 79
15, 460322, Note_on_c, 6, 72, 79
15, 460328, Note_on_c, 6, 76, 91
15, 460330, Note_on_c, 6, 65, 96
15, 460511, Note_on_c, 6, 64, 0
15, 460513, Note_on_c, 6, 72, 0
15, 460519, Note_on_c, 6, 76, 0
15, 460521, Note_on_c, 6, 65, 0
15, 460802, Note_on_c, 6, 75, 80
15, 460806, Note_on_c, 6, 67, 79
15, 460817, Note_on_c, 6, 68, 80
15, 460823, Note_on_c, 6, 79, 82
15, 460993, Note_on_c, 6, 75, 0
15, 460997, Note_on_c, 6, 67, 0
15, 461008, Note_on_c, 6, 68, 0
15, 461014, Note_on_c, 6, 79, 0
15, 461286, Note_on_c, 6, 65, 97
15, 461289, Note_on_c, 6, 76, 80
15, 461295, Note_on_c, 6, 64, 95
15, 461297, Note_on_c, 6, 72, 83
15, 461477, Note_on_c, 6, 65, 0
15, 461480, Note_on_c, 6, 76, 0
15, 461486, Note_on_c, 6, 64, 0
15, 461488, Note_on_c, 6, 72, 0
15, 461765, Note_on_c, 6, 83, 87
15, 461768, Note_on_c, 6, 71, 93
15, 461776, Note_on_c, 6, 75, 93
15, 461783, Note_on_c, 6, 72, 91
15, 461908, Note_on_c, 6, 83, 0
15, 461911, Note_on_c, 6, 71, 0
15, 461919, Note_on_c, 6, 75, 0
15, 461926, Note_on_c, 6, 72, 0
15, 466081, Note_on_c, 6, 75, 90
15, 466082, Note_on_c, 6, 71, 85
15, 466090, Note_on_c, 6, 72, 105
15, 466092, Note_on_c, 6, 83, 87
15, 466224, Note_on_c, 6, 75, 0
15, 466225, Note_on_c, 6, 71, 0
15, 466233, Note_on_c, 6, 72, 0
15, 466235, Note_on_c, 6, 83, 0
15, 466565, Note_on_c, 6, 72, 90
15, 466569, Note_on_c, 6, 67, 102
15, 466582, Note_on_c, 6, 75, 95
15, 466585, Note_on_c, 6, 79, 101
15, 466708, Note_on_c, 6, 72, 0
15, 466712, Note_on_c, 6, 67, 0
15, 466725, Note_on_c, 6, 75, 0
15, 466728, Note_on_c, 6, 79, 0
15, 468965, Note_on_c, 6, 72, 99
15, 468966, Note_on_c, 6, 71, 99
15, 468976, Note_on_c, 6, 75, 99
15, 468981, Note_on_c, 6, 83, 99
15, 469108, Note_on_c, 6, 72, 0
15, 469109, Note_on_c, 6, 71, 0
15, 469119, Note_on_c, 6, 75, 0
15, 469124, Note_on_c, 6, 83, 0
15, 497289, Note_on_c, 6, 68, 88
15, 497293, Note_on_c, 6, 69, 66
15, 497653, Note_on_c, 6, 69, 0
15, 497769, Note_on_c, 6, 67, 81
15, 497889, Note_on_c, 6, 67, 0
15, 498005, Note_on_c, 6, 69, 67
15, 498125, Note_on_c, 6, 69, 0
15, 498249, Note_on_c, 6, 68, 0
15, 498265, Note_on_c, 6, 64, 66
15, 498385, Note_on_c, 6, 64, 0
15, 498491, Note_on_c, 6, 65, 67
15, 498611, Note_on_c, 6, 65, 0
15, 498735, Note_on_c, 6, 64, 84
15, 498855, Note_on_c, 6, 64, 0
15, 498975, Note_on_c, 6, 67, 72
15, 499095, Note_on_c, 6, 67, 0
15, 499220, Note_on_c, 6, 68, 106
15, 499221, Note_on_c, 6, 65, 85
15, 499341, Note_on_c, 6, 65, 0
15, 499411, Note_on_c, 6, 68, 0
15, 499458, Note_on_c, 6, 69, 68
15, 499578, Note_on_c, 6, 69, 0
15, 499705, Note_on_c, 6, 64, 69
15, 499825, Note_on_c, 6, 64, 0
15, 499931, Note_on_c, 6, 65, 80
15, 500051, Note_on_c, 6, 65, 0
15, 500174, Note_on_c, 6, 64, 84
15, 500294, Note_on_c, 6, 64, 0
15, 500403, Note_on_c, 6, 67, 74
15, 500523, Note_on_c, 6, 67, 0
15, 503534, Note_on_c, 6, 69, 73
15, 503542, Note_on_c, 6, 68, 95
15, 503894, Note_on_c, 6, 69, 0
15, 504022, Note_on_c, 6, 67, 80
15, 504142, Note_on_c, 6, 67, 0
15, 504247, Note_on_c, 6, 69, 73
15, 504367, Note_on_c, 6, 69, 0
15, 504494, Note_on_c, 6, 64, 79
15, 504502, Note_on_c, 6, 68, 0
15, 504614, Note_on_c, 6, 64, 0
15, 504731, Note_on_c, 6, 65, 74
15, 504851, Note_on_c, 6, 65, 0
15, 504964, Note_on_c, 6, 64, 84
15, 505084, Note_on_c, 6, 64, 0
15, 505219, Note_on_c, 6, 67, 78
15, 505339, Note_on_c, 6, 67, 0
15, 505451, Note_on_c, 6, 68, 105
15, 505462, Note_on_c, 6, 65, 77
15, 505582, Note_on_c, 6, 65, 0
15, 505642, Note_on_c, 6, 68, 0
15, 505692, Note_on_c, 6, 69, 65
15, 505812, Note_on_c, 6, 69, 0
15, 505926, Note_on_c, 6, 64, 71
15, 506046, Note_on_c, 6, 64, 0
15, 506182, Note_on_c, 6, 65, 71
15, 506302, Note_on_c, 6, 65, 0
15, 506402, Note_on_c, 6, 64, 66
15, 506522, Note_on_c, 6, 64, 0
15, 506653, Note_on_c, 6, 67, 81
15, 506773, Note_on_c, 6, 67, 0
15, 506890, Note_on_c, 6, 69, 69
15, 506904, Note_on_c, 6, 68, 89
15, 507250, Note_on_c, 6, 69, 0
15, 507380, Note_on_c, 6, 67, 79
15, 507500, Note_on_c, 6, 67, 0
15, 507601, Note_on_c, 6, 69, 65
15, 507721, Note_on_c, 6, 69, 0
15, 507852, Note_on_c, 6, 64, 84
15, 507864, Note_on_c, 6, 68, 0
15, 507972, Note_on_c, 6, 64, 0
15, 508090, Note_on_c, 6, 65, 78
15, 508210, Note_on_c, 6, 65, 0
15, 508337, Note_on_c, 6, 64, 66
15, 508457, Note_on_c, 6, 64, 0
15, 508564, Note_on_c, 6, 67, 66
15, 508684, Note_on_c, 6, 67, 0
15, 532339, Note_on_c, 6, 75, 68
15, 533295, Note_on_c, 6, 76, 70
15, 533299, Note_on_c, 6, 75, 0
15, 534255, Note_on_c, 6, 76, 0
15, 534257, Note_on_c, 6, 75, 53
15, 535217, Note_on_c, 6, 75, 0
15, 535220, Note_on_c, 6, 76, 58
15, 536171, Note_on_c, 6, 75, 56
15, 536180, Note_on_c, 6, 76, 0
15, 537130, Note_on_c, 6, 76, 57
15, 537131, Note_on_c, 6, 75, 0
15, 537610, Note_on_c, 6, 76, 0
15, 545760, Program_c, 6, 59
15, 545774, Note_on_c, 6, 71, 87
15, 545778, Note_on_c, 6, 67, 89
15, 546009, Note_on_c, 6, 72, 88
15, 546012, Note_on_c, 6, 69, 70
15, 546014, Note_on_c, 6, 71, 0
15, 546018, Note_on_c, 6, 67, 0
15, 546242, Note_on_c, 6, 74, 84
15, 546249, Note_on_c, 6, 72, 0
15, 546250, Note_on_c, 6, 71, 75
15, 546252, Note_on_c, 6, 69, 0
15, 546962, Note_on_c, 6, 74, 0
15, 546970, Note_on_c, 6, 71, 0
15, 546979, Note_on_c, 6, 72, 73
15, 546983, Note_on_c, 6, 69, 77
15, 547206, Note_on_c, 6, 71, 73
15, 547211, Note_on_c, 6, 67, 82
15, 547219, Note_on_c, 6, 72, 0
15, 547223, Note_on_c, 6, 69, 0
15, 547446, Note_on_c, 6, 71, 0
15, 547446, Note_on_c, 6, 65, 85
15, 547449, Note_on_c, 6, 69, 78
15, 547451, Note_on_c, 6, 67, 0
15, 547682, Note_on_c, 6, 67, 77
15, 547686, Note_on_c, 6, 65, 0
15, 547689, Note_on_c, 6, 69, 0
15, 547691, Note_on_c, 6, 71, 89
15, 547922, Note_on_c, 6, 67, 0
15, 547926, Note_on_c, 6, 69, 77
15, 547930, Note_on_c, 6, 72, 71
15, 547931, Note_on_c, 6, 71, 0
15, 548160, Note_on_c, 6, 74, 76
15, 548166, Note_on_c, 6, 69, 0
15, 548170, Note_on_c, 6, 72, 0
15, 548171, Note_on_c, 6, 71, 72
15, 548880, Note_on_c, 6, 74, 0
15, 548885, Note_on_c, 6, 69, 76
15, 548891, Note_on_c, 6, 71, 0
15, 548900, Note_on_c, 6, 72, 69
15, 549125, Note_on_c, 6, 69, 0
15, 549136, Note_on_c, 6, 71, 84
15, 549140, Note_on_c, 6, 72, 0
15, 549145, Note_on_c, 6, 67, 78
15, 549364, Note_on_c, 6, 65, 78
15, 549376, Note_on_c, 6, 71, 0
15, 549377, Note_on_c, 6, 69, 69
15, 549385, Note_on_c, 6, 67, 0
15, 549601, Note_on_c, 6, 71, 73
15, 549604, Note_on_c, 6, 65, 0
15, 549604, Note_on_c, 6, 67, 85
15, 549617, Note_on_c, 6, 69, 0
15, 549841, Note_on_c, 6, 71, 0
15, 549844, Note_on_c, 6, 67, 0
15, 549846, Note_on_c, 6, 69, 79
15, 549849, Note_on_c, 6, 72, 89
15, 550080, Note_on_c, 6, 71, 72
15, 550080, Note_on_c, 6, 74, 75
15, 550086, Note_on_c, 6, 69, 0
15, 550089, Note_on_c, 6, 72, 0
15, 550560, Note_on_c, 6, 71, 0
15, 550560, Note_on_c, 6, 74, 0
15, 550569, Note_on_c, 6, 69, 75
15, 550576, Note_on_c, 6, 72, 82
15, 550809, Note_on_c, 6, 69, 0
15, 550811, Note_on_c, 6, 71, 83
15, 550816, Note_on_c, 6, 72, 0
15, 550821, Note_on_c, 6, 67, 70
15, 551051, Note_on_c, 6, 71, 0
15, 551059, Note_on_c, 6, 69, 78
15, 551060, Note_on_c, 6, 65, 88
15, 551061, Note_on_c, 6, 67, 0
15, 551525, Note_on_c, 6, 67, 81
15, 551527, Note_on_c, 6, 71, 86
15, 551539, Note_on_c, 6, 69, 0
15, 551540, Note_on_c, 6, 65, 0
15, 551765, Note_on_c, 6, 67, 0
15, 551767, Note_on_c, 6, 71, 0
15, 551774, Note_on_c, 6, 69, 75
15, 551783, Note_on_c, 6, 72, 83
15, 552004, Note_on_c, 6, 71, 74
15, 552014, Note_on_c, 6, 69, 0
15, 552017, Note_on_c, 6, 74, 72
15, 552023, Note_on_c, 6, 72, 0
15, 552244, Note_on_c, 6, 71, 0
15, 552257, Note_on_c, 6, 74, 0
15, 561600, Program_c, 6, 56
15, 561606, Note_on_c, 6, 75, 102
15, 561608, Note_on_c, 6, 79, 100
15, 561616, Note_on_c, 6, 70, 87
15, 561846, Note_on_c, 6, 75, 0
15, 561848, Note_on_c, 6, 79, 0
15, 561856, Note_on_c, 6, 70, 0
15, 565446, Note_on_c, 6, 75, 87
15, 565446, Note_on_c, 6, 70, 98
15, 565453, Note_on_c, 6, 79, 86
15, 565566, Note_on_c, 6, 75, 0
15, 565566, Note_on_c, 6, 70, 0
15, 565573, Note_on_c, 6, 79, 0
15, 566401, Note_on_c, 6, 65, 94
15, 566405, Note_on_c, 6, 62, 80
15, 566418, Note_on_c, 6, 69, 92
15, 566521, Note_on_c, 6, 65, 0
15, 566525, Note_on_c, 6, 62, 0
15, 566538, Note_on_c, 6, 69, 0
15, 566641, Note_on_c, 6, 63, 78
15, 566652, Note_on_c, 6, 67, 79
15, 566665, Note_on_c, 6, 70, 95
15, 566761, Note_on_c, 6, 63, 0
15, 566772, Note_on_c, 6, 67, 0
15, 566785, Note_on_c, 6, 70, 0
15, 566886, Note_on_c, 6, 74, 81
15, 566894, Note_on_c, 6, 65, 94
15, 566899, Note_on_c, 6, 69, 84
15, 567006, Note_on_c, 6, 74, 0
15, 567014, Note_on_c, 6, 65, 0
15, 567019, Note_on_c, 6, 69, 0
15, 567129, Note_on_c, 6, 77, 87
15, 567131, Note_on_c, 6, 69, 83
15, 567143, Note_on_c, 6, 74, 92
15, 567249, Note_on_c, 6, 77, 0
15, 567251, Note_on_c, 6, 69, 0
15, 567263, Note_on_c, 6, 74, 0
15, 567363, Note_on_c, 6, 75, 96
15, 567371, Note_on_c, 6, 75, 82
15, 567383, Note_on_c, 6, 70, 89
15, 567483, Note_on_c, 6, 75, 0
15, 567491, Note_on_c, 6, 75, 0
15, 567503, Note_on_c, 6, 70, 0
15, 567601, Note_on_c, 6, 75, 91
15, 567615, Note_on_c, 6, 70, 97
15, 567619, Note_on_c, 6, 79, 98
15, 567721, Note_on_c, 6, 75, 0
15, 567735, Note_on_c, 6, 70, 0
15, 567739, Note_on_c, 6, 79, 0
15, 567844, Note_on_c, 6, 69, 104
15, 567857, Note_on_c, 6, 74, 115
15, 567863, Note_on_c, 6, 65, 102
15, 567964, Note_on_c, 6, 69, 0
15, 567977, Note_on_c, 6, 74, 0
15, 567983, Note_on_c, 6, 65, 0
15, 568095, Note_on_c, 6, 67, 88
15, 568101, Note_on_c, 6, 70, 91
15, 568105, Note_on_c, 6, 75, 87
15, 568215, Note_on_c, 6, 67, 0
15, 568221, Note_on_c, 6, 70, 0
15, 568225, Note_on_c, 6, 75, 0
15, 568321, Note_on_c, 6, 65, 93
15, 568325, Note_on_c, 6, 74, 92
15, 568343, Note_on_c, 6, 69, 85
15, 568441, Note_on_c, 6, 65, 0
15, 568445, Note_on_c, 6, 74, 0
15, 568463, Note_on_c, 6, 69, 0
15, 568568, Note_on_c, 6, 77, 87
15, 568580, Note_on_c, 6, 69, 82
15, 568581, Note_on_c, 6, 74, 95
15, 568688, Note_on_c, 6, 77, 0
15, 568700, Note_on_c, 6, 69, 0
15, 568701, Note_on_c, 6, 74, 0
15, 568807, Note_on_c, 6, 70, 97
15, 568811, Note_on_c, 6, 79, 89
15, 568812, Note_on_c, 6, 75, 95
15, 568927, Note_on_c, 6, 70, 0
15, 568931, Note_on_c, 6, 79, 0
15, 568932, Note_on_c, 6, 75, 0
15, 569760, Note_on_c, 6, 62, 78
15, 569774, Note_on_c, 6, 65, 92
15, 569782, Note_on_c, 6, 69, 91
15, 569880, Note_on_c, 6, 62, 0
15, 569894, Note_on_c, 6, 65, 0
15, 569902, Note_on_c, 6, 69, 0
15, 570010, Note_on_c, 6, 63, 95
15, 570021, Note_on_c, 6, 70, 82
15, 570021, Note_on_c, 6, 67, 78
15, 570130, Note_on_c, 6, 63, 0
15, 570141, Note_on_c, 6, 70, 0
15, 570141, Note_on_c, 6, 67, 0
15, 570243, Note_on_c, 6, 69, 95
15, 570243, Note_on_c, 6, 65, 84
15, 570248, Note_on_c, 6, 74, 86
15, 570363, Note_on_c, 6, 69, 0
15, 570363, Note_on_c, 6, 65, 0
15, 570368, Note_on_c, 6, 74, 0
15, 570484, Note_on_c, 6, 74, 79
15, 570485, Note_on_c, 6, 69, 90
15, 570493, Note_on_c, 6, 77, 81
15, 570604, Note_on_c, 6, 74, 0
15, 570605, Note_on_c, 6, 69, 0
15, 570613, Note_on_c, 6, 77, 0
15, 571683, Note_on_c, 6, 84, 83
15, 571692, Note_on_c, 6, 80, 93
15, 571704, Note_on_c, 6, 75, 87
15, 572883, Note_on_c, 6, 84, 0
15, 572892, Note_on_c, 6, 80, 0
15, 572904, Note_on_c, 6, 75, 0
15, 574561, Note_on_c, 6, 75, 95
15, 574566, Note_on_c, 6, 84, 89
15, 574573, Note_on_c, 6, 80, 97
15, 575761, Note_on_c, 6, 75, 0
15, 575766, Note_on_c, 6, 84, 0
15, 575773, Note_on_c, 6, 80, 0
15, 576001, Note_on_c, 6, 65, 88
15, 576002, Note_on_c, 6, 62, 91
15, 576023, Note_on_c, 6, 71, 80
15, 576144, Note_on_c, 6, 65, 0
15, 576145, Note_on_c, 6, 62, 0
15, 576166, Note_on_c, 6, 71, 0
15, 576480, Note_on_c, 6, 63, 95
15, 576491, Note_on_c, 6, 72, 91
15, 576496, Note_on_c, 6, 70, 96
15, 576623, Note_on_c, 6, 63, 0
15, 576634, Note_on_c, 6, 72, 0
15, 576639, Note_on_c, 6, 70, 0
15, 576965, Note_on_c, 6, 62, 88
15, 576982, Note_on_c, 6, 71, 88
15, 576982, Note_on_c, 6, 65, 88
15, 577108, Note_on_c, 6, 62, 0
15, 577125, Note_on_c, 6, 71, 0
15, 577125, Note_on_c, 6, 65, 0
15, 579361, Note_on_c, 6, 72, 94
15, 579365, Note_on_c, 6, 70, 78
15, 579377, Note_on_c, 6, 63, 88
15, 579504, Note_on_c, 6, 72, 0
15, 579508, Note_on_c, 6, 70, 0
15, 579520, Note_on_c, 6, 63, 0
15, 579852, Note_on_c, 6, 65, 82
15, 579855, Note_on_c, 6, 62, 91
15, 579864, Note_on_c, 6, 71, 79
15, 579995, Note_on_c, 6, 65, 0
15, 579998, Note_on_c, 6, 62, 0
15, 580007, Note_on_c, 6, 71, 0
15, 588000, Note_on_c, 6, 77, 85
15, 588009, Note_on_c, 6, 69, 92
15, 588018, Note_on_c, 6, 74, 101
15, 588019, Note_on_c, 6, 81, 96
15, 588191, Note_on_c, 6, 77, 0
15, 588200, Note_on_c, 6, 69, 0
15, 588209, Note_on_c, 6, 74, 0
15, 588210, Note_on_c, 6, 81, 0
15, 588960, Note_on_c, 6, 81, 94
15, 588965, Note_on_c, 6, 69, 95
15, 588971, Note_on_c, 6, 77, 88
15, 588977, Note_on_c, 6, 74, 99
15, 589151, Note_on_c, 6, 81, 0
15, 589156, Note_on_c, 6, 69, 0
15, 589162, Note_on_c, 6, 77, 0
15, 589168, Note_on_c, 6, 74, 0
15, 590400, Note_on_c, 6, 81, 94
15, 590400, Note_on_c, 6, 72, 91
15, 590400, Note_on_c, 6, 77, 92
15, 590440, Note_on_c, 6, 81, 0
15, 590440, Note_on_c, 6, 72, 0
15, 590440, Note_on_c, 6, 77, 0
15, 590480, Note_on_c, 6, 81, 82
15, 590480, Note_on_c, 6, 72, 97
15, 590480, Note_on_c, 6, 77, 79
15, 590519, Note_on_c, 6, 81, 0
15, 590519, Note_on_c, 6, 72, 0
15, 590519, Note_on_c, 6, 77, 0
15, 590559, Note_on_c, 6, 81, 92
15, 590559, Note_on_c, 6, 72, 87
15, 590559, Note_on_c, 6, 77, 91
15, 590599, Note_on_c, 6, 81, 0
15, 590599, Note_on_c, 6, 72, 0
15, 590599, Note_on_c, 6, 77, 0
15, 590640, Note_on_c, 6, 81, 86
15, 590640, Note_on_c, 6, 72, 92
15, 590640, Note_on_c, 6, 77, 83
15, 590680, Note_on_c, 6, 81, 0
15, 590680, Note_on_c, 6, 72, 0
15, 590680, Note_on_c, 6, 77, 0
15, 590720, Note_on_c, 6, 81, 89
15, 590720, Note_on_c, 6, 72, 87
15, 590720, Note_on_c, 6, 77, 98
15, 590759, Note_on_c, 6, 81, 0
15, 590759, Note_on_c, 6, 72, 0
15, 590759, Note_on_c, 6, 77, 0
15, 590799, Note_on_c, 6, 81, 97
15, 590799, Note_on_c, 6, 72, 84
15, 590799, Note_on_c, 6, 77, 96
15, 590839, Note_on_c, 6, 81, 0
15, 590839, Note_on_c, 6, 72, 0
15, 590839, Note_on_c, 6, 77, 0
15, 590880, Note_on_c, 6, 81, 95
15, 590880, Note_on_c, 6, 72, 83
15, 590880, Note_on_c, 6, 77, 80
15, 590920, Note_on_c, 6, 81, 0
15, 590920, Note_on_c, 6, 72, 0
15, 590920, Note_on_c, 6, 77, 0
15, 590960, Note_on_c, 6, 81, 85
15, 590960, Note_on_c, 6, 72, 88
15, 590960, Note_on_c, 6, 77, 89
15, 590999, Note_on_c, 6, 81, 0
15, 590999, Note_on_c, 6, 72, 0
15, 590999, Note_on_c, 6, 77, 0
15, 591039, Note_on_c, 6, 81, 97
15, 591039, Note_on_c, 6, 72, 79
15, 591039, Note_on_c, 6, 77, 82
15, 591079, Note_on_c, 6, 81, 0
15, 591079, Note_on_c, 6, 72, 0
15, 591079, Note_on_c, 6, 77, 0
15, 591120, Note_on_c, 6, 81, 81
15, 591120, Note_on_c, 6, 72, 94
15, 591120, Note_on_c, 6, 77, 78
15, 591160, Note_on_c, 6, 81, 0
15, 591160, Note_on_c, 6, 72, 0
15, 591160, Note_on_c, 6, 77, 0
15, 591200, Note_on_c, 6, 81, 80
15, 591200, Note_on_c, 6, 72, 78
15, 591200, Note_on_c, 6, 77, 88
15, 591239, Note_on_c, 6, 81, 0
15, 591239, Note_on_c, 6, 72, 0
15, 591239, Note_on_c, 6, 77, 0
15, 591279, Note_on_c, 6, 81, 98
15, 591279, Note_on_c, 6, 72, 82
15, 591279, Note_on_c, 6, 77, 78
15, 591319, Note_on_c, 6, 81, 0
15, 591319, Note_on_c, 6, 72, 0
15, 591319, Note_on_c, 6, 77, 0
15, 591360, Note_on_c, 6, 81, 94
15, 591360, Note_on_c, 6, 72, 81
15, 591360, Note_on_c, 6, 77, 89
15, 591400, Note_on_c, 6, 81, 0
15, 591400, Note_on_c, 6, 72, 0
15, 591400, Note_on_c, 6, 77, 0
15, 591440, Note_on_c, 6, 81, 82
15, 591440, Note_on_c, 6, 72, 79
15, 591440, Note_on_c, 6, 77, 91
15, 591479, Note_on_c, 6, 81, 0
15, 591479, Note_on_c, 6, 72, 0
15, 591479, Note_on_c, 6, 77, 0
15, 591519, Note_on_c, 6, 81, 82
15, 591519, Note_on_c, 6, 72, 96
15, 591519, Note_on_c, 6, 77, 93
15, 591559, Note_on_c, 6, 81, 0
15, 591559, Note_on_c, 6, 72, 0
15, 591559, Note_on_c, 6, 77, 0
15, 591600, Note_on_c, 6, 81, 90
15, 591600, Note_on_c, 6, 72, 81
15, 591600, Note_on_c, 6, 77, 96
15, 591640, Note_on_c, 6, 81, 0
15, 591640, Note_on_c, 6, 72, 0
15, 591640, Note_on_c, 6, 77, 0
15, 591680, Note_on_c, 6, 81, 93
15, 591680, Note_on_c, 6, 72, 92
15, 591680, Note_on_c, 6, 77, 82
15, 591719, Note_on_c, 6, 81, 0
15, 591719, Note_on_c, 6, 72, 0
15, 591719, Note_on_c, 6, 77, 0
15, 591759, Note_on_c, 6, 81, 98
15, 591759, Note_on_c, 6, 72, 93
15, 591759, Note_on_c, 6, 77, 95
15, 591799, Note_on_c, 6, 81, 0
15, 591799, Note_on_c, 6, 72, 0
15, 591799, Note_on_c, 6, 77, 0
15, 591840, Note_on_c, 6, 81, 85
15, 591840, Note_on_c, 6, 72, 95
15, 591840, Note_on_c, 6, 77, 97
15, 591880, Note_on_c, 6, 81, 0
15, 591880, Note_on_c, 6, 72, 0
15, 591880, Note_on_c, 6, 77, 0
15, 591920, Note_on_c, 6, 81, 95
15, 591920, Note_on_c, 6, 72, 83
15, 591920, Note_on_c, 6, 77, 96
15, 591959, Note_on_c, 6, 81, 0
15, 591959, Note_on_c, 6, 72, 0
15, 591959, Note_on_c, 6, 77, 0
15, 591999, Note_on_c, 6, 81, 87
15, 591999, Note_on_c, 6, 72, 78
15, 591999, Note_on_c, 6, 77, 88
15, 592039, Note_on_c, 6, 81, 0
15, 592039, Note_on_c, 6, 72, 0
15, 592039, Note_on_c, 6, 77, 0
15, 592080, Note_on_c, 6, 81, 95
15, 592080, Note_on_c, 6, 72, 79
15, 592080, Note_on_c, 6, 77, 88
15, 592120, Note_on_c, 6, 81, 0
15, 592120, Note_on_c, 6, 72, 0
15, 592120, Note_on_c, 6, 77, 0
15, 592160, Note_on_c, 6, 81, 98
15, 592160, Note_on_c, 6, 72, 98
15, 592160, Note_on_c, 6, 77, 89
15, 592199, Note_on_c, 6, 81, 0
15, 592199, Note_on_c, 6, 72, 0
15, 592199, Note_on_c, 6, 77, 0
15, 592239, Note_on_c, 6, 81, 97
15, 592239, Note_on_c, 6, 72, 88
15, 592239, Note_on_c, 6, 77, 90
15, 592279, Note_on_c, 6, 81, 0
15, 592279, Note_on_c, 6, 72, 0
15, 592279, Note_on_c, 6, 77, 0
15, 592320, Note_on_c, 6, 81, 85
15, 592320, Note_on_c, 6, 72, 83
15, 592320, Note_on_c, 6, 77, 91
15, 592360, Note_on_c, 6, 81, 0
15, 592360, Note_on_c, 6, 72, 0
15, 592360, Note_on_c, 6, 77, 0
15, 592400, Note_on_c, 6, 81, 92
15, 592400, Note_on_c, 6, 72, 78
15, 592400, Note_on_c, 6, 77, 80
15, 592439, Note_on_c, 6, 81, 0
15, 592439, Note_on_c, 6, 72, 0
15, 592439, Note_on_c, 6, 77, 0
15, 592479, Note_on_c, 6, 81, 88
15, 592479, Note_on_c, 6, 72, 94
15, 592479, Note_on_c, 6, 77, 94
15, 592519, Note_on_c, 6, 81, 0
15, 592519, Note_on_c, 6, 72, 0
15, 592519, Note_on_c, 6, 77, 0
15, 592560, Note_on_c, 6, 81, 80
15, 592560, Note_on_c, 6, 72, 88
15, 592560, Note_on_c, 6, 77, 96
15, 592600, Note_on_c, 6, 81, 0
15, 592600, Note_on_c, 6, 72, 0
15, 592600, Note_on_c, 6, 77, 0
15, 592640, Note_on_c, 6, 81, 97
15, 592640, Note_on_c, 6, 72, 84
15, 592640, Note_on_c, 6, 77, 78
15, 592679, Note_on_c, 6, 81, 0
15, 592679, Note_on_c, 6, 72, 0
15, 592679, Note_on_c, 6, 77, 0
15, 592719, Note_on_c, 6, 81, 84
15, 592719, Note_on_c, 6, 72, 78
15, 592719, Note_on_c, 6, 77, 96
15, 592759, Note_on_c, 6, 81, 0
15, 592759, Note_on_c, 6, 72, 0
15, 592759, Note_on_c, 6, 77, 0
15, 592800, Note_on_c, 6, 81, 97
15, 592800, Note_on_c, 6, 72, 89
15, 592800, Note_on_c, 6, 77, 80
15, 592840, Note_on_c, 6, 81, 0
15, 592840, Note_on_c, 6, 72, 0
15, 592840, Note_on_c, 6, 77, 0
15, 592880, Note_on_c, 6, 81, 84
15, 592880, Note_on_c, 6, 72, 96
15, 592880, Note_on_c, 6, 77, 85
15, 592919, Note_on_c, 6, 81, 0
15, 592919, Note_on_c, 6, 72, 0
15, 592919, Note_on_c, 6, 77, 0
15, 592959, Note_on_c, 6, 81, 82
15, 592959, Note_on_c, 6, 72, 92
15, 592959, Note_on_c, 6, 77, 83
15, 592999, Note_on_c, 6, 81, 0
15, 592999, Note_on_c, 6, 72, 0
15, 592999, Note_on_c, 6, 77, 0
15, 593040, Note_on_c, 6, 81, 86
15, 593040, Note_on_c, 6, 72, 96
15, 593040, Note_on_c, 6, 77, 90
15, 593080, Note_on_c, 6, 81, 0
15, 593080, Note_on_c, 6, 72, 0
15, 593080, Note_on_c, 6, 77, 0
15, 593120, Note_on_c, 6, 81, 89
15, 593120, Note_on_c, 6, 72, 93
15, 593120, Note_on_c, 6, 77, 97
15, 593159, Note_on_c, 6, 81, 0
15, 593159, Note_on_c, 6, 72, 0
15, 593159, Note_on_c, 6, 77, 0
15, 593199, Note_on_c, 6, 81, 86
15, 593199, Note_on_c, 6, 72, 98
15, 593199, Note_on_c, 6, 77, 78
15, 593239, Note_on_c, 6, 81, 0
15, 593239, Note_on_c, 6, 72, 0
15, 593239, Note_on_c, 6, 77, 0
15, 593280, Note_on_c, 6, 81, 79
15, 593280, Note_on_c, 6, 72, 97
15, 593280, Note_on_c, 6, 77, 87
15, 593320, Note_on_c, 6, 81, 0
15, 593320, Note_on_c, 6, 72, 0
15, 593320, Note_on_c, 6, 77, 0
15, 593360, Note_on_c, 6, 81, 94
15, 593360, Note_on_c, 6, 72, 86
15, 593360, Note_on_c, 6, 77, 98
15, 593399, Note_on_c, 6, 81, 0
15, 593399, Note_on_c, 6, 72, 0
15, 593399, Note_on_c, 6, 77, 0
15, 593439, Note_on_c, 6, 81, 93
15, 593439, Note_on_c, 6, 72, 86
15, 593439, Note_on_c, 6, 77, 98
15, 593479, Note_on_c, 6, 81, 0
15, 593479, Note_on_c, 6, 72, 0
15, 593479, Note_on_c, 6, 77, 0
15, 593520, Note_on_c, 6, 81, 87
15, 593520, Note_on_c, 6, 72, 93
15, 593520, Note_on_c, 6, 77, 87
15, 593560, Note_on_c, 6, 81, 0
15, 593560, Note_on_c, 6, 72, 0
15, 593560, Note_on_c, 6, 77, 0
15, 593600, Note_on_c, 6, 81, 79
15, 593600, Note_on_c, 6, 72, 82
15, 593600, Note_on_c, 6, 77, 94
15, 593639, Note_on_c, 6, 81, 0
15, 593639, Note_on_c, 6, 72, 0
15, 593639, Note_on_c, 6, 77, 0
15, 593679, Note_on_c, 6, 81, 95
15, 593679, Note_on_c, 6, 72, 84
15, 593679, Note_on_c, 6, 77, 87
15, 593719, Note_on_c, 6, 81, 0
15, 593719, Note_on_c, 6, 72, 0
15, 593719, Note_on_c, 6, 77, 0
15, 593760, Note_on_c, 6, 81, 93
15, 593779, Note_on_c, 6, 77, 103
15, 593782, Note_on_c, 6, 72, 85
15, 593951, Note_on_c, 6, 81, 0
15, 593970, Note_on_c, 6, 77, 0
15, 593973, Note_on_c, 6, 72, 0
15, 598083, Note_on_c, 6, 72, 89
15, 598083, Note_on_c, 6, 81, 105
15, 598099, Note_on_c, 6, 81, 88
15, 598103, Note_on_c, 6, 77, 87
15, 598274, Note_on_c, 6, 72, 0
15, 598274, Note_on_c, 6, 81, 0
15, 598290, Note_on_c, 6, 81, 0
15, 598294, Note_on_c, 6, 77, 0
15, 601441, Note_on_c, 6, 72, 116
15, 601442, Note_on_c, 6, 77, 116
15, 601446, Note_on_c, 6, 81, 116
15, 601522, Note_on_c, 6, 79, 113
15, 601536, Note_on_c, 6, 74, 113
15, 601545, Note_on_c, 6, 83, 113
15, 601561, Note_on_c, 6, 72, 0
15, 601562, Note_on_c, 6, 77, 0
15, 601566, Note_on_c, 6, 81, 0
15, 601610, Note_on_c, 6, 72, 111
15, 601611, Note_on_c, 6, 77, 111
15, 601618, Note_on_c, 6, 81, 111
15, 601640, Note_on_c, 6, 79, 0
15, 601654, Note_on_c, 6, 74, 0
15, 601663, Note_on_c, 6, 83, 0
15, 601689, Note_on_c, 6, 79, 106
15, 601697, Note_on_c, 6, 74, 106
15, 601698, Note_on_c, 6, 83, 106
15, 601730, Note_on_c, 6, 72, 0
15, 601731, Note_on_c, 6, 77, 0
15, 601738, Note_on_c, 6, 81, 0
15, 601761, Note_on_c, 6, 72, 97
15, 601762, Note_on_c, 6, 77, 97
15, 601776, Note_on_c, 6, 81, 97
15, 601809, Note_on_c, 6, 79, 0
15, 601817, Note_on_c, 6, 74, 0
15, 601818, Note_on_c, 6, 83, 0
15, 601845, Note_on_c, 6, 79, 86
15, 601857, Note_on_c, 6, 74, 86
15, 601863, Note_on_c, 6, 83, 86
15, 601879, Note_on_c, 6, 72, 0
15, 601880, Note_on_c, 6, 77, 0
15, 601894, Note_on_c, 6, 81, 0
15, 601920, Note_on_c, 6, 72, 82
15, 601928, Note_on_c, 6, 65, 82
15, 601932, Note_on_c, 6, 60, 82
15, 601941, Note_on_c, 6, 77, 82
15, 601942, Note_on_c, 6, 81, 82
15, 601965, Note_on_c, 6, 79, 0
15, 601977, Note_on_c, 6, 74, 0
15, 601983, Note_on_c, 6, 83, 0
15, 601984, Note_on_c, 6, 65, 0
15, 601988, Note_on_c, 6, 60, 0
15, 602002, Note_on_c, 6, 79, 78
15, 602006, Note_on_c, 6, 83, 78
15, 602010, Note_on_c, 6, 65, 78
15, 602011, Note_on_c, 6, 74, 78
15, 602015, Note_on_c, 6, 60, 78
15, 602040, Note_on_c, 6, 72, 0
15, 602061, Note_on_c, 6, 77, 0
15, 602062, Note_on_c, 6, 81, 0
15, 602065, Note_on_c, 6, 65, 0
15, 602070, Note_on_c, 6, 60, 0
15, 602084, Note_on_c, 6, 65, 72
15, 602085, Note_on_c, 6, 81, 72
15, 602091, Note_on_c, 6, 72, 72
15, 602092, Note_on_c, 6, 77, 72
15, 602093, Note_on_c, 6, 60, 72
15, 602120, Note_on_c, 6, 79, 0
15, 602124, Note_on_c, 6, 83, 0
15, 602129, Note_on_c, 6, 74, 0
15, 602140, Note_on_c, 6, 65, 0
15, 602149, Note_on_c, 6, 60, 0
15, 602161, Note_on_c, 6, 79, 66
15, 602165, Note_on_c, 6, 65, 66
15, 602170, Note_on_c, 6, 60, 66
15, 602179, Note_on_c, 6, 83, 65
15, 602182, Note_on_c, 6, 74, 65
15, 602205, Note_on_c, 6, 81, 0
15, 602211, Note_on_c, 6, 72, 0
15, 602212, Note_on_c, 6, 77, 0
15, 602221, Note_on_c, 6, 65, 0
15, 602226, Note_on_c, 6, 60, 0
15, 602241, Note_on_c, 6, 65, 57
15, 602241, Note_on_c, 6, 81, 57
15, 602244, Note_on_c, 6, 77, 57
15, 602245, Note_on_c, 6, 60, 57
15, 602254, Note_on_c, 6, 72, 57
15, 602281, Note_on_c, 6, 79, 0
15, 602296, Note_on_c, 6, 65, 0
15, 602299, Note_on_c, 6, 83, 0
15, 602300, Note_on_c, 6, 60, 0
15, 602302, Note_on_c, 6, 74, 0
15, 602322, Note_on_c, 6, 79, 51
15, 602325, Note_on_c, 6, 60, 51
15, 602328, Note_on_c, 6, 83, 51
15, 602332, Note_on_c, 6, 65, 51
15, 602339, Note_on_c, 6, 74, 51
15, 602359, Note_on_c, 6, 81, 0
15, 602362, Note_on_c, 6, 77, 0
15, 602372, Note_on_c, 6, 72, 0
15, 602381, Note_on_c, 6, 60, 0
15, 602388, Note_on_c, 6, 65, 0
15, 602400, Note_on_c, 6, 72, 49
15, 602400, Note_on_c, 6, 65, 49
15, 602405, Note_on_c, 6, 81, 49
15, 602413, Note_on_c, 6, 77, 48
15, 602413, Note_on_c, 6, 69, 48
15, 602442, Note_on_c, 6, 79, 0
15, 602448, Note_on_c, 6, 83, 0
15, 602456, Note_on_c, 6, 65, 0
15, 602459, Note_on_c, 6, 74, 0
15, 602469, Note_on_c, 6, 69, 0
15, 602486, Note_on_c, 6, 79, 48
15, 602491, Note_on_c, 6, 69, 48
15, 602491, Note_on_c, 6, 65, 48
15, 602495, Note_on_c, 6, 74, 48
15, 602501, Note_on_c, 6, 83, 48
15, 602520, Note_on_c, 6, 72, 0
15, 602525, Note_on_c, 6, 81, 0
15, 602533, Note_on_c, 6, 77, 0
15, 602546, Note_on_c, 6, 69, 0
15, 602546, Note_on_c, 6, 65, 0
15, 602559, Note_on_c, 6, 77, 48
15, 602563, Note_on_c, 6, 69, 48
15, 602563, Note_on_c, 6, 81, 48
15, 602563, Note_on_c, 6, 65, 48
15, 602567, Note_on_c, 6, 72, 48
15, 602604, Note_on_c, 6, 79, 0
15, 602613, Note_on_c, 6, 74, 0
15, 602619, Note_on_c, 6, 83, 0
15, 602619, Note_on_c, 6, 69, 0
15, 602619, Note_on_c, 6, 65, 0
15, 602643, Note_on_c, 6, 69, 48
15, 602652, Note_on_c, 6, 79, 48
15, 602664, Note_on_c, 6, 74, 49
15, 602664, Note_on_c, 6, 65, 49
15, 602664, Note_on_c, 6, 83, 49
15, 602679, Note_on_c, 6, 77, 0
15, 602683, Note_on_c, 6, 81, 0
15, 602687, Note_on_c, 6, 72, 0
15, 602699, Note_on_c, 6, 69, 0
15, 602720, Note_on_c, 6, 65, 0
15, 602723, Note_on_c, 6, 77, 51
15, 602729, Note_on_c, 6, 72, 51
15, 602732, Note_on_c, 6, 81, 51
15, 602743, Note_on_c, 6, 69, 52
15, 602744, Note_on_c, 6, 65, 52
15, 602772, Note_on_c, 6, 79, 0
15, 602784, Note_on_c, 6, 74, 0
15, 602784, Note_on_c, 6, 83, 0
15, 602784, Note_on_c, 6, 65, 0
15, 602793, Note_on_c, 6, 69, 0
15, 602800, Note_on_c, 6, 65, 54
15, 602802, Note_on_c, 6, 69, 54
15, 602803, Note_on_c, 6, 83, 54
15, 602812, Note_on_c, 6, 74, 54
15, 602814, Note_on_c, 6, 79, 54
15, 602841, Note_on_c, 6, 77, 0
15, 602847, Note_on_c, 6, 72, 0
15, 602850, Note_on_c, 6, 81, 0
15, 602856, Note_on_c, 6, 65, 0
15, 602858, Note_on_c, 6, 69, 0
15, 602894, Note_on_c, 6, 77, 58
15, 602896, Note_on_c, 6, 69, 58
15, 602900, Note_on_c, 6, 81, 58
15, 602904, Note_on_c, 6, 72, 58
15, 602923, Note_on_c, 6, 83, 0
15, 602932, Note_on_c, 6, 74, 0
15, 602934, Note_on_c, 6, 79, 0
15, 602952, Note_on_c, 6, 69, 0
15, 602963, Note_on_c, 6, 83, 63
15, 602964, Note_on_c, 6, 74, 63
15, 602968, Note_on_c, 6, 79, 63
15, 602969, Note_on_c, 6, 69, 63
15, 602984, Note_on_c, 6, 72, 0
15, 603014, Note_on_c, 6, 77, 0
15, 603020, Note_on_c, 6, 81, 0
15, 603024, Note_on_c, 6, 69, 0
15, 603042, Note_on_c, 6, 77, 64
15, 603044, Note_on_c, 6, 72, 66
15, 603044, Note_on_c, 6, 69, 66
15, 603052, Note_on_c, 6, 81, 66
15, 603081, Note_on_c, 6, 83, 0
15, 603082, Note_on_c, 6, 74, 0
15, 603086, Note_on_c, 6, 79, 0
15, 603100, Note_on_c, 6, 69, 0
15, 603124, Note_on_c, 6, 72, 0
15, 603124, Note_on_c, 6, 83, 69
15, 603129, Note_on_c, 6, 69, 69
15, 603140, Note_on_c, 6, 79, 70
15, 603144, Note_on_c, 6, 74, 70
15, 603162, Note_on_c, 6, 77, 0
15, 603172, Note_on_c, 6, 81, 0
15, 603185, Note_on_c, 6, 69, 0
15, 603201, Note_on_c, 6, 72, 72
15, 603202, Note_on_c, 6, 81, 72
15, 603205, Note_on_c, 6, 69, 72
15, 603218, Note_on_c, 6, 77, 73
15, 603244, Note_on_c, 6, 83, 0
15, 603260, Note_on_c, 6, 79, 0
15, 603260, Note_on_c, 6, 69, 0
15, 603264, Note_on_c, 6, 74, 0
15, 603280, Note_on_c, 6, 72, 0
15, 603284, Note_on_c, 6, 74, 78
15, 603290, Note_on_c, 6, 83, 78
15, 603292, Note_on_c, 6, 79, 78
15, 603297, Note_on_c, 6, 69, 81
15, 603304, Note_on_c, 6, 72, 81
15, 603320, Note_on_c, 6, 81, 0
15, 603336, Note_on_c, 6, 77, 0
15, 603353, Note_on_c, 6, 69, 0
15, 603366, Note_on_c, 6, 77, 83
15, 603375, Note_on_c, 6, 81, 88
15, 603384, Note_on_c, 6, 72, 0
15, 603404, Note_on_c, 6, 74, 0
15, 603410, Note_on_c, 6, 83, 0
15, 603412, Note_on_c, 6, 79, 0
15, 603430, Note_on_c, 6, 77, 0
15, 603431, Note_on_c, 6, 72, 94
15, 603447, Note_on_c, 6, 83, 94
15, 603449, Note_on_c, 6, 77, 94
15, 603454, Note_on_c, 6, 79, 94
15, 603462, Note_on_c, 6, 74, 96
15, 603495, Note_on_c, 6, 81, 0
15, 603510, Note_on_c, 6, 72, 0
15, 603512, Note_on_c, 6, 77, 0
15, 603528, Note_on_c, 6, 72, 99
15, 603532, Note_on_c, 6, 81, 99
15, 603539, Note_on_c, 6, 77, 99
15, 603565, Note_on_c, 6, 83, 0
15, 603572, Note_on_c, 6, 79, 0
15, 603580, Note_on_c, 6, 74, 0
15, 603600, Note_on_c, 6, 74, 101
15, 603603, Note_on_c, 6, 77, 0
15, 603608, Note_on_c, 6, 72, 0
15, 603609, Note_on_c, 6, 83, 101
15, 603618, Note_on_c, 6, 79, 103
15, 603621, Note_on_c, 6, 77, 103
15, 603625, Note_on_c, 6, 72, 106
15, 603652, Note_on_c, 6, 81, 0
15, 603684, Note_on_c, 6, 77, 0
15, 603684, Note_on_c, 6, 81, 104
15, 603699, Note_on_c, 6, 77, 106
15, 603704, Note_on_c, 6, 72, 0
15, 603720, Note_on_c, 6, 74, 0
15, 603720, Note_on_c, 6, 72, 106
15, 603729, Note_on_c, 6, 83, 0
15, 603738, Note_on_c, 6, 79, 0
15, 603762, Note_on_c, 6, 77, 0
15, 603771, Note_on_c, 6, 77, 109
15, 603781, Note_on_c, 6, 79, 109
15, 603782, Note_on_c, 6, 74, 109
15, 603782, Note_on_c, 6, 83, 109
15, 603799, Note_on_c, 6, 72, 0
15, 603802, Note_on_c, 6, 81, 0
15, 603823, Note_on_c, 6, 72, 109
15, 603835, Note_on_c, 6, 77, 0
15, 603844, Note_on_c, 6, 77, 111
15, 603847, Note_on_c, 6, 81, 111
15, 603901, Note_on_c, 6, 79, 0
15, 603902, Note_on_c, 6, 74, 0
15, 603902, Note_on_c, 6, 83, 0
15, 603902, Note_on_c, 6, 72, 0
15, 603908, Note_on_c, 6, 77, 0
15, 603911, Note_on_c, 6, 81, 0
15, 603919, Note_on_c, 6, 72, 114
15, 603922, Note_on_c, 6, 83, 115
15, 603923, Note_on_c, 6, 77, 115
15, 603931, Note_on_c, 6, 81, 115
15, 603938, Note_on_c, 6, 79, 115
15, 603945, Note_on_c, 6, 74, 115
15, 603986, Note_on_c, 6, 77, 0
15, 603994, Note_on_c, 6, 81, 0
15, 603998, Note_on_c, 6, 72, 0
15, 604007, Note_on_c, 6, 77, 118
15, 604015, Note_on_c, 6, 81, 118
15, 604019, Note_on_c, 6, 72, 118
15, 604040, Note_on_c, 6, 83, 0
15, 604056, Note_on_c, 6, 79, 0
15, 604063, Note_on_c, 6, 74, 0
15, 604071, Note_on_c, 6, 77, 0
15, 604079, Note_on_c, 6, 81, 0
15, 604087, Note_on_c, 6, 83, 124
15, 604090, Note_on_c, 6, 81, 124
15, 604090, Note_on_c, 6, 79, 124
15, 604092, Note_on_c, 6, 74, 124
15, 604096, Note_on_c, 6, 77, 124
15, 604139, Note_on_c, 6, 72, 0
15, 604154, Note_on_c, 6, 81, 0
15, 604159, Note_on_c, 6, 77, 0
15, 604174, Note_on_c, 6, 81, 127
15, 604180, Note_on_c, 6, 72, 127
15, 604184, Note_on_c, 6, 77, 127
15, 604207, Note_on_c, 6, 83, 0
15, 604210, Note_on_c, 6, 79, 0
15, 604212, Note_on_c, 6, 74, 0
15, 604237, Note_on_c, 6, 81, 0
15, 604245, Note_on_c, 6, 81, 127
15, 604245, Note_on_c, 6, 79, 127
15, 604247, Note_on_c, 6, 77, 0
15, 604257, Note_on_c, 6, 83, 127
15, 604262, Note_on_c, 6, 74, 127
15, 604298, Note_on_c, 6, 72, 0
15, 604309, Note_on_c, 6, 81, 0
15, 604365, Note_on_c, 6, 79, 0
15, 604377, Note_on_c, 6, 83, 0
15, 604382, Note_on_c, 6, 74, 0
15, 623040, Note_on_c, 6, 72, 39
15, 623040, Note_on_c, 6, 67, 39
15, 623055, Note_on_c, 6, 72, 0
15, 623055, Note_on_c, 6, 67, 0
15, 623280, Note_on_c, 6, 76, 50
15, 623280, Note_on_c, 6, 70, 52
15, 623295, Note_on_c, 6, 76, 0
15, 623295, Note_on_c, 6, 70, 0
15, 623538, Note_on_c, 6, 72, 41
15, 623539, Note_on_c, 6, 61, 53
15, 623540, Note_on_c, 6, 72, 44
15, 623544, Note_on_c, 6, 67, 53
15, 623618, Note_on_c, 6, 72, 0
15, 623619, Note_on_c, 6, 61, 0
15, 623620, Note_on_c, 6, 72, 0
15, 623624, Note_on_c, 6, 67, 0
15, 623688, Note_on_c, 6, 64, 52
15, 623690, Note_on_c, 6, 69, 41
15, 623692, Note_on_c, 6, 75, 45
15, 623696, Note_on_c, 6, 69, 49
15, 623699, Note_on_c, 6, 75, 46
15, 623769, Note_on_c, 6, 64, 0
15, 623771, Note_on_c, 6, 69, 0
15, 623773, Note_on_c, 6, 75, 0
15, 623777, Note_on_c, 6, 69, 0
15, 623780, Note_on_c, 6, 75, 0
15, 623842, Note_on_c, 6, 75, 57
15, 623843, Note_on_c, 6, 80, 50
15, 623856, Note_on_c, 6, 69, 47
15, 623857, Note_on_c, 6, 75, 50
15, 623858, Note_on_c, 6, 69, 42
15, 623922, Note_on_c, 6, 75, 0
15, 623923, Note_on_c, 6, 80, 0
15, 623936, Note_on_c, 6, 69, 0
15, 623937, Note_on_c, 6, 75, 0
15, 623938, Note_on_c, 6, 69, 0
15, 624005, Note_on_c, 6, 84, 44
15, 624013, Note_on_c, 6, 73, 45
15, 624014, Note_on_c, 6, 78, 52
15, 624085, Note_on_c, 6, 84, 0
15, 624093, Note_on_c, 6, 73, 0
15, 624094, Note_on_c, 6, 78, 0
15, 624159, Note_on_c, 6, 87, 52
15, 624175, Note_on_c, 6, 82, 54
15, 624182, Note_on_c, 6, 76, 59
15, 624183, Note_on_c, 6, 76, 48
15, 624240, Note_on_c, 6, 87, 0
15, 624256, Note_on_c, 6, 82, 0
15, 624263, Note_on_c, 6, 76, 0
15, 624264, Note_on_c, 6, 76, 0
15, 654253, Note_on_c, 6, 78, 127
15, 654265, Note_on_c, 6, 78, 91
15, 654265, Note_on_c, 6, 66, 100
15, 654493, Note_on_c, 6, 78, 0
15, 654505, Note_on_c, 6, 78, 0
15, 654505, Note_on_c, 6, 66, 0
15, 654603, Note_on_c, 6, 65, 99
15, 654721, Note_on_c, 6, 86, 127
15, 654723, Note_on_c, 6, 65, 0
15, 654723, Note_on_c, 6, 74, 91
15, 654737, Note_on_c, 6, 63, 100
15, 654977, Note_on_c, 6, 63, 0
15, 655204, Note_on_c, 6, 62, 92
15, 655444, Note_on_c, 6, 62, 0
15, 655560, Note_on_c, 6, 67, 99
15, 655680, Note_on_c, 6, 67, 0
15, 655683, Note_on_c, 6, 70, 115
15, 655690, Note_on_c, 6, 65, 116
15, 655930, Note_on_c, 6, 65, 0
15, 656161, Note_on_c, 6, 86, 0
15, 656163, Note_on_c, 6, 74, 0
15, 656168, Note_on_c, 6, 68, 116
15, 656172, Note_on_c, 6, 80, 118
15, 656175, Note_on_c, 6, 80, 111
15, 656408, Note_on_c, 6, 68, 0
15, 656412, Note_on_c, 6, 80, 0
15, 656415, Note_on_c, 6, 80, 0
15, 656521, Note_on_c, 6, 71, 117
15, 656641, Note_on_c, 6, 71, 0
15, 656642, Note_on_c, 6, 86, 121
15, 656654, Note_on_c, 6, 69, 105
15, 656656, Note_on_c, 6, 74, 120
15, 656894, Note_on_c, 6, 69, 0
15, 657122, Note_on_c, 6, 65, 106
15, 657123, Note_on_c, 6, 70, 0
15, 657362, Note_on_c, 6, 65, 0
15, 657497, Note_on_c, 6, 73, 124
15, 657616, Note_on_c, 6, 72, 105
15, 657617, Note_on_c, 6, 73, 0
15, 657620, Note_on_c, 6, 71, 113
15, 657856, Note_on_c, 6, 72, 0
15, 658080, Note_on_c, 6, 66, 122
15, 658082, Note_on_c, 6, 86, 0
15, 658096, Note_on_c, 6, 74, 0
15, 658097, Note_on_c, 6, 78, 124
15, 658104, Note_on_c, 6, 78, 127
15, 658320, Note_on_c, 6, 66, 0
15, 658337, Note_on_c, 6, 78, 0
15, 658344, Note_on_c, 6, 78, 0
15, 658465, Note_on_c, 6, 65, 107
15, 658562, Note_on_c, 6, 86, 127
15, 658567, Note_on_c, 6, 63, 119
15, 658573, Note_on_c, 6, 75, 108
15, 658585, Note_on_c, 6, 65, 0
15, 658807, Note_on_c, 6, 63, 0
15, 659060, Note_on_c, 6, 71, 0
15, 659061, Note_on_c, 6, 62, 116
15, 659301, Note_on_c, 6, 62, 0
15, 659401, Note_on_c, 6, 67, 114
15, 659521, Note_on_c, 6, 67, 0
15, 659521, Note_on_c, 6, 70, 116
15, 659525, Note_on_c, 6, 65, 119
15, 659765, Note_on_c, 6, 65, 0
15, 660002, Note_on_c, 6, 86, 0
15, 660013, Note_on_c, 6, 75, 0
15, 660021, Note_on_c, 6, 80, 109
15, 660024, Note_on_c, 6, 80, 127
15, 660024, Note_on_c, 6, 68, 124
15, 660264, Note_on_c, 6, 80, 0
15, 660264, Note_on_c, 6, 68, 0
15, 660362, Note_on_c, 6, 71, 104
15, 660482, Note_on_c, 6, 71, 0
15, 660492, Note_on_c, 6, 86, 121
15, 660495, Note_on_c, 6, 74, 104
15, 660495, Note_on_c, 6, 69, 111
15, 660501, Note_on_c, 6, 80, 0
15, 660735, Note_on_c, 6, 69, 0
15, 660961, Note_on_c, 6, 70, 0
15, 660966, Note_on_c, 6, 65, 108
15, 661206, Note_on_c, 6, 65, 0
15, 661324, Note_on_c, 6, 73, 106
15, 661444, Note_on_c, 6, 73, 0
15, 661457, Note_on_c, 6, 71, 116
15, 661463, Note_on_c, 6, 72, 114
15, 661703, Note_on_c, 6, 72, 0
15, 661932, Note_on_c, 6, 86, 0
15, 661935, Note_on_c, 6, 74, 0
15, 661936, Note_on_c, 6, 66, 107
15, 661938, Note_on_c, 6, 78, 110
15, 661940, Note_on_c, 6, 78, 123
15, 662176, Note_on_c, 6, 66, 0
15, 662180, Note_on_c, 6, 78, 0
15, 662296, Note_on_c, 6, 65, 120
15, 662416, Note_on_c, 6, 65, 0
15, 662416, Note_on_c, 6, 75, 122
15, 662418, Note_on_c, 6, 78, 0
15, 662419, Note_on_c, 6, 86, 120
15, 662423, Note_on_c, 6, 63, 106
15, 662663, Note_on_c, 6, 63, 0
15, 662897, Note_on_c, 6, 71, 0
15, 662903, Note_on_c, 6, 62, 114
15, 663143, Note_on_c, 6, 62, 0
15, 663259, Note_on_c, 6, 67, 106
15, 663365, Note_on_c, 6, 65, 114
15, 663373, Note_on_c, 6, 70, 106
15, 663379, Note_on_c, 6, 67, 0
15, 663605, Note_on_c, 6, 65, 0
15, 663847, Note_on_c, 6, 68, 121
15, 663856, Note_on_c, 6, 75, 0
15, 663859, Note_on_c, 6, 86, 0
15, 663859, Note_on_c, 6, 80, 122
15, 663864, Note_on_c, 6, 80, 127
15, 664087, Note_on_c, 6, 68, 0
15, 664104, Note_on_c, 6, 80, 0
15, 664214, Note_on_c, 6, 71, 116
15, 664329, Note_on_c, 6, 86, 125
15, 664329, Note_on_c, 6, 74, 107
15, 664334, Note_on_c, 6, 71, 0
15, 664339, Note_on_c, 6, 80, 0
15, 664339, Note_on_c, 6, 69, 108
15, 664579, Note_on_c, 6, 69, 0
15, 664807, Note_on_c, 6, 65, 107
15, 664813, Note_on_c, 6, 70, 0
15, 665047, Note_on_c, 6, 65, 0
15, 665179, Note_on_c, 6, 73, 115
15, 665289, Note_on_c, 6, 72, 112
15, 665294, Note_on_c, 6, 71, 109
15, 665299, Note_on_c, 6, 73, 0
15, 665529, Note_on_c, 6, 72, 0
15, 665769, Note_on_c, 6, 86, 0
15, 665769, Note_on_c, 6, 74, 0
15, 665770, Note_on_c, 6, 78, 125
15, 665771, Note_on_c, 6, 78, 113
15, 665774, Note_on_c, 6, 66, 113
15, 666010, Note_on_c, 6, 78, 0
15, 666014, Note_on_c, 6, 66, 0
15, 666144, Note_on_c, 6, 65, 112
15, 666248, Note_on_c, 6, 75, 123
15, 666251, Note_on_c, 6, 78, 0
15, 666261, Note_on_c, 6, 86, 125
15, 666261, Note_on_c, 6, 63, 124
15, 666264, Note_on_c, 6, 65, 0
15, 666501, Note_on_c, 6, 63, 0
15, 666727, Note_on_c, 6, 62, 115
15, 666734, Note_on_c, 6, 71, 0
15, 666967, Note_on_c, 6, 62, 0
15, 667088, Note_on_c, 6, 67, 112
15, 667208, Note_on_c, 6, 67, 0
15, 667209, Note_on_c, 6, 70, 111
15, 667210, Note_on_c, 6, 65, 105
15, 667450, Note_on_c, 6, 65, 0
15, 667686, Note_on_c, 6, 80, 105
15, 667688, Note_on_c, 6, 75, 0
15, 667689, Note_on_c, 6, 68, 118
15, 667701, Note_on_c, 6, 86, 0
15, 667705, Note_on_c, 6, 80, 114
15, 667926, Note_on_c, 6, 80, 0
15, 667929, Note_on_c, 6, 68, 0
15, 668056, Note_on_c, 6, 71, 108
15, 668166, Note_on_c, 6, 86, 127
15, 668169, Note_on_c, 6, 74, 122
15, 668176, Note_on_c, 6, 71, 0
15, 668178, Note_on_c, 6, 69, 106
15, 668185, Note_on_c, 6, 80, 0
15, 668418, Note_on_c, 6, 69, 0
15, 668649, Note_on_c, 6, 70, 0
15, 668649, Note_on_c, 6, 74, 0
15, 668656, Note_on_c, 6, 65, 115
15, 668657, Note_on_c, 6, 74, 109
15, 668896, Note_on_c, 6, 65, 0
15, 669014, Note_on_c, 6, 73, 117
15, 669134, Note_on_c, 6, 73, 0
15, 669139, Note_on_c, 6, 72, 121
15, 669144, Note_on_c, 6, 71, 121
15, 669379, Note_on_c, 6, 72, 0
15, 669606, Note_on_c, 6, 86, 0
15, 669608, Note_on_c, 6, 78, 121
15, 669610, Note_on_c, 6, 78, 127
15, 669617, Note_on_c, 6, 74, 0
15, 669625, Note_on_c, 6, 66, 119
15, 669848, Note_on_c, 6, 78, 0
15, 669850, Note_on_c, 6, 78, 0
15, 669865, Note_on_c, 6, 66, 0
15, 669985, Note_on_c, 6, 65, 110
15, 670084, Note_on_c, 6, 86, 126
15, 670091, Note_on_c, 6, 75, 118
15, 670102, Note_on_c, 6, 63, 121
15, 670105, Note_on_c, 6, 65, 0
15, 670342, Note_on_c, 6, 63, 0
15, 670561, Note_on_c, 6, 62, 115
15, 670584, Note_on_c, 6, 71, 0
15, 670801, Note_on_c, 6, 62, 0
15, 670940, Note_on_c, 6, 67, 120
15, 671042, Note_on_c, 6, 65, 104
15, 671047, Note_on_c, 6, 70, 116
15, 671060, Note_on_c, 6, 67, 0
15, 671282, Note_on_c, 6, 65, 0
15, 671524, Note_on_c, 6, 86, 0
15, 671525, Note_on_c, 6, 68, 124
15, 671526, Note_on_c, 6, 80, 120
15, 671529, Note_on_c, 6, 80, 119
15, 671531, Note_on_c, 6, 75, 0
15, 671765, Note_on_c, 6, 68, 0
15, 671769, Note_on_c, 6, 80, 0
15, 671905, Note_on_c, 6, 71, 107
15, 672004, Note_on_c, 6, 86, 127
15, 672006, Note_on_c, 6, 80, 0
15, 672007, Note_on_c, 6, 69, 123
15, 672014, Note_on_c, 6, 74, 118
15, 672025, Note_on_c, 6, 71, 0
15, 672247, Note_on_c, 6, 69, 0
15, 672486, Note_on_c, 6, 65, 114
15, 672487, Note_on_c, 6, 70, 0
15, 672726, Note_on_c, 6, 65, 0
15, 672856, Note_on_c, 6, 73, 104
15, 672968, Note_on_c, 6, 71, 111
15, 672976, Note_on_c, 6, 73, 0
15, 672985, Note_on_c, 6, 72, 107
15, 673225, Note_on_c, 6, 72, 0
15, 673444, Note_on_c, 6, 86, 0
15, 673445, Note_on_c, 6, 66, 120
15, 673454, Note_on_c, 6, 74, 0
15, 673460, Note_on_c, 6, 78, 105
15, 673463, Note_on_c, 6, 78, 123
15, 673685, Note_on_c, 6, 66, 0
15, 673703, Note_on_c, 6, 78, 0
15, 673800, Note_on_c, 6, 65, 111
15, 673920, Note_on_c, 6, 65, 0
15, 673928, Note_on_c, 6, 63, 114
15, 673932, Note_on_c, 6, 86, 127
15, 673933, Note_on_c, 6, 75, 114
15, 673940, Note_on_c, 6, 78, 0
15, 674168, Note_on_c, 6, 63, 0
15, 674401, Note_on_c, 6, 62, 112
15, 674408, Note_on_c, 6, 71, 0
15, 674641, Note_on_c, 6, 62, 0
15, 674772, Note_on_c, 6, 67, 121
15, 674886, Note_on_c, 6, 65, 113
15, 674892, Note_on_c, 6, 67, 0
15, 674902, Note_on_c, 6, 70, 107
15, 675126, Note_on_c, 6, 65, 0
15, 675363, Note_on_c, 6, 80, 109
15, 675372, Note_on_c, 6, 86, 0
15, 675373, Note_on_c, 6, 75, 0
15, 675384, Note_on_c, 6, 80, 127
15, 675384, Note_on_c, 6, 68, 122
15, 675624, Note_on_c, 6, 80, 0
15, 675624, Note_on_c, 6, 68, 0
15, 675734, Note_on_c, 6, 71, 116
15, 675843, Note_on_c, 6, 80, 0
15, 675843, Note_on_c, 6, 86, 127
15, 675843, Note_on_c, 6, 69, 117
15, 675854, Note_on_c, 6, 71, 0
15, 675858, Note_on_c, 6, 74, 117
15, 676083, Note_on_c, 6, 69, 0
15, 676331, Note_on_c, 6, 65, 121
15, 676342, Note_on_c, 6, 70, 0
15, 676571, Note_on_c, 6, 65, 0
15, 676682, Note_on_c, 6, 73, 114
15, 676802, Note_on_c, 6, 73, 0
15, 676807, Note_on_c, 6, 71, 116
15, 676813, Note_on_c, 6, 72, 105
15, 677053, Note_on_c, 6, 72, 0
15, 677283, Note_on_c, 6, 86, 0
15, 677287, Note_on_c, 6, 71, 0
15, 677298, Note_on_c, 6, 74, 0
15, 690245, Note_on_c, 6, 76, 103
15, 690250, Note_on_c, 6, 72, 88
15, 690605, Note_on_c, 6, 76, 0
15, 690610, Note_on_c, 6, 72, 0
15, 691209, Note_on_c, 6, 76, 101
15, 691215, Note_on_c, 6, 72, 93
15, 691569, Note_on_c, 6, 76, 0
15, 691575, Note_on_c, 6, 72, 0
15, 692415, Note_on_c, 6, 76, 93
15, 692420, Note_on_c, 6, 72, 93
15, 692655, Note_on_c, 6, 76, 0
15, 692660, Note_on_c, 6, 72, 0
15, 693122, Note_on_c, 6, 76, 105
15, 693139, Note_on_c, 6, 72, 98
15, 693482, Note_on_c, 6, 76, 0
15, 693499, Note_on_c, 6, 72, 0
15, 694082, Note_on_c, 6, 69, 94
15, 694085, Note_on_c, 6, 78, 94
15, 694091, Note_on_c, 6, 74, 97
15, 694096, Note_on_c, 6, 81, 87
15, 694442, Note_on_c, 6, 69, 0
15, 694445, Note_on_c, 6, 78, 0
15, 694451, Note_on_c, 6, 74, 0
15, 694456, Note_on_c, 6, 81, 0
15, 694563, Note_on_c, 6, 81, 88
15, 694563, Note_on_c, 6, 80, 92
15, 694573, Note_on_c, 6, 76, 97
15, 694575, Note_on_c, 6, 69, 85
15, 694576, Note_on_c, 6, 78, 101
15, 694678, Note_on_c, 6, 81, 0
15, 694678, Note_on_c, 6, 80, 0
15, 694688, Note_on_c, 6, 76, 0
15, 694690, Note_on_c, 6, 69, 0
15, 694691, Note_on_c, 6, 78, 0
15, 694760, Note_on_c, 6, 74, 87
15, 694763, Note_on_c, 6, 81, 92
15, 694767, Note_on_c, 6, 78, 103
15, 694770, Note_on_c, 6, 69, 88
15, 694875, Note_on_c, 6, 74, 0
15, 694878, Note_on_c, 6, 81, 0
15, 694882, Note_on_c, 6, 78, 0
15, 694885, Note_on_c, 6, 69, 0
15, 694954, Note_on_c, 6, 69, 103
15, 694956, Note_on_c, 6, 78, 86
15, 694957, Note_on_c, 6, 76, 89
15, 694958, Note_on_c, 6, 72, 98
15, 694966, Note_on_c, 6, 81, 88
15, 695069, Note_on_c, 6, 69, 0
15, 695071, Note_on_c, 6, 78, 0
15, 695072, Note_on_c, 6, 76, 0
15, 695073, Note_on_c, 6, 72, 0
15, 695081, Note_on_c, 6, 81, 0
15, 695135, Note_on_c, 6, 81, 102
15, 695138, Note_on_c, 6, 78, 95
15, 695143, Note_on_c, 6, 74, 96
15, 695148, Note_on_c, 6, 71, 90
15, 695157, Note_on_c, 6, 69, 89
15, 695249, Note_on_c, 6, 81, 0
15, 695252, Note_on_c, 6, 78, 0
15, 695257, Note_on_c, 6, 74, 0
15, 695262, Note_on_c, 6, 71, 0
15, 695271, Note_on_c, 6, 69, 0
15, 695338, Note_on_c, 6, 81, 87
15, 695338, Note_on_c, 6, 76, 89
15, 695339, Note_on_c, 6, 69, 98
15, 695342, Note_on_c, 6, 72, 103
15, 695346, Note_on_c, 6, 78, 103
15, 695453, Note_on_c, 6, 81, 0
15, 695453, Note_on_c, 6, 76, 0
15, 695454, Note_on_c, 6, 69, 0
15, 695457, Note_on_c, 6, 72, 0
15, 695461, Note_on_c, 6, 78, 0
15, 695527, Note_on_c, 6, 69, 101
15, 695528, Note_on_c, 6, 81, 85
15, 695534, Note_on_c, 6, 74, 96
15, 695545, Note_on_c, 6, 78, 91
15, 695607, Note_on_c, 6, 69, 0
15, 695608, Note_on_c, 6, 81, 0
15, 695614, Note_on_c, 6, 74, 0
15, 695625, Note_on_c, 6, 78, 0
15, 695684, Note_on_c, 6, 76, 96
15, 695685, Note_on_c, 6, 69, 87
15, 695695, Note_on_c, 6, 72, 88
15, 695697, Note_on_c, 6, 78, 88
15, 695701, Note_on_c, 6, 81, 95
15, 695765, Note_on_c, 6, 76, 0
15, 695766, Note_on_c, 6, 69, 0
15, 695776, Note_on_c, 6, 72, 0
15, 695778, Note_on_c, 6, 78, 0
15, 695782, Note_on_c, 6, 81, 0
15, 695845, Note_on_c, 6, 78, 88
15, 695847, Note_on_c, 6, 69, 89
15, 695857, Note_on_c, 6, 81, 102
15, 695859, Note_on_c, 6, 71, 105
15, 695864, Note_on_c, 6, 74, 99
15, 695925, Note_on_c, 6, 78, 0
15, 695927, Note_on_c, 6, 69, 0
15, 695937, Note_on_c, 6, 81, 0
15, 695939, Note_on_c, 6, 71, 0
15, 695944, Note_on_c, 6, 74, 0
15, 696000, Note_on_c, 6, 78, 101
15, 696009, Note_on_c, 6, 69, 105
15, 696010, Note_on_c, 6, 81, 86
15, 696015, Note_on_c, 6, 76, 89
15, 696019, Note_on_c, 6, 72, 99
15, 696360, Note_on_c, 6, 78, 0
15, 696369, Note_on_c, 6, 69, 0
15, 696370, Note_on_c, 6, 81, 0
15, 696375, Note_on_c, 6, 76, 0
15, 696379, Note_on_c, 6, 72, 0
15, 697442, Note_on_c, 6, 81, 104
15, 697445, Note_on_c, 6, 69, 86
15, 697452, Note_on_c, 6, 78, 89
15, 697462, Note_on_c, 6, 74, 85
15, 697802, Note_on_c, 6, 81, 0
15, 697805, Note_on_c, 6, 69, 0
15, 697812, Note_on_c, 6, 78, 0
15, 697822, Note_on_c, 6, 74, 0
15, 698883, Note_on_c, 6, 81, 91
15, 698884, Note_on_c, 6, 78, 104
15, 698890, Note_on_c, 6, 76, 91
15, 698891, Note_on_c, 6, 69, 97
15, 698899, Note_on_c, 6, 80, 90
15, 699003, Note_on_c, 6, 81, 0
15, 699004, Note_on_c, 6, 78, 0
15, 699010, Note_on_c, 6, 76, 0
15, 699011, Note_on_c, 6, 69, 0
15, 699019, Note_on_c, 6, 80, 0
15, 699122, Note_on_c, 6, 74, 87
15, 699127, Note_on_c, 6, 69, 86
15, 699140, Note_on_c, 6, 81, 105
15, 699142, Note_on_c, 6, 78, 94
15, 699242, Note_on_c, 6, 74, 0
15, 699247, Note_on_c, 6, 69, 0
15, 699260, Note_on_c, 6, 81, 0
15, 699262, Note_on_c, 6, 78, 0
15, 699361, Note_on_c, 6, 78, 94
15, 699364, Note_on_c, 6, 72, 105
15, 699366, Note_on_c, 6, 81, 102
15, 699370, Note_on_c, 6, 69, 90
15, 699385, Note_on_c, 6, 76, 88
15, 699721, Note_on_c, 6, 78, 0
15, 699724, Note_on_c, 6, 72, 0
15, 699726, Note_on_c, 6, 81, 0
15, 699730, Note_on_c, 6, 69, 0
15, 699745, Note_on_c, 6, 76, 0
15, 700323, Note_on_c, 6, 78, 94
15, 700325, Note_on_c, 6, 69, 92
15, 700326, Note_on_c, 6, 74, 90
15, 700343, Note_on_c, 6, 81, 92
15, 700683, Note_on_c, 6, 78, 0
15, 700685, Note_on_c, 6, 69, 0
15, 700686, Note_on_c, 6, 74, 0
15, 700703, Note_on_c, 6, 81, 0
15, 701280, Note_on_c, 6, 72, 91
15, 701298, Note_on_c, 6, 76, 89
15, 701640, Note_on_c, 6, 72, 0
15, 701658, Note_on_c, 6, 76, 0
15, 702000, Note_on_c, 6, 76, 101
15, 702010, Note_on_c, 6, 72, 105
15, 702240, Note_on_c, 6, 76, 0
15, 702250, Note_on_c, 6, 72, 0
15, 703205, Note_on_c, 6, 72, 93
15, 703212, Note_on_c, 6, 76, 91
15, 703565, Note_on_c, 6, 72, 0
15, 703572, Note_on_c, 6, 76, 0
15, 704160, Note_on_c, 6, 74, 85
15, 704162, Note_on_c, 6, 78, 85
15, 704162, Note_on_c, 6, 69, 85
15, 704165, Note_on_c, 6, 81, 98
15, 704520, Note_on_c, 6, 74, 0
15, 704522, Note_on_c, 6, 78, 0
15, 704522, Note_on_c, 6, 69, 0
15, 704525, Note_on_c, 6, 81, 0
15, 704641, Note_on_c, 6, 78, 87
15, 704648, Note_on_c, 6, 69, 100
15, 704653, Note_on_c, 6, 81, 99
15, 704657, Note_on_c, 6, 80, 89
15, 704660, Note_on_c, 6, 76, 92
15, 704761, Note_on_c, 6, 78, 0
15, 704768, Note_on_c, 6, 69, 0
15, 704773, Note_on_c, 6, 81, 0
15, 704777, Note_on_c, 6, 80, 0
15, 704780, Note_on_c, 6, 76, 0
15, 704892, Note_on_c, 6, 74, 87
15, 704893, Note_on_c, 6, 81, 85
15, 704895, Note_on_c, 6, 78, 101
15, 704901, Note_on_c, 6, 69, 103
15, 705012, Note_on_c, 6, 74, 0
15, 705013, Note_on_c, 6, 81, 0
15, 705015, Note_on_c, 6, 78, 0
15, 705021, Note_on_c, 6, 69, 0
15, 705127, Note_on_c, 6, 76, 87
15, 705135, Note_on_c, 6, 78, 85
15, 705137, Note_on_c, 6, 81, 97
15, 705141, Note_on_c, 6, 69, 88
15, 705141, Note_on_c, 6, 72, 89
15, 705487, Note_on_c, 6, 76, 0
15, 705495, Note_on_c, 6, 78, 0
15, 705497, Note_on_c, 6, 81, 0
15, 705501, Note_on_c, 6, 69, 0
15, 705501, Note_on_c, 6, 72, 0
15, 706081, Note_on_c, 6, 80, 91
15, 706081, Note_on_c, 6, 76, 95
15, 706082, Note_on_c, 6, 81, 92
15, 706087, Note_on_c, 6, 78, 103
15, 706103, Note_on_c, 6, 69, 87
15, 706161, Note_on_c, 6, 76, 0
15, 706162, Note_on_c, 6, 81, 0
15, 706167, Note_on_c, 6, 78, 0
15, 706183, Note_on_c, 6, 69, 0
15, 706240, Note_on_c, 6, 80, 0
15, 706248, Note_on_c, 6, 74, 91
15, 706253, Note_on_c, 6, 69, 91
15, 706258, Note_on_c, 6, 78, 97
15, 706261, Note_on_c, 6, 78, 95
15, 706263, Note_on_c, 6, 81, 91
15, 706329, Note_on_c, 6, 74, 0
15, 706334, Note_on_c, 6, 69, 0
15, 706339, Note_on_c, 6, 78, 0
15, 706342, Note_on_c, 6, 78, 0
15, 706344, Note_on_c, 6, 81, 0
15, 706402, Note_on_c, 6, 76, 85
15, 706403, Note_on_c, 6, 81, 92
15, 706412, Note_on_c, 6, 72, 102
15, 706414, Note_on_c, 6, 78, 99
15, 706423, Note_on_c, 6, 69, 95
15, 706482, Note_on_c, 6, 76, 0
15, 706483, Note_on_c, 6, 81, 0
15, 706492, Note_on_c, 6, 72, 0
15, 706494, Note_on_c, 6, 78, 0
15, 706503, Note_on_c, 6, 69, 0
15, 706562, Note_on_c, 6, 78, 99
15, 706564, Note_on_c, 6, 81, 98
15, 706564, Note_on_c, 6, 78, 97
15, 706574, Note_on_c, 6, 69, 91
15, 706578, Note_on_c, 6, 74, 94
15, 706922, Note_on_c, 6, 78, 0
15, 706924, Note_on_c, 6, 81, 0
15, 706924, Note_on_c, 6, 78, 0
15, 706934, Note_on_c, 6, 69, 0
15, 706938, Note_on_c, 6, 74, 0
15, 707523, Note_on_c, 6, 81, 92
15, 707524, Note_on_c, 6, 76, 98
15, 707525, Note_on_c, 6, 80, 98
15, 707537, Note_on_c, 6, 69, 94
15, 707545, Note_on_c, 6, 78, 97
15, 707603, Note_on_c, 6, 81, 0
15, 707604, Note_on_c, 6, 76, 0
15, 707617, Note_on_c, 6, 69, 0
15, 707625, Note_on_c, 6, 78, 0
15, 707684, Note_on_c, 6, 80, 0
15, 707698, Note_on_c, 6, 78, 90
15, 707699, Note_on_c, 6, 69, 95
15, 707701, Note_on_c, 6, 74, 94
15, 707702, Note_on_c, 6, 81, 94
15, 707779, Note_on_c, 6, 78, 0
15, 707780, Note_on_c, 6, 69, 0
15, 707782, Note_on_c, 6, 74, 0
15, 707783, Note_on_c, 6, 81, 0
15, 707849, Note_on_c, 6, 76, 89
15, 707851, Note_on_c, 6, 72, 99
15, 707852, Note_on_c, 6, 81, 96
15, 707861, Note_on_c, 6, 78, 103
15, 707864, Note_on_c, 6, 69, 104
15, 707929, Note_on_c, 6, 76, 0
15, 707931, Note_on_c, 6, 72, 0
15, 707932, Note_on_c, 6, 81, 0
15, 707941, Note_on_c, 6, 78, 0
15, 707944, Note_on_c, 6, 69, 0
15, 708007, Note_on_c, 6, 78, 99
15, 708008, Note_on_c, 6, 69, 97
15, 708014, Note_on_c, 6, 74, 89
15, 708016, Note_on_c, 6, 81, 90
15, 708087, Note_on_c, 6, 78, 0
15, 708088, Note_on_c, 6, 69, 0
15, 708094, Note_on_c, 6, 74, 0
15, 708096, Note_on_c, 6, 81, 0
15, 708164, Note_on_c, 6, 81, 85
15, 708169, Note_on_c, 6, 78, 89
15, 708179, Note_on_c, 6, 72, 105
15, 708180, Note_on_c, 6, 76, 96
15, 708182, Note_on_c, 6, 69, 86
15, 708245, Note_on_c, 6, 81, 0
15, 708250, Note_on_c, 6, 78, 0
15, 708260, Note_on_c, 6, 72, 0
15, 708261, Note_on_c, 6, 76, 0
15, 708263, Note_on_c, 6, 69, 0
15, 708325, Note_on_c, 6, 78, 105
15, 708329, Note_on_c, 6, 74, 97
15, 708334, Note_on_c, 6, 81, 91
15, 708337, Note_on_c, 6, 71, 105
15, 708340, Note_on_c, 6, 69, 92
15, 708405, Note_on_c, 6, 78, 0
15, 708409, Note_on_c, 6, 74, 0
15, 708414, Note_on_c, 6, 81, 0
15, 708417, Note_on_c, 6, 71, 0
15, 708420, Note_on_c, 6, 69, 0
15, 710402, Note_on_c, 6, 78, 85
15, 710408, Note_on_c, 6, 69, 85
15, 710420, Note_on_c, 6, 81, 89
15, 710423, Note_on_c, 6, 76, 104
15, 710425, Note_on_c, 6, 80, 105
15, 710482, Note_on_c, 6, 78, 0
15, 710488, Note_on_c, 6, 69, 0
15, 710500, Note_on_c, 6, 81, 0
15, 710503, Note_on_c, 6, 76, 0
15, 710561, Note_on_c, 6, 74, 89
15, 710565, Note_on_c, 6, 69, 92
15, 710583, Note_on_c, 6, 81, 88
15, 710584, Note_on_c, 6, 80, 0
15, 710584, Note_on_c, 6, 78, 100
15, 710642, Note_on_c, 6, 74, 0
15, 710646, Note_on_c, 6, 69, 0
15, 710664, Note_on_c, 6, 81, 0
15, 710665, Note_on_c, 6, 78, 0
15, 710725, Note_on_c, 6, 69, 100
15, 710727, Note_on_c, 6, 81, 105
15, 710734, Note_on_c, 6, 76, 86
15, 710734, Note_on_c, 6, 72, 93
15, 710739, Note_on_c, 6, 78, 92
15, 710805, Note_on_c, 6, 69, 0
15, 710807, Note_on_c, 6, 81, 0
15, 710814, Note_on_c, 6, 76, 0
15, 710814, Note_on_c, 6, 72, 0
15, 710819, Note_on_c, 6, 78, 0
15, 710885, Note_on_c, 6, 74, 103
15, 710893, Note_on_c, 6, 81, 97
15, 710895, Note_on_c, 6, 78, 89
15, 710902, Note_on_c, 6, 69, 91
15, 710965, Note_on_c, 6, 74, 0
15, 710973, Note_on_c, 6, 81, 0
15, 710975, Note_on_c, 6, 78, 0
15, 710982, Note_on_c, 6, 69, 0
15, 711040, Note_on_c, 6, 72, 95
15, 711041, Note_on_c, 6, 81, 102
15, 711044, Note_on_c, 6, 69, 105
15, 711046, Note_on_c, 6, 76, 98
15, 711056, Note_on_c, 6, 78, 93
15, 711121, Note_on_c, 6, 72, 0
15, 711122, Note_on_c, 6, 81, 0
15, 711125, Note_on_c, 6, 69, 0
15, 711127, Note_on_c, 6, 76, 0
15, 711137, Note_on_c, 6, 78, 0
15, 711200, Note_on_c, 6, 69, 94
15, 711202, Note_on_c, 6, 71, 93
15, 711207, Note_on_c, 6, 78, 86
15, 711207, Note_on_c, 6, 74, 102
15, 711213, Note_on_c, 6, 81, 88
15, 711280, Note_on_c, 6, 69, 0
15, 711282, Note_on_c, 6, 71, 0
15, 711287, Note_on_c, 6, 78, 0
15, 711287, Note_on_c, 6, 74, 0
15, 711293, Note_on_c, 6, 81, 0
15, 712805, Note_on_c, 6, 72, 99
15, 712824, Note_on_c, 6, 76, 89
15, 713165, Note_on_c, 6, 72, 0
15, 713184, Note_on_c, 6, 76, 0
15, 713290, Note_on_c, 6, 72, 91
15, 713295, Note_on_c, 6, 76, 101
15, 713650, Note_on_c, 6, 72, 0
15, 713655, Note_on_c, 6, 76, 0
15, 714250, Note_on_c, 6, 72, 94
15, 714258, Note_on_c, 6, 76, 103
15, 714610, Note_on_c, 6, 72, 0
15, 714618, Note_on_c, 6, 76, 0
15, 715444, Note_on_c, 6, 72, 96
15, 715444, Note_on_c, 6, 76, 95
15, 715684, Note_on_c, 6, 72, 0
15, 715684, Note_on_c, 6, 76, 0
15, 716166, Note_on_c, 6, 76, 98
15, 716172, Note_on_c, 6, 72, 89
15, 716526, Note_on_c, 6, 76, 0
15, 716532, Note_on_c, 6, 72, 0
15, 717120, Note_on_c, 6, 76, 93
15, 717134, Note_on_c, 6, 72, 96
15, 717480, Note_on_c, 6, 76, 0
15, 717494, Note_on_c, 6, 72, 0
15, 717847, Note_on_c, 6, 72, 97
15, 717854, Note_on_c, 6, 76, 103
15, 718087, Note_on_c, 6, 72, 0
15, 718094, Note_on_c, 6, 76, 0
15, 719052, Note_on_c, 6, 72, 99
15, 719054, Note_on_c, 6, 76, 99
15, 719412, Note_on_c, 6, 72, 0
15, 719414, Note_on_c, 6, 76, 0
15, 720007, Note_on_c, 6, 76, 85
15, 720010, Note_on_c, 6, 72, 89
15, 720367, Note_on_c, 6, 76, 0
15, 720370, Note_on_c, 6, 72, 0
15, 720962, Note_on_c, 6, 76, 101
15, 720970, Note_on_c, 6, 72, 96
15, 721322, Note_on_c, 6, 76, 0
15, 721330, Note_on_c, 6, 72, 0
15, 730581, Note_on_c, 6, 65, 72
15, 730665, Note_on_c, 6, 65, 0
15, 730683, Note_on_c, 6, 65, 71
15, 730767, Note_on_c, 6, 65, 0
15, 730824, Note_on_c, 6, 65, 66
15, 730908, Note_on_c, 6, 65, 0
15, 730925, Note_on_c, 6, 65, 85
15, 731009, Note_on_c, 6, 65, 0
15, 731060, Note_on_c, 6, 65, 69
15, 731144, Note_on_c, 6, 65, 0
15, 731183, Note_on_c, 6, 65, 78
15, 731267, Note_on_c, 6, 65, 0
15, 731298, Note_on_c, 6, 65, 66
15, 731382, Note_on_c, 6, 65, 0
15, 731402, Note_on_c, 6, 65, 71
15, 731486, Note_on_c, 6, 65, 0
15, 731545, Note_on_c, 6, 65, 68
15, 731629, Note_on_c, 6, 65, 0
15, 731644, Note_on_c, 6, 65, 74
15, 731728, Note_on_c, 6, 65, 0
15, 731782, Note_on_c, 6, 65, 71
15, 731866, Note_on_c, 6, 65, 0
15, 731895, Note_on_c, 6, 65, 73
15, 731979, Note_on_c, 6, 65, 0
15, 732018, Note_on_c, 6, 65, 66
15, 732102, Note_on_c, 6, 65, 0
15, 733448, Note_on_c, 6, 65, 76
15, 733532, Note_on_c, 6, 65, 0
15, 733574, Note_on_c, 6, 65, 66
15, 733658, Note_on_c, 6, 65, 0
15, 733689, Note_on_c, 6, 65, 74
15, 733773, Note_on_c, 6, 65, 0
15, 733804, Note_on_c, 6, 65, 76
15, 733888, Note_on_c, 6, 65, 0
15, 733932, Note_on_c, 6, 65, 73
15, 734016, Note_on_c, 6, 65, 0
15, 734062, Note_on_c, 6, 65, 65
15, 734146, Note_on_c, 6, 65, 0
15, 734173, Note_on_c, 6, 65, 69
15, 734257, Note_on_c, 6, 65, 0
15, 734304, Note_on_c, 6, 65, 74
15, 734388, Note_on_c, 6, 65, 0
15, 734419, Note_on_c, 6, 65, 80
15, 734503, Note_on_c, 6, 65, 0
15, 736337, Note_on_c, 6, 65, 82
15, 736421, Note_on_c, 6, 65, 0
15, 736442, Note_on_c, 6, 65, 84
15, 736526, Note_on_c, 6, 65, 0
15, 736577, Note_on_c, 6, 65, 74
15, 736661, Note_on_c, 6, 65, 0
15, 736690, Note_on_c, 6, 65, 82
15, 736774, Note_on_c, 6, 65, 0
15, 736819, Note_on_c, 6, 65, 76
15, 736903, Note_on_c, 6, 65, 0
15, 738245, Note_on_c, 6, 65, 80
15, 738329, Note_on_c, 6, 65, 0
15, 738374, Note_on_c, 6, 65, 68
15, 738458, Note_on_c, 6, 65, 0
15, 738494, Note_on_c, 6, 65, 66
15, 738578, Note_on_c, 6, 65, 0
15, 738606, Note_on_c, 6, 65, 67
15, 738690, Note_on_c, 6, 65, 0
15, 742087, Note_on_c, 6, 72, 83
15, 742102, Note_on_c, 6, 65, 65
15, 742171, Note_on_c, 6, 72, 0
15, 742186, Note_on_c, 6, 65, 0
15, 742217, Note_on_c, 6, 65, 84
15, 742218, Note_on_c, 6, 72, 84
15, 742301, Note_on_c, 6, 65, 0
15, 742302, Note_on_c, 6, 72, 0
15, 742321, Note_on_c, 6, 65, 67
15, 742339, Note_on_c, 6, 72, 72
15, 742405, Note_on_c, 6, 65, 0
15, 742423, Note_on_c, 6, 72, 0
15, 742444, Note_on_c, 6, 72, 72
15, 742464, Note_on_c, 6, 65, 71
15, 742528, Note_on_c, 6, 72, 0
15, 742548, Note_on_c, 6, 65, 0
15, 742564, Note_on_c, 6, 72, 69
15, 742579, Note_on_c, 6, 65, 65
15, 742648, Note_on_c, 6, 72, 0
15, 742663, Note_on_c, 6, 65, 0
15, 742682, Note_on_c, 6, 65, 75
15, 742689, Note_on_c, 6, 72, 83
15, 742766, Note_on_c, 6, 65, 0
15, 742773, Note_on_c, 6, 72, 0
15, 742801, Note_on_c, 6, 65, 72
15, 742817, Note_on_c, 6, 72, 74
15, 742885, Note_on_c, 6, 65, 0
15, 742901, Note_on_c, 6, 72, 0
15, 742922, Note_on_c, 6, 72, 84
15, 742932, Note_on_c, 6, 65, 78
15, 743006, Note_on_c, 6, 72, 0
15, 743016, Note_on_c, 6, 65, 0
15, 743061, Note_on_c, 6, 65, 69
15, 743061, Note_on_c, 6, 72, 76
15, 743145, Note_on_c, 6, 65, 0
15, 743145, Note_on_c, 6, 72, 0
15, 747368, Note_on_c, 6, 72, 80
15, 747376, Note_on_c, 6, 65, 82
15, 747452, Note_on_c, 6, 72, 0
15, 747460, Note_on_c, 6, 65, 0
15, 747487, Note_on_c, 6, 72, 85
15, 747499, Note_on_c, 6, 65, 71
15, 747571, Note_on_c, 6, 72, 0
15, 747583, Note_on_c, 6, 65, 0
15, 747601, Note_on_c, 6, 65, 72
15, 747606, Note_on_c, 6, 72, 75
15, 747685, Note_on_c, 6, 65, 0
15, 747690, Note_on_c, 6, 72, 0
15, 747721, Note_on_c, 6, 72, 76
15, 747737, Note_on_c, 6, 65, 81
15, 747805, Note_on_c, 6, 72, 0
15, 747821, Note_on_c, 6, 65, 0
15, 747848, Note_on_c, 6, 72, 81
15, 747853, Note_on_c, 6, 65, 77
15, 747932, Note_on_c, 6, 72, 0
15, 747937, Note_on_c, 6, 65, 0
15, 750258, Note_on_c, 6, 72, 73
15, 750262, Note_on_c, 6, 65, 74
15, 750342, Note_on_c, 6, 72, 0
15, 750346, Note_on_c, 6, 65, 0
15, 750371, Note_on_c, 6, 72, 71
15, 750376, Note_on_c, 6, 65, 65
15, 750455, Note_on_c, 6, 72, 0
15, 750460, Note_on_c, 6, 65, 0
15, 750484, Note_on_c, 6, 65, 67
15, 750486, Note_on_c, 6, 72, 72
15, 750568, Note_on_c, 6, 65, 0
15, 750570, Note_on_c, 6, 72, 0
15, 750603, Note_on_c, 6, 72, 70
15, 750609, Note_on_c, 6, 65, 75
15, 750687, Note_on_c, 6, 72, 0
15, 750693, Note_on_c, 6, 65, 0
15, 750727, Note_on_c, 6, 65, 72
15, 750730, Note_on_c, 6, 72, 76
15, 750735, Note_on_c, 6, 77, 75
15, 750811, Note_on_c, 6, 65, 0
15, 750814, Note_on_c, 6, 72, 0
15, 750819, Note_on_c, 6, 77, 0
15, 750843, Note_on_c, 6, 77, 69
15, 750846, Note_on_c, 6, 65, 81
15, 750851, Note_on_c, 6, 72, 76
15, 750927, Note_on_c, 6, 77, 0
15, 750930, Note_on_c, 6, 65, 0
15, 750935, Note_on_c, 6, 72, 0
15, 750962, Note_on_c, 6, 65, 68
15, 750972, Note_on_c, 6, 72, 76
15, 750977, Note_on_c, 6, 77, 71
15, 751046, Note_on_c, 6, 65, 0
15, 751056, Note_on_c, 6, 72, 0
15, 751061, Note_on_c, 6, 77, 0
15, 751101, Note_on_c, 6, 65, 84
15, 751103, Note_on_c, 6, 72, 70
15, 751105, Note_on_c, 6, 77, 72
15, 751185, Note_on_c, 6, 65, 0
15, 751187, Note_on_c, 6, 72, 0
15, 751189, Note_on_c, 6, 77, 0
15, 751203, Note_on_c, 6, 72, 78
15, 751203, Note_on_c, 6, 65, 70
15, 751221, Note_on_c, 6, 77, 66
15, 751287, Note_on_c, 6, 72, 0
15, 751287, Note_on_c, 6, 65, 0
15, 751305, Note_on_c, 6, 77, 0
15, 751341, Note_on_c, 6, 65, 76
15, 751344, Note_on_c, 6, 77, 71
15, 751344, Note_on_c, 6, 72, 65
15, 751425, Note_on_c, 6, 65, 0
15, 751428, Note_on_c, 6, 77, 0
15, 751428, Note_on_c, 6, 72, 0
15, 751441, Note_on_c, 6, 77, 71
15, 751456, Note_on_c, 6, 65, 77
15, 751462, Note_on_c, 6, 72, 75
15, 751525, Note_on_c, 6, 77, 0
15, 751540, Note_on_c, 6, 65, 0
15, 751546, Note_on_c, 6, 72, 0
15, 751569, Note_on_c, 6, 65, 66
15, 751570, Note_on_c, 6, 77, 68
15, 751581, Note_on_c, 6, 72, 78
15, 751653, Note_on_c, 6, 65, 0
15, 751654, Note_on_c, 6, 77, 0
15, 751665, Note_on_c, 6, 72, 0
15, 751680, Note_on_c, 6, 65, 75
15, 751685, Note_on_c, 6, 72, 83
15, 751704, Note_on_c, 6, 77, 85
15, 751764, Note_on_c, 6, 65, 0
15, 751769, Note_on_c, 6, 72, 0
15, 751788, Note_on_c, 6, 77, 0
15, 754565, Note_on_c, 6, 65, 69
15, 754577, Note_on_c, 6, 72, 74
15, 754649, Note_on_c, 6, 65, 0
15, 754661, Note_on_c, 6, 72, 0
15, 754694, Note_on_c, 6, 72, 82
15, 754705, Note_on_c, 6, 65, 70
15, 754778, Note_on_c, 6, 72, 0
15, 754789, Note_on_c, 6, 65, 0
15, 754809, Note_on_c, 6, 65, 81
15, 754822, Note_on_c, 6, 72, 83
15, 754893, Note_on_c, 6, 65, 0
15, 754906, Note_on_c, 6, 72, 0
15, 754933, Note_on_c, 6, 65, 80
15, 754945, Note_on_c, 6, 72, 69
15, 755017, Note_on_c, 6, 65, 0
15, 755029, Note_on_c, 6, 72, 0
15, 755041, Note_on_c, 6, 72, 85
15, 755063, Note_on_c, 6, 65, 81
15, 755125, Note_on_c, 6, 72, 0
15, 755147, Note_on_c, 6, 65, 0
15, 758409, Note_on_c, 6, 65, 74
15, 758419, Note_on_c, 6, 77, 82
15, 758421, Note_on_c, 6, 72, 75
15, 758493, Note_on_c, 6, 65, 0
15, 758503, Note_on_c, 6, 77, 0
15, 758505, Note_on_c, 6, 72, 0
15, 758523, Note_on_c, 6, 65, 83
15, 758528, Note_on_c, 6, 72, 84
15, 758539, Note_on_c, 6, 77, 82
15, 758607, Note_on_c, 6, 65, 0
15, 758612, Note_on_c, 6, 72, 0
15, 758623, Note_on_c, 6, 77, 0
15, 758654, Note_on_c, 6, 77, 80
15, 758662, Note_on_c, 6, 65, 69
15, 758662, Note_on_c, 6, 72, 75
15, 758738, Note_on_c, 6, 77, 0
15, 758746, Note_on_c, 6, 65, 0
15, 758746, Note_on_c, 6, 72, 0
15, 758773, Note_on_c, 6, 65, 71
15, 758780, Note_on_c, 6, 72, 80
15, 758781, Note_on_c, 6, 77, 75
15, 758857, Note_on_c, 6, 65, 0
15, 758864, Note_on_c, 6, 72, 0
15, 758865, Note_on_c, 6, 77, 0
15, 758880, Note_on_c, 6, 72, 65
15, 758884, Note_on_c, 6, 65, 80
15, 758903, Note_on_c, 6, 77, 75
15, 758964, Note_on_c, 6, 72, 0
15, 758968, Note_on_c, 6, 65, 0
15, 758987, Note_on_c, 6, 77, 0
15, 759011, Note_on_c, 6, 72, 78
15, 759012, Note_on_c, 6, 77, 85
15, 759016, Note_on_c, 6, 65, 85
15, 759095, Note_on_c, 6, 72, 0
15, 759096, Note_on_c, 6, 77, 0
15, 759100, Note_on_c, 6, 65, 0
15, 759125, Note_on_c, 6, 77, 82
15, 759125, Note_on_c, 6, 72, 71
15, 759143, Note_on_c, 6, 65, 81
15, 759209, Note_on_c, 6, 77, 0
15, 759209, Note_on_c, 6, 72, 0
15, 759227, Note_on_c, 6, 65, 0
15, 759249, Note_on_c, 6, 77, 67
15, 759252, Note_on_c, 6, 65, 81
15, 759258, Note_on_c, 6, 72, 81
15, 759333, Note_on_c, 6, 77, 0
15, 759336, Note_on_c, 6, 65, 0
15, 759342, Note_on_c, 6, 72, 0
15, 759375, Note_on_c, 6, 65, 79
15, 759378, Note_on_c, 6, 72, 76
15, 759382, Note_on_c, 6, 77, 79
15, 759459, Note_on_c, 6, 65, 0
15, 759462, Note_on_c, 6, 72, 0
15, 759466, Note_on_c, 6, 77, 0
15, 760801, Note_on_c, 6, 77, 81
15, 760806, Note_on_c, 6, 65, 80
15, 760819, Note_on_c, 6, 72, 69
15, 760885, Note_on_c, 6, 77, 0
15, 760890, Note_on_c, 6, 65, 0
15, 760903, Note_on_c, 6, 72, 0
15, 760921, Note_on_c, 6, 72, 76
15, 760926, Note_on_c, 6, 65, 79
15, 760934, Note_on_c, 6, 77, 70
15, 761005, Note_on_c, 6, 72, 0
15, 761010, Note_on_c, 6, 65, 0
15, 761018, Note_on_c, 6, 77, 0
15, 761040, Note_on_c, 6, 72, 78
15, 761055, Note_on_c, 6, 65, 76
15, 761055, Note_on_c, 6, 77, 85
15, 761124, Note_on_c, 6, 72, 0
15, 761139, Note_on_c, 6, 65, 0
15, 761139, Note_on_c, 6, 77, 0
15, 761163, Note_on_c, 6, 77, 80
15, 761165, Note_on_c, 6, 65, 79
15, 761169, Note_on_c, 6, 72, 75
15, 761247, Note_on_c, 6, 77, 0
15, 761249, Note_on_c, 6, 65, 0
15, 761253, Note_on_c, 6, 72, 0
15, 761280, Note_on_c, 6, 77, 67
15, 761290, Note_on_c, 6, 72, 81
15, 761302, Note_on_c, 6, 65, 81
15, 761364, Note_on_c, 6, 77, 0
15, 761374, Note_on_c, 6, 72, 0
15, 761386, Note_on_c, 6, 65, 0
15, 765603, Note_on_c, 6, 64, 112
15, 765607, Note_on_c, 6, 67, 115
15, 765615, Note_on_c, 6, 78, 113
15, 765623, Note_on_c, 6, 72, 110
15, 765625, Note_on_c, 6, 79, 120
15, 765746, Note_on_c, 6, 64, 0
15, 765750, Note_on_c, 6, 67, 0
15, 765758, Note_on_c, 6, 78, 0
15, 765766, Note_on_c, 6, 72, 0
15, 765768, Note_on_c, 6, 79, 0
15, 766802, Note_on_c, 6, 78, 104
15, 766811, Note_on_c, 6, 67, 112
15, 766816, Note_on_c, 6, 64, 112
15, 766817, Note_on_c, 6, 72, 111
15, 766823, Note_on_c, 6, 79, 111
15, 766873, Note_on_c, 6, 78, 0
15, 766882, Note_on_c, 6, 67, 0
15, 766887, Note_on_c, 6, 64, 0
15, 766888, Note_on_c, 6, 72, 0
15, 766894, Note_on_c, 6, 79, 0
15, 768002, Note_on_c, 6, 78, 111
15, 768004, Note_on_c, 6, 64, 111
15, 768004, Note_on_c, 6, 67, 118
15, 768014, Note_on_c, 6, 79, 123
15, 768015, Note_on_c, 6, 72, 124
15, 768145, Note_on_c, 6, 78, 0
15, 768147, Note_on_c, 6, 64, 0
15, 768147, Note_on_c, 6, 67, 0
15, 768157, Note_on_c, 6, 79, 0
15, 768158, Note_on_c, 6, 72, 0
15, 768723, Note_on_c, 6, 67, 108
15, 768731, Note_on_c, 6, 78, 124
15, 768736, Note_on_c, 6, 79, 114
15, 768737, Note_on_c, 6, 64, 121
15, 768741, Note_on_c, 6, 72, 108
15, 768794, Note_on_c, 6, 67, 0
15, 768802, Note_on_c, 6, 78, 0
15, 768807, Note_on_c, 6, 79, 0
15, 768808, Note_on_c, 6, 64, 0
15, 768812, Note_on_c, 6, 72, 0
15, 769447, Note_on_c, 6, 78, 114
15, 769455, Note_on_c, 6, 72, 104
15, 769456, Note_on_c, 6, 64, 121
15, 769458, Note_on_c, 6, 67, 111
15, 769461, Note_on_c, 6, 79, 122
15, 769590, Note_on_c, 6, 78, 0
15, 769598, Note_on_c, 6, 72, 0
15, 769599, Note_on_c, 6, 64, 0
15, 769601, Note_on_c, 6, 67, 0
15, 769604, Note_on_c, 6, 79, 0
15, 770403, Note_on_c, 6, 67, 112
15, 770404, Note_on_c, 6, 78, 124
15, 770411, Note_on_c, 6, 72, 107
15, 770412, Note_on_c, 6, 79, 122
15, 770414, Note_on_c, 6, 64, 124
15, 770546, Note_on_c, 6, 67, 0
15, 770547, Note_on_c, 6, 78, 0
15, 770554, Note_on_c, 6, 72, 0
15, 770555, Note_on_c, 6, 79, 0
15, 770557, Note_on_c, 6, 64, 0
15, 771600, Note_on_c, 6, 79, 121
15, 771603, Note_on_c, 6, 67, 105
15, 771615, Note_on_c, 6, 72, 122
15, 771616, Note_on_c, 6, 64, 116
15, 771617, Note_on_c, 6, 78, 118
15, 771671, Note_on_c, 6, 79, 0
15, 771674, Note_on_c, 6, 67, 0
15, 771686, Note_on_c, 6, 72, 0
15, 771687, Note_on_c, 6, 64, 0
15, 771688, Note_on_c, 6, 78, 0
15, 772802, Note_on_c, 6, 79, 110
15, 772805, Note_on_c, 6, 72, 116
15, 772806, Note_on_c, 6, 78, 119
15, 772814, Note_on_c, 6, 64, 118
15, 772814, Note_on_c, 6, 67, 114
15, 772945, Note_on_c, 6, 79, 0
15, 772948, Note_on_c, 6, 72, 0
15, 772949, Note_on_c, 6, 78, 0
15, 772957, Note_on_c, 6, 64, 0
15, 772957, Note_on_c, 6, 67, 0
15, 772957, End_track
16, 0, Start_track
16, 0, Title_t, "Tromboni I"
16, 0, MIDI_port, 0
16, 0, Program_c, 7, 57
16, 0, Control_c, 7, 7, 127
16, 0, Control_c, 7, 10, 84
16, 0, Control_c, 7, 91, 127
16, 133215, Note_on_c, 7, 53, 67
16, 133310, Note_on_c, 7, 53, 0
16, 133449, Note_on_c, 7, 55, 81
16, 133544, Note_on_c, 7, 55, 0
16, 133700, Note_on_c, 7, 56, 73
16, 133795, Note_on_c, 7, 56, 0
16, 133940, Note_on_c, 7, 58, 65
16, 134035, Note_on_c, 7, 58, 0
16, 134173, Note_on_c, 7, 56, 70
16, 134268, Note_on_c, 7, 56, 0
16, 134419, Note_on_c, 7, 55, 81
16, 134514, Note_on_c, 7, 55, 0
16, 134648, Note_on_c, 7, 53, 70
16, 134743, Note_on_c, 7, 53, 0
16, 146180, Note_on_c, 7, 53, 90
16, 146275, Note_on_c, 7, 53, 0
16, 146416, Note_on_c, 7, 55, 81
16, 146511, Note_on_c, 7, 55, 0
16, 146654, Note_on_c, 7, 56, 78
16, 146749, Note_on_c, 7, 56, 0
16, 146895, Note_on_c, 7, 58, 79
16, 146990, Note_on_c, 7, 58, 0
16, 147120, Note_on_c, 7, 56, 85
16, 147215, Note_on_c, 7, 56, 0
16, 147370, Note_on_c, 7, 55, 93
16, 147465, Note_on_c, 7, 55, 0
16, 147614, Note_on_c, 7, 53, 93
16, 147709, Note_on_c, 7, 53, 0
16, 147852, Note_on_c, 7, 55, 87
16, 147947, Note_on_c, 7, 55, 0
16, 150739, Note_on_c, 7, 51, 113
16, 150742, Note_on_c, 7, 63, 111
16, 150979, Note_on_c, 7, 51, 0
16, 150982, Note_on_c, 7, 63, 0
16, 153133, Note_on_c, 7, 61, 94
16, 153204, Note_on_c, 7, 61, 0
16, 153363, Note_on_c, 7, 58, 86
16, 153434, Note_on_c, 7, 58, 0
16, 153610, Note_on_c, 7, 51, 95
16, 153681, Note_on_c, 7, 51, 0
16, 153840, Note_on_c, 7, 46, 85
16, 153911, Note_on_c, 7, 46, 0
16, 194400, Note_on_c, 7, 61, 71
16, 194438, Note_on_c, 7, 61, 0
16, 194640, Note_on_c, 7, 58, 65
16, 194678, Note_on_c, 7, 58, 0
16, 194904, Note_on_c, 7, 63, 75
16, 194999, Note_on_c, 7, 63, 0
16, 195122, Note_on_c, 7, 58, 70
16, 195217, Note_on_c, 7, 58, 0
16, 195360, Note_on_c, 7, 61, 67
16, 195398, Note_on_c, 7, 61, 0
16, 195600, Note_on_c, 7, 58, 79
16, 195638, Note_on_c, 7, 58, 0
16, 195858, Note_on_c, 7, 63, 75
16, 195953, Note_on_c, 7, 63, 0
16, 196086, Note_on_c, 7, 58, 75
16, 196181, Note_on_c, 7, 58, 0
16, 196320, Note_on_c, 7, 61, 73
16, 196358, Note_on_c, 7, 61, 0
16, 196560, Note_on_c, 7, 58, 81
16, 196598, Note_on_c, 7, 58, 0
16, 196800, Note_on_c, 7, 63, 65
16, 196895, Note_on_c, 7, 63, 0
16, 197061, Note_on_c, 7, 58, 84
16, 197156, Note_on_c, 7, 58, 0
16, 197280, Note_on_c, 7, 61, 66
16, 197318, Note_on_c, 7, 61, 0
16, 197520, Note_on_c, 7, 58, 78
16, 197558, Note_on_c, 7, 58, 0
16, 197767, Note_on_c, 7, 63, 69
16, 197862, Note_on_c, 7, 63, 0
16, 198003, Note_on_c, 7, 58, 85
16, 198098, Note_on_c, 7, 58, 0
16, 198258, Note_on_c, 7, 61, 76
16, 198353, Note_on_c, 7, 61, 0
16, 198499, Note_on_c, 7, 58, 72
16, 198594, Note_on_c, 7, 58, 0
16, 198722, Note_on_c, 7, 63, 83
16, 198817, Note_on_c, 7, 63, 0
16, 198968, Note_on_c, 7, 58, 82
16, 199063, Note_on_c, 7, 58, 0
16, 199200, Note_on_c, 7, 61, 66
16, 199295, Note_on_c, 7, 61, 0
16, 199449, Note_on_c, 7, 58, 80
16, 199544, Note_on_c, 7, 58, 0
16, 199699, Note_on_c, 7, 63, 71
16, 199794, Note_on_c, 7, 63, 0
16, 199937, Note_on_c, 7, 58, 78
16, 200032, Note_on_c, 7, 58, 0
16, 200162, Note_on_c, 7, 61, 69
16, 200257, Note_on_c, 7, 61, 0
16, 200418, Note_on_c, 7, 58, 68
16, 200513, Note_on_c, 7, 58, 0
16, 200641, Note_on_c, 7, 63, 66
16, 200736, Note_on_c, 7, 63, 0
16, 200903, Note_on_c, 7, 58, 73
16, 200998, Note_on_c, 7, 58, 0
16, 201140, Note_on_c, 7, 61, 76
16, 201235, Note_on_c, 7, 61, 0
16, 201380, Note_on_c, 7, 58, 72
16, 201475, Note_on_c, 7, 58, 0
16, 201608, Note_on_c, 7, 63, 65
16, 201703, Note_on_c, 7, 63, 0
16, 201853, Note_on_c, 7, 58, 69
16, 201948, Note_on_c, 7, 58, 0
16, 202098, Note_on_c, 7, 61, 84
16, 202193, Note_on_c, 7, 61, 0
16, 202330, Note_on_c, 7, 58, 78
16, 202425, Note_on_c, 7, 58, 0
16, 202582, Note_on_c, 7, 63, 73
16, 202677, Note_on_c, 7, 63, 0
16, 202802, Note_on_c, 7, 58, 81
16, 202897, Note_on_c, 7, 58, 0
16, 203045, Note_on_c, 7, 61, 69
16, 203140, Note_on_c, 7, 61, 0
16, 203288, Note_on_c, 7, 58, 82
16, 203383, Note_on_c, 7, 58, 0
16, 203543, Note_on_c, 7, 63, 69
16, 203638, Note_on_c, 7, 63, 0
16, 203778, Note_on_c, 7, 58, 65
16, 203873, Note_on_c, 7, 58, 0
16, 204006, Note_on_c, 7, 61, 75
16, 204101, Note_on_c, 7, 61, 0
16, 204264, Note_on_c, 7, 58, 83
16, 204359, Note_on_c, 7, 58, 0
16, 204494, Note_on_c, 7, 63, 83
16, 204589, Note_on_c, 7, 63, 0
16, 204729, Note_on_c, 7, 58, 67
16, 204824, Note_on_c, 7, 58, 0
16, 204971, Note_on_c, 7, 61, 84
16, 205066, Note_on_c, 7, 61, 0
16, 205221, Note_on_c, 7, 58, 78
16, 205316, Note_on_c, 7, 58, 0
16, 205460, Note_on_c, 7, 63, 84
16, 205555, Note_on_c, 7, 63, 0
16, 205680, Note_on_c, 7, 58, 68
16, 205775, Note_on_c, 7, 58, 0
16, 205944, Note_on_c, 7, 61, 70
16, 206039, Note_on_c, 7, 61, 0
16, 206181, Note_on_c, 7, 58, 75
16, 206276, Note_on_c, 7, 58, 0
16, 206412, Note_on_c, 7, 63, 70
16, 206507, Note_on_c, 7, 63, 0
16, 206650, Note_on_c, 7, 58, 71
16, 206745, Note_on_c, 7, 58, 0
16, 206896, Note_on_c, 7, 61, 79
16, 206991, Note_on_c, 7, 61, 0
16, 207140, Note_on_c, 7, 58, 77
16, 207235, Note_on_c, 7, 58, 0
16, 207385, Note_on_c, 7, 63, 82
16, 207480, Note_on_c, 7, 63, 0
16, 207621, Note_on_c, 7, 58, 82
16, 207716, Note_on_c, 7, 58, 0
16, 207841, Note_on_c, 7, 61, 73
16, 207936, Note_on_c, 7, 61, 0
16, 208080, Note_on_c, 7, 58, 78
16, 208175, Note_on_c, 7, 58, 0
16, 208333, Note_on_c, 7, 63, 71
16, 208428, Note_on_c, 7, 63, 0
16, 208585, Note_on_c, 7, 58, 74
16, 208680, Note_on_c, 7, 58, 0
16, 208823, Note_on_c, 7, 61, 78
16, 208918, Note_on_c, 7, 61, 0
16, 209053, Note_on_c, 7, 58, 66
16, 209148, Note_on_c, 7, 58, 0
16, 209302, Note_on_c, 7, 63, 78
16, 209397, Note_on_c, 7, 63, 0
16, 209532, Note_on_c, 7, 58, 81
16, 209627, Note_on_c, 7, 58, 0
16, 209760, Note_on_c, 7, 61, 72
16, 209855, Note_on_c, 7, 61, 0
16, 210012, Note_on_c, 7, 58, 75
16, 210107, Note_on_c, 7, 58, 0
16, 210261, Note_on_c, 7, 63, 71
16, 210356, Note_on_c, 7, 63, 0
16, 210502, Note_on_c, 7, 58, 75
16, 210597, Note_on_c, 7, 58, 0
16, 210737, Note_on_c, 7, 61, 72
16, 210832, Note_on_c, 7, 61, 0
16, 210977, Note_on_c, 7, 58, 71
16, 211072, Note_on_c, 7, 58, 0
16, 211202, Note_on_c, 7, 63, 80
16, 211297, Note_on_c, 7, 63, 0
16, 211457, Note_on_c, 7, 58, 72
16, 211552, Note_on_c, 7, 58, 0
16, 238569, Note_on_c, 7, 69, 94
16, 238664, Note_on_c, 7, 69, 0
16, 238816, Note_on_c, 7, 72, 90
16, 238911, Note_on_c, 7, 72, 0
16, 239043, Note_on_c, 7, 71, 98
16, 239138, Note_on_c, 7, 71, 0
16, 239294, Note_on_c, 7, 74, 86
16, 239389, Note_on_c, 7, 74, 0
16, 239521, Note_on_c, 7, 69, 85
16, 239616, Note_on_c, 7, 69, 0
16, 239781, Note_on_c, 7, 72, 79
16, 239876, Note_on_c, 7, 72, 0
16, 240011, Note_on_c, 7, 71, 81
16, 240106, Note_on_c, 7, 71, 0
16, 240241, Note_on_c, 7, 74, 96
16, 240336, Note_on_c, 7, 74, 0
16, 240482, Note_on_c, 7, 69, 89
16, 240577, Note_on_c, 7, 69, 0
16, 240722, Note_on_c, 7, 72, 85
16, 240817, Note_on_c, 7, 72, 0
16, 240979, Note_on_c, 7, 71, 86
16, 241074, Note_on_c, 7, 71, 0
16, 241215, Note_on_c, 7, 74, 79
16, 241310, Note_on_c, 7, 74, 0
16, 241450, Note_on_c, 7, 69, 85
16, 241545, Note_on_c, 7, 69, 0
16, 241688, Note_on_c, 7, 72, 81
16, 241783, Note_on_c, 7, 72, 0
16, 241940, Note_on_c, 7, 71, 94
16, 242035, Note_on_c, 7, 71, 0
16, 242179, Note_on_c, 7, 74, 91
16, 242274, Note_on_c, 7, 74, 0
16, 242419, Note_on_c, 7, 69, 89
16, 242514, Note_on_c, 7, 69, 0
16, 242654, Note_on_c, 7, 72, 93
16, 242749, Note_on_c, 7, 72, 0
16, 242882, Note_on_c, 7, 71, 78
16, 242977, Note_on_c, 7, 71, 0
16, 243136, Note_on_c, 7, 74, 92
16, 243231, Note_on_c, 7, 74, 0
16, 243379, Note_on_c, 7, 69, 85
16, 243474, Note_on_c, 7, 69, 0
16, 243625, Note_on_c, 7, 72, 83
16, 243720, Note_on_c, 7, 72, 0
16, 243850, Note_on_c, 7, 71, 92
16, 243945, Note_on_c, 7, 71, 0
16, 244084, Note_on_c, 7, 74, 78
16, 244179, Note_on_c, 7, 74, 0
16, 244320, Note_on_c, 7, 69, 93
16, 244415, Note_on_c, 7, 69, 0
16, 244572, Note_on_c, 7, 72, 97
16, 244667, Note_on_c, 7, 72, 0
16, 244800, Note_on_c, 7, 71, 86
16, 244895, Note_on_c, 7, 71, 0
16, 245059, Note_on_c, 7, 74, 96
16, 245154, Note_on_c, 7, 74, 0
16, 245303, Note_on_c, 7, 69, 78
16, 245398, Note_on_c, 7, 69, 0
16, 245526, Note_on_c, 7, 72, 86
16, 245621, Note_on_c, 7, 72, 0
16, 245762, Note_on_c, 7, 71, 79
16, 245857, Note_on_c, 7, 71, 0
16, 246025, Note_on_c, 7, 74, 88
16, 246120, Note_on_c, 7, 74, 0
16, 246248, Note_on_c, 7, 69, 88
16, 246343, Note_on_c, 7, 69, 0
16, 246491, Note_on_c, 7, 72, 97
16, 246586, Note_on_c, 7, 72, 0
16, 246736, Note_on_c, 7, 71, 82
16, 246831, Note_on_c, 7, 71, 0
16, 246960, Note_on_c, 7, 74, 96
16, 247055, Note_on_c, 7, 74, 0
16, 247222, Note_on_c, 7, 69, 94
16, 247317, Note_on_c, 7, 69, 0
16, 247445, Note_on_c, 7, 72, 97
16, 247540, Note_on_c, 7, 72, 0
16, 247699, Note_on_c, 7, 71, 86
16, 247794, Note_on_c, 7, 71, 0
16, 247944, Note_on_c, 7, 74, 89
16, 248039, Note_on_c, 7, 74, 0
16, 248170, Note_on_c, 7, 69, 95
16, 248265, Note_on_c, 7, 69, 0
16, 248401, Note_on_c, 7, 72, 81
16, 248496, Note_on_c, 7, 72, 0
16, 248656, Note_on_c, 7, 71, 90
16, 248751, Note_on_c, 7, 71, 0
16, 248880, Note_on_c, 7, 74, 88
16, 248975, Note_on_c, 7, 74, 0
16, 249128, Note_on_c, 7, 69, 96
16, 249223, Note_on_c, 7, 69, 0
16, 249381, Note_on_c, 7, 72, 97
16, 249476, Note_on_c, 7, 72, 0
16, 249618, Note_on_c, 7, 71, 85
16, 249713, Note_on_c, 7, 71, 0
16, 249846, Note_on_c, 7, 74, 78
16, 249941, Note_on_c, 7, 74, 0
16, 268325, Note_on_c, 7, 52, 93
16, 268565, Note_on_c, 7, 52, 0
16, 268570, Note_on_c, 7, 55, 82
16, 268810, Note_on_c, 7, 55, 0
16, 268816, Note_on_c, 7, 57, 96
16, 269053, Note_on_c, 7, 61, 78
16, 269056, Note_on_c, 7, 57, 0
16, 269290, Note_on_c, 7, 64, 80
16, 269293, Note_on_c, 7, 61, 0
16, 269528, Note_on_c, 7, 60, 82
16, 269530, Note_on_c, 7, 64, 0
16, 269768, Note_on_c, 7, 60, 0
16, 291856, Note_on_c, 7, 52, 98
16, 291859, Note_on_c, 7, 55, 96
16, 291976, Note_on_c, 7, 52, 0
16, 291979, Note_on_c, 7, 55, 0
16, 292091, Note_on_c, 7, 59, 103
16, 292100, Note_on_c, 7, 56, 104
16, 292211, Note_on_c, 7, 59, 0
16, 292220, Note_on_c, 7, 56, 0
16, 292331, Note_on_c, 7, 62, 107
16, 292338, Note_on_c, 7, 59, 93
16, 292451, Note_on_c, 7, 62, 0
16, 292458, Note_on_c, 7, 59, 0
16, 292562, Note_on_c, 7, 55, 100
16, 292578, Note_on_c, 7, 58, 108
16, 292682, Note_on_c, 7, 55, 0
16, 292698, Note_on_c, 7, 58, 0
16, 292802, Note_on_c, 7, 59, 92
16, 292806, Note_on_c, 7, 62, 91
16, 292922, Note_on_c, 7, 59, 0
16, 292926, Note_on_c, 7, 62, 0
16, 293050, Note_on_c, 7, 62, 111
16, 293053, Note_on_c, 7, 65, 103
16, 293170, Note_on_c, 7, 62, 0
16, 293173, Note_on_c, 7, 65, 0
16, 305534, Note_on_c, 7, 67, 97
16, 305541, Note_on_c, 7, 61, 91
16, 305654, Note_on_c, 7, 67, 0
16, 305661, Note_on_c, 7, 61, 0
16, 305769, Note_on_c, 7, 67, 110
16, 305774, Note_on_c, 7, 61, 107
16, 305889, Note_on_c, 7, 67, 0
16, 305894, Note_on_c, 7, 61, 0
16, 306001, Note_on_c, 7, 67, 108
16, 306016, Note_on_c, 7, 61, 105
16, 306121, Note_on_c, 7, 67, 0
16, 306136, Note_on_c, 7, 61, 0
16, 306244, Note_on_c, 7, 67, 95
16, 306260, Note_on_c, 7, 61, 96
16, 306364, Note_on_c, 7, 67, 0
16, 306380, Note_on_c, 7, 61, 0
16, 306500, Note_on_c, 7, 61, 108
16, 306503, Note_on_c, 7, 67, 95
16, 306620, Note_on_c, 7, 61, 0
16, 306623, Note_on_c, 7, 67, 0
16, 306739, Note_on_c, 7, 67, 106
16, 306740, Note_on_c, 7, 61, 93
16, 306859, Note_on_c, 7, 67, 0
16, 306860, Note_on_c, 7, 61, 0
16, 306976, Note_on_c, 7, 61, 103
16, 306981, Note_on_c, 7, 67, 106
16, 307096, Note_on_c, 7, 61, 0
16, 307101, Note_on_c, 7, 67, 0
16, 307203, Note_on_c, 7, 61, 97
16, 307219, Note_on_c, 7, 67, 95
16, 307323, Note_on_c, 7, 61, 0
16, 307339, Note_on_c, 7, 67, 0
16, 307458, Note_on_c, 7, 67, 92
16, 307462, Note_on_c, 7, 61, 111
16, 307578, Note_on_c, 7, 67, 0
16, 307582, Note_on_c, 7, 61, 0
16, 307686, Note_on_c, 7, 67, 105
16, 307705, Note_on_c, 7, 61, 110
16, 307806, Note_on_c, 7, 67, 0
16, 307825, Note_on_c, 7, 61, 0
16, 307937, Note_on_c, 7, 61, 102
16, 307945, Note_on_c, 7, 67, 92
16, 308057, Note_on_c, 7, 61, 0
16, 308065, Note_on_c, 7, 67, 0
16, 308161, Note_on_c, 7, 61, 110
16, 308169, Note_on_c, 7, 67, 97
16, 308281, Note_on_c, 7, 61, 0
16, 308289, Note_on_c, 7, 67, 0
16, 308423, Note_on_c, 7, 67, 107
16, 308424, Note_on_c, 7, 61, 95
16, 308543, Note_on_c, 7, 67, 0
16, 308544, Note_on_c, 7, 61, 0
16, 308647, Note_on_c, 7, 67, 111
16, 308655, Note_on_c, 7, 61, 105
16, 308767, Note_on_c, 7, 67, 0
16, 308775, Note_on_c, 7, 61, 0
16, 311058, Note_on_c, 7, 54, 84
16, 311062, Note_on_c, 7, 60, 95
16, 311178, Note_on_c, 7, 54, 0
16, 311182, Note_on_c, 7, 60, 0
16, 311282, Note_on_c, 7, 60, 81
16, 311298, Note_on_c, 7, 54, 94
16, 311402, Note_on_c, 7, 60, 0
16, 311418, Note_on_c, 7, 54, 0
16, 311530, Note_on_c, 7, 60, 97
16, 311531, Note_on_c, 7, 54, 79
16, 311650, Note_on_c, 7, 60, 0
16, 311651, Note_on_c, 7, 54, 0
16, 311768, Note_on_c, 7, 60, 87
16, 311781, Note_on_c, 7, 54, 92
16, 311888, Note_on_c, 7, 60, 0
16, 311901, Note_on_c, 7, 54, 0
16, 312011, Note_on_c, 7, 54, 84
16, 312018, Note_on_c, 7, 60, 95
16, 312131, Note_on_c, 7, 54, 0
16, 312138, Note_on_c, 7, 60, 0
16, 312242, Note_on_c, 7, 60, 85
16, 312259, Note_on_c, 7, 54, 95
16, 312362, Note_on_c, 7, 60, 0
16, 312379, Note_on_c, 7, 54, 0
16, 312499, Note_on_c, 7, 54, 79
16, 312504, Note_on_c, 7, 60, 90
16, 312619, Note_on_c, 7, 54, 0
16, 312624, Note_on_c, 7, 60, 0
16, 312722, Note_on_c, 7, 60, 96
16, 312723, Note_on_c, 7, 54, 84
16, 312842, Note_on_c, 7, 60, 0
16, 312843, Note_on_c, 7, 54, 0
16, 312979, Note_on_c, 7, 60, 82
16, 312982, Note_on_c, 7, 54, 94
16, 313099, Note_on_c, 7, 60, 0
16, 313102, Note_on_c, 7, 54, 0
16, 313220, Note_on_c, 7, 60, 87
16, 313223, Note_on_c, 7, 54, 78
16, 313340, Note_on_c, 7, 60, 0
16, 313343, Note_on_c, 7, 54, 0
16, 313451, Note_on_c, 7, 54, 95
16, 313453, Note_on_c, 7, 60, 97
16, 313571, Note_on_c, 7, 54, 0
16, 313573, Note_on_c, 7, 60, 0
16, 313680, Note_on_c, 7, 60, 85
16, 313702, Note_on_c, 7, 54, 90
16, 313800, Note_on_c, 7, 60, 0
16, 313822, Note_on_c, 7, 54, 0
16, 326643, Note_on_c, 7, 66, 116
16, 326883, Note_on_c, 7, 66, 0
16, 326892, Note_on_c, 7, 61, 123
16, 328332, Note_on_c, 7, 61, 0
16, 354246, Note_on_c, 7, 54, 92
16, 354249, Note_on_c, 7, 60, 102
16, 354389, Note_on_c, 7, 54, 0
16, 354392, Note_on_c, 7, 60, 0
16, 355690, Note_on_c, 7, 60, 85
16, 355698, Note_on_c, 7, 54, 87
16, 355833, Note_on_c, 7, 60, 0
16, 355841, Note_on_c, 7, 54, 0
16, 357138, Note_on_c, 7, 60, 92
16, 357143, Note_on_c, 7, 54, 90
16, 357281, Note_on_c, 7, 60, 0
16, 357286, Note_on_c, 7, 54, 0
16, 358081, Note_on_c, 7, 60, 86
16, 358104, Note_on_c, 7, 54, 103
16, 358224, Note_on_c, 7, 60, 0
16, 358247, Note_on_c, 7, 54, 0
16, 434400, Pitch_bend_c, 7, 8192
16, 434408, Pitch_bend_c, 7, 7872
16, 434409, Note_on_c, 7, 66, 98
16, 434416, Pitch_bend_c, 7, 7552
16, 434423, Note_on_c, 7, 58, 109
16, 434425, Pitch_bend_c, 7, 7232
16, 434433, Pitch_bend_c, 7, 6912
16, 434442, Pitch_bend_c, 7, 6592
16, 434450, Pitch_bend_c, 7, 6272
16, 434459, Pitch_bend_c, 7, 5952
16, 434468, Pitch_bend_c, 7, 5632
16, 434476, Pitch_bend_c, 7, 5312
16, 434485, Pitch_bend_c, 7, 4992
16, 434493, Pitch_bend_c, 7, 4672
16, 434501, Pitch_bend_c, 7, 4352
16, 434510, Pitch_bend_c, 7, 4032
16, 434519, Pitch_bend_c, 7, 3712
16, 434527, Pitch_bend_c, 7, 3392
16, 434536, Pitch_bend_c, 7, 3072
16, 434544, Pitch_bend_c, 7, 2752
16, 434553, Pitch_bend_c, 7, 2432
16, 434561, Pitch_bend_c, 7, 2112
16, 434570, Pitch_bend_c, 7, 1792
16, 434578, Pitch_bend_c, 7, 1472
16, 434587, Pitch_bend_c, 7, 1152
16, 434596, Pitch_bend_c, 7, 832
16, 434604, Pitch_bend_c, 7, 512
16, 434613, Pitch_bend_c, 7, 192
16, 434889, Note_on_c, 7, 66, 0
16, 434903, Note_on_c, 7, 58, 0
16, 441595, Pitch_bend_c, 7, 7872
16, 441600, Note_on_c, 7, 69, 99
16, 441601, Note_on_c, 7, 64, 100
16, 441605, Pitch_bend_c, 7, 7552
16, 441615, Pitch_bend_c, 7, 7232
16, 441624, Pitch_bend_c, 7, 6912
16, 441633, Pitch_bend_c, 7, 6592
16, 441643, Pitch_bend_c, 7, 6272
16, 441653, Pitch_bend_c, 7, 5952
16, 441663, Pitch_bend_c, 7, 5632
16, 441673, Pitch_bend_c, 7, 5312
16, 441682, Pitch_bend_c, 7, 4992
16, 441691, Pitch_bend_c, 7, 4672
16, 441701, Pitch_bend_c, 7, 4352
16, 441711, Pitch_bend_c, 7, 4032
16, 441721, Pitch_bend_c, 7, 3712
16, 441730, Pitch_bend_c, 7, 3392
16, 441740, Pitch_bend_c, 7, 3072
16, 441750, Pitch_bend_c, 7, 2752
16, 441759, Pitch_bend_c, 7, 2432
16, 441769, Pitch_bend_c, 7, 2112
16, 441779, Pitch_bend_c, 7, 1792
16, 441788, Pitch_bend_c, 7, 1472
16, 441798, Pitch_bend_c, 7, 1152
16, 441808, Pitch_bend_c, 7, 832
16, 441817, Pitch_bend_c, 7, 512
16, 441827, Pitch_bend_c, 7, 192
16, 442080, Note_on_c, 7, 69, 0
16, 442080, Pitch_bend_c, 7, 8192
16, 442081, Note_on_c, 7, 64, 0
16, 444955, Pitch_bend_c, 7, 7872
16, 444965, Pitch_bend_c, 7, 7552
16, 444973, Note_on_c, 7, 69, 104
16, 444975, Pitch_bend_c, 7, 7232
16, 444976, Note_on_c, 7, 64, 98
16, 444984, Pitch_bend_c, 7, 6912
16, 444993, Pitch_bend_c, 7, 6592
16, 445003, Pitch_bend_c, 7, 6272
16, 445013, Pitch_bend_c, 7, 5952
16, 445023, Pitch_bend_c, 7, 5632
16, 445033, Pitch_bend_c, 7, 5312
16, 445042, Pitch_bend_c, 7, 4992
16, 445051, Pitch_bend_c, 7, 4672
16, 445061, Pitch_bend_c, 7, 4352
16, 445071, Pitch_bend_c, 7, 4032
16, 445081, Pitch_bend_c, 7, 3712
16, 445090, Pitch_bend_c, 7, 3392
16, 445100, Pitch_bend_c, 7, 3072
16, 445110, Pitch_bend_c, 7, 2752
16, 445119, Pitch_bend_c, 7, 2432
16, 445129, Pitch_bend_c, 7, 2112
16, 445139, Pitch_bend_c, 7, 1792
16, 445148, Pitch_bend_c, 7, 1472
16, 445158, Pitch_bend_c, 7, 1152
16, 445168, Pitch_bend_c, 7, 832
16, 445177, Pitch_bend_c, 7, 512
16, 445187, Pitch_bend_c, 7, 192
16, 445440, Pitch_bend_c, 7, 8192
16, 445453, Note_on_c, 7, 69, 0
16, 445456, Note_on_c, 7, 64, 0
16, 445463, Note_on_c, 7, 62, 112
16, 445934, Note_on_c, 7, 59, 114
16, 445942, Note_on_c, 7, 56, 118
16, 445943, Note_on_c, 7, 62, 0
16, 446400, Note_on_c, 7, 55, 112
16, 446410, Note_on_c, 7, 52, 108
16, 446414, Note_on_c, 7, 59, 0
16, 446422, Note_on_c, 7, 56, 0
16, 447360, Note_on_c, 7, 55, 0
16, 447370, Note_on_c, 7, 52, 0
16, 448800, Note_on_c, 7, 55, 101
16, 448825, Note_on_c, 7, 50, 92
16, 448943, Note_on_c, 7, 55, 0
16, 448968, Note_on_c, 7, 50, 0
16, 455044, Note_on_c, 7, 55, 85
16, 455048, Note_on_c, 7, 52, 96
16, 455187, Note_on_c, 7, 55, 0
16, 455191, Note_on_c, 7, 52, 0
16, 455523, Note_on_c, 7, 52, 91
16, 455532, Note_on_c, 7, 55, 87
16, 455666, Note_on_c, 7, 52, 0
16, 455675, Note_on_c, 7, 55, 0
16, 457939, Note_on_c, 7, 63, 88
16, 457943, Note_on_c, 7, 67, 89
16, 458130, Note_on_c, 7, 63, 0
16, 458134, Note_on_c, 7, 67, 0
16, 458413, Note_on_c, 7, 64, 84
16, 458414, Note_on_c, 7, 65, 83
16, 458604, Note_on_c, 7, 64, 0
16, 458605, Note_on_c, 7, 65, 0
16, 458889, Note_on_c, 7, 64, 94
16, 458902, Note_on_c, 7, 67, 84
16, 459080, Note_on_c, 7, 64, 0
16, 459093, Note_on_c, 7, 67, 0
16, 459368, Note_on_c, 7, 65, 97
16, 459377, Note_on_c, 7, 64, 85
16, 459559, Note_on_c, 7, 65, 0
16, 459568, Note_on_c, 7, 64, 0
16, 459854, Note_on_c, 7, 63, 82
16, 459864, Note_on_c, 7, 67, 85
16, 460045, Note_on_c, 7, 63, 0
16, 460055, Note_on_c, 7, 67, 0
16, 460332, Note_on_c, 7, 64, 90
16, 460337, Note_on_c, 7, 65, 88
16, 460523, Note_on_c, 7, 64, 0
16, 460528, Note_on_c, 7, 65, 0
16, 460806, Note_on_c, 7, 64, 97
16, 460806, Note_on_c, 7, 67, 92
16, 460997, Note_on_c, 7, 64, 0
16, 460997, Note_on_c, 7, 67, 0
16, 461286, Note_on_c, 7, 65, 79
16, 461300, Note_on_c, 7, 64, 94
16, 461477, Note_on_c, 7, 65, 0
16, 461491, Note_on_c, 7, 64, 0
16, 461764, Note_on_c, 7, 55, 91
16, 461775, Note_on_c, 7, 52, 103
16, 461907, Note_on_c, 7, 55, 0
16, 461918, Note_on_c, 7, 52, 0
16, 466081, Note_on_c, 7, 52, 97
16, 466081, Note_on_c, 7, 55, 91
16, 466224, Note_on_c, 7, 52, 0
16, 466224, Note_on_c, 7, 55, 0
16, 466560, Note_on_c, 7, 52, 105
16, 466565, Note_on_c, 7, 55, 95
16, 466703, Note_on_c, 7, 52, 0
16, 466708, Note_on_c, 7, 55, 0
16, 468961, Note_on_c, 7, 55, 100
16, 468969, Note_on_c, 7, 52, 105
16, 469104, Note_on_c, 7, 55, 0
16, 469112, Note_on_c, 7, 52, 0
16, 489618, Note_on_c, 7, 48, 88
16, 490458, Note_on_c, 7, 48, 0
16, 490583, Note_on_c, 7, 42, 96
16, 490943, Note_on_c, 7, 42, 0
16, 491045, Note_on_c, 7, 48, 96
16, 491405, Note_on_c, 7, 48, 0
16, 491522, Note_on_c, 7, 42, 87
16, 491882, Note_on_c, 7, 42, 0
16, 492014, Note_on_c, 7, 48, 86
16, 492854, Note_on_c, 7, 48, 0
16, 492976, Note_on_c, 7, 48, 87
16, 493336, Note_on_c, 7, 48, 0
16, 493462, Note_on_c, 7, 42, 81
16, 493822, Note_on_c, 7, 42, 0
16, 493935, Note_on_c, 7, 48, 80
16, 494055, Note_on_c, 7, 48, 0
16, 497299, Note_on_c, 7, 68, 127
16, 497304, Note_on_c, 7, 56, 121
16, 498259, Note_on_c, 7, 68, 0
16, 498264, Note_on_c, 7, 56, 0
16, 499214, Note_on_c, 7, 56, 127
16, 499217, Note_on_c, 7, 68, 125
16, 499405, Note_on_c, 7, 56, 0
16, 499408, Note_on_c, 7, 68, 0
16, 503528, Note_on_c, 7, 68, 118
16, 503536, Note_on_c, 7, 56, 127
16, 504488, Note_on_c, 7, 68, 0
16, 504496, Note_on_c, 7, 56, 0
16, 505441, Note_on_c, 7, 68, 127
16, 505459, Note_on_c, 7, 56, 124
16, 505632, Note_on_c, 7, 68, 0
16, 505650, Note_on_c, 7, 56, 0
16, 506881, Note_on_c, 7, 56, 123
16, 506892, Note_on_c, 7, 68, 127
16, 507841, Note_on_c, 7, 56, 0
16, 507852, Note_on_c, 7, 68, 0
16, 563520, Program_c, 7, 57
16, 564023, Note_on_c, 7, 55, 105
16, 564383, Note_on_c, 7, 55, 0
16, 564498, Note_on_c, 7, 55, 119
16, 564498, Note_on_c, 7, 58, 101
16, 564858, Note_on_c, 7, 55, 0
16, 564858, Note_on_c, 7, 58, 0
16, 564972, Note_on_c, 7, 58, 127
16, 564981, Note_on_c, 7, 61, 124
16, 565332, Note_on_c, 7, 58, 0
16, 565341, Note_on_c, 7, 61, 0
16, 565440, Note_on_c, 7, 63, 109
16, 565461, Note_on_c, 7, 58, 108
16, 565800, Note_on_c, 7, 63, 0
16, 565821, Note_on_c, 7, 58, 0
16, 565926, Note_on_c, 7, 62, 110
16, 565934, Note_on_c, 7, 65, 114
16, 566046, Note_on_c, 7, 62, 0
16, 566054, Note_on_c, 7, 65, 0
16, 566167, Note_on_c, 7, 63, 109
16, 566170, Note_on_c, 7, 67, 115
16, 566287, Note_on_c, 7, 63, 0
16, 566290, Note_on_c, 7, 67, 0
16, 566418, Note_on_c, 7, 69, 109
16, 566424, Note_on_c, 7, 65, 104
16, 566538, Note_on_c, 7, 69, 0
16, 566544, Note_on_c, 7, 65, 0
16, 568817, Note_on_c, 7, 63, 112
16, 568820, Note_on_c, 7, 58, 104
16, 569177, Note_on_c, 7, 63, 0
16, 569180, Note_on_c, 7, 58, 0
16, 569282, Note_on_c, 7, 65, 120
16, 569297, Note_on_c, 7, 62, 102
16, 569402, Note_on_c, 7, 65, 0
16, 569417, Note_on_c, 7, 62, 0
16, 569527, Note_on_c, 7, 63, 114
16, 569527, Note_on_c, 7, 67, 119
16, 569647, Note_on_c, 7, 63, 0
16, 569647, Note_on_c, 7, 67, 0
16, 569773, Note_on_c, 7, 69, 100
16, 569781, Note_on_c, 7, 65, 115
16, 569893, Note_on_c, 7, 69, 0
16, 569901, Note_on_c, 7, 65, 0
16, 588012, Note_on_c, 7, 62, 95
16, 588016, Note_on_c, 7, 65, 104
16, 588203, Note_on_c, 7, 62, 0
16, 588207, Note_on_c, 7, 65, 0
16, 588968, Note_on_c, 7, 62, 90
16, 588980, Note_on_c, 7, 65, 85
16, 589159, Note_on_c, 7, 62, 0
16, 589171, Note_on_c, 7, 65, 0
16, 593761, Note_on_c, 7, 65, 98
16, 593775, Note_on_c, 7, 69, 102
16, 593952, Note_on_c, 7, 65, 0
16, 593966, Note_on_c, 7, 69, 0
16, 598085, Note_on_c, 7, 65, 101
16, 598097, Note_on_c, 7, 69, 85
16, 598276, Note_on_c, 7, 65, 0
16, 598288, Note_on_c, 7, 69, 0
16, 601442, Note_on_c, 7, 69, 103
16, 601461, Note_on_c, 7, 65, 104
16, 601541, Note_on_c, 7, 71, 102
16, 601545, Note_on_c, 7, 67, 96
16, 601562, Note_on_c, 7, 69, 0
16, 601581, Note_on_c, 7, 65, 0
16, 601600, Note_on_c, 7, 65, 101
16, 601610, Note_on_c, 7, 69, 93
16, 601659, Note_on_c, 7, 71, 0
16, 601663, Note_on_c, 7, 67, 0
16, 601697, Note_on_c, 7, 71, 98
16, 601701, Note_on_c, 7, 67, 108
16, 601720, Note_on_c, 7, 65, 0
16, 601730, Note_on_c, 7, 69, 0
16, 601766, Note_on_c, 7, 65, 102
16, 601784, Note_on_c, 7, 69, 97
16, 601817, Note_on_c, 7, 71, 0
16, 601821, Note_on_c, 7, 67, 0
16, 601853, Note_on_c, 7, 67, 108
16, 601860, Note_on_c, 7, 71, 92
16, 601884, Note_on_c, 7, 65, 0
16, 601902, Note_on_c, 7, 69, 0
16, 601938, Note_on_c, 7, 65, 111
16, 601939, Note_on_c, 7, 69, 109
16, 601973, Note_on_c, 7, 67, 0
16, 601980, Note_on_c, 7, 71, 0
16, 602007, Note_on_c, 7, 71, 106
16, 602025, Note_on_c, 7, 67, 98
16, 602058, Note_on_c, 7, 65, 0
16, 602059, Note_on_c, 7, 69, 0
16, 602104, Note_on_c, 7, 65, 92
16, 602104, Note_on_c, 7, 69, 99
16, 602125, Note_on_c, 7, 71, 0
16, 602143, Note_on_c, 7, 67, 0
16, 602168, Note_on_c, 7, 71, 92
16, 602173, Note_on_c, 7, 67, 92
16, 602224, Note_on_c, 7, 65, 0
16, 602224, Note_on_c, 7, 69, 0
16, 602256, Note_on_c, 7, 69, 97
16, 602258, Note_on_c, 7, 65, 96
16, 602288, Note_on_c, 7, 71, 0
16, 602293, Note_on_c, 7, 67, 0
16, 602333, Note_on_c, 7, 71, 91
16, 602337, Note_on_c, 7, 67, 101
16, 602374, Note_on_c, 7, 69, 0
16, 602376, Note_on_c, 7, 65, 0
16, 602402, Note_on_c, 7, 69, 107
16, 602404, Note_on_c, 7, 65, 101
16, 602453, Note_on_c, 7, 71, 0
16, 602457, Note_on_c, 7, 67, 0
16, 602497, Note_on_c, 7, 71, 92
16, 602502, Note_on_c, 7, 67, 99
16, 602522, Note_on_c, 7, 69, 0
16, 602524, Note_on_c, 7, 65, 0
16, 602575, Note_on_c, 7, 65, 111
16, 602575, Note_on_c, 7, 69, 110
16, 602615, Note_on_c, 7, 71, 0
16, 602620, Note_on_c, 7, 67, 0
16, 602643, Note_on_c, 7, 71, 95
16, 602658, Note_on_c, 7, 67, 111
16, 602695, Note_on_c, 7, 65, 0
16, 602695, Note_on_c, 7, 69, 0
16, 602734, Note_on_c, 7, 65, 104
16, 602741, Note_on_c, 7, 69, 107
16, 602763, Note_on_c, 7, 71, 0
16, 602778, Note_on_c, 7, 67, 0
16, 602801, Note_on_c, 7, 67, 99
16, 602814, Note_on_c, 7, 71, 93
16, 602852, Note_on_c, 7, 65, 0
16, 602859, Note_on_c, 7, 69, 0
16, 602887, Note_on_c, 7, 69, 108
16, 602899, Note_on_c, 7, 65, 107
16, 602921, Note_on_c, 7, 67, 0
16, 602934, Note_on_c, 7, 71, 0
16, 602977, Note_on_c, 7, 71, 104
16, 602984, Note_on_c, 7, 67, 104
16, 603007, Note_on_c, 7, 69, 0
16, 603019, Note_on_c, 7, 65, 0
16, 603058, Note_on_c, 7, 69, 100
16, 603060, Note_on_c, 7, 65, 93
16, 603095, Note_on_c, 7, 71, 0
16, 603102, Note_on_c, 7, 67, 0
16, 603129, Note_on_c, 7, 67, 95
16, 603130, Note_on_c, 7, 71, 106
16, 603178, Note_on_c, 7, 69, 0
16, 603180, Note_on_c, 7, 65, 0
16, 603217, Note_on_c, 7, 69, 105
16, 603223, Note_on_c, 7, 65, 94
16, 603249, Note_on_c, 7, 67, 0
16, 603250, Note_on_c, 7, 71, 0
16, 603285, Note_on_c, 7, 71, 91
16, 603298, Note_on_c, 7, 67, 95
16, 603335, Note_on_c, 7, 69, 0
16, 603341, Note_on_c, 7, 65, 0
16, 603370, Note_on_c, 7, 65, 99
16, 603370, Note_on_c, 7, 69, 98
16, 603405, Note_on_c, 7, 71, 0
16, 603418, Note_on_c, 7, 67, 0
16, 603452, Note_on_c, 7, 67, 96
16, 603465, Note_on_c, 7, 71, 102
16, 603490, Note_on_c, 7, 65, 0
16, 603490, Note_on_c, 7, 69, 0
16, 603526, Note_on_c, 7, 69, 108
16, 603530, Note_on_c, 7, 65, 111
16, 603570, Note_on_c, 7, 67, 0
16, 603583, Note_on_c, 7, 71, 0
16, 603605, Note_on_c, 7, 71, 101
16, 603614, Note_on_c, 7, 67, 108
16, 603646, Note_on_c, 7, 69, 0
16, 603650, Note_on_c, 7, 65, 0
16, 603687, Note_on_c, 7, 65, 111
16, 603700, Note_on_c, 7, 69, 92
16, 603725, Note_on_c, 7, 71, 0
16, 603734, Note_on_c, 7, 67, 0
16, 603775, Note_on_c, 7, 67, 96
16, 603781, Note_on_c, 7, 71, 95
16, 603805, Note_on_c, 7, 65, 0
16, 603818, Note_on_c, 7, 69, 0
16, 603853, Note_on_c, 7, 65, 96
16, 603857, Note_on_c, 7, 69, 100
16, 603895, Note_on_c, 7, 67, 0
16, 603901, Note_on_c, 7, 71, 0
16, 603930, Note_on_c, 7, 67, 91
16, 603939, Note_on_c, 7, 71, 91
16, 603973, Note_on_c, 7, 65, 0
16, 603977, Note_on_c, 7, 69, 0
16, 604012, Note_on_c, 7, 69, 102
16, 604024, Note_on_c, 7, 65, 108
16, 604048, Note_on_c, 7, 67, 0
16, 604057, Note_on_c, 7, 71, 0
16, 604090, Note_on_c, 7, 67, 93
16, 604101, Note_on_c, 7, 71, 96
16, 604132, Note_on_c, 7, 69, 0
16, 604144, Note_on_c, 7, 65, 0
16, 604162, Note_on_c, 7, 65, 93
16, 604177, Note_on_c, 7, 69, 103
16, 604210, Note_on_c, 7, 67, 0
16, 604221, Note_on_c, 7, 71, 0
16, 604261, Note_on_c, 7, 71, 93
16, 604262, Note_on_c, 7, 67, 100
16, 604280, Note_on_c, 7, 65, 0
16, 604295, Note_on_c, 7, 69, 0
16, 604381, Note_on_c, 7, 71, 0
16, 604382, Note_on_c, 7, 67, 0
16, 622572, Note_on_c, 7, 56, 108
16, 622580, Note_on_c, 7, 67, 120
16, 622581, Note_on_c, 7, 61, 104
16, 622812, Note_on_c, 7, 56, 0
16, 622820, Note_on_c, 7, 67, 0
16, 622821, Note_on_c, 7, 61, 0
16, 623040, Note_on_c, 7, 61, 107
16, 623040, Note_on_c, 7, 67, 119
16, 623055, Note_on_c, 7, 61, 0
16, 623055, Note_on_c, 7, 67, 0
16, 623280, Note_on_c, 7, 65, 115
16, 623295, Note_on_c, 7, 65, 0
16, 655200, Program_c, 7, 57
16, 655200, Note_on_c, 7, 62, 121
16, 655440, Note_on_c, 7, 62, 0
16, 655692, Note_on_c, 7, 70, 119
16, 656172, Note_on_c, 7, 70, 0
16, 657135, Note_on_c, 7, 65, 114
16, 657375, Note_on_c, 7, 65, 0
16, 657616, Note_on_c, 7, 71, 122
16, 658096, Note_on_c, 7, 71, 0
16, 659055, Note_on_c, 7, 62, 123
16, 659295, Note_on_c, 7, 62, 0
16, 659526, Note_on_c, 7, 70, 109
16, 660006, Note_on_c, 7, 70, 0
16, 660984, Note_on_c, 7, 65, 122
16, 661224, Note_on_c, 7, 65, 0
16, 661448, Note_on_c, 7, 71, 107
16, 661928, Note_on_c, 7, 71, 0
16, 662884, Note_on_c, 7, 62, 117
16, 663124, Note_on_c, 7, 62, 0
16, 663370, Note_on_c, 7, 70, 122
16, 663850, Note_on_c, 7, 70, 0
16, 664803, Note_on_c, 7, 65, 111
16, 665043, Note_on_c, 7, 65, 0
16, 665280, Note_on_c, 7, 71, 115
16, 665760, Note_on_c, 7, 71, 0
16, 666736, Note_on_c, 7, 62, 120
16, 666976, Note_on_c, 7, 62, 0
16, 667210, Note_on_c, 7, 70, 124
16, 667690, Note_on_c, 7, 70, 0
16, 668641, Note_on_c, 7, 65, 122
16, 668881, Note_on_c, 7, 65, 0
16, 669122, Note_on_c, 7, 71, 105
16, 669602, Note_on_c, 7, 71, 0
16, 670566, Note_on_c, 7, 62, 117
16, 670806, Note_on_c, 7, 62, 0
16, 671059, Note_on_c, 7, 70, 115
16, 671539, Note_on_c, 7, 70, 0
16, 672490, Note_on_c, 7, 65, 111
16, 672730, Note_on_c, 7, 65, 0
16, 672971, Note_on_c, 7, 71, 115
16, 673451, Note_on_c, 7, 71, 0
16, 674406, Note_on_c, 7, 62, 115
16, 674646, Note_on_c, 7, 62, 0
16, 674893, Note_on_c, 7, 70, 109
16, 675373, Note_on_c, 7, 70, 0
16, 676334, Note_on_c, 7, 65, 115
16, 676574, Note_on_c, 7, 65, 0
16, 676813, Note_on_c, 7, 71, 110
16, 677293, Note_on_c, 7, 71, 0
16, 690244, Note_on_c, 7, 66, 86
16, 690245, Note_on_c, 7, 67, 85
16, 690604, Note_on_c, 7, 66, 0
16, 690605, Note_on_c, 7, 67, 0
16, 691213, Note_on_c, 7, 67, 99
16, 691223, Note_on_c, 7, 66, 91
16, 691573, Note_on_c, 7, 67, 0
16, 691583, Note_on_c, 7, 66, 0
16, 692406, Note_on_c, 7, 67, 87
16, 692421, Note_on_c, 7, 66, 86
16, 692646, Note_on_c, 7, 67, 0
16, 692661, Note_on_c, 7, 66, 0
16, 693132, Note_on_c, 7, 66, 97
16, 693132, Note_on_c, 7, 67, 96
16, 693492, Note_on_c, 7, 66, 0
16, 693492, Note_on_c, 7, 67, 0
16, 694098, Note_on_c, 7, 69, 87
16, 694105, Note_on_c, 7, 66, 86
16, 694458, Note_on_c, 7, 69, 0
16, 694465, Note_on_c, 7, 66, 0
16, 694573, Note_on_c, 7, 69, 86
16, 694577, Note_on_c, 7, 66, 89
16, 694688, Note_on_c, 7, 69, 0
16, 694692, Note_on_c, 7, 66, 0
16, 694770, Note_on_c, 7, 66, 91
16, 694772, Note_on_c, 7, 69, 104
16, 694885, Note_on_c, 7, 66, 0
16, 694887, Note_on_c, 7, 69, 0
16, 694956, Note_on_c, 7, 69, 105
16, 694961, Note_on_c, 7, 66, 87
16, 695071, Note_on_c, 7, 69, 0
16, 695076, Note_on_c, 7, 66, 0
16, 695153, Note_on_c, 7, 66, 90
16, 695160, Note_on_c, 7, 69, 85
16, 695267, Note_on_c, 7, 66, 0
16, 695274, Note_on_c, 7, 69, 0
16, 695332, Note_on_c, 7, 69, 90
16, 695342, Note_on_c, 7, 66, 100
16, 695447, Note_on_c, 7, 69, 0
16, 695457, Note_on_c, 7, 66, 0
16, 695534, Note_on_c, 7, 69, 98
16, 695543, Note_on_c, 7, 66, 85
16, 695614, Note_on_c, 7, 69, 0
16, 695623, Note_on_c, 7, 66, 0
16, 695694, Note_on_c, 7, 66, 105
16, 695701, Note_on_c, 7, 69, 97
16, 695775, Note_on_c, 7, 66, 0
16, 695782, Note_on_c, 7, 69, 0
16, 695846, Note_on_c, 7, 69, 96
16, 695856, Note_on_c, 7, 66, 91
16, 695926, Note_on_c, 7, 69, 0
16, 695936, Note_on_c, 7, 66, 0
16, 696021, Note_on_c, 7, 66, 89
16, 696023, Note_on_c, 7, 69, 92
16, 696381, Note_on_c, 7, 66, 0
16, 696383, Note_on_c, 7, 69, 0
16, 697441, Note_on_c, 7, 66, 102
16, 697462, Note_on_c, 7, 69, 103
16, 697801, Note_on_c, 7, 66, 0
16, 697822, Note_on_c, 7, 69, 0
16, 698887, Note_on_c, 7, 69, 89
16, 698898, Note_on_c, 7, 66, 88
16, 699007, Note_on_c, 7, 69, 0
16, 699018, Note_on_c, 7, 66, 0
16, 699128, Note_on_c, 7, 69, 86
16, 699134, Note_on_c, 7, 66, 95
16, 699248, Note_on_c, 7, 69, 0
16, 699254, Note_on_c, 7, 66, 0
16, 699367, Note_on_c, 7, 66, 101
16, 699367, Note_on_c, 7, 69, 88
16, 699727, Note_on_c, 7, 66, 0
16, 699727, Note_on_c, 7, 69, 0
16, 700320, Note_on_c, 7, 69, 102
16, 700332, Note_on_c, 7, 66, 87
16, 700680, Note_on_c, 7, 69, 0
16, 700692, Note_on_c, 7, 66, 0
16, 701285, Note_on_c, 7, 67, 87
16, 701298, Note_on_c, 7, 66, 91
16, 701645, Note_on_c, 7, 67, 0
16, 701658, Note_on_c, 7, 66, 0
16, 702005, Note_on_c, 7, 66, 90
16, 702011, Note_on_c, 7, 67, 104
16, 702245, Note_on_c, 7, 66, 0
16, 702251, Note_on_c, 7, 67, 0
16, 703213, Note_on_c, 7, 66, 91
16, 703221, Note_on_c, 7, 67, 95
16, 703573, Note_on_c, 7, 66, 0
16, 703581, Note_on_c, 7, 67, 0
16, 704173, Note_on_c, 7, 69, 93
16, 704178, Note_on_c, 7, 66, 95
16, 704533, Note_on_c, 7, 69, 0
16, 704538, Note_on_c, 7, 66, 0
16, 704641, Note_on_c, 7, 69, 94
16, 704650, Note_on_c, 7, 66, 90
16, 704761, Note_on_c, 7, 69, 0
16, 704770, Note_on_c, 7, 66, 0
16, 704891, Note_on_c, 7, 69, 105
16, 704898, Note_on_c, 7, 66, 93
16, 705011, Note_on_c, 7, 69, 0
16, 705018, Note_on_c, 7, 66, 0
16, 705128, Note_on_c, 7, 66, 104
16, 705142, Note_on_c, 7, 69, 100
16, 705488, Note_on_c, 7, 66, 0
16, 705502, Note_on_c, 7, 69, 0
16, 706089, Note_on_c, 7, 66, 89
16, 706101, Note_on_c, 7, 69, 101
16, 706169, Note_on_c, 7, 66, 0
16, 706181, Note_on_c, 7, 69, 0
16, 706251, Note_on_c, 7, 69, 100
16, 706258, Note_on_c, 7, 66, 90
16, 706332, Note_on_c, 7, 69, 0
16, 706339, Note_on_c, 7, 66, 0
16, 706403, Note_on_c, 7, 69, 92
16, 706410, Note_on_c, 7, 66, 93
16, 706483, Note_on_c, 7, 69, 0
16, 706490, Note_on_c, 7, 66, 0
16, 706565, Note_on_c, 7, 69, 93
16, 706582, Note_on_c, 7, 66, 105
16, 706925, Note_on_c, 7, 69, 0
16, 706942, Note_on_c, 7, 66, 0
16, 707520, Note_on_c, 7, 66, 105
16, 707529, Note_on_c, 7, 69, 94
16, 707600, Note_on_c, 7, 66, 0
16, 707609, Note_on_c, 7, 69, 0
16, 707687, Note_on_c, 7, 66, 95
16, 707704, Note_on_c, 7, 69, 97
16, 707768, Note_on_c, 7, 66, 0
16, 707785, Note_on_c, 7, 69, 0
16, 707850, Note_on_c, 7, 66, 88
16, 707856, Note_on_c, 7, 69, 101
16, 707930, Note_on_c, 7, 66, 0
16, 707936, Note_on_c, 7, 69, 0
16, 708015, Note_on_c, 7, 66, 104
16, 708015, Note_on_c, 7, 69, 91
16, 708095, Note_on_c, 7, 66, 0
16, 708095, Note_on_c, 7, 69, 0
16, 708164, Note_on_c, 7, 69, 94
16, 708174, Note_on_c, 7, 66, 91
16, 708245, Note_on_c, 7, 69, 0
16, 708255, Note_on_c, 7, 66, 0
16, 708330, Note_on_c, 7, 69, 97
16, 708331, Note_on_c, 7, 66, 86
16, 708410, Note_on_c, 7, 69, 0
16, 708411, Note_on_c, 7, 66, 0
16, 710418, Note_on_c, 7, 66, 87
16, 710422, Note_on_c, 7, 69, 89
16, 710498, Note_on_c, 7, 66, 0
16, 710502, Note_on_c, 7, 69, 0
16, 710569, Note_on_c, 7, 69, 85
16, 710572, Note_on_c, 7, 66, 87
16, 710650, Note_on_c, 7, 69, 0
16, 710653, Note_on_c, 7, 66, 0
16, 710724, Note_on_c, 7, 66, 100
16, 710731, Note_on_c, 7, 69, 91
16, 710804, Note_on_c, 7, 66, 0
16, 710811, Note_on_c, 7, 69, 0
16, 710898, Note_on_c, 7, 69, 96
16, 710902, Note_on_c, 7, 66, 104
16, 710978, Note_on_c, 7, 69, 0
16, 710982, Note_on_c, 7, 66, 0
16, 711042, Note_on_c, 7, 69, 97
16, 711044, Note_on_c, 7, 66, 86
16, 711123, Note_on_c, 7, 69, 0
16, 711125, Note_on_c, 7, 66, 0
16, 711210, Note_on_c, 7, 69, 94
16, 711213, Note_on_c, 7, 66, 86
16, 711290, Note_on_c, 7, 69, 0
16, 711293, Note_on_c, 7, 66, 0
16, 712803, Note_on_c, 7, 67, 103
16, 712819, Note_on_c, 7, 66, 99
16, 713163, Note_on_c, 7, 67, 0
16, 713179, Note_on_c, 7, 66, 0
16, 713288, Note_on_c, 7, 66, 91
16, 713305, Note_on_c, 7, 67, 99
16, 713648, Note_on_c, 7, 66, 0
16, 713665, Note_on_c, 7, 67, 0
16, 714241, Note_on_c, 7, 67, 91
16, 714258, Note_on_c, 7, 66, 95
16, 714601, Note_on_c, 7, 67, 0
16, 714618, Note_on_c, 7, 66, 0
16, 715459, Note_on_c, 7, 67, 94
16, 715461, Note_on_c, 7, 66, 93
16, 715699, Note_on_c, 7, 67, 0
16, 715701, Note_on_c, 7, 66, 0
16, 716169, Note_on_c, 7, 66, 103
16, 716180, Note_on_c, 7, 67, 103
16, 716529, Note_on_c, 7, 66, 0
16, 716540, Note_on_c, 7, 67, 0
16, 717122, Note_on_c, 7, 67, 90
16, 717128, Note_on_c, 7, 66, 98
16, 717482, Note_on_c, 7, 67, 0
16, 717488, Note_on_c, 7, 66, 0
16, 717847, Note_on_c, 7, 66, 105
16, 717850, Note_on_c, 7, 67, 85
16, 718087, Note_on_c, 7, 66, 0
16, 718090, Note_on_c, 7, 67, 0
16, 719050, Note_on_c, 7, 66, 86
16, 719065, Note_on_c, 7, 67, 92
16, 719410, Note_on_c, 7, 66, 0
16, 719425, Note_on_c, 7, 67, 0
16, 720021, Note_on_c, 7, 67, 104
16, 720023, Note_on_c, 7, 66, 90
16, 720381, Note_on_c, 7, 67, 0
16, 720383, Note_on_c, 7, 66, 0
16, 720966, Note_on_c, 7, 67, 105
16, 720985, Note_on_c, 7, 66, 92
16, 721326, Note_on_c, 7, 67, 0
16, 721345, Note_on_c, 7, 66, 0
16, 765601, Note_on_c, 7, 60, 122
16, 765622, Note_on_c, 7, 64, 112
16, 765623, Note_on_c, 7, 55, 120
16, 765744, Note_on_c, 7, 60, 0
16, 765765, Note_on_c, 7, 64, 0
16, 765766, Note_on_c, 7, 55, 0
16, 766801, Note_on_c, 7, 64, 115
16, 766804, Note_on_c, 7, 55, 116
16, 766820, Note_on_c, 7, 60, 119
16, 766872, Note_on_c, 7, 64, 0
16, 766875, Note_on_c, 7, 55, 0
16, 766891, Note_on_c, 7, 60, 0
16, 768001, Note_on_c, 7, 55, 107
16, 768013, Note_on_c, 7, 64, 117
16, 768020, Note_on_c, 7, 60, 123
16, 768144, Note_on_c, 7, 55, 0
16, 768156, Note_on_c, 7, 64, 0
16, 768163, Note_on_c, 7, 60, 0
16, 768723, Note_on_c, 7, 55, 120
16, 768724, Note_on_c, 7, 60, 105
16, 768730, Note_on_c, 7, 64, 104
16, 768794, Note_on_c, 7, 55, 0
16, 768795, Note_on_c, 7, 60, 0
16, 768801, Note_on_c, 7, 64, 0
16, 769443, Note_on_c, 7, 64, 121
16, 769453, Note_on_c, 7, 60, 110
16, 769461, Note_on_c, 7, 55, 107
16, 769586, Note_on_c, 7, 64, 0
16, 769596, Note_on_c, 7, 60, 0
16, 769604, Note_on_c, 7, 55, 0
16, 770403, Note_on_c, 7, 60, 108
16, 770411, Note_on_c, 7, 64, 105
16, 770421, Note_on_c, 7, 55, 118
16, 770546, Note_on_c, 7, 60, 0
16, 770554, Note_on_c, 7, 64, 0
16, 770564, Note_on_c, 7, 55, 0
16, 771601, Note_on_c, 7, 64, 124
16, 771617, Note_on_c, 7, 55, 118
16, 771623, Note_on_c, 7, 60, 122
16, 771672, Note_on_c, 7, 64, 0
16, 771688, Note_on_c, 7, 55, 0
16, 771694, Note_on_c, 7, 60, 0
16, 772805, Note_on_c, 7, 55, 122
16, 772818, Note_on_c, 7, 60, 108
16, 772819, Note_on_c, 7, 64, 119
16, 772948, Note_on_c, 7, 55, 0
16, 772961, Note_on_c, 7, 60, 0
16, 772962, Note_on_c, 7, 64, 0
16, 772962, End_track
17, 0, Start_track
17, 0, Title_t, "Tromboni II"
17, 0, MIDI_port, 0
17, 0, Program_c, 7, 57
17, 238810, Note_on_c, 7, 41, 97
17, 239284, Note_on_c, 7, 39, 98
17, 239290, Note_on_c, 7, 41, 0
17, 239764, Note_on_c, 7, 39, 0
17, 239784, Note_on_c, 7, 41, 93
17, 240264, Note_on_c, 7, 41, 0
17, 240264, Note_on_c, 7, 43, 89
17, 240738, Note_on_c, 7, 41, 88
17, 240744, Note_on_c, 7, 43, 0
17, 241204, Note_on_c, 7, 39, 95
17, 241218, Note_on_c, 7, 41, 0
17, 241684, Note_on_c, 7, 39, 0
17, 241696, Note_on_c, 7, 41, 86
17, 241767, Note_on_c, 7, 41, 0
17, 242183, Note_on_c, 7, 41, 105
17, 242254, Note_on_c, 7, 41, 0
17, 242661, Note_on_c, 7, 41, 84
17, 243141, Note_on_c, 7, 41, 0
17, 243142, Note_on_c, 7, 39, 94
17, 243605, Note_on_c, 7, 41, 79
17, 243622, Note_on_c, 7, 39, 0
17, 244082, Note_on_c, 7, 43, 83
17, 244085, Note_on_c, 7, 41, 0
17, 244562, Note_on_c, 7, 43, 0
17, 244582, Note_on_c, 7, 41, 96
17, 245047, Note_on_c, 7, 39, 95
17, 245062, Note_on_c, 7, 41, 0
17, 245527, Note_on_c, 7, 39, 0
17, 245544, Note_on_c, 7, 41, 86
17, 245615, Note_on_c, 7, 41, 0
17, 246000, Note_on_c, 7, 41, 98
17, 246071, Note_on_c, 7, 41, 0
17, 246486, Note_on_c, 7, 41, 93
17, 246966, Note_on_c, 7, 41, 0
17, 246970, Note_on_c, 7, 39, 86
17, 247450, Note_on_c, 7, 39, 0
17, 247462, Note_on_c, 7, 41, 90
17, 247939, Note_on_c, 7, 43, 91
17, 247942, Note_on_c, 7, 41, 0
17, 248416, Note_on_c, 7, 41, 93
17, 248419, Note_on_c, 7, 43, 0
17, 248887, Note_on_c, 7, 39, 88
17, 248896, Note_on_c, 7, 41, 0
17, 249367, Note_on_c, 7, 39, 0
17, 249369, Note_on_c, 7, 41, 95
17, 249440, Note_on_c, 7, 41, 0
17, 249843, Note_on_c, 7, 41, 104
17, 249914, Note_on_c, 7, 41, 0
17, 267365, Note_on_c, 7, 45, 113
17, 267605, Note_on_c, 7, 45, 0
17, 267606, Note_on_c, 7, 49, 105
17, 267846, Note_on_c, 7, 49, 0
17, 267861, Note_on_c, 7, 52, 103
17, 268099, Note_on_c, 7, 48, 114
17, 268101, Note_on_c, 7, 52, 0
17, 268334, Note_on_c, 7, 52, 95
17, 268339, Note_on_c, 7, 48, 0
17, 268574, Note_on_c, 7, 52, 0
17, 291841, Note_on_c, 7, 48, 105
17, 291961, Note_on_c, 7, 48, 0
17, 292101, Note_on_c, 7, 52, 109
17, 292221, Note_on_c, 7, 52, 0
17, 292327, Note_on_c, 7, 55, 109
17, 292447, Note_on_c, 7, 55, 0
17, 292566, Note_on_c, 7, 51, 110
17, 292686, Note_on_c, 7, 51, 0
17, 292803, Note_on_c, 7, 55, 98
17, 292923, Note_on_c, 7, 55, 0
17, 293049, Note_on_c, 7, 58, 106
17, 293169, Note_on_c, 7, 58, 0
17, 305545, Note_on_c, 7, 55, 96
17, 305665, Note_on_c, 7, 55, 0
17, 305777, Note_on_c, 7, 55, 93
17, 305897, Note_on_c, 7, 55, 0
17, 306004, Note_on_c, 7, 55, 99
17, 306124, Note_on_c, 7, 55, 0
17, 306246, Note_on_c, 7, 55, 97
17, 306366, Note_on_c, 7, 55, 0
17, 306480, Note_on_c, 7, 55, 99
17, 306600, Note_on_c, 7, 55, 0
17, 306740, Note_on_c, 7, 55, 98
17, 306860, Note_on_c, 7, 55, 0
17, 306983, Note_on_c, 7, 55, 93
17, 307103, Note_on_c, 7, 55, 0
17, 307214, Note_on_c, 7, 55, 93
17, 307334, Note_on_c, 7, 55, 0
17, 307451, Note_on_c, 7, 55, 103
17, 307571, Note_on_c, 7, 55, 0
17, 307686, Note_on_c, 7, 55, 97
17, 307806, Note_on_c, 7, 55, 0
17, 307924, Note_on_c, 7, 55, 97
17, 308044, Note_on_c, 7, 55, 0
17, 308171, Note_on_c, 7, 55, 105
17, 308291, Note_on_c, 7, 55, 0
17, 308422, Note_on_c, 7, 55, 98
17, 308542, Note_on_c, 7, 55, 0
17, 308651, Note_on_c, 7, 55, 97
17, 308771, Note_on_c, 7, 55, 0
17, 311054, Note_on_c, 7, 48, 80
17, 311174, Note_on_c, 7, 48, 0
17, 311287, Note_on_c, 7, 48, 80
17, 311407, Note_on_c, 7, 48, 0
17, 311525, Note_on_c, 7, 48, 95
17, 311645, Note_on_c, 7, 48, 0
17, 311784, Note_on_c, 7, 48, 89
17, 311904, Note_on_c, 7, 48, 0
17, 312008, Note_on_c, 7, 48, 81
17, 312128, Note_on_c, 7, 48, 0
17, 312255, Note_on_c, 7, 48, 95
17, 312375, Note_on_c, 7, 48, 0
17, 312502, Note_on_c, 7, 48, 94
17, 312622, Note_on_c, 7, 48, 0
17, 312745, Note_on_c, 7, 48, 88
17, 312865, Note_on_c, 7, 48, 0
17, 312963, Note_on_c, 7, 48, 78
17, 313083, Note_on_c, 7, 48, 0
17, 313203, Note_on_c, 7, 48, 97
17, 313323, Note_on_c, 7, 48, 0
17, 313463, Note_on_c, 7, 48, 81
17, 313583, Note_on_c, 7, 48, 0
17, 313691, Note_on_c, 7, 48, 91
17, 313811, Note_on_c, 7, 48, 0
17, 354242, Note_on_c, 7, 48, 87
17, 354385, Note_on_c, 7, 48, 0
17, 355685, Note_on_c, 7, 48, 95
17, 355828, Note_on_c, 7, 48, 0
17, 357138, Note_on_c, 7, 48, 98
17, 357281, Note_on_c, 7, 48, 0
17, 358103, Note_on_c, 7, 48, 93
17, 358246, Note_on_c, 7, 48, 0
17, 434402, Note_on_c, 7, 55, 104
17, 434882, Note_on_c, 7, 55, 0
17, 441618, Note_on_c, 7, 58, 109
17, 442098, Note_on_c, 7, 58, 0
17, 444978, Note_on_c, 7, 58, 99
17, 445442, Note_on_c, 7, 55, 112
17, 445458, Note_on_c, 7, 58, 0
17, 445922, Note_on_c, 7, 55, 0
17, 445944, Note_on_c, 7, 53, 112
17, 446424, Note_on_c, 7, 53, 0
17, 446424, Note_on_c, 7, 49, 108
17, 447384, Note_on_c, 7, 49, 0
17, 448809, Note_on_c, 7, 49, 104
17, 448952, Note_on_c, 7, 49, 0
17, 455058, Note_on_c, 7, 49, 98
17, 455201, Note_on_c, 7, 49, 0
17, 455535, Note_on_c, 7, 49, 98
17, 455678, Note_on_c, 7, 49, 0
17, 457937, Note_on_c, 7, 56, 81
17, 458128, Note_on_c, 7, 56, 0
17, 458411, Note_on_c, 7, 60, 78
17, 458602, Note_on_c, 7, 60, 0
17, 458897, Note_on_c, 7, 56, 79
17, 459088, Note_on_c, 7, 56, 0
17, 459366, Note_on_c, 7, 60, 98
17, 459557, Note_on_c, 7, 60, 0
17, 459860, Note_on_c, 7, 56, 96
17, 460051, Note_on_c, 7, 56, 0
17, 460326, Note_on_c, 7, 60, 92
17, 460517, Note_on_c, 7, 60, 0
17, 460818, Note_on_c, 7, 56, 92
17, 461009, Note_on_c, 7, 56, 0
17, 461305, Note_on_c, 7, 60, 91
17, 461496, Note_on_c, 7, 60, 0
17, 461769, Note_on_c, 7, 49, 85
17, 461912, Note_on_c, 7, 49, 0
17, 466089, Note_on_c, 7, 49, 99
17, 466232, Note_on_c, 7, 49, 0
17, 466568, Note_on_c, 7, 49, 93
17, 466711, Note_on_c, 7, 49, 0
17, 468968, Note_on_c, 7, 49, 103
17, 469111, Note_on_c, 7, 49, 0
17, 489602, Note_on_c, 7, 36, 88
17, 490442, Note_on_c, 7, 36, 0
17, 490570, Note_on_c, 7, 37, 98
17, 490930, Note_on_c, 7, 37, 0
17, 491053, Note_on_c, 7, 36, 79
17, 491413, Note_on_c, 7, 36, 0
17, 491526, Note_on_c, 7, 37, 80
17, 491886, Note_on_c, 7, 37, 0
17, 492024, Note_on_c, 7, 36, 82
17, 492864, Note_on_c, 7, 36, 0
17, 492979, Note_on_c, 7, 36, 93
17, 493339, Note_on_c, 7, 36, 0
17, 493456, Note_on_c, 7, 37, 89
17, 493816, Note_on_c, 7, 37, 0
17, 493935, Note_on_c, 7, 36, 93
17, 494055, Note_on_c, 7, 36, 0
17, 497283, Note_on_c, 7, 56, 120
17, 498243, Note_on_c, 7, 56, 0
17, 499220, Note_on_c, 7, 56, 127
17, 499411, Note_on_c, 7, 56, 0
17, 499683, Note_on_c, 7, 42, 127
17, 499923, Note_on_c, 7, 42, 0
17, 503544, Note_on_c, 7, 56, 121
17, 504504, Note_on_c, 7, 56, 0
17, 505451, Note_on_c, 7, 56, 117
17, 505642, Note_on_c, 7, 56, 0
17, 505921, Note_on_c, 7, 42, 126
17, 506161, Note_on_c, 7, 42, 0
17, 506896, Note_on_c, 7, 56, 127
17, 507856, Note_on_c, 7, 56, 0
17, 564980, Note_on_c, 7, 55, 102
17, 565340, Note_on_c, 7, 55, 0
17, 565446, Note_on_c, 7, 55, 102
17, 565806, Note_on_c, 7, 55, 0
17, 565935, Note_on_c, 7, 57, 113
17, 566055, Note_on_c, 7, 57, 0
17, 566177, Note_on_c, 7, 58, 115
17, 566297, Note_on_c, 7, 58, 0
17, 566419, Note_on_c, 7, 62, 104
17, 566539, Note_on_c, 7, 62, 0
17, 568806, Note_on_c, 7, 55, 107
17, 569166, Note_on_c, 7, 55, 0
17, 569290, Note_on_c, 7, 57, 117
17, 569410, Note_on_c, 7, 57, 0
17, 569527, Note_on_c, 7, 58, 107
17, 569647, Note_on_c, 7, 58, 0
17, 569767, Note_on_c, 7, 62, 100
17, 569887, Note_on_c, 7, 62, 0
17, 588019, Note_on_c, 7, 57, 105
17, 588210, Note_on_c, 7, 57, 0
17, 588962, Note_on_c, 7, 57, 85
17, 589153, Note_on_c, 7, 57, 0
17, 593779, Note_on_c, 7, 60, 100
17, 593970, Note_on_c, 7, 60, 0
17, 598099, Note_on_c, 7, 60, 101
17, 598290, Note_on_c, 7, 60, 0
17, 601442, Note_on_c, 7, 60, 97
17, 601526, Note_on_c, 7, 62, 108
17, 601557, Note_on_c, 7, 60, 0
17, 601613, Note_on_c, 7, 60, 100
17, 601641, Note_on_c, 7, 62, 0
17, 601697, Note_on_c, 7, 62, 100
17, 601728, Note_on_c, 7, 60, 0
17, 601756, Note_on_c, 7, 60, 111
17, 601812, Note_on_c, 7, 62, 0
17, 601853, Note_on_c, 7, 62, 105
17, 601871, Note_on_c, 7, 60, 0
17, 601916, Note_on_c, 7, 60, 94
17, 601968, Note_on_c, 7, 62, 0
17, 601988, Note_on_c, 7, 62, 102
17, 602031, Note_on_c, 7, 60, 0
17, 602085, Note_on_c, 7, 60, 105
17, 602103, Note_on_c, 7, 62, 0
17, 602153, Note_on_c, 7, 62, 100
17, 602200, Note_on_c, 7, 60, 0
17, 602243, Note_on_c, 7, 60, 100
17, 602268, Note_on_c, 7, 62, 0
17, 602302, Note_on_c, 7, 62, 91
17, 602358, Note_on_c, 7, 60, 0
17, 602391, Note_on_c, 7, 60, 107
17, 602417, Note_on_c, 7, 62, 0
17, 602459, Note_on_c, 7, 62, 98
17, 602506, Note_on_c, 7, 60, 0
17, 602545, Note_on_c, 7, 60, 91
17, 602574, Note_on_c, 7, 62, 0
17, 602629, Note_on_c, 7, 62, 103
17, 602660, Note_on_c, 7, 60, 0
17, 602689, Note_on_c, 7, 60, 100
17, 602744, Note_on_c, 7, 62, 0
17, 602770, Note_on_c, 7, 62, 108
17, 602804, Note_on_c, 7, 60, 0
17, 602849, Note_on_c, 7, 60, 105
17, 602885, Note_on_c, 7, 62, 0
17, 602935, Note_on_c, 7, 62, 109
17, 602964, Note_on_c, 7, 60, 0
17, 603005, Note_on_c, 7, 60, 103
17, 603050, Note_on_c, 7, 62, 0
17, 603085, Note_on_c, 7, 62, 94
17, 603120, Note_on_c, 7, 60, 0
17, 603171, Note_on_c, 7, 60, 104
17, 603200, Note_on_c, 7, 62, 0
17, 603243, Note_on_c, 7, 62, 92
17, 603286, Note_on_c, 7, 60, 0
17, 603307, Note_on_c, 7, 60, 91
17, 603358, Note_on_c, 7, 62, 0
17, 603392, Note_on_c, 7, 62, 105
17, 603422, Note_on_c, 7, 60, 0
17, 603478, Note_on_c, 7, 60, 97
17, 603507, Note_on_c, 7, 62, 0
17, 603564, Note_on_c, 7, 62, 97
17, 603593, Note_on_c, 7, 60, 0
17, 603638, Note_on_c, 7, 60, 105
17, 603679, Note_on_c, 7, 62, 0
17, 603702, Note_on_c, 7, 62, 93
17, 603753, Note_on_c, 7, 60, 0
17, 603780, Note_on_c, 7, 60, 104
17, 603817, Note_on_c, 7, 62, 0
17, 603856, Note_on_c, 7, 62, 92
17, 603895, Note_on_c, 7, 60, 0
17, 603947, Note_on_c, 7, 60, 103
17, 603971, Note_on_c, 7, 62, 0
17, 604029, Note_on_c, 7, 62, 96
17, 604062, Note_on_c, 7, 60, 0
17, 604094, Note_on_c, 7, 60, 105
17, 604144, Note_on_c, 7, 62, 0
17, 604176, Note_on_c, 7, 62, 101
17, 604209, Note_on_c, 7, 60, 0
17, 604265, Note_on_c, 7, 60, 103
17, 604291, Note_on_c, 7, 62, 0
17, 604377, Note_on_c, 7, 60, 0
17, 655220, Note_on_c, 7, 50, 107
17, 655460, Note_on_c, 7, 50, 0
17, 655682, Note_on_c, 7, 58, 122
17, 657122, Note_on_c, 7, 58, 0
17, 657137, Note_on_c, 7, 53, 109
17, 657377, Note_on_c, 7, 53, 0
17, 657623, Note_on_c, 7, 59, 110
17, 659061, Note_on_c, 7, 50, 110
17, 659063, Note_on_c, 7, 59, 0
17, 659301, Note_on_c, 7, 50, 0
17, 659538, Note_on_c, 7, 58, 107
17, 660976, Note_on_c, 7, 53, 119
17, 660978, Note_on_c, 7, 58, 0
17, 661216, Note_on_c, 7, 53, 0
17, 661458, Note_on_c, 7, 59, 119
17, 662885, Note_on_c, 7, 50, 112
17, 662898, Note_on_c, 7, 59, 0
17, 663125, Note_on_c, 7, 50, 0
17, 663384, Note_on_c, 7, 58, 115
17, 664812, Note_on_c, 7, 53, 105
17, 664824, Note_on_c, 7, 58, 0
17, 665052, Note_on_c, 7, 53, 0
17, 665297, Note_on_c, 7, 59, 120
17, 666733, Note_on_c, 7, 50, 108
17, 666737, Note_on_c, 7, 59, 0
17, 666973, Note_on_c, 7, 50, 0
17, 667220, Note_on_c, 7, 58, 111
17, 668651, Note_on_c, 7, 53, 105
17, 668660, Note_on_c, 7, 58, 0
17, 668891, Note_on_c, 7, 53, 0
17, 669122, Note_on_c, 7, 59, 109
17, 670562, Note_on_c, 7, 59, 0
17, 670580, Note_on_c, 7, 50, 123
17, 670820, Note_on_c, 7, 50, 0
17, 671063, Note_on_c, 7, 58, 117
17, 672492, Note_on_c, 7, 53, 123
17, 672503, Note_on_c, 7, 58, 0
17, 672732, Note_on_c, 7, 53, 0
17, 672984, Note_on_c, 7, 59, 105
17, 674413, Note_on_c, 7, 50, 112
17, 674424, Note_on_c, 7, 59, 0
17, 674653, Note_on_c, 7, 50, 0
17, 674895, Note_on_c, 7, 58, 106
17, 676333, Note_on_c, 7, 53, 109
17, 676335, Note_on_c, 7, 58, 0
17, 676573, Note_on_c, 7, 53, 0
17, 676801, Note_on_c, 7, 59, 122
17, 677281, Note_on_c, 7, 59, 0
17, 690255, Note_on_c, 7, 55, 102
17, 690615, Note_on_c, 7, 55, 0
17, 691219, Note_on_c, 7, 55, 90
17, 691579, Note_on_c, 7, 55, 0
17, 692400, Note_on_c, 7, 55, 87
17, 692640, Note_on_c, 7, 55, 0
17, 693133, Note_on_c, 7, 55, 95
17, 693493, Note_on_c, 7, 55, 0
17, 694081, Note_on_c, 7, 57, 88
17, 694441, Note_on_c, 7, 57, 0
17, 694585, Note_on_c, 7, 57, 92
17, 694700, Note_on_c, 7, 57, 0
17, 694759, Note_on_c, 7, 57, 104
17, 694874, Note_on_c, 7, 57, 0
17, 694967, Note_on_c, 7, 57, 105
17, 695082, Note_on_c, 7, 57, 0
17, 695139, Note_on_c, 7, 57, 94
17, 695253, Note_on_c, 7, 57, 0
17, 695327, Note_on_c, 7, 57, 85
17, 695442, Note_on_c, 7, 57, 0
17, 695542, Note_on_c, 7, 57, 97
17, 695622, Note_on_c, 7, 57, 0
17, 695703, Note_on_c, 7, 57, 102
17, 695784, Note_on_c, 7, 57, 0
17, 695862, Note_on_c, 7, 57, 87
17, 695942, Note_on_c, 7, 57, 0
17, 696012, Note_on_c, 7, 57, 87
17, 696372, Note_on_c, 7, 57, 0
17, 697464, Note_on_c, 7, 57, 88
17, 697824, Note_on_c, 7, 57, 0
17, 698895, Note_on_c, 7, 57, 98
17, 699015, Note_on_c, 7, 57, 0
17, 699130, Note_on_c, 7, 57, 102
17, 699250, Note_on_c, 7, 57, 0
17, 699375, Note_on_c, 7, 57, 103
17, 699735, Note_on_c, 7, 57, 0
17, 700330, Note_on_c, 7, 57, 100
17, 700690, Note_on_c, 7, 57, 0
17, 701302, Note_on_c, 7, 55, 86
17, 701662, Note_on_c, 7, 55, 0
17, 702001, Note_on_c, 7, 55, 89
17, 702241, Note_on_c, 7, 55, 0
17, 703219, Note_on_c, 7, 55, 96
17, 703579, Note_on_c, 7, 55, 0
17, 704178, Note_on_c, 7, 57, 92
17, 704538, Note_on_c, 7, 57, 0
17, 704663, Note_on_c, 7, 57, 89
17, 704783, Note_on_c, 7, 57, 0
17, 704887, Note_on_c, 7, 57, 104
17, 705007, Note_on_c, 7, 57, 0
17, 705143, Note_on_c, 7, 57, 87
17, 705503, Note_on_c, 7, 57, 0
17, 706084, Note_on_c, 7, 57, 89
17, 706164, Note_on_c, 7, 57, 0
17, 706241, Note_on_c, 7, 57, 98
17, 706322, Note_on_c, 7, 57, 0
17, 706400, Note_on_c, 7, 57, 100
17, 706480, Note_on_c, 7, 57, 0
17, 706575, Note_on_c, 7, 57, 86
17, 706935, Note_on_c, 7, 57, 0
17, 707525, Note_on_c, 7, 57, 86
17, 707605, Note_on_c, 7, 57, 0
17, 707686, Note_on_c, 7, 57, 98
17, 707767, Note_on_c, 7, 57, 0
17, 707841, Note_on_c, 7, 57, 86
17, 707921, Note_on_c, 7, 57, 0
17, 708016, Note_on_c, 7, 57, 100
17, 708096, Note_on_c, 7, 57, 0
17, 708160, Note_on_c, 7, 57, 105
17, 708241, Note_on_c, 7, 57, 0
17, 708321, Note_on_c, 7, 57, 97
17, 708401, Note_on_c, 7, 57, 0
17, 710416, Note_on_c, 7, 57, 101
17, 710496, Note_on_c, 7, 57, 0
17, 710574, Note_on_c, 7, 57, 103
17, 710655, Note_on_c, 7, 57, 0
17, 710728, Note_on_c, 7, 57, 90
17, 710808, Note_on_c, 7, 57, 0
17, 710893, Note_on_c, 7, 57, 101
17, 710973, Note_on_c, 7, 57, 0
17, 711050, Note_on_c, 7, 57, 88
17, 711131, Note_on_c, 7, 57, 0
17, 711212, Note_on_c, 7, 57, 94
17, 711292, Note_on_c, 7, 57, 0
17, 712800, Note_on_c, 7, 55, 94
17, 713160, Note_on_c, 7, 55, 0
17, 713285, Note_on_c, 7, 55, 85
17, 713645, Note_on_c, 7, 55, 0
17, 714250, Note_on_c, 7, 55, 94
17, 714610, Note_on_c, 7, 55, 0
17, 715449, Note_on_c, 7, 55, 102
17, 715689, Note_on_c, 7, 55, 0
17, 716165, Note_on_c, 7, 55, 88
17, 716525, Note_on_c, 7, 55, 0
17, 717131, Note_on_c, 7, 55, 96
17, 717491, Note_on_c, 7, 55, 0
17, 717862, Note_on_c, 7, 55, 100
17, 718102, Note_on_c, 7, 55, 0
17, 719040, Note_on_c, 7, 55, 94
17, 719400, Note_on_c, 7, 55, 0
17, 720020, Note_on_c, 7, 55, 92
17, 720380, Note_on_c, 7, 55, 0
17, 720982, Note_on_c, 7, 55, 96
17, 721342, Note_on_c, 7, 55, 0
17, 767543, Note_on_c, 7, 56, 93
17, 767831, Note_on_c, 7, 56, 0
17, 768015, Note_on_c, 7, 58, 90
17, 768303, Note_on_c, 7, 58, 0
17, 768500, Note_on_c, 7, 60, 116
17, 768788, Note_on_c, 7, 60, 0
17, 768984, Note_on_c, 7, 62, 118
17, 769272, Note_on_c, 7, 62, 0
17, 769461, Note_on_c, 7, 64, 116
17, 769749, Note_on_c, 7, 64, 0
17, 769933, Note_on_c, 7, 66, 118
17, 770221, Note_on_c, 7, 66, 0
17, 770418, Note_on_c, 7, 68, 127
17, 770706, Note_on_c, 7, 68, 0
17, 770899, Note_on_c, 7, 70, 127
17, 771187, Note_on_c, 7, 70, 0
17, 771368, Note_on_c, 7, 72, 117
17, 771656, Note_on_c, 7, 72, 0
17, 771851, Note_on_c, 7, 74, 123
17, 772139, Note_on_c, 7, 74, 0
17, 772345, Note_on_c, 7, 76, 127
17, 772633, Note_on_c, 7, 76, 0
17, 772823, Note_on_c, 7, 78, 127
17, 773111, Note_on_c, 7, 78, 0
17, 773111, End_track
18, 0, Start_track
18, 0, Title_t, "Tube"
18, 0, MIDI_port, 0
18, 0, Program_c, 7, 57
18, 151686, Note_on_c, 7, 41, 110
18, 151688, Note_on_c, 7, 29, 111
18, 152166, Note_on_c, 7, 41, 0
18, 152168, Note_on_c, 7, 29, 0
18, 234730, Note_on_c, 7, 60, 80
18, 234825, Note_on_c, 7, 60, 0
18, 234968, Note_on_c, 7, 57, 76
18, 235063, Note_on_c, 7, 57, 0
18, 235214, Note_on_c, 7, 62, 75
18, 235309, Note_on_c, 7, 62, 0
18, 235448, Note_on_c, 7, 57, 82
18, 235543, Note_on_c, 7, 57, 0
18, 235698, Note_on_c, 7, 60, 66
18, 235793, Note_on_c, 7, 60, 0
18, 235924, Note_on_c, 7, 57, 85
18, 236019, Note_on_c, 7, 57, 0
18, 236178, Note_on_c, 7, 62, 71
18, 236273, Note_on_c, 7, 62, 0
18, 236407, Note_on_c, 7, 57, 81
18, 236502, Note_on_c, 7, 57, 0
18, 236654, Note_on_c, 7, 60, 66
18, 236749, Note_on_c, 7, 60, 0
18, 236882, Note_on_c, 7, 57, 70
18, 236977, Note_on_c, 7, 57, 0
18, 237140, Note_on_c, 7, 62, 83
18, 237235, Note_on_c, 7, 62, 0
18, 237377, Note_on_c, 7, 57, 82
18, 237472, Note_on_c, 7, 57, 0
18, 237607, Note_on_c, 7, 60, 66
18, 237702, Note_on_c, 7, 60, 0
18, 237847, Note_on_c, 7, 57, 78
18, 237942, Note_on_c, 7, 57, 0
18, 238091, Note_on_c, 7, 62, 80
18, 238186, Note_on_c, 7, 62, 0
18, 238331, Note_on_c, 7, 57, 73
18, 238426, Note_on_c, 7, 57, 0
18, 238579, Note_on_c, 7, 60, 77
18, 238674, Note_on_c, 7, 60, 0
18, 238808, Note_on_c, 7, 57, 78
18, 238903, Note_on_c, 7, 57, 0
18, 239057, Note_on_c, 7, 62, 80
18, 239152, Note_on_c, 7, 62, 0
18, 239280, Note_on_c, 7, 57, 75
18, 239375, Note_on_c, 7, 57, 0
18, 239540, Note_on_c, 7, 60, 65
18, 239635, Note_on_c, 7, 60, 0
18, 239768, Note_on_c, 7, 57, 74
18, 239863, Note_on_c, 7, 57, 0
18, 240020, Note_on_c, 7, 62, 83
18, 240115, Note_on_c, 7, 62, 0
18, 240249, Note_on_c, 7, 57, 75
18, 240344, Note_on_c, 7, 57, 0
18, 240482, Note_on_c, 7, 60, 73
18, 240577, Note_on_c, 7, 60, 0
18, 240721, Note_on_c, 7, 57, 84
18, 240816, Note_on_c, 7, 57, 0
18, 240969, Note_on_c, 7, 62, 65
18, 241064, Note_on_c, 7, 62, 0
18, 241215, Note_on_c, 7, 57, 79
18, 241310, Note_on_c, 7, 57, 0
18, 241461, Note_on_c, 7, 60, 83
18, 241556, Note_on_c, 7, 60, 0
18, 241701, Note_on_c, 7, 57, 83
18, 241796, Note_on_c, 7, 57, 0
18, 241930, Note_on_c, 7, 62, 84
18, 242025, Note_on_c, 7, 62, 0
18, 242167, Note_on_c, 7, 57, 72
18, 242262, Note_on_c, 7, 57, 0
18, 242423, Note_on_c, 7, 60, 80
18, 242518, Note_on_c, 7, 60, 0
18, 242658, Note_on_c, 7, 57, 70
18, 242753, Note_on_c, 7, 57, 0
18, 242889, Note_on_c, 7, 62, 67
18, 242984, Note_on_c, 7, 62, 0
18, 243135, Note_on_c, 7, 57, 73
18, 243230, Note_on_c, 7, 57, 0
18, 243380, Note_on_c, 7, 60, 71
18, 243475, Note_on_c, 7, 60, 0
18, 243614, Note_on_c, 7, 57, 73
18, 243709, Note_on_c, 7, 57, 0
18, 243859, Note_on_c, 7, 62, 72
18, 243954, Note_on_c, 7, 62, 0
18, 244095, Note_on_c, 7, 57, 67
18, 244190, Note_on_c, 7, 57, 0
18, 244336, Note_on_c, 7, 60, 67
18, 244431, Note_on_c, 7, 60, 0
18, 244574, Note_on_c, 7, 57, 77
18, 244669, Note_on_c, 7, 57, 0
18, 244812, Note_on_c, 7, 62, 71
18, 244907, Note_on_c, 7, 62, 0
18, 245048, Note_on_c, 7, 57, 71
18, 245143, Note_on_c, 7, 57, 0
18, 245284, Note_on_c, 7, 60, 79
18, 245379, Note_on_c, 7, 60, 0
18, 245534, Note_on_c, 7, 57, 72
18, 245629, Note_on_c, 7, 57, 0
18, 245785, Note_on_c, 7, 62, 71
18, 245880, Note_on_c, 7, 62, 0
18, 246000, Note_on_c, 7, 57, 67
18, 246095, Note_on_c, 7, 57, 0
18, 246261, Note_on_c, 7, 60, 67
18, 246356, Note_on_c, 7, 60, 0
18, 246490, Note_on_c, 7, 57, 82
18, 246585, Note_on_c, 7, 57, 0
18, 246743, Note_on_c, 7, 62, 76
18, 246838, Note_on_c, 7, 62, 0
18, 246967, Note_on_c, 7, 57, 68
18, 247062, Note_on_c, 7, 57, 0
18, 247221, Note_on_c, 7, 60, 82
18, 247316, Note_on_c, 7, 60, 0
18, 247459, Note_on_c, 7, 57, 81
18, 247554, Note_on_c, 7, 57, 0
18, 247698, Note_on_c, 7, 62, 75
18, 247793, Note_on_c, 7, 62, 0
18, 247944, Note_on_c, 7, 57, 65
18, 248039, Note_on_c, 7, 57, 0
18, 248169, Note_on_c, 7, 60, 84
18, 248264, Note_on_c, 7, 60, 0
18, 248418, Note_on_c, 7, 57, 68
18, 248513, Note_on_c, 7, 57, 0
18, 248647, Note_on_c, 7, 62, 78
18, 248742, Note_on_c, 7, 62, 0
18, 248893, Note_on_c, 7, 57, 67
18, 248988, Note_on_c, 7, 57, 0
18, 249129, Note_on_c, 7, 60, 75
18, 249224, Note_on_c, 7, 60, 0
18, 249384, Note_on_c, 7, 57, 78
18, 249479, Note_on_c, 7, 57, 0
18, 249600, Note_on_c, 7, 62, 73
18, 249695, Note_on_c, 7, 62, 0
18, 249858, Note_on_c, 7, 57, 74
18, 249953, Note_on_c, 7, 57, 0
18, 289693, Note_on_c, 7, 45, 105
18, 289813, Note_on_c, 7, 45, 0
18, 289927, Note_on_c, 7, 49, 95
18, 290047, Note_on_c, 7, 49, 0
18, 290161, Note_on_c, 7, 52, 99
18, 290281, Note_on_c, 7, 52, 0
18, 290421, Note_on_c, 7, 48, 99
18, 290541, Note_on_c, 7, 48, 0
18, 290658, Note_on_c, 7, 52, 95
18, 290778, Note_on_c, 7, 52, 0
18, 326660, Note_on_c, 7, 54, 123
18, 326890, Note_on_c, 7, 49, 117
18, 326900, Note_on_c, 7, 54, 0
18, 328330, Note_on_c, 7, 49, 0
18, 354253, Note_on_c, 7, 48, 98
18, 354263, Note_on_c, 7, 36, 88
18, 354396, Note_on_c, 7, 48, 0
18, 354406, Note_on_c, 7, 36, 0
18, 355697, Note_on_c, 7, 36, 85
18, 355704, Note_on_c, 7, 48, 86
18, 355840, Note_on_c, 7, 36, 0
18, 355847, Note_on_c, 7, 48, 0
18, 357121, Note_on_c, 7, 48, 105
18, 357134, Note_on_c, 7, 36, 103
18, 357264, Note_on_c, 7, 48, 0
18, 357277, Note_on_c, 7, 36, 0
18, 358082, Note_on_c, 7, 36, 99
18, 358089, Note_on_c, 7, 48, 99
18, 358225, Note_on_c, 7, 36, 0
18, 358232, Note_on_c, 7, 48, 0
18, 426724, Note_on_c, 7, 27, 104
18, 426744, Note_on_c, 7, 34, 91
18, 427204, Note_on_c, 7, 27, 0
18, 427224, Note_on_c, 7, 34, 0
18, 428643, Note_on_c, 7, 27, 105
18, 428647, Note_on_c, 7, 34, 99
18, 429123, Note_on_c, 7, 27, 0
18, 429127, Note_on_c, 7, 34, 0
18, 430564, Note_on_c, 7, 34, 109
18, 430584, Note_on_c, 7, 27, 101
18, 431044, Note_on_c, 7, 34, 0
18, 431064, Note_on_c, 7, 27, 0
18, 434880, Pitch_bend_c, 7, 8192
18, 434886, Note_on_c, 7, 34, 111
18, 434904, Note_on_c, 7, 27, 92
18, 435366, Note_on_c, 7, 34, 0
18, 435384, Note_on_c, 7, 27, 0
18, 438250, Note_on_c, 7, 34, 93
18, 438260, Note_on_c, 7, 27, 95
18, 438730, Note_on_c, 7, 34, 0
18, 438740, Note_on_c, 7, 27, 0
18, 440165, Note_on_c, 7, 27, 106
18, 440183, Note_on_c, 7, 34, 102
18, 440645, Note_on_c, 7, 27, 0
18, 440663, Note_on_c, 7, 34, 0
18, 443524, Note_on_c, 7, 27, 106
18, 443543, Note_on_c, 7, 34, 95
18, 444004, Note_on_c, 7, 27, 0
18, 444023, Note_on_c, 7, 34, 0
18, 445445, Note_on_c, 7, 39, 115
18, 445447, Note_on_c, 7, 32, 116
18, 445925, Note_on_c, 7, 39, 0
18, 445927, Note_on_c, 7, 32, 0
18, 445927, Note_on_c, 7, 44, 109
18, 445933, Note_on_c, 7, 37, 104
18, 446401, Note_on_c, 7, 40, 113
18, 446407, Note_on_c, 7, 44, 0
18, 446413, Note_on_c, 7, 37, 0
18, 446419, Note_on_c, 7, 45, 115
18, 447361, Note_on_c, 7, 40, 0
18, 447379, Note_on_c, 7, 45, 0
18, 448800, Note_on_c, 7, 42, 96
18, 448943, Note_on_c, 7, 42, 0
18, 455060, Note_on_c, 7, 43, 87
18, 455203, Note_on_c, 7, 43, 0
18, 455532, Note_on_c, 7, 43, 98
18, 455675, Note_on_c, 7, 43, 0
18, 457930, Note_on_c, 7, 40, 93
18, 457934, Note_on_c, 7, 52, 82
18, 458410, Note_on_c, 7, 40, 0
18, 458414, Note_on_c, 7, 52, 0
18, 458886, Note_on_c, 7, 53, 85
18, 458897, Note_on_c, 7, 41, 95
18, 459366, Note_on_c, 7, 53, 0
18, 459377, Note_on_c, 7, 41, 0
18, 459843, Note_on_c, 7, 52, 85
18, 459864, Note_on_c, 7, 40, 78
18, 460323, Note_on_c, 7, 52, 0
18, 460344, Note_on_c, 7, 40, 0
18, 460816, Note_on_c, 7, 41, 98
18, 460821, Note_on_c, 7, 53, 78
18, 461296, Note_on_c, 7, 41, 0
18, 461301, Note_on_c, 7, 53, 0
18, 466081, Note_on_c, 7, 43, 100
18, 466224, Note_on_c, 7, 43, 0
18, 466576, Note_on_c, 7, 43, 101
18, 466719, Note_on_c, 7, 43, 0
18, 468964, Note_on_c, 7, 43, 91
18, 469107, Note_on_c, 7, 43, 0
18, 489607, Note_on_c, 7, 42, 95
18, 490335, Note_on_c, 7, 48, 113
18, 490447, Note_on_c, 7, 42, 0
18, 490582, Note_on_c, 7, 42, 87
18, 490695, Note_on_c, 7, 48, 0
18, 490810, Note_on_c, 7, 59, 124
18, 490942, Note_on_c, 7, 42, 0
18, 491051, Note_on_c, 7, 42, 92
18, 491170, Note_on_c, 7, 59, 0
18, 491280, Note_on_c, 7, 48, 107
18, 491411, Note_on_c, 7, 42, 0
18, 491528, Note_on_c, 7, 42, 89
18, 491640, Note_on_c, 7, 48, 0
18, 491767, Note_on_c, 7, 59, 118
18, 491887, Note_on_c, 7, 59, 0
18, 491888, Note_on_c, 7, 42, 0
18, 492006, Note_on_c, 7, 42, 87
18, 492017, Note_on_c, 7, 48, 113
18, 492137, Note_on_c, 7, 48, 0
18, 492741, Note_on_c, 7, 59, 104
18, 492846, Note_on_c, 7, 42, 0
18, 492961, Note_on_c, 7, 42, 94
18, 493101, Note_on_c, 7, 59, 0
18, 493208, Note_on_c, 7, 48, 111
18, 493321, Note_on_c, 7, 42, 0
18, 493464, Note_on_c, 7, 42, 78
18, 493568, Note_on_c, 7, 48, 0
18, 493681, Note_on_c, 7, 59, 116
18, 493801, Note_on_c, 7, 59, 0
18, 493824, Note_on_c, 7, 42, 0
18, 493932, Note_on_c, 7, 48, 113
18, 493937, Note_on_c, 7, 42, 95
18, 494052, Note_on_c, 7, 48, 0
18, 494057, Note_on_c, 7, 42, 0
18, 498264, Note_on_c, 7, 42, 92
18, 499224, Note_on_c, 7, 42, 0
18, 499680, Note_on_c, 7, 42, 127
18, 500640, Note_on_c, 7, 42, 0
18, 504503, Note_on_c, 7, 42, 90
18, 505463, Note_on_c, 7, 42, 0
18, 505923, Note_on_c, 7, 42, 120
18, 506883, Note_on_c, 7, 42, 0
18, 507846, Note_on_c, 7, 42, 91
18, 508800, Program_c, 7, 58
18, 508801, Note_on_c, 7, 41, 92
18, 508806, Note_on_c, 7, 42, 0
18, 509001, Note_on_c, 7, 41, 0
18, 509139, Note_on_c, 7, 39, 91
18, 509338, Note_on_c, 7, 39, 0
18, 509456, Note_on_c, 7, 37, 105
18, 509656, Note_on_c, 7, 37, 0
18, 509711, Control_c, 7, 11, 127
18, 509718, Control_c, 7, 11, 126
18, 509726, Control_c, 7, 11, 125
18, 509733, Control_c, 7, 11, 124
18, 509741, Control_c, 7, 11, 123
18, 509748, Control_c, 7, 11, 122
18, 509755, Control_c, 7, 11, 121
18, 509762, Control_c, 7, 11, 120
18, 509770, Control_c, 7, 11, 119
18, 509776, Control_c, 7, 11, 118
18, 509778, Note_on_c, 7, 34, 84
18, 509784, Control_c, 7, 11, 117
18, 509791, Control_c, 7, 11, 116
18, 509798, Control_c, 7, 11, 115
18, 509806, Control_c, 7, 11, 114
18, 509813, Control_c, 7, 11, 113
18, 509820, Control_c, 7, 11, 112
18, 509827, Control_c, 7, 11, 111
18, 509835, Control_c, 7, 11, 110
18, 509842, Control_c, 7, 11, 109
18, 509849, Control_c, 7, 11, 108
18, 509856, Control_c, 7, 11, 107
18, 509863, Control_c, 7, 11, 106
18, 509871, Control_c, 7, 11, 105
18, 509878, Control_c, 7, 11, 104
18, 509885, Control_c, 7, 11, 103
18, 509893, Control_c, 7, 11, 102
18, 509900, Control_c, 7, 11, 101
18, 509907, Control_c, 7, 11, 100
18, 509914, Control_c, 7, 11, 99
18, 509921, Control_c, 7, 11, 98
18, 509928, Control_c, 7, 11, 97
18, 509936, Control_c, 7, 11, 96
18, 509943, Control_c, 7, 11, 95
18, 509951, Control_c, 7, 11, 94
18, 509958, Control_c, 7, 11, 93
18, 509965, Control_c, 7, 11, 92
18, 509972, Control_c, 7, 11, 91
18, 509979, Control_c, 7, 11, 90
18, 509986, Control_c, 7, 11, 89
18, 509994, Control_c, 7, 11, 88
18, 510001, Control_c, 7, 11, 87
18, 510008, Control_c, 7, 11, 86
18, 510016, Control_c, 7, 11, 85
18, 510023, Control_c, 7, 11, 84
18, 510030, Control_c, 7, 11, 83
18, 510037, Control_c, 7, 11, 82
18, 510045, Control_c, 7, 11, 81
18, 510052, Control_c, 7, 11, 80
18, 510059, Control_c, 7, 11, 79
18, 510066, Control_c, 7, 11, 78
18, 510073, Control_c, 7, 11, 77
18, 510081, Control_c, 7, 11, 76
18, 510088, Control_c, 7, 11, 75
18, 510095, Control_c, 7, 11, 74
18, 510103, Control_c, 7, 11, 73
18, 510110, Control_c, 7, 11, 72
18, 510117, Control_c, 7, 11, 71
18, 510124, Control_c, 7, 11, 70
18, 510131, Control_c, 7, 11, 69
18, 510138, Control_c, 7, 11, 68
18, 510146, Control_c, 7, 11, 67
18, 510153, Control_c, 7, 11, 66
18, 510160, Control_c, 7, 11, 65
18, 510168, Control_c, 7, 11, 64
18, 510175, Control_c, 7, 11, 63
18, 510182, Control_c, 7, 11, 62
18, 510189, Control_c, 7, 11, 61
18, 510196, Control_c, 7, 11, 60
18, 510204, Control_c, 7, 11, 59
18, 510211, Control_c, 7, 11, 58
18, 510218, Control_c, 7, 11, 57
18, 510225, Control_c, 7, 11, 56
18, 510233, Control_c, 7, 11, 55
18, 510240, Control_c, 7, 11, 54
18, 510247, Control_c, 7, 11, 53
18, 510255, Control_c, 7, 11, 52
18, 510262, Control_c, 7, 11, 51
18, 510269, Control_c, 7, 11, 50
18, 510276, Control_c, 7, 11, 49
18, 510283, Control_c, 7, 11, 48
18, 510290, Control_c, 7, 11, 47
18, 510298, Control_c, 7, 11, 46
18, 510305, Control_c, 7, 11, 45
18, 510313, Control_c, 7, 11, 44
18, 510320, Control_c, 7, 11, 43
18, 510327, Control_c, 7, 11, 42
18, 510334, Control_c, 7, 11, 41
18, 510356, Control_c, 7, 11, 32
18, 510371, Control_c, 7, 11, 33
18, 510384, Control_c, 7, 11, 34
18, 510398, Control_c, 7, 11, 35
18, 510412, Control_c, 7, 11, 36
18, 510426, Control_c, 7, 11, 37
18, 510440, Control_c, 7, 11, 38
18, 510454, Control_c, 7, 11, 39
18, 510468, Control_c, 7, 11, 40
18, 510481, Control_c, 7, 11, 41
18, 510496, Control_c, 7, 11, 42
18, 510510, Control_c, 7, 11, 43
18, 510523, Control_c, 7, 11, 44
18, 510538, Control_c, 7, 11, 45
18, 510551, Control_c, 7, 11, 46
18, 510566, Control_c, 7, 11, 47
18, 510579, Control_c, 7, 11, 48
18, 510593, Control_c, 7, 11, 49
18, 510607, Control_c, 7, 11, 50
18, 510621, Control_c, 7, 11, 51
18, 510635, Control_c, 7, 11, 52
18, 510649, Control_c, 7, 11, 53
18, 510663, Control_c, 7, 11, 54
18, 510676, Control_c, 7, 11, 55
18, 510691, Control_c, 7, 11, 56
18, 510705, Control_c, 7, 11, 57
18, 510718, Control_c, 7, 11, 58
18, 510733, Control_c, 7, 11, 59
18, 510746, Control_c, 7, 11, 60
18, 510760, Control_c, 7, 11, 61
18, 510774, Control_c, 7, 11, 62
18, 510788, Control_c, 7, 11, 63
18, 510802, Control_c, 7, 11, 64
18, 510816, Control_c, 7, 11, 65
18, 510830, Control_c, 7, 11, 66
18, 510844, Control_c, 7, 11, 67
18, 510858, Control_c, 7, 11, 68
18, 510871, Control_c, 7, 11, 69
18, 510886, Control_c, 7, 11, 70
18, 510900, Control_c, 7, 11, 71
18, 510913, Control_c, 7, 11, 72
18, 510928, Control_c, 7, 11, 73
18, 510941, Control_c, 7, 11, 74
18, 510955, Control_c, 7, 11, 75
18, 510969, Control_c, 7, 11, 76
18, 510983, Control_c, 7, 11, 77
18, 510997, Control_c, 7, 11, 78
18, 511011, Control_c, 7, 11, 79
18, 511025, Control_c, 7, 11, 80
18, 511039, Control_c, 7, 11, 81
18, 511053, Control_c, 7, 11, 82
18, 511066, Control_c, 7, 11, 83
18, 511081, Control_c, 7, 11, 84
18, 511095, Control_c, 7, 11, 85
18, 511108, Control_c, 7, 11, 86
18, 511123, Control_c, 7, 11, 87
18, 511136, Control_c, 7, 11, 88
18, 511150, Control_c, 7, 11, 89
18, 511164, Control_c, 7, 11, 90
18, 511178, Control_c, 7, 11, 91
18, 511192, Control_c, 7, 11, 92
18, 511206, Control_c, 7, 11, 93
18, 511220, Control_c, 7, 11, 94
18, 511233, Control_c, 7, 11, 95
18, 511248, Control_c, 7, 11, 96
18, 511261, Control_c, 7, 11, 97
18, 511276, Control_c, 7, 11, 98
18, 511290, Control_c, 7, 11, 99
18, 511303, Control_c, 7, 11, 100
18, 511318, Control_c, 7, 11, 101
18, 511331, Control_c, 7, 11, 102
18, 511345, Control_c, 7, 11, 103
18, 511359, Control_c, 7, 11, 104
18, 511373, Control_c, 7, 11, 105
18, 511387, Control_c, 7, 11, 106
18, 511401, Control_c, 7, 11, 107
18, 511415, Control_c, 7, 11, 108
18, 511428, Control_c, 7, 11, 109
18, 511443, Control_c, 7, 11, 110
18, 511456, Control_c, 7, 11, 111
18, 511470, Control_c, 7, 11, 112
18, 511485, Control_c, 7, 11, 113
18, 511498, Control_c, 7, 11, 114
18, 511513, Control_c, 7, 11, 115
18, 511526, Control_c, 7, 11, 116
18, 511540, Control_c, 7, 11, 117
18, 511554, Control_c, 7, 11, 118
18, 511568, Control_c, 7, 11, 119
18, 511582, Control_c, 7, 11, 120
18, 511596, Control_c, 7, 11, 121
18, 511610, Control_c, 7, 11, 122
18, 511623, Control_c, 7, 11, 123
18, 511638, Control_c, 7, 11, 124
18, 511651, Control_c, 7, 11, 125
18, 511665, Control_c, 7, 11, 126
18, 511793, Note_on_c, 7, 34, 0
18, 511939, Note_on_c, 7, 48, 84
18, 512275, Note_on_c, 7, 48, 0
18, 512409, Note_on_c, 7, 59, 92
18, 512745, Note_on_c, 7, 59, 0
18, 512897, Note_on_c, 7, 48, 80
18, 513233, Note_on_c, 7, 48, 0
18, 513373, Note_on_c, 7, 59, 91
18, 513541, Note_on_c, 7, 59, 0
18, 513600, Control_c, 7, 11, 124
18, 513603, Control_c, 7, 11, 123
18, 513606, Control_c, 7, 11, 122
18, 513609, Control_c, 7, 11, 121
18, 513610, Note_on_c, 7, 34, 96
18, 513613, Control_c, 7, 11, 120
18, 513616, Control_c, 7, 11, 119
18, 513619, Control_c, 7, 11, 118
18, 513622, Control_c, 7, 11, 117
18, 513626, Control_c, 7, 11, 116
18, 513629, Control_c, 7, 11, 115
18, 513632, Control_c, 7, 11, 114
18, 513635, Control_c, 7, 11, 113
18, 513639, Control_c, 7, 11, 112
18, 513643, Control_c, 7, 11, 111
18, 513646, Control_c, 7, 11, 110
18, 513649, Control_c, 7, 11, 109
18, 513652, Control_c, 7, 11, 108
18, 513656, Control_c, 7, 11, 107
18, 513659, Control_c, 7, 11, 106
18, 513662, Control_c, 7, 11, 105
18, 513665, Control_c, 7, 11, 104
18, 513669, Control_c, 7, 11, 103
18, 513672, Control_c, 7, 11, 102
18, 513675, Control_c, 7, 11, 101
18, 513678, Control_c, 7, 11, 100
18, 513682, Control_c, 7, 11, 99
18, 513685, Control_c, 7, 11, 98
18, 513688, Control_c, 7, 11, 97
18, 513691, Control_c, 7, 11, 96
18, 513695, Control_c, 7, 11, 95
18, 513698, Control_c, 7, 11, 94
18, 513701, Control_c, 7, 11, 93
18, 513705, Control_c, 7, 11, 92
18, 513708, Control_c, 7, 11, 91
18, 513711, Control_c, 7, 11, 90
18, 513715, Control_c, 7, 11, 89
18, 513718, Control_c, 7, 11, 88
18, 513721, Control_c, 7, 11, 87
18, 513725, Control_c, 7, 11, 86
18, 513728, Control_c, 7, 11, 85
18, 513731, Control_c, 7, 11, 84
18, 513735, Control_c, 7, 11, 83
18, 513738, Control_c, 7, 11, 82
18, 513741, Control_c, 7, 11, 81
18, 513744, Control_c, 7, 11, 80
18, 513748, Control_c, 7, 11, 79
18, 513751, Control_c, 7, 11, 78
18, 513755, Control_c, 7, 11, 77
18, 513758, Control_c, 7, 11, 76
18, 513761, Control_c, 7, 11, 75
18, 513765, Control_c, 7, 11, 74
18, 513768, Control_c, 7, 11, 73
18, 513771, Control_c, 7, 11, 72
18, 513774, Control_c, 7, 11, 71
18, 513778, Control_c, 7, 11, 70
18, 513781, Control_c, 7, 11, 69
18, 513784, Control_c, 7, 11, 68
18, 513787, Control_c, 7, 11, 67
18, 513791, Control_c, 7, 11, 66
18, 513794, Control_c, 7, 11, 65
18, 513797, Control_c, 7, 11, 64
18, 513800, Control_c, 7, 11, 63
18, 513804, Control_c, 7, 11, 62
18, 513807, Control_c, 7, 11, 61
18, 513810, Control_c, 7, 11, 60
18, 513813, Control_c, 7, 11, 59
18, 513817, Control_c, 7, 11, 58
18, 513820, Control_c, 7, 11, 57
18, 513823, Control_c, 7, 11, 56
18, 513826, Control_c, 7, 11, 55
18, 513830, Control_c, 7, 11, 54
18, 513833, Control_c, 7, 11, 53
18, 513836, Control_c, 7, 11, 52
18, 513840, Control_c, 7, 11, 51
18, 513843, Control_c, 7, 11, 50
18, 513846, Control_c, 7, 11, 49
18, 513850, Control_c, 7, 11, 48
18, 513853, Control_c, 7, 11, 47
18, 513856, Control_c, 7, 11, 46
18, 513860, Control_c, 7, 11, 45
18, 513863, Control_c, 7, 11, 44
18, 513866, Control_c, 7, 11, 43
18, 513870, Control_c, 7, 11, 42
18, 513873, Control_c, 7, 11, 41
18, 513876, Control_c, 7, 11, 40
18, 513880, Control_c, 7, 11, 39
18, 513883, Control_c, 7, 11, 38
18, 513886, Control_c, 7, 11, 37
18, 513890, Control_c, 7, 11, 36
18, 513930, Control_c, 7, 11, 33
18, 513957, Control_c, 7, 11, 34
18, 513984, Control_c, 7, 11, 35
18, 514011, Control_c, 7, 11, 36
18, 514038, Control_c, 7, 11, 37
18, 514065, Control_c, 7, 11, 38
18, 514093, Control_c, 7, 11, 39
18, 514120, Control_c, 7, 11, 40
18, 514147, Control_c, 7, 11, 41
18, 514174, Control_c, 7, 11, 42
18, 514201, Control_c, 7, 11, 43
18, 514228, Control_c, 7, 11, 44
18, 514255, Control_c, 7, 11, 45
18, 514282, Control_c, 7, 11, 46
18, 514310, Control_c, 7, 11, 47
18, 514336, Control_c, 7, 11, 48
18, 514364, Control_c, 7, 11, 49
18, 514391, Control_c, 7, 11, 50
18, 514418, Control_c, 7, 11, 51
18, 514445, Control_c, 7, 11, 52
18, 514472, Control_c, 7, 11, 53
18, 514500, Control_c, 7, 11, 54
18, 514526, Control_c, 7, 11, 55
18, 514554, Control_c, 7, 11, 56
18, 514581, Control_c, 7, 11, 57
18, 514608, Control_c, 7, 11, 58
18, 514635, Control_c, 7, 11, 59
18, 514662, Control_c, 7, 11, 60
18, 514689, Control_c, 7, 11, 61
18, 514716, Control_c, 7, 11, 62
18, 514743, Control_c, 7, 11, 63
18, 514771, Control_c, 7, 11, 64
18, 514798, Control_c, 7, 11, 65
18, 514825, Control_c, 7, 11, 66
18, 514852, Control_c, 7, 11, 67
18, 514879, Control_c, 7, 11, 68
18, 514906, Control_c, 7, 11, 69
18, 514933, Control_c, 7, 11, 70
18, 514961, Control_c, 7, 11, 71
18, 514988, Control_c, 7, 11, 72
18, 515015, Control_c, 7, 11, 73
18, 515041, Control_c, 7, 11, 74
18, 515069, Control_c, 7, 11, 75
18, 515096, Control_c, 7, 11, 76
18, 515123, Control_c, 7, 11, 77
18, 515150, Control_c, 7, 11, 78
18, 515178, Control_c, 7, 11, 79
18, 515205, Control_c, 7, 11, 80
18, 515231, Control_c, 7, 11, 81
18, 515259, Control_c, 7, 11, 82
18, 515286, Control_c, 7, 11, 83
18, 515313, Control_c, 7, 11, 84
18, 515340, Control_c, 7, 11, 85
18, 515368, Control_c, 7, 11, 86
18, 515394, Control_c, 7, 11, 87
18, 515421, Control_c, 7, 11, 88
18, 515448, Control_c, 7, 11, 89
18, 515476, Control_c, 7, 11, 90
18, 515503, Control_c, 7, 11, 91
18, 515530, Control_c, 7, 11, 92
18, 515557, Control_c, 7, 11, 93
18, 515585, Control_c, 7, 11, 94
18, 515611, Control_c, 7, 11, 95
18, 515638, Control_c, 7, 11, 96
18, 515666, Control_c, 7, 11, 97
18, 515693, Control_c, 7, 11, 98
18, 515720, Control_c, 7, 11, 99
18, 515747, Control_c, 7, 11, 100
18, 515775, Control_c, 7, 11, 101
18, 515801, Control_c, 7, 11, 102
18, 515828, Control_c, 7, 11, 103
18, 515855, Control_c, 7, 11, 104
18, 515883, Control_c, 7, 11, 105
18, 515910, Control_c, 7, 11, 106
18, 515937, Control_c, 7, 11, 107
18, 515964, Control_c, 7, 11, 108
18, 515991, Control_c, 7, 11, 109
18, 516018, Control_c, 7, 11, 110
18, 516045, Control_c, 7, 11, 111
18, 516073, Control_c, 7, 11, 112
18, 516100, Control_c, 7, 11, 113
18, 516127, Control_c, 7, 11, 114
18, 516154, Control_c, 7, 11, 115
18, 516181, Control_c, 7, 11, 116
18, 516208, Control_c, 7, 11, 117
18, 516235, Control_c, 7, 11, 118
18, 516262, Control_c, 7, 11, 119
18, 516290, Control_c, 7, 11, 120
18, 516316, Control_c, 7, 11, 121
18, 516344, Control_c, 7, 11, 122
18, 516371, Control_c, 7, 11, 123
18, 516398, Control_c, 7, 11, 124
18, 516425, Control_c, 7, 11, 125
18, 516452, Control_c, 7, 11, 126
18, 516585, Note_on_c, 7, 34, 0
18, 516741, Note_on_c, 7, 48, 103
18, 517207, Note_on_c, 7, 59, 96
18, 517221, Note_on_c, 7, 48, 0
18, 517681, Note_on_c, 7, 48, 105
18, 517687, Note_on_c, 7, 59, 0
18, 518161, Note_on_c, 7, 48, 0
18, 518178, Note_on_c, 7, 59, 101
18, 518418, Note_on_c, 7, 59, 0
18, 518898, Note_on_c, 7, 39, 90
18, 518902, Note_on_c, 7, 45, 81
18, 519258, Note_on_c, 7, 39, 0
18, 519262, Note_on_c, 7, 45, 0
18, 519364, Note_on_c, 7, 45, 96
18, 519374, Note_on_c, 7, 39, 83
18, 519484, Note_on_c, 7, 45, 0
18, 519494, Note_on_c, 7, 39, 0
18, 519605, Note_on_c, 7, 39, 84
18, 519618, Note_on_c, 7, 45, 84
18, 519725, Note_on_c, 7, 39, 0
18, 519738, Note_on_c, 7, 45, 0
18, 519850, Note_on_c, 7, 45, 81
18, 519860, Note_on_c, 7, 39, 93
18, 519970, Note_on_c, 7, 45, 0
18, 519980, Note_on_c, 7, 39, 0
18, 520082, Note_on_c, 7, 39, 93
18, 520091, Note_on_c, 7, 45, 86
18, 520202, Note_on_c, 7, 39, 0
18, 520211, Note_on_c, 7, 45, 0
18, 520320, Note_on_c, 7, 45, 89
18, 520323, Note_on_c, 7, 39, 79
18, 520440, Note_on_c, 7, 45, 0
18, 520443, Note_on_c, 7, 39, 0
18, 520565, Note_on_c, 7, 45, 94
18, 520572, Note_on_c, 7, 39, 82
18, 520685, Note_on_c, 7, 45, 0
18, 520692, Note_on_c, 7, 39, 0
18, 520808, Note_on_c, 7, 45, 85
18, 520813, Note_on_c, 7, 39, 79
18, 520928, Note_on_c, 7, 45, 0
18, 520933, Note_on_c, 7, 39, 0
18, 521049, Note_on_c, 7, 45, 83
18, 521055, Note_on_c, 7, 39, 97
18, 521169, Note_on_c, 7, 45, 0
18, 521175, Note_on_c, 7, 39, 0
18, 521285, Note_on_c, 7, 45, 91
18, 521293, Note_on_c, 7, 39, 97
18, 521405, Note_on_c, 7, 45, 0
18, 521413, Note_on_c, 7, 39, 0
18, 521534, Note_on_c, 7, 39, 79
18, 521540, Note_on_c, 7, 45, 86
18, 521654, Note_on_c, 7, 39, 0
18, 521660, Note_on_c, 7, 45, 0
18, 521778, Note_on_c, 7, 45, 80
18, 521782, Note_on_c, 7, 39, 83
18, 521898, Note_on_c, 7, 45, 0
18, 521902, Note_on_c, 7, 39, 0
18, 524409, Note_on_c, 7, 48, 96
18, 524745, Note_on_c, 7, 48, 0
18, 524895, Note_on_c, 7, 59, 95
18, 525231, Note_on_c, 7, 59, 0
18, 525362, Note_on_c, 7, 48, 83
18, 525698, Note_on_c, 7, 48, 0
18, 525857, Note_on_c, 7, 59, 80
18, 526025, Note_on_c, 7, 59, 0
18, 526091, Note_on_c, 7, 48, 88
18, 526259, Note_on_c, 7, 48, 0
18, 526824, Note_on_c, 7, 59, 81
18, 527160, Note_on_c, 7, 59, 0
18, 527286, Note_on_c, 7, 48, 85
18, 527622, Note_on_c, 7, 48, 0
18, 527785, Note_on_c, 7, 59, 97
18, 527953, Note_on_c, 7, 59, 0
18, 528025, Note_on_c, 7, 48, 98
18, 528193, Note_on_c, 7, 48, 0
18, 604320, Program_c, 7, 58
18, 604339, Note_on_c, 7, 56, 106
18, 606256, Control_c, 7, 11, 126
18, 606280, Control_c, 7, 11, 125
18, 606303, Control_c, 7, 11, 124
18, 606326, Control_c, 7, 11, 123
18, 606349, Control_c, 7, 11, 122
18, 606373, Control_c, 7, 11, 121
18, 606395, Control_c, 7, 11, 120
18, 606418, Control_c, 7, 11, 119
18, 606441, Control_c, 7, 11, 118
18, 606465, Control_c, 7, 11, 117
18, 606488, Control_c, 7, 11, 116
18, 606511, Control_c, 7, 11, 115
18, 606534, Control_c, 7, 11, 114
18, 606557, Control_c, 7, 11, 113
18, 606580, Control_c, 7, 11, 112
18, 606603, Control_c, 7, 11, 111
18, 606626, Control_c, 7, 11, 110
18, 606650, Control_c, 7, 11, 109
18, 606673, Control_c, 7, 11, 108
18, 606695, Control_c, 7, 11, 107
18, 606718, Control_c, 7, 11, 106
18, 606742, Control_c, 7, 11, 105
18, 606765, Control_c, 7, 11, 104
18, 606788, Control_c, 7, 11, 103
18, 606811, Control_c, 7, 11, 102
18, 606834, Control_c, 7, 11, 101
18, 606857, Control_c, 7, 11, 100
18, 606880, Control_c, 7, 11, 99
18, 606903, Control_c, 7, 11, 98
18, 606926, Control_c, 7, 11, 97
18, 606950, Control_c, 7, 11, 96
18, 606973, Control_c, 7, 11, 95
18, 606995, Control_c, 7, 11, 94
18, 607019, Control_c, 7, 11, 93
18, 607042, Control_c, 7, 11, 92
18, 607065, Control_c, 7, 11, 91
18, 607088, Control_c, 7, 11, 90
18, 607111, Control_c, 7, 11, 89
18, 607134, Control_c, 7, 11, 88
18, 607157, Control_c, 7, 11, 87
18, 607180, Control_c, 7, 11, 86
18, 607203, Control_c, 7, 11, 85
18, 607226, Control_c, 7, 11, 84
18, 607250, Control_c, 7, 11, 83
18, 607273, Control_c, 7, 11, 82
18, 607296, Control_c, 7, 11, 81
18, 607319, Control_c, 7, 11, 80
18, 607342, Control_c, 7, 11, 79
18, 607365, Control_c, 7, 11, 78
18, 607388, Control_c, 7, 11, 77
18, 607411, Control_c, 7, 11, 76
18, 607434, Control_c, 7, 11, 75
18, 607457, Control_c, 7, 11, 74
18, 607481, Control_c, 7, 11, 73
18, 607503, Control_c, 7, 11, 72
18, 607526, Control_c, 7, 11, 71
18, 607550, Control_c, 7, 11, 70
18, 607573, Control_c, 7, 11, 69
18, 607596, Control_c, 7, 11, 68
18, 607619, Control_c, 7, 11, 67
18, 607642, Control_c, 7, 11, 66
18, 607665, Control_c, 7, 11, 65
18, 607686, Note_on_c, 7, 55, 97
18, 607699, Note_on_c, 7, 56, 0
18, 607926, Note_on_c, 7, 55, 0
18, 608168, Note_on_c, 7, 56, 109
18, 608176, Control_c, 7, 11, 126
18, 608200, Control_c, 7, 11, 125
18, 608223, Control_c, 7, 11, 124
18, 608246, Control_c, 7, 11, 123
18, 608269, Control_c, 7, 11, 122
18, 608293, Control_c, 7, 11, 121
18, 608315, Control_c, 7, 11, 120
18, 608338, Control_c, 7, 11, 119
18, 608361, Control_c, 7, 11, 118
18, 608385, Control_c, 7, 11, 117
18, 608408, Control_c, 7, 11, 116
18, 608431, Control_c, 7, 11, 115
18, 608454, Control_c, 7, 11, 114
18, 608477, Control_c, 7, 11, 113
18, 608500, Control_c, 7, 11, 112
18, 608523, Control_c, 7, 11, 111
18, 608546, Control_c, 7, 11, 110
18, 608570, Control_c, 7, 11, 109
18, 608593, Control_c, 7, 11, 108
18, 608615, Control_c, 7, 11, 107
18, 608638, Control_c, 7, 11, 106
18, 608662, Control_c, 7, 11, 105
18, 608685, Control_c, 7, 11, 104
18, 608708, Control_c, 7, 11, 103
18, 608731, Control_c, 7, 11, 102
18, 608754, Control_c, 7, 11, 101
18, 608777, Control_c, 7, 11, 100
18, 608800, Control_c, 7, 11, 99
18, 608823, Control_c, 7, 11, 98
18, 608846, Control_c, 7, 11, 97
18, 608870, Control_c, 7, 11, 96
18, 608893, Control_c, 7, 11, 95
18, 608915, Control_c, 7, 11, 94
18, 608939, Control_c, 7, 11, 93
18, 608962, Control_c, 7, 11, 92
18, 608985, Control_c, 7, 11, 91
18, 609008, Control_c, 7, 11, 90
18, 609031, Control_c, 7, 11, 89
18, 609054, Control_c, 7, 11, 88
18, 609077, Control_c, 7, 11, 87
18, 609100, Control_c, 7, 11, 86
18, 609123, Control_c, 7, 11, 85
18, 609146, Control_c, 7, 11, 84
18, 609170, Control_c, 7, 11, 83
18, 609193, Control_c, 7, 11, 82
18, 609216, Control_c, 7, 11, 81
18, 609239, Control_c, 7, 11, 80
18, 609262, Control_c, 7, 11, 79
18, 609285, Control_c, 7, 11, 78
18, 609308, Control_c, 7, 11, 77
18, 609331, Control_c, 7, 11, 76
18, 609354, Control_c, 7, 11, 75
18, 609377, Control_c, 7, 11, 74
18, 609401, Control_c, 7, 11, 73
18, 609423, Control_c, 7, 11, 72
18, 609446, Control_c, 7, 11, 71
18, 609470, Control_c, 7, 11, 70
18, 609493, Control_c, 7, 11, 69
18, 609516, Control_c, 7, 11, 68
18, 609539, Control_c, 7, 11, 67
18, 609562, Control_c, 7, 11, 66
18, 609585, Control_c, 7, 11, 65
18, 609608, Note_on_c, 7, 56, 0
18, 609614, Note_on_c, 7, 55, 114
18, 609854, Note_on_c, 7, 55, 0
18, 610091, Note_on_c, 7, 56, 99
18, 610096, Control_c, 7, 11, 126
18, 610120, Control_c, 7, 11, 125
18, 610143, Control_c, 7, 11, 124
18, 610166, Control_c, 7, 11, 123
18, 610189, Control_c, 7, 11, 122
18, 610213, Control_c, 7, 11, 121
18, 610235, Control_c, 7, 11, 120
18, 610258, Control_c, 7, 11, 119
18, 610281, Control_c, 7, 11, 118
18, 610305, Control_c, 7, 11, 117
18, 610328, Control_c, 7, 11, 116
18, 610351, Control_c, 7, 11, 115
18, 610374, Control_c, 7, 11, 114
18, 610397, Control_c, 7, 11, 113
18, 610420, Control_c, 7, 11, 112
18, 610443, Control_c, 7, 11, 111
18, 610466, Control_c, 7, 11, 110
18, 610490, Control_c, 7, 11, 109
18, 610513, Control_c, 7, 11, 108
18, 610535, Control_c, 7, 11, 107
18, 610558, Control_c, 7, 11, 106
18, 610582, Control_c, 7, 11, 105
18, 610605, Control_c, 7, 11, 104
18, 610628, Control_c, 7, 11, 103
18, 610651, Control_c, 7, 11, 102
18, 610674, Control_c, 7, 11, 101
18, 610697, Control_c, 7, 11, 100
18, 610720, Control_c, 7, 11, 99
18, 610743, Control_c, 7, 11, 98
18, 610766, Control_c, 7, 11, 97
18, 610790, Control_c, 7, 11, 96
18, 610813, Control_c, 7, 11, 95
18, 610835, Control_c, 7, 11, 94
18, 610859, Control_c, 7, 11, 93
18, 610882, Control_c, 7, 11, 92
18, 610905, Control_c, 7, 11, 91
18, 610928, Control_c, 7, 11, 90
18, 610951, Control_c, 7, 11, 89
18, 610974, Control_c, 7, 11, 88
18, 610997, Control_c, 7, 11, 87
18, 611020, Control_c, 7, 11, 86
18, 611043, Control_c, 7, 11, 85
18, 611066, Control_c, 7, 11, 84
18, 611090, Control_c, 7, 11, 83
18, 611113, Control_c, 7, 11, 82
18, 611136, Control_c, 7, 11, 81
18, 611159, Control_c, 7, 11, 80
18, 611182, Control_c, 7, 11, 79
18, 611205, Control_c, 7, 11, 78
18, 611228, Control_c, 7, 11, 77
18, 611251, Control_c, 7, 11, 76
18, 611274, Control_c, 7, 11, 75
18, 611297, Control_c, 7, 11, 74
18, 611321, Control_c, 7, 11, 73
18, 611343, Control_c, 7, 11, 72
18, 611366, Control_c, 7, 11, 71
18, 611390, Control_c, 7, 11, 70
18, 611413, Control_c, 7, 11, 69
18, 611436, Control_c, 7, 11, 68
18, 611459, Control_c, 7, 11, 67
18, 611482, Control_c, 7, 11, 66
18, 611505, Control_c, 7, 11, 65
18, 611526, Note_on_c, 7, 54, 99
18, 611531, Note_on_c, 7, 56, 0
18, 611766, Note_on_c, 7, 54, 0
18, 611994, Control_c, 7, 11, 127
18, 612018, Note_on_c, 7, 56, 100
18, 612378, Note_on_c, 7, 56, 0
18, 612504, Note_on_c, 7, 58, 110
18, 612864, Note_on_c, 7, 58, 0
18, 612963, Note_on_c, 7, 61, 114
18, 613323, Note_on_c, 7, 61, 0
18, 613454, Note_on_c, 7, 58, 115
18, 613814, Note_on_c, 7, 58, 0
18, 613926, Note_on_c, 7, 56, 112
18, 615366, Note_on_c, 7, 56, 0
18, 615379, Note_on_c, 7, 55, 98
18, 615619, Note_on_c, 7, 55, 0
18, 615847, Note_on_c, 7, 56, 101
18, 617287, Note_on_c, 7, 56, 0
18, 617299, Note_on_c, 7, 54, 108
18, 617539, Note_on_c, 7, 54, 0
18, 617767, Note_on_c, 7, 56, 104
18, 619201, Note_on_c, 7, 54, 101
18, 619207, Note_on_c, 7, 56, 0
18, 619441, Note_on_c, 7, 54, 0
18, 619701, Note_on_c, 7, 56, 116
18, 620061, Note_on_c, 7, 56, 0
18, 620172, Note_on_c, 7, 58, 99
18, 620532, Note_on_c, 7, 58, 0
18, 620643, Note_on_c, 7, 61, 101
18, 621003, Note_on_c, 7, 61, 0
18, 621120, Note_on_c, 7, 58, 110
18, 621480, Note_on_c, 7, 58, 0
18, 621600, Note_on_c, 7, 56, 112
18, 623040, Note_on_c, 7, 56, 0
18, 623051, Note_on_c, 7, 54, 98
18, 623291, Note_on_c, 7, 54, 0
18, 623525, Note_on_c, 7, 56, 98
18, 623885, Note_on_c, 7, 56, 0
18, 624009, Note_on_c, 7, 58, 110
18, 624369, Note_on_c, 7, 58, 0
18, 624497, Note_on_c, 7, 61, 98
18, 624857, Note_on_c, 7, 61, 0
18, 624985, Note_on_c, 7, 58, 112
18, 625345, Note_on_c, 7, 58, 0
18, 625441, Note_on_c, 7, 56, 117
18, 626761, Note_on_c, 7, 56, 0
18, 626894, Note_on_c, 7, 54, 109
18, 627014, Note_on_c, 7, 54, 0
18, 627379, Note_on_c, 7, 56, 113
18, 628699, Note_on_c, 7, 56, 0
18, 628804, Note_on_c, 7, 55, 115
18, 628924, Note_on_c, 7, 55, 0
18, 629303, Note_on_c, 7, 56, 102
18, 629663, Note_on_c, 7, 56, 0
18, 629780, Note_on_c, 7, 58, 113
18, 630140, Note_on_c, 7, 58, 0
18, 630261, Note_on_c, 7, 61, 100
18, 630621, Note_on_c, 7, 61, 0
18, 630733, Note_on_c, 7, 58, 106
18, 631093, Note_on_c, 7, 58, 0
18, 631201, Note_on_c, 7, 56, 106
18, 632521, Note_on_c, 7, 56, 0
18, 632661, Note_on_c, 7, 55, 97
18, 633021, Note_on_c, 7, 55, 0
18, 633134, Note_on_c, 7, 56, 106
18, 634454, Note_on_c, 7, 56, 0
18, 634585, Note_on_c, 7, 55, 114
18, 634945, Note_on_c, 7, 55, 0
18, 635048, Note_on_c, 7, 56, 100
18, 636368, Note_on_c, 7, 56, 0
18, 636483, Note_on_c, 7, 54, 108
18, 636843, Note_on_c, 7, 54, 0
18, 636985, Note_on_c, 7, 56, 112
18, 637345, Note_on_c, 7, 56, 0
18, 637463, Note_on_c, 7, 58, 106
18, 637823, Note_on_c, 7, 58, 0
18, 637943, Note_on_c, 7, 61, 104
18, 638303, Note_on_c, 7, 61, 0
18, 638401, Note_on_c, 7, 58, 108
18, 638761, Note_on_c, 7, 58, 0
18, 638884, Note_on_c, 7, 56, 105
18, 640204, Note_on_c, 7, 56, 0
18, 640330, Note_on_c, 7, 55, 97
18, 640690, Note_on_c, 7, 55, 0
18, 640802, Note_on_c, 7, 56, 117
18, 642122, Note_on_c, 7, 56, 0
18, 642244, Note_on_c, 7, 54, 114
18, 642604, Note_on_c, 7, 54, 0
18, 642722, Note_on_c, 7, 56, 107
18, 644042, Note_on_c, 7, 56, 0
18, 644173, Note_on_c, 7, 54, 104
18, 644533, Note_on_c, 7, 54, 0
18, 644645, Note_on_c, 7, 56, 107
18, 645005, Note_on_c, 7, 56, 0
18, 645125, Note_on_c, 7, 58, 108
18, 645485, Note_on_c, 7, 58, 0
18, 645607, Note_on_c, 7, 61, 97
18, 645967, Note_on_c, 7, 61, 0
18, 646102, Note_on_c, 7, 58, 103
18, 646462, Note_on_c, 7, 58, 0
18, 646564, Note_on_c, 7, 56, 111
18, 647884, Note_on_c, 7, 56, 0
18, 648020, Note_on_c, 7, 55, 107
18, 648380, Note_on_c, 7, 55, 0
18, 648502, Note_on_c, 7, 56, 103
18, 649822, Note_on_c, 7, 56, 0
18, 649928, Note_on_c, 7, 54, 105
18, 650288, Note_on_c, 7, 54, 0
18, 650409, Note_on_c, 7, 56, 107
18, 651729, Note_on_c, 7, 56, 0
18, 651864, Note_on_c, 7, 54, 100
18, 652224, Note_on_c, 7, 54, 0
18, 652334, Note_on_c, 7, 56, 113
18, 652694, Note_on_c, 7, 56, 0
18, 652806, Note_on_c, 7, 58, 98
18, 653166, Note_on_c, 7, 58, 0
18, 653292, Note_on_c, 7, 61, 116
18, 653652, Note_on_c, 7, 61, 0
18, 653767, Note_on_c, 7, 58, 100
18, 654127, Note_on_c, 7, 58, 0
18, 654257, Note_on_c, 7, 56, 95
18, 655457, Note_on_c, 7, 56, 0
18, 655694, Note_on_c, 7, 55, 105
18, 655934, Note_on_c, 7, 55, 0
18, 656182, Note_on_c, 7, 56, 106
18, 657382, Note_on_c, 7, 56, 0
18, 657619, Note_on_c, 7, 54, 91
18, 657859, Note_on_c, 7, 54, 0
18, 658087, Note_on_c, 7, 56, 106
18, 659287, Note_on_c, 7, 56, 0
18, 659533, Note_on_c, 7, 54, 105
18, 659773, Note_on_c, 7, 54, 0
18, 660014, Note_on_c, 7, 56, 121
18, 660374, Note_on_c, 7, 56, 0
18, 660505, Note_on_c, 7, 58, 123
18, 660865, Note_on_c, 7, 58, 0
18, 660972, Note_on_c, 7, 61, 117
18, 661332, Note_on_c, 7, 61, 0
18, 661459, Note_on_c, 7, 58, 127
18, 661819, Note_on_c, 7, 58, 0
18, 661934, Note_on_c, 7, 56, 102
18, 663365, Note_on_c, 7, 55, 91
18, 663374, Note_on_c, 7, 56, 0
18, 663605, Note_on_c, 7, 55, 0
18, 663853, Note_on_c, 7, 56, 96
18, 665053, Note_on_c, 7, 56, 0
18, 665294, Note_on_c, 7, 54, 91
18, 665534, Note_on_c, 7, 54, 0
18, 665775, Note_on_c, 7, 56, 95
18, 666975, Note_on_c, 7, 56, 0
18, 667212, Note_on_c, 7, 54, 107
18, 667452, Note_on_c, 7, 54, 0
18, 667703, Note_on_c, 7, 56, 125
18, 668063, Note_on_c, 7, 56, 0
18, 668179, Note_on_c, 7, 58, 127
18, 668539, Note_on_c, 7, 58, 0
18, 668642, Note_on_c, 7, 61, 104
18, 669002, Note_on_c, 7, 61, 0
18, 669132, Note_on_c, 7, 58, 100
18, 669492, Note_on_c, 7, 58, 0
18, 669602, Note_on_c, 7, 56, 91
18, 670922, Note_on_c, 7, 56, 0
18, 671064, Note_on_c, 7, 55, 100
18, 671424, Note_on_c, 7, 55, 0
18, 671530, Note_on_c, 7, 56, 124
18, 672850, Note_on_c, 7, 56, 0
18, 672977, Note_on_c, 7, 54, 127
18, 673337, Note_on_c, 7, 54, 0
18, 673446, Note_on_c, 7, 56, 111
18, 674766, Note_on_c, 7, 56, 0
18, 674885, Note_on_c, 7, 54, 98
18, 675245, Note_on_c, 7, 54, 0
18, 675378, Note_on_c, 7, 56, 106
18, 675738, Note_on_c, 7, 56, 0
18, 675853, Note_on_c, 7, 58, 107
18, 676213, Note_on_c, 7, 58, 0
18, 676343, Note_on_c, 7, 61, 92
18, 676703, Note_on_c, 7, 61, 0
18, 676807, Note_on_c, 7, 58, 98
18, 677167, Note_on_c, 7, 58, 0
18, 764649, Note_on_c, 7, 54, 76
18, 764653, Note_on_c, 7, 42, 71
18, 764937, Note_on_c, 7, 54, 0
18, 764941, Note_on_c, 7, 42, 0
18, 765121, Note_on_c, 7, 44, 85
18, 765132, Note_on_c, 7, 56, 74
18, 765409, Note_on_c, 7, 44, 0
18, 765420, Note_on_c, 7, 56, 0
18, 765602, Note_on_c, 7, 58, 97
18, 765613, Note_on_c, 7, 46, 91
18, 765890, Note_on_c, 7, 58, 0
18, 765901, Note_on_c, 7, 46, 0
18, 766088, Note_on_c, 7, 48, 84
18, 766104, Note_on_c, 7, 60, 90
18, 766376, Note_on_c, 7, 48, 0
18, 766392, Note_on_c, 7, 60, 0
18, 766567, Note_on_c, 7, 62, 98
18, 766574, Note_on_c, 7, 50, 98
18, 766855, Note_on_c, 7, 62, 0
18, 766862, Note_on_c, 7, 50, 0
18, 767046, Note_on_c, 7, 52, 116
18, 767054, Note_on_c, 7, 64, 107
18, 767334, Note_on_c, 7, 52, 0
18, 767342, Note_on_c, 7, 64, 0
18, 767542, Note_on_c, 7, 42, 70
18, 767830, Note_on_c, 7, 42, 0
18, 768005, Note_on_c, 7, 44, 73
18, 768293, Note_on_c, 7, 44, 0
18, 768494, Note_on_c, 7, 46, 86
18, 768782, Note_on_c, 7, 46, 0
18, 768978, Note_on_c, 7, 48, 90
18, 769266, Note_on_c, 7, 48, 0
18, 769452, Note_on_c, 7, 50, 106
18, 769740, Note_on_c, 7, 50, 0
18, 769922, Note_on_c, 7, 52, 96
18, 770210, Note_on_c, 7, 52, 0
18, 770408, Note_on_c, 7, 54, 104
18, 770424, Note_on_c, 7, 63, 83
18, 770579, Note_on_c, 7, 58, 81
18, 770583, Note_on_c, 7, 63, 0
18, 770696, Note_on_c, 7, 54, 0
18, 770723, Note_on_c, 7, 58, 71
18, 770739, Note_on_c, 7, 58, 0
18, 770880, Note_on_c, 7, 56, 118
18, 770880, Note_on_c, 7, 56, 118
18, 770882, Note_on_c, 7, 58, 0
18, 770889, Note_on_c, 7, 63, 65
18, 771048, Note_on_c, 7, 63, 0
18, 771168, Note_on_c, 7, 56, 0
18, 771168, Note_on_c, 7, 56, 0
18, 771368, Note_on_c, 7, 58, 127
18, 771538, Note_on_c, 7, 63, 83
18, 771656, Note_on_c, 7, 58, 0
18, 771698, Note_on_c, 7, 63, 0
18, 771705, Note_on_c, 7, 61, 66
18, 771854, Note_on_c, 7, 60, 127
18, 771864, Note_on_c, 7, 61, 0
18, 772010, Note_on_c, 7, 58, 72
18, 772142, Note_on_c, 7, 60, 0
18, 772170, Note_on_c, 7, 58, 0
18, 772170, Note_on_c, 7, 63, 71
18, 772329, Note_on_c, 7, 63, 0
18, 772333, Note_on_c, 7, 62, 120
18, 772340, Note_on_c, 7, 61, 79
18, 772494, Note_on_c, 7, 60, 73
18, 772499, Note_on_c, 7, 61, 0
18, 772621, Note_on_c, 7, 62, 0
18, 772652, Note_on_c, 7, 59, 68
18, 772654, Note_on_c, 7, 60, 0
18, 772811, Note_on_c, 7, 59, 0
18, 772817, Note_on_c, 7, 64, 127
18, 773105, Note_on_c, 7, 64, 0
18, 773105, End_track
19, 0, Start_track
19, 0, Title_t, "Timpani"
19, 0, MIDI_port, 0
19, 0, Program_c, 8, 47
19, 0, Control_c, 8, 7, 127
19, 0, Control_c, 8, 10, 64
19, 0, Control_c, 8, 91, 64
19, 151200, Note_on_c, 8, 50, 97
19, 151337, Note_on_c, 8, 50, 0
19, 151361, Note_on_c, 8, 50, 98
19, 151521, Note_on_c, 8, 50, 0
19, 151524, Note_on_c, 8, 43, 93
19, 151683, Note_on_c, 8, 43, 0
19, 194407, Note_on_c, 8, 49, 37
19, 194647, Note_on_c, 8, 49, 0
19, 194663, Note_on_c, 8, 46, 36
19, 194899, Note_on_c, 8, 51, 43
19, 194903, Note_on_c, 8, 46, 0
19, 195121, Note_on_c, 8, 46, 27
19, 195139, Note_on_c, 8, 51, 0
19, 195361, Note_on_c, 8, 46, 0
19, 195374, Note_on_c, 8, 49, 46
19, 195601, Note_on_c, 8, 46, 32
19, 195614, Note_on_c, 8, 49, 0
19, 195841, Note_on_c, 8, 46, 0
19, 195861, Note_on_c, 8, 51, 42
19, 196081, Note_on_c, 8, 46, 27
19, 196101, Note_on_c, 8, 51, 0
19, 196321, Note_on_c, 8, 46, 0
19, 196324, Note_on_c, 8, 49, 31
19, 196564, Note_on_c, 8, 49, 0
19, 196583, Note_on_c, 8, 46, 44
19, 196805, Note_on_c, 8, 51, 43
19, 196823, Note_on_c, 8, 46, 0
19, 197045, Note_on_c, 8, 51, 0
19, 197058, Note_on_c, 8, 46, 27
19, 197298, Note_on_c, 8, 46, 0
19, 197299, Note_on_c, 8, 49, 39
19, 197534, Note_on_c, 8, 46, 41
19, 197539, Note_on_c, 8, 49, 0
19, 197773, Note_on_c, 8, 51, 34
19, 197774, Note_on_c, 8, 46, 0
19, 198013, Note_on_c, 8, 51, 0
19, 198021, Note_on_c, 8, 46, 38
19, 198248, Note_on_c, 8, 49, 39
19, 198261, Note_on_c, 8, 46, 0
19, 198486, Note_on_c, 8, 46, 41
19, 198488, Note_on_c, 8, 49, 0
19, 198722, Note_on_c, 8, 51, 36
19, 198726, Note_on_c, 8, 46, 0
19, 198962, Note_on_c, 8, 51, 0
19, 198966, Note_on_c, 8, 46, 26
19, 199202, Note_on_c, 8, 49, 35
19, 199206, Note_on_c, 8, 46, 0
19, 199442, Note_on_c, 8, 49, 0
19, 199449, Note_on_c, 8, 46, 44
19, 199688, Note_on_c, 8, 51, 36
19, 199689, Note_on_c, 8, 46, 0
19, 199928, Note_on_c, 8, 51, 0
19, 199933, Note_on_c, 8, 46, 34
19, 200173, Note_on_c, 8, 46, 0
19, 200182, Note_on_c, 8, 49, 45
19, 200420, Note_on_c, 8, 46, 26
19, 200422, Note_on_c, 8, 49, 0
19, 200643, Note_on_c, 8, 51, 40
19, 200660, Note_on_c, 8, 46, 0
19, 200883, Note_on_c, 8, 51, 0
19, 200883, Note_on_c, 8, 46, 44
19, 201123, Note_on_c, 8, 46, 0
19, 201123, Note_on_c, 8, 49, 44
19, 201363, Note_on_c, 8, 49, 0
19, 201367, Note_on_c, 8, 46, 45
19, 201607, Note_on_c, 8, 46, 0
19, 201612, Note_on_c, 8, 51, 33
19, 201847, Note_on_c, 8, 46, 41
19, 201852, Note_on_c, 8, 51, 0
19, 202084, Note_on_c, 8, 49, 31
19, 202087, Note_on_c, 8, 46, 0
19, 202323, Note_on_c, 8, 46, 28
19, 202324, Note_on_c, 8, 49, 0
19, 202560, Note_on_c, 8, 51, 34
19, 202563, Note_on_c, 8, 46, 0
19, 202800, Note_on_c, 8, 51, 0
19, 202825, Note_on_c, 8, 46, 32
19, 203061, Note_on_c, 8, 49, 34
19, 203065, Note_on_c, 8, 46, 0
19, 203280, Note_on_c, 8, 46, 33
19, 203301, Note_on_c, 8, 49, 0
19, 203520, Note_on_c, 8, 46, 0
19, 203535, Note_on_c, 8, 51, 28
19, 203775, Note_on_c, 8, 51, 0
19, 203782, Note_on_c, 8, 46, 28
19, 204021, Note_on_c, 8, 49, 38
19, 204022, Note_on_c, 8, 46, 0
19, 204261, Note_on_c, 8, 49, 0
19, 204262, Note_on_c, 8, 46, 32
19, 204493, Note_on_c, 8, 51, 32
19, 204502, Note_on_c, 8, 46, 0
19, 204727, Note_on_c, 8, 46, 40
19, 204733, Note_on_c, 8, 51, 0
19, 204965, Note_on_c, 8, 49, 33
19, 204967, Note_on_c, 8, 46, 0
19, 205205, Note_on_c, 8, 49, 0
19, 205206, Note_on_c, 8, 46, 32
19, 205446, Note_on_c, 8, 46, 0
19, 205456, Note_on_c, 8, 51, 28
19, 205693, Note_on_c, 8, 46, 28
19, 205696, Note_on_c, 8, 51, 0
19, 205928, Note_on_c, 8, 49, 43
19, 205933, Note_on_c, 8, 46, 0
19, 206168, Note_on_c, 8, 49, 0
19, 206184, Note_on_c, 8, 46, 37
19, 206420, Note_on_c, 8, 51, 29
19, 206424, Note_on_c, 8, 46, 0
19, 206657, Note_on_c, 8, 46, 43
19, 206660, Note_on_c, 8, 51, 0
19, 206889, Note_on_c, 8, 49, 42
19, 206897, Note_on_c, 8, 46, 0
19, 207129, Note_on_c, 8, 49, 0
19, 207140, Note_on_c, 8, 46, 36
19, 207369, Note_on_c, 8, 51, 26
19, 207380, Note_on_c, 8, 46, 0
19, 207609, Note_on_c, 8, 51, 0
19, 207618, Note_on_c, 8, 46, 45
19, 207858, Note_on_c, 8, 46, 0
19, 207863, Note_on_c, 8, 49, 29
19, 208103, Note_on_c, 8, 49, 0
19, 208105, Note_on_c, 8, 46, 39
19, 208335, Note_on_c, 8, 51, 28
19, 208345, Note_on_c, 8, 46, 0
19, 208561, Note_on_c, 8, 46, 36
19, 208575, Note_on_c, 8, 51, 0
19, 208801, Note_on_c, 8, 46, 0
19, 208805, Note_on_c, 8, 49, 39
19, 209045, Note_on_c, 8, 49, 0
19, 209057, Note_on_c, 8, 46, 34
19, 209294, Note_on_c, 8, 51, 35
19, 209297, Note_on_c, 8, 46, 0
19, 209534, Note_on_c, 8, 51, 0
19, 209534, Note_on_c, 8, 46, 40
19, 209774, Note_on_c, 8, 46, 0
19, 209779, Note_on_c, 8, 49, 30
19, 210002, Note_on_c, 8, 46, 34
19, 210019, Note_on_c, 8, 49, 0
19, 210242, Note_on_c, 8, 46, 0
19, 210257, Note_on_c, 8, 51, 34
19, 210485, Note_on_c, 8, 46, 30
19, 210497, Note_on_c, 8, 51, 0
19, 210725, Note_on_c, 8, 46, 0
19, 210741, Note_on_c, 8, 49, 45
19, 210981, Note_on_c, 8, 49, 0
19, 210985, Note_on_c, 8, 46, 39
19, 211219, Note_on_c, 8, 51, 39
19, 211225, Note_on_c, 8, 46, 0
19, 211458, Note_on_c, 8, 46, 29
19, 211459, Note_on_c, 8, 51, 0
19, 211698, Note_on_c, 8, 46, 0
19, 241680, Note_on_c, 8, 41, 78
19, 241775, Note_on_c, 8, 41, 0
19, 242172, Note_on_c, 8, 41, 79
19, 242267, Note_on_c, 8, 41, 0
19, 245535, Note_on_c, 8, 41, 98
19, 245630, Note_on_c, 8, 41, 0
19, 246024, Note_on_c, 8, 41, 96
19, 246119, Note_on_c, 8, 41, 0
19, 249374, Note_on_c, 8, 41, 92
19, 249469, Note_on_c, 8, 41, 0
19, 249861, Note_on_c, 8, 41, 92
19, 249956, Note_on_c, 8, 41, 0
19, 250091, Note_on_c, 8, 48, 91
19, 250451, Note_on_c, 8, 48, 0
19, 252624, Note_on_c, 8, 42, 78
19, 252984, Note_on_c, 8, 42, 0
19, 254046, Note_on_c, 8, 42, 92
19, 254406, Note_on_c, 8, 42, 0
19, 254767, Note_on_c, 8, 42, 86
19, 255127, Note_on_c, 8, 42, 0
19, 262685, Note_on_c, 8, 48, 96
19, 263045, Note_on_c, 8, 48, 0
19, 263402, Note_on_c, 8, 59, 88
19, 263762, Note_on_c, 8, 59, 0
19, 263771, Note_on_c, 8, 48, 98
19, 264491, Note_on_c, 8, 48, 0
19, 264856, Note_on_c, 8, 59, 79
19, 265216, Note_on_c, 8, 59, 0
19, 265574, Note_on_c, 8, 48, 80
19, 265934, Note_on_c, 8, 48, 0
19, 266285, Note_on_c, 8, 59, 82
19, 266645, Note_on_c, 8, 59, 0
19, 266660, Note_on_c, 8, 48, 93
19, 267380, Note_on_c, 8, 48, 0
19, 285013, Note_on_c, 8, 48, 89
19, 285373, Note_on_c, 8, 48, 0
19, 285737, Note_on_c, 8, 59, 93
19, 286080, Note_on_c, 8, 48, 82
19, 286097, Note_on_c, 8, 59, 0
19, 286800, Note_on_c, 8, 48, 0
19, 287176, Note_on_c, 8, 59, 89
19, 287536, Note_on_c, 8, 59, 0
19, 287887, Note_on_c, 8, 48, 90
19, 288247, Note_on_c, 8, 48, 0
19, 288615, Note_on_c, 8, 59, 83
19, 288975, Note_on_c, 8, 59, 0
19, 288975, Note_on_c, 8, 48, 78
19, 289695, Note_on_c, 8, 48, 0
19, 311046, Note_on_c, 8, 48, 87
19, 311265, Note_on_c, 8, 48, 0
19, 311289, Note_on_c, 8, 48, 89
19, 311500, Note_on_c, 8, 48, 0
19, 311524, Note_on_c, 8, 48, 89
19, 311752, Note_on_c, 8, 48, 0
19, 311776, Note_on_c, 8, 48, 80
19, 311979, Note_on_c, 8, 48, 0
19, 312003, Note_on_c, 8, 48, 91
19, 312232, Note_on_c, 8, 48, 0
19, 312256, Note_on_c, 8, 48, 93
19, 312462, Note_on_c, 8, 48, 0
19, 312486, Note_on_c, 8, 48, 82
19, 312717, Note_on_c, 8, 48, 0
19, 312741, Note_on_c, 8, 48, 85
19, 312943, Note_on_c, 8, 48, 0
19, 312967, Note_on_c, 8, 48, 95
19, 313179, Note_on_c, 8, 48, 0
19, 313203, Note_on_c, 8, 48, 85
19, 313423, Note_on_c, 8, 48, 0
19, 313447, Note_on_c, 8, 48, 78
19, 313662, Note_on_c, 8, 48, 0
19, 313686, Note_on_c, 8, 48, 98
19, 313926, Note_on_c, 8, 48, 0
19, 328328, Note_on_c, 8, 44, 95
19, 328808, Note_on_c, 8, 44, 0
19, 331200, Note_on_c, 8, 41, 110
19, 331680, Note_on_c, 8, 41, 0
19, 334322, Note_on_c, 8, 41, 101
19, 334802, Note_on_c, 8, 41, 0
19, 339843, Note_on_c, 8, 48, 91
19, 340323, Note_on_c, 8, 48, 0
19, 346088, Note_on_c, 8, 48, 102
19, 346568, Note_on_c, 8, 48, 0
19, 348020, Note_on_c, 8, 48, 94
19, 348480, Note_on_c, 8, 48, 0
19, 348504, Note_on_c, 8, 48, 94
19, 348984, Note_on_c, 8, 48, 0
19, 352344, Note_on_c, 8, 48, 105
19, 352824, Note_on_c, 8, 48, 0
19, 354242, Note_on_c, 8, 48, 99
19, 354722, Note_on_c, 8, 48, 0
19, 355701, Note_on_c, 8, 48, 88
19, 356181, Note_on_c, 8, 48, 0
19, 357128, Note_on_c, 8, 48, 96
19, 357608, Note_on_c, 8, 48, 0
19, 358081, Note_on_c, 8, 48, 99
19, 358561, Note_on_c, 8, 48, 0
19, 426630, Note_on_c, 8, 46, 94
19, 426636, Note_on_c, 8, 46, 0
19, 426660, Note_on_c, 8, 46, 94
19, 426666, Note_on_c, 8, 46, 0
19, 426690, Note_on_c, 8, 46, 85
19, 426710, Note_on_c, 8, 46, 0
19, 426734, Note_on_c, 8, 46, 94
19, 427214, Note_on_c, 8, 46, 0
19, 428550, Note_on_c, 8, 46, 85
19, 428556, Note_on_c, 8, 46, 0
19, 428580, Note_on_c, 8, 46, 78
19, 428586, Note_on_c, 8, 46, 0
19, 428610, Note_on_c, 8, 46, 90
19, 428636, Note_on_c, 8, 46, 0
19, 428660, Note_on_c, 8, 46, 87
19, 429140, Note_on_c, 8, 46, 0
19, 430470, Note_on_c, 8, 46, 95
19, 430476, Note_on_c, 8, 46, 0
19, 430500, Note_on_c, 8, 46, 92
19, 430506, Note_on_c, 8, 46, 0
19, 430530, Note_on_c, 8, 46, 96
19, 430543, Note_on_c, 8, 46, 0
19, 430567, Note_on_c, 8, 46, 90
19, 431047, Note_on_c, 8, 46, 0
19, 434790, Note_on_c, 8, 46, 81
19, 434796, Note_on_c, 8, 46, 0
19, 434820, Note_on_c, 8, 46, 91
19, 434826, Note_on_c, 8, 46, 0
19, 434850, Note_on_c, 8, 46, 79
19, 434857, Note_on_c, 8, 46, 0
19, 434881, Note_on_c, 8, 46, 78
19, 435361, Note_on_c, 8, 46, 0
19, 438150, Note_on_c, 8, 46, 92
19, 438156, Note_on_c, 8, 46, 0
19, 438180, Note_on_c, 8, 46, 84
19, 438186, Note_on_c, 8, 46, 0
19, 438210, Note_on_c, 8, 46, 84
19, 438240, Note_on_c, 8, 46, 0
19, 438265, Note_on_c, 8, 46, 92
19, 438745, Note_on_c, 8, 46, 0
19, 440070, Note_on_c, 8, 46, 80
19, 440076, Note_on_c, 8, 46, 0
19, 440100, Note_on_c, 8, 46, 91
19, 440106, Note_on_c, 8, 46, 0
19, 440130, Note_on_c, 8, 46, 79
19, 440154, Note_on_c, 8, 46, 0
19, 440178, Note_on_c, 8, 46, 90
19, 440658, Note_on_c, 8, 46, 0
19, 443430, Note_on_c, 8, 46, 83
19, 443436, Note_on_c, 8, 46, 0
19, 443460, Note_on_c, 8, 46, 92
19, 443466, Note_on_c, 8, 46, 0
19, 443490, Note_on_c, 8, 46, 88
19, 443520, Note_on_c, 8, 46, 0
19, 443544, Note_on_c, 8, 46, 90
19, 444024, Note_on_c, 8, 46, 0
19, 448817, Note_on_c, 8, 43, 88
19, 449297, Note_on_c, 8, 43, 0
19, 455059, Note_on_c, 8, 43, 103
19, 455202, Note_on_c, 8, 43, 0
19, 455540, Note_on_c, 8, 43, 90
19, 455683, Note_on_c, 8, 43, 0
19, 466105, Note_on_c, 8, 43, 91
19, 466248, Note_on_c, 8, 43, 0
19, 466571, Note_on_c, 8, 43, 91
19, 466714, Note_on_c, 8, 43, 0
19, 468965, Note_on_c, 8, 43, 88
19, 469445, Note_on_c, 8, 43, 0
19, 490324, Note_on_c, 8, 48, 93
19, 490564, Note_on_c, 8, 48, 0
19, 490575, Note_on_c, 8, 42, 93
19, 490802, Note_on_c, 8, 59, 86
19, 490815, Note_on_c, 8, 42, 0
19, 491042, Note_on_c, 8, 59, 0
19, 491044, Note_on_c, 8, 48, 89
19, 491258, Note_on_c, 8, 48, 0
19, 491282, Note_on_c, 8, 48, 79
19, 491522, Note_on_c, 8, 48, 0
19, 491522, Note_on_c, 8, 42, 94
19, 491761, Note_on_c, 8, 59, 82
19, 491762, Note_on_c, 8, 42, 0
19, 492001, Note_on_c, 8, 59, 0
19, 492020, Note_on_c, 8, 48, 85
19, 492260, Note_on_c, 8, 48, 0
19, 492743, Note_on_c, 8, 59, 79
19, 492972, Note_on_c, 8, 48, 83
19, 492983, Note_on_c, 8, 59, 0
19, 493178, Note_on_c, 8, 48, 0
19, 493202, Note_on_c, 8, 48, 97
19, 493442, Note_on_c, 8, 48, 0
19, 493443, Note_on_c, 8, 42, 91
19, 493683, Note_on_c, 8, 42, 0
19, 493689, Note_on_c, 8, 59, 97
19, 493929, Note_on_c, 8, 59, 0
19, 493944, Note_on_c, 8, 48, 79
19, 494184, Note_on_c, 8, 48, 0
19, 498259, Note_on_c, 8, 42, 86
19, 498499, Note_on_c, 8, 42, 0
19, 499680, Note_on_c, 8, 42, 80
19, 499920, Note_on_c, 8, 42, 0
19, 504492, Note_on_c, 8, 42, 83
19, 504732, Note_on_c, 8, 42, 0
19, 505945, Note_on_c, 8, 42, 96
19, 506185, Note_on_c, 8, 42, 0
19, 507858, Note_on_c, 8, 42, 95
19, 508098, Note_on_c, 8, 42, 0
19, 511921, Note_on_c, 8, 48, 83
19, 512161, Note_on_c, 8, 48, 0
19, 512162, Note_on_c, 8, 43, 80
19, 512401, Note_on_c, 8, 59, 88
19, 512402, Note_on_c, 8, 43, 0
19, 512641, Note_on_c, 8, 59, 0
19, 512643, Note_on_c, 8, 48, 81
19, 512860, Note_on_c, 8, 48, 0
19, 512884, Note_on_c, 8, 48, 85
19, 513120, Note_on_c, 8, 43, 97
19, 513124, Note_on_c, 8, 48, 0
19, 513360, Note_on_c, 8, 43, 0
19, 513381, Note_on_c, 8, 59, 98
19, 513621, Note_on_c, 8, 59, 0
19, 516743, Note_on_c, 8, 48, 87
19, 516964, Note_on_c, 8, 43, 78
19, 516983, Note_on_c, 8, 48, 0
19, 517204, Note_on_c, 8, 43, 0
19, 517224, Note_on_c, 8, 59, 90
19, 517447, Note_on_c, 8, 48, 95
19, 517464, Note_on_c, 8, 59, 0
19, 517669, Note_on_c, 8, 48, 0
19, 517693, Note_on_c, 8, 48, 80
19, 517933, Note_on_c, 8, 48, 0
19, 517942, Note_on_c, 8, 43, 80
19, 518173, Note_on_c, 8, 59, 81
19, 518182, Note_on_c, 8, 43, 0
19, 518401, Note_on_c, 8, 48, 91
19, 518413, Note_on_c, 8, 59, 0
19, 518641, Note_on_c, 8, 48, 0
19, 524407, Note_on_c, 8, 48, 95
19, 524647, Note_on_c, 8, 48, 0
19, 524652, Note_on_c, 8, 43, 96
19, 524892, Note_on_c, 8, 43, 0
19, 524902, Note_on_c, 8, 59, 93
19, 525123, Note_on_c, 8, 48, 79
19, 525142, Note_on_c, 8, 59, 0
19, 525360, Note_on_c, 8, 48, 0
19, 525384, Note_on_c, 8, 48, 82
19, 525616, Note_on_c, 8, 43, 89
19, 525624, Note_on_c, 8, 48, 0
19, 525851, Note_on_c, 8, 59, 85
19, 525856, Note_on_c, 8, 43, 0
19, 526091, Note_on_c, 8, 59, 0
19, 526093, Note_on_c, 8, 48, 82
19, 526333, Note_on_c, 8, 48, 0
19, 526811, Note_on_c, 8, 59, 97
19, 527051, Note_on_c, 8, 59, 0
19, 527052, Note_on_c, 8, 48, 80
19, 527279, Note_on_c, 8, 48, 0
19, 527303, Note_on_c, 8, 48, 82
19, 527537, Note_on_c, 8, 43, 91
19, 527543, Note_on_c, 8, 48, 0
19, 527766, Note_on_c, 8, 59, 93
19, 527777, Note_on_c, 8, 43, 0
19, 528006, Note_on_c, 8, 59, 0
19, 540496, Note_on_c, 8, 42, 79
19, 540965, Note_on_c, 8, 48, 79
19, 540976, Note_on_c, 8, 42, 0
19, 541205, Note_on_c, 8, 48, 0
19, 541208, Note_on_c, 8, 42, 91
19, 541441, Note_on_c, 8, 48, 79
19, 541448, Note_on_c, 8, 42, 0
19, 541681, Note_on_c, 8, 48, 0
19, 541691, Note_on_c, 8, 42, 93
19, 541931, Note_on_c, 8, 42, 0
19, 541932, Note_on_c, 8, 48, 98
19, 542162, Note_on_c, 8, 42, 90
19, 542172, Note_on_c, 8, 48, 0
19, 542402, Note_on_c, 8, 42, 0
19, 542411, Note_on_c, 8, 48, 94
19, 542651, Note_on_c, 8, 48, 0
19, 542658, Note_on_c, 8, 42, 96
19, 542898, Note_on_c, 8, 42, 0
19, 542904, Note_on_c, 8, 48, 83
19, 543136, Note_on_c, 8, 42, 94
19, 543144, Note_on_c, 8, 48, 0
19, 543365, Note_on_c, 8, 48, 81
19, 543376, Note_on_c, 8, 42, 0
19, 543605, Note_on_c, 8, 48, 0
19, 543607, Note_on_c, 8, 42, 87
19, 543847, Note_on_c, 8, 42, 0
19, 543854, Note_on_c, 8, 48, 87
19, 544081, Note_on_c, 8, 42, 78
19, 544094, Note_on_c, 8, 48, 0
19, 544321, Note_on_c, 8, 42, 0
19, 544322, Note_on_c, 8, 48, 87
19, 544562, Note_on_c, 8, 48, 0
19, 544584, Note_on_c, 8, 42, 95
19, 544807, Note_on_c, 8, 48, 81
19, 544824, Note_on_c, 8, 42, 0
19, 545041, Note_on_c, 8, 42, 89
19, 545047, Note_on_c, 8, 48, 0
19, 545281, Note_on_c, 8, 42, 0
19, 545282, Note_on_c, 8, 48, 93
19, 545522, Note_on_c, 8, 48, 0
19, 631204, Note_on_c, 8, 50, 74
19, 631419, Note_on_c, 8, 50, 0
19, 631443, Note_on_c, 8, 50, 72
19, 631663, Note_on_c, 8, 50, 0
19, 631687, Note_on_c, 8, 50, 76
19, 631920, Note_on_c, 8, 50, 0
19, 631944, Note_on_c, 8, 50, 73
19, 632142, Note_on_c, 8, 50, 0
19, 632166, Note_on_c, 8, 50, 65
19, 632385, Note_on_c, 8, 50, 0
19, 632409, Note_on_c, 8, 50, 85
19, 632616, Note_on_c, 8, 50, 0
19, 632640, Note_on_c, 8, 50, 82
19, 632866, Note_on_c, 8, 50, 0
19, 632890, Note_on_c, 8, 50, 75
19, 633112, Note_on_c, 8, 50, 0
19, 633136, Note_on_c, 8, 50, 72
19, 633353, Note_on_c, 8, 50, 0
19, 633377, Note_on_c, 8, 50, 75
19, 633578, Note_on_c, 8, 50, 0
19, 633602, Note_on_c, 8, 50, 76
19, 633831, Note_on_c, 8, 50, 0
19, 633855, Note_on_c, 8, 50, 65
19, 634062, Note_on_c, 8, 50, 0
19, 634086, Note_on_c, 8, 50, 71
19, 634319, Note_on_c, 8, 50, 0
19, 634343, Note_on_c, 8, 50, 79
19, 634542, Note_on_c, 8, 50, 0
19, 634566, Note_on_c, 8, 50, 75
19, 634779, Note_on_c, 8, 50, 0
19, 634803, Note_on_c, 8, 50, 71
19, 635025, Note_on_c, 8, 50, 0
19, 635049, Note_on_c, 8, 50, 73
19, 635276, Note_on_c, 8, 50, 0
19, 635300, Note_on_c, 8, 50, 75
19, 635509, Note_on_c, 8, 50, 0
19, 635533, Note_on_c, 8, 50, 68
19, 635739, Note_on_c, 8, 50, 0
19, 635763, Note_on_c, 8, 50, 81
19, 635993, Note_on_c, 8, 50, 0
19, 636017, Note_on_c, 8, 50, 66
19, 636223, Note_on_c, 8, 50, 0
19, 636247, Note_on_c, 8, 50, 84
19, 636466, Note_on_c, 8, 50, 0
19, 636490, Note_on_c, 8, 50, 68
19, 636708, Note_on_c, 8, 50, 0
19, 636732, Note_on_c, 8, 50, 69
19, 636951, Note_on_c, 8, 50, 0
19, 636975, Note_on_c, 8, 50, 79
19, 637179, Note_on_c, 8, 50, 0
19, 637203, Note_on_c, 8, 50, 80
19, 637440, Note_on_c, 8, 50, 0
19, 637464, Note_on_c, 8, 50, 65
19, 637664, Note_on_c, 8, 50, 0
19, 637688, Note_on_c, 8, 50, 80
19, 637921, Note_on_c, 8, 50, 0
19, 637945, Note_on_c, 8, 50, 79
19, 638140, Note_on_c, 8, 50, 0
19, 638164, Note_on_c, 8, 50, 69
19, 638399, Note_on_c, 8, 50, 0
19, 638423, Note_on_c, 8, 50, 71
19, 638639, Note_on_c, 8, 50, 0
19, 638663, Note_on_c, 8, 50, 65
19, 638861, Note_on_c, 8, 50, 0
19, 638885, Note_on_c, 8, 50, 79
19, 639121, Note_on_c, 8, 50, 0
19, 639145, Note_on_c, 8, 50, 76
19, 639347, Note_on_c, 8, 50, 0
19, 639371, Note_on_c, 8, 50, 65
19, 639586, Note_on_c, 8, 50, 0
19, 639610, Note_on_c, 8, 50, 70
19, 639837, Note_on_c, 8, 50, 0
19, 639861, Note_on_c, 8, 50, 65
19, 640071, Note_on_c, 8, 50, 0
19, 640095, Note_on_c, 8, 50, 69
19, 640311, Note_on_c, 8, 50, 0
19, 640335, Note_on_c, 8, 50, 81
19, 640537, Note_on_c, 8, 50, 0
19, 640561, Note_on_c, 8, 50, 73
19, 640783, Note_on_c, 8, 50, 0
19, 640807, Note_on_c, 8, 50, 80
19, 641030, Note_on_c, 8, 50, 0
19, 641054, Note_on_c, 8, 50, 78
19, 641273, Note_on_c, 8, 50, 0
19, 641297, Note_on_c, 8, 50, 74
19, 641508, Note_on_c, 8, 50, 0
19, 641532, Note_on_c, 8, 50, 65
19, 641755, Note_on_c, 8, 50, 0
19, 641779, Note_on_c, 8, 50, 74
19, 641999, Note_on_c, 8, 50, 0
19, 642023, Note_on_c, 8, 50, 72
19, 642217, Note_on_c, 8, 50, 0
19, 642241, Note_on_c, 8, 50, 79
19, 642458, Note_on_c, 8, 50, 0
19, 642482, Note_on_c, 8, 50, 85
19, 642710, Note_on_c, 8, 50, 0
19, 642734, Note_on_c, 8, 50, 72
19, 642938, Note_on_c, 8, 50, 0
19, 642962, Note_on_c, 8, 50, 80
19, 643189, Note_on_c, 8, 50, 0
19, 643213, Note_on_c, 8, 50, 81
19, 643432, Note_on_c, 8, 50, 0
19, 643456, Note_on_c, 8, 50, 66
19, 643662, Note_on_c, 8, 50, 0
19, 643686, Note_on_c, 8, 50, 72
19, 643899, Note_on_c, 8, 50, 0
19, 643923, Note_on_c, 8, 50, 76
19, 644148, Note_on_c, 8, 50, 0
19, 644172, Note_on_c, 8, 50, 71
19, 644380, Note_on_c, 8, 50, 0
19, 644404, Note_on_c, 8, 50, 79
19, 644619, Note_on_c, 8, 50, 0
19, 644643, Note_on_c, 8, 50, 68
19, 644881, Note_on_c, 8, 50, 0
19, 644905, Note_on_c, 8, 50, 84
19, 645101, Note_on_c, 8, 50, 0
19, 645125, Note_on_c, 8, 50, 78
19, 645349, Note_on_c, 8, 50, 0
19, 645373, Note_on_c, 8, 50, 65
19, 645585, Note_on_c, 8, 50, 0
19, 645609, Note_on_c, 8, 50, 71
19, 645818, Note_on_c, 8, 50, 0
19, 645842, Note_on_c, 8, 50, 72
19, 646056, Note_on_c, 8, 50, 0
19, 646080, Note_on_c, 8, 50, 72
19, 646313, Note_on_c, 8, 50, 0
19, 646337, Note_on_c, 8, 50, 84
19, 646537, Note_on_c, 8, 50, 0
19, 646561, Note_on_c, 8, 50, 75
19, 646783, Note_on_c, 8, 50, 0
19, 646807, Note_on_c, 8, 50, 70
19, 647021, Note_on_c, 8, 50, 0
19, 647045, Note_on_c, 8, 50, 68
19, 647275, Note_on_c, 8, 50, 0
19, 647299, Note_on_c, 8, 50, 75
19, 647503, Note_on_c, 8, 50, 0
19, 647527, Note_on_c, 8, 50, 74
19, 647742, Note_on_c, 8, 50, 0
19, 647766, Note_on_c, 8, 50, 85
19, 647980, Note_on_c, 8, 50, 0
19, 648004, Note_on_c, 8, 50, 70
19, 648219, Note_on_c, 8, 50, 0
19, 648243, Note_on_c, 8, 50, 72
19, 648474, Note_on_c, 8, 50, 0
19, 648498, Note_on_c, 8, 50, 83
19, 648704, Note_on_c, 8, 50, 0
19, 648728, Note_on_c, 8, 50, 81
19, 648951, Note_on_c, 8, 50, 0
19, 648975, Note_on_c, 8, 50, 71
19, 649195, Note_on_c, 8, 50, 0
19, 649219, Note_on_c, 8, 50, 81
19, 649418, Note_on_c, 8, 50, 0
19, 649442, Note_on_c, 8, 50, 65
19, 649675, Note_on_c, 8, 50, 0
19, 649699, Note_on_c, 8, 50, 85
19, 649904, Note_on_c, 8, 50, 0
19, 649928, Note_on_c, 8, 50, 83
19, 650154, Note_on_c, 8, 50, 0
19, 650178, Note_on_c, 8, 50, 66
19, 650382, Note_on_c, 8, 50, 0
19, 650406, Note_on_c, 8, 50, 84
19, 650617, Note_on_c, 8, 50, 0
19, 650641, Note_on_c, 8, 50, 72
19, 650858, Note_on_c, 8, 50, 0
19, 650882, Note_on_c, 8, 50, 71
19, 651105, Note_on_c, 8, 50, 0
19, 651129, Note_on_c, 8, 50, 68
19, 651344, Note_on_c, 8, 50, 0
19, 651368, Note_on_c, 8, 50, 79
19, 651592, Note_on_c, 8, 50, 0
19, 651616, Note_on_c, 8, 50, 73
19, 651822, Note_on_c, 8, 50, 0
19, 651846, Note_on_c, 8, 50, 68
19, 652059, Note_on_c, 8, 50, 0
19, 652083, Note_on_c, 8, 50, 75
19, 652302, Note_on_c, 8, 50, 0
19, 652326, Note_on_c, 8, 50, 75
19, 652540, Note_on_c, 8, 50, 0
19, 652564, Note_on_c, 8, 50, 70
19, 652800, Note_on_c, 8, 50, 0
19, 652824, Note_on_c, 8, 50, 76
19, 653041, Note_on_c, 8, 50, 0
19, 653065, Note_on_c, 8, 50, 85
19, 653269, Note_on_c, 8, 50, 0
19, 653293, Note_on_c, 8, 50, 65
19, 653503, Note_on_c, 8, 50, 0
19, 653527, Note_on_c, 8, 50, 67
19, 653736, Note_on_c, 8, 50, 0
19, 653760, Note_on_c, 8, 50, 67
19, 653998, Note_on_c, 8, 50, 0
19, 654022, Note_on_c, 8, 50, 66
19, 654232, Note_on_c, 8, 50, 0
19, 654256, Note_on_c, 8, 50, 101
19, 654475, Note_on_c, 8, 50, 0
19, 654499, Note_on_c, 8, 50, 74
19, 654720, Note_on_c, 8, 50, 0
19, 654744, Note_on_c, 8, 50, 68
19, 654946, Note_on_c, 8, 50, 0
19, 654970, Note_on_c, 8, 50, 88
19, 655193, Note_on_c, 8, 50, 0
19, 655217, Note_on_c, 8, 50, 78
19, 655435, Note_on_c, 8, 50, 0
19, 655459, Note_on_c, 8, 50, 85
19, 655674, Note_on_c, 8, 50, 0
19, 655698, Note_on_c, 8, 50, 94
19, 655918, Note_on_c, 8, 50, 0
19, 655942, Note_on_c, 8, 50, 75
19, 656147, Note_on_c, 8, 50, 0
19, 656171, Note_on_c, 8, 50, 83
19, 656385, Note_on_c, 8, 50, 0
19, 656409, Note_on_c, 8, 50, 93
19, 656633, Note_on_c, 8, 50, 0
19, 656657, Note_on_c, 8, 50, 85
19, 656860, Note_on_c, 8, 50, 0
19, 656884, Note_on_c, 8, 50, 67
19, 657096, Note_on_c, 8, 50, 0
19, 657120, Note_on_c, 8, 50, 84
19, 657344, Note_on_c, 8, 50, 0
19, 657368, Note_on_c, 8, 50, 70
19, 657593, Note_on_c, 8, 50, 0
19, 657617, Note_on_c, 8, 50, 70
19, 657819, Note_on_c, 8, 50, 0
19, 657843, Note_on_c, 8, 50, 84
19, 658081, Note_on_c, 8, 50, 0
19, 658105, Note_on_c, 8, 50, 84
19, 658303, Note_on_c, 8, 50, 0
19, 658327, Note_on_c, 8, 50, 66
19, 658558, Note_on_c, 8, 50, 0
19, 658582, Note_on_c, 8, 50, 93
19, 658795, Note_on_c, 8, 50, 0
19, 658819, Note_on_c, 8, 50, 67
19, 659039, Note_on_c, 8, 50, 0
19, 659063, Note_on_c, 8, 50, 66
19, 659267, Note_on_c, 8, 50, 0
19, 659291, Note_on_c, 8, 50, 104
19, 659503, Note_on_c, 8, 50, 0
19, 659527, Note_on_c, 8, 50, 72
19, 659761, Note_on_c, 8, 50, 0
19, 659785, Note_on_c, 8, 50, 84
19, 659996, Note_on_c, 8, 50, 0
19, 660020, Note_on_c, 8, 50, 101
19, 660232, Note_on_c, 8, 50, 0
19, 660256, Note_on_c, 8, 50, 68
19, 660473, Note_on_c, 8, 50, 0
19, 660497, Note_on_c, 8, 50, 85
19, 660697, Note_on_c, 8, 50, 0
19, 660721, Note_on_c, 8, 50, 97
19, 660952, Note_on_c, 8, 50, 0
19, 660976, Note_on_c, 8, 50, 69
19, 661182, Note_on_c, 8, 50, 0
19, 661206, Note_on_c, 8, 50, 82
19, 661432, Note_on_c, 8, 50, 0
19, 661456, Note_on_c, 8, 50, 104
19, 661667, Note_on_c, 8, 50, 0
19, 661691, Note_on_c, 8, 50, 76
19, 661901, Note_on_c, 8, 50, 0
19, 661925, Note_on_c, 8, 50, 77
19, 662156, Note_on_c, 8, 50, 0
19, 662180, Note_on_c, 8, 50, 103
19, 662389, Note_on_c, 8, 50, 0
19, 662413, Note_on_c, 8, 50, 83
19, 662638, Note_on_c, 8, 50, 0
19, 662662, Note_on_c, 8, 50, 78
19, 662877, Note_on_c, 8, 50, 0
19, 662901, Note_on_c, 8, 50, 85
19, 663115, Note_on_c, 8, 50, 0
19, 663139, Note_on_c, 8, 50, 75
19, 663346, Note_on_c, 8, 50, 0
19, 663370, Note_on_c, 8, 50, 69
19, 663600, Note_on_c, 8, 50, 0
19, 663624, Note_on_c, 8, 50, 85
19, 663829, Note_on_c, 8, 50, 0
19, 663853, Note_on_c, 8, 50, 66
19, 664057, Note_on_c, 8, 50, 0
19, 664081, Note_on_c, 8, 50, 74
19, 664305, Note_on_c, 8, 50, 0
19, 664329, Note_on_c, 8, 50, 91
19, 664552, Note_on_c, 8, 50, 0
19, 664576, Note_on_c, 8, 50, 77
19, 664783, Note_on_c, 8, 50, 0
19, 664807, Note_on_c, 8, 50, 84
19, 665036, Note_on_c, 8, 50, 0
19, 665060, Note_on_c, 8, 50, 85
19, 665281, Note_on_c, 8, 50, 0
19, 665305, Note_on_c, 8, 50, 76
19, 665500, Note_on_c, 8, 50, 0
19, 665524, Note_on_c, 8, 50, 77
19, 665754, Note_on_c, 8, 50, 0
19, 665778, Note_on_c, 8, 50, 84
19, 665979, Note_on_c, 8, 50, 0
19, 666003, Note_on_c, 8, 50, 77
19, 666217, Note_on_c, 8, 50, 0
19, 666241, Note_on_c, 8, 50, 80
19, 666463, Note_on_c, 8, 50, 0
19, 666487, Note_on_c, 8, 50, 91
19, 666714, Note_on_c, 8, 50, 0
19, 666738, Note_on_c, 8, 50, 76
19, 666944, Note_on_c, 8, 50, 0
19, 666968, Note_on_c, 8, 50, 82
19, 667186, Note_on_c, 8, 50, 0
19, 667210, Note_on_c, 8, 50, 94
19, 667432, Note_on_c, 8, 50, 0
19, 667456, Note_on_c, 8, 50, 84
19, 667679, Note_on_c, 8, 50, 0
19, 667703, Note_on_c, 8, 50, 80
19, 667920, Note_on_c, 8, 50, 0
19, 667944, Note_on_c, 8, 50, 93
19, 668156, Note_on_c, 8, 50, 0
19, 668180, Note_on_c, 8, 50, 73
19, 668377, Note_on_c, 8, 50, 0
19, 668401, Note_on_c, 8, 50, 66
19, 668639, Note_on_c, 8, 50, 0
19, 668663, Note_on_c, 8, 50, 88
19, 668875, Note_on_c, 8, 50, 0
19, 668899, Note_on_c, 8, 50, 77
19, 669115, Note_on_c, 8, 50, 0
19, 669139, Note_on_c, 8, 50, 85
19, 669360, Note_on_c, 8, 50, 0
19, 669384, Note_on_c, 8, 50, 86
19, 669585, Note_on_c, 8, 50, 0
19, 669609, Note_on_c, 8, 50, 85
19, 669831, Note_on_c, 8, 50, 0
19, 669855, Note_on_c, 8, 50, 84
19, 670068, Note_on_c, 8, 50, 0
19, 670092, Note_on_c, 8, 50, 84
19, 670310, Note_on_c, 8, 50, 0
19, 670334, Note_on_c, 8, 50, 65
19, 670547, Note_on_c, 8, 50, 0
19, 670571, Note_on_c, 8, 50, 81
19, 670782, Note_on_c, 8, 50, 0
19, 670806, Note_on_c, 8, 50, 94
19, 671031, Note_on_c, 8, 50, 0
19, 671055, Note_on_c, 8, 50, 68
19, 671275, Note_on_c, 8, 50, 0
19, 671299, Note_on_c, 8, 50, 80
19, 671503, Note_on_c, 8, 50, 0
19, 671527, Note_on_c, 8, 50, 89
19, 671744, Note_on_c, 8, 50, 0
19, 671768, Note_on_c, 8, 50, 75
19, 671996, Note_on_c, 8, 50, 0
19, 672020, Note_on_c, 8, 50, 79
19, 672216, Note_on_c, 8, 50, 0
19, 672240, Note_on_c, 8, 50, 98
19, 672468, Note_on_c, 8, 50, 0
19, 672492, Note_on_c, 8, 50, 74
19, 672709, Note_on_c, 8, 50, 0
19, 672733, Note_on_c, 8, 50, 73
19, 672940, Note_on_c, 8, 50, 0
19, 672964, Note_on_c, 8, 50, 102
19, 673178, Note_on_c, 8, 50, 0
19, 673202, Note_on_c, 8, 50, 80
19, 673436, Note_on_c, 8, 50, 0
19, 673460, Note_on_c, 8, 50, 68
19, 673672, Note_on_c, 8, 50, 0
19, 673696, Note_on_c, 8, 50, 93
19, 673911, Note_on_c, 8, 50, 0
19, 673935, Note_on_c, 8, 50, 65
19, 674149, Note_on_c, 8, 50, 0
19, 674173, Note_on_c, 8, 50, 68
19, 674389, Note_on_c, 8, 50, 0
19, 674413, Note_on_c, 8, 50, 93
19, 674627, Note_on_c, 8, 50, 0
19, 674651, Note_on_c, 8, 50, 83
19, 674867, Note_on_c, 8, 50, 0
19, 674891, Note_on_c, 8, 50, 79
19, 675113, Note_on_c, 8, 50, 0
19, 675137, Note_on_c, 8, 50, 87
19, 675341, Note_on_c, 8, 50, 0
19, 675365, Note_on_c, 8, 50, 74
19, 675591, Note_on_c, 8, 50, 0
19, 675615, Note_on_c, 8, 50, 74
19, 675820, Note_on_c, 8, 50, 0
19, 675844, Note_on_c, 8, 50, 91
19, 676067, Note_on_c, 8, 50, 0
19, 676091, Note_on_c, 8, 50, 82
19, 676304, Note_on_c, 8, 50, 0
19, 676328, Note_on_c, 8, 50, 85
19, 676557, Note_on_c, 8, 50, 0
19, 676581, Note_on_c, 8, 50, 103
19, 676789, Note_on_c, 8, 50, 0
19, 676813, Note_on_c, 8, 50, 76
19, 677026, Note_on_c, 8, 50, 0
19, 677050, Note_on_c, 8, 50, 68
19, 677290, Note_on_c, 8, 50, 0
19, 679687, Note_on_c, 8, 53, 51
19, 679902, Note_on_c, 8, 53, 0
19, 679926, Note_on_c, 8, 53, 39
19, 680166, Note_on_c, 8, 53, 0
19, 680643, Note_on_c, 8, 53, 51
19, 680858, Note_on_c, 8, 53, 0
19, 680882, Note_on_c, 8, 53, 59
19, 681122, Note_on_c, 8, 53, 0
19, 681606, Note_on_c, 8, 53, 59
19, 681828, Note_on_c, 8, 53, 0
19, 681852, Note_on_c, 8, 53, 48
19, 682092, Note_on_c, 8, 53, 0
19, 683538, Note_on_c, 8, 53, 57
19, 683736, Note_on_c, 8, 53, 0
19, 683760, Note_on_c, 8, 53, 59
19, 684000, Note_on_c, 8, 53, 0
19, 689775, Note_on_c, 8, 42, 55
19, 689858, Note_on_c, 8, 42, 0
19, 689882, Note_on_c, 8, 42, 59
19, 689995, Note_on_c, 8, 42, 0
19, 690019, Note_on_c, 8, 42, 55
19, 690101, Note_on_c, 8, 42, 0
19, 690125, Note_on_c, 8, 42, 46
19, 690219, Note_on_c, 8, 42, 0
19, 690243, Note_on_c, 8, 42, 55
19, 690342, Note_on_c, 8, 42, 0
19, 690366, Note_on_c, 8, 42, 50
19, 690467, Note_on_c, 8, 42, 0
19, 690491, Note_on_c, 8, 42, 49
19, 690594, Note_on_c, 8, 42, 0
19, 690618, Note_on_c, 8, 42, 43
19, 690698, Note_on_c, 8, 42, 0
19, 690722, Note_on_c, 8, 42, 44
19, 690835, Note_on_c, 8, 42, 0
19, 690859, Note_on_c, 8, 42, 58
19, 690936, Note_on_c, 8, 42, 0
19, 690960, Note_on_c, 8, 42, 57
19, 691079, Note_on_c, 8, 42, 0
19, 691103, Note_on_c, 8, 42, 57
19, 691199, Note_on_c, 8, 42, 0
19, 691223, Note_on_c, 8, 42, 42
19, 691300, Note_on_c, 8, 42, 0
19, 691324, Note_on_c, 8, 42, 49
19, 691428, Note_on_c, 8, 42, 0
19, 691452, Note_on_c, 8, 42, 48
19, 691540, Note_on_c, 8, 42, 0
19, 691564, Note_on_c, 8, 42, 40
19, 691675, Note_on_c, 8, 42, 0
19, 691699, Note_on_c, 8, 42, 57
19, 691796, Note_on_c, 8, 42, 0
19, 691820, Note_on_c, 8, 42, 52
19, 691908, Note_on_c, 8, 42, 0
19, 691932, Note_on_c, 8, 42, 56
19, 692031, Note_on_c, 8, 42, 0
19, 692055, Note_on_c, 8, 42, 41
19, 692161, Note_on_c, 8, 42, 0
19, 692185, Note_on_c, 8, 42, 45
19, 692278, Note_on_c, 8, 42, 0
19, 692302, Note_on_c, 8, 42, 52
19, 692378, Note_on_c, 8, 42, 0
19, 692402, Note_on_c, 8, 42, 52
19, 692507, Note_on_c, 8, 42, 0
19, 692531, Note_on_c, 8, 42, 43
19, 692627, Note_on_c, 8, 42, 0
19, 692651, Note_on_c, 8, 42, 48
19, 692747, Note_on_c, 8, 42, 0
19, 692771, Note_on_c, 8, 42, 50
19, 692865, Note_on_c, 8, 42, 0
19, 692889, Note_on_c, 8, 42, 52
19, 693000, Note_on_c, 8, 42, 0
19, 693024, Note_on_c, 8, 42, 48
19, 693116, Note_on_c, 8, 42, 0
19, 693140, Note_on_c, 8, 42, 53
19, 693217, Note_on_c, 8, 42, 0
19, 693241, Note_on_c, 8, 42, 54
19, 693347, Note_on_c, 8, 42, 0
19, 693371, Note_on_c, 8, 42, 45
19, 693458, Note_on_c, 8, 42, 0
19, 693482, Note_on_c, 8, 42, 58
19, 693592, Note_on_c, 8, 42, 0
19, 693616, Note_on_c, 8, 42, 53
19, 693719, Note_on_c, 8, 42, 0
19, 693743, Note_on_c, 8, 42, 45
19, 693832, Note_on_c, 8, 42, 0
19, 693856, Note_on_c, 8, 42, 42
19, 693939, Note_on_c, 8, 42, 0
19, 693963, Note_on_c, 8, 42, 55
19, 694072, Note_on_c, 8, 42, 0
19, 694096, Note_on_c, 8, 42, 47
19, 694200, Note_on_c, 8, 42, 0
19, 694224, Note_on_c, 8, 42, 45
19, 694298, Note_on_c, 8, 42, 0
19, 694322, Note_on_c, 8, 42, 53
19, 694426, Note_on_c, 8, 42, 0
19, 694450, Note_on_c, 8, 42, 54
19, 694554, Note_on_c, 8, 42, 0
19, 694578, Note_on_c, 8, 42, 56
19, 694659, Note_on_c, 8, 42, 0
19, 694683, Note_on_c, 8, 42, 39
19, 694791, Note_on_c, 8, 42, 0
19, 694815, Note_on_c, 8, 42, 49
19, 694898, Note_on_c, 8, 42, 0
19, 694922, Note_on_c, 8, 42, 57
19, 695026, Note_on_c, 8, 42, 0
19, 695050, Note_on_c, 8, 42, 47
19, 695140, Note_on_c, 8, 42, 0
19, 695164, Note_on_c, 8, 42, 50
19, 695275, Note_on_c, 8, 42, 0
19, 695299, Note_on_c, 8, 42, 53
19, 695396, Note_on_c, 8, 42, 0
19, 695420, Note_on_c, 8, 42, 42
19, 695519, Note_on_c, 8, 42, 0
19, 695543, Note_on_c, 8, 42, 52
19, 695628, Note_on_c, 8, 42, 0
19, 695652, Note_on_c, 8, 42, 58
19, 695760, Note_on_c, 8, 42, 0
19, 695784, Note_on_c, 8, 42, 41
19, 695856, Note_on_c, 8, 42, 0
19, 695880, Note_on_c, 8, 42, 41
19, 695992, Note_on_c, 8, 42, 0
19, 696016, Note_on_c, 8, 42, 57
19, 696108, Note_on_c, 8, 42, 0
19, 696132, Note_on_c, 8, 42, 43
19, 696237, Note_on_c, 8, 42, 0
19, 696261, Note_on_c, 8, 42, 46
19, 696341, Note_on_c, 8, 42, 0
19, 696365, Note_on_c, 8, 42, 57
19, 696473, Note_on_c, 8, 42, 0
19, 696497, Note_on_c, 8, 42, 49
19, 696597, Note_on_c, 8, 42, 0
19, 696621, Note_on_c, 8, 42, 52
19, 696714, Note_on_c, 8, 42, 0
19, 696738, Note_on_c, 8, 42, 42
19, 696836, Note_on_c, 8, 42, 0
19, 696860, Note_on_c, 8, 42, 45
19, 696950, Note_on_c, 8, 42, 0
19, 696974, Note_on_c, 8, 42, 49
19, 697074, Note_on_c, 8, 42, 0
19, 697098, Note_on_c, 8, 42, 46
19, 697189, Note_on_c, 8, 42, 0
19, 697213, Note_on_c, 8, 42, 49
19, 697319, Note_on_c, 8, 42, 0
19, 697343, Note_on_c, 8, 42, 45
19, 697416, Note_on_c, 8, 42, 0
19, 697440, Note_on_c, 8, 42, 48
19, 697539, Note_on_c, 8, 42, 0
19, 697563, Note_on_c, 8, 42, 40
19, 697671, Note_on_c, 8, 42, 0
19, 697695, Note_on_c, 8, 42, 40
19, 697797, Note_on_c, 8, 42, 0
19, 697821, Note_on_c, 8, 42, 50
19, 697904, Note_on_c, 8, 42, 0
19, 697928, Note_on_c, 8, 42, 53
19, 698039, Note_on_c, 8, 42, 0
19, 698063, Note_on_c, 8, 42, 56
19, 698149, Note_on_c, 8, 42, 0
19, 698173, Note_on_c, 8, 42, 52
19, 698257, Note_on_c, 8, 42, 0
19, 698281, Note_on_c, 8, 42, 45
19, 698384, Note_on_c, 8, 42, 0
19, 698408, Note_on_c, 8, 42, 46
19, 698502, Note_on_c, 8, 42, 0
19, 698526, Note_on_c, 8, 42, 48
19, 698620, Note_on_c, 8, 42, 0
19, 698644, Note_on_c, 8, 42, 43
19, 698753, Note_on_c, 8, 42, 0
19, 698777, Note_on_c, 8, 42, 44
19, 698867, Note_on_c, 8, 42, 0
19, 698891, Note_on_c, 8, 42, 50
19, 698988, Note_on_c, 8, 42, 0
19, 699012, Note_on_c, 8, 42, 54
19, 699111, Note_on_c, 8, 42, 0
19, 699135, Note_on_c, 8, 42, 54
19, 699231, Note_on_c, 8, 42, 0
19, 699255, Note_on_c, 8, 42, 39
19, 699349, Note_on_c, 8, 42, 0
19, 699373, Note_on_c, 8, 42, 57
19, 699469, Note_on_c, 8, 42, 0
19, 699493, Note_on_c, 8, 42, 46
19, 699588, Note_on_c, 8, 42, 0
19, 699612, Note_on_c, 8, 42, 41
19, 699699, Note_on_c, 8, 42, 0
19, 699723, Note_on_c, 8, 42, 58
19, 699818, Note_on_c, 8, 42, 0
19, 699842, Note_on_c, 8, 42, 41
19, 699951, Note_on_c, 8, 42, 0
19, 699975, Note_on_c, 8, 42, 45
19, 700064, Note_on_c, 8, 42, 0
19, 700088, Note_on_c, 8, 42, 51
19, 700183, Note_on_c, 8, 42, 0
19, 700207, Note_on_c, 8, 42, 56
19, 700304, Note_on_c, 8, 42, 0
19, 700328, Note_on_c, 8, 42, 46
19, 700433, Note_on_c, 8, 42, 0
19, 700457, Note_on_c, 8, 42, 56
19, 700545, Note_on_c, 8, 42, 0
19, 700569, Note_on_c, 8, 42, 57
19, 700661, Note_on_c, 8, 42, 0
19, 700685, Note_on_c, 8, 42, 45
19, 700799, Note_on_c, 8, 42, 0
19, 700823, Note_on_c, 8, 42, 40
19, 700911, Note_on_c, 8, 42, 0
19, 700935, Note_on_c, 8, 42, 57
19, 701040, Note_on_c, 8, 42, 0
19, 701064, Note_on_c, 8, 42, 52
19, 701157, Note_on_c, 8, 42, 0
19, 701181, Note_on_c, 8, 42, 40
19, 701277, Note_on_c, 8, 42, 0
19, 701301, Note_on_c, 8, 42, 48
19, 701401, Note_on_c, 8, 42, 0
19, 701425, Note_on_c, 8, 42, 53
19, 701504, Note_on_c, 8, 42, 0
19, 701528, Note_on_c, 8, 42, 56
19, 701621, Note_on_c, 8, 42, 0
19, 701645, Note_on_c, 8, 42, 54
19, 701747, Note_on_c, 8, 42, 0
19, 701771, Note_on_c, 8, 42, 56
19, 701872, Note_on_c, 8, 42, 0
19, 701896, Note_on_c, 8, 42, 45
19, 701986, Note_on_c, 8, 42, 0
19, 702010, Note_on_c, 8, 42, 45
19, 702097, Note_on_c, 8, 42, 0
19, 702121, Note_on_c, 8, 42, 47
19, 702239, Note_on_c, 8, 42, 0
19, 702263, Note_on_c, 8, 42, 53
19, 702344, Note_on_c, 8, 42, 0
19, 702368, Note_on_c, 8, 42, 55
19, 702464, Note_on_c, 8, 42, 0
19, 702488, Note_on_c, 8, 42, 41
19, 702583, Note_on_c, 8, 42, 0
19, 702607, Note_on_c, 8, 42, 43
19, 702705, Note_on_c, 8, 42, 0
19, 702729, Note_on_c, 8, 42, 53
19, 702822, Note_on_c, 8, 42, 0
19, 702846, Note_on_c, 8, 42, 54
19, 702950, Note_on_c, 8, 42, 0
19, 702974, Note_on_c, 8, 42, 48
19, 703063, Note_on_c, 8, 42, 0
19, 703087, Note_on_c, 8, 42, 39
19, 703196, Note_on_c, 8, 42, 0
19, 703220, Note_on_c, 8, 42, 59
19, 703305, Note_on_c, 8, 42, 0
19, 703329, Note_on_c, 8, 42, 50
19, 703434, Note_on_c, 8, 42, 0
19, 703458, Note_on_c, 8, 42, 40
19, 703549, Note_on_c, 8, 42, 0
19, 703573, Note_on_c, 8, 42, 49
19, 703658, Note_on_c, 8, 42, 0
19, 703682, Note_on_c, 8, 42, 53
19, 703784, Note_on_c, 8, 42, 0
19, 703808, Note_on_c, 8, 42, 46
19, 703902, Note_on_c, 8, 42, 0
19, 703926, Note_on_c, 8, 42, 46
19, 704038, Note_on_c, 8, 42, 0
19, 704062, Note_on_c, 8, 42, 58
19, 704138, Note_on_c, 8, 42, 0
19, 704162, Note_on_c, 8, 42, 59
19, 704259, Note_on_c, 8, 42, 0
19, 704283, Note_on_c, 8, 42, 59
19, 704381, Note_on_c, 8, 42, 0
19, 704405, Note_on_c, 8, 42, 45
19, 704517, Note_on_c, 8, 42, 0
19, 704541, Note_on_c, 8, 42, 43
19, 704619, Note_on_c, 8, 42, 0
19, 704643, Note_on_c, 8, 42, 53
19, 704737, Note_on_c, 8, 42, 0
19, 704761, Note_on_c, 8, 42, 48
19, 704875, Note_on_c, 8, 42, 0
19, 704899, Note_on_c, 8, 42, 45
19, 704996, Note_on_c, 8, 42, 0
19, 705020, Note_on_c, 8, 42, 48
19, 705108, Note_on_c, 8, 42, 0
19, 705132, Note_on_c, 8, 42, 49
19, 705226, Note_on_c, 8, 42, 0
19, 705250, Note_on_c, 8, 42, 58
19, 705343, Note_on_c, 8, 42, 0
19, 705367, Note_on_c, 8, 42, 43
19, 705466, Note_on_c, 8, 42, 0
19, 705490, Note_on_c, 8, 42, 52
19, 705579, Note_on_c, 8, 42, 0
19, 705603, Note_on_c, 8, 42, 54
19, 705720, Note_on_c, 8, 42, 0
19, 705744, Note_on_c, 8, 42, 48
19, 705829, Note_on_c, 8, 42, 0
19, 705853, Note_on_c, 8, 42, 42
19, 705945, Note_on_c, 8, 42, 0
19, 705969, Note_on_c, 8, 42, 53
19, 706077, Note_on_c, 8, 42, 0
19, 706101, Note_on_c, 8, 42, 42
19, 706185, Note_on_c, 8, 42, 0
19, 706209, Note_on_c, 8, 42, 56
19, 706301, Note_on_c, 8, 42, 0
19, 706325, Note_on_c, 8, 42, 48
19, 706430, Note_on_c, 8, 42, 0
19, 706454, Note_on_c, 8, 42, 48
19, 706547, Note_on_c, 8, 42, 0
19, 706571, Note_on_c, 8, 42, 50
19, 706656, Note_on_c, 8, 42, 0
19, 706680, Note_on_c, 8, 42, 51
19, 706783, Note_on_c, 8, 42, 0
19, 706807, Note_on_c, 8, 42, 51
19, 706897, Note_on_c, 8, 42, 0
19, 706921, Note_on_c, 8, 42, 39
19, 707026, Note_on_c, 8, 42, 0
19, 707050, Note_on_c, 8, 42, 55
19, 707147, Note_on_c, 8, 42, 0
19, 707171, Note_on_c, 8, 42, 54
19, 707277, Note_on_c, 8, 42, 0
19, 707301, Note_on_c, 8, 42, 58
19, 707394, Note_on_c, 8, 42, 0
19, 707418, Note_on_c, 8, 42, 50
19, 707501, Note_on_c, 8, 42, 0
19, 707525, Note_on_c, 8, 42, 55
19, 707621, Note_on_c, 8, 42, 0
19, 707645, Note_on_c, 8, 42, 58
19, 707746, Note_on_c, 8, 42, 0
19, 707770, Note_on_c, 8, 42, 58
19, 707874, Note_on_c, 8, 42, 0
19, 707898, Note_on_c, 8, 42, 46
19, 707978, Note_on_c, 8, 42, 0
19, 708002, Note_on_c, 8, 42, 53
19, 708100, Note_on_c, 8, 42, 0
19, 708124, Note_on_c, 8, 42, 42
19, 708236, Note_on_c, 8, 42, 0
19, 708260, Note_on_c, 8, 42, 56
19, 708346, Note_on_c, 8, 42, 0
19, 708370, Note_on_c, 8, 42, 58
19, 708468, Note_on_c, 8, 42, 0
19, 708492, Note_on_c, 8, 42, 41
19, 708597, Note_on_c, 8, 42, 0
19, 708621, Note_on_c, 8, 42, 53
19, 708703, Note_on_c, 8, 42, 0
19, 708727, Note_on_c, 8, 42, 41
19, 708823, Note_on_c, 8, 42, 0
19, 708847, Note_on_c, 8, 42, 50
19, 708956, Note_on_c, 8, 42, 0
19, 708980, Note_on_c, 8, 42, 53
19, 709059, Note_on_c, 8, 42, 0
19, 709083, Note_on_c, 8, 42, 49
19, 709188, Note_on_c, 8, 42, 0
19, 709212, Note_on_c, 8, 42, 56
19, 709307, Note_on_c, 8, 42, 0
19, 709331, Note_on_c, 8, 42, 48
19, 709428, Note_on_c, 8, 42, 0
19, 709452, Note_on_c, 8, 42, 39
19, 709536, Note_on_c, 8, 42, 0
19, 709560, Note_on_c, 8, 42, 46
19, 709674, Note_on_c, 8, 42, 0
19, 709698, Note_on_c, 8, 42, 47
19, 709787, Note_on_c, 8, 42, 0
19, 709811, Note_on_c, 8, 42, 39
19, 709920, Note_on_c, 8, 42, 0
19, 709944, Note_on_c, 8, 42, 55
19, 710021, Note_on_c, 8, 42, 0
19, 710045, Note_on_c, 8, 42, 59
19, 710153, Note_on_c, 8, 42, 0
19, 710177, Note_on_c, 8, 42, 40
19, 710262, Note_on_c, 8, 42, 0
19, 710286, Note_on_c, 8, 42, 40
19, 710395, Note_on_c, 8, 42, 0
19, 710419, Note_on_c, 8, 42, 58
19, 710512, Note_on_c, 8, 42, 0
19, 710536, Note_on_c, 8, 42, 44
19, 710632, Note_on_c, 8, 42, 0
19, 710656, Note_on_c, 8, 42, 42
19, 710754, Note_on_c, 8, 42, 0
19, 710778, Note_on_c, 8, 42, 58
19, 710866, Note_on_c, 8, 42, 0
19, 710890, Note_on_c, 8, 42, 39
19, 710998, Note_on_c, 8, 42, 0
19, 711022, Note_on_c, 8, 42, 42
19, 711114, Note_on_c, 8, 42, 0
19, 711138, Note_on_c, 8, 42, 48
19, 711223, Note_on_c, 8, 42, 0
19, 711247, Note_on_c, 8, 42, 45
19, 711359, Note_on_c, 8, 42, 0
19, 711383, Note_on_c, 8, 42, 39
19, 711481, Note_on_c, 8, 42, 0
19, 711505, Note_on_c, 8, 42, 41
19, 711597, Note_on_c, 8, 42, 0
19, 711621, Note_on_c, 8, 42, 51
19, 711696, Note_on_c, 8, 42, 0
19, 711720, Note_on_c, 8, 42, 57
19, 711837, Note_on_c, 8, 42, 0
19, 711861, Note_on_c, 8, 42, 50
19, 711946, Note_on_c, 8, 42, 0
19, 711970, Note_on_c, 8, 42, 49
19, 712062, Note_on_c, 8, 42, 0
19, 712086, Note_on_c, 8, 42, 53
19, 712191, Note_on_c, 8, 42, 0
19, 712215, Note_on_c, 8, 42, 48
19, 712321, Note_on_c, 8, 42, 0
19, 712345, Note_on_c, 8, 42, 43
19, 712435, Note_on_c, 8, 42, 0
19, 712459, Note_on_c, 8, 42, 55
19, 712560, Note_on_c, 8, 42, 0
19, 712584, Note_on_c, 8, 42, 51
19, 712663, Note_on_c, 8, 42, 0
19, 712687, Note_on_c, 8, 42, 51
19, 712801, Note_on_c, 8, 42, 0
19, 712825, Note_on_c, 8, 42, 55
19, 712912, Note_on_c, 8, 42, 0
19, 712936, Note_on_c, 8, 42, 48
19, 713032, Note_on_c, 8, 42, 0
19, 713056, Note_on_c, 8, 42, 59
19, 713146, Note_on_c, 8, 42, 0
19, 713170, Note_on_c, 8, 42, 59
19, 713265, Note_on_c, 8, 42, 0
19, 713289, Note_on_c, 8, 42, 56
19, 713380, Note_on_c, 8, 42, 0
19, 713404, Note_on_c, 8, 42, 47
19, 713498, Note_on_c, 8, 42, 0
19, 713522, Note_on_c, 8, 42, 39
19, 713624, Note_on_c, 8, 42, 0
19, 713648, Note_on_c, 8, 42, 45
19, 713748, Note_on_c, 8, 42, 0
19, 713772, Note_on_c, 8, 42, 44
19, 713866, Note_on_c, 8, 42, 0
19, 713890, Note_on_c, 8, 42, 59
19, 713983, Note_on_c, 8, 42, 0
19, 714007, Note_on_c, 8, 42, 55
19, 714097, Note_on_c, 8, 42, 0
19, 714121, Note_on_c, 8, 42, 49
19, 714226, Note_on_c, 8, 42, 0
19, 714250, Note_on_c, 8, 42, 41
19, 714340, Note_on_c, 8, 42, 0
19, 714364, Note_on_c, 8, 42, 49
19, 714472, Note_on_c, 8, 42, 0
19, 714496, Note_on_c, 8, 42, 58
19, 714587, Note_on_c, 8, 42, 0
19, 714611, Note_on_c, 8, 42, 48
19, 714701, Note_on_c, 8, 42, 0
19, 714725, Note_on_c, 8, 42, 58
19, 714828, Note_on_c, 8, 42, 0
19, 714852, Note_on_c, 8, 42, 44
19, 714960, Note_on_c, 8, 42, 0
19, 714984, Note_on_c, 8, 42, 56
19, 715078, Note_on_c, 8, 42, 0
19, 715102, Note_on_c, 8, 42, 44
19, 715192, Note_on_c, 8, 42, 0
19, 715216, Note_on_c, 8, 42, 52
19, 715313, Note_on_c, 8, 42, 0
19, 715337, Note_on_c, 8, 42, 48
19, 715434, Note_on_c, 8, 42, 0
19, 715458, Note_on_c, 8, 42, 42
19, 715550, Note_on_c, 8, 42, 0
19, 715574, Note_on_c, 8, 42, 58
19, 715662, Note_on_c, 8, 42, 0
19, 715686, Note_on_c, 8, 42, 57
19, 715784, Note_on_c, 8, 42, 0
19, 715808, Note_on_c, 8, 42, 52
19, 715906, Note_on_c, 8, 42, 0
19, 715930, Note_on_c, 8, 42, 47
19, 716020, Note_on_c, 8, 42, 0
19, 716044, Note_on_c, 8, 42, 39
19, 716153, Note_on_c, 8, 42, 0
19, 716177, Note_on_c, 8, 42, 56
19, 716259, Note_on_c, 8, 42, 0
19, 716283, Note_on_c, 8, 42, 39
19, 716382, Note_on_c, 8, 42, 0
19, 716406, Note_on_c, 8, 42, 41
19, 716505, Note_on_c, 8, 42, 0
19, 716529, Note_on_c, 8, 42, 52
19, 716636, Note_on_c, 8, 42, 0
19, 716660, Note_on_c, 8, 42, 59
19, 716741, Note_on_c, 8, 42, 0
19, 716765, Note_on_c, 8, 42, 56
19, 716860, Note_on_c, 8, 42, 0
19, 716884, Note_on_c, 8, 42, 39
19, 716987, Note_on_c, 8, 42, 0
19, 717011, Note_on_c, 8, 42, 56
19, 717113, Note_on_c, 8, 42, 0
19, 717137, Note_on_c, 8, 42, 41
19, 717219, Note_on_c, 8, 42, 0
19, 717243, Note_on_c, 8, 42, 39
19, 717360, Note_on_c, 8, 42, 0
19, 717384, Note_on_c, 8, 42, 39
19, 717470, Note_on_c, 8, 42, 0
19, 717494, Note_on_c, 8, 42, 57
19, 717578, Note_on_c, 8, 42, 0
19, 717602, Note_on_c, 8, 42, 43
19, 717704, Note_on_c, 8, 42, 0
19, 717728, Note_on_c, 8, 42, 58
19, 717819, Note_on_c, 8, 42, 0
19, 717843, Note_on_c, 8, 42, 44
19, 717956, Note_on_c, 8, 42, 0
19, 717980, Note_on_c, 8, 42, 45
19, 718064, Note_on_c, 8, 42, 0
19, 718088, Note_on_c, 8, 42, 47
19, 718200, Note_on_c, 8, 42, 0
19, 718224, Note_on_c, 8, 42, 45
19, 718305, Note_on_c, 8, 42, 0
19, 718329, Note_on_c, 8, 42, 39
19, 718417, Note_on_c, 8, 42, 0
19, 718441, Note_on_c, 8, 42, 47
19, 718553, Note_on_c, 8, 42, 0
19, 718577, Note_on_c, 8, 42, 47
19, 718656, Note_on_c, 8, 42, 0
19, 718680, Note_on_c, 8, 42, 59
19, 718794, Note_on_c, 8, 42, 0
19, 718818, Note_on_c, 8, 42, 54
19, 718898, Note_on_c, 8, 42, 0
19, 718922, Note_on_c, 8, 42, 52
19, 719033, Note_on_c, 8, 42, 0
19, 719057, Note_on_c, 8, 42, 46
19, 719150, Note_on_c, 8, 42, 0
19, 719174, Note_on_c, 8, 42, 44
19, 719264, Note_on_c, 8, 42, 0
19, 719288, Note_on_c, 8, 42, 41
19, 719393, Note_on_c, 8, 42, 0
19, 719417, Note_on_c, 8, 42, 47
19, 719514, Note_on_c, 8, 42, 0
19, 719538, Note_on_c, 8, 42, 58
19, 719621, Note_on_c, 8, 42, 0
19, 719645, Note_on_c, 8, 42, 59
19, 719757, Note_on_c, 8, 42, 0
19, 719781, Note_on_c, 8, 42, 46
19, 719878, Note_on_c, 8, 42, 0
19, 719902, Note_on_c, 8, 42, 55
19, 719988, Note_on_c, 8, 42, 0
19, 720012, Note_on_c, 8, 42, 50
19, 720107, Note_on_c, 8, 42, 0
19, 720131, Note_on_c, 8, 42, 47
19, 720240, Note_on_c, 8, 42, 0
19, 720264, Note_on_c, 8, 42, 41
19, 720351, Note_on_c, 8, 42, 0
19, 720375, Note_on_c, 8, 42, 53
19, 720460, Note_on_c, 8, 42, 0
19, 720484, Note_on_c, 8, 42, 54
19, 720601, Note_on_c, 8, 42, 0
19, 720625, Note_on_c, 8, 42, 58
19, 720697, Note_on_c, 8, 42, 0
19, 720721, Note_on_c, 8, 42, 43
19, 720834, Note_on_c, 8, 42, 0
19, 720858, Note_on_c, 8, 42, 49
19, 720940, Note_on_c, 8, 42, 0
19, 720964, Note_on_c, 8, 42, 57
19, 721077, Note_on_c, 8, 42, 0
19, 721101, Note_on_c, 8, 42, 39
19, 721192, Note_on_c, 8, 42, 0
19, 721216, Note_on_c, 8, 42, 43
19, 721300, Note_on_c, 8, 42, 0
19, 721324, Note_on_c, 8, 42, 44
19, 721435, Note_on_c, 8, 42, 0
19, 721459, Note_on_c, 8, 42, 53
19, 721539, Note_on_c, 8, 42, 0
19, 721563, Note_on_c, 8, 42, 54
19, 721657, Note_on_c, 8, 42, 0
19, 721681, Note_on_c, 8, 42, 57
19, 721780, Note_on_c, 8, 42, 0
19, 721804, Note_on_c, 8, 42, 40
19, 721906, Note_on_c, 8, 42, 0
19, 721930, Note_on_c, 8, 42, 42
19, 722033, Note_on_c, 8, 42, 0
19, 722057, Note_on_c, 8, 42, 42
19, 722141, Note_on_c, 8, 42, 0
19, 722165, Note_on_c, 8, 42, 52
19, 722279, Note_on_c, 8, 42, 0
19, 722303, Note_on_c, 8, 42, 39
19, 722377, Note_on_c, 8, 42, 0
19, 722401, Note_on_c, 8, 42, 58
19, 722519, Note_on_c, 8, 42, 0
19, 722543, Note_on_c, 8, 42, 45
19, 722638, Note_on_c, 8, 42, 0
19, 722662, Note_on_c, 8, 42, 43
19, 722753, Note_on_c, 8, 42, 0
19, 722777, Note_on_c, 8, 42, 39
19, 722862, Note_on_c, 8, 42, 0
19, 722886, Note_on_c, 8, 42, 44
19, 722983, Note_on_c, 8, 42, 0
19, 723007, Note_on_c, 8, 42, 44
19, 723099, Note_on_c, 8, 42, 0
19, 723123, Note_on_c, 8, 42, 40
19, 723220, Note_on_c, 8, 42, 0
19, 723244, Note_on_c, 8, 42, 59
19, 723358, Note_on_c, 8, 42, 0
19, 723382, Note_on_c, 8, 42, 57
19, 723458, Note_on_c, 8, 42, 0
19, 723482, Note_on_c, 8, 42, 56
19, 723591, Note_on_c, 8, 42, 0
19, 723615, Note_on_c, 8, 42, 39
19, 723711, Note_on_c, 8, 42, 0
19, 723735, Note_on_c, 8, 42, 54
19, 723822, Note_on_c, 8, 42, 0
19, 723846, Note_on_c, 8, 42, 42
19, 723948, Note_on_c, 8, 42, 0
19, 723972, Note_on_c, 8, 42, 51
19, 724080, Note_on_c, 8, 42, 0
19, 724104, Note_on_c, 8, 42, 58
19, 724188, Note_on_c, 8, 42, 0
19, 724212, Note_on_c, 8, 42, 58
19, 724313, Note_on_c, 8, 42, 0
19, 724337, Note_on_c, 8, 42, 57
19, 724436, Note_on_c, 8, 42, 0
19, 724460, Note_on_c, 8, 42, 51
19, 724537, Note_on_c, 8, 42, 0
19, 724561, Note_on_c, 8, 42, 59
19, 724666, Note_on_c, 8, 42, 0
19, 724690, Note_on_c, 8, 42, 59
19, 724790, Note_on_c, 8, 42, 0
19, 724814, Note_on_c, 8, 42, 51
19, 724908, Note_on_c, 8, 42, 0
19, 724932, Note_on_c, 8, 42, 42
19, 725033, Note_on_c, 8, 42, 0
19, 725057, Note_on_c, 8, 42, 49
19, 725157, Note_on_c, 8, 42, 0
19, 725181, Note_on_c, 8, 42, 58
19, 725280, Note_on_c, 8, 42, 0
19, 725304, Note_on_c, 8, 42, 47
19, 725394, Note_on_c, 8, 42, 0
19, 725418, Note_on_c, 8, 42, 56
19, 725509, Note_on_c, 8, 42, 0
19, 725533, Note_on_c, 8, 42, 48
19, 725617, Note_on_c, 8, 42, 0
19, 725641, Note_on_c, 8, 42, 47
19, 725746, Note_on_c, 8, 42, 0
19, 725770, Note_on_c, 8, 42, 50
19, 725862, Note_on_c, 8, 42, 0
19, 725886, Note_on_c, 8, 42, 55
19, 725991, Note_on_c, 8, 42, 0
19, 726015, Note_on_c, 8, 42, 44
19, 726118, Note_on_c, 8, 42, 0
19, 726142, Note_on_c, 8, 42, 54
19, 726217, Note_on_c, 8, 42, 0
19, 726241, Note_on_c, 8, 42, 54
19, 726347, Note_on_c, 8, 42, 0
19, 726371, Note_on_c, 8, 42, 54
19, 726480, Note_on_c, 8, 42, 0
19, 726504, Note_on_c, 8, 42, 51
19, 726582, Note_on_c, 8, 42, 0
19, 726606, Note_on_c, 8, 42, 49
19, 726709, Note_on_c, 8, 42, 0
19, 726733, Note_on_c, 8, 42, 43
19, 726833, Note_on_c, 8, 42, 0
19, 726857, Note_on_c, 8, 42, 57
19, 726956, Note_on_c, 8, 42, 0
19, 726980, Note_on_c, 8, 42, 39
19, 727066, Note_on_c, 8, 42, 0
19, 727090, Note_on_c, 8, 42, 50
19, 727200, Note_on_c, 8, 42, 0
19, 727224, Note_on_c, 8, 42, 45
19, 727315, Note_on_c, 8, 42, 0
19, 727339, Note_on_c, 8, 42, 50
19, 727429, Note_on_c, 8, 42, 0
19, 727453, Note_on_c, 8, 42, 56
19, 727538, Note_on_c, 8, 42, 0
19, 727562, Note_on_c, 8, 42, 48
19, 727672, Note_on_c, 8, 42, 0
19, 727696, Note_on_c, 8, 42, 52
19, 727784, Note_on_c, 8, 42, 0
19, 727808, Note_on_c, 8, 42, 39
19, 727903, Note_on_c, 8, 42, 0
19, 727927, Note_on_c, 8, 42, 39
19, 728022, Note_on_c, 8, 42, 0
19, 728046, Note_on_c, 8, 42, 42
19, 728139, Note_on_c, 8, 42, 0
19, 728163, Note_on_c, 8, 42, 57
19, 728261, Note_on_c, 8, 42, 0
19, 728285, Note_on_c, 8, 42, 50
19, 728386, Note_on_c, 8, 42, 0
19, 728410, Note_on_c, 8, 42, 49
19, 728515, Note_on_c, 8, 42, 0
19, 728539, Note_on_c, 8, 42, 59
19, 728650, Note_on_c, 8, 48, 56
19, 728659, Note_on_c, 8, 42, 0
19, 728751, Note_on_c, 8, 48, 0
19, 728775, Note_on_c, 8, 48, 59
19, 728877, Note_on_c, 8, 48, 0
19, 728901, Note_on_c, 8, 48, 56
19, 728992, Note_on_c, 8, 48, 0
19, 729016, Note_on_c, 8, 48, 45
19, 729108, Note_on_c, 8, 48, 0
19, 729132, Note_on_c, 8, 48, 46
19, 729236, Note_on_c, 8, 48, 0
19, 729260, Note_on_c, 8, 48, 53
19, 729354, Note_on_c, 8, 48, 0
19, 729378, Note_on_c, 8, 48, 44
19, 729464, Note_on_c, 8, 48, 0
19, 729488, Note_on_c, 8, 48, 58
19, 729576, Note_on_c, 8, 48, 0
19, 729600, Note_on_c, 8, 48, 45
19, 729718, Note_on_c, 8, 48, 0
19, 729742, Note_on_c, 8, 48, 53
19, 729819, Note_on_c, 8, 48, 0
19, 729843, Note_on_c, 8, 48, 56
19, 729942, Note_on_c, 8, 48, 0
19, 729966, Note_on_c, 8, 48, 44
19, 730086, Note_on_c, 8, 48, 0
19, 730099, Note_on_c, 8, 42, 42
19, 730191, Note_on_c, 8, 42, 0
19, 730215, Note_on_c, 8, 42, 53
19, 730297, Note_on_c, 8, 42, 0
19, 730321, Note_on_c, 8, 42, 51
19, 730431, Note_on_c, 8, 42, 0
19, 730455, Note_on_c, 8, 42, 55
19, 730548, Note_on_c, 8, 42, 0
19, 730572, Note_on_c, 8, 42, 52
19, 730680, Note_on_c, 8, 42, 0
19, 730704, Note_on_c, 8, 42, 47
19, 730777, Note_on_c, 8, 42, 0
19, 730801, Note_on_c, 8, 42, 49
19, 730904, Note_on_c, 8, 42, 0
19, 730928, Note_on_c, 8, 42, 43
19, 731028, Note_on_c, 8, 42, 0
19, 731052, Note_on_c, 8, 42, 47
19, 731157, Note_on_c, 8, 42, 0
19, 731181, Note_on_c, 8, 42, 53
19, 731257, Note_on_c, 8, 42, 0
19, 731281, Note_on_c, 8, 42, 55
19, 731382, Note_on_c, 8, 42, 0
19, 731406, Note_on_c, 8, 42, 40
19, 731526, Note_on_c, 8, 42, 0
19, 731527, Note_on_c, 8, 48, 55
19, 731624, Note_on_c, 8, 48, 0
19, 731648, Note_on_c, 8, 48, 56
19, 731740, Note_on_c, 8, 48, 0
19, 731764, Note_on_c, 8, 48, 57
19, 731868, Note_on_c, 8, 48, 0
19, 731892, Note_on_c, 8, 48, 43
19, 731997, Note_on_c, 8, 48, 0
19, 732021, Note_on_c, 8, 48, 53
19, 732115, Note_on_c, 8, 48, 0
19, 732139, Note_on_c, 8, 48, 59
19, 732221, Note_on_c, 8, 48, 0
19, 732245, Note_on_c, 8, 48, 41
19, 732336, Note_on_c, 8, 48, 0
19, 732360, Note_on_c, 8, 48, 46
19, 732459, Note_on_c, 8, 48, 0
19, 732483, Note_on_c, 8, 48, 43
19, 732576, Note_on_c, 8, 48, 0
19, 732600, Note_on_c, 8, 48, 39
19, 732719, Note_on_c, 8, 48, 0
19, 732743, Note_on_c, 8, 48, 48
19, 732821, Note_on_c, 8, 48, 0
19, 732845, Note_on_c, 8, 48, 57
19, 732965, Note_on_c, 8, 48, 0
19, 732976, Note_on_c, 8, 42, 59
19, 733078, Note_on_c, 8, 42, 0
19, 733102, Note_on_c, 8, 42, 53
19, 733185, Note_on_c, 8, 42, 0
19, 733209, Note_on_c, 8, 42, 44
19, 733317, Note_on_c, 8, 42, 0
19, 733341, Note_on_c, 8, 42, 54
19, 733437, Note_on_c, 8, 42, 0
19, 733461, Note_on_c, 8, 42, 46
19, 733537, Note_on_c, 8, 42, 0
19, 733561, Note_on_c, 8, 42, 45
19, 733671, Note_on_c, 8, 42, 0
19, 733695, Note_on_c, 8, 42, 46
19, 733778, Note_on_c, 8, 42, 0
19, 733802, Note_on_c, 8, 42, 49
19, 733910, Note_on_c, 8, 42, 0
19, 733934, Note_on_c, 8, 42, 51
19, 734021, Note_on_c, 8, 42, 0
19, 734045, Note_on_c, 8, 42, 43
19, 734138, Note_on_c, 8, 42, 0
19, 734162, Note_on_c, 8, 42, 48
19, 734268, Note_on_c, 8, 42, 0
19, 734292, Note_on_c, 8, 42, 39
19, 734377, Note_on_c, 8, 42, 0
19, 734401, Note_on_c, 8, 42, 55
19, 734508, Note_on_c, 8, 42, 0
19, 734532, Note_on_c, 8, 42, 40
19, 734639, Note_on_c, 8, 42, 0
19, 734663, Note_on_c, 8, 42, 44
19, 734744, Note_on_c, 8, 42, 0
19, 734768, Note_on_c, 8, 42, 39
19, 734866, Note_on_c, 8, 42, 0
19, 734890, Note_on_c, 8, 42, 41
19, 734992, Note_on_c, 8, 42, 0
19, 735016, Note_on_c, 8, 42, 55
19, 735105, Note_on_c, 8, 42, 0
19, 735129, Note_on_c, 8, 42, 46
19, 735216, Note_on_c, 8, 42, 0
19, 735240, Note_on_c, 8, 42, 49
19, 735357, Note_on_c, 8, 42, 0
19, 735381, Note_on_c, 8, 42, 45
19, 735458, Note_on_c, 8, 42, 0
19, 735482, Note_on_c, 8, 42, 39
19, 735599, Note_on_c, 8, 42, 0
19, 735623, Note_on_c, 8, 42, 51
19, 735707, Note_on_c, 8, 42, 0
19, 735731, Note_on_c, 8, 42, 54
19, 735851, Note_on_c, 8, 42, 0
19, 735851, Note_on_c, 8, 48, 46
19, 735949, Note_on_c, 8, 48, 0
19, 735973, Note_on_c, 8, 48, 44
19, 736056, Note_on_c, 8, 48, 0
19, 736080, Note_on_c, 8, 48, 39
19, 736187, Note_on_c, 8, 48, 0
19, 736211, Note_on_c, 8, 48, 56
19, 736302, Note_on_c, 8, 48, 0
19, 736326, Note_on_c, 8, 48, 58
19, 736436, Note_on_c, 8, 48, 0
19, 736460, Note_on_c, 8, 48, 55
19, 736560, Note_on_c, 8, 48, 0
19, 736584, Note_on_c, 8, 48, 46
19, 736677, Note_on_c, 8, 48, 0
19, 736701, Note_on_c, 8, 48, 48
19, 736778, Note_on_c, 8, 48, 0
19, 736802, Note_on_c, 8, 48, 46
19, 736900, Note_on_c, 8, 48, 0
19, 736924, Note_on_c, 8, 48, 44
19, 737040, Note_on_c, 8, 48, 0
19, 737064, Note_on_c, 8, 48, 44
19, 737149, Note_on_c, 8, 48, 0
19, 737173, Note_on_c, 8, 48, 45
19, 737288, Note_on_c, 8, 42, 47
19, 737293, Note_on_c, 8, 48, 0
19, 737390, Note_on_c, 8, 42, 0
19, 737414, Note_on_c, 8, 42, 56
19, 737520, Note_on_c, 8, 42, 0
19, 737544, Note_on_c, 8, 42, 45
19, 737635, Note_on_c, 8, 42, 0
19, 737659, Note_on_c, 8, 42, 58
19, 737747, Note_on_c, 8, 42, 0
19, 737771, Note_on_c, 8, 42, 40
19, 737878, Note_on_c, 8, 42, 0
19, 737902, Note_on_c, 8, 42, 51
19, 737988, Note_on_c, 8, 42, 0
19, 738012, Note_on_c, 8, 42, 58
19, 738115, Note_on_c, 8, 42, 0
19, 738139, Note_on_c, 8, 42, 58
19, 738219, Note_on_c, 8, 42, 0
19, 738243, Note_on_c, 8, 42, 53
19, 738361, Note_on_c, 8, 42, 0
19, 738385, Note_on_c, 8, 42, 43
19, 738466, Note_on_c, 8, 42, 0
19, 738490, Note_on_c, 8, 42, 42
19, 738586, Note_on_c, 8, 42, 0
19, 738610, Note_on_c, 8, 42, 42
19, 738698, Note_on_c, 8, 42, 0
19, 738722, Note_on_c, 8, 42, 43
19, 738826, Note_on_c, 8, 42, 0
19, 738850, Note_on_c, 8, 42, 40
19, 738940, Note_on_c, 8, 42, 0
19, 738964, Note_on_c, 8, 42, 58
19, 739064, Note_on_c, 8, 42, 0
19, 739088, Note_on_c, 8, 42, 42
19, 739191, Note_on_c, 8, 42, 0
19, 739215, Note_on_c, 8, 42, 59
19, 739310, Note_on_c, 8, 42, 0
19, 739334, Note_on_c, 8, 42, 50
19, 739417, Note_on_c, 8, 42, 0
19, 739441, Note_on_c, 8, 42, 50
19, 739556, Note_on_c, 8, 42, 0
19, 739580, Note_on_c, 8, 42, 47
19, 739657, Note_on_c, 8, 42, 0
19, 739681, Note_on_c, 8, 42, 42
19, 739790, Note_on_c, 8, 42, 0
19, 739814, Note_on_c, 8, 42, 40
19, 739902, Note_on_c, 8, 42, 0
19, 739926, Note_on_c, 8, 42, 51
19, 740026, Note_on_c, 8, 42, 0
19, 740050, Note_on_c, 8, 42, 58
19, 740160, Note_on_c, 8, 42, 0
19, 740184, Note_on_c, 8, 42, 42
19, 740262, Note_on_c, 8, 42, 0
19, 740286, Note_on_c, 8, 42, 41
19, 740379, Note_on_c, 8, 42, 0
19, 740403, Note_on_c, 8, 42, 59
19, 740499, Note_on_c, 8, 42, 0
19, 740523, Note_on_c, 8, 42, 39
19, 740639, Note_on_c, 8, 42, 0
19, 740663, Note_on_c, 8, 42, 50
19, 740757, Note_on_c, 8, 42, 0
19, 740781, Note_on_c, 8, 42, 53
19, 740869, Note_on_c, 8, 42, 0
19, 740893, Note_on_c, 8, 42, 55
19, 740984, Note_on_c, 8, 42, 0
19, 741008, Note_on_c, 8, 42, 41
19, 741119, Note_on_c, 8, 42, 0
19, 741143, Note_on_c, 8, 42, 40
19, 741228, Note_on_c, 8, 42, 0
19, 741252, Note_on_c, 8, 42, 44
19, 741342, Note_on_c, 8, 42, 0
19, 741366, Note_on_c, 8, 42, 44
19, 741463, Note_on_c, 8, 42, 0
19, 741487, Note_on_c, 8, 42, 52
19, 741607, Note_on_c, 8, 42, 0
19, 741616, Note_on_c, 8, 48, 50
19, 741719, Note_on_c, 8, 48, 0
19, 741743, Note_on_c, 8, 48, 48
19, 741827, Note_on_c, 8, 48, 0
19, 741851, Note_on_c, 8, 48, 43
19, 741940, Note_on_c, 8, 48, 0
19, 741964, Note_on_c, 8, 48, 41
19, 742067, Note_on_c, 8, 48, 0
19, 742091, Note_on_c, 8, 48, 58
19, 742189, Note_on_c, 8, 48, 0
19, 742213, Note_on_c, 8, 48, 59
19, 742316, Note_on_c, 8, 48, 0
19, 742340, Note_on_c, 8, 48, 47
19, 742416, Note_on_c, 8, 48, 0
19, 742440, Note_on_c, 8, 48, 55
19, 742544, Note_on_c, 8, 48, 0
19, 742568, Note_on_c, 8, 48, 41
19, 742657, Note_on_c, 8, 48, 0
19, 742681, Note_on_c, 8, 48, 46
19, 742799, Note_on_c, 8, 48, 0
19, 742823, Note_on_c, 8, 48, 55
19, 742898, Note_on_c, 8, 48, 0
19, 742922, Note_on_c, 8, 48, 51
19, 743042, Note_on_c, 8, 48, 0
19, 743065, Note_on_c, 8, 42, 56
19, 743159, Note_on_c, 8, 42, 0
19, 743183, Note_on_c, 8, 42, 40
19, 743262, Note_on_c, 8, 42, 0
19, 743286, Note_on_c, 8, 42, 52
19, 743396, Note_on_c, 8, 42, 0
19, 743420, Note_on_c, 8, 42, 44
19, 743501, Note_on_c, 8, 42, 0
19, 743525, Note_on_c, 8, 42, 44
19, 743632, Note_on_c, 8, 42, 0
19, 743656, Note_on_c, 8, 42, 54
19, 743756, Note_on_c, 8, 42, 0
19, 743780, Note_on_c, 8, 42, 42
19, 743861, Note_on_c, 8, 42, 0
19, 743885, Note_on_c, 8, 42, 57
19, 743987, Note_on_c, 8, 42, 0
19, 744011, Note_on_c, 8, 42, 58
19, 744098, Note_on_c, 8, 42, 0
19, 744122, Note_on_c, 8, 42, 56
19, 744236, Note_on_c, 8, 42, 0
19, 744260, Note_on_c, 8, 42, 43
19, 744348, Note_on_c, 8, 42, 0
19, 744372, Note_on_c, 8, 42, 42
19, 744469, Note_on_c, 8, 42, 0
19, 744493, Note_on_c, 8, 42, 44
19, 744591, Note_on_c, 8, 42, 0
19, 744615, Note_on_c, 8, 42, 54
19, 744718, Note_on_c, 8, 42, 0
19, 744742, Note_on_c, 8, 42, 48
19, 744822, Note_on_c, 8, 42, 0
19, 744846, Note_on_c, 8, 42, 47
19, 744959, Note_on_c, 8, 42, 0
19, 744983, Note_on_c, 8, 42, 47
19, 745057, Note_on_c, 8, 42, 0
19, 745081, Note_on_c, 8, 42, 39
19, 745195, Note_on_c, 8, 42, 0
19, 745219, Note_on_c, 8, 42, 41
19, 745300, Note_on_c, 8, 42, 0
19, 745324, Note_on_c, 8, 42, 47
19, 745438, Note_on_c, 8, 42, 0
19, 745462, Note_on_c, 8, 42, 42
19, 745549, Note_on_c, 8, 42, 0
19, 745573, Note_on_c, 8, 42, 54
19, 745673, Note_on_c, 8, 42, 0
19, 745697, Note_on_c, 8, 42, 58
19, 745792, Note_on_c, 8, 42, 0
19, 745816, Note_on_c, 8, 42, 59
19, 745936, Note_on_c, 8, 42, 0
19, 745937, Note_on_c, 8, 48, 47
19, 746024, Note_on_c, 8, 48, 0
19, 746048, Note_on_c, 8, 48, 52
19, 746149, Note_on_c, 8, 48, 0
19, 746173, Note_on_c, 8, 48, 51
19, 746260, Note_on_c, 8, 48, 0
19, 746284, Note_on_c, 8, 48, 56
19, 746382, Note_on_c, 8, 48, 0
19, 746406, Note_on_c, 8, 48, 51
19, 746504, Note_on_c, 8, 48, 0
19, 746528, Note_on_c, 8, 48, 56
19, 746633, Note_on_c, 8, 48, 0
19, 746657, Note_on_c, 8, 48, 56
19, 746744, Note_on_c, 8, 48, 0
19, 746768, Note_on_c, 8, 48, 59
19, 746863, Note_on_c, 8, 48, 0
19, 746887, Note_on_c, 8, 48, 59
19, 746991, Note_on_c, 8, 48, 0
19, 747015, Note_on_c, 8, 48, 43
19, 747105, Note_on_c, 8, 48, 0
19, 747129, Note_on_c, 8, 48, 40
19, 747222, Note_on_c, 8, 48, 0
19, 747246, Note_on_c, 8, 48, 39
19, 747366, Note_on_c, 8, 48, 0
19, 747379, Note_on_c, 8, 42, 44
19, 747462, Note_on_c, 8, 42, 0
19, 747486, Note_on_c, 8, 42, 46
19, 747583, Note_on_c, 8, 42, 0
19, 747607, Note_on_c, 8, 42, 58
19, 747702, Note_on_c, 8, 42, 0
19, 747726, Note_on_c, 8, 42, 40
19, 747839, Note_on_c, 8, 42, 0
19, 747863, Note_on_c, 8, 42, 57
19, 747941, Note_on_c, 8, 42, 0
19, 747965, Note_on_c, 8, 42, 46
19, 748066, Note_on_c, 8, 42, 0
19, 748090, Note_on_c, 8, 42, 39
19, 748191, Note_on_c, 8, 42, 0
19, 748215, Note_on_c, 8, 42, 44
19, 748318, Note_on_c, 8, 42, 0
19, 748342, Note_on_c, 8, 42, 52
19, 748419, Note_on_c, 8, 42, 0
19, 748443, Note_on_c, 8, 42, 57
19, 748547, Note_on_c, 8, 42, 0
19, 748571, Note_on_c, 8, 42, 58
19, 748663, Note_on_c, 8, 42, 0
19, 748687, Note_on_c, 8, 42, 47
19, 748807, Note_on_c, 8, 42, 0
19, 748812, Note_on_c, 8, 48, 41
19, 748896, Note_on_c, 8, 48, 0
19, 748920, Note_on_c, 8, 48, 45
19, 749038, Note_on_c, 8, 48, 0
19, 749062, Note_on_c, 8, 48, 59
19, 749147, Note_on_c, 8, 48, 0
19, 749171, Note_on_c, 8, 48, 53
19, 749262, Note_on_c, 8, 48, 0
19, 749286, Note_on_c, 8, 48, 52
19, 749392, Note_on_c, 8, 48, 0
19, 749416, Note_on_c, 8, 48, 47
19, 749514, Note_on_c, 8, 48, 0
19, 749538, Note_on_c, 8, 48, 55
19, 749616, Note_on_c, 8, 48, 0
19, 749640, Note_on_c, 8, 48, 39
19, 749743, Note_on_c, 8, 48, 0
19, 749767, Note_on_c, 8, 48, 41
19, 749881, Note_on_c, 8, 48, 0
19, 749905, Note_on_c, 8, 48, 58
19, 749979, Note_on_c, 8, 48, 0
19, 750003, Note_on_c, 8, 48, 51
19, 750108, Note_on_c, 8, 48, 0
19, 750132, Note_on_c, 8, 48, 44
19, 750252, Note_on_c, 8, 48, 0
19, 750252, Note_on_c, 8, 42, 40
19, 750353, Note_on_c, 8, 42, 0
19, 750377, Note_on_c, 8, 42, 58
19, 750461, Note_on_c, 8, 42, 0
19, 750485, Note_on_c, 8, 42, 39
19, 750578, Note_on_c, 8, 42, 0
19, 750602, Note_on_c, 8, 42, 54
19, 750711, Note_on_c, 8, 42, 0
19, 750735, Note_on_c, 8, 42, 58
19, 750826, Note_on_c, 8, 42, 0
19, 750850, Note_on_c, 8, 42, 43
19, 750943, Note_on_c, 8, 42, 0
19, 750967, Note_on_c, 8, 42, 45
19, 751067, Note_on_c, 8, 42, 0
19, 751091, Note_on_c, 8, 42, 49
19, 751176, Note_on_c, 8, 42, 0
19, 751200, Note_on_c, 8, 42, 40
19, 751314, Note_on_c, 8, 42, 0
19, 751338, Note_on_c, 8, 42, 54
19, 751417, Note_on_c, 8, 42, 0
19, 751441, Note_on_c, 8, 42, 47
19, 751560, Note_on_c, 8, 42, 0
19, 751584, Note_on_c, 8, 42, 41
19, 751688, Note_on_c, 8, 48, 57
19, 751704, Note_on_c, 8, 42, 0
19, 751797, Note_on_c, 8, 48, 0
19, 751821, Note_on_c, 8, 48, 40
19, 751912, Note_on_c, 8, 48, 0
19, 751936, Note_on_c, 8, 48, 40
19, 752036, Note_on_c, 8, 48, 0
19, 752060, Note_on_c, 8, 48, 47
19, 752140, Note_on_c, 8, 48, 0
19, 752164, Note_on_c, 8, 48, 49
19, 752276, Note_on_c, 8, 48, 0
19, 752300, Note_on_c, 8, 48, 43
19, 752382, Note_on_c, 8, 48, 0
19, 752406, Note_on_c, 8, 48, 41
19, 752508, Note_on_c, 8, 48, 0
19, 752532, Note_on_c, 8, 48, 53
19, 752635, Note_on_c, 8, 48, 0
19, 752659, Note_on_c, 8, 48, 44
19, 752740, Note_on_c, 8, 48, 0
19, 752764, Note_on_c, 8, 48, 52
19, 752858, Note_on_c, 8, 48, 0
19, 752882, Note_on_c, 8, 48, 55
19, 752994, Note_on_c, 8, 48, 0
19, 753018, Note_on_c, 8, 48, 57
19, 753127, Note_on_c, 8, 42, 59
19, 753138, Note_on_c, 8, 48, 0
19, 753241, Note_on_c, 8, 42, 0
19, 753265, Note_on_c, 8, 42, 51
19, 753351, Note_on_c, 8, 42, 0
19, 753375, Note_on_c, 8, 42, 56
19, 753463, Note_on_c, 8, 42, 0
19, 753487, Note_on_c, 8, 42, 44
19, 753598, Note_on_c, 8, 42, 0
19, 753622, Note_on_c, 8, 42, 57
19, 753704, Note_on_c, 8, 42, 0
19, 753728, Note_on_c, 8, 42, 40
19, 753824, Note_on_c, 8, 42, 0
19, 753848, Note_on_c, 8, 42, 50
19, 753936, Note_on_c, 8, 42, 0
19, 753960, Note_on_c, 8, 42, 47
19, 754080, Note_on_c, 8, 42, 0
19, 754105, Note_on_c, 8, 42, 39
19, 754185, Note_on_c, 8, 42, 0
19, 754209, Note_on_c, 8, 42, 53
19, 754320, Note_on_c, 8, 42, 0
19, 754344, Note_on_c, 8, 42, 40
19, 754427, Note_on_c, 8, 42, 0
19, 754451, Note_on_c, 8, 42, 53
19, 754537, Note_on_c, 8, 42, 0
19, 754561, Note_on_c, 8, 42, 42
19, 754666, Note_on_c, 8, 42, 0
19, 754690, Note_on_c, 8, 42, 57
19, 754782, Note_on_c, 8, 42, 0
19, 754806, Note_on_c, 8, 42, 46
19, 754902, Note_on_c, 8, 42, 0
19, 754926, Note_on_c, 8, 42, 45
19, 755035, Note_on_c, 8, 42, 0
19, 755059, Note_on_c, 8, 42, 50
19, 755141, Note_on_c, 8, 42, 0
19, 755165, Note_on_c, 8, 42, 49
19, 755281, Note_on_c, 8, 42, 0
19, 755305, Note_on_c, 8, 42, 45
19, 755394, Note_on_c, 8, 42, 0
19, 755418, Note_on_c, 8, 42, 47
19, 755511, Note_on_c, 8, 42, 0
19, 755535, Note_on_c, 8, 42, 51
19, 755625, Note_on_c, 8, 42, 0
19, 755649, Note_on_c, 8, 42, 46
19, 755742, Note_on_c, 8, 42, 0
19, 755766, Note_on_c, 8, 42, 51
19, 755880, Note_on_c, 8, 42, 0
19, 755904, Note_on_c, 8, 42, 46
19, 756004, Note_on_c, 8, 48, 43
19, 756024, Note_on_c, 8, 42, 0
19, 756116, Note_on_c, 8, 48, 0
19, 756140, Note_on_c, 8, 48, 55
19, 756216, Note_on_c, 8, 48, 0
19, 756240, Note_on_c, 8, 48, 48
19, 756359, Note_on_c, 8, 48, 0
19, 756383, Note_on_c, 8, 48, 50
19, 756476, Note_on_c, 8, 48, 0
19, 756500, Note_on_c, 8, 48, 41
19, 756595, Note_on_c, 8, 48, 0
19, 756619, Note_on_c, 8, 48, 47
19, 756702, Note_on_c, 8, 48, 0
19, 756726, Note_on_c, 8, 48, 44
19, 756818, Note_on_c, 8, 48, 0
19, 756842, Note_on_c, 8, 48, 50
19, 756959, Note_on_c, 8, 48, 0
19, 756983, Note_on_c, 8, 48, 59
19, 757056, Note_on_c, 8, 48, 0
19, 757080, Note_on_c, 8, 48, 43
19, 757179, Note_on_c, 8, 48, 0
19, 757203, Note_on_c, 8, 48, 59
19, 757306, Note_on_c, 8, 48, 0
19, 757330, Note_on_c, 8, 48, 51
19, 757450, Note_on_c, 8, 48, 0
19, 757459, Note_on_c, 8, 42, 39
19, 757548, Note_on_c, 8, 42, 0
19, 757572, Note_on_c, 8, 42, 41
19, 757656, Note_on_c, 8, 42, 0
19, 757680, Note_on_c, 8, 42, 54
19, 757785, Note_on_c, 8, 42, 0
19, 757809, Note_on_c, 8, 42, 53
19, 757900, Note_on_c, 8, 42, 0
19, 757924, Note_on_c, 8, 42, 43
19, 758030, Note_on_c, 8, 42, 0
19, 758054, Note_on_c, 8, 42, 49
19, 758157, Note_on_c, 8, 42, 0
19, 758181, Note_on_c, 8, 42, 58
19, 758267, Note_on_c, 8, 42, 0
19, 758291, Note_on_c, 8, 42, 55
19, 758391, Note_on_c, 8, 42, 0
19, 758415, Note_on_c, 8, 42, 53
19, 758518, Note_on_c, 8, 42, 0
19, 758542, Note_on_c, 8, 42, 55
19, 758628, Note_on_c, 8, 42, 0
19, 758652, Note_on_c, 8, 42, 56
19, 758736, Note_on_c, 8, 42, 0
19, 758760, Note_on_c, 8, 42, 44
19, 758856, Note_on_c, 8, 42, 0
19, 758880, Note_on_c, 8, 42, 59
19, 758989, Note_on_c, 8, 42, 0
19, 759013, Note_on_c, 8, 42, 52
19, 759113, Note_on_c, 8, 42, 0
19, 759137, Note_on_c, 8, 42, 39
19, 759217, Note_on_c, 8, 42, 0
19, 759241, Note_on_c, 8, 42, 40
19, 759350, Note_on_c, 8, 42, 0
19, 759374, Note_on_c, 8, 42, 59
19, 759472, Note_on_c, 8, 42, 0
19, 759496, Note_on_c, 8, 42, 42
19, 759581, Note_on_c, 8, 42, 0
19, 759605, Note_on_c, 8, 42, 55
19, 759708, Note_on_c, 8, 42, 0
19, 759732, Note_on_c, 8, 42, 59
19, 759840, Note_on_c, 8, 42, 0
19, 759864, Note_on_c, 8, 42, 51
19, 759937, Note_on_c, 8, 42, 0
19, 759961, Note_on_c, 8, 42, 52
19, 760060, Note_on_c, 8, 42, 0
19, 760084, Note_on_c, 8, 42, 55
19, 760194, Note_on_c, 8, 42, 0
19, 760218, Note_on_c, 8, 42, 55
19, 760333, Note_on_c, 8, 48, 43
19, 760338, Note_on_c, 8, 42, 0
19, 760420, Note_on_c, 8, 48, 0
19, 760444, Note_on_c, 8, 48, 45
19, 760539, Note_on_c, 8, 48, 0
19, 760563, Note_on_c, 8, 48, 45
19, 760660, Note_on_c, 8, 48, 0
19, 760684, Note_on_c, 8, 48, 40
19, 760786, Note_on_c, 8, 48, 0
19, 760810, Note_on_c, 8, 48, 54
19, 760896, Note_on_c, 8, 48, 0
19, 760920, Note_on_c, 8, 48, 46
19, 761035, Note_on_c, 8, 48, 0
19, 761059, Note_on_c, 8, 48, 58
19, 761143, Note_on_c, 8, 48, 0
19, 761167, Note_on_c, 8, 48, 54
19, 761261, Note_on_c, 8, 48, 0
19, 761285, Note_on_c, 8, 48, 58
19, 761397, Note_on_c, 8, 48, 0
19, 761421, Note_on_c, 8, 48, 50
19, 761502, Note_on_c, 8, 48, 0
19, 761526, Note_on_c, 8, 48, 57
19, 761634, Note_on_c, 8, 48, 0
19, 761658, Note_on_c, 8, 48, 51
19, 761778, Note_on_c, 8, 48, 0
19, 761781, Note_on_c, 8, 42, 40
19, 761856, Note_on_c, 8, 42, 0
19, 761880, Note_on_c, 8, 42, 53
19, 761993, Note_on_c, 8, 42, 0
19, 762017, Note_on_c, 8, 42, 54
19, 762101, Note_on_c, 8, 42, 0
19, 762125, Note_on_c, 8, 42, 58
19, 762219, Note_on_c, 8, 42, 0
19, 762243, Note_on_c, 8, 42, 48
19, 762346, Note_on_c, 8, 42, 0
19, 762370, Note_on_c, 8, 42, 40
19, 762467, Note_on_c, 8, 42, 0
19, 762491, Note_on_c, 8, 42, 46
19, 762593, Note_on_c, 8, 42, 0
19, 762617, Note_on_c, 8, 42, 46
19, 762705, Note_on_c, 8, 42, 0
19, 762729, Note_on_c, 8, 42, 58
19, 762826, Note_on_c, 8, 42, 0
19, 762850, Note_on_c, 8, 42, 41
19, 762945, Note_on_c, 8, 42, 0
19, 762969, Note_on_c, 8, 42, 42
19, 763067, Note_on_c, 8, 42, 0
19, 763091, Note_on_c, 8, 42, 39
19, 763211, Note_on_c, 8, 42, 0
19, 763224, Note_on_c, 8, 48, 47
19, 763314, Note_on_c, 8, 48, 0
19, 763338, Note_on_c, 8, 48, 56
19, 763432, Note_on_c, 8, 48, 0
19, 763456, Note_on_c, 8, 48, 39
19, 763542, Note_on_c, 8, 48, 0
19, 763566, Note_on_c, 8, 48, 41
19, 763681, Note_on_c, 8, 48, 0
19, 763705, Note_on_c, 8, 48, 49
19, 763784, Note_on_c, 8, 48, 0
19, 763808, Note_on_c, 8, 48, 47
19, 763915, Note_on_c, 8, 48, 0
19, 763939, Note_on_c, 8, 48, 54
19, 764041, Note_on_c, 8, 48, 0
19, 764065, Note_on_c, 8, 48, 40
19, 764154, Note_on_c, 8, 48, 0
19, 764178, Note_on_c, 8, 48, 55
19, 764262, Note_on_c, 8, 48, 0
19, 764286, Note_on_c, 8, 48, 42
19, 764395, Note_on_c, 8, 48, 0
19, 764419, Note_on_c, 8, 48, 42
19, 764501, Note_on_c, 8, 48, 0
19, 764525, Note_on_c, 8, 48, 42
19, 764645, Note_on_c, 8, 48, 0
19, 764653, Note_on_c, 8, 42, 70
19, 764776, Note_on_c, 8, 42, 0
19, 764800, Note_on_c, 8, 42, 77
19, 764948, Note_on_c, 8, 42, 0
19, 764972, Note_on_c, 8, 42, 75
19, 765097, Note_on_c, 8, 42, 0
19, 765121, Note_on_c, 8, 42, 83
19, 765265, Note_on_c, 8, 42, 0
19, 765289, Note_on_c, 8, 42, 86
19, 765418, Note_on_c, 8, 42, 0
19, 765442, Note_on_c, 8, 42, 86
19, 765579, Note_on_c, 8, 42, 0
19, 765603, Note_on_c, 8, 42, 92
19, 765752, Note_on_c, 8, 42, 0
19, 765776, Note_on_c, 8, 42, 89
19, 765900, Note_on_c, 8, 42, 0
19, 765924, Note_on_c, 8, 42, 89
19, 766067, Note_on_c, 8, 42, 0
19, 766091, Note_on_c, 8, 42, 101
19, 766235, Note_on_c, 8, 42, 0
19, 766259, Note_on_c, 8, 42, 88
19, 766400, Note_on_c, 8, 42, 0
19, 766424, Note_on_c, 8, 42, 90
19, 766546, Note_on_c, 8, 42, 0
19, 766570, Note_on_c, 8, 42, 98
19, 766718, Note_on_c, 8, 42, 0
19, 766742, Note_on_c, 8, 42, 100
19, 766875, Note_on_c, 8, 42, 0
19, 766899, Note_on_c, 8, 42, 92
19, 767033, Note_on_c, 8, 42, 0
19, 767057, Note_on_c, 8, 42, 98
19, 767194, Note_on_c, 8, 42, 0
19, 767218, Note_on_c, 8, 42, 103
19, 767343, Note_on_c, 8, 42, 0
19, 767367, Note_on_c, 8, 42, 102
19, 767496, Note_on_c, 8, 42, 0
19, 767520, Note_on_c, 8, 42, 84
19, 767748, Note_on_c, 8, 42, 0
19, 767772, Note_on_c, 8, 42, 76
19, 767987, Note_on_c, 8, 42, 0
19, 768011, Note_on_c, 8, 42, 79
19, 768238, Note_on_c, 8, 42, 0
19, 768262, Note_on_c, 8, 42, 93
19, 768476, Note_on_c, 8, 42, 0
19, 768500, Note_on_c, 8, 42, 77
19, 768714, Note_on_c, 8, 42, 0
19, 768738, Note_on_c, 8, 42, 88
19, 768965, Note_on_c, 8, 48, 95
19, 768978, Note_on_c, 8, 42, 0
19, 769179, Note_on_c, 8, 48, 0
19, 769203, Note_on_c, 8, 48, 92
19, 769426, Note_on_c, 8, 48, 0
19, 769450, Note_on_c, 8, 48, 89
19, 769678, Note_on_c, 8, 48, 0
19, 769702, Note_on_c, 8, 48, 99
19, 769900, Note_on_c, 8, 48, 0
19, 769924, Note_on_c, 8, 48, 93
19, 770159, Note_on_c, 8, 48, 0
19, 770183, Note_on_c, 8, 48, 114
19, 770409, Note_on_c, 8, 42, 102
19, 770423, Note_on_c, 8, 48, 0
19, 770637, Note_on_c, 8, 42, 0
19, 770661, Note_on_c, 8, 42, 106
19, 770866, Note_on_c, 8, 42, 0
19, 770890, Note_on_c, 8, 42, 118
19, 771121, Note_on_c, 8, 42, 0
19, 771145, Note_on_c, 8, 42, 105
19, 771337, Note_on_c, 8, 42, 0
19, 771361, Note_on_c, 8, 42, 109
19, 771593, Note_on_c, 8, 42, 0
19, 771617, Note_on_c, 8, 42, 119
19, 771852, Note_on_c, 8, 48, 125
19, 771857, Note_on_c, 8, 42, 0
19, 772062, Note_on_c, 8, 48, 0
19, 772086, Note_on_c, 8, 48, 115
19, 772298, Note_on_c, 8, 48, 0
19, 772322, Note_on_c, 8, 48, 123
19, 772550, Note_on_c, 8, 48, 0
19, 772574, Note_on_c, 8, 48, 120
19, 772797, Note_on_c, 8, 48, 0
19, 772821, Note_on_c, 8, 48, 127
19, 773061, Note_on_c, 8, 48, 0
19, 773061, End_track
20, 0, Start_track
20, 0, Title_t, "Grancassa"
20, 0, MIDI_port, 0
20, 151692, Note_on_c, 8, 35, 110
20, 151692, Note_on_c, 8, 34, 110
20, 152172, Note_on_c, 8, 35, 0
20, 152172, Note_on_c, 8, 34, 0
20, 252611, Note_on_c, 8, 34, 93
20, 252611, Note_on_c, 8, 35, 93
20, 252971, Note_on_c, 8, 34, 0
20, 252971, Note_on_c, 8, 35, 0
20, 254054, Note_on_c, 8, 35, 97
20, 254054, Note_on_c, 8, 34, 97
20, 254414, Note_on_c, 8, 35, 0
20, 254414, Note_on_c, 8, 34, 0
20, 254764, Note_on_c, 8, 34, 98
20, 254764, Note_on_c, 8, 35, 98
20, 255124, Note_on_c, 8, 34, 0
20, 255124, Note_on_c, 8, 35, 0
20, 328321, Note_on_c, 8, 35, 110
20, 328321, Note_on_c, 8, 34, 110
20, 328801, Note_on_c, 8, 35, 0
20, 328801, Note_on_c, 8, 34, 0
20, 351861, Note_on_c, 8, 34, 95
20, 351861, Note_on_c, 8, 35, 95
20, 352341, Note_on_c, 8, 34, 0
20, 352341, Note_on_c, 8, 35, 0
20, 378742, Note_on_c, 8, 35, 65
20, 378742, Note_on_c, 8, 34, 65
20, 379222, Note_on_c, 8, 35, 0
20, 379222, Note_on_c, 8, 34, 0
20, 380654, Note_on_c, 8, 34, 74
20, 380654, Note_on_c, 8, 35, 74
20, 381134, Note_on_c, 8, 34, 0
20, 381134, Note_on_c, 8, 35, 0
20, 382585, Note_on_c, 8, 35, 83
20, 382585, Note_on_c, 8, 34, 83
20, 383065, Note_on_c, 8, 35, 0
20, 383065, Note_on_c, 8, 34, 0
20, 384493, Note_on_c, 8, 34, 75
20, 384493, Note_on_c, 8, 35, 75
20, 384973, Note_on_c, 8, 34, 0
20, 384973, Note_on_c, 8, 35, 0
20, 386410, Note_on_c, 8, 35, 73
20, 386410, Note_on_c, 8, 34, 73
20, 386890, Note_on_c, 8, 35, 0
20, 386890, Note_on_c, 8, 34, 0
20, 388340, Note_on_c, 8, 35, 84
20, 388340, Note_on_c, 8, 34, 84
20, 388820, Note_on_c, 8, 35, 0
20, 388820, Note_on_c, 8, 34, 0
20, 390258, Note_on_c, 8, 34, 65
20, 390258, Note_on_c, 8, 35, 65
20, 390738, Note_on_c, 8, 34, 0
20, 390738, Note_on_c, 8, 35, 0
20, 393605, Note_on_c, 8, 35, 79
20, 393605, Note_on_c, 8, 34, 79
20, 394085, Note_on_c, 8, 35, 0
20, 394085, Note_on_c, 8, 34, 0
20, 395534, Note_on_c, 8, 34, 83
20, 395534, Note_on_c, 8, 35, 83
20, 396014, Note_on_c, 8, 34, 0
20, 396014, Note_on_c, 8, 35, 0
20, 397446, Note_on_c, 8, 35, 83
20, 397446, Note_on_c, 8, 34, 83
20, 397926, Note_on_c, 8, 35, 0
20, 397926, Note_on_c, 8, 34, 0
20, 399368, Note_on_c, 8, 34, 84
20, 399368, Note_on_c, 8, 35, 84
20, 399848, Note_on_c, 8, 34, 0
20, 399848, Note_on_c, 8, 35, 0
20, 401287, Note_on_c, 8, 35, 72
20, 401287, Note_on_c, 8, 34, 72
20, 401767, Note_on_c, 8, 35, 0
20, 401767, Note_on_c, 8, 34, 0
20, 403215, Note_on_c, 8, 34, 80
20, 403215, Note_on_c, 8, 35, 80
20, 403695, Note_on_c, 8, 34, 0
20, 403695, Note_on_c, 8, 35, 0
20, 405141, Note_on_c, 8, 35, 70
20, 405141, Note_on_c, 8, 34, 70
20, 405621, Note_on_c, 8, 35, 0
20, 405621, Note_on_c, 8, 34, 0
20, 407056, Note_on_c, 8, 35, 67
20, 407056, Note_on_c, 8, 34, 67
20, 407536, Note_on_c, 8, 35, 0
20, 407536, Note_on_c, 8, 34, 0
20, 408974, Note_on_c, 8, 34, 73
20, 408974, Note_on_c, 8, 35, 73
20, 409454, Note_on_c, 8, 34, 0
20, 409454, Note_on_c, 8, 35, 0
20, 410888, Note_on_c, 8, 35, 71
20, 410888, Note_on_c, 8, 34, 71
20, 411368, Note_on_c, 8, 35, 0
20, 411368, Note_on_c, 8, 34, 0
20, 412810, Note_on_c, 8, 34, 73
20, 412810, Note_on_c, 8, 35, 73
20, 413290, Note_on_c, 8, 34, 0
20, 413290, Note_on_c, 8, 35, 0
20, 415700, Note_on_c, 8, 35, 72
20, 415700, Note_on_c, 8, 34, 72
20, 416180, Note_on_c, 8, 35, 0
20, 416180, Note_on_c, 8, 34, 0
20, 417617, Note_on_c, 8, 34, 67
20, 417617, Note_on_c, 8, 35, 67
20, 418097, Note_on_c, 8, 34, 0
20, 418097, Note_on_c, 8, 35, 0
20, 419527, Note_on_c, 8, 35, 67
20, 419527, Note_on_c, 8, 34, 67
20, 420007, Note_on_c, 8, 35, 0
20, 420007, Note_on_c, 8, 34, 0
20, 421459, Note_on_c, 8, 34, 77
20, 421459, Note_on_c, 8, 35, 77
20, 421939, Note_on_c, 8, 34, 0
20, 421939, Note_on_c, 8, 35, 0
20, 423375, Note_on_c, 8, 35, 71
20, 423375, Note_on_c, 8, 34, 71
20, 423855, Note_on_c, 8, 35, 0
20, 423855, Note_on_c, 8, 34, 0
20, 426731, Note_on_c, 8, 35, 84
20, 426731, Note_on_c, 8, 34, 84
20, 427211, Note_on_c, 8, 35, 0
20, 427211, Note_on_c, 8, 34, 0
20, 428656, Note_on_c, 8, 34, 84
20, 428656, Note_on_c, 8, 35, 84
20, 429136, Note_on_c, 8, 34, 0
20, 429136, Note_on_c, 8, 35, 0
20, 430583, Note_on_c, 8, 35, 80
20, 430583, Note_on_c, 8, 34, 80
20, 431063, Note_on_c, 8, 35, 0
20, 431063, Note_on_c, 8, 34, 0
20, 434901, Note_on_c, 8, 34, 89
20, 434901, Note_on_c, 8, 35, 89
20, 435381, Note_on_c, 8, 34, 0
20, 435381, Note_on_c, 8, 35, 0
20, 438248, Note_on_c, 8, 35, 95
20, 438248, Note_on_c, 8, 34, 95
20, 438728, Note_on_c, 8, 35, 0
20, 438728, Note_on_c, 8, 34, 0
20, 440180, Note_on_c, 8, 34, 88
20, 440180, Note_on_c, 8, 35, 88
20, 440660, Note_on_c, 8, 34, 0
20, 440660, Note_on_c, 8, 35, 0
20, 443528, Note_on_c, 8, 35, 78
20, 443528, Note_on_c, 8, 34, 78
20, 444008, Note_on_c, 8, 35, 0
20, 444008, Note_on_c, 8, 34, 0
20, 457941, Note_on_c, 8, 34, 81
20, 457941, Note_on_c, 8, 35, 81
20, 458421, Note_on_c, 8, 34, 0
20, 458421, Note_on_c, 8, 35, 0
20, 458883, Note_on_c, 8, 35, 91
20, 458883, Note_on_c, 8, 34, 91
20, 459363, Note_on_c, 8, 35, 0
20, 459363, Note_on_c, 8, 34, 0
20, 459848, Note_on_c, 8, 34, 80
20, 459848, Note_on_c, 8, 35, 80
20, 460328, Note_on_c, 8, 34, 0
20, 460328, Note_on_c, 8, 35, 0
20, 460803, Note_on_c, 8, 35, 88
20, 460803, Note_on_c, 8, 34, 88
20, 461283, Note_on_c, 8, 35, 0
20, 461283, Note_on_c, 8, 34, 0
20, 608179, Note_on_c, 8, 34, 91
20, 608179, Note_on_c, 8, 35, 91
20, 608659, Note_on_c, 8, 34, 0
20, 608659, Note_on_c, 8, 35, 0
20, 609618, Note_on_c, 8, 35, 86
20, 609618, Note_on_c, 8, 34, 86
20, 610098, Note_on_c, 8, 35, 0
20, 610098, Note_on_c, 8, 34, 0
20, 611064, Note_on_c, 8, 34, 87
20, 611064, Note_on_c, 8, 35, 87
20, 611544, Note_on_c, 8, 34, 0
20, 611544, Note_on_c, 8, 35, 0
20, 612500, Note_on_c, 8, 35, 92
20, 612500, Note_on_c, 8, 34, 92
20, 612980, Note_on_c, 8, 35, 0
20, 612980, Note_on_c, 8, 34, 0
20, 613925, Note_on_c, 8, 34, 82
20, 613925, Note_on_c, 8, 35, 82
20, 614405, Note_on_c, 8, 34, 0
20, 614405, Note_on_c, 8, 35, 0
20, 615365, Note_on_c, 8, 35, 86
20, 615365, Note_on_c, 8, 34, 86
20, 615845, Note_on_c, 8, 35, 0
20, 615845, Note_on_c, 8, 34, 0
20, 616807, Note_on_c, 8, 34, 86
20, 616807, Note_on_c, 8, 35, 86
20, 617287, Note_on_c, 8, 34, 0
20, 617287, Note_on_c, 8, 35, 0
20, 618244, Note_on_c, 8, 35, 82
20, 618244, Note_on_c, 8, 34, 82
20, 618724, Note_on_c, 8, 35, 0
20, 618724, Note_on_c, 8, 34, 0
20, 619685, Note_on_c, 8, 35, 97
20, 619685, Note_on_c, 8, 34, 97
20, 620165, Note_on_c, 8, 35, 0
20, 620165, Note_on_c, 8, 34, 0
20, 621127, Note_on_c, 8, 34, 91
20, 621127, Note_on_c, 8, 35, 91
20, 621607, Note_on_c, 8, 34, 0
20, 621607, Note_on_c, 8, 35, 0
20, 622570, Note_on_c, 8, 35, 91
20, 622570, Note_on_c, 8, 34, 91
20, 623050, Note_on_c, 8, 35, 0
20, 623050, Note_on_c, 8, 34, 0
20, 624008, Note_on_c, 8, 34, 81
20, 624008, Note_on_c, 8, 35, 81
20, 624488, Note_on_c, 8, 34, 0
20, 624488, Note_on_c, 8, 35, 0
20, 625441, Note_on_c, 8, 35, 78
20, 625441, Note_on_c, 8, 34, 78
20, 625921, Note_on_c, 8, 35, 0
20, 625921, Note_on_c, 8, 34, 0
20, 626904, Note_on_c, 8, 34, 79
20, 626904, Note_on_c, 8, 35, 79
20, 627384, Note_on_c, 8, 34, 0
20, 627384, Note_on_c, 8, 35, 0
20, 627860, Note_on_c, 8, 35, 98
20, 627860, Note_on_c, 8, 34, 98
20, 628340, Note_on_c, 8, 35, 0
20, 628340, Note_on_c, 8, 34, 0
20, 630249, Note_on_c, 8, 34, 96
20, 630249, Note_on_c, 8, 35, 96
20, 630729, Note_on_c, 8, 34, 0
20, 630729, Note_on_c, 8, 35, 0
20, 631218, Note_on_c, 8, 35, 92
20, 631218, Note_on_c, 8, 34, 92
20, 631698, Note_on_c, 8, 35, 0
20, 631698, Note_on_c, 8, 34, 0
20, 632658, Note_on_c, 8, 35, 92
20, 632658, Note_on_c, 8, 34, 92
20, 633138, Note_on_c, 8, 35, 0
20, 633138, Note_on_c, 8, 34, 0
20, 634101, Note_on_c, 8, 34, 91
20, 634101, Note_on_c, 8, 35, 91
20, 634581, Note_on_c, 8, 34, 0
20, 634581, Note_on_c, 8, 35, 0
20, 635539, Note_on_c, 8, 35, 78
20, 635539, Note_on_c, 8, 34, 78
20, 636019, Note_on_c, 8, 35, 0
20, 636019, Note_on_c, 8, 34, 0
20, 636974, Note_on_c, 8, 34, 92
20, 636974, Note_on_c, 8, 35, 92
20, 637454, Note_on_c, 8, 34, 0
20, 637454, Note_on_c, 8, 35, 0
20, 638421, Note_on_c, 8, 35, 86
20, 638421, Note_on_c, 8, 34, 86
20, 638901, Note_on_c, 8, 35, 0
20, 638901, Note_on_c, 8, 34, 0
20, 639850, Note_on_c, 8, 34, 88
20, 639850, Note_on_c, 8, 35, 88
20, 640330, Note_on_c, 8, 34, 0
20, 640330, Note_on_c, 8, 35, 0
20, 641280, Note_on_c, 8, 35, 79
20, 641280, Note_on_c, 8, 34, 79
20, 641760, Note_on_c, 8, 35, 0
20, 641760, Note_on_c, 8, 34, 0
20, 642722, Note_on_c, 8, 34, 82
20, 642722, Note_on_c, 8, 35, 82
20, 643202, Note_on_c, 8, 34, 0
20, 643202, Note_on_c, 8, 35, 0
20, 644169, Note_on_c, 8, 35, 89
20, 644169, Note_on_c, 8, 34, 89
20, 644649, Note_on_c, 8, 35, 0
20, 644649, Note_on_c, 8, 34, 0
20, 645611, Note_on_c, 8, 35, 82
20, 645611, Note_on_c, 8, 34, 82
20, 646091, Note_on_c, 8, 35, 0
20, 646091, Note_on_c, 8, 34, 0
20, 647050, Note_on_c, 8, 34, 90
20, 647050, Note_on_c, 8, 35, 90
20, 647530, Note_on_c, 8, 34, 0
20, 647530, Note_on_c, 8, 35, 0
20, 648503, Note_on_c, 8, 35, 78
20, 648503, Note_on_c, 8, 34, 78
20, 648983, Note_on_c, 8, 35, 0
20, 648983, Note_on_c, 8, 34, 0
20, 649935, Note_on_c, 8, 34, 89
20, 649935, Note_on_c, 8, 35, 89
20, 650415, Note_on_c, 8, 34, 0
20, 650415, Note_on_c, 8, 35, 0
20, 651374, Note_on_c, 8, 35, 80
20, 651374, Note_on_c, 8, 34, 80
20, 651854, Note_on_c, 8, 35, 0
20, 651854, Note_on_c, 8, 34, 0
20, 652800, Note_on_c, 8, 34, 93
20, 652800, Note_on_c, 8, 35, 93
20, 653280, Note_on_c, 8, 34, 0
20, 653280, Note_on_c, 8, 35, 0
20, 654246, Note_on_c, 8, 35, 95
20, 654246, Note_on_c, 8, 34, 95
20, 654966, Note_on_c, 8, 35, 0
20, 654966, Note_on_c, 8, 34, 0
20, 655700, Note_on_c, 8, 34, 94
20, 655700, Note_on_c, 8, 35, 94
20, 656420, Note_on_c, 8, 34, 0
20, 656420, Note_on_c, 8, 35, 0
20, 657141, Note_on_c, 8, 35, 92
20, 657141, Note_on_c, 8, 34, 92
20, 657861, Note_on_c, 8, 35, 0
20, 657861, Note_on_c, 8, 34, 0
20, 658579, Note_on_c, 8, 34, 87
20, 658579, Note_on_c, 8, 35, 87
20, 659299, Note_on_c, 8, 34, 0
20, 659299, Note_on_c, 8, 35, 0
20, 660009, Note_on_c, 8, 34, 95
20, 660009, Note_on_c, 8, 35, 95
20, 660729, Note_on_c, 8, 34, 0
20, 660729, Note_on_c, 8, 35, 0
20, 661452, Note_on_c, 8, 35, 79
20, 661452, Note_on_c, 8, 34, 79
20, 662172, Note_on_c, 8, 35, 0
20, 662172, Note_on_c, 8, 34, 0
20, 662897, Note_on_c, 8, 34, 91
20, 662897, Note_on_c, 8, 35, 91
20, 663617, Note_on_c, 8, 34, 0
20, 663617, Note_on_c, 8, 35, 0
20, 664338, Note_on_c, 8, 35, 90
20, 664338, Note_on_c, 8, 34, 90
20, 665058, Note_on_c, 8, 35, 0
20, 665058, Note_on_c, 8, 34, 0
20, 665764, Note_on_c, 8, 34, 84
20, 665764, Note_on_c, 8, 35, 84
20, 666484, Note_on_c, 8, 34, 0
20, 666484, Note_on_c, 8, 35, 0
20, 667212, Note_on_c, 8, 35, 79
20, 667212, Note_on_c, 8, 34, 79
20, 667932, Note_on_c, 8, 35, 0
20, 667932, Note_on_c, 8, 34, 0
20, 668664, Note_on_c, 8, 34, 91
20, 668664, Note_on_c, 8, 35, 91
20, 669384, Note_on_c, 8, 34, 0
20, 669384, Note_on_c, 8, 35, 0
20, 670093, Note_on_c, 8, 35, 83
20, 670093, Note_on_c, 8, 34, 83
20, 670813, Note_on_c, 8, 35, 0
20, 670813, Note_on_c, 8, 34, 0
20, 671528, Note_on_c, 8, 34, 88
20, 671528, Note_on_c, 8, 35, 88
20, 672248, Note_on_c, 8, 34, 0
20, 672248, Note_on_c, 8, 35, 0
20, 672971, Note_on_c, 8, 35, 90
20, 672971, Note_on_c, 8, 34, 90
20, 673691, Note_on_c, 8, 35, 0
20, 673691, Note_on_c, 8, 34, 0
20, 674403, Note_on_c, 8, 35, 91
20, 674403, Note_on_c, 8, 34, 91
20, 675123, Note_on_c, 8, 35, 0
20, 675123, Note_on_c, 8, 34, 0
20, 675844, Note_on_c, 8, 34, 89
20, 675844, Note_on_c, 8, 35, 89
20, 676564, Note_on_c, 8, 34, 0
20, 676564, Note_on_c, 8, 35, 0
20, 687380, Note_on_c, 8, 35, 63
20, 687380, Note_on_c, 8, 34, 63
20, 687499, Note_on_c, 8, 35, 0
20, 687499, Note_on_c, 8, 34, 0
20, 687523, Note_on_c, 8, 34, 68
20, 687523, Note_on_c, 8, 35, 68
20, 687668, Note_on_c, 8, 34, 0
20, 687668, Note_on_c, 8, 35, 0
20, 687692, Note_on_c, 8, 35, 58
20, 687692, Note_on_c, 8, 34, 58
20, 687826, Note_on_c, 8, 35, 0
20, 687826, Note_on_c, 8, 34, 0
20, 687850, Note_on_c, 8, 34, 61
20, 687850, Note_on_c, 8, 35, 61
20, 687988, Note_on_c, 8, 34, 0
20, 687988, Note_on_c, 8, 35, 0
20, 688012, Note_on_c, 8, 35, 76
20, 688012, Note_on_c, 8, 34, 76
20, 688157, Note_on_c, 8, 35, 0
20, 688157, Note_on_c, 8, 34, 0
20, 688181, Note_on_c, 8, 34, 68
20, 688181, Note_on_c, 8, 35, 68
20, 688318, Note_on_c, 8, 34, 0
20, 688318, Note_on_c, 8, 35, 0
20, 688342, Note_on_c, 8, 35, 86
20, 688342, Note_on_c, 8, 34, 86
20, 688479, Note_on_c, 8, 35, 0
20, 688479, Note_on_c, 8, 34, 0
20, 688503, Note_on_c, 8, 35, 94
20, 688503, Note_on_c, 8, 34, 94
20, 688624, Note_on_c, 8, 35, 0
20, 688624, Note_on_c, 8, 34, 0
20, 688648, Note_on_c, 8, 34, 90
20, 688648, Note_on_c, 8, 35, 90
20, 688788, Note_on_c, 8, 34, 0
20, 688788, Note_on_c, 8, 35, 0
20, 688812, Note_on_c, 8, 35, 99
20, 688812, Note_on_c, 8, 34, 99
20, 688941, Note_on_c, 8, 35, 0
20, 688941, Note_on_c, 8, 34, 0
20, 688965, Note_on_c, 8, 34, 100
20, 688965, Note_on_c, 8, 35, 100
20, 689118, Note_on_c, 8, 34, 0
20, 689118, Note_on_c, 8, 35, 0
20, 689142, Note_on_c, 8, 35, 97
20, 689142, Note_on_c, 8, 34, 97
20, 689277, Note_on_c, 8, 35, 0
20, 689277, Note_on_c, 8, 34, 0
20, 689301, Note_on_c, 8, 34, 92
20, 689301, Note_on_c, 8, 35, 92
20, 689388, Note_on_c, 8, 34, 0
20, 689388, Note_on_c, 8, 35, 0
20, 689412, Note_on_c, 8, 35, 97
20, 689412, Note_on_c, 8, 34, 97
20, 689512, Note_on_c, 8, 35, 0
20, 689512, Note_on_c, 8, 34, 0
20, 689536, Note_on_c, 8, 34, 112
20, 689536, Note_on_c, 8, 35, 112
20, 689640, Note_on_c, 8, 34, 0
20, 689640, Note_on_c, 8, 35, 0
20, 689664, Note_on_c, 8, 35, 106
20, 689664, Note_on_c, 8, 34, 106
20, 689760, Note_on_c, 8, 35, 0
20, 689760, Note_on_c, 8, 34, 0
20, 689784, Note_on_c, 8, 35, 50
20, 689784, Note_on_c, 8, 34, 50
20, 689897, Note_on_c, 8, 35, 0
20, 689897, Note_on_c, 8, 34, 0
20, 689921, Note_on_c, 8, 34, 47
20, 689921, Note_on_c, 8, 35, 47
20, 690081, Note_on_c, 8, 34, 0
20, 690081, Note_on_c, 8, 35, 0
20, 690105, Note_on_c, 8, 35, 39
20, 690105, Note_on_c, 8, 34, 39
20, 690221, Note_on_c, 8, 35, 0
20, 690221, Note_on_c, 8, 34, 0
20, 690245, Note_on_c, 8, 34, 105
20, 690245, Note_on_c, 8, 35, 105
20, 690395, Note_on_c, 8, 34, 0
20, 690395, Note_on_c, 8, 35, 0
20, 690419, Note_on_c, 8, 35, 56
20, 690419, Note_on_c, 8, 34, 56
20, 690541, Note_on_c, 8, 35, 0
20, 690541, Note_on_c, 8, 34, 0
20, 690565, Note_on_c, 8, 34, 49
20, 690565, Note_on_c, 8, 35, 49
20, 690721, Note_on_c, 8, 34, 0
20, 690721, Note_on_c, 8, 35, 0
20, 690745, Note_on_c, 8, 35, 46
20, 690745, Note_on_c, 8, 34, 46
20, 690876, Note_on_c, 8, 35, 0
20, 690876, Note_on_c, 8, 34, 0
20, 690900, Note_on_c, 8, 34, 49
20, 690900, Note_on_c, 8, 35, 49
20, 691020, Note_on_c, 8, 34, 0
20, 691020, Note_on_c, 8, 35, 0
20, 691044, Note_on_c, 8, 35, 50
20, 691044, Note_on_c, 8, 34, 50
20, 691192, Note_on_c, 8, 35, 0
20, 691192, Note_on_c, 8, 34, 0
20, 691216, Note_on_c, 8, 34, 39
20, 691216, Note_on_c, 8, 35, 39
20, 691351, Note_on_c, 8, 34, 0
20, 691351, Note_on_c, 8, 35, 0
20, 691375, Note_on_c, 8, 35, 45
20, 691375, Note_on_c, 8, 34, 45
20, 691506, Note_on_c, 8, 35, 0
20, 691506, Note_on_c, 8, 34, 0
20, 691530, Note_on_c, 8, 34, 53
20, 691530, Note_on_c, 8, 35, 53
20, 691681, Note_on_c, 8, 34, 0
20, 691681, Note_on_c, 8, 35, 0
20, 691705, Note_on_c, 8, 35, 95
20, 691705, Note_on_c, 8, 34, 95
20, 691840, Note_on_c, 8, 35, 0
20, 691840, Note_on_c, 8, 34, 0
20, 691864, Note_on_c, 8, 34, 45
20, 691864, Note_on_c, 8, 35, 45
20, 691986, Note_on_c, 8, 34, 0
20, 691986, Note_on_c, 8, 35, 0
20, 692010, Note_on_c, 8, 35, 47
20, 692010, Note_on_c, 8, 34, 47
20, 692153, Note_on_c, 8, 35, 0
20, 692153, Note_on_c, 8, 34, 0
20, 692177, Note_on_c, 8, 34, 49
20, 692177, Note_on_c, 8, 35, 49
20, 692303, Note_on_c, 8, 34, 0
20, 692303, Note_on_c, 8, 35, 0
20, 692327, Note_on_c, 8, 35, 42
20, 692327, Note_on_c, 8, 34, 42
20, 692462, Note_on_c, 8, 35, 0
20, 692462, Note_on_c, 8, 34, 0
20, 692486, Note_on_c, 8, 34, 55
20, 692486, Note_on_c, 8, 35, 55
20, 692634, Note_on_c, 8, 34, 0
20, 692634, Note_on_c, 8, 35, 0
20, 692658, Note_on_c, 8, 35, 40
20, 692658, Note_on_c, 8, 34, 40
20, 692800, Note_on_c, 8, 35, 0
20, 692800, Note_on_c, 8, 34, 0
20, 692824, Note_on_c, 8, 35, 58
20, 692824, Note_on_c, 8, 34, 58
20, 692943, Note_on_c, 8, 35, 0
20, 692943, Note_on_c, 8, 34, 0
20, 692967, Note_on_c, 8, 34, 42
20, 692967, Note_on_c, 8, 35, 42
20, 693098, Note_on_c, 8, 34, 0
20, 693098, Note_on_c, 8, 35, 0
20, 693122, Note_on_c, 8, 35, 89
20, 693122, Note_on_c, 8, 34, 89
20, 693267, Note_on_c, 8, 35, 0
20, 693267, Note_on_c, 8, 34, 0
20, 693291, Note_on_c, 8, 34, 53
20, 693291, Note_on_c, 8, 35, 53
20, 693417, Note_on_c, 8, 34, 0
20, 693417, Note_on_c, 8, 35, 0
20, 693441, Note_on_c, 8, 35, 54
20, 693441, Note_on_c, 8, 34, 54
20, 693597, Note_on_c, 8, 35, 0
20, 693597, Note_on_c, 8, 34, 0
20, 693621, Note_on_c, 8, 34, 39
20, 693621, Note_on_c, 8, 35, 39
20, 693756, Note_on_c, 8, 34, 0
20, 693756, Note_on_c, 8, 35, 0
20, 693780, Note_on_c, 8, 35, 54
20, 693780, Note_on_c, 8, 34, 54
20, 693918, Note_on_c, 8, 35, 0
20, 693918, Note_on_c, 8, 34, 0
20, 693942, Note_on_c, 8, 34, 53
20, 693942, Note_on_c, 8, 35, 53
20, 694057, Note_on_c, 8, 34, 0
20, 694057, Note_on_c, 8, 35, 0
20, 694081, Note_on_c, 8, 35, 43
20, 694081, Note_on_c, 8, 34, 43
20, 694237, Note_on_c, 8, 35, 0
20, 694237, Note_on_c, 8, 34, 0
20, 694261, Note_on_c, 8, 35, 45
20, 694261, Note_on_c, 8, 34, 45
20, 694391, Note_on_c, 8, 35, 0
20, 694391, Note_on_c, 8, 34, 0
20, 694415, Note_on_c, 8, 34, 39
20, 694415, Note_on_c, 8, 35, 39
20, 694543, Note_on_c, 8, 34, 0
20, 694543, Note_on_c, 8, 35, 0
20, 694567, Note_on_c, 8, 35, 99
20, 694567, Note_on_c, 8, 34, 99
20, 694702, Note_on_c, 8, 35, 0
20, 694702, Note_on_c, 8, 34, 0
20, 694726, Note_on_c, 8, 34, 50
20, 694726, Note_on_c, 8, 35, 50
20, 694867, Note_on_c, 8, 34, 0
20, 694867, Note_on_c, 8, 35, 0
20, 694891, Note_on_c, 8, 35, 39
20, 694891, Note_on_c, 8, 34, 39
20, 695030, Note_on_c, 8, 35, 0
20, 695030, Note_on_c, 8, 34, 0
20, 695054, Note_on_c, 8, 34, 44
20, 695054, Note_on_c, 8, 35, 44
20, 695185, Note_on_c, 8, 34, 0
20, 695185, Note_on_c, 8, 35, 0
20, 695209, Note_on_c, 8, 35, 39
20, 695209, Note_on_c, 8, 34, 39
20, 695336, Note_on_c, 8, 35, 0
20, 695336, Note_on_c, 8, 34, 0
20, 695360, Note_on_c, 8, 34, 43
20, 695360, Note_on_c, 8, 35, 43
20, 695519, Note_on_c, 8, 34, 0
20, 695519, Note_on_c, 8, 35, 0
20, 695543, Note_on_c, 8, 35, 87
20, 695543, Note_on_c, 8, 34, 87
20, 695660, Note_on_c, 8, 35, 0
20, 695660, Note_on_c, 8, 34, 0
20, 695684, Note_on_c, 8, 35, 82
20, 695684, Note_on_c, 8, 34, 82
20, 695820, Note_on_c, 8, 35, 0
20, 695820, Note_on_c, 8, 34, 0
20, 695844, Note_on_c, 8, 34, 93
20, 695844, Note_on_c, 8, 35, 93
20, 695985, Note_on_c, 8, 34, 0
20, 695985, Note_on_c, 8, 35, 0
20, 696009, Note_on_c, 8, 35, 94
20, 696009, Note_on_c, 8, 34, 94
20, 696151, Note_on_c, 8, 35, 0
20, 696151, Note_on_c, 8, 34, 0
20, 696175, Note_on_c, 8, 34, 93
20, 696175, Note_on_c, 8, 35, 93
20, 696320, Note_on_c, 8, 34, 0
20, 696320, Note_on_c, 8, 35, 0
20, 696344, Note_on_c, 8, 35, 102
20, 696344, Note_on_c, 8, 34, 102
20, 696456, Note_on_c, 8, 35, 0
20, 696456, Note_on_c, 8, 34, 0
20, 696480, Note_on_c, 8, 34, 99
20, 696480, Note_on_c, 8, 35, 99
20, 696588, Note_on_c, 8, 34, 0
20, 696588, Note_on_c, 8, 35, 0
20, 696612, Note_on_c, 8, 35, 110
20, 696612, Note_on_c, 8, 34, 110
20, 696707, Note_on_c, 8, 35, 0
20, 696707, Note_on_c, 8, 34, 0
20, 696731, Note_on_c, 8, 34, 104
20, 696731, Note_on_c, 8, 35, 104
20, 696826, Note_on_c, 8, 34, 0
20, 696826, Note_on_c, 8, 35, 0
20, 696850, Note_on_c, 8, 35, 113
20, 696850, Note_on_c, 8, 34, 113
20, 696959, Note_on_c, 8, 35, 0
20, 696959, Note_on_c, 8, 34, 0
20, 696983, Note_on_c, 8, 34, 74
20, 696983, Note_on_c, 8, 35, 74
20, 697105, Note_on_c, 8, 34, 0
20, 697105, Note_on_c, 8, 35, 0
20, 697129, Note_on_c, 8, 34, 93
20, 697129, Note_on_c, 8, 35, 93
20, 697274, Note_on_c, 8, 34, 0
20, 697274, Note_on_c, 8, 35, 0
20, 697298, Note_on_c, 8, 35, 91
20, 697298, Note_on_c, 8, 34, 91
20, 697426, Note_on_c, 8, 35, 0
20, 697426, Note_on_c, 8, 34, 0
20, 697450, Note_on_c, 8, 34, 81
20, 697450, Note_on_c, 8, 35, 81
20, 697596, Note_on_c, 8, 34, 0
20, 697596, Note_on_c, 8, 35, 0
20, 697620, Note_on_c, 8, 35, 91
20, 697620, Note_on_c, 8, 34, 91
20, 697755, Note_on_c, 8, 35, 0
20, 697755, Note_on_c, 8, 34, 0
20, 697779, Note_on_c, 8, 34, 98
20, 697779, Note_on_c, 8, 35, 98
20, 697910, Note_on_c, 8, 34, 0
20, 697910, Note_on_c, 8, 35, 0
20, 697934, Note_on_c, 8, 35, 102
20, 697934, Note_on_c, 8, 34, 102
20, 698024, Note_on_c, 8, 35, 0
20, 698024, Note_on_c, 8, 34, 0
20, 698048, Note_on_c, 8, 34, 103
20, 698048, Note_on_c, 8, 35, 103
20, 698158, Note_on_c, 8, 34, 0
20, 698158, Note_on_c, 8, 35, 0
20, 698182, Note_on_c, 8, 35, 104
20, 698182, Note_on_c, 8, 34, 104
20, 698260, Note_on_c, 8, 35, 0
20, 698260, Note_on_c, 8, 34, 0
20, 698284, Note_on_c, 8, 34, 117
20, 698284, Note_on_c, 8, 35, 117
20, 698382, Note_on_c, 8, 34, 0
20, 698382, Note_on_c, 8, 35, 0
20, 698406, Note_on_c, 8, 35, 45
20, 698406, Note_on_c, 8, 34, 45
20, 698549, Note_on_c, 8, 35, 0
20, 698549, Note_on_c, 8, 34, 0
20, 698573, Note_on_c, 8, 35, 55
20, 698573, Note_on_c, 8, 34, 55
20, 698714, Note_on_c, 8, 35, 0
20, 698714, Note_on_c, 8, 34, 0
20, 698738, Note_on_c, 8, 34, 39
20, 698738, Note_on_c, 8, 35, 39
20, 698869, Note_on_c, 8, 34, 0
20, 698869, Note_on_c, 8, 35, 0
20, 698893, Note_on_c, 8, 35, 105
20, 698893, Note_on_c, 8, 34, 105
20, 699035, Note_on_c, 8, 35, 0
20, 699035, Note_on_c, 8, 34, 0
20, 699059, Note_on_c, 8, 34, 57
20, 699059, Note_on_c, 8, 35, 57
20, 699193, Note_on_c, 8, 34, 0
20, 699193, Note_on_c, 8, 35, 0
20, 699217, Note_on_c, 8, 35, 40
20, 699217, Note_on_c, 8, 34, 40
20, 699342, Note_on_c, 8, 35, 0
20, 699342, Note_on_c, 8, 34, 0
20, 699366, Note_on_c, 8, 34, 58
20, 699366, Note_on_c, 8, 35, 58
20, 699515, Note_on_c, 8, 34, 0
20, 699515, Note_on_c, 8, 35, 0
20, 699539, Note_on_c, 8, 35, 46
20, 699539, Note_on_c, 8, 34, 46
20, 699664, Note_on_c, 8, 35, 0
20, 699664, Note_on_c, 8, 34, 0
20, 699688, Note_on_c, 8, 34, 45
20, 699688, Note_on_c, 8, 35, 45
20, 699819, Note_on_c, 8, 34, 0
20, 699819, Note_on_c, 8, 35, 0
20, 699843, Note_on_c, 8, 35, 42
20, 699843, Note_on_c, 8, 34, 42
20, 699978, Note_on_c, 8, 35, 0
20, 699978, Note_on_c, 8, 34, 0
20, 700002, Note_on_c, 8, 35, 53
20, 700002, Note_on_c, 8, 34, 53
20, 700153, Note_on_c, 8, 35, 0
20, 700153, Note_on_c, 8, 34, 0
20, 700177, Note_on_c, 8, 34, 47
20, 700177, Note_on_c, 8, 35, 47
20, 700306, Note_on_c, 8, 34, 0
20, 700306, Note_on_c, 8, 35, 0
20, 700330, Note_on_c, 8, 35, 88
20, 700330, Note_on_c, 8, 34, 88
20, 700470, Note_on_c, 8, 35, 0
20, 700470, Note_on_c, 8, 34, 0
20, 700494, Note_on_c, 8, 34, 49
20, 700494, Note_on_c, 8, 35, 49
20, 700637, Note_on_c, 8, 34, 0
20, 700637, Note_on_c, 8, 35, 0
20, 700661, Note_on_c, 8, 35, 49
20, 700661, Note_on_c, 8, 34, 49
20, 700777, Note_on_c, 8, 35, 0
20, 700777, Note_on_c, 8, 34, 0
20, 700801, Note_on_c, 8, 34, 44
20, 700801, Note_on_c, 8, 35, 44
20, 700937, Note_on_c, 8, 34, 0
20, 700937, Note_on_c, 8, 35, 0
20, 700961, Note_on_c, 8, 35, 50
20, 700961, Note_on_c, 8, 34, 50
20, 701119, Note_on_c, 8, 35, 0
20, 701119, Note_on_c, 8, 34, 0
20, 701143, Note_on_c, 8, 34, 59
20, 701143, Note_on_c, 8, 35, 59
20, 701271, Note_on_c, 8, 34, 0
20, 701271, Note_on_c, 8, 35, 0
20, 701295, Note_on_c, 8, 35, 39
20, 701295, Note_on_c, 8, 34, 39
20, 701416, Note_on_c, 8, 35, 0
20, 701416, Note_on_c, 8, 34, 0
20, 701440, Note_on_c, 8, 35, 41
20, 701440, Note_on_c, 8, 34, 41
20, 701582, Note_on_c, 8, 35, 0
20, 701582, Note_on_c, 8, 34, 0
20, 701606, Note_on_c, 8, 34, 41
20, 701606, Note_on_c, 8, 35, 41
20, 701758, Note_on_c, 8, 34, 0
20, 701758, Note_on_c, 8, 35, 0
20, 701782, Note_on_c, 8, 35, 86
20, 701782, Note_on_c, 8, 34, 86
20, 701905, Note_on_c, 8, 35, 0
20, 701905, Note_on_c, 8, 34, 0
20, 701929, Note_on_c, 8, 34, 56
20, 701929, Note_on_c, 8, 35, 56
20, 702070, Note_on_c, 8, 34, 0
20, 702070, Note_on_c, 8, 35, 0
20, 702094, Note_on_c, 8, 35, 48
20, 702094, Note_on_c, 8, 34, 48
20, 702227, Note_on_c, 8, 35, 0
20, 702227, Note_on_c, 8, 34, 0
20, 702251, Note_on_c, 8, 34, 42
20, 702251, Note_on_c, 8, 35, 42
20, 702396, Note_on_c, 8, 34, 0
20, 702396, Note_on_c, 8, 35, 0
20, 702420, Note_on_c, 8, 35, 43
20, 702420, Note_on_c, 8, 34, 43
20, 702542, Note_on_c, 8, 35, 0
20, 702542, Note_on_c, 8, 34, 0
20, 702566, Note_on_c, 8, 34, 52
20, 702566, Note_on_c, 8, 35, 52
20, 702712, Note_on_c, 8, 34, 0
20, 702712, Note_on_c, 8, 35, 0
20, 702736, Note_on_c, 8, 35, 59
20, 702736, Note_on_c, 8, 34, 59
20, 702868, Note_on_c, 8, 35, 0
20, 702868, Note_on_c, 8, 34, 0
20, 702892, Note_on_c, 8, 34, 49
20, 702892, Note_on_c, 8, 35, 49
20, 703021, Note_on_c, 8, 34, 0
20, 703021, Note_on_c, 8, 35, 0
20, 703045, Note_on_c, 8, 35, 49
20, 703045, Note_on_c, 8, 34, 49
20, 703192, Note_on_c, 8, 35, 0
20, 703192, Note_on_c, 8, 34, 0
20, 703216, Note_on_c, 8, 34, 103
20, 703216, Note_on_c, 8, 35, 103
20, 703338, Note_on_c, 8, 34, 0
20, 703338, Note_on_c, 8, 35, 0
20, 703362, Note_on_c, 8, 35, 48
20, 703362, Note_on_c, 8, 34, 48
20, 703503, Note_on_c, 8, 35, 0
20, 703503, Note_on_c, 8, 34, 0
20, 703527, Note_on_c, 8, 34, 59
20, 703527, Note_on_c, 8, 35, 59
20, 703671, Note_on_c, 8, 34, 0
20, 703671, Note_on_c, 8, 35, 0
20, 703695, Note_on_c, 8, 35, 41
20, 703695, Note_on_c, 8, 34, 41
20, 703829, Note_on_c, 8, 35, 0
20, 703829, Note_on_c, 8, 34, 0
20, 703853, Note_on_c, 8, 34, 39
20, 703853, Note_on_c, 8, 35, 39
20, 703982, Note_on_c, 8, 34, 0
20, 703982, Note_on_c, 8, 35, 0
20, 704006, Note_on_c, 8, 35, 44
20, 704006, Note_on_c, 8, 34, 44
20, 704150, Note_on_c, 8, 35, 0
20, 704150, Note_on_c, 8, 34, 0
20, 704174, Note_on_c, 8, 34, 44
20, 704174, Note_on_c, 8, 35, 44
20, 704303, Note_on_c, 8, 34, 0
20, 704303, Note_on_c, 8, 35, 0
20, 704327, Note_on_c, 8, 35, 39
20, 704327, Note_on_c, 8, 34, 39
20, 704475, Note_on_c, 8, 35, 0
20, 704475, Note_on_c, 8, 34, 0
20, 704499, Note_on_c, 8, 35, 58
20, 704499, Note_on_c, 8, 34, 58
20, 704622, Note_on_c, 8, 35, 0
20, 704622, Note_on_c, 8, 34, 0
20, 704646, Note_on_c, 8, 34, 86
20, 704646, Note_on_c, 8, 35, 86
20, 704789, Note_on_c, 8, 34, 0
20, 704789, Note_on_c, 8, 35, 0
20, 704813, Note_on_c, 8, 35, 48
20, 704813, Note_on_c, 8, 34, 48
20, 704938, Note_on_c, 8, 35, 0
20, 704938, Note_on_c, 8, 34, 0
20, 704962, Note_on_c, 8, 34, 41
20, 704962, Note_on_c, 8, 35, 41
20, 705121, Note_on_c, 8, 34, 0
20, 705121, Note_on_c, 8, 35, 0
20, 705145, Note_on_c, 8, 35, 40
20, 705145, Note_on_c, 8, 34, 40
20, 705259, Note_on_c, 8, 35, 0
20, 705259, Note_on_c, 8, 34, 0
20, 705283, Note_on_c, 8, 34, 59
20, 705283, Note_on_c, 8, 35, 59
20, 705416, Note_on_c, 8, 34, 0
20, 705416, Note_on_c, 8, 35, 0
20, 705440, Note_on_c, 8, 35, 46
20, 705440, Note_on_c, 8, 34, 46
20, 705596, Note_on_c, 8, 35, 0
20, 705596, Note_on_c, 8, 34, 0
20, 705620, Note_on_c, 8, 34, 58
20, 705620, Note_on_c, 8, 35, 58
20, 705759, Note_on_c, 8, 34, 0
20, 705759, Note_on_c, 8, 35, 0
20, 705783, Note_on_c, 8, 35, 56
20, 705783, Note_on_c, 8, 34, 56
20, 705899, Note_on_c, 8, 35, 0
20, 705899, Note_on_c, 8, 34, 0
20, 705923, Note_on_c, 8, 35, 42
20, 705923, Note_on_c, 8, 34, 42
20, 706081, Note_on_c, 8, 35, 0
20, 706081, Note_on_c, 8, 34, 0
20, 706105, Note_on_c, 8, 34, 105
20, 706105, Note_on_c, 8, 35, 105
20, 706231, Note_on_c, 8, 34, 0
20, 706231, Note_on_c, 8, 35, 0
20, 706255, Note_on_c, 8, 35, 52
20, 706255, Note_on_c, 8, 34, 52
20, 706387, Note_on_c, 8, 35, 0
20, 706387, Note_on_c, 8, 34, 0
20, 706411, Note_on_c, 8, 34, 43
20, 706411, Note_on_c, 8, 35, 43
20, 706541, Note_on_c, 8, 34, 0
20, 706541, Note_on_c, 8, 35, 0
20, 706565, Note_on_c, 8, 35, 56
20, 706565, Note_on_c, 8, 34, 56
20, 706710, Note_on_c, 8, 35, 0
20, 706710, Note_on_c, 8, 34, 0
20, 706734, Note_on_c, 8, 34, 59
20, 706734, Note_on_c, 8, 35, 59
20, 706868, Note_on_c, 8, 34, 0
20, 706868, Note_on_c, 8, 35, 0
20, 706892, Note_on_c, 8, 35, 50
20, 706892, Note_on_c, 8, 34, 50
20, 707023, Note_on_c, 8, 35, 0
20, 707023, Note_on_c, 8, 34, 0
20, 707047, Note_on_c, 8, 34, 51
20, 707047, Note_on_c, 8, 35, 51
20, 707176, Note_on_c, 8, 34, 0
20, 707176, Note_on_c, 8, 35, 0
20, 707200, Note_on_c, 8, 35, 58
20, 707200, Note_on_c, 8, 34, 58
20, 707348, Note_on_c, 8, 35, 0
20, 707348, Note_on_c, 8, 34, 0
20, 707372, Note_on_c, 8, 35, 57
20, 707372, Note_on_c, 8, 34, 57
20, 707511, Note_on_c, 8, 35, 0
20, 707511, Note_on_c, 8, 34, 0
20, 707535, Note_on_c, 8, 34, 98
20, 707535, Note_on_c, 8, 35, 98
20, 707659, Note_on_c, 8, 34, 0
20, 707659, Note_on_c, 8, 35, 0
20, 707683, Note_on_c, 8, 35, 40
20, 707683, Note_on_c, 8, 34, 40
20, 707828, Note_on_c, 8, 35, 0
20, 707828, Note_on_c, 8, 34, 0
20, 707852, Note_on_c, 8, 34, 49
20, 707852, Note_on_c, 8, 35, 49
20, 707987, Note_on_c, 8, 34, 0
20, 707987, Note_on_c, 8, 35, 0
20, 708011, Note_on_c, 8, 35, 43
20, 708011, Note_on_c, 8, 34, 43
20, 708150, Note_on_c, 8, 35, 0
20, 708150, Note_on_c, 8, 34, 0
20, 708174, Note_on_c, 8, 34, 40
20, 708174, Note_on_c, 8, 35, 40
20, 708304, Note_on_c, 8, 34, 0
20, 708304, Note_on_c, 8, 35, 0
20, 708328, Note_on_c, 8, 35, 40
20, 708328, Note_on_c, 8, 34, 40
20, 708471, Note_on_c, 8, 35, 0
20, 708471, Note_on_c, 8, 34, 0
20, 708495, Note_on_c, 8, 34, 78
20, 708495, Note_on_c, 8, 35, 78
20, 708627, Note_on_c, 8, 34, 0
20, 708627, Note_on_c, 8, 35, 0
20, 708651, Note_on_c, 8, 35, 93
20, 708651, Note_on_c, 8, 34, 93
20, 708781, Note_on_c, 8, 35, 0
20, 708781, Note_on_c, 8, 34, 0
20, 708805, Note_on_c, 8, 34, 89
20, 708805, Note_on_c, 8, 35, 89
20, 708937, Note_on_c, 8, 34, 0
20, 708937, Note_on_c, 8, 35, 0
20, 708961, Note_on_c, 8, 34, 92
20, 708961, Note_on_c, 8, 35, 92
20, 709061, Note_on_c, 8, 34, 0
20, 709061, Note_on_c, 8, 35, 0
20, 709085, Note_on_c, 8, 35, 109
20, 709085, Note_on_c, 8, 34, 109
20, 709196, Note_on_c, 8, 35, 0
20, 709196, Note_on_c, 8, 34, 0
20, 709220, Note_on_c, 8, 34, 114
20, 709220, Note_on_c, 8, 35, 114
20, 709315, Note_on_c, 8, 34, 0
20, 709315, Note_on_c, 8, 35, 0
20, 709339, Note_on_c, 8, 35, 118
20, 709339, Note_on_c, 8, 34, 118
20, 709416, Note_on_c, 8, 35, 0
20, 709416, Note_on_c, 8, 34, 0
20, 709440, Note_on_c, 8, 34, 86
20, 709440, Note_on_c, 8, 35, 86
20, 709455, Note_on_c, 8, 34, 0
20, 709455, Note_on_c, 8, 35, 0
20, 709616, Note_on_c, 8, 35, 83
20, 709616, Note_on_c, 8, 34, 83
20, 709751, Note_on_c, 8, 35, 0
20, 709751, Note_on_c, 8, 34, 0
20, 709775, Note_on_c, 8, 34, 86
20, 709775, Note_on_c, 8, 35, 86
20, 709902, Note_on_c, 8, 34, 0
20, 709902, Note_on_c, 8, 35, 0
20, 709926, Note_on_c, 8, 35, 40
20, 709926, Note_on_c, 8, 34, 40
20, 710076, Note_on_c, 8, 35, 0
20, 710076, Note_on_c, 8, 34, 0
20, 710100, Note_on_c, 8, 34, 43
20, 710100, Note_on_c, 8, 35, 43
20, 710230, Note_on_c, 8, 34, 0
20, 710230, Note_on_c, 8, 35, 0
20, 710254, Note_on_c, 8, 35, 51
20, 710254, Note_on_c, 8, 34, 51
20, 710380, Note_on_c, 8, 35, 0
20, 710380, Note_on_c, 8, 34, 0
20, 710404, Note_on_c, 8, 35, 105
20, 710404, Note_on_c, 8, 34, 105
20, 710560, Note_on_c, 8, 35, 0
20, 710560, Note_on_c, 8, 34, 0
20, 710584, Note_on_c, 8, 34, 41
20, 710584, Note_on_c, 8, 35, 41
20, 710712, Note_on_c, 8, 34, 0
20, 710712, Note_on_c, 8, 35, 0
20, 710736, Note_on_c, 8, 35, 59
20, 710736, Note_on_c, 8, 34, 59
20, 710881, Note_on_c, 8, 35, 0
20, 710881, Note_on_c, 8, 34, 0
20, 710905, Note_on_c, 8, 34, 58
20, 710905, Note_on_c, 8, 35, 58
20, 711022, Note_on_c, 8, 34, 0
20, 711022, Note_on_c, 8, 35, 0
20, 711046, Note_on_c, 8, 35, 39
20, 711046, Note_on_c, 8, 34, 39
20, 711195, Note_on_c, 8, 35, 0
20, 711195, Note_on_c, 8, 34, 0
20, 711219, Note_on_c, 8, 34, 39
20, 711219, Note_on_c, 8, 35, 39
20, 711352, Note_on_c, 8, 34, 0
20, 711352, Note_on_c, 8, 35, 0
20, 711376, Note_on_c, 8, 35, 87
20, 711376, Note_on_c, 8, 34, 87
20, 711508, Note_on_c, 8, 35, 0
20, 711508, Note_on_c, 8, 34, 0
20, 711532, Note_on_c, 8, 34, 89
20, 711532, Note_on_c, 8, 35, 89
20, 711658, Note_on_c, 8, 34, 0
20, 711658, Note_on_c, 8, 35, 0
20, 711682, Note_on_c, 8, 35, 88
20, 711682, Note_on_c, 8, 34, 88
20, 711833, Note_on_c, 8, 35, 0
20, 711833, Note_on_c, 8, 34, 0
20, 711857, Note_on_c, 8, 35, 101
20, 711857, Note_on_c, 8, 34, 101
20, 711946, Note_on_c, 8, 35, 0
20, 711946, Note_on_c, 8, 34, 0
20, 711970, Note_on_c, 8, 34, 102
20, 711970, Note_on_c, 8, 35, 102
20, 712056, Note_on_c, 8, 34, 0
20, 712056, Note_on_c, 8, 35, 0
20, 712080, Note_on_c, 8, 35, 112
20, 712080, Note_on_c, 8, 34, 112
20, 712200, Note_on_c, 8, 35, 0
20, 712200, Note_on_c, 8, 34, 0
20, 712224, Note_on_c, 8, 34, 99
20, 712224, Note_on_c, 8, 35, 99
20, 712296, Note_on_c, 8, 34, 0
20, 712296, Note_on_c, 8, 35, 0
20, 712320, Note_on_c, 8, 35, 74
20, 712320, Note_on_c, 8, 34, 74
20, 712340, Note_on_c, 8, 35, 0
20, 712340, Note_on_c, 8, 34, 0
20, 712501, Note_on_c, 8, 34, 83
20, 712501, Note_on_c, 8, 35, 83
20, 712620, Note_on_c, 8, 34, 0
20, 712620, Note_on_c, 8, 35, 0
20, 712644, Note_on_c, 8, 35, 96
20, 712644, Note_on_c, 8, 34, 96
20, 712797, Note_on_c, 8, 35, 0
20, 712797, Note_on_c, 8, 34, 0
20, 712821, Note_on_c, 8, 34, 53
20, 712821, Note_on_c, 8, 35, 53
20, 712942, Note_on_c, 8, 34, 0
20, 712942, Note_on_c, 8, 35, 0
20, 712966, Note_on_c, 8, 35, 42
20, 712966, Note_on_c, 8, 34, 42
20, 713119, Note_on_c, 8, 35, 0
20, 713119, Note_on_c, 8, 34, 0
20, 713143, Note_on_c, 8, 35, 48
20, 713143, Note_on_c, 8, 34, 48
20, 713270, Note_on_c, 8, 35, 0
20, 713270, Note_on_c, 8, 34, 0
20, 713294, Note_on_c, 8, 34, 94
20, 713294, Note_on_c, 8, 35, 94
20, 713424, Note_on_c, 8, 34, 0
20, 713424, Note_on_c, 8, 35, 0
20, 713448, Note_on_c, 8, 35, 46
20, 713448, Note_on_c, 8, 34, 46
20, 713587, Note_on_c, 8, 35, 0
20, 713587, Note_on_c, 8, 34, 0
20, 713611, Note_on_c, 8, 34, 56
20, 713611, Note_on_c, 8, 35, 56
20, 713755, Note_on_c, 8, 34, 0
20, 713755, Note_on_c, 8, 35, 0
20, 713779, Note_on_c, 8, 35, 59
20, 713779, Note_on_c, 8, 34, 59
20, 713898, Note_on_c, 8, 35, 0
20, 713898, Note_on_c, 8, 34, 0
20, 713922, Note_on_c, 8, 34, 58
20, 713922, Note_on_c, 8, 35, 58
20, 714057, Note_on_c, 8, 34, 0
20, 714057, Note_on_c, 8, 35, 0
20, 714081, Note_on_c, 8, 35, 50
20, 714081, Note_on_c, 8, 34, 50
20, 714226, Note_on_c, 8, 35, 0
20, 714226, Note_on_c, 8, 34, 0
20, 714250, Note_on_c, 8, 34, 42
20, 714250, Note_on_c, 8, 35, 42
20, 714388, Note_on_c, 8, 34, 0
20, 714388, Note_on_c, 8, 35, 0
20, 714412, Note_on_c, 8, 35, 51
20, 714412, Note_on_c, 8, 34, 51
20, 714538, Note_on_c, 8, 35, 0
20, 714538, Note_on_c, 8, 34, 0
20, 714562, Note_on_c, 8, 34, 39
20, 714562, Note_on_c, 8, 35, 39
20, 714718, Note_on_c, 8, 34, 0
20, 714718, Note_on_c, 8, 35, 0
20, 714742, Note_on_c, 8, 35, 97
20, 714742, Note_on_c, 8, 34, 97
20, 714872, Note_on_c, 8, 35, 0
20, 714872, Note_on_c, 8, 34, 0
20, 714896, Note_on_c, 8, 34, 59
20, 714896, Note_on_c, 8, 35, 59
20, 715035, Note_on_c, 8, 34, 0
20, 715035, Note_on_c, 8, 35, 0
20, 715059, Note_on_c, 8, 35, 59
20, 715059, Note_on_c, 8, 34, 59
20, 715188, Note_on_c, 8, 35, 0
20, 715188, Note_on_c, 8, 34, 0
20, 715212, Note_on_c, 8, 34, 48
20, 715212, Note_on_c, 8, 35, 48
20, 715342, Note_on_c, 8, 34, 0
20, 715342, Note_on_c, 8, 35, 0
20, 715366, Note_on_c, 8, 35, 57
20, 715366, Note_on_c, 8, 34, 57
20, 715517, Note_on_c, 8, 35, 0
20, 715517, Note_on_c, 8, 34, 0
20, 715541, Note_on_c, 8, 34, 59
20, 715541, Note_on_c, 8, 35, 59
20, 715666, Note_on_c, 8, 34, 0
20, 715666, Note_on_c, 8, 35, 0
20, 715690, Note_on_c, 8, 35, 55
20, 715690, Note_on_c, 8, 34, 55
20, 715828, Note_on_c, 8, 35, 0
20, 715828, Note_on_c, 8, 34, 0
20, 715852, Note_on_c, 8, 34, 59
20, 715852, Note_on_c, 8, 35, 59
20, 715982, Note_on_c, 8, 34, 0
20, 715982, Note_on_c, 8, 35, 0
20, 716006, Note_on_c, 8, 35, 55
20, 716006, Note_on_c, 8, 34, 55
20, 716141, Note_on_c, 8, 35, 0
20, 716141, Note_on_c, 8, 34, 0
20, 716165, Note_on_c, 8, 35, 92
20, 716165, Note_on_c, 8, 34, 92
20, 716300, Note_on_c, 8, 35, 0
20, 716300, Note_on_c, 8, 34, 0
20, 716324, Note_on_c, 8, 34, 55
20, 716324, Note_on_c, 8, 35, 55
20, 716479, Note_on_c, 8, 34, 0
20, 716479, Note_on_c, 8, 35, 0
20, 716503, Note_on_c, 8, 35, 50
20, 716503, Note_on_c, 8, 34, 50
20, 716633, Note_on_c, 8, 35, 0
20, 716633, Note_on_c, 8, 34, 0
20, 716657, Note_on_c, 8, 34, 49
20, 716657, Note_on_c, 8, 35, 49
20, 716777, Note_on_c, 8, 34, 0
20, 716777, Note_on_c, 8, 35, 0
20, 716801, Note_on_c, 8, 35, 43
20, 716801, Note_on_c, 8, 34, 43
20, 716957, Note_on_c, 8, 35, 0
20, 716957, Note_on_c, 8, 34, 0
20, 716981, Note_on_c, 8, 34, 44
20, 716981, Note_on_c, 8, 35, 44
20, 717115, Note_on_c, 8, 34, 0
20, 717115, Note_on_c, 8, 35, 0
20, 717139, Note_on_c, 8, 35, 58
20, 717139, Note_on_c, 8, 34, 58
20, 717264, Note_on_c, 8, 35, 0
20, 717264, Note_on_c, 8, 34, 0
20, 717288, Note_on_c, 8, 34, 57
20, 717288, Note_on_c, 8, 35, 57
20, 717431, Note_on_c, 8, 34, 0
20, 717431, Note_on_c, 8, 35, 0
20, 717455, Note_on_c, 8, 35, 57
20, 717455, Note_on_c, 8, 34, 57
20, 717577, Note_on_c, 8, 35, 0
20, 717577, Note_on_c, 8, 34, 0
20, 717601, Note_on_c, 8, 35, 88
20, 717601, Note_on_c, 8, 34, 88
20, 717753, Note_on_c, 8, 35, 0
20, 717753, Note_on_c, 8, 34, 0
20, 717777, Note_on_c, 8, 34, 49
20, 717777, Note_on_c, 8, 35, 49
20, 717903, Note_on_c, 8, 34, 0
20, 717903, Note_on_c, 8, 35, 0
20, 717927, Note_on_c, 8, 35, 48
20, 717927, Note_on_c, 8, 34, 48
20, 718061, Note_on_c, 8, 35, 0
20, 718061, Note_on_c, 8, 34, 0
20, 718085, Note_on_c, 8, 34, 40
20, 718085, Note_on_c, 8, 35, 40
20, 718223, Note_on_c, 8, 34, 0
20, 718223, Note_on_c, 8, 35, 0
20, 718247, Note_on_c, 8, 35, 57
20, 718247, Note_on_c, 8, 34, 57
20, 718391, Note_on_c, 8, 35, 0
20, 718391, Note_on_c, 8, 34, 0
20, 718415, Note_on_c, 8, 34, 52
20, 718415, Note_on_c, 8, 35, 52
20, 718540, Note_on_c, 8, 34, 0
20, 718540, Note_on_c, 8, 35, 0
20, 718564, Note_on_c, 8, 35, 56
20, 718564, Note_on_c, 8, 34, 56
20, 718697, Note_on_c, 8, 35, 0
20, 718697, Note_on_c, 8, 34, 0
20, 718721, Note_on_c, 8, 34, 41
20, 718721, Note_on_c, 8, 35, 41
20, 718878, Note_on_c, 8, 34, 0
20, 718878, Note_on_c, 8, 35, 0
20, 718902, Note_on_c, 8, 35, 45
20, 718902, Note_on_c, 8, 34, 45
20, 719027, Note_on_c, 8, 35, 0
20, 719027, Note_on_c, 8, 34, 0
20, 719051, Note_on_c, 8, 35, 98
20, 719051, Note_on_c, 8, 34, 98
20, 719178, Note_on_c, 8, 35, 0
20, 719178, Note_on_c, 8, 34, 0
20, 719202, Note_on_c, 8, 34, 52
20, 719202, Note_on_c, 8, 35, 52
20, 719347, Note_on_c, 8, 34, 0
20, 719347, Note_on_c, 8, 35, 0
20, 719371, Note_on_c, 8, 35, 43
20, 719371, Note_on_c, 8, 34, 43
20, 719499, Note_on_c, 8, 35, 0
20, 719499, Note_on_c, 8, 34, 0
20, 719523, Note_on_c, 8, 34, 48
20, 719523, Note_on_c, 8, 35, 48
20, 719656, Note_on_c, 8, 34, 0
20, 719656, Note_on_c, 8, 35, 0
20, 719680, Note_on_c, 8, 35, 50
20, 719680, Note_on_c, 8, 34, 50
20, 719827, Note_on_c, 8, 35, 0
20, 719827, Note_on_c, 8, 34, 0
20, 719851, Note_on_c, 8, 34, 52
20, 719851, Note_on_c, 8, 35, 52
20, 719999, Note_on_c, 8, 34, 0
20, 719999, Note_on_c, 8, 35, 0
20, 720023, Note_on_c, 8, 35, 48
20, 720023, Note_on_c, 8, 34, 48
20, 720136, Note_on_c, 8, 35, 0
20, 720136, Note_on_c, 8, 34, 0
20, 720160, Note_on_c, 8, 34, 53
20, 720160, Note_on_c, 8, 35, 53
20, 720298, Note_on_c, 8, 34, 0
20, 720298, Note_on_c, 8, 35, 0
20, 720322, Note_on_c, 8, 35, 54
20, 720322, Note_on_c, 8, 34, 54
20, 720463, Note_on_c, 8, 35, 0
20, 720463, Note_on_c, 8, 34, 0
20, 720487, Note_on_c, 8, 34, 91
20, 720487, Note_on_c, 8, 35, 91
20, 720640, Note_on_c, 8, 34, 0
20, 720640, Note_on_c, 8, 35, 0
20, 720664, Note_on_c, 8, 35, 58
20, 720664, Note_on_c, 8, 34, 58
20, 720787, Note_on_c, 8, 35, 0
20, 720787, Note_on_c, 8, 34, 0
20, 720811, Note_on_c, 8, 34, 53
20, 720811, Note_on_c, 8, 35, 53
20, 720950, Note_on_c, 8, 34, 0
20, 720950, Note_on_c, 8, 35, 0
20, 720974, Note_on_c, 8, 35, 45
20, 720974, Note_on_c, 8, 34, 45
20, 721104, Note_on_c, 8, 35, 0
20, 721104, Note_on_c, 8, 34, 0
20, 721128, Note_on_c, 8, 34, 42
20, 721128, Note_on_c, 8, 35, 42
20, 721280, Note_on_c, 8, 34, 0
20, 721280, Note_on_c, 8, 35, 0
20, 721304, Note_on_c, 8, 35, 55
20, 721304, Note_on_c, 8, 34, 55
20, 721421, Note_on_c, 8, 35, 0
20, 721421, Note_on_c, 8, 34, 0
20, 721445, Note_on_c, 8, 34, 47
20, 721445, Note_on_c, 8, 35, 47
20, 721578, Note_on_c, 8, 34, 0
20, 721578, Note_on_c, 8, 35, 0
20, 721602, Note_on_c, 8, 35, 45
20, 721602, Note_on_c, 8, 34, 45
20, 721740, Note_on_c, 8, 35, 0
20, 721740, Note_on_c, 8, 34, 0
20, 721764, Note_on_c, 8, 34, 53
20, 721764, Note_on_c, 8, 35, 53
20, 721899, Note_on_c, 8, 34, 0
20, 721899, Note_on_c, 8, 35, 0
20, 721923, Note_on_c, 8, 35, 100
20, 721923, Note_on_c, 8, 34, 100
20, 722071, Note_on_c, 8, 35, 0
20, 722071, Note_on_c, 8, 34, 0
20, 722095, Note_on_c, 8, 34, 56
20, 722095, Note_on_c, 8, 35, 56
20, 722234, Note_on_c, 8, 34, 0
20, 722234, Note_on_c, 8, 35, 0
20, 722258, Note_on_c, 8, 35, 39
20, 722258, Note_on_c, 8, 34, 39
20, 722384, Note_on_c, 8, 35, 0
20, 722384, Note_on_c, 8, 34, 0
20, 722408, Note_on_c, 8, 35, 49
20, 722408, Note_on_c, 8, 34, 49
20, 722548, Note_on_c, 8, 35, 0
20, 722548, Note_on_c, 8, 34, 0
20, 722572, Note_on_c, 8, 34, 57
20, 722572, Note_on_c, 8, 35, 57
20, 722714, Note_on_c, 8, 34, 0
20, 722714, Note_on_c, 8, 35, 0
20, 722738, Note_on_c, 8, 35, 47
20, 722738, Note_on_c, 8, 34, 47
20, 722856, Note_on_c, 8, 35, 0
20, 722856, Note_on_c, 8, 34, 0
20, 722880, Note_on_c, 8, 34, 50
20, 722880, Note_on_c, 8, 35, 50
20, 723039, Note_on_c, 8, 34, 0
20, 723039, Note_on_c, 8, 35, 0
20, 723063, Note_on_c, 8, 35, 53
20, 723063, Note_on_c, 8, 34, 53
20, 723178, Note_on_c, 8, 35, 0
20, 723178, Note_on_c, 8, 34, 0
20, 723202, Note_on_c, 8, 34, 42
20, 723202, Note_on_c, 8, 35, 42
20, 723338, Note_on_c, 8, 34, 0
20, 723338, Note_on_c, 8, 35, 0
20, 723362, Note_on_c, 8, 35, 98
20, 723362, Note_on_c, 8, 34, 98
20, 723508, Note_on_c, 8, 35, 0
20, 723508, Note_on_c, 8, 34, 0
20, 723532, Note_on_c, 8, 34, 58
20, 723532, Note_on_c, 8, 35, 58
20, 723657, Note_on_c, 8, 34, 0
20, 723657, Note_on_c, 8, 35, 0
20, 723681, Note_on_c, 8, 35, 41
20, 723681, Note_on_c, 8, 34, 41
20, 723823, Note_on_c, 8, 35, 0
20, 723823, Note_on_c, 8, 34, 0
20, 723847, Note_on_c, 8, 35, 41
20, 723847, Note_on_c, 8, 34, 41
20, 723983, Note_on_c, 8, 35, 0
20, 723983, Note_on_c, 8, 34, 0
20, 724007, Note_on_c, 8, 34, 57
20, 724007, Note_on_c, 8, 35, 57
20, 724143, Note_on_c, 8, 34, 0
20, 724143, Note_on_c, 8, 35, 0
20, 724167, Note_on_c, 8, 35, 43
20, 724167, Note_on_c, 8, 34, 43
20, 724296, Note_on_c, 8, 35, 0
20, 724296, Note_on_c, 8, 34, 0
20, 724320, Note_on_c, 8, 34, 46
20, 724320, Note_on_c, 8, 35, 46
20, 724466, Note_on_c, 8, 34, 0
20, 724466, Note_on_c, 8, 35, 0
20, 724490, Note_on_c, 8, 35, 57
20, 724490, Note_on_c, 8, 34, 57
20, 724636, Note_on_c, 8, 35, 0
20, 724636, Note_on_c, 8, 34, 0
20, 724660, Note_on_c, 8, 34, 49
20, 724660, Note_on_c, 8, 35, 49
20, 724787, Note_on_c, 8, 34, 0
20, 724787, Note_on_c, 8, 35, 0
20, 724811, Note_on_c, 8, 35, 98
20, 724811, Note_on_c, 8, 34, 98
20, 724948, Note_on_c, 8, 35, 0
20, 724948, Note_on_c, 8, 34, 0
20, 724972, Note_on_c, 8, 34, 42
20, 724972, Note_on_c, 8, 35, 42
20, 725099, Note_on_c, 8, 34, 0
20, 725099, Note_on_c, 8, 35, 0
20, 725123, Note_on_c, 8, 35, 45
20, 725123, Note_on_c, 8, 34, 45
20, 725274, Note_on_c, 8, 35, 0
20, 725274, Note_on_c, 8, 34, 0
20, 725298, Note_on_c, 8, 35, 49
20, 725298, Note_on_c, 8, 34, 49
20, 725426, Note_on_c, 8, 35, 0
20, 725426, Note_on_c, 8, 34, 0
20, 725450, Note_on_c, 8, 34, 46
20, 725450, Note_on_c, 8, 35, 46
20, 725594, Note_on_c, 8, 34, 0
20, 725594, Note_on_c, 8, 35, 0
20, 725618, Note_on_c, 8, 35, 49
20, 725618, Note_on_c, 8, 34, 49
20, 725739, Note_on_c, 8, 35, 0
20, 725739, Note_on_c, 8, 34, 0
20, 725763, Note_on_c, 8, 34, 45
20, 725763, Note_on_c, 8, 35, 45
20, 725918, Note_on_c, 8, 34, 0
20, 725918, Note_on_c, 8, 35, 0
20, 725942, Note_on_c, 8, 35, 48
20, 725942, Note_on_c, 8, 34, 48
20, 726081, Note_on_c, 8, 35, 0
20, 726081, Note_on_c, 8, 34, 0
20, 726105, Note_on_c, 8, 34, 40
20, 726105, Note_on_c, 8, 35, 40
20, 726223, Note_on_c, 8, 34, 0
20, 726223, Note_on_c, 8, 35, 0
20, 726247, Note_on_c, 8, 35, 86
20, 726247, Note_on_c, 8, 34, 86
20, 726389, Note_on_c, 8, 35, 0
20, 726389, Note_on_c, 8, 34, 0
20, 726413, Note_on_c, 8, 34, 50
20, 726413, Note_on_c, 8, 35, 50
20, 726553, Note_on_c, 8, 34, 0
20, 726553, Note_on_c, 8, 35, 0
20, 726577, Note_on_c, 8, 35, 53
20, 726577, Note_on_c, 8, 34, 53
20, 726700, Note_on_c, 8, 35, 0
20, 726700, Note_on_c, 8, 34, 0
20, 726724, Note_on_c, 8, 34, 56
20, 726724, Note_on_c, 8, 35, 56
20, 726880, Note_on_c, 8, 34, 0
20, 726880, Note_on_c, 8, 35, 0
20, 726904, Note_on_c, 8, 35, 52
20, 726904, Note_on_c, 8, 34, 52
20, 727023, Note_on_c, 8, 35, 0
20, 727023, Note_on_c, 8, 34, 0
20, 727047, Note_on_c, 8, 34, 45
20, 727047, Note_on_c, 8, 35, 45
20, 727177, Note_on_c, 8, 34, 0
20, 727177, Note_on_c, 8, 35, 0
20, 727201, Note_on_c, 8, 35, 46
20, 727201, Note_on_c, 8, 34, 46
20, 727358, Note_on_c, 8, 35, 0
20, 727358, Note_on_c, 8, 34, 0
20, 727382, Note_on_c, 8, 34, 48
20, 727382, Note_on_c, 8, 35, 48
20, 727513, Note_on_c, 8, 34, 0
20, 727513, Note_on_c, 8, 35, 0
20, 727537, Note_on_c, 8, 35, 43
20, 727537, Note_on_c, 8, 34, 43
20, 727668, Note_on_c, 8, 35, 0
20, 727668, Note_on_c, 8, 34, 0
20, 727692, Note_on_c, 8, 34, 90
20, 727692, Note_on_c, 8, 35, 90
20, 727834, Note_on_c, 8, 34, 0
20, 727834, Note_on_c, 8, 35, 0
20, 727858, Note_on_c, 8, 35, 50
20, 727858, Note_on_c, 8, 34, 50
20, 727992, Note_on_c, 8, 35, 0
20, 727992, Note_on_c, 8, 34, 0
20, 728016, Note_on_c, 8, 34, 54
20, 728016, Note_on_c, 8, 35, 54
20, 728146, Note_on_c, 8, 34, 0
20, 728146, Note_on_c, 8, 35, 0
20, 728170, Note_on_c, 8, 35, 54
20, 728170, Note_on_c, 8, 34, 54
20, 728306, Note_on_c, 8, 35, 0
20, 728306, Note_on_c, 8, 34, 0
20, 728330, Note_on_c, 8, 35, 39
20, 728330, Note_on_c, 8, 34, 39
20, 728460, Note_on_c, 8, 35, 0
20, 728460, Note_on_c, 8, 34, 0
20, 728484, Note_on_c, 8, 34, 57
20, 728484, Note_on_c, 8, 35, 57
20, 728616, Note_on_c, 8, 34, 0
20, 728616, Note_on_c, 8, 35, 0
20, 728640, Note_on_c, 8, 35, 46
20, 728640, Note_on_c, 8, 34, 46
20, 728784, Note_on_c, 8, 35, 0
20, 728784, Note_on_c, 8, 34, 0
20, 728808, Note_on_c, 8, 34, 41
20, 728808, Note_on_c, 8, 35, 41
20, 728940, Note_on_c, 8, 34, 0
20, 728940, Note_on_c, 8, 35, 0
20, 728964, Note_on_c, 8, 35, 58
20, 728964, Note_on_c, 8, 34, 58
20, 729114, Note_on_c, 8, 35, 0
20, 729114, Note_on_c, 8, 34, 0
20, 729138, Note_on_c, 8, 34, 87
20, 729138, Note_on_c, 8, 35, 87
20, 729255, Note_on_c, 8, 34, 0
20, 729255, Note_on_c, 8, 35, 0
20, 729279, Note_on_c, 8, 35, 45
20, 729279, Note_on_c, 8, 34, 45
20, 729419, Note_on_c, 8, 35, 0
20, 729419, Note_on_c, 8, 34, 0
20, 729443, Note_on_c, 8, 34, 51
20, 729443, Note_on_c, 8, 35, 51
20, 729586, Note_on_c, 8, 34, 0
20, 729586, Note_on_c, 8, 35, 0
20, 729610, Note_on_c, 8, 35, 56
20, 729610, Note_on_c, 8, 34, 56
20, 729751, Note_on_c, 8, 35, 0
20, 729751, Note_on_c, 8, 34, 0
20, 729775, Note_on_c, 8, 35, 46
20, 729775, Note_on_c, 8, 34, 46
20, 729916, Note_on_c, 8, 35, 0
20, 729916, Note_on_c, 8, 34, 0
20, 729940, Note_on_c, 8, 34, 56
20, 729940, Note_on_c, 8, 35, 56
20, 730079, Note_on_c, 8, 34, 0
20, 730079, Note_on_c, 8, 35, 0
20, 730103, Note_on_c, 8, 35, 57
20, 730103, Note_on_c, 8, 34, 57
20, 730221, Note_on_c, 8, 35, 0
20, 730221, Note_on_c, 8, 34, 0
20, 730245, Note_on_c, 8, 34, 45
20, 730245, Note_on_c, 8, 35, 45
20, 730386, Note_on_c, 8, 34, 0
20, 730386, Note_on_c, 8, 35, 0
20, 730410, Note_on_c, 8, 35, 40
20, 730410, Note_on_c, 8, 34, 40
20, 730555, Note_on_c, 8, 35, 0
20, 730555, Note_on_c, 8, 34, 0
20, 730579, Note_on_c, 8, 34, 103
20, 730579, Note_on_c, 8, 35, 103
20, 730720, Note_on_c, 8, 34, 0
20, 730720, Note_on_c, 8, 35, 0
20, 730744, Note_on_c, 8, 35, 52
20, 730744, Note_on_c, 8, 34, 52
20, 730858, Note_on_c, 8, 35, 0
20, 730858, Note_on_c, 8, 34, 0
20, 730882, Note_on_c, 8, 34, 40
20, 730882, Note_on_c, 8, 35, 40
20, 731034, Note_on_c, 8, 34, 0
20, 731034, Note_on_c, 8, 35, 0
20, 731058, Note_on_c, 8, 35, 48
20, 731058, Note_on_c, 8, 34, 48
20, 731183, Note_on_c, 8, 35, 0
20, 731183, Note_on_c, 8, 34, 0
20, 731207, Note_on_c, 8, 35, 53
20, 731207, Note_on_c, 8, 34, 53
20, 731349, Note_on_c, 8, 35, 0
20, 731349, Note_on_c, 8, 34, 0
20, 731373, Note_on_c, 8, 34, 56
20, 731373, Note_on_c, 8, 35, 56
20, 731515, Note_on_c, 8, 34, 0
20, 731515, Note_on_c, 8, 35, 0
20, 731539, Note_on_c, 8, 35, 54
20, 731539, Note_on_c, 8, 34, 54
20, 731667, Note_on_c, 8, 35, 0
20, 731667, Note_on_c, 8, 34, 0
20, 731691, Note_on_c, 8, 34, 56
20, 731691, Note_on_c, 8, 35, 56
20, 731827, Note_on_c, 8, 34, 0
20, 731827, Note_on_c, 8, 35, 0
20, 731851, Note_on_c, 8, 35, 45
20, 731851, Note_on_c, 8, 34, 45
20, 731998, Note_on_c, 8, 35, 0
20, 731998, Note_on_c, 8, 34, 0
20, 732022, Note_on_c, 8, 34, 91
20, 732022, Note_on_c, 8, 35, 91
20, 732146, Note_on_c, 8, 34, 0
20, 732146, Note_on_c, 8, 35, 0
20, 732170, Note_on_c, 8, 35, 47
20, 732170, Note_on_c, 8, 34, 47
20, 732319, Note_on_c, 8, 35, 0
20, 732319, Note_on_c, 8, 34, 0
20, 732343, Note_on_c, 8, 34, 53
20, 732343, Note_on_c, 8, 35, 53
20, 732460, Note_on_c, 8, 34, 0
20, 732460, Note_on_c, 8, 35, 0
20, 732484, Note_on_c, 8, 35, 55
20, 732484, Note_on_c, 8, 34, 55
20, 732635, Note_on_c, 8, 35, 0
20, 732635, Note_on_c, 8, 34, 0
20, 732659, Note_on_c, 8, 34, 41
20, 732659, Note_on_c, 8, 35, 41
20, 732787, Note_on_c, 8, 34, 0
20, 732787, Note_on_c, 8, 35, 0
20, 732811, Note_on_c, 8, 34, 43
20, 732811, Note_on_c, 8, 35, 43
20, 732951, Note_on_c, 8, 34, 0
20, 732951, Note_on_c, 8, 35, 0
20, 732975, Note_on_c, 8, 35, 53
20, 732975, Note_on_c, 8, 34, 53
20, 733109, Note_on_c, 8, 35, 0
20, 733109, Note_on_c, 8, 34, 0
20, 733133, Note_on_c, 8, 34, 54
20, 733133, Note_on_c, 8, 35, 54
20, 733256, Note_on_c, 8, 34, 0
20, 733256, Note_on_c, 8, 35, 0
20, 733280, Note_on_c, 8, 35, 48
20, 733280, Note_on_c, 8, 34, 48
20, 733423, Note_on_c, 8, 35, 0
20, 733423, Note_on_c, 8, 34, 0
20, 733447, Note_on_c, 8, 34, 85
20, 733447, Note_on_c, 8, 35, 85
20, 733585, Note_on_c, 8, 34, 0
20, 733585, Note_on_c, 8, 35, 0
20, 733609, Note_on_c, 8, 35, 59
20, 733609, Note_on_c, 8, 34, 59
20, 733750, Note_on_c, 8, 35, 0
20, 733750, Note_on_c, 8, 34, 0
20, 733774, Note_on_c, 8, 34, 50
20, 733774, Note_on_c, 8, 35, 50
20, 733914, Note_on_c, 8, 34, 0
20, 733914, Note_on_c, 8, 35, 0
20, 733938, Note_on_c, 8, 35, 40
20, 733938, Note_on_c, 8, 34, 40
20, 734058, Note_on_c, 8, 35, 0
20, 734058, Note_on_c, 8, 34, 0
20, 734082, Note_on_c, 8, 34, 49
20, 734082, Note_on_c, 8, 35, 49
20, 734221, Note_on_c, 8, 34, 0
20, 734221, Note_on_c, 8, 35, 0
20, 734245, Note_on_c, 8, 35, 53
20, 734245, Note_on_c, 8, 34, 53
20, 734383, Note_on_c, 8, 35, 0
20, 734383, Note_on_c, 8, 34, 0
20, 734407, Note_on_c, 8, 35, 46
20, 734407, Note_on_c, 8, 34, 46
20, 734551, Note_on_c, 8, 35, 0
20, 734551, Note_on_c, 8, 34, 0
20, 734575, Note_on_c, 8, 34, 46
20, 734575, Note_on_c, 8, 35, 46
20, 734721, Note_on_c, 8, 34, 0
20, 734721, Note_on_c, 8, 35, 0
20, 734745, Note_on_c, 8, 35, 58
20, 734745, Note_on_c, 8, 34, 58
20, 734857, Note_on_c, 8, 35, 0
20, 734857, Note_on_c, 8, 34, 0
20, 734881, Note_on_c, 8, 34, 105
20, 734881, Note_on_c, 8, 35, 105
20, 735026, Note_on_c, 8, 34, 0
20, 735026, Note_on_c, 8, 35, 0
20, 735050, Note_on_c, 8, 35, 59
20, 735050, Note_on_c, 8, 34, 59
20, 735193, Note_on_c, 8, 35, 0
20, 735193, Note_on_c, 8, 34, 0
20, 735217, Note_on_c, 8, 34, 45
20, 735217, Note_on_c, 8, 35, 45
20, 735343, Note_on_c, 8, 34, 0
20, 735343, Note_on_c, 8, 35, 0
20, 735367, Note_on_c, 8, 35, 43
20, 735367, Note_on_c, 8, 34, 43
20, 735502, Note_on_c, 8, 35, 0
20, 735502, Note_on_c, 8, 34, 0
20, 735526, Note_on_c, 8, 34, 53
20, 735526, Note_on_c, 8, 35, 53
20, 735675, Note_on_c, 8, 34, 0
20, 735675, Note_on_c, 8, 35, 0
20, 735699, Note_on_c, 8, 35, 48
20, 735699, Note_on_c, 8, 34, 48
20, 735827, Note_on_c, 8, 35, 0
20, 735827, Note_on_c, 8, 34, 0
20, 735851, Note_on_c, 8, 35, 45
20, 735851, Note_on_c, 8, 34, 45
20, 735981, Note_on_c, 8, 35, 0
20, 735981, Note_on_c, 8, 34, 0
20, 736005, Note_on_c, 8, 34, 48
20, 736005, Note_on_c, 8, 35, 48
20, 736156, Note_on_c, 8, 34, 0
20, 736156, Note_on_c, 8, 35, 0
20, 736180, Note_on_c, 8, 35, 49
20, 736180, Note_on_c, 8, 34, 49
20, 736299, Note_on_c, 8, 35, 0
20, 736299, Note_on_c, 8, 34, 0
20, 736323, Note_on_c, 8, 34, 104
20, 736323, Note_on_c, 8, 35, 104
20, 736478, Note_on_c, 8, 34, 0
20, 736478, Note_on_c, 8, 35, 0
20, 736502, Note_on_c, 8, 35, 43
20, 736502, Note_on_c, 8, 34, 43
20, 736629, Note_on_c, 8, 35, 0
20, 736629, Note_on_c, 8, 34, 0
20, 736653, Note_on_c, 8, 34, 52
20, 736653, Note_on_c, 8, 35, 52
20, 736778, Note_on_c, 8, 34, 0
20, 736778, Note_on_c, 8, 35, 0
20, 736802, Note_on_c, 8, 35, 54
20, 736802, Note_on_c, 8, 34, 54
20, 736958, Note_on_c, 8, 35, 0
20, 736958, Note_on_c, 8, 34, 0
20, 736982, Note_on_c, 8, 34, 48
20, 736982, Note_on_c, 8, 35, 48
20, 737107, Note_on_c, 8, 34, 0
20, 737107, Note_on_c, 8, 35, 0
20, 737131, Note_on_c, 8, 35, 42
20, 737131, Note_on_c, 8, 34, 42
20, 737281, Note_on_c, 8, 35, 0
20, 737281, Note_on_c, 8, 34, 0
20, 737305, Note_on_c, 8, 35, 53
20, 737305, Note_on_c, 8, 34, 53
20, 737437, Note_on_c, 8, 35, 0
20, 737437, Note_on_c, 8, 34, 0
20, 737461, Note_on_c, 8, 34, 42
20, 737461, Note_on_c, 8, 35, 42
20, 737587, Note_on_c, 8, 34, 0
20, 737587, Note_on_c, 8, 35, 0
20, 737611, Note_on_c, 8, 35, 56
20, 737611, Note_on_c, 8, 34, 56
20, 737747, Note_on_c, 8, 35, 0
20, 737747, Note_on_c, 8, 34, 0
20, 737771, Note_on_c, 8, 34, 94
20, 737771, Note_on_c, 8, 35, 94
20, 737907, Note_on_c, 8, 34, 0
20, 737907, Note_on_c, 8, 35, 0
20, 737931, Note_on_c, 8, 35, 48
20, 737931, Note_on_c, 8, 34, 48
20, 738060, Note_on_c, 8, 35, 0
20, 738060, Note_on_c, 8, 34, 0
20, 738084, Note_on_c, 8, 34, 50
20, 738084, Note_on_c, 8, 35, 50
20, 738217, Note_on_c, 8, 34, 0
20, 738217, Note_on_c, 8, 35, 0
20, 738241, Note_on_c, 8, 35, 51
20, 738241, Note_on_c, 8, 34, 51
20, 738400, Note_on_c, 8, 35, 0
20, 738400, Note_on_c, 8, 34, 0
20, 738424, Note_on_c, 8, 34, 51
20, 738424, Note_on_c, 8, 35, 51
20, 738548, Note_on_c, 8, 34, 0
20, 738548, Note_on_c, 8, 35, 0
20, 738572, Note_on_c, 8, 35, 39
20, 738572, Note_on_c, 8, 34, 39
20, 738715, Note_on_c, 8, 35, 0
20, 738715, Note_on_c, 8, 34, 0
20, 738739, Note_on_c, 8, 34, 55
20, 738739, Note_on_c, 8, 35, 55
20, 738870, Note_on_c, 8, 34, 0
20, 738870, Note_on_c, 8, 35, 0
20, 738894, Note_on_c, 8, 35, 54
20, 738894, Note_on_c, 8, 34, 54
20, 739016, Note_on_c, 8, 35, 0
20, 739016, Note_on_c, 8, 34, 0
20, 739040, Note_on_c, 8, 34, 58
20, 739040, Note_on_c, 8, 35, 58
20, 739192, Note_on_c, 8, 34, 0
20, 739192, Note_on_c, 8, 35, 0
20, 739216, Note_on_c, 8, 35, 96
20, 739216, Note_on_c, 8, 34, 96
20, 739351, Note_on_c, 8, 35, 0
20, 739351, Note_on_c, 8, 34, 0
20, 739375, Note_on_c, 8, 34, 55
20, 739375, Note_on_c, 8, 35, 55
20, 739501, Note_on_c, 8, 34, 0
20, 739501, Note_on_c, 8, 35, 0
20, 739525, Note_on_c, 8, 35, 58
20, 739525, Note_on_c, 8, 34, 58
20, 739670, Note_on_c, 8, 35, 0
20, 739670, Note_on_c, 8, 34, 0
20, 739694, Note_on_c, 8, 34, 58
20, 739694, Note_on_c, 8, 35, 58
20, 739828, Note_on_c, 8, 34, 0
20, 739828, Note_on_c, 8, 35, 0
20, 739852, Note_on_c, 8, 35, 46
20, 739852, Note_on_c, 8, 34, 46
20, 739983, Note_on_c, 8, 35, 0
20, 739983, Note_on_c, 8, 34, 0
20, 740007, Note_on_c, 8, 34, 53
20, 740007, Note_on_c, 8, 35, 53
20, 740153, Note_on_c, 8, 34, 0
20, 740153, Note_on_c, 8, 35, 0
20, 740177, Note_on_c, 8, 35, 42
20, 740177, Note_on_c, 8, 34, 42
20, 740299, Note_on_c, 8, 35, 0
20, 740299, Note_on_c, 8, 34, 0
20, 740323, Note_on_c, 8, 35, 56
20, 740323, Note_on_c, 8, 34, 56
20, 740465, Note_on_c, 8, 35, 0
20, 740465, Note_on_c, 8, 34, 0
20, 740489, Note_on_c, 8, 34, 58
20, 740489, Note_on_c, 8, 35, 58
20, 740620, Note_on_c, 8, 34, 0
20, 740620, Note_on_c, 8, 35, 0
20, 740644, Note_on_c, 8, 35, 87
20, 740644, Note_on_c, 8, 34, 87
20, 740786, Note_on_c, 8, 35, 0
20, 740786, Note_on_c, 8, 34, 0
20, 740810, Note_on_c, 8, 34, 53
20, 740810, Note_on_c, 8, 35, 53
20, 740938, Note_on_c, 8, 34, 0
20, 740938, Note_on_c, 8, 35, 0
20, 740962, Note_on_c, 8, 35, 41
20, 740962, Note_on_c, 8, 34, 41
20, 741115, Note_on_c, 8, 35, 0
20, 741115, Note_on_c, 8, 34, 0
20, 741139, Note_on_c, 8, 34, 50
20, 741139, Note_on_c, 8, 35, 50
20, 741257, Note_on_c, 8, 34, 0
20, 741257, Note_on_c, 8, 35, 0
20, 741281, Note_on_c, 8, 35, 53
20, 741281, Note_on_c, 8, 34, 53
20, 741434, Note_on_c, 8, 35, 0
20, 741434, Note_on_c, 8, 34, 0
20, 741458, Note_on_c, 8, 34, 49
20, 741458, Note_on_c, 8, 35, 49
20, 741586, Note_on_c, 8, 34, 0
20, 741586, Note_on_c, 8, 35, 0
20, 741610, Note_on_c, 8, 35, 56
20, 741610, Note_on_c, 8, 34, 56
20, 741758, Note_on_c, 8, 35, 0
20, 741758, Note_on_c, 8, 34, 0
20, 741782, Note_on_c, 8, 35, 48
20, 741782, Note_on_c, 8, 34, 48
20, 741909, Note_on_c, 8, 35, 0
20, 741909, Note_on_c, 8, 34, 0
20, 741933, Note_on_c, 8, 34, 39
20, 741933, Note_on_c, 8, 35, 39
20, 742077, Note_on_c, 8, 34, 0
20, 742077, Note_on_c, 8, 35, 0
20, 742101, Note_on_c, 8, 35, 92
20, 742101, Note_on_c, 8, 34, 92
20, 742217, Note_on_c, 8, 35, 0
20, 742217, Note_on_c, 8, 34, 0
20, 742241, Note_on_c, 8, 34, 47
20, 742241, Note_on_c, 8, 35, 47
20, 742379, Note_on_c, 8, 34, 0
20, 742379, Note_on_c, 8, 35, 0
20, 742403, Note_on_c, 8, 35, 39
20, 742403, Note_on_c, 8, 34, 39
20, 742559, Note_on_c, 8, 35, 0
20, 742559, Note_on_c, 8, 34, 0
20, 742583, Note_on_c, 8, 34, 55
20, 742583, Note_on_c, 8, 35, 55
20, 742706, Note_on_c, 8, 34, 0
20, 742706, Note_on_c, 8, 35, 0
20, 742730, Note_on_c, 8, 35, 59
20, 742730, Note_on_c, 8, 34, 59
20, 742872, Note_on_c, 8, 35, 0
20, 742872, Note_on_c, 8, 34, 0
20, 742896, Note_on_c, 8, 34, 40
20, 742896, Note_on_c, 8, 35, 40
20, 743038, Note_on_c, 8, 34, 0
20, 743038, Note_on_c, 8, 35, 0
20, 743062, Note_on_c, 8, 35, 40
20, 743062, Note_on_c, 8, 34, 40
20, 743176, Note_on_c, 8, 35, 0
20, 743176, Note_on_c, 8, 34, 0
20, 743200, Note_on_c, 8, 35, 58
20, 743200, Note_on_c, 8, 34, 58
20, 743360, Note_on_c, 8, 35, 0
20, 743360, Note_on_c, 8, 34, 0
20, 743385, Note_on_c, 8, 34, 44
20, 743385, Note_on_c, 8, 35, 44
20, 743501, Note_on_c, 8, 34, 0
20, 743501, Note_on_c, 8, 35, 0
20, 743525, Note_on_c, 8, 35, 88
20, 743525, Note_on_c, 8, 34, 88
20, 743665, Note_on_c, 8, 35, 0
20, 743665, Note_on_c, 8, 34, 0
20, 743689, Note_on_c, 8, 34, 58
20, 743689, Note_on_c, 8, 35, 58
20, 743820, Note_on_c, 8, 34, 0
20, 743820, Note_on_c, 8, 35, 0
20, 743844, Note_on_c, 8, 35, 39
20, 743844, Note_on_c, 8, 34, 39
20, 743989, Note_on_c, 8, 35, 0
20, 743989, Note_on_c, 8, 34, 0
20, 744013, Note_on_c, 8, 34, 42
20, 744013, Note_on_c, 8, 35, 42
20, 744147, Note_on_c, 8, 34, 0
20, 744147, Note_on_c, 8, 35, 0
20, 744171, Note_on_c, 8, 35, 48
20, 744171, Note_on_c, 8, 34, 48
20, 744306, Note_on_c, 8, 35, 0
20, 744306, Note_on_c, 8, 34, 0
20, 744330, Note_on_c, 8, 34, 45
20, 744330, Note_on_c, 8, 35, 45
20, 744460, Note_on_c, 8, 34, 0
20, 744460, Note_on_c, 8, 35, 0
20, 744484, Note_on_c, 8, 35, 39
20, 744484, Note_on_c, 8, 34, 39
20, 744621, Note_on_c, 8, 35, 0
20, 744621, Note_on_c, 8, 34, 0
20, 744645, Note_on_c, 8, 34, 41
20, 744645, Note_on_c, 8, 35, 41
20, 744792, Note_on_c, 8, 34, 0
20, 744792, Note_on_c, 8, 35, 0
20, 744816, Note_on_c, 8, 34, 51
20, 744816, Note_on_c, 8, 35, 51
20, 744959, Note_on_c, 8, 34, 0
20, 744959, Note_on_c, 8, 35, 0
20, 744983, Note_on_c, 8, 35, 103
20, 744983, Note_on_c, 8, 34, 103
20, 745113, Note_on_c, 8, 35, 0
20, 745113, Note_on_c, 8, 34, 0
20, 745137, Note_on_c, 8, 34, 50
20, 745137, Note_on_c, 8, 35, 50
20, 745275, Note_on_c, 8, 34, 0
20, 745275, Note_on_c, 8, 35, 0
20, 745299, Note_on_c, 8, 35, 49
20, 745299, Note_on_c, 8, 34, 49
20, 745417, Note_on_c, 8, 35, 0
20, 745417, Note_on_c, 8, 34, 0
20, 745441, Note_on_c, 8, 34, 53
20, 745441, Note_on_c, 8, 35, 53
20, 745596, Note_on_c, 8, 34, 0
20, 745596, Note_on_c, 8, 35, 0
20, 745620, Note_on_c, 8, 35, 48
20, 745620, Note_on_c, 8, 34, 48
20, 745741, Note_on_c, 8, 35, 0
20, 745741, Note_on_c, 8, 34, 0
20, 745765, Note_on_c, 8, 34, 43
20, 745765, Note_on_c, 8, 35, 43
20, 745904, Note_on_c, 8, 34, 0
20, 745904, Note_on_c, 8, 35, 0
20, 745928, Note_on_c, 8, 35, 55
20, 745928, Note_on_c, 8, 34, 55
20, 746074, Note_on_c, 8, 35, 0
20, 746074, Note_on_c, 8, 34, 0
20, 746098, Note_on_c, 8, 34, 51
20, 746098, Note_on_c, 8, 35, 51
20, 746224, Note_on_c, 8, 34, 0
20, 746224, Note_on_c, 8, 35, 0
20, 746248, Note_on_c, 8, 35, 51
20, 746248, Note_on_c, 8, 34, 51
20, 746390, Note_on_c, 8, 35, 0
20, 746390, Note_on_c, 8, 34, 0
20, 746414, Note_on_c, 8, 35, 101
20, 746414, Note_on_c, 8, 34, 101
20, 746547, Note_on_c, 8, 35, 0
20, 746547, Note_on_c, 8, 34, 0
20, 746571, Note_on_c, 8, 34, 48
20, 746571, Note_on_c, 8, 35, 48
20, 746706, Note_on_c, 8, 34, 0
20, 746706, Note_on_c, 8, 35, 0
20, 746730, Note_on_c, 8, 35, 59
20, 746730, Note_on_c, 8, 34, 59
20, 746860, Note_on_c, 8, 35, 0
20, 746860, Note_on_c, 8, 34, 0
20, 746884, Note_on_c, 8, 34, 59
20, 746884, Note_on_c, 8, 35, 59
20, 747022, Note_on_c, 8, 34, 0
20, 747022, Note_on_c, 8, 35, 0
20, 747046, Note_on_c, 8, 35, 56
20, 747046, Note_on_c, 8, 34, 56
20, 747198, Note_on_c, 8, 35, 0
20, 747198, Note_on_c, 8, 34, 0
20, 747222, Note_on_c, 8, 34, 47
20, 747222, Note_on_c, 8, 35, 47
20, 747360, Note_on_c, 8, 34, 0
20, 747360, Note_on_c, 8, 35, 0
20, 747384, Note_on_c, 8, 35, 39
20, 747384, Note_on_c, 8, 34, 39
20, 747511, Note_on_c, 8, 35, 0
20, 747511, Note_on_c, 8, 34, 0
20, 747535, Note_on_c, 8, 34, 45
20, 747535, Note_on_c, 8, 35, 45
20, 747676, Note_on_c, 8, 34, 0
20, 747676, Note_on_c, 8, 35, 0
20, 747700, Note_on_c, 8, 35, 44
20, 747700, Note_on_c, 8, 34, 44
20, 747836, Note_on_c, 8, 35, 0
20, 747836, Note_on_c, 8, 34, 0
20, 747860, Note_on_c, 8, 35, 105
20, 747860, Note_on_c, 8, 34, 105
20, 747991, Note_on_c, 8, 35, 0
20, 747991, Note_on_c, 8, 34, 0
20, 748015, Note_on_c, 8, 34, 55
20, 748015, Note_on_c, 8, 35, 55
20, 748136, Note_on_c, 8, 34, 0
20, 748136, Note_on_c, 8, 35, 0
20, 748160, Note_on_c, 8, 35, 49
20, 748160, Note_on_c, 8, 34, 49
20, 748300, Note_on_c, 8, 35, 0
20, 748300, Note_on_c, 8, 34, 0
20, 748324, Note_on_c, 8, 34, 41
20, 748324, Note_on_c, 8, 35, 41
20, 748467, Note_on_c, 8, 34, 0
20, 748467, Note_on_c, 8, 35, 0
20, 748491, Note_on_c, 8, 35, 49
20, 748491, Note_on_c, 8, 34, 49
20, 748627, Note_on_c, 8, 35, 0
20, 748627, Note_on_c, 8, 34, 0
20, 748651, Note_on_c, 8, 34, 58
20, 748651, Note_on_c, 8, 35, 58
20, 748780, Note_on_c, 8, 34, 0
20, 748780, Note_on_c, 8, 35, 0
20, 748804, Note_on_c, 8, 35, 48
20, 748804, Note_on_c, 8, 34, 48
20, 748951, Note_on_c, 8, 35, 0
20, 748951, Note_on_c, 8, 34, 0
20, 748975, Note_on_c, 8, 34, 58
20, 748975, Note_on_c, 8, 35, 58
20, 749110, Note_on_c, 8, 34, 0
20, 749110, Note_on_c, 8, 35, 0
20, 749134, Note_on_c, 8, 35, 44
20, 749134, Note_on_c, 8, 34, 44
20, 749271, Note_on_c, 8, 35, 0
20, 749271, Note_on_c, 8, 34, 0
20, 749295, Note_on_c, 8, 35, 102
20, 749295, Note_on_c, 8, 34, 102
20, 749420, Note_on_c, 8, 35, 0
20, 749420, Note_on_c, 8, 34, 0
20, 749444, Note_on_c, 8, 34, 44
20, 749444, Note_on_c, 8, 35, 44
20, 749591, Note_on_c, 8, 34, 0
20, 749591, Note_on_c, 8, 35, 0
20, 749615, Note_on_c, 8, 35, 52
20, 749615, Note_on_c, 8, 34, 52
20, 749743, Note_on_c, 8, 35, 0
20, 749743, Note_on_c, 8, 34, 0
20, 749767, Note_on_c, 8, 34, 48
20, 749767, Note_on_c, 8, 35, 48
20, 749906, Note_on_c, 8, 34, 0
20, 749906, Note_on_c, 8, 35, 0
20, 749930, Note_on_c, 8, 35, 42
20, 749930, Note_on_c, 8, 34, 42
20, 750077, Note_on_c, 8, 35, 0
20, 750077, Note_on_c, 8, 34, 0
20, 750101, Note_on_c, 8, 34, 58
20, 750101, Note_on_c, 8, 35, 58
20, 750234, Note_on_c, 8, 34, 0
20, 750234, Note_on_c, 8, 35, 0
20, 750258, Note_on_c, 8, 35, 57
20, 750258, Note_on_c, 8, 34, 57
20, 750394, Note_on_c, 8, 35, 0
20, 750394, Note_on_c, 8, 34, 0
20, 750418, Note_on_c, 8, 34, 52
20, 750418, Note_on_c, 8, 35, 52
20, 750542, Note_on_c, 8, 34, 0
20, 750542, Note_on_c, 8, 35, 0
20, 750566, Note_on_c, 8, 35, 47
20, 750566, Note_on_c, 8, 34, 47
20, 750701, Note_on_c, 8, 35, 0
20, 750701, Note_on_c, 8, 34, 0
20, 750725, Note_on_c, 8, 34, 85
20, 750725, Note_on_c, 8, 35, 85
20, 750861, Note_on_c, 8, 34, 0
20, 750861, Note_on_c, 8, 35, 0
20, 750885, Note_on_c, 8, 35, 56
20, 750885, Note_on_c, 8, 34, 56
20, 751022, Note_on_c, 8, 35, 0
20, 751022, Note_on_c, 8, 34, 0
20, 751046, Note_on_c, 8, 34, 39
20, 751046, Note_on_c, 8, 35, 39
20, 751178, Note_on_c, 8, 34, 0
20, 751178, Note_on_c, 8, 35, 0
20, 751202, Note_on_c, 8, 35, 41
20, 751202, Note_on_c, 8, 34, 41
20, 751345, Note_on_c, 8, 35, 0
20, 751345, Note_on_c, 8, 34, 0
20, 751369, Note_on_c, 8, 34, 52
20, 751369, Note_on_c, 8, 35, 52
20, 751502, Note_on_c, 8, 34, 0
20, 751502, Note_on_c, 8, 35, 0
20, 751526, Note_on_c, 8, 35, 59
20, 751526, Note_on_c, 8, 34, 59
20, 751670, Note_on_c, 8, 35, 0
20, 751670, Note_on_c, 8, 34, 0
20, 751694, Note_on_c, 8, 34, 56
20, 751694, Note_on_c, 8, 35, 56
20, 751827, Note_on_c, 8, 34, 0
20, 751827, Note_on_c, 8, 35, 0
20, 751851, Note_on_c, 8, 35, 39
20, 751851, Note_on_c, 8, 34, 39
20, 751994, Note_on_c, 8, 35, 0
20, 751994, Note_on_c, 8, 34, 0
20, 752018, Note_on_c, 8, 34, 56
20, 752018, Note_on_c, 8, 35, 56
20, 752146, Note_on_c, 8, 34, 0
20, 752146, Note_on_c, 8, 35, 0
20, 752170, Note_on_c, 8, 35, 87
20, 752170, Note_on_c, 8, 34, 87
20, 752300, Note_on_c, 8, 35, 0
20, 752300, Note_on_c, 8, 34, 0
20, 752324, Note_on_c, 8, 35, 39
20, 752324, Note_on_c, 8, 34, 39
20, 752480, Note_on_c, 8, 35, 0
20, 752480, Note_on_c, 8, 34, 0
20, 752504, Note_on_c, 8, 34, 39
20, 752504, Note_on_c, 8, 35, 39
20, 752640, Note_on_c, 8, 34, 0
20, 752640, Note_on_c, 8, 35, 0
20, 752664, Note_on_c, 8, 35, 57
20, 752664, Note_on_c, 8, 34, 57
20, 752786, Note_on_c, 8, 35, 0
20, 752786, Note_on_c, 8, 34, 0
20, 752810, Note_on_c, 8, 34, 43
20, 752810, Note_on_c, 8, 35, 43
20, 752938, Note_on_c, 8, 34, 0
20, 752938, Note_on_c, 8, 35, 0
20, 752962, Note_on_c, 8, 35, 58
20, 752962, Note_on_c, 8, 34, 58
20, 753121, Note_on_c, 8, 35, 0
20, 753121, Note_on_c, 8, 34, 0
20, 753145, Note_on_c, 8, 34, 44
20, 753145, Note_on_c, 8, 35, 44
20, 753266, Note_on_c, 8, 34, 0
20, 753266, Note_on_c, 8, 35, 0
20, 753290, Note_on_c, 8, 35, 45
20, 753290, Note_on_c, 8, 34, 45
20, 753419, Note_on_c, 8, 35, 0
20, 753419, Note_on_c, 8, 34, 0
20, 753443, Note_on_c, 8, 34, 47
20, 753443, Note_on_c, 8, 35, 47
20, 753580, Note_on_c, 8, 34, 0
20, 753580, Note_on_c, 8, 35, 0
20, 753604, Note_on_c, 8, 35, 91
20, 753604, Note_on_c, 8, 34, 91
20, 753739, Note_on_c, 8, 35, 0
20, 753739, Note_on_c, 8, 34, 0
20, 753763, Note_on_c, 8, 35, 39
20, 753763, Note_on_c, 8, 34, 39
20, 753909, Note_on_c, 8, 35, 0
20, 753909, Note_on_c, 8, 34, 0
20, 753933, Note_on_c, 8, 34, 47
20, 753933, Note_on_c, 8, 35, 47
20, 754061, Note_on_c, 8, 34, 0
20, 754061, Note_on_c, 8, 35, 0
20, 754085, Note_on_c, 8, 35, 47
20, 754085, Note_on_c, 8, 34, 47
20, 754238, Note_on_c, 8, 35, 0
20, 754238, Note_on_c, 8, 34, 0
20, 754262, Note_on_c, 8, 34, 59
20, 754262, Note_on_c, 8, 35, 59
20, 754378, Note_on_c, 8, 34, 0
20, 754378, Note_on_c, 8, 35, 0
20, 754402, Note_on_c, 8, 35, 54
20, 754402, Note_on_c, 8, 34, 54
20, 754538, Note_on_c, 8, 35, 0
20, 754538, Note_on_c, 8, 34, 0
20, 754562, Note_on_c, 8, 34, 52
20, 754562, Note_on_c, 8, 35, 52
20, 754700, Note_on_c, 8, 34, 0
20, 754700, Note_on_c, 8, 35, 0
20, 754724, Note_on_c, 8, 35, 46
20, 754724, Note_on_c, 8, 34, 46
20, 754873, Note_on_c, 8, 35, 0
20, 754873, Note_on_c, 8, 34, 0
20, 754897, Note_on_c, 8, 34, 44
20, 754897, Note_on_c, 8, 35, 44
20, 755022, Note_on_c, 8, 34, 0
20, 755022, Note_on_c, 8, 35, 0
20, 755046, Note_on_c, 8, 35, 87
20, 755046, Note_on_c, 8, 34, 87
20, 755188, Note_on_c, 8, 35, 0
20, 755188, Note_on_c, 8, 34, 0
20, 755212, Note_on_c, 8, 35, 47
20, 755212, Note_on_c, 8, 34, 47
20, 755354, Note_on_c, 8, 35, 0
20, 755354, Note_on_c, 8, 34, 0
20, 755378, Note_on_c, 8, 34, 58
20, 755378, Note_on_c, 8, 35, 58
20, 755514, Note_on_c, 8, 34, 0
20, 755514, Note_on_c, 8, 35, 0
20, 755538, Note_on_c, 8, 35, 59
20, 755538, Note_on_c, 8, 34, 59
20, 755678, Note_on_c, 8, 35, 0
20, 755678, Note_on_c, 8, 34, 0
20, 755702, Note_on_c, 8, 34, 46
20, 755702, Note_on_c, 8, 35, 46
20, 755818, Note_on_c, 8, 34, 0
20, 755818, Note_on_c, 8, 35, 0
20, 755842, Note_on_c, 8, 35, 55
20, 755842, Note_on_c, 8, 34, 55
20, 755991, Note_on_c, 8, 35, 0
20, 755991, Note_on_c, 8, 34, 0
20, 756015, Note_on_c, 8, 34, 50
20, 756015, Note_on_c, 8, 35, 50
20, 756149, Note_on_c, 8, 34, 0
20, 756149, Note_on_c, 8, 35, 0
20, 756173, Note_on_c, 8, 35, 47
20, 756173, Note_on_c, 8, 34, 47
20, 756308, Note_on_c, 8, 35, 0
20, 756308, Note_on_c, 8, 34, 0
20, 756332, Note_on_c, 8, 34, 41
20, 756332, Note_on_c, 8, 35, 41
20, 756456, Note_on_c, 8, 34, 0
20, 756456, Note_on_c, 8, 35, 0
20, 756480, Note_on_c, 8, 35, 99
20, 756480, Note_on_c, 8, 34, 99
20, 756619, Note_on_c, 8, 35, 0
20, 756619, Note_on_c, 8, 34, 0
20, 756643, Note_on_c, 8, 34, 54
20, 756643, Note_on_c, 8, 35, 54
20, 756778, Note_on_c, 8, 34, 0
20, 756778, Note_on_c, 8, 35, 0
20, 756802, Note_on_c, 8, 34, 58
20, 756802, Note_on_c, 8, 35, 58
20, 756951, Note_on_c, 8, 34, 0
20, 756951, Note_on_c, 8, 35, 0
20, 756975, Note_on_c, 8, 35, 43
20, 756975, Note_on_c, 8, 34, 43
20, 757098, Note_on_c, 8, 35, 0
20, 757098, Note_on_c, 8, 34, 0
20, 757122, Note_on_c, 8, 34, 49
20, 757122, Note_on_c, 8, 35, 49
20, 757267, Note_on_c, 8, 34, 0
20, 757267, Note_on_c, 8, 35, 0
20, 757291, Note_on_c, 8, 35, 57
20, 757291, Note_on_c, 8, 34, 57
20, 757423, Note_on_c, 8, 35, 0
20, 757423, Note_on_c, 8, 34, 0
20, 757447, Note_on_c, 8, 34, 39
20, 757447, Note_on_c, 8, 35, 39
20, 757595, Note_on_c, 8, 34, 0
20, 757595, Note_on_c, 8, 35, 0
20, 757619, Note_on_c, 8, 35, 43
20, 757619, Note_on_c, 8, 34, 43
20, 757741, Note_on_c, 8, 35, 0
20, 757741, Note_on_c, 8, 34, 0
20, 757765, Note_on_c, 8, 34, 44
20, 757765, Note_on_c, 8, 35, 44
20, 757917, Note_on_c, 8, 34, 0
20, 757917, Note_on_c, 8, 35, 0
20, 757941, Note_on_c, 8, 35, 99
20, 757941, Note_on_c, 8, 34, 99
20, 758076, Note_on_c, 8, 35, 0
20, 758076, Note_on_c, 8, 34, 0
20, 758100, Note_on_c, 8, 34, 54
20, 758100, Note_on_c, 8, 35, 54
20, 758230, Note_on_c, 8, 34, 0
20, 758230, Note_on_c, 8, 35, 0
20, 758254, Note_on_c, 8, 35, 57
20, 758254, Note_on_c, 8, 34, 57
20, 758400, Note_on_c, 8, 35, 0
20, 758400, Note_on_c, 8, 34, 0
20, 758424, Note_on_c, 8, 35, 40
20, 758424, Note_on_c, 8, 34, 40
20, 758536, Note_on_c, 8, 35, 0
20, 758536, Note_on_c, 8, 34, 0
20, 758560, Note_on_c, 8, 34, 42
20, 758560, Note_on_c, 8, 35, 42
20, 758720, Note_on_c, 8, 34, 0
20, 758720, Note_on_c, 8, 35, 0
20, 758745, Note_on_c, 8, 35, 42
20, 758745, Note_on_c, 8, 34, 42
20, 758873, Note_on_c, 8, 35, 0
20, 758873, Note_on_c, 8, 34, 0
20, 758897, Note_on_c, 8, 34, 52
20, 758897, Note_on_c, 8, 35, 52
20, 759035, Note_on_c, 8, 34, 0
20, 759035, Note_on_c, 8, 35, 0
20, 759059, Note_on_c, 8, 35, 39
20, 759059, Note_on_c, 8, 34, 39
20, 759200, Note_on_c, 8, 35, 0
20, 759200, Note_on_c, 8, 34, 0
20, 759224, Note_on_c, 8, 34, 58
20, 759224, Note_on_c, 8, 35, 58
20, 759351, Note_on_c, 8, 34, 0
20, 759351, Note_on_c, 8, 35, 0
20, 759375, Note_on_c, 8, 35, 91
20, 759375, Note_on_c, 8, 34, 91
20, 759495, Note_on_c, 8, 35, 0
20, 759495, Note_on_c, 8, 34, 0
20, 759519, Note_on_c, 8, 34, 43
20, 759519, Note_on_c, 8, 35, 43
20, 759659, Note_on_c, 8, 34, 0
20, 759659, Note_on_c, 8, 35, 0
20, 759683, Note_on_c, 8, 35, 39
20, 759683, Note_on_c, 8, 34, 39
20, 759840, Note_on_c, 8, 35, 0
20, 759840, Note_on_c, 8, 34, 0
20, 759864, Note_on_c, 8, 35, 44
20, 759864, Note_on_c, 8, 34, 44
20, 759978, Note_on_c, 8, 35, 0
20, 759978, Note_on_c, 8, 34, 0
20, 760002, Note_on_c, 8, 34, 44
20, 760002, Note_on_c, 8, 35, 44
20, 760141, Note_on_c, 8, 34, 0
20, 760141, Note_on_c, 8, 35, 0
20, 760165, Note_on_c, 8, 35, 40
20, 760165, Note_on_c, 8, 34, 40
20, 760321, Note_on_c, 8, 35, 0
20, 760321, Note_on_c, 8, 34, 0
20, 760345, Note_on_c, 8, 34, 59
20, 760345, Note_on_c, 8, 35, 59
20, 760458, Note_on_c, 8, 34, 0
20, 760458, Note_on_c, 8, 35, 0
20, 760482, Note_on_c, 8, 35, 57
20, 760482, Note_on_c, 8, 34, 57
20, 760628, Note_on_c, 8, 35, 0
20, 760628, Note_on_c, 8, 34, 0
20, 760652, Note_on_c, 8, 34, 56
20, 760652, Note_on_c, 8, 35, 56
20, 760790, Note_on_c, 8, 34, 0
20, 760790, Note_on_c, 8, 35, 0
20, 760814, Note_on_c, 8, 35, 85
20, 760814, Note_on_c, 8, 34, 85
20, 760943, Note_on_c, 8, 35, 0
20, 760943, Note_on_c, 8, 34, 0
20, 760967, Note_on_c, 8, 34, 54
20, 760967, Note_on_c, 8, 35, 54
20, 761099, Note_on_c, 8, 34, 0
20, 761099, Note_on_c, 8, 35, 0
20, 761123, Note_on_c, 8, 35, 42
20, 761123, Note_on_c, 8, 34, 42
20, 761280, Note_on_c, 8, 35, 0
20, 761280, Note_on_c, 8, 34, 0
20, 761304, Note_on_c, 8, 35, 51
20, 761304, Note_on_c, 8, 34, 51
20, 761416, Note_on_c, 8, 35, 0
20, 761416, Note_on_c, 8, 34, 0
20, 761440, Note_on_c, 8, 34, 58
20, 761440, Note_on_c, 8, 35, 58
20, 761600, Note_on_c, 8, 34, 0
20, 761600, Note_on_c, 8, 35, 0
20, 761624, Note_on_c, 8, 35, 58
20, 761624, Note_on_c, 8, 34, 58
20, 761746, Note_on_c, 8, 35, 0
20, 761746, Note_on_c, 8, 34, 0
20, 761770, Note_on_c, 8, 34, 57
20, 761770, Note_on_c, 8, 35, 57
20, 761898, Note_on_c, 8, 34, 0
20, 761898, Note_on_c, 8, 35, 0
20, 761922, Note_on_c, 8, 35, 51
20, 761922, Note_on_c, 8, 34, 51
20, 762078, Note_on_c, 8, 35, 0
20, 762078, Note_on_c, 8, 34, 0
20, 762102, Note_on_c, 8, 34, 59
20, 762102, Note_on_c, 8, 35, 59
20, 762217, Note_on_c, 8, 34, 0
20, 762217, Note_on_c, 8, 35, 0
20, 762241, Note_on_c, 8, 35, 105
20, 762241, Note_on_c, 8, 34, 105
20, 762389, Note_on_c, 8, 35, 0
20, 762389, Note_on_c, 8, 34, 0
20, 762413, Note_on_c, 8, 34, 51
20, 762413, Note_on_c, 8, 35, 51
20, 762537, Note_on_c, 8, 34, 0
20, 762537, Note_on_c, 8, 35, 0
20, 762561, Note_on_c, 8, 35, 42
20, 762561, Note_on_c, 8, 34, 42
20, 762720, Note_on_c, 8, 35, 0
20, 762720, Note_on_c, 8, 34, 0
20, 762745, Note_on_c, 8, 34, 49
20, 762745, Note_on_c, 8, 35, 49
20, 762859, Note_on_c, 8, 34, 0
20, 762859, Note_on_c, 8, 35, 0
20, 762883, Note_on_c, 8, 35, 58
20, 762883, Note_on_c, 8, 34, 58
20, 763037, Note_on_c, 8, 35, 0
20, 763037, Note_on_c, 8, 34, 0
20, 763061, Note_on_c, 8, 34, 47
20, 763061, Note_on_c, 8, 35, 47
20, 763185, Note_on_c, 8, 34, 0
20, 763185, Note_on_c, 8, 35, 0
20, 763209, Note_on_c, 8, 35, 56
20, 763209, Note_on_c, 8, 34, 56
20, 763346, Note_on_c, 8, 35, 0
20, 763346, Note_on_c, 8, 34, 0
20, 763370, Note_on_c, 8, 34, 48
20, 763370, Note_on_c, 8, 35, 48
20, 763504, Note_on_c, 8, 34, 0
20, 763504, Note_on_c, 8, 35, 0
20, 763528, Note_on_c, 8, 35, 47
20, 763528, Note_on_c, 8, 34, 47
20, 763668, Note_on_c, 8, 35, 0
20, 763668, Note_on_c, 8, 34, 0
20, 763692, Note_on_c, 8, 34, 96
20, 763692, Note_on_c, 8, 35, 96
20, 763823, Note_on_c, 8, 34, 0
20, 763823, Note_on_c, 8, 35, 0
20, 763847, Note_on_c, 8, 35, 55
20, 763847, Note_on_c, 8, 34, 55
20, 763977, Note_on_c, 8, 35, 0
20, 763977, Note_on_c, 8, 34, 0
20, 764001, Note_on_c, 8, 34, 44
20, 764001, Note_on_c, 8, 35, 44
20, 764139, Note_on_c, 8, 34, 0
20, 764139, Note_on_c, 8, 35, 0
20, 764163, Note_on_c, 8, 35, 54
20, 764163, Note_on_c, 8, 34, 54
20, 764319, Note_on_c, 8, 35, 0
20, 764319, Note_on_c, 8, 34, 0
20, 764343, Note_on_c, 8, 35, 54
20, 764343, Note_on_c, 8, 34, 54
20, 764472, Note_on_c, 8, 35, 0
20, 764472, Note_on_c, 8, 34, 0
20, 764496, Note_on_c, 8, 34, 54
20, 764496, Note_on_c, 8, 35, 54
20, 764634, Note_on_c, 8, 34, 0
20, 764634, Note_on_c, 8, 35, 0
20, 764658, Note_on_c, 8, 35, 77
20, 764658, Note_on_c, 8, 34, 77
20, 764791, Note_on_c, 8, 35, 0
20, 764791, Note_on_c, 8, 34, 0
20, 764815, Note_on_c, 8, 34, 77
20, 764815, Note_on_c, 8, 35, 77
20, 764937, Note_on_c, 8, 34, 0
20, 764937, Note_on_c, 8, 35, 0
20, 764961, Note_on_c, 8, 35, 73
20, 764961, Note_on_c, 8, 34, 73
20, 765115, Note_on_c, 8, 35, 0
20, 765115, Note_on_c, 8, 34, 0
20, 765139, Note_on_c, 8, 34, 88
20, 765139, Note_on_c, 8, 35, 88
20, 765259, Note_on_c, 8, 34, 0
20, 765259, Note_on_c, 8, 35, 0
20, 765283, Note_on_c, 8, 35, 72
20, 765283, Note_on_c, 8, 34, 72
20, 765435, Note_on_c, 8, 35, 0
20, 765435, Note_on_c, 8, 34, 0
20, 765459, Note_on_c, 8, 34, 85
20, 765459, Note_on_c, 8, 35, 85
20, 765587, Note_on_c, 8, 34, 0
20, 765587, Note_on_c, 8, 35, 0
20, 765611, Note_on_c, 8, 35, 82
20, 765611, Note_on_c, 8, 34, 82
20, 765760, Note_on_c, 8, 35, 0
20, 765760, Note_on_c, 8, 34, 0
20, 765784, Note_on_c, 8, 35, 88
20, 765784, Note_on_c, 8, 34, 88
20, 765921, Note_on_c, 8, 35, 0
20, 765921, Note_on_c, 8, 34, 0
20, 765945, Note_on_c, 8, 34, 96
20, 765945, Note_on_c, 8, 35, 96
20, 766077, Note_on_c, 8, 34, 0
20, 766077, Note_on_c, 8, 35, 0
20, 766101, Note_on_c, 8, 35, 90
20, 766101, Note_on_c, 8, 34, 90
20, 766301, Note_on_c, 8, 35, 0
20, 766301, Note_on_c, 8, 34, 0
20, 766325, Note_on_c, 8, 34, 97
20, 766325, Note_on_c, 8, 35, 97
20, 766546, Note_on_c, 8, 34, 0
20, 766546, Note_on_c, 8, 35, 0
20, 766570, Note_on_c, 8, 35, 86
20, 766570, Note_on_c, 8, 34, 86
20, 766797, Note_on_c, 8, 35, 0
20, 766797, Note_on_c, 8, 34, 0
20, 766821, Note_on_c, 8, 34, 89
20, 766821, Note_on_c, 8, 35, 89
20, 767029, Note_on_c, 8, 34, 0
20, 767029, Note_on_c, 8, 35, 0
20, 767053, Note_on_c, 8, 35, 95
20, 767053, Note_on_c, 8, 34, 95
20, 767258, Note_on_c, 8, 35, 0
20, 767258, Note_on_c, 8, 34, 0
20, 767282, Note_on_c, 8, 34, 112
20, 767282, Note_on_c, 8, 35, 112
20, 767510, Note_on_c, 8, 34, 0
20, 767510, Note_on_c, 8, 35, 0
20, 767534, Note_on_c, 8, 35, 76
20, 767534, Note_on_c, 8, 34, 76
20, 767996, Note_on_c, 8, 35, 0
20, 767996, Note_on_c, 8, 34, 0
20, 768020, Note_on_c, 8, 35, 80
20, 768020, Note_on_c, 8, 34, 80
20, 768467, Note_on_c, 8, 35, 0
20, 768467, Note_on_c, 8, 34, 0
20, 768491, Note_on_c, 8, 34, 96
20, 768491, Note_on_c, 8, 35, 96
20, 768946, Note_on_c, 8, 34, 0
20, 768946, Note_on_c, 8, 35, 0
20, 768970, Note_on_c, 8, 35, 98
20, 768970, Note_on_c, 8, 34, 98
20, 769438, Note_on_c, 8, 35, 0
20, 769438, Note_on_c, 8, 34, 0
20, 769462, Note_on_c, 8, 34, 106
20, 769462, Note_on_c, 8, 35, 106
20, 769917, Note_on_c, 8, 34, 0
20, 769917, Note_on_c, 8, 35, 0
20, 769941, Note_on_c, 8, 35, 108
20, 769941, Note_on_c, 8, 34, 108
20, 770382, Note_on_c, 8, 35, 0
20, 770382, Note_on_c, 8, 34, 0
20, 770406, Note_on_c, 8, 34, 103
20, 770406, Note_on_c, 8, 35, 103
20, 770869, Note_on_c, 8, 34, 0
20, 770869, Note_on_c, 8, 35, 0
20, 770893, Note_on_c, 8, 35, 109
20, 770893, Note_on_c, 8, 34, 109
20, 771360, Note_on_c, 8, 35, 0
20, 771360, Note_on_c, 8, 34, 0
20, 771384, Note_on_c, 8, 34, 121
20, 771384, Note_on_c, 8, 35, 121
20, 771817, Note_on_c, 8, 34, 0
20, 771817, Note_on_c, 8, 35, 0
20, 771841, Note_on_c, 8, 35, 117
20, 771841, Note_on_c, 8, 34, 117
20, 772313, Note_on_c, 8, 35, 0
20, 772313, Note_on_c, 8, 34, 0
20, 772337, Note_on_c, 8, 34, 127
20, 772337, Note_on_c, 8, 35, 127
20, 772792, Note_on_c, 8, 34, 0
20, 772792, Note_on_c, 8, 35, 0
20, 772816, Note_on_c, 8, 35, 123
20, 772816, Note_on_c, 8, 34, 123
20, 773296, Note_on_c, 8, 35, 0
20, 773296, Note_on_c, 8, 34, 0
20, 773296, End_track
21, 0, Start_track
21, 0, Title_t, "Tam-tam"
21, 0, MIDI_port, 0
21, 0, Program_c, 9, 0
21, 0, Control_c, 9, 7, 127
21, 0, Control_c, 9, 10, 64
21, 0, Control_c, 9, 91, 127
21, 419511, Control_c, 9, 99, 22
21, 419512, Control_c, 9, 98, 52
21, 419513, Control_c, 9, 6, 0
21, 419514, Control_c, 9, 38, 0
21, 425271, Control_c, 9, 99, 99
21, 425272, Control_c, 9, 98, 52
21, 425273, Control_c, 9, 6, 57
21, 425274, Control_c, 9, 38, 0
21, 426738, Note_on_c, 9, 52, 92
21, 427218, Note_on_c, 9, 52, 0
21, 428651, Note_on_c, 9, 52, 85
21, 429131, Note_on_c, 9, 52, 0
21, 430573, Note_on_c, 9, 52, 80
21, 431053, Note_on_c, 9, 52, 0
21, 434890, Note_on_c, 9, 52, 95
21, 435370, Note_on_c, 9, 52, 0
21, 438244, Note_on_c, 9, 52, 81
21, 438724, Note_on_c, 9, 52, 0
21, 440168, Note_on_c, 9, 52, 94
21, 440648, Note_on_c, 9, 52, 0
21, 443529, Note_on_c, 9, 52, 97
21, 444009, Note_on_c, 9, 52, 0
21, 639138, Note_on_c, 9, 52, 96
21, 639858, Note_on_c, 9, 52, 0
21, 640576, Note_on_c, 9, 52, 98
21, 641296, Note_on_c, 9, 52, 0
21, 642002, Note_on_c, 9, 52, 80
21, 642722, Note_on_c, 9, 52, 0
21, 643445, Note_on_c, 9, 52, 93
21, 644165, Note_on_c, 9, 52, 0
21, 644890, Note_on_c, 9, 52, 93
21, 645610, Note_on_c, 9, 52, 0
21, 646330, Note_on_c, 9, 52, 89
21, 647050, Note_on_c, 9, 52, 0
21, 647782, Note_on_c, 9, 52, 83
21, 648502, Note_on_c, 9, 52, 0
21, 649211, Note_on_c, 9, 52, 87
21, 649931, Note_on_c, 9, 52, 0
21, 650650, Note_on_c, 9, 52, 89
21, 651370, Note_on_c, 9, 52, 0
21, 652098, Note_on_c, 9, 52, 91
21, 652818, Note_on_c, 9, 52, 0
21, 653522, Note_on_c, 9, 52, 82
21, 654242, Note_on_c, 9, 52, 0
21, 654981, Note_on_c, 9, 52, 98
21, 655701, Note_on_c, 9, 52, 0
21, 656406, Note_on_c, 9, 52, 95
21, 657126, Note_on_c, 9, 52, 0
21, 657856, Note_on_c, 9, 52, 89
21, 658576, Note_on_c, 9, 52, 0
21, 659289, Note_on_c, 9, 52, 85
21, 660009, Note_on_c, 9, 52, 0
21, 660013, Note_on_c, 9, 52, 92
21, 660733, Note_on_c, 9, 52, 0
21, 661453, Note_on_c, 9, 52, 78
21, 662173, Note_on_c, 9, 52, 0
21, 662880, Note_on_c, 9, 52, 80
21, 663600, Note_on_c, 9, 52, 0
21, 664321, Note_on_c, 9, 52, 92
21, 665041, Note_on_c, 9, 52, 0
21, 665770, Note_on_c, 9, 52, 81
21, 666490, Note_on_c, 9, 52, 0
21, 667200, Note_on_c, 9, 52, 89
21, 667920, Note_on_c, 9, 52, 0
21, 668646, Note_on_c, 9, 52, 97
21, 669366, Note_on_c, 9, 52, 0
21, 670104, Note_on_c, 9, 52, 96
21, 670824, Note_on_c, 9, 52, 0
21, 671543, Note_on_c, 9, 52, 85
21, 672263, Note_on_c, 9, 52, 0
21, 672972, Note_on_c, 9, 52, 95
21, 673692, Note_on_c, 9, 52, 0
21, 674424, Note_on_c, 9, 52, 96
21, 675144, Note_on_c, 9, 52, 0
21, 675860, Note_on_c, 9, 52, 82
21, 676580, Note_on_c, 9, 52, 0
21, 688805, Note_on_c, 9, 52, 55
21, 688924, Note_on_c, 9, 52, 52
21, 688925, Note_on_c, 9, 52, 0
21, 689042, Note_on_c, 9, 52, 58
21, 689044, Note_on_c, 9, 52, 0
21, 689162, Note_on_c, 9, 52, 0
21, 689181, Note_on_c, 9, 52, 71
21, 689301, Note_on_c, 9, 52, 0
21, 689301, Note_on_c, 9, 52, 79
21, 689404, Note_on_c, 9, 52, 95
21, 689421, Note_on_c, 9, 52, 0
21, 689522, Note_on_c, 9, 52, 97
21, 689524, Note_on_c, 9, 52, 0
21, 689642, Note_on_c, 9, 52, 0
21, 689653, Note_on_c, 9, 52, 103
21, 689769, Note_on_c, 9, 52, 0
21, 696021, Note_on_c, 9, 52, 48
21, 696141, Note_on_c, 9, 52, 0
21, 696142, Note_on_c, 9, 52, 47
21, 696246, Note_on_c, 9, 52, 62
21, 696262, Note_on_c, 9, 52, 0
21, 696366, Note_on_c, 9, 52, 0
21, 696382, Note_on_c, 9, 52, 82
21, 696491, Note_on_c, 9, 52, 85
21, 696502, Note_on_c, 9, 52, 0
21, 696611, Note_on_c, 9, 52, 0
21, 696621, Note_on_c, 9, 52, 79
21, 696739, Note_on_c, 9, 52, 97
21, 696741, Note_on_c, 9, 52, 0
21, 696842, Note_on_c, 9, 52, 100
21, 696859, Note_on_c, 9, 52, 0
21, 696958, Note_on_c, 9, 52, 0
21, 697459, Note_on_c, 9, 52, 45
21, 697570, Note_on_c, 9, 52, 54
21, 697579, Note_on_c, 9, 52, 0
21, 697690, Note_on_c, 9, 52, 0
21, 697701, Note_on_c, 9, 52, 74
21, 697815, Note_on_c, 9, 52, 67
21, 697821, Note_on_c, 9, 52, 0
21, 697924, Note_on_c, 9, 52, 73
21, 697935, Note_on_c, 9, 52, 0
21, 698044, Note_on_c, 9, 52, 0
21, 698053, Note_on_c, 9, 52, 98
21, 698167, Note_on_c, 9, 52, 91
21, 698173, Note_on_c, 9, 52, 0
21, 698287, Note_on_c, 9, 52, 0
21, 698299, Note_on_c, 9, 52, 110
21, 698415, Note_on_c, 9, 52, 0
21, 708480, Note_on_c, 9, 52, 16
21, 708600, Note_on_c, 9, 52, 0
21, 708623, Note_on_c, 9, 52, 27
21, 708743, Note_on_c, 9, 52, 0
21, 708744, Note_on_c, 9, 52, 24
21, 708850, Note_on_c, 9, 52, 43
21, 708864, Note_on_c, 9, 52, 0
21, 708964, Note_on_c, 9, 52, 51
21, 708970, Note_on_c, 9, 52, 0
21, 709084, Note_on_c, 9, 52, 0
21, 709104, Note_on_c, 9, 52, 54
21, 709206, Note_on_c, 9, 52, 66
21, 709224, Note_on_c, 9, 52, 0
21, 709326, Note_on_c, 9, 52, 0
21, 709333, Note_on_c, 9, 52, 72
21, 709449, Note_on_c, 9, 52, 0
21, 711379, Note_on_c, 9, 52, 17
21, 711499, Note_on_c, 9, 52, 0
21, 711505, Note_on_c, 9, 52, 18
21, 711625, Note_on_c, 9, 52, 0
21, 711625, Note_on_c, 9, 52, 28
21, 711740, Note_on_c, 9, 52, 45
21, 711745, Note_on_c, 9, 52, 0
21, 711846, Note_on_c, 9, 52, 53
21, 711860, Note_on_c, 9, 52, 0
21, 711966, Note_on_c, 9, 52, 0
21, 711971, Note_on_c, 9, 52, 65
21, 712091, Note_on_c, 9, 52, 0
21, 712102, Note_on_c, 9, 52, 58
21, 712215, Note_on_c, 9, 52, 71
21, 712222, Note_on_c, 9, 52, 0
21, 712331, Note_on_c, 9, 52, 0
21, 712331, End_track
22, 0, Start_track
22, 0, Title_t, "Guiro"
22, 0, MIDI_port, 0
22, 654241, Note_on_c, 9, 73, 85
22, 654601, Note_on_c, 9, 73, 0
22, 654602, Note_on_c, 9, 74, 85
22, 654962, Note_on_c, 9, 74, 0
22, 654973, Note_on_c, 9, 73, 78
22, 655325, Note_on_c, 9, 74, 78
22, 655333, Note_on_c, 9, 73, 0
22, 655685, Note_on_c, 9, 74, 0
22, 655689, Note_on_c, 9, 73, 93
22, 656040, Note_on_c, 9, 74, 84
22, 656049, Note_on_c, 9, 73, 0
22, 656400, Note_on_c, 9, 74, 0
22, 656424, Note_on_c, 9, 73, 87
22, 656775, Note_on_c, 9, 74, 87
22, 656784, Note_on_c, 9, 73, 0
22, 657135, Note_on_c, 9, 74, 0
22, 657139, Note_on_c, 9, 73, 98
22, 657495, Note_on_c, 9, 74, 81
22, 657499, Note_on_c, 9, 73, 0
22, 657855, Note_on_c, 9, 74, 0
22, 657856, Note_on_c, 9, 73, 92
22, 658206, Note_on_c, 9, 74, 87
22, 658216, Note_on_c, 9, 73, 0
22, 658566, Note_on_c, 9, 74, 0
22, 658580, Note_on_c, 9, 73, 78
22, 658933, Note_on_c, 9, 74, 94
22, 658940, Note_on_c, 9, 73, 0
22, 659289, Note_on_c, 9, 73, 78
22, 659293, Note_on_c, 9, 74, 0
22, 659649, Note_on_c, 9, 73, 0
22, 659658, Note_on_c, 9, 74, 90
22, 660002, Note_on_c, 9, 73, 87
22, 660018, Note_on_c, 9, 74, 0
22, 660362, Note_on_c, 9, 73, 0
22, 660366, Note_on_c, 9, 74, 96
22, 660726, Note_on_c, 9, 74, 0
22, 660733, Note_on_c, 9, 73, 90
22, 661093, Note_on_c, 9, 73, 0
22, 661103, Note_on_c, 9, 74, 81
22, 661443, Note_on_c, 9, 73, 91
22, 661463, Note_on_c, 9, 74, 0
22, 661803, Note_on_c, 9, 73, 0
22, 661817, Note_on_c, 9, 74, 92
22, 662175, Note_on_c, 9, 73, 84
22, 662177, Note_on_c, 9, 74, 0
22, 662525, Note_on_c, 9, 74, 84
22, 662535, Note_on_c, 9, 73, 0
22, 662880, Note_on_c, 9, 73, 92
22, 662885, Note_on_c, 9, 74, 0
22, 663240, Note_on_c, 9, 73, 0
22, 663255, Note_on_c, 9, 74, 79
22, 663611, Note_on_c, 9, 73, 90
22, 663615, Note_on_c, 9, 74, 0
22, 663971, Note_on_c, 9, 73, 0
22, 663984, Note_on_c, 9, 74, 83
22, 664332, Note_on_c, 9, 73, 88
22, 664344, Note_on_c, 9, 74, 0
22, 664688, Note_on_c, 9, 74, 81
22, 664692, Note_on_c, 9, 73, 0
22, 665048, Note_on_c, 9, 74, 0
22, 665053, Note_on_c, 9, 73, 96
22, 665413, Note_on_c, 9, 73, 0
22, 665414, Note_on_c, 9, 74, 83
22, 665762, Note_on_c, 9, 73, 84
22, 665774, Note_on_c, 9, 74, 0
22, 666122, Note_on_c, 9, 73, 0
22, 666129, Note_on_c, 9, 74, 93
22, 666485, Note_on_c, 9, 73, 93
22, 666489, Note_on_c, 9, 74, 0
22, 666845, Note_on_c, 9, 73, 0
22, 666850, Note_on_c, 9, 74, 86
22, 667210, Note_on_c, 9, 74, 0
22, 667220, Note_on_c, 9, 73, 94
22, 667575, Note_on_c, 9, 74, 82
22, 667580, Note_on_c, 9, 73, 0
22, 667932, Note_on_c, 9, 73, 85
22, 667935, Note_on_c, 9, 74, 0
22, 668292, Note_on_c, 9, 73, 0
22, 668296, Note_on_c, 9, 74, 79
22, 668646, Note_on_c, 9, 73, 83
22, 668656, Note_on_c, 9, 74, 0
22, 669006, Note_on_c, 9, 73, 0
22, 669007, Note_on_c, 9, 74, 97
22, 669367, Note_on_c, 9, 74, 0
22, 669371, Note_on_c, 9, 73, 79
22, 669731, Note_on_c, 9, 73, 0
22, 669745, Note_on_c, 9, 74, 86
22, 670080, Note_on_c, 9, 73, 80
22, 670105, Note_on_c, 9, 74, 0
22, 670440, Note_on_c, 9, 73, 0
22, 670461, Note_on_c, 9, 74, 95
22, 670821, Note_on_c, 9, 74, 0
22, 670823, Note_on_c, 9, 73, 83
22, 671173, Note_on_c, 9, 74, 80
22, 671183, Note_on_c, 9, 73, 0
22, 671533, Note_on_c, 9, 74, 0
22, 671539, Note_on_c, 9, 73, 81
22, 671896, Note_on_c, 9, 74, 97
22, 671899, Note_on_c, 9, 73, 0
22, 672242, Note_on_c, 9, 73, 98
22, 672256, Note_on_c, 9, 74, 0
22, 672602, Note_on_c, 9, 73, 0
22, 672606, Note_on_c, 9, 74, 87
22, 672966, Note_on_c, 9, 74, 0
22, 672968, Note_on_c, 9, 73, 78
22, 673328, Note_on_c, 9, 73, 0
22, 673328, Note_on_c, 9, 74, 80
22, 673688, Note_on_c, 9, 74, 0
22, 673698, Note_on_c, 9, 73, 80
22, 674046, Note_on_c, 9, 74, 81
22, 674058, Note_on_c, 9, 73, 0
22, 674406, Note_on_c, 9, 74, 0
22, 674417, Note_on_c, 9, 73, 95
22, 674764, Note_on_c, 9, 74, 93
22, 674777, Note_on_c, 9, 73, 0
22, 675124, Note_on_c, 9, 74, 0
22, 675125, Note_on_c, 9, 73, 79
22, 675485, Note_on_c, 9, 73, 0
22, 675505, Note_on_c, 9, 74, 82
22, 675854, Note_on_c, 9, 73, 85
22, 675865, Note_on_c, 9, 74, 0
22, 676202, Note_on_c, 9, 74, 97
22, 676214, Note_on_c, 9, 73, 0
22, 676562, Note_on_c, 9, 74, 0
22, 676582, Note_on_c, 9, 73, 80
22, 676942, Note_on_c, 9, 73, 0
22, 676943, Note_on_c, 9, 74, 82
22, 677303, Note_on_c, 9, 74, 0
22, 677303, End_track
23, 0, Start_track
23, 0, Title_t, "Triangolo"
23, 0, MIDI_port, 0
23, 204007, Note_on_c, 9, 81, 111
23, 204482, Note_on_c, 9, 81, 106
23, 204487, Note_on_c, 9, 81, 0
23, 204962, Note_on_c, 9, 81, 0
23, 204972, Note_on_c, 9, 81, 102
23, 205442, Note_on_c, 9, 81, 101
23, 205452, Note_on_c, 9, 81, 0
23, 205922, Note_on_c, 9, 81, 0
23, 205925, Note_on_c, 9, 81, 108
23, 206405, Note_on_c, 9, 81, 0
23, 206415, Note_on_c, 9, 81, 92
23, 206882, Note_on_c, 9, 81, 111
23, 206895, Note_on_c, 9, 81, 0
23, 207361, Note_on_c, 9, 81, 97
23, 207362, Note_on_c, 9, 81, 0
23, 207841, Note_on_c, 9, 81, 0
23, 207844, Note_on_c, 9, 81, 107
23, 208324, Note_on_c, 9, 81, 0
23, 208328, Note_on_c, 9, 81, 92
23, 208808, Note_on_c, 9, 81, 0
23, 208811, Note_on_c, 9, 81, 96
23, 209280, Note_on_c, 9, 81, 109
23, 209291, Note_on_c, 9, 81, 0
23, 209760, Note_on_c, 9, 81, 0
23, 209775, Note_on_c, 9, 81, 108
23, 210255, Note_on_c, 9, 81, 0
23, 210264, Note_on_c, 9, 81, 92
23, 210737, Note_on_c, 9, 81, 104
23, 210744, Note_on_c, 9, 81, 0
23, 211215, Note_on_c, 9, 81, 106
23, 211217, Note_on_c, 9, 81, 0
23, 211695, Note_on_c, 9, 81, 0
23, 211695, End_track
24, 0, Start_track
24, 0, Title_t, "Piatti antichi"
24, 0, MIDI_port, 0
24, 0, Program_c, 10, 45
24, 0, Control_c, 10, 7, 127
24, 0, Control_c, 10, 10, 64
24, 0, Control_c, 10, 91, 127
24, 0, Control_c, 10, 11, 127
24, 203040, Program_c, 10, 9
24, 204012, Note_on_c, 10, 80, 97
24, 204488, Note_on_c, 10, 82, 98
24, 204492, Note_on_c, 10, 80, 0
24, 204968, Note_on_c, 10, 82, 0
24, 204972, Note_on_c, 10, 80, 93
24, 205444, Note_on_c, 10, 82, 89
24, 205452, Note_on_c, 10, 80, 0
24, 205924, Note_on_c, 10, 82, 0
24, 205941, Note_on_c, 10, 80, 88
24, 206421, Note_on_c, 10, 80, 0
24, 206425, Note_on_c, 10, 82, 95
24, 206882, Note_on_c, 10, 80, 79
24, 206905, Note_on_c, 10, 82, 0
24, 207362, Note_on_c, 10, 80, 0
24, 207366, Note_on_c, 10, 82, 98
24, 207844, Note_on_c, 10, 80, 84
24, 207846, Note_on_c, 10, 82, 0
24, 208323, Note_on_c, 10, 82, 94
24, 208324, Note_on_c, 10, 80, 0
24, 208803, Note_on_c, 10, 82, 0
24, 208811, Note_on_c, 10, 80, 79
24, 209291, Note_on_c, 10, 80, 0
24, 209293, Note_on_c, 10, 82, 83
24, 209769, Note_on_c, 10, 80, 96
24, 209773, Note_on_c, 10, 82, 0
24, 210249, Note_on_c, 10, 80, 0
24, 210256, Note_on_c, 10, 82, 95
24, 210728, Note_on_c, 10, 80, 79
24, 210736, Note_on_c, 10, 82, 0
24, 211208, Note_on_c, 10, 80, 0
24, 211222, Note_on_c, 10, 82, 91
24, 211702, Note_on_c, 10, 82, 0
24, 211702, End_track
25, 0, Start_track
25, 0, Title_t, "Violini I/a"
25, 0, MIDI_port, 0
25, 0, Program_c, 11, 48
25, 0, Control_c, 11, 7, 108
25, 0, Control_c, 11, 10, 44
25, 0, Control_c, 11, 91, 127
25, 67680, Program_c, 11, 40
25, 68160, Note_on_c, 11, 68, 56
25, 68198, Note_on_c, 11, 68, 0
25, 68198, Note_on_c, 11, 70, 70
25, 68237, Note_on_c, 11, 70, 0
25, 68237, Note_on_c, 11, 68, 62
25, 68275, Note_on_c, 11, 68, 0
25, 68276, Note_on_c, 11, 70, 54
25, 68315, Note_on_c, 11, 70, 0
25, 68315, Note_on_c, 11, 68, 59
25, 68353, Note_on_c, 11, 68, 0
25, 68354, Note_on_c, 11, 70, 70
25, 68393, Note_on_c, 11, 70, 0
25, 68393, Note_on_c, 11, 68, 59
25, 68431, Note_on_c, 11, 68, 0
25, 68431, Note_on_c, 11, 70, 66
25, 68470, Note_on_c, 11, 70, 0
25, 68471, Note_on_c, 11, 68, 57
25, 68510, Note_on_c, 11, 68, 0
25, 68510, Note_on_c, 11, 70, 54
25, 68548, Note_on_c, 11, 70, 0
25, 68548, Note_on_c, 11, 68, 55
25, 68587, Note_on_c, 11, 68, 0
25, 68587, Note_on_c, 11, 70, 61
25, 68625, Note_on_c, 11, 70, 0
25, 68626, Note_on_c, 11, 68, 69
25, 68665, Note_on_c, 11, 68, 0
25, 68665, Note_on_c, 11, 70, 69
25, 68703, Note_on_c, 11, 70, 0
25, 68704, Note_on_c, 11, 68, 63
25, 68743, Note_on_c, 11, 68, 0
25, 68743, Note_on_c, 11, 70, 72
25, 68781, Note_on_c, 11, 70, 0
25, 68782, Note_on_c, 11, 68, 70
25, 68820, Note_on_c, 11, 68, 0
25, 68821, Note_on_c, 11, 70, 70
25, 68860, Note_on_c, 11, 70, 0
25, 68860, Note_on_c, 11, 68, 62
25, 68898, Note_on_c, 11, 68, 0
25, 68898, Note_on_c, 11, 70, 71
25, 68937, Note_on_c, 11, 70, 0
25, 68938, Note_on_c, 11, 68, 61
25, 68976, Note_on_c, 11, 68, 0
25, 68976, Note_on_c, 11, 70, 60
25, 69015, Note_on_c, 11, 70, 0
25, 69015, Note_on_c, 11, 68, 54
25, 69053, Note_on_c, 11, 68, 0
25, 69054, Note_on_c, 11, 70, 64
25, 69093, Note_on_c, 11, 70, 0
25, 69093, Note_on_c, 11, 68, 59
25, 69119, Note_on_c, 11, 68, 0
25, 69600, Note_on_c, 11, 68, 56
25, 69637, Note_on_c, 11, 68, 0
25, 69637, Note_on_c, 11, 70, 68
25, 69674, Note_on_c, 11, 70, 0
25, 69675, Note_on_c, 11, 68, 64
25, 69712, Note_on_c, 11, 68, 0
25, 69712, Note_on_c, 11, 70, 64
25, 69749, Note_on_c, 11, 70, 0
25, 69750, Note_on_c, 11, 68, 62
25, 69787, Note_on_c, 11, 68, 0
25, 69787, Note_on_c, 11, 70, 70
25, 69824, Note_on_c, 11, 70, 0
25, 69825, Note_on_c, 11, 68, 54
25, 69862, Note_on_c, 11, 68, 0
25, 69862, Note_on_c, 11, 70, 73
25, 69899, Note_on_c, 11, 70, 0
25, 69900, Note_on_c, 11, 68, 55
25, 69937, Note_on_c, 11, 68, 0
25, 69937, Note_on_c, 11, 70, 67
25, 69974, Note_on_c, 11, 70, 0
25, 69975, Note_on_c, 11, 68, 58
25, 70012, Note_on_c, 11, 68, 0
25, 70012, Note_on_c, 11, 70, 74
25, 70049, Note_on_c, 11, 70, 0
25, 70050, Note_on_c, 11, 68, 65
25, 70087, Note_on_c, 11, 68, 0
25, 70087, Note_on_c, 11, 70, 61
25, 70124, Note_on_c, 11, 70, 0
25, 70125, Note_on_c, 11, 68, 72
25, 70162, Note_on_c, 11, 68, 0
25, 70162, Note_on_c, 11, 70, 71
25, 70199, Note_on_c, 11, 70, 0
25, 70200, Note_on_c, 11, 68, 55
25, 70237, Note_on_c, 11, 68, 0
25, 70237, Note_on_c, 11, 70, 69
25, 70274, Note_on_c, 11, 70, 0
25, 70275, Note_on_c, 11, 68, 60
25, 70312, Note_on_c, 11, 68, 0
25, 70560, Note_on_c, 11, 68, 67
25, 70597, Note_on_c, 11, 68, 0
25, 70597, Note_on_c, 11, 70, 58
25, 70634, Note_on_c, 11, 70, 0
25, 70635, Note_on_c, 11, 68, 57
25, 70672, Note_on_c, 11, 68, 0
25, 70673, Note_on_c, 11, 70, 55
25, 70710, Note_on_c, 11, 70, 0
25, 70711, Note_on_c, 11, 68, 62
25, 70748, Note_on_c, 11, 68, 0
25, 70749, Note_on_c, 11, 70, 65
25, 70786, Note_on_c, 11, 70, 0
25, 70787, Note_on_c, 11, 68, 61
25, 70824, Note_on_c, 11, 68, 0
25, 70825, Note_on_c, 11, 70, 54
25, 70862, Note_on_c, 11, 70, 0
25, 70863, Note_on_c, 11, 68, 58
25, 70900, Note_on_c, 11, 68, 0
25, 70901, Note_on_c, 11, 70, 73
25, 70938, Note_on_c, 11, 70, 0
25, 70939, Note_on_c, 11, 68, 67
25, 70976, Note_on_c, 11, 68, 0
25, 70977, Note_on_c, 11, 70, 62
25, 71014, Note_on_c, 11, 70, 0
25, 71015, Note_on_c, 11, 68, 70
25, 71052, Note_on_c, 11, 68, 0
25, 71053, Note_on_c, 11, 70, 58
25, 71090, Note_on_c, 11, 70, 0
25, 71091, Note_on_c, 11, 68, 71
25, 71128, Note_on_c, 11, 68, 0
25, 71129, Note_on_c, 11, 70, 58
25, 71166, Note_on_c, 11, 70, 0
25, 71167, Note_on_c, 11, 68, 54
25, 71204, Note_on_c, 11, 68, 0
25, 71205, Note_on_c, 11, 70, 64
25, 71242, Note_on_c, 11, 70, 0
25, 71243, Note_on_c, 11, 68, 72
25, 71280, Note_on_c, 11, 68, 0
25, 71281, Note_on_c, 11, 70, 72
25, 71318, Note_on_c, 11, 70, 0
25, 71319, Note_on_c, 11, 68, 56
25, 71356, Note_on_c, 11, 68, 0
25, 71356, Note_on_c, 11, 70, 73
25, 71393, Note_on_c, 11, 70, 0
25, 71395, Note_on_c, 11, 68, 67
25, 71432, Note_on_c, 11, 68, 0
25, 71433, Note_on_c, 11, 70, 73
25, 71470, Note_on_c, 11, 70, 0
25, 71471, Note_on_c, 11, 68, 57
25, 71508, Note_on_c, 11, 68, 0
25, 75360, Program_c, 11, 45
25, 75366, Note_on_c, 11, 61, 59
25, 75486, Note_on_c, 11, 61, 0
25, 75488, Note_on_c, 11, 58, 64
25, 75608, Note_on_c, 11, 58, 0
25, 75609, Note_on_c, 11, 63, 59
25, 75723, Note_on_c, 11, 58, 60
25, 75729, Note_on_c, 11, 63, 0
25, 75840, Note_on_c, 11, 61, 68
25, 75843, Note_on_c, 11, 58, 0
25, 75960, Note_on_c, 11, 61, 0
25, 75976, Note_on_c, 11, 58, 66
25, 76092, Note_on_c, 11, 63, 71
25, 76096, Note_on_c, 11, 58, 0
25, 76212, Note_on_c, 11, 63, 0
25, 76213, Note_on_c, 11, 58, 71
25, 76333, Note_on_c, 11, 58, 0
25, 76824, Note_on_c, 11, 61, 62
25, 76936, Note_on_c, 11, 58, 67
25, 76944, Note_on_c, 11, 61, 0
25, 77048, Note_on_c, 11, 63, 60
25, 77056, Note_on_c, 11, 58, 0
25, 77166, Note_on_c, 11, 58, 63
25, 77168, Note_on_c, 11, 63, 0
25, 77286, Note_on_c, 11, 58, 0
25, 81604, Note_on_c, 11, 61, 78
25, 81721, Note_on_c, 11, 58, 66
25, 81724, Note_on_c, 11, 61, 0
25, 81841, Note_on_c, 11, 58, 0
25, 81847, Note_on_c, 11, 63, 78
25, 81962, Note_on_c, 11, 58, 81
25, 81967, Note_on_c, 11, 63, 0
25, 82076, Note_on_c, 11, 61, 72
25, 82082, Note_on_c, 11, 58, 0
25, 82196, Note_on_c, 11, 61, 0
25, 82205, Note_on_c, 11, 58, 75
25, 82325, Note_on_c, 11, 58, 0
25, 82335, Note_on_c, 11, 63, 71
25, 82455, Note_on_c, 11, 63, 0
25, 82464, Note_on_c, 11, 58, 75
25, 82570, Note_on_c, 11, 61, 72
25, 82584, Note_on_c, 11, 58, 0
25, 82685, Note_on_c, 11, 58, 71
25, 82690, Note_on_c, 11, 61, 0
25, 82805, Note_on_c, 11, 58, 0
25, 82813, Note_on_c, 11, 63, 80
25, 82931, Note_on_c, 11, 58, 72
25, 82933, Note_on_c, 11, 63, 0
25, 83046, Note_on_c, 11, 61, 81
25, 83051, Note_on_c, 11, 58, 0
25, 83160, Note_on_c, 11, 58, 77
25, 83166, Note_on_c, 11, 61, 0
25, 83280, Note_on_c, 11, 58, 0
25, 83280, Note_on_c, 11, 63, 85
25, 83400, Note_on_c, 11, 63, 0
25, 83408, Note_on_c, 11, 58, 73
25, 83528, Note_on_c, 11, 58, 0
25, 83529, Note_on_c, 11, 61, 72
25, 83649, Note_on_c, 11, 61, 0
25, 83654, Note_on_c, 11, 58, 66
25, 83773, Note_on_c, 11, 63, 68
25, 83774, Note_on_c, 11, 58, 0
25, 83893, Note_on_c, 11, 63, 0
25, 83899, Note_on_c, 11, 58, 83
25, 84019, Note_on_c, 11, 58, 0
25, 99360, Program_c, 11, 45
25, 99603, Note_on_c, 11, 76, 96
25, 99603, Note_on_c, 11, 83, 92
25, 99843, Note_on_c, 11, 76, 0
25, 99843, Note_on_c, 11, 83, 0
25, 100096, Note_on_c, 11, 73, 93
25, 100102, Note_on_c, 11, 80, 86
25, 100336, Note_on_c, 11, 73, 0
25, 100342, Note_on_c, 11, 80, 0
25, 103200, Program_c, 11, 45
25, 103200, Note_on_c, 11, 70, 85
25, 103359, Note_on_c, 11, 70, 0
25, 103370, Note_on_c, 11, 69, 81
25, 103530, Note_on_c, 11, 69, 0
25, 103541, Note_on_c, 11, 68, 94
25, 103692, Note_on_c, 11, 67, 91
25, 103700, Note_on_c, 11, 68, 0
25, 103851, Note_on_c, 11, 67, 0
25, 103860, Note_on_c, 11, 66, 89
25, 104020, Note_on_c, 11, 66, 0
25, 104021, Note_on_c, 11, 65, 93
25, 104180, Note_on_c, 11, 65, 0
25, 104183, Note_on_c, 11, 64, 78
25, 104342, Note_on_c, 11, 64, 0
25, 108240, Note_on_c, 11, 86, 99
25, 108253, Note_on_c, 11, 79, 92
25, 108480, Note_on_c, 11, 86, 0
25, 108493, Note_on_c, 11, 79, 0
25, 108975, Note_on_c, 11, 72, 70
25, 109203, Note_on_c, 11, 82, 79
25, 109215, Note_on_c, 11, 72, 0
25, 109443, Note_on_c, 11, 82, 0
25, 109460, Note_on_c, 11, 69, 65
25, 109686, Note_on_c, 11, 79, 80
25, 109700, Note_on_c, 11, 69, 0
25, 109920, Note_on_c, 11, 69, 84
25, 109926, Note_on_c, 11, 79, 0
25, 110160, Note_on_c, 11, 69, 0
25, 111134, Note_on_c, 11, 79, 93
25, 111143, Note_on_c, 11, 86, 103
25, 111374, Note_on_c, 11, 79, 0
25, 111383, Note_on_c, 11, 86, 0
25, 112105, Note_on_c, 11, 79, 65
25, 112330, Note_on_c, 11, 69, 73
25, 112345, Note_on_c, 11, 79, 0
25, 112566, Note_on_c, 11, 82, 66
25, 112570, Note_on_c, 11, 69, 0
25, 112806, Note_on_c, 11, 82, 0
25, 112813, Note_on_c, 11, 72, 75
25, 113051, Note_on_c, 11, 82, 75
25, 113053, Note_on_c, 11, 72, 0
25, 113291, Note_on_c, 11, 82, 0
25, 113296, Note_on_c, 11, 69, 84
25, 113523, Note_on_c, 11, 79, 69
25, 113536, Note_on_c, 11, 69, 0
25, 113763, Note_on_c, 11, 79, 0
25, 113779, Note_on_c, 11, 69, 83
25, 114010, Note_on_c, 11, 79, 81
25, 114019, Note_on_c, 11, 69, 0
25, 114250, Note_on_c, 11, 79, 0
25, 114254, Note_on_c, 11, 72, 84
25, 114486, Note_on_c, 11, 82, 73
25, 114494, Note_on_c, 11, 72, 0
25, 114725, Note_on_c, 11, 69, 76
25, 114726, Note_on_c, 11, 82, 0
25, 114965, Note_on_c, 11, 69, 0
25, 114980, Note_on_c, 11, 79, 82
25, 115210, Note_on_c, 11, 69, 68
25, 115220, Note_on_c, 11, 79, 0
25, 115369, Note_on_c, 11, 69, 0
25, 115524, Note_on_c, 11, 77, 77
25, 115683, Note_on_c, 11, 77, 0
25, 115932, Note_on_c, 11, 82, 88
25, 116172, Note_on_c, 11, 82, 0
25, 116495, Note_on_c, 11, 87, 109
25, 116502, Note_on_c, 11, 82, 110
25, 116640, Program_c, 11, 48
25, 116654, Note_on_c, 11, 87, 0
25, 116661, Note_on_c, 11, 82, 0
25, 116894, Note_on_c, 11, 61, 85
25, 116903, Note_on_c, 11, 63, 78
25, 116989, Note_on_c, 11, 61, 0
25, 116998, Note_on_c, 11, 63, 0
25, 117131, Note_on_c, 11, 63, 93
25, 117137, Note_on_c, 11, 61, 82
25, 117226, Note_on_c, 11, 63, 0
25, 117232, Note_on_c, 11, 61, 0
25, 117361, Note_on_c, 11, 61, 96
25, 117377, Note_on_c, 11, 63, 78
25, 117456, Note_on_c, 11, 61, 0
25, 117472, Note_on_c, 11, 63, 0
25, 117611, Note_on_c, 11, 61, 80
25, 117622, Note_on_c, 11, 63, 82
25, 117706, Note_on_c, 11, 61, 0
25, 117717, Note_on_c, 11, 63, 0
25, 117853, Note_on_c, 11, 61, 85
25, 117858, Note_on_c, 11, 63, 83
25, 117948, Note_on_c, 11, 61, 0
25, 117953, Note_on_c, 11, 63, 0
25, 118080, Note_on_c, 11, 61, 90
25, 118086, Note_on_c, 11, 63, 91
25, 118175, Note_on_c, 11, 61, 0
25, 118181, Note_on_c, 11, 63, 0
25, 118322, Note_on_c, 11, 63, 94
25, 118328, Note_on_c, 11, 61, 80
25, 118417, Note_on_c, 11, 63, 0
25, 118423, Note_on_c, 11, 61, 0
25, 118571, Note_on_c, 11, 63, 87
25, 118585, Note_on_c, 11, 61, 95
25, 118666, Note_on_c, 11, 63, 0
25, 118680, Note_on_c, 11, 61, 0
25, 118813, Note_on_c, 11, 61, 101
25, 118823, Note_on_c, 11, 63, 100
25, 118908, Note_on_c, 11, 61, 0
25, 118918, Note_on_c, 11, 63, 0
25, 119041, Note_on_c, 11, 61, 98
25, 119053, Note_on_c, 11, 63, 90
25, 119136, Note_on_c, 11, 61, 0
25, 119148, Note_on_c, 11, 63, 0
25, 119289, Note_on_c, 11, 63, 106
25, 119299, Note_on_c, 11, 61, 100
25, 119384, Note_on_c, 11, 63, 0
25, 119394, Note_on_c, 11, 61, 0
25, 119540, Note_on_c, 11, 61, 97
25, 119544, Note_on_c, 11, 63, 94
25, 119635, Note_on_c, 11, 61, 0
25, 119639, Note_on_c, 11, 63, 0
25, 119761, Note_on_c, 11, 61, 95
25, 119770, Note_on_c, 11, 63, 92
25, 119856, Note_on_c, 11, 61, 0
25, 119865, Note_on_c, 11, 63, 0
25, 120005, Note_on_c, 11, 61, 82
25, 120011, Note_on_c, 11, 63, 83
25, 120100, Note_on_c, 11, 61, 0
25, 120106, Note_on_c, 11, 63, 0
25, 120241, Note_on_c, 11, 63, 95
25, 120264, Note_on_c, 11, 61, 82
25, 120336, Note_on_c, 11, 63, 0
25, 120359, Note_on_c, 11, 61, 0
25, 120481, Note_on_c, 11, 63, 93
25, 120488, Note_on_c, 11, 61, 80
25, 120576, Note_on_c, 11, 63, 0
25, 120583, Note_on_c, 11, 61, 0
25, 120720, Note_on_c, 11, 61, 112
25, 120731, Note_on_c, 11, 63, 115
25, 120815, Note_on_c, 11, 61, 0
25, 120826, Note_on_c, 11, 63, 0
25, 120964, Note_on_c, 11, 61, 84
25, 120982, Note_on_c, 11, 63, 82
25, 121059, Note_on_c, 11, 61, 0
25, 121077, Note_on_c, 11, 63, 0
25, 121220, Note_on_c, 11, 61, 79
25, 121224, Note_on_c, 11, 63, 98
25, 121315, Note_on_c, 11, 61, 0
25, 121319, Note_on_c, 11, 63, 0
25, 121453, Note_on_c, 11, 63, 114
25, 121464, Note_on_c, 11, 61, 119
25, 121548, Note_on_c, 11, 63, 0
25, 121559, Note_on_c, 11, 61, 0
25, 121684, Note_on_c, 11, 63, 89
25, 121700, Note_on_c, 11, 61, 79
25, 121779, Note_on_c, 11, 63, 0
25, 121795, Note_on_c, 11, 61, 0
25, 121934, Note_on_c, 11, 63, 97
25, 121941, Note_on_c, 11, 61, 84
25, 122029, Note_on_c, 11, 63, 0
25, 122036, Note_on_c, 11, 61, 0
25, 122160, Note_on_c, 11, 63, 94
25, 122164, Note_on_c, 11, 61, 82
25, 122255, Note_on_c, 11, 63, 0
25, 122259, Note_on_c, 11, 61, 0
25, 122420, Note_on_c, 11, 63, 120
25, 122424, Note_on_c, 11, 61, 114
25, 122515, Note_on_c, 11, 63, 0
25, 122519, Note_on_c, 11, 61, 0
25, 122642, Note_on_c, 11, 61, 84
25, 122658, Note_on_c, 11, 63, 95
25, 122737, Note_on_c, 11, 61, 0
25, 122753, Note_on_c, 11, 63, 0
25, 122900, Note_on_c, 11, 61, 81
25, 122903, Note_on_c, 11, 63, 94
25, 122995, Note_on_c, 11, 61, 0
25, 122998, Note_on_c, 11, 63, 0
25, 123125, Note_on_c, 11, 63, 97
25, 123136, Note_on_c, 11, 61, 79
25, 123220, Note_on_c, 11, 63, 0
25, 123231, Note_on_c, 11, 61, 0
25, 123370, Note_on_c, 11, 61, 87
25, 123370, Note_on_c, 11, 63, 92
25, 123465, Note_on_c, 11, 61, 0
25, 123465, Note_on_c, 11, 63, 0
25, 123606, Note_on_c, 11, 61, 106
25, 123618, Note_on_c, 11, 63, 117
25, 123701, Note_on_c, 11, 61, 0
25, 123713, Note_on_c, 11, 63, 0
25, 123847, Note_on_c, 11, 63, 85
25, 123852, Note_on_c, 11, 61, 95
25, 123942, Note_on_c, 11, 63, 0
25, 123947, Note_on_c, 11, 61, 0
25, 124091, Note_on_c, 11, 61, 79
25, 124096, Note_on_c, 11, 63, 90
25, 124186, Note_on_c, 11, 61, 0
25, 124191, Note_on_c, 11, 63, 0
25, 124340, Note_on_c, 11, 61, 57
25, 124342, Note_on_c, 11, 63, 45
25, 124435, Note_on_c, 11, 61, 0
25, 124437, Note_on_c, 11, 63, 0
25, 124566, Note_on_c, 11, 61, 43
25, 124581, Note_on_c, 11, 63, 55
25, 124661, Note_on_c, 11, 61, 0
25, 124676, Note_on_c, 11, 63, 0
25, 124800, Note_on_c, 11, 61, 48
25, 124801, Note_on_c, 11, 63, 39
25, 124895, Note_on_c, 11, 61, 0
25, 124896, Note_on_c, 11, 63, 0
25, 125048, Note_on_c, 11, 63, 56
25, 125053, Note_on_c, 11, 61, 58
25, 125143, Note_on_c, 11, 63, 0
25, 125148, Note_on_c, 11, 61, 0
25, 125284, Note_on_c, 11, 63, 46
25, 125300, Note_on_c, 11, 61, 51
25, 125379, Note_on_c, 11, 63, 0
25, 125395, Note_on_c, 11, 61, 0
25, 125523, Note_on_c, 11, 61, 51
25, 125538, Note_on_c, 11, 63, 58
25, 125618, Note_on_c, 11, 61, 0
25, 125633, Note_on_c, 11, 63, 0
25, 125765, Note_on_c, 11, 63, 46
25, 125768, Note_on_c, 11, 61, 56
25, 125860, Note_on_c, 11, 63, 0
25, 125863, Note_on_c, 11, 61, 0
25, 126001, Note_on_c, 11, 63, 39
25, 126018, Note_on_c, 11, 61, 41
25, 126096, Note_on_c, 11, 63, 0
25, 126113, Note_on_c, 11, 61, 0
25, 126240, Note_on_c, 11, 63, 46
25, 126242, Note_on_c, 11, 61, 44
25, 126335, Note_on_c, 11, 63, 0
25, 126337, Note_on_c, 11, 61, 0
25, 126490, Note_on_c, 11, 63, 40
25, 126492, Note_on_c, 11, 61, 57
25, 126585, Note_on_c, 11, 63, 0
25, 126587, Note_on_c, 11, 61, 0
25, 126731, Note_on_c, 11, 61, 42
25, 126732, Note_on_c, 11, 63, 53
25, 126826, Note_on_c, 11, 61, 0
25, 126827, Note_on_c, 11, 63, 0
25, 126966, Note_on_c, 11, 63, 43
25, 126981, Note_on_c, 11, 61, 44
25, 127061, Note_on_c, 11, 63, 0
25, 127076, Note_on_c, 11, 61, 0
25, 127216, Note_on_c, 11, 63, 48
25, 127221, Note_on_c, 11, 61, 42
25, 127311, Note_on_c, 11, 63, 0
25, 127316, Note_on_c, 11, 61, 0
25, 127440, Note_on_c, 11, 61, 108
25, 127460, Note_on_c, 11, 63, 110
25, 127535, Note_on_c, 11, 61, 0
25, 127555, Note_on_c, 11, 63, 0
25, 127689, Note_on_c, 11, 63, 92
25, 127703, Note_on_c, 11, 61, 86
25, 127784, Note_on_c, 11, 63, 0
25, 127798, Note_on_c, 11, 61, 0
25, 127931, Note_on_c, 11, 61, 104
25, 127942, Note_on_c, 11, 63, 116
25, 128026, Note_on_c, 11, 61, 0
25, 128037, Note_on_c, 11, 63, 0
25, 128162, Note_on_c, 11, 63, 46
25, 128168, Note_on_c, 11, 61, 39
25, 128257, Note_on_c, 11, 63, 0
25, 128263, Note_on_c, 11, 61, 0
25, 128405, Note_on_c, 11, 63, 50
25, 128409, Note_on_c, 11, 61, 45
25, 128500, Note_on_c, 11, 63, 0
25, 128504, Note_on_c, 11, 61, 0
25, 128644, Note_on_c, 11, 61, 41
25, 128652, Note_on_c, 11, 63, 49
25, 128739, Note_on_c, 11, 61, 0
25, 128747, Note_on_c, 11, 63, 0
25, 128881, Note_on_c, 11, 61, 50
25, 128896, Note_on_c, 11, 63, 45
25, 128976, Note_on_c, 11, 61, 0
25, 128991, Note_on_c, 11, 63, 0
25, 129135, Note_on_c, 11, 63, 44
25, 129139, Note_on_c, 11, 61, 55
25, 129230, Note_on_c, 11, 63, 0
25, 129234, Note_on_c, 11, 61, 0
25, 129361, Note_on_c, 11, 63, 45
25, 129380, Note_on_c, 11, 61, 58
25, 129456, Note_on_c, 11, 63, 0
25, 129475, Note_on_c, 11, 61, 0
25, 129610, Note_on_c, 11, 61, 46
25, 129623, Note_on_c, 11, 63, 43
25, 129705, Note_on_c, 11, 61, 0
25, 129718, Note_on_c, 11, 63, 0
25, 129848, Note_on_c, 11, 63, 46
25, 129864, Note_on_c, 11, 61, 51
25, 129943, Note_on_c, 11, 63, 0
25, 129959, Note_on_c, 11, 61, 0
25, 130089, Note_on_c, 11, 61, 49
25, 130099, Note_on_c, 11, 63, 58
25, 130184, Note_on_c, 11, 61, 0
25, 130194, Note_on_c, 11, 63, 0
25, 130325, Note_on_c, 11, 61, 53
25, 130339, Note_on_c, 11, 63, 40
25, 130420, Note_on_c, 11, 61, 0
25, 130434, Note_on_c, 11, 63, 0
25, 130560, Note_on_c, 11, 61, 55
25, 130572, Note_on_c, 11, 63, 45
25, 130655, Note_on_c, 11, 61, 0
25, 130667, Note_on_c, 11, 63, 0
25, 130804, Note_on_c, 11, 63, 57
25, 130823, Note_on_c, 11, 61, 51
25, 130899, Note_on_c, 11, 63, 0
25, 130918, Note_on_c, 11, 61, 0
25, 131044, Note_on_c, 11, 61, 45
25, 131048, Note_on_c, 11, 63, 59
25, 131139, Note_on_c, 11, 61, 0
25, 131143, Note_on_c, 11, 63, 0
25, 131292, Note_on_c, 11, 61, 110
25, 131296, Note_on_c, 11, 63, 115
25, 131387, Note_on_c, 11, 61, 0
25, 131391, Note_on_c, 11, 63, 0
25, 131537, Note_on_c, 11, 63, 98
25, 131541, Note_on_c, 11, 61, 88
25, 131632, Note_on_c, 11, 63, 0
25, 131636, Note_on_c, 11, 61, 0
25, 131766, Note_on_c, 11, 61, 96
25, 131768, Note_on_c, 11, 63, 96
25, 131861, Note_on_c, 11, 61, 0
25, 131863, Note_on_c, 11, 63, 0
25, 132016, Note_on_c, 11, 61, 109
25, 132022, Note_on_c, 11, 63, 108
25, 132111, Note_on_c, 11, 61, 0
25, 132117, Note_on_c, 11, 63, 0
25, 132246, Note_on_c, 11, 61, 87
25, 132265, Note_on_c, 11, 63, 81
25, 132341, Note_on_c, 11, 61, 0
25, 132360, Note_on_c, 11, 63, 0
25, 132485, Note_on_c, 11, 63, 80
25, 132497, Note_on_c, 11, 61, 94
25, 132580, Note_on_c, 11, 63, 0
25, 132592, Note_on_c, 11, 61, 0
25, 132731, Note_on_c, 11, 63, 82
25, 132735, Note_on_c, 11, 61, 98
25, 132826, Note_on_c, 11, 63, 0
25, 132830, Note_on_c, 11, 61, 0
25, 132969, Note_on_c, 11, 61, 86
25, 132971, Note_on_c, 11, 63, 79
25, 133064, Note_on_c, 11, 61, 0
25, 133066, Note_on_c, 11, 63, 0
25, 133208, Note_on_c, 11, 63, 56
25, 133218, Note_on_c, 11, 61, 58
25, 133303, Note_on_c, 11, 63, 0
25, 133313, Note_on_c, 11, 61, 0
25, 133440, Note_on_c, 11, 61, 46
25, 133463, Note_on_c, 11, 63, 45
25, 133535, Note_on_c, 11, 61, 0
25, 133558, Note_on_c, 11, 63, 0
25, 133690, Note_on_c, 11, 61, 58
25, 133698, Note_on_c, 11, 63, 53
25, 133785, Note_on_c, 11, 61, 0
25, 133793, Note_on_c, 11, 63, 0
25, 133926, Note_on_c, 11, 61, 57
25, 133933, Note_on_c, 11, 63, 39
25, 134021, Note_on_c, 11, 61, 0
25, 134028, Note_on_c, 11, 63, 0
25, 134178, Note_on_c, 11, 61, 57
25, 134180, Note_on_c, 11, 63, 52
25, 134273, Note_on_c, 11, 61, 0
25, 134275, Note_on_c, 11, 63, 0
25, 134417, Note_on_c, 11, 63, 48
25, 134419, Note_on_c, 11, 61, 47
25, 134512, Note_on_c, 11, 63, 0
25, 134514, Note_on_c, 11, 61, 0
25, 134651, Note_on_c, 11, 63, 49
25, 134660, Note_on_c, 11, 61, 53
25, 134746, Note_on_c, 11, 63, 0
25, 134755, Note_on_c, 11, 61, 0
25, 134886, Note_on_c, 11, 63, 48
25, 134888, Note_on_c, 11, 61, 54
25, 134981, Note_on_c, 11, 63, 0
25, 134983, Note_on_c, 11, 61, 0
25, 135130, Note_on_c, 11, 63, 48
25, 135135, Note_on_c, 11, 61, 43
25, 135225, Note_on_c, 11, 63, 0
25, 135230, Note_on_c, 11, 61, 0
25, 135379, Note_on_c, 11, 63, 51
25, 135382, Note_on_c, 11, 61, 43
25, 135474, Note_on_c, 11, 63, 0
25, 135477, Note_on_c, 11, 61, 0
25, 135606, Note_on_c, 11, 63, 59
25, 135612, Note_on_c, 11, 61, 41
25, 135701, Note_on_c, 11, 63, 0
25, 135707, Note_on_c, 11, 61, 0
25, 135841, Note_on_c, 11, 61, 53
25, 135848, Note_on_c, 11, 63, 58
25, 135936, Note_on_c, 11, 61, 0
25, 135943, Note_on_c, 11, 63, 0
25, 136100, Note_on_c, 11, 63, 39
25, 136102, Note_on_c, 11, 61, 54
25, 136195, Note_on_c, 11, 63, 0
25, 136197, Note_on_c, 11, 61, 0
25, 136337, Note_on_c, 11, 63, 49
25, 136341, Note_on_c, 11, 61, 58
25, 136432, Note_on_c, 11, 63, 0
25, 136436, Note_on_c, 11, 61, 0
25, 136564, Note_on_c, 11, 63, 105
25, 136581, Note_on_c, 11, 61, 100
25, 136659, Note_on_c, 11, 63, 0
25, 136676, Note_on_c, 11, 61, 0
25, 136813, Note_on_c, 11, 63, 91
25, 136821, Note_on_c, 11, 61, 95
25, 136908, Note_on_c, 11, 63, 0
25, 136916, Note_on_c, 11, 61, 0
25, 137064, Note_on_c, 11, 61, 116
25, 137064, Note_on_c, 11, 63, 100
25, 137159, Note_on_c, 11, 61, 0
25, 137159, Note_on_c, 11, 63, 0
25, 137289, Note_on_c, 11, 61, 90
25, 137305, Note_on_c, 11, 63, 91
25, 137384, Note_on_c, 11, 61, 0
25, 137400, Note_on_c, 11, 63, 0
25, 137542, Note_on_c, 11, 61, 111
25, 137543, Note_on_c, 11, 63, 105
25, 137637, Note_on_c, 11, 61, 0
25, 137638, Note_on_c, 11, 63, 0
25, 137761, Note_on_c, 11, 63, 88
25, 137784, Note_on_c, 11, 61, 80
25, 137856, Note_on_c, 11, 63, 0
25, 137879, Note_on_c, 11, 61, 0
25, 138006, Note_on_c, 11, 61, 85
25, 138021, Note_on_c, 11, 63, 95
25, 138101, Note_on_c, 11, 61, 0
25, 138116, Note_on_c, 11, 63, 0
25, 138250, Note_on_c, 11, 63, 89
25, 138262, Note_on_c, 11, 61, 84
25, 138345, Note_on_c, 11, 63, 0
25, 138357, Note_on_c, 11, 61, 0
25, 138487, Note_on_c, 11, 63, 95
25, 138501, Note_on_c, 11, 61, 79
25, 138582, Note_on_c, 11, 63, 0
25, 138596, Note_on_c, 11, 61, 0
25, 138723, Note_on_c, 11, 63, 120
25, 138738, Note_on_c, 11, 61, 118
25, 138818, Note_on_c, 11, 63, 0
25, 138833, Note_on_c, 11, 61, 0
25, 138968, Note_on_c, 11, 61, 93
25, 138976, Note_on_c, 11, 63, 85
25, 139063, Note_on_c, 11, 61, 0
25, 139071, Note_on_c, 11, 63, 0
25, 139216, Note_on_c, 11, 63, 79
25, 139219, Note_on_c, 11, 61, 86
25, 139311, Note_on_c, 11, 63, 0
25, 139314, Note_on_c, 11, 61, 0
25, 139445, Note_on_c, 11, 61, 79
25, 139459, Note_on_c, 11, 63, 79
25, 139540, Note_on_c, 11, 61, 0
25, 139554, Note_on_c, 11, 63, 0
25, 139694, Note_on_c, 11, 63, 84
25, 139698, Note_on_c, 11, 61, 83
25, 139789, Note_on_c, 11, 63, 0
25, 139793, Note_on_c, 11, 61, 0
25, 139936, Note_on_c, 11, 63, 100
25, 139942, Note_on_c, 11, 61, 110
25, 140031, Note_on_c, 11, 63, 0
25, 140037, Note_on_c, 11, 61, 0
25, 140161, Note_on_c, 11, 63, 94
25, 140185, Note_on_c, 11, 61, 88
25, 140256, Note_on_c, 11, 63, 0
25, 140280, Note_on_c, 11, 61, 0
25, 140419, Note_on_c, 11, 61, 79
25, 140422, Note_on_c, 11, 63, 86
25, 140514, Note_on_c, 11, 61, 0
25, 140517, Note_on_c, 11, 63, 0
25, 140656, Note_on_c, 11, 63, 98
25, 140663, Note_on_c, 11, 61, 97
25, 140751, Note_on_c, 11, 63, 0
25, 140758, Note_on_c, 11, 61, 0
25, 140888, Note_on_c, 11, 61, 43
25, 140892, Note_on_c, 11, 63, 59
25, 140983, Note_on_c, 11, 61, 0
25, 140987, Note_on_c, 11, 63, 0
25, 141133, Note_on_c, 11, 63, 52
25, 141137, Note_on_c, 11, 61, 55
25, 141228, Note_on_c, 11, 63, 0
25, 141232, Note_on_c, 11, 61, 0
25, 141369, Note_on_c, 11, 63, 47
25, 141376, Note_on_c, 11, 61, 41
25, 141464, Note_on_c, 11, 63, 0
25, 141471, Note_on_c, 11, 61, 0
25, 141600, Note_on_c, 11, 63, 56
25, 141609, Note_on_c, 11, 61, 55
25, 141695, Note_on_c, 11, 63, 0
25, 141704, Note_on_c, 11, 61, 0
25, 141842, Note_on_c, 11, 61, 52
25, 141852, Note_on_c, 11, 63, 52
25, 141937, Note_on_c, 11, 61, 0
25, 141947, Note_on_c, 11, 63, 0
25, 142092, Note_on_c, 11, 63, 48
25, 142102, Note_on_c, 11, 61, 41
25, 142187, Note_on_c, 11, 63, 0
25, 142197, Note_on_c, 11, 61, 0
25, 142337, Note_on_c, 11, 61, 43
25, 142340, Note_on_c, 11, 63, 54
25, 142432, Note_on_c, 11, 61, 0
25, 142435, Note_on_c, 11, 63, 0
25, 142574, Note_on_c, 11, 61, 53
25, 142581, Note_on_c, 11, 63, 42
25, 142669, Note_on_c, 11, 61, 0
25, 142676, Note_on_c, 11, 63, 0
25, 142803, Note_on_c, 11, 63, 39
25, 142812, Note_on_c, 11, 61, 43
25, 142898, Note_on_c, 11, 63, 0
25, 142907, Note_on_c, 11, 61, 0
25, 143048, Note_on_c, 11, 61, 47
25, 143065, Note_on_c, 11, 63, 46
25, 143143, Note_on_c, 11, 61, 0
25, 143160, Note_on_c, 11, 63, 0
25, 143297, Note_on_c, 11, 63, 44
25, 143303, Note_on_c, 11, 61, 50
25, 143392, Note_on_c, 11, 63, 0
25, 143398, Note_on_c, 11, 61, 0
25, 143525, Note_on_c, 11, 61, 56
25, 143541, Note_on_c, 11, 63, 59
25, 143620, Note_on_c, 11, 61, 0
25, 143636, Note_on_c, 11, 63, 0
25, 143760, Note_on_c, 11, 61, 49
25, 143778, Note_on_c, 11, 63, 56
25, 143855, Note_on_c, 11, 61, 0
25, 143873, Note_on_c, 11, 63, 0
25, 144018, Note_on_c, 11, 61, 59
25, 144022, Note_on_c, 11, 63, 40
25, 144113, Note_on_c, 11, 61, 0
25, 144117, Note_on_c, 11, 63, 0
25, 144254, Note_on_c, 11, 63, 44
25, 144260, Note_on_c, 11, 61, 43
25, 144349, Note_on_c, 11, 63, 0
25, 144355, Note_on_c, 11, 61, 0
25, 144482, Note_on_c, 11, 61, 44
25, 144494, Note_on_c, 11, 63, 48
25, 144577, Note_on_c, 11, 61, 0
25, 144589, Note_on_c, 11, 63, 0
25, 144735, Note_on_c, 11, 61, 39
25, 144742, Note_on_c, 11, 63, 39
25, 144830, Note_on_c, 11, 61, 0
25, 144837, Note_on_c, 11, 63, 0
25, 144969, Note_on_c, 11, 63, 50
25, 144972, Note_on_c, 11, 61, 56
25, 145064, Note_on_c, 11, 63, 0
25, 145067, Note_on_c, 11, 61, 0
25, 145209, Note_on_c, 11, 63, 41
25, 145210, Note_on_c, 11, 61, 44
25, 145304, Note_on_c, 11, 63, 0
25, 145305, Note_on_c, 11, 61, 0
25, 145441, Note_on_c, 11, 63, 41
25, 145465, Note_on_c, 11, 61, 51
25, 145536, Note_on_c, 11, 63, 0
25, 145560, Note_on_c, 11, 61, 0
25, 145689, Note_on_c, 11, 61, 41
25, 145694, Note_on_c, 11, 63, 48
25, 145784, Note_on_c, 11, 61, 0
25, 145789, Note_on_c, 11, 63, 0
25, 145927, Note_on_c, 11, 63, 47
25, 145930, Note_on_c, 11, 61, 59
25, 146022, Note_on_c, 11, 63, 0
25, 146025, Note_on_c, 11, 61, 0
25, 146174, Note_on_c, 11, 61, 43
25, 146179, Note_on_c, 11, 63, 46
25, 146269, Note_on_c, 11, 61, 0
25, 146274, Note_on_c, 11, 63, 0
25, 146404, Note_on_c, 11, 63, 58
25, 146415, Note_on_c, 11, 61, 54
25, 146499, Note_on_c, 11, 63, 0
25, 146510, Note_on_c, 11, 61, 0
25, 146660, Note_on_c, 11, 61, 56
25, 146664, Note_on_c, 11, 63, 54
25, 146755, Note_on_c, 11, 61, 0
25, 146759, Note_on_c, 11, 63, 0
25, 146898, Note_on_c, 11, 61, 49
25, 146901, Note_on_c, 11, 63, 57
25, 146993, Note_on_c, 11, 61, 0
25, 146996, Note_on_c, 11, 63, 0
25, 147130, Note_on_c, 11, 61, 58
25, 147136, Note_on_c, 11, 63, 44
25, 147225, Note_on_c, 11, 61, 0
25, 147231, Note_on_c, 11, 63, 0
25, 147367, Note_on_c, 11, 63, 57
25, 147384, Note_on_c, 11, 61, 42
25, 147462, Note_on_c, 11, 63, 0
25, 147479, Note_on_c, 11, 61, 0
25, 147614, Note_on_c, 11, 63, 52
25, 147621, Note_on_c, 11, 61, 57
25, 147709, Note_on_c, 11, 63, 0
25, 147716, Note_on_c, 11, 61, 0
25, 147848, Note_on_c, 11, 63, 46
25, 147858, Note_on_c, 11, 61, 50
25, 147943, Note_on_c, 11, 63, 0
25, 147953, Note_on_c, 11, 61, 0
25, 148101, Note_on_c, 11, 61, 55
25, 148102, Note_on_c, 11, 63, 59
25, 148196, Note_on_c, 11, 61, 0
25, 148197, Note_on_c, 11, 63, 0
25, 148325, Note_on_c, 11, 63, 57
25, 148334, Note_on_c, 11, 61, 40
25, 148420, Note_on_c, 11, 63, 0
25, 148429, Note_on_c, 11, 61, 0
25, 148569, Note_on_c, 11, 63, 52
25, 148573, Note_on_c, 11, 61, 50
25, 148664, Note_on_c, 11, 63, 0
25, 148668, Note_on_c, 11, 61, 0
25, 148810, Note_on_c, 11, 61, 46
25, 148823, Note_on_c, 11, 63, 50
25, 148905, Note_on_c, 11, 61, 0
25, 148918, Note_on_c, 11, 63, 0
25, 149044, Note_on_c, 11, 61, 50
25, 149062, Note_on_c, 11, 63, 44
25, 149139, Note_on_c, 11, 61, 0
25, 149157, Note_on_c, 11, 63, 0
25, 149280, Note_on_c, 11, 61, 50
25, 149305, Note_on_c, 11, 63, 45
25, 149375, Note_on_c, 11, 61, 0
25, 149400, Note_on_c, 11, 63, 0
25, 149521, Note_on_c, 11, 61, 40
25, 149526, Note_on_c, 11, 63, 39
25, 149616, Note_on_c, 11, 61, 0
25, 149621, Note_on_c, 11, 63, 0
25, 149766, Note_on_c, 11, 61, 53
25, 149778, Note_on_c, 11, 63, 45
25, 149861, Note_on_c, 11, 61, 0
25, 149873, Note_on_c, 11, 63, 0
25, 150000, Note_on_c, 11, 61, 41
25, 150018, Note_on_c, 11, 63, 40
25, 150095, Note_on_c, 11, 61, 0
25, 150113, Note_on_c, 11, 63, 0
25, 150480, Program_c, 11, 45
25, 150481, Note_on_c, 11, 70, 103
25, 150488, Note_on_c, 11, 55, 102
25, 150491, Note_on_c, 11, 82, 93
25, 150502, Note_on_c, 11, 73, 92
25, 150721, Note_on_c, 11, 70, 0
25, 150728, Note_on_c, 11, 55, 0
25, 150731, Note_on_c, 11, 82, 0
25, 150742, Note_on_c, 11, 73, 0
25, 151200, Program_c, 11, 48
25, 151200, Note_on_c, 11, 62, 92
25, 151280, Note_on_c, 11, 62, 0
25, 153120, Program_c, 11, 40
25, 153624, Note_on_c, 11, 60, 37
25, 153678, Note_on_c, 11, 62, 39
25, 153741, Note_on_c, 11, 60, 0
25, 153758, Note_on_c, 11, 60, 52
25, 153795, Note_on_c, 11, 62, 0
25, 153856, Note_on_c, 11, 62, 53
25, 153875, Note_on_c, 11, 60, 0
25, 153920, Note_on_c, 11, 60, 35
25, 153973, Note_on_c, 11, 62, 0
25, 154012, Note_on_c, 11, 62, 38
25, 154037, Note_on_c, 11, 60, 0
25, 154093, Note_on_c, 11, 60, 33
25, 154129, Note_on_c, 11, 62, 0
25, 154168, Note_on_c, 11, 62, 38
25, 154210, Note_on_c, 11, 60, 0
25, 154226, Note_on_c, 11, 60, 48
25, 154285, Note_on_c, 11, 62, 0
25, 154307, Note_on_c, 11, 62, 46
25, 154343, Note_on_c, 11, 60, 0
25, 154389, Note_on_c, 11, 60, 33
25, 154424, Note_on_c, 11, 62, 0
25, 154460, Note_on_c, 11, 62, 53
25, 154506, Note_on_c, 11, 60, 0
25, 154550, Note_on_c, 11, 60, 45
25, 154577, Note_on_c, 11, 62, 0
25, 154632, Note_on_c, 11, 62, 44
25, 154667, Note_on_c, 11, 60, 0
25, 154706, Note_on_c, 11, 60, 39
25, 154749, Note_on_c, 11, 62, 0
25, 154776, Note_on_c, 11, 62, 37
25, 154823, Note_on_c, 11, 60, 0
25, 154852, Note_on_c, 11, 60, 40
25, 154893, Note_on_c, 11, 62, 0
25, 154942, Note_on_c, 11, 62, 50
25, 154969, Note_on_c, 11, 60, 0
25, 155026, Note_on_c, 11, 60, 51
25, 155059, Note_on_c, 11, 62, 0
25, 155091, Note_on_c, 11, 62, 37
25, 155143, Note_on_c, 11, 60, 0
25, 155179, Note_on_c, 11, 60, 36
25, 155208, Note_on_c, 11, 62, 0
25, 155246, Note_on_c, 11, 62, 34
25, 155296, Note_on_c, 11, 60, 0
25, 155321, Note_on_c, 11, 60, 43
25, 155363, Note_on_c, 11, 62, 0
25, 155408, Note_on_c, 11, 62, 49
25, 155438, Note_on_c, 11, 60, 0
25, 155482, Note_on_c, 11, 60, 36
25, 155525, Note_on_c, 11, 62, 0
25, 155581, Note_on_c, 11, 62, 50
25, 155599, Note_on_c, 11, 60, 0
25, 155638, Note_on_c, 11, 60, 35
25, 155698, Note_on_c, 11, 62, 0
25, 155734, Note_on_c, 11, 62, 35
25, 155755, Note_on_c, 11, 60, 0
25, 155799, Note_on_c, 11, 60, 39
25, 155851, Note_on_c, 11, 62, 0
25, 155876, Note_on_c, 11, 62, 38
25, 155916, Note_on_c, 11, 60, 0
25, 155953, Note_on_c, 11, 60, 52
25, 155993, Note_on_c, 11, 62, 0
25, 156042, Note_on_c, 11, 62, 39
25, 156070, Note_on_c, 11, 60, 0
25, 156116, Note_on_c, 11, 60, 43
25, 156159, Note_on_c, 11, 62, 0
25, 156193, Note_on_c, 11, 62, 41
25, 156233, Note_on_c, 11, 60, 0
25, 156266, Note_on_c, 11, 60, 43
25, 156310, Note_on_c, 11, 62, 0
25, 156356, Note_on_c, 11, 62, 42
25, 156383, Note_on_c, 11, 60, 0
25, 156419, Note_on_c, 11, 60, 38
25, 156473, Note_on_c, 11, 62, 0
25, 156506, Note_on_c, 11, 62, 53
25, 156536, Note_on_c, 11, 60, 0
25, 156598, Note_on_c, 11, 60, 41
25, 156623, Note_on_c, 11, 62, 0
25, 156653, Note_on_c, 11, 62, 52
25, 156715, Note_on_c, 11, 60, 0
25, 156735, Note_on_c, 11, 60, 48
25, 156770, Note_on_c, 11, 62, 0
25, 156816, Note_on_c, 11, 62, 37
25, 156852, Note_on_c, 11, 60, 0
25, 156890, Note_on_c, 11, 60, 49
25, 156933, Note_on_c, 11, 62, 0
25, 156990, Note_on_c, 11, 62, 48
25, 157019, Note_on_c, 11, 60, 0
25, 157049, Note_on_c, 11, 60, 38
25, 157107, Note_on_c, 11, 62, 0
25, 157131, Note_on_c, 11, 62, 40
25, 157166, Note_on_c, 11, 60, 0
25, 157221, Note_on_c, 11, 60, 41
25, 157248, Note_on_c, 11, 62, 0
25, 157296, Note_on_c, 11, 62, 41
25, 157338, Note_on_c, 11, 60, 0
25, 157363, Note_on_c, 11, 60, 53
25, 157413, Note_on_c, 11, 62, 0
25, 157439, Note_on_c, 11, 62, 53
25, 157480, Note_on_c, 11, 60, 0
25, 157526, Note_on_c, 11, 60, 42
25, 157556, Note_on_c, 11, 62, 0
25, 157593, Note_on_c, 11, 62, 43
25, 157643, Note_on_c, 11, 60, 0
25, 157683, Note_on_c, 11, 60, 45
25, 157710, Note_on_c, 11, 62, 0
25, 157759, Note_on_c, 11, 62, 36
25, 157800, Note_on_c, 11, 60, 0
25, 157830, Note_on_c, 11, 67, 81
25, 157840, Note_on_c, 11, 60, 52
25, 157860, Note_on_c, 11, 67, 0
25, 157860, Note_on_c, 11, 69, 71
25, 157876, Note_on_c, 11, 62, 0
25, 157890, Note_on_c, 11, 69, 0
25, 157890, Note_on_c, 11, 71, 74
25, 157920, Note_on_c, 11, 71, 0
25, 157920, Program_c, 11, 48
25, 157923, Note_on_c, 11, 72, 84
25, 157957, Note_on_c, 11, 60, 0
25, 158018, Note_on_c, 11, 72, 0
25, 158310, Note_on_c, 11, 67, 90
25, 158340, Note_on_c, 11, 67, 0
25, 158340, Note_on_c, 11, 69, 79
25, 158370, Note_on_c, 11, 69, 0
25, 158370, Note_on_c, 11, 71, 80
25, 158400, Note_on_c, 11, 71, 0
25, 158405, Note_on_c, 11, 72, 82
25, 158500, Note_on_c, 11, 72, 0
25, 158790, Note_on_c, 11, 67, 78
25, 158820, Note_on_c, 11, 67, 0
25, 158820, Note_on_c, 11, 69, 80
25, 158850, Note_on_c, 11, 69, 0
25, 158850, Note_on_c, 11, 71, 93
25, 158880, Note_on_c, 11, 71, 0
25, 158905, Note_on_c, 11, 72, 84
25, 159000, Note_on_c, 11, 72, 0
25, 159270, Note_on_c, 11, 67, 89
25, 159300, Note_on_c, 11, 67, 0
25, 159300, Note_on_c, 11, 69, 97
25, 159330, Note_on_c, 11, 69, 0
25, 159330, Note_on_c, 11, 71, 90
25, 159360, Note_on_c, 11, 71, 0
25, 159384, Note_on_c, 11, 72, 79
25, 159479, Note_on_c, 11, 72, 0
25, 159750, Note_on_c, 11, 67, 87
25, 159780, Note_on_c, 11, 67, 0
25, 159780, Note_on_c, 11, 69, 79
25, 159810, Note_on_c, 11, 69, 0
25, 159810, Note_on_c, 11, 71, 96
25, 159840, Note_on_c, 11, 71, 0
25, 159851, Note_on_c, 11, 72, 92
25, 159946, Note_on_c, 11, 72, 0
25, 160230, Note_on_c, 11, 67, 84
25, 160260, Note_on_c, 11, 67, 0
25, 160260, Note_on_c, 11, 69, 92
25, 160290, Note_on_c, 11, 69, 0
25, 160290, Note_on_c, 11, 71, 84
25, 160320, Note_on_c, 11, 71, 0
25, 160337, Note_on_c, 11, 72, 88
25, 160432, Note_on_c, 11, 72, 0
25, 160800, Program_c, 11, 40
25, 160804, Note_on_c, 11, 60, 42
25, 160885, Note_on_c, 11, 62, 41
25, 160913, Note_on_c, 11, 60, 0
25, 160961, Note_on_c, 11, 60, 51
25, 160994, Note_on_c, 11, 62, 0
25, 161036, Note_on_c, 11, 62, 51
25, 161070, Note_on_c, 11, 60, 0
25, 161115, Note_on_c, 11, 60, 38
25, 161145, Note_on_c, 11, 62, 0
25, 161187, Note_on_c, 11, 62, 46
25, 161224, Note_on_c, 11, 60, 0
25, 161259, Note_on_c, 11, 60, 53
25, 161296, Note_on_c, 11, 62, 0
25, 161337, Note_on_c, 11, 62, 33
25, 161368, Note_on_c, 11, 60, 0
25, 161407, Note_on_c, 11, 60, 34
25, 161446, Note_on_c, 11, 62, 0
25, 161478, Note_on_c, 11, 62, 40
25, 161516, Note_on_c, 11, 60, 0
25, 161543, Note_on_c, 11, 60, 52
25, 161587, Note_on_c, 11, 62, 0
25, 161625, Note_on_c, 11, 62, 38
25, 161652, Note_on_c, 11, 60, 0
25, 161670, Program_c, 11, 48
25, 161670, Note_on_c, 11, 67, 85
25, 161700, Note_on_c, 11, 67, 0
25, 161700, Note_on_c, 11, 69, 72
25, 161707, Note_on_c, 11, 60, 51
25, 161730, Note_on_c, 11, 69, 0
25, 161730, Note_on_c, 11, 71, 73
25, 161734, Note_on_c, 11, 62, 0
25, 161760, Note_on_c, 11, 71, 0
25, 161760, Note_on_c, 11, 72, 81
25, 161816, Note_on_c, 11, 60, 0
25, 161855, Note_on_c, 11, 72, 0
25, 162150, Note_on_c, 11, 67, 76
25, 162180, Note_on_c, 11, 67, 0
25, 162180, Note_on_c, 11, 69, 77
25, 162210, Note_on_c, 11, 69, 0
25, 162210, Note_on_c, 11, 71, 80
25, 162240, Note_on_c, 11, 71, 0
25, 162259, Note_on_c, 11, 72, 68
25, 162354, Note_on_c, 11, 72, 0
25, 164640, Program_c, 11, 40
25, 164644, Note_on_c, 11, 65, 46
25, 164727, Note_on_c, 11, 64, 52
25, 164764, Note_on_c, 11, 65, 0
25, 164813, Note_on_c, 11, 65, 49
25, 164845, Note_on_c, 11, 64, 0
25, 164902, Note_on_c, 11, 64, 34
25, 164933, Note_on_c, 11, 65, 0
25, 164969, Note_on_c, 11, 65, 33
25, 165022, Note_on_c, 11, 64, 0
25, 165039, Note_on_c, 11, 64, 50
25, 165087, Note_on_c, 11, 65, 0
25, 165121, Note_on_c, 11, 65, 39
25, 165159, Note_on_c, 11, 64, 0
25, 165208, Note_on_c, 11, 64, 36
25, 165241, Note_on_c, 11, 65, 0
25, 165280, Note_on_c, 11, 65, 37
25, 165326, Note_on_c, 11, 64, 0
25, 165370, Note_on_c, 11, 64, 34
25, 165400, Note_on_c, 11, 65, 0
25, 165445, Note_on_c, 11, 65, 47
25, 165490, Note_on_c, 11, 64, 0
25, 165538, Note_on_c, 11, 64, 53
25, 165563, Note_on_c, 11, 65, 0
25, 165608, Note_on_c, 11, 65, 47
25, 165658, Note_on_c, 11, 64, 0
25, 165691, Note_on_c, 11, 64, 51
25, 165728, Note_on_c, 11, 65, 0
25, 165764, Note_on_c, 11, 65, 51
25, 165809, Note_on_c, 11, 64, 0
25, 165844, Note_on_c, 11, 64, 37
25, 165884, Note_on_c, 11, 65, 0
25, 165923, Note_on_c, 11, 65, 48
25, 165964, Note_on_c, 11, 64, 0
25, 166015, Note_on_c, 11, 64, 47
25, 166041, Note_on_c, 11, 65, 0
25, 166086, Note_on_c, 11, 65, 46
25, 166135, Note_on_c, 11, 64, 0
25, 166179, Note_on_c, 11, 64, 49
25, 166206, Note_on_c, 11, 65, 0
25, 166244, Note_on_c, 11, 65, 46
25, 166297, Note_on_c, 11, 64, 0
25, 166336, Note_on_c, 11, 64, 33
25, 166364, Note_on_c, 11, 65, 0
25, 166410, Note_on_c, 11, 65, 36
25, 166456, Note_on_c, 11, 64, 0
25, 166483, Note_on_c, 11, 64, 53
25, 166528, Note_on_c, 11, 65, 0
25, 166565, Note_on_c, 11, 65, 24
25, 166603, Note_on_c, 11, 64, 0
25, 166648, Note_on_c, 11, 64, 11
25, 166685, Note_on_c, 11, 65, 0
25, 166742, Note_on_c, 11, 65, 10
25, 166766, Note_on_c, 11, 64, 0
25, 166807, Note_on_c, 11, 64, 20
25, 166862, Note_on_c, 11, 65, 0
25, 166883, Note_on_c, 11, 65, 17
25, 166927, Note_on_c, 11, 64, 0
25, 166967, Note_on_c, 11, 64, 8
25, 167001, Note_on_c, 11, 65, 0
25, 167047, Note_on_c, 11, 65, 12
25, 167087, Note_on_c, 11, 64, 0
25, 167136, Note_on_c, 11, 64, 7
25, 167167, Note_on_c, 11, 65, 0
25, 167206, Note_on_c, 11, 65, 7
25, 167254, Note_on_c, 11, 64, 0
25, 167305, Note_on_c, 11, 64, 9
25, 167326, Note_on_c, 11, 65, 0
25, 167379, Note_on_c, 11, 65, 27
25, 167425, Note_on_c, 11, 64, 0
25, 167445, Note_on_c, 11, 64, 24
25, 167497, Note_on_c, 11, 65, 0
25, 167531, Note_on_c, 11, 65, 16
25, 167565, Note_on_c, 11, 64, 0
25, 167623, Note_on_c, 11, 64, 14
25, 167651, Note_on_c, 11, 65, 0
25, 167692, Note_on_c, 11, 65, 16
25, 167741, Note_on_c, 11, 64, 0
25, 167784, Note_on_c, 11, 64, 8
25, 167812, Note_on_c, 11, 65, 0
25, 167844, Note_on_c, 11, 65, 14
25, 167904, Note_on_c, 11, 64, 0
25, 167924, Note_on_c, 11, 64, 20
25, 167962, Note_on_c, 11, 65, 0
25, 168003, Note_on_c, 11, 65, 7
25, 168044, Note_on_c, 11, 64, 0
25, 168102, Note_on_c, 11, 64, 11
25, 168123, Note_on_c, 11, 65, 0
25, 168179, Note_on_c, 11, 65, 20
25, 168220, Note_on_c, 11, 64, 0
25, 168259, Note_on_c, 11, 64, 13
25, 168299, Note_on_c, 11, 65, 0
25, 168324, Note_on_c, 11, 65, 22
25, 168379, Note_on_c, 11, 64, 0
25, 168414, Note_on_c, 11, 64, 18
25, 168442, Note_on_c, 11, 65, 0
25, 168494, Note_on_c, 11, 65, 17
25, 168534, Note_on_c, 11, 64, 0
25, 168579, Note_on_c, 11, 64, 27
25, 168614, Note_on_c, 11, 65, 0
25, 168644, Note_on_c, 11, 65, 25
25, 168697, Note_on_c, 11, 64, 0
25, 168728, Note_on_c, 11, 64, 15
25, 168764, Note_on_c, 11, 65, 0
25, 168820, Note_on_c, 11, 65, 17
25, 168848, Note_on_c, 11, 64, 0
25, 168888, Note_on_c, 11, 64, 17
25, 168938, Note_on_c, 11, 65, 0
25, 168983, Note_on_c, 11, 65, 23
25, 169008, Note_on_c, 11, 64, 0
25, 169043, Note_on_c, 11, 64, 9
25, 169103, Note_on_c, 11, 65, 0
25, 169140, Note_on_c, 11, 65, 27
25, 169161, Note_on_c, 11, 64, 0
25, 169213, Note_on_c, 11, 64, 16
25, 169260, Note_on_c, 11, 65, 0
25, 169302, Note_on_c, 11, 65, 9
25, 169333, Note_on_c, 11, 64, 0
25, 169380, Note_on_c, 11, 64, 26
25, 169420, Note_on_c, 11, 65, 0
25, 169459, Note_on_c, 11, 65, 20
25, 169500, Note_on_c, 11, 64, 0
25, 169541, Note_on_c, 11, 64, 22
25, 169579, Note_on_c, 11, 65, 0
25, 169616, Note_on_c, 11, 65, 22
25, 169659, Note_on_c, 11, 64, 0
25, 169694, Note_on_c, 11, 64, 14
25, 169736, Note_on_c, 11, 65, 0
25, 169777, Note_on_c, 11, 65, 18
25, 169814, Note_on_c, 11, 64, 0
25, 169860, Note_on_c, 11, 64, 20
25, 169895, Note_on_c, 11, 65, 0
25, 169937, Note_on_c, 11, 65, 20
25, 169980, Note_on_c, 11, 64, 0
25, 170009, Note_on_c, 11, 64, 15
25, 170057, Note_on_c, 11, 65, 0
25, 170080, Note_on_c, 11, 65, 11
25, 170127, Note_on_c, 11, 64, 0
25, 170171, Note_on_c, 11, 64, 18
25, 170200, Note_on_c, 11, 65, 0
25, 170248, Note_on_c, 11, 65, 8
25, 170291, Note_on_c, 11, 64, 0
25, 170327, Note_on_c, 11, 64, 13
25, 170366, Note_on_c, 11, 65, 0
25, 170419, Note_on_c, 11, 65, 7
25, 170447, Note_on_c, 11, 64, 0
25, 170499, Note_on_c, 11, 64, 9
25, 170539, Note_on_c, 11, 65, 0
25, 170566, Note_on_c, 11, 65, 17
25, 170617, Note_on_c, 11, 64, 0
25, 170641, Note_on_c, 11, 64, 9
25, 170686, Note_on_c, 11, 65, 0
25, 170730, Note_on_c, 11, 65, 20
25, 170761, Note_on_c, 11, 64, 0
25, 170801, Note_on_c, 11, 64, 20
25, 170848, Note_on_c, 11, 65, 0
25, 170886, Note_on_c, 11, 65, 16
25, 170921, Note_on_c, 11, 64, 0
25, 170964, Note_on_c, 11, 64, 27
25, 171006, Note_on_c, 11, 65, 0
25, 171062, Note_on_c, 11, 65, 20
25, 171082, Note_on_c, 11, 64, 0
25, 171133, Note_on_c, 11, 64, 14
25, 171182, Note_on_c, 11, 65, 0
25, 171217, Note_on_c, 11, 65, 26
25, 171253, Note_on_c, 11, 64, 0
25, 171283, Note_on_c, 11, 64, 22
25, 171335, Note_on_c, 11, 65, 0
25, 171375, Note_on_c, 11, 65, 7
25, 171403, Note_on_c, 11, 64, 0
25, 171453, Note_on_c, 11, 64, 11
25, 171495, Note_on_c, 11, 65, 0
25, 171530, Note_on_c, 11, 65, 8
25, 171571, Note_on_c, 11, 64, 0
25, 171608, Note_on_c, 11, 64, 19
25, 171650, Note_on_c, 11, 65, 0
25, 171702, Note_on_c, 11, 65, 27
25, 171728, Note_on_c, 11, 64, 0
25, 171767, Note_on_c, 11, 64, 26
25, 171820, Note_on_c, 11, 65, 0
25, 171852, Note_on_c, 11, 65, 21
25, 171887, Note_on_c, 11, 64, 0
25, 171941, Note_on_c, 11, 64, 13
25, 171972, Note_on_c, 11, 65, 0
25, 172015, Note_on_c, 11, 65, 20
25, 172059, Note_on_c, 11, 64, 0
25, 172097, Note_on_c, 11, 64, 24
25, 172135, Note_on_c, 11, 65, 0
25, 172172, Note_on_c, 11, 65, 14
25, 172217, Note_on_c, 11, 64, 0
25, 172250, Note_on_c, 11, 64, 11
25, 172290, Note_on_c, 11, 65, 0
25, 172337, Note_on_c, 11, 65, 13
25, 172370, Note_on_c, 11, 64, 0
25, 172420, Note_on_c, 11, 64, 18
25, 172457, Note_on_c, 11, 65, 0
25, 172500, Note_on_c, 11, 65, 26
25, 172538, Note_on_c, 11, 64, 0
25, 172562, Note_on_c, 11, 64, 26
25, 172620, Note_on_c, 11, 65, 0
25, 172642, Note_on_c, 11, 65, 8
25, 172682, Note_on_c, 11, 64, 0
25, 172724, Note_on_c, 11, 64, 24
25, 172760, Note_on_c, 11, 65, 0
25, 172814, Note_on_c, 11, 65, 25
25, 172844, Note_on_c, 11, 64, 0
25, 172887, Note_on_c, 11, 64, 21
25, 172934, Note_on_c, 11, 65, 0
25, 172983, Note_on_c, 11, 65, 22
25, 173005, Note_on_c, 11, 64, 0
25, 173065, Note_on_c, 11, 64, 7
25, 173103, Note_on_c, 11, 65, 0
25, 173143, Note_on_c, 11, 65, 17
25, 173185, Note_on_c, 11, 64, 0
25, 173200, Note_on_c, 11, 64, 21
25, 173261, Note_on_c, 11, 65, 0
25, 173289, Note_on_c, 11, 65, 10
25, 173320, Note_on_c, 11, 64, 0
25, 173369, Note_on_c, 11, 64, 20
25, 173409, Note_on_c, 11, 65, 0
25, 173462, Note_on_c, 11, 65, 21
25, 173487, Note_on_c, 11, 64, 0
25, 173539, Note_on_c, 11, 64, 16
25, 173582, Note_on_c, 11, 65, 0
25, 173604, Note_on_c, 11, 65, 16
25, 173659, Note_on_c, 11, 64, 0
25, 173687, Note_on_c, 11, 64, 12
25, 173722, Note_on_c, 11, 65, 0
25, 173777, Note_on_c, 11, 65, 23
25, 173807, Note_on_c, 11, 64, 0
25, 173844, Note_on_c, 11, 64, 11
25, 173897, Note_on_c, 11, 65, 0
25, 173923, Note_on_c, 11, 65, 12
25, 173962, Note_on_c, 11, 64, 0
25, 174011, Note_on_c, 11, 64, 22
25, 174043, Note_on_c, 11, 65, 0
25, 174082, Note_on_c, 11, 65, 18
25, 174131, Note_on_c, 11, 64, 0
25, 174179, Note_on_c, 11, 64, 7
25, 174200, Note_on_c, 11, 65, 0
25, 174250, Note_on_c, 11, 65, 22
25, 174299, Note_on_c, 11, 64, 0
25, 174338, Note_on_c, 11, 64, 10
25, 174370, Note_on_c, 11, 65, 0
25, 174401, Note_on_c, 11, 65, 19
25, 174456, Note_on_c, 11, 64, 0
25, 174492, Note_on_c, 11, 64, 11
25, 174521, Note_on_c, 11, 65, 0
25, 174566, Note_on_c, 11, 65, 8
25, 174612, Note_on_c, 11, 64, 0
25, 174663, Note_on_c, 11, 64, 17
25, 174684, Note_on_c, 11, 65, 0
25, 174734, Note_on_c, 11, 65, 17
25, 174783, Note_on_c, 11, 64, 0
25, 174824, Note_on_c, 11, 64, 11
25, 174854, Note_on_c, 11, 65, 0
25, 174901, Note_on_c, 11, 65, 9
25, 174942, Note_on_c, 11, 64, 0
25, 174977, Note_on_c, 11, 64, 13
25, 175021, Note_on_c, 11, 65, 0
25, 175040, Note_on_c, 11, 65, 19
25, 175097, Note_on_c, 11, 64, 0
25, 175127, Note_on_c, 11, 64, 13
25, 175158, Note_on_c, 11, 65, 0
25, 175224, Note_on_c, 11, 65, 18
25, 175247, Note_on_c, 11, 64, 0
25, 175290, Note_on_c, 11, 64, 17
25, 175344, Note_on_c, 11, 65, 0
25, 175365, Note_on_c, 11, 65, 10
25, 175408, Note_on_c, 11, 64, 0
25, 175443, Note_on_c, 11, 64, 9
25, 175485, Note_on_c, 11, 65, 0
25, 175540, Note_on_c, 11, 65, 11
25, 175563, Note_on_c, 11, 64, 0
25, 175622, Note_on_c, 11, 64, 17
25, 175658, Note_on_c, 11, 65, 0
25, 175689, Note_on_c, 11, 65, 18
25, 175742, Note_on_c, 11, 64, 0
25, 175778, Note_on_c, 11, 64, 25
25, 175809, Note_on_c, 11, 65, 0
25, 175846, Note_on_c, 11, 65, 17
25, 175896, Note_on_c, 11, 64, 0
25, 175944, Note_on_c, 11, 64, 7
25, 175966, Note_on_c, 11, 65, 0
25, 176012, Note_on_c, 11, 65, 8
25, 176064, Note_on_c, 11, 64, 0
25, 176095, Note_on_c, 11, 64, 21
25, 176130, Note_on_c, 11, 65, 0
25, 176168, Note_on_c, 11, 65, 24
25, 176215, Note_on_c, 11, 64, 0
25, 176251, Note_on_c, 11, 64, 22
25, 176288, Note_on_c, 11, 65, 0
25, 176336, Note_on_c, 11, 65, 23
25, 176369, Note_on_c, 11, 64, 0
25, 176409, Note_on_c, 11, 64, 14
25, 176456, Note_on_c, 11, 65, 0
25, 176498, Note_on_c, 11, 65, 12
25, 176529, Note_on_c, 11, 64, 0
25, 176583, Note_on_c, 11, 64, 9
25, 176616, Note_on_c, 11, 65, 0
25, 176657, Note_on_c, 11, 65, 25
25, 176703, Note_on_c, 11, 64, 0
25, 176726, Note_on_c, 11, 64, 24
25, 176777, Note_on_c, 11, 65, 0
25, 176813, Note_on_c, 11, 65, 7
25, 176844, Note_on_c, 11, 64, 0
25, 176894, Note_on_c, 11, 64, 10
25, 176933, Note_on_c, 11, 65, 0
25, 176968, Note_on_c, 11, 65, 15
25, 177014, Note_on_c, 11, 64, 0
25, 177048, Note_on_c, 11, 64, 14
25, 177086, Note_on_c, 11, 65, 0
25, 177131, Note_on_c, 11, 65, 13
25, 177168, Note_on_c, 11, 64, 0
25, 177203, Note_on_c, 11, 64, 15
25, 177251, Note_on_c, 11, 65, 0
25, 177292, Note_on_c, 11, 65, 14
25, 177321, Note_on_c, 11, 64, 0
25, 177366, Note_on_c, 11, 64, 20
25, 177412, Note_on_c, 11, 65, 0
25, 177458, Note_on_c, 11, 65, 15
25, 177486, Note_on_c, 11, 64, 0
25, 177526, Note_on_c, 11, 64, 14
25, 177576, Note_on_c, 11, 65, 0
25, 177605, Note_on_c, 11, 65, 27
25, 177646, Note_on_c, 11, 64, 0
25, 177685, Note_on_c, 11, 64, 21
25, 177725, Note_on_c, 11, 65, 0
25, 177772, Note_on_c, 11, 65, 22
25, 177803, Note_on_c, 11, 64, 0
25, 177853, Note_on_c, 11, 64, 10
25, 177892, Note_on_c, 11, 65, 0
25, 177922, Note_on_c, 11, 65, 23
25, 177973, Note_on_c, 11, 64, 0
25, 178023, Note_on_c, 11, 64, 15
25, 178040, Note_on_c, 11, 65, 0
25, 178092, Note_on_c, 11, 65, 20
25, 178143, Note_on_c, 11, 64, 0
25, 178168, Note_on_c, 11, 64, 24
25, 178212, Note_on_c, 11, 65, 0
25, 178252, Note_on_c, 11, 65, 23
25, 178286, Note_on_c, 11, 64, 0
25, 178322, Note_on_c, 11, 64, 25
25, 178372, Note_on_c, 11, 65, 0
25, 178407, Note_on_c, 11, 65, 21
25, 178442, Note_on_c, 11, 64, 0
25, 178491, Note_on_c, 11, 64, 17
25, 178525, Note_on_c, 11, 65, 0
25, 178584, Note_on_c, 11, 65, 18
25, 178611, Note_on_c, 11, 64, 0
25, 178665, Note_on_c, 11, 64, 18
25, 178704, Note_on_c, 11, 65, 0
25, 178729, Note_on_c, 11, 65, 8
25, 178783, Note_on_c, 11, 64, 0
25, 178802, Note_on_c, 11, 64, 18
25, 178849, Note_on_c, 11, 65, 0
25, 178889, Note_on_c, 11, 65, 21
25, 178922, Note_on_c, 11, 64, 0
25, 178984, Note_on_c, 11, 64, 26
25, 179007, Note_on_c, 11, 65, 0
25, 179062, Note_on_c, 11, 65, 20
25, 179104, Note_on_c, 11, 64, 0
25, 179127, Note_on_c, 11, 64, 16
25, 179182, Note_on_c, 11, 65, 0
25, 179220, Note_on_c, 11, 65, 24
25, 179245, Note_on_c, 11, 64, 0
25, 179281, Note_on_c, 11, 64, 12
25, 179340, Note_on_c, 11, 65, 0
25, 179372, Note_on_c, 11, 65, 19
25, 179401, Note_on_c, 11, 64, 0
25, 179456, Note_on_c, 11, 64, 9
25, 179490, Note_on_c, 11, 65, 0
25, 179520, Note_on_c, 11, 65, 16
25, 179576, Note_on_c, 11, 64, 0
25, 179625, Note_on_c, 11, 64, 9
25, 179640, Note_on_c, 11, 65, 0
25, 179696, Note_on_c, 11, 65, 9
25, 179743, Note_on_c, 11, 64, 0
25, 179765, Note_on_c, 11, 64, 11
25, 179816, Note_on_c, 11, 65, 0
25, 179863, Note_on_c, 11, 65, 8
25, 179885, Note_on_c, 11, 64, 0
25, 179925, Note_on_c, 11, 64, 12
25, 179981, Note_on_c, 11, 65, 0
25, 180018, Note_on_c, 11, 65, 10
25, 180045, Note_on_c, 11, 64, 0
25, 180084, Note_on_c, 11, 64, 14
25, 180138, Note_on_c, 11, 65, 0
25, 180179, Note_on_c, 11, 65, 17
25, 180202, Note_on_c, 11, 64, 0
25, 180240, Note_on_c, 11, 64, 17
25, 180299, Note_on_c, 11, 65, 0
25, 180326, Note_on_c, 11, 65, 20
25, 180360, Note_on_c, 11, 64, 0
25, 180409, Note_on_c, 11, 64, 17
25, 180444, Note_on_c, 11, 65, 0
25, 180495, Note_on_c, 11, 65, 23
25, 180529, Note_on_c, 11, 64, 0
25, 180570, Note_on_c, 11, 64, 11
25, 180615, Note_on_c, 11, 65, 0
25, 180642, Note_on_c, 11, 65, 23
25, 180688, Note_on_c, 11, 64, 0
25, 180720, Note_on_c, 11, 64, 19
25, 180762, Note_on_c, 11, 65, 0
25, 180807, Note_on_c, 11, 65, 23
25, 180840, Note_on_c, 11, 64, 0
25, 180887, Note_on_c, 11, 64, 25
25, 180925, Note_on_c, 11, 65, 0
25, 180963, Note_on_c, 11, 65, 15
25, 181007, Note_on_c, 11, 64, 0
25, 181043, Note_on_c, 11, 64, 9
25, 181083, Note_on_c, 11, 65, 0
25, 181124, Note_on_c, 11, 65, 21
25, 181161, Note_on_c, 11, 64, 0
25, 181213, Note_on_c, 11, 64, 26
25, 181244, Note_on_c, 11, 65, 0
25, 181291, Note_on_c, 11, 65, 12
25, 181333, Note_on_c, 11, 64, 0
25, 181367, Note_on_c, 11, 64, 23
25, 181409, Note_on_c, 11, 65, 0
25, 181458, Note_on_c, 11, 65, 23
25, 181487, Note_on_c, 11, 64, 0
25, 181527, Note_on_c, 11, 64, 23
25, 181578, Note_on_c, 11, 65, 0
25, 181621, Note_on_c, 11, 65, 7
25, 181645, Note_on_c, 11, 64, 0
25, 181680, Note_on_c, 11, 64, 21
25, 181741, Note_on_c, 11, 65, 0
25, 181785, Note_on_c, 11, 65, 16
25, 181800, Note_on_c, 11, 64, 0
25, 181844, Note_on_c, 11, 64, 19
25, 181903, Note_on_c, 11, 65, 0
25, 181929, Note_on_c, 11, 65, 23
25, 181964, Note_on_c, 11, 64, 0
25, 182019, Note_on_c, 11, 64, 18
25, 182049, Note_on_c, 11, 65, 0
25, 182089, Note_on_c, 11, 65, 19
25, 182137, Note_on_c, 11, 64, 0
25, 182163, Note_on_c, 11, 64, 11
25, 182209, Note_on_c, 11, 65, 0
25, 182262, Note_on_c, 11, 65, 16
25, 182283, Note_on_c, 11, 64, 0
25, 182333, Note_on_c, 11, 64, 12
25, 182380, Note_on_c, 11, 65, 0
25, 182423, Note_on_c, 11, 65, 22
25, 182453, Note_on_c, 11, 64, 0
25, 182494, Note_on_c, 11, 64, 21
25, 182543, Note_on_c, 11, 65, 0
25, 182572, Note_on_c, 11, 65, 10
25, 182612, Note_on_c, 11, 64, 0
25, 182664, Note_on_c, 11, 64, 13
25, 182692, Note_on_c, 11, 65, 0
25, 182729, Note_on_c, 11, 65, 25
25, 182784, Note_on_c, 11, 64, 0
25, 182803, Note_on_c, 11, 64, 14
25, 182847, Note_on_c, 11, 65, 0
25, 182882, Note_on_c, 11, 65, 18
25, 182923, Note_on_c, 11, 64, 0
25, 182971, Note_on_c, 11, 64, 18
25, 183002, Note_on_c, 11, 65, 0
25, 183041, Note_on_c, 11, 65, 10
25, 183089, Note_on_c, 11, 64, 0
25, 183142, Note_on_c, 11, 64, 21
25, 183161, Note_on_c, 11, 65, 0
25, 183225, Note_on_c, 11, 65, 20
25, 183262, Note_on_c, 11, 64, 0
25, 183293, Note_on_c, 11, 64, 7
25, 183343, Note_on_c, 11, 65, 0
25, 183360, Note_on_c, 11, 65, 8
25, 183413, Note_on_c, 11, 64, 0
25, 183461, Note_on_c, 11, 64, 20
25, 183480, Note_on_c, 11, 65, 0
25, 183520, Note_on_c, 11, 65, 23
25, 183579, Note_on_c, 11, 64, 0
25, 183612, Note_on_c, 11, 64, 24
25, 183640, Note_on_c, 11, 65, 0
25, 183702, Note_on_c, 11, 65, 13
25, 183732, Note_on_c, 11, 64, 0
25, 183774, Note_on_c, 11, 64, 8
25, 183820, Note_on_c, 11, 65, 0
25, 183854, Note_on_c, 11, 65, 7
25, 183894, Note_on_c, 11, 64, 0
25, 183923, Note_on_c, 11, 64, 27
25, 183974, Note_on_c, 11, 65, 0
25, 184022, Note_on_c, 11, 65, 17
25, 184041, Note_on_c, 11, 64, 0
25, 184101, Note_on_c, 11, 64, 7
25, 184142, Note_on_c, 11, 65, 0
25, 184170, Note_on_c, 11, 65, 14
25, 184221, Note_on_c, 11, 64, 0
25, 184244, Note_on_c, 11, 64, 9
25, 184288, Note_on_c, 11, 65, 0
25, 184327, Note_on_c, 11, 65, 26
25, 184364, Note_on_c, 11, 64, 0
25, 184410, Note_on_c, 11, 64, 7
25, 184447, Note_on_c, 11, 65, 0
25, 184489, Note_on_c, 11, 65, 7
25, 184528, Note_on_c, 11, 64, 0
25, 184569, Note_on_c, 11, 64, 15
25, 184609, Note_on_c, 11, 65, 0
25, 184661, Note_on_c, 11, 65, 26
25, 184689, Note_on_c, 11, 64, 0
25, 184737, Note_on_c, 11, 64, 23
25, 184779, Note_on_c, 11, 65, 0
25, 184815, Note_on_c, 11, 65, 23
25, 184857, Note_on_c, 11, 64, 0
25, 184901, Note_on_c, 11, 64, 11
25, 184935, Note_on_c, 11, 65, 0
25, 184972, Note_on_c, 11, 65, 17
25, 185019, Note_on_c, 11, 64, 0
25, 185049, Note_on_c, 11, 64, 7
25, 185092, Note_on_c, 11, 65, 0
25, 185136, Note_on_c, 11, 65, 18
25, 185169, Note_on_c, 11, 64, 0
25, 185199, Note_on_c, 11, 64, 7
25, 185254, Note_on_c, 11, 65, 0
25, 185301, Note_on_c, 11, 65, 10
25, 185319, Note_on_c, 11, 64, 0
25, 185366, Note_on_c, 11, 64, 15
25, 185421, Note_on_c, 11, 65, 0
25, 185455, Note_on_c, 11, 65, 20
25, 185484, Note_on_c, 11, 64, 0
25, 185527, Note_on_c, 11, 64, 9
25, 185575, Note_on_c, 11, 65, 0
25, 185616, Note_on_c, 11, 65, 14
25, 185647, Note_on_c, 11, 64, 0
25, 185687, Note_on_c, 11, 64, 16
25, 185734, Note_on_c, 11, 65, 0
25, 185766, Note_on_c, 11, 65, 27
25, 185807, Note_on_c, 11, 64, 0
25, 185854, Note_on_c, 11, 64, 16
25, 185886, Note_on_c, 11, 65, 0
25, 185926, Note_on_c, 11, 65, 8
25, 185972, Note_on_c, 11, 64, 0
25, 186025, Note_on_c, 11, 64, 14
25, 186046, Note_on_c, 11, 65, 0
25, 186101, Note_on_c, 11, 65, 15
25, 186145, Note_on_c, 11, 64, 0
25, 186170, Note_on_c, 11, 64, 22
25, 186219, Note_on_c, 11, 65, 0
25, 186248, Note_on_c, 11, 65, 25
25, 186290, Note_on_c, 11, 64, 0
25, 186327, Note_on_c, 11, 64, 7
25, 186368, Note_on_c, 11, 65, 0
25, 186420, Note_on_c, 11, 65, 23
25, 186445, Note_on_c, 11, 64, 0
25, 186492, Note_on_c, 11, 64, 11
25, 186540, Note_on_c, 11, 65, 0
25, 186574, Note_on_c, 11, 65, 17
25, 186612, Note_on_c, 11, 64, 0
25, 186646, Note_on_c, 11, 64, 12
25, 186692, Note_on_c, 11, 65, 0
25, 186741, Note_on_c, 11, 65, 11
25, 186766, Note_on_c, 11, 64, 0
25, 186805, Note_on_c, 11, 64, 22
25, 186861, Note_on_c, 11, 65, 0
25, 186898, Note_on_c, 11, 65, 22
25, 186923, Note_on_c, 11, 64, 0
25, 186985, Note_on_c, 11, 64, 23
25, 187018, Note_on_c, 11, 65, 0
25, 187063, Note_on_c, 11, 65, 13
25, 187105, Note_on_c, 11, 64, 0
25, 187120, Note_on_c, 11, 64, 18
25, 187181, Note_on_c, 11, 65, 0
25, 187202, Note_on_c, 11, 65, 26
25, 187240, Note_on_c, 11, 64, 0
25, 187301, Note_on_c, 11, 64, 25
25, 187322, Note_on_c, 11, 65, 0
25, 187381, Note_on_c, 11, 65, 12
25, 187419, Note_on_c, 11, 64, 0
25, 187446, Note_on_c, 11, 64, 27
25, 187501, Note_on_c, 11, 65, 0
25, 187534, Note_on_c, 11, 65, 11
25, 187566, Note_on_c, 11, 64, 0
25, 187613, Note_on_c, 11, 64, 11
25, 187652, Note_on_c, 11, 65, 0
25, 187700, Note_on_c, 11, 65, 17
25, 187733, Note_on_c, 11, 64, 0
25, 187779, Note_on_c, 11, 64, 23
25, 187820, Note_on_c, 11, 65, 0
25, 187846, Note_on_c, 11, 65, 15
25, 187897, Note_on_c, 11, 64, 0
25, 187944, Note_on_c, 11, 64, 16
25, 187966, Note_on_c, 11, 65, 0
25, 188021, Note_on_c, 11, 65, 15
25, 188064, Note_on_c, 11, 64, 0
25, 188082, Note_on_c, 11, 64, 13
25, 188139, Note_on_c, 11, 65, 0
25, 188163, Note_on_c, 11, 65, 9
25, 188202, Note_on_c, 11, 64, 0
25, 188251, Note_on_c, 11, 64, 14
25, 188283, Note_on_c, 11, 65, 0
25, 188323, Note_on_c, 11, 65, 27
25, 188369, Note_on_c, 11, 64, 0
25, 188412, Note_on_c, 11, 64, 15
25, 188443, Note_on_c, 11, 65, 0
25, 188505, Note_on_c, 11, 65, 23
25, 188532, Note_on_c, 11, 64, 0
25, 188572, Note_on_c, 11, 64, 12
25, 188623, Note_on_c, 11, 65, 0
25, 188657, Note_on_c, 11, 65, 19
25, 188692, Note_on_c, 11, 64, 0
25, 188730, Note_on_c, 11, 64, 13
25, 188777, Note_on_c, 11, 65, 0
25, 188819, Note_on_c, 11, 65, 22
25, 188848, Note_on_c, 11, 64, 0
25, 188888, Note_on_c, 11, 64, 23
25, 188939, Note_on_c, 11, 65, 0
25, 188971, Note_on_c, 11, 65, 19
25, 189008, Note_on_c, 11, 64, 0
25, 189043, Note_on_c, 11, 64, 13
25, 189089, Note_on_c, 11, 65, 0
25, 189131, Note_on_c, 11, 65, 12
25, 189163, Note_on_c, 11, 64, 0
25, 189210, Note_on_c, 11, 64, 11
25, 189251, Note_on_c, 11, 65, 0
25, 189302, Note_on_c, 11, 65, 22
25, 189328, Note_on_c, 11, 64, 0
25, 189384, Note_on_c, 11, 64, 17
25, 189422, Note_on_c, 11, 65, 0
25, 189442, Note_on_c, 11, 65, 8
25, 189504, Note_on_c, 11, 64, 0
25, 189542, Note_on_c, 11, 64, 10
25, 189560, Note_on_c, 11, 65, 0
25, 189601, Note_on_c, 11, 65, 20
25, 189662, Note_on_c, 11, 64, 0
25, 189685, Note_on_c, 11, 64, 13
25, 189721, Note_on_c, 11, 65, 0
25, 189764, Note_on_c, 11, 65, 11
25, 189803, Note_on_c, 11, 64, 0
25, 189857, Note_on_c, 11, 64, 19
25, 189884, Note_on_c, 11, 65, 0
25, 189926, Note_on_c, 11, 65, 19
25, 189977, Note_on_c, 11, 64, 0
25, 190008, Note_on_c, 11, 64, 9
25, 190044, Note_on_c, 11, 65, 0
25, 190095, Note_on_c, 11, 65, 18
25, 190128, Note_on_c, 11, 64, 0
25, 190177, Note_on_c, 11, 64, 16
25, 190215, Note_on_c, 11, 65, 0
25, 190253, Note_on_c, 11, 65, 9
25, 190295, Note_on_c, 11, 64, 0
25, 190331, Note_on_c, 11, 64, 24
25, 190373, Note_on_c, 11, 65, 0
25, 190407, Note_on_c, 11, 65, 7
25, 190451, Note_on_c, 11, 64, 0
25, 190484, Note_on_c, 11, 64, 19
25, 190525, Note_on_c, 11, 65, 0
25, 190568, Note_on_c, 11, 65, 9
25, 190604, Note_on_c, 11, 64, 0
25, 190652, Note_on_c, 11, 64, 25
25, 190688, Note_on_c, 11, 65, 0
25, 190723, Note_on_c, 11, 65, 15
25, 190770, Note_on_c, 11, 64, 0
25, 190814, Note_on_c, 11, 64, 22
25, 190843, Note_on_c, 11, 65, 0
25, 190883, Note_on_c, 11, 65, 22
25, 190934, Note_on_c, 11, 64, 0
25, 190976, Note_on_c, 11, 64, 14
25, 191001, Note_on_c, 11, 65, 0
25, 191046, Note_on_c, 11, 65, 7
25, 191096, Note_on_c, 11, 64, 0
25, 191125, Note_on_c, 11, 64, 17
25, 191166, Note_on_c, 11, 65, 0
25, 191212, Note_on_c, 11, 65, 9
25, 191243, Note_on_c, 11, 64, 0
25, 191282, Note_on_c, 11, 64, 8
25, 191332, Note_on_c, 11, 65, 0
25, 191364, Note_on_c, 11, 65, 18
25, 191402, Note_on_c, 11, 64, 0
25, 191464, Note_on_c, 11, 64, 24
25, 191482, Note_on_c, 11, 65, 0
25, 191533, Note_on_c, 11, 65, 10
25, 191584, Note_on_c, 11, 64, 0
25, 191622, Note_on_c, 11, 64, 7
25, 191653, Note_on_c, 11, 65, 0
25, 191695, Note_on_c, 11, 65, 24
25, 191740, Note_on_c, 11, 64, 0
25, 191766, Note_on_c, 11, 64, 25
25, 191815, Note_on_c, 11, 65, 0
25, 191865, Note_on_c, 11, 65, 16
25, 191886, Note_on_c, 11, 64, 0
25, 191934, Note_on_c, 11, 64, 26
25, 191983, Note_on_c, 11, 65, 0
25, 192023, Note_on_c, 11, 65, 7
25, 192054, Note_on_c, 11, 64, 0
25, 192102, Note_on_c, 11, 64, 9
25, 192143, Note_on_c, 11, 65, 0
25, 192165, Note_on_c, 11, 65, 12
25, 192220, Note_on_c, 11, 64, 0
25, 192244, Note_on_c, 11, 64, 16
25, 192285, Note_on_c, 11, 65, 0
25, 192330, Note_on_c, 11, 65, 23
25, 192364, Note_on_c, 11, 64, 0
25, 192416, Note_on_c, 11, 64, 17
25, 192448, Note_on_c, 11, 65, 0
25, 192501, Note_on_c, 11, 65, 25
25, 192536, Note_on_c, 11, 64, 0
25, 192562, Note_on_c, 11, 64, 8
25, 192621, Note_on_c, 11, 65, 0
25, 192663, Note_on_c, 11, 65, 14
25, 192680, Note_on_c, 11, 64, 0
25, 192742, Note_on_c, 11, 64, 8
25, 192783, Note_on_c, 11, 65, 0
25, 192818, Note_on_c, 11, 65, 7
25, 192862, Note_on_c, 11, 64, 0
25, 192885, Note_on_c, 11, 64, 25
25, 192936, Note_on_c, 11, 65, 0
25, 192972, Note_on_c, 11, 65, 19
25, 193005, Note_on_c, 11, 64, 0
25, 193041, Note_on_c, 11, 64, 25
25, 193092, Note_on_c, 11, 65, 0
25, 193123, Note_on_c, 11, 65, 14
25, 193159, Note_on_c, 11, 64, 0
25, 193207, Note_on_c, 11, 64, 16
25, 193243, Note_on_c, 11, 65, 0
25, 193286, Note_on_c, 11, 65, 14
25, 193327, Note_on_c, 11, 64, 0
25, 193375, Note_on_c, 11, 64, 11
25, 193404, Note_on_c, 11, 65, 0
25, 193448, Note_on_c, 11, 65, 15
25, 193495, Note_on_c, 11, 64, 0
25, 193530, Note_on_c, 11, 64, 7
25, 193568, Note_on_c, 11, 65, 0
25, 193611, Note_on_c, 11, 65, 19
25, 193648, Note_on_c, 11, 64, 0
25, 193681, Note_on_c, 11, 64, 21
25, 193731, Note_on_c, 11, 65, 0
25, 193777, Note_on_c, 11, 65, 15
25, 193801, Note_on_c, 11, 64, 0
25, 193856, Note_on_c, 11, 64, 24
25, 193895, Note_on_c, 11, 65, 0
25, 193926, Note_on_c, 11, 65, 9
25, 193976, Note_on_c, 11, 64, 0
25, 194166, Note_on_c, 11, 65, 0
25, 201128, Note_on_c, 11, 80, 63
25, 201207, Note_on_c, 11, 82, 53
25, 201208, Note_on_c, 11, 80, 0
25, 201285, Note_on_c, 11, 80, 61
25, 201286, Note_on_c, 11, 82, 0
25, 201365, Note_on_c, 11, 80, 0
25, 201374, Note_on_c, 11, 82, 57
25, 201454, Note_on_c, 11, 82, 0
25, 201462, Note_on_c, 11, 80, 60
25, 201541, Note_on_c, 11, 80, 0
25, 201543, Note_on_c, 11, 82, 63
25, 201622, Note_on_c, 11, 80, 54
25, 201623, Note_on_c, 11, 82, 0
25, 201691, Note_on_c, 11, 82, 64
25, 201702, Note_on_c, 11, 80, 0
25, 201763, Note_on_c, 11, 80, 65
25, 201770, Note_on_c, 11, 82, 0
25, 201843, Note_on_c, 11, 80, 0
25, 201860, Note_on_c, 11, 82, 54
25, 201924, Note_on_c, 11, 80, 51
25, 201940, Note_on_c, 11, 82, 0
25, 202003, Note_on_c, 11, 80, 0
25, 202006, Note_on_c, 11, 82, 64
25, 202086, Note_on_c, 11, 82, 0
25, 203045, Note_on_c, 11, 80, 57
25, 203048, Note_on_c, 11, 77, 64
25, 203125, Note_on_c, 11, 80, 0
25, 203128, Note_on_c, 11, 77, 0
25, 203140, Note_on_c, 11, 82, 66
25, 203142, Note_on_c, 11, 78, 55
25, 203219, Note_on_c, 11, 82, 0
25, 203221, Note_on_c, 11, 78, 0
25, 203222, Note_on_c, 11, 80, 48
25, 203224, Note_on_c, 11, 77, 46
25, 203286, Note_on_c, 11, 78, 64
25, 203302, Note_on_c, 11, 80, 0
25, 203304, Note_on_c, 11, 77, 0
25, 203304, Note_on_c, 11, 82, 47
25, 203366, Note_on_c, 11, 78, 0
25, 203378, Note_on_c, 11, 77, 49
25, 203384, Note_on_c, 11, 82, 0
25, 203385, Note_on_c, 11, 80, 60
25, 203451, Note_on_c, 11, 82, 57
25, 203457, Note_on_c, 11, 77, 0
25, 203462, Note_on_c, 11, 78, 60
25, 203464, Note_on_c, 11, 80, 0
25, 203526, Note_on_c, 11, 80, 61
25, 203528, Note_on_c, 11, 77, 51
25, 203531, Note_on_c, 11, 82, 0
25, 203542, Note_on_c, 11, 78, 0
25, 203606, Note_on_c, 11, 80, 0
25, 203608, Note_on_c, 11, 77, 0
25, 203610, Note_on_c, 11, 82, 55
25, 203622, Note_on_c, 11, 78, 60
25, 203679, Note_on_c, 11, 80, 50
25, 203683, Note_on_c, 11, 77, 65
25, 203689, Note_on_c, 11, 82, 0
25, 203701, Note_on_c, 11, 78, 0
25, 203759, Note_on_c, 11, 80, 0
25, 203763, Note_on_c, 11, 77, 0
25, 203773, Note_on_c, 11, 82, 48
25, 203779, Note_on_c, 11, 78, 50
25, 203840, Note_on_c, 11, 77, 46
25, 203840, Note_on_c, 11, 80, 47
25, 203853, Note_on_c, 11, 82, 0
25, 203859, Note_on_c, 11, 78, 0
25, 203919, Note_on_c, 11, 77, 0
25, 203919, Note_on_c, 11, 80, 0
25, 203939, Note_on_c, 11, 78, 49
25, 203939, Note_on_c, 11, 82, 58
25, 204019, Note_on_c, 11, 78, 0
25, 204019, Note_on_c, 11, 82, 0
25, 204960, Program_c, 11, 48
25, 204963, Note_on_c, 11, 77, 98
25, 204975, Note_on_c, 11, 65, 98
25, 205043, Note_on_c, 11, 77, 0
25, 205055, Note_on_c, 11, 65, 0
25, 205058, Note_on_c, 11, 66, 78
25, 205061, Note_on_c, 11, 78, 93
25, 205120, Note_on_c, 11, 77, 94
25, 205137, Note_on_c, 11, 66, 0
25, 205137, Note_on_c, 11, 65, 83
25, 205140, Note_on_c, 11, 78, 0
25, 205200, Note_on_c, 11, 77, 0
25, 205208, Note_on_c, 11, 66, 80
25, 205217, Note_on_c, 11, 65, 0
25, 205218, Note_on_c, 11, 78, 78
25, 205288, Note_on_c, 11, 66, 0
25, 205288, Note_on_c, 11, 65, 83
25, 205294, Note_on_c, 11, 77, 82
25, 205298, Note_on_c, 11, 78, 0
25, 205360, Note_on_c, 11, 78, 83
25, 205367, Note_on_c, 11, 65, 0
25, 205370, Note_on_c, 11, 66, 94
25, 205373, Note_on_c, 11, 77, 0
25, 205440, Note_on_c, 11, 78, 0
25, 205450, Note_on_c, 11, 66, 0
25, 205453, Note_on_c, 11, 65, 92
25, 205463, Note_on_c, 11, 77, 92
25, 205531, Note_on_c, 11, 66, 92
25, 205533, Note_on_c, 11, 65, 0
25, 205543, Note_on_c, 11, 77, 0
25, 205544, Note_on_c, 11, 78, 91
25, 205610, Note_on_c, 11, 66, 0
25, 205612, Note_on_c, 11, 65, 90
25, 205623, Note_on_c, 11, 78, 0
25, 205624, Note_on_c, 11, 77, 95
25, 205682, Note_on_c, 11, 66, 92
25, 205692, Note_on_c, 11, 65, 0
25, 205703, Note_on_c, 11, 78, 84
25, 205704, Note_on_c, 11, 77, 0
25, 205762, Note_on_c, 11, 66, 0
25, 205764, Note_on_c, 11, 77, 81
25, 205782, Note_on_c, 11, 65, 88
25, 205783, Note_on_c, 11, 78, 0
25, 205840, Note_on_c, 11, 78, 93
25, 205842, Note_on_c, 11, 66, 83
25, 205843, Note_on_c, 11, 77, 0
25, 205861, Note_on_c, 11, 65, 0
25, 205920, Note_on_c, 11, 78, 0
25, 205920, Note_on_c, 11, 77, 87
25, 205922, Note_on_c, 11, 66, 0
25, 205940, Note_on_c, 11, 65, 81
25, 206000, Note_on_c, 11, 77, 0
25, 206007, Note_on_c, 11, 66, 91
25, 206008, Note_on_c, 11, 78, 86
25, 206020, Note_on_c, 11, 65, 0
25, 206086, Note_on_c, 11, 66, 0
25, 206087, Note_on_c, 11, 78, 0
25, 206089, Note_on_c, 11, 65, 89
25, 206104, Note_on_c, 11, 77, 78
25, 206160, Note_on_c, 11, 66, 85
25, 206169, Note_on_c, 11, 65, 0
25, 206169, Note_on_c, 11, 78, 84
25, 206184, Note_on_c, 11, 77, 0
25, 206240, Note_on_c, 11, 66, 0
25, 206249, Note_on_c, 11, 78, 0
25, 206254, Note_on_c, 11, 77, 80
25, 206261, Note_on_c, 11, 65, 88
25, 206333, Note_on_c, 11, 77, 0
25, 206336, Note_on_c, 11, 66, 83
25, 206340, Note_on_c, 11, 65, 0
25, 206342, Note_on_c, 11, 78, 83
25, 206404, Note_on_c, 11, 65, 88
25, 206411, Note_on_c, 11, 77, 85
25, 206416, Note_on_c, 11, 66, 0
25, 206422, Note_on_c, 11, 78, 0
25, 206484, Note_on_c, 11, 65, 0
25, 206491, Note_on_c, 11, 77, 0
25, 206497, Note_on_c, 11, 66, 98
25, 206500, Note_on_c, 11, 78, 89
25, 206574, Note_on_c, 11, 65, 81
25, 206574, Note_on_c, 11, 77, 82
25, 206576, Note_on_c, 11, 66, 0
25, 206579, Note_on_c, 11, 78, 0
25, 206650, Note_on_c, 11, 77, 85
25, 206654, Note_on_c, 11, 65, 0
25, 206654, Note_on_c, 11, 77, 0
25, 206665, Note_on_c, 11, 65, 79
25, 206730, Note_on_c, 11, 77, 0
25, 206733, Note_on_c, 11, 75, 89
25, 206737, Note_on_c, 11, 63, 87
25, 206745, Note_on_c, 11, 65, 0
25, 206799, Note_on_c, 11, 73, 90
25, 206812, Note_on_c, 11, 75, 0
25, 206816, Note_on_c, 11, 63, 0
25, 206817, Note_on_c, 11, 61, 91
25, 206879, Note_on_c, 11, 73, 0
25, 206880, Note_on_c, 11, 60, 90
25, 206897, Note_on_c, 11, 61, 0
25, 206902, Note_on_c, 11, 72, 87
25, 206960, Note_on_c, 11, 60, 0
25, 206967, Note_on_c, 11, 73, 92
25, 206982, Note_on_c, 11, 72, 0
25, 206985, Note_on_c, 11, 61, 78
25, 207044, Note_on_c, 11, 60, 97
25, 207046, Note_on_c, 11, 73, 0
25, 207053, Note_on_c, 11, 72, 97
25, 207064, Note_on_c, 11, 61, 0
25, 207124, Note_on_c, 11, 60, 0
25, 207125, Note_on_c, 11, 61, 82
25, 207133, Note_on_c, 11, 72, 0
25, 207136, Note_on_c, 11, 73, 83
25, 207205, Note_on_c, 11, 61, 0
25, 207209, Note_on_c, 11, 60, 96
25, 207214, Note_on_c, 11, 72, 85
25, 207216, Note_on_c, 11, 73, 0
25, 207288, Note_on_c, 11, 60, 0
25, 207293, Note_on_c, 11, 72, 0
25, 207296, Note_on_c, 11, 61, 82
25, 207299, Note_on_c, 11, 73, 82
25, 207370, Note_on_c, 11, 72, 81
25, 207372, Note_on_c, 11, 60, 93
25, 207376, Note_on_c, 11, 61, 0
25, 207379, Note_on_c, 11, 73, 0
25, 207444, Note_on_c, 11, 61, 97
25, 207450, Note_on_c, 11, 72, 0
25, 207451, Note_on_c, 11, 73, 86
25, 207452, Note_on_c, 11, 60, 0
25, 207523, Note_on_c, 11, 61, 0
25, 207523, Note_on_c, 11, 60, 97
25, 207530, Note_on_c, 11, 73, 0
25, 207535, Note_on_c, 11, 72, 85
25, 207603, Note_on_c, 11, 60, 0
25, 207610, Note_on_c, 11, 72, 91
25, 207614, Note_on_c, 11, 60, 82
25, 207615, Note_on_c, 11, 72, 0
25, 207690, Note_on_c, 11, 72, 0
25, 207690, Note_on_c, 11, 74, 95
25, 207694, Note_on_c, 11, 60, 0
25, 207700, Note_on_c, 11, 62, 97
25, 207763, Note_on_c, 11, 63, 88
25, 207769, Note_on_c, 11, 74, 0
25, 207779, Note_on_c, 11, 62, 0
25, 207784, Note_on_c, 11, 75, 80
25, 207842, Note_on_c, 11, 65, 93
25, 207843, Note_on_c, 11, 63, 0
25, 207853, Note_on_c, 11, 77, 87
25, 207864, Note_on_c, 11, 75, 0
25, 208082, Note_on_c, 11, 65, 0
25, 208082, Note_on_c, 11, 65, 98
25, 208088, Note_on_c, 11, 77, 88
25, 208093, Note_on_c, 11, 77, 0
25, 208162, Note_on_c, 11, 65, 0
25, 208165, Note_on_c, 11, 63, 80
25, 208168, Note_on_c, 11, 77, 0
25, 208174, Note_on_c, 11, 75, 92
25, 208242, Note_on_c, 11, 73, 83
25, 208244, Note_on_c, 11, 63, 0
25, 208253, Note_on_c, 11, 75, 0
25, 208259, Note_on_c, 11, 61, 89
25, 208322, Note_on_c, 11, 73, 0
25, 208339, Note_on_c, 11, 61, 0
25, 208341, Note_on_c, 11, 72, 79
25, 208342, Note_on_c, 11, 60, 79
25, 208403, Note_on_c, 11, 61, 88
25, 208405, Note_on_c, 11, 73, 90
25, 208421, Note_on_c, 11, 72, 0
25, 208422, Note_on_c, 11, 60, 0
25, 208479, Note_on_c, 11, 60, 90
25, 208482, Note_on_c, 11, 61, 0
25, 208484, Note_on_c, 11, 73, 0
25, 208501, Note_on_c, 11, 72, 79
25, 208559, Note_on_c, 11, 60, 0
25, 208560, Note_on_c, 11, 61, 97
25, 208579, Note_on_c, 11, 73, 86
25, 208581, Note_on_c, 11, 72, 0
25, 208640, Note_on_c, 11, 61, 0
25, 208645, Note_on_c, 11, 72, 95
25, 208652, Note_on_c, 11, 60, 92
25, 208659, Note_on_c, 11, 73, 0
25, 208724, Note_on_c, 11, 72, 0
25, 208731, Note_on_c, 11, 60, 0
25, 208736, Note_on_c, 11, 73, 92
25, 208737, Note_on_c, 11, 61, 85
25, 208816, Note_on_c, 11, 73, 0
25, 208817, Note_on_c, 11, 61, 0
25, 208818, Note_on_c, 11, 72, 98
25, 208820, Note_on_c, 11, 60, 95
25, 208893, Note_on_c, 11, 73, 97
25, 208895, Note_on_c, 11, 61, 97
25, 208898, Note_on_c, 11, 72, 0
25, 208900, Note_on_c, 11, 60, 0
25, 208967, Note_on_c, 11, 72, 94
25, 208969, Note_on_c, 11, 60, 98
25, 208972, Note_on_c, 11, 73, 0
25, 208974, Note_on_c, 11, 61, 0
25, 209047, Note_on_c, 11, 72, 0
25, 209049, Note_on_c, 11, 60, 0
25, 209057, Note_on_c, 11, 61, 84
25, 209058, Note_on_c, 11, 73, 96
25, 209130, Note_on_c, 11, 72, 84
25, 209132, Note_on_c, 11, 60, 84
25, 209137, Note_on_c, 11, 61, 0
25, 209138, Note_on_c, 11, 73, 0
25, 209209, Note_on_c, 11, 72, 0
25, 209211, Note_on_c, 11, 60, 0
25, 209215, Note_on_c, 11, 61, 92
25, 209222, Note_on_c, 11, 73, 80
25, 209282, Note_on_c, 11, 72, 80
25, 209295, Note_on_c, 11, 61, 0
25, 209302, Note_on_c, 11, 73, 0
25, 209304, Note_on_c, 11, 60, 90
25, 209361, Note_on_c, 11, 73, 98
25, 209362, Note_on_c, 11, 72, 0
25, 209380, Note_on_c, 11, 61, 97
25, 209384, Note_on_c, 11, 60, 0
25, 209440, Note_on_c, 11, 73, 0
25, 209455, Note_on_c, 11, 60, 96
25, 209459, Note_on_c, 11, 61, 0
25, 209462, Note_on_c, 11, 72, 88
25, 209528, Note_on_c, 11, 72, 86
25, 209532, Note_on_c, 11, 60, 79
25, 209535, Note_on_c, 11, 60, 0
25, 209542, Note_on_c, 11, 72, 0
25, 209608, Note_on_c, 11, 72, 0
25, 209612, Note_on_c, 11, 60, 0
25, 209615, Note_on_c, 11, 74, 87
25, 209623, Note_on_c, 11, 62, 92
25, 209693, Note_on_c, 11, 63, 93
25, 209694, Note_on_c, 11, 74, 0
25, 209702, Note_on_c, 11, 62, 0
25, 209703, Note_on_c, 11, 75, 82
25, 209772, Note_on_c, 11, 65, 89
25, 209773, Note_on_c, 11, 63, 0
25, 209775, Note_on_c, 11, 77, 97
25, 209783, Note_on_c, 11, 75, 0
25, 209845, Note_on_c, 11, 78, 83
25, 209848, Note_on_c, 11, 66, 93
25, 209852, Note_on_c, 11, 65, 0
25, 209855, Note_on_c, 11, 77, 0
25, 209924, Note_on_c, 11, 78, 0
25, 209927, Note_on_c, 11, 66, 0
25, 209941, Note_on_c, 11, 65, 93
25, 209943, Note_on_c, 11, 77, 90
25, 210015, Note_on_c, 11, 66, 86
25, 210019, Note_on_c, 11, 78, 93
25, 210021, Note_on_c, 11, 65, 0
25, 210023, Note_on_c, 11, 77, 0
25, 210085, Note_on_c, 11, 77, 87
25, 210095, Note_on_c, 11, 66, 0
25, 210099, Note_on_c, 11, 78, 0
25, 210099, Note_on_c, 11, 65, 96
25, 210164, Note_on_c, 11, 77, 0
25, 210168, Note_on_c, 11, 78, 93
25, 210169, Note_on_c, 11, 66, 85
25, 210178, Note_on_c, 11, 65, 0
25, 210245, Note_on_c, 11, 77, 93
25, 210248, Note_on_c, 11, 78, 0
25, 210249, Note_on_c, 11, 66, 0
25, 210251, Note_on_c, 11, 65, 88
25, 210322, Note_on_c, 11, 78, 82
25, 210325, Note_on_c, 11, 77, 0
25, 210331, Note_on_c, 11, 65, 0
25, 210337, Note_on_c, 11, 66, 78
25, 210401, Note_on_c, 11, 78, 0
25, 210416, Note_on_c, 11, 66, 0
25, 210421, Note_on_c, 11, 65, 94
25, 210422, Note_on_c, 11, 77, 97
25, 210495, Note_on_c, 11, 78, 86
25, 210501, Note_on_c, 11, 65, 0
25, 210502, Note_on_c, 11, 77, 0
25, 210502, Note_on_c, 11, 66, 82
25, 210574, Note_on_c, 11, 65, 81
25, 210575, Note_on_c, 11, 78, 0
25, 210575, Note_on_c, 11, 77, 81
25, 210582, Note_on_c, 11, 66, 0
25, 210650, Note_on_c, 11, 66, 96
25, 210653, Note_on_c, 11, 65, 0
25, 210654, Note_on_c, 11, 77, 0
25, 210657, Note_on_c, 11, 78, 87
25, 210720, Note_on_c, 11, 65, 90
25, 210729, Note_on_c, 11, 77, 84
25, 210730, Note_on_c, 11, 66, 0
25, 210737, Note_on_c, 11, 78, 0
25, 210800, Note_on_c, 11, 65, 0
25, 210801, Note_on_c, 11, 78, 98
25, 210809, Note_on_c, 11, 77, 0
25, 210809, Note_on_c, 11, 66, 79
25, 210880, Note_on_c, 11, 78, 0
25, 210881, Note_on_c, 11, 65, 91
25, 210888, Note_on_c, 11, 66, 0
25, 210893, Note_on_c, 11, 77, 81
25, 210961, Note_on_c, 11, 65, 0
25, 210973, Note_on_c, 11, 77, 0
25, 210975, Note_on_c, 11, 66, 92
25, 210975, Note_on_c, 11, 78, 79
25, 211045, Note_on_c, 11, 77, 79
25, 211053, Note_on_c, 11, 65, 85
25, 211055, Note_on_c, 11, 66, 0
25, 211055, Note_on_c, 11, 78, 0
25, 211122, Note_on_c, 11, 78, 78
25, 211124, Note_on_c, 11, 77, 0
25, 211132, Note_on_c, 11, 65, 0
25, 211141, Note_on_c, 11, 66, 79
25, 211202, Note_on_c, 11, 78, 0
25, 211208, Note_on_c, 11, 77, 86
25, 211212, Note_on_c, 11, 65, 90
25, 211221, Note_on_c, 11, 66, 0
25, 211288, Note_on_c, 11, 77, 0
25, 211289, Note_on_c, 11, 78, 86
25, 211292, Note_on_c, 11, 65, 0
25, 211303, Note_on_c, 11, 66, 95
25, 211364, Note_on_c, 11, 65, 87
25, 211367, Note_on_c, 11, 77, 86
25, 211368, Note_on_c, 11, 78, 0
25, 211382, Note_on_c, 11, 66, 0
25, 211442, Note_on_c, 11, 78, 82
25, 211444, Note_on_c, 11, 65, 0
25, 211447, Note_on_c, 11, 77, 0
25, 211456, Note_on_c, 11, 66, 97
25, 211522, Note_on_c, 11, 78, 0
25, 211527, Note_on_c, 11, 65, 96
25, 211529, Note_on_c, 11, 77, 87
25, 211536, Note_on_c, 11, 66, 0
25, 211606, Note_on_c, 11, 65, 0
25, 211608, Note_on_c, 11, 77, 0
25, 211612, Note_on_c, 11, 78, 97
25, 211616, Note_on_c, 11, 66, 98
25, 211684, Note_on_c, 11, 65, 54
25, 211692, Note_on_c, 11, 78, 0
25, 211696, Note_on_c, 11, 66, 0
25, 211776, Note_on_c, 11, 65, 0
25, 211812, Note_on_c, 11, 65, 59
25, 211932, Note_on_c, 11, 65, 0
25, 211933, Note_on_c, 11, 68, 42
25, 212025, Note_on_c, 11, 68, 0
25, 212047, Note_on_c, 11, 68, 47
25, 212167, Note_on_c, 11, 68, 0
25, 212169, Note_on_c, 11, 67, 55
25, 212261, Note_on_c, 11, 67, 0
25, 212300, Note_on_c, 11, 67, 44
25, 212420, Note_on_c, 11, 67, 0
25, 212423, Note_on_c, 11, 70, 49
25, 212515, Note_on_c, 11, 70, 0
25, 212521, Note_on_c, 11, 70, 57
25, 212641, Note_on_c, 11, 70, 0
25, 212644, Note_on_c, 11, 65, 48
25, 212736, Note_on_c, 11, 65, 0
25, 212783, Note_on_c, 11, 65, 47
25, 212903, Note_on_c, 11, 65, 0
25, 212903, Note_on_c, 11, 68, 49
25, 212995, Note_on_c, 11, 68, 0
25, 213001, Note_on_c, 11, 68, 46
25, 213121, Note_on_c, 11, 68, 0
25, 213136, Note_on_c, 11, 67, 54
25, 213228, Note_on_c, 11, 67, 0
25, 213251, Note_on_c, 11, 67, 45
25, 213362, Note_on_c, 11, 70, 46
25, 213371, Note_on_c, 11, 67, 0
25, 213454, Note_on_c, 11, 70, 0
25, 213483, Note_on_c, 11, 70, 41
25, 213603, Note_on_c, 11, 70, 0
25, 213619, Note_on_c, 11, 65, 44
25, 213711, Note_on_c, 11, 65, 0
25, 213727, Note_on_c, 11, 65, 55
25, 213845, Note_on_c, 11, 68, 63
25, 213847, Note_on_c, 11, 65, 0
25, 213937, Note_on_c, 11, 68, 0
25, 213983, Note_on_c, 11, 68, 65
25, 214088, Note_on_c, 11, 67, 59
25, 214103, Note_on_c, 11, 68, 0
25, 214180, Note_on_c, 11, 67, 0
25, 214211, Note_on_c, 11, 67, 58
25, 214331, Note_on_c, 11, 67, 0
25, 214338, Note_on_c, 11, 70, 60
25, 214430, Note_on_c, 11, 70, 0
25, 214459, Note_on_c, 11, 70, 54
25, 214579, Note_on_c, 11, 70, 0
25, 214582, Note_on_c, 11, 69, 73
25, 214674, Note_on_c, 11, 69, 0
25, 214692, Note_on_c, 11, 69, 61
25, 214807, Note_on_c, 11, 72, 73
25, 214812, Note_on_c, 11, 69, 0
25, 214899, Note_on_c, 11, 72, 0
25, 214920, Note_on_c, 11, 72, 71
25, 215040, Note_on_c, 11, 72, 0
25, 215045, Note_on_c, 11, 71, 64
25, 215137, Note_on_c, 11, 71, 0
25, 215167, Note_on_c, 11, 71, 67
25, 215283, Note_on_c, 11, 74, 77
25, 215287, Note_on_c, 11, 71, 0
25, 215375, Note_on_c, 11, 74, 0
25, 215419, Note_on_c, 11, 74, 84
25, 215527, Note_on_c, 11, 65, 47
25, 215539, Note_on_c, 11, 74, 0
25, 215619, Note_on_c, 11, 65, 0
25, 215656, Note_on_c, 11, 65, 47
25, 215764, Note_on_c, 11, 68, 45
25, 215776, Note_on_c, 11, 65, 0
25, 215856, Note_on_c, 11, 68, 0
25, 215894, Note_on_c, 11, 68, 46
25, 216000, Note_on_c, 11, 67, 56
25, 216014, Note_on_c, 11, 68, 0
25, 216092, Note_on_c, 11, 67, 0
25, 216122, Note_on_c, 11, 67, 59
25, 216242, Note_on_c, 11, 67, 0
25, 216248, Note_on_c, 11, 70, 53
25, 216340, Note_on_c, 11, 70, 0
25, 216378, Note_on_c, 11, 70, 70
25, 216494, Note_on_c, 11, 69, 66
25, 216498, Note_on_c, 11, 70, 0
25, 216586, Note_on_c, 11, 69, 0
25, 216612, Note_on_c, 11, 69, 58
25, 216732, Note_on_c, 11, 69, 0
25, 216734, Note_on_c, 11, 72, 60
25, 216826, Note_on_c, 11, 72, 0
25, 216846, Note_on_c, 11, 72, 74
25, 216966, Note_on_c, 11, 72, 0
25, 216979, Note_on_c, 11, 71, 64
25, 217071, Note_on_c, 11, 71, 0
25, 217097, Note_on_c, 11, 71, 85
25, 217204, Note_on_c, 11, 74, 78
25, 217217, Note_on_c, 11, 71, 0
25, 217296, Note_on_c, 11, 74, 0
25, 217324, Note_on_c, 11, 74, 82
25, 217444, Note_on_c, 11, 74, 0
25, 217448, Note_on_c, 11, 69, 79
25, 217540, Note_on_c, 11, 69, 0
25, 217570, Note_on_c, 11, 69, 90
25, 217690, Note_on_c, 11, 69, 0
25, 217704, Note_on_c, 11, 72, 91
25, 217796, Note_on_c, 11, 72, 0
25, 217806, Note_on_c, 11, 72, 82
25, 217926, Note_on_c, 11, 72, 0
25, 217937, Note_on_c, 11, 71, 92
25, 218029, Note_on_c, 11, 71, 0
25, 218061, Note_on_c, 11, 71, 90
25, 218169, Note_on_c, 11, 74, 92
25, 218181, Note_on_c, 11, 71, 0
25, 218261, Note_on_c, 11, 74, 0
25, 218304, Note_on_c, 11, 74, 90
25, 218423, Note_on_c, 11, 69, 90
25, 218424, Note_on_c, 11, 74, 0
25, 218515, Note_on_c, 11, 69, 0
25, 218523, Note_on_c, 11, 69, 97
25, 218643, Note_on_c, 11, 69, 0
25, 218646, Note_on_c, 11, 72, 106
25, 218738, Note_on_c, 11, 72, 0
25, 218779, Note_on_c, 11, 72, 93
25, 218895, Note_on_c, 11, 71, 109
25, 218899, Note_on_c, 11, 72, 0
25, 218987, Note_on_c, 11, 71, 0
25, 219004, Note_on_c, 11, 71, 103
25, 219124, Note_on_c, 11, 71, 0
25, 219144, Note_on_c, 11, 74, 104
25, 219236, Note_on_c, 11, 74, 0
25, 219250, Note_on_c, 11, 74, 108
25, 219370, Note_on_c, 11, 74, 0
25, 221520, Program_c, 11, 45
25, 221520, Note_on_c, 11, 74, 105
25, 221540, Note_on_c, 11, 62, 101
25, 221760, Note_on_c, 11, 74, 0
25, 221780, Note_on_c, 11, 62, 0
25, 222003, Note_on_c, 11, 74, 115
25, 222007, Note_on_c, 11, 62, 102
25, 222243, Note_on_c, 11, 74, 0
25, 222247, Note_on_c, 11, 62, 0
25, 225367, Note_on_c, 11, 62, 108
25, 225369, Note_on_c, 11, 74, 114
25, 225607, Note_on_c, 11, 62, 0
25, 225609, Note_on_c, 11, 74, 0
25, 226081, Note_on_c, 11, 74, 112
25, 226089, Note_on_c, 11, 62, 113
25, 226321, Note_on_c, 11, 74, 0
25, 226329, Note_on_c, 11, 62, 0
25, 227040, Program_c, 11, 48
25, 227040, Note_on_c, 11, 75, 104
25, 227040, Note_on_c, 11, 79, 101
25, 227100, Note_on_c, 11, 75, 0
25, 227100, Note_on_c, 11, 79, 0
25, 227160, Note_on_c, 11, 75, 113
25, 227160, Note_on_c, 11, 79, 105
25, 227220, Note_on_c, 11, 75, 0
25, 227220, Note_on_c, 11, 79, 0
25, 227400, Note_on_c, 11, 75, 96
25, 227400, Note_on_c, 11, 79, 98
25, 227460, Note_on_c, 11, 75, 0
25, 227460, Note_on_c, 11, 79, 0
25, 227520, Note_on_c, 11, 75, 98
25, 227520, Note_on_c, 11, 79, 105
25, 227580, Note_on_c, 11, 75, 0
25, 227580, Note_on_c, 11, 79, 0
25, 227640, Note_on_c, 11, 75, 99
25, 227640, Note_on_c, 11, 79, 107
25, 227700, Note_on_c, 11, 75, 0
25, 227700, Note_on_c, 11, 79, 0
25, 227880, Note_on_c, 11, 75, 108
25, 227880, Note_on_c, 11, 79, 108
25, 227940, Note_on_c, 11, 75, 0
25, 227940, Note_on_c, 11, 79, 0
25, 228000, Note_on_c, 11, 75, 114
25, 228000, Note_on_c, 11, 79, 105
25, 228060, Note_on_c, 11, 75, 0
25, 228060, Note_on_c, 11, 79, 0
25, 228120, Note_on_c, 11, 75, 107
25, 228120, Note_on_c, 11, 79, 102
25, 228180, Note_on_c, 11, 75, 0
25, 228180, Note_on_c, 11, 79, 0
25, 228360, Note_on_c, 11, 75, 96
25, 228360, Note_on_c, 11, 79, 105
25, 228420, Note_on_c, 11, 75, 0
25, 228420, Note_on_c, 11, 79, 0
25, 228480, Note_on_c, 11, 75, 102
25, 228480, Note_on_c, 11, 79, 99
25, 228540, Note_on_c, 11, 75, 0
25, 228540, Note_on_c, 11, 79, 0
25, 228600, Note_on_c, 11, 75, 95
25, 228600, Note_on_c, 11, 79, 95
25, 228660, Note_on_c, 11, 75, 0
25, 228660, Note_on_c, 11, 79, 0
25, 228840, Note_on_c, 11, 75, 99
25, 228840, Note_on_c, 11, 79, 104
25, 228900, Note_on_c, 11, 75, 0
25, 228900, Note_on_c, 11, 79, 0
25, 228960, Note_on_c, 11, 75, 111
25, 228960, Note_on_c, 11, 79, 101
25, 229020, Note_on_c, 11, 75, 0
25, 229020, Note_on_c, 11, 79, 0
25, 229080, Note_on_c, 11, 75, 106
25, 229080, Note_on_c, 11, 79, 108
25, 229140, Note_on_c, 11, 75, 0
25, 229140, Note_on_c, 11, 79, 0
25, 229320, Note_on_c, 11, 75, 95
25, 229320, Note_on_c, 11, 79, 115
25, 229380, Note_on_c, 11, 75, 0
25, 229380, Note_on_c, 11, 79, 0
25, 229440, Note_on_c, 11, 75, 96
25, 229440, Note_on_c, 11, 79, 104
25, 229500, Note_on_c, 11, 75, 0
25, 229500, Note_on_c, 11, 79, 0
25, 229560, Note_on_c, 11, 75, 113
25, 229560, Note_on_c, 11, 79, 102
25, 229620, Note_on_c, 11, 75, 0
25, 229620, Note_on_c, 11, 79, 0
25, 229800, Note_on_c, 11, 75, 109
25, 229800, Note_on_c, 11, 79, 109
25, 229860, Note_on_c, 11, 75, 0
25, 229860, Note_on_c, 11, 79, 0
25, 229920, Note_on_c, 11, 75, 97
25, 229920, Note_on_c, 11, 79, 98
25, 229980, Note_on_c, 11, 75, 0
25, 229980, Note_on_c, 11, 79, 0
25, 230040, Note_on_c, 11, 75, 114
25, 230040, Note_on_c, 11, 79, 99
25, 230100, Note_on_c, 11, 75, 0
25, 230100, Note_on_c, 11, 79, 0
25, 230280, Note_on_c, 11, 75, 96
25, 230280, Note_on_c, 11, 79, 104
25, 230340, Note_on_c, 11, 75, 0
25, 230340, Note_on_c, 11, 79, 0
25, 230400, Note_on_c, 11, 75, 104
25, 230400, Note_on_c, 11, 79, 104
25, 230460, Note_on_c, 11, 75, 0
25, 230460, Note_on_c, 11, 79, 0
25, 230520, Note_on_c, 11, 75, 104
25, 230520, Note_on_c, 11, 79, 107
25, 230580, Note_on_c, 11, 75, 0
25, 230580, Note_on_c, 11, 79, 0
25, 230760, Note_on_c, 11, 75, 96
25, 230760, Note_on_c, 11, 79, 101
25, 230820, Note_on_c, 11, 75, 0
25, 230820, Note_on_c, 11, 79, 0
25, 230880, Note_on_c, 11, 75, 103
25, 230880, Note_on_c, 11, 79, 103
25, 230940, Note_on_c, 11, 75, 0
25, 230940, Note_on_c, 11, 79, 0
25, 233760, Program_c, 11, 44
25, 234721, Note_on_c, 11, 93, 98
25, 235201, Note_on_c, 11, 93, 0
25, 235215, Note_on_c, 11, 98, 94
25, 235695, Note_on_c, 11, 98, 0
25, 235705, Note_on_c, 11, 86, 78
25, 236663, Note_on_c, 11, 98, 89
25, 236665, Note_on_c, 11, 86, 0
25, 237126, Note_on_c, 11, 103, 127
25, 237143, Note_on_c, 11, 98, 0
25, 237601, Note_on_c, 11, 103, 95
25, 237606, Note_on_c, 11, 103, 0
25, 238561, Note_on_c, 11, 103, 0
25, 238569, Note_on_c, 11, 103, 97
25, 239049, Note_on_c, 11, 103, 0
25, 239064, Note_on_c, 11, 98, 95
25, 239528, Note_on_c, 11, 98, 88
25, 239544, Note_on_c, 11, 98, 0
25, 240483, Note_on_c, 11, 98, 82
25, 240488, Note_on_c, 11, 98, 0
25, 240963, Note_on_c, 11, 98, 0
25, 240976, Note_on_c, 11, 93, 94
25, 241456, Note_on_c, 11, 93, 0
25, 241463, Note_on_c, 11, 93, 85
25, 242421, Note_on_c, 11, 93, 106
25, 242423, Note_on_c, 11, 93, 0
25, 242886, Note_on_c, 11, 98, 98
25, 242901, Note_on_c, 11, 93, 0
25, 243361, Note_on_c, 11, 98, 107
25, 243366, Note_on_c, 11, 98, 0
25, 243841, Note_on_c, 11, 98, 0
25, 243842, Note_on_c, 11, 103, 99
25, 244322, Note_on_c, 11, 103, 0
25, 244322, Note_on_c, 11, 103, 98
25, 244802, Note_on_c, 11, 103, 0
25, 244806, Note_on_c, 11, 98, 111
25, 245284, Note_on_c, 11, 98, 110
25, 245286, Note_on_c, 11, 98, 0
25, 245764, Note_on_c, 11, 98, 0
25, 245777, Note_on_c, 11, 93, 101
25, 246243, Note_on_c, 11, 93, 110
25, 246257, Note_on_c, 11, 93, 0
25, 246723, Note_on_c, 11, 93, 0
25, 246742, Note_on_c, 11, 98, 107
25, 247213, Note_on_c, 11, 98, 99
25, 247222, Note_on_c, 11, 98, 0
25, 247683, Note_on_c, 11, 103, 99
25, 247693, Note_on_c, 11, 98, 0
25, 248163, Note_on_c, 11, 103, 0
25, 248163, Note_on_c, 11, 103, 100
25, 248643, Note_on_c, 11, 103, 0
25, 248653, Note_on_c, 11, 98, 105
25, 249133, Note_on_c, 11, 98, 0
25, 249141, Note_on_c, 11, 98, 111
25, 249603, Note_on_c, 11, 93, 111
25, 249621, Note_on_c, 11, 98, 0
25, 250080, Program_c, 11, 44
25, 250083, Note_on_c, 11, 93, 0
25, 250101, Note_on_c, 11, 75, 97
25, 250104, Note_on_c, 11, 67, 92
25, 250320, Note_on_c, 11, 67, 98
25, 250321, Note_on_c, 11, 60, 98
25, 250341, Note_on_c, 11, 75, 0
25, 250344, Note_on_c, 11, 67, 0
25, 250560, Note_on_c, 11, 67, 0
25, 250561, Note_on_c, 11, 60, 0
25, 250565, Note_on_c, 11, 60, 97
25, 250569, Note_on_c, 11, 67, 96
25, 250805, Note_on_c, 11, 60, 0
25, 250809, Note_on_c, 11, 67, 0
25, 250813, Note_on_c, 11, 60, 82
25, 250815, Note_on_c, 11, 67, 96
25, 251042, Note_on_c, 11, 75, 84
25, 251053, Note_on_c, 11, 60, 0
25, 251054, Note_on_c, 11, 67, 86
25, 251055, Note_on_c, 11, 67, 0
25, 251282, Note_on_c, 11, 75, 0
25, 251294, Note_on_c, 11, 67, 0
25, 251300, Note_on_c, 11, 75, 78
25, 251301, Note_on_c, 11, 67, 89
25, 251534, Note_on_c, 11, 75, 89
25, 251540, Note_on_c, 11, 75, 0
25, 251540, Note_on_c, 11, 67, 98
25, 251541, Note_on_c, 11, 67, 0
25, 251762, Note_on_c, 11, 60, 95
25, 251774, Note_on_c, 11, 75, 0
25, 251775, Note_on_c, 11, 67, 82
25, 251780, Note_on_c, 11, 67, 0
25, 252002, Note_on_c, 11, 60, 0
25, 252013, Note_on_c, 11, 60, 82
25, 252015, Note_on_c, 11, 67, 0
25, 252021, Note_on_c, 11, 67, 91
25, 252253, Note_on_c, 11, 60, 0
25, 252258, Note_on_c, 11, 60, 90
25, 252258, Note_on_c, 11, 67, 83
25, 252261, Note_on_c, 11, 67, 0
25, 252495, Note_on_c, 11, 67, 96
25, 252498, Note_on_c, 11, 60, 0
25, 252498, Note_on_c, 11, 67, 0
25, 252501, Note_on_c, 11, 75, 93
25, 252726, Note_on_c, 11, 75, 95
25, 252735, Note_on_c, 11, 67, 0
25, 252741, Note_on_c, 11, 75, 0
25, 252742, Note_on_c, 11, 67, 91
25, 252966, Note_on_c, 11, 75, 0
25, 252969, Note_on_c, 11, 75, 89
25, 252978, Note_on_c, 11, 67, 86
25, 252982, Note_on_c, 11, 67, 0
25, 253200, Note_on_c, 11, 60, 89
25, 253209, Note_on_c, 11, 75, 0
25, 253218, Note_on_c, 11, 67, 0
25, 253219, Note_on_c, 11, 67, 83
25, 253440, Note_on_c, 11, 60, 0
25, 253451, Note_on_c, 11, 67, 82
25, 253457, Note_on_c, 11, 60, 95
25, 253459, Note_on_c, 11, 67, 0
25, 253686, Note_on_c, 11, 60, 86
25, 253691, Note_on_c, 11, 67, 0
25, 253695, Note_on_c, 11, 67, 87
25, 253697, Note_on_c, 11, 60, 0
25, 253926, Note_on_c, 11, 60, 0
25, 253930, Note_on_c, 11, 67, 79
25, 253935, Note_on_c, 11, 67, 0
25, 253937, Note_on_c, 11, 75, 90
25, 254170, Note_on_c, 11, 67, 0
25, 254174, Note_on_c, 11, 67, 92
25, 254177, Note_on_c, 11, 75, 0
25, 254182, Note_on_c, 11, 75, 87
25, 254405, Note_on_c, 11, 67, 84
25, 254406, Note_on_c, 11, 75, 91
25, 254414, Note_on_c, 11, 67, 0
25, 254422, Note_on_c, 11, 75, 0
25, 254641, Note_on_c, 11, 67, 88
25, 254645, Note_on_c, 11, 67, 0
25, 254646, Note_on_c, 11, 75, 0
25, 254655, Note_on_c, 11, 60, 83
25, 254881, Note_on_c, 11, 67, 0
25, 254895, Note_on_c, 11, 60, 0
25, 254895, Note_on_c, 11, 67, 93
25, 254903, Note_on_c, 11, 60, 89
25, 255131, Note_on_c, 11, 60, 79
25, 255133, Note_on_c, 11, 67, 89
25, 255135, Note_on_c, 11, 67, 0
25, 255143, Note_on_c, 11, 60, 0
25, 255371, Note_on_c, 11, 60, 0
25, 255371, Note_on_c, 11, 75, 95
25, 255373, Note_on_c, 11, 67, 0
25, 255376, Note_on_c, 11, 67, 82
25, 255602, Note_on_c, 11, 75, 93
25, 255611, Note_on_c, 11, 75, 0
25, 255616, Note_on_c, 11, 67, 0
25, 255623, Note_on_c, 11, 67, 93
25, 255842, Note_on_c, 11, 75, 0
25, 255849, Note_on_c, 11, 67, 94
25, 255850, Note_on_c, 11, 75, 98
25, 255863, Note_on_c, 11, 67, 0
25, 256089, Note_on_c, 11, 67, 0
25, 256090, Note_on_c, 11, 75, 0
25, 256094, Note_on_c, 11, 67, 98
25, 256095, Note_on_c, 11, 60, 94
25, 256334, Note_on_c, 11, 67, 0
25, 256335, Note_on_c, 11, 60, 0
25, 256339, Note_on_c, 11, 67, 79
25, 256342, Note_on_c, 11, 60, 95
25, 256560, Note_on_c, 11, 60, 85
25, 256579, Note_on_c, 11, 67, 0
25, 256582, Note_on_c, 11, 60, 0
25, 256584, Note_on_c, 11, 67, 96
25, 256800, Note_on_c, 11, 60, 0
25, 256812, Note_on_c, 11, 75, 89
25, 256824, Note_on_c, 11, 67, 0
25, 256824, Note_on_c, 11, 67, 89
25, 257052, Note_on_c, 11, 75, 0
25, 257059, Note_on_c, 11, 75, 92
25, 257063, Note_on_c, 11, 67, 98
25, 257064, Note_on_c, 11, 67, 0
25, 257294, Note_on_c, 11, 75, 96
25, 257299, Note_on_c, 11, 75, 0
25, 257300, Note_on_c, 11, 67, 93
25, 257303, Note_on_c, 11, 67, 0
25, 257530, Note_on_c, 11, 67, 97
25, 257534, Note_on_c, 11, 75, 0
25, 257534, Note_on_c, 11, 60, 78
25, 257540, Note_on_c, 11, 67, 0
25, 257760, Note_on_c, 11, 67, 81
25, 257770, Note_on_c, 11, 67, 0
25, 257774, Note_on_c, 11, 60, 0
25, 257785, Note_on_c, 11, 60, 80
25, 258000, Note_on_c, 11, 67, 0
25, 258015, Note_on_c, 11, 60, 78
25, 258023, Note_on_c, 11, 67, 95
25, 258025, Note_on_c, 11, 60, 0
25, 258248, Note_on_c, 11, 75, 91
25, 258251, Note_on_c, 11, 67, 90
25, 258255, Note_on_c, 11, 60, 0
25, 258263, Note_on_c, 11, 67, 0
25, 258488, Note_on_c, 11, 75, 0
25, 258488, Note_on_c, 11, 67, 91
25, 258491, Note_on_c, 11, 67, 0
25, 258505, Note_on_c, 11, 75, 82
25, 258722, Note_on_c, 11, 75, 98
25, 258723, Note_on_c, 11, 67, 89
25, 258728, Note_on_c, 11, 67, 0
25, 258745, Note_on_c, 11, 75, 0
25, 258960, Note_on_c, 11, 60, 83
25, 258962, Note_on_c, 11, 75, 0
25, 258963, Note_on_c, 11, 67, 0
25, 258983, Note_on_c, 11, 67, 79
25, 259200, Note_on_c, 11, 60, 0
25, 259200, Note_on_c, 11, 67, 98
25, 259223, Note_on_c, 11, 67, 0
25, 259224, Note_on_c, 11, 60, 98
25, 259440, Note_on_c, 11, 67, 0
25, 259457, Note_on_c, 11, 60, 80
25, 259462, Note_on_c, 11, 67, 83
25, 259464, Note_on_c, 11, 60, 0
25, 259680, Note_on_c, 11, 67, 80
25, 259689, Note_on_c, 11, 75, 91
25, 259697, Note_on_c, 11, 60, 0
25, 259702, Note_on_c, 11, 67, 0
25, 259920, Note_on_c, 11, 67, 0
25, 259922, Note_on_c, 11, 67, 97
25, 259929, Note_on_c, 11, 75, 0
25, 259938, Note_on_c, 11, 75, 95
25, 260162, Note_on_c, 11, 67, 0
25, 260178, Note_on_c, 11, 75, 0
25, 260178, Note_on_c, 11, 75, 96
25, 260182, Note_on_c, 11, 67, 91
25, 260404, Note_on_c, 11, 67, 89
25, 260418, Note_on_c, 11, 75, 0
25, 260421, Note_on_c, 11, 60, 88
25, 260422, Note_on_c, 11, 67, 0
25, 260644, Note_on_c, 11, 67, 0
25, 260652, Note_on_c, 11, 60, 90
25, 260654, Note_on_c, 11, 67, 97
25, 260661, Note_on_c, 11, 60, 0
25, 260880, Program_c, 11, 48
25, 260886, Note_on_c, 11, 66, 94
25, 260892, Note_on_c, 11, 60, 0
25, 260894, Note_on_c, 11, 67, 0
25, 261126, Note_on_c, 11, 66, 0
25, 265222, Note_on_c, 11, 56, 97
25, 265331, Note_on_c, 11, 58, 79
25, 265342, Note_on_c, 11, 56, 0
25, 265444, Note_on_c, 11, 60, 83
25, 265451, Note_on_c, 11, 58, 0
25, 265564, Note_on_c, 11, 60, 0
25, 265582, Note_on_c, 11, 61, 91
25, 265689, Note_on_c, 11, 63, 93
25, 265702, Note_on_c, 11, 61, 0
25, 265809, Note_on_c, 11, 63, 0
25, 265811, Note_on_c, 11, 64, 78
25, 265931, Note_on_c, 11, 64, 0
25, 265933, Note_on_c, 11, 63, 81
25, 266052, Note_on_c, 11, 65, 85
25, 266053, Note_on_c, 11, 63, 0
25, 266172, Note_on_c, 11, 65, 0
25, 266182, Note_on_c, 11, 66, 79
25, 266287, Note_on_c, 11, 68, 89
25, 266302, Note_on_c, 11, 66, 0
25, 266407, Note_on_c, 11, 68, 0
25, 266421, Note_on_c, 11, 70, 85
25, 266521, Note_on_c, 11, 71, 84
25, 266541, Note_on_c, 11, 70, 0
25, 266641, Note_on_c, 11, 71, 0
25, 266656, Note_on_c, 11, 70, 92
25, 266659, Note_on_c, 11, 72, 86
25, 266659, Note_on_c, 11, 72, 94
25, 266761, Note_on_c, 11, 70, 97
25, 266776, Note_on_c, 11, 70, 0
25, 266777, Note_on_c, 11, 72, 97
25, 266779, Note_on_c, 11, 72, 0
25, 266877, Note_on_c, 11, 70, 0
25, 266881, Note_on_c, 11, 73, 84
25, 266895, Note_on_c, 11, 73, 84
25, 266897, Note_on_c, 11, 72, 0
25, 266899, Note_on_c, 11, 72, 0
25, 266900, Note_on_c, 11, 71, 96
25, 267000, Note_on_c, 11, 71, 94
25, 267014, Note_on_c, 11, 73, 78
25, 267015, Note_on_c, 11, 73, 0
25, 267020, Note_on_c, 11, 71, 0
25, 267116, Note_on_c, 11, 71, 0
25, 267121, Note_on_c, 11, 73, 0
25, 267125, Note_on_c, 11, 72, 88
25, 267128, Note_on_c, 11, 74, 82
25, 267134, Note_on_c, 11, 73, 0
25, 267138, Note_on_c, 11, 74, 79
25, 267245, Note_on_c, 11, 72, 0
25, 267247, Note_on_c, 11, 72, 88
25, 267256, Note_on_c, 11, 74, 86
25, 267258, Note_on_c, 11, 74, 0
25, 267361, Note_on_c, 11, 75, 89
25, 267363, Note_on_c, 11, 72, 0
25, 267368, Note_on_c, 11, 74, 0
25, 267376, Note_on_c, 11, 74, 0
25, 267379, Note_on_c, 11, 73, 87
25, 267601, Note_on_c, 11, 75, 0
25, 267619, Note_on_c, 11, 73, 0
25, 268320, Program_c, 11, 40
25, 268328, Note_on_c, 11, 82, 87
25, 268339, Note_on_c, 11, 87, 84
25, 268461, Note_on_c, 11, 82, 0
25, 268472, Note_on_c, 11, 87, 0
25, 268477, Note_on_c, 11, 81, 98
25, 268477, Note_on_c, 11, 86, 91
25, 268599, Note_on_c, 11, 80, 88
25, 268610, Note_on_c, 11, 81, 0
25, 268610, Note_on_c, 11, 86, 0
25, 268610, Note_on_c, 11, 85, 91
25, 268732, Note_on_c, 11, 80, 0
25, 268732, Note_on_c, 11, 79, 96
25, 268739, Note_on_c, 11, 84, 89
25, 268743, Note_on_c, 11, 85, 0
25, 268855, Note_on_c, 11, 78, 85
25, 268865, Note_on_c, 11, 79, 0
25, 268870, Note_on_c, 11, 83, 79
25, 268872, Note_on_c, 11, 84, 0
25, 268988, Note_on_c, 11, 78, 0
25, 268996, Note_on_c, 11, 82, 86
25, 269003, Note_on_c, 11, 83, 0
25, 269010, Note_on_c, 11, 77, 93
25, 269129, Note_on_c, 11, 82, 0
25, 269131, Note_on_c, 11, 81, 85
25, 269143, Note_on_c, 11, 77, 0
25, 269143, Note_on_c, 11, 76, 97
25, 269256, Note_on_c, 11, 80, 88
25, 269258, Note_on_c, 11, 75, 78
25, 269264, Note_on_c, 11, 81, 0
25, 269276, Note_on_c, 11, 76, 0
25, 269389, Note_on_c, 11, 80, 0
25, 269390, Note_on_c, 11, 74, 88
25, 269391, Note_on_c, 11, 75, 0
25, 269402, Note_on_c, 11, 79, 81
25, 269523, Note_on_c, 11, 74, 0
25, 269535, Note_on_c, 11, 79, 0
25, 269537, Note_on_c, 11, 78, 90
25, 269538, Note_on_c, 11, 73, 81
25, 269657, Note_on_c, 11, 78, 0
25, 269658, Note_on_c, 11, 73, 0
25, 271680, Program_c, 11, 45
25, 271691, Note_on_c, 11, 75, 110
25, 271931, Note_on_c, 11, 75, 0
25, 271933, Note_on_c, 11, 73, 78
25, 272173, Note_on_c, 11, 73, 0
25, 272185, Note_on_c, 11, 70, 86
25, 272403, Note_on_c, 11, 67, 81
25, 272425, Note_on_c, 11, 70, 0
25, 272643, Note_on_c, 11, 67, 0
25, 272651, Note_on_c, 11, 75, 119
25, 272889, Note_on_c, 11, 73, 82
25, 272891, Note_on_c, 11, 75, 0
25, 273129, Note_on_c, 11, 73, 0
25, 273136, Note_on_c, 11, 70, 98
25, 273376, Note_on_c, 11, 70, 0
25, 273376, Note_on_c, 11, 67, 89
25, 273616, Note_on_c, 11, 67, 0
25, 273621, Note_on_c, 11, 75, 103
25, 273860, Note_on_c, 11, 73, 85
25, 273861, Note_on_c, 11, 75, 0
25, 274087, Note_on_c, 11, 70, 85
25, 274100, Note_on_c, 11, 73, 0
25, 274325, Note_on_c, 11, 67, 97
25, 274327, Note_on_c, 11, 70, 0
25, 274565, Note_on_c, 11, 67, 0
25, 274584, Note_on_c, 11, 75, 107
25, 274800, Note_on_c, 11, 73, 96
25, 274824, Note_on_c, 11, 75, 0
25, 275040, Note_on_c, 11, 73, 0
25, 275052, Note_on_c, 11, 70, 79
25, 275292, Note_on_c, 11, 70, 0
25, 275299, Note_on_c, 11, 67, 82
25, 275539, Note_on_c, 11, 67, 0
25, 275539, Note_on_c, 11, 75, 106
25, 275779, Note_on_c, 11, 75, 0
25, 275781, Note_on_c, 11, 73, 83
25, 276021, Note_on_c, 11, 73, 0
25, 276024, Note_on_c, 11, 70, 84
25, 276254, Note_on_c, 11, 67, 82
25, 276264, Note_on_c, 11, 70, 0
25, 276494, Note_on_c, 11, 67, 0
25, 276496, Note_on_c, 11, 75, 112
25, 276736, Note_on_c, 11, 75, 0
25, 276736, Note_on_c, 11, 73, 90
25, 276975, Note_on_c, 11, 70, 81
25, 276976, Note_on_c, 11, 73, 0
25, 277206, Note_on_c, 11, 67, 90
25, 277215, Note_on_c, 11, 70, 0
25, 277446, Note_on_c, 11, 67, 0
25, 277452, Note_on_c, 11, 75, 118
25, 277692, Note_on_c, 11, 75, 0
25, 277705, Note_on_c, 11, 73, 92
25, 277933, Note_on_c, 11, 70, 83
25, 277945, Note_on_c, 11, 73, 0
25, 278173, Note_on_c, 11, 70, 0
25, 278173, Note_on_c, 11, 67, 96
25, 278413, Note_on_c, 11, 67, 0
25, 278421, Note_on_c, 11, 75, 114
25, 278655, Note_on_c, 11, 73, 94
25, 278661, Note_on_c, 11, 75, 0
25, 278895, Note_on_c, 11, 73, 0
25, 278900, Note_on_c, 11, 70, 85
25, 279138, Note_on_c, 11, 67, 89
25, 279140, Note_on_c, 11, 70, 0
25, 279364, Note_on_c, 11, 75, 103
25, 279378, Note_on_c, 11, 67, 0
25, 279604, Note_on_c, 11, 75, 0
25, 279607, Note_on_c, 11, 73, 84
25, 279847, Note_on_c, 11, 73, 0
25, 279853, Note_on_c, 11, 70, 86
25, 280088, Note_on_c, 11, 67, 82
25, 280093, Note_on_c, 11, 70, 0
25, 280328, Note_on_c, 11, 67, 0
25, 280333, Note_on_c, 11, 75, 106
25, 280573, Note_on_c, 11, 75, 0
25, 280583, Note_on_c, 11, 73, 81
25, 280818, Note_on_c, 11, 70, 87
25, 280823, Note_on_c, 11, 73, 0
25, 281058, Note_on_c, 11, 70, 0
25, 281061, Note_on_c, 11, 67, 91
25, 281282, Note_on_c, 11, 75, 104
25, 281301, Note_on_c, 11, 67, 0
25, 281522, Note_on_c, 11, 75, 0
25, 281537, Note_on_c, 11, 73, 86
25, 281764, Note_on_c, 11, 70, 85
25, 281777, Note_on_c, 11, 73, 0
25, 282004, Note_on_c, 11, 70, 0
25, 282020, Note_on_c, 11, 67, 95
25, 282245, Note_on_c, 11, 75, 113
25, 282260, Note_on_c, 11, 67, 0
25, 282485, Note_on_c, 11, 75, 0
25, 282505, Note_on_c, 11, 73, 84
25, 282743, Note_on_c, 11, 70, 81
25, 282745, Note_on_c, 11, 73, 0
25, 282964, Note_on_c, 11, 67, 98
25, 282983, Note_on_c, 11, 70, 0
25, 283204, Note_on_c, 11, 67, 0
25, 283222, Note_on_c, 11, 75, 115
25, 283440, Note_on_c, 11, 73, 87
25, 283462, Note_on_c, 11, 75, 0
25, 283680, Note_on_c, 11, 73, 0
25, 283700, Note_on_c, 11, 70, 98
25, 283921, Note_on_c, 11, 69, 96
25, 283940, Note_on_c, 11, 70, 0
25, 284161, Note_on_c, 11, 69, 0
25, 284161, Note_on_c, 11, 73, 94
25, 284401, Note_on_c, 11, 73, 0
25, 284413, Note_on_c, 11, 76, 84
25, 284653, Note_on_c, 11, 76, 0
25, 284654, Note_on_c, 11, 81, 87
25, 284894, Note_on_c, 11, 81, 0
25, 287520, Program_c, 11, 48
25, 287522, Note_on_c, 11, 56, 92
25, 287642, Note_on_c, 11, 56, 0
25, 287665, Note_on_c, 11, 58, 90
25, 287775, Note_on_c, 11, 60, 86
25, 287785, Note_on_c, 11, 58, 0
25, 287895, Note_on_c, 11, 60, 0
25, 287896, Note_on_c, 11, 61, 84
25, 288016, Note_on_c, 11, 61, 0
25, 288021, Note_on_c, 11, 63, 89
25, 288123, Note_on_c, 11, 64, 78
25, 288141, Note_on_c, 11, 63, 0
25, 288243, Note_on_c, 11, 64, 0
25, 288244, Note_on_c, 11, 63, 97
25, 288364, Note_on_c, 11, 63, 0
25, 288379, Note_on_c, 11, 65, 82
25, 288497, Note_on_c, 11, 66, 82
25, 288499, Note_on_c, 11, 65, 0
25, 288612, Note_on_c, 11, 68, 82
25, 288617, Note_on_c, 11, 66, 0
25, 288732, Note_on_c, 11, 68, 0
25, 288732, Note_on_c, 11, 70, 85
25, 288852, Note_on_c, 11, 70, 0
25, 288861, Note_on_c, 11, 71, 88
25, 288960, Program_c, 11, 44
25, 288967, Note_on_c, 11, 72, 83
25, 288981, Note_on_c, 11, 71, 0
25, 289202, Note_on_c, 11, 73, 94
25, 289207, Note_on_c, 11, 72, 0
25, 289442, Note_on_c, 11, 73, 0
25, 289459, Note_on_c, 11, 74, 81
25, 289692, Note_on_c, 11, 75, 97
25, 289699, Note_on_c, 11, 74, 0
25, 289925, Note_on_c, 11, 76, 93
25, 289932, Note_on_c, 11, 75, 0
25, 290165, Note_on_c, 11, 76, 0
25, 290173, Note_on_c, 11, 77, 79
25, 290402, Note_on_c, 11, 78, 97
25, 290413, Note_on_c, 11, 77, 0
25, 290570, Note_on_c, 11, 78, 0
25, 290646, Note_on_c, 11, 78, 94
25, 290814, Note_on_c, 11, 78, 0
25, 290890, Note_on_c, 11, 78, 85
25, 291058, Note_on_c, 11, 78, 0
25, 291128, Note_on_c, 11, 75, 84
25, 291296, Note_on_c, 11, 75, 0
25, 291365, Note_on_c, 11, 75, 91
25, 291533, Note_on_c, 11, 75, 0
25, 291602, Note_on_c, 11, 75, 79
25, 291770, Note_on_c, 11, 75, 0
25, 291843, Note_on_c, 11, 75, 97
25, 292011, Note_on_c, 11, 75, 0
25, 292090, Note_on_c, 11, 76, 87
25, 292320, Note_on_c, 11, 77, 85
25, 292330, Note_on_c, 11, 76, 0
25, 292560, Note_on_c, 11, 77, 0
25, 292581, Note_on_c, 11, 78, 86
25, 292805, Note_on_c, 11, 77, 95
25, 292821, Note_on_c, 11, 78, 0
25, 293045, Note_on_c, 11, 77, 0
25, 293063, Note_on_c, 11, 76, 80
25, 293282, Note_on_c, 11, 75, 90
25, 293303, Note_on_c, 11, 76, 0
25, 293450, Note_on_c, 11, 75, 0
25, 293537, Note_on_c, 11, 75, 85
25, 293705, Note_on_c, 11, 75, 0
25, 293778, Note_on_c, 11, 75, 85
25, 293946, Note_on_c, 11, 75, 0
25, 293990, Control_c, 11, 7, 64
25, 294000, Program_c, 11, 40
25, 294009, Note_on_c, 11, 75, 90
25, 294075, Note_on_c, 11, 75, 0
25, 294735, Note_on_c, 11, 90, 82
25, 294739, Note_on_c, 11, 88, 78
25, 294819, Note_on_c, 11, 90, 0
25, 294823, Note_on_c, 11, 88, 0
25, 294843, Note_on_c, 11, 90, 90
25, 294852, Note_on_c, 11, 88, 81
25, 294927, Note_on_c, 11, 90, 0
25, 294936, Note_on_c, 11, 88, 0
25, 294978, Note_on_c, 11, 90, 100
25, 294981, Note_on_c, 11, 88, 85
25, 295062, Note_on_c, 11, 90, 0
25, 295065, Note_on_c, 11, 88, 0
25, 295093, Note_on_c, 11, 88, 93
25, 295101, Note_on_c, 11, 90, 95
25, 295177, Note_on_c, 11, 88, 0
25, 295185, Note_on_c, 11, 90, 0
25, 295206, Note_on_c, 11, 90, 98
25, 295217, Note_on_c, 11, 88, 90
25, 295290, Note_on_c, 11, 90, 0
25, 295301, Note_on_c, 11, 88, 0
25, 295324, Note_on_c, 11, 88, 105
25, 295342, Note_on_c, 11, 90, 109
25, 295408, Note_on_c, 11, 88, 0
25, 295426, Note_on_c, 11, 90, 0
25, 295443, Note_on_c, 11, 88, 108
25, 295453, Note_on_c, 11, 90, 103
25, 295527, Note_on_c, 11, 88, 0
25, 295537, Note_on_c, 11, 90, 0
25, 295560, Note_on_c, 11, 88, 97
25, 295573, Note_on_c, 11, 90, 101
25, 295644, Note_on_c, 11, 88, 0
25, 295657, Note_on_c, 11, 90, 0
25, 295682, Note_on_c, 11, 88, 87
25, 295694, Note_on_c, 11, 90, 96
25, 295766, Note_on_c, 11, 88, 0
25, 295778, Note_on_c, 11, 90, 0
25, 295806, Note_on_c, 11, 88, 87
25, 295825, Note_on_c, 11, 90, 90
25, 295890, Note_on_c, 11, 88, 0
25, 295909, Note_on_c, 11, 90, 0
25, 295931, Note_on_c, 11, 90, 100
25, 295945, Note_on_c, 11, 88, 86
25, 296015, Note_on_c, 11, 90, 0
25, 296029, Note_on_c, 11, 88, 0
25, 296052, Note_on_c, 11, 88, 82
25, 296062, Note_on_c, 11, 90, 82
25, 296136, Note_on_c, 11, 88, 0
25, 296137, Control_c, 11, 7, 108
25, 296146, Note_on_c, 11, 90, 0
25, 296873, Control_c, 11, 7, 64
25, 297615, Note_on_c, 11, 88, 93
25, 297625, Note_on_c, 11, 90, 88
25, 297699, Note_on_c, 11, 88, 0
25, 297709, Note_on_c, 11, 90, 0
25, 297720, Note_on_c, 11, 90, 81
25, 297732, Note_on_c, 11, 88, 84
25, 297804, Note_on_c, 11, 90, 0
25, 297816, Note_on_c, 11, 88, 0
25, 297851, Note_on_c, 11, 90, 86
25, 297865, Note_on_c, 11, 88, 88
25, 297935, Note_on_c, 11, 90, 0
25, 297949, Note_on_c, 11, 88, 0
25, 297972, Note_on_c, 11, 90, 87
25, 297984, Note_on_c, 11, 88, 105
25, 298056, Note_on_c, 11, 90, 0
25, 298068, Note_on_c, 11, 88, 0
25, 298084, Note_on_c, 11, 88, 88
25, 298092, Note_on_c, 11, 90, 106
25, 298168, Note_on_c, 11, 88, 0
25, 298176, Note_on_c, 11, 90, 0
25, 298204, Note_on_c, 11, 90, 98
25, 298211, Note_on_c, 11, 88, 107
25, 298288, Note_on_c, 11, 90, 0
25, 298295, Note_on_c, 11, 88, 0
25, 298330, Note_on_c, 11, 90, 97
25, 298336, Note_on_c, 11, 88, 94
25, 298414, Note_on_c, 11, 90, 0
25, 298420, Note_on_c, 11, 88, 0
25, 298442, Note_on_c, 11, 88, 102
25, 298458, Note_on_c, 11, 90, 92
25, 298526, Note_on_c, 11, 88, 0
25, 298542, Note_on_c, 11, 90, 0
25, 298568, Note_on_c, 11, 90, 87
25, 298581, Note_on_c, 11, 88, 93
25, 298652, Note_on_c, 11, 90, 0
25, 298665, Note_on_c, 11, 88, 0
25, 298699, Note_on_c, 11, 88, 89
25, 298702, Note_on_c, 11, 90, 90
25, 298783, Note_on_c, 11, 88, 0
25, 298786, Note_on_c, 11, 90, 0
25, 298800, Note_on_c, 11, 88, 85
25, 298804, Note_on_c, 11, 90, 90
25, 298884, Note_on_c, 11, 88, 0
25, 298888, Note_on_c, 11, 90, 0
25, 298929, Note_on_c, 11, 90, 90
25, 298934, Note_on_c, 11, 88, 88
25, 299013, Note_on_c, 11, 90, 0
25, 299018, Note_on_c, 11, 88, 0
25, 300482, Note_on_c, 11, 88, 80
25, 300486, Note_on_c, 11, 90, 93
25, 300566, Note_on_c, 11, 88, 0
25, 300570, Note_on_c, 11, 90, 0
25, 300602, Note_on_c, 11, 88, 87
25, 300605, Note_on_c, 11, 90, 100
25, 300686, Note_on_c, 11, 88, 0
25, 300689, Note_on_c, 11, 90, 0
25, 300721, Note_on_c, 11, 90, 96
25, 300726, Note_on_c, 11, 88, 93
25, 300805, Note_on_c, 11, 90, 0
25, 300810, Note_on_c, 11, 88, 0
25, 300846, Note_on_c, 11, 88, 86
25, 300857, Note_on_c, 11, 90, 103
25, 300930, Note_on_c, 11, 88, 0
25, 300941, Note_on_c, 11, 90, 0
25, 300968, Note_on_c, 11, 90, 98
25, 300980, Note_on_c, 11, 88, 96
25, 301052, Note_on_c, 11, 90, 0
25, 301064, Note_on_c, 11, 88, 0
25, 301098, Note_on_c, 11, 90, 110
25, 301101, Note_on_c, 11, 88, 100
25, 301182, Note_on_c, 11, 90, 0
25, 301185, Note_on_c, 11, 88, 0
25, 301213, Note_on_c, 11, 88, 102
25, 301224, Note_on_c, 11, 90, 91
25, 301297, Note_on_c, 11, 88, 0
25, 301308, Note_on_c, 11, 90, 0
25, 301321, Note_on_c, 11, 90, 93
25, 301335, Note_on_c, 11, 88, 103
25, 301405, Note_on_c, 11, 90, 0
25, 301419, Note_on_c, 11, 88, 0
25, 301452, Note_on_c, 11, 90, 106
25, 301461, Note_on_c, 11, 88, 95
25, 301536, Note_on_c, 11, 90, 0
25, 301545, Note_on_c, 11, 88, 0
25, 301565, Note_on_c, 11, 88, 88
25, 301584, Note_on_c, 11, 90, 88
25, 301649, Note_on_c, 11, 88, 0
25, 301668, Note_on_c, 11, 90, 0
25, 301688, Note_on_c, 11, 90, 93
25, 301694, Note_on_c, 11, 88, 92
25, 301772, Note_on_c, 11, 90, 0
25, 301778, Note_on_c, 11, 88, 0
25, 301810, Note_on_c, 11, 88, 95
25, 301812, Note_on_c, 11, 90, 79
25, 301894, Note_on_c, 11, 88, 0
25, 301896, Note_on_c, 11, 90, 0
25, 304082, Note_on_c, 11, 82, 93
25, 304177, Note_on_c, 11, 82, 0
25, 304578, Note_on_c, 11, 82, 94
25, 304673, Note_on_c, 11, 82, 0
25, 305512, Control_c, 11, 7, 108
25, 305520, Program_c, 11, 48
25, 305525, Note_on_c, 11, 82, 100
25, 305596, Note_on_c, 11, 82, 0
25, 305777, Note_on_c, 11, 77, 107
25, 305848, Note_on_c, 11, 77, 0
25, 306004, Note_on_c, 11, 82, 99
25, 306075, Note_on_c, 11, 82, 0
25, 306251, Note_on_c, 11, 77, 107
25, 306322, Note_on_c, 11, 77, 0
25, 306485, Note_on_c, 11, 78, 95
25, 306556, Note_on_c, 11, 78, 0
25, 306728, Note_on_c, 11, 73, 105
25, 306799, Note_on_c, 11, 73, 0
25, 306977, Note_on_c, 11, 78, 102
25, 307048, Note_on_c, 11, 78, 0
25, 307216, Note_on_c, 11, 75, 97
25, 307287, Note_on_c, 11, 75, 0
25, 307445, Note_on_c, 11, 72, 102
25, 307516, Note_on_c, 11, 72, 0
25, 307694, Note_on_c, 11, 75, 100
25, 307765, Note_on_c, 11, 75, 0
25, 307944, Note_on_c, 11, 73, 108
25, 308015, Note_on_c, 11, 73, 0
25, 308178, Note_on_c, 11, 78, 98
25, 308249, Note_on_c, 11, 78, 0
25, 308408, Note_on_c, 11, 77, 98
25, 308479, Note_on_c, 11, 77, 0
25, 308643, Note_on_c, 11, 82, 111
25, 308714, Note_on_c, 11, 82, 0
25, 309351, Control_c, 11, 101, 0
25, 309352, Control_c, 11, 100, 0
25, 309353, Control_c, 11, 6, 12
25, 309354, Control_c, 11, 38, 0
25, 309840, Control_c, 11, 36, 12
25, 311065, Note_on_c, 11, 81, 93
25, 311136, Note_on_c, 11, 81, 0
25, 311283, Note_on_c, 11, 76, 109
25, 311354, Note_on_c, 11, 76, 0
25, 311540, Note_on_c, 11, 81, 103
25, 311611, Note_on_c, 11, 81, 0
25, 311778, Note_on_c, 11, 76, 94
25, 311849, Note_on_c, 11, 76, 0
25, 312022, Note_on_c, 11, 77, 108
25, 312093, Note_on_c, 11, 77, 0
25, 312241, Note_on_c, 11, 72, 98
25, 312312, Note_on_c, 11, 72, 0
25, 312494, Note_on_c, 11, 74, 97
25, 312565, Note_on_c, 11, 74, 0
25, 312741, Note_on_c, 11, 71, 96
25, 312812, Note_on_c, 11, 71, 0
25, 312960, Note_on_c, 11, 74, 100
25, 313031, Note_on_c, 11, 74, 0
25, 313202, Note_on_c, 11, 72, 92
25, 313273, Note_on_c, 11, 72, 0
25, 313459, Note_on_c, 11, 77, 98
25, 313530, Note_on_c, 11, 77, 0
25, 313698, Note_on_c, 11, 76, 103
25, 313769, Note_on_c, 11, 76, 0
25, 313916, Control_c, 11, 7, 108
25, 313920, Program_c, 11, 44
25, 313928, Note_on_c, 11, 69, 57
25, 314168, Note_on_c, 11, 69, 0
25, 314172, Note_on_c, 11, 72, 60
25, 314412, Note_on_c, 11, 72, 0
25, 314412, Note_on_c, 11, 75, 49
25, 314628, Note_on_c, 11, 75, 0
25, 314649, Note_on_c, 11, 75, 45
25, 314665, Note_on_c, 11, 77, 48
25, 314865, Note_on_c, 11, 75, 0
25, 314885, Note_on_c, 11, 75, 48
25, 314905, Note_on_c, 11, 77, 0
25, 315101, Note_on_c, 11, 75, 0
25, 315129, Note_on_c, 11, 72, 65
25, 315362, Note_on_c, 11, 69, 60
25, 315369, Note_on_c, 11, 72, 0
25, 315602, Note_on_c, 11, 69, 0
25, 315603, Note_on_c, 11, 72, 64
25, 315843, Note_on_c, 11, 72, 0
25, 315863, Note_on_c, 11, 75, 51
25, 316079, Note_on_c, 11, 75, 0
25, 316089, Note_on_c, 11, 75, 65
25, 316091, Note_on_c, 11, 77, 55
25, 316305, Note_on_c, 11, 75, 0
25, 316331, Note_on_c, 11, 77, 0
25, 316340, Note_on_c, 11, 75, 70
25, 316556, Note_on_c, 11, 75, 0
25, 316566, Note_on_c, 11, 72, 66
25, 316806, Note_on_c, 11, 72, 0
25, 316808, Note_on_c, 11, 69, 69
25, 317048, Note_on_c, 11, 69, 0
25, 317061, Note_on_c, 11, 72, 66
25, 317296, Note_on_c, 11, 75, 72
25, 317301, Note_on_c, 11, 72, 0
25, 317512, Note_on_c, 11, 75, 0
25, 317540, Note_on_c, 11, 75, 75
25, 317540, Note_on_c, 11, 77, 64
25, 317756, Note_on_c, 11, 75, 0
25, 317771, Note_on_c, 11, 75, 57
25, 317780, Note_on_c, 11, 77, 0
25, 317987, Note_on_c, 11, 75, 0
25, 318018, Note_on_c, 11, 72, 66
25, 318236, Control_c, 11, 7, 108
25, 318258, Note_on_c, 11, 72, 0
25, 318260, Note_on_c, 11, 69, 60
25, 318490, Note_on_c, 11, 72, 81
25, 318500, Note_on_c, 11, 69, 0
25, 318723, Note_on_c, 11, 75, 80
25, 318730, Note_on_c, 11, 72, 0
25, 318963, Note_on_c, 11, 75, 0
25, 318964, Note_on_c, 11, 77, 69
25, 318984, Note_on_c, 11, 75, 80
25, 319200, Note_on_c, 11, 75, 0
25, 319204, Note_on_c, 11, 77, 0
25, 319218, Note_on_c, 11, 75, 76
25, 319446, Note_on_c, 11, 72, 77
25, 319458, Note_on_c, 11, 75, 0
25, 319686, Note_on_c, 11, 72, 0
25, 319687, Note_on_c, 11, 69, 84
25, 319927, Note_on_c, 11, 69, 0
25, 319941, Note_on_c, 11, 72, 68
25, 320178, Note_on_c, 11, 75, 71
25, 320181, Note_on_c, 11, 72, 0
25, 320400, Note_on_c, 11, 77, 73
25, 320418, Note_on_c, 11, 75, 0
25, 321120, Note_on_c, 11, 77, 0
25, 321131, Note_on_c, 11, 78, 93
25, 321851, Note_on_c, 11, 78, 0
25, 321857, Note_on_c, 11, 77, 92
25, 322567, Note_on_c, 11, 80, 85
25, 322577, Note_on_c, 11, 77, 0
25, 323287, Note_on_c, 11, 80, 0
25, 323294, Note_on_c, 11, 76, 86
25, 324006, Note_on_c, 11, 84, 95
25, 324014, Note_on_c, 11, 76, 0
25, 324480, Program_c, 11, 48
25, 324486, Note_on_c, 11, 84, 0
25, 324502, Note_on_c, 11, 84, 93
25, 324511, Pitch_bend_c, 11, 8224
25, 324511, Pitch_bend_c, 11, 8256
25, 324513, Pitch_bend_c, 11, 8288
25, 324513, Pitch_bend_c, 11, 8320
25, 324515, Pitch_bend_c, 11, 8352
25, 324515, Pitch_bend_c, 11, 8384
25, 324516, Pitch_bend_c, 11, 8416
25, 324517, Pitch_bend_c, 11, 8448
25, 324518, Pitch_bend_c, 11, 8480
25, 324518, Pitch_bend_c, 11, 8512
25, 324519, Pitch_bend_c, 11, 8544
25, 324520, Pitch_bend_c, 11, 8576
25, 324521, Pitch_bend_c, 11, 8608
25, 324521, Pitch_bend_c, 11, 8640
25, 324523, Pitch_bend_c, 11, 8672
25, 324523, Pitch_bend_c, 11, 8704
25, 324525, Pitch_bend_c, 11, 8736
25, 324525, Pitch_bend_c, 11, 8768
25, 324526, Pitch_bend_c, 11, 8800
25, 324526, Pitch_bend_c, 11, 8832
25, 324528, Pitch_bend_c, 11, 8864
25, 324528, Pitch_bend_c, 11, 8896
25, 324529, Pitch_bend_c, 11, 8928
25, 324530, Pitch_bend_c, 11, 8960
25, 324531, Pitch_bend_c, 11, 8992
25, 324531, Pitch_bend_c, 11, 9024
25, 324532, Pitch_bend_c, 11, 9056
25, 324533, Pitch_bend_c, 11, 9088
25, 324534, Pitch_bend_c, 11, 9120
25, 324535, Pitch_bend_c, 11, 9152
25, 324536, Pitch_bend_c, 11, 9184
25, 324536, Pitch_bend_c, 11, 9216
25, 324537, Pitch_bend_c, 11, 9248
25, 324538, Pitch_bend_c, 11, 9280
25, 324539, Pitch_bend_c, 11, 9312
25, 324540, Pitch_bend_c, 11, 9344
25, 324540, Pitch_bend_c, 11, 9376
25, 324541, Pitch_bend_c, 11, 9408
25, 324542, Pitch_bend_c, 11, 9440
25, 324543, Pitch_bend_c, 11, 9472
25, 324543, Pitch_bend_c, 11, 9504
25, 324545, Pitch_bend_c, 11, 9536
25, 324545, Pitch_bend_c, 11, 9568
25, 324546, Pitch_bend_c, 11, 9600
25, 324547, Pitch_bend_c, 11, 9632
25, 324548, Pitch_bend_c, 11, 9664
25, 324549, Pitch_bend_c, 11, 9696
25, 324550, Pitch_bend_c, 11, 9728
25, 324550, Pitch_bend_c, 11, 9760
25, 324551, Pitch_bend_c, 11, 9792
25, 324552, Pitch_bend_c, 11, 9824
25, 324553, Pitch_bend_c, 11, 9856
25, 324553, Pitch_bend_c, 11, 9888
25, 324555, Pitch_bend_c, 11, 9920
25, 324555, Pitch_bend_c, 11, 9952
25, 324556, Pitch_bend_c, 11, 9984
25, 324556, Pitch_bend_c, 11, 10016
25, 324558, Pitch_bend_c, 11, 10048
25, 324558, Pitch_bend_c, 11, 10080
25, 324560, Pitch_bend_c, 11, 10112
25, 324560, Pitch_bend_c, 11, 10144
25, 324561, Pitch_bend_c, 11, 10176
25, 324562, Pitch_bend_c, 11, 10208
25, 324563, Pitch_bend_c, 11, 10240
25, 324563, Pitch_bend_c, 11, 10272
25, 324564, Pitch_bend_c, 11, 10304
25, 324565, Pitch_bend_c, 11, 10336
25, 324566, Pitch_bend_c, 11, 10368
25, 324566, Pitch_bend_c, 11, 10400
25, 324568, Pitch_bend_c, 11, 10432
25, 324568, Pitch_bend_c, 11, 10464
25, 324569, Pitch_bend_c, 11, 10496
25, 324570, Pitch_bend_c, 11, 10528
25, 324571, Pitch_bend_c, 11, 10560
25, 324571, Pitch_bend_c, 11, 10592
25, 324572, Pitch_bend_c, 11, 10624
25, 324573, Pitch_bend_c, 11, 10656
25, 324574, Pitch_bend_c, 11, 10688
25, 324575, Pitch_bend_c, 11, 10720
25, 324575, Pitch_bend_c, 11, 10752
25, 324576, Pitch_bend_c, 11, 10784
25, 324577, Pitch_bend_c, 11, 10816
25, 324578, Pitch_bend_c, 11, 10848
25, 324579, Pitch_bend_c, 11, 10880
25, 324580, Pitch_bend_c, 11, 10912
25, 324581, Pitch_bend_c, 11, 10944
25, 324581, Pitch_bend_c, 11, 10976
25, 324582, Pitch_bend_c, 11, 11008
25, 324583, Pitch_bend_c, 11, 11040
25, 324584, Pitch_bend_c, 11, 11072
25, 324585, Pitch_bend_c, 11, 11104
25, 324585, Pitch_bend_c, 11, 11136
25, 324586, Pitch_bend_c, 11, 11168
25, 324587, Pitch_bend_c, 11, 11200
25, 324588, Pitch_bend_c, 11, 11232
25, 324588, Pitch_bend_c, 11, 11264
25, 324590, Pitch_bend_c, 11, 11296
25, 324590, Pitch_bend_c, 11, 11328
25, 324591, Pitch_bend_c, 11, 11360
25, 324592, Pitch_bend_c, 11, 11392
25, 324593, Pitch_bend_c, 11, 11424
25, 324594, Pitch_bend_c, 11, 11456
25, 324594, Pitch_bend_c, 11, 11488
25, 324595, Pitch_bend_c, 11, 11520
25, 324596, Pitch_bend_c, 11, 11552
25, 324597, Pitch_bend_c, 11, 11584
25, 324598, Pitch_bend_c, 11, 11616
25, 324598, Pitch_bend_c, 11, 11648
25, 324600, Pitch_bend_c, 11, 11680
25, 324600, Pitch_bend_c, 11, 11712
25, 324601, Pitch_bend_c, 11, 11744
25, 324601, Pitch_bend_c, 11, 11776
25, 324603, Pitch_bend_c, 11, 11808
25, 324603, Pitch_bend_c, 11, 11840
25, 324604, Pitch_bend_c, 11, 11872
25, 324605, Pitch_bend_c, 11, 11904
25, 324606, Pitch_bend_c, 11, 11936
25, 324607, Pitch_bend_c, 11, 11968
25, 324607, Pitch_bend_c, 11, 12000
25, 324608, Pitch_bend_c, 11, 12032
25, 324609, Pitch_bend_c, 11, 12064
25, 324610, Pitch_bend_c, 11, 12096
25, 324611, Pitch_bend_c, 11, 12128
25, 324611, Pitch_bend_c, 11, 12160
25, 324613, Pitch_bend_c, 11, 12192
25, 324613, Pitch_bend_c, 11, 12224
25, 324614, Pitch_bend_c, 11, 12256
25, 324615, Pitch_bend_c, 11, 12288
25, 324616, Pitch_bend_c, 11, 12320
25, 324616, Pitch_bend_c, 11, 12352
25, 324617, Pitch_bend_c, 11, 12384
25, 324618, Pitch_bend_c, 11, 12416
25, 324619, Pitch_bend_c, 11, 12448
25, 324620, Pitch_bend_c, 11, 12480
25, 324620, Pitch_bend_c, 11, 12512
25, 324621, Pitch_bend_c, 11, 12544
25, 324622, Pitch_bend_c, 11, 12576
25, 324623, Pitch_bend_c, 11, 12608
25, 324624, Pitch_bend_c, 11, 12640
25, 324625, Pitch_bend_c, 11, 12672
25, 324626, Pitch_bend_c, 11, 12704
25, 324626, Pitch_bend_c, 11, 12736
25, 324627, Pitch_bend_c, 11, 12768
25, 324628, Pitch_bend_c, 11, 12800
25, 324629, Pitch_bend_c, 11, 12832
25, 324630, Pitch_bend_c, 11, 12864
25, 324630, Pitch_bend_c, 11, 12896
25, 324631, Pitch_bend_c, 11, 12928
25, 324632, Pitch_bend_c, 11, 12960
25, 324633, Pitch_bend_c, 11, 12992
25, 324633, Pitch_bend_c, 11, 13024
25, 324635, Pitch_bend_c, 11, 13056
25, 324635, Pitch_bend_c, 11, 13088
25, 324636, Pitch_bend_c, 11, 13120
25, 324637, Pitch_bend_c, 11, 13152
25, 324638, Pitch_bend_c, 11, 13184
25, 324639, Pitch_bend_c, 11, 13216
25, 324639, Pitch_bend_c, 11, 13248
25, 324640, Pitch_bend_c, 11, 13280
25, 324641, Pitch_bend_c, 11, 13312
25, 324642, Pitch_bend_c, 11, 13344
25, 324643, Pitch_bend_c, 11, 13376
25, 324643, Pitch_bend_c, 11, 13408
25, 324645, Pitch_bend_c, 11, 13440
25, 324645, Pitch_bend_c, 11, 13472
25, 324646, Pitch_bend_c, 11, 13504
25, 324646, Pitch_bend_c, 11, 13536
25, 324648, Pitch_bend_c, 11, 13568
25, 324648, Pitch_bend_c, 11, 13600
25, 324649, Pitch_bend_c, 11, 13632
25, 324650, Pitch_bend_c, 11, 13664
25, 324651, Pitch_bend_c, 11, 13696
25, 324651, Pitch_bend_c, 11, 13728
25, 324652, Pitch_bend_c, 11, 13760
25, 324653, Pitch_bend_c, 11, 13792
25, 324654, Pitch_bend_c, 11, 13824
25, 324655, Pitch_bend_c, 11, 13856
25, 324656, Pitch_bend_c, 11, 13888
25, 324656, Pitch_bend_c, 11, 13920
25, 324658, Pitch_bend_c, 11, 13952
25, 324658, Pitch_bend_c, 11, 13984
25, 324659, Pitch_bend_c, 11, 14016
25, 324660, Pitch_bend_c, 11, 14048
25, 324661, Pitch_bend_c, 11, 14080
25, 324661, Pitch_bend_c, 11, 14112
25, 324662, Pitch_bend_c, 11, 14144
25, 324663, Pitch_bend_c, 11, 14176
25, 324664, Pitch_bend_c, 11, 14208
25, 324665, Pitch_bend_c, 11, 14240
25, 324665, Pitch_bend_c, 11, 14272
25, 324666, Pitch_bend_c, 11, 14304
25, 324667, Pitch_bend_c, 11, 14336
25, 324668, Pitch_bend_c, 11, 14368
25, 324669, Pitch_bend_c, 11, 14400
25, 324670, Pitch_bend_c, 11, 14432
25, 324671, Pitch_bend_c, 11, 14464
25, 324671, Pitch_bend_c, 11, 14496
25, 324672, Pitch_bend_c, 11, 14528
25, 324673, Pitch_bend_c, 11, 14560
25, 324673, Pitch_bend_c, 11, 14592
25, 324675, Pitch_bend_c, 11, 14624
25, 324675, Pitch_bend_c, 11, 14656
25, 324676, Pitch_bend_c, 11, 14688
25, 324676, Pitch_bend_c, 11, 14720
25, 324678, Pitch_bend_c, 11, 14752
25, 324678, Pitch_bend_c, 11, 14784
25, 324680, Pitch_bend_c, 11, 14816
25, 324680, Pitch_bend_c, 11, 14848
25, 324681, Pitch_bend_c, 11, 14880
25, 324682, Pitch_bend_c, 11, 14912
25, 324683, Pitch_bend_c, 11, 14944
25, 324683, Pitch_bend_c, 11, 14976
25, 324684, Pitch_bend_c, 11, 15008
25, 324685, Pitch_bend_c, 11, 15040
25, 324686, Pitch_bend_c, 11, 15072
25, 324686, Pitch_bend_c, 11, 15104
25, 324688, Pitch_bend_c, 11, 15136
25, 324688, Pitch_bend_c, 11, 15168
25, 324690, Pitch_bend_c, 11, 15200
25, 324690, Pitch_bend_c, 11, 15232
25, 324691, Pitch_bend_c, 11, 15264
25, 324691, Pitch_bend_c, 11, 15296
25, 324693, Pitch_bend_c, 11, 15328
25, 324693, Pitch_bend_c, 11, 15360
25, 324694, Pitch_bend_c, 11, 15392
25, 324695, Pitch_bend_c, 11, 15424
25, 324696, Pitch_bend_c, 11, 15456
25, 324696, Pitch_bend_c, 11, 15488
25, 324697, Pitch_bend_c, 11, 15520
25, 324698, Pitch_bend_c, 11, 15552
25, 324699, Pitch_bend_c, 11, 15584
25, 324700, Pitch_bend_c, 11, 15616
25, 324701, Pitch_bend_c, 11, 15648
25, 324701, Pitch_bend_c, 11, 15680
25, 324702, Pitch_bend_c, 11, 15712
25, 324703, Pitch_bend_c, 11, 15744
25, 324704, Pitch_bend_c, 11, 15776
25, 324705, Pitch_bend_c, 11, 15808
25, 324705, Pitch_bend_c, 11, 15840
25, 324706, Pitch_bend_c, 11, 15872
25, 324707, Pitch_bend_c, 11, 15904
25, 324708, Pitch_bend_c, 11, 15936
25, 324708, Pitch_bend_c, 11, 15968
25, 324710, Pitch_bend_c, 11, 16000
25, 324710, Pitch_bend_c, 11, 16032
25, 324711, Pitch_bend_c, 11, 16064
25, 324712, Pitch_bend_c, 11, 16096
25, 324713, Pitch_bend_c, 11, 16128
25, 324714, Pitch_bend_c, 11, 16160
25, 324715, Pitch_bend_c, 11, 16192
25, 324715, Pitch_bend_c, 11, 16224
25, 324716, Pitch_bend_c, 11, 16256
25, 324717, Pitch_bend_c, 11, 16288
25, 324718, Pitch_bend_c, 11, 16320
25, 324718, Pitch_bend_c, 11, 16352
25, 324720, Program_c, 11, 44
25, 324720, Pitch_bend_c, 11, 8192
25, 324733, Note_on_c, 11, 96, 106
25, 324742, Note_on_c, 11, 84, 0
25, 325453, Note_on_c, 11, 96, 0
25, 325453, Note_on_c, 11, 93, 95
25, 326165, Note_on_c, 11, 90, 99
25, 326173, Note_on_c, 11, 93, 0
25, 326885, Note_on_c, 11, 90, 0
25, 326902, Note_on_c, 11, 87, 111
25, 327611, Note_on_c, 11, 93, 94
25, 327622, Note_on_c, 11, 87, 0
25, 328331, Note_on_c, 11, 93, 0
25, 328339, Note_on_c, 11, 86, 92
25, 329056, Note_on_c, 11, 87, 106
25, 329059, Note_on_c, 11, 86, 0
25, 329776, Note_on_c, 11, 87, 0
25, 329778, Note_on_c, 11, 80, 100
25, 330498, Note_on_c, 11, 80, 0
25, 330500, Note_on_c, 11, 81, 96
25, 331220, Note_on_c, 11, 81, 0
25, 338640, Program_c, 11, 48
25, 339848, Note_on_c, 11, 68, 86
25, 339849, Note_on_c, 11, 84, 104
25, 339858, Note_on_c, 11, 77, 88
25, 339991, Note_on_c, 11, 68, 0
25, 339992, Note_on_c, 11, 84, 0
25, 340001, Note_on_c, 11, 77, 0
25, 346096, Note_on_c, 11, 68, 91
25, 346098, Note_on_c, 11, 77, 86
25, 346104, Note_on_c, 11, 84, 102
25, 346239, Note_on_c, 11, 68, 0
25, 346241, Note_on_c, 11, 77, 0
25, 346247, Note_on_c, 11, 84, 0
25, 348006, Note_on_c, 11, 77, 96
25, 348010, Note_on_c, 11, 88, 85
25, 348022, Note_on_c, 11, 68, 91
25, 348149, Note_on_c, 11, 77, 0
25, 348153, Note_on_c, 11, 88, 0
25, 348165, Note_on_c, 11, 68, 0
25, 348490, Note_on_c, 11, 77, 97
25, 348492, Note_on_c, 11, 68, 101
25, 348504, Note_on_c, 11, 84, 86
25, 348633, Note_on_c, 11, 77, 0
25, 348635, Note_on_c, 11, 68, 0
25, 348647, Note_on_c, 11, 84, 0
25, 348982, Note_on_c, 11, 72, 60
25, 349174, Note_on_c, 11, 72, 0
25, 349210, Note_on_c, 11, 77, 71
25, 349213, Note_on_c, 11, 72, 71
25, 349405, Note_on_c, 11, 72, 0
25, 349443, Note_on_c, 11, 72, 103
25, 349450, Note_on_c, 11, 77, 0
25, 349461, Note_on_c, 11, 79, 94
25, 349635, Note_on_c, 11, 72, 0
25, 349685, Note_on_c, 11, 72, 86
25, 349687, Note_on_c, 11, 84, 98
25, 349701, Note_on_c, 11, 79, 0
25, 349877, Note_on_c, 11, 72, 0
25, 349922, Note_on_c, 11, 82, 74
25, 349927, Note_on_c, 11, 84, 0
25, 349943, Note_on_c, 11, 72, 85
25, 350135, Note_on_c, 11, 72, 0
25, 350162, Note_on_c, 11, 82, 0
25, 350179, Note_on_c, 11, 79, 73
25, 350184, Note_on_c, 11, 72, 57
25, 350376, Note_on_c, 11, 72, 0
25, 350413, Note_on_c, 11, 72, 64
25, 350419, Note_on_c, 11, 79, 0
25, 350605, Note_on_c, 11, 72, 0
25, 350653, Note_on_c, 11, 77, 83
25, 350655, Note_on_c, 11, 72, 80
25, 350847, Note_on_c, 11, 72, 0
25, 350887, Note_on_c, 11, 72, 87
25, 350893, Note_on_c, 11, 77, 0
25, 350901, Note_on_c, 11, 79, 94
25, 351079, Note_on_c, 11, 72, 0
25, 351124, Note_on_c, 11, 72, 95
25, 351138, Note_on_c, 11, 84, 88
25, 351141, Note_on_c, 11, 79, 0
25, 351316, Note_on_c, 11, 72, 0
25, 351372, Note_on_c, 11, 82, 69
25, 351378, Note_on_c, 11, 84, 0
25, 351381, Note_on_c, 11, 72, 84
25, 351573, Note_on_c, 11, 72, 0
25, 351609, Note_on_c, 11, 79, 67
25, 351612, Note_on_c, 11, 82, 0
25, 351620, Note_on_c, 11, 72, 67
25, 351812, Note_on_c, 11, 72, 0
25, 351849, Note_on_c, 11, 79, 0
25, 352320, Note_on_c, 11, 77, 88
25, 352324, Note_on_c, 11, 68, 86
25, 352345, Note_on_c, 11, 84, 99
25, 352463, Note_on_c, 11, 77, 0
25, 352467, Note_on_c, 11, 68, 0
25, 352488, Note_on_c, 11, 84, 0
25, 352821, Note_on_c, 11, 72, 73
25, 353013, Note_on_c, 11, 72, 0
25, 353041, Note_on_c, 11, 72, 70
25, 353051, Note_on_c, 11, 77, 87
25, 353233, Note_on_c, 11, 72, 0
25, 353291, Note_on_c, 11, 77, 0
25, 353293, Note_on_c, 11, 72, 99
25, 353305, Note_on_c, 11, 79, 99
25, 353485, Note_on_c, 11, 72, 0
25, 353527, Note_on_c, 11, 84, 88
25, 353533, Note_on_c, 11, 72, 99
25, 353545, Note_on_c, 11, 79, 0
25, 353725, Note_on_c, 11, 72, 0
25, 353760, Note_on_c, 11, 72, 74
25, 353767, Note_on_c, 11, 84, 0
25, 353780, Note_on_c, 11, 82, 79
25, 353952, Note_on_c, 11, 72, 0
25, 354016, Note_on_c, 11, 79, 61
25, 354018, Note_on_c, 11, 72, 62
25, 354020, Note_on_c, 11, 82, 0
25, 354210, Note_on_c, 11, 72, 0
25, 354255, Note_on_c, 11, 88, 94
25, 354256, Note_on_c, 11, 79, 0
25, 354377, Note_on_c, 11, 87, 92
25, 354435, Note_on_c, 11, 88, 0
25, 354488, Note_on_c, 11, 88, 102
25, 354557, Note_on_c, 11, 87, 0
25, 354612, Note_on_c, 11, 87, 95
25, 354668, Note_on_c, 11, 88, 0
25, 354745, Note_on_c, 11, 88, 100
25, 354792, Note_on_c, 11, 87, 0
25, 354848, Note_on_c, 11, 87, 107
25, 354925, Note_on_c, 11, 88, 0
25, 354963, Note_on_c, 11, 88, 101
25, 355028, Note_on_c, 11, 87, 0
25, 355099, Note_on_c, 11, 87, 96
25, 355143, Note_on_c, 11, 88, 0
25, 355212, Note_on_c, 11, 88, 104
25, 355279, Note_on_c, 11, 87, 0
25, 355345, Note_on_c, 11, 87, 91
25, 355392, Note_on_c, 11, 88, 0
25, 355457, Note_on_c, 11, 88, 98
25, 355525, Note_on_c, 11, 87, 0
25, 355560, Note_on_c, 11, 87, 100
25, 355637, Note_on_c, 11, 88, 0
25, 355694, Note_on_c, 11, 88, 106
25, 355740, Note_on_c, 11, 87, 0
25, 355818, Note_on_c, 11, 87, 106
25, 355874, Note_on_c, 11, 88, 0
25, 355933, Note_on_c, 11, 88, 100
25, 355998, Note_on_c, 11, 87, 0
25, 356059, Note_on_c, 11, 87, 98
25, 356113, Note_on_c, 11, 88, 0
25, 356166, Note_on_c, 11, 88, 106
25, 356239, Note_on_c, 11, 87, 0
25, 356293, Note_on_c, 11, 87, 102
25, 356346, Note_on_c, 11, 88, 0
25, 356415, Note_on_c, 11, 88, 100
25, 356473, Note_on_c, 11, 87, 0
25, 356545, Note_on_c, 11, 87, 98
25, 356595, Note_on_c, 11, 88, 0
25, 356644, Note_on_c, 11, 88, 101
25, 356725, Note_on_c, 11, 87, 0
25, 356781, Note_on_c, 11, 87, 103
25, 356824, Note_on_c, 11, 88, 0
25, 356886, Note_on_c, 11, 88, 102
25, 356961, Note_on_c, 11, 87, 0
25, 357016, Note_on_c, 11, 87, 100
25, 357066, Note_on_c, 11, 88, 0
25, 357140, Note_on_c, 11, 88, 92
25, 357196, Note_on_c, 11, 87, 0
25, 357258, Note_on_c, 11, 87, 98
25, 357320, Note_on_c, 11, 88, 0
25, 357384, Note_on_c, 11, 88, 105
25, 357438, Note_on_c, 11, 87, 0
25, 357497, Note_on_c, 11, 87, 93
25, 357564, Note_on_c, 11, 88, 0
25, 357600, Note_on_c, 11, 88, 102
25, 357677, Note_on_c, 11, 87, 0
25, 357733, Note_on_c, 11, 87, 94
25, 357780, Note_on_c, 11, 88, 0
25, 357860, Note_on_c, 11, 88, 94
25, 357913, Note_on_c, 11, 87, 0
25, 357968, Note_on_c, 11, 87, 101
25, 358040, Note_on_c, 11, 88, 0
25, 358082, Note_on_c, 11, 88, 95
25, 358148, Note_on_c, 11, 87, 0
25, 358188, Note_on_c, 11, 88, 0
25, 384480, Program_c, 11, 49
25, 384483, Control_c, 11, 11, 1
25, 384491, Control_c, 11, 11, 2
25, 384498, Control_c, 11, 11, 3
25, 384506, Control_c, 11, 11, 4
25, 384515, Control_c, 11, 11, 5
25, 384522, Control_c, 11, 11, 6
25, 384530, Control_c, 11, 11, 7
25, 384538, Control_c, 11, 11, 8
25, 384546, Control_c, 11, 11, 9
25, 384554, Control_c, 11, 11, 10
25, 384562, Control_c, 11, 11, 11
25, 384570, Control_c, 11, 11, 12
25, 384578, Control_c, 11, 11, 13
25, 384586, Control_c, 11, 11, 14
25, 384594, Control_c, 11, 11, 15
25, 384601, Control_c, 11, 11, 16
25, 384610, Control_c, 11, 11, 17
25, 384617, Control_c, 11, 11, 18
25, 384625, Control_c, 11, 11, 19
25, 384633, Control_c, 11, 11, 20
25, 384641, Control_c, 11, 11, 21
25, 384649, Control_c, 11, 11, 22
25, 384657, Control_c, 11, 11, 23
25, 384665, Control_c, 11, 11, 24
25, 384673, Control_c, 11, 11, 25
25, 384681, Control_c, 11, 11, 26
25, 384689, Control_c, 11, 11, 27
25, 384697, Control_c, 11, 11, 28
25, 384705, Control_c, 11, 11, 29
25, 384712, Control_c, 11, 11, 30
25, 384720, Control_c, 11, 11, 31
25, 384728, Control_c, 11, 11, 32
25, 384734, Note_on_c, 11, 75, 80
25, 384736, Control_c, 11, 11, 33
25, 384737, Note_on_c, 11, 70, 80
25, 384744, Control_c, 11, 11, 34
25, 384752, Control_c, 11, 11, 35
25, 384760, Control_c, 11, 11, 36
25, 384768, Control_c, 11, 11, 37
25, 384776, Control_c, 11, 11, 38
25, 384784, Control_c, 11, 11, 39
25, 384792, Control_c, 11, 11, 40
25, 384800, Control_c, 11, 11, 41
25, 384808, Control_c, 11, 11, 42
25, 384815, Control_c, 11, 11, 43
25, 384823, Control_c, 11, 11, 44
25, 384831, Control_c, 11, 11, 45
25, 384840, Control_c, 11, 11, 46
25, 384847, Control_c, 11, 11, 47
25, 384855, Control_c, 11, 11, 48
25, 384863, Control_c, 11, 11, 49
25, 384871, Control_c, 11, 11, 50
25, 384879, Control_c, 11, 11, 51
25, 384886, Control_c, 11, 11, 52
25, 384895, Control_c, 11, 11, 53
25, 384903, Control_c, 11, 11, 54
25, 384911, Control_c, 11, 11, 55
25, 384918, Control_c, 11, 11, 56
25, 384926, Control_c, 11, 11, 57
25, 384935, Control_c, 11, 11, 58
25, 384943, Control_c, 11, 11, 59
25, 384950, Control_c, 11, 11, 60
25, 384958, Control_c, 11, 11, 61
25, 384966, Control_c, 11, 11, 62
25, 384975, Control_c, 11, 11, 63
25, 384982, Control_c, 11, 11, 64
25, 384990, Control_c, 11, 11, 65
25, 384998, Control_c, 11, 11, 66
25, 385006, Control_c, 11, 11, 67
25, 385014, Control_c, 11, 11, 68
25, 385021, Control_c, 11, 11, 69
25, 385030, Control_c, 11, 11, 70
25, 385038, Control_c, 11, 11, 71
25, 385046, Control_c, 11, 11, 72
25, 385053, Control_c, 11, 11, 73
25, 385061, Control_c, 11, 11, 74
25, 385070, Control_c, 11, 11, 75
25, 385077, Control_c, 11, 11, 76
25, 385085, Control_c, 11, 11, 77
25, 385093, Control_c, 11, 11, 78
25, 385101, Control_c, 11, 11, 79
25, 385109, Control_c, 11, 11, 80
25, 385117, Control_c, 11, 11, 81
25, 385125, Control_c, 11, 11, 82
25, 385133, Control_c, 11, 11, 83
25, 385141, Control_c, 11, 11, 84
25, 385149, Control_c, 11, 11, 85
25, 385156, Control_c, 11, 11, 86
25, 385164, Control_c, 11, 11, 87
25, 385172, Control_c, 11, 11, 88
25, 385180, Control_c, 11, 11, 89
25, 385188, Control_c, 11, 11, 90
25, 385196, Control_c, 11, 11, 91
25, 385204, Control_c, 11, 11, 92
25, 385212, Control_c, 11, 11, 93
25, 385220, Control_c, 11, 11, 94
25, 385228, Control_c, 11, 11, 95
25, 385236, Control_c, 11, 11, 96
25, 385244, Control_c, 11, 11, 97
25, 385252, Control_c, 11, 11, 98
25, 385260, Control_c, 11, 11, 99
25, 385267, Control_c, 11, 11, 100
25, 385275, Control_c, 11, 11, 101
25, 385283, Control_c, 11, 11, 102
25, 385291, Control_c, 11, 11, 103
25, 385299, Control_c, 11, 11, 104
25, 385307, Control_c, 11, 11, 105
25, 385315, Control_c, 11, 11, 106
25, 385323, Control_c, 11, 11, 107
25, 385331, Control_c, 11, 11, 108
25, 385339, Control_c, 11, 11, 109
25, 385346, Control_c, 11, 11, 110
25, 385355, Control_c, 11, 11, 111
25, 385363, Control_c, 11, 11, 112
25, 385370, Control_c, 11, 11, 113
25, 385378, Control_c, 11, 11, 114
25, 385386, Control_c, 11, 11, 115
25, 385395, Control_c, 11, 11, 116
25, 385402, Control_c, 11, 11, 117
25, 385410, Control_c, 11, 11, 118
25, 385418, Control_c, 11, 11, 119
25, 385426, Control_c, 11, 11, 120
25, 385434, Control_c, 11, 11, 121
25, 385441, Control_c, 11, 11, 122
25, 385450, Control_c, 11, 11, 123
25, 385458, Control_c, 11, 11, 124
25, 385466, Control_c, 11, 11, 125
25, 385473, Control_c, 11, 11, 126
25, 386414, Note_on_c, 11, 75, 0
25, 386417, Note_on_c, 11, 70, 0
25, 390240, Control_c, 11, 11, 0
25, 390255, Control_c, 11, 11, 1
25, 390270, Control_c, 11, 11, 2
25, 390285, Control_c, 11, 11, 3
25, 390300, Control_c, 11, 11, 4
25, 390315, Control_c, 11, 11, 5
25, 390330, Control_c, 11, 11, 6
25, 390345, Control_c, 11, 11, 7
25, 390360, Control_c, 11, 11, 8
25, 390375, Control_c, 11, 11, 9
25, 390391, Control_c, 11, 11, 10
25, 390406, Control_c, 11, 11, 11
25, 390421, Control_c, 11, 11, 12
25, 390436, Control_c, 11, 11, 13
25, 390451, Control_c, 11, 11, 14
25, 390466, Control_c, 11, 11, 15
25, 390481, Note_on_c, 11, 70, 77
25, 390481, Control_c, 11, 11, 16
25, 390482, Note_on_c, 11, 75, 69
25, 390496, Control_c, 11, 11, 17
25, 390511, Control_c, 11, 11, 18
25, 390526, Control_c, 11, 11, 19
25, 390541, Control_c, 11, 11, 20
25, 390556, Control_c, 11, 11, 21
25, 390572, Control_c, 11, 11, 22
25, 390587, Control_c, 11, 11, 23
25, 390602, Control_c, 11, 11, 24
25, 390617, Control_c, 11, 11, 25
25, 390633, Control_c, 11, 11, 26
25, 390648, Control_c, 11, 11, 27
25, 390663, Control_c, 11, 11, 28
25, 390678, Control_c, 11, 11, 29
25, 390693, Control_c, 11, 11, 30
25, 390708, Control_c, 11, 11, 31
25, 390723, Control_c, 11, 11, 32
25, 390738, Control_c, 11, 11, 33
25, 390753, Control_c, 11, 11, 34
25, 390768, Control_c, 11, 11, 35
25, 390783, Control_c, 11, 11, 36
25, 390798, Control_c, 11, 11, 37
25, 390814, Control_c, 11, 11, 38
25, 390829, Control_c, 11, 11, 39
25, 390844, Control_c, 11, 11, 40
25, 390859, Control_c, 11, 11, 41
25, 390875, Control_c, 11, 11, 42
25, 390890, Control_c, 11, 11, 43
25, 390905, Control_c, 11, 11, 44
25, 390920, Control_c, 11, 11, 45
25, 390935, Control_c, 11, 11, 46
25, 390950, Control_c, 11, 11, 47
25, 390965, Control_c, 11, 11, 48
25, 390980, Control_c, 11, 11, 49
25, 390995, Control_c, 11, 11, 50
25, 391010, Control_c, 11, 11, 51
25, 391025, Control_c, 11, 11, 52
25, 391040, Control_c, 11, 11, 53
25, 391056, Control_c, 11, 11, 54
25, 391071, Control_c, 11, 11, 55
25, 391086, Control_c, 11, 11, 56
25, 391101, Control_c, 11, 11, 57
25, 391116, Control_c, 11, 11, 58
25, 391131, Control_c, 11, 11, 59
25, 391146, Control_c, 11, 11, 60
25, 391161, Control_c, 11, 11, 61
25, 391177, Control_c, 11, 11, 62
25, 391192, Control_c, 11, 11, 63
25, 391207, Control_c, 11, 11, 64
25, 391222, Control_c, 11, 11, 65
25, 391237, Control_c, 11, 11, 66
25, 391252, Control_c, 11, 11, 67
25, 391267, Control_c, 11, 11, 68
25, 391282, Control_c, 11, 11, 69
25, 391298, Control_c, 11, 11, 70
25, 391313, Control_c, 11, 11, 71
25, 391328, Control_c, 11, 11, 72
25, 391343, Control_c, 11, 11, 73
25, 391358, Control_c, 11, 11, 74
25, 391373, Control_c, 11, 11, 75
25, 391388, Control_c, 11, 11, 76
25, 391403, Control_c, 11, 11, 77
25, 391419, Control_c, 11, 11, 78
25, 391434, Control_c, 11, 11, 79
25, 391449, Control_c, 11, 11, 80
25, 391464, Control_c, 11, 11, 81
25, 391479, Control_c, 11, 11, 82
25, 391494, Control_c, 11, 11, 83
25, 391509, Control_c, 11, 11, 84
25, 391524, Control_c, 11, 11, 85
25, 391540, Control_c, 11, 11, 86
25, 391555, Control_c, 11, 11, 87
25, 391570, Control_c, 11, 11, 88
25, 391585, Control_c, 11, 11, 89
25, 391600, Control_c, 11, 11, 90
25, 391615, Control_c, 11, 11, 91
25, 391630, Control_c, 11, 11, 92
25, 391645, Control_c, 11, 11, 93
25, 391661, Control_c, 11, 11, 94
25, 391676, Control_c, 11, 11, 95
25, 391691, Control_c, 11, 11, 96
25, 391706, Control_c, 11, 11, 97
25, 391721, Control_c, 11, 11, 98
25, 391736, Control_c, 11, 11, 99
25, 391751, Control_c, 11, 11, 100
25, 391766, Control_c, 11, 11, 101
25, 391781, Control_c, 11, 11, 102
25, 391796, Control_c, 11, 11, 103
25, 391811, Control_c, 11, 11, 104
25, 391826, Control_c, 11, 11, 105
25, 391842, Control_c, 11, 11, 106
25, 391857, Control_c, 11, 11, 107
25, 391872, Control_c, 11, 11, 108
25, 391887, Control_c, 11, 11, 109
25, 391903, Control_c, 11, 11, 110
25, 391918, Control_c, 11, 11, 111
25, 391933, Control_c, 11, 11, 112
25, 391948, Control_c, 11, 11, 113
25, 391963, Control_c, 11, 11, 114
25, 391978, Control_c, 11, 11, 115
25, 391993, Control_c, 11, 11, 116
25, 392008, Control_c, 11, 11, 117
25, 392023, Control_c, 11, 11, 118
25, 392038, Control_c, 11, 11, 119
25, 392053, Control_c, 11, 11, 120
25, 392068, Control_c, 11, 11, 121
25, 392084, Control_c, 11, 11, 122
25, 392099, Control_c, 11, 11, 123
25, 392114, Control_c, 11, 11, 124
25, 392129, Control_c, 11, 11, 125
25, 392145, Control_c, 11, 11, 126
25, 393841, Note_on_c, 11, 70, 0
25, 393842, Note_on_c, 11, 75, 0
25, 419520, Control_c, 11, 11, 0
25, 419535, Control_c, 11, 11, 1
25, 419550, Control_c, 11, 11, 2
25, 419565, Control_c, 11, 11, 3
25, 419580, Control_c, 11, 11, 4
25, 419595, Control_c, 11, 11, 5
25, 419610, Control_c, 11, 11, 6
25, 419625, Control_c, 11, 11, 7
25, 419640, Control_c, 11, 11, 8
25, 419655, Control_c, 11, 11, 9
25, 419671, Control_c, 11, 11, 10
25, 419686, Control_c, 11, 11, 11
25, 419701, Control_c, 11, 11, 12
25, 419716, Control_c, 11, 11, 13
25, 419731, Control_c, 11, 11, 14
25, 419746, Control_c, 11, 11, 15
25, 419761, Note_on_c, 11, 70, 67
25, 419761, Control_c, 11, 11, 16
25, 419774, Note_on_c, 11, 75, 76
25, 419776, Control_c, 11, 11, 17
25, 419791, Control_c, 11, 11, 18
25, 419806, Control_c, 11, 11, 19
25, 419821, Control_c, 11, 11, 20
25, 419836, Control_c, 11, 11, 21
25, 419852, Control_c, 11, 11, 22
25, 419867, Control_c, 11, 11, 23
25, 419882, Control_c, 11, 11, 24
25, 419897, Control_c, 11, 11, 25
25, 419913, Control_c, 11, 11, 26
25, 419928, Control_c, 11, 11, 27
25, 419943, Control_c, 11, 11, 28
25, 419958, Control_c, 11, 11, 29
25, 419973, Control_c, 11, 11, 30
25, 419988, Control_c, 11, 11, 31
25, 420003, Control_c, 11, 11, 32
25, 420018, Control_c, 11, 11, 33
25, 420033, Control_c, 11, 11, 34
25, 420048, Control_c, 11, 11, 35
25, 420063, Control_c, 11, 11, 36
25, 420078, Control_c, 11, 11, 37
25, 420094, Control_c, 11, 11, 38
25, 420109, Control_c, 11, 11, 39
25, 420124, Control_c, 11, 11, 40
25, 420139, Control_c, 11, 11, 41
25, 420155, Control_c, 11, 11, 42
25, 420170, Control_c, 11, 11, 43
25, 420185, Control_c, 11, 11, 44
25, 420200, Control_c, 11, 11, 45
25, 420215, Control_c, 11, 11, 46
25, 420230, Control_c, 11, 11, 47
25, 420245, Control_c, 11, 11, 48
25, 420260, Control_c, 11, 11, 49
25, 420275, Control_c, 11, 11, 50
25, 420290, Control_c, 11, 11, 51
25, 420305, Control_c, 11, 11, 52
25, 420320, Control_c, 11, 11, 53
25, 420336, Control_c, 11, 11, 54
25, 420351, Control_c, 11, 11, 55
25, 420366, Control_c, 11, 11, 56
25, 420381, Control_c, 11, 11, 57
25, 420396, Control_c, 11, 11, 58
25, 420411, Control_c, 11, 11, 59
25, 420426, Control_c, 11, 11, 60
25, 420441, Control_c, 11, 11, 61
25, 420457, Control_c, 11, 11, 62
25, 420472, Control_c, 11, 11, 63
25, 420487, Control_c, 11, 11, 64
25, 420502, Control_c, 11, 11, 65
25, 420517, Control_c, 11, 11, 66
25, 420532, Control_c, 11, 11, 67
25, 420547, Control_c, 11, 11, 68
25, 420562, Control_c, 11, 11, 69
25, 420578, Control_c, 11, 11, 70
25, 420593, Control_c, 11, 11, 71
25, 420608, Control_c, 11, 11, 72
25, 420623, Control_c, 11, 11, 73
25, 420638, Control_c, 11, 11, 74
25, 420653, Control_c, 11, 11, 75
25, 420668, Control_c, 11, 11, 76
25, 420683, Control_c, 11, 11, 77
25, 420699, Control_c, 11, 11, 78
25, 420714, Control_c, 11, 11, 79
25, 420729, Control_c, 11, 11, 80
25, 420744, Control_c, 11, 11, 81
25, 420759, Control_c, 11, 11, 82
25, 420774, Control_c, 11, 11, 83
25, 420789, Control_c, 11, 11, 84
25, 420804, Control_c, 11, 11, 85
25, 420820, Control_c, 11, 11, 86
25, 420835, Control_c, 11, 11, 87
25, 420850, Control_c, 11, 11, 88
25, 420865, Control_c, 11, 11, 89
25, 420880, Control_c, 11, 11, 90
25, 420895, Control_c, 11, 11, 91
25, 420910, Control_c, 11, 11, 92
25, 420925, Control_c, 11, 11, 93
25, 420941, Control_c, 11, 11, 94
25, 420956, Control_c, 11, 11, 95
25, 420971, Control_c, 11, 11, 96
25, 420986, Control_c, 11, 11, 97
25, 421001, Control_c, 11, 11, 98
25, 421016, Control_c, 11, 11, 99
25, 421031, Control_c, 11, 11, 100
25, 421046, Control_c, 11, 11, 101
25, 421061, Control_c, 11, 11, 102
25, 421076, Control_c, 11, 11, 103
25, 421091, Control_c, 11, 11, 104
25, 421106, Control_c, 11, 11, 105
25, 421122, Control_c, 11, 11, 106
25, 421137, Control_c, 11, 11, 107
25, 421152, Control_c, 11, 11, 108
25, 421167, Control_c, 11, 11, 109
25, 421183, Control_c, 11, 11, 110
25, 421198, Control_c, 11, 11, 111
25, 421213, Control_c, 11, 11, 112
25, 421228, Control_c, 11, 11, 113
25, 421243, Control_c, 11, 11, 114
25, 421258, Control_c, 11, 11, 115
25, 421273, Control_c, 11, 11, 116
25, 421288, Control_c, 11, 11, 117
25, 421303, Control_c, 11, 11, 118
25, 421318, Control_c, 11, 11, 119
25, 421333, Control_c, 11, 11, 120
25, 421348, Control_c, 11, 11, 121
25, 421364, Control_c, 11, 11, 122
25, 421379, Control_c, 11, 11, 123
25, 421394, Control_c, 11, 11, 124
25, 421409, Control_c, 11, 11, 125
25, 421425, Control_c, 11, 11, 126
25, 421681, Note_on_c, 11, 70, 0
25, 421694, Note_on_c, 11, 75, 0
25, 423360, Control_c, 11, 11, 0
25, 423375, Control_c, 11, 11, 1
25, 423390, Control_c, 11, 11, 2
25, 423405, Control_c, 11, 11, 3
25, 423420, Control_c, 11, 11, 4
25, 423435, Control_c, 11, 11, 5
25, 423450, Control_c, 11, 11, 6
25, 423465, Control_c, 11, 11, 7
25, 423480, Control_c, 11, 11, 8
25, 423495, Control_c, 11, 11, 9
25, 423511, Control_c, 11, 11, 10
25, 423526, Control_c, 11, 11, 11
25, 423541, Control_c, 11, 11, 12
25, 423556, Control_c, 11, 11, 13
25, 423571, Control_c, 11, 11, 14
25, 423586, Control_c, 11, 11, 15
25, 423601, Control_c, 11, 11, 16
25, 423603, Note_on_c, 11, 70, 83
25, 423616, Control_c, 11, 11, 17
25, 423619, Note_on_c, 11, 75, 82
25, 423631, Control_c, 11, 11, 18
25, 423646, Control_c, 11, 11, 19
25, 423661, Control_c, 11, 11, 20
25, 423676, Control_c, 11, 11, 21
25, 423692, Control_c, 11, 11, 22
25, 423707, Control_c, 11, 11, 23
25, 423722, Control_c, 11, 11, 24
25, 423737, Control_c, 11, 11, 25
25, 423753, Control_c, 11, 11, 26
25, 423768, Control_c, 11, 11, 27
25, 423783, Control_c, 11, 11, 28
25, 423798, Control_c, 11, 11, 29
25, 423813, Control_c, 11, 11, 30
25, 423828, Control_c, 11, 11, 31
25, 423843, Control_c, 11, 11, 32
25, 423858, Control_c, 11, 11, 33
25, 423873, Control_c, 11, 11, 34
25, 423888, Control_c, 11, 11, 35
25, 423903, Control_c, 11, 11, 36
25, 423918, Control_c, 11, 11, 37
25, 423934, Control_c, 11, 11, 38
25, 423949, Control_c, 11, 11, 39
25, 423964, Control_c, 11, 11, 40
25, 423979, Control_c, 11, 11, 41
25, 423995, Control_c, 11, 11, 42
25, 424010, Control_c, 11, 11, 43
25, 424025, Control_c, 11, 11, 44
25, 424040, Control_c, 11, 11, 45
25, 424055, Control_c, 11, 11, 46
25, 424070, Control_c, 11, 11, 47
25, 424085, Control_c, 11, 11, 48
25, 424100, Control_c, 11, 11, 49
25, 424115, Control_c, 11, 11, 50
25, 424130, Control_c, 11, 11, 51
25, 424145, Control_c, 11, 11, 52
25, 424160, Control_c, 11, 11, 53
25, 424176, Control_c, 11, 11, 54
25, 424191, Control_c, 11, 11, 55
25, 424206, Control_c, 11, 11, 56
25, 424221, Control_c, 11, 11, 57
25, 424236, Control_c, 11, 11, 58
25, 424251, Control_c, 11, 11, 59
25, 424266, Control_c, 11, 11, 60
25, 424281, Control_c, 11, 11, 61
25, 424297, Control_c, 11, 11, 62
25, 424312, Control_c, 11, 11, 63
25, 424327, Control_c, 11, 11, 64
25, 424342, Control_c, 11, 11, 65
25, 424357, Control_c, 11, 11, 66
25, 424372, Control_c, 11, 11, 67
25, 424387, Control_c, 11, 11, 68
25, 424402, Control_c, 11, 11, 69
25, 424418, Control_c, 11, 11, 70
25, 424433, Control_c, 11, 11, 71
25, 424448, Control_c, 11, 11, 72
25, 424463, Control_c, 11, 11, 73
25, 424478, Control_c, 11, 11, 74
25, 424493, Control_c, 11, 11, 75
25, 424508, Control_c, 11, 11, 76
25, 424523, Control_c, 11, 11, 77
25, 424539, Control_c, 11, 11, 78
25, 424554, Control_c, 11, 11, 79
25, 424569, Control_c, 11, 11, 80
25, 424584, Control_c, 11, 11, 81
25, 424599, Control_c, 11, 11, 82
25, 424614, Control_c, 11, 11, 83
25, 424629, Control_c, 11, 11, 84
25, 424644, Control_c, 11, 11, 85
25, 424660, Control_c, 11, 11, 86
25, 424675, Control_c, 11, 11, 87
25, 424690, Control_c, 11, 11, 88
25, 424705, Control_c, 11, 11, 89
25, 424720, Control_c, 11, 11, 90
25, 424735, Control_c, 11, 11, 91
25, 424750, Control_c, 11, 11, 92
25, 424765, Control_c, 11, 11, 93
25, 424781, Control_c, 11, 11, 94
25, 424796, Control_c, 11, 11, 95
25, 424811, Control_c, 11, 11, 96
25, 424826, Control_c, 11, 11, 97
25, 424841, Control_c, 11, 11, 98
25, 424856, Control_c, 11, 11, 99
25, 424871, Control_c, 11, 11, 100
25, 424886, Control_c, 11, 11, 101
25, 424901, Control_c, 11, 11, 102
25, 424916, Control_c, 11, 11, 103
25, 424931, Control_c, 11, 11, 104
25, 424946, Control_c, 11, 11, 105
25, 424962, Control_c, 11, 11, 106
25, 424977, Control_c, 11, 11, 107
25, 424992, Control_c, 11, 11, 108
25, 425007, Control_c, 11, 11, 109
25, 425023, Control_c, 11, 11, 110
25, 425038, Control_c, 11, 11, 111
25, 425053, Control_c, 11, 11, 112
25, 425068, Control_c, 11, 11, 113
25, 425083, Control_c, 11, 11, 114
25, 425098, Control_c, 11, 11, 115
25, 425113, Control_c, 11, 11, 116
25, 425128, Control_c, 11, 11, 117
25, 425143, Control_c, 11, 11, 118
25, 425158, Control_c, 11, 11, 119
25, 425173, Control_c, 11, 11, 120
25, 425188, Control_c, 11, 11, 121
25, 425204, Control_c, 11, 11, 122
25, 425219, Control_c, 11, 11, 123
25, 425234, Control_c, 11, 11, 124
25, 425249, Control_c, 11, 11, 125
25, 425265, Control_c, 11, 11, 126
25, 426723, Note_on_c, 11, 70, 0
25, 426739, Note_on_c, 11, 75, 0
25, 427205, Note_on_c, 11, 82, 99
25, 427565, Note_on_c, 11, 82, 0
25, 427689, Note_on_c, 11, 82, 95
25, 428049, Note_on_c, 11, 82, 0
25, 428174, Note_on_c, 11, 82, 110
25, 428534, Note_on_c, 11, 82, 0
25, 428656, Note_on_c, 11, 84, 104
25, 428896, Note_on_c, 11, 84, 0
25, 428900, Note_on_c, 11, 85, 104
25, 429140, Note_on_c, 11, 85, 0
25, 429144, Note_on_c, 11, 87, 93
25, 429614, Note_on_c, 11, 85, 95
25, 429624, Note_on_c, 11, 87, 0
25, 430085, Note_on_c, 11, 84, 100
25, 430094, Note_on_c, 11, 85, 0
25, 430565, Note_on_c, 11, 84, 0
25, 430584, Note_on_c, 11, 82, 111
25, 430944, Note_on_c, 11, 82, 0
25, 431057, Note_on_c, 11, 82, 98
25, 431417, Note_on_c, 11, 82, 0
25, 431536, Note_on_c, 11, 84, 91
25, 431762, Note_on_c, 11, 85, 111
25, 431776, Note_on_c, 11, 84, 0
25, 432002, Note_on_c, 11, 85, 0
25, 432018, Note_on_c, 11, 87, 93
25, 432491, Note_on_c, 11, 82, 102
25, 432498, Note_on_c, 11, 87, 0
25, 432851, Note_on_c, 11, 82, 0
25, 432985, Note_on_c, 11, 82, 103
25, 433345, Note_on_c, 11, 82, 0
25, 433463, Note_on_c, 11, 82, 103
25, 433823, Note_on_c, 11, 82, 0
25, 433939, Note_on_c, 11, 84, 103
25, 434179, Note_on_c, 11, 84, 0
25, 434180, Note_on_c, 11, 85, 96
25, 434404, Note_on_c, 11, 87, 101
25, 434420, Note_on_c, 11, 85, 0
25, 434884, Note_on_c, 11, 87, 0
25, 435360, Note_on_c, 11, 82, 102
25, 435720, Note_on_c, 11, 82, 0
25, 435850, Note_on_c, 11, 82, 102
25, 436210, Note_on_c, 11, 82, 0
25, 436341, Note_on_c, 11, 82, 99
25, 436701, Note_on_c, 11, 82, 0
25, 436813, Note_on_c, 11, 70, 100
25, 436822, Note_on_c, 11, 82, 96
25, 436825, Note_on_c, 11, 66, 96
25, 437173, Note_on_c, 11, 70, 0
25, 437182, Note_on_c, 11, 82, 0
25, 437185, Note_on_c, 11, 66, 0
25, 437286, Note_on_c, 11, 82, 108
25, 437289, Note_on_c, 11, 66, 113
25, 437301, Note_on_c, 11, 70, 97
25, 437646, Note_on_c, 11, 82, 0
25, 437649, Note_on_c, 11, 66, 0
25, 437661, Note_on_c, 11, 70, 0
25, 437760, Note_on_c, 11, 66, 96
25, 437761, Note_on_c, 11, 82, 97
25, 437773, Note_on_c, 11, 70, 99
25, 438120, Note_on_c, 11, 66, 0
25, 438121, Note_on_c, 11, 82, 0
25, 438133, Note_on_c, 11, 70, 0
25, 438726, Note_on_c, 11, 83, 123
25, 439086, Note_on_c, 11, 83, 0
25, 439217, Note_on_c, 11, 83, 106
25, 439577, Note_on_c, 11, 83, 0
25, 439684, Note_on_c, 11, 83, 121
25, 440044, Note_on_c, 11, 83, 0
25, 440184, Note_on_c, 11, 84, 109
25, 440401, Note_on_c, 11, 85, 106
25, 440424, Note_on_c, 11, 84, 0
25, 440641, Note_on_c, 11, 85, 0
25, 440644, Note_on_c, 11, 87, 112
25, 442084, Note_on_c, 11, 87, 0
25, 442089, Note_on_c, 11, 84, 112
25, 442449, Note_on_c, 11, 84, 0
25, 442567, Note_on_c, 11, 84, 110
25, 442927, Note_on_c, 11, 84, 0
25, 443057, Note_on_c, 11, 84, 109
25, 443417, Note_on_c, 11, 84, 0
25, 443524, Note_on_c, 11, 84, 104
25, 443762, Note_on_c, 11, 85, 124
25, 443764, Note_on_c, 11, 84, 0
25, 444002, Note_on_c, 11, 85, 0
25, 444006, Note_on_c, 11, 87, 106
25, 444486, Note_on_c, 11, 87, 0
25, 444494, Note_on_c, 11, 84, 109
25, 444731, Note_on_c, 11, 85, 121
25, 444734, Note_on_c, 11, 84, 0
25, 444971, Note_on_c, 11, 85, 0
25, 444981, Note_on_c, 11, 87, 114
25, 445444, Note_on_c, 11, 82, 120
25, 445461, Note_on_c, 11, 87, 0
25, 445804, Note_on_c, 11, 82, 0
25, 445921, Note_on_c, 11, 82, 118
25, 446281, Note_on_c, 11, 82, 0
25, 446423, Note_on_c, 11, 84, 118
25, 446658, Note_on_c, 11, 85, 118
25, 446663, Note_on_c, 11, 84, 0
25, 446898, Note_on_c, 11, 85, 0
25, 446900, Note_on_c, 11, 87, 118
25, 447380, Note_on_c, 11, 87, 0
25, 448800, Program_c, 11, 48
25, 448803, Note_on_c, 11, 63, 89
25, 448803, Note_on_c, 11, 79, 86
25, 448810, Note_on_c, 11, 72, 101
25, 448923, Note_on_c, 11, 63, 0
25, 448923, Note_on_c, 11, 79, 0
25, 448930, Note_on_c, 11, 72, 0
25, 449160, Note_on_c, 11, 72, 87
25, 449190, Note_on_c, 11, 72, 0
25, 449190, Note_on_c, 11, 74, 86
25, 449220, Note_on_c, 11, 74, 0
25, 449220, Note_on_c, 11, 75, 87
25, 449250, Note_on_c, 11, 75, 0
25, 449250, Note_on_c, 11, 77, 104
25, 449280, Note_on_c, 11, 77, 0
25, 449304, Note_on_c, 11, 79, 85
25, 449357, Note_on_c, 11, 80, 79
25, 449379, Note_on_c, 11, 79, 0
25, 449432, Note_on_c, 11, 80, 0
25, 449438, Note_on_c, 11, 79, 98
25, 449513, Note_on_c, 11, 79, 0
25, 449528, Note_on_c, 11, 80, 81
25, 449595, Note_on_c, 11, 79, 82
25, 449603, Note_on_c, 11, 80, 0
25, 449665, Note_on_c, 11, 80, 93
25, 449670, Note_on_c, 11, 79, 0
25, 449740, Note_on_c, 11, 80, 0
25, 449747, Note_on_c, 11, 79, 97
25, 449822, Note_on_c, 11, 79, 0
25, 449827, Note_on_c, 11, 80, 87
25, 449902, Note_on_c, 11, 80, 0
25, 449902, Note_on_c, 11, 79, 86
25, 449965, Note_on_c, 11, 80, 89
25, 449977, Note_on_c, 11, 79, 0
25, 450040, Note_on_c, 11, 80, 0
25, 450048, Note_on_c, 11, 79, 93
25, 450114, Note_on_c, 11, 80, 86
25, 450123, Note_on_c, 11, 79, 0
25, 450189, Note_on_c, 11, 80, 0
25, 450209, Note_on_c, 11, 79, 92
25, 450282, Note_on_c, 11, 80, 87
25, 450284, Note_on_c, 11, 79, 0
25, 450348, Note_on_c, 11, 79, 97
25, 450357, Note_on_c, 11, 80, 0
25, 450416, Note_on_c, 11, 80, 91
25, 450423, Note_on_c, 11, 79, 0
25, 450491, Note_on_c, 11, 80, 0
25, 450511, Note_on_c, 11, 79, 78
25, 450565, Note_on_c, 11, 80, 90
25, 450586, Note_on_c, 11, 79, 0
25, 450640, Note_on_c, 11, 80, 0
25, 450647, Note_on_c, 11, 79, 78
25, 450722, Note_on_c, 11, 79, 0
25, 450739, Note_on_c, 11, 79, 84
25, 450834, Note_on_c, 11, 79, 0
25, 451080, Note_on_c, 11, 72, 84
25, 451110, Note_on_c, 11, 72, 0
25, 451110, Note_on_c, 11, 74, 79
25, 451140, Note_on_c, 11, 74, 0
25, 451140, Note_on_c, 11, 75, 94
25, 451170, Note_on_c, 11, 75, 0
25, 451170, Note_on_c, 11, 77, 82
25, 451200, Note_on_c, 11, 77, 0
25, 451215, Note_on_c, 11, 79, 83
25, 451284, Note_on_c, 11, 80, 92
25, 451290, Note_on_c, 11, 79, 0
25, 451359, Note_on_c, 11, 80, 0
25, 451370, Note_on_c, 11, 79, 78
25, 451432, Note_on_c, 11, 80, 97
25, 451445, Note_on_c, 11, 79, 0
25, 451507, Note_on_c, 11, 80, 0
25, 451510, Note_on_c, 11, 79, 91
25, 451576, Note_on_c, 11, 80, 79
25, 451585, Note_on_c, 11, 79, 0
25, 451651, Note_on_c, 11, 80, 0
25, 451656, Note_on_c, 11, 79, 79
25, 451731, Note_on_c, 11, 79, 0
25, 451735, Note_on_c, 11, 80, 94
25, 451810, Note_on_c, 11, 80, 0
25, 451820, Note_on_c, 11, 79, 96
25, 451884, Note_on_c, 11, 80, 79
25, 451895, Note_on_c, 11, 79, 0
25, 451959, Note_on_c, 11, 80, 0
25, 451965, Note_on_c, 11, 79, 84
25, 452040, Note_on_c, 11, 79, 0
25, 452041, Note_on_c, 11, 80, 82
25, 452107, Note_on_c, 11, 79, 83
25, 452116, Note_on_c, 11, 80, 0
25, 452182, Note_on_c, 11, 79, 0
25, 452201, Note_on_c, 11, 80, 96
25, 452276, Note_on_c, 11, 80, 0
25, 452281, Note_on_c, 11, 79, 98
25, 452338, Note_on_c, 11, 80, 97
25, 452356, Note_on_c, 11, 79, 0
25, 452413, Note_on_c, 11, 80, 0
25, 452421, Note_on_c, 11, 79, 79
25, 452496, Note_on_c, 11, 79, 0
25, 452505, Note_on_c, 11, 80, 93
25, 452577, Note_on_c, 11, 79, 84
25, 452580, Note_on_c, 11, 80, 0
25, 452652, Note_on_c, 11, 79, 0
25, 452665, Note_on_c, 11, 79, 82
25, 452760, Note_on_c, 11, 79, 0
25, 453000, Note_on_c, 11, 72, 86
25, 453030, Note_on_c, 11, 72, 0
25, 453030, Note_on_c, 11, 74, 82
25, 453060, Note_on_c, 11, 74, 0
25, 453060, Note_on_c, 11, 75, 91
25, 453090, Note_on_c, 11, 75, 0
25, 453090, Note_on_c, 11, 77, 94
25, 453120, Note_on_c, 11, 77, 0
25, 453144, Note_on_c, 11, 79, 87
25, 453206, Note_on_c, 11, 80, 86
25, 453219, Note_on_c, 11, 79, 0
25, 453272, Note_on_c, 11, 79, 98
25, 453281, Note_on_c, 11, 80, 0
25, 453347, Note_on_c, 11, 79, 0
25, 453365, Note_on_c, 11, 80, 86
25, 453438, Note_on_c, 11, 79, 80
25, 453440, Note_on_c, 11, 80, 0
25, 453513, Note_on_c, 11, 79, 0
25, 453521, Note_on_c, 11, 80, 85
25, 453593, Note_on_c, 11, 79, 81
25, 453596, Note_on_c, 11, 80, 0
25, 453652, Note_on_c, 11, 80, 85
25, 453668, Note_on_c, 11, 79, 0
25, 453727, Note_on_c, 11, 80, 0
25, 453743, Note_on_c, 11, 79, 78
25, 453813, Note_on_c, 11, 80, 93
25, 453818, Note_on_c, 11, 79, 0
25, 453876, Note_on_c, 11, 79, 87
25, 453888, Note_on_c, 11, 80, 0
25, 453951, Note_on_c, 11, 79, 0
25, 453972, Note_on_c, 11, 80, 87
25, 454029, Note_on_c, 11, 79, 78
25, 454047, Note_on_c, 11, 80, 0
25, 454104, Note_on_c, 11, 79, 0
25, 454113, Note_on_c, 11, 80, 82
25, 454187, Note_on_c, 11, 79, 94
25, 454188, Note_on_c, 11, 80, 0
25, 454262, Note_on_c, 11, 79, 0
25, 454262, Note_on_c, 11, 80, 88
25, 454333, Note_on_c, 11, 79, 98
25, 454337, Note_on_c, 11, 80, 0
25, 454408, Note_on_c, 11, 79, 0
25, 454408, Note_on_c, 11, 80, 81
25, 454481, Note_on_c, 11, 79, 84
25, 454483, Note_on_c, 11, 80, 0
25, 454556, Note_on_c, 11, 79, 0
25, 454570, Note_on_c, 11, 79, 84
25, 454665, Note_on_c, 11, 79, 0
25, 455057, Note_on_c, 11, 63, 108
25, 455057, Note_on_c, 11, 83, 109
25, 455060, Note_on_c, 11, 72, 96
25, 455177, Note_on_c, 11, 63, 0
25, 455177, Note_on_c, 11, 83, 0
25, 455180, Note_on_c, 11, 72, 0
25, 455521, Note_on_c, 11, 72, 104
25, 455524, Note_on_c, 11, 79, 114
25, 455536, Note_on_c, 11, 63, 107
25, 455641, Note_on_c, 11, 72, 0
25, 455644, Note_on_c, 11, 79, 0
25, 455656, Note_on_c, 11, 63, 0
25, 455880, Note_on_c, 11, 72, 112
25, 455910, Note_on_c, 11, 72, 0
25, 455910, Note_on_c, 11, 74, 101
25, 455940, Note_on_c, 11, 74, 0
25, 455940, Note_on_c, 11, 75, 109
25, 455970, Note_on_c, 11, 75, 0
25, 455970, Note_on_c, 11, 77, 100
25, 456000, Note_on_c, 11, 77, 0
25, 456011, Note_on_c, 11, 79, 81
25, 456081, Note_on_c, 11, 80, 95
25, 456087, Note_on_c, 11, 79, 0
25, 456157, Note_on_c, 11, 80, 0
25, 456166, Note_on_c, 11, 79, 93
25, 456242, Note_on_c, 11, 79, 0
25, 456251, Note_on_c, 11, 80, 80
25, 456316, Note_on_c, 11, 79, 80
25, 456327, Note_on_c, 11, 80, 0
25, 456390, Note_on_c, 11, 80, 91
25, 456392, Note_on_c, 11, 79, 0
25, 456458, Note_on_c, 11, 79, 79
25, 456466, Note_on_c, 11, 80, 0
25, 456534, Note_on_c, 11, 79, 0
25, 456535, Note_on_c, 11, 80, 94
25, 456611, Note_on_c, 11, 80, 0
25, 456616, Note_on_c, 11, 79, 80
25, 456692, Note_on_c, 11, 79, 0
25, 456698, Note_on_c, 11, 80, 92
25, 456773, Note_on_c, 11, 79, 78
25, 456774, Note_on_c, 11, 80, 0
25, 456849, Note_on_c, 11, 79, 0
25, 456856, Note_on_c, 11, 80, 79
25, 456917, Note_on_c, 11, 79, 95
25, 456932, Note_on_c, 11, 80, 0
25, 456993, Note_on_c, 11, 79, 0
25, 457011, Note_on_c, 11, 80, 81
25, 457087, Note_on_c, 11, 80, 0
25, 457092, Note_on_c, 11, 79, 94
25, 457168, Note_on_c, 11, 79, 0
25, 457168, Note_on_c, 11, 80, 84
25, 457228, Note_on_c, 11, 79, 87
25, 457244, Note_on_c, 11, 80, 0
25, 457301, Note_on_c, 11, 80, 83
25, 457304, Note_on_c, 11, 79, 0
25, 457375, Note_on_c, 11, 79, 92
25, 457377, Note_on_c, 11, 80, 0
25, 457439, Note_on_c, 11, 79, 0
25, 457440, Note_on_c, 11, 79, 96
25, 457451, Note_on_c, 11, 79, 0
25, 457460, Note_on_c, 11, 80, 82
25, 457528, Note_on_c, 11, 79, 89
25, 457535, Note_on_c, 11, 79, 0
25, 457536, Note_on_c, 11, 80, 0
25, 457628, Note_on_c, 11, 80, 91
25, 457701, Note_on_c, 11, 79, 97
25, 457704, Note_on_c, 11, 80, 0
25, 457760, Note_on_c, 11, 80, 98
25, 457777, Note_on_c, 11, 79, 0
25, 457836, Note_on_c, 11, 80, 0
25, 457841, Note_on_c, 11, 79, 82
25, 457917, Note_on_c, 11, 79, 0
25, 457930, Note_on_c, 11, 91, 106
25, 457941, Note_on_c, 11, 79, 93
25, 458050, Note_on_c, 11, 91, 0
25, 458061, Note_on_c, 11, 79, 0
25, 458418, Note_on_c, 11, 88, 101
25, 458538, Note_on_c, 11, 88, 0
25, 458887, Note_on_c, 11, 91, 104
25, 458896, Note_on_c, 11, 79, 100
25, 459007, Note_on_c, 11, 91, 0
25, 459016, Note_on_c, 11, 79, 0
25, 459366, Note_on_c, 11, 88, 106
25, 459486, Note_on_c, 11, 88, 0
25, 459841, Note_on_c, 11, 91, 105
25, 459855, Note_on_c, 11, 79, 98
25, 459961, Note_on_c, 11, 91, 0
25, 459975, Note_on_c, 11, 79, 0
25, 460322, Note_on_c, 11, 88, 100
25, 460442, Note_on_c, 11, 88, 0
25, 460814, Note_on_c, 11, 91, 95
25, 460823, Note_on_c, 11, 79, 108
25, 460934, Note_on_c, 11, 91, 0
25, 460943, Note_on_c, 11, 79, 0
25, 461293, Note_on_c, 11, 88, 110
25, 461413, Note_on_c, 11, 88, 0
25, 461769, Note_on_c, 11, 63, 106
25, 461779, Note_on_c, 11, 72, 112
25, 461782, Note_on_c, 11, 83, 95
25, 461889, Note_on_c, 11, 63, 0
25, 461899, Note_on_c, 11, 72, 0
25, 461902, Note_on_c, 11, 83, 0
25, 462120, Note_on_c, 11, 72, 109
25, 462150, Note_on_c, 11, 72, 0
25, 462150, Note_on_c, 11, 74, 108
25, 462180, Note_on_c, 11, 74, 0
25, 462180, Note_on_c, 11, 75, 112
25, 462210, Note_on_c, 11, 75, 0
25, 462210, Note_on_c, 11, 77, 99
25, 462240, Note_on_c, 11, 77, 0
25, 462261, Note_on_c, 11, 79, 78
25, 462336, Note_on_c, 11, 79, 0
25, 462338, Note_on_c, 11, 80, 95
25, 462398, Note_on_c, 11, 79, 84
25, 462413, Note_on_c, 11, 80, 0
25, 462467, Note_on_c, 11, 80, 86
25, 462473, Note_on_c, 11, 79, 0
25, 462542, Note_on_c, 11, 80, 0
25, 462542, Note_on_c, 11, 79, 79
25, 462617, Note_on_c, 11, 79, 0
25, 462617, Note_on_c, 11, 80, 90
25, 462692, Note_on_c, 11, 80, 0
25, 462698, Note_on_c, 11, 79, 81
25, 462773, Note_on_c, 11, 79, 0
25, 462779, Note_on_c, 11, 80, 83
25, 462852, Note_on_c, 11, 79, 93
25, 462865, Note_on_c, 11, 80, 0
25, 462927, Note_on_c, 11, 79, 0
25, 462941, Note_on_c, 11, 80, 87
25, 463016, Note_on_c, 11, 80, 0
25, 463017, Note_on_c, 11, 79, 95
25, 463092, Note_on_c, 11, 79, 0
25, 463092, Note_on_c, 11, 80, 89
25, 463159, Note_on_c, 11, 79, 97
25, 463167, Note_on_c, 11, 80, 0
25, 463236, Note_on_c, 11, 80, 88
25, 463243, Note_on_c, 11, 79, 0
25, 463311, Note_on_c, 11, 80, 0
25, 463315, Note_on_c, 11, 79, 91
25, 463387, Note_on_c, 11, 80, 80
25, 463390, Note_on_c, 11, 79, 0
25, 463458, Note_on_c, 11, 79, 95
25, 463469, Note_on_c, 11, 80, 0
25, 463523, Note_on_c, 11, 80, 91
25, 463533, Note_on_c, 11, 79, 0
25, 463598, Note_on_c, 11, 80, 0
25, 463617, Note_on_c, 11, 79, 96
25, 463692, Note_on_c, 11, 79, 0
25, 463701, Note_on_c, 11, 79, 88
25, 463796, Note_on_c, 11, 79, 0
25, 464040, Note_on_c, 11, 72, 88
25, 464070, Note_on_c, 11, 72, 0
25, 464070, Note_on_c, 11, 74, 88
25, 464100, Note_on_c, 11, 74, 0
25, 464100, Note_on_c, 11, 75, 94
25, 464130, Note_on_c, 11, 75, 0
25, 464130, Note_on_c, 11, 77, 78
25, 464160, Note_on_c, 11, 77, 0
25, 464162, Note_on_c, 11, 79, 88
25, 464237, Note_on_c, 11, 79, 0
25, 464237, Note_on_c, 11, 80, 82
25, 464312, Note_on_c, 11, 80, 0
25, 464315, Note_on_c, 11, 79, 91
25, 464390, Note_on_c, 11, 79, 0
25, 464401, Note_on_c, 11, 80, 79
25, 464476, Note_on_c, 11, 80, 0
25, 464481, Note_on_c, 11, 79, 78
25, 464556, Note_on_c, 11, 79, 0
25, 464559, Note_on_c, 11, 80, 85
25, 464613, Note_on_c, 11, 79, 94
25, 464634, Note_on_c, 11, 80, 0
25, 464688, Note_on_c, 11, 79, 0
25, 464709, Note_on_c, 11, 80, 89
25, 464771, Note_on_c, 11, 79, 87
25, 464795, Note_on_c, 11, 80, 0
25, 464839, Note_on_c, 11, 80, 88
25, 464846, Note_on_c, 11, 79, 0
25, 464914, Note_on_c, 11, 80, 0
25, 464925, Note_on_c, 11, 79, 81
25, 464996, Note_on_c, 11, 80, 92
25, 465000, Note_on_c, 11, 79, 0
25, 465071, Note_on_c, 11, 80, 0
25, 465078, Note_on_c, 11, 79, 94
25, 465162, Note_on_c, 11, 79, 0
25, 465163, Note_on_c, 11, 80, 91
25, 465237, Note_on_c, 11, 79, 92
25, 465238, Note_on_c, 11, 80, 0
25, 465312, Note_on_c, 11, 79, 0
25, 465314, Note_on_c, 11, 80, 82
25, 465374, Note_on_c, 11, 79, 97
25, 465396, Note_on_c, 11, 80, 0
25, 465448, Note_on_c, 11, 80, 79
25, 465449, Note_on_c, 11, 79, 0
25, 465523, Note_on_c, 11, 80, 0
25, 465527, Note_on_c, 11, 79, 92
25, 465602, Note_on_c, 11, 79, 0
25, 465623, Note_on_c, 11, 79, 87
25, 465718, Note_on_c, 11, 79, 0
25, 466084, Note_on_c, 11, 63, 108
25, 466084, Note_on_c, 11, 72, 103
25, 466087, Note_on_c, 11, 83, 109
25, 466204, Note_on_c, 11, 63, 0
25, 466204, Note_on_c, 11, 72, 0
25, 466207, Note_on_c, 11, 83, 0
25, 466563, Note_on_c, 11, 72, 100
25, 466577, Note_on_c, 11, 79, 106
25, 466579, Note_on_c, 11, 63, 104
25, 466683, Note_on_c, 11, 72, 0
25, 466697, Note_on_c, 11, 79, 0
25, 466699, Note_on_c, 11, 63, 0
25, 466920, Note_on_c, 11, 72, 115
25, 466950, Note_on_c, 11, 72, 0
25, 466950, Note_on_c, 11, 74, 114
25, 466980, Note_on_c, 11, 74, 0
25, 466980, Note_on_c, 11, 75, 101
25, 467010, Note_on_c, 11, 75, 0
25, 467010, Note_on_c, 11, 77, 113
25, 467040, Note_on_c, 11, 77, 0
25, 467053, Note_on_c, 11, 79, 95
25, 467120, Note_on_c, 11, 80, 83
25, 467129, Note_on_c, 11, 79, 0
25, 467196, Note_on_c, 11, 80, 0
25, 467199, Note_on_c, 11, 79, 80
25, 467268, Note_on_c, 11, 80, 85
25, 467275, Note_on_c, 11, 79, 0
25, 467344, Note_on_c, 11, 80, 0
25, 467346, Note_on_c, 11, 79, 88
25, 467422, Note_on_c, 11, 79, 0
25, 467443, Note_on_c, 11, 80, 89
25, 467513, Note_on_c, 11, 79, 97
25, 467519, Note_on_c, 11, 80, 0
25, 467578, Note_on_c, 11, 80, 79
25, 467589, Note_on_c, 11, 79, 0
25, 467658, Note_on_c, 11, 80, 0
25, 467665, Note_on_c, 11, 79, 82
25, 467741, Note_on_c, 11, 79, 0
25, 467743, Note_on_c, 11, 80, 81
25, 467815, Note_on_c, 11, 79, 94
25, 467819, Note_on_c, 11, 80, 0
25, 467900, Note_on_c, 11, 80, 78
25, 467905, Note_on_c, 11, 79, 0
25, 467964, Note_on_c, 11, 79, 80
25, 467976, Note_on_c, 11, 80, 0
25, 468052, Note_on_c, 11, 79, 0
25, 468055, Note_on_c, 11, 80, 78
25, 468120, Note_on_c, 11, 79, 88
25, 468131, Note_on_c, 11, 80, 0
25, 468196, Note_on_c, 11, 79, 0
25, 468208, Note_on_c, 11, 80, 98
25, 468269, Note_on_c, 11, 79, 82
25, 468284, Note_on_c, 11, 80, 0
25, 468345, Note_on_c, 11, 79, 0
25, 468355, Note_on_c, 11, 80, 78
25, 468415, Note_on_c, 11, 79, 94
25, 468431, Note_on_c, 11, 80, 0
25, 468479, Note_on_c, 11, 79, 0
25, 468480, Note_on_c, 11, 79, 81
25, 468492, Note_on_c, 11, 80, 89
25, 468502, Note_on_c, 11, 79, 0
25, 468568, Note_on_c, 11, 80, 0
25, 468568, Note_on_c, 11, 79, 82
25, 468575, Note_on_c, 11, 79, 0
25, 468661, Note_on_c, 11, 80, 79
25, 468724, Note_on_c, 11, 79, 91
25, 468751, Note_on_c, 11, 80, 0
25, 468796, Note_on_c, 11, 80, 82
25, 468800, Note_on_c, 11, 79, 0
25, 468872, Note_on_c, 11, 80, 0
25, 468883, Note_on_c, 11, 79, 96
25, 468959, Note_on_c, 11, 79, 0
25, 468960, Note_on_c, 11, 63, 110
25, 468964, Note_on_c, 11, 72, 107
25, 468981, Note_on_c, 11, 83, 98
25, 469080, Note_on_c, 11, 63, 0
25, 469084, Note_on_c, 11, 72, 0
25, 469101, Note_on_c, 11, 83, 0
25, 497286, Note_on_c, 11, 81, 96
25, 497289, Note_on_c, 11, 72, 93
25, 497299, Note_on_c, 11, 65, 92
25, 497409, Note_on_c, 11, 72, 0
25, 497419, Note_on_c, 11, 65, 0
25, 497646, Note_on_c, 11, 81, 0
25, 497769, Note_on_c, 11, 79, 82
25, 497889, Note_on_c, 11, 79, 0
25, 498009, Note_on_c, 11, 81, 98
25, 498129, Note_on_c, 11, 81, 0
25, 498247, Note_on_c, 11, 76, 93
25, 498367, Note_on_c, 11, 76, 0
25, 498497, Note_on_c, 11, 77, 95
25, 498617, Note_on_c, 11, 77, 0
25, 498726, Note_on_c, 11, 76, 85
25, 498846, Note_on_c, 11, 76, 0
25, 498960, Note_on_c, 11, 79, 95
25, 499080, Note_on_c, 11, 79, 0
25, 499200, Note_on_c, 11, 77, 97
25, 499320, Note_on_c, 11, 77, 0
25, 499461, Note_on_c, 11, 81, 95
25, 499581, Note_on_c, 11, 81, 0
25, 499684, Note_on_c, 11, 76, 83
25, 499804, Note_on_c, 11, 76, 0
25, 499925, Note_on_c, 11, 77, 96
25, 500045, Note_on_c, 11, 77, 0
25, 500178, Note_on_c, 11, 76, 87
25, 500298, Note_on_c, 11, 76, 0
25, 500425, Note_on_c, 11, 79, 78
25, 500545, Note_on_c, 11, 79, 0
25, 503531, Note_on_c, 11, 81, 88
25, 503531, Note_on_c, 11, 72, 95
25, 503540, Note_on_c, 11, 65, 79
25, 503651, Note_on_c, 11, 72, 0
25, 503660, Note_on_c, 11, 65, 0
25, 503891, Note_on_c, 11, 81, 0
25, 504012, Note_on_c, 11, 79, 88
25, 504132, Note_on_c, 11, 79, 0
25, 504259, Note_on_c, 11, 81, 98
25, 504379, Note_on_c, 11, 81, 0
25, 504500, Note_on_c, 11, 76, 98
25, 504620, Note_on_c, 11, 76, 0
25, 504735, Note_on_c, 11, 77, 89
25, 504855, Note_on_c, 11, 77, 0
25, 504964, Note_on_c, 11, 76, 97
25, 505084, Note_on_c, 11, 76, 0
25, 505201, Note_on_c, 11, 79, 88
25, 505321, Note_on_c, 11, 79, 0
25, 505451, Note_on_c, 11, 77, 90
25, 505571, Note_on_c, 11, 77, 0
25, 505685, Note_on_c, 11, 81, 85
25, 505805, Note_on_c, 11, 81, 0
25, 505932, Note_on_c, 11, 76, 83
25, 506052, Note_on_c, 11, 76, 0
25, 506181, Note_on_c, 11, 77, 91
25, 506301, Note_on_c, 11, 77, 0
25, 506403, Note_on_c, 11, 76, 92
25, 506523, Note_on_c, 11, 76, 0
25, 506658, Note_on_c, 11, 79, 78
25, 506778, Note_on_c, 11, 79, 0
25, 506883, Note_on_c, 11, 72, 80
25, 506888, Note_on_c, 11, 65, 88
25, 506889, Note_on_c, 11, 81, 94
25, 507003, Note_on_c, 11, 72, 0
25, 507008, Note_on_c, 11, 65, 0
25, 507249, Note_on_c, 11, 81, 0
25, 507376, Note_on_c, 11, 79, 94
25, 507496, Note_on_c, 11, 79, 0
25, 507600, Note_on_c, 11, 81, 80
25, 507720, Note_on_c, 11, 81, 0
25, 507847, Note_on_c, 11, 76, 88
25, 507967, Note_on_c, 11, 76, 0
25, 508098, Note_on_c, 11, 77, 96
25, 508218, Note_on_c, 11, 77, 0
25, 508334, Note_on_c, 11, 76, 97
25, 508454, Note_on_c, 11, 76, 0
25, 508583, Note_on_c, 11, 79, 84
25, 508703, Note_on_c, 11, 79, 0
25, 522000, Program_c, 11, 45
25, 522003, Note_on_c, 11, 81, 78
25, 522005, Note_on_c, 11, 85, 84
25, 522123, Note_on_c, 11, 81, 0
25, 522125, Note_on_c, 11, 85, 0
25, 522240, Note_on_c, 11, 83, 78
25, 522243, Note_on_c, 11, 80, 96
25, 522360, Note_on_c, 11, 83, 0
25, 522363, Note_on_c, 11, 80, 0
25, 522487, Note_on_c, 11, 85, 97
25, 522500, Note_on_c, 11, 81, 89
25, 522607, Note_on_c, 11, 85, 0
25, 522620, Note_on_c, 11, 81, 0
25, 522723, Note_on_c, 11, 80, 80
25, 522736, Note_on_c, 11, 83, 84
25, 522843, Note_on_c, 11, 80, 0
25, 522856, Note_on_c, 11, 83, 0
25, 522976, Note_on_c, 11, 81, 96
25, 522979, Note_on_c, 11, 77, 85
25, 523096, Note_on_c, 11, 81, 0
25, 523099, Note_on_c, 11, 77, 0
25, 523200, Note_on_c, 11, 76, 82
25, 523220, Note_on_c, 11, 80, 92
25, 523320, Note_on_c, 11, 76, 0
25, 523340, Note_on_c, 11, 80, 0
25, 523441, Note_on_c, 11, 81, 83
25, 523459, Note_on_c, 11, 77, 86
25, 523561, Note_on_c, 11, 81, 0
25, 523579, Note_on_c, 11, 77, 0
25, 523697, Note_on_c, 11, 75, 96
25, 523701, Note_on_c, 11, 78, 90
25, 523817, Note_on_c, 11, 75, 0
25, 523821, Note_on_c, 11, 78, 0
25, 523920, Note_on_c, 11, 80, 89
25, 523922, Note_on_c, 11, 76, 93
25, 524040, Note_on_c, 11, 80, 0
25, 524042, Note_on_c, 11, 76, 0
25, 524174, Note_on_c, 11, 81, 97
25, 524182, Note_on_c, 11, 77, 86
25, 524294, Note_on_c, 11, 81, 0
25, 524302, Note_on_c, 11, 77, 0
25, 524413, Note_on_c, 11, 83, 98
25, 524421, Note_on_c, 11, 80, 78
25, 524533, Note_on_c, 11, 83, 0
25, 524541, Note_on_c, 11, 80, 0
25, 524651, Note_on_c, 11, 81, 79
25, 524660, Note_on_c, 11, 85, 97
25, 524771, Note_on_c, 11, 81, 0
25, 524780, Note_on_c, 11, 85, 0
25, 528256, Note_on_c, 11, 81, 87
25, 528258, Note_on_c, 11, 85, 94
25, 528376, Note_on_c, 11, 81, 0
25, 528378, Note_on_c, 11, 85, 0
25, 528492, Note_on_c, 11, 80, 86
25, 528496, Note_on_c, 11, 83, 98
25, 528612, Note_on_c, 11, 80, 0
25, 528616, Note_on_c, 11, 83, 0
25, 528725, Note_on_c, 11, 85, 93
25, 528741, Note_on_c, 11, 81, 86
25, 528845, Note_on_c, 11, 85, 0
25, 528861, Note_on_c, 11, 81, 0
25, 528967, Note_on_c, 11, 80, 98
25, 528978, Note_on_c, 11, 83, 87
25, 529087, Note_on_c, 11, 80, 0
25, 529098, Note_on_c, 11, 83, 0
25, 529202, Note_on_c, 11, 77, 93
25, 529217, Note_on_c, 11, 81, 87
25, 529322, Note_on_c, 11, 77, 0
25, 529337, Note_on_c, 11, 81, 0
25, 529447, Note_on_c, 11, 80, 79
25, 529452, Note_on_c, 11, 76, 82
25, 529567, Note_on_c, 11, 80, 0
25, 529572, Note_on_c, 11, 76, 0
25, 529683, Note_on_c, 11, 81, 94
25, 529701, Note_on_c, 11, 77, 95
25, 529803, Note_on_c, 11, 81, 0
25, 529821, Note_on_c, 11, 77, 0
25, 529920, Note_on_c, 11, 78, 84
25, 529926, Note_on_c, 11, 75, 87
25, 530040, Note_on_c, 11, 78, 0
25, 530046, Note_on_c, 11, 75, 0
25, 530162, Note_on_c, 11, 75, 93
25, 530164, Note_on_c, 11, 78, 86
25, 530282, Note_on_c, 11, 75, 0
25, 530284, Note_on_c, 11, 78, 0
25, 530411, Note_on_c, 11, 78, 96
25, 530425, Note_on_c, 11, 75, 78
25, 530531, Note_on_c, 11, 78, 0
25, 530545, Note_on_c, 11, 75, 0
25, 530644, Note_on_c, 11, 80, 82
25, 530644, Note_on_c, 11, 76, 98
25, 530764, Note_on_c, 11, 80, 0
25, 530764, Note_on_c, 11, 76, 0
25, 530887, Note_on_c, 11, 81, 81
25, 530888, Note_on_c, 11, 77, 80
25, 531007, Note_on_c, 11, 81, 0
25, 531008, Note_on_c, 11, 77, 0
25, 531132, Note_on_c, 11, 80, 84
25, 531145, Note_on_c, 11, 83, 89
25, 531252, Note_on_c, 11, 80, 0
25, 531265, Note_on_c, 11, 83, 0
25, 531364, Note_on_c, 11, 81, 96
25, 531366, Note_on_c, 11, 85, 94
25, 531484, Note_on_c, 11, 81, 0
25, 531486, Note_on_c, 11, 85, 0
25, 540000, Program_c, 11, 48
25, 540483, Note_on_c, 11, 81, 95
25, 540496, Note_on_c, 11, 69, 84
25, 540499, Note_on_c, 11, 66, 91
25, 540626, Note_on_c, 11, 81, 0
25, 540639, Note_on_c, 11, 69, 0
25, 540642, Note_on_c, 11, 66, 0
25, 540963, Note_on_c, 11, 79, 88
25, 541034, Note_on_c, 11, 79, 0
25, 541225, Note_on_c, 11, 81, 80
25, 541296, Note_on_c, 11, 81, 0
25, 541442, Note_on_c, 11, 79, 87
25, 541513, Note_on_c, 11, 79, 0
25, 541680, Note_on_c, 11, 77, 82
25, 541751, Note_on_c, 11, 77, 0
25, 541926, Note_on_c, 11, 72, 86
25, 541997, Note_on_c, 11, 72, 0
25, 542182, Note_on_c, 11, 77, 92
25, 542253, Note_on_c, 11, 77, 0
25, 542413, Note_on_c, 11, 71, 83
25, 542484, Note_on_c, 11, 71, 0
25, 542652, Note_on_c, 11, 81, 92
25, 542723, Note_on_c, 11, 81, 0
25, 542899, Note_on_c, 11, 79, 83
25, 542970, Note_on_c, 11, 79, 0
25, 543141, Note_on_c, 11, 81, 88
25, 543212, Note_on_c, 11, 81, 0
25, 543374, Note_on_c, 11, 79, 80
25, 543445, Note_on_c, 11, 79, 0
25, 543602, Note_on_c, 11, 77, 94
25, 543673, Note_on_c, 11, 77, 0
25, 543844, Note_on_c, 11, 72, 84
25, 543915, Note_on_c, 11, 72, 0
25, 544103, Note_on_c, 11, 77, 91
25, 544174, Note_on_c, 11, 77, 0
25, 544323, Note_on_c, 11, 71, 82
25, 544394, Note_on_c, 11, 71, 0
25, 544579, Note_on_c, 11, 76, 91
25, 544650, Note_on_c, 11, 76, 0
25, 544820, Note_on_c, 11, 74, 82
25, 544891, Note_on_c, 11, 74, 0
25, 545058, Note_on_c, 11, 79, 81
25, 545129, Note_on_c, 11, 79, 0
25, 545282, Note_on_c, 11, 77, 98
25, 545353, Note_on_c, 11, 77, 0
25, 552505, Note_on_c, 11, 76, 93
25, 552742, Note_on_c, 11, 77, 95
25, 552745, Note_on_c, 11, 76, 0
25, 552979, Note_on_c, 11, 79, 88
25, 552982, Note_on_c, 11, 77, 0
25, 553682, Note_on_c, 11, 77, 97
25, 553699, Note_on_c, 11, 79, 0
25, 553922, Note_on_c, 11, 77, 0
25, 553927, Note_on_c, 11, 76, 91
25, 554167, Note_on_c, 11, 76, 0
25, 554172, Note_on_c, 11, 74, 98
25, 554406, Note_on_c, 11, 76, 97
25, 554412, Note_on_c, 11, 74, 0
25, 554646, Note_on_c, 11, 76, 0
25, 554654, Note_on_c, 11, 77, 79
25, 554889, Note_on_c, 11, 79, 93
25, 554894, Note_on_c, 11, 77, 0
25, 555368, Note_on_c, 11, 77, 95
25, 555369, Note_on_c, 11, 79, 0
25, 555605, Note_on_c, 11, 76, 89
25, 555608, Note_on_c, 11, 77, 0
25, 555845, Note_on_c, 11, 76, 0
25, 555864, Note_on_c, 11, 74, 81
25, 556338, Note_on_c, 11, 76, 83
25, 556344, Note_on_c, 11, 74, 0
25, 556578, Note_on_c, 11, 76, 0
25, 556579, Note_on_c, 11, 77, 82
25, 556814, Note_on_c, 11, 79, 89
25, 556819, Note_on_c, 11, 77, 0
25, 557294, Note_on_c, 11, 79, 0
25, 557295, Note_on_c, 11, 76, 82
25, 557535, Note_on_c, 11, 76, 0
25, 557537, Note_on_c, 11, 77, 92
25, 557777, Note_on_c, 11, 77, 0
25, 557782, Note_on_c, 11, 79, 78
25, 558480, Note_on_c, 11, 77, 81
25, 558502, Note_on_c, 11, 79, 0
25, 558720, Note_on_c, 11, 77, 0
25, 558744, Note_on_c, 11, 76, 88
25, 558979, Note_on_c, 11, 74, 81
25, 558984, Note_on_c, 11, 76, 0
25, 559219, Note_on_c, 11, 74, 0
25, 559224, Note_on_c, 11, 76, 98
25, 559449, Note_on_c, 11, 77, 82
25, 559464, Note_on_c, 11, 76, 0
25, 559689, Note_on_c, 11, 77, 0
25, 559704, Note_on_c, 11, 79, 97
25, 560410, Note_on_c, 11, 77, 94
25, 560424, Note_on_c, 11, 79, 0
25, 560650, Note_on_c, 11, 77, 0
25, 560657, Note_on_c, 11, 76, 85
25, 560895, Note_on_c, 11, 74, 98
25, 560897, Note_on_c, 11, 76, 0
25, 561135, Note_on_c, 11, 74, 0
25, 561140, Note_on_c, 11, 76, 97
25, 561380, Note_on_c, 11, 76, 0
25, 561383, Note_on_c, 11, 77, 86
25, 561623, Note_on_c, 11, 77, 0
25, 561623, Note_on_c, 11, 79, 87
25, 561863, Note_on_c, 11, 79, 0
25, 564870, Note_on_c, 11, 70, 102
25, 564900, Note_on_c, 11, 70, 0
25, 564900, Note_on_c, 11, 72, 93
25, 564930, Note_on_c, 11, 72, 0
25, 564930, Note_on_c, 11, 74, 87
25, 564960, Note_on_c, 11, 74, 0
25, 564966, Note_on_c, 11, 75, 96
25, 565086, Note_on_c, 11, 75, 0
25, 565350, Note_on_c, 11, 75, 102
25, 565380, Note_on_c, 11, 75, 0
25, 565380, Note_on_c, 11, 77, 104
25, 565410, Note_on_c, 11, 77, 0
25, 565410, Note_on_c, 11, 78, 101
25, 565440, Note_on_c, 11, 78, 0
25, 565462, Note_on_c, 11, 79, 80
25, 565582, Note_on_c, 11, 79, 0
25, 565937, Note_on_c, 11, 77, 94
25, 566057, Note_on_c, 11, 77, 0
25, 566164, Note_on_c, 11, 79, 90
25, 566284, Note_on_c, 11, 79, 0
25, 566417, Note_on_c, 11, 74, 89
25, 566537, Note_on_c, 11, 74, 0
25, 566644, Note_on_c, 11, 75, 95
25, 566764, Note_on_c, 11, 75, 0
25, 566889, Note_on_c, 11, 74, 86
25, 567009, Note_on_c, 11, 74, 0
25, 567131, Note_on_c, 11, 77, 78
25, 567251, Note_on_c, 11, 77, 0
25, 567377, Note_on_c, 11, 75, 79
25, 567497, Note_on_c, 11, 75, 0
25, 567603, Note_on_c, 11, 79, 93
25, 567723, Note_on_c, 11, 79, 0
25, 567844, Note_on_c, 11, 74, 85
25, 567964, Note_on_c, 11, 74, 0
25, 568080, Note_on_c, 11, 75, 86
25, 568200, Note_on_c, 11, 75, 0
25, 568325, Note_on_c, 11, 74, 92
25, 568445, Note_on_c, 11, 74, 0
25, 568581, Note_on_c, 11, 77, 91
25, 568701, Note_on_c, 11, 77, 0
25, 568806, Note_on_c, 11, 79, 89
25, 569166, Note_on_c, 11, 79, 0
25, 569290, Note_on_c, 11, 77, 88
25, 569410, Note_on_c, 11, 77, 0
25, 569535, Note_on_c, 11, 79, 95
25, 569655, Note_on_c, 11, 79, 0
25, 569782, Note_on_c, 11, 74, 97
25, 569902, Note_on_c, 11, 74, 0
25, 570005, Note_on_c, 11, 75, 82
25, 570125, Note_on_c, 11, 75, 0
25, 570251, Note_on_c, 11, 74, 93
25, 570371, Note_on_c, 11, 74, 0
25, 570500, Note_on_c, 11, 77, 98
25, 570620, Note_on_c, 11, 77, 0
25, 570726, Note_on_c, 11, 72, 88
25, 570728, Note_on_c, 11, 63, 80
25, 570869, Note_on_c, 11, 72, 0
25, 570871, Note_on_c, 11, 63, 0
25, 571203, Note_on_c, 11, 62, 95
25, 571217, Note_on_c, 11, 69, 82
25, 571346, Note_on_c, 11, 62, 0
25, 571360, Note_on_c, 11, 69, 0
25, 573122, Note_on_c, 11, 62, 96
25, 573137, Note_on_c, 11, 69, 112
25, 573265, Note_on_c, 11, 62, 0
25, 573280, Note_on_c, 11, 69, 0
25, 573606, Note_on_c, 11, 72, 109
25, 573621, Note_on_c, 11, 63, 95
25, 573677, Note_on_c, 11, 72, 0
25, 573692, Note_on_c, 11, 63, 0
25, 573841, Note_on_c, 11, 69, 106
25, 573857, Note_on_c, 11, 62, 99
25, 573912, Note_on_c, 11, 69, 0
25, 573928, Note_on_c, 11, 62, 0
25, 574096, Note_on_c, 11, 62, 115
25, 574105, Note_on_c, 11, 69, 107
25, 574167, Note_on_c, 11, 62, 0
25, 574176, Note_on_c, 11, 69, 0
25, 574333, Note_on_c, 11, 70, 99
25, 574343, Note_on_c, 11, 63, 96
25, 574404, Note_on_c, 11, 70, 0
25, 574414, Note_on_c, 11, 63, 0
25, 577936, Note_on_c, 11, 69, 98
25, 577945, Note_on_c, 11, 62, 106
25, 578079, Note_on_c, 11, 69, 0
25, 578088, Note_on_c, 11, 62, 0
25, 578416, Note_on_c, 11, 72, 104
25, 578418, Note_on_c, 11, 63, 108
25, 578487, Note_on_c, 11, 72, 0
25, 578489, Note_on_c, 11, 63, 0
25, 578644, Note_on_c, 11, 62, 105
25, 578647, Note_on_c, 11, 69, 96
25, 578715, Note_on_c, 11, 62, 0
25, 578718, Note_on_c, 11, 69, 0
25, 578880, Note_on_c, 11, 69, 96
25, 578895, Note_on_c, 11, 62, 97
25, 578951, Note_on_c, 11, 69, 0
25, 578966, Note_on_c, 11, 62, 0
25, 579122, Note_on_c, 11, 63, 102
25, 579141, Note_on_c, 11, 70, 100
25, 579193, Note_on_c, 11, 63, 0
25, 579212, Note_on_c, 11, 70, 0
25, 580802, Note_on_c, 11, 69, 114
25, 580819, Note_on_c, 11, 62, 114
25, 580945, Note_on_c, 11, 69, 0
25, 580962, Note_on_c, 11, 62, 0
25, 581286, Note_on_c, 11, 72, 114
25, 581297, Note_on_c, 11, 63, 97
25, 581357, Note_on_c, 11, 72, 0
25, 581368, Note_on_c, 11, 63, 0
25, 581523, Note_on_c, 11, 62, 101
25, 581541, Note_on_c, 11, 69, 101
25, 581594, Note_on_c, 11, 62, 0
25, 581612, Note_on_c, 11, 69, 0
25, 581761, Note_on_c, 11, 62, 114
25, 581774, Note_on_c, 11, 69, 96
25, 581832, Note_on_c, 11, 62, 0
25, 581845, Note_on_c, 11, 69, 0
25, 582017, Note_on_c, 11, 63, 100
25, 582017, Note_on_c, 11, 70, 109
25, 582088, Note_on_c, 11, 63, 0
25, 582088, Note_on_c, 11, 70, 0
25, 582252, Note_on_c, 11, 72, 113
25, 582259, Note_on_c, 11, 63, 114
25, 582395, Note_on_c, 11, 72, 0
25, 582402, Note_on_c, 11, 63, 0
25, 582731, Note_on_c, 11, 69, 101
25, 582732, Note_on_c, 11, 62, 108
25, 582874, Note_on_c, 11, 69, 0
25, 582875, Note_on_c, 11, 62, 0
25, 583211, Note_on_c, 11, 72, 101
25, 583224, Note_on_c, 11, 63, 100
25, 583282, Note_on_c, 11, 72, 0
25, 583295, Note_on_c, 11, 63, 0
25, 583457, Note_on_c, 11, 62, 98
25, 583460, Note_on_c, 11, 69, 102
25, 583528, Note_on_c, 11, 62, 0
25, 583531, Note_on_c, 11, 69, 0
25, 583682, Note_on_c, 11, 69, 99
25, 583697, Note_on_c, 11, 62, 111
25, 583753, Note_on_c, 11, 69, 0
25, 583768, Note_on_c, 11, 62, 0
25, 583928, Note_on_c, 11, 70, 113
25, 583930, Note_on_c, 11, 63, 114
25, 583999, Note_on_c, 11, 70, 0
25, 584001, Note_on_c, 11, 63, 0
25, 584168, Note_on_c, 11, 62, 107
25, 584169, Note_on_c, 11, 69, 98
25, 584239, Note_on_c, 11, 62, 0
25, 584240, Note_on_c, 11, 69, 0
25, 584408, Note_on_c, 11, 69, 114
25, 584423, Note_on_c, 11, 62, 106
25, 584479, Note_on_c, 11, 69, 0
25, 584494, Note_on_c, 11, 62, 0
25, 584642, Note_on_c, 11, 72, 101
25, 584649, Note_on_c, 11, 63, 115
25, 584785, Note_on_c, 11, 72, 0
25, 584792, Note_on_c, 11, 63, 0
25, 585121, Note_on_c, 11, 62, 104
25, 585138, Note_on_c, 11, 69, 102
25, 585192, Note_on_c, 11, 62, 0
25, 585209, Note_on_c, 11, 69, 0
25, 585366, Note_on_c, 11, 63, 103
25, 585369, Note_on_c, 11, 70, 100
25, 585437, Note_on_c, 11, 63, 0
25, 585440, Note_on_c, 11, 70, 0
25, 585600, Note_on_c, 11, 69, 97
25, 585605, Note_on_c, 11, 62, 115
25, 585671, Note_on_c, 11, 69, 0
25, 585676, Note_on_c, 11, 62, 0
25, 585840, Note_on_c, 11, 69, 114
25, 585856, Note_on_c, 11, 62, 113
25, 585911, Note_on_c, 11, 69, 0
25, 585927, Note_on_c, 11, 62, 0
25, 586081, Note_on_c, 11, 72, 99
25, 586104, Note_on_c, 11, 63, 99
25, 586224, Note_on_c, 11, 72, 0
25, 586247, Note_on_c, 11, 63, 0
25, 586575, Note_on_c, 11, 62, 100
25, 586575, Note_on_c, 11, 69, 96
25, 587655, Note_on_c, 11, 62, 0
25, 587655, Note_on_c, 11, 69, 0
25, 588004, Note_on_c, 11, 62, 115
25, 588014, Note_on_c, 11, 81, 114
25, 588017, Note_on_c, 11, 69, 111
25, 588364, Note_on_c, 11, 62, 0
25, 588374, Note_on_c, 11, 81, 0
25, 588377, Note_on_c, 11, 69, 0
25, 588960, Note_on_c, 11, 81, 108
25, 588980, Note_on_c, 11, 69, 96
25, 588982, Note_on_c, 11, 62, 105
25, 589320, Note_on_c, 11, 81, 0
25, 589340, Note_on_c, 11, 69, 0
25, 589342, Note_on_c, 11, 62, 0
25, 589449, Note_on_c, 11, 65, 110
25, 589451, Note_on_c, 11, 69, 103
25, 589512, Note_on_c, 11, 71, 115
25, 589517, Note_on_c, 11, 65, 0
25, 589519, Note_on_c, 11, 69, 0
25, 589532, Note_on_c, 11, 67, 98
25, 589580, Note_on_c, 11, 71, 0
25, 589591, Note_on_c, 11, 72, 98
25, 589598, Note_on_c, 11, 69, 101
25, 589600, Note_on_c, 11, 67, 0
25, 589649, Note_on_c, 11, 74, 96
25, 589659, Note_on_c, 11, 72, 0
25, 589666, Note_on_c, 11, 69, 0
25, 589666, Note_on_c, 11, 71, 109
25, 589717, Note_on_c, 11, 74, 0
25, 589723, Note_on_c, 11, 72, 108
25, 589727, Note_on_c, 11, 76, 100
25, 589734, Note_on_c, 11, 71, 0
25, 589791, Note_on_c, 11, 72, 0
25, 589795, Note_on_c, 11, 76, 0
25, 589801, Note_on_c, 11, 74, 112
25, 589801, Note_on_c, 11, 77, 110
25, 589865, Note_on_c, 11, 76, 96
25, 589867, Note_on_c, 11, 79, 97
25, 589869, Note_on_c, 11, 74, 0
25, 589869, Note_on_c, 11, 77, 0
25, 589926, Note_on_c, 11, 81, 111
25, 589933, Note_on_c, 11, 76, 0
25, 589935, Note_on_c, 11, 79, 0
25, 589944, Note_on_c, 11, 77, 95
25, 589994, Note_on_c, 11, 81, 0
25, 589998, Note_on_c, 11, 83, 95
25, 590005, Note_on_c, 11, 79, 106
25, 590012, Note_on_c, 11, 77, 0
25, 590064, Note_on_c, 11, 84, 108
25, 590066, Note_on_c, 11, 83, 0
25, 590073, Note_on_c, 11, 79, 0
25, 590079, Note_on_c, 11, 81, 97
25, 590132, Note_on_c, 11, 84, 0
25, 590137, Note_on_c, 11, 86, 109
25, 590140, Note_on_c, 11, 83, 100
25, 590147, Note_on_c, 11, 81, 0
25, 590194, Note_on_c, 11, 88, 109
25, 590205, Note_on_c, 11, 86, 0
25, 590208, Note_on_c, 11, 83, 0
25, 590216, Note_on_c, 11, 84, 108
25, 590262, Note_on_c, 11, 88, 0
25, 590274, Note_on_c, 11, 89, 97
25, 590277, Note_on_c, 11, 86, 101
25, 590284, Note_on_c, 11, 84, 0
25, 590338, Note_on_c, 11, 88, 105
25, 590342, Note_on_c, 11, 89, 0
25, 590345, Note_on_c, 11, 86, 0
25, 590355, Note_on_c, 11, 91, 102
25, 590406, Note_on_c, 11, 88, 0
25, 590411, Note_on_c, 11, 93, 113
25, 590420, Note_on_c, 11, 89, 106
25, 590423, Note_on_c, 11, 91, 0
25, 590651, Note_on_c, 11, 93, 0
25, 590660, Note_on_c, 11, 89, 0
25, 593760, Program_c, 11, 45
25, 593761, Note_on_c, 11, 77, 112
25, 593763, Note_on_c, 11, 69, 115
25, 593767, Note_on_c, 11, 81, 107
25, 594241, Note_on_c, 11, 77, 0
25, 594243, Note_on_c, 11, 69, 0
25, 594247, Note_on_c, 11, 81, 0
25, 598081, Note_on_c, 11, 69, 109
25, 598082, Note_on_c, 11, 77, 110
25, 598090, Note_on_c, 11, 81, 117
25, 598561, Note_on_c, 11, 69, 0
25, 598562, Note_on_c, 11, 77, 0
25, 598570, Note_on_c, 11, 81, 0
25, 604320, Program_c, 11, 48
25, 604336, Note_on_c, 11, 79, 91
25, 605055, Note_on_c, 11, 77, 93
25, 605056, Note_on_c, 11, 79, 0
25, 605282, Note_on_c, 11, 76, 98
25, 605295, Note_on_c, 11, 77, 0
25, 605522, Note_on_c, 11, 76, 0
25, 605532, Note_on_c, 11, 74, 87
25, 605762, Note_on_c, 11, 76, 91
25, 605772, Note_on_c, 11, 74, 0
25, 606002, Note_on_c, 11, 76, 0
25, 606017, Note_on_c, 11, 77, 78
25, 606247, Note_on_c, 11, 79, 87
25, 606257, Note_on_c, 11, 77, 0
25, 606727, Note_on_c, 11, 79, 0
25, 606745, Note_on_c, 11, 77, 92
25, 606975, Note_on_c, 11, 76, 96
25, 606985, Note_on_c, 11, 77, 0
25, 607215, Note_on_c, 11, 76, 0
25, 607217, Note_on_c, 11, 74, 84
25, 607683, Note_on_c, 11, 76, 93
25, 607697, Note_on_c, 11, 74, 0
25, 607921, Note_on_c, 11, 77, 85
25, 607923, Note_on_c, 11, 76, 0
25, 608161, Note_on_c, 11, 77, 0
25, 608172, Note_on_c, 11, 79, 92
25, 608884, Note_on_c, 11, 77, 89
25, 608892, Note_on_c, 11, 79, 0
25, 609124, Note_on_c, 11, 77, 0
25, 609130, Note_on_c, 11, 76, 90
25, 609366, Note_on_c, 11, 74, 90
25, 609370, Note_on_c, 11, 76, 0
25, 609601, Note_on_c, 11, 76, 79
25, 609606, Note_on_c, 11, 74, 0
25, 609841, Note_on_c, 11, 76, 0
25, 609847, Note_on_c, 11, 77, 85
25, 610087, Note_on_c, 11, 77, 0
25, 610087, Note_on_c, 11, 79, 91
25, 610807, Note_on_c, 11, 79, 0
25, 610814, Note_on_c, 11, 77, 82
25, 611050, Note_on_c, 11, 76, 79
25, 611054, Note_on_c, 11, 77, 0
25, 611290, Note_on_c, 11, 76, 0
25, 611292, Note_on_c, 11, 74, 94
25, 611532, Note_on_c, 11, 74, 0
25, 611537, Note_on_c, 11, 76, 80
25, 611762, Note_on_c, 11, 77, 98
25, 611777, Note_on_c, 11, 76, 0
25, 612002, Note_on_c, 11, 77, 0
25, 612022, Note_on_c, 11, 79, 79
25, 612483, Note_on_c, 11, 77, 87
25, 612502, Note_on_c, 11, 79, 0
25, 612723, Note_on_c, 11, 77, 0
25, 612727, Note_on_c, 11, 76, 96
25, 612967, Note_on_c, 11, 76, 0
25, 612979, Note_on_c, 11, 74, 98
25, 613454, Note_on_c, 11, 76, 90
25, 613459, Note_on_c, 11, 74, 0
25, 613694, Note_on_c, 11, 76, 0
25, 613701, Note_on_c, 11, 77, 81
25, 613939, Note_on_c, 11, 81, 105
25, 613941, Note_on_c, 11, 77, 0
25, 613942, Note_on_c, 11, 76, 106
25, 614649, Note_on_c, 11, 81, 95
25, 614657, Note_on_c, 11, 74, 103
25, 614659, Note_on_c, 11, 81, 0
25, 614662, Note_on_c, 11, 76, 0
25, 614881, Note_on_c, 11, 81, 101
25, 614889, Note_on_c, 11, 81, 0
25, 614897, Note_on_c, 11, 74, 0
25, 614898, Note_on_c, 11, 72, 103
25, 615121, Note_on_c, 11, 81, 0
25, 615125, Note_on_c, 11, 70, 106
25, 615138, Note_on_c, 11, 72, 0
25, 615138, Note_on_c, 11, 81, 96
25, 615362, Note_on_c, 11, 81, 110
25, 615365, Note_on_c, 11, 70, 0
25, 615374, Note_on_c, 11, 72, 111
25, 615378, Note_on_c, 11, 81, 0
25, 615602, Note_on_c, 11, 81, 0
25, 615604, Note_on_c, 11, 81, 91
25, 615614, Note_on_c, 11, 72, 0
25, 615614, Note_on_c, 11, 74, 95
25, 615844, Note_on_c, 11, 81, 0
25, 615844, Note_on_c, 11, 76, 91
25, 615854, Note_on_c, 11, 74, 0
25, 615863, Note_on_c, 11, 81, 98
25, 616324, Note_on_c, 11, 76, 0
25, 616330, Note_on_c, 11, 74, 95
25, 616331, Note_on_c, 11, 81, 93
25, 616343, Note_on_c, 11, 81, 0
25, 616570, Note_on_c, 11, 74, 0
25, 616571, Note_on_c, 11, 81, 0
25, 616572, Note_on_c, 11, 72, 103
25, 616584, Note_on_c, 11, 81, 101
25, 616808, Note_on_c, 11, 81, 94
25, 616812, Note_on_c, 11, 72, 0
25, 616820, Note_on_c, 11, 70, 97
25, 616824, Note_on_c, 11, 81, 0
25, 617288, Note_on_c, 11, 81, 0
25, 617293, Note_on_c, 11, 81, 97
25, 617299, Note_on_c, 11, 72, 107
25, 617300, Note_on_c, 11, 70, 0
25, 617523, Note_on_c, 11, 74, 109
25, 617531, Note_on_c, 11, 81, 94
25, 617533, Note_on_c, 11, 81, 0
25, 617539, Note_on_c, 11, 72, 0
25, 617763, Note_on_c, 11, 74, 0
25, 617771, Note_on_c, 11, 81, 0
25, 617775, Note_on_c, 11, 81, 93
25, 617781, Note_on_c, 11, 76, 101
25, 618253, Note_on_c, 11, 74, 93
25, 618255, Note_on_c, 11, 81, 0
25, 618261, Note_on_c, 11, 76, 0
25, 618263, Note_on_c, 11, 81, 101
25, 618490, Note_on_c, 11, 72, 93
25, 618493, Note_on_c, 11, 74, 0
25, 618494, Note_on_c, 11, 81, 108
25, 618503, Note_on_c, 11, 81, 0
25, 618730, Note_on_c, 11, 72, 0
25, 618734, Note_on_c, 11, 81, 0
25, 618744, Note_on_c, 11, 70, 109
25, 618744, Note_on_c, 11, 81, 109
25, 619206, Note_on_c, 11, 81, 103
25, 619223, Note_on_c, 11, 72, 99
25, 619224, Note_on_c, 11, 70, 0
25, 619224, Note_on_c, 11, 81, 0
25, 619446, Note_on_c, 11, 81, 0
25, 619448, Note_on_c, 11, 81, 94
25, 619462, Note_on_c, 11, 74, 95
25, 619463, Note_on_c, 11, 72, 0
25, 619685, Note_on_c, 11, 81, 94
25, 619688, Note_on_c, 11, 81, 0
25, 619695, Note_on_c, 11, 76, 102
25, 619702, Note_on_c, 11, 74, 0
25, 620405, Note_on_c, 11, 81, 0
25, 620406, Note_on_c, 11, 74, 99
25, 620411, Note_on_c, 11, 81, 96
25, 620415, Note_on_c, 11, 76, 0
25, 620641, Note_on_c, 11, 81, 99
25, 620646, Note_on_c, 11, 74, 0
25, 620651, Note_on_c, 11, 81, 0
25, 620658, Note_on_c, 11, 72, 100
25, 620881, Note_on_c, 11, 81, 0
25, 620884, Note_on_c, 11, 81, 100
25, 620898, Note_on_c, 11, 72, 0
25, 620903, Note_on_c, 11, 70, 99
25, 621121, Note_on_c, 11, 72, 110
25, 621121, Note_on_c, 11, 81, 99
25, 621124, Note_on_c, 11, 81, 0
25, 621143, Note_on_c, 11, 70, 0
25, 621360, Note_on_c, 11, 74, 111
25, 621361, Note_on_c, 11, 72, 0
25, 621361, Note_on_c, 11, 81, 0
25, 621380, Note_on_c, 11, 81, 102
25, 621600, Note_on_c, 11, 74, 0
25, 621612, Note_on_c, 11, 81, 99
25, 621620, Note_on_c, 11, 81, 0
25, 621622, Note_on_c, 11, 76, 98
25, 622092, Note_on_c, 11, 81, 0
25, 622093, Note_on_c, 11, 81, 92
25, 622102, Note_on_c, 11, 76, 0
25, 622104, Note_on_c, 11, 74, 92
25, 622331, Note_on_c, 11, 81, 105
25, 622333, Note_on_c, 11, 81, 0
25, 622336, Note_on_c, 11, 72, 101
25, 622344, Note_on_c, 11, 74, 0
25, 622571, Note_on_c, 11, 81, 0
25, 622576, Note_on_c, 11, 72, 0
25, 622578, Note_on_c, 11, 70, 95
25, 622584, Note_on_c, 11, 81, 102
25, 623058, Note_on_c, 11, 70, 0
25, 623064, Note_on_c, 11, 81, 0
25, 623271, Control_c, 11, 101, 0
25, 623272, Control_c, 11, 100, 0
25, 623273, Control_c, 11, 6, 12
25, 623274, Control_c, 11, 38, 0
25, 623400, Control_c, 11, 36, 12
25, 623996, Pitch_bend_c, 11, 8192
25, 624003, Pitch_bend_c, 11, 8512
25, 624009, Pitch_bend_c, 11, 8832
25, 624010, Note_on_c, 11, 77, 109
25, 624015, Pitch_bend_c, 11, 9152
25, 624021, Pitch_bend_c, 11, 9472
25, 624028, Pitch_bend_c, 11, 9792
25, 624034, Pitch_bend_c, 11, 10112
25, 624041, Pitch_bend_c, 11, 10432
25, 624046, Pitch_bend_c, 11, 10752
25, 624053, Pitch_bend_c, 11, 11072
25, 624060, Pitch_bend_c, 11, 11392
25, 624066, Pitch_bend_c, 11, 11712
25, 624073, Pitch_bend_c, 11, 12032
25, 624078, Pitch_bend_c, 11, 12352
25, 624085, Pitch_bend_c, 11, 12672
25, 624091, Pitch_bend_c, 11, 12992
25, 624098, Pitch_bend_c, 11, 13312
25, 624104, Pitch_bend_c, 11, 13632
25, 624110, Pitch_bend_c, 11, 13952
25, 624116, Pitch_bend_c, 11, 14272
25, 624123, Pitch_bend_c, 11, 14592
25, 624130, Pitch_bend_c, 11, 14912
25, 624136, Pitch_bend_c, 11, 15232
25, 624142, Pitch_bend_c, 11, 15552
25, 624330, Note_on_c, 11, 77, 0
25, 625440, Pitch_bend_c, 11, 8192
25, 654262, Note_on_c, 11, 77, 106
25, 654341, Note_on_c, 11, 78, 115
25, 654382, Note_on_c, 11, 77, 0
25, 654422, Note_on_c, 11, 77, 109
25, 654459, Note_on_c, 11, 78, 0
25, 654488, Note_on_c, 11, 78, 117
25, 654542, Note_on_c, 11, 77, 0
25, 654570, Note_on_c, 11, 77, 121
25, 654608, Note_on_c, 11, 78, 0
25, 654661, Note_on_c, 11, 78, 121
25, 654688, Note_on_c, 11, 77, 0
25, 654725, Note_on_c, 11, 75, 121
25, 654781, Note_on_c, 11, 78, 0
25, 654825, Note_on_c, 11, 77, 124
25, 654845, Note_on_c, 11, 75, 0
25, 654904, Note_on_c, 11, 75, 119
25, 654943, Note_on_c, 11, 77, 0
25, 654971, Note_on_c, 11, 77, 110
25, 655024, Note_on_c, 11, 75, 0
25, 655040, Note_on_c, 11, 75, 113
25, 655091, Note_on_c, 11, 77, 0
25, 655127, Note_on_c, 11, 77, 118
25, 655158, Note_on_c, 11, 75, 0
25, 655214, Note_on_c, 11, 73, 121
25, 655247, Note_on_c, 11, 77, 0
25, 655291, Note_on_c, 11, 74, 115
25, 655334, Note_on_c, 11, 73, 0
25, 655364, Note_on_c, 11, 73, 120
25, 655409, Note_on_c, 11, 74, 0
25, 655461, Note_on_c, 11, 74, 104
25, 655484, Note_on_c, 11, 73, 0
25, 655537, Note_on_c, 11, 73, 116
25, 655581, Note_on_c, 11, 74, 0
25, 655604, Note_on_c, 11, 74, 124
25, 655655, Note_on_c, 11, 73, 0
25, 655704, Note_on_c, 11, 71, 120
25, 655724, Note_on_c, 11, 74, 0
25, 655767, Note_on_c, 11, 73, 106
25, 655824, Note_on_c, 11, 71, 0
25, 655843, Note_on_c, 11, 71, 107
25, 655885, Note_on_c, 11, 73, 0
25, 655939, Note_on_c, 11, 73, 120
25, 655963, Note_on_c, 11, 71, 0
25, 656008, Note_on_c, 11, 71, 123
25, 656059, Note_on_c, 11, 73, 0
25, 656086, Note_on_c, 11, 73, 118
25, 656126, Note_on_c, 11, 71, 0
25, 656181, Note_on_c, 11, 79, 114
25, 656206, Note_on_c, 11, 73, 0
25, 656261, Note_on_c, 11, 80, 104
25, 656301, Note_on_c, 11, 79, 0
25, 656320, Note_on_c, 11, 79, 111
25, 656379, Note_on_c, 11, 80, 0
25, 656418, Note_on_c, 11, 80, 107
25, 656440, Note_on_c, 11, 79, 0
25, 656484, Note_on_c, 11, 79, 120
25, 656538, Note_on_c, 11, 80, 0
25, 656578, Note_on_c, 11, 80, 105
25, 656602, Note_on_c, 11, 79, 0
25, 656644, Note_on_c, 11, 78, 110
25, 656698, Note_on_c, 11, 80, 0
25, 656721, Note_on_c, 11, 80, 111
25, 656764, Note_on_c, 11, 78, 0
25, 656805, Note_on_c, 11, 78, 114
25, 656839, Note_on_c, 11, 80, 0
25, 656882, Note_on_c, 11, 80, 116
25, 656925, Note_on_c, 11, 78, 0
25, 656972, Note_on_c, 11, 78, 114
25, 657002, Note_on_c, 11, 80, 0
25, 657048, Note_on_c, 11, 80, 112
25, 657090, Note_on_c, 11, 78, 0
25, 657137, Note_on_c, 11, 76, 121
25, 657168, Note_on_c, 11, 80, 0
25, 657215, Note_on_c, 11, 77, 113
25, 657257, Note_on_c, 11, 76, 0
25, 657283, Note_on_c, 11, 76, 107
25, 657333, Note_on_c, 11, 77, 0
25, 657382, Note_on_c, 11, 77, 109
25, 657403, Note_on_c, 11, 76, 0
25, 657461, Note_on_c, 11, 76, 121
25, 657502, Note_on_c, 11, 77, 0
25, 657544, Note_on_c, 11, 77, 122
25, 657579, Note_on_c, 11, 76, 0
25, 657604, Note_on_c, 11, 75, 116
25, 657664, Note_on_c, 11, 77, 0
25, 657705, Note_on_c, 11, 77, 115
25, 657724, Note_on_c, 11, 75, 0
25, 657763, Note_on_c, 11, 75, 117
25, 657823, Note_on_c, 11, 77, 0
25, 657863, Note_on_c, 11, 77, 117
25, 657883, Note_on_c, 11, 75, 0
25, 657920, Note_on_c, 11, 75, 121
25, 657983, Note_on_c, 11, 77, 0
25, 658001, Note_on_c, 11, 77, 114
25, 658038, Note_on_c, 11, 75, 0
25, 658099, Note_on_c, 11, 77, 116
25, 658121, Note_on_c, 11, 77, 0
25, 658173, Note_on_c, 11, 78, 105
25, 658219, Note_on_c, 11, 77, 0
25, 658261, Note_on_c, 11, 77, 122
25, 658291, Note_on_c, 11, 78, 0
25, 658345, Note_on_c, 11, 78, 107
25, 658381, Note_on_c, 11, 77, 0
25, 658405, Note_on_c, 11, 77, 120
25, 658465, Note_on_c, 11, 78, 0
25, 658496, Note_on_c, 11, 78, 112
25, 658523, Note_on_c, 11, 77, 0
25, 658583, Note_on_c, 11, 75, 112
25, 658616, Note_on_c, 11, 78, 0
25, 658654, Note_on_c, 11, 77, 112
25, 658703, Note_on_c, 11, 75, 0
25, 658740, Note_on_c, 11, 75, 124
25, 658772, Note_on_c, 11, 77, 0
25, 658802, Note_on_c, 11, 77, 117
25, 658860, Note_on_c, 11, 75, 0
25, 658886, Note_on_c, 11, 75, 113
25, 658922, Note_on_c, 11, 77, 0
25, 658965, Note_on_c, 11, 77, 113
25, 659004, Note_on_c, 11, 75, 0
25, 659064, Note_on_c, 11, 73, 116
25, 659085, Note_on_c, 11, 77, 0
25, 659140, Note_on_c, 11, 74, 106
25, 659184, Note_on_c, 11, 73, 0
25, 659199, Note_on_c, 11, 73, 107
25, 659258, Note_on_c, 11, 74, 0
25, 659291, Note_on_c, 11, 74, 111
25, 659319, Note_on_c, 11, 73, 0
25, 659383, Note_on_c, 11, 73, 116
25, 659411, Note_on_c, 11, 74, 0
25, 659462, Note_on_c, 11, 74, 104
25, 659501, Note_on_c, 11, 73, 0
25, 659521, Note_on_c, 11, 72, 120
25, 659582, Note_on_c, 11, 74, 0
25, 659607, Note_on_c, 11, 73, 106
25, 659641, Note_on_c, 11, 72, 0
25, 659680, Note_on_c, 11, 72, 111
25, 659725, Note_on_c, 11, 73, 0
25, 659763, Note_on_c, 11, 73, 122
25, 659800, Note_on_c, 11, 72, 0
25, 659864, Note_on_c, 11, 72, 107
25, 659883, Note_on_c, 11, 73, 0
25, 659929, Note_on_c, 11, 73, 122
25, 659982, Note_on_c, 11, 72, 0
25, 660016, Note_on_c, 11, 79, 105
25, 660049, Note_on_c, 11, 73, 0
25, 660085, Note_on_c, 11, 80, 108
25, 660136, Note_on_c, 11, 79, 0
25, 660177, Note_on_c, 11, 79, 117
25, 660203, Note_on_c, 11, 80, 0
25, 660243, Note_on_c, 11, 80, 107
25, 660297, Note_on_c, 11, 79, 0
25, 660333, Note_on_c, 11, 79, 121
25, 660363, Note_on_c, 11, 80, 0
25, 660412, Note_on_c, 11, 80, 114
25, 660451, Note_on_c, 11, 79, 0
25, 660496, Note_on_c, 11, 78, 115
25, 660532, Note_on_c, 11, 80, 0
25, 660578, Note_on_c, 11, 80, 109
25, 660616, Note_on_c, 11, 78, 0
25, 660664, Note_on_c, 11, 78, 108
25, 660696, Note_on_c, 11, 80, 0
25, 660745, Note_on_c, 11, 80, 106
25, 660784, Note_on_c, 11, 78, 0
25, 660813, Note_on_c, 11, 78, 108
25, 660865, Note_on_c, 11, 80, 0
25, 660897, Note_on_c, 11, 80, 117
25, 660931, Note_on_c, 11, 78, 0
25, 660977, Note_on_c, 11, 76, 122
25, 661017, Note_on_c, 11, 80, 0
25, 661059, Note_on_c, 11, 77, 122
25, 661097, Note_on_c, 11, 76, 0
25, 661144, Note_on_c, 11, 76, 120
25, 661177, Note_on_c, 11, 77, 0
25, 661212, Note_on_c, 11, 77, 104
25, 661264, Note_on_c, 11, 76, 0
25, 661286, Note_on_c, 11, 76, 115
25, 661332, Note_on_c, 11, 77, 0
25, 661377, Note_on_c, 11, 77, 110
25, 661404, Note_on_c, 11, 76, 0
25, 661454, Note_on_c, 11, 75, 115
25, 661497, Note_on_c, 11, 77, 0
25, 661525, Note_on_c, 11, 77, 106
25, 661574, Note_on_c, 11, 75, 0
25, 661611, Note_on_c, 11, 75, 107
25, 661643, Note_on_c, 11, 77, 0
25, 661681, Note_on_c, 11, 77, 107
25, 661731, Note_on_c, 11, 75, 0
25, 661783, Note_on_c, 11, 75, 114
25, 661801, Note_on_c, 11, 77, 0
25, 661845, Note_on_c, 11, 77, 107
25, 661901, Note_on_c, 11, 75, 0
25, 661915, Note_on_c, 11, 77, 0
25, 661945, Note_on_c, 11, 77, 108
25, 662003, Note_on_c, 11, 78, 121
25, 662065, Note_on_c, 11, 77, 0
25, 662087, Note_on_c, 11, 77, 124
25, 662121, Note_on_c, 11, 78, 0
25, 662174, Note_on_c, 11, 78, 118
25, 662207, Note_on_c, 11, 77, 0
25, 662259, Note_on_c, 11, 77, 120
25, 662294, Note_on_c, 11, 78, 0
25, 662328, Note_on_c, 11, 78, 124
25, 662377, Note_on_c, 11, 77, 0
25, 662407, Note_on_c, 11, 75, 105
25, 662448, Note_on_c, 11, 78, 0
25, 662490, Note_on_c, 11, 77, 108
25, 662527, Note_on_c, 11, 75, 0
25, 662560, Note_on_c, 11, 75, 118
25, 662608, Note_on_c, 11, 77, 0
25, 662645, Note_on_c, 11, 77, 123
25, 662680, Note_on_c, 11, 75, 0
25, 662736, Note_on_c, 11, 75, 105
25, 662765, Note_on_c, 11, 77, 0
25, 662822, Note_on_c, 11, 77, 108
25, 662854, Note_on_c, 11, 75, 0
25, 662891, Note_on_c, 11, 73, 104
25, 662942, Note_on_c, 11, 77, 0
25, 662982, Note_on_c, 11, 74, 110
25, 663011, Note_on_c, 11, 73, 0
25, 663047, Note_on_c, 11, 73, 123
25, 663100, Note_on_c, 11, 74, 0
25, 663142, Note_on_c, 11, 74, 110
25, 663167, Note_on_c, 11, 73, 0
25, 663222, Note_on_c, 11, 73, 116
25, 663262, Note_on_c, 11, 74, 0
25, 663283, Note_on_c, 11, 74, 109
25, 663340, Note_on_c, 11, 73, 0
25, 663374, Note_on_c, 11, 72, 106
25, 663403, Note_on_c, 11, 74, 0
25, 663456, Note_on_c, 11, 73, 105
25, 663494, Note_on_c, 11, 72, 0
25, 663529, Note_on_c, 11, 72, 124
25, 663574, Note_on_c, 11, 73, 0
25, 663617, Note_on_c, 11, 73, 113
25, 663649, Note_on_c, 11, 72, 0
25, 663697, Note_on_c, 11, 72, 113
25, 663737, Note_on_c, 11, 73, 0
25, 663784, Note_on_c, 11, 73, 124
25, 663815, Note_on_c, 11, 72, 0
25, 663861, Note_on_c, 11, 79, 121
25, 663904, Note_on_c, 11, 73, 0
25, 663942, Note_on_c, 11, 80, 109
25, 663981, Note_on_c, 11, 79, 0
25, 664014, Note_on_c, 11, 79, 107
25, 664060, Note_on_c, 11, 80, 0
25, 664104, Note_on_c, 11, 80, 113
25, 664134, Note_on_c, 11, 79, 0
25, 664181, Note_on_c, 11, 79, 111
25, 664224, Note_on_c, 11, 80, 0
25, 664253, Note_on_c, 11, 80, 109
25, 664299, Note_on_c, 11, 79, 0
25, 664322, Note_on_c, 11, 78, 111
25, 664373, Note_on_c, 11, 80, 0
25, 664407, Note_on_c, 11, 80, 110
25, 664442, Note_on_c, 11, 78, 0
25, 664492, Note_on_c, 11, 78, 108
25, 664525, Note_on_c, 11, 80, 0
25, 664584, Note_on_c, 11, 80, 120
25, 664612, Note_on_c, 11, 78, 0
25, 664641, Note_on_c, 11, 78, 124
25, 664704, Note_on_c, 11, 80, 0
25, 664744, Note_on_c, 11, 80, 112
25, 664759, Note_on_c, 11, 78, 0
25, 664806, Note_on_c, 11, 76, 110
25, 664864, Note_on_c, 11, 80, 0
25, 664901, Note_on_c, 11, 77, 104
25, 664926, Note_on_c, 11, 76, 0
25, 664977, Note_on_c, 11, 76, 104
25, 665019, Note_on_c, 11, 77, 0
25, 665059, Note_on_c, 11, 77, 104
25, 665097, Note_on_c, 11, 76, 0
25, 665140, Note_on_c, 11, 76, 117
25, 665179, Note_on_c, 11, 77, 0
25, 665207, Note_on_c, 11, 77, 106
25, 665258, Note_on_c, 11, 76, 0
25, 665284, Note_on_c, 11, 75, 119
25, 665327, Note_on_c, 11, 77, 0
25, 665385, Note_on_c, 11, 77, 118
25, 665404, Note_on_c, 11, 75, 0
25, 665444, Note_on_c, 11, 75, 108
25, 665503, Note_on_c, 11, 77, 0
25, 665530, Note_on_c, 11, 77, 111
25, 665564, Note_on_c, 11, 75, 0
25, 665603, Note_on_c, 11, 75, 106
25, 665650, Note_on_c, 11, 77, 0
25, 665701, Note_on_c, 11, 77, 104
25, 665721, Note_on_c, 11, 75, 0
25, 665782, Note_on_c, 11, 68, 120
25, 665785, Note_on_c, 11, 62, 122
25, 665821, Note_on_c, 11, 77, 0
25, 666010, Note_on_c, 11, 65, 106
25, 666021, Note_on_c, 11, 59, 104
25, 666022, Note_on_c, 11, 68, 0
25, 666025, Note_on_c, 11, 62, 0
25, 666250, Note_on_c, 11, 65, 0
25, 666255, Note_on_c, 11, 63, 116
25, 666261, Note_on_c, 11, 59, 0
25, 666264, Note_on_c, 11, 69, 107
25, 666495, Note_on_c, 11, 63, 0
25, 666501, Note_on_c, 11, 60, 108
25, 666502, Note_on_c, 11, 66, 110
25, 666504, Note_on_c, 11, 69, 0
25, 666721, Note_on_c, 11, 64, 114
25, 666721, Note_on_c, 11, 70, 111
25, 666741, Note_on_c, 11, 60, 0
25, 666742, Note_on_c, 11, 66, 0
25, 666961, Note_on_c, 11, 64, 0
25, 666961, Note_on_c, 11, 70, 0
25, 666964, Note_on_c, 11, 61, 122
25, 666969, Note_on_c, 11, 67, 106
25, 667202, Note_on_c, 11, 71, 110
25, 667204, Note_on_c, 11, 61, 0
25, 667209, Note_on_c, 11, 67, 0
25, 667211, Note_on_c, 11, 65, 110
25, 667442, Note_on_c, 11, 71, 0
25, 667446, Note_on_c, 11, 68, 116
25, 667449, Note_on_c, 11, 62, 114
25, 667451, Note_on_c, 11, 65, 0
25, 667686, Note_on_c, 11, 68, 0
25, 667689, Note_on_c, 11, 62, 0
25, 667692, Note_on_c, 11, 65, 110
25, 667699, Note_on_c, 11, 71, 104
25, 667921, Note_on_c, 11, 67, 111
25, 667923, Note_on_c, 11, 62, 121
25, 667932, Note_on_c, 11, 65, 0
25, 667939, Note_on_c, 11, 71, 0
25, 668161, Note_on_c, 11, 67, 0
25, 668163, Note_on_c, 11, 62, 0
25, 668173, Note_on_c, 11, 66, 118
25, 668183, Note_on_c, 11, 72, 114
25, 668409, Note_on_c, 11, 63, 118
25, 668409, Note_on_c, 11, 68, 117
25, 668413, Note_on_c, 11, 66, 0
25, 668423, Note_on_c, 11, 72, 0
25, 668644, Note_on_c, 11, 73, 116
25, 668649, Note_on_c, 11, 63, 0
25, 668649, Note_on_c, 11, 68, 0
25, 668649, Note_on_c, 11, 67, 110
25, 668884, Note_on_c, 11, 73, 0
25, 668889, Note_on_c, 11, 67, 0
25, 668893, Note_on_c, 11, 69, 113
25, 668897, Note_on_c, 11, 64, 111
25, 669127, Note_on_c, 11, 75, 117
25, 669133, Note_on_c, 11, 69, 0
25, 669134, Note_on_c, 11, 69, 117
25, 669137, Note_on_c, 11, 64, 0
25, 669367, Note_on_c, 11, 75, 0
25, 669374, Note_on_c, 11, 69, 0
25, 669378, Note_on_c, 11, 66, 113
25, 669384, Note_on_c, 11, 71, 116
25, 669603, Note_on_c, 11, 71, 109
25, 669617, Note_on_c, 11, 65, 114
25, 669618, Note_on_c, 11, 66, 0
25, 669624, Note_on_c, 11, 71, 0
25, 669843, Note_on_c, 11, 71, 0
25, 669845, Note_on_c, 11, 68, 113
25, 669850, Note_on_c, 11, 62, 113
25, 669857, Note_on_c, 11, 65, 0
25, 670085, Note_on_c, 11, 68, 0
25, 670090, Note_on_c, 11, 62, 0
25, 670101, Note_on_c, 11, 72, 108
25, 670105, Note_on_c, 11, 66, 118
25, 670322, Note_on_c, 11, 69, 115
25, 670341, Note_on_c, 11, 72, 0
25, 670341, Note_on_c, 11, 63, 122
25, 670345, Note_on_c, 11, 66, 0
25, 670560, Note_on_c, 11, 73, 123
25, 670562, Note_on_c, 11, 69, 0
25, 670573, Note_on_c, 11, 67, 118
25, 670581, Note_on_c, 11, 63, 0
25, 670800, Note_on_c, 11, 73, 0
25, 670803, Note_on_c, 11, 64, 116
25, 670813, Note_on_c, 11, 67, 0
25, 670823, Note_on_c, 11, 70, 108
25, 671043, Note_on_c, 11, 64, 0
25, 671045, Note_on_c, 11, 68, 109
25, 671047, Note_on_c, 11, 74, 104
25, 671063, Note_on_c, 11, 70, 0
25, 671285, Note_on_c, 11, 68, 0
25, 671285, Note_on_c, 11, 65, 108
25, 671287, Note_on_c, 11, 74, 0
25, 671305, Note_on_c, 11, 71, 124
25, 671525, Note_on_c, 11, 65, 0
25, 671526, Note_on_c, 11, 74, 115
25, 671537, Note_on_c, 11, 67, 105
25, 671545, Note_on_c, 11, 71, 0
25, 671766, Note_on_c, 11, 74, 0
25, 671777, Note_on_c, 11, 67, 0
25, 671777, Note_on_c, 11, 65, 124
25, 671779, Note_on_c, 11, 71, 116
25, 672017, Note_on_c, 11, 65, 0
25, 672019, Note_on_c, 11, 71, 0
25, 672019, Note_on_c, 11, 75, 110
25, 672024, Note_on_c, 11, 68, 124
25, 672243, Note_on_c, 11, 72, 111
25, 672259, Note_on_c, 11, 75, 0
25, 672264, Note_on_c, 11, 68, 0
25, 672264, Note_on_c, 11, 66, 104
25, 672483, Note_on_c, 11, 72, 0
25, 672486, Note_on_c, 11, 69, 104
25, 672498, Note_on_c, 11, 76, 108
25, 672504, Note_on_c, 11, 66, 0
25, 672726, Note_on_c, 11, 69, 0
25, 672727, Note_on_c, 11, 73, 123
25, 672735, Note_on_c, 11, 67, 124
25, 672738, Note_on_c, 11, 76, 0
25, 672967, Note_on_c, 11, 73, 0
25, 672974, Note_on_c, 11, 71, 108
25, 672974, Note_on_c, 11, 78, 111
25, 672975, Note_on_c, 11, 67, 0
25, 673208, Note_on_c, 11, 69, 107
25, 673212, Note_on_c, 11, 75, 119
25, 673214, Note_on_c, 11, 71, 0
25, 673214, Note_on_c, 11, 78, 0
25, 673445, Note_on_c, 11, 68, 119
25, 673448, Note_on_c, 11, 69, 0
25, 673449, Note_on_c, 11, 74, 124
25, 673452, Note_on_c, 11, 75, 0
25, 673685, Note_on_c, 11, 68, 0
25, 673689, Note_on_c, 11, 74, 0
25, 673692, Note_on_c, 11, 65, 105
25, 673700, Note_on_c, 11, 71, 112
25, 673929, Note_on_c, 11, 75, 111
25, 673932, Note_on_c, 11, 65, 0
25, 673935, Note_on_c, 11, 69, 122
25, 673940, Note_on_c, 11, 71, 0
25, 674169, Note_on_c, 11, 75, 0
25, 674175, Note_on_c, 11, 69, 0
25, 674175, Note_on_c, 11, 73, 116
25, 674180, Note_on_c, 11, 66, 108
25, 674414, Note_on_c, 11, 70, 110
25, 674415, Note_on_c, 11, 73, 0
25, 674420, Note_on_c, 11, 66, 0
25, 674422, Note_on_c, 11, 76, 114
25, 674654, Note_on_c, 11, 70, 0
25, 674655, Note_on_c, 11, 73, 121
25, 674657, Note_on_c, 11, 67, 124
25, 674662, Note_on_c, 11, 76, 0
25, 674892, Note_on_c, 11, 71, 117
25, 674892, Note_on_c, 11, 77, 112
25, 674895, Note_on_c, 11, 73, 0
25, 674897, Note_on_c, 11, 67, 0
25, 675127, Note_on_c, 11, 74, 113
25, 675132, Note_on_c, 11, 71, 0
25, 675132, Note_on_c, 11, 77, 0
25, 675140, Note_on_c, 11, 68, 112
25, 675367, Note_on_c, 11, 74, 0
25, 675373, Note_on_c, 11, 77, 105
25, 675380, Note_on_c, 11, 68, 0
25, 675381, Note_on_c, 11, 71, 121
25, 675612, Note_on_c, 11, 74, 107
25, 675613, Note_on_c, 11, 77, 0
25, 675621, Note_on_c, 11, 71, 0
25, 675625, Note_on_c, 11, 67, 118
25, 675847, Note_on_c, 11, 72, 108
25, 675849, Note_on_c, 11, 78, 110
25, 675852, Note_on_c, 11, 74, 0
25, 675865, Note_on_c, 11, 67, 0
25, 676081, Note_on_c, 11, 75, 120
25, 676087, Note_on_c, 11, 72, 0
25, 676089, Note_on_c, 11, 78, 0
25, 676103, Note_on_c, 11, 68, 113
25, 676321, Note_on_c, 11, 75, 0
25, 676323, Note_on_c, 11, 79, 122
25, 676338, Note_on_c, 11, 73, 115
25, 676343, Note_on_c, 11, 68, 0
25, 676563, Note_on_c, 11, 79, 0
25, 676572, Note_on_c, 11, 76, 114
25, 676577, Note_on_c, 11, 69, 117
25, 676578, Note_on_c, 11, 73, 0
25, 676812, Note_on_c, 11, 76, 0
25, 676817, Note_on_c, 11, 69, 0
25, 676818, Note_on_c, 11, 75, 108
25, 676824, Note_on_c, 11, 81, 112
25, 677058, Note_on_c, 11, 75, 0
25, 677059, Note_on_c, 11, 78, 115
25, 677064, Note_on_c, 11, 81, 0
25, 677065, Note_on_c, 11, 71, 116
25, 677299, Note_on_c, 11, 78, 0
25, 677305, Note_on_c, 11, 71, 0
25, 683040, Program_c, 11, 40
25, 684960, Control_c, 11, 11, 32
25, 684980, Control_c, 11, 11, 33
25, 685000, Control_c, 11, 11, 34
25, 685020, Control_c, 11, 11, 35
25, 685040, Control_c, 11, 11, 36
25, 685061, Control_c, 11, 11, 37
25, 685081, Control_c, 11, 11, 38
25, 685101, Control_c, 11, 11, 39
25, 685121, Control_c, 11, 11, 40
25, 685141, Control_c, 11, 11, 41
25, 685161, Control_c, 11, 11, 42
25, 685181, Control_c, 11, 11, 43
25, 685201, Control_c, 11, 11, 44
25, 685222, Control_c, 11, 11, 45
25, 685243, Control_c, 11, 11, 46
25, 685263, Control_c, 11, 11, 47
25, 685283, Control_c, 11, 11, 48
25, 685303, Control_c, 11, 11, 49
25, 685323, Control_c, 11, 11, 50
25, 685343, Control_c, 11, 11, 51
25, 685363, Control_c, 11, 11, 52
25, 685383, Control_c, 11, 11, 53
25, 685404, Control_c, 11, 11, 54
25, 685425, Control_c, 11, 11, 55
25, 685445, Control_c, 11, 11, 56
25, 685462, Note_on_c, 11, 95, 31
25, 685465, Control_c, 11, 11, 57
25, 685485, Control_c, 11, 11, 58
25, 685505, Control_c, 11, 11, 59
25, 685525, Control_c, 11, 11, 60
25, 685545, Control_c, 11, 11, 61
25, 685565, Control_c, 11, 11, 62
25, 685586, Control_c, 11, 11, 63
25, 685606, Control_c, 11, 11, 64
25, 685626, Control_c, 11, 11, 65
25, 685646, Control_c, 11, 11, 66
25, 685666, Control_c, 11, 11, 67
25, 685687, Control_c, 11, 11, 68
25, 685707, Control_c, 11, 11, 69
25, 685727, Control_c, 11, 11, 70
25, 685748, Control_c, 11, 11, 71
25, 685768, Control_c, 11, 11, 72
25, 685788, Control_c, 11, 11, 73
25, 685808, Control_c, 11, 11, 74
25, 685828, Control_c, 11, 11, 75
25, 685848, Control_c, 11, 11, 76
25, 685869, Control_c, 11, 11, 77
25, 685889, Control_c, 11, 11, 78
25, 685909, Control_c, 11, 11, 79
25, 685930, Control_c, 11, 11, 80
25, 685950, Control_c, 11, 11, 81
25, 685970, Control_c, 11, 11, 82
25, 685990, Control_c, 11, 11, 83
25, 686010, Control_c, 11, 11, 84
25, 686030, Control_c, 11, 11, 85
25, 686051, Control_c, 11, 11, 86
25, 686071, Control_c, 11, 11, 87
25, 686091, Control_c, 11, 11, 88
25, 686111, Control_c, 11, 11, 89
25, 686131, Control_c, 11, 11, 90
25, 686152, Control_c, 11, 11, 91
25, 686172, Control_c, 11, 11, 92
25, 686192, Control_c, 11, 11, 93
25, 686212, Control_c, 11, 11, 94
25, 686233, Control_c, 11, 11, 95
25, 686253, Control_c, 11, 11, 96
25, 686273, Control_c, 11, 11, 97
25, 686293, Control_c, 11, 11, 98
25, 686313, Control_c, 11, 11, 99
25, 686334, Control_c, 11, 11, 100
25, 686354, Control_c, 11, 11, 101
25, 686374, Control_c, 11, 11, 102
25, 686394, Control_c, 11, 11, 103
25, 686415, Control_c, 11, 11, 104
25, 686435, Control_c, 11, 11, 105
25, 686455, Control_c, 11, 11, 106
25, 686475, Control_c, 11, 11, 107
25, 686495, Control_c, 11, 11, 108
25, 686516, Control_c, 11, 11, 109
25, 686536, Control_c, 11, 11, 110
25, 686556, Control_c, 11, 11, 111
25, 686576, Control_c, 11, 11, 112
25, 686596, Control_c, 11, 11, 113
25, 686616, Control_c, 11, 11, 114
25, 686637, Control_c, 11, 11, 115
25, 686657, Control_c, 11, 11, 116
25, 686677, Control_c, 11, 11, 117
25, 686698, Control_c, 11, 11, 118
25, 686718, Control_c, 11, 11, 119
25, 686738, Control_c, 11, 11, 120
25, 686758, Control_c, 11, 11, 121
25, 686778, Control_c, 11, 11, 122
25, 686799, Control_c, 11, 11, 123
25, 686819, Control_c, 11, 11, 124
25, 686839, Control_c, 11, 11, 125
25, 686859, Control_c, 11, 11, 126
25, 686880, Program_c, 11, 48
25, 686902, Note_on_c, 11, 95, 0
25, 688551, Control_c, 11, 101, 0
25, 688552, Control_c, 11, 100, 0
25, 688553, Control_c, 11, 6, 24
25, 688554, Control_c, 11, 38, 0
25, 688680, Control_c, 11, 36, 12
25, 689284, Note_on_c, 11, 55, 92
25, 689303, Pitch_bend_c, 11, 8512
25, 689325, Pitch_bend_c, 11, 8832
25, 689346, Pitch_bend_c, 11, 9152
25, 689368, Pitch_bend_c, 11, 9472
25, 689388, Pitch_bend_c, 11, 9792
25, 689410, Pitch_bend_c, 11, 10112
25, 689431, Pitch_bend_c, 11, 10432
25, 689453, Pitch_bend_c, 11, 10752
25, 689474, Pitch_bend_c, 11, 11072
25, 689495, Pitch_bend_c, 11, 11392
25, 689516, Pitch_bend_c, 11, 11712
25, 689538, Pitch_bend_c, 11, 12032
25, 689559, Pitch_bend_c, 11, 12352
25, 689580, Pitch_bend_c, 11, 12672
25, 689602, Pitch_bend_c, 11, 12992
25, 689623, Pitch_bend_c, 11, 13312
25, 689645, Pitch_bend_c, 11, 13632
25, 689666, Pitch_bend_c, 11, 13952
25, 689686, Pitch_bend_c, 11, 14272
25, 689708, Pitch_bend_c, 11, 14592
25, 689730, Pitch_bend_c, 11, 14912
25, 689751, Pitch_bend_c, 11, 15232
25, 689754, Pitch_bend_c, 11, 8192
25, 689764, Note_on_c, 11, 55, 0
25, 690247, Note_on_c, 11, 67, 109
25, 690250, Note_on_c, 11, 72, 95
25, 690263, Note_on_c, 11, 79, 99
25, 690607, Note_on_c, 11, 67, 0
25, 690610, Note_on_c, 11, 72, 0
25, 690623, Note_on_c, 11, 79, 0
25, 691209, Note_on_c, 11, 67, 111
25, 691209, Note_on_c, 11, 79, 106
25, 691211, Note_on_c, 11, 72, 102
25, 691569, Note_on_c, 11, 67, 0
25, 691569, Note_on_c, 11, 79, 0
25, 691571, Note_on_c, 11, 72, 0
25, 692412, Note_on_c, 11, 67, 101
25, 692423, Note_on_c, 11, 72, 96
25, 692424, Note_on_c, 11, 79, 115
25, 692652, Note_on_c, 11, 67, 0
25, 692663, Note_on_c, 11, 72, 0
25, 692664, Note_on_c, 11, 79, 0
25, 693142, Note_on_c, 11, 79, 99
25, 693143, Note_on_c, 11, 72, 108
25, 693144, Note_on_c, 11, 67, 96
25, 693502, Note_on_c, 11, 79, 0
25, 693503, Note_on_c, 11, 72, 0
25, 693504, Note_on_c, 11, 67, 0
25, 694082, Note_on_c, 11, 78, 101
25, 694096, Note_on_c, 11, 81, 98
25, 694103, Note_on_c, 11, 69, 104
25, 694442, Note_on_c, 11, 78, 0
25, 694456, Note_on_c, 11, 81, 0
25, 694463, Note_on_c, 11, 69, 0
25, 694570, Note_on_c, 11, 81, 101
25, 694580, Note_on_c, 11, 69, 103
25, 694930, Note_on_c, 11, 81, 0
25, 694940, Note_on_c, 11, 69, 0
25, 695529, Note_on_c, 11, 69, 96
25, 695530, Note_on_c, 11, 81, 106
25, 695539, Note_on_c, 11, 78, 96
25, 695609, Note_on_c, 11, 69, 0
25, 695610, Note_on_c, 11, 81, 0
25, 695619, Note_on_c, 11, 78, 0
25, 695681, Note_on_c, 11, 81, 104
25, 695682, Note_on_c, 11, 78, 106
25, 695687, Note_on_c, 11, 69, 103
25, 695762, Note_on_c, 11, 81, 0
25, 695763, Note_on_c, 11, 78, 0
25, 695768, Note_on_c, 11, 69, 0
25, 695858, Note_on_c, 11, 78, 95
25, 695862, Note_on_c, 11, 69, 99
25, 695863, Note_on_c, 11, 81, 104
25, 695938, Note_on_c, 11, 78, 0
25, 695942, Note_on_c, 11, 69, 0
25, 695943, Note_on_c, 11, 81, 0
25, 696007, Note_on_c, 11, 81, 110
25, 696023, Note_on_c, 11, 69, 112
25, 696024, Note_on_c, 11, 78, 114
25, 696367, Note_on_c, 11, 81, 0
25, 696383, Note_on_c, 11, 69, 0
25, 696384, Note_on_c, 11, 78, 0
25, 696484, Note_on_c, 11, 55, 87
25, 696503, Pitch_bend_c, 11, 8512
25, 696525, Pitch_bend_c, 11, 8832
25, 696546, Pitch_bend_c, 11, 9152
25, 696568, Pitch_bend_c, 11, 9472
25, 696588, Pitch_bend_c, 11, 9792
25, 696610, Pitch_bend_c, 11, 10112
25, 696631, Pitch_bend_c, 11, 10432
25, 696653, Pitch_bend_c, 11, 10752
25, 696674, Pitch_bend_c, 11, 11072
25, 696695, Pitch_bend_c, 11, 11392
25, 696716, Pitch_bend_c, 11, 11712
25, 696738, Pitch_bend_c, 11, 12032
25, 696759, Pitch_bend_c, 11, 12352
25, 696780, Pitch_bend_c, 11, 12672
25, 696802, Pitch_bend_c, 11, 12992
25, 696823, Pitch_bend_c, 11, 13312
25, 696845, Pitch_bend_c, 11, 13632
25, 696866, Pitch_bend_c, 11, 13952
25, 696886, Pitch_bend_c, 11, 14272
25, 696908, Pitch_bend_c, 11, 14592
25, 696930, Pitch_bend_c, 11, 14912
25, 696951, Pitch_bend_c, 11, 15232
25, 696954, Pitch_bend_c, 11, 8192
25, 696964, Note_on_c, 11, 55, 0
25, 697450, Note_on_c, 11, 81, 112
25, 697452, Note_on_c, 11, 78, 106
25, 697457, Note_on_c, 11, 69, 110
25, 697810, Note_on_c, 11, 81, 0
25, 697812, Note_on_c, 11, 78, 0
25, 697817, Note_on_c, 11, 69, 0
25, 697942, Note_on_c, 11, 55, 81
25, 697943, Pitch_bend_c, 11, 8512
25, 697965, Pitch_bend_c, 11, 8832
25, 697986, Pitch_bend_c, 11, 9152
25, 698008, Pitch_bend_c, 11, 9472
25, 698028, Pitch_bend_c, 11, 9792
25, 698050, Pitch_bend_c, 11, 10112
25, 698071, Pitch_bend_c, 11, 10432
25, 698093, Pitch_bend_c, 11, 10752
25, 698114, Pitch_bend_c, 11, 11072
25, 698135, Pitch_bend_c, 11, 11392
25, 698156, Pitch_bend_c, 11, 11712
25, 698178, Pitch_bend_c, 11, 12032
25, 698199, Pitch_bend_c, 11, 12352
25, 698220, Pitch_bend_c, 11, 12672
25, 698242, Pitch_bend_c, 11, 12992
25, 698263, Pitch_bend_c, 11, 13312
25, 698285, Pitch_bend_c, 11, 13632
25, 698306, Pitch_bend_c, 11, 13952
25, 698326, Pitch_bend_c, 11, 14272
25, 698348, Pitch_bend_c, 11, 14592
25, 698370, Pitch_bend_c, 11, 14912
25, 698391, Pitch_bend_c, 11, 15232
25, 698394, Pitch_bend_c, 11, 8192
25, 698422, Note_on_c, 11, 55, 0
25, 698887, Note_on_c, 11, 81, 79
25, 698892, Note_on_c, 11, 78, 80
25, 698900, Note_on_c, 11, 69, 96
25, 699247, Note_on_c, 11, 81, 0
25, 699252, Note_on_c, 11, 78, 0
25, 699260, Note_on_c, 11, 69, 0
25, 699371, Note_on_c, 11, 69, 78
25, 699373, Note_on_c, 11, 78, 97
25, 699379, Note_on_c, 11, 81, 97
25, 699731, Note_on_c, 11, 69, 0
25, 699733, Note_on_c, 11, 78, 0
25, 699739, Note_on_c, 11, 81, 0
25, 700330, Note_on_c, 11, 69, 80
25, 700336, Note_on_c, 11, 81, 85
25, 700344, Note_on_c, 11, 78, 85
25, 700690, Note_on_c, 11, 69, 0
25, 700696, Note_on_c, 11, 81, 0
25, 700704, Note_on_c, 11, 78, 0
25, 701285, Note_on_c, 11, 79, 84
25, 701288, Note_on_c, 11, 67, 82
25, 701304, Note_on_c, 11, 72, 78
25, 701645, Note_on_c, 11, 79, 0
25, 701648, Note_on_c, 11, 67, 0
25, 701664, Note_on_c, 11, 72, 0
25, 702014, Note_on_c, 11, 79, 88
25, 702015, Note_on_c, 11, 72, 96
25, 702017, Note_on_c, 11, 67, 85
25, 702254, Note_on_c, 11, 79, 0
25, 702255, Note_on_c, 11, 72, 0
25, 702257, Note_on_c, 11, 67, 0
25, 703210, Note_on_c, 11, 79, 87
25, 703222, Note_on_c, 11, 67, 97
25, 703222, Note_on_c, 11, 72, 91
25, 703570, Note_on_c, 11, 79, 0
25, 703582, Note_on_c, 11, 67, 0
25, 703582, Note_on_c, 11, 72, 0
25, 704170, Note_on_c, 11, 78, 82
25, 704173, Note_on_c, 11, 81, 89
25, 704185, Note_on_c, 11, 69, 93
25, 704530, Note_on_c, 11, 78, 0
25, 704533, Note_on_c, 11, 81, 0
25, 704545, Note_on_c, 11, 69, 0
25, 706097, Note_on_c, 11, 78, 95
25, 706098, Note_on_c, 11, 69, 98
25, 706102, Note_on_c, 11, 81, 84
25, 706177, Note_on_c, 11, 78, 0
25, 706178, Note_on_c, 11, 69, 0
25, 706182, Note_on_c, 11, 81, 0
25, 706250, Note_on_c, 11, 69, 85
25, 706253, Note_on_c, 11, 81, 88
25, 706264, Note_on_c, 11, 78, 89
25, 706331, Note_on_c, 11, 69, 0
25, 706334, Note_on_c, 11, 81, 0
25, 706345, Note_on_c, 11, 78, 0
25, 706404, Note_on_c, 11, 69, 94
25, 706412, Note_on_c, 11, 81, 94
25, 706418, Note_on_c, 11, 78, 90
25, 706484, Note_on_c, 11, 69, 0
25, 706492, Note_on_c, 11, 81, 0
25, 706498, Note_on_c, 11, 78, 0
25, 706571, Note_on_c, 11, 69, 86
25, 706571, Note_on_c, 11, 78, 87
25, 706574, Note_on_c, 11, 81, 84
25, 706931, Note_on_c, 11, 69, 0
25, 706931, Note_on_c, 11, 78, 0
25, 706934, Note_on_c, 11, 81, 0
25, 707523, Note_on_c, 11, 69, 78
25, 707527, Note_on_c, 11, 78, 80
25, 707541, Note_on_c, 11, 81, 85
25, 707603, Note_on_c, 11, 69, 0
25, 707607, Note_on_c, 11, 78, 0
25, 707621, Note_on_c, 11, 81, 0
25, 707686, Note_on_c, 11, 78, 83
25, 707694, Note_on_c, 11, 81, 88
25, 707699, Note_on_c, 11, 69, 85
25, 707767, Note_on_c, 11, 78, 0
25, 707775, Note_on_c, 11, 81, 0
25, 707780, Note_on_c, 11, 69, 0
25, 707842, Note_on_c, 11, 78, 89
25, 707846, Note_on_c, 11, 69, 88
25, 707855, Note_on_c, 11, 81, 82
25, 707922, Note_on_c, 11, 78, 0
25, 707926, Note_on_c, 11, 69, 0
25, 707935, Note_on_c, 11, 81, 0
25, 708001, Note_on_c, 11, 69, 94
25, 708010, Note_on_c, 11, 81, 89
25, 708016, Note_on_c, 11, 78, 81
25, 708081, Note_on_c, 11, 69, 0
25, 708090, Note_on_c, 11, 81, 0
25, 708096, Note_on_c, 11, 78, 0
25, 708161, Note_on_c, 11, 78, 89
25, 708163, Note_on_c, 11, 81, 84
25, 708181, Note_on_c, 11, 69, 97
25, 708242, Note_on_c, 11, 78, 0
25, 708244, Note_on_c, 11, 81, 0
25, 708262, Note_on_c, 11, 69, 0
25, 708326, Note_on_c, 11, 81, 83
25, 708336, Note_on_c, 11, 69, 85
25, 708336, Note_on_c, 11, 78, 91
25, 708406, Note_on_c, 11, 81, 0
25, 708416, Note_on_c, 11, 69, 0
25, 708416, Note_on_c, 11, 78, 0
25, 708960, Pitch_bend_c, 11, 8192
25, 708982, Pitch_bend_c, 11, 8512
25, 708983, Note_on_c, 11, 55, 83
25, 709005, Pitch_bend_c, 11, 8832
25, 709027, Pitch_bend_c, 11, 9152
25, 709050, Pitch_bend_c, 11, 9472
25, 709072, Pitch_bend_c, 11, 9792
25, 709095, Pitch_bend_c, 11, 10112
25, 709117, Pitch_bend_c, 11, 10432
25, 709140, Pitch_bend_c, 11, 10752
25, 709163, Pitch_bend_c, 11, 11072
25, 709185, Pitch_bend_c, 11, 11392
25, 709208, Pitch_bend_c, 11, 11712
25, 709230, Pitch_bend_c, 11, 12032
25, 709253, Pitch_bend_c, 11, 12352
25, 709275, Pitch_bend_c, 11, 12672
25, 709298, Pitch_bend_c, 11, 12992
25, 709321, Pitch_bend_c, 11, 13312
25, 709343, Pitch_bend_c, 11, 13632
25, 709366, Pitch_bend_c, 11, 13952
25, 709388, Pitch_bend_c, 11, 14272
25, 709411, Pitch_bend_c, 11, 14592
25, 709434, Pitch_bend_c, 11, 14912
25, 709456, Pitch_bend_c, 11, 15232
25, 709463, Note_on_c, 11, 55, 0
25, 709463, Pitch_bend_c, 11, 8512
25, 709463, Pitch_bend_c, 11, 8512
25, 709485, Pitch_bend_c, 11, 8832
25, 709485, Pitch_bend_c, 11, 8832
25, 709506, Pitch_bend_c, 11, 9152
25, 709506, Pitch_bend_c, 11, 9152
25, 709528, Pitch_bend_c, 11, 9472
25, 709528, Pitch_bend_c, 11, 9472
25, 709548, Pitch_bend_c, 11, 9792
25, 709548, Pitch_bend_c, 11, 9792
25, 709570, Pitch_bend_c, 11, 10112
25, 709570, Pitch_bend_c, 11, 10112
25, 709591, Pitch_bend_c, 11, 10432
25, 709591, Pitch_bend_c, 11, 10432
25, 709613, Pitch_bend_c, 11, 10752
25, 709613, Pitch_bend_c, 11, 10752
25, 709634, Pitch_bend_c, 11, 11072
25, 709634, Pitch_bend_c, 11, 11072
25, 709655, Pitch_bend_c, 11, 11392
25, 709655, Pitch_bend_c, 11, 11392
25, 709676, Pitch_bend_c, 11, 11712
25, 709676, Pitch_bend_c, 11, 11712
25, 709698, Pitch_bend_c, 11, 12032
25, 709698, Pitch_bend_c, 11, 12032
25, 709719, Pitch_bend_c, 11, 12352
25, 709719, Pitch_bend_c, 11, 12352
25, 709740, Pitch_bend_c, 11, 12672
25, 709740, Pitch_bend_c, 11, 12672
25, 709762, Pitch_bend_c, 11, 12992
25, 709762, Pitch_bend_c, 11, 12992
25, 709783, Pitch_bend_c, 11, 13312
25, 709783, Pitch_bend_c, 11, 13312
25, 709805, Pitch_bend_c, 11, 13632
25, 709805, Pitch_bend_c, 11, 13632
25, 709826, Pitch_bend_c, 11, 13952
25, 709826, Pitch_bend_c, 11, 13952
25, 709846, Pitch_bend_c, 11, 14272
25, 709846, Pitch_bend_c, 11, 14272
25, 709868, Pitch_bend_c, 11, 14592
25, 709868, Pitch_bend_c, 11, 14592
25, 709890, Pitch_bend_c, 11, 14912
25, 709890, Pitch_bend_c, 11, 14912
25, 709911, Pitch_bend_c, 11, 15232
25, 709911, Pitch_bend_c, 11, 15232
25, 709914, Pitch_bend_c, 11, 8192
25, 710402, Note_on_c, 11, 69, 79
25, 710418, Note_on_c, 11, 78, 89
25, 710418, Note_on_c, 11, 81, 84
25, 710482, Note_on_c, 11, 69, 0
25, 710498, Note_on_c, 11, 78, 0
25, 710498, Note_on_c, 11, 81, 0
25, 710559, Note_on_c, 11, 78, 78
25, 710560, Note_on_c, 11, 81, 84
25, 710564, Note_on_c, 11, 69, 90
25, 710640, Note_on_c, 11, 78, 0
25, 710641, Note_on_c, 11, 81, 0
25, 710645, Note_on_c, 11, 69, 0
25, 710724, Note_on_c, 11, 78, 88
25, 710737, Note_on_c, 11, 69, 79
25, 710742, Note_on_c, 11, 81, 81
25, 710804, Note_on_c, 11, 78, 0
25, 710817, Note_on_c, 11, 69, 0
25, 710822, Note_on_c, 11, 81, 0
25, 710880, Note_on_c, 11, 81, 91
25, 710884, Note_on_c, 11, 78, 88
25, 710897, Note_on_c, 11, 69, 96
25, 710960, Note_on_c, 11, 81, 0
25, 710964, Note_on_c, 11, 78, 0
25, 710977, Note_on_c, 11, 69, 0
25, 711044, Note_on_c, 11, 81, 98
25, 711049, Note_on_c, 11, 78, 82
25, 711062, Note_on_c, 11, 69, 87
25, 711125, Note_on_c, 11, 81, 0
25, 711130, Note_on_c, 11, 78, 0
25, 711143, Note_on_c, 11, 69, 0
25, 711208, Note_on_c, 11, 78, 95
25, 711216, Note_on_c, 11, 69, 83
25, 711218, Note_on_c, 11, 81, 94
25, 711288, Note_on_c, 11, 78, 0
25, 711296, Note_on_c, 11, 69, 0
25, 711298, Note_on_c, 11, 81, 0
25, 711845, Note_on_c, 11, 55, 96
25, 711853, Pitch_bend_c, 11, 8512
25, 711876, Pitch_bend_c, 11, 8832
25, 711899, Pitch_bend_c, 11, 9152
25, 711921, Pitch_bend_c, 11, 9472
25, 711944, Pitch_bend_c, 11, 9792
25, 711966, Pitch_bend_c, 11, 10112
25, 711989, Pitch_bend_c, 11, 10432
25, 712011, Pitch_bend_c, 11, 10752
25, 712035, Pitch_bend_c, 11, 11072
25, 712057, Pitch_bend_c, 11, 11392
25, 712080, Pitch_bend_c, 11, 11712
25, 712102, Pitch_bend_c, 11, 12032
25, 712125, Pitch_bend_c, 11, 12352
25, 712147, Pitch_bend_c, 11, 12672
25, 712170, Pitch_bend_c, 11, 12992
25, 712192, Pitch_bend_c, 11, 13312
25, 712215, Pitch_bend_c, 11, 13632
25, 712237, Pitch_bend_c, 11, 13952
25, 712260, Pitch_bend_c, 11, 14272
25, 712282, Pitch_bend_c, 11, 14592
25, 712305, Pitch_bend_c, 11, 14912
25, 712325, Note_on_c, 11, 55, 0
25, 712328, Pitch_bend_c, 11, 15232
25, 712343, Pitch_bend_c, 11, 8512
25, 712343, Pitch_bend_c, 11, 8512
25, 712365, Pitch_bend_c, 11, 8832
25, 712365, Pitch_bend_c, 11, 8832
25, 712386, Pitch_bend_c, 11, 9152
25, 712386, Pitch_bend_c, 11, 9152
25, 712408, Pitch_bend_c, 11, 9472
25, 712408, Pitch_bend_c, 11, 9472
25, 712428, Pitch_bend_c, 11, 9792
25, 712428, Pitch_bend_c, 11, 9792
25, 712450, Pitch_bend_c, 11, 10112
25, 712450, Pitch_bend_c, 11, 10112
25, 712471, Pitch_bend_c, 11, 10432
25, 712471, Pitch_bend_c, 11, 10432
25, 712493, Pitch_bend_c, 11, 10752
25, 712493, Pitch_bend_c, 11, 10752
25, 712514, Pitch_bend_c, 11, 11072
25, 712514, Pitch_bend_c, 11, 11072
25, 712535, Pitch_bend_c, 11, 11392
25, 712535, Pitch_bend_c, 11, 11392
25, 712556, Pitch_bend_c, 11, 11712
25, 712556, Pitch_bend_c, 11, 11712
25, 712578, Pitch_bend_c, 11, 12032
25, 712578, Pitch_bend_c, 11, 12032
25, 712599, Pitch_bend_c, 11, 12352
25, 712599, Pitch_bend_c, 11, 12352
25, 712620, Pitch_bend_c, 11, 12672
25, 712620, Pitch_bend_c, 11, 12672
25, 712642, Pitch_bend_c, 11, 12992
25, 712642, Pitch_bend_c, 11, 12992
25, 712663, Pitch_bend_c, 11, 13312
25, 712663, Pitch_bend_c, 11, 13312
25, 712685, Pitch_bend_c, 11, 13632
25, 712685, Pitch_bend_c, 11, 13632
25, 712706, Pitch_bend_c, 11, 13952
25, 712706, Pitch_bend_c, 11, 13952
25, 712726, Pitch_bend_c, 11, 14272
25, 712726, Pitch_bend_c, 11, 14272
25, 712748, Pitch_bend_c, 11, 14592
25, 712748, Pitch_bend_c, 11, 14592
25, 712770, Pitch_bend_c, 11, 14912
25, 712770, Pitch_bend_c, 11, 14912
25, 712791, Pitch_bend_c, 11, 15232
25, 712791, Pitch_bend_c, 11, 15232
25, 712800, Pitch_bend_c, 11, 8192
25, 712804, Note_on_c, 11, 79, 93
25, 712807, Note_on_c, 11, 72, 82
25, 712824, Note_on_c, 11, 67, 98
25, 713164, Note_on_c, 11, 79, 0
25, 713167, Note_on_c, 11, 72, 0
25, 713184, Note_on_c, 11, 67, 0
25, 713280, Note_on_c, 11, 67, 94
25, 713283, Note_on_c, 11, 79, 87
25, 713287, Note_on_c, 11, 72, 95
25, 713640, Note_on_c, 11, 67, 0
25, 713643, Note_on_c, 11, 79, 0
25, 713647, Note_on_c, 11, 72, 0
25, 714256, Note_on_c, 11, 67, 88
25, 714261, Note_on_c, 11, 79, 96
25, 714265, Note_on_c, 11, 72, 97
25, 714616, Note_on_c, 11, 67, 0
25, 714621, Note_on_c, 11, 79, 0
25, 714625, Note_on_c, 11, 72, 0
25, 715443, Note_on_c, 11, 79, 95
25, 715444, Note_on_c, 11, 72, 93
25, 715452, Note_on_c, 11, 67, 82
25, 715683, Note_on_c, 11, 79, 0
25, 715684, Note_on_c, 11, 72, 0
25, 715692, Note_on_c, 11, 67, 0
25, 716163, Note_on_c, 11, 79, 88
25, 716178, Note_on_c, 11, 67, 84
25, 716179, Note_on_c, 11, 72, 93
25, 716523, Note_on_c, 11, 79, 0
25, 716538, Note_on_c, 11, 67, 0
25, 716539, Note_on_c, 11, 72, 0
25, 717122, Note_on_c, 11, 67, 88
25, 717129, Note_on_c, 11, 72, 78
25, 717141, Note_on_c, 11, 79, 93
25, 717482, Note_on_c, 11, 67, 0
25, 717489, Note_on_c, 11, 72, 0
25, 717501, Note_on_c, 11, 79, 0
25, 717843, Note_on_c, 11, 67, 88
25, 717846, Note_on_c, 11, 72, 91
25, 717857, Note_on_c, 11, 79, 98
25, 718083, Note_on_c, 11, 67, 0
25, 718086, Note_on_c, 11, 72, 0
25, 718097, Note_on_c, 11, 79, 0
25, 719040, Note_on_c, 11, 67, 98
25, 719055, Note_on_c, 11, 79, 95
25, 719061, Note_on_c, 11, 72, 84
25, 719400, Note_on_c, 11, 67, 0
25, 719415, Note_on_c, 11, 79, 0
25, 719421, Note_on_c, 11, 72, 0
25, 720008, Note_on_c, 11, 79, 94
25, 720022, Note_on_c, 11, 72, 80
25, 720025, Note_on_c, 11, 67, 94
25, 720368, Note_on_c, 11, 79, 0
25, 720382, Note_on_c, 11, 72, 0
25, 720385, Note_on_c, 11, 67, 0
25, 720960, Note_on_c, 11, 79, 94
25, 720972, Note_on_c, 11, 67, 92
25, 720984, Note_on_c, 11, 72, 89
25, 721320, Note_on_c, 11, 79, 0
25, 721332, Note_on_c, 11, 67, 0
25, 721344, Note_on_c, 11, 72, 0
25, 750252, Note_on_c, 11, 65, 79
25, 750317, Note_on_c, 11, 67, 81
25, 750325, Note_on_c, 11, 65, 0
25, 750390, Note_on_c, 11, 67, 0
25, 750403, Note_on_c, 11, 65, 80
25, 750473, Note_on_c, 11, 67, 69
25, 750476, Note_on_c, 11, 65, 0
25, 750542, Note_on_c, 11, 65, 76
25, 750546, Note_on_c, 11, 67, 0
25, 750612, Note_on_c, 11, 67, 79
25, 750615, Note_on_c, 11, 65, 0
25, 750685, Note_on_c, 11, 67, 0
25, 750685, Note_on_c, 11, 65, 70
25, 750758, Note_on_c, 11, 65, 0
25, 750761, Note_on_c, 11, 67, 78
25, 750834, Note_on_c, 11, 67, 0
25, 750837, Note_on_c, 11, 65, 76
25, 750905, Note_on_c, 11, 67, 85
25, 750910, Note_on_c, 11, 65, 0
25, 750978, Note_on_c, 11, 67, 0
25, 751000, Note_on_c, 11, 65, 80
25, 751053, Note_on_c, 11, 67, 79
25, 751073, Note_on_c, 11, 65, 0
25, 751126, Note_on_c, 11, 67, 0
25, 751144, Note_on_c, 11, 65, 75
25, 751211, Note_on_c, 11, 65, 67
25, 751217, Note_on_c, 11, 65, 0
25, 751291, Note_on_c, 11, 65, 0
25, 751305, Note_on_c, 11, 67, 81
25, 751368, Note_on_c, 11, 68, 81
25, 751384, Note_on_c, 11, 67, 0
25, 751440, Note_on_c, 11, 70, 73
25, 751448, Note_on_c, 11, 68, 0
25, 751500, Note_on_c, 11, 70, 0
25, 751500, Note_on_c, 11, 72, 76
25, 751560, Note_on_c, 11, 72, 0
25, 751560, Note_on_c, 11, 74, 74
25, 751620, Note_on_c, 11, 74, 0
25, 751620, Note_on_c, 11, 75, 71
25, 751680, Note_on_c, 11, 75, 0
25, 751701, Note_on_c, 11, 77, 81
25, 751814, Note_on_c, 11, 77, 65
25, 751821, Note_on_c, 11, 77, 0
25, 751923, Note_on_c, 11, 79, 73
25, 751934, Note_on_c, 11, 77, 0
25, 752043, Note_on_c, 11, 79, 0
25, 752061, Note_on_c, 11, 80, 73
25, 752181, Note_on_c, 11, 80, 0
25, 752185, Note_on_c, 11, 82, 72
25, 752301, Note_on_c, 11, 80, 72
25, 752305, Note_on_c, 11, 82, 0
25, 752405, Note_on_c, 11, 79, 72
25, 752421, Note_on_c, 11, 80, 0
25, 752520, Note_on_c, 11, 77, 72
25, 752525, Note_on_c, 11, 79, 0
25, 752640, Note_on_c, 11, 77, 0
25, 752656, Note_on_c, 11, 80, 79
25, 752776, Note_on_c, 11, 80, 0
25, 756001, Note_on_c, 11, 77, 97
25, 756085, Note_on_c, 11, 77, 0
25, 756143, Note_on_c, 11, 77, 98
25, 756227, Note_on_c, 11, 77, 0
25, 756259, Note_on_c, 11, 79, 82
25, 756368, Note_on_c, 11, 80, 98
25, 756379, Note_on_c, 11, 79, 0
25, 756488, Note_on_c, 11, 80, 0
25, 756491, Note_on_c, 11, 82, 88
25, 756611, Note_on_c, 11, 82, 0
25, 756615, Note_on_c, 11, 80, 95
25, 756732, Note_on_c, 11, 79, 82
25, 756735, Note_on_c, 11, 80, 0
25, 756843, Note_on_c, 11, 77, 88
25, 756852, Note_on_c, 11, 79, 0
25, 756927, Note_on_c, 11, 77, 0
25, 756979, Note_on_c, 11, 77, 78
25, 757063, Note_on_c, 11, 77, 0
25, 757087, Note_on_c, 11, 77, 95
25, 757171, Note_on_c, 11, 77, 0
25, 757222, Note_on_c, 11, 79, 85
25, 757338, Note_on_c, 11, 80, 96
25, 757342, Note_on_c, 11, 79, 0
25, 757458, Note_on_c, 11, 80, 0
25, 757463, Note_on_c, 11, 82, 86
25, 757569, Note_on_c, 11, 80, 98
25, 757583, Note_on_c, 11, 82, 0
25, 757689, Note_on_c, 11, 80, 0
25, 757704, Note_on_c, 11, 79, 81
25, 757807, Note_on_c, 11, 77, 96
25, 757824, Note_on_c, 11, 79, 0
25, 757927, Note_on_c, 11, 77, 0
25, 757931, Note_on_c, 11, 80, 98
25, 758051, Note_on_c, 11, 80, 0
25, 758061, Note_on_c, 11, 76, 95
25, 758145, Note_on_c, 11, 76, 0
25, 758180, Note_on_c, 11, 76, 79
25, 758264, Note_on_c, 11, 76, 0
25, 758281, Note_on_c, 11, 76, 96
25, 758365, Note_on_c, 11, 76, 0
25, 758423, Note_on_c, 11, 77, 90
25, 758543, Note_on_c, 11, 77, 0
25, 758881, Note_on_c, 11, 65, 92
25, 758961, Note_on_c, 11, 65, 0
25, 758973, Note_on_c, 11, 67, 84
25, 759052, Note_on_c, 11, 67, 0
25, 759055, Note_on_c, 11, 68, 90
25, 759120, Note_on_c, 11, 70, 93
25, 759135, Note_on_c, 11, 68, 0
25, 759180, Note_on_c, 11, 70, 0
25, 759180, Note_on_c, 11, 72, 92
25, 759240, Note_on_c, 11, 72, 0
25, 759240, Note_on_c, 11, 74, 88
25, 759300, Note_on_c, 11, 74, 0
25, 759300, Note_on_c, 11, 75, 80
25, 759360, Note_on_c, 11, 75, 0
25, 759361, Note_on_c, 11, 77, 83
25, 759445, Note_on_c, 11, 77, 0
25, 759485, Note_on_c, 11, 77, 80
25, 759569, Note_on_c, 11, 77, 0
25, 759606, Note_on_c, 11, 79, 85
25, 759726, Note_on_c, 11, 79, 0
25, 759740, Note_on_c, 11, 80, 88
25, 759858, Note_on_c, 11, 82, 89
25, 759860, Note_on_c, 11, 80, 0
25, 759976, Note_on_c, 11, 80, 88
25, 759978, Note_on_c, 11, 82, 0
25, 760085, Note_on_c, 11, 79, 94
25, 760096, Note_on_c, 11, 80, 0
25, 760205, Note_on_c, 11, 79, 0
25, 760208, Note_on_c, 11, 77, 81
25, 760326, Note_on_c, 11, 80, 95
25, 760328, Note_on_c, 11, 77, 0
25, 760446, Note_on_c, 11, 80, 0
25, 760450, Note_on_c, 11, 76, 84
25, 760534, Note_on_c, 11, 76, 0
25, 760569, Note_on_c, 11, 76, 96
25, 760653, Note_on_c, 11, 76, 0
25, 760690, Note_on_c, 11, 76, 95
25, 760774, Note_on_c, 11, 76, 0
25, 760809, Note_on_c, 11, 65, 98
25, 760889, Note_on_c, 11, 65, 0
25, 760898, Note_on_c, 11, 67, 81
25, 760961, Note_on_c, 11, 68, 81
25, 760977, Note_on_c, 11, 67, 0
25, 761040, Note_on_c, 11, 70, 81
25, 761041, Note_on_c, 11, 68, 0
25, 761100, Note_on_c, 11, 70, 0
25, 761100, Note_on_c, 11, 72, 97
25, 761160, Note_on_c, 11, 72, 0
25, 761160, Note_on_c, 11, 74, 86
25, 761220, Note_on_c, 11, 74, 0
25, 761220, Note_on_c, 11, 75, 78
25, 761280, Note_on_c, 11, 75, 0
25, 761304, Note_on_c, 11, 77, 88
25, 761388, Note_on_c, 11, 77, 0
25, 761405, Note_on_c, 11, 77, 84
25, 761489, Note_on_c, 11, 77, 0
25, 761532, Note_on_c, 11, 79, 93
25, 761652, Note_on_c, 11, 79, 0
25, 761657, Note_on_c, 11, 80, 84
25, 761774, Note_on_c, 11, 82, 91
25, 761777, Note_on_c, 11, 80, 0
25, 761894, Note_on_c, 11, 82, 0
25, 761897, Note_on_c, 11, 80, 93
25, 762001, Note_on_c, 11, 79, 79
25, 762017, Note_on_c, 11, 80, 0
25, 762121, Note_on_c, 11, 79, 0
25, 762137, Note_on_c, 11, 77, 86
25, 762257, Note_on_c, 11, 77, 0
25, 762259, Note_on_c, 11, 82, 96
25, 762374, Note_on_c, 11, 80, 78
25, 762379, Note_on_c, 11, 82, 0
25, 762485, Note_on_c, 11, 79, 94
25, 762494, Note_on_c, 11, 80, 0
25, 762605, Note_on_c, 11, 79, 0
25, 762625, Note_on_c, 11, 77, 87
25, 762742, Note_on_c, 11, 80, 94
25, 762745, Note_on_c, 11, 77, 0
25, 762860, Note_on_c, 11, 76, 96
25, 762862, Note_on_c, 11, 80, 0
25, 762944, Note_on_c, 11, 76, 0
25, 762984, Note_on_c, 11, 76, 85
25, 763068, Note_on_c, 11, 76, 0
25, 763102, Note_on_c, 11, 76, 94
25, 763186, Note_on_c, 11, 76, 0
25, 763203, Note_on_c, 11, 77, 95
25, 763287, Note_on_c, 11, 77, 0
25, 763338, Note_on_c, 11, 77, 78
25, 763422, Note_on_c, 11, 77, 0
25, 763451, Note_on_c, 11, 79, 96
25, 763562, Note_on_c, 11, 80, 88
25, 763571, Note_on_c, 11, 79, 0
25, 763682, Note_on_c, 11, 80, 0
25, 763698, Note_on_c, 11, 82, 84
25, 763818, Note_on_c, 11, 82, 0
25, 763823, Note_on_c, 11, 80, 87
25, 763930, Note_on_c, 11, 79, 87
25, 763943, Note_on_c, 11, 80, 0
25, 764050, Note_on_c, 11, 79, 0
25, 764057, Note_on_c, 11, 77, 97
25, 764177, Note_on_c, 11, 77, 0
25, 764180, Note_on_c, 11, 80, 88
25, 764291, Note_on_c, 11, 76, 78
25, 764300, Note_on_c, 11, 80, 0
25, 764375, Note_on_c, 11, 76, 0
25, 764413, Note_on_c, 11, 76, 84
25, 764497, Note_on_c, 11, 76, 0
25, 764544, Note_on_c, 11, 76, 85
25, 764628, Note_on_c, 11, 76, 0
25, 764651, Note_on_c, 11, 77, 87
25, 764735, Note_on_c, 11, 77, 0
25, 764771, Note_on_c, 11, 77, 95
25, 764855, Note_on_c, 11, 77, 0
25, 764883, Note_on_c, 11, 79, 92
25, 765003, Note_on_c, 11, 79, 0
25, 765013, Note_on_c, 11, 80, 93
25, 765133, Note_on_c, 11, 80, 0
25, 765144, Note_on_c, 11, 82, 109
25, 765251, Note_on_c, 11, 80, 105
25, 765264, Note_on_c, 11, 82, 0
25, 765363, Note_on_c, 11, 79, 97
25, 765371, Note_on_c, 11, 80, 0
25, 765483, Note_on_c, 11, 79, 0
25, 765496, Note_on_c, 11, 77, 107
25, 765616, Note_on_c, 11, 77, 0
25, 765616, Note_on_c, 11, 80, 102
25, 765733, Note_on_c, 11, 76, 108
25, 765736, Note_on_c, 11, 80, 0
25, 765817, Note_on_c, 11, 76, 0
25, 765856, Note_on_c, 11, 76, 111
25, 765940, Note_on_c, 11, 76, 0
25, 765974, Note_on_c, 11, 76, 123
25, 766058, Note_on_c, 11, 76, 0
25, 766084, Note_on_c, 11, 76, 84
25, 766168, Note_on_c, 11, 76, 0
25, 766200, Note_on_c, 11, 77, 99
25, 766320, Note_on_c, 11, 77, 0
25, 766344, Note_on_c, 11, 79, 96
25, 766448, Note_on_c, 11, 80, 86
25, 766464, Note_on_c, 11, 79, 0
25, 766562, Note_on_c, 11, 82, 90
25, 766568, Note_on_c, 11, 80, 0
25, 766682, Note_on_c, 11, 82, 0
25, 766695, Note_on_c, 11, 80, 100
25, 766815, Note_on_c, 11, 80, 0
25, 766822, Note_on_c, 11, 79, 99
25, 766935, Note_on_c, 11, 77, 94
25, 766942, Note_on_c, 11, 79, 0
25, 767055, Note_on_c, 11, 77, 0
25, 767059, Note_on_c, 11, 80, 101
25, 767163, Note_on_c, 11, 76, 89
25, 767179, Note_on_c, 11, 80, 0
25, 767247, Note_on_c, 11, 76, 0
25, 767291, Note_on_c, 11, 76, 106
25, 767375, Note_on_c, 11, 76, 0
25, 767424, Note_on_c, 11, 76, 91
25, 767508, Note_on_c, 11, 76, 0
25, 767521, Note_on_c, 11, 82, 105
25, 767641, Note_on_c, 11, 82, 0
25, 767663, Note_on_c, 11, 80, 105
25, 767766, Note_on_c, 11, 79, 94
25, 767783, Note_on_c, 11, 80, 0
25, 767886, Note_on_c, 11, 79, 0
25, 767889, Note_on_c, 11, 77, 95
25, 768009, Note_on_c, 11, 77, 0
25, 768017, Note_on_c, 11, 80, 110
25, 768137, Note_on_c, 11, 80, 0
25, 768145, Note_on_c, 11, 76, 97
25, 768261, Note_on_c, 11, 77, 114
25, 768265, Note_on_c, 11, 76, 0
25, 768368, Note_on_c, 11, 79, 109
25, 768381, Note_on_c, 11, 77, 0
25, 768488, Note_on_c, 11, 79, 0
25, 768495, Note_on_c, 11, 82, 107
25, 768611, Note_on_c, 11, 80, 113
25, 768615, Note_on_c, 11, 82, 0
25, 768731, Note_on_c, 11, 80, 0
25, 768733, Note_on_c, 11, 79, 110
25, 768853, Note_on_c, 11, 79, 0
25, 768860, Note_on_c, 11, 77, 111
25, 768968, Note_on_c, 11, 80, 117
25, 768980, Note_on_c, 11, 77, 0
25, 769088, Note_on_c, 11, 80, 0
25, 769090, Note_on_c, 11, 76, 111
25, 769174, Note_on_c, 11, 76, 0
25, 769201, Note_on_c, 11, 76, 108
25, 769285, Note_on_c, 11, 76, 0
25, 769324, Note_on_c, 11, 76, 120
25, 769408, Note_on_c, 11, 76, 0
25, 769465, Note_on_c, 11, 76, 110
25, 769549, Note_on_c, 11, 76, 0
25, 769573, Note_on_c, 11, 77, 111
25, 769693, Note_on_c, 11, 77, 0
25, 769700, Note_on_c, 11, 79, 124
25, 769808, Note_on_c, 11, 80, 127
25, 769820, Note_on_c, 11, 79, 0
25, 769928, Note_on_c, 11, 80, 0
25, 769938, Note_on_c, 11, 82, 127
25, 770058, Note_on_c, 11, 82, 0
25, 770060, Note_on_c, 11, 80, 127
25, 770161, Note_on_c, 11, 79, 127
25, 770180, Note_on_c, 11, 80, 0
25, 770281, Note_on_c, 11, 79, 0
25, 770289, Note_on_c, 11, 77, 121
25, 770408, Note_on_c, 11, 76, 127
25, 770409, Note_on_c, 11, 77, 0
25, 770524, Note_on_c, 11, 77, 127
25, 770528, Note_on_c, 11, 76, 0
25, 770642, Note_on_c, 11, 79, 127
25, 770644, Note_on_c, 11, 77, 0
25, 770762, Note_on_c, 11, 79, 0
25, 770774, Note_on_c, 11, 80, 127
25, 770892, Note_on_c, 11, 82, 127
25, 770894, Note_on_c, 11, 80, 0
25, 771012, Note_on_c, 11, 82, 0
25, 771016, Note_on_c, 11, 80, 124
25, 771136, Note_on_c, 11, 80, 0
25, 771145, Note_on_c, 11, 79, 118
25, 771245, Note_on_c, 11, 77, 123
25, 771265, Note_on_c, 11, 79, 0
25, 771365, Note_on_c, 11, 77, 0
25, 771368, Note_on_c, 11, 80, 127
25, 771488, Note_on_c, 11, 80, 0
25, 771503, Note_on_c, 11, 76, 127
25, 771587, Note_on_c, 11, 76, 0
25, 771608, Note_on_c, 11, 76, 127
25, 771692, Note_on_c, 11, 76, 0
25, 771741, Note_on_c, 11, 76, 127
25, 771825, Note_on_c, 11, 76, 0
25, 771845, Note_on_c, 11, 77, 127
25, 771965, Note_on_c, 11, 77, 0
25, 771979, Note_on_c, 11, 77, 127
25, 772099, Note_on_c, 11, 77, 0
25, 772100, Note_on_c, 11, 79, 127
25, 772201, Note_on_c, 11, 80, 121
25, 772220, Note_on_c, 11, 79, 0
25, 772321, Note_on_c, 11, 80, 0
25, 772344, Note_on_c, 11, 82, 118
25, 772447, Note_on_c, 11, 80, 122
25, 772464, Note_on_c, 11, 82, 0
25, 772563, Note_on_c, 11, 79, 127
25, 772567, Note_on_c, 11, 80, 0
25, 772680, Note_on_c, 11, 77, 127
25, 772683, Note_on_c, 11, 79, 0
25, 772800, Note_on_c, 11, 77, 0
25, 772820, Note_on_c, 11, 80, 125
25, 772940, Note_on_c, 11, 80, 0
25, 772940, End_track
26, 0, Start_track
26, 0, Title_t, "Violini I/b"
26, 0, MIDI_port, 0
26, 0, Program_c, 11, 48
26, 162720, Program_c, 11, 40
26, 162728, Note_on_c, 11, 60, 52
26, 162807, Note_on_c, 11, 60, 0
26, 162815, Note_on_c, 11, 61, 53
26, 162885, Note_on_c, 11, 60, 48
26, 162894, Note_on_c, 11, 61, 0
26, 162959, Note_on_c, 11, 61, 44
26, 162964, Note_on_c, 11, 60, 0
26, 163038, Note_on_c, 11, 61, 0
26, 163040, Note_on_c, 11, 60, 43
26, 163119, Note_on_c, 11, 60, 0
26, 163124, Note_on_c, 11, 61, 50
26, 163203, Note_on_c, 11, 61, 0
26, 163214, Note_on_c, 11, 60, 34
26, 163293, Note_on_c, 11, 60, 0
26, 163298, Note_on_c, 11, 61, 53
26, 163377, Note_on_c, 11, 61, 0
26, 163381, Note_on_c, 11, 60, 39
26, 163459, Note_on_c, 11, 61, 49
26, 163460, Note_on_c, 11, 60, 0
26, 163535, Note_on_c, 11, 60, 34
26, 163538, Note_on_c, 11, 61, 0
26, 163606, Note_on_c, 11, 61, 38
26, 163614, Note_on_c, 11, 60, 0
26, 163685, Note_on_c, 11, 61, 0
26, 163691, Note_on_c, 11, 60, 51
26, 163765, Note_on_c, 11, 61, 50
26, 163770, Note_on_c, 11, 60, 0
26, 163844, Note_on_c, 11, 61, 0
26, 163854, Note_on_c, 11, 60, 34
26, 163933, Note_on_c, 11, 60, 0
26, 163940, Note_on_c, 11, 61, 46
26, 164000, Note_on_c, 11, 60, 48
26, 164019, Note_on_c, 11, 61, 0
26, 164076, Note_on_c, 11, 61, 41
26, 164079, Note_on_c, 11, 60, 0
26, 164155, Note_on_c, 11, 61, 0
26, 164157, Note_on_c, 11, 60, 45
26, 164236, Note_on_c, 11, 60, 0
26, 164247, Note_on_c, 11, 61, 46
26, 164317, Note_on_c, 11, 60, 48
26, 164326, Note_on_c, 11, 61, 0
26, 164396, Note_on_c, 11, 60, 0
26, 164403, Note_on_c, 11, 61, 43
26, 164482, Note_on_c, 11, 61, 0
26, 164495, Note_on_c, 11, 60, 33
26, 164572, Note_on_c, 11, 61, 42
26, 164574, Note_on_c, 11, 60, 0
26, 164641, Note_on_c, 11, 60, 51
26, 164651, Note_on_c, 11, 61, 0
26, 164720, Note_on_c, 11, 60, 0
26, 164720, Note_on_c, 11, 61, 43
26, 164792, Note_on_c, 11, 60, 41
26, 164799, Note_on_c, 11, 61, 0
26, 164871, Note_on_c, 11, 60, 0
26, 164884, Note_on_c, 11, 61, 52
26, 164953, Note_on_c, 11, 60, 33
26, 164963, Note_on_c, 11, 61, 0
26, 165032, Note_on_c, 11, 60, 0
26, 165046, Note_on_c, 11, 61, 47
26, 165125, Note_on_c, 11, 61, 0
26, 165131, Note_on_c, 11, 60, 51
26, 165195, Note_on_c, 11, 61, 51
26, 165210, Note_on_c, 11, 60, 0
26, 165274, Note_on_c, 11, 61, 0
26, 165278, Note_on_c, 11, 60, 52
26, 165355, Note_on_c, 11, 61, 40
26, 165357, Note_on_c, 11, 60, 0
26, 165434, Note_on_c, 11, 61, 0
26, 165443, Note_on_c, 11, 60, 48
26, 165515, Note_on_c, 11, 61, 38
26, 165522, Note_on_c, 11, 60, 0
26, 165594, Note_on_c, 11, 61, 0
26, 165597, Note_on_c, 11, 60, 35
26, 165672, Note_on_c, 11, 61, 41
26, 165676, Note_on_c, 11, 60, 0
26, 165751, Note_on_c, 11, 61, 0
26, 165769, Note_on_c, 11, 60, 39
26, 165836, Note_on_c, 11, 61, 41
26, 165848, Note_on_c, 11, 60, 0
26, 165915, Note_on_c, 11, 61, 0
26, 165930, Note_on_c, 11, 60, 40
26, 165994, Note_on_c, 11, 61, 35
26, 166009, Note_on_c, 11, 60, 0
26, 166069, Note_on_c, 11, 60, 35
26, 166073, Note_on_c, 11, 61, 0
26, 166148, Note_on_c, 11, 60, 0
26, 166156, Note_on_c, 11, 61, 45
26, 166235, Note_on_c, 11, 61, 0
26, 166247, Note_on_c, 11, 60, 39
26, 166326, Note_on_c, 11, 60, 0
26, 166326, Note_on_c, 11, 61, 39
26, 166397, Note_on_c, 11, 60, 47
26, 166405, Note_on_c, 11, 61, 0
26, 166465, Note_on_c, 11, 61, 40
26, 166476, Note_on_c, 11, 60, 0
26, 166544, Note_on_c, 11, 61, 0
26, 166561, Note_on_c, 11, 60, 39
26, 166636, Note_on_c, 11, 61, 9
26, 166640, Note_on_c, 11, 60, 0
26, 166705, Note_on_c, 11, 60, 9
26, 166715, Note_on_c, 11, 61, 0
26, 166784, Note_on_c, 11, 60, 0
26, 166793, Note_on_c, 11, 61, 24
26, 166869, Note_on_c, 11, 60, 18
26, 166872, Note_on_c, 11, 61, 0
26, 166948, Note_on_c, 11, 60, 0
26, 166961, Note_on_c, 11, 61, 10
26, 167027, Note_on_c, 11, 60, 24
26, 167040, Note_on_c, 11, 61, 0
26, 167106, Note_on_c, 11, 60, 0
26, 167122, Note_on_c, 11, 61, 23
26, 167190, Note_on_c, 11, 60, 17
26, 167201, Note_on_c, 11, 61, 0
26, 167269, Note_on_c, 11, 60, 0
26, 167280, Note_on_c, 11, 61, 7
26, 167358, Note_on_c, 11, 60, 26
26, 167359, Note_on_c, 11, 61, 0
26, 167434, Note_on_c, 11, 61, 10
26, 167437, Note_on_c, 11, 60, 0
26, 167513, Note_on_c, 11, 61, 0
26, 167517, Note_on_c, 11, 60, 20
26, 167591, Note_on_c, 11, 61, 9
26, 167596, Note_on_c, 11, 60, 0
26, 167670, Note_on_c, 11, 61, 0
26, 167675, Note_on_c, 11, 60, 17
26, 167754, Note_on_c, 11, 60, 0
26, 167757, Note_on_c, 11, 61, 20
26, 167836, Note_on_c, 11, 61, 0
26, 167843, Note_on_c, 11, 60, 15
26, 167922, Note_on_c, 11, 60, 0
26, 167922, Note_on_c, 11, 61, 16
26, 168001, Note_on_c, 11, 61, 0
26, 168004, Note_on_c, 11, 60, 21
26, 168067, Note_on_c, 11, 61, 11
26, 168083, Note_on_c, 11, 60, 0
26, 168146, Note_on_c, 11, 61, 0
26, 168153, Note_on_c, 11, 60, 15
26, 168232, Note_on_c, 11, 60, 0
26, 168238, Note_on_c, 11, 61, 15
26, 168301, Note_on_c, 11, 60, 11
26, 168317, Note_on_c, 11, 61, 0
26, 168380, Note_on_c, 11, 60, 0
26, 168392, Note_on_c, 11, 61, 26
26, 168470, Note_on_c, 11, 60, 20
26, 168471, Note_on_c, 11, 61, 0
26, 168547, Note_on_c, 11, 61, 20
26, 168549, Note_on_c, 11, 60, 0
26, 168620, Note_on_c, 11, 60, 10
26, 168626, Note_on_c, 11, 61, 0
26, 168696, Note_on_c, 11, 61, 7
26, 168699, Note_on_c, 11, 60, 0
26, 168775, Note_on_c, 11, 61, 0
26, 168797, Note_on_c, 11, 60, 8
26, 168865, Note_on_c, 11, 61, 27
26, 168876, Note_on_c, 11, 60, 0
26, 168944, Note_on_c, 11, 61, 0
26, 168950, Note_on_c, 11, 60, 25
26, 169021, Note_on_c, 11, 61, 21
26, 169029, Note_on_c, 11, 60, 0
26, 169100, Note_on_c, 11, 61, 0
26, 169103, Note_on_c, 11, 60, 21
26, 169182, Note_on_c, 11, 60, 0
26, 169186, Note_on_c, 11, 61, 20
26, 169262, Note_on_c, 11, 60, 7
26, 169265, Note_on_c, 11, 61, 0
26, 169341, Note_on_c, 11, 60, 0
26, 169357, Note_on_c, 11, 61, 21
26, 169435, Note_on_c, 11, 60, 15
26, 169436, Note_on_c, 11, 61, 0
26, 169510, Note_on_c, 11, 61, 25
26, 169514, Note_on_c, 11, 60, 0
26, 169574, Note_on_c, 11, 60, 17
26, 169589, Note_on_c, 11, 61, 0
26, 169653, Note_on_c, 11, 60, 0
26, 169672, Note_on_c, 11, 61, 27
26, 169733, Note_on_c, 11, 60, 8
26, 169751, Note_on_c, 11, 61, 0
26, 169812, Note_on_c, 11, 60, 0
26, 169812, Note_on_c, 11, 61, 9
26, 169891, Note_on_c, 11, 61, 0
26, 169901, Note_on_c, 11, 60, 11
26, 169976, Note_on_c, 11, 61, 22
26, 169980, Note_on_c, 11, 60, 0
26, 170055, Note_on_c, 11, 61, 0
26, 170071, Note_on_c, 11, 60, 18
26, 170141, Note_on_c, 11, 61, 22
26, 170150, Note_on_c, 11, 60, 0
26, 170220, Note_on_c, 11, 61, 0
26, 170229, Note_on_c, 11, 60, 11
26, 170308, Note_on_c, 11, 60, 0
26, 170314, Note_on_c, 11, 61, 18
26, 170371, Note_on_c, 11, 60, 19
26, 170393, Note_on_c, 11, 61, 0
26, 170450, Note_on_c, 11, 60, 0
26, 170452, Note_on_c, 11, 61, 12
26, 170531, Note_on_c, 11, 61, 0
26, 170533, Note_on_c, 11, 60, 7
26, 170612, Note_on_c, 11, 60, 0
26, 170622, Note_on_c, 11, 61, 16
26, 170690, Note_on_c, 11, 60, 18
26, 170701, Note_on_c, 11, 61, 0
26, 170769, Note_on_c, 11, 60, 0
26, 170777, Note_on_c, 11, 61, 18
26, 170852, Note_on_c, 11, 60, 9
26, 170856, Note_on_c, 11, 61, 0
26, 170931, Note_on_c, 11, 60, 0
26, 170950, Note_on_c, 11, 61, 20
26, 171029, Note_on_c, 11, 61, 0
26, 171029, Note_on_c, 11, 60, 22
26, 171093, Note_on_c, 11, 61, 11
26, 171108, Note_on_c, 11, 60, 0
26, 171171, Note_on_c, 11, 60, 14
26, 171172, Note_on_c, 11, 61, 0
26, 171250, Note_on_c, 11, 60, 0
26, 171253, Note_on_c, 11, 61, 24
26, 171332, Note_on_c, 11, 61, 0
26, 171344, Note_on_c, 11, 60, 14
26, 171423, Note_on_c, 11, 60, 0
26, 171428, Note_on_c, 11, 61, 7
26, 171487, Note_on_c, 11, 60, 27
26, 171507, Note_on_c, 11, 61, 0
26, 171566, Note_on_c, 11, 60, 0
26, 171588, Note_on_c, 11, 61, 7
26, 171667, Note_on_c, 11, 61, 0
26, 171667, Note_on_c, 11, 60, 22
26, 171745, Note_on_c, 11, 61, 23
26, 171746, Note_on_c, 11, 60, 0
26, 171814, Note_on_c, 11, 60, 13
26, 171824, Note_on_c, 11, 61, 0
26, 171888, Note_on_c, 11, 61, 24
26, 171893, Note_on_c, 11, 60, 0
26, 171967, Note_on_c, 11, 61, 0
26, 171969, Note_on_c, 11, 60, 16
26, 172048, Note_on_c, 11, 60, 0
26, 172063, Note_on_c, 11, 61, 16
26, 172126, Note_on_c, 11, 60, 27
26, 172142, Note_on_c, 11, 61, 0
26, 172205, Note_on_c, 11, 60, 0
26, 172206, Note_on_c, 11, 61, 21
26, 172285, Note_on_c, 11, 61, 0
26, 172303, Note_on_c, 11, 60, 10
26, 172382, Note_on_c, 11, 60, 0
26, 172383, Note_on_c, 11, 61, 18
26, 172462, Note_on_c, 11, 61, 0
26, 172466, Note_on_c, 11, 60, 21
26, 172541, Note_on_c, 11, 61, 16
26, 172545, Note_on_c, 11, 60, 0
26, 172604, Note_on_c, 11, 60, 16
26, 172620, Note_on_c, 11, 61, 0
26, 172683, Note_on_c, 11, 60, 0
26, 172685, Note_on_c, 11, 61, 7
26, 172764, Note_on_c, 11, 61, 0
26, 172782, Note_on_c, 11, 60, 23
26, 172857, Note_on_c, 11, 61, 14
26, 172861, Note_on_c, 11, 60, 0
26, 172936, Note_on_c, 11, 61, 0
26, 172942, Note_on_c, 11, 60, 7
26, 173016, Note_on_c, 11, 61, 19
26, 173021, Note_on_c, 11, 60, 0
26, 173086, Note_on_c, 11, 60, 16
26, 173095, Note_on_c, 11, 61, 0
26, 173165, Note_on_c, 11, 60, 0
26, 173174, Note_on_c, 11, 61, 24
26, 173238, Note_on_c, 11, 60, 21
26, 173253, Note_on_c, 11, 61, 0
26, 173317, Note_on_c, 11, 60, 0
26, 173337, Note_on_c, 11, 61, 25
26, 173414, Note_on_c, 11, 60, 19
26, 173416, Note_on_c, 11, 61, 0
26, 173492, Note_on_c, 11, 61, 10
26, 173493, Note_on_c, 11, 60, 0
26, 173567, Note_on_c, 11, 60, 20
26, 173571, Note_on_c, 11, 61, 0
26, 173646, Note_on_c, 11, 60, 0
26, 173659, Note_on_c, 11, 61, 8
26, 173722, Note_on_c, 11, 60, 7
26, 173738, Note_on_c, 11, 61, 0
26, 173801, Note_on_c, 11, 60, 0
26, 173811, Note_on_c, 11, 61, 21
26, 173888, Note_on_c, 11, 60, 13
26, 173890, Note_on_c, 11, 61, 0
26, 173967, Note_on_c, 11, 60, 0
26, 173973, Note_on_c, 11, 61, 13
26, 174037, Note_on_c, 11, 60, 21
26, 174052, Note_on_c, 11, 61, 0
26, 174116, Note_on_c, 11, 60, 0
26, 174117, Note_on_c, 11, 61, 9
26, 174196, Note_on_c, 11, 61, 0
26, 174196, Note_on_c, 11, 60, 20
26, 174275, Note_on_c, 11, 60, 0
26, 174279, Note_on_c, 11, 61, 8
26, 174358, Note_on_c, 11, 61, 0
26, 174358, Note_on_c, 11, 60, 19
26, 174437, Note_on_c, 11, 60, 0
26, 174447, Note_on_c, 11, 61, 12
26, 174523, Note_on_c, 11, 60, 21
26, 174526, Note_on_c, 11, 61, 0
26, 174599, Note_on_c, 11, 61, 17
26, 174602, Note_on_c, 11, 60, 0
26, 174674, Note_on_c, 11, 60, 19
26, 174678, Note_on_c, 11, 61, 0
26, 174753, Note_on_c, 11, 60, 0
26, 174755, Note_on_c, 11, 61, 10
26, 174834, Note_on_c, 11, 61, 0
26, 174836, Note_on_c, 11, 60, 25
26, 174915, Note_on_c, 11, 60, 0
26, 174931, Note_on_c, 11, 61, 12
26, 175005, Note_on_c, 11, 60, 13
26, 175010, Note_on_c, 11, 61, 0
26, 175084, Note_on_c, 11, 60, 0
26, 175096, Note_on_c, 11, 61, 13
26, 175175, Note_on_c, 11, 61, 0
26, 175175, Note_on_c, 11, 60, 10
26, 175254, Note_on_c, 11, 60, 0
26, 175255, Note_on_c, 11, 61, 22
26, 175320, Note_on_c, 11, 60, 22
26, 175334, Note_on_c, 11, 61, 0
26, 175399, Note_on_c, 11, 60, 0
26, 175403, Note_on_c, 11, 61, 15
26, 175482, Note_on_c, 11, 61, 0
26, 175493, Note_on_c, 11, 60, 18
26, 175557, Note_on_c, 11, 61, 8
26, 175572, Note_on_c, 11, 60, 0
26, 175630, Note_on_c, 11, 60, 23
26, 175636, Note_on_c, 11, 61, 0
26, 175709, Note_on_c, 11, 60, 0
26, 175725, Note_on_c, 11, 61, 11
26, 175795, Note_on_c, 11, 60, 14
26, 175804, Note_on_c, 11, 61, 0
26, 175874, Note_on_c, 11, 60, 0
26, 175879, Note_on_c, 11, 61, 8
26, 175952, Note_on_c, 11, 60, 12
26, 175958, Note_on_c, 11, 61, 0
26, 176031, Note_on_c, 11, 60, 0
26, 176049, Note_on_c, 11, 61, 26
26, 176125, Note_on_c, 11, 60, 20
26, 176128, Note_on_c, 11, 61, 0
26, 176200, Note_on_c, 11, 61, 26
26, 176204, Note_on_c, 11, 60, 0
26, 176279, Note_on_c, 11, 61, 0
26, 176285, Note_on_c, 11, 60, 8
26, 176364, Note_on_c, 11, 60, 0
26, 176367, Note_on_c, 11, 61, 15
26, 176446, Note_on_c, 11, 61, 0
26, 176447, Note_on_c, 11, 60, 9
26, 176526, Note_on_c, 11, 60, 0
26, 176527, Note_on_c, 11, 61, 12
26, 176600, Note_on_c, 11, 60, 25
26, 176606, Note_on_c, 11, 61, 0
26, 176679, Note_on_c, 11, 60, 0
26, 176688, Note_on_c, 11, 61, 24
26, 176745, Note_on_c, 11, 60, 12
26, 176767, Note_on_c, 11, 61, 0
26, 176824, Note_on_c, 11, 60, 0
26, 176838, Note_on_c, 11, 61, 9
26, 176908, Note_on_c, 11, 60, 17
26, 176917, Note_on_c, 11, 61, 0
26, 176987, Note_on_c, 11, 60, 0
26, 177005, Note_on_c, 11, 61, 10
26, 177066, Note_on_c, 11, 60, 14
26, 177084, Note_on_c, 11, 61, 0
26, 177145, Note_on_c, 11, 60, 0
26, 177166, Note_on_c, 11, 61, 26
26, 177237, Note_on_c, 11, 60, 27
26, 177245, Note_on_c, 11, 61, 0
26, 177316, Note_on_c, 11, 60, 0
26, 177325, Note_on_c, 11, 61, 16
26, 177404, Note_on_c, 11, 61, 0
26, 177405, Note_on_c, 11, 60, 7
26, 177479, Note_on_c, 11, 61, 19
26, 177484, Note_on_c, 11, 60, 0
26, 177558, Note_on_c, 11, 61, 0
26, 177563, Note_on_c, 11, 60, 24
26, 177640, Note_on_c, 11, 61, 9
26, 177642, Note_on_c, 11, 60, 0
26, 177710, Note_on_c, 11, 60, 9
26, 177719, Note_on_c, 11, 61, 0
26, 177789, Note_on_c, 11, 60, 0
26, 177797, Note_on_c, 11, 61, 10
26, 177861, Note_on_c, 11, 60, 20
26, 177876, Note_on_c, 11, 61, 0
26, 177940, Note_on_c, 11, 60, 0
26, 177965, Note_on_c, 11, 61, 24
26, 178042, Note_on_c, 11, 60, 25
26, 178044, Note_on_c, 11, 61, 0
26, 178101, Note_on_c, 11, 61, 22
26, 178121, Note_on_c, 11, 60, 0
26, 178180, Note_on_c, 11, 61, 0
26, 178197, Note_on_c, 11, 60, 8
26, 178263, Note_on_c, 11, 61, 11
26, 178276, Note_on_c, 11, 60, 0
26, 178342, Note_on_c, 11, 61, 0
26, 178352, Note_on_c, 11, 60, 18
26, 178431, Note_on_c, 11, 60, 0
26, 178434, Note_on_c, 11, 61, 14
26, 178511, Note_on_c, 11, 60, 11
26, 178513, Note_on_c, 11, 61, 0
26, 178590, Note_on_c, 11, 60, 0
26, 178597, Note_on_c, 11, 61, 26
26, 178676, Note_on_c, 11, 61, 0
26, 178677, Note_on_c, 11, 60, 9
26, 178753, Note_on_c, 11, 61, 11
26, 178756, Note_on_c, 11, 60, 0
26, 178832, Note_on_c, 11, 61, 0
26, 178833, Note_on_c, 11, 60, 20
26, 178900, Note_on_c, 11, 61, 22
26, 178912, Note_on_c, 11, 60, 0
26, 178979, Note_on_c, 11, 61, 0
26, 178982, Note_on_c, 11, 60, 8
26, 179058, Note_on_c, 11, 61, 8
26, 179061, Note_on_c, 11, 60, 0
26, 179137, Note_on_c, 11, 61, 0
26, 179152, Note_on_c, 11, 60, 20
26, 179222, Note_on_c, 11, 61, 8
26, 179231, Note_on_c, 11, 60, 0
26, 179298, Note_on_c, 11, 60, 22
26, 179301, Note_on_c, 11, 61, 0
26, 179377, Note_on_c, 11, 60, 0
26, 179399, Note_on_c, 11, 61, 27
26, 179464, Note_on_c, 11, 60, 19
26, 179478, Note_on_c, 11, 61, 0
26, 179540, Note_on_c, 11, 61, 23
26, 179543, Note_on_c, 11, 60, 0
26, 179613, Note_on_c, 11, 60, 25
26, 179619, Note_on_c, 11, 61, 0
26, 179692, Note_on_c, 11, 60, 0
26, 179700, Note_on_c, 11, 61, 12
26, 179779, Note_on_c, 11, 61, 0
26, 179782, Note_on_c, 11, 60, 23
26, 179861, Note_on_c, 11, 60, 0
26, 179863, Note_on_c, 11, 61, 10
26, 179934, Note_on_c, 11, 60, 16
26, 179942, Note_on_c, 11, 61, 0
26, 180016, Note_on_c, 11, 60, 0
26, 180027, Note_on_c, 11, 61, 16
26, 180096, Note_on_c, 11, 60, 7
26, 180106, Note_on_c, 11, 61, 0
26, 180175, Note_on_c, 11, 60, 0
26, 180185, Note_on_c, 11, 61, 16
26, 180259, Note_on_c, 11, 60, 24
26, 180264, Note_on_c, 11, 61, 0
26, 180338, Note_on_c, 11, 60, 0
26, 180350, Note_on_c, 11, 61, 10
26, 180418, Note_on_c, 11, 60, 18
26, 180429, Note_on_c, 11, 61, 0
26, 180497, Note_on_c, 11, 60, 0
26, 180500, Note_on_c, 11, 61, 22
26, 180579, Note_on_c, 11, 61, 0
26, 180589, Note_on_c, 11, 60, 16
26, 180653, Note_on_c, 11, 61, 14
26, 180668, Note_on_c, 11, 60, 0
26, 180730, Note_on_c, 11, 60, 18
26, 180732, Note_on_c, 11, 61, 0
26, 180809, Note_on_c, 11, 60, 0
26, 180812, Note_on_c, 11, 61, 15
26, 180891, Note_on_c, 11, 61, 0
26, 180897, Note_on_c, 11, 60, 7
26, 180972, Note_on_c, 11, 61, 27
26, 180983, Note_on_c, 11, 60, 0
26, 181051, Note_on_c, 11, 61, 0
26, 181058, Note_on_c, 11, 60, 24
26, 181136, Note_on_c, 11, 61, 17
26, 181137, Note_on_c, 11, 60, 0
26, 181215, Note_on_c, 11, 61, 0
26, 181228, Note_on_c, 11, 60, 14
26, 181307, Note_on_c, 11, 60, 0
26, 181307, Note_on_c, 11, 61, 17
26, 181380, Note_on_c, 11, 60, 18
26, 181386, Note_on_c, 11, 61, 0
26, 181454, Note_on_c, 11, 61, 7
26, 181459, Note_on_c, 11, 60, 0
26, 181528, Note_on_c, 11, 60, 13
26, 181533, Note_on_c, 11, 61, 0
26, 181607, Note_on_c, 11, 60, 0
26, 181627, Note_on_c, 11, 61, 21
26, 181698, Note_on_c, 11, 60, 17
26, 181706, Note_on_c, 11, 61, 0
26, 181766, Note_on_c, 11, 61, 13
26, 181777, Note_on_c, 11, 60, 0
26, 181845, Note_on_c, 11, 61, 0
26, 181847, Note_on_c, 11, 60, 15
26, 181937, Note_on_c, 11, 60, 0
26, 181942, Note_on_c, 11, 61, 17
26, 182013, Note_on_c, 11, 60, 10
26, 182021, Note_on_c, 11, 61, 0
26, 182092, Note_on_c, 11, 60, 0
26, 182096, Note_on_c, 11, 61, 23
26, 182174, Note_on_c, 11, 60, 8
26, 182175, Note_on_c, 11, 61, 0
26, 182253, Note_on_c, 11, 60, 0
26, 182256, Note_on_c, 11, 61, 26
26, 182329, Note_on_c, 11, 60, 10
26, 182335, Note_on_c, 11, 61, 0
26, 182408, Note_on_c, 11, 60, 0
26, 182421, Note_on_c, 11, 61, 11
26, 182483, Note_on_c, 11, 60, 21
26, 182500, Note_on_c, 11, 61, 0
26, 182562, Note_on_c, 11, 60, 0
26, 182577, Note_on_c, 11, 61, 22
26, 182651, Note_on_c, 11, 60, 7
26, 182656, Note_on_c, 11, 61, 0
26, 182727, Note_on_c, 11, 61, 22
26, 182730, Note_on_c, 11, 60, 0
26, 182806, Note_on_c, 11, 61, 0
26, 182813, Note_on_c, 11, 60, 21
26, 182893, Note_on_c, 11, 61, 11
26, 182907, Note_on_c, 11, 60, 0
26, 182972, Note_on_c, 11, 61, 0
26, 182985, Note_on_c, 11, 60, 13
26, 183043, Note_on_c, 11, 61, 7
26, 183064, Note_on_c, 11, 60, 0
26, 183122, Note_on_c, 11, 61, 0
26, 183143, Note_on_c, 11, 60, 21
26, 183220, Note_on_c, 11, 61, 18
26, 183222, Note_on_c, 11, 60, 0
26, 183288, Note_on_c, 11, 60, 7
26, 183299, Note_on_c, 11, 61, 0
26, 183367, Note_on_c, 11, 60, 0
26, 183379, Note_on_c, 11, 61, 12
26, 183458, Note_on_c, 11, 61, 0
26, 183460, Note_on_c, 11, 60, 7
26, 183531, Note_on_c, 11, 61, 11
26, 183539, Note_on_c, 11, 60, 0
26, 183610, Note_on_c, 11, 61, 0
26, 183614, Note_on_c, 11, 60, 23
26, 183691, Note_on_c, 11, 61, 15
26, 183693, Note_on_c, 11, 60, 0
26, 183766, Note_on_c, 11, 60, 22
26, 183770, Note_on_c, 11, 61, 0
26, 183836, Note_on_c, 11, 61, 20
26, 183838, Note_on_c, 11, 61, 0
26, 183845, Note_on_c, 11, 60, 0
26, 183853, Note_on_c, 11, 62, 16
26, 183925, Note_on_c, 11, 60, 7
26, 183929, Note_on_c, 11, 62, 0
26, 184004, Note_on_c, 11, 60, 0
26, 184005, Note_on_c, 11, 61, 16
26, 184077, Note_on_c, 11, 60, 14
26, 184084, Note_on_c, 11, 61, 0
26, 184156, Note_on_c, 11, 60, 0
26, 184162, Note_on_c, 11, 61, 21
26, 184235, Note_on_c, 11, 60, 27
26, 184241, Note_on_c, 11, 61, 0
26, 184314, Note_on_c, 11, 60, 0
26, 184336, Note_on_c, 11, 61, 14
26, 184397, Note_on_c, 11, 60, 22
26, 184415, Note_on_c, 11, 61, 0
26, 184476, Note_on_c, 11, 60, 0
26, 184478, Note_on_c, 11, 61, 23
26, 184557, Note_on_c, 11, 61, 0
26, 184567, Note_on_c, 11, 60, 8
26, 184646, Note_on_c, 11, 60, 0
26, 184646, Note_on_c, 11, 61, 14
26, 184725, Note_on_c, 11, 61, 0
26, 184725, Note_on_c, 11, 60, 18
26, 184793, Note_on_c, 11, 61, 13
26, 184799, Note_on_c, 11, 61, 0
26, 184804, Note_on_c, 11, 60, 0
26, 184818, Note_on_c, 11, 62, 21
26, 184887, Note_on_c, 11, 60, 10
26, 184891, Note_on_c, 11, 62, 0
26, 184955, Note_on_c, 11, 61, 26
26, 184966, Note_on_c, 11, 60, 0
26, 185034, Note_on_c, 11, 61, 0
26, 185050, Note_on_c, 11, 60, 20
26, 185114, Note_on_c, 11, 61, 7
26, 185129, Note_on_c, 11, 60, 0
26, 185193, Note_on_c, 11, 61, 0
26, 185198, Note_on_c, 11, 60, 13
26, 185277, Note_on_c, 11, 60, 0
26, 185291, Note_on_c, 11, 61, 14
26, 185366, Note_on_c, 11, 60, 14
26, 185370, Note_on_c, 11, 61, 0
26, 185441, Note_on_c, 11, 61, 26
26, 185445, Note_on_c, 11, 60, 0
26, 185520, Note_on_c, 11, 61, 0
26, 185534, Note_on_c, 11, 60, 17
26, 185604, Note_on_c, 11, 61, 12
26, 185613, Note_on_c, 11, 60, 0
26, 185683, Note_on_c, 11, 61, 0
26, 185683, Note_on_c, 11, 60, 10
26, 185749, Note_on_c, 11, 61, 17
26, 185759, Note_on_c, 11, 61, 0
26, 185762, Note_on_c, 11, 60, 0
26, 185764, Note_on_c, 11, 62, 16
26, 185833, Note_on_c, 11, 62, 0
26, 185851, Note_on_c, 11, 60, 27
26, 185930, Note_on_c, 11, 60, 0
26, 185933, Note_on_c, 11, 61, 12
26, 185992, Note_on_c, 11, 60, 14
26, 186012, Note_on_c, 11, 61, 0
26, 186071, Note_on_c, 11, 60, 0
26, 186072, Note_on_c, 11, 61, 25
26, 186151, Note_on_c, 11, 61, 0
26, 186156, Note_on_c, 11, 60, 23
26, 186229, Note_on_c, 11, 61, 13
26, 186235, Note_on_c, 11, 60, 0
26, 186308, Note_on_c, 11, 61, 0
26, 186325, Note_on_c, 11, 60, 23
26, 186404, Note_on_c, 11, 60, 0
26, 186411, Note_on_c, 11, 61, 7
26, 186477, Note_on_c, 11, 60, 27
26, 186490, Note_on_c, 11, 61, 0
26, 186549, Note_on_c, 11, 61, 25
26, 186556, Note_on_c, 11, 60, 0
26, 186628, Note_on_c, 11, 61, 0
26, 186647, Note_on_c, 11, 60, 8
26, 186705, Note_on_c, 11, 61, 26
26, 186718, Note_on_c, 11, 61, 0
26, 186726, Note_on_c, 11, 60, 0
26, 186739, Note_on_c, 11, 62, 14
26, 186795, Note_on_c, 11, 60, 13
26, 186804, Note_on_c, 11, 62, 0
26, 186874, Note_on_c, 11, 60, 0
26, 186886, Note_on_c, 11, 61, 10
26, 186949, Note_on_c, 11, 60, 21
26, 186965, Note_on_c, 11, 61, 0
26, 187028, Note_on_c, 11, 60, 0
26, 187039, Note_on_c, 11, 61, 15
26, 187113, Note_on_c, 11, 60, 10
26, 187118, Note_on_c, 11, 61, 0
26, 187185, Note_on_c, 11, 61, 17
26, 187192, Note_on_c, 11, 60, 0
26, 187264, Note_on_c, 11, 61, 0
26, 187273, Note_on_c, 11, 60, 17
26, 187352, Note_on_c, 11, 60, 0
26, 187355, Note_on_c, 11, 61, 12
26, 187423, Note_on_c, 11, 60, 18
26, 187434, Note_on_c, 11, 61, 0
26, 187502, Note_on_c, 11, 60, 0
26, 187524, Note_on_c, 11, 61, 27
26, 187583, Note_on_c, 11, 60, 7
26, 187603, Note_on_c, 11, 61, 0
26, 187661, Note_on_c, 11, 61, 9
26, 187662, Note_on_c, 11, 60, 0
26, 187678, Note_on_c, 11, 61, 0
26, 187680, Note_on_c, 11, 62, 9
26, 187741, Note_on_c, 11, 62, 0
26, 187750, Note_on_c, 11, 60, 8
26, 187829, Note_on_c, 11, 60, 0
26, 187839, Note_on_c, 11, 61, 24
26, 187918, Note_on_c, 11, 61, 0
26, 187926, Note_on_c, 11, 60, 16
26, 188001, Note_on_c, 11, 61, 10
26, 188005, Note_on_c, 11, 60, 0
26, 188080, Note_on_c, 11, 61, 0
26, 188080, Note_on_c, 11, 60, 11
26, 188141, Note_on_c, 11, 61, 20
26, 188159, Note_on_c, 11, 60, 0
26, 188220, Note_on_c, 11, 61, 0
26, 188245, Note_on_c, 11, 60, 27
26, 188307, Note_on_c, 11, 61, 17
26, 188324, Note_on_c, 11, 60, 0
26, 188386, Note_on_c, 11, 61, 0
26, 188402, Note_on_c, 11, 60, 17
26, 188466, Note_on_c, 11, 61, 25
26, 188481, Note_on_c, 11, 60, 0
26, 188545, Note_on_c, 11, 61, 0
26, 188553, Note_on_c, 11, 60, 16
26, 188618, Note_on_c, 11, 61, 27
26, 188632, Note_on_c, 11, 60, 0
26, 188639, Note_on_c, 11, 61, 0
26, 188640, Note_on_c, 11, 62, 9
26, 188698, Note_on_c, 11, 62, 0
26, 188712, Note_on_c, 11, 60, 7
26, 188785, Note_on_c, 11, 61, 12
26, 188791, Note_on_c, 11, 60, 0
26, 188864, Note_on_c, 11, 61, 0
26, 188864, Note_on_c, 11, 60, 12
26, 188937, Note_on_c, 11, 61, 7
26, 188943, Note_on_c, 11, 60, 0
26, 189016, Note_on_c, 11, 61, 0
26, 189038, Note_on_c, 11, 60, 26
26, 189104, Note_on_c, 11, 61, 8
26, 189117, Note_on_c, 11, 60, 0
26, 189181, Note_on_c, 11, 60, 16
26, 189183, Note_on_c, 11, 61, 0
26, 189260, Note_on_c, 11, 60, 0
26, 189260, Note_on_c, 11, 61, 9
26, 189339, Note_on_c, 11, 61, 0
26, 189339, Note_on_c, 11, 60, 8
26, 189418, Note_on_c, 11, 60, 0
26, 189440, Note_on_c, 11, 61, 27
26, 189502, Note_on_c, 11, 60, 14
26, 189519, Note_on_c, 11, 61, 0
26, 189574, Note_on_c, 11, 61, 26
26, 189581, Note_on_c, 11, 60, 0
26, 189599, Note_on_c, 11, 61, 0
26, 189600, Note_on_c, 11, 62, 24
26, 189654, Note_on_c, 11, 62, 0
26, 189664, Note_on_c, 11, 60, 10
26, 189743, Note_on_c, 11, 60, 0
26, 189752, Note_on_c, 11, 61, 27
26, 189825, Note_on_c, 11, 60, 20
26, 189831, Note_on_c, 11, 61, 0
26, 189904, Note_on_c, 11, 60, 0
26, 189911, Note_on_c, 11, 61, 11
26, 189986, Note_on_c, 11, 60, 24
26, 189990, Note_on_c, 11, 61, 0
26, 190065, Note_on_c, 11, 60, 0
26, 190069, Note_on_c, 11, 61, 27
26, 190148, Note_on_c, 11, 61, 0
26, 190157, Note_on_c, 11, 60, 18
26, 190221, Note_on_c, 11, 61, 19
26, 190236, Note_on_c, 11, 60, 0
26, 190300, Note_on_c, 11, 61, 0
26, 190314, Note_on_c, 11, 60, 26
26, 190376, Note_on_c, 11, 61, 25
26, 190393, Note_on_c, 11, 60, 0
26, 190455, Note_on_c, 11, 61, 0
26, 190471, Note_on_c, 11, 60, 20
26, 190530, Note_on_c, 11, 61, 8
26, 190550, Note_on_c, 11, 60, 0
26, 190558, Note_on_c, 11, 61, 0
26, 190560, Note_on_c, 11, 62, 17
26, 190610, Note_on_c, 11, 62, 0
26, 190623, Note_on_c, 11, 60, 11
26, 190701, Note_on_c, 11, 61, 8
26, 190702, Note_on_c, 11, 60, 0
26, 190774, Note_on_c, 11, 60, 8
26, 190780, Note_on_c, 11, 61, 0
26, 190853, Note_on_c, 11, 60, 0
26, 190868, Note_on_c, 11, 61, 16
26, 190934, Note_on_c, 11, 60, 14
26, 190947, Note_on_c, 11, 61, 0
26, 191013, Note_on_c, 11, 60, 0
26, 191014, Note_on_c, 11, 61, 19
26, 191093, Note_on_c, 11, 61, 0
26, 191100, Note_on_c, 11, 60, 26
26, 191179, Note_on_c, 11, 60, 0
26, 191186, Note_on_c, 11, 61, 8
26, 191248, Note_on_c, 11, 60, 18
26, 191265, Note_on_c, 11, 61, 0
26, 191327, Note_on_c, 11, 60, 0
26, 191332, Note_on_c, 11, 61, 19
26, 191411, Note_on_c, 11, 61, 0
26, 191418, Note_on_c, 11, 60, 7
26, 191486, Note_on_c, 11, 61, 19
26, 191497, Note_on_c, 11, 60, 0
26, 191518, Note_on_c, 11, 61, 0
26, 191520, Note_on_c, 11, 62, 22
26, 191566, Note_on_c, 11, 62, 0
26, 191590, Note_on_c, 11, 60, 14
26, 191669, Note_on_c, 11, 60, 0
26, 191669, Note_on_c, 11, 61, 18
26, 191738, Note_on_c, 11, 60, 24
26, 191748, Note_on_c, 11, 61, 0
26, 191817, Note_on_c, 11, 60, 0
26, 191822, Note_on_c, 11, 61, 17
26, 191901, Note_on_c, 11, 61, 0
26, 191903, Note_on_c, 11, 60, 26
26, 191976, Note_on_c, 11, 61, 22
26, 191982, Note_on_c, 11, 60, 0
26, 192055, Note_on_c, 11, 61, 0
26, 192060, Note_on_c, 11, 60, 16
26, 192139, Note_on_c, 11, 60, 0
26, 192144, Note_on_c, 11, 61, 15
26, 192216, Note_on_c, 11, 60, 8
26, 192223, Note_on_c, 11, 61, 0
26, 192286, Note_on_c, 11, 61, 11
26, 192295, Note_on_c, 11, 60, 0
26, 192365, Note_on_c, 11, 61, 0
26, 192388, Note_on_c, 11, 60, 19
26, 192459, Note_on_c, 11, 61, 27
26, 192467, Note_on_c, 11, 60, 0
26, 192528, Note_on_c, 11, 60, 9
26, 192538, Note_on_c, 11, 61, 0
26, 192607, Note_on_c, 11, 60, 0
26, 192612, Note_on_c, 11, 61, 27
26, 192687, Note_on_c, 11, 60, 26
26, 192691, Note_on_c, 11, 61, 0
26, 192763, Note_on_c, 11, 61, 7
26, 192766, Note_on_c, 11, 60, 0
26, 192842, Note_on_c, 11, 61, 0
26, 192863, Note_on_c, 11, 60, 7
26, 192921, Note_on_c, 11, 61, 23
26, 192942, Note_on_c, 11, 60, 0
26, 192959, Note_on_c, 11, 61, 0
26, 192960, Note_on_c, 11, 62, 17
26, 193001, Note_on_c, 11, 62, 0
26, 193013, Note_on_c, 11, 60, 10
26, 193086, Note_on_c, 11, 61, 22
26, 193092, Note_on_c, 11, 60, 0
26, 193165, Note_on_c, 11, 61, 0
26, 193169, Note_on_c, 11, 60, 12
26, 193243, Note_on_c, 11, 61, 17
26, 193248, Note_on_c, 11, 60, 0
26, 193322, Note_on_c, 11, 61, 0
26, 193335, Note_on_c, 11, 60, 21
26, 193410, Note_on_c, 11, 61, 21
26, 193414, Note_on_c, 11, 60, 0
26, 193489, Note_on_c, 11, 61, 0
26, 193504, Note_on_c, 11, 60, 16
26, 193565, Note_on_c, 11, 61, 15
26, 193583, Note_on_c, 11, 60, 0
26, 193644, Note_on_c, 11, 61, 0
26, 193654, Note_on_c, 11, 60, 25
26, 193733, Note_on_c, 11, 60, 0
26, 193735, Note_on_c, 11, 61, 22
26, 193809, Note_on_c, 11, 60, 10
26, 193814, Note_on_c, 11, 61, 0
26, 193888, Note_on_c, 11, 60, 0
26, 193902, Note_on_c, 11, 61, 16
26, 193975, Note_on_c, 11, 60, 7
26, 193981, Note_on_c, 11, 61, 0
26, 194053, Note_on_c, 11, 61, 10
26, 194054, Note_on_c, 11, 60, 0
26, 194132, Note_on_c, 11, 61, 0
26, 194134, Note_on_c, 11, 60, 16
26, 194209, Note_on_c, 11, 61, 25
26, 194213, Note_on_c, 11, 60, 0
26, 194285, Note_on_c, 11, 60, 21
26, 194288, Note_on_c, 11, 61, 0
26, 194364, Note_on_c, 11, 60, 0
26, 211680, Note_on_c, 11, 59, 42
26, 211772, Note_on_c, 11, 59, 0
26, 211823, Note_on_c, 11, 59, 48
26, 211943, Note_on_c, 11, 59, 0
26, 211945, Note_on_c, 11, 62, 48
26, 212037, Note_on_c, 11, 62, 0
26, 212056, Note_on_c, 11, 62, 46
26, 212176, Note_on_c, 11, 62, 0
26, 212180, Note_on_c, 11, 61, 56
26, 212272, Note_on_c, 11, 61, 0
26, 212303, Note_on_c, 11, 61, 59
26, 212423, Note_on_c, 11, 61, 0
26, 212424, Note_on_c, 11, 64, 58
26, 212516, Note_on_c, 11, 64, 0
26, 212536, Note_on_c, 11, 64, 50
26, 212656, Note_on_c, 11, 64, 0
26, 212663, Note_on_c, 11, 59, 42
26, 212755, Note_on_c, 11, 59, 0
26, 212771, Note_on_c, 11, 59, 51
26, 212881, Note_on_c, 11, 62, 39
26, 212891, Note_on_c, 11, 59, 0
26, 212973, Note_on_c, 11, 62, 0
26, 213012, Note_on_c, 11, 62, 51
26, 213132, Note_on_c, 11, 62, 0
26, 213132, Note_on_c, 11, 61, 59
26, 213224, Note_on_c, 11, 61, 0
26, 213245, Note_on_c, 11, 61, 59
26, 213365, Note_on_c, 11, 61, 0
26, 213381, Note_on_c, 11, 64, 48
26, 213473, Note_on_c, 11, 64, 0
26, 213482, Note_on_c, 11, 64, 57
26, 213602, Note_on_c, 11, 64, 0
26, 213622, Note_on_c, 11, 59, 59
26, 213714, Note_on_c, 11, 59, 0
26, 213740, Note_on_c, 11, 59, 57
26, 213847, Note_on_c, 11, 62, 63
26, 213860, Note_on_c, 11, 59, 0
26, 213939, Note_on_c, 11, 62, 0
26, 213968, Note_on_c, 11, 62, 61
26, 214088, Note_on_c, 11, 62, 0
26, 214102, Note_on_c, 11, 61, 54
26, 214194, Note_on_c, 11, 61, 0
26, 214201, Note_on_c, 11, 61, 65
26, 214321, Note_on_c, 11, 61, 0
26, 214329, Note_on_c, 11, 64, 62
26, 214421, Note_on_c, 11, 64, 0
26, 214450, Note_on_c, 11, 64, 63
26, 214570, Note_on_c, 11, 64, 0
26, 214579, Note_on_c, 11, 63, 59
26, 214671, Note_on_c, 11, 63, 0
26, 214685, Note_on_c, 11, 63, 62
26, 214804, Note_on_c, 11, 66, 78
26, 214805, Note_on_c, 11, 63, 0
26, 214896, Note_on_c, 11, 66, 0
26, 214927, Note_on_c, 11, 66, 79
26, 215047, Note_on_c, 11, 66, 0
26, 215053, Note_on_c, 11, 65, 81
26, 215145, Note_on_c, 11, 65, 0
26, 215176, Note_on_c, 11, 65, 68
26, 215284, Note_on_c, 11, 68, 77
26, 215296, Note_on_c, 11, 65, 0
26, 215376, Note_on_c, 11, 68, 0
26, 215409, Note_on_c, 11, 68, 78
26, 215529, Note_on_c, 11, 68, 0
26, 215543, Note_on_c, 11, 59, 40
26, 215635, Note_on_c, 11, 59, 0
26, 215646, Note_on_c, 11, 59, 59
26, 215766, Note_on_c, 11, 59, 0
26, 215778, Note_on_c, 11, 62, 56
26, 215870, Note_on_c, 11, 62, 0
26, 215885, Note_on_c, 11, 62, 62
26, 216005, Note_on_c, 11, 62, 0
26, 216016, Note_on_c, 11, 61, 49
26, 216108, Note_on_c, 11, 61, 0
26, 216129, Note_on_c, 11, 61, 55
26, 216249, Note_on_c, 11, 61, 0
26, 216253, Note_on_c, 11, 64, 64
26, 216345, Note_on_c, 11, 64, 0
26, 216372, Note_on_c, 11, 64, 66
26, 216492, Note_on_c, 11, 64, 0
26, 216501, Note_on_c, 11, 63, 59
26, 216593, Note_on_c, 11, 63, 0
26, 216613, Note_on_c, 11, 63, 66
26, 216733, Note_on_c, 11, 63, 0
26, 216737, Note_on_c, 11, 66, 70
26, 216829, Note_on_c, 11, 66, 0
26, 216861, Note_on_c, 11, 66, 74
26, 216969, Note_on_c, 11, 65, 72
26, 216981, Note_on_c, 11, 66, 0
26, 217061, Note_on_c, 11, 65, 0
26, 217087, Note_on_c, 11, 65, 79
26, 217204, Note_on_c, 11, 68, 82
26, 217207, Note_on_c, 11, 65, 0
26, 217296, Note_on_c, 11, 68, 0
26, 217330, Note_on_c, 11, 68, 75
26, 217450, Note_on_c, 11, 68, 0
26, 217454, Note_on_c, 11, 63, 90
26, 217546, Note_on_c, 11, 63, 0
26, 217576, Note_on_c, 11, 63, 86
26, 217696, Note_on_c, 11, 63, 0
26, 217702, Note_on_c, 11, 66, 80
26, 217794, Note_on_c, 11, 66, 0
26, 217815, Note_on_c, 11, 66, 79
26, 217920, Note_on_c, 11, 65, 94
26, 217935, Note_on_c, 11, 66, 0
26, 218012, Note_on_c, 11, 65, 0
26, 218050, Note_on_c, 11, 65, 88
26, 218170, Note_on_c, 11, 65, 0
26, 218182, Note_on_c, 11, 68, 88
26, 218274, Note_on_c, 11, 68, 0
26, 218298, Note_on_c, 11, 68, 98
26, 218415, Note_on_c, 11, 63, 101
26, 218418, Note_on_c, 11, 68, 0
26, 218507, Note_on_c, 11, 63, 0
26, 218529, Note_on_c, 11, 63, 105
26, 218649, Note_on_c, 11, 63, 0
26, 218659, Note_on_c, 11, 66, 90
26, 218751, Note_on_c, 11, 66, 0
26, 218768, Note_on_c, 11, 66, 102
26, 218888, Note_on_c, 11, 66, 0
26, 218904, Note_on_c, 11, 65, 112
26, 218996, Note_on_c, 11, 65, 0
26, 219011, Note_on_c, 11, 65, 104
26, 219125, Note_on_c, 11, 68, 109
26, 219131, Note_on_c, 11, 65, 0
26, 219217, Note_on_c, 11, 68, 0
26, 219257, Note_on_c, 11, 68, 114
26, 219377, Note_on_c, 11, 68, 0
26, 221536, Note_on_c, 11, 62, 98
26, 221543, Note_on_c, 11, 72, 108
26, 221776, Note_on_c, 11, 62, 0
26, 221783, Note_on_c, 11, 72, 0
26, 222000, Note_on_c, 11, 62, 114
26, 222002, Note_on_c, 11, 72, 97
26, 222240, Note_on_c, 11, 62, 0
26, 222242, Note_on_c, 11, 72, 0
26, 225378, Note_on_c, 11, 72, 97
26, 225380, Note_on_c, 11, 62, 113
26, 225618, Note_on_c, 11, 72, 0
26, 225620, Note_on_c, 11, 62, 0
26, 226081, Note_on_c, 11, 72, 99
26, 226093, Note_on_c, 11, 62, 102
26, 226321, Note_on_c, 11, 72, 0
26, 226333, Note_on_c, 11, 62, 0
26, 227040, Program_c, 11, 48
26, 227040, Note_on_c, 11, 69, 113
26, 227040, Note_on_c, 11, 72, 105
26, 227100, Note_on_c, 11, 69, 0
26, 227100, Note_on_c, 11, 72, 0
26, 227160, Note_on_c, 11, 69, 108
26, 227160, Note_on_c, 11, 72, 98
26, 227220, Note_on_c, 11, 69, 0
26, 227220, Note_on_c, 11, 72, 0
26, 227400, Note_on_c, 11, 69, 101
26, 227400, Note_on_c, 11, 72, 105
26, 227460, Note_on_c, 11, 69, 0
26, 227460, Note_on_c, 11, 72, 0
26, 227520, Note_on_c, 11, 69, 102
26, 227520, Note_on_c, 11, 72, 105
26, 227580, Note_on_c, 11, 69, 0
26, 227580, Note_on_c, 11, 72, 0
26, 227640, Note_on_c, 11, 69, 101
26, 227640, Note_on_c, 11, 72, 104
26, 227700, Note_on_c, 11, 69, 0
26, 227700, Note_on_c, 11, 72, 0
26, 227880, Note_on_c, 11, 69, 96
26, 227880, Note_on_c, 11, 72, 96
26, 227940, Note_on_c, 11, 69, 0
26, 227940, Note_on_c, 11, 72, 0
26, 228000, Note_on_c, 11, 69, 106
26, 228000, Note_on_c, 11, 72, 109
26, 228060, Note_on_c, 11, 69, 0
26, 228060, Note_on_c, 11, 72, 0
26, 228120, Note_on_c, 11, 69, 112
26, 228120, Note_on_c, 11, 72, 108
26, 228180, Note_on_c, 11, 69, 0
26, 228180, Note_on_c, 11, 72, 0
26, 228360, Note_on_c, 11, 69, 101
26, 228360, Note_on_c, 11, 72, 102
26, 228420, Note_on_c, 11, 69, 0
26, 228420, Note_on_c, 11, 72, 0
26, 228480, Note_on_c, 11, 69, 104
26, 228480, Note_on_c, 11, 72, 99
26, 228540, Note_on_c, 11, 69, 0
26, 228540, Note_on_c, 11, 72, 0
26, 228600, Note_on_c, 11, 69, 100
26, 228600, Note_on_c, 11, 72, 106
26, 228660, Note_on_c, 11, 69, 0
26, 228660, Note_on_c, 11, 72, 0
26, 228840, Note_on_c, 11, 69, 110
26, 228840, Note_on_c, 11, 72, 110
26, 228900, Note_on_c, 11, 69, 0
26, 228900, Note_on_c, 11, 72, 0
26, 228960, Note_on_c, 11, 69, 95
26, 228960, Note_on_c, 11, 72, 113
26, 229020, Note_on_c, 11, 69, 0
26, 229020, Note_on_c, 11, 72, 0
26, 229080, Note_on_c, 11, 69, 102
26, 229080, Note_on_c, 11, 72, 97
26, 229140, Note_on_c, 11, 69, 0
26, 229140, Note_on_c, 11, 72, 0
26, 229320, Note_on_c, 11, 69, 114
26, 229320, Note_on_c, 11, 72, 97
26, 229380, Note_on_c, 11, 69, 0
26, 229380, Note_on_c, 11, 72, 0
26, 229440, Note_on_c, 11, 69, 101
26, 229440, Note_on_c, 11, 72, 107
26, 229500, Note_on_c, 11, 69, 0
26, 229500, Note_on_c, 11, 72, 0
26, 229560, Note_on_c, 11, 69, 112
26, 229560, Note_on_c, 11, 72, 102
26, 229620, Note_on_c, 11, 69, 0
26, 229620, Note_on_c, 11, 72, 0
26, 229800, Note_on_c, 11, 69, 112
26, 229800, Note_on_c, 11, 72, 113
26, 229860, Note_on_c, 11, 69, 0
26, 229860, Note_on_c, 11, 72, 0
26, 229920, Note_on_c, 11, 69, 101
26, 229920, Note_on_c, 11, 72, 96
26, 229980, Note_on_c, 11, 69, 0
26, 229980, Note_on_c, 11, 72, 0
26, 230040, Note_on_c, 11, 69, 113
26, 230040, Note_on_c, 11, 72, 108
26, 230100, Note_on_c, 11, 69, 0
26, 230100, Note_on_c, 11, 72, 0
26, 230280, Note_on_c, 11, 69, 96
26, 230280, Note_on_c, 11, 72, 104
26, 230340, Note_on_c, 11, 69, 0
26, 230340, Note_on_c, 11, 72, 0
26, 230400, Note_on_c, 11, 69, 109
26, 230400, Note_on_c, 11, 72, 112
26, 230460, Note_on_c, 11, 69, 0
26, 230460, Note_on_c, 11, 72, 0
26, 230520, Note_on_c, 11, 69, 110
26, 230520, Note_on_c, 11, 72, 112
26, 230580, Note_on_c, 11, 69, 0
26, 230580, Note_on_c, 11, 72, 0
26, 230760, Note_on_c, 11, 69, 101
26, 230760, Note_on_c, 11, 72, 101
26, 230820, Note_on_c, 11, 69, 0
26, 230820, Note_on_c, 11, 72, 0
26, 230880, Note_on_c, 11, 69, 103
26, 230880, Note_on_c, 11, 72, 109
26, 230940, Note_on_c, 11, 69, 0
26, 230940, Note_on_c, 11, 72, 0
26, 234744, Note_on_c, 12, 81, 100
26, 234848, Note_on_c, 12, 81, 67
26, 234864, Note_on_c, 12, 81, 0
26, 234967, Note_on_c, 12, 83, 88
26, 234968, Note_on_c, 12, 81, 0
26, 235084, Note_on_c, 12, 83, 79
26, 235087, Note_on_c, 12, 83, 0
26, 235204, Note_on_c, 12, 83, 0
26, 235218, Note_on_c, 12, 81, 99
26, 235323, Note_on_c, 12, 81, 74
26, 235338, Note_on_c, 12, 81, 0
26, 235443, Note_on_c, 12, 81, 0
26, 235453, Note_on_c, 12, 86, 84
26, 235573, Note_on_c, 12, 86, 0
26, 235577, Note_on_c, 12, 86, 85
26, 235681, Note_on_c, 12, 84, 95
26, 235697, Note_on_c, 12, 86, 0
26, 235801, Note_on_c, 12, 84, 0
26, 235810, Note_on_c, 12, 84, 66
26, 235930, Note_on_c, 12, 84, 0
26, 235937, Note_on_c, 12, 83, 75
26, 236051, Note_on_c, 12, 81, 79
26, 236057, Note_on_c, 12, 83, 0
26, 236167, Note_on_c, 12, 83, 91
26, 236171, Note_on_c, 12, 81, 0
26, 236287, Note_on_c, 12, 83, 0
26, 236304, Note_on_c, 12, 83, 72
26, 236424, Note_on_c, 12, 83, 0
26, 236425, Note_on_c, 12, 79, 103
26, 236526, Note_on_c, 12, 79, 85
26, 236545, Note_on_c, 12, 79, 0
26, 236640, Note_on_c, 12, 81, 104
26, 236646, Note_on_c, 12, 79, 0
26, 236760, Note_on_c, 12, 81, 0
26, 236775, Note_on_c, 12, 81, 71
26, 236890, Note_on_c, 12, 86, 88
26, 236895, Note_on_c, 12, 81, 0
26, 237010, Note_on_c, 12, 86, 0
26, 237016, Note_on_c, 12, 86, 79
26, 237136, Note_on_c, 12, 86, 0
26, 237138, Note_on_c, 12, 91, 93
26, 237250, Note_on_c, 12, 84, 71
26, 237258, Note_on_c, 12, 91, 0
26, 237369, Note_on_c, 12, 86, 93
26, 237370, Note_on_c, 12, 84, 0
26, 237489, Note_on_c, 12, 86, 0
26, 237504, Note_on_c, 12, 79, 75
26, 237601, Note_on_c, 12, 81, 103
26, 237624, Note_on_c, 12, 79, 0
26, 237721, Note_on_c, 12, 81, 0
26, 237731, Note_on_c, 12, 81, 69
26, 237840, Note_on_c, 12, 86, 78
26, 237851, Note_on_c, 12, 81, 0
26, 237960, Note_on_c, 12, 86, 0
26, 237977, Note_on_c, 12, 86, 80
26, 238094, Note_on_c, 12, 84, 93
26, 238097, Note_on_c, 12, 86, 0
26, 238214, Note_on_c, 12, 84, 0
26, 238220, Note_on_c, 12, 84, 68
26, 238337, Note_on_c, 12, 83, 79
26, 238340, Note_on_c, 12, 84, 0
26, 238457, Note_on_c, 12, 83, 0
26, 238463, Note_on_c, 12, 79, 68
26, 238560, Note_on_c, 12, 93, 95
26, 238583, Note_on_c, 12, 79, 0
26, 238800, Note_on_c, 12, 93, 0
26, 238811, Note_on_c, 12, 95, 87
26, 238926, Note_on_c, 12, 91, 87
26, 238931, Note_on_c, 12, 95, 0
26, 239046, Note_on_c, 12, 91, 0
26, 239056, Note_on_c, 12, 93, 89
26, 239280, Note_on_c, 12, 86, 90
26, 239296, Note_on_c, 12, 93, 0
26, 239520, Note_on_c, 12, 86, 0
26, 239531, Note_on_c, 12, 84, 90
26, 239771, Note_on_c, 12, 84, 0
26, 239780, Note_on_c, 12, 83, 78
26, 239900, Note_on_c, 12, 83, 0
26, 239904, Note_on_c, 12, 81, 94
26, 240001, Note_on_c, 12, 83, 93
26, 240024, Note_on_c, 12, 81, 0
26, 240241, Note_on_c, 12, 83, 0
26, 240253, Note_on_c, 12, 91, 97
26, 240493, Note_on_c, 12, 91, 0
26, 240502, Note_on_c, 12, 93, 89
26, 240721, Note_on_c, 12, 86, 94
26, 240742, Note_on_c, 12, 93, 0
26, 240961, Note_on_c, 12, 86, 0
26, 240983, Note_on_c, 12, 91, 97
26, 241083, Note_on_c, 12, 84, 97
26, 241103, Note_on_c, 12, 91, 0
26, 241203, Note_on_c, 12, 84, 0
26, 241209, Note_on_c, 12, 86, 85
26, 241323, Note_on_c, 12, 79, 92
26, 241329, Note_on_c, 12, 86, 0
26, 241443, Note_on_c, 12, 79, 0
26, 241449, Note_on_c, 12, 81, 81
26, 241689, Note_on_c, 12, 81, 0
26, 241689, Note_on_c, 12, 86, 95
26, 241924, Note_on_c, 12, 84, 97
26, 241929, Note_on_c, 12, 86, 0
26, 242164, Note_on_c, 12, 84, 0
26, 242171, Note_on_c, 12, 83, 80
26, 242291, Note_on_c, 12, 83, 0
26, 242297, Note_on_c, 12, 91, 92
26, 242404, Note_on_c, 12, 93, 80
26, 242415, Note_on_c, 12, 69, 89
26, 242417, Note_on_c, 12, 91, 0
26, 242642, Note_on_c, 12, 95, 92
26, 242644, Note_on_c, 12, 93, 0
26, 242655, Note_on_c, 12, 69, 0
26, 242762, Note_on_c, 12, 95, 0
26, 242762, Note_on_c, 12, 91, 88
26, 242882, Note_on_c, 12, 91, 0
26, 242885, Note_on_c, 12, 93, 95
26, 243125, Note_on_c, 12, 93, 0
26, 243126, Note_on_c, 12, 86, 87
26, 243366, Note_on_c, 12, 86, 0
26, 243373, Note_on_c, 12, 84, 78
26, 243613, Note_on_c, 12, 84, 0
26, 243616, Note_on_c, 12, 83, 85
26, 243728, Note_on_c, 12, 81, 86
26, 243736, Note_on_c, 12, 83, 0
26, 243848, Note_on_c, 12, 81, 0
26, 243864, Note_on_c, 12, 83, 78
26, 244098, Note_on_c, 12, 91, 94
26, 244104, Note_on_c, 12, 83, 0
26, 244327, Note_on_c, 12, 93, 98
26, 244338, Note_on_c, 12, 91, 0
26, 244567, Note_on_c, 12, 93, 0
26, 244569, Note_on_c, 12, 86, 79
26, 244809, Note_on_c, 12, 86, 0
26, 244819, Note_on_c, 12, 91, 79
26, 244923, Note_on_c, 12, 84, 97
26, 244939, Note_on_c, 12, 91, 0
26, 245043, Note_on_c, 12, 84, 0
26, 245047, Note_on_c, 12, 86, 83
26, 245167, Note_on_c, 12, 86, 0
26, 245167, Note_on_c, 12, 79, 81
26, 245286, Note_on_c, 12, 81, 97
26, 245287, Note_on_c, 12, 79, 0
26, 245526, Note_on_c, 12, 81, 0
26, 245535, Note_on_c, 12, 86, 78
26, 245764, Note_on_c, 12, 84, 81
26, 245775, Note_on_c, 12, 86, 0
26, 246004, Note_on_c, 12, 84, 0
26, 246008, Note_on_c, 12, 83, 87
26, 246125, Note_on_c, 12, 91, 84
26, 246128, Note_on_c, 12, 83, 0
26, 246245, Note_on_c, 12, 91, 0
26, 246265, Note_on_c, 12, 93, 78
26, 246498, Note_on_c, 12, 86, 80
26, 246505, Note_on_c, 12, 93, 0
26, 246738, Note_on_c, 12, 86, 0
26, 246741, Note_on_c, 12, 91, 90
26, 246849, Note_on_c, 12, 84, 96
26, 246861, Note_on_c, 12, 91, 0
26, 246967, Note_on_c, 12, 86, 89
26, 246969, Note_on_c, 12, 84, 0
26, 247081, Note_on_c, 12, 79, 88
26, 247087, Note_on_c, 12, 86, 0
26, 247201, Note_on_c, 12, 79, 0
26, 247214, Note_on_c, 12, 93, 92
26, 247443, Note_on_c, 12, 86, 87
26, 247454, Note_on_c, 12, 93, 0
26, 247683, Note_on_c, 12, 86, 0
26, 247688, Note_on_c, 12, 91, 82
26, 247804, Note_on_c, 12, 84, 94
26, 247808, Note_on_c, 12, 91, 0
26, 247924, Note_on_c, 12, 84, 0
26, 247940, Note_on_c, 12, 86, 90
26, 248050, Note_on_c, 12, 79, 90
26, 248060, Note_on_c, 12, 86, 0
26, 248170, Note_on_c, 12, 79, 0
26, 248182, Note_on_c, 12, 93, 94
26, 248405, Note_on_c, 12, 86, 87
26, 248422, Note_on_c, 12, 93, 0
26, 248645, Note_on_c, 12, 86, 0
26, 248659, Note_on_c, 12, 91, 98
26, 248779, Note_on_c, 12, 91, 0
26, 248780, Note_on_c, 12, 84, 98
26, 248884, Note_on_c, 12, 86, 95
26, 248900, Note_on_c, 12, 84, 0
26, 249004, Note_on_c, 12, 86, 0
26, 249022, Note_on_c, 12, 79, 86
26, 249135, Note_on_c, 12, 81, 78
26, 249142, Note_on_c, 12, 79, 0
26, 249375, Note_on_c, 12, 81, 0
26, 249376, Note_on_c, 12, 86, 84
26, 249608, Note_on_c, 12, 84, 83
26, 249616, Note_on_c, 12, 86, 0
26, 249848, Note_on_c, 12, 84, 0
26, 249864, Note_on_c, 12, 83, 98
26, 249984, Note_on_c, 12, 83, 0
26, 249984, Note_on_c, 12, 79, 94
26, 250104, Note_on_c, 12, 79, 0
26, 268325, Note_on_c, 12, 79, 88
26, 268332, Note_on_c, 12, 85, 80
26, 268458, Note_on_c, 12, 79, 0
26, 268465, Note_on_c, 12, 85, 0
26, 268467, Note_on_c, 12, 78, 88
26, 268472, Note_on_c, 12, 84, 97
26, 268596, Note_on_c, 12, 83, 87
26, 268600, Note_on_c, 12, 78, 0
26, 268602, Note_on_c, 12, 77, 97
26, 268605, Note_on_c, 12, 84, 0
26, 268729, Note_on_c, 12, 83, 0
26, 268729, Note_on_c, 12, 76, 83
26, 268735, Note_on_c, 12, 77, 0
26, 268743, Note_on_c, 12, 82, 95
26, 268858, Note_on_c, 12, 81, 83
26, 268862, Note_on_c, 12, 76, 0
26, 268862, Note_on_c, 12, 75, 91
26, 268876, Note_on_c, 12, 82, 0
26, 268986, Note_on_c, 12, 80, 87
26, 268991, Note_on_c, 12, 81, 0
26, 268995, Note_on_c, 12, 75, 0
26, 269005, Note_on_c, 12, 74, 81
26, 269119, Note_on_c, 12, 80, 0
26, 269121, Note_on_c, 12, 73, 97
26, 269130, Note_on_c, 12, 79, 96
26, 269138, Note_on_c, 12, 74, 0
26, 269254, Note_on_c, 12, 73, 0
26, 269262, Note_on_c, 12, 72, 91
26, 269263, Note_on_c, 12, 79, 0
26, 269274, Note_on_c, 12, 78, 86
26, 269395, Note_on_c, 12, 72, 0
26, 269400, Note_on_c, 12, 71, 78
26, 269407, Note_on_c, 12, 78, 0
26, 269409, Note_on_c, 12, 77, 95
26, 269521, Note_on_c, 12, 76, 78
26, 269533, Note_on_c, 12, 71, 0
26, 269534, Note_on_c, 12, 70, 80
26, 269542, Note_on_c, 12, 77, 0
26, 269641, Note_on_c, 12, 76, 0
26, 269654, Note_on_c, 12, 70, 0
26, 288982, Note_on_c, 12, 70, 91
26, 289204, Note_on_c, 12, 71, 98
26, 289222, Note_on_c, 12, 70, 0
26, 289441, Note_on_c, 12, 72, 95
26, 289444, Note_on_c, 12, 71, 0
26, 289681, Note_on_c, 12, 72, 0
26, 289694, Note_on_c, 12, 73, 78
26, 289934, Note_on_c, 12, 73, 0
26, 289935, Note_on_c, 12, 74, 95
26, 290163, Note_on_c, 12, 75, 80
26, 290175, Note_on_c, 12, 74, 0
26, 290402, Note_on_c, 12, 76, 78
26, 290403, Note_on_c, 12, 75, 0
26, 290570, Note_on_c, 12, 76, 0
26, 290644, Note_on_c, 12, 76, 78
26, 290812, Note_on_c, 12, 76, 0
26, 290889, Note_on_c, 12, 76, 96
26, 291057, Note_on_c, 12, 76, 0
26, 291122, Note_on_c, 12, 73, 82
26, 291290, Note_on_c, 12, 73, 0
26, 291363, Note_on_c, 12, 73, 97
26, 291531, Note_on_c, 12, 73, 0
26, 291616, Note_on_c, 12, 73, 83
26, 291784, Note_on_c, 12, 73, 0
26, 291856, Note_on_c, 12, 73, 84
26, 292024, Note_on_c, 12, 73, 0
26, 292083, Note_on_c, 12, 74, 86
26, 292323, Note_on_c, 12, 74, 0
26, 292333, Note_on_c, 12, 75, 84
26, 292562, Note_on_c, 12, 76, 78
26, 292573, Note_on_c, 12, 75, 0
26, 292802, Note_on_c, 12, 76, 0
26, 292820, Note_on_c, 12, 75, 86
26, 293050, Note_on_c, 12, 74, 86
26, 293060, Note_on_c, 12, 75, 0
26, 293290, Note_on_c, 12, 74, 0
26, 293304, Note_on_c, 12, 73, 98
26, 293522, Note_on_c, 12, 73, 93
26, 293544, Note_on_c, 12, 73, 0
26, 293762, Note_on_c, 12, 73, 0
26, 293774, Note_on_c, 12, 73, 91
26, 294014, Note_on_c, 12, 73, 0
26, 294016, Note_on_c, 12, 73, 85
26, 294111, Note_on_c, 12, 73, 0
26, 294739, Note_on_c, 12, 85, 83
26, 294740, Note_on_c, 12, 82, 80
26, 294823, Note_on_c, 12, 85, 0
26, 294824, Note_on_c, 12, 82, 0
26, 294850, Note_on_c, 12, 85, 89
26, 294856, Note_on_c, 12, 82, 100
26, 294934, Note_on_c, 12, 85, 0
26, 294940, Note_on_c, 12, 82, 0
26, 294970, Note_on_c, 12, 85, 103
26, 294973, Note_on_c, 12, 82, 90
26, 295054, Note_on_c, 12, 85, 0
26, 295057, Note_on_c, 12, 82, 0
26, 295096, Note_on_c, 12, 85, 102
26, 295105, Note_on_c, 12, 82, 97
26, 295180, Note_on_c, 12, 85, 0
26, 295189, Note_on_c, 12, 82, 0
26, 295216, Note_on_c, 12, 85, 96
26, 295223, Note_on_c, 12, 82, 90
26, 295300, Note_on_c, 12, 85, 0
26, 295307, Note_on_c, 12, 82, 0
26, 295323, Note_on_c, 12, 85, 105
26, 295327, Note_on_c, 12, 82, 106
26, 295407, Note_on_c, 12, 85, 0
26, 295411, Note_on_c, 12, 82, 0
26, 295448, Note_on_c, 12, 82, 110
26, 295454, Note_on_c, 12, 85, 95
26, 295532, Note_on_c, 12, 82, 0
26, 295538, Note_on_c, 12, 85, 0
26, 295575, Note_on_c, 12, 85, 98
26, 295585, Note_on_c, 12, 82, 106
26, 295659, Note_on_c, 12, 85, 0
26, 295669, Note_on_c, 12, 82, 0
26, 295695, Note_on_c, 12, 85, 86
26, 295704, Note_on_c, 12, 82, 90
26, 295779, Note_on_c, 12, 85, 0
26, 295788, Note_on_c, 12, 82, 0
26, 295815, Note_on_c, 12, 85, 88
26, 295818, Note_on_c, 12, 82, 97
26, 295899, Note_on_c, 12, 85, 0
26, 295902, Note_on_c, 12, 82, 0
26, 295929, Note_on_c, 12, 82, 96
26, 295931, Note_on_c, 12, 85, 99
26, 296013, Note_on_c, 12, 82, 0
26, 296015, Note_on_c, 12, 85, 0
26, 296047, Note_on_c, 12, 82, 79
26, 296051, Note_on_c, 12, 85, 81
26, 296131, Note_on_c, 12, 82, 0
26, 296135, Note_on_c, 12, 85, 0
26, 296160, Program_c, 12, 45
26, 296174, Note_on_c, 12, 60, 94
26, 296410, Note_on_c, 12, 64, 104
26, 296414, Note_on_c, 12, 60, 0
26, 296649, Note_on_c, 12, 67, 91
26, 296650, Note_on_c, 12, 64, 0
26, 296880, Program_c, 12, 40
26, 296889, Note_on_c, 12, 67, 0
26, 297603, Note_on_c, 12, 85, 97
26, 297622, Note_on_c, 12, 82, 84
26, 297687, Note_on_c, 12, 85, 0
26, 297706, Note_on_c, 12, 82, 0
26, 297720, Note_on_c, 12, 82, 85
26, 297727, Note_on_c, 12, 85, 81
26, 297804, Note_on_c, 12, 82, 0
26, 297811, Note_on_c, 12, 85, 0
26, 297844, Note_on_c, 12, 85, 88
26, 297861, Note_on_c, 12, 82, 88
26, 297928, Note_on_c, 12, 85, 0
26, 297945, Note_on_c, 12, 82, 0
26, 297961, Note_on_c, 12, 85, 87
26, 297964, Note_on_c, 12, 82, 106
26, 298045, Note_on_c, 12, 85, 0
26, 298048, Note_on_c, 12, 82, 0
26, 298083, Note_on_c, 12, 85, 106
26, 298095, Note_on_c, 12, 82, 105
26, 298167, Note_on_c, 12, 85, 0
26, 298179, Note_on_c, 12, 82, 0
26, 298200, Note_on_c, 12, 82, 91
26, 298212, Note_on_c, 12, 85, 106
26, 298284, Note_on_c, 12, 82, 0
26, 298296, Note_on_c, 12, 85, 0
26, 298337, Note_on_c, 12, 82, 94
26, 298341, Note_on_c, 12, 85, 103
26, 298421, Note_on_c, 12, 82, 0
26, 298425, Note_on_c, 12, 85, 0
26, 298447, Note_on_c, 12, 85, 107
26, 298458, Note_on_c, 12, 82, 107
26, 298531, Note_on_c, 12, 85, 0
26, 298542, Note_on_c, 12, 82, 0
26, 298565, Note_on_c, 12, 82, 104
26, 298585, Note_on_c, 12, 85, 98
26, 298649, Note_on_c, 12, 82, 0
26, 298669, Note_on_c, 12, 85, 0
26, 298687, Note_on_c, 12, 82, 103
26, 298698, Note_on_c, 12, 85, 103
26, 298771, Note_on_c, 12, 82, 0
26, 298782, Note_on_c, 12, 85, 0
26, 298814, Note_on_c, 12, 85, 93
26, 298815, Note_on_c, 12, 82, 84
26, 298898, Note_on_c, 12, 85, 0
26, 298899, Note_on_c, 12, 82, 0
26, 298922, Note_on_c, 12, 85, 88
26, 298931, Note_on_c, 12, 82, 97
26, 299006, Note_on_c, 12, 85, 0
26, 299015, Note_on_c, 12, 82, 0
26, 300484, Note_on_c, 12, 85, 86
26, 300499, Note_on_c, 12, 82, 95
26, 300568, Note_on_c, 12, 85, 0
26, 300583, Note_on_c, 12, 82, 0
26, 300622, Note_on_c, 12, 82, 90
26, 300623, Note_on_c, 12, 85, 89
26, 300706, Note_on_c, 12, 82, 0
26, 300707, Note_on_c, 12, 85, 0
26, 300731, Note_on_c, 12, 82, 94
26, 300736, Note_on_c, 12, 85, 99
26, 300815, Note_on_c, 12, 82, 0
26, 300820, Note_on_c, 12, 85, 0
26, 300861, Note_on_c, 12, 85, 91
26, 300865, Note_on_c, 12, 82, 101
26, 300945, Note_on_c, 12, 85, 0
26, 300949, Note_on_c, 12, 82, 0
26, 300970, Note_on_c, 12, 82, 103
26, 300971, Note_on_c, 12, 85, 103
26, 301054, Note_on_c, 12, 82, 0
26, 301055, Note_on_c, 12, 85, 0
26, 301093, Note_on_c, 12, 82, 103
26, 301093, Note_on_c, 12, 85, 101
26, 301177, Note_on_c, 12, 82, 0
26, 301177, Note_on_c, 12, 85, 0
26, 301206, Note_on_c, 12, 82, 95
26, 301225, Note_on_c, 12, 85, 109
26, 301290, Note_on_c, 12, 82, 0
26, 301309, Note_on_c, 12, 85, 0
26, 301325, Note_on_c, 12, 85, 88
26, 301328, Note_on_c, 12, 82, 99
26, 301409, Note_on_c, 12, 85, 0
26, 301412, Note_on_c, 12, 82, 0
26, 301452, Note_on_c, 12, 82, 92
26, 301460, Note_on_c, 12, 85, 97
26, 301536, Note_on_c, 12, 82, 0
26, 301544, Note_on_c, 12, 85, 0
26, 301571, Note_on_c, 12, 85, 100
26, 301584, Note_on_c, 12, 82, 92
26, 301655, Note_on_c, 12, 85, 0
26, 301668, Note_on_c, 12, 82, 0
26, 301680, Note_on_c, 12, 82, 94
26, 301697, Note_on_c, 12, 85, 81
26, 301764, Note_on_c, 12, 82, 0
26, 301781, Note_on_c, 12, 85, 0
26, 301807, Note_on_c, 12, 85, 78
26, 301814, Note_on_c, 12, 82, 81
26, 301891, Note_on_c, 12, 85, 0
26, 301898, Note_on_c, 12, 82, 0
26, 326882, Note_on_c, 12, 86, 109
26, 327602, Note_on_c, 12, 86, 0
26, 327602, Note_on_c, 12, 89, 102
26, 328322, Note_on_c, 12, 89, 0
26, 328340, Note_on_c, 12, 90, 101
26, 329060, Note_on_c, 12, 90, 0
26, 329064, Note_on_c, 12, 83, 111
26, 329783, Note_on_c, 12, 84, 108
26, 329784, Note_on_c, 12, 83, 0
26, 330503, Note_on_c, 12, 84, 0
26, 330503, Note_on_c, 12, 77, 111
26, 331223, Note_on_c, 12, 77, 0
26, 384729, Note_on_c, 12, 61, 82
26, 384743, Note_on_c, 12, 65, 71
26, 386409, Note_on_c, 12, 61, 0
26, 386423, Note_on_c, 12, 65, 0
26, 390488, Note_on_c, 12, 65, 72
26, 390499, Note_on_c, 12, 61, 79
26, 393848, Note_on_c, 12, 65, 0
26, 393859, Note_on_c, 12, 61, 0
26, 419776, Note_on_c, 12, 65, 70
26, 419784, Note_on_c, 12, 61, 84
26, 421696, Note_on_c, 12, 65, 0
26, 421704, Note_on_c, 12, 61, 0
26, 423611, Note_on_c, 12, 65, 71
26, 423625, Note_on_c, 12, 61, 79
26, 426731, Note_on_c, 12, 65, 0
26, 426745, Note_on_c, 12, 61, 0
26, 497282, Note_on_c, 12, 77, 95
26, 497298, Note_on_c, 12, 60, 83
26, 497302, Note_on_c, 12, 69, 81
26, 497418, Note_on_c, 12, 60, 0
26, 497422, Note_on_c, 12, 69, 0
26, 497642, Note_on_c, 12, 77, 0
26, 497775, Note_on_c, 12, 76, 92
26, 497895, Note_on_c, 12, 76, 0
26, 498021, Note_on_c, 12, 77, 90
26, 498141, Note_on_c, 12, 77, 0
26, 498254, Note_on_c, 12, 71, 94
26, 498374, Note_on_c, 12, 71, 0
26, 498480, Note_on_c, 12, 72, 91
26, 498600, Note_on_c, 12, 72, 0
26, 498742, Note_on_c, 12, 71, 86
26, 498862, Note_on_c, 12, 71, 0
26, 498969, Note_on_c, 12, 76, 88
26, 499089, Note_on_c, 12, 76, 0
26, 499224, Note_on_c, 12, 72, 82
26, 499344, Note_on_c, 12, 72, 0
26, 499462, Note_on_c, 12, 77, 86
26, 499582, Note_on_c, 12, 77, 0
26, 499689, Note_on_c, 12, 71, 92
26, 499809, Note_on_c, 12, 71, 0
26, 499945, Note_on_c, 12, 72, 94
26, 500065, Note_on_c, 12, 72, 0
26, 500179, Note_on_c, 12, 71, 79
26, 500299, Note_on_c, 12, 71, 0
26, 500411, Note_on_c, 12, 76, 94
26, 500531, Note_on_c, 12, 76, 0
26, 503531, Note_on_c, 12, 77, 95
26, 503531, Note_on_c, 12, 60, 96
26, 503541, Note_on_c, 12, 69, 82
26, 503651, Note_on_c, 12, 60, 0
26, 503661, Note_on_c, 12, 69, 0
26, 503891, Note_on_c, 12, 77, 0
26, 504022, Note_on_c, 12, 76, 92
26, 504142, Note_on_c, 12, 76, 0
26, 504262, Note_on_c, 12, 77, 98
26, 504382, Note_on_c, 12, 77, 0
26, 504494, Note_on_c, 12, 71, 80
26, 504614, Note_on_c, 12, 71, 0
26, 504725, Note_on_c, 12, 72, 85
26, 504845, Note_on_c, 12, 72, 0
26, 504962, Note_on_c, 12, 71, 82
26, 505082, Note_on_c, 12, 71, 0
26, 505211, Note_on_c, 12, 76, 78
26, 505331, Note_on_c, 12, 76, 0
26, 505440, Note_on_c, 12, 72, 87
26, 505560, Note_on_c, 12, 72, 0
26, 505690, Note_on_c, 12, 77, 96
26, 505810, Note_on_c, 12, 77, 0
26, 505945, Note_on_c, 12, 71, 98
26, 506065, Note_on_c, 12, 71, 0
26, 506178, Note_on_c, 12, 72, 92
26, 506298, Note_on_c, 12, 72, 0
26, 506405, Note_on_c, 12, 71, 83
26, 506525, Note_on_c, 12, 71, 0
26, 506665, Note_on_c, 12, 76, 93
26, 506785, Note_on_c, 12, 76, 0
26, 506880, Note_on_c, 12, 69, 85
26, 506887, Note_on_c, 12, 60, 84
26, 506900, Note_on_c, 12, 77, 85
26, 507000, Note_on_c, 12, 69, 0
26, 507007, Note_on_c, 12, 60, 0
26, 507260, Note_on_c, 12, 77, 0
26, 507369, Note_on_c, 12, 76, 88
26, 507489, Note_on_c, 12, 76, 0
26, 507611, Note_on_c, 12, 77, 90
26, 507731, Note_on_c, 12, 77, 0
26, 507847, Note_on_c, 12, 71, 82
26, 507967, Note_on_c, 12, 71, 0
26, 508100, Note_on_c, 12, 72, 87
26, 508220, Note_on_c, 12, 72, 0
26, 508325, Note_on_c, 12, 71, 78
26, 508445, Note_on_c, 12, 71, 0
26, 508563, Note_on_c, 12, 76, 94
26, 508683, Note_on_c, 12, 76, 0
26, 540486, Note_on_c, 12, 77, 79
26, 540629, Note_on_c, 12, 77, 0
26, 540972, Note_on_c, 12, 76, 83
26, 541043, Note_on_c, 12, 76, 0
26, 541224, Note_on_c, 12, 77, 78
26, 541295, Note_on_c, 12, 77, 0
26, 541462, Note_on_c, 12, 76, 80
26, 541533, Note_on_c, 12, 76, 0
26, 541699, Note_on_c, 12, 74, 94
26, 541770, Note_on_c, 12, 74, 0
26, 541932, Note_on_c, 12, 76, 85
26, 542003, Note_on_c, 12, 76, 0
26, 542174, Note_on_c, 12, 74, 88
26, 542245, Note_on_c, 12, 74, 0
26, 542410, Note_on_c, 12, 74, 84
26, 542481, Note_on_c, 12, 74, 0
26, 542660, Note_on_c, 12, 77, 78
26, 542731, Note_on_c, 12, 77, 0
26, 542897, Note_on_c, 12, 76, 90
26, 542968, Note_on_c, 12, 76, 0
26, 543122, Note_on_c, 12, 77, 93
26, 543193, Note_on_c, 12, 77, 0
26, 543380, Note_on_c, 12, 76, 85
26, 543451, Note_on_c, 12, 76, 0
26, 543618, Note_on_c, 12, 74, 83
26, 543689, Note_on_c, 12, 74, 0
26, 543859, Note_on_c, 12, 76, 78
26, 543930, Note_on_c, 12, 76, 0
26, 544093, Note_on_c, 12, 74, 95
26, 544164, Note_on_c, 12, 74, 0
26, 544333, Note_on_c, 12, 74, 97
26, 544404, Note_on_c, 12, 74, 0
26, 544569, Note_on_c, 12, 72, 94
26, 544640, Note_on_c, 12, 72, 0
26, 544802, Note_on_c, 12, 77, 85
26, 544873, Note_on_c, 12, 77, 0
26, 545060, Note_on_c, 12, 76, 87
26, 545131, Note_on_c, 12, 76, 0
26, 545286, Note_on_c, 12, 81, 85
26, 545357, Note_on_c, 12, 81, 0
26, 552489, Note_on_c, 12, 72, 83
26, 552729, Note_on_c, 12, 72, 0
26, 552741, Note_on_c, 12, 74, 83
26, 552981, Note_on_c, 12, 74, 0
26, 552982, Note_on_c, 12, 76, 84
26, 553685, Note_on_c, 12, 74, 86
26, 553702, Note_on_c, 12, 76, 0
26, 553923, Note_on_c, 12, 72, 95
26, 553925, Note_on_c, 12, 74, 0
26, 554162, Note_on_c, 12, 71, 84
26, 554163, Note_on_c, 12, 72, 0
26, 554400, Note_on_c, 12, 72, 97
26, 554402, Note_on_c, 12, 71, 0
26, 554640, Note_on_c, 12, 72, 0
26, 554653, Note_on_c, 12, 74, 79
26, 554893, Note_on_c, 12, 74, 0
26, 554894, Note_on_c, 12, 76, 90
26, 555374, Note_on_c, 12, 76, 0
26, 555381, Note_on_c, 12, 74, 97
26, 555617, Note_on_c, 12, 72, 97
26, 555621, Note_on_c, 12, 74, 0
26, 555849, Note_on_c, 12, 71, 92
26, 555857, Note_on_c, 12, 72, 0
26, 556323, Note_on_c, 12, 72, 82
26, 556329, Note_on_c, 12, 71, 0
26, 556563, Note_on_c, 12, 72, 0
26, 556583, Note_on_c, 12, 74, 81
26, 556822, Note_on_c, 12, 76, 81
26, 556823, Note_on_c, 12, 74, 0
26, 557301, Note_on_c, 12, 72, 82
26, 557302, Note_on_c, 12, 76, 0
26, 557524, Note_on_c, 12, 74, 79
26, 557541, Note_on_c, 12, 72, 0
26, 557764, Note_on_c, 12, 74, 0
26, 557767, Note_on_c, 12, 76, 97
26, 558487, Note_on_c, 12, 76, 0
26, 558495, Note_on_c, 12, 74, 81
26, 558727, Note_on_c, 12, 72, 98
26, 558735, Note_on_c, 12, 74, 0
26, 558960, Note_on_c, 12, 71, 89
26, 558967, Note_on_c, 12, 72, 0
26, 559200, Note_on_c, 12, 71, 0
26, 559214, Note_on_c, 12, 72, 89
26, 559450, Note_on_c, 12, 74, 86
26, 559454, Note_on_c, 12, 72, 0
26, 559689, Note_on_c, 12, 76, 81
26, 559690, Note_on_c, 12, 74, 0
26, 560403, Note_on_c, 12, 74, 79
26, 560409, Note_on_c, 12, 76, 0
26, 560643, Note_on_c, 12, 74, 0
26, 560665, Note_on_c, 12, 72, 90
26, 560884, Note_on_c, 12, 71, 97
26, 560905, Note_on_c, 12, 72, 0
26, 561124, Note_on_c, 12, 71, 0
26, 561128, Note_on_c, 12, 72, 81
26, 561368, Note_on_c, 12, 72, 0
26, 561373, Note_on_c, 12, 74, 80
26, 561609, Note_on_c, 12, 75, 105
26, 561613, Note_on_c, 12, 74, 0
26, 561849, Note_on_c, 12, 75, 0
26, 564390, Note_on_c, 12, 67, 85
26, 564420, Note_on_c, 12, 67, 0
26, 564420, Note_on_c, 12, 68, 96
26, 564450, Note_on_c, 12, 68, 0
26, 564450, Note_on_c, 12, 69, 99
26, 564480, Note_on_c, 12, 69, 0
26, 564490, Note_on_c, 12, 70, 101
26, 564610, Note_on_c, 12, 70, 0
26, 564870, Note_on_c, 12, 67, 87
26, 564900, Note_on_c, 12, 67, 0
26, 564900, Note_on_c, 12, 68, 86
26, 564930, Note_on_c, 12, 68, 0
26, 564930, Note_on_c, 12, 69, 90
26, 564960, Note_on_c, 12, 69, 0
26, 564976, Note_on_c, 12, 70, 90
26, 565096, Note_on_c, 12, 70, 0
26, 565350, Note_on_c, 12, 70, 98
26, 565380, Note_on_c, 12, 70, 0
26, 565380, Note_on_c, 12, 72, 96
26, 565410, Note_on_c, 12, 72, 0
26, 565410, Note_on_c, 12, 74, 94
26, 565440, Note_on_c, 12, 74, 0
26, 565459, Note_on_c, 12, 75, 82
26, 565579, Note_on_c, 12, 75, 0
26, 565932, Note_on_c, 12, 74, 80
26, 566052, Note_on_c, 12, 74, 0
26, 566164, Note_on_c, 12, 75, 97
26, 566284, Note_on_c, 12, 75, 0
26, 566404, Note_on_c, 12, 69, 98
26, 566524, Note_on_c, 12, 69, 0
26, 566662, Note_on_c, 12, 74, 86
26, 566782, Note_on_c, 12, 74, 0
26, 566885, Note_on_c, 12, 69, 94
26, 567005, Note_on_c, 12, 69, 0
26, 567130, Note_on_c, 12, 74, 80
26, 567250, Note_on_c, 12, 74, 0
26, 567381, Note_on_c, 12, 70, 85
26, 567501, Note_on_c, 12, 70, 0
26, 567622, Note_on_c, 12, 75, 94
26, 567742, Note_on_c, 12, 75, 0
26, 567861, Note_on_c, 12, 69, 90
26, 567981, Note_on_c, 12, 69, 0
26, 568083, Note_on_c, 12, 70, 95
26, 568203, Note_on_c, 12, 70, 0
26, 568321, Note_on_c, 12, 69, 79
26, 568441, Note_on_c, 12, 69, 0
26, 568574, Note_on_c, 12, 74, 91
26, 568694, Note_on_c, 12, 74, 0
26, 568822, Note_on_c, 12, 75, 83
26, 569182, Note_on_c, 12, 75, 0
26, 569294, Note_on_c, 12, 74, 83
26, 569414, Note_on_c, 12, 74, 0
26, 569542, Note_on_c, 12, 75, 93
26, 569662, Note_on_c, 12, 75, 0
26, 569770, Note_on_c, 12, 69, 81
26, 569890, Note_on_c, 12, 69, 0
26, 570000, Note_on_c, 12, 70, 96
26, 570120, Note_on_c, 12, 70, 0
26, 570251, Note_on_c, 12, 69, 97
26, 570371, Note_on_c, 12, 69, 0
26, 570491, Note_on_c, 12, 74, 95
26, 570611, Note_on_c, 12, 74, 0
26, 570611, End_track
27, 0, Start_track
27, 0, Title_t, "Violini II/a"
27, 0, MIDI_port, 0
27, 0, Control_c, 12, 7, 108
27, 0, Control_c, 12, 10, 55
27, 0, Control_c, 12, 91, 127
27, 0, Control_c, 12, 11, 127
27, 0, Program_c, 12, 48
27, 23280, Program_c, 12, 45
27, 23300, Note_on_c, 12, 63, 84
27, 23411, Note_on_c, 12, 70, 85
27, 23420, Note_on_c, 12, 63, 0
27, 23531, Note_on_c, 12, 70, 0
27, 23538, Note_on_c, 12, 75, 80
27, 23778, Note_on_c, 12, 75, 0
27, 25703, Note_on_c, 12, 63, 76
27, 25800, Note_on_c, 12, 70, 75
27, 25823, Note_on_c, 12, 63, 0
27, 25920, Note_on_c, 12, 70, 0
27, 25942, Note_on_c, 12, 75, 82
27, 26182, Note_on_c, 12, 75, 0
27, 27144, Note_on_c, 12, 63, 66
27, 27260, Note_on_c, 12, 70, 85
27, 27264, Note_on_c, 12, 63, 0
27, 27376, Note_on_c, 12, 75, 71
27, 27380, Note_on_c, 12, 70, 0
27, 27616, Note_on_c, 12, 75, 0
27, 37440, Program_c, 12, 48
27, 37920, Note_on_c, 12, 69, 81
27, 37959, Note_on_c, 12, 71, 66
27, 37978, Note_on_c, 12, 69, 0
27, 37999, Note_on_c, 12, 69, 70
27, 38017, Note_on_c, 12, 71, 0
27, 38039, Note_on_c, 12, 71, 83
27, 38057, Note_on_c, 12, 69, 0
27, 38079, Note_on_c, 12, 69, 82
27, 38097, Note_on_c, 12, 71, 0
27, 38118, Note_on_c, 12, 71, 66
27, 38137, Note_on_c, 12, 69, 0
27, 38158, Note_on_c, 12, 69, 78
27, 38176, Note_on_c, 12, 71, 0
27, 38198, Note_on_c, 12, 71, 80
27, 38216, Note_on_c, 12, 69, 0
27, 38238, Note_on_c, 12, 69, 73
27, 38256, Note_on_c, 12, 71, 0
27, 38278, Note_on_c, 12, 71, 77
27, 38296, Note_on_c, 12, 69, 0
27, 38318, Note_on_c, 12, 69, 78
27, 38336, Note_on_c, 12, 71, 0
27, 38358, Note_on_c, 12, 71, 80
27, 38376, Note_on_c, 12, 69, 0
27, 38398, Note_on_c, 12, 69, 75
27, 38416, Note_on_c, 12, 71, 0
27, 38437, Note_on_c, 12, 71, 65
27, 38456, Note_on_c, 12, 69, 0
27, 38477, Note_on_c, 12, 69, 74
27, 38495, Note_on_c, 12, 71, 0
27, 38517, Note_on_c, 12, 71, 83
27, 38535, Note_on_c, 12, 69, 0
27, 38557, Note_on_c, 12, 69, 75
27, 38575, Note_on_c, 12, 71, 0
27, 38596, Note_on_c, 12, 71, 73
27, 38615, Note_on_c, 12, 69, 0
27, 38636, Note_on_c, 12, 69, 84
27, 38654, Note_on_c, 12, 71, 0
27, 38676, Note_on_c, 12, 71, 65
27, 38694, Note_on_c, 12, 69, 0
27, 38716, Note_on_c, 12, 69, 79
27, 38734, Note_on_c, 12, 71, 0
27, 38756, Note_on_c, 12, 71, 83
27, 38774, Note_on_c, 12, 69, 0
27, 38796, Note_on_c, 12, 69, 83
27, 38814, Note_on_c, 12, 71, 0
27, 38836, Note_on_c, 12, 71, 84
27, 38854, Note_on_c, 12, 69, 0
27, 38876, Note_on_c, 12, 69, 72
27, 38894, Note_on_c, 12, 71, 0
27, 38915, Note_on_c, 12, 71, 80
27, 38934, Note_on_c, 12, 69, 0
27, 38955, Note_on_c, 12, 69, 70
27, 38973, Note_on_c, 12, 71, 0
27, 38995, Note_on_c, 12, 71, 67
27, 39013, Note_on_c, 12, 69, 0
27, 39035, Note_on_c, 12, 69, 73
27, 39053, Note_on_c, 12, 71, 0
27, 39075, Note_on_c, 12, 71, 71
27, 39093, Note_on_c, 12, 69, 0
27, 39115, Note_on_c, 12, 69, 73
27, 39133, Note_on_c, 12, 71, 0
27, 39155, Note_on_c, 12, 71, 72
27, 39173, Note_on_c, 12, 69, 0
27, 39195, Note_on_c, 12, 69, 67
27, 39213, Note_on_c, 12, 71, 0
27, 39234, Note_on_c, 12, 71, 67
27, 39253, Note_on_c, 12, 69, 0
27, 39274, Note_on_c, 12, 69, 77
27, 39292, Note_on_c, 12, 71, 0
27, 39314, Note_on_c, 12, 71, 71
27, 39332, Note_on_c, 12, 69, 0
27, 39354, Note_on_c, 12, 69, 71
27, 39372, Note_on_c, 12, 71, 0
27, 39393, Note_on_c, 12, 71, 79
27, 39412, Note_on_c, 12, 69, 0
27, 39433, Note_on_c, 12, 69, 72
27, 39451, Note_on_c, 12, 71, 0
27, 39473, Note_on_c, 12, 71, 71
27, 39491, Note_on_c, 12, 69, 0
27, 39513, Note_on_c, 12, 69, 67
27, 39531, Note_on_c, 12, 71, 0
27, 39553, Note_on_c, 12, 71, 67
27, 39571, Note_on_c, 12, 69, 0
27, 39593, Note_on_c, 12, 69, 82
27, 39611, Note_on_c, 12, 71, 0
27, 39633, Note_on_c, 12, 71, 76
27, 39651, Note_on_c, 12, 69, 0
27, 39673, Note_on_c, 12, 69, 68
27, 39691, Note_on_c, 12, 71, 0
27, 39712, Note_on_c, 12, 71, 82
27, 39731, Note_on_c, 12, 69, 0
27, 39752, Note_on_c, 12, 69, 81
27, 39770, Note_on_c, 12, 71, 0
27, 39792, Note_on_c, 12, 71, 75
27, 39810, Note_on_c, 12, 69, 0
27, 39832, Note_on_c, 12, 69, 65
27, 39850, Note_on_c, 12, 71, 0
27, 39871, Note_on_c, 12, 71, 84
27, 39890, Note_on_c, 12, 69, 0
27, 39911, Note_on_c, 12, 69, 68
27, 39929, Note_on_c, 12, 71, 0
27, 39951, Note_on_c, 12, 71, 78
27, 39969, Note_on_c, 12, 69, 0
27, 39991, Note_on_c, 12, 69, 67
27, 40009, Note_on_c, 12, 71, 0
27, 40031, Note_on_c, 12, 71, 75
27, 40049, Note_on_c, 12, 69, 0
27, 40071, Note_on_c, 12, 69, 78
27, 40089, Note_on_c, 12, 71, 0
27, 40111, Note_on_c, 12, 71, 73
27, 40129, Note_on_c, 12, 69, 0
27, 40151, Note_on_c, 12, 69, 74
27, 40169, Note_on_c, 12, 71, 0
27, 40190, Note_on_c, 12, 71, 79
27, 40209, Note_on_c, 12, 69, 0
27, 40230, Note_on_c, 12, 69, 69
27, 40248, Note_on_c, 12, 71, 0
27, 40270, Note_on_c, 12, 71, 73
27, 40288, Note_on_c, 12, 69, 0
27, 40310, Note_on_c, 12, 69, 73
27, 40328, Note_on_c, 12, 71, 0
27, 40350, Note_on_c, 12, 71, 69
27, 40368, Note_on_c, 12, 69, 0
27, 40390, Note_on_c, 12, 69, 84
27, 40408, Note_on_c, 12, 71, 0
27, 40430, Note_on_c, 12, 71, 78
27, 40448, Note_on_c, 12, 69, 0
27, 40470, Note_on_c, 12, 69, 78
27, 40488, Note_on_c, 12, 71, 0
27, 40509, Note_on_c, 12, 71, 68
27, 40528, Note_on_c, 12, 69, 0
27, 40549, Note_on_c, 12, 69, 65
27, 40567, Note_on_c, 12, 71, 0
27, 40589, Note_on_c, 12, 71, 66
27, 40607, Note_on_c, 12, 69, 0
27, 40629, Note_on_c, 12, 69, 85
27, 40647, Note_on_c, 12, 71, 0
27, 40668, Note_on_c, 12, 71, 83
27, 40687, Note_on_c, 12, 69, 0
27, 40708, Note_on_c, 12, 69, 79
27, 40726, Note_on_c, 12, 71, 0
27, 40748, Note_on_c, 12, 71, 79
27, 40766, Note_on_c, 12, 69, 0
27, 40788, Note_on_c, 12, 69, 78
27, 40806, Note_on_c, 12, 71, 0
27, 40828, Note_on_c, 12, 71, 65
27, 40846, Note_on_c, 12, 69, 0
27, 40868, Note_on_c, 12, 69, 79
27, 40886, Note_on_c, 12, 71, 0
27, 40908, Note_on_c, 12, 71, 73
27, 40926, Note_on_c, 12, 69, 0
27, 40948, Note_on_c, 12, 69, 83
27, 40966, Note_on_c, 12, 71, 0
27, 40987, Note_on_c, 12, 71, 75
27, 41006, Note_on_c, 12, 69, 0
27, 41027, Note_on_c, 12, 69, 85
27, 41045, Note_on_c, 12, 71, 0
27, 41067, Note_on_c, 12, 71, 66
27, 41085, Note_on_c, 12, 69, 0
27, 41107, Note_on_c, 12, 69, 67
27, 41125, Note_on_c, 12, 71, 0
27, 41146, Note_on_c, 12, 71, 69
27, 41165, Note_on_c, 12, 69, 0
27, 41186, Note_on_c, 12, 69, 80
27, 41204, Note_on_c, 12, 71, 0
27, 41226, Note_on_c, 12, 71, 76
27, 41244, Note_on_c, 12, 69, 0
27, 41266, Note_on_c, 12, 69, 80
27, 41284, Note_on_c, 12, 71, 0
27, 41306, Note_on_c, 12, 71, 69
27, 41324, Note_on_c, 12, 69, 0
27, 41346, Note_on_c, 12, 69, 76
27, 41364, Note_on_c, 12, 71, 0
27, 41386, Note_on_c, 12, 71, 77
27, 41404, Note_on_c, 12, 69, 0
27, 41426, Note_on_c, 12, 69, 70
27, 41444, Note_on_c, 12, 71, 0
27, 41465, Note_on_c, 12, 71, 65
27, 41484, Note_on_c, 12, 69, 0
27, 41505, Note_on_c, 12, 69, 74
27, 41523, Note_on_c, 12, 71, 0
27, 41545, Note_on_c, 12, 71, 76
27, 41563, Note_on_c, 12, 69, 0
27, 41585, Note_on_c, 12, 69, 76
27, 41603, Note_on_c, 12, 71, 0
27, 41625, Note_on_c, 12, 71, 67
27, 41643, Note_on_c, 12, 69, 0
27, 41665, Note_on_c, 12, 69, 78
27, 41683, Note_on_c, 12, 71, 0
27, 41705, Note_on_c, 12, 71, 80
27, 41723, Note_on_c, 12, 69, 0
27, 41745, Note_on_c, 12, 69, 69
27, 41763, Note_on_c, 12, 71, 0
27, 41784, Note_on_c, 12, 71, 72
27, 41803, Note_on_c, 12, 69, 0
27, 41824, Note_on_c, 12, 69, 82
27, 41842, Note_on_c, 12, 71, 0
27, 41882, Note_on_c, 12, 69, 0
27, 84000, Program_c, 12, 48
27, 84019, Note_on_c, 12, 63, 85
27, 84025, Note_on_c, 12, 61, 78
27, 84114, Note_on_c, 12, 63, 0
27, 84120, Note_on_c, 12, 61, 0
27, 84247, Note_on_c, 12, 63, 98
27, 84251, Note_on_c, 12, 61, 78
27, 84342, Note_on_c, 12, 63, 0
27, 84346, Note_on_c, 12, 61, 0
27, 84480, Note_on_c, 12, 63, 93
27, 84485, Note_on_c, 12, 61, 94
27, 84575, Note_on_c, 12, 63, 0
27, 84580, Note_on_c, 12, 61, 0
27, 84739, Note_on_c, 12, 63, 84
27, 84743, Note_on_c, 12, 61, 95
27, 84834, Note_on_c, 12, 63, 0
27, 84838, Note_on_c, 12, 61, 0
27, 84967, Note_on_c, 12, 61, 87
27, 84976, Note_on_c, 12, 63, 87
27, 85062, Note_on_c, 12, 61, 0
27, 85071, Note_on_c, 12, 63, 0
27, 85209, Note_on_c, 12, 63, 98
27, 85223, Note_on_c, 12, 61, 92
27, 85304, Note_on_c, 12, 63, 0
27, 85318, Note_on_c, 12, 61, 0
27, 85461, Note_on_c, 12, 63, 81
27, 85463, Note_on_c, 12, 61, 89
27, 85556, Note_on_c, 12, 63, 0
27, 85558, Note_on_c, 12, 61, 0
27, 85690, Note_on_c, 12, 61, 92
27, 85691, Note_on_c, 12, 63, 87
27, 85785, Note_on_c, 12, 61, 0
27, 85786, Note_on_c, 12, 63, 0
27, 85924, Note_on_c, 12, 63, 87
27, 85937, Note_on_c, 12, 61, 78
27, 86019, Note_on_c, 12, 63, 0
27, 86032, Note_on_c, 12, 61, 0
27, 86168, Note_on_c, 12, 63, 116
27, 86178, Note_on_c, 12, 61, 107
27, 86263, Note_on_c, 12, 63, 0
27, 86273, Note_on_c, 12, 61, 0
27, 86404, Note_on_c, 12, 63, 78
27, 86408, Note_on_c, 12, 61, 90
27, 86499, Note_on_c, 12, 63, 0
27, 86503, Note_on_c, 12, 61, 0
27, 86642, Note_on_c, 12, 63, 109
27, 86654, Note_on_c, 12, 61, 117
27, 86737, Note_on_c, 12, 63, 0
27, 86749, Note_on_c, 12, 61, 0
27, 86895, Note_on_c, 12, 63, 92
27, 86901, Note_on_c, 12, 61, 96
27, 86990, Note_on_c, 12, 63, 0
27, 86996, Note_on_c, 12, 61, 0
27, 87128, Note_on_c, 12, 61, 90
27, 87140, Note_on_c, 12, 63, 81
27, 87223, Note_on_c, 12, 61, 0
27, 87235, Note_on_c, 12, 63, 0
27, 87372, Note_on_c, 12, 61, 91
27, 87383, Note_on_c, 12, 63, 79
27, 87467, Note_on_c, 12, 61, 0
27, 87478, Note_on_c, 12, 63, 0
27, 87604, Note_on_c, 12, 63, 78
27, 87615, Note_on_c, 12, 61, 92
27, 87699, Note_on_c, 12, 63, 0
27, 87710, Note_on_c, 12, 61, 0
27, 87845, Note_on_c, 12, 61, 84
27, 87863, Note_on_c, 12, 63, 84
27, 87940, Note_on_c, 12, 61, 0
27, 87958, Note_on_c, 12, 63, 0
27, 88096, Note_on_c, 12, 63, 114
27, 88102, Note_on_c, 12, 61, 102
27, 88191, Note_on_c, 12, 63, 0
27, 88197, Note_on_c, 12, 61, 0
27, 88335, Note_on_c, 12, 61, 91
27, 88335, Note_on_c, 12, 63, 79
27, 88430, Note_on_c, 12, 61, 0
27, 88430, Note_on_c, 12, 63, 0
27, 88571, Note_on_c, 12, 63, 90
27, 88573, Note_on_c, 12, 61, 83
27, 88666, Note_on_c, 12, 63, 0
27, 88668, Note_on_c, 12, 61, 0
27, 88810, Note_on_c, 12, 61, 114
27, 88818, Note_on_c, 12, 63, 110
27, 88905, Note_on_c, 12, 61, 0
27, 88913, Note_on_c, 12, 63, 0
27, 89044, Note_on_c, 12, 63, 90
27, 89064, Note_on_c, 12, 61, 81
27, 89139, Note_on_c, 12, 63, 0
27, 89159, Note_on_c, 12, 61, 0
27, 89294, Note_on_c, 12, 63, 96
27, 89296, Note_on_c, 12, 61, 83
27, 89389, Note_on_c, 12, 63, 0
27, 89391, Note_on_c, 12, 61, 0
27, 89529, Note_on_c, 12, 61, 84
27, 89542, Note_on_c, 12, 63, 84
27, 89624, Note_on_c, 12, 61, 0
27, 89637, Note_on_c, 12, 63, 0
27, 89763, Note_on_c, 12, 63, 103
27, 89776, Note_on_c, 12, 61, 115
27, 89858, Note_on_c, 12, 63, 0
27, 89871, Note_on_c, 12, 61, 0
27, 90015, Note_on_c, 12, 63, 93
27, 90016, Note_on_c, 12, 61, 86
27, 90110, Note_on_c, 12, 63, 0
27, 90111, Note_on_c, 12, 61, 0
27, 90244, Note_on_c, 12, 61, 89
27, 90257, Note_on_c, 12, 63, 79
27, 90339, Note_on_c, 12, 61, 0
27, 90352, Note_on_c, 12, 63, 0
27, 90489, Note_on_c, 12, 63, 94
27, 90493, Note_on_c, 12, 61, 82
27, 90584, Note_on_c, 12, 63, 0
27, 90588, Note_on_c, 12, 61, 0
27, 90725, Note_on_c, 12, 61, 85
27, 90740, Note_on_c, 12, 63, 79
27, 90820, Note_on_c, 12, 61, 0
27, 90835, Note_on_c, 12, 63, 0
27, 90969, Note_on_c, 12, 63, 105
27, 90974, Note_on_c, 12, 61, 119
27, 91064, Note_on_c, 12, 63, 0
27, 91069, Note_on_c, 12, 61, 0
27, 91202, Note_on_c, 12, 61, 91
27, 91214, Note_on_c, 12, 63, 97
27, 91297, Note_on_c, 12, 61, 0
27, 91309, Note_on_c, 12, 63, 0
27, 91441, Note_on_c, 12, 63, 79
27, 91443, Note_on_c, 12, 61, 86
27, 91536, Note_on_c, 12, 63, 0
27, 91538, Note_on_c, 12, 61, 0
27, 95522, Note_on_c, 12, 63, 80
27, 95527, Note_on_c, 12, 61, 83
27, 95617, Note_on_c, 12, 63, 0
27, 95622, Note_on_c, 12, 61, 0
27, 95766, Note_on_c, 12, 61, 96
27, 95780, Note_on_c, 12, 63, 95
27, 95861, Note_on_c, 12, 61, 0
27, 95875, Note_on_c, 12, 63, 0
27, 96021, Note_on_c, 12, 61, 83
27, 96022, Note_on_c, 12, 63, 80
27, 96116, Note_on_c, 12, 61, 0
27, 96117, Note_on_c, 12, 63, 0
27, 96241, Note_on_c, 12, 63, 88
27, 96254, Note_on_c, 12, 61, 81
27, 96336, Note_on_c, 12, 63, 0
27, 96349, Note_on_c, 12, 61, 0
27, 96493, Note_on_c, 12, 63, 85
27, 96498, Note_on_c, 12, 61, 97
27, 96588, Note_on_c, 12, 63, 0
27, 96593, Note_on_c, 12, 61, 0
27, 96726, Note_on_c, 12, 61, 120
27, 96739, Note_on_c, 12, 63, 109
27, 96821, Note_on_c, 12, 61, 0
27, 96834, Note_on_c, 12, 63, 0
27, 96964, Note_on_c, 12, 61, 78
27, 96976, Note_on_c, 12, 63, 90
27, 97059, Note_on_c, 12, 61, 0
27, 97071, Note_on_c, 12, 63, 0
27, 97202, Note_on_c, 12, 63, 117
27, 97204, Note_on_c, 12, 61, 102
27, 97297, Note_on_c, 12, 63, 0
27, 97299, Note_on_c, 12, 61, 0
27, 97462, Note_on_c, 12, 63, 80
27, 97463, Note_on_c, 12, 61, 81
27, 97557, Note_on_c, 12, 63, 0
27, 97558, Note_on_c, 12, 61, 0
27, 97693, Note_on_c, 12, 63, 91
27, 97702, Note_on_c, 12, 61, 95
27, 97788, Note_on_c, 12, 63, 0
27, 97797, Note_on_c, 12, 61, 0
27, 97938, Note_on_c, 12, 63, 96
27, 97944, Note_on_c, 12, 61, 93
27, 98033, Note_on_c, 12, 63, 0
27, 98039, Note_on_c, 12, 61, 0
27, 98179, Note_on_c, 12, 63, 79
27, 98184, Note_on_c, 12, 61, 82
27, 98274, Note_on_c, 12, 63, 0
27, 98279, Note_on_c, 12, 61, 0
27, 98403, Note_on_c, 12, 63, 89
27, 98424, Note_on_c, 12, 61, 85
27, 98498, Note_on_c, 12, 63, 0
27, 98519, Note_on_c, 12, 61, 0
27, 98650, Note_on_c, 12, 61, 104
27, 98659, Note_on_c, 12, 63, 119
27, 98745, Note_on_c, 12, 61, 0
27, 98754, Note_on_c, 12, 63, 0
27, 98890, Note_on_c, 12, 63, 80
27, 98904, Note_on_c, 12, 61, 82
27, 98985, Note_on_c, 12, 63, 0
27, 98999, Note_on_c, 12, 61, 0
27, 99133, Note_on_c, 12, 61, 91
27, 99143, Note_on_c, 12, 63, 93
27, 99228, Note_on_c, 12, 61, 0
27, 99238, Note_on_c, 12, 63, 0
27, 99381, Note_on_c, 12, 61, 79
27, 99382, Note_on_c, 12, 63, 79
27, 99476, Note_on_c, 12, 61, 0
27, 99477, Note_on_c, 12, 63, 0
27, 99609, Note_on_c, 12, 61, 91
27, 99613, Note_on_c, 12, 63, 79
27, 99704, Note_on_c, 12, 61, 0
27, 99708, Note_on_c, 12, 63, 0
27, 99845, Note_on_c, 12, 63, 93
27, 99860, Note_on_c, 12, 61, 98
27, 99940, Note_on_c, 12, 63, 0
27, 99955, Note_on_c, 12, 61, 0
27, 100085, Note_on_c, 12, 61, 90
27, 100094, Note_on_c, 12, 63, 94
27, 100180, Note_on_c, 12, 61, 0
27, 100189, Note_on_c, 12, 63, 0
27, 100323, Note_on_c, 12, 63, 96
27, 100333, Note_on_c, 12, 61, 83
27, 100418, Note_on_c, 12, 63, 0
27, 100428, Note_on_c, 12, 61, 0
27, 100573, Note_on_c, 12, 63, 94
27, 100580, Note_on_c, 12, 61, 81
27, 100668, Note_on_c, 12, 63, 0
27, 100675, Note_on_c, 12, 61, 0
27, 100809, Note_on_c, 12, 61, 87
27, 100818, Note_on_c, 12, 63, 87
27, 100904, Note_on_c, 12, 61, 0
27, 100913, Note_on_c, 12, 63, 0
27, 101045, Note_on_c, 12, 61, 78
27, 101051, Note_on_c, 12, 63, 87
27, 101140, Note_on_c, 12, 61, 0
27, 101146, Note_on_c, 12, 63, 0
27, 101291, Note_on_c, 12, 63, 95
27, 101304, Note_on_c, 12, 61, 81
27, 101386, Note_on_c, 12, 63, 0
27, 101399, Note_on_c, 12, 61, 0
27, 101533, Note_on_c, 12, 63, 89
27, 101538, Note_on_c, 12, 61, 93
27, 101628, Note_on_c, 12, 63, 0
27, 101633, Note_on_c, 12, 61, 0
27, 101773, Note_on_c, 12, 63, 87
27, 101775, Note_on_c, 12, 61, 85
27, 101868, Note_on_c, 12, 63, 0
27, 101870, Note_on_c, 12, 61, 0
27, 102000, Note_on_c, 12, 63, 89
27, 102016, Note_on_c, 12, 61, 86
27, 102095, Note_on_c, 12, 63, 0
27, 102111, Note_on_c, 12, 61, 0
27, 102259, Note_on_c, 12, 63, 78
27, 102260, Note_on_c, 12, 61, 98
27, 102354, Note_on_c, 12, 63, 0
27, 102355, Note_on_c, 12, 61, 0
27, 102494, Note_on_c, 12, 63, 95
27, 102500, Note_on_c, 12, 61, 88
27, 102589, Note_on_c, 12, 63, 0
27, 102595, Note_on_c, 12, 61, 0
27, 102730, Note_on_c, 12, 61, 85
27, 102730, Note_on_c, 12, 63, 88
27, 102825, Note_on_c, 12, 61, 0
27, 102825, Note_on_c, 12, 63, 0
27, 102967, Note_on_c, 12, 61, 89
27, 102970, Note_on_c, 12, 63, 78
27, 103062, Note_on_c, 12, 61, 0
27, 103065, Note_on_c, 12, 63, 0
27, 103200, Note_on_c, 12, 61, 84
27, 103217, Note_on_c, 12, 63, 92
27, 103295, Note_on_c, 12, 61, 0
27, 103312, Note_on_c, 12, 63, 0
27, 103462, Note_on_c, 12, 63, 88
27, 103464, Note_on_c, 12, 61, 84
27, 103557, Note_on_c, 12, 63, 0
27, 103559, Note_on_c, 12, 61, 0
27, 103694, Note_on_c, 12, 63, 86
27, 103697, Note_on_c, 12, 61, 88
27, 103789, Note_on_c, 12, 63, 0
27, 103792, Note_on_c, 12, 61, 0
27, 103937, Note_on_c, 12, 63, 81
27, 103944, Note_on_c, 12, 61, 94
27, 104032, Note_on_c, 12, 63, 0
27, 104039, Note_on_c, 12, 61, 0
27, 104178, Note_on_c, 12, 63, 79
27, 104184, Note_on_c, 12, 61, 97
27, 104273, Note_on_c, 12, 63, 0
27, 104279, Note_on_c, 12, 61, 0
27, 104407, Note_on_c, 12, 63, 81
27, 104410, Note_on_c, 12, 61, 82
27, 104502, Note_on_c, 12, 63, 0
27, 104505, Note_on_c, 12, 61, 0
27, 104645, Note_on_c, 12, 61, 92
27, 104663, Note_on_c, 12, 63, 93
27, 104740, Note_on_c, 12, 61, 0
27, 104758, Note_on_c, 12, 63, 0
27, 104883, Note_on_c, 12, 61, 78
27, 104903, Note_on_c, 12, 63, 93
27, 104978, Note_on_c, 12, 61, 0
27, 104998, Note_on_c, 12, 63, 0
27, 108000, Program_c, 12, 45
27, 108259, Note_on_c, 12, 65, 99
27, 108261, Note_on_c, 12, 72, 89
27, 108499, Note_on_c, 12, 65, 0
27, 108501, Note_on_c, 12, 72, 0
27, 111126, Note_on_c, 12, 72, 91
27, 111129, Note_on_c, 12, 65, 85
27, 111366, Note_on_c, 12, 72, 0
27, 111369, Note_on_c, 12, 65, 0
27, 115369, Note_on_c, 12, 62, 79
27, 115376, Note_on_c, 12, 72, 76
27, 115379, Note_on_c, 12, 57, 65
27, 115379, Note_on_c, 12, 67, 70
27, 115523, Note_on_c, 12, 62, 65
27, 115529, Note_on_c, 12, 62, 0
27, 115532, Note_on_c, 12, 57, 69
27, 115536, Note_on_c, 12, 72, 0
27, 115538, Note_on_c, 12, 67, 81
27, 115539, Note_on_c, 12, 57, 0
27, 115539, Note_on_c, 12, 67, 0
27, 115540, Note_on_c, 12, 72, 73
27, 115682, Note_on_c, 12, 62, 0
27, 115691, Note_on_c, 12, 57, 0
27, 115697, Note_on_c, 12, 67, 0
27, 115699, Note_on_c, 12, 72, 0
27, 115920, Note_on_c, 12, 77, 93
27, 115924, Note_on_c, 12, 62, 91
27, 115929, Note_on_c, 12, 72, 87
27, 115944, Note_on_c, 12, 67, 78
27, 116160, Note_on_c, 12, 77, 0
27, 116164, Note_on_c, 12, 62, 0
27, 116169, Note_on_c, 12, 72, 0
27, 116184, Note_on_c, 12, 67, 0
27, 116481, Note_on_c, 12, 67, 100
27, 116485, Note_on_c, 12, 77, 98
27, 116497, Note_on_c, 12, 72, 105
27, 116500, Note_on_c, 12, 62, 111
27, 116640, Note_on_c, 12, 67, 0
27, 116644, Note_on_c, 12, 77, 0
27, 116656, Note_on_c, 12, 72, 0
27, 116659, Note_on_c, 12, 62, 0
27, 150480, Program_c, 12, 45
27, 150488, Note_on_c, 12, 77, 98
27, 150497, Note_on_c, 12, 77, 106
27, 150728, Note_on_c, 12, 77, 0
27, 150737, Note_on_c, 12, 77, 0
27, 151200, Program_c, 12, 48
27, 151217, Note_on_c, 12, 62, 107
27, 151376, Note_on_c, 12, 62, 0
27, 153120, Program_c, 12, 45
27, 153144, Note_on_c, 12, 61, 79
27, 153375, Note_on_c, 12, 58, 85
27, 153384, Note_on_c, 12, 61, 0
27, 153611, Note_on_c, 12, 75, 89
27, 153615, Note_on_c, 12, 58, 0
27, 153851, Note_on_c, 12, 75, 0
27, 153860, Note_on_c, 12, 70, 84
27, 154100, Note_on_c, 12, 70, 0
27, 157920, Program_c, 12, 48
27, 157921, Note_on_c, 12, 73, 92
27, 158016, Note_on_c, 12, 73, 0
27, 158425, Note_on_c, 12, 75, 81
27, 158520, Note_on_c, 12, 75, 0
27, 158905, Note_on_c, 12, 73, 97
27, 159000, Note_on_c, 12, 73, 0
27, 159363, Note_on_c, 12, 75, 91
27, 159458, Note_on_c, 12, 75, 0
27, 159849, Note_on_c, 12, 73, 78
27, 159944, Note_on_c, 12, 73, 0
27, 160322, Note_on_c, 12, 75, 84
27, 160417, Note_on_c, 12, 75, 0
27, 161761, Note_on_c, 12, 73, 85
27, 161856, Note_on_c, 12, 73, 0
27, 162264, Note_on_c, 12, 75, 85
27, 162359, Note_on_c, 12, 75, 0
27, 166560, Note_on_c, 12, 61, 97
27, 166607, Note_on_c, 12, 61, 0
27, 166680, Note_on_c, 12, 61, 88
27, 166727, Note_on_c, 12, 61, 0
27, 166800, Note_on_c, 12, 58, 83
27, 166847, Note_on_c, 12, 58, 0
27, 166920, Note_on_c, 12, 58, 81
27, 166967, Note_on_c, 12, 58, 0
27, 167040, Note_on_c, 12, 63, 88
27, 167087, Note_on_c, 12, 63, 0
27, 167160, Note_on_c, 12, 63, 87
27, 167207, Note_on_c, 12, 63, 0
27, 167280, Note_on_c, 12, 58, 98
27, 167327, Note_on_c, 12, 58, 0
27, 167400, Note_on_c, 12, 58, 83
27, 167447, Note_on_c, 12, 58, 0
27, 167520, Note_on_c, 12, 61, 85
27, 167567, Note_on_c, 12, 61, 0
27, 167640, Note_on_c, 12, 61, 96
27, 167687, Note_on_c, 12, 61, 0
27, 167760, Note_on_c, 12, 58, 94
27, 167807, Note_on_c, 12, 58, 0
27, 167880, Note_on_c, 12, 58, 84
27, 167927, Note_on_c, 12, 58, 0
27, 168000, Note_on_c, 12, 63, 94
27, 168047, Note_on_c, 12, 63, 0
27, 168120, Note_on_c, 12, 63, 78
27, 168167, Note_on_c, 12, 63, 0
27, 168240, Note_on_c, 12, 58, 98
27, 168287, Note_on_c, 12, 58, 0
27, 168360, Note_on_c, 12, 58, 96
27, 168407, Note_on_c, 12, 58, 0
27, 168480, Note_on_c, 12, 61, 79
27, 168527, Note_on_c, 12, 61, 0
27, 168600, Note_on_c, 12, 61, 97
27, 168647, Note_on_c, 12, 61, 0
27, 168720, Note_on_c, 12, 58, 85
27, 168767, Note_on_c, 12, 58, 0
27, 168840, Note_on_c, 12, 58, 84
27, 168887, Note_on_c, 12, 58, 0
27, 168960, Note_on_c, 12, 63, 81
27, 169007, Note_on_c, 12, 63, 0
27, 169080, Note_on_c, 12, 63, 92
27, 169127, Note_on_c, 12, 63, 0
27, 169200, Note_on_c, 12, 58, 86
27, 169247, Note_on_c, 12, 58, 0
27, 169320, Note_on_c, 12, 58, 81
27, 169367, Note_on_c, 12, 58, 0
27, 169440, Note_on_c, 12, 61, 88
27, 169487, Note_on_c, 12, 61, 0
27, 169560, Note_on_c, 12, 61, 88
27, 169607, Note_on_c, 12, 61, 0
27, 169680, Note_on_c, 12, 58, 83
27, 169727, Note_on_c, 12, 58, 0
27, 169800, Note_on_c, 12, 58, 89
27, 169847, Note_on_c, 12, 58, 0
27, 169920, Note_on_c, 12, 63, 98
27, 169967, Note_on_c, 12, 63, 0
27, 170040, Note_on_c, 12, 63, 78
27, 170087, Note_on_c, 12, 63, 0
27, 170160, Note_on_c, 12, 58, 80
27, 170207, Note_on_c, 12, 58, 0
27, 170280, Note_on_c, 12, 58, 80
27, 170327, Note_on_c, 12, 58, 0
27, 170400, Note_on_c, 12, 61, 79
27, 170447, Note_on_c, 12, 61, 0
27, 170520, Note_on_c, 12, 61, 95
27, 170567, Note_on_c, 12, 61, 0
27, 170640, Note_on_c, 12, 58, 87
27, 170687, Note_on_c, 12, 58, 0
27, 170760, Note_on_c, 12, 58, 81
27, 170807, Note_on_c, 12, 58, 0
27, 170880, Note_on_c, 12, 63, 82
27, 170927, Note_on_c, 12, 63, 0
27, 171000, Note_on_c, 12, 63, 91
27, 171047, Note_on_c, 12, 63, 0
27, 171120, Note_on_c, 12, 58, 98
27, 171167, Note_on_c, 12, 58, 0
27, 171240, Note_on_c, 12, 58, 88
27, 171287, Note_on_c, 12, 58, 0
27, 171360, Note_on_c, 12, 61, 88
27, 171407, Note_on_c, 12, 61, 0
27, 171480, Note_on_c, 12, 61, 96
27, 171527, Note_on_c, 12, 61, 0
27, 171600, Note_on_c, 12, 58, 87
27, 171647, Note_on_c, 12, 58, 0
27, 171720, Note_on_c, 12, 58, 98
27, 171767, Note_on_c, 12, 58, 0
27, 171840, Note_on_c, 12, 63, 80
27, 171887, Note_on_c, 12, 63, 0
27, 171960, Note_on_c, 12, 63, 78
27, 172007, Note_on_c, 12, 63, 0
27, 172080, Note_on_c, 12, 58, 83
27, 172127, Note_on_c, 12, 58, 0
27, 172200, Note_on_c, 12, 58, 83
27, 172247, Note_on_c, 12, 58, 0
27, 172320, Note_on_c, 12, 61, 78
27, 172367, Note_on_c, 12, 61, 0
27, 172440, Note_on_c, 12, 61, 97
27, 172487, Note_on_c, 12, 61, 0
27, 172560, Note_on_c, 12, 58, 79
27, 172607, Note_on_c, 12, 58, 0
27, 172680, Note_on_c, 12, 58, 87
27, 172727, Note_on_c, 12, 58, 0
27, 172800, Note_on_c, 12, 63, 80
27, 172847, Note_on_c, 12, 63, 0
27, 172920, Note_on_c, 12, 63, 79
27, 172967, Note_on_c, 12, 63, 0
27, 173040, Note_on_c, 12, 58, 98
27, 173087, Note_on_c, 12, 58, 0
27, 173160, Note_on_c, 12, 58, 85
27, 173207, Note_on_c, 12, 58, 0
27, 173280, Note_on_c, 12, 61, 97
27, 173327, Note_on_c, 12, 61, 0
27, 173400, Note_on_c, 12, 61, 95
27, 173447, Note_on_c, 12, 61, 0
27, 173520, Note_on_c, 12, 58, 81
27, 173567, Note_on_c, 12, 58, 0
27, 173640, Note_on_c, 12, 58, 98
27, 173687, Note_on_c, 12, 58, 0
27, 173760, Note_on_c, 12, 63, 91
27, 173807, Note_on_c, 12, 63, 0
27, 173880, Note_on_c, 12, 63, 82
27, 173927, Note_on_c, 12, 63, 0
27, 174000, Note_on_c, 12, 58, 95
27, 174047, Note_on_c, 12, 58, 0
27, 174120, Note_on_c, 12, 58, 98
27, 174167, Note_on_c, 12, 58, 0
27, 174240, Note_on_c, 12, 61, 89
27, 174287, Note_on_c, 12, 61, 0
27, 174360, Note_on_c, 12, 61, 90
27, 174407, Note_on_c, 12, 61, 0
27, 174480, Note_on_c, 12, 58, 97
27, 174527, Note_on_c, 12, 58, 0
27, 174600, Note_on_c, 12, 58, 96
27, 174647, Note_on_c, 12, 58, 0
27, 174720, Note_on_c, 12, 63, 91
27, 174767, Note_on_c, 12, 63, 0
27, 174840, Note_on_c, 12, 63, 79
27, 174887, Note_on_c, 12, 63, 0
27, 174960, Note_on_c, 12, 58, 88
27, 175007, Note_on_c, 12, 58, 0
27, 175080, Note_on_c, 12, 58, 82
27, 175127, Note_on_c, 12, 58, 0
27, 175200, Note_on_c, 12, 61, 79
27, 175247, Note_on_c, 12, 61, 0
27, 175320, Note_on_c, 12, 61, 79
27, 175367, Note_on_c, 12, 61, 0
27, 175440, Note_on_c, 12, 58, 87
27, 175487, Note_on_c, 12, 58, 0
27, 175560, Note_on_c, 12, 58, 85
27, 175607, Note_on_c, 12, 58, 0
27, 175680, Note_on_c, 12, 63, 90
27, 175727, Note_on_c, 12, 63, 0
27, 175800, Note_on_c, 12, 63, 97
27, 175847, Note_on_c, 12, 63, 0
27, 175920, Note_on_c, 12, 58, 79
27, 175967, Note_on_c, 12, 58, 0
27, 176040, Note_on_c, 12, 58, 89
27, 176087, Note_on_c, 12, 58, 0
27, 176160, Note_on_c, 12, 61, 90
27, 176207, Note_on_c, 12, 61, 0
27, 176280, Note_on_c, 12, 61, 78
27, 176327, Note_on_c, 12, 61, 0
27, 176400, Note_on_c, 12, 58, 90
27, 176447, Note_on_c, 12, 58, 0
27, 176520, Note_on_c, 12, 58, 93
27, 176567, Note_on_c, 12, 58, 0
27, 176640, Note_on_c, 12, 63, 85
27, 176687, Note_on_c, 12, 63, 0
27, 176760, Note_on_c, 12, 63, 89
27, 176807, Note_on_c, 12, 63, 0
27, 176880, Note_on_c, 12, 58, 95
27, 176927, Note_on_c, 12, 58, 0
27, 177000, Note_on_c, 12, 58, 88
27, 177047, Note_on_c, 12, 58, 0
27, 177120, Note_on_c, 12, 61, 97
27, 177167, Note_on_c, 12, 61, 0
27, 177240, Note_on_c, 12, 61, 93
27, 177287, Note_on_c, 12, 61, 0
27, 177360, Note_on_c, 12, 58, 87
27, 177407, Note_on_c, 12, 58, 0
27, 177480, Note_on_c, 12, 58, 86
27, 177527, Note_on_c, 12, 58, 0
27, 177600, Note_on_c, 12, 63, 79
27, 177647, Note_on_c, 12, 63, 0
27, 177720, Note_on_c, 12, 63, 82
27, 177767, Note_on_c, 12, 63, 0
27, 177840, Note_on_c, 12, 58, 90
27, 177887, Note_on_c, 12, 58, 0
27, 177960, Note_on_c, 12, 58, 98
27, 178007, Note_on_c, 12, 58, 0
27, 178080, Note_on_c, 12, 61, 80
27, 178127, Note_on_c, 12, 61, 0
27, 178200, Note_on_c, 12, 61, 98
27, 178247, Note_on_c, 12, 61, 0
27, 178320, Note_on_c, 12, 58, 97
27, 178367, Note_on_c, 12, 58, 0
27, 178440, Note_on_c, 12, 58, 78
27, 178487, Note_on_c, 12, 58, 0
27, 178560, Note_on_c, 12, 63, 78
27, 178607, Note_on_c, 12, 63, 0
27, 178680, Note_on_c, 12, 63, 94
27, 178727, Note_on_c, 12, 63, 0
27, 178800, Note_on_c, 12, 58, 88
27, 178847, Note_on_c, 12, 58, 0
27, 178920, Note_on_c, 12, 58, 81
27, 178967, Note_on_c, 12, 58, 0
27, 179040, Note_on_c, 12, 61, 93
27, 179087, Note_on_c, 12, 61, 0
27, 179160, Note_on_c, 12, 61, 83
27, 179207, Note_on_c, 12, 61, 0
27, 179280, Note_on_c, 12, 58, 88
27, 179327, Note_on_c, 12, 58, 0
27, 179400, Note_on_c, 12, 58, 92
27, 179447, Note_on_c, 12, 58, 0
27, 179520, Note_on_c, 12, 63, 92
27, 179567, Note_on_c, 12, 63, 0
27, 179640, Note_on_c, 12, 63, 87
27, 179687, Note_on_c, 12, 63, 0
27, 179760, Note_on_c, 12, 58, 86
27, 179807, Note_on_c, 12, 58, 0
27, 179880, Note_on_c, 12, 58, 96
27, 179927, Note_on_c, 12, 58, 0
27, 180000, Note_on_c, 12, 61, 93
27, 180047, Note_on_c, 12, 61, 0
27, 180120, Note_on_c, 12, 61, 81
27, 180167, Note_on_c, 12, 61, 0
27, 180240, Note_on_c, 12, 58, 87
27, 180287, Note_on_c, 12, 58, 0
27, 180360, Note_on_c, 12, 58, 78
27, 180407, Note_on_c, 12, 58, 0
27, 180480, Note_on_c, 12, 63, 81
27, 180527, Note_on_c, 12, 63, 0
27, 180600, Note_on_c, 12, 63, 87
27, 180647, Note_on_c, 12, 63, 0
27, 180720, Note_on_c, 12, 58, 96
27, 180767, Note_on_c, 12, 58, 0
27, 180840, Note_on_c, 12, 58, 92
27, 180887, Note_on_c, 12, 58, 0
27, 180960, Note_on_c, 12, 61, 81
27, 181007, Note_on_c, 12, 61, 0
27, 181080, Note_on_c, 12, 61, 87
27, 181127, Note_on_c, 12, 61, 0
27, 181200, Note_on_c, 12, 58, 87
27, 181247, Note_on_c, 12, 58, 0
27, 181320, Note_on_c, 12, 58, 85
27, 181367, Note_on_c, 12, 58, 0
27, 181440, Note_on_c, 12, 63, 95
27, 181487, Note_on_c, 12, 63, 0
27, 181560, Note_on_c, 12, 63, 98
27, 181607, Note_on_c, 12, 63, 0
27, 181680, Note_on_c, 12, 58, 97
27, 181727, Note_on_c, 12, 58, 0
27, 181800, Note_on_c, 12, 58, 89
27, 181847, Note_on_c, 12, 58, 0
27, 181920, Note_on_c, 12, 61, 81
27, 181967, Note_on_c, 12, 61, 0
27, 182040, Note_on_c, 12, 61, 90
27, 182087, Note_on_c, 12, 61, 0
27, 182160, Note_on_c, 12, 58, 78
27, 182207, Note_on_c, 12, 58, 0
27, 182280, Note_on_c, 12, 58, 90
27, 182327, Note_on_c, 12, 58, 0
27, 182400, Note_on_c, 12, 63, 98
27, 182447, Note_on_c, 12, 63, 0
27, 182520, Note_on_c, 12, 63, 98
27, 182567, Note_on_c, 12, 63, 0
27, 182640, Note_on_c, 12, 58, 87
27, 182687, Note_on_c, 12, 58, 0
27, 182760, Note_on_c, 12, 58, 96
27, 182807, Note_on_c, 12, 58, 0
27, 182880, Note_on_c, 12, 61, 98
27, 182927, Note_on_c, 12, 61, 0
27, 183000, Note_on_c, 12, 61, 94
27, 183047, Note_on_c, 12, 61, 0
27, 183120, Note_on_c, 12, 58, 98
27, 183167, Note_on_c, 12, 58, 0
27, 183240, Note_on_c, 12, 58, 94
27, 183287, Note_on_c, 12, 58, 0
27, 183360, Note_on_c, 12, 63, 85
27, 183407, Note_on_c, 12, 63, 0
27, 183480, Note_on_c, 12, 63, 94
27, 183527, Note_on_c, 12, 63, 0
27, 183600, Note_on_c, 12, 58, 89
27, 183647, Note_on_c, 12, 58, 0
27, 183720, Note_on_c, 12, 58, 88
27, 183767, Note_on_c, 12, 58, 0
27, 183840, Note_on_c, 12, 61, 82
27, 183887, Note_on_c, 12, 61, 0
27, 183960, Note_on_c, 12, 61, 83
27, 184007, Note_on_c, 12, 61, 0
27, 184080, Note_on_c, 12, 58, 97
27, 184127, Note_on_c, 12, 58, 0
27, 184200, Note_on_c, 12, 58, 96
27, 184247, Note_on_c, 12, 58, 0
27, 184320, Note_on_c, 12, 63, 96
27, 184367, Note_on_c, 12, 63, 0
27, 184440, Note_on_c, 12, 63, 81
27, 184487, Note_on_c, 12, 63, 0
27, 184560, Note_on_c, 12, 58, 88
27, 184607, Note_on_c, 12, 58, 0
27, 184680, Note_on_c, 12, 58, 87
27, 184727, Note_on_c, 12, 58, 0
27, 184800, Note_on_c, 12, 61, 79
27, 184847, Note_on_c, 12, 61, 0
27, 184920, Note_on_c, 12, 61, 96
27, 184967, Note_on_c, 12, 61, 0
27, 185040, Note_on_c, 12, 58, 91
27, 185087, Note_on_c, 12, 58, 0
27, 185160, Note_on_c, 12, 58, 95
27, 185207, Note_on_c, 12, 58, 0
27, 185280, Note_on_c, 12, 63, 80
27, 185327, Note_on_c, 12, 63, 0
27, 185400, Note_on_c, 12, 63, 84
27, 185447, Note_on_c, 12, 63, 0
27, 185520, Note_on_c, 12, 58, 91
27, 185567, Note_on_c, 12, 58, 0
27, 185640, Note_on_c, 12, 58, 91
27, 185687, Note_on_c, 12, 58, 0
27, 185760, Note_on_c, 12, 61, 82
27, 185807, Note_on_c, 12, 61, 0
27, 185880, Note_on_c, 12, 61, 87
27, 185927, Note_on_c, 12, 61, 0
27, 186000, Note_on_c, 12, 58, 89
27, 186047, Note_on_c, 12, 58, 0
27, 186120, Note_on_c, 12, 58, 91
27, 186167, Note_on_c, 12, 58, 0
27, 186240, Note_on_c, 12, 63, 87
27, 186287, Note_on_c, 12, 63, 0
27, 186360, Note_on_c, 12, 63, 92
27, 186407, Note_on_c, 12, 63, 0
27, 186480, Note_on_c, 12, 58, 93
27, 186527, Note_on_c, 12, 58, 0
27, 186600, Note_on_c, 12, 58, 84
27, 186647, Note_on_c, 12, 58, 0
27, 186720, Note_on_c, 12, 61, 97
27, 186767, Note_on_c, 12, 61, 0
27, 186840, Note_on_c, 12, 61, 92
27, 186887, Note_on_c, 12, 61, 0
27, 186960, Note_on_c, 12, 58, 84
27, 187007, Note_on_c, 12, 58, 0
27, 187080, Note_on_c, 12, 58, 81
27, 187127, Note_on_c, 12, 58, 0
27, 187200, Note_on_c, 12, 63, 94
27, 187247, Note_on_c, 12, 63, 0
27, 187320, Note_on_c, 12, 63, 86
27, 187367, Note_on_c, 12, 63, 0
27, 187440, Note_on_c, 12, 58, 84
27, 187487, Note_on_c, 12, 58, 0
27, 187560, Note_on_c, 12, 58, 92
27, 187607, Note_on_c, 12, 58, 0
27, 187680, Note_on_c, 12, 61, 93
27, 187727, Note_on_c, 12, 61, 0
27, 187800, Note_on_c, 12, 61, 95
27, 187847, Note_on_c, 12, 61, 0
27, 187920, Note_on_c, 12, 58, 78
27, 187967, Note_on_c, 12, 58, 0
27, 188040, Note_on_c, 12, 58, 88
27, 188087, Note_on_c, 12, 58, 0
27, 188160, Note_on_c, 12, 63, 96
27, 188207, Note_on_c, 12, 63, 0
27, 188280, Note_on_c, 12, 63, 86
27, 188327, Note_on_c, 12, 63, 0
27, 188400, Note_on_c, 12, 58, 89
27, 188447, Note_on_c, 12, 58, 0
27, 188520, Note_on_c, 12, 58, 92
27, 188567, Note_on_c, 12, 58, 0
27, 188640, Note_on_c, 12, 61, 81
27, 188687, Note_on_c, 12, 61, 0
27, 188760, Note_on_c, 12, 61, 91
27, 188807, Note_on_c, 12, 61, 0
27, 188880, Note_on_c, 12, 58, 97
27, 188927, Note_on_c, 12, 58, 0
27, 189000, Note_on_c, 12, 58, 80
27, 189047, Note_on_c, 12, 58, 0
27, 189120, Note_on_c, 12, 63, 80
27, 189167, Note_on_c, 12, 63, 0
27, 189240, Note_on_c, 12, 63, 96
27, 189287, Note_on_c, 12, 63, 0
27, 189360, Note_on_c, 12, 58, 82
27, 189407, Note_on_c, 12, 58, 0
27, 189480, Note_on_c, 12, 58, 85
27, 189527, Note_on_c, 12, 58, 0
27, 189600, Note_on_c, 12, 61, 96
27, 189647, Note_on_c, 12, 61, 0
27, 189720, Note_on_c, 12, 61, 88
27, 189767, Note_on_c, 12, 61, 0
27, 189840, Note_on_c, 12, 58, 91
27, 189887, Note_on_c, 12, 58, 0
27, 189960, Note_on_c, 12, 58, 81
27, 190007, Note_on_c, 12, 58, 0
27, 190080, Note_on_c, 12, 63, 84
27, 190127, Note_on_c, 12, 63, 0
27, 190200, Note_on_c, 12, 63, 88
27, 190247, Note_on_c, 12, 63, 0
27, 190320, Note_on_c, 12, 58, 85
27, 190367, Note_on_c, 12, 58, 0
27, 190440, Note_on_c, 12, 58, 88
27, 190487, Note_on_c, 12, 58, 0
27, 190560, Note_on_c, 12, 61, 84
27, 190607, Note_on_c, 12, 61, 0
27, 190680, Note_on_c, 12, 61, 87
27, 190727, Note_on_c, 12, 61, 0
27, 190800, Note_on_c, 12, 58, 79
27, 190847, Note_on_c, 12, 58, 0
27, 190920, Note_on_c, 12, 58, 79
27, 190967, Note_on_c, 12, 58, 0
27, 191040, Note_on_c, 12, 63, 89
27, 191087, Note_on_c, 12, 63, 0
27, 191160, Note_on_c, 12, 63, 92
27, 191207, Note_on_c, 12, 63, 0
27, 191280, Note_on_c, 12, 58, 95
27, 191327, Note_on_c, 12, 58, 0
27, 191400, Note_on_c, 12, 58, 91
27, 191447, Note_on_c, 12, 58, 0
27, 191520, Note_on_c, 12, 61, 84
27, 191567, Note_on_c, 12, 61, 0
27, 191640, Note_on_c, 12, 61, 85
27, 191687, Note_on_c, 12, 61, 0
27, 191760, Note_on_c, 12, 58, 87
27, 191807, Note_on_c, 12, 58, 0
27, 191880, Note_on_c, 12, 58, 82
27, 191927, Note_on_c, 12, 58, 0
27, 192000, Note_on_c, 12, 63, 83
27, 192047, Note_on_c, 12, 63, 0
27, 192120, Note_on_c, 12, 63, 89
27, 192167, Note_on_c, 12, 63, 0
27, 192240, Note_on_c, 12, 58, 93
27, 192287, Note_on_c, 12, 58, 0
27, 192360, Note_on_c, 12, 58, 93
27, 192407, Note_on_c, 12, 58, 0
27, 192480, Note_on_c, 12, 61, 78
27, 192527, Note_on_c, 12, 61, 0
27, 192600, Note_on_c, 12, 61, 96
27, 192647, Note_on_c, 12, 61, 0
27, 192720, Note_on_c, 12, 58, 85
27, 192767, Note_on_c, 12, 58, 0
27, 192840, Note_on_c, 12, 58, 80
27, 192887, Note_on_c, 12, 58, 0
27, 192960, Note_on_c, 12, 63, 97
27, 193007, Note_on_c, 12, 63, 0
27, 193080, Note_on_c, 12, 63, 80
27, 193127, Note_on_c, 12, 63, 0
27, 193200, Note_on_c, 12, 58, 84
27, 193247, Note_on_c, 12, 58, 0
27, 193320, Note_on_c, 12, 58, 90
27, 193367, Note_on_c, 12, 58, 0
27, 193440, Note_on_c, 12, 61, 95
27, 193487, Note_on_c, 12, 61, 0
27, 193560, Note_on_c, 12, 61, 85
27, 193607, Note_on_c, 12, 61, 0
27, 193680, Note_on_c, 12, 58, 95
27, 193727, Note_on_c, 12, 58, 0
27, 193800, Note_on_c, 12, 58, 96
27, 193847, Note_on_c, 12, 58, 0
27, 193920, Note_on_c, 12, 63, 84
27, 193967, Note_on_c, 12, 63, 0
27, 194040, Note_on_c, 12, 63, 79
27, 194087, Note_on_c, 12, 63, 0
27, 194160, Note_on_c, 12, 58, 96
27, 194207, Note_on_c, 12, 58, 0
27, 194280, Note_on_c, 12, 58, 91
27, 194327, Note_on_c, 12, 58, 0
27, 194400, Program_c, 12, 115
27, 194402, Note_on_c, 12, 70, 66
27, 194642, Note_on_c, 12, 70, 0
27, 194652, Note_on_c, 12, 78, 74
27, 194886, Note_on_c, 12, 72, 79
27, 194892, Note_on_c, 12, 78, 0
27, 195126, Note_on_c, 12, 72, 0
27, 195133, Note_on_c, 12, 80, 82
27, 195373, Note_on_c, 12, 80, 0
27, 195382, Note_on_c, 12, 70, 80
27, 195615, Note_on_c, 12, 78, 82
27, 195622, Note_on_c, 12, 70, 0
27, 195845, Note_on_c, 12, 72, 71
27, 195855, Note_on_c, 12, 78, 0
27, 196085, Note_on_c, 12, 72, 0
27, 196097, Note_on_c, 12, 80, 71
27, 196331, Note_on_c, 12, 70, 73
27, 196337, Note_on_c, 12, 80, 0
27, 196562, Note_on_c, 12, 78, 79
27, 196571, Note_on_c, 12, 70, 0
27, 196802, Note_on_c, 12, 78, 0
27, 196802, Note_on_c, 12, 72, 81
27, 197042, Note_on_c, 12, 72, 0
27, 197045, Note_on_c, 12, 80, 67
27, 197284, Note_on_c, 12, 70, 69
27, 197285, Note_on_c, 12, 80, 0
27, 197524, Note_on_c, 12, 70, 0
27, 197527, Note_on_c, 12, 78, 79
27, 197767, Note_on_c, 12, 78, 0
27, 197779, Note_on_c, 12, 72, 80
27, 198019, Note_on_c, 12, 72, 0
27, 198022, Note_on_c, 12, 80, 74
27, 198248, Note_on_c, 12, 70, 65
27, 198262, Note_on_c, 12, 80, 0
27, 198488, Note_on_c, 12, 70, 0
27, 198496, Note_on_c, 12, 78, 85
27, 198736, Note_on_c, 12, 78, 0
27, 198742, Note_on_c, 12, 72, 76
27, 198980, Note_on_c, 12, 80, 66
27, 198982, Note_on_c, 12, 72, 0
27, 199203, Note_on_c, 12, 70, 75
27, 199220, Note_on_c, 12, 80, 0
27, 199443, Note_on_c, 12, 70, 0
27, 199463, Note_on_c, 12, 78, 79
27, 199703, Note_on_c, 12, 78, 0
27, 199705, Note_on_c, 12, 72, 72
27, 199934, Note_on_c, 12, 80, 72
27, 199945, Note_on_c, 12, 72, 0
27, 200174, Note_on_c, 12, 80, 0
27, 200181, Note_on_c, 12, 70, 84
27, 200421, Note_on_c, 12, 70, 0
27, 200425, Note_on_c, 12, 78, 85
27, 200653, Note_on_c, 12, 72, 85
27, 200665, Note_on_c, 12, 78, 0
27, 200887, Note_on_c, 12, 80, 71
27, 200893, Note_on_c, 12, 72, 0
27, 201127, Note_on_c, 12, 80, 0
27, 201129, Note_on_c, 12, 70, 69
27, 201369, Note_on_c, 12, 70, 0
27, 201381, Note_on_c, 12, 78, 79
27, 201621, Note_on_c, 12, 78, 0
27, 201625, Note_on_c, 12, 72, 74
27, 201857, Note_on_c, 12, 80, 71
27, 201865, Note_on_c, 12, 72, 0
27, 202085, Note_on_c, 12, 70, 74
27, 202097, Note_on_c, 12, 80, 0
27, 202325, Note_on_c, 12, 70, 0
27, 202333, Note_on_c, 12, 78, 75
27, 202565, Note_on_c, 12, 72, 84
27, 202573, Note_on_c, 12, 78, 0
27, 202805, Note_on_c, 12, 72, 0
27, 202812, Note_on_c, 12, 80, 69
27, 203050, Note_on_c, 12, 70, 78
27, 203052, Note_on_c, 12, 80, 0
27, 203290, Note_on_c, 12, 70, 0
27, 203298, Note_on_c, 12, 78, 80
27, 203525, Note_on_c, 12, 72, 74
27, 203538, Note_on_c, 12, 78, 0
27, 203765, Note_on_c, 12, 72, 0
27, 203782, Note_on_c, 12, 80, 68
27, 204014, Note_on_c, 12, 70, 79
27, 204022, Note_on_c, 12, 80, 0
27, 204249, Note_on_c, 12, 78, 68
27, 204254, Note_on_c, 12, 70, 0
27, 204489, Note_on_c, 12, 78, 0
27, 204494, Note_on_c, 12, 72, 82
27, 204734, Note_on_c, 12, 72, 0
27, 204741, Note_on_c, 12, 80, 74
27, 204981, Note_on_c, 12, 80, 0
27, 204984, Note_on_c, 12, 70, 74
27, 205221, Note_on_c, 12, 78, 76
27, 205224, Note_on_c, 12, 70, 0
27, 205452, Note_on_c, 12, 72, 77
27, 205461, Note_on_c, 12, 78, 0
27, 205690, Note_on_c, 12, 80, 77
27, 205692, Note_on_c, 12, 72, 0
27, 205930, Note_on_c, 12, 80, 0
27, 205931, Note_on_c, 12, 70, 65
27, 206164, Note_on_c, 12, 78, 81
27, 206171, Note_on_c, 12, 70, 0
27, 206404, Note_on_c, 12, 78, 0
27, 206424, Note_on_c, 12, 72, 80
27, 206652, Note_on_c, 12, 80, 84
27, 206664, Note_on_c, 12, 72, 0
27, 206884, Note_on_c, 12, 70, 76
27, 206892, Note_on_c, 12, 80, 0
27, 207124, Note_on_c, 12, 70, 0
27, 207129, Note_on_c, 12, 78, 81
27, 207369, Note_on_c, 12, 78, 0
27, 207374, Note_on_c, 12, 72, 84
27, 207601, Note_on_c, 12, 80, 84
27, 207614, Note_on_c, 12, 72, 0
27, 207841, Note_on_c, 12, 80, 0
27, 207862, Note_on_c, 12, 70, 72
27, 208102, Note_on_c, 12, 70, 0
27, 208102, Note_on_c, 12, 78, 79
27, 208342, Note_on_c, 12, 78, 0
27, 208345, Note_on_c, 12, 72, 68
27, 208561, Note_on_c, 12, 80, 82
27, 208585, Note_on_c, 12, 72, 0
27, 208801, Note_on_c, 12, 80, 0
27, 208824, Note_on_c, 12, 70, 84
27, 209046, Note_on_c, 12, 78, 67
27, 209064, Note_on_c, 12, 70, 0
27, 209286, Note_on_c, 12, 78, 0
27, 209294, Note_on_c, 12, 72, 79
27, 209527, Note_on_c, 12, 80, 67
27, 209534, Note_on_c, 12, 72, 0
27, 209767, Note_on_c, 12, 80, 0
27, 209784, Note_on_c, 12, 70, 76
27, 210011, Note_on_c, 12, 78, 79
27, 210024, Note_on_c, 12, 70, 0
27, 210248, Note_on_c, 12, 72, 75
27, 210251, Note_on_c, 12, 78, 0
27, 210488, Note_on_c, 12, 72, 0
27, 210492, Note_on_c, 12, 80, 82
27, 210732, Note_on_c, 12, 80, 0
27, 210732, Note_on_c, 12, 70, 74
27, 210972, Note_on_c, 12, 70, 0
27, 210975, Note_on_c, 12, 78, 65
27, 211215, Note_on_c, 12, 78, 0
27, 211223, Note_on_c, 12, 72, 72
27, 211450, Note_on_c, 12, 80, 73
27, 211463, Note_on_c, 12, 72, 0
27, 211680, Program_c, 12, 45
27, 211689, Note_on_c, 12, 59, 39
27, 211690, Note_on_c, 12, 80, 0
27, 211839, Note_on_c, 12, 62, 55
27, 211848, Note_on_c, 12, 59, 0
27, 211999, Note_on_c, 12, 62, 0
27, 212003, Note_on_c, 12, 65, 59
27, 212162, Note_on_c, 12, 65, 0
27, 212661, Note_on_c, 12, 59, 40
27, 212800, Note_on_c, 12, 62, 40
27, 212820, Note_on_c, 12, 59, 0
27, 212960, Note_on_c, 12, 62, 0
27, 212977, Note_on_c, 12, 65, 58
27, 213136, Note_on_c, 12, 65, 0
27, 213859, Note_on_c, 12, 70, 90
27, 213865, Note_on_c, 12, 80, 88
27, 214099, Note_on_c, 12, 70, 0
27, 214105, Note_on_c, 12, 80, 0
27, 214320, Note_on_c, 12, 82, 104
27, 214326, Note_on_c, 12, 70, 85
27, 214560, Note_on_c, 12, 82, 0
27, 214562, Note_on_c, 12, 60, 81
27, 214566, Note_on_c, 12, 70, 0
27, 214719, Note_on_c, 12, 63, 87
27, 214721, Note_on_c, 12, 60, 0
27, 214879, Note_on_c, 12, 63, 0
27, 214893, Note_on_c, 12, 66, 84
27, 215052, Note_on_c, 12, 66, 0
27, 215540, Note_on_c, 12, 62, 78
27, 215685, Note_on_c, 12, 65, 83
27, 215699, Note_on_c, 12, 62, 0
27, 215845, Note_on_c, 12, 65, 0
27, 215845, Note_on_c, 12, 68, 95
27, 216004, Note_on_c, 12, 68, 0
27, 216499, Note_on_c, 12, 63, 112
27, 216645, Note_on_c, 12, 66, 108
27, 216658, Note_on_c, 12, 63, 0
27, 216805, Note_on_c, 12, 66, 0
27, 216810, Note_on_c, 12, 69, 109
27, 216969, Note_on_c, 12, 69, 0
27, 217450, Note_on_c, 12, 63, 92
27, 217609, Note_on_c, 12, 63, 0
27, 217611, Note_on_c, 12, 66, 87
27, 217771, Note_on_c, 12, 66, 0
27, 217771, Note_on_c, 12, 69, 82
27, 217930, Note_on_c, 12, 69, 0
27, 218408, Note_on_c, 12, 66, 94
27, 218567, Note_on_c, 12, 66, 0
27, 218577, Note_on_c, 12, 69, 90
27, 218727, Note_on_c, 12, 72, 90
27, 218737, Note_on_c, 12, 69, 0
27, 218886, Note_on_c, 12, 72, 0
27, 219360, Program_c, 12, 45
27, 219375, Note_on_c, 12, 74, 94
27, 219495, Note_on_c, 12, 74, 0
27, 219503, Note_on_c, 12, 74, 87
27, 219621, Note_on_c, 12, 74, 98
27, 219623, Note_on_c, 12, 74, 0
27, 219724, Note_on_c, 12, 74, 98
27, 219741, Note_on_c, 12, 74, 0
27, 219844, Note_on_c, 12, 74, 0
27, 219847, Note_on_c, 12, 74, 95
27, 219963, Note_on_c, 12, 74, 86
27, 219967, Note_on_c, 12, 74, 0
27, 220083, Note_on_c, 12, 74, 0
27, 220104, Note_on_c, 12, 74, 78
27, 220207, Note_on_c, 12, 74, 84
27, 220224, Note_on_c, 12, 74, 0
27, 220322, Note_on_c, 12, 74, 83
27, 220327, Note_on_c, 12, 74, 0
27, 220442, Note_on_c, 12, 74, 0
27, 220443, Note_on_c, 12, 74, 98
27, 220563, Note_on_c, 12, 74, 0
27, 220577, Note_on_c, 12, 74, 94
27, 220694, Note_on_c, 12, 74, 88
27, 220697, Note_on_c, 12, 74, 0
27, 220814, Note_on_c, 12, 74, 0
27, 220818, Note_on_c, 12, 74, 80
27, 220922, Note_on_c, 12, 74, 88
27, 220938, Note_on_c, 12, 74, 0
27, 221042, Note_on_c, 12, 74, 0
27, 221049, Note_on_c, 12, 74, 97
27, 221169, Note_on_c, 12, 74, 0
27, 221182, Note_on_c, 12, 74, 87
27, 221280, Note_on_c, 12, 74, 97
27, 221302, Note_on_c, 12, 74, 0
27, 221400, Note_on_c, 12, 74, 0
27, 221424, Note_on_c, 12, 74, 83
27, 221543, Note_on_c, 12, 74, 95
27, 221544, Note_on_c, 12, 74, 0
27, 221657, Note_on_c, 12, 74, 83
27, 221663, Note_on_c, 12, 74, 0
27, 221764, Note_on_c, 12, 74, 91
27, 221777, Note_on_c, 12, 74, 0
27, 221884, Note_on_c, 12, 74, 0
27, 221891, Note_on_c, 12, 74, 87
27, 222004, Note_on_c, 12, 74, 81
27, 222011, Note_on_c, 12, 74, 0
27, 222124, Note_on_c, 12, 74, 0
27, 222134, Note_on_c, 12, 74, 97
27, 222246, Note_on_c, 12, 74, 96
27, 222254, Note_on_c, 12, 74, 0
27, 222366, Note_on_c, 12, 74, 0
27, 222382, Note_on_c, 12, 74, 91
27, 222490, Note_on_c, 12, 74, 86
27, 222502, Note_on_c, 12, 74, 0
27, 222602, Note_on_c, 12, 74, 78
27, 222610, Note_on_c, 12, 74, 0
27, 222722, Note_on_c, 12, 74, 0
27, 222737, Note_on_c, 12, 74, 95
27, 222857, Note_on_c, 12, 74, 0
27, 222860, Note_on_c, 12, 74, 78
27, 222975, Note_on_c, 12, 74, 80
27, 222980, Note_on_c, 12, 74, 0
27, 223091, Note_on_c, 12, 74, 91
27, 223095, Note_on_c, 12, 74, 0
27, 223211, Note_on_c, 12, 74, 0
27, 223211, Note_on_c, 12, 74, 98
27, 223331, Note_on_c, 12, 74, 0
27, 223338, Note_on_c, 12, 74, 95
27, 223450, Note_on_c, 12, 74, 78
27, 223458, Note_on_c, 12, 74, 0
27, 223566, Note_on_c, 12, 74, 95
27, 223570, Note_on_c, 12, 74, 0
27, 223686, Note_on_c, 12, 74, 0
27, 223696, Note_on_c, 12, 74, 80
27, 223816, Note_on_c, 12, 74, 0
27, 223821, Note_on_c, 12, 74, 78
27, 223941, Note_on_c, 12, 74, 0
27, 223944, Note_on_c, 12, 74, 78
27, 224040, Note_on_c, 12, 74, 96
27, 224064, Note_on_c, 12, 74, 0
27, 224160, Note_on_c, 12, 74, 0
27, 224179, Note_on_c, 12, 74, 82
27, 224288, Note_on_c, 12, 74, 97
27, 224299, Note_on_c, 12, 74, 0
27, 224403, Note_on_c, 12, 74, 83
27, 224408, Note_on_c, 12, 74, 0
27, 224523, Note_on_c, 12, 74, 0
27, 224528, Note_on_c, 12, 74, 84
27, 224648, Note_on_c, 12, 74, 0
27, 224654, Note_on_c, 12, 74, 86
27, 224760, Note_on_c, 12, 74, 84
27, 224774, Note_on_c, 12, 74, 0
27, 224880, Note_on_c, 12, 74, 0
27, 224882, Note_on_c, 12, 74, 78
27, 225002, Note_on_c, 12, 74, 0
27, 225017, Note_on_c, 12, 74, 86
27, 225127, Note_on_c, 12, 74, 86
27, 225137, Note_on_c, 12, 74, 0
27, 225247, Note_on_c, 12, 74, 0
27, 225253, Note_on_c, 12, 74, 98
27, 225364, Note_on_c, 12, 74, 93
27, 225373, Note_on_c, 12, 74, 0
27, 225484, Note_on_c, 12, 74, 0
27, 225500, Note_on_c, 12, 74, 91
27, 225600, Note_on_c, 12, 74, 85
27, 225620, Note_on_c, 12, 74, 0
27, 225720, Note_on_c, 12, 74, 0
27, 225734, Note_on_c, 12, 74, 83
27, 225854, Note_on_c, 12, 74, 0
27, 225861, Note_on_c, 12, 74, 80
27, 225977, Note_on_c, 12, 74, 86
27, 225981, Note_on_c, 12, 74, 0
27, 226081, Note_on_c, 12, 74, 97
27, 226097, Note_on_c, 12, 74, 0
27, 226201, Note_on_c, 12, 74, 0
27, 226223, Note_on_c, 12, 74, 98
27, 226333, Note_on_c, 12, 74, 85
27, 226343, Note_on_c, 12, 74, 0
27, 226451, Note_on_c, 12, 74, 94
27, 226453, Note_on_c, 12, 74, 0
27, 226571, Note_on_c, 12, 74, 0
27, 226581, Note_on_c, 12, 74, 89
27, 226693, Note_on_c, 12, 74, 86
27, 226701, Note_on_c, 12, 74, 0
27, 226813, Note_on_c, 12, 74, 0
27, 226814, Note_on_c, 12, 74, 80
27, 226934, Note_on_c, 12, 74, 0
27, 226945, Note_on_c, 12, 74, 92
27, 227065, Note_on_c, 12, 74, 0
27, 230040, Program_c, 12, 48
27, 230055, Note_on_c, 12, 67, 82
27, 230163, Note_on_c, 12, 69, 87
27, 230175, Note_on_c, 12, 67, 0
27, 230283, Note_on_c, 12, 69, 0
27, 230290, Note_on_c, 12, 71, 74
27, 230409, Note_on_c, 12, 72, 82
27, 230410, Note_on_c, 12, 71, 0
27, 230520, Note_on_c, 12, 74, 91
27, 230529, Note_on_c, 12, 72, 0
27, 230640, Note_on_c, 12, 74, 0
27, 230664, Note_on_c, 12, 75, 75
27, 230783, Note_on_c, 12, 77, 80
27, 230784, Note_on_c, 12, 75, 0
27, 230880, Note_on_c, 12, 79, 83
27, 230903, Note_on_c, 12, 77, 0
27, 230915, Note_on_c, 12, 79, 0
27, 231000, Note_on_c, 12, 77, 92
27, 231035, Note_on_c, 12, 77, 0
27, 231120, Note_on_c, 12, 79, 93
27, 231155, Note_on_c, 12, 79, 0
27, 231240, Note_on_c, 12, 77, 96
27, 231275, Note_on_c, 12, 77, 0
27, 231360, Note_on_c, 12, 79, 79
27, 231395, Note_on_c, 12, 79, 0
27, 231480, Note_on_c, 12, 77, 81
27, 231515, Note_on_c, 12, 77, 0
27, 231600, Note_on_c, 12, 79, 81
27, 231635, Note_on_c, 12, 79, 0
27, 231720, Note_on_c, 12, 77, 91
27, 231755, Note_on_c, 12, 77, 0
27, 231840, Note_on_c, 12, 79, 78
27, 231875, Note_on_c, 12, 79, 0
27, 231960, Note_on_c, 12, 77, 97
27, 231995, Note_on_c, 12, 77, 0
27, 232080, Note_on_c, 12, 79, 84
27, 232115, Note_on_c, 12, 79, 0
27, 232200, Note_on_c, 12, 77, 82
27, 232235, Note_on_c, 12, 77, 0
27, 232320, Note_on_c, 12, 79, 78
27, 232355, Note_on_c, 12, 79, 0
27, 232440, Note_on_c, 12, 77, 83
27, 232475, Note_on_c, 12, 77, 0
27, 232560, Note_on_c, 12, 79, 83
27, 232595, Note_on_c, 12, 79, 0
27, 232680, Note_on_c, 12, 77, 79
27, 232715, Note_on_c, 12, 77, 0
27, 232817, Note_on_c, 12, 79, 120
27, 232921, Note_on_c, 12, 77, 96
27, 232937, Note_on_c, 12, 79, 0
27, 233040, Note_on_c, 12, 75, 95
27, 233041, Note_on_c, 12, 77, 0
27, 233087, Note_on_c, 12, 75, 0
27, 233160, Note_on_c, 12, 74, 78
27, 233207, Note_on_c, 12, 74, 0
27, 233284, Note_on_c, 12, 81, 115
27, 233404, Note_on_c, 12, 81, 0
27, 233412, Note_on_c, 12, 79, 81
27, 233520, Note_on_c, 12, 77, 90
27, 233532, Note_on_c, 12, 79, 0
27, 233567, Note_on_c, 12, 77, 0
27, 233640, Note_on_c, 12, 75, 97
27, 233687, Note_on_c, 12, 75, 0
27, 233760, Note_on_c, 12, 79, 97
27, 233795, Note_on_c, 12, 79, 0
27, 233880, Note_on_c, 12, 77, 96
27, 233915, Note_on_c, 12, 77, 0
27, 234000, Note_on_c, 12, 79, 90
27, 234035, Note_on_c, 12, 79, 0
27, 234120, Note_on_c, 12, 77, 98
27, 234155, Note_on_c, 12, 77, 0
27, 234240, Note_on_c, 12, 79, 98
27, 234275, Note_on_c, 12, 79, 0
27, 234360, Note_on_c, 12, 77, 90
27, 234395, Note_on_c, 12, 77, 0
27, 234480, Note_on_c, 12, 79, 81
27, 234515, Note_on_c, 12, 79, 0
27, 234600, Note_on_c, 12, 77, 88
27, 234635, Note_on_c, 12, 77, 0
27, 234726, Note_on_c, 12, 79, 119
27, 234841, Note_on_c, 12, 77, 86
27, 234846, Note_on_c, 12, 79, 0
27, 234960, Note_on_c, 12, 75, 95
27, 234961, Note_on_c, 12, 77, 0
27, 235007, Note_on_c, 12, 75, 0
27, 235080, Note_on_c, 12, 74, 87
27, 235127, Note_on_c, 12, 74, 0
27, 235208, Note_on_c, 12, 81, 108
27, 235322, Note_on_c, 12, 79, 89
27, 235328, Note_on_c, 12, 81, 0
27, 235440, Note_on_c, 12, 77, 94
27, 235442, Note_on_c, 12, 79, 0
27, 235487, Note_on_c, 12, 77, 0
27, 235560, Note_on_c, 12, 75, 83
27, 235607, Note_on_c, 12, 75, 0
27, 235702, Note_on_c, 12, 79, 115
27, 235813, Note_on_c, 12, 77, 93
27, 235822, Note_on_c, 12, 79, 0
27, 235920, Note_on_c, 12, 75, 93
27, 235933, Note_on_c, 12, 77, 0
27, 235967, Note_on_c, 12, 75, 0
27, 236040, Note_on_c, 12, 74, 90
27, 236087, Note_on_c, 12, 74, 0
27, 236181, Note_on_c, 12, 81, 110
27, 236281, Note_on_c, 12, 79, 82
27, 236301, Note_on_c, 12, 81, 0
27, 236400, Note_on_c, 12, 77, 96
27, 236401, Note_on_c, 12, 79, 0
27, 236447, Note_on_c, 12, 77, 0
27, 236520, Note_on_c, 12, 75, 78
27, 236567, Note_on_c, 12, 75, 0
27, 236653, Note_on_c, 12, 79, 111
27, 236773, Note_on_c, 12, 79, 0
27, 236779, Note_on_c, 12, 77, 84
27, 236880, Note_on_c, 12, 75, 89
27, 236899, Note_on_c, 12, 77, 0
27, 236927, Note_on_c, 12, 75, 0
27, 237000, Note_on_c, 12, 74, 95
27, 237047, Note_on_c, 12, 74, 0
27, 237136, Note_on_c, 12, 81, 109
27, 237256, Note_on_c, 12, 81, 0
27, 237261, Note_on_c, 12, 79, 91
27, 237360, Note_on_c, 12, 77, 78
27, 237381, Note_on_c, 12, 79, 0
27, 237407, Note_on_c, 12, 77, 0
27, 237480, Note_on_c, 12, 75, 78
27, 237527, Note_on_c, 12, 75, 0
27, 237620, Note_on_c, 12, 83, 103
27, 237726, Note_on_c, 12, 81, 96
27, 237740, Note_on_c, 12, 83, 0
27, 237840, Note_on_c, 12, 79, 89
27, 237846, Note_on_c, 12, 81, 0
27, 237887, Note_on_c, 12, 79, 0
27, 237960, Note_on_c, 12, 77, 88
27, 238007, Note_on_c, 12, 77, 0
27, 238105, Note_on_c, 12, 81, 120
27, 238202, Note_on_c, 12, 79, 95
27, 238225, Note_on_c, 12, 81, 0
27, 238320, Note_on_c, 12, 77, 98
27, 238322, Note_on_c, 12, 79, 0
27, 238367, Note_on_c, 12, 77, 0
27, 238440, Note_on_c, 12, 75, 95
27, 238487, Note_on_c, 12, 75, 0
27, 238572, Note_on_c, 12, 79, 122
27, 238692, Note_on_c, 12, 79, 0
27, 238700, Note_on_c, 12, 77, 98
27, 238800, Note_on_c, 12, 75, 105
27, 238820, Note_on_c, 12, 77, 0
27, 238847, Note_on_c, 12, 75, 0
27, 238920, Note_on_c, 12, 74, 96
27, 238967, Note_on_c, 12, 74, 0
27, 239045, Note_on_c, 12, 81, 127
27, 239165, Note_on_c, 12, 81, 0
27, 239165, Note_on_c, 12, 79, 97
27, 239280, Note_on_c, 12, 77, 105
27, 239285, Note_on_c, 12, 79, 0
27, 239327, Note_on_c, 12, 77, 0
27, 239400, Note_on_c, 12, 75, 108
27, 239447, Note_on_c, 12, 75, 0
27, 239532, Note_on_c, 12, 83, 121
27, 239650, Note_on_c, 12, 81, 94
27, 239652, Note_on_c, 12, 83, 0
27, 239760, Note_on_c, 12, 79, 105
27, 239770, Note_on_c, 12, 81, 0
27, 239807, Note_on_c, 12, 79, 0
27, 239880, Note_on_c, 12, 77, 103
27, 239927, Note_on_c, 12, 77, 0
27, 240000, Note_on_c, 12, 81, 107
27, 240120, Note_on_c, 12, 81, 0
27, 240137, Note_on_c, 12, 79, 104
27, 240240, Note_on_c, 12, 77, 99
27, 240257, Note_on_c, 12, 79, 0
27, 240287, Note_on_c, 12, 77, 0
27, 240360, Note_on_c, 12, 75, 101
27, 240407, Note_on_c, 12, 75, 0
27, 240489, Note_on_c, 12, 79, 120
27, 240609, Note_on_c, 12, 79, 0
27, 240622, Note_on_c, 12, 77, 99
27, 240720, Note_on_c, 12, 75, 105
27, 240738, Note_on_c, 12, 75, 0
27, 240742, Note_on_c, 12, 77, 0
27, 240840, Note_on_c, 12, 74, 107
27, 240887, Note_on_c, 12, 74, 0
27, 240983, Note_on_c, 12, 81, 117
27, 241099, Note_on_c, 12, 79, 107
27, 241103, Note_on_c, 12, 81, 0
27, 241200, Note_on_c, 12, 77, 108
27, 241219, Note_on_c, 12, 79, 0
27, 241247, Note_on_c, 12, 77, 0
27, 241320, Note_on_c, 12, 75, 109
27, 241367, Note_on_c, 12, 75, 0
27, 241691, Note_on_c, 12, 79, 99
27, 241693, Note_on_c, 12, 63, 109
27, 241699, Note_on_c, 12, 69, 115
27, 241931, Note_on_c, 12, 79, 0
27, 241933, Note_on_c, 12, 63, 0
27, 241939, Note_on_c, 12, 69, 0
27, 242165, Note_on_c, 12, 63, 97
27, 242175, Note_on_c, 12, 69, 102
27, 242182, Note_on_c, 12, 79, 99
27, 242405, Note_on_c, 12, 63, 0
27, 242415, Note_on_c, 12, 69, 0
27, 242415, Note_on_c, 12, 79, 117
27, 242422, Note_on_c, 12, 79, 0
27, 242522, Note_on_c, 12, 77, 104
27, 242535, Note_on_c, 12, 79, 0
27, 242640, Note_on_c, 12, 75, 113
27, 242642, Note_on_c, 12, 77, 0
27, 242658, Note_on_c, 12, 75, 0
27, 242760, Note_on_c, 12, 74, 115
27, 242807, Note_on_c, 12, 74, 0
27, 242894, Note_on_c, 12, 81, 127
27, 243014, Note_on_c, 12, 81, 0
27, 243021, Note_on_c, 12, 79, 100
27, 243120, Note_on_c, 12, 77, 110
27, 243141, Note_on_c, 12, 79, 0
27, 243167, Note_on_c, 12, 77, 0
27, 243240, Note_on_c, 12, 75, 102
27, 243287, Note_on_c, 12, 75, 0
27, 243379, Note_on_c, 12, 83, 123
27, 243483, Note_on_c, 12, 81, 102
27, 243499, Note_on_c, 12, 83, 0
27, 243600, Note_on_c, 12, 79, 105
27, 243603, Note_on_c, 12, 81, 0
27, 243647, Note_on_c, 12, 79, 0
27, 243720, Note_on_c, 12, 77, 107
27, 243767, Note_on_c, 12, 77, 0
27, 243850, Note_on_c, 12, 81, 99
27, 243970, Note_on_c, 12, 81, 0
27, 243975, Note_on_c, 12, 79, 104
27, 244080, Note_on_c, 12, 77, 95
27, 244095, Note_on_c, 12, 79, 0
27, 244127, Note_on_c, 12, 77, 0
27, 244200, Note_on_c, 12, 75, 111
27, 244247, Note_on_c, 12, 75, 0
27, 244320, Note_on_c, 12, 79, 118
27, 244440, Note_on_c, 12, 79, 0
27, 244460, Note_on_c, 12, 77, 100
27, 244560, Note_on_c, 12, 75, 95
27, 244578, Note_on_c, 12, 75, 0
27, 244580, Note_on_c, 12, 77, 0
27, 244680, Note_on_c, 12, 74, 97
27, 244727, Note_on_c, 12, 74, 0
27, 244806, Note_on_c, 12, 81, 127
27, 244926, Note_on_c, 12, 81, 0
27, 244933, Note_on_c, 12, 79, 102
27, 245040, Note_on_c, 12, 77, 105
27, 245053, Note_on_c, 12, 79, 0
27, 245087, Note_on_c, 12, 77, 0
27, 245160, Note_on_c, 12, 75, 101
27, 245207, Note_on_c, 12, 75, 0
27, 245528, Note_on_c, 12, 63, 95
27, 245535, Note_on_c, 12, 79, 107
27, 245542, Note_on_c, 12, 69, 110
27, 245768, Note_on_c, 12, 63, 0
27, 245775, Note_on_c, 12, 79, 0
27, 245782, Note_on_c, 12, 69, 0
27, 246005, Note_on_c, 12, 79, 102
27, 246009, Note_on_c, 12, 69, 100
27, 246018, Note_on_c, 12, 63, 95
27, 246245, Note_on_c, 12, 79, 0
27, 246249, Note_on_c, 12, 69, 0
27, 246251, Note_on_c, 12, 79, 127
27, 246258, Note_on_c, 12, 63, 0
27, 246361, Note_on_c, 12, 77, 114
27, 246371, Note_on_c, 12, 79, 0
27, 246480, Note_on_c, 12, 75, 111
27, 246481, Note_on_c, 12, 77, 0
27, 246498, Note_on_c, 12, 75, 0
27, 246600, Note_on_c, 12, 74, 102
27, 246647, Note_on_c, 12, 74, 0
27, 246731, Note_on_c, 12, 81, 126
27, 246845, Note_on_c, 12, 79, 102
27, 246851, Note_on_c, 12, 81, 0
27, 246960, Note_on_c, 12, 77, 100
27, 246965, Note_on_c, 12, 79, 0
27, 247007, Note_on_c, 12, 77, 0
27, 247080, Note_on_c, 12, 75, 100
27, 247127, Note_on_c, 12, 75, 0
27, 247222, Note_on_c, 12, 79, 123
27, 247324, Note_on_c, 12, 77, 103
27, 247342, Note_on_c, 12, 79, 0
27, 247440, Note_on_c, 12, 75, 112
27, 247444, Note_on_c, 12, 77, 0
27, 247458, Note_on_c, 12, 75, 0
27, 247560, Note_on_c, 12, 74, 101
27, 247607, Note_on_c, 12, 74, 0
27, 247687, Note_on_c, 12, 81, 127
27, 247802, Note_on_c, 12, 79, 96
27, 247807, Note_on_c, 12, 81, 0
27, 247920, Note_on_c, 12, 77, 107
27, 247922, Note_on_c, 12, 79, 0
27, 247967, Note_on_c, 12, 77, 0
27, 248040, Note_on_c, 12, 75, 114
27, 248087, Note_on_c, 12, 75, 0
27, 248174, Note_on_c, 12, 79, 127
27, 248290, Note_on_c, 12, 77, 109
27, 248294, Note_on_c, 12, 79, 0
27, 248400, Note_on_c, 12, 75, 99
27, 248410, Note_on_c, 12, 77, 0
27, 248418, Note_on_c, 12, 75, 0
27, 248520, Note_on_c, 12, 74, 98
27, 248567, Note_on_c, 12, 74, 0
27, 248644, Note_on_c, 12, 81, 120
27, 248764, Note_on_c, 12, 81, 0
27, 248783, Note_on_c, 12, 79, 99
27, 248880, Note_on_c, 12, 77, 96
27, 248903, Note_on_c, 12, 79, 0
27, 248927, Note_on_c, 12, 77, 0
27, 249000, Note_on_c, 12, 75, 114
27, 249047, Note_on_c, 12, 75, 0
27, 249369, Note_on_c, 12, 63, 98
27, 249382, Note_on_c, 12, 79, 115
27, 249384, Note_on_c, 12, 69, 106
27, 249609, Note_on_c, 12, 63, 0
27, 249622, Note_on_c, 12, 79, 0
27, 249624, Note_on_c, 12, 69, 0
27, 249847, Note_on_c, 12, 63, 106
27, 249852, Note_on_c, 12, 79, 103
27, 249865, Note_on_c, 12, 69, 98
27, 250080, Program_c, 12, 44
27, 250087, Note_on_c, 12, 63, 0
27, 250092, Note_on_c, 12, 79, 0
27, 250094, Note_on_c, 12, 60, 79
27, 250100, Note_on_c, 12, 64, 90
27, 250105, Note_on_c, 12, 69, 0
27, 250322, Note_on_c, 12, 64, 97
27, 250328, Note_on_c, 12, 75, 81
27, 250334, Note_on_c, 12, 60, 0
27, 250340, Note_on_c, 12, 64, 0
27, 250562, Note_on_c, 12, 64, 0
27, 250568, Note_on_c, 12, 75, 0
27, 250577, Note_on_c, 12, 75, 80
27, 250579, Note_on_c, 12, 64, 98
27, 250817, Note_on_c, 12, 75, 0
27, 250817, Note_on_c, 12, 64, 78
27, 250819, Note_on_c, 12, 64, 0
27, 250824, Note_on_c, 12, 75, 89
27, 251052, Note_on_c, 12, 60, 92
27, 251055, Note_on_c, 12, 64, 94
27, 251057, Note_on_c, 12, 64, 0
27, 251064, Note_on_c, 12, 75, 0
27, 251280, Note_on_c, 12, 60, 80
27, 251288, Note_on_c, 12, 64, 79
27, 251292, Note_on_c, 12, 60, 0
27, 251295, Note_on_c, 12, 64, 0
27, 251520, Note_on_c, 12, 60, 0
27, 251528, Note_on_c, 12, 64, 0
27, 251537, Note_on_c, 12, 60, 83
27, 251538, Note_on_c, 12, 64, 83
27, 251770, Note_on_c, 12, 64, 91
27, 251777, Note_on_c, 12, 60, 0
27, 251778, Note_on_c, 12, 64, 0
27, 251779, Note_on_c, 12, 75, 89
27, 252010, Note_on_c, 12, 64, 0
27, 252019, Note_on_c, 12, 75, 0
27, 252022, Note_on_c, 12, 75, 87
27, 252023, Note_on_c, 12, 64, 82
27, 252262, Note_on_c, 12, 75, 0
27, 252263, Note_on_c, 12, 64, 0
27, 252263, Note_on_c, 12, 64, 80
27, 252263, Note_on_c, 12, 75, 97
27, 252489, Note_on_c, 12, 64, 98
27, 252499, Note_on_c, 12, 60, 86
27, 252503, Note_on_c, 12, 64, 0
27, 252503, Note_on_c, 12, 75, 0
27, 252729, Note_on_c, 12, 64, 0
27, 252739, Note_on_c, 12, 60, 0
27, 252743, Note_on_c, 12, 60, 94
27, 252744, Note_on_c, 12, 64, 80
27, 252968, Note_on_c, 12, 60, 85
27, 252983, Note_on_c, 12, 60, 0
27, 252984, Note_on_c, 12, 64, 0
27, 252984, Note_on_c, 12, 64, 94
27, 253207, Note_on_c, 12, 75, 90
27, 253208, Note_on_c, 12, 60, 0
27, 253219, Note_on_c, 12, 64, 95
27, 253224, Note_on_c, 12, 64, 0
27, 253445, Note_on_c, 12, 75, 79
27, 253447, Note_on_c, 12, 75, 0
27, 253457, Note_on_c, 12, 64, 91
27, 253459, Note_on_c, 12, 64, 0
27, 253685, Note_on_c, 12, 75, 0
27, 253697, Note_on_c, 12, 64, 0
27, 253698, Note_on_c, 12, 75, 83
27, 253702, Note_on_c, 12, 64, 83
27, 253935, Note_on_c, 12, 60, 93
27, 253935, Note_on_c, 12, 64, 81
27, 253938, Note_on_c, 12, 75, 0
27, 253942, Note_on_c, 12, 64, 0
27, 254161, Note_on_c, 12, 64, 96
27, 254175, Note_on_c, 12, 60, 0
27, 254175, Note_on_c, 12, 64, 0
27, 254179, Note_on_c, 12, 60, 97
27, 254401, Note_on_c, 12, 64, 0
27, 254419, Note_on_c, 12, 60, 0
27, 254419, Note_on_c, 12, 64, 95
27, 254422, Note_on_c, 12, 60, 82
27, 254652, Note_on_c, 12, 64, 81
27, 254655, Note_on_c, 12, 75, 83
27, 254659, Note_on_c, 12, 64, 0
27, 254662, Note_on_c, 12, 60, 0
27, 254888, Note_on_c, 12, 75, 93
27, 254892, Note_on_c, 12, 64, 0
27, 254895, Note_on_c, 12, 75, 0
27, 254905, Note_on_c, 12, 64, 87
27, 255128, Note_on_c, 12, 75, 0
27, 255135, Note_on_c, 12, 64, 86
27, 255136, Note_on_c, 12, 75, 86
27, 255145, Note_on_c, 12, 64, 0
27, 255375, Note_on_c, 12, 64, 0
27, 255376, Note_on_c, 12, 75, 0
27, 255376, Note_on_c, 12, 64, 78
27, 255377, Note_on_c, 12, 60, 80
27, 255610, Note_on_c, 12, 60, 86
27, 255610, Note_on_c, 12, 64, 81
27, 255616, Note_on_c, 12, 64, 0
27, 255617, Note_on_c, 12, 60, 0
27, 255848, Note_on_c, 12, 64, 93
27, 255850, Note_on_c, 12, 60, 0
27, 255850, Note_on_c, 12, 64, 0
27, 255852, Note_on_c, 12, 60, 97
27, 256088, Note_on_c, 12, 64, 0
27, 256092, Note_on_c, 12, 60, 0
27, 256094, Note_on_c, 12, 75, 98
27, 256096, Note_on_c, 12, 64, 86
27, 256328, Note_on_c, 12, 75, 91
27, 256334, Note_on_c, 12, 75, 0
27, 256336, Note_on_c, 12, 64, 0
27, 256345, Note_on_c, 12, 64, 90
27, 256566, Note_on_c, 12, 64, 95
27, 256568, Note_on_c, 12, 75, 0
27, 256579, Note_on_c, 12, 75, 90
27, 256585, Note_on_c, 12, 64, 0
27, 256806, Note_on_c, 12, 64, 0
27, 256814, Note_on_c, 12, 60, 95
27, 256819, Note_on_c, 12, 75, 0
27, 256823, Note_on_c, 12, 64, 95
27, 257045, Note_on_c, 12, 64, 98
27, 257047, Note_on_c, 12, 60, 98
27, 257054, Note_on_c, 12, 60, 0
27, 257063, Note_on_c, 12, 64, 0
27, 257285, Note_on_c, 12, 64, 0
27, 257287, Note_on_c, 12, 60, 0
27, 257293, Note_on_c, 12, 60, 82
27, 257294, Note_on_c, 12, 64, 79
27, 257522, Note_on_c, 12, 75, 78
27, 257533, Note_on_c, 12, 60, 0
27, 257534, Note_on_c, 12, 64, 0
27, 257539, Note_on_c, 12, 64, 83
27, 257762, Note_on_c, 12, 75, 0
27, 257774, Note_on_c, 12, 64, 85
27, 257778, Note_on_c, 12, 75, 97
27, 257779, Note_on_c, 12, 64, 0
27, 258007, Note_on_c, 12, 75, 79
27, 258014, Note_on_c, 12, 64, 0
27, 258014, Note_on_c, 12, 64, 96
27, 258018, Note_on_c, 12, 75, 0
27, 258242, Note_on_c, 12, 64, 85
27, 258247, Note_on_c, 12, 75, 0
27, 258254, Note_on_c, 12, 64, 0
27, 258261, Note_on_c, 12, 60, 78
27, 258482, Note_on_c, 12, 64, 0
27, 258494, Note_on_c, 12, 64, 83
27, 258501, Note_on_c, 12, 60, 0
27, 258503, Note_on_c, 12, 60, 91
27, 258729, Note_on_c, 12, 60, 96
27, 258734, Note_on_c, 12, 64, 0
27, 258735, Note_on_c, 12, 64, 97
27, 258743, Note_on_c, 12, 60, 0
27, 258969, Note_on_c, 12, 60, 0
27, 258975, Note_on_c, 12, 64, 0
27, 258979, Note_on_c, 12, 64, 86
27, 258983, Note_on_c, 12, 75, 80
27, 259213, Note_on_c, 12, 75, 84
27, 259219, Note_on_c, 12, 64, 0
27, 259220, Note_on_c, 12, 64, 98
27, 259223, Note_on_c, 12, 75, 0
27, 259450, Note_on_c, 12, 75, 92
27, 259453, Note_on_c, 12, 75, 0
27, 259460, Note_on_c, 12, 64, 0
27, 259462, Note_on_c, 12, 64, 91
27, 259690, Note_on_c, 12, 75, 0
27, 259695, Note_on_c, 12, 60, 86
27, 259702, Note_on_c, 12, 64, 0
27, 259703, Note_on_c, 12, 64, 94
27, 259924, Note_on_c, 12, 60, 78
27, 259925, Note_on_c, 12, 64, 80
27, 259935, Note_on_c, 12, 60, 0
27, 259943, Note_on_c, 12, 64, 0
27, 260164, Note_on_c, 12, 60, 0
27, 260165, Note_on_c, 12, 64, 0
27, 260170, Note_on_c, 12, 64, 97
27, 260177, Note_on_c, 12, 60, 90
27, 260410, Note_on_c, 12, 64, 0
27, 260417, Note_on_c, 12, 60, 0
27, 260418, Note_on_c, 12, 64, 83
27, 260418, Note_on_c, 12, 75, 79
27, 260646, Note_on_c, 12, 64, 97
27, 260653, Note_on_c, 12, 75, 78
27, 260658, Note_on_c, 12, 64, 0
27, 260658, Note_on_c, 12, 75, 0
27, 260880, Program_c, 12, 48
27, 260886, Note_on_c, 12, 64, 0
27, 260893, Note_on_c, 12, 75, 0
27, 260902, Note_on_c, 12, 75, 93
27, 260905, Note_on_c, 12, 63, 97
27, 261142, Note_on_c, 12, 75, 0
27, 261145, Note_on_c, 12, 63, 0
27, 263760, Program_c, 12, 44
27, 263766, Note_on_c, 12, 71, 82
27, 264003, Note_on_c, 12, 69, 84
27, 264006, Note_on_c, 12, 71, 0
27, 264243, Note_on_c, 12, 69, 0
27, 264252, Note_on_c, 12, 66, 88
27, 264492, Note_on_c, 12, 66, 0
27, 264492, Note_on_c, 12, 63, 79
27, 264732, Note_on_c, 12, 63, 0
27, 264745, Note_on_c, 12, 60, 93
27, 264975, Note_on_c, 12, 56, 86
27, 264985, Note_on_c, 12, 60, 0
27, 265208, Note_on_c, 12, 71, 80
27, 265215, Note_on_c, 12, 56, 0
27, 265448, Note_on_c, 12, 71, 0
27, 265458, Note_on_c, 12, 69, 96
27, 265698, Note_on_c, 12, 69, 0
27, 265702, Note_on_c, 12, 66, 79
27, 265929, Note_on_c, 12, 63, 79
27, 265942, Note_on_c, 12, 66, 0
27, 266162, Note_on_c, 12, 60, 86
27, 266169, Note_on_c, 12, 63, 0
27, 266402, Note_on_c, 12, 60, 0
27, 266410, Note_on_c, 12, 56, 88
27, 266650, Note_on_c, 12, 56, 0
27, 266888, Note_on_c, 12, 68, 82
27, 267128, Note_on_c, 12, 68, 0
27, 267141, Note_on_c, 12, 69, 80
27, 267360, Program_c, 12, 48
27, 267371, Note_on_c, 12, 70, 92
27, 267381, Note_on_c, 12, 69, 0
27, 267611, Note_on_c, 12, 70, 0
27, 269535, Note_on_c, 12, 78, 83
27, 269615, Note_on_c, 12, 79, 91
27, 269647, Note_on_c, 12, 78, 0
27, 269673, Note_on_c, 12, 78, 94
27, 269727, Note_on_c, 12, 79, 0
27, 269766, Note_on_c, 12, 79, 96
27, 269785, Note_on_c, 12, 78, 0
27, 269824, Note_on_c, 12, 78, 98
27, 269878, Note_on_c, 12, 79, 0
27, 269897, Note_on_c, 12, 79, 90
27, 269936, Note_on_c, 12, 78, 0
27, 269978, Note_on_c, 12, 78, 95
27, 270009, Note_on_c, 12, 79, 0
27, 270068, Note_on_c, 12, 79, 83
27, 270090, Note_on_c, 12, 78, 0
27, 270133, Note_on_c, 12, 78, 96
27, 270180, Note_on_c, 12, 79, 0
27, 270212, Note_on_c, 12, 79, 79
27, 270245, Note_on_c, 12, 78, 0
27, 270292, Note_on_c, 12, 78, 89
27, 270324, Note_on_c, 12, 79, 0
27, 270355, Note_on_c, 12, 79, 86
27, 270404, Note_on_c, 12, 78, 0
27, 270439, Note_on_c, 12, 78, 78
27, 270467, Note_on_c, 12, 79, 0
27, 270517, Note_on_c, 12, 79, 92
27, 270551, Note_on_c, 12, 78, 0
27, 270601, Note_on_c, 12, 78, 79
27, 270629, Note_on_c, 12, 79, 0
27, 270669, Note_on_c, 12, 79, 92
27, 270713, Note_on_c, 12, 78, 0
27, 270727, Note_on_c, 12, 78, 81
27, 270781, Note_on_c, 12, 79, 0
27, 270820, Note_on_c, 12, 79, 96
27, 270839, Note_on_c, 12, 78, 0
27, 270895, Note_on_c, 12, 79, 0
27, 270895, Note_on_c, 12, 78, 85
27, 270945, Note_on_c, 12, 78, 0
27, 270960, Program_c, 12, 44
27, 270962, Note_on_c, 12, 78, 84
27, 271046, Note_on_c, 12, 78, 0
27, 271104, Note_on_c, 12, 78, 89
27, 271188, Note_on_c, 12, 78, 0
27, 271200, Note_on_c, 12, 77, 88
27, 271284, Note_on_c, 12, 77, 0
27, 271323, Note_on_c, 12, 77, 84
27, 271407, Note_on_c, 12, 77, 0
27, 271459, Note_on_c, 12, 76, 86
27, 271543, Note_on_c, 12, 76, 0
27, 271576, Note_on_c, 12, 76, 90
27, 271660, Note_on_c, 12, 76, 0
27, 271680, Program_c, 12, 48
27, 271685, Note_on_c, 12, 75, 85
27, 271853, Note_on_c, 12, 75, 0
27, 274800, Program_c, 12, 44
27, 274802, Note_on_c, 12, 82, 90
27, 274922, Note_on_c, 12, 82, 0
27, 274935, Note_on_c, 12, 82, 85
27, 275055, Note_on_c, 12, 82, 0
27, 275062, Note_on_c, 12, 87, 82
27, 275182, Note_on_c, 12, 87, 0
27, 275184, Note_on_c, 12, 87, 94
27, 275301, Note_on_c, 12, 82, 87
27, 275304, Note_on_c, 12, 87, 0
27, 275407, Note_on_c, 12, 82, 89
27, 275421, Note_on_c, 12, 82, 0
27, 275527, Note_on_c, 12, 82, 0
27, 275541, Note_on_c, 12, 87, 80
27, 275654, Note_on_c, 12, 87, 86
27, 275661, Note_on_c, 12, 87, 0
27, 275764, Note_on_c, 12, 89, 83
27, 275774, Note_on_c, 12, 87, 0
27, 275884, Note_on_c, 12, 89, 0
27, 275889, Note_on_c, 12, 89, 89
27, 276008, Note_on_c, 12, 92, 98
27, 276009, Note_on_c, 12, 89, 0
27, 276127, Note_on_c, 12, 92, 82
27, 276128, Note_on_c, 12, 92, 0
27, 276247, Note_on_c, 12, 92, 0
27, 276252, Note_on_c, 12, 91, 98
27, 276372, Note_on_c, 12, 91, 0
27, 276373, Note_on_c, 12, 91, 90
27, 276487, Note_on_c, 12, 89, 78
27, 276493, Note_on_c, 12, 91, 0
27, 276607, Note_on_c, 12, 89, 0
27, 276609, Note_on_c, 12, 89, 80
27, 276726, Note_on_c, 12, 87, 93
27, 276729, Note_on_c, 12, 89, 0
27, 276846, Note_on_c, 12, 87, 0
27, 276862, Note_on_c, 12, 87, 92
27, 276982, Note_on_c, 12, 87, 0
27, 276985, Note_on_c, 12, 82, 82
27, 277101, Note_on_c, 12, 82, 88
27, 277105, Note_on_c, 12, 82, 0
27, 277221, Note_on_c, 12, 82, 0
27, 278900, Note_on_c, 12, 87, 97
27, 279001, Note_on_c, 12, 87, 94
27, 279020, Note_on_c, 12, 87, 0
27, 279121, Note_on_c, 12, 87, 0
27, 279125, Note_on_c, 12, 92, 92
27, 279245, Note_on_c, 12, 92, 0
27, 279258, Note_on_c, 12, 92, 94
27, 279378, Note_on_c, 12, 92, 0
27, 279380, Note_on_c, 12, 91, 95
27, 279500, Note_on_c, 12, 91, 0
27, 279504, Note_on_c, 12, 91, 83
27, 279618, Note_on_c, 12, 89, 98
27, 279624, Note_on_c, 12, 91, 0
27, 279728, Note_on_c, 12, 89, 91
27, 279738, Note_on_c, 12, 89, 0
27, 279848, Note_on_c, 12, 89, 0
27, 279855, Note_on_c, 12, 87, 78
27, 279964, Note_on_c, 12, 87, 79
27, 279975, Note_on_c, 12, 87, 0
27, 280082, Note_on_c, 12, 82, 98
27, 280084, Note_on_c, 12, 87, 0
27, 280202, Note_on_c, 12, 82, 0
27, 280203, Note_on_c, 12, 82, 81
27, 280323, Note_on_c, 12, 82, 0
27, 280342, Note_on_c, 12, 84, 94
27, 280446, Note_on_c, 12, 84, 98
27, 280462, Note_on_c, 12, 84, 0
27, 280566, Note_on_c, 12, 84, 0
27, 280578, Note_on_c, 12, 87, 90
27, 280698, Note_on_c, 12, 87, 0
27, 280702, Note_on_c, 12, 87, 91
27, 280822, Note_on_c, 12, 87, 0
27, 280823, Note_on_c, 12, 85, 94
27, 280942, Note_on_c, 12, 85, 94
27, 280943, Note_on_c, 12, 85, 0
27, 281050, Note_on_c, 12, 82, 82
27, 281062, Note_on_c, 12, 85, 0
27, 281170, Note_on_c, 12, 82, 0
27, 281185, Note_on_c, 12, 82, 84
27, 281285, Note_on_c, 12, 82, 84
27, 281305, Note_on_c, 12, 82, 0
27, 281401, Note_on_c, 12, 82, 79
27, 281405, Note_on_c, 12, 82, 0
27, 281521, Note_on_c, 12, 82, 0
27, 281537, Note_on_c, 12, 82, 93
27, 281644, Note_on_c, 12, 82, 85
27, 281657, Note_on_c, 12, 82, 0
27, 281764, Note_on_c, 12, 82, 0
27, 283920, Note_on_c, 12, 74, 127
27, 284160, Note_on_c, 12, 74, 0
27, 284163, Note_on_c, 12, 73, 106
27, 284403, Note_on_c, 12, 73, 0
27, 284417, Note_on_c, 12, 72, 110
27, 284657, Note_on_c, 12, 72, 0
27, 284662, Note_on_c, 12, 71, 102
27, 284902, Note_on_c, 12, 71, 0
27, 284905, Note_on_c, 12, 69, 109
27, 285124, Note_on_c, 12, 66, 103
27, 285145, Note_on_c, 12, 69, 0
27, 285364, Note_on_c, 12, 66, 0
27, 285385, Note_on_c, 12, 63, 92
27, 285601, Note_on_c, 12, 60, 105
27, 285625, Note_on_c, 12, 63, 0
27, 285841, Note_on_c, 12, 60, 0
27, 285865, Note_on_c, 12, 56, 106
27, 286089, Note_on_c, 12, 71, 110
27, 286105, Note_on_c, 12, 56, 0
27, 286329, Note_on_c, 12, 71, 0
27, 286332, Note_on_c, 12, 69, 100
27, 286565, Note_on_c, 12, 66, 92
27, 286572, Note_on_c, 12, 69, 0
27, 286800, Note_on_c, 12, 63, 98
27, 286805, Note_on_c, 12, 66, 0
27, 287040, Note_on_c, 12, 63, 0
27, 287056, Note_on_c, 12, 60, 98
27, 287281, Note_on_c, 12, 56, 110
27, 287296, Note_on_c, 12, 60, 0
27, 287521, Note_on_c, 12, 56, 0
27, 287522, Note_on_c, 12, 71, 93
27, 287762, Note_on_c, 12, 71, 0
27, 287776, Note_on_c, 12, 69, 94
27, 288016, Note_on_c, 12, 69, 0
27, 288022, Note_on_c, 12, 66, 91
27, 288258, Note_on_c, 12, 63, 99
27, 288262, Note_on_c, 12, 66, 0
27, 288498, Note_on_c, 12, 63, 0
27, 288502, Note_on_c, 12, 60, 108
27, 288742, Note_on_c, 12, 60, 0
27, 288745, Note_on_c, 12, 56, 91
27, 288961, Note_on_c, 12, 67, 93
27, 288985, Note_on_c, 12, 56, 0
27, 289200, Note_on_c, 12, 68, 101
27, 289201, Note_on_c, 12, 67, 0
27, 289440, Note_on_c, 12, 68, 0
27, 289448, Note_on_c, 12, 69, 99
27, 289688, Note_on_c, 12, 69, 0
27, 289697, Note_on_c, 12, 70, 106
27, 289931, Note_on_c, 12, 71, 92
27, 289937, Note_on_c, 12, 70, 0
27, 290171, Note_on_c, 12, 71, 0
27, 290179, Note_on_c, 12, 72, 107
27, 290419, Note_on_c, 12, 72, 0
27, 290425, Note_on_c, 12, 73, 94
27, 290593, Note_on_c, 12, 73, 0
27, 290659, Note_on_c, 12, 73, 94
27, 290827, Note_on_c, 12, 73, 0
27, 290897, Note_on_c, 12, 73, 94
27, 291065, Note_on_c, 12, 73, 0
27, 291123, Note_on_c, 12, 70, 96
27, 291291, Note_on_c, 12, 70, 0
27, 291364, Note_on_c, 12, 70, 101
27, 291532, Note_on_c, 12, 70, 0
27, 291620, Note_on_c, 12, 70, 97
27, 291788, Note_on_c, 12, 70, 0
27, 291841, Note_on_c, 12, 75, 103
27, 291847, Note_on_c, 12, 73, 104
27, 292081, Note_on_c, 12, 75, 0
27, 292087, Note_on_c, 12, 73, 0
27, 292099, Note_on_c, 12, 76, 103
27, 292102, Note_on_c, 12, 74, 107
27, 292335, Note_on_c, 12, 77, 102
27, 292339, Note_on_c, 12, 76, 0
27, 292340, Note_on_c, 12, 75, 100
27, 292342, Note_on_c, 12, 74, 0
27, 292569, Note_on_c, 12, 76, 110
27, 292575, Note_on_c, 12, 77, 0
27, 292580, Note_on_c, 12, 75, 0
27, 292581, Note_on_c, 12, 78, 95
27, 292809, Note_on_c, 12, 76, 0
27, 292816, Note_on_c, 12, 77, 95
27, 292821, Note_on_c, 12, 78, 0
27, 292821, Note_on_c, 12, 75, 101
27, 293043, Note_on_c, 12, 74, 102
27, 293056, Note_on_c, 12, 77, 0
27, 293061, Note_on_c, 12, 75, 0
27, 293062, Note_on_c, 12, 76, 92
27, 293283, Note_on_c, 12, 74, 0
27, 293283, Note_on_c, 12, 73, 96
27, 293294, Note_on_c, 12, 75, 99
27, 293302, Note_on_c, 12, 76, 0
27, 293451, Note_on_c, 12, 73, 0
27, 293462, Note_on_c, 12, 75, 0
27, 293521, Note_on_c, 12, 73, 96
27, 293530, Note_on_c, 12, 75, 110
27, 293689, Note_on_c, 12, 73, 0
27, 293698, Note_on_c, 12, 75, 0
27, 293778, Note_on_c, 12, 73, 99
27, 293782, Note_on_c, 12, 75, 100
27, 293946, Note_on_c, 12, 73, 0
27, 293950, Note_on_c, 12, 75, 0
27, 294011, Note_on_c, 12, 75, 111
27, 294019, Note_on_c, 12, 67, 92
27, 294020, Note_on_c, 12, 73, 101
27, 294106, Note_on_c, 12, 75, 0
27, 294114, Note_on_c, 12, 67, 0
27, 294115, Note_on_c, 12, 73, 0
27, 296880, Program_c, 12, 45
27, 296905, Note_on_c, 12, 72, 105
27, 297121, Note_on_c, 12, 76, 100
27, 297145, Note_on_c, 12, 72, 0
27, 297361, Note_on_c, 12, 76, 0
27, 297366, Note_on_c, 12, 79, 94
27, 297606, Note_on_c, 12, 79, 0
27, 297625, Note_on_c, 12, 82, 101
27, 297840, Note_on_c, 12, 85, 93
27, 297865, Note_on_c, 12, 82, 0
27, 298080, Note_on_c, 12, 85, 0
27, 298092, Note_on_c, 12, 90, 111
27, 298320, Program_c, 10, 48
27, 298323, Note_on_c, 10, 79, 96
27, 298332, Note_on_c, 12, 90, 0
27, 298407, Note_on_c, 10, 79, 0
27, 298447, Note_on_c, 10, 76, 98
27, 298531, Note_on_c, 10, 76, 0
27, 298580, Note_on_c, 10, 82, 107
27, 298664, Note_on_c, 10, 82, 0
27, 298688, Note_on_c, 10, 79, 92
27, 298772, Note_on_c, 10, 79, 0
27, 298802, Note_on_c, 10, 79, 93
27, 298886, Note_on_c, 10, 79, 0
27, 298927, Note_on_c, 10, 76, 100
27, 299011, Note_on_c, 10, 76, 0
27, 299044, Note_on_c, 10, 76, 104
27, 299055, Note_on_c, 10, 72, 91
27, 299128, Note_on_c, 10, 76, 0
27, 299139, Note_on_c, 10, 72, 0
27, 299168, Note_on_c, 10, 73, 97
27, 299252, Note_on_c, 10, 73, 0
27, 299284, Note_on_c, 10, 73, 94
27, 299299, Note_on_c, 10, 70, 109
27, 299368, Note_on_c, 10, 73, 0
27, 299383, Note_on_c, 10, 70, 0
27, 299406, Note_on_c, 10, 70, 101
27, 299490, Note_on_c, 10, 70, 0
27, 299523, Note_on_c, 10, 70, 110
27, 299607, Note_on_c, 10, 70, 0
27, 299650, Note_on_c, 10, 67, 103
27, 299734, Note_on_c, 10, 67, 0
27, 299763, Note_on_c, 10, 79, 106
27, 299770, Note_on_c, 10, 82, 94
27, 299847, Note_on_c, 10, 79, 0
27, 299854, Note_on_c, 10, 82, 0
27, 299896, Note_on_c, 10, 79, 99
27, 299980, Note_on_c, 10, 79, 0
27, 300014, Note_on_c, 10, 82, 108
27, 300022, Note_on_c, 10, 85, 102
27, 300098, Note_on_c, 10, 82, 0
27, 300106, Note_on_c, 10, 85, 0
27, 300131, Note_on_c, 10, 82, 95
27, 300215, Note_on_c, 10, 82, 0
27, 300248, Note_on_c, 10, 79, 106
27, 300255, Note_on_c, 10, 82, 101
27, 300332, Note_on_c, 10, 79, 0
27, 300339, Note_on_c, 10, 82, 0
27, 300371, Note_on_c, 10, 79, 101
27, 300455, Note_on_c, 10, 79, 0
27, 300483, Note_on_c, 10, 76, 95
27, 300491, Note_on_c, 10, 79, 106
27, 300567, Note_on_c, 10, 76, 0
27, 300575, Note_on_c, 10, 79, 0
27, 300625, Note_on_c, 10, 76, 106
27, 300709, Note_on_c, 10, 76, 0
27, 300728, Note_on_c, 10, 76, 111
27, 300743, Note_on_c, 10, 73, 103
27, 300812, Note_on_c, 10, 76, 0
27, 300827, Note_on_c, 10, 73, 0
27, 300841, Note_on_c, 10, 73, 106
27, 300925, Note_on_c, 10, 73, 0
27, 300970, Note_on_c, 10, 70, 93
27, 300983, Note_on_c, 10, 73, 100
27, 301054, Note_on_c, 10, 70, 0
27, 301067, Note_on_c, 10, 73, 0
27, 301092, Note_on_c, 10, 70, 111
27, 301212, Note_on_c, 10, 70, 0
27, 301219, Note_on_c, 10, 85, 91
27, 301303, Note_on_c, 10, 85, 0
27, 301324, Note_on_c, 10, 82, 93
27, 301408, Note_on_c, 10, 82, 0
27, 301462, Note_on_c, 10, 88, 92
27, 301546, Note_on_c, 10, 88, 0
27, 301562, Note_on_c, 10, 85, 92
27, 301646, Note_on_c, 10, 85, 0
27, 301695, Note_on_c, 10, 85, 94
27, 301779, Note_on_c, 10, 85, 0
27, 301808, Note_on_c, 10, 82, 95
27, 301892, Note_on_c, 10, 82, 0
27, 301921, Note_on_c, 10, 82, 106
27, 302005, Note_on_c, 10, 82, 0
27, 302057, Note_on_c, 10, 79, 93
27, 302141, Note_on_c, 10, 79, 0
27, 302168, Note_on_c, 10, 79, 94
27, 302252, Note_on_c, 10, 79, 0
27, 302288, Note_on_c, 10, 76, 107
27, 302372, Note_on_c, 10, 76, 0
27, 302400, Note_on_c, 10, 76, 100
27, 302484, Note_on_c, 10, 76, 0
27, 302539, Note_on_c, 10, 73, 104
27, 302623, Note_on_c, 10, 73, 0
27, 302642, Note_on_c, 10, 73, 110
27, 302882, Note_on_c, 10, 73, 0
27, 304099, Note_on_c, 10, 82, 89
27, 304194, Note_on_c, 10, 82, 0
27, 304585, Note_on_c, 10, 82, 86
27, 304680, Note_on_c, 10, 82, 0
27, 305520, Program_c, 12, 48
27, 305522, Note_on_c, 12, 78, 108
27, 305593, Note_on_c, 12, 78, 0
27, 305775, Note_on_c, 12, 80, 92
27, 305846, Note_on_c, 12, 80, 0
27, 306012, Note_on_c, 12, 78, 106
27, 306083, Note_on_c, 12, 78, 0
27, 306260, Note_on_c, 12, 80, 100
27, 306331, Note_on_c, 12, 80, 0
27, 306480, Note_on_c, 12, 75, 96
27, 306551, Note_on_c, 12, 75, 0
27, 306729, Note_on_c, 12, 77, 93
27, 306800, Note_on_c, 12, 77, 0
27, 306984, Note_on_c, 12, 75, 97
27, 307055, Note_on_c, 12, 75, 0
27, 307202, Note_on_c, 12, 72, 108
27, 307273, Note_on_c, 12, 72, 0
27, 307451, Note_on_c, 12, 75, 111
27, 307522, Note_on_c, 12, 75, 0
27, 307683, Note_on_c, 12, 72, 105
27, 307754, Note_on_c, 12, 72, 0
27, 307937, Note_on_c, 12, 77, 108
27, 308008, Note_on_c, 12, 77, 0
27, 308167, Note_on_c, 12, 75, 103
27, 308238, Note_on_c, 12, 75, 0
27, 308422, Note_on_c, 12, 80, 102
27, 308493, Note_on_c, 12, 80, 0
27, 308665, Note_on_c, 12, 78, 108
27, 308736, Note_on_c, 12, 78, 0
27, 311046, Note_on_c, 12, 77, 92
27, 311117, Note_on_c, 12, 77, 0
27, 311302, Note_on_c, 12, 79, 104
27, 311373, Note_on_c, 12, 79, 0
27, 311520, Note_on_c, 12, 77, 101
27, 311591, Note_on_c, 12, 77, 0
27, 311780, Note_on_c, 12, 79, 97
27, 311851, Note_on_c, 12, 79, 0
27, 312024, Note_on_c, 12, 74, 98
27, 312095, Note_on_c, 12, 74, 0
27, 312261, Note_on_c, 12, 76, 94
27, 312332, Note_on_c, 12, 76, 0
27, 312494, Note_on_c, 12, 71, 96
27, 312565, Note_on_c, 12, 71, 0
27, 312730, Note_on_c, 12, 74, 93
27, 312801, Note_on_c, 12, 74, 0
27, 312968, Note_on_c, 12, 71, 110
27, 313039, Note_on_c, 12, 71, 0
27, 313224, Note_on_c, 12, 76, 101
27, 313295, Note_on_c, 12, 76, 0
27, 313447, Note_on_c, 12, 74, 95
27, 313518, Note_on_c, 12, 74, 0
27, 313688, Note_on_c, 12, 79, 98
27, 313759, Note_on_c, 12, 79, 0
27, 314160, Program_c, 12, 44
27, 314162, Note_on_c, 12, 72, 45
27, 314330, Note_on_c, 12, 72, 0
27, 314419, Note_on_c, 12, 72, 55
27, 314587, Note_on_c, 12, 72, 0
27, 314649, Note_on_c, 12, 72, 62
27, 314817, Note_on_c, 12, 72, 0
27, 314887, Note_on_c, 12, 72, 56
27, 315055, Note_on_c, 12, 72, 0
27, 315131, Note_on_c, 12, 72, 63
27, 315299, Note_on_c, 12, 72, 0
27, 315625, Note_on_c, 12, 72, 58
27, 315793, Note_on_c, 12, 72, 0
27, 315844, Note_on_c, 12, 72, 49
27, 316012, Note_on_c, 12, 72, 0
27, 316102, Note_on_c, 12, 72, 67
27, 316270, Note_on_c, 12, 72, 0
27, 316335, Note_on_c, 12, 72, 69
27, 316503, Note_on_c, 12, 72, 0
27, 316568, Note_on_c, 12, 72, 67
27, 316736, Note_on_c, 12, 72, 0
27, 317044, Note_on_c, 12, 72, 72
27, 317212, Note_on_c, 12, 72, 0
27, 317300, Note_on_c, 12, 72, 58
27, 317468, Note_on_c, 12, 72, 0
27, 317524, Note_on_c, 12, 72, 74
27, 317692, Note_on_c, 12, 72, 0
27, 317762, Note_on_c, 12, 72, 75
27, 317930, Note_on_c, 12, 72, 0
27, 318000, Note_on_c, 12, 72, 77
27, 318168, Note_on_c, 12, 72, 0
27, 318500, Note_on_c, 12, 72, 74
27, 318668, Note_on_c, 12, 72, 0
27, 318737, Note_on_c, 12, 72, 68
27, 318905, Note_on_c, 12, 72, 0
27, 318978, Note_on_c, 12, 72, 77
27, 319146, Note_on_c, 12, 72, 0
27, 319200, Note_on_c, 12, 72, 65
27, 319368, Note_on_c, 12, 72, 0
27, 319449, Note_on_c, 12, 72, 69
27, 319617, Note_on_c, 12, 72, 0
27, 319945, Note_on_c, 12, 72, 76
27, 320113, Note_on_c, 12, 72, 0
27, 320184, Note_on_c, 12, 72, 78
27, 320352, Note_on_c, 12, 72, 0
27, 320403, Note_on_c, 12, 72, 88
27, 320907, Note_on_c, 12, 72, 0
27, 321128, Note_on_c, 12, 72, 92
27, 321632, Note_on_c, 12, 72, 0
27, 321854, Note_on_c, 12, 72, 83
27, 322358, Note_on_c, 12, 72, 0
27, 322564, Note_on_c, 12, 72, 87
27, 323068, Note_on_c, 12, 72, 0
27, 323286, Note_on_c, 12, 72, 88
27, 323790, Note_on_c, 12, 72, 0
27, 324001, Note_on_c, 12, 78, 106
27, 324480, Program_c, 12, 48
27, 324481, Note_on_c, 12, 78, 0
27, 324505, Note_on_c, 12, 78, 110
27, 324567, Note_on_c, 12, 80, 95
27, 324585, Note_on_c, 12, 78, 0
27, 324646, Note_on_c, 12, 80, 0
27, 324662, Note_on_c, 12, 82, 100
27, 324720, Program_c, 12, 44
27, 324741, Note_on_c, 12, 84, 102
27, 324742, Note_on_c, 12, 82, 0
27, 325461, Note_on_c, 12, 84, 0
27, 325463, Note_on_c, 12, 81, 105
27, 326161, Note_on_c, 12, 78, 102
27, 326183, Note_on_c, 12, 81, 0
27, 326881, Note_on_c, 12, 78, 0
27, 326886, Note_on_c, 12, 75, 110
27, 327606, Note_on_c, 12, 75, 0
27, 327617, Note_on_c, 12, 81, 106
27, 328337, Note_on_c, 12, 81, 0
27, 328337, Note_on_c, 12, 74, 94
27, 329052, Note_on_c, 12, 75, 98
27, 329057, Note_on_c, 12, 74, 0
27, 329772, Note_on_c, 12, 75, 0
27, 329779, Note_on_c, 12, 68, 110
27, 330495, Note_on_c, 12, 69, 95
27, 330499, Note_on_c, 12, 68, 0
27, 331215, Note_on_c, 12, 69, 0
27, 338640, Program_c, 12, 48
27, 339855, Note_on_c, 12, 80, 86
27, 339864, Note_on_c, 12, 69, 91
27, 339998, Note_on_c, 12, 80, 0
27, 340007, Note_on_c, 12, 69, 0
27, 340320, Program_c, 12, 44
27, 340337, Note_on_c, 12, 60, 56
27, 340568, Note_on_c, 12, 64, 75
27, 340577, Note_on_c, 12, 60, 0
27, 340808, Note_on_c, 12, 64, 0
27, 340808, Note_on_c, 12, 67, 85
27, 341048, Note_on_c, 12, 67, 0
27, 341050, Note_on_c, 12, 72, 93
27, 341288, Note_on_c, 12, 70, 76
27, 341290, Note_on_c, 12, 72, 0
27, 341528, Note_on_c, 12, 70, 0
27, 341529, Note_on_c, 12, 67, 54
27, 341769, Note_on_c, 12, 67, 0
27, 341771, Note_on_c, 12, 60, 58
27, 342001, Note_on_c, 12, 64, 86
27, 342011, Note_on_c, 12, 60, 0
27, 342241, Note_on_c, 12, 64, 0
27, 342257, Note_on_c, 12, 67, 93
27, 342497, Note_on_c, 12, 67, 0
27, 342501, Note_on_c, 12, 72, 98
27, 342739, Note_on_c, 12, 70, 74
27, 342741, Note_on_c, 12, 72, 0
27, 342979, Note_on_c, 12, 70, 0
27, 342982, Note_on_c, 12, 67, 73
27, 343222, Note_on_c, 12, 67, 0
27, 343222, Note_on_c, 12, 60, 63
27, 343450, Note_on_c, 12, 64, 76
27, 343462, Note_on_c, 12, 60, 0
27, 343684, Note_on_c, 12, 67, 100
27, 343690, Note_on_c, 12, 64, 0
27, 343924, Note_on_c, 12, 67, 0
27, 343936, Note_on_c, 12, 72, 90
27, 344168, Note_on_c, 12, 70, 74
27, 344176, Note_on_c, 12, 72, 0
27, 344408, Note_on_c, 12, 70, 0
27, 344411, Note_on_c, 12, 67, 63
27, 344651, Note_on_c, 12, 67, 0
27, 344660, Note_on_c, 12, 60, 64
27, 344900, Note_on_c, 12, 60, 0
27, 344902, Note_on_c, 12, 64, 75
27, 345132, Note_on_c, 12, 67, 87
27, 345142, Note_on_c, 12, 64, 0
27, 345364, Note_on_c, 12, 72, 96
27, 345372, Note_on_c, 12, 67, 0
27, 345604, Note_on_c, 12, 72, 0
27, 345621, Note_on_c, 12, 70, 88
27, 345861, Note_on_c, 12, 70, 0
27, 345862, Note_on_c, 12, 67, 68
27, 346097, Note_on_c, 12, 80, 86
27, 346102, Note_on_c, 12, 67, 0
27, 346105, Note_on_c, 12, 69, 85
27, 346240, Note_on_c, 12, 80, 0
27, 346248, Note_on_c, 12, 69, 0
27, 346575, Note_on_c, 12, 60, 60
27, 346815, Note_on_c, 12, 60, 0
27, 346815, Note_on_c, 12, 64, 73
27, 347055, Note_on_c, 12, 64, 0
27, 347062, Note_on_c, 12, 67, 92
27, 347298, Note_on_c, 12, 72, 86
27, 347302, Note_on_c, 12, 67, 0
27, 347538, Note_on_c, 12, 72, 0
27, 347542, Note_on_c, 12, 70, 83
27, 347782, Note_on_c, 12, 70, 0
27, 347783, Note_on_c, 12, 67, 72
27, 348002, Note_on_c, 12, 80, 91
27, 348023, Note_on_c, 12, 67, 0
27, 348023, Note_on_c, 12, 69, 98
27, 348145, Note_on_c, 12, 80, 0
27, 348166, Note_on_c, 12, 69, 0
27, 348488, Note_on_c, 12, 69, 88
27, 348495, Note_on_c, 12, 80, 104
27, 348631, Note_on_c, 12, 69, 0
27, 348638, Note_on_c, 12, 80, 0
27, 348982, Note_on_c, 12, 60, 70
27, 349218, Note_on_c, 12, 64, 79
27, 349222, Note_on_c, 12, 60, 0
27, 349458, Note_on_c, 12, 64, 0
27, 349460, Note_on_c, 12, 67, 105
27, 349686, Note_on_c, 12, 72, 88
27, 349700, Note_on_c, 12, 67, 0
27, 349925, Note_on_c, 12, 70, 69
27, 349926, Note_on_c, 12, 72, 0
27, 350165, Note_on_c, 12, 70, 0
27, 350172, Note_on_c, 12, 67, 61
27, 350412, Note_on_c, 12, 67, 0
27, 350412, Note_on_c, 12, 60, 61
27, 350652, Note_on_c, 12, 60, 0
27, 350665, Note_on_c, 12, 64, 83
27, 350888, Note_on_c, 12, 67, 86
27, 350905, Note_on_c, 12, 64, 0
27, 351128, Note_on_c, 12, 67, 0
27, 351145, Note_on_c, 12, 72, 85
27, 351366, Note_on_c, 12, 70, 82
27, 351385, Note_on_c, 12, 72, 0
27, 351601, Note_on_c, 12, 67, 71
27, 351606, Note_on_c, 12, 70, 0
27, 351841, Note_on_c, 12, 67, 0
27, 352331, Note_on_c, 12, 69, 99
27, 352344, Note_on_c, 12, 80, 101
27, 352474, Note_on_c, 12, 69, 0
27, 352487, Note_on_c, 12, 80, 0
27, 352801, Note_on_c, 12, 60, 54
27, 353041, Note_on_c, 12, 60, 0
27, 353044, Note_on_c, 12, 64, 80
27, 353280, Note_on_c, 12, 67, 86
27, 353284, Note_on_c, 12, 64, 0
27, 353520, Note_on_c, 12, 67, 0
27, 353536, Note_on_c, 12, 72, 85
27, 353767, Note_on_c, 12, 70, 70
27, 353776, Note_on_c, 12, 72, 0
27, 354003, Note_on_c, 12, 67, 65
27, 354007, Note_on_c, 12, 70, 0
27, 354243, Note_on_c, 12, 67, 0
27, 354258, Note_on_c, 12, 76, 107
27, 354361, Note_on_c, 12, 75, 107
27, 354438, Note_on_c, 12, 76, 0
27, 354481, Note_on_c, 12, 76, 91
27, 354541, Note_on_c, 12, 75, 0
27, 354625, Note_on_c, 12, 75, 101
27, 354661, Note_on_c, 12, 76, 0
27, 354737, Note_on_c, 12, 76, 106
27, 354805, Note_on_c, 12, 75, 0
27, 354843, Note_on_c, 12, 75, 96
27, 354917, Note_on_c, 12, 76, 0
27, 354984, Note_on_c, 12, 76, 105
27, 355023, Note_on_c, 12, 75, 0
27, 355097, Note_on_c, 12, 75, 101
27, 355164, Note_on_c, 12, 76, 0
27, 355221, Note_on_c, 12, 76, 97
27, 355277, Note_on_c, 12, 75, 0
27, 355336, Note_on_c, 12, 75, 111
27, 355401, Note_on_c, 12, 76, 0
27, 355460, Note_on_c, 12, 76, 95
27, 355516, Note_on_c, 12, 75, 0
27, 355584, Note_on_c, 12, 75, 99
27, 355640, Note_on_c, 12, 76, 0
27, 355682, Note_on_c, 12, 76, 99
27, 355764, Note_on_c, 12, 75, 0
27, 355814, Note_on_c, 12, 75, 97
27, 355862, Note_on_c, 12, 76, 0
27, 355939, Note_on_c, 12, 76, 111
27, 355994, Note_on_c, 12, 75, 0
27, 356050, Note_on_c, 12, 75, 96
27, 356119, Note_on_c, 12, 76, 0
27, 356173, Note_on_c, 12, 76, 111
27, 356230, Note_on_c, 12, 75, 0
27, 356302, Note_on_c, 12, 75, 91
27, 356353, Note_on_c, 12, 76, 0
27, 356425, Note_on_c, 12, 76, 111
27, 356482, Note_on_c, 12, 75, 0
27, 356530, Note_on_c, 12, 75, 93
27, 356605, Note_on_c, 12, 76, 0
27, 356657, Note_on_c, 12, 76, 102
27, 356710, Note_on_c, 12, 75, 0
27, 356781, Note_on_c, 12, 75, 91
27, 356837, Note_on_c, 12, 76, 0
27, 356893, Note_on_c, 12, 76, 107
27, 356961, Note_on_c, 12, 75, 0
27, 357013, Note_on_c, 12, 75, 105
27, 357073, Note_on_c, 12, 76, 0
27, 357138, Note_on_c, 12, 76, 99
27, 357193, Note_on_c, 12, 75, 0
27, 357245, Note_on_c, 12, 75, 111
27, 357318, Note_on_c, 12, 76, 0
27, 357380, Note_on_c, 12, 76, 101
27, 357425, Note_on_c, 12, 75, 0
27, 357484, Note_on_c, 12, 75, 98
27, 357560, Note_on_c, 12, 76, 0
27, 357614, Note_on_c, 12, 76, 99
27, 357664, Note_on_c, 12, 75, 0
27, 357730, Note_on_c, 12, 75, 103
27, 357794, Note_on_c, 12, 76, 0
27, 357840, Note_on_c, 12, 76, 104
27, 357910, Note_on_c, 12, 75, 0
27, 357963, Note_on_c, 12, 75, 95
27, 358020, Note_on_c, 12, 76, 0
27, 358083, Note_on_c, 12, 76, 102
27, 358143, Note_on_c, 12, 75, 0
27, 358189, Note_on_c, 12, 76, 0
27, 378720, Program_c, 12, 49
27, 379202, Note_on_c, 12, 58, 83
27, 379216, Note_on_c, 12, 65, 78
27, 379562, Note_on_c, 12, 58, 0
27, 379576, Note_on_c, 12, 65, 0
27, 379681, Note_on_c, 12, 58, 69
27, 379687, Note_on_c, 12, 65, 72
27, 380041, Note_on_c, 12, 58, 0
27, 380047, Note_on_c, 12, 65, 0
27, 380161, Note_on_c, 12, 65, 71
27, 380175, Note_on_c, 12, 58, 75
27, 380521, Note_on_c, 12, 65, 0
27, 380535, Note_on_c, 12, 58, 0
27, 381134, Note_on_c, 12, 58, 81
27, 381141, Note_on_c, 12, 65, 70
27, 381494, Note_on_c, 12, 58, 0
27, 381501, Note_on_c, 12, 65, 0
27, 381606, Note_on_c, 12, 65, 69
27, 381623, Note_on_c, 12, 58, 66
27, 381966, Note_on_c, 12, 65, 0
27, 381983, Note_on_c, 12, 58, 0
27, 382087, Note_on_c, 12, 58, 72
27, 382096, Note_on_c, 12, 65, 76
27, 382447, Note_on_c, 12, 58, 0
27, 382456, Note_on_c, 12, 65, 0
27, 383053, Note_on_c, 12, 58, 83
27, 383057, Note_on_c, 12, 65, 77
27, 383413, Note_on_c, 12, 58, 0
27, 383417, Note_on_c, 12, 65, 0
27, 383521, Note_on_c, 12, 65, 65
27, 383540, Note_on_c, 12, 58, 79
27, 383881, Note_on_c, 12, 65, 0
27, 383900, Note_on_c, 12, 58, 0
27, 384017, Note_on_c, 12, 65, 79
27, 384022, Note_on_c, 12, 58, 83
27, 384377, Note_on_c, 12, 65, 0
27, 384382, Note_on_c, 12, 58, 0
27, 386882, Note_on_c, 12, 65, 79
27, 386900, Note_on_c, 12, 58, 84
27, 387242, Note_on_c, 12, 65, 0
27, 387260, Note_on_c, 12, 58, 0
27, 387380, Note_on_c, 12, 58, 76
27, 387385, Note_on_c, 12, 65, 79
27, 387740, Note_on_c, 12, 58, 0
27, 387745, Note_on_c, 12, 65, 0
27, 387844, Note_on_c, 12, 58, 75
27, 387862, Note_on_c, 12, 65, 75
27, 388204, Note_on_c, 12, 58, 0
27, 388222, Note_on_c, 12, 65, 0
27, 388811, Note_on_c, 12, 58, 79
27, 388823, Note_on_c, 12, 65, 80
27, 389171, Note_on_c, 12, 58, 0
27, 389183, Note_on_c, 12, 65, 0
27, 389282, Note_on_c, 12, 65, 72
27, 389298, Note_on_c, 12, 58, 84
27, 389642, Note_on_c, 12, 65, 0
27, 389658, Note_on_c, 12, 58, 0
27, 389776, Note_on_c, 12, 58, 71
27, 389783, Note_on_c, 12, 65, 83
27, 390136, Note_on_c, 12, 58, 0
27, 390143, Note_on_c, 12, 65, 0
27, 415679, Control_c, 12, 7, 108
27, 415680, Program_c, 12, 49
27, 416164, Note_on_c, 12, 58, 70
27, 416171, Note_on_c, 12, 65, 74
27, 416524, Note_on_c, 12, 58, 0
27, 416531, Note_on_c, 12, 65, 0
27, 416648, Note_on_c, 12, 58, 74
27, 416659, Note_on_c, 12, 65, 76
27, 417008, Note_on_c, 12, 58, 0
27, 417019, Note_on_c, 12, 65, 0
27, 417140, Note_on_c, 12, 58, 82
27, 417144, Note_on_c, 12, 65, 79
27, 417500, Note_on_c, 12, 58, 0
27, 417504, Note_on_c, 12, 65, 0
27, 418090, Note_on_c, 12, 65, 84
27, 418101, Note_on_c, 12, 58, 75
27, 418450, Note_on_c, 12, 65, 0
27, 418461, Note_on_c, 12, 58, 0
27, 418566, Note_on_c, 12, 58, 73
27, 418583, Note_on_c, 12, 65, 75
27, 418926, Note_on_c, 12, 58, 0
27, 418943, Note_on_c, 12, 65, 0
27, 419044, Note_on_c, 12, 58, 75
27, 419061, Note_on_c, 12, 65, 65
27, 419404, Note_on_c, 12, 58, 0
27, 419421, Note_on_c, 12, 65, 0
27, 421926, Note_on_c, 12, 58, 84
27, 421944, Note_on_c, 12, 65, 68
27, 422286, Note_on_c, 12, 58, 0
27, 422304, Note_on_c, 12, 65, 0
27, 422402, Note_on_c, 12, 65, 67
27, 422403, Note_on_c, 12, 58, 82
27, 422762, Note_on_c, 12, 65, 0
27, 422763, Note_on_c, 12, 58, 0
27, 422900, Note_on_c, 12, 65, 77
27, 422901, Note_on_c, 12, 58, 71
27, 423260, Note_on_c, 12, 65, 0
27, 423261, Note_on_c, 12, 58, 0
27, 427220, Note_on_c, 12, 78, 99
27, 427580, Note_on_c, 12, 78, 0
27, 427704, Note_on_c, 12, 78, 107
27, 428064, Note_on_c, 12, 78, 0
27, 428172, Note_on_c, 12, 78, 102
27, 428532, Note_on_c, 12, 78, 0
27, 428659, Note_on_c, 12, 80, 108
27, 428890, Note_on_c, 12, 82, 96
27, 428899, Note_on_c, 12, 80, 0
27, 429130, Note_on_c, 12, 82, 0
27, 429145, Note_on_c, 12, 84, 96
27, 429608, Note_on_c, 12, 82, 94
27, 429625, Note_on_c, 12, 84, 0
27, 430084, Note_on_c, 12, 80, 102
27, 430088, Note_on_c, 12, 82, 0
27, 430563, Note_on_c, 12, 78, 105
27, 430564, Note_on_c, 12, 80, 0
27, 430923, Note_on_c, 12, 78, 0
27, 431065, Note_on_c, 12, 78, 108
27, 431425, Note_on_c, 12, 78, 0
27, 431522, Note_on_c, 12, 80, 110
27, 431762, Note_on_c, 12, 80, 0
27, 431780, Note_on_c, 12, 82, 107
27, 432006, Note_on_c, 12, 84, 103
27, 432020, Note_on_c, 12, 82, 0
27, 432486, Note_on_c, 12, 84, 0
27, 432487, Note_on_c, 12, 78, 94
27, 432847, Note_on_c, 12, 78, 0
27, 432980, Note_on_c, 12, 78, 110
27, 433340, Note_on_c, 12, 78, 0
27, 433450, Note_on_c, 12, 78, 94
27, 433810, Note_on_c, 12, 78, 0
27, 433941, Note_on_c, 12, 80, 100
27, 434175, Note_on_c, 12, 82, 95
27, 434181, Note_on_c, 12, 80, 0
27, 434415, Note_on_c, 12, 82, 0
27, 434422, Note_on_c, 12, 84, 100
27, 434902, Note_on_c, 12, 84, 0
27, 435382, Note_on_c, 12, 78, 92
27, 435742, Note_on_c, 12, 78, 0
27, 435851, Note_on_c, 12, 78, 94
27, 436211, Note_on_c, 12, 78, 0
27, 436330, Note_on_c, 12, 78, 108
27, 436690, Note_on_c, 12, 78, 0
27, 436806, Note_on_c, 12, 78, 104
27, 436814, Note_on_c, 12, 70, 102
27, 436818, Note_on_c, 12, 66, 114
27, 437166, Note_on_c, 12, 78, 0
27, 437174, Note_on_c, 12, 70, 0
27, 437178, Note_on_c, 12, 66, 0
27, 437280, Note_on_c, 12, 70, 106
27, 437296, Note_on_c, 12, 66, 99
27, 437298, Note_on_c, 12, 78, 102
27, 437640, Note_on_c, 12, 70, 0
27, 437656, Note_on_c, 12, 66, 0
27, 437658, Note_on_c, 12, 78, 0
27, 437761, Note_on_c, 12, 78, 107
27, 437783, Note_on_c, 12, 66, 112
27, 437785, Note_on_c, 12, 70, 102
27, 438121, Note_on_c, 12, 78, 0
27, 438143, Note_on_c, 12, 66, 0
27, 438145, Note_on_c, 12, 70, 0
27, 438725, Note_on_c, 12, 80, 112
27, 439085, Note_on_c, 12, 80, 0
27, 439210, Note_on_c, 12, 80, 121
27, 439570, Note_on_c, 12, 80, 0
27, 439701, Note_on_c, 12, 80, 124
27, 440061, Note_on_c, 12, 80, 0
27, 440172, Note_on_c, 12, 80, 109
27, 440412, Note_on_c, 12, 80, 0
27, 440422, Note_on_c, 12, 82, 113
27, 440647, Note_on_c, 12, 84, 106
27, 440662, Note_on_c, 12, 82, 0
27, 442082, Note_on_c, 12, 80, 112
27, 442087, Note_on_c, 12, 84, 0
27, 442442, Note_on_c, 12, 80, 0
27, 442573, Note_on_c, 12, 80, 124
27, 442933, Note_on_c, 12, 80, 0
27, 443049, Note_on_c, 12, 80, 105
27, 443409, Note_on_c, 12, 80, 0
27, 443527, Note_on_c, 12, 80, 114
27, 443767, Note_on_c, 12, 80, 0
27, 443769, Note_on_c, 12, 82, 121
27, 444009, Note_on_c, 12, 82, 0
27, 444011, Note_on_c, 12, 84, 110
27, 444491, Note_on_c, 12, 84, 0
27, 444498, Note_on_c, 12, 80, 123
27, 444724, Note_on_c, 12, 82, 121
27, 444738, Note_on_c, 12, 80, 0
27, 444964, Note_on_c, 12, 82, 0
27, 444976, Note_on_c, 12, 84, 113
27, 445454, Note_on_c, 12, 78, 113
27, 445456, Note_on_c, 12, 84, 0
27, 445814, Note_on_c, 12, 78, 0
27, 445927, Note_on_c, 12, 78, 111
27, 446287, Note_on_c, 12, 78, 0
27, 446425, Note_on_c, 12, 80, 105
27, 446643, Note_on_c, 12, 82, 122
27, 446665, Note_on_c, 12, 80, 0
27, 446883, Note_on_c, 12, 82, 0
27, 446896, Note_on_c, 12, 84, 107
27, 447376, Note_on_c, 12, 84, 0
27, 448800, Program_c, 12, 48
27, 448806, Note_on_c, 12, 60, 95
27, 448820, Note_on_c, 12, 75, 101
27, 448823, Note_on_c, 12, 63, 96
27, 448926, Note_on_c, 12, 60, 0
27, 448940, Note_on_c, 12, 75, 0
27, 448943, Note_on_c, 12, 63, 0
27, 449160, Note_on_c, 12, 60, 113
27, 449190, Note_on_c, 12, 60, 0
27, 449190, Note_on_c, 12, 62, 111
27, 449220, Note_on_c, 12, 62, 0
27, 449220, Note_on_c, 12, 63, 108
27, 449250, Note_on_c, 12, 63, 0
27, 449250, Note_on_c, 12, 65, 106
27, 449280, Note_on_c, 12, 65, 0
27, 449280, Program_c, 12, 44
27, 449292, Note_on_c, 12, 67, 87
27, 449532, Note_on_c, 12, 67, 0
27, 449532, Note_on_c, 12, 72, 90
27, 449764, Note_on_c, 12, 74, 78
27, 449772, Note_on_c, 12, 72, 0
27, 450004, Note_on_c, 12, 74, 0
27, 450011, Note_on_c, 12, 79, 79
27, 450247, Note_on_c, 12, 77, 95
27, 450251, Note_on_c, 12, 79, 0
27, 450487, Note_on_c, 12, 77, 0
27, 450490, Note_on_c, 12, 72, 79
27, 450720, Program_c, 12, 48
27, 450730, Note_on_c, 12, 72, 0
27, 450740, Note_on_c, 12, 67, 80
27, 450835, Note_on_c, 12, 67, 0
27, 451080, Note_on_c, 12, 60, 88
27, 451110, Note_on_c, 12, 60, 0
27, 451110, Note_on_c, 12, 62, 85
27, 451140, Note_on_c, 12, 62, 0
27, 451140, Note_on_c, 12, 63, 86
27, 451170, Note_on_c, 12, 63, 0
27, 451170, Note_on_c, 12, 65, 93
27, 451200, Note_on_c, 12, 65, 0
27, 451200, Program_c, 12, 44
27, 451204, Note_on_c, 12, 67, 86
27, 451444, Note_on_c, 12, 67, 0
27, 451450, Note_on_c, 12, 72, 85
27, 451690, Note_on_c, 12, 72, 0
27, 451698, Note_on_c, 12, 74, 87
27, 451926, Note_on_c, 12, 79, 86
27, 451938, Note_on_c, 12, 74, 0
27, 452166, Note_on_c, 12, 79, 0
27, 452168, Note_on_c, 12, 77, 81
27, 452408, Note_on_c, 12, 77, 0
27, 452409, Note_on_c, 12, 72, 98
27, 452640, Program_c, 12, 48
27, 452649, Note_on_c, 12, 72, 0
27, 452665, Note_on_c, 12, 67, 95
27, 452760, Note_on_c, 12, 67, 0
27, 453000, Note_on_c, 12, 60, 87
27, 453030, Note_on_c, 12, 60, 0
27, 453030, Note_on_c, 12, 62, 96
27, 453060, Note_on_c, 12, 62, 0
27, 453060, Note_on_c, 12, 63, 80
27, 453090, Note_on_c, 12, 63, 0
27, 453090, Note_on_c, 12, 65, 91
27, 453120, Note_on_c, 12, 65, 0
27, 453120, Program_c, 12, 44
27, 453137, Note_on_c, 12, 67, 79
27, 453364, Note_on_c, 12, 72, 94
27, 453377, Note_on_c, 12, 67, 0
27, 453602, Note_on_c, 12, 74, 97
27, 453604, Note_on_c, 12, 72, 0
27, 453842, Note_on_c, 12, 74, 0
27, 453849, Note_on_c, 12, 79, 90
27, 454089, Note_on_c, 12, 79, 0
27, 454098, Note_on_c, 12, 77, 95
27, 454334, Note_on_c, 12, 72, 82
27, 454338, Note_on_c, 12, 77, 0
27, 454560, Program_c, 12, 48
27, 454568, Note_on_c, 12, 67, 96
27, 454574, Note_on_c, 12, 72, 0
27, 454663, Note_on_c, 12, 67, 0
27, 455045, Note_on_c, 12, 60, 101
27, 455059, Note_on_c, 12, 63, 95
27, 455059, Note_on_c, 12, 75, 107
27, 455165, Note_on_c, 12, 60, 0
27, 455179, Note_on_c, 12, 63, 0
27, 455179, Note_on_c, 12, 75, 0
27, 455520, Note_on_c, 12, 63, 104
27, 455524, Note_on_c, 12, 60, 100
27, 455524, Note_on_c, 12, 75, 98
27, 455640, Note_on_c, 12, 63, 0
27, 455644, Note_on_c, 12, 60, 0
27, 455644, Note_on_c, 12, 75, 0
27, 455880, Note_on_c, 12, 60, 110
27, 455910, Note_on_c, 12, 60, 0
27, 455910, Note_on_c, 12, 62, 107
27, 455940, Note_on_c, 12, 62, 0
27, 455940, Note_on_c, 12, 63, 112
27, 455970, Note_on_c, 12, 63, 0
27, 455970, Note_on_c, 12, 65, 105
27, 456000, Note_on_c, 12, 65, 0
27, 456000, Program_c, 12, 44
27, 456017, Note_on_c, 12, 67, 81
27, 456257, Note_on_c, 12, 67, 0
27, 456259, Note_on_c, 12, 72, 82
27, 456497, Note_on_c, 12, 74, 84
27, 456499, Note_on_c, 12, 72, 0
27, 456736, Note_on_c, 12, 79, 88
27, 456737, Note_on_c, 12, 74, 0
27, 456969, Note_on_c, 12, 77, 91
27, 456976, Note_on_c, 12, 79, 0
27, 457209, Note_on_c, 12, 77, 0
27, 457219, Note_on_c, 12, 72, 97
27, 457459, Note_on_c, 12, 72, 0
27, 458403, Note_on_c, 12, 65, 92
27, 458418, Note_on_c, 12, 72, 98
27, 458421, Note_on_c, 12, 76, 104
27, 458523, Note_on_c, 12, 65, 0
27, 458538, Note_on_c, 12, 72, 0
27, 458541, Note_on_c, 12, 76, 0
27, 459364, Note_on_c, 12, 76, 109
27, 459367, Note_on_c, 12, 65, 107
27, 459381, Note_on_c, 12, 72, 101
27, 459484, Note_on_c, 12, 76, 0
27, 459487, Note_on_c, 12, 65, 0
27, 459501, Note_on_c, 12, 72, 0
27, 460324, Note_on_c, 12, 72, 95
27, 460333, Note_on_c, 12, 76, 102
27, 460342, Note_on_c, 12, 65, 91
27, 460444, Note_on_c, 12, 72, 0
27, 460453, Note_on_c, 12, 76, 0
27, 460462, Note_on_c, 12, 65, 0
27, 461282, Note_on_c, 12, 65, 92
27, 461284, Note_on_c, 12, 72, 94
27, 461303, Note_on_c, 12, 76, 92
27, 461402, Note_on_c, 12, 65, 0
27, 461404, Note_on_c, 12, 72, 0
27, 461423, Note_on_c, 12, 76, 0
27, 461762, Note_on_c, 12, 63, 95
27, 461775, Note_on_c, 12, 60, 111
27, 461785, Note_on_c, 12, 75, 97
27, 461882, Note_on_c, 12, 63, 0
27, 461895, Note_on_c, 12, 60, 0
27, 461905, Note_on_c, 12, 75, 0
27, 462120, Note_on_c, 12, 60, 103
27, 462150, Note_on_c, 12, 60, 0
27, 462150, Note_on_c, 12, 62, 114
27, 462180, Note_on_c, 12, 62, 0
27, 462180, Note_on_c, 12, 63, 105
27, 462210, Note_on_c, 12, 63, 0
27, 462210, Note_on_c, 12, 65, 113
27, 462240, Note_on_c, 12, 65, 0
27, 462240, Program_c, 12, 44
27, 462247, Note_on_c, 12, 67, 97
27, 462487, Note_on_c, 12, 67, 0
27, 462504, Note_on_c, 12, 72, 83
27, 462722, Note_on_c, 12, 74, 91
27, 462744, Note_on_c, 12, 72, 0
27, 462962, Note_on_c, 12, 74, 0
27, 462968, Note_on_c, 12, 79, 98
27, 463208, Note_on_c, 12, 79, 0
27, 463208, Note_on_c, 12, 77, 83
27, 463448, Note_on_c, 12, 77, 0
27, 463463, Note_on_c, 12, 72, 98
27, 463680, Program_c, 12, 48
27, 463692, Note_on_c, 12, 67, 89
27, 463703, Note_on_c, 12, 72, 0
27, 463787, Note_on_c, 12, 67, 0
27, 464040, Note_on_c, 12, 60, 78
27, 464070, Note_on_c, 12, 60, 0
27, 464070, Note_on_c, 12, 62, 82
27, 464100, Note_on_c, 12, 62, 0
27, 464100, Note_on_c, 12, 63, 82
27, 464130, Note_on_c, 12, 63, 0
27, 464130, Note_on_c, 12, 65, 90
27, 464160, Note_on_c, 12, 65, 0
27, 464160, Program_c, 12, 44
27, 464163, Note_on_c, 12, 67, 84
27, 464403, Note_on_c, 12, 67, 0
27, 464414, Note_on_c, 12, 72, 91
27, 464654, Note_on_c, 12, 72, 0
27, 464663, Note_on_c, 12, 74, 92
27, 464903, Note_on_c, 12, 74, 0
27, 464904, Note_on_c, 12, 79, 97
27, 465133, Note_on_c, 12, 77, 95
27, 465144, Note_on_c, 12, 79, 0
27, 465365, Note_on_c, 12, 72, 79
27, 465373, Note_on_c, 12, 77, 0
27, 465600, Program_c, 12, 48
27, 465605, Note_on_c, 12, 72, 0
27, 465611, Note_on_c, 12, 67, 79
27, 465706, Note_on_c, 12, 67, 0
27, 466081, Note_on_c, 12, 75, 114
27, 466084, Note_on_c, 12, 63, 107
27, 466095, Note_on_c, 12, 60, 108
27, 466201, Note_on_c, 12, 75, 0
27, 466204, Note_on_c, 12, 63, 0
27, 466215, Note_on_c, 12, 60, 0
27, 466563, Note_on_c, 12, 60, 109
27, 466573, Note_on_c, 12, 75, 110
27, 466583, Note_on_c, 12, 63, 111
27, 466683, Note_on_c, 12, 60, 0
27, 466693, Note_on_c, 12, 75, 0
27, 466703, Note_on_c, 12, 63, 0
27, 466920, Note_on_c, 12, 60, 113
27, 466950, Note_on_c, 12, 60, 0
27, 466950, Note_on_c, 12, 62, 111
27, 466980, Note_on_c, 12, 62, 0
27, 466980, Note_on_c, 12, 63, 109
27, 467010, Note_on_c, 12, 63, 0
27, 467010, Note_on_c, 12, 65, 99
27, 467040, Note_on_c, 12, 65, 0
27, 467040, Program_c, 12, 44
27, 467063, Note_on_c, 12, 67, 96
27, 467290, Note_on_c, 12, 72, 79
27, 467303, Note_on_c, 12, 67, 0
27, 467530, Note_on_c, 12, 72, 0
27, 467532, Note_on_c, 12, 74, 96
27, 467766, Note_on_c, 12, 79, 82
27, 467772, Note_on_c, 12, 74, 0
27, 468006, Note_on_c, 12, 79, 0
27, 468016, Note_on_c, 12, 77, 89
27, 468256, Note_on_c, 12, 77, 0
27, 468265, Note_on_c, 12, 72, 86
27, 468505, Note_on_c, 12, 72, 0
27, 468961, Note_on_c, 12, 60, 110
27, 468971, Note_on_c, 12, 75, 113
27, 468972, Note_on_c, 12, 63, 105
27, 469081, Note_on_c, 12, 60, 0
27, 469091, Note_on_c, 12, 75, 0
27, 469092, Note_on_c, 12, 63, 0
27, 497281, Note_on_c, 12, 57, 80
27, 497293, Note_on_c, 12, 65, 92
27, 497303, Note_on_c, 12, 72, 86
27, 497401, Note_on_c, 12, 57, 0
27, 497413, Note_on_c, 12, 65, 0
27, 497663, Note_on_c, 12, 72, 0
27, 497779, Note_on_c, 12, 71, 95
27, 497899, Note_on_c, 12, 71, 0
27, 498025, Note_on_c, 12, 72, 94
27, 498145, Note_on_c, 12, 72, 0
27, 498247, Note_on_c, 12, 67, 84
27, 498367, Note_on_c, 12, 67, 0
27, 498483, Note_on_c, 12, 69, 79
27, 498603, Note_on_c, 12, 69, 0
27, 498743, Note_on_c, 12, 67, 85
27, 498863, Note_on_c, 12, 67, 0
27, 498984, Note_on_c, 12, 71, 83
27, 499104, Note_on_c, 12, 71, 0
27, 499211, Note_on_c, 12, 69, 90
27, 499331, Note_on_c, 12, 69, 0
27, 499440, Note_on_c, 12, 72, 97
27, 499560, Note_on_c, 12, 72, 0
27, 499700, Note_on_c, 12, 67, 83
27, 499820, Note_on_c, 12, 67, 0
27, 499921, Note_on_c, 12, 69, 97
27, 500041, Note_on_c, 12, 69, 0
27, 500185, Note_on_c, 12, 67, 82
27, 500305, Note_on_c, 12, 67, 0
27, 500410, Note_on_c, 12, 71, 78
27, 500530, Note_on_c, 12, 71, 0
27, 503520, Note_on_c, 12, 57, 85
27, 503523, Note_on_c, 12, 65, 82
27, 503529, Note_on_c, 12, 72, 81
27, 503640, Note_on_c, 12, 57, 0
27, 503643, Note_on_c, 12, 65, 0
27, 503889, Note_on_c, 12, 72, 0
27, 504006, Note_on_c, 12, 71, 91
27, 504126, Note_on_c, 12, 71, 0
27, 504248, Note_on_c, 12, 72, 84
27, 504368, Note_on_c, 12, 72, 0
27, 504496, Note_on_c, 12, 67, 79
27, 504616, Note_on_c, 12, 67, 0
27, 504733, Note_on_c, 12, 69, 93
27, 504853, Note_on_c, 12, 69, 0
27, 504971, Note_on_c, 12, 67, 96
27, 505091, Note_on_c, 12, 67, 0
27, 505208, Note_on_c, 12, 71, 86
27, 505328, Note_on_c, 12, 71, 0
27, 505465, Note_on_c, 12, 69, 84
27, 505585, Note_on_c, 12, 69, 0
27, 505703, Note_on_c, 12, 72, 94
27, 505823, Note_on_c, 12, 72, 0
27, 505932, Note_on_c, 12, 67, 92
27, 506052, Note_on_c, 12, 67, 0
27, 506178, Note_on_c, 12, 69, 88
27, 506298, Note_on_c, 12, 69, 0
27, 506423, Note_on_c, 12, 67, 82
27, 506543, Note_on_c, 12, 67, 0
27, 506665, Note_on_c, 12, 71, 83
27, 506785, Note_on_c, 12, 71, 0
27, 506883, Note_on_c, 12, 65, 92
27, 506898, Note_on_c, 12, 72, 97
27, 506905, Note_on_c, 12, 57, 93
27, 507003, Note_on_c, 12, 65, 0
27, 507025, Note_on_c, 12, 57, 0
27, 507258, Note_on_c, 12, 72, 0
27, 507360, Note_on_c, 12, 71, 86
27, 507480, Note_on_c, 12, 71, 0
27, 507602, Note_on_c, 12, 72, 87
27, 507722, Note_on_c, 12, 72, 0
27, 507850, Note_on_c, 12, 67, 84
27, 507970, Note_on_c, 12, 67, 0
27, 508082, Note_on_c, 12, 69, 88
27, 508202, Note_on_c, 12, 69, 0
27, 508333, Note_on_c, 12, 67, 90
27, 508453, Note_on_c, 12, 67, 0
27, 508570, Note_on_c, 12, 71, 81
27, 508690, Note_on_c, 12, 71, 0
27, 522000, Program_c, 12, 45
27, 522002, Note_on_c, 12, 73, 90
27, 522017, Note_on_c, 12, 70, 87
27, 522122, Note_on_c, 12, 73, 0
27, 522137, Note_on_c, 12, 70, 0
27, 522245, Note_on_c, 12, 71, 93
27, 522256, Note_on_c, 12, 68, 78
27, 522365, Note_on_c, 12, 71, 0
27, 522376, Note_on_c, 12, 68, 0
27, 522488, Note_on_c, 12, 73, 82
27, 522504, Note_on_c, 12, 70, 78
27, 522608, Note_on_c, 12, 73, 0
27, 522624, Note_on_c, 12, 70, 0
27, 522732, Note_on_c, 12, 68, 88
27, 522742, Note_on_c, 12, 72, 94
27, 522852, Note_on_c, 12, 68, 0
27, 522862, Note_on_c, 12, 72, 0
27, 522965, Note_on_c, 12, 66, 79
27, 522973, Note_on_c, 12, 69, 93
27, 523085, Note_on_c, 12, 66, 0
27, 523093, Note_on_c, 12, 69, 0
27, 523206, Note_on_c, 12, 65, 93
27, 523207, Note_on_c, 12, 68, 88
27, 523326, Note_on_c, 12, 65, 0
27, 523327, Note_on_c, 12, 68, 0
27, 523446, Note_on_c, 12, 66, 98
27, 523453, Note_on_c, 12, 69, 78
27, 523566, Note_on_c, 12, 66, 0
27, 523573, Note_on_c, 12, 69, 0
27, 523691, Note_on_c, 12, 63, 91
27, 523698, Note_on_c, 12, 67, 91
27, 523811, Note_on_c, 12, 63, 0
27, 523818, Note_on_c, 12, 67, 0
27, 523928, Note_on_c, 12, 68, 80
27, 523928, Note_on_c, 12, 65, 78
27, 524048, Note_on_c, 12, 68, 0
27, 524048, Note_on_c, 12, 65, 0
27, 524162, Note_on_c, 12, 69, 89
27, 524170, Note_on_c, 12, 66, 96
27, 524282, Note_on_c, 12, 69, 0
27, 524290, Note_on_c, 12, 66, 0
27, 524413, Note_on_c, 12, 68, 95
27, 524417, Note_on_c, 12, 72, 96
27, 524533, Note_on_c, 12, 68, 0
27, 524537, Note_on_c, 12, 72, 0
27, 524656, Note_on_c, 12, 69, 97
27, 524660, Note_on_c, 12, 73, 96
27, 524776, Note_on_c, 12, 69, 0
27, 524780, Note_on_c, 12, 73, 0
27, 528247, Note_on_c, 12, 70, 87
27, 528254, Note_on_c, 12, 73, 84
27, 528367, Note_on_c, 12, 70, 0
27, 528374, Note_on_c, 12, 73, 0
27, 528484, Note_on_c, 12, 68, 78
27, 528492, Note_on_c, 12, 71, 90
27, 528604, Note_on_c, 12, 68, 0
27, 528612, Note_on_c, 12, 71, 0
27, 528725, Note_on_c, 12, 73, 80
27, 528739, Note_on_c, 12, 70, 91
27, 528845, Note_on_c, 12, 73, 0
27, 528859, Note_on_c, 12, 70, 0
27, 528965, Note_on_c, 12, 68, 83
27, 528969, Note_on_c, 12, 72, 88
27, 529085, Note_on_c, 12, 68, 0
27, 529089, Note_on_c, 12, 72, 0
27, 529201, Note_on_c, 12, 66, 87
27, 529214, Note_on_c, 12, 69, 83
27, 529321, Note_on_c, 12, 66, 0
27, 529334, Note_on_c, 12, 69, 0
27, 529450, Note_on_c, 12, 65, 90
27, 529457, Note_on_c, 12, 68, 79
27, 529570, Note_on_c, 12, 65, 0
27, 529577, Note_on_c, 12, 68, 0
27, 529690, Note_on_c, 12, 66, 98
27, 529702, Note_on_c, 12, 69, 94
27, 529810, Note_on_c, 12, 66, 0
27, 529822, Note_on_c, 12, 69, 0
27, 529933, Note_on_c, 12, 67, 81
27, 529936, Note_on_c, 12, 63, 93
27, 530053, Note_on_c, 12, 67, 0
27, 530056, Note_on_c, 12, 63, 0
27, 530162, Note_on_c, 12, 67, 92
27, 530162, Note_on_c, 12, 63, 94
27, 530282, Note_on_c, 12, 67, 0
27, 530282, Note_on_c, 12, 63, 0
27, 530404, Note_on_c, 12, 67, 95
27, 530405, Note_on_c, 12, 63, 90
27, 530524, Note_on_c, 12, 67, 0
27, 530525, Note_on_c, 12, 63, 0
27, 530645, Note_on_c, 12, 68, 96
27, 530652, Note_on_c, 12, 65, 80
27, 530765, Note_on_c, 12, 68, 0
27, 530772, Note_on_c, 12, 65, 0
27, 530882, Note_on_c, 12, 66, 98
27, 530902, Note_on_c, 12, 69, 91
27, 531002, Note_on_c, 12, 66, 0
27, 531022, Note_on_c, 12, 69, 0
27, 531135, Note_on_c, 12, 68, 92
27, 531142, Note_on_c, 12, 72, 80
27, 531255, Note_on_c, 12, 68, 0
27, 531262, Note_on_c, 12, 72, 0
27, 531371, Note_on_c, 12, 69, 97
27, 531377, Note_on_c, 12, 73, 88
27, 531491, Note_on_c, 12, 69, 0
27, 531497, Note_on_c, 12, 73, 0
27, 540000, Program_c, 12, 48
27, 540487, Note_on_c, 12, 69, 82
27, 540489, Note_on_c, 12, 57, 85
27, 540495, Note_on_c, 12, 66, 79
27, 540630, Note_on_c, 12, 69, 0
27, 540632, Note_on_c, 12, 57, 0
27, 540638, Note_on_c, 12, 66, 0
27, 540962, Note_on_c, 12, 67, 96
27, 541033, Note_on_c, 12, 67, 0
27, 541220, Note_on_c, 12, 69, 94
27, 541291, Note_on_c, 12, 69, 0
27, 541455, Note_on_c, 12, 67, 91
27, 541526, Note_on_c, 12, 67, 0
27, 541681, Note_on_c, 12, 65, 82
27, 541752, Note_on_c, 12, 65, 0
27, 541928, Note_on_c, 12, 64, 80
27, 541999, Note_on_c, 12, 64, 0
27, 542178, Note_on_c, 12, 65, 98
27, 542249, Note_on_c, 12, 65, 0
27, 542409, Note_on_c, 12, 62, 84
27, 542480, Note_on_c, 12, 62, 0
27, 542659, Note_on_c, 12, 69, 89
27, 542730, Note_on_c, 12, 69, 0
27, 542881, Note_on_c, 12, 67, 94
27, 542952, Note_on_c, 12, 67, 0
27, 543143, Note_on_c, 12, 69, 86
27, 543214, Note_on_c, 12, 69, 0
27, 543375, Note_on_c, 12, 67, 89
27, 543446, Note_on_c, 12, 67, 0
27, 543614, Note_on_c, 12, 65, 82
27, 543685, Note_on_c, 12, 65, 0
27, 543845, Note_on_c, 12, 64, 81
27, 543916, Note_on_c, 12, 64, 0
27, 544080, Note_on_c, 12, 65, 84
27, 544151, Note_on_c, 12, 65, 0
27, 544340, Note_on_c, 12, 59, 94
27, 544411, Note_on_c, 12, 59, 0
27, 544564, Note_on_c, 12, 64, 83
27, 544635, Note_on_c, 12, 64, 0
27, 544809, Note_on_c, 12, 65, 87
27, 544880, Note_on_c, 12, 65, 0
27, 545062, Note_on_c, 12, 67, 82
27, 545133, Note_on_c, 12, 67, 0
27, 545298, Note_on_c, 12, 69, 94
27, 545369, Note_on_c, 12, 69, 0
27, 552960, Control_c, 10, 7, 108
27, 552960, Control_c, 10, 11, 127
27, 552960, Control_c, 10, 10, 54
27, 552960, Program_c, 10, 45
27, 552963, Note_on_c, 10, 57, 98
27, 553203, Note_on_c, 10, 57, 0
27, 553215, Note_on_c, 10, 65, 81
27, 553448, Note_on_c, 10, 69, 80
27, 553455, Note_on_c, 10, 65, 0
27, 553688, Note_on_c, 10, 69, 0
27, 553700, Note_on_c, 10, 65, 88
27, 553940, Note_on_c, 10, 65, 0
27, 553941, Note_on_c, 10, 72, 88
27, 554162, Note_on_c, 10, 65, 94
27, 554181, Note_on_c, 10, 72, 0
27, 554402, Note_on_c, 10, 65, 0
27, 554403, Note_on_c, 10, 60, 85
27, 554643, Note_on_c, 10, 60, 0
27, 554654, Note_on_c, 10, 65, 81
27, 554894, Note_on_c, 10, 65, 0
27, 554896, Note_on_c, 10, 57, 89
27, 555136, Note_on_c, 10, 57, 0
27, 555142, Note_on_c, 10, 65, 86
27, 555366, Note_on_c, 10, 69, 78
27, 555382, Note_on_c, 10, 65, 0
27, 555600, Note_on_c, 10, 65, 96
27, 555606, Note_on_c, 10, 69, 0
27, 555840, Note_on_c, 10, 65, 0
27, 555843, Note_on_c, 10, 72, 86
27, 556083, Note_on_c, 10, 72, 0
27, 556086, Note_on_c, 10, 65, 81
27, 556326, Note_on_c, 10, 65, 0
27, 556333, Note_on_c, 10, 60, 89
27, 556573, Note_on_c, 10, 60, 0
27, 556581, Note_on_c, 10, 65, 96
27, 556818, Note_on_c, 10, 57, 85
27, 556821, Note_on_c, 10, 65, 0
27, 557298, Note_on_c, 10, 57, 0
27, 557782, Note_on_c, 10, 69, 88
27, 558005, Note_on_c, 10, 65, 79
27, 558022, Note_on_c, 10, 69, 0
27, 558245, Note_on_c, 10, 65, 0
27, 558251, Note_on_c, 10, 57, 85
27, 558491, Note_on_c, 10, 57, 0
27, 558491, Note_on_c, 10, 65, 79
27, 558731, Note_on_c, 10, 65, 0
27, 558742, Note_on_c, 10, 72, 88
27, 558981, Note_on_c, 10, 65, 81
27, 558982, Note_on_c, 10, 72, 0
27, 559207, Note_on_c, 10, 60, 89
27, 559221, Note_on_c, 10, 65, 0
27, 559443, Note_on_c, 10, 65, 85
27, 559447, Note_on_c, 10, 60, 0
27, 559683, Note_on_c, 10, 65, 0
27, 559698, Note_on_c, 10, 69, 94
27, 559922, Note_on_c, 10, 65, 83
27, 559938, Note_on_c, 10, 69, 0
27, 560162, Note_on_c, 10, 65, 0
27, 560170, Note_on_c, 10, 57, 80
27, 560402, Note_on_c, 10, 65, 89
27, 560410, Note_on_c, 10, 57, 0
27, 560642, Note_on_c, 10, 65, 0
27, 560651, Note_on_c, 10, 72, 84
27, 560891, Note_on_c, 10, 72, 0
27, 560899, Note_on_c, 10, 65, 91
27, 561134, Note_on_c, 10, 60, 81
27, 561139, Note_on_c, 10, 65, 0
27, 561374, Note_on_c, 10, 60, 0
27, 561380, Note_on_c, 10, 65, 85
27, 561614, Note_on_c, 10, 70, 86
27, 561620, Note_on_c, 10, 65, 0
27, 561854, Note_on_c, 10, 70, 0
27, 563910, Note_on_c, 12, 63, 104
27, 563940, Note_on_c, 12, 63, 0
27, 563940, Note_on_c, 12, 65, 100
27, 563970, Note_on_c, 12, 65, 0
27, 563970, Note_on_c, 12, 66, 88
27, 564000, Note_on_c, 12, 66, 0
27, 564010, Note_on_c, 12, 66, 100
27, 564130, Note_on_c, 12, 66, 0
27, 564390, Note_on_c, 12, 63, 87
27, 564420, Note_on_c, 12, 63, 0
27, 564420, Note_on_c, 12, 65, 98
27, 564450, Note_on_c, 12, 65, 0
27, 564450, Note_on_c, 12, 66, 99
27, 564480, Note_on_c, 12, 66, 0
27, 564499, Note_on_c, 12, 66, 85
27, 564619, Note_on_c, 12, 66, 0
27, 564870, Note_on_c, 12, 63, 88
27, 564900, Note_on_c, 12, 63, 0
27, 564900, Note_on_c, 12, 65, 86
27, 564930, Note_on_c, 12, 65, 0
27, 564930, Note_on_c, 12, 66, 93
27, 564960, Note_on_c, 12, 66, 0
27, 564972, Note_on_c, 12, 66, 90
27, 565092, Note_on_c, 12, 66, 0
27, 565350, Note_on_c, 12, 67, 101
27, 565380, Note_on_c, 12, 67, 0
27, 565380, Note_on_c, 12, 68, 100
27, 565410, Note_on_c, 12, 68, 0
27, 565410, Note_on_c, 12, 69, 98
27, 565440, Note_on_c, 12, 69, 0
27, 565464, Note_on_c, 12, 70, 95
27, 565584, Note_on_c, 12, 70, 0
27, 565936, Note_on_c, 12, 69, 92
27, 566056, Note_on_c, 12, 69, 0
27, 566172, Note_on_c, 12, 70, 97
27, 566292, Note_on_c, 12, 70, 0
27, 566404, Note_on_c, 12, 65, 96
27, 566524, Note_on_c, 12, 65, 0
27, 566657, Note_on_c, 12, 67, 91
27, 566777, Note_on_c, 12, 67, 0
27, 566887, Note_on_c, 12, 65, 98
27, 567007, Note_on_c, 12, 65, 0
27, 567136, Note_on_c, 12, 69, 87
27, 567256, Note_on_c, 12, 69, 0
27, 567384, Note_on_c, 12, 67, 96
27, 567504, Note_on_c, 12, 67, 0
27, 567609, Note_on_c, 12, 70, 93
27, 567729, Note_on_c, 12, 70, 0
27, 567840, Note_on_c, 12, 64, 120
27, 567960, Note_on_c, 12, 64, 0
27, 568098, Note_on_c, 12, 64, 84
27, 568218, Note_on_c, 12, 64, 0
27, 568325, Note_on_c, 12, 64, 85
27, 568445, Note_on_c, 12, 64, 0
27, 568584, Note_on_c, 12, 69, 93
27, 568704, Note_on_c, 12, 69, 0
27, 568820, Note_on_c, 12, 70, 84
27, 569180, Note_on_c, 12, 70, 0
27, 569298, Note_on_c, 12, 69, 84
27, 569418, Note_on_c, 12, 69, 0
27, 569525, Note_on_c, 12, 70, 97
27, 569645, Note_on_c, 12, 70, 0
27, 569763, Note_on_c, 12, 65, 85
27, 569883, Note_on_c, 12, 65, 0
27, 570018, Note_on_c, 12, 67, 87
27, 570138, Note_on_c, 12, 67, 0
27, 570259, Note_on_c, 12, 65, 97
27, 570379, Note_on_c, 12, 65, 0
27, 570483, Note_on_c, 12, 69, 84
27, 570603, Note_on_c, 12, 69, 0
27, 570726, Note_on_c, 12, 68, 94
27, 570869, Note_on_c, 12, 68, 0
27, 571205, Note_on_c, 12, 65, 89
27, 571206, Note_on_c, 12, 69, 95
27, 571348, Note_on_c, 12, 65, 0
27, 571349, Note_on_c, 12, 69, 0
27, 573138, Note_on_c, 12, 65, 102
27, 573143, Note_on_c, 12, 69, 107
27, 573281, Note_on_c, 12, 65, 0
27, 573286, Note_on_c, 12, 69, 0
27, 573617, Note_on_c, 12, 68, 103
27, 573688, Note_on_c, 12, 68, 0
27, 573851, Note_on_c, 12, 74, 115
27, 573922, Note_on_c, 12, 74, 0
27, 574089, Note_on_c, 12, 65, 112
27, 574160, Note_on_c, 12, 65, 0
27, 574333, Note_on_c, 12, 67, 113
27, 574404, Note_on_c, 12, 67, 0
27, 577934, Note_on_c, 12, 65, 112
27, 577938, Note_on_c, 12, 69, 114
27, 578077, Note_on_c, 12, 65, 0
27, 578081, Note_on_c, 12, 69, 0
27, 578403, Note_on_c, 12, 68, 112
27, 578474, Note_on_c, 12, 68, 0
27, 578650, Note_on_c, 12, 74, 107
27, 578721, Note_on_c, 12, 74, 0
27, 578893, Note_on_c, 12, 65, 102
27, 578964, Note_on_c, 12, 65, 0
27, 579121, Note_on_c, 12, 67, 111
27, 579192, Note_on_c, 12, 67, 0
27, 580814, Note_on_c, 12, 65, 110
27, 580823, Note_on_c, 12, 69, 104
27, 580957, Note_on_c, 12, 65, 0
27, 580966, Note_on_c, 12, 69, 0
27, 581287, Note_on_c, 12, 68, 97
27, 581358, Note_on_c, 12, 68, 0
27, 581540, Note_on_c, 12, 74, 95
27, 581611, Note_on_c, 12, 74, 0
27, 581761, Note_on_c, 12, 65, 102
27, 581832, Note_on_c, 12, 65, 0
27, 582008, Note_on_c, 12, 67, 95
27, 582079, Note_on_c, 12, 67, 0
27, 582250, Note_on_c, 12, 68, 99
27, 582393, Note_on_c, 12, 68, 0
27, 582723, Note_on_c, 12, 65, 109
27, 582735, Note_on_c, 12, 69, 103
27, 582866, Note_on_c, 12, 65, 0
27, 582878, Note_on_c, 12, 69, 0
27, 583205, Note_on_c, 12, 68, 95
27, 583276, Note_on_c, 12, 68, 0
27, 583444, Note_on_c, 12, 74, 115
27, 583515, Note_on_c, 12, 74, 0
27, 583699, Note_on_c, 12, 65, 99
27, 583770, Note_on_c, 12, 65, 0
27, 583943, Note_on_c, 12, 67, 99
27, 584014, Note_on_c, 12, 67, 0
27, 584162, Note_on_c, 12, 65, 104
27, 584233, Note_on_c, 12, 65, 0
27, 584404, Note_on_c, 12, 74, 98
27, 584475, Note_on_c, 12, 74, 0
27, 584651, Note_on_c, 12, 68, 96
27, 584794, Note_on_c, 12, 68, 0
27, 585138, Note_on_c, 12, 65, 112
27, 585209, Note_on_c, 12, 65, 0
27, 585366, Note_on_c, 12, 67, 115
27, 585437, Note_on_c, 12, 67, 0
27, 585603, Note_on_c, 12, 65, 111
27, 585674, Note_on_c, 12, 65, 0
27, 585844, Note_on_c, 12, 74, 102
27, 585915, Note_on_c, 12, 74, 0
27, 586102, Note_on_c, 12, 68, 98
27, 586245, Note_on_c, 12, 68, 0
27, 586571, Note_on_c, 12, 69, 110
27, 586583, Note_on_c, 12, 65, 102
27, 587651, Note_on_c, 12, 69, 0
27, 587663, Note_on_c, 12, 65, 0
27, 588007, Note_on_c, 12, 65, 106
27, 588008, Note_on_c, 12, 81, 97
27, 588017, Note_on_c, 12, 69, 106
27, 588367, Note_on_c, 12, 65, 0
27, 588368, Note_on_c, 12, 81, 0
27, 588377, Note_on_c, 12, 69, 0
27, 588968, Note_on_c, 12, 65, 110
27, 588973, Note_on_c, 12, 69, 110
27, 588983, Note_on_c, 12, 81, 113
27, 589328, Note_on_c, 12, 65, 0
27, 589333, Note_on_c, 12, 69, 0
27, 589343, Note_on_c, 12, 81, 0
27, 589464, Note_on_c, 12, 60, 110
27, 589510, Note_on_c, 12, 62, 112
27, 589532, Note_on_c, 12, 60, 0
27, 589578, Note_on_c, 12, 62, 0
27, 589595, Note_on_c, 12, 64, 113
27, 589647, Note_on_c, 12, 65, 102
27, 589663, Note_on_c, 12, 64, 0
27, 589715, Note_on_c, 12, 65, 0
27, 589719, Note_on_c, 12, 67, 114
27, 589783, Note_on_c, 12, 69, 101
27, 589787, Note_on_c, 12, 67, 0
27, 589851, Note_on_c, 12, 69, 0
27, 589860, Note_on_c, 12, 71, 105
27, 589928, Note_on_c, 12, 71, 0
27, 589937, Note_on_c, 12, 72, 106
27, 589941, Note_on_c, 12, 69, 99
27, 589990, Note_on_c, 12, 74, 104
27, 590000, Note_on_c, 12, 71, 102
27, 590005, Note_on_c, 12, 72, 0
27, 590009, Note_on_c, 12, 69, 0
27, 590058, Note_on_c, 12, 74, 0
27, 590058, Note_on_c, 12, 72, 101
27, 590068, Note_on_c, 12, 71, 0
27, 590078, Note_on_c, 12, 76, 104
27, 590126, Note_on_c, 12, 72, 0
27, 590133, Note_on_c, 12, 74, 99
27, 590144, Note_on_c, 12, 77, 108
27, 590146, Note_on_c, 12, 76, 0
27, 590193, Note_on_c, 12, 79, 96
27, 590201, Note_on_c, 12, 74, 0
27, 590212, Note_on_c, 12, 77, 0
27, 590213, Note_on_c, 12, 76, 108
27, 590261, Note_on_c, 12, 79, 0
27, 590269, Note_on_c, 12, 77, 101
27, 590272, Note_on_c, 12, 81, 103
27, 590281, Note_on_c, 12, 76, 0
27, 590334, Note_on_c, 12, 83, 96
27, 590337, Note_on_c, 12, 77, 0
27, 590340, Note_on_c, 12, 81, 0
27, 590345, Note_on_c, 12, 79, 113
27, 590400, Note_on_c, 12, 81, 100
27, 590402, Note_on_c, 12, 83, 0
27, 590402, Note_on_c, 12, 84, 107
27, 590413, Note_on_c, 12, 79, 0
27, 590640, Note_on_c, 12, 81, 0
27, 590642, Note_on_c, 12, 84, 0
27, 593760, Program_c, 12, 45
27, 593764, Note_on_c, 12, 72, 123
27, 593771, Note_on_c, 12, 69, 118
27, 593781, Note_on_c, 12, 81, 122
27, 594244, Note_on_c, 12, 72, 0
27, 594251, Note_on_c, 12, 69, 0
27, 594261, Note_on_c, 12, 81, 0
27, 598084, Note_on_c, 12, 69, 120
27, 598085, Note_on_c, 12, 72, 123
27, 598085, Note_on_c, 12, 81, 119
27, 598564, Note_on_c, 12, 69, 0
27, 598565, Note_on_c, 12, 72, 0
27, 598565, Note_on_c, 12, 81, 0
27, 604320, Program_c, 12, 48
27, 604331, Note_on_c, 12, 76, 87
27, 604335, Note_on_c, 12, 79, 82
27, 604337, Note_on_c, 12, 67, 90
27, 604577, Note_on_c, 12, 67, 0
27, 605051, Note_on_c, 12, 76, 0
27, 605055, Note_on_c, 12, 79, 0
27, 608161, Note_on_c, 12, 76, 82
27, 608162, Note_on_c, 12, 67, 78
27, 608166, Note_on_c, 12, 79, 92
27, 608402, Note_on_c, 12, 67, 0
27, 608881, Note_on_c, 12, 76, 0
27, 608886, Note_on_c, 12, 79, 0
27, 610087, Note_on_c, 12, 76, 78
27, 610097, Note_on_c, 12, 79, 95
27, 610104, Note_on_c, 12, 67, 81
27, 610344, Note_on_c, 12, 67, 0
27, 610807, Note_on_c, 12, 76, 0
27, 610817, Note_on_c, 12, 79, 0
27, 613599, Note_on_c, 12, 69, 90
27, 613652, Note_on_c, 12, 69, 0
27, 613653, Note_on_c, 12, 71, 89
27, 613706, Note_on_c, 12, 71, 0
27, 613706, Note_on_c, 12, 72, 84
27, 613758, Note_on_c, 12, 72, 0
27, 613759, Note_on_c, 12, 74, 94
27, 613799, Note_on_c, 12, 74, 0
27, 613800, Note_on_c, 12, 76, 90
27, 613839, Note_on_c, 12, 76, 0
27, 613839, Note_on_c, 12, 77, 92
27, 613878, Note_on_c, 12, 77, 0
27, 613879, Note_on_c, 12, 79, 84
27, 613919, Note_on_c, 12, 79, 0
27, 613940, Note_on_c, 12, 79, 94
27, 614651, Note_on_c, 12, 77, 99
27, 614660, Note_on_c, 12, 79, 0
27, 614883, Note_on_c, 12, 76, 99
27, 614891, Note_on_c, 12, 77, 0
27, 615123, Note_on_c, 12, 76, 0
27, 615126, Note_on_c, 12, 74, 108
27, 615366, Note_on_c, 12, 74, 0
27, 615367, Note_on_c, 12, 76, 94
27, 615607, Note_on_c, 12, 76, 0
27, 615607, Note_on_c, 12, 77, 96
27, 615841, Note_on_c, 12, 79, 95
27, 615847, Note_on_c, 12, 77, 0
27, 616321, Note_on_c, 12, 79, 0
27, 616321, Note_on_c, 12, 77, 101
27, 616561, Note_on_c, 12, 77, 0
27, 616580, Note_on_c, 12, 76, 108
27, 616811, Note_on_c, 12, 74, 98
27, 616820, Note_on_c, 12, 76, 0
27, 617291, Note_on_c, 12, 74, 0
27, 617291, Note_on_c, 12, 76, 104
27, 617531, Note_on_c, 12, 76, 0
27, 617542, Note_on_c, 12, 77, 110
27, 617774, Note_on_c, 12, 79, 102
27, 617782, Note_on_c, 12, 77, 0
27, 618242, Note_on_c, 12, 77, 95
27, 618254, Note_on_c, 12, 79, 0
27, 618482, Note_on_c, 12, 77, 0
27, 618487, Note_on_c, 12, 76, 100
27, 618727, Note_on_c, 12, 76, 0
27, 618738, Note_on_c, 12, 74, 109
27, 619215, Note_on_c, 12, 76, 107
27, 619218, Note_on_c, 12, 74, 0
27, 619449, Note_on_c, 12, 77, 103
27, 619455, Note_on_c, 12, 76, 0
27, 619689, Note_on_c, 12, 77, 0
27, 619692, Note_on_c, 12, 79, 104
27, 620412, Note_on_c, 12, 79, 0
27, 620423, Note_on_c, 12, 77, 98
27, 620653, Note_on_c, 12, 76, 102
27, 620663, Note_on_c, 12, 77, 0
27, 620893, Note_on_c, 12, 76, 0
27, 620901, Note_on_c, 12, 74, 109
27, 621129, Note_on_c, 12, 76, 93
27, 621141, Note_on_c, 12, 74, 0
27, 621369, Note_on_c, 12, 76, 0
27, 621370, Note_on_c, 12, 77, 94
27, 621610, Note_on_c, 12, 77, 0
27, 621614, Note_on_c, 12, 79, 107
27, 622094, Note_on_c, 12, 79, 0
27, 622098, Note_on_c, 12, 77, 91
27, 622324, Note_on_c, 12, 76, 110
27, 622338, Note_on_c, 12, 77, 0
27, 622564, Note_on_c, 12, 76, 0
27, 622565, Note_on_c, 12, 74, 99
27, 623045, Note_on_c, 12, 74, 0
27, 623526, Note_on_c, 12, 83, 99
27, 623606, Note_on_c, 12, 83, 0
27, 623696, Note_on_c, 12, 81, 108
27, 623777, Note_on_c, 12, 81, 0
27, 623850, Note_on_c, 12, 79, 108
27, 623930, Note_on_c, 12, 79, 0
27, 624005, Note_on_c, 12, 77, 97
27, 624085, Note_on_c, 12, 77, 0
27, 624165, Note_on_c, 12, 76, 109
27, 624246, Note_on_c, 12, 76, 0
27, 654264, Note_on_c, 12, 59, 95
27, 654497, Note_on_c, 12, 56, 108
27, 654504, Note_on_c, 12, 59, 0
27, 654737, Note_on_c, 12, 56, 0
27, 654744, Note_on_c, 12, 63, 110
27, 654961, Note_on_c, 12, 60, 110
27, 654984, Note_on_c, 12, 63, 0
27, 655201, Note_on_c, 12, 60, 0
27, 655217, Note_on_c, 12, 61, 108
27, 655453, Note_on_c, 12, 58, 93
27, 655457, Note_on_c, 12, 61, 0
27, 655690, Note_on_c, 12, 65, 102
27, 655693, Note_on_c, 12, 58, 0
27, 655930, Note_on_c, 12, 65, 0
27, 655934, Note_on_c, 12, 62, 99
27, 656163, Note_on_c, 12, 59, 95
27, 656174, Note_on_c, 12, 62, 0
27, 656403, Note_on_c, 12, 59, 0
27, 656409, Note_on_c, 12, 55, 110
27, 656649, Note_on_c, 12, 55, 0
27, 656664, Note_on_c, 12, 60, 107
27, 656880, Note_on_c, 12, 56, 102
27, 656904, Note_on_c, 12, 60, 0
27, 657120, Note_on_c, 12, 56, 0
27, 657123, Note_on_c, 12, 61, 99
27, 657363, Note_on_c, 12, 61, 0
27, 657384, Note_on_c, 12, 57, 97
27, 657615, Note_on_c, 12, 63, 100
27, 657624, Note_on_c, 12, 57, 0
27, 657852, Note_on_c, 12, 59, 91
27, 657855, Note_on_c, 12, 63, 0
27, 658092, Note_on_c, 12, 59, 0
27, 658099, Note_on_c, 12, 62, 101
27, 658338, Note_on_c, 12, 59, 91
27, 658339, Note_on_c, 12, 62, 0
27, 658574, Note_on_c, 12, 66, 109
27, 658578, Note_on_c, 12, 59, 0
27, 658802, Note_on_c, 12, 63, 91
27, 658814, Note_on_c, 12, 66, 0
27, 659042, Note_on_c, 12, 63, 0
27, 659053, Note_on_c, 12, 64, 111
27, 659293, Note_on_c, 12, 64, 0
27, 659297, Note_on_c, 12, 61, 95
27, 659537, Note_on_c, 12, 61, 0
27, 659545, Note_on_c, 12, 68, 96
27, 659772, Note_on_c, 12, 65, 99
27, 659785, Note_on_c, 12, 68, 0
27, 660010, Note_on_c, 12, 62, 100
27, 660012, Note_on_c, 12, 65, 0
27, 660250, Note_on_c, 12, 62, 0
27, 660255, Note_on_c, 12, 59, 98
27, 660489, Note_on_c, 12, 63, 104
27, 660495, Note_on_c, 12, 59, 0
27, 660729, Note_on_c, 12, 63, 0
27, 660738, Note_on_c, 12, 60, 106
27, 660969, Note_on_c, 12, 64, 110
27, 660978, Note_on_c, 12, 60, 0
27, 661209, Note_on_c, 12, 64, 0
27, 661213, Note_on_c, 12, 61, 101
27, 661453, Note_on_c, 12, 61, 0
27, 661454, Note_on_c, 12, 66, 101
27, 661692, Note_on_c, 12, 63, 97
27, 661694, Note_on_c, 12, 66, 0
27, 661932, Note_on_c, 12, 63, 0
27, 661945, Note_on_c, 12, 65, 102
27, 662173, Note_on_c, 12, 62, 105
27, 662185, Note_on_c, 12, 65, 0
27, 662413, Note_on_c, 12, 62, 0
27, 662424, Note_on_c, 12, 69, 100
27, 662642, Note_on_c, 12, 66, 101
27, 662664, Note_on_c, 12, 69, 0
27, 662882, Note_on_c, 12, 66, 0
27, 662888, Note_on_c, 12, 67, 96
27, 663122, Note_on_c, 12, 64, 94
27, 663128, Note_on_c, 12, 67, 0
27, 663362, Note_on_c, 12, 64, 0
27, 663381, Note_on_c, 12, 71, 94
27, 663614, Note_on_c, 12, 68, 99
27, 663621, Note_on_c, 12, 71, 0
27, 663854, Note_on_c, 12, 68, 0
27, 663857, Note_on_c, 12, 65, 92
27, 664080, Note_on_c, 12, 62, 100
27, 664097, Note_on_c, 12, 65, 0
27, 664320, Note_on_c, 12, 62, 0
27, 664322, Note_on_c, 12, 66, 101
27, 664562, Note_on_c, 12, 66, 0
27, 664569, Note_on_c, 12, 63, 94
27, 664808, Note_on_c, 12, 67, 103
27, 664809, Note_on_c, 12, 63, 0
27, 665048, Note_on_c, 12, 67, 0
27, 665048, Note_on_c, 12, 64, 101
27, 665280, Note_on_c, 12, 69, 109
27, 665288, Note_on_c, 12, 64, 0
27, 665520, Note_on_c, 12, 69, 0
27, 665521, Note_on_c, 12, 66, 105
27, 665761, Note_on_c, 12, 66, 0
27, 665765, Note_on_c, 12, 89, 93
27, 665833, Note_on_c, 12, 89, 0
27, 665833, Note_on_c, 12, 89, 91
27, 665901, Note_on_c, 12, 89, 0
27, 665917, Note_on_c, 12, 89, 104
27, 665985, Note_on_c, 12, 89, 0
27, 665986, Note_on_c, 12, 89, 102
27, 666054, Note_on_c, 12, 89, 0
27, 666057, Note_on_c, 12, 89, 111
27, 666108, Note_on_c, 12, 89, 111
27, 666125, Note_on_c, 12, 89, 0
27, 666174, Note_on_c, 12, 89, 101
27, 666176, Note_on_c, 12, 89, 0
27, 666239, Note_on_c, 12, 89, 0
27, 666255, Note_on_c, 12, 87, 92
27, 666314, Note_on_c, 12, 87, 97
27, 666323, Note_on_c, 12, 87, 0
27, 666382, Note_on_c, 12, 87, 0
27, 666388, Note_on_c, 12, 87, 102
27, 666456, Note_on_c, 12, 87, 0
27, 666461, Note_on_c, 12, 87, 106
27, 666525, Note_on_c, 12, 87, 105
27, 666529, Note_on_c, 12, 87, 0
27, 666593, Note_on_c, 12, 87, 0
27, 666600, Note_on_c, 12, 87, 100
27, 666657, Note_on_c, 12, 87, 107
27, 666668, Note_on_c, 12, 87, 0
27, 666722, Note_on_c, 12, 87, 0
27, 666736, Note_on_c, 12, 85, 100
27, 666803, Note_on_c, 12, 85, 111
27, 666804, Note_on_c, 12, 85, 0
27, 666871, Note_on_c, 12, 85, 0
27, 666877, Note_on_c, 12, 85, 92
27, 666929, Note_on_c, 12, 85, 94
27, 666945, Note_on_c, 12, 85, 0
27, 666993, Note_on_c, 12, 85, 92
27, 666997, Note_on_c, 12, 85, 0
27, 667061, Note_on_c, 12, 85, 0
27, 667076, Note_on_c, 12, 85, 100
27, 667144, Note_on_c, 12, 85, 0
27, 667153, Note_on_c, 12, 85, 108
27, 667218, Note_on_c, 12, 85, 0
27, 667224, Note_on_c, 12, 83, 99
27, 667274, Note_on_c, 12, 83, 92
27, 667292, Note_on_c, 12, 83, 0
27, 667342, Note_on_c, 12, 83, 0
27, 667342, Note_on_c, 12, 83, 93
27, 667406, Note_on_c, 12, 83, 105
27, 667410, Note_on_c, 12, 83, 0
27, 667474, Note_on_c, 12, 83, 0
27, 667489, Note_on_c, 12, 83, 96
27, 667557, Note_on_c, 12, 83, 0
27, 667563, Note_on_c, 12, 83, 95
27, 667615, Note_on_c, 12, 83, 110
27, 667631, Note_on_c, 12, 83, 0
27, 667680, Note_on_c, 12, 83, 0
27, 667699, Note_on_c, 12, 91, 109
27, 667755, Note_on_c, 12, 91, 92
27, 667767, Note_on_c, 12, 91, 0
27, 667823, Note_on_c, 12, 91, 0
27, 667825, Note_on_c, 12, 91, 110
27, 667893, Note_on_c, 12, 91, 0
27, 667895, Note_on_c, 12, 91, 99
27, 667963, Note_on_c, 12, 91, 0
27, 667973, Note_on_c, 12, 91, 91
27, 668025, Note_on_c, 12, 91, 105
27, 668041, Note_on_c, 12, 91, 0
27, 668093, Note_on_c, 12, 91, 0
27, 668096, Note_on_c, 12, 91, 98
27, 668161, Note_on_c, 12, 91, 0
27, 668166, Note_on_c, 12, 90, 105
27, 668234, Note_on_c, 12, 90, 0
27, 668248, Note_on_c, 12, 90, 93
27, 668303, Note_on_c, 12, 90, 99
27, 668316, Note_on_c, 12, 90, 0
27, 668366, Note_on_c, 12, 90, 102
27, 668371, Note_on_c, 12, 90, 0
27, 668434, Note_on_c, 12, 90, 0
27, 668456, Note_on_c, 12, 90, 109
27, 668513, Note_on_c, 12, 90, 100
27, 668524, Note_on_c, 12, 90, 0
27, 668575, Note_on_c, 12, 90, 91
27, 668581, Note_on_c, 12, 90, 0
27, 668640, Note_on_c, 12, 90, 0
27, 668664, Note_on_c, 12, 88, 105
27, 668712, Note_on_c, 12, 88, 92
27, 668732, Note_on_c, 12, 88, 0
27, 668780, Note_on_c, 12, 88, 0
27, 668787, Note_on_c, 12, 88, 92
27, 668848, Note_on_c, 12, 88, 104
27, 668855, Note_on_c, 12, 88, 0
27, 668916, Note_on_c, 12, 88, 0
27, 668923, Note_on_c, 12, 88, 110
27, 668991, Note_on_c, 12, 88, 0
27, 668998, Note_on_c, 12, 88, 110
27, 669055, Note_on_c, 12, 88, 93
27, 669066, Note_on_c, 12, 88, 0
27, 669120, Note_on_c, 12, 88, 0
27, 669134, Note_on_c, 12, 87, 93
27, 669202, Note_on_c, 12, 87, 0
27, 669203, Note_on_c, 12, 87, 108
27, 669265, Note_on_c, 12, 87, 91
27, 669271, Note_on_c, 12, 87, 0
27, 669329, Note_on_c, 12, 87, 96
27, 669333, Note_on_c, 12, 87, 0
27, 669394, Note_on_c, 12, 87, 98
27, 669397, Note_on_c, 12, 87, 0
27, 669462, Note_on_c, 12, 87, 0
27, 669484, Note_on_c, 12, 87, 110
27, 669533, Note_on_c, 12, 87, 106
27, 669552, Note_on_c, 12, 87, 0
27, 669598, Note_on_c, 12, 87, 0
27, 669621, Note_on_c, 12, 89, 94
27, 669689, Note_on_c, 12, 89, 0
27, 669691, Note_on_c, 12, 89, 92
27, 669750, Note_on_c, 12, 89, 99
27, 669759, Note_on_c, 12, 89, 0
27, 669818, Note_on_c, 12, 89, 0
27, 669830, Note_on_c, 12, 89, 96
27, 669887, Note_on_c, 12, 89, 92
27, 669898, Note_on_c, 12, 89, 0
27, 669955, Note_on_c, 12, 89, 0
27, 669961, Note_on_c, 12, 89, 97
27, 670018, Note_on_c, 12, 89, 99
27, 670029, Note_on_c, 12, 89, 0
27, 670083, Note_on_c, 12, 89, 0
27, 670099, Note_on_c, 12, 87, 99
27, 670148, Note_on_c, 12, 87, 95
27, 670167, Note_on_c, 12, 87, 0
27, 670216, Note_on_c, 12, 87, 0
27, 670222, Note_on_c, 12, 87, 103
27, 670290, Note_on_c, 12, 87, 0
27, 670290, Note_on_c, 12, 87, 104
27, 670358, Note_on_c, 12, 87, 0
27, 670365, Note_on_c, 12, 87, 102
27, 670433, Note_on_c, 12, 87, 0
27, 670443, Note_on_c, 12, 87, 102
27, 670507, Note_on_c, 12, 87, 103
27, 670511, Note_on_c, 12, 87, 0
27, 670561, Note_on_c, 12, 85, 99
27, 670572, Note_on_c, 12, 87, 0
27, 670629, Note_on_c, 12, 85, 0
27, 670642, Note_on_c, 12, 85, 109
27, 670710, Note_on_c, 12, 85, 0
27, 670720, Note_on_c, 12, 85, 96
27, 670782, Note_on_c, 12, 85, 107
27, 670788, Note_on_c, 12, 85, 0
27, 670850, Note_on_c, 12, 85, 0
27, 670857, Note_on_c, 12, 85, 106
27, 670925, Note_on_c, 12, 85, 0
27, 670926, Note_on_c, 12, 85, 91
27, 670972, Note_on_c, 12, 85, 110
27, 670994, Note_on_c, 12, 85, 0
27, 671037, Note_on_c, 12, 85, 0
27, 671050, Note_on_c, 12, 83, 97
27, 671113, Note_on_c, 12, 83, 109
27, 671118, Note_on_c, 12, 83, 0
27, 671177, Note_on_c, 12, 83, 109
27, 671181, Note_on_c, 12, 83, 0
27, 671245, Note_on_c, 12, 83, 0
27, 671257, Note_on_c, 12, 83, 97
27, 671325, Note_on_c, 12, 83, 0
27, 671338, Note_on_c, 12, 83, 96
27, 671404, Note_on_c, 12, 83, 99
27, 671406, Note_on_c, 12, 83, 0
27, 671472, Note_on_c, 12, 83, 0
27, 671474, Note_on_c, 12, 83, 109
27, 671539, Note_on_c, 12, 83, 0
27, 671543, Note_on_c, 12, 91, 91
27, 671596, Note_on_c, 12, 91, 111
27, 671611, Note_on_c, 12, 91, 0
27, 671664, Note_on_c, 12, 91, 0
27, 671665, Note_on_c, 12, 91, 103
27, 671726, Note_on_c, 12, 91, 98
27, 671733, Note_on_c, 12, 91, 0
27, 671794, Note_on_c, 12, 91, 0
27, 671818, Note_on_c, 12, 91, 98
27, 671882, Note_on_c, 12, 91, 99
27, 671886, Note_on_c, 12, 91, 0
27, 671936, Note_on_c, 12, 91, 95
27, 671950, Note_on_c, 12, 91, 0
27, 672001, Note_on_c, 12, 91, 0
27, 672017, Note_on_c, 12, 90, 102
27, 672085, Note_on_c, 12, 90, 0
27, 672092, Note_on_c, 12, 90, 103
27, 672149, Note_on_c, 12, 90, 93
27, 672160, Note_on_c, 12, 90, 0
27, 672217, Note_on_c, 12, 90, 0
27, 672226, Note_on_c, 12, 90, 92
27, 672285, Note_on_c, 12, 90, 97
27, 672294, Note_on_c, 12, 90, 0
27, 672353, Note_on_c, 12, 90, 0
27, 672366, Note_on_c, 12, 90, 110
27, 672421, Note_on_c, 12, 90, 92
27, 672434, Note_on_c, 12, 90, 0
27, 672486, Note_on_c, 12, 90, 0
27, 672501, Note_on_c, 12, 88, 93
27, 672556, Note_on_c, 12, 88, 100
27, 672569, Note_on_c, 12, 88, 0
27, 672624, Note_on_c, 12, 88, 0
27, 672639, Note_on_c, 12, 88, 95
27, 672691, Note_on_c, 12, 88, 96
27, 672707, Note_on_c, 12, 88, 0
27, 672759, Note_on_c, 12, 88, 0
27, 672773, Note_on_c, 12, 88, 93
27, 672841, Note_on_c, 12, 88, 0
27, 672843, Note_on_c, 12, 88, 99
27, 672911, Note_on_c, 12, 88, 0
27, 672914, Note_on_c, 12, 88, 102
27, 672963, Note_on_c, 12, 87, 107
27, 672979, Note_on_c, 12, 88, 0
27, 673031, Note_on_c, 12, 87, 0
27, 673032, Note_on_c, 12, 87, 101
27, 673100, Note_on_c, 12, 87, 0
27, 673114, Note_on_c, 12, 87, 92
27, 673175, Note_on_c, 12, 87, 101
27, 673182, Note_on_c, 12, 87, 0
27, 673239, Note_on_c, 12, 87, 104
27, 673243, Note_on_c, 12, 87, 0
27, 673307, Note_on_c, 12, 87, 0
27, 673317, Note_on_c, 12, 87, 104
27, 673375, Note_on_c, 12, 87, 111
27, 673385, Note_on_c, 12, 87, 0
27, 673440, Note_on_c, 12, 87, 0
27, 673452, Note_on_c, 12, 89, 96
27, 673514, Note_on_c, 12, 89, 98
27, 673520, Note_on_c, 12, 89, 0
27, 673576, Note_on_c, 12, 89, 111
27, 673582, Note_on_c, 12, 89, 0
27, 673644, Note_on_c, 12, 89, 0
27, 673656, Note_on_c, 12, 89, 104
27, 673724, Note_on_c, 12, 89, 0
27, 673736, Note_on_c, 12, 89, 94
27, 673796, Note_on_c, 12, 89, 110
27, 673804, Note_on_c, 12, 89, 0
27, 673858, Note_on_c, 12, 89, 106
27, 673864, Note_on_c, 12, 89, 0
27, 673923, Note_on_c, 12, 89, 0
27, 673940, Note_on_c, 12, 87, 99
27, 673993, Note_on_c, 12, 87, 102
27, 674008, Note_on_c, 12, 87, 0
27, 674061, Note_on_c, 12, 87, 0
27, 674080, Note_on_c, 12, 87, 93
27, 674144, Note_on_c, 12, 87, 96
27, 674148, Note_on_c, 12, 87, 0
27, 674193, Note_on_c, 12, 87, 95
27, 674212, Note_on_c, 12, 87, 0
27, 674261, Note_on_c, 12, 87, 0
27, 674261, Note_on_c, 12, 87, 95
27, 674329, Note_on_c, 12, 87, 0
27, 674335, Note_on_c, 12, 87, 97
27, 674400, Note_on_c, 12, 87, 0
27, 674402, Note_on_c, 12, 85, 91
27, 674470, Note_on_c, 12, 85, 0
27, 674471, Note_on_c, 12, 85, 110
27, 674539, Note_on_c, 12, 85, 0
27, 674542, Note_on_c, 12, 85, 111
27, 674610, Note_on_c, 12, 85, 0
27, 674611, Note_on_c, 12, 85, 96
27, 674675, Note_on_c, 12, 85, 99
27, 674679, Note_on_c, 12, 85, 0
27, 674743, Note_on_c, 12, 85, 0
27, 674749, Note_on_c, 12, 85, 92
27, 674817, Note_on_c, 12, 85, 0
27, 674830, Note_on_c, 12, 85, 100
27, 674895, Note_on_c, 12, 85, 0
27, 674900, Note_on_c, 12, 83, 95
27, 674953, Note_on_c, 12, 83, 98
27, 674968, Note_on_c, 12, 83, 0
27, 675021, Note_on_c, 12, 83, 0
27, 675022, Note_on_c, 12, 83, 108
27, 675090, Note_on_c, 12, 83, 0
27, 675093, Note_on_c, 12, 83, 95
27, 675159, Note_on_c, 12, 83, 95
27, 675161, Note_on_c, 12, 83, 0
27, 675227, Note_on_c, 12, 83, 0
27, 675241, Note_on_c, 12, 83, 106
27, 675309, Note_on_c, 12, 83, 0
27, 675313, Note_on_c, 12, 83, 103
27, 675361, Note_on_c, 12, 91, 96
27, 675378, Note_on_c, 12, 83, 0
27, 675429, Note_on_c, 12, 91, 0
27, 675449, Note_on_c, 12, 91, 94
27, 675510, Note_on_c, 12, 91, 94
27, 675517, Note_on_c, 12, 91, 0
27, 675578, Note_on_c, 12, 91, 0
27, 675585, Note_on_c, 12, 91, 92
27, 675646, Note_on_c, 12, 91, 109
27, 675653, Note_on_c, 12, 91, 0
27, 675713, Note_on_c, 12, 91, 96
27, 675714, Note_on_c, 12, 91, 0
27, 675781, Note_on_c, 12, 91, 0
27, 675790, Note_on_c, 12, 91, 98
27, 675855, Note_on_c, 12, 91, 0
27, 675856, Note_on_c, 12, 90, 108
27, 675909, Note_on_c, 12, 90, 106
27, 675924, Note_on_c, 12, 90, 0
27, 675977, Note_on_c, 12, 90, 0
27, 675991, Note_on_c, 12, 90, 105
27, 676059, Note_on_c, 12, 90, 0
27, 676068, Note_on_c, 12, 90, 105
27, 676123, Note_on_c, 12, 90, 97
27, 676136, Note_on_c, 12, 90, 0
27, 676191, Note_on_c, 12, 90, 0
27, 676196, Note_on_c, 12, 90, 94
27, 676251, Note_on_c, 12, 90, 110
27, 676264, Note_on_c, 12, 90, 0
27, 676316, Note_on_c, 12, 90, 0
27, 676338, Note_on_c, 12, 88, 102
27, 676395, Note_on_c, 12, 88, 101
27, 676406, Note_on_c, 12, 88, 0
27, 676458, Note_on_c, 12, 88, 110
27, 676463, Note_on_c, 12, 88, 0
27, 676526, Note_on_c, 12, 88, 0
27, 676534, Note_on_c, 12, 88, 95
27, 676602, Note_on_c, 12, 88, 0
27, 676610, Note_on_c, 12, 88, 99
27, 676673, Note_on_c, 12, 88, 93
27, 676678, Note_on_c, 12, 88, 0
27, 676741, Note_on_c, 12, 88, 0
27, 676755, Note_on_c, 12, 88, 104
27, 676812, Note_on_c, 12, 87, 99
27, 676820, Note_on_c, 12, 88, 0
27, 676880, Note_on_c, 12, 87, 0
27, 676884, Note_on_c, 12, 87, 109
27, 676950, Note_on_c, 12, 87, 100
27, 676952, Note_on_c, 12, 87, 0
27, 677014, Note_on_c, 12, 87, 94
27, 677018, Note_on_c, 12, 87, 0
27, 677074, Note_on_c, 12, 87, 92
27, 677082, Note_on_c, 12, 87, 0
27, 677142, Note_on_c, 12, 87, 0
27, 677153, Note_on_c, 12, 87, 105
27, 677219, Note_on_c, 12, 87, 105
27, 677221, Note_on_c, 12, 87, 0
27, 677284, Note_on_c, 12, 87, 0
27, 683040, Program_c, 12, 40
27, 684960, Control_c, 12, 11, 32
27, 684980, Control_c, 12, 11, 33
27, 685000, Control_c, 12, 11, 34
27, 685020, Control_c, 12, 11, 35
27, 685040, Control_c, 12, 11, 36
27, 685061, Control_c, 12, 11, 37
27, 685081, Control_c, 12, 11, 38
27, 685101, Control_c, 12, 11, 39
27, 685121, Control_c, 12, 11, 40
27, 685141, Control_c, 12, 11, 41
27, 685161, Control_c, 12, 11, 42
27, 685181, Control_c, 12, 11, 43
27, 685201, Control_c, 12, 11, 44
27, 685222, Control_c, 12, 11, 45
27, 685243, Control_c, 12, 11, 46
27, 685263, Control_c, 12, 11, 47
27, 685283, Control_c, 12, 11, 48
27, 685303, Control_c, 12, 11, 49
27, 685323, Control_c, 12, 11, 50
27, 685343, Control_c, 12, 11, 51
27, 685363, Control_c, 12, 11, 52
27, 685383, Control_c, 12, 11, 53
27, 685404, Control_c, 12, 11, 54
27, 685425, Control_c, 12, 11, 55
27, 685445, Control_c, 12, 11, 56
27, 685453, Note_on_c, 12, 88, 15
27, 685465, Control_c, 12, 11, 57
27, 685485, Control_c, 12, 11, 58
27, 685505, Control_c, 12, 11, 59
27, 685525, Control_c, 12, 11, 60
27, 685545, Control_c, 12, 11, 61
27, 685565, Control_c, 12, 11, 62
27, 685586, Control_c, 12, 11, 63
27, 685606, Control_c, 12, 11, 64
27, 685626, Control_c, 12, 11, 65
27, 685646, Control_c, 12, 11, 66
27, 685666, Control_c, 12, 11, 67
27, 685687, Control_c, 12, 11, 68
27, 685707, Control_c, 12, 11, 69
27, 685727, Control_c, 12, 11, 70
27, 685748, Control_c, 12, 11, 71
27, 685768, Control_c, 12, 11, 72
27, 685788, Control_c, 12, 11, 73
27, 685808, Control_c, 12, 11, 74
27, 685828, Control_c, 12, 11, 75
27, 685848, Control_c, 12, 11, 76
27, 685869, Control_c, 12, 11, 77
27, 685889, Control_c, 12, 11, 78
27, 685909, Control_c, 12, 11, 79
27, 685930, Control_c, 12, 11, 80
27, 685950, Control_c, 12, 11, 81
27, 685970, Control_c, 12, 11, 82
27, 685990, Control_c, 12, 11, 83
27, 686010, Control_c, 12, 11, 84
27, 686030, Control_c, 12, 11, 85
27, 686051, Control_c, 12, 11, 86
27, 686071, Control_c, 12, 11, 87
27, 686091, Control_c, 12, 11, 88
27, 686111, Control_c, 12, 11, 89
27, 686131, Control_c, 12, 11, 90
27, 686152, Control_c, 12, 11, 91
27, 686172, Control_c, 12, 11, 92
27, 686192, Control_c, 12, 11, 93
27, 686212, Control_c, 12, 11, 94
27, 686233, Control_c, 12, 11, 95
27, 686253, Control_c, 12, 11, 96
27, 686273, Control_c, 12, 11, 97
27, 686293, Control_c, 12, 11, 98
27, 686313, Control_c, 12, 11, 99
27, 686334, Control_c, 12, 11, 100
27, 686354, Control_c, 12, 11, 101
27, 686374, Control_c, 12, 11, 102
27, 686394, Control_c, 12, 11, 103
27, 686415, Control_c, 12, 11, 104
27, 686435, Control_c, 12, 11, 105
27, 686455, Control_c, 12, 11, 106
27, 686475, Control_c, 12, 11, 107
27, 686495, Control_c, 12, 11, 108
27, 686516, Control_c, 12, 11, 109
27, 686536, Control_c, 12, 11, 110
27, 686556, Control_c, 12, 11, 111
27, 686576, Control_c, 12, 11, 112
27, 686596, Control_c, 12, 11, 113
27, 686616, Control_c, 12, 11, 114
27, 686637, Control_c, 12, 11, 115
27, 686657, Control_c, 12, 11, 116
27, 686677, Control_c, 12, 11, 117
27, 686698, Control_c, 12, 11, 118
27, 686718, Control_c, 12, 11, 119
27, 686738, Control_c, 12, 11, 120
27, 686758, Control_c, 12, 11, 121
27, 686778, Control_c, 12, 11, 122
27, 686799, Control_c, 12, 11, 123
27, 686819, Control_c, 12, 11, 124
27, 686839, Control_c, 12, 11, 125
27, 686859, Control_c, 12, 11, 126
27, 686880, Program_c, 12, 48
27, 686893, Note_on_c, 12, 88, 0
27, 688551, Control_c, 12, 101, 0
27, 688552, Control_c, 12, 100, 0
27, 688553, Control_c, 12, 6, 12
27, 688554, Control_c, 12, 38, 0
27, 688680, Control_c, 12, 36, 12
27, 689283, Note_on_c, 12, 55, 90
27, 689303, Pitch_bend_c, 12, 8512
27, 689325, Pitch_bend_c, 12, 8832
27, 689346, Pitch_bend_c, 12, 9152
27, 689368, Pitch_bend_c, 12, 9472
27, 689388, Pitch_bend_c, 12, 9792
27, 689410, Pitch_bend_c, 12, 10112
27, 689431, Pitch_bend_c, 12, 10432
27, 689453, Pitch_bend_c, 12, 10752
27, 689474, Pitch_bend_c, 12, 11072
27, 689495, Pitch_bend_c, 12, 11392
27, 689516, Pitch_bend_c, 12, 11712
27, 689538, Pitch_bend_c, 12, 12032
27, 689559, Pitch_bend_c, 12, 12352
27, 689580, Pitch_bend_c, 12, 12672
27, 689602, Pitch_bend_c, 12, 12992
27, 689623, Pitch_bend_c, 12, 13312
27, 689645, Pitch_bend_c, 12, 13632
27, 689666, Pitch_bend_c, 12, 13952
27, 689686, Pitch_bend_c, 12, 14272
27, 689708, Pitch_bend_c, 12, 14592
27, 689730, Pitch_bend_c, 12, 14912
27, 689751, Pitch_bend_c, 12, 15232
27, 689760, Pitch_bend_c, 12, 8192
27, 689763, Note_on_c, 12, 55, 0
27, 690259, Note_on_c, 12, 76, 99
27, 690260, Note_on_c, 12, 78, 106
27, 690263, Note_on_c, 12, 64, 95
27, 690739, Note_on_c, 12, 76, 0
27, 690740, Note_on_c, 12, 78, 0
27, 690743, Note_on_c, 12, 64, 0
27, 691204, Note_on_c, 12, 64, 103
27, 691204, Note_on_c, 12, 76, 114
27, 691213, Note_on_c, 12, 78, 111
27, 691684, Note_on_c, 12, 64, 0
27, 691684, Note_on_c, 12, 76, 0
27, 691693, Note_on_c, 12, 78, 0
27, 692405, Note_on_c, 12, 76, 97
27, 692413, Note_on_c, 12, 64, 101
27, 692418, Note_on_c, 12, 78, 104
27, 692645, Note_on_c, 12, 76, 0
27, 692653, Note_on_c, 12, 64, 0
27, 692658, Note_on_c, 12, 78, 0
27, 693121, Note_on_c, 12, 64, 98
27, 693124, Note_on_c, 12, 76, 102
27, 693143, Note_on_c, 12, 78, 113
27, 693601, Note_on_c, 12, 64, 0
27, 693604, Note_on_c, 12, 76, 0
27, 693623, Note_on_c, 12, 78, 0
27, 694083, Note_on_c, 12, 74, 107
27, 694090, Note_on_c, 12, 69, 110
27, 694099, Note_on_c, 12, 78, 112
27, 694563, Note_on_c, 12, 74, 0
27, 694570, Note_on_c, 12, 69, 0
27, 694571, Note_on_c, 12, 69, 113
27, 694574, Note_on_c, 12, 76, 107
27, 694574, Note_on_c, 12, 80, 111
27, 694579, Note_on_c, 12, 78, 0
27, 695051, Note_on_c, 12, 69, 0
27, 695054, Note_on_c, 12, 76, 0
27, 695054, Note_on_c, 12, 80, 0
27, 695529, Note_on_c, 12, 66, 96
27, 695534, Note_on_c, 12, 78, 107
27, 695686, Note_on_c, 12, 76, 114
27, 695687, Note_on_c, 12, 66, 108
27, 695688, Note_on_c, 12, 66, 0
27, 695693, Note_on_c, 12, 78, 0
27, 695846, Note_on_c, 12, 76, 0
27, 695847, Note_on_c, 12, 66, 0
27, 695849, Note_on_c, 12, 74, 102
27, 695861, Note_on_c, 12, 66, 106
27, 696000, Note_on_c, 12, 66, 101
27, 696008, Note_on_c, 12, 74, 0
27, 696020, Note_on_c, 12, 66, 0
27, 696022, Note_on_c, 12, 76, 110
27, 696480, Note_on_c, 12, 66, 0
27, 696492, Note_on_c, 12, 55, 91
27, 696502, Note_on_c, 12, 76, 0
27, 696572, Note_on_c, 12, 55, 0
27, 696574, Note_on_c, 12, 60, 81
27, 696641, Note_on_c, 12, 64, 83
27, 696653, Note_on_c, 12, 60, 0
27, 696721, Note_on_c, 12, 64, 0
27, 696745, Note_on_c, 12, 67, 84
27, 696811, Note_on_c, 12, 72, 80
27, 696825, Note_on_c, 12, 67, 0
27, 696884, Note_on_c, 12, 76, 89
27, 696890, Note_on_c, 12, 72, 0
27, 696964, Note_on_c, 12, 76, 0
27, 697441, Note_on_c, 12, 74, 109
27, 697446, Note_on_c, 12, 69, 96
27, 697449, Note_on_c, 12, 78, 97
27, 697921, Note_on_c, 12, 74, 0
27, 697925, Note_on_c, 12, 55, 95
27, 697926, Note_on_c, 12, 69, 0
27, 697929, Note_on_c, 12, 78, 0
27, 698005, Note_on_c, 12, 55, 0
27, 698022, Note_on_c, 12, 60, 78
27, 698089, Note_on_c, 12, 64, 93
27, 698101, Note_on_c, 12, 60, 0
27, 698169, Note_on_c, 12, 64, 0
27, 698184, Note_on_c, 12, 67, 92
27, 698250, Note_on_c, 12, 72, 86
27, 698264, Note_on_c, 12, 67, 0
27, 698325, Note_on_c, 12, 76, 98
27, 698329, Note_on_c, 12, 72, 0
27, 698405, Note_on_c, 12, 76, 0
27, 698883, Note_on_c, 12, 80, 98
27, 698885, Note_on_c, 12, 76, 94
27, 698899, Note_on_c, 12, 69, 86
27, 699363, Note_on_c, 12, 80, 0
27, 699365, Note_on_c, 12, 76, 0
27, 699368, Note_on_c, 12, 72, 81
27, 699374, Note_on_c, 12, 69, 83
27, 699379, Note_on_c, 12, 69, 0
27, 699384, Note_on_c, 12, 76, 88
27, 699848, Note_on_c, 12, 72, 0
27, 699854, Note_on_c, 12, 69, 0
27, 699864, Note_on_c, 12, 76, 0
27, 700332, Note_on_c, 12, 80, 96
27, 700332, Note_on_c, 12, 76, 97
27, 700342, Note_on_c, 12, 69, 96
27, 700812, Note_on_c, 12, 80, 0
27, 700812, Note_on_c, 12, 76, 0
27, 700822, Note_on_c, 12, 69, 0
27, 701282, Note_on_c, 12, 76, 98
27, 701283, Note_on_c, 12, 64, 84
27, 701284, Note_on_c, 12, 78, 90
27, 701762, Note_on_c, 12, 76, 0
27, 701763, Note_on_c, 12, 64, 0
27, 701764, Note_on_c, 12, 78, 0
27, 702016, Note_on_c, 12, 78, 90
27, 702017, Note_on_c, 12, 64, 94
27, 702025, Note_on_c, 12, 76, 87
27, 702256, Note_on_c, 12, 78, 0
27, 702257, Note_on_c, 12, 64, 0
27, 702265, Note_on_c, 12, 76, 0
27, 703202, Note_on_c, 12, 78, 94
27, 703211, Note_on_c, 12, 64, 90
27, 703216, Note_on_c, 12, 76, 85
27, 703682, Note_on_c, 12, 78, 0
27, 703691, Note_on_c, 12, 64, 0
27, 703696, Note_on_c, 12, 76, 0
27, 704160, Note_on_c, 12, 78, 92
27, 704180, Note_on_c, 12, 69, 78
27, 704183, Note_on_c, 12, 74, 95
27, 704640, Note_on_c, 12, 78, 0
27, 704660, Note_on_c, 12, 69, 0
27, 704663, Note_on_c, 12, 74, 0
27, 706090, Note_on_c, 12, 80, 89
27, 706093, Note_on_c, 12, 69, 80
27, 706246, Note_on_c, 12, 78, 87
27, 706249, Note_on_c, 12, 80, 0
27, 706250, Note_on_c, 12, 69, 96
27, 706252, Note_on_c, 12, 69, 0
27, 706406, Note_on_c, 12, 78, 0
27, 706410, Note_on_c, 12, 69, 0
27, 706415, Note_on_c, 12, 69, 97
27, 706420, Note_on_c, 12, 76, 96
27, 706569, Note_on_c, 12, 69, 97
27, 706572, Note_on_c, 12, 78, 91
27, 706574, Note_on_c, 12, 69, 0
27, 706579, Note_on_c, 12, 76, 0
27, 707049, Note_on_c, 12, 69, 0
27, 707052, Note_on_c, 12, 78, 0
27, 707531, Note_on_c, 12, 80, 96
27, 707538, Note_on_c, 12, 69, 94
27, 707690, Note_on_c, 12, 80, 0
27, 707692, Note_on_c, 12, 69, 87
27, 707693, Note_on_c, 12, 78, 89
27, 707697, Note_on_c, 12, 69, 0
27, 707841, Note_on_c, 12, 69, 81
27, 707852, Note_on_c, 12, 69, 0
27, 707853, Note_on_c, 12, 78, 0
27, 707857, Note_on_c, 12, 76, 92
27, 708000, Note_on_c, 12, 69, 0
27, 708004, Note_on_c, 12, 69, 93
27, 708011, Note_on_c, 12, 78, 80
27, 708016, Note_on_c, 12, 76, 0
27, 708163, Note_on_c, 12, 69, 0
27, 708167, Note_on_c, 12, 76, 88
27, 708170, Note_on_c, 12, 78, 0
27, 708180, Note_on_c, 12, 69, 88
27, 708327, Note_on_c, 12, 76, 0
27, 708327, Note_on_c, 12, 74, 92
27, 708332, Note_on_c, 12, 69, 91
27, 708340, Note_on_c, 12, 69, 0
27, 708486, Note_on_c, 12, 74, 0
27, 708491, Note_on_c, 12, 69, 0
27, 708979, Note_on_c, 12, 55, 88
27, 709049, Note_on_c, 12, 60, 96
27, 709059, Note_on_c, 12, 55, 0
27, 709128, Note_on_c, 12, 60, 0
27, 709132, Note_on_c, 12, 64, 85
27, 709212, Note_on_c, 12, 64, 0
27, 709219, Note_on_c, 12, 67, 88
27, 709285, Note_on_c, 12, 72, 81
27, 709299, Note_on_c, 12, 67, 0
27, 709364, Note_on_c, 12, 72, 0
27, 709366, Note_on_c, 12, 76, 89
27, 709446, Note_on_c, 12, 76, 0
27, 710425, Note_on_c, 12, 69, 98
27, 710425, Note_on_c, 12, 80, 94
27, 710562, Note_on_c, 12, 69, 97
27, 710563, Note_on_c, 12, 78, 86
27, 710584, Note_on_c, 12, 69, 0
27, 710584, Note_on_c, 12, 80, 0
27, 710722, Note_on_c, 12, 69, 0
27, 710723, Note_on_c, 12, 78, 0
27, 710735, Note_on_c, 12, 76, 88
27, 710742, Note_on_c, 12, 69, 85
27, 710894, Note_on_c, 12, 76, 0
27, 710898, Note_on_c, 12, 69, 82
27, 710901, Note_on_c, 12, 69, 0
27, 710905, Note_on_c, 12, 78, 89
27, 711055, Note_on_c, 12, 76, 78
27, 711057, Note_on_c, 12, 69, 0
27, 711061, Note_on_c, 12, 69, 98
27, 711064, Note_on_c, 12, 78, 0
27, 711208, Note_on_c, 12, 69, 95
27, 711215, Note_on_c, 12, 76, 0
27, 711217, Note_on_c, 12, 74, 86
27, 711221, Note_on_c, 12, 69, 0
27, 711367, Note_on_c, 12, 69, 0
27, 711376, Note_on_c, 12, 74, 0
27, 711857, Note_on_c, 12, 55, 95
27, 711921, Note_on_c, 12, 60, 79
27, 711937, Note_on_c, 12, 55, 0
27, 712000, Note_on_c, 12, 60, 0
27, 712008, Note_on_c, 12, 64, 85
27, 712081, Note_on_c, 12, 67, 86
27, 712088, Note_on_c, 12, 64, 0
27, 712161, Note_on_c, 12, 67, 0
27, 712173, Note_on_c, 12, 72, 85
27, 712252, Note_on_c, 12, 72, 0
27, 712260, Note_on_c, 12, 76, 95
27, 712340, Note_on_c, 12, 76, 0
27, 712813, Note_on_c, 12, 78, 90
27, 712818, Note_on_c, 12, 64, 89
27, 712823, Note_on_c, 12, 76, 79
27, 713284, Note_on_c, 12, 64, 98
27, 713290, Note_on_c, 12, 78, 98
27, 713293, Note_on_c, 12, 78, 0
27, 713298, Note_on_c, 12, 64, 0
27, 713298, Note_on_c, 12, 76, 89
27, 713303, Note_on_c, 12, 76, 0
27, 713764, Note_on_c, 12, 64, 0
27, 713770, Note_on_c, 12, 78, 0
27, 713778, Note_on_c, 12, 76, 0
27, 714240, Note_on_c, 12, 76, 89
27, 714248, Note_on_c, 12, 64, 91
27, 714253, Note_on_c, 12, 78, 78
27, 714720, Note_on_c, 12, 76, 0
27, 714728, Note_on_c, 12, 64, 0
27, 714733, Note_on_c, 12, 78, 0
27, 715441, Note_on_c, 12, 76, 80
27, 715452, Note_on_c, 12, 64, 82
27, 715461, Note_on_c, 12, 78, 81
27, 715681, Note_on_c, 12, 76, 0
27, 715692, Note_on_c, 12, 64, 0
27, 715701, Note_on_c, 12, 78, 0
27, 716172, Note_on_c, 12, 78, 87
27, 716178, Note_on_c, 12, 64, 88
27, 716182, Note_on_c, 12, 76, 90
27, 716652, Note_on_c, 12, 78, 0
27, 716658, Note_on_c, 12, 64, 0
27, 716662, Note_on_c, 12, 76, 0
27, 717120, Note_on_c, 12, 78, 92
27, 717135, Note_on_c, 12, 76, 86
27, 717136, Note_on_c, 12, 64, 83
27, 717600, Note_on_c, 12, 78, 0
27, 717615, Note_on_c, 12, 76, 0
27, 717616, Note_on_c, 12, 64, 0
27, 717849, Note_on_c, 12, 64, 89
27, 717856, Note_on_c, 12, 78, 86
27, 717863, Note_on_c, 12, 76, 96
27, 718089, Note_on_c, 12, 64, 0
27, 718096, Note_on_c, 12, 78, 0
27, 718103, Note_on_c, 12, 76, 0
27, 719056, Note_on_c, 12, 64, 86
27, 719057, Note_on_c, 12, 76, 84
27, 719061, Note_on_c, 12, 78, 89
27, 719536, Note_on_c, 12, 64, 0
27, 719537, Note_on_c, 12, 76, 0
27, 719541, Note_on_c, 12, 78, 0
27, 720001, Note_on_c, 12, 78, 80
27, 720011, Note_on_c, 12, 64, 88
27, 720013, Note_on_c, 12, 76, 87
27, 720481, Note_on_c, 12, 78, 0
27, 720491, Note_on_c, 12, 64, 0
27, 720493, Note_on_c, 12, 76, 0
27, 720971, Note_on_c, 12, 78, 87
27, 720972, Note_on_c, 12, 64, 91
27, 720983, Note_on_c, 12, 76, 93
27, 721451, Note_on_c, 12, 78, 0
27, 721452, Note_on_c, 12, 64, 0
27, 721463, Note_on_c, 12, 76, 0
27, 732022, Note_on_c, 12, 65, 80
27, 732022, Note_on_c, 12, 65, 80
27, 732106, Note_on_c, 12, 65, 0
27, 732106, Note_on_c, 12, 65, 0
27, 732138, Note_on_c, 12, 65, 78
27, 732138, Note_on_c, 12, 65, 78
27, 732222, Note_on_c, 12, 65, 0
27, 732222, Note_on_c, 12, 65, 0
27, 732244, Note_on_c, 12, 67, 73
27, 732362, Note_on_c, 12, 68, 79
27, 732364, Note_on_c, 12, 67, 0
27, 732480, Note_on_c, 12, 70, 75
27, 732482, Note_on_c, 12, 68, 0
27, 732600, Note_on_c, 12, 70, 0
27, 732609, Note_on_c, 12, 68, 81
27, 732728, Note_on_c, 12, 67, 69
27, 732729, Note_on_c, 12, 68, 0
27, 732848, Note_on_c, 12, 67, 0
27, 732863, Note_on_c, 12, 65, 72
27, 732863, Note_on_c, 12, 65, 72
27, 732947, Note_on_c, 12, 65, 0
27, 732947, Note_on_c, 12, 65, 0
27, 732973, Note_on_c, 12, 68, 75
27, 733086, Note_on_c, 12, 64, 77
27, 733086, Note_on_c, 12, 64, 77
27, 733093, Note_on_c, 12, 68, 0
27, 733170, Note_on_c, 12, 64, 0
27, 733170, Note_on_c, 12, 64, 0
27, 733221, Note_on_c, 12, 64, 77
27, 733221, Note_on_c, 12, 64, 77
27, 733305, Note_on_c, 12, 64, 0
27, 733305, Note_on_c, 12, 64, 0
27, 733335, Note_on_c, 12, 64, 79
27, 733335, Note_on_c, 12, 64, 79
27, 733419, Note_on_c, 12, 64, 0
27, 733419, Note_on_c, 12, 64, 0
27, 734417, Note_on_c, 12, 65, 76
27, 734417, Note_on_c, 12, 65, 76
27, 734501, Note_on_c, 12, 65, 0
27, 734501, Note_on_c, 12, 65, 0
27, 734531, Note_on_c, 12, 65, 75
27, 734531, Note_on_c, 12, 65, 75
27, 734615, Note_on_c, 12, 65, 0
27, 734615, Note_on_c, 12, 65, 0
27, 734648, Note_on_c, 12, 67, 84
27, 734648, Note_on_c, 12, 67, 84
27, 734732, Note_on_c, 12, 67, 0
27, 734764, Note_on_c, 12, 68, 66
27, 734768, Note_on_c, 12, 67, 0
27, 734884, Note_on_c, 12, 68, 0
27, 734894, Note_on_c, 12, 70, 74
27, 735002, Note_on_c, 12, 68, 68
27, 735014, Note_on_c, 12, 70, 0
27, 735122, Note_on_c, 12, 68, 0
27, 735132, Note_on_c, 12, 67, 72
27, 735252, Note_on_c, 12, 67, 0
27, 735253, Note_on_c, 12, 65, 82
27, 735373, Note_on_c, 12, 65, 0
27, 735385, Note_on_c, 12, 68, 66
27, 735490, Note_on_c, 12, 64, 70
27, 735505, Note_on_c, 12, 68, 0
27, 735574, Note_on_c, 12, 64, 0
27, 735606, Note_on_c, 12, 64, 83
27, 735690, Note_on_c, 12, 64, 0
27, 735733, Note_on_c, 12, 64, 80
27, 735817, Note_on_c, 12, 64, 0
27, 735860, Note_on_c, 12, 68, 67
27, 735969, Note_on_c, 12, 64, 65
27, 735980, Note_on_c, 12, 68, 0
27, 736053, Note_on_c, 12, 64, 0
27, 736099, Note_on_c, 12, 64, 67
27, 736183, Note_on_c, 12, 64, 0
27, 736222, Note_on_c, 12, 64, 81
27, 736306, Note_on_c, 12, 64, 0
27, 738723, Note_on_c, 12, 65, 80
27, 738807, Note_on_c, 12, 65, 0
27, 738849, Note_on_c, 12, 65, 71
27, 738933, Note_on_c, 12, 65, 0
27, 738982, Note_on_c, 12, 67, 85
27, 739084, Note_on_c, 12, 68, 66
27, 739102, Note_on_c, 12, 67, 0
27, 739204, Note_on_c, 12, 68, 0
27, 739204, Note_on_c, 12, 70, 69
27, 739324, Note_on_c, 12, 70, 0
27, 739343, Note_on_c, 12, 68, 76
27, 739452, Note_on_c, 12, 67, 78
27, 739463, Note_on_c, 12, 68, 0
27, 739570, Note_on_c, 12, 65, 71
27, 739572, Note_on_c, 12, 67, 0
27, 739690, Note_on_c, 12, 65, 0
27, 739691, Note_on_c, 12, 68, 65
27, 739811, Note_on_c, 12, 68, 0
27, 739825, Note_on_c, 12, 64, 68
27, 739909, Note_on_c, 12, 64, 0
27, 739920, Note_on_c, 12, 64, 79
27, 740004, Note_on_c, 12, 64, 0
27, 740045, Note_on_c, 12, 64, 78
27, 740129, Note_on_c, 12, 64, 0
27, 740170, Note_on_c, 12, 68, 77
27, 740288, Note_on_c, 12, 64, 82
27, 740290, Note_on_c, 12, 68, 0
27, 740372, Note_on_c, 12, 64, 0
27, 740402, Note_on_c, 12, 64, 77
27, 740486, Note_on_c, 12, 64, 0
27, 740539, Note_on_c, 12, 64, 84
27, 740623, Note_on_c, 12, 64, 0
27, 743055, Note_on_c, 12, 72, 68
27, 743139, Note_on_c, 12, 72, 0
27, 743165, Note_on_c, 12, 72, 84
27, 743249, Note_on_c, 12, 72, 0
27, 743289, Note_on_c, 12, 74, 80
27, 743409, Note_on_c, 12, 74, 0
27, 743413, Note_on_c, 12, 75, 85
27, 743533, Note_on_c, 12, 75, 0
27, 743535, Note_on_c, 12, 77, 68
27, 743648, Note_on_c, 12, 75, 76
27, 743655, Note_on_c, 12, 77, 0
27, 743768, Note_on_c, 12, 75, 0
27, 743781, Note_on_c, 12, 74, 73
27, 743901, Note_on_c, 12, 74, 0
27, 743901, Note_on_c, 12, 72, 66
27, 744017, Note_on_c, 12, 75, 84
27, 744021, Note_on_c, 12, 72, 0
27, 744137, Note_on_c, 12, 75, 0
27, 744975, Note_on_c, 12, 72, 84
27, 745059, Note_on_c, 12, 72, 0
27, 745084, Note_on_c, 12, 72, 69
27, 745168, Note_on_c, 12, 72, 0
27, 745203, Note_on_c, 12, 74, 84
27, 745323, Note_on_c, 12, 74, 0
27, 745343, Note_on_c, 12, 75, 74
27, 745449, Note_on_c, 12, 77, 68
27, 745463, Note_on_c, 12, 75, 0
27, 745567, Note_on_c, 12, 75, 85
27, 745569, Note_on_c, 12, 77, 0
27, 745684, Note_on_c, 12, 74, 84
27, 745687, Note_on_c, 12, 75, 0
27, 745804, Note_on_c, 12, 74, 0
27, 745817, Note_on_c, 12, 72, 65
27, 745930, Note_on_c, 12, 75, 69
27, 745937, Note_on_c, 12, 72, 0
27, 746049, Note_on_c, 12, 72, 76
27, 746050, Note_on_c, 12, 75, 0
27, 746166, Note_on_c, 12, 74, 74
27, 746169, Note_on_c, 12, 72, 0
27, 746286, Note_on_c, 12, 74, 0
27, 746296, Note_on_c, 12, 75, 82
27, 746416, Note_on_c, 12, 75, 0
27, 746421, Note_on_c, 12, 77, 85
27, 746536, Note_on_c, 12, 75, 72
27, 746541, Note_on_c, 12, 77, 0
27, 746656, Note_on_c, 12, 75, 0
27, 746662, Note_on_c, 12, 74, 78
27, 746782, Note_on_c, 12, 74, 0
27, 746782, Note_on_c, 12, 72, 74
27, 746884, Note_on_c, 12, 75, 74
27, 746902, Note_on_c, 12, 72, 0
27, 747004, Note_on_c, 12, 75, 0
27, 747016, Note_on_c, 12, 71, 82
27, 747100, Note_on_c, 12, 71, 0
27, 747120, Note_on_c, 12, 71, 71
27, 747204, Note_on_c, 12, 71, 0
27, 747242, Note_on_c, 12, 71, 83
27, 747326, Note_on_c, 12, 71, 0
27, 747362, Note_on_c, 12, 72, 73
27, 747482, Note_on_c, 12, 72, 0
27, 747860, Note_on_c, 12, 72, 71
27, 747944, Note_on_c, 12, 72, 0
27, 747980, Note_on_c, 12, 72, 66
27, 748064, Note_on_c, 12, 72, 0
27, 748086, Note_on_c, 12, 74, 74
27, 748206, Note_on_c, 12, 74, 0
27, 748224, Note_on_c, 12, 75, 84
27, 748336, Note_on_c, 12, 77, 81
27, 748344, Note_on_c, 12, 75, 0
27, 748456, Note_on_c, 12, 77, 0
27, 748456, Note_on_c, 12, 75, 68
27, 748576, Note_on_c, 12, 75, 0
27, 748579, Note_on_c, 12, 74, 67
27, 748683, Note_on_c, 12, 72, 74
27, 748699, Note_on_c, 12, 74, 0
27, 748803, Note_on_c, 12, 72, 0
27, 748819, Note_on_c, 12, 75, 79
27, 748939, Note_on_c, 12, 75, 0
27, 748943, Note_on_c, 12, 72, 72
27, 749055, Note_on_c, 12, 74, 84
27, 749063, Note_on_c, 12, 72, 0
27, 749166, Note_on_c, 12, 75, 81
27, 749175, Note_on_c, 12, 74, 0
27, 749286, Note_on_c, 12, 75, 0
27, 749292, Note_on_c, 12, 77, 66
27, 749409, Note_on_c, 12, 75, 76
27, 749412, Note_on_c, 12, 77, 0
27, 749529, Note_on_c, 12, 75, 0
27, 749534, Note_on_c, 12, 74, 75
27, 749654, Note_on_c, 12, 74, 0
27, 749654, Note_on_c, 12, 72, 73
27, 749774, Note_on_c, 12, 72, 0
27, 749784, Note_on_c, 12, 75, 77
27, 749902, Note_on_c, 12, 71, 72
27, 749904, Note_on_c, 12, 75, 0
27, 749986, Note_on_c, 12, 71, 0
27, 750022, Note_on_c, 12, 71, 69
27, 750106, Note_on_c, 12, 71, 0
27, 750133, Note_on_c, 12, 71, 71
27, 750217, Note_on_c, 12, 71, 0
27, 750265, Note_on_c, 12, 72, 83
27, 750385, Note_on_c, 12, 72, 0
27, 751682, Note_on_c, 12, 72, 76
27, 751766, Note_on_c, 12, 72, 0
27, 751810, Note_on_c, 12, 72, 84
27, 751894, Note_on_c, 12, 72, 0
27, 751933, Note_on_c, 12, 74, 69
27, 752053, Note_on_c, 12, 74, 0
27, 752059, Note_on_c, 12, 75, 73
27, 752173, Note_on_c, 12, 77, 68
27, 752179, Note_on_c, 12, 75, 0
27, 752293, Note_on_c, 12, 77, 0
27, 752294, Note_on_c, 12, 75, 73
27, 752405, Note_on_c, 12, 74, 83
27, 752414, Note_on_c, 12, 75, 0
27, 752525, Note_on_c, 12, 74, 0
27, 752533, Note_on_c, 12, 72, 82
27, 752651, Note_on_c, 12, 75, 67
27, 752653, Note_on_c, 12, 72, 0
27, 752771, Note_on_c, 12, 75, 0
27, 752771, Note_on_c, 12, 71, 76
27, 752855, Note_on_c, 12, 71, 0
27, 752885, Note_on_c, 12, 71, 85
27, 752969, Note_on_c, 12, 71, 0
27, 753009, Note_on_c, 12, 71, 84
27, 753093, Note_on_c, 12, 71, 0
27, 753136, Note_on_c, 12, 72, 75
27, 753220, Note_on_c, 12, 72, 0
27, 753252, Note_on_c, 12, 72, 79
27, 753336, Note_on_c, 12, 72, 0
27, 753375, Note_on_c, 12, 74, 75
27, 753495, Note_on_c, 12, 74, 0
27, 753495, Note_on_c, 12, 75, 68
27, 753614, Note_on_c, 12, 77, 83
27, 753615, Note_on_c, 12, 75, 0
27, 753734, Note_on_c, 12, 77, 0
27, 753745, Note_on_c, 12, 75, 74
27, 753862, Note_on_c, 12, 74, 74
27, 753865, Note_on_c, 12, 75, 0
27, 753968, Note_on_c, 12, 72, 67
27, 753982, Note_on_c, 12, 74, 0
27, 754088, Note_on_c, 12, 72, 0
27, 754098, Note_on_c, 12, 75, 85
27, 754204, Note_on_c, 12, 71, 65
27, 754218, Note_on_c, 12, 75, 0
27, 754288, Note_on_c, 12, 71, 0
27, 754325, Note_on_c, 12, 71, 79
27, 754409, Note_on_c, 12, 71, 0
27, 754462, Note_on_c, 12, 71, 68
27, 754546, Note_on_c, 12, 71, 0
27, 754574, Note_on_c, 12, 72, 83
27, 754694, Note_on_c, 12, 72, 0
27, 755040, Note_on_c, 12, 72, 78
27, 755124, Note_on_c, 12, 72, 0
27, 755169, Note_on_c, 12, 72, 83
27, 755253, Note_on_c, 12, 72, 0
27, 755298, Note_on_c, 12, 74, 77
27, 755405, Note_on_c, 12, 75, 70
27, 755418, Note_on_c, 12, 74, 0
27, 755521, Note_on_c, 12, 77, 70
27, 755525, Note_on_c, 12, 75, 0
27, 755641, Note_on_c, 12, 77, 0
27, 755657, Note_on_c, 12, 75, 67
27, 755777, Note_on_c, 12, 75, 0
27, 755783, Note_on_c, 12, 74, 80
27, 755892, Note_on_c, 12, 72, 79
27, 755903, Note_on_c, 12, 74, 0
27, 755976, Note_on_c, 12, 72, 0
27, 756006, Note_on_c, 12, 72, 82
27, 756090, Note_on_c, 12, 72, 0
27, 756138, Note_on_c, 12, 72, 80
27, 756222, Note_on_c, 12, 72, 0
27, 756265, Note_on_c, 12, 74, 86
27, 756364, Note_on_c, 12, 75, 83
27, 756385, Note_on_c, 12, 74, 0
27, 756483, Note_on_c, 12, 77, 82
27, 756484, Note_on_c, 12, 75, 0
27, 756603, Note_on_c, 12, 77, 0
27, 756613, Note_on_c, 12, 75, 83
27, 756733, Note_on_c, 12, 75, 0
27, 756735, Note_on_c, 12, 74, 79
27, 756840, Note_on_c, 12, 72, 97
27, 756855, Note_on_c, 12, 74, 0
27, 756924, Note_on_c, 12, 72, 0
27, 756964, Note_on_c, 12, 72, 80
27, 757048, Note_on_c, 12, 72, 0
27, 757104, Note_on_c, 12, 72, 92
27, 757188, Note_on_c, 12, 72, 0
27, 757207, Note_on_c, 12, 74, 81
27, 757327, Note_on_c, 12, 74, 0
27, 757344, Note_on_c, 12, 75, 93
27, 757447, Note_on_c, 12, 77, 88
27, 757464, Note_on_c, 12, 75, 0
27, 757567, Note_on_c, 12, 77, 0
27, 757567, Note_on_c, 12, 75, 95
27, 757683, Note_on_c, 12, 74, 92
27, 757687, Note_on_c, 12, 75, 0
27, 757803, Note_on_c, 12, 74, 0
27, 757822, Note_on_c, 12, 72, 98
27, 757921, Note_on_c, 12, 75, 92
27, 757942, Note_on_c, 12, 72, 0
27, 758041, Note_on_c, 12, 75, 0
27, 758054, Note_on_c, 12, 71, 88
27, 758138, Note_on_c, 12, 71, 0
27, 758178, Note_on_c, 12, 71, 97
27, 758262, Note_on_c, 12, 71, 0
27, 758283, Note_on_c, 12, 71, 92
27, 758367, Note_on_c, 12, 71, 0
27, 758404, Note_on_c, 12, 72, 94
27, 758524, Note_on_c, 12, 72, 0
27, 759372, Note_on_c, 12, 72, 81
27, 759456, Note_on_c, 12, 72, 0
27, 759491, Note_on_c, 12, 72, 98
27, 759575, Note_on_c, 12, 72, 0
27, 759611, Note_on_c, 12, 74, 79
27, 759727, Note_on_c, 12, 75, 98
27, 759731, Note_on_c, 12, 74, 0
27, 759847, Note_on_c, 12, 75, 0
27, 759862, Note_on_c, 12, 77, 93
27, 759976, Note_on_c, 12, 75, 92
27, 759982, Note_on_c, 12, 77, 0
27, 760089, Note_on_c, 12, 74, 97
27, 760096, Note_on_c, 12, 75, 0
27, 760209, Note_on_c, 12, 74, 0
27, 760225, Note_on_c, 12, 72, 82
27, 760323, Note_on_c, 12, 75, 90
27, 760345, Note_on_c, 12, 72, 0
27, 760443, Note_on_c, 12, 75, 0
27, 760461, Note_on_c, 12, 71, 83
27, 760545, Note_on_c, 12, 71, 0
27, 760575, Note_on_c, 12, 71, 92
27, 760659, Note_on_c, 12, 71, 0
27, 760702, Note_on_c, 12, 71, 83
27, 760786, Note_on_c, 12, 71, 0
27, 760819, Note_on_c, 12, 72, 84
27, 760939, Note_on_c, 12, 72, 0
27, 761292, Note_on_c, 12, 72, 96
27, 761376, Note_on_c, 12, 72, 0
27, 761417, Note_on_c, 12, 72, 90
27, 761501, Note_on_c, 12, 72, 0
27, 761532, Note_on_c, 12, 74, 78
27, 761652, Note_on_c, 12, 74, 0
27, 761659, Note_on_c, 12, 75, 89
27, 761768, Note_on_c, 12, 77, 89
27, 761779, Note_on_c, 12, 75, 0
27, 761888, Note_on_c, 12, 77, 0
27, 761897, Note_on_c, 12, 75, 78
27, 762017, Note_on_c, 12, 75, 0
27, 762017, Note_on_c, 12, 74, 83
27, 762122, Note_on_c, 12, 72, 81
27, 762137, Note_on_c, 12, 74, 0
27, 762242, Note_on_c, 12, 72, 0
27, 762244, Note_on_c, 12, 77, 96
27, 762364, Note_on_c, 12, 77, 0
27, 762370, Note_on_c, 12, 75, 86
27, 762490, Note_on_c, 12, 75, 0
27, 762505, Note_on_c, 12, 74, 81
27, 762606, Note_on_c, 12, 72, 86
27, 762625, Note_on_c, 12, 74, 0
27, 762726, Note_on_c, 12, 72, 0
27, 762737, Note_on_c, 12, 75, 93
27, 762850, Note_on_c, 12, 71, 82
27, 762857, Note_on_c, 12, 75, 0
27, 762934, Note_on_c, 12, 71, 0
27, 762971, Note_on_c, 12, 71, 86
27, 763055, Note_on_c, 12, 71, 0
27, 763102, Note_on_c, 12, 71, 86
27, 763186, Note_on_c, 12, 71, 0
27, 763200, Note_on_c, 12, 72, 95
27, 763320, Note_on_c, 12, 72, 0
27, 763341, Note_on_c, 12, 72, 79
27, 763455, Note_on_c, 12, 74, 82
27, 763461, Note_on_c, 12, 72, 0
27, 763567, Note_on_c, 12, 75, 78
27, 763575, Note_on_c, 12, 74, 0
27, 763687, Note_on_c, 12, 75, 0
27, 763705, Note_on_c, 12, 77, 88
27, 763803, Note_on_c, 12, 75, 95
27, 763825, Note_on_c, 12, 77, 0
27, 763923, Note_on_c, 12, 75, 0
27, 763927, Note_on_c, 12, 74, 83
27, 764047, Note_on_c, 12, 74, 0
27, 764060, Note_on_c, 12, 72, 83
27, 764179, Note_on_c, 12, 75, 84
27, 764180, Note_on_c, 12, 72, 0
27, 764291, Note_on_c, 12, 71, 87
27, 764299, Note_on_c, 12, 75, 0
27, 764375, Note_on_c, 12, 71, 0
27, 764415, Note_on_c, 12, 71, 96
27, 764499, Note_on_c, 12, 71, 0
27, 764524, Note_on_c, 12, 71, 90
27, 764608, Note_on_c, 12, 71, 0
27, 764663, Note_on_c, 12, 72, 94
27, 764747, Note_on_c, 12, 72, 0
27, 764761, Note_on_c, 12, 72, 90
27, 764845, Note_on_c, 12, 72, 0
27, 764895, Note_on_c, 12, 74, 102
27, 765015, Note_on_c, 12, 74, 0
27, 765017, Note_on_c, 12, 75, 104
27, 765130, Note_on_c, 12, 77, 99
27, 765137, Note_on_c, 12, 75, 0
27, 765250, Note_on_c, 12, 77, 0
27, 765258, Note_on_c, 12, 75, 106
27, 765378, Note_on_c, 12, 75, 0
27, 765380, Note_on_c, 12, 74, 110
27, 765496, Note_on_c, 12, 72, 104
27, 765500, Note_on_c, 12, 74, 0
27, 765616, Note_on_c, 12, 72, 0
27, 765617, Note_on_c, 12, 75, 106
27, 765737, Note_on_c, 12, 75, 0
27, 765739, Note_on_c, 12, 71, 118
27, 765823, Note_on_c, 12, 71, 0
27, 765845, Note_on_c, 12, 71, 115
27, 765929, Note_on_c, 12, 71, 0
27, 765968, Note_on_c, 12, 71, 125
27, 766052, Note_on_c, 12, 71, 0
27, 766093, Note_on_c, 12, 71, 90
27, 766177, Note_on_c, 12, 71, 0
27, 766214, Note_on_c, 12, 72, 95
27, 766326, Note_on_c, 12, 74, 86
27, 766334, Note_on_c, 12, 72, 0
27, 766446, Note_on_c, 12, 74, 0
27, 766464, Note_on_c, 12, 75, 92
27, 766564, Note_on_c, 12, 77, 83
27, 766584, Note_on_c, 12, 75, 0
27, 766684, Note_on_c, 12, 77, 0
27, 766692, Note_on_c, 12, 75, 87
27, 766812, Note_on_c, 12, 75, 0
27, 766813, Note_on_c, 12, 74, 86
27, 766925, Note_on_c, 12, 72, 104
27, 766933, Note_on_c, 12, 74, 0
27, 767045, Note_on_c, 12, 72, 0
27, 767053, Note_on_c, 12, 75, 104
27, 767173, Note_on_c, 12, 75, 0
27, 767173, Note_on_c, 12, 71, 88
27, 767257, Note_on_c, 12, 71, 0
27, 767301, Note_on_c, 12, 71, 94
27, 767385, Note_on_c, 12, 71, 0
27, 767424, Note_on_c, 12, 71, 100
27, 767508, Note_on_c, 12, 71, 0
27, 767537, Note_on_c, 12, 77, 99
27, 767645, Note_on_c, 12, 75, 101
27, 767657, Note_on_c, 12, 77, 0
27, 767765, Note_on_c, 12, 75, 0
27, 767774, Note_on_c, 12, 74, 113
27, 767894, Note_on_c, 12, 74, 0
27, 767894, Note_on_c, 12, 72, 108
27, 768004, Note_on_c, 12, 75, 115
27, 768014, Note_on_c, 12, 72, 0
27, 768124, Note_on_c, 12, 75, 0
27, 768131, Note_on_c, 12, 71, 111
27, 768243, Note_on_c, 12, 72, 111
27, 768251, Note_on_c, 12, 71, 0
27, 768363, Note_on_c, 12, 72, 0
27, 768368, Note_on_c, 12, 74, 113
27, 768488, Note_on_c, 12, 74, 0
27, 768504, Note_on_c, 12, 77, 106
27, 768623, Note_on_c, 12, 75, 112
27, 768624, Note_on_c, 12, 77, 0
27, 768737, Note_on_c, 12, 74, 115
27, 768743, Note_on_c, 12, 75, 0
27, 768843, Note_on_c, 12, 72, 122
27, 768857, Note_on_c, 12, 74, 0
27, 768963, Note_on_c, 12, 72, 0
27, 768984, Note_on_c, 12, 75, 123
27, 769102, Note_on_c, 12, 71, 107
27, 769104, Note_on_c, 12, 75, 0
27, 769186, Note_on_c, 12, 71, 0
27, 769212, Note_on_c, 12, 71, 113
27, 769296, Note_on_c, 12, 71, 0
27, 769322, Note_on_c, 12, 71, 109
27, 769406, Note_on_c, 12, 71, 0
27, 769442, Note_on_c, 12, 71, 108
27, 769526, Note_on_c, 12, 71, 0
27, 769585, Note_on_c, 12, 72, 113
27, 769700, Note_on_c, 12, 74, 127
27, 769705, Note_on_c, 12, 72, 0
27, 769820, Note_on_c, 12, 74, 0
27, 769821, Note_on_c, 12, 75, 127
27, 769941, Note_on_c, 12, 75, 0
27, 769944, Note_on_c, 12, 77, 120
27, 770061, Note_on_c, 12, 75, 122
27, 770064, Note_on_c, 12, 77, 0
27, 770181, Note_on_c, 12, 75, 0
27, 770183, Note_on_c, 12, 74, 127
27, 770303, Note_on_c, 12, 74, 0
27, 770304, Note_on_c, 12, 72, 127
27, 770405, Note_on_c, 12, 71, 127
27, 770424, Note_on_c, 12, 72, 0
27, 770525, Note_on_c, 12, 71, 0
27, 770543, Note_on_c, 12, 72, 127
27, 770647, Note_on_c, 12, 74, 127
27, 770663, Note_on_c, 12, 72, 0
27, 770767, Note_on_c, 12, 74, 0
27, 770775, Note_on_c, 12, 75, 117
27, 770890, Note_on_c, 12, 77, 127
27, 770895, Note_on_c, 12, 75, 0
27, 771010, Note_on_c, 12, 77, 0
27, 771018, Note_on_c, 12, 75, 127
27, 771128, Note_on_c, 12, 74, 120
27, 771138, Note_on_c, 12, 75, 0
27, 771248, Note_on_c, 12, 74, 0
27, 771263, Note_on_c, 12, 72, 119
27, 771367, Note_on_c, 12, 75, 127
27, 771383, Note_on_c, 12, 72, 0
27, 771487, Note_on_c, 12, 75, 0
27, 771495, Note_on_c, 12, 71, 127
27, 771579, Note_on_c, 12, 71, 0
27, 771614, Note_on_c, 12, 71, 117
27, 771698, Note_on_c, 12, 71, 0
27, 771724, Note_on_c, 12, 71, 125
27, 771808, Note_on_c, 12, 71, 0
27, 771865, Note_on_c, 12, 72, 117
27, 771949, Note_on_c, 12, 72, 0
27, 771967, Note_on_c, 12, 72, 126
27, 772051, Note_on_c, 12, 72, 0
27, 772083, Note_on_c, 12, 74, 127
27, 772203, Note_on_c, 12, 74, 0
27, 772207, Note_on_c, 12, 75, 120
27, 772324, Note_on_c, 12, 77, 124
27, 772327, Note_on_c, 12, 75, 0
27, 772444, Note_on_c, 12, 77, 0
27, 772454, Note_on_c, 12, 75, 127
27, 772561, Note_on_c, 12, 74, 127
27, 772574, Note_on_c, 12, 75, 0
27, 772681, Note_on_c, 12, 74, 0
27, 772692, Note_on_c, 12, 72, 122
27, 772811, Note_on_c, 12, 75, 127
27, 772812, Note_on_c, 12, 72, 0
27, 772931, Note_on_c, 12, 75, 0
27, 772931, End_track
28, 0, Start_track
28, 0, Title_t, "Violini II/b"
28, 0, MIDI_port, 0
28, 0, Program_c, 12, 48
28, 165600, Program_c, 13, 115
28, 165613, Note_on_c, 13, 67, 84
28, 165853, Note_on_c, 13, 67, 0
28, 165863, Note_on_c, 13, 69, 85
28, 166100, Note_on_c, 13, 67, 80
28, 166103, Note_on_c, 13, 69, 0
28, 166321, Note_on_c, 13, 69, 76
28, 166340, Note_on_c, 13, 67, 0
28, 166561, Note_on_c, 13, 69, 0
28, 166580, Note_on_c, 13, 67, 49
28, 166800, Note_on_c, 13, 69, 56
28, 166820, Note_on_c, 13, 67, 0
28, 167040, Note_on_c, 13, 69, 0
28, 167053, Note_on_c, 13, 67, 40
28, 167293, Note_on_c, 13, 67, 0
28, 167305, Note_on_c, 13, 69, 59
28, 167530, Note_on_c, 13, 67, 45
28, 167545, Note_on_c, 13, 69, 0
28, 167770, Note_on_c, 13, 67, 0
28, 167779, Note_on_c, 13, 69, 55
28, 168019, Note_on_c, 13, 69, 0
28, 168020, Note_on_c, 13, 67, 40
28, 168260, Note_on_c, 13, 67, 0
28, 168264, Note_on_c, 13, 69, 44
28, 168504, Note_on_c, 13, 69, 0
28, 168504, Note_on_c, 13, 67, 57
28, 168726, Note_on_c, 13, 69, 56
28, 168744, Note_on_c, 13, 67, 0
28, 168961, Note_on_c, 13, 67, 40
28, 168966, Note_on_c, 13, 69, 0
28, 169200, Note_on_c, 13, 69, 52
28, 169201, Note_on_c, 13, 67, 0
28, 169440, Note_on_c, 13, 69, 0
28, 169451, Note_on_c, 13, 67, 54
28, 169691, Note_on_c, 13, 67, 0
28, 169699, Note_on_c, 13, 69, 47
28, 169938, Note_on_c, 13, 67, 51
28, 169939, Note_on_c, 13, 69, 0
28, 170174, Note_on_c, 13, 69, 52
28, 170178, Note_on_c, 13, 67, 0
28, 170414, Note_on_c, 13, 69, 0
28, 170414, Note_on_c, 13, 67, 54
28, 170654, Note_on_c, 13, 67, 0
28, 170665, Note_on_c, 13, 69, 49
28, 170893, Note_on_c, 13, 67, 39
28, 170905, Note_on_c, 13, 69, 0
28, 171133, Note_on_c, 13, 67, 0
28, 171135, Note_on_c, 13, 69, 48
28, 171364, Note_on_c, 13, 67, 57
28, 171375, Note_on_c, 13, 69, 0
28, 171604, Note_on_c, 13, 67, 0
28, 171612, Note_on_c, 13, 69, 49
28, 171848, Note_on_c, 13, 67, 47
28, 171852, Note_on_c, 13, 69, 0
28, 172080, Note_on_c, 13, 69, 58
28, 172088, Note_on_c, 13, 67, 0
28, 172320, Note_on_c, 13, 69, 0
28, 172328, Note_on_c, 13, 67, 39
28, 172568, Note_on_c, 13, 67, 0
28, 172582, Note_on_c, 13, 69, 53
28, 172821, Note_on_c, 13, 67, 57
28, 172822, Note_on_c, 13, 69, 0
28, 173045, Note_on_c, 13, 69, 57
28, 173061, Note_on_c, 13, 67, 0
28, 173285, Note_on_c, 13, 69, 0
28, 173303, Note_on_c, 13, 67, 58
28, 173523, Note_on_c, 13, 69, 46
28, 173543, Note_on_c, 13, 67, 0
28, 173763, Note_on_c, 13, 69, 0
28, 173769, Note_on_c, 13, 67, 54
28, 174008, Note_on_c, 13, 69, 44
28, 174009, Note_on_c, 13, 67, 0
28, 174248, Note_on_c, 13, 69, 0
28, 174261, Note_on_c, 13, 67, 41
28, 174501, Note_on_c, 13, 67, 0
28, 174505, Note_on_c, 13, 69, 47
28, 174730, Note_on_c, 13, 67, 45
28, 174745, Note_on_c, 13, 69, 0
28, 174965, Note_on_c, 13, 69, 47
28, 174970, Note_on_c, 13, 67, 0
28, 175205, Note_on_c, 13, 69, 0
28, 175207, Note_on_c, 13, 67, 46
28, 175445, Note_on_c, 13, 69, 41
28, 175447, Note_on_c, 13, 67, 0
28, 175685, Note_on_c, 13, 69, 0
28, 175705, Note_on_c, 13, 67, 41
28, 175938, Note_on_c, 13, 69, 51
28, 175945, Note_on_c, 13, 67, 0
28, 176160, Note_on_c, 13, 67, 45
28, 176178, Note_on_c, 13, 69, 0
28, 176400, Note_on_c, 13, 67, 0
28, 176410, Note_on_c, 13, 69, 45
28, 176650, Note_on_c, 13, 69, 0
28, 176662, Note_on_c, 13, 67, 53
28, 176885, Note_on_c, 13, 69, 46
28, 176902, Note_on_c, 13, 67, 0
28, 177125, Note_on_c, 13, 69, 0
28, 177137, Note_on_c, 13, 67, 45
28, 177366, Note_on_c, 13, 69, 41
28, 177377, Note_on_c, 13, 67, 0
28, 177602, Note_on_c, 13, 67, 41
28, 177606, Note_on_c, 13, 69, 0
28, 177842, Note_on_c, 13, 67, 0
28, 177843, Note_on_c, 13, 69, 56
28, 178083, Note_on_c, 13, 69, 0
28, 178098, Note_on_c, 13, 67, 50
28, 178338, Note_on_c, 13, 67, 0
28, 178340, Note_on_c, 13, 69, 42
28, 178565, Note_on_c, 13, 67, 56
28, 178580, Note_on_c, 13, 69, 0
28, 178804, Note_on_c, 13, 69, 55
28, 178805, Note_on_c, 13, 67, 0
28, 179044, Note_on_c, 13, 69, 0
28, 179057, Note_on_c, 13, 67, 49
28, 179297, Note_on_c, 13, 67, 0
28, 179304, Note_on_c, 13, 69, 39
28, 179540, Note_on_c, 13, 67, 58
28, 179544, Note_on_c, 13, 69, 0
28, 179760, Note_on_c, 13, 69, 42
28, 179780, Note_on_c, 13, 67, 0
28, 180000, Note_on_c, 13, 69, 0
28, 180007, Note_on_c, 13, 67, 52
28, 180245, Note_on_c, 13, 69, 41
28, 180247, Note_on_c, 13, 67, 0
28, 180485, Note_on_c, 13, 69, 0
28, 180494, Note_on_c, 13, 67, 49
28, 180730, Note_on_c, 13, 69, 52
28, 180734, Note_on_c, 13, 67, 0
28, 180962, Note_on_c, 13, 67, 47
28, 180970, Note_on_c, 13, 69, 0
28, 181202, Note_on_c, 13, 67, 0
28, 181220, Note_on_c, 13, 69, 48
28, 181443, Note_on_c, 13, 67, 53
28, 181460, Note_on_c, 13, 69, 0
28, 181683, Note_on_c, 13, 67, 0
28, 181686, Note_on_c, 13, 69, 43
28, 181926, Note_on_c, 13, 69, 0
28, 181932, Note_on_c, 13, 67, 47
28, 182172, Note_on_c, 13, 67, 0
28, 182178, Note_on_c, 13, 69, 47
28, 182417, Note_on_c, 13, 67, 43
28, 182418, Note_on_c, 13, 69, 0
28, 182657, Note_on_c, 13, 67, 0
28, 182657, Note_on_c, 13, 69, 58
28, 182894, Note_on_c, 13, 67, 52
28, 182897, Note_on_c, 13, 69, 0
28, 183134, Note_on_c, 13, 67, 0
28, 183137, Note_on_c, 13, 69, 52
28, 183377, Note_on_c, 13, 69, 0
28, 183381, Note_on_c, 13, 67, 42
28, 183617, Note_on_c, 13, 69, 39
28, 183621, Note_on_c, 13, 67, 0
28, 183849, Note_on_c, 13, 65, 40
28, 183857, Note_on_c, 13, 69, 0
28, 183858, Note_on_c, 13, 70, 59
28, 184083, Note_on_c, 13, 67, 57
28, 184087, Note_on_c, 13, 72, 53
28, 184089, Note_on_c, 13, 65, 0
28, 184098, Note_on_c, 13, 70, 0
28, 184323, Note_on_c, 13, 67, 0
28, 184327, Note_on_c, 13, 72, 0
28, 184337, Note_on_c, 13, 65, 53
28, 184341, Note_on_c, 13, 70, 52
28, 184562, Note_on_c, 13, 67, 39
28, 184577, Note_on_c, 13, 65, 0
28, 184579, Note_on_c, 13, 72, 53
28, 184581, Note_on_c, 13, 70, 0
28, 184802, Note_on_c, 13, 67, 0
28, 184807, Note_on_c, 13, 65, 47
28, 184815, Note_on_c, 13, 70, 57
28, 184819, Note_on_c, 13, 72, 0
28, 185047, Note_on_c, 13, 65, 0
28, 185055, Note_on_c, 13, 70, 0
28, 185062, Note_on_c, 13, 67, 49
28, 185062, Note_on_c, 13, 72, 59
28, 185282, Note_on_c, 13, 65, 40
28, 185292, Note_on_c, 13, 70, 41
28, 185302, Note_on_c, 13, 67, 0
28, 185302, Note_on_c, 13, 72, 0
28, 185522, Note_on_c, 13, 65, 0
28, 185523, Note_on_c, 13, 72, 43
28, 185532, Note_on_c, 13, 70, 0
28, 185541, Note_on_c, 13, 67, 54
28, 185763, Note_on_c, 13, 72, 0
28, 185763, Note_on_c, 13, 65, 50
28, 185771, Note_on_c, 13, 70, 54
28, 185781, Note_on_c, 13, 67, 0
28, 186003, Note_on_c, 13, 65, 0
28, 186008, Note_on_c, 13, 72, 43
28, 186011, Note_on_c, 13, 70, 0
28, 186015, Note_on_c, 13, 67, 50
28, 186244, Note_on_c, 13, 70, 51
28, 186248, Note_on_c, 13, 72, 0
28, 186255, Note_on_c, 13, 67, 0
28, 186258, Note_on_c, 13, 65, 44
28, 186484, Note_on_c, 13, 70, 0
28, 186493, Note_on_c, 13, 72, 39
28, 186495, Note_on_c, 13, 67, 48
28, 186498, Note_on_c, 13, 65, 0
28, 186733, Note_on_c, 13, 72, 0
28, 186735, Note_on_c, 13, 67, 0
28, 186736, Note_on_c, 13, 65, 50
28, 186743, Note_on_c, 13, 70, 50
28, 186962, Note_on_c, 13, 72, 41
28, 186976, Note_on_c, 13, 65, 0
28, 186980, Note_on_c, 13, 67, 52
28, 186983, Note_on_c, 13, 70, 0
28, 187202, Note_on_c, 13, 72, 0
28, 187202, Note_on_c, 13, 65, 54
28, 187217, Note_on_c, 13, 70, 43
28, 187220, Note_on_c, 13, 67, 0
28, 187440, Note_on_c, 13, 67, 46
28, 187442, Note_on_c, 13, 65, 0
28, 187457, Note_on_c, 13, 70, 0
28, 187459, Note_on_c, 13, 72, 56
28, 187680, Note_on_c, 13, 67, 0
28, 187683, Note_on_c, 13, 70, 46
28, 187699, Note_on_c, 13, 72, 0
28, 187699, Note_on_c, 13, 65, 39
28, 187923, Note_on_c, 13, 70, 0
28, 187925, Note_on_c, 13, 67, 59
28, 187926, Note_on_c, 13, 72, 39
28, 187939, Note_on_c, 13, 65, 0
28, 188165, Note_on_c, 13, 67, 0
28, 188166, Note_on_c, 13, 72, 0
28, 188170, Note_on_c, 13, 70, 54
28, 188183, Note_on_c, 13, 65, 55
28, 188400, Note_on_c, 13, 67, 45
28, 188410, Note_on_c, 13, 70, 0
28, 188413, Note_on_c, 13, 72, 56
28, 188423, Note_on_c, 13, 65, 0
28, 188640, Note_on_c, 13, 67, 0
28, 188645, Note_on_c, 13, 65, 48
28, 188653, Note_on_c, 13, 72, 0
28, 188664, Note_on_c, 13, 70, 48
28, 188882, Note_on_c, 13, 67, 59
28, 188885, Note_on_c, 13, 65, 0
28, 188904, Note_on_c, 13, 70, 0
28, 188904, Note_on_c, 13, 72, 53
28, 189122, Note_on_c, 13, 67, 0
28, 189134, Note_on_c, 13, 65, 42
28, 189141, Note_on_c, 13, 70, 50
28, 189144, Note_on_c, 13, 72, 0
28, 189374, Note_on_c, 13, 65, 0
28, 189374, Note_on_c, 13, 67, 53
28, 189381, Note_on_c, 13, 70, 0
28, 189384, Note_on_c, 13, 72, 48
28, 189605, Note_on_c, 13, 65, 48
28, 189614, Note_on_c, 13, 67, 0
28, 189624, Note_on_c, 13, 72, 0
28, 189624, Note_on_c, 13, 70, 39
28, 189840, Note_on_c, 13, 72, 55
28, 189842, Note_on_c, 13, 67, 46
28, 189845, Note_on_c, 13, 65, 0
28, 189864, Note_on_c, 13, 70, 0
28, 190080, Note_on_c, 13, 72, 0
28, 190082, Note_on_c, 13, 67, 0
28, 190105, Note_on_c, 13, 65, 39
28, 190105, Note_on_c, 13, 70, 51
28, 190320, Note_on_c, 13, 67, 48
28, 190336, Note_on_c, 13, 72, 56
28, 190345, Note_on_c, 13, 65, 0
28, 190345, Note_on_c, 13, 70, 0
28, 190560, Note_on_c, 13, 67, 0
28, 190566, Note_on_c, 13, 65, 53
28, 190576, Note_on_c, 13, 72, 0
28, 190585, Note_on_c, 13, 70, 57
28, 190806, Note_on_c, 13, 65, 0
28, 190810, Note_on_c, 13, 72, 51
28, 190815, Note_on_c, 13, 67, 42
28, 190825, Note_on_c, 13, 70, 0
28, 191041, Note_on_c, 13, 70, 52
28, 191049, Note_on_c, 13, 65, 40
28, 191050, Note_on_c, 13, 72, 0
28, 191055, Note_on_c, 13, 67, 0
28, 191281, Note_on_c, 13, 70, 0
28, 191285, Note_on_c, 13, 67, 39
28, 191288, Note_on_c, 13, 72, 53
28, 191289, Note_on_c, 13, 65, 0
28, 191520, Note_on_c, 13, 65, 45
28, 191525, Note_on_c, 13, 67, 0
28, 191528, Note_on_c, 13, 72, 0
28, 191533, Note_on_c, 13, 70, 45
28, 191760, Note_on_c, 13, 65, 0
28, 191763, Note_on_c, 13, 72, 53
28, 191773, Note_on_c, 13, 70, 0
28, 191783, Note_on_c, 13, 67, 41
28, 192003, Note_on_c, 13, 72, 0
28, 192008, Note_on_c, 13, 65, 52
28, 192009, Note_on_c, 13, 70, 40
28, 192023, Note_on_c, 13, 67, 0
28, 192243, Note_on_c, 13, 67, 51
28, 192245, Note_on_c, 13, 72, 44
28, 192248, Note_on_c, 13, 65, 0
28, 192249, Note_on_c, 13, 70, 0
28, 192483, Note_on_c, 13, 67, 0
28, 192485, Note_on_c, 13, 72, 0
28, 192488, Note_on_c, 13, 70, 53
28, 192490, Note_on_c, 13, 65, 49
28, 192728, Note_on_c, 13, 70, 0
28, 192730, Note_on_c, 13, 65, 0
28, 192742, Note_on_c, 13, 67, 51
28, 192745, Note_on_c, 13, 72, 42
28, 192960, Note_on_c, 13, 70, 57
28, 192981, Note_on_c, 13, 65, 44
28, 192982, Note_on_c, 13, 67, 0
28, 192985, Note_on_c, 13, 72, 0
28, 193200, Note_on_c, 13, 70, 0
28, 193220, Note_on_c, 13, 72, 45
28, 193221, Note_on_c, 13, 65, 0
28, 193225, Note_on_c, 13, 67, 45
28, 193441, Note_on_c, 13, 70, 42
28, 193460, Note_on_c, 13, 72, 0
28, 193460, Note_on_c, 13, 65, 54
28, 193465, Note_on_c, 13, 67, 0
28, 193681, Note_on_c, 13, 70, 0
28, 193689, Note_on_c, 13, 67, 54
28, 193696, Note_on_c, 13, 72, 47
28, 193700, Note_on_c, 13, 65, 0
28, 193925, Note_on_c, 13, 70, 50
28, 193929, Note_on_c, 13, 67, 0
28, 193935, Note_on_c, 13, 65, 40
28, 193936, Note_on_c, 13, 72, 0
28, 194165, Note_on_c, 13, 70, 0
28, 194171, Note_on_c, 13, 67, 55
28, 194175, Note_on_c, 13, 65, 0
28, 194178, Note_on_c, 13, 72, 43
28, 194405, Note_on_c, 12, 63, 72
28, 194411, Note_on_c, 13, 67, 0
28, 194418, Note_on_c, 13, 72, 0
28, 194645, Note_on_c, 12, 63, 0
28, 194650, Note_on_c, 12, 72, 66
28, 194881, Note_on_c, 12, 65, 70
28, 194890, Note_on_c, 12, 72, 0
28, 195121, Note_on_c, 12, 65, 0
28, 195139, Note_on_c, 12, 72, 84
28, 195369, Note_on_c, 12, 63, 78
28, 195379, Note_on_c, 12, 72, 0
28, 195602, Note_on_c, 12, 72, 84
28, 195609, Note_on_c, 12, 63, 0
28, 195842, Note_on_c, 12, 72, 0
28, 195859, Note_on_c, 12, 65, 66
28, 196096, Note_on_c, 12, 72, 73
28, 196099, Note_on_c, 12, 65, 0
28, 196336, Note_on_c, 12, 72, 0
28, 196344, Note_on_c, 12, 63, 67
28, 196575, Note_on_c, 12, 72, 70
28, 196584, Note_on_c, 12, 63, 0
28, 196803, Note_on_c, 12, 65, 83
28, 196815, Note_on_c, 12, 72, 0
28, 197043, Note_on_c, 12, 65, 0
28, 197046, Note_on_c, 12, 72, 82
28, 197286, Note_on_c, 12, 72, 0
28, 197290, Note_on_c, 12, 63, 70
28, 197530, Note_on_c, 12, 63, 0
28, 197531, Note_on_c, 12, 72, 67
28, 197766, Note_on_c, 12, 65, 75
28, 197771, Note_on_c, 12, 72, 0
28, 198006, Note_on_c, 12, 65, 0
28, 198006, Note_on_c, 12, 72, 68
28, 198246, Note_on_c, 12, 72, 0
28, 198261, Note_on_c, 12, 63, 72
28, 198480, Note_on_c, 12, 72, 84
28, 198501, Note_on_c, 12, 63, 0
28, 198720, Note_on_c, 12, 72, 0
28, 198728, Note_on_c, 12, 65, 85
28, 198968, Note_on_c, 12, 65, 0
28, 198975, Note_on_c, 12, 72, 74
28, 199203, Note_on_c, 12, 63, 65
28, 199215, Note_on_c, 12, 72, 0
28, 199443, Note_on_c, 12, 63, 0
28, 199454, Note_on_c, 12, 72, 77
28, 199694, Note_on_c, 12, 72, 0
28, 199702, Note_on_c, 12, 65, 82
28, 199937, Note_on_c, 12, 72, 67
28, 199942, Note_on_c, 12, 65, 0
28, 200165, Note_on_c, 12, 63, 67
28, 200177, Note_on_c, 12, 72, 0
28, 200405, Note_on_c, 12, 63, 0
28, 200425, Note_on_c, 12, 72, 68
28, 200642, Note_on_c, 12, 65, 78
28, 200665, Note_on_c, 12, 72, 0
28, 200882, Note_on_c, 12, 65, 0
28, 200893, Note_on_c, 12, 72, 82
28, 201133, Note_on_c, 12, 72, 0
28, 201142, Note_on_c, 12, 63, 83
28, 201369, Note_on_c, 12, 72, 80
28, 201382, Note_on_c, 12, 63, 0
28, 201609, Note_on_c, 12, 72, 0
28, 201617, Note_on_c, 12, 65, 66
28, 201851, Note_on_c, 12, 72, 69
28, 201857, Note_on_c, 12, 65, 0
28, 202091, Note_on_c, 12, 72, 0
28, 202094, Note_on_c, 12, 63, 76
28, 202331, Note_on_c, 12, 72, 72
28, 202334, Note_on_c, 12, 63, 0
28, 202571, Note_on_c, 12, 72, 0
28, 202575, Note_on_c, 12, 65, 69
28, 202808, Note_on_c, 12, 72, 84
28, 202815, Note_on_c, 12, 65, 0
28, 203048, Note_on_c, 12, 72, 0
28, 203056, Note_on_c, 12, 63, 67
28, 203294, Note_on_c, 12, 72, 69
28, 203296, Note_on_c, 12, 63, 0
28, 203534, Note_on_c, 12, 72, 0
28, 203541, Note_on_c, 12, 65, 78
28, 203770, Note_on_c, 12, 72, 80
28, 203781, Note_on_c, 12, 65, 0
28, 204010, Note_on_c, 12, 72, 0
28, 204010, Note_on_c, 12, 63, 66
28, 204241, Note_on_c, 12, 72, 66
28, 204250, Note_on_c, 12, 63, 0
28, 204481, Note_on_c, 12, 72, 0
28, 204485, Note_on_c, 12, 65, 78
28, 204725, Note_on_c, 12, 65, 0
28, 204744, Note_on_c, 12, 72, 66
28, 204965, Note_on_c, 12, 63, 80
28, 204984, Note_on_c, 12, 72, 0
28, 205205, Note_on_c, 12, 63, 0
28, 205221, Note_on_c, 12, 72, 85
28, 205445, Note_on_c, 12, 65, 77
28, 205461, Note_on_c, 12, 72, 0
28, 205685, Note_on_c, 12, 65, 0
28, 205698, Note_on_c, 12, 72, 81
28, 205933, Note_on_c, 12, 63, 83
28, 205938, Note_on_c, 12, 72, 0
28, 206169, Note_on_c, 12, 72, 70
28, 206173, Note_on_c, 12, 63, 0
28, 206400, Note_on_c, 12, 65, 81
28, 206409, Note_on_c, 12, 72, 0
28, 206640, Note_on_c, 12, 65, 0
28, 206656, Note_on_c, 12, 72, 68
28, 206886, Note_on_c, 12, 63, 74
28, 206896, Note_on_c, 12, 72, 0
28, 207126, Note_on_c, 12, 63, 0
28, 207129, Note_on_c, 12, 72, 74
28, 207369, Note_on_c, 12, 72, 0
28, 207379, Note_on_c, 12, 65, 65
28, 207603, Note_on_c, 12, 72, 74
28, 207619, Note_on_c, 12, 65, 0
28, 207843, Note_on_c, 12, 72, 0
28, 207863, Note_on_c, 12, 63, 82
28, 208101, Note_on_c, 12, 72, 68
28, 208103, Note_on_c, 12, 63, 0
28, 208323, Note_on_c, 12, 65, 76
28, 208341, Note_on_c, 12, 72, 0
28, 208563, Note_on_c, 12, 65, 0
28, 208563, Note_on_c, 12, 72, 80
28, 208803, Note_on_c, 12, 72, 0
28, 208813, Note_on_c, 12, 63, 74
28, 209048, Note_on_c, 12, 72, 72
28, 209053, Note_on_c, 12, 63, 0
28, 209288, Note_on_c, 12, 72, 0
28, 209290, Note_on_c, 12, 65, 76
28, 209527, Note_on_c, 12, 72, 73
28, 209530, Note_on_c, 12, 65, 0
28, 209767, Note_on_c, 12, 72, 0
28, 209767, Note_on_c, 12, 63, 65
28, 210007, Note_on_c, 12, 63, 0
28, 210007, Note_on_c, 12, 72, 85
28, 210247, Note_on_c, 12, 72, 0
28, 210259, Note_on_c, 12, 65, 82
28, 210493, Note_on_c, 12, 72, 75
28, 210499, Note_on_c, 12, 65, 0
28, 210723, Note_on_c, 12, 63, 72
28, 210733, Note_on_c, 12, 72, 0
28, 210963, Note_on_c, 12, 63, 0
28, 210972, Note_on_c, 12, 72, 75
28, 211207, Note_on_c, 12, 65, 76
28, 211212, Note_on_c, 12, 72, 0
28, 211442, Note_on_c, 12, 72, 65
28, 211447, Note_on_c, 12, 65, 0
28, 211682, Note_on_c, 12, 72, 0
28, 212160, Program_c, 12, 45
28, 212169, Note_on_c, 12, 61, 45
28, 212328, Note_on_c, 12, 61, 0
28, 212331, Note_on_c, 12, 64, 53
28, 212491, Note_on_c, 12, 64, 0
28, 212498, Note_on_c, 12, 67, 49
28, 212657, Note_on_c, 12, 67, 0
28, 213141, Note_on_c, 12, 64, 45
28, 213285, Note_on_c, 12, 67, 47
28, 213300, Note_on_c, 12, 64, 0
28, 213442, Note_on_c, 12, 70, 49
28, 213445, Note_on_c, 12, 67, 0
28, 213601, Note_on_c, 12, 70, 0
28, 213611, Note_on_c, 12, 59, 42
28, 213769, Note_on_c, 12, 62, 60
28, 213770, Note_on_c, 12, 59, 0
28, 213929, Note_on_c, 12, 62, 0
28, 213932, Note_on_c, 12, 65, 51
28, 214091, Note_on_c, 12, 65, 0
28, 214091, Note_on_c, 12, 64, 74
28, 214250, Note_on_c, 12, 64, 0
28, 214254, Note_on_c, 12, 67, 63
28, 214402, Note_on_c, 12, 70, 70
28, 214414, Note_on_c, 12, 67, 0
28, 214561, Note_on_c, 12, 70, 0
28, 215053, Note_on_c, 12, 68, 53
28, 215212, Note_on_c, 12, 68, 0
28, 215218, Note_on_c, 12, 71, 54
28, 215378, Note_on_c, 12, 71, 0
28, 215385, Note_on_c, 12, 74, 39
28, 215544, Note_on_c, 12, 74, 0
28, 215773, Note_on_c, 12, 80, 100
28, 216006, Note_on_c, 12, 64, 99
28, 216013, Note_on_c, 12, 80, 0
28, 216165, Note_on_c, 12, 64, 0
28, 216174, Note_on_c, 12, 67, 89
28, 216334, Note_on_c, 12, 67, 0
28, 216339, Note_on_c, 12, 70, 91
28, 216483, Note_on_c, 12, 81, 85
28, 216498, Note_on_c, 12, 70, 0
28, 216723, Note_on_c, 12, 81, 0
28, 216984, Note_on_c, 12, 68, 99
28, 217128, Note_on_c, 12, 71, 96
28, 217143, Note_on_c, 12, 68, 0
28, 217288, Note_on_c, 12, 71, 0
28, 217304, Note_on_c, 12, 74, 85
28, 217448, Note_on_c, 12, 81, 90
28, 217463, Note_on_c, 12, 74, 0
28, 217688, Note_on_c, 12, 81, 0
28, 217930, Note_on_c, 12, 65, 85
28, 218080, Note_on_c, 12, 68, 89
28, 218089, Note_on_c, 12, 65, 0
28, 218240, Note_on_c, 12, 68, 0
28, 218252, Note_on_c, 12, 71, 101
28, 218411, Note_on_c, 12, 71, 0
28, 218654, Note_on_c, 12, 84, 93
28, 218663, Note_on_c, 12, 76, 100
28, 218891, Note_on_c, 12, 68, 98
28, 218894, Note_on_c, 12, 84, 0
28, 218903, Note_on_c, 12, 76, 0
28, 219050, Note_on_c, 12, 68, 0
28, 219063, Note_on_c, 12, 71, 94
28, 219221, Note_on_c, 12, 74, 85
28, 219223, Note_on_c, 12, 71, 0
28, 219360, Program_c, 12, 45
28, 219376, Note_on_c, 12, 72, 87
28, 219380, Note_on_c, 12, 74, 0
28, 219486, Note_on_c, 12, 72, 85
28, 219496, Note_on_c, 12, 72, 0
28, 219606, Note_on_c, 12, 72, 0
28, 219612, Note_on_c, 12, 72, 92
28, 219732, Note_on_c, 12, 72, 0
28, 219735, Note_on_c, 12, 72, 98
28, 219855, Note_on_c, 12, 72, 0
28, 219857, Note_on_c, 12, 72, 85
28, 219966, Note_on_c, 12, 72, 93
28, 219977, Note_on_c, 12, 72, 0
28, 220086, Note_on_c, 12, 72, 0
28, 220086, Note_on_c, 12, 72, 94
28, 220206, Note_on_c, 12, 72, 0
28, 220216, Note_on_c, 12, 72, 79
28, 220336, Note_on_c, 12, 72, 0
28, 220339, Note_on_c, 12, 72, 85
28, 220450, Note_on_c, 12, 72, 89
28, 220459, Note_on_c, 12, 72, 0
28, 220564, Note_on_c, 12, 72, 84
28, 220570, Note_on_c, 12, 72, 0
28, 220681, Note_on_c, 12, 72, 92
28, 220684, Note_on_c, 12, 72, 0
28, 220801, Note_on_c, 12, 72, 0
28, 220820, Note_on_c, 12, 72, 81
28, 220931, Note_on_c, 12, 72, 97
28, 220940, Note_on_c, 12, 72, 0
28, 221051, Note_on_c, 12, 72, 0
28, 221056, Note_on_c, 12, 72, 91
28, 221176, Note_on_c, 12, 72, 0
28, 221179, Note_on_c, 12, 72, 78
28, 221298, Note_on_c, 12, 72, 84
28, 221299, Note_on_c, 12, 72, 0
28, 221404, Note_on_c, 12, 72, 85
28, 221418, Note_on_c, 12, 72, 0
28, 221524, Note_on_c, 12, 72, 0
28, 221529, Note_on_c, 12, 72, 85
28, 221648, Note_on_c, 12, 72, 97
28, 221649, Note_on_c, 12, 72, 0
28, 221768, Note_on_c, 12, 72, 0
28, 221784, Note_on_c, 12, 72, 88
28, 221884, Note_on_c, 12, 72, 83
28, 221904, Note_on_c, 12, 72, 0
28, 222004, Note_on_c, 12, 72, 0
28, 222012, Note_on_c, 12, 72, 81
28, 222126, Note_on_c, 12, 72, 88
28, 222132, Note_on_c, 12, 72, 0
28, 222241, Note_on_c, 12, 72, 87
28, 222246, Note_on_c, 12, 72, 0
28, 222361, Note_on_c, 12, 72, 0
28, 222381, Note_on_c, 12, 72, 98
28, 222501, Note_on_c, 12, 72, 0
28, 222504, Note_on_c, 12, 72, 83
28, 222606, Note_on_c, 12, 72, 85
28, 222624, Note_on_c, 12, 72, 0
28, 222726, Note_on_c, 12, 72, 0
28, 222744, Note_on_c, 12, 72, 96
28, 222848, Note_on_c, 12, 72, 94
28, 222864, Note_on_c, 12, 72, 0
28, 222966, Note_on_c, 12, 72, 84
28, 222968, Note_on_c, 12, 72, 0
28, 223086, Note_on_c, 12, 72, 0
28, 223089, Note_on_c, 12, 72, 94
28, 223207, Note_on_c, 12, 72, 78
28, 223209, Note_on_c, 12, 72, 0
28, 223327, Note_on_c, 12, 72, 0
28, 223341, Note_on_c, 12, 72, 98
28, 223456, Note_on_c, 12, 72, 96
28, 223461, Note_on_c, 12, 72, 0
28, 223563, Note_on_c, 12, 72, 79
28, 223576, Note_on_c, 12, 72, 0
28, 223681, Note_on_c, 12, 72, 97
28, 223683, Note_on_c, 12, 72, 0
28, 223801, Note_on_c, 12, 72, 0
28, 223818, Note_on_c, 12, 72, 85
28, 223938, Note_on_c, 12, 72, 0
28, 223938, Note_on_c, 12, 72, 84
28, 224053, Note_on_c, 12, 72, 81
28, 224058, Note_on_c, 12, 72, 0
28, 224171, Note_on_c, 12, 72, 92
28, 224173, Note_on_c, 12, 72, 0
28, 224283, Note_on_c, 12, 72, 86
28, 224291, Note_on_c, 12, 72, 0
28, 224401, Note_on_c, 12, 72, 81
28, 224403, Note_on_c, 12, 72, 0
28, 224521, Note_on_c, 12, 72, 0
28, 224542, Note_on_c, 12, 72, 88
28, 224650, Note_on_c, 12, 72, 88
28, 224662, Note_on_c, 12, 72, 0
28, 224770, Note_on_c, 12, 72, 0
28, 224773, Note_on_c, 12, 72, 83
28, 224893, Note_on_c, 12, 72, 0
28, 224895, Note_on_c, 12, 72, 89
28, 225010, Note_on_c, 12, 72, 98
28, 225015, Note_on_c, 12, 72, 0
28, 225130, Note_on_c, 12, 72, 0
28, 225138, Note_on_c, 12, 72, 78
28, 225251, Note_on_c, 12, 72, 80
28, 225258, Note_on_c, 12, 72, 0
28, 225371, Note_on_c, 12, 72, 0
28, 225380, Note_on_c, 12, 72, 80
28, 225497, Note_on_c, 12, 72, 79
28, 225500, Note_on_c, 12, 72, 0
28, 225617, Note_on_c, 12, 72, 0
28, 225623, Note_on_c, 12, 72, 95
28, 225742, Note_on_c, 12, 72, 87
28, 225743, Note_on_c, 12, 72, 0
28, 225862, Note_on_c, 12, 72, 0
28, 225865, Note_on_c, 12, 72, 81
28, 225970, Note_on_c, 12, 72, 82
28, 225985, Note_on_c, 12, 72, 0
28, 226087, Note_on_c, 12, 72, 91
28, 226090, Note_on_c, 12, 72, 0
28, 226207, Note_on_c, 12, 72, 0
28, 226213, Note_on_c, 12, 72, 98
28, 226333, Note_on_c, 12, 72, 0
28, 226334, Note_on_c, 12, 72, 88
28, 226448, Note_on_c, 12, 72, 88
28, 226454, Note_on_c, 12, 72, 0
28, 226568, Note_on_c, 12, 72, 0
28, 226584, Note_on_c, 12, 72, 96
28, 226691, Note_on_c, 12, 72, 87
28, 226704, Note_on_c, 12, 72, 0
28, 226811, Note_on_c, 12, 72, 0
28, 226812, Note_on_c, 12, 72, 98
28, 226923, Note_on_c, 12, 72, 80
28, 226932, Note_on_c, 12, 72, 0
28, 227043, Note_on_c, 12, 72, 0
28, 229080, Program_c, 12, 48
28, 229086, Note_on_c, 12, 63, 66
28, 229206, Note_on_c, 12, 63, 0
28, 229211, Note_on_c, 12, 65, 72
28, 229331, Note_on_c, 12, 65, 0
28, 229333, Note_on_c, 12, 67, 72
28, 229452, Note_on_c, 12, 69, 68
28, 229453, Note_on_c, 12, 67, 0
28, 229572, Note_on_c, 12, 69, 0
28, 229573, Note_on_c, 12, 71, 88
28, 229686, Note_on_c, 12, 72, 71
28, 229693, Note_on_c, 12, 71, 0
28, 229806, Note_on_c, 12, 72, 0
28, 229817, Note_on_c, 12, 74, 80
28, 229937, Note_on_c, 12, 74, 0
28, 229938, Note_on_c, 12, 75, 74
28, 230057, Note_on_c, 12, 63, 73
28, 230058, Note_on_c, 12, 75, 0
28, 230175, Note_on_c, 12, 65, 93
28, 230177, Note_on_c, 12, 63, 0
28, 230295, Note_on_c, 12, 65, 0
28, 230301, Note_on_c, 12, 67, 81
28, 230421, Note_on_c, 12, 67, 0
28, 230424, Note_on_c, 12, 69, 94
28, 230527, Note_on_c, 12, 71, 93
28, 230544, Note_on_c, 12, 69, 0
28, 230647, Note_on_c, 12, 71, 0
28, 230653, Note_on_c, 12, 72, 79
28, 230773, Note_on_c, 12, 72, 0
28, 230773, Note_on_c, 12, 74, 97
28, 230880, Note_on_c, 12, 75, 91
28, 230893, Note_on_c, 12, 74, 0
28, 230915, Note_on_c, 12, 75, 0
28, 231000, Note_on_c, 12, 74, 82
28, 231035, Note_on_c, 12, 74, 0
28, 231120, Note_on_c, 12, 75, 95
28, 231155, Note_on_c, 12, 75, 0
28, 231240, Note_on_c, 12, 74, 98
28, 231275, Note_on_c, 12, 74, 0
28, 231360, Note_on_c, 12, 75, 89
28, 231395, Note_on_c, 12, 75, 0
28, 231480, Note_on_c, 12, 74, 90
28, 231515, Note_on_c, 12, 74, 0
28, 231600, Note_on_c, 12, 75, 97
28, 231635, Note_on_c, 12, 75, 0
28, 231720, Note_on_c, 12, 74, 96
28, 231755, Note_on_c, 12, 74, 0
28, 231840, Note_on_c, 12, 75, 91
28, 231875, Note_on_c, 12, 75, 0
28, 231960, Note_on_c, 12, 74, 79
28, 231995, Note_on_c, 12, 74, 0
28, 232080, Note_on_c, 12, 75, 88
28, 232115, Note_on_c, 12, 75, 0
28, 232200, Note_on_c, 12, 74, 82
28, 232235, Note_on_c, 12, 74, 0
28, 232320, Note_on_c, 12, 75, 79
28, 232355, Note_on_c, 12, 75, 0
28, 232440, Note_on_c, 12, 74, 79
28, 232475, Note_on_c, 12, 74, 0
28, 232560, Note_on_c, 12, 75, 87
28, 232595, Note_on_c, 12, 75, 0
28, 232680, Note_on_c, 12, 74, 85
28, 232715, Note_on_c, 12, 74, 0
28, 232805, Note_on_c, 12, 72, 112
28, 232925, Note_on_c, 12, 72, 0
28, 232933, Note_on_c, 12, 71, 97
28, 233040, Note_on_c, 12, 69, 79
28, 233053, Note_on_c, 12, 71, 0
28, 233087, Note_on_c, 12, 69, 0
28, 233160, Note_on_c, 12, 67, 89
28, 233207, Note_on_c, 12, 67, 0
28, 233301, Note_on_c, 12, 74, 112
28, 233420, Note_on_c, 12, 72, 78
28, 233421, Note_on_c, 12, 74, 0
28, 233520, Note_on_c, 12, 71, 90
28, 233540, Note_on_c, 12, 72, 0
28, 233567, Note_on_c, 12, 71, 0
28, 233640, Note_on_c, 12, 69, 93
28, 233687, Note_on_c, 12, 69, 0
28, 233760, Note_on_c, 12, 75, 85
28, 233795, Note_on_c, 12, 75, 0
28, 233880, Note_on_c, 12, 74, 89
28, 233915, Note_on_c, 12, 74, 0
28, 234000, Note_on_c, 12, 75, 95
28, 234035, Note_on_c, 12, 75, 0
28, 234120, Note_on_c, 12, 74, 88
28, 234155, Note_on_c, 12, 74, 0
28, 234240, Note_on_c, 12, 75, 97
28, 234275, Note_on_c, 12, 75, 0
28, 234360, Note_on_c, 12, 74, 93
28, 234395, Note_on_c, 12, 74, 0
28, 234480, Note_on_c, 12, 75, 87
28, 234515, Note_on_c, 12, 75, 0
28, 234600, Note_on_c, 12, 74, 86
28, 234635, Note_on_c, 12, 74, 0
28, 234737, Note_on_c, 12, 72, 101
28, 234853, Note_on_c, 12, 71, 82
28, 234857, Note_on_c, 12, 72, 0
28, 234960, Note_on_c, 12, 69, 90
28, 234973, Note_on_c, 12, 71, 0
28, 235007, Note_on_c, 12, 69, 0
28, 235080, Note_on_c, 12, 67, 98
28, 235127, Note_on_c, 12, 67, 0
28, 235209, Note_on_c, 12, 74, 102
28, 235329, Note_on_c, 12, 74, 0
28, 235344, Note_on_c, 12, 72, 98
28, 235440, Note_on_c, 12, 71, 97
28, 235464, Note_on_c, 12, 72, 0
28, 235487, Note_on_c, 12, 71, 0
28, 235560, Note_on_c, 12, 69, 78
28, 235607, Note_on_c, 12, 69, 0
28, 235691, Note_on_c, 12, 72, 100
28, 235803, Note_on_c, 12, 71, 94
28, 235811, Note_on_c, 12, 72, 0
28, 235920, Note_on_c, 12, 69, 88
28, 235923, Note_on_c, 12, 71, 0
28, 235967, Note_on_c, 12, 69, 0
28, 236040, Note_on_c, 12, 67, 81
28, 236087, Note_on_c, 12, 67, 0
28, 236163, Note_on_c, 12, 74, 115
28, 236281, Note_on_c, 12, 72, 83
28, 236283, Note_on_c, 12, 74, 0
28, 236400, Note_on_c, 12, 71, 88
28, 236401, Note_on_c, 12, 72, 0
28, 236447, Note_on_c, 12, 71, 0
28, 236520, Note_on_c, 12, 69, 92
28, 236567, Note_on_c, 12, 69, 0
28, 236648, Note_on_c, 12, 72, 114
28, 236765, Note_on_c, 12, 71, 87
28, 236768, Note_on_c, 12, 72, 0
28, 236880, Note_on_c, 12, 69, 86
28, 236885, Note_on_c, 12, 71, 0
28, 236927, Note_on_c, 12, 69, 0
28, 237000, Note_on_c, 12, 67, 96
28, 237047, Note_on_c, 12, 67, 0
28, 237132, Note_on_c, 12, 74, 115
28, 237242, Note_on_c, 12, 72, 81
28, 237252, Note_on_c, 12, 74, 0
28, 237360, Note_on_c, 12, 71, 87
28, 237362, Note_on_c, 12, 72, 0
28, 237407, Note_on_c, 12, 71, 0
28, 237480, Note_on_c, 12, 69, 78
28, 237527, Note_on_c, 12, 69, 0
28, 237606, Note_on_c, 12, 75, 81
28, 237726, Note_on_c, 12, 75, 0
28, 237731, Note_on_c, 12, 74, 87
28, 237840, Note_on_c, 12, 72, 96
28, 237851, Note_on_c, 12, 74, 0
28, 237887, Note_on_c, 12, 72, 0
28, 237960, Note_on_c, 12, 71, 92
28, 238007, Note_on_c, 12, 71, 0
28, 238093, Note_on_c, 12, 74, 81
28, 238203, Note_on_c, 12, 72, 87
28, 238213, Note_on_c, 12, 74, 0
28, 238320, Note_on_c, 12, 71, 87
28, 238323, Note_on_c, 12, 72, 0
28, 238367, Note_on_c, 12, 71, 0
28, 238440, Note_on_c, 12, 69, 85
28, 238487, Note_on_c, 12, 69, 0
28, 238578, Note_on_c, 12, 81, 95
28, 238810, Note_on_c, 12, 83, 98
28, 238818, Note_on_c, 12, 81, 0
28, 238925, Note_on_c, 12, 79, 97
28, 238930, Note_on_c, 12, 83, 0
28, 239045, Note_on_c, 12, 79, 0
28, 239059, Note_on_c, 12, 81, 89
28, 239290, Note_on_c, 12, 86, 81
28, 239299, Note_on_c, 12, 81, 0
28, 239530, Note_on_c, 12, 86, 0
28, 239531, Note_on_c, 12, 84, 90
28, 239768, Note_on_c, 12, 83, 78
28, 239771, Note_on_c, 12, 84, 0
28, 239888, Note_on_c, 12, 83, 0
28, 239897, Note_on_c, 12, 81, 90
28, 240007, Note_on_c, 12, 83, 98
28, 240017, Note_on_c, 12, 81, 0
28, 240243, Note_on_c, 12, 79, 98
28, 240247, Note_on_c, 12, 83, 0
28, 240483, Note_on_c, 12, 79, 0
28, 240500, Note_on_c, 12, 81, 87
28, 240731, Note_on_c, 12, 86, 96
28, 240740, Note_on_c, 12, 81, 0
28, 240969, Note_on_c, 12, 91, 98
28, 240971, Note_on_c, 12, 86, 0
28, 241081, Note_on_c, 12, 84, 94
28, 241089, Note_on_c, 12, 91, 0
28, 241201, Note_on_c, 12, 84, 0
28, 241215, Note_on_c, 12, 86, 98
28, 241324, Note_on_c, 12, 79, 94
28, 241335, Note_on_c, 12, 86, 0
28, 241444, Note_on_c, 12, 79, 0
28, 241461, Note_on_c, 12, 81, 85
28, 241690, Note_on_c, 12, 86, 94
28, 241701, Note_on_c, 12, 81, 0
28, 241920, Note_on_c, 12, 84, 89
28, 241930, Note_on_c, 12, 86, 0
28, 242160, Note_on_c, 12, 84, 0
28, 242167, Note_on_c, 12, 83, 88
28, 242280, Note_on_c, 12, 79, 82
28, 242287, Note_on_c, 12, 83, 0
28, 242400, Note_on_c, 12, 79, 0
28, 242403, Note_on_c, 12, 81, 83
28, 242643, Note_on_c, 12, 81, 0
28, 242649, Note_on_c, 12, 83, 97
28, 242769, Note_on_c, 12, 83, 0
28, 242777, Note_on_c, 12, 79, 96
28, 242887, Note_on_c, 12, 81, 96
28, 242897, Note_on_c, 12, 79, 0
28, 243127, Note_on_c, 12, 81, 0
28, 243128, Note_on_c, 12, 86, 81
28, 243368, Note_on_c, 12, 86, 0
28, 243376, Note_on_c, 12, 84, 88
28, 243616, Note_on_c, 12, 84, 0
28, 243619, Note_on_c, 12, 83, 87
28, 243737, Note_on_c, 12, 81, 79
28, 243739, Note_on_c, 12, 83, 0
28, 243854, Note_on_c, 12, 83, 96
28, 243857, Note_on_c, 12, 81, 0
28, 244094, Note_on_c, 12, 83, 0
28, 244094, Note_on_c, 12, 79, 91
28, 244334, Note_on_c, 12, 79, 0
28, 244336, Note_on_c, 12, 81, 95
28, 244564, Note_on_c, 12, 86, 80
28, 244576, Note_on_c, 12, 81, 0
28, 244801, Note_on_c, 12, 91, 84
28, 244804, Note_on_c, 12, 86, 0
28, 244921, Note_on_c, 12, 91, 0
28, 244935, Note_on_c, 12, 84, 91
28, 245055, Note_on_c, 12, 84, 0
28, 245056, Note_on_c, 12, 86, 91
28, 245176, Note_on_c, 12, 86, 0
28, 245185, Note_on_c, 12, 79, 82
28, 245300, Note_on_c, 12, 81, 87
28, 245305, Note_on_c, 12, 79, 0
28, 245536, Note_on_c, 12, 86, 89
28, 245540, Note_on_c, 12, 81, 0
28, 245767, Note_on_c, 12, 84, 91
28, 245776, Note_on_c, 12, 86, 0
28, 246007, Note_on_c, 12, 84, 0
28, 246013, Note_on_c, 12, 83, 87
28, 246131, Note_on_c, 12, 79, 92
28, 246133, Note_on_c, 12, 83, 0
28, 246251, Note_on_c, 12, 79, 0
28, 246251, Note_on_c, 12, 81, 93
28, 246481, Note_on_c, 12, 86, 84
28, 246491, Note_on_c, 12, 81, 0
28, 246721, Note_on_c, 12, 86, 0
28, 246730, Note_on_c, 12, 91, 97
28, 246850, Note_on_c, 12, 91, 0
28, 246855, Note_on_c, 12, 84, 92
28, 246961, Note_on_c, 12, 86, 84
28, 246975, Note_on_c, 12, 84, 0
28, 247081, Note_on_c, 12, 86, 0
28, 247093, Note_on_c, 12, 79, 81
28, 247213, Note_on_c, 12, 79, 0
28, 247221, Note_on_c, 12, 81, 94
28, 247444, Note_on_c, 12, 86, 86
28, 247461, Note_on_c, 12, 81, 0
28, 247684, Note_on_c, 12, 86, 0
28, 247700, Note_on_c, 12, 91, 84
28, 247800, Note_on_c, 12, 84, 92
28, 247820, Note_on_c, 12, 91, 0
28, 247920, Note_on_c, 12, 84, 0
28, 247920, Note_on_c, 12, 86, 93
28, 248040, Note_on_c, 12, 86, 0
28, 248045, Note_on_c, 12, 79, 95
28, 248165, Note_on_c, 12, 79, 0
28, 248169, Note_on_c, 12, 81, 78
28, 248409, Note_on_c, 12, 81, 0
28, 248418, Note_on_c, 12, 86, 88
28, 248641, Note_on_c, 12, 91, 96
28, 248658, Note_on_c, 12, 86, 0
28, 248761, Note_on_c, 12, 91, 0
28, 248775, Note_on_c, 12, 84, 86
28, 248895, Note_on_c, 12, 84, 0
28, 248902, Note_on_c, 12, 86, 89
28, 249020, Note_on_c, 12, 79, 92
28, 249022, Note_on_c, 12, 86, 0
28, 249131, Note_on_c, 12, 81, 81
28, 249140, Note_on_c, 12, 79, 0
28, 249365, Note_on_c, 12, 86, 91
28, 249371, Note_on_c, 12, 81, 0
28, 249605, Note_on_c, 12, 86, 0
28, 249619, Note_on_c, 12, 84, 97
28, 249859, Note_on_c, 12, 84, 0
28, 249860, Note_on_c, 12, 83, 80
28, 249980, Note_on_c, 12, 83, 0
28, 249981, Note_on_c, 12, 79, 80
28, 250101, Note_on_c, 12, 79, 0
28, 266883, Note_on_c, 12, 65, 96
28, 267003, Note_on_c, 12, 65, 0
28, 267010, Note_on_c, 12, 65, 82
28, 267129, Note_on_c, 12, 66, 85
28, 267130, Note_on_c, 12, 65, 0
28, 267249, Note_on_c, 12, 66, 0
28, 267261, Note_on_c, 12, 66, 96
28, 267381, Note_on_c, 12, 66, 0
28, 267385, Note_on_c, 12, 67, 88
28, 267625, Note_on_c, 12, 67, 0
28, 269530, Note_on_c, 12, 76, 91
28, 269603, Note_on_c, 12, 77, 81
28, 269642, Note_on_c, 12, 76, 0
28, 269690, Note_on_c, 12, 76, 84
28, 269715, Note_on_c, 12, 77, 0
28, 269756, Note_on_c, 12, 77, 88
28, 269802, Note_on_c, 12, 76, 0
28, 269828, Note_on_c, 12, 76, 85
28, 269868, Note_on_c, 12, 77, 0
28, 269905, Note_on_c, 12, 77, 88
28, 269940, Note_on_c, 12, 76, 0
28, 269995, Note_on_c, 12, 76, 84
28, 270017, Note_on_c, 12, 77, 0
28, 270072, Note_on_c, 12, 77, 87
28, 270107, Note_on_c, 12, 76, 0
28, 270135, Note_on_c, 12, 76, 79
28, 270184, Note_on_c, 12, 77, 0
28, 270220, Note_on_c, 12, 77, 79
28, 270247, Note_on_c, 12, 76, 0
28, 270299, Note_on_c, 12, 76, 89
28, 270332, Note_on_c, 12, 77, 0
28, 270367, Note_on_c, 12, 77, 92
28, 270411, Note_on_c, 12, 76, 0
28, 270440, Note_on_c, 12, 76, 95
28, 270479, Note_on_c, 12, 77, 0
28, 270520, Note_on_c, 12, 77, 91
28, 270552, Note_on_c, 12, 76, 0
28, 270585, Note_on_c, 12, 76, 84
28, 270632, Note_on_c, 12, 77, 0
28, 270653, Note_on_c, 12, 77, 85
28, 270697, Note_on_c, 12, 76, 0
28, 270740, Note_on_c, 12, 76, 87
28, 270765, Note_on_c, 12, 77, 0
28, 270806, Note_on_c, 12, 77, 82
28, 270852, Note_on_c, 12, 76, 0
28, 270881, Note_on_c, 12, 77, 0
28, 270893, Note_on_c, 12, 76, 83
28, 270943, Note_on_c, 12, 76, 0
28, 270972, Note_on_c, 12, 76, 89
28, 271056, Note_on_c, 12, 76, 0
28, 271101, Note_on_c, 12, 76, 93
28, 271185, Note_on_c, 12, 76, 0
28, 271223, Note_on_c, 12, 75, 93
28, 271307, Note_on_c, 12, 75, 0
28, 271321, Note_on_c, 12, 75, 78
28, 271405, Note_on_c, 12, 75, 0
28, 271456, Note_on_c, 12, 74, 96
28, 271540, Note_on_c, 12, 74, 0
28, 271574, Note_on_c, 12, 74, 85
28, 271658, Note_on_c, 12, 74, 0
28, 271705, Note_on_c, 12, 73, 80
28, 271873, Note_on_c, 12, 73, 0
28, 283206, Note_on_c, 12, 73, 110
28, 283926, Note_on_c, 12, 73, 0
28, 283927, Note_on_c, 12, 72, 118
28, 284167, Note_on_c, 12, 72, 0
28, 284182, Note_on_c, 12, 71, 97
28, 284409, Note_on_c, 12, 70, 103
28, 284422, Note_on_c, 12, 71, 0
28, 284649, Note_on_c, 12, 70, 0
28, 284661, Note_on_c, 12, 69, 108
28, 284775, Note_on_c, 12, 71, 98
28, 284781, Note_on_c, 12, 69, 0
28, 284884, Note_on_c, 12, 69, 108
28, 284895, Note_on_c, 12, 71, 0
28, 285124, Note_on_c, 12, 69, 0
28, 288973, Note_on_c, 12, 64, 109
28, 289210, Note_on_c, 12, 65, 97
28, 289213, Note_on_c, 12, 64, 0
28, 289378, Note_on_c, 12, 65, 0
28, 289445, Note_on_c, 12, 65, 92
28, 289613, Note_on_c, 12, 65, 0
28, 289696, Note_on_c, 12, 67, 109
28, 289934, Note_on_c, 12, 68, 104
28, 289936, Note_on_c, 12, 67, 0
28, 290174, Note_on_c, 12, 68, 0
28, 290177, Note_on_c, 12, 69, 92
28, 290417, Note_on_c, 12, 69, 0
28, 290423, Note_on_c, 12, 70, 100
28, 290591, Note_on_c, 12, 70, 0
28, 290656, Note_on_c, 12, 70, 105
28, 290824, Note_on_c, 12, 70, 0
28, 290884, Note_on_c, 12, 70, 108
28, 291052, Note_on_c, 12, 70, 0
28, 291137, Note_on_c, 12, 67, 106
28, 291305, Note_on_c, 12, 67, 0
28, 291361, Note_on_c, 12, 67, 108
28, 291529, Note_on_c, 12, 67, 0
28, 291605, Note_on_c, 12, 67, 97
28, 291773, Note_on_c, 12, 67, 0
28, 291857, Note_on_c, 12, 67, 97
28, 291865, Note_on_c, 12, 70, 99
28, 292081, Note_on_c, 12, 71, 105
28, 292084, Note_on_c, 12, 68, 107
28, 292097, Note_on_c, 12, 67, 0
28, 292105, Note_on_c, 12, 70, 0
28, 292321, Note_on_c, 12, 71, 0
28, 292324, Note_on_c, 12, 68, 0
28, 292331, Note_on_c, 12, 72, 93
28, 292335, Note_on_c, 12, 69, 95
28, 292567, Note_on_c, 12, 70, 105
28, 292571, Note_on_c, 12, 72, 0
28, 292575, Note_on_c, 12, 69, 0
28, 292580, Note_on_c, 12, 73, 106
28, 292807, Note_on_c, 12, 70, 0
28, 292811, Note_on_c, 12, 69, 100
28, 292820, Note_on_c, 12, 73, 0
28, 292824, Note_on_c, 12, 72, 91
28, 293040, Note_on_c, 12, 71, 111
28, 293051, Note_on_c, 12, 69, 0
28, 293063, Note_on_c, 12, 68, 102
28, 293064, Note_on_c, 12, 72, 0
28, 293280, Note_on_c, 12, 71, 0
28, 293295, Note_on_c, 12, 67, 92
28, 293296, Note_on_c, 12, 70, 101
28, 293303, Note_on_c, 12, 68, 0
28, 293463, Note_on_c, 12, 67, 0
28, 293464, Note_on_c, 12, 70, 0
28, 293524, Note_on_c, 12, 70, 105
28, 293525, Note_on_c, 12, 67, 98
28, 293692, Note_on_c, 12, 70, 0
28, 293693, Note_on_c, 12, 67, 0
28, 293760, Note_on_c, 12, 70, 98
28, 293771, Note_on_c, 12, 67, 110
28, 293928, Note_on_c, 12, 70, 0
28, 293939, Note_on_c, 12, 67, 0
28, 294019, Note_on_c, 12, 70, 98
28, 294139, Note_on_c, 12, 70, 0
28, 294143, Note_on_c, 12, 67, 98
28, 294246, Note_on_c, 12, 73, 84
28, 294263, Note_on_c, 12, 67, 0
28, 294366, Note_on_c, 12, 73, 0
28, 294368, Note_on_c, 12, 70, 82
28, 294452, Note_on_c, 12, 70, 0
28, 294487, Note_on_c, 12, 70, 92
28, 294571, Note_on_c, 12, 70, 0
28, 294619, Note_on_c, 12, 67, 87
28, 294703, Note_on_c, 12, 67, 0
28, 294720, Note_on_c, 12, 67, 84
28, 294804, Note_on_c, 12, 67, 0
28, 294858, Note_on_c, 12, 64, 87
28, 294942, Note_on_c, 12, 64, 0
28, 294982, Note_on_c, 12, 64, 88
28, 295066, Note_on_c, 12, 64, 0
28, 295098, Note_on_c, 12, 61, 97
28, 295182, Note_on_c, 12, 61, 0
28, 295206, Note_on_c, 12, 61, 82
28, 295290, Note_on_c, 12, 61, 0
28, 295343, Note_on_c, 12, 58, 91
28, 295455, Note_on_c, 12, 73, 93
28, 295463, Note_on_c, 12, 58, 0
28, 295565, Note_on_c, 12, 70, 87
28, 295575, Note_on_c, 12, 73, 0
28, 295682, Note_on_c, 12, 76, 81
28, 295685, Note_on_c, 12, 70, 0
28, 295802, Note_on_c, 12, 76, 0
28, 295825, Note_on_c, 12, 73, 92
28, 295909, Note_on_c, 12, 73, 0
28, 295927, Note_on_c, 12, 73, 81
28, 296011, Note_on_c, 12, 73, 0
28, 296058, Note_on_c, 12, 70, 95
28, 296142, Note_on_c, 12, 70, 0
28, 296169, Note_on_c, 12, 70, 87
28, 296253, Note_on_c, 12, 70, 0
28, 296280, Note_on_c, 12, 67, 87
28, 296364, Note_on_c, 12, 67, 0
28, 296409, Note_on_c, 12, 67, 89
28, 296521, Note_on_c, 12, 64, 90
28, 296529, Note_on_c, 12, 67, 0
28, 296641, Note_on_c, 12, 64, 0
28, 296664, Note_on_c, 12, 64, 90
28, 296775, Note_on_c, 12, 61, 78
28, 296784, Note_on_c, 12, 64, 0
28, 296880, Program_c, 12, 45
28, 296895, Note_on_c, 12, 61, 0
28, 296897, Note_on_c, 12, 57, 94
28, 297133, Note_on_c, 12, 61, 93
28, 297137, Note_on_c, 12, 57, 0
28, 297373, Note_on_c, 12, 61, 0
28, 297378, Note_on_c, 12, 64, 97
28, 297618, Note_on_c, 12, 64, 0
28, 297621, Note_on_c, 12, 69, 89
28, 297855, Note_on_c, 12, 73, 94
28, 297861, Note_on_c, 12, 69, 0
28, 298091, Note_on_c, 12, 76, 97
28, 298095, Note_on_c, 12, 73, 0
28, 298331, Note_on_c, 12, 76, 0
28, 298333, Note_on_c, 12, 79, 97
28, 298573, Note_on_c, 12, 79, 0
28, 298576, Note_on_c, 12, 82, 85
28, 298802, Note_on_c, 12, 87, 92
28, 298816, Note_on_c, 12, 82, 0
28, 299042, Note_on_c, 12, 87, 0
28, 299063, Note_on_c, 12, 76, 81
28, 299298, Note_on_c, 12, 81, 95
28, 299303, Note_on_c, 12, 76, 0
28, 299524, Note_on_c, 12, 85, 97
28, 299538, Note_on_c, 12, 81, 0
28, 299760, Program_c, 12, 44
28, 299764, Note_on_c, 12, 85, 0
28, 299783, Note_on_c, 12, 75, 80
28, 300019, Note_on_c, 12, 75, 0
28, 300021, Note_on_c, 12, 78, 92
28, 300252, Note_on_c, 12, 75, 80
28, 300257, Note_on_c, 12, 78, 0
28, 300482, Note_on_c, 12, 72, 89
28, 300488, Note_on_c, 12, 75, 0
28, 300718, Note_on_c, 12, 72, 0
28, 300737, Note_on_c, 12, 69, 92
28, 300965, Note_on_c, 12, 66, 88
28, 300973, Note_on_c, 12, 69, 0
28, 301201, Note_on_c, 12, 66, 0
28, 301209, Note_on_c, 12, 82, 95
28, 301215, Note_on_c, 12, 78, 87
28, 301377, Note_on_c, 12, 82, 0
28, 301380, Note_on_c, 12, 78, 0
28, 301443, Note_on_c, 12, 85, 78
28, 301452, Note_on_c, 12, 82, 85
28, 301611, Note_on_c, 12, 85, 0
28, 301617, Note_on_c, 12, 82, 0
28, 301696, Note_on_c, 12, 78, 86
28, 301698, Note_on_c, 12, 82, 78
28, 301861, Note_on_c, 12, 78, 0
28, 301866, Note_on_c, 12, 82, 0
28, 301941, Note_on_c, 12, 79, 94
28, 302171, Note_on_c, 12, 76, 98
28, 302177, Note_on_c, 12, 79, 0
28, 302407, Note_on_c, 12, 76, 0
28, 302412, Note_on_c, 12, 73, 79
28, 302640, Program_c, 12, 48
28, 302645, Note_on_c, 12, 70, 79
28, 302648, Note_on_c, 12, 73, 0
28, 302885, Note_on_c, 12, 70, 0
28, 304082, Note_on_c, 12, 78, 97
28, 304177, Note_on_c, 12, 78, 0
28, 304577, Note_on_c, 12, 78, 83
28, 304672, Note_on_c, 12, 78, 0
28, 313927, Note_on_c, 12, 69, 42
28, 314431, Note_on_c, 12, 69, 0
28, 314658, Note_on_c, 12, 69, 61
28, 315162, Note_on_c, 12, 69, 0
28, 315363, Note_on_c, 12, 69, 46
28, 315867, Note_on_c, 12, 69, 0
28, 316099, Note_on_c, 12, 69, 52
28, 316603, Note_on_c, 12, 69, 0
28, 316807, Note_on_c, 12, 69, 62
28, 317311, Note_on_c, 12, 69, 0
28, 317527, Note_on_c, 12, 69, 62
28, 318031, Note_on_c, 12, 69, 0
28, 318246, Note_on_c, 12, 69, 60
28, 318750, Note_on_c, 12, 69, 0
28, 318975, Note_on_c, 12, 69, 65
28, 319479, Note_on_c, 12, 69, 0
28, 319704, Note_on_c, 12, 69, 79
28, 320208, Note_on_c, 12, 69, 0
28, 320400, Note_on_c, 12, 69, 88
28, 320904, Note_on_c, 12, 69, 0
28, 321139, Note_on_c, 12, 69, 85
28, 321643, Note_on_c, 12, 69, 0
28, 321864, Note_on_c, 12, 69, 87
28, 322368, Note_on_c, 12, 69, 0
28, 322583, Note_on_c, 12, 75, 95
28, 323287, Note_on_c, 12, 69, 93
28, 323303, Note_on_c, 12, 75, 0
28, 324007, Note_on_c, 12, 69, 0
28, 324013, Note_on_c, 12, 75, 92
28, 324733, Note_on_c, 12, 75, 0
28, 324744, Note_on_c, 12, 73, 107
28, 325464, Note_on_c, 12, 73, 0
28, 325464, Note_on_c, 12, 70, 103
28, 326163, Note_on_c, 12, 67, 103
28, 326184, Note_on_c, 12, 70, 0
28, 326883, Note_on_c, 12, 67, 0
28, 326901, Note_on_c, 12, 64, 107
28, 327604, Note_on_c, 12, 77, 100
28, 327621, Note_on_c, 12, 64, 0
28, 328324, Note_on_c, 12, 77, 0
28, 328333, Note_on_c, 12, 78, 111
28, 329048, Note_on_c, 12, 71, 111
28, 329053, Note_on_c, 12, 78, 0
28, 329760, Note_on_c, 12, 72, 108
28, 329768, Note_on_c, 12, 71, 0
28, 330480, Note_on_c, 12, 72, 0
28, 330491, Note_on_c, 12, 65, 99
28, 331211, Note_on_c, 12, 65, 0
28, 497287, Note_on_c, 12, 69, 78
28, 497295, Note_on_c, 12, 57, 84
28, 497298, Note_on_c, 12, 65, 83
28, 497415, Note_on_c, 12, 57, 0
28, 497418, Note_on_c, 12, 65, 0
28, 497647, Note_on_c, 12, 69, 0
28, 497779, Note_on_c, 12, 67, 98
28, 497899, Note_on_c, 12, 67, 0
28, 498022, Note_on_c, 12, 69, 94
28, 498142, Note_on_c, 12, 69, 0
28, 498257, Note_on_c, 12, 64, 88
28, 498377, Note_on_c, 12, 64, 0
28, 498502, Note_on_c, 12, 65, 80
28, 498622, Note_on_c, 12, 65, 0
28, 498739, Note_on_c, 12, 64, 88
28, 498859, Note_on_c, 12, 64, 0
28, 498975, Note_on_c, 12, 67, 97
28, 499095, Note_on_c, 12, 67, 0
28, 499204, Note_on_c, 12, 65, 87
28, 499324, Note_on_c, 12, 65, 0
28, 499463, Note_on_c, 12, 69, 97
28, 499583, Note_on_c, 12, 69, 0
28, 499705, Note_on_c, 12, 64, 83
28, 499825, Note_on_c, 12, 64, 0
28, 499945, Note_on_c, 12, 65, 95
28, 500065, Note_on_c, 12, 65, 0
28, 500165, Note_on_c, 12, 64, 83
28, 500285, Note_on_c, 12, 64, 0
28, 500423, Note_on_c, 12, 67, 91
28, 500543, Note_on_c, 12, 67, 0
28, 503527, Note_on_c, 12, 57, 87
28, 503534, Note_on_c, 12, 69, 81
28, 503538, Note_on_c, 12, 65, 97
28, 503647, Note_on_c, 12, 57, 0
28, 503658, Note_on_c, 12, 65, 0
28, 503894, Note_on_c, 12, 69, 0
28, 504012, Note_on_c, 12, 67, 96
28, 504132, Note_on_c, 12, 67, 0
28, 504244, Note_on_c, 12, 69, 91
28, 504364, Note_on_c, 12, 69, 0
28, 504495, Note_on_c, 12, 64, 86
28, 504615, Note_on_c, 12, 64, 0
28, 504735, Note_on_c, 12, 65, 78
28, 504855, Note_on_c, 12, 65, 0
28, 504973, Note_on_c, 12, 64, 95
28, 505093, Note_on_c, 12, 64, 0
28, 505203, Note_on_c, 12, 67, 78
28, 505323, Note_on_c, 12, 67, 0
28, 505456, Note_on_c, 12, 65, 80
28, 505576, Note_on_c, 12, 65, 0
28, 505685, Note_on_c, 12, 69, 91
28, 505805, Note_on_c, 12, 69, 0
28, 505925, Note_on_c, 12, 64, 98
28, 506045, Note_on_c, 12, 64, 0
28, 506185, Note_on_c, 12, 65, 95
28, 506305, Note_on_c, 12, 65, 0
28, 506402, Note_on_c, 12, 64, 78
28, 506522, Note_on_c, 12, 64, 0
28, 506661, Note_on_c, 12, 67, 95
28, 506781, Note_on_c, 12, 67, 0
28, 506885, Note_on_c, 12, 65, 80
28, 506891, Note_on_c, 12, 57, 78
28, 506892, Note_on_c, 12, 69, 78
28, 507005, Note_on_c, 12, 65, 0
28, 507011, Note_on_c, 12, 57, 0
28, 507252, Note_on_c, 12, 69, 0
28, 507364, Note_on_c, 12, 67, 96
28, 507484, Note_on_c, 12, 67, 0
28, 507612, Note_on_c, 12, 69, 82
28, 507732, Note_on_c, 12, 69, 0
28, 507852, Note_on_c, 12, 64, 97
28, 507972, Note_on_c, 12, 64, 0
28, 508085, Note_on_c, 12, 65, 83
28, 508205, Note_on_c, 12, 65, 0
28, 508336, Note_on_c, 12, 64, 84
28, 508456, Note_on_c, 12, 64, 0
28, 508563, Note_on_c, 12, 67, 86
28, 508683, Note_on_c, 12, 67, 0
28, 540484, Note_on_c, 12, 69, 84
28, 540627, Note_on_c, 12, 69, 0
28, 540967, Note_on_c, 12, 64, 78
28, 541038, Note_on_c, 12, 64, 0
28, 541225, Note_on_c, 12, 65, 86
28, 541296, Note_on_c, 12, 65, 0
28, 541445, Note_on_c, 12, 64, 86
28, 541516, Note_on_c, 12, 64, 0
28, 541699, Note_on_c, 12, 62, 98
28, 541770, Note_on_c, 12, 62, 0
28, 541928, Note_on_c, 12, 61, 93
28, 541999, Note_on_c, 12, 61, 0
28, 542169, Note_on_c, 12, 62, 91
28, 542240, Note_on_c, 12, 62, 0
28, 542411, Note_on_c, 12, 62, 85
28, 542482, Note_on_c, 12, 62, 0
28, 542643, Note_on_c, 12, 66, 83
28, 542714, Note_on_c, 12, 66, 0
28, 542890, Note_on_c, 12, 64, 80
28, 542961, Note_on_c, 12, 64, 0
28, 543128, Note_on_c, 12, 66, 86
28, 543199, Note_on_c, 12, 66, 0
28, 543371, Note_on_c, 12, 64, 97
28, 543442, Note_on_c, 12, 64, 0
28, 543604, Note_on_c, 12, 62, 98
28, 543675, Note_on_c, 12, 62, 0
28, 543849, Note_on_c, 12, 61, 85
28, 543920, Note_on_c, 12, 61, 0
28, 544097, Note_on_c, 12, 62, 94
28, 544168, Note_on_c, 12, 62, 0
28, 544329, Note_on_c, 12, 59, 89
28, 544400, Note_on_c, 12, 59, 0
28, 544565, Note_on_c, 12, 60, 86
28, 544636, Note_on_c, 12, 60, 0
28, 544804, Note_on_c, 12, 62, 80
28, 544875, Note_on_c, 12, 62, 0
28, 545065, Note_on_c, 12, 64, 92
28, 545136, Note_on_c, 12, 64, 0
28, 545289, Note_on_c, 12, 66, 93
28, 545360, Note_on_c, 12, 66, 0
28, 552490, Note_on_c, 12, 64, 97
28, 552724, Note_on_c, 12, 65, 82
28, 552730, Note_on_c, 12, 64, 0
28, 552964, Note_on_c, 12, 65, 0
28, 552972, Note_on_c, 12, 67, 88
28, 553685, Note_on_c, 12, 65, 96
28, 553692, Note_on_c, 12, 67, 0
28, 553925, Note_on_c, 12, 65, 0
28, 553930, Note_on_c, 12, 64, 78
28, 554170, Note_on_c, 12, 64, 0
28, 554185, Note_on_c, 12, 62, 82
28, 554406, Note_on_c, 12, 64, 83
28, 554425, Note_on_c, 12, 62, 0
28, 554640, Note_on_c, 12, 65, 92
28, 554646, Note_on_c, 12, 64, 0
28, 554880, Note_on_c, 12, 65, 0
28, 554904, Note_on_c, 12, 67, 93
28, 555383, Note_on_c, 12, 65, 96
28, 555384, Note_on_c, 12, 67, 0
28, 555601, Note_on_c, 12, 64, 79
28, 555623, Note_on_c, 12, 65, 0
28, 555841, Note_on_c, 12, 64, 0
28, 555849, Note_on_c, 12, 62, 81
28, 556329, Note_on_c, 12, 62, 0
28, 556342, Note_on_c, 12, 64, 81
28, 556561, Note_on_c, 12, 65, 91
28, 556582, Note_on_c, 12, 64, 0
28, 556801, Note_on_c, 12, 65, 0
28, 556808, Note_on_c, 12, 67, 78
28, 557288, Note_on_c, 12, 67, 0
28, 557302, Note_on_c, 12, 64, 97
28, 557521, Note_on_c, 12, 65, 84
28, 557542, Note_on_c, 12, 64, 0
28, 557761, Note_on_c, 12, 65, 0
28, 557774, Note_on_c, 12, 67, 82
28, 558487, Note_on_c, 12, 65, 78
28, 558494, Note_on_c, 12, 67, 0
28, 558727, Note_on_c, 12, 65, 0
28, 558737, Note_on_c, 12, 64, 83
28, 558977, Note_on_c, 12, 64, 0
28, 558985, Note_on_c, 12, 62, 83
28, 559211, Note_on_c, 12, 64, 79
28, 559225, Note_on_c, 12, 62, 0
28, 559451, Note_on_c, 12, 64, 0
28, 559459, Note_on_c, 12, 65, 98
28, 559690, Note_on_c, 12, 67, 96
28, 559699, Note_on_c, 12, 65, 0
28, 560410, Note_on_c, 12, 67, 0
28, 560423, Note_on_c, 12, 65, 95
28, 560653, Note_on_c, 12, 64, 78
28, 560663, Note_on_c, 12, 65, 0
28, 560893, Note_on_c, 12, 64, 0
28, 560900, Note_on_c, 12, 62, 93
28, 561133, Note_on_c, 12, 64, 81
28, 561140, Note_on_c, 12, 62, 0
28, 561362, Note_on_c, 12, 65, 90
28, 561373, Note_on_c, 12, 64, 0
28, 561602, Note_on_c, 12, 65, 0
28, 561608, Note_on_c, 12, 67, 104
28, 561848, Note_on_c, 12, 67, 0
28, 563430, Note_on_c, 12, 58, 104
28, 563460, Note_on_c, 12, 58, 0
28, 563460, Note_on_c, 12, 60, 103
28, 563490, Note_on_c, 12, 60, 0
28, 563490, Note_on_c, 12, 62, 97
28, 563520, Note_on_c, 12, 62, 0
28, 563532, Note_on_c, 12, 63, 105
28, 563652, Note_on_c, 12, 63, 0
28, 563910, Note_on_c, 12, 58, 105
28, 563940, Note_on_c, 12, 58, 0
28, 563940, Note_on_c, 12, 60, 97
28, 563970, Note_on_c, 12, 60, 0
28, 563970, Note_on_c, 12, 62, 88
28, 564000, Note_on_c, 12, 62, 0
28, 564008, Note_on_c, 12, 63, 95
28, 564128, Note_on_c, 12, 63, 0
28, 564390, Note_on_c, 12, 58, 104
28, 564420, Note_on_c, 12, 58, 0
28, 564420, Note_on_c, 12, 60, 93
28, 564450, Note_on_c, 12, 60, 0
28, 564450, Note_on_c, 12, 62, 102
28, 564480, Note_on_c, 12, 62, 0
28, 564485, Note_on_c, 12, 63, 94
28, 564605, Note_on_c, 12, 63, 0
28, 564870, Note_on_c, 12, 58, 93
28, 564900, Note_on_c, 12, 58, 0
28, 564900, Note_on_c, 12, 60, 96
28, 564930, Note_on_c, 12, 60, 0
28, 564930, Note_on_c, 12, 62, 101
28, 564960, Note_on_c, 12, 62, 0
28, 564981, Note_on_c, 12, 63, 90
28, 565101, Note_on_c, 12, 63, 0
28, 565350, Note_on_c, 12, 63, 100
28, 565380, Note_on_c, 12, 63, 0
28, 565380, Note_on_c, 12, 65, 100
28, 565410, Note_on_c, 12, 65, 0
28, 565410, Note_on_c, 12, 66, 100
28, 565440, Note_on_c, 12, 66, 0
28, 565458, Note_on_c, 12, 67, 90
28, 565578, Note_on_c, 12, 67, 0
28, 565920, Note_on_c, 12, 65, 88
28, 566040, Note_on_c, 12, 65, 0
28, 566172, Note_on_c, 12, 67, 82
28, 566292, Note_on_c, 12, 67, 0
28, 566419, Note_on_c, 12, 62, 96
28, 566539, Note_on_c, 12, 62, 0
28, 566660, Note_on_c, 12, 63, 78
28, 566780, Note_on_c, 12, 63, 0
28, 566905, Note_on_c, 12, 62, 89
28, 567025, Note_on_c, 12, 62, 0
28, 567138, Note_on_c, 12, 65, 84
28, 567258, Note_on_c, 12, 65, 0
28, 567380, Note_on_c, 12, 63, 89
28, 567500, Note_on_c, 12, 63, 0
28, 567603, Note_on_c, 12, 67, 95
28, 567723, Note_on_c, 12, 67, 0
28, 567861, Note_on_c, 12, 62, 109
28, 567981, Note_on_c, 12, 62, 0
28, 568092, Note_on_c, 12, 63, 91
28, 568212, Note_on_c, 12, 63, 0
28, 568330, Note_on_c, 12, 62, 78
28, 568450, Note_on_c, 12, 62, 0
28, 568567, Note_on_c, 12, 65, 78
28, 568687, Note_on_c, 12, 65, 0
28, 568814, Note_on_c, 12, 67, 81
28, 569174, Note_on_c, 12, 67, 0
28, 569292, Note_on_c, 12, 65, 96
28, 569412, Note_on_c, 12, 65, 0
28, 569529, Note_on_c, 12, 67, 89
28, 569649, Note_on_c, 12, 67, 0
28, 569769, Note_on_c, 12, 62, 88
28, 569889, Note_on_c, 12, 62, 0
28, 570002, Note_on_c, 12, 63, 98
28, 570122, Note_on_c, 12, 63, 0
28, 570265, Note_on_c, 12, 62, 95
28, 570385, Note_on_c, 12, 62, 0
28, 570500, Note_on_c, 12, 65, 98
28, 570620, Note_on_c, 12, 65, 0
28, 570620, End_track
29, 0, Start_track
29, 0, Title_t, "Viole I"
29, 0, MIDI_port, 0
29, 0, Control_c, 13, 7, 108
29, 0, Control_c, 13, 10, 64
29, 0, Control_c, 13, 91, 127
29, 0, Control_c, 13, 11, 127
29, 0, Program_c, 13, 48
29, 23160, Program_c, 13, 45
29, 23185, Note_on_c, 13, 66, 84
29, 23290, Note_on_c, 13, 73, 85
29, 23305, Note_on_c, 13, 66, 0
29, 23530, Note_on_c, 13, 73, 0
29, 24492, Note_on_c, 13, 66, 80
29, 24972, Note_on_c, 13, 66, 0
29, 25574, Note_on_c, 13, 66, 76
29, 25681, Note_on_c, 13, 72, 75
29, 25694, Note_on_c, 13, 66, 0
29, 25921, Note_on_c, 13, 72, 0
29, 26419, Note_on_c, 13, 66, 82
29, 26899, Note_on_c, 13, 66, 0
29, 27011, Note_on_c, 13, 66, 66
29, 27131, Note_on_c, 13, 66, 0
29, 27145, Note_on_c, 13, 72, 85
29, 27385, Note_on_c, 13, 72, 0
29, 27846, Note_on_c, 13, 66, 71
29, 28326, Note_on_c, 13, 66, 0
29, 28334, Note_on_c, 13, 66, 81
29, 28814, Note_on_c, 13, 66, 0
29, 66240, Program_c, 13, 49
29, 66960, Note_on_c, 13, 67, 66
29, 66999, Note_on_c, 13, 67, 0
29, 66999, Note_on_c, 13, 72, 70
29, 67039, Note_on_c, 13, 72, 0
29, 67040, Note_on_c, 13, 76, 83
29, 67079, Note_on_c, 13, 76, 0
29, 67080, Note_on_c, 13, 79, 82
29, 67119, Note_on_c, 13, 79, 0
29, 67119, Note_on_c, 13, 82, 66
29, 67159, Note_on_c, 13, 82, 0
29, 67160, Note_on_c, 13, 84, 78
29, 67199, Note_on_c, 13, 84, 0
29, 67200, Note_on_c, 13, 86, 80
29, 67239, Note_on_c, 13, 86, 0
29, 67239, Note_on_c, 13, 84, 73
29, 67279, Note_on_c, 13, 84, 0
29, 67280, Note_on_c, 13, 82, 77
29, 67319, Note_on_c, 13, 82, 0
29, 67320, Note_on_c, 13, 79, 78
29, 67359, Note_on_c, 13, 79, 0
29, 67359, Note_on_c, 13, 76, 80
29, 67399, Note_on_c, 13, 76, 0
29, 67400, Note_on_c, 13, 72, 75
29, 67439, Note_on_c, 13, 72, 0
29, 67465, Note_on_c, 13, 67, 65
29, 67705, Note_on_c, 13, 67, 0
29, 68400, Note_on_c, 13, 67, 74
29, 68439, Note_on_c, 13, 67, 0
29, 68439, Note_on_c, 13, 72, 83
29, 68479, Note_on_c, 13, 72, 0
29, 68480, Note_on_c, 13, 76, 75
29, 68519, Note_on_c, 13, 76, 0
29, 68520, Note_on_c, 13, 79, 73
29, 68559, Note_on_c, 13, 79, 0
29, 68559, Note_on_c, 13, 82, 84
29, 68599, Note_on_c, 13, 82, 0
29, 68600, Note_on_c, 13, 84, 65
29, 68639, Note_on_c, 13, 84, 0
29, 68640, Note_on_c, 13, 86, 79
29, 68679, Note_on_c, 13, 86, 0
29, 68679, Note_on_c, 13, 84, 83
29, 68719, Note_on_c, 13, 84, 0
29, 68720, Note_on_c, 13, 82, 83
29, 68759, Note_on_c, 13, 82, 0
29, 68760, Note_on_c, 13, 79, 84
29, 68799, Note_on_c, 13, 79, 0
29, 68799, Note_on_c, 13, 76, 72
29, 68839, Note_on_c, 13, 76, 0
29, 68840, Note_on_c, 13, 72, 80
29, 68879, Note_on_c, 13, 72, 0
29, 68887, Note_on_c, 13, 67, 70
29, 69127, Note_on_c, 13, 67, 0
29, 69360, Note_on_c, 13, 67, 67
29, 69399, Note_on_c, 13, 67, 0
29, 69399, Note_on_c, 13, 72, 73
29, 69439, Note_on_c, 13, 72, 0
29, 69440, Note_on_c, 13, 76, 71
29, 69479, Note_on_c, 13, 76, 0
29, 69480, Note_on_c, 13, 79, 73
29, 69519, Note_on_c, 13, 79, 0
29, 69519, Note_on_c, 13, 82, 72
29, 69559, Note_on_c, 13, 82, 0
29, 69560, Note_on_c, 13, 84, 67
29, 69599, Note_on_c, 13, 84, 0
29, 69600, Note_on_c, 13, 86, 67
29, 69639, Note_on_c, 13, 86, 0
29, 69639, Note_on_c, 13, 84, 77
29, 69679, Note_on_c, 13, 84, 0
29, 69680, Note_on_c, 13, 82, 71
29, 69719, Note_on_c, 13, 82, 0
29, 69720, Note_on_c, 13, 79, 71
29, 69759, Note_on_c, 13, 79, 0
29, 69759, Note_on_c, 13, 76, 79
29, 69799, Note_on_c, 13, 76, 0
29, 69800, Note_on_c, 13, 72, 72
29, 69839, Note_on_c, 13, 72, 0
29, 69856, Note_on_c, 13, 67, 71
29, 70096, Note_on_c, 13, 67, 0
29, 70320, Note_on_c, 13, 67, 67
29, 70359, Note_on_c, 13, 67, 0
29, 70359, Note_on_c, 13, 72, 67
29, 70399, Note_on_c, 13, 72, 0
29, 70400, Note_on_c, 13, 76, 82
29, 70439, Note_on_c, 13, 76, 0
29, 70440, Note_on_c, 13, 79, 76
29, 70479, Note_on_c, 13, 79, 0
29, 70479, Note_on_c, 13, 82, 68
29, 70519, Note_on_c, 13, 82, 0
29, 70520, Note_on_c, 13, 84, 82
29, 70559, Note_on_c, 13, 84, 0
29, 70560, Note_on_c, 13, 86, 81
29, 70599, Note_on_c, 13, 86, 0
29, 70599, Note_on_c, 13, 84, 75
29, 70639, Note_on_c, 13, 84, 0
29, 70640, Note_on_c, 13, 82, 65
29, 70679, Note_on_c, 13, 82, 0
29, 70680, Note_on_c, 13, 79, 84
29, 70719, Note_on_c, 13, 79, 0
29, 70719, Note_on_c, 13, 76, 68
29, 70759, Note_on_c, 13, 76, 0
29, 70760, Note_on_c, 13, 72, 78
29, 70799, Note_on_c, 13, 72, 0
29, 70802, Note_on_c, 13, 67, 67
29, 71040, Note_on_c, 13, 67, 75
29, 71042, Note_on_c, 13, 67, 0
29, 71079, Note_on_c, 13, 67, 0
29, 71079, Note_on_c, 13, 72, 78
29, 71119, Note_on_c, 13, 72, 0
29, 71120, Note_on_c, 13, 76, 73
29, 71159, Note_on_c, 13, 76, 0
29, 71160, Note_on_c, 13, 79, 74
29, 71199, Note_on_c, 13, 79, 0
29, 71199, Note_on_c, 13, 82, 79
29, 71239, Note_on_c, 13, 82, 0
29, 71240, Note_on_c, 13, 84, 69
29, 71279, Note_on_c, 13, 84, 0
29, 71280, Note_on_c, 13, 86, 73
29, 71319, Note_on_c, 13, 86, 0
29, 71319, Note_on_c, 13, 84, 73
29, 71359, Note_on_c, 13, 84, 0
29, 71360, Note_on_c, 13, 82, 69
29, 71399, Note_on_c, 13, 82, 0
29, 71400, Note_on_c, 13, 79, 84
29, 71439, Note_on_c, 13, 79, 0
29, 71439, Note_on_c, 13, 76, 78
29, 71479, Note_on_c, 13, 76, 0
29, 71480, Note_on_c, 13, 72, 78
29, 71519, Note_on_c, 13, 72, 0
29, 79200, Program_c, 13, 41
29, 80326, Control_c, 13, 11, 32
29, 80398, Control_c, 13, 11, 35
29, 80400, Note_on_c, 13, 72, 42
29, 80405, Note_on_c, 13, 86, 39
29, 80425, Note_on_c, 13, 79, 40
29, 80443, Control_c, 13, 11, 37
29, 80463, Control_c, 13, 11, 39
29, 80502, Control_c, 13, 11, 40
29, 80531, Control_c, 13, 11, 42
29, 80576, Control_c, 13, 11, 44
29, 80589, Control_c, 13, 11, 45
29, 80615, Control_c, 13, 11, 47
29, 80670, Control_c, 13, 11, 49
29, 80690, Control_c, 13, 11, 50
29, 80719, Control_c, 13, 11, 52
29, 80732, Control_c, 13, 11, 55
29, 80774, Control_c, 13, 11, 56
29, 80819, Control_c, 13, 11, 58
29, 80845, Control_c, 13, 11, 60
29, 80926, Control_c, 13, 11, 61
29, 80946, Control_c, 13, 11, 63
29, 80959, Control_c, 13, 11, 64
29, 80982, Control_c, 13, 11, 66
29, 81014, Control_c, 13, 11, 67
29, 81043, Control_c, 13, 11, 69
29, 81063, Control_c, 13, 11, 70
29, 81102, Control_c, 13, 11, 72
29, 81141, Control_c, 13, 11, 73
29, 81170, Control_c, 13, 11, 75
29, 81264, Control_c, 13, 11, 76
29, 81312, Control_c, 13, 11, 77
29, 81338, Control_c, 13, 11, 78
29, 81358, Control_c, 13, 11, 79
29, 81384, Control_c, 13, 11, 81
29, 81410, Control_c, 13, 11, 82
29, 81429, Control_c, 13, 11, 83
29, 81449, Control_c, 13, 11, 85
29, 81491, Control_c, 13, 11, 86
29, 81504, Control_c, 13, 11, 87
29, 81523, Control_c, 13, 11, 89
29, 81543, Control_c, 13, 11, 90
29, 81552, Control_c, 13, 11, 91
29, 81562, Control_c, 13, 11, 92
29, 81572, Control_c, 13, 11, 93
29, 81575, Control_c, 13, 11, 95
29, 81588, Control_c, 13, 11, 96
29, 81598, Control_c, 13, 11, 97
29, 81600, Note_on_c, 13, 72, 0
29, 81602, Note_on_c, 13, 73, 59
29, 81605, Note_on_c, 13, 86, 0
29, 81608, Control_c, 13, 11, 98
29, 81611, Control_c, 13, 11, 99
29, 81617, Control_c, 13, 11, 100
29, 81625, Note_on_c, 13, 67, 57
29, 81630, Control_c, 13, 11, 103
29, 81640, Control_c, 13, 11, 104
29, 81653, Control_c, 13, 11, 105
29, 81659, Control_c, 13, 11, 106
29, 81672, Control_c, 13, 11, 108
29, 81682, Control_c, 13, 11, 109
29, 81692, Control_c, 13, 11, 110
29, 81708, Control_c, 13, 11, 111
29, 81711, Control_c, 13, 11, 112
29, 81734, Control_c, 13, 11, 114
29, 81750, Control_c, 13, 11, 115
29, 81760, Control_c, 13, 11, 116
29, 81770, Control_c, 13, 11, 118
29, 81773, Control_c, 13, 11, 119
29, 81786, Control_c, 13, 11, 120
29, 81792, Control_c, 13, 11, 121
29, 81809, Control_c, 13, 11, 123
29, 81812, Control_c, 13, 11, 124
29, 81825, Control_c, 13, 11, 125
29, 81828, Control_c, 13, 11, 126
29, 81838, Control_c, 13, 11, 127
29, 81842, Note_on_c, 13, 73, 0
29, 81851, Control_c, 13, 11, 127
29, 81857, Control_c, 13, 11, 127
29, 81865, Note_on_c, 13, 79, 0
29, 81865, Note_on_c, 13, 67, 0
29, 81867, Control_c, 13, 11, 127
29, 84000, Program_c, 13, 48
29, 84013, Note_on_c, 13, 58, 92
29, 84018, Note_on_c, 13, 55, 92
29, 84108, Note_on_c, 13, 58, 0
29, 84113, Note_on_c, 13, 55, 0
29, 84241, Note_on_c, 13, 55, 91
29, 84252, Note_on_c, 13, 58, 78
29, 84336, Note_on_c, 13, 55, 0
29, 84347, Note_on_c, 13, 58, 0
29, 84485, Note_on_c, 13, 55, 92
29, 84488, Note_on_c, 13, 58, 86
29, 84580, Note_on_c, 13, 55, 0
29, 84583, Note_on_c, 13, 58, 0
29, 84728, Note_on_c, 13, 55, 96
29, 84733, Note_on_c, 13, 58, 88
29, 84823, Note_on_c, 13, 55, 0
29, 84828, Note_on_c, 13, 58, 0
29, 84965, Note_on_c, 13, 58, 98
29, 84969, Note_on_c, 13, 55, 79
29, 85060, Note_on_c, 13, 58, 0
29, 85064, Note_on_c, 13, 55, 0
29, 85204, Note_on_c, 13, 55, 80
29, 85212, Note_on_c, 13, 58, 82
29, 85299, Note_on_c, 13, 55, 0
29, 85307, Note_on_c, 13, 58, 0
29, 85440, Note_on_c, 13, 55, 93
29, 85462, Note_on_c, 13, 58, 89
29, 85535, Note_on_c, 13, 55, 0
29, 85557, Note_on_c, 13, 58, 0
29, 85681, Note_on_c, 13, 58, 93
29, 85691, Note_on_c, 13, 55, 82
29, 85776, Note_on_c, 13, 58, 0
29, 85786, Note_on_c, 13, 55, 0
29, 85922, Note_on_c, 13, 55, 89
29, 85935, Note_on_c, 13, 58, 90
29, 86017, Note_on_c, 13, 55, 0
29, 86030, Note_on_c, 13, 58, 0
29, 86165, Note_on_c, 13, 55, 105
29, 86167, Note_on_c, 13, 58, 100
29, 86260, Note_on_c, 13, 55, 0
29, 86262, Note_on_c, 13, 58, 0
29, 86402, Note_on_c, 13, 58, 87
29, 86407, Note_on_c, 13, 55, 89
29, 86497, Note_on_c, 13, 58, 0
29, 86502, Note_on_c, 13, 55, 0
29, 86640, Note_on_c, 13, 55, 111
29, 86648, Note_on_c, 13, 58, 102
29, 86735, Note_on_c, 13, 55, 0
29, 86743, Note_on_c, 13, 58, 0
29, 86903, Note_on_c, 13, 55, 91
29, 86903, Note_on_c, 13, 58, 93
29, 86998, Note_on_c, 13, 55, 0
29, 86998, Note_on_c, 13, 58, 0
29, 87131, Note_on_c, 13, 58, 82
29, 87135, Note_on_c, 13, 55, 85
29, 87226, Note_on_c, 13, 58, 0
29, 87230, Note_on_c, 13, 55, 0
29, 87361, Note_on_c, 13, 58, 95
29, 87380, Note_on_c, 13, 55, 85
29, 87456, Note_on_c, 13, 58, 0
29, 87475, Note_on_c, 13, 55, 0
29, 87605, Note_on_c, 13, 58, 78
29, 87621, Note_on_c, 13, 55, 98
29, 87700, Note_on_c, 13, 58, 0
29, 87716, Note_on_c, 13, 55, 0
29, 87841, Note_on_c, 13, 55, 78
29, 87848, Note_on_c, 13, 58, 93
29, 87936, Note_on_c, 13, 55, 0
29, 87943, Note_on_c, 13, 58, 0
29, 88093, Note_on_c, 13, 55, 116
29, 88102, Note_on_c, 13, 58, 106
29, 88188, Note_on_c, 13, 55, 0
29, 88197, Note_on_c, 13, 58, 0
29, 88321, Note_on_c, 13, 55, 95
29, 88323, Note_on_c, 13, 58, 87
29, 88416, Note_on_c, 13, 55, 0
29, 88418, Note_on_c, 13, 58, 0
29, 88567, Note_on_c, 13, 55, 87
29, 88579, Note_on_c, 13, 58, 98
29, 88662, Note_on_c, 13, 55, 0
29, 88674, Note_on_c, 13, 58, 0
29, 88817, Note_on_c, 13, 58, 114
29, 88822, Note_on_c, 13, 55, 103
29, 88912, Note_on_c, 13, 58, 0
29, 88917, Note_on_c, 13, 55, 0
29, 89052, Note_on_c, 13, 58, 89
29, 89063, Note_on_c, 13, 55, 92
29, 89147, Note_on_c, 13, 58, 0
29, 89158, Note_on_c, 13, 55, 0
29, 89283, Note_on_c, 13, 58, 87
29, 89299, Note_on_c, 13, 55, 87
29, 89378, Note_on_c, 13, 58, 0
29, 89394, Note_on_c, 13, 55, 0
29, 89525, Note_on_c, 13, 55, 78
29, 89537, Note_on_c, 13, 58, 94
29, 89620, Note_on_c, 13, 55, 0
29, 89632, Note_on_c, 13, 58, 0
29, 89761, Note_on_c, 13, 55, 107
29, 89781, Note_on_c, 13, 58, 100
29, 89856, Note_on_c, 13, 55, 0
29, 89876, Note_on_c, 13, 58, 0
29, 90006, Note_on_c, 13, 55, 90
29, 90021, Note_on_c, 13, 58, 87
29, 90101, Note_on_c, 13, 55, 0
29, 90116, Note_on_c, 13, 58, 0
29, 90257, Note_on_c, 13, 55, 95
29, 90265, Note_on_c, 13, 58, 92
29, 90352, Note_on_c, 13, 55, 0
29, 90360, Note_on_c, 13, 58, 0
29, 90499, Note_on_c, 13, 58, 96
29, 90502, Note_on_c, 13, 55, 90
29, 90594, Note_on_c, 13, 58, 0
29, 90597, Note_on_c, 13, 55, 0
29, 90720, Note_on_c, 13, 55, 81
29, 90738, Note_on_c, 13, 58, 91
29, 90815, Note_on_c, 13, 55, 0
29, 90833, Note_on_c, 13, 58, 0
29, 90961, Note_on_c, 13, 58, 101
29, 90973, Note_on_c, 13, 55, 100
29, 91056, Note_on_c, 13, 58, 0
29, 91068, Note_on_c, 13, 55, 0
29, 91209, Note_on_c, 13, 55, 92
29, 91221, Note_on_c, 13, 58, 84
29, 91304, Note_on_c, 13, 55, 0
29, 91316, Note_on_c, 13, 58, 0
29, 91453, Note_on_c, 13, 58, 84
29, 91463, Note_on_c, 13, 55, 92
29, 91548, Note_on_c, 13, 58, 0
29, 91558, Note_on_c, 13, 55, 0
29, 95528, Note_on_c, 13, 55, 80
29, 95541, Note_on_c, 13, 58, 91
29, 95623, Note_on_c, 13, 55, 0
29, 95636, Note_on_c, 13, 58, 0
29, 95767, Note_on_c, 13, 55, 79
29, 95771, Note_on_c, 13, 58, 90
29, 95862, Note_on_c, 13, 55, 0
29, 95866, Note_on_c, 13, 58, 0
29, 96009, Note_on_c, 13, 58, 83
29, 96012, Note_on_c, 13, 55, 92
29, 96104, Note_on_c, 13, 58, 0
29, 96107, Note_on_c, 13, 55, 0
29, 96256, Note_on_c, 13, 55, 88
29, 96262, Note_on_c, 13, 58, 90
29, 96351, Note_on_c, 13, 55, 0
29, 96357, Note_on_c, 13, 58, 0
29, 96486, Note_on_c, 13, 55, 81
29, 96498, Note_on_c, 13, 58, 96
29, 96581, Note_on_c, 13, 55, 0
29, 96593, Note_on_c, 13, 58, 0
29, 96721, Note_on_c, 13, 55, 105
29, 96742, Note_on_c, 13, 58, 106
29, 96816, Note_on_c, 13, 55, 0
29, 96837, Note_on_c, 13, 58, 0
29, 96962, Note_on_c, 13, 58, 84
29, 96975, Note_on_c, 13, 55, 81
29, 97057, Note_on_c, 13, 58, 0
29, 97070, Note_on_c, 13, 55, 0
29, 97200, Note_on_c, 13, 58, 115
29, 97205, Note_on_c, 13, 55, 115
29, 97295, Note_on_c, 13, 58, 0
29, 97300, Note_on_c, 13, 55, 0
29, 97454, Note_on_c, 13, 55, 86
29, 97455, Note_on_c, 13, 58, 89
29, 97549, Note_on_c, 13, 55, 0
29, 97550, Note_on_c, 13, 58, 0
29, 97692, Note_on_c, 13, 55, 79
29, 97696, Note_on_c, 13, 58, 94
29, 97787, Note_on_c, 13, 55, 0
29, 97791, Note_on_c, 13, 58, 0
29, 97934, Note_on_c, 13, 58, 82
29, 97938, Note_on_c, 13, 55, 85
29, 98029, Note_on_c, 13, 58, 0
29, 98033, Note_on_c, 13, 55, 0
29, 98165, Note_on_c, 13, 55, 79
29, 98169, Note_on_c, 13, 58, 83
29, 98260, Note_on_c, 13, 55, 0
29, 98264, Note_on_c, 13, 58, 0
29, 98402, Note_on_c, 13, 58, 97
29, 98406, Note_on_c, 13, 55, 91
29, 98497, Note_on_c, 13, 58, 0
29, 98501, Note_on_c, 13, 55, 0
29, 98641, Note_on_c, 13, 55, 119
29, 98664, Note_on_c, 13, 58, 101
29, 98736, Note_on_c, 13, 55, 0
29, 98759, Note_on_c, 13, 58, 0
29, 98889, Note_on_c, 13, 58, 86
29, 98894, Note_on_c, 13, 55, 80
29, 98984, Note_on_c, 13, 58, 0
29, 98989, Note_on_c, 13, 55, 0
29, 99120, Note_on_c, 13, 55, 83
29, 99139, Note_on_c, 13, 58, 96
29, 99215, Note_on_c, 13, 55, 0
29, 99234, Note_on_c, 13, 58, 0
29, 99364, Note_on_c, 13, 58, 95
29, 99374, Note_on_c, 13, 55, 83
29, 99459, Note_on_c, 13, 58, 0
29, 99469, Note_on_c, 13, 55, 0
29, 99603, Note_on_c, 13, 58, 80
29, 99613, Note_on_c, 13, 55, 88
29, 99698, Note_on_c, 13, 58, 0
29, 99708, Note_on_c, 13, 55, 0
29, 99843, Note_on_c, 13, 55, 81
29, 99848, Note_on_c, 13, 58, 85
29, 99938, Note_on_c, 13, 55, 0
29, 99943, Note_on_c, 13, 58, 0
29, 100091, Note_on_c, 13, 58, 97
29, 100095, Note_on_c, 13, 55, 98
29, 100186, Note_on_c, 13, 58, 0
29, 100190, Note_on_c, 13, 55, 0
29, 100321, Note_on_c, 13, 55, 87
29, 100321, Note_on_c, 13, 58, 78
29, 100416, Note_on_c, 13, 55, 0
29, 100416, Note_on_c, 13, 58, 0
29, 100574, Note_on_c, 13, 58, 90
29, 100577, Note_on_c, 13, 55, 95
29, 100669, Note_on_c, 13, 58, 0
29, 100672, Note_on_c, 13, 55, 0
29, 100806, Note_on_c, 13, 55, 80
29, 100820, Note_on_c, 13, 58, 80
29, 100901, Note_on_c, 13, 55, 0
29, 100915, Note_on_c, 13, 58, 0
29, 101048, Note_on_c, 13, 55, 81
29, 101059, Note_on_c, 13, 58, 91
29, 101143, Note_on_c, 13, 55, 0
29, 101154, Note_on_c, 13, 58, 0
29, 101292, Note_on_c, 13, 58, 95
29, 101300, Note_on_c, 13, 55, 96
29, 101387, Note_on_c, 13, 58, 0
29, 101395, Note_on_c, 13, 55, 0
29, 101528, Note_on_c, 13, 55, 93
29, 101539, Note_on_c, 13, 58, 79
29, 101623, Note_on_c, 13, 55, 0
29, 101634, Note_on_c, 13, 58, 0
29, 101762, Note_on_c, 13, 58, 82
29, 101772, Note_on_c, 13, 55, 89
29, 101857, Note_on_c, 13, 58, 0
29, 101867, Note_on_c, 13, 55, 0
29, 102006, Note_on_c, 13, 58, 85
29, 102021, Note_on_c, 13, 55, 82
29, 102101, Note_on_c, 13, 58, 0
29, 102116, Note_on_c, 13, 55, 0
29, 102259, Note_on_c, 13, 55, 97
29, 102260, Note_on_c, 13, 58, 80
29, 102354, Note_on_c, 13, 55, 0
29, 102355, Note_on_c, 13, 58, 0
29, 102483, Note_on_c, 13, 55, 82
29, 102496, Note_on_c, 13, 58, 91
29, 102578, Note_on_c, 13, 55, 0
29, 102591, Note_on_c, 13, 58, 0
29, 102723, Note_on_c, 13, 58, 93
29, 102745, Note_on_c, 13, 55, 79
29, 102818, Note_on_c, 13, 58, 0
29, 102840, Note_on_c, 13, 55, 0
29, 102961, Note_on_c, 13, 55, 79
29, 102974, Note_on_c, 13, 58, 91
29, 103056, Note_on_c, 13, 55, 0
29, 103069, Note_on_c, 13, 58, 0
29, 103203, Note_on_c, 13, 55, 79
29, 103212, Note_on_c, 13, 58, 93
29, 103298, Note_on_c, 13, 55, 0
29, 103307, Note_on_c, 13, 58, 0
29, 103446, Note_on_c, 13, 58, 98
29, 103462, Note_on_c, 13, 55, 90
29, 103541, Note_on_c, 13, 58, 0
29, 103557, Note_on_c, 13, 55, 0
29, 103681, Note_on_c, 13, 58, 94
29, 103690, Note_on_c, 13, 55, 96
29, 103776, Note_on_c, 13, 58, 0
29, 103785, Note_on_c, 13, 55, 0
29, 103932, Note_on_c, 13, 55, 83
29, 103945, Note_on_c, 13, 58, 94
29, 104027, Note_on_c, 13, 55, 0
29, 104040, Note_on_c, 13, 58, 0
29, 104161, Note_on_c, 13, 55, 81
29, 104173, Note_on_c, 13, 58, 87
29, 104256, Note_on_c, 13, 55, 0
29, 104268, Note_on_c, 13, 58, 0
29, 104412, Note_on_c, 13, 55, 87
29, 104419, Note_on_c, 13, 58, 78
29, 104507, Note_on_c, 13, 55, 0
29, 104514, Note_on_c, 13, 58, 0
29, 104641, Note_on_c, 13, 58, 87
29, 104644, Note_on_c, 13, 55, 95
29, 104736, Note_on_c, 13, 58, 0
29, 104739, Note_on_c, 13, 55, 0
29, 104891, Note_on_c, 13, 55, 81
29, 104891, Note_on_c, 13, 58, 89
29, 104986, Note_on_c, 13, 55, 0
29, 104986, Note_on_c, 13, 58, 0
29, 106087, Note_on_c, 13, 64, 80
29, 106126, Note_on_c, 13, 64, 0
29, 106165, Note_on_c, 13, 64, 74
29, 106203, Note_on_c, 13, 64, 0
29, 106256, Note_on_c, 13, 60, 72
29, 106296, Note_on_c, 13, 60, 0
29, 106337, Note_on_c, 13, 60, 76
29, 106375, Note_on_c, 13, 60, 0
29, 106419, Note_on_c, 13, 64, 73
29, 106458, Note_on_c, 13, 64, 0
29, 106488, Note_on_c, 13, 64, 65
29, 106526, Note_on_c, 13, 64, 0
29, 106572, Note_on_c, 13, 67, 85
29, 106611, Note_on_c, 13, 67, 0
29, 106645, Note_on_c, 13, 67, 82
29, 106683, Note_on_c, 13, 67, 0
29, 106744, Note_on_c, 13, 64, 75
29, 106784, Note_on_c, 13, 64, 0
29, 106819, Note_on_c, 13, 64, 72
29, 106857, Note_on_c, 13, 64, 0
29, 106884, Note_on_c, 13, 60, 75
29, 106923, Note_on_c, 13, 60, 0
29, 106963, Note_on_c, 13, 60, 76
29, 107001, Note_on_c, 13, 60, 0
29, 107064, Note_on_c, 13, 64, 65
29, 107103, Note_on_c, 13, 64, 0
29, 107123, Note_on_c, 13, 64, 71
29, 107161, Note_on_c, 13, 64, 0
29, 107222, Note_on_c, 13, 60, 79
29, 107262, Note_on_c, 13, 60, 0
29, 107292, Note_on_c, 13, 60, 75
29, 107330, Note_on_c, 13, 60, 0
29, 107376, Note_on_c, 13, 64, 71
29, 107415, Note_on_c, 13, 64, 0
29, 107442, Note_on_c, 13, 64, 73
29, 107480, Note_on_c, 13, 64, 0
29, 107533, Note_on_c, 13, 67, 75
29, 107572, Note_on_c, 13, 67, 0
29, 107609, Note_on_c, 13, 67, 68
29, 107647, Note_on_c, 13, 67, 0
29, 107691, Note_on_c, 13, 64, 81
29, 107731, Note_on_c, 13, 64, 0
29, 107764, Note_on_c, 13, 64, 66
29, 107802, Note_on_c, 13, 64, 0
29, 107854, Note_on_c, 13, 60, 84
29, 107893, Note_on_c, 13, 60, 0
29, 107941, Note_on_c, 13, 60, 68
29, 107979, Note_on_c, 13, 60, 0
29, 108009, Note_on_c, 13, 64, 69
29, 108048, Note_on_c, 13, 64, 0
29, 108084, Note_on_c, 13, 64, 79
29, 108122, Note_on_c, 13, 64, 0
29, 108176, Note_on_c, 13, 60, 80
29, 108216, Note_on_c, 13, 60, 0
29, 108243, Note_on_c, 13, 60, 65
29, 108281, Note_on_c, 13, 60, 0
29, 108337, Note_on_c, 13, 64, 80
29, 108376, Note_on_c, 13, 64, 0
29, 108407, Note_on_c, 13, 64, 79
29, 108445, Note_on_c, 13, 64, 0
29, 108492, Note_on_c, 13, 67, 69
29, 108531, Note_on_c, 13, 67, 0
29, 108574, Note_on_c, 13, 67, 71
29, 108612, Note_on_c, 13, 67, 0
29, 108659, Note_on_c, 13, 64, 65
29, 108699, Note_on_c, 13, 64, 0
29, 108742, Note_on_c, 13, 64, 79
29, 108780, Note_on_c, 13, 64, 0
29, 108800, Note_on_c, 13, 60, 76
29, 108839, Note_on_c, 13, 60, 0
29, 108886, Note_on_c, 13, 60, 65
29, 108924, Note_on_c, 13, 60, 0
29, 108962, Note_on_c, 13, 64, 70
29, 109001, Note_on_c, 13, 64, 0
29, 109060, Note_on_c, 13, 64, 65
29, 109098, Note_on_c, 13, 64, 0
29, 109144, Note_on_c, 13, 60, 69
29, 109184, Note_on_c, 13, 60, 0
29, 109206, Note_on_c, 13, 60, 81
29, 109244, Note_on_c, 13, 60, 0
29, 109295, Note_on_c, 13, 64, 73
29, 109334, Note_on_c, 13, 64, 0
29, 109361, Note_on_c, 13, 64, 80
29, 109399, Note_on_c, 13, 64, 0
29, 109443, Note_on_c, 13, 67, 78
29, 109482, Note_on_c, 13, 67, 0
29, 109541, Note_on_c, 13, 67, 74
29, 109579, Note_on_c, 13, 67, 0
29, 109615, Note_on_c, 13, 64, 65
29, 109655, Note_on_c, 13, 64, 0
29, 109689, Note_on_c, 13, 64, 74
29, 109727, Note_on_c, 13, 64, 0
29, 109774, Note_on_c, 13, 60, 72
29, 109813, Note_on_c, 13, 60, 0
29, 109862, Note_on_c, 13, 60, 79
29, 109900, Note_on_c, 13, 60, 0
29, 109921, Note_on_c, 13, 64, 85
29, 109960, Note_on_c, 13, 64, 0
29, 110015, Note_on_c, 13, 64, 72
29, 110053, Note_on_c, 13, 64, 0
29, 110084, Note_on_c, 13, 60, 80
29, 110124, Note_on_c, 13, 60, 0
29, 110178, Note_on_c, 13, 60, 81
29, 110216, Note_on_c, 13, 60, 0
29, 110249, Note_on_c, 13, 64, 66
29, 110288, Note_on_c, 13, 64, 0
29, 110344, Note_on_c, 13, 64, 72
29, 110382, Note_on_c, 13, 64, 0
29, 110403, Note_on_c, 13, 67, 76
29, 110442, Note_on_c, 13, 67, 0
29, 110489, Note_on_c, 13, 67, 71
29, 110527, Note_on_c, 13, 67, 0
29, 110566, Note_on_c, 13, 64, 79
29, 110606, Note_on_c, 13, 64, 0
29, 110645, Note_on_c, 13, 64, 68
29, 110683, Note_on_c, 13, 64, 0
29, 110745, Note_on_c, 13, 60, 84
29, 110784, Note_on_c, 13, 60, 0
29, 110818, Note_on_c, 13, 60, 78
29, 110856, Note_on_c, 13, 60, 0
29, 110899, Note_on_c, 13, 64, 65
29, 110938, Note_on_c, 13, 64, 0
29, 110976, Note_on_c, 13, 64, 71
29, 111014, Note_on_c, 13, 64, 0
29, 111049, Note_on_c, 13, 60, 72
29, 111089, Note_on_c, 13, 60, 0
29, 111135, Note_on_c, 13, 60, 72
29, 111173, Note_on_c, 13, 60, 0
29, 111208, Note_on_c, 13, 64, 84
29, 111247, Note_on_c, 13, 64, 0
29, 111288, Note_on_c, 13, 64, 75
29, 111326, Note_on_c, 13, 64, 0
29, 111367, Note_on_c, 13, 67, 70
29, 111406, Note_on_c, 13, 67, 0
29, 111461, Note_on_c, 13, 67, 68
29, 111499, Note_on_c, 13, 67, 0
29, 111543, Note_on_c, 13, 64, 75
29, 111583, Note_on_c, 13, 64, 0
29, 111617, Note_on_c, 13, 64, 74
29, 111655, Note_on_c, 13, 64, 0
29, 111683, Note_on_c, 13, 60, 85
29, 111722, Note_on_c, 13, 60, 0
29, 111760, Note_on_c, 13, 60, 70
29, 111798, Note_on_c, 13, 60, 0
29, 111857, Note_on_c, 13, 64, 72
29, 111896, Note_on_c, 13, 64, 0
29, 111920, Note_on_c, 13, 64, 83
29, 111958, Note_on_c, 13, 64, 0
29, 112012, Note_on_c, 13, 60, 81
29, 112052, Note_on_c, 13, 60, 0
29, 112092, Note_on_c, 13, 60, 71
29, 112130, Note_on_c, 13, 60, 0
29, 112161, Note_on_c, 13, 64, 81
29, 112200, Note_on_c, 13, 64, 0
29, 112240, Note_on_c, 13, 64, 65
29, 112278, Note_on_c, 13, 64, 0
29, 112343, Note_on_c, 13, 67, 85
29, 112382, Note_on_c, 13, 67, 0
29, 112405, Note_on_c, 13, 67, 83
29, 112443, Note_on_c, 13, 67, 0
29, 112492, Note_on_c, 13, 64, 66
29, 112532, Note_on_c, 13, 64, 0
29, 112577, Note_on_c, 13, 64, 84
29, 112615, Note_on_c, 13, 64, 0
29, 112643, Note_on_c, 13, 60, 72
29, 112682, Note_on_c, 13, 60, 0
29, 112737, Note_on_c, 13, 60, 71
29, 112775, Note_on_c, 13, 60, 0
29, 112822, Note_on_c, 13, 64, 68
29, 112861, Note_on_c, 13, 64, 0
29, 112891, Note_on_c, 13, 64, 79
29, 112929, Note_on_c, 13, 64, 0
29, 112973, Note_on_c, 13, 60, 73
29, 113013, Note_on_c, 13, 60, 0
29, 113060, Note_on_c, 13, 60, 68
29, 113098, Note_on_c, 13, 60, 0
29, 113133, Note_on_c, 13, 64, 75
29, 113172, Note_on_c, 13, 64, 0
29, 113222, Note_on_c, 13, 64, 75
29, 113260, Note_on_c, 13, 64, 0
29, 113296, Note_on_c, 13, 67, 70
29, 113335, Note_on_c, 13, 67, 0
29, 113361, Note_on_c, 13, 67, 76
29, 113399, Note_on_c, 13, 67, 0
29, 113447, Note_on_c, 13, 64, 85
29, 113487, Note_on_c, 13, 64, 0
29, 113543, Note_on_c, 13, 64, 65
29, 113581, Note_on_c, 13, 64, 0
29, 113603, Note_on_c, 13, 60, 67
29, 113642, Note_on_c, 13, 60, 0
29, 113699, Note_on_c, 13, 60, 67
29, 113737, Note_on_c, 13, 60, 0
29, 113766, Note_on_c, 13, 64, 66
29, 113805, Note_on_c, 13, 64, 0
29, 113840, Note_on_c, 13, 64, 82
29, 113878, Note_on_c, 13, 64, 0
29, 113920, Note_on_c, 13, 60, 74
29, 113960, Note_on_c, 13, 60, 0
29, 114003, Note_on_c, 13, 60, 68
29, 114041, Note_on_c, 13, 60, 0
29, 114089, Note_on_c, 13, 64, 69
29, 114128, Note_on_c, 13, 64, 0
29, 114175, Note_on_c, 13, 64, 78
29, 114213, Note_on_c, 13, 64, 0
29, 114261, Note_on_c, 13, 67, 85
29, 114300, Note_on_c, 13, 67, 0
29, 114324, Note_on_c, 13, 67, 75
29, 114362, Note_on_c, 13, 67, 0
29, 114411, Note_on_c, 13, 64, 75
29, 114451, Note_on_c, 13, 64, 0
29, 114481, Note_on_c, 13, 64, 83
29, 114519, Note_on_c, 13, 64, 0
29, 114568, Note_on_c, 13, 60, 74
29, 114607, Note_on_c, 13, 60, 0
29, 114644, Note_on_c, 13, 60, 85
29, 114682, Note_on_c, 13, 60, 0
29, 114741, Note_on_c, 13, 64, 67
29, 114780, Note_on_c, 13, 64, 0
29, 114808, Note_on_c, 13, 64, 65
29, 114846, Note_on_c, 13, 64, 0
29, 114904, Note_on_c, 13, 60, 70
29, 114944, Note_on_c, 13, 60, 0
29, 114979, Note_on_c, 13, 60, 70
29, 115017, Note_on_c, 13, 60, 0
29, 115053, Note_on_c, 13, 64, 65
29, 115092, Note_on_c, 13, 64, 0
29, 115120, Note_on_c, 13, 64, 84
29, 115158, Note_on_c, 13, 64, 0
29, 115204, Note_on_c, 13, 67, 66
29, 115243, Note_on_c, 13, 67, 0
29, 115285, Note_on_c, 13, 67, 74
29, 115323, Note_on_c, 13, 67, 0
29, 115370, Note_on_c, 13, 64, 67
29, 115410, Note_on_c, 13, 64, 0
29, 115446, Note_on_c, 13, 64, 66
29, 115484, Note_on_c, 13, 64, 0
29, 115524, Note_on_c, 13, 60, 85
29, 115563, Note_on_c, 13, 60, 0
29, 115601, Note_on_c, 13, 60, 72
29, 115639, Note_on_c, 13, 60, 0
29, 115704, Note_on_c, 13, 64, 84
29, 115743, Note_on_c, 13, 64, 0
29, 115779, Note_on_c, 13, 64, 82
29, 115817, Note_on_c, 13, 64, 0
29, 115849, Note_on_c, 13, 60, 68
29, 115889, Note_on_c, 13, 60, 0
29, 115921, Note_on_c, 13, 60, 85
29, 115959, Note_on_c, 13, 60, 0
29, 116023, Note_on_c, 13, 64, 78
29, 116062, Note_on_c, 13, 64, 0
29, 116090, Note_on_c, 13, 64, 69
29, 116128, Note_on_c, 13, 64, 0
29, 116179, Note_on_c, 13, 67, 82
29, 116218, Note_on_c, 13, 67, 0
29, 116247, Note_on_c, 13, 67, 85
29, 116285, Note_on_c, 13, 67, 0
29, 116324, Note_on_c, 13, 64, 76
29, 116364, Note_on_c, 13, 64, 0
29, 116408, Note_on_c, 13, 64, 77
29, 116446, Note_on_c, 13, 64, 0
29, 116488, Note_on_c, 13, 60, 84
29, 116527, Note_on_c, 13, 60, 0
29, 116564, Note_on_c, 13, 60, 83
29, 116602, Note_on_c, 13, 60, 0
29, 116640, Program_c, 13, 48
29, 116646, Note_on_c, 13, 58, 91
29, 116649, Note_on_c, 13, 52, 79
29, 116665, Note_on_c, 13, 63, 88
29, 116712, Note_on_c, 13, 63, 0
29, 116741, Note_on_c, 13, 58, 0
29, 116744, Note_on_c, 13, 52, 0
29, 116890, Note_on_c, 13, 55, 82
29, 116893, Note_on_c, 13, 58, 79
29, 116985, Note_on_c, 13, 55, 0
29, 116988, Note_on_c, 13, 58, 0
29, 117123, Note_on_c, 13, 58, 79
29, 117136, Note_on_c, 13, 55, 87
29, 117218, Note_on_c, 13, 58, 0
29, 117231, Note_on_c, 13, 55, 0
29, 117373, Note_on_c, 13, 58, 85
29, 117376, Note_on_c, 13, 55, 90
29, 117468, Note_on_c, 13, 58, 0
29, 117471, Note_on_c, 13, 55, 0
29, 117600, Note_on_c, 13, 55, 97
29, 117621, Note_on_c, 13, 58, 79
29, 117695, Note_on_c, 13, 55, 0
29, 117716, Note_on_c, 13, 58, 0
29, 117854, Note_on_c, 13, 55, 89
29, 117861, Note_on_c, 13, 58, 90
29, 117949, Note_on_c, 13, 55, 0
29, 117956, Note_on_c, 13, 58, 0
29, 118094, Note_on_c, 13, 58, 78
29, 118099, Note_on_c, 13, 55, 90
29, 118189, Note_on_c, 13, 58, 0
29, 118194, Note_on_c, 13, 55, 0
29, 118331, Note_on_c, 13, 58, 93
29, 118337, Note_on_c, 13, 55, 85
29, 118426, Note_on_c, 13, 58, 0
29, 118432, Note_on_c, 13, 55, 0
29, 118572, Note_on_c, 13, 58, 89
29, 118575, Note_on_c, 13, 55, 95
29, 118667, Note_on_c, 13, 58, 0
29, 118670, Note_on_c, 13, 55, 0
29, 118810, Note_on_c, 13, 55, 110
29, 118820, Note_on_c, 13, 58, 119
29, 118905, Note_on_c, 13, 55, 0
29, 118915, Note_on_c, 13, 58, 0
29, 119051, Note_on_c, 13, 55, 93
29, 119057, Note_on_c, 13, 58, 87
29, 119146, Note_on_c, 13, 55, 0
29, 119152, Note_on_c, 13, 58, 0
29, 119303, Note_on_c, 13, 55, 108
29, 119305, Note_on_c, 13, 58, 101
29, 119398, Note_on_c, 13, 55, 0
29, 119400, Note_on_c, 13, 58, 0
29, 119526, Note_on_c, 13, 58, 82
29, 119527, Note_on_c, 13, 55, 90
29, 119621, Note_on_c, 13, 58, 0
29, 119622, Note_on_c, 13, 55, 0
29, 119761, Note_on_c, 13, 58, 98
29, 119769, Note_on_c, 13, 55, 80
29, 119856, Note_on_c, 13, 58, 0
29, 119864, Note_on_c, 13, 55, 0
29, 120017, Note_on_c, 13, 55, 98
29, 120018, Note_on_c, 13, 58, 97
29, 120112, Note_on_c, 13, 55, 0
29, 120113, Note_on_c, 13, 58, 0
29, 120255, Note_on_c, 13, 55, 78
29, 120255, Note_on_c, 13, 58, 78
29, 120350, Note_on_c, 13, 55, 0
29, 120350, Note_on_c, 13, 58, 0
29, 120491, Note_on_c, 13, 58, 94
29, 120494, Note_on_c, 13, 55, 88
29, 120586, Note_on_c, 13, 58, 0
29, 120589, Note_on_c, 13, 55, 0
29, 120720, Note_on_c, 13, 55, 103
29, 120738, Note_on_c, 13, 58, 115
29, 120815, Note_on_c, 13, 55, 0
29, 120833, Note_on_c, 13, 58, 0
29, 120960, Note_on_c, 13, 58, 83
29, 120974, Note_on_c, 13, 55, 88
29, 121055, Note_on_c, 13, 58, 0
29, 121069, Note_on_c, 13, 55, 0
29, 121210, Note_on_c, 13, 58, 92
29, 121219, Note_on_c, 13, 55, 92
29, 121305, Note_on_c, 13, 58, 0
29, 121314, Note_on_c, 13, 55, 0
29, 121451, Note_on_c, 13, 55, 109
29, 121451, Note_on_c, 13, 58, 108
29, 121546, Note_on_c, 13, 55, 0
29, 121546, Note_on_c, 13, 58, 0
29, 121692, Note_on_c, 13, 58, 96
29, 121700, Note_on_c, 13, 55, 93
29, 121787, Note_on_c, 13, 58, 0
29, 121795, Note_on_c, 13, 55, 0
29, 121924, Note_on_c, 13, 58, 81
29, 121943, Note_on_c, 13, 55, 87
29, 122019, Note_on_c, 13, 58, 0
29, 122038, Note_on_c, 13, 55, 0
29, 122176, Note_on_c, 13, 55, 78
29, 122185, Note_on_c, 13, 58, 81
29, 122271, Note_on_c, 13, 55, 0
29, 122280, Note_on_c, 13, 58, 0
29, 122412, Note_on_c, 13, 55, 109
29, 122421, Note_on_c, 13, 58, 118
29, 122507, Note_on_c, 13, 55, 0
29, 122516, Note_on_c, 13, 58, 0
29, 122652, Note_on_c, 13, 58, 92
29, 122655, Note_on_c, 13, 55, 81
29, 122747, Note_on_c, 13, 58, 0
29, 122750, Note_on_c, 13, 55, 0
29, 122887, Note_on_c, 13, 58, 87
29, 122899, Note_on_c, 13, 55, 87
29, 122982, Note_on_c, 13, 58, 0
29, 122994, Note_on_c, 13, 55, 0
29, 123127, Note_on_c, 13, 55, 85
29, 123136, Note_on_c, 13, 58, 95
29, 123222, Note_on_c, 13, 55, 0
29, 123231, Note_on_c, 13, 58, 0
29, 123365, Note_on_c, 13, 55, 98
29, 123379, Note_on_c, 13, 58, 97
29, 123460, Note_on_c, 13, 55, 0
29, 123474, Note_on_c, 13, 58, 0
29, 123600, Note_on_c, 13, 58, 111
29, 123624, Note_on_c, 13, 55, 103
29, 123695, Note_on_c, 13, 58, 0
29, 123719, Note_on_c, 13, 55, 0
29, 123848, Note_on_c, 13, 58, 90
29, 123863, Note_on_c, 13, 55, 78
29, 123943, Note_on_c, 13, 58, 0
29, 123958, Note_on_c, 13, 55, 0
29, 124084, Note_on_c, 13, 55, 90
29, 124096, Note_on_c, 13, 58, 98
29, 124179, Note_on_c, 13, 55, 0
29, 124191, Note_on_c, 13, 58, 0
29, 124326, Note_on_c, 13, 58, 59
29, 124328, Note_on_c, 13, 55, 48
29, 124421, Note_on_c, 13, 58, 0
29, 124423, Note_on_c, 13, 55, 0
29, 124562, Note_on_c, 13, 58, 57
29, 124571, Note_on_c, 13, 55, 59
29, 124657, Note_on_c, 13, 58, 0
29, 124666, Note_on_c, 13, 55, 0
29, 124815, Note_on_c, 13, 58, 55
29, 124816, Note_on_c, 13, 55, 59
29, 124910, Note_on_c, 13, 58, 0
29, 124911, Note_on_c, 13, 55, 0
29, 125054, Note_on_c, 13, 58, 55
29, 125063, Note_on_c, 13, 55, 46
29, 125149, Note_on_c, 13, 58, 0
29, 125158, Note_on_c, 13, 55, 0
29, 125280, Note_on_c, 13, 58, 55
29, 125297, Note_on_c, 13, 55, 50
29, 125375, Note_on_c, 13, 58, 0
29, 125392, Note_on_c, 13, 55, 0
29, 125529, Note_on_c, 13, 55, 49
29, 125539, Note_on_c, 13, 58, 43
29, 125624, Note_on_c, 13, 55, 0
29, 125634, Note_on_c, 13, 58, 0
29, 125769, Note_on_c, 13, 58, 44
29, 125781, Note_on_c, 13, 55, 58
29, 125864, Note_on_c, 13, 58, 0
29, 125876, Note_on_c, 13, 55, 0
29, 126009, Note_on_c, 13, 55, 57
29, 126025, Note_on_c, 13, 58, 57
29, 126104, Note_on_c, 13, 55, 0
29, 126120, Note_on_c, 13, 58, 0
29, 126252, Note_on_c, 13, 55, 42
29, 126259, Note_on_c, 13, 58, 49
29, 126347, Note_on_c, 13, 55, 0
29, 126354, Note_on_c, 13, 58, 0
29, 126493, Note_on_c, 13, 55, 48
29, 126502, Note_on_c, 13, 58, 40
29, 126588, Note_on_c, 13, 55, 0
29, 126597, Note_on_c, 13, 58, 0
29, 126734, Note_on_c, 13, 58, 57
29, 126735, Note_on_c, 13, 55, 52
29, 126829, Note_on_c, 13, 58, 0
29, 126830, Note_on_c, 13, 55, 0
29, 126969, Note_on_c, 13, 55, 56
29, 126983, Note_on_c, 13, 58, 41
29, 127064, Note_on_c, 13, 55, 0
29, 127078, Note_on_c, 13, 58, 0
29, 127208, Note_on_c, 13, 58, 45
29, 127214, Note_on_c, 13, 55, 52
29, 127303, Note_on_c, 13, 58, 0
29, 127309, Note_on_c, 13, 55, 0
29, 127453, Note_on_c, 13, 58, 113
29, 127464, Note_on_c, 13, 55, 104
29, 127548, Note_on_c, 13, 58, 0
29, 127559, Note_on_c, 13, 55, 0
29, 127700, Note_on_c, 13, 55, 87
29, 127700, Note_on_c, 13, 58, 89
29, 127795, Note_on_c, 13, 55, 0
29, 127795, Note_on_c, 13, 58, 0
29, 127928, Note_on_c, 13, 55, 113
29, 127937, Note_on_c, 13, 58, 109
29, 128023, Note_on_c, 13, 55, 0
29, 128032, Note_on_c, 13, 58, 0
29, 128169, Note_on_c, 13, 58, 53
29, 128185, Note_on_c, 13, 55, 54
29, 128264, Note_on_c, 13, 58, 0
29, 128280, Note_on_c, 13, 55, 0
29, 128404, Note_on_c, 13, 58, 45
29, 128424, Note_on_c, 13, 55, 58
29, 128499, Note_on_c, 13, 58, 0
29, 128519, Note_on_c, 13, 55, 0
29, 128640, Note_on_c, 13, 58, 53
29, 128664, Note_on_c, 13, 55, 45
29, 128735, Note_on_c, 13, 58, 0
29, 128759, Note_on_c, 13, 55, 0
29, 128900, Note_on_c, 13, 58, 42
29, 128905, Note_on_c, 13, 55, 55
29, 128995, Note_on_c, 13, 58, 0
29, 129000, Note_on_c, 13, 55, 0
29, 129129, Note_on_c, 13, 55, 47
29, 129135, Note_on_c, 13, 58, 45
29, 129224, Note_on_c, 13, 55, 0
29, 129230, Note_on_c, 13, 58, 0
29, 129364, Note_on_c, 13, 55, 53
29, 129368, Note_on_c, 13, 58, 54
29, 129459, Note_on_c, 13, 55, 0
29, 129463, Note_on_c, 13, 58, 0
29, 129601, Note_on_c, 13, 58, 56
29, 129623, Note_on_c, 13, 55, 39
29, 129696, Note_on_c, 13, 58, 0
29, 129718, Note_on_c, 13, 55, 0
29, 129841, Note_on_c, 13, 58, 49
29, 129847, Note_on_c, 13, 55, 57
29, 129936, Note_on_c, 13, 58, 0
29, 129942, Note_on_c, 13, 55, 0
29, 130099, Note_on_c, 13, 58, 47
29, 130100, Note_on_c, 13, 55, 50
29, 130194, Note_on_c, 13, 58, 0
29, 130195, Note_on_c, 13, 55, 0
29, 130343, Note_on_c, 13, 55, 53
29, 130345, Note_on_c, 13, 58, 42
29, 130438, Note_on_c, 13, 55, 0
29, 130440, Note_on_c, 13, 58, 0
29, 130563, Note_on_c, 13, 55, 52
29, 130572, Note_on_c, 13, 58, 58
29, 130658, Note_on_c, 13, 55, 0
29, 130667, Note_on_c, 13, 58, 0
29, 130812, Note_on_c, 13, 58, 41
29, 130816, Note_on_c, 13, 55, 41
29, 130907, Note_on_c, 13, 58, 0
29, 130911, Note_on_c, 13, 55, 0
29, 131043, Note_on_c, 13, 58, 57
29, 131050, Note_on_c, 13, 55, 43
29, 131138, Note_on_c, 13, 58, 0
29, 131145, Note_on_c, 13, 55, 0
29, 131285, Note_on_c, 13, 55, 107
29, 131287, Note_on_c, 13, 58, 118
29, 131380, Note_on_c, 13, 55, 0
29, 131382, Note_on_c, 13, 58, 0
29, 131526, Note_on_c, 13, 58, 88
29, 131531, Note_on_c, 13, 55, 91
29, 131621, Note_on_c, 13, 58, 0
29, 131626, Note_on_c, 13, 55, 0
29, 131778, Note_on_c, 13, 55, 81
29, 131780, Note_on_c, 13, 58, 84
29, 131873, Note_on_c, 13, 55, 0
29, 131875, Note_on_c, 13, 58, 0
29, 132016, Note_on_c, 13, 55, 110
29, 132021, Note_on_c, 13, 58, 107
29, 132111, Note_on_c, 13, 55, 0
29, 132116, Note_on_c, 13, 58, 0
29, 132254, Note_on_c, 13, 58, 88
29, 132260, Note_on_c, 13, 55, 84
29, 132349, Note_on_c, 13, 58, 0
29, 132355, Note_on_c, 13, 55, 0
29, 132497, Note_on_c, 13, 55, 87
29, 132505, Note_on_c, 13, 58, 79
29, 132592, Note_on_c, 13, 55, 0
29, 132600, Note_on_c, 13, 58, 0
29, 132722, Note_on_c, 13, 55, 79
29, 132740, Note_on_c, 13, 58, 89
29, 132817, Note_on_c, 13, 55, 0
29, 132835, Note_on_c, 13, 58, 0
29, 132968, Note_on_c, 13, 58, 92
29, 132985, Note_on_c, 13, 55, 95
29, 133063, Note_on_c, 13, 58, 0
29, 133080, Note_on_c, 13, 55, 0
29, 133200, Note_on_c, 13, 58, 52
29, 133201, Note_on_c, 13, 55, 45
29, 133295, Note_on_c, 13, 58, 0
29, 133296, Note_on_c, 13, 55, 0
29, 133457, Note_on_c, 13, 58, 46
29, 133461, Note_on_c, 13, 55, 48
29, 133552, Note_on_c, 13, 58, 0
29, 133556, Note_on_c, 13, 55, 0
29, 133690, Note_on_c, 13, 55, 43
29, 133696, Note_on_c, 13, 58, 44
29, 133785, Note_on_c, 13, 55, 0
29, 133791, Note_on_c, 13, 58, 0
29, 133928, Note_on_c, 13, 58, 50
29, 133929, Note_on_c, 13, 55, 54
29, 134023, Note_on_c, 13, 58, 0
29, 134024, Note_on_c, 13, 55, 0
29, 134162, Note_on_c, 13, 58, 54
29, 134169, Note_on_c, 13, 55, 39
29, 134257, Note_on_c, 13, 58, 0
29, 134264, Note_on_c, 13, 55, 0
29, 134412, Note_on_c, 13, 58, 57
29, 134415, Note_on_c, 13, 55, 46
29, 134507, Note_on_c, 13, 58, 0
29, 134510, Note_on_c, 13, 55, 0
29, 134662, Note_on_c, 13, 58, 41
29, 134665, Note_on_c, 13, 55, 58
29, 134757, Note_on_c, 13, 58, 0
29, 134760, Note_on_c, 13, 55, 0
29, 134888, Note_on_c, 13, 58, 41
29, 134891, Note_on_c, 13, 55, 45
29, 134983, Note_on_c, 13, 58, 0
29, 134986, Note_on_c, 13, 55, 0
29, 135129, Note_on_c, 13, 58, 51
29, 135133, Note_on_c, 13, 55, 56
29, 135224, Note_on_c, 13, 58, 0
29, 135228, Note_on_c, 13, 55, 0
29, 135372, Note_on_c, 13, 58, 46
29, 135385, Note_on_c, 13, 55, 56
29, 135467, Note_on_c, 13, 58, 0
29, 135480, Note_on_c, 13, 55, 0
29, 135613, Note_on_c, 13, 55, 57
29, 135622, Note_on_c, 13, 58, 45
29, 135708, Note_on_c, 13, 55, 0
29, 135717, Note_on_c, 13, 58, 0
29, 135840, Note_on_c, 13, 55, 40
29, 135856, Note_on_c, 13, 58, 57
29, 135935, Note_on_c, 13, 55, 0
29, 135951, Note_on_c, 13, 58, 0
29, 136086, Note_on_c, 13, 58, 52
29, 136105, Note_on_c, 13, 55, 40
29, 136181, Note_on_c, 13, 58, 0
29, 136200, Note_on_c, 13, 55, 0
29, 136324, Note_on_c, 13, 55, 48
29, 136337, Note_on_c, 13, 58, 53
29, 136419, Note_on_c, 13, 55, 0
29, 136432, Note_on_c, 13, 58, 0
29, 136583, Note_on_c, 13, 58, 117
29, 136584, Note_on_c, 13, 55, 115
29, 136678, Note_on_c, 13, 58, 0
29, 136679, Note_on_c, 13, 55, 0
29, 136811, Note_on_c, 13, 58, 95
29, 136812, Note_on_c, 13, 55, 84
29, 136906, Note_on_c, 13, 58, 0
29, 136907, Note_on_c, 13, 55, 0
29, 137040, Note_on_c, 13, 58, 106
29, 137056, Note_on_c, 13, 55, 108
29, 137135, Note_on_c, 13, 58, 0
29, 137151, Note_on_c, 13, 55, 0
29, 137286, Note_on_c, 13, 58, 92
29, 137287, Note_on_c, 13, 55, 94
29, 137381, Note_on_c, 13, 58, 0
29, 137382, Note_on_c, 13, 55, 0
29, 137520, Note_on_c, 13, 58, 102
29, 137545, Note_on_c, 13, 55, 104
29, 137615, Note_on_c, 13, 58, 0
29, 137640, Note_on_c, 13, 55, 0
29, 137762, Note_on_c, 13, 58, 92
29, 137780, Note_on_c, 13, 55, 93
29, 137857, Note_on_c, 13, 58, 0
29, 137875, Note_on_c, 13, 55, 0
29, 138012, Note_on_c, 13, 55, 87
29, 138021, Note_on_c, 13, 58, 78
29, 138107, Note_on_c, 13, 55, 0
29, 138116, Note_on_c, 13, 58, 0
29, 138250, Note_on_c, 13, 55, 98
29, 138253, Note_on_c, 13, 58, 89
29, 138345, Note_on_c, 13, 55, 0
29, 138348, Note_on_c, 13, 58, 0
29, 138491, Note_on_c, 13, 58, 79
29, 138499, Note_on_c, 13, 55, 88
29, 138586, Note_on_c, 13, 58, 0
29, 138594, Note_on_c, 13, 55, 0
29, 138720, Note_on_c, 13, 55, 114
29, 138722, Note_on_c, 13, 58, 107
29, 138815, Note_on_c, 13, 55, 0
29, 138817, Note_on_c, 13, 58, 0
29, 138962, Note_on_c, 13, 58, 85
29, 138973, Note_on_c, 13, 55, 97
29, 139057, Note_on_c, 13, 58, 0
29, 139068, Note_on_c, 13, 55, 0
29, 139217, Note_on_c, 13, 58, 98
29, 139219, Note_on_c, 13, 55, 98
29, 139312, Note_on_c, 13, 58, 0
29, 139314, Note_on_c, 13, 55, 0
29, 139448, Note_on_c, 13, 55, 84
29, 139453, Note_on_c, 13, 58, 82
29, 139543, Note_on_c, 13, 55, 0
29, 139548, Note_on_c, 13, 58, 0
29, 139691, Note_on_c, 13, 55, 92
29, 139703, Note_on_c, 13, 58, 87
29, 139786, Note_on_c, 13, 55, 0
29, 139798, Note_on_c, 13, 58, 0
29, 139932, Note_on_c, 13, 58, 106
29, 139934, Note_on_c, 13, 55, 109
29, 140027, Note_on_c, 13, 58, 0
29, 140029, Note_on_c, 13, 55, 0
29, 140182, Note_on_c, 13, 58, 88
29, 140184, Note_on_c, 13, 55, 97
29, 140277, Note_on_c, 13, 58, 0
29, 140279, Note_on_c, 13, 55, 0
29, 140408, Note_on_c, 13, 58, 82
29, 140412, Note_on_c, 13, 55, 91
29, 140503, Note_on_c, 13, 58, 0
29, 140507, Note_on_c, 13, 55, 0
29, 140644, Note_on_c, 13, 58, 93
29, 140653, Note_on_c, 13, 55, 87
29, 140739, Note_on_c, 13, 58, 0
29, 140748, Note_on_c, 13, 55, 0
29, 140895, Note_on_c, 13, 55, 42
29, 140900, Note_on_c, 13, 58, 53
29, 140990, Note_on_c, 13, 55, 0
29, 140995, Note_on_c, 13, 58, 0
29, 141125, Note_on_c, 13, 55, 42
29, 141125, Note_on_c, 13, 58, 56
29, 141220, Note_on_c, 13, 55, 0
29, 141220, Note_on_c, 13, 58, 0
29, 141364, Note_on_c, 13, 58, 48
29, 141382, Note_on_c, 13, 55, 48
29, 141459, Note_on_c, 13, 58, 0
29, 141477, Note_on_c, 13, 55, 0
29, 141605, Note_on_c, 13, 55, 50
29, 141615, Note_on_c, 13, 58, 51
29, 141700, Note_on_c, 13, 55, 0
29, 141710, Note_on_c, 13, 58, 0
29, 141842, Note_on_c, 13, 58, 51
29, 141858, Note_on_c, 13, 55, 39
29, 141937, Note_on_c, 13, 58, 0
29, 141953, Note_on_c, 13, 55, 0
29, 142083, Note_on_c, 13, 58, 55
29, 142085, Note_on_c, 13, 55, 54
29, 142178, Note_on_c, 13, 58, 0
29, 142180, Note_on_c, 13, 55, 0
29, 142325, Note_on_c, 13, 58, 58
29, 142336, Note_on_c, 13, 55, 50
29, 142420, Note_on_c, 13, 58, 0
29, 142431, Note_on_c, 13, 55, 0
29, 142562, Note_on_c, 13, 55, 55
29, 142578, Note_on_c, 13, 58, 58
29, 142657, Note_on_c, 13, 55, 0
29, 142673, Note_on_c, 13, 58, 0
29, 142800, Note_on_c, 13, 58, 58
29, 142818, Note_on_c, 13, 55, 46
29, 142895, Note_on_c, 13, 58, 0
29, 142913, Note_on_c, 13, 55, 0
29, 143047, Note_on_c, 13, 55, 53
29, 143055, Note_on_c, 13, 58, 42
29, 143142, Note_on_c, 13, 55, 0
29, 143150, Note_on_c, 13, 58, 0
29, 143282, Note_on_c, 13, 58, 56
29, 143305, Note_on_c, 13, 55, 58
29, 143377, Note_on_c, 13, 58, 0
29, 143400, Note_on_c, 13, 55, 0
29, 143520, Note_on_c, 13, 55, 41
29, 143539, Note_on_c, 13, 58, 53
29, 143615, Note_on_c, 13, 55, 0
29, 143634, Note_on_c, 13, 58, 0
29, 143771, Note_on_c, 13, 55, 41
29, 143780, Note_on_c, 13, 58, 50
29, 143866, Note_on_c, 13, 55, 0
29, 143875, Note_on_c, 13, 58, 0
29, 144016, Note_on_c, 13, 55, 53
29, 144021, Note_on_c, 13, 58, 49
29, 144111, Note_on_c, 13, 55, 0
29, 144116, Note_on_c, 13, 58, 0
29, 144241, Note_on_c, 13, 58, 56
29, 144244, Note_on_c, 13, 55, 48
29, 144336, Note_on_c, 13, 58, 0
29, 144339, Note_on_c, 13, 55, 0
29, 144493, Note_on_c, 13, 55, 39
29, 144498, Note_on_c, 13, 58, 46
29, 144588, Note_on_c, 13, 55, 0
29, 144593, Note_on_c, 13, 58, 0
29, 144720, Note_on_c, 13, 58, 47
29, 144729, Note_on_c, 13, 55, 39
29, 144815, Note_on_c, 13, 58, 0
29, 144824, Note_on_c, 13, 55, 0
29, 144975, Note_on_c, 13, 58, 55
29, 144977, Note_on_c, 13, 55, 59
29, 145070, Note_on_c, 13, 58, 0
29, 145072, Note_on_c, 13, 55, 0
29, 145203, Note_on_c, 13, 55, 40
29, 145223, Note_on_c, 13, 58, 40
29, 145298, Note_on_c, 13, 55, 0
29, 145318, Note_on_c, 13, 58, 0
29, 145453, Note_on_c, 13, 58, 58
29, 145454, Note_on_c, 13, 55, 44
29, 145548, Note_on_c, 13, 58, 0
29, 145549, Note_on_c, 13, 55, 0
29, 145682, Note_on_c, 13, 58, 42
29, 145689, Note_on_c, 13, 55, 58
29, 145777, Note_on_c, 13, 58, 0
29, 145784, Note_on_c, 13, 55, 0
29, 145928, Note_on_c, 13, 58, 39
29, 145937, Note_on_c, 13, 55, 42
29, 146023, Note_on_c, 13, 58, 0
29, 146032, Note_on_c, 13, 55, 0
29, 146161, Note_on_c, 13, 58, 48
29, 146179, Note_on_c, 13, 55, 45
29, 146256, Note_on_c, 13, 58, 0
29, 146274, Note_on_c, 13, 55, 0
29, 146410, Note_on_c, 13, 55, 39
29, 146411, Note_on_c, 13, 58, 41
29, 146505, Note_on_c, 13, 55, 0
29, 146506, Note_on_c, 13, 58, 0
29, 146656, Note_on_c, 13, 55, 51
29, 146665, Note_on_c, 13, 58, 57
29, 146751, Note_on_c, 13, 55, 0
29, 146760, Note_on_c, 13, 58, 0
29, 146885, Note_on_c, 13, 55, 50
29, 146894, Note_on_c, 13, 58, 49
29, 146980, Note_on_c, 13, 55, 0
29, 146989, Note_on_c, 13, 58, 0
29, 147140, Note_on_c, 13, 58, 53
29, 147143, Note_on_c, 13, 55, 48
29, 147235, Note_on_c, 13, 58, 0
29, 147238, Note_on_c, 13, 55, 0
29, 147368, Note_on_c, 13, 58, 43
29, 147372, Note_on_c, 13, 55, 55
29, 147463, Note_on_c, 13, 58, 0
29, 147467, Note_on_c, 13, 55, 0
29, 147610, Note_on_c, 13, 55, 51
29, 147625, Note_on_c, 13, 58, 51
29, 147705, Note_on_c, 13, 55, 0
29, 147720, Note_on_c, 13, 58, 0
29, 147840, Note_on_c, 13, 55, 55
29, 147849, Note_on_c, 13, 58, 48
29, 147935, Note_on_c, 13, 55, 0
29, 147944, Note_on_c, 13, 58, 0
29, 148101, Note_on_c, 13, 55, 59
29, 148102, Note_on_c, 13, 58, 59
29, 148196, Note_on_c, 13, 55, 0
29, 148197, Note_on_c, 13, 58, 0
29, 148328, Note_on_c, 13, 58, 56
29, 148330, Note_on_c, 13, 55, 47
29, 148423, Note_on_c, 13, 58, 0
29, 148425, Note_on_c, 13, 55, 0
29, 148570, Note_on_c, 13, 55, 39
29, 148578, Note_on_c, 13, 58, 45
29, 148665, Note_on_c, 13, 55, 0
29, 148673, Note_on_c, 13, 58, 0
29, 148800, Note_on_c, 13, 58, 44
29, 148824, Note_on_c, 13, 55, 59
29, 148895, Note_on_c, 13, 58, 0
29, 148919, Note_on_c, 13, 55, 0
29, 149049, Note_on_c, 13, 55, 55
29, 149060, Note_on_c, 13, 58, 49
29, 149144, Note_on_c, 13, 55, 0
29, 149155, Note_on_c, 13, 58, 0
29, 149289, Note_on_c, 13, 55, 41
29, 149292, Note_on_c, 13, 58, 49
29, 149384, Note_on_c, 13, 55, 0
29, 149387, Note_on_c, 13, 58, 0
29, 149525, Note_on_c, 13, 58, 58
29, 149539, Note_on_c, 13, 55, 48
29, 149620, Note_on_c, 13, 58, 0
29, 149634, Note_on_c, 13, 55, 0
29, 149777, Note_on_c, 13, 58, 58
29, 149778, Note_on_c, 13, 55, 44
29, 149872, Note_on_c, 13, 58, 0
29, 149873, Note_on_c, 13, 55, 0
29, 150015, Note_on_c, 13, 58, 56
29, 150018, Note_on_c, 13, 55, 44
29, 150110, Note_on_c, 13, 58, 0
29, 150113, Note_on_c, 13, 55, 0
29, 150480, Program_c, 13, 45
29, 150484, Note_on_c, 13, 73, 104
29, 150485, Note_on_c, 13, 48, 100
29, 150493, Note_on_c, 13, 55, 94
29, 150494, Note_on_c, 13, 70, 110
29, 150724, Note_on_c, 13, 73, 0
29, 150725, Note_on_c, 13, 48, 0
29, 150733, Note_on_c, 13, 55, 0
29, 150734, Note_on_c, 13, 70, 0
29, 151200, Program_c, 13, 48
29, 151208, Note_on_c, 13, 62, 109
29, 151288, Note_on_c, 13, 62, 0
29, 151368, Note_on_c, 13, 66, 104
29, 151449, Note_on_c, 13, 66, 0
29, 157920, Program_c, 13, 49
29, 158520, Note_on_c, 13, 67, 99
29, 158580, Note_on_c, 13, 67, 0
29, 158640, Note_on_c, 13, 72, 91
29, 158700, Note_on_c, 13, 72, 0
29, 158760, Note_on_c, 13, 76, 108
29, 158820, Note_on_c, 13, 76, 0
29, 158880, Note_on_c, 13, 79, 91
29, 158940, Note_on_c, 13, 79, 0
29, 159000, Note_on_c, 13, 76, 93
29, 159060, Note_on_c, 13, 76, 0
29, 159120, Note_on_c, 13, 72, 104
29, 159180, Note_on_c, 13, 72, 0
29, 159240, Note_on_c, 13, 67, 111
29, 159300, Note_on_c, 13, 67, 0
29, 159480, Note_on_c, 13, 67, 108
29, 159540, Note_on_c, 13, 67, 0
29, 159600, Note_on_c, 13, 72, 91
29, 159660, Note_on_c, 13, 72, 0
29, 159720, Note_on_c, 13, 76, 108
29, 159780, Note_on_c, 13, 76, 0
29, 159840, Note_on_c, 13, 79, 93
29, 159900, Note_on_c, 13, 79, 0
29, 159960, Note_on_c, 13, 76, 91
29, 160020, Note_on_c, 13, 76, 0
29, 160080, Note_on_c, 13, 72, 91
29, 160140, Note_on_c, 13, 72, 0
29, 160200, Note_on_c, 13, 67, 109
29, 160260, Note_on_c, 13, 67, 0
29, 160440, Note_on_c, 13, 67, 95
29, 160500, Note_on_c, 13, 67, 0
29, 160560, Note_on_c, 13, 72, 110
29, 160620, Note_on_c, 13, 72, 0
29, 160680, Note_on_c, 13, 76, 96
29, 160740, Note_on_c, 13, 76, 0
29, 160800, Note_on_c, 13, 79, 97
29, 160860, Note_on_c, 13, 79, 0
29, 160920, Note_on_c, 13, 76, 99
29, 160980, Note_on_c, 13, 76, 0
29, 161040, Note_on_c, 13, 72, 97
29, 161100, Note_on_c, 13, 72, 0
29, 161160, Note_on_c, 13, 67, 91
29, 161220, Note_on_c, 13, 67, 0
29, 161400, Note_on_c, 13, 67, 99
29, 161460, Note_on_c, 13, 67, 0
29, 161520, Note_on_c, 13, 72, 99
29, 161580, Note_on_c, 13, 72, 0
29, 161640, Note_on_c, 13, 76, 111
29, 161700, Note_on_c, 13, 76, 0
29, 161760, Note_on_c, 13, 79, 106
29, 161820, Note_on_c, 13, 79, 0
29, 162720, Program_c, 13, 115
29, 162728, Note_on_c, 13, 60, 78
29, 162920, Note_on_c, 13, 60, 0
29, 162973, Note_on_c, 13, 60, 72
29, 163165, Note_on_c, 13, 60, 0
29, 163207, Note_on_c, 13, 60, 70
29, 163399, Note_on_c, 13, 60, 0
29, 163462, Note_on_c, 13, 60, 67
29, 163654, Note_on_c, 13, 60, 0
29, 163680, Note_on_c, 13, 60, 73
29, 163872, Note_on_c, 13, 60, 0
29, 163936, Note_on_c, 13, 60, 84
29, 164128, Note_on_c, 13, 60, 0
29, 164170, Note_on_c, 13, 60, 85
29, 164362, Note_on_c, 13, 60, 0
29, 164400, Note_on_c, 13, 60, 72
29, 164592, Note_on_c, 13, 60, 0
29, 164647, Note_on_c, 13, 65, 81
29, 164839, Note_on_c, 13, 65, 0
29, 164904, Note_on_c, 13, 65, 76
29, 165096, Note_on_c, 13, 65, 0
29, 165129, Note_on_c, 13, 65, 73
29, 165321, Note_on_c, 13, 65, 0
29, 165371, Note_on_c, 13, 65, 67
29, 165563, Note_on_c, 13, 65, 0
29, 165618, Note_on_c, 13, 65, 79
29, 165810, Note_on_c, 13, 65, 0
29, 165842, Note_on_c, 13, 65, 80
29, 166034, Note_on_c, 13, 65, 0
29, 166105, Note_on_c, 13, 65, 84
29, 166297, Note_on_c, 13, 65, 0
29, 166331, Note_on_c, 13, 65, 69
29, 166523, Note_on_c, 13, 65, 0
29, 166574, Note_on_c, 13, 65, 49
29, 166766, Note_on_c, 13, 65, 0
29, 166802, Note_on_c, 13, 65, 57
29, 166994, Note_on_c, 13, 65, 0
29, 167045, Note_on_c, 13, 65, 39
29, 167237, Note_on_c, 13, 65, 0
29, 167291, Note_on_c, 13, 65, 43
29, 167483, Note_on_c, 13, 65, 0
29, 167520, Note_on_c, 13, 65, 44
29, 167712, Note_on_c, 13, 65, 0
29, 167772, Note_on_c, 13, 65, 53
29, 167964, Note_on_c, 13, 65, 0
29, 168019, Note_on_c, 13, 65, 54
29, 168211, Note_on_c, 13, 65, 0
29, 168265, Note_on_c, 13, 65, 57
29, 168457, Note_on_c, 13, 65, 0
29, 168484, Note_on_c, 13, 65, 40
29, 168676, Note_on_c, 13, 65, 0
29, 168736, Note_on_c, 13, 65, 42
29, 168928, Note_on_c, 13, 65, 0
29, 168970, Note_on_c, 13, 65, 42
29, 169162, Note_on_c, 13, 65, 0
29, 169208, Note_on_c, 13, 65, 52
29, 169400, Note_on_c, 13, 65, 0
29, 169444, Note_on_c, 13, 65, 39
29, 169636, Note_on_c, 13, 65, 0
29, 169702, Note_on_c, 13, 65, 58
29, 169894, Note_on_c, 13, 65, 0
29, 169942, Note_on_c, 13, 65, 45
29, 170134, Note_on_c, 13, 65, 0
29, 170163, Note_on_c, 13, 65, 43
29, 170355, Note_on_c, 13, 65, 0
29, 170410, Note_on_c, 13, 65, 39
29, 170602, Note_on_c, 13, 65, 0
29, 170664, Note_on_c, 13, 65, 44
29, 170856, Note_on_c, 13, 65, 0
29, 170884, Note_on_c, 13, 65, 44
29, 171076, Note_on_c, 13, 65, 0
29, 171137, Note_on_c, 13, 65, 40
29, 171329, Note_on_c, 13, 65, 0
29, 171365, Note_on_c, 13, 65, 59
29, 171557, Note_on_c, 13, 65, 0
29, 171605, Note_on_c, 13, 65, 57
29, 171797, Note_on_c, 13, 65, 0
29, 171855, Note_on_c, 13, 65, 56
29, 172047, Note_on_c, 13, 65, 0
29, 172104, Note_on_c, 13, 65, 39
29, 172296, Note_on_c, 13, 65, 0
29, 172328, Note_on_c, 13, 65, 54
29, 172520, Note_on_c, 13, 65, 0
29, 172576, Note_on_c, 13, 65, 42
29, 172768, Note_on_c, 13, 65, 0
29, 172807, Note_on_c, 13, 65, 51
29, 172999, Note_on_c, 13, 65, 0
29, 173056, Note_on_c, 13, 65, 58
29, 173248, Note_on_c, 13, 65, 0
29, 173286, Note_on_c, 13, 65, 58
29, 173478, Note_on_c, 13, 65, 0
29, 173524, Note_on_c, 13, 65, 57
29, 173716, Note_on_c, 13, 65, 0
29, 173768, Note_on_c, 13, 65, 51
29, 173960, Note_on_c, 13, 65, 0
29, 174002, Note_on_c, 13, 65, 59
29, 174194, Note_on_c, 13, 65, 0
29, 174261, Note_on_c, 13, 65, 59
29, 174453, Note_on_c, 13, 65, 0
29, 174484, Note_on_c, 13, 65, 51
29, 174676, Note_on_c, 13, 65, 0
29, 174723, Note_on_c, 13, 65, 42
29, 174915, Note_on_c, 13, 65, 0
29, 174981, Note_on_c, 13, 65, 49
29, 175173, Note_on_c, 13, 65, 0
29, 175200, Note_on_c, 13, 65, 58
29, 175392, Note_on_c, 13, 65, 0
29, 175440, Note_on_c, 13, 65, 47
29, 175632, Note_on_c, 13, 65, 0
29, 175702, Note_on_c, 13, 65, 56
29, 175894, Note_on_c, 13, 65, 0
29, 175933, Note_on_c, 13, 65, 48
29, 176125, Note_on_c, 13, 65, 0
29, 176179, Note_on_c, 13, 65, 47
29, 176371, Note_on_c, 13, 65, 0
29, 176412, Note_on_c, 13, 65, 50
29, 176604, Note_on_c, 13, 65, 0
29, 176660, Note_on_c, 13, 65, 55
29, 176852, Note_on_c, 13, 65, 0
29, 176893, Note_on_c, 13, 65, 44
29, 177085, Note_on_c, 13, 65, 0
29, 177127, Note_on_c, 13, 65, 54
29, 177319, Note_on_c, 13, 65, 0
29, 177375, Note_on_c, 13, 65, 54
29, 177567, Note_on_c, 13, 65, 0
29, 177612, Note_on_c, 13, 65, 54
29, 177804, Note_on_c, 13, 65, 0
29, 177858, Note_on_c, 13, 65, 51
29, 178050, Note_on_c, 13, 65, 0
29, 178101, Note_on_c, 13, 65, 49
29, 178293, Note_on_c, 13, 65, 0
29, 178339, Note_on_c, 13, 65, 43
29, 178531, Note_on_c, 13, 65, 0
29, 178572, Note_on_c, 13, 65, 57
29, 178764, Note_on_c, 13, 65, 0
29, 178801, Note_on_c, 13, 65, 39
29, 178993, Note_on_c, 13, 65, 0
29, 179059, Note_on_c, 13, 65, 50
29, 179251, Note_on_c, 13, 65, 0
29, 179288, Note_on_c, 13, 65, 45
29, 179480, Note_on_c, 13, 65, 0
29, 179527, Note_on_c, 13, 65, 50
29, 179719, Note_on_c, 13, 65, 0
29, 179775, Note_on_c, 13, 65, 56
29, 179967, Note_on_c, 13, 65, 0
29, 180000, Note_on_c, 13, 65, 48
29, 180192, Note_on_c, 13, 65, 0
29, 180255, Note_on_c, 13, 65, 52
29, 180447, Note_on_c, 13, 65, 0
29, 180501, Note_on_c, 13, 65, 39
29, 180693, Note_on_c, 13, 65, 0
29, 180727, Note_on_c, 13, 65, 39
29, 180919, Note_on_c, 13, 65, 0
29, 180980, Note_on_c, 13, 65, 42
29, 181172, Note_on_c, 13, 65, 0
29, 181221, Note_on_c, 13, 65, 57
29, 181413, Note_on_c, 13, 65, 0
29, 181460, Note_on_c, 13, 65, 50
29, 181652, Note_on_c, 13, 65, 0
29, 181682, Note_on_c, 13, 65, 49
29, 181874, Note_on_c, 13, 65, 0
29, 181920, Note_on_c, 13, 65, 59
29, 182112, Note_on_c, 13, 65, 0
29, 182177, Note_on_c, 13, 65, 56
29, 182369, Note_on_c, 13, 65, 0
29, 182415, Note_on_c, 13, 65, 59
29, 182607, Note_on_c, 13, 65, 0
29, 182644, Note_on_c, 13, 65, 56
29, 182836, Note_on_c, 13, 65, 0
29, 182888, Note_on_c, 13, 65, 45
29, 183080, Note_on_c, 13, 65, 0
29, 183140, Note_on_c, 13, 65, 46
29, 183332, Note_on_c, 13, 65, 0
29, 183375, Note_on_c, 13, 65, 53
29, 183567, Note_on_c, 13, 65, 0
29, 183608, Note_on_c, 13, 65, 44
29, 183800, Note_on_c, 13, 65, 0
29, 183855, Note_on_c, 13, 65, 58
29, 184047, Note_on_c, 13, 65, 0
29, 184091, Note_on_c, 13, 65, 45
29, 184283, Note_on_c, 13, 65, 0
29, 184326, Note_on_c, 13, 65, 53
29, 184518, Note_on_c, 13, 65, 0
29, 184575, Note_on_c, 13, 65, 56
29, 184767, Note_on_c, 13, 65, 0
29, 184804, Note_on_c, 13, 65, 44
29, 184996, Note_on_c, 13, 65, 0
29, 185065, Note_on_c, 13, 65, 42
29, 185257, Note_on_c, 13, 65, 0
29, 185302, Note_on_c, 13, 65, 53
29, 185494, Note_on_c, 13, 65, 0
29, 185527, Note_on_c, 13, 65, 51
29, 185719, Note_on_c, 13, 65, 0
29, 185769, Note_on_c, 13, 65, 55
29, 185961, Note_on_c, 13, 65, 0
29, 186024, Note_on_c, 13, 65, 52
29, 186216, Note_on_c, 13, 65, 0
29, 186257, Note_on_c, 13, 65, 47
29, 186449, Note_on_c, 13, 65, 0
29, 186480, Note_on_c, 13, 65, 49
29, 186672, Note_on_c, 13, 65, 0
29, 186743, Note_on_c, 13, 65, 43
29, 186935, Note_on_c, 13, 65, 0
29, 186971, Note_on_c, 13, 65, 47
29, 187163, Note_on_c, 13, 65, 0
29, 187212, Note_on_c, 13, 65, 53
29, 187404, Note_on_c, 13, 65, 0
29, 187449, Note_on_c, 13, 65, 55
29, 187641, Note_on_c, 13, 65, 0
29, 187693, Note_on_c, 13, 65, 40
29, 187885, Note_on_c, 13, 65, 0
29, 187938, Note_on_c, 13, 65, 55
29, 188130, Note_on_c, 13, 65, 0
29, 188167, Note_on_c, 13, 65, 56
29, 188359, Note_on_c, 13, 65, 0
29, 188417, Note_on_c, 13, 65, 57
29, 188609, Note_on_c, 13, 65, 0
29, 188651, Note_on_c, 13, 65, 43
29, 188843, Note_on_c, 13, 65, 0
29, 188895, Note_on_c, 13, 65, 53
29, 189087, Note_on_c, 13, 65, 0
29, 189141, Note_on_c, 13, 65, 59
29, 189333, Note_on_c, 13, 65, 0
29, 189368, Note_on_c, 13, 65, 41
29, 189560, Note_on_c, 13, 65, 0
29, 189618, Note_on_c, 13, 65, 46
29, 189810, Note_on_c, 13, 65, 0
29, 189862, Note_on_c, 13, 65, 43
29, 190054, Note_on_c, 13, 65, 0
29, 190081, Note_on_c, 13, 65, 39
29, 190273, Note_on_c, 13, 65, 0
29, 190331, Note_on_c, 13, 65, 48
29, 190523, Note_on_c, 13, 65, 0
29, 190570, Note_on_c, 13, 65, 57
29, 190762, Note_on_c, 13, 65, 0
29, 190821, Note_on_c, 13, 65, 59
29, 191013, Note_on_c, 13, 65, 0
29, 191042, Note_on_c, 13, 65, 53
29, 191234, Note_on_c, 13, 65, 0
29, 191305, Note_on_c, 13, 65, 44
29, 191497, Note_on_c, 13, 65, 0
29, 191523, Note_on_c, 13, 65, 54
29, 191715, Note_on_c, 13, 65, 0
29, 191768, Note_on_c, 13, 65, 46
29, 191960, Note_on_c, 13, 65, 0
29, 192012, Note_on_c, 13, 65, 45
29, 192204, Note_on_c, 13, 65, 0
29, 192248, Note_on_c, 13, 65, 46
29, 192440, Note_on_c, 13, 65, 0
29, 192498, Note_on_c, 13, 65, 49
29, 192690, Note_on_c, 13, 65, 0
29, 192740, Note_on_c, 13, 65, 51
29, 192932, Note_on_c, 13, 65, 0
29, 192966, Note_on_c, 13, 65, 43
29, 193158, Note_on_c, 13, 65, 0
29, 193211, Note_on_c, 13, 65, 48
29, 193403, Note_on_c, 13, 65, 0
29, 193454, Note_on_c, 13, 65, 39
29, 193646, Note_on_c, 13, 65, 0
29, 193682, Note_on_c, 13, 65, 55
29, 193874, Note_on_c, 13, 65, 0
29, 193924, Note_on_c, 13, 65, 40
29, 194116, Note_on_c, 13, 65, 0
29, 194172, Note_on_c, 13, 65, 44
29, 194364, Note_on_c, 13, 65, 0
29, 199200, Program_c, 13, 48
29, 200070, Note_on_c, 13, 77, 39
29, 200100, Note_on_c, 13, 77, 0
29, 200100, Note_on_c, 13, 78, 41
29, 200130, Note_on_c, 13, 78, 0
29, 200130, Note_on_c, 13, 80, 55
29, 200160, Note_on_c, 13, 80, 0
29, 200160, Note_on_c, 13, 82, 85
29, 200207, Note_on_c, 13, 82, 0
29, 200280, Note_on_c, 13, 80, 88
29, 200327, Note_on_c, 13, 80, 0
29, 200400, Note_on_c, 13, 78, 84
29, 200447, Note_on_c, 13, 78, 0
29, 200520, Note_on_c, 13, 77, 78
29, 200567, Note_on_c, 13, 77, 0
29, 200640, Note_on_c, 13, 75, 90
29, 200687, Note_on_c, 13, 75, 0
29, 200760, Note_on_c, 13, 73, 93
29, 200807, Note_on_c, 13, 73, 0
29, 200880, Note_on_c, 13, 72, 85
29, 200927, Note_on_c, 13, 72, 0
29, 201000, Note_on_c, 13, 70, 83
29, 201047, Note_on_c, 13, 70, 0
29, 201990, Note_on_c, 13, 73, 78
29, 201990, Note_on_c, 13, 77, 95
29, 202020, Note_on_c, 13, 73, 0
29, 202020, Note_on_c, 13, 77, 0
29, 202020, Note_on_c, 13, 75, 97
29, 202020, Note_on_c, 13, 78, 94
29, 202050, Note_on_c, 13, 75, 0
29, 202050, Note_on_c, 13, 78, 0
29, 202050, Note_on_c, 13, 77, 85
29, 202050, Note_on_c, 13, 80, 87
29, 202080, Note_on_c, 13, 77, 0
29, 202080, Note_on_c, 13, 80, 0
29, 202080, Note_on_c, 13, 78, 85
29, 202080, Note_on_c, 13, 82, 83
29, 202127, Note_on_c, 13, 78, 0
29, 202127, Note_on_c, 13, 82, 0
29, 202200, Note_on_c, 13, 77, 83
29, 202200, Note_on_c, 13, 80, 84
29, 202247, Note_on_c, 13, 77, 0
29, 202247, Note_on_c, 13, 80, 0
29, 202320, Note_on_c, 13, 75, 86
29, 202320, Note_on_c, 13, 78, 95
29, 202367, Note_on_c, 13, 75, 0
29, 202367, Note_on_c, 13, 78, 0
29, 202440, Note_on_c, 13, 73, 84
29, 202440, Note_on_c, 13, 77, 97
29, 202487, Note_on_c, 13, 73, 0
29, 202487, Note_on_c, 13, 77, 0
29, 202560, Note_on_c, 13, 72, 79
29, 202560, Note_on_c, 13, 75, 90
29, 202607, Note_on_c, 13, 72, 0
29, 202607, Note_on_c, 13, 75, 0
29, 202680, Note_on_c, 13, 70, 97
29, 202680, Note_on_c, 13, 73, 97
29, 202727, Note_on_c, 13, 70, 0
29, 202727, Note_on_c, 13, 73, 0
29, 202800, Note_on_c, 13, 68, 92
29, 202800, Note_on_c, 13, 72, 82
29, 202847, Note_on_c, 13, 68, 0
29, 202847, Note_on_c, 13, 72, 0
29, 202920, Note_on_c, 13, 66, 81
29, 202920, Note_on_c, 13, 70, 81
29, 202967, Note_on_c, 13, 66, 0
29, 202967, Note_on_c, 13, 70, 0
29, 203910, Note_on_c, 13, 73, 82
29, 203910, Note_on_c, 13, 77, 79
29, 203940, Note_on_c, 13, 73, 0
29, 203940, Note_on_c, 13, 77, 0
29, 203940, Note_on_c, 13, 75, 97
29, 203940, Note_on_c, 13, 78, 81
29, 203970, Note_on_c, 13, 75, 0
29, 203970, Note_on_c, 13, 78, 0
29, 203970, Note_on_c, 13, 77, 98
29, 203970, Note_on_c, 13, 80, 89
29, 204000, Note_on_c, 13, 77, 0
29, 204000, Note_on_c, 13, 80, 0
29, 204000, Note_on_c, 13, 78, 89
29, 204000, Note_on_c, 13, 82, 86
29, 204047, Note_on_c, 13, 78, 0
29, 204047, Note_on_c, 13, 82, 0
29, 204120, Note_on_c, 13, 77, 81
29, 204120, Note_on_c, 13, 80, 79
29, 204167, Note_on_c, 13, 77, 0
29, 204167, Note_on_c, 13, 80, 0
29, 204240, Note_on_c, 13, 75, 90
29, 204240, Note_on_c, 13, 78, 97
29, 204287, Note_on_c, 13, 75, 0
29, 204287, Note_on_c, 13, 78, 0
29, 204360, Note_on_c, 13, 73, 81
29, 204360, Note_on_c, 13, 77, 80
29, 204407, Note_on_c, 13, 73, 0
29, 204407, Note_on_c, 13, 77, 0
29, 204480, Note_on_c, 13, 72, 98
29, 204480, Note_on_c, 13, 75, 78
29, 204527, Note_on_c, 13, 72, 0
29, 204527, Note_on_c, 13, 75, 0
29, 204600, Note_on_c, 13, 70, 89
29, 204600, Note_on_c, 13, 73, 92
29, 204647, Note_on_c, 13, 70, 0
29, 204647, Note_on_c, 13, 73, 0
29, 204720, Note_on_c, 13, 68, 94
29, 204720, Note_on_c, 13, 72, 80
29, 204767, Note_on_c, 13, 68, 0
29, 204767, Note_on_c, 13, 72, 0
29, 204840, Note_on_c, 13, 66, 79
29, 204840, Note_on_c, 13, 70, 83
29, 204870, Note_on_c, 13, 73, 83
29, 204870, Note_on_c, 13, 77, 91
29, 204887, Note_on_c, 13, 66, 0
29, 204887, Note_on_c, 13, 70, 0
29, 204900, Note_on_c, 13, 73, 0
29, 204900, Note_on_c, 13, 77, 0
29, 204900, Note_on_c, 13, 75, 89
29, 204900, Note_on_c, 13, 78, 87
29, 204930, Note_on_c, 13, 75, 0
29, 204930, Note_on_c, 13, 78, 0
29, 204930, Note_on_c, 13, 77, 82
29, 204930, Note_on_c, 13, 80, 80
29, 204960, Note_on_c, 13, 77, 0
29, 204960, Note_on_c, 13, 80, 0
29, 204960, Note_on_c, 13, 78, 97
29, 204960, Note_on_c, 13, 82, 98
29, 205007, Note_on_c, 13, 78, 0
29, 205007, Note_on_c, 13, 82, 0
29, 205080, Note_on_c, 13, 77, 86
29, 205080, Note_on_c, 13, 80, 94
29, 205127, Note_on_c, 13, 77, 0
29, 205127, Note_on_c, 13, 80, 0
29, 205200, Note_on_c, 13, 75, 80
29, 205200, Note_on_c, 13, 78, 85
29, 205247, Note_on_c, 13, 75, 0
29, 205247, Note_on_c, 13, 78, 0
29, 205320, Note_on_c, 13, 73, 94
29, 205320, Note_on_c, 13, 77, 90
29, 205367, Note_on_c, 13, 73, 0
29, 205367, Note_on_c, 13, 77, 0
29, 205440, Note_on_c, 13, 72, 95
29, 205440, Note_on_c, 13, 75, 79
29, 205487, Note_on_c, 13, 72, 0
29, 205487, Note_on_c, 13, 75, 0
29, 205560, Note_on_c, 13, 70, 91
29, 205560, Note_on_c, 13, 73, 83
29, 205607, Note_on_c, 13, 70, 0
29, 205607, Note_on_c, 13, 73, 0
29, 205680, Note_on_c, 13, 68, 83
29, 205680, Note_on_c, 13, 72, 93
29, 205727, Note_on_c, 13, 68, 0
29, 205727, Note_on_c, 13, 72, 0
29, 205800, Note_on_c, 13, 66, 81
29, 205800, Note_on_c, 13, 70, 96
29, 205830, Note_on_c, 13, 73, 97
29, 205830, Note_on_c, 13, 77, 95
29, 205847, Note_on_c, 13, 66, 0
29, 205847, Note_on_c, 13, 70, 0
29, 205860, Note_on_c, 13, 73, 0
29, 205860, Note_on_c, 13, 77, 0
29, 205860, Note_on_c, 13, 75, 82
29, 205860, Note_on_c, 13, 78, 81
29, 205890, Note_on_c, 13, 75, 0
29, 205890, Note_on_c, 13, 78, 0
29, 205890, Note_on_c, 13, 77, 83
29, 205890, Note_on_c, 13, 80, 93
29, 205920, Note_on_c, 13, 77, 0
29, 205920, Note_on_c, 13, 80, 0
29, 205920, Note_on_c, 13, 78, 87
29, 205920, Note_on_c, 13, 82, 86
29, 205967, Note_on_c, 13, 78, 0
29, 205967, Note_on_c, 13, 82, 0
29, 206040, Note_on_c, 13, 77, 86
29, 206040, Note_on_c, 13, 80, 78
29, 206087, Note_on_c, 13, 77, 0
29, 206087, Note_on_c, 13, 80, 0
29, 206160, Note_on_c, 13, 75, 80
29, 206160, Note_on_c, 13, 78, 86
29, 206207, Note_on_c, 13, 75, 0
29, 206207, Note_on_c, 13, 78, 0
29, 206280, Note_on_c, 13, 73, 81
29, 206280, Note_on_c, 13, 77, 93
29, 206327, Note_on_c, 13, 73, 0
29, 206327, Note_on_c, 13, 77, 0
29, 206400, Note_on_c, 13, 72, 97
29, 206400, Note_on_c, 13, 75, 98
29, 206447, Note_on_c, 13, 72, 0
29, 206447, Note_on_c, 13, 75, 0
29, 206520, Note_on_c, 13, 70, 86
29, 206520, Note_on_c, 13, 73, 91
29, 206567, Note_on_c, 13, 70, 0
29, 206567, Note_on_c, 13, 73, 0
29, 206640, Note_on_c, 13, 68, 90
29, 206640, Note_on_c, 13, 72, 95
29, 206687, Note_on_c, 13, 68, 0
29, 206687, Note_on_c, 13, 72, 0
29, 206760, Note_on_c, 13, 66, 90
29, 206760, Note_on_c, 13, 70, 95
29, 206790, Note_on_c, 13, 72, 95
29, 206790, Note_on_c, 13, 75, 98
29, 206807, Note_on_c, 13, 66, 0
29, 206807, Note_on_c, 13, 70, 0
29, 206820, Note_on_c, 13, 72, 0
29, 206820, Note_on_c, 13, 75, 0
29, 206820, Note_on_c, 13, 74, 98
29, 206820, Note_on_c, 13, 77, 82
29, 206850, Note_on_c, 13, 74, 0
29, 206850, Note_on_c, 13, 77, 0
29, 206850, Note_on_c, 13, 75, 79
29, 206850, Note_on_c, 13, 79, 78
29, 206880, Note_on_c, 13, 75, 0
29, 206880, Note_on_c, 13, 79, 0
29, 206880, Note_on_c, 13, 77, 83
29, 206880, Note_on_c, 13, 80, 85
29, 206927, Note_on_c, 13, 77, 0
29, 206927, Note_on_c, 13, 80, 0
29, 207000, Note_on_c, 13, 75, 97
29, 207000, Note_on_c, 13, 78, 79
29, 207047, Note_on_c, 13, 75, 0
29, 207047, Note_on_c, 13, 78, 0
29, 207120, Note_on_c, 13, 73, 96
29, 207120, Note_on_c, 13, 77, 85
29, 207167, Note_on_c, 13, 73, 0
29, 207167, Note_on_c, 13, 77, 0
29, 207240, Note_on_c, 13, 72, 78
29, 207240, Note_on_c, 13, 75, 83
29, 207287, Note_on_c, 13, 72, 0
29, 207287, Note_on_c, 13, 75, 0
29, 207360, Note_on_c, 13, 70, 91
29, 207360, Note_on_c, 13, 73, 96
29, 207407, Note_on_c, 13, 70, 0
29, 207407, Note_on_c, 13, 73, 0
29, 207480, Note_on_c, 13, 68, 97
29, 207480, Note_on_c, 13, 72, 86
29, 207527, Note_on_c, 13, 68, 0
29, 207527, Note_on_c, 13, 72, 0
29, 207600, Note_on_c, 13, 66, 80
29, 207600, Note_on_c, 13, 70, 84
29, 207647, Note_on_c, 13, 66, 0
29, 207647, Note_on_c, 13, 70, 0
29, 207720, Note_on_c, 13, 65, 98
29, 207720, Note_on_c, 13, 68, 92
29, 207750, Note_on_c, 13, 73, 91
29, 207750, Note_on_c, 13, 77, 86
29, 207767, Note_on_c, 13, 65, 0
29, 207767, Note_on_c, 13, 68, 0
29, 207780, Note_on_c, 13, 73, 0
29, 207780, Note_on_c, 13, 77, 0
29, 207780, Note_on_c, 13, 75, 94
29, 207780, Note_on_c, 13, 78, 78
29, 207810, Note_on_c, 13, 75, 0
29, 207810, Note_on_c, 13, 78, 0
29, 207810, Note_on_c, 13, 77, 80
29, 207810, Note_on_c, 13, 80, 97
29, 207840, Note_on_c, 13, 77, 0
29, 207840, Note_on_c, 13, 80, 0
29, 207840, Note_on_c, 13, 78, 90
29, 207840, Note_on_c, 13, 82, 83
29, 207887, Note_on_c, 13, 78, 0
29, 207887, Note_on_c, 13, 82, 0
29, 207960, Note_on_c, 13, 77, 79
29, 207960, Note_on_c, 13, 80, 97
29, 208007, Note_on_c, 13, 77, 0
29, 208007, Note_on_c, 13, 80, 0
29, 208080, Note_on_c, 13, 75, 78
29, 208080, Note_on_c, 13, 78, 93
29, 208127, Note_on_c, 13, 75, 0
29, 208127, Note_on_c, 13, 78, 0
29, 208200, Note_on_c, 13, 73, 97
29, 208200, Note_on_c, 13, 77, 82
29, 208247, Note_on_c, 13, 73, 0
29, 208247, Note_on_c, 13, 77, 0
29, 208320, Note_on_c, 13, 72, 84
29, 208320, Note_on_c, 13, 75, 88
29, 208367, Note_on_c, 13, 72, 0
29, 208367, Note_on_c, 13, 75, 0
29, 208440, Note_on_c, 13, 70, 79
29, 208440, Note_on_c, 13, 73, 93
29, 208487, Note_on_c, 13, 70, 0
29, 208487, Note_on_c, 13, 73, 0
29, 208560, Note_on_c, 13, 68, 86
29, 208560, Note_on_c, 13, 72, 80
29, 208607, Note_on_c, 13, 68, 0
29, 208607, Note_on_c, 13, 72, 0
29, 208680, Note_on_c, 13, 66, 96
29, 208680, Note_on_c, 13, 70, 79
29, 208710, Note_on_c, 13, 72, 79
29, 208710, Note_on_c, 13, 75, 86
29, 208727, Note_on_c, 13, 66, 0
29, 208727, Note_on_c, 13, 70, 0
29, 208740, Note_on_c, 13, 72, 0
29, 208740, Note_on_c, 13, 75, 0
29, 208740, Note_on_c, 13, 74, 88
29, 208740, Note_on_c, 13, 77, 82
29, 208770, Note_on_c, 13, 74, 0
29, 208770, Note_on_c, 13, 77, 0
29, 208770, Note_on_c, 13, 75, 80
29, 208770, Note_on_c, 13, 79, 92
29, 208800, Note_on_c, 13, 75, 0
29, 208800, Note_on_c, 13, 79, 0
29, 208800, Note_on_c, 13, 77, 83
29, 208800, Note_on_c, 13, 80, 91
29, 208847, Note_on_c, 13, 77, 0
29, 208847, Note_on_c, 13, 80, 0
29, 208920, Note_on_c, 13, 75, 94
29, 208920, Note_on_c, 13, 78, 96
29, 208967, Note_on_c, 13, 75, 0
29, 208967, Note_on_c, 13, 78, 0
29, 209040, Note_on_c, 13, 73, 98
29, 209040, Note_on_c, 13, 77, 90
29, 209087, Note_on_c, 13, 73, 0
29, 209087, Note_on_c, 13, 77, 0
29, 209160, Note_on_c, 13, 72, 95
29, 209160, Note_on_c, 13, 75, 83
29, 209207, Note_on_c, 13, 72, 0
29, 209207, Note_on_c, 13, 75, 0
29, 209280, Note_on_c, 13, 70, 96
29, 209280, Note_on_c, 13, 73, 79
29, 209327, Note_on_c, 13, 70, 0
29, 209327, Note_on_c, 13, 73, 0
29, 209400, Note_on_c, 13, 68, 89
29, 209400, Note_on_c, 13, 72, 86
29, 209447, Note_on_c, 13, 68, 0
29, 209447, Note_on_c, 13, 72, 0
29, 209520, Note_on_c, 13, 66, 78
29, 209520, Note_on_c, 13, 70, 92
29, 209567, Note_on_c, 13, 66, 0
29, 209567, Note_on_c, 13, 70, 0
29, 209640, Note_on_c, 13, 65, 79
29, 209640, Note_on_c, 13, 68, 92
29, 209670, Note_on_c, 13, 73, 81
29, 209670, Note_on_c, 13, 77, 96
29, 209687, Note_on_c, 13, 65, 0
29, 209687, Note_on_c, 13, 68, 0
29, 209700, Note_on_c, 13, 73, 0
29, 209700, Note_on_c, 13, 77, 0
29, 209700, Note_on_c, 13, 75, 85
29, 209700, Note_on_c, 13, 78, 84
29, 209730, Note_on_c, 13, 75, 0
29, 209730, Note_on_c, 13, 78, 0
29, 209730, Note_on_c, 13, 77, 89
29, 209730, Note_on_c, 13, 80, 88
29, 209760, Note_on_c, 13, 77, 0
29, 209760, Note_on_c, 13, 80, 0
29, 209760, Note_on_c, 13, 78, 84
29, 209760, Note_on_c, 13, 82, 86
29, 209807, Note_on_c, 13, 78, 0
29, 209807, Note_on_c, 13, 82, 0
29, 209880, Note_on_c, 13, 77, 90
29, 209880, Note_on_c, 13, 80, 85
29, 209927, Note_on_c, 13, 77, 0
29, 209927, Note_on_c, 13, 80, 0
29, 210000, Note_on_c, 13, 75, 90
29, 210000, Note_on_c, 13, 78, 85
29, 210047, Note_on_c, 13, 75, 0
29, 210047, Note_on_c, 13, 78, 0
29, 210120, Note_on_c, 13, 73, 82
29, 210120, Note_on_c, 13, 77, 94
29, 210167, Note_on_c, 13, 73, 0
29, 210167, Note_on_c, 13, 77, 0
29, 210240, Note_on_c, 13, 72, 87
29, 210240, Note_on_c, 13, 75, 89
29, 210287, Note_on_c, 13, 72, 0
29, 210287, Note_on_c, 13, 75, 0
29, 210360, Note_on_c, 13, 70, 80
29, 210360, Note_on_c, 13, 73, 86
29, 210407, Note_on_c, 13, 70, 0
29, 210407, Note_on_c, 13, 73, 0
29, 210480, Note_on_c, 13, 68, 83
29, 210480, Note_on_c, 13, 72, 89
29, 210527, Note_on_c, 13, 68, 0
29, 210527, Note_on_c, 13, 72, 0
29, 210600, Note_on_c, 13, 66, 98
29, 210600, Note_on_c, 13, 70, 82
29, 210630, Note_on_c, 13, 72, 98
29, 210630, Note_on_c, 13, 75, 90
29, 210647, Note_on_c, 13, 66, 0
29, 210647, Note_on_c, 13, 70, 0
29, 210660, Note_on_c, 13, 72, 0
29, 210660, Note_on_c, 13, 75, 0
29, 210660, Note_on_c, 13, 74, 78
29, 210660, Note_on_c, 13, 77, 80
29, 210690, Note_on_c, 13, 74, 0
29, 210690, Note_on_c, 13, 77, 0
29, 210690, Note_on_c, 13, 75, 93
29, 210690, Note_on_c, 13, 79, 92
29, 210720, Note_on_c, 13, 75, 0
29, 210720, Note_on_c, 13, 79, 0
29, 210720, Note_on_c, 13, 77, 82
29, 210720, Note_on_c, 13, 80, 88
29, 210767, Note_on_c, 13, 77, 0
29, 210767, Note_on_c, 13, 80, 0
29, 210840, Note_on_c, 13, 75, 97
29, 210840, Note_on_c, 13, 78, 94
29, 210887, Note_on_c, 13, 75, 0
29, 210887, Note_on_c, 13, 78, 0
29, 210960, Note_on_c, 13, 73, 92
29, 210960, Note_on_c, 13, 77, 94
29, 211007, Note_on_c, 13, 73, 0
29, 211007, Note_on_c, 13, 77, 0
29, 211080, Note_on_c, 13, 72, 95
29, 211080, Note_on_c, 13, 75, 83
29, 211127, Note_on_c, 13, 72, 0
29, 211127, Note_on_c, 13, 75, 0
29, 211200, Note_on_c, 13, 70, 98
29, 211200, Note_on_c, 13, 73, 91
29, 211247, Note_on_c, 13, 70, 0
29, 211247, Note_on_c, 13, 73, 0
29, 211320, Note_on_c, 13, 68, 78
29, 211320, Note_on_c, 13, 72, 79
29, 211367, Note_on_c, 13, 68, 0
29, 211367, Note_on_c, 13, 72, 0
29, 211440, Note_on_c, 13, 66, 98
29, 211440, Note_on_c, 13, 70, 81
29, 211487, Note_on_c, 13, 66, 0
29, 211487, Note_on_c, 13, 70, 0
29, 211560, Note_on_c, 13, 65, 94
29, 211560, Note_on_c, 13, 68, 98
29, 211607, Note_on_c, 13, 65, 0
29, 211607, Note_on_c, 13, 68, 0
29, 211680, Program_c, 13, 41
29, 211685, Note_on_c, 13, 65, 51
29, 211805, Note_on_c, 13, 65, 0
29, 211821, Note_on_c, 13, 66, 52
29, 211929, Note_on_c, 13, 64, 55
29, 211941, Note_on_c, 13, 66, 0
29, 212049, Note_on_c, 13, 64, 0
29, 212063, Note_on_c, 13, 65, 55
29, 212171, Note_on_c, 13, 63, 43
29, 212183, Note_on_c, 13, 65, 0
29, 212291, Note_on_c, 13, 63, 0
29, 212302, Note_on_c, 13, 64, 45
29, 212418, Note_on_c, 13, 62, 45
29, 212422, Note_on_c, 13, 64, 0
29, 212526, Note_on_c, 13, 63, 40
29, 212538, Note_on_c, 13, 62, 0
29, 212646, Note_on_c, 13, 63, 0
29, 212653, Note_on_c, 13, 64, 54
29, 212770, Note_on_c, 13, 65, 46
29, 212773, Note_on_c, 13, 64, 0
29, 212884, Note_on_c, 13, 63, 58
29, 212890, Note_on_c, 13, 65, 0
29, 213004, Note_on_c, 13, 63, 0
29, 213018, Note_on_c, 13, 64, 54
29, 213138, Note_on_c, 13, 64, 0
29, 213144, Note_on_c, 13, 62, 58
29, 213243, Note_on_c, 13, 63, 50
29, 213264, Note_on_c, 13, 62, 0
29, 213363, Note_on_c, 13, 63, 0
29, 213365, Note_on_c, 13, 61, 57
29, 213485, Note_on_c, 13, 61, 0
29, 213505, Note_on_c, 13, 62, 51
29, 213611, Note_on_c, 13, 63, 40
29, 213625, Note_on_c, 13, 62, 0
29, 213731, Note_on_c, 13, 63, 0
29, 213735, Note_on_c, 13, 64, 53
29, 213855, Note_on_c, 13, 64, 0
29, 213864, Note_on_c, 13, 62, 54
29, 213976, Note_on_c, 13, 63, 58
29, 213984, Note_on_c, 13, 62, 0
29, 214081, Note_on_c, 13, 61, 48
29, 214096, Note_on_c, 13, 63, 0
29, 214201, Note_on_c, 13, 61, 0
29, 214216, Note_on_c, 13, 62, 40
29, 214333, Note_on_c, 13, 60, 46
29, 214336, Note_on_c, 13, 62, 0
29, 214453, Note_on_c, 13, 60, 0
29, 214462, Note_on_c, 13, 62, 46
29, 214572, Note_on_c, 13, 67, 58
29, 214582, Note_on_c, 13, 62, 0
29, 214685, Note_on_c, 13, 68, 37
29, 214692, Note_on_c, 13, 67, 0
29, 214805, Note_on_c, 13, 68, 0
29, 214805, Note_on_c, 13, 66, 34
29, 214925, Note_on_c, 13, 66, 0
29, 214940, Note_on_c, 13, 67, 27
29, 215059, Note_on_c, 13, 65, 31
29, 215060, Note_on_c, 13, 67, 0
29, 215179, Note_on_c, 13, 65, 0
29, 215185, Note_on_c, 13, 66, 36
29, 215292, Note_on_c, 13, 64, 15
29, 215305, Note_on_c, 13, 66, 0
29, 215412, Note_on_c, 13, 64, 0
29, 215420, Note_on_c, 13, 65, 13
29, 215532, Note_on_c, 13, 63, 49
29, 215540, Note_on_c, 13, 65, 0
29, 215648, Note_on_c, 13, 64, 47
29, 215652, Note_on_c, 13, 63, 0
29, 215768, Note_on_c, 13, 64, 0
29, 215781, Note_on_c, 13, 62, 54
29, 215888, Note_on_c, 13, 63, 40
29, 215901, Note_on_c, 13, 62, 0
29, 216008, Note_on_c, 13, 63, 0
29, 216018, Note_on_c, 13, 61, 55
29, 216138, Note_on_c, 13, 61, 0
29, 216145, Note_on_c, 13, 62, 42
29, 216241, Note_on_c, 13, 60, 42
29, 216265, Note_on_c, 13, 62, 0
29, 216361, Note_on_c, 13, 60, 0
29, 216373, Note_on_c, 13, 62, 42
29, 216491, Note_on_c, 13, 69, 44
29, 216493, Note_on_c, 13, 62, 0
29, 216611, Note_on_c, 13, 69, 0
29, 216617, Note_on_c, 13, 70, 45
29, 216737, Note_on_c, 13, 70, 0
29, 216745, Note_on_c, 13, 68, 37
29, 216859, Note_on_c, 13, 69, 39
29, 216865, Note_on_c, 13, 68, 0
29, 216961, Note_on_c, 13, 67, 36
29, 216979, Note_on_c, 13, 69, 0
29, 217081, Note_on_c, 13, 67, 0
29, 217085, Note_on_c, 13, 68, 31
29, 217205, Note_on_c, 13, 68, 0
29, 217217, Note_on_c, 13, 66, 31
29, 217329, Note_on_c, 13, 67, 22
29, 217337, Note_on_c, 13, 66, 0
29, 217449, Note_on_c, 13, 67, 0
29, 217457, Note_on_c, 13, 67, 48
29, 217577, Note_on_c, 13, 67, 0
29, 217581, Note_on_c, 13, 68, 54
29, 217689, Note_on_c, 13, 66, 35
29, 217701, Note_on_c, 13, 68, 0
29, 217809, Note_on_c, 13, 66, 0
29, 217825, Note_on_c, 13, 67, 31
29, 217930, Note_on_c, 13, 65, 33
29, 217945, Note_on_c, 13, 67, 0
29, 218043, Note_on_c, 13, 66, 30
29, 218050, Note_on_c, 13, 65, 0
29, 218163, Note_on_c, 13, 66, 0
29, 218180, Note_on_c, 13, 64, 16
29, 218287, Note_on_c, 13, 65, 16
29, 218300, Note_on_c, 13, 64, 0
29, 218406, Note_on_c, 13, 65, 47
29, 218407, Note_on_c, 13, 65, 0
29, 218526, Note_on_c, 13, 65, 0
29, 218540, Note_on_c, 13, 66, 40
29, 218650, Note_on_c, 13, 64, 50
29, 218660, Note_on_c, 13, 66, 0
29, 218770, Note_on_c, 13, 64, 0
29, 218784, Note_on_c, 13, 65, 35
29, 218898, Note_on_c, 13, 63, 32
29, 218904, Note_on_c, 13, 65, 0
29, 219018, Note_on_c, 13, 63, 0
29, 219022, Note_on_c, 13, 64, 39
29, 219123, Note_on_c, 13, 62, 16
29, 219142, Note_on_c, 13, 64, 0
29, 219243, Note_on_c, 13, 62, 0
29, 219252, Note_on_c, 13, 63, 21
29, 219360, Program_c, 13, 45
29, 219363, Note_on_c, 13, 62, 92
29, 219372, Note_on_c, 13, 63, 0
29, 219483, Note_on_c, 13, 62, 0
29, 219494, Note_on_c, 13, 62, 87
29, 219614, Note_on_c, 13, 62, 0
29, 219619, Note_on_c, 13, 62, 81
29, 219739, Note_on_c, 13, 62, 0
29, 219745, Note_on_c, 13, 62, 88
29, 219858, Note_on_c, 13, 62, 80
29, 219865, Note_on_c, 13, 62, 0
29, 219977, Note_on_c, 13, 62, 98
29, 219978, Note_on_c, 13, 62, 0
29, 220097, Note_on_c, 13, 62, 0
29, 220105, Note_on_c, 13, 62, 83
29, 220219, Note_on_c, 13, 62, 85
29, 220225, Note_on_c, 13, 62, 0
29, 220339, Note_on_c, 13, 62, 0
29, 220340, Note_on_c, 13, 62, 94
29, 220460, Note_on_c, 13, 62, 0
29, 220464, Note_on_c, 13, 62, 79
29, 220579, Note_on_c, 13, 62, 80
29, 220584, Note_on_c, 13, 62, 0
29, 220694, Note_on_c, 13, 62, 87
29, 220699, Note_on_c, 13, 62, 0
29, 220801, Note_on_c, 13, 62, 91
29, 220814, Note_on_c, 13, 62, 0
29, 220921, Note_on_c, 13, 62, 0
29, 220921, Note_on_c, 13, 62, 78
29, 221041, Note_on_c, 13, 62, 0
29, 221053, Note_on_c, 13, 62, 84
29, 221173, Note_on_c, 13, 62, 0
29, 221175, Note_on_c, 13, 62, 81
29, 221295, Note_on_c, 13, 62, 0
29, 221301, Note_on_c, 13, 62, 96
29, 221408, Note_on_c, 13, 62, 88
29, 221421, Note_on_c, 13, 62, 0
29, 221523, Note_on_c, 13, 62, 97
29, 221528, Note_on_c, 13, 62, 0
29, 221643, Note_on_c, 13, 62, 0
29, 221664, Note_on_c, 13, 62, 90
29, 221782, Note_on_c, 13, 62, 93
29, 221784, Note_on_c, 13, 62, 0
29, 221887, Note_on_c, 13, 62, 81
29, 221902, Note_on_c, 13, 62, 0
29, 222001, Note_on_c, 13, 62, 86
29, 222007, Note_on_c, 13, 62, 0
29, 222121, Note_on_c, 13, 62, 0
29, 222133, Note_on_c, 13, 62, 95
29, 222253, Note_on_c, 13, 62, 0
29, 222259, Note_on_c, 13, 62, 89
29, 222379, Note_on_c, 13, 62, 0
29, 222379, Note_on_c, 13, 62, 82
29, 222499, Note_on_c, 13, 62, 0
29, 222501, Note_on_c, 13, 62, 93
29, 222604, Note_on_c, 13, 62, 88
29, 222621, Note_on_c, 13, 62, 0
29, 222724, Note_on_c, 13, 62, 0
29, 222725, Note_on_c, 13, 62, 88
29, 222845, Note_on_c, 13, 62, 0
29, 222859, Note_on_c, 13, 62, 82
29, 222961, Note_on_c, 13, 62, 93
29, 222979, Note_on_c, 13, 62, 0
29, 223081, Note_on_c, 13, 62, 0
29, 223093, Note_on_c, 13, 62, 93
29, 223213, Note_on_c, 13, 62, 0
29, 223219, Note_on_c, 13, 62, 98
29, 223339, Note_on_c, 13, 62, 0
29, 223344, Note_on_c, 13, 62, 90
29, 223459, Note_on_c, 13, 62, 93
29, 223464, Note_on_c, 13, 62, 0
29, 223563, Note_on_c, 13, 62, 80
29, 223579, Note_on_c, 13, 62, 0
29, 223683, Note_on_c, 13, 62, 0
29, 223702, Note_on_c, 13, 62, 87
29, 223803, Note_on_c, 13, 62, 98
29, 223822, Note_on_c, 13, 62, 0
29, 223923, Note_on_c, 13, 62, 0
29, 223930, Note_on_c, 13, 62, 78
29, 224050, Note_on_c, 13, 62, 0
29, 224058, Note_on_c, 13, 62, 80
29, 224178, Note_on_c, 13, 62, 0
29, 224183, Note_on_c, 13, 62, 79
29, 224296, Note_on_c, 13, 62, 79
29, 224303, Note_on_c, 13, 62, 0
29, 224402, Note_on_c, 13, 62, 81
29, 224416, Note_on_c, 13, 62, 0
29, 224522, Note_on_c, 13, 62, 0
29, 224532, Note_on_c, 13, 62, 82
29, 224642, Note_on_c, 13, 62, 93
29, 224652, Note_on_c, 13, 62, 0
29, 224762, Note_on_c, 13, 62, 0
29, 224771, Note_on_c, 13, 62, 80
29, 224891, Note_on_c, 13, 62, 0
29, 224897, Note_on_c, 13, 62, 81
29, 225017, Note_on_c, 13, 62, 0
29, 225025, Note_on_c, 13, 62, 94
29, 225120, Note_on_c, 13, 62, 87
29, 225145, Note_on_c, 13, 62, 0
29, 225240, Note_on_c, 13, 62, 0
29, 225262, Note_on_c, 13, 62, 91
29, 225362, Note_on_c, 13, 62, 97
29, 225382, Note_on_c, 13, 62, 0
29, 225482, Note_on_c, 13, 62, 0
29, 225485, Note_on_c, 13, 62, 89
29, 225605, Note_on_c, 13, 62, 0
29, 225616, Note_on_c, 13, 62, 86
29, 225736, Note_on_c, 13, 62, 0
29, 225738, Note_on_c, 13, 62, 95
29, 225858, Note_on_c, 13, 62, 0
29, 225858, Note_on_c, 13, 62, 79
29, 225978, Note_on_c, 13, 62, 0
29, 225982, Note_on_c, 13, 62, 93
29, 226086, Note_on_c, 13, 62, 87
29, 226102, Note_on_c, 13, 62, 0
29, 226206, Note_on_c, 13, 62, 0
29, 226211, Note_on_c, 13, 62, 83
29, 226331, Note_on_c, 13, 62, 0
29, 226339, Note_on_c, 13, 62, 80
29, 226459, Note_on_c, 13, 62, 0
29, 226460, Note_on_c, 13, 62, 84
29, 226577, Note_on_c, 13, 62, 95
29, 226580, Note_on_c, 13, 62, 0
29, 226692, Note_on_c, 13, 62, 98
29, 226697, Note_on_c, 13, 62, 0
29, 226802, Note_on_c, 13, 62, 92
29, 226812, Note_on_c, 13, 62, 0
29, 226922, Note_on_c, 13, 62, 0
29, 226930, Note_on_c, 13, 62, 95
29, 227050, Note_on_c, 13, 62, 0
29, 228120, Program_c, 13, 48
29, 228121, Note_on_c, 13, 60, 78
29, 228241, Note_on_c, 13, 60, 0
29, 228256, Note_on_c, 13, 62, 77
29, 228376, Note_on_c, 13, 62, 0
29, 228384, Note_on_c, 13, 63, 84
29, 228501, Note_on_c, 13, 65, 68
29, 228504, Note_on_c, 13, 63, 0
29, 228604, Note_on_c, 13, 67, 81
29, 228621, Note_on_c, 13, 65, 0
29, 228724, Note_on_c, 13, 67, 0
29, 228731, Note_on_c, 13, 69, 78
29, 228840, Note_on_c, 13, 71, 75
29, 228851, Note_on_c, 13, 69, 0
29, 228960, Note_on_c, 13, 71, 0
29, 228967, Note_on_c, 13, 72, 76
29, 229082, Note_on_c, 13, 60, 73
29, 229087, Note_on_c, 13, 72, 0
29, 229202, Note_on_c, 13, 60, 0
29, 229224, Note_on_c, 13, 62, 75
29, 229320, Note_on_c, 13, 63, 73
29, 229344, Note_on_c, 13, 62, 0
29, 229440, Note_on_c, 13, 63, 0
29, 229458, Note_on_c, 13, 65, 91
29, 229578, Note_on_c, 13, 65, 0
29, 229585, Note_on_c, 13, 67, 82
29, 229683, Note_on_c, 13, 69, 77
29, 229705, Note_on_c, 13, 67, 0
29, 229803, Note_on_c, 13, 69, 0
29, 229825, Note_on_c, 13, 71, 80
29, 229925, Note_on_c, 13, 72, 79
29, 229945, Note_on_c, 13, 71, 0
29, 230045, Note_on_c, 13, 72, 0
29, 230055, Note_on_c, 13, 60, 88
29, 230175, Note_on_c, 13, 60, 0
29, 230180, Note_on_c, 13, 62, 95
29, 230293, Note_on_c, 13, 63, 87
29, 230300, Note_on_c, 13, 62, 0
29, 230407, Note_on_c, 13, 65, 94
29, 230413, Note_on_c, 13, 63, 0
29, 230527, Note_on_c, 13, 65, 0
29, 230535, Note_on_c, 13, 67, 87
29, 230643, Note_on_c, 13, 69, 78
29, 230655, Note_on_c, 13, 67, 0
29, 230763, Note_on_c, 13, 69, 0
29, 230783, Note_on_c, 13, 71, 95
29, 230880, Note_on_c, 13, 72, 96
29, 230903, Note_on_c, 13, 71, 0
29, 230915, Note_on_c, 13, 72, 0
29, 231000, Note_on_c, 13, 71, 93
29, 231035, Note_on_c, 13, 71, 0
29, 231120, Note_on_c, 13, 72, 96
29, 231155, Note_on_c, 13, 72, 0
29, 231240, Note_on_c, 13, 71, 81
29, 231275, Note_on_c, 13, 71, 0
29, 231360, Note_on_c, 13, 72, 96
29, 231395, Note_on_c, 13, 72, 0
29, 231480, Note_on_c, 13, 71, 96
29, 231515, Note_on_c, 13, 71, 0
29, 231600, Note_on_c, 13, 72, 96
29, 231635, Note_on_c, 13, 72, 0
29, 231720, Note_on_c, 13, 71, 91
29, 231755, Note_on_c, 13, 71, 0
29, 231840, Note_on_c, 13, 72, 84
29, 231875, Note_on_c, 13, 72, 0
29, 231960, Note_on_c, 13, 71, 92
29, 231995, Note_on_c, 13, 71, 0
29, 232080, Note_on_c, 13, 72, 79
29, 232115, Note_on_c, 13, 72, 0
29, 232200, Note_on_c, 13, 71, 81
29, 232235, Note_on_c, 13, 71, 0
29, 232320, Note_on_c, 13, 72, 86
29, 232355, Note_on_c, 13, 72, 0
29, 232440, Note_on_c, 13, 71, 87
29, 232475, Note_on_c, 13, 71, 0
29, 232560, Note_on_c, 13, 72, 96
29, 232595, Note_on_c, 13, 72, 0
29, 232680, Note_on_c, 13, 71, 96
29, 232715, Note_on_c, 13, 71, 0
29, 232820, Note_on_c, 13, 69, 106
29, 232940, Note_on_c, 13, 69, 0
29, 232944, Note_on_c, 13, 67, 84
29, 233040, Note_on_c, 13, 65, 82
29, 233064, Note_on_c, 13, 67, 0
29, 233087, Note_on_c, 13, 65, 0
29, 233160, Note_on_c, 13, 63, 96
29, 233207, Note_on_c, 13, 63, 0
29, 233283, Note_on_c, 13, 71, 120
29, 233403, Note_on_c, 13, 71, 0
29, 233405, Note_on_c, 13, 69, 83
29, 233520, Note_on_c, 13, 67, 87
29, 233525, Note_on_c, 13, 69, 0
29, 233567, Note_on_c, 13, 67, 0
29, 233640, Note_on_c, 13, 65, 89
29, 233687, Note_on_c, 13, 65, 0
29, 233760, Note_on_c, 13, 72, 92
29, 233795, Note_on_c, 13, 72, 0
29, 233880, Note_on_c, 13, 71, 89
29, 233915, Note_on_c, 13, 71, 0
29, 234000, Note_on_c, 13, 72, 97
29, 234035, Note_on_c, 13, 72, 0
29, 234120, Note_on_c, 13, 71, 93
29, 234155, Note_on_c, 13, 71, 0
29, 234240, Note_on_c, 13, 72, 81
29, 234275, Note_on_c, 13, 72, 0
29, 234360, Note_on_c, 13, 71, 85
29, 234395, Note_on_c, 13, 71, 0
29, 234480, Note_on_c, 13, 72, 97
29, 234515, Note_on_c, 13, 72, 0
29, 234600, Note_on_c, 13, 71, 82
29, 234635, Note_on_c, 13, 71, 0
29, 234735, Note_on_c, 13, 69, 101
29, 234848, Note_on_c, 13, 67, 84
29, 234855, Note_on_c, 13, 69, 0
29, 234960, Note_on_c, 13, 65, 81
29, 234968, Note_on_c, 13, 67, 0
29, 235007, Note_on_c, 13, 65, 0
29, 235080, Note_on_c, 13, 63, 84
29, 235127, Note_on_c, 13, 63, 0
29, 235225, Note_on_c, 13, 71, 100
29, 235342, Note_on_c, 13, 69, 86
29, 235345, Note_on_c, 13, 71, 0
29, 235440, Note_on_c, 13, 67, 85
29, 235462, Note_on_c, 13, 69, 0
29, 235487, Note_on_c, 13, 67, 0
29, 235560, Note_on_c, 13, 65, 79
29, 235607, Note_on_c, 13, 65, 0
29, 235682, Note_on_c, 13, 69, 105
29, 235802, Note_on_c, 13, 69, 0
29, 235810, Note_on_c, 13, 67, 95
29, 235920, Note_on_c, 13, 65, 86
29, 235930, Note_on_c, 13, 67, 0
29, 235967, Note_on_c, 13, 65, 0
29, 236040, Note_on_c, 13, 63, 91
29, 236087, Note_on_c, 13, 63, 0
29, 236165, Note_on_c, 13, 71, 105
29, 236285, Note_on_c, 13, 71, 0
29, 236297, Note_on_c, 13, 69, 98
29, 236400, Note_on_c, 13, 67, 88
29, 236417, Note_on_c, 13, 69, 0
29, 236447, Note_on_c, 13, 67, 0
29, 236520, Note_on_c, 13, 65, 85
29, 236567, Note_on_c, 13, 65, 0
29, 236656, Note_on_c, 13, 69, 115
29, 236764, Note_on_c, 13, 67, 83
29, 236776, Note_on_c, 13, 69, 0
29, 236880, Note_on_c, 13, 65, 83
29, 236884, Note_on_c, 13, 67, 0
29, 236927, Note_on_c, 13, 65, 0
29, 237000, Note_on_c, 13, 63, 88
29, 237047, Note_on_c, 13, 63, 0
29, 237131, Note_on_c, 13, 71, 111
29, 237251, Note_on_c, 13, 71, 0
29, 237264, Note_on_c, 13, 69, 84
29, 237360, Note_on_c, 13, 67, 80
29, 237384, Note_on_c, 13, 69, 0
29, 237407, Note_on_c, 13, 67, 0
29, 237480, Note_on_c, 13, 65, 89
29, 237527, Note_on_c, 13, 65, 0
29, 237604, Note_on_c, 13, 72, 119
29, 237724, Note_on_c, 13, 72, 0
29, 237740, Note_on_c, 13, 71, 93
29, 237840, Note_on_c, 13, 69, 79
29, 237860, Note_on_c, 13, 71, 0
29, 237887, Note_on_c, 13, 69, 0
29, 237960, Note_on_c, 13, 67, 78
29, 238007, Note_on_c, 13, 67, 0
29, 238092, Note_on_c, 13, 71, 107
29, 238212, Note_on_c, 13, 71, 0
29, 238218, Note_on_c, 13, 69, 82
29, 238320, Note_on_c, 13, 67, 85
29, 238338, Note_on_c, 13, 69, 0
29, 238367, Note_on_c, 13, 67, 0
29, 238440, Note_on_c, 13, 65, 79
29, 238487, Note_on_c, 13, 65, 0
29, 238560, Note_on_c, 13, 72, 127
29, 238680, Note_on_c, 13, 72, 0
29, 238688, Note_on_c, 13, 71, 110
29, 238800, Note_on_c, 13, 69, 97
29, 238808, Note_on_c, 13, 71, 0
29, 238847, Note_on_c, 13, 69, 0
29, 238920, Note_on_c, 13, 67, 104
29, 238967, Note_on_c, 13, 67, 0
29, 239040, Note_on_c, 13, 74, 119
29, 239160, Note_on_c, 13, 74, 0
29, 239182, Note_on_c, 13, 72, 110
29, 239280, Note_on_c, 13, 71, 108
29, 239302, Note_on_c, 13, 72, 0
29, 239327, Note_on_c, 13, 71, 0
29, 239400, Note_on_c, 13, 69, 101
29, 239447, Note_on_c, 13, 69, 0
29, 239529, Note_on_c, 13, 75, 127
29, 239649, Note_on_c, 13, 75, 0
29, 239658, Note_on_c, 13, 74, 94
29, 239760, Note_on_c, 13, 72, 91
29, 239778, Note_on_c, 13, 74, 0
29, 239807, Note_on_c, 13, 72, 0
29, 239880, Note_on_c, 13, 71, 99
29, 239927, Note_on_c, 13, 71, 0
29, 240022, Note_on_c, 13, 74, 124
29, 240124, Note_on_c, 13, 72, 105
29, 240142, Note_on_c, 13, 74, 0
29, 240240, Note_on_c, 13, 71, 92
29, 240244, Note_on_c, 13, 72, 0
29, 240287, Note_on_c, 13, 71, 0
29, 240360, Note_on_c, 13, 69, 91
29, 240407, Note_on_c, 13, 69, 0
29, 240497, Note_on_c, 13, 72, 127
29, 240616, Note_on_c, 13, 71, 109
29, 240617, Note_on_c, 13, 72, 0
29, 240720, Note_on_c, 13, 69, 105
29, 240736, Note_on_c, 13, 71, 0
29, 240767, Note_on_c, 13, 69, 0
29, 240840, Note_on_c, 13, 67, 107
29, 240887, Note_on_c, 13, 67, 0
29, 240964, Note_on_c, 13, 74, 117
29, 241084, Note_on_c, 13, 74, 0
29, 241103, Note_on_c, 13, 72, 102
29, 241200, Note_on_c, 13, 71, 92
29, 241223, Note_on_c, 13, 72, 0
29, 241247, Note_on_c, 13, 71, 0
29, 241320, Note_on_c, 13, 69, 91
29, 241367, Note_on_c, 13, 69, 0
29, 241683, Note_on_c, 13, 79, 96
29, 241694, Note_on_c, 13, 63, 107
29, 241701, Note_on_c, 13, 69, 111
29, 241923, Note_on_c, 13, 79, 0
29, 241934, Note_on_c, 13, 63, 0
29, 241941, Note_on_c, 13, 69, 0
29, 242167, Note_on_c, 13, 63, 111
29, 242171, Note_on_c, 13, 69, 95
29, 242182, Note_on_c, 13, 79, 105
29, 242407, Note_on_c, 13, 63, 0
29, 242411, Note_on_c, 13, 69, 0
29, 242414, Note_on_c, 13, 69, 127
29, 242420, Note_on_c, 13, 72, 121
29, 242422, Note_on_c, 13, 79, 0
29, 242525, Note_on_c, 13, 71, 105
29, 242534, Note_on_c, 13, 69, 0
29, 242536, Note_on_c, 13, 67, 101
29, 242540, Note_on_c, 13, 72, 0
29, 242640, Note_on_c, 13, 65, 97
29, 242640, Note_on_c, 13, 69, 111
29, 242645, Note_on_c, 13, 71, 0
29, 242656, Note_on_c, 13, 67, 0
29, 242687, Note_on_c, 13, 65, 0
29, 242687, Note_on_c, 13, 69, 0
29, 242760, Note_on_c, 13, 63, 95
29, 242760, Note_on_c, 13, 67, 99
29, 242807, Note_on_c, 13, 63, 0
29, 242807, Note_on_c, 13, 67, 0
29, 242885, Note_on_c, 13, 71, 124
29, 242896, Note_on_c, 13, 74, 122
29, 243004, Note_on_c, 13, 72, 111
29, 243005, Note_on_c, 13, 71, 0
29, 243007, Note_on_c, 13, 69, 96
29, 243016, Note_on_c, 13, 74, 0
29, 243120, Note_on_c, 13, 67, 111
29, 243120, Note_on_c, 13, 71, 91
29, 243124, Note_on_c, 13, 72, 0
29, 243127, Note_on_c, 13, 69, 0
29, 243167, Note_on_c, 13, 67, 0
29, 243167, Note_on_c, 13, 71, 0
29, 243240, Note_on_c, 13, 65, 111
29, 243240, Note_on_c, 13, 69, 93
29, 243287, Note_on_c, 13, 65, 0
29, 243287, Note_on_c, 13, 69, 0
29, 243381, Note_on_c, 13, 75, 127
29, 243383, Note_on_c, 13, 72, 116
29, 243489, Note_on_c, 13, 74, 107
29, 243501, Note_on_c, 13, 75, 0
29, 243503, Note_on_c, 13, 72, 0
29, 243505, Note_on_c, 13, 71, 105
29, 243600, Note_on_c, 13, 69, 99
29, 243600, Note_on_c, 13, 72, 111
29, 243609, Note_on_c, 13, 74, 0
29, 243625, Note_on_c, 13, 71, 0
29, 243647, Note_on_c, 13, 69, 0
29, 243647, Note_on_c, 13, 72, 0
29, 243720, Note_on_c, 13, 67, 101
29, 243720, Note_on_c, 13, 71, 98
29, 243767, Note_on_c, 13, 67, 0
29, 243767, Note_on_c, 13, 71, 0
29, 243845, Note_on_c, 13, 74, 124
29, 243850, Note_on_c, 13, 71, 127
29, 243960, Note_on_c, 13, 72, 104
29, 243965, Note_on_c, 13, 74, 0
29, 243965, Note_on_c, 13, 69, 95
29, 243970, Note_on_c, 13, 71, 0
29, 244080, Note_on_c, 13, 72, 0
29, 244080, Note_on_c, 13, 67, 102
29, 244080, Note_on_c, 13, 71, 109
29, 244085, Note_on_c, 13, 69, 0
29, 244127, Note_on_c, 13, 67, 0
29, 244127, Note_on_c, 13, 71, 0
29, 244200, Note_on_c, 13, 65, 104
29, 244200, Note_on_c, 13, 69, 95
29, 244247, Note_on_c, 13, 65, 0
29, 244247, Note_on_c, 13, 69, 0
29, 244327, Note_on_c, 13, 69, 123
29, 244336, Note_on_c, 13, 72, 122
29, 244444, Note_on_c, 13, 67, 101
29, 244447, Note_on_c, 13, 69, 0
29, 244456, Note_on_c, 13, 72, 0
29, 244465, Note_on_c, 13, 71, 107
29, 244560, Note_on_c, 13, 65, 96
29, 244560, Note_on_c, 13, 69, 95
29, 244564, Note_on_c, 13, 67, 0
29, 244585, Note_on_c, 13, 71, 0
29, 244607, Note_on_c, 13, 65, 0
29, 244607, Note_on_c, 13, 69, 0
29, 244680, Note_on_c, 13, 63, 92
29, 244680, Note_on_c, 13, 67, 98
29, 244727, Note_on_c, 13, 63, 0
29, 244727, Note_on_c, 13, 67, 0
29, 244820, Note_on_c, 13, 71, 127
29, 244820, Note_on_c, 13, 74, 127
29, 244927, Note_on_c, 13, 72, 103
29, 244940, Note_on_c, 13, 71, 0
29, 244940, Note_on_c, 13, 74, 0
29, 244941, Note_on_c, 13, 69, 91
29, 245040, Note_on_c, 13, 67, 105
29, 245040, Note_on_c, 13, 71, 105
29, 245047, Note_on_c, 13, 72, 0
29, 245061, Note_on_c, 13, 69, 0
29, 245087, Note_on_c, 13, 67, 0
29, 245087, Note_on_c, 13, 71, 0
29, 245160, Note_on_c, 13, 65, 109
29, 245160, Note_on_c, 13, 69, 105
29, 245207, Note_on_c, 13, 65, 0
29, 245207, Note_on_c, 13, 69, 0
29, 245524, Note_on_c, 13, 63, 114
29, 245541, Note_on_c, 13, 69, 106
29, 245542, Note_on_c, 13, 79, 109
29, 245764, Note_on_c, 13, 63, 0
29, 245781, Note_on_c, 13, 69, 0
29, 245782, Note_on_c, 13, 79, 0
29, 246012, Note_on_c, 13, 63, 105
29, 246013, Note_on_c, 13, 69, 105
29, 246013, Note_on_c, 13, 79, 109
29, 246241, Note_on_c, 13, 72, 127
29, 246252, Note_on_c, 13, 63, 0
29, 246253, Note_on_c, 13, 69, 0
29, 246253, Note_on_c, 13, 79, 0
29, 246256, Note_on_c, 13, 69, 124
29, 246361, Note_on_c, 13, 72, 0
29, 246365, Note_on_c, 13, 71, 114
29, 246376, Note_on_c, 13, 69, 0
29, 246381, Note_on_c, 13, 67, 101
29, 246480, Note_on_c, 13, 65, 113
29, 246480, Note_on_c, 13, 69, 100
29, 246485, Note_on_c, 13, 71, 0
29, 246501, Note_on_c, 13, 67, 0
29, 246527, Note_on_c, 13, 65, 0
29, 246527, Note_on_c, 13, 69, 0
29, 246600, Note_on_c, 13, 63, 104
29, 246600, Note_on_c, 13, 67, 104
29, 246647, Note_on_c, 13, 63, 0
29, 246647, Note_on_c, 13, 67, 0
29, 246723, Note_on_c, 13, 71, 127
29, 246741, Note_on_c, 13, 74, 127
29, 246843, Note_on_c, 13, 71, 0
29, 246859, Note_on_c, 13, 72, 109
29, 246861, Note_on_c, 13, 74, 0
29, 246862, Note_on_c, 13, 69, 114
29, 246960, Note_on_c, 13, 67, 105
29, 246960, Note_on_c, 13, 71, 103
29, 246979, Note_on_c, 13, 72, 0
29, 246982, Note_on_c, 13, 69, 0
29, 247007, Note_on_c, 13, 67, 0
29, 247007, Note_on_c, 13, 71, 0
29, 247080, Note_on_c, 13, 65, 105
29, 247080, Note_on_c, 13, 69, 105
29, 247127, Note_on_c, 13, 65, 0
29, 247127, Note_on_c, 13, 69, 0
29, 247213, Note_on_c, 13, 69, 117
29, 247217, Note_on_c, 13, 72, 127
29, 247333, Note_on_c, 13, 69, 0
29, 247333, Note_on_c, 13, 67, 98
29, 247336, Note_on_c, 13, 71, 97
29, 247337, Note_on_c, 13, 72, 0
29, 247440, Note_on_c, 13, 65, 112
29, 247440, Note_on_c, 13, 69, 107
29, 247453, Note_on_c, 13, 67, 0
29, 247456, Note_on_c, 13, 71, 0
29, 247487, Note_on_c, 13, 65, 0
29, 247487, Note_on_c, 13, 69, 0
29, 247560, Note_on_c, 13, 63, 101
29, 247560, Note_on_c, 13, 67, 103
29, 247607, Note_on_c, 13, 63, 0
29, 247607, Note_on_c, 13, 67, 0
29, 247698, Note_on_c, 13, 71, 127
29, 247698, Note_on_c, 13, 74, 127
29, 247816, Note_on_c, 13, 72, 112
29, 247818, Note_on_c, 13, 71, 0
29, 247818, Note_on_c, 13, 74, 0
29, 247825, Note_on_c, 13, 69, 100
29, 247920, Note_on_c, 13, 67, 100
29, 247920, Note_on_c, 13, 71, 98
29, 247936, Note_on_c, 13, 72, 0
29, 247945, Note_on_c, 13, 69, 0
29, 247967, Note_on_c, 13, 67, 0
29, 247967, Note_on_c, 13, 71, 0
29, 248040, Note_on_c, 13, 65, 106
29, 248040, Note_on_c, 13, 69, 109
29, 248087, Note_on_c, 13, 65, 0
29, 248087, Note_on_c, 13, 69, 0
29, 248161, Note_on_c, 13, 72, 127
29, 248167, Note_on_c, 13, 69, 127
29, 248280, Note_on_c, 13, 67, 111
29, 248281, Note_on_c, 13, 72, 0
29, 248287, Note_on_c, 13, 69, 0
29, 248296, Note_on_c, 13, 71, 107
29, 248400, Note_on_c, 13, 67, 0
29, 248400, Note_on_c, 13, 65, 98
29, 248400, Note_on_c, 13, 69, 114
29, 248416, Note_on_c, 13, 71, 0
29, 248447, Note_on_c, 13, 65, 0
29, 248447, Note_on_c, 13, 69, 0
29, 248520, Note_on_c, 13, 63, 98
29, 248520, Note_on_c, 13, 67, 104
29, 248567, Note_on_c, 13, 63, 0
29, 248567, Note_on_c, 13, 67, 0
29, 248648, Note_on_c, 13, 71, 121
29, 248654, Note_on_c, 13, 74, 126
29, 248763, Note_on_c, 13, 69, 96
29, 248768, Note_on_c, 13, 71, 0
29, 248774, Note_on_c, 13, 74, 0
29, 248779, Note_on_c, 13, 72, 98
29, 248880, Note_on_c, 13, 67, 112
29, 248880, Note_on_c, 13, 71, 104
29, 248883, Note_on_c, 13, 69, 0
29, 248899, Note_on_c, 13, 72, 0
29, 248927, Note_on_c, 13, 67, 0
29, 248927, Note_on_c, 13, 71, 0
29, 249000, Note_on_c, 13, 65, 102
29, 249000, Note_on_c, 13, 69, 114
29, 249047, Note_on_c, 13, 65, 0
29, 249047, Note_on_c, 13, 69, 0
29, 249368, Note_on_c, 13, 63, 106
29, 249369, Note_on_c, 13, 79, 99
29, 249385, Note_on_c, 13, 69, 102
29, 249608, Note_on_c, 13, 63, 0
29, 249609, Note_on_c, 13, 79, 0
29, 249625, Note_on_c, 13, 69, 0
29, 249849, Note_on_c, 13, 63, 107
29, 249850, Note_on_c, 13, 79, 112
29, 249860, Note_on_c, 13, 69, 102
29, 250080, Program_c, 13, 44
29, 250083, Note_on_c, 13, 70, 86
29, 250089, Note_on_c, 13, 63, 0
29, 250090, Note_on_c, 13, 79, 0
29, 250099, Note_on_c, 13, 73, 95
29, 250100, Note_on_c, 13, 69, 0
29, 251522, Note_on_c, 13, 70, 98
29, 251522, Note_on_c, 13, 73, 83
29, 251523, Note_on_c, 13, 70, 0
29, 251539, Note_on_c, 13, 73, 0
29, 252242, Note_on_c, 13, 70, 0
29, 252242, Note_on_c, 13, 73, 0
29, 252251, Note_on_c, 13, 73, 87
29, 252256, Note_on_c, 13, 70, 80
29, 253691, Note_on_c, 13, 73, 0
29, 253691, Note_on_c, 13, 70, 86
29, 253692, Note_on_c, 13, 73, 98
29, 253696, Note_on_c, 13, 70, 0
29, 254408, Note_on_c, 13, 70, 79
29, 254411, Note_on_c, 13, 70, 0
29, 254412, Note_on_c, 13, 73, 0
29, 254424, Note_on_c, 13, 73, 88
29, 255841, Note_on_c, 13, 73, 95
29, 255842, Note_on_c, 13, 70, 84
29, 255848, Note_on_c, 13, 70, 0
29, 255864, Note_on_c, 13, 73, 0
29, 256561, Note_on_c, 13, 73, 0
29, 256562, Note_on_c, 13, 70, 0
29, 256577, Note_on_c, 13, 73, 97
29, 256585, Note_on_c, 13, 70, 95
29, 258004, Note_on_c, 13, 73, 87
29, 258012, Note_on_c, 13, 70, 87
29, 258017, Note_on_c, 13, 73, 0
29, 258025, Note_on_c, 13, 70, 0
29, 258724, Note_on_c, 13, 73, 0
29, 258725, Note_on_c, 13, 70, 85
29, 258732, Note_on_c, 13, 70, 0
29, 258741, Note_on_c, 13, 73, 79
29, 260165, Note_on_c, 13, 70, 0
29, 260171, Note_on_c, 13, 70, 96
29, 260181, Note_on_c, 13, 73, 0
29, 260181, Note_on_c, 13, 73, 81
29, 260880, Note_on_c, 13, 69, 78
29, 260886, Note_on_c, 13, 71, 84
29, 260891, Note_on_c, 13, 70, 0
29, 260901, Note_on_c, 13, 73, 0
29, 261120, Note_on_c, 13, 69, 0
29, 261126, Note_on_c, 13, 71, 0
29, 261134, Note_on_c, 13, 69, 79
29, 261367, Note_on_c, 13, 66, 96
29, 261374, Note_on_c, 13, 69, 0
29, 261607, Note_on_c, 13, 66, 0
29, 261613, Note_on_c, 13, 63, 94
29, 261853, Note_on_c, 13, 63, 0
29, 261859, Note_on_c, 13, 60, 91
29, 262096, Note_on_c, 13, 56, 89
29, 262099, Note_on_c, 13, 60, 0
29, 262336, Note_on_c, 13, 56, 0
29, 262342, Note_on_c, 13, 71, 87
29, 262570, Note_on_c, 13, 69, 90
29, 262582, Note_on_c, 13, 71, 0
29, 262804, Note_on_c, 13, 66, 78
29, 262810, Note_on_c, 13, 69, 0
29, 263044, Note_on_c, 13, 66, 0
29, 263050, Note_on_c, 13, 63, 79
29, 263285, Note_on_c, 13, 60, 95
29, 263290, Note_on_c, 13, 63, 0
29, 263522, Note_on_c, 13, 56, 79
29, 263525, Note_on_c, 13, 60, 0
29, 263761, Note_on_c, 13, 71, 80
29, 263762, Note_on_c, 13, 56, 0
29, 264001, Note_on_c, 13, 71, 0
29, 264020, Note_on_c, 13, 69, 88
29, 264252, Note_on_c, 13, 66, 85
29, 264260, Note_on_c, 13, 69, 0
29, 264492, Note_on_c, 13, 66, 0
29, 264496, Note_on_c, 13, 63, 86
29, 264725, Note_on_c, 13, 60, 93
29, 264736, Note_on_c, 13, 63, 0
29, 264964, Note_on_c, 13, 56, 86
29, 264965, Note_on_c, 13, 60, 0
29, 265204, Note_on_c, 13, 56, 0
29, 265212, Note_on_c, 13, 71, 85
29, 265451, Note_on_c, 13, 69, 87
29, 265452, Note_on_c, 13, 71, 0
29, 265691, Note_on_c, 13, 69, 0
29, 265699, Note_on_c, 13, 70, 86
29, 265931, Note_on_c, 13, 63, 81
29, 265939, Note_on_c, 13, 70, 0
29, 266162, Note_on_c, 13, 60, 98
29, 266171, Note_on_c, 13, 63, 0
29, 266402, Note_on_c, 13, 60, 0
29, 266420, Note_on_c, 13, 56, 95
29, 266660, Note_on_c, 13, 56, 0
29, 267131, Note_on_c, 13, 63, 87
29, 267360, Program_c, 13, 48
29, 267370, Note_on_c, 13, 64, 96
29, 267371, Note_on_c, 13, 63, 0
29, 267610, Note_on_c, 13, 64, 0
29, 269530, Note_on_c, 13, 73, 80
29, 269615, Note_on_c, 13, 74, 91
29, 269642, Note_on_c, 13, 73, 0
29, 269673, Note_on_c, 13, 73, 79
29, 269727, Note_on_c, 13, 74, 0
29, 269750, Note_on_c, 13, 74, 94
29, 269785, Note_on_c, 13, 73, 0
29, 269841, Note_on_c, 13, 73, 97
29, 269862, Note_on_c, 13, 74, 0
29, 269906, Note_on_c, 13, 74, 90
29, 269953, Note_on_c, 13, 73, 0
29, 269990, Note_on_c, 13, 73, 95
29, 270018, Note_on_c, 13, 74, 0
29, 270060, Note_on_c, 13, 74, 82
29, 270102, Note_on_c, 13, 73, 0
29, 270147, Note_on_c, 13, 73, 96
29, 270172, Note_on_c, 13, 74, 0
29, 270198, Note_on_c, 13, 74, 84
29, 270259, Note_on_c, 13, 73, 0
29, 270288, Note_on_c, 13, 73, 78
29, 270310, Note_on_c, 13, 74, 0
29, 270369, Note_on_c, 13, 74, 90
29, 270400, Note_on_c, 13, 73, 0
29, 270442, Note_on_c, 13, 73, 87
29, 270481, Note_on_c, 13, 74, 0
29, 270516, Note_on_c, 13, 74, 83
29, 270554, Note_on_c, 13, 73, 0
29, 270579, Note_on_c, 13, 73, 81
29, 270628, Note_on_c, 13, 74, 0
29, 270653, Note_on_c, 13, 74, 93
29, 270691, Note_on_c, 13, 73, 0
29, 270733, Note_on_c, 13, 73, 90
29, 270765, Note_on_c, 13, 74, 0
29, 270822, Note_on_c, 13, 74, 95
29, 270845, Note_on_c, 13, 73, 0
29, 270885, Note_on_c, 13, 73, 88
29, 270934, Note_on_c, 13, 74, 0
29, 270960, Note_on_c, 13, 73, 0
29, 270960, Program_c, 13, 44
29, 270982, Note_on_c, 13, 73, 81
29, 271066, Note_on_c, 13, 73, 0
29, 271101, Note_on_c, 13, 73, 82
29, 271185, Note_on_c, 13, 73, 0
29, 271209, Note_on_c, 13, 72, 84
29, 271293, Note_on_c, 13, 72, 0
29, 271342, Note_on_c, 13, 72, 88
29, 271426, Note_on_c, 13, 72, 0
29, 271460, Note_on_c, 13, 71, 91
29, 271544, Note_on_c, 13, 71, 0
29, 271563, Note_on_c, 13, 71, 97
29, 271647, Note_on_c, 13, 71, 0
29, 271697, Note_on_c, 13, 70, 79
29, 271865, Note_on_c, 13, 70, 0
29, 282981, Note_on_c, 13, 70, 85
29, 283144, Note_on_c, 13, 70, 0
29, 283212, Note_on_c, 13, 70, 91
29, 283932, Note_on_c, 13, 70, 0
29, 283942, Note_on_c, 13, 69, 127
29, 284171, Note_on_c, 13, 68, 107
29, 284182, Note_on_c, 13, 69, 0
29, 284400, Note_on_c, 13, 67, 101
29, 284411, Note_on_c, 13, 68, 0
29, 284640, Note_on_c, 13, 67, 0
29, 284656, Note_on_c, 13, 66, 95
29, 284751, Note_on_c, 13, 66, 0
29, 286100, Note_on_c, 13, 56, 102
29, 286216, Note_on_c, 13, 58, 91
29, 286220, Note_on_c, 13, 56, 0
29, 286334, Note_on_c, 13, 60, 92
29, 286336, Note_on_c, 13, 58, 0
29, 286440, Note_on_c, 13, 61, 94
29, 286454, Note_on_c, 13, 60, 0
29, 286560, Note_on_c, 13, 61, 0
29, 286563, Note_on_c, 13, 63, 92
29, 286683, Note_on_c, 13, 63, 0
29, 286687, Note_on_c, 13, 64, 91
29, 286807, Note_on_c, 13, 64, 0
29, 286812, Note_on_c, 13, 63, 107
29, 286924, Note_on_c, 13, 65, 93
29, 286932, Note_on_c, 13, 63, 0
29, 287044, Note_on_c, 13, 65, 0
29, 287048, Note_on_c, 13, 66, 99
29, 287168, Note_on_c, 13, 66, 0
29, 287173, Note_on_c, 13, 68, 110
29, 287293, Note_on_c, 13, 68, 0
29, 287294, Note_on_c, 13, 69, 101
29, 287414, Note_on_c, 13, 69, 0
29, 287418, Note_on_c, 13, 70, 109
29, 287520, Program_c, 13, 44
29, 287532, Note_on_c, 13, 71, 110
29, 287538, Note_on_c, 13, 70, 0
29, 287765, Note_on_c, 13, 69, 96
29, 287772, Note_on_c, 13, 71, 0
29, 288005, Note_on_c, 13, 69, 0
29, 288005, Note_on_c, 13, 66, 104
29, 288245, Note_on_c, 13, 66, 0
29, 288245, Note_on_c, 13, 63, 111
29, 288485, Note_on_c, 13, 63, 0
29, 288502, Note_on_c, 13, 60, 96
29, 288736, Note_on_c, 13, 56, 111
29, 288742, Note_on_c, 13, 60, 0
29, 288965, Note_on_c, 13, 61, 102
29, 288976, Note_on_c, 13, 56, 0
29, 288976, Note_on_c, 13, 54, 91
29, 289205, Note_on_c, 13, 61, 0
29, 289216, Note_on_c, 13, 54, 0
29, 289219, Note_on_c, 13, 62, 95
29, 289448, Note_on_c, 13, 63, 95
29, 289459, Note_on_c, 13, 62, 0
29, 289686, Note_on_c, 13, 67, 103
29, 289688, Note_on_c, 13, 63, 0
29, 289921, Note_on_c, 13, 65, 97
29, 289926, Note_on_c, 13, 67, 0
29, 290161, Note_on_c, 13, 65, 0
29, 290171, Note_on_c, 13, 69, 104
29, 290410, Note_on_c, 13, 67, 105
29, 290411, Note_on_c, 13, 69, 0
29, 290578, Note_on_c, 13, 67, 0
29, 290644, Note_on_c, 13, 67, 110
29, 290812, Note_on_c, 13, 67, 0
29, 290886, Note_on_c, 13, 67, 108
29, 291054, Note_on_c, 13, 67, 0
29, 291141, Note_on_c, 13, 67, 92
29, 291309, Note_on_c, 13, 67, 0
29, 291363, Note_on_c, 13, 67, 92
29, 291531, Note_on_c, 13, 67, 0
29, 291607, Note_on_c, 13, 67, 110
29, 291775, Note_on_c, 13, 67, 0
29, 291857, Note_on_c, 13, 67, 103
29, 292085, Note_on_c, 13, 65, 104
29, 292097, Note_on_c, 13, 67, 0
29, 292325, Note_on_c, 13, 65, 0
29, 292329, Note_on_c, 13, 69, 105
29, 292569, Note_on_c, 13, 69, 0
29, 292570, Note_on_c, 13, 67, 106
29, 292806, Note_on_c, 13, 69, 107
29, 292810, Note_on_c, 13, 67, 0
29, 293046, Note_on_c, 13, 69, 0
29, 293048, Note_on_c, 13, 65, 109
29, 293288, Note_on_c, 13, 65, 0
29, 293296, Note_on_c, 13, 67, 107
29, 293464, Note_on_c, 13, 67, 0
29, 293542, Note_on_c, 13, 67, 105
29, 293710, Note_on_c, 13, 67, 0
29, 293784, Note_on_c, 13, 67, 95
29, 293952, Note_on_c, 13, 67, 0
29, 294013, Note_on_c, 13, 67, 109
29, 294108, Note_on_c, 13, 67, 0
29, 296884, Note_on_c, 13, 76, 79
29, 296968, Note_on_c, 13, 76, 0
29, 297014, Note_on_c, 13, 73, 96
29, 297098, Note_on_c, 13, 73, 0
29, 297129, Note_on_c, 13, 79, 82
29, 297213, Note_on_c, 13, 79, 0
29, 297265, Note_on_c, 13, 76, 89
29, 297349, Note_on_c, 13, 76, 0
29, 297365, Note_on_c, 13, 76, 86
29, 297449, Note_on_c, 13, 76, 0
29, 297488, Note_on_c, 13, 73, 93
29, 297572, Note_on_c, 13, 73, 0
29, 297606, Note_on_c, 13, 73, 96
29, 297690, Note_on_c, 13, 73, 0
29, 297733, Note_on_c, 13, 70, 88
29, 297817, Note_on_c, 13, 70, 0
29, 297853, Note_on_c, 13, 70, 80
29, 297937, Note_on_c, 13, 70, 0
29, 297975, Note_on_c, 13, 67, 92
29, 298059, Note_on_c, 13, 67, 0
29, 298093, Note_on_c, 13, 67, 86
29, 298177, Note_on_c, 13, 67, 0
29, 298211, Note_on_c, 13, 64, 95
29, 298295, Note_on_c, 13, 64, 0
29, 298345, Note_on_c, 13, 76, 94
29, 298429, Note_on_c, 13, 76, 0
29, 298443, Note_on_c, 13, 76, 84
29, 298524, Note_on_c, 13, 76, 0
29, 298585, Note_on_c, 13, 79, 79
29, 298669, Note_on_c, 13, 79, 0
29, 298693, Note_on_c, 13, 79, 85
29, 298774, Note_on_c, 13, 79, 0
29, 298814, Note_on_c, 13, 76, 83
29, 298898, Note_on_c, 13, 76, 0
29, 298928, Note_on_c, 13, 76, 90
29, 299009, Note_on_c, 13, 76, 0
29, 299050, Note_on_c, 13, 73, 97
29, 299218, Note_on_c, 13, 73, 0
29, 299760, Program_c, 13, 45
29, 299784, Note_on_c, 13, 61, 83
29, 300024, Note_on_c, 13, 61, 0
29, 300024, Note_on_c, 13, 66, 97
29, 300242, Note_on_c, 13, 70, 82
29, 300264, Note_on_c, 13, 66, 0
29, 300482, Note_on_c, 13, 70, 0
29, 300484, Note_on_c, 13, 73, 78
29, 300724, Note_on_c, 13, 73, 0
29, 300737, Note_on_c, 13, 78, 85
29, 300964, Note_on_c, 13, 82, 82
29, 300977, Note_on_c, 13, 78, 0
29, 301204, Note_on_c, 13, 82, 0
29, 302640, Program_c, 13, 48
29, 302650, Note_on_c, 13, 66, 81
29, 302890, Note_on_c, 13, 66, 0
29, 304103, Note_on_c, 13, 70, 91
29, 304198, Note_on_c, 13, 70, 0
29, 304572, Note_on_c, 13, 70, 84
29, 304667, Note_on_c, 13, 70, 0
29, 305520, Program_c, 13, 48
29, 305531, Note_on_c, 13, 70, 92
29, 305602, Note_on_c, 13, 70, 0
29, 305761, Note_on_c, 13, 65, 106
29, 305832, Note_on_c, 13, 65, 0
29, 306013, Note_on_c, 13, 70, 109
29, 306084, Note_on_c, 13, 70, 0
29, 306257, Note_on_c, 13, 65, 99
29, 306328, Note_on_c, 13, 65, 0
29, 306496, Note_on_c, 13, 67, 97
29, 306567, Note_on_c, 13, 67, 0
29, 306740, Note_on_c, 13, 62, 107
29, 306811, Note_on_c, 13, 62, 0
29, 306969, Note_on_c, 13, 67, 105
29, 307040, Note_on_c, 13, 67, 0
29, 307215, Note_on_c, 13, 60, 101
29, 307286, Note_on_c, 13, 60, 0
29, 307461, Note_on_c, 13, 64, 95
29, 307532, Note_on_c, 13, 64, 0
29, 307685, Note_on_c, 13, 60, 96
29, 307756, Note_on_c, 13, 60, 0
29, 307924, Note_on_c, 13, 65, 105
29, 307995, Note_on_c, 13, 65, 0
29, 308180, Note_on_c, 13, 63, 110
29, 308251, Note_on_c, 13, 63, 0
29, 308422, Note_on_c, 13, 69, 106
29, 308493, Note_on_c, 13, 69, 0
29, 308643, Note_on_c, 13, 67, 99
29, 308714, Note_on_c, 13, 67, 0
29, 311045, Note_on_c, 13, 69, 100
29, 311116, Note_on_c, 13, 69, 0
29, 311302, Note_on_c, 13, 64, 97
29, 311373, Note_on_c, 13, 64, 0
29, 311544, Note_on_c, 13, 69, 101
29, 311615, Note_on_c, 13, 69, 0
29, 311762, Note_on_c, 13, 64, 103
29, 311833, Note_on_c, 13, 64, 0
29, 312023, Note_on_c, 13, 66, 94
29, 312094, Note_on_c, 13, 66, 0
29, 312255, Note_on_c, 13, 61, 103
29, 312326, Note_on_c, 13, 61, 0
29, 312494, Note_on_c, 13, 63, 100
29, 312725, Note_on_c, 13, 59, 106
29, 312734, Note_on_c, 13, 63, 0
29, 312965, Note_on_c, 13, 59, 0
29, 312973, Note_on_c, 13, 63, 91
29, 313213, Note_on_c, 13, 63, 0
29, 313224, Note_on_c, 13, 61, 95
29, 313441, Note_on_c, 13, 66, 91
29, 313464, Note_on_c, 13, 61, 0
29, 313681, Note_on_c, 13, 66, 0
29, 313684, Note_on_c, 13, 64, 101
29, 313924, Note_on_c, 13, 64, 0
29, 320400, Program_c, 13, 44
29, 320406, Note_on_c, 13, 71, 81
29, 321126, Note_on_c, 13, 71, 0
29, 321129, Note_on_c, 13, 65, 70
29, 321849, Note_on_c, 13, 65, 0
29, 321860, Note_on_c, 13, 66, 89
29, 322577, Note_on_c, 13, 65, 93
29, 322580, Note_on_c, 13, 66, 0
29, 323297, Note_on_c, 13, 65, 0
29, 323302, Note_on_c, 13, 66, 92
29, 324006, Note_on_c, 13, 63, 107
29, 324022, Note_on_c, 13, 66, 0
29, 324723, Note_on_c, 13, 80, 91
29, 324726, Note_on_c, 13, 63, 0
29, 324741, Note_on_c, 13, 73, 104
29, 325443, Note_on_c, 13, 80, 0
29, 325444, Note_on_c, 13, 77, 104
29, 325461, Note_on_c, 13, 73, 0
29, 325463, Note_on_c, 13, 70, 93
29, 326162, Note_on_c, 13, 67, 91
29, 326164, Note_on_c, 13, 77, 0
29, 326182, Note_on_c, 13, 74, 102
29, 326183, Note_on_c, 13, 70, 0
29, 326882, Note_on_c, 13, 67, 0
29, 326882, Note_on_c, 13, 64, 109
29, 326886, Note_on_c, 13, 71, 108
29, 326902, Note_on_c, 13, 74, 0
29, 327602, Note_on_c, 13, 64, 0
29, 327605, Note_on_c, 13, 70, 109
29, 327606, Note_on_c, 13, 71, 0
29, 327615, Note_on_c, 13, 77, 110
29, 328323, Note_on_c, 13, 67, 109
29, 328325, Note_on_c, 13, 70, 0
29, 328331, Note_on_c, 13, 74, 100
29, 328335, Note_on_c, 13, 77, 0
29, 329043, Note_on_c, 13, 67, 0
29, 329051, Note_on_c, 13, 74, 0
29, 329053, Note_on_c, 13, 71, 97
29, 329057, Note_on_c, 13, 64, 91
29, 329773, Note_on_c, 13, 71, 0
29, 329773, Note_on_c, 13, 61, 103
29, 329773, Note_on_c, 13, 68, 93
29, 329777, Note_on_c, 13, 64, 0
29, 330493, Note_on_c, 13, 61, 0
29, 330493, Note_on_c, 13, 68, 0
29, 330498, Note_on_c, 13, 58, 104
29, 330498, Note_on_c, 13, 65, 96
29, 331218, Note_on_c, 13, 58, 0
29, 331218, Note_on_c, 13, 65, 0
29, 338640, Program_c, 13, 48
29, 339842, Note_on_c, 13, 66, 95
29, 339851, Note_on_c, 13, 57, 94
29, 339985, Note_on_c, 13, 66, 0
29, 339994, Note_on_c, 13, 57, 0
29, 340320, Program_c, 13, 44
29, 340327, Control_c, 13, 11, 65
29, 340329, Note_on_c, 13, 60, 90
29, 340338, Control_c, 13, 11, 66
29, 340351, Control_c, 13, 11, 67
29, 340363, Control_c, 13, 11, 68
29, 340375, Control_c, 13, 11, 69
29, 340386, Control_c, 13, 11, 70
29, 340398, Control_c, 13, 11, 71
29, 340410, Control_c, 13, 11, 72
29, 340423, Control_c, 13, 11, 73
29, 340434, Control_c, 13, 11, 74
29, 340446, Control_c, 13, 11, 75
29, 340458, Control_c, 13, 11, 76
29, 340470, Control_c, 13, 11, 77
29, 340482, Control_c, 13, 11, 78
29, 340494, Control_c, 13, 11, 79
29, 340506, Control_c, 13, 11, 80
29, 340518, Control_c, 13, 11, 81
29, 340530, Control_c, 13, 11, 82
29, 340542, Control_c, 13, 11, 83
29, 340554, Control_c, 13, 11, 84
29, 340566, Control_c, 13, 11, 85
29, 340578, Control_c, 13, 11, 86
29, 340590, Control_c, 13, 11, 87
29, 340601, Control_c, 13, 11, 88
29, 340614, Control_c, 13, 11, 89
29, 340625, Control_c, 13, 11, 90
29, 340638, Control_c, 13, 11, 91
29, 340650, Control_c, 13, 11, 92
29, 340661, Control_c, 13, 11, 93
29, 340673, Control_c, 13, 11, 94
29, 340685, Control_c, 13, 11, 95
29, 340697, Control_c, 13, 11, 96
29, 340710, Control_c, 13, 11, 97
29, 340721, Control_c, 13, 11, 98
29, 340733, Control_c, 13, 11, 99
29, 340745, Control_c, 13, 11, 100
29, 340757, Control_c, 13, 11, 101
29, 340769, Control_c, 13, 11, 102
29, 340781, Control_c, 13, 11, 103
29, 340793, Control_c, 13, 11, 104
29, 340805, Control_c, 13, 11, 105
29, 340816, Control_c, 13, 11, 106
29, 340829, Control_c, 13, 11, 107
29, 340841, Control_c, 13, 11, 108
29, 340853, Control_c, 13, 11, 109
29, 340865, Control_c, 13, 11, 110
29, 340876, Control_c, 13, 11, 111
29, 340888, Control_c, 13, 11, 112
29, 340901, Control_c, 13, 11, 113
29, 340912, Control_c, 13, 11, 114
29, 340925, Control_c, 13, 11, 115
29, 340936, Control_c, 13, 11, 116
29, 340948, Control_c, 13, 11, 117
29, 340960, Control_c, 13, 11, 118
29, 340972, Control_c, 13, 11, 119
29, 340984, Control_c, 13, 11, 120
29, 340996, Control_c, 13, 11, 121
29, 341008, Control_c, 13, 11, 122
29, 341020, Control_c, 13, 11, 123
29, 341032, Control_c, 13, 11, 124
29, 341044, Control_c, 13, 11, 125
29, 341070, Control_c, 13, 11, 126
29, 341081, Control_c, 13, 11, 125
29, 341092, Control_c, 13, 11, 124
29, 341103, Control_c, 13, 11, 123
29, 341115, Control_c, 13, 11, 122
29, 341125, Control_c, 13, 11, 121
29, 341136, Control_c, 13, 11, 120
29, 341148, Control_c, 13, 11, 119
29, 341159, Control_c, 13, 11, 118
29, 341170, Control_c, 13, 11, 117
29, 341181, Control_c, 13, 11, 116
29, 341192, Control_c, 13, 11, 115
29, 341203, Control_c, 13, 11, 114
29, 341214, Control_c, 13, 11, 113
29, 341225, Control_c, 13, 11, 112
29, 341236, Control_c, 13, 11, 111
29, 341248, Control_c, 13, 11, 110
29, 341259, Control_c, 13, 11, 109
29, 341270, Control_c, 13, 11, 108
29, 341281, Control_c, 13, 11, 107
29, 341292, Control_c, 13, 11, 106
29, 341303, Control_c, 13, 11, 105
29, 341315, Control_c, 13, 11, 104
29, 341326, Control_c, 13, 11, 103
29, 341336, Control_c, 13, 11, 102
29, 341348, Control_c, 13, 11, 101
29, 341359, Control_c, 13, 11, 100
29, 341370, Control_c, 13, 11, 99
29, 341381, Control_c, 13, 11, 98
29, 341392, Control_c, 13, 11, 97
29, 341403, Control_c, 13, 11, 96
29, 341415, Control_c, 13, 11, 95
29, 341426, Control_c, 13, 11, 94
29, 341437, Control_c, 13, 11, 93
29, 341448, Control_c, 13, 11, 92
29, 341459, Control_c, 13, 11, 91
29, 341470, Control_c, 13, 11, 90
29, 341481, Control_c, 13, 11, 89
29, 341492, Control_c, 13, 11, 88
29, 341503, Control_c, 13, 11, 87
29, 341515, Control_c, 13, 11, 86
29, 341526, Control_c, 13, 11, 85
29, 341536, Control_c, 13, 11, 84
29, 341548, Control_c, 13, 11, 83
29, 341559, Control_c, 13, 11, 82
29, 341570, Control_c, 13, 11, 81
29, 341581, Control_c, 13, 11, 80
29, 341593, Control_c, 13, 11, 79
29, 341604, Control_c, 13, 11, 78
29, 341615, Control_c, 13, 11, 77
29, 341625, Note_on_c, 13, 60, 0
29, 341626, Control_c, 13, 11, 76
29, 341637, Control_c, 13, 11, 75
29, 341648, Control_c, 13, 11, 74
29, 341659, Control_c, 13, 11, 73
29, 341670, Control_c, 13, 11, 72
29, 341681, Control_c, 13, 11, 71
29, 341693, Control_c, 13, 11, 70
29, 341703, Control_c, 13, 11, 69
29, 341715, Control_c, 13, 11, 68
29, 341726, Control_c, 13, 11, 67
29, 341737, Control_c, 13, 11, 66
29, 341748, Control_c, 13, 11, 65
29, 341763, Note_on_c, 13, 60, 97
29, 341767, Control_c, 13, 11, 65
29, 341778, Control_c, 13, 11, 66
29, 341791, Control_c, 13, 11, 67
29, 341803, Control_c, 13, 11, 68
29, 341815, Control_c, 13, 11, 69
29, 341826, Control_c, 13, 11, 70
29, 341838, Control_c, 13, 11, 71
29, 341850, Control_c, 13, 11, 72
29, 341863, Control_c, 13, 11, 73
29, 341874, Control_c, 13, 11, 74
29, 341886, Control_c, 13, 11, 75
29, 341898, Control_c, 13, 11, 76
29, 341910, Control_c, 13, 11, 77
29, 341922, Control_c, 13, 11, 78
29, 341934, Control_c, 13, 11, 79
29, 341946, Control_c, 13, 11, 80
29, 341958, Control_c, 13, 11, 81
29, 341970, Control_c, 13, 11, 82
29, 341982, Control_c, 13, 11, 83
29, 341994, Control_c, 13, 11, 84
29, 342006, Control_c, 13, 11, 85
29, 342018, Control_c, 13, 11, 86
29, 342030, Control_c, 13, 11, 87
29, 342041, Control_c, 13, 11, 88
29, 342054, Control_c, 13, 11, 89
29, 342065, Control_c, 13, 11, 90
29, 342078, Control_c, 13, 11, 91
29, 342090, Control_c, 13, 11, 92
29, 342101, Control_c, 13, 11, 93
29, 342113, Control_c, 13, 11, 94
29, 342125, Control_c, 13, 11, 95
29, 342137, Control_c, 13, 11, 96
29, 342150, Control_c, 13, 11, 97
29, 342161, Control_c, 13, 11, 98
29, 342173, Control_c, 13, 11, 99
29, 342185, Control_c, 13, 11, 100
29, 342195, Note_on_c, 13, 60, 0
29, 342197, Control_c, 13, 11, 101
29, 342209, Control_c, 13, 11, 102
29, 342221, Control_c, 13, 11, 103
29, 342233, Control_c, 13, 11, 104
29, 342245, Control_c, 13, 11, 105
29, 342256, Control_c, 13, 11, 106
29, 342262, Note_on_c, 13, 60, 86
29, 342269, Control_c, 13, 11, 107
29, 342281, Control_c, 13, 11, 108
29, 342293, Control_c, 13, 11, 109
29, 342305, Control_c, 13, 11, 110
29, 342316, Control_c, 13, 11, 111
29, 342328, Control_c, 13, 11, 112
29, 342341, Control_c, 13, 11, 113
29, 342352, Control_c, 13, 11, 114
29, 342365, Control_c, 13, 11, 115
29, 342376, Control_c, 13, 11, 116
29, 342388, Control_c, 13, 11, 117
29, 342400, Control_c, 13, 11, 118
29, 342412, Control_c, 13, 11, 119
29, 342424, Control_c, 13, 11, 120
29, 342436, Control_c, 13, 11, 121
29, 342448, Control_c, 13, 11, 122
29, 342460, Control_c, 13, 11, 123
29, 342472, Control_c, 13, 11, 124
29, 342484, Control_c, 13, 11, 125
29, 342510, Control_c, 13, 11, 126
29, 342521, Control_c, 13, 11, 125
29, 342532, Control_c, 13, 11, 124
29, 342543, Control_c, 13, 11, 123
29, 342555, Control_c, 13, 11, 122
29, 342565, Control_c, 13, 11, 121
29, 342576, Control_c, 13, 11, 120
29, 342588, Control_c, 13, 11, 119
29, 342599, Control_c, 13, 11, 118
29, 342610, Control_c, 13, 11, 117
29, 342621, Control_c, 13, 11, 116
29, 342632, Control_c, 13, 11, 115
29, 342643, Control_c, 13, 11, 114
29, 342654, Control_c, 13, 11, 113
29, 342665, Control_c, 13, 11, 112
29, 342676, Control_c, 13, 11, 111
29, 342688, Control_c, 13, 11, 110
29, 342699, Control_c, 13, 11, 109
29, 342710, Control_c, 13, 11, 108
29, 342721, Control_c, 13, 11, 107
29, 342732, Control_c, 13, 11, 106
29, 342743, Control_c, 13, 11, 105
29, 342755, Control_c, 13, 11, 104
29, 342766, Control_c, 13, 11, 103
29, 342776, Control_c, 13, 11, 102
29, 342788, Control_c, 13, 11, 101
29, 342799, Control_c, 13, 11, 100
29, 342810, Control_c, 13, 11, 99
29, 342821, Control_c, 13, 11, 98
29, 342832, Control_c, 13, 11, 97
29, 342843, Control_c, 13, 11, 96
29, 342855, Control_c, 13, 11, 95
29, 342866, Control_c, 13, 11, 94
29, 342877, Control_c, 13, 11, 93
29, 342888, Control_c, 13, 11, 92
29, 342899, Control_c, 13, 11, 91
29, 342910, Control_c, 13, 11, 90
29, 342921, Control_c, 13, 11, 89
29, 342932, Control_c, 13, 11, 88
29, 342943, Control_c, 13, 11, 87
29, 342955, Control_c, 13, 11, 86
29, 342966, Control_c, 13, 11, 85
29, 342976, Control_c, 13, 11, 84
29, 342988, Control_c, 13, 11, 83
29, 342999, Control_c, 13, 11, 82
29, 343010, Control_c, 13, 11, 81
29, 343021, Control_c, 13, 11, 80
29, 343033, Control_c, 13, 11, 79
29, 343044, Control_c, 13, 11, 78
29, 343055, Control_c, 13, 11, 77
29, 343066, Control_c, 13, 11, 76
29, 343077, Control_c, 13, 11, 75
29, 343088, Control_c, 13, 11, 74
29, 343099, Control_c, 13, 11, 73
29, 343110, Control_c, 13, 11, 72
29, 343121, Control_c, 13, 11, 71
29, 343126, Note_on_c, 13, 60, 0
29, 343133, Control_c, 13, 11, 70
29, 343143, Control_c, 13, 11, 69
29, 343155, Control_c, 13, 11, 68
29, 343166, Control_c, 13, 11, 67
29, 343177, Control_c, 13, 11, 66
29, 343188, Control_c, 13, 11, 65
29, 343203, Note_on_c, 13, 60, 105
29, 343207, Control_c, 13, 11, 65
29, 343218, Control_c, 13, 11, 66
29, 343231, Control_c, 13, 11, 67
29, 343243, Control_c, 13, 11, 68
29, 343255, Control_c, 13, 11, 69
29, 343266, Control_c, 13, 11, 70
29, 343278, Control_c, 13, 11, 71
29, 343290, Control_c, 13, 11, 72
29, 343303, Control_c, 13, 11, 73
29, 343314, Control_c, 13, 11, 74
29, 343326, Control_c, 13, 11, 75
29, 343338, Control_c, 13, 11, 76
29, 343350, Control_c, 13, 11, 77
29, 343362, Control_c, 13, 11, 78
29, 343374, Control_c, 13, 11, 79
29, 343386, Control_c, 13, 11, 80
29, 343398, Control_c, 13, 11, 81
29, 343410, Control_c, 13, 11, 82
29, 343422, Control_c, 13, 11, 83
29, 343434, Control_c, 13, 11, 84
29, 343446, Control_c, 13, 11, 85
29, 343458, Control_c, 13, 11, 86
29, 343470, Control_c, 13, 11, 87
29, 343481, Control_c, 13, 11, 88
29, 343494, Control_c, 13, 11, 89
29, 343505, Control_c, 13, 11, 90
29, 343518, Control_c, 13, 11, 91
29, 343530, Control_c, 13, 11, 92
29, 343541, Control_c, 13, 11, 93
29, 343553, Control_c, 13, 11, 94
29, 343565, Control_c, 13, 11, 95
29, 343577, Control_c, 13, 11, 96
29, 343590, Control_c, 13, 11, 97
29, 343601, Control_c, 13, 11, 98
29, 343613, Control_c, 13, 11, 99
29, 343625, Control_c, 13, 11, 100
29, 343635, Note_on_c, 13, 60, 0
29, 343637, Control_c, 13, 11, 101
29, 343649, Control_c, 13, 11, 102
29, 343661, Control_c, 13, 11, 103
29, 343673, Control_c, 13, 11, 104
29, 343685, Control_c, 13, 11, 105
29, 343696, Control_c, 13, 11, 106
29, 343698, Note_on_c, 13, 60, 101
29, 343709, Control_c, 13, 11, 107
29, 343721, Control_c, 13, 11, 108
29, 343733, Control_c, 13, 11, 109
29, 343745, Control_c, 13, 11, 110
29, 343756, Control_c, 13, 11, 111
29, 343768, Control_c, 13, 11, 112
29, 343781, Control_c, 13, 11, 113
29, 343792, Control_c, 13, 11, 114
29, 343805, Control_c, 13, 11, 115
29, 343816, Control_c, 13, 11, 116
29, 343828, Control_c, 13, 11, 117
29, 343840, Control_c, 13, 11, 118
29, 343852, Control_c, 13, 11, 119
29, 343864, Control_c, 13, 11, 120
29, 343876, Control_c, 13, 11, 121
29, 343888, Control_c, 13, 11, 122
29, 343900, Control_c, 13, 11, 123
29, 343912, Control_c, 13, 11, 124
29, 343924, Control_c, 13, 11, 125
29, 343950, Control_c, 13, 11, 126
29, 343961, Control_c, 13, 11, 125
29, 343972, Control_c, 13, 11, 124
29, 343983, Control_c, 13, 11, 123
29, 343995, Control_c, 13, 11, 122
29, 344005, Control_c, 13, 11, 121
29, 344016, Control_c, 13, 11, 120
29, 344028, Control_c, 13, 11, 119
29, 344039, Control_c, 13, 11, 118
29, 344050, Control_c, 13, 11, 117
29, 344061, Control_c, 13, 11, 116
29, 344072, Control_c, 13, 11, 115
29, 344083, Control_c, 13, 11, 114
29, 344094, Control_c, 13, 11, 113
29, 344105, Control_c, 13, 11, 112
29, 344116, Control_c, 13, 11, 111
29, 344128, Control_c, 13, 11, 110
29, 344139, Control_c, 13, 11, 109
29, 344150, Control_c, 13, 11, 108
29, 344161, Control_c, 13, 11, 107
29, 344172, Control_c, 13, 11, 106
29, 344183, Control_c, 13, 11, 105
29, 344195, Control_c, 13, 11, 104
29, 344206, Control_c, 13, 11, 103
29, 344216, Control_c, 13, 11, 102
29, 344228, Control_c, 13, 11, 101
29, 344239, Control_c, 13, 11, 100
29, 344250, Control_c, 13, 11, 99
29, 344261, Control_c, 13, 11, 98
29, 344272, Control_c, 13, 11, 97
29, 344283, Control_c, 13, 11, 96
29, 344295, Control_c, 13, 11, 95
29, 344306, Control_c, 13, 11, 94
29, 344317, Control_c, 13, 11, 93
29, 344328, Control_c, 13, 11, 92
29, 344339, Control_c, 13, 11, 91
29, 344350, Control_c, 13, 11, 90
29, 344361, Control_c, 13, 11, 89
29, 344372, Control_c, 13, 11, 88
29, 344383, Control_c, 13, 11, 87
29, 344395, Control_c, 13, 11, 86
29, 344406, Control_c, 13, 11, 85
29, 344416, Control_c, 13, 11, 84
29, 344428, Control_c, 13, 11, 83
29, 344439, Control_c, 13, 11, 82
29, 344450, Control_c, 13, 11, 81
29, 344461, Control_c, 13, 11, 80
29, 344473, Control_c, 13, 11, 79
29, 344484, Control_c, 13, 11, 78
29, 344495, Control_c, 13, 11, 77
29, 344506, Control_c, 13, 11, 76
29, 344517, Control_c, 13, 11, 75
29, 344528, Control_c, 13, 11, 74
29, 344539, Control_c, 13, 11, 73
29, 344550, Control_c, 13, 11, 72
29, 344561, Control_c, 13, 11, 71
29, 344562, Note_on_c, 13, 60, 0
29, 344573, Control_c, 13, 11, 70
29, 344583, Control_c, 13, 11, 69
29, 344595, Control_c, 13, 11, 68
29, 344606, Control_c, 13, 11, 67
29, 344617, Control_c, 13, 11, 66
29, 344628, Control_c, 13, 11, 65
29, 344645, Note_on_c, 13, 60, 88
29, 344647, Control_c, 13, 11, 65
29, 344658, Control_c, 13, 11, 66
29, 344671, Control_c, 13, 11, 67
29, 344683, Control_c, 13, 11, 68
29, 344695, Control_c, 13, 11, 69
29, 344706, Control_c, 13, 11, 70
29, 344718, Control_c, 13, 11, 71
29, 344730, Control_c, 13, 11, 72
29, 344743, Control_c, 13, 11, 73
29, 344754, Control_c, 13, 11, 74
29, 344766, Control_c, 13, 11, 75
29, 344778, Control_c, 13, 11, 76
29, 344790, Control_c, 13, 11, 77
29, 344802, Control_c, 13, 11, 78
29, 344814, Control_c, 13, 11, 79
29, 344826, Control_c, 13, 11, 80
29, 344838, Control_c, 13, 11, 81
29, 344850, Control_c, 13, 11, 82
29, 344862, Control_c, 13, 11, 83
29, 344874, Control_c, 13, 11, 84
29, 344886, Control_c, 13, 11, 85
29, 344898, Control_c, 13, 11, 86
29, 344910, Control_c, 13, 11, 87
29, 344921, Control_c, 13, 11, 88
29, 344934, Control_c, 13, 11, 89
29, 344945, Control_c, 13, 11, 90
29, 344958, Control_c, 13, 11, 91
29, 344970, Control_c, 13, 11, 92
29, 344981, Control_c, 13, 11, 93
29, 344993, Control_c, 13, 11, 94
29, 345005, Control_c, 13, 11, 95
29, 345017, Control_c, 13, 11, 96
29, 345030, Control_c, 13, 11, 97
29, 345041, Control_c, 13, 11, 98
29, 345053, Control_c, 13, 11, 99
29, 345065, Control_c, 13, 11, 100
29, 345077, Note_on_c, 13, 60, 0
29, 345077, Control_c, 13, 11, 101
29, 345089, Control_c, 13, 11, 102
29, 345101, Control_c, 13, 11, 103
29, 345113, Control_c, 13, 11, 104
29, 345124, Note_on_c, 13, 60, 100
29, 345125, Control_c, 13, 11, 105
29, 345136, Control_c, 13, 11, 106
29, 345149, Control_c, 13, 11, 107
29, 345161, Control_c, 13, 11, 108
29, 345173, Control_c, 13, 11, 109
29, 345185, Control_c, 13, 11, 110
29, 345196, Control_c, 13, 11, 111
29, 345208, Control_c, 13, 11, 112
29, 345221, Control_c, 13, 11, 113
29, 345232, Control_c, 13, 11, 114
29, 345245, Control_c, 13, 11, 115
29, 345256, Control_c, 13, 11, 116
29, 345268, Control_c, 13, 11, 117
29, 345280, Control_c, 13, 11, 118
29, 345292, Control_c, 13, 11, 119
29, 345304, Control_c, 13, 11, 120
29, 345316, Control_c, 13, 11, 121
29, 345328, Control_c, 13, 11, 122
29, 345340, Control_c, 13, 11, 123
29, 345352, Control_c, 13, 11, 124
29, 345364, Control_c, 13, 11, 125
29, 345390, Control_c, 13, 11, 126
29, 345401, Control_c, 13, 11, 125
29, 345412, Control_c, 13, 11, 124
29, 345423, Control_c, 13, 11, 123
29, 345435, Control_c, 13, 11, 122
29, 345445, Control_c, 13, 11, 121
29, 345456, Control_c, 13, 11, 120
29, 345468, Control_c, 13, 11, 119
29, 345479, Control_c, 13, 11, 118
29, 345490, Control_c, 13, 11, 117
29, 345501, Control_c, 13, 11, 116
29, 345512, Control_c, 13, 11, 115
29, 345523, Control_c, 13, 11, 114
29, 345534, Control_c, 13, 11, 113
29, 345545, Control_c, 13, 11, 112
29, 345556, Control_c, 13, 11, 111
29, 345568, Control_c, 13, 11, 110
29, 345579, Control_c, 13, 11, 109
29, 345590, Control_c, 13, 11, 108
29, 345601, Control_c, 13, 11, 107
29, 345612, Control_c, 13, 11, 106
29, 345623, Control_c, 13, 11, 105
29, 345635, Control_c, 13, 11, 104
29, 345646, Control_c, 13, 11, 103
29, 345656, Control_c, 13, 11, 102
29, 345668, Control_c, 13, 11, 101
29, 345679, Control_c, 13, 11, 100
29, 345690, Control_c, 13, 11, 99
29, 345701, Control_c, 13, 11, 98
29, 345712, Control_c, 13, 11, 97
29, 345723, Control_c, 13, 11, 96
29, 345735, Control_c, 13, 11, 95
29, 345746, Control_c, 13, 11, 94
29, 345757, Control_c, 13, 11, 93
29, 345768, Control_c, 13, 11, 92
29, 345779, Control_c, 13, 11, 91
29, 345790, Control_c, 13, 11, 90
29, 345801, Control_c, 13, 11, 89
29, 345812, Control_c, 13, 11, 88
29, 345823, Control_c, 13, 11, 87
29, 345835, Control_c, 13, 11, 86
29, 345846, Control_c, 13, 11, 85
29, 345856, Control_c, 13, 11, 84
29, 345868, Control_c, 13, 11, 83
29, 345879, Control_c, 13, 11, 82
29, 345890, Control_c, 13, 11, 81
29, 345901, Control_c, 13, 11, 80
29, 345913, Control_c, 13, 11, 79
29, 345924, Control_c, 13, 11, 78
29, 345935, Control_c, 13, 11, 77
29, 345946, Control_c, 13, 11, 76
29, 345957, Control_c, 13, 11, 75
29, 345968, Control_c, 13, 11, 74
29, 345979, Control_c, 13, 11, 73
29, 345988, Note_on_c, 13, 60, 0
29, 345990, Control_c, 13, 11, 72
29, 346001, Control_c, 13, 11, 71
29, 346013, Control_c, 13, 11, 70
29, 346023, Control_c, 13, 11, 69
29, 346035, Control_c, 13, 11, 68
29, 346046, Control_c, 13, 11, 67
29, 346057, Control_c, 13, 11, 66
29, 346065, Control_c, 13, 11, 127
29, 346068, Control_c, 13, 11, 65
29, 346089, Note_on_c, 13, 66, 99
29, 346096, Note_on_c, 13, 57, 101
29, 346232, Note_on_c, 13, 66, 0
29, 346239, Note_on_c, 13, 57, 0
29, 346566, Control_c, 13, 11, 65
29, 346578, Control_c, 13, 11, 66
29, 346581, Note_on_c, 13, 60, 102
29, 346590, Control_c, 13, 11, 67
29, 346602, Control_c, 13, 11, 68
29, 346614, Control_c, 13, 11, 69
29, 346625, Control_c, 13, 11, 70
29, 346637, Control_c, 13, 11, 71
29, 346650, Control_c, 13, 11, 72
29, 346661, Control_c, 13, 11, 73
29, 346673, Control_c, 13, 11, 74
29, 346685, Control_c, 13, 11, 75
29, 346696, Control_c, 13, 11, 76
29, 346708, Control_c, 13, 11, 77
29, 346720, Control_c, 13, 11, 78
29, 346732, Control_c, 13, 11, 79
29, 346743, Control_c, 13, 11, 80
29, 346755, Control_c, 13, 11, 81
29, 346767, Control_c, 13, 11, 82
29, 346779, Control_c, 13, 11, 83
29, 346791, Control_c, 13, 11, 84
29, 346803, Control_c, 13, 11, 85
29, 346815, Control_c, 13, 11, 86
29, 346826, Control_c, 13, 11, 87
29, 346838, Control_c, 13, 11, 88
29, 346850, Control_c, 13, 11, 89
29, 346861, Control_c, 13, 11, 90
29, 346873, Control_c, 13, 11, 91
29, 346885, Control_c, 13, 11, 92
29, 346897, Control_c, 13, 11, 93
29, 346909, Control_c, 13, 11, 94
29, 346921, Control_c, 13, 11, 95
29, 346933, Control_c, 13, 11, 96
29, 346944, Control_c, 13, 11, 97
29, 346956, Control_c, 13, 11, 98
29, 346968, Control_c, 13, 11, 99
29, 346980, Control_c, 13, 11, 100
29, 346991, Control_c, 13, 11, 101
29, 347003, Control_c, 13, 11, 102
29, 347015, Control_c, 13, 11, 103
29, 347027, Control_c, 13, 11, 104
29, 347039, Control_c, 13, 11, 105
29, 347051, Control_c, 13, 11, 106
29, 347062, Control_c, 13, 11, 107
29, 347074, Control_c, 13, 11, 108
29, 347086, Control_c, 13, 11, 109
29, 347098, Control_c, 13, 11, 110
29, 347110, Control_c, 13, 11, 111
29, 347121, Control_c, 13, 11, 112
29, 347133, Control_c, 13, 11, 113
29, 347145, Control_c, 13, 11, 114
29, 347157, Control_c, 13, 11, 115
29, 347169, Control_c, 13, 11, 116
29, 347180, Control_c, 13, 11, 117
29, 347192, Control_c, 13, 11, 118
29, 347204, Control_c, 13, 11, 119
29, 347216, Control_c, 13, 11, 120
29, 347228, Control_c, 13, 11, 121
29, 347240, Control_c, 13, 11, 122
29, 347251, Control_c, 13, 11, 123
29, 347263, Control_c, 13, 11, 124
29, 347275, Control_c, 13, 11, 125
29, 347287, Control_c, 13, 11, 126
29, 347310, Control_c, 13, 11, 126
29, 347321, Control_c, 13, 11, 125
29, 347332, Control_c, 13, 11, 124
29, 347343, Control_c, 13, 11, 123
29, 347355, Control_c, 13, 11, 122
29, 347365, Control_c, 13, 11, 121
29, 347376, Control_c, 13, 11, 120
29, 347388, Control_c, 13, 11, 119
29, 347399, Control_c, 13, 11, 118
29, 347410, Control_c, 13, 11, 117
29, 347421, Control_c, 13, 11, 116
29, 347432, Control_c, 13, 11, 115
29, 347443, Control_c, 13, 11, 114
29, 347454, Control_c, 13, 11, 113
29, 347465, Control_c, 13, 11, 112
29, 347476, Control_c, 13, 11, 111
29, 347488, Control_c, 13, 11, 110
29, 347499, Control_c, 13, 11, 109
29, 347510, Control_c, 13, 11, 108
29, 347521, Control_c, 13, 11, 107
29, 347532, Control_c, 13, 11, 106
29, 347543, Control_c, 13, 11, 105
29, 347555, Control_c, 13, 11, 104
29, 347566, Control_c, 13, 11, 103
29, 347576, Control_c, 13, 11, 102
29, 347588, Control_c, 13, 11, 101
29, 347599, Control_c, 13, 11, 100
29, 347610, Control_c, 13, 11, 99
29, 347621, Control_c, 13, 11, 98
29, 347632, Control_c, 13, 11, 97
29, 347643, Control_c, 13, 11, 96
29, 347655, Control_c, 13, 11, 95
29, 347666, Control_c, 13, 11, 94
29, 347677, Control_c, 13, 11, 93
29, 347688, Control_c, 13, 11, 92
29, 347699, Control_c, 13, 11, 91
29, 347710, Control_c, 13, 11, 90
29, 347721, Control_c, 13, 11, 89
29, 347732, Control_c, 13, 11, 88
29, 347743, Control_c, 13, 11, 87
29, 347755, Control_c, 13, 11, 86
29, 347766, Control_c, 13, 11, 85
29, 347776, Control_c, 13, 11, 84
29, 347788, Control_c, 13, 11, 83
29, 347799, Control_c, 13, 11, 82
29, 347810, Control_c, 13, 11, 81
29, 347821, Control_c, 13, 11, 80
29, 347833, Control_c, 13, 11, 79
29, 347844, Control_c, 13, 11, 78
29, 347855, Control_c, 13, 11, 77
29, 347866, Control_c, 13, 11, 76
29, 347877, Note_on_c, 13, 60, 0
29, 347877, Control_c, 13, 11, 75
29, 347888, Control_c, 13, 11, 74
29, 347899, Control_c, 13, 11, 73
29, 347910, Control_c, 13, 11, 72
29, 347921, Control_c, 13, 11, 71
29, 347933, Control_c, 13, 11, 70
29, 347943, Control_c, 13, 11, 69
29, 347955, Control_c, 13, 11, 68
29, 347966, Control_c, 13, 11, 67
29, 347977, Control_c, 13, 11, 66
29, 347988, Control_c, 13, 11, 65
29, 347991, Control_c, 13, 11, 127
29, 348001, Note_on_c, 13, 66, 97
29, 348018, Note_on_c, 13, 57, 103
29, 348144, Note_on_c, 13, 66, 0
29, 348161, Note_on_c, 13, 57, 0
29, 348482, Note_on_c, 13, 66, 87
29, 348501, Note_on_c, 13, 57, 105
29, 348625, Note_on_c, 13, 66, 0
29, 348644, Note_on_c, 13, 57, 0
29, 348966, Control_c, 13, 11, 65
29, 348966, Control_c, 13, 11, 65
29, 348967, Note_on_c, 13, 60, 98
29, 348978, Control_c, 13, 11, 66
29, 348978, Control_c, 13, 11, 66
29, 348990, Control_c, 13, 11, 67
29, 348990, Control_c, 13, 11, 67
29, 349002, Control_c, 13, 11, 68
29, 349002, Control_c, 13, 11, 68
29, 349014, Control_c, 13, 11, 69
29, 349014, Control_c, 13, 11, 69
29, 349025, Control_c, 13, 11, 70
29, 349025, Control_c, 13, 11, 70
29, 349037, Control_c, 13, 11, 71
29, 349037, Control_c, 13, 11, 71
29, 349050, Control_c, 13, 11, 72
29, 349050, Control_c, 13, 11, 72
29, 349061, Control_c, 13, 11, 73
29, 349061, Control_c, 13, 11, 73
29, 349073, Control_c, 13, 11, 74
29, 349073, Control_c, 13, 11, 74
29, 349085, Control_c, 13, 11, 75
29, 349085, Control_c, 13, 11, 75
29, 349096, Control_c, 13, 11, 76
29, 349096, Control_c, 13, 11, 76
29, 349108, Control_c, 13, 11, 77
29, 349108, Control_c, 13, 11, 77
29, 349120, Control_c, 13, 11, 78
29, 349120, Control_c, 13, 11, 78
29, 349132, Control_c, 13, 11, 79
29, 349132, Control_c, 13, 11, 79
29, 349143, Control_c, 13, 11, 80
29, 349143, Control_c, 13, 11, 80
29, 349155, Control_c, 13, 11, 81
29, 349155, Control_c, 13, 11, 81
29, 349167, Control_c, 13, 11, 82
29, 349167, Control_c, 13, 11, 82
29, 349179, Control_c, 13, 11, 83
29, 349179, Control_c, 13, 11, 83
29, 349191, Control_c, 13, 11, 84
29, 349191, Control_c, 13, 11, 84
29, 349203, Control_c, 13, 11, 85
29, 349203, Control_c, 13, 11, 85
29, 349215, Control_c, 13, 11, 86
29, 349215, Control_c, 13, 11, 86
29, 349226, Control_c, 13, 11, 87
29, 349226, Control_c, 13, 11, 87
29, 349238, Control_c, 13, 11, 88
29, 349238, Control_c, 13, 11, 88
29, 349250, Control_c, 13, 11, 89
29, 349250, Control_c, 13, 11, 89
29, 349261, Control_c, 13, 11, 90
29, 349261, Control_c, 13, 11, 90
29, 349273, Control_c, 13, 11, 91
29, 349273, Control_c, 13, 11, 91
29, 349285, Control_c, 13, 11, 92
29, 349285, Control_c, 13, 11, 92
29, 349297, Control_c, 13, 11, 93
29, 349297, Control_c, 13, 11, 93
29, 349309, Control_c, 13, 11, 94
29, 349309, Control_c, 13, 11, 94
29, 349321, Control_c, 13, 11, 95
29, 349321, Control_c, 13, 11, 95
29, 349333, Control_c, 13, 11, 96
29, 349333, Control_c, 13, 11, 96
29, 349344, Control_c, 13, 11, 97
29, 349344, Control_c, 13, 11, 97
29, 349356, Control_c, 13, 11, 98
29, 349356, Control_c, 13, 11, 98
29, 349368, Control_c, 13, 11, 99
29, 349368, Control_c, 13, 11, 99
29, 349380, Control_c, 13, 11, 100
29, 349380, Control_c, 13, 11, 100
29, 349391, Control_c, 13, 11, 101
29, 349391, Control_c, 13, 11, 101
29, 349403, Control_c, 13, 11, 102
29, 349403, Control_c, 13, 11, 102
29, 349415, Control_c, 13, 11, 103
29, 349415, Control_c, 13, 11, 103
29, 349427, Control_c, 13, 11, 104
29, 349427, Control_c, 13, 11, 104
29, 349439, Control_c, 13, 11, 105
29, 349439, Control_c, 13, 11, 105
29, 349451, Control_c, 13, 11, 106
29, 349451, Control_c, 13, 11, 106
29, 349462, Control_c, 13, 11, 107
29, 349462, Control_c, 13, 11, 107
29, 349474, Control_c, 13, 11, 108
29, 349474, Control_c, 13, 11, 108
29, 349486, Control_c, 13, 11, 109
29, 349486, Control_c, 13, 11, 109
29, 349498, Control_c, 13, 11, 110
29, 349498, Control_c, 13, 11, 110
29, 349510, Control_c, 13, 11, 111
29, 349510, Control_c, 13, 11, 111
29, 349521, Control_c, 13, 11, 112
29, 349521, Control_c, 13, 11, 112
29, 349533, Control_c, 13, 11, 113
29, 349533, Control_c, 13, 11, 113
29, 349545, Control_c, 13, 11, 114
29, 349545, Control_c, 13, 11, 114
29, 349557, Control_c, 13, 11, 115
29, 349557, Control_c, 13, 11, 115
29, 349569, Control_c, 13, 11, 116
29, 349569, Control_c, 13, 11, 116
29, 349580, Control_c, 13, 11, 117
29, 349580, Control_c, 13, 11, 117
29, 349592, Control_c, 13, 11, 118
29, 349592, Control_c, 13, 11, 118
29, 349604, Control_c, 13, 11, 119
29, 349604, Control_c, 13, 11, 119
29, 349616, Control_c, 13, 11, 120
29, 349616, Control_c, 13, 11, 120
29, 349628, Control_c, 13, 11, 121
29, 349628, Control_c, 13, 11, 121
29, 349640, Control_c, 13, 11, 122
29, 349640, Control_c, 13, 11, 122
29, 349651, Control_c, 13, 11, 123
29, 349651, Control_c, 13, 11, 123
29, 349663, Control_c, 13, 11, 124
29, 349663, Control_c, 13, 11, 124
29, 349675, Control_c, 13, 11, 125
29, 349675, Control_c, 13, 11, 125
29, 349687, Control_c, 13, 11, 126
29, 349687, Control_c, 13, 11, 126
29, 349710, Control_c, 13, 11, 126
29, 349710, Control_c, 13, 11, 126
29, 349721, Control_c, 13, 11, 125
29, 349721, Control_c, 13, 11, 125
29, 349732, Control_c, 13, 11, 124
29, 349732, Control_c, 13, 11, 124
29, 349743, Control_c, 13, 11, 123
29, 349743, Control_c, 13, 11, 123
29, 349755, Control_c, 13, 11, 122
29, 349755, Control_c, 13, 11, 122
29, 349765, Control_c, 13, 11, 121
29, 349765, Control_c, 13, 11, 121
29, 349776, Control_c, 13, 11, 120
29, 349776, Control_c, 13, 11, 120
29, 349788, Control_c, 13, 11, 119
29, 349788, Control_c, 13, 11, 119
29, 349799, Control_c, 13, 11, 118
29, 349799, Control_c, 13, 11, 118
29, 349810, Control_c, 13, 11, 117
29, 349810, Control_c, 13, 11, 117
29, 349821, Control_c, 13, 11, 116
29, 349821, Control_c, 13, 11, 116
29, 349832, Control_c, 13, 11, 115
29, 349832, Control_c, 13, 11, 115
29, 349843, Control_c, 13, 11, 114
29, 349843, Control_c, 13, 11, 114
29, 349854, Control_c, 13, 11, 113
29, 349854, Control_c, 13, 11, 113
29, 349865, Control_c, 13, 11, 112
29, 349865, Control_c, 13, 11, 112
29, 349876, Control_c, 13, 11, 111
29, 349876, Control_c, 13, 11, 111
29, 349888, Control_c, 13, 11, 110
29, 349888, Control_c, 13, 11, 110
29, 349899, Control_c, 13, 11, 109
29, 349899, Control_c, 13, 11, 109
29, 349910, Control_c, 13, 11, 108
29, 349910, Control_c, 13, 11, 108
29, 349921, Control_c, 13, 11, 107
29, 349921, Control_c, 13, 11, 107
29, 349932, Control_c, 13, 11, 106
29, 349932, Control_c, 13, 11, 106
29, 349943, Control_c, 13, 11, 105
29, 349943, Control_c, 13, 11, 105
29, 349955, Control_c, 13, 11, 104
29, 349955, Control_c, 13, 11, 104
29, 349966, Control_c, 13, 11, 103
29, 349966, Control_c, 13, 11, 103
29, 349976, Control_c, 13, 11, 102
29, 349976, Control_c, 13, 11, 102
29, 349988, Control_c, 13, 11, 101
29, 349988, Control_c, 13, 11, 101
29, 349999, Control_c, 13, 11, 100
29, 349999, Control_c, 13, 11, 100
29, 350010, Control_c, 13, 11, 99
29, 350010, Control_c, 13, 11, 99
29, 350021, Control_c, 13, 11, 98
29, 350021, Control_c, 13, 11, 98
29, 350032, Control_c, 13, 11, 97
29, 350032, Control_c, 13, 11, 97
29, 350043, Control_c, 13, 11, 96
29, 350043, Control_c, 13, 11, 96
29, 350055, Control_c, 13, 11, 95
29, 350055, Control_c, 13, 11, 95
29, 350066, Control_c, 13, 11, 94
29, 350066, Control_c, 13, 11, 94
29, 350077, Control_c, 13, 11, 93
29, 350077, Control_c, 13, 11, 93
29, 350088, Control_c, 13, 11, 92
29, 350088, Control_c, 13, 11, 92
29, 350099, Control_c, 13, 11, 91
29, 350099, Control_c, 13, 11, 91
29, 350110, Control_c, 13, 11, 90
29, 350110, Control_c, 13, 11, 90
29, 350121, Control_c, 13, 11, 89
29, 350121, Control_c, 13, 11, 89
29, 350132, Control_c, 13, 11, 88
29, 350132, Control_c, 13, 11, 88
29, 350143, Control_c, 13, 11, 87
29, 350143, Control_c, 13, 11, 87
29, 350155, Control_c, 13, 11, 86
29, 350155, Control_c, 13, 11, 86
29, 350166, Control_c, 13, 11, 85
29, 350166, Control_c, 13, 11, 85
29, 350176, Control_c, 13, 11, 84
29, 350176, Control_c, 13, 11, 84
29, 350188, Control_c, 13, 11, 83
29, 350188, Control_c, 13, 11, 83
29, 350199, Control_c, 13, 11, 82
29, 350199, Control_c, 13, 11, 82
29, 350210, Control_c, 13, 11, 81
29, 350210, Control_c, 13, 11, 81
29, 350221, Control_c, 13, 11, 80
29, 350221, Control_c, 13, 11, 80
29, 350233, Control_c, 13, 11, 79
29, 350233, Control_c, 13, 11, 79
29, 350244, Control_c, 13, 11, 78
29, 350244, Control_c, 13, 11, 78
29, 350255, Control_c, 13, 11, 77
29, 350255, Control_c, 13, 11, 77
29, 350263, Note_on_c, 13, 60, 0
29, 350266, Control_c, 13, 11, 76
29, 350266, Control_c, 13, 11, 76
29, 350277, Control_c, 13, 11, 75
29, 350277, Control_c, 13, 11, 75
29, 350288, Control_c, 13, 11, 74
29, 350288, Control_c, 13, 11, 74
29, 350299, Control_c, 13, 11, 73
29, 350299, Control_c, 13, 11, 73
29, 350310, Control_c, 13, 11, 72
29, 350310, Control_c, 13, 11, 72
29, 350321, Control_c, 13, 11, 71
29, 350321, Control_c, 13, 11, 71
29, 350333, Control_c, 13, 11, 70
29, 350333, Control_c, 13, 11, 70
29, 350343, Control_c, 13, 11, 69
29, 350343, Control_c, 13, 11, 69
29, 350355, Control_c, 13, 11, 68
29, 350355, Control_c, 13, 11, 68
29, 350366, Control_c, 13, 11, 67
29, 350366, Control_c, 13, 11, 67
29, 350377, Control_c, 13, 11, 66
29, 350377, Control_c, 13, 11, 66
29, 350388, Control_c, 13, 11, 65
29, 350388, Control_c, 13, 11, 65
29, 350400, Control_c, 13, 11, 127
29, 350413, Note_on_c, 13, 60, 99
29, 350845, Note_on_c, 13, 60, 0
29, 350889, Note_on_c, 13, 60, 87
29, 351753, Note_on_c, 13, 60, 0
29, 352340, Note_on_c, 13, 57, 104
29, 352340, Note_on_c, 13, 66, 95
29, 352483, Note_on_c, 13, 57, 0
29, 352483, Note_on_c, 13, 66, 0
29, 352806, Control_c, 13, 11, 65
29, 352806, Control_c, 13, 11, 65
29, 352818, Note_on_c, 13, 60, 89
29, 352818, Control_c, 13, 11, 66
29, 352818, Control_c, 13, 11, 66
29, 352830, Control_c, 13, 11, 67
29, 352830, Control_c, 13, 11, 67
29, 352842, Control_c, 13, 11, 68
29, 352842, Control_c, 13, 11, 68
29, 352854, Control_c, 13, 11, 69
29, 352854, Control_c, 13, 11, 69
29, 352865, Control_c, 13, 11, 70
29, 352865, Control_c, 13, 11, 70
29, 352877, Control_c, 13, 11, 71
29, 352877, Control_c, 13, 11, 71
29, 352890, Control_c, 13, 11, 72
29, 352890, Control_c, 13, 11, 72
29, 352901, Control_c, 13, 11, 73
29, 352901, Control_c, 13, 11, 73
29, 352913, Control_c, 13, 11, 74
29, 352913, Control_c, 13, 11, 74
29, 352925, Control_c, 13, 11, 75
29, 352925, Control_c, 13, 11, 75
29, 352936, Control_c, 13, 11, 76
29, 352936, Control_c, 13, 11, 76
29, 352948, Control_c, 13, 11, 77
29, 352948, Control_c, 13, 11, 77
29, 352960, Control_c, 13, 11, 78
29, 352960, Control_c, 13, 11, 78
29, 352972, Control_c, 13, 11, 79
29, 352972, Control_c, 13, 11, 79
29, 352983, Control_c, 13, 11, 80
29, 352983, Control_c, 13, 11, 80
29, 352995, Control_c, 13, 11, 81
29, 352995, Control_c, 13, 11, 81
29, 353007, Control_c, 13, 11, 82
29, 353007, Control_c, 13, 11, 82
29, 353019, Control_c, 13, 11, 83
29, 353019, Control_c, 13, 11, 83
29, 353031, Control_c, 13, 11, 84
29, 353031, Control_c, 13, 11, 84
29, 353043, Control_c, 13, 11, 85
29, 353043, Control_c, 13, 11, 85
29, 353055, Control_c, 13, 11, 86
29, 353055, Control_c, 13, 11, 86
29, 353066, Control_c, 13, 11, 87
29, 353066, Control_c, 13, 11, 87
29, 353078, Control_c, 13, 11, 88
29, 353078, Control_c, 13, 11, 88
29, 353090, Control_c, 13, 11, 89
29, 353090, Control_c, 13, 11, 89
29, 353101, Control_c, 13, 11, 90
29, 353101, Control_c, 13, 11, 90
29, 353113, Control_c, 13, 11, 91
29, 353113, Control_c, 13, 11, 91
29, 353125, Control_c, 13, 11, 92
29, 353125, Control_c, 13, 11, 92
29, 353137, Control_c, 13, 11, 93
29, 353137, Control_c, 13, 11, 93
29, 353149, Control_c, 13, 11, 94
29, 353149, Control_c, 13, 11, 94
29, 353161, Control_c, 13, 11, 95
29, 353161, Control_c, 13, 11, 95
29, 353173, Control_c, 13, 11, 96
29, 353173, Control_c, 13, 11, 96
29, 353184, Control_c, 13, 11, 97
29, 353184, Control_c, 13, 11, 97
29, 353196, Control_c, 13, 11, 98
29, 353196, Control_c, 13, 11, 98
29, 353208, Control_c, 13, 11, 99
29, 353208, Control_c, 13, 11, 99
29, 353220, Control_c, 13, 11, 100
29, 353220, Control_c, 13, 11, 100
29, 353231, Control_c, 13, 11, 101
29, 353231, Control_c, 13, 11, 101
29, 353243, Control_c, 13, 11, 102
29, 353243, Control_c, 13, 11, 102
29, 353250, Note_on_c, 13, 60, 0
29, 353255, Control_c, 13, 11, 103
29, 353255, Control_c, 13, 11, 103
29, 353267, Control_c, 13, 11, 104
29, 353267, Control_c, 13, 11, 104
29, 353279, Control_c, 13, 11, 105
29, 353279, Control_c, 13, 11, 105
29, 353291, Control_c, 13, 11, 106
29, 353291, Control_c, 13, 11, 106
29, 353294, Note_on_c, 13, 60, 92
29, 353302, Control_c, 13, 11, 107
29, 353302, Control_c, 13, 11, 107
29, 353314, Control_c, 13, 11, 108
29, 353314, Control_c, 13, 11, 108
29, 353326, Control_c, 13, 11, 109
29, 353326, Control_c, 13, 11, 109
29, 353338, Control_c, 13, 11, 110
29, 353338, Control_c, 13, 11, 110
29, 353350, Control_c, 13, 11, 111
29, 353350, Control_c, 13, 11, 111
29, 353361, Control_c, 13, 11, 112
29, 353361, Control_c, 13, 11, 112
29, 353373, Control_c, 13, 11, 113
29, 353373, Control_c, 13, 11, 113
29, 353385, Control_c, 13, 11, 114
29, 353385, Control_c, 13, 11, 114
29, 353397, Control_c, 13, 11, 115
29, 353397, Control_c, 13, 11, 115
29, 353409, Control_c, 13, 11, 116
29, 353409, Control_c, 13, 11, 116
29, 353420, Control_c, 13, 11, 117
29, 353420, Control_c, 13, 11, 117
29, 353432, Control_c, 13, 11, 118
29, 353432, Control_c, 13, 11, 118
29, 353444, Control_c, 13, 11, 119
29, 353444, Control_c, 13, 11, 119
29, 353456, Control_c, 13, 11, 120
29, 353456, Control_c, 13, 11, 120
29, 353468, Control_c, 13, 11, 121
29, 353468, Control_c, 13, 11, 121
29, 353480, Control_c, 13, 11, 122
29, 353480, Control_c, 13, 11, 122
29, 353491, Control_c, 13, 11, 123
29, 353491, Control_c, 13, 11, 123
29, 353503, Control_c, 13, 11, 124
29, 353503, Control_c, 13, 11, 124
29, 353515, Control_c, 13, 11, 125
29, 353515, Control_c, 13, 11, 125
29, 353527, Control_c, 13, 11, 126
29, 353527, Control_c, 13, 11, 126
29, 353550, Control_c, 13, 11, 126
29, 353550, Control_c, 13, 11, 126
29, 353561, Control_c, 13, 11, 125
29, 353561, Control_c, 13, 11, 125
29, 353572, Control_c, 13, 11, 124
29, 353572, Control_c, 13, 11, 124
29, 353583, Control_c, 13, 11, 123
29, 353583, Control_c, 13, 11, 123
29, 353595, Control_c, 13, 11, 122
29, 353595, Control_c, 13, 11, 122
29, 353605, Control_c, 13, 11, 121
29, 353605, Control_c, 13, 11, 121
29, 353616, Control_c, 13, 11, 120
29, 353616, Control_c, 13, 11, 120
29, 353628, Control_c, 13, 11, 119
29, 353628, Control_c, 13, 11, 119
29, 353639, Control_c, 13, 11, 118
29, 353639, Control_c, 13, 11, 118
29, 353650, Control_c, 13, 11, 117
29, 353650, Control_c, 13, 11, 117
29, 353661, Control_c, 13, 11, 116
29, 353661, Control_c, 13, 11, 116
29, 353672, Control_c, 13, 11, 115
29, 353672, Control_c, 13, 11, 115
29, 353683, Control_c, 13, 11, 114
29, 353683, Control_c, 13, 11, 114
29, 353694, Control_c, 13, 11, 113
29, 353694, Control_c, 13, 11, 113
29, 353705, Control_c, 13, 11, 112
29, 353705, Control_c, 13, 11, 112
29, 353716, Control_c, 13, 11, 111
29, 353716, Control_c, 13, 11, 111
29, 353728, Control_c, 13, 11, 110
29, 353728, Control_c, 13, 11, 110
29, 353739, Control_c, 13, 11, 109
29, 353739, Control_c, 13, 11, 109
29, 353750, Control_c, 13, 11, 108
29, 353750, Control_c, 13, 11, 108
29, 353761, Control_c, 13, 11, 107
29, 353761, Control_c, 13, 11, 107
29, 353772, Control_c, 13, 11, 106
29, 353772, Control_c, 13, 11, 106
29, 353783, Control_c, 13, 11, 105
29, 353783, Control_c, 13, 11, 105
29, 353795, Control_c, 13, 11, 104
29, 353795, Control_c, 13, 11, 104
29, 353806, Control_c, 13, 11, 103
29, 353806, Control_c, 13, 11, 103
29, 353816, Control_c, 13, 11, 102
29, 353816, Control_c, 13, 11, 102
29, 353828, Control_c, 13, 11, 101
29, 353828, Control_c, 13, 11, 101
29, 353839, Control_c, 13, 11, 100
29, 353839, Control_c, 13, 11, 100
29, 353850, Control_c, 13, 11, 99
29, 353850, Control_c, 13, 11, 99
29, 353861, Control_c, 13, 11, 98
29, 353861, Control_c, 13, 11, 98
29, 353872, Control_c, 13, 11, 97
29, 353872, Control_c, 13, 11, 97
29, 353883, Control_c, 13, 11, 96
29, 353883, Control_c, 13, 11, 96
29, 353895, Control_c, 13, 11, 95
29, 353895, Control_c, 13, 11, 95
29, 353906, Control_c, 13, 11, 94
29, 353906, Control_c, 13, 11, 94
29, 353917, Control_c, 13, 11, 93
29, 353917, Control_c, 13, 11, 93
29, 353928, Control_c, 13, 11, 92
29, 353928, Control_c, 13, 11, 92
29, 353939, Control_c, 13, 11, 91
29, 353939, Control_c, 13, 11, 91
29, 353950, Control_c, 13, 11, 90
29, 353950, Control_c, 13, 11, 90
29, 353961, Control_c, 13, 11, 89
29, 353961, Control_c, 13, 11, 89
29, 353972, Control_c, 13, 11, 88
29, 353972, Control_c, 13, 11, 88
29, 353983, Control_c, 13, 11, 87
29, 353983, Control_c, 13, 11, 87
29, 353995, Control_c, 13, 11, 86
29, 353995, Control_c, 13, 11, 86
29, 354006, Control_c, 13, 11, 85
29, 354006, Control_c, 13, 11, 85
29, 354016, Control_c, 13, 11, 84
29, 354016, Control_c, 13, 11, 84
29, 354028, Control_c, 13, 11, 83
29, 354028, Control_c, 13, 11, 83
29, 354039, Control_c, 13, 11, 82
29, 354039, Control_c, 13, 11, 82
29, 354050, Control_c, 13, 11, 81
29, 354050, Control_c, 13, 11, 81
29, 354061, Control_c, 13, 11, 80
29, 354061, Control_c, 13, 11, 80
29, 354073, Control_c, 13, 11, 79
29, 354073, Control_c, 13, 11, 79
29, 354084, Control_c, 13, 11, 78
29, 354084, Control_c, 13, 11, 78
29, 354095, Control_c, 13, 11, 77
29, 354095, Control_c, 13, 11, 77
29, 354106, Control_c, 13, 11, 76
29, 354106, Control_c, 13, 11, 76
29, 354117, Control_c, 13, 11, 75
29, 354117, Control_c, 13, 11, 75
29, 354128, Control_c, 13, 11, 74
29, 354128, Control_c, 13, 11, 74
29, 354139, Control_c, 13, 11, 73
29, 354139, Control_c, 13, 11, 73
29, 354150, Control_c, 13, 11, 72
29, 354150, Control_c, 13, 11, 72
29, 354158, Note_on_c, 13, 60, 0
29, 354161, Control_c, 13, 11, 71
29, 354161, Control_c, 13, 11, 71
29, 354173, Control_c, 13, 11, 70
29, 354173, Control_c, 13, 11, 70
29, 354183, Control_c, 13, 11, 69
29, 354183, Control_c, 13, 11, 69
29, 354195, Control_c, 13, 11, 68
29, 354195, Control_c, 13, 11, 68
29, 354206, Control_c, 13, 11, 67
29, 354206, Control_c, 13, 11, 67
29, 354217, Control_c, 13, 11, 66
29, 354217, Control_c, 13, 11, 66
29, 354229, Control_c, 13, 11, 127
29, 354242, Note_on_c, 13, 64, 92
29, 354255, Note_on_c, 13, 76, 109
29, 354369, Note_on_c, 13, 63, 107
29, 354370, Note_on_c, 13, 75, 104
29, 354422, Note_on_c, 13, 64, 0
29, 354435, Note_on_c, 13, 76, 0
29, 354492, Note_on_c, 13, 76, 95
29, 354494, Note_on_c, 13, 64, 93
29, 354549, Note_on_c, 13, 63, 0
29, 354550, Note_on_c, 13, 75, 0
29, 354617, Note_on_c, 13, 63, 111
29, 354623, Note_on_c, 13, 75, 97
29, 354672, Note_on_c, 13, 76, 0
29, 354674, Note_on_c, 13, 64, 0
29, 354731, Note_on_c, 13, 64, 102
29, 354733, Note_on_c, 13, 76, 107
29, 354797, Note_on_c, 13, 63, 0
29, 354803, Note_on_c, 13, 75, 0
29, 354854, Note_on_c, 13, 75, 99
29, 354855, Note_on_c, 13, 63, 102
29, 354911, Note_on_c, 13, 64, 0
29, 354913, Note_on_c, 13, 76, 0
29, 354974, Note_on_c, 13, 76, 95
29, 354981, Note_on_c, 13, 64, 94
29, 355034, Note_on_c, 13, 75, 0
29, 355035, Note_on_c, 13, 63, 0
29, 355081, Note_on_c, 13, 75, 97
29, 355095, Note_on_c, 13, 63, 107
29, 355154, Note_on_c, 13, 76, 0
29, 355161, Note_on_c, 13, 64, 0
29, 355212, Note_on_c, 13, 76, 96
29, 355218, Note_on_c, 13, 64, 100
29, 355261, Note_on_c, 13, 75, 0
29, 355275, Note_on_c, 13, 63, 0
29, 355338, Note_on_c, 13, 75, 95
29, 355344, Note_on_c, 13, 63, 107
29, 355392, Note_on_c, 13, 76, 0
29, 355398, Note_on_c, 13, 64, 0
29, 355459, Note_on_c, 13, 64, 111
29, 355463, Note_on_c, 13, 76, 94
29, 355518, Note_on_c, 13, 75, 0
29, 355524, Note_on_c, 13, 63, 0
29, 355574, Note_on_c, 13, 75, 93
29, 355584, Note_on_c, 13, 63, 101
29, 355639, Note_on_c, 13, 64, 0
29, 355643, Note_on_c, 13, 76, 0
29, 355686, Note_on_c, 13, 76, 101
29, 355702, Note_on_c, 13, 64, 107
29, 355754, Note_on_c, 13, 75, 0
29, 355764, Note_on_c, 13, 63, 0
29, 355809, Note_on_c, 13, 63, 98
29, 355817, Note_on_c, 13, 75, 94
29, 355866, Note_on_c, 13, 76, 0
29, 355882, Note_on_c, 13, 64, 0
29, 355929, Note_on_c, 13, 76, 102
29, 355944, Note_on_c, 13, 64, 99
29, 355989, Note_on_c, 13, 63, 0
29, 355997, Note_on_c, 13, 75, 0
29, 356045, Note_on_c, 13, 75, 91
29, 356046, Note_on_c, 13, 63, 109
29, 356109, Note_on_c, 13, 76, 0
29, 356124, Note_on_c, 13, 64, 0
29, 356164, Note_on_c, 13, 64, 99
29, 356165, Note_on_c, 13, 76, 94
29, 356225, Note_on_c, 13, 75, 0
29, 356226, Note_on_c, 13, 63, 0
29, 356283, Note_on_c, 13, 75, 102
29, 356297, Note_on_c, 13, 63, 109
29, 356344, Note_on_c, 13, 64, 0
29, 356345, Note_on_c, 13, 76, 0
29, 356410, Note_on_c, 13, 64, 98
29, 356421, Note_on_c, 13, 76, 101
29, 356463, Note_on_c, 13, 75, 0
29, 356477, Note_on_c, 13, 63, 0
29, 356524, Note_on_c, 13, 63, 92
29, 356524, Note_on_c, 13, 75, 98
29, 356590, Note_on_c, 13, 64, 0
29, 356601, Note_on_c, 13, 76, 0
29, 356646, Note_on_c, 13, 76, 92
29, 356656, Note_on_c, 13, 64, 101
29, 356704, Note_on_c, 13, 63, 0
29, 356704, Note_on_c, 13, 75, 0
29, 356763, Note_on_c, 13, 75, 94
29, 356783, Note_on_c, 13, 63, 102
29, 356826, Note_on_c, 13, 76, 0
29, 356836, Note_on_c, 13, 64, 0
29, 356890, Note_on_c, 13, 64, 98
29, 356890, Note_on_c, 13, 76, 107
29, 356943, Note_on_c, 13, 75, 0
29, 356963, Note_on_c, 13, 63, 0
29, 357011, Note_on_c, 13, 75, 96
29, 357024, Note_on_c, 13, 63, 93
29, 357070, Note_on_c, 13, 64, 0
29, 357070, Note_on_c, 13, 76, 0
29, 357123, Note_on_c, 13, 76, 102
29, 357124, Note_on_c, 13, 64, 97
29, 357191, Note_on_c, 13, 75, 0
29, 357204, Note_on_c, 13, 63, 0
29, 357244, Note_on_c, 13, 75, 104
29, 357265, Note_on_c, 13, 63, 94
29, 357303, Note_on_c, 13, 76, 0
29, 357304, Note_on_c, 13, 64, 0
29, 357373, Note_on_c, 13, 76, 98
29, 357380, Note_on_c, 13, 64, 92
29, 357424, Note_on_c, 13, 75, 0
29, 357445, Note_on_c, 13, 63, 0
29, 357485, Note_on_c, 13, 75, 110
29, 357496, Note_on_c, 13, 63, 106
29, 357553, Note_on_c, 13, 76, 0
29, 357560, Note_on_c, 13, 64, 0
29, 357606, Note_on_c, 13, 64, 94
29, 357614, Note_on_c, 13, 76, 106
29, 357665, Note_on_c, 13, 75, 0
29, 357676, Note_on_c, 13, 63, 0
29, 357732, Note_on_c, 13, 63, 93
29, 357741, Note_on_c, 13, 75, 104
29, 357786, Note_on_c, 13, 64, 0
29, 357794, Note_on_c, 13, 76, 0
29, 357846, Note_on_c, 13, 64, 105
29, 357855, Note_on_c, 13, 76, 91
29, 357912, Note_on_c, 13, 63, 0
29, 357921, Note_on_c, 13, 75, 0
29, 357968, Note_on_c, 13, 75, 94
29, 357983, Note_on_c, 13, 63, 92
29, 358026, Note_on_c, 13, 64, 0
29, 358035, Note_on_c, 13, 76, 0
29, 358081, Note_on_c, 13, 76, 99
29, 358086, Note_on_c, 13, 64, 96
29, 358148, Note_on_c, 13, 75, 0
29, 358163, Note_on_c, 13, 63, 0
29, 358187, Note_on_c, 13, 76, 0
29, 358192, Note_on_c, 13, 64, 0
29, 378720, Program_c, 13, 49
29, 379215, Note_on_c, 13, 54, 81
29, 379575, Note_on_c, 13, 54, 0
29, 379691, Note_on_c, 13, 54, 80
29, 380051, Note_on_c, 13, 54, 0
29, 380174, Note_on_c, 13, 54, 78
29, 380534, Note_on_c, 13, 54, 0
29, 381125, Note_on_c, 13, 54, 82
29, 381485, Note_on_c, 13, 54, 0
29, 381614, Note_on_c, 13, 54, 79
29, 381974, Note_on_c, 13, 54, 0
29, 382083, Note_on_c, 13, 54, 84
29, 382443, Note_on_c, 13, 54, 0
29, 383054, Note_on_c, 13, 54, 83
29, 383414, Note_on_c, 13, 54, 0
29, 383522, Note_on_c, 13, 54, 78
29, 383882, Note_on_c, 13, 54, 0
29, 384021, Note_on_c, 13, 54, 85
29, 384381, Note_on_c, 13, 54, 0
29, 386897, Note_on_c, 13, 54, 74
29, 387257, Note_on_c, 13, 54, 0
29, 387370, Note_on_c, 13, 54, 83
29, 387730, Note_on_c, 13, 54, 0
29, 387841, Note_on_c, 13, 54, 80
29, 388201, Note_on_c, 13, 54, 0
29, 388812, Note_on_c, 13, 54, 85
29, 389172, Note_on_c, 13, 54, 0
29, 389282, Note_on_c, 13, 54, 71
29, 389642, Note_on_c, 13, 54, 0
29, 389784, Note_on_c, 13, 54, 72
29, 390144, Note_on_c, 13, 54, 0
29, 395520, Control_c, 12, 7, 32
29, 397920, Program_c, 12, 41
29, 397925, Note_on_c, 12, 58, 80
29, 397933, Note_on_c, 12, 66, 71
29, 397934, Note_on_c, 12, 65, 71
29, 397939, Note_on_c, 12, 70, 84
29, 398285, Note_on_c, 12, 58, 0
29, 398293, Note_on_c, 12, 66, 0
29, 398294, Note_on_c, 12, 65, 0
29, 398299, Note_on_c, 12, 70, 0
29, 398411, Note_on_c, 12, 65, 72
29, 398416, Note_on_c, 12, 58, 74
29, 398423, Note_on_c, 12, 66, 84
29, 398424, Note_on_c, 12, 70, 71
29, 398771, Note_on_c, 12, 65, 0
29, 398776, Note_on_c, 12, 58, 0
29, 398783, Note_on_c, 12, 66, 0
29, 398784, Note_on_c, 12, 70, 0
29, 398884, Note_on_c, 12, 66, 81
29, 398888, Note_on_c, 12, 58, 76
29, 398903, Note_on_c, 12, 65, 82
29, 398903, Note_on_c, 12, 70, 72
29, 399244, Note_on_c, 12, 66, 0
29, 399248, Note_on_c, 12, 58, 0
29, 399263, Note_on_c, 12, 65, 0
29, 399263, Note_on_c, 12, 70, 0
29, 399367, Note_on_c, 12, 68, 77
29, 399367, Note_on_c, 12, 66, 73
29, 399378, Note_on_c, 12, 72, 85
29, 399385, Note_on_c, 12, 60, 82
29, 399601, Note_on_c, 12, 73, 83
29, 399607, Note_on_c, 12, 68, 0
29, 399607, Note_on_c, 12, 66, 0
29, 399609, Note_on_c, 12, 70, 82
29, 399610, Note_on_c, 12, 61, 84
29, 399612, Note_on_c, 12, 68, 82
29, 399618, Note_on_c, 12, 72, 0
29, 399625, Note_on_c, 12, 60, 0
29, 399840, Note_on_c, 12, 70, 77
29, 399841, Note_on_c, 12, 73, 0
29, 399849, Note_on_c, 12, 70, 0
29, 399849, Note_on_c, 12, 75, 72
29, 399850, Note_on_c, 12, 61, 0
29, 399852, Note_on_c, 12, 68, 0
29, 399853, Note_on_c, 12, 72, 81
29, 399863, Note_on_c, 12, 63, 80
29, 400320, Note_on_c, 12, 70, 0
29, 400326, Note_on_c, 12, 70, 74
29, 400329, Note_on_c, 12, 75, 0
29, 400331, Note_on_c, 12, 68, 67
29, 400333, Note_on_c, 12, 72, 0
29, 400340, Note_on_c, 12, 73, 65
29, 400341, Note_on_c, 12, 61, 72
29, 400343, Note_on_c, 12, 63, 0
29, 400800, Note_on_c, 12, 60, 65
29, 400806, Note_on_c, 12, 70, 0
29, 400806, Note_on_c, 12, 66, 69
29, 400807, Note_on_c, 12, 72, 79
29, 400810, Note_on_c, 12, 68, 73
29, 400811, Note_on_c, 12, 68, 0
29, 400820, Note_on_c, 12, 73, 0
29, 400821, Note_on_c, 12, 61, 0
29, 401280, Note_on_c, 12, 60, 0
29, 401286, Note_on_c, 12, 66, 0
29, 401287, Note_on_c, 12, 72, 0
29, 401290, Note_on_c, 12, 68, 0
29, 407522, Note_on_c, 12, 66, 78
29, 407523, Note_on_c, 12, 58, 98
29, 407535, Note_on_c, 12, 65, 82
29, 407540, Note_on_c, 12, 70, 82
29, 407882, Note_on_c, 12, 66, 0
29, 407883, Note_on_c, 12, 58, 0
29, 407895, Note_on_c, 12, 65, 0
29, 407900, Note_on_c, 12, 70, 0
29, 408011, Note_on_c, 12, 65, 87
29, 408015, Note_on_c, 12, 70, 81
29, 408022, Note_on_c, 12, 66, 79
29, 408024, Note_on_c, 12, 58, 95
29, 408371, Note_on_c, 12, 65, 0
29, 408375, Note_on_c, 12, 70, 0
29, 408382, Note_on_c, 12, 66, 0
29, 408384, Note_on_c, 12, 58, 0
29, 408493, Note_on_c, 12, 70, 98
29, 408495, Note_on_c, 12, 66, 94
29, 408499, Note_on_c, 12, 65, 85
29, 408504, Note_on_c, 12, 58, 81
29, 408853, Note_on_c, 12, 70, 0
29, 408855, Note_on_c, 12, 66, 0
29, 408859, Note_on_c, 12, 65, 0
29, 408864, Note_on_c, 12, 58, 0
29, 408971, Note_on_c, 12, 68, 93
29, 408978, Note_on_c, 12, 66, 85
29, 408978, Note_on_c, 12, 72, 89
29, 408984, Note_on_c, 12, 60, 80
29, 409205, Note_on_c, 12, 73, 89
29, 409211, Note_on_c, 12, 68, 0
29, 409214, Note_on_c, 12, 70, 93
29, 409218, Note_on_c, 12, 66, 0
29, 409218, Note_on_c, 12, 72, 0
29, 409221, Note_on_c, 12, 61, 93
29, 409222, Note_on_c, 12, 68, 96
29, 409224, Note_on_c, 12, 60, 0
29, 409441, Note_on_c, 12, 72, 93
29, 409443, Note_on_c, 12, 63, 95
29, 409444, Note_on_c, 12, 75, 96
29, 409445, Note_on_c, 12, 73, 0
29, 409449, Note_on_c, 12, 70, 85
29, 409454, Note_on_c, 12, 70, 0
29, 409461, Note_on_c, 12, 61, 0
29, 409462, Note_on_c, 12, 68, 0
29, 409921, Note_on_c, 12, 72, 0
29, 409923, Note_on_c, 12, 63, 0
29, 409924, Note_on_c, 12, 75, 0
29, 409929, Note_on_c, 12, 70, 0
29, 409931, Note_on_c, 12, 61, 97
29, 409933, Note_on_c, 12, 70, 84
29, 409942, Note_on_c, 12, 73, 88
29, 409945, Note_on_c, 12, 68, 89
29, 410410, Note_on_c, 12, 60, 82
29, 410410, Note_on_c, 12, 72, 87
29, 410411, Note_on_c, 12, 61, 0
29, 410413, Note_on_c, 12, 70, 0
29, 410417, Note_on_c, 12, 68, 85
29, 410420, Note_on_c, 12, 66, 84
29, 410422, Note_on_c, 12, 73, 0
29, 410425, Note_on_c, 12, 68, 0
29, 410886, Note_on_c, 12, 65, 87
29, 410890, Note_on_c, 12, 60, 0
29, 410890, Note_on_c, 12, 72, 0
29, 410892, Note_on_c, 12, 70, 82
29, 410897, Note_on_c, 12, 68, 0
29, 410897, Note_on_c, 12, 58, 91
29, 410900, Note_on_c, 12, 66, 0
29, 410902, Note_on_c, 12, 66, 79
29, 411246, Note_on_c, 12, 65, 0
29, 411252, Note_on_c, 12, 70, 0
29, 411257, Note_on_c, 12, 58, 0
29, 411262, Note_on_c, 12, 66, 0
29, 411366, Note_on_c, 12, 65, 91
29, 411368, Note_on_c, 12, 66, 84
29, 411379, Note_on_c, 12, 70, 86
29, 411385, Note_on_c, 12, 58, 79
29, 411726, Note_on_c, 12, 65, 0
29, 411728, Note_on_c, 12, 66, 0
29, 411739, Note_on_c, 12, 70, 0
29, 411745, Note_on_c, 12, 58, 0
29, 411841, Note_on_c, 12, 60, 96
29, 411844, Note_on_c, 12, 72, 83
29, 411846, Note_on_c, 12, 66, 90
29, 411852, Note_on_c, 12, 68, 97
29, 412081, Note_on_c, 12, 60, 0
29, 412083, Note_on_c, 12, 70, 92
29, 412084, Note_on_c, 12, 72, 0
29, 412084, Note_on_c, 12, 68, 96
29, 412086, Note_on_c, 12, 66, 0
29, 412090, Note_on_c, 12, 73, 94
29, 412091, Note_on_c, 12, 61, 97
29, 412092, Note_on_c, 12, 68, 0
29, 412323, Note_on_c, 12, 70, 0
29, 412323, Note_on_c, 12, 63, 93
29, 412324, Note_on_c, 12, 68, 0
29, 412324, Note_on_c, 12, 72, 87
29, 412330, Note_on_c, 12, 73, 0
29, 412331, Note_on_c, 12, 61, 0
29, 412333, Note_on_c, 12, 70, 82
29, 412342, Note_on_c, 12, 75, 90
29, 412803, Note_on_c, 12, 63, 0
29, 412803, Note_on_c, 12, 68, 82
29, 412804, Note_on_c, 12, 72, 0
29, 412812, Note_on_c, 12, 70, 78
29, 412813, Note_on_c, 12, 70, 0
29, 412819, Note_on_c, 12, 61, 92
29, 412822, Note_on_c, 12, 75, 0
29, 412824, Note_on_c, 12, 73, 78
29, 413283, Note_on_c, 12, 68, 0
29, 413285, Note_on_c, 12, 60, 95
29, 413291, Note_on_c, 12, 72, 81
29, 413292, Note_on_c, 12, 70, 0
29, 413297, Note_on_c, 12, 68, 90
29, 413299, Note_on_c, 12, 61, 0
29, 413299, Note_on_c, 12, 66, 89
29, 413304, Note_on_c, 12, 73, 0
29, 413765, Note_on_c, 12, 60, 0
29, 413765, Note_on_c, 12, 58, 84
29, 413768, Note_on_c, 12, 66, 94
29, 413770, Note_on_c, 12, 70, 90
29, 413771, Note_on_c, 12, 72, 0
29, 413771, Note_on_c, 12, 65, 92
29, 413777, Note_on_c, 12, 68, 0
29, 413779, Note_on_c, 12, 66, 0
29, 414125, Note_on_c, 12, 58, 0
29, 414128, Note_on_c, 12, 66, 0
29, 414130, Note_on_c, 12, 70, 0
29, 414131, Note_on_c, 12, 65, 0
29, 414245, Note_on_c, 12, 66, 84
29, 414259, Note_on_c, 12, 65, 81
29, 414259, Note_on_c, 12, 58, 86
29, 414260, Note_on_c, 12, 70, 86
29, 414605, Note_on_c, 12, 66, 0
29, 414619, Note_on_c, 12, 65, 0
29, 414619, Note_on_c, 12, 58, 0
29, 414620, Note_on_c, 12, 70, 0
29, 414720, Note_on_c, 12, 60, 95
29, 414725, Note_on_c, 12, 66, 81
29, 414734, Note_on_c, 12, 68, 83
29, 414740, Note_on_c, 12, 72, 82
29, 414960, Note_on_c, 12, 60, 0
29, 414965, Note_on_c, 12, 66, 0
29, 414969, Note_on_c, 12, 73, 88
29, 414974, Note_on_c, 12, 68, 0
29, 414974, Note_on_c, 12, 61, 95
29, 414979, Note_on_c, 12, 70, 85
29, 414980, Note_on_c, 12, 72, 0
29, 414982, Note_on_c, 12, 68, 91
29, 415205, Note_on_c, 12, 70, 97
29, 415209, Note_on_c, 12, 73, 0
29, 415212, Note_on_c, 12, 63, 89
29, 415214, Note_on_c, 12, 61, 0
29, 415219, Note_on_c, 12, 70, 0
29, 415219, Note_on_c, 12, 72, 82
29, 415221, Note_on_c, 12, 75, 87
29, 415222, Note_on_c, 12, 68, 0
29, 415565, Note_on_c, 12, 70, 0
29, 415572, Note_on_c, 12, 63, 0
29, 415579, Note_on_c, 12, 72, 0
29, 415581, Note_on_c, 12, 75, 0
29, 415680, Control_c, 13, 7, 108
29, 416173, Note_on_c, 13, 54, 83
29, 416533, Note_on_c, 13, 54, 0
29, 416645, Note_on_c, 13, 54, 81
29, 417005, Note_on_c, 13, 54, 0
29, 417143, Note_on_c, 13, 54, 77
29, 417503, Note_on_c, 13, 54, 0
29, 418083, Note_on_c, 13, 54, 78
29, 418443, Note_on_c, 13, 54, 0
29, 418571, Note_on_c, 13, 54, 72
29, 418931, Note_on_c, 13, 54, 0
29, 419052, Note_on_c, 13, 54, 76
29, 419412, Note_on_c, 13, 54, 0
29, 421934, Note_on_c, 13, 54, 83
29, 422294, Note_on_c, 13, 54, 0
29, 422415, Note_on_c, 13, 54, 67
29, 422775, Note_on_c, 13, 54, 0
29, 422898, Note_on_c, 13, 54, 68
29, 423258, Note_on_c, 13, 54, 0
29, 427208, Note_on_c, 13, 70, 107
29, 427568, Note_on_c, 13, 70, 0
29, 427689, Note_on_c, 13, 70, 91
29, 428049, Note_on_c, 13, 70, 0
29, 428175, Note_on_c, 13, 70, 110
29, 428535, Note_on_c, 13, 70, 0
29, 428646, Note_on_c, 13, 72, 99
29, 428884, Note_on_c, 13, 73, 99
29, 428886, Note_on_c, 13, 72, 0
29, 429124, Note_on_c, 13, 73, 0
29, 429139, Note_on_c, 13, 75, 108
29, 429605, Note_on_c, 13, 73, 108
29, 429619, Note_on_c, 13, 75, 0
29, 430085, Note_on_c, 13, 73, 0
29, 430098, Note_on_c, 13, 72, 97
29, 430575, Note_on_c, 13, 70, 109
29, 430578, Note_on_c, 13, 72, 0
29, 430935, Note_on_c, 13, 70, 0
29, 431041, Note_on_c, 13, 70, 95
29, 431401, Note_on_c, 13, 70, 0
29, 431523, Note_on_c, 13, 72, 108
29, 431763, Note_on_c, 13, 72, 0
29, 431765, Note_on_c, 13, 73, 110
29, 432005, Note_on_c, 13, 73, 0
29, 432007, Note_on_c, 13, 75, 110
29, 432487, Note_on_c, 13, 75, 0
29, 432503, Note_on_c, 13, 70, 108
29, 432863, Note_on_c, 13, 70, 0
29, 432963, Note_on_c, 13, 70, 93
29, 433323, Note_on_c, 13, 70, 0
29, 433459, Note_on_c, 13, 70, 102
29, 433819, Note_on_c, 13, 70, 0
29, 433926, Note_on_c, 13, 72, 99
29, 434166, Note_on_c, 13, 72, 0
29, 434182, Note_on_c, 13, 73, 95
29, 434422, Note_on_c, 13, 73, 0
29, 434422, Note_on_c, 13, 75, 110
29, 434902, Note_on_c, 13, 75, 0
29, 435375, Note_on_c, 13, 70, 107
29, 435735, Note_on_c, 13, 70, 0
29, 435844, Note_on_c, 13, 70, 102
29, 436204, Note_on_c, 13, 70, 0
29, 436340, Note_on_c, 13, 70, 99
29, 436700, Note_on_c, 13, 70, 0
29, 436800, Note_on_c, 13, 70, 101
29, 436809, Note_on_c, 13, 61, 104
29, 436825, Note_on_c, 13, 58, 95
29, 437160, Note_on_c, 13, 70, 0
29, 437169, Note_on_c, 13, 61, 0
29, 437185, Note_on_c, 13, 58, 0
29, 437296, Note_on_c, 13, 61, 105
29, 437299, Note_on_c, 13, 70, 95
29, 437304, Note_on_c, 13, 58, 113
29, 437656, Note_on_c, 13, 61, 0
29, 437659, Note_on_c, 13, 70, 0
29, 437664, Note_on_c, 13, 58, 0
29, 437764, Note_on_c, 13, 61, 95
29, 437765, Note_on_c, 13, 58, 115
29, 437782, Note_on_c, 13, 70, 99
29, 438124, Note_on_c, 13, 61, 0
29, 438125, Note_on_c, 13, 58, 0
29, 438142, Note_on_c, 13, 70, 0
29, 438742, Note_on_c, 13, 71, 109
29, 439102, Note_on_c, 13, 71, 0
29, 439209, Note_on_c, 13, 71, 112
29, 439569, Note_on_c, 13, 71, 0
29, 439702, Note_on_c, 13, 71, 113
29, 440062, Note_on_c, 13, 71, 0
29, 440185, Note_on_c, 13, 72, 111
29, 440401, Note_on_c, 13, 73, 117
29, 440425, Note_on_c, 13, 72, 0
29, 440641, Note_on_c, 13, 73, 0
29, 440653, Note_on_c, 13, 75, 119
29, 442090, Note_on_c, 13, 72, 123
29, 442093, Note_on_c, 13, 75, 0
29, 442450, Note_on_c, 13, 72, 0
29, 442580, Note_on_c, 13, 72, 114
29, 442940, Note_on_c, 13, 72, 0
29, 443040, Note_on_c, 13, 72, 114
29, 443400, Note_on_c, 13, 72, 0
29, 443528, Note_on_c, 13, 72, 110
29, 443768, Note_on_c, 13, 72, 0
29, 443784, Note_on_c, 13, 73, 115
29, 444006, Note_on_c, 13, 75, 118
29, 444024, Note_on_c, 13, 73, 0
29, 444486, Note_on_c, 13, 75, 0
29, 444490, Note_on_c, 13, 72, 113
29, 444724, Note_on_c, 13, 73, 114
29, 444730, Note_on_c, 13, 72, 0
29, 444964, Note_on_c, 13, 73, 0
29, 444977, Note_on_c, 13, 75, 109
29, 445457, Note_on_c, 13, 75, 0
29, 445465, Note_on_c, 13, 70, 107
29, 445825, Note_on_c, 13, 70, 0
29, 445921, Note_on_c, 13, 70, 107
29, 446281, Note_on_c, 13, 70, 0
29, 446401, Note_on_c, 13, 72, 112
29, 446641, Note_on_c, 13, 72, 0
29, 446662, Note_on_c, 13, 73, 105
29, 446881, Note_on_c, 13, 75, 113
29, 446902, Note_on_c, 13, 73, 0
29, 447361, Note_on_c, 13, 75, 0
29, 448800, Program_c, 13, 48
29, 448809, Note_on_c, 13, 55, 105
29, 448816, Note_on_c, 13, 75, 98
29, 448824, Note_on_c, 13, 67, 107
29, 448929, Note_on_c, 13, 55, 0
29, 448936, Note_on_c, 13, 75, 0
29, 448944, Note_on_c, 13, 67, 0
29, 449280, Program_c, 13, 44
29, 449289, Note_on_c, 13, 63, 88
29, 449296, Note_on_c, 13, 55, 96
29, 449521, Note_on_c, 13, 55, 92
29, 449522, Note_on_c, 13, 64, 80
29, 449529, Note_on_c, 13, 63, 0
29, 449536, Note_on_c, 13, 55, 0
29, 449761, Note_on_c, 13, 55, 0
29, 449762, Note_on_c, 13, 64, 0
29, 449770, Note_on_c, 13, 55, 78
29, 449783, Note_on_c, 13, 67, 91
29, 450002, Note_on_c, 13, 68, 89
29, 450010, Note_on_c, 13, 55, 0
29, 450019, Note_on_c, 13, 55, 98
29, 450023, Note_on_c, 13, 67, 0
29, 450242, Note_on_c, 13, 68, 0
29, 450253, Note_on_c, 13, 55, 98
29, 450259, Note_on_c, 13, 55, 0
29, 450259, Note_on_c, 13, 67, 88
29, 450493, Note_on_c, 13, 55, 0
29, 450497, Note_on_c, 13, 55, 79
29, 450499, Note_on_c, 13, 67, 0
29, 450503, Note_on_c, 13, 65, 84
29, 450720, Program_c, 13, 48
29, 450734, Note_on_c, 13, 55, 89
29, 450737, Note_on_c, 13, 55, 0
29, 450743, Note_on_c, 13, 65, 0
29, 450745, Note_on_c, 13, 63, 93
29, 450829, Note_on_c, 13, 55, 0
29, 450840, Note_on_c, 13, 63, 0
29, 451200, Program_c, 13, 44
29, 451220, Note_on_c, 13, 55, 92
29, 451220, Note_on_c, 13, 63, 87
29, 451455, Note_on_c, 13, 64, 94
29, 451460, Note_on_c, 13, 55, 0
29, 451460, Note_on_c, 13, 63, 0
29, 451463, Note_on_c, 13, 55, 87
29, 451695, Note_on_c, 13, 64, 0
29, 451697, Note_on_c, 13, 55, 98
29, 451702, Note_on_c, 13, 67, 79
29, 451703, Note_on_c, 13, 55, 0
29, 451925, Note_on_c, 13, 68, 81
29, 451930, Note_on_c, 13, 55, 79
29, 451937, Note_on_c, 13, 55, 0
29, 451942, Note_on_c, 13, 67, 0
29, 452163, Note_on_c, 13, 55, 87
29, 452165, Note_on_c, 13, 68, 0
29, 452165, Note_on_c, 13, 67, 95
29, 452170, Note_on_c, 13, 55, 0
29, 452403, Note_on_c, 13, 55, 0
29, 452405, Note_on_c, 13, 67, 0
29, 452407, Note_on_c, 13, 65, 86
29, 452413, Note_on_c, 13, 55, 79
29, 452640, Note_on_c, 13, 55, 80
29, 452640, Note_on_c, 13, 63, 92
29, 452647, Note_on_c, 13, 65, 0
29, 452653, Note_on_c, 13, 55, 0
29, 452678, Note_on_c, 13, 55, 0
29, 452678, Note_on_c, 13, 63, 0
29, 453120, Program_c, 13, 44
29, 453133, Note_on_c, 13, 55, 83
29, 453142, Note_on_c, 13, 63, 82
29, 453363, Note_on_c, 13, 55, 97
29, 453373, Note_on_c, 13, 55, 0
29, 453382, Note_on_c, 13, 63, 0
29, 453382, Note_on_c, 13, 64, 96
29, 453603, Note_on_c, 13, 55, 0
29, 453612, Note_on_c, 13, 67, 79
29, 453614, Note_on_c, 13, 55, 97
29, 453622, Note_on_c, 13, 64, 0
29, 453852, Note_on_c, 13, 67, 0
29, 453854, Note_on_c, 13, 55, 0
29, 453856, Note_on_c, 13, 68, 86
29, 453857, Note_on_c, 13, 55, 78
29, 454096, Note_on_c, 13, 68, 0
29, 454097, Note_on_c, 13, 55, 0
29, 454100, Note_on_c, 13, 55, 92
29, 454104, Note_on_c, 13, 67, 85
29, 454327, Note_on_c, 13, 55, 92
29, 454327, Note_on_c, 13, 65, 80
29, 454340, Note_on_c, 13, 55, 0
29, 454344, Note_on_c, 13, 67, 0
29, 454560, Program_c, 13, 48
29, 454560, Note_on_c, 13, 55, 86
29, 454560, Note_on_c, 13, 63, 89
29, 454567, Note_on_c, 13, 55, 0
29, 454567, Note_on_c, 13, 65, 0
29, 454598, Note_on_c, 13, 55, 0
29, 454598, Note_on_c, 13, 63, 0
29, 455046, Note_on_c, 13, 55, 113
29, 455056, Note_on_c, 13, 72, 104
29, 455059, Note_on_c, 13, 63, 95
29, 455166, Note_on_c, 13, 55, 0
29, 455176, Note_on_c, 13, 72, 0
29, 455179, Note_on_c, 13, 63, 0
29, 455522, Note_on_c, 13, 55, 109
29, 455542, Note_on_c, 13, 67, 96
29, 455642, Note_on_c, 13, 55, 0
29, 455662, Note_on_c, 13, 67, 0
29, 456000, Program_c, 13, 44
29, 456007, Note_on_c, 13, 63, 79
29, 456009, Note_on_c, 13, 55, 91
29, 456247, Note_on_c, 13, 63, 0
29, 456249, Note_on_c, 13, 55, 0
29, 456253, Note_on_c, 13, 55, 97
29, 456255, Note_on_c, 13, 64, 97
29, 456484, Note_on_c, 13, 67, 80
29, 456489, Note_on_c, 13, 55, 80
29, 456493, Note_on_c, 13, 55, 0
29, 456495, Note_on_c, 13, 64, 0
29, 456722, Note_on_c, 13, 55, 95
29, 456722, Note_on_c, 13, 68, 78
29, 456724, Note_on_c, 13, 67, 0
29, 456729, Note_on_c, 13, 55, 0
29, 456962, Note_on_c, 13, 55, 0
29, 456962, Note_on_c, 13, 68, 0
29, 456980, Note_on_c, 13, 67, 83
29, 456983, Note_on_c, 13, 55, 85
29, 457213, Note_on_c, 13, 55, 97
29, 457220, Note_on_c, 13, 67, 0
29, 457223, Note_on_c, 13, 55, 0
29, 457225, Note_on_c, 13, 64, 93
29, 457440, Program_c, 13, 48
29, 457440, Note_on_c, 13, 55, 81
29, 457440, Note_on_c, 13, 63, 79
29, 457453, Note_on_c, 13, 55, 0
29, 457465, Note_on_c, 13, 64, 0
29, 457478, Note_on_c, 13, 55, 0
29, 457478, Note_on_c, 13, 63, 0
29, 457925, Note_on_c, 13, 56, 99
29, 457944, Note_on_c, 13, 68, 96
29, 457944, Note_on_c, 13, 75, 92
29, 458045, Note_on_c, 13, 56, 0
29, 458064, Note_on_c, 13, 68, 0
29, 458064, Note_on_c, 13, 75, 0
29, 458888, Note_on_c, 13, 75, 97
29, 458892, Note_on_c, 13, 56, 99
29, 458905, Note_on_c, 13, 68, 99
29, 459008, Note_on_c, 13, 75, 0
29, 459012, Note_on_c, 13, 56, 0
29, 459025, Note_on_c, 13, 68, 0
29, 459848, Note_on_c, 13, 56, 95
29, 459855, Note_on_c, 13, 68, 103
29, 459857, Note_on_c, 13, 75, 104
29, 459968, Note_on_c, 13, 56, 0
29, 459975, Note_on_c, 13, 68, 0
29, 459977, Note_on_c, 13, 75, 0
29, 460805, Note_on_c, 13, 75, 102
29, 460813, Note_on_c, 13, 56, 102
29, 460814, Note_on_c, 13, 68, 103
29, 460925, Note_on_c, 13, 75, 0
29, 460933, Note_on_c, 13, 56, 0
29, 460934, Note_on_c, 13, 68, 0
29, 461766, Note_on_c, 13, 72, 103
29, 461766, Note_on_c, 13, 63, 113
29, 461778, Note_on_c, 13, 55, 100
29, 461886, Note_on_c, 13, 72, 0
29, 461886, Note_on_c, 13, 63, 0
29, 461898, Note_on_c, 13, 55, 0
29, 462240, Program_c, 13, 44
29, 462242, Note_on_c, 13, 55, 94
29, 462247, Note_on_c, 13, 63, 93
29, 462482, Note_on_c, 13, 55, 0
29, 462487, Note_on_c, 13, 63, 0
29, 462488, Note_on_c, 13, 55, 78
29, 462500, Note_on_c, 13, 64, 97
29, 462725, Note_on_c, 13, 67, 84
29, 462728, Note_on_c, 13, 55, 0
29, 462733, Note_on_c, 13, 55, 96
29, 462740, Note_on_c, 13, 64, 0
29, 462963, Note_on_c, 13, 55, 96
29, 462965, Note_on_c, 13, 67, 0
29, 462973, Note_on_c, 13, 55, 0
29, 462973, Note_on_c, 13, 68, 84
29, 463203, Note_on_c, 13, 55, 0
29, 463207, Note_on_c, 13, 67, 83
29, 463213, Note_on_c, 13, 68, 0
29, 463214, Note_on_c, 13, 55, 86
29, 463445, Note_on_c, 13, 65, 96
29, 463447, Note_on_c, 13, 67, 0
29, 463454, Note_on_c, 13, 55, 0
29, 463458, Note_on_c, 13, 55, 78
29, 463680, Note_on_c, 13, 55, 98
29, 463680, Note_on_c, 13, 63, 90
29, 463685, Note_on_c, 13, 65, 0
29, 463698, Note_on_c, 13, 55, 0
29, 463718, Note_on_c, 13, 55, 0
29, 463718, Note_on_c, 13, 63, 0
29, 464160, Program_c, 13, 44
29, 464168, Note_on_c, 13, 55, 85
29, 464179, Note_on_c, 13, 63, 85
29, 464403, Note_on_c, 13, 55, 86
29, 464404, Note_on_c, 13, 64, 82
29, 464408, Note_on_c, 13, 55, 0
29, 464419, Note_on_c, 13, 63, 0
29, 464643, Note_on_c, 13, 55, 0
29, 464644, Note_on_c, 13, 64, 0
29, 464647, Note_on_c, 13, 55, 89
29, 464651, Note_on_c, 13, 67, 90
29, 464887, Note_on_c, 13, 55, 0
29, 464891, Note_on_c, 13, 67, 0
29, 464891, Note_on_c, 13, 68, 80
29, 464903, Note_on_c, 13, 55, 79
29, 465131, Note_on_c, 13, 68, 0
29, 465134, Note_on_c, 13, 67, 84
29, 465138, Note_on_c, 13, 55, 97
29, 465143, Note_on_c, 13, 55, 0
29, 465361, Note_on_c, 13, 55, 79
29, 465374, Note_on_c, 13, 67, 0
29, 465378, Note_on_c, 13, 55, 0
29, 465379, Note_on_c, 13, 65, 80
29, 465600, Program_c, 13, 48
29, 465600, Note_on_c, 13, 55, 87
29, 465600, Note_on_c, 13, 63, 82
29, 465601, Note_on_c, 13, 55, 0
29, 465619, Note_on_c, 13, 65, 0
29, 465638, Note_on_c, 13, 55, 0
29, 465638, Note_on_c, 13, 63, 0
29, 466085, Note_on_c, 13, 55, 100
29, 466092, Note_on_c, 13, 63, 97
29, 466104, Note_on_c, 13, 72, 103
29, 466205, Note_on_c, 13, 55, 0
29, 466212, Note_on_c, 13, 63, 0
29, 466224, Note_on_c, 13, 72, 0
29, 466561, Note_on_c, 13, 67, 106
29, 466580, Note_on_c, 13, 55, 111
29, 466681, Note_on_c, 13, 67, 0
29, 466700, Note_on_c, 13, 55, 0
29, 467040, Program_c, 13, 44
29, 467047, Note_on_c, 13, 55, 88
29, 467050, Note_on_c, 13, 63, 79
29, 467285, Note_on_c, 13, 64, 88
29, 467287, Note_on_c, 13, 55, 0
29, 467290, Note_on_c, 13, 63, 0
29, 467293, Note_on_c, 13, 55, 91
29, 467525, Note_on_c, 13, 64, 0
29, 467528, Note_on_c, 13, 55, 91
29, 467531, Note_on_c, 13, 67, 98
29, 467533, Note_on_c, 13, 55, 0
29, 467768, Note_on_c, 13, 55, 0
29, 467771, Note_on_c, 13, 67, 0
29, 467785, Note_on_c, 13, 55, 83
29, 467785, Note_on_c, 13, 68, 85
29, 468005, Note_on_c, 13, 67, 98
29, 468019, Note_on_c, 13, 55, 91
29, 468025, Note_on_c, 13, 55, 0
29, 468025, Note_on_c, 13, 68, 0
29, 468245, Note_on_c, 13, 67, 0
29, 468247, Note_on_c, 13, 64, 81
29, 468255, Note_on_c, 13, 55, 97
29, 468259, Note_on_c, 13, 55, 0
29, 468480, Program_c, 13, 48
29, 468480, Note_on_c, 13, 55, 93
29, 468480, Note_on_c, 13, 63, 86
29, 468487, Note_on_c, 13, 64, 0
29, 468495, Note_on_c, 13, 55, 0
29, 468518, Note_on_c, 13, 55, 0
29, 468518, Note_on_c, 13, 63, 0
29, 468966, Note_on_c, 13, 72, 106
29, 468976, Note_on_c, 13, 63, 97
29, 468977, Note_on_c, 13, 55, 100
29, 469086, Note_on_c, 13, 72, 0
29, 469096, Note_on_c, 13, 63, 0
29, 469097, Note_on_c, 13, 55, 0
29, 489600, Program_c, 13, 45
29, 489619, Note_on_c, 13, 60, 99
29, 490099, Note_on_c, 13, 60, 0
29, 497280, Program_c, 13, 48
29, 497280, Note_on_c, 13, 65, 82
29, 497288, Note_on_c, 13, 60, 84
29, 497640, Note_on_c, 13, 65, 0
29, 497648, Note_on_c, 13, 60, 0
29, 497773, Note_on_c, 13, 59, 78
29, 497776, Note_on_c, 13, 64, 97
29, 497893, Note_on_c, 13, 59, 0
29, 497896, Note_on_c, 13, 64, 0
29, 498004, Note_on_c, 13, 65, 98
29, 498021, Note_on_c, 13, 60, 83
29, 498124, Note_on_c, 13, 65, 0
29, 498141, Note_on_c, 13, 60, 0
29, 498253, Note_on_c, 13, 59, 86
29, 498258, Note_on_c, 13, 55, 79
29, 498373, Note_on_c, 13, 59, 0
29, 498378, Note_on_c, 13, 55, 0
29, 498490, Note_on_c, 13, 60, 87
29, 498491, Note_on_c, 13, 57, 82
29, 498610, Note_on_c, 13, 60, 0
29, 498611, Note_on_c, 13, 57, 0
29, 498730, Note_on_c, 13, 59, 85
29, 498741, Note_on_c, 13, 55, 95
29, 498850, Note_on_c, 13, 59, 0
29, 498861, Note_on_c, 13, 55, 0
29, 498963, Note_on_c, 13, 59, 82
29, 498965, Note_on_c, 13, 64, 82
29, 499083, Note_on_c, 13, 59, 0
29, 499085, Note_on_c, 13, 64, 0
29, 499212, Note_on_c, 13, 60, 93
29, 499225, Note_on_c, 13, 57, 90
29, 499332, Note_on_c, 13, 60, 0
29, 499345, Note_on_c, 13, 57, 0
29, 499445, Note_on_c, 13, 65, 83
29, 499457, Note_on_c, 13, 60, 81
29, 499565, Note_on_c, 13, 65, 0
29, 499577, Note_on_c, 13, 60, 0
29, 499700, Note_on_c, 13, 59, 81
29, 499705, Note_on_c, 13, 55, 79
29, 499820, Note_on_c, 13, 59, 0
29, 499825, Note_on_c, 13, 55, 0
29, 499926, Note_on_c, 13, 57, 96
29, 499941, Note_on_c, 13, 60, 83
29, 500046, Note_on_c, 13, 57, 0
29, 500061, Note_on_c, 13, 60, 0
29, 500167, Note_on_c, 13, 59, 85
29, 500173, Note_on_c, 13, 55, 95
29, 500287, Note_on_c, 13, 59, 0
29, 500293, Note_on_c, 13, 55, 0
29, 500405, Note_on_c, 13, 59, 93
29, 500413, Note_on_c, 13, 64, 92
29, 500525, Note_on_c, 13, 59, 0
29, 500533, Note_on_c, 13, 64, 0
29, 503520, Program_c, 13, 48
29, 503537, Note_on_c, 13, 60, 92
29, 503544, Note_on_c, 13, 65, 84
29, 503897, Note_on_c, 13, 60, 0
29, 503904, Note_on_c, 13, 65, 0
29, 504005, Note_on_c, 13, 59, 81
29, 504009, Note_on_c, 13, 64, 97
29, 504125, Note_on_c, 13, 59, 0
29, 504129, Note_on_c, 13, 64, 0
29, 504252, Note_on_c, 13, 60, 89
29, 504262, Note_on_c, 13, 65, 88
29, 504372, Note_on_c, 13, 60, 0
29, 504382, Note_on_c, 13, 65, 0
29, 504484, Note_on_c, 13, 55, 97
29, 504485, Note_on_c, 13, 59, 82
29, 504604, Note_on_c, 13, 55, 0
29, 504605, Note_on_c, 13, 59, 0
29, 504737, Note_on_c, 13, 60, 86
29, 504740, Note_on_c, 13, 57, 80
29, 504857, Note_on_c, 13, 60, 0
29, 504860, Note_on_c, 13, 57, 0
29, 504975, Note_on_c, 13, 59, 91
29, 504983, Note_on_c, 13, 55, 86
29, 505095, Note_on_c, 13, 59, 0
29, 505103, Note_on_c, 13, 55, 0
29, 505203, Note_on_c, 13, 64, 96
29, 505211, Note_on_c, 13, 59, 87
29, 505323, Note_on_c, 13, 64, 0
29, 505331, Note_on_c, 13, 59, 0
29, 505444, Note_on_c, 13, 57, 81
29, 505462, Note_on_c, 13, 60, 79
29, 505564, Note_on_c, 13, 57, 0
29, 505582, Note_on_c, 13, 60, 0
29, 505693, Note_on_c, 13, 60, 92
29, 505705, Note_on_c, 13, 65, 92
29, 505813, Note_on_c, 13, 60, 0
29, 505825, Note_on_c, 13, 65, 0
29, 505928, Note_on_c, 13, 55, 80
29, 505944, Note_on_c, 13, 59, 90
29, 506048, Note_on_c, 13, 55, 0
29, 506064, Note_on_c, 13, 59, 0
29, 506164, Note_on_c, 13, 60, 82
29, 506174, Note_on_c, 13, 57, 89
29, 506284, Note_on_c, 13, 60, 0
29, 506294, Note_on_c, 13, 57, 0
29, 506409, Note_on_c, 13, 55, 78
29, 506412, Note_on_c, 13, 59, 86
29, 506529, Note_on_c, 13, 55, 0
29, 506532, Note_on_c, 13, 59, 0
29, 506644, Note_on_c, 13, 59, 97
29, 506663, Note_on_c, 13, 64, 94
29, 506764, Note_on_c, 13, 59, 0
29, 506783, Note_on_c, 13, 64, 0
29, 506896, Note_on_c, 13, 60, 80
29, 506899, Note_on_c, 13, 65, 84
29, 507256, Note_on_c, 13, 60, 0
29, 507259, Note_on_c, 13, 65, 0
29, 507365, Note_on_c, 13, 59, 87
29, 507371, Note_on_c, 13, 64, 81
29, 507485, Note_on_c, 13, 59, 0
29, 507491, Note_on_c, 13, 64, 0
29, 507604, Note_on_c, 13, 60, 85
29, 507613, Note_on_c, 13, 65, 96
29, 507724, Note_on_c, 13, 60, 0
29, 507733, Note_on_c, 13, 65, 0
29, 507849, Note_on_c, 13, 59, 90
29, 507863, Note_on_c, 13, 55, 93
29, 507969, Note_on_c, 13, 59, 0
29, 507983, Note_on_c, 13, 55, 0
29, 508080, Note_on_c, 13, 60, 95
29, 508095, Note_on_c, 13, 57, 96
29, 508200, Note_on_c, 13, 60, 0
29, 508215, Note_on_c, 13, 57, 0
29, 508321, Note_on_c, 13, 59, 90
29, 508330, Note_on_c, 13, 55, 94
29, 508441, Note_on_c, 13, 59, 0
29, 508450, Note_on_c, 13, 55, 0
29, 508577, Note_on_c, 13, 64, 79
29, 508577, Note_on_c, 13, 59, 90
29, 508697, Note_on_c, 13, 64, 0
29, 508697, Note_on_c, 13, 59, 0
29, 512183, Note_on_c, 13, 49, 97
29, 512663, Note_on_c, 13, 49, 0
29, 513135, Note_on_c, 13, 49, 91
29, 513615, Note_on_c, 13, 49, 0
29, 516980, Note_on_c, 13, 49, 85
29, 517460, Note_on_c, 13, 49, 0
29, 517938, Note_on_c, 13, 49, 89
29, 518418, Note_on_c, 13, 49, 0
29, 524655, Note_on_c, 13, 49, 84
29, 525135, Note_on_c, 13, 49, 0
29, 525615, Note_on_c, 13, 49, 93
29, 526095, Note_on_c, 13, 49, 0
29, 527532, Note_on_c, 13, 49, 91
29, 528012, Note_on_c, 13, 49, 0
29, 540480, Note_on_c, 13, 57, 81
29, 540492, Note_on_c, 13, 54, 83
29, 540623, Note_on_c, 13, 57, 0
29, 540635, Note_on_c, 13, 54, 0
29, 540978, Note_on_c, 13, 52, 84
29, 540983, Note_on_c, 13, 56, 80
29, 541049, Note_on_c, 13, 52, 0
29, 541054, Note_on_c, 13, 56, 0
29, 541202, Note_on_c, 13, 54, 89
29, 541209, Note_on_c, 13, 57, 92
29, 541273, Note_on_c, 13, 54, 0
29, 541280, Note_on_c, 13, 57, 0
29, 541441, Note_on_c, 13, 56, 79
29, 541450, Note_on_c, 13, 52, 80
29, 541512, Note_on_c, 13, 56, 0
29, 541521, Note_on_c, 13, 52, 0
29, 541684, Note_on_c, 13, 54, 95
29, 541691, Note_on_c, 13, 50, 78
29, 541755, Note_on_c, 13, 54, 0
29, 541762, Note_on_c, 13, 50, 0
29, 541940, Note_on_c, 13, 49, 93
29, 541945, Note_on_c, 13, 52, 92
29, 542011, Note_on_c, 13, 49, 0
29, 542016, Note_on_c, 13, 52, 0
29, 542174, Note_on_c, 13, 54, 86
29, 542180, Note_on_c, 13, 50, 98
29, 542245, Note_on_c, 13, 54, 0
29, 542251, Note_on_c, 13, 50, 0
29, 542404, Note_on_c, 13, 51, 98
29, 542413, Note_on_c, 13, 48, 94
29, 542475, Note_on_c, 13, 51, 0
29, 542484, Note_on_c, 13, 48, 0
29, 542647, Note_on_c, 13, 57, 86
29, 542660, Note_on_c, 13, 54, 81
29, 542718, Note_on_c, 13, 57, 0
29, 542731, Note_on_c, 13, 54, 0
29, 542886, Note_on_c, 13, 52, 83
29, 542889, Note_on_c, 13, 56, 88
29, 542957, Note_on_c, 13, 52, 0
29, 542960, Note_on_c, 13, 56, 0
29, 543141, Note_on_c, 13, 57, 96
29, 543142, Note_on_c, 13, 54, 97
29, 543212, Note_on_c, 13, 57, 0
29, 543213, Note_on_c, 13, 54, 0
29, 543360, Note_on_c, 13, 52, 96
29, 543364, Note_on_c, 13, 56, 98
29, 543431, Note_on_c, 13, 52, 0
29, 543435, Note_on_c, 13, 56, 0
29, 543600, Note_on_c, 13, 50, 84
29, 543602, Note_on_c, 13, 54, 90
29, 543671, Note_on_c, 13, 50, 0
29, 543673, Note_on_c, 13, 54, 0
29, 543844, Note_on_c, 13, 49, 90
29, 543844, Note_on_c, 13, 52, 94
29, 543915, Note_on_c, 13, 49, 0
29, 543915, Note_on_c, 13, 52, 0
29, 544082, Note_on_c, 13, 50, 87
29, 544095, Note_on_c, 13, 54, 94
29, 544153, Note_on_c, 13, 50, 0
29, 544166, Note_on_c, 13, 54, 0
29, 544325, Note_on_c, 13, 51, 90
29, 544326, Note_on_c, 13, 48, 85
29, 544396, Note_on_c, 13, 51, 0
29, 544397, Note_on_c, 13, 48, 0
29, 544571, Note_on_c, 13, 49, 92
29, 544578, Note_on_c, 13, 52, 78
29, 544642, Note_on_c, 13, 49, 0
29, 544649, Note_on_c, 13, 52, 0
29, 544810, Note_on_c, 13, 50, 95
29, 544815, Note_on_c, 13, 54, 89
29, 544881, Note_on_c, 13, 50, 0
29, 544886, Note_on_c, 13, 54, 0
29, 545044, Note_on_c, 13, 52, 80
29, 545061, Note_on_c, 13, 56, 87
29, 545115, Note_on_c, 13, 52, 0
29, 545132, Note_on_c, 13, 56, 0
29, 545287, Note_on_c, 13, 54, 96
29, 545294, Note_on_c, 13, 57, 97
29, 545358, Note_on_c, 13, 54, 0
29, 545365, Note_on_c, 13, 57, 0
29, 546241, Note_on_c, 13, 60, 96
29, 546319, Note_on_c, 13, 60, 0
29, 546328, Note_on_c, 13, 62, 97
29, 546407, Note_on_c, 13, 62, 0
29, 546413, Note_on_c, 13, 60, 91
29, 546482, Note_on_c, 13, 62, 96
29, 546491, Note_on_c, 13, 60, 0
29, 546561, Note_on_c, 13, 62, 0
29, 546572, Note_on_c, 13, 60, 94
29, 546650, Note_on_c, 13, 60, 0
29, 546652, Note_on_c, 13, 62, 87
29, 546721, Note_on_c, 13, 60, 89
29, 546731, Note_on_c, 13, 62, 0
29, 546799, Note_on_c, 13, 60, 0
29, 546816, Note_on_c, 13, 62, 81
29, 546883, Note_on_c, 13, 60, 92
29, 546895, Note_on_c, 13, 62, 0
29, 546960, Note_on_c, 13, 62, 93
29, 546961, Note_on_c, 13, 60, 0
29, 547039, Note_on_c, 13, 62, 0
29, 547046, Note_on_c, 13, 60, 80
29, 547122, Note_on_c, 13, 62, 88
29, 547124, Note_on_c, 13, 60, 0
29, 547199, Note_on_c, 13, 60, 88
29, 547201, Note_on_c, 13, 62, 0
29, 547277, Note_on_c, 13, 60, 0
29, 547285, Note_on_c, 13, 62, 92
29, 547355, Note_on_c, 13, 60, 91
29, 547364, Note_on_c, 13, 62, 0
29, 547430, Note_on_c, 13, 62, 88
29, 547433, Note_on_c, 13, 60, 0
29, 547509, Note_on_c, 13, 62, 0
29, 547509, Note_on_c, 13, 60, 96
29, 547580, Note_on_c, 13, 62, 85
29, 547587, Note_on_c, 13, 60, 0
29, 547659, Note_on_c, 13, 62, 0
29, 547681, Note_on_c, 13, 60, 88
29, 547756, Note_on_c, 13, 62, 81
29, 547759, Note_on_c, 13, 60, 0
29, 547823, Note_on_c, 13, 60, 89
29, 547835, Note_on_c, 13, 62, 0
29, 547901, Note_on_c, 13, 60, 0
29, 547909, Note_on_c, 13, 62, 98
29, 547974, Note_on_c, 13, 60, 94
29, 547988, Note_on_c, 13, 62, 0
29, 548052, Note_on_c, 13, 60, 0
29, 548056, Note_on_c, 13, 62, 97
29, 548130, Note_on_c, 13, 60, 86
29, 548135, Note_on_c, 13, 62, 0
29, 548208, Note_on_c, 13, 60, 0
29, 548217, Note_on_c, 13, 62, 88
29, 548296, Note_on_c, 13, 62, 0
29, 548303, Note_on_c, 13, 60, 85
29, 548367, Note_on_c, 13, 62, 82
29, 548381, Note_on_c, 13, 60, 0
29, 548446, Note_on_c, 13, 62, 0
29, 548467, Note_on_c, 13, 60, 89
29, 548527, Note_on_c, 13, 62, 78
29, 548545, Note_on_c, 13, 60, 0
29, 548606, Note_on_c, 13, 62, 0
29, 548621, Note_on_c, 13, 60, 98
29, 548699, Note_on_c, 13, 60, 0
29, 548701, Note_on_c, 13, 62, 95
29, 548767, Note_on_c, 13, 60, 86
29, 548780, Note_on_c, 13, 62, 0
29, 548845, Note_on_c, 13, 60, 0
29, 548855, Note_on_c, 13, 62, 95
29, 548934, Note_on_c, 13, 62, 0
29, 548935, Note_on_c, 13, 60, 79
29, 549013, Note_on_c, 13, 60, 0
29, 549016, Note_on_c, 13, 62, 85
29, 549095, Note_on_c, 13, 62, 0
29, 549096, Note_on_c, 13, 60, 86
29, 549174, Note_on_c, 13, 60, 0
29, 549176, Note_on_c, 13, 62, 85
29, 549238, Note_on_c, 13, 60, 95
29, 549255, Note_on_c, 13, 62, 0
29, 549316, Note_on_c, 13, 60, 0
29, 549327, Note_on_c, 13, 62, 90
29, 549406, Note_on_c, 13, 62, 0
29, 549411, Note_on_c, 13, 60, 89
29, 549489, Note_on_c, 13, 60, 0
29, 549493, Note_on_c, 13, 62, 79
29, 549559, Note_on_c, 13, 60, 98
29, 549572, Note_on_c, 13, 62, 0
29, 549637, Note_on_c, 13, 60, 0
29, 549641, Note_on_c, 13, 62, 98
29, 549720, Note_on_c, 13, 62, 0
29, 549720, Note_on_c, 13, 60, 89
29, 549797, Note_on_c, 13, 62, 89
29, 549798, Note_on_c, 13, 60, 0
29, 549876, Note_on_c, 13, 62, 0
29, 549880, Note_on_c, 13, 60, 91
29, 549958, Note_on_c, 13, 60, 0
29, 549966, Note_on_c, 13, 62, 78
29, 550038, Note_on_c, 13, 60, 80
29, 550045, Note_on_c, 13, 62, 0
29, 550101, Note_on_c, 13, 62, 82
29, 550116, Note_on_c, 13, 60, 0
29, 550180, Note_on_c, 13, 62, 0
29, 550190, Note_on_c, 13, 60, 81
29, 550260, Note_on_c, 13, 62, 87
29, 550268, Note_on_c, 13, 60, 0
29, 550335, Note_on_c, 13, 60, 88
29, 550339, Note_on_c, 13, 62, 0
29, 550413, Note_on_c, 13, 60, 0
29, 550413, Note_on_c, 13, 62, 90
29, 550492, Note_on_c, 13, 62, 0
29, 550505, Note_on_c, 13, 60, 92
29, 550583, Note_on_c, 13, 60, 0
29, 550587, Note_on_c, 13, 62, 86
29, 550651, Note_on_c, 13, 60, 83
29, 550666, Note_on_c, 13, 62, 0
29, 550729, Note_on_c, 13, 60, 0
29, 550745, Note_on_c, 13, 62, 89
29, 550824, Note_on_c, 13, 62, 0
29, 550824, Note_on_c, 13, 60, 86
29, 550902, Note_on_c, 13, 60, 0
29, 550906, Note_on_c, 13, 62, 96
29, 550984, Note_on_c, 13, 60, 86
29, 550985, Note_on_c, 13, 62, 0
29, 551062, Note_on_c, 13, 60, 0
29, 551062, Note_on_c, 13, 62, 84
29, 551141, Note_on_c, 13, 62, 0
29, 551146, Note_on_c, 13, 60, 89
29, 551212, Note_on_c, 13, 62, 80
29, 551224, Note_on_c, 13, 60, 0
29, 551283, Note_on_c, 13, 60, 88
29, 551291, Note_on_c, 13, 62, 0
29, 551361, Note_on_c, 13, 60, 0
29, 551367, Note_on_c, 13, 62, 87
29, 551440, Note_on_c, 13, 60, 87
29, 551446, Note_on_c, 13, 62, 0
29, 551518, Note_on_c, 13, 60, 0
29, 551527, Note_on_c, 13, 62, 91
29, 551595, Note_on_c, 13, 60, 93
29, 551606, Note_on_c, 13, 62, 0
29, 551673, Note_on_c, 13, 60, 0
29, 551692, Note_on_c, 13, 62, 93
29, 551762, Note_on_c, 13, 60, 91
29, 551771, Note_on_c, 13, 62, 0
29, 551840, Note_on_c, 13, 60, 0
29, 551851, Note_on_c, 13, 62, 86
29, 551910, Note_on_c, 13, 60, 92
29, 551930, Note_on_c, 13, 62, 0
29, 551988, Note_on_c, 13, 60, 0
29, 552961, Note_on_c, 13, 65, 88
29, 553039, Note_on_c, 13, 65, 0
29, 553059, Note_on_c, 13, 67, 94
29, 553130, Note_on_c, 13, 65, 82
29, 553137, Note_on_c, 13, 67, 0
29, 553201, Note_on_c, 13, 67, 85
29, 553208, Note_on_c, 13, 65, 0
29, 553278, Note_on_c, 13, 65, 88
29, 553279, Note_on_c, 13, 67, 0
29, 553353, Note_on_c, 13, 67, 90
29, 553356, Note_on_c, 13, 65, 0
29, 553431, Note_on_c, 13, 67, 0
29, 553450, Note_on_c, 13, 65, 90
29, 553528, Note_on_c, 13, 65, 0
29, 553531, Note_on_c, 13, 67, 92
29, 553606, Note_on_c, 13, 65, 89
29, 553609, Note_on_c, 13, 67, 0
29, 553679, Note_on_c, 13, 67, 88
29, 553684, Note_on_c, 13, 65, 0
29, 553751, Note_on_c, 13, 65, 97
29, 553757, Note_on_c, 13, 67, 0
29, 553826, Note_on_c, 13, 67, 79
29, 553829, Note_on_c, 13, 65, 0
29, 553904, Note_on_c, 13, 67, 0
29, 553921, Note_on_c, 13, 65, 87
29, 553990, Note_on_c, 13, 67, 81
29, 553999, Note_on_c, 13, 65, 0
29, 554068, Note_on_c, 13, 67, 0
29, 554070, Note_on_c, 13, 65, 85
29, 554141, Note_on_c, 13, 67, 95
29, 554148, Note_on_c, 13, 65, 0
29, 554219, Note_on_c, 13, 67, 0
29, 554228, Note_on_c, 13, 65, 79
29, 554306, Note_on_c, 13, 65, 0
29, 554312, Note_on_c, 13, 67, 83
29, 554390, Note_on_c, 13, 67, 0
29, 554390, Note_on_c, 13, 65, 96
29, 554468, Note_on_c, 13, 65, 0
29, 554469, Note_on_c, 13, 67, 93
29, 554543, Note_on_c, 13, 65, 80
29, 554547, Note_on_c, 13, 67, 0
29, 554621, Note_on_c, 13, 65, 0
29, 554621, Note_on_c, 13, 67, 78
29, 554691, Note_on_c, 13, 65, 80
29, 554699, Note_on_c, 13, 67, 0
29, 554769, Note_on_c, 13, 65, 0
29, 554770, Note_on_c, 13, 67, 94
29, 554840, Note_on_c, 13, 65, 93
29, 554848, Note_on_c, 13, 67, 0
29, 554918, Note_on_c, 13, 65, 0
29, 554922, Note_on_c, 13, 67, 84
29, 555000, Note_on_c, 13, 67, 0
29, 555008, Note_on_c, 13, 65, 98
29, 555086, Note_on_c, 13, 65, 0
29, 555088, Note_on_c, 13, 67, 79
29, 555166, Note_on_c, 13, 67, 0
29, 555169, Note_on_c, 13, 65, 82
29, 555247, Note_on_c, 13, 65, 0
29, 555247, Note_on_c, 13, 67, 89
29, 555309, Note_on_c, 13, 65, 91
29, 555325, Note_on_c, 13, 67, 0
29, 555387, Note_on_c, 13, 65, 0
29, 555392, Note_on_c, 13, 67, 84
29, 555470, Note_on_c, 13, 67, 0
29, 555474, Note_on_c, 13, 65, 78
29, 555549, Note_on_c, 13, 67, 81
29, 555552, Note_on_c, 13, 65, 0
29, 555627, Note_on_c, 13, 67, 0
29, 555629, Note_on_c, 13, 65, 92
29, 555707, Note_on_c, 13, 65, 0
29, 555709, Note_on_c, 13, 67, 91
29, 555787, Note_on_c, 13, 67, 0
29, 555800, Note_on_c, 13, 65, 90
29, 555876, Note_on_c, 13, 67, 95
29, 555878, Note_on_c, 13, 65, 0
29, 555953, Note_on_c, 13, 65, 90
29, 555954, Note_on_c, 13, 67, 0
29, 556031, Note_on_c, 13, 65, 0
29, 556034, Note_on_c, 13, 67, 97
29, 556111, Note_on_c, 13, 65, 81
29, 556112, Note_on_c, 13, 67, 0
29, 556170, Note_on_c, 13, 67, 97
29, 556189, Note_on_c, 13, 65, 0
29, 556248, Note_on_c, 13, 67, 0
29, 556272, Note_on_c, 13, 65, 93
29, 556338, Note_on_c, 13, 67, 98
29, 556350, Note_on_c, 13, 65, 0
29, 556416, Note_on_c, 13, 67, 0
29, 556429, Note_on_c, 13, 65, 81
29, 556504, Note_on_c, 13, 67, 89
29, 556507, Note_on_c, 13, 65, 0
29, 556567, Note_on_c, 13, 65, 86
29, 556582, Note_on_c, 13, 67, 0
29, 556645, Note_on_c, 13, 65, 0
29, 556651, Note_on_c, 13, 67, 79
29, 556727, Note_on_c, 13, 65, 97
29, 556729, Note_on_c, 13, 67, 0
29, 556805, Note_on_c, 13, 65, 0
29, 557781, Note_on_c, 13, 65, 97
29, 557859, Note_on_c, 13, 65, 0
29, 557861, Note_on_c, 13, 67, 82
29, 557934, Note_on_c, 13, 65, 97
29, 557939, Note_on_c, 13, 67, 0
29, 558012, Note_on_c, 13, 65, 0
29, 558018, Note_on_c, 13, 67, 87
29, 558086, Note_on_c, 13, 65, 81
29, 558096, Note_on_c, 13, 67, 0
29, 558161, Note_on_c, 13, 67, 98
29, 558164, Note_on_c, 13, 65, 0
29, 558239, Note_on_c, 13, 67, 0
29, 558251, Note_on_c, 13, 65, 97
29, 558327, Note_on_c, 13, 67, 78
29, 558329, Note_on_c, 13, 65, 0
29, 558399, Note_on_c, 13, 65, 82
29, 558405, Note_on_c, 13, 67, 0
29, 558477, Note_on_c, 13, 65, 0
29, 558486, Note_on_c, 13, 67, 89
29, 558546, Note_on_c, 13, 65, 87
29, 558564, Note_on_c, 13, 67, 0
29, 558621, Note_on_c, 13, 67, 95
29, 558624, Note_on_c, 13, 65, 0
29, 558699, Note_on_c, 13, 67, 0
29, 558713, Note_on_c, 13, 65, 98
29, 558781, Note_on_c, 13, 67, 85
29, 558791, Note_on_c, 13, 65, 0
29, 558859, Note_on_c, 13, 67, 0
29, 558873, Note_on_c, 13, 65, 91
29, 558951, Note_on_c, 13, 65, 0
29, 558951, Note_on_c, 13, 67, 87
29, 559020, Note_on_c, 13, 65, 87
29, 559029, Note_on_c, 13, 67, 0
29, 559098, Note_on_c, 13, 65, 0
29, 559098, Note_on_c, 13, 67, 95
29, 559169, Note_on_c, 13, 65, 84
29, 559176, Note_on_c, 13, 67, 0
29, 559247, Note_on_c, 13, 65, 0
29, 559254, Note_on_c, 13, 67, 96
29, 559332, Note_on_c, 13, 67, 0
29, 559341, Note_on_c, 13, 65, 86
29, 559416, Note_on_c, 13, 67, 84
29, 559419, Note_on_c, 13, 65, 0
29, 559487, Note_on_c, 13, 65, 79
29, 559494, Note_on_c, 13, 67, 0
29, 559565, Note_on_c, 13, 65, 0
29, 559565, Note_on_c, 13, 67, 87
29, 559643, Note_on_c, 13, 67, 0
29, 559662, Note_on_c, 13, 65, 97
29, 559718, Note_on_c, 13, 67, 94
29, 559740, Note_on_c, 13, 65, 0
29, 559796, Note_on_c, 13, 67, 0
29, 559811, Note_on_c, 13, 65, 81
29, 559889, Note_on_c, 13, 65, 0
29, 559898, Note_on_c, 13, 67, 80
29, 559972, Note_on_c, 13, 65, 87
29, 559976, Note_on_c, 13, 67, 0
29, 560050, Note_on_c, 13, 65, 0
29, 560054, Note_on_c, 13, 67, 92
29, 560113, Note_on_c, 13, 65, 85
29, 560132, Note_on_c, 13, 67, 0
29, 560191, Note_on_c, 13, 65, 0
29, 560200, Note_on_c, 13, 67, 97
29, 560270, Note_on_c, 13, 65, 94
29, 560278, Note_on_c, 13, 67, 0
29, 560343, Note_on_c, 13, 67, 79
29, 560348, Note_on_c, 13, 65, 0
29, 560421, Note_on_c, 13, 67, 0
29, 560422, Note_on_c, 13, 65, 89
29, 560500, Note_on_c, 13, 65, 0
29, 560504, Note_on_c, 13, 67, 88
29, 560582, Note_on_c, 13, 67, 0
29, 560590, Note_on_c, 13, 65, 86
29, 560665, Note_on_c, 13, 67, 90
29, 560668, Note_on_c, 13, 65, 0
29, 560740, Note_on_c, 13, 65, 85
29, 560743, Note_on_c, 13, 67, 0
29, 560818, Note_on_c, 13, 65, 0
29, 560830, Note_on_c, 13, 67, 82
29, 560904, Note_on_c, 13, 65, 84
29, 560908, Note_on_c, 13, 67, 0
29, 560982, Note_on_c, 13, 65, 0
29, 560992, Note_on_c, 13, 67, 96
29, 561068, Note_on_c, 13, 65, 89
29, 561070, Note_on_c, 13, 67, 0
29, 561146, Note_on_c, 13, 65, 0
29, 561146, Note_on_c, 13, 67, 97
29, 561210, Note_on_c, 13, 65, 82
29, 561224, Note_on_c, 13, 67, 0
29, 561288, Note_on_c, 13, 65, 0
29, 561304, Note_on_c, 13, 67, 86
29, 561370, Note_on_c, 13, 65, 81
29, 561382, Note_on_c, 13, 67, 0
29, 561446, Note_on_c, 13, 67, 86
29, 561448, Note_on_c, 13, 65, 0
29, 561524, Note_on_c, 13, 67, 0
29, 561540, Note_on_c, 13, 65, 96
29, 561605, Note_on_c, 13, 70, 102
29, 561611, Note_on_c, 13, 55, 87
29, 561618, Note_on_c, 13, 65, 0
29, 561621, Note_on_c, 13, 63, 96
29, 561845, Note_on_c, 13, 70, 0
29, 561851, Note_on_c, 13, 55, 0
29, 561861, Note_on_c, 13, 63, 0
29, 562950, Note_on_c, 13, 55, 105
29, 562980, Note_on_c, 13, 55, 0
29, 562980, Note_on_c, 13, 56, 104
29, 563010, Note_on_c, 13, 56, 0
29, 563010, Note_on_c, 13, 57, 95
29, 563040, Note_on_c, 13, 57, 0
29, 563050, Note_on_c, 13, 58, 99
29, 563170, Note_on_c, 13, 58, 0
29, 563430, Note_on_c, 13, 55, 95
29, 563460, Note_on_c, 13, 55, 0
29, 563460, Note_on_c, 13, 56, 88
29, 563490, Note_on_c, 13, 56, 0
29, 563490, Note_on_c, 13, 57, 103
29, 563520, Note_on_c, 13, 57, 0
29, 563528, Note_on_c, 13, 58, 94
29, 563648, Note_on_c, 13, 58, 0
29, 563910, Note_on_c, 13, 55, 94
29, 563940, Note_on_c, 13, 55, 0
29, 563940, Note_on_c, 13, 56, 87
29, 563970, Note_on_c, 13, 56, 0
29, 563970, Note_on_c, 13, 57, 105
29, 564000, Note_on_c, 13, 57, 0
29, 564023, Note_on_c, 13, 58, 85
29, 564143, Note_on_c, 13, 58, 0
29, 564390, Note_on_c, 13, 55, 99
29, 564420, Note_on_c, 13, 55, 0
29, 564420, Note_on_c, 13, 56, 88
29, 564450, Note_on_c, 13, 56, 0
29, 564450, Note_on_c, 13, 57, 103
29, 564480, Note_on_c, 13, 57, 0
29, 564504, Note_on_c, 13, 58, 98
29, 564624, Note_on_c, 13, 58, 0
29, 564870, Note_on_c, 13, 55, 103
29, 564900, Note_on_c, 13, 55, 0
29, 564900, Note_on_c, 13, 56, 97
29, 564930, Note_on_c, 13, 56, 0
29, 564930, Note_on_c, 13, 57, 90
29, 564960, Note_on_c, 13, 57, 0
29, 564967, Note_on_c, 13, 58, 90
29, 565087, Note_on_c, 13, 58, 0
29, 565350, Note_on_c, 13, 58, 87
29, 565380, Note_on_c, 13, 58, 0
29, 565380, Note_on_c, 13, 60, 100
29, 565410, Note_on_c, 13, 60, 0
29, 565410, Note_on_c, 13, 62, 99
29, 565440, Note_on_c, 13, 62, 0
29, 565459, Note_on_c, 13, 63, 82
29, 565579, Note_on_c, 13, 63, 0
29, 565935, Note_on_c, 13, 62, 80
29, 566055, Note_on_c, 13, 62, 0
29, 566184, Note_on_c, 13, 63, 86
29, 566304, Note_on_c, 13, 63, 0
29, 566407, Note_on_c, 13, 57, 83
29, 566527, Note_on_c, 13, 57, 0
29, 566654, Note_on_c, 13, 58, 82
29, 566774, Note_on_c, 13, 58, 0
29, 566902, Note_on_c, 13, 57, 83
29, 567022, Note_on_c, 13, 57, 0
29, 567122, Note_on_c, 13, 62, 79
29, 567242, Note_on_c, 13, 62, 0
29, 567377, Note_on_c, 13, 58, 97
29, 567497, Note_on_c, 13, 58, 0
29, 567621, Note_on_c, 13, 63, 80
29, 567741, Note_on_c, 13, 63, 0
29, 567847, Note_on_c, 13, 57, 114
29, 567967, Note_on_c, 13, 57, 0
29, 568085, Note_on_c, 13, 58, 81
29, 568205, Note_on_c, 13, 58, 0
29, 568340, Note_on_c, 13, 57, 93
29, 568460, Note_on_c, 13, 57, 0
29, 568560, Note_on_c, 13, 62, 88
29, 568680, Note_on_c, 13, 62, 0
29, 568825, Note_on_c, 13, 63, 95
29, 569185, Note_on_c, 13, 63, 0
29, 569283, Note_on_c, 13, 62, 92
29, 569403, Note_on_c, 13, 62, 0
29, 569520, Note_on_c, 13, 63, 98
29, 569640, Note_on_c, 13, 63, 0
29, 569765, Note_on_c, 13, 57, 92
29, 569885, Note_on_c, 13, 57, 0
29, 570007, Note_on_c, 13, 58, 88
29, 570127, Note_on_c, 13, 58, 0
29, 570246, Note_on_c, 13, 57, 97
29, 570366, Note_on_c, 13, 57, 0
29, 570502, Note_on_c, 13, 62, 92
29, 570622, Note_on_c, 13, 62, 0
29, 570731, Note_on_c, 13, 60, 94
29, 570874, Note_on_c, 13, 60, 0
29, 571218, Note_on_c, 13, 62, 81
29, 571222, Note_on_c, 13, 57, 98
29, 571361, Note_on_c, 13, 62, 0
29, 571365, Note_on_c, 13, 57, 0
29, 573132, Note_on_c, 13, 62, 96
29, 573139, Note_on_c, 13, 57, 115
29, 573275, Note_on_c, 13, 62, 0
29, 573282, Note_on_c, 13, 57, 0
29, 573619, Note_on_c, 13, 60, 110
29, 573690, Note_on_c, 13, 60, 0
29, 573856, Note_on_c, 13, 65, 109
29, 573927, Note_on_c, 13, 65, 0
29, 574105, Note_on_c, 13, 57, 114
29, 574176, Note_on_c, 13, 57, 0
29, 574329, Note_on_c, 13, 58, 99
29, 574400, Note_on_c, 13, 58, 0
29, 577923, Note_on_c, 13, 57, 107
29, 577924, Note_on_c, 13, 62, 100
29, 578066, Note_on_c, 13, 57, 0
29, 578067, Note_on_c, 13, 62, 0
29, 578419, Note_on_c, 13, 60, 109
29, 578490, Note_on_c, 13, 60, 0
29, 578653, Note_on_c, 13, 65, 100
29, 578724, Note_on_c, 13, 65, 0
29, 578880, Note_on_c, 13, 57, 101
29, 578951, Note_on_c, 13, 57, 0
29, 579125, Note_on_c, 13, 58, 113
29, 579196, Note_on_c, 13, 58, 0
29, 580804, Note_on_c, 13, 57, 107
29, 580805, Note_on_c, 13, 62, 95
29, 580947, Note_on_c, 13, 57, 0
29, 580948, Note_on_c, 13, 62, 0
29, 581289, Note_on_c, 13, 60, 106
29, 581360, Note_on_c, 13, 60, 0
29, 581525, Note_on_c, 13, 65, 106
29, 581596, Note_on_c, 13, 65, 0
29, 581784, Note_on_c, 13, 57, 95
29, 581855, Note_on_c, 13, 57, 0
29, 582011, Note_on_c, 13, 58, 100
29, 582082, Note_on_c, 13, 58, 0
29, 582264, Note_on_c, 13, 60, 98
29, 582407, Note_on_c, 13, 60, 0
29, 582744, Note_on_c, 13, 62, 113
29, 582745, Note_on_c, 13, 57, 103
29, 582887, Note_on_c, 13, 62, 0
29, 582888, Note_on_c, 13, 57, 0
29, 583224, Note_on_c, 13, 60, 98
29, 583295, Note_on_c, 13, 60, 0
29, 583465, Note_on_c, 13, 65, 103
29, 583536, Note_on_c, 13, 65, 0
29, 583705, Note_on_c, 13, 57, 110
29, 583776, Note_on_c, 13, 57, 0
29, 583921, Note_on_c, 13, 58, 99
29, 583992, Note_on_c, 13, 58, 0
29, 584176, Note_on_c, 13, 57, 103
29, 584247, Note_on_c, 13, 57, 0
29, 584419, Note_on_c, 13, 65, 103
29, 584490, Note_on_c, 13, 65, 0
29, 584652, Note_on_c, 13, 60, 112
29, 584795, Note_on_c, 13, 60, 0
29, 585133, Note_on_c, 13, 57, 96
29, 585204, Note_on_c, 13, 57, 0
29, 585375, Note_on_c, 13, 58, 99
29, 585446, Note_on_c, 13, 58, 0
29, 585609, Note_on_c, 13, 57, 95
29, 585680, Note_on_c, 13, 57, 0
29, 585846, Note_on_c, 13, 65, 105
29, 585917, Note_on_c, 13, 65, 0
29, 586102, Note_on_c, 13, 60, 112
29, 586245, Note_on_c, 13, 60, 0
29, 586574, Note_on_c, 13, 62, 100
29, 586581, Note_on_c, 13, 57, 100
29, 587654, Note_on_c, 13, 62, 0
29, 587661, Note_on_c, 13, 57, 0
29, 588004, Note_on_c, 13, 62, 101
29, 588021, Note_on_c, 13, 57, 104
29, 588023, Note_on_c, 13, 69, 113
29, 588364, Note_on_c, 13, 62, 0
29, 588381, Note_on_c, 13, 57, 0
29, 588383, Note_on_c, 13, 69, 0
29, 588965, Note_on_c, 13, 69, 107
29, 588978, Note_on_c, 13, 57, 111
29, 588983, Note_on_c, 13, 62, 104
29, 589325, Note_on_c, 13, 69, 0
29, 589338, Note_on_c, 13, 57, 0
29, 589343, Note_on_c, 13, 62, 0
29, 589930, Note_on_c, 13, 60, 114
29, 589938, Note_on_c, 13, 65, 113
29, 589998, Note_on_c, 13, 60, 0
29, 589999, Note_on_c, 13, 62, 105
29, 590006, Note_on_c, 13, 65, 0
29, 590010, Note_on_c, 13, 67, 110
29, 590061, Note_on_c, 13, 64, 111
29, 590067, Note_on_c, 13, 62, 0
29, 590072, Note_on_c, 13, 69, 102
29, 590078, Note_on_c, 13, 67, 0
29, 590129, Note_on_c, 13, 64, 0
29, 590134, Note_on_c, 13, 65, 102
29, 590135, Note_on_c, 13, 71, 111
29, 590140, Note_on_c, 13, 69, 0
29, 590202, Note_on_c, 13, 65, 0
29, 590203, Note_on_c, 13, 71, 0
29, 590207, Note_on_c, 13, 72, 105
29, 590216, Note_on_c, 13, 67, 113
29, 590270, Note_on_c, 13, 69, 107
29, 590274, Note_on_c, 13, 74, 111
29, 590275, Note_on_c, 13, 72, 0
29, 590284, Note_on_c, 13, 67, 0
29, 590335, Note_on_c, 13, 76, 101
29, 590338, Note_on_c, 13, 69, 0
29, 590341, Note_on_c, 13, 71, 106
29, 590342, Note_on_c, 13, 74, 0
29, 590403, Note_on_c, 13, 76, 0
29, 590403, Note_on_c, 13, 72, 96
29, 590409, Note_on_c, 13, 71, 0
29, 590412, Note_on_c, 13, 77, 99
29, 590643, Note_on_c, 13, 72, 0
29, 590652, Note_on_c, 13, 77, 0
29, 593760, Program_c, 13, 45
29, 593767, Note_on_c, 13, 60, 106
29, 593780, Note_on_c, 13, 65, 123
29, 593782, Note_on_c, 13, 69, 122
29, 594247, Note_on_c, 13, 60, 0
29, 594260, Note_on_c, 13, 65, 0
29, 594262, Note_on_c, 13, 69, 0
29, 598081, Note_on_c, 13, 60, 105
29, 598097, Note_on_c, 13, 69, 109
29, 598105, Note_on_c, 13, 65, 114
29, 598561, Note_on_c, 13, 60, 0
29, 598577, Note_on_c, 13, 69, 0
29, 598585, Note_on_c, 13, 65, 0
29, 604320, Program_c, 13, 48
29, 604337, Note_on_c, 13, 76, 86
29, 605057, Note_on_c, 13, 76, 0
29, 605064, Note_on_c, 13, 74, 87
29, 605300, Note_on_c, 13, 72, 98
29, 605304, Note_on_c, 13, 74, 0
29, 605535, Note_on_c, 13, 70, 92
29, 605540, Note_on_c, 13, 72, 0
29, 605775, Note_on_c, 13, 70, 0
29, 605778, Note_on_c, 13, 72, 98
29, 606001, Note_on_c, 13, 74, 93
29, 606018, Note_on_c, 13, 72, 0
29, 606241, Note_on_c, 13, 74, 0
29, 606248, Note_on_c, 13, 76, 92
29, 606722, Note_on_c, 13, 74, 93
29, 606728, Note_on_c, 13, 76, 0
29, 606962, Note_on_c, 13, 74, 0
29, 606964, Note_on_c, 13, 72, 85
29, 607202, Note_on_c, 13, 70, 90
29, 607204, Note_on_c, 13, 72, 0
29, 607682, Note_on_c, 13, 70, 0
29, 607697, Note_on_c, 13, 72, 92
29, 607931, Note_on_c, 13, 74, 98
29, 607937, Note_on_c, 13, 72, 0
29, 608171, Note_on_c, 13, 74, 0
29, 608174, Note_on_c, 13, 76, 98
29, 608894, Note_on_c, 13, 76, 0
29, 608904, Note_on_c, 13, 74, 81
29, 609143, Note_on_c, 13, 72, 86
29, 609144, Note_on_c, 13, 74, 0
29, 609361, Note_on_c, 13, 70, 81
29, 609383, Note_on_c, 13, 72, 0
29, 609601, Note_on_c, 13, 70, 0
29, 609612, Note_on_c, 13, 72, 79
29, 609846, Note_on_c, 13, 74, 83
29, 609852, Note_on_c, 13, 72, 0
29, 610086, Note_on_c, 13, 74, 0
29, 610105, Note_on_c, 13, 76, 97
29, 610803, Note_on_c, 13, 74, 98
29, 610825, Note_on_c, 13, 76, 0
29, 611043, Note_on_c, 13, 74, 0
29, 611044, Note_on_c, 13, 72, 86
29, 611284, Note_on_c, 13, 72, 0
29, 611298, Note_on_c, 13, 70, 87
29, 611538, Note_on_c, 13, 70, 0
29, 611542, Note_on_c, 13, 72, 96
29, 611768, Note_on_c, 13, 74, 92
29, 611782, Note_on_c, 13, 72, 0
29, 612008, Note_on_c, 13, 74, 0
29, 612011, Note_on_c, 13, 76, 92
29, 612487, Note_on_c, 13, 74, 92
29, 612491, Note_on_c, 13, 76, 0
29, 612727, Note_on_c, 13, 74, 0
29, 612739, Note_on_c, 13, 72, 91
29, 612979, Note_on_c, 13, 72, 0
29, 612985, Note_on_c, 13, 70, 78
29, 613461, Note_on_c, 13, 72, 91
29, 613465, Note_on_c, 13, 70, 0
29, 613693, Note_on_c, 13, 74, 92
29, 613701, Note_on_c, 13, 72, 0
29, 613927, Note_on_c, 13, 69, 94
29, 613933, Note_on_c, 13, 74, 0
29, 613934, Note_on_c, 13, 67, 93
29, 614647, Note_on_c, 13, 69, 0
29, 614654, Note_on_c, 13, 67, 0
29, 614662, Note_on_c, 13, 65, 109
29, 614662, Note_on_c, 13, 69, 104
29, 614880, Note_on_c, 13, 64, 91
29, 614888, Note_on_c, 13, 69, 99
29, 614902, Note_on_c, 13, 65, 0
29, 614902, Note_on_c, 13, 69, 0
29, 615120, Note_on_c, 13, 64, 0
29, 615127, Note_on_c, 13, 62, 91
29, 615128, Note_on_c, 13, 69, 0
29, 615142, Note_on_c, 13, 69, 100
29, 615365, Note_on_c, 13, 64, 108
29, 615367, Note_on_c, 13, 62, 0
29, 615378, Note_on_c, 13, 69, 94
29, 615382, Note_on_c, 13, 69, 0
29, 615600, Note_on_c, 13, 65, 98
29, 615605, Note_on_c, 13, 64, 0
29, 615614, Note_on_c, 13, 69, 102
29, 615618, Note_on_c, 13, 69, 0
29, 615840, Note_on_c, 13, 65, 0
29, 615843, Note_on_c, 13, 67, 104
29, 615854, Note_on_c, 13, 69, 0
29, 615857, Note_on_c, 13, 69, 96
29, 616320, Note_on_c, 13, 69, 108
29, 616323, Note_on_c, 13, 67, 0
29, 616330, Note_on_c, 13, 65, 111
29, 616337, Note_on_c, 13, 69, 0
29, 616560, Note_on_c, 13, 69, 0
29, 616565, Note_on_c, 13, 69, 93
29, 616570, Note_on_c, 13, 65, 0
29, 616581, Note_on_c, 13, 64, 111
29, 616801, Note_on_c, 13, 69, 98
29, 616805, Note_on_c, 13, 69, 0
29, 616805, Note_on_c, 13, 62, 93
29, 616821, Note_on_c, 13, 64, 0
29, 617281, Note_on_c, 13, 69, 0
29, 617284, Note_on_c, 13, 64, 103
29, 617285, Note_on_c, 13, 62, 0
29, 617291, Note_on_c, 13, 69, 107
29, 617524, Note_on_c, 13, 64, 0
29, 617531, Note_on_c, 13, 69, 0
29, 617536, Note_on_c, 13, 65, 94
29, 617539, Note_on_c, 13, 69, 106
29, 617761, Note_on_c, 13, 67, 93
29, 617771, Note_on_c, 13, 69, 96
29, 617776, Note_on_c, 13, 65, 0
29, 617779, Note_on_c, 13, 69, 0
29, 618241, Note_on_c, 13, 67, 0
29, 618245, Note_on_c, 13, 65, 94
29, 618251, Note_on_c, 13, 69, 0
29, 618258, Note_on_c, 13, 69, 92
29, 618485, Note_on_c, 13, 65, 0
29, 618489, Note_on_c, 13, 64, 96
29, 618497, Note_on_c, 13, 69, 99
29, 618498, Note_on_c, 13, 69, 0
29, 618720, Note_on_c, 13, 69, 110
29, 618729, Note_on_c, 13, 64, 0
29, 618737, Note_on_c, 13, 69, 0
29, 618740, Note_on_c, 13, 62, 107
29, 619200, Note_on_c, 13, 69, 0
29, 619212, Note_on_c, 13, 64, 111
29, 619220, Note_on_c, 13, 62, 0
29, 619222, Note_on_c, 13, 69, 92
29, 619441, Note_on_c, 13, 65, 92
29, 619452, Note_on_c, 13, 64, 0
29, 619462, Note_on_c, 13, 69, 0
29, 619465, Note_on_c, 13, 69, 108
29, 619681, Note_on_c, 13, 65, 0
29, 619700, Note_on_c, 13, 69, 111
29, 619703, Note_on_c, 13, 67, 109
29, 619705, Note_on_c, 13, 69, 0
29, 620415, Note_on_c, 13, 65, 102
29, 620416, Note_on_c, 13, 69, 99
29, 620420, Note_on_c, 13, 69, 0
29, 620423, Note_on_c, 13, 67, 0
29, 620641, Note_on_c, 13, 69, 103
29, 620651, Note_on_c, 13, 64, 95
29, 620655, Note_on_c, 13, 65, 0
29, 620656, Note_on_c, 13, 69, 0
29, 620881, Note_on_c, 13, 69, 0
29, 620881, Note_on_c, 13, 62, 99
29, 620881, Note_on_c, 13, 69, 108
29, 620891, Note_on_c, 13, 64, 0
29, 621121, Note_on_c, 13, 62, 0
29, 621121, Note_on_c, 13, 69, 0
29, 621132, Note_on_c, 13, 69, 107
29, 621135, Note_on_c, 13, 64, 103
29, 621372, Note_on_c, 13, 69, 0
29, 621375, Note_on_c, 13, 64, 0
29, 621375, Note_on_c, 13, 69, 94
29, 621384, Note_on_c, 13, 65, 102
29, 621615, Note_on_c, 13, 69, 0
29, 621620, Note_on_c, 13, 67, 108
29, 621621, Note_on_c, 13, 69, 100
29, 621624, Note_on_c, 13, 65, 0
29, 622095, Note_on_c, 13, 65, 101
29, 622100, Note_on_c, 13, 67, 0
29, 622101, Note_on_c, 13, 69, 0
29, 622101, Note_on_c, 13, 69, 98
29, 622335, Note_on_c, 13, 65, 0
29, 622339, Note_on_c, 13, 64, 97
29, 622341, Note_on_c, 13, 69, 0
29, 622343, Note_on_c, 13, 69, 99
29, 622578, Note_on_c, 13, 69, 96
29, 622579, Note_on_c, 13, 64, 0
29, 622579, Note_on_c, 13, 62, 94
29, 622583, Note_on_c, 13, 69, 0
29, 623058, Note_on_c, 13, 69, 0
29, 623059, Note_on_c, 13, 62, 0
29, 623271, Control_c, 13, 101, 0
29, 623272, Control_c, 13, 100, 0
29, 623273, Control_c, 13, 6, 12
29, 623274, Control_c, 13, 38, 0
29, 623400, Control_c, 13, 36, 12
29, 623996, Pitch_bend_c, 13, 8192
29, 624001, Note_on_c, 13, 70, 106
29, 624003, Pitch_bend_c, 13, 8512
29, 624009, Pitch_bend_c, 13, 8832
29, 624013, Pitch_bend_c, 13, 8512
29, 624015, Pitch_bend_c, 13, 9152
29, 624021, Pitch_bend_c, 13, 9472
29, 624025, Pitch_bend_c, 13, 8832
29, 624028, Pitch_bend_c, 13, 9792
29, 624034, Pitch_bend_c, 13, 10112
29, 624037, Pitch_bend_c, 13, 9152
29, 624041, Pitch_bend_c, 13, 10432
29, 624046, Pitch_bend_c, 13, 10752
29, 624048, Pitch_bend_c, 13, 9472
29, 624053, Pitch_bend_c, 13, 11072
29, 624060, Pitch_bend_c, 13, 11392
29, 624061, Pitch_bend_c, 13, 9792
29, 624066, Pitch_bend_c, 13, 11712
29, 624073, Pitch_bend_c, 13, 12032
29, 624073, Pitch_bend_c, 13, 10112
29, 624078, Pitch_bend_c, 13, 12352
29, 624084, Pitch_bend_c, 13, 10432
29, 624085, Pitch_bend_c, 13, 12672
29, 624091, Pitch_bend_c, 13, 12992
29, 624096, Pitch_bend_c, 13, 10752
29, 624098, Pitch_bend_c, 13, 13312
29, 624104, Pitch_bend_c, 13, 13632
29, 624108, Pitch_bend_c, 13, 11072
29, 624110, Pitch_bend_c, 13, 13952
29, 624116, Pitch_bend_c, 13, 14272
29, 624120, Pitch_bend_c, 13, 11392
29, 624123, Pitch_bend_c, 13, 14592
29, 624130, Pitch_bend_c, 13, 14912
29, 624131, Pitch_bend_c, 13, 11712
29, 624136, Pitch_bend_c, 13, 15232
29, 624142, Pitch_bend_c, 13, 15552
29, 624144, Pitch_bend_c, 13, 12032
29, 624155, Pitch_bend_c, 13, 12352
29, 624167, Pitch_bend_c, 13, 12672
29, 624180, Pitch_bend_c, 13, 12992
29, 624191, Pitch_bend_c, 13, 13312
29, 624203, Pitch_bend_c, 13, 13632
29, 624215, Pitch_bend_c, 13, 13952
29, 624226, Pitch_bend_c, 13, 14272
29, 624238, Pitch_bend_c, 13, 14592
29, 624251, Pitch_bend_c, 13, 14912
29, 624262, Pitch_bend_c, 13, 15232
29, 624274, Pitch_bend_c, 13, 15552
29, 624321, Note_on_c, 13, 70, 0
29, 625440, Pitch_bend_c, 13, 8192
29, 639136, Note_on_c, 13, 50, 74
29, 639366, Note_on_c, 13, 58, 84
29, 639372, Note_on_c, 13, 52, 69
29, 639376, Note_on_c, 13, 50, 0
29, 639605, Note_on_c, 13, 50, 65
29, 639606, Note_on_c, 13, 58, 0
29, 639612, Note_on_c, 13, 52, 0
29, 639845, Note_on_c, 13, 50, 0
29, 640100, Note_on_c, 13, 50, 72
29, 640322, Note_on_c, 13, 58, 78
29, 640330, Note_on_c, 13, 52, 82
29, 640340, Note_on_c, 13, 50, 0
29, 640562, Note_on_c, 13, 58, 0
29, 640565, Note_on_c, 13, 50, 79
29, 640570, Note_on_c, 13, 52, 0
29, 640805, Note_on_c, 13, 50, 0
29, 641044, Note_on_c, 13, 53, 77
29, 641284, Note_on_c, 13, 53, 0
29, 641285, Note_on_c, 13, 61, 80
29, 641303, Note_on_c, 13, 55, 68
29, 641525, Note_on_c, 13, 61, 0
29, 641536, Note_on_c, 13, 53, 70
29, 641543, Note_on_c, 13, 55, 0
29, 641776, Note_on_c, 13, 53, 0
29, 642018, Note_on_c, 13, 55, 84
29, 642251, Note_on_c, 13, 56, 66
29, 642258, Note_on_c, 13, 55, 0
29, 642258, Note_on_c, 13, 62, 65
29, 642485, Note_on_c, 13, 55, 84
29, 642491, Note_on_c, 13, 56, 0
29, 642498, Note_on_c, 13, 62, 0
29, 642725, Note_on_c, 13, 55, 0
29, 642983, Note_on_c, 13, 49, 74
29, 643210, Note_on_c, 13, 57, 80
29, 643214, Note_on_c, 13, 51, 70
29, 643223, Note_on_c, 13, 49, 0
29, 643450, Note_on_c, 13, 57, 0
29, 643453, Note_on_c, 13, 49, 80
29, 643454, Note_on_c, 13, 51, 0
29, 643693, Note_on_c, 13, 49, 0
29, 643937, Note_on_c, 13, 49, 73
29, 644163, Note_on_c, 13, 58, 79
29, 644177, Note_on_c, 13, 49, 0
29, 644184, Note_on_c, 13, 51, 67
29, 644403, Note_on_c, 13, 58, 0
29, 644424, Note_on_c, 13, 51, 0
29, 644424, Note_on_c, 13, 49, 73
29, 644664, Note_on_c, 13, 49, 0
29, 644899, Note_on_c, 13, 53, 66
29, 645126, Note_on_c, 13, 61, 85
29, 645139, Note_on_c, 13, 53, 0
29, 645143, Note_on_c, 13, 55, 84
29, 645366, Note_on_c, 13, 61, 0
29, 645380, Note_on_c, 13, 53, 78
29, 645383, Note_on_c, 13, 55, 0
29, 645620, Note_on_c, 13, 53, 0
29, 645855, Note_on_c, 13, 53, 81
29, 646094, Note_on_c, 13, 55, 82
29, 646095, Note_on_c, 13, 53, 0
29, 646095, Note_on_c, 13, 62, 77
29, 646324, Note_on_c, 13, 53, 74
29, 646334, Note_on_c, 13, 55, 0
29, 646335, Note_on_c, 13, 62, 0
29, 646564, Note_on_c, 13, 53, 0
29, 646806, Note_on_c, 13, 50, 76
29, 647046, Note_on_c, 13, 50, 0
29, 647058, Note_on_c, 13, 52, 75
29, 647065, Note_on_c, 13, 58, 68
29, 647285, Note_on_c, 13, 50, 83
29, 647298, Note_on_c, 13, 52, 0
29, 647305, Note_on_c, 13, 58, 0
29, 647525, Note_on_c, 13, 50, 0
29, 647782, Note_on_c, 13, 50, 67
29, 648008, Note_on_c, 13, 58, 76
29, 648014, Note_on_c, 13, 52, 72
29, 648022, Note_on_c, 13, 50, 0
29, 648248, Note_on_c, 13, 58, 0
29, 648254, Note_on_c, 13, 52, 0
29, 648255, Note_on_c, 13, 50, 72
29, 648495, Note_on_c, 13, 50, 0
29, 648724, Note_on_c, 13, 53, 78
29, 648964, Note_on_c, 13, 53, 0
29, 648975, Note_on_c, 13, 61, 82
29, 648980, Note_on_c, 13, 55, 78
29, 649203, Note_on_c, 13, 53, 74
29, 649215, Note_on_c, 13, 61, 0
29, 649220, Note_on_c, 13, 55, 0
29, 649443, Note_on_c, 13, 53, 0
29, 649692, Note_on_c, 13, 55, 81
29, 649926, Note_on_c, 13, 56, 73
29, 649932, Note_on_c, 13, 55, 0
29, 649938, Note_on_c, 13, 62, 75
29, 650166, Note_on_c, 13, 56, 0
29, 650178, Note_on_c, 13, 62, 0
29, 650185, Note_on_c, 13, 55, 68
29, 650425, Note_on_c, 13, 55, 0
29, 650641, Note_on_c, 13, 49, 75
29, 650881, Note_on_c, 13, 49, 0
29, 650889, Note_on_c, 13, 51, 71
29, 650897, Note_on_c, 13, 57, 65
29, 651124, Note_on_c, 13, 49, 67
29, 651129, Note_on_c, 13, 51, 0
29, 651137, Note_on_c, 13, 57, 0
29, 651364, Note_on_c, 13, 49, 0
29, 651616, Note_on_c, 13, 49, 73
29, 651851, Note_on_c, 13, 51, 73
29, 651856, Note_on_c, 13, 49, 0
29, 651865, Note_on_c, 13, 58, 72
29, 652091, Note_on_c, 13, 51, 0
29, 652098, Note_on_c, 13, 49, 81
29, 652105, Note_on_c, 13, 58, 0
29, 652338, Note_on_c, 13, 49, 0
29, 652561, Note_on_c, 13, 53, 69
29, 652801, Note_on_c, 13, 53, 0
29, 652803, Note_on_c, 13, 55, 65
29, 652808, Note_on_c, 13, 61, 72
29, 653042, Note_on_c, 13, 53, 65
29, 653043, Note_on_c, 13, 55, 0
29, 653048, Note_on_c, 13, 61, 0
29, 653282, Note_on_c, 13, 53, 0
29, 653523, Note_on_c, 13, 53, 74
29, 653763, Note_on_c, 13, 53, 0
29, 653764, Note_on_c, 13, 55, 74
29, 653767, Note_on_c, 13, 62, 71
29, 654000, Note_on_c, 13, 53, 74
29, 654004, Note_on_c, 13, 55, 0
29, 654007, Note_on_c, 13, 62, 0
29, 654240, Note_on_c, 13, 53, 0
29, 654257, Note_on_c, 13, 53, 93
29, 654487, Note_on_c, 13, 50, 107
29, 654497, Note_on_c, 13, 53, 0
29, 654727, Note_on_c, 13, 50, 0
29, 654744, Note_on_c, 13, 57, 97
29, 654984, Note_on_c, 13, 57, 0
29, 654985, Note_on_c, 13, 54, 111
29, 655204, Note_on_c, 13, 55, 100
29, 655225, Note_on_c, 13, 54, 0
29, 655444, Note_on_c, 13, 55, 0
29, 655464, Note_on_c, 13, 52, 106
29, 655683, Note_on_c, 13, 59, 96
29, 655704, Note_on_c, 13, 52, 0
29, 655923, Note_on_c, 13, 59, 0
29, 655935, Note_on_c, 13, 56, 109
29, 656160, Note_on_c, 13, 53, 92
29, 656175, Note_on_c, 13, 56, 0
29, 656400, Note_on_c, 13, 53, 0
29, 656405, Note_on_c, 13, 50, 100
29, 656642, Note_on_c, 13, 54, 97
29, 656645, Note_on_c, 13, 50, 0
29, 656882, Note_on_c, 13, 54, 0
29, 656883, Note_on_c, 13, 51, 106
29, 657122, Note_on_c, 13, 55, 111
29, 657123, Note_on_c, 13, 51, 0
29, 657362, Note_on_c, 13, 55, 0
29, 657380, Note_on_c, 13, 52, 104
29, 657620, Note_on_c, 13, 52, 0
29, 657621, Note_on_c, 13, 57, 92
29, 657853, Note_on_c, 13, 54, 92
29, 657861, Note_on_c, 13, 57, 0
29, 658093, Note_on_c, 13, 54, 0
29, 658095, Note_on_c, 13, 56, 92
29, 658321, Note_on_c, 13, 53, 97
29, 658335, Note_on_c, 13, 56, 0
29, 658561, Note_on_c, 13, 53, 0
29, 658565, Note_on_c, 13, 60, 101
29, 658805, Note_on_c, 13, 60, 0
29, 658815, Note_on_c, 13, 57, 92
29, 659052, Note_on_c, 13, 58, 101
29, 659055, Note_on_c, 13, 57, 0
29, 659291, Note_on_c, 13, 55, 92
29, 659292, Note_on_c, 13, 58, 0
29, 659526, Note_on_c, 13, 62, 97
29, 659531, Note_on_c, 13, 55, 0
29, 659766, Note_on_c, 13, 62, 0
29, 659780, Note_on_c, 13, 59, 100
29, 660020, Note_on_c, 13, 59, 0
29, 660024, Note_on_c, 13, 55, 111
29, 660253, Note_on_c, 13, 53, 108
29, 660264, Note_on_c, 13, 55, 0
29, 660493, Note_on_c, 13, 53, 0
29, 660498, Note_on_c, 13, 56, 99
29, 660729, Note_on_c, 13, 56, 102
29, 660738, Note_on_c, 13, 56, 0
29, 660969, Note_on_c, 13, 56, 0
29, 660984, Note_on_c, 13, 57, 101
29, 661224, Note_on_c, 13, 57, 0
29, 661225, Note_on_c, 13, 55, 104
29, 661449, Note_on_c, 13, 59, 101
29, 661465, Note_on_c, 13, 55, 0
29, 661689, Note_on_c, 13, 59, 0
29, 661690, Note_on_c, 13, 57, 103
29, 661930, Note_on_c, 13, 57, 0
29, 661934, Note_on_c, 13, 59, 93
29, 662174, Note_on_c, 13, 59, 0
29, 662175, Note_on_c, 13, 56, 96
29, 662403, Note_on_c, 13, 63, 107
29, 662415, Note_on_c, 13, 56, 0
29, 662640, Note_on_c, 13, 60, 96
29, 662643, Note_on_c, 13, 63, 0
29, 662880, Note_on_c, 13, 60, 0
29, 662897, Note_on_c, 13, 61, 98
29, 663133, Note_on_c, 13, 58, 105
29, 663137, Note_on_c, 13, 61, 0
29, 663373, Note_on_c, 13, 58, 0
29, 663382, Note_on_c, 13, 65, 109
29, 663616, Note_on_c, 13, 62, 105
29, 663622, Note_on_c, 13, 65, 0
29, 663856, Note_on_c, 13, 62, 0
29, 663864, Note_on_c, 13, 59, 107
29, 664092, Note_on_c, 13, 55, 101
29, 664104, Note_on_c, 13, 59, 0
29, 664332, Note_on_c, 13, 55, 0
29, 664340, Note_on_c, 13, 60, 105
29, 664565, Note_on_c, 13, 56, 95
29, 664580, Note_on_c, 13, 60, 0
29, 664805, Note_on_c, 13, 56, 0
29, 664808, Note_on_c, 13, 61, 100
29, 665042, Note_on_c, 13, 57, 108
29, 665048, Note_on_c, 13, 61, 0
29, 665282, Note_on_c, 13, 57, 0
29, 665304, Note_on_c, 13, 63, 108
29, 665540, Note_on_c, 13, 59, 97
29, 665544, Note_on_c, 13, 63, 0
29, 665778, Note_on_c, 13, 77, 91
29, 665780, Note_on_c, 13, 59, 0
29, 665846, Note_on_c, 13, 78, 96
29, 665858, Note_on_c, 13, 77, 0
29, 665924, Note_on_c, 13, 77, 102
29, 665925, Note_on_c, 13, 78, 0
29, 666004, Note_on_c, 13, 77, 0
29, 666018, Note_on_c, 13, 78, 97
29, 666098, Note_on_c, 13, 78, 0
29, 666104, Note_on_c, 13, 77, 92
29, 666175, Note_on_c, 13, 78, 96
29, 666183, Note_on_c, 13, 77, 0
29, 666252, Note_on_c, 13, 75, 97
29, 666255, Note_on_c, 13, 78, 0
29, 666321, Note_on_c, 13, 77, 106
29, 666332, Note_on_c, 13, 75, 0
29, 666400, Note_on_c, 13, 77, 0
29, 666417, Note_on_c, 13, 75, 106
29, 666480, Note_on_c, 13, 77, 107
29, 666497, Note_on_c, 13, 75, 0
29, 666560, Note_on_c, 13, 77, 0
29, 666566, Note_on_c, 13, 75, 95
29, 666645, Note_on_c, 13, 75, 0
29, 666664, Note_on_c, 13, 77, 94
29, 666721, Note_on_c, 13, 73, 95
29, 666744, Note_on_c, 13, 77, 0
29, 666801, Note_on_c, 13, 73, 0
29, 666822, Note_on_c, 13, 74, 95
29, 666899, Note_on_c, 13, 73, 109
29, 666901, Note_on_c, 13, 74, 0
29, 666975, Note_on_c, 13, 74, 98
29, 666979, Note_on_c, 13, 73, 0
29, 667055, Note_on_c, 13, 74, 0
29, 667056, Note_on_c, 13, 73, 97
29, 667135, Note_on_c, 13, 73, 0
29, 667142, Note_on_c, 13, 74, 101
29, 667214, Note_on_c, 13, 72, 94
29, 667222, Note_on_c, 13, 74, 0
29, 667292, Note_on_c, 13, 73, 105
29, 667294, Note_on_c, 13, 72, 0
29, 667371, Note_on_c, 13, 73, 0
29, 667380, Note_on_c, 13, 72, 96
29, 667454, Note_on_c, 13, 73, 92
29, 667460, Note_on_c, 13, 72, 0
29, 667526, Note_on_c, 13, 72, 92
29, 667534, Note_on_c, 13, 73, 0
29, 667604, Note_on_c, 13, 73, 93
29, 667605, Note_on_c, 13, 72, 0
29, 667684, Note_on_c, 13, 73, 0
29, 667689, Note_on_c, 13, 79, 93
29, 667769, Note_on_c, 13, 79, 0
29, 667769, Note_on_c, 13, 80, 104
29, 667842, Note_on_c, 13, 79, 104
29, 667848, Note_on_c, 13, 80, 0
29, 667922, Note_on_c, 13, 79, 0
29, 667935, Note_on_c, 13, 80, 108
29, 668011, Note_on_c, 13, 79, 105
29, 668015, Note_on_c, 13, 80, 0
29, 668090, Note_on_c, 13, 79, 0
29, 668100, Note_on_c, 13, 80, 91
29, 668166, Note_on_c, 13, 78, 102
29, 668180, Note_on_c, 13, 80, 0
29, 668244, Note_on_c, 13, 80, 96
29, 668246, Note_on_c, 13, 78, 0
29, 668323, Note_on_c, 13, 80, 0
29, 668336, Note_on_c, 13, 78, 105
29, 668413, Note_on_c, 13, 80, 97
29, 668416, Note_on_c, 13, 78, 0
29, 668493, Note_on_c, 13, 80, 0
29, 668504, Note_on_c, 13, 78, 100
29, 668560, Note_on_c, 13, 80, 106
29, 668583, Note_on_c, 13, 78, 0
29, 668640, Note_on_c, 13, 80, 0
29, 668649, Note_on_c, 13, 76, 106
29, 668729, Note_on_c, 13, 76, 0
29, 668736, Note_on_c, 13, 77, 106
29, 668800, Note_on_c, 13, 76, 101
29, 668815, Note_on_c, 13, 77, 0
29, 668880, Note_on_c, 13, 76, 0
29, 668902, Note_on_c, 13, 77, 111
29, 668982, Note_on_c, 13, 77, 0
29, 668982, Note_on_c, 13, 76, 105
29, 669054, Note_on_c, 13, 77, 99
29, 669061, Note_on_c, 13, 76, 0
29, 669134, Note_on_c, 13, 77, 0
29, 669139, Note_on_c, 13, 75, 106
29, 669203, Note_on_c, 13, 77, 103
29, 669219, Note_on_c, 13, 75, 0
29, 669282, Note_on_c, 13, 77, 0
29, 669282, Note_on_c, 13, 75, 93
29, 669362, Note_on_c, 13, 75, 0
29, 669364, Note_on_c, 13, 77, 101
29, 669441, Note_on_c, 13, 75, 107
29, 669444, Note_on_c, 13, 77, 0
29, 669520, Note_on_c, 13, 75, 0
29, 669544, Note_on_c, 13, 77, 99
29, 669621, Note_on_c, 13, 77, 96
29, 669624, Note_on_c, 13, 77, 0
29, 669698, Note_on_c, 13, 78, 96
29, 669701, Note_on_c, 13, 77, 0
29, 669759, Note_on_c, 13, 77, 109
29, 669777, Note_on_c, 13, 78, 0
29, 669839, Note_on_c, 13, 77, 0
29, 669852, Note_on_c, 13, 78, 103
29, 669932, Note_on_c, 13, 78, 0
29, 669944, Note_on_c, 13, 77, 95
29, 670016, Note_on_c, 13, 78, 102
29, 670023, Note_on_c, 13, 77, 0
29, 670096, Note_on_c, 13, 78, 0
29, 670098, Note_on_c, 13, 75, 95
29, 670167, Note_on_c, 13, 77, 98
29, 670178, Note_on_c, 13, 75, 0
29, 670246, Note_on_c, 13, 77, 0
29, 670262, Note_on_c, 13, 75, 98
29, 670330, Note_on_c, 13, 77, 93
29, 670342, Note_on_c, 13, 75, 0
29, 670410, Note_on_c, 13, 77, 0
29, 670422, Note_on_c, 13, 75, 93
29, 670490, Note_on_c, 13, 77, 97
29, 670501, Note_on_c, 13, 75, 0
29, 670570, Note_on_c, 13, 77, 0
29, 670572, Note_on_c, 13, 73, 106
29, 670645, Note_on_c, 13, 74, 102
29, 670652, Note_on_c, 13, 73, 0
29, 670724, Note_on_c, 13, 74, 0
29, 670726, Note_on_c, 13, 73, 101
29, 670804, Note_on_c, 13, 74, 98
29, 670806, Note_on_c, 13, 73, 0
29, 670881, Note_on_c, 13, 73, 99
29, 670884, Note_on_c, 13, 74, 0
29, 670960, Note_on_c, 13, 73, 0
29, 670973, Note_on_c, 13, 74, 102
29, 671049, Note_on_c, 13, 72, 98
29, 671053, Note_on_c, 13, 74, 0
29, 671121, Note_on_c, 13, 73, 101
29, 671129, Note_on_c, 13, 72, 0
29, 671200, Note_on_c, 13, 73, 0
29, 671219, Note_on_c, 13, 72, 109
29, 671293, Note_on_c, 13, 73, 101
29, 671299, Note_on_c, 13, 72, 0
29, 671373, Note_on_c, 13, 73, 0
29, 671385, Note_on_c, 13, 72, 98
29, 671457, Note_on_c, 13, 73, 111
29, 671464, Note_on_c, 13, 72, 0
29, 671522, Note_on_c, 13, 79, 94
29, 671537, Note_on_c, 13, 73, 0
29, 671602, Note_on_c, 13, 79, 0
29, 671613, Note_on_c, 13, 80, 91
29, 671692, Note_on_c, 13, 80, 0
29, 671696, Note_on_c, 13, 79, 91
29, 671776, Note_on_c, 13, 79, 0
29, 671780, Note_on_c, 13, 80, 97
29, 671853, Note_on_c, 13, 79, 106
29, 671860, Note_on_c, 13, 80, 0
29, 671922, Note_on_c, 13, 80, 111
29, 671932, Note_on_c, 13, 79, 0
29, 672002, Note_on_c, 13, 80, 0
29, 672017, Note_on_c, 13, 78, 102
29, 672086, Note_on_c, 13, 80, 106
29, 672097, Note_on_c, 13, 78, 0
29, 672164, Note_on_c, 13, 78, 96
29, 672165, Note_on_c, 13, 80, 0
29, 672240, Note_on_c, 13, 80, 97
29, 672244, Note_on_c, 13, 78, 0
29, 672320, Note_on_c, 13, 80, 0
29, 672337, Note_on_c, 13, 78, 104
29, 672416, Note_on_c, 13, 78, 0
29, 672417, Note_on_c, 13, 80, 107
29, 672497, Note_on_c, 13, 80, 0
29, 672502, Note_on_c, 13, 76, 107
29, 672573, Note_on_c, 13, 77, 92
29, 672582, Note_on_c, 13, 76, 0
29, 672652, Note_on_c, 13, 77, 0
29, 672656, Note_on_c, 13, 76, 92
29, 672720, Note_on_c, 13, 77, 100
29, 672736, Note_on_c, 13, 76, 0
29, 672800, Note_on_c, 13, 77, 0
29, 672806, Note_on_c, 13, 76, 97
29, 672885, Note_on_c, 13, 76, 0
29, 672894, Note_on_c, 13, 77, 93
29, 672963, Note_on_c, 13, 75, 97
29, 672974, Note_on_c, 13, 77, 0
29, 673043, Note_on_c, 13, 75, 0
29, 673054, Note_on_c, 13, 77, 109
29, 673122, Note_on_c, 13, 75, 100
29, 673133, Note_on_c, 13, 77, 0
29, 673202, Note_on_c, 13, 75, 0
29, 673212, Note_on_c, 13, 77, 93
29, 673292, Note_on_c, 13, 77, 0
29, 673294, Note_on_c, 13, 75, 96
29, 673373, Note_on_c, 13, 75, 0
29, 673377, Note_on_c, 13, 77, 95
29, 673451, Note_on_c, 13, 77, 95
29, 673457, Note_on_c, 13, 77, 0
29, 673531, Note_on_c, 13, 77, 0
29, 673538, Note_on_c, 13, 78, 99
29, 673617, Note_on_c, 13, 78, 0
29, 673619, Note_on_c, 13, 77, 97
29, 673699, Note_on_c, 13, 77, 0
29, 673702, Note_on_c, 13, 78, 96
29, 673782, Note_on_c, 13, 78, 0
29, 673785, Note_on_c, 13, 77, 93
29, 673850, Note_on_c, 13, 78, 111
29, 673864, Note_on_c, 13, 77, 0
29, 673930, Note_on_c, 13, 78, 0
29, 673945, Note_on_c, 13, 75, 94
29, 674010, Note_on_c, 13, 77, 108
29, 674025, Note_on_c, 13, 75, 0
29, 674084, Note_on_c, 13, 75, 92
29, 674089, Note_on_c, 13, 77, 0
29, 674164, Note_on_c, 13, 75, 0
29, 674175, Note_on_c, 13, 77, 106
29, 674255, Note_on_c, 13, 77, 0
29, 674262, Note_on_c, 13, 75, 110
29, 674337, Note_on_c, 13, 77, 106
29, 674341, Note_on_c, 13, 75, 0
29, 674405, Note_on_c, 13, 73, 97
29, 674417, Note_on_c, 13, 77, 0
29, 674480, Note_on_c, 13, 74, 91
29, 674485, Note_on_c, 13, 73, 0
29, 674559, Note_on_c, 13, 74, 0
29, 674561, Note_on_c, 13, 73, 91
29, 674641, Note_on_c, 13, 73, 0
29, 674653, Note_on_c, 13, 74, 106
29, 674720, Note_on_c, 13, 73, 91
29, 674733, Note_on_c, 13, 74, 0
29, 674799, Note_on_c, 13, 73, 0
29, 674810, Note_on_c, 13, 74, 106
29, 674880, Note_on_c, 13, 71, 104
29, 674890, Note_on_c, 13, 74, 0
29, 674960, Note_on_c, 13, 71, 0
29, 674981, Note_on_c, 13, 73, 105
29, 675041, Note_on_c, 13, 71, 102
29, 675060, Note_on_c, 13, 73, 0
29, 675121, Note_on_c, 13, 71, 0
29, 675140, Note_on_c, 13, 73, 107
29, 675210, Note_on_c, 13, 71, 104
29, 675220, Note_on_c, 13, 73, 0
29, 675289, Note_on_c, 13, 71, 0
29, 675301, Note_on_c, 13, 73, 95
29, 675367, Note_on_c, 13, 79, 93
29, 675381, Note_on_c, 13, 73, 0
29, 675447, Note_on_c, 13, 79, 0
29, 675453, Note_on_c, 13, 80, 103
29, 675530, Note_on_c, 13, 79, 97
29, 675532, Note_on_c, 13, 80, 0
29, 675610, Note_on_c, 13, 79, 0
29, 675614, Note_on_c, 13, 80, 111
29, 675694, Note_on_c, 13, 80, 0
29, 675697, Note_on_c, 13, 79, 98
29, 675759, Note_on_c, 13, 80, 96
29, 675776, Note_on_c, 13, 79, 0
29, 675839, Note_on_c, 13, 80, 0
29, 675850, Note_on_c, 13, 78, 91
29, 675930, Note_on_c, 13, 78, 0
29, 675943, Note_on_c, 13, 80, 101
29, 676016, Note_on_c, 13, 78, 92
29, 676022, Note_on_c, 13, 80, 0
29, 676096, Note_on_c, 13, 78, 0
29, 676101, Note_on_c, 13, 80, 97
29, 676160, Note_on_c, 13, 78, 99
29, 676181, Note_on_c, 13, 80, 0
29, 676239, Note_on_c, 13, 78, 0
29, 676252, Note_on_c, 13, 80, 104
29, 676326, Note_on_c, 13, 76, 94
29, 676332, Note_on_c, 13, 80, 0
29, 676406, Note_on_c, 13, 76, 0
29, 676415, Note_on_c, 13, 77, 95
29, 676494, Note_on_c, 13, 77, 0
29, 676501, Note_on_c, 13, 76, 102
29, 676560, Note_on_c, 13, 77, 91
29, 676581, Note_on_c, 13, 76, 0
29, 676640, Note_on_c, 13, 77, 0
29, 676644, Note_on_c, 13, 76, 100
29, 676722, Note_on_c, 13, 77, 108
29, 676723, Note_on_c, 13, 76, 0
29, 676802, Note_on_c, 13, 77, 0
29, 676813, Note_on_c, 13, 75, 97
29, 676890, Note_on_c, 13, 77, 101
29, 676893, Note_on_c, 13, 75, 0
29, 676969, Note_on_c, 13, 77, 0
29, 676979, Note_on_c, 13, 75, 103
29, 677043, Note_on_c, 13, 77, 92
29, 677059, Note_on_c, 13, 75, 0
29, 677123, Note_on_c, 13, 77, 0
29, 677135, Note_on_c, 13, 75, 111
29, 677214, Note_on_c, 13, 75, 0
29, 677223, Note_on_c, 13, 77, 101
29, 677303, Note_on_c, 13, 77, 0
29, 683040, Program_c, 13, 41
29, 684960, Control_c, 13, 11, 32
29, 684980, Control_c, 13, 11, 33
29, 685000, Control_c, 13, 11, 34
29, 685020, Control_c, 13, 11, 35
29, 685040, Control_c, 13, 11, 36
29, 685061, Control_c, 13, 11, 37
29, 685081, Control_c, 13, 11, 38
29, 685101, Control_c, 13, 11, 39
29, 685121, Control_c, 13, 11, 40
29, 685141, Control_c, 13, 11, 41
29, 685161, Control_c, 13, 11, 42
29, 685181, Control_c, 13, 11, 43
29, 685201, Control_c, 13, 11, 44
29, 685222, Control_c, 13, 11, 45
29, 685243, Control_c, 13, 11, 46
29, 685263, Control_c, 13, 11, 47
29, 685283, Control_c, 13, 11, 48
29, 685303, Control_c, 13, 11, 49
29, 685323, Control_c, 13, 11, 50
29, 685343, Control_c, 13, 11, 51
29, 685363, Control_c, 13, 11, 52
29, 685383, Control_c, 13, 11, 53
29, 685404, Control_c, 13, 11, 54
29, 685425, Control_c, 13, 11, 55
29, 685445, Control_c, 13, 11, 56
29, 685456, Note_on_c, 13, 72, 31
29, 685465, Control_c, 13, 11, 57
29, 685485, Control_c, 13, 11, 58
29, 685505, Control_c, 13, 11, 59
29, 685525, Control_c, 13, 11, 60
29, 685545, Control_c, 13, 11, 61
29, 685565, Control_c, 13, 11, 62
29, 685586, Control_c, 13, 11, 63
29, 685606, Control_c, 13, 11, 64
29, 685626, Control_c, 13, 11, 65
29, 685646, Control_c, 13, 11, 66
29, 685666, Control_c, 13, 11, 67
29, 685687, Control_c, 13, 11, 68
29, 685707, Control_c, 13, 11, 69
29, 685727, Control_c, 13, 11, 70
29, 685748, Control_c, 13, 11, 71
29, 685768, Control_c, 13, 11, 72
29, 685788, Control_c, 13, 11, 73
29, 685808, Control_c, 13, 11, 74
29, 685828, Control_c, 13, 11, 75
29, 685848, Control_c, 13, 11, 76
29, 685869, Control_c, 13, 11, 77
29, 685889, Control_c, 13, 11, 78
29, 685909, Control_c, 13, 11, 79
29, 685930, Control_c, 13, 11, 80
29, 685950, Control_c, 13, 11, 81
29, 685970, Control_c, 13, 11, 82
29, 685990, Control_c, 13, 11, 83
29, 686010, Control_c, 13, 11, 84
29, 686030, Control_c, 13, 11, 85
29, 686051, Control_c, 13, 11, 86
29, 686071, Control_c, 13, 11, 87
29, 686091, Control_c, 13, 11, 88
29, 686111, Control_c, 13, 11, 89
29, 686131, Control_c, 13, 11, 90
29, 686152, Control_c, 13, 11, 91
29, 686172, Control_c, 13, 11, 92
29, 686192, Control_c, 13, 11, 93
29, 686212, Control_c, 13, 11, 94
29, 686233, Control_c, 13, 11, 95
29, 686253, Control_c, 13, 11, 96
29, 686273, Control_c, 13, 11, 97
29, 686293, Control_c, 13, 11, 98
29, 686313, Control_c, 13, 11, 99
29, 686334, Control_c, 13, 11, 100
29, 686354, Control_c, 13, 11, 101
29, 686374, Control_c, 13, 11, 102
29, 686394, Control_c, 13, 11, 103
29, 686415, Control_c, 13, 11, 104
29, 686435, Control_c, 13, 11, 105
29, 686455, Control_c, 13, 11, 106
29, 686475, Control_c, 13, 11, 107
29, 686495, Control_c, 13, 11, 108
29, 686516, Control_c, 13, 11, 109
29, 686536, Control_c, 13, 11, 110
29, 686556, Control_c, 13, 11, 111
29, 686576, Control_c, 13, 11, 112
29, 686596, Control_c, 13, 11, 113
29, 686616, Control_c, 13, 11, 114
29, 686637, Control_c, 13, 11, 115
29, 686657, Control_c, 13, 11, 116
29, 686677, Control_c, 13, 11, 117
29, 686698, Control_c, 13, 11, 118
29, 686718, Control_c, 13, 11, 119
29, 686738, Control_c, 13, 11, 120
29, 686758, Control_c, 13, 11, 121
29, 686778, Control_c, 13, 11, 122
29, 686799, Control_c, 13, 11, 123
29, 686819, Control_c, 13, 11, 124
29, 686839, Control_c, 13, 11, 125
29, 686859, Control_c, 13, 11, 126
29, 686880, Program_c, 13, 48
29, 686896, Note_on_c, 13, 72, 0
29, 689760, Note_on_c, 13, 54, 83
29, 689820, Note_on_c, 13, 54, 0
29, 689880, Note_on_c, 13, 54, 84
29, 689940, Note_on_c, 13, 54, 0
29, 690000, Note_on_c, 13, 48, 88
29, 690060, Note_on_c, 13, 48, 0
29, 690120, Note_on_c, 13, 48, 79
29, 690180, Note_on_c, 13, 48, 0
29, 690240, Note_on_c, 13, 56, 85
29, 690300, Note_on_c, 13, 56, 0
29, 690360, Note_on_c, 13, 56, 95
29, 690420, Note_on_c, 13, 56, 0
29, 690480, Note_on_c, 13, 48, 92
29, 690540, Note_on_c, 13, 48, 0
29, 690600, Note_on_c, 13, 48, 92
29, 690660, Note_on_c, 13, 48, 0
29, 690720, Note_on_c, 13, 58, 89
29, 690780, Note_on_c, 13, 58, 0
29, 690840, Note_on_c, 13, 58, 95
29, 690900, Note_on_c, 13, 58, 0
29, 690960, Note_on_c, 13, 48, 98
29, 691020, Note_on_c, 13, 48, 0
29, 691080, Note_on_c, 13, 48, 82
29, 691140, Note_on_c, 13, 48, 0
29, 691200, Note_on_c, 13, 54, 97
29, 691260, Note_on_c, 13, 54, 0
29, 691320, Note_on_c, 13, 54, 96
29, 691380, Note_on_c, 13, 54, 0
29, 691440, Note_on_c, 13, 48, 92
29, 691500, Note_on_c, 13, 48, 0
29, 691560, Note_on_c, 13, 48, 91
29, 691620, Note_on_c, 13, 48, 0
29, 691680, Note_on_c, 13, 56, 83
29, 691740, Note_on_c, 13, 56, 0
29, 691800, Note_on_c, 13, 56, 80
29, 691860, Note_on_c, 13, 56, 0
29, 691920, Note_on_c, 13, 48, 86
29, 691980, Note_on_c, 13, 48, 0
29, 692040, Note_on_c, 13, 48, 86
29, 692100, Note_on_c, 13, 48, 0
29, 692160, Note_on_c, 13, 58, 95
29, 692220, Note_on_c, 13, 58, 0
29, 692280, Note_on_c, 13, 58, 92
29, 692340, Note_on_c, 13, 58, 0
29, 692400, Note_on_c, 13, 48, 86
29, 692460, Note_on_c, 13, 48, 0
29, 692520, Note_on_c, 13, 48, 90
29, 692580, Note_on_c, 13, 48, 0
29, 692640, Note_on_c, 13, 54, 97
29, 692700, Note_on_c, 13, 54, 0
29, 692760, Note_on_c, 13, 54, 94
29, 692820, Note_on_c, 13, 54, 0
29, 692880, Note_on_c, 13, 48, 95
29, 692940, Note_on_c, 13, 48, 0
29, 693000, Note_on_c, 13, 48, 82
29, 693060, Note_on_c, 13, 48, 0
29, 693120, Note_on_c, 13, 56, 89
29, 693180, Note_on_c, 13, 56, 0
29, 693240, Note_on_c, 13, 56, 95
29, 693300, Note_on_c, 13, 56, 0
29, 693360, Note_on_c, 13, 48, 89
29, 693420, Note_on_c, 13, 48, 0
29, 693480, Note_on_c, 13, 48, 82
29, 693540, Note_on_c, 13, 48, 0
29, 693600, Note_on_c, 13, 58, 82
29, 693660, Note_on_c, 13, 58, 0
29, 693720, Note_on_c, 13, 58, 95
29, 693780, Note_on_c, 13, 58, 0
29, 693840, Note_on_c, 13, 48, 87
29, 693900, Note_on_c, 13, 48, 0
29, 693960, Note_on_c, 13, 48, 85
29, 694020, Note_on_c, 13, 48, 0
29, 694080, Note_on_c, 13, 54, 80
29, 694140, Note_on_c, 13, 54, 0
29, 694200, Note_on_c, 13, 54, 79
29, 694260, Note_on_c, 13, 54, 0
29, 694320, Note_on_c, 13, 48, 80
29, 694380, Note_on_c, 13, 48, 0
29, 694440, Note_on_c, 13, 48, 98
29, 694500, Note_on_c, 13, 48, 0
29, 694560, Note_on_c, 13, 56, 96
29, 694620, Note_on_c, 13, 56, 0
29, 694680, Note_on_c, 13, 56, 88
29, 694740, Note_on_c, 13, 56, 0
29, 694800, Note_on_c, 13, 48, 84
29, 694860, Note_on_c, 13, 48, 0
29, 694920, Note_on_c, 13, 48, 88
29, 694980, Note_on_c, 13, 48, 0
29, 695040, Note_on_c, 13, 58, 98
29, 695100, Note_on_c, 13, 58, 0
29, 695160, Note_on_c, 13, 58, 87
29, 695220, Note_on_c, 13, 58, 0
29, 695280, Note_on_c, 13, 48, 80
29, 695340, Note_on_c, 13, 48, 0
29, 695400, Note_on_c, 13, 48, 98
29, 695460, Note_on_c, 13, 48, 0
29, 695520, Note_on_c, 13, 54, 96
29, 695580, Note_on_c, 13, 54, 0
29, 695640, Note_on_c, 13, 54, 92
29, 695700, Note_on_c, 13, 54, 0
29, 695760, Note_on_c, 13, 48, 97
29, 695820, Note_on_c, 13, 48, 0
29, 695880, Note_on_c, 13, 48, 89
29, 695940, Note_on_c, 13, 48, 0
29, 696000, Note_on_c, 13, 56, 96
29, 696060, Note_on_c, 13, 56, 0
29, 696120, Note_on_c, 13, 56, 94
29, 696180, Note_on_c, 13, 56, 0
29, 696240, Note_on_c, 13, 48, 92
29, 696300, Note_on_c, 13, 48, 0
29, 696360, Note_on_c, 13, 48, 81
29, 696420, Note_on_c, 13, 48, 0
29, 696480, Note_on_c, 13, 58, 86
29, 696540, Note_on_c, 13, 58, 0
29, 696600, Note_on_c, 13, 58, 84
29, 696660, Note_on_c, 13, 58, 0
29, 696720, Note_on_c, 13, 48, 93
29, 696780, Note_on_c, 13, 48, 0
29, 696840, Note_on_c, 13, 48, 83
29, 696900, Note_on_c, 13, 48, 0
29, 696960, Note_on_c, 13, 54, 85
29, 697020, Note_on_c, 13, 54, 0
29, 697080, Note_on_c, 13, 54, 88
29, 697140, Note_on_c, 13, 54, 0
29, 697200, Note_on_c, 13, 48, 86
29, 697260, Note_on_c, 13, 48, 0
29, 697320, Note_on_c, 13, 48, 80
29, 697380, Note_on_c, 13, 48, 0
29, 697440, Note_on_c, 13, 56, 88
29, 697500, Note_on_c, 13, 56, 0
29, 697560, Note_on_c, 13, 56, 82
29, 697620, Note_on_c, 13, 56, 0
29, 697680, Note_on_c, 13, 48, 88
29, 697740, Note_on_c, 13, 48, 0
29, 697800, Note_on_c, 13, 48, 91
29, 697860, Note_on_c, 13, 48, 0
29, 697920, Note_on_c, 13, 58, 84
29, 697980, Note_on_c, 13, 58, 0
29, 698040, Note_on_c, 13, 58, 82
29, 698100, Note_on_c, 13, 58, 0
29, 698160, Note_on_c, 13, 48, 97
29, 698220, Note_on_c, 13, 48, 0
29, 698280, Note_on_c, 13, 48, 85
29, 698340, Note_on_c, 13, 48, 0
29, 698400, Note_on_c, 13, 54, 92
29, 698460, Note_on_c, 13, 54, 0
29, 698520, Note_on_c, 13, 54, 81
29, 698580, Note_on_c, 13, 54, 0
29, 698640, Note_on_c, 13, 48, 80
29, 698700, Note_on_c, 13, 48, 0
29, 698760, Note_on_c, 13, 48, 84
29, 698820, Note_on_c, 13, 48, 0
29, 698880, Note_on_c, 13, 56, 84
29, 698940, Note_on_c, 13, 56, 0
29, 699000, Note_on_c, 13, 56, 93
29, 699060, Note_on_c, 13, 56, 0
29, 699120, Note_on_c, 13, 48, 97
29, 699180, Note_on_c, 13, 48, 0
29, 699240, Note_on_c, 13, 48, 94
29, 699300, Note_on_c, 13, 48, 0
29, 699360, Note_on_c, 13, 58, 88
29, 699420, Note_on_c, 13, 58, 0
29, 699480, Note_on_c, 13, 58, 83
29, 699540, Note_on_c, 13, 58, 0
29, 699600, Note_on_c, 13, 48, 93
29, 699660, Note_on_c, 13, 48, 0
29, 699720, Note_on_c, 13, 48, 89
29, 699780, Note_on_c, 13, 48, 0
29, 699840, Note_on_c, 13, 54, 94
29, 699900, Note_on_c, 13, 54, 0
29, 699960, Note_on_c, 13, 54, 87
29, 700020, Note_on_c, 13, 54, 0
29, 700080, Note_on_c, 13, 48, 83
29, 700140, Note_on_c, 13, 48, 0
29, 700200, Note_on_c, 13, 48, 78
29, 700260, Note_on_c, 13, 48, 0
29, 700320, Note_on_c, 13, 56, 79
29, 700380, Note_on_c, 13, 56, 0
29, 700440, Note_on_c, 13, 56, 93
29, 700500, Note_on_c, 13, 56, 0
29, 700560, Note_on_c, 13, 48, 89
29, 700620, Note_on_c, 13, 48, 0
29, 700680, Note_on_c, 13, 48, 87
29, 700740, Note_on_c, 13, 48, 0
29, 700800, Note_on_c, 13, 58, 80
29, 700860, Note_on_c, 13, 58, 0
29, 700920, Note_on_c, 13, 58, 92
29, 700980, Note_on_c, 13, 58, 0
29, 701040, Note_on_c, 13, 48, 85
29, 701100, Note_on_c, 13, 48, 0
29, 701160, Note_on_c, 13, 48, 95
29, 701220, Note_on_c, 13, 48, 0
29, 701280, Note_on_c, 13, 54, 88
29, 701340, Note_on_c, 13, 54, 0
29, 701400, Note_on_c, 13, 54, 89
29, 701460, Note_on_c, 13, 54, 0
29, 701520, Note_on_c, 13, 48, 85
29, 701580, Note_on_c, 13, 48, 0
29, 701640, Note_on_c, 13, 48, 79
29, 701700, Note_on_c, 13, 48, 0
29, 701760, Note_on_c, 13, 56, 78
29, 701820, Note_on_c, 13, 56, 0
29, 701880, Note_on_c, 13, 56, 82
29, 701940, Note_on_c, 13, 56, 0
29, 702000, Note_on_c, 13, 48, 96
29, 702060, Note_on_c, 13, 48, 0
29, 702120, Note_on_c, 13, 48, 80
29, 702180, Note_on_c, 13, 48, 0
29, 702240, Note_on_c, 13, 58, 84
29, 702300, Note_on_c, 13, 58, 0
29, 702360, Note_on_c, 13, 58, 85
29, 702420, Note_on_c, 13, 58, 0
29, 702480, Note_on_c, 13, 48, 80
29, 702540, Note_on_c, 13, 48, 0
29, 702600, Note_on_c, 13, 48, 95
29, 702660, Note_on_c, 13, 48, 0
29, 702720, Note_on_c, 13, 54, 98
29, 702780, Note_on_c, 13, 54, 0
29, 702840, Note_on_c, 13, 54, 98
29, 702900, Note_on_c, 13, 54, 0
29, 702960, Note_on_c, 13, 48, 85
29, 703020, Note_on_c, 13, 48, 0
29, 703080, Note_on_c, 13, 48, 95
29, 703140, Note_on_c, 13, 48, 0
29, 703200, Note_on_c, 13, 56, 78
29, 703260, Note_on_c, 13, 56, 0
29, 703320, Note_on_c, 13, 56, 95
29, 703380, Note_on_c, 13, 56, 0
29, 703440, Note_on_c, 13, 48, 85
29, 703500, Note_on_c, 13, 48, 0
29, 703560, Note_on_c, 13, 48, 90
29, 703620, Note_on_c, 13, 48, 0
29, 703680, Note_on_c, 13, 58, 97
29, 703740, Note_on_c, 13, 58, 0
29, 703800, Note_on_c, 13, 58, 94
29, 703860, Note_on_c, 13, 58, 0
29, 703920, Note_on_c, 13, 48, 97
29, 703980, Note_on_c, 13, 48, 0
29, 704040, Note_on_c, 13, 48, 95
29, 704100, Note_on_c, 13, 48, 0
29, 704160, Note_on_c, 13, 54, 96
29, 704220, Note_on_c, 13, 54, 0
29, 704280, Note_on_c, 13, 54, 84
29, 704340, Note_on_c, 13, 54, 0
29, 704400, Note_on_c, 13, 48, 85
29, 704460, Note_on_c, 13, 48, 0
29, 704520, Note_on_c, 13, 48, 95
29, 704580, Note_on_c, 13, 48, 0
29, 704640, Note_on_c, 13, 56, 84
29, 704700, Note_on_c, 13, 56, 0
29, 704760, Note_on_c, 13, 56, 96
29, 704820, Note_on_c, 13, 56, 0
29, 704880, Note_on_c, 13, 48, 91
29, 704940, Note_on_c, 13, 48, 0
29, 705000, Note_on_c, 13, 48, 95
29, 705060, Note_on_c, 13, 48, 0
29, 705120, Note_on_c, 13, 58, 86
29, 705180, Note_on_c, 13, 58, 0
29, 705240, Note_on_c, 13, 58, 98
29, 705300, Note_on_c, 13, 58, 0
29, 705360, Note_on_c, 13, 48, 93
29, 705420, Note_on_c, 13, 48, 0
29, 705480, Note_on_c, 13, 48, 93
29, 705540, Note_on_c, 13, 48, 0
29, 705600, Note_on_c, 13, 54, 79
29, 705660, Note_on_c, 13, 54, 0
29, 705720, Note_on_c, 13, 54, 79
29, 705780, Note_on_c, 13, 54, 0
29, 705840, Note_on_c, 13, 48, 80
29, 705900, Note_on_c, 13, 48, 0
29, 705960, Note_on_c, 13, 48, 78
29, 706020, Note_on_c, 13, 48, 0
29, 706080, Note_on_c, 13, 56, 94
29, 706140, Note_on_c, 13, 56, 0
29, 706200, Note_on_c, 13, 56, 79
29, 706260, Note_on_c, 13, 56, 0
29, 706320, Note_on_c, 13, 48, 78
29, 706380, Note_on_c, 13, 48, 0
29, 706440, Note_on_c, 13, 48, 88
29, 706500, Note_on_c, 13, 48, 0
29, 706560, Note_on_c, 13, 58, 82
29, 706620, Note_on_c, 13, 58, 0
29, 706680, Note_on_c, 13, 58, 97
29, 706740, Note_on_c, 13, 58, 0
29, 706800, Note_on_c, 13, 48, 78
29, 706860, Note_on_c, 13, 48, 0
29, 706920, Note_on_c, 13, 48, 87
29, 706980, Note_on_c, 13, 48, 0
29, 707040, Note_on_c, 13, 54, 80
29, 707100, Note_on_c, 13, 54, 0
29, 707160, Note_on_c, 13, 54, 93
29, 707220, Note_on_c, 13, 54, 0
29, 707280, Note_on_c, 13, 48, 79
29, 707340, Note_on_c, 13, 48, 0
29, 707400, Note_on_c, 13, 48, 85
29, 707460, Note_on_c, 13, 48, 0
29, 707520, Note_on_c, 13, 56, 79
29, 707580, Note_on_c, 13, 56, 0
29, 707640, Note_on_c, 13, 56, 96
29, 707700, Note_on_c, 13, 56, 0
29, 707760, Note_on_c, 13, 48, 93
29, 707820, Note_on_c, 13, 48, 0
29, 707880, Note_on_c, 13, 48, 96
29, 707940, Note_on_c, 13, 48, 0
29, 708000, Note_on_c, 13, 58, 98
29, 708060, Note_on_c, 13, 58, 0
29, 708120, Note_on_c, 13, 58, 81
29, 708180, Note_on_c, 13, 58, 0
29, 708240, Note_on_c, 13, 48, 78
29, 708300, Note_on_c, 13, 48, 0
29, 708360, Note_on_c, 13, 48, 95
29, 708420, Note_on_c, 13, 48, 0
29, 708480, Note_on_c, 13, 54, 83
29, 708540, Note_on_c, 13, 54, 0
29, 708600, Note_on_c, 13, 54, 79
29, 708660, Note_on_c, 13, 54, 0
29, 708720, Note_on_c, 13, 48, 79
29, 708780, Note_on_c, 13, 48, 0
29, 708840, Note_on_c, 13, 48, 95
29, 708900, Note_on_c, 13, 48, 0
29, 708960, Note_on_c, 13, 56, 94
29, 709020, Note_on_c, 13, 56, 0
29, 709080, Note_on_c, 13, 56, 81
29, 709140, Note_on_c, 13, 56, 0
29, 709200, Note_on_c, 13, 48, 98
29, 709260, Note_on_c, 13, 48, 0
29, 709320, Note_on_c, 13, 48, 81
29, 709380, Note_on_c, 13, 48, 0
29, 709440, Note_on_c, 13, 58, 83
29, 709500, Note_on_c, 13, 58, 0
29, 709560, Note_on_c, 13, 58, 83
29, 709620, Note_on_c, 13, 58, 0
29, 709680, Note_on_c, 13, 48, 97
29, 709740, Note_on_c, 13, 48, 0
29, 709800, Note_on_c, 13, 48, 85
29, 709860, Note_on_c, 13, 48, 0
29, 709920, Note_on_c, 13, 54, 88
29, 709980, Note_on_c, 13, 54, 0
29, 710040, Note_on_c, 13, 54, 94
29, 710100, Note_on_c, 13, 54, 0
29, 710160, Note_on_c, 13, 48, 87
29, 710220, Note_on_c, 13, 48, 0
29, 710280, Note_on_c, 13, 48, 91
29, 710340, Note_on_c, 13, 48, 0
29, 710400, Note_on_c, 13, 56, 98
29, 710460, Note_on_c, 13, 56, 0
29, 710520, Note_on_c, 13, 56, 79
29, 710580, Note_on_c, 13, 56, 0
29, 710640, Note_on_c, 13, 48, 89
29, 710700, Note_on_c, 13, 48, 0
29, 710760, Note_on_c, 13, 48, 94
29, 710820, Note_on_c, 13, 48, 0
29, 710880, Note_on_c, 13, 58, 88
29, 710940, Note_on_c, 13, 58, 0
29, 711000, Note_on_c, 13, 58, 89
29, 711060, Note_on_c, 13, 58, 0
29, 711120, Note_on_c, 13, 48, 86
29, 711180, Note_on_c, 13, 48, 0
29, 711240, Note_on_c, 13, 48, 91
29, 711300, Note_on_c, 13, 48, 0
29, 711360, Note_on_c, 13, 54, 94
29, 711420, Note_on_c, 13, 54, 0
29, 711480, Note_on_c, 13, 54, 80
29, 711540, Note_on_c, 13, 54, 0
29, 711600, Note_on_c, 13, 48, 91
29, 711660, Note_on_c, 13, 48, 0
29, 711720, Note_on_c, 13, 48, 90
29, 711780, Note_on_c, 13, 48, 0
29, 711840, Note_on_c, 13, 56, 88
29, 711900, Note_on_c, 13, 56, 0
29, 711960, Note_on_c, 13, 56, 93
29, 712020, Note_on_c, 13, 56, 0
29, 712080, Note_on_c, 13, 48, 79
29, 712140, Note_on_c, 13, 48, 0
29, 712200, Note_on_c, 13, 48, 83
29, 712260, Note_on_c, 13, 48, 0
29, 712320, Note_on_c, 13, 58, 82
29, 712380, Note_on_c, 13, 58, 0
29, 712440, Note_on_c, 13, 58, 91
29, 712500, Note_on_c, 13, 58, 0
29, 712560, Note_on_c, 13, 48, 83
29, 712620, Note_on_c, 13, 48, 0
29, 712680, Note_on_c, 13, 48, 83
29, 712740, Note_on_c, 13, 48, 0
29, 712800, Note_on_c, 13, 54, 95
29, 712860, Note_on_c, 13, 54, 0
29, 712920, Note_on_c, 13, 54, 78
29, 712980, Note_on_c, 13, 54, 0
29, 713040, Note_on_c, 13, 48, 79
29, 713100, Note_on_c, 13, 48, 0
29, 713160, Note_on_c, 13, 48, 89
29, 713220, Note_on_c, 13, 48, 0
29, 713280, Note_on_c, 13, 56, 90
29, 713340, Note_on_c, 13, 56, 0
29, 713400, Note_on_c, 13, 56, 84
29, 713460, Note_on_c, 13, 56, 0
29, 713520, Note_on_c, 13, 48, 95
29, 713580, Note_on_c, 13, 48, 0
29, 713640, Note_on_c, 13, 48, 82
29, 713700, Note_on_c, 13, 48, 0
29, 713760, Note_on_c, 13, 58, 79
29, 713820, Note_on_c, 13, 58, 0
29, 713880, Note_on_c, 13, 58, 89
29, 713940, Note_on_c, 13, 58, 0
29, 714000, Note_on_c, 13, 48, 96
29, 714060, Note_on_c, 13, 48, 0
29, 714120, Note_on_c, 13, 48, 81
29, 714180, Note_on_c, 13, 48, 0
29, 714240, Note_on_c, 13, 54, 81
29, 714300, Note_on_c, 13, 54, 0
29, 714360, Note_on_c, 13, 54, 83
29, 714420, Note_on_c, 13, 54, 0
29, 714480, Note_on_c, 13, 48, 89
29, 714540, Note_on_c, 13, 48, 0
29, 714600, Note_on_c, 13, 48, 88
29, 714660, Note_on_c, 13, 48, 0
29, 714720, Note_on_c, 13, 56, 94
29, 714780, Note_on_c, 13, 56, 0
29, 714840, Note_on_c, 13, 56, 93
29, 714900, Note_on_c, 13, 56, 0
29, 714960, Note_on_c, 13, 48, 81
29, 715020, Note_on_c, 13, 48, 0
29, 715080, Note_on_c, 13, 48, 79
29, 715140, Note_on_c, 13, 48, 0
29, 715200, Note_on_c, 13, 58, 80
29, 715260, Note_on_c, 13, 58, 0
29, 715320, Note_on_c, 13, 58, 78
29, 715380, Note_on_c, 13, 58, 0
29, 715440, Note_on_c, 13, 48, 84
29, 715500, Note_on_c, 13, 48, 0
29, 715560, Note_on_c, 13, 48, 78
29, 715620, Note_on_c, 13, 48, 0
29, 715680, Note_on_c, 13, 54, 97
29, 715740, Note_on_c, 13, 54, 0
29, 715800, Note_on_c, 13, 54, 96
29, 715860, Note_on_c, 13, 54, 0
29, 715920, Note_on_c, 13, 48, 98
29, 715980, Note_on_c, 13, 48, 0
29, 716040, Note_on_c, 13, 48, 86
29, 716100, Note_on_c, 13, 48, 0
29, 716160, Note_on_c, 13, 56, 98
29, 716220, Note_on_c, 13, 56, 0
29, 716280, Note_on_c, 13, 56, 78
29, 716340, Note_on_c, 13, 56, 0
29, 716400, Note_on_c, 13, 48, 89
29, 716460, Note_on_c, 13, 48, 0
29, 716520, Note_on_c, 13, 48, 81
29, 716580, Note_on_c, 13, 48, 0
29, 716640, Note_on_c, 13, 58, 84
29, 716700, Note_on_c, 13, 58, 0
29, 716760, Note_on_c, 13, 58, 96
29, 716820, Note_on_c, 13, 58, 0
29, 716880, Note_on_c, 13, 48, 96
29, 716940, Note_on_c, 13, 48, 0
29, 717000, Note_on_c, 13, 48, 98
29, 717060, Note_on_c, 13, 48, 0
29, 717120, Note_on_c, 13, 54, 88
29, 717180, Note_on_c, 13, 54, 0
29, 717240, Note_on_c, 13, 54, 83
29, 717300, Note_on_c, 13, 54, 0
29, 717360, Note_on_c, 13, 48, 96
29, 717420, Note_on_c, 13, 48, 0
29, 717480, Note_on_c, 13, 48, 91
29, 717540, Note_on_c, 13, 48, 0
29, 717600, Note_on_c, 13, 56, 93
29, 717660, Note_on_c, 13, 56, 0
29, 717720, Note_on_c, 13, 56, 94
29, 717780, Note_on_c, 13, 56, 0
29, 717840, Note_on_c, 13, 48, 90
29, 717900, Note_on_c, 13, 48, 0
29, 717960, Note_on_c, 13, 48, 93
29, 718020, Note_on_c, 13, 48, 0
29, 718080, Note_on_c, 13, 58, 84
29, 718140, Note_on_c, 13, 58, 0
29, 718200, Note_on_c, 13, 58, 88
29, 718260, Note_on_c, 13, 58, 0
29, 718320, Note_on_c, 13, 48, 96
29, 718380, Note_on_c, 13, 48, 0
29, 718440, Note_on_c, 13, 48, 93
29, 718500, Note_on_c, 13, 48, 0
29, 718560, Note_on_c, 13, 54, 78
29, 718620, Note_on_c, 13, 54, 0
29, 718680, Note_on_c, 13, 54, 78
29, 718740, Note_on_c, 13, 54, 0
29, 718800, Note_on_c, 13, 48, 86
29, 718860, Note_on_c, 13, 48, 0
29, 718920, Note_on_c, 13, 48, 84
29, 718980, Note_on_c, 13, 48, 0
29, 719040, Note_on_c, 13, 56, 84
29, 719100, Note_on_c, 13, 56, 0
29, 719160, Note_on_c, 13, 56, 89
29, 719220, Note_on_c, 13, 56, 0
29, 719280, Note_on_c, 13, 48, 82
29, 719340, Note_on_c, 13, 48, 0
29, 719400, Note_on_c, 13, 48, 94
29, 719460, Note_on_c, 13, 48, 0
29, 719520, Note_on_c, 13, 58, 85
29, 719580, Note_on_c, 13, 58, 0
29, 719640, Note_on_c, 13, 58, 81
29, 719700, Note_on_c, 13, 58, 0
29, 719760, Note_on_c, 13, 48, 88
29, 719820, Note_on_c, 13, 48, 0
29, 719880, Note_on_c, 13, 48, 94
29, 719940, Note_on_c, 13, 48, 0
29, 720000, Note_on_c, 13, 54, 98
29, 720060, Note_on_c, 13, 54, 0
29, 720120, Note_on_c, 13, 54, 90
29, 720180, Note_on_c, 13, 54, 0
29, 720240, Note_on_c, 13, 48, 96
29, 720300, Note_on_c, 13, 48, 0
29, 720360, Note_on_c, 13, 48, 79
29, 720420, Note_on_c, 13, 48, 0
29, 720480, Note_on_c, 13, 56, 80
29, 720540, Note_on_c, 13, 56, 0
29, 720600, Note_on_c, 13, 56, 78
29, 720660, Note_on_c, 13, 56, 0
29, 720720, Note_on_c, 13, 48, 96
29, 720780, Note_on_c, 13, 48, 0
29, 720840, Note_on_c, 13, 48, 94
29, 720900, Note_on_c, 13, 48, 0
29, 720960, Note_on_c, 13, 58, 89
29, 721020, Note_on_c, 13, 58, 0
29, 721080, Note_on_c, 13, 58, 79
29, 721140, Note_on_c, 13, 58, 0
29, 721200, Note_on_c, 13, 48, 85
29, 721260, Note_on_c, 13, 48, 0
29, 721320, Note_on_c, 13, 48, 98
29, 721380, Note_on_c, 13, 48, 0
29, 721463, Note_on_c, 13, 63, 53
29, 721543, Note_on_c, 13, 63, 0
29, 721609, Note_on_c, 13, 58, 40
29, 721690, Note_on_c, 13, 58, 0
29, 721774, Note_on_c, 13, 58, 44
29, 721854, Note_on_c, 13, 58, 0
29, 721941, Note_on_c, 13, 63, 45
29, 722021, Note_on_c, 13, 63, 0
29, 722079, Note_on_c, 13, 58, 58
29, 722160, Note_on_c, 13, 58, 0
29, 722261, Note_on_c, 13, 58, 46
29, 722341, Note_on_c, 13, 58, 0
29, 722409, Note_on_c, 13, 58, 42
29, 722489, Note_on_c, 13, 58, 0
29, 722562, Note_on_c, 13, 58, 61
29, 722643, Note_on_c, 13, 58, 0
29, 722745, Note_on_c, 13, 58, 50
29, 722825, Note_on_c, 13, 58, 0
29, 722887, Note_on_c, 13, 58, 58
29, 722967, Note_on_c, 13, 58, 0
29, 723046, Note_on_c, 13, 58, 46
29, 723127, Note_on_c, 13, 58, 0
29, 723215, Note_on_c, 13, 58, 63
29, 723295, Note_on_c, 13, 58, 0
29, 723383, Note_on_c, 13, 63, 47
29, 723463, Note_on_c, 13, 63, 0
29, 723531, Note_on_c, 13, 58, 52
29, 723612, Note_on_c, 13, 58, 0
29, 723686, Note_on_c, 13, 58, 55
29, 723766, Note_on_c, 13, 58, 0
29, 723852, Note_on_c, 13, 58, 60
29, 723932, Note_on_c, 13, 58, 0
29, 724005, Note_on_c, 13, 58, 62
29, 724086, Note_on_c, 13, 58, 0
29, 724168, Note_on_c, 13, 58, 49
29, 724248, Note_on_c, 13, 58, 0
29, 724326, Note_on_c, 13, 63, 51
29, 724406, Note_on_c, 13, 63, 0
29, 724504, Note_on_c, 13, 58, 57
29, 724585, Note_on_c, 13, 58, 0
29, 724665, Note_on_c, 13, 58, 50
29, 724745, Note_on_c, 13, 58, 0
29, 724824, Note_on_c, 13, 58, 59
29, 724904, Note_on_c, 13, 58, 0
29, 724982, Note_on_c, 13, 58, 62
29, 725063, Note_on_c, 13, 58, 0
29, 725121, Note_on_c, 13, 63, 60
29, 725201, Note_on_c, 13, 63, 0
29, 725281, Note_on_c, 13, 61, 52
29, 725361, Note_on_c, 13, 61, 0
29, 725446, Note_on_c, 13, 60, 55
29, 725527, Note_on_c, 13, 60, 0
29, 725608, Note_on_c, 13, 58, 65
29, 725688, Note_on_c, 13, 58, 0
29, 725765, Note_on_c, 13, 63, 49
29, 725845, Note_on_c, 13, 63, 0
29, 725923, Note_on_c, 13, 58, 67
29, 726004, Note_on_c, 13, 58, 0
29, 726093, Note_on_c, 13, 58, 56
29, 726173, Note_on_c, 13, 58, 0
29, 726256, Note_on_c, 13, 58, 58
29, 726336, Note_on_c, 13, 58, 0
29, 726412, Note_on_c, 13, 58, 70
29, 726493, Note_on_c, 13, 58, 0
29, 726575, Note_on_c, 13, 58, 71
29, 726655, Note_on_c, 13, 58, 0
29, 726723, Note_on_c, 13, 58, 63
29, 726803, Note_on_c, 13, 58, 0
29, 726882, Note_on_c, 13, 58, 61
29, 726963, Note_on_c, 13, 58, 0
29, 727048, Note_on_c, 13, 58, 56
29, 727128, Note_on_c, 13, 58, 0
29, 727218, Note_on_c, 13, 63, 59
29, 727377, Note_on_c, 13, 63, 0
29, 727383, Note_on_c, 13, 58, 53
29, 727526, Note_on_c, 13, 63, 55
29, 727543, Note_on_c, 13, 58, 0
29, 727685, Note_on_c, 13, 63, 0
29, 727693, Note_on_c, 13, 61, 69
29, 727852, Note_on_c, 13, 61, 0
29, 727864, Note_on_c, 13, 60, 72
29, 728017, Note_on_c, 13, 58, 67
29, 728024, Note_on_c, 13, 60, 0
29, 728176, Note_on_c, 13, 58, 0
29, 728182, Note_on_c, 13, 63, 70
29, 728339, Note_on_c, 13, 58, 58
29, 728341, Note_on_c, 13, 63, 0
29, 728451, Note_on_c, 13, 58, 0
29, 728504, Note_on_c, 13, 58, 71
29, 728615, Note_on_c, 13, 58, 0
29, 728656, Note_on_c, 13, 63, 62
29, 728805, Note_on_c, 13, 58, 56
29, 728815, Note_on_c, 13, 63, 0
29, 728965, Note_on_c, 13, 58, 0
29, 728978, Note_on_c, 13, 63, 68
29, 729121, Note_on_c, 13, 61, 56
29, 729137, Note_on_c, 13, 63, 0
29, 729280, Note_on_c, 13, 61, 0
29, 729285, Note_on_c, 13, 60, 77
29, 729444, Note_on_c, 13, 58, 70
29, 729445, Note_on_c, 13, 60, 0
29, 729603, Note_on_c, 13, 58, 0
29, 729623, Note_on_c, 13, 63, 60
29, 729771, Note_on_c, 13, 58, 67
29, 729782, Note_on_c, 13, 63, 0
29, 729883, Note_on_c, 13, 58, 0
29, 729930, Note_on_c, 13, 58, 73
29, 730041, Note_on_c, 13, 58, 0
29, 730088, Note_on_c, 13, 63, 77
29, 730245, Note_on_c, 13, 58, 59
29, 730247, Note_on_c, 13, 63, 0
29, 730357, Note_on_c, 13, 58, 0
29, 730414, Note_on_c, 13, 58, 68
29, 730525, Note_on_c, 13, 58, 0
29, 730579, Note_on_c, 13, 63, 75
29, 730720, Note_on_c, 13, 58, 74
29, 730738, Note_on_c, 13, 63, 0
29, 730832, Note_on_c, 13, 58, 0
29, 730898, Note_on_c, 13, 58, 67
29, 731009, Note_on_c, 13, 58, 0
29, 731045, Note_on_c, 13, 63, 66
29, 731200, Note_on_c, 13, 58, 81
29, 731204, Note_on_c, 13, 63, 0
29, 731312, Note_on_c, 13, 58, 0
29, 731383, Note_on_c, 13, 58, 65
29, 731494, Note_on_c, 13, 58, 0
29, 731522, Note_on_c, 13, 58, 71
29, 731633, Note_on_c, 13, 58, 0
29, 731690, Note_on_c, 13, 58, 81
29, 731802, Note_on_c, 13, 58, 0
29, 731856, Note_on_c, 13, 58, 79
29, 731967, Note_on_c, 13, 58, 0
29, 732008, Note_on_c, 13, 63, 67
29, 732167, Note_on_c, 13, 63, 0
29, 733454, Note_on_c, 13, 63, 67
29, 733613, Note_on_c, 13, 63, 0
29, 733621, Note_on_c, 13, 58, 68
29, 733773, Note_on_c, 13, 63, 82
29, 733781, Note_on_c, 13, 58, 0
29, 733932, Note_on_c, 13, 63, 0
29, 733945, Note_on_c, 13, 61, 72
29, 734103, Note_on_c, 13, 60, 77
29, 734104, Note_on_c, 13, 61, 0
29, 734243, Note_on_c, 13, 58, 79
29, 734263, Note_on_c, 13, 60, 0
29, 734400, Note_on_c, 13, 63, 76
29, 734402, Note_on_c, 13, 58, 0
29, 734559, Note_on_c, 13, 63, 0
29, 736811, Note_on_c, 13, 65, 79
29, 736928, Note_on_c, 13, 65, 67
29, 736931, Note_on_c, 13, 65, 0
29, 737045, Note_on_c, 13, 67, 69
29, 737048, Note_on_c, 13, 65, 0
29, 737165, Note_on_c, 13, 67, 0
29, 737168, Note_on_c, 13, 68, 70
29, 737288, Note_on_c, 13, 68, 0
29, 737299, Note_on_c, 13, 70, 72
29, 737419, Note_on_c, 13, 70, 0
29, 737419, Note_on_c, 13, 68, 80
29, 737521, Note_on_c, 13, 67, 70
29, 737539, Note_on_c, 13, 68, 0
29, 737641, Note_on_c, 13, 67, 0
29, 737642, Note_on_c, 13, 65, 70
29, 737762, Note_on_c, 13, 65, 0
29, 737767, Note_on_c, 13, 68, 68
29, 737884, Note_on_c, 13, 64, 65
29, 737887, Note_on_c, 13, 68, 0
29, 738004, Note_on_c, 13, 64, 0
29, 738017, Note_on_c, 13, 64, 65
29, 738127, Note_on_c, 13, 64, 70
29, 738137, Note_on_c, 13, 64, 0
29, 738247, Note_on_c, 13, 64, 0
29, 738257, Note_on_c, 13, 65, 73
29, 738377, Note_on_c, 13, 65, 0
29, 740659, Note_on_c, 13, 65, 73
29, 740768, Note_on_c, 13, 65, 66
29, 740779, Note_on_c, 13, 65, 0
29, 740888, Note_on_c, 13, 65, 0
29, 740888, Note_on_c, 13, 67, 74
29, 741008, Note_on_c, 13, 67, 0
29, 741012, Note_on_c, 13, 68, 72
29, 741121, Note_on_c, 13, 70, 71
29, 741132, Note_on_c, 13, 68, 0
29, 741241, Note_on_c, 13, 70, 0
29, 741241, Note_on_c, 13, 68, 65
29, 741361, Note_on_c, 13, 68, 0
29, 741366, Note_on_c, 13, 67, 71
29, 741486, Note_on_c, 13, 67, 0
29, 741497, Note_on_c, 13, 65, 76
29, 741606, Note_on_c, 13, 68, 80
29, 741617, Note_on_c, 13, 65, 0
29, 741726, Note_on_c, 13, 68, 0
29, 741727, Note_on_c, 13, 64, 73
29, 741847, Note_on_c, 13, 64, 0
29, 741847, Note_on_c, 13, 64, 83
29, 741961, Note_on_c, 13, 64, 80
29, 741967, Note_on_c, 13, 64, 0
29, 742081, Note_on_c, 13, 64, 0
29, 742098, Note_on_c, 13, 65, 84
29, 742218, Note_on_c, 13, 65, 0
29, 743046, Note_on_c, 13, 65, 81
29, 743166, Note_on_c, 13, 65, 0
29, 743179, Note_on_c, 13, 65, 69
29, 743282, Note_on_c, 13, 67, 65
29, 743299, Note_on_c, 13, 65, 0
29, 743402, Note_on_c, 13, 67, 0
29, 743402, Note_on_c, 13, 68, 78
29, 743522, Note_on_c, 13, 68, 0
29, 743535, Note_on_c, 13, 70, 73
29, 743640, Note_on_c, 13, 68, 73
29, 743655, Note_on_c, 13, 70, 0
29, 743760, Note_on_c, 13, 68, 0
29, 743768, Note_on_c, 13, 67, 69
29, 743888, Note_on_c, 13, 67, 0
29, 743891, Note_on_c, 13, 65, 65
29, 744007, Note_on_c, 13, 68, 83
29, 744011, Note_on_c, 13, 65, 0
29, 744124, Note_on_c, 13, 64, 67
29, 744127, Note_on_c, 13, 68, 0
29, 744244, Note_on_c, 13, 64, 0
29, 744245, Note_on_c, 13, 64, 75
29, 744365, Note_on_c, 13, 64, 0
29, 744373, Note_on_c, 13, 64, 84
29, 744481, Note_on_c, 13, 64, 83
29, 744493, Note_on_c, 13, 64, 0
29, 744601, Note_on_c, 13, 64, 0
29, 744625, Note_on_c, 13, 64, 69
29, 744734, Note_on_c, 13, 64, 85
29, 744745, Note_on_c, 13, 64, 0
29, 744849, Note_on_c, 13, 64, 72
29, 744854, Note_on_c, 13, 64, 0
29, 744967, Note_on_c, 13, 65, 75
29, 744969, Note_on_c, 13, 64, 0
29, 745087, Note_on_c, 13, 65, 0
29, 745101, Note_on_c, 13, 65, 84
29, 745217, Note_on_c, 13, 67, 80
29, 745221, Note_on_c, 13, 65, 0
29, 745337, Note_on_c, 13, 67, 0
29, 745343, Note_on_c, 13, 68, 83
29, 745462, Note_on_c, 13, 70, 82
29, 745463, Note_on_c, 13, 68, 0
29, 745582, Note_on_c, 13, 70, 0
29, 745583, Note_on_c, 13, 68, 65
29, 745687, Note_on_c, 13, 67, 69
29, 745703, Note_on_c, 13, 68, 0
29, 745807, Note_on_c, 13, 67, 0
29, 745809, Note_on_c, 13, 65, 81
29, 745929, Note_on_c, 13, 65, 0
29, 745937, Note_on_c, 13, 68, 85
29, 746042, Note_on_c, 13, 65, 80
29, 746057, Note_on_c, 13, 68, 0
29, 746160, Note_on_c, 13, 67, 72
29, 746162, Note_on_c, 13, 65, 0
29, 746280, Note_on_c, 13, 67, 0
29, 746280, Note_on_c, 13, 68, 77
29, 746400, Note_on_c, 13, 68, 0
29, 746417, Note_on_c, 13, 70, 77
29, 746537, Note_on_c, 13, 70, 0
29, 746544, Note_on_c, 13, 68, 73
29, 746645, Note_on_c, 13, 67, 67
29, 746664, Note_on_c, 13, 68, 0
29, 746765, Note_on_c, 13, 67, 0
29, 746776, Note_on_c, 13, 65, 83
29, 746892, Note_on_c, 13, 68, 74
29, 746896, Note_on_c, 13, 65, 0
29, 747012, Note_on_c, 13, 68, 0
29, 747020, Note_on_c, 13, 64, 76
29, 747130, Note_on_c, 13, 64, 84
29, 747140, Note_on_c, 13, 64, 0
29, 747250, Note_on_c, 13, 64, 0
29, 747260, Note_on_c, 13, 64, 82
29, 747363, Note_on_c, 13, 65, 77
29, 747380, Note_on_c, 13, 64, 0
29, 747483, Note_on_c, 13, 65, 0
29, 747856, Note_on_c, 13, 65, 75
29, 747975, Note_on_c, 13, 65, 66
29, 747976, Note_on_c, 13, 65, 0
29, 748080, Note_on_c, 13, 67, 69
29, 748095, Note_on_c, 13, 65, 0
29, 748200, Note_on_c, 13, 67, 0
29, 748218, Note_on_c, 13, 68, 72
29, 748338, Note_on_c, 13, 68, 0
29, 748338, Note_on_c, 13, 70, 74
29, 748451, Note_on_c, 13, 68, 73
29, 748458, Note_on_c, 13, 70, 0
29, 748571, Note_on_c, 13, 68, 0
29, 748584, Note_on_c, 13, 67, 78
29, 748686, Note_on_c, 13, 65, 81
29, 748704, Note_on_c, 13, 67, 0
29, 748806, Note_on_c, 13, 65, 0
29, 748810, Note_on_c, 13, 70, 68
29, 748930, Note_on_c, 13, 70, 0
29, 748937, Note_on_c, 13, 68, 69
29, 749055, Note_on_c, 13, 67, 83
29, 749057, Note_on_c, 13, 68, 0
29, 749160, Note_on_c, 13, 65, 83
29, 749175, Note_on_c, 13, 67, 0
29, 749280, Note_on_c, 13, 65, 0
29, 749282, Note_on_c, 13, 68, 75
29, 749402, Note_on_c, 13, 68, 0
29, 749406, Note_on_c, 13, 64, 71
29, 749521, Note_on_c, 13, 64, 77
29, 749526, Note_on_c, 13, 64, 0
29, 749641, Note_on_c, 13, 64, 0
29, 749643, Note_on_c, 13, 64, 71
29, 749763, Note_on_c, 13, 64, 0
29, 749777, Note_on_c, 13, 64, 83
29, 749897, Note_on_c, 13, 64, 0
29, 749905, Note_on_c, 13, 64, 81
29, 750007, Note_on_c, 13, 64, 71
29, 750025, Note_on_c, 13, 64, 0
29, 750126, Note_on_c, 13, 64, 67
29, 750127, Note_on_c, 13, 64, 0
29, 750246, Note_on_c, 13, 64, 0
29, 750254, Note_on_c, 13, 65, 76
29, 750374, Note_on_c, 13, 65, 0
29, 751688, Note_on_c, 13, 65, 84
29, 751808, Note_on_c, 13, 65, 0
29, 751809, Note_on_c, 13, 65, 77
29, 751929, Note_on_c, 13, 65, 0
29, 751934, Note_on_c, 13, 67, 76
29, 752054, Note_on_c, 13, 67, 0
29, 752061, Note_on_c, 13, 68, 84
29, 752168, Note_on_c, 13, 70, 66
29, 752181, Note_on_c, 13, 68, 0
29, 752288, Note_on_c, 13, 70, 0
29, 752301, Note_on_c, 13, 68, 76
29, 752408, Note_on_c, 13, 67, 84
29, 752421, Note_on_c, 13, 68, 0
29, 752528, Note_on_c, 13, 67, 0
29, 752538, Note_on_c, 13, 65, 68
29, 752658, Note_on_c, 13, 65, 0
29, 752664, Note_on_c, 13, 68, 84
29, 752760, Note_on_c, 13, 64, 71
29, 752784, Note_on_c, 13, 68, 0
29, 752880, Note_on_c, 13, 64, 0
29, 752905, Note_on_c, 13, 64, 71
29, 753010, Note_on_c, 13, 64, 78
29, 753025, Note_on_c, 13, 64, 0
29, 753126, Note_on_c, 13, 65, 76
29, 753130, Note_on_c, 13, 64, 0
29, 753246, Note_on_c, 13, 65, 0
29, 753255, Note_on_c, 13, 65, 78
29, 753363, Note_on_c, 13, 67, 69
29, 753375, Note_on_c, 13, 65, 0
29, 753483, Note_on_c, 13, 67, 0
29, 753487, Note_on_c, 13, 68, 84
29, 753607, Note_on_c, 13, 68, 0
29, 753611, Note_on_c, 13, 70, 68
29, 753725, Note_on_c, 13, 68, 84
29, 753731, Note_on_c, 13, 70, 0
29, 753845, Note_on_c, 13, 68, 0
29, 753851, Note_on_c, 13, 67, 84
29, 753967, Note_on_c, 13, 65, 81
29, 753971, Note_on_c, 13, 67, 0
29, 754081, Note_on_c, 13, 68, 84
29, 754087, Note_on_c, 13, 65, 0
29, 754201, Note_on_c, 13, 68, 0
29, 754219, Note_on_c, 13, 64, 84
29, 754335, Note_on_c, 13, 64, 73
29, 754339, Note_on_c, 13, 64, 0
29, 754442, Note_on_c, 13, 64, 65
29, 754455, Note_on_c, 13, 64, 0
29, 754562, Note_on_c, 13, 64, 0
29, 754575, Note_on_c, 13, 65, 83
29, 754695, Note_on_c, 13, 65, 0
29, 755061, Note_on_c, 13, 65, 72
29, 755178, Note_on_c, 13, 65, 82
29, 755181, Note_on_c, 13, 65, 0
29, 755287, Note_on_c, 13, 67, 79
29, 755298, Note_on_c, 13, 65, 0
29, 755407, Note_on_c, 13, 67, 0
29, 755423, Note_on_c, 13, 68, 85
29, 755526, Note_on_c, 13, 70, 83
29, 755543, Note_on_c, 13, 68, 0
29, 755646, Note_on_c, 13, 70, 0
29, 755662, Note_on_c, 13, 68, 74
29, 755773, Note_on_c, 13, 67, 79
29, 755782, Note_on_c, 13, 68, 0
29, 755887, Note_on_c, 13, 65, 85
29, 755893, Note_on_c, 13, 67, 0
29, 756007, Note_on_c, 13, 65, 0
29, 756014, Note_on_c, 13, 65, 93
29, 756134, Note_on_c, 13, 65, 0
29, 756134, Note_on_c, 13, 65, 84
29, 756253, Note_on_c, 13, 67, 92
29, 756254, Note_on_c, 13, 65, 0
29, 756373, Note_on_c, 13, 67, 0
29, 756380, Note_on_c, 13, 68, 86
29, 756492, Note_on_c, 13, 70, 94
29, 756500, Note_on_c, 13, 68, 0
29, 756612, Note_on_c, 13, 70, 0
29, 756614, Note_on_c, 13, 68, 80
29, 756731, Note_on_c, 13, 67, 82
29, 756734, Note_on_c, 13, 68, 0
29, 756844, Note_on_c, 13, 65, 98
29, 756851, Note_on_c, 13, 67, 0
29, 756964, Note_on_c, 13, 65, 0
29, 756984, Note_on_c, 13, 65, 97
29, 757104, Note_on_c, 13, 65, 0
29, 757105, Note_on_c, 13, 65, 81
29, 757202, Note_on_c, 13, 67, 96
29, 757225, Note_on_c, 13, 65, 0
29, 757322, Note_on_c, 13, 67, 0
29, 757343, Note_on_c, 13, 68, 95
29, 757449, Note_on_c, 13, 70, 85
29, 757463, Note_on_c, 13, 68, 0
29, 757564, Note_on_c, 13, 68, 85
29, 757569, Note_on_c, 13, 70, 0
29, 757684, Note_on_c, 13, 68, 0
29, 757685, Note_on_c, 13, 67, 83
29, 757805, Note_on_c, 13, 67, 0
29, 757813, Note_on_c, 13, 65, 78
29, 757933, Note_on_c, 13, 65, 0
29, 757937, Note_on_c, 13, 68, 85
29, 758057, Note_on_c, 13, 68, 0
29, 758064, Note_on_c, 13, 64, 87
29, 758184, Note_on_c, 13, 64, 0
29, 758185, Note_on_c, 13, 64, 89
29, 758280, Note_on_c, 13, 64, 93
29, 758305, Note_on_c, 13, 64, 0
29, 758400, Note_on_c, 13, 64, 0
29, 758406, Note_on_c, 13, 64, 89
29, 758474, Note_on_c, 13, 64, 0
29, 758490, Note_on_c, 13, 65, 83
29, 758555, Note_on_c, 13, 64, 97
29, 758558, Note_on_c, 13, 65, 0
29, 758611, Note_on_c, 13, 65, 81
29, 758623, Note_on_c, 13, 64, 0
29, 758679, Note_on_c, 13, 65, 0
29, 758697, Note_on_c, 13, 64, 78
29, 758758, Note_on_c, 13, 65, 89
29, 758765, Note_on_c, 13, 64, 0
29, 758826, Note_on_c, 13, 65, 0
29, 758832, Note_on_c, 13, 64, 95
29, 758882, Note_on_c, 13, 65, 94
29, 758897, Note_on_c, 13, 64, 0
29, 759002, Note_on_c, 13, 65, 0
29, 759366, Note_on_c, 13, 65, 85
29, 759486, Note_on_c, 13, 65, 0
29, 759498, Note_on_c, 13, 65, 81
29, 759618, Note_on_c, 13, 65, 0
29, 759618, Note_on_c, 13, 67, 96
29, 759738, Note_on_c, 13, 67, 0
29, 759741, Note_on_c, 13, 68, 81
29, 759841, Note_on_c, 13, 70, 95
29, 759861, Note_on_c, 13, 68, 0
29, 759961, Note_on_c, 13, 70, 0
29, 759977, Note_on_c, 13, 68, 88
29, 760082, Note_on_c, 13, 67, 85
29, 760097, Note_on_c, 13, 68, 0
29, 760202, Note_on_c, 13, 67, 0
29, 760218, Note_on_c, 13, 65, 86
29, 760329, Note_on_c, 13, 68, 84
29, 760338, Note_on_c, 13, 65, 0
29, 760449, Note_on_c, 13, 68, 0
29, 760464, Note_on_c, 13, 64, 93
29, 760583, Note_on_c, 13, 64, 92
29, 760584, Note_on_c, 13, 64, 0
29, 760696, Note_on_c, 13, 64, 95
29, 760703, Note_on_c, 13, 64, 0
29, 760816, Note_on_c, 13, 64, 0
29, 760822, Note_on_c, 13, 64, 95
29, 760879, Note_on_c, 13, 65, 83
29, 760890, Note_on_c, 13, 64, 0
29, 760937, Note_on_c, 13, 64, 89
29, 760947, Note_on_c, 13, 65, 0
29, 761005, Note_on_c, 13, 64, 0
29, 761005, Note_on_c, 13, 65, 80
29, 761073, Note_on_c, 13, 65, 0
29, 761078, Note_on_c, 13, 64, 86
29, 761146, Note_on_c, 13, 64, 0
29, 761155, Note_on_c, 13, 65, 92
29, 761223, Note_on_c, 13, 65, 0
29, 761229, Note_on_c, 13, 64, 86
29, 761287, Note_on_c, 13, 65, 84
29, 761294, Note_on_c, 13, 64, 0
29, 761407, Note_on_c, 13, 65, 0
29, 761419, Note_on_c, 13, 65, 89
29, 761533, Note_on_c, 13, 67, 95
29, 761539, Note_on_c, 13, 65, 0
29, 761646, Note_on_c, 13, 68, 86
29, 761653, Note_on_c, 13, 67, 0
29, 761766, Note_on_c, 13, 68, 0
29, 761775, Note_on_c, 13, 70, 79
29, 761888, Note_on_c, 13, 68, 92
29, 761895, Note_on_c, 13, 70, 0
29, 762008, Note_on_c, 13, 68, 0
29, 762013, Note_on_c, 13, 67, 92
29, 762133, Note_on_c, 13, 67, 0
29, 762143, Note_on_c, 13, 65, 97
29, 762263, Note_on_c, 13, 65, 0
29, 762265, Note_on_c, 13, 70, 98
29, 762366, Note_on_c, 13, 68, 88
29, 762385, Note_on_c, 13, 70, 0
29, 762486, Note_on_c, 13, 68, 0
29, 762494, Note_on_c, 13, 67, 80
29, 762614, Note_on_c, 13, 67, 0
29, 762620, Note_on_c, 13, 65, 78
29, 762730, Note_on_c, 13, 68, 82
29, 762740, Note_on_c, 13, 65, 0
29, 762850, Note_on_c, 13, 68, 0
29, 762865, Note_on_c, 13, 64, 87
29, 762984, Note_on_c, 13, 64, 98
29, 762985, Note_on_c, 13, 64, 0
29, 763100, Note_on_c, 13, 64, 82
29, 763104, Note_on_c, 13, 64, 0
29, 763204, Note_on_c, 13, 65, 93
29, 763220, Note_on_c, 13, 64, 0
29, 763324, Note_on_c, 13, 65, 0
29, 763328, Note_on_c, 13, 65, 93
29, 763448, Note_on_c, 13, 65, 0
29, 763453, Note_on_c, 13, 67, 82
29, 763573, Note_on_c, 13, 67, 0
29, 763585, Note_on_c, 13, 68, 87
29, 763681, Note_on_c, 13, 70, 80
29, 763705, Note_on_c, 13, 68, 0
29, 763801, Note_on_c, 13, 70, 0
29, 763825, Note_on_c, 13, 68, 84
29, 763928, Note_on_c, 13, 67, 84
29, 763945, Note_on_c, 13, 68, 0
29, 764048, Note_on_c, 13, 67, 0
29, 764061, Note_on_c, 13, 65, 87
29, 764168, Note_on_c, 13, 68, 78
29, 764181, Note_on_c, 13, 65, 0
29, 764286, Note_on_c, 13, 64, 95
29, 764288, Note_on_c, 13, 68, 0
29, 764406, Note_on_c, 13, 64, 0
29, 764406, Note_on_c, 13, 64, 97
29, 764526, Note_on_c, 13, 64, 0
29, 764543, Note_on_c, 13, 64, 90
29, 764662, Note_on_c, 13, 65, 88
29, 764663, Note_on_c, 13, 64, 0
29, 764776, Note_on_c, 13, 65, 85
29, 764782, Note_on_c, 13, 65, 0
29, 764896, Note_on_c, 13, 65, 0
29, 764904, Note_on_c, 13, 67, 101
29, 765024, Note_on_c, 13, 67, 0
29, 765025, Note_on_c, 13, 68, 90
29, 765135, Note_on_c, 13, 70, 89
29, 765145, Note_on_c, 13, 68, 0
29, 765241, Note_on_c, 13, 68, 103
29, 765255, Note_on_c, 13, 70, 0
29, 765361, Note_on_c, 13, 68, 0
29, 765376, Note_on_c, 13, 67, 107
29, 765484, Note_on_c, 13, 65, 110
29, 765496, Note_on_c, 13, 67, 0
29, 765604, Note_on_c, 13, 65, 0
29, 765614, Note_on_c, 13, 68, 111
29, 765734, Note_on_c, 13, 68, 0
29, 765738, Note_on_c, 13, 64, 110
29, 765853, Note_on_c, 13, 64, 120
29, 765858, Note_on_c, 13, 64, 0
29, 765965, Note_on_c, 13, 64, 108
29, 765973, Note_on_c, 13, 64, 0
29, 766085, Note_on_c, 13, 64, 0
29, 766102, Note_on_c, 13, 64, 84
29, 766220, Note_on_c, 13, 65, 84
29, 766222, Note_on_c, 13, 64, 0
29, 766333, Note_on_c, 13, 67, 86
29, 766340, Note_on_c, 13, 65, 0
29, 766440, Note_on_c, 13, 68, 93
29, 766453, Note_on_c, 13, 67, 0
29, 766560, Note_on_c, 13, 68, 0
29, 766573, Note_on_c, 13, 70, 90
29, 766693, Note_on_c, 13, 70, 0
29, 766700, Note_on_c, 13, 68, 103
29, 766820, Note_on_c, 13, 68, 0
29, 766821, Note_on_c, 13, 67, 84
29, 766930, Note_on_c, 13, 65, 94
29, 766941, Note_on_c, 13, 67, 0
29, 767050, Note_on_c, 13, 65, 0
29, 767063, Note_on_c, 13, 68, 101
29, 767162, Note_on_c, 13, 64, 99
29, 767183, Note_on_c, 13, 68, 0
29, 767282, Note_on_c, 13, 64, 0
29, 767287, Note_on_c, 13, 64, 89
29, 767400, Note_on_c, 13, 64, 106
29, 767407, Note_on_c, 13, 64, 0
29, 767520, Note_on_c, 13, 64, 0
29, 767532, Note_on_c, 13, 70, 106
29, 767651, Note_on_c, 13, 68, 101
29, 767652, Note_on_c, 13, 70, 0
29, 767771, Note_on_c, 13, 68, 0
29, 767774, Note_on_c, 13, 67, 100
29, 767894, Note_on_c, 13, 67, 0
29, 767903, Note_on_c, 13, 65, 111
29, 768011, Note_on_c, 13, 68, 112
29, 768023, Note_on_c, 13, 65, 0
29, 768131, Note_on_c, 13, 68, 0
29, 768138, Note_on_c, 13, 64, 115
29, 768258, Note_on_c, 13, 64, 0
29, 768259, Note_on_c, 13, 65, 108
29, 768378, Note_on_c, 13, 67, 116
29, 768379, Note_on_c, 13, 65, 0
29, 768492, Note_on_c, 13, 70, 119
29, 768498, Note_on_c, 13, 67, 0
29, 768612, Note_on_c, 13, 70, 0
29, 768620, Note_on_c, 13, 68, 119
29, 768721, Note_on_c, 13, 67, 106
29, 768740, Note_on_c, 13, 68, 0
29, 768841, Note_on_c, 13, 67, 0
29, 768865, Note_on_c, 13, 65, 106
29, 768975, Note_on_c, 13, 68, 119
29, 768985, Note_on_c, 13, 65, 0
29, 769091, Note_on_c, 13, 64, 111
29, 769095, Note_on_c, 13, 68, 0
29, 769203, Note_on_c, 13, 64, 124
29, 769211, Note_on_c, 13, 64, 0
29, 769323, Note_on_c, 13, 64, 0
29, 769329, Note_on_c, 13, 64, 114
29, 769449, Note_on_c, 13, 64, 0
29, 769454, Note_on_c, 13, 64, 125
29, 769574, Note_on_c, 13, 64, 0
29, 769583, Note_on_c, 13, 65, 123
29, 769697, Note_on_c, 13, 67, 122
29, 769703, Note_on_c, 13, 65, 0
29, 769810, Note_on_c, 13, 68, 111
29, 769817, Note_on_c, 13, 67, 0
29, 769926, Note_on_c, 13, 70, 116
29, 769930, Note_on_c, 13, 68, 0
29, 770046, Note_on_c, 13, 70, 0
29, 770060, Note_on_c, 13, 68, 127
29, 770165, Note_on_c, 13, 67, 118
29, 770180, Note_on_c, 13, 68, 0
29, 770285, Note_on_c, 13, 67, 0
29, 770299, Note_on_c, 13, 65, 127
29, 770419, Note_on_c, 13, 65, 0
29, 770420, Note_on_c, 13, 64, 116
29, 770538, Note_on_c, 13, 65, 125
29, 770540, Note_on_c, 13, 64, 0
29, 770655, Note_on_c, 13, 67, 127
29, 770658, Note_on_c, 13, 65, 0
29, 770775, Note_on_c, 13, 67, 0
29, 770784, Note_on_c, 13, 68, 127
29, 770899, Note_on_c, 13, 70, 127
29, 770904, Note_on_c, 13, 68, 0
29, 771006, Note_on_c, 13, 68, 127
29, 771019, Note_on_c, 13, 70, 0
29, 771126, Note_on_c, 13, 68, 0
29, 771134, Note_on_c, 13, 67, 127
29, 771253, Note_on_c, 13, 65, 117
29, 771254, Note_on_c, 13, 67, 0
29, 771373, Note_on_c, 13, 65, 0
29, 771373, Note_on_c, 13, 68, 127
29, 771493, Note_on_c, 13, 68, 0
29, 771495, Note_on_c, 13, 64, 127
29, 771613, Note_on_c, 13, 64, 119
29, 771615, Note_on_c, 13, 64, 0
29, 771733, Note_on_c, 13, 64, 0
29, 771739, Note_on_c, 13, 64, 127
29, 771852, Note_on_c, 13, 65, 123
29, 771859, Note_on_c, 13, 64, 0
29, 771960, Note_on_c, 13, 65, 127
29, 771972, Note_on_c, 13, 65, 0
29, 772080, Note_on_c, 13, 65, 0
29, 772102, Note_on_c, 13, 67, 127
29, 772222, Note_on_c, 13, 67, 0
29, 772225, Note_on_c, 13, 68, 127
29, 772337, Note_on_c, 13, 70, 127
29, 772345, Note_on_c, 13, 68, 0
29, 772453, Note_on_c, 13, 68, 127
29, 772457, Note_on_c, 13, 70, 0
29, 772573, Note_on_c, 13, 68, 0
29, 772578, Note_on_c, 13, 67, 126
29, 772697, Note_on_c, 13, 65, 123
29, 772698, Note_on_c, 13, 67, 0
29, 772817, Note_on_c, 13, 65, 0
29, 772819, Note_on_c, 13, 68, 120
29, 772939, Note_on_c, 13, 68, 0
29, 772939, End_track
30, 0, Start_track
30, 0, Title_t, "Viole II"
30, 0, MIDI_port, 0
30, 0, Program_c, 13, 48
30, 69120, Note_on_c, 13, 67, 73
30, 69159, Note_on_c, 13, 67, 0
30, 69159, Note_on_c, 13, 72, 74
30, 69199, Note_on_c, 13, 72, 0
30, 69200, Note_on_c, 13, 76, 69
30, 69239, Note_on_c, 13, 76, 0
30, 69240, Note_on_c, 13, 79, 65
30, 69279, Note_on_c, 13, 79, 0
30, 69279, Note_on_c, 13, 82, 64
30, 69319, Note_on_c, 13, 82, 0
30, 69320, Note_on_c, 13, 84, 71
30, 69359, Note_on_c, 13, 84, 0
30, 69360, Note_on_c, 13, 86, 55
30, 69399, Note_on_c, 13, 86, 0
30, 69399, Note_on_c, 13, 84, 74
30, 69439, Note_on_c, 13, 84, 0
30, 69440, Note_on_c, 13, 82, 60
30, 69479, Note_on_c, 13, 82, 0
30, 69480, Note_on_c, 13, 79, 70
30, 69519, Note_on_c, 13, 79, 0
30, 69519, Note_on_c, 13, 76, 55
30, 69559, Note_on_c, 13, 76, 0
30, 69560, Note_on_c, 13, 72, 59
30, 69599, Note_on_c, 13, 72, 0
30, 69615, Note_on_c, 13, 67, 72
30, 69840, Note_on_c, 13, 67, 71
30, 69855, Note_on_c, 13, 67, 0
30, 69879, Note_on_c, 13, 67, 0
30, 69879, Note_on_c, 13, 72, 55
30, 69919, Note_on_c, 13, 72, 0
30, 69920, Note_on_c, 13, 76, 67
30, 69959, Note_on_c, 13, 76, 0
30, 69960, Note_on_c, 13, 79, 69
30, 69999, Note_on_c, 13, 79, 0
30, 69999, Note_on_c, 13, 82, 62
30, 70039, Note_on_c, 13, 82, 0
30, 70040, Note_on_c, 13, 84, 66
30, 70079, Note_on_c, 13, 84, 0
30, 70080, Note_on_c, 13, 86, 67
30, 70119, Note_on_c, 13, 86, 0
30, 70119, Note_on_c, 13, 84, 69
30, 70159, Note_on_c, 13, 84, 0
30, 70160, Note_on_c, 13, 82, 64
30, 70199, Note_on_c, 13, 82, 0
30, 70200, Note_on_c, 13, 79, 54
30, 70239, Note_on_c, 13, 79, 0
30, 70239, Note_on_c, 13, 76, 63
30, 70279, Note_on_c, 13, 76, 0
30, 70280, Note_on_c, 13, 72, 72
30, 70319, Note_on_c, 13, 72, 0
30, 70323, Note_on_c, 13, 67, 64
30, 70560, Note_on_c, 13, 67, 62
30, 70563, Note_on_c, 13, 67, 0
30, 70599, Note_on_c, 13, 67, 0
30, 70599, Note_on_c, 13, 72, 73
30, 70639, Note_on_c, 13, 72, 0
30, 70640, Note_on_c, 13, 76, 54
30, 70679, Note_on_c, 13, 76, 0
30, 70680, Note_on_c, 13, 79, 68
30, 70719, Note_on_c, 13, 79, 0
30, 70719, Note_on_c, 13, 82, 72
30, 70759, Note_on_c, 13, 82, 0
30, 70760, Note_on_c, 13, 84, 72
30, 70799, Note_on_c, 13, 84, 0
30, 70800, Note_on_c, 13, 86, 73
30, 70839, Note_on_c, 13, 86, 0
30, 70839, Note_on_c, 13, 84, 61
30, 70879, Note_on_c, 13, 84, 0
30, 70880, Note_on_c, 13, 82, 69
30, 70919, Note_on_c, 13, 82, 0
30, 70920, Note_on_c, 13, 79, 59
30, 70959, Note_on_c, 13, 79, 0
30, 70959, Note_on_c, 13, 76, 56
30, 70999, Note_on_c, 13, 76, 0
30, 71000, Note_on_c, 13, 72, 62
30, 71039, Note_on_c, 13, 72, 0
30, 71040, Note_on_c, 13, 67, 60
30, 71280, Note_on_c, 13, 67, 0
30, 71280, Note_on_c, 13, 67, 62
30, 71319, Note_on_c, 13, 67, 0
30, 71319, Note_on_c, 13, 72, 61
30, 71359, Note_on_c, 13, 72, 0
30, 71360, Note_on_c, 13, 76, 56
30, 71399, Note_on_c, 13, 76, 0
30, 71400, Note_on_c, 13, 79, 56
30, 71439, Note_on_c, 13, 79, 0
30, 71439, Note_on_c, 13, 82, 66
30, 71479, Note_on_c, 13, 82, 0
30, 71480, Note_on_c, 13, 84, 60
30, 71519, Note_on_c, 13, 84, 0
30, 80400, Note_on_c, 13, 64, 45
30, 80402, Note_on_c, 13, 54, 53
30, 80415, Note_on_c, 13, 58, 46
30, 81600, Note_on_c, 13, 64, 0
30, 81602, Note_on_c, 13, 54, 0
30, 81608, Note_on_c, 13, 63, 45
30, 81613, Note_on_c, 13, 52, 41
30, 81848, Note_on_c, 13, 63, 0
30, 81853, Note_on_c, 13, 52, 0
30, 81855, Note_on_c, 13, 58, 0
30, 206730, Note_on_c, 13, 72, 41
30, 206760, Note_on_c, 13, 72, 0
30, 206760, Note_on_c, 13, 73, 56
30, 206790, Note_on_c, 13, 73, 0
30, 206790, Note_on_c, 13, 75, 50
30, 206820, Note_on_c, 13, 75, 0
30, 206820, Note_on_c, 13, 77, 42
30, 206850, Note_on_c, 13, 77, 0
30, 206850, Note_on_c, 13, 78, 56
30, 206880, Note_on_c, 13, 78, 0
30, 206891, Note_on_c, 13, 80, 94
30, 206964, Note_on_c, 13, 80, 0
30, 206968, Note_on_c, 13, 82, 88
30, 207041, Note_on_c, 13, 82, 0
30, 207047, Note_on_c, 13, 80, 78
30, 207120, Note_on_c, 13, 80, 0
30, 207124, Note_on_c, 13, 82, 97
30, 207182, Note_on_c, 13, 80, 81
30, 207197, Note_on_c, 13, 82, 0
30, 207255, Note_on_c, 13, 80, 0
30, 207256, Note_on_c, 13, 82, 91
30, 207329, Note_on_c, 13, 82, 0
30, 207344, Note_on_c, 13, 80, 80
30, 207411, Note_on_c, 13, 82, 88
30, 207417, Note_on_c, 13, 80, 0
30, 207472, Note_on_c, 13, 80, 91
30, 207484, Note_on_c, 13, 82, 0
30, 207545, Note_on_c, 13, 80, 0
30, 207564, Note_on_c, 13, 82, 86
30, 207626, Note_on_c, 13, 80, 87
30, 207637, Note_on_c, 13, 82, 0
30, 207692, Note_on_c, 13, 82, 92
30, 207699, Note_on_c, 13, 80, 0
30, 207763, Note_on_c, 13, 80, 82
30, 207765, Note_on_c, 13, 82, 0
30, 207836, Note_on_c, 13, 80, 0
30, 208710, Note_on_c, 13, 68, 86
30, 208740, Note_on_c, 13, 68, 0
30, 208740, Note_on_c, 13, 70, 86
30, 208770, Note_on_c, 13, 70, 0
30, 208770, Note_on_c, 13, 72, 82
30, 208800, Note_on_c, 13, 72, 0
30, 208800, Note_on_c, 13, 73, 97
30, 208847, Note_on_c, 13, 73, 0
30, 208920, Note_on_c, 13, 72, 91
30, 208967, Note_on_c, 13, 72, 0
30, 209040, Note_on_c, 13, 70, 91
30, 209087, Note_on_c, 13, 70, 0
30, 209160, Note_on_c, 13, 68, 81
30, 209207, Note_on_c, 13, 68, 0
30, 209280, Note_on_c, 13, 66, 78
30, 209327, Note_on_c, 13, 66, 0
30, 209400, Note_on_c, 13, 65, 79
30, 209447, Note_on_c, 13, 65, 0
30, 209520, Note_on_c, 13, 63, 98
30, 209567, Note_on_c, 13, 63, 0
30, 209640, Note_on_c, 13, 61, 96
30, 209670, Note_on_c, 13, 74, 92
30, 209687, Note_on_c, 13, 61, 0
30, 209700, Note_on_c, 13, 74, 0
30, 209700, Note_on_c, 13, 75, 92
30, 209730, Note_on_c, 13, 75, 0
30, 209730, Note_on_c, 13, 77, 91
30, 209760, Note_on_c, 13, 77, 0
30, 209760, Note_on_c, 13, 78, 78
30, 209807, Note_on_c, 13, 78, 0
30, 209880, Note_on_c, 13, 77, 92
30, 209927, Note_on_c, 13, 77, 0
30, 210000, Note_on_c, 13, 75, 86
30, 210047, Note_on_c, 13, 75, 0
30, 210120, Note_on_c, 13, 73, 96
30, 210167, Note_on_c, 13, 73, 0
30, 210240, Note_on_c, 13, 72, 88
30, 210287, Note_on_c, 13, 72, 0
30, 210360, Note_on_c, 13, 70, 98
30, 210407, Note_on_c, 13, 70, 0
30, 210480, Note_on_c, 13, 68, 79
30, 210527, Note_on_c, 13, 68, 0
30, 210600, Note_on_c, 13, 66, 80
30, 210630, Note_on_c, 13, 68, 82
30, 210647, Note_on_c, 13, 66, 0
30, 210660, Note_on_c, 13, 68, 0
30, 210660, Note_on_c, 13, 70, 93
30, 210690, Note_on_c, 13, 70, 0
30, 210690, Note_on_c, 13, 72, 89
30, 210720, Note_on_c, 13, 72, 0
30, 210720, Note_on_c, 13, 73, 93
30, 210767, Note_on_c, 13, 73, 0
30, 210840, Note_on_c, 13, 72, 82
30, 210887, Note_on_c, 13, 72, 0
30, 210960, Note_on_c, 13, 70, 89
30, 211007, Note_on_c, 13, 70, 0
30, 211080, Note_on_c, 13, 68, 90
30, 211127, Note_on_c, 13, 68, 0
30, 211200, Note_on_c, 13, 66, 83
30, 211247, Note_on_c, 13, 66, 0
30, 211320, Note_on_c, 13, 65, 78
30, 211367, Note_on_c, 13, 65, 0
30, 211440, Note_on_c, 13, 63, 87
30, 211487, Note_on_c, 13, 63, 0
30, 211560, Note_on_c, 13, 61, 89
30, 211607, Note_on_c, 13, 61, 0
30, 212400, Program_c, 12, 45
30, 212400, Note_on_c, 12, 60, 50
30, 212640, Note_on_c, 12, 60, 0
30, 213852, Note_on_c, 12, 60, 87
30, 214092, Note_on_c, 12, 60, 0
30, 214335, Note_on_c, 12, 76, 98
30, 214575, Note_on_c, 12, 76, 0
30, 215304, Note_on_c, 12, 60, 93
30, 215544, Note_on_c, 12, 60, 0
30, 215765, Note_on_c, 12, 70, 89
30, 215777, Note_on_c, 12, 68, 92
30, 216005, Note_on_c, 12, 70, 0
30, 216017, Note_on_c, 12, 68, 0
30, 216488, Note_on_c, 12, 73, 102
30, 216501, Note_on_c, 12, 63, 92
30, 216728, Note_on_c, 12, 73, 0
30, 216741, Note_on_c, 12, 63, 0
30, 217445, Note_on_c, 12, 73, 85
30, 217446, Note_on_c, 12, 63, 105
30, 217685, Note_on_c, 12, 73, 0
30, 217686, Note_on_c, 12, 63, 0
30, 218176, Note_on_c, 12, 60, 78
30, 218416, Note_on_c, 12, 60, 0
30, 218647, Note_on_c, 12, 70, 100
30, 218662, Note_on_c, 12, 66, 101
30, 218887, Note_on_c, 12, 70, 0
30, 218902, Note_on_c, 12, 66, 0
30, 219360, Program_c, 13, 45
30, 219373, Note_on_c, 13, 60, 84
30, 219491, Note_on_c, 13, 60, 95
30, 219493, Note_on_c, 13, 60, 0
30, 219611, Note_on_c, 13, 60, 0
30, 219624, Note_on_c, 13, 60, 87
30, 219742, Note_on_c, 13, 60, 87
30, 219744, Note_on_c, 13, 60, 0
30, 219850, Note_on_c, 13, 60, 98
30, 219862, Note_on_c, 13, 60, 0
30, 219970, Note_on_c, 13, 60, 0
30, 219976, Note_on_c, 13, 60, 92
30, 220096, Note_on_c, 13, 60, 0
30, 220105, Note_on_c, 13, 60, 81
30, 220217, Note_on_c, 13, 60, 89
30, 220225, Note_on_c, 13, 60, 0
30, 220333, Note_on_c, 13, 60, 92
30, 220337, Note_on_c, 13, 60, 0
30, 220452, Note_on_c, 13, 60, 87
30, 220453, Note_on_c, 13, 60, 0
30, 220572, Note_on_c, 13, 60, 0
30, 220582, Note_on_c, 13, 60, 87
30, 220702, Note_on_c, 13, 60, 0
30, 220702, Note_on_c, 13, 60, 78
30, 220822, Note_on_c, 13, 60, 0
30, 220824, Note_on_c, 13, 60, 94
30, 220925, Note_on_c, 13, 60, 85
30, 220944, Note_on_c, 13, 60, 0
30, 221042, Note_on_c, 13, 60, 78
30, 221045, Note_on_c, 13, 60, 0
30, 221162, Note_on_c, 13, 60, 0
30, 221184, Note_on_c, 13, 60, 90
30, 221297, Note_on_c, 13, 60, 87
30, 221304, Note_on_c, 13, 60, 0
30, 221414, Note_on_c, 13, 60, 95
30, 221417, Note_on_c, 13, 60, 0
30, 221534, Note_on_c, 13, 60, 0
30, 221537, Note_on_c, 13, 60, 92
30, 221657, Note_on_c, 13, 60, 0
30, 221657, Note_on_c, 13, 60, 96
30, 221775, Note_on_c, 13, 60, 90
30, 221777, Note_on_c, 13, 60, 0
30, 221881, Note_on_c, 13, 60, 81
30, 221895, Note_on_c, 13, 60, 0
30, 222001, Note_on_c, 13, 60, 0
30, 222024, Note_on_c, 13, 60, 91
30, 222127, Note_on_c, 13, 60, 79
30, 222144, Note_on_c, 13, 60, 0
30, 222247, Note_on_c, 13, 60, 0
30, 222252, Note_on_c, 13, 60, 78
30, 222364, Note_on_c, 13, 60, 92
30, 222372, Note_on_c, 13, 60, 0
30, 222483, Note_on_c, 13, 60, 84
30, 222484, Note_on_c, 13, 60, 0
30, 222603, Note_on_c, 13, 60, 0
30, 222611, Note_on_c, 13, 60, 84
30, 222731, Note_on_c, 13, 60, 0
30, 222745, Note_on_c, 13, 60, 92
30, 222841, Note_on_c, 13, 60, 80
30, 222865, Note_on_c, 13, 60, 0
30, 222961, Note_on_c, 13, 60, 0
30, 222962, Note_on_c, 13, 60, 91
30, 223082, Note_on_c, 13, 60, 0
30, 223104, Note_on_c, 13, 60, 79
30, 223213, Note_on_c, 13, 60, 90
30, 223224, Note_on_c, 13, 60, 0
30, 223333, Note_on_c, 13, 60, 0
30, 223343, Note_on_c, 13, 60, 83
30, 223447, Note_on_c, 13, 60, 92
30, 223463, Note_on_c, 13, 60, 0
30, 223567, Note_on_c, 13, 60, 0
30, 223573, Note_on_c, 13, 60, 88
30, 223685, Note_on_c, 13, 60, 90
30, 223693, Note_on_c, 13, 60, 0
30, 223803, Note_on_c, 13, 60, 81
30, 223805, Note_on_c, 13, 60, 0
30, 223923, Note_on_c, 13, 60, 0
30, 223936, Note_on_c, 13, 60, 96
30, 224040, Note_on_c, 13, 60, 83
30, 224056, Note_on_c, 13, 60, 0
30, 224160, Note_on_c, 13, 60, 0
30, 224175, Note_on_c, 13, 60, 84
30, 224291, Note_on_c, 13, 60, 84
30, 224295, Note_on_c, 13, 60, 0
30, 224411, Note_on_c, 13, 60, 0
30, 224415, Note_on_c, 13, 60, 81
30, 224523, Note_on_c, 13, 60, 93
30, 224535, Note_on_c, 13, 60, 0
30, 224642, Note_on_c, 13, 60, 93
30, 224643, Note_on_c, 13, 60, 0
30, 224762, Note_on_c, 13, 60, 0
30, 224780, Note_on_c, 13, 60, 86
30, 224896, Note_on_c, 13, 60, 89
30, 224900, Note_on_c, 13, 60, 0
30, 225016, Note_on_c, 13, 60, 0
30, 225021, Note_on_c, 13, 60, 79
30, 225127, Note_on_c, 13, 60, 94
30, 225141, Note_on_c, 13, 60, 0
30, 225247, Note_on_c, 13, 60, 0
30, 225265, Note_on_c, 13, 60, 82
30, 225370, Note_on_c, 13, 60, 85
30, 225385, Note_on_c, 13, 60, 0
30, 225490, Note_on_c, 13, 60, 0
30, 225504, Note_on_c, 13, 60, 79
30, 225601, Note_on_c, 13, 60, 83
30, 225624, Note_on_c, 13, 60, 0
30, 225721, Note_on_c, 13, 60, 0
30, 225726, Note_on_c, 13, 60, 97
30, 225846, Note_on_c, 13, 60, 0
30, 225858, Note_on_c, 13, 60, 91
30, 225962, Note_on_c, 13, 60, 97
30, 225978, Note_on_c, 13, 60, 0
30, 226082, Note_on_c, 13, 60, 0
30, 226104, Note_on_c, 13, 60, 79
30, 226215, Note_on_c, 13, 60, 86
30, 226224, Note_on_c, 13, 60, 0
30, 226330, Note_on_c, 13, 60, 80
30, 226335, Note_on_c, 13, 60, 0
30, 226450, Note_on_c, 13, 60, 0
30, 226465, Note_on_c, 13, 60, 83
30, 226577, Note_on_c, 13, 60, 96
30, 226585, Note_on_c, 13, 60, 0
30, 226697, Note_on_c, 13, 60, 0
30, 226705, Note_on_c, 13, 60, 95
30, 226822, Note_on_c, 13, 60, 83
30, 226825, Note_on_c, 13, 60, 0
30, 226928, Note_on_c, 13, 60, 80
30, 226942, Note_on_c, 13, 60, 0
30, 227048, Note_on_c, 13, 60, 0
30, 227160, Program_c, 13, 48
30, 227179, Note_on_c, 13, 57, 75
30, 227299, Note_on_c, 13, 57, 0
30, 227302, Note_on_c, 13, 59, 68
30, 227402, Note_on_c, 13, 60, 72
30, 227422, Note_on_c, 13, 59, 0
30, 227522, Note_on_c, 13, 60, 0
30, 227534, Note_on_c, 13, 62, 84
30, 227654, Note_on_c, 13, 62, 0
30, 227658, Note_on_c, 13, 63, 85
30, 227771, Note_on_c, 13, 65, 74
30, 227778, Note_on_c, 13, 63, 0
30, 227891, Note_on_c, 13, 65, 0
30, 227892, Note_on_c, 13, 67, 65
30, 228009, Note_on_c, 13, 69, 77
30, 228012, Note_on_c, 13, 67, 0
30, 228129, Note_on_c, 13, 69, 0
30, 228145, Note_on_c, 13, 57, 82
30, 228250, Note_on_c, 13, 59, 67
30, 228265, Note_on_c, 13, 57, 0
30, 228370, Note_on_c, 13, 59, 0
30, 228376, Note_on_c, 13, 60, 67
30, 228488, Note_on_c, 13, 62, 68
30, 228496, Note_on_c, 13, 60, 0
30, 228608, Note_on_c, 13, 62, 0
30, 228625, Note_on_c, 13, 63, 78
30, 228736, Note_on_c, 13, 65, 82
30, 228745, Note_on_c, 13, 63, 0
30, 228846, Note_on_c, 13, 67, 83
30, 228856, Note_on_c, 13, 65, 0
30, 228960, Note_on_c, 13, 69, 80
30, 228966, Note_on_c, 13, 67, 0
30, 229080, Note_on_c, 13, 69, 0
30, 229085, Note_on_c, 13, 57, 66
30, 229205, Note_on_c, 13, 57, 0
30, 229221, Note_on_c, 13, 59, 69
30, 229337, Note_on_c, 13, 60, 76
30, 229341, Note_on_c, 13, 59, 0
30, 229456, Note_on_c, 13, 62, 72
30, 229457, Note_on_c, 13, 60, 0
30, 229575, Note_on_c, 13, 63, 69
30, 229576, Note_on_c, 13, 62, 0
30, 229683, Note_on_c, 13, 65, 84
30, 229695, Note_on_c, 13, 63, 0
30, 229803, Note_on_c, 13, 65, 0
30, 229810, Note_on_c, 13, 67, 67
30, 229930, Note_on_c, 13, 67, 0
30, 229939, Note_on_c, 13, 69, 69
30, 230059, Note_on_c, 13, 69, 0
30, 230064, Note_on_c, 13, 57, 78
30, 230173, Note_on_c, 13, 59, 80
30, 230184, Note_on_c, 13, 57, 0
30, 230288, Note_on_c, 13, 60, 66
30, 230293, Note_on_c, 13, 59, 0
30, 230408, Note_on_c, 13, 60, 0
30, 230416, Note_on_c, 13, 62, 66
30, 230524, Note_on_c, 13, 63, 78
30, 230536, Note_on_c, 13, 62, 0
30, 230644, Note_on_c, 13, 63, 0
30, 230665, Note_on_c, 13, 65, 66
30, 230782, Note_on_c, 13, 67, 80
30, 230785, Note_on_c, 13, 65, 0
30, 230880, Note_on_c, 13, 69, 98
30, 230902, Note_on_c, 13, 67, 0
30, 230915, Note_on_c, 13, 69, 0
30, 231000, Note_on_c, 13, 67, 90
30, 231035, Note_on_c, 13, 67, 0
30, 231120, Note_on_c, 13, 69, 94
30, 231155, Note_on_c, 13, 69, 0
30, 231240, Note_on_c, 13, 67, 96
30, 231275, Note_on_c, 13, 67, 0
30, 231360, Note_on_c, 13, 69, 83
30, 231395, Note_on_c, 13, 69, 0
30, 231480, Note_on_c, 13, 67, 94
30, 231515, Note_on_c, 13, 67, 0
30, 231600, Note_on_c, 13, 69, 81
30, 231635, Note_on_c, 13, 69, 0
30, 231720, Note_on_c, 13, 67, 87
30, 231755, Note_on_c, 13, 67, 0
30, 231840, Note_on_c, 13, 69, 87
30, 231875, Note_on_c, 13, 69, 0
30, 231960, Note_on_c, 13, 67, 78
30, 231995, Note_on_c, 13, 67, 0
30, 232080, Note_on_c, 13, 69, 87
30, 232115, Note_on_c, 13, 69, 0
30, 232200, Note_on_c, 13, 67, 95
30, 232235, Note_on_c, 13, 67, 0
30, 232320, Note_on_c, 13, 69, 81
30, 232355, Note_on_c, 13, 69, 0
30, 232440, Note_on_c, 13, 67, 89
30, 232475, Note_on_c, 13, 67, 0
30, 232560, Note_on_c, 13, 69, 93
30, 232595, Note_on_c, 13, 69, 0
30, 232680, Note_on_c, 13, 67, 87
30, 232715, Note_on_c, 13, 67, 0
30, 232814, Note_on_c, 13, 63, 107
30, 232931, Note_on_c, 13, 62, 89
30, 232934, Note_on_c, 13, 63, 0
30, 233040, Note_on_c, 13, 60, 86
30, 233051, Note_on_c, 13, 62, 0
30, 233087, Note_on_c, 13, 60, 0
30, 233160, Note_on_c, 13, 59, 78
30, 233207, Note_on_c, 13, 59, 0
30, 233302, Note_on_c, 13, 65, 120
30, 233403, Note_on_c, 13, 63, 95
30, 233422, Note_on_c, 13, 65, 0
30, 233520, Note_on_c, 13, 62, 88
30, 233523, Note_on_c, 13, 63, 0
30, 233567, Note_on_c, 13, 62, 0
30, 233640, Note_on_c, 13, 60, 85
30, 233687, Note_on_c, 13, 60, 0
30, 233760, Note_on_c, 13, 69, 88
30, 233795, Note_on_c, 13, 69, 0
30, 233880, Note_on_c, 13, 67, 89
30, 233915, Note_on_c, 13, 67, 0
30, 234000, Note_on_c, 13, 69, 78
30, 234035, Note_on_c, 13, 69, 0
30, 234120, Note_on_c, 13, 67, 84
30, 234155, Note_on_c, 13, 67, 0
30, 234240, Note_on_c, 13, 69, 92
30, 234275, Note_on_c, 13, 69, 0
30, 234360, Note_on_c, 13, 67, 88
30, 234395, Note_on_c, 13, 67, 0
30, 234480, Note_on_c, 13, 69, 84
30, 234515, Note_on_c, 13, 69, 0
30, 234600, Note_on_c, 13, 67, 86
30, 234635, Note_on_c, 13, 67, 0
30, 234723, Note_on_c, 13, 63, 110
30, 234843, Note_on_c, 13, 63, 0
30, 234865, Note_on_c, 13, 62, 81
30, 234960, Note_on_c, 13, 60, 94
30, 234985, Note_on_c, 13, 62, 0
30, 235007, Note_on_c, 13, 60, 0
30, 235080, Note_on_c, 13, 59, 79
30, 235127, Note_on_c, 13, 59, 0
30, 235220, Note_on_c, 13, 65, 119
30, 235325, Note_on_c, 13, 63, 81
30, 235340, Note_on_c, 13, 65, 0
30, 235440, Note_on_c, 13, 62, 82
30, 235445, Note_on_c, 13, 63, 0
30, 235487, Note_on_c, 13, 62, 0
30, 235560, Note_on_c, 13, 60, 92
30, 235607, Note_on_c, 13, 60, 0
30, 235684, Note_on_c, 13, 63, 115
30, 235804, Note_on_c, 13, 63, 0
30, 235818, Note_on_c, 13, 62, 78
30, 235920, Note_on_c, 13, 60, 93
30, 235938, Note_on_c, 13, 62, 0
30, 235967, Note_on_c, 13, 60, 0
30, 236040, Note_on_c, 13, 59, 92
30, 236087, Note_on_c, 13, 59, 0
30, 236172, Note_on_c, 13, 65, 104
30, 236292, Note_on_c, 13, 65, 0
30, 236305, Note_on_c, 13, 63, 84
30, 236400, Note_on_c, 13, 62, 78
30, 236425, Note_on_c, 13, 63, 0
30, 236447, Note_on_c, 13, 62, 0
30, 236520, Note_on_c, 13, 60, 92
30, 236567, Note_on_c, 13, 60, 0
30, 236651, Note_on_c, 13, 63, 111
30, 236771, Note_on_c, 13, 63, 0
30, 236771, Note_on_c, 13, 62, 78
30, 236880, Note_on_c, 13, 60, 83
30, 236891, Note_on_c, 13, 62, 0
30, 236927, Note_on_c, 13, 60, 0
30, 237000, Note_on_c, 13, 59, 78
30, 237047, Note_on_c, 13, 59, 0
30, 237120, Note_on_c, 13, 65, 104
30, 237240, Note_on_c, 13, 65, 0
30, 237258, Note_on_c, 13, 63, 94
30, 237360, Note_on_c, 13, 62, 86
30, 237378, Note_on_c, 13, 63, 0
30, 237407, Note_on_c, 13, 62, 0
30, 237480, Note_on_c, 13, 60, 93
30, 237527, Note_on_c, 13, 60, 0
30, 237600, Note_on_c, 13, 67, 113
30, 237720, Note_on_c, 13, 67, 0
30, 237743, Note_on_c, 13, 65, 87
30, 237840, Note_on_c, 13, 63, 78
30, 237863, Note_on_c, 13, 65, 0
30, 237887, Note_on_c, 13, 63, 0
30, 237960, Note_on_c, 13, 62, 87
30, 238007, Note_on_c, 13, 62, 0
30, 238100, Note_on_c, 13, 65, 107
30, 238201, Note_on_c, 13, 63, 92
30, 238220, Note_on_c, 13, 65, 0
30, 238320, Note_on_c, 13, 62, 98
30, 238321, Note_on_c, 13, 63, 0
30, 238367, Note_on_c, 13, 62, 0
30, 238440, Note_on_c, 13, 60, 85
30, 238487, Note_on_c, 13, 60, 0
30, 238568, Note_on_c, 13, 69, 127
30, 238682, Note_on_c, 13, 67, 107
30, 238688, Note_on_c, 13, 69, 0
30, 238800, Note_on_c, 13, 65, 92
30, 238802, Note_on_c, 13, 67, 0
30, 238847, Note_on_c, 13, 65, 0
30, 238920, Note_on_c, 13, 63, 98
30, 238967, Note_on_c, 13, 63, 0
30, 239060, Note_on_c, 13, 71, 127
30, 239168, Note_on_c, 13, 69, 97
30, 239180, Note_on_c, 13, 71, 0
30, 239280, Note_on_c, 13, 67, 105
30, 239288, Note_on_c, 13, 69, 0
30, 239327, Note_on_c, 13, 67, 0
30, 239400, Note_on_c, 13, 65, 94
30, 239447, Note_on_c, 13, 65, 0
30, 239520, Note_on_c, 13, 72, 127
30, 239640, Note_on_c, 13, 72, 0
30, 239647, Note_on_c, 13, 71, 104
30, 239760, Note_on_c, 13, 69, 91
30, 239767, Note_on_c, 13, 71, 0
30, 239807, Note_on_c, 13, 69, 0
30, 239880, Note_on_c, 13, 67, 97
30, 239927, Note_on_c, 13, 67, 0
30, 240003, Note_on_c, 13, 71, 123
30, 240123, Note_on_c, 13, 71, 0
30, 240135, Note_on_c, 13, 69, 98
30, 240240, Note_on_c, 13, 67, 110
30, 240255, Note_on_c, 13, 69, 0
30, 240287, Note_on_c, 13, 67, 0
30, 240360, Note_on_c, 13, 65, 101
30, 240407, Note_on_c, 13, 65, 0
30, 240486, Note_on_c, 13, 69, 121
30, 240606, Note_on_c, 13, 69, 0
30, 240613, Note_on_c, 13, 67, 94
30, 240720, Note_on_c, 13, 65, 101
30, 240733, Note_on_c, 13, 67, 0
30, 240767, Note_on_c, 13, 65, 0
30, 240840, Note_on_c, 13, 63, 100
30, 240887, Note_on_c, 13, 63, 0
30, 240980, Note_on_c, 13, 71, 127
30, 241093, Note_on_c, 13, 69, 96
30, 241100, Note_on_c, 13, 71, 0
30, 241200, Note_on_c, 13, 67, 98
30, 241213, Note_on_c, 13, 69, 0
30, 241247, Note_on_c, 13, 67, 0
30, 241320, Note_on_c, 13, 65, 109
30, 241367, Note_on_c, 13, 65, 0
30, 267142, Note_on_c, 13, 59, 107
30, 267259, Note_on_c, 13, 59, 97
30, 267262, Note_on_c, 13, 59, 0
30, 267364, Note_on_c, 13, 60, 107
30, 267379, Note_on_c, 13, 59, 0
30, 267604, Note_on_c, 13, 60, 0
30, 269541, Note_on_c, 13, 70, 91
30, 269601, Note_on_c, 13, 71, 111
30, 269653, Note_on_c, 13, 70, 0
30, 269671, Note_on_c, 13, 70, 109
30, 269713, Note_on_c, 13, 71, 0
30, 269759, Note_on_c, 13, 71, 92
30, 269783, Note_on_c, 13, 70, 0
30, 269827, Note_on_c, 13, 70, 110
30, 269871, Note_on_c, 13, 71, 0
30, 269917, Note_on_c, 13, 71, 98
30, 269939, Note_on_c, 13, 70, 0
30, 269991, Note_on_c, 13, 70, 97
30, 270029, Note_on_c, 13, 71, 0
30, 270062, Note_on_c, 13, 71, 94
30, 270103, Note_on_c, 13, 70, 0
30, 270144, Note_on_c, 13, 70, 105
30, 270174, Note_on_c, 13, 71, 0
30, 270217, Note_on_c, 13, 71, 99
30, 270256, Note_on_c, 13, 70, 0
30, 270283, Note_on_c, 13, 70, 94
30, 270329, Note_on_c, 13, 71, 0
30, 270373, Note_on_c, 13, 71, 101
30, 270395, Note_on_c, 13, 70, 0
30, 270442, Note_on_c, 13, 70, 101
30, 270485, Note_on_c, 13, 71, 0
30, 270519, Note_on_c, 13, 71, 96
30, 270554, Note_on_c, 13, 70, 0
30, 270591, Note_on_c, 13, 70, 102
30, 270631, Note_on_c, 13, 71, 0
30, 270669, Note_on_c, 13, 71, 111
30, 270703, Note_on_c, 13, 70, 0
30, 270741, Note_on_c, 13, 70, 91
30, 270781, Note_on_c, 13, 71, 0
30, 270804, Note_on_c, 13, 71, 93
30, 270853, Note_on_c, 13, 70, 0
30, 270898, Note_on_c, 13, 70, 93
30, 270916, Note_on_c, 13, 71, 0
30, 270948, Note_on_c, 13, 70, 0
30, 270961, Note_on_c, 13, 70, 92
30, 271057, Note_on_c, 13, 70, 0
30, 271093, Note_on_c, 13, 70, 108
30, 271189, Note_on_c, 13, 70, 0
30, 271212, Note_on_c, 13, 69, 100
30, 271308, Note_on_c, 13, 69, 0
30, 271333, Note_on_c, 13, 69, 94
30, 271429, Note_on_c, 13, 69, 0
30, 271464, Note_on_c, 13, 68, 95
30, 271532, Note_on_c, 13, 68, 0
30, 271569, Note_on_c, 13, 68, 104
30, 271665, Note_on_c, 13, 68, 0
30, 271683, Note_on_c, 13, 67, 59
30, 271767, Note_on_c, 13, 67, 0
30, 271824, Note_on_c, 13, 67, 49
30, 271908, Note_on_c, 13, 67, 0
30, 271943, Note_on_c, 13, 70, 49
30, 272027, Note_on_c, 13, 70, 0
30, 272062, Note_on_c, 13, 70, 57
30, 272146, Note_on_c, 13, 70, 0
30, 272185, Note_on_c, 13, 67, 48
30, 272269, Note_on_c, 13, 67, 0
30, 272302, Note_on_c, 13, 67, 59
30, 272386, Note_on_c, 13, 67, 0
30, 272406, Note_on_c, 13, 70, 41
30, 272490, Note_on_c, 13, 70, 0
30, 272541, Note_on_c, 13, 70, 39
30, 272625, Note_on_c, 13, 70, 0
30, 272660, Note_on_c, 13, 67, 44
30, 272744, Note_on_c, 13, 67, 0
30, 272761, Note_on_c, 13, 67, 44
30, 272845, Note_on_c, 13, 67, 0
30, 272896, Note_on_c, 13, 70, 39
30, 272980, Note_on_c, 13, 70, 0
30, 273003, Note_on_c, 13, 70, 58
30, 273087, Note_on_c, 13, 70, 0
30, 273121, Note_on_c, 13, 67, 40
30, 273205, Note_on_c, 13, 67, 0
30, 273244, Note_on_c, 13, 67, 48
30, 273328, Note_on_c, 13, 67, 0
30, 273367, Note_on_c, 13, 70, 41
30, 273451, Note_on_c, 13, 70, 0
30, 273493, Note_on_c, 13, 70, 40
30, 273577, Note_on_c, 13, 70, 0
30, 273619, Note_on_c, 13, 67, 59
30, 273703, Note_on_c, 13, 67, 0
30, 273727, Note_on_c, 13, 67, 46
30, 273811, Note_on_c, 13, 67, 0
30, 273863, Note_on_c, 13, 70, 58
30, 273947, Note_on_c, 13, 70, 0
30, 273973, Note_on_c, 13, 70, 56
30, 274057, Note_on_c, 13, 70, 0
30, 274094, Note_on_c, 13, 67, 42
30, 274178, Note_on_c, 13, 67, 0
30, 274208, Note_on_c, 13, 67, 59
30, 274292, Note_on_c, 13, 67, 0
30, 274337, Note_on_c, 13, 70, 52
30, 274421, Note_on_c, 13, 70, 0
30, 274448, Note_on_c, 13, 70, 43
30, 274532, Note_on_c, 13, 70, 0
30, 274584, Note_on_c, 13, 67, 56
30, 274668, Note_on_c, 13, 67, 0
30, 274685, Note_on_c, 13, 67, 59
30, 274769, Note_on_c, 13, 67, 0
30, 274800, Note_on_c, 13, 70, 50
30, 274884, Note_on_c, 13, 70, 0
30, 274932, Note_on_c, 13, 70, 51
30, 275016, Note_on_c, 13, 70, 0
30, 282480, Program_c, 13, 48
30, 282490, Note_on_c, 13, 67, 58
30, 283920, Program_c, 13, 44
30, 283930, Note_on_c, 13, 67, 0
30, 283945, Note_on_c, 13, 66, 127
30, 284163, Note_on_c, 13, 65, 104
30, 284185, Note_on_c, 13, 66, 0
30, 284403, Note_on_c, 13, 65, 0
30, 284421, Note_on_c, 13, 64, 92
30, 284640, Program_c, 13, 48
30, 284647, Note_on_c, 13, 63, 101
30, 284661, Note_on_c, 13, 64, 0
30, 284742, Note_on_c, 13, 63, 0
30, 288974, Note_on_c, 13, 57, 95
30, 289206, Note_on_c, 13, 58, 92
30, 289213, Note_on_c, 13, 65, 92
30, 289214, Note_on_c, 13, 57, 0
30, 289446, Note_on_c, 13, 58, 0
30, 289453, Note_on_c, 13, 65, 0
30, 289463, Note_on_c, 13, 59, 100
30, 289700, Note_on_c, 13, 64, 98
30, 289703, Note_on_c, 13, 59, 0
30, 289921, Note_on_c, 13, 62, 103
30, 289940, Note_on_c, 13, 64, 0
30, 290161, Note_on_c, 13, 62, 0
30, 290182, Note_on_c, 13, 66, 110
30, 290413, Note_on_c, 13, 64, 92
30, 290422, Note_on_c, 13, 66, 0
30, 290653, Note_on_c, 13, 64, 0
30, 290659, Note_on_c, 13, 64, 102
30, 290890, Note_on_c, 13, 64, 103
30, 290899, Note_on_c, 13, 64, 0
30, 291130, Note_on_c, 13, 64, 0
30, 291139, Note_on_c, 13, 64, 91
30, 291362, Note_on_c, 13, 64, 103
30, 291379, Note_on_c, 13, 64, 0
30, 291602, Note_on_c, 13, 64, 0
30, 291604, Note_on_c, 13, 64, 106
30, 291840, Note_on_c, 13, 64, 98
30, 291844, Note_on_c, 13, 64, 0
30, 292080, Note_on_c, 13, 64, 0
30, 292100, Note_on_c, 13, 62, 102
30, 292323, Note_on_c, 13, 66, 108
30, 292340, Note_on_c, 13, 62, 0
30, 292563, Note_on_c, 13, 66, 0
30, 292564, Note_on_c, 13, 64, 101
30, 292804, Note_on_c, 13, 64, 0
30, 292809, Note_on_c, 13, 66, 110
30, 293041, Note_on_c, 13, 64, 106
30, 293049, Note_on_c, 13, 66, 0
30, 293281, Note_on_c, 13, 64, 0
30, 293289, Note_on_c, 13, 64, 100
30, 293529, Note_on_c, 13, 64, 0
30, 293544, Note_on_c, 13, 64, 99
30, 293770, Note_on_c, 13, 64, 92
30, 293784, Note_on_c, 13, 64, 0
30, 294010, Note_on_c, 13, 64, 0
30, 294017, Note_on_c, 13, 64, 95
30, 294112, Note_on_c, 13, 64, 0
30, 297600, Program_c, 14, 45
30, 297611, Note_on_c, 14, 52, 103
30, 297851, Note_on_c, 14, 52, 0
30, 297855, Note_on_c, 14, 55, 111
30, 298095, Note_on_c, 14, 55, 0
30, 298104, Note_on_c, 14, 59, 93
30, 298344, Note_on_c, 14, 59, 0
30, 298344, Note_on_c, 14, 64, 111
30, 298584, Note_on_c, 14, 64, 0
30, 298585, Note_on_c, 14, 67, 110
30, 298802, Note_on_c, 14, 72, 91
30, 298825, Note_on_c, 14, 67, 0
30, 299042, Note_on_c, 14, 72, 0
30, 299046, Note_on_c, 14, 64, 91
30, 299286, Note_on_c, 14, 64, 0
30, 299297, Note_on_c, 14, 67, 107
30, 299537, Note_on_c, 14, 67, 0
30, 299540, Note_on_c, 14, 72, 101
30, 299780, Note_on_c, 14, 72, 0
30, 299784, Note_on_c, 13, 76, 94
30, 300015, Note_on_c, 13, 79, 106
30, 300024, Note_on_c, 13, 76, 0
30, 300255, Note_on_c, 13, 79, 0
30, 300261, Note_on_c, 13, 84, 96
30, 300501, Note_on_c, 13, 84, 0
30, 301224, Note_on_c, 13, 70, 101
30, 301459, Note_on_c, 13, 75, 105
30, 301464, Note_on_c, 13, 70, 0
30, 301684, Note_on_c, 13, 78, 105
30, 301699, Note_on_c, 13, 75, 0
30, 301920, Program_c, 13, 44
30, 301924, Note_on_c, 13, 78, 0
30, 301931, Note_on_c, 13, 75, 100
30, 302167, Note_on_c, 13, 75, 0
30, 302185, Note_on_c, 13, 72, 99
30, 302400, Note_on_c, 13, 69, 109
30, 302421, Note_on_c, 13, 72, 0
30, 302636, Note_on_c, 13, 69, 0
30, 320413, Note_on_c, 13, 69, 80
30, 321124, Note_on_c, 13, 69, 72
30, 321133, Note_on_c, 13, 69, 0
30, 321844, Note_on_c, 13, 69, 0
30, 321862, Note_on_c, 13, 68, 83
30, 322568, Note_on_c, 13, 63, 78
30, 322582, Note_on_c, 13, 68, 0
30, 323288, Note_on_c, 13, 63, 0
30, 323291, Note_on_c, 13, 62, 85
30, 324011, Note_on_c, 13, 62, 0
30, 324022, Note_on_c, 13, 60, 96
30, 324742, Note_on_c, 13, 60, 0
30, 379440, Program_c, 14, 45
30, 379456, Note_on_c, 14, 48, 83
30, 379926, Note_on_c, 14, 49, 79
30, 379936, Note_on_c, 14, 48, 0
30, 380406, Note_on_c, 14, 49, 0
30, 380418, Note_on_c, 14, 51, 68
30, 380658, Note_on_c, 14, 51, 0
30, 381362, Note_on_c, 14, 48, 74
30, 381842, Note_on_c, 14, 48, 0
30, 381863, Note_on_c, 14, 49, 74
30, 382332, Note_on_c, 14, 51, 72
30, 382343, Note_on_c, 14, 49, 0
30, 382572, Note_on_c, 14, 51, 0
30, 383280, Note_on_c, 14, 48, 82
30, 383760, Note_on_c, 14, 48, 0
30, 383775, Note_on_c, 14, 49, 85
30, 384255, Note_on_c, 14, 49, 0
30, 384258, Note_on_c, 14, 51, 84
30, 384498, Note_on_c, 14, 51, 0
30, 387143, Note_on_c, 14, 48, 76
30, 387606, Note_on_c, 14, 49, 68
30, 387623, Note_on_c, 14, 48, 0
30, 388086, Note_on_c, 14, 49, 0
30, 388097, Note_on_c, 14, 51, 77
30, 388337, Note_on_c, 14, 51, 0
30, 389040, Note_on_c, 14, 48, 65
30, 389520, Note_on_c, 14, 48, 0
30, 389539, Note_on_c, 14, 49, 77
30, 390001, Note_on_c, 14, 51, 85
30, 390019, Note_on_c, 14, 49, 0
30, 390241, Note_on_c, 14, 51, 0
30, 394345, Note_on_c, 14, 48, 85
30, 394811, Note_on_c, 14, 49, 74
30, 394825, Note_on_c, 14, 48, 0
30, 395280, Note_on_c, 14, 51, 83
30, 395291, Note_on_c, 14, 49, 0
30, 395520, Note_on_c, 14, 51, 0
30, 396256, Note_on_c, 14, 48, 85
30, 396736, Note_on_c, 14, 48, 0
30, 396742, Note_on_c, 14, 49, 81
30, 397207, Note_on_c, 14, 51, 85
30, 397222, Note_on_c, 14, 49, 0
30, 397447, Note_on_c, 14, 51, 0
30, 398178, Note_on_c, 14, 48, 81
30, 398645, Note_on_c, 14, 49, 72
30, 398658, Note_on_c, 14, 48, 0
30, 399123, Note_on_c, 14, 51, 81
30, 399125, Note_on_c, 14, 49, 0
30, 399363, Note_on_c, 14, 51, 0
30, 400103, Note_on_c, 14, 48, 76
30, 400581, Note_on_c, 14, 49, 75
30, 400583, Note_on_c, 14, 48, 0
30, 401046, Note_on_c, 14, 51, 69
30, 401061, Note_on_c, 14, 49, 0
30, 401286, Note_on_c, 14, 51, 0
30, 402024, Note_on_c, 14, 48, 70
30, 402480, Note_on_c, 14, 49, 84
30, 402504, Note_on_c, 14, 48, 0
30, 402960, Note_on_c, 14, 49, 0
30, 402979, Note_on_c, 14, 51, 83
30, 403219, Note_on_c, 14, 51, 0
30, 403925, Note_on_c, 14, 48, 83
30, 404405, Note_on_c, 14, 48, 0
30, 404423, Note_on_c, 14, 49, 68
30, 404883, Note_on_c, 14, 51, 75
30, 404903, Note_on_c, 14, 49, 0
30, 405123, Note_on_c, 14, 51, 0
30, 405865, Note_on_c, 14, 48, 74
30, 406345, Note_on_c, 14, 48, 0
30, 406345, Note_on_c, 14, 49, 66
30, 406823, Note_on_c, 14, 51, 83
30, 406825, Note_on_c, 14, 49, 0
30, 407063, Note_on_c, 14, 51, 0
30, 407777, Note_on_c, 14, 48, 78
30, 408256, Note_on_c, 14, 49, 82
30, 408257, Note_on_c, 14, 48, 0
30, 408734, Note_on_c, 14, 51, 67
30, 408736, Note_on_c, 14, 49, 0
30, 408974, Note_on_c, 14, 51, 0
30, 409681, Note_on_c, 14, 48, 71
30, 410161, Note_on_c, 14, 48, 0
30, 410165, Note_on_c, 14, 49, 78
30, 410645, Note_on_c, 14, 49, 0
30, 410645, Note_on_c, 14, 51, 78
30, 410885, Note_on_c, 14, 51, 0
30, 411600, Note_on_c, 14, 48, 69
30, 412080, Note_on_c, 14, 48, 0
30, 412104, Note_on_c, 14, 49, 74
30, 412563, Note_on_c, 14, 51, 76
30, 412584, Note_on_c, 14, 49, 0
30, 412803, Note_on_c, 14, 51, 0
30, 413530, Note_on_c, 14, 48, 78
30, 414005, Note_on_c, 14, 49, 74
30, 414010, Note_on_c, 14, 48, 0
30, 414485, Note_on_c, 14, 49, 0
30, 414502, Note_on_c, 14, 51, 79
30, 414968, Note_on_c, 14, 53, 80
30, 414982, Note_on_c, 14, 51, 0
30, 415448, Note_on_c, 14, 53, 0
30, 415459, Note_on_c, 14, 51, 71
30, 415699, Note_on_c, 14, 51, 0
30, 416417, Note_on_c, 14, 48, 84
30, 416881, Note_on_c, 14, 49, 79
30, 416897, Note_on_c, 14, 48, 0
30, 417361, Note_on_c, 14, 49, 0
30, 417379, Note_on_c, 14, 51, 71
30, 417619, Note_on_c, 14, 51, 0
30, 418323, Note_on_c, 14, 48, 68
30, 418803, Note_on_c, 14, 48, 0
30, 418819, Note_on_c, 14, 49, 81
30, 419287, Note_on_c, 14, 51, 73
30, 419299, Note_on_c, 14, 49, 0
30, 419527, Note_on_c, 14, 51, 0
30, 422167, Note_on_c, 14, 48, 71
30, 422647, Note_on_c, 14, 48, 0
30, 422649, Note_on_c, 14, 49, 79
30, 423128, Note_on_c, 14, 51, 80
30, 423129, Note_on_c, 14, 49, 0
30, 423368, Note_on_c, 14, 51, 0
30, 562470, Note_on_c, 13, 51, 82
30, 562500, Note_on_c, 13, 51, 0
30, 562500, Note_on_c, 13, 53, 65
30, 562530, Note_on_c, 13, 53, 0
30, 562530, Note_on_c, 13, 54, 75
30, 562560, Note_on_c, 13, 54, 0
30, 562563, Note_on_c, 13, 55, 83
30, 562683, Note_on_c, 13, 55, 0
30, 562950, Note_on_c, 13, 51, 73
30, 562980, Note_on_c, 13, 51, 0
30, 562980, Note_on_c, 13, 53, 76
30, 563010, Note_on_c, 13, 53, 0
30, 563010, Note_on_c, 13, 54, 79
30, 563040, Note_on_c, 13, 54, 0
30, 563057, Note_on_c, 13, 55, 68
30, 563177, Note_on_c, 13, 55, 0
30, 563430, Note_on_c, 13, 51, 78
30, 563460, Note_on_c, 13, 51, 0
30, 563460, Note_on_c, 13, 53, 84
30, 563490, Note_on_c, 13, 53, 0
30, 563490, Note_on_c, 13, 54, 67
30, 563520, Note_on_c, 13, 54, 0
30, 563524, Note_on_c, 13, 55, 67
30, 563644, Note_on_c, 13, 55, 0
30, 563910, Note_on_c, 13, 51, 83
30, 563940, Note_on_c, 13, 51, 0
30, 563940, Note_on_c, 13, 53, 69
30, 563970, Note_on_c, 13, 53, 0
30, 563970, Note_on_c, 13, 54, 72
30, 564000, Note_on_c, 13, 54, 0
30, 564019, Note_on_c, 13, 55, 83
30, 564139, Note_on_c, 13, 55, 0
30, 564390, Note_on_c, 13, 51, 75
30, 564420, Note_on_c, 13, 51, 0
30, 564420, Note_on_c, 13, 53, 78
30, 564450, Note_on_c, 13, 53, 0
30, 564450, Note_on_c, 13, 54, 68
30, 564480, Note_on_c, 13, 54, 0
30, 564494, Note_on_c, 13, 55, 71
30, 564614, Note_on_c, 13, 55, 0
30, 564870, Note_on_c, 13, 51, 75
30, 564900, Note_on_c, 13, 51, 0
30, 564900, Note_on_c, 13, 53, 72
30, 564930, Note_on_c, 13, 53, 0
30, 564930, Note_on_c, 13, 54, 75
30, 564960, Note_on_c, 13, 54, 0
30, 564972, Note_on_c, 13, 55, 71
30, 565092, Note_on_c, 13, 55, 0
30, 565350, Note_on_c, 13, 55, 74
30, 565380, Note_on_c, 13, 55, 0
30, 565380, Note_on_c, 13, 56, 66
30, 565410, Note_on_c, 13, 56, 0
30, 565410, Note_on_c, 13, 57, 66
30, 565440, Note_on_c, 13, 57, 0
30, 565451, Note_on_c, 13, 58, 89
30, 565571, Note_on_c, 13, 58, 0
30, 565926, Note_on_c, 13, 57, 92
30, 566046, Note_on_c, 13, 57, 0
30, 566172, Note_on_c, 13, 58, 95
30, 566292, Note_on_c, 13, 58, 0
30, 566424, Note_on_c, 13, 53, 91
30, 566544, Note_on_c, 13, 53, 0
30, 566643, Note_on_c, 13, 55, 84
30, 566763, Note_on_c, 13, 55, 0
30, 566898, Note_on_c, 13, 53, 85
30, 567018, Note_on_c, 13, 53, 0
30, 567128, Note_on_c, 13, 57, 87
30, 567248, Note_on_c, 13, 57, 0
30, 567374, Note_on_c, 13, 55, 82
30, 567494, Note_on_c, 13, 55, 0
30, 567625, Note_on_c, 13, 58, 83
30, 567745, Note_on_c, 13, 58, 0
30, 567854, Note_on_c, 13, 53, 111
30, 567974, Note_on_c, 13, 53, 0
30, 568091, Note_on_c, 13, 55, 93
30, 568211, Note_on_c, 13, 55, 0
30, 568342, Note_on_c, 13, 53, 93
30, 568462, Note_on_c, 13, 53, 0
30, 568582, Note_on_c, 13, 57, 78
30, 568702, Note_on_c, 13, 57, 0
30, 568821, Note_on_c, 13, 58, 96
30, 569181, Note_on_c, 13, 58, 0
30, 569303, Note_on_c, 13, 57, 85
30, 569423, Note_on_c, 13, 57, 0
30, 569521, Note_on_c, 13, 58, 80
30, 569641, Note_on_c, 13, 58, 0
30, 569760, Note_on_c, 13, 53, 97
30, 569880, Note_on_c, 13, 53, 0
30, 570025, Note_on_c, 13, 55, 80
30, 570145, Note_on_c, 13, 55, 0
30, 570256, Note_on_c, 13, 53, 84
30, 570376, Note_on_c, 13, 53, 0
30, 570503, Note_on_c, 13, 57, 90
30, 570623, Note_on_c, 13, 57, 0
30, 570623, End_track
31, 0, Start_track
31, 0, Title_t, "Violoncelli I"
31, 0, MIDI_port, 0
31, 0, Control_c, 14, 7, 108
31, 0, Control_c, 14, 10, 74
31, 0, Control_c, 14, 91, 127
31, 0, Control_c, 14, 11, 127
31, 0, Program_c, 14, 45
31, 42240, Program_c, 14, 45
31, 42404, Note_on_c, 14, 48, 73
31, 42564, Note_on_c, 14, 48, 0
31, 42739, Note_on_c, 14, 48, 74
31, 42898, Note_on_c, 14, 48, 0
31, 43055, Note_on_c, 14, 48, 69
31, 43214, Note_on_c, 14, 48, 0
31, 43362, Note_on_c, 14, 48, 65
31, 43522, Note_on_c, 14, 48, 0
31, 43696, Note_on_c, 14, 48, 64
31, 43855, Note_on_c, 14, 48, 0
31, 44010, Note_on_c, 14, 48, 71
31, 44169, Note_on_c, 14, 48, 0
31, 44319, Note_on_c, 14, 48, 55
31, 44479, Note_on_c, 14, 48, 0
31, 44647, Note_on_c, 14, 48, 74
31, 44806, Note_on_c, 14, 48, 0
31, 44967, Note_on_c, 14, 48, 60
31, 45126, Note_on_c, 14, 48, 0
31, 46250, Note_on_c, 14, 48, 70
31, 46410, Note_on_c, 14, 48, 0
31, 46561, Note_on_c, 14, 48, 55
31, 46720, Note_on_c, 14, 48, 0
31, 46887, Note_on_c, 14, 48, 59
31, 47046, Note_on_c, 14, 48, 0
31, 60960, Program_c, 14, 42
31, 60962, Note_on_c, 14, 40, 72
31, 71522, Note_on_c, 14, 40, 0
31, 84000, Program_c, 14, 48
31, 84010, Note_on_c, 14, 44, 95
31, 84011, Note_on_c, 14, 52, 79
31, 84105, Note_on_c, 14, 44, 0
31, 84106, Note_on_c, 14, 52, 0
31, 84258, Note_on_c, 14, 44, 91
31, 84261, Note_on_c, 14, 52, 93
31, 84353, Note_on_c, 14, 44, 0
31, 84356, Note_on_c, 14, 52, 0
31, 84495, Note_on_c, 14, 44, 86
31, 84496, Note_on_c, 14, 52, 90
31, 84590, Note_on_c, 14, 44, 0
31, 84591, Note_on_c, 14, 52, 0
31, 84737, Note_on_c, 14, 44, 91
31, 84737, Note_on_c, 14, 52, 93
31, 84832, Note_on_c, 14, 44, 0
31, 84832, Note_on_c, 14, 52, 0
31, 84969, Note_on_c, 14, 44, 88
31, 84970, Note_on_c, 14, 52, 78
31, 85064, Note_on_c, 14, 44, 0
31, 85065, Note_on_c, 14, 52, 0
31, 85220, Note_on_c, 14, 44, 87
31, 85224, Note_on_c, 14, 52, 96
31, 85315, Note_on_c, 14, 44, 0
31, 85319, Note_on_c, 14, 52, 0
31, 85442, Note_on_c, 14, 52, 88
31, 85447, Note_on_c, 14, 44, 86
31, 85537, Note_on_c, 14, 52, 0
31, 85542, Note_on_c, 14, 44, 0
31, 85684, Note_on_c, 14, 44, 97
31, 85685, Note_on_c, 14, 52, 78
31, 85779, Note_on_c, 14, 44, 0
31, 85780, Note_on_c, 14, 52, 0
31, 85939, Note_on_c, 14, 44, 92
31, 85942, Note_on_c, 14, 52, 96
31, 86034, Note_on_c, 14, 44, 0
31, 86037, Note_on_c, 14, 52, 0
31, 86173, Note_on_c, 14, 52, 118
31, 86182, Note_on_c, 14, 44, 119
31, 86268, Note_on_c, 14, 52, 0
31, 86277, Note_on_c, 14, 44, 0
31, 86412, Note_on_c, 14, 44, 85
31, 86415, Note_on_c, 14, 52, 93
31, 86507, Note_on_c, 14, 44, 0
31, 86510, Note_on_c, 14, 52, 0
31, 86642, Note_on_c, 14, 44, 105
31, 86644, Note_on_c, 14, 52, 102
31, 86737, Note_on_c, 14, 44, 0
31, 86739, Note_on_c, 14, 52, 0
31, 86891, Note_on_c, 14, 52, 86
31, 86905, Note_on_c, 14, 44, 84
31, 86986, Note_on_c, 14, 52, 0
31, 87000, Note_on_c, 14, 44, 0
31, 87132, Note_on_c, 14, 44, 86
31, 87142, Note_on_c, 14, 52, 85
31, 87227, Note_on_c, 14, 44, 0
31, 87237, Note_on_c, 14, 52, 0
31, 87361, Note_on_c, 14, 52, 80
31, 87383, Note_on_c, 14, 44, 80
31, 87456, Note_on_c, 14, 52, 0
31, 87478, Note_on_c, 14, 44, 0
31, 87605, Note_on_c, 14, 52, 90
31, 87611, Note_on_c, 14, 44, 84
31, 87700, Note_on_c, 14, 52, 0
31, 87706, Note_on_c, 14, 44, 0
31, 87841, Note_on_c, 14, 44, 84
31, 87849, Note_on_c, 14, 52, 92
31, 87936, Note_on_c, 14, 44, 0
31, 87944, Note_on_c, 14, 52, 0
31, 88093, Note_on_c, 14, 44, 107
31, 88096, Note_on_c, 14, 52, 106
31, 88188, Note_on_c, 14, 44, 0
31, 88191, Note_on_c, 14, 52, 0
31, 88324, Note_on_c, 14, 44, 80
31, 88341, Note_on_c, 14, 52, 80
31, 88419, Note_on_c, 14, 44, 0
31, 88436, Note_on_c, 14, 52, 0
31, 88582, Note_on_c, 14, 44, 95
31, 88584, Note_on_c, 14, 52, 89
31, 88677, Note_on_c, 14, 44, 0
31, 88679, Note_on_c, 14, 52, 0
31, 88804, Note_on_c, 14, 44, 103
31, 88810, Note_on_c, 14, 52, 117
31, 88899, Note_on_c, 14, 44, 0
31, 88905, Note_on_c, 14, 52, 0
31, 89042, Note_on_c, 14, 52, 94
31, 89048, Note_on_c, 14, 44, 88
31, 89137, Note_on_c, 14, 52, 0
31, 89143, Note_on_c, 14, 44, 0
31, 89296, Note_on_c, 14, 52, 78
31, 89304, Note_on_c, 14, 44, 97
31, 89391, Note_on_c, 14, 52, 0
31, 89399, Note_on_c, 14, 44, 0
31, 89524, Note_on_c, 14, 44, 81
31, 89542, Note_on_c, 14, 52, 91
31, 89619, Note_on_c, 14, 44, 0
31, 89637, Note_on_c, 14, 52, 0
31, 89762, Note_on_c, 14, 52, 102
31, 89769, Note_on_c, 14, 44, 110
31, 89857, Note_on_c, 14, 52, 0
31, 89864, Note_on_c, 14, 44, 0
31, 90002, Note_on_c, 14, 44, 91
31, 90022, Note_on_c, 14, 52, 86
31, 90097, Note_on_c, 14, 44, 0
31, 90117, Note_on_c, 14, 52, 0
31, 90252, Note_on_c, 14, 52, 87
31, 90265, Note_on_c, 14, 44, 92
31, 90347, Note_on_c, 14, 52, 0
31, 90360, Note_on_c, 14, 44, 0
31, 90483, Note_on_c, 14, 52, 82
31, 90497, Note_on_c, 14, 44, 86
31, 90578, Note_on_c, 14, 52, 0
31, 90592, Note_on_c, 14, 44, 0
31, 90728, Note_on_c, 14, 44, 86
31, 90742, Note_on_c, 14, 52, 82
31, 90823, Note_on_c, 14, 44, 0
31, 90837, Note_on_c, 14, 52, 0
31, 90973, Note_on_c, 14, 44, 119
31, 90974, Note_on_c, 14, 52, 113
31, 91068, Note_on_c, 14, 44, 0
31, 91069, Note_on_c, 14, 52, 0
31, 91215, Note_on_c, 14, 52, 91
31, 91221, Note_on_c, 14, 44, 81
31, 91310, Note_on_c, 14, 52, 0
31, 91316, Note_on_c, 14, 44, 0
31, 91455, Note_on_c, 14, 44, 78
31, 91461, Note_on_c, 14, 52, 79
31, 91550, Note_on_c, 14, 44, 0
31, 91556, Note_on_c, 14, 52, 0
31, 91680, Program_c, 14, 45
31, 91690, Note_on_c, 14, 40, 98
31, 91930, Note_on_c, 14, 40, 0
31, 91931, Note_on_c, 14, 44, 96
31, 92164, Note_on_c, 14, 47, 92
31, 92171, Note_on_c, 14, 44, 0
31, 92401, Note_on_c, 14, 52, 92
31, 92404, Note_on_c, 14, 47, 0
31, 92641, Note_on_c, 14, 52, 0
31, 92643, Note_on_c, 14, 55, 91
31, 92883, Note_on_c, 14, 55, 0
31, 92901, Note_on_c, 14, 52, 78
31, 93121, Note_on_c, 14, 48, 92
31, 93141, Note_on_c, 14, 52, 0
31, 93361, Note_on_c, 14, 48, 0
31, 93363, Note_on_c, 14, 43, 86
31, 93603, Note_on_c, 14, 43, 0
31, 93616, Note_on_c, 14, 40, 96
31, 93854, Note_on_c, 14, 44, 88
31, 93856, Note_on_c, 14, 40, 0
31, 94089, Note_on_c, 14, 47, 98
31, 94094, Note_on_c, 14, 44, 0
31, 94320, Note_on_c, 14, 52, 79
31, 94329, Note_on_c, 14, 47, 0
31, 94560, Note_on_c, 14, 52, 0
31, 94567, Note_on_c, 14, 55, 80
31, 94807, Note_on_c, 14, 55, 0
31, 94818, Note_on_c, 14, 52, 82
31, 95054, Note_on_c, 14, 48, 93
31, 95058, Note_on_c, 14, 52, 0
31, 95294, Note_on_c, 14, 48, 0
31, 95297, Note_on_c, 14, 43, 89
31, 95520, Program_c, 14, 48
31, 95525, Note_on_c, 14, 52, 93
31, 95537, Note_on_c, 14, 43, 0
31, 95545, Note_on_c, 14, 44, 82
31, 95620, Note_on_c, 14, 52, 0
31, 95640, Note_on_c, 14, 44, 0
31, 95762, Note_on_c, 14, 44, 89
31, 95776, Note_on_c, 14, 52, 90
31, 95857, Note_on_c, 14, 44, 0
31, 95871, Note_on_c, 14, 52, 0
31, 96006, Note_on_c, 14, 52, 83
31, 96010, Note_on_c, 14, 44, 78
31, 96101, Note_on_c, 14, 52, 0
31, 96105, Note_on_c, 14, 44, 0
31, 96243, Note_on_c, 14, 44, 87
31, 96263, Note_on_c, 14, 52, 89
31, 96338, Note_on_c, 14, 44, 0
31, 96358, Note_on_c, 14, 52, 0
31, 96499, Note_on_c, 14, 44, 89
31, 96501, Note_on_c, 14, 52, 80
31, 96594, Note_on_c, 14, 44, 0
31, 96596, Note_on_c, 14, 52, 0
31, 96727, Note_on_c, 14, 52, 113
31, 96741, Note_on_c, 14, 44, 115
31, 96822, Note_on_c, 14, 52, 0
31, 96836, Note_on_c, 14, 44, 0
31, 96961, Note_on_c, 14, 52, 82
31, 96984, Note_on_c, 14, 44, 85
31, 97056, Note_on_c, 14, 52, 0
31, 97079, Note_on_c, 14, 44, 0
31, 97206, Note_on_c, 14, 44, 117
31, 97224, Note_on_c, 14, 52, 107
31, 97301, Note_on_c, 14, 44, 0
31, 97319, Note_on_c, 14, 52, 0
31, 97458, Note_on_c, 14, 52, 78
31, 97461, Note_on_c, 14, 44, 98
31, 97553, Note_on_c, 14, 52, 0
31, 97556, Note_on_c, 14, 44, 0
31, 97695, Note_on_c, 14, 52, 78
31, 97701, Note_on_c, 14, 44, 93
31, 97790, Note_on_c, 14, 52, 0
31, 97796, Note_on_c, 14, 44, 0
31, 97931, Note_on_c, 14, 52, 94
31, 97943, Note_on_c, 14, 44, 84
31, 98026, Note_on_c, 14, 52, 0
31, 98038, Note_on_c, 14, 44, 0
31, 98160, Note_on_c, 14, 52, 95
31, 98161, Note_on_c, 14, 44, 87
31, 98255, Note_on_c, 14, 52, 0
31, 98256, Note_on_c, 14, 44, 0
31, 98413, Note_on_c, 14, 52, 87
31, 98414, Note_on_c, 14, 44, 98
31, 98508, Note_on_c, 14, 52, 0
31, 98509, Note_on_c, 14, 44, 0
31, 98644, Note_on_c, 14, 44, 114
31, 98648, Note_on_c, 14, 52, 103
31, 98739, Note_on_c, 14, 44, 0
31, 98743, Note_on_c, 14, 52, 0
31, 98903, Note_on_c, 14, 44, 89
31, 98904, Note_on_c, 14, 52, 92
31, 98998, Note_on_c, 14, 44, 0
31, 98999, Note_on_c, 14, 52, 0
31, 99132, Note_on_c, 14, 52, 87
31, 99139, Note_on_c, 14, 44, 87
31, 99227, Note_on_c, 14, 52, 0
31, 99234, Note_on_c, 14, 44, 0
31, 99363, Note_on_c, 14, 44, 78
31, 99382, Note_on_c, 14, 52, 94
31, 99458, Note_on_c, 14, 44, 0
31, 99477, Note_on_c, 14, 52, 0
31, 99607, Note_on_c, 14, 44, 85
31, 99616, Note_on_c, 14, 52, 78
31, 99702, Note_on_c, 14, 44, 0
31, 99711, Note_on_c, 14, 52, 0
31, 99852, Note_on_c, 14, 52, 90
31, 99854, Note_on_c, 14, 44, 87
31, 99947, Note_on_c, 14, 52, 0
31, 99949, Note_on_c, 14, 44, 0
31, 100099, Note_on_c, 14, 52, 95
31, 100101, Note_on_c, 14, 44, 92
31, 100194, Note_on_c, 14, 52, 0
31, 100196, Note_on_c, 14, 44, 0
31, 100323, Note_on_c, 14, 52, 96
31, 100337, Note_on_c, 14, 44, 90
31, 100418, Note_on_c, 14, 52, 0
31, 100432, Note_on_c, 14, 44, 0
31, 100568, Note_on_c, 14, 52, 81
31, 100572, Note_on_c, 14, 44, 91
31, 100663, Note_on_c, 14, 52, 0
31, 100667, Note_on_c, 14, 44, 0
31, 100807, Note_on_c, 14, 52, 79
31, 100815, Note_on_c, 14, 44, 78
31, 100902, Note_on_c, 14, 52, 0
31, 100910, Note_on_c, 14, 44, 0
31, 101049, Note_on_c, 14, 52, 92
31, 101060, Note_on_c, 14, 44, 84
31, 101144, Note_on_c, 14, 52, 0
31, 101155, Note_on_c, 14, 44, 0
31, 101281, Note_on_c, 14, 44, 84
31, 101289, Note_on_c, 14, 52, 92
31, 101376, Note_on_c, 14, 44, 0
31, 101384, Note_on_c, 14, 52, 0
31, 101526, Note_on_c, 14, 44, 80
31, 101527, Note_on_c, 14, 52, 91
31, 101621, Note_on_c, 14, 44, 0
31, 101622, Note_on_c, 14, 52, 0
31, 101762, Note_on_c, 14, 52, 79
31, 101780, Note_on_c, 14, 44, 90
31, 101857, Note_on_c, 14, 52, 0
31, 101875, Note_on_c, 14, 44, 0
31, 102007, Note_on_c, 14, 52, 83
31, 102018, Note_on_c, 14, 44, 92
31, 102102, Note_on_c, 14, 52, 0
31, 102113, Note_on_c, 14, 44, 0
31, 102242, Note_on_c, 14, 44, 88
31, 102242, Note_on_c, 14, 52, 90
31, 102337, Note_on_c, 14, 44, 0
31, 102337, Note_on_c, 14, 52, 0
31, 102491, Note_on_c, 14, 44, 81
31, 102504, Note_on_c, 14, 52, 96
31, 102586, Note_on_c, 14, 44, 0
31, 102599, Note_on_c, 14, 52, 0
31, 102724, Note_on_c, 14, 44, 83
31, 102733, Note_on_c, 14, 52, 84
31, 102819, Note_on_c, 14, 44, 0
31, 102828, Note_on_c, 14, 52, 0
31, 102963, Note_on_c, 14, 52, 84
31, 102965, Note_on_c, 14, 44, 81
31, 103058, Note_on_c, 14, 52, 0
31, 103060, Note_on_c, 14, 44, 0
31, 103216, Note_on_c, 14, 44, 93
31, 103219, Note_on_c, 14, 52, 93
31, 103311, Note_on_c, 14, 44, 0
31, 103314, Note_on_c, 14, 52, 0
31, 103440, Note_on_c, 14, 52, 86
31, 103459, Note_on_c, 14, 44, 89
31, 103535, Note_on_c, 14, 52, 0
31, 103554, Note_on_c, 14, 44, 0
31, 103682, Note_on_c, 14, 44, 79
31, 103694, Note_on_c, 14, 52, 94
31, 103777, Note_on_c, 14, 44, 0
31, 103789, Note_on_c, 14, 52, 0
31, 103923, Note_on_c, 14, 44, 82
31, 103940, Note_on_c, 14, 52, 85
31, 104018, Note_on_c, 14, 44, 0
31, 104035, Note_on_c, 14, 52, 0
31, 104177, Note_on_c, 14, 52, 79
31, 104183, Note_on_c, 14, 44, 83
31, 104272, Note_on_c, 14, 52, 0
31, 104278, Note_on_c, 14, 44, 0
31, 104408, Note_on_c, 14, 52, 97
31, 104423, Note_on_c, 14, 44, 91
31, 104503, Note_on_c, 14, 52, 0
31, 104518, Note_on_c, 14, 44, 0
31, 104642, Note_on_c, 14, 44, 97
31, 104662, Note_on_c, 14, 52, 79
31, 104737, Note_on_c, 14, 44, 0
31, 104757, Note_on_c, 14, 52, 0
31, 104899, Note_on_c, 14, 44, 86
31, 104903, Note_on_c, 14, 52, 80
31, 104994, Note_on_c, 14, 44, 0
31, 104998, Note_on_c, 14, 52, 0
31, 105600, Program_c, 14, 45
31, 105601, Note_on_c, 14, 53, 75
31, 105841, Note_on_c, 14, 53, 0
31, 105857, Note_on_c, 14, 60, 88
31, 106097, Note_on_c, 14, 60, 0
31, 106099, Note_on_c, 14, 53, 87
31, 106339, Note_on_c, 14, 53, 0
31, 107053, Note_on_c, 14, 53, 75
31, 107293, Note_on_c, 14, 53, 0
31, 107300, Note_on_c, 14, 60, 72
31, 107540, Note_on_c, 14, 60, 0
31, 107544, Note_on_c, 14, 53, 80
31, 107784, Note_on_c, 14, 53, 0
31, 108254, Note_on_c, 14, 58, 88
31, 108264, Note_on_c, 14, 51, 92
31, 108494, Note_on_c, 14, 58, 0
31, 108498, Note_on_c, 14, 53, 89
31, 108504, Note_on_c, 14, 51, 0
31, 108727, Note_on_c, 14, 60, 90
31, 108738, Note_on_c, 14, 53, 0
31, 108967, Note_on_c, 14, 60, 0
31, 108972, Note_on_c, 14, 53, 79
31, 109212, Note_on_c, 14, 53, 0
31, 109927, Note_on_c, 14, 53, 70
31, 110162, Note_on_c, 14, 60, 82
31, 110167, Note_on_c, 14, 53, 0
31, 110402, Note_on_c, 14, 60, 0
31, 110410, Note_on_c, 14, 53, 87
31, 110650, Note_on_c, 14, 53, 0
31, 111129, Note_on_c, 14, 58, 87
31, 111132, Note_on_c, 14, 51, 87
31, 111369, Note_on_c, 14, 58, 0
31, 111372, Note_on_c, 14, 51, 0
31, 111376, Note_on_c, 14, 53, 73
31, 111616, Note_on_c, 14, 53, 0
31, 111620, Note_on_c, 14, 60, 83
31, 111860, Note_on_c, 14, 60, 0
31, 111864, Note_on_c, 14, 53, 87
31, 112104, Note_on_c, 14, 53, 0
31, 112812, Note_on_c, 14, 53, 88
31, 113052, Note_on_c, 14, 53, 0
31, 113052, Note_on_c, 14, 60, 85
31, 113288, Note_on_c, 14, 53, 71
31, 113292, Note_on_c, 14, 60, 0
31, 113528, Note_on_c, 14, 53, 0
31, 114250, Note_on_c, 14, 53, 74
31, 114482, Note_on_c, 14, 60, 81
31, 114490, Note_on_c, 14, 53, 0
31, 114722, Note_on_c, 14, 60, 0
31, 114733, Note_on_c, 14, 53, 77
31, 114973, Note_on_c, 14, 53, 0
31, 115364, Note_on_c, 14, 52, 74
31, 115372, Note_on_c, 14, 47, 89
31, 115524, Note_on_c, 14, 52, 0
31, 115530, Note_on_c, 14, 52, 72
31, 115532, Note_on_c, 14, 47, 0
31, 115689, Note_on_c, 14, 52, 0
31, 115922, Note_on_c, 14, 60, 74
31, 115930, Note_on_c, 14, 57, 83
31, 116162, Note_on_c, 14, 60, 0
31, 116170, Note_on_c, 14, 57, 0
31, 116640, Program_c, 14, 48
31, 116642, Note_on_c, 14, 63, 93
31, 116643, Note_on_c, 14, 55, 79
31, 116656, Note_on_c, 14, 44, 79
31, 116737, Note_on_c, 14, 63, 0
31, 116738, Note_on_c, 14, 55, 0
31, 116751, Note_on_c, 14, 44, 0
31, 116883, Note_on_c, 14, 44, 91
31, 116883, Note_on_c, 14, 52, 79
31, 116978, Note_on_c, 14, 44, 0
31, 116978, Note_on_c, 14, 52, 0
31, 117122, Note_on_c, 14, 44, 93
31, 117140, Note_on_c, 14, 52, 98
31, 117217, Note_on_c, 14, 44, 0
31, 117235, Note_on_c, 14, 52, 0
31, 117375, Note_on_c, 14, 52, 90
31, 117380, Note_on_c, 14, 44, 94
31, 117470, Note_on_c, 14, 52, 0
31, 117475, Note_on_c, 14, 44, 0
31, 117602, Note_on_c, 14, 52, 96
31, 117609, Note_on_c, 14, 44, 83
31, 117697, Note_on_c, 14, 52, 0
31, 117704, Note_on_c, 14, 44, 0
31, 117843, Note_on_c, 14, 52, 94
31, 117847, Note_on_c, 14, 44, 81
31, 117938, Note_on_c, 14, 52, 0
31, 117942, Note_on_c, 14, 44, 0
31, 118083, Note_on_c, 14, 44, 87
31, 118097, Note_on_c, 14, 52, 87
31, 118178, Note_on_c, 14, 44, 0
31, 118192, Note_on_c, 14, 52, 0
31, 118322, Note_on_c, 14, 52, 78
31, 118323, Note_on_c, 14, 44, 87
31, 118417, Note_on_c, 14, 52, 0
31, 118418, Note_on_c, 14, 44, 0
31, 118572, Note_on_c, 14, 52, 95
31, 118579, Note_on_c, 14, 44, 81
31, 118667, Note_on_c, 14, 52, 0
31, 118674, Note_on_c, 14, 44, 0
31, 118800, Note_on_c, 14, 44, 111
31, 118800, Note_on_c, 14, 52, 115
31, 118895, Note_on_c, 14, 44, 0
31, 118895, Note_on_c, 14, 52, 0
31, 119064, Note_on_c, 14, 52, 87
31, 119065, Note_on_c, 14, 44, 85
31, 119159, Note_on_c, 14, 52, 0
31, 119160, Note_on_c, 14, 44, 0
31, 119283, Note_on_c, 14, 52, 111
31, 119292, Note_on_c, 14, 44, 108
31, 119378, Note_on_c, 14, 52, 0
31, 119387, Note_on_c, 14, 44, 0
31, 119537, Note_on_c, 14, 44, 78
31, 119541, Note_on_c, 14, 52, 98
31, 119632, Note_on_c, 14, 44, 0
31, 119636, Note_on_c, 14, 52, 0
31, 119783, Note_on_c, 14, 44, 95
31, 119785, Note_on_c, 14, 52, 88
31, 119878, Note_on_c, 14, 44, 0
31, 119880, Note_on_c, 14, 52, 0
31, 120000, Note_on_c, 14, 44, 85
31, 120008, Note_on_c, 14, 52, 88
31, 120095, Note_on_c, 14, 44, 0
31, 120103, Note_on_c, 14, 52, 0
31, 120241, Note_on_c, 14, 52, 89
31, 120262, Note_on_c, 14, 44, 78
31, 120336, Note_on_c, 14, 52, 0
31, 120357, Note_on_c, 14, 44, 0
31, 120497, Note_on_c, 14, 52, 84
31, 120498, Note_on_c, 14, 44, 92
31, 120592, Note_on_c, 14, 52, 0
31, 120593, Note_on_c, 14, 44, 0
31, 120729, Note_on_c, 14, 44, 110
31, 120739, Note_on_c, 14, 52, 106
31, 120824, Note_on_c, 14, 44, 0
31, 120834, Note_on_c, 14, 52, 0
31, 120966, Note_on_c, 14, 44, 86
31, 120969, Note_on_c, 14, 52, 88
31, 121061, Note_on_c, 14, 44, 0
31, 121064, Note_on_c, 14, 52, 0
31, 121200, Note_on_c, 14, 44, 81
31, 121217, Note_on_c, 14, 52, 94
31, 121295, Note_on_c, 14, 44, 0
31, 121312, Note_on_c, 14, 52, 0
31, 121442, Note_on_c, 14, 44, 101
31, 121445, Note_on_c, 14, 52, 119
31, 121537, Note_on_c, 14, 44, 0
31, 121540, Note_on_c, 14, 52, 0
31, 121688, Note_on_c, 14, 44, 81
31, 121699, Note_on_c, 14, 52, 82
31, 121783, Note_on_c, 14, 44, 0
31, 121794, Note_on_c, 14, 52, 0
31, 121932, Note_on_c, 14, 52, 92
31, 121937, Note_on_c, 14, 44, 93
31, 122027, Note_on_c, 14, 52, 0
31, 122032, Note_on_c, 14, 44, 0
31, 122176, Note_on_c, 14, 52, 78
31, 122185, Note_on_c, 14, 44, 93
31, 122271, Note_on_c, 14, 52, 0
31, 122280, Note_on_c, 14, 44, 0
31, 122421, Note_on_c, 14, 44, 114
31, 122424, Note_on_c, 14, 52, 104
31, 122516, Note_on_c, 14, 44, 0
31, 122519, Note_on_c, 14, 52, 0
31, 122654, Note_on_c, 14, 52, 84
31, 122657, Note_on_c, 14, 44, 78
31, 122749, Note_on_c, 14, 52, 0
31, 122752, Note_on_c, 14, 44, 0
31, 122890, Note_on_c, 14, 52, 92
31, 122903, Note_on_c, 14, 44, 89
31, 122985, Note_on_c, 14, 52, 0
31, 122998, Note_on_c, 14, 44, 0
31, 123126, Note_on_c, 14, 44, 78
31, 123139, Note_on_c, 14, 52, 83
31, 123221, Note_on_c, 14, 44, 0
31, 123234, Note_on_c, 14, 52, 0
31, 123369, Note_on_c, 14, 44, 78
31, 123372, Note_on_c, 14, 52, 82
31, 123464, Note_on_c, 14, 44, 0
31, 123467, Note_on_c, 14, 52, 0
31, 123604, Note_on_c, 14, 44, 116
31, 123608, Note_on_c, 14, 52, 108
31, 123699, Note_on_c, 14, 44, 0
31, 123703, Note_on_c, 14, 52, 0
31, 123841, Note_on_c, 14, 44, 93
31, 123850, Note_on_c, 14, 52, 91
31, 123936, Note_on_c, 14, 44, 0
31, 123945, Note_on_c, 14, 52, 0
31, 124094, Note_on_c, 14, 52, 87
31, 124097, Note_on_c, 14, 44, 78
31, 124189, Note_on_c, 14, 52, 0
31, 124192, Note_on_c, 14, 44, 0
31, 124322, Note_on_c, 14, 44, 48
31, 124336, Note_on_c, 14, 52, 46
31, 124417, Note_on_c, 14, 44, 0
31, 124431, Note_on_c, 14, 52, 0
31, 124565, Note_on_c, 14, 44, 53
31, 124571, Note_on_c, 14, 52, 59
31, 124660, Note_on_c, 14, 44, 0
31, 124666, Note_on_c, 14, 52, 0
31, 124816, Note_on_c, 14, 44, 46
31, 124823, Note_on_c, 14, 52, 54
31, 124911, Note_on_c, 14, 44, 0
31, 124918, Note_on_c, 14, 52, 0
31, 125043, Note_on_c, 14, 52, 55
31, 125059, Note_on_c, 14, 44, 40
31, 125138, Note_on_c, 14, 52, 0
31, 125154, Note_on_c, 14, 44, 0
31, 125283, Note_on_c, 14, 44, 46
31, 125288, Note_on_c, 14, 52, 50
31, 125378, Note_on_c, 14, 44, 0
31, 125383, Note_on_c, 14, 52, 0
31, 125524, Note_on_c, 14, 52, 45
31, 125542, Note_on_c, 14, 44, 53
31, 125619, Note_on_c, 14, 52, 0
31, 125637, Note_on_c, 14, 44, 0
31, 125762, Note_on_c, 14, 52, 42
31, 125772, Note_on_c, 14, 44, 58
31, 125857, Note_on_c, 14, 52, 0
31, 125867, Note_on_c, 14, 44, 0
31, 126018, Note_on_c, 14, 52, 52
31, 126020, Note_on_c, 14, 44, 39
31, 126113, Note_on_c, 14, 52, 0
31, 126115, Note_on_c, 14, 44, 0
31, 126240, Note_on_c, 14, 44, 45
31, 126262, Note_on_c, 14, 52, 46
31, 126335, Note_on_c, 14, 44, 0
31, 126357, Note_on_c, 14, 52, 0
31, 126483, Note_on_c, 14, 44, 46
31, 126498, Note_on_c, 14, 52, 58
31, 126578, Note_on_c, 14, 44, 0
31, 126593, Note_on_c, 14, 52, 0
31, 126723, Note_on_c, 14, 44, 49
31, 126738, Note_on_c, 14, 52, 44
31, 126818, Note_on_c, 14, 44, 0
31, 126833, Note_on_c, 14, 52, 0
31, 126975, Note_on_c, 14, 44, 42
31, 126978, Note_on_c, 14, 52, 49
31, 127070, Note_on_c, 14, 44, 0
31, 127073, Note_on_c, 14, 52, 0
31, 127209, Note_on_c, 14, 52, 48
31, 127224, Note_on_c, 14, 44, 59
31, 127304, Note_on_c, 14, 52, 0
31, 127319, Note_on_c, 14, 44, 0
31, 127462, Note_on_c, 14, 44, 105
31, 127463, Note_on_c, 14, 52, 107
31, 127557, Note_on_c, 14, 44, 0
31, 127558, Note_on_c, 14, 52, 0
31, 127701, Note_on_c, 14, 44, 96
31, 127705, Note_on_c, 14, 52, 94
31, 127796, Note_on_c, 14, 44, 0
31, 127800, Note_on_c, 14, 52, 0
31, 127940, Note_on_c, 14, 44, 106
31, 127940, Note_on_c, 14, 52, 116
31, 128035, Note_on_c, 14, 44, 0
31, 128035, Note_on_c, 14, 52, 0
31, 128161, Note_on_c, 14, 52, 39
31, 128176, Note_on_c, 14, 44, 59
31, 128256, Note_on_c, 14, 52, 0
31, 128271, Note_on_c, 14, 44, 0
31, 128414, Note_on_c, 14, 44, 57
31, 128416, Note_on_c, 14, 52, 40
31, 128509, Note_on_c, 14, 44, 0
31, 128511, Note_on_c, 14, 52, 0
31, 128645, Note_on_c, 14, 44, 58
31, 128654, Note_on_c, 14, 52, 46
31, 128740, Note_on_c, 14, 44, 0
31, 128749, Note_on_c, 14, 52, 0
31, 128898, Note_on_c, 14, 44, 45
31, 128904, Note_on_c, 14, 52, 42
31, 128993, Note_on_c, 14, 44, 0
31, 128999, Note_on_c, 14, 52, 0
31, 129136, Note_on_c, 14, 44, 53
31, 129145, Note_on_c, 14, 52, 47
31, 129231, Note_on_c, 14, 44, 0
31, 129240, Note_on_c, 14, 52, 0
31, 129374, Note_on_c, 14, 44, 42
31, 129382, Note_on_c, 14, 52, 49
31, 129469, Note_on_c, 14, 44, 0
31, 129477, Note_on_c, 14, 52, 0
31, 129615, Note_on_c, 14, 44, 49
31, 129616, Note_on_c, 14, 52, 44
31, 129710, Note_on_c, 14, 44, 0
31, 129711, Note_on_c, 14, 52, 0
31, 129841, Note_on_c, 14, 44, 50
31, 129864, Note_on_c, 14, 52, 59
31, 129936, Note_on_c, 14, 44, 0
31, 129959, Note_on_c, 14, 52, 0
31, 130095, Note_on_c, 14, 52, 39
31, 130097, Note_on_c, 14, 44, 41
31, 130190, Note_on_c, 14, 52, 0
31, 130192, Note_on_c, 14, 44, 0
31, 130323, Note_on_c, 14, 52, 41
31, 130342, Note_on_c, 14, 44, 40
31, 130418, Note_on_c, 14, 52, 0
31, 130437, Note_on_c, 14, 44, 0
31, 130570, Note_on_c, 14, 52, 56
31, 130582, Note_on_c, 14, 44, 48
31, 130665, Note_on_c, 14, 52, 0
31, 130677, Note_on_c, 14, 44, 0
31, 130800, Note_on_c, 14, 44, 42
31, 130814, Note_on_c, 14, 52, 43
31, 130895, Note_on_c, 14, 44, 0
31, 130909, Note_on_c, 14, 52, 0
31, 131043, Note_on_c, 14, 44, 52
31, 131058, Note_on_c, 14, 52, 59
31, 131138, Note_on_c, 14, 44, 0
31, 131153, Note_on_c, 14, 52, 0
31, 131297, Note_on_c, 14, 44, 110
31, 131302, Note_on_c, 14, 52, 110
31, 131392, Note_on_c, 14, 44, 0
31, 131397, Note_on_c, 14, 52, 0
31, 131521, Note_on_c, 14, 44, 96
31, 131525, Note_on_c, 14, 52, 87
31, 131616, Note_on_c, 14, 44, 0
31, 131620, Note_on_c, 14, 52, 0
31, 131760, Note_on_c, 14, 44, 98
31, 131769, Note_on_c, 14, 52, 80
31, 131855, Note_on_c, 14, 44, 0
31, 131864, Note_on_c, 14, 52, 0
31, 132009, Note_on_c, 14, 52, 100
31, 132016, Note_on_c, 14, 44, 105
31, 132104, Note_on_c, 14, 52, 0
31, 132111, Note_on_c, 14, 44, 0
31, 132247, Note_on_c, 14, 52, 83
31, 132254, Note_on_c, 14, 44, 78
31, 132342, Note_on_c, 14, 52, 0
31, 132349, Note_on_c, 14, 44, 0
31, 132487, Note_on_c, 14, 52, 97
31, 132491, Note_on_c, 14, 44, 79
31, 132582, Note_on_c, 14, 52, 0
31, 132586, Note_on_c, 14, 44, 0
31, 132724, Note_on_c, 14, 52, 87
31, 132729, Note_on_c, 14, 44, 80
31, 132819, Note_on_c, 14, 52, 0
31, 132824, Note_on_c, 14, 44, 0
31, 132960, Note_on_c, 14, 52, 79
31, 132981, Note_on_c, 14, 44, 98
31, 133055, Note_on_c, 14, 52, 0
31, 133076, Note_on_c, 14, 44, 0
31, 133204, Note_on_c, 14, 44, 46
31, 133219, Note_on_c, 14, 52, 58
31, 133299, Note_on_c, 14, 44, 0
31, 133314, Note_on_c, 14, 52, 0
31, 133445, Note_on_c, 14, 52, 56
31, 133450, Note_on_c, 14, 44, 42
31, 133540, Note_on_c, 14, 52, 0
31, 133545, Note_on_c, 14, 44, 0
31, 133680, Note_on_c, 14, 52, 59
31, 133682, Note_on_c, 14, 44, 52
31, 133775, Note_on_c, 14, 52, 0
31, 133777, Note_on_c, 14, 44, 0
31, 133920, Note_on_c, 14, 44, 43
31, 133935, Note_on_c, 14, 52, 56
31, 134015, Note_on_c, 14, 44, 0
31, 134030, Note_on_c, 14, 52, 0
31, 134160, Note_on_c, 14, 52, 59
31, 134175, Note_on_c, 14, 44, 50
31, 134255, Note_on_c, 14, 52, 0
31, 134270, Note_on_c, 14, 44, 0
31, 134419, Note_on_c, 14, 44, 51
31, 134420, Note_on_c, 14, 52, 58
31, 134514, Note_on_c, 14, 44, 0
31, 134515, Note_on_c, 14, 52, 0
31, 134660, Note_on_c, 14, 44, 57
31, 134663, Note_on_c, 14, 52, 52
31, 134755, Note_on_c, 14, 44, 0
31, 134758, Note_on_c, 14, 52, 0
31, 134893, Note_on_c, 14, 44, 40
31, 134904, Note_on_c, 14, 52, 49
31, 134988, Note_on_c, 14, 44, 0
31, 134999, Note_on_c, 14, 52, 0
31, 135132, Note_on_c, 14, 44, 43
31, 135145, Note_on_c, 14, 52, 40
31, 135227, Note_on_c, 14, 44, 0
31, 135240, Note_on_c, 14, 52, 0
31, 135381, Note_on_c, 14, 44, 40
31, 135385, Note_on_c, 14, 52, 48
31, 135476, Note_on_c, 14, 44, 0
31, 135480, Note_on_c, 14, 52, 0
31, 135600, Note_on_c, 14, 52, 46
31, 135624, Note_on_c, 14, 44, 51
31, 135695, Note_on_c, 14, 52, 0
31, 135719, Note_on_c, 14, 44, 0
31, 135845, Note_on_c, 14, 52, 58
31, 135847, Note_on_c, 14, 44, 40
31, 135940, Note_on_c, 14, 52, 0
31, 135942, Note_on_c, 14, 44, 0
31, 136091, Note_on_c, 14, 44, 50
31, 136101, Note_on_c, 14, 52, 51
31, 136186, Note_on_c, 14, 44, 0
31, 136196, Note_on_c, 14, 52, 0
31, 136324, Note_on_c, 14, 44, 39
31, 136340, Note_on_c, 14, 52, 51
31, 136419, Note_on_c, 14, 44, 0
31, 136435, Note_on_c, 14, 52, 0
31, 136578, Note_on_c, 14, 44, 115
31, 136583, Note_on_c, 14, 52, 107
31, 136673, Note_on_c, 14, 44, 0
31, 136678, Note_on_c, 14, 52, 0
31, 136814, Note_on_c, 14, 52, 89
31, 136817, Note_on_c, 14, 44, 95
31, 136909, Note_on_c, 14, 52, 0
31, 136912, Note_on_c, 14, 44, 0
31, 137048, Note_on_c, 14, 52, 110
31, 137055, Note_on_c, 14, 44, 119
31, 137143, Note_on_c, 14, 52, 0
31, 137150, Note_on_c, 14, 44, 0
31, 137294, Note_on_c, 14, 52, 93
31, 137299, Note_on_c, 14, 44, 87
31, 137389, Note_on_c, 14, 52, 0
31, 137394, Note_on_c, 14, 44, 0
31, 137535, Note_on_c, 14, 52, 108
31, 137536, Note_on_c, 14, 44, 101
31, 137630, Note_on_c, 14, 52, 0
31, 137631, Note_on_c, 14, 44, 0
31, 137765, Note_on_c, 14, 44, 82
31, 137777, Note_on_c, 14, 52, 90
31, 137860, Note_on_c, 14, 44, 0
31, 137872, Note_on_c, 14, 52, 0
31, 138004, Note_on_c, 14, 44, 98
31, 138004, Note_on_c, 14, 52, 80
31, 138099, Note_on_c, 14, 44, 0
31, 138099, Note_on_c, 14, 52, 0
31, 138240, Note_on_c, 14, 52, 98
31, 138261, Note_on_c, 14, 44, 97
31, 138335, Note_on_c, 14, 52, 0
31, 138356, Note_on_c, 14, 44, 0
31, 138485, Note_on_c, 14, 52, 78
31, 138501, Note_on_c, 14, 44, 78
31, 138580, Note_on_c, 14, 52, 0
31, 138596, Note_on_c, 14, 44, 0
31, 138734, Note_on_c, 14, 44, 116
31, 138740, Note_on_c, 14, 52, 110
31, 138829, Note_on_c, 14, 44, 0
31, 138835, Note_on_c, 14, 52, 0
31, 138965, Note_on_c, 14, 44, 81
31, 138971, Note_on_c, 14, 52, 93
31, 139060, Note_on_c, 14, 44, 0
31, 139066, Note_on_c, 14, 52, 0
31, 139218, Note_on_c, 14, 44, 83
31, 139225, Note_on_c, 14, 52, 88
31, 139313, Note_on_c, 14, 44, 0
31, 139320, Note_on_c, 14, 52, 0
31, 139451, Note_on_c, 14, 52, 92
31, 139457, Note_on_c, 14, 44, 92
31, 139546, Note_on_c, 14, 52, 0
31, 139552, Note_on_c, 14, 44, 0
31, 139693, Note_on_c, 14, 52, 87
31, 139699, Note_on_c, 14, 44, 86
31, 139788, Note_on_c, 14, 52, 0
31, 139794, Note_on_c, 14, 44, 0
31, 139927, Note_on_c, 14, 52, 118
31, 139936, Note_on_c, 14, 44, 115
31, 140022, Note_on_c, 14, 52, 0
31, 140031, Note_on_c, 14, 44, 0
31, 140177, Note_on_c, 14, 44, 81
31, 140177, Note_on_c, 14, 52, 87
31, 140272, Note_on_c, 14, 44, 0
31, 140272, Note_on_c, 14, 52, 0
31, 140405, Note_on_c, 14, 52, 78
31, 140412, Note_on_c, 14, 44, 81
31, 140500, Note_on_c, 14, 52, 0
31, 140507, Note_on_c, 14, 44, 0
31, 140645, Note_on_c, 14, 44, 87
31, 140664, Note_on_c, 14, 52, 96
31, 140740, Note_on_c, 14, 44, 0
31, 140759, Note_on_c, 14, 52, 0
31, 140895, Note_on_c, 14, 52, 53
31, 140903, Note_on_c, 14, 44, 42
31, 140990, Note_on_c, 14, 52, 0
31, 140998, Note_on_c, 14, 44, 0
31, 141127, Note_on_c, 14, 52, 48
31, 141140, Note_on_c, 14, 44, 48
31, 141222, Note_on_c, 14, 52, 0
31, 141235, Note_on_c, 14, 44, 0
31, 141366, Note_on_c, 14, 44, 46
31, 141372, Note_on_c, 14, 52, 56
31, 141461, Note_on_c, 14, 44, 0
31, 141467, Note_on_c, 14, 52, 0
31, 141608, Note_on_c, 14, 44, 59
31, 141624, Note_on_c, 14, 52, 58
31, 141703, Note_on_c, 14, 44, 0
31, 141719, Note_on_c, 14, 52, 0
31, 141854, Note_on_c, 14, 44, 50
31, 141860, Note_on_c, 14, 52, 42
31, 141949, Note_on_c, 14, 44, 0
31, 141955, Note_on_c, 14, 52, 0
31, 142080, Note_on_c, 14, 52, 51
31, 142094, Note_on_c, 14, 44, 39
31, 142175, Note_on_c, 14, 52, 0
31, 142189, Note_on_c, 14, 44, 0
31, 142325, Note_on_c, 14, 52, 51
31, 142336, Note_on_c, 14, 44, 59
31, 142420, Note_on_c, 14, 52, 0
31, 142431, Note_on_c, 14, 44, 0
31, 142568, Note_on_c, 14, 52, 59
31, 142577, Note_on_c, 14, 44, 48
31, 142663, Note_on_c, 14, 52, 0
31, 142672, Note_on_c, 14, 44, 0
31, 142801, Note_on_c, 14, 52, 57
31, 142802, Note_on_c, 14, 44, 59
31, 142896, Note_on_c, 14, 52, 0
31, 142897, Note_on_c, 14, 44, 0
31, 143055, Note_on_c, 14, 44, 55
31, 143058, Note_on_c, 14, 52, 59
31, 143150, Note_on_c, 14, 44, 0
31, 143153, Note_on_c, 14, 52, 0
31, 143283, Note_on_c, 14, 44, 55
31, 143290, Note_on_c, 14, 52, 46
31, 143378, Note_on_c, 14, 44, 0
31, 143385, Note_on_c, 14, 52, 0
31, 143533, Note_on_c, 14, 52, 55
31, 143544, Note_on_c, 14, 44, 50
31, 143628, Note_on_c, 14, 52, 0
31, 143639, Note_on_c, 14, 44, 0
31, 143765, Note_on_c, 14, 52, 49
31, 143778, Note_on_c, 14, 44, 43
31, 143860, Note_on_c, 14, 52, 0
31, 143873, Note_on_c, 14, 44, 0
31, 144002, Note_on_c, 14, 52, 44
31, 144013, Note_on_c, 14, 44, 58
31, 144097, Note_on_c, 14, 52, 0
31, 144108, Note_on_c, 14, 44, 0
31, 144241, Note_on_c, 14, 44, 57
31, 144245, Note_on_c, 14, 52, 57
31, 144336, Note_on_c, 14, 44, 0
31, 144340, Note_on_c, 14, 52, 0
31, 144485, Note_on_c, 14, 44, 42
31, 144503, Note_on_c, 14, 52, 49
31, 144580, Note_on_c, 14, 44, 0
31, 144598, Note_on_c, 14, 52, 0
31, 144721, Note_on_c, 14, 52, 48
31, 144729, Note_on_c, 14, 44, 40
31, 144816, Note_on_c, 14, 52, 0
31, 144824, Note_on_c, 14, 44, 0
31, 144966, Note_on_c, 14, 44, 57
31, 144979, Note_on_c, 14, 52, 52
31, 145061, Note_on_c, 14, 44, 0
31, 145074, Note_on_c, 14, 52, 0
31, 145201, Note_on_c, 14, 44, 56
31, 145209, Note_on_c, 14, 52, 41
31, 145296, Note_on_c, 14, 44, 0
31, 145304, Note_on_c, 14, 52, 0
31, 145447, Note_on_c, 14, 44, 45
31, 145459, Note_on_c, 14, 52, 52
31, 145542, Note_on_c, 14, 44, 0
31, 145554, Note_on_c, 14, 52, 0
31, 145698, Note_on_c, 14, 52, 52
31, 145704, Note_on_c, 14, 44, 43
31, 145793, Note_on_c, 14, 52, 0
31, 145799, Note_on_c, 14, 44, 0
31, 145930, Note_on_c, 14, 52, 48
31, 145940, Note_on_c, 14, 44, 50
31, 146025, Note_on_c, 14, 52, 0
31, 146035, Note_on_c, 14, 44, 0
31, 146170, Note_on_c, 14, 44, 52
31, 146172, Note_on_c, 14, 52, 48
31, 146265, Note_on_c, 14, 44, 0
31, 146267, Note_on_c, 14, 52, 0
31, 146405, Note_on_c, 14, 44, 53
31, 146422, Note_on_c, 14, 52, 54
31, 146500, Note_on_c, 14, 44, 0
31, 146517, Note_on_c, 14, 52, 0
31, 146643, Note_on_c, 14, 52, 45
31, 146651, Note_on_c, 14, 44, 58
31, 146738, Note_on_c, 14, 52, 0
31, 146746, Note_on_c, 14, 44, 0
31, 146890, Note_on_c, 14, 52, 53
31, 146900, Note_on_c, 14, 44, 45
31, 146985, Note_on_c, 14, 52, 0
31, 146995, Note_on_c, 14, 44, 0
31, 147136, Note_on_c, 14, 52, 42
31, 147138, Note_on_c, 14, 44, 55
31, 147231, Note_on_c, 14, 52, 0
31, 147233, Note_on_c, 14, 44, 0
31, 147378, Note_on_c, 14, 52, 47
31, 147381, Note_on_c, 14, 44, 45
31, 147473, Note_on_c, 14, 52, 0
31, 147476, Note_on_c, 14, 44, 0
31, 147609, Note_on_c, 14, 44, 53
31, 147617, Note_on_c, 14, 52, 54
31, 147704, Note_on_c, 14, 44, 0
31, 147712, Note_on_c, 14, 52, 0
31, 147846, Note_on_c, 14, 52, 56
31, 147862, Note_on_c, 14, 44, 39
31, 147941, Note_on_c, 14, 52, 0
31, 147957, Note_on_c, 14, 44, 0
31, 148082, Note_on_c, 14, 52, 49
31, 148091, Note_on_c, 14, 44, 57
31, 148177, Note_on_c, 14, 52, 0
31, 148186, Note_on_c, 14, 44, 0
31, 148329, Note_on_c, 14, 52, 47
31, 148333, Note_on_c, 14, 44, 50
31, 148424, Note_on_c, 14, 52, 0
31, 148428, Note_on_c, 14, 44, 0
31, 148569, Note_on_c, 14, 44, 53
31, 148581, Note_on_c, 14, 52, 42
31, 148664, Note_on_c, 14, 44, 0
31, 148676, Note_on_c, 14, 52, 0
31, 148802, Note_on_c, 14, 44, 52
31, 148802, Note_on_c, 14, 52, 58
31, 148897, Note_on_c, 14, 44, 0
31, 148897, Note_on_c, 14, 52, 0
31, 149042, Note_on_c, 14, 52, 41
31, 149063, Note_on_c, 14, 44, 41
31, 149137, Note_on_c, 14, 52, 0
31, 149158, Note_on_c, 14, 44, 0
31, 149299, Note_on_c, 14, 52, 57
31, 149305, Note_on_c, 14, 44, 43
31, 149394, Note_on_c, 14, 52, 0
31, 149400, Note_on_c, 14, 44, 0
31, 149526, Note_on_c, 14, 52, 46
31, 149534, Note_on_c, 14, 44, 57
31, 149621, Note_on_c, 14, 52, 0
31, 149629, Note_on_c, 14, 44, 0
31, 149777, Note_on_c, 14, 52, 49
31, 149779, Note_on_c, 14, 44, 52
31, 149872, Note_on_c, 14, 52, 0
31, 149874, Note_on_c, 14, 44, 0
31, 150001, Note_on_c, 14, 44, 42
31, 150018, Note_on_c, 14, 52, 45
31, 150096, Note_on_c, 14, 44, 0
31, 150113, Note_on_c, 14, 52, 0
31, 150480, Program_c, 14, 45
31, 150490, Note_on_c, 14, 36, 101
31, 150492, Note_on_c, 14, 60, 98
31, 150497, Note_on_c, 14, 55, 101
31, 150505, Note_on_c, 14, 48, 97
31, 150730, Note_on_c, 14, 36, 0
31, 150732, Note_on_c, 14, 60, 0
31, 150737, Note_on_c, 14, 55, 0
31, 150745, Note_on_c, 14, 48, 0
31, 151200, Program_c, 14, 48
31, 151202, Note_on_c, 14, 50, 100
31, 151202, Note_on_c, 14, 62, 92
31, 151362, Note_on_c, 14, 50, 0
31, 151362, Note_on_c, 14, 62, 0
31, 151536, Note_on_c, 14, 43, 92
31, 151616, Note_on_c, 14, 43, 0
31, 151680, Note_on_c, 14, 41, 102
31, 151727, Note_on_c, 14, 41, 0
31, 159840, Program_c, 14, 45
31, 159845, Note_on_c, 14, 61, 92
31, 160085, Note_on_c, 14, 61, 0
31, 160103, Note_on_c, 14, 58, 95
31, 160334, Note_on_c, 14, 63, 91
31, 160343, Note_on_c, 14, 58, 0
31, 160565, Note_on_c, 14, 58, 84
31, 160574, Note_on_c, 14, 63, 0
31, 160805, Note_on_c, 14, 58, 0
31, 161762, Note_on_c, 14, 61, 85
31, 162002, Note_on_c, 14, 61, 0
31, 162024, Note_on_c, 14, 58, 87
31, 162249, Note_on_c, 14, 63, 82
31, 162264, Note_on_c, 14, 58, 0
31, 162481, Note_on_c, 14, 58, 83
31, 162489, Note_on_c, 14, 63, 0
31, 162721, Note_on_c, 14, 58, 0
31, 164640, Program_c, 14, 115
31, 164659, Note_on_c, 14, 60, 76
31, 164851, Note_on_c, 14, 60, 0
31, 164893, Note_on_c, 14, 60, 80
31, 165085, Note_on_c, 14, 60, 0
31, 165131, Note_on_c, 14, 60, 80
31, 165323, Note_on_c, 14, 60, 0
31, 165373, Note_on_c, 14, 60, 65
31, 165565, Note_on_c, 14, 60, 0
31, 165620, Note_on_c, 14, 60, 83
31, 165812, Note_on_c, 14, 60, 0
31, 165847, Note_on_c, 14, 60, 72
31, 166039, Note_on_c, 14, 60, 0
31, 166087, Note_on_c, 14, 60, 67
31, 166279, Note_on_c, 14, 60, 0
31, 166332, Note_on_c, 14, 60, 84
31, 166524, Note_on_c, 14, 60, 0
31, 166565, Note_on_c, 14, 60, 67
31, 166757, Note_on_c, 14, 60, 0
31, 166821, Note_on_c, 14, 60, 71
31, 167013, Note_on_c, 14, 60, 0
31, 167065, Note_on_c, 14, 60, 77
31, 167257, Note_on_c, 14, 60, 0
31, 167286, Note_on_c, 14, 60, 82
31, 167478, Note_on_c, 14, 60, 0
31, 167524, Note_on_c, 14, 60, 72
31, 167716, Note_on_c, 14, 60, 0
31, 167762, Note_on_c, 14, 60, 82
31, 167954, Note_on_c, 14, 60, 0
31, 168000, Note_on_c, 14, 60, 83
31, 168192, Note_on_c, 14, 60, 0
31, 168256, Note_on_c, 14, 60, 71
31, 168448, Note_on_c, 14, 60, 0
31, 168487, Note_on_c, 14, 60, 66
31, 168679, Note_on_c, 14, 60, 0
31, 168734, Note_on_c, 14, 60, 83
31, 168926, Note_on_c, 14, 60, 0
31, 168972, Note_on_c, 14, 60, 78
31, 169164, Note_on_c, 14, 60, 0
31, 169211, Note_on_c, 14, 60, 66
31, 169403, Note_on_c, 14, 60, 0
31, 169455, Note_on_c, 14, 60, 74
31, 169647, Note_on_c, 14, 60, 0
31, 169695, Note_on_c, 14, 60, 79
31, 169887, Note_on_c, 14, 60, 0
31, 169937, Note_on_c, 14, 60, 82
31, 170129, Note_on_c, 14, 60, 0
31, 170167, Note_on_c, 14, 60, 80
31, 170359, Note_on_c, 14, 60, 0
31, 170422, Note_on_c, 14, 60, 82
31, 170614, Note_on_c, 14, 60, 0
31, 170644, Note_on_c, 14, 60, 71
31, 170836, Note_on_c, 14, 60, 0
31, 170886, Note_on_c, 14, 60, 71
31, 171078, Note_on_c, 14, 60, 0
31, 171145, Note_on_c, 14, 60, 73
31, 171337, Note_on_c, 14, 60, 0
31, 171363, Note_on_c, 14, 60, 79
31, 171555, Note_on_c, 14, 60, 0
31, 171620, Note_on_c, 14, 60, 81
31, 171812, Note_on_c, 14, 60, 0
31, 171844, Note_on_c, 14, 60, 67
31, 172036, Note_on_c, 14, 60, 0
31, 172087, Note_on_c, 14, 60, 69
31, 172279, Note_on_c, 14, 60, 0
31, 172333, Note_on_c, 14, 60, 79
31, 172525, Note_on_c, 14, 60, 0
31, 172585, Note_on_c, 14, 60, 80
31, 172777, Note_on_c, 14, 60, 0
31, 172808, Note_on_c, 14, 60, 74
31, 173000, Note_on_c, 14, 60, 0
31, 173046, Note_on_c, 14, 60, 65
31, 173238, Note_on_c, 14, 60, 0
31, 173284, Note_on_c, 14, 60, 85
31, 173476, Note_on_c, 14, 60, 0
31, 173544, Note_on_c, 14, 60, 76
31, 173736, Note_on_c, 14, 60, 0
31, 173767, Note_on_c, 14, 60, 66
31, 173959, Note_on_c, 14, 60, 0
31, 174008, Note_on_c, 14, 60, 75
31, 174200, Note_on_c, 14, 60, 0
31, 174255, Note_on_c, 14, 60, 79
31, 174447, Note_on_c, 14, 60, 0
31, 174487, Note_on_c, 14, 60, 72
31, 174679, Note_on_c, 14, 60, 0
31, 174738, Note_on_c, 14, 60, 72
31, 174930, Note_on_c, 14, 60, 0
31, 174963, Note_on_c, 14, 60, 84
31, 175155, Note_on_c, 14, 60, 0
31, 175201, Note_on_c, 14, 60, 85
31, 175393, Note_on_c, 14, 60, 0
31, 175457, Note_on_c, 14, 60, 85
31, 175649, Note_on_c, 14, 60, 0
31, 175694, Note_on_c, 14, 60, 71
31, 175886, Note_on_c, 14, 60, 0
31, 175944, Note_on_c, 14, 60, 69
31, 176136, Note_on_c, 14, 60, 0
31, 176185, Note_on_c, 14, 60, 79
31, 176377, Note_on_c, 14, 60, 0
31, 176419, Note_on_c, 14, 60, 74
31, 176611, Note_on_c, 14, 60, 0
31, 176655, Note_on_c, 14, 60, 71
31, 176847, Note_on_c, 14, 60, 0
31, 176905, Note_on_c, 14, 60, 74
31, 177097, Note_on_c, 14, 60, 0
31, 177142, Note_on_c, 14, 60, 75
31, 177334, Note_on_c, 14, 60, 0
31, 177373, Note_on_c, 14, 60, 84
31, 177565, Note_on_c, 14, 60, 0
31, 177607, Note_on_c, 14, 60, 69
31, 177799, Note_on_c, 14, 60, 0
31, 177850, Note_on_c, 14, 60, 78
31, 178042, Note_on_c, 14, 60, 0
31, 178088, Note_on_c, 14, 60, 80
31, 178280, Note_on_c, 14, 60, 0
31, 178341, Note_on_c, 14, 60, 74
31, 178533, Note_on_c, 14, 60, 0
31, 178578, Note_on_c, 14, 60, 68
31, 178770, Note_on_c, 14, 60, 0
31, 178816, Note_on_c, 14, 60, 79
31, 179008, Note_on_c, 14, 60, 0
31, 179045, Note_on_c, 14, 60, 68
31, 179237, Note_on_c, 14, 60, 0
31, 179285, Note_on_c, 14, 60, 82
31, 179477, Note_on_c, 14, 60, 0
31, 179540, Note_on_c, 14, 60, 74
31, 179732, Note_on_c, 14, 60, 0
31, 179761, Note_on_c, 14, 60, 74
31, 179953, Note_on_c, 14, 60, 0
31, 180008, Note_on_c, 14, 60, 76
31, 180200, Note_on_c, 14, 60, 0
31, 180251, Note_on_c, 14, 60, 77
31, 180443, Note_on_c, 14, 60, 0
31, 180502, Note_on_c, 14, 60, 77
31, 180694, Note_on_c, 14, 60, 0
31, 180736, Note_on_c, 14, 60, 65
31, 180928, Note_on_c, 14, 60, 0
31, 180973, Note_on_c, 14, 60, 81
31, 181165, Note_on_c, 14, 60, 0
31, 181216, Note_on_c, 14, 60, 80
31, 181408, Note_on_c, 14, 60, 0
31, 181459, Note_on_c, 14, 60, 84
31, 181651, Note_on_c, 14, 60, 0
31, 181696, Note_on_c, 14, 60, 76
31, 181888, Note_on_c, 14, 60, 0
31, 181939, Note_on_c, 14, 60, 81
31, 182131, Note_on_c, 14, 60, 0
31, 182173, Note_on_c, 14, 60, 84
31, 182365, Note_on_c, 14, 60, 0
31, 182416, Note_on_c, 14, 60, 84
31, 182608, Note_on_c, 14, 60, 0
31, 182661, Note_on_c, 14, 60, 72
31, 182853, Note_on_c, 14, 60, 0
31, 182905, Note_on_c, 14, 60, 79
31, 183097, Note_on_c, 14, 60, 0
31, 183125, Note_on_c, 14, 60, 68
31, 183317, Note_on_c, 14, 60, 0
31, 183370, Note_on_c, 14, 60, 82
31, 183562, Note_on_c, 14, 60, 0
31, 183611, Note_on_c, 14, 60, 84
31, 183803, Note_on_c, 14, 60, 0
31, 183850, Note_on_c, 14, 60, 67
31, 184042, Note_on_c, 14, 60, 0
31, 184105, Note_on_c, 14, 60, 79
31, 184297, Note_on_c, 14, 60, 0
31, 184344, Note_on_c, 14, 60, 67
31, 184536, Note_on_c, 14, 60, 0
31, 184573, Note_on_c, 14, 60, 76
31, 184765, Note_on_c, 14, 60, 0
31, 184822, Note_on_c, 14, 60, 79
31, 185014, Note_on_c, 14, 60, 0
31, 185046, Note_on_c, 14, 60, 75
31, 185238, Note_on_c, 14, 60, 0
31, 185295, Note_on_c, 14, 60, 82
31, 185487, Note_on_c, 14, 60, 0
31, 185526, Note_on_c, 14, 60, 74
31, 185718, Note_on_c, 14, 60, 0
31, 185766, Note_on_c, 14, 60, 65
31, 185958, Note_on_c, 14, 60, 0
31, 186014, Note_on_c, 14, 60, 72
31, 186206, Note_on_c, 14, 60, 0
31, 186245, Note_on_c, 14, 60, 73
31, 186437, Note_on_c, 14, 60, 0
31, 186489, Note_on_c, 14, 60, 65
31, 186681, Note_on_c, 14, 60, 0
31, 186721, Note_on_c, 14, 60, 81
31, 186913, Note_on_c, 14, 60, 0
31, 186971, Note_on_c, 14, 60, 85
31, 187163, Note_on_c, 14, 60, 0
31, 187224, Note_on_c, 14, 60, 66
31, 187416, Note_on_c, 14, 60, 0
31, 187457, Note_on_c, 14, 60, 66
31, 187649, Note_on_c, 14, 60, 0
31, 187692, Note_on_c, 14, 60, 84
31, 187884, Note_on_c, 14, 60, 0
31, 187921, Note_on_c, 14, 60, 70
31, 188113, Note_on_c, 14, 60, 0
31, 188161, Note_on_c, 14, 60, 68
31, 188353, Note_on_c, 14, 60, 0
31, 188424, Note_on_c, 14, 60, 84
31, 188616, Note_on_c, 14, 60, 0
31, 188652, Note_on_c, 14, 60, 65
31, 188844, Note_on_c, 14, 60, 0
31, 188895, Note_on_c, 14, 60, 68
31, 189087, Note_on_c, 14, 60, 0
31, 189121, Note_on_c, 14, 60, 74
31, 189313, Note_on_c, 14, 60, 0
31, 189365, Note_on_c, 14, 60, 71
31, 189557, Note_on_c, 14, 60, 0
31, 189604, Note_on_c, 14, 60, 65
31, 189796, Note_on_c, 14, 60, 0
31, 189849, Note_on_c, 14, 60, 67
31, 190041, Note_on_c, 14, 60, 0
31, 190095, Note_on_c, 14, 60, 77
31, 190287, Note_on_c, 14, 60, 0
31, 190339, Note_on_c, 14, 60, 83
31, 190531, Note_on_c, 14, 60, 0
31, 190578, Note_on_c, 14, 60, 76
31, 190770, Note_on_c, 14, 60, 0
31, 190807, Note_on_c, 14, 60, 75
31, 190999, Note_on_c, 14, 60, 0
31, 191043, Note_on_c, 14, 60, 79
31, 191235, Note_on_c, 14, 60, 0
31, 191304, Note_on_c, 14, 60, 74
31, 191496, Note_on_c, 14, 60, 0
31, 191529, Note_on_c, 14, 60, 69
31, 191721, Note_on_c, 14, 60, 0
31, 191784, Note_on_c, 14, 60, 81
31, 191976, Note_on_c, 14, 60, 0
31, 192017, Note_on_c, 14, 60, 77
31, 192209, Note_on_c, 14, 60, 0
31, 192265, Note_on_c, 14, 60, 77
31, 192457, Note_on_c, 14, 60, 0
31, 192505, Note_on_c, 14, 60, 81
31, 192697, Note_on_c, 14, 60, 0
31, 192743, Note_on_c, 14, 60, 74
31, 192935, Note_on_c, 14, 60, 0
31, 192970, Note_on_c, 14, 60, 85
31, 193162, Note_on_c, 14, 60, 0
31, 193219, Note_on_c, 14, 60, 85
31, 193411, Note_on_c, 14, 60, 0
31, 193465, Note_on_c, 14, 60, 82
31, 193657, Note_on_c, 14, 60, 0
31, 193685, Note_on_c, 14, 60, 73
31, 193877, Note_on_c, 14, 60, 0
31, 193929, Note_on_c, 14, 60, 65
31, 194121, Note_on_c, 14, 60, 0
31, 194183, Note_on_c, 14, 60, 71
31, 194375, Note_on_c, 14, 60, 0
31, 194400, Program_c, 15, 45
31, 194899, Note_on_c, 15, 53, 70
31, 195131, Note_on_c, 15, 60, 85
31, 195139, Note_on_c, 15, 53, 0
31, 195371, Note_on_c, 15, 60, 0
31, 195384, Note_on_c, 15, 53, 81
31, 195624, Note_on_c, 15, 53, 0
31, 196331, Note_on_c, 15, 53, 75
31, 196569, Note_on_c, 15, 60, 67
31, 196571, Note_on_c, 15, 53, 0
31, 196803, Note_on_c, 15, 53, 75
31, 196809, Note_on_c, 15, 60, 0
31, 197043, Note_on_c, 15, 53, 0
31, 197761, Note_on_c, 15, 53, 84
31, 198001, Note_on_c, 15, 53, 0
31, 198023, Note_on_c, 15, 60, 74
31, 198243, Note_on_c, 15, 53, 84
31, 198263, Note_on_c, 15, 60, 0
31, 198483, Note_on_c, 15, 53, 0
31, 199222, Note_on_c, 15, 53, 70
31, 199448, Note_on_c, 15, 60, 82
31, 199462, Note_on_c, 15, 53, 0
31, 199681, Note_on_c, 15, 53, 70
31, 199688, Note_on_c, 15, 60, 0
31, 199921, Note_on_c, 15, 53, 0
31, 200647, Note_on_c, 15, 53, 78
31, 200887, Note_on_c, 15, 53, 0
31, 200902, Note_on_c, 15, 60, 74
31, 201138, Note_on_c, 15, 53, 68
31, 201142, Note_on_c, 15, 60, 0
31, 201378, Note_on_c, 15, 53, 0
31, 202103, Note_on_c, 15, 53, 84
31, 202336, Note_on_c, 15, 60, 83
31, 202343, Note_on_c, 15, 53, 0
31, 202568, Note_on_c, 15, 53, 78
31, 202576, Note_on_c, 15, 60, 0
31, 202808, Note_on_c, 15, 53, 0
31, 203540, Note_on_c, 15, 53, 73
31, 203766, Note_on_c, 15, 60, 65
31, 203780, Note_on_c, 15, 53, 0
31, 204006, Note_on_c, 15, 60, 0
31, 204016, Note_on_c, 15, 53, 82
31, 204256, Note_on_c, 15, 53, 0
31, 204978, Note_on_c, 15, 53, 65
31, 205201, Note_on_c, 15, 60, 67
31, 205218, Note_on_c, 15, 53, 0
31, 205441, Note_on_c, 15, 60, 0
31, 205462, Note_on_c, 15, 53, 78
31, 205702, Note_on_c, 15, 53, 0
31, 206424, Note_on_c, 15, 53, 85
31, 206651, Note_on_c, 15, 60, 82
31, 206664, Note_on_c, 15, 53, 0
31, 206881, Note_on_c, 15, 53, 65
31, 206891, Note_on_c, 15, 60, 0
31, 207121, Note_on_c, 15, 53, 0
31, 207862, Note_on_c, 15, 53, 82
31, 208102, Note_on_c, 15, 53, 0
31, 208104, Note_on_c, 15, 60, 67
31, 208321, Note_on_c, 15, 53, 65
31, 208344, Note_on_c, 15, 60, 0
31, 208561, Note_on_c, 15, 53, 0
31, 209299, Note_on_c, 15, 53, 65
31, 209532, Note_on_c, 15, 60, 83
31, 209539, Note_on_c, 15, 53, 0
31, 209772, Note_on_c, 15, 60, 0
31, 209780, Note_on_c, 15, 53, 69
31, 210020, Note_on_c, 15, 53, 0
31, 210744, Note_on_c, 15, 53, 84
31, 210978, Note_on_c, 15, 60, 70
31, 210984, Note_on_c, 15, 53, 0
31, 211218, Note_on_c, 15, 60, 0
31, 211218, Note_on_c, 15, 53, 71
31, 211458, Note_on_c, 15, 53, 0
31, 211680, Program_c, 14, 42
31, 211683, Note_on_c, 14, 65, 47
31, 211923, Note_on_c, 14, 65, 0
31, 211928, Note_on_c, 14, 64, 45
31, 212167, Note_on_c, 14, 63, 39
31, 212168, Note_on_c, 14, 64, 0
31, 212407, Note_on_c, 14, 63, 0
31, 212418, Note_on_c, 14, 62, 47
31, 212658, Note_on_c, 14, 62, 0
31, 212663, Note_on_c, 14, 64, 47
31, 212887, Note_on_c, 14, 63, 59
31, 212903, Note_on_c, 14, 64, 0
31, 213127, Note_on_c, 14, 63, 0
31, 213128, Note_on_c, 14, 62, 54
31, 213364, Note_on_c, 14, 61, 52
31, 213368, Note_on_c, 14, 62, 0
31, 213604, Note_on_c, 14, 61, 0
31, 213608, Note_on_c, 14, 63, 46
31, 213848, Note_on_c, 14, 63, 0
31, 213848, Note_on_c, 14, 62, 90
31, 214086, Note_on_c, 14, 61, 87
31, 214088, Note_on_c, 14, 62, 0
31, 214326, Note_on_c, 14, 61, 0
31, 214340, Note_on_c, 14, 60, 93
31, 214571, Note_on_c, 14, 67, 97
31, 214580, Note_on_c, 14, 60, 0
31, 214810, Note_on_c, 14, 66, 90
31, 214811, Note_on_c, 14, 67, 0
31, 215046, Note_on_c, 14, 65, 69
31, 215050, Note_on_c, 14, 66, 0
31, 215286, Note_on_c, 14, 65, 0
31, 215286, Note_on_c, 14, 64, 70
31, 215526, Note_on_c, 14, 64, 0
31, 215542, Note_on_c, 14, 63, 89
31, 215773, Note_on_c, 14, 62, 93
31, 215782, Note_on_c, 14, 63, 0
31, 216010, Note_on_c, 14, 61, 87
31, 216013, Note_on_c, 14, 62, 0
31, 216246, Note_on_c, 14, 60, 99
31, 216250, Note_on_c, 14, 61, 0
31, 216486, Note_on_c, 14, 60, 0
31, 216504, Note_on_c, 14, 69, 100
31, 216735, Note_on_c, 14, 68, 89
31, 216744, Note_on_c, 14, 69, 0
31, 216975, Note_on_c, 14, 68, 0
31, 216978, Note_on_c, 14, 67, 66
31, 217216, Note_on_c, 14, 66, 64
31, 217218, Note_on_c, 14, 67, 0
31, 217449, Note_on_c, 14, 67, 103
31, 217456, Note_on_c, 14, 66, 0
31, 217689, Note_on_c, 14, 67, 0
31, 217693, Note_on_c, 14, 66, 70
31, 217925, Note_on_c, 14, 65, 66
31, 217933, Note_on_c, 14, 66, 0
31, 218165, Note_on_c, 14, 65, 0
31, 218183, Note_on_c, 14, 64, 59
31, 218401, Note_on_c, 14, 65, 92
31, 218423, Note_on_c, 14, 64, 0
31, 218641, Note_on_c, 14, 65, 0
31, 218654, Note_on_c, 14, 64, 92
31, 218894, Note_on_c, 14, 64, 0
31, 218903, Note_on_c, 14, 63, 87
31, 219142, Note_on_c, 14, 62, 62
31, 219143, Note_on_c, 14, 63, 0
31, 219382, Note_on_c, 14, 62, 0
31, 221520, Program_c, 14, 45
31, 221544, Note_on_c, 14, 62, 98
31, 221784, Note_on_c, 14, 62, 0
31, 222014, Note_on_c, 14, 62, 98
31, 222254, Note_on_c, 14, 62, 0
31, 225363, Note_on_c, 14, 60, 108
31, 225364, Note_on_c, 14, 62, 95
31, 225603, Note_on_c, 14, 60, 0
31, 225604, Note_on_c, 14, 62, 0
31, 226093, Note_on_c, 14, 62, 114
31, 226098, Note_on_c, 14, 60, 101
31, 226333, Note_on_c, 14, 62, 0
31, 226338, Note_on_c, 14, 60, 0
31, 227280, Program_c, 14, 48
31, 227292, Note_on_c, 14, 53, 89
31, 227772, Note_on_c, 14, 53, 0
31, 227773, Note_on_c, 14, 51, 85
31, 228253, Note_on_c, 14, 51, 0
31, 228254, Note_on_c, 14, 41, 90
31, 228730, Note_on_c, 14, 43, 90
31, 228734, Note_on_c, 14, 41, 0
31, 229210, Note_on_c, 14, 43, 0
31, 229215, Note_on_c, 14, 53, 86
31, 229692, Note_on_c, 14, 51, 105
31, 229695, Note_on_c, 14, 53, 0
31, 230165, Note_on_c, 14, 41, 103
31, 230172, Note_on_c, 14, 51, 0
31, 230645, Note_on_c, 14, 41, 0
31, 230653, Note_on_c, 14, 43, 102
31, 231133, Note_on_c, 14, 43, 0
31, 231144, Note_on_c, 14, 53, 78
31, 231621, Note_on_c, 14, 51, 93
31, 231624, Note_on_c, 14, 53, 0
31, 232097, Note_on_c, 14, 41, 81
31, 232101, Note_on_c, 14, 51, 0
31, 232577, Note_on_c, 14, 41, 0
31, 232584, Note_on_c, 14, 43, 90
31, 233049, Note_on_c, 14, 53, 97
31, 233064, Note_on_c, 14, 43, 0
31, 233529, Note_on_c, 14, 53, 0
31, 233536, Note_on_c, 14, 51, 97
31, 234014, Note_on_c, 14, 41, 96
31, 234016, Note_on_c, 14, 51, 0
31, 234494, Note_on_c, 14, 41, 0
31, 234502, Note_on_c, 14, 43, 90
31, 234961, Note_on_c, 14, 53, 98
31, 234982, Note_on_c, 14, 43, 0
31, 235441, Note_on_c, 14, 53, 0
31, 235441, Note_on_c, 14, 51, 98
31, 235921, Note_on_c, 14, 51, 0
31, 235930, Note_on_c, 14, 41, 90
31, 236408, Note_on_c, 14, 43, 81
31, 236410, Note_on_c, 14, 41, 0
31, 236888, Note_on_c, 14, 43, 0
31, 236899, Note_on_c, 14, 53, 88
31, 237372, Note_on_c, 14, 51, 97
31, 237379, Note_on_c, 14, 53, 0
31, 237852, Note_on_c, 14, 51, 0
31, 237862, Note_on_c, 14, 41, 86
31, 238333, Note_on_c, 14, 43, 95
31, 238342, Note_on_c, 14, 41, 0
31, 238573, Note_on_c, 14, 43, 0
31, 238579, Note_on_c, 14, 67, 125
31, 238687, Note_on_c, 14, 65, 99
31, 238699, Note_on_c, 14, 67, 0
31, 238800, Note_on_c, 14, 63, 102
31, 238807, Note_on_c, 14, 65, 0
31, 238847, Note_on_c, 14, 63, 0
31, 238920, Note_on_c, 14, 62, 107
31, 238967, Note_on_c, 14, 62, 0
31, 239047, Note_on_c, 14, 69, 121
31, 239167, Note_on_c, 14, 69, 0
31, 239177, Note_on_c, 14, 67, 106
31, 239280, Note_on_c, 14, 65, 106
31, 239297, Note_on_c, 14, 67, 0
31, 239327, Note_on_c, 14, 65, 0
31, 239400, Note_on_c, 14, 63, 106
31, 239447, Note_on_c, 14, 63, 0
31, 239542, Note_on_c, 14, 71, 127
31, 239644, Note_on_c, 14, 69, 101
31, 239662, Note_on_c, 14, 71, 0
31, 239760, Note_on_c, 14, 67, 95
31, 239764, Note_on_c, 14, 69, 0
31, 239807, Note_on_c, 14, 67, 0
31, 239880, Note_on_c, 14, 65, 109
31, 239927, Note_on_c, 14, 65, 0
31, 240007, Note_on_c, 14, 69, 116
31, 240127, Note_on_c, 14, 69, 0
31, 240134, Note_on_c, 14, 67, 102
31, 240240, Note_on_c, 14, 65, 97
31, 240254, Note_on_c, 14, 67, 0
31, 240287, Note_on_c, 14, 65, 0
31, 240360, Note_on_c, 14, 63, 102
31, 240407, Note_on_c, 14, 63, 0
31, 240504, Note_on_c, 14, 67, 127
31, 240623, Note_on_c, 14, 65, 100
31, 240624, Note_on_c, 14, 67, 0
31, 240720, Note_on_c, 14, 63, 104
31, 240743, Note_on_c, 14, 65, 0
31, 240767, Note_on_c, 14, 63, 0
31, 240840, Note_on_c, 14, 62, 91
31, 240887, Note_on_c, 14, 62, 0
31, 240976, Note_on_c, 14, 69, 116
31, 241082, Note_on_c, 14, 67, 94
31, 241096, Note_on_c, 14, 69, 0
31, 241200, Note_on_c, 14, 65, 109
31, 241202, Note_on_c, 14, 67, 0
31, 241247, Note_on_c, 14, 65, 0
31, 241320, Note_on_c, 14, 63, 102
31, 241367, Note_on_c, 14, 63, 0
31, 241683, Note_on_c, 14, 63, 105
31, 241684, Note_on_c, 14, 53, 115
31, 241694, Note_on_c, 14, 41, 112
31, 241923, Note_on_c, 14, 63, 0
31, 241924, Note_on_c, 14, 53, 0
31, 241934, Note_on_c, 14, 41, 0
31, 242160, Note_on_c, 14, 63, 115
31, 242172, Note_on_c, 14, 55, 112
31, 242175, Note_on_c, 14, 43, 101
31, 242400, Note_on_c, 14, 63, 0
31, 242400, Note_on_c, 14, 67, 124
31, 242412, Note_on_c, 14, 55, 0
31, 242415, Note_on_c, 14, 43, 0
31, 242424, Note_on_c, 14, 63, 127
31, 242520, Note_on_c, 14, 67, 0
31, 242527, Note_on_c, 14, 62, 100
31, 242531, Note_on_c, 14, 65, 114
31, 242544, Note_on_c, 14, 63, 0
31, 242640, Note_on_c, 14, 60, 101
31, 242640, Note_on_c, 14, 63, 109
31, 242647, Note_on_c, 14, 62, 0
31, 242651, Note_on_c, 14, 65, 0
31, 242687, Note_on_c, 14, 60, 0
31, 242687, Note_on_c, 14, 63, 0
31, 242760, Note_on_c, 14, 59, 112
31, 242760, Note_on_c, 14, 62, 100
31, 242807, Note_on_c, 14, 59, 0
31, 242807, Note_on_c, 14, 62, 0
31, 242894, Note_on_c, 14, 69, 120
31, 242905, Note_on_c, 14, 65, 127
31, 243004, Note_on_c, 14, 63, 107
31, 243005, Note_on_c, 14, 67, 111
31, 243014, Note_on_c, 14, 69, 0
31, 243025, Note_on_c, 14, 65, 0
31, 243120, Note_on_c, 14, 62, 108
31, 243120, Note_on_c, 14, 65, 103
31, 243124, Note_on_c, 14, 63, 0
31, 243125, Note_on_c, 14, 67, 0
31, 243167, Note_on_c, 14, 62, 0
31, 243167, Note_on_c, 14, 65, 0
31, 243240, Note_on_c, 14, 60, 105
31, 243240, Note_on_c, 14, 63, 99
31, 243287, Note_on_c, 14, 60, 0
31, 243287, Note_on_c, 14, 63, 0
31, 243361, Note_on_c, 14, 67, 125
31, 243370, Note_on_c, 14, 71, 127
31, 243480, Note_on_c, 14, 65, 111
31, 243481, Note_on_c, 14, 67, 0
31, 243490, Note_on_c, 14, 71, 0
31, 243491, Note_on_c, 14, 69, 96
31, 243600, Note_on_c, 14, 65, 0
31, 243600, Note_on_c, 14, 63, 111
31, 243600, Note_on_c, 14, 67, 112
31, 243611, Note_on_c, 14, 69, 0
31, 243647, Note_on_c, 14, 63, 0
31, 243647, Note_on_c, 14, 67, 0
31, 243720, Note_on_c, 14, 62, 113
31, 243720, Note_on_c, 14, 65, 99
31, 243767, Note_on_c, 14, 62, 0
31, 243767, Note_on_c, 14, 65, 0
31, 243841, Note_on_c, 14, 65, 127
31, 243857, Note_on_c, 14, 69, 127
31, 243961, Note_on_c, 14, 65, 0
31, 243961, Note_on_c, 14, 67, 97
31, 243965, Note_on_c, 14, 63, 102
31, 243977, Note_on_c, 14, 69, 0
31, 244080, Note_on_c, 14, 62, 99
31, 244080, Note_on_c, 14, 65, 95
31, 244081, Note_on_c, 14, 67, 0
31, 244085, Note_on_c, 14, 63, 0
31, 244127, Note_on_c, 14, 62, 0
31, 244127, Note_on_c, 14, 65, 0
31, 244200, Note_on_c, 14, 60, 104
31, 244200, Note_on_c, 14, 63, 113
31, 244247, Note_on_c, 14, 60, 0
31, 244247, Note_on_c, 14, 63, 0
31, 244330, Note_on_c, 14, 63, 127
31, 244343, Note_on_c, 14, 67, 127
31, 244450, Note_on_c, 14, 63, 0
31, 244460, Note_on_c, 14, 65, 100
31, 244463, Note_on_c, 14, 67, 0
31, 244465, Note_on_c, 14, 62, 110
31, 244560, Note_on_c, 14, 60, 102
31, 244560, Note_on_c, 14, 63, 101
31, 244580, Note_on_c, 14, 65, 0
31, 244585, Note_on_c, 14, 62, 0
31, 244607, Note_on_c, 14, 60, 0
31, 244607, Note_on_c, 14, 63, 0
31, 244680, Note_on_c, 14, 59, 102
31, 244680, Note_on_c, 14, 62, 105
31, 244727, Note_on_c, 14, 59, 0
31, 244727, Note_on_c, 14, 62, 0
31, 244805, Note_on_c, 14, 65, 127
31, 244814, Note_on_c, 14, 69, 121
31, 244925, Note_on_c, 14, 65, 0
31, 244934, Note_on_c, 14, 69, 0
31, 244938, Note_on_c, 14, 67, 104
31, 244940, Note_on_c, 14, 63, 95
31, 245040, Note_on_c, 14, 62, 111
31, 245040, Note_on_c, 14, 65, 96
31, 245058, Note_on_c, 14, 67, 0
31, 245060, Note_on_c, 14, 63, 0
31, 245087, Note_on_c, 14, 62, 0
31, 245087, Note_on_c, 14, 65, 0
31, 245160, Note_on_c, 14, 60, 100
31, 245160, Note_on_c, 14, 63, 95
31, 245207, Note_on_c, 14, 60, 0
31, 245207, Note_on_c, 14, 63, 0
31, 245531, Note_on_c, 14, 41, 97
31, 245536, Note_on_c, 14, 63, 111
31, 245544, Note_on_c, 14, 53, 102
31, 245771, Note_on_c, 14, 41, 0
31, 245776, Note_on_c, 14, 63, 0
31, 245784, Note_on_c, 14, 53, 0
31, 246009, Note_on_c, 14, 55, 105
31, 246011, Note_on_c, 14, 43, 101
31, 246016, Note_on_c, 14, 63, 95
31, 246249, Note_on_c, 14, 55, 0
31, 246250, Note_on_c, 14, 67, 127
31, 246251, Note_on_c, 14, 43, 0
31, 246256, Note_on_c, 14, 63, 0
31, 246259, Note_on_c, 14, 63, 127
31, 246362, Note_on_c, 14, 62, 102
31, 246363, Note_on_c, 14, 65, 100
31, 246370, Note_on_c, 14, 67, 0
31, 246379, Note_on_c, 14, 63, 0
31, 246480, Note_on_c, 14, 60, 95
31, 246480, Note_on_c, 14, 63, 112
31, 246482, Note_on_c, 14, 62, 0
31, 246483, Note_on_c, 14, 65, 0
31, 246527, Note_on_c, 14, 60, 0
31, 246527, Note_on_c, 14, 63, 0
31, 246600, Note_on_c, 14, 59, 114
31, 246600, Note_on_c, 14, 62, 111
31, 246647, Note_on_c, 14, 59, 0
31, 246647, Note_on_c, 14, 62, 0
31, 246723, Note_on_c, 14, 69, 124
31, 246742, Note_on_c, 14, 65, 126
31, 246843, Note_on_c, 14, 69, 0
31, 246860, Note_on_c, 14, 63, 102
31, 246861, Note_on_c, 14, 67, 100
31, 246862, Note_on_c, 14, 65, 0
31, 246960, Note_on_c, 14, 62, 100
31, 246960, Note_on_c, 14, 65, 101
31, 246980, Note_on_c, 14, 63, 0
31, 246981, Note_on_c, 14, 67, 0
31, 247007, Note_on_c, 14, 62, 0
31, 247007, Note_on_c, 14, 65, 0
31, 247080, Note_on_c, 14, 60, 103
31, 247080, Note_on_c, 14, 63, 112
31, 247127, Note_on_c, 14, 60, 0
31, 247127, Note_on_c, 14, 63, 0
31, 247207, Note_on_c, 14, 67, 123
31, 247210, Note_on_c, 14, 63, 127
31, 247321, Note_on_c, 14, 62, 96
31, 247327, Note_on_c, 14, 67, 0
31, 247330, Note_on_c, 14, 63, 0
31, 247334, Note_on_c, 14, 65, 107
31, 247440, Note_on_c, 14, 60, 114
31, 247440, Note_on_c, 14, 63, 114
31, 247441, Note_on_c, 14, 62, 0
31, 247454, Note_on_c, 14, 65, 0
31, 247487, Note_on_c, 14, 60, 0
31, 247487, Note_on_c, 14, 63, 0
31, 247560, Note_on_c, 14, 59, 109
31, 247560, Note_on_c, 14, 62, 99
31, 247607, Note_on_c, 14, 59, 0
31, 247607, Note_on_c, 14, 62, 0
31, 247692, Note_on_c, 14, 65, 120
31, 247701, Note_on_c, 14, 69, 120
31, 247801, Note_on_c, 14, 67, 99
31, 247806, Note_on_c, 14, 63, 96
31, 247812, Note_on_c, 14, 65, 0
31, 247821, Note_on_c, 14, 69, 0
31, 247920, Note_on_c, 14, 62, 114
31, 247920, Note_on_c, 14, 65, 98
31, 247921, Note_on_c, 14, 67, 0
31, 247926, Note_on_c, 14, 63, 0
31, 247967, Note_on_c, 14, 62, 0
31, 247967, Note_on_c, 14, 65, 0
31, 248040, Note_on_c, 14, 60, 115
31, 248040, Note_on_c, 14, 63, 106
31, 248087, Note_on_c, 14, 60, 0
31, 248087, Note_on_c, 14, 63, 0
31, 248160, Note_on_c, 14, 67, 127
31, 248181, Note_on_c, 14, 63, 125
31, 248280, Note_on_c, 14, 67, 0
31, 248283, Note_on_c, 14, 62, 98
31, 248293, Note_on_c, 14, 65, 96
31, 248301, Note_on_c, 14, 63, 0
31, 248400, Note_on_c, 14, 60, 107
31, 248400, Note_on_c, 14, 63, 114
31, 248403, Note_on_c, 14, 62, 0
31, 248413, Note_on_c, 14, 65, 0
31, 248447, Note_on_c, 14, 60, 0
31, 248447, Note_on_c, 14, 63, 0
31, 248520, Note_on_c, 14, 59, 98
31, 248520, Note_on_c, 14, 62, 97
31, 248567, Note_on_c, 14, 59, 0
31, 248567, Note_on_c, 14, 62, 0
31, 248641, Note_on_c, 14, 69, 127
31, 248654, Note_on_c, 14, 65, 117
31, 248760, Note_on_c, 14, 63, 106
31, 248761, Note_on_c, 14, 69, 0
31, 248766, Note_on_c, 14, 67, 109
31, 248774, Note_on_c, 14, 65, 0
31, 248880, Note_on_c, 14, 63, 0
31, 248880, Note_on_c, 14, 62, 111
31, 248880, Note_on_c, 14, 65, 97
31, 248886, Note_on_c, 14, 67, 0
31, 248927, Note_on_c, 14, 62, 0
31, 248927, Note_on_c, 14, 65, 0
31, 249000, Note_on_c, 14, 60, 96
31, 249000, Note_on_c, 14, 63, 100
31, 249047, Note_on_c, 14, 60, 0
31, 249047, Note_on_c, 14, 63, 0
31, 249368, Note_on_c, 14, 41, 100
31, 249370, Note_on_c, 14, 63, 108
31, 249374, Note_on_c, 14, 53, 106
31, 249608, Note_on_c, 14, 41, 0
31, 249610, Note_on_c, 14, 63, 0
31, 249614, Note_on_c, 14, 53, 0
31, 249843, Note_on_c, 14, 43, 104
31, 249859, Note_on_c, 14, 55, 99
31, 249860, Note_on_c, 14, 63, 97
31, 250083, Note_on_c, 14, 43, 0
31, 250087, Note_on_c, 14, 48, 104
31, 250099, Note_on_c, 14, 55, 0
31, 250100, Note_on_c, 14, 63, 0
31, 250104, Note_on_c, 14, 55, 105
31, 250327, Note_on_c, 14, 48, 0
31, 250344, Note_on_c, 14, 55, 0
31, 260880, Program_c, 14, 45
31, 260888, Note_on_c, 14, 44, 93
31, 260897, Note_on_c, 14, 60, 101
31, 260901, Note_on_c, 14, 51, 87
31, 261128, Note_on_c, 14, 44, 0
31, 261137, Note_on_c, 14, 60, 0
31, 261141, Note_on_c, 14, 51, 0
31, 262694, Note_on_c, 14, 48, 85
31, 263054, Note_on_c, 14, 48, 0
31, 263409, Note_on_c, 14, 59, 94
31, 263769, Note_on_c, 14, 59, 0
31, 263783, Note_on_c, 14, 48, 90
31, 264143, Note_on_c, 14, 48, 0
31, 264855, Note_on_c, 14, 59, 95
31, 265215, Note_on_c, 14, 59, 0
31, 265571, Note_on_c, 14, 48, 79
31, 265931, Note_on_c, 14, 48, 0
31, 266296, Note_on_c, 14, 59, 91
31, 266651, Note_on_c, 14, 48, 83
31, 266656, Note_on_c, 14, 59, 0
31, 267011, Note_on_c, 14, 48, 0
31, 269541, Note_on_c, 14, 36, 83
31, 269767, Note_on_c, 14, 40, 93
31, 269781, Note_on_c, 14, 36, 0
31, 270007, Note_on_c, 14, 40, 0
31, 270013, Note_on_c, 14, 43, 81
31, 270240, Note_on_c, 14, 45, 96
31, 270253, Note_on_c, 14, 43, 0
31, 270480, Note_on_c, 14, 45, 0
31, 270963, Note_on_c, 14, 55, 97
31, 271203, Note_on_c, 14, 55, 0
31, 271213, Note_on_c, 14, 60, 95
31, 271453, Note_on_c, 14, 60, 0
31, 271454, Note_on_c, 14, 64, 82
31, 271694, Note_on_c, 14, 64, 0
31, 271696, Note_on_c, 14, 69, 81
31, 271936, Note_on_c, 14, 69, 0
31, 285010, Note_on_c, 14, 48, 83
31, 285370, Note_on_c, 14, 48, 0
31, 285730, Note_on_c, 14, 59, 93
31, 286087, Note_on_c, 14, 48, 87
31, 286090, Note_on_c, 14, 59, 0
31, 286447, Note_on_c, 14, 48, 0
31, 287168, Note_on_c, 14, 59, 86
31, 287528, Note_on_c, 14, 59, 0
31, 287885, Note_on_c, 14, 48, 86
31, 288245, Note_on_c, 14, 48, 0
31, 288623, Note_on_c, 14, 59, 78
31, 288962, Note_on_c, 14, 48, 80
31, 288983, Note_on_c, 14, 59, 0
31, 289202, Note_on_c, 14, 48, 0
31, 289440, Program_c, 14, 44
31, 289451, Note_on_c, 14, 56, 86
31, 289691, Note_on_c, 14, 56, 0
31, 289695, Note_on_c, 14, 60, 81
31, 289933, Note_on_c, 14, 58, 93
31, 289935, Note_on_c, 14, 60, 0
31, 290164, Note_on_c, 14, 62, 97
31, 290173, Note_on_c, 14, 58, 0
31, 290404, Note_on_c, 14, 62, 0
31, 290419, Note_on_c, 14, 60, 98
31, 290659, Note_on_c, 14, 60, 0
31, 290660, Note_on_c, 14, 60, 86
31, 290887, Note_on_c, 14, 60, 91
31, 290900, Note_on_c, 14, 60, 0
31, 291127, Note_on_c, 14, 60, 0
31, 291137, Note_on_c, 14, 60, 90
31, 291361, Note_on_c, 14, 60, 95
31, 291377, Note_on_c, 14, 60, 0
31, 291601, Note_on_c, 14, 60, 0
31, 291605, Note_on_c, 14, 60, 90
31, 291841, Note_on_c, 14, 60, 95
31, 291845, Note_on_c, 14, 60, 0
31, 292081, Note_on_c, 14, 60, 0
31, 292095, Note_on_c, 14, 58, 95
31, 292333, Note_on_c, 14, 62, 98
31, 292335, Note_on_c, 14, 58, 0
31, 292563, Note_on_c, 14, 60, 98
31, 292573, Note_on_c, 14, 62, 0
31, 292801, Note_on_c, 14, 62, 82
31, 292803, Note_on_c, 14, 60, 0
31, 293041, Note_on_c, 14, 62, 0
31, 293058, Note_on_c, 14, 58, 79
31, 293289, Note_on_c, 14, 60, 78
31, 293298, Note_on_c, 14, 58, 0
31, 293524, Note_on_c, 14, 60, 83
31, 293529, Note_on_c, 14, 60, 0
31, 293764, Note_on_c, 14, 60, 0
31, 293774, Note_on_c, 14, 62, 85
31, 294013, Note_on_c, 14, 60, 97
31, 294014, Note_on_c, 14, 62, 0
31, 294108, Note_on_c, 14, 60, 0
31, 294720, Program_c, 14, 45
31, 294738, Note_on_c, 14, 39, 79
31, 294962, Note_on_c, 14, 43, 96
31, 294978, Note_on_c, 14, 39, 0
31, 295202, Note_on_c, 14, 43, 0
31, 295208, Note_on_c, 14, 46, 85
31, 295448, Note_on_c, 14, 46, 0
31, 295460, Note_on_c, 14, 51, 78
31, 295690, Note_on_c, 14, 55, 83
31, 295700, Note_on_c, 14, 51, 0
31, 295930, Note_on_c, 14, 55, 0
31, 295939, Note_on_c, 14, 58, 91
31, 296179, Note_on_c, 14, 58, 0
31, 296887, Note_on_c, 14, 43, 96
31, 297127, Note_on_c, 14, 43, 0
31, 297144, Note_on_c, 14, 46, 97
31, 297382, Note_on_c, 14, 51, 86
31, 297384, Note_on_c, 14, 46, 0
31, 297622, Note_on_c, 14, 51, 0
31, 298326, Note_on_c, 14, 52, 80
31, 298566, Note_on_c, 14, 52, 0
31, 298581, Note_on_c, 14, 57, 84
31, 298808, Note_on_c, 14, 61, 98
31, 298821, Note_on_c, 14, 57, 0
31, 299048, Note_on_c, 14, 61, 0
31, 304080, Program_c, 14, 48
31, 304090, Note_on_c, 14, 67, 92
31, 304185, Note_on_c, 14, 67, 0
31, 304569, Note_on_c, 14, 67, 91
31, 304664, Note_on_c, 14, 67, 0
31, 305542, Note_on_c, 14, 67, 99
31, 305613, Note_on_c, 14, 67, 0
31, 305785, Note_on_c, 14, 69, 107
31, 305856, Note_on_c, 14, 69, 0
31, 306023, Note_on_c, 14, 67, 91
31, 306094, Note_on_c, 14, 67, 0
31, 306248, Note_on_c, 14, 69, 93
31, 306319, Note_on_c, 14, 69, 0
31, 306490, Note_on_c, 14, 63, 110
31, 306561, Note_on_c, 14, 63, 0
31, 306745, Note_on_c, 14, 65, 103
31, 306816, Note_on_c, 14, 65, 0
31, 306968, Note_on_c, 14, 63, 96
31, 307039, Note_on_c, 14, 63, 0
31, 307221, Note_on_c, 14, 64, 92
31, 307292, Note_on_c, 14, 64, 0
31, 307465, Note_on_c, 14, 60, 110
31, 307536, Note_on_c, 14, 60, 0
31, 307695, Note_on_c, 14, 64, 91
31, 307766, Note_on_c, 14, 64, 0
31, 307941, Note_on_c, 14, 62, 106
31, 308012, Note_on_c, 14, 62, 0
31, 308172, Note_on_c, 14, 67, 110
31, 308243, Note_on_c, 14, 67, 0
31, 308402, Note_on_c, 14, 65, 95
31, 308473, Note_on_c, 14, 65, 0
31, 308658, Note_on_c, 14, 70, 97
31, 308729, Note_on_c, 14, 70, 0
31, 311041, Note_on_c, 14, 66, 101
31, 311112, Note_on_c, 14, 66, 0
31, 311294, Note_on_c, 14, 68, 92
31, 311365, Note_on_c, 14, 68, 0
31, 311529, Note_on_c, 14, 66, 106
31, 311600, Note_on_c, 14, 66, 0
31, 311779, Note_on_c, 14, 68, 99
31, 311850, Note_on_c, 14, 68, 0
31, 312002, Note_on_c, 14, 63, 93
31, 312073, Note_on_c, 14, 63, 0
31, 312246, Note_on_c, 14, 65, 109
31, 312317, Note_on_c, 14, 65, 0
31, 312497, Note_on_c, 14, 59, 92
31, 312568, Note_on_c, 14, 59, 0
31, 312728, Note_on_c, 14, 63, 92
31, 312799, Note_on_c, 14, 63, 0
31, 312970, Note_on_c, 14, 59, 99
31, 313041, Note_on_c, 14, 59, 0
31, 313204, Note_on_c, 14, 64, 101
31, 313275, Note_on_c, 14, 64, 0
31, 313458, Note_on_c, 14, 62, 95
31, 313529, Note_on_c, 14, 62, 0
31, 313695, Note_on_c, 14, 68, 93
31, 313766, Note_on_c, 14, 68, 0
31, 320400, Program_c, 14, 44
31, 320412, Note_on_c, 14, 63, 79
31, 320421, Note_on_c, 14, 66, 70
31, 321128, Note_on_c, 14, 60, 82
31, 321132, Note_on_c, 14, 63, 0
31, 321138, Note_on_c, 14, 63, 85
31, 321141, Note_on_c, 14, 66, 0
31, 321848, Note_on_c, 14, 60, 0
31, 321852, Note_on_c, 14, 60, 92
31, 321858, Note_on_c, 14, 63, 0
31, 321860, Note_on_c, 14, 63, 94
31, 322572, Note_on_c, 14, 60, 0
31, 322580, Note_on_c, 14, 63, 0
31, 322582, Note_on_c, 14, 60, 90
31, 322585, Note_on_c, 14, 57, 95
31, 323289, Note_on_c, 14, 60, 87
31, 323293, Note_on_c, 14, 57, 100
31, 323302, Note_on_c, 14, 60, 0
31, 323305, Note_on_c, 14, 57, 0
31, 324004, Note_on_c, 14, 53, 88
31, 324009, Note_on_c, 14, 60, 0
31, 324013, Note_on_c, 14, 57, 0
31, 324024, Note_on_c, 14, 57, 98
31, 324720, Program_c, 14, 48
31, 324724, Note_on_c, 14, 53, 0
31, 324742, Note_on_c, 14, 45, 124
31, 324742, Note_on_c, 14, 57, 116
31, 324744, Note_on_c, 14, 57, 0
31, 325440, Note_on_c, 14, 64, 127
31, 325453, Note_on_c, 14, 52, 117
31, 325462, Note_on_c, 14, 45, 0
31, 325462, Note_on_c, 14, 57, 0
31, 326160, Note_on_c, 14, 64, 0
31, 326161, Note_on_c, 14, 47, 127
31, 326173, Note_on_c, 14, 52, 0
31, 326173, Note_on_c, 14, 59, 119
31, 326641, Note_on_c, 14, 47, 0
31, 326653, Note_on_c, 14, 59, 0
31, 328328, Note_on_c, 14, 44, 122
31, 328331, Note_on_c, 14, 56, 111
31, 328399, Note_on_c, 14, 44, 0
31, 328402, Note_on_c, 14, 56, 0
31, 331208, Note_on_c, 14, 41, 101
31, 331351, Note_on_c, 14, 41, 0
31, 334342, Note_on_c, 14, 41, 96
31, 334485, Note_on_c, 14, 41, 0
31, 339850, Note_on_c, 14, 48, 95
31, 339993, Note_on_c, 14, 48, 0
31, 340320, Program_c, 14, 44
31, 340327, Note_on_c, 14, 56, 59
31, 340567, Note_on_c, 14, 56, 0
31, 340572, Note_on_c, 14, 57, 77
31, 340812, Note_on_c, 14, 57, 0
31, 340824, Note_on_c, 14, 58, 97
31, 341055, Note_on_c, 14, 61, 92
31, 341064, Note_on_c, 14, 58, 0
31, 341288, Note_on_c, 14, 60, 81
31, 341295, Note_on_c, 14, 61, 0
31, 341524, Note_on_c, 14, 58, 60
31, 341528, Note_on_c, 14, 60, 0
31, 341764, Note_on_c, 14, 58, 0
31, 341766, Note_on_c, 14, 56, 57
31, 342006, Note_on_c, 14, 56, 0
31, 342007, Note_on_c, 14, 57, 85
31, 342247, Note_on_c, 14, 57, 0
31, 342262, Note_on_c, 14, 58, 94
31, 342499, Note_on_c, 14, 61, 96
31, 342502, Note_on_c, 14, 58, 0
31, 342724, Note_on_c, 14, 60, 71
31, 342739, Note_on_c, 14, 61, 0
31, 342964, Note_on_c, 14, 60, 0
31, 342980, Note_on_c, 14, 58, 61
31, 343205, Note_on_c, 14, 56, 58
31, 343220, Note_on_c, 14, 58, 0
31, 343445, Note_on_c, 14, 56, 0
31, 343446, Note_on_c, 14, 57, 80
31, 343686, Note_on_c, 14, 57, 0
31, 343692, Note_on_c, 14, 58, 105
31, 343932, Note_on_c, 14, 58, 0
31, 343934, Note_on_c, 14, 61, 89
31, 344163, Note_on_c, 14, 60, 89
31, 344174, Note_on_c, 14, 61, 0
31, 344403, Note_on_c, 14, 60, 0
31, 344424, Note_on_c, 14, 58, 65
31, 344646, Note_on_c, 14, 56, 53
31, 344664, Note_on_c, 14, 58, 0
31, 344886, Note_on_c, 14, 56, 0
31, 344899, Note_on_c, 14, 57, 71
31, 345128, Note_on_c, 14, 58, 100
31, 345139, Note_on_c, 14, 57, 0
31, 345368, Note_on_c, 14, 58, 0
31, 345375, Note_on_c, 14, 61, 99
31, 345603, Note_on_c, 14, 60, 73
31, 345615, Note_on_c, 14, 61, 0
31, 345843, Note_on_c, 14, 60, 0
31, 345855, Note_on_c, 14, 58, 63
31, 346087, Note_on_c, 14, 48, 104
31, 346095, Note_on_c, 14, 58, 0
31, 346230, Note_on_c, 14, 48, 0
31, 346567, Note_on_c, 14, 56, 69
31, 346807, Note_on_c, 14, 56, 0
31, 346823, Note_on_c, 14, 57, 83
31, 347063, Note_on_c, 14, 57, 0
31, 347063, Note_on_c, 14, 58, 101
31, 347302, Note_on_c, 14, 61, 102
31, 347303, Note_on_c, 14, 58, 0
31, 347534, Note_on_c, 14, 60, 74
31, 347542, Note_on_c, 14, 61, 0
31, 347768, Note_on_c, 14, 58, 73
31, 347774, Note_on_c, 14, 60, 0
31, 348007, Note_on_c, 14, 48, 98
31, 348008, Note_on_c, 14, 58, 0
31, 348150, Note_on_c, 14, 48, 0
31, 348978, Note_on_c, 14, 56, 53
31, 349205, Note_on_c, 14, 57, 70
31, 349218, Note_on_c, 14, 56, 0
31, 349445, Note_on_c, 14, 57, 0
31, 349453, Note_on_c, 14, 58, 105
31, 349689, Note_on_c, 14, 61, 88
31, 349693, Note_on_c, 14, 58, 0
31, 349927, Note_on_c, 14, 60, 85
31, 349929, Note_on_c, 14, 61, 0
31, 350167, Note_on_c, 14, 60, 0
31, 350181, Note_on_c, 14, 58, 73
31, 350421, Note_on_c, 14, 58, 0
31, 350424, Note_on_c, 14, 56, 65
31, 350647, Note_on_c, 14, 57, 82
31, 350664, Note_on_c, 14, 56, 0
31, 350887, Note_on_c, 14, 57, 0
31, 350901, Note_on_c, 14, 58, 101
31, 351131, Note_on_c, 14, 61, 101
31, 351141, Note_on_c, 14, 58, 0
31, 351371, Note_on_c, 14, 61, 0
31, 351372, Note_on_c, 14, 60, 73
31, 351612, Note_on_c, 14, 60, 0
31, 351625, Note_on_c, 14, 58, 59
31, 351865, Note_on_c, 14, 58, 0
31, 352340, Note_on_c, 14, 48, 91
31, 352483, Note_on_c, 14, 48, 0
31, 352820, Note_on_c, 14, 56, 54
31, 353047, Note_on_c, 14, 57, 84
31, 353060, Note_on_c, 14, 56, 0
31, 353287, Note_on_c, 14, 57, 0
31, 353305, Note_on_c, 14, 58, 92
31, 353539, Note_on_c, 14, 61, 104
31, 353545, Note_on_c, 14, 58, 0
31, 353772, Note_on_c, 14, 60, 84
31, 353779, Note_on_c, 14, 61, 0
31, 354006, Note_on_c, 14, 58, 72
31, 354012, Note_on_c, 14, 60, 0
31, 354246, Note_on_c, 14, 58, 0
31, 354255, Note_on_c, 14, 64, 102
31, 354363, Note_on_c, 14, 63, 109
31, 354435, Note_on_c, 14, 64, 0
31, 354500, Note_on_c, 14, 64, 103
31, 354543, Note_on_c, 14, 63, 0
31, 354620, Note_on_c, 14, 63, 92
31, 354680, Note_on_c, 14, 64, 0
31, 354745, Note_on_c, 14, 64, 105
31, 354800, Note_on_c, 14, 63, 0
31, 354849, Note_on_c, 14, 63, 106
31, 354925, Note_on_c, 14, 64, 0
31, 354980, Note_on_c, 14, 64, 110
31, 355029, Note_on_c, 14, 63, 0
31, 355088, Note_on_c, 14, 63, 100
31, 355160, Note_on_c, 14, 64, 0
31, 355203, Note_on_c, 14, 64, 92
31, 355268, Note_on_c, 14, 63, 0
31, 355322, Note_on_c, 14, 63, 98
31, 355383, Note_on_c, 14, 64, 0
31, 355454, Note_on_c, 14, 64, 98
31, 355502, Note_on_c, 14, 63, 0
31, 355574, Note_on_c, 14, 63, 110
31, 355634, Note_on_c, 14, 64, 0
31, 355686, Note_on_c, 14, 64, 93
31, 355754, Note_on_c, 14, 63, 0
31, 355809, Note_on_c, 14, 63, 94
31, 355866, Note_on_c, 14, 64, 0
31, 355934, Note_on_c, 14, 64, 91
31, 355989, Note_on_c, 14, 63, 0
31, 356045, Note_on_c, 14, 63, 99
31, 356114, Note_on_c, 14, 64, 0
31, 356175, Note_on_c, 14, 64, 108
31, 356225, Note_on_c, 14, 63, 0
31, 356297, Note_on_c, 14, 63, 91
31, 356355, Note_on_c, 14, 64, 0
31, 356425, Note_on_c, 14, 64, 93
31, 356477, Note_on_c, 14, 63, 0
31, 356535, Note_on_c, 14, 63, 101
31, 356605, Note_on_c, 14, 64, 0
31, 356662, Note_on_c, 14, 64, 99
31, 356715, Note_on_c, 14, 63, 0
31, 356770, Note_on_c, 14, 63, 106
31, 356842, Note_on_c, 14, 64, 0
31, 356886, Note_on_c, 14, 64, 92
31, 356950, Note_on_c, 14, 63, 0
31, 357020, Note_on_c, 14, 63, 107
31, 357066, Note_on_c, 14, 64, 0
31, 357143, Note_on_c, 14, 64, 94
31, 357200, Note_on_c, 14, 63, 0
31, 357258, Note_on_c, 14, 63, 94
31, 357323, Note_on_c, 14, 64, 0
31, 357380, Note_on_c, 14, 64, 94
31, 357438, Note_on_c, 14, 63, 0
31, 357496, Note_on_c, 14, 63, 96
31, 357560, Note_on_c, 14, 64, 0
31, 357612, Note_on_c, 14, 64, 101
31, 357676, Note_on_c, 14, 63, 0
31, 357729, Note_on_c, 14, 63, 97
31, 357792, Note_on_c, 14, 64, 0
31, 357852, Note_on_c, 14, 64, 103
31, 357909, Note_on_c, 14, 63, 0
31, 357975, Note_on_c, 14, 63, 104
31, 358032, Note_on_c, 14, 64, 0
31, 358088, Note_on_c, 14, 64, 103
31, 358155, Note_on_c, 14, 63, 0
31, 358194, Note_on_c, 14, 64, 0
31, 379440, Program_c, 14, 45
31, 379452, Note_on_c, 14, 41, 81
31, 379929, Note_on_c, 14, 42, 76
31, 379932, Note_on_c, 14, 41, 0
31, 380409, Note_on_c, 14, 42, 0
31, 380409, Note_on_c, 14, 44, 74
31, 380649, Note_on_c, 14, 44, 0
31, 381365, Note_on_c, 14, 41, 84
31, 381845, Note_on_c, 14, 41, 0
31, 381865, Note_on_c, 14, 42, 69
31, 382340, Note_on_c, 14, 44, 69
31, 382345, Note_on_c, 14, 42, 0
31, 382580, Note_on_c, 14, 44, 0
31, 383286, Note_on_c, 14, 41, 75
31, 383766, Note_on_c, 14, 41, 0
31, 383779, Note_on_c, 14, 42, 76
31, 384252, Note_on_c, 14, 44, 66
31, 384259, Note_on_c, 14, 42, 0
31, 384492, Note_on_c, 14, 44, 0
31, 387139, Note_on_c, 14, 41, 70
31, 387616, Note_on_c, 14, 42, 73
31, 387619, Note_on_c, 14, 41, 0
31, 388091, Note_on_c, 14, 44, 70
31, 388096, Note_on_c, 14, 42, 0
31, 388331, Note_on_c, 14, 44, 0
31, 389044, Note_on_c, 14, 41, 84
31, 389524, Note_on_c, 14, 41, 0
31, 389545, Note_on_c, 14, 42, 73
31, 390004, Note_on_c, 14, 44, 74
31, 390025, Note_on_c, 14, 42, 0
31, 390244, Note_on_c, 14, 44, 0
31, 394321, Note_on_c, 14, 41, 85
31, 394801, Note_on_c, 14, 41, 0
31, 394804, Note_on_c, 14, 42, 66
31, 395284, Note_on_c, 14, 42, 0
31, 395300, Note_on_c, 14, 44, 75
31, 395540, Note_on_c, 14, 44, 0
31, 396240, Note_on_c, 14, 41, 79
31, 396720, Note_on_c, 14, 41, 0
31, 396745, Note_on_c, 14, 42, 74
31, 397200, Note_on_c, 14, 44, 68
31, 397225, Note_on_c, 14, 42, 0
31, 397440, Note_on_c, 14, 44, 0
31, 398184, Note_on_c, 14, 41, 75
31, 398643, Note_on_c, 14, 42, 67
31, 398664, Note_on_c, 14, 41, 0
31, 399123, Note_on_c, 14, 42, 0
31, 399142, Note_on_c, 14, 44, 85
31, 399382, Note_on_c, 14, 44, 0
31, 400088, Note_on_c, 14, 41, 70
31, 400568, Note_on_c, 14, 41, 0
31, 400569, Note_on_c, 14, 42, 72
31, 401046, Note_on_c, 14, 44, 81
31, 401049, Note_on_c, 14, 42, 0
31, 401286, Note_on_c, 14, 44, 0
31, 402000, Note_on_c, 14, 41, 66
31, 402480, Note_on_c, 14, 41, 0
31, 402486, Note_on_c, 14, 42, 67
31, 402966, Note_on_c, 14, 42, 0
31, 402968, Note_on_c, 14, 44, 74
31, 403208, Note_on_c, 14, 44, 0
31, 403928, Note_on_c, 14, 41, 78
31, 404400, Note_on_c, 14, 42, 65
31, 404408, Note_on_c, 14, 41, 0
31, 404880, Note_on_c, 14, 42, 0
31, 404895, Note_on_c, 14, 44, 71
31, 405135, Note_on_c, 14, 44, 0
31, 405859, Note_on_c, 14, 41, 68
31, 406339, Note_on_c, 14, 41, 0
31, 406342, Note_on_c, 14, 42, 83
31, 406814, Note_on_c, 14, 44, 75
31, 406822, Note_on_c, 14, 42, 0
31, 407054, Note_on_c, 14, 44, 0
31, 407770, Note_on_c, 14, 41, 84
31, 408250, Note_on_c, 14, 41, 0
31, 408254, Note_on_c, 14, 42, 77
31, 408723, Note_on_c, 14, 44, 80
31, 408734, Note_on_c, 14, 42, 0
31, 408963, Note_on_c, 14, 44, 0
31, 409696, Note_on_c, 14, 41, 68
31, 410169, Note_on_c, 14, 42, 73
31, 410176, Note_on_c, 14, 41, 0
31, 410641, Note_on_c, 14, 44, 82
31, 410649, Note_on_c, 14, 42, 0
31, 410881, Note_on_c, 14, 44, 0
31, 411625, Note_on_c, 14, 41, 76
31, 412099, Note_on_c, 14, 42, 69
31, 412105, Note_on_c, 14, 41, 0
31, 412579, Note_on_c, 14, 42, 0
31, 412581, Note_on_c, 14, 44, 80
31, 412821, Note_on_c, 14, 44, 0
31, 413540, Note_on_c, 14, 41, 75
31, 414009, Note_on_c, 14, 42, 75
31, 414020, Note_on_c, 14, 41, 0
31, 414489, Note_on_c, 14, 42, 0
31, 414505, Note_on_c, 14, 44, 69
31, 414978, Note_on_c, 14, 46, 80
31, 414985, Note_on_c, 14, 44, 0
31, 415458, Note_on_c, 14, 46, 0
31, 415464, Note_on_c, 14, 44, 80
31, 415704, Note_on_c, 14, 44, 0
31, 416410, Note_on_c, 14, 41, 85
31, 416888, Note_on_c, 14, 42, 77
31, 416890, Note_on_c, 14, 41, 0
31, 417368, Note_on_c, 14, 42, 0
31, 417383, Note_on_c, 14, 44, 80
31, 417623, Note_on_c, 14, 44, 0
31, 418328, Note_on_c, 14, 41, 67
31, 418808, Note_on_c, 14, 41, 0
31, 418809, Note_on_c, 14, 42, 74
31, 419289, Note_on_c, 14, 42, 0
31, 419291, Note_on_c, 14, 44, 85
31, 419531, Note_on_c, 14, 44, 0
31, 422162, Note_on_c, 14, 41, 65
31, 422642, Note_on_c, 14, 41, 0
31, 422646, Note_on_c, 14, 42, 67
31, 423126, Note_on_c, 14, 42, 0
31, 423127, Note_on_c, 14, 44, 66
31, 423367, Note_on_c, 14, 44, 0
31, 426720, Program_c, 14, 48
31, 426728, Note_on_c, 14, 46, 92
31, 426730, Note_on_c, 14, 39, 94
31, 427208, Note_on_c, 14, 46, 0
31, 427210, Note_on_c, 14, 39, 0
31, 427440, Program_c, 14, 45
31, 427451, Note_on_c, 14, 41, 95
31, 427452, Note_on_c, 14, 48, 106
31, 427931, Note_on_c, 14, 41, 0
31, 427932, Note_on_c, 14, 48, 0
31, 427943, Note_on_c, 14, 42, 93
31, 427944, Note_on_c, 14, 49, 94
31, 428417, Note_on_c, 14, 51, 107
31, 428423, Note_on_c, 14, 42, 0
31, 428424, Note_on_c, 14, 49, 0
31, 428424, Note_on_c, 14, 44, 100
31, 428640, Program_c, 14, 48
31, 428644, Note_on_c, 14, 39, 104
31, 428656, Note_on_c, 14, 46, 110
31, 428657, Note_on_c, 14, 51, 0
31, 428664, Note_on_c, 14, 44, 0
31, 429124, Note_on_c, 14, 39, 0
31, 429136, Note_on_c, 14, 46, 0
31, 429360, Program_c, 14, 45
31, 429369, Note_on_c, 14, 48, 102
31, 429370, Note_on_c, 14, 41, 99
31, 429841, Note_on_c, 14, 42, 108
31, 429849, Note_on_c, 14, 48, 0
31, 429850, Note_on_c, 14, 41, 0
31, 429851, Note_on_c, 14, 49, 92
31, 430321, Note_on_c, 14, 42, 0
31, 430331, Note_on_c, 14, 49, 0
31, 430333, Note_on_c, 14, 51, 106
31, 430345, Note_on_c, 14, 44, 100
31, 430560, Program_c, 14, 48
31, 430572, Note_on_c, 14, 46, 96
31, 430573, Note_on_c, 14, 51, 0
31, 430580, Note_on_c, 14, 39, 93
31, 430585, Note_on_c, 14, 44, 0
31, 431052, Note_on_c, 14, 46, 0
31, 431060, Note_on_c, 14, 39, 0
31, 431280, Program_c, 14, 45
31, 431292, Note_on_c, 14, 41, 97
31, 431301, Note_on_c, 14, 48, 108
31, 431766, Note_on_c, 14, 49, 111
31, 431772, Note_on_c, 14, 41, 0
31, 431777, Note_on_c, 14, 42, 105
31, 431781, Note_on_c, 14, 48, 0
31, 432246, Note_on_c, 14, 49, 0
31, 432247, Note_on_c, 14, 51, 108
31, 432257, Note_on_c, 14, 42, 0
31, 432257, Note_on_c, 14, 44, 103
31, 432487, Note_on_c, 14, 51, 0
31, 432488, Note_on_c, 14, 39, 102
31, 432497, Note_on_c, 14, 44, 0
31, 432501, Note_on_c, 14, 46, 108
31, 432723, Note_on_c, 14, 41, 92
31, 432727, Note_on_c, 14, 48, 104
31, 432728, Note_on_c, 14, 39, 0
31, 432741, Note_on_c, 14, 46, 0
31, 433203, Note_on_c, 14, 41, 0
31, 433207, Note_on_c, 14, 48, 0
31, 433212, Note_on_c, 14, 42, 101
31, 433220, Note_on_c, 14, 49, 97
31, 433687, Note_on_c, 14, 51, 98
31, 433692, Note_on_c, 14, 42, 0
31, 433696, Note_on_c, 14, 44, 94
31, 433700, Note_on_c, 14, 49, 0
31, 434163, Note_on_c, 14, 46, 96
31, 434166, Note_on_c, 14, 53, 93
31, 434167, Note_on_c, 14, 51, 0
31, 434176, Note_on_c, 14, 44, 0
31, 434643, Note_on_c, 14, 46, 0
31, 434646, Note_on_c, 14, 53, 0
31, 434646, Note_on_c, 14, 44, 110
31, 434663, Note_on_c, 14, 51, 101
31, 434880, Program_c, 14, 48
31, 434883, Note_on_c, 14, 46, 95
31, 434886, Note_on_c, 14, 44, 0
31, 434894, Note_on_c, 14, 39, 98
31, 434903, Note_on_c, 14, 51, 0
31, 435363, Note_on_c, 14, 46, 0
31, 435374, Note_on_c, 14, 39, 0
31, 435600, Program_c, 14, 45
31, 435608, Note_on_c, 14, 41, 96
31, 435615, Note_on_c, 14, 48, 105
31, 436087, Note_on_c, 14, 49, 111
31, 436088, Note_on_c, 14, 41, 0
31, 436095, Note_on_c, 14, 48, 0
31, 436102, Note_on_c, 14, 42, 103
31, 436563, Note_on_c, 14, 51, 109
31, 436567, Note_on_c, 14, 49, 0
31, 436576, Note_on_c, 14, 44, 102
31, 436582, Note_on_c, 14, 42, 0
31, 436803, Note_on_c, 14, 51, 0
31, 436816, Note_on_c, 14, 44, 0
31, 437049, Note_on_c, 14, 48, 92
31, 437051, Note_on_c, 14, 41, 109
31, 437529, Note_on_c, 14, 48, 0
31, 437531, Note_on_c, 14, 41, 0
31, 437532, Note_on_c, 14, 42, 109
31, 437532, Note_on_c, 14, 49, 106
31, 438004, Note_on_c, 14, 51, 109
31, 438012, Note_on_c, 14, 42, 0
31, 438012, Note_on_c, 14, 49, 0
31, 438025, Note_on_c, 14, 44, 94
31, 438240, Program_c, 14, 48
31, 438244, Note_on_c, 14, 51, 0
31, 438249, Note_on_c, 14, 46, 122
31, 438253, Note_on_c, 14, 39, 122
31, 438265, Note_on_c, 14, 44, 0
31, 438729, Note_on_c, 14, 46, 0
31, 438733, Note_on_c, 14, 39, 0
31, 438960, Program_c, 14, 45
31, 438983, Note_on_c, 14, 41, 122
31, 438984, Note_on_c, 14, 48, 117
31, 439458, Note_on_c, 14, 42, 110
31, 439458, Note_on_c, 14, 49, 118
31, 439463, Note_on_c, 14, 41, 0
31, 439464, Note_on_c, 14, 48, 0
31, 439927, Note_on_c, 14, 51, 105
31, 439928, Note_on_c, 14, 44, 107
31, 439938, Note_on_c, 14, 42, 0
31, 439938, Note_on_c, 14, 49, 0
31, 440160, Program_c, 14, 48
31, 440167, Note_on_c, 14, 51, 0
31, 440168, Note_on_c, 14, 44, 0
31, 440168, Note_on_c, 14, 39, 112
31, 440176, Note_on_c, 14, 46, 113
31, 440648, Note_on_c, 14, 39, 0
31, 440656, Note_on_c, 14, 46, 0
31, 440880, Program_c, 14, 45
31, 440883, Note_on_c, 14, 41, 122
31, 440884, Note_on_c, 14, 48, 122
31, 441363, Note_on_c, 14, 41, 0
31, 441364, Note_on_c, 14, 48, 0
31, 441367, Note_on_c, 14, 49, 110
31, 441368, Note_on_c, 14, 42, 110
31, 441846, Note_on_c, 14, 51, 108
31, 441847, Note_on_c, 14, 49, 0
31, 441848, Note_on_c, 14, 42, 0
31, 441855, Note_on_c, 14, 44, 122
31, 442086, Note_on_c, 14, 51, 0
31, 442095, Note_on_c, 14, 44, 0
31, 442327, Note_on_c, 14, 41, 124
31, 442330, Note_on_c, 14, 48, 109
31, 442807, Note_on_c, 14, 41, 0
31, 442810, Note_on_c, 14, 48, 0
31, 442820, Note_on_c, 14, 42, 113
31, 442822, Note_on_c, 14, 49, 115
31, 443280, Note_on_c, 14, 44, 118
31, 443300, Note_on_c, 14, 42, 0
31, 443301, Note_on_c, 14, 51, 115
31, 443302, Note_on_c, 14, 49, 0
31, 443520, Note_on_c, 14, 44, 0
31, 443520, Program_c, 14, 48
31, 443528, Note_on_c, 14, 39, 123
31, 443538, Note_on_c, 14, 46, 119
31, 443541, Note_on_c, 14, 51, 0
31, 444008, Note_on_c, 14, 39, 0
31, 444018, Note_on_c, 14, 46, 0
31, 444240, Program_c, 14, 45
31, 444256, Note_on_c, 14, 41, 107
31, 444256, Note_on_c, 14, 48, 111
31, 444723, Note_on_c, 14, 49, 123
31, 444736, Note_on_c, 14, 41, 0
31, 444736, Note_on_c, 14, 48, 0
31, 444736, Note_on_c, 14, 42, 108
31, 445202, Note_on_c, 14, 44, 105
31, 445203, Note_on_c, 14, 49, 0
31, 445214, Note_on_c, 14, 51, 110
31, 445216, Note_on_c, 14, 42, 0
31, 445440, Program_c, 14, 48
31, 445442, Note_on_c, 14, 44, 0
31, 445450, Note_on_c, 14, 44, 107
31, 445454, Note_on_c, 14, 51, 0
31, 445456, Note_on_c, 14, 39, 110
31, 445930, Note_on_c, 14, 44, 0
31, 445930, Note_on_c, 14, 44, 104
31, 445936, Note_on_c, 14, 39, 0
31, 445939, Note_on_c, 14, 49, 112
31, 446403, Note_on_c, 14, 52, 111
31, 446409, Note_on_c, 14, 40, 105
31, 446410, Note_on_c, 14, 44, 0
31, 446416, Note_on_c, 14, 45, 109
31, 446419, Note_on_c, 14, 49, 0
31, 446889, Note_on_c, 14, 40, 0
31, 447363, Note_on_c, 14, 52, 0
31, 447376, Note_on_c, 14, 45, 0
31, 448800, Program_c, 14, 48
31, 448802, Note_on_c, 14, 52, 112
31, 448807, Note_on_c, 14, 61, 103
31, 448945, Note_on_c, 14, 52, 0
31, 448950, Note_on_c, 14, 61, 0
31, 449280, Program_c, 14, 44
31, 449289, Note_on_c, 14, 55, 91
31, 449529, Note_on_c, 14, 55, 0
31, 449537, Note_on_c, 14, 60, 83
31, 449760, Note_on_c, 14, 62, 98
31, 449777, Note_on_c, 14, 60, 0
31, 450000, Note_on_c, 14, 62, 0
31, 450020, Note_on_c, 14, 67, 88
31, 450246, Note_on_c, 14, 65, 85
31, 450260, Note_on_c, 14, 67, 0
31, 450486, Note_on_c, 14, 65, 0
31, 450494, Note_on_c, 14, 60, 93
31, 450720, Program_c, 14, 48
31, 450734, Note_on_c, 14, 60, 0
31, 450736, Note_on_c, 14, 55, 83
31, 450831, Note_on_c, 14, 55, 0
31, 451200, Program_c, 14, 44
31, 451222, Note_on_c, 14, 55, 83
31, 451446, Note_on_c, 14, 60, 88
31, 451462, Note_on_c, 14, 55, 0
31, 451681, Note_on_c, 14, 62, 89
31, 451686, Note_on_c, 14, 60, 0
31, 451921, Note_on_c, 14, 62, 0
31, 451939, Note_on_c, 14, 67, 84
31, 452179, Note_on_c, 14, 67, 0
31, 452179, Note_on_c, 14, 65, 80
31, 452402, Note_on_c, 14, 60, 89
31, 452419, Note_on_c, 14, 65, 0
31, 452640, Program_c, 14, 48
31, 452642, Note_on_c, 14, 60, 0
31, 452653, Note_on_c, 14, 55, 97
31, 452748, Note_on_c, 14, 55, 0
31, 453120, Program_c, 14, 44
31, 453144, Note_on_c, 14, 55, 93
31, 453384, Note_on_c, 14, 55, 0
31, 453384, Note_on_c, 14, 60, 79
31, 453621, Note_on_c, 14, 62, 78
31, 453624, Note_on_c, 14, 60, 0
31, 453860, Note_on_c, 14, 67, 85
31, 453861, Note_on_c, 14, 62, 0
31, 454100, Note_on_c, 14, 67, 0
31, 454104, Note_on_c, 14, 65, 82
31, 454337, Note_on_c, 14, 60, 85
31, 454344, Note_on_c, 14, 65, 0
31, 454560, Program_c, 14, 48
31, 454577, Note_on_c, 14, 60, 0
31, 454579, Note_on_c, 14, 55, 79
31, 454674, Note_on_c, 14, 55, 0
31, 455057, Note_on_c, 14, 61, 109
31, 455060, Note_on_c, 14, 52, 114
31, 455062, Note_on_c, 14, 43, 101
31, 455177, Note_on_c, 14, 61, 0
31, 455180, Note_on_c, 14, 52, 0
31, 455182, Note_on_c, 14, 43, 0
31, 455532, Note_on_c, 14, 43, 108
31, 455535, Note_on_c, 14, 52, 98
31, 455536, Note_on_c, 14, 61, 114
31, 455652, Note_on_c, 14, 43, 0
31, 455655, Note_on_c, 14, 52, 0
31, 455656, Note_on_c, 14, 61, 0
31, 456000, Program_c, 14, 44
31, 456002, Note_on_c, 14, 55, 95
31, 456242, Note_on_c, 14, 55, 0
31, 456247, Note_on_c, 14, 60, 88
31, 456487, Note_on_c, 14, 60, 0
31, 456491, Note_on_c, 14, 62, 98
31, 456724, Note_on_c, 14, 67, 81
31, 456731, Note_on_c, 14, 62, 0
31, 456962, Note_on_c, 14, 65, 78
31, 456964, Note_on_c, 14, 67, 0
31, 457202, Note_on_c, 14, 65, 0
31, 457221, Note_on_c, 14, 60, 86
31, 457440, Program_c, 14, 48
31, 457444, Note_on_c, 14, 55, 86
31, 457461, Note_on_c, 14, 60, 0
31, 457539, Note_on_c, 14, 55, 0
31, 457943, Note_on_c, 14, 52, 105
31, 458063, Note_on_c, 14, 52, 0
31, 458885, Note_on_c, 14, 53, 92
31, 459005, Note_on_c, 14, 53, 0
31, 459844, Note_on_c, 14, 52, 91
31, 459964, Note_on_c, 14, 52, 0
31, 460804, Note_on_c, 14, 53, 104
31, 460924, Note_on_c, 14, 53, 0
31, 461762, Note_on_c, 14, 43, 113
31, 461781, Note_on_c, 14, 52, 109
31, 461781, Note_on_c, 14, 61, 111
31, 461882, Note_on_c, 14, 43, 0
31, 461901, Note_on_c, 14, 52, 0
31, 461901, Note_on_c, 14, 61, 0
31, 462240, Program_c, 14, 44
31, 462241, Note_on_c, 14, 55, 79
31, 462481, Note_on_c, 14, 55, 0
31, 462492, Note_on_c, 14, 60, 89
31, 462732, Note_on_c, 14, 60, 0
31, 462741, Note_on_c, 14, 62, 79
31, 462981, Note_on_c, 14, 62, 0
31, 462981, Note_on_c, 14, 67, 78
31, 463221, Note_on_c, 14, 67, 0
31, 463224, Note_on_c, 14, 65, 79
31, 463440, Note_on_c, 14, 60, 90
31, 463464, Note_on_c, 14, 65, 0
31, 463680, Note_on_c, 14, 60, 0
31, 463680, Program_c, 14, 48
31, 463705, Note_on_c, 14, 55, 94
31, 463800, Note_on_c, 14, 55, 0
31, 464160, Program_c, 14, 44
31, 464166, Note_on_c, 14, 55, 94
31, 464406, Note_on_c, 14, 55, 0
31, 464414, Note_on_c, 14, 60, 78
31, 464654, Note_on_c, 14, 60, 0
31, 464665, Note_on_c, 14, 62, 88
31, 464903, Note_on_c, 14, 67, 93
31, 464905, Note_on_c, 14, 62, 0
31, 465132, Note_on_c, 14, 65, 83
31, 465143, Note_on_c, 14, 67, 0
31, 465369, Note_on_c, 14, 60, 92
31, 465372, Note_on_c, 14, 65, 0
31, 465600, Program_c, 14, 48
31, 465609, Note_on_c, 14, 60, 0
31, 465618, Note_on_c, 14, 55, 88
31, 465713, Note_on_c, 14, 55, 0
31, 466086, Note_on_c, 14, 52, 101
31, 466099, Note_on_c, 14, 61, 115
31, 466104, Note_on_c, 14, 43, 99
31, 466206, Note_on_c, 14, 52, 0
31, 466219, Note_on_c, 14, 61, 0
31, 466224, Note_on_c, 14, 43, 0
31, 466562, Note_on_c, 14, 61, 103
31, 466574, Note_on_c, 14, 43, 103
31, 466582, Note_on_c, 14, 52, 101
31, 466682, Note_on_c, 14, 61, 0
31, 466694, Note_on_c, 14, 43, 0
31, 466702, Note_on_c, 14, 52, 0
31, 467040, Program_c, 14, 44
31, 467046, Note_on_c, 14, 55, 98
31, 467286, Note_on_c, 14, 55, 0
31, 467286, Note_on_c, 14, 60, 83
31, 467526, Note_on_c, 14, 60, 0
31, 467527, Note_on_c, 14, 62, 98
31, 467764, Note_on_c, 14, 67, 78
31, 467767, Note_on_c, 14, 62, 0
31, 468004, Note_on_c, 14, 67, 0
31, 468019, Note_on_c, 14, 65, 98
31, 468259, Note_on_c, 14, 65, 0
31, 468259, Note_on_c, 14, 60, 80
31, 468480, Program_c, 14, 48
31, 468488, Note_on_c, 14, 55, 89
31, 468499, Note_on_c, 14, 60, 0
31, 468583, Note_on_c, 14, 55, 0
31, 468966, Note_on_c, 14, 43, 95
31, 468974, Note_on_c, 14, 52, 111
31, 468983, Note_on_c, 14, 61, 109
31, 469086, Note_on_c, 14, 43, 0
31, 469094, Note_on_c, 14, 52, 0
31, 469103, Note_on_c, 14, 61, 0
31, 489600, Program_c, 14, 45
31, 489603, Note_on_c, 14, 48, 103
31, 489604, Note_on_c, 14, 36, 115
31, 490083, Note_on_c, 14, 48, 0
31, 490084, Note_on_c, 14, 36, 0
31, 493920, Program_c, 14, 48
31, 493925, Note_on_c, 14, 48, 88
31, 493943, Note_on_c, 14, 36, 85
31, 494068, Note_on_c, 14, 48, 0
31, 494086, Note_on_c, 14, 36, 0
31, 494407, Note_on_c, 14, 48, 86
31, 494417, Note_on_c, 14, 36, 90
31, 494478, Note_on_c, 14, 48, 0
31, 494488, Note_on_c, 14, 36, 0
31, 494650, Note_on_c, 14, 48, 91
31, 494661, Note_on_c, 14, 36, 82
31, 494721, Note_on_c, 14, 48, 0
31, 494732, Note_on_c, 14, 36, 0
31, 494885, Note_on_c, 14, 48, 89
31, 494891, Note_on_c, 14, 36, 96
31, 494956, Note_on_c, 14, 48, 0
31, 494962, Note_on_c, 14, 36, 0
31, 495128, Note_on_c, 14, 36, 91
31, 495136, Note_on_c, 14, 48, 82
31, 495199, Note_on_c, 14, 36, 0
31, 495207, Note_on_c, 14, 48, 0
31, 495377, Note_on_c, 14, 48, 85
31, 495383, Note_on_c, 14, 36, 84
31, 495448, Note_on_c, 14, 48, 0
31, 495454, Note_on_c, 14, 36, 0
31, 495605, Note_on_c, 14, 48, 88
31, 495619, Note_on_c, 14, 36, 94
31, 495676, Note_on_c, 14, 48, 0
31, 495690, Note_on_c, 14, 36, 0
31, 495847, Note_on_c, 14, 48, 83
31, 495864, Note_on_c, 14, 36, 82
31, 495918, Note_on_c, 14, 48, 0
31, 495935, Note_on_c, 14, 36, 0
31, 496081, Note_on_c, 14, 48, 79
31, 496090, Note_on_c, 14, 36, 85
31, 496152, Note_on_c, 14, 48, 0
31, 496161, Note_on_c, 14, 36, 0
31, 496326, Note_on_c, 14, 48, 89
31, 496339, Note_on_c, 14, 36, 96
31, 496397, Note_on_c, 14, 48, 0
31, 496410, Note_on_c, 14, 36, 0
31, 496578, Note_on_c, 14, 36, 90
31, 496582, Note_on_c, 14, 48, 78
31, 496649, Note_on_c, 14, 36, 0
31, 496653, Note_on_c, 14, 48, 0
31, 496808, Note_on_c, 14, 36, 92
31, 496812, Note_on_c, 14, 48, 92
31, 496879, Note_on_c, 14, 36, 0
31, 496883, Note_on_c, 14, 48, 0
31, 497048, Note_on_c, 14, 36, 96
31, 497062, Note_on_c, 14, 48, 92
31, 497119, Note_on_c, 14, 36, 0
31, 497133, Note_on_c, 14, 48, 0
31, 498180, Note_on_c, 14, 40, 97
31, 498210, Note_on_c, 14, 40, 0
31, 498210, Note_on_c, 14, 41, 89
31, 498240, Note_on_c, 14, 41, 0
31, 498254, Note_on_c, 14, 42, 109
31, 498494, Note_on_c, 14, 42, 0
31, 499620, Note_on_c, 14, 40, 105
31, 499650, Note_on_c, 14, 40, 0
31, 499650, Note_on_c, 14, 41, 105
31, 499680, Note_on_c, 14, 41, 0
31, 499683, Note_on_c, 14, 42, 109
31, 499923, Note_on_c, 14, 42, 0
31, 500640, Program_c, 14, 48
31, 500645, Note_on_c, 14, 36, 93
31, 500647, Note_on_c, 14, 48, 85
31, 500788, Note_on_c, 14, 36, 0
31, 500790, Note_on_c, 14, 48, 0
31, 501126, Note_on_c, 14, 36, 97
31, 501141, Note_on_c, 14, 48, 84
31, 501197, Note_on_c, 14, 36, 0
31, 501212, Note_on_c, 14, 48, 0
31, 501369, Note_on_c, 14, 36, 96
31, 501384, Note_on_c, 14, 48, 83
31, 501440, Note_on_c, 14, 36, 0
31, 501455, Note_on_c, 14, 48, 0
31, 501600, Note_on_c, 14, 36, 87
31, 501617, Note_on_c, 14, 48, 87
31, 501671, Note_on_c, 14, 36, 0
31, 501688, Note_on_c, 14, 48, 0
31, 501857, Note_on_c, 14, 36, 89
31, 501858, Note_on_c, 14, 48, 95
31, 501928, Note_on_c, 14, 36, 0
31, 501929, Note_on_c, 14, 48, 0
31, 502097, Note_on_c, 14, 36, 92
31, 502102, Note_on_c, 14, 48, 97
31, 502168, Note_on_c, 14, 36, 0
31, 502173, Note_on_c, 14, 48, 0
31, 502335, Note_on_c, 14, 48, 88
31, 502337, Note_on_c, 14, 36, 86
31, 502406, Note_on_c, 14, 48, 0
31, 502408, Note_on_c, 14, 36, 0
31, 502562, Note_on_c, 14, 36, 88
31, 502581, Note_on_c, 14, 48, 88
31, 502633, Note_on_c, 14, 36, 0
31, 502652, Note_on_c, 14, 48, 0
31, 502804, Note_on_c, 14, 36, 78
31, 502813, Note_on_c, 14, 48, 97
31, 502875, Note_on_c, 14, 36, 0
31, 502884, Note_on_c, 14, 48, 0
31, 503060, Note_on_c, 14, 36, 81
31, 503060, Note_on_c, 14, 48, 80
31, 503131, Note_on_c, 14, 36, 0
31, 503131, Note_on_c, 14, 48, 0
31, 503282, Note_on_c, 14, 48, 95
31, 503285, Note_on_c, 14, 36, 90
31, 503353, Note_on_c, 14, 48, 0
31, 503356, Note_on_c, 14, 36, 0
31, 504420, Note_on_c, 14, 40, 84
31, 504450, Note_on_c, 14, 40, 0
31, 504450, Note_on_c, 14, 41, 86
31, 504480, Note_on_c, 14, 41, 0
31, 504505, Note_on_c, 14, 42, 111
31, 504745, Note_on_c, 14, 42, 0
31, 505860, Note_on_c, 14, 40, 106
31, 505890, Note_on_c, 14, 40, 0
31, 505890, Note_on_c, 14, 41, 112
31, 505920, Note_on_c, 14, 41, 0
31, 505939, Note_on_c, 14, 42, 100
31, 506179, Note_on_c, 14, 42, 0
31, 507780, Note_on_c, 14, 40, 100
31, 507810, Note_on_c, 14, 40, 0
31, 507810, Note_on_c, 14, 41, 98
31, 507840, Note_on_c, 14, 41, 0
31, 507857, Note_on_c, 14, 42, 106
31, 508097, Note_on_c, 14, 42, 0
31, 512168, Note_on_c, 14, 37, 92
31, 512174, Note_on_c, 14, 43, 95
31, 512642, Note_on_c, 14, 36, 97
31, 512648, Note_on_c, 14, 37, 0
31, 512654, Note_on_c, 14, 43, 0
31, 512662, Note_on_c, 14, 43, 94
31, 513121, Note_on_c, 14, 37, 90
31, 513122, Note_on_c, 14, 36, 0
31, 513126, Note_on_c, 14, 43, 81
31, 513142, Note_on_c, 14, 43, 0
31, 513601, Note_on_c, 14, 37, 0
31, 513606, Note_on_c, 14, 43, 0
31, 516969, Note_on_c, 14, 43, 97
31, 516983, Note_on_c, 14, 37, 81
31, 517441, Note_on_c, 14, 43, 87
31, 517445, Note_on_c, 14, 36, 82
31, 517449, Note_on_c, 14, 43, 0
31, 517463, Note_on_c, 14, 37, 0
31, 517921, Note_on_c, 14, 43, 0
31, 517925, Note_on_c, 14, 36, 0
31, 517928, Note_on_c, 14, 43, 87
31, 517942, Note_on_c, 14, 37, 79
31, 518406, Note_on_c, 14, 43, 81
31, 518408, Note_on_c, 14, 43, 0
31, 518419, Note_on_c, 14, 36, 95
31, 518422, Note_on_c, 14, 37, 0
31, 518477, Note_on_c, 14, 43, 0
31, 518490, Note_on_c, 14, 36, 0
31, 524652, Note_on_c, 14, 43, 87
31, 524654, Note_on_c, 14, 37, 85
31, 525132, Note_on_c, 14, 43, 0
31, 525134, Note_on_c, 14, 37, 0
31, 525137, Note_on_c, 14, 36, 97
31, 525139, Note_on_c, 14, 43, 89
31, 525604, Note_on_c, 14, 37, 82
31, 525612, Note_on_c, 14, 43, 85
31, 525617, Note_on_c, 14, 36, 0
31, 525619, Note_on_c, 14, 43, 0
31, 526084, Note_on_c, 14, 37, 0
31, 526092, Note_on_c, 14, 43, 0
31, 526098, Note_on_c, 14, 43, 90
31, 526100, Note_on_c, 14, 36, 95
31, 526578, Note_on_c, 14, 43, 0
31, 526580, Note_on_c, 14, 36, 0
31, 527047, Note_on_c, 14, 43, 85
31, 527049, Note_on_c, 14, 36, 86
31, 527527, Note_on_c, 14, 43, 0
31, 527529, Note_on_c, 14, 36, 0
31, 527533, Note_on_c, 14, 37, 95
31, 527537, Note_on_c, 14, 43, 98
31, 528001, Note_on_c, 14, 43, 83
31, 528013, Note_on_c, 14, 37, 0
31, 528017, Note_on_c, 14, 43, 0
31, 528020, Note_on_c, 14, 36, 87
31, 528072, Note_on_c, 14, 43, 0
31, 528091, Note_on_c, 14, 36, 0
31, 540494, Note_on_c, 14, 36, 80
31, 540495, Note_on_c, 14, 48, 86
31, 540637, Note_on_c, 14, 36, 0
31, 540638, Note_on_c, 14, 48, 0
31, 540961, Note_on_c, 14, 48, 98
31, 540966, Note_on_c, 14, 36, 79
31, 541032, Note_on_c, 14, 48, 0
31, 541037, Note_on_c, 14, 36, 0
31, 541217, Note_on_c, 14, 48, 88
31, 541223, Note_on_c, 14, 36, 95
31, 541288, Note_on_c, 14, 48, 0
31, 541294, Note_on_c, 14, 36, 0
31, 541461, Note_on_c, 14, 36, 84
31, 541464, Note_on_c, 14, 48, 97
31, 541532, Note_on_c, 14, 36, 0
31, 541535, Note_on_c, 14, 48, 0
31, 541694, Note_on_c, 14, 36, 95
31, 541697, Note_on_c, 14, 48, 87
31, 541765, Note_on_c, 14, 36, 0
31, 541768, Note_on_c, 14, 48, 0
31, 541940, Note_on_c, 14, 48, 87
31, 541943, Note_on_c, 14, 36, 85
31, 542011, Note_on_c, 14, 48, 0
31, 542014, Note_on_c, 14, 36, 0
31, 542160, Note_on_c, 14, 36, 79
31, 542161, Note_on_c, 14, 48, 96
31, 542231, Note_on_c, 14, 36, 0
31, 542232, Note_on_c, 14, 48, 0
31, 542409, Note_on_c, 14, 48, 81
31, 542419, Note_on_c, 14, 36, 78
31, 542480, Note_on_c, 14, 48, 0
31, 542490, Note_on_c, 14, 36, 0
31, 542644, Note_on_c, 14, 36, 84
31, 542646, Note_on_c, 14, 48, 79
31, 542715, Note_on_c, 14, 36, 0
31, 542717, Note_on_c, 14, 48, 0
31, 542884, Note_on_c, 14, 36, 96
31, 542905, Note_on_c, 14, 48, 94
31, 542955, Note_on_c, 14, 36, 0
31, 542976, Note_on_c, 14, 48, 0
31, 543130, Note_on_c, 14, 36, 91
31, 543139, Note_on_c, 14, 48, 89
31, 543201, Note_on_c, 14, 36, 0
31, 543210, Note_on_c, 14, 48, 0
31, 543366, Note_on_c, 14, 36, 87
31, 543369, Note_on_c, 14, 48, 90
31, 543437, Note_on_c, 14, 36, 0
31, 543440, Note_on_c, 14, 48, 0
31, 543612, Note_on_c, 14, 36, 78
31, 543616, Note_on_c, 14, 48, 79
31, 543683, Note_on_c, 14, 36, 0
31, 543687, Note_on_c, 14, 48, 0
31, 543853, Note_on_c, 14, 36, 95
31, 543862, Note_on_c, 14, 48, 79
31, 543924, Note_on_c, 14, 36, 0
31, 543933, Note_on_c, 14, 48, 0
31, 544094, Note_on_c, 14, 48, 80
31, 544099, Note_on_c, 14, 36, 88
31, 544165, Note_on_c, 14, 48, 0
31, 544170, Note_on_c, 14, 36, 0
31, 544333, Note_on_c, 14, 48, 85
31, 544340, Note_on_c, 14, 36, 86
31, 544404, Note_on_c, 14, 48, 0
31, 544411, Note_on_c, 14, 36, 0
31, 544562, Note_on_c, 14, 48, 93
31, 544567, Note_on_c, 14, 36, 86
31, 544633, Note_on_c, 14, 48, 0
31, 544638, Note_on_c, 14, 36, 0
31, 544808, Note_on_c, 14, 48, 85
31, 544809, Note_on_c, 14, 36, 87
31, 544879, Note_on_c, 14, 48, 0
31, 544880, Note_on_c, 14, 36, 0
31, 545046, Note_on_c, 14, 48, 86
31, 545059, Note_on_c, 14, 36, 81
31, 545117, Note_on_c, 14, 48, 0
31, 545130, Note_on_c, 14, 36, 0
31, 545289, Note_on_c, 14, 48, 98
31, 545298, Note_on_c, 14, 36, 95
31, 545360, Note_on_c, 14, 48, 0
31, 545369, Note_on_c, 14, 36, 0
31, 546480, Program_c, 14, 45
31, 546485, Note_on_c, 14, 54, 48
31, 546725, Note_on_c, 14, 54, 0
31, 546728, Note_on_c, 14, 59, 57
31, 546968, Note_on_c, 14, 59, 0
31, 547465, Note_on_c, 14, 63, 41
31, 547689, Note_on_c, 14, 56, 52
31, 547705, Note_on_c, 14, 63, 0
31, 547929, Note_on_c, 14, 56, 0
31, 548401, Note_on_c, 14, 54, 40
31, 548641, Note_on_c, 14, 54, 0
31, 548646, Note_on_c, 14, 59, 55
31, 548886, Note_on_c, 14, 59, 0
31, 549380, Note_on_c, 14, 63, 58
31, 549613, Note_on_c, 14, 56, 51
31, 549620, Note_on_c, 14, 63, 0
31, 549853, Note_on_c, 14, 56, 0
31, 550323, Note_on_c, 14, 54, 56
31, 550563, Note_on_c, 14, 54, 0
31, 550584, Note_on_c, 14, 59, 43
31, 550824, Note_on_c, 14, 59, 0
31, 551280, Note_on_c, 14, 63, 57
31, 551520, Note_on_c, 14, 63, 0
31, 551529, Note_on_c, 14, 56, 45
31, 551769, Note_on_c, 14, 56, 0
31, 552243, Note_on_c, 14, 54, 39
31, 552483, Note_on_c, 14, 54, 0
31, 553465, Note_on_c, 14, 47, 51
31, 553701, Note_on_c, 14, 59, 48
31, 553705, Note_on_c, 14, 47, 0
31, 553941, Note_on_c, 14, 59, 0
31, 554412, Note_on_c, 14, 56, 44
31, 554647, Note_on_c, 14, 44, 42
31, 554652, Note_on_c, 14, 56, 0
31, 554887, Note_on_c, 14, 44, 0
31, 555361, Note_on_c, 14, 47, 54
31, 555601, Note_on_c, 14, 47, 0
31, 555620, Note_on_c, 14, 59, 51
31, 555860, Note_on_c, 14, 59, 0
31, 556336, Note_on_c, 14, 56, 56
31, 556576, Note_on_c, 14, 56, 0
31, 556582, Note_on_c, 14, 44, 49
31, 556822, Note_on_c, 14, 44, 0
31, 558017, Note_on_c, 14, 47, 42
31, 558251, Note_on_c, 14, 52, 43
31, 558257, Note_on_c, 14, 47, 0
31, 558491, Note_on_c, 14, 52, 0
31, 558980, Note_on_c, 14, 56, 45
31, 559220, Note_on_c, 14, 56, 0
31, 559225, Note_on_c, 14, 49, 49
31, 559465, Note_on_c, 14, 49, 0
31, 559921, Note_on_c, 14, 47, 52
31, 560161, Note_on_c, 14, 47, 0
31, 560182, Note_on_c, 14, 52, 58
31, 560422, Note_on_c, 14, 52, 0
31, 560882, Note_on_c, 14, 56, 40
31, 561122, Note_on_c, 14, 56, 0
31, 561128, Note_on_c, 14, 49, 46
31, 561360, Note_on_c, 14, 37, 52
31, 561368, Note_on_c, 14, 49, 0
31, 561600, Note_on_c, 14, 37, 0
31, 561600, Program_c, 14, 48
31, 561600, Note_on_c, 14, 58, 103
31, 561604, Note_on_c, 14, 51, 101
31, 561618, Note_on_c, 14, 43, 95
31, 561840, Note_on_c, 14, 58, 0
31, 561844, Note_on_c, 14, 51, 0
31, 561858, Note_on_c, 14, 43, 0
31, 561990, Note_on_c, 14, 46, 89
31, 562020, Note_on_c, 14, 46, 0
31, 562020, Note_on_c, 14, 48, 96
31, 562050, Note_on_c, 14, 48, 0
31, 562050, Note_on_c, 14, 50, 85
31, 562080, Note_on_c, 14, 50, 0
31, 562100, Note_on_c, 14, 51, 86
31, 562220, Note_on_c, 14, 51, 0
31, 562470, Note_on_c, 14, 46, 88
31, 562500, Note_on_c, 14, 46, 0
31, 562500, Note_on_c, 14, 48, 86
31, 562530, Note_on_c, 14, 48, 0
31, 562530, Note_on_c, 14, 50, 85
31, 562560, Note_on_c, 14, 50, 0
31, 562581, Note_on_c, 14, 51, 101
31, 562701, Note_on_c, 14, 51, 0
31, 562950, Note_on_c, 14, 46, 87
31, 562980, Note_on_c, 14, 46, 0
31, 562980, Note_on_c, 14, 48, 93
31, 563010, Note_on_c, 14, 48, 0
31, 563010, Note_on_c, 14, 50, 104
31, 563040, Note_on_c, 14, 50, 0
31, 563060, Note_on_c, 14, 51, 95
31, 563180, Note_on_c, 14, 51, 0
31, 563430, Note_on_c, 14, 46, 103
31, 563460, Note_on_c, 14, 46, 0
31, 563460, Note_on_c, 14, 48, 104
31, 563490, Note_on_c, 14, 48, 0
31, 563490, Note_on_c, 14, 50, 90
31, 563520, Note_on_c, 14, 50, 0
31, 563541, Note_on_c, 14, 51, 98
31, 563661, Note_on_c, 14, 51, 0
31, 565350, Note_on_c, 14, 51, 105
31, 565380, Note_on_c, 14, 51, 0
31, 565380, Note_on_c, 14, 53, 90
31, 565410, Note_on_c, 14, 53, 0
31, 565410, Note_on_c, 14, 54, 105
31, 565440, Note_on_c, 14, 54, 0
31, 565445, Note_on_c, 14, 55, 96
31, 565565, Note_on_c, 14, 55, 0
31, 604323, Note_on_c, 14, 67, 78
31, 605043, Note_on_c, 14, 67, 0
31, 605056, Note_on_c, 14, 65, 82
31, 605296, Note_on_c, 14, 65, 0
31, 605296, Note_on_c, 14, 64, 82
31, 605536, Note_on_c, 14, 64, 0
31, 605542, Note_on_c, 14, 62, 90
31, 605761, Note_on_c, 14, 64, 84
31, 605782, Note_on_c, 14, 62, 0
31, 606001, Note_on_c, 14, 64, 0
31, 606009, Note_on_c, 14, 65, 91
31, 606249, Note_on_c, 14, 65, 0
31, 606258, Note_on_c, 14, 67, 92
31, 606738, Note_on_c, 14, 67, 0
31, 606741, Note_on_c, 14, 65, 97
31, 606978, Note_on_c, 14, 64, 95
31, 606981, Note_on_c, 14, 65, 0
31, 607218, Note_on_c, 14, 64, 0
31, 607222, Note_on_c, 14, 62, 79
31, 607699, Note_on_c, 14, 64, 79
31, 607702, Note_on_c, 14, 62, 0
31, 607923, Note_on_c, 14, 65, 97
31, 607939, Note_on_c, 14, 64, 0
31, 608160, Note_on_c, 14, 67, 90
31, 608163, Note_on_c, 14, 65, 0
31, 608880, Note_on_c, 14, 67, 0
31, 608893, Note_on_c, 14, 65, 91
31, 609133, Note_on_c, 14, 65, 0
31, 609133, Note_on_c, 14, 64, 92
31, 609371, Note_on_c, 14, 62, 93
31, 609373, Note_on_c, 14, 64, 0
31, 609611, Note_on_c, 14, 62, 0
31, 609618, Note_on_c, 14, 64, 94
31, 609840, Note_on_c, 14, 65, 96
31, 609858, Note_on_c, 14, 64, 0
31, 610080, Note_on_c, 14, 65, 0
31, 610095, Note_on_c, 14, 67, 94
31, 610812, Note_on_c, 14, 65, 92
31, 610815, Note_on_c, 14, 67, 0
31, 611052, Note_on_c, 14, 65, 0
31, 611061, Note_on_c, 14, 64, 82
31, 611292, Note_on_c, 14, 62, 96
31, 611301, Note_on_c, 14, 64, 0
31, 611527, Note_on_c, 14, 64, 79
31, 611532, Note_on_c, 14, 62, 0
31, 611767, Note_on_c, 14, 64, 0
31, 611780, Note_on_c, 14, 65, 96
31, 612000, Note_on_c, 14, 67, 82
31, 612020, Note_on_c, 14, 65, 0
31, 612480, Note_on_c, 14, 67, 0
31, 612494, Note_on_c, 14, 65, 89
31, 612732, Note_on_c, 14, 64, 86
31, 612734, Note_on_c, 14, 65, 0
31, 612972, Note_on_c, 14, 64, 0
31, 612979, Note_on_c, 14, 62, 93
31, 613459, Note_on_c, 14, 62, 0
31, 613462, Note_on_c, 14, 64, 96
31, 613699, Note_on_c, 14, 65, 88
31, 613702, Note_on_c, 14, 64, 0
31, 613935, Note_on_c, 14, 67, 80
31, 613939, Note_on_c, 14, 65, 0
31, 614175, Note_on_c, 14, 67, 0
31, 631200, Program_c, 14, 42
31, 631221, Note_on_c, 14, 44, 79
31, 631316, Note_on_c, 14, 44, 0
31, 631444, Note_on_c, 14, 44, 73
31, 631539, Note_on_c, 14, 44, 0
31, 631682, Note_on_c, 14, 46, 82
31, 631777, Note_on_c, 14, 46, 0
31, 631944, Note_on_c, 14, 44, 81
31, 632039, Note_on_c, 14, 44, 0
31, 632169, Note_on_c, 14, 43, 71
31, 632264, Note_on_c, 14, 43, 0
31, 632403, Note_on_c, 14, 43, 66
31, 632498, Note_on_c, 14, 43, 0
31, 632663, Note_on_c, 14, 45, 72
31, 632758, Note_on_c, 14, 45, 0
31, 632887, Note_on_c, 14, 44, 70
31, 632982, Note_on_c, 14, 44, 0
31, 633121, Note_on_c, 14, 43, 77
31, 633216, Note_on_c, 14, 43, 0
31, 633363, Note_on_c, 14, 43, 84
31, 633458, Note_on_c, 14, 43, 0
31, 633600, Note_on_c, 14, 43, 70
31, 633695, Note_on_c, 14, 43, 0
31, 633858, Note_on_c, 14, 41, 84
31, 633953, Note_on_c, 14, 41, 0
31, 634101, Note_on_c, 14, 46, 69
31, 634196, Note_on_c, 14, 46, 0
31, 634325, Note_on_c, 14, 46, 65
31, 634420, Note_on_c, 14, 46, 0
31, 634563, Note_on_c, 14, 46, 72
31, 634658, Note_on_c, 14, 46, 0
31, 634805, Note_on_c, 14, 45, 69
31, 634900, Note_on_c, 14, 45, 0
31, 635063, Note_on_c, 14, 44, 68
31, 635158, Note_on_c, 14, 44, 0
31, 635287, Note_on_c, 14, 44, 78
31, 635382, Note_on_c, 14, 44, 0
31, 635538, Note_on_c, 14, 46, 71
31, 635633, Note_on_c, 14, 46, 0
31, 635770, Note_on_c, 14, 44, 66
31, 635865, Note_on_c, 14, 44, 0
31, 636017, Note_on_c, 14, 43, 80
31, 636112, Note_on_c, 14, 43, 0
31, 636246, Note_on_c, 14, 43, 83
31, 636341, Note_on_c, 14, 43, 0
31, 636484, Note_on_c, 14, 45, 73
31, 636579, Note_on_c, 14, 45, 0
31, 636723, Note_on_c, 14, 44, 71
31, 636818, Note_on_c, 14, 44, 0
31, 636967, Note_on_c, 14, 43, 81
31, 637062, Note_on_c, 14, 43, 0
31, 637210, Note_on_c, 14, 43, 79
31, 637305, Note_on_c, 14, 43, 0
31, 637449, Note_on_c, 14, 43, 75
31, 637544, Note_on_c, 14, 43, 0
31, 637697, Note_on_c, 14, 41, 69
31, 637792, Note_on_c, 14, 41, 0
31, 637920, Note_on_c, 14, 46, 70
31, 638015, Note_on_c, 14, 46, 0
31, 638184, Note_on_c, 14, 46, 79
31, 638279, Note_on_c, 14, 46, 0
31, 638424, Note_on_c, 14, 46, 84
31, 638519, Note_on_c, 14, 46, 0
31, 638659, Note_on_c, 14, 45, 80
31, 638754, Note_on_c, 14, 45, 0
31, 638880, Program_c, 14, 48
31, 638891, Note_on_c, 14, 40, 73
31, 639131, Note_on_c, 14, 40, 0
31, 639132, Note_on_c, 14, 38, 74
31, 639143, Note_on_c, 14, 44, 71
31, 639372, Note_on_c, 14, 38, 0
31, 639383, Note_on_c, 14, 44, 0
31, 639384, Note_on_c, 14, 46, 75
31, 639600, Note_on_c, 14, 44, 77
31, 639622, Note_on_c, 14, 38, 68
31, 639624, Note_on_c, 14, 46, 0
31, 639840, Note_on_c, 14, 44, 0
31, 639862, Note_on_c, 14, 38, 0
31, 639864, Note_on_c, 14, 40, 77
31, 640092, Note_on_c, 14, 38, 74
31, 640100, Note_on_c, 14, 44, 80
31, 640104, Note_on_c, 14, 40, 0
31, 640323, Note_on_c, 14, 46, 65
31, 640332, Note_on_c, 14, 38, 0
31, 640340, Note_on_c, 14, 44, 0
31, 640561, Note_on_c, 14, 38, 69
31, 640563, Note_on_c, 14, 46, 0
31, 640583, Note_on_c, 14, 44, 65
31, 640801, Note_on_c, 14, 38, 0
31, 640815, Note_on_c, 14, 43, 75
31, 640823, Note_on_c, 14, 44, 0
31, 641041, Note_on_c, 14, 41, 81
31, 641055, Note_on_c, 14, 43, 0
31, 641063, Note_on_c, 14, 47, 66
31, 641281, Note_on_c, 14, 41, 0
31, 641290, Note_on_c, 14, 49, 80
31, 641303, Note_on_c, 14, 47, 0
31, 641530, Note_on_c, 14, 49, 0
31, 641537, Note_on_c, 14, 47, 80
31, 641538, Note_on_c, 14, 41, 75
31, 641777, Note_on_c, 14, 47, 0
31, 641777, Note_on_c, 14, 44, 85
31, 641778, Note_on_c, 14, 41, 0
31, 642004, Note_on_c, 14, 47, 65
31, 642017, Note_on_c, 14, 44, 0
31, 642024, Note_on_c, 14, 43, 78
31, 642244, Note_on_c, 14, 47, 0
31, 642255, Note_on_c, 14, 49, 78
31, 642264, Note_on_c, 14, 43, 0
31, 642484, Note_on_c, 14, 47, 67
31, 642490, Note_on_c, 14, 43, 65
31, 642495, Note_on_c, 14, 49, 0
31, 642722, Note_on_c, 14, 39, 76
31, 642724, Note_on_c, 14, 47, 0
31, 642730, Note_on_c, 14, 43, 0
31, 642962, Note_on_c, 14, 39, 0
31, 642964, Note_on_c, 14, 43, 83
31, 642965, Note_on_c, 14, 37, 82
31, 643204, Note_on_c, 14, 43, 0
31, 643205, Note_on_c, 14, 37, 0
31, 643217, Note_on_c, 14, 45, 83
31, 643456, Note_on_c, 14, 43, 84
31, 643457, Note_on_c, 14, 45, 0
31, 643460, Note_on_c, 14, 37, 83
31, 643687, Note_on_c, 14, 40, 74
31, 643696, Note_on_c, 14, 43, 0
31, 643700, Note_on_c, 14, 37, 0
31, 643927, Note_on_c, 14, 40, 0
31, 643928, Note_on_c, 14, 39, 71
31, 643943, Note_on_c, 14, 45, 65
31, 644168, Note_on_c, 14, 39, 0
31, 644176, Note_on_c, 14, 46, 77
31, 644183, Note_on_c, 14, 45, 0
31, 644404, Note_on_c, 14, 39, 67
31, 644411, Note_on_c, 14, 45, 78
31, 644416, Note_on_c, 14, 46, 0
31, 644644, Note_on_c, 14, 39, 0
31, 644651, Note_on_c, 14, 45, 0
31, 644654, Note_on_c, 14, 43, 70
31, 644887, Note_on_c, 14, 41, 75
31, 644891, Note_on_c, 14, 47, 74
31, 644894, Note_on_c, 14, 43, 0
31, 645127, Note_on_c, 14, 41, 0
31, 645131, Note_on_c, 14, 47, 0
31, 645143, Note_on_c, 14, 49, 70
31, 645366, Note_on_c, 14, 47, 77
31, 645374, Note_on_c, 14, 41, 66
31, 645383, Note_on_c, 14, 49, 0
31, 645606, Note_on_c, 14, 47, 0
31, 645606, Note_on_c, 14, 43, 85
31, 645614, Note_on_c, 14, 41, 0
31, 645841, Note_on_c, 14, 41, 81
31, 645846, Note_on_c, 14, 43, 0
31, 645864, Note_on_c, 14, 47, 68
31, 646081, Note_on_c, 14, 41, 0
31, 646093, Note_on_c, 14, 49, 80
31, 646104, Note_on_c, 14, 47, 0
31, 646322, Note_on_c, 14, 41, 79
31, 646329, Note_on_c, 14, 47, 81
31, 646333, Note_on_c, 14, 49, 0
31, 646562, Note_on_c, 14, 41, 0
31, 646569, Note_on_c, 14, 47, 0
31, 646583, Note_on_c, 14, 40, 82
31, 646817, Note_on_c, 14, 44, 77
31, 646823, Note_on_c, 14, 40, 0
31, 646823, Note_on_c, 14, 38, 83
31, 647040, Note_on_c, 14, 46, 67
31, 647057, Note_on_c, 14, 44, 0
31, 647063, Note_on_c, 14, 38, 0
31, 647280, Note_on_c, 14, 46, 0
31, 647282, Note_on_c, 14, 44, 85
31, 647299, Note_on_c, 14, 38, 78
31, 647522, Note_on_c, 14, 44, 0
31, 647523, Note_on_c, 14, 40, 79
31, 647539, Note_on_c, 14, 38, 0
31, 647763, Note_on_c, 14, 40, 0
31, 647777, Note_on_c, 14, 44, 67
31, 647778, Note_on_c, 14, 38, 84
31, 648003, Note_on_c, 14, 46, 75
31, 648017, Note_on_c, 14, 44, 0
31, 648018, Note_on_c, 14, 38, 0
31, 648243, Note_on_c, 14, 46, 0
31, 648257, Note_on_c, 14, 44, 69
31, 648260, Note_on_c, 14, 38, 72
31, 648497, Note_on_c, 14, 44, 0
31, 648500, Note_on_c, 14, 38, 0
31, 648501, Note_on_c, 14, 43, 66
31, 648721, Note_on_c, 14, 47, 83
31, 648722, Note_on_c, 14, 41, 81
31, 648741, Note_on_c, 14, 43, 0
31, 648961, Note_on_c, 14, 47, 0
31, 648962, Note_on_c, 14, 41, 0
31, 648973, Note_on_c, 14, 49, 78
31, 649213, Note_on_c, 14, 49, 0
31, 649213, Note_on_c, 14, 41, 69
31, 649214, Note_on_c, 14, 47, 67
31, 649449, Note_on_c, 14, 44, 85
31, 649453, Note_on_c, 14, 41, 0
31, 649454, Note_on_c, 14, 47, 0
31, 649689, Note_on_c, 14, 44, 0
31, 649691, Note_on_c, 14, 47, 71
31, 649700, Note_on_c, 14, 43, 76
31, 649931, Note_on_c, 14, 47, 0
31, 649933, Note_on_c, 14, 49, 81
31, 649940, Note_on_c, 14, 43, 0
31, 650163, Note_on_c, 14, 43, 73
31, 650165, Note_on_c, 14, 47, 76
31, 650173, Note_on_c, 14, 49, 0
31, 650403, Note_on_c, 14, 43, 0
31, 650403, Note_on_c, 14, 39, 69
31, 650405, Note_on_c, 14, 47, 0
31, 650643, Note_on_c, 14, 39, 0
31, 650646, Note_on_c, 14, 43, 68
31, 650656, Note_on_c, 14, 37, 71
31, 650886, Note_on_c, 14, 43, 0
31, 650896, Note_on_c, 14, 37, 0
31, 650903, Note_on_c, 14, 45, 81
31, 651143, Note_on_c, 14, 45, 0
31, 651144, Note_on_c, 14, 37, 70
31, 651145, Note_on_c, 14, 43, 74
31, 651374, Note_on_c, 14, 40, 69
31, 651384, Note_on_c, 14, 37, 0
31, 651385, Note_on_c, 14, 43, 0
31, 651602, Note_on_c, 14, 45, 81
31, 651610, Note_on_c, 14, 39, 85
31, 651614, Note_on_c, 14, 40, 0
31, 651840, Note_on_c, 14, 46, 68
31, 651842, Note_on_c, 14, 45, 0
31, 651850, Note_on_c, 14, 39, 0
31, 652080, Note_on_c, 14, 46, 0
31, 652089, Note_on_c, 14, 45, 67
31, 652090, Note_on_c, 14, 39, 75
31, 652322, Note_on_c, 14, 43, 75
31, 652329, Note_on_c, 14, 45, 0
31, 652330, Note_on_c, 14, 39, 0
31, 652562, Note_on_c, 14, 43, 0
31, 652565, Note_on_c, 14, 47, 81
31, 652583, Note_on_c, 14, 41, 72
31, 652805, Note_on_c, 14, 47, 0
31, 652808, Note_on_c, 14, 49, 68
31, 652823, Note_on_c, 14, 41, 0
31, 653045, Note_on_c, 14, 47, 76
31, 653047, Note_on_c, 14, 41, 73
31, 653048, Note_on_c, 14, 49, 0
31, 653285, Note_on_c, 14, 47, 0
31, 653286, Note_on_c, 14, 43, 65
31, 653287, Note_on_c, 14, 41, 0
31, 653526, Note_on_c, 14, 43, 0
31, 653536, Note_on_c, 14, 47, 83
31, 653543, Note_on_c, 14, 41, 73
31, 653776, Note_on_c, 14, 47, 0
31, 653783, Note_on_c, 14, 41, 0
31, 653784, Note_on_c, 14, 49, 68
31, 654001, Note_on_c, 14, 47, 76
31, 654019, Note_on_c, 14, 41, 83
31, 654024, Note_on_c, 14, 49, 0
31, 654241, Note_on_c, 14, 47, 0
31, 654258, Note_on_c, 14, 38, 98
31, 654259, Note_on_c, 14, 41, 0
31, 654498, Note_on_c, 14, 38, 0
31, 654504, Note_on_c, 14, 41, 101
31, 654739, Note_on_c, 14, 42, 92
31, 654744, Note_on_c, 14, 41, 0
31, 654979, Note_on_c, 14, 42, 0
31, 654980, Note_on_c, 14, 45, 98
31, 655220, Note_on_c, 14, 45, 0
31, 655220, Note_on_c, 14, 46, 92
31, 655447, Note_on_c, 14, 49, 101
31, 655460, Note_on_c, 14, 46, 0
31, 655687, Note_on_c, 14, 49, 0
31, 655690, Note_on_c, 14, 50, 94
31, 655930, Note_on_c, 14, 50, 0
31, 655938, Note_on_c, 14, 53, 102
31, 656175, Note_on_c, 14, 43, 98
31, 656178, Note_on_c, 14, 53, 0
31, 656405, Note_on_c, 14, 47, 107
31, 656415, Note_on_c, 14, 43, 0
31, 656645, Note_on_c, 14, 47, 0
31, 656653, Note_on_c, 14, 44, 96
31, 656893, Note_on_c, 14, 44, 0
31, 656896, Note_on_c, 14, 48, 93
31, 657127, Note_on_c, 14, 45, 102
31, 657136, Note_on_c, 14, 48, 0
31, 657367, Note_on_c, 14, 45, 0
31, 657377, Note_on_c, 14, 49, 97
31, 657612, Note_on_c, 14, 47, 104
31, 657617, Note_on_c, 14, 49, 0
31, 657852, Note_on_c, 14, 47, 0
31, 657865, Note_on_c, 14, 51, 94
31, 658099, Note_on_c, 14, 41, 98
31, 658105, Note_on_c, 14, 51, 0
31, 658333, Note_on_c, 14, 44, 92
31, 658339, Note_on_c, 14, 41, 0
31, 658573, Note_on_c, 14, 44, 0
31, 658583, Note_on_c, 14, 45, 110
31, 658800, Note_on_c, 14, 48, 106
31, 658823, Note_on_c, 14, 45, 0
31, 659040, Note_on_c, 14, 48, 0
31, 659040, Note_on_c, 14, 49, 94
31, 659280, Note_on_c, 14, 49, 0
31, 659302, Note_on_c, 14, 52, 106
31, 659542, Note_on_c, 14, 52, 0
31, 659544, Note_on_c, 14, 53, 93
31, 659774, Note_on_c, 14, 56, 104
31, 659784, Note_on_c, 14, 53, 0
31, 660009, Note_on_c, 14, 47, 105
31, 660014, Note_on_c, 14, 56, 0
31, 660249, Note_on_c, 14, 47, 0
31, 660252, Note_on_c, 14, 50, 91
31, 660492, Note_on_c, 14, 50, 0
31, 660492, Note_on_c, 14, 48, 94
31, 660725, Note_on_c, 14, 51, 92
31, 660732, Note_on_c, 14, 48, 0
31, 660965, Note_on_c, 14, 51, 0
31, 660970, Note_on_c, 14, 49, 99
31, 661204, Note_on_c, 14, 52, 96
31, 661210, Note_on_c, 14, 49, 0
31, 661444, Note_on_c, 14, 52, 0
31, 661445, Note_on_c, 14, 51, 107
31, 661685, Note_on_c, 14, 51, 0
31, 661695, Note_on_c, 14, 54, 106
31, 661923, Note_on_c, 14, 44, 104
31, 661935, Note_on_c, 14, 54, 0
31, 662163, Note_on_c, 14, 44, 0
31, 662164, Note_on_c, 14, 47, 108
31, 662404, Note_on_c, 14, 47, 0
31, 662421, Note_on_c, 14, 48, 105
31, 662655, Note_on_c, 14, 51, 110
31, 662661, Note_on_c, 14, 48, 0
31, 662895, Note_on_c, 14, 51, 0
31, 662897, Note_on_c, 14, 46, 109
31, 663131, Note_on_c, 14, 49, 104
31, 663137, Note_on_c, 14, 46, 0
31, 663371, Note_on_c, 14, 49, 0
31, 663383, Note_on_c, 14, 50, 111
31, 663619, Note_on_c, 14, 53, 100
31, 663623, Note_on_c, 14, 50, 0
31, 663859, Note_on_c, 14, 53, 0
31, 663859, Note_on_c, 14, 50, 109
31, 664089, Note_on_c, 14, 53, 106
31, 664099, Note_on_c, 14, 50, 0
31, 664329, Note_on_c, 14, 53, 0
31, 664329, Note_on_c, 14, 51, 111
31, 664566, Note_on_c, 14, 54, 97
31, 664569, Note_on_c, 14, 51, 0
31, 664801, Note_on_c, 14, 52, 98
31, 664806, Note_on_c, 14, 54, 0
31, 665041, Note_on_c, 14, 52, 0
31, 665056, Note_on_c, 14, 55, 106
31, 665291, Note_on_c, 14, 54, 97
31, 665296, Note_on_c, 14, 55, 0
31, 665524, Note_on_c, 14, 57, 97
31, 665531, Note_on_c, 14, 54, 0
31, 665764, Note_on_c, 14, 57, 0
31, 665785, Note_on_c, 14, 47, 110
31, 666025, Note_on_c, 14, 47, 0
31, 666025, Note_on_c, 14, 50, 98
31, 666246, Note_on_c, 14, 48, 100
31, 666265, Note_on_c, 14, 50, 0
31, 666486, Note_on_c, 14, 48, 0
31, 666502, Note_on_c, 14, 51, 110
31, 666724, Note_on_c, 14, 49, 97
31, 666742, Note_on_c, 14, 51, 0
31, 666964, Note_on_c, 14, 49, 0
31, 666967, Note_on_c, 14, 52, 107
31, 667207, Note_on_c, 14, 52, 0
31, 667224, Note_on_c, 14, 50, 102
31, 667447, Note_on_c, 14, 53, 108
31, 667464, Note_on_c, 14, 50, 0
31, 667687, Note_on_c, 14, 53, 0
31, 667695, Note_on_c, 14, 50, 98
31, 667935, Note_on_c, 14, 50, 0
31, 667938, Note_on_c, 14, 53, 103
31, 668177, Note_on_c, 14, 51, 99
31, 668178, Note_on_c, 14, 53, 0
31, 668417, Note_on_c, 14, 51, 0
31, 668417, Note_on_c, 14, 54, 111
31, 668657, Note_on_c, 14, 54, 0
31, 668665, Note_on_c, 14, 52, 108
31, 668905, Note_on_c, 14, 52, 0
31, 668905, Note_on_c, 14, 55, 109
31, 669122, Note_on_c, 14, 54, 108
31, 669145, Note_on_c, 14, 55, 0
31, 669362, Note_on_c, 14, 54, 0
31, 669382, Note_on_c, 14, 57, 110
31, 669620, Note_on_c, 14, 50, 108
31, 669622, Note_on_c, 14, 57, 0
31, 669853, Note_on_c, 14, 53, 103
31, 669860, Note_on_c, 14, 50, 0
31, 670093, Note_on_c, 14, 53, 0
31, 670100, Note_on_c, 14, 51, 98
31, 670333, Note_on_c, 14, 54, 107
31, 670340, Note_on_c, 14, 51, 0
31, 670573, Note_on_c, 14, 54, 0
31, 670580, Note_on_c, 14, 52, 106
31, 670807, Note_on_c, 14, 55, 100
31, 670820, Note_on_c, 14, 52, 0
31, 671044, Note_on_c, 14, 53, 93
31, 671047, Note_on_c, 14, 55, 0
31, 671280, Note_on_c, 14, 56, 91
31, 671284, Note_on_c, 14, 53, 0
31, 671520, Note_on_c, 14, 56, 0
31, 671527, Note_on_c, 14, 53, 98
31, 671767, Note_on_c, 14, 53, 0
31, 671776, Note_on_c, 14, 55, 91
31, 672010, Note_on_c, 14, 54, 95
31, 672016, Note_on_c, 14, 55, 0
31, 672242, Note_on_c, 14, 56, 105
31, 672250, Note_on_c, 14, 54, 0
31, 672482, Note_on_c, 14, 56, 0
31, 672495, Note_on_c, 14, 55, 99
31, 672731, Note_on_c, 14, 57, 91
31, 672735, Note_on_c, 14, 55, 0
31, 672964, Note_on_c, 14, 57, 111
31, 672971, Note_on_c, 14, 57, 0
31, 673204, Note_on_c, 14, 57, 0
31, 673221, Note_on_c, 14, 59, 95
31, 673461, Note_on_c, 14, 59, 0
31, 673463, Note_on_c, 14, 53, 95
31, 673688, Note_on_c, 14, 56, 100
31, 673703, Note_on_c, 14, 53, 0
31, 673921, Note_on_c, 14, 54, 94
31, 673928, Note_on_c, 14, 56, 0
31, 674161, Note_on_c, 14, 54, 0
31, 674166, Note_on_c, 14, 57, 92
31, 674406, Note_on_c, 14, 57, 0
31, 674422, Note_on_c, 14, 55, 108
31, 674651, Note_on_c, 14, 58, 111
31, 674662, Note_on_c, 14, 55, 0
31, 674883, Note_on_c, 14, 56, 107
31, 674891, Note_on_c, 14, 58, 0
31, 675123, Note_on_c, 14, 56, 0
31, 675125, Note_on_c, 14, 59, 98
31, 675365, Note_on_c, 14, 59, 0
31, 675385, Note_on_c, 14, 55, 94
31, 675625, Note_on_c, 14, 55, 0
31, 675625, Note_on_c, 14, 59, 106
31, 675841, Note_on_c, 14, 56, 98
31, 675865, Note_on_c, 14, 59, 0
31, 676081, Note_on_c, 14, 56, 0
31, 676092, Note_on_c, 14, 60, 102
31, 676331, Note_on_c, 14, 57, 93
31, 676332, Note_on_c, 14, 60, 0
31, 676564, Note_on_c, 14, 61, 102
31, 676571, Note_on_c, 14, 57, 0
31, 676804, Note_on_c, 14, 61, 0
31, 676816, Note_on_c, 14, 59, 106
31, 677040, Note_on_c, 14, 63, 106
31, 677056, Note_on_c, 14, 59, 0
31, 677280, Note_on_c, 14, 63, 0
31, 683040, Program_c, 14, 42
31, 684960, Control_c, 14, 11, 32
31, 684980, Control_c, 14, 11, 33
31, 685000, Control_c, 14, 11, 34
31, 685020, Control_c, 14, 11, 35
31, 685040, Control_c, 14, 11, 36
31, 685061, Control_c, 14, 11, 37
31, 685081, Control_c, 14, 11, 38
31, 685101, Control_c, 14, 11, 39
31, 685121, Control_c, 14, 11, 40
31, 685141, Control_c, 14, 11, 41
31, 685161, Control_c, 14, 11, 42
31, 685181, Control_c, 14, 11, 43
31, 685201, Control_c, 14, 11, 44
31, 685222, Control_c, 14, 11, 45
31, 685243, Control_c, 14, 11, 46
31, 685263, Control_c, 14, 11, 47
31, 685283, Control_c, 14, 11, 48
31, 685303, Control_c, 14, 11, 49
31, 685323, Control_c, 14, 11, 50
31, 685343, Control_c, 14, 11, 51
31, 685363, Control_c, 14, 11, 52
31, 685383, Control_c, 14, 11, 53
31, 685404, Control_c, 14, 11, 54
31, 685425, Control_c, 14, 11, 55
31, 685445, Control_c, 14, 11, 56
31, 685448, Note_on_c, 14, 78, 31
31, 685465, Control_c, 14, 11, 57
31, 685485, Control_c, 14, 11, 58
31, 685505, Control_c, 14, 11, 59
31, 685525, Control_c, 14, 11, 60
31, 685545, Control_c, 14, 11, 61
31, 685565, Control_c, 14, 11, 62
31, 685586, Control_c, 14, 11, 63
31, 685606, Control_c, 14, 11, 64
31, 685626, Control_c, 14, 11, 65
31, 685646, Control_c, 14, 11, 66
31, 685666, Control_c, 14, 11, 67
31, 685687, Control_c, 14, 11, 68
31, 685707, Control_c, 14, 11, 69
31, 685727, Control_c, 14, 11, 70
31, 685748, Control_c, 14, 11, 71
31, 685768, Control_c, 14, 11, 72
31, 685788, Control_c, 14, 11, 73
31, 685808, Control_c, 14, 11, 74
31, 685828, Control_c, 14, 11, 75
31, 685848, Control_c, 14, 11, 76
31, 685869, Control_c, 14, 11, 77
31, 685889, Control_c, 14, 11, 78
31, 685909, Control_c, 14, 11, 79
31, 685930, Control_c, 14, 11, 80
31, 685950, Control_c, 14, 11, 81
31, 685970, Control_c, 14, 11, 82
31, 685990, Control_c, 14, 11, 83
31, 686010, Control_c, 14, 11, 84
31, 686030, Control_c, 14, 11, 85
31, 686051, Control_c, 14, 11, 86
31, 686071, Control_c, 14, 11, 87
31, 686091, Control_c, 14, 11, 88
31, 686111, Control_c, 14, 11, 89
31, 686131, Control_c, 14, 11, 90
31, 686152, Control_c, 14, 11, 91
31, 686172, Control_c, 14, 11, 92
31, 686192, Control_c, 14, 11, 93
31, 686212, Control_c, 14, 11, 94
31, 686233, Control_c, 14, 11, 95
31, 686253, Control_c, 14, 11, 96
31, 686273, Control_c, 14, 11, 97
31, 686293, Control_c, 14, 11, 98
31, 686313, Control_c, 14, 11, 99
31, 686334, Control_c, 14, 11, 100
31, 686354, Control_c, 14, 11, 101
31, 686374, Control_c, 14, 11, 102
31, 686394, Control_c, 14, 11, 103
31, 686415, Control_c, 14, 11, 104
31, 686435, Control_c, 14, 11, 105
31, 686455, Control_c, 14, 11, 106
31, 686475, Control_c, 14, 11, 107
31, 686495, Control_c, 14, 11, 108
31, 686516, Control_c, 14, 11, 109
31, 686536, Control_c, 14, 11, 110
31, 686556, Control_c, 14, 11, 111
31, 686576, Control_c, 14, 11, 112
31, 686596, Control_c, 14, 11, 113
31, 686616, Control_c, 14, 11, 114
31, 686637, Control_c, 14, 11, 115
31, 686657, Control_c, 14, 11, 116
31, 686677, Control_c, 14, 11, 117
31, 686698, Control_c, 14, 11, 118
31, 686718, Control_c, 14, 11, 119
31, 686738, Control_c, 14, 11, 120
31, 686758, Control_c, 14, 11, 121
31, 686778, Control_c, 14, 11, 122
31, 686799, Control_c, 14, 11, 123
31, 686819, Control_c, 14, 11, 124
31, 686839, Control_c, 14, 11, 125
31, 686859, Control_c, 14, 11, 126
31, 686880, Program_c, 14, 48
31, 686888, Note_on_c, 14, 78, 0
31, 688551, Control_c, 14, 101, 0
31, 688552, Control_c, 14, 100, 0
31, 688553, Control_c, 14, 6, 12
31, 688554, Control_c, 14, 38, 0
31, 688680, Control_c, 14, 36, 12
31, 689291, Note_on_c, 14, 43, 93
31, 689303, Pitch_bend_c, 14, 8512
31, 689325, Pitch_bend_c, 14, 8832
31, 689346, Pitch_bend_c, 14, 9152
31, 689368, Pitch_bend_c, 14, 9472
31, 689388, Pitch_bend_c, 14, 9792
31, 689410, Pitch_bend_c, 14, 10112
31, 689431, Pitch_bend_c, 14, 10432
31, 689453, Pitch_bend_c, 14, 10752
31, 689474, Pitch_bend_c, 14, 11072
31, 689495, Pitch_bend_c, 14, 11392
31, 689516, Pitch_bend_c, 14, 11712
31, 689538, Pitch_bend_c, 14, 12032
31, 689559, Pitch_bend_c, 14, 12352
31, 689580, Pitch_bend_c, 14, 12672
31, 689602, Pitch_bend_c, 14, 12992
31, 689623, Pitch_bend_c, 14, 13312
31, 689645, Pitch_bend_c, 14, 13632
31, 689666, Pitch_bend_c, 14, 13952
31, 689686, Pitch_bend_c, 14, 14272
31, 689708, Pitch_bend_c, 14, 14592
31, 689730, Pitch_bend_c, 14, 14912
31, 689751, Pitch_bend_c, 14, 15232
31, 689760, Pitch_bend_c, 14, 8192
31, 689771, Note_on_c, 14, 43, 0
31, 690251, Note_on_c, 14, 55, 112
31, 690257, Note_on_c, 14, 66, 113
31, 690260, Note_on_c, 14, 43, 102
31, 690611, Note_on_c, 14, 55, 0
31, 690617, Note_on_c, 14, 66, 0
31, 690620, Note_on_c, 14, 43, 0
31, 691202, Note_on_c, 14, 55, 114
31, 691203, Note_on_c, 14, 66, 101
31, 691215, Note_on_c, 14, 43, 105
31, 691562, Note_on_c, 14, 55, 0
31, 691563, Note_on_c, 14, 66, 0
31, 691575, Note_on_c, 14, 43, 0
31, 692402, Note_on_c, 14, 55, 106
31, 692417, Note_on_c, 14, 43, 99
31, 692422, Note_on_c, 14, 66, 104
31, 692642, Note_on_c, 14, 55, 0
31, 692657, Note_on_c, 14, 43, 0
31, 692662, Note_on_c, 14, 66, 0
31, 693121, Note_on_c, 14, 66, 102
31, 693125, Note_on_c, 14, 55, 101
31, 693139, Note_on_c, 14, 43, 104
31, 693481, Note_on_c, 14, 66, 0
31, 693485, Note_on_c, 14, 55, 0
31, 693499, Note_on_c, 14, 43, 0
31, 694080, Note_on_c, 14, 66, 99
31, 694099, Note_on_c, 14, 45, 108
31, 694100, Note_on_c, 14, 57, 96
31, 694440, Note_on_c, 14, 66, 0
31, 694459, Note_on_c, 14, 45, 0
31, 694460, Note_on_c, 14, 57, 0
31, 694569, Note_on_c, 14, 45, 108
31, 694578, Note_on_c, 14, 66, 101
31, 694584, Note_on_c, 14, 57, 103
31, 694929, Note_on_c, 14, 45, 0
31, 694938, Note_on_c, 14, 66, 0
31, 694944, Note_on_c, 14, 57, 0
31, 695539, Note_on_c, 14, 62, 96
31, 695619, Note_on_c, 14, 62, 0
31, 695702, Note_on_c, 14, 60, 113
31, 695783, Note_on_c, 14, 60, 0
31, 695841, Note_on_c, 14, 59, 100
31, 695921, Note_on_c, 14, 59, 0
31, 696021, Note_on_c, 14, 60, 107
31, 696381, Note_on_c, 14, 60, 0
31, 696488, Note_on_c, 14, 43, 114
31, 696503, Pitch_bend_c, 14, 8512
31, 696525, Pitch_bend_c, 14, 8832
31, 696546, Pitch_bend_c, 14, 9152
31, 696568, Pitch_bend_c, 14, 9472
31, 696588, Pitch_bend_c, 14, 9792
31, 696610, Pitch_bend_c, 14, 10112
31, 696631, Pitch_bend_c, 14, 10432
31, 696653, Pitch_bend_c, 14, 10752
31, 696674, Pitch_bend_c, 14, 11072
31, 696695, Pitch_bend_c, 14, 11392
31, 696716, Pitch_bend_c, 14, 11712
31, 696738, Pitch_bend_c, 14, 12032
31, 696759, Pitch_bend_c, 14, 12352
31, 696780, Pitch_bend_c, 14, 12672
31, 696802, Pitch_bend_c, 14, 12992
31, 696823, Pitch_bend_c, 14, 13312
31, 696845, Pitch_bend_c, 14, 13632
31, 696866, Pitch_bend_c, 14, 13952
31, 696886, Pitch_bend_c, 14, 14272
31, 696908, Pitch_bend_c, 14, 14592
31, 696930, Pitch_bend_c, 14, 14912
31, 696951, Pitch_bend_c, 14, 15232
31, 696957, Pitch_bend_c, 14, 8192
31, 696968, Note_on_c, 14, 43, 0
31, 697448, Note_on_c, 14, 45, 109
31, 697450, Note_on_c, 14, 66, 113
31, 697461, Note_on_c, 14, 57, 111
31, 697808, Note_on_c, 14, 45, 0
31, 697810, Note_on_c, 14, 66, 0
31, 697821, Note_on_c, 14, 57, 0
31, 697941, Note_on_c, 14, 43, 114
31, 697943, Pitch_bend_c, 14, 8512
31, 697965, Pitch_bend_c, 14, 8832
31, 697986, Pitch_bend_c, 14, 9152
31, 698008, Pitch_bend_c, 14, 9472
31, 698028, Pitch_bend_c, 14, 9792
31, 698050, Pitch_bend_c, 14, 10112
31, 698071, Pitch_bend_c, 14, 10432
31, 698093, Pitch_bend_c, 14, 10752
31, 698114, Pitch_bend_c, 14, 11072
31, 698135, Pitch_bend_c, 14, 11392
31, 698156, Pitch_bend_c, 14, 11712
31, 698178, Pitch_bend_c, 14, 12032
31, 698199, Pitch_bend_c, 14, 12352
31, 698220, Pitch_bend_c, 14, 12672
31, 698242, Pitch_bend_c, 14, 12992
31, 698263, Pitch_bend_c, 14, 13312
31, 698285, Pitch_bend_c, 14, 13632
31, 698306, Pitch_bend_c, 14, 13952
31, 698326, Pitch_bend_c, 14, 14272
31, 698348, Pitch_bend_c, 14, 14592
31, 698370, Pitch_bend_c, 14, 14912
31, 698391, Pitch_bend_c, 14, 15232
31, 698397, Pitch_bend_c, 14, 8192
31, 698421, Note_on_c, 14, 43, 0
31, 698881, Note_on_c, 14, 45, 110
31, 698881, Note_on_c, 14, 57, 104
31, 698891, Note_on_c, 14, 66, 99
31, 699241, Note_on_c, 14, 45, 0
31, 699241, Note_on_c, 14, 57, 0
31, 699251, Note_on_c, 14, 66, 0
31, 699368, Note_on_c, 14, 57, 107
31, 699381, Note_on_c, 14, 66, 99
31, 699385, Note_on_c, 14, 45, 95
31, 699728, Note_on_c, 14, 57, 0
31, 699741, Note_on_c, 14, 66, 0
31, 699745, Note_on_c, 14, 45, 0
31, 700335, Note_on_c, 14, 45, 109
31, 700337, Note_on_c, 14, 66, 95
31, 700343, Note_on_c, 14, 57, 112
31, 700695, Note_on_c, 14, 45, 0
31, 700697, Note_on_c, 14, 66, 0
31, 700703, Note_on_c, 14, 57, 0
31, 701294, Note_on_c, 14, 55, 98
31, 701305, Note_on_c, 14, 43, 107
31, 701305, Note_on_c, 14, 66, 106
31, 701654, Note_on_c, 14, 55, 0
31, 701665, Note_on_c, 14, 43, 0
31, 701665, Note_on_c, 14, 66, 0
31, 702003, Note_on_c, 14, 66, 101
31, 702020, Note_on_c, 14, 43, 111
31, 702023, Note_on_c, 14, 55, 107
31, 702243, Note_on_c, 14, 66, 0
31, 702260, Note_on_c, 14, 43, 0
31, 702263, Note_on_c, 14, 55, 0
31, 703202, Note_on_c, 14, 55, 109
31, 703214, Note_on_c, 14, 43, 101
31, 703217, Note_on_c, 14, 66, 98
31, 703562, Note_on_c, 14, 55, 0
31, 703574, Note_on_c, 14, 43, 0
31, 703577, Note_on_c, 14, 66, 0
31, 704162, Note_on_c, 14, 66, 103
31, 704170, Note_on_c, 14, 57, 103
31, 704182, Note_on_c, 14, 45, 112
31, 704522, Note_on_c, 14, 66, 0
31, 704530, Note_on_c, 14, 57, 0
31, 704542, Note_on_c, 14, 45, 0
31, 706087, Note_on_c, 14, 64, 98
31, 706167, Note_on_c, 14, 64, 0
31, 706241, Note_on_c, 14, 62, 100
31, 706322, Note_on_c, 14, 62, 0
31, 706412, Note_on_c, 14, 60, 99
31, 706492, Note_on_c, 14, 60, 0
31, 706579, Note_on_c, 14, 62, 105
31, 706939, Note_on_c, 14, 62, 0
31, 707539, Note_on_c, 14, 64, 112
31, 707619, Note_on_c, 14, 64, 0
31, 707691, Note_on_c, 14, 62, 102
31, 707772, Note_on_c, 14, 62, 0
31, 707864, Note_on_c, 14, 60, 108
31, 707944, Note_on_c, 14, 60, 0
31, 708021, Note_on_c, 14, 62, 114
31, 708101, Note_on_c, 14, 62, 0
31, 708161, Note_on_c, 14, 60, 106
31, 708242, Note_on_c, 14, 60, 0
31, 708331, Note_on_c, 14, 59, 99
31, 708411, Note_on_c, 14, 59, 0
31, 708960, Pitch_bend_c, 14, 8192
31, 708965, Note_on_c, 14, 43, 104
31, 708982, Pitch_bend_c, 14, 8512
31, 709005, Pitch_bend_c, 14, 8832
31, 709027, Pitch_bend_c, 14, 9152
31, 709050, Pitch_bend_c, 14, 9472
31, 709072, Pitch_bend_c, 14, 9792
31, 709095, Pitch_bend_c, 14, 10112
31, 709117, Pitch_bend_c, 14, 10432
31, 709140, Pitch_bend_c, 14, 10752
31, 709163, Pitch_bend_c, 14, 11072
31, 709185, Pitch_bend_c, 14, 11392
31, 709208, Pitch_bend_c, 14, 11712
31, 709230, Pitch_bend_c, 14, 12032
31, 709253, Pitch_bend_c, 14, 12352
31, 709275, Pitch_bend_c, 14, 12672
31, 709298, Pitch_bend_c, 14, 12992
31, 709321, Pitch_bend_c, 14, 13312
31, 709343, Pitch_bend_c, 14, 13632
31, 709366, Pitch_bend_c, 14, 13952
31, 709388, Pitch_bend_c, 14, 14272
31, 709411, Pitch_bend_c, 14, 14592
31, 709434, Pitch_bend_c, 14, 14912
31, 709445, Note_on_c, 14, 43, 0
31, 709456, Pitch_bend_c, 14, 15232
31, 709463, Pitch_bend_c, 14, 8512
31, 709485, Pitch_bend_c, 14, 8832
31, 709506, Pitch_bend_c, 14, 9152
31, 709528, Pitch_bend_c, 14, 9472
31, 709548, Pitch_bend_c, 14, 9792
31, 709570, Pitch_bend_c, 14, 10112
31, 709591, Pitch_bend_c, 14, 10432
31, 709613, Pitch_bend_c, 14, 10752
31, 709634, Pitch_bend_c, 14, 11072
31, 709655, Pitch_bend_c, 14, 11392
31, 709676, Pitch_bend_c, 14, 11712
31, 709698, Pitch_bend_c, 14, 12032
31, 709719, Pitch_bend_c, 14, 12352
31, 709740, Pitch_bend_c, 14, 12672
31, 709762, Pitch_bend_c, 14, 12992
31, 709783, Pitch_bend_c, 14, 13312
31, 709805, Pitch_bend_c, 14, 13632
31, 709826, Pitch_bend_c, 14, 13952
31, 709846, Pitch_bend_c, 14, 14272
31, 709868, Pitch_bend_c, 14, 14592
31, 709890, Pitch_bend_c, 14, 14912
31, 709911, Pitch_bend_c, 14, 15232
31, 709914, Pitch_bend_c, 14, 8192
31, 710412, Note_on_c, 14, 64, 113
31, 710492, Note_on_c, 14, 64, 0
31, 710563, Note_on_c, 14, 62, 111
31, 710644, Note_on_c, 14, 62, 0
31, 710725, Note_on_c, 14, 60, 107
31, 710805, Note_on_c, 14, 60, 0
31, 710899, Note_on_c, 14, 62, 108
31, 710979, Note_on_c, 14, 62, 0
31, 711054, Note_on_c, 14, 60, 102
31, 711135, Note_on_c, 14, 60, 0
31, 711220, Note_on_c, 14, 59, 106
31, 711300, Note_on_c, 14, 59, 0
31, 711840, Pitch_bend_c, 14, 8192
31, 711851, Note_on_c, 14, 43, 113
31, 711862, Pitch_bend_c, 14, 8512
31, 711885, Pitch_bend_c, 14, 8832
31, 711907, Pitch_bend_c, 14, 9152
31, 711930, Pitch_bend_c, 14, 9472
31, 711952, Pitch_bend_c, 14, 9792
31, 711975, Pitch_bend_c, 14, 10112
31, 711997, Pitch_bend_c, 14, 10432
31, 712020, Pitch_bend_c, 14, 10752
31, 712043, Pitch_bend_c, 14, 11072
31, 712065, Pitch_bend_c, 14, 11392
31, 712088, Pitch_bend_c, 14, 11712
31, 712110, Pitch_bend_c, 14, 12032
31, 712133, Pitch_bend_c, 14, 12352
31, 712155, Pitch_bend_c, 14, 12672
31, 712178, Pitch_bend_c, 14, 12992
31, 712201, Pitch_bend_c, 14, 13312
31, 712223, Pitch_bend_c, 14, 13632
31, 712246, Pitch_bend_c, 14, 13952
31, 712268, Pitch_bend_c, 14, 14272
31, 712291, Pitch_bend_c, 14, 14592
31, 712314, Pitch_bend_c, 14, 14912
31, 712331, Note_on_c, 14, 43, 0
31, 712336, Pitch_bend_c, 14, 15232
31, 712343, Pitch_bend_c, 14, 8512
31, 712343, Pitch_bend_c, 14, 8512
31, 712365, Pitch_bend_c, 14, 8832
31, 712365, Pitch_bend_c, 14, 8832
31, 712386, Pitch_bend_c, 14, 9152
31, 712386, Pitch_bend_c, 14, 9152
31, 712408, Pitch_bend_c, 14, 9472
31, 712408, Pitch_bend_c, 14, 9472
31, 712428, Pitch_bend_c, 14, 9792
31, 712428, Pitch_bend_c, 14, 9792
31, 712450, Pitch_bend_c, 14, 10112
31, 712450, Pitch_bend_c, 14, 10112
31, 712471, Pitch_bend_c, 14, 10432
31, 712471, Pitch_bend_c, 14, 10432
31, 712493, Pitch_bend_c, 14, 10752
31, 712493, Pitch_bend_c, 14, 10752
31, 712514, Pitch_bend_c, 14, 11072
31, 712514, Pitch_bend_c, 14, 11072
31, 712535, Pitch_bend_c, 14, 11392
31, 712535, Pitch_bend_c, 14, 11392
31, 712556, Pitch_bend_c, 14, 11712
31, 712556, Pitch_bend_c, 14, 11712
31, 712578, Pitch_bend_c, 14, 12032
31, 712578, Pitch_bend_c, 14, 12032
31, 712599, Pitch_bend_c, 14, 12352
31, 712599, Pitch_bend_c, 14, 12352
31, 712620, Pitch_bend_c, 14, 12672
31, 712620, Pitch_bend_c, 14, 12672
31, 712642, Pitch_bend_c, 14, 12992
31, 712642, Pitch_bend_c, 14, 12992
31, 712663, Pitch_bend_c, 14, 13312
31, 712663, Pitch_bend_c, 14, 13312
31, 712685, Pitch_bend_c, 14, 13632
31, 712685, Pitch_bend_c, 14, 13632
31, 712706, Pitch_bend_c, 14, 13952
31, 712706, Pitch_bend_c, 14, 13952
31, 712726, Pitch_bend_c, 14, 14272
31, 712726, Pitch_bend_c, 14, 14272
31, 712748, Pitch_bend_c, 14, 14592
31, 712748, Pitch_bend_c, 14, 14592
31, 712770, Pitch_bend_c, 14, 14912
31, 712770, Pitch_bend_c, 14, 14912
31, 712791, Pitch_bend_c, 14, 15232
31, 712791, Pitch_bend_c, 14, 15232
31, 712800, Pitch_bend_c, 14, 8192
31, 712808, Note_on_c, 14, 45, 97
31, 712810, Note_on_c, 14, 57, 98
31, 712812, Note_on_c, 14, 66, 111
31, 713168, Note_on_c, 14, 45, 0
31, 713170, Note_on_c, 14, 57, 0
31, 713172, Note_on_c, 14, 66, 0
31, 713290, Note_on_c, 14, 45, 95
31, 713299, Note_on_c, 14, 66, 114
31, 713303, Note_on_c, 14, 57, 103
31, 713650, Note_on_c, 14, 45, 0
31, 713659, Note_on_c, 14, 66, 0
31, 713663, Note_on_c, 14, 57, 0
31, 714246, Note_on_c, 14, 66, 103
31, 714250, Note_on_c, 14, 57, 112
31, 714253, Note_on_c, 14, 45, 112
31, 714606, Note_on_c, 14, 66, 0
31, 714610, Note_on_c, 14, 57, 0
31, 714613, Note_on_c, 14, 45, 0
31, 715452, Note_on_c, 14, 66, 101
31, 715456, Note_on_c, 14, 43, 113
31, 715463, Note_on_c, 14, 55, 99
31, 715692, Note_on_c, 14, 66, 0
31, 715696, Note_on_c, 14, 43, 0
31, 715703, Note_on_c, 14, 55, 0
31, 716172, Note_on_c, 14, 57, 112
31, 716174, Note_on_c, 14, 66, 114
31, 716181, Note_on_c, 14, 45, 114
31, 716532, Note_on_c, 14, 57, 0
31, 716534, Note_on_c, 14, 66, 0
31, 716541, Note_on_c, 14, 45, 0
31, 717134, Note_on_c, 14, 45, 112
31, 717136, Note_on_c, 14, 66, 97
31, 717145, Note_on_c, 14, 57, 106
31, 717494, Note_on_c, 14, 45, 0
31, 717496, Note_on_c, 14, 66, 0
31, 717505, Note_on_c, 14, 57, 0
31, 717845, Note_on_c, 14, 55, 103
31, 717854, Note_on_c, 14, 43, 99
31, 717864, Note_on_c, 14, 66, 114
31, 718085, Note_on_c, 14, 55, 0
31, 718094, Note_on_c, 14, 43, 0
31, 718104, Note_on_c, 14, 66, 0
31, 719052, Note_on_c, 14, 45, 111
31, 719059, Note_on_c, 14, 57, 106
31, 719065, Note_on_c, 14, 66, 103
31, 719412, Note_on_c, 14, 45, 0
31, 719419, Note_on_c, 14, 57, 0
31, 719425, Note_on_c, 14, 66, 0
31, 720000, Note_on_c, 14, 66, 101
31, 720020, Note_on_c, 14, 57, 104
31, 720023, Note_on_c, 14, 45, 95
31, 720360, Note_on_c, 14, 66, 0
31, 720380, Note_on_c, 14, 57, 0
31, 720383, Note_on_c, 14, 45, 0
31, 720963, Note_on_c, 14, 57, 105
31, 720965, Note_on_c, 14, 45, 95
31, 720979, Note_on_c, 14, 66, 113
31, 721323, Note_on_c, 14, 57, 0
31, 721325, Note_on_c, 14, 45, 0
31, 721339, Note_on_c, 14, 66, 0
31, 721454, Note_on_c, 14, 42, 39
31, 721574, Note_on_c, 14, 42, 0
31, 721579, Note_on_c, 14, 42, 59
31, 721699, Note_on_c, 14, 42, 0
31, 721701, Note_on_c, 14, 36, 43
31, 721803, Note_on_c, 14, 42, 44
31, 721821, Note_on_c, 14, 36, 0
31, 721923, Note_on_c, 14, 42, 0
31, 721939, Note_on_c, 14, 44, 47
31, 722056, Note_on_c, 14, 42, 48
31, 722059, Note_on_c, 14, 44, 0
31, 722176, Note_on_c, 14, 42, 0
31, 722181, Note_on_c, 14, 36, 46
31, 722283, Note_on_c, 14, 42, 52
31, 722301, Note_on_c, 14, 36, 0
31, 722403, Note_on_c, 14, 42, 0
31, 722416, Note_on_c, 14, 46, 54
31, 722520, Note_on_c, 14, 42, 58
31, 722536, Note_on_c, 14, 46, 0
31, 722640, Note_on_c, 14, 42, 0
31, 722646, Note_on_c, 14, 36, 49
31, 722766, Note_on_c, 14, 36, 0
31, 722769, Note_on_c, 14, 42, 49
31, 722889, Note_on_c, 14, 42, 0
31, 722898, Note_on_c, 14, 42, 45
31, 723018, Note_on_c, 14, 42, 0
31, 723024, Note_on_c, 14, 42, 50
31, 723138, Note_on_c, 14, 36, 53
31, 723144, Note_on_c, 14, 42, 0
31, 723251, Note_on_c, 14, 42, 48
31, 723258, Note_on_c, 14, 36, 0
31, 723371, Note_on_c, 14, 42, 0
31, 723384, Note_on_c, 14, 44, 49
31, 723491, Note_on_c, 14, 42, 44
31, 723504, Note_on_c, 14, 44, 0
31, 723606, Note_on_c, 14, 36, 42
31, 723611, Note_on_c, 14, 42, 0
31, 723726, Note_on_c, 14, 36, 0
31, 723737, Note_on_c, 14, 42, 42
31, 723848, Note_on_c, 14, 46, 47
31, 723857, Note_on_c, 14, 42, 0
31, 723968, Note_on_c, 14, 46, 0
31, 723981, Note_on_c, 14, 42, 40
31, 724080, Note_on_c, 14, 36, 48
31, 724101, Note_on_c, 14, 42, 0
31, 724200, Note_on_c, 14, 36, 0
31, 724213, Note_on_c, 14, 42, 49
31, 724333, Note_on_c, 14, 42, 0
31, 724338, Note_on_c, 14, 42, 42
31, 724455, Note_on_c, 14, 42, 52
31, 724458, Note_on_c, 14, 42, 0
31, 724569, Note_on_c, 14, 36, 52
31, 724575, Note_on_c, 14, 42, 0
31, 724689, Note_on_c, 14, 36, 0
31, 724703, Note_on_c, 14, 42, 61
31, 724804, Note_on_c, 14, 44, 58
31, 724823, Note_on_c, 14, 42, 0
31, 724922, Note_on_c, 14, 42, 48
31, 724924, Note_on_c, 14, 44, 0
31, 725042, Note_on_c, 14, 42, 0
31, 725051, Note_on_c, 14, 36, 47
31, 725166, Note_on_c, 14, 42, 61
31, 725171, Note_on_c, 14, 36, 0
31, 725286, Note_on_c, 14, 42, 0
31, 725302, Note_on_c, 14, 46, 61
31, 725415, Note_on_c, 14, 42, 71
31, 725422, Note_on_c, 14, 46, 0
31, 725535, Note_on_c, 14, 42, 0
31, 725536, Note_on_c, 14, 36, 72
31, 725656, Note_on_c, 14, 36, 0
31, 725661, Note_on_c, 14, 42, 64
31, 725766, Note_on_c, 14, 48, 56
31, 725781, Note_on_c, 14, 42, 0
31, 725886, Note_on_c, 14, 48, 0
31, 725905, Note_on_c, 14, 48, 62
31, 726021, Note_on_c, 14, 36, 69
31, 726025, Note_on_c, 14, 48, 0
31, 726120, Note_on_c, 14, 48, 74
31, 726141, Note_on_c, 14, 36, 0
31, 726240, Note_on_c, 14, 48, 0
31, 726243, Note_on_c, 14, 50, 74
31, 726363, Note_on_c, 14, 50, 0
31, 726379, Note_on_c, 14, 48, 71
31, 726493, Note_on_c, 14, 36, 79
31, 726499, Note_on_c, 14, 48, 0
31, 726611, Note_on_c, 14, 48, 73
31, 726613, Note_on_c, 14, 36, 0
31, 726731, Note_on_c, 14, 48, 0
31, 726742, Note_on_c, 14, 52, 86
31, 726848, Note_on_c, 14, 48, 68
31, 726862, Note_on_c, 14, 52, 0
31, 726963, Note_on_c, 14, 36, 71
31, 726968, Note_on_c, 14, 48, 0
31, 727081, Note_on_c, 14, 48, 71
31, 727083, Note_on_c, 14, 36, 0
31, 727201, Note_on_c, 14, 48, 0
31, 727218, Note_on_c, 14, 42, 48
31, 727332, Note_on_c, 14, 42, 57
31, 727338, Note_on_c, 14, 42, 0
31, 727452, Note_on_c, 14, 42, 0
31, 727453, Note_on_c, 14, 36, 50
31, 727573, Note_on_c, 14, 36, 0
31, 727574, Note_on_c, 14, 42, 44
31, 727685, Note_on_c, 14, 44, 46
31, 727694, Note_on_c, 14, 42, 0
31, 727805, Note_on_c, 14, 44, 0
31, 727825, Note_on_c, 14, 42, 60
31, 727933, Note_on_c, 14, 36, 52
31, 727945, Note_on_c, 14, 42, 0
31, 728041, Note_on_c, 14, 42, 52
31, 728053, Note_on_c, 14, 36, 0
31, 728161, Note_on_c, 14, 42, 0
31, 728180, Note_on_c, 14, 46, 69
31, 728284, Note_on_c, 14, 42, 69
31, 728300, Note_on_c, 14, 46, 0
31, 728404, Note_on_c, 14, 42, 0
31, 728404, Note_on_c, 14, 36, 53
31, 728524, Note_on_c, 14, 36, 0
31, 728527, Note_on_c, 14, 42, 73
31, 728647, Note_on_c, 14, 42, 0
31, 728654, Note_on_c, 14, 48, 63
31, 728769, Note_on_c, 14, 48, 56
31, 728774, Note_on_c, 14, 48, 0
31, 728889, Note_on_c, 14, 48, 0
31, 728895, Note_on_c, 14, 36, 72
31, 729015, Note_on_c, 14, 36, 0
31, 729017, Note_on_c, 14, 48, 66
31, 729128, Note_on_c, 14, 50, 74
31, 729137, Note_on_c, 14, 48, 0
31, 729247, Note_on_c, 14, 48, 64
31, 729248, Note_on_c, 14, 50, 0
31, 729367, Note_on_c, 14, 48, 0
31, 729383, Note_on_c, 14, 36, 71
31, 729502, Note_on_c, 14, 48, 75
31, 729503, Note_on_c, 14, 36, 0
31, 729622, Note_on_c, 14, 48, 0
31, 729623, Note_on_c, 14, 52, 84
31, 729720, Note_on_c, 14, 48, 76
31, 729743, Note_on_c, 14, 52, 0
31, 729840, Note_on_c, 14, 48, 0
31, 729854, Note_on_c, 14, 36, 68
31, 729974, Note_on_c, 14, 36, 0
31, 729976, Note_on_c, 14, 48, 84
31, 730096, Note_on_c, 14, 48, 0
31, 730097, Note_on_c, 14, 42, 40
31, 730216, Note_on_c, 14, 42, 41
31, 730217, Note_on_c, 14, 42, 0
31, 730326, Note_on_c, 14, 36, 55
31, 730336, Note_on_c, 14, 42, 0
31, 730446, Note_on_c, 14, 36, 0
31, 730454, Note_on_c, 14, 42, 62
31, 730572, Note_on_c, 14, 44, 63
31, 730574, Note_on_c, 14, 42, 0
31, 730692, Note_on_c, 14, 44, 0
31, 730692, Note_on_c, 14, 42, 48
31, 730812, Note_on_c, 14, 42, 0
31, 730821, Note_on_c, 14, 36, 49
31, 730929, Note_on_c, 14, 42, 65
31, 730941, Note_on_c, 14, 36, 0
31, 731049, Note_on_c, 14, 42, 0
31, 731064, Note_on_c, 14, 46, 50
31, 731176, Note_on_c, 14, 42, 56
31, 731184, Note_on_c, 14, 46, 0
31, 731282, Note_on_c, 14, 36, 59
31, 731296, Note_on_c, 14, 42, 0
31, 731402, Note_on_c, 14, 36, 0
31, 731412, Note_on_c, 14, 42, 73
31, 731532, Note_on_c, 14, 42, 0
31, 731543, Note_on_c, 14, 48, 70
31, 731642, Note_on_c, 14, 48, 59
31, 731663, Note_on_c, 14, 48, 0
31, 731762, Note_on_c, 14, 48, 0
31, 731772, Note_on_c, 14, 36, 59
31, 731886, Note_on_c, 14, 48, 67
31, 731892, Note_on_c, 14, 36, 0
31, 732006, Note_on_c, 14, 48, 0
31, 732017, Note_on_c, 14, 50, 65
31, 732137, Note_on_c, 14, 50, 0
31, 732141, Note_on_c, 14, 48, 63
31, 732243, Note_on_c, 14, 36, 69
31, 732261, Note_on_c, 14, 48, 0
31, 732363, Note_on_c, 14, 36, 0
31, 732382, Note_on_c, 14, 48, 72
31, 732493, Note_on_c, 14, 52, 74
31, 732502, Note_on_c, 14, 48, 0
31, 732605, Note_on_c, 14, 48, 71
31, 732613, Note_on_c, 14, 52, 0
31, 732723, Note_on_c, 14, 36, 80
31, 732725, Note_on_c, 14, 48, 0
31, 732843, Note_on_c, 14, 36, 0
31, 732855, Note_on_c, 14, 48, 83
31, 732972, Note_on_c, 14, 42, 50
31, 732975, Note_on_c, 14, 48, 0
31, 733090, Note_on_c, 14, 42, 53
31, 733092, Note_on_c, 14, 42, 0
31, 733202, Note_on_c, 14, 36, 56
31, 733210, Note_on_c, 14, 42, 0
31, 733322, Note_on_c, 14, 36, 0
31, 733327, Note_on_c, 14, 42, 55
31, 733440, Note_on_c, 14, 44, 68
31, 733447, Note_on_c, 14, 42, 0
31, 733560, Note_on_c, 14, 44, 0
31, 733585, Note_on_c, 14, 42, 57
31, 733689, Note_on_c, 14, 36, 71
31, 733705, Note_on_c, 14, 42, 0
31, 733804, Note_on_c, 14, 42, 73
31, 733809, Note_on_c, 14, 36, 0
31, 733924, Note_on_c, 14, 42, 0
31, 733944, Note_on_c, 14, 46, 60
31, 734063, Note_on_c, 14, 42, 82
31, 734064, Note_on_c, 14, 46, 0
31, 734181, Note_on_c, 14, 36, 72
31, 734183, Note_on_c, 14, 42, 0
31, 734301, Note_on_c, 14, 36, 0
31, 734304, Note_on_c, 14, 42, 86
31, 734403, Note_on_c, 14, 42, 57
31, 734424, Note_on_c, 14, 42, 0
31, 734523, Note_on_c, 14, 42, 0
31, 734544, Note_on_c, 14, 42, 46
31, 734644, Note_on_c, 14, 36, 46
31, 734664, Note_on_c, 14, 42, 0
31, 734764, Note_on_c, 14, 36, 0
31, 734772, Note_on_c, 14, 42, 50
31, 734892, Note_on_c, 14, 42, 0
31, 734895, Note_on_c, 14, 44, 62
31, 735003, Note_on_c, 14, 42, 45
31, 735015, Note_on_c, 14, 44, 0
31, 735123, Note_on_c, 14, 42, 0
31, 735133, Note_on_c, 14, 36, 66
31, 735245, Note_on_c, 14, 42, 59
31, 735253, Note_on_c, 14, 36, 0
31, 735365, Note_on_c, 14, 42, 0
31, 735368, Note_on_c, 14, 46, 55
31, 735488, Note_on_c, 14, 46, 0
31, 735489, Note_on_c, 14, 42, 56
31, 735609, Note_on_c, 14, 42, 0
31, 735615, Note_on_c, 14, 36, 58
31, 735728, Note_on_c, 14, 42, 55
31, 735735, Note_on_c, 14, 36, 0
31, 735848, Note_on_c, 14, 42, 0
31, 735864, Note_on_c, 14, 48, 64
31, 735961, Note_on_c, 14, 48, 66
31, 735984, Note_on_c, 14, 48, 0
31, 736081, Note_on_c, 14, 48, 0
31, 736082, Note_on_c, 14, 36, 57
31, 736202, Note_on_c, 14, 36, 0
31, 736205, Note_on_c, 14, 48, 57
31, 736325, Note_on_c, 14, 48, 0
31, 736340, Note_on_c, 14, 50, 63
31, 736456, Note_on_c, 14, 48, 77
31, 736460, Note_on_c, 14, 50, 0
31, 736566, Note_on_c, 14, 36, 60
31, 736576, Note_on_c, 14, 48, 0
31, 736686, Note_on_c, 14, 36, 0
31, 736694, Note_on_c, 14, 48, 62
31, 736814, Note_on_c, 14, 48, 0
31, 736820, Note_on_c, 14, 52, 71
31, 736940, Note_on_c, 14, 52, 0
31, 736942, Note_on_c, 14, 48, 67
31, 737061, Note_on_c, 14, 36, 69
31, 737062, Note_on_c, 14, 48, 0
31, 737175, Note_on_c, 14, 48, 67
31, 737181, Note_on_c, 14, 36, 0
31, 737288, Note_on_c, 14, 54, 47
31, 737295, Note_on_c, 14, 48, 0
31, 737408, Note_on_c, 14, 54, 0
31, 737424, Note_on_c, 14, 54, 53
31, 737527, Note_on_c, 14, 48, 60
31, 737544, Note_on_c, 14, 54, 0
31, 737647, Note_on_c, 14, 48, 0
31, 737661, Note_on_c, 14, 54, 57
31, 737773, Note_on_c, 14, 56, 51
31, 737781, Note_on_c, 14, 54, 0
31, 737885, Note_on_c, 14, 54, 62
31, 737893, Note_on_c, 14, 56, 0
31, 738005, Note_on_c, 14, 54, 0
31, 738017, Note_on_c, 14, 48, 68
31, 738130, Note_on_c, 14, 54, 71
31, 738137, Note_on_c, 14, 48, 0
31, 738250, Note_on_c, 14, 54, 0
31, 738259, Note_on_c, 14, 58, 80
31, 738365, Note_on_c, 14, 54, 68
31, 738379, Note_on_c, 14, 58, 0
31, 738485, Note_on_c, 14, 54, 0
31, 738485, Note_on_c, 14, 48, 73
31, 738605, Note_on_c, 14, 48, 0
31, 738611, Note_on_c, 14, 54, 88
31, 738731, Note_on_c, 14, 54, 0
31, 738735, Note_on_c, 14, 54, 52
31, 738854, Note_on_c, 14, 54, 45
31, 738855, Note_on_c, 14, 54, 0
31, 738970, Note_on_c, 14, 48, 63
31, 738974, Note_on_c, 14, 54, 0
31, 739090, Note_on_c, 14, 48, 0
31, 739105, Note_on_c, 14, 54, 62
31, 739225, Note_on_c, 14, 54, 0
31, 739225, Note_on_c, 14, 56, 58
31, 739339, Note_on_c, 14, 54, 63
31, 739345, Note_on_c, 14, 56, 0
31, 739444, Note_on_c, 14, 48, 57
31, 739459, Note_on_c, 14, 54, 0
31, 739564, Note_on_c, 14, 48, 0
31, 739574, Note_on_c, 14, 54, 63
31, 739683, Note_on_c, 14, 58, 64
31, 739694, Note_on_c, 14, 54, 0
31, 739803, Note_on_c, 14, 58, 0
31, 739815, Note_on_c, 14, 54, 67
31, 739925, Note_on_c, 14, 48, 72
31, 739935, Note_on_c, 14, 54, 0
31, 740045, Note_on_c, 14, 48, 0
31, 740047, Note_on_c, 14, 54, 68
31, 740167, Note_on_c, 14, 54, 0
31, 740173, Note_on_c, 14, 54, 58
31, 740291, Note_on_c, 14, 54, 60
31, 740293, Note_on_c, 14, 54, 0
31, 740411, Note_on_c, 14, 54, 0
31, 740421, Note_on_c, 14, 48, 46
31, 740526, Note_on_c, 14, 54, 50
31, 740541, Note_on_c, 14, 48, 0
31, 740646, Note_on_c, 14, 54, 0
31, 740656, Note_on_c, 14, 56, 45
31, 740776, Note_on_c, 14, 56, 0
31, 740782, Note_on_c, 14, 54, 54
31, 740900, Note_on_c, 14, 48, 50
31, 740902, Note_on_c, 14, 54, 0
31, 741020, Note_on_c, 14, 48, 0
31, 741020, Note_on_c, 14, 54, 54
31, 741140, Note_on_c, 14, 54, 0
31, 741144, Note_on_c, 14, 58, 65
31, 741261, Note_on_c, 14, 54, 53
31, 741264, Note_on_c, 14, 58, 0
31, 741381, Note_on_c, 14, 54, 0
31, 741384, Note_on_c, 14, 48, 54
31, 741502, Note_on_c, 14, 54, 66
31, 741504, Note_on_c, 14, 48, 0
31, 741622, Note_on_c, 14, 54, 0
31, 741622, Note_on_c, 14, 60, 65
31, 741730, Note_on_c, 14, 60, 59
31, 741742, Note_on_c, 14, 60, 0
31, 741850, Note_on_c, 14, 60, 0
31, 741852, Note_on_c, 14, 48, 58
31, 741964, Note_on_c, 14, 60, 59
31, 741972, Note_on_c, 14, 48, 0
31, 742084, Note_on_c, 14, 60, 0
31, 742098, Note_on_c, 14, 62, 58
31, 742210, Note_on_c, 14, 60, 76
31, 742218, Note_on_c, 14, 62, 0
31, 742330, Note_on_c, 14, 60, 0
31, 742337, Note_on_c, 14, 48, 64
31, 742451, Note_on_c, 14, 60, 67
31, 742457, Note_on_c, 14, 48, 0
31, 742571, Note_on_c, 14, 60, 0
31, 742579, Note_on_c, 14, 64, 79
31, 742697, Note_on_c, 14, 60, 78
31, 742699, Note_on_c, 14, 64, 0
31, 742815, Note_on_c, 14, 48, 78
31, 742817, Note_on_c, 14, 60, 0
31, 742935, Note_on_c, 14, 48, 0
31, 742937, Note_on_c, 14, 60, 79
31, 743057, Note_on_c, 14, 60, 0
31, 743057, Note_on_c, 14, 54, 45
31, 743177, Note_on_c, 14, 54, 0
31, 743185, Note_on_c, 14, 54, 45
31, 743285, Note_on_c, 14, 48, 63
31, 743305, Note_on_c, 14, 54, 0
31, 743405, Note_on_c, 14, 48, 0
31, 743405, Note_on_c, 14, 54, 58
31, 743525, Note_on_c, 14, 54, 0
31, 743536, Note_on_c, 14, 56, 60
31, 743650, Note_on_c, 14, 54, 71
31, 743656, Note_on_c, 14, 56, 0
31, 743770, Note_on_c, 14, 54, 0
31, 743776, Note_on_c, 14, 48, 59
31, 743896, Note_on_c, 14, 48, 0
31, 743897, Note_on_c, 14, 54, 66
31, 744007, Note_on_c, 14, 58, 62
31, 744017, Note_on_c, 14, 54, 0
31, 744125, Note_on_c, 14, 54, 76
31, 744127, Note_on_c, 14, 58, 0
31, 744245, Note_on_c, 14, 54, 0
31, 744250, Note_on_c, 14, 48, 74
31, 744368, Note_on_c, 14, 54, 86
31, 744370, Note_on_c, 14, 48, 0
31, 744486, Note_on_c, 14, 54, 48
31, 744488, Note_on_c, 14, 54, 0
31, 744606, Note_on_c, 14, 54, 0
31, 744620, Note_on_c, 14, 54, 43
31, 744740, Note_on_c, 14, 54, 0
31, 744743, Note_on_c, 14, 48, 42
31, 744852, Note_on_c, 14, 54, 56
31, 744863, Note_on_c, 14, 48, 0
31, 744971, Note_on_c, 14, 56, 58
31, 744972, Note_on_c, 14, 54, 0
31, 745086, Note_on_c, 14, 54, 47
31, 745091, Note_on_c, 14, 56, 0
31, 745206, Note_on_c, 14, 54, 0
31, 745218, Note_on_c, 14, 48, 58
31, 745336, Note_on_c, 14, 54, 51
31, 745338, Note_on_c, 14, 48, 0
31, 745448, Note_on_c, 14, 58, 59
31, 745456, Note_on_c, 14, 54, 0
31, 745568, Note_on_c, 14, 58, 0
31, 745575, Note_on_c, 14, 54, 49
31, 745681, Note_on_c, 14, 48, 58
31, 745695, Note_on_c, 14, 54, 0
31, 745801, Note_on_c, 14, 48, 0
31, 745803, Note_on_c, 14, 54, 70
31, 745923, Note_on_c, 14, 54, 0
31, 745938, Note_on_c, 14, 60, 69
31, 746054, Note_on_c, 14, 60, 56
31, 746058, Note_on_c, 14, 60, 0
31, 746174, Note_on_c, 14, 60, 0
31, 746183, Note_on_c, 14, 48, 61
31, 746297, Note_on_c, 14, 60, 65
31, 746303, Note_on_c, 14, 48, 0
31, 746417, Note_on_c, 14, 60, 0
31, 746421, Note_on_c, 14, 62, 60
31, 746534, Note_on_c, 14, 60, 65
31, 746541, Note_on_c, 14, 62, 0
31, 746642, Note_on_c, 14, 48, 77
31, 746654, Note_on_c, 14, 60, 0
31, 746762, Note_on_c, 14, 48, 0
31, 746774, Note_on_c, 14, 60, 72
31, 746894, Note_on_c, 14, 60, 0
31, 746896, Note_on_c, 14, 64, 77
31, 747016, Note_on_c, 14, 64, 0
31, 747016, Note_on_c, 14, 60, 80
31, 747129, Note_on_c, 14, 48, 82
31, 747136, Note_on_c, 14, 60, 0
31, 747249, Note_on_c, 14, 48, 0
31, 747255, Note_on_c, 14, 60, 77
31, 747375, Note_on_c, 14, 60, 0
31, 747380, Note_on_c, 14, 54, 55
31, 747500, Note_on_c, 14, 54, 0
31, 747501, Note_on_c, 14, 54, 41
31, 747620, Note_on_c, 14, 48, 53
31, 747621, Note_on_c, 14, 54, 0
31, 747732, Note_on_c, 14, 54, 61
31, 747740, Note_on_c, 14, 48, 0
31, 747841, Note_on_c, 14, 56, 57
31, 747852, Note_on_c, 14, 54, 0
31, 747961, Note_on_c, 14, 56, 0
31, 747968, Note_on_c, 14, 54, 52
31, 748084, Note_on_c, 14, 48, 57
31, 748088, Note_on_c, 14, 54, 0
31, 748204, Note_on_c, 14, 48, 0
31, 748211, Note_on_c, 14, 54, 53
31, 748331, Note_on_c, 14, 54, 0
31, 748341, Note_on_c, 14, 58, 63
31, 748451, Note_on_c, 14, 54, 62
31, 748461, Note_on_c, 14, 58, 0
31, 748564, Note_on_c, 14, 48, 53
31, 748571, Note_on_c, 14, 54, 0
31, 748684, Note_on_c, 14, 48, 0
31, 748698, Note_on_c, 14, 54, 56
31, 748818, Note_on_c, 14, 54, 0
31, 748818, Note_on_c, 14, 60, 59
31, 748936, Note_on_c, 14, 60, 56
31, 748938, Note_on_c, 14, 60, 0
31, 749053, Note_on_c, 14, 48, 66
31, 749056, Note_on_c, 14, 60, 0
31, 749170, Note_on_c, 14, 60, 70
31, 749173, Note_on_c, 14, 48, 0
31, 749284, Note_on_c, 14, 62, 58
31, 749290, Note_on_c, 14, 60, 0
31, 749404, Note_on_c, 14, 62, 0
31, 749407, Note_on_c, 14, 60, 60
31, 749527, Note_on_c, 14, 60, 0
31, 749529, Note_on_c, 14, 48, 76
31, 749649, Note_on_c, 14, 48, 0
31, 749656, Note_on_c, 14, 60, 60
31, 749776, Note_on_c, 14, 60, 0
31, 749785, Note_on_c, 14, 64, 77
31, 749888, Note_on_c, 14, 60, 77
31, 749905, Note_on_c, 14, 64, 0
31, 750008, Note_on_c, 14, 60, 0
31, 750022, Note_on_c, 14, 48, 72
31, 750127, Note_on_c, 14, 60, 85
31, 750142, Note_on_c, 14, 48, 0
31, 750247, Note_on_c, 14, 60, 0
31, 750249, Note_on_c, 14, 54, 59
31, 750369, Note_on_c, 14, 54, 0
31, 750376, Note_on_c, 14, 54, 56
31, 750496, Note_on_c, 14, 54, 0
31, 750504, Note_on_c, 14, 48, 49
31, 750614, Note_on_c, 14, 54, 45
31, 750624, Note_on_c, 14, 48, 0
31, 750732, Note_on_c, 14, 56, 49
31, 750734, Note_on_c, 14, 54, 0
31, 750852, Note_on_c, 14, 56, 0
31, 750865, Note_on_c, 14, 54, 55
31, 750984, Note_on_c, 14, 48, 64
31, 750985, Note_on_c, 14, 54, 0
31, 751080, Note_on_c, 14, 54, 66
31, 751104, Note_on_c, 14, 48, 0
31, 751200, Note_on_c, 14, 54, 0
31, 751221, Note_on_c, 14, 58, 66
31, 751329, Note_on_c, 14, 54, 69
31, 751341, Note_on_c, 14, 58, 0
31, 751445, Note_on_c, 14, 48, 56
31, 751449, Note_on_c, 14, 54, 0
31, 751565, Note_on_c, 14, 48, 0
31, 751568, Note_on_c, 14, 54, 63
31, 751684, Note_on_c, 14, 60, 65
31, 751688, Note_on_c, 14, 54, 0
31, 751804, Note_on_c, 14, 60, 0
31, 751822, Note_on_c, 14, 60, 70
31, 751942, Note_on_c, 14, 60, 0
31, 751945, Note_on_c, 14, 48, 64
31, 752048, Note_on_c, 14, 60, 72
31, 752065, Note_on_c, 14, 48, 0
31, 752168, Note_on_c, 14, 60, 0
31, 752171, Note_on_c, 14, 62, 69
31, 752291, Note_on_c, 14, 62, 0
31, 752300, Note_on_c, 14, 60, 65
31, 752420, Note_on_c, 14, 60, 0
31, 752422, Note_on_c, 14, 48, 73
31, 752525, Note_on_c, 14, 60, 60
31, 752542, Note_on_c, 14, 48, 0
31, 752643, Note_on_c, 14, 64, 79
31, 752645, Note_on_c, 14, 60, 0
31, 752763, Note_on_c, 14, 64, 0
31, 752765, Note_on_c, 14, 60, 74
31, 752880, Note_on_c, 14, 48, 66
31, 752885, Note_on_c, 14, 60, 0
31, 753000, Note_on_c, 14, 48, 0
31, 753014, Note_on_c, 14, 60, 74
31, 753134, Note_on_c, 14, 60, 0
31, 753134, Note_on_c, 14, 54, 57
31, 753242, Note_on_c, 14, 54, 59
31, 753254, Note_on_c, 14, 54, 0
31, 753362, Note_on_c, 14, 54, 0
31, 753373, Note_on_c, 14, 48, 59
31, 753493, Note_on_c, 14, 48, 0
31, 753495, Note_on_c, 14, 54, 61
31, 753602, Note_on_c, 14, 56, 57
31, 753615, Note_on_c, 14, 54, 0
31, 753722, Note_on_c, 14, 56, 0
31, 753727, Note_on_c, 14, 54, 63
31, 753847, Note_on_c, 14, 54, 0
31, 753847, Note_on_c, 14, 48, 62
31, 753967, Note_on_c, 14, 48, 0
31, 753975, Note_on_c, 14, 54, 56
31, 754095, Note_on_c, 14, 54, 0
31, 754105, Note_on_c, 14, 58, 59
31, 754214, Note_on_c, 14, 54, 52
31, 754225, Note_on_c, 14, 58, 0
31, 754332, Note_on_c, 14, 48, 64
31, 754334, Note_on_c, 14, 54, 0
31, 754440, Note_on_c, 14, 54, 66
31, 754452, Note_on_c, 14, 48, 0
31, 754560, Note_on_c, 14, 54, 0
31, 754568, Note_on_c, 14, 54, 41
31, 754684, Note_on_c, 14, 54, 50
31, 754688, Note_on_c, 14, 54, 0
31, 754804, Note_on_c, 14, 54, 0
31, 754822, Note_on_c, 14, 48, 51
31, 754942, Note_on_c, 14, 48, 0
31, 754944, Note_on_c, 14, 54, 56
31, 755061, Note_on_c, 14, 56, 57
31, 755064, Note_on_c, 14, 54, 0
31, 755181, Note_on_c, 14, 56, 0
31, 755183, Note_on_c, 14, 54, 55
31, 755295, Note_on_c, 14, 48, 64
31, 755303, Note_on_c, 14, 54, 0
31, 755410, Note_on_c, 14, 54, 54
31, 755415, Note_on_c, 14, 48, 0
31, 755530, Note_on_c, 14, 54, 0
31, 755531, Note_on_c, 14, 58, 58
31, 755651, Note_on_c, 14, 58, 0
31, 755659, Note_on_c, 14, 54, 52
31, 755768, Note_on_c, 14, 48, 61
31, 755779, Note_on_c, 14, 54, 0
31, 755888, Note_on_c, 14, 48, 0
31, 755900, Note_on_c, 14, 54, 71
31, 756002, Note_on_c, 14, 60, 69
31, 756020, Note_on_c, 14, 54, 0
31, 756122, Note_on_c, 14, 60, 0
31, 756124, Note_on_c, 14, 60, 73
31, 756244, Note_on_c, 14, 60, 0
31, 756248, Note_on_c, 14, 48, 63
31, 756362, Note_on_c, 14, 60, 66
31, 756368, Note_on_c, 14, 48, 0
31, 756482, Note_on_c, 14, 60, 0
31, 756492, Note_on_c, 14, 62, 64
31, 756612, Note_on_c, 14, 62, 0
31, 756623, Note_on_c, 14, 60, 62
31, 756732, Note_on_c, 14, 48, 70
31, 756743, Note_on_c, 14, 60, 0
31, 756852, Note_on_c, 14, 48, 0
31, 756852, Note_on_c, 14, 60, 60
31, 756972, Note_on_c, 14, 60, 0
31, 756976, Note_on_c, 14, 64, 82
31, 757082, Note_on_c, 14, 60, 80
31, 757096, Note_on_c, 14, 64, 0
31, 757202, Note_on_c, 14, 60, 0
31, 757220, Note_on_c, 14, 48, 72
31, 757329, Note_on_c, 14, 60, 82
31, 757340, Note_on_c, 14, 48, 0
31, 757440, Note_on_c, 14, 54, 40
31, 757449, Note_on_c, 14, 60, 0
31, 757560, Note_on_c, 14, 54, 0
31, 757579, Note_on_c, 14, 54, 47
31, 757693, Note_on_c, 14, 48, 49
31, 757699, Note_on_c, 14, 54, 0
31, 757813, Note_on_c, 14, 48, 0
31, 757821, Note_on_c, 14, 54, 49
31, 757921, Note_on_c, 14, 56, 61
31, 757941, Note_on_c, 14, 54, 0
31, 758041, Note_on_c, 14, 56, 0
31, 758045, Note_on_c, 14, 54, 57
31, 758163, Note_on_c, 14, 48, 57
31, 758165, Note_on_c, 14, 54, 0
31, 758283, Note_on_c, 14, 48, 0
31, 758303, Note_on_c, 14, 54, 48
31, 758416, Note_on_c, 14, 58, 68
31, 758423, Note_on_c, 14, 54, 0
31, 758521, Note_on_c, 14, 54, 69
31, 758536, Note_on_c, 14, 58, 0
31, 758641, Note_on_c, 14, 54, 0
31, 758660, Note_on_c, 14, 48, 61
31, 758777, Note_on_c, 14, 54, 62
31, 758780, Note_on_c, 14, 48, 0
31, 758897, Note_on_c, 14, 54, 0
31, 758903, Note_on_c, 14, 54, 52
31, 759015, Note_on_c, 14, 54, 40
31, 759023, Note_on_c, 14, 54, 0
31, 759135, Note_on_c, 14, 54, 0
31, 759140, Note_on_c, 14, 48, 43
31, 759248, Note_on_c, 14, 54, 46
31, 759260, Note_on_c, 14, 48, 0
31, 759360, Note_on_c, 14, 56, 47
31, 759368, Note_on_c, 14, 54, 0
31, 759480, Note_on_c, 14, 56, 0
31, 759498, Note_on_c, 14, 54, 54
31, 759608, Note_on_c, 14, 48, 56
31, 759618, Note_on_c, 14, 54, 0
31, 759728, Note_on_c, 14, 48, 0
31, 759734, Note_on_c, 14, 54, 59
31, 759854, Note_on_c, 14, 54, 0
31, 759856, Note_on_c, 14, 58, 62
31, 759963, Note_on_c, 14, 54, 57
31, 759976, Note_on_c, 14, 58, 0
31, 760080, Note_on_c, 14, 48, 55
31, 760083, Note_on_c, 14, 54, 0
31, 760200, Note_on_c, 14, 48, 0
31, 760200, Note_on_c, 14, 54, 62
31, 760320, Note_on_c, 14, 54, 0
31, 760342, Note_on_c, 14, 60, 61
31, 760454, Note_on_c, 14, 60, 72
31, 760462, Note_on_c, 14, 60, 0
31, 760574, Note_on_c, 14, 60, 0
31, 760582, Note_on_c, 14, 48, 63
31, 760695, Note_on_c, 14, 60, 62
31, 760702, Note_on_c, 14, 48, 0
31, 760809, Note_on_c, 14, 62, 68
31, 760815, Note_on_c, 14, 60, 0
31, 760929, Note_on_c, 14, 62, 0
31, 760933, Note_on_c, 14, 60, 60
31, 761053, Note_on_c, 14, 60, 0
31, 761055, Note_on_c, 14, 48, 69
31, 761175, Note_on_c, 14, 48, 0
31, 761184, Note_on_c, 14, 60, 69
31, 761282, Note_on_c, 14, 64, 71
31, 761304, Note_on_c, 14, 60, 0
31, 761402, Note_on_c, 14, 64, 0
31, 761420, Note_on_c, 14, 60, 76
31, 761531, Note_on_c, 14, 48, 79
31, 761540, Note_on_c, 14, 60, 0
31, 761647, Note_on_c, 14, 60, 80
31, 761651, Note_on_c, 14, 48, 0
31, 761767, Note_on_c, 14, 60, 0
31, 761785, Note_on_c, 14, 54, 52
31, 761902, Note_on_c, 14, 54, 48
31, 761905, Note_on_c, 14, 54, 0
31, 762013, Note_on_c, 14, 48, 55
31, 762022, Note_on_c, 14, 54, 0
31, 762133, Note_on_c, 14, 48, 0
31, 762137, Note_on_c, 14, 54, 52
31, 762245, Note_on_c, 14, 56, 60
31, 762257, Note_on_c, 14, 54, 0
31, 762365, Note_on_c, 14, 56, 0
31, 762366, Note_on_c, 14, 54, 49
31, 762486, Note_on_c, 14, 54, 0
31, 762505, Note_on_c, 14, 48, 53
31, 762617, Note_on_c, 14, 54, 57
31, 762625, Note_on_c, 14, 48, 0
31, 762737, Note_on_c, 14, 54, 0
31, 762744, Note_on_c, 14, 58, 60
31, 762861, Note_on_c, 14, 54, 61
31, 762864, Note_on_c, 14, 58, 0
31, 762980, Note_on_c, 14, 48, 64
31, 762981, Note_on_c, 14, 54, 0
31, 763089, Note_on_c, 14, 54, 62
31, 763100, Note_on_c, 14, 48, 0
31, 763209, Note_on_c, 14, 54, 0
31, 763213, Note_on_c, 14, 60, 63
31, 763326, Note_on_c, 14, 60, 73
31, 763333, Note_on_c, 14, 60, 0
31, 763446, Note_on_c, 14, 60, 0
31, 763461, Note_on_c, 14, 48, 56
31, 763572, Note_on_c, 14, 60, 65
31, 763581, Note_on_c, 14, 48, 0
31, 763692, Note_on_c, 14, 60, 0
31, 763703, Note_on_c, 14, 62, 60
31, 763813, Note_on_c, 14, 60, 65
31, 763823, Note_on_c, 14, 62, 0
31, 763933, Note_on_c, 14, 60, 0
31, 763938, Note_on_c, 14, 48, 76
31, 764047, Note_on_c, 14, 60, 61
31, 764058, Note_on_c, 14, 48, 0
31, 764167, Note_on_c, 14, 60, 0
31, 764182, Note_on_c, 14, 64, 67
31, 764296, Note_on_c, 14, 60, 81
31, 764302, Note_on_c, 14, 64, 0
31, 764416, Note_on_c, 14, 60, 0
31, 764419, Note_on_c, 14, 48, 79
31, 764528, Note_on_c, 14, 60, 67
31, 764539, Note_on_c, 14, 48, 0
31, 764648, Note_on_c, 14, 60, 0
31, 764656, Note_on_c, 14, 42, 39
31, 764724, Note_on_c, 14, 42, 0
31, 764732, Note_on_c, 14, 43, 41
31, 764790, Note_on_c, 14, 42, 55
31, 764800, Note_on_c, 14, 43, 0
31, 764858, Note_on_c, 14, 42, 0
31, 764866, Note_on_c, 14, 43, 54
31, 764918, Note_on_c, 14, 42, 45
31, 764934, Note_on_c, 14, 43, 0
31, 764986, Note_on_c, 14, 42, 0
31, 764988, Note_on_c, 14, 43, 59
31, 765056, Note_on_c, 14, 43, 0
31, 765071, Note_on_c, 14, 42, 40
31, 765128, Note_on_c, 14, 44, 43
31, 765136, Note_on_c, 14, 42, 0
31, 765196, Note_on_c, 14, 44, 0
31, 765212, Note_on_c, 14, 45, 50
31, 765280, Note_on_c, 14, 45, 0
31, 765281, Note_on_c, 14, 44, 52
31, 765334, Note_on_c, 14, 45, 45
31, 765349, Note_on_c, 14, 44, 0
31, 765400, Note_on_c, 14, 44, 39
31, 765402, Note_on_c, 14, 45, 0
31, 765468, Note_on_c, 14, 44, 0
31, 765469, Note_on_c, 14, 45, 42
31, 765537, Note_on_c, 14, 45, 0
31, 765537, Note_on_c, 14, 44, 53
31, 765602, Note_on_c, 14, 44, 0
31, 765608, Note_on_c, 14, 46, 52
31, 765676, Note_on_c, 14, 46, 0
31, 765679, Note_on_c, 14, 48, 51
31, 765747, Note_on_c, 14, 48, 0
31, 765757, Note_on_c, 14, 46, 56
31, 765813, Note_on_c, 14, 48, 51
31, 765825, Note_on_c, 14, 46, 0
31, 765881, Note_on_c, 14, 48, 0
31, 765894, Note_on_c, 14, 46, 58
31, 765948, Note_on_c, 14, 48, 42
31, 765962, Note_on_c, 14, 46, 0
31, 766016, Note_on_c, 14, 48, 0
31, 766034, Note_on_c, 14, 46, 58
31, 766094, Note_on_c, 14, 48, 54
31, 766099, Note_on_c, 14, 46, 0
31, 766155, Note_on_c, 14, 50, 59
31, 766162, Note_on_c, 14, 48, 0
31, 766223, Note_on_c, 14, 50, 0
31, 766225, Note_on_c, 14, 48, 42
31, 766293, Note_on_c, 14, 48, 0
31, 766299, Note_on_c, 14, 50, 50
31, 766366, Note_on_c, 14, 48, 47
31, 766367, Note_on_c, 14, 50, 0
31, 766424, Note_on_c, 14, 50, 40
31, 766434, Note_on_c, 14, 48, 0
31, 766492, Note_on_c, 14, 50, 0
31, 766505, Note_on_c, 14, 48, 58
31, 766570, Note_on_c, 14, 48, 0
31, 766572, Note_on_c, 14, 50, 58
31, 766640, Note_on_c, 14, 50, 0
31, 766642, Note_on_c, 14, 52, 43
31, 766706, Note_on_c, 14, 50, 58
31, 766710, Note_on_c, 14, 52, 0
31, 766769, Note_on_c, 14, 52, 48
31, 766774, Note_on_c, 14, 50, 0
31, 766837, Note_on_c, 14, 52, 0
31, 766840, Note_on_c, 14, 50, 42
31, 766905, Note_on_c, 14, 52, 59
31, 766908, Note_on_c, 14, 50, 0
31, 766973, Note_on_c, 14, 52, 0
31, 766980, Note_on_c, 14, 50, 58
31, 767040, Note_on_c, 14, 52, 39
31, 767045, Note_on_c, 14, 50, 0
31, 767108, Note_on_c, 14, 52, 0
31, 767120, Note_on_c, 14, 53, 43
31, 767188, Note_on_c, 14, 53, 0
31, 767199, Note_on_c, 14, 52, 50
31, 767267, Note_on_c, 14, 52, 0
31, 767267, Note_on_c, 14, 53, 48
31, 767319, Note_on_c, 14, 52, 56
31, 767335, Note_on_c, 14, 53, 0
31, 767385, Note_on_c, 14, 53, 59
31, 767387, Note_on_c, 14, 52, 0
31, 767453, Note_on_c, 14, 53, 0
31, 767459, Note_on_c, 14, 52, 46
31, 767524, Note_on_c, 14, 52, 0
31, 767535, Note_on_c, 14, 42, 52
31, 767595, Note_on_c, 14, 43, 49
31, 767603, Note_on_c, 14, 42, 0
31, 767663, Note_on_c, 14, 43, 0
31, 767674, Note_on_c, 14, 42, 49
31, 767733, Note_on_c, 14, 43, 58
31, 767742, Note_on_c, 14, 42, 0
31, 767801, Note_on_c, 14, 43, 0
31, 767805, Note_on_c, 14, 42, 48
31, 767872, Note_on_c, 14, 43, 61
31, 767873, Note_on_c, 14, 42, 0
31, 767938, Note_on_c, 14, 42, 51
31, 767940, Note_on_c, 14, 43, 0
31, 768000, Note_on_c, 14, 44, 50
31, 768003, Note_on_c, 14, 42, 0
31, 768068, Note_on_c, 14, 44, 0
31, 768072, Note_on_c, 14, 45, 46
31, 768140, Note_on_c, 14, 45, 0
31, 768144, Note_on_c, 14, 44, 55
31, 768212, Note_on_c, 14, 44, 0
31, 768222, Note_on_c, 14, 45, 65
31, 768290, Note_on_c, 14, 45, 0
31, 768292, Note_on_c, 14, 44, 63
31, 768360, Note_on_c, 14, 44, 0
31, 768362, Note_on_c, 14, 45, 51
31, 768414, Note_on_c, 14, 44, 51
31, 768430, Note_on_c, 14, 45, 0
31, 768479, Note_on_c, 14, 44, 0
31, 768486, Note_on_c, 14, 46, 59
31, 768554, Note_on_c, 14, 46, 0
31, 768560, Note_on_c, 14, 48, 64
31, 768625, Note_on_c, 14, 46, 58
31, 768628, Note_on_c, 14, 48, 0
31, 768692, Note_on_c, 14, 48, 71
31, 768693, Note_on_c, 14, 46, 0
31, 768754, Note_on_c, 14, 46, 68
31, 768760, Note_on_c, 14, 48, 0
31, 768822, Note_on_c, 14, 46, 0
31, 768831, Note_on_c, 14, 48, 54
31, 768899, Note_on_c, 14, 48, 0
31, 768909, Note_on_c, 14, 46, 65
31, 768974, Note_on_c, 14, 46, 0
31, 768977, Note_on_c, 14, 48, 65
31, 769045, Note_on_c, 14, 48, 0
31, 769053, Note_on_c, 14, 50, 63
31, 769104, Note_on_c, 14, 48, 68
31, 769121, Note_on_c, 14, 50, 0
31, 769166, Note_on_c, 14, 50, 64
31, 769172, Note_on_c, 14, 48, 0
31, 769234, Note_on_c, 14, 50, 0
31, 769234, Note_on_c, 14, 48, 62
31, 769302, Note_on_c, 14, 48, 0
31, 769315, Note_on_c, 14, 50, 64
31, 769370, Note_on_c, 14, 48, 77
31, 769383, Note_on_c, 14, 50, 0
31, 769435, Note_on_c, 14, 48, 0
31, 769453, Note_on_c, 14, 50, 71
31, 769521, Note_on_c, 14, 50, 0
31, 769522, Note_on_c, 14, 52, 80
31, 769590, Note_on_c, 14, 52, 0
31, 769593, Note_on_c, 14, 50, 65
31, 769646, Note_on_c, 14, 52, 70
31, 769661, Note_on_c, 14, 50, 0
31, 769714, Note_on_c, 14, 52, 0
31, 769719, Note_on_c, 14, 50, 66
31, 769787, Note_on_c, 14, 50, 0
31, 769801, Note_on_c, 14, 52, 72
31, 769860, Note_on_c, 14, 50, 82
31, 769869, Note_on_c, 14, 52, 0
31, 769925, Note_on_c, 14, 50, 0
31, 769929, Note_on_c, 14, 52, 82
31, 769997, Note_on_c, 14, 52, 0
31, 770003, Note_on_c, 14, 53, 68
31, 770062, Note_on_c, 14, 52, 78
31, 770071, Note_on_c, 14, 53, 0
31, 770126, Note_on_c, 14, 53, 87
31, 770130, Note_on_c, 14, 52, 0
31, 770194, Note_on_c, 14, 53, 0
31, 770197, Note_on_c, 14, 52, 87
31, 770265, Note_on_c, 14, 52, 0
31, 770268, Note_on_c, 14, 53, 79
31, 770336, Note_on_c, 14, 53, 0
31, 770338, Note_on_c, 14, 52, 84
31, 770403, Note_on_c, 14, 52, 0
31, 770413, Note_on_c, 14, 54, 81
31, 770481, Note_on_c, 14, 54, 0
31, 770483, Note_on_c, 14, 55, 74
31, 770542, Note_on_c, 14, 54, 90
31, 770551, Note_on_c, 14, 55, 0
31, 770610, Note_on_c, 14, 54, 0
31, 770624, Note_on_c, 14, 55, 82
31, 770685, Note_on_c, 14, 54, 82
31, 770692, Note_on_c, 14, 55, 0
31, 770745, Note_on_c, 14, 55, 76
31, 770753, Note_on_c, 14, 54, 0
31, 770813, Note_on_c, 14, 55, 0
31, 770822, Note_on_c, 14, 54, 95
31, 770883, Note_on_c, 14, 56, 76
31, 770887, Note_on_c, 14, 54, 0
31, 770951, Note_on_c, 14, 56, 0
31, 770958, Note_on_c, 14, 57, 90
31, 771016, Note_on_c, 14, 56, 80
31, 771026, Note_on_c, 14, 57, 0
31, 771084, Note_on_c, 14, 56, 0
31, 771094, Note_on_c, 14, 57, 96
31, 771161, Note_on_c, 14, 56, 92
31, 771162, Note_on_c, 14, 57, 0
31, 771229, Note_on_c, 14, 56, 0
31, 771230, Note_on_c, 14, 57, 97
31, 771298, Note_on_c, 14, 57, 0
31, 771311, Note_on_c, 14, 56, 92
31, 771373, Note_on_c, 14, 58, 86
31, 771376, Note_on_c, 14, 56, 0
31, 771429, Note_on_c, 14, 60, 87
31, 771441, Note_on_c, 14, 58, 0
31, 771497, Note_on_c, 14, 60, 0
31, 771507, Note_on_c, 14, 58, 84
31, 771575, Note_on_c, 14, 58, 0
31, 771588, Note_on_c, 14, 60, 98
31, 771644, Note_on_c, 14, 58, 98
31, 771656, Note_on_c, 14, 60, 0
31, 771712, Note_on_c, 14, 58, 0
31, 771715, Note_on_c, 14, 60, 89
31, 771780, Note_on_c, 14, 58, 87
31, 771783, Note_on_c, 14, 60, 0
31, 771845, Note_on_c, 14, 58, 0
31, 771851, Note_on_c, 14, 60, 94
31, 771919, Note_on_c, 14, 60, 0
31, 771923, Note_on_c, 14, 62, 92
31, 771983, Note_on_c, 14, 60, 92
31, 771991, Note_on_c, 14, 62, 0
31, 772051, Note_on_c, 14, 60, 0
31, 772068, Note_on_c, 14, 62, 93
31, 772118, Note_on_c, 14, 60, 90
31, 772136, Note_on_c, 14, 62, 0
31, 772186, Note_on_c, 14, 60, 0
31, 772198, Note_on_c, 14, 62, 109
31, 772259, Note_on_c, 14, 60, 93
31, 772266, Note_on_c, 14, 62, 0
31, 772324, Note_on_c, 14, 60, 0
31, 772336, Note_on_c, 14, 62, 106
31, 772397, Note_on_c, 14, 64, 95
31, 772404, Note_on_c, 14, 62, 0
31, 772465, Note_on_c, 14, 64, 0
31, 772478, Note_on_c, 14, 62, 108
31, 772541, Note_on_c, 14, 64, 104
31, 772546, Note_on_c, 14, 62, 0
31, 772609, Note_on_c, 14, 64, 0
31, 772611, Note_on_c, 14, 62, 111
31, 772679, Note_on_c, 14, 62, 0
31, 772679, Note_on_c, 14, 64, 109
31, 772747, Note_on_c, 14, 64, 0
31, 772754, Note_on_c, 14, 62, 116
31, 772800, Note_on_c, 14, 64, 111
31, 772819, Note_on_c, 14, 62, 0
31, 772868, Note_on_c, 14, 64, 0
31, 772885, Note_on_c, 14, 65, 107
31, 772951, Note_on_c, 14, 64, 117
31, 772953, Note_on_c, 14, 65, 0
31, 773019, Note_on_c, 14, 64, 0
31, 773025, Note_on_c, 14, 65, 113
31, 773086, Note_on_c, 14, 64, 116
31, 773093, Note_on_c, 14, 65, 0
31, 773154, Note_on_c, 14, 64, 0
31, 773159, Note_on_c, 14, 65, 103
31, 773214, Note_on_c, 14, 64, 121
31, 773227, Note_on_c, 14, 65, 0
31, 773279, Note_on_c, 14, 64, 0
31, 773279, End_track
32, 0, Start_track
32, 0, Title_t, "Violoncelli II"
32, 0, MIDI_port, 0
32, 0, Program_c, 14, 45
32, 66560, Program_c, 15, 45
32, 66564, Note_on_c, 15, 47, 73
32, 66723, Note_on_c, 15, 47, 0
32, 66885, Note_on_c, 15, 47, 74
32, 67045, Note_on_c, 15, 47, 0
32, 67220, Note_on_c, 15, 47, 69
32, 67379, Note_on_c, 15, 47, 0
32, 67523, Note_on_c, 15, 47, 65
32, 67682, Note_on_c, 15, 47, 0
32, 67853, Note_on_c, 15, 47, 64
32, 68013, Note_on_c, 15, 47, 0
32, 68163, Note_on_c, 15, 47, 71
32, 68322, Note_on_c, 15, 47, 0
32, 68504, Note_on_c, 15, 47, 55
32, 68663, Note_on_c, 15, 47, 0
32, 68810, Note_on_c, 15, 47, 74
32, 68970, Note_on_c, 15, 47, 0
32, 69129, Note_on_c, 15, 47, 60
32, 69288, Note_on_c, 15, 47, 0
32, 69442, Note_on_c, 15, 47, 70
32, 69601, Note_on_c, 15, 47, 0
32, 69776, Note_on_c, 15, 47, 55
32, 69936, Note_on_c, 15, 47, 0
32, 70094, Note_on_c, 15, 47, 59
32, 70253, Note_on_c, 15, 47, 0
32, 70418, Note_on_c, 15, 47, 72
32, 70577, Note_on_c, 15, 47, 0
32, 70722, Note_on_c, 15, 47, 71
32, 70882, Note_on_c, 15, 47, 0
32, 71062, Note_on_c, 15, 47, 55
32, 71221, Note_on_c, 15, 47, 0
32, 71384, Note_on_c, 15, 47, 67
32, 71543, Note_on_c, 15, 47, 0
32, 198240, Program_c, 14, 42
32, 198260, Note_on_c, 14, 70, 69
32, 198732, Note_on_c, 14, 70, 62
32, 198740, Note_on_c, 14, 70, 0
32, 199212, Note_on_c, 14, 70, 0
32, 199216, Note_on_c, 14, 70, 66
32, 199694, Note_on_c, 14, 70, 67
32, 199696, Note_on_c, 14, 70, 0
32, 200173, Note_on_c, 14, 72, 69
32, 200174, Note_on_c, 14, 70, 0
32, 200406, Note_on_c, 14, 73, 64
32, 200413, Note_on_c, 14, 72, 0
32, 200646, Note_on_c, 14, 73, 0
32, 200648, Note_on_c, 14, 75, 54
32, 201128, Note_on_c, 14, 75, 0
32, 201135, Note_on_c, 14, 73, 63
32, 201610, Note_on_c, 14, 72, 72
32, 201615, Note_on_c, 14, 73, 0
32, 202090, Note_on_c, 14, 72, 0
32, 202104, Note_on_c, 14, 70, 64
32, 202567, Note_on_c, 14, 70, 62
32, 202584, Note_on_c, 14, 70, 0
32, 203047, Note_on_c, 14, 70, 0
32, 203050, Note_on_c, 14, 72, 73
32, 203290, Note_on_c, 14, 72, 0
32, 203292, Note_on_c, 14, 73, 54
32, 203532, Note_on_c, 14, 73, 0
32, 203536, Note_on_c, 14, 75, 68
32, 204001, Note_on_c, 14, 70, 72
32, 204016, Note_on_c, 14, 75, 0
32, 204481, Note_on_c, 14, 70, 0
32, 204500, Note_on_c, 14, 70, 72
32, 204970, Note_on_c, 14, 72, 73
32, 204980, Note_on_c, 14, 70, 0
32, 205210, Note_on_c, 14, 72, 0
32, 205217, Note_on_c, 14, 73, 61
32, 205457, Note_on_c, 14, 73, 0
32, 205465, Note_on_c, 14, 75, 69
32, 205944, Note_on_c, 14, 73, 59
32, 205945, Note_on_c, 14, 75, 0
32, 206419, Note_on_c, 14, 72, 56
32, 206424, Note_on_c, 14, 73, 0
32, 206894, Note_on_c, 14, 70, 62
32, 206899, Note_on_c, 14, 72, 0
32, 207360, Note_on_c, 14, 70, 60
32, 207374, Note_on_c, 14, 70, 0
32, 207840, Note_on_c, 14, 70, 0
32, 207847, Note_on_c, 14, 72, 62
32, 208087, Note_on_c, 14, 72, 0
32, 208097, Note_on_c, 14, 73, 61
32, 208337, Note_on_c, 14, 73, 0
32, 208343, Note_on_c, 14, 75, 56
32, 208583, Note_on_c, 14, 75, 0
32, 209056, Note_on_c, 14, 70, 56
32, 209776, Note_on_c, 14, 70, 0
32, 209778, Note_on_c, 14, 70, 66
32, 210244, Note_on_c, 14, 70, 60
32, 210258, Note_on_c, 14, 70, 0
32, 210724, Note_on_c, 14, 70, 0
32, 210724, Note_on_c, 14, 72, 60
32, 210964, Note_on_c, 14, 72, 0
32, 210964, Note_on_c, 14, 73, 68
32, 211204, Note_on_c, 14, 73, 0
32, 211224, Note_on_c, 14, 75, 61
32, 211680, Program_c, 15, 45
32, 211688, Note_on_c, 15, 61, 45
32, 211704, Note_on_c, 14, 75, 0
32, 211920, Note_on_c, 15, 58, 41
32, 211928, Note_on_c, 15, 61, 0
32, 212160, Note_on_c, 15, 58, 0
32, 212172, Note_on_c, 15, 63, 41
32, 212409, Note_on_c, 15, 58, 56
32, 212412, Note_on_c, 15, 63, 0
32, 212649, Note_on_c, 15, 58, 0
32, 212657, Note_on_c, 15, 61, 50
32, 212897, Note_on_c, 15, 61, 0
32, 212903, Note_on_c, 15, 58, 42
32, 213131, Note_on_c, 15, 63, 56
32, 213143, Note_on_c, 15, 58, 0
32, 213361, Note_on_c, 15, 58, 55
32, 213371, Note_on_c, 15, 63, 0
32, 213601, Note_on_c, 15, 58, 0
32, 213619, Note_on_c, 15, 61, 49
32, 213842, Note_on_c, 15, 58, 39
32, 213859, Note_on_c, 15, 61, 0
32, 214082, Note_on_c, 15, 58, 0
32, 214104, Note_on_c, 15, 63, 58
32, 214322, Note_on_c, 15, 58, 42
32, 214344, Note_on_c, 15, 63, 0
32, 214562, Note_on_c, 15, 58, 0
32, 214570, Note_on_c, 15, 61, 52
32, 214808, Note_on_c, 15, 58, 41
32, 214810, Note_on_c, 15, 61, 0
32, 215048, Note_on_c, 15, 58, 0
32, 215051, Note_on_c, 15, 63, 49
32, 215291, Note_on_c, 15, 63, 0
32, 215292, Note_on_c, 15, 58, 52
32, 215524, Note_on_c, 15, 61, 47
32, 215532, Note_on_c, 15, 58, 0
32, 215764, Note_on_c, 15, 61, 0
32, 215771, Note_on_c, 15, 58, 48
32, 216011, Note_on_c, 15, 58, 0
32, 216019, Note_on_c, 15, 63, 53
32, 216248, Note_on_c, 15, 58, 43
32, 216259, Note_on_c, 15, 63, 0
32, 216485, Note_on_c, 15, 61, 47
32, 216488, Note_on_c, 15, 58, 0
32, 216721, Note_on_c, 15, 58, 47
32, 216725, Note_on_c, 15, 61, 0
32, 216961, Note_on_c, 15, 58, 0
32, 216983, Note_on_c, 15, 63, 43
32, 217210, Note_on_c, 15, 58, 58
32, 217223, Note_on_c, 15, 63, 0
32, 217450, Note_on_c, 15, 58, 0
32, 217465, Note_on_c, 15, 61, 52
32, 217687, Note_on_c, 15, 58, 52
32, 217705, Note_on_c, 15, 61, 0
32, 217920, Note_on_c, 15, 63, 42
32, 217927, Note_on_c, 15, 58, 0
32, 218160, Note_on_c, 15, 63, 0
32, 218168, Note_on_c, 15, 58, 39
32, 218408, Note_on_c, 15, 58, 0
32, 218410, Note_on_c, 15, 61, 40
32, 218650, Note_on_c, 15, 61, 0
32, 218658, Note_on_c, 15, 58, 59
32, 218898, Note_on_c, 15, 58, 0
32, 218899, Note_on_c, 15, 63, 57
32, 219126, Note_on_c, 15, 58, 53
32, 219139, Note_on_c, 15, 63, 0
32, 219366, Note_on_c, 15, 58, 0
32, 221520, Program_c, 14, 45
32, 221537, Note_on_c, 14, 60, 109
32, 221777, Note_on_c, 14, 60, 0
32, 222017, Note_on_c, 14, 60, 108
32, 222257, Note_on_c, 14, 60, 0
32, 234960, Program_c, 10, 45
32, 234977, Note_on_c, 10, 53, 95
32, 235217, Note_on_c, 10, 53, 0
32, 235442, Note_on_c, 10, 51, 109
32, 235682, Note_on_c, 10, 51, 0
32, 235925, Note_on_c, 10, 41, 103
32, 236165, Note_on_c, 10, 41, 0
32, 236425, Note_on_c, 10, 43, 113
32, 236665, Note_on_c, 10, 43, 0
32, 236891, Note_on_c, 10, 53, 105
32, 237131, Note_on_c, 10, 53, 0
32, 237362, Note_on_c, 10, 51, 115
32, 237602, Note_on_c, 10, 51, 0
32, 237843, Note_on_c, 10, 43, 96
32, 238083, Note_on_c, 10, 43, 0
32, 238327, Note_on_c, 10, 43, 97
32, 238567, Note_on_c, 10, 43, 0
32, 238582, Note_on_c, 14, 64, 120
32, 238689, Note_on_c, 14, 62, 106
32, 238702, Note_on_c, 14, 64, 0
32, 238800, Note_on_c, 14, 60, 102
32, 238809, Note_on_c, 14, 62, 0
32, 238847, Note_on_c, 14, 60, 0
32, 238920, Note_on_c, 14, 59, 106
32, 238967, Note_on_c, 14, 59, 0
32, 239053, Note_on_c, 14, 65, 120
32, 239173, Note_on_c, 14, 65, 0
32, 239180, Note_on_c, 14, 64, 102
32, 239280, Note_on_c, 14, 62, 103
32, 239300, Note_on_c, 14, 64, 0
32, 239327, Note_on_c, 14, 62, 0
32, 239400, Note_on_c, 14, 60, 96
32, 239447, Note_on_c, 14, 60, 0
32, 239529, Note_on_c, 14, 67, 116
32, 239649, Note_on_c, 14, 67, 0
32, 239658, Note_on_c, 14, 65, 100
32, 239760, Note_on_c, 14, 63, 102
32, 239778, Note_on_c, 14, 65, 0
32, 239807, Note_on_c, 14, 63, 0
32, 239880, Note_on_c, 14, 62, 102
32, 239927, Note_on_c, 14, 62, 0
32, 240005, Note_on_c, 14, 65, 118
32, 240125, Note_on_c, 14, 65, 0
32, 240127, Note_on_c, 14, 63, 104
32, 240240, Note_on_c, 14, 62, 106
32, 240247, Note_on_c, 14, 63, 0
32, 240287, Note_on_c, 14, 62, 0
32, 240360, Note_on_c, 14, 60, 95
32, 240407, Note_on_c, 14, 60, 0
32, 240491, Note_on_c, 14, 63, 123
32, 240611, Note_on_c, 14, 63, 0
32, 240616, Note_on_c, 14, 62, 108
32, 240720, Note_on_c, 14, 60, 98
32, 240736, Note_on_c, 14, 62, 0
32, 240767, Note_on_c, 14, 60, 0
32, 240840, Note_on_c, 14, 59, 91
32, 240887, Note_on_c, 14, 59, 0
32, 240963, Note_on_c, 14, 65, 127
32, 241083, Note_on_c, 14, 65, 0
32, 241092, Note_on_c, 14, 63, 91
32, 241200, Note_on_c, 14, 62, 106
32, 241212, Note_on_c, 14, 63, 0
32, 241247, Note_on_c, 14, 62, 0
32, 241320, Note_on_c, 14, 60, 107
32, 241367, Note_on_c, 14, 60, 0
32, 378723, Note_on_c, 13, 46, 71
32, 378733, Note_on_c, 13, 39, 82
32, 379083, Note_on_c, 13, 46, 0
32, 379093, Note_on_c, 13, 39, 0
32, 379206, Note_on_c, 13, 54, 74
32, 379566, Note_on_c, 13, 54, 0
32, 379688, Note_on_c, 13, 54, 74
32, 380048, Note_on_c, 13, 54, 0
32, 380165, Note_on_c, 13, 54, 85
32, 380525, Note_on_c, 13, 54, 0
32, 380653, Note_on_c, 13, 39, 79
32, 380655, Note_on_c, 13, 46, 68
32, 381013, Note_on_c, 13, 39, 0
32, 381015, Note_on_c, 13, 46, 0
32, 381140, Note_on_c, 13, 54, 76
32, 381500, Note_on_c, 13, 54, 0
32, 381604, Note_on_c, 13, 54, 79
32, 381964, Note_on_c, 13, 54, 0
32, 382104, Note_on_c, 13, 54, 74
32, 382464, Note_on_c, 13, 54, 0
32, 382577, Note_on_c, 13, 39, 74
32, 382581, Note_on_c, 13, 46, 65
32, 382937, Note_on_c, 13, 39, 0
32, 382941, Note_on_c, 13, 46, 0
32, 383056, Note_on_c, 13, 54, 81
32, 383416, Note_on_c, 13, 54, 0
32, 383542, Note_on_c, 13, 54, 72
32, 383902, Note_on_c, 13, 54, 0
32, 384025, Note_on_c, 13, 54, 65
32, 384385, Note_on_c, 13, 54, 0
32, 384484, Note_on_c, 13, 46, 77
32, 384493, Note_on_c, 13, 39, 74
32, 384604, Note_on_c, 13, 46, 0
32, 384613, Note_on_c, 13, 39, 0
32, 386410, Note_on_c, 13, 39, 82
32, 386410, Note_on_c, 13, 46, 79
32, 386770, Note_on_c, 13, 39, 0
32, 386770, Note_on_c, 13, 46, 0
32, 386890, Note_on_c, 13, 54, 83
32, 387250, Note_on_c, 13, 54, 0
32, 387385, Note_on_c, 13, 54, 77
32, 387745, Note_on_c, 13, 54, 0
32, 387865, Note_on_c, 13, 54, 68
32, 388225, Note_on_c, 13, 54, 0
32, 388334, Note_on_c, 13, 46, 78
32, 388339, Note_on_c, 13, 39, 66
32, 388694, Note_on_c, 13, 46, 0
32, 388699, Note_on_c, 13, 39, 0
32, 388816, Note_on_c, 13, 54, 65
32, 389176, Note_on_c, 13, 54, 0
32, 389301, Note_on_c, 13, 54, 79
32, 389661, Note_on_c, 13, 54, 0
32, 389766, Note_on_c, 13, 54, 71
32, 390126, Note_on_c, 13, 54, 0
32, 390250, Note_on_c, 13, 46, 71
32, 390263, Note_on_c, 13, 39, 79
32, 390490, Note_on_c, 13, 46, 0
32, 390503, Note_on_c, 13, 39, 0
32, 393600, Note_on_c, 13, 46, 67
32, 393614, Note_on_c, 13, 39, 78
32, 394080, Note_on_c, 13, 46, 0
32, 394094, Note_on_c, 13, 39, 0
32, 395526, Note_on_c, 13, 39, 66
32, 395528, Note_on_c, 13, 46, 77
32, 396006, Note_on_c, 13, 39, 0
32, 396008, Note_on_c, 13, 46, 0
32, 397447, Note_on_c, 13, 46, 70
32, 397458, Note_on_c, 13, 39, 79
32, 397927, Note_on_c, 13, 46, 0
32, 397938, Note_on_c, 13, 39, 0
32, 399362, Note_on_c, 13, 46, 75
32, 399382, Note_on_c, 13, 39, 77
32, 399842, Note_on_c, 13, 46, 0
32, 399862, Note_on_c, 13, 39, 0
32, 401293, Note_on_c, 13, 39, 68
32, 401301, Note_on_c, 13, 46, 83
32, 401773, Note_on_c, 13, 39, 0
32, 401781, Note_on_c, 13, 46, 0
32, 403202, Note_on_c, 13, 46, 70
32, 403218, Note_on_c, 13, 39, 71
32, 403682, Note_on_c, 13, 46, 0
32, 403698, Note_on_c, 13, 39, 0
32, 405131, Note_on_c, 13, 39, 71
32, 405133, Note_on_c, 13, 46, 68
32, 405611, Note_on_c, 13, 39, 0
32, 405613, Note_on_c, 13, 46, 0
32, 407057, Note_on_c, 13, 46, 80
32, 407058, Note_on_c, 13, 39, 80
32, 407537, Note_on_c, 13, 46, 0
32, 407538, Note_on_c, 13, 39, 0
32, 408971, Note_on_c, 13, 39, 73
32, 408982, Note_on_c, 13, 46, 76
32, 409451, Note_on_c, 13, 39, 0
32, 409462, Note_on_c, 13, 46, 0
32, 410893, Note_on_c, 13, 46, 66
32, 410901, Note_on_c, 13, 39, 81
32, 411373, Note_on_c, 13, 46, 0
32, 411381, Note_on_c, 13, 39, 0
32, 412815, Note_on_c, 13, 39, 69
32, 412824, Note_on_c, 13, 46, 72
32, 413295, Note_on_c, 13, 39, 0
32, 413304, Note_on_c, 13, 46, 0
32, 415684, Note_on_c, 13, 39, 66
32, 415702, Note_on_c, 13, 46, 70
32, 416044, Note_on_c, 13, 39, 0
32, 416062, Note_on_c, 13, 46, 0
32, 416181, Note_on_c, 13, 54, 84
32, 416541, Note_on_c, 13, 54, 0
32, 416658, Note_on_c, 13, 54, 78
32, 417018, Note_on_c, 13, 54, 0
32, 417132, Note_on_c, 13, 54, 84
32, 417492, Note_on_c, 13, 54, 0
32, 417607, Note_on_c, 13, 39, 66
32, 417624, Note_on_c, 13, 46, 73
32, 417967, Note_on_c, 13, 39, 0
32, 417984, Note_on_c, 13, 46, 0
32, 418096, Note_on_c, 13, 54, 67
32, 418456, Note_on_c, 13, 54, 0
32, 418582, Note_on_c, 13, 54, 70
32, 418942, Note_on_c, 13, 54, 0
32, 419045, Note_on_c, 13, 54, 83
32, 419405, Note_on_c, 13, 54, 0
32, 419537, Note_on_c, 13, 46, 82
32, 419540, Note_on_c, 13, 39, 70
32, 419657, Note_on_c, 13, 46, 0
32, 419660, Note_on_c, 13, 39, 0
32, 421451, Note_on_c, 13, 46, 67
32, 421459, Note_on_c, 13, 39, 75
32, 421811, Note_on_c, 13, 46, 0
32, 421819, Note_on_c, 13, 39, 0
32, 421920, Note_on_c, 13, 54, 68
32, 422280, Note_on_c, 13, 54, 0
32, 422425, Note_on_c, 13, 54, 72
32, 422785, Note_on_c, 13, 54, 0
32, 422898, Note_on_c, 13, 54, 84
32, 423258, Note_on_c, 13, 54, 0
32, 423375, Note_on_c, 13, 46, 85
32, 423384, Note_on_c, 13, 39, 74
32, 423615, Note_on_c, 13, 46, 0
32, 423624, Note_on_c, 13, 39, 0
32, 561990, Note_on_c, 14, 43, 65
32, 562020, Note_on_c, 14, 43, 0
32, 562020, Note_on_c, 14, 44, 77
32, 562050, Note_on_c, 14, 44, 0
32, 562050, Note_on_c, 14, 45, 82
32, 562080, Note_on_c, 14, 45, 0
32, 562090, Note_on_c, 14, 46, 67
32, 562210, Note_on_c, 14, 46, 0
32, 562470, Note_on_c, 14, 43, 67
32, 562500, Note_on_c, 14, 43, 0
32, 562500, Note_on_c, 14, 44, 68
32, 562530, Note_on_c, 14, 44, 0
32, 562530, Note_on_c, 14, 45, 78
32, 562560, Note_on_c, 14, 45, 0
32, 562573, Note_on_c, 14, 46, 82
32, 562693, Note_on_c, 14, 46, 0
32, 565464, Note_on_c, 14, 42, 96
32, 565528, Note_on_c, 14, 43, 93
32, 565544, Note_on_c, 14, 42, 0
32, 565607, Note_on_c, 14, 43, 0
32, 565617, Note_on_c, 14, 42, 79
32, 565692, Note_on_c, 14, 40, 82
32, 565697, Note_on_c, 14, 42, 0
32, 565812, Note_on_c, 14, 40, 0
32, 565932, Note_on_c, 14, 42, 89
32, 566012, Note_on_c, 14, 42, 0
32, 566022, Note_on_c, 14, 43, 85
32, 566079, Note_on_c, 14, 42, 82
32, 566101, Note_on_c, 14, 43, 0
32, 566159, Note_on_c, 14, 42, 0
32, 566175, Note_on_c, 14, 40, 97
32, 566295, Note_on_c, 14, 40, 0
32, 566416, Note_on_c, 14, 42, 80
32, 566496, Note_on_c, 14, 42, 0
32, 566505, Note_on_c, 14, 43, 82
32, 566564, Note_on_c, 14, 42, 91
32, 566584, Note_on_c, 14, 43, 0
32, 566640, Note_on_c, 14, 40, 93
32, 566644, Note_on_c, 14, 42, 0
32, 566760, Note_on_c, 14, 40, 0
32, 566887, Note_on_c, 14, 42, 79
32, 566967, Note_on_c, 14, 42, 0
32, 566979, Note_on_c, 14, 43, 79
32, 567058, Note_on_c, 14, 43, 0
32, 567058, Note_on_c, 14, 42, 91
32, 567138, Note_on_c, 14, 42, 0
32, 567145, Note_on_c, 14, 40, 79
32, 567265, Note_on_c, 14, 40, 0
32, 567368, Note_on_c, 14, 42, 93
32, 567448, Note_on_c, 14, 42, 0
32, 567455, Note_on_c, 14, 43, 98
32, 567526, Note_on_c, 14, 42, 90
32, 567534, Note_on_c, 14, 43, 0
32, 567604, Note_on_c, 14, 40, 94
32, 567606, Note_on_c, 14, 42, 0
32, 567724, Note_on_c, 14, 40, 0
32, 567849, Note_on_c, 14, 42, 96
32, 567924, Note_on_c, 14, 43, 83
32, 567929, Note_on_c, 14, 42, 0
32, 568003, Note_on_c, 14, 43, 0
32, 568005, Note_on_c, 14, 42, 94
32, 568085, Note_on_c, 14, 42, 0
32, 568100, Note_on_c, 14, 40, 81
32, 568220, Note_on_c, 14, 40, 0
32, 568335, Note_on_c, 14, 42, 87
32, 568415, Note_on_c, 14, 42, 0
32, 568425, Note_on_c, 14, 43, 87
32, 568500, Note_on_c, 14, 42, 78
32, 568504, Note_on_c, 14, 43, 0
32, 568566, Note_on_c, 14, 40, 87
32, 568580, Note_on_c, 14, 42, 0
32, 568686, Note_on_c, 14, 40, 0
32, 568823, Note_on_c, 14, 42, 95
32, 568882, Note_on_c, 14, 43, 81
32, 568903, Note_on_c, 14, 42, 0
32, 568961, Note_on_c, 14, 43, 0
32, 568973, Note_on_c, 14, 42, 89
32, 569053, Note_on_c, 14, 42, 0
32, 569053, Note_on_c, 14, 40, 93
32, 569173, Note_on_c, 14, 40, 0
32, 569282, Note_on_c, 14, 42, 87
32, 569362, Note_on_c, 14, 42, 0
32, 569377, Note_on_c, 14, 43, 85
32, 569444, Note_on_c, 14, 42, 89
32, 569456, Note_on_c, 14, 43, 0
32, 569521, Note_on_c, 14, 40, 86
32, 569524, Note_on_c, 14, 42, 0
32, 569641, Note_on_c, 14, 40, 0
32, 569764, Note_on_c, 14, 42, 78
32, 569844, Note_on_c, 14, 42, 0
32, 569849, Note_on_c, 14, 43, 98
32, 569922, Note_on_c, 14, 42, 95
32, 569928, Note_on_c, 14, 43, 0
32, 570002, Note_on_c, 14, 42, 0
32, 570012, Note_on_c, 14, 40, 88
32, 570132, Note_on_c, 14, 40, 0
32, 570247, Note_on_c, 14, 42, 85
32, 570327, Note_on_c, 14, 42, 0
32, 570327, Note_on_c, 14, 43, 88
32, 570402, Note_on_c, 14, 42, 89
32, 570406, Note_on_c, 14, 43, 0
32, 570482, Note_on_c, 14, 42, 0
32, 570503, Note_on_c, 14, 40, 78
32, 570623, Note_on_c, 14, 40, 0
32, 570740, Note_on_c, 14, 42, 84
32, 570804, Note_on_c, 14, 43, 92
32, 570820, Note_on_c, 14, 42, 0
32, 570883, Note_on_c, 14, 43, 0
32, 570895, Note_on_c, 14, 42, 88
32, 570967, Note_on_c, 14, 40, 84
32, 570975, Note_on_c, 14, 42, 0
32, 571087, Note_on_c, 14, 40, 0
32, 571221, Note_on_c, 14, 42, 86
32, 571298, Note_on_c, 14, 43, 88
32, 571301, Note_on_c, 14, 42, 0
32, 571365, Note_on_c, 14, 42, 81
32, 571377, Note_on_c, 14, 43, 0
32, 571442, Note_on_c, 14, 40, 94
32, 571445, Note_on_c, 14, 42, 0
32, 571562, Note_on_c, 14, 40, 0
32, 571697, Note_on_c, 14, 42, 79
32, 571776, Note_on_c, 14, 43, 97
32, 571777, Note_on_c, 14, 42, 0
32, 571855, Note_on_c, 14, 43, 0
32, 571863, Note_on_c, 14, 42, 81
32, 571931, Note_on_c, 14, 40, 82
32, 571943, Note_on_c, 14, 42, 0
32, 572051, Note_on_c, 14, 40, 0
32, 572172, Note_on_c, 14, 42, 92
32, 572252, Note_on_c, 14, 42, 0
32, 572257, Note_on_c, 14, 43, 93
32, 572322, Note_on_c, 14, 42, 78
32, 572336, Note_on_c, 14, 43, 0
32, 572402, Note_on_c, 14, 42, 0
32, 572408, Note_on_c, 14, 40, 93
32, 572528, Note_on_c, 14, 40, 0
32, 572654, Note_on_c, 14, 42, 92
32, 572734, Note_on_c, 14, 42, 0
32, 572737, Note_on_c, 14, 43, 82
32, 572816, Note_on_c, 14, 43, 0
32, 572820, Note_on_c, 14, 42, 84
32, 572890, Note_on_c, 14, 40, 78
32, 572900, Note_on_c, 14, 42, 0
32, 573010, Note_on_c, 14, 40, 0
32, 573120, Note_on_c, 14, 42, 92
32, 573200, Note_on_c, 14, 42, 0
32, 573203, Note_on_c, 14, 43, 89
32, 573282, Note_on_c, 14, 43, 0
32, 573290, Note_on_c, 14, 42, 78
32, 573367, Note_on_c, 14, 40, 83
32, 573370, Note_on_c, 14, 42, 0
32, 573487, Note_on_c, 14, 40, 0
32, 573611, Note_on_c, 14, 42, 78
32, 573691, Note_on_c, 14, 42, 0
32, 573697, Note_on_c, 14, 43, 82
32, 573769, Note_on_c, 14, 42, 94
32, 573776, Note_on_c, 14, 43, 0
32, 573841, Note_on_c, 14, 40, 86
32, 573849, Note_on_c, 14, 42, 0
32, 573961, Note_on_c, 14, 40, 0
32, 574083, Note_on_c, 14, 42, 93
32, 574163, Note_on_c, 14, 42, 0
32, 574165, Note_on_c, 14, 43, 91
32, 574244, Note_on_c, 14, 43, 0
32, 574262, Note_on_c, 14, 42, 87
32, 574330, Note_on_c, 14, 40, 78
32, 574342, Note_on_c, 14, 42, 0
32, 574450, Note_on_c, 14, 40, 0
32, 574585, Note_on_c, 14, 42, 87
32, 574660, Note_on_c, 14, 43, 85
32, 574665, Note_on_c, 14, 42, 0
32, 574724, Note_on_c, 14, 42, 92
32, 574739, Note_on_c, 14, 43, 0
32, 574804, Note_on_c, 14, 42, 0
32, 574806, Note_on_c, 14, 40, 98
32, 574926, Note_on_c, 14, 40, 0
32, 575057, Note_on_c, 14, 42, 85
32, 575137, Note_on_c, 14, 42, 0
32, 575138, Note_on_c, 14, 43, 93
32, 575217, Note_on_c, 14, 43, 0
32, 575219, Note_on_c, 14, 42, 94
32, 575299, Note_on_c, 14, 42, 0
32, 575300, Note_on_c, 14, 40, 79
32, 575420, Note_on_c, 14, 40, 0
32, 575532, Note_on_c, 14, 42, 85
32, 575612, Note_on_c, 14, 42, 0
32, 575619, Note_on_c, 14, 43, 89
32, 575690, Note_on_c, 14, 42, 84
32, 575698, Note_on_c, 14, 43, 0
32, 575770, Note_on_c, 14, 42, 0
32, 575770, Note_on_c, 14, 40, 92
32, 575890, Note_on_c, 14, 40, 0
32, 576025, Note_on_c, 14, 42, 81
32, 576089, Note_on_c, 14, 43, 97
32, 576105, Note_on_c, 14, 42, 0
32, 576165, Note_on_c, 14, 42, 91
32, 576168, Note_on_c, 14, 43, 0
32, 576245, Note_on_c, 14, 42, 0
32, 576262, Note_on_c, 14, 40, 78
32, 576382, Note_on_c, 14, 40, 0
32, 576493, Note_on_c, 14, 42, 84
32, 576571, Note_on_c, 14, 43, 85
32, 576573, Note_on_c, 14, 42, 0
32, 576650, Note_on_c, 14, 43, 0
32, 576659, Note_on_c, 14, 42, 85
32, 576729, Note_on_c, 14, 40, 97
32, 576739, Note_on_c, 14, 42, 0
32, 576849, Note_on_c, 14, 40, 0
32, 576962, Note_on_c, 14, 42, 88
32, 577042, Note_on_c, 14, 42, 0
32, 577056, Note_on_c, 14, 43, 83
32, 577135, Note_on_c, 14, 43, 0
32, 577141, Note_on_c, 14, 42, 81
32, 577200, Note_on_c, 14, 40, 88
32, 577221, Note_on_c, 14, 42, 0
32, 577320, Note_on_c, 14, 40, 0
32, 577464, Note_on_c, 14, 42, 87
32, 577544, Note_on_c, 14, 42, 0
32, 577544, Note_on_c, 14, 43, 98
32, 577615, Note_on_c, 14, 42, 83
32, 577623, Note_on_c, 14, 43, 0
32, 577689, Note_on_c, 14, 40, 85
32, 577695, Note_on_c, 14, 42, 0
32, 577809, Note_on_c, 14, 40, 0
32, 577929, Note_on_c, 14, 42, 96
32, 578004, Note_on_c, 14, 43, 94
32, 578009, Note_on_c, 14, 42, 0
32, 578083, Note_on_c, 14, 43, 0
32, 578088, Note_on_c, 14, 42, 84
32, 578166, Note_on_c, 14, 40, 94
32, 578168, Note_on_c, 14, 42, 0
32, 578286, Note_on_c, 14, 40, 0
32, 578400, Note_on_c, 14, 42, 78
32, 578480, Note_on_c, 14, 42, 0
32, 578489, Note_on_c, 14, 43, 98
32, 578562, Note_on_c, 14, 42, 96
32, 578568, Note_on_c, 14, 43, 0
32, 578642, Note_on_c, 14, 42, 0
32, 578661, Note_on_c, 14, 40, 79
32, 578781, Note_on_c, 14, 40, 0
32, 578885, Note_on_c, 14, 42, 97
32, 578965, Note_on_c, 14, 42, 0
32, 578980, Note_on_c, 14, 43, 85
32, 579049, Note_on_c, 14, 42, 84
32, 579059, Note_on_c, 14, 43, 0
32, 579129, Note_on_c, 14, 42, 0
32, 579144, Note_on_c, 14, 40, 81
32, 579264, Note_on_c, 14, 40, 0
32, 579375, Note_on_c, 14, 42, 92
32, 579445, Note_on_c, 14, 43, 86
32, 579455, Note_on_c, 14, 42, 0
32, 579524, Note_on_c, 14, 43, 0
32, 579541, Note_on_c, 14, 42, 81
32, 579621, Note_on_c, 14, 42, 0
32, 579621, Note_on_c, 14, 40, 88
32, 579741, Note_on_c, 14, 40, 0
32, 579858, Note_on_c, 14, 42, 88
32, 579928, Note_on_c, 14, 43, 83
32, 579938, Note_on_c, 14, 42, 0
32, 580007, Note_on_c, 14, 43, 0
32, 580011, Note_on_c, 14, 42, 89
32, 580082, Note_on_c, 14, 40, 98
32, 580091, Note_on_c, 14, 42, 0
32, 580202, Note_on_c, 14, 40, 0
32, 580331, Note_on_c, 14, 42, 78
32, 580407, Note_on_c, 14, 43, 80
32, 580411, Note_on_c, 14, 42, 0
32, 580486, Note_on_c, 14, 43, 0
32, 580503, Note_on_c, 14, 42, 80
32, 580562, Note_on_c, 14, 40, 79
32, 580583, Note_on_c, 14, 42, 0
32, 580682, Note_on_c, 14, 40, 0
32, 580814, Note_on_c, 14, 42, 95
32, 580894, Note_on_c, 14, 42, 0
32, 580899, Note_on_c, 14, 43, 87
32, 580978, Note_on_c, 14, 43, 0
32, 580984, Note_on_c, 14, 42, 81
32, 581040, Note_on_c, 14, 40, 82
32, 581064, Note_on_c, 14, 42, 0
32, 581160, Note_on_c, 14, 40, 0
32, 581297, Note_on_c, 14, 42, 91
32, 581372, Note_on_c, 14, 43, 98
32, 581377, Note_on_c, 14, 42, 0
32, 581440, Note_on_c, 14, 42, 88
32, 581451, Note_on_c, 14, 43, 0
32, 581520, Note_on_c, 14, 42, 0
32, 581539, Note_on_c, 14, 40, 88
32, 581659, Note_on_c, 14, 40, 0
32, 581763, Note_on_c, 14, 42, 96
32, 581843, Note_on_c, 14, 42, 0
32, 581848, Note_on_c, 14, 43, 87
32, 581927, Note_on_c, 14, 43, 0
32, 581929, Note_on_c, 14, 42, 98
32, 582000, Note_on_c, 14, 40, 80
32, 582009, Note_on_c, 14, 42, 0
32, 582120, Note_on_c, 14, 40, 0
32, 582248, Note_on_c, 14, 42, 78
32, 582328, Note_on_c, 14, 42, 0
32, 582344, Note_on_c, 14, 43, 83
32, 582418, Note_on_c, 14, 42, 83
32, 582423, Note_on_c, 14, 43, 0
32, 582491, Note_on_c, 14, 40, 78
32, 582498, Note_on_c, 14, 42, 0
32, 582611, Note_on_c, 14, 40, 0
32, 582734, Note_on_c, 14, 42, 97
32, 582814, Note_on_c, 14, 42, 0
32, 582824, Note_on_c, 14, 43, 79
32, 582894, Note_on_c, 14, 42, 87
32, 582903, Note_on_c, 14, 43, 0
32, 582969, Note_on_c, 14, 40, 80
32, 582974, Note_on_c, 14, 42, 0
32, 583089, Note_on_c, 14, 40, 0
32, 583204, Note_on_c, 14, 42, 79
32, 583284, Note_on_c, 14, 42, 0
32, 583303, Note_on_c, 14, 43, 98
32, 583377, Note_on_c, 14, 42, 85
32, 583382, Note_on_c, 14, 43, 0
32, 583448, Note_on_c, 14, 40, 97
32, 583457, Note_on_c, 14, 42, 0
32, 583568, Note_on_c, 14, 40, 0
32, 583682, Note_on_c, 14, 42, 95
32, 583762, Note_on_c, 14, 42, 0
32, 583773, Note_on_c, 14, 43, 81
32, 583844, Note_on_c, 14, 42, 98
32, 583852, Note_on_c, 14, 43, 0
32, 583924, Note_on_c, 14, 42, 0
32, 583945, Note_on_c, 14, 40, 91
32, 584065, Note_on_c, 14, 40, 0
32, 584172, Note_on_c, 14, 42, 82
32, 584248, Note_on_c, 14, 43, 95
32, 584252, Note_on_c, 14, 42, 0
32, 584327, Note_on_c, 14, 43, 0
32, 584329, Note_on_c, 14, 42, 98
32, 584409, Note_on_c, 14, 42, 0
32, 584418, Note_on_c, 14, 40, 89
32, 584538, Note_on_c, 14, 40, 0
32, 584650, Note_on_c, 14, 42, 90
32, 584730, Note_on_c, 14, 42, 0
32, 584739, Note_on_c, 14, 43, 97
32, 584806, Note_on_c, 14, 42, 96
32, 584818, Note_on_c, 14, 43, 0
32, 584886, Note_on_c, 14, 42, 0
32, 584904, Note_on_c, 14, 40, 91
32, 585024, Note_on_c, 14, 40, 0
32, 585142, Note_on_c, 14, 42, 79
32, 585221, Note_on_c, 14, 43, 88
32, 585222, Note_on_c, 14, 42, 0
32, 585292, Note_on_c, 14, 42, 82
32, 585300, Note_on_c, 14, 43, 0
32, 585361, Note_on_c, 14, 40, 79
32, 585372, Note_on_c, 14, 42, 0
32, 585481, Note_on_c, 14, 40, 0
32, 585604, Note_on_c, 14, 42, 79
32, 585684, Note_on_c, 14, 42, 0
32, 585691, Note_on_c, 14, 43, 87
32, 585770, Note_on_c, 14, 43, 0
32, 585782, Note_on_c, 14, 42, 85
32, 585846, Note_on_c, 14, 40, 90
32, 585862, Note_on_c, 14, 42, 0
32, 585966, Note_on_c, 14, 40, 0
32, 586095, Note_on_c, 14, 42, 97
32, 586175, Note_on_c, 14, 42, 0
32, 586177, Note_on_c, 14, 43, 79
32, 586256, Note_on_c, 14, 43, 0
32, 586260, Note_on_c, 14, 42, 89
32, 586340, Note_on_c, 14, 42, 0
32, 586341, Note_on_c, 14, 40, 90
32, 586461, Note_on_c, 14, 40, 0
32, 586575, Note_on_c, 14, 42, 78
32, 586655, Note_on_c, 14, 42, 0
32, 586657, Note_on_c, 14, 43, 90
32, 586736, Note_on_c, 14, 43, 0
32, 586742, Note_on_c, 14, 42, 93
32, 586816, Note_on_c, 14, 40, 85
32, 586822, Note_on_c, 14, 42, 0
32, 586936, Note_on_c, 14, 40, 0
32, 587055, Note_on_c, 14, 42, 89
32, 587135, Note_on_c, 14, 42, 0
32, 587144, Note_on_c, 14, 43, 95
32, 587200, Note_on_c, 14, 42, 88
32, 587223, Note_on_c, 14, 43, 0
32, 587280, Note_on_c, 14, 42, 0
32, 587304, Note_on_c, 14, 40, 97
32, 587424, Note_on_c, 14, 40, 0
32, 587530, Note_on_c, 14, 42, 93
32, 587610, Note_on_c, 14, 42, 0
32, 587615, Note_on_c, 14, 43, 87
32, 587694, Note_on_c, 14, 43, 0
32, 587702, Note_on_c, 14, 42, 86
32, 587775, Note_on_c, 14, 40, 79
32, 587782, Note_on_c, 14, 42, 0
32, 587895, Note_on_c, 14, 40, 0
32, 588023, Note_on_c, 14, 42, 82
32, 588099, Note_on_c, 14, 43, 90
32, 588103, Note_on_c, 14, 42, 0
32, 588176, Note_on_c, 14, 42, 98
32, 588178, Note_on_c, 14, 43, 0
32, 588256, Note_on_c, 14, 42, 0
32, 588257, Note_on_c, 14, 40, 80
32, 588377, Note_on_c, 14, 40, 0
32, 588492, Note_on_c, 14, 42, 98
32, 588572, Note_on_c, 14, 42, 0
32, 588572, Note_on_c, 14, 43, 97
32, 588649, Note_on_c, 14, 42, 78
32, 588651, Note_on_c, 14, 43, 0
32, 588729, Note_on_c, 14, 42, 0
32, 588729, Note_on_c, 14, 40, 78
32, 588849, Note_on_c, 14, 40, 0
32, 588962, Note_on_c, 14, 42, 94
32, 589042, Note_on_c, 14, 42, 0
32, 589054, Note_on_c, 14, 43, 88
32, 589127, Note_on_c, 14, 42, 81
32, 589133, Note_on_c, 14, 43, 0
32, 589207, Note_on_c, 14, 42, 0
32, 589212, Note_on_c, 14, 40, 93
32, 589332, Note_on_c, 14, 40, 0
32, 589443, Note_on_c, 14, 42, 83
32, 589523, Note_on_c, 14, 42, 0
32, 589544, Note_on_c, 14, 43, 88
32, 589620, Note_on_c, 14, 42, 92
32, 589623, Note_on_c, 14, 43, 0
32, 589689, Note_on_c, 14, 40, 92
32, 589700, Note_on_c, 14, 42, 0
32, 589809, Note_on_c, 14, 40, 0
32, 589940, Note_on_c, 14, 42, 87
32, 590020, Note_on_c, 14, 42, 0
32, 590021, Note_on_c, 14, 43, 86
32, 590099, Note_on_c, 14, 42, 96
32, 590100, Note_on_c, 14, 43, 0
32, 590166, Note_on_c, 14, 40, 93
32, 590179, Note_on_c, 14, 42, 0
32, 590286, Note_on_c, 14, 40, 0
32, 590400, Note_on_c, 14, 42, 81
32, 590480, Note_on_c, 14, 42, 0
32, 590486, Note_on_c, 14, 43, 87
32, 590565, Note_on_c, 14, 43, 0
32, 590581, Note_on_c, 14, 42, 78
32, 590646, Note_on_c, 14, 40, 81
32, 590661, Note_on_c, 14, 42, 0
32, 590766, Note_on_c, 14, 40, 0
32, 590893, Note_on_c, 14, 42, 87
32, 590973, Note_on_c, 14, 42, 0
32, 590973, Note_on_c, 14, 43, 96
32, 591052, Note_on_c, 14, 43, 0
32, 591052, Note_on_c, 14, 42, 92
32, 591121, Note_on_c, 14, 40, 81
32, 591132, Note_on_c, 14, 42, 0
32, 591241, Note_on_c, 14, 40, 0
32, 591374, Note_on_c, 14, 42, 87
32, 591454, Note_on_c, 14, 42, 0
32, 591459, Note_on_c, 14, 43, 87
32, 591519, Note_on_c, 14, 42, 85
32, 591538, Note_on_c, 14, 43, 0
32, 591599, Note_on_c, 14, 42, 0
32, 591618, Note_on_c, 14, 40, 95
32, 591738, Note_on_c, 14, 40, 0
32, 591850, Note_on_c, 14, 42, 98
32, 591930, Note_on_c, 14, 42, 0
32, 591943, Note_on_c, 14, 43, 97
32, 592022, Note_on_c, 14, 43, 0
32, 592023, Note_on_c, 14, 42, 89
32, 592102, Note_on_c, 14, 40, 81
32, 592103, Note_on_c, 14, 42, 0
32, 592222, Note_on_c, 14, 40, 0
32, 592327, Note_on_c, 14, 42, 90
32, 592407, Note_on_c, 14, 42, 0
32, 592414, Note_on_c, 14, 43, 78
32, 592493, Note_on_c, 14, 43, 0
32, 592502, Note_on_c, 14, 42, 90
32, 592579, Note_on_c, 14, 40, 98
32, 592582, Note_on_c, 14, 42, 0
32, 592699, Note_on_c, 14, 40, 0
32, 592804, Note_on_c, 14, 42, 98
32, 592884, Note_on_c, 14, 42, 0
32, 592893, Note_on_c, 14, 43, 87
32, 592969, Note_on_c, 14, 42, 96
32, 592972, Note_on_c, 14, 43, 0
32, 593049, Note_on_c, 14, 42, 0
32, 593057, Note_on_c, 14, 40, 98
32, 593177, Note_on_c, 14, 40, 0
32, 593289, Note_on_c, 14, 42, 94
32, 593369, Note_on_c, 14, 42, 0
32, 593384, Note_on_c, 14, 43, 98
32, 593443, Note_on_c, 14, 42, 94
32, 593463, Note_on_c, 14, 43, 0
32, 593523, Note_on_c, 14, 42, 0
32, 593537, Note_on_c, 14, 40, 85
32, 593657, Note_on_c, 14, 40, 0
32, 593766, Note_on_c, 14, 42, 94
32, 593846, Note_on_c, 14, 42, 0
32, 593862, Note_on_c, 14, 43, 89
32, 593931, Note_on_c, 14, 42, 88
32, 593941, Note_on_c, 14, 43, 0
32, 594006, Note_on_c, 14, 40, 82
32, 594011, Note_on_c, 14, 42, 0
32, 594126, Note_on_c, 14, 40, 0
32, 594246, Note_on_c, 14, 42, 83
32, 594326, Note_on_c, 14, 42, 0
32, 594334, Note_on_c, 14, 43, 97
32, 594403, Note_on_c, 14, 42, 96
32, 594413, Note_on_c, 14, 43, 0
32, 594483, Note_on_c, 14, 42, 0
32, 594498, Note_on_c, 14, 40, 96
32, 594618, Note_on_c, 14, 40, 0
32, 594744, Note_on_c, 14, 42, 81
32, 594800, Note_on_c, 14, 43, 88
32, 594824, Note_on_c, 14, 42, 0
32, 594879, Note_on_c, 14, 43, 0
32, 594884, Note_on_c, 14, 42, 87
32, 594964, Note_on_c, 14, 42, 0
32, 594972, Note_on_c, 14, 40, 79
32, 595092, Note_on_c, 14, 40, 0
32, 595209, Note_on_c, 14, 42, 96
32, 595289, Note_on_c, 14, 42, 0
32, 595305, Note_on_c, 14, 43, 91
32, 595384, Note_on_c, 14, 43, 0
32, 595384, Note_on_c, 14, 42, 95
32, 595445, Note_on_c, 14, 40, 80
32, 595464, Note_on_c, 14, 42, 0
32, 595565, Note_on_c, 14, 40, 0
32, 595702, Note_on_c, 14, 42, 84
32, 595770, Note_on_c, 14, 43, 91
32, 595782, Note_on_c, 14, 42, 0
32, 595849, Note_on_c, 14, 43, 0
32, 595861, Note_on_c, 14, 42, 91
32, 595935, Note_on_c, 14, 40, 82
32, 595941, Note_on_c, 14, 42, 0
32, 596055, Note_on_c, 14, 40, 0
32, 596164, Note_on_c, 14, 42, 87
32, 596243, Note_on_c, 14, 43, 89
32, 596244, Note_on_c, 14, 42, 0
32, 596322, Note_on_c, 14, 43, 0
32, 596328, Note_on_c, 14, 42, 91
32, 596408, Note_on_c, 14, 42, 0
32, 596413, Note_on_c, 14, 40, 87
32, 596533, Note_on_c, 14, 40, 0
32, 596644, Note_on_c, 14, 42, 92
32, 596724, Note_on_c, 14, 42, 0
32, 596735, Note_on_c, 14, 43, 93
32, 596802, Note_on_c, 14, 42, 84
32, 596814, Note_on_c, 14, 43, 0
32, 596882, Note_on_c, 14, 42, 0
32, 596896, Note_on_c, 14, 40, 97
32, 597016, Note_on_c, 14, 40, 0
32, 597122, Note_on_c, 14, 42, 92
32, 597202, Note_on_c, 14, 42, 0
32, 597204, Note_on_c, 14, 43, 84
32, 597283, Note_on_c, 14, 43, 0
32, 597301, Note_on_c, 14, 42, 81
32, 597370, Note_on_c, 14, 40, 94
32, 597381, Note_on_c, 14, 42, 0
32, 597490, Note_on_c, 14, 40, 0
32, 597611, Note_on_c, 14, 42, 86
32, 597690, Note_on_c, 14, 43, 84
32, 597691, Note_on_c, 14, 42, 0
32, 597767, Note_on_c, 14, 42, 92
32, 597769, Note_on_c, 14, 43, 0
32, 597847, Note_on_c, 14, 42, 0
32, 597861, Note_on_c, 14, 40, 93
32, 597981, Note_on_c, 14, 40, 0
32, 598093, Note_on_c, 14, 42, 95
32, 598161, Note_on_c, 14, 43, 78
32, 598173, Note_on_c, 14, 42, 0
32, 598240, Note_on_c, 14, 43, 0
32, 598249, Note_on_c, 14, 42, 88
32, 598327, Note_on_c, 14, 40, 96
32, 598329, Note_on_c, 14, 42, 0
32, 598447, Note_on_c, 14, 40, 0
32, 598562, Note_on_c, 14, 42, 86
32, 598642, Note_on_c, 14, 42, 0
32, 598663, Note_on_c, 14, 43, 89
32, 598741, Note_on_c, 14, 42, 92
32, 598742, Note_on_c, 14, 43, 0
32, 598813, Note_on_c, 14, 40, 81
32, 598821, Note_on_c, 14, 42, 0
32, 598933, Note_on_c, 14, 40, 0
32, 599050, Note_on_c, 14, 42, 91
32, 599130, Note_on_c, 14, 42, 0
32, 599140, Note_on_c, 14, 43, 97
32, 599209, Note_on_c, 14, 42, 80
32, 599219, Note_on_c, 14, 43, 0
32, 599289, Note_on_c, 14, 42, 0
32, 599297, Note_on_c, 14, 40, 80
32, 599417, Note_on_c, 14, 40, 0
32, 599531, Note_on_c, 14, 42, 96
32, 599611, Note_on_c, 14, 42, 0
32, 599622, Note_on_c, 14, 43, 82
32, 599693, Note_on_c, 14, 42, 85
32, 599701, Note_on_c, 14, 43, 0
32, 599773, Note_on_c, 14, 42, 0
32, 599775, Note_on_c, 14, 40, 96
32, 599895, Note_on_c, 14, 40, 0
32, 600008, Note_on_c, 14, 42, 88
32, 600082, Note_on_c, 14, 43, 91
32, 600088, Note_on_c, 14, 42, 0
32, 600161, Note_on_c, 14, 43, 0
32, 600171, Note_on_c, 14, 42, 81
32, 600251, Note_on_c, 14, 42, 0
32, 600263, Note_on_c, 14, 40, 84
32, 600383, Note_on_c, 14, 40, 0
32, 600493, Note_on_c, 14, 42, 88
32, 600573, Note_on_c, 14, 42, 0
32, 600583, Note_on_c, 14, 43, 85
32, 600650, Note_on_c, 14, 42, 88
32, 600662, Note_on_c, 14, 43, 0
32, 600730, Note_on_c, 14, 42, 0
32, 600740, Note_on_c, 14, 40, 84
32, 600860, Note_on_c, 14, 40, 0
32, 600965, Note_on_c, 14, 42, 87
32, 601041, Note_on_c, 14, 43, 79
32, 601045, Note_on_c, 14, 42, 0
32, 601120, Note_on_c, 14, 43, 0
32, 601120, Note_on_c, 14, 42, 79
32, 601200, Note_on_c, 14, 42, 0
32, 601219, Note_on_c, 14, 40, 89
32, 601339, Note_on_c, 14, 40, 0
32, 601445, Note_on_c, 14, 42, 92
32, 601525, Note_on_c, 14, 42, 0
32, 601525, Note_on_c, 14, 43, 95
32, 601604, Note_on_c, 14, 43, 0
32, 601606, Note_on_c, 14, 42, 91
32, 601686, Note_on_c, 14, 42, 0
32, 601691, Note_on_c, 14, 40, 84
32, 601811, Note_on_c, 14, 40, 0
32, 601943, Note_on_c, 14, 42, 85
32, 602001, Note_on_c, 14, 43, 87
32, 602023, Note_on_c, 14, 42, 0
32, 602080, Note_on_c, 14, 43, 0
32, 602085, Note_on_c, 14, 42, 82
32, 602165, Note_on_c, 14, 42, 0
32, 602165, Note_on_c, 14, 40, 83
32, 602285, Note_on_c, 14, 40, 0
32, 602412, Note_on_c, 14, 42, 89
32, 602492, Note_on_c, 14, 42, 0
32, 602503, Note_on_c, 14, 43, 93
32, 602575, Note_on_c, 14, 42, 93
32, 602582, Note_on_c, 14, 43, 0
32, 602655, Note_on_c, 14, 42, 0
32, 602658, Note_on_c, 14, 40, 78
32, 602778, Note_on_c, 14, 40, 0
32, 602905, Note_on_c, 14, 42, 96
32, 602971, Note_on_c, 14, 43, 85
32, 602985, Note_on_c, 14, 42, 0
32, 603050, Note_on_c, 14, 43, 0
32, 603059, Note_on_c, 14, 42, 80
32, 603139, Note_on_c, 14, 42, 0
32, 603140, Note_on_c, 14, 40, 97
32, 603260, Note_on_c, 14, 40, 0
32, 603376, Note_on_c, 14, 42, 80
32, 603444, Note_on_c, 14, 43, 84
32, 603456, Note_on_c, 14, 42, 0
32, 603523, Note_on_c, 14, 43, 0
32, 603539, Note_on_c, 14, 42, 90
32, 603619, Note_on_c, 14, 42, 0
32, 603624, Note_on_c, 14, 40, 95
32, 603744, Note_on_c, 14, 40, 0
32, 603855, Note_on_c, 14, 42, 85
32, 603935, Note_on_c, 14, 42, 0
32, 603945, Note_on_c, 14, 43, 95
32, 604022, Note_on_c, 14, 42, 96
32, 604024, Note_on_c, 14, 43, 0
32, 604083, Note_on_c, 14, 40, 84
32, 604102, Note_on_c, 14, 42, 0
32, 604203, Note_on_c, 14, 40, 0
32, 685459, Note_on_c, 14, 68, 14
32, 685461, Note_on_c, 14, 62, 31
32, 686899, Note_on_c, 14, 68, 0
32, 686901, Note_on_c, 14, 62, 0
32, 764661, Note_on_c, 14, 54, 26
32, 764799, Note_on_c, 14, 36, 14
32, 764820, Note_on_c, 14, 54, 0
32, 764959, Note_on_c, 14, 36, 0
32, 764972, Note_on_c, 14, 44, 22
32, 765131, Note_on_c, 14, 44, 0
32, 765295, Note_on_c, 14, 36, 27
32, 765455, Note_on_c, 14, 36, 0
32, 765458, Note_on_c, 14, 44, 30
32, 765617, Note_on_c, 14, 44, 0
32, 765776, Note_on_c, 14, 36, 28
32, 765936, Note_on_c, 14, 36, 0
32, 765938, Note_on_c, 14, 47, 30
32, 766097, Note_on_c, 14, 47, 0
32, 766244, Note_on_c, 14, 36, 19
32, 766404, Note_on_c, 14, 36, 0
32, 766420, Note_on_c, 14, 47, 19
32, 766579, Note_on_c, 14, 47, 0
32, 766741, Note_on_c, 14, 36, 21
32, 766884, Note_on_c, 14, 47, 27
32, 766901, Note_on_c, 14, 36, 0
32, 767043, Note_on_c, 14, 47, 0
32, 767206, Note_on_c, 14, 36, 29
32, 767366, Note_on_c, 14, 36, 0
32, 767370, Note_on_c, 14, 47, 15
32, 767529, Note_on_c, 14, 47, 0
32, 767529, End_track
33, 0, Start_track
33, 0, Title_t, "Contrabbassi I"
33, 0, MIDI_port, 0
33, 0, Program_c, 15, 45
33, 0, Control_c, 15, 7, 108
33, 0, Control_c, 15, 10, 84
33, 0, Control_c, 15, 91, 127
33, 0, Control_c, 15, 11, 127
33, 48960, Program_c, 15, 43
33, 48978, Note_on_c, 15, 34, 84
33, 54738, Note_on_c, 15, 34, 0
33, 60960, Program_c, 15, 45
33, 61142, Note_on_c, 15, 35, 85
33, 61302, Note_on_c, 15, 35, 0
33, 61462, Note_on_c, 15, 35, 80
33, 61621, Note_on_c, 15, 35, 0
33, 61767, Note_on_c, 15, 35, 76
33, 61926, Note_on_c, 15, 35, 0
33, 62083, Note_on_c, 15, 35, 75
33, 62243, Note_on_c, 15, 35, 0
33, 62406, Note_on_c, 15, 35, 82
33, 62565, Note_on_c, 15, 35, 0
33, 62741, Note_on_c, 15, 35, 66
33, 62900, Note_on_c, 15, 35, 0
33, 63057, Note_on_c, 15, 35, 85
33, 63217, Note_on_c, 15, 35, 0
33, 63360, Note_on_c, 15, 35, 71
33, 63519, Note_on_c, 15, 35, 0
33, 63684, Note_on_c, 15, 35, 81
33, 63843, Note_on_c, 15, 35, 0
33, 64007, Note_on_c, 15, 35, 66
33, 64167, Note_on_c, 15, 35, 0
33, 64340, Note_on_c, 15, 35, 70
33, 64499, Note_on_c, 15, 35, 0
33, 64644, Note_on_c, 15, 35, 83
33, 64803, Note_on_c, 15, 35, 0
33, 64976, Note_on_c, 15, 35, 82
33, 65136, Note_on_c, 15, 35, 0
33, 65304, Note_on_c, 15, 35, 66
33, 65463, Note_on_c, 15, 35, 0
33, 65610, Note_on_c, 15, 35, 78
33, 65769, Note_on_c, 15, 35, 0
33, 65926, Note_on_c, 15, 35, 80
33, 66086, Note_on_c, 15, 35, 0
33, 66242, Note_on_c, 15, 35, 73
33, 66401, Note_on_c, 15, 35, 0
33, 66573, Note_on_c, 15, 35, 77
33, 66732, Note_on_c, 15, 35, 0
33, 66885, Note_on_c, 15, 35, 78
33, 67045, Note_on_c, 15, 35, 0
33, 67213, Note_on_c, 15, 35, 80
33, 67372, Note_on_c, 15, 35, 0
33, 67529, Note_on_c, 15, 35, 75
33, 67688, Note_on_c, 15, 35, 0
33, 67856, Note_on_c, 15, 35, 65
33, 68016, Note_on_c, 15, 35, 0
33, 68185, Note_on_c, 15, 35, 74
33, 68344, Note_on_c, 15, 35, 0
33, 68485, Note_on_c, 15, 35, 83
33, 68644, Note_on_c, 15, 35, 0
33, 68805, Note_on_c, 15, 35, 75
33, 68965, Note_on_c, 15, 35, 0
33, 69132, Note_on_c, 15, 35, 73
33, 69291, Note_on_c, 15, 35, 0
33, 69463, Note_on_c, 15, 35, 84
33, 69622, Note_on_c, 15, 35, 0
33, 69767, Note_on_c, 15, 35, 65
33, 69927, Note_on_c, 15, 35, 0
33, 70103, Note_on_c, 15, 35, 79
33, 70262, Note_on_c, 15, 35, 0
33, 70409, Note_on_c, 15, 35, 83
33, 70568, Note_on_c, 15, 35, 0
33, 70734, Note_on_c, 15, 35, 83
33, 70894, Note_on_c, 15, 35, 0
33, 71059, Note_on_c, 15, 35, 84
33, 71218, Note_on_c, 15, 35, 0
33, 71372, Note_on_c, 15, 35, 72
33, 71531, Note_on_c, 15, 35, 0
33, 84000, Program_c, 15, 48
33, 84002, Note_on_c, 15, 47, 93
33, 84020, Note_on_c, 15, 40, 83
33, 84097, Note_on_c, 15, 47, 0
33, 84115, Note_on_c, 15, 40, 0
33, 84241, Note_on_c, 15, 47, 80
33, 84249, Note_on_c, 15, 40, 86
33, 84336, Note_on_c, 15, 47, 0
33, 84344, Note_on_c, 15, 40, 0
33, 84492, Note_on_c, 15, 40, 84
33, 84501, Note_on_c, 15, 47, 86
33, 84587, Note_on_c, 15, 40, 0
33, 84596, Note_on_c, 15, 47, 0
33, 84723, Note_on_c, 15, 47, 85
33, 84739, Note_on_c, 15, 40, 80
33, 84818, Note_on_c, 15, 47, 0
33, 84834, Note_on_c, 15, 40, 0
33, 84968, Note_on_c, 15, 47, 80
33, 84972, Note_on_c, 15, 40, 90
33, 85063, Note_on_c, 15, 47, 0
33, 85067, Note_on_c, 15, 40, 0
33, 85201, Note_on_c, 15, 47, 84
33, 85205, Note_on_c, 15, 40, 84
33, 85296, Note_on_c, 15, 47, 0
33, 85300, Note_on_c, 15, 40, 0
33, 85457, Note_on_c, 15, 47, 92
33, 85461, Note_on_c, 15, 40, 85
33, 85552, Note_on_c, 15, 47, 0
33, 85556, Note_on_c, 15, 40, 0
33, 85691, Note_on_c, 15, 40, 84
33, 85693, Note_on_c, 15, 47, 80
33, 85786, Note_on_c, 15, 40, 0
33, 85788, Note_on_c, 15, 47, 0
33, 85927, Note_on_c, 15, 47, 80
33, 85940, Note_on_c, 15, 40, 95
33, 86022, Note_on_c, 15, 47, 0
33, 86035, Note_on_c, 15, 40, 0
33, 86160, Note_on_c, 15, 40, 111
33, 86166, Note_on_c, 15, 47, 103
33, 86255, Note_on_c, 15, 40, 0
33, 86261, Note_on_c, 15, 47, 0
33, 86400, Note_on_c, 15, 47, 95
33, 86412, Note_on_c, 15, 40, 94
33, 86495, Note_on_c, 15, 47, 0
33, 86507, Note_on_c, 15, 40, 0
33, 86644, Note_on_c, 15, 40, 110
33, 86655, Note_on_c, 15, 47, 100
33, 86739, Note_on_c, 15, 40, 0
33, 86750, Note_on_c, 15, 47, 0
33, 86883, Note_on_c, 15, 47, 97
33, 86886, Note_on_c, 15, 40, 81
33, 86978, Note_on_c, 15, 47, 0
33, 86981, Note_on_c, 15, 40, 0
33, 87131, Note_on_c, 15, 47, 91
33, 87132, Note_on_c, 15, 40, 80
33, 87226, Note_on_c, 15, 47, 0
33, 87227, Note_on_c, 15, 40, 0
33, 87370, Note_on_c, 15, 40, 88
33, 87375, Note_on_c, 15, 47, 91
33, 87465, Note_on_c, 15, 40, 0
33, 87470, Note_on_c, 15, 47, 0
33, 87609, Note_on_c, 15, 40, 86
33, 87614, Note_on_c, 15, 47, 87
33, 87704, Note_on_c, 15, 40, 0
33, 87709, Note_on_c, 15, 47, 0
33, 87859, Note_on_c, 15, 40, 92
33, 87861, Note_on_c, 15, 47, 82
33, 87954, Note_on_c, 15, 40, 0
33, 87956, Note_on_c, 15, 47, 0
33, 88081, Note_on_c, 15, 40, 108
33, 88084, Note_on_c, 15, 47, 108
33, 88176, Note_on_c, 15, 40, 0
33, 88179, Note_on_c, 15, 47, 0
33, 88336, Note_on_c, 15, 40, 82
33, 88338, Note_on_c, 15, 47, 97
33, 88431, Note_on_c, 15, 40, 0
33, 88433, Note_on_c, 15, 47, 0
33, 88567, Note_on_c, 15, 40, 91
33, 88579, Note_on_c, 15, 47, 91
33, 88662, Note_on_c, 15, 40, 0
33, 88674, Note_on_c, 15, 47, 0
33, 88818, Note_on_c, 15, 47, 103
33, 88824, Note_on_c, 15, 40, 100
33, 88913, Note_on_c, 15, 47, 0
33, 88919, Note_on_c, 15, 40, 0
33, 89050, Note_on_c, 15, 40, 79
33, 89065, Note_on_c, 15, 47, 98
33, 89145, Note_on_c, 15, 40, 0
33, 89160, Note_on_c, 15, 47, 0
33, 89283, Note_on_c, 15, 40, 96
33, 89293, Note_on_c, 15, 47, 92
33, 89378, Note_on_c, 15, 40, 0
33, 89388, Note_on_c, 15, 47, 0
33, 89531, Note_on_c, 15, 40, 92
33, 89535, Note_on_c, 15, 47, 91
33, 89626, Note_on_c, 15, 40, 0
33, 89630, Note_on_c, 15, 47, 0
33, 89766, Note_on_c, 15, 40, 100
33, 89785, Note_on_c, 15, 47, 114
33, 89861, Note_on_c, 15, 40, 0
33, 89880, Note_on_c, 15, 47, 0
33, 90003, Note_on_c, 15, 47, 86
33, 90012, Note_on_c, 15, 40, 96
33, 90098, Note_on_c, 15, 47, 0
33, 90107, Note_on_c, 15, 40, 0
33, 90242, Note_on_c, 15, 40, 88
33, 90263, Note_on_c, 15, 47, 98
33, 90337, Note_on_c, 15, 40, 0
33, 90358, Note_on_c, 15, 47, 0
33, 90488, Note_on_c, 15, 40, 79
33, 90496, Note_on_c, 15, 47, 80
33, 90583, Note_on_c, 15, 40, 0
33, 90591, Note_on_c, 15, 47, 0
33, 90734, Note_on_c, 15, 47, 82
33, 90744, Note_on_c, 15, 40, 93
33, 90829, Note_on_c, 15, 47, 0
33, 90839, Note_on_c, 15, 40, 0
33, 90968, Note_on_c, 15, 40, 111
33, 90985, Note_on_c, 15, 47, 115
33, 91063, Note_on_c, 15, 40, 0
33, 91080, Note_on_c, 15, 47, 0
33, 91204, Note_on_c, 15, 40, 82
33, 91205, Note_on_c, 15, 47, 89
33, 91299, Note_on_c, 15, 40, 0
33, 91300, Note_on_c, 15, 47, 0
33, 91450, Note_on_c, 15, 40, 90
33, 91460, Note_on_c, 15, 47, 83
33, 91545, Note_on_c, 15, 40, 0
33, 91555, Note_on_c, 15, 47, 0
33, 95524, Note_on_c, 15, 40, 78
33, 95541, Note_on_c, 15, 47, 87
33, 95619, Note_on_c, 15, 40, 0
33, 95636, Note_on_c, 15, 47, 0
33, 95775, Note_on_c, 15, 40, 89
33, 95785, Note_on_c, 15, 47, 89
33, 95870, Note_on_c, 15, 40, 0
33, 95880, Note_on_c, 15, 47, 0
33, 96002, Note_on_c, 15, 40, 80
33, 96002, Note_on_c, 15, 47, 91
33, 96097, Note_on_c, 15, 40, 0
33, 96097, Note_on_c, 15, 47, 0
33, 96257, Note_on_c, 15, 47, 93
33, 96264, Note_on_c, 15, 40, 82
33, 96352, Note_on_c, 15, 47, 0
33, 96359, Note_on_c, 15, 40, 0
33, 96484, Note_on_c, 15, 40, 85
33, 96499, Note_on_c, 15, 47, 95
33, 96579, Note_on_c, 15, 40, 0
33, 96594, Note_on_c, 15, 47, 0
33, 96732, Note_on_c, 15, 40, 107
33, 96733, Note_on_c, 15, 47, 100
33, 96827, Note_on_c, 15, 40, 0
33, 96828, Note_on_c, 15, 47, 0
33, 96979, Note_on_c, 15, 47, 98
33, 96985, Note_on_c, 15, 40, 78
33, 97074, Note_on_c, 15, 47, 0
33, 97080, Note_on_c, 15, 40, 0
33, 97202, Note_on_c, 15, 40, 115
33, 97203, Note_on_c, 15, 47, 116
33, 97297, Note_on_c, 15, 40, 0
33, 97298, Note_on_c, 15, 47, 0
33, 97462, Note_on_c, 15, 40, 84
33, 97464, Note_on_c, 15, 47, 95
33, 97557, Note_on_c, 15, 40, 0
33, 97559, Note_on_c, 15, 47, 0
33, 97690, Note_on_c, 15, 40, 87
33, 97702, Note_on_c, 15, 47, 87
33, 97785, Note_on_c, 15, 40, 0
33, 97797, Note_on_c, 15, 47, 0
33, 97925, Note_on_c, 15, 40, 98
33, 97943, Note_on_c, 15, 47, 92
33, 98020, Note_on_c, 15, 40, 0
33, 98038, Note_on_c, 15, 47, 0
33, 98169, Note_on_c, 15, 40, 81
33, 98175, Note_on_c, 15, 47, 89
33, 98264, Note_on_c, 15, 40, 0
33, 98270, Note_on_c, 15, 47, 0
33, 98401, Note_on_c, 15, 40, 92
33, 98419, Note_on_c, 15, 47, 87
33, 98496, Note_on_c, 15, 40, 0
33, 98514, Note_on_c, 15, 47, 0
33, 98648, Note_on_c, 15, 40, 109
33, 98650, Note_on_c, 15, 47, 100
33, 98743, Note_on_c, 15, 40, 0
33, 98745, Note_on_c, 15, 47, 0
33, 98885, Note_on_c, 15, 47, 94
33, 98886, Note_on_c, 15, 40, 85
33, 98980, Note_on_c, 15, 47, 0
33, 98981, Note_on_c, 15, 40, 0
33, 99122, Note_on_c, 15, 47, 78
33, 99135, Note_on_c, 15, 40, 90
33, 99217, Note_on_c, 15, 47, 0
33, 99230, Note_on_c, 15, 40, 0
33, 99370, Note_on_c, 15, 40, 87
33, 99384, Note_on_c, 15, 47, 95
33, 99465, Note_on_c, 15, 40, 0
33, 99479, Note_on_c, 15, 47, 0
33, 99615, Note_on_c, 15, 40, 92
33, 99619, Note_on_c, 15, 47, 96
33, 99710, Note_on_c, 15, 40, 0
33, 99714, Note_on_c, 15, 47, 0
33, 99851, Note_on_c, 15, 40, 90
33, 99858, Note_on_c, 15, 47, 81
33, 99946, Note_on_c, 15, 40, 0
33, 99953, Note_on_c, 15, 47, 0
33, 100098, Note_on_c, 15, 40, 91
33, 100100, Note_on_c, 15, 47, 79
33, 100193, Note_on_c, 15, 40, 0
33, 100195, Note_on_c, 15, 47, 0
33, 100340, Note_on_c, 15, 40, 78
33, 100342, Note_on_c, 15, 47, 92
33, 100435, Note_on_c, 15, 40, 0
33, 100437, Note_on_c, 15, 47, 0
33, 100571, Note_on_c, 15, 47, 84
33, 100575, Note_on_c, 15, 40, 84
33, 100666, Note_on_c, 15, 47, 0
33, 100670, Note_on_c, 15, 40, 0
33, 100804, Note_on_c, 15, 40, 92
33, 100805, Note_on_c, 15, 47, 80
33, 100899, Note_on_c, 15, 40, 0
33, 100900, Note_on_c, 15, 47, 0
33, 101044, Note_on_c, 15, 47, 91
33, 101045, Note_on_c, 15, 40, 79
33, 101139, Note_on_c, 15, 47, 0
33, 101140, Note_on_c, 15, 40, 0
33, 101286, Note_on_c, 15, 47, 90
33, 101295, Note_on_c, 15, 40, 83
33, 101381, Note_on_c, 15, 47, 0
33, 101390, Note_on_c, 15, 40, 0
33, 101523, Note_on_c, 15, 47, 92
33, 101538, Note_on_c, 15, 40, 88
33, 101618, Note_on_c, 15, 47, 0
33, 101633, Note_on_c, 15, 40, 0
33, 101765, Note_on_c, 15, 40, 90
33, 101765, Note_on_c, 15, 47, 81
33, 101860, Note_on_c, 15, 40, 0
33, 101860, Note_on_c, 15, 47, 0
33, 102001, Note_on_c, 15, 47, 96
33, 102022, Note_on_c, 15, 40, 83
33, 102096, Note_on_c, 15, 47, 0
33, 102117, Note_on_c, 15, 40, 0
33, 102249, Note_on_c, 15, 40, 84
33, 102263, Note_on_c, 15, 47, 84
33, 102344, Note_on_c, 15, 40, 0
33, 102358, Note_on_c, 15, 47, 0
33, 102488, Note_on_c, 15, 40, 81
33, 102490, Note_on_c, 15, 47, 93
33, 102583, Note_on_c, 15, 40, 0
33, 102585, Note_on_c, 15, 47, 0
33, 102733, Note_on_c, 15, 47, 93
33, 102737, Note_on_c, 15, 40, 86
33, 102828, Note_on_c, 15, 47, 0
33, 102832, Note_on_c, 15, 40, 0
33, 102977, Note_on_c, 15, 40, 89
33, 102977, Note_on_c, 15, 47, 79
33, 103072, Note_on_c, 15, 40, 0
33, 103072, Note_on_c, 15, 47, 0
33, 103203, Note_on_c, 15, 40, 94
33, 103215, Note_on_c, 15, 47, 82
33, 103298, Note_on_c, 15, 40, 0
33, 103310, Note_on_c, 15, 47, 0
33, 103444, Note_on_c, 15, 40, 85
33, 103454, Note_on_c, 15, 47, 79
33, 103539, Note_on_c, 15, 40, 0
33, 103549, Note_on_c, 15, 47, 0
33, 103685, Note_on_c, 15, 47, 83
33, 103700, Note_on_c, 15, 40, 97
33, 103780, Note_on_c, 15, 47, 0
33, 103795, Note_on_c, 15, 40, 0
33, 103925, Note_on_c, 15, 47, 91
33, 103938, Note_on_c, 15, 40, 97
33, 104020, Note_on_c, 15, 47, 0
33, 104033, Note_on_c, 15, 40, 0
33, 104176, Note_on_c, 15, 40, 79
33, 104183, Note_on_c, 15, 47, 86
33, 104271, Note_on_c, 15, 40, 0
33, 104278, Note_on_c, 15, 47, 0
33, 104406, Note_on_c, 15, 40, 80
33, 104409, Note_on_c, 15, 47, 83
33, 104501, Note_on_c, 15, 40, 0
33, 104504, Note_on_c, 15, 47, 0
33, 104645, Note_on_c, 15, 40, 96
33, 104659, Note_on_c, 15, 47, 95
33, 104740, Note_on_c, 15, 40, 0
33, 104754, Note_on_c, 15, 47, 0
33, 104882, Note_on_c, 15, 47, 83
33, 104888, Note_on_c, 15, 40, 80
33, 104977, Note_on_c, 15, 47, 0
33, 104983, Note_on_c, 15, 40, 0
33, 105120, Program_c, 15, 45
33, 105138, Note_on_c, 15, 39, 80
33, 105376, Note_on_c, 15, 46, 73
33, 105378, Note_on_c, 15, 39, 0
33, 105616, Note_on_c, 15, 46, 0
33, 107776, Note_on_c, 15, 46, 77
33, 108008, Note_on_c, 15, 39, 89
33, 108016, Note_on_c, 15, 46, 0
33, 108241, Note_on_c, 15, 46, 90
33, 108248, Note_on_c, 15, 39, 0
33, 108481, Note_on_c, 15, 46, 0
33, 109202, Note_on_c, 15, 46, 79
33, 109442, Note_on_c, 15, 46, 0
33, 109448, Note_on_c, 15, 39, 70
33, 109688, Note_on_c, 15, 39, 0
33, 109699, Note_on_c, 15, 46, 82
33, 109939, Note_on_c, 15, 46, 0
33, 110657, Note_on_c, 15, 46, 87
33, 110897, Note_on_c, 15, 46, 0
33, 110897, Note_on_c, 15, 39, 72
33, 111135, Note_on_c, 15, 46, 72
33, 111137, Note_on_c, 15, 39, 0
33, 111375, Note_on_c, 15, 46, 0
33, 112093, Note_on_c, 15, 46, 73
33, 112326, Note_on_c, 15, 39, 83
33, 112333, Note_on_c, 15, 46, 0
33, 112566, Note_on_c, 15, 39, 0
33, 112585, Note_on_c, 15, 46, 87
33, 112825, Note_on_c, 15, 46, 0
33, 113524, Note_on_c, 15, 46, 88
33, 113760, Note_on_c, 15, 39, 85
33, 113764, Note_on_c, 15, 46, 0
33, 114000, Note_on_c, 15, 39, 0
33, 114003, Note_on_c, 15, 46, 71
33, 114243, Note_on_c, 15, 46, 0
33, 114977, Note_on_c, 15, 46, 74
33, 115217, Note_on_c, 15, 46, 0
33, 115220, Note_on_c, 15, 39, 81
33, 115443, Note_on_c, 15, 46, 77
33, 115460, Note_on_c, 15, 39, 0
33, 115683, Note_on_c, 15, 46, 0
33, 115705, Note_on_c, 15, 53, 74
33, 115945, Note_on_c, 15, 53, 0
33, 116172, Note_on_c, 15, 53, 89
33, 116412, Note_on_c, 15, 53, 0
33, 116422, Note_on_c, 15, 46, 72
33, 116640, Program_c, 15, 48
33, 116649, Note_on_c, 15, 40, 82
33, 116655, Note_on_c, 15, 47, 91
33, 116662, Note_on_c, 15, 46, 0
33, 116744, Note_on_c, 15, 40, 0
33, 116750, Note_on_c, 15, 47, 0
33, 116889, Note_on_c, 15, 40, 93
33, 116892, Note_on_c, 15, 47, 79
33, 116984, Note_on_c, 15, 40, 0
33, 116987, Note_on_c, 15, 47, 0
33, 117125, Note_on_c, 15, 47, 79
33, 117137, Note_on_c, 15, 40, 91
33, 117220, Note_on_c, 15, 47, 0
33, 117232, Note_on_c, 15, 40, 0
33, 117361, Note_on_c, 15, 47, 79
33, 117368, Note_on_c, 15, 40, 93
33, 117456, Note_on_c, 15, 47, 0
33, 117463, Note_on_c, 15, 40, 0
33, 117613, Note_on_c, 15, 47, 98
33, 117614, Note_on_c, 15, 40, 90
33, 117708, Note_on_c, 15, 47, 0
33, 117709, Note_on_c, 15, 40, 0
33, 117845, Note_on_c, 15, 40, 94
33, 117861, Note_on_c, 15, 47, 96
33, 117940, Note_on_c, 15, 40, 0
33, 117956, Note_on_c, 15, 47, 0
33, 118090, Note_on_c, 15, 47, 83
33, 118096, Note_on_c, 15, 40, 94
33, 118185, Note_on_c, 15, 47, 0
33, 118191, Note_on_c, 15, 40, 0
33, 118321, Note_on_c, 15, 47, 81
33, 118341, Note_on_c, 15, 40, 87
33, 118416, Note_on_c, 15, 47, 0
33, 118436, Note_on_c, 15, 40, 0
33, 118560, Note_on_c, 15, 47, 87
33, 118579, Note_on_c, 15, 40, 78
33, 118655, Note_on_c, 15, 47, 0
33, 118674, Note_on_c, 15, 40, 0
33, 118805, Note_on_c, 15, 40, 109
33, 118820, Note_on_c, 15, 47, 117
33, 118900, Note_on_c, 15, 40, 0
33, 118915, Note_on_c, 15, 47, 0
33, 119052, Note_on_c, 15, 47, 81
33, 119065, Note_on_c, 15, 40, 89
33, 119147, Note_on_c, 15, 47, 0
33, 119160, Note_on_c, 15, 40, 0
33, 119294, Note_on_c, 15, 40, 115
33, 119296, Note_on_c, 15, 47, 109
33, 119389, Note_on_c, 15, 40, 0
33, 119391, Note_on_c, 15, 47, 0
33, 119528, Note_on_c, 15, 47, 85
33, 119544, Note_on_c, 15, 40, 89
33, 119623, Note_on_c, 15, 47, 0
33, 119639, Note_on_c, 15, 40, 0
33, 119768, Note_on_c, 15, 47, 86
33, 119776, Note_on_c, 15, 40, 78
33, 119863, Note_on_c, 15, 47, 0
33, 119871, Note_on_c, 15, 40, 0
33, 120002, Note_on_c, 15, 40, 98
33, 120012, Note_on_c, 15, 47, 95
33, 120097, Note_on_c, 15, 40, 0
33, 120107, Note_on_c, 15, 47, 0
33, 120240, Note_on_c, 15, 47, 88
33, 120245, Note_on_c, 15, 40, 85
33, 120335, Note_on_c, 15, 47, 0
33, 120340, Note_on_c, 15, 40, 0
33, 120480, Note_on_c, 15, 40, 88
33, 120500, Note_on_c, 15, 47, 89
33, 120575, Note_on_c, 15, 40, 0
33, 120595, Note_on_c, 15, 47, 0
33, 120723, Note_on_c, 15, 40, 100
33, 120734, Note_on_c, 15, 47, 106
33, 120818, Note_on_c, 15, 40, 0
33, 120829, Note_on_c, 15, 47, 0
33, 120973, Note_on_c, 15, 40, 92
33, 120982, Note_on_c, 15, 47, 88
33, 121068, Note_on_c, 15, 40, 0
33, 121077, Note_on_c, 15, 47, 0
33, 121220, Note_on_c, 15, 40, 84
33, 121220, Note_on_c, 15, 47, 86
33, 121315, Note_on_c, 15, 40, 0
33, 121315, Note_on_c, 15, 47, 0
33, 121450, Note_on_c, 15, 40, 110
33, 121453, Note_on_c, 15, 47, 103
33, 121545, Note_on_c, 15, 40, 0
33, 121548, Note_on_c, 15, 47, 0
33, 121691, Note_on_c, 15, 47, 94
33, 121699, Note_on_c, 15, 40, 79
33, 121786, Note_on_c, 15, 47, 0
33, 121794, Note_on_c, 15, 40, 0
33, 121920, Note_on_c, 15, 40, 97
33, 121934, Note_on_c, 15, 47, 81
33, 122015, Note_on_c, 15, 40, 0
33, 122029, Note_on_c, 15, 47, 0
33, 122172, Note_on_c, 15, 47, 82
33, 122179, Note_on_c, 15, 40, 92
33, 122267, Note_on_c, 15, 47, 0
33, 122274, Note_on_c, 15, 40, 0
33, 122412, Note_on_c, 15, 40, 115
33, 122414, Note_on_c, 15, 47, 100
33, 122507, Note_on_c, 15, 40, 0
33, 122509, Note_on_c, 15, 47, 0
33, 122647, Note_on_c, 15, 40, 93
33, 122664, Note_on_c, 15, 47, 92
33, 122742, Note_on_c, 15, 40, 0
33, 122759, Note_on_c, 15, 47, 0
33, 122890, Note_on_c, 15, 47, 82
33, 122902, Note_on_c, 15, 40, 84
33, 122985, Note_on_c, 15, 47, 0
33, 122997, Note_on_c, 15, 40, 0
33, 123123, Note_on_c, 15, 40, 78
33, 123132, Note_on_c, 15, 47, 92
33, 123218, Note_on_c, 15, 40, 0
33, 123227, Note_on_c, 15, 47, 0
33, 123372, Note_on_c, 15, 40, 89
33, 123380, Note_on_c, 15, 47, 78
33, 123467, Note_on_c, 15, 40, 0
33, 123475, Note_on_c, 15, 47, 0
33, 123602, Note_on_c, 15, 47, 105
33, 123612, Note_on_c, 15, 40, 100
33, 123697, Note_on_c, 15, 47, 0
33, 123707, Note_on_c, 15, 40, 0
33, 123852, Note_on_c, 15, 47, 82
33, 123861, Note_on_c, 15, 40, 94
33, 123947, Note_on_c, 15, 47, 0
33, 123956, Note_on_c, 15, 40, 0
33, 124087, Note_on_c, 15, 40, 86
33, 124103, Note_on_c, 15, 47, 93
33, 124182, Note_on_c, 15, 40, 0
33, 124198, Note_on_c, 15, 47, 0
33, 124324, Note_on_c, 15, 40, 52
33, 124332, Note_on_c, 15, 47, 48
33, 124419, Note_on_c, 15, 40, 0
33, 124427, Note_on_c, 15, 47, 0
33, 124568, Note_on_c, 15, 47, 39
33, 124579, Note_on_c, 15, 40, 48
33, 124663, Note_on_c, 15, 47, 0
33, 124674, Note_on_c, 15, 40, 0
33, 124817, Note_on_c, 15, 47, 46
33, 124821, Note_on_c, 15, 40, 53
33, 124912, Note_on_c, 15, 47, 0
33, 124916, Note_on_c, 15, 40, 0
33, 125044, Note_on_c, 15, 40, 59
33, 125064, Note_on_c, 15, 47, 46
33, 125139, Note_on_c, 15, 40, 0
33, 125159, Note_on_c, 15, 47, 0
33, 125291, Note_on_c, 15, 47, 54
33, 125302, Note_on_c, 15, 40, 55
33, 125386, Note_on_c, 15, 47, 0
33, 125397, Note_on_c, 15, 40, 0
33, 125532, Note_on_c, 15, 40, 40
33, 125544, Note_on_c, 15, 47, 46
33, 125627, Note_on_c, 15, 40, 0
33, 125639, Note_on_c, 15, 47, 0
33, 125768, Note_on_c, 15, 40, 50
33, 125773, Note_on_c, 15, 47, 45
33, 125863, Note_on_c, 15, 40, 0
33, 125868, Note_on_c, 15, 47, 0
33, 126004, Note_on_c, 15, 40, 53
33, 126017, Note_on_c, 15, 47, 42
33, 126099, Note_on_c, 15, 40, 0
33, 126112, Note_on_c, 15, 47, 0
33, 126253, Note_on_c, 15, 40, 58
33, 126256, Note_on_c, 15, 47, 52
33, 126348, Note_on_c, 15, 40, 0
33, 126351, Note_on_c, 15, 47, 0
33, 126483, Note_on_c, 15, 40, 39
33, 126494, Note_on_c, 15, 47, 45
33, 126578, Note_on_c, 15, 40, 0
33, 126589, Note_on_c, 15, 47, 0
33, 126741, Note_on_c, 15, 47, 46
33, 126745, Note_on_c, 15, 40, 46
33, 126836, Note_on_c, 15, 47, 0
33, 126840, Note_on_c, 15, 40, 0
33, 126979, Note_on_c, 15, 40, 58
33, 126983, Note_on_c, 15, 47, 49
33, 127074, Note_on_c, 15, 40, 0
33, 127078, Note_on_c, 15, 47, 0
33, 127219, Note_on_c, 15, 47, 44
33, 127224, Note_on_c, 15, 40, 42
33, 127314, Note_on_c, 15, 47, 0
33, 127319, Note_on_c, 15, 40, 0
33, 127459, Note_on_c, 15, 40, 110
33, 127459, Note_on_c, 15, 47, 109
33, 127554, Note_on_c, 15, 40, 0
33, 127554, Note_on_c, 15, 47, 0
33, 127692, Note_on_c, 15, 40, 98
33, 127698, Note_on_c, 15, 47, 83
33, 127787, Note_on_c, 15, 40, 0
33, 127793, Note_on_c, 15, 47, 0
33, 127924, Note_on_c, 15, 47, 107
33, 127935, Note_on_c, 15, 40, 118
33, 128019, Note_on_c, 15, 47, 0
33, 128030, Note_on_c, 15, 40, 0
33, 128161, Note_on_c, 15, 40, 55
33, 128161, Note_on_c, 15, 47, 45
33, 128256, Note_on_c, 15, 40, 0
33, 128256, Note_on_c, 15, 47, 0
33, 128405, Note_on_c, 15, 40, 55
33, 128424, Note_on_c, 15, 47, 39
33, 128500, Note_on_c, 15, 40, 0
33, 128519, Note_on_c, 15, 47, 0
33, 128648, Note_on_c, 15, 40, 59
33, 128658, Note_on_c, 15, 47, 57
33, 128743, Note_on_c, 15, 40, 0
33, 128753, Note_on_c, 15, 47, 0
33, 128892, Note_on_c, 15, 40, 40
33, 128898, Note_on_c, 15, 47, 58
33, 128987, Note_on_c, 15, 40, 0
33, 128993, Note_on_c, 15, 47, 0
33, 129120, Note_on_c, 15, 47, 46
33, 129130, Note_on_c, 15, 40, 45
33, 129215, Note_on_c, 15, 47, 0
33, 129225, Note_on_c, 15, 40, 0
33, 129365, Note_on_c, 15, 40, 42
33, 129366, Note_on_c, 15, 47, 53
33, 129460, Note_on_c, 15, 40, 0
33, 129461, Note_on_c, 15, 47, 0
33, 129622, Note_on_c, 15, 47, 47
33, 129625, Note_on_c, 15, 40, 42
33, 129717, Note_on_c, 15, 47, 0
33, 129720, Note_on_c, 15, 40, 0
33, 129852, Note_on_c, 15, 40, 49
33, 129862, Note_on_c, 15, 47, 49
33, 129947, Note_on_c, 15, 40, 0
33, 129957, Note_on_c, 15, 47, 0
33, 130099, Note_on_c, 15, 47, 44
33, 130101, Note_on_c, 15, 40, 50
33, 130194, Note_on_c, 15, 47, 0
33, 130196, Note_on_c, 15, 40, 0
33, 130333, Note_on_c, 15, 47, 59
33, 130334, Note_on_c, 15, 40, 39
33, 130428, Note_on_c, 15, 47, 0
33, 130429, Note_on_c, 15, 40, 0
33, 130563, Note_on_c, 15, 47, 41
33, 130584, Note_on_c, 15, 40, 41
33, 130658, Note_on_c, 15, 47, 0
33, 130679, Note_on_c, 15, 40, 0
33, 130806, Note_on_c, 15, 47, 40
33, 130810, Note_on_c, 15, 40, 56
33, 130901, Note_on_c, 15, 47, 0
33, 130905, Note_on_c, 15, 40, 0
33, 131057, Note_on_c, 15, 47, 48
33, 131065, Note_on_c, 15, 40, 42
33, 131152, Note_on_c, 15, 47, 0
33, 131160, Note_on_c, 15, 40, 0
33, 131291, Note_on_c, 15, 40, 104
33, 131291, Note_on_c, 15, 47, 113
33, 131386, Note_on_c, 15, 40, 0
33, 131386, Note_on_c, 15, 47, 0
33, 131537, Note_on_c, 15, 47, 98
33, 131544, Note_on_c, 15, 40, 88
33, 131632, Note_on_c, 15, 47, 0
33, 131639, Note_on_c, 15, 40, 0
33, 131770, Note_on_c, 15, 47, 88
33, 131785, Note_on_c, 15, 40, 96
33, 131865, Note_on_c, 15, 47, 0
33, 131880, Note_on_c, 15, 40, 0
33, 132001, Note_on_c, 15, 47, 109
33, 132006, Note_on_c, 15, 40, 120
33, 132096, Note_on_c, 15, 47, 0
33, 132101, Note_on_c, 15, 40, 0
33, 132240, Note_on_c, 15, 47, 80
33, 132242, Note_on_c, 15, 40, 78
33, 132335, Note_on_c, 15, 47, 0
33, 132337, Note_on_c, 15, 40, 0
33, 132494, Note_on_c, 15, 40, 83
33, 132498, Note_on_c, 15, 47, 83
33, 132589, Note_on_c, 15, 40, 0
33, 132593, Note_on_c, 15, 47, 0
33, 132727, Note_on_c, 15, 47, 78
33, 132737, Note_on_c, 15, 40, 97
33, 132822, Note_on_c, 15, 47, 0
33, 132832, Note_on_c, 15, 40, 0
33, 132968, Note_on_c, 15, 47, 79
33, 132981, Note_on_c, 15, 40, 87
33, 133063, Note_on_c, 15, 47, 0
33, 133076, Note_on_c, 15, 40, 0
33, 133205, Note_on_c, 15, 40, 41
33, 133216, Note_on_c, 15, 47, 40
33, 133300, Note_on_c, 15, 40, 0
33, 133311, Note_on_c, 15, 47, 0
33, 133450, Note_on_c, 15, 40, 59
33, 133463, Note_on_c, 15, 47, 46
33, 133545, Note_on_c, 15, 40, 0
33, 133558, Note_on_c, 15, 47, 0
33, 133683, Note_on_c, 15, 40, 58
33, 133705, Note_on_c, 15, 47, 56
33, 133778, Note_on_c, 15, 40, 0
33, 133800, Note_on_c, 15, 47, 0
33, 133934, Note_on_c, 15, 47, 42
33, 133935, Note_on_c, 15, 40, 59
33, 134029, Note_on_c, 15, 47, 0
33, 134030, Note_on_c, 15, 40, 0
33, 134162, Note_on_c, 15, 47, 52
33, 134182, Note_on_c, 15, 40, 43
33, 134257, Note_on_c, 15, 47, 0
33, 134277, Note_on_c, 15, 40, 0
33, 134404, Note_on_c, 15, 40, 56
33, 134409, Note_on_c, 15, 47, 59
33, 134499, Note_on_c, 15, 40, 0
33, 134504, Note_on_c, 15, 47, 0
33, 134642, Note_on_c, 15, 40, 50
33, 134653, Note_on_c, 15, 47, 51
33, 134737, Note_on_c, 15, 40, 0
33, 134748, Note_on_c, 15, 47, 0
33, 134881, Note_on_c, 15, 47, 58
33, 134891, Note_on_c, 15, 40, 57
33, 134976, Note_on_c, 15, 47, 0
33, 134986, Note_on_c, 15, 40, 0
33, 135124, Note_on_c, 15, 40, 52
33, 135137, Note_on_c, 15, 47, 40
33, 135219, Note_on_c, 15, 40, 0
33, 135232, Note_on_c, 15, 47, 0
33, 135360, Note_on_c, 15, 40, 49
33, 135371, Note_on_c, 15, 47, 43
33, 135455, Note_on_c, 15, 40, 0
33, 135466, Note_on_c, 15, 47, 0
33, 135602, Note_on_c, 15, 47, 40
33, 135610, Note_on_c, 15, 40, 40
33, 135697, Note_on_c, 15, 47, 0
33, 135705, Note_on_c, 15, 40, 0
33, 135846, Note_on_c, 15, 47, 48
33, 135856, Note_on_c, 15, 40, 46
33, 135941, Note_on_c, 15, 47, 0
33, 135951, Note_on_c, 15, 40, 0
33, 136091, Note_on_c, 15, 47, 51
33, 136092, Note_on_c, 15, 40, 58
33, 136186, Note_on_c, 15, 47, 0
33, 136187, Note_on_c, 15, 40, 0
33, 136321, Note_on_c, 15, 47, 40
33, 136339, Note_on_c, 15, 40, 50
33, 136416, Note_on_c, 15, 47, 0
33, 136434, Note_on_c, 15, 40, 0
33, 136579, Note_on_c, 15, 47, 112
33, 136582, Note_on_c, 15, 40, 100
33, 136674, Note_on_c, 15, 47, 0
33, 136677, Note_on_c, 15, 40, 0
33, 136802, Note_on_c, 15, 40, 90
33, 136810, Note_on_c, 15, 47, 93
33, 136897, Note_on_c, 15, 40, 0
33, 136905, Note_on_c, 15, 47, 0
33, 137049, Note_on_c, 15, 40, 107
33, 137062, Note_on_c, 15, 47, 111
33, 137144, Note_on_c, 15, 40, 0
33, 137157, Note_on_c, 15, 47, 0
33, 137294, Note_on_c, 15, 47, 95
33, 137297, Note_on_c, 15, 40, 88
33, 137389, Note_on_c, 15, 47, 0
33, 137392, Note_on_c, 15, 40, 0
33, 137533, Note_on_c, 15, 40, 119
33, 137545, Note_on_c, 15, 47, 115
33, 137628, Note_on_c, 15, 40, 0
33, 137640, Note_on_c, 15, 47, 0
33, 137767, Note_on_c, 15, 40, 87
33, 137780, Note_on_c, 15, 47, 86
33, 137862, Note_on_c, 15, 40, 0
33, 137875, Note_on_c, 15, 47, 0
33, 138023, Note_on_c, 15, 40, 79
33, 138025, Note_on_c, 15, 47, 82
33, 138118, Note_on_c, 15, 40, 0
33, 138120, Note_on_c, 15, 47, 0
33, 138247, Note_on_c, 15, 47, 90
33, 138260, Note_on_c, 15, 40, 98
33, 138342, Note_on_c, 15, 47, 0
33, 138355, Note_on_c, 15, 40, 0
33, 138501, Note_on_c, 15, 47, 80
33, 138505, Note_on_c, 15, 40, 98
33, 138596, Note_on_c, 15, 47, 0
33, 138600, Note_on_c, 15, 40, 0
33, 138734, Note_on_c, 15, 40, 119
33, 138735, Note_on_c, 15, 47, 100
33, 138829, Note_on_c, 15, 40, 0
33, 138830, Note_on_c, 15, 47, 0
33, 138960, Note_on_c, 15, 40, 78
33, 138969, Note_on_c, 15, 47, 94
33, 139055, Note_on_c, 15, 40, 0
33, 139064, Note_on_c, 15, 47, 0
33, 139202, Note_on_c, 15, 40, 88
33, 139221, Note_on_c, 15, 47, 81
33, 139297, Note_on_c, 15, 40, 0
33, 139316, Note_on_c, 15, 47, 0
33, 139454, Note_on_c, 15, 47, 93
33, 139461, Note_on_c, 15, 40, 83
33, 139549, Note_on_c, 15, 47, 0
33, 139556, Note_on_c, 15, 40, 0
33, 139687, Note_on_c, 15, 40, 88
33, 139692, Note_on_c, 15, 47, 92
33, 139782, Note_on_c, 15, 40, 0
33, 139787, Note_on_c, 15, 47, 0
33, 139920, Note_on_c, 15, 40, 114
33, 139938, Note_on_c, 15, 47, 109
33, 140015, Note_on_c, 15, 40, 0
33, 140033, Note_on_c, 15, 47, 0
33, 140181, Note_on_c, 15, 47, 86
33, 140185, Note_on_c, 15, 40, 96
33, 140276, Note_on_c, 15, 47, 0
33, 140280, Note_on_c, 15, 40, 0
33, 140400, Note_on_c, 15, 47, 93
33, 140403, Note_on_c, 15, 40, 81
33, 140495, Note_on_c, 15, 47, 0
33, 140498, Note_on_c, 15, 40, 0
33, 140655, Note_on_c, 15, 40, 87
33, 140655, Note_on_c, 15, 47, 78
33, 140750, Note_on_c, 15, 40, 0
33, 140750, Note_on_c, 15, 47, 0
33, 140880, Note_on_c, 15, 47, 42
33, 140881, Note_on_c, 15, 40, 48
33, 140975, Note_on_c, 15, 47, 0
33, 140976, Note_on_c, 15, 40, 0
33, 141131, Note_on_c, 15, 47, 57
33, 141136, Note_on_c, 15, 40, 53
33, 141226, Note_on_c, 15, 47, 0
33, 141231, Note_on_c, 15, 40, 0
33, 141363, Note_on_c, 15, 40, 42
33, 141377, Note_on_c, 15, 47, 48
33, 141458, Note_on_c, 15, 40, 0
33, 141472, Note_on_c, 15, 47, 0
33, 141612, Note_on_c, 15, 47, 48
33, 141617, Note_on_c, 15, 40, 46
33, 141707, Note_on_c, 15, 47, 0
33, 141712, Note_on_c, 15, 40, 0
33, 141842, Note_on_c, 15, 40, 56
33, 141846, Note_on_c, 15, 47, 59
33, 141937, Note_on_c, 15, 40, 0
33, 141941, Note_on_c, 15, 47, 0
33, 142086, Note_on_c, 15, 47, 58
33, 142100, Note_on_c, 15, 40, 50
33, 142181, Note_on_c, 15, 47, 0
33, 142195, Note_on_c, 15, 40, 0
33, 142321, Note_on_c, 15, 47, 42
33, 142322, Note_on_c, 15, 40, 51
33, 142416, Note_on_c, 15, 47, 0
33, 142417, Note_on_c, 15, 40, 0
33, 142566, Note_on_c, 15, 47, 39
33, 142579, Note_on_c, 15, 40, 51
33, 142661, Note_on_c, 15, 47, 0
33, 142674, Note_on_c, 15, 40, 0
33, 142817, Note_on_c, 15, 40, 59
33, 142821, Note_on_c, 15, 47, 59
33, 142912, Note_on_c, 15, 40, 0
33, 142916, Note_on_c, 15, 47, 0
33, 143045, Note_on_c, 15, 47, 48
33, 143054, Note_on_c, 15, 40, 57
33, 143140, Note_on_c, 15, 47, 0
33, 143149, Note_on_c, 15, 40, 0
33, 143282, Note_on_c, 15, 47, 59
33, 143285, Note_on_c, 15, 40, 55
33, 143377, Note_on_c, 15, 47, 0
33, 143380, Note_on_c, 15, 40, 0
33, 143535, Note_on_c, 15, 40, 59
33, 143541, Note_on_c, 15, 47, 55
33, 143630, Note_on_c, 15, 40, 0
33, 143636, Note_on_c, 15, 47, 0
33, 143775, Note_on_c, 15, 47, 46
33, 143780, Note_on_c, 15, 40, 55
33, 143870, Note_on_c, 15, 47, 0
33, 143875, Note_on_c, 15, 40, 0
33, 144003, Note_on_c, 15, 40, 50
33, 144018, Note_on_c, 15, 47, 49
33, 144098, Note_on_c, 15, 40, 0
33, 144113, Note_on_c, 15, 47, 0
33, 144241, Note_on_c, 15, 47, 43
33, 144255, Note_on_c, 15, 40, 44
33, 144336, Note_on_c, 15, 47, 0
33, 144350, Note_on_c, 15, 40, 0
33, 144489, Note_on_c, 15, 47, 58
33, 144503, Note_on_c, 15, 40, 57
33, 144584, Note_on_c, 15, 47, 0
33, 144598, Note_on_c, 15, 40, 0
33, 144723, Note_on_c, 15, 40, 57
33, 144737, Note_on_c, 15, 47, 42
33, 144818, Note_on_c, 15, 40, 0
33, 144832, Note_on_c, 15, 47, 0
33, 144979, Note_on_c, 15, 47, 49
33, 144985, Note_on_c, 15, 40, 48
33, 145074, Note_on_c, 15, 47, 0
33, 145080, Note_on_c, 15, 40, 0
33, 145212, Note_on_c, 15, 40, 40
33, 145221, Note_on_c, 15, 47, 57
33, 145307, Note_on_c, 15, 40, 0
33, 145316, Note_on_c, 15, 47, 0
33, 145457, Note_on_c, 15, 47, 52
33, 145461, Note_on_c, 15, 40, 56
33, 145552, Note_on_c, 15, 47, 0
33, 145556, Note_on_c, 15, 40, 0
33, 145688, Note_on_c, 15, 40, 41
33, 145691, Note_on_c, 15, 47, 45
33, 145783, Note_on_c, 15, 40, 0
33, 145786, Note_on_c, 15, 47, 0
33, 145928, Note_on_c, 15, 47, 52
33, 145944, Note_on_c, 15, 40, 52
33, 146023, Note_on_c, 15, 47, 0
33, 146039, Note_on_c, 15, 40, 0
33, 146160, Note_on_c, 15, 47, 43
33, 146176, Note_on_c, 15, 40, 48
33, 146255, Note_on_c, 15, 47, 0
33, 146271, Note_on_c, 15, 40, 0
33, 146421, Note_on_c, 15, 40, 50
33, 146425, Note_on_c, 15, 47, 52
33, 146516, Note_on_c, 15, 40, 0
33, 146520, Note_on_c, 15, 47, 0
33, 146646, Note_on_c, 15, 40, 48
33, 146660, Note_on_c, 15, 47, 53
33, 146741, Note_on_c, 15, 40, 0
33, 146755, Note_on_c, 15, 47, 0
33, 146889, Note_on_c, 15, 40, 54
33, 146896, Note_on_c, 15, 47, 45
33, 146984, Note_on_c, 15, 40, 0
33, 146991, Note_on_c, 15, 47, 0
33, 147135, Note_on_c, 15, 40, 58
33, 147144, Note_on_c, 15, 47, 53
33, 147230, Note_on_c, 15, 40, 0
33, 147239, Note_on_c, 15, 47, 0
33, 147368, Note_on_c, 15, 40, 45
33, 147370, Note_on_c, 15, 47, 42
33, 147463, Note_on_c, 15, 40, 0
33, 147465, Note_on_c, 15, 47, 0
33, 147607, Note_on_c, 15, 47, 55
33, 147613, Note_on_c, 15, 40, 47
33, 147702, Note_on_c, 15, 47, 0
33, 147708, Note_on_c, 15, 40, 0
33, 147842, Note_on_c, 15, 47, 45
33, 147860, Note_on_c, 15, 40, 53
33, 147937, Note_on_c, 15, 47, 0
33, 147955, Note_on_c, 15, 40, 0
33, 148090, Note_on_c, 15, 40, 54
33, 148096, Note_on_c, 15, 47, 56
33, 148185, Note_on_c, 15, 40, 0
33, 148191, Note_on_c, 15, 47, 0
33, 148327, Note_on_c, 15, 47, 39
33, 148343, Note_on_c, 15, 40, 49
33, 148422, Note_on_c, 15, 47, 0
33, 148438, Note_on_c, 15, 40, 0
33, 148562, Note_on_c, 15, 40, 57
33, 148577, Note_on_c, 15, 47, 47
33, 148657, Note_on_c, 15, 40, 0
33, 148672, Note_on_c, 15, 47, 0
33, 148804, Note_on_c, 15, 40, 50
33, 148811, Note_on_c, 15, 47, 53
33, 148899, Note_on_c, 15, 40, 0
33, 148906, Note_on_c, 15, 47, 0
33, 149041, Note_on_c, 15, 47, 42
33, 149042, Note_on_c, 15, 40, 52
33, 149136, Note_on_c, 15, 47, 0
33, 149137, Note_on_c, 15, 40, 0
33, 149281, Note_on_c, 15, 40, 58
33, 149298, Note_on_c, 15, 47, 41
33, 149376, Note_on_c, 15, 40, 0
33, 149393, Note_on_c, 15, 47, 0
33, 149521, Note_on_c, 15, 40, 41
33, 149532, Note_on_c, 15, 47, 57
33, 149616, Note_on_c, 15, 40, 0
33, 149627, Note_on_c, 15, 47, 0
33, 149764, Note_on_c, 15, 47, 43
33, 149777, Note_on_c, 15, 40, 46
33, 149859, Note_on_c, 15, 47, 0
33, 149872, Note_on_c, 15, 40, 0
33, 150013, Note_on_c, 15, 47, 57
33, 150018, Note_on_c, 15, 40, 49
33, 150108, Note_on_c, 15, 47, 0
33, 150113, Note_on_c, 15, 40, 0
33, 150480, Program_c, 15, 45
33, 150498, Note_on_c, 15, 36, 104
33, 150738, Note_on_c, 15, 36, 0
33, 151200, Program_c, 15, 48
33, 151200, Note_on_c, 15, 50, 94
33, 151247, Note_on_c, 15, 50, 0
33, 151359, Note_on_c, 15, 42, 97
33, 151407, Note_on_c, 15, 42, 0
33, 151520, Note_on_c, 15, 43, 101
33, 151567, Note_on_c, 15, 43, 0
33, 151680, Note_on_c, 15, 29, 98
33, 151727, Note_on_c, 15, 29, 0
33, 194400, Program_c, 15, 45
33, 194423, Note_on_c, 15, 39, 75
33, 194641, Note_on_c, 15, 46, 71
33, 194663, Note_on_c, 15, 39, 0
33, 194881, Note_on_c, 15, 46, 0
33, 195603, Note_on_c, 15, 46, 74
33, 195843, Note_on_c, 15, 46, 0
33, 195850, Note_on_c, 15, 39, 66
33, 196090, Note_on_c, 15, 39, 0
33, 196096, Note_on_c, 15, 46, 66
33, 196336, Note_on_c, 15, 46, 0
33, 197050, Note_on_c, 15, 46, 76
33, 197290, Note_on_c, 15, 46, 0
33, 197290, Note_on_c, 15, 39, 79
33, 197530, Note_on_c, 15, 39, 0
33, 197530, Note_on_c, 15, 46, 82
33, 197770, Note_on_c, 15, 46, 0
33, 198504, Note_on_c, 15, 46, 78
33, 198739, Note_on_c, 15, 39, 71
33, 198744, Note_on_c, 15, 46, 0
33, 198970, Note_on_c, 15, 46, 72
33, 198979, Note_on_c, 15, 39, 0
33, 199210, Note_on_c, 15, 46, 0
33, 199938, Note_on_c, 15, 46, 74
33, 200163, Note_on_c, 15, 39, 69
33, 200178, Note_on_c, 15, 46, 0
33, 200403, Note_on_c, 15, 39, 0
33, 200422, Note_on_c, 15, 46, 70
33, 200662, Note_on_c, 15, 46, 0
33, 201372, Note_on_c, 15, 46, 76
33, 201611, Note_on_c, 15, 39, 80
33, 201612, Note_on_c, 15, 46, 0
33, 201842, Note_on_c, 15, 46, 80
33, 201851, Note_on_c, 15, 39, 0
33, 202082, Note_on_c, 15, 46, 0
33, 202814, Note_on_c, 15, 46, 65
33, 203054, Note_on_c, 15, 46, 0
33, 203063, Note_on_c, 15, 39, 83
33, 203303, Note_on_c, 15, 39, 0
33, 203304, Note_on_c, 15, 46, 72
33, 203544, Note_on_c, 15, 46, 0
33, 204264, Note_on_c, 15, 46, 67
33, 204487, Note_on_c, 15, 39, 84
33, 204504, Note_on_c, 15, 46, 0
33, 204727, Note_on_c, 15, 39, 0
33, 204736, Note_on_c, 15, 46, 67
33, 204976, Note_on_c, 15, 46, 0
33, 205689, Note_on_c, 15, 46, 71
33, 205924, Note_on_c, 15, 39, 77
33, 205929, Note_on_c, 15, 46, 0
33, 206164, Note_on_c, 15, 39, 0
33, 206175, Note_on_c, 15, 46, 82
33, 206415, Note_on_c, 15, 46, 0
33, 207124, Note_on_c, 15, 46, 72
33, 207364, Note_on_c, 15, 46, 0
33, 207380, Note_on_c, 15, 39, 82
33, 207614, Note_on_c, 15, 46, 83
33, 207620, Note_on_c, 15, 39, 0
33, 207854, Note_on_c, 15, 46, 0
33, 208576, Note_on_c, 15, 46, 71
33, 208805, Note_on_c, 15, 39, 66
33, 208816, Note_on_c, 15, 46, 0
33, 209045, Note_on_c, 15, 39, 0
33, 209049, Note_on_c, 15, 46, 83
33, 209289, Note_on_c, 15, 46, 0
33, 210010, Note_on_c, 15, 46, 78
33, 210250, Note_on_c, 15, 46, 0
33, 210256, Note_on_c, 15, 39, 66
33, 210496, Note_on_c, 15, 39, 0
33, 210498, Note_on_c, 15, 46, 74
33, 210738, Note_on_c, 15, 46, 0
33, 211441, Note_on_c, 15, 46, 79
33, 211681, Note_on_c, 15, 46, 0
33, 211705, Note_on_c, 15, 39, 56
33, 211925, Note_on_c, 15, 46, 54
33, 211945, Note_on_c, 15, 39, 0
33, 212165, Note_on_c, 15, 46, 0
33, 212185, Note_on_c, 15, 53, 56
33, 212425, Note_on_c, 15, 53, 0
33, 212643, Note_on_c, 15, 53, 45
33, 212880, Note_on_c, 15, 46, 45
33, 212883, Note_on_c, 15, 53, 0
33, 213120, Note_on_c, 15, 46, 0
33, 213142, Note_on_c, 15, 39, 47
33, 213360, Note_on_c, 15, 46, 53
33, 213382, Note_on_c, 15, 39, 0
33, 213600, Note_on_c, 15, 46, 0
33, 213622, Note_on_c, 15, 53, 55
33, 213862, Note_on_c, 15, 53, 0
33, 214100, Note_on_c, 15, 53, 49
33, 214340, Note_on_c, 15, 53, 0
33, 214345, Note_on_c, 15, 46, 55
33, 214578, Note_on_c, 15, 39, 69
33, 214585, Note_on_c, 15, 46, 0
33, 214818, Note_on_c, 15, 39, 0
33, 214820, Note_on_c, 15, 46, 74
33, 215060, Note_on_c, 15, 46, 0
33, 215062, Note_on_c, 15, 53, 72
33, 215302, Note_on_c, 15, 53, 0
33, 215532, Note_on_c, 15, 53, 39
33, 215772, Note_on_c, 15, 53, 0
33, 215781, Note_on_c, 15, 46, 63
33, 216011, Note_on_c, 15, 39, 58
33, 216021, Note_on_c, 15, 46, 0
33, 216251, Note_on_c, 15, 39, 0
33, 216265, Note_on_c, 15, 46, 52
33, 216491, Note_on_c, 15, 53, 65
33, 216505, Note_on_c, 15, 46, 0
33, 216731, Note_on_c, 15, 53, 0
33, 216977, Note_on_c, 15, 53, 77
33, 217202, Note_on_c, 15, 46, 74
33, 217217, Note_on_c, 15, 53, 0
33, 217442, Note_on_c, 15, 46, 0
33, 217448, Note_on_c, 15, 39, 78
33, 217688, Note_on_c, 15, 39, 0
33, 217691, Note_on_c, 15, 46, 93
33, 217931, Note_on_c, 15, 46, 0
33, 217934, Note_on_c, 15, 53, 98
33, 218174, Note_on_c, 15, 53, 0
33, 218415, Note_on_c, 15, 53, 106
33, 218646, Note_on_c, 15, 46, 96
33, 218655, Note_on_c, 15, 53, 0
33, 218886, Note_on_c, 15, 46, 0
33, 218891, Note_on_c, 15, 39, 98
33, 219123, Note_on_c, 15, 46, 112
33, 219131, Note_on_c, 15, 39, 0
33, 219363, Note_on_c, 15, 46, 0
33, 231120, Program_c, 15, 48
33, 231133, Note_on_c, 15, 41, 87
33, 231373, Note_on_c, 15, 41, 0
33, 231603, Note_on_c, 15, 39, 84
33, 231843, Note_on_c, 15, 39, 0
33, 232091, Note_on_c, 15, 29, 87
33, 232331, Note_on_c, 15, 29, 0
33, 232574, Note_on_c, 15, 31, 88
33, 232814, Note_on_c, 15, 31, 0
33, 233062, Note_on_c, 15, 41, 97
33, 233302, Note_on_c, 15, 41, 0
33, 233522, Note_on_c, 15, 39, 82
33, 233762, Note_on_c, 15, 39, 0
33, 234005, Note_on_c, 15, 29, 91
33, 234245, Note_on_c, 15, 29, 0
33, 234491, Note_on_c, 15, 31, 93
33, 234731, Note_on_c, 15, 31, 0
33, 234985, Note_on_c, 15, 41, 87
33, 235225, Note_on_c, 15, 41, 0
33, 235455, Note_on_c, 15, 39, 81
33, 235695, Note_on_c, 15, 39, 0
33, 235945, Note_on_c, 15, 29, 92
33, 236185, Note_on_c, 15, 29, 0
33, 236424, Note_on_c, 15, 31, 81
33, 236664, Note_on_c, 15, 31, 0
33, 236880, Note_on_c, 15, 41, 95
33, 237120, Note_on_c, 15, 41, 0
33, 237369, Note_on_c, 15, 39, 87
33, 237609, Note_on_c, 15, 39, 0
33, 237852, Note_on_c, 15, 29, 87
33, 238092, Note_on_c, 15, 29, 0
33, 238336, Note_on_c, 15, 31, 89
33, 238576, Note_on_c, 15, 31, 0
33, 238825, Note_on_c, 15, 53, 103
33, 238936, Note_on_c, 15, 41, 103
33, 238945, Note_on_c, 15, 53, 0
33, 239051, Note_on_c, 15, 41, 91
33, 239056, Note_on_c, 15, 41, 0
33, 239165, Note_on_c, 15, 53, 107
33, 239171, Note_on_c, 15, 41, 0
33, 239285, Note_on_c, 15, 53, 0
33, 239297, Note_on_c, 15, 51, 106
33, 239775, Note_on_c, 15, 41, 110
33, 239777, Note_on_c, 15, 51, 0
33, 240135, Note_on_c, 15, 41, 0
33, 240136, Note_on_c, 15, 41, 102
33, 240256, Note_on_c, 15, 41, 0
33, 240258, Note_on_c, 15, 43, 107
33, 240377, Note_on_c, 15, 43, 110
33, 240378, Note_on_c, 15, 43, 0
33, 240486, Note_on_c, 15, 43, 110
33, 240497, Note_on_c, 15, 43, 0
33, 240606, Note_on_c, 15, 43, 0
33, 240614, Note_on_c, 15, 43, 98
33, 240722, Note_on_c, 15, 53, 105
33, 240734, Note_on_c, 15, 43, 0
33, 240840, Note_on_c, 15, 41, 94
33, 240842, Note_on_c, 15, 53, 0
33, 240960, Note_on_c, 15, 41, 0
33, 240978, Note_on_c, 15, 41, 108
33, 241085, Note_on_c, 15, 53, 110
33, 241098, Note_on_c, 15, 41, 0
33, 241205, Note_on_c, 15, 53, 0
33, 241214, Note_on_c, 15, 51, 93
33, 241682, Note_on_c, 15, 29, 109
33, 241694, Note_on_c, 15, 51, 0
33, 241922, Note_on_c, 15, 29, 0
33, 242180, Note_on_c, 15, 31, 97
33, 242420, Note_on_c, 15, 31, 0
33, 242657, Note_on_c, 15, 53, 102
33, 242772, Note_on_c, 15, 41, 105
33, 242777, Note_on_c, 15, 53, 0
33, 242892, Note_on_c, 15, 41, 0
33, 242894, Note_on_c, 15, 41, 101
33, 243014, Note_on_c, 15, 41, 0
33, 243021, Note_on_c, 15, 53, 108
33, 243125, Note_on_c, 15, 51, 100
33, 243141, Note_on_c, 15, 53, 0
33, 243605, Note_on_c, 15, 51, 0
33, 243615, Note_on_c, 15, 41, 91
33, 243975, Note_on_c, 15, 41, 0
33, 243977, Note_on_c, 15, 41, 98
33, 244097, Note_on_c, 15, 41, 0
33, 244097, Note_on_c, 15, 43, 99
33, 244209, Note_on_c, 15, 43, 91
33, 244217, Note_on_c, 15, 43, 0
33, 244329, Note_on_c, 15, 43, 0
33, 244336, Note_on_c, 15, 43, 107
33, 244444, Note_on_c, 15, 43, 111
33, 244456, Note_on_c, 15, 43, 0
33, 244562, Note_on_c, 15, 53, 92
33, 244564, Note_on_c, 15, 43, 0
33, 244682, Note_on_c, 15, 53, 0
33, 244703, Note_on_c, 15, 41, 92
33, 244818, Note_on_c, 15, 41, 110
33, 244823, Note_on_c, 15, 41, 0
33, 244936, Note_on_c, 15, 53, 96
33, 244938, Note_on_c, 15, 41, 0
33, 245056, Note_on_c, 15, 53, 0
33, 245065, Note_on_c, 15, 51, 94
33, 245523, Note_on_c, 15, 29, 114
33, 245545, Note_on_c, 15, 51, 0
33, 245763, Note_on_c, 15, 29, 0
33, 246007, Note_on_c, 15, 31, 95
33, 246247, Note_on_c, 15, 31, 0
33, 246482, Note_on_c, 15, 53, 98
33, 246602, Note_on_c, 15, 53, 0
33, 246615, Note_on_c, 15, 41, 104
33, 246731, Note_on_c, 15, 41, 101
33, 246735, Note_on_c, 15, 41, 0
33, 246846, Note_on_c, 15, 53, 95
33, 246851, Note_on_c, 15, 41, 0
33, 246966, Note_on_c, 15, 53, 0
33, 246980, Note_on_c, 15, 51, 97
33, 247448, Note_on_c, 15, 41, 107
33, 247460, Note_on_c, 15, 51, 0
33, 247805, Note_on_c, 15, 41, 113
33, 247808, Note_on_c, 15, 41, 0
33, 247924, Note_on_c, 15, 43, 106
33, 247925, Note_on_c, 15, 41, 0
33, 248044, Note_on_c, 15, 43, 0
33, 248045, Note_on_c, 15, 43, 105
33, 248165, Note_on_c, 15, 43, 0
33, 248178, Note_on_c, 15, 43, 109
33, 248298, Note_on_c, 15, 43, 0
33, 248298, Note_on_c, 15, 43, 104
33, 248406, Note_on_c, 15, 53, 99
33, 248418, Note_on_c, 15, 43, 0
33, 248522, Note_on_c, 15, 41, 111
33, 248526, Note_on_c, 15, 53, 0
33, 248642, Note_on_c, 15, 41, 0
33, 248660, Note_on_c, 15, 41, 107
33, 248771, Note_on_c, 15, 53, 107
33, 248780, Note_on_c, 15, 41, 0
33, 248885, Note_on_c, 15, 51, 111
33, 248891, Note_on_c, 15, 53, 0
33, 249365, Note_on_c, 15, 51, 0
33, 249368, Note_on_c, 15, 29, 104
33, 249608, Note_on_c, 15, 29, 0
33, 249842, Note_on_c, 15, 31, 115
33, 250082, Note_on_c, 15, 31, 0
33, 250093, Note_on_c, 15, 36, 105
33, 250333, Note_on_c, 15, 36, 0
33, 262698, Note_on_c, 15, 36, 95
33, 263058, Note_on_c, 15, 36, 0
33, 263419, Note_on_c, 15, 47, 86
33, 263779, Note_on_c, 15, 47, 0
33, 263784, Note_on_c, 15, 36, 78
33, 264144, Note_on_c, 15, 36, 0
33, 264848, Note_on_c, 15, 47, 84
33, 265208, Note_on_c, 15, 47, 0
33, 265569, Note_on_c, 15, 36, 83
33, 265929, Note_on_c, 15, 36, 0
33, 266297, Note_on_c, 15, 47, 98
33, 266648, Note_on_c, 15, 36, 94
33, 266657, Note_on_c, 15, 47, 0
33, 267008, Note_on_c, 15, 36, 0
33, 270240, Program_c, 15, 45
33, 270248, Note_on_c, 15, 45, 88
33, 270488, Note_on_c, 15, 45, 0
33, 270505, Note_on_c, 15, 49, 80
33, 270722, Note_on_c, 15, 52, 88
33, 270745, Note_on_c, 15, 49, 0
33, 270961, Note_on_c, 15, 53, 97
33, 270962, Note_on_c, 15, 52, 0
33, 271201, Note_on_c, 15, 53, 0
33, 284640, Program_c, 15, 48
33, 285006, Note_on_c, 15, 36, 87
33, 285366, Note_on_c, 15, 36, 0
33, 285726, Note_on_c, 15, 47, 97
33, 286086, Note_on_c, 15, 47, 0
33, 286092, Note_on_c, 15, 36, 83
33, 286452, Note_on_c, 15, 36, 0
33, 287163, Note_on_c, 15, 47, 95
33, 287523, Note_on_c, 15, 47, 0
33, 287903, Note_on_c, 15, 36, 83
33, 288263, Note_on_c, 15, 36, 0
33, 288606, Note_on_c, 15, 47, 91
33, 288966, Note_on_c, 15, 47, 0
33, 289701, Note_on_c, 15, 33, 100
33, 289772, Note_on_c, 15, 33, 0
33, 289933, Note_on_c, 15, 37, 94
33, 290004, Note_on_c, 15, 37, 0
33, 290179, Note_on_c, 15, 40, 110
33, 290250, Note_on_c, 15, 40, 0
33, 290401, Note_on_c, 15, 36, 109
33, 290472, Note_on_c, 15, 36, 0
33, 290655, Note_on_c, 15, 40, 104
33, 290726, Note_on_c, 15, 40, 0
33, 290886, Note_on_c, 15, 43, 99
33, 290957, Note_on_c, 15, 43, 0
33, 291130, Note_on_c, 15, 45, 91
33, 291201, Note_on_c, 15, 45, 0
33, 291369, Note_on_c, 15, 49, 108
33, 291440, Note_on_c, 15, 49, 0
33, 291605, Note_on_c, 15, 52, 91
33, 291676, Note_on_c, 15, 52, 0
33, 291841, Note_on_c, 15, 48, 93
33, 292081, Note_on_c, 15, 48, 0
33, 294000, Program_c, 15, 45
33, 294000, Note_on_c, 15, 28, 104
33, 294240, Note_on_c, 15, 28, 0
33, 294249, Note_on_c, 15, 33, 111
33, 294489, Note_on_c, 15, 33, 0
33, 294492, Note_on_c, 15, 37, 108
33, 294732, Note_on_c, 15, 37, 0
33, 295442, Note_on_c, 15, 34, 91
33, 295680, Note_on_c, 15, 37, 108
33, 295682, Note_on_c, 15, 34, 0
33, 295920, Note_on_c, 15, 37, 0
33, 295930, Note_on_c, 15, 42, 93
33, 296170, Note_on_c, 15, 42, 0
33, 296173, Note_on_c, 15, 46, 91
33, 296413, Note_on_c, 15, 46, 0
33, 296416, Note_on_c, 15, 49, 91
33, 296645, Note_on_c, 15, 54, 109
33, 296656, Note_on_c, 15, 49, 0
33, 296885, Note_on_c, 15, 54, 0
33, 322560, Program_c, 15, 48
33, 324630, Note_on_c, 15, 29, 95
33, 324660, Note_on_c, 15, 29, 0
33, 324660, Note_on_c, 15, 31, 110
33, 324690, Note_on_c, 15, 31, 0
33, 324690, Note_on_c, 15, 32, 96
33, 324720, Note_on_c, 15, 32, 0
33, 324730, Note_on_c, 15, 33, 122
33, 324740, Note_on_c, 15, 45, 124
33, 325450, Note_on_c, 15, 33, 0
33, 325452, Note_on_c, 15, 40, 122
33, 325460, Note_on_c, 15, 45, 0
33, 326172, Note_on_c, 15, 40, 0
33, 326177, Note_on_c, 15, 35, 116
33, 326657, Note_on_c, 15, 35, 0
33, 328230, Note_on_c, 15, 28, 99
33, 328260, Note_on_c, 15, 28, 0
33, 328260, Note_on_c, 15, 29, 99
33, 328290, Note_on_c, 15, 29, 0
33, 328290, Note_on_c, 15, 31, 111
33, 328320, Note_on_c, 15, 31, 0
33, 328328, Note_on_c, 15, 32, 119
33, 328399, Note_on_c, 15, 32, 0
33, 331218, Note_on_c, 15, 29, 108
33, 331361, Note_on_c, 15, 29, 0
33, 334322, Note_on_c, 15, 29, 92
33, 334465, Note_on_c, 15, 29, 0
33, 339841, Note_on_c, 15, 36, 90
33, 339984, Note_on_c, 15, 36, 0
33, 346090, Note_on_c, 15, 36, 87
33, 346233, Note_on_c, 15, 36, 0
33, 348014, Note_on_c, 15, 36, 93
33, 348157, Note_on_c, 15, 36, 0
33, 352344, Note_on_c, 15, 36, 104
33, 352487, Note_on_c, 15, 36, 0
33, 378720, Program_c, 15, 49
33, 378731, Note_on_c, 15, 34, 85
33, 378742, Note_on_c, 15, 27, 72
33, 379211, Note_on_c, 15, 34, 0
33, 379222, Note_on_c, 15, 27, 0
33, 380643, Note_on_c, 15, 27, 81
33, 380652, Note_on_c, 15, 34, 76
33, 381123, Note_on_c, 15, 27, 0
33, 381132, Note_on_c, 15, 34, 0
33, 382560, Note_on_c, 15, 27, 73
33, 382569, Note_on_c, 15, 34, 67
33, 383040, Note_on_c, 15, 27, 0
33, 383049, Note_on_c, 15, 34, 0
33, 384492, Note_on_c, 15, 34, 79
33, 384495, Note_on_c, 15, 27, 80
33, 384732, Note_on_c, 15, 34, 0
33, 384735, Note_on_c, 15, 27, 0
33, 386401, Note_on_c, 15, 34, 84
33, 386418, Note_on_c, 15, 27, 69
33, 386881, Note_on_c, 15, 34, 0
33, 386898, Note_on_c, 15, 27, 0
33, 388322, Note_on_c, 15, 27, 75
33, 388339, Note_on_c, 15, 34, 83
33, 388802, Note_on_c, 15, 27, 0
33, 388819, Note_on_c, 15, 34, 0
33, 390242, Note_on_c, 15, 27, 65
33, 390259, Note_on_c, 15, 34, 69
33, 390482, Note_on_c, 15, 27, 0
33, 390499, Note_on_c, 15, 34, 0
33, 393611, Note_on_c, 15, 27, 70
33, 393622, Note_on_c, 15, 34, 79
33, 394091, Note_on_c, 15, 27, 0
33, 394102, Note_on_c, 15, 34, 0
33, 395524, Note_on_c, 15, 27, 80
33, 395538, Note_on_c, 15, 34, 83
33, 396004, Note_on_c, 15, 27, 0
33, 396018, Note_on_c, 15, 34, 0
33, 397447, Note_on_c, 15, 27, 66
33, 397463, Note_on_c, 15, 34, 68
33, 397927, Note_on_c, 15, 27, 0
33, 397943, Note_on_c, 15, 34, 0
33, 399370, Note_on_c, 15, 34, 68
33, 399378, Note_on_c, 15, 27, 78
33, 399850, Note_on_c, 15, 34, 0
33, 399858, Note_on_c, 15, 27, 0
33, 401281, Note_on_c, 15, 34, 65
33, 401297, Note_on_c, 15, 27, 84
33, 401761, Note_on_c, 15, 34, 0
33, 401777, Note_on_c, 15, 27, 0
33, 403208, Note_on_c, 15, 27, 71
33, 403215, Note_on_c, 15, 34, 69
33, 403688, Note_on_c, 15, 27, 0
33, 403695, Note_on_c, 15, 34, 0
33, 405120, Note_on_c, 15, 27, 65
33, 405132, Note_on_c, 15, 34, 70
33, 405600, Note_on_c, 15, 27, 0
33, 405612, Note_on_c, 15, 34, 0
33, 407048, Note_on_c, 15, 34, 70
33, 407050, Note_on_c, 15, 27, 66
33, 407528, Note_on_c, 15, 34, 0
33, 407530, Note_on_c, 15, 27, 0
33, 408984, Note_on_c, 15, 34, 85
33, 408985, Note_on_c, 15, 27, 83
33, 409464, Note_on_c, 15, 34, 0
33, 409465, Note_on_c, 15, 27, 0
33, 410881, Note_on_c, 15, 27, 82
33, 410893, Note_on_c, 15, 34, 65
33, 411361, Note_on_c, 15, 27, 0
33, 411373, Note_on_c, 15, 34, 0
33, 412807, Note_on_c, 15, 27, 80
33, 412815, Note_on_c, 15, 34, 68
33, 413287, Note_on_c, 15, 27, 0
33, 413295, Note_on_c, 15, 34, 0
33, 415700, Note_on_c, 15, 27, 77
33, 415705, Note_on_c, 15, 34, 84
33, 416180, Note_on_c, 15, 27, 0
33, 416185, Note_on_c, 15, 34, 0
33, 417600, Note_on_c, 15, 34, 84
33, 417611, Note_on_c, 15, 27, 83
33, 418080, Note_on_c, 15, 34, 0
33, 418091, Note_on_c, 15, 27, 0
33, 419531, Note_on_c, 15, 34, 77
33, 419544, Note_on_c, 15, 27, 85
33, 419771, Note_on_c, 15, 34, 0
33, 419784, Note_on_c, 15, 27, 0
33, 421445, Note_on_c, 15, 34, 85
33, 421458, Note_on_c, 15, 27, 77
33, 421925, Note_on_c, 15, 34, 0
33, 421938, Note_on_c, 15, 27, 0
33, 423368, Note_on_c, 15, 27, 68
33, 423383, Note_on_c, 15, 34, 75
33, 423608, Note_on_c, 15, 27, 0
33, 423623, Note_on_c, 15, 34, 0
33, 426720, Program_c, 15, 48
33, 426728, Note_on_c, 15, 34, 110
33, 427208, Note_on_c, 15, 34, 0
33, 427440, Program_c, 15, 45
33, 427460, Note_on_c, 15, 36, 99
33, 427924, Note_on_c, 15, 37, 108
33, 427940, Note_on_c, 15, 36, 0
33, 428404, Note_on_c, 15, 37, 0
33, 428409, Note_on_c, 15, 39, 100
33, 428640, Program_c, 15, 48
33, 428649, Note_on_c, 15, 39, 0
33, 428658, Note_on_c, 15, 34, 99
33, 429138, Note_on_c, 15, 34, 0
33, 429360, Program_c, 15, 45
33, 429373, Note_on_c, 15, 36, 102
33, 429853, Note_on_c, 15, 36, 0
33, 429853, Note_on_c, 15, 37, 107
33, 430328, Note_on_c, 15, 39, 96
33, 430333, Note_on_c, 15, 37, 0
33, 430560, Program_c, 15, 48
33, 430568, Note_on_c, 15, 39, 0
33, 430573, Note_on_c, 15, 34, 106
33, 431053, Note_on_c, 15, 34, 0
33, 431280, Program_c, 15, 45
33, 431299, Note_on_c, 15, 36, 106
33, 431778, Note_on_c, 15, 37, 106
33, 431779, Note_on_c, 15, 36, 0
33, 432250, Note_on_c, 15, 39, 103
33, 432258, Note_on_c, 15, 37, 0
33, 432490, Note_on_c, 15, 39, 0
33, 432492, Note_on_c, 15, 34, 101
33, 432732, Note_on_c, 15, 34, 0
33, 432736, Note_on_c, 15, 36, 95
33, 433216, Note_on_c, 15, 36, 0
33, 433216, Note_on_c, 15, 37, 109
33, 433686, Note_on_c, 15, 39, 91
33, 433696, Note_on_c, 15, 37, 0
33, 434166, Note_on_c, 15, 39, 0
33, 434170, Note_on_c, 15, 41, 102
33, 434650, Note_on_c, 15, 41, 0
33, 434665, Note_on_c, 15, 39, 97
33, 434880, Program_c, 15, 48
33, 434890, Note_on_c, 15, 34, 102
33, 434905, Note_on_c, 15, 39, 0
33, 435370, Note_on_c, 15, 34, 0
33, 435600, Program_c, 15, 45
33, 435625, Note_on_c, 15, 36, 108
33, 436103, Note_on_c, 15, 37, 100
33, 436105, Note_on_c, 15, 36, 0
33, 436561, Note_on_c, 15, 39, 104
33, 436583, Note_on_c, 15, 37, 0
33, 436801, Note_on_c, 15, 39, 0
33, 437056, Note_on_c, 15, 36, 91
33, 437536, Note_on_c, 15, 36, 0
33, 437543, Note_on_c, 15, 37, 91
33, 438023, Note_on_c, 15, 37, 0
33, 438023, Note_on_c, 15, 39, 94
33, 438240, Program_c, 15, 48
33, 438247, Note_on_c, 15, 34, 122
33, 438263, Note_on_c, 15, 39, 0
33, 438727, Note_on_c, 15, 34, 0
33, 438960, Program_c, 15, 45
33, 438969, Note_on_c, 15, 36, 115
33, 439449, Note_on_c, 15, 36, 0
33, 439461, Note_on_c, 15, 37, 114
33, 439928, Note_on_c, 15, 39, 124
33, 439941, Note_on_c, 15, 37, 0
33, 440160, Program_c, 15, 48
33, 440168, Note_on_c, 15, 39, 0
33, 440175, Note_on_c, 15, 34, 121
33, 440655, Note_on_c, 15, 34, 0
33, 440880, Program_c, 15, 45
33, 440903, Note_on_c, 15, 36, 124
33, 441369, Note_on_c, 15, 37, 121
33, 441383, Note_on_c, 15, 36, 0
33, 441849, Note_on_c, 15, 37, 0
33, 441850, Note_on_c, 15, 39, 110
33, 442090, Note_on_c, 15, 39, 0
33, 442322, Note_on_c, 15, 36, 111
33, 442802, Note_on_c, 15, 36, 0
33, 442811, Note_on_c, 15, 37, 118
33, 443291, Note_on_c, 15, 37, 0
33, 443297, Note_on_c, 15, 39, 109
33, 443520, Program_c, 15, 48
33, 443537, Note_on_c, 15, 39, 0
33, 443540, Note_on_c, 15, 34, 123
33, 444020, Note_on_c, 15, 34, 0
33, 444240, Program_c, 15, 45
33, 444245, Note_on_c, 15, 36, 110
33, 444725, Note_on_c, 15, 36, 0
33, 444728, Note_on_c, 15, 37, 118
33, 445208, Note_on_c, 15, 37, 0
33, 445208, Note_on_c, 15, 39, 121
33, 445440, Program_c, 15, 48
33, 445448, Note_on_c, 15, 39, 0
33, 445462, Note_on_c, 15, 32, 109
33, 445922, Note_on_c, 15, 37, 107
33, 445942, Note_on_c, 15, 32, 0
33, 446402, Note_on_c, 15, 37, 0
33, 446419, Note_on_c, 15, 40, 118
33, 447379, Note_on_c, 15, 40, 0
33, 448800, Program_c, 15, 48
33, 448812, Note_on_c, 15, 43, 107
33, 448955, Note_on_c, 15, 43, 0
33, 449280, Program_c, 15, 44
33, 449290, Note_on_c, 15, 51, 94
33, 449521, Note_on_c, 15, 52, 91
33, 449530, Note_on_c, 15, 51, 0
33, 449761, Note_on_c, 15, 52, 0
33, 449769, Note_on_c, 15, 55, 86
33, 450009, Note_on_c, 15, 55, 0
33, 450017, Note_on_c, 15, 56, 88
33, 450249, Note_on_c, 15, 55, 82
33, 450257, Note_on_c, 15, 56, 0
33, 450489, Note_on_c, 15, 55, 0
33, 450505, Note_on_c, 15, 53, 86
33, 450720, Program_c, 15, 48
33, 450731, Note_on_c, 15, 51, 92
33, 450745, Note_on_c, 15, 53, 0
33, 450826, Note_on_c, 15, 51, 0
33, 451200, Program_c, 15, 44
33, 451209, Note_on_c, 15, 51, 94
33, 451449, Note_on_c, 15, 51, 0
33, 451450, Note_on_c, 15, 53, 79
33, 451690, Note_on_c, 15, 53, 0
33, 451697, Note_on_c, 15, 55, 94
33, 451931, Note_on_c, 15, 56, 95
33, 451937, Note_on_c, 15, 55, 0
33, 452171, Note_on_c, 15, 56, 0
33, 452179, Note_on_c, 15, 55, 96
33, 452408, Note_on_c, 15, 52, 82
33, 452419, Note_on_c, 15, 55, 0
33, 452640, Program_c, 15, 48
33, 452648, Note_on_c, 15, 52, 0
33, 452653, Note_on_c, 15, 51, 92
33, 452748, Note_on_c, 15, 51, 0
33, 453120, Program_c, 15, 44
33, 453133, Note_on_c, 15, 51, 98
33, 453373, Note_on_c, 15, 51, 0
33, 453385, Note_on_c, 15, 53, 80
33, 453623, Note_on_c, 15, 55, 85
33, 453625, Note_on_c, 15, 53, 0
33, 453846, Note_on_c, 15, 56, 82
33, 453863, Note_on_c, 15, 55, 0
33, 454086, Note_on_c, 15, 56, 0
33, 454087, Note_on_c, 15, 55, 78
33, 454321, Note_on_c, 15, 52, 87
33, 454327, Note_on_c, 15, 55, 0
33, 454560, Program_c, 15, 48
33, 454561, Note_on_c, 15, 52, 0
33, 454561, Note_on_c, 15, 51, 96
33, 454656, Note_on_c, 15, 51, 0
33, 455058, Note_on_c, 15, 49, 115
33, 455178, Note_on_c, 15, 49, 0
33, 455537, Note_on_c, 15, 49, 109
33, 455657, Note_on_c, 15, 49, 0
33, 456000, Program_c, 15, 44
33, 456019, Note_on_c, 15, 51, 83
33, 456249, Note_on_c, 15, 53, 93
33, 456259, Note_on_c, 15, 51, 0
33, 456489, Note_on_c, 15, 53, 0
33, 456505, Note_on_c, 15, 55, 85
33, 456731, Note_on_c, 15, 56, 84
33, 456745, Note_on_c, 15, 55, 0
33, 456971, Note_on_c, 15, 56, 0
33, 456981, Note_on_c, 15, 55, 85
33, 457214, Note_on_c, 15, 52, 88
33, 457221, Note_on_c, 15, 55, 0
33, 457440, Program_c, 15, 48
33, 457454, Note_on_c, 15, 52, 0
33, 457459, Note_on_c, 15, 51, 90
33, 457554, Note_on_c, 15, 51, 0
33, 457936, Note_on_c, 15, 40, 95
33, 458056, Note_on_c, 15, 40, 0
33, 458896, Note_on_c, 15, 41, 100
33, 459016, Note_on_c, 15, 41, 0
33, 459852, Note_on_c, 15, 40, 91
33, 459972, Note_on_c, 15, 40, 0
33, 460819, Note_on_c, 15, 41, 107
33, 460939, Note_on_c, 15, 41, 0
33, 461782, Note_on_c, 15, 43, 96
33, 462240, Program_c, 15, 44
33, 462262, Note_on_c, 15, 43, 0
33, 462264, Note_on_c, 15, 51, 83
33, 462487, Note_on_c, 15, 53, 78
33, 462504, Note_on_c, 15, 51, 0
33, 462727, Note_on_c, 15, 53, 0
33, 462740, Note_on_c, 15, 55, 80
33, 462961, Note_on_c, 15, 56, 94
33, 462980, Note_on_c, 15, 55, 0
33, 463201, Note_on_c, 15, 56, 0
33, 463210, Note_on_c, 15, 55, 85
33, 463450, Note_on_c, 15, 55, 0
33, 463460, Note_on_c, 15, 52, 88
33, 463680, Program_c, 15, 48
33, 463696, Note_on_c, 15, 51, 84
33, 463700, Note_on_c, 15, 52, 0
33, 463791, Note_on_c, 15, 51, 0
33, 464160, Program_c, 15, 44
33, 464181, Note_on_c, 15, 51, 78
33, 464421, Note_on_c, 15, 51, 0
33, 464421, Note_on_c, 15, 52, 90
33, 464661, Note_on_c, 15, 52, 0
33, 464665, Note_on_c, 15, 55, 93
33, 464904, Note_on_c, 15, 56, 85
33, 464905, Note_on_c, 15, 55, 0
33, 465123, Note_on_c, 15, 55, 83
33, 465144, Note_on_c, 15, 56, 0
33, 465363, Note_on_c, 15, 55, 0
33, 465380, Note_on_c, 15, 52, 78
33, 465600, Program_c, 15, 48
33, 465620, Note_on_c, 15, 52, 0
33, 465625, Note_on_c, 15, 51, 95
33, 465720, Note_on_c, 15, 51, 0
33, 466100, Note_on_c, 15, 43, 114
33, 466220, Note_on_c, 15, 43, 0
33, 466576, Note_on_c, 15, 43, 111
33, 466696, Note_on_c, 15, 43, 0
33, 467040, Program_c, 15, 44
33, 467054, Note_on_c, 15, 51, 85
33, 467294, Note_on_c, 15, 51, 0
33, 467301, Note_on_c, 15, 53, 87
33, 467528, Note_on_c, 15, 55, 85
33, 467541, Note_on_c, 15, 53, 0
33, 467768, Note_on_c, 15, 55, 0
33, 467783, Note_on_c, 15, 56, 83
33, 468023, Note_on_c, 15, 56, 0
33, 468024, Note_on_c, 15, 55, 83
33, 468258, Note_on_c, 15, 52, 84
33, 468264, Note_on_c, 15, 55, 0
33, 468480, Program_c, 15, 48
33, 468486, Note_on_c, 15, 51, 86
33, 468498, Note_on_c, 15, 52, 0
33, 468581, Note_on_c, 15, 51, 0
33, 468982, Note_on_c, 15, 43, 112
33, 469102, Note_on_c, 15, 43, 0
33, 489600, Program_c, 15, 45
33, 489624, Note_on_c, 15, 42, 101
33, 490104, Note_on_c, 15, 42, 0
33, 493920, Program_c, 15, 48
33, 493933, Note_on_c, 15, 42, 97
33, 494076, Note_on_c, 15, 42, 0
33, 494409, Note_on_c, 15, 42, 79
33, 494480, Note_on_c, 15, 42, 0
33, 494659, Note_on_c, 15, 42, 90
33, 494730, Note_on_c, 15, 42, 0
33, 494901, Note_on_c, 15, 42, 97
33, 494972, Note_on_c, 15, 42, 0
33, 495120, Note_on_c, 15, 42, 97
33, 495191, Note_on_c, 15, 42, 0
33, 495363, Note_on_c, 15, 42, 92
33, 495434, Note_on_c, 15, 42, 0
33, 495606, Note_on_c, 15, 42, 82
33, 495677, Note_on_c, 15, 42, 0
33, 495864, Note_on_c, 15, 42, 81
33, 495935, Note_on_c, 15, 42, 0
33, 496098, Note_on_c, 15, 42, 81
33, 496169, Note_on_c, 15, 42, 0
33, 496321, Note_on_c, 15, 42, 82
33, 496392, Note_on_c, 15, 42, 0
33, 496569, Note_on_c, 15, 42, 79
33, 496640, Note_on_c, 15, 42, 0
33, 496801, Note_on_c, 15, 42, 97
33, 496872, Note_on_c, 15, 42, 0
33, 497057, Note_on_c, 15, 42, 81
33, 497128, Note_on_c, 15, 42, 0
33, 498180, Note_on_c, 15, 28, 98
33, 498210, Note_on_c, 15, 28, 0
33, 498210, Note_on_c, 15, 29, 89
33, 498240, Note_on_c, 15, 29, 0
33, 498242, Note_on_c, 15, 30, 106
33, 498482, Note_on_c, 15, 30, 0
33, 499620, Note_on_c, 15, 28, 103
33, 499650, Note_on_c, 15, 28, 0
33, 499650, Note_on_c, 15, 29, 98
33, 499680, Note_on_c, 15, 29, 0
33, 499689, Note_on_c, 15, 30, 96
33, 499929, Note_on_c, 15, 30, 0
33, 500640, Program_c, 15, 48
33, 500649, Note_on_c, 15, 42, 90
33, 500792, Note_on_c, 15, 42, 0
33, 501136, Note_on_c, 15, 42, 97
33, 501207, Note_on_c, 15, 42, 0
33, 501368, Note_on_c, 15, 42, 81
33, 501439, Note_on_c, 15, 42, 0
33, 501600, Note_on_c, 15, 42, 80
33, 501671, Note_on_c, 15, 42, 0
33, 501843, Note_on_c, 15, 42, 98
33, 501914, Note_on_c, 15, 42, 0
33, 502085, Note_on_c, 15, 42, 78
33, 502156, Note_on_c, 15, 42, 0
33, 502335, Note_on_c, 15, 42, 89
33, 502406, Note_on_c, 15, 42, 0
33, 502567, Note_on_c, 15, 42, 92
33, 502638, Note_on_c, 15, 42, 0
33, 502819, Note_on_c, 15, 42, 94
33, 502890, Note_on_c, 15, 42, 0
33, 503055, Note_on_c, 15, 42, 80
33, 503126, Note_on_c, 15, 42, 0
33, 503300, Note_on_c, 15, 42, 79
33, 503371, Note_on_c, 15, 42, 0
33, 504420, Note_on_c, 15, 28, 83
33, 504450, Note_on_c, 15, 28, 0
33, 504450, Note_on_c, 15, 29, 83
33, 504480, Note_on_c, 15, 29, 0
33, 504495, Note_on_c, 15, 30, 108
33, 504735, Note_on_c, 15, 30, 0
33, 505860, Note_on_c, 15, 28, 106
33, 505890, Note_on_c, 15, 28, 0
33, 505890, Note_on_c, 15, 29, 104
33, 505920, Note_on_c, 15, 29, 0
33, 505926, Note_on_c, 15, 30, 99
33, 506166, Note_on_c, 15, 30, 0
33, 507780, Note_on_c, 15, 28, 97
33, 507810, Note_on_c, 15, 28, 0
33, 507810, Note_on_c, 15, 29, 114
33, 507840, Note_on_c, 15, 29, 0
33, 507852, Note_on_c, 15, 30, 115
33, 508092, Note_on_c, 15, 30, 0
33, 512646, Note_on_c, 15, 31, 86
33, 513126, Note_on_c, 15, 31, 0
33, 517444, Note_on_c, 15, 31, 94
33, 517924, Note_on_c, 15, 31, 0
33, 518411, Note_on_c, 15, 31, 80
33, 518482, Note_on_c, 15, 31, 0
33, 525138, Note_on_c, 15, 31, 85
33, 525618, Note_on_c, 15, 31, 0
33, 526089, Note_on_c, 15, 31, 94
33, 526569, Note_on_c, 15, 31, 0
33, 527042, Note_on_c, 15, 31, 90
33, 527522, Note_on_c, 15, 31, 0
33, 528013, Note_on_c, 15, 31, 95
33, 528084, Note_on_c, 15, 31, 0
33, 540501, Note_on_c, 15, 42, 79
33, 540644, Note_on_c, 15, 42, 0
33, 540964, Note_on_c, 15, 42, 91
33, 541035, Note_on_c, 15, 42, 0
33, 541221, Note_on_c, 15, 42, 83
33, 541292, Note_on_c, 15, 42, 0
33, 541449, Note_on_c, 15, 42, 83
33, 541520, Note_on_c, 15, 42, 0
33, 541691, Note_on_c, 15, 42, 93
33, 541762, Note_on_c, 15, 42, 0
33, 541943, Note_on_c, 15, 42, 81
33, 542014, Note_on_c, 15, 42, 0
33, 542171, Note_on_c, 15, 42, 96
33, 542242, Note_on_c, 15, 42, 0
33, 542409, Note_on_c, 15, 42, 97
33, 542480, Note_on_c, 15, 42, 0
33, 542644, Note_on_c, 15, 42, 95
33, 542715, Note_on_c, 15, 42, 0
33, 542897, Note_on_c, 15, 42, 82
33, 542968, Note_on_c, 15, 42, 0
33, 543140, Note_on_c, 15, 42, 81
33, 543211, Note_on_c, 15, 42, 0
33, 543364, Note_on_c, 15, 42, 83
33, 543435, Note_on_c, 15, 42, 0
33, 543611, Note_on_c, 15, 42, 93
33, 543682, Note_on_c, 15, 42, 0
33, 543859, Note_on_c, 15, 42, 87
33, 543930, Note_on_c, 15, 42, 0
33, 544090, Note_on_c, 15, 42, 86
33, 544161, Note_on_c, 15, 42, 0
33, 544342, Note_on_c, 15, 42, 86
33, 544413, Note_on_c, 15, 42, 0
33, 544581, Note_on_c, 15, 42, 78
33, 544652, Note_on_c, 15, 42, 0
33, 544821, Note_on_c, 15, 42, 80
33, 544892, Note_on_c, 15, 42, 0
33, 545059, Note_on_c, 15, 42, 86
33, 545130, Note_on_c, 15, 42, 0
33, 545290, Note_on_c, 15, 42, 81
33, 545361, Note_on_c, 15, 42, 0
33, 546240, Program_c, 15, 45
33, 546260, Note_on_c, 15, 42, 54
33, 546500, Note_on_c, 15, 42, 0
33, 546964, Note_on_c, 15, 47, 58
33, 547204, Note_on_c, 15, 47, 0
33, 547208, Note_on_c, 15, 51, 59
33, 547448, Note_on_c, 15, 51, 0
33, 547928, Note_on_c, 15, 44, 47
33, 548163, Note_on_c, 15, 42, 52
33, 548168, Note_on_c, 15, 44, 0
33, 548403, Note_on_c, 15, 42, 0
33, 548881, Note_on_c, 15, 47, 51
33, 549121, Note_on_c, 15, 47, 0
33, 549125, Note_on_c, 15, 51, 56
33, 549365, Note_on_c, 15, 51, 0
33, 549852, Note_on_c, 15, 44, 51
33, 550092, Note_on_c, 15, 44, 0
33, 550101, Note_on_c, 15, 42, 56
33, 550341, Note_on_c, 15, 42, 0
33, 550812, Note_on_c, 15, 47, 56
33, 551052, Note_on_c, 15, 47, 0
33, 551057, Note_on_c, 15, 51, 59
33, 551297, Note_on_c, 15, 51, 0
33, 551781, Note_on_c, 15, 44, 59
33, 552018, Note_on_c, 15, 42, 43
33, 552021, Note_on_c, 15, 44, 0
33, 552258, Note_on_c, 15, 42, 0
33, 552967, Note_on_c, 15, 45, 40
33, 553207, Note_on_c, 15, 45, 0
33, 553222, Note_on_c, 15, 33, 39
33, 553462, Note_on_c, 15, 33, 0
33, 553926, Note_on_c, 15, 30, 44
33, 554161, Note_on_c, 15, 42, 46
33, 554166, Note_on_c, 15, 30, 0
33, 554401, Note_on_c, 15, 42, 0
33, 554899, Note_on_c, 15, 45, 58
33, 555132, Note_on_c, 15, 33, 40
33, 555139, Note_on_c, 15, 45, 0
33, 555372, Note_on_c, 15, 33, 0
33, 555859, Note_on_c, 15, 30, 57
33, 556097, Note_on_c, 15, 42, 46
33, 556099, Note_on_c, 15, 30, 0
33, 556337, Note_on_c, 15, 42, 0
33, 557777, Note_on_c, 15, 35, 39
33, 558017, Note_on_c, 15, 35, 0
33, 558483, Note_on_c, 15, 40, 44
33, 558723, Note_on_c, 15, 40, 0
33, 558731, Note_on_c, 15, 44, 52
33, 558971, Note_on_c, 15, 44, 0
33, 559444, Note_on_c, 15, 37, 57
33, 559684, Note_on_c, 15, 37, 0
33, 559700, Note_on_c, 15, 35, 58
33, 559940, Note_on_c, 15, 35, 0
33, 560425, Note_on_c, 15, 40, 47
33, 560642, Note_on_c, 15, 44, 41
33, 560665, Note_on_c, 15, 40, 0
33, 560882, Note_on_c, 15, 44, 0
33, 561600, Program_c, 15, 48
33, 561608, Note_on_c, 15, 30, 91
33, 561683, Note_on_c, 15, 31, 105
33, 561688, Note_on_c, 15, 30, 0
33, 561762, Note_on_c, 15, 31, 0
33, 561784, Note_on_c, 15, 30, 99
33, 561854, Note_on_c, 15, 28, 98
33, 561864, Note_on_c, 15, 30, 0
33, 561974, Note_on_c, 15, 28, 0
33, 562105, Note_on_c, 15, 30, 93
33, 562161, Note_on_c, 15, 31, 101
33, 562185, Note_on_c, 15, 30, 0
33, 562240, Note_on_c, 15, 31, 0
33, 562247, Note_on_c, 15, 30, 85
33, 562327, Note_on_c, 15, 30, 0
33, 562345, Note_on_c, 15, 28, 87
33, 562465, Note_on_c, 15, 28, 0
33, 562579, Note_on_c, 15, 30, 104
33, 562647, Note_on_c, 15, 31, 97
33, 562659, Note_on_c, 15, 30, 0
33, 562726, Note_on_c, 15, 31, 0
33, 562731, Note_on_c, 15, 30, 90
33, 562811, Note_on_c, 15, 30, 0
33, 562814, Note_on_c, 15, 28, 86
33, 562934, Note_on_c, 15, 28, 0
33, 563056, Note_on_c, 15, 30, 104
33, 563136, Note_on_c, 15, 30, 0
33, 563142, Note_on_c, 15, 31, 85
33, 563213, Note_on_c, 15, 30, 100
33, 563221, Note_on_c, 15, 31, 0
33, 563289, Note_on_c, 15, 28, 104
33, 563293, Note_on_c, 15, 30, 0
33, 563409, Note_on_c, 15, 28, 0
33, 563535, Note_on_c, 15, 30, 89
33, 563610, Note_on_c, 15, 31, 91
33, 563615, Note_on_c, 15, 30, 0
33, 563689, Note_on_c, 15, 31, 0
33, 563704, Note_on_c, 15, 30, 95
33, 563784, Note_on_c, 15, 30, 0
33, 563784, Note_on_c, 15, 28, 86
33, 563904, Note_on_c, 15, 28, 0
33, 564003, Note_on_c, 15, 30, 100
33, 564083, Note_on_c, 15, 30, 0
33, 564092, Note_on_c, 15, 31, 93
33, 564171, Note_on_c, 15, 31, 0
33, 564171, Note_on_c, 15, 30, 87
33, 564251, Note_on_c, 15, 30, 0
33, 564261, Note_on_c, 15, 28, 103
33, 564381, Note_on_c, 15, 28, 0
33, 564502, Note_on_c, 15, 30, 86
33, 564571, Note_on_c, 15, 31, 86
33, 564582, Note_on_c, 15, 30, 0
33, 564650, Note_on_c, 15, 31, 0
33, 564663, Note_on_c, 15, 30, 93
33, 564741, Note_on_c, 15, 28, 95
33, 564743, Note_on_c, 15, 30, 0
33, 564861, Note_on_c, 15, 28, 0
33, 564974, Note_on_c, 15, 30, 89
33, 565054, Note_on_c, 15, 30, 0
33, 565060, Note_on_c, 15, 31, 87
33, 565138, Note_on_c, 15, 30, 99
33, 565139, Note_on_c, 15, 31, 0
33, 565211, Note_on_c, 15, 28, 90
33, 565218, Note_on_c, 15, 30, 0
33, 565331, Note_on_c, 15, 28, 0
33, 565443, Note_on_c, 15, 30, 91
33, 565522, Note_on_c, 15, 31, 94
33, 565523, Note_on_c, 15, 30, 0
33, 565601, Note_on_c, 15, 31, 0
33, 565606, Note_on_c, 15, 30, 96
33, 565684, Note_on_c, 15, 28, 98
33, 565686, Note_on_c, 15, 30, 0
33, 565804, Note_on_c, 15, 28, 0
33, 565942, Note_on_c, 15, 30, 90
33, 566012, Note_on_c, 15, 31, 95
33, 566022, Note_on_c, 15, 30, 0
33, 566085, Note_on_c, 15, 30, 83
33, 566091, Note_on_c, 15, 31, 0
33, 566165, Note_on_c, 15, 30, 0
33, 566182, Note_on_c, 15, 28, 96
33, 566302, Note_on_c, 15, 28, 0
33, 566413, Note_on_c, 15, 30, 79
33, 566492, Note_on_c, 15, 31, 89
33, 566493, Note_on_c, 15, 30, 0
33, 566571, Note_on_c, 15, 31, 0
33, 566574, Note_on_c, 15, 30, 86
33, 566640, Note_on_c, 15, 28, 78
33, 566654, Note_on_c, 15, 30, 0
33, 566760, Note_on_c, 15, 28, 0
33, 566890, Note_on_c, 15, 30, 92
33, 566970, Note_on_c, 15, 30, 0
33, 566984, Note_on_c, 15, 31, 79
33, 567049, Note_on_c, 15, 30, 92
33, 567063, Note_on_c, 15, 31, 0
33, 567128, Note_on_c, 15, 28, 81
33, 567129, Note_on_c, 15, 30, 0
33, 567248, Note_on_c, 15, 28, 0
33, 567360, Note_on_c, 15, 30, 96
33, 567440, Note_on_c, 15, 30, 0
33, 567441, Note_on_c, 15, 31, 85
33, 567520, Note_on_c, 15, 31, 0
33, 567535, Note_on_c, 15, 30, 84
33, 567604, Note_on_c, 15, 28, 89
33, 567615, Note_on_c, 15, 30, 0
33, 567724, Note_on_c, 15, 28, 0
33, 567860, Note_on_c, 15, 30, 88
33, 567939, Note_on_c, 15, 31, 84
33, 567940, Note_on_c, 15, 30, 0
33, 568012, Note_on_c, 15, 30, 86
33, 568018, Note_on_c, 15, 31, 0
33, 568087, Note_on_c, 15, 28, 90
33, 568092, Note_on_c, 15, 30, 0
33, 568207, Note_on_c, 15, 28, 0
33, 568343, Note_on_c, 15, 30, 85
33, 568419, Note_on_c, 15, 31, 90
33, 568423, Note_on_c, 15, 30, 0
33, 568498, Note_on_c, 15, 31, 0
33, 568498, Note_on_c, 15, 30, 85
33, 568576, Note_on_c, 15, 28, 82
33, 568578, Note_on_c, 15, 30, 0
33, 568696, Note_on_c, 15, 28, 0
33, 568800, Note_on_c, 15, 30, 94
33, 568880, Note_on_c, 15, 30, 0
33, 568902, Note_on_c, 15, 31, 87
33, 568975, Note_on_c, 15, 30, 89
33, 568981, Note_on_c, 15, 31, 0
33, 569050, Note_on_c, 15, 28, 80
33, 569055, Note_on_c, 15, 30, 0
33, 569170, Note_on_c, 15, 28, 0
33, 569285, Note_on_c, 15, 30, 86
33, 569364, Note_on_c, 15, 31, 83
33, 569365, Note_on_c, 15, 30, 0
33, 569443, Note_on_c, 15, 31, 0
33, 569456, Note_on_c, 15, 30, 89
33, 569529, Note_on_c, 15, 28, 98
33, 569536, Note_on_c, 15, 30, 0
33, 569649, Note_on_c, 15, 28, 0
33, 569769, Note_on_c, 15, 30, 82
33, 569847, Note_on_c, 15, 31, 98
33, 569849, Note_on_c, 15, 30, 0
33, 569921, Note_on_c, 15, 30, 90
33, 569926, Note_on_c, 15, 31, 0
33, 570001, Note_on_c, 15, 30, 0
33, 570009, Note_on_c, 15, 28, 78
33, 570129, Note_on_c, 15, 28, 0
33, 570252, Note_on_c, 15, 30, 80
33, 570332, Note_on_c, 15, 30, 0
33, 570340, Note_on_c, 15, 31, 93
33, 570405, Note_on_c, 15, 30, 92
33, 570419, Note_on_c, 15, 31, 0
33, 570483, Note_on_c, 15, 28, 82
33, 570485, Note_on_c, 15, 30, 0
33, 570603, Note_on_c, 15, 28, 0
33, 570736, Note_on_c, 15, 30, 88
33, 570812, Note_on_c, 15, 31, 97
33, 570816, Note_on_c, 15, 30, 0
33, 570890, Note_on_c, 15, 30, 94
33, 570891, Note_on_c, 15, 31, 0
33, 570970, Note_on_c, 15, 30, 0
33, 570970, Note_on_c, 15, 28, 92
33, 571090, Note_on_c, 15, 28, 0
33, 571209, Note_on_c, 15, 30, 94
33, 571289, Note_on_c, 15, 30, 0
33, 571293, Note_on_c, 15, 31, 95
33, 571370, Note_on_c, 15, 30, 83
33, 571372, Note_on_c, 15, 31, 0
33, 571450, Note_on_c, 15, 30, 0
33, 571453, Note_on_c, 15, 28, 98
33, 571573, Note_on_c, 15, 28, 0
33, 571694, Note_on_c, 15, 30, 91
33, 571772, Note_on_c, 15, 31, 78
33, 571774, Note_on_c, 15, 30, 0
33, 571849, Note_on_c, 15, 30, 79
33, 571851, Note_on_c, 15, 31, 0
33, 571926, Note_on_c, 15, 28, 98
33, 571929, Note_on_c, 15, 30, 0
33, 572046, Note_on_c, 15, 28, 0
33, 572177, Note_on_c, 15, 30, 81
33, 572245, Note_on_c, 15, 31, 94
33, 572257, Note_on_c, 15, 30, 0
33, 572324, Note_on_c, 15, 31, 0
33, 572327, Note_on_c, 15, 30, 98
33, 572400, Note_on_c, 15, 28, 90
33, 572407, Note_on_c, 15, 30, 0
33, 572520, Note_on_c, 15, 28, 0
33, 572644, Note_on_c, 15, 30, 91
33, 572724, Note_on_c, 15, 30, 0
33, 572726, Note_on_c, 15, 31, 94
33, 572803, Note_on_c, 15, 30, 94
33, 572805, Note_on_c, 15, 31, 0
33, 572883, Note_on_c, 15, 30, 0
33, 572900, Note_on_c, 15, 28, 82
33, 573020, Note_on_c, 15, 28, 0
33, 573127, Note_on_c, 15, 30, 84
33, 573207, Note_on_c, 15, 30, 0
33, 573210, Note_on_c, 15, 31, 84
33, 573285, Note_on_c, 15, 30, 79
33, 573289, Note_on_c, 15, 31, 0
33, 573364, Note_on_c, 15, 28, 93
33, 573365, Note_on_c, 15, 30, 0
33, 573484, Note_on_c, 15, 28, 0
33, 573613, Note_on_c, 15, 30, 85
33, 573688, Note_on_c, 15, 31, 97
33, 573693, Note_on_c, 15, 30, 0
33, 573766, Note_on_c, 15, 30, 93
33, 573767, Note_on_c, 15, 31, 0
33, 573846, Note_on_c, 15, 30, 0
33, 573848, Note_on_c, 15, 28, 97
33, 573968, Note_on_c, 15, 28, 0
33, 574090, Note_on_c, 15, 30, 89
33, 574161, Note_on_c, 15, 31, 96
33, 574170, Note_on_c, 15, 30, 0
33, 574240, Note_on_c, 15, 31, 0
33, 574242, Note_on_c, 15, 30, 90
33, 574320, Note_on_c, 15, 28, 79
33, 574322, Note_on_c, 15, 30, 0
33, 574440, Note_on_c, 15, 28, 0
33, 574563, Note_on_c, 15, 30, 92
33, 574643, Note_on_c, 15, 30, 0
33, 574647, Note_on_c, 15, 31, 93
33, 574726, Note_on_c, 15, 31, 0
33, 574728, Note_on_c, 15, 30, 97
33, 574808, Note_on_c, 15, 30, 0
33, 574815, Note_on_c, 15, 28, 87
33, 574935, Note_on_c, 15, 28, 0
33, 575058, Note_on_c, 15, 30, 79
33, 575136, Note_on_c, 15, 31, 85
33, 575138, Note_on_c, 15, 30, 0
33, 575215, Note_on_c, 15, 31, 0
33, 575224, Note_on_c, 15, 30, 85
33, 575293, Note_on_c, 15, 28, 97
33, 575304, Note_on_c, 15, 30, 0
33, 575413, Note_on_c, 15, 28, 0
33, 575523, Note_on_c, 15, 30, 80
33, 575603, Note_on_c, 15, 30, 0
33, 575614, Note_on_c, 15, 31, 81
33, 575688, Note_on_c, 15, 30, 78
33, 575693, Note_on_c, 15, 31, 0
33, 575765, Note_on_c, 15, 28, 86
33, 575768, Note_on_c, 15, 30, 0
33, 575885, Note_on_c, 15, 28, 0
33, 576022, Note_on_c, 15, 30, 95
33, 576102, Note_on_c, 15, 30, 0
33, 576103, Note_on_c, 15, 31, 78
33, 576168, Note_on_c, 15, 30, 80
33, 576182, Note_on_c, 15, 31, 0
33, 576242, Note_on_c, 15, 28, 88
33, 576248, Note_on_c, 15, 30, 0
33, 576362, Note_on_c, 15, 28, 0
33, 576505, Note_on_c, 15, 30, 86
33, 576570, Note_on_c, 15, 31, 93
33, 576585, Note_on_c, 15, 30, 0
33, 576645, Note_on_c, 15, 30, 79
33, 576649, Note_on_c, 15, 31, 0
33, 576725, Note_on_c, 15, 30, 0
33, 576741, Note_on_c, 15, 28, 94
33, 576861, Note_on_c, 15, 28, 0
33, 576982, Note_on_c, 15, 30, 81
33, 577053, Note_on_c, 15, 31, 81
33, 577062, Note_on_c, 15, 30, 0
33, 577120, Note_on_c, 15, 30, 81
33, 577132, Note_on_c, 15, 31, 0
33, 577200, Note_on_c, 15, 30, 0
33, 577215, Note_on_c, 15, 28, 83
33, 577335, Note_on_c, 15, 28, 0
33, 577458, Note_on_c, 15, 30, 88
33, 577538, Note_on_c, 15, 30, 0
33, 577538, Note_on_c, 15, 31, 84
33, 577617, Note_on_c, 15, 31, 0
33, 577620, Note_on_c, 15, 30, 90
33, 577700, Note_on_c, 15, 30, 0
33, 577705, Note_on_c, 15, 28, 91
33, 577825, Note_on_c, 15, 28, 0
33, 577943, Note_on_c, 15, 30, 90
33, 578022, Note_on_c, 15, 31, 94
33, 578023, Note_on_c, 15, 30, 0
33, 578101, Note_on_c, 15, 31, 0
33, 578103, Note_on_c, 15, 30, 89
33, 578179, Note_on_c, 15, 28, 87
33, 578183, Note_on_c, 15, 30, 0
33, 578299, Note_on_c, 15, 28, 0
33, 578400, Note_on_c, 15, 30, 97
33, 578480, Note_on_c, 15, 30, 0
33, 578489, Note_on_c, 15, 31, 82
33, 578568, Note_on_c, 15, 31, 0
33, 578571, Note_on_c, 15, 30, 82
33, 578650, Note_on_c, 15, 28, 88
33, 578651, Note_on_c, 15, 30, 0
33, 578770, Note_on_c, 15, 28, 0
33, 578880, Note_on_c, 15, 30, 89
33, 578960, Note_on_c, 15, 30, 0
33, 578985, Note_on_c, 15, 31, 79
33, 579061, Note_on_c, 15, 30, 83
33, 579064, Note_on_c, 15, 31, 0
33, 579133, Note_on_c, 15, 28, 86
33, 579141, Note_on_c, 15, 30, 0
33, 579253, Note_on_c, 15, 28, 0
33, 579375, Note_on_c, 15, 30, 83
33, 579446, Note_on_c, 15, 31, 97
33, 579455, Note_on_c, 15, 30, 0
33, 579522, Note_on_c, 15, 30, 86
33, 579525, Note_on_c, 15, 31, 0
33, 579602, Note_on_c, 15, 30, 0
33, 579603, Note_on_c, 15, 28, 87
33, 579723, Note_on_c, 15, 28, 0
33, 579864, Note_on_c, 15, 30, 98
33, 579939, Note_on_c, 15, 31, 79
33, 579944, Note_on_c, 15, 30, 0
33, 580014, Note_on_c, 15, 30, 88
33, 580018, Note_on_c, 15, 31, 0
33, 580094, Note_on_c, 15, 30, 0
33, 580103, Note_on_c, 15, 28, 92
33, 580223, Note_on_c, 15, 28, 0
33, 580338, Note_on_c, 15, 30, 87
33, 580418, Note_on_c, 15, 30, 0
33, 580422, Note_on_c, 15, 31, 81
33, 580492, Note_on_c, 15, 30, 88
33, 580501, Note_on_c, 15, 31, 0
33, 580566, Note_on_c, 15, 28, 80
33, 580572, Note_on_c, 15, 30, 0
33, 580686, Note_on_c, 15, 28, 0
33, 580806, Note_on_c, 15, 30, 98
33, 580886, Note_on_c, 15, 30, 0
33, 580901, Note_on_c, 15, 31, 83
33, 580967, Note_on_c, 15, 30, 85
33, 580980, Note_on_c, 15, 31, 0
33, 581047, Note_on_c, 15, 30, 0
33, 581051, Note_on_c, 15, 28, 94
33, 581171, Note_on_c, 15, 28, 0
33, 581297, Note_on_c, 15, 30, 79
33, 581377, Note_on_c, 15, 30, 0
33, 581377, Note_on_c, 15, 31, 80
33, 581447, Note_on_c, 15, 30, 87
33, 581456, Note_on_c, 15, 31, 0
33, 581527, Note_on_c, 15, 30, 0
33, 581544, Note_on_c, 15, 28, 91
33, 581664, Note_on_c, 15, 28, 0
33, 581769, Note_on_c, 15, 30, 78
33, 581847, Note_on_c, 15, 31, 84
33, 581849, Note_on_c, 15, 30, 0
33, 581926, Note_on_c, 15, 31, 0
33, 581932, Note_on_c, 15, 30, 81
33, 582007, Note_on_c, 15, 28, 96
33, 582012, Note_on_c, 15, 30, 0
33, 582127, Note_on_c, 15, 28, 0
33, 582255, Note_on_c, 15, 30, 88
33, 582335, Note_on_c, 15, 30, 0
33, 582341, Note_on_c, 15, 31, 97
33, 582413, Note_on_c, 15, 30, 90
33, 582420, Note_on_c, 15, 31, 0
33, 582493, Note_on_c, 15, 30, 0
33, 582495, Note_on_c, 15, 28, 93
33, 582615, Note_on_c, 15, 28, 0
33, 582743, Note_on_c, 15, 30, 81
33, 582819, Note_on_c, 15, 31, 86
33, 582823, Note_on_c, 15, 30, 0
33, 582896, Note_on_c, 15, 30, 95
33, 582898, Note_on_c, 15, 31, 0
33, 582976, Note_on_c, 15, 30, 0
33, 582982, Note_on_c, 15, 28, 89
33, 583102, Note_on_c, 15, 28, 0
33, 583205, Note_on_c, 15, 30, 82
33, 583285, Note_on_c, 15, 30, 0
33, 583300, Note_on_c, 15, 31, 93
33, 583359, Note_on_c, 15, 30, 88
33, 583379, Note_on_c, 15, 31, 0
33, 583439, Note_on_c, 15, 30, 0
33, 583448, Note_on_c, 15, 28, 88
33, 583568, Note_on_c, 15, 28, 0
33, 583684, Note_on_c, 15, 30, 82
33, 583764, Note_on_c, 15, 30, 0
33, 583765, Note_on_c, 15, 31, 93
33, 583844, Note_on_c, 15, 31, 0
33, 583860, Note_on_c, 15, 30, 93
33, 583928, Note_on_c, 15, 28, 98
33, 583940, Note_on_c, 15, 30, 0
33, 584048, Note_on_c, 15, 28, 0
33, 584180, Note_on_c, 15, 30, 90
33, 584249, Note_on_c, 15, 31, 93
33, 584260, Note_on_c, 15, 30, 0
33, 584328, Note_on_c, 15, 31, 0
33, 584343, Note_on_c, 15, 30, 80
33, 584400, Note_on_c, 15, 28, 87
33, 584423, Note_on_c, 15, 30, 0
33, 584520, Note_on_c, 15, 28, 0
33, 584652, Note_on_c, 15, 30, 98
33, 584731, Note_on_c, 15, 31, 78
33, 584732, Note_on_c, 15, 30, 0
33, 584801, Note_on_c, 15, 30, 80
33, 584810, Note_on_c, 15, 31, 0
33, 584881, Note_on_c, 15, 30, 0
33, 584893, Note_on_c, 15, 28, 79
33, 585013, Note_on_c, 15, 28, 0
33, 585127, Note_on_c, 15, 30, 79
33, 585207, Note_on_c, 15, 30, 0
33, 585216, Note_on_c, 15, 31, 81
33, 585295, Note_on_c, 15, 31, 0
33, 585299, Note_on_c, 15, 30, 82
33, 585366, Note_on_c, 15, 28, 93
33, 585379, Note_on_c, 15, 30, 0
33, 585486, Note_on_c, 15, 28, 0
33, 585622, Note_on_c, 15, 30, 80
33, 585685, Note_on_c, 15, 31, 81
33, 585702, Note_on_c, 15, 30, 0
33, 585764, Note_on_c, 15, 31, 0
33, 585773, Note_on_c, 15, 30, 94
33, 585852, Note_on_c, 15, 28, 87
33, 585853, Note_on_c, 15, 30, 0
33, 585972, Note_on_c, 15, 28, 0
33, 586094, Note_on_c, 15, 30, 91
33, 586160, Note_on_c, 15, 31, 97
33, 586174, Note_on_c, 15, 30, 0
33, 586239, Note_on_c, 15, 31, 0
33, 586263, Note_on_c, 15, 30, 89
33, 586333, Note_on_c, 15, 28, 86
33, 586343, Note_on_c, 15, 30, 0
33, 586453, Note_on_c, 15, 28, 0
33, 586583, Note_on_c, 15, 30, 95
33, 586660, Note_on_c, 15, 31, 79
33, 586663, Note_on_c, 15, 30, 0
33, 586723, Note_on_c, 15, 30, 93
33, 586739, Note_on_c, 15, 31, 0
33, 586803, Note_on_c, 15, 30, 0
33, 586819, Note_on_c, 15, 28, 87
33, 586939, Note_on_c, 15, 28, 0
33, 587055, Note_on_c, 15, 30, 83
33, 587135, Note_on_c, 15, 30, 0
33, 587137, Note_on_c, 15, 31, 80
33, 587216, Note_on_c, 15, 31, 0
33, 587221, Note_on_c, 15, 30, 84
33, 587294, Note_on_c, 15, 28, 95
33, 587301, Note_on_c, 15, 30, 0
33, 587414, Note_on_c, 15, 28, 0
33, 587536, Note_on_c, 15, 30, 98
33, 587610, Note_on_c, 15, 31, 92
33, 587616, Note_on_c, 15, 30, 0
33, 587689, Note_on_c, 15, 31, 0
33, 587701, Note_on_c, 15, 30, 95
33, 587765, Note_on_c, 15, 28, 90
33, 587781, Note_on_c, 15, 30, 0
33, 587885, Note_on_c, 15, 28, 0
33, 588001, Note_on_c, 15, 30, 89
33, 588081, Note_on_c, 15, 30, 0
33, 588101, Note_on_c, 15, 31, 95
33, 588163, Note_on_c, 15, 30, 79
33, 588180, Note_on_c, 15, 31, 0
33, 588243, Note_on_c, 15, 30, 0
33, 588257, Note_on_c, 15, 28, 91
33, 588377, Note_on_c, 15, 28, 0
33, 588491, Note_on_c, 15, 30, 88
33, 588560, Note_on_c, 15, 31, 84
33, 588571, Note_on_c, 15, 30, 0
33, 588639, Note_on_c, 15, 31, 0
33, 588655, Note_on_c, 15, 30, 85
33, 588732, Note_on_c, 15, 28, 81
33, 588735, Note_on_c, 15, 30, 0
33, 588852, Note_on_c, 15, 28, 0
33, 588982, Note_on_c, 15, 30, 83
33, 589042, Note_on_c, 15, 31, 80
33, 589062, Note_on_c, 15, 30, 0
33, 589121, Note_on_c, 15, 31, 0
33, 589140, Note_on_c, 15, 30, 97
33, 589208, Note_on_c, 15, 28, 88
33, 589220, Note_on_c, 15, 30, 0
33, 589328, Note_on_c, 15, 28, 0
33, 589449, Note_on_c, 15, 30, 82
33, 589522, Note_on_c, 15, 31, 85
33, 589529, Note_on_c, 15, 30, 0
33, 589601, Note_on_c, 15, 31, 0
33, 589623, Note_on_c, 15, 30, 83
33, 589683, Note_on_c, 15, 28, 92
33, 589703, Note_on_c, 15, 30, 0
33, 589803, Note_on_c, 15, 28, 0
33, 589942, Note_on_c, 15, 30, 98
33, 590010, Note_on_c, 15, 31, 90
33, 590022, Note_on_c, 15, 30, 0
33, 590089, Note_on_c, 15, 31, 0
33, 590091, Note_on_c, 15, 30, 96
33, 590171, Note_on_c, 15, 30, 0
33, 590180, Note_on_c, 15, 28, 89
33, 590300, Note_on_c, 15, 28, 0
33, 590405, Note_on_c, 15, 30, 79
33, 590485, Note_on_c, 15, 30, 0
33, 590496, Note_on_c, 15, 31, 96
33, 590559, Note_on_c, 15, 30, 96
33, 590575, Note_on_c, 15, 31, 0
33, 590639, Note_on_c, 15, 30, 0
33, 590648, Note_on_c, 15, 28, 93
33, 590768, Note_on_c, 15, 28, 0
33, 590896, Note_on_c, 15, 30, 96
33, 590974, Note_on_c, 15, 31, 81
33, 590976, Note_on_c, 15, 30, 0
33, 591041, Note_on_c, 15, 30, 96
33, 591053, Note_on_c, 15, 31, 0
33, 591121, Note_on_c, 15, 30, 0
33, 591143, Note_on_c, 15, 28, 96
33, 591263, Note_on_c, 15, 28, 0
33, 591361, Note_on_c, 15, 30, 96
33, 591441, Note_on_c, 15, 30, 0
33, 591443, Note_on_c, 15, 31, 91
33, 591522, Note_on_c, 15, 31, 0
33, 591532, Note_on_c, 15, 30, 84
33, 591606, Note_on_c, 15, 28, 92
33, 591612, Note_on_c, 15, 30, 0
33, 591726, Note_on_c, 15, 28, 0
33, 591855, Note_on_c, 15, 30, 79
33, 591926, Note_on_c, 15, 31, 81
33, 591935, Note_on_c, 15, 30, 0
33, 592005, Note_on_c, 15, 31, 0
33, 592007, Note_on_c, 15, 30, 86
33, 592081, Note_on_c, 15, 28, 87
33, 592087, Note_on_c, 15, 30, 0
33, 592201, Note_on_c, 15, 28, 0
33, 592339, Note_on_c, 15, 30, 96
33, 592419, Note_on_c, 15, 30, 0
33, 592422, Note_on_c, 15, 31, 96
33, 592483, Note_on_c, 15, 30, 84
33, 592501, Note_on_c, 15, 31, 0
33, 592563, Note_on_c, 15, 30, 0
33, 592583, Note_on_c, 15, 28, 84
33, 592703, Note_on_c, 15, 28, 0
33, 592822, Note_on_c, 15, 30, 82
33, 592899, Note_on_c, 15, 31, 96
33, 592902, Note_on_c, 15, 30, 0
33, 592974, Note_on_c, 15, 30, 98
33, 592978, Note_on_c, 15, 31, 0
33, 593041, Note_on_c, 15, 28, 83
33, 593054, Note_on_c, 15, 30, 0
33, 593161, Note_on_c, 15, 28, 0
33, 593294, Note_on_c, 15, 30, 87
33, 593360, Note_on_c, 15, 31, 89
33, 593374, Note_on_c, 15, 30, 0
33, 593439, Note_on_c, 15, 31, 0
33, 593452, Note_on_c, 15, 30, 92
33, 593532, Note_on_c, 15, 30, 0
33, 593543, Note_on_c, 15, 28, 89
33, 593663, Note_on_c, 15, 28, 0
33, 593776, Note_on_c, 15, 30, 97
33, 593855, Note_on_c, 15, 31, 93
33, 593856, Note_on_c, 15, 30, 0
33, 593934, Note_on_c, 15, 31, 0
33, 593934, Note_on_c, 15, 30, 81
33, 594013, Note_on_c, 15, 28, 85
33, 594014, Note_on_c, 15, 30, 0
33, 594133, Note_on_c, 15, 28, 0
33, 594261, Note_on_c, 15, 30, 97
33, 594331, Note_on_c, 15, 31, 82
33, 594341, Note_on_c, 15, 30, 0
33, 594410, Note_on_c, 15, 31, 0
33, 594424, Note_on_c, 15, 30, 79
33, 594496, Note_on_c, 15, 28, 84
33, 594504, Note_on_c, 15, 30, 0
33, 594616, Note_on_c, 15, 28, 0
33, 594732, Note_on_c, 15, 30, 81
33, 594805, Note_on_c, 15, 31, 84
33, 594812, Note_on_c, 15, 30, 0
33, 594884, Note_on_c, 15, 31, 0
33, 594892, Note_on_c, 15, 30, 78
33, 594972, Note_on_c, 15, 30, 0
33, 594985, Note_on_c, 15, 28, 86
33, 595105, Note_on_c, 15, 28, 0
33, 595202, Note_on_c, 15, 30, 85
33, 595282, Note_on_c, 15, 30, 0
33, 595303, Note_on_c, 15, 31, 79
33, 595377, Note_on_c, 15, 30, 83
33, 595382, Note_on_c, 15, 31, 0
33, 595442, Note_on_c, 15, 28, 95
33, 595457, Note_on_c, 15, 30, 0
33, 595562, Note_on_c, 15, 28, 0
33, 595698, Note_on_c, 15, 30, 86
33, 595778, Note_on_c, 15, 30, 0
33, 595781, Note_on_c, 15, 31, 91
33, 595841, Note_on_c, 15, 30, 83
33, 595860, Note_on_c, 15, 31, 0
33, 595921, Note_on_c, 15, 30, 0
33, 595930, Note_on_c, 15, 28, 98
33, 596050, Note_on_c, 15, 28, 0
33, 596182, Note_on_c, 15, 30, 88
33, 596240, Note_on_c, 15, 31, 85
33, 596262, Note_on_c, 15, 30, 0
33, 596319, Note_on_c, 15, 31, 0
33, 596343, Note_on_c, 15, 30, 93
33, 596406, Note_on_c, 15, 28, 83
33, 596423, Note_on_c, 15, 30, 0
33, 596526, Note_on_c, 15, 28, 0
33, 596642, Note_on_c, 15, 30, 83
33, 596722, Note_on_c, 15, 30, 0
33, 596734, Note_on_c, 15, 31, 88
33, 596813, Note_on_c, 15, 31, 0
33, 596818, Note_on_c, 15, 30, 89
33, 596896, Note_on_c, 15, 28, 84
33, 596898, Note_on_c, 15, 30, 0
33, 597016, Note_on_c, 15, 28, 0
33, 597144, Note_on_c, 15, 30, 80
33, 597221, Note_on_c, 15, 31, 89
33, 597224, Note_on_c, 15, 30, 0
33, 597284, Note_on_c, 15, 30, 97
33, 597300, Note_on_c, 15, 31, 0
33, 597364, Note_on_c, 15, 30, 0
33, 597370, Note_on_c, 15, 28, 93
33, 597490, Note_on_c, 15, 28, 0
33, 597611, Note_on_c, 15, 30, 79
33, 597689, Note_on_c, 15, 31, 78
33, 597691, Note_on_c, 15, 30, 0
33, 597763, Note_on_c, 15, 30, 85
33, 597768, Note_on_c, 15, 31, 0
33, 597843, Note_on_c, 15, 30, 0
33, 597844, Note_on_c, 15, 28, 82
33, 597964, Note_on_c, 15, 28, 0
33, 598096, Note_on_c, 15, 30, 85
33, 598161, Note_on_c, 15, 31, 79
33, 598176, Note_on_c, 15, 30, 0
33, 598240, Note_on_c, 15, 31, 0
33, 598259, Note_on_c, 15, 30, 92
33, 598335, Note_on_c, 15, 28, 97
33, 598339, Note_on_c, 15, 30, 0
33, 598455, Note_on_c, 15, 28, 0
33, 598574, Note_on_c, 15, 30, 84
33, 598654, Note_on_c, 15, 30, 0
33, 598654, Note_on_c, 15, 31, 91
33, 598733, Note_on_c, 15, 31, 0
33, 598735, Note_on_c, 15, 30, 81
33, 598815, Note_on_c, 15, 30, 0
33, 598818, Note_on_c, 15, 28, 97
33, 598938, Note_on_c, 15, 28, 0
33, 599042, Note_on_c, 15, 30, 95
33, 599122, Note_on_c, 15, 30, 0
33, 599140, Note_on_c, 15, 31, 88
33, 599206, Note_on_c, 15, 30, 98
33, 599219, Note_on_c, 15, 31, 0
33, 599286, Note_on_c, 15, 30, 0
33, 599286, Note_on_c, 15, 28, 81
33, 599406, Note_on_c, 15, 28, 0
33, 599521, Note_on_c, 15, 30, 78
33, 599601, Note_on_c, 15, 30, 0
33, 599623, Note_on_c, 15, 31, 86
33, 599693, Note_on_c, 15, 30, 86
33, 599702, Note_on_c, 15, 31, 0
33, 599772, Note_on_c, 15, 28, 92
33, 599773, Note_on_c, 15, 30, 0
33, 599892, Note_on_c, 15, 28, 0
33, 600024, Note_on_c, 15, 30, 79
33, 600082, Note_on_c, 15, 31, 78
33, 600104, Note_on_c, 15, 30, 0
33, 600161, Note_on_c, 15, 31, 0
33, 600164, Note_on_c, 15, 30, 91
33, 600244, Note_on_c, 15, 30, 0
33, 600264, Note_on_c, 15, 28, 96
33, 600384, Note_on_c, 15, 28, 0
33, 600496, Note_on_c, 15, 30, 92
33, 600570, Note_on_c, 15, 31, 94
33, 600576, Note_on_c, 15, 30, 0
33, 600649, Note_on_c, 15, 31, 0
33, 600651, Note_on_c, 15, 30, 79
33, 600731, Note_on_c, 15, 30, 0
33, 600740, Note_on_c, 15, 28, 89
33, 600860, Note_on_c, 15, 28, 0
33, 600980, Note_on_c, 15, 30, 79
33, 601060, Note_on_c, 15, 30, 0
33, 601064, Note_on_c, 15, 31, 78
33, 601141, Note_on_c, 15, 30, 79
33, 601143, Note_on_c, 15, 31, 0
33, 601201, Note_on_c, 15, 28, 90
33, 601221, Note_on_c, 15, 30, 0
33, 601321, Note_on_c, 15, 28, 0
33, 601440, Note_on_c, 15, 30, 94
33, 601520, Note_on_c, 15, 30, 0
33, 601536, Note_on_c, 15, 31, 94
33, 601615, Note_on_c, 15, 31, 0
33, 601617, Note_on_c, 15, 30, 78
33, 601695, Note_on_c, 15, 28, 88
33, 601697, Note_on_c, 15, 30, 0
33, 601815, Note_on_c, 15, 28, 0
33, 601924, Note_on_c, 15, 30, 93
33, 602004, Note_on_c, 15, 30, 0
33, 602023, Note_on_c, 15, 31, 83
33, 602086, Note_on_c, 15, 30, 92
33, 602102, Note_on_c, 15, 31, 0
33, 602161, Note_on_c, 15, 28, 88
33, 602166, Note_on_c, 15, 30, 0
33, 602281, Note_on_c, 15, 28, 0
33, 602414, Note_on_c, 15, 30, 84
33, 602494, Note_on_c, 15, 30, 0
33, 602498, Note_on_c, 15, 31, 98
33, 602568, Note_on_c, 15, 30, 82
33, 602577, Note_on_c, 15, 31, 0
33, 602648, Note_on_c, 15, 30, 0
33, 602652, Note_on_c, 15, 28, 86
33, 602772, Note_on_c, 15, 28, 0
33, 602886, Note_on_c, 15, 30, 86
33, 602966, Note_on_c, 15, 30, 0
33, 602975, Note_on_c, 15, 31, 84
33, 603044, Note_on_c, 15, 30, 98
33, 603054, Note_on_c, 15, 31, 0
33, 603124, Note_on_c, 15, 30, 0
33, 603126, Note_on_c, 15, 28, 83
33, 603246, Note_on_c, 15, 28, 0
33, 603374, Note_on_c, 15, 30, 98
33, 603441, Note_on_c, 15, 31, 78
33, 603454, Note_on_c, 15, 30, 0
33, 603520, Note_on_c, 15, 31, 0
33, 603533, Note_on_c, 15, 30, 98
33, 603608, Note_on_c, 15, 28, 80
33, 603613, Note_on_c, 15, 30, 0
33, 603728, Note_on_c, 15, 28, 0
33, 603865, Note_on_c, 15, 30, 89
33, 603932, Note_on_c, 15, 31, 78
33, 603945, Note_on_c, 15, 30, 0
33, 604007, Note_on_c, 15, 30, 94
33, 604011, Note_on_c, 15, 31, 0
33, 604087, Note_on_c, 15, 30, 0
33, 604087, Note_on_c, 15, 28, 92
33, 604207, Note_on_c, 15, 28, 0
33, 631200, Program_c, 15, 43
33, 631221, Note_on_c, 15, 50, 73
33, 631341, Note_on_c, 15, 50, 0
33, 631455, Note_on_c, 15, 38, 85
33, 631575, Note_on_c, 15, 38, 0
33, 631694, Note_on_c, 15, 52, 75
33, 631814, Note_on_c, 15, 52, 0
33, 631934, Note_on_c, 15, 38, 72
33, 632054, Note_on_c, 15, 38, 0
33, 632164, Note_on_c, 15, 49, 73
33, 632284, Note_on_c, 15, 49, 0
33, 632412, Note_on_c, 15, 38, 77
33, 632532, Note_on_c, 15, 38, 0
33, 632652, Note_on_c, 15, 52, 78
33, 632772, Note_on_c, 15, 52, 0
33, 632889, Note_on_c, 15, 38, 69
33, 633009, Note_on_c, 15, 38, 0
33, 633131, Note_on_c, 15, 49, 76
33, 633251, Note_on_c, 15, 49, 0
33, 633372, Note_on_c, 15, 38, 83
33, 633492, Note_on_c, 15, 38, 0
33, 633604, Note_on_c, 15, 47, 78
33, 633724, Note_on_c, 15, 47, 0
33, 633844, Note_on_c, 15, 38, 69
33, 633964, Note_on_c, 15, 38, 0
33, 634101, Note_on_c, 15, 50, 72
33, 634221, Note_on_c, 15, 50, 0
33, 634325, Note_on_c, 15, 38, 71
33, 634445, Note_on_c, 15, 38, 0
33, 634567, Note_on_c, 15, 47, 75
33, 634687, Note_on_c, 15, 47, 0
33, 634819, Note_on_c, 15, 38, 81
33, 634939, Note_on_c, 15, 38, 0
33, 635054, Note_on_c, 15, 50, 70
33, 635174, Note_on_c, 15, 50, 0
33, 635303, Note_on_c, 15, 38, 69
33, 635423, Note_on_c, 15, 38, 0
33, 635526, Note_on_c, 15, 52, 66
33, 635646, Note_on_c, 15, 52, 0
33, 635761, Note_on_c, 15, 38, 72
33, 635881, Note_on_c, 15, 38, 0
33, 636012, Note_on_c, 15, 49, 76
33, 636132, Note_on_c, 15, 49, 0
33, 636259, Note_on_c, 15, 38, 83
33, 636379, Note_on_c, 15, 38, 0
33, 636491, Note_on_c, 15, 52, 77
33, 636611, Note_on_c, 15, 52, 0
33, 636729, Note_on_c, 15, 38, 65
33, 636849, Note_on_c, 15, 38, 0
33, 636970, Note_on_c, 15, 49, 79
33, 637090, Note_on_c, 15, 49, 0
33, 637223, Note_on_c, 15, 38, 79
33, 637343, Note_on_c, 15, 38, 0
33, 637447, Note_on_c, 15, 47, 83
33, 637567, Note_on_c, 15, 47, 0
33, 637691, Note_on_c, 15, 38, 79
33, 637811, Note_on_c, 15, 38, 0
33, 637938, Note_on_c, 15, 50, 84
33, 638058, Note_on_c, 15, 50, 0
33, 638161, Note_on_c, 15, 38, 76
33, 638281, Note_on_c, 15, 38, 0
33, 638415, Note_on_c, 15, 47, 79
33, 638535, Note_on_c, 15, 47, 0
33, 638652, Note_on_c, 15, 38, 75
33, 638772, Note_on_c, 15, 38, 0
33, 638880, Program_c, 15, 48
33, 638888, Note_on_c, 15, 28, 75
33, 638889, Note_on_c, 15, 34, 79
33, 639368, Note_on_c, 15, 28, 0
33, 639369, Note_on_c, 15, 34, 0
33, 639844, Note_on_c, 15, 28, 80
33, 639851, Note_on_c, 15, 34, 72
33, 640324, Note_on_c, 15, 28, 0
33, 640331, Note_on_c, 15, 34, 0
33, 640804, Note_on_c, 15, 37, 84
33, 640822, Note_on_c, 15, 31, 71
33, 641284, Note_on_c, 15, 37, 0
33, 641302, Note_on_c, 15, 31, 0
33, 641761, Note_on_c, 15, 32, 83
33, 641774, Note_on_c, 15, 38, 70
33, 642241, Note_on_c, 15, 32, 0
33, 642254, Note_on_c, 15, 38, 0
33, 642720, Note_on_c, 15, 27, 74
33, 642725, Note_on_c, 15, 33, 74
33, 643200, Note_on_c, 15, 27, 0
33, 643205, Note_on_c, 15, 33, 0
33, 643681, Note_on_c, 15, 28, 76
33, 643693, Note_on_c, 15, 34, 82
33, 644161, Note_on_c, 15, 28, 0
33, 644173, Note_on_c, 15, 34, 0
33, 644658, Note_on_c, 15, 37, 79
33, 644659, Note_on_c, 15, 31, 84
33, 645138, Note_on_c, 15, 37, 0
33, 645139, Note_on_c, 15, 31, 0
33, 645609, Note_on_c, 15, 37, 75
33, 645617, Note_on_c, 15, 31, 73
33, 646089, Note_on_c, 15, 37, 0
33, 646097, Note_on_c, 15, 31, 0
33, 646574, Note_on_c, 15, 34, 75
33, 646579, Note_on_c, 15, 28, 75
33, 647054, Note_on_c, 15, 34, 0
33, 647059, Note_on_c, 15, 28, 0
33, 647526, Note_on_c, 15, 28, 65
33, 647535, Note_on_c, 15, 34, 84
33, 648006, Note_on_c, 15, 28, 0
33, 648015, Note_on_c, 15, 34, 0
33, 648487, Note_on_c, 15, 37, 68
33, 648493, Note_on_c, 15, 31, 67
33, 648967, Note_on_c, 15, 37, 0
33, 648973, Note_on_c, 15, 31, 0
33, 649440, Note_on_c, 15, 32, 82
33, 649462, Note_on_c, 15, 38, 77
33, 649920, Note_on_c, 15, 32, 0
33, 649942, Note_on_c, 15, 38, 0
33, 650401, Note_on_c, 15, 27, 71
33, 650406, Note_on_c, 15, 33, 73
33, 650881, Note_on_c, 15, 27, 0
33, 650886, Note_on_c, 15, 33, 0
33, 651373, Note_on_c, 15, 28, 81
33, 651379, Note_on_c, 15, 34, 76
33, 651853, Note_on_c, 15, 28, 0
33, 651859, Note_on_c, 15, 34, 0
33, 652333, Note_on_c, 15, 37, 82
33, 652338, Note_on_c, 15, 31, 70
33, 652813, Note_on_c, 15, 37, 0
33, 652818, Note_on_c, 15, 31, 0
33, 653292, Note_on_c, 15, 31, 70
33, 653295, Note_on_c, 15, 38, 68
33, 653772, Note_on_c, 15, 31, 0
33, 653775, Note_on_c, 15, 38, 0
33, 654241, Note_on_c, 15, 32, 102
33, 654481, Note_on_c, 15, 32, 0
33, 654725, Note_on_c, 15, 36, 105
33, 654965, Note_on_c, 15, 36, 0
33, 655204, Note_on_c, 15, 40, 108
33, 655444, Note_on_c, 15, 40, 0
33, 655686, Note_on_c, 15, 44, 110
33, 655926, Note_on_c, 15, 44, 0
33, 656173, Note_on_c, 15, 38, 107
33, 656413, Note_on_c, 15, 38, 0
33, 656651, Note_on_c, 15, 39, 103
33, 656891, Note_on_c, 15, 39, 0
33, 657134, Note_on_c, 15, 40, 94
33, 657374, Note_on_c, 15, 40, 0
33, 657622, Note_on_c, 15, 42, 110
33, 657862, Note_on_c, 15, 42, 0
33, 658089, Note_on_c, 15, 35, 94
33, 658329, Note_on_c, 15, 35, 0
33, 658563, Note_on_c, 15, 39, 100
33, 658803, Note_on_c, 15, 39, 0
33, 659050, Note_on_c, 15, 43, 95
33, 659290, Note_on_c, 15, 43, 0
33, 659539, Note_on_c, 15, 47, 100
33, 659779, Note_on_c, 15, 47, 0
33, 660022, Note_on_c, 15, 41, 92
33, 660262, Note_on_c, 15, 41, 0
33, 660502, Note_on_c, 15, 42, 94
33, 660742, Note_on_c, 15, 42, 0
33, 660967, Note_on_c, 15, 43, 108
33, 661207, Note_on_c, 15, 43, 0
33, 661451, Note_on_c, 15, 45, 100
33, 661691, Note_on_c, 15, 45, 0
33, 661939, Note_on_c, 15, 38, 98
33, 662179, Note_on_c, 15, 38, 0
33, 662405, Note_on_c, 15, 42, 110
33, 662645, Note_on_c, 15, 42, 0
33, 662905, Note_on_c, 15, 40, 102
33, 663145, Note_on_c, 15, 40, 0
33, 663378, Note_on_c, 15, 44, 95
33, 663618, Note_on_c, 15, 44, 0
33, 663861, Note_on_c, 15, 43, 98
33, 664101, Note_on_c, 15, 43, 0
33, 664345, Note_on_c, 15, 44, 103
33, 664585, Note_on_c, 15, 44, 0
33, 664823, Note_on_c, 15, 45, 108
33, 665063, Note_on_c, 15, 45, 0
33, 665304, Note_on_c, 15, 47, 98
33, 665544, Note_on_c, 15, 47, 0
33, 665767, Note_on_c, 15, 41, 99
33, 666007, Note_on_c, 15, 41, 0
33, 666243, Note_on_c, 15, 42, 108
33, 666483, Note_on_c, 15, 42, 0
33, 666735, Note_on_c, 15, 43, 111
33, 666975, Note_on_c, 15, 43, 0
33, 667213, Note_on_c, 15, 44, 96
33, 667453, Note_on_c, 15, 44, 0
33, 667688, Note_on_c, 15, 43, 100
33, 667928, Note_on_c, 15, 43, 0
33, 668162, Note_on_c, 15, 44, 93
33, 668402, Note_on_c, 15, 44, 0
33, 668647, Note_on_c, 15, 45, 99
33, 668887, Note_on_c, 15, 45, 0
33, 669137, Note_on_c, 15, 47, 111
33, 669377, Note_on_c, 15, 47, 0
33, 669606, Note_on_c, 15, 44, 92
33, 669846, Note_on_c, 15, 44, 0
33, 670101, Note_on_c, 15, 45, 101
33, 670341, Note_on_c, 15, 45, 0
33, 670581, Note_on_c, 15, 46, 108
33, 670821, Note_on_c, 15, 46, 0
33, 671048, Note_on_c, 15, 47, 97
33, 671288, Note_on_c, 15, 47, 0
33, 671534, Note_on_c, 15, 47, 110
33, 671774, Note_on_c, 15, 47, 0
33, 672009, Note_on_c, 15, 48, 108
33, 672249, Note_on_c, 15, 48, 0
33, 672480, Note_on_c, 15, 49, 100
33, 672720, Note_on_c, 15, 49, 0
33, 672970, Note_on_c, 15, 51, 100
33, 673210, Note_on_c, 15, 51, 0
33, 673450, Note_on_c, 15, 47, 98
33, 673690, Note_on_c, 15, 47, 0
33, 673943, Note_on_c, 15, 48, 92
33, 674183, Note_on_c, 15, 48, 0
33, 674421, Note_on_c, 15, 49, 109
33, 674661, Note_on_c, 15, 49, 0
33, 674891, Note_on_c, 15, 50, 94
33, 675131, Note_on_c, 15, 50, 0
33, 675383, Note_on_c, 15, 50, 91
33, 675623, Note_on_c, 15, 50, 0
33, 675859, Note_on_c, 15, 51, 97
33, 676099, Note_on_c, 15, 51, 0
33, 676323, Note_on_c, 15, 52, 92
33, 676563, Note_on_c, 15, 52, 0
33, 676811, Note_on_c, 15, 54, 109
33, 677051, Note_on_c, 15, 54, 0
33, 679200, Program_c, 15, 43
33, 679690, Note_on_c, 15, 53, 42
33, 679785, Note_on_c, 15, 53, 0
33, 679936, Note_on_c, 15, 53, 39
33, 680031, Note_on_c, 15, 53, 0
33, 680652, Note_on_c, 15, 53, 37
33, 680747, Note_on_c, 15, 53, 0
33, 680889, Note_on_c, 15, 53, 35
33, 680984, Note_on_c, 15, 53, 0
33, 681619, Note_on_c, 15, 53, 38
33, 681714, Note_on_c, 15, 53, 0
33, 681846, Note_on_c, 15, 53, 26
33, 681941, Note_on_c, 15, 53, 0
33, 683525, Note_on_c, 15, 53, 27
33, 683620, Note_on_c, 15, 53, 0
33, 683776, Note_on_c, 15, 53, 43
33, 683871, Note_on_c, 15, 53, 0
33, 684960, Control_c, 15, 11, 32
33, 684980, Control_c, 15, 11, 33
33, 685000, Control_c, 15, 11, 34
33, 685020, Control_c, 15, 11, 35
33, 685040, Control_c, 15, 11, 36
33, 685061, Control_c, 15, 11, 37
33, 685081, Control_c, 15, 11, 38
33, 685101, Control_c, 15, 11, 39
33, 685121, Control_c, 15, 11, 40
33, 685141, Control_c, 15, 11, 41
33, 685161, Control_c, 15, 11, 42
33, 685181, Control_c, 15, 11, 43
33, 685201, Control_c, 15, 11, 44
33, 685222, Control_c, 15, 11, 45
33, 685243, Control_c, 15, 11, 46
33, 685263, Control_c, 15, 11, 47
33, 685283, Control_c, 15, 11, 48
33, 685303, Control_c, 15, 11, 49
33, 685323, Control_c, 15, 11, 50
33, 685343, Control_c, 15, 11, 51
33, 685363, Control_c, 15, 11, 52
33, 685383, Control_c, 15, 11, 53
33, 685404, Control_c, 15, 11, 54
33, 685425, Control_c, 15, 11, 55
33, 685443, Note_on_c, 15, 36, 14
33, 685445, Control_c, 15, 11, 56
33, 685456, Note_on_c, 15, 43, 15
33, 685465, Control_c, 15, 11, 57
33, 685485, Control_c, 15, 11, 58
33, 685505, Control_c, 15, 11, 59
33, 685525, Control_c, 15, 11, 60
33, 685545, Control_c, 15, 11, 61
33, 685565, Control_c, 15, 11, 62
33, 685586, Control_c, 15, 11, 63
33, 685606, Control_c, 15, 11, 64
33, 685626, Control_c, 15, 11, 65
33, 685646, Control_c, 15, 11, 66
33, 685666, Control_c, 15, 11, 67
33, 685687, Control_c, 15, 11, 68
33, 685707, Control_c, 15, 11, 69
33, 685727, Control_c, 15, 11, 70
33, 685748, Control_c, 15, 11, 71
33, 685768, Control_c, 15, 11, 72
33, 685788, Control_c, 15, 11, 73
33, 685808, Control_c, 15, 11, 74
33, 685828, Control_c, 15, 11, 75
33, 685848, Control_c, 15, 11, 76
33, 685869, Control_c, 15, 11, 77
33, 685889, Control_c, 15, 11, 78
33, 685909, Control_c, 15, 11, 79
33, 685930, Control_c, 15, 11, 80
33, 685950, Control_c, 15, 11, 81
33, 685970, Control_c, 15, 11, 82
33, 685990, Control_c, 15, 11, 83
33, 686010, Control_c, 15, 11, 84
33, 686030, Control_c, 15, 11, 85
33, 686051, Control_c, 15, 11, 86
33, 686071, Control_c, 15, 11, 87
33, 686091, Control_c, 15, 11, 88
33, 686111, Control_c, 15, 11, 89
33, 686131, Control_c, 15, 11, 90
33, 686152, Control_c, 15, 11, 91
33, 686172, Control_c, 15, 11, 92
33, 686192, Control_c, 15, 11, 93
33, 686212, Control_c, 15, 11, 94
33, 686233, Control_c, 15, 11, 95
33, 686253, Control_c, 15, 11, 96
33, 686273, Control_c, 15, 11, 97
33, 686293, Control_c, 15, 11, 98
33, 686313, Control_c, 15, 11, 99
33, 686334, Control_c, 15, 11, 100
33, 686354, Control_c, 15, 11, 101
33, 686374, Control_c, 15, 11, 102
33, 686394, Control_c, 15, 11, 103
33, 686415, Control_c, 15, 11, 104
33, 686435, Control_c, 15, 11, 105
33, 686455, Control_c, 15, 11, 106
33, 686475, Control_c, 15, 11, 107
33, 686495, Control_c, 15, 11, 108
33, 686516, Control_c, 15, 11, 109
33, 686536, Control_c, 15, 11, 110
33, 686556, Control_c, 15, 11, 111
33, 686576, Control_c, 15, 11, 112
33, 686596, Control_c, 15, 11, 113
33, 686616, Control_c, 15, 11, 114
33, 686637, Control_c, 15, 11, 115
33, 686657, Control_c, 15, 11, 116
33, 686677, Control_c, 15, 11, 117
33, 686698, Control_c, 15, 11, 118
33, 686718, Control_c, 15, 11, 119
33, 686738, Control_c, 15, 11, 120
33, 686758, Control_c, 15, 11, 121
33, 686778, Control_c, 15, 11, 122
33, 686799, Control_c, 15, 11, 123
33, 686819, Control_c, 15, 11, 124
33, 686839, Control_c, 15, 11, 125
33, 686859, Control_c, 15, 11, 126
33, 686880, Program_c, 15, 48
33, 686883, Note_on_c, 15, 36, 0
33, 686896, Note_on_c, 15, 43, 0
33, 689760, Note_on_c, 15, 42, 88
33, 689820, Note_on_c, 15, 42, 0
33, 689880, Note_on_c, 15, 42, 85
33, 689940, Note_on_c, 15, 42, 0
33, 690000, Note_on_c, 15, 36, 86
33, 690060, Note_on_c, 15, 36, 0
33, 690120, Note_on_c, 15, 36, 93
33, 690180, Note_on_c, 15, 36, 0
33, 690240, Note_on_c, 15, 44, 86
33, 690300, Note_on_c, 15, 44, 0
33, 690360, Note_on_c, 15, 44, 85
33, 690420, Note_on_c, 15, 44, 0
33, 690480, Note_on_c, 15, 36, 87
33, 690540, Note_on_c, 15, 36, 0
33, 690600, Note_on_c, 15, 36, 86
33, 690660, Note_on_c, 15, 36, 0
33, 690720, Note_on_c, 15, 46, 81
33, 690780, Note_on_c, 15, 46, 0
33, 690840, Note_on_c, 15, 46, 98
33, 690900, Note_on_c, 15, 46, 0
33, 690960, Note_on_c, 15, 36, 95
33, 691020, Note_on_c, 15, 36, 0
33, 691080, Note_on_c, 15, 36, 87
33, 691140, Note_on_c, 15, 36, 0
33, 691200, Note_on_c, 15, 42, 96
33, 691260, Note_on_c, 15, 42, 0
33, 691320, Note_on_c, 15, 42, 80
33, 691380, Note_on_c, 15, 42, 0
33, 691440, Note_on_c, 15, 36, 91
33, 691500, Note_on_c, 15, 36, 0
33, 691560, Note_on_c, 15, 36, 79
33, 691620, Note_on_c, 15, 36, 0
33, 691680, Note_on_c, 15, 44, 94
33, 691740, Note_on_c, 15, 44, 0
33, 691800, Note_on_c, 15, 44, 97
33, 691860, Note_on_c, 15, 44, 0
33, 691920, Note_on_c, 15, 36, 90
33, 691980, Note_on_c, 15, 36, 0
33, 692040, Note_on_c, 15, 36, 95
33, 692100, Note_on_c, 15, 36, 0
33, 692160, Note_on_c, 15, 46, 82
33, 692220, Note_on_c, 15, 46, 0
33, 692280, Note_on_c, 15, 46, 96
33, 692340, Note_on_c, 15, 46, 0
33, 692400, Note_on_c, 15, 36, 84
33, 692460, Note_on_c, 15, 36, 0
33, 692520, Note_on_c, 15, 36, 78
33, 692580, Note_on_c, 15, 36, 0
33, 692640, Note_on_c, 15, 42, 90
33, 692700, Note_on_c, 15, 42, 0
33, 692760, Note_on_c, 15, 42, 87
33, 692820, Note_on_c, 15, 42, 0
33, 692880, Note_on_c, 15, 36, 83
33, 692940, Note_on_c, 15, 36, 0
33, 693000, Note_on_c, 15, 36, 81
33, 693060, Note_on_c, 15, 36, 0
33, 693120, Note_on_c, 15, 44, 93
33, 693180, Note_on_c, 15, 44, 0
33, 693240, Note_on_c, 15, 44, 90
33, 693300, Note_on_c, 15, 44, 0
33, 693360, Note_on_c, 15, 36, 95
33, 693420, Note_on_c, 15, 36, 0
33, 693480, Note_on_c, 15, 36, 88
33, 693540, Note_on_c, 15, 36, 0
33, 693600, Note_on_c, 15, 46, 81
33, 693660, Note_on_c, 15, 46, 0
33, 693720, Note_on_c, 15, 46, 82
33, 693780, Note_on_c, 15, 46, 0
33, 693840, Note_on_c, 15, 36, 84
33, 693900, Note_on_c, 15, 36, 0
33, 693960, Note_on_c, 15, 36, 88
33, 694020, Note_on_c, 15, 36, 0
33, 694080, Note_on_c, 15, 42, 91
33, 694140, Note_on_c, 15, 42, 0
33, 694200, Note_on_c, 15, 42, 97
33, 694260, Note_on_c, 15, 42, 0
33, 694320, Note_on_c, 15, 36, 79
33, 694380, Note_on_c, 15, 36, 0
33, 694440, Note_on_c, 15, 36, 85
33, 694500, Note_on_c, 15, 36, 0
33, 694560, Note_on_c, 15, 44, 91
33, 694620, Note_on_c, 15, 44, 0
33, 694680, Note_on_c, 15, 44, 96
33, 694740, Note_on_c, 15, 44, 0
33, 694800, Note_on_c, 15, 36, 94
33, 694860, Note_on_c, 15, 36, 0
33, 694920, Note_on_c, 15, 36, 88
33, 694980, Note_on_c, 15, 36, 0
33, 695040, Note_on_c, 15, 46, 82
33, 695100, Note_on_c, 15, 46, 0
33, 695160, Note_on_c, 15, 46, 89
33, 695220, Note_on_c, 15, 46, 0
33, 695280, Note_on_c, 15, 36, 78
33, 695340, Note_on_c, 15, 36, 0
33, 695400, Note_on_c, 15, 36, 79
33, 695460, Note_on_c, 15, 36, 0
33, 695520, Note_on_c, 15, 42, 81
33, 695580, Note_on_c, 15, 42, 0
33, 695640, Note_on_c, 15, 42, 79
33, 695700, Note_on_c, 15, 42, 0
33, 695760, Note_on_c, 15, 36, 78
33, 695820, Note_on_c, 15, 36, 0
33, 695880, Note_on_c, 15, 36, 94
33, 695940, Note_on_c, 15, 36, 0
33, 696000, Note_on_c, 15, 44, 80
33, 696060, Note_on_c, 15, 44, 0
33, 696120, Note_on_c, 15, 44, 86
33, 696180, Note_on_c, 15, 44, 0
33, 696240, Note_on_c, 15, 36, 97
33, 696300, Note_on_c, 15, 36, 0
33, 696360, Note_on_c, 15, 36, 88
33, 696420, Note_on_c, 15, 36, 0
33, 696480, Note_on_c, 15, 46, 96
33, 696540, Note_on_c, 15, 46, 0
33, 696600, Note_on_c, 15, 46, 97
33, 696660, Note_on_c, 15, 46, 0
33, 696720, Note_on_c, 15, 36, 83
33, 696780, Note_on_c, 15, 36, 0
33, 696840, Note_on_c, 15, 36, 91
33, 696900, Note_on_c, 15, 36, 0
33, 696960, Note_on_c, 15, 42, 98
33, 697020, Note_on_c, 15, 42, 0
33, 697080, Note_on_c, 15, 42, 83
33, 697140, Note_on_c, 15, 42, 0
33, 697200, Note_on_c, 15, 36, 98
33, 697260, Note_on_c, 15, 36, 0
33, 697320, Note_on_c, 15, 36, 89
33, 697380, Note_on_c, 15, 36, 0
33, 697440, Note_on_c, 15, 44, 78
33, 697500, Note_on_c, 15, 44, 0
33, 697560, Note_on_c, 15, 44, 82
33, 697620, Note_on_c, 15, 44, 0
33, 697680, Note_on_c, 15, 36, 82
33, 697740, Note_on_c, 15, 36, 0
33, 697800, Note_on_c, 15, 36, 90
33, 697860, Note_on_c, 15, 36, 0
33, 697920, Note_on_c, 15, 46, 84
33, 697980, Note_on_c, 15, 46, 0
33, 698040, Note_on_c, 15, 46, 91
33, 698100, Note_on_c, 15, 46, 0
33, 698160, Note_on_c, 15, 36, 92
33, 698220, Note_on_c, 15, 36, 0
33, 698280, Note_on_c, 15, 36, 97
33, 698340, Note_on_c, 15, 36, 0
33, 698400, Note_on_c, 15, 42, 95
33, 698460, Note_on_c, 15, 42, 0
33, 698520, Note_on_c, 15, 42, 79
33, 698580, Note_on_c, 15, 42, 0
33, 698640, Note_on_c, 15, 36, 79
33, 698700, Note_on_c, 15, 36, 0
33, 698760, Note_on_c, 15, 36, 97
33, 698820, Note_on_c, 15, 36, 0
33, 698880, Note_on_c, 15, 44, 90
33, 698940, Note_on_c, 15, 44, 0
33, 699000, Note_on_c, 15, 44, 91
33, 699060, Note_on_c, 15, 44, 0
33, 699120, Note_on_c, 15, 36, 92
33, 699180, Note_on_c, 15, 36, 0
33, 699240, Note_on_c, 15, 36, 93
33, 699300, Note_on_c, 15, 36, 0
33, 699360, Note_on_c, 15, 46, 94
33, 699420, Note_on_c, 15, 46, 0
33, 699480, Note_on_c, 15, 46, 96
33, 699540, Note_on_c, 15, 46, 0
33, 699600, Note_on_c, 15, 36, 94
33, 699660, Note_on_c, 15, 36, 0
33, 699720, Note_on_c, 15, 36, 92
33, 699780, Note_on_c, 15, 36, 0
33, 699840, Note_on_c, 15, 42, 82
33, 699900, Note_on_c, 15, 42, 0
33, 699960, Note_on_c, 15, 42, 96
33, 700020, Note_on_c, 15, 42, 0
33, 700080, Note_on_c, 15, 36, 79
33, 700140, Note_on_c, 15, 36, 0
33, 700200, Note_on_c, 15, 36, 96
33, 700260, Note_on_c, 15, 36, 0
33, 700320, Note_on_c, 15, 44, 82
33, 700380, Note_on_c, 15, 44, 0
33, 700440, Note_on_c, 15, 44, 89
33, 700500, Note_on_c, 15, 44, 0
33, 700560, Note_on_c, 15, 36, 86
33, 700620, Note_on_c, 15, 36, 0
33, 700680, Note_on_c, 15, 36, 93
33, 700740, Note_on_c, 15, 36, 0
33, 700800, Note_on_c, 15, 46, 96
33, 700860, Note_on_c, 15, 46, 0
33, 700920, Note_on_c, 15, 46, 88
33, 700980, Note_on_c, 15, 46, 0
33, 701040, Note_on_c, 15, 36, 80
33, 701100, Note_on_c, 15, 36, 0
33, 701160, Note_on_c, 15, 36, 92
33, 701220, Note_on_c, 15, 36, 0
33, 701280, Note_on_c, 15, 42, 86
33, 701340, Note_on_c, 15, 42, 0
33, 701400, Note_on_c, 15, 42, 95
33, 701460, Note_on_c, 15, 42, 0
33, 701520, Note_on_c, 15, 36, 94
33, 701580, Note_on_c, 15, 36, 0
33, 701640, Note_on_c, 15, 36, 84
33, 701700, Note_on_c, 15, 36, 0
33, 701760, Note_on_c, 15, 44, 79
33, 701820, Note_on_c, 15, 44, 0
33, 701880, Note_on_c, 15, 44, 85
33, 701940, Note_on_c, 15, 44, 0
33, 702000, Note_on_c, 15, 36, 83
33, 702060, Note_on_c, 15, 36, 0
33, 702120, Note_on_c, 15, 36, 90
33, 702180, Note_on_c, 15, 36, 0
33, 702240, Note_on_c, 15, 46, 97
33, 702300, Note_on_c, 15, 46, 0
33, 702360, Note_on_c, 15, 46, 83
33, 702420, Note_on_c, 15, 46, 0
33, 702480, Note_on_c, 15, 36, 97
33, 702540, Note_on_c, 15, 36, 0
33, 702600, Note_on_c, 15, 36, 82
33, 702660, Note_on_c, 15, 36, 0
33, 702720, Note_on_c, 15, 42, 78
33, 702780, Note_on_c, 15, 42, 0
33, 702840, Note_on_c, 15, 42, 85
33, 702900, Note_on_c, 15, 42, 0
33, 702960, Note_on_c, 15, 36, 82
33, 703020, Note_on_c, 15, 36, 0
33, 703080, Note_on_c, 15, 36, 81
33, 703140, Note_on_c, 15, 36, 0
33, 703200, Note_on_c, 15, 44, 91
33, 703260, Note_on_c, 15, 44, 0
33, 703320, Note_on_c, 15, 44, 84
33, 703380, Note_on_c, 15, 44, 0
33, 703440, Note_on_c, 15, 36, 79
33, 703500, Note_on_c, 15, 36, 0
33, 703560, Note_on_c, 15, 36, 93
33, 703620, Note_on_c, 15, 36, 0
33, 703680, Note_on_c, 15, 46, 96
33, 703740, Note_on_c, 15, 46, 0
33, 703800, Note_on_c, 15, 46, 86
33, 703860, Note_on_c, 15, 46, 0
33, 703920, Note_on_c, 15, 36, 84
33, 703980, Note_on_c, 15, 36, 0
33, 704040, Note_on_c, 15, 36, 94
33, 704100, Note_on_c, 15, 36, 0
33, 704160, Note_on_c, 15, 42, 92
33, 704220, Note_on_c, 15, 42, 0
33, 704280, Note_on_c, 15, 42, 88
33, 704340, Note_on_c, 15, 42, 0
33, 704400, Note_on_c, 15, 36, 82
33, 704460, Note_on_c, 15, 36, 0
33, 704520, Note_on_c, 15, 36, 83
33, 704580, Note_on_c, 15, 36, 0
33, 704640, Note_on_c, 15, 44, 92
33, 704700, Note_on_c, 15, 44, 0
33, 704760, Note_on_c, 15, 44, 97
33, 704820, Note_on_c, 15, 44, 0
33, 704880, Note_on_c, 15, 36, 93
33, 704940, Note_on_c, 15, 36, 0
33, 705000, Note_on_c, 15, 36, 86
33, 705060, Note_on_c, 15, 36, 0
33, 705120, Note_on_c, 15, 46, 87
33, 705180, Note_on_c, 15, 46, 0
33, 705240, Note_on_c, 15, 46, 84
33, 705300, Note_on_c, 15, 46, 0
33, 705360, Note_on_c, 15, 36, 88
33, 705420, Note_on_c, 15, 36, 0
33, 705480, Note_on_c, 15, 36, 90
33, 705540, Note_on_c, 15, 36, 0
33, 705600, Note_on_c, 15, 42, 81
33, 705660, Note_on_c, 15, 42, 0
33, 705720, Note_on_c, 15, 42, 90
33, 705780, Note_on_c, 15, 42, 0
33, 705840, Note_on_c, 15, 36, 87
33, 705900, Note_on_c, 15, 36, 0
33, 705960, Note_on_c, 15, 36, 93
33, 706020, Note_on_c, 15, 36, 0
33, 706080, Note_on_c, 15, 44, 78
33, 706140, Note_on_c, 15, 44, 0
33, 706200, Note_on_c, 15, 44, 82
33, 706260, Note_on_c, 15, 44, 0
33, 706320, Note_on_c, 15, 36, 78
33, 706380, Note_on_c, 15, 36, 0
33, 706440, Note_on_c, 15, 36, 88
33, 706500, Note_on_c, 15, 36, 0
33, 706560, Note_on_c, 15, 46, 94
33, 706620, Note_on_c, 15, 46, 0
33, 706680, Note_on_c, 15, 46, 79
33, 706740, Note_on_c, 15, 46, 0
33, 706800, Note_on_c, 15, 36, 93
33, 706860, Note_on_c, 15, 36, 0
33, 706920, Note_on_c, 15, 36, 93
33, 706980, Note_on_c, 15, 36, 0
33, 707040, Note_on_c, 15, 42, 88
33, 707100, Note_on_c, 15, 42, 0
33, 707160, Note_on_c, 15, 42, 98
33, 707220, Note_on_c, 15, 42, 0
33, 707280, Note_on_c, 15, 36, 78
33, 707340, Note_on_c, 15, 36, 0
33, 707400, Note_on_c, 15, 36, 91
33, 707460, Note_on_c, 15, 36, 0
33, 707520, Note_on_c, 15, 44, 91
33, 707580, Note_on_c, 15, 44, 0
33, 707640, Note_on_c, 15, 44, 80
33, 707700, Note_on_c, 15, 44, 0
33, 707760, Note_on_c, 15, 36, 78
33, 707820, Note_on_c, 15, 36, 0
33, 707880, Note_on_c, 15, 36, 89
33, 707940, Note_on_c, 15, 36, 0
33, 708000, Note_on_c, 15, 46, 96
33, 708060, Note_on_c, 15, 46, 0
33, 708120, Note_on_c, 15, 46, 95
33, 708180, Note_on_c, 15, 46, 0
33, 708240, Note_on_c, 15, 36, 96
33, 708300, Note_on_c, 15, 36, 0
33, 708360, Note_on_c, 15, 36, 97
33, 708420, Note_on_c, 15, 36, 0
33, 708480, Note_on_c, 15, 42, 96
33, 708540, Note_on_c, 15, 42, 0
33, 708600, Note_on_c, 15, 42, 87
33, 708660, Note_on_c, 15, 42, 0
33, 708720, Note_on_c, 15, 36, 84
33, 708780, Note_on_c, 15, 36, 0
33, 708840, Note_on_c, 15, 36, 78
33, 708900, Note_on_c, 15, 36, 0
33, 708960, Note_on_c, 15, 44, 90
33, 709020, Note_on_c, 15, 44, 0
33, 709080, Note_on_c, 15, 44, 80
33, 709140, Note_on_c, 15, 44, 0
33, 709200, Note_on_c, 15, 36, 91
33, 709260, Note_on_c, 15, 36, 0
33, 709320, Note_on_c, 15, 36, 83
33, 709380, Note_on_c, 15, 36, 0
33, 709440, Note_on_c, 15, 46, 88
33, 709500, Note_on_c, 15, 46, 0
33, 709560, Note_on_c, 15, 46, 87
33, 709620, Note_on_c, 15, 46, 0
33, 709680, Note_on_c, 15, 36, 83
33, 709740, Note_on_c, 15, 36, 0
33, 709800, Note_on_c, 15, 36, 90
33, 709860, Note_on_c, 15, 36, 0
33, 709920, Note_on_c, 15, 42, 79
33, 709980, Note_on_c, 15, 42, 0
33, 710040, Note_on_c, 15, 42, 98
33, 710100, Note_on_c, 15, 42, 0
33, 710160, Note_on_c, 15, 36, 94
33, 710220, Note_on_c, 15, 36, 0
33, 710280, Note_on_c, 15, 36, 81
33, 710340, Note_on_c, 15, 36, 0
33, 710400, Note_on_c, 15, 44, 93
33, 710460, Note_on_c, 15, 44, 0
33, 710520, Note_on_c, 15, 44, 92
33, 710580, Note_on_c, 15, 44, 0
33, 710640, Note_on_c, 15, 36, 94
33, 710700, Note_on_c, 15, 36, 0
33, 710760, Note_on_c, 15, 36, 95
33, 710820, Note_on_c, 15, 36, 0
33, 710880, Note_on_c, 15, 46, 90
33, 710940, Note_on_c, 15, 46, 0
33, 711000, Note_on_c, 15, 46, 96
33, 711060, Note_on_c, 15, 46, 0
33, 711120, Note_on_c, 15, 36, 80
33, 711180, Note_on_c, 15, 36, 0
33, 711240, Note_on_c, 15, 36, 98
33, 711300, Note_on_c, 15, 36, 0
33, 711360, Note_on_c, 15, 42, 91
33, 711420, Note_on_c, 15, 42, 0
33, 711480, Note_on_c, 15, 42, 92
33, 711540, Note_on_c, 15, 42, 0
33, 711600, Note_on_c, 15, 36, 80
33, 711660, Note_on_c, 15, 36, 0
33, 711720, Note_on_c, 15, 36, 97
33, 711780, Note_on_c, 15, 36, 0
33, 711840, Note_on_c, 15, 44, 88
33, 711900, Note_on_c, 15, 44, 0
33, 711960, Note_on_c, 15, 44, 82
33, 712020, Note_on_c, 15, 44, 0
33, 712080, Note_on_c, 15, 36, 85
33, 712140, Note_on_c, 15, 36, 0
33, 712200, Note_on_c, 15, 36, 79
33, 712260, Note_on_c, 15, 36, 0
33, 712320, Note_on_c, 15, 46, 96
33, 712380, Note_on_c, 15, 46, 0
33, 712440, Note_on_c, 15, 46, 94
33, 712500, Note_on_c, 15, 46, 0
33, 712560, Note_on_c, 15, 36, 91
33, 712620, Note_on_c, 15, 36, 0
33, 712680, Note_on_c, 15, 36, 82
33, 712740, Note_on_c, 15, 36, 0
33, 712800, Note_on_c, 15, 42, 80
33, 712860, Note_on_c, 15, 42, 0
33, 712920, Note_on_c, 15, 42, 98
33, 712980, Note_on_c, 15, 42, 0
33, 713040, Note_on_c, 15, 36, 84
33, 713100, Note_on_c, 15, 36, 0
33, 713160, Note_on_c, 15, 36, 89
33, 713220, Note_on_c, 15, 36, 0
33, 713280, Note_on_c, 15, 44, 94
33, 713340, Note_on_c, 15, 44, 0
33, 713400, Note_on_c, 15, 44, 86
33, 713460, Note_on_c, 15, 44, 0
33, 713520, Note_on_c, 15, 36, 89
33, 713580, Note_on_c, 15, 36, 0
33, 713640, Note_on_c, 15, 36, 82
33, 713700, Note_on_c, 15, 36, 0
33, 713760, Note_on_c, 15, 46, 81
33, 713820, Note_on_c, 15, 46, 0
33, 713880, Note_on_c, 15, 46, 84
33, 713940, Note_on_c, 15, 46, 0
33, 714000, Note_on_c, 15, 36, 94
33, 714060, Note_on_c, 15, 36, 0
33, 714120, Note_on_c, 15, 36, 83
33, 714180, Note_on_c, 15, 36, 0
33, 714240, Note_on_c, 15, 42, 87
33, 714300, Note_on_c, 15, 42, 0
33, 714360, Note_on_c, 15, 42, 82
33, 714420, Note_on_c, 15, 42, 0
33, 714480, Note_on_c, 15, 36, 94
33, 714540, Note_on_c, 15, 36, 0
33, 714600, Note_on_c, 15, 36, 98
33, 714660, Note_on_c, 15, 36, 0
33, 714720, Note_on_c, 15, 44, 81
33, 714780, Note_on_c, 15, 44, 0
33, 714840, Note_on_c, 15, 44, 80
33, 714900, Note_on_c, 15, 44, 0
33, 714960, Note_on_c, 15, 36, 88
33, 715020, Note_on_c, 15, 36, 0
33, 715080, Note_on_c, 15, 36, 88
33, 715140, Note_on_c, 15, 36, 0
33, 715200, Note_on_c, 15, 46, 94
33, 715260, Note_on_c, 15, 46, 0
33, 715320, Note_on_c, 15, 46, 85
33, 715380, Note_on_c, 15, 46, 0
33, 715440, Note_on_c, 15, 36, 81
33, 715500, Note_on_c, 15, 36, 0
33, 715560, Note_on_c, 15, 36, 89
33, 715620, Note_on_c, 15, 36, 0
33, 715680, Note_on_c, 15, 42, 86
33, 715740, Note_on_c, 15, 42, 0
33, 715800, Note_on_c, 15, 42, 78
33, 715860, Note_on_c, 15, 42, 0
33, 715920, Note_on_c, 15, 36, 96
33, 715980, Note_on_c, 15, 36, 0
33, 716040, Note_on_c, 15, 36, 86
33, 716100, Note_on_c, 15, 36, 0
33, 716160, Note_on_c, 15, 44, 81
33, 716220, Note_on_c, 15, 44, 0
33, 716280, Note_on_c, 15, 44, 89
33, 716340, Note_on_c, 15, 44, 0
33, 716400, Note_on_c, 15, 36, 96
33, 716460, Note_on_c, 15, 36, 0
33, 716520, Note_on_c, 15, 36, 85
33, 716580, Note_on_c, 15, 36, 0
33, 716640, Note_on_c, 15, 46, 88
33, 716700, Note_on_c, 15, 46, 0
33, 716760, Note_on_c, 15, 46, 79
33, 716820, Note_on_c, 15, 46, 0
33, 716880, Note_on_c, 15, 36, 85
33, 716940, Note_on_c, 15, 36, 0
33, 717000, Note_on_c, 15, 36, 79
33, 717060, Note_on_c, 15, 36, 0
33, 717120, Note_on_c, 15, 42, 88
33, 717180, Note_on_c, 15, 42, 0
33, 717240, Note_on_c, 15, 42, 81
33, 717300, Note_on_c, 15, 42, 0
33, 717360, Note_on_c, 15, 36, 89
33, 717420, Note_on_c, 15, 36, 0
33, 717480, Note_on_c, 15, 36, 85
33, 717540, Note_on_c, 15, 36, 0
33, 717600, Note_on_c, 15, 44, 94
33, 717660, Note_on_c, 15, 44, 0
33, 717720, Note_on_c, 15, 44, 83
33, 717780, Note_on_c, 15, 44, 0
33, 717840, Note_on_c, 15, 36, 80
33, 717900, Note_on_c, 15, 36, 0
33, 717960, Note_on_c, 15, 36, 89
33, 718020, Note_on_c, 15, 36, 0
33, 718080, Note_on_c, 15, 46, 84
33, 718140, Note_on_c, 15, 46, 0
33, 718200, Note_on_c, 15, 46, 91
33, 718260, Note_on_c, 15, 46, 0
33, 718320, Note_on_c, 15, 36, 81
33, 718380, Note_on_c, 15, 36, 0
33, 718440, Note_on_c, 15, 36, 85
33, 718500, Note_on_c, 15, 36, 0
33, 718560, Note_on_c, 15, 42, 79
33, 718620, Note_on_c, 15, 42, 0
33, 718680, Note_on_c, 15, 42, 97
33, 718740, Note_on_c, 15, 42, 0
33, 718800, Note_on_c, 15, 36, 93
33, 718860, Note_on_c, 15, 36, 0
33, 718920, Note_on_c, 15, 36, 81
33, 718980, Note_on_c, 15, 36, 0
33, 719040, Note_on_c, 15, 44, 93
33, 719100, Note_on_c, 15, 44, 0
33, 719160, Note_on_c, 15, 44, 80
33, 719220, Note_on_c, 15, 44, 0
33, 719280, Note_on_c, 15, 36, 91
33, 719340, Note_on_c, 15, 36, 0
33, 719400, Note_on_c, 15, 36, 92
33, 719460, Note_on_c, 15, 36, 0
33, 719520, Note_on_c, 15, 46, 78
33, 719580, Note_on_c, 15, 46, 0
33, 719640, Note_on_c, 15, 46, 81
33, 719700, Note_on_c, 15, 46, 0
33, 719760, Note_on_c, 15, 36, 79
33, 719820, Note_on_c, 15, 36, 0
33, 719880, Note_on_c, 15, 36, 86
33, 719940, Note_on_c, 15, 36, 0
33, 720000, Note_on_c, 15, 42, 83
33, 720060, Note_on_c, 15, 42, 0
33, 720120, Note_on_c, 15, 42, 94
33, 720180, Note_on_c, 15, 42, 0
33, 720240, Note_on_c, 15, 36, 93
33, 720300, Note_on_c, 15, 36, 0
33, 720360, Note_on_c, 15, 36, 91
33, 720420, Note_on_c, 15, 36, 0
33, 720480, Note_on_c, 15, 44, 95
33, 720540, Note_on_c, 15, 44, 0
33, 720600, Note_on_c, 15, 44, 92
33, 720660, Note_on_c, 15, 44, 0
33, 720720, Note_on_c, 15, 36, 97
33, 720780, Note_on_c, 15, 36, 0
33, 720840, Note_on_c, 15, 36, 96
33, 720900, Note_on_c, 15, 36, 0
33, 720960, Note_on_c, 15, 46, 91
33, 721020, Note_on_c, 15, 46, 0
33, 721080, Note_on_c, 15, 46, 98
33, 721140, Note_on_c, 15, 46, 0
33, 721200, Note_on_c, 15, 36, 87
33, 721260, Note_on_c, 15, 36, 0
33, 721320, Note_on_c, 15, 36, 96
33, 721380, Note_on_c, 15, 36, 0
33, 737280, Note_on_c, 15, 42, 54
33, 737340, Note_on_c, 15, 42, 0
33, 737400, Note_on_c, 15, 42, 59
33, 737460, Note_on_c, 15, 42, 0
33, 737520, Note_on_c, 15, 36, 45
33, 737580, Note_on_c, 15, 36, 0
33, 737640, Note_on_c, 15, 36, 46
33, 737700, Note_on_c, 15, 36, 0
33, 737760, Note_on_c, 15, 44, 54
33, 737820, Note_on_c, 15, 44, 0
33, 737880, Note_on_c, 15, 44, 45
33, 737940, Note_on_c, 15, 44, 0
33, 738000, Note_on_c, 15, 36, 45
33, 738060, Note_on_c, 15, 36, 0
33, 738120, Note_on_c, 15, 36, 58
33, 738180, Note_on_c, 15, 36, 0
33, 738240, Note_on_c, 15, 46, 46
33, 738300, Note_on_c, 15, 46, 0
33, 738360, Note_on_c, 15, 46, 48
33, 738420, Note_on_c, 15, 46, 0
33, 738480, Note_on_c, 15, 36, 58
33, 738540, Note_on_c, 15, 36, 0
33, 738600, Note_on_c, 15, 36, 45
33, 738660, Note_on_c, 15, 36, 0
33, 738720, Note_on_c, 15, 42, 55
33, 738780, Note_on_c, 15, 42, 0
33, 738840, Note_on_c, 15, 42, 50
33, 738900, Note_on_c, 15, 42, 0
33, 738960, Note_on_c, 15, 36, 56
33, 739020, Note_on_c, 15, 36, 0
33, 739080, Note_on_c, 15, 36, 46
33, 739140, Note_on_c, 15, 36, 0
33, 739200, Note_on_c, 15, 44, 51
33, 739260, Note_on_c, 15, 44, 0
33, 739320, Note_on_c, 15, 44, 47
33, 739380, Note_on_c, 15, 44, 0
33, 739440, Note_on_c, 15, 36, 59
33, 739500, Note_on_c, 15, 36, 0
33, 739560, Note_on_c, 15, 36, 56
33, 739620, Note_on_c, 15, 36, 0
33, 739680, Note_on_c, 15, 46, 57
33, 739740, Note_on_c, 15, 46, 0
33, 739800, Note_on_c, 15, 46, 56
33, 739860, Note_on_c, 15, 46, 0
33, 739920, Note_on_c, 15, 36, 58
33, 739980, Note_on_c, 15, 36, 0
33, 740040, Note_on_c, 15, 36, 56
33, 740100, Note_on_c, 15, 36, 0
33, 740160, Note_on_c, 15, 42, 51
33, 740220, Note_on_c, 15, 42, 0
33, 740280, Note_on_c, 15, 42, 46
33, 740340, Note_on_c, 15, 42, 0
33, 740400, Note_on_c, 15, 36, 55
33, 740460, Note_on_c, 15, 36, 0
33, 740520, Note_on_c, 15, 36, 54
33, 740580, Note_on_c, 15, 36, 0
33, 740640, Note_on_c, 15, 44, 48
33, 740700, Note_on_c, 15, 44, 0
33, 740760, Note_on_c, 15, 44, 41
33, 740820, Note_on_c, 15, 44, 0
33, 740880, Note_on_c, 15, 36, 39
33, 740940, Note_on_c, 15, 36, 0
33, 741000, Note_on_c, 15, 36, 46
33, 741060, Note_on_c, 15, 36, 0
33, 741120, Note_on_c, 15, 46, 39
33, 741180, Note_on_c, 15, 46, 0
33, 741240, Note_on_c, 15, 46, 43
33, 741300, Note_on_c, 15, 46, 0
33, 741360, Note_on_c, 15, 36, 53
33, 741420, Note_on_c, 15, 36, 0
33, 741480, Note_on_c, 15, 36, 47
33, 741540, Note_on_c, 15, 36, 0
33, 741611, Note_on_c, 15, 48, 39
33, 741731, Note_on_c, 15, 48, 0
33, 741733, Note_on_c, 15, 48, 59
33, 741849, Note_on_c, 15, 48, 0
33, 741864, Note_on_c, 15, 36, 43
33, 741975, Note_on_c, 15, 36, 43
33, 741984, Note_on_c, 15, 36, 0
33, 742080, Note_on_c, 15, 50, 48
33, 742091, Note_on_c, 15, 36, 0
33, 742200, Note_on_c, 15, 50, 0
33, 742207, Note_on_c, 15, 50, 42
33, 742323, Note_on_c, 15, 50, 0
33, 742345, Note_on_c, 15, 36, 40
33, 742440, Note_on_c, 15, 36, 56
33, 742465, Note_on_c, 15, 36, 0
33, 742556, Note_on_c, 15, 36, 0
33, 742570, Note_on_c, 15, 52, 59
33, 742686, Note_on_c, 15, 52, 55
33, 742690, Note_on_c, 15, 52, 0
33, 742802, Note_on_c, 15, 52, 0
33, 742812, Note_on_c, 15, 36, 46
33, 742923, Note_on_c, 15, 36, 42
33, 742932, Note_on_c, 15, 36, 0
33, 743039, Note_on_c, 15, 36, 0
33, 743040, Note_on_c, 15, 42, 54
33, 743100, Note_on_c, 15, 42, 0
33, 743160, Note_on_c, 15, 42, 46
33, 743220, Note_on_c, 15, 42, 0
33, 743280, Note_on_c, 15, 36, 50
33, 743340, Note_on_c, 15, 36, 0
33, 743400, Note_on_c, 15, 36, 41
33, 743460, Note_on_c, 15, 36, 0
33, 743520, Note_on_c, 15, 44, 50
33, 743580, Note_on_c, 15, 44, 0
33, 743640, Note_on_c, 15, 44, 54
33, 743700, Note_on_c, 15, 44, 0
33, 743760, Note_on_c, 15, 36, 54
33, 743820, Note_on_c, 15, 36, 0
33, 743880, Note_on_c, 15, 36, 57
33, 743940, Note_on_c, 15, 36, 0
33, 744000, Note_on_c, 15, 46, 54
33, 744060, Note_on_c, 15, 46, 0
33, 744120, Note_on_c, 15, 46, 56
33, 744180, Note_on_c, 15, 46, 0
33, 744240, Note_on_c, 15, 36, 57
33, 744300, Note_on_c, 15, 36, 0
33, 744360, Note_on_c, 15, 36, 46
33, 744420, Note_on_c, 15, 36, 0
33, 744480, Note_on_c, 15, 42, 58
33, 744540, Note_on_c, 15, 42, 0
33, 744600, Note_on_c, 15, 42, 45
33, 744660, Note_on_c, 15, 42, 0
33, 744720, Note_on_c, 15, 36, 49
33, 744780, Note_on_c, 15, 36, 0
33, 744840, Note_on_c, 15, 36, 50
33, 744900, Note_on_c, 15, 36, 0
33, 744960, Note_on_c, 15, 44, 43
33, 745020, Note_on_c, 15, 44, 0
33, 745080, Note_on_c, 15, 44, 48
33, 745140, Note_on_c, 15, 44, 0
33, 745200, Note_on_c, 15, 36, 46
33, 745260, Note_on_c, 15, 36, 0
33, 745320, Note_on_c, 15, 36, 45
33, 745380, Note_on_c, 15, 36, 0
33, 745440, Note_on_c, 15, 46, 48
33, 745500, Note_on_c, 15, 46, 0
33, 745560, Note_on_c, 15, 46, 43
33, 745620, Note_on_c, 15, 46, 0
33, 745680, Note_on_c, 15, 36, 52
33, 745740, Note_on_c, 15, 36, 0
33, 745800, Note_on_c, 15, 36, 40
33, 745860, Note_on_c, 15, 36, 0
33, 745928, Note_on_c, 15, 48, 52
33, 746048, Note_on_c, 15, 48, 0
33, 746053, Note_on_c, 15, 48, 45
33, 746169, Note_on_c, 15, 48, 0
33, 746176, Note_on_c, 15, 36, 47
33, 746284, Note_on_c, 15, 36, 40
33, 746296, Note_on_c, 15, 36, 0
33, 746400, Note_on_c, 15, 36, 0
33, 746412, Note_on_c, 15, 50, 57
33, 746532, Note_on_c, 15, 50, 0
33, 746537, Note_on_c, 15, 50, 44
33, 746645, Note_on_c, 15, 36, 51
33, 746653, Note_on_c, 15, 50, 0
33, 746760, Note_on_c, 15, 36, 58
33, 746765, Note_on_c, 15, 36, 0
33, 746876, Note_on_c, 15, 36, 0
33, 746883, Note_on_c, 15, 52, 53
33, 747001, Note_on_c, 15, 52, 57
33, 747003, Note_on_c, 15, 52, 0
33, 747117, Note_on_c, 15, 52, 0
33, 747145, Note_on_c, 15, 36, 55
33, 747263, Note_on_c, 15, 36, 58
33, 747265, Note_on_c, 15, 36, 0
33, 747360, Note_on_c, 15, 42, 54
33, 747379, Note_on_c, 15, 36, 0
33, 747420, Note_on_c, 15, 42, 0
33, 747480, Note_on_c, 15, 42, 48
33, 747540, Note_on_c, 15, 42, 0
33, 747600, Note_on_c, 15, 36, 43
33, 747660, Note_on_c, 15, 36, 0
33, 747720, Note_on_c, 15, 36, 51
33, 747780, Note_on_c, 15, 36, 0
33, 747840, Note_on_c, 15, 44, 43
33, 747900, Note_on_c, 15, 44, 0
33, 747960, Note_on_c, 15, 44, 39
33, 748020, Note_on_c, 15, 44, 0
33, 748080, Note_on_c, 15, 36, 53
33, 748140, Note_on_c, 15, 36, 0
33, 748200, Note_on_c, 15, 36, 39
33, 748260, Note_on_c, 15, 36, 0
33, 748320, Note_on_c, 15, 46, 56
33, 748380, Note_on_c, 15, 46, 0
33, 748440, Note_on_c, 15, 46, 42
33, 748500, Note_on_c, 15, 46, 0
33, 748560, Note_on_c, 15, 36, 51
33, 748620, Note_on_c, 15, 36, 0
33, 748680, Note_on_c, 15, 36, 50
33, 748740, Note_on_c, 15, 36, 0
33, 748805, Note_on_c, 15, 48, 45
33, 748925, Note_on_c, 15, 48, 0
33, 748927, Note_on_c, 15, 48, 55
33, 749043, Note_on_c, 15, 48, 0
33, 749052, Note_on_c, 15, 36, 51
33, 749172, Note_on_c, 15, 36, 0
33, 749176, Note_on_c, 15, 36, 53
33, 749292, Note_on_c, 15, 36, 0
33, 749303, Note_on_c, 15, 50, 45
33, 749423, Note_on_c, 15, 50, 0
33, 749424, Note_on_c, 15, 50, 42
33, 749540, Note_on_c, 15, 50, 0
33, 749541, Note_on_c, 15, 36, 47
33, 749646, Note_on_c, 15, 36, 47
33, 749661, Note_on_c, 15, 36, 0
33, 749762, Note_on_c, 15, 36, 0
33, 749762, Note_on_c, 15, 52, 56
33, 749880, Note_on_c, 15, 52, 42
33, 749882, Note_on_c, 15, 52, 0
33, 749996, Note_on_c, 15, 52, 0
33, 750017, Note_on_c, 15, 36, 44
33, 750134, Note_on_c, 15, 36, 43
33, 750137, Note_on_c, 15, 36, 0
33, 750240, Note_on_c, 15, 42, 49
33, 750250, Note_on_c, 15, 36, 0
33, 750300, Note_on_c, 15, 42, 0
33, 750360, Note_on_c, 15, 42, 56
33, 750420, Note_on_c, 15, 42, 0
33, 750480, Note_on_c, 15, 36, 46
33, 750540, Note_on_c, 15, 36, 0
33, 750600, Note_on_c, 15, 36, 52
33, 750660, Note_on_c, 15, 36, 0
33, 750720, Note_on_c, 15, 44, 58
33, 750780, Note_on_c, 15, 44, 0
33, 750840, Note_on_c, 15, 44, 50
33, 750900, Note_on_c, 15, 44, 0
33, 750960, Note_on_c, 15, 36, 43
33, 751020, Note_on_c, 15, 36, 0
33, 751080, Note_on_c, 15, 36, 48
33, 751140, Note_on_c, 15, 36, 0
33, 751200, Note_on_c, 15, 46, 57
33, 751260, Note_on_c, 15, 46, 0
33, 751320, Note_on_c, 15, 46, 55
33, 751380, Note_on_c, 15, 46, 0
33, 751440, Note_on_c, 15, 36, 51
33, 751500, Note_on_c, 15, 36, 0
33, 751560, Note_on_c, 15, 36, 52
33, 751620, Note_on_c, 15, 36, 0
33, 751680, Note_on_c, 15, 48, 46
33, 751800, Note_on_c, 15, 48, 0
33, 751821, Note_on_c, 15, 48, 50
33, 751937, Note_on_c, 15, 48, 0
33, 751945, Note_on_c, 15, 36, 57
33, 752040, Note_on_c, 15, 36, 41
33, 752065, Note_on_c, 15, 36, 0
33, 752156, Note_on_c, 15, 36, 0
33, 752161, Note_on_c, 15, 50, 42
33, 752281, Note_on_c, 15, 50, 0
33, 752281, Note_on_c, 15, 50, 55
33, 752397, Note_on_c, 15, 50, 0
33, 752417, Note_on_c, 15, 36, 39
33, 752537, Note_on_c, 15, 36, 0
33, 752541, Note_on_c, 15, 36, 58
33, 752657, Note_on_c, 15, 36, 0
33, 752659, Note_on_c, 15, 52, 47
33, 752772, Note_on_c, 15, 52, 47
33, 752779, Note_on_c, 15, 52, 0
33, 752888, Note_on_c, 15, 52, 0
33, 752888, Note_on_c, 15, 36, 56
33, 753008, Note_on_c, 15, 36, 0
33, 753021, Note_on_c, 15, 36, 56
33, 753120, Note_on_c, 15, 42, 45
33, 753137, Note_on_c, 15, 36, 0
33, 753180, Note_on_c, 15, 42, 0
33, 753240, Note_on_c, 15, 42, 57
33, 753300, Note_on_c, 15, 42, 0
33, 753360, Note_on_c, 15, 36, 43
33, 753420, Note_on_c, 15, 36, 0
33, 753480, Note_on_c, 15, 36, 56
33, 753540, Note_on_c, 15, 36, 0
33, 753600, Note_on_c, 15, 44, 58
33, 753660, Note_on_c, 15, 44, 0
33, 753720, Note_on_c, 15, 44, 58
33, 753780, Note_on_c, 15, 44, 0
33, 753840, Note_on_c, 15, 36, 56
33, 753900, Note_on_c, 15, 36, 0
33, 753960, Note_on_c, 15, 36, 41
33, 754020, Note_on_c, 15, 36, 0
33, 754080, Note_on_c, 15, 46, 50
33, 754140, Note_on_c, 15, 46, 0
33, 754200, Note_on_c, 15, 46, 47
33, 754260, Note_on_c, 15, 46, 0
33, 754320, Note_on_c, 15, 36, 43
33, 754380, Note_on_c, 15, 36, 0
33, 754440, Note_on_c, 15, 36, 58
33, 754500, Note_on_c, 15, 36, 0
33, 754560, Note_on_c, 15, 42, 55
33, 754620, Note_on_c, 15, 42, 0
33, 754680, Note_on_c, 15, 42, 50
33, 754740, Note_on_c, 15, 42, 0
33, 754800, Note_on_c, 15, 36, 47
33, 754860, Note_on_c, 15, 36, 0
33, 754920, Note_on_c, 15, 36, 45
33, 754980, Note_on_c, 15, 36, 0
33, 755040, Note_on_c, 15, 44, 48
33, 755100, Note_on_c, 15, 44, 0
33, 755160, Note_on_c, 15, 44, 39
33, 755220, Note_on_c, 15, 44, 0
33, 755280, Note_on_c, 15, 36, 49
33, 755340, Note_on_c, 15, 36, 0
33, 755400, Note_on_c, 15, 36, 39
33, 755460, Note_on_c, 15, 36, 0
33, 755520, Note_on_c, 15, 46, 57
33, 755580, Note_on_c, 15, 46, 0
33, 755640, Note_on_c, 15, 46, 39
33, 755700, Note_on_c, 15, 46, 0
33, 755760, Note_on_c, 15, 36, 59
33, 755820, Note_on_c, 15, 36, 0
33, 755880, Note_on_c, 15, 36, 43
33, 755940, Note_on_c, 15, 36, 0
33, 756006, Note_on_c, 15, 48, 44
33, 756126, Note_on_c, 15, 48, 0
33, 756140, Note_on_c, 15, 48, 47
33, 756256, Note_on_c, 15, 48, 0
33, 756256, Note_on_c, 15, 36, 48
33, 756376, Note_on_c, 15, 36, 0
33, 756380, Note_on_c, 15, 36, 46
33, 756485, Note_on_c, 15, 50, 52
33, 756496, Note_on_c, 15, 36, 0
33, 756605, Note_on_c, 15, 50, 0
33, 756614, Note_on_c, 15, 50, 54
33, 756720, Note_on_c, 15, 36, 58
33, 756730, Note_on_c, 15, 50, 0
33, 756840, Note_on_c, 15, 36, 0
33, 756852, Note_on_c, 15, 36, 49
33, 756968, Note_on_c, 15, 36, 0
33, 756985, Note_on_c, 15, 52, 49
33, 757085, Note_on_c, 15, 52, 45
33, 757105, Note_on_c, 15, 52, 0
33, 757201, Note_on_c, 15, 52, 0
33, 757218, Note_on_c, 15, 36, 50
33, 757322, Note_on_c, 15, 36, 53
33, 757338, Note_on_c, 15, 36, 0
33, 757438, Note_on_c, 15, 36, 0
33, 757440, Note_on_c, 15, 42, 48
33, 757500, Note_on_c, 15, 42, 0
33, 757560, Note_on_c, 15, 42, 49
33, 757620, Note_on_c, 15, 42, 0
33, 757680, Note_on_c, 15, 36, 44
33, 757740, Note_on_c, 15, 36, 0
33, 757800, Note_on_c, 15, 36, 42
33, 757860, Note_on_c, 15, 36, 0
33, 757920, Note_on_c, 15, 44, 42
33, 757980, Note_on_c, 15, 44, 0
33, 758040, Note_on_c, 15, 44, 47
33, 758100, Note_on_c, 15, 44, 0
33, 758160, Note_on_c, 15, 36, 40
33, 758220, Note_on_c, 15, 36, 0
33, 758280, Note_on_c, 15, 36, 48
33, 758340, Note_on_c, 15, 36, 0
33, 758400, Note_on_c, 15, 46, 49
33, 758460, Note_on_c, 15, 46, 0
33, 758520, Note_on_c, 15, 46, 42
33, 758580, Note_on_c, 15, 46, 0
33, 758640, Note_on_c, 15, 36, 51
33, 758700, Note_on_c, 15, 36, 0
33, 758760, Note_on_c, 15, 36, 49
33, 758820, Note_on_c, 15, 36, 0
33, 758880, Note_on_c, 15, 42, 57
33, 758940, Note_on_c, 15, 42, 0
33, 759000, Note_on_c, 15, 42, 53
33, 759060, Note_on_c, 15, 42, 0
33, 759120, Note_on_c, 15, 36, 41
33, 759180, Note_on_c, 15, 36, 0
33, 759240, Note_on_c, 15, 36, 39
33, 759300, Note_on_c, 15, 36, 0
33, 759360, Note_on_c, 15, 44, 52
33, 759420, Note_on_c, 15, 44, 0
33, 759480, Note_on_c, 15, 44, 50
33, 759540, Note_on_c, 15, 44, 0
33, 759600, Note_on_c, 15, 36, 59
33, 759660, Note_on_c, 15, 36, 0
33, 759720, Note_on_c, 15, 36, 59
33, 759780, Note_on_c, 15, 36, 0
33, 759840, Note_on_c, 15, 46, 49
33, 759900, Note_on_c, 15, 46, 0
33, 759960, Note_on_c, 15, 46, 40
33, 760020, Note_on_c, 15, 46, 0
33, 760080, Note_on_c, 15, 36, 45
33, 760140, Note_on_c, 15, 36, 0
33, 760200, Note_on_c, 15, 36, 50
33, 760260, Note_on_c, 15, 36, 0
33, 760344, Note_on_c, 15, 48, 54
33, 760463, Note_on_c, 15, 48, 53
33, 760464, Note_on_c, 15, 48, 0
33, 760579, Note_on_c, 15, 48, 0
33, 760579, Note_on_c, 15, 36, 48
33, 760695, Note_on_c, 15, 36, 55
33, 760699, Note_on_c, 15, 36, 0
33, 760811, Note_on_c, 15, 36, 0
33, 760823, Note_on_c, 15, 50, 48
33, 760936, Note_on_c, 15, 50, 59
33, 760943, Note_on_c, 15, 50, 0
33, 761052, Note_on_c, 15, 50, 0
33, 761065, Note_on_c, 15, 36, 40
33, 761183, Note_on_c, 15, 36, 42
33, 761185, Note_on_c, 15, 36, 0
33, 761296, Note_on_c, 15, 52, 40
33, 761299, Note_on_c, 15, 36, 0
33, 761416, Note_on_c, 15, 52, 0
33, 761425, Note_on_c, 15, 52, 48
33, 761541, Note_on_c, 15, 52, 0
33, 761543, Note_on_c, 15, 36, 56
33, 761663, Note_on_c, 15, 36, 0
33, 761663, Note_on_c, 15, 36, 47
33, 761760, Note_on_c, 15, 42, 40
33, 761779, Note_on_c, 15, 36, 0
33, 761820, Note_on_c, 15, 42, 0
33, 761880, Note_on_c, 15, 42, 41
33, 761940, Note_on_c, 15, 42, 0
33, 762000, Note_on_c, 15, 36, 53
33, 762060, Note_on_c, 15, 36, 0
33, 762120, Note_on_c, 15, 36, 44
33, 762180, Note_on_c, 15, 36, 0
33, 762240, Note_on_c, 15, 44, 43
33, 762300, Note_on_c, 15, 44, 0
33, 762360, Note_on_c, 15, 44, 58
33, 762420, Note_on_c, 15, 44, 0
33, 762480, Note_on_c, 15, 36, 57
33, 762540, Note_on_c, 15, 36, 0
33, 762600, Note_on_c, 15, 36, 40
33, 762660, Note_on_c, 15, 36, 0
33, 762720, Note_on_c, 15, 46, 58
33, 762780, Note_on_c, 15, 46, 0
33, 762840, Note_on_c, 15, 46, 47
33, 762900, Note_on_c, 15, 46, 0
33, 762960, Note_on_c, 15, 36, 39
33, 763020, Note_on_c, 15, 36, 0
33, 763080, Note_on_c, 15, 36, 53
33, 763140, Note_on_c, 15, 36, 0
33, 763206, Note_on_c, 15, 48, 46
33, 763326, Note_on_c, 15, 48, 0
33, 763341, Note_on_c, 15, 48, 53
33, 763457, Note_on_c, 15, 48, 0
33, 763465, Note_on_c, 15, 36, 41
33, 763580, Note_on_c, 15, 36, 47
33, 763585, Note_on_c, 15, 36, 0
33, 763686, Note_on_c, 15, 50, 50
33, 763696, Note_on_c, 15, 36, 0
33, 763806, Note_on_c, 15, 50, 0
33, 763817, Note_on_c, 15, 50, 57
33, 763933, Note_on_c, 15, 50, 0
33, 763943, Note_on_c, 15, 36, 48
33, 764045, Note_on_c, 15, 36, 39
33, 764063, Note_on_c, 15, 36, 0
33, 764161, Note_on_c, 15, 36, 0
33, 764179, Note_on_c, 15, 52, 53
33, 764288, Note_on_c, 15, 52, 40
33, 764299, Note_on_c, 15, 52, 0
33, 764404, Note_on_c, 15, 52, 0
33, 764409, Note_on_c, 15, 36, 40
33, 764529, Note_on_c, 15, 36, 0
33, 764538, Note_on_c, 15, 36, 52
33, 764654, Note_on_c, 15, 36, 0
33, 764659, Note_on_c, 15, 42, 58
33, 764717, Note_on_c, 15, 43, 58
33, 764727, Note_on_c, 15, 42, 0
33, 764785, Note_on_c, 15, 43, 0
33, 764789, Note_on_c, 15, 42, 41
33, 764857, Note_on_c, 15, 42, 0
33, 764862, Note_on_c, 15, 43, 41
33, 764922, Note_on_c, 15, 42, 56
33, 764930, Note_on_c, 15, 43, 0
33, 764990, Note_on_c, 15, 42, 0
33, 764993, Note_on_c, 15, 43, 39
33, 765053, Note_on_c, 15, 42, 44
33, 765061, Note_on_c, 15, 43, 0
33, 765118, Note_on_c, 15, 42, 0
33, 765125, Note_on_c, 15, 44, 46
33, 765193, Note_on_c, 15, 44, 0
33, 765196, Note_on_c, 15, 45, 58
33, 765264, Note_on_c, 15, 45, 0
33, 765264, Note_on_c, 15, 44, 54
33, 765332, Note_on_c, 15, 44, 0
33, 765337, Note_on_c, 15, 45, 42
33, 765405, Note_on_c, 15, 45, 0
33, 765406, Note_on_c, 15, 44, 40
33, 765474, Note_on_c, 15, 44, 0
33, 765478, Note_on_c, 15, 45, 47
33, 765543, Note_on_c, 15, 44, 44
33, 765546, Note_on_c, 15, 45, 0
33, 765608, Note_on_c, 15, 44, 0
33, 765613, Note_on_c, 15, 46, 40
33, 765681, Note_on_c, 15, 46, 0
33, 765689, Note_on_c, 15, 48, 45
33, 765738, Note_on_c, 15, 46, 47
33, 765757, Note_on_c, 15, 48, 0
33, 765806, Note_on_c, 15, 46, 0
33, 765809, Note_on_c, 15, 48, 47
33, 765876, Note_on_c, 15, 46, 43
33, 765877, Note_on_c, 15, 48, 0
33, 765941, Note_on_c, 15, 48, 51
33, 765944, Note_on_c, 15, 46, 0
33, 766009, Note_on_c, 15, 48, 0
33, 766017, Note_on_c, 15, 46, 52
33, 766082, Note_on_c, 15, 46, 0
33, 766099, Note_on_c, 15, 48, 50
33, 766167, Note_on_c, 15, 48, 0
33, 766173, Note_on_c, 15, 50, 50
33, 766223, Note_on_c, 15, 48, 51
33, 766241, Note_on_c, 15, 50, 0
33, 766291, Note_on_c, 15, 48, 0
33, 766308, Note_on_c, 15, 50, 47
33, 766371, Note_on_c, 15, 48, 57
33, 766376, Note_on_c, 15, 50, 0
33, 766439, Note_on_c, 15, 48, 0
33, 766444, Note_on_c, 15, 50, 44
33, 766493, Note_on_c, 15, 48, 55
33, 766512, Note_on_c, 15, 50, 0
33, 766558, Note_on_c, 15, 48, 0
33, 766560, Note_on_c, 15, 50, 54
33, 766628, Note_on_c, 15, 50, 0
33, 766653, Note_on_c, 15, 52, 39
33, 766710, Note_on_c, 15, 50, 58
33, 766721, Note_on_c, 15, 52, 0
33, 766765, Note_on_c, 15, 52, 45
33, 766778, Note_on_c, 15, 50, 0
33, 766833, Note_on_c, 15, 52, 0
33, 766835, Note_on_c, 15, 50, 57
33, 766901, Note_on_c, 15, 52, 57
33, 766903, Note_on_c, 15, 50, 0
33, 766969, Note_on_c, 15, 52, 0
33, 766971, Note_on_c, 15, 50, 45
33, 767036, Note_on_c, 15, 50, 0
33, 767056, Note_on_c, 15, 52, 44
33, 767116, Note_on_c, 15, 53, 47
33, 767124, Note_on_c, 15, 52, 0
33, 767182, Note_on_c, 15, 52, 57
33, 767184, Note_on_c, 15, 53, 0
33, 767250, Note_on_c, 15, 52, 0
33, 767269, Note_on_c, 15, 53, 39
33, 767327, Note_on_c, 15, 52, 59
33, 767337, Note_on_c, 15, 53, 0
33, 767395, Note_on_c, 15, 52, 0
33, 767396, Note_on_c, 15, 53, 51
33, 767454, Note_on_c, 15, 52, 46
33, 767464, Note_on_c, 15, 53, 0
33, 767519, Note_on_c, 15, 52, 0
33, 767532, Note_on_c, 15, 42, 46
33, 767603, Note_on_c, 15, 42, 0
33, 767768, Note_on_c, 15, 36, 50
33, 767839, Note_on_c, 15, 36, 0
33, 768020, Note_on_c, 15, 44, 48
33, 768091, Note_on_c, 15, 44, 0
33, 768249, Note_on_c, 15, 36, 58
33, 768320, Note_on_c, 15, 36, 0
33, 768504, Note_on_c, 15, 46, 62
33, 768575, Note_on_c, 15, 46, 0
33, 768722, Note_on_c, 15, 36, 54
33, 768793, Note_on_c, 15, 36, 0
33, 768975, Note_on_c, 15, 48, 56
33, 769046, Note_on_c, 15, 48, 0
33, 769215, Note_on_c, 15, 36, 63
33, 769286, Note_on_c, 15, 36, 0
33, 769459, Note_on_c, 15, 50, 79
33, 769530, Note_on_c, 15, 50, 0
33, 769690, Note_on_c, 15, 36, 64
33, 769761, Note_on_c, 15, 36, 0
33, 769936, Note_on_c, 15, 52, 67
33, 770007, Note_on_c, 15, 52, 0
33, 770166, Note_on_c, 15, 36, 77
33, 770237, Note_on_c, 15, 36, 0
33, 770425, Note_on_c, 15, 42, 75
33, 770496, Note_on_c, 15, 42, 0
33, 770643, Note_on_c, 15, 36, 78
33, 770714, Note_on_c, 15, 36, 0
33, 770887, Note_on_c, 15, 44, 78
33, 770958, Note_on_c, 15, 44, 0
33, 771145, Note_on_c, 15, 36, 86
33, 771216, Note_on_c, 15, 36, 0
33, 771361, Note_on_c, 15, 46, 92
33, 771432, Note_on_c, 15, 46, 0
33, 771602, Note_on_c, 15, 36, 100
33, 771673, Note_on_c, 15, 36, 0
33, 771854, Note_on_c, 15, 48, 96
33, 771925, Note_on_c, 15, 48, 0
33, 772093, Note_on_c, 15, 36, 90
33, 772164, Note_on_c, 15, 36, 0
33, 772340, Note_on_c, 15, 50, 102
33, 772411, Note_on_c, 15, 50, 0
33, 772571, Note_on_c, 15, 36, 107
33, 772642, Note_on_c, 15, 36, 0
33, 772815, Note_on_c, 15, 52, 110
33, 772886, Note_on_c, 15, 52, 0
33, 772886, End_track
34, 0, Start_track
34, 0, Title_t, "Contrabbassi II"
34, 0, MIDI_port, 0
34, 60960, Control_c, 10, 7, 127
34, 60960, Control_c, 10, 11, 127
34, 60960, Control_c, 10, 91, 127
34, 60960, Control_c, 10, 10, 84
34, 60960, Program_c, 10, 43
34, 60962, Note_on_c, 10, 62, 50
34, 60963, Note_on_c, 10, 52, 52
34, 60972, Note_on_c, 10, 47, 48
34, 60975, Note_on_c, 10, 56, 46
34, 60985, Note_on_c, 10, 35, 64
34, 71522, Note_on_c, 10, 62, 0
34, 71523, Note_on_c, 10, 52, 0
34, 71532, Note_on_c, 10, 47, 0
34, 71535, Note_on_c, 10, 56, 0
34, 71545, Note_on_c, 10, 35, 0
34, 238821, Note_on_c, 15, 41, 92
34, 239161, Note_on_c, 15, 41, 111
34, 239181, Note_on_c, 15, 41, 0
34, 239281, Note_on_c, 15, 41, 0
34, 239289, Note_on_c, 15, 39, 97
34, 239409, Note_on_c, 15, 39, 0
34, 239410, Note_on_c, 15, 39, 107
34, 239530, Note_on_c, 15, 39, 0
34, 239534, Note_on_c, 15, 39, 92
34, 239642, Note_on_c, 15, 39, 96
34, 239654, Note_on_c, 15, 39, 0
34, 239760, Note_on_c, 15, 29, 109
34, 239762, Note_on_c, 15, 39, 0
34, 239880, Note_on_c, 15, 29, 0
34, 239898, Note_on_c, 15, 41, 108
34, 240006, Note_on_c, 15, 41, 92
34, 240018, Note_on_c, 15, 41, 0
34, 240126, Note_on_c, 15, 41, 0
34, 240144, Note_on_c, 15, 29, 104
34, 240262, Note_on_c, 15, 31, 106
34, 240264, Note_on_c, 15, 29, 0
34, 240740, Note_on_c, 15, 41, 99
34, 240742, Note_on_c, 15, 31, 0
34, 241094, Note_on_c, 15, 41, 103
34, 241100, Note_on_c, 15, 41, 0
34, 241214, Note_on_c, 15, 41, 0
34, 241218, Note_on_c, 15, 39, 104
34, 241326, Note_on_c, 15, 39, 106
34, 241338, Note_on_c, 15, 39, 0
34, 241444, Note_on_c, 15, 39, 101
34, 241446, Note_on_c, 15, 39, 0
34, 241683, Note_on_c, 15, 29, 95
34, 241684, Note_on_c, 15, 39, 0
34, 241923, Note_on_c, 15, 29, 0
34, 242170, Note_on_c, 15, 29, 104
34, 242410, Note_on_c, 15, 29, 0
34, 242658, Note_on_c, 15, 41, 109
34, 243018, Note_on_c, 15, 41, 0
34, 243024, Note_on_c, 15, 41, 101
34, 243138, Note_on_c, 15, 39, 99
34, 243144, Note_on_c, 15, 41, 0
34, 243258, Note_on_c, 15, 39, 0
34, 243261, Note_on_c, 15, 39, 110
34, 243381, Note_on_c, 15, 39, 0
34, 243384, Note_on_c, 15, 39, 91
34, 243487, Note_on_c, 15, 39, 105
34, 243504, Note_on_c, 15, 39, 0
34, 243607, Note_on_c, 15, 39, 0
34, 243613, Note_on_c, 15, 29, 109
34, 243733, Note_on_c, 15, 29, 0
34, 243742, Note_on_c, 15, 41, 109
34, 243855, Note_on_c, 15, 41, 110
34, 243862, Note_on_c, 15, 41, 0
34, 243963, Note_on_c, 15, 29, 98
34, 243975, Note_on_c, 15, 41, 0
34, 244083, Note_on_c, 15, 29, 0
34, 244097, Note_on_c, 15, 31, 106
34, 244577, Note_on_c, 15, 31, 0
34, 244583, Note_on_c, 15, 41, 96
34, 244927, Note_on_c, 15, 41, 93
34, 244943, Note_on_c, 15, 41, 0
34, 245045, Note_on_c, 15, 39, 99
34, 245047, Note_on_c, 15, 41, 0
34, 245165, Note_on_c, 15, 39, 0
34, 245174, Note_on_c, 15, 39, 97
34, 245286, Note_on_c, 15, 39, 99
34, 245294, Note_on_c, 15, 39, 0
34, 245526, Note_on_c, 15, 39, 0
34, 245535, Note_on_c, 15, 29, 102
34, 245775, Note_on_c, 15, 29, 0
34, 246010, Note_on_c, 15, 29, 97
34, 246250, Note_on_c, 15, 29, 0
34, 246503, Note_on_c, 15, 41, 97
34, 246859, Note_on_c, 15, 41, 107
34, 246863, Note_on_c, 15, 41, 0
34, 246965, Note_on_c, 15, 39, 101
34, 246979, Note_on_c, 15, 41, 0
34, 247085, Note_on_c, 15, 39, 0
34, 247102, Note_on_c, 15, 39, 101
34, 247205, Note_on_c, 15, 39, 109
34, 247222, Note_on_c, 15, 39, 0
34, 247325, Note_on_c, 15, 39, 0
34, 247338, Note_on_c, 15, 39, 102
34, 247448, Note_on_c, 15, 29, 101
34, 247458, Note_on_c, 15, 39, 0
34, 247568, Note_on_c, 15, 29, 0
34, 247575, Note_on_c, 15, 41, 97
34, 247695, Note_on_c, 15, 41, 0
34, 247696, Note_on_c, 15, 41, 97
34, 247811, Note_on_c, 15, 29, 112
34, 247816, Note_on_c, 15, 41, 0
34, 247926, Note_on_c, 15, 31, 106
34, 247931, Note_on_c, 15, 29, 0
34, 248406, Note_on_c, 15, 31, 0
34, 248411, Note_on_c, 15, 41, 98
34, 248771, Note_on_c, 15, 41, 0
34, 248776, Note_on_c, 15, 41, 112
34, 248887, Note_on_c, 15, 39, 111
34, 248896, Note_on_c, 15, 41, 0
34, 249000, Note_on_c, 15, 39, 105
34, 249007, Note_on_c, 15, 39, 0
34, 249120, Note_on_c, 15, 39, 0
34, 249129, Note_on_c, 15, 39, 95
34, 249369, Note_on_c, 15, 39, 0
34, 249378, Note_on_c, 15, 29, 114
34, 249618, Note_on_c, 15, 29, 0
34, 249860, Note_on_c, 15, 29, 98
34, 250100, Note_on_c, 15, 29, 0
34, 764895, Note_on_c, 15, 36, 108
34, 765135, Note_on_c, 15, 36, 0
34, 765361, Note_on_c, 15, 36, 97
34, 765601, Note_on_c, 15, 36, 0
34, 765850, Note_on_c, 15, 36, 105
34, 766090, Note_on_c, 15, 36, 0
34, 766334, Note_on_c, 15, 36, 108
34, 766574, Note_on_c, 15, 36, 0
34, 766803, Note_on_c, 15, 36, 103
34, 767043, Note_on_c, 15, 36, 0
34, 767291, Note_on_c, 15, 36, 104
34, 767531, Note_on_c, 15, 36, 0
34, 767531, End_track
35, 0, Start_track
35, 0, Title_t, "by Igor Stravinsky"
35, 0, MIDI_port, 0
35, 0, End_track
36, 0, Start_track
36, 0, Title_t, " 2008 by Dario Galimberti"
36, 0, MIDI_port, 0
36, 0, End_track
0, 0, End_of_file
