0, 0, Header, 1, 13, 120
1, 0, Start_track
1, 0, Time_signature, 4, 2, 24, 8
1, 0, Key_signature, -3, "major"
1, 0, Tempo, 857143
1, 0, Marker_t, "Symphony Of Psalms by Igor Stravinsky"
1, 4800, Time_signature, 3, 1, 48, 8
1, 5520, Time_signature, 4, 2, 24, 8
1, 11760, Key_signature, 0, "major"
1, 11760, Tempo, 374555
1, 34320, Time_signature, 3, 1, 48, 8
1, 35040, Time_signature, 2, 1, 48, 8
1, 36960, Time_signature, 3, 1, 48, 8
1, 37680, Time_signature, 2, 1, 48, 8
1, 40080, Time_signature, 3, 1, 48, 8
1, 40800, Time_signature, 2, 1, 48, 8
1, 48480, Time_signature, 4, 2, 24, 8
1, 48480, Tempo, 857143
1, 50880, Tempo, 600000
1, 50890, Tempo, 374555
1, 51840, Time_signature, 3, 2, 24, 8
1, 52200, Time_signature, 4, 2, 24, 8
1, 54600, Time_signature, 3, 1, 48, 8
1, 55320, Time_signature, 4, 2, 24, 8
1, 67800, Time_signature, 2, 2, 24, 8
1, 68040, Time_signature, 3, 2, 24, 8
1, 68400, Time_signature, 4, 2, 24, 8
1, 70800, Time_signature, 3, 1, 48, 8
1, 71520, Tempo, 434185
1, 71570, Tempo, 435761
1, 71620, Tempo, 437350
1, 71670, Tempo, 438949
1, 71710, Tempo, 440561
1, 71760, Tempo, 442184
1, 71810, Tempo, 443820
1, 71850, Tempo, 445467
1, 71900, Tempo, 447127
1, 71950, Tempo, 448799
1, 71990, Tempo, 450484
1, 72040, Tempo, 452182
1, 72090, Tempo, 453892
1, 72130, Tempo, 455615
1, 72180, Tempo, 457352
1, 72230, Tempo, 459102
1, 72270, Tempo, 460865
1, 72320, Tempo, 462642
1, 72370, Tempo, 464432
1, 72410, Tempo, 466237
1, 72460, Tempo, 468055
1, 72510, Tempo, 469888
1, 72550, Tempo, 471735
1, 72600, Tempo, 473597
1, 72650, Tempo, 475473
1, 72690, Tempo, 477365
1, 72740, Tempo, 479272
1, 72790, Tempo, 481193
1, 72830, Tempo, 483131
1, 72880, Tempo, 485084
1, 72930, Tempo, 487053
1, 72970, Tempo, 489037
1, 73020, Tempo, 491039
1, 73070, Tempo, 493056
1, 73110, Tempo, 495090
1, 73160, Tempo, 497141
1, 73210, Tempo, 499210
1, 73250, Tempo, 501295
1, 73300, Tempo, 503398
1, 73350, Tempo, 505519
1, 73390, Tempo, 507657
1, 73440, Tempo, 509814
1, 73490, Tempo, 511989
1, 73530, Tempo, 514183
1, 73580, Tempo, 516396
1, 73630, Tempo, 518627
1, 73670, Tempo, 520879
1, 73680, Tempo, 623765
1, 73690, Tempo, 627025
1, 80880, Key_signature, -3, "major"
1, 83040, Tempo, 688152
1, 113280, Time_signature, 4, 2, 24, 8
1, 113280, Tempo, 857143
1, 113280, End_track
2, 0, Start_track
2, 0, MIDI_port, 0
2, 0, Title_t, "top staff"
2, 0, Program_c, 0, 0
2, 0, Control_c, 0, 7, 127
2, 0, Control_c, 0, 10, 64
2, 480, Note_on_c, 0, 87, 62
2, 484, Note_on_c, 0, 79, 22
2, 486, Note_on_c, 0, 75, 35
2, 554, Note_on_c, 0, 79, 0
2, 561, Note_on_c, 0, 75, 0
2, 563, Note_on_c, 0, 87, 0
2, 600, Note_on_c, 0, 84, 49
2, 600, Note_on_c, 0, 89, 55
2, 600, Note_on_c, 0, 77, 39
2, 1414, Note_on_c, 0, 84, 0
2, 1415, Note_on_c, 0, 77, 0
2, 1416, Note_on_c, 0, 89, 0
2, 3362, Note_on_c, 0, 72, 49
2, 3363, Note_on_c, 0, 88, 49
2, 3365, Note_on_c, 0, 84, 49
2, 3682, Note_on_c, 0, 84, 0
2, 3682, Note_on_c, 0, 88, 0
2, 3682, Note_on_c, 0, 72, 0
2, 3717, Note_on_c, 0, 72, 44
2, 3718, Note_on_c, 0, 88, 62
2, 3718, Note_on_c, 0, 84, 55
2, 4317, Note_on_c, 0, 84, 0
2, 4317, Note_on_c, 0, 88, 0
2, 4317, Note_on_c, 0, 72, 0
2, 6482, Note_on_c, 0, 55, 35
2, 6482, Note_on_c, 0, 67, 44
2, 6719, Note_on_c, 0, 55, 0
2, 6719, Note_on_c, 0, 72, 49
2, 6719, Note_on_c, 0, 60, 35
2, 6722, Note_on_c, 0, 67, 0
2, 6841, Note_on_c, 0, 60, 0
2, 6841, Note_on_c, 0, 67, 49
2, 6841, Note_on_c, 0, 79, 62
2, 6842, Note_on_c, 0, 72, 0
2, 6966, Note_on_c, 0, 68, 62
2, 7085, Note_on_c, 0, 84, 70
2, 7086, Note_on_c, 0, 79, 0
2, 7086, Note_on_c, 0, 72, 49
2, 7090, Note_on_c, 0, 67, 0
2, 7194, Note_on_c, 0, 67, 55
2, 7197, Note_on_c, 0, 68, 0
2, 7203, Note_on_c, 0, 79, 44
2, 7204, Note_on_c, 0, 72, 0
2, 7204, Note_on_c, 0, 84, 0
2, 7205, Note_on_c, 0, 91, 70
2, 7289, Note_on_c, 0, 79, 0
2, 7293, Note_on_c, 0, 91, 0
2, 7320, Note_on_c, 0, 67, 55
2, 7321, Note_on_c, 0, 79, 62
2, 7430, Note_on_c, 0, 67, 0
2, 7435, Note_on_c, 0, 72, 49
2, 7436, Note_on_c, 0, 84, 55
2, 7437, Note_on_c, 0, 79, 0
2, 7560, Note_on_c, 0, 84, 0
2, 7560, Note_on_c, 0, 72, 0
2, 7560, Note_on_c, 0, 79, 49
2, 7562, Note_on_c, 0, 91, 62
2, 7655, Note_on_c, 0, 79, 0
2, 7672, Note_on_c, 0, 68, 70
2, 7675, Note_on_c, 0, 91, 0
2, 7677, Note_on_c, 0, 67, 0
2, 7677, Note_on_c, 0, 67, 55
2, 7679, Note_on_c, 0, 79, 55
2, 7796, Note_on_c, 0, 67, 0
2, 7800, Note_on_c, 0, 72, 39
2, 7801, Note_on_c, 0, 84, 55
2, 7804, Note_on_c, 0, 79, 0
2, 7896, Note_on_c, 0, 68, 0
2, 7916, Note_on_c, 0, 68, 70
2, 7924, Note_on_c, 0, 84, 0
2, 7926, Note_on_c, 0, 72, 0
2, 7929, Note_on_c, 0, 79, 55
2, 7930, Note_on_c, 0, 91, 78
2, 8020, Note_on_c, 0, 79, 0
2, 8028, Note_on_c, 0, 91, 0
2, 8040, Note_on_c, 0, 67, 44
2, 8042, Note_on_c, 0, 79, 62
2, 8156, Note_on_c, 0, 67, 0
2, 8159, Note_on_c, 0, 79, 0
2, 8159, Note_on_c, 0, 72, 44
2, 8159, Note_on_c, 0, 84, 55
2, 8161, Note_on_c, 0, 67, 55
2, 8165, Note_on_c, 0, 68, 0
2, 8274, Note_on_c, 0, 84, 0
2, 8277, Note_on_c, 0, 72, 0
2, 8280, Note_on_c, 0, 79, 49
2, 8281, Note_on_c, 0, 91, 70
2, 8366, Note_on_c, 0, 67, 0
2, 8376, Note_on_c, 0, 91, 0
2, 8376, Note_on_c, 0, 79, 0
2, 8391, Note_on_c, 0, 67, 62
2, 8396, Note_on_c, 0, 67, 49
2, 8397, Note_on_c, 0, 79, 49
2, 8511, Note_on_c, 0, 67, 0
2, 8515, Note_on_c, 0, 79, 0
2, 8515, Note_on_c, 0, 72, 44
2, 8515, Note_on_c, 0, 84, 62
2, 8633, Note_on_c, 0, 84, 0
2, 8633, Note_on_c, 0, 68, 70
2, 8637, Note_on_c, 0, 72, 0
2, 8638, Note_on_c, 0, 67, 0
2, 8640, Note_on_c, 0, 79, 35
2, 8641, Note_on_c, 0, 91, 70
2, 8733, Note_on_c, 0, 79, 0
2, 8734, Note_on_c, 0, 91, 0
2, 8757, Note_on_c, 0, 79, 49
2, 8758, Note_on_c, 0, 67, 44
2, 8875, Note_on_c, 0, 67, 0
2, 8880, Note_on_c, 0, 79, 0
2, 8880, Note_on_c, 0, 72, 39
2, 8880, Note_on_c, 0, 84, 62
2, 9001, Note_on_c, 0, 72, 0
2, 9001, Note_on_c, 0, 79, 55
2, 9002, Note_on_c, 0, 84, 0
2, 9004, Note_on_c, 0, 91, 70
2, 9104, Note_on_c, 0, 79, 0
2, 9112, Note_on_c, 0, 91, 0
2, 9116, Note_on_c, 0, 67, 55
2, 9120, Note_on_c, 0, 67, 55
2, 9120, Note_on_c, 0, 79, 49
2, 9121, Note_on_c, 0, 68, 0
2, 9223, Note_on_c, 0, 67, 0
2, 9234, Note_on_c, 0, 72, 44
2, 9237, Note_on_c, 0, 79, 0
2, 9237, Note_on_c, 0, 84, 44
2, 9331, Note_on_c, 0, 67, 0
2, 9359, Note_on_c, 0, 67, 62
2, 9363, Note_on_c, 0, 84, 0
2, 9363, Note_on_c, 0, 72, 0
2, 9366, Note_on_c, 0, 79, 39
2, 9367, Note_on_c, 0, 91, 70
2, 9457, Note_on_c, 0, 79, 0
2, 9467, Note_on_c, 0, 91, 0
2, 9476, Note_on_c, 0, 67, 55
2, 9477, Note_on_c, 0, 79, 55
2, 9586, Note_on_c, 0, 67, 0
2, 9595, Note_on_c, 0, 72, 35
2, 9596, Note_on_c, 0, 79, 0
2, 9596, Note_on_c, 0, 84, 49
2, 9711, Note_on_c, 0, 72, 0
2, 9716, Note_on_c, 0, 84, 0
2, 9718, Note_on_c, 0, 91, 62
2, 9718, Note_on_c, 0, 79, 22
2, 9783, Note_on_c, 0, 79, 0
2, 9791, Note_on_c, 0, 91, 0
2, 9824, Note_on_c, 0, 67, 0
2, 9836, Note_on_c, 0, 50, 62
2, 9950, Note_on_c, 0, 50, 0
2, 9960, Note_on_c, 0, 51, 39
2, 10207, Note_on_c, 0, 58, 62
2, 10216, Note_on_c, 0, 51, 0
2, 10262, Note_on_c, 0, 58, 0
2, 10323, Note_on_c, 0, 72, 49
2, 10325, Note_on_c, 0, 88, 62
2, 10325, Note_on_c, 0, 84, 62
2, 10660, Note_on_c, 0, 84, 0
2, 10660, Note_on_c, 0, 88, 0
2, 10661, Note_on_c, 0, 72, 0
2, 10683, Note_on_c, 0, 72, 62
2, 10684, Note_on_c, 0, 88, 55
2, 10685, Note_on_c, 0, 84, 62
2, 10777, Note_on_c, 0, 84, 0
2, 10777, Note_on_c, 0, 72, 0
2, 10778, Note_on_c, 0, 88, 0
2, 10801, Note_on_c, 0, 72, 55
2, 10802, Note_on_c, 0, 88, 62
2, 10803, Note_on_c, 0, 84, 62
2, 11286, Note_on_c, 0, 84, 0
2, 11287, Note_on_c, 0, 72, 0
2, 11288, Note_on_c, 0, 88, 0
2, 11765, Note_on_c, 0, 58, 62
2, 11768, Note_on_c, 0, 60, 49
2, 11884, Note_on_c, 0, 60, 70
2, 11884, Note_on_c, 0, 64, 78
2, 11884, Note_on_c, 0, 52, 70
2, 11909, Note_on_c, 0, 52, 0
2, 11913, Note_on_c, 0, 64, 0
2, 11915, Note_on_c, 0, 60, 0
2, 11942, Note_on_c, 0, 52, 62
2, 11944, Note_on_c, 0, 60, 49
2, 11945, Note_on_c, 0, 64, 62
2, 11962, Note_on_c, 0, 52, 0
2, 11965, Note_on_c, 0, 60, 0
2, 11967, Note_on_c, 0, 64, 0
2, 12000, Note_on_c, 0, 60, 62
2, 12001, Note_on_c, 0, 52, 44
2, 12001, Note_on_c, 0, 64, 49
2, 12018, Note_on_c, 0, 52, 0
2, 12022, Note_on_c, 0, 60, 0
2, 12023, Note_on_c, 0, 64, 0
2, 12060, Note_on_c, 0, 64, 55
2, 12060, Note_on_c, 0, 52, 44
2, 12061, Note_on_c, 0, 60, 49
2, 12078, Note_on_c, 0, 52, 0
2, 12080, Note_on_c, 0, 64, 0
2, 12082, Note_on_c, 0, 60, 0
2, 12114, Note_on_c, 0, 52, 55
2, 12117, Note_on_c, 0, 64, 49
2, 12117, Note_on_c, 0, 60, 55
2, 12136, Note_on_c, 0, 52, 0
2, 12140, Note_on_c, 0, 64, 0
2, 12140, Note_on_c, 0, 60, 0
2, 12174, Note_on_c, 0, 64, 70
2, 12175, Note_on_c, 0, 52, 62
2, 12177, Note_on_c, 0, 60, 62
2, 12195, Note_on_c, 0, 52, 0
2, 12200, Note_on_c, 0, 64, 0
2, 12200, Note_on_c, 0, 60, 0
2, 13196, Note_on_c, 0, 52, 98
2, 13196, Note_on_c, 0, 60, 98
2, 13196, Note_on_c, 0, 64, 98
2, 13202, Note_on_c, 0, 62, 49
2, 13207, Note_on_c, 0, 62, 0
2, 13225, Note_on_c, 0, 60, 0
2, 13227, Note_on_c, 0, 52, 0
2, 13228, Note_on_c, 0, 64, 0
2, 13258, Note_on_c, 0, 64, 49
2, 13258, Note_on_c, 0, 52, 39
2, 13259, Note_on_c, 0, 60, 44
2, 13279, Note_on_c, 0, 52, 0
2, 13282, Note_on_c, 0, 64, 0
2, 13283, Note_on_c, 0, 60, 0
2, 13318, Note_on_c, 0, 52, 49
2, 13321, Note_on_c, 0, 60, 49
2, 13321, Note_on_c, 0, 64, 44
2, 13340, Note_on_c, 0, 52, 0
2, 13343, Note_on_c, 0, 64, 0
2, 13344, Note_on_c, 0, 60, 0
2, 13380, Note_on_c, 0, 64, 49
2, 13380, Note_on_c, 0, 52, 44
2, 13380, Note_on_c, 0, 60, 49
2, 13400, Note_on_c, 0, 52, 0
2, 13404, Note_on_c, 0, 64, 0
2, 13404, Note_on_c, 0, 60, 0
2, 13439, Note_on_c, 0, 52, 49
2, 13440, Note_on_c, 0, 64, 49
2, 13441, Note_on_c, 0, 60, 49
2, 13460, Note_on_c, 0, 52, 0
2, 13463, Note_on_c, 0, 64, 0
2, 13464, Note_on_c, 0, 60, 0
2, 13497, Note_on_c, 0, 52, 55
2, 13499, Note_on_c, 0, 64, 55
2, 13499, Note_on_c, 0, 60, 49
2, 13521, Note_on_c, 0, 52, 0
2, 13524, Note_on_c, 0, 60, 0
2, 13526, Note_on_c, 0, 64, 0
2, 14040, Note_on_c, 0, 60, 78
2, 14041, Note_on_c, 0, 52, 70
2, 14042, Note_on_c, 0, 64, 62
2, 14066, Note_on_c, 0, 52, 0
2, 14068, Note_on_c, 0, 60, 0
2, 14071, Note_on_c, 0, 64, 0
2, 14097, Note_on_c, 0, 64, 62
2, 14097, Note_on_c, 0, 52, 55
2, 14098, Note_on_c, 0, 60, 49
2, 14121, Note_on_c, 0, 52, 0
2, 14122, Note_on_c, 0, 60, 0
2, 14127, Note_on_c, 0, 64, 0
2, 14157, Note_on_c, 0, 52, 62
2, 14157, Note_on_c, 0, 64, 62
2, 14157, Note_on_c, 0, 60, 62
2, 14180, Note_on_c, 0, 52, 0
2, 14182, Note_on_c, 0, 60, 0
2, 14186, Note_on_c, 0, 64, 0
2, 14215, Note_on_c, 0, 64, 62
2, 14216, Note_on_c, 0, 52, 49
2, 14218, Note_on_c, 0, 60, 55
2, 14237, Note_on_c, 0, 52, 0
2, 14240, Note_on_c, 0, 60, 0
2, 14242, Note_on_c, 0, 64, 0
2, 14276, Note_on_c, 0, 52, 62
2, 14276, Note_on_c, 0, 64, 55
2, 14278, Note_on_c, 0, 60, 55
2, 14298, Note_on_c, 0, 52, 0
2, 14301, Note_on_c, 0, 64, 0
2, 14304, Note_on_c, 0, 60, 0
2, 14336, Note_on_c, 0, 52, 62
2, 14336, Note_on_c, 0, 64, 62
2, 14338, Note_on_c, 0, 60, 62
2, 14362, Note_on_c, 0, 52, 0
2, 14366, Note_on_c, 0, 60, 0
2, 14367, Note_on_c, 0, 64, 0
2, 14518, Note_on_c, 0, 67, 62
2, 14640, Note_on_c, 0, 67, 0
2, 14642, Note_on_c, 0, 70, 62
2, 14649, Note_on_c, 0, 58, 0
2, 14650, Note_on_c, 0, 60, 0
2, 14761, Note_on_c, 0, 70, 0
2, 14762, Note_on_c, 0, 68, 70
2, 14883, Note_on_c, 0, 72, 62
2, 14885, Note_on_c, 0, 68, 0
2, 15006, Note_on_c, 0, 67, 49
2, 15011, Note_on_c, 0, 72, 0
2, 15124, Note_on_c, 0, 67, 0
2, 15124, Note_on_c, 0, 70, 62
2, 15245, Note_on_c, 0, 68, 62
2, 15246, Note_on_c, 0, 70, 0
2, 15368, Note_on_c, 0, 72, 62
2, 15369, Note_on_c, 0, 68, 0
2, 15413, Note_on_c, 0, 72, 0
2, 15483, Note_on_c, 0, 60, 110
2, 15483, Note_on_c, 0, 64, 110
2, 15483, Note_on_c, 0, 67, 110
2, 15525, Note_on_c, 0, 60, 0
2, 15528, Note_on_c, 0, 64, 0
2, 15529, Note_on_c, 0, 67, 0
2, 15719, Note_on_c, 0, 55, 88
2, 15720, Note_on_c, 0, 60, 88
2, 15720, Note_on_c, 0, 67, 88
2, 15720, Note_on_c, 0, 64, 98
2, 15747, Note_on_c, 0, 55, 0
2, 15749, Note_on_c, 0, 60, 0
2, 15750, Note_on_c, 0, 67, 0
2, 15750, Note_on_c, 0, 64, 0
2, 15780, Note_on_c, 0, 55, 78
2, 15780, Note_on_c, 0, 67, 88
2, 15781, Note_on_c, 0, 60, 70
2, 15781, Note_on_c, 0, 64, 78
2, 15801, Note_on_c, 0, 55, 0
2, 15805, Note_on_c, 0, 60, 0
2, 15808, Note_on_c, 0, 67, 0
2, 15809, Note_on_c, 0, 64, 0
2, 15833, Note_on_c, 0, 67, 70
2, 15833, Note_on_c, 0, 55, 62
2, 15834, Note_on_c, 0, 60, 55
2, 15834, Note_on_c, 0, 64, 62
2, 15858, Note_on_c, 0, 55, 0
2, 15860, Note_on_c, 0, 60, 0
2, 15863, Note_on_c, 0, 67, 0
2, 15865, Note_on_c, 0, 64, 0
2, 15893, Note_on_c, 0, 67, 55
2, 15893, Note_on_c, 0, 55, 39
2, 15893, Note_on_c, 0, 64, 49
2, 15895, Note_on_c, 0, 60, 49
2, 15916, Note_on_c, 0, 55, 0
2, 15917, Note_on_c, 0, 60, 0
2, 15918, Note_on_c, 0, 64, 0
2, 15918, Note_on_c, 0, 67, 0
2, 15950, Note_on_c, 0, 55, 55
2, 15950, Note_on_c, 0, 67, 55
2, 15950, Note_on_c, 0, 60, 55
2, 15951, Note_on_c, 0, 64, 55
2, 15973, Note_on_c, 0, 60, 0
2, 15973, Note_on_c, 0, 55, 0
2, 15974, Note_on_c, 0, 64, 0
2, 15978, Note_on_c, 0, 67, 0
2, 16010, Note_on_c, 0, 67, 62
2, 16010, Note_on_c, 0, 55, 55
2, 16012, Note_on_c, 0, 64, 55
2, 16012, Note_on_c, 0, 60, 49
2, 16068, Note_on_c, 0, 55, 0
2, 16166, Note_on_c, 0, 67, 0
2, 16197, Note_on_c, 0, 67, 62
2, 16310, Note_on_c, 0, 70, 70
2, 16311, Note_on_c, 0, 67, 0
2, 16440, Note_on_c, 0, 68, 70
2, 16444, Note_on_c, 0, 70, 0
2, 16560, Note_on_c, 0, 68, 0
2, 16562, Note_on_c, 0, 72, 55
2, 16681, Note_on_c, 0, 67, 49
2, 16684, Note_on_c, 0, 72, 0
2, 16798, Note_on_c, 0, 70, 70
2, 16799, Note_on_c, 0, 67, 0
2, 16919, Note_on_c, 0, 68, 78
2, 16921, Note_on_c, 0, 70, 0
2, 16943, Note_on_c, 0, 60, 0
2, 16943, Note_on_c, 0, 64, 0
2, 16952, Note_on_c, 0, 68, 0
2, 17095, Note_on_c, 0, 72, 98
2, 17095, Note_on_c, 0, 84, 88
2, 17114, Note_on_c, 0, 84, 0
2, 17116, Note_on_c, 0, 72, 0
2, 17158, Note_on_c, 0, 64, 98
2, 17158, Note_on_c, 0, 60, 98
2, 17158, Note_on_c, 0, 72, 78
2, 17160, Note_on_c, 0, 74, 78
2, 17160, Note_on_c, 0, 67, 98
2, 17164, Note_on_c, 0, 74, 0
2, 17180, Note_on_c, 0, 60, 0
2, 17189, Note_on_c, 0, 64, 0
2, 17190, Note_on_c, 0, 67, 0
2, 17192, Note_on_c, 0, 72, 0
2, 17222, Note_on_c, 0, 60, 62
2, 17222, Note_on_c, 0, 64, 62
2, 17222, Note_on_c, 0, 67, 55
2, 17244, Note_on_c, 0, 64, 0
2, 17246, Note_on_c, 0, 67, 0
2, 17246, Note_on_c, 0, 60, 0
2, 17281, Note_on_c, 0, 60, 62
2, 17282, Note_on_c, 0, 67, 62
2, 17282, Note_on_c, 0, 64, 70
2, 17306, Note_on_c, 0, 64, 0
2, 17307, Note_on_c, 0, 60, 0
2, 17308, Note_on_c, 0, 67, 0
2, 17339, Note_on_c, 0, 60, 70
2, 17340, Note_on_c, 0, 67, 62
2, 17340, Note_on_c, 0, 64, 70
2, 17362, Note_on_c, 0, 64, 0
2, 17362, Note_on_c, 0, 60, 0
2, 17365, Note_on_c, 0, 67, 0
2, 17397, Note_on_c, 0, 60, 70
2, 17398, Note_on_c, 0, 67, 70
2, 17398, Note_on_c, 0, 64, 70
2, 17422, Note_on_c, 0, 64, 0
2, 17422, Note_on_c, 0, 60, 0
2, 17424, Note_on_c, 0, 67, 0
2, 17456, Note_on_c, 0, 60, 70
2, 17457, Note_on_c, 0, 67, 70
2, 17457, Note_on_c, 0, 64, 88
2, 17521, Note_on_c, 0, 70, 88
2, 17549, Note_on_c, 0, 67, 0
2, 17640, Note_on_c, 0, 70, 0
2, 17644, Note_on_c, 0, 68, 98
2, 17760, Note_on_c, 0, 72, 70
2, 17767, Note_on_c, 0, 68, 0
2, 17776, Note_on_c, 0, 64, 0
2, 17841, Note_on_c, 0, 72, 0
2, 17845, Note_on_c, 0, 60, 0
2, 17880, Note_on_c, 0, 60, 110
2, 17880, Note_on_c, 0, 67, 110
2, 17946, Note_on_c, 0, 60, 0
2, 17950, Note_on_c, 0, 67, 0
2, 18009, Note_on_c, 0, 68, 98
2, 18010, Note_on_c, 0, 65, 98
2, 18010, Note_on_c, 0, 62, 88
2, 18036, Note_on_c, 0, 65, 0
2, 18037, Note_on_c, 0, 62, 0
2, 18040, Note_on_c, 0, 68, 0
2, 18064, Note_on_c, 0, 68, 78
2, 18066, Note_on_c, 0, 65, 78
2, 18067, Note_on_c, 0, 62, 55
2, 18091, Note_on_c, 0, 65, 0
2, 18094, Note_on_c, 0, 62, 0
2, 18100, Note_on_c, 0, 68, 0
2, 18124, Note_on_c, 0, 66, 98
2, 18125, Note_on_c, 0, 69, 78
2, 18125, Note_on_c, 0, 62, 78
2, 18154, Note_on_c, 0, 66, 0
2, 18156, Note_on_c, 0, 69, 0
2, 18159, Note_on_c, 0, 62, 0
2, 18181, Note_on_c, 0, 66, 98
2, 18181, Note_on_c, 0, 69, 88
2, 18181, Note_on_c, 0, 62, 78
2, 18208, Note_on_c, 0, 66, 0
2, 18210, Note_on_c, 0, 62, 0
2, 18212, Note_on_c, 0, 69, 0
2, 18236, Note_on_c, 0, 66, 110
2, 18236, Note_on_c, 0, 62, 88
2, 18236, Note_on_c, 0, 69, 88
2, 18264, Note_on_c, 0, 62, 0
2, 18265, Note_on_c, 0, 66, 0
2, 18266, Note_on_c, 0, 69, 0
2, 18296, Note_on_c, 0, 62, 98
2, 18296, Note_on_c, 0, 69, 110
2, 18296, Note_on_c, 0, 66, 110
2, 19157, Note_on_c, 0, 66, 0
2, 19159, Note_on_c, 0, 62, 0
2, 19163, Note_on_c, 0, 69, 0
2, 19318, Note_on_c, 0, 70, 98
2, 19318, Note_on_c, 0, 63, 98
2, 19405, Note_on_c, 0, 63, 0
2, 19412, Note_on_c, 0, 70, 0
2, 19432, Note_on_c, 0, 64, 110
2, 19432, Note_on_c, 0, 71, 110
2, 19432, Note_on_c, 0, 68, 110
2, 19468, Note_on_c, 0, 68, 0
2, 19472, Note_on_c, 0, 71, 0
2, 19474, Note_on_c, 0, 64, 0
2, 19497, Note_on_c, 0, 64, 78
2, 19499, Note_on_c, 0, 71, 78
2, 19499, Note_on_c, 0, 68, 88
2, 19525, Note_on_c, 0, 68, 0
2, 19526, Note_on_c, 0, 71, 0
2, 19526, Note_on_c, 0, 64, 0
2, 19557, Note_on_c, 0, 64, 88
2, 19557, Note_on_c, 0, 71, 78
2, 19557, Note_on_c, 0, 68, 88
2, 19581, Note_on_c, 0, 64, 0
2, 19585, Note_on_c, 0, 68, 0
2, 19586, Note_on_c, 0, 71, 0
2, 19616, Note_on_c, 0, 71, 78
2, 19616, Note_on_c, 0, 64, 70
2, 19616, Note_on_c, 0, 68, 78
2, 19640, Note_on_c, 0, 64, 0
2, 19642, Note_on_c, 0, 68, 0
2, 19644, Note_on_c, 0, 71, 0
2, 19675, Note_on_c, 0, 68, 88
2, 19675, Note_on_c, 0, 71, 78
2, 19675, Note_on_c, 0, 64, 70
2, 19698, Note_on_c, 0, 64, 0
2, 19703, Note_on_c, 0, 71, 0
2, 19703, Note_on_c, 0, 68, 0
2, 19734, Note_on_c, 0, 68, 98
2, 19734, Note_on_c, 0, 71, 98
2, 19735, Note_on_c, 0, 64, 88
2, 19800, Note_on_c, 0, 68, 110
2, 19825, Note_on_c, 0, 64, 0
2, 19825, Note_on_c, 0, 68, 0
2, 19826, Note_on_c, 0, 71, 0
2, 19839, Note_on_c, 0, 68, 0
2, 19840, Note_on_c, 0, 56, 98
2, 19879, Note_on_c, 0, 56, 0
2, 19880, Note_on_c, 0, 64, 98
2, 19919, Note_on_c, 0, 64, 0
2, 19920, Note_on_c, 0, 71, 98
2, 19959, Note_on_c, 0, 71, 0
2, 19960, Note_on_c, 0, 59, 78
2, 19999, Note_on_c, 0, 59, 0
2, 20000, Note_on_c, 0, 68, 98
2, 20039, Note_on_c, 0, 68, 0
2, 20040, Note_on_c, 0, 76, 88
2, 20079, Note_on_c, 0, 76, 0
2, 20080, Note_on_c, 0, 64, 88
2, 20119, Note_on_c, 0, 64, 0
2, 20120, Note_on_c, 0, 71, 88
2, 20159, Note_on_c, 0, 71, 0
2, 20160, Note_on_c, 0, 80, 88
2, 20199, Note_on_c, 0, 80, 0
2, 20200, Note_on_c, 0, 68, 88
2, 20239, Note_on_c, 0, 68, 0
2, 20240, Note_on_c, 0, 76, 78
2, 20279, Note_on_c, 0, 76, 0
2, 20280, Note_on_c, 0, 83, 98
2, 20319, Note_on_c, 0, 83, 0
2, 20320, Note_on_c, 0, 71, 78
2, 20359, Note_on_c, 0, 71, 0
2, 20360, Note_on_c, 0, 80, 78
2, 20399, Note_on_c, 0, 80, 0
2, 20400, Note_on_c, 0, 88, 78
2, 20439, Note_on_c, 0, 88, 0
2, 20440, Note_on_c, 0, 83, 62
2, 20479, Note_on_c, 0, 83, 0
2, 20480, Note_on_c, 0, 92, 98
2, 20519, Note_on_c, 0, 92, 0
2, 20520, Note_on_c, 0, 83, 70
2, 20559, Note_on_c, 0, 83, 0
2, 20560, Note_on_c, 0, 83, 62
2, 20599, Note_on_c, 0, 83, 0
2, 20600, Note_on_c, 0, 83, 70
2, 20639, Note_on_c, 0, 83, 0
2, 20640, Note_on_c, 0, 83, 70
2, 20679, Note_on_c, 0, 83, 0
2, 20680, Note_on_c, 0, 83, 70
2, 20719, Note_on_c, 0, 83, 0
2, 20720, Note_on_c, 0, 83, 70
2, 20759, Note_on_c, 0, 83, 0
2, 20760, Note_on_c, 0, 83, 70
2, 20799, Note_on_c, 0, 83, 0
2, 20800, Note_on_c, 0, 83, 62
2, 20839, Note_on_c, 0, 83, 0
2, 20840, Note_on_c, 0, 83, 62
2, 20879, Note_on_c, 0, 83, 0
2, 20880, Note_on_c, 0, 88, 78
2, 20919, Note_on_c, 0, 88, 0
2, 20920, Note_on_c, 0, 83, 70
2, 20959, Note_on_c, 0, 83, 0
2, 20960, Note_on_c, 0, 92, 98
2, 20999, Note_on_c, 0, 92, 0
2, 21000, Note_on_c, 0, 83, 78
2, 21039, Note_on_c, 0, 83, 0
2, 21040, Note_on_c, 0, 83, 70
2, 21079, Note_on_c, 0, 83, 0
2, 21080, Note_on_c, 0, 83, 70
2, 21119, Note_on_c, 0, 83, 0
2, 21120, Note_on_c, 0, 83, 70
2, 21159, Note_on_c, 0, 83, 0
2, 21160, Note_on_c, 0, 83, 62
2, 21199, Note_on_c, 0, 83, 0
2, 21200, Note_on_c, 0, 83, 62
2, 21239, Note_on_c, 0, 83, 0
2, 21240, Note_on_c, 0, 88, 78
2, 21279, Note_on_c, 0, 88, 0
2, 21280, Note_on_c, 0, 83, 70
2, 21319, Note_on_c, 0, 83, 0
2, 21320, Note_on_c, 0, 92, 98
2, 21359, Note_on_c, 0, 92, 0
2, 21360, Note_on_c, 0, 80, 70
2, 21399, Note_on_c, 0, 80, 0
2, 21400, Note_on_c, 0, 76, 70
2, 21439, Note_on_c, 0, 76, 0
2, 21440, Note_on_c, 0, 88, 88
2, 21479, Note_on_c, 0, 88, 0
2, 21480, Note_on_c, 0, 83, 78
2, 21480, Note_on_c, 0, 95, 78
2, 21519, Note_on_c, 0, 95, 0
2, 21519, Note_on_c, 0, 83, 0
2, 21520, Note_on_c, 0, 94, 78
2, 21559, Note_on_c, 0, 94, 0
2, 21560, Note_on_c, 0, 93, 78
2, 21599, Note_on_c, 0, 93, 0
2, 21600, Note_on_c, 0, 93, 78
2, 21600, Note_on_c, 0, 81, 78
2, 21639, Note_on_c, 0, 81, 0
2, 21639, Note_on_c, 0, 93, 0
2, 21640, Note_on_c, 0, 92, 88
2, 21679, Note_on_c, 0, 92, 0
2, 21680, Note_on_c, 0, 90, 88
2, 21719, Note_on_c, 0, 90, 0
2, 21720, Note_on_c, 0, 90, 98
2, 21720, Note_on_c, 0, 78, 98
2, 21759, Note_on_c, 0, 78, 0
2, 21759, Note_on_c, 0, 90, 0
2, 21760, Note_on_c, 0, 88, 78
2, 21799, Note_on_c, 0, 88, 0
2, 21800, Note_on_c, 0, 87, 98
2, 21839, Note_on_c, 0, 87, 0
2, 21840, Note_on_c, 0, 75, 88
2, 21840, Note_on_c, 0, 87, 98
2, 21879, Note_on_c, 0, 87, 0
2, 21879, Note_on_c, 0, 75, 0
2, 21880, Note_on_c, 0, 86, 62
2, 21919, Note_on_c, 0, 86, 0
2, 21920, Note_on_c, 0, 85, 88
2, 21959, Note_on_c, 0, 85, 0
2, 21960, Note_on_c, 0, 85, 88
2, 21999, Note_on_c, 0, 85, 0
2, 22000, Note_on_c, 0, 84, 70
2, 22039, Note_on_c, 0, 84, 0
2, 22040, Note_on_c, 0, 90, 88
2, 22079, Note_on_c, 0, 90, 0
2, 22080, Note_on_c, 0, 93, 88
2, 22119, Note_on_c, 0, 93, 0
2, 22120, Note_on_c, 0, 84, 70
2, 22159, Note_on_c, 0, 84, 0
2, 22160, Note_on_c, 0, 83, 78
2, 22199, Note_on_c, 0, 83, 0
2, 22200, Note_on_c, 0, 87, 78
2, 22239, Note_on_c, 0, 87, 0
2, 22240, Note_on_c, 0, 85, 78
2, 22279, Note_on_c, 0, 85, 0
2, 22280, Note_on_c, 0, 81, 62
2, 22319, Note_on_c, 0, 81, 0
2, 22320, Note_on_c, 0, 85, 110
2, 22359, Note_on_c, 0, 85, 0
2, 22360, Note_on_c, 0, 85, 49
2, 22399, Note_on_c, 0, 85, 0
2, 22400, Note_on_c, 0, 85, 39
2, 22439, Note_on_c, 0, 85, 0
2, 22440, Note_on_c, 0, 85, 55
2, 22479, Note_on_c, 0, 85, 0
2, 22480, Note_on_c, 0, 85, 44
2, 22519, Note_on_c, 0, 85, 0
2, 22520, Note_on_c, 0, 85, 35
2, 22559, Note_on_c, 0, 85, 0
2, 22560, Note_on_c, 0, 85, 39
2, 22599, Note_on_c, 0, 85, 0
2, 22600, Note_on_c, 0, 85, 55
2, 22639, Note_on_c, 0, 85, 0
2, 22640, Note_on_c, 0, 85, 55
2, 22679, Note_on_c, 0, 85, 0
2, 22680, Note_on_c, 0, 85, 49
2, 22719, Note_on_c, 0, 85, 0
2, 22720, Note_on_c, 0, 85, 55
2, 22759, Note_on_c, 0, 85, 0
2, 22760, Note_on_c, 0, 85, 55
2, 22799, Note_on_c, 0, 85, 0
2, 22800, Note_on_c, 0, 88, 110
2, 22839, Note_on_c, 0, 88, 0
2, 22840, Note_on_c, 0, 85, 62
2, 22879, Note_on_c, 0, 85, 0
2, 22880, Note_on_c, 0, 81, 62
2, 22919, Note_on_c, 0, 81, 0
2, 22920, Note_on_c, 0, 73, 70
2, 22959, Note_on_c, 0, 73, 0
2, 22960, Note_on_c, 0, 73, 55
2, 22999, Note_on_c, 0, 73, 0
2, 23000, Note_on_c, 0, 73, 62
2, 23039, Note_on_c, 0, 73, 0
2, 23040, Note_on_c, 0, 73, 55
2, 23079, Note_on_c, 0, 73, 0
2, 23080, Note_on_c, 0, 73, 62
2, 23119, Note_on_c, 0, 73, 0
2, 23120, Note_on_c, 0, 73, 62
2, 23159, Note_on_c, 0, 73, 0
2, 23160, Note_on_c, 0, 72, 62
2, 23160, Note_on_c, 0, 60, 70
2, 23199, Note_on_c, 0, 60, 0
2, 23199, Note_on_c, 0, 72, 0
2, 23200, Note_on_c, 0, 77, 70
2, 23239, Note_on_c, 0, 77, 0
2, 23240, Note_on_c, 0, 81, 70
2, 23279, Note_on_c, 0, 81, 0
2, 23280, Note_on_c, 0, 78, 124
2, 23280, Note_on_c, 0, 90, 110
2, 23280, Note_on_c, 0, 86, 110
2, 23280, Note_on_c, 0, 93, 110
2, 23639, Note_on_c, 0, 93, 0
2, 23639, Note_on_c, 0, 78, 0
2, 23639, Note_on_c, 0, 90, 0
2, 23639, Note_on_c, 0, 86, 0
2, 23640, Note_on_c, 0, 65, 88
2, 23640, Note_on_c, 0, 77, 88
2, 23640, Note_on_c, 0, 72, 78
2, 23640, Note_on_c, 0, 81, 70
2, 23759, Note_on_c, 0, 81, 0
2, 23759, Note_on_c, 0, 65, 0
2, 23759, Note_on_c, 0, 77, 0
2, 23759, Note_on_c, 0, 72, 0
2, 23760, Note_on_c, 0, 78, 88
2, 23760, Note_on_c, 0, 90, 98
2, 23760, Note_on_c, 0, 93, 98
2, 23760, Note_on_c, 0, 86, 78
2, 23879, Note_on_c, 0, 86, 0
2, 23879, Note_on_c, 0, 78, 0
2, 23879, Note_on_c, 0, 90, 0
2, 23879, Note_on_c, 0, 93, 0
2, 23880, Note_on_c, 0, 65, 98
2, 23880, Note_on_c, 0, 77, 88
2, 23880, Note_on_c, 0, 72, 88
2, 23880, Note_on_c, 0, 81, 70
2, 23999, Note_on_c, 0, 81, 0
2, 23999, Note_on_c, 0, 65, 0
2, 23999, Note_on_c, 0, 77, 0
2, 23999, Note_on_c, 0, 72, 0
2, 24000, Note_on_c, 0, 78, 88
2, 24000, Note_on_c, 0, 90, 110
2, 24000, Note_on_c, 0, 86, 78
2, 24000, Note_on_c, 0, 93, 88
2, 24119, Note_on_c, 0, 93, 0
2, 24119, Note_on_c, 0, 78, 0
2, 24119, Note_on_c, 0, 90, 0
2, 24119, Note_on_c, 0, 86, 0
2, 24240, Note_on_c, 0, 93, 88
2, 24240, Note_on_c, 0, 81, 78
2, 24279, Note_on_c, 0, 81, 0
2, 24279, Note_on_c, 0, 93, 0
2, 24280, Note_on_c, 0, 81, 70
2, 24319, Note_on_c, 0, 81, 0
2, 24320, Note_on_c, 0, 85, 88
2, 24359, Note_on_c, 0, 85, 0
2, 24360, Note_on_c, 0, 97, 98
2, 24399, Note_on_c, 0, 97, 0
2, 24400, Note_on_c, 0, 90, 98
2, 24439, Note_on_c, 0, 90, 0
2, 24440, Note_on_c, 0, 81, 78
2, 24479, Note_on_c, 0, 81, 0
2, 24480, Note_on_c, 0, 88, 78
2, 24519, Note_on_c, 0, 88, 0
2, 24520, Note_on_c, 0, 85, 98
2, 24559, Note_on_c, 0, 85, 0
2, 24560, Note_on_c, 0, 76, 78
2, 24599, Note_on_c, 0, 76, 0
2, 24603, Note_on_c, 0, 85, 98
2, 24640, Note_on_c, 0, 81, 78
2, 24642, Note_on_c, 0, 85, 0
2, 24678, Note_on_c, 0, 73, 78
2, 24679, Note_on_c, 0, 81, 0
2, 24717, Note_on_c, 0, 73, 0
2, 24720, Note_on_c, 0, 81, 70
2, 24759, Note_on_c, 0, 81, 0
2, 24760, Note_on_c, 0, 69, 78
2, 24799, Note_on_c, 0, 69, 0
2, 24800, Note_on_c, 0, 78, 88
2, 24839, Note_on_c, 0, 78, 0
2, 24840, Note_on_c, 0, 76, 78
2, 24879, Note_on_c, 0, 76, 0
2, 24880, Note_on_c, 0, 73, 88
2, 24919, Note_on_c, 0, 73, 0
2, 24920, Note_on_c, 0, 64, 70
2, 24959, Note_on_c, 0, 64, 0
2, 24960, Note_on_c, 0, 73, 88
2, 24999, Note_on_c, 0, 73, 0
2, 25000, Note_on_c, 0, 69, 70
2, 25039, Note_on_c, 0, 69, 0
2, 25040, Note_on_c, 0, 61, 88
2, 25079, Note_on_c, 0, 61, 0
2, 25079, Note_on_c, 0, 64, 98
2, 25080, Note_on_c, 0, 55, 110
2, 25080, Note_on_c, 0, 67, 98
2, 25199, Note_on_c, 0, 55, 0
2, 25678, Note_on_c, 0, 64, 0
2, 25679, Note_on_c, 0, 67, 0
2, 25681, Note_on_c, 0, 70, 62
2, 25693, Note_on_c, 0, 63, 39
2, 25695, Note_on_c, 0, 67, 44
2, 25782, Note_on_c, 0, 63, 0
2, 25784, Note_on_c, 0, 67, 0
2, 25805, Note_on_c, 0, 60, 49
2, 25806, Note_on_c, 0, 68, 70
2, 25808, Note_on_c, 0, 65, 70
2, 25889, Note_on_c, 0, 60, 0
2, 25895, Note_on_c, 0, 68, 0
2, 25897, Note_on_c, 0, 65, 0
2, 25916, Note_on_c, 0, 59, 55
2, 25918, Note_on_c, 0, 65, 62
2, 25918, Note_on_c, 0, 67, 55
2, 25937, Note_on_c, 0, 70, 0
2, 25937, Note_on_c, 0, 72, 55
2, 26002, Note_on_c, 0, 65, 0
2, 26011, Note_on_c, 0, 67, 0
2, 26013, Note_on_c, 0, 59, 0
2, 26037, Note_on_c, 0, 64, 49
2, 26038, Note_on_c, 0, 60, 39
2, 26038, Note_on_c, 0, 67, 39
2, 26114, Note_on_c, 0, 60, 0
2, 26120, Note_on_c, 0, 64, 0
2, 26123, Note_on_c, 0, 67, 0
2, 26152, Note_on_c, 0, 63, 49
2, 26156, Note_on_c, 0, 67, 39
2, 26157, Note_on_c, 0, 70, 62
2, 26252, Note_on_c, 0, 67, 0
2, 26253, Note_on_c, 0, 70, 0
2, 26253, Note_on_c, 0, 63, 0
2, 26271, Note_on_c, 0, 68, 78
2, 26273, Note_on_c, 0, 60, 39
2, 26276, Note_on_c, 0, 65, 55
2, 26368, Note_on_c, 0, 60, 0
2, 26373, Note_on_c, 0, 68, 0
2, 26391, Note_on_c, 0, 59, 44
2, 26392, Note_on_c, 0, 67, 49
2, 26488, Note_on_c, 0, 65, 0
2, 26490, Note_on_c, 0, 59, 0
2, 26493, Note_on_c, 0, 67, 0
2, 26516, Note_on_c, 0, 60, 44
2, 26518, Note_on_c, 0, 64, 55
2, 26518, Note_on_c, 0, 67, 39
2, 26603, Note_on_c, 0, 60, 0
2, 26607, Note_on_c, 0, 67, 0
2, 26613, Note_on_c, 0, 64, 0
2, 26642, Note_on_c, 0, 63, 44
2, 26642, Note_on_c, 0, 67, 44
2, 26643, Note_on_c, 0, 70, 62
2, 26651, Note_on_c, 0, 72, 0
2, 26737, Note_on_c, 0, 63, 0
2, 26741, Note_on_c, 0, 67, 0
2, 26761, Note_on_c, 0, 60, 49
2, 26762, Note_on_c, 0, 68, 62
2, 26765, Note_on_c, 0, 65, 62
2, 26851, Note_on_c, 0, 60, 0
2, 26854, Note_on_c, 0, 68, 0
2, 26862, Note_on_c, 0, 65, 0
2, 26878, Note_on_c, 0, 65, 55
2, 26878, Note_on_c, 0, 67, 55
2, 26879, Note_on_c, 0, 59, 49
2, 26891, Note_on_c, 0, 70, 0
2, 26891, Note_on_c, 0, 72, 62
2, 26976, Note_on_c, 0, 65, 0
2, 26980, Note_on_c, 0, 59, 0
2, 26980, Note_on_c, 0, 67, 0
2, 27000, Note_on_c, 0, 64, 55
2, 27001, Note_on_c, 0, 67, 44
2, 27001, Note_on_c, 0, 60, 49
2, 27077, Note_on_c, 0, 60, 0
2, 27089, Note_on_c, 0, 67, 0
2, 27091, Note_on_c, 0, 64, 0
2, 27116, Note_on_c, 0, 70, 62
2, 27116, Note_on_c, 0, 62, 55
2, 27209, Note_on_c, 0, 62, 0
2, 27229, Note_on_c, 0, 70, 0
2, 27234, Note_on_c, 0, 68, 70
2, 27236, Note_on_c, 0, 60, 44
2, 27333, Note_on_c, 0, 60, 0
2, 27345, Note_on_c, 0, 68, 0
2, 27357, Note_on_c, 0, 67, 55
2, 27357, Note_on_c, 0, 59, 49
2, 27452, Note_on_c, 0, 59, 0
2, 27461, Note_on_c, 0, 67, 0
2, 27481, Note_on_c, 0, 69, 55
2, 27481, Note_on_c, 0, 60, 39
2, 27562, Note_on_c, 0, 60, 0
2, 27568, Note_on_c, 0, 69, 0
2, 27599, Note_on_c, 0, 63, 55
2, 27599, Note_on_c, 0, 70, 62
2, 27601, Note_on_c, 0, 67, 49
2, 27607, Note_on_c, 0, 72, 0
2, 27689, Note_on_c, 0, 63, 0
2, 27700, Note_on_c, 0, 67, 0
2, 27721, Note_on_c, 0, 68, 70
2, 27722, Note_on_c, 0, 60, 39
2, 27725, Note_on_c, 0, 65, 55
2, 27808, Note_on_c, 0, 60, 0
2, 27815, Note_on_c, 0, 68, 0
2, 27817, Note_on_c, 0, 65, 0
2, 27839, Note_on_c, 0, 65, 55
2, 27840, Note_on_c, 0, 59, 44
2, 27840, Note_on_c, 0, 67, 55
2, 27849, Note_on_c, 0, 70, 0
2, 27851, Note_on_c, 0, 72, 62
2, 27929, Note_on_c, 0, 65, 0
2, 27930, Note_on_c, 0, 59, 0
2, 27933, Note_on_c, 0, 67, 0
2, 27958, Note_on_c, 0, 60, 39
2, 27960, Note_on_c, 0, 64, 49
2, 27960, Note_on_c, 0, 67, 39
2, 28018, Note_on_c, 0, 60, 0
2, 28021, Note_on_c, 0, 64, 0
2, 28024, Note_on_c, 0, 67, 0
2, 28080, Note_on_c, 0, 74, 62
2, 28080, Note_on_c, 0, 82, 78
2, 28080, Note_on_c, 0, 75, 78
2, 28080, Note_on_c, 0, 79, 62
2, 28087, Note_on_c, 0, 72, 0
2, 28199, Note_on_c, 0, 75, 0
2, 28199, Note_on_c, 0, 74, 0
2, 28199, Note_on_c, 0, 82, 0
2, 28199, Note_on_c, 0, 79, 0
2, 28200, Note_on_c, 0, 66, 88
2, 28200, Note_on_c, 0, 72, 55
2, 28200, Note_on_c, 0, 81, 62
2, 28200, Note_on_c, 0, 77, 55
2, 28319, Note_on_c, 0, 77, 0
2, 28319, Note_on_c, 0, 66, 0
2, 28319, Note_on_c, 0, 72, 0
2, 28319, Note_on_c, 0, 81, 0
2, 28320, Note_on_c, 0, 70, 70
2, 28320, Note_on_c, 0, 79, 70
2, 28320, Note_on_c, 0, 84, 62
2, 28320, Note_on_c, 0, 77, 62
2, 28439, Note_on_c, 0, 77, 0
2, 28439, Note_on_c, 0, 70, 0
2, 28439, Note_on_c, 0, 79, 0
2, 28439, Note_on_c, 0, 84, 0
2, 28440, Note_on_c, 0, 67, 62
2, 28440, Note_on_c, 0, 72, 49
2, 28440, Note_on_c, 0, 81, 55
2, 28440, Note_on_c, 0, 77, 62
2, 28559, Note_on_c, 0, 77, 0
2, 28559, Note_on_c, 0, 67, 0
2, 28559, Note_on_c, 0, 72, 0
2, 28559, Note_on_c, 0, 81, 0
2, 28560, Note_on_c, 0, 74, 62
2, 28560, Note_on_c, 0, 75, 70
2, 28560, Note_on_c, 0, 82, 62
2, 28560, Note_on_c, 0, 79, 55
2, 28679, Note_on_c, 0, 79, 0
2, 28679, Note_on_c, 0, 74, 0
2, 28679, Note_on_c, 0, 75, 0
2, 28679, Note_on_c, 0, 82, 0
2, 28680, Note_on_c, 0, 66, 88
2, 28680, Note_on_c, 0, 72, 62
2, 28680, Note_on_c, 0, 81, 62
2, 28680, Note_on_c, 0, 77, 62
2, 28799, Note_on_c, 0, 77, 0
2, 28799, Note_on_c, 0, 66, 0
2, 28799, Note_on_c, 0, 72, 0
2, 28799, Note_on_c, 0, 81, 0
2, 28800, Note_on_c, 0, 70, 70
2, 28800, Note_on_c, 0, 79, 62
2, 28800, Note_on_c, 0, 84, 62
2, 28800, Note_on_c, 0, 77, 55
2, 28919, Note_on_c, 0, 77, 0
2, 28919, Note_on_c, 0, 70, 0
2, 28919, Note_on_c, 0, 79, 0
2, 28919, Note_on_c, 0, 84, 0
2, 28920, Note_on_c, 0, 67, 62
2, 28920, Note_on_c, 0, 81, 55
2, 28920, Note_on_c, 0, 72, 49
2, 28920, Note_on_c, 0, 77, 55
2, 29039, Note_on_c, 0, 77, 0
2, 29039, Note_on_c, 0, 67, 0
2, 29039, Note_on_c, 0, 81, 0
2, 29039, Note_on_c, 0, 72, 0
2, 29040, Note_on_c, 0, 67, 70
2, 29040, Note_on_c, 0, 62, 55
2, 29046, Note_on_c, 0, 70, 62
2, 29159, Note_on_c, 0, 62, 0
2, 29159, Note_on_c, 0, 67, 0
2, 29160, Note_on_c, 0, 68, 70
2, 29160, Note_on_c, 0, 60, 49
2, 29160, Note_on_c, 0, 65, 70
2, 29279, Note_on_c, 0, 65, 0
2, 29279, Note_on_c, 0, 60, 0
2, 29279, Note_on_c, 0, 68, 0
2, 29280, Note_on_c, 0, 59, 62
2, 29280, Note_on_c, 0, 65, 78
2, 29280, Note_on_c, 0, 67, 62
2, 29289, Note_on_c, 0, 70, 0
2, 29289, Note_on_c, 0, 72, 55
2, 29399, Note_on_c, 0, 59, 0
2, 29399, Note_on_c, 0, 67, 0
2, 29399, Note_on_c, 0, 65, 0
2, 29400, Note_on_c, 0, 64, 70
2, 29400, Note_on_c, 0, 60, 55
2, 29400, Note_on_c, 0, 67, 62
2, 29519, Note_on_c, 0, 67, 0
2, 29519, Note_on_c, 0, 60, 0
2, 29519, Note_on_c, 0, 64, 0
2, 29520, Note_on_c, 0, 62, 62
2, 29520, Note_on_c, 0, 70, 70
2, 29532, Note_on_c, 0, 70, 88
2, 29532, Note_on_c, 0, 74, 70
2, 29546, Note_on_c, 0, 72, 0
2, 29639, Note_on_c, 0, 62, 0
2, 29639, Note_on_c, 0, 70, 0
2, 29640, Note_on_c, 0, 68, 70
2, 29640, Note_on_c, 0, 60, 62
2, 29759, Note_on_c, 0, 60, 0
2, 29759, Note_on_c, 0, 68, 0
2, 29760, Note_on_c, 0, 70, 0
2, 29760, Note_on_c, 0, 67, 70
2, 29760, Note_on_c, 0, 59, 62
2, 29879, Note_on_c, 0, 59, 0
2, 29879, Note_on_c, 0, 67, 0
2, 29880, Note_on_c, 0, 68, 78
2, 29880, Note_on_c, 0, 60, 62
2, 29999, Note_on_c, 0, 60, 0
2, 29999, Note_on_c, 0, 68, 0
2, 30000, Note_on_c, 0, 70, 78
2, 30000, Note_on_c, 0, 62, 70
2, 30119, Note_on_c, 0, 62, 0
2, 30119, Note_on_c, 0, 70, 0
2, 30120, Note_on_c, 0, 68, 78
2, 30120, Note_on_c, 0, 60, 62
2, 30239, Note_on_c, 0, 60, 0
2, 30239, Note_on_c, 0, 68, 0
2, 30239, Note_on_c, 0, 76, 62
2, 30240, Note_on_c, 0, 59, 62
2, 30240, Note_on_c, 0, 67, 55
2, 30247, Note_on_c, 0, 74, 0
2, 30359, Note_on_c, 0, 67, 0
2, 30359, Note_on_c, 0, 59, 0
2, 30360, Note_on_c, 0, 60, 70
2, 30360, Note_on_c, 0, 69, 70
2, 30479, Note_on_c, 0, 69, 0
2, 30479, Note_on_c, 0, 60, 0
2, 30480, Note_on_c, 0, 59, 62
2, 30490, Note_on_c, 0, 71, 78
2, 30599, Note_on_c, 0, 59, 0
2, 30600, Note_on_c, 0, 60, 55
2, 30689, Note_on_c, 0, 71, 0
2, 30695, Note_on_c, 0, 76, 0
2, 30719, Note_on_c, 0, 60, 0
2, 30720, Note_on_c, 0, 62, 62
2, 30724, Note_on_c, 0, 76, 78
2, 30724, Note_on_c, 0, 71, 88
2, 30724, Note_on_c, 0, 74, 88
2, 30839, Note_on_c, 0, 62, 0
2, 30840, Note_on_c, 0, 59, 62
2, 30959, Note_on_c, 0, 59, 0
2, 30960, Note_on_c, 0, 60, 49
2, 31068, Note_on_c, 0, 74, 0
2, 31070, Note_on_c, 0, 71, 0
2, 31071, Note_on_c, 0, 76, 0
2, 31079, Note_on_c, 0, 60, 0
2, 31080, Note_on_c, 0, 62, 124
2, 31080, Note_on_c, 0, 74, 110
2, 31080, Note_on_c, 0, 76, 110
2, 31080, Note_on_c, 0, 71, 110
2, 31139, Note_on_c, 0, 62, 0
2, 31319, Note_on_c, 0, 74, 0
2, 31319, Note_on_c, 0, 76, 0
2, 31319, Note_on_c, 0, 71, 0
2, 31320, Note_on_c, 0, 71, 110
2, 31320, Note_on_c, 0, 74, 110
2, 31320, Note_on_c, 0, 76, 110
2, 31320, Note_on_c, 0, 64, 110
2, 31379, Note_on_c, 0, 64, 0
2, 31439, Note_on_c, 0, 71, 0
2, 31439, Note_on_c, 0, 74, 0
2, 31439, Note_on_c, 0, 76, 0
2, 31500, Note_on_c, 0, 61, 98
2, 31500, Note_on_c, 0, 52, 98
2, 31500, Note_on_c, 0, 64, 98
2, 31559, Note_on_c, 0, 64, 0
2, 31559, Note_on_c, 0, 52, 0
2, 31559, Note_on_c, 0, 61, 0
2, 31560, Note_on_c, 0, 52, 88
2, 31560, Note_on_c, 0, 61, 98
2, 31560, Note_on_c, 0, 64, 98
2, 31560, Control_c, 0, 10, 54
2, 31619, Note_on_c, 0, 64, 0
2, 31619, Note_on_c, 0, 61, 0
2, 31619, Note_on_c, 0, 52, 0
2, 31620, Note_on_c, 0, 52, 88
2, 31620, Note_on_c, 0, 61, 110
2, 31620, Note_on_c, 0, 64, 88
2, 31679, Note_on_c, 0, 64, 0
2, 31679, Note_on_c, 0, 61, 0
2, 31679, Note_on_c, 0, 52, 0
2, 31680, Note_on_c, 0, 64, 88
2, 31680, Note_on_c, 0, 60, 88
2, 31680, Note_on_c, 0, 52, 98
2, 31739, Note_on_c, 0, 52, 0
2, 31739, Note_on_c, 0, 60, 0
2, 31739, Note_on_c, 0, 64, 0
2, 31740, Note_on_c, 0, 52, 98
2, 31740, Note_on_c, 0, 60, 88
2, 31740, Note_on_c, 0, 64, 88
2, 31799, Note_on_c, 0, 64, 0
2, 31799, Note_on_c, 0, 60, 0
2, 31799, Note_on_c, 0, 52, 0
2, 31800, Note_on_c, 0, 52, 98
2, 31800, Note_on_c, 0, 60, 88
2, 31800, Note_on_c, 0, 64, 98
2, 31859, Note_on_c, 0, 64, 0
2, 31859, Note_on_c, 0, 60, 0
2, 31859, Note_on_c, 0, 52, 0
2, 32040, Note_on_c, 0, 52, 88
2, 32040, Note_on_c, 0, 60, 88
2, 32040, Note_on_c, 0, 64, 88
2, 32099, Note_on_c, 0, 64, 0
2, 32099, Note_on_c, 0, 60, 0
2, 32099, Note_on_c, 0, 52, 0
2, 32280, Note_on_c, 0, 52, 88
2, 32280, Note_on_c, 0, 64, 88
2, 32280, Note_on_c, 0, 55, 88
2, 32339, Note_on_c, 0, 55, 0
2, 32339, Note_on_c, 0, 64, 0
2, 32339, Note_on_c, 0, 52, 0
2, 32400, Note_on_c, 0, 61, 98
2, 32400, Note_on_c, 0, 64, 78
2, 32400, Note_on_c, 0, 52, 70
2, 32459, Note_on_c, 0, 52, 0
2, 32459, Note_on_c, 0, 64, 0
2, 32459, Note_on_c, 0, 61, 0
2, 32460, Note_on_c, 0, 61, 98
2, 32460, Note_on_c, 0, 52, 88
2, 32460, Note_on_c, 0, 64, 78
2, 32519, Note_on_c, 0, 64, 0
2, 32519, Note_on_c, 0, 52, 0
2, 32519, Note_on_c, 0, 61, 0
2, 32520, Note_on_c, 0, 52, 88
2, 32520, Note_on_c, 0, 61, 98
2, 32520, Note_on_c, 0, 64, 88
2, 32579, Note_on_c, 0, 64, 0
2, 32579, Note_on_c, 0, 61, 0
2, 32579, Note_on_c, 0, 52, 0
2, 32580, Control_c, 0, 10, 55
2, 32760, Note_on_c, 0, 52, 88
2, 32760, Note_on_c, 0, 60, 98
2, 32760, Note_on_c, 0, 64, 98
2, 32819, Note_on_c, 0, 64, 0
2, 32819, Note_on_c, 0, 60, 0
2, 32819, Note_on_c, 0, 52, 0
2, 33000, Note_on_c, 0, 52, 88
2, 33000, Note_on_c, 0, 64, 88
2, 33000, Note_on_c, 0, 55, 88
2, 33059, Note_on_c, 0, 55, 0
2, 33059, Note_on_c, 0, 64, 0
2, 33059, Note_on_c, 0, 52, 0
2, 33180, Note_on_c, 0, 61, 98
2, 33180, Note_on_c, 0, 52, 78
2, 33180, Note_on_c, 0, 64, 88
2, 33239, Note_on_c, 0, 64, 0
2, 33239, Note_on_c, 0, 52, 0
2, 33239, Note_on_c, 0, 61, 0
2, 33240, Note_on_c, 0, 61, 98
2, 33240, Note_on_c, 0, 64, 88
2, 33240, Note_on_c, 0, 52, 88
2, 33299, Note_on_c, 0, 52, 0
2, 33299, Note_on_c, 0, 64, 0
2, 33299, Note_on_c, 0, 61, 0
2, 33300, Note_on_c, 0, 61, 98
2, 33300, Note_on_c, 0, 52, 88
2, 33300, Note_on_c, 0, 64, 88
2, 33359, Note_on_c, 0, 64, 0
2, 33359, Note_on_c, 0, 52, 0
2, 33359, Note_on_c, 0, 61, 0
2, 33360, Note_on_c, 0, 52, 78
2, 33360, Note_on_c, 0, 60, 78
2, 33360, Note_on_c, 0, 64, 88
2, 33419, Note_on_c, 0, 64, 0
2, 33419, Note_on_c, 0, 60, 0
2, 33419, Note_on_c, 0, 52, 0
2, 33420, Note_on_c, 0, 60, 70
2, 33420, Note_on_c, 0, 52, 78
2, 33420, Note_on_c, 0, 64, 88
2, 33479, Note_on_c, 0, 64, 0
2, 33479, Note_on_c, 0, 52, 0
2, 33479, Note_on_c, 0, 60, 0
2, 33480, Note_on_c, 0, 52, 98
2, 33480, Note_on_c, 0, 64, 98
2, 33480, Note_on_c, 0, 60, 88
2, 33539, Note_on_c, 0, 60, 0
2, 33539, Note_on_c, 0, 64, 0
2, 33539, Note_on_c, 0, 52, 0
2, 33660, Note_on_c, 0, 40, 78
2, 33719, Note_on_c, 0, 40, 0
2, 33720, Note_on_c, 0, 43, 88
2, 33779, Note_on_c, 0, 43, 0
2, 33780, Note_on_c, 0, 52, 88
2, 33839, Note_on_c, 0, 52, 0
2, 33960, Note_on_c, 0, 64, 98
2, 33960, Note_on_c, 0, 52, 88
2, 33960, Note_on_c, 0, 55, 88
2, 34019, Note_on_c, 0, 55, 0
2, 34019, Note_on_c, 0, 52, 0
2, 34019, Note_on_c, 0, 64, 0
2, 34080, Note_on_c, 0, 61, 98
2, 34080, Note_on_c, 0, 52, 88
2, 34080, Note_on_c, 0, 64, 88
2, 34139, Note_on_c, 0, 64, 0
2, 34139, Note_on_c, 0, 52, 0
2, 34139, Note_on_c, 0, 61, 0
2, 34200, Note_on_c, 0, 61, 110
2, 34200, Note_on_c, 0, 52, 88
2, 34200, Note_on_c, 0, 64, 88
2, 34259, Note_on_c, 0, 64, 0
2, 34259, Note_on_c, 0, 52, 0
2, 34259, Note_on_c, 0, 61, 0
2, 34440, Note_on_c, 0, 52, 78
2, 34440, Note_on_c, 0, 60, 88
2, 34440, Note_on_c, 0, 64, 88
2, 34499, Note_on_c, 0, 64, 0
2, 34499, Note_on_c, 0, 60, 0
2, 34559, Note_on_c, 0, 52, 0
2, 34560, Note_on_c, 0, 55, 78
2, 34619, Note_on_c, 0, 55, 0
2, 34620, Note_on_c, 0, 43, 78
2, 34679, Note_on_c, 0, 43, 0
2, 34680, Note_on_c, 0, 64, 88
2, 34680, Note_on_c, 0, 52, 70
2, 34680, Note_on_c, 0, 55, 78
2, 34739, Note_on_c, 0, 55, 0
2, 34739, Note_on_c, 0, 52, 0
2, 34739, Note_on_c, 0, 64, 0
2, 34740, Note_on_c, 0, 55, 62
2, 34740, Control_c, 0, 10, 54
2, 34799, Note_on_c, 0, 55, 0
2, 34800, Note_on_c, 0, 64, 78
2, 34859, Note_on_c, 0, 64, 0
2, 34860, Note_on_c, 0, 52, 70
2, 34919, Note_on_c, 0, 52, 0
2, 34920, Note_on_c, 0, 55, 78
2, 34979, Note_on_c, 0, 55, 0
2, 34980, Note_on_c, 0, 65, 88
2, 35039, Note_on_c, 0, 65, 0
2, 35040, Note_on_c, 0, 66, 98
2, 35040, Note_on_c, 0, 72, 78
2, 35040, Note_on_c, 0, 76, 78
2, 35099, Note_on_c, 0, 76, 0
2, 35099, Note_on_c, 0, 72, 0
2, 35099, Note_on_c, 0, 66, 0
2, 35100, Note_on_c, 0, 67, 78
2, 35100, Note_on_c, 0, 72, 70
2, 35100, Note_on_c, 0, 76, 70
2, 35159, Note_on_c, 0, 76, 0
2, 35159, Note_on_c, 0, 72, 0
2, 35159, Note_on_c, 0, 67, 0
2, 35160, Note_on_c, 0, 76, 78
2, 35160, Note_on_c, 0, 68, 78
2, 35160, Note_on_c, 0, 72, 70
2, 35219, Note_on_c, 0, 72, 0
2, 35219, Note_on_c, 0, 68, 0
2, 35219, Note_on_c, 0, 76, 0
2, 35220, Note_on_c, 0, 69, 88
2, 35220, Note_on_c, 0, 76, 78
2, 35220, Note_on_c, 0, 72, 78
2, 35279, Note_on_c, 0, 72, 0
2, 35279, Note_on_c, 0, 76, 0
2, 35279, Note_on_c, 0, 69, 0
2, 35280, Note_on_c, 0, 70, 110
2, 35280, Note_on_c, 0, 76, 78
2, 35280, Note_on_c, 0, 72, 88
2, 35519, Note_on_c, 0, 72, 0
2, 35519, Note_on_c, 0, 76, 0
2, 35519, Note_on_c, 0, 70, 0
2, 35520, Control_c, 0, 10, 55
2, 35580, Note_on_c, 0, 76, 78
2, 35580, Note_on_c, 0, 72, 78
2, 35639, Note_on_c, 0, 72, 0
2, 35639, Note_on_c, 0, 76, 0
2, 35640, Note_on_c, 0, 73, 98
2, 35640, Note_on_c, 0, 76, 78
2, 35699, Note_on_c, 0, 76, 0
2, 35699, Note_on_c, 0, 73, 0
2, 35700, Note_on_c, 0, 74, 88
2, 35700, Control_c, 0, 10, 54
2, 35700, Note_on_c, 0, 76, 78
2, 35759, Note_on_c, 0, 76, 0
2, 35759, Note_on_c, 0, 74, 0
2, 35760, Note_on_c, 0, 75, 98
2, 35760, Note_on_c, 0, 76, 88
2, 35760, Note_on_c, 0, 79, 70
2, 35999, Note_on_c, 0, 79, 0
2, 35999, Note_on_c, 0, 76, 0
2, 35999, Note_on_c, 0, 75, 0
2, 36060, Control_c, 0, 10, 55
2, 36060, Note_on_c, 0, 76, 78
2, 36060, Note_on_c, 0, 69, 88
2, 36060, Note_on_c, 0, 79, 70
2, 36119, Note_on_c, 0, 79, 0
2, 36119, Note_on_c, 0, 69, 0
2, 36119, Note_on_c, 0, 76, 0
2, 36120, Note_on_c, 0, 70, 78
2, 36120, Note_on_c, 0, 76, 70
2, 36120, Note_on_c, 0, 79, 62
2, 36179, Note_on_c, 0, 79, 0
2, 36179, Note_on_c, 0, 76, 0
2, 36179, Note_on_c, 0, 70, 0
2, 36180, Note_on_c, 0, 76, 88
2, 36180, Note_on_c, 0, 79, 88
2, 36180, Note_on_c, 0, 71, 88
2, 36239, Note_on_c, 0, 71, 0
2, 36239, Note_on_c, 0, 79, 0
2, 36239, Note_on_c, 0, 76, 0
2, 36240, Note_on_c, 0, 72, 78
2, 36240, Note_on_c, 0, 76, 88
2, 36240, Note_on_c, 0, 79, 88
2, 36299, Note_on_c, 0, 79, 0
2, 36299, Note_on_c, 0, 76, 0
2, 36299, Note_on_c, 0, 72, 0
2, 36300, Note_on_c, 0, 73, 98
2, 36300, Note_on_c, 0, 76, 88
2, 36300, Note_on_c, 0, 79, 70
2, 36359, Note_on_c, 0, 79, 0
2, 36359, Note_on_c, 0, 76, 0
2, 36359, Note_on_c, 0, 73, 0
2, 36360, Note_on_c, 0, 74, 98
2, 36360, Note_on_c, 0, 79, 88
2, 36360, Note_on_c, 0, 76, 98
2, 36419, Note_on_c, 0, 76, 0
2, 36419, Note_on_c, 0, 79, 0
2, 36419, Note_on_c, 0, 74, 0
2, 36420, Note_on_c, 0, 75, 110
2, 36420, Note_on_c, 0, 76, 98
2, 36420, Note_on_c, 0, 79, 88
2, 36479, Note_on_c, 0, 79, 0
2, 36479, Note_on_c, 0, 76, 0
2, 36479, Note_on_c, 0, 75, 0
2, 36480, Note_on_c, 0, 76, 88
2, 36480, Note_on_c, 0, 67, 88
2, 36480, Note_on_c, 0, 79, 78
2, 36539, Note_on_c, 0, 79, 0
2, 36539, Note_on_c, 0, 67, 0
2, 36539, Note_on_c, 0, 76, 0
2, 36540, Note_on_c, 0, 66, 98
2, 36540, Note_on_c, 0, 74, 78
2, 36599, Note_on_c, 0, 74, 0
2, 36599, Note_on_c, 0, 66, 0
2, 36600, Note_on_c, 0, 73, 98
2, 36600, Note_on_c, 0, 65, 98
2, 36659, Note_on_c, 0, 65, 0
2, 36659, Note_on_c, 0, 73, 0
2, 36660, Note_on_c, 0, 64, 88
2, 36660, Note_on_c, 0, 72, 78
2, 36719, Note_on_c, 0, 72, 0
2, 36719, Note_on_c, 0, 64, 0
2, 36720, Note_on_c, 0, 62, 88
2, 36720, Note_on_c, 0, 71, 88
2, 36779, Note_on_c, 0, 71, 0
2, 36779, Note_on_c, 0, 62, 0
2, 36780, Note_on_c, 0, 74, 78
2, 36780, Note_on_c, 0, 65, 98
2, 36839, Note_on_c, 0, 65, 0
2, 36839, Note_on_c, 0, 74, 0
2, 36840, Note_on_c, 0, 72, 78
2, 36840, Note_on_c, 0, 64, 88
2, 36899, Note_on_c, 0, 64, 0
2, 36899, Note_on_c, 0, 72, 0
2, 36900, Note_on_c, 0, 69, 98
2, 36959, Note_on_c, 0, 69, 0
2, 36960, Note_on_c, 0, 79, 70
2, 36960, Note_on_c, 0, 88, 88
2, 37019, Note_on_c, 0, 88, 0
2, 37019, Note_on_c, 0, 79, 0
2, 37020, Note_on_c, 0, 78, 88
2, 37020, Note_on_c, 0, 86, 78
2, 37079, Note_on_c, 0, 86, 0
2, 37079, Note_on_c, 0, 78, 0
2, 37080, Note_on_c, 0, 85, 98
2, 37080, Note_on_c, 0, 77, 88
2, 37139, Note_on_c, 0, 77, 0
2, 37139, Note_on_c, 0, 85, 0
2, 37140, Note_on_c, 0, 76, 88
2, 37140, Note_on_c, 0, 84, 88
2, 37199, Note_on_c, 0, 84, 0
2, 37199, Note_on_c, 0, 76, 0
2, 37200, Note_on_c, 0, 83, 78
2, 37200, Note_on_c, 0, 74, 78
2, 37259, Note_on_c, 0, 74, 0
2, 37259, Note_on_c, 0, 83, 0
2, 37260, Note_on_c, 0, 78, 98
2, 37260, Note_on_c, 0, 86, 78
2, 37319, Note_on_c, 0, 86, 0
2, 37319, Note_on_c, 0, 78, 0
2, 37320, Note_on_c, 0, 85, 98
2, 37320, Note_on_c, 0, 76, 78
2, 37379, Note_on_c, 0, 76, 0
2, 37379, Note_on_c, 0, 85, 0
2, 37380, Note_on_c, 0, 73, 88
2, 37380, Note_on_c, 0, 81, 78
2, 37439, Note_on_c, 0, 81, 0
2, 37439, Note_on_c, 0, 73, 0
2, 37440, Note_on_c, 0, 79, 88
2, 37440, Note_on_c, 0, 71, 88
2, 37499, Note_on_c, 0, 71, 0
2, 37499, Note_on_c, 0, 79, 0
2, 37500, Note_on_c, 0, 78, 98
2, 37500, Note_on_c, 0, 69, 88
2, 37559, Note_on_c, 0, 69, 0
2, 37559, Note_on_c, 0, 78, 0
2, 37560, Note_on_c, 0, 68, 98
2, 37560, Note_on_c, 0, 77, 78
2, 37619, Note_on_c, 0, 77, 0
2, 37619, Note_on_c, 0, 68, 0
2, 37620, Note_on_c, 0, 67, 98
2, 37620, Note_on_c, 0, 76, 88
2, 37679, Note_on_c, 0, 76, 0
2, 37679, Note_on_c, 0, 67, 0
2, 37680, Note_on_c, 0, 66, 98
2, 37680, Note_on_c, 0, 79, 70
2, 37680, Note_on_c, 0, 74, 78
2, 37680, Note_on_c, 0, 72, 70
2, 37739, Note_on_c, 0, 72, 0
2, 37739, Note_on_c, 0, 66, 0
2, 37739, Note_on_c, 0, 79, 0
2, 37739, Note_on_c, 0, 74, 0
2, 37740, Note_on_c, 0, 67, 88
2, 37740, Note_on_c, 0, 76, 78
2, 37799, Note_on_c, 0, 76, 0
2, 37799, Note_on_c, 0, 67, 0
2, 37800, Note_on_c, 0, 69, 88
2, 37800, Note_on_c, 0, 77, 88
2, 37859, Note_on_c, 0, 77, 0
2, 37859, Note_on_c, 0, 69, 0
2, 37860, Note_on_c, 0, 70, 98
2, 37860, Note_on_c, 0, 78, 98
2, 37919, Note_on_c, 0, 78, 0
2, 37919, Note_on_c, 0, 70, 0
2, 37920, Note_on_c, 0, 71, 98
2, 37920, Note_on_c, 0, 84, 88
2, 37920, Note_on_c, 0, 77, 88
2, 37920, Note_on_c, 0, 79, 88
2, 38159, Note_on_c, 0, 79, 0
2, 38159, Note_on_c, 0, 71, 0
2, 38159, Note_on_c, 0, 84, 0
2, 38159, Note_on_c, 0, 77, 0
2, 38160, Note_on_c, 0, 65, 88
2, 38160, Note_on_c, 0, 79, 70
2, 38160, Note_on_c, 0, 72, 70
2, 38160, Note_on_c, 0, 74, 70
2, 38219, Note_on_c, 0, 74, 0
2, 38219, Note_on_c, 0, 65, 0
2, 38219, Note_on_c, 0, 79, 0
2, 38219, Note_on_c, 0, 72, 0
2, 38220, Note_on_c, 0, 67, 88
2, 38220, Note_on_c, 0, 76, 78
2, 38279, Note_on_c, 0, 76, 0
2, 38279, Note_on_c, 0, 67, 0
2, 38280, Note_on_c, 0, 78, 88
2, 38280, Note_on_c, 0, 69, 78
2, 38339, Note_on_c, 0, 69, 0
2, 38339, Note_on_c, 0, 78, 0
2, 38340, Note_on_c, 0, 79, 78
2, 38340, Note_on_c, 0, 71, 88
2, 38399, Note_on_c, 0, 71, 0
2, 38399, Note_on_c, 0, 79, 0
2, 38400, Note_on_c, 0, 72, 78
2, 38400, Note_on_c, 0, 79, 78
2, 38400, Note_on_c, 0, 81, 78
2, 38400, Note_on_c, 0, 84, 88
2, 38639, Note_on_c, 0, 84, 0
2, 38639, Note_on_c, 0, 72, 0
2, 38639, Note_on_c, 0, 79, 0
2, 38639, Note_on_c, 0, 81, 0
2, 38700, Note_on_c, 0, 63, 88
2, 38700, Note_on_c, 0, 74, 70
2, 38700, Note_on_c, 0, 71, 70
2, 38759, Note_on_c, 0, 71, 0
2, 38759, Note_on_c, 0, 74, 0
2, 38759, Note_on_c, 0, 63, 0
2, 38760, Note_on_c, 0, 64, 88
2, 38760, Note_on_c, 0, 74, 78
2, 38760, Note_on_c, 0, 72, 78
2, 38819, Note_on_c, 0, 72, 0
2, 38819, Note_on_c, 0, 74, 0
2, 38819, Note_on_c, 0, 64, 0
2, 38820, Note_on_c, 0, 73, 98
2, 38820, Note_on_c, 0, 65, 88
2, 38820, Note_on_c, 0, 74, 88
2, 38879, Note_on_c, 0, 74, 0
2, 38879, Note_on_c, 0, 65, 0
2, 38879, Note_on_c, 0, 73, 0
2, 38880, Note_on_c, 0, 66, 98
2, 38880, Note_on_c, 0, 74, 78
2, 38880, Note_on_c, 0, 69, 78
2, 38939, Note_on_c, 0, 69, 0
2, 38939, Note_on_c, 0, 74, 0
2, 38939, Note_on_c, 0, 66, 0
2, 38940, Note_on_c, 0, 75, 98
2, 38940, Note_on_c, 0, 67, 78
2, 38940, Note_on_c, 0, 69, 88
2, 38999, Note_on_c, 0, 69, 0
2, 38999, Note_on_c, 0, 67, 0
2, 38999, Note_on_c, 0, 75, 0
2, 39000, Note_on_c, 0, 76, 88
2, 39000, Note_on_c, 0, 70, 98
2, 39000, Note_on_c, 0, 67, 88
2, 39059, Note_on_c, 0, 67, 0
2, 39059, Note_on_c, 0, 70, 0
2, 39059, Note_on_c, 0, 76, 0
2, 39060, Note_on_c, 0, 69, 88
2, 39060, Note_on_c, 0, 77, 88
2, 39119, Note_on_c, 0, 77, 0
2, 39119, Note_on_c, 0, 69, 0
2, 39120, Note_on_c, 0, 70, 88
2, 39120, Note_on_c, 0, 74, 78
2, 39120, Note_on_c, 0, 78, 88
2, 39120, Note_on_c, 0, 79, 70
2, 39179, Note_on_c, 0, 79, 0
2, 39179, Note_on_c, 0, 70, 0
2, 39179, Note_on_c, 0, 74, 0
2, 39179, Note_on_c, 0, 78, 0
2, 39180, Note_on_c, 0, 79, 78
2, 39180, Note_on_c, 0, 71, 78
2, 39180, Note_on_c, 0, 74, 78
2, 39239, Note_on_c, 0, 74, 0
2, 39239, Note_on_c, 0, 71, 0
2, 39239, Note_on_c, 0, 79, 0
2, 39240, Note_on_c, 0, 80, 98
2, 39240, Note_on_c, 0, 72, 78
2, 39240, Note_on_c, 0, 74, 88
2, 39299, Note_on_c, 0, 74, 0
2, 39299, Note_on_c, 0, 72, 0
2, 39299, Note_on_c, 0, 80, 0
2, 39300, Note_on_c, 0, 73, 88
2, 39300, Note_on_c, 0, 74, 88
2, 39300, Note_on_c, 0, 81, 88
2, 39359, Note_on_c, 0, 81, 0
2, 39359, Note_on_c, 0, 74, 0
2, 39359, Note_on_c, 0, 73, 0
2, 39360, Note_on_c, 0, 82, 98
2, 39360, Note_on_c, 0, 79, 88
2, 39360, Note_on_c, 0, 74, 88
2, 39599, Note_on_c, 0, 74, 0
2, 39599, Note_on_c, 0, 79, 0
2, 39599, Note_on_c, 0, 82, 0
2, 39660, Note_on_c, 0, 72, 88
2, 39660, Note_on_c, 0, 84, 88
2, 39660, Note_on_c, 0, 79, 78
2, 39719, Note_on_c, 0, 79, 0
2, 39719, Note_on_c, 0, 84, 0
2, 39719, Note_on_c, 0, 72, 0
2, 39720, Note_on_c, 0, 73, 98
2, 39720, Note_on_c, 0, 85, 98
2, 39720, Note_on_c, 0, 79, 70
2, 39779, Note_on_c, 0, 79, 0
2, 39779, Note_on_c, 0, 85, 0
2, 39779, Note_on_c, 0, 73, 0
2, 39780, Note_on_c, 0, 74, 88
2, 39780, Note_on_c, 0, 86, 88
2, 39780, Note_on_c, 0, 79, 88
2, 39839, Note_on_c, 0, 79, 0
2, 39839, Note_on_c, 0, 86, 0
2, 39839, Note_on_c, 0, 74, 0
2, 39840, Note_on_c, 0, 75, 88
2, 39840, Note_on_c, 0, 87, 110
2, 39840, Note_on_c, 0, 79, 78
2, 39840, Note_on_c, 0, 84, 88
2, 40079, Note_on_c, 0, 84, 0
2, 40079, Note_on_c, 0, 75, 0
2, 40079, Note_on_c, 0, 87, 0
2, 40079, Note_on_c, 0, 79, 0
2, 40080, Note_on_c, 0, 84, 70
2, 40080, Note_on_c, 0, 88, 78
2, 40080, Note_on_c, 0, 79, 70
2, 40139, Note_on_c, 0, 79, 0
2, 40139, Note_on_c, 0, 88, 0
2, 40139, Note_on_c, 0, 84, 0
2, 40140, Note_on_c, 0, 78, 88
2, 40140, Note_on_c, 0, 86, 88
2, 40140, Note_on_c, 0, 79, 78
2, 40199, Note_on_c, 0, 79, 0
2, 40199, Note_on_c, 0, 86, 0
2, 40199, Note_on_c, 0, 78, 0
2, 40200, Note_on_c, 0, 85, 98
2, 40200, Note_on_c, 0, 77, 78
2, 40200, Note_on_c, 0, 79, 78
2, 40259, Note_on_c, 0, 79, 0
2, 40259, Note_on_c, 0, 77, 0
2, 40259, Note_on_c, 0, 85, 0
2, 40260, Note_on_c, 0, 76, 88
2, 40260, Note_on_c, 0, 84, 88
2, 40260, Note_on_c, 0, 79, 78
2, 40319, Note_on_c, 0, 79, 0
2, 40319, Note_on_c, 0, 84, 0
2, 40319, Note_on_c, 0, 76, 0
2, 40320, Note_on_c, 0, 74, 88
2, 40320, Note_on_c, 0, 83, 78
2, 40320, Note_on_c, 0, 79, 78
2, 40379, Note_on_c, 0, 79, 0
2, 40379, Note_on_c, 0, 83, 0
2, 40379, Note_on_c, 0, 74, 0
2, 40380, Note_on_c, 0, 77, 70
2, 40380, Note_on_c, 0, 86, 78
2, 40380, Note_on_c, 0, 79, 78
2, 40439, Note_on_c, 0, 79, 0
2, 40439, Note_on_c, 0, 86, 0
2, 40439, Note_on_c, 0, 77, 0
2, 40440, Note_on_c, 0, 76, 78
2, 40440, Note_on_c, 0, 84, 78
2, 40440, Note_on_c, 0, 79, 70
2, 40499, Note_on_c, 0, 79, 0
2, 40499, Note_on_c, 0, 84, 0
2, 40499, Note_on_c, 0, 76, 0
2, 40500, Note_on_c, 0, 72, 78
2, 40500, Note_on_c, 0, 81, 78
2, 40500, Note_on_c, 0, 79, 70
2, 40559, Note_on_c, 0, 79, 0
2, 40559, Note_on_c, 0, 81, 0
2, 40559, Note_on_c, 0, 72, 0
2, 40560, Note_on_c, 0, 79, 70
2, 40560, Note_on_c, 0, 71, 78
2, 40619, Note_on_c, 0, 71, 0
2, 40619, Note_on_c, 0, 79, 0
2, 40620, Note_on_c, 0, 78, 98
2, 40620, Note_on_c, 0, 69, 88
2, 40620, Note_on_c, 0, 79, 78
2, 40679, Note_on_c, 0, 79, 0
2, 40679, Note_on_c, 0, 69, 0
2, 40679, Note_on_c, 0, 78, 0
2, 40680, Note_on_c, 0, 68, 98
2, 40680, Note_on_c, 0, 77, 78
2, 40680, Note_on_c, 0, 79, 70
2, 40739, Note_on_c, 0, 79, 0
2, 40739, Note_on_c, 0, 77, 0
2, 40739, Note_on_c, 0, 68, 0
2, 40740, Note_on_c, 0, 67, 88
2, 40740, Note_on_c, 0, 76, 88
2, 40740, Note_on_c, 0, 79, 78
2, 40799, Note_on_c, 0, 79, 0
2, 40799, Note_on_c, 0, 76, 0
2, 40799, Note_on_c, 0, 67, 0
2, 40800, Note_on_c, 0, 66, 98
2, 40800, Note_on_c, 0, 79, 78
2, 40800, Control_c, 0, 10, 54
2, 40800, Note_on_c, 0, 74, 70
2, 40800, Note_on_c, 0, 72, 70
2, 40859, Note_on_c, 0, 72, 0
2, 40859, Note_on_c, 0, 66, 0
2, 40859, Note_on_c, 0, 79, 0
2, 40859, Note_on_c, 0, 74, 0
2, 40860, Note_on_c, 0, 67, 88
2, 40860, Note_on_c, 0, 76, 78
2, 40919, Note_on_c, 0, 76, 0
2, 40919, Note_on_c, 0, 67, 0
2, 40920, Note_on_c, 0, 69, 88
2, 40920, Note_on_c, 0, 77, 88
2, 40979, Note_on_c, 0, 77, 0
2, 40979, Note_on_c, 0, 69, 0
2, 40980, Note_on_c, 0, 70, 98
2, 40980, Note_on_c, 0, 78, 78
2, 41039, Note_on_c, 0, 78, 0
2, 41039, Note_on_c, 0, 70, 0
2, 41040, Note_on_c, 0, 71, 88
2, 41040, Note_on_c, 0, 79, 78
2, 41040, Note_on_c, 0, 83, 78
2, 41040, Note_on_c, 0, 77, 78
2, 41279, Note_on_c, 0, 77, 0
2, 41279, Note_on_c, 0, 71, 0
2, 41279, Note_on_c, 0, 79, 0
2, 41279, Note_on_c, 0, 83, 0
2, 41280, Note_on_c, 0, 65, 98
2, 41280, Note_on_c, 0, 72, 70
2, 41280, Note_on_c, 0, 74, 78
2, 41280, Note_on_c, 0, 79, 35
2, 41280, Note_on_c, 0, 77, 62
2, 41339, Note_on_c, 0, 77, 0
2, 41339, Note_on_c, 0, 74, 0
2, 41339, Note_on_c, 0, 65, 0
2, 41339, Note_on_c, 0, 72, 0
2, 41339, Note_on_c, 0, 79, 0
2, 41340, Note_on_c, 0, 76, 78
2, 41340, Note_on_c, 0, 67, 78
2, 41399, Note_on_c, 0, 67, 0
2, 41399, Note_on_c, 0, 76, 0
2, 41400, Note_on_c, 0, 78, 88
2, 41400, Note_on_c, 0, 69, 88
2, 41459, Note_on_c, 0, 69, 0
2, 41459, Note_on_c, 0, 78, 0
2, 41460, Note_on_c, 0, 79, 70
2, 41460, Note_on_c, 0, 71, 78
2, 41519, Note_on_c, 0, 71, 0
2, 41519, Note_on_c, 0, 79, 0
2, 41520, Note_on_c, 0, 72, 70
2, 41520, Note_on_c, 0, 79, 78
2, 41520, Note_on_c, 0, 84, 78
2, 41520, Note_on_c, 0, 81, 70
2, 41759, Note_on_c, 0, 81, 0
2, 41759, Note_on_c, 0, 72, 0
2, 41759, Note_on_c, 0, 79, 0
2, 41759, Note_on_c, 0, 84, 0
2, 41820, Note_on_c, 0, 65, 98
2, 41820, Note_on_c, 0, 79, 70
2, 41820, Note_on_c, 0, 74, 78
2, 41820, Note_on_c, 0, 72, 70
2, 41879, Note_on_c, 0, 72, 0
2, 41879, Note_on_c, 0, 65, 0
2, 41879, Note_on_c, 0, 79, 0
2, 41879, Note_on_c, 0, 74, 0
2, 41880, Note_on_c, 0, 76, 70
2, 41880, Note_on_c, 0, 67, 78
2, 41939, Note_on_c, 0, 67, 0
2, 41939, Note_on_c, 0, 76, 0
2, 41940, Note_on_c, 0, 77, 88
2, 41940, Note_on_c, 0, 69, 78
2, 41999, Note_on_c, 0, 69, 0
2, 41999, Note_on_c, 0, 77, 0
2, 42000, Note_on_c, 0, 70, 98
2, 42000, Note_on_c, 0, 78, 88
2, 42000, Note_on_c, 0, 84, 78
2, 42000, Note_on_c, 0, 77, 70
2, 42059, Note_on_c, 0, 77, 0
2, 42059, Note_on_c, 0, 70, 0
2, 42059, Note_on_c, 0, 78, 0
2, 42059, Note_on_c, 0, 84, 0
2, 42060, Note_on_c, 0, 71, 70
2, 42060, Note_on_c, 0, 83, 78
2, 42119, Note_on_c, 0, 83, 0
2, 42119, Note_on_c, 0, 71, 0
2, 42120, Note_on_c, 0, 80, 98
2, 42120, Note_on_c, 0, 72, 70
2, 42179, Note_on_c, 0, 72, 0
2, 42179, Note_on_c, 0, 80, 0
2, 42180, Note_on_c, 0, 73, 88
2, 42180, Note_on_c, 0, 81, 78
2, 42239, Note_on_c, 0, 81, 0
2, 42239, Note_on_c, 0, 73, 0
2, 42240, Note_on_c, 0, 74, 88
2, 42240, Note_on_c, 0, 84, 78
2, 42240, Note_on_c, 0, 82, 88
2, 42299, Note_on_c, 0, 82, 0
2, 42299, Note_on_c, 0, 84, 0
2, 42299, Note_on_c, 0, 74, 0
2, 42300, Note_on_c, 0, 75, 98
2, 42300, Note_on_c, 0, 84, 78
2, 42300, Note_on_c, 0, 83, 78
2, 42359, Note_on_c, 0, 83, 0
2, 42359, Note_on_c, 0, 84, 0
2, 42359, Note_on_c, 0, 75, 0
2, 42360, Note_on_c, 0, 76, 88
2, 42360, Note_on_c, 0, 84, 78
2, 42419, Note_on_c, 0, 84, 0
2, 42419, Note_on_c, 0, 76, 0
2, 42420, Note_on_c, 0, 77, 78
2, 42420, Note_on_c, 0, 85, 78
2, 42420, Note_on_c, 0, 84, 78
2, 42479, Note_on_c, 0, 84, 0
2, 42479, Note_on_c, 0, 85, 0
2, 42479, Note_on_c, 0, 77, 0
2, 42480, Note_on_c, 0, 78, 78
2, 42480, Note_on_c, 0, 88, 78
2, 42480, Note_on_c, 0, 84, 70
2, 42539, Note_on_c, 0, 84, 0
2, 42539, Note_on_c, 0, 88, 0
2, 42539, Note_on_c, 0, 78, 0
2, 42540, Note_on_c, 0, 79, 70
2, 42540, Note_on_c, 0, 88, 88
2, 42540, Note_on_c, 0, 84, 88
2, 42599, Note_on_c, 0, 84, 0
2, 42599, Note_on_c, 0, 88, 0
2, 42599, Note_on_c, 0, 79, 0
2, 42600, Note_on_c, 0, 80, 88
2, 42600, Note_on_c, 0, 88, 78
2, 42600, Note_on_c, 0, 84, 78
2, 42659, Note_on_c, 0, 84, 0
2, 42659, Note_on_c, 0, 88, 0
2, 42659, Note_on_c, 0, 80, 0
2, 42660, Note_on_c, 0, 81, 78
2, 42660, Note_on_c, 0, 88, 88
2, 42660, Note_on_c, 0, 84, 88
2, 42719, Note_on_c, 0, 84, 0
2, 42719, Note_on_c, 0, 88, 0
2, 42719, Note_on_c, 0, 81, 0
2, 42720, Note_on_c, 0, 78, 78
2, 42720, Note_on_c, 0, 88, 70
2, 42720, Note_on_c, 0, 84, 70
2, 42779, Note_on_c, 0, 84, 0
2, 42779, Note_on_c, 0, 88, 0
2, 42779, Note_on_c, 0, 78, 0
2, 42780, Note_on_c, 0, 79, 78
2, 42780, Note_on_c, 0, 84, 78
2, 42780, Note_on_c, 0, 88, 78
2, 42839, Note_on_c, 0, 88, 0
2, 42839, Note_on_c, 0, 84, 0
2, 42839, Note_on_c, 0, 79, 0
2, 42840, Note_on_c, 0, 80, 78
2, 42840, Note_on_c, 0, 88, 78
2, 42840, Note_on_c, 0, 84, 78
2, 42899, Note_on_c, 0, 84, 0
2, 42899, Note_on_c, 0, 88, 0
2, 42899, Note_on_c, 0, 80, 0
2, 42900, Note_on_c, 0, 81, 78
2, 42900, Note_on_c, 0, 88, 88
2, 42900, Note_on_c, 0, 84, 88
2, 42959, Note_on_c, 0, 84, 0
2, 42959, Note_on_c, 0, 88, 0
2, 42959, Note_on_c, 0, 81, 0
2, 42960, Note_on_c, 0, 88, 88
2, 42960, Note_on_c, 0, 82, 98
2, 42960, Note_on_c, 0, 84, 78
2, 43199, Note_on_c, 0, 84, 0
2, 43199, Note_on_c, 0, 82, 0
2, 43199, Note_on_c, 0, 88, 0
2, 43260, Note_on_c, 0, 79, 70
2, 43260, Note_on_c, 0, 88, 78
2, 43260, Note_on_c, 0, 84, 78
2, 43319, Note_on_c, 0, 84, 0
2, 43319, Note_on_c, 0, 88, 0
2, 43319, Note_on_c, 0, 79, 0
2, 43320, Note_on_c, 0, 80, 88
2, 43320, Note_on_c, 0, 88, 78
2, 43320, Note_on_c, 0, 84, 78
2, 43379, Note_on_c, 0, 84, 0
2, 43379, Note_on_c, 0, 88, 0
2, 43379, Note_on_c, 0, 80, 0
2, 43380, Note_on_c, 0, 88, 88
2, 43380, Note_on_c, 0, 81, 70
2, 43380, Note_on_c, 0, 84, 88
2, 43439, Note_on_c, 0, 84, 0
2, 43439, Note_on_c, 0, 81, 0
2, 43439, Note_on_c, 0, 88, 0
2, 43440, Note_on_c, 0, 84, 88
2, 43440, Note_on_c, 0, 82, 88
2, 43440, Note_on_c, 0, 88, 78
2, 43679, Note_on_c, 0, 88, 0
2, 43679, Note_on_c, 0, 82, 0
2, 43679, Note_on_c, 0, 84, 0
2, 43740, Note_on_c, 0, 78, 78
2, 43740, Note_on_c, 0, 84, 70
2, 43740, Note_on_c, 0, 88, 70
2, 43799, Note_on_c, 0, 88, 0
2, 43799, Note_on_c, 0, 84, 0
2, 43799, Note_on_c, 0, 78, 0
2, 43800, Note_on_c, 0, 79, 70
2, 43800, Note_on_c, 0, 84, 88
2, 43800, Note_on_c, 0, 88, 78
2, 43859, Note_on_c, 0, 88, 0
2, 43859, Note_on_c, 0, 84, 0
2, 43859, Note_on_c, 0, 79, 0
2, 43860, Note_on_c, 0, 80, 78
2, 43860, Note_on_c, 0, 84, 70
2, 43860, Note_on_c, 0, 88, 70
2, 43919, Note_on_c, 0, 88, 0
2, 43919, Note_on_c, 0, 84, 0
2, 43919, Note_on_c, 0, 80, 0
2, 43920, Note_on_c, 0, 81, 78
2, 43920, Note_on_c, 0, 84, 88
2, 43920, Note_on_c, 0, 88, 78
2, 43979, Note_on_c, 0, 88, 0
2, 43979, Note_on_c, 0, 84, 0
2, 43979, Note_on_c, 0, 81, 0
2, 43980, Note_on_c, 0, 82, 98
2, 43980, Note_on_c, 0, 84, 78
2, 43980, Note_on_c, 0, 88, 70
2, 44039, Note_on_c, 0, 88, 0
2, 44039, Note_on_c, 0, 84, 0
2, 44039, Note_on_c, 0, 82, 0
2, 44040, Note_on_c, 0, 84, 88
2, 44040, Note_on_c, 0, 88, 88
2, 44040, Note_on_c, 0, 83, 88
2, 44099, Note_on_c, 0, 83, 0
2, 44099, Note_on_c, 0, 88, 0
2, 44099, Note_on_c, 0, 84, 0
2, 44100, Note_on_c, 0, 84, 88
2, 44100, Note_on_c, 0, 88, 88
2, 44159, Note_on_c, 0, 88, 0
2, 44159, Note_on_c, 0, 84, 0
2, 44160, Note_on_c, 0, 83, 88
2, 44160, Note_on_c, 0, 88, 78
2, 44219, Note_on_c, 0, 88, 0
2, 44219, Note_on_c, 0, 83, 0
2, 44220, Note_on_c, 0, 88, 88
2, 44220, Note_on_c, 0, 84, 88
2, 44279, Note_on_c, 0, 84, 0
2, 44279, Note_on_c, 0, 88, 0
2, 44280, Note_on_c, 0, 85, 98
2, 44280, Note_on_c, 0, 88, 78
2, 44339, Note_on_c, 0, 88, 0
2, 44339, Note_on_c, 0, 85, 0
2, 44340, Note_on_c, 0, 86, 88
2, 44340, Note_on_c, 0, 88, 88
2, 44399, Note_on_c, 0, 88, 0
2, 44399, Note_on_c, 0, 86, 0
2, 44400, Note_on_c, 0, 87, 110
2, 44400, Note_on_c, 0, 88, 98
2, 44639, Note_on_c, 0, 88, 0
2, 44639, Note_on_c, 0, 87, 0
2, 44700, Note_on_c, 0, 78, 88
2, 44700, Note_on_c, 0, 84, 78
2, 44700, Note_on_c, 0, 88, 78
2, 44759, Note_on_c, 0, 88, 0
2, 44759, Note_on_c, 0, 84, 0
2, 44759, Note_on_c, 0, 78, 0
2, 44760, Note_on_c, 0, 79, 78
2, 44760, Note_on_c, 0, 88, 88
2, 44760, Note_on_c, 0, 84, 78
2, 44819, Note_on_c, 0, 84, 0
2, 44819, Note_on_c, 0, 88, 0
2, 44819, Note_on_c, 0, 79, 0
2, 44820, Note_on_c, 0, 80, 88
2, 44820, Note_on_c, 0, 88, 78
2, 44820, Note_on_c, 0, 84, 78
2, 44879, Note_on_c, 0, 84, 0
2, 44879, Note_on_c, 0, 88, 0
2, 44879, Note_on_c, 0, 80, 0
2, 44880, Note_on_c, 0, 81, 78
2, 44880, Note_on_c, 0, 84, 88
2, 44880, Note_on_c, 0, 88, 88
2, 44939, Note_on_c, 0, 88, 0
2, 44939, Note_on_c, 0, 84, 0
2, 44939, Note_on_c, 0, 81, 0
2, 44940, Note_on_c, 0, 82, 98
2, 44940, Note_on_c, 0, 88, 88
2, 44940, Note_on_c, 0, 84, 98
2, 44999, Note_on_c, 0, 84, 0
2, 44999, Note_on_c, 0, 88, 0
2, 44999, Note_on_c, 0, 82, 0
2, 45000, Note_on_c, 0, 83, 98
2, 45000, Note_on_c, 0, 84, 88
2, 45000, Note_on_c, 0, 88, 88
2, 45059, Note_on_c, 0, 88, 0
2, 45059, Note_on_c, 0, 84, 0
2, 45059, Note_on_c, 0, 83, 0
2, 45060, Control_c, 0, 10, 55
2, 45060, Note_on_c, 0, 84, 98
2, 45060, Note_on_c, 0, 88, 88
2, 45119, Note_on_c, 0, 88, 0
2, 45119, Note_on_c, 0, 84, 0
2, 45120, Note_on_c, 0, 82, 98
2, 45120, Note_on_c, 0, 88, 88
2, 45120, Note_on_c, 0, 91, 78
2, 45179, Note_on_c, 0, 91, 0
2, 45179, Note_on_c, 0, 88, 0
2, 45179, Note_on_c, 0, 82, 0
2, 45180, Note_on_c, 0, 83, 88
2, 45180, Note_on_c, 0, 88, 110
2, 45180, Note_on_c, 0, 91, 98
2, 45239, Note_on_c, 0, 91, 0
2, 45239, Note_on_c, 0, 88, 0
2, 45239, Note_on_c, 0, 83, 0
2, 45240, Note_on_c, 0, 88, 98
2, 45240, Note_on_c, 0, 84, 78
2, 45240, Note_on_c, 0, 91, 98
2, 45299, Note_on_c, 0, 91, 0
2, 45299, Note_on_c, 0, 84, 0
2, 45299, Note_on_c, 0, 88, 0
2, 45300, Note_on_c, 0, 85, 110
2, 45300, Note_on_c, 0, 88, 88
2, 45300, Note_on_c, 0, 91, 78
2, 45359, Note_on_c, 0, 91, 0
2, 45359, Note_on_c, 0, 88, 0
2, 45359, Note_on_c, 0, 85, 0
2, 45360, Note_on_c, 0, 88, 98
2, 45360, Note_on_c, 0, 86, 98
2, 45360, Note_on_c, 0, 91, 98
2, 45599, Note_on_c, 0, 91, 0
2, 45599, Note_on_c, 0, 86, 0
2, 45599, Note_on_c, 0, 88, 0
2, 45660, Note_on_c, 0, 82, 78
2, 45660, Note_on_c, 0, 88, 88
2, 45660, Note_on_c, 0, 91, 70
2, 45719, Note_on_c, 0, 91, 0
2, 45719, Note_on_c, 0, 88, 0
2, 45719, Note_on_c, 0, 82, 0
2, 45720, Note_on_c, 0, 83, 78
2, 45720, Note_on_c, 0, 88, 88
2, 45720, Note_on_c, 0, 91, 78
2, 45779, Note_on_c, 0, 91, 0
2, 45779, Note_on_c, 0, 88, 0
2, 45779, Note_on_c, 0, 83, 0
2, 45780, Note_on_c, 0, 84, 88
2, 45780, Note_on_c, 0, 88, 98
2, 45780, Note_on_c, 0, 91, 88
2, 45839, Note_on_c, 0, 91, 0
2, 45839, Note_on_c, 0, 88, 0
2, 45839, Note_on_c, 0, 84, 0
2, 45840, Note_on_c, 0, 85, 88
2, 45840, Note_on_c, 0, 88, 88
2, 45840, Note_on_c, 0, 91, 78
2, 46079, Note_on_c, 0, 91, 0
2, 46079, Note_on_c, 0, 88, 0
2, 46079, Note_on_c, 0, 85, 0
2, 46140, Note_on_c, 0, 81, 70
2, 46140, Note_on_c, 0, 88, 88
2, 46140, Note_on_c, 0, 91, 88
2, 46199, Note_on_c, 0, 91, 0
2, 46199, Note_on_c, 0, 88, 0
2, 46199, Note_on_c, 0, 81, 0
2, 46200, Note_on_c, 0, 82, 88
2, 46200, Note_on_c, 0, 88, 78
2, 46200, Note_on_c, 0, 91, 70
2, 46259, Note_on_c, 0, 91, 0
2, 46259, Note_on_c, 0, 88, 0
2, 46259, Note_on_c, 0, 82, 0
2, 46260, Note_on_c, 0, 83, 78
2, 46260, Note_on_c, 0, 91, 88
2, 46260, Note_on_c, 0, 88, 88
2, 46319, Note_on_c, 0, 88, 0
2, 46319, Note_on_c, 0, 91, 0
2, 46319, Note_on_c, 0, 83, 0
2, 46320, Note_on_c, 0, 84, 78
2, 46320, Note_on_c, 0, 88, 88
2, 46320, Note_on_c, 0, 91, 70
2, 46559, Note_on_c, 0, 91, 0
2, 46559, Note_on_c, 0, 88, 0
2, 46559, Note_on_c, 0, 84, 0
2, 46620, Note_on_c, 0, 82, 88
2, 46620, Note_on_c, 0, 88, 78
2, 46620, Note_on_c, 0, 91, 70
2, 46679, Note_on_c, 0, 91, 0
2, 46679, Note_on_c, 0, 88, 0
2, 46679, Note_on_c, 0, 82, 0
2, 46680, Note_on_c, 0, 83, 78
2, 46680, Note_on_c, 0, 88, 88
2, 46680, Note_on_c, 0, 91, 88
2, 46739, Note_on_c, 0, 91, 0
2, 46739, Note_on_c, 0, 88, 0
2, 46739, Note_on_c, 0, 83, 0
2, 46740, Note_on_c, 0, 88, 88
2, 46740, Note_on_c, 0, 84, 78
2, 46740, Note_on_c, 0, 91, 88
2, 46799, Note_on_c, 0, 91, 0
2, 46799, Note_on_c, 0, 84, 0
2, 46799, Note_on_c, 0, 88, 0
2, 46800, Note_on_c, 0, 85, 98
2, 46800, Note_on_c, 0, 88, 88
2, 46800, Note_on_c, 0, 91, 62
2, 46859, Note_on_c, 0, 91, 0
2, 46859, Note_on_c, 0, 88, 0
2, 46859, Note_on_c, 0, 85, 0
2, 46860, Note_on_c, 0, 81, 78
2, 46860, Note_on_c, 0, 88, 98
2, 46860, Note_on_c, 0, 91, 88
2, 46919, Note_on_c, 0, 91, 0
2, 46919, Note_on_c, 0, 88, 0
2, 46919, Note_on_c, 0, 81, 0
2, 46920, Note_on_c, 0, 82, 88
2, 46920, Note_on_c, 0, 88, 78
2, 46920, Note_on_c, 0, 91, 70
2, 46979, Note_on_c, 0, 91, 0
2, 46979, Note_on_c, 0, 88, 0
2, 46979, Note_on_c, 0, 82, 0
2, 46980, Note_on_c, 0, 83, 78
2, 46980, Note_on_c, 0, 88, 88
2, 46980, Note_on_c, 0, 91, 88
2, 47039, Note_on_c, 0, 91, 0
2, 47039, Note_on_c, 0, 88, 0
2, 47039, Note_on_c, 0, 83, 0
2, 47040, Note_on_c, 0, 82, 88
2, 47040, Note_on_c, 0, 88, 88
2, 47040, Note_on_c, 0, 91, 78
2, 47099, Note_on_c, 0, 91, 0
2, 47099, Note_on_c, 0, 88, 0
2, 47099, Note_on_c, 0, 82, 0
2, 47100, Note_on_c, 0, 83, 88
2, 47100, Note_on_c, 0, 88, 98
2, 47100, Note_on_c, 0, 91, 88
2, 47159, Note_on_c, 0, 91, 0
2, 47159, Note_on_c, 0, 88, 0
2, 47159, Note_on_c, 0, 83, 0
2, 47160, Note_on_c, 0, 84, 78
2, 47160, Note_on_c, 0, 88, 98
2, 47160, Note_on_c, 0, 91, 88
2, 47219, Note_on_c, 0, 91, 0
2, 47219, Note_on_c, 0, 88, 0
2, 47219, Note_on_c, 0, 84, 0
2, 47220, Note_on_c, 0, 85, 98
2, 47220, Note_on_c, 0, 88, 88
2, 47220, Note_on_c, 0, 91, 70
2, 47279, Note_on_c, 0, 91, 0
2, 47279, Note_on_c, 0, 88, 0
2, 47279, Note_on_c, 0, 85, 0
2, 47280, Note_on_c, 0, 86, 98
2, 47280, Note_on_c, 0, 88, 98
2, 47280, Note_on_c, 0, 91, 98
2, 47280, Control_c, 0, 10, 54
2, 47519, Note_on_c, 0, 91, 0
2, 47519, Note_on_c, 0, 88, 0
2, 47519, Note_on_c, 0, 86, 0
2, 47580, Note_on_c, 0, 88, 98
2, 47580, Note_on_c, 0, 83, 88
2, 47580, Note_on_c, 0, 91, 98
2, 47639, Note_on_c, 0, 91, 0
2, 47639, Note_on_c, 0, 83, 0
2, 47639, Note_on_c, 0, 88, 0
2, 47640, Note_on_c, 0, 84, 88
2, 47640, Note_on_c, 0, 88, 98
2, 47640, Note_on_c, 0, 91, 88
2, 47699, Note_on_c, 0, 91, 0
2, 47699, Note_on_c, 0, 88, 0
2, 47699, Note_on_c, 0, 84, 0
2, 47700, Note_on_c, 0, 85, 98
2, 47700, Note_on_c, 0, 88, 88
2, 47700, Note_on_c, 0, 91, 78
2, 47759, Note_on_c, 0, 91, 0
2, 47759, Note_on_c, 0, 88, 0
2, 47759, Note_on_c, 0, 85, 0
2, 47760, Note_on_c, 0, 86, 98
2, 47760, Note_on_c, 0, 88, 98
2, 47760, Note_on_c, 0, 91, 98
2, 47999, Note_on_c, 0, 91, 0
2, 47999, Note_on_c, 0, 88, 0
2, 47999, Note_on_c, 0, 86, 0
2, 48060, Note_on_c, 0, 85, 98
2, 48060, Note_on_c, 0, 88, 88
2, 48060, Note_on_c, 0, 91, 70
2, 48119, Note_on_c, 0, 91, 0
2, 48119, Note_on_c, 0, 88, 0
2, 48119, Note_on_c, 0, 85, 0
2, 48120, Note_on_c, 0, 86, 88
2, 48120, Note_on_c, 0, 88, 98
2, 48120, Note_on_c, 0, 91, 98
2, 48179, Note_on_c, 0, 91, 0
2, 48179, Note_on_c, 0, 88, 0
2, 48179, Note_on_c, 0, 86, 0
2, 48180, Note_on_c, 0, 87, 110
2, 48180, Note_on_c, 0, 88, 98
2, 48180, Note_on_c, 0, 91, 88
2, 48239, Note_on_c, 0, 91, 0
2, 48239, Note_on_c, 0, 88, 0
2, 48239, Note_on_c, 0, 87, 0
2, 48240, Note_on_c, 0, 88, 98
2, 48240, Note_on_c, 0, 91, 98
2, 48479, Note_on_c, 0, 91, 0
2, 48479, Note_on_c, 0, 88, 0
2, 49200, Note_on_c, 0, 63, 78
2, 49200, Note_on_c, 0, 56, 62
2, 49200, Note_on_c, 0, 53, 49
2, 49200, Note_on_c, 0, 60, 44
2, 49525, Note_on_c, 0, 63, 0
2, 49526, Note_on_c, 0, 56, 0
2, 49527, Note_on_c, 0, 53, 0
2, 49535, Note_on_c, 0, 60, 0
2, 49560, Note_on_c, 0, 61, 70
2, 49560, Note_on_c, 0, 56, 70
2, 49560, Note_on_c, 0, 63, 88
2, 49560, Note_on_c, 0, 53, 49
2, 49847, Note_on_c, 0, 53, 0
2, 49849, Note_on_c, 0, 63, 0
2, 49849, Note_on_c, 0, 61, 0
2, 49851, Note_on_c, 0, 56, 0
2, 49920, Note_on_c, 0, 84, 62
2, 49920, Note_on_c, 0, 65, 62
2, 49920, Note_on_c, 0, 77, 49
2, 49920, Note_on_c, 0, 69, 35
2, 50351, Note_on_c, 0, 69, 0
2, 50355, Note_on_c, 0, 84, 0
2, 50355, Note_on_c, 0, 65, 0
2, 50355, Note_on_c, 0, 77, 0
2, 50880, Note_on_c, 0, 70, 110
2, 50880, Note_on_c, 0, 63, 124
2, 50880, Note_on_c, 0, 75, 110
2, 50988, Note_on_c, 0, 75, 0
2, 50988, Note_on_c, 0, 63, 0
2, 50991, Note_on_c, 0, 70, 0
2, 51000, Note_on_c, 0, 63, 124
2, 51033, Note_on_c, 0, 63, 0
2, 51060, Note_on_c, 0, 63, 110
2, 51092, Note_on_c, 0, 63, 0
2, 51120, Note_on_c, 0, 63, 110
2, 51155, Note_on_c, 0, 63, 0
2, 51180, Note_on_c, 0, 63, 110
2, 51215, Note_on_c, 0, 63, 0
2, 51240, Note_on_c, 0, 63, 110
2, 51458, Note_on_c, 0, 63, 0
2, 51480, Note_on_c, 0, 63, 124
2, 51480, Note_on_c, 0, 70, 110
2, 51480, Note_on_c, 0, 75, 110
2, 51533, Note_on_c, 0, 63, 0
2, 51540, Note_on_c, 0, 63, 110
2, 51541, Note_on_c, 0, 70, 0
2, 51545, Note_on_c, 0, 75, 0
2, 51579, Note_on_c, 0, 63, 0
2, 51600, Note_on_c, 0, 63, 110
2, 51632, Note_on_c, 0, 63, 0
2, 51660, Note_on_c, 0, 63, 88
2, 51698, Note_on_c, 0, 63, 0
2, 51720, Note_on_c, 0, 63, 124
2, 51801, Note_on_c, 0, 63, 0
2, 51840, Note_on_c, 0, 60, 98
2, 51840, Note_on_c, 0, 70, 110
2, 51840, Note_on_c, 0, 72, 98
2, 51960, Note_on_c, 0, 72, 0
2, 51960, Note_on_c, 0, 70, 0
2, 51961, Note_on_c, 0, 60, 0
2, 52080, Note_on_c, 0, 61, 124
2, 52080, Note_on_c, 0, 73, 110
2, 52080, Note_on_c, 0, 70, 110
2, 52191, Note_on_c, 0, 70, 0
2, 52193, Note_on_c, 0, 73, 0
2, 52193, Note_on_c, 0, 61, 0
2, 52200, Note_on_c, 0, 63, 124
2, 52200, Note_on_c, 0, 75, 110
2, 52200, Note_on_c, 0, 70, 110
2, 52295, Note_on_c, 0, 70, 0
2, 52298, Note_on_c, 0, 63, 0
2, 52300, Note_on_c, 0, 75, 0
2, 52320, Note_on_c, 0, 63, 124
2, 52358, Note_on_c, 0, 63, 0
2, 52380, Note_on_c, 0, 63, 98
2, 52422, Note_on_c, 0, 63, 0
2, 52440, Note_on_c, 0, 63, 98
2, 52486, Note_on_c, 0, 63, 0
2, 52500, Note_on_c, 0, 63, 88
2, 52543, Note_on_c, 0, 63, 0
2, 52560, Note_on_c, 0, 63, 98
2, 52663, Note_on_c, 0, 63, 0
2, 52680, Note_on_c, 0, 63, 110
2, 52680, Note_on_c, 0, 75, 110
2, 52680, Note_on_c, 0, 70, 124
2, 52680, Note_on_c, 0, 74, 98
2, 52703, Note_on_c, 0, 74, 0
2, 52723, Note_on_c, 0, 63, 0
2, 52740, Note_on_c, 0, 63, 98
2, 52744, Note_on_c, 0, 70, 0
2, 52745, Note_on_c, 0, 75, 0
2, 52774, Note_on_c, 0, 63, 0
2, 52800, Note_on_c, 0, 63, 124
2, 52842, Note_on_c, 0, 63, 0
2, 52860, Note_on_c, 0, 63, 98
2, 52893, Note_on_c, 0, 63, 0
2, 52920, Note_on_c, 0, 63, 110
2, 53026, Note_on_c, 0, 63, 0
2, 53040, Note_on_c, 0, 60, 88
2, 53040, Note_on_c, 0, 69, 98
2, 53040, Note_on_c, 0, 72, 98
2, 53040, Note_on_c, 0, 65, 110
2, 53114, Note_on_c, 0, 69, 0
2, 53116, Note_on_c, 0, 65, 0
2, 53119, Note_on_c, 0, 72, 0
2, 53126, Note_on_c, 0, 60, 0
2, 53160, Note_on_c, 0, 63, 110
2, 53160, Note_on_c, 0, 75, 110
2, 53160, Note_on_c, 0, 67, 98
2, 53160, Note_on_c, 0, 70, 110
2, 53241, Note_on_c, 0, 75, 0
2, 53242, Note_on_c, 0, 70, 0
2, 53245, Note_on_c, 0, 67, 0
2, 53257, Note_on_c, 0, 63, 0
2, 53280, Note_on_c, 0, 61, 110
2, 53280, Note_on_c, 0, 73, 110
2, 53280, Note_on_c, 0, 68, 110
2, 53280, Note_on_c, 0, 65, 110
2, 53360, Note_on_c, 0, 73, 0
2, 53368, Note_on_c, 0, 65, 0
2, 53370, Note_on_c, 0, 68, 0
2, 53374, Note_on_c, 0, 61, 0
2, 53400, Note_on_c, 0, 77, 98
2, 53400, Note_on_c, 0, 65, 110
2, 53400, Note_on_c, 0, 72, 98
2, 53400, Note_on_c, 0, 69, 98
2, 53478, Note_on_c, 0, 69, 0
2, 53478, Note_on_c, 0, 72, 0
2, 53478, Note_on_c, 0, 65, 0
2, 53481, Note_on_c, 0, 77, 0
2, 53520, Note_on_c, 0, 53, 88
2, 53580, Note_on_c, 0, 57, 98
2, 53600, Note_on_c, 0, 53, 0
2, 53640, Note_on_c, 0, 60, 98
2, 53660, Note_on_c, 0, 57, 0
2, 53700, Note_on_c, 0, 69, 110
2, 53720, Note_on_c, 0, 60, 0
2, 53760, Note_on_c, 0, 53, 98
2, 53780, Note_on_c, 0, 69, 0
2, 53820, Note_on_c, 0, 57, 98
2, 53840, Note_on_c, 0, 53, 0
2, 53880, Note_on_c, 0, 72, 88
2, 53900, Note_on_c, 0, 57, 0
2, 54000, Note_on_c, 0, 53, 88
2, 54040, Note_on_c, 0, 72, 0
2, 54060, Note_on_c, 0, 57, 98
2, 54080, Note_on_c, 0, 53, 0
2, 54120, Note_on_c, 0, 60, 98
2, 54140, Note_on_c, 0, 57, 0
2, 54180, Note_on_c, 0, 69, 98
2, 54200, Note_on_c, 0, 60, 0
2, 54240, Note_on_c, 0, 53, 98
2, 54260, Note_on_c, 0, 69, 0
2, 54300, Note_on_c, 0, 57, 110
2, 54320, Note_on_c, 0, 53, 0
2, 54360, Note_on_c, 0, 45, 88
2, 54360, Note_on_c, 0, 72, 88
2, 54380, Note_on_c, 0, 57, 0
2, 54420, Note_on_c, 0, 48, 98
2, 54440, Note_on_c, 0, 45, 0
2, 54480, Note_on_c, 0, 53, 98
2, 54500, Note_on_c, 0, 48, 0
2, 54520, Note_on_c, 0, 72, 0
2, 54540, Note_on_c, 0, 57, 98
2, 54560, Note_on_c, 0, 53, 0
2, 54600, Note_on_c, 0, 60, 98
2, 54620, Note_on_c, 0, 57, 0
2, 54660, Note_on_c, 0, 65, 110
2, 54680, Note_on_c, 0, 60, 0
2, 54720, Note_on_c, 0, 53, 98
2, 54720, Note_on_c, 0, 72, 88
2, 54740, Note_on_c, 0, 65, 0
2, 54780, Note_on_c, 0, 57, 98
2, 54800, Note_on_c, 0, 53, 0
2, 54840, Note_on_c, 0, 53, 88
2, 54860, Note_on_c, 0, 57, 0
2, 54880, Note_on_c, 0, 72, 0
2, 54900, Note_on_c, 0, 57, 88
2, 54920, Note_on_c, 0, 53, 0
2, 54960, Note_on_c, 0, 60, 98
2, 54980, Note_on_c, 0, 57, 0
2, 55020, Note_on_c, 0, 69, 110
2, 55040, Note_on_c, 0, 60, 0
2, 55080, Note_on_c, 0, 53, 88
2, 55100, Note_on_c, 0, 69, 0
2, 55140, Note_on_c, 0, 57, 98
2, 55160, Note_on_c, 0, 53, 0
2, 55200, Note_on_c, 0, 72, 88
2, 55200, Note_on_c, 0, 60, 98
2, 55200, Note_on_c, 0, 65, 98
2, 55200, Note_on_c, 0, 69, 88
2, 55200, Note_on_c, 0, 72, 78
2, 55200, Note_on_c, 0, 60, 70
2, 55200, Note_on_c, 0, 65, 98
2, 55200, Note_on_c, 0, 69, 78
2, 55220, Note_on_c, 0, 57, 0
2, 55319, Note_on_c, 0, 69, 0
2, 55319, Note_on_c, 0, 72, 0
2, 55319, Note_on_c, 0, 72, 0
2, 55319, Note_on_c, 0, 60, 0
2, 55319, Note_on_c, 0, 65, 0
2, 55319, Note_on_c, 0, 65, 0
2, 55319, Note_on_c, 0, 60, 0
2, 55319, Note_on_c, 0, 69, 0
2, 55320, Note_on_c, 0, 75, 98
2, 55320, Note_on_c, 0, 63, 98
2, 55320, Note_on_c, 0, 70, 88
2, 55320, Note_on_c, 0, 67, 78
2, 55439, Note_on_c, 0, 67, 0
2, 55439, Note_on_c, 0, 75, 0
2, 55439, Note_on_c, 0, 63, 0
2, 55439, Note_on_c, 0, 70, 0
2, 55440, Note_on_c, 0, 73, 98
2, 55440, Note_on_c, 0, 61, 98
2, 55440, Note_on_c, 0, 68, 98
2, 55440, Note_on_c, 0, 65, 88
2, 55559, Note_on_c, 0, 65, 0
2, 55559, Note_on_c, 0, 73, 0
2, 55559, Note_on_c, 0, 61, 0
2, 55559, Note_on_c, 0, 68, 0
2, 55560, Note_on_c, 0, 77, 88
2, 55560, Note_on_c, 0, 65, 98
2, 55560, Note_on_c, 0, 69, 88
2, 55560, Note_on_c, 0, 72, 88
2, 55679, Note_on_c, 0, 72, 0
2, 55679, Note_on_c, 0, 77, 0
2, 55679, Note_on_c, 0, 65, 0
2, 55679, Note_on_c, 0, 69, 0
2, 55680, Note_on_c, 0, 72, 88
2, 55680, Note_on_c, 0, 60, 88
2, 55680, Note_on_c, 0, 65, 98
2, 55680, Note_on_c, 0, 69, 88
2, 55799, Note_on_c, 0, 69, 0
2, 55799, Note_on_c, 0, 72, 0
2, 55799, Note_on_c, 0, 60, 0
2, 55799, Note_on_c, 0, 65, 0
2, 55800, Note_on_c, 0, 75, 110
2, 55800, Note_on_c, 0, 63, 98
2, 55800, Note_on_c, 0, 70, 98
2, 55800, Note_on_c, 0, 67, 88
2, 55919, Note_on_c, 0, 67, 0
2, 55919, Note_on_c, 0, 75, 0
2, 55919, Note_on_c, 0, 63, 0
2, 55919, Note_on_c, 0, 70, 0
2, 55920, Note_on_c, 0, 73, 98
2, 55920, Note_on_c, 0, 68, 98
2, 55920, Note_on_c, 0, 61, 98
2, 55920, Note_on_c, 0, 65, 98
2, 56039, Note_on_c, 0, 65, 0
2, 56039, Note_on_c, 0, 73, 0
2, 56039, Note_on_c, 0, 68, 0
2, 56039, Note_on_c, 0, 61, 0
2, 56040, Note_on_c, 0, 77, 98
2, 56040, Note_on_c, 0, 65, 98
2, 56040, Note_on_c, 0, 69, 98
2, 56040, Note_on_c, 0, 72, 88
2, 56159, Note_on_c, 0, 72, 0
2, 56159, Note_on_c, 0, 77, 0
2, 56159, Note_on_c, 0, 65, 0
2, 56159, Note_on_c, 0, 69, 0
2, 56160, Note_on_c, 0, 52, 88
2, 56160, Note_on_c, 0, 64, 98
2, 56160, Note_on_c, 0, 67, 88
2, 56160, Note_on_c, 0, 60, 78
2, 56219, Note_on_c, 0, 60, 0
2, 56219, Note_on_c, 0, 52, 0
2, 56219, Note_on_c, 0, 64, 0
2, 56219, Note_on_c, 0, 67, 0
2, 56220, Note_on_c, 0, 60, 62
2, 56220, Note_on_c, 0, 67, 70
2, 56220, Note_on_c, 0, 52, 70
2, 56220, Note_on_c, 0, 64, 70
2, 56279, Note_on_c, 0, 64, 0
2, 56279, Note_on_c, 0, 60, 0
2, 56279, Note_on_c, 0, 67, 0
2, 56279, Note_on_c, 0, 52, 0
2, 56280, Note_on_c, 0, 67, 70
2, 56280, Note_on_c, 0, 52, 62
2, 56280, Note_on_c, 0, 60, 62
2, 56280, Note_on_c, 0, 64, 70
2, 56339, Note_on_c, 0, 64, 0
2, 56339, Note_on_c, 0, 67, 0
2, 56339, Note_on_c, 0, 52, 0
2, 56339, Note_on_c, 0, 60, 0
2, 56340, Note_on_c, 0, 52, 70
2, 56340, Note_on_c, 0, 67, 70
2, 56340, Note_on_c, 0, 60, 62
2, 56340, Note_on_c, 0, 64, 70
2, 56399, Note_on_c, 0, 64, 0
2, 56399, Note_on_c, 0, 52, 0
2, 56399, Note_on_c, 0, 67, 0
2, 56399, Note_on_c, 0, 60, 0
2, 56400, Note_on_c, 0, 52, 62
2, 56400, Note_on_c, 0, 67, 78
2, 56400, Note_on_c, 0, 60, 70
2, 56400, Note_on_c, 0, 64, 70
2, 56459, Note_on_c, 0, 64, 0
2, 56459, Note_on_c, 0, 52, 0
2, 56459, Note_on_c, 0, 67, 0
2, 56459, Note_on_c, 0, 60, 0
2, 56460, Note_on_c, 0, 67, 88
2, 56460, Note_on_c, 0, 60, 78
2, 56460, Note_on_c, 0, 64, 88
2, 56460, Note_on_c, 0, 52, 70
2, 56519, Note_on_c, 0, 52, 0
2, 56519, Note_on_c, 0, 67, 0
2, 56519, Note_on_c, 0, 60, 0
2, 56519, Note_on_c, 0, 64, 0
2, 57480, Note_on_c, 0, 52, 110
2, 57480, Note_on_c, 0, 64, 110
2, 57480, Note_on_c, 0, 60, 110
2, 57480, Note_on_c, 0, 67, 124
2, 57539, Note_on_c, 0, 67, 0
2, 57539, Note_on_c, 0, 52, 0
2, 57539, Note_on_c, 0, 64, 0
2, 57539, Note_on_c, 0, 60, 0
2, 57600, Note_on_c, 0, 52, 98
2, 57600, Note_on_c, 0, 64, 110
2, 57600, Note_on_c, 0, 60, 110
2, 57600, Note_on_c, 0, 67, 110
2, 57659, Note_on_c, 0, 67, 0
2, 57659, Note_on_c, 0, 52, 0
2, 57659, Note_on_c, 0, 64, 0
2, 57659, Note_on_c, 0, 60, 0
2, 57840, Note_on_c, 0, 52, 110
2, 57840, Note_on_c, 0, 60, 98
2, 57840, Note_on_c, 0, 64, 98
2, 57840, Note_on_c, 0, 67, 110
2, 57899, Note_on_c, 0, 67, 0
2, 57899, Note_on_c, 0, 52, 0
2, 57899, Note_on_c, 0, 60, 0
2, 57899, Note_on_c, 0, 64, 0
2, 57900, Note_on_c, 0, 52, 62
2, 57900, Note_on_c, 0, 67, 62
2, 57900, Note_on_c, 0, 64, 62
2, 57900, Note_on_c, 0, 60, 44
2, 57959, Note_on_c, 0, 60, 0
2, 57959, Note_on_c, 0, 52, 0
2, 57959, Note_on_c, 0, 67, 0
2, 57959, Note_on_c, 0, 64, 0
2, 57960, Note_on_c, 0, 52, 62
2, 57960, Note_on_c, 0, 67, 55
2, 57960, Note_on_c, 0, 64, 62
2, 57960, Note_on_c, 0, 60, 44
2, 58019, Note_on_c, 0, 60, 0
2, 58019, Note_on_c, 0, 52, 0
2, 58019, Note_on_c, 0, 67, 0
2, 58019, Note_on_c, 0, 64, 0
2, 58020, Note_on_c, 0, 52, 55
2, 58020, Note_on_c, 0, 67, 55
2, 58020, Note_on_c, 0, 60, 49
2, 58020, Note_on_c, 0, 64, 62
2, 58079, Note_on_c, 0, 64, 0
2, 58079, Note_on_c, 0, 52, 0
2, 58079, Note_on_c, 0, 67, 0
2, 58079, Note_on_c, 0, 60, 0
2, 58080, Note_on_c, 0, 52, 55
2, 58080, Note_on_c, 0, 67, 62
2, 58080, Note_on_c, 0, 60, 49
2, 58080, Note_on_c, 0, 64, 62
2, 58139, Note_on_c, 0, 64, 0
2, 58139, Note_on_c, 0, 52, 0
2, 58139, Note_on_c, 0, 67, 0
2, 58139, Note_on_c, 0, 60, 0
2, 58140, Note_on_c, 0, 67, 62
2, 58140, Note_on_c, 0, 52, 55
2, 58140, Note_on_c, 0, 60, 55
2, 58140, Note_on_c, 0, 64, 62
2, 58199, Note_on_c, 0, 64, 0
2, 58199, Note_on_c, 0, 67, 0
2, 58199, Note_on_c, 0, 52, 0
2, 58199, Note_on_c, 0, 60, 0
2, 58320, Note_on_c, 0, 55, 78
2, 58440, Note_on_c, 0, 58, 98
2, 58480, Note_on_c, 0, 55, 0
2, 58560, Note_on_c, 0, 56, 98
2, 58600, Note_on_c, 0, 58, 0
2, 58680, Note_on_c, 0, 60, 88
2, 58720, Note_on_c, 0, 56, 0
2, 58800, Note_on_c, 0, 55, 78
2, 58800, Note_on_c, 0, 67, 98
2, 58840, Note_on_c, 0, 60, 0
2, 58920, Note_on_c, 0, 70, 110
2, 58920, Note_on_c, 0, 58, 98
2, 58960, Note_on_c, 0, 67, 0
2, 58960, Note_on_c, 0, 55, 0
2, 59040, Note_on_c, 0, 56, 110
2, 59040, Note_on_c, 0, 68, 110
2, 59080, Note_on_c, 0, 70, 0
2, 59080, Note_on_c, 0, 58, 0
2, 59200, Note_on_c, 0, 56, 0
2, 59200, Note_on_c, 0, 68, 0
2, 59220, Note_on_c, 0, 64, 110
2, 59220, Note_on_c, 0, 76, 98
2, 59220, Note_on_c, 0, 88, 98
2, 59279, Note_on_c, 0, 88, 0
2, 59279, Note_on_c, 0, 76, 0
2, 59279, Note_on_c, 0, 64, 0
2, 59280, Note_on_c, 0, 72, 78
2, 59280, Note_on_c, 0, 60, 98
2, 59280, Note_on_c, 0, 52, 98
2, 59280, Note_on_c, 0, 71, 110
2, 59280, Note_on_c, 0, 67, 98
2, 59280, Note_on_c, 0, 64, 98
2, 59339, Note_on_c, 0, 64, 0
2, 59339, Note_on_c, 0, 60, 0
2, 59339, Note_on_c, 0, 52, 0
2, 59339, Note_on_c, 0, 72, 0
2, 59339, Note_on_c, 0, 67, 0
2, 59339, Note_on_c, 0, 71, 0
2, 59340, Note_on_c, 0, 52, 49
2, 59340, Note_on_c, 0, 60, 55
2, 59340, Note_on_c, 0, 67, 55
2, 59340, Note_on_c, 0, 64, 55
2, 59399, Note_on_c, 0, 64, 0
2, 59399, Note_on_c, 0, 52, 0
2, 59399, Note_on_c, 0, 60, 0
2, 59399, Note_on_c, 0, 67, 0
2, 59400, Note_on_c, 0, 52, 49
2, 59400, Note_on_c, 0, 60, 49
2, 59400, Note_on_c, 0, 67, 55
2, 59400, Note_on_c, 0, 64, 55
2, 59459, Note_on_c, 0, 64, 0
2, 59459, Note_on_c, 0, 52, 0
2, 59459, Note_on_c, 0, 60, 0
2, 59459, Note_on_c, 0, 67, 0
2, 59460, Note_on_c, 0, 52, 35
2, 59460, Note_on_c, 0, 67, 55
2, 59460, Note_on_c, 0, 60, 35
2, 59460, Note_on_c, 0, 64, 44
2, 59519, Note_on_c, 0, 64, 0
2, 59519, Note_on_c, 0, 52, 0
2, 59519, Note_on_c, 0, 67, 0
2, 59519, Note_on_c, 0, 60, 0
2, 59520, Note_on_c, 0, 67, 62
2, 59520, Note_on_c, 0, 52, 39
2, 59520, Note_on_c, 0, 60, 44
2, 59520, Note_on_c, 0, 64, 44
2, 59579, Note_on_c, 0, 64, 0
2, 59579, Note_on_c, 0, 67, 0
2, 59579, Note_on_c, 0, 52, 0
2, 59579, Note_on_c, 0, 60, 0
2, 59580, Note_on_c, 0, 60, 55
2, 59580, Note_on_c, 0, 67, 62
2, 59580, Note_on_c, 0, 52, 44
2, 59580, Note_on_c, 0, 64, 55
2, 59639, Note_on_c, 0, 64, 0
2, 59639, Note_on_c, 0, 60, 0
2, 59639, Note_on_c, 0, 67, 0
2, 59639, Note_on_c, 0, 52, 0
2, 59640, Note_on_c, 0, 70, 78
2, 59759, Note_on_c, 0, 70, 0
2, 59760, Note_on_c, 0, 68, 88
2, 59879, Note_on_c, 0, 68, 0
2, 59880, Note_on_c, 0, 72, 88
2, 59999, Note_on_c, 0, 72, 0
2, 60000, Note_on_c, 0, 67, 88
2, 60000, Note_on_c, 0, 60, 78
2, 60119, Note_on_c, 0, 60, 0
2, 60119, Note_on_c, 0, 67, 0
2, 60120, Note_on_c, 0, 68, 98
2, 60120, Note_on_c, 0, 62, 78
2, 60120, Note_on_c, 0, 65, 88
2, 60179, Note_on_c, 0, 65, 0
2, 60179, Note_on_c, 0, 62, 0
2, 60179, Note_on_c, 0, 68, 0
2, 60180, Note_on_c, 0, 68, 98
2, 60180, Note_on_c, 0, 65, 88
2, 60180, Note_on_c, 0, 62, 70
2, 60239, Note_on_c, 0, 62, 0
2, 60239, Note_on_c, 0, 65, 0
2, 60239, Note_on_c, 0, 68, 0
2, 60240, Note_on_c, 0, 66, 98
2, 60240, Note_on_c, 0, 69, 70
2, 60240, Note_on_c, 0, 62, 62
2, 60299, Note_on_c, 0, 62, 0
2, 60299, Note_on_c, 0, 69, 0
2, 60299, Note_on_c, 0, 66, 0
2, 60300, Note_on_c, 0, 66, 98
2, 60300, Note_on_c, 0, 69, 78
2, 60300, Note_on_c, 0, 62, 70
2, 60359, Note_on_c, 0, 62, 0
2, 60359, Note_on_c, 0, 69, 0
2, 60359, Note_on_c, 0, 66, 0
2, 60360, Note_on_c, 0, 66, 98
2, 60360, Note_on_c, 0, 69, 78
2, 60360, Note_on_c, 0, 62, 70
2, 60419, Note_on_c, 0, 62, 0
2, 60419, Note_on_c, 0, 69, 0
2, 60419, Note_on_c, 0, 66, 0
2, 60420, Note_on_c, 0, 66, 110
2, 60420, Note_on_c, 0, 69, 88
2, 60420, Note_on_c, 0, 62, 88
2, 60479, Note_on_c, 0, 62, 0
2, 60479, Note_on_c, 0, 69, 0
2, 60479, Note_on_c, 0, 66, 0
2, 61440, Note_on_c, 0, 70, 110
2, 61440, Note_on_c, 0, 63, 110
2, 61559, Note_on_c, 0, 63, 0
2, 61559, Note_on_c, 0, 70, 0
2, 61560, Note_on_c, 0, 56, 110
2, 61560, Note_on_c, 0, 71, 98
2, 61560, Note_on_c, 0, 68, 110
2, 61560, Note_on_c, 0, 64, 98
2, 61619, Note_on_c, 0, 64, 0
2, 61619, Note_on_c, 0, 56, 0
2, 61619, Note_on_c, 0, 71, 0
2, 61619, Note_on_c, 0, 68, 0
2, 61620, Note_on_c, 0, 71, 98
2, 61620, Note_on_c, 0, 56, 98
2, 61620, Note_on_c, 0, 64, 98
2, 61620, Note_on_c, 0, 68, 110
2, 61679, Note_on_c, 0, 68, 0
2, 61679, Note_on_c, 0, 71, 0
2, 61679, Note_on_c, 0, 56, 0
2, 61679, Note_on_c, 0, 64, 0
2, 61680, Note_on_c, 0, 71, 88
2, 61680, Note_on_c, 0, 56, 98
2, 61680, Note_on_c, 0, 68, 110
2, 61680, Note_on_c, 0, 64, 98
2, 61739, Note_on_c, 0, 64, 0
2, 61739, Note_on_c, 0, 71, 0
2, 61739, Note_on_c, 0, 56, 0
2, 61739, Note_on_c, 0, 68, 0
2, 61740, Note_on_c, 0, 56, 98
2, 61740, Note_on_c, 0, 71, 98
2, 61740, Note_on_c, 0, 64, 88
2, 61740, Note_on_c, 0, 68, 98
2, 61799, Note_on_c, 0, 68, 0
2, 61799, Note_on_c, 0, 56, 0
2, 61799, Note_on_c, 0, 71, 0
2, 61799, Note_on_c, 0, 64, 0
2, 61800, Note_on_c, 0, 56, 98
2, 61800, Note_on_c, 0, 71, 88
2, 61800, Note_on_c, 0, 68, 98
2, 61800, Note_on_c, 0, 64, 88
2, 61859, Note_on_c, 0, 64, 0
2, 61859, Note_on_c, 0, 56, 0
2, 61859, Note_on_c, 0, 71, 0
2, 61859, Note_on_c, 0, 68, 0
2, 61860, Note_on_c, 0, 71, 98
2, 61860, Note_on_c, 0, 56, 110
2, 61860, Note_on_c, 0, 64, 98
2, 61860, Note_on_c, 0, 68, 110
2, 61919, Note_on_c, 0, 68, 0
2, 61919, Note_on_c, 0, 71, 0
2, 61919, Note_on_c, 0, 56, 0
2, 61919, Note_on_c, 0, 64, 0
2, 61980, Note_on_c, 0, 56, 98
2, 61980, Note_on_c, 0, 64, 98
2, 62019, Note_on_c, 0, 64, 0
2, 62019, Note_on_c, 0, 56, 0
2, 62040, Note_on_c, 0, 71, 110
2, 62079, Note_on_c, 0, 71, 0
2, 62080, Note_on_c, 0, 59, 88
2, 62119, Note_on_c, 0, 59, 0
2, 62120, Note_on_c, 0, 68, 110
2, 62159, Note_on_c, 0, 68, 0
2, 62160, Note_on_c, 0, 76, 98
2, 62199, Note_on_c, 0, 76, 0
2, 62200, Note_on_c, 0, 64, 98
2, 62239, Note_on_c, 0, 64, 0
2, 62240, Note_on_c, 0, 71, 98
2, 62279, Note_on_c, 0, 71, 0
2, 62280, Note_on_c, 0, 80, 110
2, 62319, Note_on_c, 0, 80, 0
2, 62320, Note_on_c, 0, 68, 110
2, 62359, Note_on_c, 0, 68, 0
2, 62360, Note_on_c, 0, 76, 98
2, 62399, Note_on_c, 0, 76, 0
2, 62400, Note_on_c, 0, 83, 98
2, 62439, Note_on_c, 0, 83, 0
2, 62440, Note_on_c, 0, 71, 88
2, 62479, Note_on_c, 0, 71, 0
2, 62480, Note_on_c, 0, 80, 110
2, 62519, Note_on_c, 0, 80, 0
2, 62520, Note_on_c, 0, 88, 110
2, 62559, Note_on_c, 0, 88, 0
2, 62560, Note_on_c, 0, 83, 98
2, 62599, Note_on_c, 0, 83, 0
2, 62600, Note_on_c, 0, 92, 110
2, 62639, Note_on_c, 0, 92, 0
2, 62640, Note_on_c, 0, 83, 110
2, 62679, Note_on_c, 0, 83, 0
2, 62680, Note_on_c, 0, 83, 88
2, 62719, Note_on_c, 0, 83, 0
2, 62720, Note_on_c, 0, 83, 88
2, 62759, Note_on_c, 0, 83, 0
2, 62760, Note_on_c, 0, 83, 110
2, 62799, Note_on_c, 0, 83, 0
2, 62800, Note_on_c, 0, 83, 110
2, 62839, Note_on_c, 0, 83, 0
2, 62840, Note_on_c, 0, 83, 110
2, 62879, Note_on_c, 0, 83, 0
2, 62880, Note_on_c, 0, 83, 110
2, 62919, Note_on_c, 0, 83, 0
2, 62920, Note_on_c, 0, 83, 110
2, 62959, Note_on_c, 0, 83, 0
2, 62960, Note_on_c, 0, 83, 98
2, 62999, Note_on_c, 0, 83, 0
2, 63000, Note_on_c, 0, 88, 98
2, 63039, Note_on_c, 0, 88, 0
2, 63040, Note_on_c, 0, 83, 98
2, 63079, Note_on_c, 0, 83, 0
2, 63080, Note_on_c, 0, 92, 110
2, 63119, Note_on_c, 0, 92, 0
2, 63120, Note_on_c, 0, 83, 88
2, 63159, Note_on_c, 0, 83, 0
2, 63160, Note_on_c, 0, 83, 98
2, 63199, Note_on_c, 0, 83, 0
2, 63200, Note_on_c, 0, 83, 110
2, 63239, Note_on_c, 0, 83, 0
2, 63240, Note_on_c, 0, 83, 110
2, 63279, Note_on_c, 0, 83, 0
2, 63280, Note_on_c, 0, 83, 110
2, 63319, Note_on_c, 0, 83, 0
2, 63320, Note_on_c, 0, 83, 110
2, 63359, Note_on_c, 0, 83, 0
2, 63360, Note_on_c, 0, 88, 110
2, 63399, Note_on_c, 0, 88, 0
2, 63400, Note_on_c, 0, 83, 98
2, 63439, Note_on_c, 0, 83, 0
2, 63440, Note_on_c, 0, 92, 110
2, 63479, Note_on_c, 0, 92, 0
2, 63480, Note_on_c, 0, 92, 110
2, 63480, Note_on_c, 0, 80, 110
2, 63519, Note_on_c, 0, 80, 0
2, 63519, Note_on_c, 0, 92, 0
2, 63520, Note_on_c, 0, 88, 98
2, 63520, Note_on_c, 0, 76, 98
2, 63559, Note_on_c, 0, 76, 0
2, 63559, Note_on_c, 0, 88, 0
2, 63560, Note_on_c, 0, 88, 110
2, 63599, Note_on_c, 0, 88, 0
2, 63600, Note_on_c, 0, 83, 98
2, 63600, Note_on_c, 0, 95, 98
2, 63639, Note_on_c, 0, 95, 0
2, 63639, Note_on_c, 0, 83, 0
2, 63640, Note_on_c, 0, 94, 110
2, 63679, Note_on_c, 0, 94, 0
2, 63680, Note_on_c, 0, 93, 88
2, 63719, Note_on_c, 0, 93, 0
2, 63720, Note_on_c, 0, 81, 98
2, 63720, Note_on_c, 0, 93, 88
2, 63759, Note_on_c, 0, 93, 0
2, 63759, Note_on_c, 0, 81, 0
2, 63760, Note_on_c, 0, 92, 110
2, 63799, Note_on_c, 0, 92, 0
2, 63800, Note_on_c, 0, 90, 98
2, 63839, Note_on_c, 0, 90, 0
2, 63840, Note_on_c, 0, 78, 110
2, 63840, Note_on_c, 0, 90, 110
2, 63879, Note_on_c, 0, 90, 0
2, 63879, Note_on_c, 0, 78, 0
2, 63880, Note_on_c, 0, 88, 98
2, 63919, Note_on_c, 0, 88, 0
2, 63920, Note_on_c, 0, 87, 110
2, 63959, Note_on_c, 0, 87, 0
2, 63960, Note_on_c, 0, 87, 110
2, 63960, Note_on_c, 0, 75, 110
2, 63999, Note_on_c, 0, 75, 0
2, 63999, Note_on_c, 0, 87, 0
2, 64000, Note_on_c, 0, 86, 98
2, 64039, Note_on_c, 0, 86, 0
2, 64040, Note_on_c, 0, 85, 110
2, 64079, Note_on_c, 0, 85, 0
2, 64080, Note_on_c, 0, 85, 110
2, 64119, Note_on_c, 0, 85, 0
2, 64120, Note_on_c, 0, 84, 98
2, 64159, Note_on_c, 0, 84, 0
2, 64160, Note_on_c, 0, 90, 110
2, 64160, Note_on_c, 0, 84, 55
2, 64199, Note_on_c, 0, 84, 0
2, 64199, Note_on_c, 0, 90, 0
2, 64200, Note_on_c, 0, 93, 110
2, 64239, Note_on_c, 0, 93, 0
2, 64240, Note_on_c, 0, 84, 98
2, 64279, Note_on_c, 0, 84, 0
2, 64280, Note_on_c, 0, 83, 98
2, 64319, Note_on_c, 0, 83, 0
2, 64320, Note_on_c, 0, 90, 110
2, 64359, Note_on_c, 0, 90, 0
2, 64360, Note_on_c, 0, 87, 110
2, 64399, Note_on_c, 0, 87, 0
2, 64400, Note_on_c, 0, 83, 98
2, 64439, Note_on_c, 0, 83, 0
2, 64440, Note_on_c, 0, 58, 98
2, 64440, Note_on_c, 0, 62, 98
2, 64440, Note_on_c, 0, 65, 98
2, 64440, Note_on_c, 0, 50, 78
2, 64499, Note_on_c, 0, 50, 0
2, 64499, Note_on_c, 0, 58, 0
2, 64499, Note_on_c, 0, 62, 0
2, 64499, Note_on_c, 0, 65, 0
2, 64500, Note_on_c, 0, 62, 88
2, 64500, Note_on_c, 0, 65, 98
2, 64500, Note_on_c, 0, 58, 88
2, 64500, Note_on_c, 0, 50, 78
2, 64559, Note_on_c, 0, 50, 0
2, 64559, Note_on_c, 0, 62, 0
2, 64559, Note_on_c, 0, 65, 0
2, 64559, Note_on_c, 0, 58, 0
2, 64560, Note_on_c, 0, 58, 88
2, 64560, Note_on_c, 0, 62, 88
2, 64560, Note_on_c, 0, 65, 98
2, 64560, Note_on_c, 0, 50, 88
2, 64619, Note_on_c, 0, 50, 0
2, 64619, Note_on_c, 0, 58, 0
2, 64619, Note_on_c, 0, 62, 0
2, 64619, Note_on_c, 0, 65, 0
2, 64620, Note_on_c, 0, 65, 98
2, 64620, Note_on_c, 0, 62, 88
2, 64620, Note_on_c, 0, 58, 88
2, 64620, Note_on_c, 0, 50, 78
2, 64679, Note_on_c, 0, 50, 0
2, 64679, Note_on_c, 0, 65, 0
2, 64679, Note_on_c, 0, 62, 0
2, 64679, Note_on_c, 0, 58, 0
2, 64680, Note_on_c, 0, 62, 88
2, 64680, Note_on_c, 0, 65, 98
2, 64680, Note_on_c, 0, 50, 78
2, 64680, Note_on_c, 0, 58, 78
2, 64739, Note_on_c, 0, 58, 0
2, 64739, Note_on_c, 0, 62, 0
2, 64739, Note_on_c, 0, 65, 0
2, 64739, Note_on_c, 0, 50, 0
2, 64740, Note_on_c, 0, 58, 98
2, 64740, Note_on_c, 0, 50, 88
2, 64740, Note_on_c, 0, 62, 98
2, 64740, Note_on_c, 0, 65, 110
2, 64799, Note_on_c, 0, 65, 0
2, 64799, Note_on_c, 0, 58, 0
2, 64799, Note_on_c, 0, 50, 0
2, 64799, Note_on_c, 0, 62, 0
2, 65040, Note_on_c, 0, 58, 98
2, 65040, Note_on_c, 0, 65, 110
2, 65040, Note_on_c, 0, 62, 98
2, 65040, Note_on_c, 0, 50, 78
2, 65099, Note_on_c, 0, 50, 0
2, 65099, Note_on_c, 0, 58, 0
2, 65099, Note_on_c, 0, 65, 0
2, 65099, Note_on_c, 0, 62, 0
2, 65100, Note_on_c, 0, 58, 98
2, 65100, Note_on_c, 0, 65, 98
2, 65100, Note_on_c, 0, 62, 88
2, 65100, Note_on_c, 0, 50, 78
2, 65159, Note_on_c, 0, 50, 0
2, 65159, Note_on_c, 0, 58, 0
2, 65159, Note_on_c, 0, 65, 0
2, 65159, Note_on_c, 0, 62, 0
2, 65160, Note_on_c, 0, 65, 98
2, 65160, Note_on_c, 0, 62, 88
2, 65160, Note_on_c, 0, 58, 70
2, 65160, Note_on_c, 0, 50, 70
2, 65219, Note_on_c, 0, 50, 0
2, 65219, Note_on_c, 0, 65, 0
2, 65219, Note_on_c, 0, 62, 0
2, 65219, Note_on_c, 0, 58, 0
2, 65220, Note_on_c, 0, 62, 98
2, 65220, Note_on_c, 0, 58, 88
2, 65220, Note_on_c, 0, 65, 98
2, 65220, Note_on_c, 0, 50, 78
2, 65279, Note_on_c, 0, 50, 0
2, 65279, Note_on_c, 0, 62, 0
2, 65279, Note_on_c, 0, 58, 0
2, 65279, Note_on_c, 0, 65, 0
2, 65400, Note_on_c, 0, 82, 98
2, 65400, Note_on_c, 0, 89, 98
2, 65400, Note_on_c, 0, 86, 88
2, 65459, Note_on_c, 0, 86, 0
2, 65459, Note_on_c, 0, 89, 0
2, 65459, Note_on_c, 0, 82, 0
2, 65460, Note_on_c, 0, 82, 98
2, 65460, Note_on_c, 0, 89, 98
2, 65460, Note_on_c, 0, 86, 88
2, 65519, Note_on_c, 0, 86, 0
2, 65519, Note_on_c, 0, 89, 0
2, 65519, Note_on_c, 0, 82, 0
2, 65520, Note_on_c, 0, 82, 98
2, 65520, Note_on_c, 0, 89, 88
2, 65520, Note_on_c, 0, 86, 98
2, 65579, Note_on_c, 0, 86, 0
2, 65579, Note_on_c, 0, 89, 0
2, 65579, Note_on_c, 0, 82, 0
2, 65580, Note_on_c, 0, 82, 98
2, 65580, Note_on_c, 0, 89, 88
2, 65580, Note_on_c, 0, 86, 88
2, 65639, Note_on_c, 0, 86, 0
2, 65639, Note_on_c, 0, 89, 0
2, 65639, Note_on_c, 0, 82, 0
2, 65640, Note_on_c, 0, 58, 98
2, 65640, Note_on_c, 0, 70, 110
2, 65680, Note_on_c, 0, 63, 98
2, 65719, Note_on_c, 0, 63, 0
2, 65720, Note_on_c, 0, 67, 98
2, 65759, Note_on_c, 0, 67, 0
2, 65759, Note_on_c, 0, 70, 0
2, 65759, Note_on_c, 0, 58, 0
2, 65760, Note_on_c, 0, 70, 98
2, 65879, Note_on_c, 0, 70, 0
2, 65920, Note_on_c, 0, 63, 110
2, 65959, Note_on_c, 0, 63, 0
2, 65960, Note_on_c, 0, 55, 98
2, 65999, Note_on_c, 0, 55, 0
2, 66000, Note_on_c, 0, 75, 98
2, 66119, Note_on_c, 0, 75, 0
2, 66160, Note_on_c, 0, 79, 98
2, 66199, Note_on_c, 0, 79, 0
2, 66200, Note_on_c, 0, 82, 110
2, 66239, Note_on_c, 0, 82, 0
2, 66240, Note_on_c, 0, 67, 110
2, 66359, Note_on_c, 0, 67, 0
2, 66400, Note_on_c, 0, 75, 110
2, 66439, Note_on_c, 0, 75, 0
2, 66440, Note_on_c, 0, 79, 98
2, 66479, Note_on_c, 0, 79, 0
2, 66480, Note_on_c, 0, 84, 88
2, 66519, Note_on_c, 0, 84, 0
2, 66520, Note_on_c, 0, 82, 98
2, 66559, Note_on_c, 0, 82, 0
2, 66560, Note_on_c, 0, 70, 98
2, 66599, Note_on_c, 0, 70, 0
2, 66600, Note_on_c, 0, 75, 110
2, 66719, Note_on_c, 0, 75, 0
2, 66760, Note_on_c, 0, 79, 98
2, 66799, Note_on_c, 0, 79, 0
2, 66800, Note_on_c, 0, 78, 110
2, 66839, Note_on_c, 0, 78, 0
2, 66840, Note_on_c, 0, 77, 110
2, 66959, Note_on_c, 0, 77, 0
2, 67000, Note_on_c, 0, 76, 98
2, 67039, Note_on_c, 0, 76, 0
2, 67040, Note_on_c, 0, 75, 98
2, 67079, Note_on_c, 0, 75, 0
2, 67080, Note_on_c, 0, 74, 98
2, 67119, Note_on_c, 0, 74, 0
2, 67120, Note_on_c, 0, 73, 110
2, 67159, Note_on_c, 0, 73, 0
2, 67160, Note_on_c, 0, 72, 98
2, 67199, Note_on_c, 0, 72, 0
2, 67200, Note_on_c, 0, 71, 98
2, 67239, Note_on_c, 0, 71, 0
2, 67240, Note_on_c, 0, 68, 98
2, 67279, Note_on_c, 0, 68, 0
2, 67280, Note_on_c, 0, 83, 88
2, 67319, Note_on_c, 0, 83, 0
2, 67320, Note_on_c, 0, 80, 110
2, 67359, Note_on_c, 0, 80, 0
2, 67360, Note_on_c, 0, 76, 98
2, 67399, Note_on_c, 0, 76, 0
2, 67400, Note_on_c, 0, 88, 98
2, 67439, Note_on_c, 0, 88, 0
2, 67440, Note_on_c, 0, 71, 98
2, 67440, Note_on_c, 0, 83, 98
2, 67479, Note_on_c, 0, 83, 0
2, 67479, Note_on_c, 0, 71, 0
2, 67480, Note_on_c, 0, 82, 110
2, 67519, Note_on_c, 0, 82, 0
2, 67520, Note_on_c, 0, 81, 88
2, 67559, Note_on_c, 0, 81, 0
2, 67560, Note_on_c, 0, 69, 98
2, 67560, Note_on_c, 0, 81, 88
2, 67599, Note_on_c, 0, 81, 0
2, 67599, Note_on_c, 0, 69, 0
2, 67600, Note_on_c, 0, 80, 98
2, 67639, Note_on_c, 0, 80, 0
2, 67640, Note_on_c, 0, 78, 110
2, 67679, Note_on_c, 0, 78, 0
2, 67680, Note_on_c, 0, 78, 98
2, 67680, Note_on_c, 0, 66, 110
2, 67719, Note_on_c, 0, 66, 0
2, 67719, Note_on_c, 0, 78, 0
2, 67720, Note_on_c, 0, 76, 88
2, 67759, Note_on_c, 0, 76, 0
2, 67760, Note_on_c, 0, 75, 110
2, 67799, Note_on_c, 0, 75, 0
2, 67800, Note_on_c, 0, 63, 110
2, 67800, Note_on_c, 0, 75, 110
2, 67839, Note_on_c, 0, 75, 0
2, 67839, Note_on_c, 0, 63, 0
2, 67840, Note_on_c, 0, 74, 110
2, 67879, Note_on_c, 0, 74, 0
2, 67880, Note_on_c, 0, 73, 110
2, 67919, Note_on_c, 0, 73, 0
2, 67920, Note_on_c, 0, 61, 110
2, 67920, Note_on_c, 0, 73, 110
2, 67959, Note_on_c, 0, 73, 0
2, 67959, Note_on_c, 0, 61, 0
2, 67960, Note_on_c, 0, 72, 98
2, 67999, Note_on_c, 0, 72, 0
2, 68000, Note_on_c, 0, 69, 110
2, 68039, Note_on_c, 0, 69, 0
2, 68040, Note_on_c, 0, 84, 88
2, 68040, Note_on_c, 0, 96, 88
2, 68079, Note_on_c, 0, 96, 0
2, 68079, Note_on_c, 0, 84, 0
2, 68080, Note_on_c, 0, 95, 88
2, 68119, Note_on_c, 0, 95, 0
2, 68120, Note_on_c, 0, 94, 98
2, 68159, Note_on_c, 0, 94, 0
2, 68160, Note_on_c, 0, 82, 98
2, 68160, Note_on_c, 0, 94, 110
2, 68199, Note_on_c, 0, 94, 0
2, 68199, Note_on_c, 0, 82, 0
2, 68200, Note_on_c, 0, 93, 78
2, 68239, Note_on_c, 0, 93, 0
2, 68240, Note_on_c, 0, 92, 110
2, 68279, Note_on_c, 0, 92, 0
2, 68280, Note_on_c, 0, 80, 98
2, 68280, Note_on_c, 0, 92, 110
2, 68319, Note_on_c, 0, 92, 0
2, 68319, Note_on_c, 0, 80, 0
2, 68320, Note_on_c, 0, 90, 98
2, 68359, Note_on_c, 0, 90, 0
2, 68360, Note_on_c, 0, 89, 88
2, 68399, Note_on_c, 0, 89, 0
2, 68400, Note_on_c, 0, 89, 88
2, 68439, Note_on_c, 0, 89, 0
2, 68440, Note_on_c, 0, 88, 88
2, 68479, Note_on_c, 0, 88, 0
2, 68480, Note_on_c, 0, 87, 110
2, 68519, Note_on_c, 0, 87, 0
2, 68520, Note_on_c, 0, 87, 110
2, 68559, Note_on_c, 0, 87, 0
2, 68560, Note_on_c, 0, 86, 78
2, 68599, Note_on_c, 0, 86, 0
2, 68600, Note_on_c, 0, 92, 110
2, 68639, Note_on_c, 0, 92, 0
2, 68640, Note_on_c, 0, 95, 98
2, 68679, Note_on_c, 0, 95, 0
2, 68680, Note_on_c, 0, 86, 98
2, 68719, Note_on_c, 0, 86, 0
2, 68720, Note_on_c, 0, 85, 110
2, 68759, Note_on_c, 0, 85, 0
2, 68760, Note_on_c, 0, 89, 98
2, 68799, Note_on_c, 0, 89, 0
2, 68800, Note_on_c, 0, 87, 110
2, 68839, Note_on_c, 0, 87, 0
2, 68840, Note_on_c, 0, 83, 98
2, 68879, Note_on_c, 0, 83, 0
2, 68880, Note_on_c, 0, 75, 110
2, 68919, Note_on_c, 0, 75, 0
2, 68920, Note_on_c, 0, 75, 110
2, 68959, Note_on_c, 0, 75, 0
2, 68960, Note_on_c, 0, 75, 110
2, 68999, Note_on_c, 0, 75, 0
2, 69000, Note_on_c, 0, 75, 110
2, 69039, Note_on_c, 0, 75, 0
2, 69040, Note_on_c, 0, 75, 110
2, 69079, Note_on_c, 0, 75, 0
2, 69080, Note_on_c, 0, 75, 110
2, 69119, Note_on_c, 0, 75, 0
2, 69120, Note_on_c, 0, 75, 110
2, 69159, Note_on_c, 0, 75, 0
2, 69160, Note_on_c, 0, 75, 110
2, 69199, Note_on_c, 0, 75, 0
2, 69200, Note_on_c, 0, 75, 110
2, 69239, Note_on_c, 0, 75, 0
2, 69240, Note_on_c, 0, 75, 110
2, 69279, Note_on_c, 0, 75, 0
2, 69280, Note_on_c, 0, 75, 110
2, 69319, Note_on_c, 0, 75, 0
2, 69320, Note_on_c, 0, 75, 110
2, 69359, Note_on_c, 0, 75, 0
2, 69360, Note_on_c, 0, 90, 110
2, 69399, Note_on_c, 0, 90, 0
2, 69400, Note_on_c, 0, 87, 110
2, 69439, Note_on_c, 0, 87, 0
2, 69440, Note_on_c, 0, 83, 98
2, 69479, Note_on_c, 0, 83, 0
2, 69480, Note_on_c, 0, 75, 98
2, 69519, Note_on_c, 0, 75, 0
2, 69520, Note_on_c, 0, 75, 110
2, 69559, Note_on_c, 0, 75, 0
2, 69560, Note_on_c, 0, 75, 110
2, 69599, Note_on_c, 0, 75, 0
2, 69600, Note_on_c, 0, 75, 110
2, 69639, Note_on_c, 0, 75, 0
2, 69640, Note_on_c, 0, 75, 110
2, 69679, Note_on_c, 0, 75, 0
2, 69680, Note_on_c, 0, 75, 110
2, 69719, Note_on_c, 0, 75, 0
2, 69720, Note_on_c, 0, 74, 98
2, 69759, Note_on_c, 0, 74, 0
2, 69760, Note_on_c, 0, 79, 98
2, 69799, Note_on_c, 0, 79, 0
2, 69800, Note_on_c, 0, 83, 110
2, 69839, Note_on_c, 0, 83, 0
2, 69840, Note_on_c, 0, 92, 124
2, 69840, Note_on_c, 0, 88, 110
2, 69840, Note_on_c, 0, 80, 110
2, 69840, Note_on_c, 0, 95, 110
2, 70199, Note_on_c, 0, 95, 0
2, 70199, Note_on_c, 0, 92, 0
2, 70199, Note_on_c, 0, 88, 0
2, 70199, Note_on_c, 0, 80, 0
2, 70200, Note_on_c, 0, 67, 88
2, 70200, Note_on_c, 0, 74, 88
2, 70200, Note_on_c, 0, 79, 88
2, 70200, Note_on_c, 0, 83, 98
2, 70319, Note_on_c, 0, 83, 0
2, 70319, Note_on_c, 0, 67, 0
2, 70319, Note_on_c, 0, 74, 0
2, 70319, Note_on_c, 0, 79, 0
2, 70320, Note_on_c, 0, 80, 98
2, 70320, Note_on_c, 0, 88, 110
2, 70320, Note_on_c, 0, 92, 110
2, 70320, Note_on_c, 0, 95, 98
2, 70679, Note_on_c, 0, 95, 0
2, 70679, Note_on_c, 0, 80, 0
2, 70679, Note_on_c, 0, 88, 0
2, 70679, Note_on_c, 0, 92, 0
2, 70680, Note_on_c, 0, 67, 88
2, 70680, Note_on_c, 0, 74, 88
2, 70680, Note_on_c, 0, 79, 78
2, 70680, Note_on_c, 0, 83, 98
2, 70799, Note_on_c, 0, 83, 0
2, 70799, Note_on_c, 0, 67, 0
2, 70799, Note_on_c, 0, 74, 0
2, 70799, Note_on_c, 0, 79, 0
2, 70800, Note_on_c, 0, 88, 98
2, 70800, Note_on_c, 0, 92, 110
2, 70800, Note_on_c, 0, 80, 98
2, 70800, Note_on_c, 0, 95, 98
2, 70919, Note_on_c, 0, 95, 0
2, 70919, Note_on_c, 0, 88, 0
2, 70919, Note_on_c, 0, 92, 0
2, 70919, Note_on_c, 0, 80, 0
2, 70920, Note_on_c, 0, 83, 98
2, 70920, Note_on_c, 0, 67, 88
2, 70920, Note_on_c, 0, 74, 88
2, 70920, Note_on_c, 0, 79, 78
2, 71039, Note_on_c, 0, 79, 0
2, 71039, Note_on_c, 0, 83, 0
2, 71039, Note_on_c, 0, 67, 0
2, 71039, Note_on_c, 0, 74, 0
2, 71040, Note_on_c, 0, 80, 110
2, 71040, Note_on_c, 0, 88, 98
2, 71040, Note_on_c, 0, 92, 110
2, 71040, Note_on_c, 0, 95, 98
2, 71159, Note_on_c, 0, 95, 0
2, 71159, Note_on_c, 0, 80, 0
2, 71159, Note_on_c, 0, 88, 0
2, 71159, Note_on_c, 0, 92, 0
2, 71520, Note_on_c, 0, 57, 70
2, 71520, Note_on_c, 0, 72, 62
2, 71520, Note_on_c, 0, 69, 70
2, 71520, Note_on_c, 0, 65, 70
2, 71579, Note_on_c, 0, 65, 0
2, 71579, Note_on_c, 0, 57, 0
2, 71579, Note_on_c, 0, 72, 0
2, 71579, Note_on_c, 0, 69, 0
2, 71580, Note_on_c, 0, 69, 55
2, 71580, Note_on_c, 0, 65, 49
2, 71580, Note_on_c, 0, 72, 49
2, 71580, Note_on_c, 0, 57, 62
2, 71639, Note_on_c, 0, 57, 0
2, 71639, Note_on_c, 0, 69, 0
2, 71639, Note_on_c, 0, 65, 0
2, 71639, Note_on_c, 0, 72, 0
2, 71640, Note_on_c, 0, 57, 55
2, 71640, Note_on_c, 0, 72, 55
2, 71640, Note_on_c, 0, 69, 55
2, 71640, Note_on_c, 0, 65, 49
2, 71699, Note_on_c, 0, 65, 0
2, 71699, Note_on_c, 0, 57, 0
2, 71699, Note_on_c, 0, 72, 0
2, 71699, Note_on_c, 0, 69, 0
2, 71700, Note_on_c, 0, 72, 55
2, 71700, Note_on_c, 0, 57, 55
2, 71700, Note_on_c, 0, 65, 49
2, 71700, Note_on_c, 0, 69, 55
2, 71759, Note_on_c, 0, 69, 0
2, 71759, Note_on_c, 0, 72, 0
2, 71759, Note_on_c, 0, 57, 0
2, 71759, Note_on_c, 0, 65, 0
2, 71760, Note_on_c, 0, 57, 49
2, 71760, Note_on_c, 0, 72, 55
2, 71760, Note_on_c, 0, 65, 55
2, 71760, Note_on_c, 0, 69, 55
2, 71819, Note_on_c, 0, 69, 0
2, 71819, Note_on_c, 0, 57, 0
2, 71819, Note_on_c, 0, 72, 0
2, 71819, Note_on_c, 0, 65, 0
2, 71820, Note_on_c, 0, 72, 62
2, 71820, Note_on_c, 0, 57, 62
2, 71820, Note_on_c, 0, 65, 55
2, 71820, Note_on_c, 0, 69, 62
2, 71879, Note_on_c, 0, 69, 0
2, 71879, Note_on_c, 0, 72, 0
2, 71879, Note_on_c, 0, 57, 0
2, 71879, Note_on_c, 0, 65, 0
2, 72480, Note_on_c, 0, 57, 78
2, 72480, Note_on_c, 0, 72, 70
2, 72480, Note_on_c, 0, 69, 78
2, 72480, Note_on_c, 0, 65, 78
2, 72539, Note_on_c, 0, 65, 0
2, 72539, Note_on_c, 0, 57, 0
2, 72539, Note_on_c, 0, 72, 0
2, 72539, Note_on_c, 0, 69, 0
2, 72540, Note_on_c, 0, 65, 70
2, 72540, Note_on_c, 0, 72, 70
2, 72540, Note_on_c, 0, 69, 70
2, 72540, Note_on_c, 0, 57, 70
2, 72599, Note_on_c, 0, 57, 0
2, 72599, Note_on_c, 0, 65, 0
2, 72599, Note_on_c, 0, 72, 0
2, 72599, Note_on_c, 0, 69, 0
2, 72600, Note_on_c, 0, 65, 70
2, 72600, Note_on_c, 0, 57, 62
2, 72600, Note_on_c, 0, 72, 62
2, 72600, Note_on_c, 0, 69, 70
2, 72659, Note_on_c, 0, 69, 0
2, 72659, Note_on_c, 0, 65, 0
2, 72659, Note_on_c, 0, 57, 0
2, 72659, Note_on_c, 0, 72, 0
2, 72660, Note_on_c, 0, 57, 55
2, 72660, Note_on_c, 0, 65, 62
2, 72660, Note_on_c, 0, 72, 62
2, 72660, Note_on_c, 0, 69, 62
2, 72719, Note_on_c, 0, 69, 0
2, 72719, Note_on_c, 0, 57, 0
2, 72719, Note_on_c, 0, 65, 0
2, 72719, Note_on_c, 0, 72, 0
2, 72720, Note_on_c, 0, 57, 55
2, 72720, Note_on_c, 0, 72, 62
2, 72720, Note_on_c, 0, 65, 62
2, 72720, Note_on_c, 0, 69, 62
2, 72779, Note_on_c, 0, 69, 0
2, 72779, Note_on_c, 0, 57, 0
2, 72779, Note_on_c, 0, 72, 0
2, 72779, Note_on_c, 0, 65, 0
2, 72780, Note_on_c, 0, 57, 49
2, 72780, Note_on_c, 0, 65, 70
2, 72780, Note_on_c, 0, 72, 62
2, 72780, Note_on_c, 0, 69, 70
2, 72839, Note_on_c, 0, 69, 0
2, 72839, Note_on_c, 0, 57, 0
2, 72839, Note_on_c, 0, 65, 0
2, 72839, Note_on_c, 0, 72, 0
2, 72960, Note_on_c, 0, 57, 70
2, 72960, Note_on_c, 0, 65, 78
2, 72960, Note_on_c, 0, 69, 78
2, 72960, Note_on_c, 0, 72, 62
2, 73079, Note_on_c, 0, 72, 0
2, 73079, Note_on_c, 0, 57, 0
2, 73079, Note_on_c, 0, 65, 0
2, 73079, Note_on_c, 0, 69, 0
2, 73080, Note_on_c, 0, 57, 62
2, 73080, Note_on_c, 0, 65, 70
2, 73080, Note_on_c, 0, 72, 62
2, 73080, Note_on_c, 0, 69, 70
2, 73139, Note_on_c, 0, 69, 0
2, 73139, Note_on_c, 0, 57, 0
2, 73139, Note_on_c, 0, 65, 0
2, 73139, Note_on_c, 0, 72, 0
2, 73140, Note_on_c, 0, 65, 70
2, 73140, Note_on_c, 0, 72, 62
2, 73140, Note_on_c, 0, 69, 62
2, 73140, Note_on_c, 0, 57, 55
2, 73199, Note_on_c, 0, 57, 0
2, 73199, Note_on_c, 0, 65, 0
2, 73199, Note_on_c, 0, 72, 0
2, 73199, Note_on_c, 0, 69, 0
2, 73200, Note_on_c, 0, 65, 70
2, 73200, Note_on_c, 0, 72, 62
2, 73200, Note_on_c, 0, 69, 70
2, 73200, Note_on_c, 0, 57, 55
2, 73259, Note_on_c, 0, 57, 0
2, 73259, Note_on_c, 0, 65, 0
2, 73259, Note_on_c, 0, 72, 0
2, 73259, Note_on_c, 0, 69, 0
2, 73260, Note_on_c, 0, 65, 70
2, 73260, Note_on_c, 0, 72, 70
2, 73260, Note_on_c, 0, 69, 70
2, 73260, Note_on_c, 0, 57, 62
2, 73319, Note_on_c, 0, 57, 0
2, 73319, Note_on_c, 0, 65, 0
2, 73319, Note_on_c, 0, 72, 0
2, 73319, Note_on_c, 0, 69, 0
2, 73680, Note_on_c, 0, 66, 70
2, 73680, Note_on_c, 0, 62, 55
2, 75132, Note_on_c, 0, 50, 70
2, 75134, Note_on_c, 0, 64, 78
2, 75135, Note_on_c, 0, 62, 0
2, 75143, Note_on_c, 0, 66, 0
2, 75811, Note_on_c, 0, 50, 0
2, 75815, Note_on_c, 0, 64, 0
2, 75840, Note_on_c, 0, 50, 70
2, 75841, Note_on_c, 0, 64, 78
2, 76070, Note_on_c, 0, 63, 78
2, 76073, Note_on_c, 0, 64, 0
2, 76317, Note_on_c, 0, 62, 62
2, 76326, Note_on_c, 0, 63, 0
2, 76512, Note_on_c, 0, 50, 0
2, 76549, Note_on_c, 0, 50, 62
2, 76550, Note_on_c, 0, 60, 70
2, 76553, Note_on_c, 0, 62, 0
2, 76791, Note_on_c, 0, 59, 70
2, 76798, Note_on_c, 0, 60, 0
2, 77033, Note_on_c, 0, 57, 78
2, 77036, Note_on_c, 0, 59, 0
2, 77253, Note_on_c, 0, 50, 0
2, 77279, Note_on_c, 0, 50, 62
2, 77280, Note_on_c, 0, 57, 0
2, 77280, Note_on_c, 0, 55, 78
2, 77513, Note_on_c, 0, 59, 70
2, 77525, Note_on_c, 0, 55, 0
2, 77748, Note_on_c, 0, 62, 70
2, 77750, Note_on_c, 0, 59, 0
2, 77985, Note_on_c, 0, 50, 0
2, 78018, Note_on_c, 0, 62, 0
2, 78018, Note_on_c, 0, 50, 70
2, 78018, Note_on_c, 0, 60, 70
2, 78187, Note_on_c, 0, 52, 62
2, 78190, Note_on_c, 0, 50, 0
2, 78235, Note_on_c, 0, 52, 0
2, 78235, Note_on_c, 0, 60, 0
2, 78236, Note_on_c, 0, 62, 78
2, 78236, Note_on_c, 0, 53, 78
2, 78430, Note_on_c, 0, 52, 35
2, 78431, Note_on_c, 0, 53, 0
2, 78478, Note_on_c, 0, 52, 0
2, 78478, Note_on_c, 0, 62, 0
2, 78478, Note_on_c, 0, 53, 70
2, 78478, Note_on_c, 0, 60, 70
2, 78677, Note_on_c, 0, 54, 78
2, 78678, Note_on_c, 0, 53, 0
2, 78711, Note_on_c, 0, 60, 0
2, 78721, Note_on_c, 0, 54, 0
2, 78726, Note_on_c, 0, 55, 78
2, 78726, Note_on_c, 0, 67, 98
2, 79438, Note_on_c, 0, 56, 98
2, 79439, Note_on_c, 0, 68, 98
2, 79440, Note_on_c, 0, 55, 0
2, 79445, Note_on_c, 0, 67, 0
2, 80152, Note_on_c, 0, 56, 0
2, 80152, Note_on_c, 0, 55, 78
2, 80153, Note_on_c, 0, 67, 98
2, 80155, Note_on_c, 0, 68, 0
2, 80876, Note_on_c, 0, 58, 98
2, 80878, Note_on_c, 0, 70, 110
2, 80879, Note_on_c, 0, 55, 0
2, 80883, Note_on_c, 0, 67, 0
2, 81533, Note_on_c, 0, 70, 0
2, 81536, Note_on_c, 0, 58, 0
2, 81585, Note_on_c, 0, 67, 98
2, 81585, Note_on_c, 0, 75, 124
2, 81585, Note_on_c, 0, 79, 98
2, 81600, Note_on_c, 0, 67, 110
2, 81600, Note_on_c, 0, 75, 110
2, 81600, Note_on_c, 0, 79, 88
2, 81726, Note_on_c, 0, 75, 0
2, 81726, Note_on_c, 0, 67, 0
2, 81729, Note_on_c, 0, 79, 0
2, 81839, Note_on_c, 0, 67, 0
2, 81839, Note_on_c, 0, 75, 0
2, 81839, Note_on_c, 0, 79, 0
2, 81840, Note_on_c, 0, 66, 124
2, 81840, Note_on_c, 0, 78, 110
2, 81840, Note_on_c, 0, 75, 110
2, 81840, Note_on_c, 0, 79, 98
2, 82079, Note_on_c, 0, 79, 0
2, 82079, Note_on_c, 0, 66, 0
2, 82079, Note_on_c, 0, 78, 0
2, 82079, Note_on_c, 0, 75, 0
2, 82080, Note_on_c, 0, 67, 98
2, 82080, Note_on_c, 0, 71, 88
2, 82080, Note_on_c, 0, 77, 110
2, 82080, Note_on_c, 0, 65, 98
2, 82319, Note_on_c, 0, 65, 0
2, 82319, Note_on_c, 0, 67, 0
2, 82319, Note_on_c, 0, 71, 0
2, 82319, Note_on_c, 0, 77, 0
2, 82320, Note_on_c, 0, 68, 110
2, 82320, Note_on_c, 0, 74, 110
2, 82320, Note_on_c, 0, 62, 98
2, 82320, Note_on_c, 0, 77, 98
2, 82559, Note_on_c, 0, 77, 0
2, 82559, Note_on_c, 0, 68, 0
2, 82559, Note_on_c, 0, 74, 0
2, 82559, Note_on_c, 0, 62, 0
2, 82560, Note_on_c, 0, 62, 98
2, 82560, Note_on_c, 0, 67, 98
2, 82560, Note_on_c, 0, 77, 110
2, 82560, Note_on_c, 0, 74, 110
2, 82799, Note_on_c, 0, 74, 0
2, 82799, Note_on_c, 0, 62, 0
2, 82799, Note_on_c, 0, 67, 0
2, 82799, Note_on_c, 0, 77, 0
2, 82800, Note_on_c, 0, 67, 88
2, 82800, Note_on_c, 0, 60, 88
2, 82800, Note_on_c, 0, 76, 98
2, 82800, Note_on_c, 0, 71, 110
2, 83039, Note_on_c, 0, 71, 0
2, 83039, Note_on_c, 0, 67, 0
2, 83039, Note_on_c, 0, 60, 0
2, 83039, Note_on_c, 0, 76, 0
2, 83040, Note_on_c, 0, 60, 55
2, 83040, Note_on_c, 0, 65, 70
2, 83040, Note_on_c, 0, 75, 78
2, 83040, Note_on_c, 0, 68, 70
2, 83040, Note_on_c, 0, 70, 78
2, 83279, Note_on_c, 0, 65, 0
2, 83279, Note_on_c, 0, 60, 0
2, 83280, Note_on_c, 0, 62, 49
2, 83280, Note_on_c, 0, 65, 55
2, 83519, Note_on_c, 0, 65, 0
2, 83519, Note_on_c, 0, 62, 0
2, 83520, Note_on_c, 0, 63, 55
2, 83520, Note_on_c, 0, 67, 55
2, 83759, Note_on_c, 0, 67, 0
2, 83759, Note_on_c, 0, 70, 0
2, 83759, Note_on_c, 0, 68, 0
2, 83759, Note_on_c, 0, 75, 0
2, 83759, Note_on_c, 0, 63, 0
2, 83760, Note_on_c, 0, 68, 70
2, 83760, Note_on_c, 0, 72, 49
2, 83760, Note_on_c, 0, 62, 49
2, 83760, Note_on_c, 0, 70, 78
2, 83760, Note_on_c, 0, 74, 70
2, 83999, Note_on_c, 0, 62, 0
2, 83999, Note_on_c, 0, 68, 0
2, 83999, Note_on_c, 0, 72, 0
2, 84000, Note_on_c, 0, 61, 62
2, 84000, Note_on_c, 0, 70, 62
2, 84000, Note_on_c, 0, 67, 35
2, 84239, Note_on_c, 0, 67, 0
2, 84239, Note_on_c, 0, 61, 0
2, 84239, Note_on_c, 0, 70, 0
2, 84240, Note_on_c, 0, 68, 78
2, 84240, Note_on_c, 0, 72, 55
2, 84240, Note_on_c, 0, 62, 49
2, 84479, Note_on_c, 0, 62, 0
2, 84479, Note_on_c, 0, 68, 0
2, 84479, Note_on_c, 0, 74, 0
2, 84479, Note_on_c, 0, 70, 0
2, 84479, Note_on_c, 0, 72, 0
2, 84480, Note_on_c, 0, 70, 70
2, 84480, Note_on_c, 0, 68, 78
2, 84480, Note_on_c, 0, 62, 55
2, 84480, Note_on_c, 0, 75, 70
2, 84480, Note_on_c, 0, 72, 70
2, 84719, Note_on_c, 0, 62, 0
2, 84719, Note_on_c, 0, 70, 0
2, 84719, Note_on_c, 0, 68, 0
2, 84720, Note_on_c, 0, 74, 62
2, 84720, Note_on_c, 0, 62, 55
2, 84720, Note_on_c, 0, 68, 70
2, 84959, Note_on_c, 0, 68, 0
2, 84959, Note_on_c, 0, 74, 0
2, 84959, Note_on_c, 0, 72, 0
2, 84959, Note_on_c, 0, 75, 0
2, 84959, Note_on_c, 0, 62, 0
2, 84960, Note_on_c, 0, 63, 49
2, 84960, Note_on_c, 0, 70, 55
2, 84960, Note_on_c, 0, 67, 44
2, 84960, Note_on_c, 0, 75, 78
2, 85079, Note_on_c, 0, 75, 0
2, 85080, Note_on_c, 0, 74, 70
2, 85199, Note_on_c, 0, 74, 0
2, 85199, Note_on_c, 0, 67, 0
2, 85199, Note_on_c, 0, 70, 0
2, 85199, Note_on_c, 0, 63, 0
2, 85200, Note_on_c, 0, 62, 62
2, 85200, Note_on_c, 0, 75, 70
2, 85200, Note_on_c, 0, 68, 62
2, 85200, Note_on_c, 0, 70, 78
2, 85200, Note_on_c, 0, 72, 62
2, 85680, Note_on_c, 0, 74, 62
2, 85799, Note_on_c, 0, 74, 0
2, 85800, Note_on_c, 0, 73, 62
2, 85919, Note_on_c, 0, 73, 0
2, 85919, Note_on_c, 0, 72, 0
2, 85919, Note_on_c, 0, 68, 0
2, 85919, Note_on_c, 0, 62, 0
2, 85919, Note_on_c, 0, 75, 0
2, 85919, Note_on_c, 0, 70, 0
2, 85920, Note_on_c, 0, 72, 55
2, 85920, Note_on_c, 0, 62, 49
2, 85920, Note_on_c, 0, 67, 55
2, 85920, Note_on_c, 0, 70, 70
2, 85920, Note_on_c, 0, 74, 62
2, 86159, Note_on_c, 0, 67, 0
2, 86159, Note_on_c, 0, 72, 0
2, 86159, Note_on_c, 0, 62, 0
2, 86160, Note_on_c, 0, 68, 70
2, 86160, Note_on_c, 0, 71, 55
2, 86160, Note_on_c, 0, 62, 49
2, 86399, Note_on_c, 0, 62, 0
2, 86399, Note_on_c, 0, 68, 0
2, 86399, Note_on_c, 0, 74, 0
2, 86399, Note_on_c, 0, 70, 0
2, 86399, Note_on_c, 0, 71, 0
2, 86400, Note_on_c, 0, 75, 62
2, 86400, Note_on_c, 0, 68, 62
2, 86400, Note_on_c, 0, 72, 55
2, 86400, Note_on_c, 0, 63, 70
2, 86519, Note_on_c, 0, 63, 0
2, 86520, Note_on_c, 0, 62, 62
2, 86639, Note_on_c, 0, 62, 0
2, 86639, Note_on_c, 0, 72, 0
2, 86639, Note_on_c, 0, 68, 0
2, 86639, Note_on_c, 0, 75, 0
2, 86640, Note_on_c, 0, 60, 55
2, 86640, Note_on_c, 0, 75, 78
2, 86640, Note_on_c, 0, 68, 70
2, 86640, Note_on_c, 0, 70, 78
2, 86640, Note_on_c, 0, 72, 62
2, 86879, Note_on_c, 0, 60, 0
2, 86880, Note_on_c, 0, 61, 62
2, 87119, Note_on_c, 0, 61, 0
2, 87120, Note_on_c, 0, 62, 62
2, 87359, Note_on_c, 0, 62, 0
2, 87359, Note_on_c, 0, 70, 0
2, 87359, Note_on_c, 0, 75, 0
2, 87359, Note_on_c, 0, 68, 0
2, 87359, Note_on_c, 0, 72, 0
2, 87360, Note_on_c, 0, 70, 78
2, 87360, Note_on_c, 0, 60, 55
2, 87360, Note_on_c, 0, 75, 78
2, 87360, Note_on_c, 0, 68, 78
2, 87360, Note_on_c, 0, 72, 62
2, 87599, Note_on_c, 0, 60, 0
2, 87599, Note_on_c, 0, 70, 0
2, 87600, Note_on_c, 0, 70, 70
2, 87600, Note_on_c, 0, 62, 55
2, 87839, Note_on_c, 0, 62, 0
2, 87839, Note_on_c, 0, 70, 0
2, 87840, Note_on_c, 0, 63, 70
2, 87840, Note_on_c, 0, 65, 70
2, 88079, Note_on_c, 0, 65, 0
2, 88079, Note_on_c, 0, 72, 0
2, 88079, Note_on_c, 0, 68, 0
2, 88079, Note_on_c, 0, 75, 0
2, 88079, Note_on_c, 0, 63, 0
2, 88080, Note_on_c, 0, 70, 70
2, 88080, Note_on_c, 0, 60, 55
2, 88080, Note_on_c, 0, 67, 55
2, 88080, Note_on_c, 0, 75, 78
2, 88080, Note_on_c, 0, 72, 70
2, 88319, Note_on_c, 0, 67, 0
2, 88319, Note_on_c, 0, 70, 0
2, 88319, Note_on_c, 0, 60, 0
2, 88320, Note_on_c, 0, 74, 70
2, 88320, Note_on_c, 0, 62, 62
2, 88320, Note_on_c, 0, 68, 78
2, 88559, Note_on_c, 0, 68, 0
2, 88559, Note_on_c, 0, 74, 0
2, 88559, Note_on_c, 0, 72, 0
2, 88559, Note_on_c, 0, 75, 0
2, 88559, Note_on_c, 0, 62, 0
2, 88560, Note_on_c, 0, 70, 78
2, 88560, Note_on_c, 0, 63, 62
2, 88560, Note_on_c, 0, 67, 62
2, 88560, Note_on_c, 0, 75, 70
2, 88679, Note_on_c, 0, 75, 0
2, 88680, Note_on_c, 0, 74, 70
2, 88799, Note_on_c, 0, 74, 0
2, 88799, Note_on_c, 0, 67, 0
2, 88799, Note_on_c, 0, 63, 0
2, 88799, Note_on_c, 0, 70, 0
2, 88800, Note_on_c, 0, 63, 78
2, 88800, Note_on_c, 0, 60, 44
2, 88800, Note_on_c, 0, 68, 78
2, 88800, Note_on_c, 0, 75, 78
2, 88800, Note_on_c, 0, 70, 88
2, 89039, Note_on_c, 0, 60, 0
2, 89039, Note_on_c, 0, 63, 0
2, 89040, Note_on_c, 0, 62, 55
2, 89040, Note_on_c, 0, 65, 70
2, 89279, Note_on_c, 0, 65, 0
2, 89279, Note_on_c, 0, 62, 0
2, 89280, Note_on_c, 0, 63, 62
2, 89280, Note_on_c, 0, 67, 62
2, 89519, Note_on_c, 0, 67, 0
2, 89519, Note_on_c, 0, 70, 0
2, 89519, Note_on_c, 0, 75, 0
2, 89519, Note_on_c, 0, 68, 0
2, 89519, Note_on_c, 0, 63, 0
2, 89520, Note_on_c, 0, 62, 62
2, 89520, Note_on_c, 0, 68, 55
2, 89520, Note_on_c, 0, 72, 49
2, 89520, Note_on_c, 0, 70, 70
2, 89520, Note_on_c, 0, 75, 70
2, 89999, Note_on_c, 0, 75, 0
2, 90000, Note_on_c, 0, 74, 62
2, 90119, Note_on_c, 0, 74, 0
2, 90120, Note_on_c, 0, 73, 62
2, 90239, Note_on_c, 0, 73, 0
2, 90239, Note_on_c, 0, 72, 0
2, 90239, Note_on_c, 0, 62, 0
2, 90239, Note_on_c, 0, 68, 0
2, 90239, Note_on_c, 0, 70, 0
2, 90240, Note_on_c, 0, 60, 70
2, 90240, Note_on_c, 0, 74, 78
2, 90240, Note_on_c, 0, 66, 98
2, 90240, Note_on_c, 0, 69, 70
2, 90240, Note_on_c, 0, 74, 70
2, 90479, Note_on_c, 0, 69, 0
2, 90479, Note_on_c, 0, 66, 0
2, 90479, Note_on_c, 0, 60, 0
2, 90479, Note_on_c, 0, 74, 0
2, 90480, Note_on_c, 0, 73, 88
2, 90480, Note_on_c, 0, 61, 78
2, 90480, Note_on_c, 0, 68, 88
2, 90480, Note_on_c, 0, 65, 78
2, 90719, Note_on_c, 0, 65, 0
2, 90719, Note_on_c, 0, 61, 0
2, 90719, Note_on_c, 0, 68, 0
2, 90719, Note_on_c, 0, 73, 0
2, 90720, Note_on_c, 0, 72, 70
2, 90720, Note_on_c, 0, 66, 88
2, 90720, Note_on_c, 0, 62, 70
2, 90720, Note_on_c, 0, 69, 78
2, 90959, Note_on_c, 0, 69, 0
2, 90959, Note_on_c, 0, 66, 0
2, 90959, Note_on_c, 0, 74, 0
2, 90959, Note_on_c, 0, 72, 0
2, 90959, Note_on_c, 0, 62, 0
2, 90960, Note_on_c, 0, 62, 62
2, 90960, Note_on_c, 0, 75, 70
2, 90960, Note_on_c, 0, 70, 70
2, 90960, Note_on_c, 0, 68, 62
2, 90960, Note_on_c, 0, 72, 62
2, 91679, Note_on_c, 0, 72, 0
2, 91679, Note_on_c, 0, 70, 0
2, 91679, Note_on_c, 0, 62, 0
2, 91679, Note_on_c, 0, 75, 0
2, 91679, Note_on_c, 0, 68, 0
2, 91680, Note_on_c, 0, 64, 70
2, 91680, Note_on_c, 0, 75, 70
2, 91680, Note_on_c, 0, 68, 78
2, 91680, Note_on_c, 0, 70, 70
2, 91680, Note_on_c, 0, 72, 62
2, 92399, Note_on_c, 0, 72, 0
2, 92399, Note_on_c, 0, 68, 0
2, 92399, Note_on_c, 0, 64, 0
2, 92399, Note_on_c, 0, 75, 0
2, 92399, Note_on_c, 0, 70, 0
2, 92400, Note_on_c, 0, 70, 44
2, 92400, Note_on_c, 0, 73, 70
2, 92400, Note_on_c, 0, 62, 44
2, 92400, Note_on_c, 0, 77, 49
2, 92639, Note_on_c, 0, 77, 0
2, 92639, Note_on_c, 0, 70, 0
2, 92639, Note_on_c, 0, 73, 0
2, 92639, Note_on_c, 0, 62, 0
2, 92640, Note_on_c, 0, 73, 70
2, 92640, Note_on_c, 0, 76, 55
2, 92640, Note_on_c, 0, 67, 39
2, 92642, Note_on_c, 0, 61, 62
2, 92879, Note_on_c, 0, 67, 0
2, 92879, Note_on_c, 0, 73, 0
2, 92879, Note_on_c, 0, 76, 0
2, 92880, Note_on_c, 0, 68, 62
2, 92880, Note_on_c, 0, 77, 70
2, 92880, Note_on_c, 0, 76, 70
2, 92880, Note_on_c, 0, 62, 55
2, 92881, Note_on_c, 0, 61, 0
2, 93119, Note_on_c, 0, 76, 0
2, 93119, Note_on_c, 0, 68, 0
2, 93119, Note_on_c, 0, 77, 0
2, 93119, Note_on_c, 0, 62, 0
2, 93120, Note_on_c, 0, 64, 88
2, 93120, Note_on_c, 0, 78, 88
2, 93120, Note_on_c, 0, 70, 88
2, 93120, Note_on_c, 0, 73, 88
2, 93839, Note_on_c, 0, 73, 0
2, 93839, Note_on_c, 0, 64, 0
2, 93839, Note_on_c, 0, 78, 0
2, 93839, Note_on_c, 0, 70, 0
2, 93840, Note_on_c, 0, 62, 55
2, 93840, Note_on_c, 0, 70, 62
2, 93840, Note_on_c, 0, 73, 70
2, 93840, Note_on_c, 0, 77, 55
2, 94079, Note_on_c, 0, 77, 0
2, 94079, Note_on_c, 0, 62, 0
2, 94079, Note_on_c, 0, 70, 0
2, 94079, Note_on_c, 0, 73, 0
2, 94080, Note_on_c, 0, 73, 70
2, 94080, Note_on_c, 0, 61, 70
2, 94080, Note_on_c, 0, 67, 49
2, 94080, Note_on_c, 0, 76, 55
2, 94319, Note_on_c, 0, 76, 0
2, 94319, Note_on_c, 0, 73, 0
2, 94319, Note_on_c, 0, 61, 0
2, 94319, Note_on_c, 0, 67, 0
2, 94320, Note_on_c, 0, 75, 78
2, 94320, Note_on_c, 0, 62, 55
2, 94320, Note_on_c, 0, 68, 55
2, 94320, Note_on_c, 0, 77, 62
2, 94559, Note_on_c, 0, 77, 0
2, 94559, Note_on_c, 0, 75, 0
2, 94559, Note_on_c, 0, 62, 0
2, 94559, Note_on_c, 0, 68, 0
2, 94560, Note_on_c, 0, 64, 88
2, 94560, Note_on_c, 0, 78, 88
2, 94560, Note_on_c, 0, 70, 88
2, 94560, Note_on_c, 0, 73, 88
2, 95279, Note_on_c, 0, 73, 0
2, 95279, Note_on_c, 0, 64, 0
2, 95279, Note_on_c, 0, 78, 0
2, 95279, Note_on_c, 0, 70, 0
2, 95280, Note_on_c, 0, 70, 62
2, 95280, Note_on_c, 0, 62, 70
2, 95280, Note_on_c, 0, 73, 78
2, 95280, Note_on_c, 0, 77, 62
2, 95519, Note_on_c, 0, 77, 0
2, 95519, Note_on_c, 0, 70, 0
2, 95519, Note_on_c, 0, 62, 0
2, 95519, Note_on_c, 0, 73, 0
2, 95520, Note_on_c, 0, 61, 70
2, 95520, Note_on_c, 0, 67, 55
2, 95520, Note_on_c, 0, 73, 78
2, 95520, Note_on_c, 0, 76, 62
2, 95759, Note_on_c, 0, 76, 0
2, 95759, Note_on_c, 0, 61, 0
2, 95759, Note_on_c, 0, 67, 0
2, 95759, Note_on_c, 0, 73, 0
2, 95760, Note_on_c, 0, 68, 70
2, 95760, Note_on_c, 0, 62, 62
2, 95760, Note_on_c, 0, 76, 70
2, 95760, Note_on_c, 0, 77, 62
2, 95999, Note_on_c, 0, 77, 0
2, 95999, Note_on_c, 0, 68, 0
2, 95999, Note_on_c, 0, 62, 0
2, 95999, Note_on_c, 0, 76, 0
2, 96000, Note_on_c, 0, 78, 78
2, 96000, Note_on_c, 0, 70, 78
2, 96000, Note_on_c, 0, 73, 78
2, 96000, Note_on_c, 0, 64, 70
2, 96719, Note_on_c, 0, 64, 0
2, 96719, Note_on_c, 0, 78, 0
2, 96719, Note_on_c, 0, 70, 0
2, 96719, Note_on_c, 0, 73, 0
2, 96720, Note_on_c, 0, 62, 44
2, 96720, Note_on_c, 0, 77, 62
2, 96720, Note_on_c, 0, 70, 62
2, 96720, Note_on_c, 0, 73, 70
2, 96959, Note_on_c, 0, 73, 0
2, 96959, Note_on_c, 0, 62, 0
2, 96959, Note_on_c, 0, 77, 0
2, 96959, Note_on_c, 0, 70, 0
2, 96960, Note_on_c, 0, 73, 88
2, 96960, Note_on_c, 0, 61, 70
2, 96960, Note_on_c, 0, 67, 55
2, 96960, Note_on_c, 0, 77, 70
2, 97199, Note_on_c, 0, 77, 0
2, 97199, Note_on_c, 0, 73, 0
2, 97199, Note_on_c, 0, 61, 0
2, 97199, Note_on_c, 0, 67, 0
2, 97200, Note_on_c, 0, 68, 78
2, 97200, Note_on_c, 0, 62, 62
2, 97200, Note_on_c, 0, 76, 70
2, 97200, Note_on_c, 0, 77, 62
2, 97439, Note_on_c, 0, 77, 0
2, 97439, Note_on_c, 0, 68, 0
2, 97439, Note_on_c, 0, 62, 0
2, 97439, Note_on_c, 0, 76, 0
2, 97440, Note_on_c, 0, 70, 70
2, 97440, Note_on_c, 0, 78, 78
2, 97440, Note_on_c, 0, 73, 88
2, 97440, Note_on_c, 0, 65, 62
2, 97679, Note_on_c, 0, 65, 0
2, 97679, Note_on_c, 0, 70, 0
2, 97679, Note_on_c, 0, 78, 0
2, 97679, Note_on_c, 0, 73, 0
2, 97680, Note_on_c, 0, 68, 70
2, 97680, Note_on_c, 0, 79, 70
2, 97680, Note_on_c, 0, 74, 88
2, 97680, Note_on_c, 0, 64, 49
2, 97919, Note_on_c, 0, 64, 0
2, 97919, Note_on_c, 0, 68, 0
2, 97919, Note_on_c, 0, 79, 0
2, 97919, Note_on_c, 0, 74, 0
2, 97920, Note_on_c, 0, 72, 62
2, 97920, Note_on_c, 0, 80, 78
2, 97920, Note_on_c, 0, 75, 88
2, 97920, Note_on_c, 0, 67, 70
2, 98159, Note_on_c, 0, 67, 0
2, 98159, Note_on_c, 0, 72, 0
2, 98159, Note_on_c, 0, 80, 0
2, 98159, Note_on_c, 0, 75, 0
2, 98160, Note_on_c, 0, 66, 98
2, 98160, Note_on_c, 0, 81, 88
2, 98160, Note_on_c, 0, 78, 110
2, 98160, Note_on_c, 0, 74, 98
2, 98399, Note_on_c, 0, 66, 0
2, 98400, Note_on_c, 0, 67, 78
2, 98639, Note_on_c, 0, 67, 0
2, 98639, Note_on_c, 0, 74, 0
2, 98639, Note_on_c, 0, 78, 0
2, 98639, Note_on_c, 0, 81, 0
2, 98640, Note_on_c, 0, 69, 78
2, 98640, Note_on_c, 0, 80, 78
2, 98640, Note_on_c, 0, 77, 62
2, 98879, Note_on_c, 0, 77, 0
2, 98879, Note_on_c, 0, 80, 0
2, 98879, Note_on_c, 0, 69, 0
2, 98880, Note_on_c, 0, 69, 62
2, 98880, Note_on_c, 0, 77, 62
2, 98880, Note_on_c, 0, 82, 62
2, 98880, Note_on_c, 0, 76, 49
2, 99119, Note_on_c, 0, 76, 0
2, 99119, Note_on_c, 0, 69, 0
2, 99119, Note_on_c, 0, 77, 0
2, 99119, Note_on_c, 0, 82, 0
2, 99120, Note_on_c, 0, 68, 88
2, 99120, Note_on_c, 0, 80, 62
2, 99120, Note_on_c, 0, 83, 55
2, 99120, Note_on_c, 0, 76, 44
2, 99120, Note_on_c, 0, 77, 55
2, 99359, Note_on_c, 0, 77, 0
2, 99359, Note_on_c, 0, 83, 0
2, 99359, Note_on_c, 0, 68, 0
2, 99359, Note_on_c, 0, 80, 0
2, 99359, Note_on_c, 0, 76, 0
2, 99360, Note_on_c, 0, 68, 62
2, 99360, Note_on_c, 0, 84, 62
2, 99360, Note_on_c, 0, 76, 55
2, 99360, Note_on_c, 0, 79, 62
2, 99360, Note_on_c, 0, 77, 70
2, 99599, Note_on_c, 0, 77, 0
2, 99599, Note_on_c, 0, 76, 0
2, 99599, Note_on_c, 0, 68, 0
2, 99599, Note_on_c, 0, 84, 0
2, 99599, Note_on_c, 0, 79, 0
2, 99600, Note_on_c, 0, 69, 62
2, 99839, Note_on_c, 0, 69, 0
2, 99840, Note_on_c, 0, 86, 62
2, 99840, Note_on_c, 0, 79, 49
2, 99840, Note_on_c, 0, 81, 55
2, 100079, Note_on_c, 0, 81, 0
2, 100079, Note_on_c, 0, 79, 0
2, 100079, Note_on_c, 0, 86, 0
2, 100080, Note_on_c, 0, 78, 62
2, 100080, Note_on_c, 0, 81, 62
2, 100080, Note_on_c, 0, 86, 62
2, 100319, Note_on_c, 0, 86, 0
2, 100319, Note_on_c, 0, 81, 0
2, 100319, Note_on_c, 0, 78, 0
2, 100320, Note_on_c, 0, 77, 62
2, 100320, Note_on_c, 0, 72, 49
2, 100320, Note_on_c, 0, 80, 78
2, 100320, Note_on_c, 0, 87, 70
2, 100320, Note_on_c, 0, 82, 62
2, 100559, Note_on_c, 0, 72, 0
2, 100559, Note_on_c, 0, 77, 0
2, 100560, Note_on_c, 0, 77, 62
2, 100560, Note_on_c, 0, 74, 49
2, 100799, Note_on_c, 0, 74, 0
2, 100799, Note_on_c, 0, 77, 0
2, 100800, Note_on_c, 0, 75, 62
2, 100800, Note_on_c, 0, 79, 55
2, 101039, Note_on_c, 0, 79, 0
2, 101039, Note_on_c, 0, 82, 0
2, 101039, Note_on_c, 0, 87, 0
2, 101039, Note_on_c, 0, 80, 0
2, 101039, Note_on_c, 0, 75, 0
2, 101040, Note_on_c, 0, 84, 62
2, 101040, Note_on_c, 0, 80, 70
2, 101040, Note_on_c, 0, 74, 55
2, 101040, Note_on_c, 0, 86, 70
2, 101040, Note_on_c, 0, 82, 70
2, 101279, Note_on_c, 0, 74, 0
2, 101279, Note_on_c, 0, 84, 0
2, 101279, Note_on_c, 0, 80, 0
2, 101280, Note_on_c, 0, 82, 70
2, 101280, Note_on_c, 0, 73, 55
2, 101280, Note_on_c, 0, 79, 55
2, 101519, Note_on_c, 0, 79, 0
2, 101519, Note_on_c, 0, 82, 0
2, 101519, Note_on_c, 0, 73, 0
2, 101520, Note_on_c, 0, 74, 62
2, 101520, Note_on_c, 0, 80, 70
2, 101520, Note_on_c, 0, 84, 62
2, 101759, Note_on_c, 0, 84, 0
2, 101759, Note_on_c, 0, 74, 0
2, 101759, Note_on_c, 0, 82, 0
2, 101759, Note_on_c, 0, 86, 0
2, 101759, Note_on_c, 0, 80, 0
2, 101760, Note_on_c, 0, 72, 62
2, 101760, Note_on_c, 0, 79, 62
2, 101760, Note_on_c, 0, 82, 62
2, 101760, Note_on_c, 0, 84, 70
2, 101760, Note_on_c, 0, 87, 78
2, 101999, Note_on_c, 0, 82, 0
2, 101999, Note_on_c, 0, 72, 0
2, 101999, Note_on_c, 0, 79, 0
2, 102000, Note_on_c, 0, 86, 70
2, 102000, Note_on_c, 0, 74, 62
2, 102000, Note_on_c, 0, 80, 78
2, 102239, Note_on_c, 0, 80, 0
2, 102239, Note_on_c, 0, 86, 0
2, 102239, Note_on_c, 0, 74, 0
2, 102240, Note_on_c, 0, 75, 70
2, 102240, Note_on_c, 0, 82, 62
2, 102240, Note_on_c, 0, 79, 55
2, 102240, Note_on_c, 0, 87, 70
2, 102359, Note_on_c, 0, 87, 0
2, 102360, Note_on_c, 0, 86, 78
2, 102479, Note_on_c, 0, 86, 0
2, 102479, Note_on_c, 0, 79, 0
2, 102479, Note_on_c, 0, 75, 0
2, 102479, Note_on_c, 0, 87, 0
2, 102479, Note_on_c, 0, 84, 0
2, 102479, Note_on_c, 0, 82, 0
2, 102480, Note_on_c, 0, 87, 62
2, 102480, Note_on_c, 0, 82, 70
2, 102480, Note_on_c, 0, 80, 70
2, 102480, Note_on_c, 0, 84, 62
2, 102486, Note_on_c, 0, 74, 88
2, 102960, Note_on_c, 0, 86, 70
2, 103079, Note_on_c, 0, 86, 0
2, 103080, Note_on_c, 0, 85, 78
2, 103199, Note_on_c, 0, 85, 0
2, 103199, Note_on_c, 0, 84, 0
2, 103199, Note_on_c, 0, 80, 0
2, 103199, Note_on_c, 0, 87, 0
2, 103199, Note_on_c, 0, 82, 0
2, 103200, Note_on_c, 0, 74, 62
2, 103200, Note_on_c, 0, 79, 62
2, 103200, Note_on_c, 0, 84, 62
2, 103200, Note_on_c, 0, 82, 88
2, 103200, Note_on_c, 0, 86, 88
2, 103205, Note_on_c, 0, 74, 0
2, 103439, Note_on_c, 0, 84, 0
2, 103439, Note_on_c, 0, 74, 0
2, 103439, Note_on_c, 0, 79, 0
2, 103440, Note_on_c, 0, 80, 70
2, 103440, Note_on_c, 0, 83, 70
2, 103440, Note_on_c, 0, 74, 62
2, 103679, Note_on_c, 0, 74, 0
2, 103679, Note_on_c, 0, 80, 0
2, 103679, Note_on_c, 0, 83, 0
2, 103679, Note_on_c, 0, 86, 0
2, 103680, Note_on_c, 0, 87, 70
2, 103680, Note_on_c, 0, 80, 55
2, 103680, Note_on_c, 0, 84, 55
2, 103680, Note_on_c, 0, 75, 88
2, 103799, Note_on_c, 0, 75, 0
2, 103800, Note_on_c, 0, 74, 88
2, 103919, Note_on_c, 0, 74, 0
2, 103919, Note_on_c, 0, 84, 0
2, 103919, Note_on_c, 0, 82, 0
2, 103919, Note_on_c, 0, 87, 0
2, 103919, Note_on_c, 0, 80, 0
2, 103920, Note_on_c, 0, 72, 78
2, 103920, Note_on_c, 0, 87, 78
2, 103920, Note_on_c, 0, 80, 62
2, 103920, Note_on_c, 0, 82, 70
2, 103920, Note_on_c, 0, 84, 62
2, 104159, Note_on_c, 0, 72, 0
2, 104160, Note_on_c, 0, 73, 70
2, 104399, Note_on_c, 0, 73, 0
2, 104400, Note_on_c, 0, 74, 62
2, 104639, Note_on_c, 0, 74, 0
2, 104639, Note_on_c, 0, 82, 0
2, 104639, Note_on_c, 0, 87, 0
2, 104639, Note_on_c, 0, 80, 0
2, 104639, Note_on_c, 0, 84, 0
2, 104640, Note_on_c, 0, 72, 70
2, 104640, Note_on_c, 0, 82, 70
2, 104640, Note_on_c, 0, 87, 78
2, 104640, Note_on_c, 0, 80, 62
2, 104640, Note_on_c, 0, 84, 62
2, 104879, Note_on_c, 0, 82, 0
2, 104879, Note_on_c, 0, 72, 0
2, 104880, Note_on_c, 0, 74, 70
2, 104880, Note_on_c, 0, 82, 70
2, 105119, Note_on_c, 0, 82, 0
2, 105119, Note_on_c, 0, 74, 0
2, 105120, Note_on_c, 0, 77, 70
2, 105120, Note_on_c, 0, 75, 70
2, 105359, Note_on_c, 0, 75, 0
2, 105359, Note_on_c, 0, 84, 0
2, 105359, Note_on_c, 0, 80, 0
2, 105359, Note_on_c, 0, 87, 0
2, 105359, Note_on_c, 0, 77, 0
2, 105360, Note_on_c, 0, 72, 70
2, 105360, Note_on_c, 0, 79, 70
2, 105360, Note_on_c, 0, 82, 70
2, 105360, Note_on_c, 0, 84, 78
2, 105360, Note_on_c, 0, 87, 78
2, 105599, Note_on_c, 0, 82, 0
2, 105599, Note_on_c, 0, 72, 0
2, 105599, Note_on_c, 0, 79, 0
2, 105600, Note_on_c, 0, 86, 70
2, 105600, Note_on_c, 0, 74, 70
2, 105600, Note_on_c, 0, 80, 78
2, 105839, Note_on_c, 0, 80, 0
2, 105839, Note_on_c, 0, 86, 0
2, 105839, Note_on_c, 0, 74, 0
2, 105839, Note_on_c, 0, 87, 0
2, 105840, Note_on_c, 0, 79, 62
2, 105840, Note_on_c, 0, 82, 70
2, 105840, Note_on_c, 0, 87, 88
2, 105959, Note_on_c, 0, 87, 0
2, 105960, Note_on_c, 0, 86, 78
2, 106079, Note_on_c, 0, 86, 0
2, 106079, Note_on_c, 0, 82, 0
2, 106079, Note_on_c, 0, 79, 0
2, 106079, Note_on_c, 0, 84, 0
2, 106080, Note_on_c, 0, 75, 78
2, 106080, Note_on_c, 0, 72, 55
2, 106080, Note_on_c, 0, 87, 88
2, 106080, Note_on_c, 0, 80, 62
2, 106080, Note_on_c, 0, 82, 70
2, 106319, Note_on_c, 0, 72, 0
2, 106319, Note_on_c, 0, 75, 0
2, 106320, Note_on_c, 0, 77, 62
2, 106320, Note_on_c, 0, 74, 55
2, 106559, Note_on_c, 0, 74, 0
2, 106559, Note_on_c, 0, 77, 0
2, 106560, Note_on_c, 0, 75, 78
2, 106560, Note_on_c, 0, 79, 62
2, 106799, Note_on_c, 0, 79, 0
2, 106799, Note_on_c, 0, 82, 0
2, 106799, Note_on_c, 0, 80, 0
2, 106799, Note_on_c, 0, 87, 0
2, 106799, Note_on_c, 0, 75, 0
2, 106800, Note_on_c, 0, 84, 70
2, 106800, Note_on_c, 0, 82, 62
2, 106800, Note_on_c, 0, 80, 78
2, 106800, Note_on_c, 0, 74, 55
2, 106800, Note_on_c, 0, 87, 88
2, 107279, Note_on_c, 0, 87, 0
2, 107280, Note_on_c, 0, 86, 70
2, 107399, Note_on_c, 0, 86, 0
2, 107400, Note_on_c, 0, 85, 88
2, 107519, Note_on_c, 0, 85, 0
2, 107519, Note_on_c, 0, 80, 0
2, 107519, Note_on_c, 0, 84, 0
2, 107519, Note_on_c, 0, 82, 0
2, 107519, Note_on_c, 0, 74, 0
2, 107520, Note_on_c, 0, 72, 49
2, 107520, Note_on_c, 0, 86, 55
2, 107520, Note_on_c, 0, 78, 62
2, 107520, Note_on_c, 0, 81, 49
2, 107520, Note_on_c, 0, 86, 88
2, 107759, Note_on_c, 0, 81, 0
2, 107759, Note_on_c, 0, 78, 0
2, 107759, Note_on_c, 0, 72, 0
2, 107759, Note_on_c, 0, 86, 0
2, 107760, Note_on_c, 0, 85, 70
2, 107760, Note_on_c, 0, 73, 62
2, 107760, Note_on_c, 0, 80, 62
2, 107760, Note_on_c, 0, 77, 55
2, 107999, Note_on_c, 0, 77, 0
2, 107999, Note_on_c, 0, 73, 0
2, 107999, Note_on_c, 0, 80, 0
2, 107999, Note_on_c, 0, 85, 0
2, 108000, Note_on_c, 0, 84, 70
2, 108000, Note_on_c, 0, 78, 78
2, 108000, Note_on_c, 0, 74, 62
2, 108000, Note_on_c, 0, 81, 62
2, 108239, Note_on_c, 0, 81, 0
2, 108239, Note_on_c, 0, 78, 0
2, 108239, Note_on_c, 0, 86, 0
2, 108239, Note_on_c, 0, 84, 0
2, 108239, Note_on_c, 0, 74, 0
2, 108240, Note_on_c, 0, 74, 70
2, 108240, Note_on_c, 0, 88, 70
2, 108240, Note_on_c, 0, 80, 55
2, 108240, Note_on_c, 0, 82, 78
2, 108240, Note_on_c, 0, 84, 55
2, 108959, Note_on_c, 0, 84, 0
2, 108959, Note_on_c, 0, 80, 0
2, 108959, Note_on_c, 0, 74, 0
2, 108959, Note_on_c, 0, 88, 0
2, 108959, Note_on_c, 0, 82, 0
2, 108960, Note_on_c, 0, 77, 62
2, 108960, Note_on_c, 0, 67, 49
2, 108960, Note_on_c, 0, 72, 55
2, 108960, Note_on_c, 0, 65, 55
2, 109439, Note_on_c, 0, 65, 0
2, 109439, Note_on_c, 0, 77, 0
2, 109439, Note_on_c, 0, 67, 0
2, 109439, Note_on_c, 0, 72, 0
2, 109440, Note_on_c, 0, 78, 62
2, 109440, Note_on_c, 0, 66, 78
2, 109440, Note_on_c, 0, 69, 44
2, 109440, Note_on_c, 0, 74, 70
2, 109919, Note_on_c, 0, 74, 0
2, 109919, Note_on_c, 0, 78, 0
2, 109919, Note_on_c, 0, 66, 0
2, 109919, Note_on_c, 0, 69, 0
2, 109920, Note_on_c, 0, 74, 70
2, 109920, Note_on_c, 0, 71, 70
2, 109920, Note_on_c, 0, 67, 49
2, 110399, Note_on_c, 0, 67, 0
2, 110399, Note_on_c, 0, 71, 0
2, 110399, Note_on_c, 0, 74, 0
2, 110400, Note_on_c, 0, 61, 62
2, 110400, Note_on_c, 0, 73, 70
2, 110400, Note_on_c, 0, 76, 62
2, 110400, Note_on_c, 0, 69, 62
2, 111119, Note_on_c, 0, 69, 0
2, 111119, Note_on_c, 0, 61, 0
2, 111119, Note_on_c, 0, 73, 0
2, 111119, Note_on_c, 0, 76, 0
2, 111120, Note_on_c, 0, 62, 78
2, 111120, Note_on_c, 0, 77, 78
2, 111120, Note_on_c, 0, 69, 70
2, 111120, Note_on_c, 0, 72, 70
2, 111599, Note_on_c, 0, 72, 0
2, 111599, Note_on_c, 0, 62, 0
2, 111599, Note_on_c, 0, 77, 0
2, 111599, Note_on_c, 0, 69, 0
2, 111600, Note_on_c, 0, 65, 88
2, 111600, Note_on_c, 0, 79, 62
2, 111600, Note_on_c, 0, 74, 70
2, 111600, Note_on_c, 0, 77, 70
2, 112079, Note_on_c, 0, 77, 0
2, 112079, Note_on_c, 0, 65, 0
2, 112079, Note_on_c, 0, 79, 0
2, 112079, Note_on_c, 0, 74, 0
2, 112080, Note_on_c, 0, 66, 98
2, 112080, Note_on_c, 0, 80, 88
2, 112080, Note_on_c, 0, 78, 88
2, 112080, Note_on_c, 0, 74, 70
2, 112559, Note_on_c, 0, 74, 0
2, 112559, Note_on_c, 0, 66, 0
2, 112559, Note_on_c, 0, 80, 0
2, 112559, Note_on_c, 0, 78, 0
2, 112560, Note_on_c, 0, 74, 78
2, 112560, Note_on_c, 0, 67, 78
2, 112560, Note_on_c, 0, 83, 78
2, 112560, Note_on_c, 0, 79, 70
2, 113039, Note_on_c, 0, 79, 0
2, 113039, Note_on_c, 0, 74, 0
2, 113039, Note_on_c, 0, 67, 0
2, 113039, Note_on_c, 0, 83, 0
2, 113040, Note_on_c, 0, 69, 70
2, 113040, Note_on_c, 0, 74, 78
2, 113040, Note_on_c, 0, 79, 70
2, 113040, Note_on_c, 0, 84, 70
2, 113040, Note_on_c, 0, 77, 78
2, 113519, Note_on_c, 0, 77, 0
2, 113519, Note_on_c, 0, 79, 0
2, 113519, Note_on_c, 0, 69, 0
2, 113519, Note_on_c, 0, 74, 0
2, 113519, Note_on_c, 0, 84, 0
2, 115680, Note_on_c, 0, 72, 70
2, 115680, Note_on_c, 0, 84, 78
2, 115680, Note_on_c, 0, 88, 78
2, 116039, Note_on_c, 0, 88, 0
2, 116039, Note_on_c, 0, 84, 0
2, 116039, Note_on_c, 0, 72, 0
2, 116040, Note_on_c, 0, 72, 70
2, 116040, Note_on_c, 0, 88, 78
2, 116040, Note_on_c, 0, 84, 70
2, 116759, Note_on_c, 0, 84, 0
2, 116759, Note_on_c, 0, 88, 0
2, 116759, Note_on_c, 0, 72, 0
2, 116759, End_track
3, 0, Start_track
3, 0, MIDI_port, 0
3, 0, Title_t, "middle staff"
3, 0, Control_c, 0, 7, 127
3, 0, Control_c, 0, 10, 64
3, 17096, Note_on_c, 0, 64, 110
3, 17144, Note_on_c, 0, 64, 0
3, 17156, Note_on_c, 0, 52, 49
3, 17182, Note_on_c, 0, 52, 0
3, 17215, Note_on_c, 0, 52, 70
3, 17243, Note_on_c, 0, 52, 0
3, 17279, Note_on_c, 0, 52, 62
3, 17305, Note_on_c, 0, 52, 0
3, 17339, Note_on_c, 0, 52, 62
3, 17364, Note_on_c, 0, 52, 0
3, 17398, Note_on_c, 0, 52, 62
3, 17420, Note_on_c, 0, 52, 0
3, 17455, Note_on_c, 0, 52, 55
3, 17499, Note_on_c, 0, 52, 0
3, 19438, Note_on_c, 0, 56, 110
3, 19463, Note_on_c, 0, 56, 0
3, 19490, Note_on_c, 0, 56, 98
3, 19516, Note_on_c, 0, 56, 0
3, 19550, Note_on_c, 0, 56, 98
3, 19580, Note_on_c, 0, 56, 0
3, 19608, Note_on_c, 0, 56, 110
3, 19639, Note_on_c, 0, 56, 0
3, 19668, Note_on_c, 0, 56, 110
3, 19704, Note_on_c, 0, 56, 0
3, 19731, Note_on_c, 0, 56, 110
3, 19792, Note_on_c, 0, 56, 0
3, 22796, Note_on_c, 0, 69, 98
3, 22904, Note_on_c, 0, 69, 0
3, 22915, Note_on_c, 0, 67, 110
3, 23026, Note_on_c, 0, 67, 0
3, 23040, Note_on_c, 0, 62, 110
3, 23040, Note_on_c, 0, 74, 110
3, 23158, Note_on_c, 0, 62, 0
3, 23160, Note_on_c, 0, 74, 0
3, 23402, Note_on_c, 0, 62, 110
3, 23508, Note_on_c, 0, 62, 0
3, 23527, Note_on_c, 0, 74, 110
3, 23630, Note_on_c, 0, 74, 0
3, 69360, Note_on_c, 0, 71, 110
3, 69479, Note_on_c, 0, 71, 0
3, 69480, Note_on_c, 0, 69, 98
3, 69480, Note_on_c, 0, 57, 98
3, 69599, Note_on_c, 0, 57, 0
3, 69599, Note_on_c, 0, 69, 0
3, 69600, Note_on_c, 0, 64, 98
3, 69600, Note_on_c, 0, 76, 98
3, 69719, Note_on_c, 0, 76, 0
3, 69719, Note_on_c, 0, 64, 0
3, 69720, Note_on_c, 0, 74, 98
3, 69839, Note_on_c, 0, 74, 0
3, 69840, Note_on_c, 0, 71, 98
3, 69959, Note_on_c, 0, 71, 0
3, 69960, Note_on_c, 0, 64, 98
3, 70079, Note_on_c, 0, 64, 0
3, 70080, Note_on_c, 0, 76, 88
3, 70199, Note_on_c, 0, 76, 0
3, 70200, Note_on_c, 0, 74, 98
3, 70319, Note_on_c, 0, 74, 0
3, 70320, Note_on_c, 0, 71, 98
3, 70439, Note_on_c, 0, 71, 0
3, 70440, Note_on_c, 0, 64, 98
3, 70559, Note_on_c, 0, 64, 0
3, 70560, Note_on_c, 0, 76, 98
3, 70679, Note_on_c, 0, 76, 0
3, 70680, Note_on_c, 0, 74, 110
3, 70799, Note_on_c, 0, 74, 0
3, 70799, End_track
4, 0, Start_track
4, 0, MIDI_port, 0
4, 0, Title_t, "bottom staff"
4, 0, Control_c, 0, 7, 127
4, 0, Control_c, 0, 10, 64
4, 463, Note_on_c, 0, 36, 62
4, 463, Note_on_c, 0, 48, 39
4, 482, Note_on_c, 0, 51, 49
4, 484, Note_on_c, 0, 60, 49
4, 484, Note_on_c, 0, 55, 62
4, 490, Note_on_c, 0, 36, 0
4, 491, Note_on_c, 0, 48, 0
4, 604, Note_on_c, 0, 57, 62
4, 607, Note_on_c, 0, 55, 0
4, 960, Note_on_c, 0, 46, 35
4, 960, Note_on_c, 0, 34, 39
4, 1334, Note_on_c, 0, 34, 0
4, 1334, Note_on_c, 0, 46, 0
4, 1370, Note_on_c, 0, 57, 0
4, 1378, Note_on_c, 0, 51, 0
4, 1388, Note_on_c, 0, 60, 0
4, 1451, Note_on_c, 0, 43, 49
4, 1452, Note_on_c, 0, 31, 35
4, 1565, Note_on_c, 0, 31, 0
4, 1565, Note_on_c, 0, 36, 44
4, 1566, Note_on_c, 0, 48, 35
4, 1567, Note_on_c, 0, 43, 0
4, 1800, Note_on_c, 0, 36, 0
4, 1801, Note_on_c, 0, 48, 0
4, 1924, Note_on_c, 0, 36, 24
4, 1925, Note_on_c, 0, 48, 30
4, 2169, Note_on_c, 0, 36, 0
4, 2169, Note_on_c, 0, 31, 35
4, 2172, Note_on_c, 0, 43, 24
4, 2173, Note_on_c, 0, 48, 0
4, 2646, Note_on_c, 0, 36, 28
4, 2647, Note_on_c, 0, 31, 0
4, 2647, Note_on_c, 0, 48, 30
4, 2651, Note_on_c, 0, 43, 0
4, 3007, Note_on_c, 0, 43, 28
4, 3008, Note_on_c, 0, 31, 17
4, 3009, Note_on_c, 0, 48, 0
4, 3009, Note_on_c, 0, 36, 0
4, 3122, Note_on_c, 0, 48, 35
4, 3125, Note_on_c, 0, 31, 0
4, 3125, Note_on_c, 0, 36, 28
4, 3130, Note_on_c, 0, 43, 0
4, 3242, Note_on_c, 0, 36, 0
4, 3243, Note_on_c, 0, 52, 39
4, 3244, Note_on_c, 0, 48, 0
4, 3245, Note_on_c, 0, 40, 17
4, 3285, Note_on_c, 0, 52, 0
4, 3286, Note_on_c, 0, 40, 0
4, 3365, Note_on_c, 0, 24, 70
4, 3365, Note_on_c, 0, 36, 62
4, 3449, Note_on_c, 0, 36, 0
4, 3449, Note_on_c, 0, 24, 0
4, 3484, Note_on_c, 0, 36, 35
4, 3487, Note_on_c, 0, 48, 1
4, 3704, Note_on_c, 0, 48, 0
4, 3706, Note_on_c, 0, 36, 0
4, 3730, Note_on_c, 0, 48, 28
4, 3730, Note_on_c, 0, 60, 30
4, 3920, Note_on_c, 0, 48, 0
4, 3924, Note_on_c, 0, 60, 0
4, 3969, Note_on_c, 0, 52, 49
4, 3970, Note_on_c, 0, 40, 30
4, 4050, Note_on_c, 0, 40, 0
4, 4058, Note_on_c, 0, 52, 0
4, 4210, Note_on_c, 0, 36, 44
4, 4211, Note_on_c, 0, 24, 44
4, 4399, Note_on_c, 0, 24, 0
4, 4399, Note_on_c, 0, 36, 0
4, 4446, Note_on_c, 0, 31, 22
4, 4446, Note_on_c, 0, 43, 35
4, 4620, Note_on_c, 0, 31, 0
4, 4624, Note_on_c, 0, 43, 0
4, 4679, Note_on_c, 0, 48, 30
4, 4679, Note_on_c, 0, 60, 39
4, 4758, Note_on_c, 0, 48, 0
4, 4763, Note_on_c, 0, 60, 0
4, 4800, Note_on_c, 0, 40, 24
4, 4801, Note_on_c, 0, 52, 44
4, 4874, Note_on_c, 0, 40, 0
4, 4889, Note_on_c, 0, 52, 0
4, 4927, Note_on_c, 0, 24, 44
4, 4928, Note_on_c, 0, 36, 39
4, 5142, Note_on_c, 0, 24, 0
4, 5145, Note_on_c, 0, 36, 0
4, 5160, Note_on_c, 0, 31, 39
4, 5160, Note_on_c, 0, 43, 39
4, 5356, Note_on_c, 0, 43, 0
4, 5360, Note_on_c, 0, 31, 0
4, 5405, Note_on_c, 0, 48, 30
4, 5406, Note_on_c, 0, 60, 39
4, 5602, Note_on_c, 0, 48, 0
4, 5603, Note_on_c, 0, 60, 0
4, 5633, Note_on_c, 0, 43, 35
4, 5633, Note_on_c, 0, 55, 49
4, 5734, Note_on_c, 0, 43, 0
4, 5735, Note_on_c, 0, 55, 0
4, 5764, Note_on_c, 0, 40, 30
4, 5764, Note_on_c, 0, 52, 35
4, 5829, Note_on_c, 0, 40, 0
4, 5845, Note_on_c, 0, 52, 0
4, 5883, Note_on_c, 0, 36, 49
4, 5885, Note_on_c, 0, 24, 44
4, 6091, Note_on_c, 0, 24, 0
4, 6093, Note_on_c, 0, 36, 0
4, 6129, Note_on_c, 0, 43, 35
4, 6131, Note_on_c, 0, 31, 17
4, 6243, Note_on_c, 0, 31, 0
4, 6247, Note_on_c, 0, 48, 39
4, 6249, Note_on_c, 0, 43, 0
4, 6249, Note_on_c, 0, 36, 24
4, 6590, Note_on_c, 0, 36, 0
4, 6602, Note_on_c, 0, 48, 0
4, 6605, Note_on_c, 0, 43, 30
4, 6606, Note_on_c, 0, 31, 28
4, 6701, Note_on_c, 0, 43, 0
4, 6709, Note_on_c, 0, 31, 0
4, 6729, Note_on_c, 0, 43, 39
4, 6730, Note_on_c, 0, 55, 39
4, 6914, Note_on_c, 0, 43, 0
4, 6929, Note_on_c, 0, 55, 0
4, 6962, Note_on_c, 0, 43, 28
4, 6963, Note_on_c, 0, 31, 28
4, 7056, Note_on_c, 0, 31, 0
4, 7057, Note_on_c, 0, 43, 0
4, 7084, Note_on_c, 0, 36, 39
4, 7085, Note_on_c, 0, 48, 30
4, 7162, Note_on_c, 0, 36, 0
4, 7166, Note_on_c, 0, 48, 0
4, 7202, Note_on_c, 0, 55, 39
4, 7202, Note_on_c, 0, 43, 19
4, 7284, Note_on_c, 0, 55, 0
4, 7288, Note_on_c, 0, 43, 0
4, 7328, Note_on_c, 0, 43, 24
4, 7328, Note_on_c, 0, 31, 24
4, 7429, Note_on_c, 0, 43, 0
4, 7431, Note_on_c, 0, 31, 0
4, 7449, Note_on_c, 0, 36, 39
4, 7450, Note_on_c, 0, 48, 30
4, 7546, Note_on_c, 0, 36, 0
4, 7556, Note_on_c, 0, 48, 0
4, 7569, Note_on_c, 0, 55, 35
4, 7570, Note_on_c, 0, 43, 30
4, 7654, Note_on_c, 0, 55, 0
4, 7659, Note_on_c, 0, 43, 0
4, 7686, Note_on_c, 0, 43, 22
4, 7687, Note_on_c, 0, 31, 28
4, 7777, Note_on_c, 0, 31, 0
4, 7779, Note_on_c, 0, 43, 0
4, 7803, Note_on_c, 0, 36, 35
4, 7803, Note_on_c, 0, 48, 28
4, 7895, Note_on_c, 0, 36, 0
4, 7900, Note_on_c, 0, 48, 0
4, 7925, Note_on_c, 0, 55, 44
4, 7925, Note_on_c, 0, 43, 35
4, 8005, Note_on_c, 0, 55, 0
4, 8010, Note_on_c, 0, 43, 0
4, 8040, Note_on_c, 0, 43, 28
4, 8041, Note_on_c, 0, 31, 35
4, 8133, Note_on_c, 0, 31, 0
4, 8137, Note_on_c, 0, 43, 0
4, 8168, Note_on_c, 0, 48, 28
4, 8170, Note_on_c, 0, 36, 19
4, 8257, Note_on_c, 0, 36, 0
4, 8264, Note_on_c, 0, 48, 0
4, 8285, Note_on_c, 0, 43, 30
4, 8286, Note_on_c, 0, 55, 35
4, 8368, Note_on_c, 0, 55, 0
4, 8375, Note_on_c, 0, 43, 0
4, 8400, Note_on_c, 0, 43, 24
4, 8401, Note_on_c, 0, 31, 35
4, 8492, Note_on_c, 0, 31, 0
4, 8495, Note_on_c, 0, 43, 0
4, 8521, Note_on_c, 0, 36, 35
4, 8524, Note_on_c, 0, 48, 30
4, 8615, Note_on_c, 0, 36, 0
4, 8624, Note_on_c, 0, 48, 0
4, 8645, Note_on_c, 0, 43, 39
4, 8648, Note_on_c, 0, 55, 30
4, 8732, Note_on_c, 0, 43, 0
4, 8733, Note_on_c, 0, 55, 0
4, 8761, Note_on_c, 0, 43, 28
4, 8761, Note_on_c, 0, 31, 35
4, 8855, Note_on_c, 0, 31, 0
4, 8856, Note_on_c, 0, 43, 0
4, 8883, Note_on_c, 0, 36, 30
4, 8886, Note_on_c, 0, 48, 30
4, 8975, Note_on_c, 0, 36, 0
4, 8979, Note_on_c, 0, 48, 0
4, 9010, Note_on_c, 0, 43, 35
4, 9011, Note_on_c, 0, 55, 39
4, 9088, Note_on_c, 0, 55, 0
4, 9093, Note_on_c, 0, 43, 0
4, 9127, Note_on_c, 0, 31, 39
4, 9128, Note_on_c, 0, 43, 24
4, 9210, Note_on_c, 0, 31, 0
4, 9213, Note_on_c, 0, 43, 0
4, 9241, Note_on_c, 0, 36, 39
4, 9242, Note_on_c, 0, 48, 39
4, 9330, Note_on_c, 0, 48, 0
4, 9332, Note_on_c, 0, 36, 0
4, 9362, Note_on_c, 0, 43, 30
4, 9363, Note_on_c, 0, 55, 44
4, 9436, Note_on_c, 0, 55, 0
4, 9448, Note_on_c, 0, 43, 0
4, 9483, Note_on_c, 0, 31, 35
4, 9483, Note_on_c, 0, 43, 24
4, 9565, Note_on_c, 0, 31, 0
4, 9568, Note_on_c, 0, 43, 0
4, 9600, Note_on_c, 0, 36, 39
4, 9601, Note_on_c, 0, 48, 35
4, 9686, Note_on_c, 0, 36, 0
4, 9695, Note_on_c, 0, 48, 0
4, 9720, Note_on_c, 0, 43, 30
4, 9722, Note_on_c, 0, 55, 35
4, 10071, Note_on_c, 0, 43, 0
4, 10081, Note_on_c, 0, 55, 0
4, 10081, Note_on_c, 0, 36, 35
4, 10082, Note_on_c, 0, 48, 35
4, 10285, Note_on_c, 0, 36, 0
4, 10289, Note_on_c, 0, 48, 0
4, 10306, Note_on_c, 0, 36, 70
4, 10306, Note_on_c, 0, 24, 78
4, 10321, Note_on_c, 0, 58, 88
4, 10321, Note_on_c, 0, 48, 70
4, 10321, Note_on_c, 0, 60, 78
4, 10340, Note_on_c, 0, 24, 0
4, 10341, Note_on_c, 0, 36, 0
4, 10656, Note_on_c, 0, 60, 0
4, 10661, Note_on_c, 0, 48, 0
4, 10690, Note_on_c, 0, 48, 35
4, 10690, Note_on_c, 0, 60, 44
4, 11762, Note_on_c, 0, 36, 78
4, 11764, Note_on_c, 0, 48, 70
4, 11773, Note_on_c, 0, 60, 0
4, 11773, Note_on_c, 0, 58, 0
4, 11773, Note_on_c, 0, 48, 0
4, 11886, Note_on_c, 0, 43, 98
4, 11886, Note_on_c, 0, 40, 98
4, 11912, Note_on_c, 0, 40, 0
4, 11913, Note_on_c, 0, 43, 0
4, 11944, Note_on_c, 0, 40, 39
4, 11944, Note_on_c, 0, 43, 49
4, 11964, Note_on_c, 0, 43, 0
4, 11967, Note_on_c, 0, 40, 0
4, 12002, Note_on_c, 0, 40, 22
4, 12003, Note_on_c, 0, 43, 39
4, 12023, Note_on_c, 0, 43, 0
4, 12024, Note_on_c, 0, 40, 0
4, 12060, Note_on_c, 0, 40, 24
4, 12060, Note_on_c, 0, 43, 35
4, 12082, Note_on_c, 0, 43, 0
4, 12083, Note_on_c, 0, 40, 0
4, 12117, Note_on_c, 0, 40, 24
4, 12119, Note_on_c, 0, 43, 35
4, 12139, Note_on_c, 0, 43, 0
4, 12139, Note_on_c, 0, 40, 0
4, 12177, Note_on_c, 0, 40, 28
4, 12179, Note_on_c, 0, 43, 35
4, 12201, Note_on_c, 0, 40, 0
4, 12202, Note_on_c, 0, 43, 0
4, 12486, Note_on_c, 0, 42, 110
4, 12538, Note_on_c, 0, 42, 0
4, 12602, Note_on_c, 0, 43, 78
4, 12656, Note_on_c, 0, 43, 0
4, 12714, Note_on_c, 0, 44, 70
4, 12767, Note_on_c, 0, 44, 0
4, 12836, Note_on_c, 0, 42, 70
4, 12885, Note_on_c, 0, 42, 0
4, 12953, Note_on_c, 0, 43, 62
4, 13017, Note_on_c, 0, 43, 0
4, 13074, Note_on_c, 0, 44, 78
4, 13134, Note_on_c, 0, 44, 0
4, 13196, Note_on_c, 0, 43, 78
4, 13197, Note_on_c, 0, 40, 70
4, 13227, Note_on_c, 0, 40, 0
4, 13227, Note_on_c, 0, 43, 0
4, 13261, Note_on_c, 0, 43, 44
4, 13262, Note_on_c, 0, 40, 35
4, 13267, Note_on_c, 0, 36, 0
4, 13281, Note_on_c, 0, 40, 0
4, 13281, Note_on_c, 0, 43, 0
4, 13318, Note_on_c, 0, 43, 35
4, 13318, Note_on_c, 0, 40, 28
4, 13341, Note_on_c, 0, 40, 0
4, 13341, Note_on_c, 0, 43, 0
4, 13378, Note_on_c, 0, 43, 30
4, 13379, Note_on_c, 0, 40, 28
4, 13399, Note_on_c, 0, 40, 0
4, 13399, Note_on_c, 0, 43, 0
4, 13437, Note_on_c, 0, 43, 39
4, 13438, Note_on_c, 0, 40, 35
4, 13460, Note_on_c, 0, 40, 0
4, 13460, Note_on_c, 0, 43, 0
4, 13501, Note_on_c, 0, 43, 55
4, 13501, Note_on_c, 0, 40, 55
4, 13524, Note_on_c, 0, 43, 0
4, 13690, Note_on_c, 0, 42, 88
4, 13726, Note_on_c, 0, 42, 0
4, 13806, Note_on_c, 0, 43, 78
4, 13834, Note_on_c, 0, 43, 0
4, 13924, Note_on_c, 0, 44, 70
4, 13950, Note_on_c, 0, 44, 0
4, 14035, Note_on_c, 0, 42, 62
4, 14064, Note_on_c, 0, 42, 0
4, 14159, Note_on_c, 0, 43, 30
4, 14188, Note_on_c, 0, 43, 0
4, 14257, Note_on_c, 0, 48, 0
4, 14279, Note_on_c, 0, 44, 30
4, 14312, Note_on_c, 0, 44, 0
4, 14399, Note_on_c, 0, 42, 35
4, 14427, Note_on_c, 0, 42, 0
4, 14518, Note_on_c, 0, 43, 28
4, 14560, Note_on_c, 0, 43, 0
4, 14638, Note_on_c, 0, 44, 49
4, 14673, Note_on_c, 0, 44, 0
4, 14761, Note_on_c, 0, 42, 39
4, 14801, Note_on_c, 0, 42, 0
4, 14880, Note_on_c, 0, 43, 35
4, 14925, Note_on_c, 0, 43, 0
4, 14998, Note_on_c, 0, 44, 39
4, 15044, Note_on_c, 0, 44, 0
4, 15116, Note_on_c, 0, 42, 49
4, 15162, Note_on_c, 0, 42, 0
4, 15241, Note_on_c, 0, 43, 35
4, 15289, Note_on_c, 0, 43, 0
4, 15368, Note_on_c, 0, 40, 0
4, 15368, Note_on_c, 0, 44, 62
4, 15411, Note_on_c, 0, 44, 0
4, 15480, Note_on_c, 0, 30, 124
4, 15482, Note_on_c, 0, 42, 110
4, 15525, Note_on_c, 0, 30, 0
4, 15526, Note_on_c, 0, 42, 0
4, 15724, Note_on_c, 0, 44, 110
4, 15764, Note_on_c, 0, 44, 0
4, 15841, Note_on_c, 0, 42, 49
4, 15893, Note_on_c, 0, 42, 0
4, 15955, Note_on_c, 0, 43, 39
4, 16007, Note_on_c, 0, 43, 0
4, 16079, Note_on_c, 0, 44, 44
4, 16129, Note_on_c, 0, 44, 0
4, 16197, Note_on_c, 0, 42, 55
4, 16248, Note_on_c, 0, 42, 0
4, 16315, Note_on_c, 0, 43, 39
4, 16378, Note_on_c, 0, 43, 0
4, 16438, Note_on_c, 0, 44, 35
4, 16498, Note_on_c, 0, 44, 0
4, 16558, Note_on_c, 0, 42, 39
4, 16612, Note_on_c, 0, 42, 0
4, 16677, Note_on_c, 0, 43, 35
4, 16740, Note_on_c, 0, 43, 0
4, 16797, Note_on_c, 0, 44, 39
4, 16853, Note_on_c, 0, 44, 0
4, 16914, Note_on_c, 0, 42, 62
4, 16970, Note_on_c, 0, 42, 0
4, 17035, Note_on_c, 0, 43, 28
4, 17100, Note_on_c, 0, 43, 0
4, 17156, Note_on_c, 0, 44, 39
4, 17211, Note_on_c, 0, 44, 0
4, 17272, Note_on_c, 0, 42, 55
4, 17343, Note_on_c, 0, 42, 0
4, 17396, Note_on_c, 0, 43, 44
4, 17464, Note_on_c, 0, 43, 0
4, 17515, Note_on_c, 0, 44, 55
4, 17574, Note_on_c, 0, 44, 0
4, 17633, Note_on_c, 0, 42, 39
4, 17709, Note_on_c, 0, 42, 0
4, 17757, Note_on_c, 0, 43, 39
4, 17821, Note_on_c, 0, 43, 0
4, 17876, Note_on_c, 0, 44, 39
4, 17942, Note_on_c, 0, 44, 0
4, 18000, Note_on_c, 0, 42, 49
4, 18055, Note_on_c, 0, 42, 0
4, 18119, Note_on_c, 0, 43, 62
4, 18119, Note_on_c, 0, 55, 70
4, 18176, Note_on_c, 0, 55, 0
4, 18179, Note_on_c, 0, 43, 0
4, 18239, Note_on_c, 0, 44, 70
4, 18240, Note_on_c, 0, 56, 78
4, 18290, Note_on_c, 0, 44, 0
4, 18298, Note_on_c, 0, 56, 0
4, 18354, Note_on_c, 0, 46, 78
4, 18355, Note_on_c, 0, 58, 88
4, 18405, Note_on_c, 0, 58, 0
4, 18410, Note_on_c, 0, 46, 0
4, 18475, Note_on_c, 0, 60, 88
4, 18476, Note_on_c, 0, 48, 78
4, 18526, Note_on_c, 0, 48, 0
4, 18542, Note_on_c, 0, 60, 0
4, 18602, Note_on_c, 0, 34, 98
4, 18602, Note_on_c, 0, 46, 98
4, 18661, Note_on_c, 0, 34, 0
4, 18665, Note_on_c, 0, 46, 0
4, 18724, Note_on_c, 0, 62, 110
4, 18725, Note_on_c, 0, 50, 98
4, 18774, Note_on_c, 0, 50, 0
4, 18789, Note_on_c, 0, 62, 0
4, 18844, Note_on_c, 0, 44, 98
4, 18844, Note_on_c, 0, 32, 110
4, 18893, Note_on_c, 0, 32, 0
4, 18897, Note_on_c, 0, 44, 0
4, 18956, Note_on_c, 0, 60, 110
4, 18956, Note_on_c, 0, 48, 98
4, 19008, Note_on_c, 0, 48, 0
4, 19021, Note_on_c, 0, 60, 0
4, 19077, Note_on_c, 0, 44, 110
4, 19077, Note_on_c, 0, 32, 98
4, 19132, Note_on_c, 0, 32, 0
4, 19136, Note_on_c, 0, 44, 0
4, 19198, Note_on_c, 0, 62, 98
4, 19198, Note_on_c, 0, 50, 88
4, 19250, Note_on_c, 0, 50, 0
4, 19261, Note_on_c, 0, 62, 0
4, 19316, Note_on_c, 0, 43, 88
4, 19317, Note_on_c, 0, 31, 88
4, 19382, Note_on_c, 0, 31, 0
4, 19383, Note_on_c, 0, 43, 0
4, 19435, Note_on_c, 0, 41, 78
4, 19437, Note_on_c, 0, 53, 98
4, 19501, Note_on_c, 0, 41, 0
4, 19504, Note_on_c, 0, 53, 0
4, 19556, Note_on_c, 0, 43, 88
4, 19556, Note_on_c, 0, 31, 88
4, 19636, Note_on_c, 0, 31, 0
4, 19637, Note_on_c, 0, 43, 0
4, 19673, Note_on_c, 0, 43, 98
4, 19675, Note_on_c, 0, 55, 98
4, 19744, Note_on_c, 0, 43, 0
4, 19750, Note_on_c, 0, 55, 0
4, 19794, Note_on_c, 0, 41, 88
4, 19795, Note_on_c, 0, 29, 98
4, 19866, Note_on_c, 0, 29, 0
4, 19868, Note_on_c, 0, 41, 0
4, 19911, Note_on_c, 0, 53, 98
4, 19920, Note_on_c, 0, 41, 98
4, 19992, Note_on_c, 0, 53, 0
4, 20003, Note_on_c, 0, 41, 0
4, 20038, Note_on_c, 0, 43, 98
4, 20038, Note_on_c, 0, 31, 98
4, 20117, Note_on_c, 0, 31, 0
4, 20124, Note_on_c, 0, 43, 0
4, 20157, Note_on_c, 0, 43, 110
4, 20159, Note_on_c, 0, 55, 110
4, 20231, Note_on_c, 0, 43, 0
4, 20241, Note_on_c, 0, 55, 0
4, 20276, Note_on_c, 0, 41, 98
4, 20277, Note_on_c, 0, 29, 98
4, 20346, Note_on_c, 0, 29, 0
4, 20352, Note_on_c, 0, 41, 0
4, 20392, Note_on_c, 0, 41, 88
4, 20392, Note_on_c, 0, 53, 88
4, 20474, Note_on_c, 0, 41, 0
4, 20479, Note_on_c, 0, 53, 0
4, 20518, Note_on_c, 0, 43, 110
4, 20520, Note_on_c, 0, 31, 88
4, 20595, Note_on_c, 0, 31, 0
4, 20606, Note_on_c, 0, 43, 0
4, 20639, Note_on_c, 0, 43, 98
4, 20639, Note_on_c, 0, 55, 110
4, 20720, Note_on_c, 0, 43, 0
4, 20721, Note_on_c, 0, 55, 0
4, 20760, Note_on_c, 0, 41, 98
4, 20761, Note_on_c, 0, 29, 110
4, 20830, Note_on_c, 0, 41, 0
4, 20834, Note_on_c, 0, 29, 0
4, 20887, Note_on_c, 0, 41, 98
4, 20887, Note_on_c, 0, 53, 110
4, 20942, Note_on_c, 0, 53, 0
4, 20946, Note_on_c, 0, 41, 0
4, 21002, Note_on_c, 0, 31, 98
4, 21002, Note_on_c, 0, 43, 98
4, 21056, Note_on_c, 0, 31, 0
4, 21068, Note_on_c, 0, 43, 0
4, 21121, Note_on_c, 0, 55, 110
4, 21121, Note_on_c, 0, 43, 110
4, 21200, Note_on_c, 0, 43, 0
4, 21204, Note_on_c, 0, 55, 0
4, 21239, Note_on_c, 0, 41, 98
4, 21239, Note_on_c, 0, 29, 98
4, 21310, Note_on_c, 0, 29, 0
4, 21310, Note_on_c, 0, 41, 0
4, 21359, Note_on_c, 0, 41, 98
4, 21394, Note_on_c, 0, 41, 0
4, 21402, Note_on_c, 0, 43, 98
4, 21425, Note_on_c, 0, 43, 0
4, 21436, Note_on_c, 0, 45, 78
4, 21465, Note_on_c, 0, 45, 0
4, 21479, Note_on_c, 0, 47, 88
4, 21493, Note_on_c, 0, 47, 0
4, 21518, Note_on_c, 0, 52, 110
4, 21521, Note_on_c, 0, 64, 110
4, 21687, Note_on_c, 0, 52, 0
4, 21689, Note_on_c, 0, 64, 0
4, 21720, Note_on_c, 0, 40, 110
4, 21720, Note_on_c, 0, 52, 110
4, 21844, Note_on_c, 0, 52, 0
4, 21844, Note_on_c, 0, 40, 0
4, 21849, Note_on_c, 0, 44, 110
4, 21850, Note_on_c, 0, 56, 124
4, 21947, Note_on_c, 0, 44, 0
4, 21953, Note_on_c, 0, 56, 0
4, 21958, Note_on_c, 0, 39, 110
4, 21958, Note_on_c, 0, 51, 110
4, 22028, Note_on_c, 0, 39, 0
4, 22033, Note_on_c, 0, 51, 0
4, 22077, Note_on_c, 0, 61, 110
4, 22078, Note_on_c, 0, 49, 110
4, 22183, Note_on_c, 0, 49, 0
4, 22190, Note_on_c, 0, 61, 0
4, 22195, Note_on_c, 0, 45, 88
4, 22195, Note_on_c, 0, 57, 110
4, 22258, Note_on_c, 0, 45, 0
4, 22288, Note_on_c, 0, 57, 0
4, 22318, Note_on_c, 0, 41, 110
4, 22318, Note_on_c, 0, 29, 110
4, 22446, Note_on_c, 0, 55, 110
4, 22557, Note_on_c, 0, 55, 0
4, 22560, Note_on_c, 0, 62, 110
4, 22669, Note_on_c, 0, 62, 0
4, 22676, Note_on_c, 0, 57, 110
4, 22815, Note_on_c, 0, 57, 0
4, 23159, Note_on_c, 0, 30, 88
4, 23160, Note_on_c, 0, 42, 98
4, 23163, Note_on_c, 0, 41, 0
4, 23166, Note_on_c, 0, 29, 0
4, 23242, Note_on_c, 0, 42, 0
4, 23243, Note_on_c, 0, 30, 0
4, 23280, Note_on_c, 0, 56, 110
4, 23280, Note_on_c, 0, 44, 98
4, 23610, Note_on_c, 0, 56, 0
4, 23613, Note_on_c, 0, 44, 0
4, 23639, Note_on_c, 0, 44, 110
4, 23640, Note_on_c, 0, 32, 110
4, 23739, Note_on_c, 0, 44, 0
4, 23746, Note_on_c, 0, 32, 0
4, 23760, Note_on_c, 0, 44, 110
4, 23763, Note_on_c, 0, 56, 110
4, 23847, Note_on_c, 0, 56, 0
4, 23847, Note_on_c, 0, 44, 0
4, 23881, Note_on_c, 0, 44, 110
4, 23883, Note_on_c, 0, 32, 110
4, 23954, Note_on_c, 0, 32, 0
4, 23960, Note_on_c, 0, 44, 0
4, 24000, Note_on_c, 0, 44, 110
4, 24001, Note_on_c, 0, 56, 124
4, 24062, Note_on_c, 0, 56, 0
4, 24064, Note_on_c, 0, 44, 0
4, 24208, Note_on_c, 0, 44, 62
4, 24217, Note_on_c, 0, 46, 78
4, 24225, Note_on_c, 0, 44, 0
4, 24232, Note_on_c, 0, 47, 49
4, 24233, Note_on_c, 0, 46, 0
4, 24249, Note_on_c, 0, 47, 0
4, 24253, Note_on_c, 0, 49, 110
4, 24259, Note_on_c, 0, 37, 110
4, 24360, Note_on_c, 0, 49, 0
4, 24363, Note_on_c, 0, 37, 0
4, 24373, Note_on_c, 0, 57, 98
4, 24438, Note_on_c, 0, 57, 0
4, 24470, Note_on_c, 0, 54, 124
4, 24509, Note_on_c, 0, 54, 0
4, 24595, Note_on_c, 0, 50, 110
4, 24653, Note_on_c, 0, 50, 0
4, 24715, Note_on_c, 0, 46, 110
4, 24784, Note_on_c, 0, 46, 0
4, 24835, Note_on_c, 0, 43, 98
4, 24914, Note_on_c, 0, 43, 0
4, 24959, Note_on_c, 0, 40, 98
4, 25031, Note_on_c, 0, 40, 0
4, 25076, Note_on_c, 0, 36, 110
4, 25076, Note_on_c, 0, 24, 110
4, 25200, Note_on_c, 0, 34, 78
4, 25204, Note_on_c, 0, 24, 0
4, 25236, Note_on_c, 0, 34, 0
4, 25323, Note_on_c, 0, 32, 70
4, 25354, Note_on_c, 0, 32, 0
4, 25440, Note_on_c, 0, 36, 62
4, 25468, Note_on_c, 0, 36, 0
4, 25560, Note_on_c, 0, 31, 62
4, 25592, Note_on_c, 0, 31, 0
4, 25815, Note_on_c, 0, 36, 0
4, 25917, Note_on_c, 0, 37, 78
4, 26158, Note_on_c, 0, 37, 0
4, 26160, Note_on_c, 0, 36, 70
4, 26390, Note_on_c, 0, 38, 62
4, 26395, Note_on_c, 0, 36, 0
4, 26636, Note_on_c, 0, 36, 70
4, 26638, Note_on_c, 0, 38, 0
4, 27081, Note_on_c, 0, 36, 0
4, 27115, Note_on_c, 0, 36, 70
4, 27117, Note_on_c, 0, 48, 55
4, 27241, Note_on_c, 0, 49, 70
4, 27255, Note_on_c, 0, 48, 0
4, 27362, Note_on_c, 0, 51, 78
4, 27362, Note_on_c, 0, 38, 62
4, 27364, Note_on_c, 0, 36, 0
4, 27367, Note_on_c, 0, 49, 0
4, 27476, Note_on_c, 0, 51, 0
4, 27480, Note_on_c, 0, 50, 70
4, 27578, Note_on_c, 0, 50, 0
4, 27582, Note_on_c, 0, 38, 0
4, 27606, Note_on_c, 0, 36, 70
4, 27840, Note_on_c, 0, 37, 70
4, 27845, Note_on_c, 0, 36, 0
4, 28076, Note_on_c, 0, 37, 0
4, 28081, Note_on_c, 0, 36, 62
4, 28084, Note_on_c, 0, 48, 62
4, 28205, Note_on_c, 0, 37, 70
4, 28209, Note_on_c, 0, 49, 55
4, 28210, Note_on_c, 0, 36, 0
4, 28220, Note_on_c, 0, 48, 0
4, 28324, Note_on_c, 0, 39, 78
4, 28325, Note_on_c, 0, 37, 0
4, 28326, Note_on_c, 0, 51, 70
4, 28328, Note_on_c, 0, 49, 0
4, 28439, Note_on_c, 0, 39, 0
4, 28443, Note_on_c, 0, 38, 62
4, 28445, Note_on_c, 0, 50, 78
4, 28447, Note_on_c, 0, 51, 0
4, 28562, Note_on_c, 0, 36, 62
4, 28564, Note_on_c, 0, 38, 0
4, 28564, Note_on_c, 0, 48, 70
4, 28565, Note_on_c, 0, 50, 0
4, 28676, Note_on_c, 0, 37, 70
4, 28680, Note_on_c, 0, 49, 70
4, 28684, Note_on_c, 0, 48, 0
4, 28685, Note_on_c, 0, 36, 0
4, 28798, Note_on_c, 0, 37, 0
4, 28798, Note_on_c, 0, 39, 78
4, 28802, Note_on_c, 0, 51, 70
4, 28805, Note_on_c, 0, 49, 0
4, 28919, Note_on_c, 0, 51, 0
4, 28919, Note_on_c, 0, 39, 0
4, 28919, Note_on_c, 0, 50, 78
4, 28919, Note_on_c, 0, 38, 62
4, 29038, Note_on_c, 0, 38, 0
4, 29038, Note_on_c, 0, 36, 70
4, 29044, Note_on_c, 0, 50, 0
4, 29276, Note_on_c, 0, 37, 88
4, 29279, Note_on_c, 0, 36, 0
4, 29514, Note_on_c, 0, 37, 0
4, 29514, Note_on_c, 0, 36, 70
4, 29764, Note_on_c, 0, 38, 70
4, 29765, Note_on_c, 0, 36, 0
4, 29996, Note_on_c, 0, 36, 78
4, 30004, Note_on_c, 0, 38, 0
4, 30239, Note_on_c, 0, 37, 98
4, 30244, Note_on_c, 0, 36, 0
4, 30475, Note_on_c, 0, 37, 0
4, 30479, Note_on_c, 0, 36, 98
4, 30718, Note_on_c, 0, 34, 98
4, 30723, Note_on_c, 0, 36, 0
4, 30960, Note_on_c, 0, 32, 110
4, 30962, Note_on_c, 0, 34, 0
4, 31192, Note_on_c, 0, 32, 0
4, 31200, Note_on_c, 0, 31, 98
4, 31391, Note_on_c, 0, 31, 0
4, 31442, Note_on_c, 0, 31, 98
4, 31443, Note_on_c, 0, 43, 110
4, 31680, Note_on_c, 0, 52, 78
4, 31683, Note_on_c, 0, 31, 0
4, 31690, Note_on_c, 0, 40, 88
4, 31692, Note_on_c, 0, 43, 0
4, 31692, Note_on_c, 0, 52, 110
4, 31739, Note_on_c, 0, 52, 0
4, 31800, Note_on_c, 0, 52, 78
4, 31859, Note_on_c, 0, 52, 0
4, 31894, Note_on_c, 0, 40, 0
4, 31895, Note_on_c, 0, 52, 0
4, 31925, Note_on_c, 0, 40, 98
4, 31925, Note_on_c, 0, 28, 98
4, 32141, Note_on_c, 0, 40, 0
4, 32144, Note_on_c, 0, 28, 0
4, 32157, Note_on_c, 0, 31, 88
4, 32160, Note_on_c, 0, 43, 98
4, 32376, Note_on_c, 0, 31, 0
4, 32384, Note_on_c, 0, 43, 0
4, 32400, Control_c, 0, 10, 54
4, 32400, Note_on_c, 0, 52, 78
4, 32408, Note_on_c, 0, 40, 98
4, 32408, Note_on_c, 0, 52, 98
4, 32459, Note_on_c, 0, 52, 0
4, 32520, Note_on_c, 0, 52, 88
4, 32579, Note_on_c, 0, 52, 0
4, 32618, Note_on_c, 0, 52, 0
4, 32620, Note_on_c, 0, 40, 0
4, 32653, Note_on_c, 0, 40, 98
4, 32653, Note_on_c, 0, 28, 98
4, 32852, Note_on_c, 0, 28, 0
4, 32868, Note_on_c, 0, 40, 0
4, 32882, Note_on_c, 0, 33, 78
4, 32882, Note_on_c, 0, 43, 98
4, 33093, Note_on_c, 0, 33, 0
4, 33100, Note_on_c, 0, 43, 0
4, 33116, Note_on_c, 0, 40, 98
4, 33117, Note_on_c, 0, 52, 98
4, 33120, Note_on_c, 0, 52, 78
4, 33179, Note_on_c, 0, 52, 0
4, 33334, Note_on_c, 0, 40, 0
4, 33336, Note_on_c, 0, 52, 0
4, 33360, Note_on_c, 0, 40, 70
4, 33362, Note_on_c, 0, 40, 98
4, 33363, Note_on_c, 0, 28, 98
4, 33419, Note_on_c, 0, 40, 0
4, 33480, Control_c, 0, 10, 55
4, 33576, Note_on_c, 0, 28, 0
4, 33582, Note_on_c, 0, 40, 0
4, 33604, Note_on_c, 0, 31, 78
4, 33605, Note_on_c, 0, 43, 88
4, 33819, Note_on_c, 0, 31, 0
4, 33823, Note_on_c, 0, 43, 0
4, 33846, Note_on_c, 0, 40, 88
4, 33846, Note_on_c, 0, 52, 98
4, 34050, Note_on_c, 0, 52, 0
4, 34058, Note_on_c, 0, 40, 0
4, 34088, Note_on_c, 0, 40, 98
4, 34090, Note_on_c, 0, 28, 98
4, 34290, Note_on_c, 0, 28, 0
4, 34291, Note_on_c, 0, 40, 0
4, 34325, Note_on_c, 0, 31, 78
4, 34327, Note_on_c, 0, 43, 98
4, 34548, Note_on_c, 0, 31, 0
4, 34550, Note_on_c, 0, 43, 0
4, 34573, Note_on_c, 0, 40, 98
4, 34573, Note_on_c, 0, 52, 98
4, 34778, Note_on_c, 0, 52, 0
4, 34778, Note_on_c, 0, 40, 0
4, 34810, Note_on_c, 0, 40, 98
4, 34812, Note_on_c, 0, 28, 98
4, 35018, Note_on_c, 0, 40, 0
4, 35020, Note_on_c, 0, 28, 0
4, 35044, Note_on_c, 0, 43, 88
4, 35045, Note_on_c, 0, 31, 88
4, 35228, Note_on_c, 0, 43, 0
4, 35244, Note_on_c, 0, 31, 0
4, 35282, Note_on_c, 0, 52, 98
4, 35284, Note_on_c, 0, 64, 110
4, 35488, Note_on_c, 0, 52, 0
4, 35492, Note_on_c, 0, 64, 0
4, 35530, Note_on_c, 0, 52, 110
4, 35530, Note_on_c, 0, 64, 110
4, 35730, Note_on_c, 0, 64, 0
4, 35733, Note_on_c, 0, 52, 0
4, 35760, Note_on_c, 0, 40, 88
4, 35762, Note_on_c, 0, 52, 88
4, 35944, Note_on_c, 0, 40, 0
4, 35975, Note_on_c, 0, 52, 0
4, 35992, Note_on_c, 0, 43, 88
4, 35994, Note_on_c, 0, 31, 98
4, 36202, Note_on_c, 0, 31, 0
4, 36209, Note_on_c, 0, 43, 0
4, 36236, Note_on_c, 0, 52, 98
4, 36237, Note_on_c, 0, 64, 98
4, 36417, Note_on_c, 0, 64, 0
4, 36427, Note_on_c, 0, 52, 0
4, 36480, Note_on_c, 0, 33, 88
4, 36480, Note_on_c, 0, 45, 88
4, 36689, Note_on_c, 0, 45, 0
4, 36696, Note_on_c, 0, 33, 0
4, 36712, Note_on_c, 0, 45, 98
4, 36713, Note_on_c, 0, 57, 98
4, 36936, Note_on_c, 0, 45, 0
4, 36942, Note_on_c, 0, 57, 0
4, 36955, Note_on_c, 0, 29, 88
4, 36955, Note_on_c, 0, 41, 88
4, 37169, Note_on_c, 0, 41, 0
4, 37172, Note_on_c, 0, 29, 0
4, 37200, Note_on_c, 0, 52, 88
4, 37201, Note_on_c, 0, 64, 98
4, 37400, Note_on_c, 0, 52, 0
4, 37415, Note_on_c, 0, 64, 0
4, 37433, Note_on_c, 0, 48, 88
4, 37434, Note_on_c, 0, 60, 98
4, 37607, Note_on_c, 0, 48, 0
4, 37635, Note_on_c, 0, 60, 0
4, 37675, Note_on_c, 0, 45, 78
4, 37676, Note_on_c, 0, 33, 88
4, 37880, Note_on_c, 0, 33, 0
4, 37888, Note_on_c, 0, 45, 0
4, 37925, Note_on_c, 0, 50, 98
4, 37925, Note_on_c, 0, 62, 110
4, 38144, Note_on_c, 0, 50, 0
4, 38152, Note_on_c, 0, 62, 0
4, 38153, Note_on_c, 0, 47, 88
4, 38155, Note_on_c, 0, 35, 98
4, 38357, Note_on_c, 0, 35, 0
4, 38362, Note_on_c, 0, 47, 0
4, 38390, Note_on_c, 0, 55, 98
4, 38390, Note_on_c, 0, 67, 98
4, 38611, Note_on_c, 0, 55, 0
4, 38614, Note_on_c, 0, 67, 0
4, 38626, Note_on_c, 0, 41, 88
4, 38626, Note_on_c, 0, 29, 88
4, 38880, Note_on_c, 0, 41, 0
4, 38881, Note_on_c, 0, 29, 0
4, 38881, Note_on_c, 0, 47, 88
4, 38883, Note_on_c, 0, 59, 88
4, 39123, Note_on_c, 0, 47, 0
4, 39126, Note_on_c, 0, 43, 88
4, 39126, Note_on_c, 0, 31, 88
4, 39131, Note_on_c, 0, 59, 0
4, 39354, Note_on_c, 0, 43, 0
4, 39355, Note_on_c, 0, 31, 0
4, 39367, Note_on_c, 0, 52, 88
4, 39369, Note_on_c, 0, 64, 88
4, 39598, Note_on_c, 0, 52, 0
4, 39602, Note_on_c, 0, 48, 78
4, 39604, Note_on_c, 0, 60, 88
4, 39607, Note_on_c, 0, 64, 0
4, 39834, Note_on_c, 0, 48, 0
4, 39842, Note_on_c, 0, 40, 78
4, 39846, Note_on_c, 0, 52, 88
4, 39848, Note_on_c, 0, 60, 0
4, 40061, Note_on_c, 0, 52, 0
4, 40064, Note_on_c, 0, 40, 0
4, 40072, Note_on_c, 0, 45, 78
4, 40073, Note_on_c, 0, 33, 78
4, 40283, Note_on_c, 0, 33, 0
4, 40286, Note_on_c, 0, 45, 0
4, 40317, Note_on_c, 0, 52, 88
4, 40319, Note_on_c, 0, 64, 98
4, 40549, Note_on_c, 0, 52, 0
4, 40553, Note_on_c, 0, 48, 88
4, 40553, Note_on_c, 0, 60, 98
4, 40556, Note_on_c, 0, 64, 0
4, 40736, Note_on_c, 0, 48, 0
4, 40756, Note_on_c, 0, 60, 0
4, 40787, Note_on_c, 0, 45, 62
4, 40787, Note_on_c, 0, 33, 78
4, 41027, Note_on_c, 0, 33, 0
4, 41031, Note_on_c, 0, 45, 0
4, 41043, Note_on_c, 0, 53, 88
4, 41043, Note_on_c, 0, 65, 98
4, 41284, Note_on_c, 0, 47, 78
4, 41286, Note_on_c, 0, 53, 0
4, 41286, Note_on_c, 0, 35, 62
4, 41289, Note_on_c, 0, 65, 0
4, 41291, Note_on_c, 0, 36, 35
4, 41296, Note_on_c, 0, 36, 0
4, 41522, Note_on_c, 0, 52, 78
4, 41522, Note_on_c, 0, 64, 88
4, 41528, Note_on_c, 0, 47, 0
4, 41530, Note_on_c, 0, 35, 0
4, 41753, Note_on_c, 0, 45, 78
4, 41754, Note_on_c, 0, 33, 88
4, 41772, Note_on_c, 0, 52, 0
4, 41775, Note_on_c, 0, 64, 0
4, 42000, Note_on_c, 0, 60, 78
4, 42000, Note_on_c, 0, 48, 78
4, 42003, Note_on_c, 0, 45, 0
4, 42007, Note_on_c, 0, 33, 0
4, 42239, Note_on_c, 0, 48, 0
4, 42246, Note_on_c, 0, 60, 0
4, 42273, Note_on_c, 0, 50, 78
4, 42275, Note_on_c, 0, 62, 88
4, 42494, Note_on_c, 0, 45, 78
4, 42496, Note_on_c, 0, 33, 88
4, 42502, Note_on_c, 0, 50, 0
4, 42507, Note_on_c, 0, 62, 0
4, 42673, Note_on_c, 0, 45, 0
4, 42684, Note_on_c, 0, 33, 0
4, 42723, Note_on_c, 0, 43, 78
4, 42724, Note_on_c, 0, 31, 78
4, 42920, Note_on_c, 0, 31, 0
4, 42923, Note_on_c, 0, 43, 0
4, 42956, Note_on_c, 0, 40, 78
4, 42958, Note_on_c, 0, 52, 88
4, 43153, Note_on_c, 0, 40, 0
4, 43183, Note_on_c, 0, 52, 0
4, 43190, Note_on_c, 0, 36, 88
4, 43190, Note_on_c, 0, 48, 88
4, 43421, Note_on_c, 0, 48, 0
4, 43421, Note_on_c, 0, 36, 0
4, 43433, Note_on_c, 0, 40, 88
4, 43435, Note_on_c, 0, 28, 78
4, 43644, Note_on_c, 0, 40, 0
4, 43650, Note_on_c, 0, 28, 0
4, 43673, Note_on_c, 0, 31, 70
4, 43676, Note_on_c, 0, 43, 78
4, 43851, Note_on_c, 0, 43, 0
4, 43865, Note_on_c, 0, 31, 0
4, 43928, Note_on_c, 0, 52, 88
4, 43928, Note_on_c, 0, 64, 98
4, 44152, Note_on_c, 0, 52, 0
4, 44156, Note_on_c, 0, 64, 0
4, 44166, Note_on_c, 0, 33, 88
4, 44168, Note_on_c, 0, 45, 78
4, 44356, Note_on_c, 0, 45, 0
4, 44364, Note_on_c, 0, 33, 0
4, 44400, Note_on_c, 0, 45, 88
4, 44400, Note_on_c, 0, 57, 98
4, 44617, Note_on_c, 0, 45, 0
4, 44620, Note_on_c, 0, 57, 0
4, 44637, Note_on_c, 0, 43, 78
4, 44637, Note_on_c, 0, 31, 78
4, 44864, Note_on_c, 0, 31, 0
4, 44864, Note_on_c, 0, 43, 0
4, 44882, Note_on_c, 0, 52, 88
4, 44882, Note_on_c, 0, 64, 98
4, 45070, Note_on_c, 0, 52, 0
4, 45076, Note_on_c, 0, 64, 0
4, 45105, Note_on_c, 0, 60, 88
4, 45107, Note_on_c, 0, 48, 62
4, 45108, Note_on_c, 0, 47, 88
4, 45137, Note_on_c, 0, 47, 0
4, 45299, Note_on_c, 0, 48, 0
4, 45322, Note_on_c, 0, 60, 0
4, 45342, Note_on_c, 0, 40, 78
4, 45344, Note_on_c, 0, 52, 88
4, 45528, Note_on_c, 0, 52, 0
4, 45529, Note_on_c, 0, 40, 0
4, 45600, Note_on_c, 0, 31, 88
4, 45600, Note_on_c, 0, 43, 78
4, 45808, Note_on_c, 0, 31, 0
4, 45809, Note_on_c, 0, 43, 0
4, 45833, Note_on_c, 0, 43, 78
4, 45834, Note_on_c, 0, 55, 78
4, 46057, Note_on_c, 0, 43, 0
4, 46066, Note_on_c, 0, 55, 0
4, 46068, Note_on_c, 0, 40, 78
4, 46068, Note_on_c, 0, 52, 78
4, 46286, Note_on_c, 0, 40, 0
4, 46296, Note_on_c, 0, 52, 0
4, 46312, Note_on_c, 0, 28, 88
4, 46312, Note_on_c, 0, 40, 88
4, 46536, Note_on_c, 0, 28, 0
4, 46540, Note_on_c, 0, 40, 0
4, 46545, Note_on_c, 0, 33, 70
4, 46548, Note_on_c, 0, 45, 88
4, 46789, Note_on_c, 0, 33, 0
4, 46790, Note_on_c, 0, 40, 78
4, 46793, Note_on_c, 0, 52, 78
4, 46800, Note_on_c, 0, 45, 0
4, 46975, Note_on_c, 0, 40, 0
4, 47018, Note_on_c, 0, 52, 0
4, 47030, Note_on_c, 0, 43, 62
4, 47032, Note_on_c, 0, 31, 70
4, 47214, Note_on_c, 0, 43, 0
4, 47232, Note_on_c, 0, 31, 0
4, 47268, Note_on_c, 0, 43, 78
4, 47272, Note_on_c, 0, 55, 88
4, 47504, Note_on_c, 0, 43, 0
4, 47509, Note_on_c, 0, 55, 0
4, 47524, Note_on_c, 0, 43, 78
4, 47524, Note_on_c, 0, 31, 78
4, 47732, Note_on_c, 0, 31, 0
4, 47741, Note_on_c, 0, 43, 0
4, 47755, Note_on_c, 0, 40, 78
4, 47756, Note_on_c, 0, 52, 88
4, 47987, Note_on_c, 0, 40, 0
4, 47988, Note_on_c, 0, 52, 0
4, 48000, Note_on_c, 0, 43, 70
4, 48000, Note_on_c, 0, 55, 88
4, 48231, Note_on_c, 0, 43, 0
4, 48235, Note_on_c, 0, 55, 0
4, 48237, Note_on_c, 0, 29, 88
4, 48239, Note_on_c, 0, 41, 88
4, 48967, Note_on_c, 0, 30, 78
4, 48968, Note_on_c, 0, 42, 70
4, 48973, Note_on_c, 0, 29, 0
4, 48980, Note_on_c, 0, 41, 0
4, 49200, Note_on_c, 0, 32, 78
4, 49200, Note_on_c, 0, 44, 78
4, 49201, Note_on_c, 0, 30, 0
4, 49206, Note_on_c, 0, 42, 0
4, 49557, Note_on_c, 0, 32, 0
4, 49560, Note_on_c, 0, 34, 70
4, 49561, Note_on_c, 0, 46, 78
4, 49562, Note_on_c, 0, 44, 0
4, 50314, Note_on_c, 0, 46, 0
4, 50314, Note_on_c, 0, 34, 0
4, 50406, Note_on_c, 0, 31, 55
4, 50406, Note_on_c, 0, 43, 55
4, 50528, Note_on_c, 0, 31, 0
4, 50531, Note_on_c, 0, 36, 35
4, 50534, Note_on_c, 0, 48, 35
4, 50539, Note_on_c, 0, 43, 0
4, 50770, Note_on_c, 0, 48, 0
4, 50770, Note_on_c, 0, 36, 0
4, 50880, Note_on_c, 0, 39, 62
4, 50893, Note_on_c, 0, 36, 49
4, 51055, Note_on_c, 0, 39, 0
4, 51073, Note_on_c, 0, 36, 0
4, 51479, Note_on_c, 0, 39, 70
4, 51480, Note_on_c, 0, 36, 70
4, 51594, Note_on_c, 0, 39, 0
4, 51595, Note_on_c, 0, 36, 0
4, 51836, Note_on_c, 0, 58, 70
4, 51836, Note_on_c, 0, 51, 70
4, 51837, Note_on_c, 0, 48, 39
4, 51935, Note_on_c, 0, 51, 0
4, 51936, Note_on_c, 0, 48, 0
4, 51948, Note_on_c, 0, 58, 0
4, 52087, Note_on_c, 0, 49, 62
4, 52088, Note_on_c, 0, 60, 55
4, 52089, Note_on_c, 0, 53, 62
4, 52168, Note_on_c, 0, 53, 0
4, 52168, Note_on_c, 0, 60, 0
4, 52168, Note_on_c, 0, 49, 0
4, 52212, Note_on_c, 0, 36, 62
4, 52212, Note_on_c, 0, 39, 70
4, 52313, Note_on_c, 0, 39, 0
4, 52318, Note_on_c, 0, 36, 0
4, 52677, Note_on_c, 0, 36, 70
4, 52677, Note_on_c, 0, 39, 78
4, 52765, Note_on_c, 0, 39, 0
4, 52768, Note_on_c, 0, 36, 0
4, 53037, Note_on_c, 0, 49, 55
4, 53099, Note_on_c, 0, 51, 55
4, 53106, Note_on_c, 0, 49, 0
4, 53160, Note_on_c, 0, 53, 62
4, 53163, Note_on_c, 0, 51, 0
4, 53216, Note_on_c, 0, 53, 0
4, 53219, Note_on_c, 0, 55, 49
4, 53276, Note_on_c, 0, 55, 0
4, 53279, Note_on_c, 0, 57, 62
4, 53336, Note_on_c, 0, 59, 49
4, 53337, Note_on_c, 0, 57, 0
4, 53396, Note_on_c, 0, 59, 0
4, 53400, Note_on_c, 0, 61, 78
4, 53520, Note_on_c, 0, 37, 78
4, 53521, Note_on_c, 0, 61, 0
4, 53615, Note_on_c, 0, 37, 0
4, 53636, Note_on_c, 0, 52, 70
4, 53760, Note_on_c, 0, 38, 78
4, 53765, Note_on_c, 0, 52, 0
4, 53877, Note_on_c, 0, 38, 0
4, 53880, Note_on_c, 0, 54, 98
4, 54000, Note_on_c, 0, 37, 98
4, 54010, Note_on_c, 0, 54, 0
4, 54120, Note_on_c, 0, 52, 88
4, 54122, Note_on_c, 0, 37, 0
4, 54240, Note_on_c, 0, 38, 88
4, 54245, Note_on_c, 0, 52, 0
4, 54352, Note_on_c, 0, 38, 0
4, 54360, Note_on_c, 0, 54, 98
4, 54480, Note_on_c, 0, 38, 70
4, 54489, Note_on_c, 0, 54, 0
4, 54600, Note_on_c, 0, 54, 98
4, 54604, Note_on_c, 0, 38, 0
4, 54720, Note_on_c, 0, 54, 0
4, 54720, Note_on_c, 0, 37, 88
4, 54840, Note_on_c, 0, 52, 88
4, 54850, Note_on_c, 0, 37, 0
4, 54957, Note_on_c, 0, 52, 0
4, 54960, Note_on_c, 0, 38, 70
4, 55080, Note_on_c, 0, 54, 98
4, 55085, Note_on_c, 0, 38, 0
4, 55181, Note_on_c, 0, 54, 0
4, 55200, Note_on_c, 0, 37, 110
4, 55200, Note_on_c, 0, 49, 110
4, 55236, Note_on_c, 0, 49, 0
4, 55255, Note_on_c, 0, 37, 0
4, 55260, Note_on_c, 0, 51, 110
4, 55301, Note_on_c, 0, 51, 0
4, 55320, Note_on_c, 0, 53, 110
4, 55354, Note_on_c, 0, 53, 0
4, 55380, Note_on_c, 0, 55, 98
4, 55409, Note_on_c, 0, 55, 0
4, 55440, Note_on_c, 0, 57, 98
4, 55474, Note_on_c, 0, 57, 0
4, 55500, Note_on_c, 0, 59, 88
4, 55522, Note_on_c, 0, 59, 0
4, 55560, Note_on_c, 0, 61, 124
4, 55652, Note_on_c, 0, 61, 0
4, 55800, Note_on_c, 0, 36, 110
4, 55999, Note_on_c, 0, 36, 0
4, 56040, Note_on_c, 0, 61, 110
4, 56117, Note_on_c, 0, 61, 0
4, 56160, Note_on_c, 0, 42, 110
4, 56254, Note_on_c, 0, 42, 0
4, 56280, Note_on_c, 0, 43, 88
4, 56369, Note_on_c, 0, 43, 0
4, 56400, Note_on_c, 0, 44, 110
4, 56471, Note_on_c, 0, 44, 0
4, 56520, Note_on_c, 0, 42, 110
4, 56606, Note_on_c, 0, 42, 0
4, 56640, Note_on_c, 0, 43, 98
4, 56715, Note_on_c, 0, 43, 0
4, 56760, Note_on_c, 0, 44, 110
4, 56841, Note_on_c, 0, 44, 0
4, 56880, Note_on_c, 0, 42, 110
4, 56944, Note_on_c, 0, 42, 0
4, 57000, Note_on_c, 0, 43, 98
4, 57078, Note_on_c, 0, 43, 0
4, 57120, Note_on_c, 0, 44, 110
4, 57198, Note_on_c, 0, 44, 0
4, 57240, Note_on_c, 0, 42, 110
4, 57306, Note_on_c, 0, 42, 0
4, 57360, Note_on_c, 0, 43, 88
4, 57441, Note_on_c, 0, 43, 0
4, 57480, Note_on_c, 0, 44, 110
4, 57543, Note_on_c, 0, 44, 0
4, 57600, Note_on_c, 0, 42, 124
4, 57641, Note_on_c, 0, 42, 0
4, 57840, Note_on_c, 0, 44, 88
4, 57913, Note_on_c, 0, 44, 0
4, 57960, Note_on_c, 0, 42, 98
4, 58027, Note_on_c, 0, 42, 0
4, 58080, Note_on_c, 0, 43, 78
4, 58148, Note_on_c, 0, 43, 0
4, 58200, Note_on_c, 0, 44, 98
4, 58278, Note_on_c, 0, 44, 0
4, 58320, Note_on_c, 0, 42, 110
4, 58384, Note_on_c, 0, 42, 0
4, 58440, Note_on_c, 0, 43, 88
4, 58517, Note_on_c, 0, 43, 0
4, 58560, Note_on_c, 0, 44, 98
4, 58631, Note_on_c, 0, 44, 0
4, 58680, Note_on_c, 0, 42, 110
4, 58752, Note_on_c, 0, 42, 0
4, 58800, Note_on_c, 0, 43, 88
4, 58865, Note_on_c, 0, 43, 0
4, 58920, Note_on_c, 0, 44, 98
4, 58981, Note_on_c, 0, 44, 0
4, 59040, Note_on_c, 0, 42, 110
4, 59117, Note_on_c, 0, 42, 0
4, 59160, Note_on_c, 0, 43, 78
4, 59232, Note_on_c, 0, 43, 0
4, 59280, Note_on_c, 0, 44, 98
4, 59358, Note_on_c, 0, 44, 0
4, 59400, Note_on_c, 0, 42, 98
4, 59470, Note_on_c, 0, 42, 0
4, 59520, Note_on_c, 0, 43, 88
4, 59593, Note_on_c, 0, 43, 0
4, 59640, Note_on_c, 0, 44, 98
4, 59715, Note_on_c, 0, 44, 0
4, 59760, Note_on_c, 0, 42, 98
4, 59829, Note_on_c, 0, 42, 0
4, 59880, Note_on_c, 0, 43, 78
4, 59950, Note_on_c, 0, 43, 0
4, 60000, Note_on_c, 0, 44, 98
4, 60062, Note_on_c, 0, 44, 0
4, 60120, Note_on_c, 0, 42, 98
4, 60191, Note_on_c, 0, 42, 0
4, 60240, Note_on_c, 0, 43, 88
4, 60240, Note_on_c, 0, 55, 98
4, 60300, Note_on_c, 0, 55, 0
4, 60304, Note_on_c, 0, 43, 0
4, 60360, Note_on_c, 0, 44, 98
4, 60360, Note_on_c, 0, 56, 110
4, 60418, Note_on_c, 0, 56, 0
4, 60419, Note_on_c, 0, 44, 0
4, 60480, Note_on_c, 0, 58, 110
4, 60480, Note_on_c, 0, 46, 88
4, 60546, Note_on_c, 0, 58, 0
4, 60547, Note_on_c, 0, 46, 0
4, 60600, Note_on_c, 0, 48, 88
4, 60600, Note_on_c, 0, 60, 98
4, 60665, Note_on_c, 0, 48, 0
4, 60690, Note_on_c, 0, 60, 0
4, 60720, Note_on_c, 0, 46, 110
4, 60720, Note_on_c, 0, 34, 110
4, 60772, Note_on_c, 0, 34, 0
4, 60777, Note_on_c, 0, 46, 0
4, 60840, Note_on_c, 0, 62, 98
4, 60840, Note_on_c, 0, 50, 98
4, 60886, Note_on_c, 0, 50, 0
4, 60917, Note_on_c, 0, 62, 0
4, 60960, Note_on_c, 0, 44, 110
4, 60960, Note_on_c, 0, 32, 110
4, 61015, Note_on_c, 0, 32, 0
4, 61023, Note_on_c, 0, 44, 0
4, 61080, Note_on_c, 0, 60, 110
4, 61080, Note_on_c, 0, 48, 98
4, 61138, Note_on_c, 0, 48, 0
4, 61160, Note_on_c, 0, 60, 0
4, 61200, Note_on_c, 0, 44, 110
4, 61200, Note_on_c, 0, 32, 110
4, 61256, Note_on_c, 0, 32, 0
4, 61262, Note_on_c, 0, 44, 0
4, 61320, Note_on_c, 0, 50, 98
4, 61320, Note_on_c, 0, 62, 110
4, 61380, Note_on_c, 0, 50, 0
4, 61400, Note_on_c, 0, 62, 0
4, 61440, Note_on_c, 0, 43, 110
4, 61440, Note_on_c, 0, 31, 98
4, 61499, Note_on_c, 0, 31, 0
4, 61504, Note_on_c, 0, 43, 0
4, 61560, Note_on_c, 0, 41, 98
4, 61560, Note_on_c, 0, 53, 110
4, 61637, Note_on_c, 0, 41, 0
4, 61649, Note_on_c, 0, 53, 0
4, 61680, Note_on_c, 0, 31, 98
4, 61680, Note_on_c, 0, 43, 110
4, 61704, Note_on_c, 0, 43, 0
4, 61733, Note_on_c, 0, 31, 0
4, 61800, Note_on_c, 0, 43, 110
4, 61800, Note_on_c, 0, 60, 98
4, 61853, Note_on_c, 0, 60, 0
4, 61862, Note_on_c, 0, 43, 0
4, 61920, Note_on_c, 0, 41, 110
4, 61920, Note_on_c, 0, 29, 110
4, 61983, Note_on_c, 0, 41, 0
4, 61990, Note_on_c, 0, 29, 0
4, 62040, Note_on_c, 0, 41, 98
4, 62040, Note_on_c, 0, 53, 110
4, 62093, Note_on_c, 0, 53, 0
4, 62100, Note_on_c, 0, 41, 0
4, 62160, Note_on_c, 0, 31, 88
4, 62160, Note_on_c, 0, 43, 88
4, 62204, Note_on_c, 0, 31, 0
4, 62205, Note_on_c, 0, 43, 0
4, 62280, Note_on_c, 0, 43, 88
4, 62280, Note_on_c, 0, 55, 98
4, 62326, Note_on_c, 0, 55, 0
4, 62330, Note_on_c, 0, 43, 0
4, 62400, Note_on_c, 0, 41, 88
4, 62400, Note_on_c, 0, 29, 88
4, 62449, Note_on_c, 0, 29, 0
4, 62450, Note_on_c, 0, 41, 0
4, 62520, Note_on_c, 0, 53, 98
4, 62520, Note_on_c, 0, 41, 98
4, 62571, Note_on_c, 0, 41, 0
4, 62578, Note_on_c, 0, 53, 0
4, 62640, Note_on_c, 0, 31, 78
4, 62640, Note_on_c, 0, 43, 88
4, 62690, Note_on_c, 0, 43, 0
4, 62693, Note_on_c, 0, 31, 0
4, 62760, Note_on_c, 0, 43, 88
4, 62760, Note_on_c, 0, 55, 98
4, 62810, Note_on_c, 0, 55, 0
4, 62812, Note_on_c, 0, 43, 0
4, 62880, Note_on_c, 0, 29, 98
4, 62880, Note_on_c, 0, 41, 88
4, 62934, Note_on_c, 0, 29, 0
4, 62948, Note_on_c, 0, 41, 0
4, 63000, Note_on_c, 0, 41, 78
4, 63000, Note_on_c, 0, 53, 98
4, 63054, Note_on_c, 0, 41, 0
4, 63056, Note_on_c, 0, 53, 0
4, 63120, Note_on_c, 0, 31, 98
4, 63120, Note_on_c, 0, 43, 98
4, 63120, Note_on_c, 0, 32, 62
4, 63138, Note_on_c, 0, 32, 0
4, 63171, Note_on_c, 0, 43, 0
4, 63174, Note_on_c, 0, 31, 0
4, 63240, Note_on_c, 0, 43, 88
4, 63240, Note_on_c, 0, 55, 110
4, 63293, Note_on_c, 0, 43, 0
4, 63295, Note_on_c, 0, 55, 0
4, 63360, Note_on_c, 0, 41, 98
4, 63360, Note_on_c, 0, 29, 98
4, 63419, Note_on_c, 0, 29, 0
4, 63419, Note_on_c, 0, 41, 0
4, 63480, Note_on_c, 0, 41, 78
4, 63510, Note_on_c, 0, 43, 62
4, 63534, Note_on_c, 0, 41, 0
4, 63540, Note_on_c, 0, 45, 78
4, 63553, Note_on_c, 0, 43, 0
4, 63570, Note_on_c, 0, 47, 88
4, 63579, Note_on_c, 0, 45, 0
4, 63599, Note_on_c, 0, 47, 0
4, 63600, Note_on_c, 0, 52, 110
4, 63600, Note_on_c, 0, 64, 110
4, 63797, Note_on_c, 0, 64, 0
4, 63802, Note_on_c, 0, 52, 0
4, 63840, Note_on_c, 0, 40, 98
4, 63840, Note_on_c, 0, 28, 110
4, 63894, Note_on_c, 0, 28, 0
4, 63904, Note_on_c, 0, 40, 0
4, 63960, Note_on_c, 0, 44, 88
4, 63960, Note_on_c, 0, 56, 98
4, 64073, Note_on_c, 0, 56, 0
4, 64075, Note_on_c, 0, 44, 0
4, 64080, Note_on_c, 0, 39, 78
4, 64080, Note_on_c, 0, 51, 88
4, 64198, Note_on_c, 0, 39, 0
4, 64200, Note_on_c, 0, 49, 88
4, 64200, Note_on_c, 0, 61, 98
4, 64205, Note_on_c, 0, 51, 0
4, 64320, Note_on_c, 0, 49, 0
4, 64320, Note_on_c, 0, 45, 78
4, 64320, Note_on_c, 0, 57, 98
4, 64321, Note_on_c, 0, 61, 0
4, 64397, Note_on_c, 0, 45, 0
4, 64424, Note_on_c, 0, 57, 0
4, 64440, Note_on_c, 0, 41, 88
4, 64440, Note_on_c, 0, 29, 88
4, 64560, Note_on_c, 0, 53, 98
4, 64680, Note_on_c, 0, 46, 110
4, 64680, Note_on_c, 0, 58, 110
4, 64686, Note_on_c, 0, 53, 0
4, 64778, Note_on_c, 0, 58, 0
4, 64785, Note_on_c, 0, 46, 0
4, 64800, Note_on_c, 0, 44, 110
4, 64800, Note_on_c, 0, 56, 110
4, 64866, Note_on_c, 0, 44, 0
4, 64871, Note_on_c, 0, 56, 0
4, 64920, Note_on_c, 0, 70, 110
4, 64920, Note_on_c, 0, 58, 110
4, 64997, Note_on_c, 0, 70, 0
4, 65001, Note_on_c, 0, 58, 0
4, 65040, Note_on_c, 0, 53, 98
4, 65157, Note_on_c, 0, 53, 0
4, 65160, Note_on_c, 0, 58, 98
4, 65160, Note_on_c, 0, 46, 110
4, 65250, Note_on_c, 0, 58, 0
4, 65256, Note_on_c, 0, 46, 0
4, 65280, Note_on_c, 0, 44, 98
4, 65280, Note_on_c, 0, 56, 98
4, 65346, Note_on_c, 0, 44, 0
4, 65354, Note_on_c, 0, 56, 0
4, 65400, Note_on_c, 0, 51, 110
4, 65400, Note_on_c, 0, 63, 110
4, 65520, Note_on_c, 0, 58, 110
4, 65530, Note_on_c, 0, 63, 0
4, 65532, Note_on_c, 0, 51, 0
4, 65606, Note_on_c, 0, 29, 0
4, 65614, Note_on_c, 0, 41, 0
4, 65615, Note_on_c, 0, 58, 0
4, 65640, Note_on_c, 0, 41, 88
4, 65759, Note_on_c, 0, 41, 0
4, 65760, Note_on_c, 0, 43, 88
4, 65880, Note_on_c, 0, 41, 78
4, 65885, Note_on_c, 0, 43, 0
4, 66000, Note_on_c, 0, 44, 98
4, 66002, Note_on_c, 0, 41, 0
4, 66117, Note_on_c, 0, 44, 0
4, 66120, Note_on_c, 0, 41, 88
4, 66240, Note_on_c, 0, 46, 78
4, 66244, Note_on_c, 0, 41, 0
4, 66360, Note_on_c, 0, 41, 78
4, 66366, Note_on_c, 0, 46, 0
4, 66476, Note_on_c, 0, 41, 0
4, 66480, Note_on_c, 0, 48, 78
4, 66600, Note_on_c, 0, 41, 88
4, 66605, Note_on_c, 0, 48, 0
4, 66720, Note_on_c, 0, 49, 98
4, 66730, Note_on_c, 0, 41, 0
4, 66792, Note_on_c, 0, 49, 0
4, 66840, Note_on_c, 0, 41, 78
4, 66960, Note_on_c, 0, 50, 78
4, 66965, Note_on_c, 0, 41, 0
4, 67072, Note_on_c, 0, 50, 0
4, 67080, Note_on_c, 0, 41, 78
4, 67200, Note_on_c, 0, 51, 98
4, 67201, Note_on_c, 0, 41, 0
4, 67311, Note_on_c, 0, 51, 0
4, 67320, Note_on_c, 0, 41, 78
4, 67346, Note_on_c, 0, 41, 0
4, 67350, Note_on_c, 0, 43, 70
4, 67380, Note_on_c, 0, 43, 0
4, 67380, Note_on_c, 0, 45, 70
4, 67410, Note_on_c, 0, 47, 88
4, 67412, Note_on_c, 0, 45, 0
4, 67439, Note_on_c, 0, 47, 0
4, 67440, Note_on_c, 0, 52, 98
4, 67440, Note_on_c, 0, 64, 110
4, 67635, Note_on_c, 0, 52, 0
4, 67642, Note_on_c, 0, 64, 0
4, 67680, Note_on_c, 0, 40, 110
4, 67680, Note_on_c, 0, 28, 110
4, 67778, Note_on_c, 0, 28, 0
4, 67780, Note_on_c, 0, 40, 0
4, 67800, Note_on_c, 0, 44, 98
4, 67800, Note_on_c, 0, 56, 110
4, 67911, Note_on_c, 0, 56, 0
4, 67912, Note_on_c, 0, 44, 0
4, 67920, Note_on_c, 0, 39, 98
4, 67920, Note_on_c, 0, 51, 98
4, 67989, Note_on_c, 0, 39, 0
4, 67991, Note_on_c, 0, 51, 0
4, 68040, Note_on_c, 0, 58, 110
4, 68040, Note_on_c, 0, 70, 110
4, 68280, Note_on_c, 0, 45, 98
4, 68280, Note_on_c, 0, 33, 98
4, 68284, Note_on_c, 0, 58, 0
4, 68286, Note_on_c, 0, 70, 0
4, 68358, Note_on_c, 0, 33, 0
4, 68375, Note_on_c, 0, 45, 0
4, 68400, Note_on_c, 0, 46, 98
4, 68400, Note_on_c, 0, 58, 110
4, 68520, Note_on_c, 0, 42, 110
4, 68520, Note_on_c, 0, 54, 110
4, 68521, Note_on_c, 0, 58, 0
4, 68521, Note_on_c, 0, 46, 0
4, 68636, Note_on_c, 0, 42, 0
4, 68637, Note_on_c, 0, 54, 0
4, 68640, Note_on_c, 0, 51, 110
4, 68640, Note_on_c, 0, 63, 110
4, 68754, Note_on_c, 0, 51, 0
4, 68758, Note_on_c, 0, 63, 0
4, 68760, Note_on_c, 0, 47, 98
4, 68760, Note_on_c, 0, 59, 98
4, 68838, Note_on_c, 0, 47, 0
4, 68855, Note_on_c, 0, 59, 0
4, 68880, Note_on_c, 0, 43, 98
4, 68880, Note_on_c, 0, 31, 110
4, 69000, Note_on_c, 0, 57, 110
4, 69120, Note_on_c, 0, 64, 110
4, 69126, Note_on_c, 0, 57, 0
4, 69234, Note_on_c, 0, 64, 0
4, 69240, Note_on_c, 0, 59, 98
4, 69364, Note_on_c, 0, 59, 0
4, 69719, Note_on_c, 0, 31, 0
4, 69720, Note_on_c, 0, 32, 98
4, 69720, Note_on_c, 0, 44, 110
4, 69723, Note_on_c, 0, 43, 0
4, 69834, Note_on_c, 0, 44, 0
4, 69836, Note_on_c, 0, 32, 0
4, 69840, Note_on_c, 0, 46, 110
4, 69840, Note_on_c, 0, 58, 110
4, 70176, Note_on_c, 0, 46, 0
4, 70180, Note_on_c, 0, 58, 0
4, 70200, Note_on_c, 0, 46, 110
4, 70200, Note_on_c, 0, 34, 110
4, 70312, Note_on_c, 0, 46, 0
4, 70313, Note_on_c, 0, 34, 0
4, 70320, Note_on_c, 0, 46, 110
4, 70320, Note_on_c, 0, 58, 110
4, 70649, Note_on_c, 0, 46, 0
4, 70657, Note_on_c, 0, 58, 0
4, 70680, Note_on_c, 0, 46, 110
4, 70680, Note_on_c, 0, 34, 110
4, 70769, Note_on_c, 0, 34, 0
4, 70774, Note_on_c, 0, 46, 0
4, 70800, Note_on_c, 0, 46, 110
4, 70800, Note_on_c, 0, 58, 98
4, 70876, Note_on_c, 0, 46, 0
4, 70888, Note_on_c, 0, 58, 0
4, 70920, Note_on_c, 0, 44, 110
4, 70920, Note_on_c, 0, 32, 110
4, 71020, Note_on_c, 0, 44, 0
4, 71021, Note_on_c, 0, 32, 0
4, 71040, Note_on_c, 0, 46, 98
4, 71040, Note_on_c, 0, 58, 110
4, 72720, Note_on_c, 0, 44, 70
4, 72720, Note_on_c, 0, 56, 98
4, 72724, Note_on_c, 0, 46, 0
4, 72733, Note_on_c, 0, 58, 0
4, 72960, Note_on_c, 0, 49, 78
4, 72960, Note_on_c, 0, 39, 62
4, 72967, Note_on_c, 0, 44, 0
4, 72969, Note_on_c, 0, 56, 0
4, 73192, Note_on_c, 0, 39, 0
4, 73194, Note_on_c, 0, 49, 0
4, 73200, Note_on_c, 0, 34, 88
4, 73200, Note_on_c, 0, 46, 78
4, 73440, Note_on_c, 0, 30, 78
4, 73440, Note_on_c, 0, 42, 78
4, 73441, Note_on_c, 0, 34, 0
4, 73442, Note_on_c, 0, 46, 0
4, 73680, Note_on_c, 0, 50, 70
4, 73705, Note_on_c, 0, 42, 0
4, 73709, Note_on_c, 0, 30, 0
4, 73919, Note_on_c, 0, 50, 0
4, 73920, Note_on_c, 0, 47, 78
4, 74159, Note_on_c, 0, 47, 0
4, 74160, Note_on_c, 0, 43, 78
4, 74399, Note_on_c, 0, 43, 0
4, 74400, Note_on_c, 0, 38, 70
4, 74400, Note_on_c, 0, 50, 78
4, 74639, Note_on_c, 0, 50, 0
4, 74639, Note_on_c, 0, 38, 0
4, 74640, Note_on_c, 0, 35, 70
4, 74640, Note_on_c, 0, 47, 88
4, 74879, Note_on_c, 0, 47, 0
4, 74879, Note_on_c, 0, 35, 0
4, 74880, Note_on_c, 0, 31, 88
4, 74880, Note_on_c, 0, 43, 88
4, 75119, Note_on_c, 0, 43, 0
4, 75119, Note_on_c, 0, 31, 0
4, 75120, Note_on_c, 0, 38, 62
4, 75120, Note_on_c, 0, 50, 70
4, 75359, Note_on_c, 0, 50, 0
4, 75359, Note_on_c, 0, 38, 0
4, 75360, Note_on_c, 0, 47, 62
4, 75360, Note_on_c, 0, 35, 62
4, 75599, Note_on_c, 0, 35, 0
4, 75599, Note_on_c, 0, 47, 0
4, 75600, Note_on_c, 0, 31, 62
4, 75600, Note_on_c, 0, 43, 62
4, 75839, Note_on_c, 0, 43, 0
4, 75839, Note_on_c, 0, 31, 0
4, 75840, Note_on_c, 0, 50, 70
4, 75840, Note_on_c, 0, 38, 62
4, 76079, Note_on_c, 0, 38, 0
4, 76079, Note_on_c, 0, 50, 0
4, 76080, Note_on_c, 0, 35, 62
4, 76080, Note_on_c, 0, 47, 62
4, 76319, Note_on_c, 0, 47, 0
4, 76319, Note_on_c, 0, 35, 0
4, 76320, Note_on_c, 0, 31, 49
4, 76320, Note_on_c, 0, 43, 62
4, 76559, Note_on_c, 0, 43, 0
4, 76559, Note_on_c, 0, 31, 0
4, 76560, Note_on_c, 0, 38, 55
4, 76560, Note_on_c, 0, 50, 62
4, 76799, Note_on_c, 0, 50, 0
4, 76799, Note_on_c, 0, 38, 0
4, 76800, Note_on_c, 0, 47, 62
4, 76800, Note_on_c, 0, 35, 70
4, 77039, Note_on_c, 0, 35, 0
4, 77039, Note_on_c, 0, 47, 0
4, 77040, Note_on_c, 0, 31, 49
4, 77040, Note_on_c, 0, 43, 55
4, 77279, Note_on_c, 0, 43, 0
4, 77279, Note_on_c, 0, 31, 0
4, 77280, Note_on_c, 0, 50, 62
4, 77280, Note_on_c, 0, 38, 49
4, 77519, Note_on_c, 0, 38, 0
4, 77519, Note_on_c, 0, 50, 0
4, 77520, Note_on_c, 0, 47, 55
4, 77520, Note_on_c, 0, 35, 55
4, 77759, Note_on_c, 0, 35, 0
4, 77759, Note_on_c, 0, 47, 0
4, 77760, Note_on_c, 0, 43, 62
4, 77760, Note_on_c, 0, 31, 44
4, 77999, Note_on_c, 0, 31, 0
4, 77999, Note_on_c, 0, 43, 0
4, 78000, Note_on_c, 0, 50, 55
4, 78000, Note_on_c, 0, 38, 44
4, 78239, Note_on_c, 0, 38, 0
4, 78239, Note_on_c, 0, 50, 0
4, 78240, Note_on_c, 0, 35, 55
4, 78240, Note_on_c, 0, 47, 55
4, 78479, Note_on_c, 0, 47, 0
4, 78479, Note_on_c, 0, 35, 0
4, 78480, Note_on_c, 0, 43, 62
4, 78480, Note_on_c, 0, 31, 49
4, 78719, Note_on_c, 0, 31, 0
4, 78719, Note_on_c, 0, 43, 0
4, 78720, Note_on_c, 0, 38, 70
4, 78720, Note_on_c, 0, 26, 70
4, 78959, Note_on_c, 0, 26, 0
4, 78959, Note_on_c, 0, 38, 0
4, 78960, Note_on_c, 0, 29, 70
4, 78960, Note_on_c, 0, 41, 70
4, 79199, Note_on_c, 0, 41, 0
4, 79199, Note_on_c, 0, 29, 0
4, 79200, Note_on_c, 0, 34, 70
4, 79200, Note_on_c, 0, 46, 70
4, 79439, Note_on_c, 0, 46, 0
4, 79439, Note_on_c, 0, 34, 0
4, 79440, Note_on_c, 0, 41, 78
4, 79440, Note_on_c, 0, 29, 70
4, 79679, Note_on_c, 0, 29, 0
4, 79679, Note_on_c, 0, 41, 0
4, 79680, Note_on_c, 0, 34, 78
4, 79680, Note_on_c, 0, 46, 88
4, 79919, Note_on_c, 0, 46, 0
4, 79919, Note_on_c, 0, 34, 0
4, 79920, Note_on_c, 0, 38, 78
4, 79920, Note_on_c, 0, 50, 88
4, 80159, Note_on_c, 0, 50, 0
4, 80159, Note_on_c, 0, 38, 0
4, 80160, Note_on_c, 0, 46, 98
4, 80160, Note_on_c, 0, 34, 98
4, 80399, Note_on_c, 0, 34, 0
4, 80399, Note_on_c, 0, 46, 0
4, 80400, Note_on_c, 0, 38, 78
4, 80400, Note_on_c, 0, 50, 98
4, 80639, Note_on_c, 0, 50, 0
4, 80639, Note_on_c, 0, 38, 0
4, 80640, Note_on_c, 0, 41, 78
4, 80640, Note_on_c, 0, 53, 88
4, 80879, Note_on_c, 0, 53, 0
4, 80879, Note_on_c, 0, 41, 0
4, 80880, Note_on_c, 0, 38, 88
4, 80880, Note_on_c, 0, 50, 88
4, 81119, Note_on_c, 0, 50, 0
4, 81119, Note_on_c, 0, 38, 0
4, 81120, Note_on_c, 0, 58, 98
4, 81120, Note_on_c, 0, 46, 88
4, 81359, Note_on_c, 0, 46, 0
4, 81359, Note_on_c, 0, 58, 0
4, 81360, Note_on_c, 0, 50, 98
4, 81360, Note_on_c, 0, 62, 98
4, 81599, Note_on_c, 0, 62, 0
4, 81599, Note_on_c, 0, 50, 0
4, 81600, Note_on_c, 0, 55, 98
4, 81600, Note_on_c, 0, 43, 110
4, 81839, Note_on_c, 0, 43, 0
4, 81839, Note_on_c, 0, 55, 0
4, 81840, Note_on_c, 0, 38, 110
4, 81840, Note_on_c, 0, 50, 98
4, 82079, Note_on_c, 0, 50, 0
4, 82079, Note_on_c, 0, 38, 0
4, 82080, Note_on_c, 0, 45, 98
4, 82080, Note_on_c, 0, 33, 98
4, 82319, Note_on_c, 0, 33, 0
4, 82319, Note_on_c, 0, 45, 0
4, 82320, Note_on_c, 0, 41, 98
4, 82320, Note_on_c, 0, 53, 110
4, 82559, Note_on_c, 0, 53, 0
4, 82559, Note_on_c, 0, 41, 0
4, 82560, Note_on_c, 0, 36, 110
4, 82560, Note_on_c, 0, 48, 98
4, 82799, Note_on_c, 0, 48, 0
4, 82799, Note_on_c, 0, 36, 0
4, 82800, Note_on_c, 0, 31, 98
4, 82800, Note_on_c, 0, 43, 98
4, 83039, Note_on_c, 0, 43, 0
4, 83039, Note_on_c, 0, 31, 0
4, 83040, Note_on_c, 0, 39, 110
4, 83040, Note_on_c, 0, 51, 98
4, 83279, Note_on_c, 0, 51, 0
4, 83279, Note_on_c, 0, 39, 0
4, 83280, Note_on_c, 0, 34, 110
4, 83280, Note_on_c, 0, 46, 98
4, 83519, Note_on_c, 0, 46, 0
4, 83519, Note_on_c, 0, 34, 0
4, 83520, Note_on_c, 0, 29, 98
4, 83520, Note_on_c, 0, 41, 98
4, 83759, Note_on_c, 0, 41, 0
4, 83759, Note_on_c, 0, 29, 0
4, 83760, Note_on_c, 0, 34, 110
4, 83760, Note_on_c, 0, 46, 98
4, 83999, Note_on_c, 0, 46, 0
4, 83999, Note_on_c, 0, 34, 0
4, 84000, Note_on_c, 0, 39, 110
4, 84000, Note_on_c, 0, 51, 110
4, 84239, Note_on_c, 0, 51, 0
4, 84239, Note_on_c, 0, 39, 0
4, 84240, Note_on_c, 0, 34, 110
4, 84240, Note_on_c, 0, 46, 110
4, 84479, Note_on_c, 0, 46, 0
4, 84479, Note_on_c, 0, 34, 0
4, 84480, Note_on_c, 0, 29, 98
4, 84480, Note_on_c, 0, 41, 88
4, 84719, Note_on_c, 0, 41, 0
4, 84719, Note_on_c, 0, 29, 0
4, 84720, Note_on_c, 0, 34, 110
4, 84720, Note_on_c, 0, 46, 98
4, 84959, Note_on_c, 0, 46, 0
4, 84959, Note_on_c, 0, 34, 0
4, 84960, Note_on_c, 0, 39, 98
4, 84960, Note_on_c, 0, 51, 110
4, 85199, Note_on_c, 0, 51, 0
4, 85199, Note_on_c, 0, 39, 0
4, 85200, Note_on_c, 0, 34, 110
4, 85200, Note_on_c, 0, 46, 110
4, 85439, Note_on_c, 0, 46, 0
4, 85439, Note_on_c, 0, 34, 0
4, 85440, Note_on_c, 0, 29, 88
4, 85440, Note_on_c, 0, 41, 98
4, 85679, Note_on_c, 0, 41, 0
4, 85679, Note_on_c, 0, 29, 0
4, 85680, Note_on_c, 0, 34, 110
4, 85680, Note_on_c, 0, 46, 110
4, 85919, Note_on_c, 0, 46, 0
4, 85919, Note_on_c, 0, 34, 0
4, 85920, Note_on_c, 0, 39, 110
4, 85920, Note_on_c, 0, 51, 110
4, 86159, Note_on_c, 0, 51, 0
4, 86159, Note_on_c, 0, 39, 0
4, 86160, Note_on_c, 0, 34, 110
4, 86160, Note_on_c, 0, 46, 110
4, 86399, Note_on_c, 0, 46, 0
4, 86399, Note_on_c, 0, 34, 0
4, 86400, Note_on_c, 0, 41, 98
4, 86400, Note_on_c, 0, 29, 88
4, 86639, Note_on_c, 0, 29, 0
4, 86639, Note_on_c, 0, 41, 0
4, 86640, Note_on_c, 0, 34, 110
4, 86640, Note_on_c, 0, 46, 110
4, 86879, Note_on_c, 0, 46, 0
4, 86879, Note_on_c, 0, 34, 0
4, 86880, Note_on_c, 0, 39, 110
4, 86880, Note_on_c, 0, 51, 110
4, 87119, Note_on_c, 0, 51, 0
4, 87119, Note_on_c, 0, 39, 0
4, 87120, Note_on_c, 0, 34, 110
4, 87120, Note_on_c, 0, 46, 110
4, 87359, Note_on_c, 0, 46, 0
4, 87359, Note_on_c, 0, 34, 0
4, 87360, Note_on_c, 0, 29, 98
4, 87360, Note_on_c, 0, 41, 98
4, 87599, Note_on_c, 0, 41, 0
4, 87599, Note_on_c, 0, 29, 0
4, 87600, Note_on_c, 0, 34, 110
4, 87600, Note_on_c, 0, 46, 110
4, 87839, Note_on_c, 0, 46, 0
4, 87839, Note_on_c, 0, 34, 0
4, 87840, Note_on_c, 0, 39, 110
4, 87840, Note_on_c, 0, 51, 110
4, 88079, Note_on_c, 0, 51, 0
4, 88079, Note_on_c, 0, 39, 0
4, 88080, Note_on_c, 0, 34, 110
4, 88080, Note_on_c, 0, 46, 110
4, 88319, Note_on_c, 0, 46, 0
4, 88319, Note_on_c, 0, 34, 0
4, 88320, Note_on_c, 0, 29, 98
4, 88320, Note_on_c, 0, 41, 98
4, 88559, Note_on_c, 0, 41, 0
4, 88559, Note_on_c, 0, 29, 0
4, 88560, Note_on_c, 0, 34, 110
4, 88560, Note_on_c, 0, 46, 110
4, 88799, Note_on_c, 0, 46, 0
4, 88799, Note_on_c, 0, 34, 0
4, 88800, Note_on_c, 0, 39, 110
4, 88800, Note_on_c, 0, 51, 110
4, 89039, Note_on_c, 0, 51, 0
4, 89039, Note_on_c, 0, 39, 0
4, 89040, Note_on_c, 0, 34, 110
4, 89040, Note_on_c, 0, 46, 110
4, 89279, Note_on_c, 0, 46, 0
4, 89279, Note_on_c, 0, 34, 0
4, 89280, Note_on_c, 0, 41, 98
4, 89280, Note_on_c, 0, 29, 110
4, 89519, Note_on_c, 0, 29, 0
4, 89519, Note_on_c, 0, 41, 0
4, 89520, Note_on_c, 0, 46, 110
4, 89520, Note_on_c, 0, 34, 98
4, 89759, Note_on_c, 0, 34, 0
4, 89759, Note_on_c, 0, 46, 0
4, 89760, Note_on_c, 0, 39, 110
4, 89760, Note_on_c, 0, 51, 110
4, 89999, Note_on_c, 0, 51, 0
4, 89999, Note_on_c, 0, 39, 0
4, 90000, Note_on_c, 0, 34, 98
4, 90000, Note_on_c, 0, 46, 98
4, 90239, Note_on_c, 0, 46, 0
4, 90239, Note_on_c, 0, 34, 0
4, 90240, Note_on_c, 0, 29, 88
4, 90240, Note_on_c, 0, 41, 98
4, 90479, Note_on_c, 0, 41, 0
4, 90479, Note_on_c, 0, 29, 0
4, 90480, Note_on_c, 0, 34, 98
4, 90480, Note_on_c, 0, 46, 98
4, 90719, Note_on_c, 0, 46, 0
4, 90719, Note_on_c, 0, 34, 0
4, 90720, Note_on_c, 0, 39, 110
4, 90720, Note_on_c, 0, 51, 110
4, 90959, Note_on_c, 0, 51, 0
4, 90959, Note_on_c, 0, 39, 0
4, 90960, Note_on_c, 0, 34, 110
4, 90960, Note_on_c, 0, 46, 98
4, 91199, Note_on_c, 0, 46, 0
4, 91199, Note_on_c, 0, 34, 0
4, 91200, Note_on_c, 0, 29, 88
4, 91200, Note_on_c, 0, 41, 88
4, 91439, Note_on_c, 0, 41, 0
4, 91439, Note_on_c, 0, 29, 0
4, 91440, Note_on_c, 0, 46, 110
4, 91440, Note_on_c, 0, 34, 110
4, 91679, Note_on_c, 0, 34, 0
4, 91679, Note_on_c, 0, 46, 0
4, 91680, Note_on_c, 0, 39, 110
4, 91680, Note_on_c, 0, 51, 110
4, 91919, Note_on_c, 0, 51, 0
4, 91919, Note_on_c, 0, 39, 0
4, 91920, Note_on_c, 0, 34, 110
4, 91920, Note_on_c, 0, 46, 110
4, 92159, Note_on_c, 0, 46, 0
4, 92159, Note_on_c, 0, 34, 0
4, 92160, Note_on_c, 0, 29, 88
4, 92160, Note_on_c, 0, 41, 88
4, 92399, Note_on_c, 0, 41, 0
4, 92399, Note_on_c, 0, 29, 0
4, 92400, Note_on_c, 0, 34, 98
4, 92400, Note_on_c, 0, 46, 98
4, 92639, Note_on_c, 0, 46, 0
4, 92639, Note_on_c, 0, 34, 0
4, 92640, Note_on_c, 0, 39, 98
4, 92640, Note_on_c, 0, 51, 98
4, 92879, Note_on_c, 0, 51, 0
4, 92879, Note_on_c, 0, 39, 0
4, 92880, Note_on_c, 0, 46, 110
4, 92880, Note_on_c, 0, 34, 110
4, 93119, Note_on_c, 0, 34, 0
4, 93119, Note_on_c, 0, 46, 0
4, 93120, Note_on_c, 0, 29, 88
4, 93120, Note_on_c, 0, 41, 98
4, 93359, Note_on_c, 0, 41, 0
4, 93359, Note_on_c, 0, 29, 0
4, 93360, Note_on_c, 0, 46, 78
4, 93360, Note_on_c, 0, 34, 88
4, 93599, Note_on_c, 0, 34, 0
4, 93599, Note_on_c, 0, 46, 0
4, 93600, Note_on_c, 0, 39, 88
4, 93600, Note_on_c, 0, 51, 98
4, 93839, Note_on_c, 0, 51, 0
4, 93839, Note_on_c, 0, 39, 0
4, 93840, Note_on_c, 0, 34, 98
4, 93840, Note_on_c, 0, 46, 88
4, 94079, Note_on_c, 0, 46, 0
4, 94079, Note_on_c, 0, 34, 0
4, 94080, Note_on_c, 0, 29, 62
4, 94080, Note_on_c, 0, 41, 70
4, 94319, Note_on_c, 0, 41, 0
4, 94319, Note_on_c, 0, 29, 0
4, 94320, Note_on_c, 0, 34, 78
4, 94320, Note_on_c, 0, 46, 78
4, 94559, Note_on_c, 0, 46, 0
4, 94559, Note_on_c, 0, 34, 0
4, 94560, Note_on_c, 0, 39, 78
4, 94560, Note_on_c, 0, 51, 78
4, 94799, Note_on_c, 0, 51, 0
4, 94799, Note_on_c, 0, 39, 0
4, 94800, Note_on_c, 0, 34, 78
4, 94800, Note_on_c, 0, 46, 78
4, 95039, Note_on_c, 0, 46, 0
4, 95039, Note_on_c, 0, 34, 0
4, 95040, Note_on_c, 0, 41, 70
4, 95040, Note_on_c, 0, 29, 62
4, 95279, Note_on_c, 0, 29, 0
4, 95279, Note_on_c, 0, 41, 0
4, 95280, Note_on_c, 0, 34, 88
4, 95280, Note_on_c, 0, 46, 88
4, 95519, Note_on_c, 0, 46, 0
4, 95519, Note_on_c, 0, 34, 0
4, 95520, Note_on_c, 0, 39, 88
4, 95520, Note_on_c, 0, 51, 98
4, 95759, Note_on_c, 0, 51, 0
4, 95759, Note_on_c, 0, 39, 0
4, 95760, Note_on_c, 0, 46, 88
4, 95760, Note_on_c, 0, 34, 78
4, 95999, Note_on_c, 0, 34, 0
4, 95999, Note_on_c, 0, 46, 0
4, 96000, Note_on_c, 0, 41, 78
4, 96000, Note_on_c, 0, 29, 78
4, 96239, Note_on_c, 0, 29, 0
4, 96239, Note_on_c, 0, 41, 0
4, 96240, Note_on_c, 0, 34, 98
4, 96240, Note_on_c, 0, 46, 88
4, 96479, Note_on_c, 0, 46, 0
4, 96479, Note_on_c, 0, 34, 0
4, 96480, Note_on_c, 0, 51, 98
4, 96480, Note_on_c, 0, 39, 98
4, 96719, Note_on_c, 0, 39, 0
4, 96719, Note_on_c, 0, 51, 0
4, 96720, Note_on_c, 0, 34, 88
4, 96720, Note_on_c, 0, 46, 88
4, 96959, Note_on_c, 0, 46, 0
4, 96959, Note_on_c, 0, 34, 0
4, 96960, Note_on_c, 0, 29, 70
4, 96960, Note_on_c, 0, 41, 78
4, 97199, Note_on_c, 0, 41, 0
4, 97199, Note_on_c, 0, 29, 0
4, 97200, Note_on_c, 0, 46, 88
4, 97200, Note_on_c, 0, 34, 78
4, 97439, Note_on_c, 0, 34, 0
4, 97439, Note_on_c, 0, 46, 0
4, 97440, Note_on_c, 0, 39, 88
4, 97440, Note_on_c, 0, 51, 98
4, 97679, Note_on_c, 0, 51, 0
4, 97679, Note_on_c, 0, 39, 0
4, 97680, Note_on_c, 0, 46, 98
4, 97680, Note_on_c, 0, 34, 98
4, 97919, Note_on_c, 0, 34, 0
4, 97919, Note_on_c, 0, 46, 0
4, 97920, Note_on_c, 0, 29, 88
4, 97920, Note_on_c, 0, 41, 98
4, 98159, Note_on_c, 0, 41, 0
4, 98159, Note_on_c, 0, 29, 0
4, 98160, Note_on_c, 0, 34, 110
4, 98160, Note_on_c, 0, 46, 110
4, 98399, Note_on_c, 0, 46, 0
4, 98399, Note_on_c, 0, 34, 0
4, 98400, Note_on_c, 0, 39, 110
4, 98400, Note_on_c, 0, 51, 110
4, 98639, Note_on_c, 0, 51, 0
4, 98639, Note_on_c, 0, 39, 0
4, 98640, Note_on_c, 0, 34, 110
4, 98640, Note_on_c, 0, 46, 110
4, 98879, Note_on_c, 0, 46, 0
4, 98879, Note_on_c, 0, 34, 0
4, 98880, Note_on_c, 0, 29, 88
4, 98880, Note_on_c, 0, 41, 98
4, 99119, Note_on_c, 0, 41, 0
4, 99119, Note_on_c, 0, 29, 0
4, 99120, Note_on_c, 0, 34, 110
4, 99120, Note_on_c, 0, 46, 110
4, 99359, Note_on_c, 0, 46, 0
4, 99359, Note_on_c, 0, 34, 0
4, 99360, Note_on_c, 0, 39, 110
4, 99360, Note_on_c, 0, 51, 110
4, 99599, Note_on_c, 0, 51, 0
4, 99599, Note_on_c, 0, 39, 0
4, 99600, Note_on_c, 0, 34, 110
4, 99600, Note_on_c, 0, 46, 98
4, 99839, Note_on_c, 0, 46, 0
4, 99839, Note_on_c, 0, 34, 0
4, 99840, Note_on_c, 0, 29, 98
4, 99840, Note_on_c, 0, 41, 98
4, 100079, Note_on_c, 0, 41, 0
4, 100079, Note_on_c, 0, 29, 0
4, 100080, Note_on_c, 0, 34, 110
4, 100080, Note_on_c, 0, 46, 110
4, 100319, Note_on_c, 0, 46, 0
4, 100319, Note_on_c, 0, 34, 0
4, 100320, Note_on_c, 0, 39, 62
4, 100320, Note_on_c, 0, 51, 55
4, 100559, Note_on_c, 0, 51, 0
4, 100559, Note_on_c, 0, 39, 0
4, 100560, Note_on_c, 0, 46, 44
4, 100560, Note_on_c, 0, 34, 44
4, 100799, Note_on_c, 0, 34, 0
4, 100799, Note_on_c, 0, 46, 0
4, 100800, Note_on_c, 0, 41, 39
4, 100800, Note_on_c, 0, 29, 39
4, 101039, Note_on_c, 0, 29, 0
4, 101039, Note_on_c, 0, 41, 0
4, 101040, Note_on_c, 0, 46, 44
4, 101040, Note_on_c, 0, 34, 49
4, 101279, Note_on_c, 0, 34, 0
4, 101279, Note_on_c, 0, 46, 0
4, 101280, Note_on_c, 0, 39, 49
4, 101280, Note_on_c, 0, 51, 55
4, 101519, Note_on_c, 0, 51, 0
4, 101519, Note_on_c, 0, 39, 0
4, 101520, Note_on_c, 0, 46, 62
4, 101520, Note_on_c, 0, 34, 62
4, 101759, Note_on_c, 0, 34, 0
4, 101759, Note_on_c, 0, 46, 0
4, 101760, Note_on_c, 0, 41, 39
4, 101760, Note_on_c, 0, 29, 39
4, 101999, Note_on_c, 0, 29, 0
4, 101999, Note_on_c, 0, 41, 0
4, 102000, Note_on_c, 0, 46, 49
4, 102000, Note_on_c, 0, 34, 39
4, 102239, Note_on_c, 0, 34, 0
4, 102239, Note_on_c, 0, 46, 0
4, 102240, Note_on_c, 0, 39, 49
4, 102240, Note_on_c, 0, 51, 55
4, 102479, Note_on_c, 0, 51, 0
4, 102479, Note_on_c, 0, 39, 0
4, 102480, Note_on_c, 0, 34, 55
4, 102480, Note_on_c, 0, 46, 49
4, 102719, Note_on_c, 0, 46, 0
4, 102719, Note_on_c, 0, 34, 0
4, 102720, Note_on_c, 0, 41, 39
4, 102720, Note_on_c, 0, 29, 49
4, 102959, Note_on_c, 0, 29, 0
4, 102959, Note_on_c, 0, 41, 0
4, 102960, Note_on_c, 0, 34, 62
4, 102960, Note_on_c, 0, 46, 49
4, 103199, Note_on_c, 0, 46, 0
4, 103199, Note_on_c, 0, 34, 0
4, 103200, Note_on_c, 0, 51, 70
4, 103200, Note_on_c, 0, 39, 55
4, 103439, Note_on_c, 0, 39, 0
4, 103439, Note_on_c, 0, 51, 0
4, 103440, Note_on_c, 0, 34, 44
4, 103440, Note_on_c, 0, 46, 39
4, 103679, Note_on_c, 0, 46, 0
4, 103679, Note_on_c, 0, 34, 0
4, 103680, Note_on_c, 0, 41, 49
4, 103680, Note_on_c, 0, 29, 39
4, 103919, Note_on_c, 0, 29, 0
4, 103919, Note_on_c, 0, 41, 0
4, 103920, Note_on_c, 0, 34, 39
4, 103920, Note_on_c, 0, 46, 39
4, 104159, Note_on_c, 0, 46, 0
4, 104159, Note_on_c, 0, 34, 0
4, 104160, Note_on_c, 0, 39, 55
4, 104160, Note_on_c, 0, 51, 49
4, 104399, Note_on_c, 0, 51, 0
4, 104399, Note_on_c, 0, 39, 0
4, 104400, Note_on_c, 0, 46, 49
4, 104400, Note_on_c, 0, 34, 39
4, 104639, Note_on_c, 0, 34, 0
4, 104639, Note_on_c, 0, 46, 0
4, 104640, Note_on_c, 0, 29, 44
4, 104640, Note_on_c, 0, 41, 44
4, 104879, Note_on_c, 0, 41, 0
4, 104879, Note_on_c, 0, 29, 0
4, 104880, Note_on_c, 0, 46, 49
4, 104880, Note_on_c, 0, 34, 39
4, 105119, Note_on_c, 0, 34, 0
4, 105119, Note_on_c, 0, 46, 0
4, 105120, Note_on_c, 0, 39, 55
4, 105120, Note_on_c, 0, 51, 55
4, 105359, Note_on_c, 0, 51, 0
4, 105359, Note_on_c, 0, 39, 0
4, 105360, Note_on_c, 0, 46, 44
4, 105360, Note_on_c, 0, 34, 49
4, 105599, Note_on_c, 0, 34, 0
4, 105599, Note_on_c, 0, 46, 0
4, 105600, Note_on_c, 0, 29, 49
4, 105600, Note_on_c, 0, 41, 39
4, 105839, Note_on_c, 0, 41, 0
4, 105839, Note_on_c, 0, 29, 0
4, 105840, Note_on_c, 0, 46, 39
4, 105840, Note_on_c, 0, 34, 35
4, 106079, Note_on_c, 0, 34, 0
4, 106079, Note_on_c, 0, 46, 0
4, 106080, Note_on_c, 0, 39, 62
4, 106080, Note_on_c, 0, 51, 44
4, 106319, Note_on_c, 0, 51, 0
4, 106319, Note_on_c, 0, 39, 0
4, 106320, Note_on_c, 0, 46, 44
4, 106320, Note_on_c, 0, 34, 44
4, 106559, Note_on_c, 0, 34, 0
4, 106559, Note_on_c, 0, 46, 0
4, 106560, Note_on_c, 0, 41, 44
4, 106560, Note_on_c, 0, 29, 44
4, 106799, Note_on_c, 0, 29, 0
4, 106799, Note_on_c, 0, 41, 0
4, 106800, Note_on_c, 0, 46, 55
4, 106800, Note_on_c, 0, 34, 44
4, 107039, Note_on_c, 0, 34, 0
4, 107039, Note_on_c, 0, 46, 0
4, 107040, Note_on_c, 0, 39, 70
4, 107040, Note_on_c, 0, 51, 55
4, 107279, Note_on_c, 0, 51, 0
4, 107279, Note_on_c, 0, 39, 0
4, 107280, Note_on_c, 0, 46, 49
4, 107280, Note_on_c, 0, 34, 55
4, 107519, Note_on_c, 0, 34, 0
4, 107519, Note_on_c, 0, 46, 0
4, 107520, Note_on_c, 0, 29, 62
4, 107520, Note_on_c, 0, 41, 49
4, 107759, Note_on_c, 0, 41, 0
4, 107759, Note_on_c, 0, 29, 0
4, 107760, Note_on_c, 0, 46, 55
4, 107760, Note_on_c, 0, 34, 44
4, 107999, Note_on_c, 0, 34, 0
4, 107999, Note_on_c, 0, 46, 0
4, 108000, Note_on_c, 0, 39, 49
4, 108000, Note_on_c, 0, 51, 44
4, 108239, Note_on_c, 0, 51, 0
4, 108239, Note_on_c, 0, 39, 0
4, 108240, Note_on_c, 0, 34, 55
4, 108240, Note_on_c, 0, 46, 55
4, 108479, Note_on_c, 0, 46, 0
4, 108479, Note_on_c, 0, 34, 0
4, 108480, Note_on_c, 0, 41, 55
4, 108480, Note_on_c, 0, 29, 39
4, 108719, Note_on_c, 0, 29, 0
4, 108719, Note_on_c, 0, 41, 0
4, 108720, Note_on_c, 0, 34, 62
4, 108720, Note_on_c, 0, 46, 62
4, 108959, Note_on_c, 0, 46, 0
4, 108959, Note_on_c, 0, 34, 0
4, 108960, Note_on_c, 0, 51, 49
4, 108960, Note_on_c, 0, 57, 70
4, 109199, Note_on_c, 0, 51, 0
4, 109200, Note_on_c, 0, 46, 49
4, 109439, Note_on_c, 0, 46, 0
4, 109439, Note_on_c, 0, 57, 0
4, 109440, Note_on_c, 0, 41, 49
4, 109440, Note_on_c, 0, 57, 70
4, 109679, Note_on_c, 0, 41, 0
4, 109680, Note_on_c, 0, 46, 49
4, 109919, Note_on_c, 0, 46, 0
4, 109919, Note_on_c, 0, 57, 0
4, 109920, Note_on_c, 0, 51, 49
4, 109920, Note_on_c, 0, 59, 70
4, 110159, Note_on_c, 0, 51, 0
4, 110160, Note_on_c, 0, 46, 62
4, 110399, Note_on_c, 0, 46, 0
4, 110399, Note_on_c, 0, 59, 0
4, 110400, Note_on_c, 0, 41, 55
4, 110639, Note_on_c, 0, 41, 0
4, 110640, Note_on_c, 0, 46, 44
4, 110879, Note_on_c, 0, 46, 0
4, 110880, Note_on_c, 0, 51, 44
4, 111119, Note_on_c, 0, 51, 0
4, 111120, Note_on_c, 0, 46, 35
4, 111120, Note_on_c, 0, 58, 70
4, 111359, Note_on_c, 0, 46, 0
4, 111360, Note_on_c, 0, 41, 35
4, 111599, Note_on_c, 0, 41, 0
4, 111600, Note_on_c, 0, 46, 44
4, 111839, Note_on_c, 0, 46, 0
4, 111839, Note_on_c, 0, 58, 0
4, 111840, Note_on_c, 0, 51, 44
4, 111840, Note_on_c, 0, 57, 62
4, 112079, Note_on_c, 0, 51, 0
4, 112080, Note_on_c, 0, 46, 55
4, 112319, Note_on_c, 0, 46, 0
4, 112320, Note_on_c, 0, 41, 55
4, 112559, Note_on_c, 0, 41, 0
4, 112559, Note_on_c, 0, 57, 0
4, 112560, Note_on_c, 0, 46, 44
4, 112560, Note_on_c, 0, 56, 78
4, 112799, Note_on_c, 0, 46, 0
4, 112800, Note_on_c, 0, 51, 44
4, 113039, Note_on_c, 0, 51, 0
4, 113040, Note_on_c, 0, 34, 62
4, 113040, Note_on_c, 0, 46, 62
4, 113279, Note_on_c, 0, 56, 0
4, 113759, Note_on_c, 0, 46, 0
4, 113759, Note_on_c, 0, 34, 0
4, 113769, Note_on_c, 0, 43, 62
4, 113769, Note_on_c, 0, 31, 49
4, 113869, Note_on_c, 0, 31, 0
4, 113877, Note_on_c, 0, 43, 0
4, 113877, Note_on_c, 0, 36, 70
4, 113881, Note_on_c, 0, 48, 55
4, 114119, Note_on_c, 0, 48, 0
4, 114120, Note_on_c, 0, 36, 0
4, 114233, Note_on_c, 0, 36, 44
4, 114237, Note_on_c, 0, 48, 55
4, 114476, Note_on_c, 0, 36, 0
4, 114478, Note_on_c, 0, 43, 55
4, 114478, Note_on_c, 0, 31, 44
4, 114480, Note_on_c, 0, 48, 0
4, 114957, Note_on_c, 0, 31, 0
4, 114958, Note_on_c, 0, 48, 44
4, 114960, Note_on_c, 0, 36, 44
4, 114963, Note_on_c, 0, 43, 0
4, 115319, Note_on_c, 0, 36, 0
4, 115319, Note_on_c, 0, 48, 0
4, 115320, Note_on_c, 0, 43, 49
4, 115322, Note_on_c, 0, 31, 30
4, 115427, Note_on_c, 0, 31, 0
4, 115432, Note_on_c, 0, 48, 49
4, 115433, Note_on_c, 0, 36, 39
4, 115436, Note_on_c, 0, 43, 0
4, 115557, Note_on_c, 0, 48, 0
4, 115559, Note_on_c, 0, 36, 0
4, 115561, Note_on_c, 0, 52, 62
4, 115563, Note_on_c, 0, 40, 39
4, 115594, Note_on_c, 0, 40, 0
4, 115608, Note_on_c, 0, 52, 0
4, 115662, Note_on_c, 0, 36, 70
4, 115663, Note_on_c, 0, 24, 70
4, 115678, Note_on_c, 0, 48, 70
4, 115678, Note_on_c, 0, 60, 78
4, 115908, Note_on_c, 0, 48, 0
4, 115912, Note_on_c, 0, 60, 0
4, 116038, Note_on_c, 0, 48, 55
4, 116040, Note_on_c, 0, 60, 62
4, 117132, Note_on_c, 0, 48, 0
4, 117134, Note_on_c, 0, 36, 0
4, 117134, Note_on_c, 0, 24, 0
4, 117136, Note_on_c, 0, 60, 0
4, 117136, End_track
5, 0, Start_track
5, 0, MIDI_port, 0
5, 0, Title_t, "soprano"
5, 0, Program_c, 4, 52
5, 0, Control_c, 4, 7, 127
5, 0, Control_c, 4, 10, 103
5, 1320, Note_on_c, 4, 72, 55
5, 1356, Note_on_c, 4, 72, 0
5, 1377, Note_on_c, 4, 72, 62
5, 1442, Note_on_c, 4, 72, 0
5, 1442, Note_on_c, 4, 74, 70
5, 1566, Note_on_c, 4, 75, 49
5, 1570, Note_on_c, 4, 74, 0
5, 1802, Note_on_c, 4, 75, 0
5, 2879, Note_on_c, 4, 74, 49
5, 2996, Note_on_c, 4, 75, 49
5, 3000, Note_on_c, 4, 74, 0
5, 3243, Note_on_c, 4, 70, 44
5, 3248, Note_on_c, 4, 75, 0
5, 3311, Note_on_c, 4, 70, 0
5, 3362, Note_on_c, 4, 72, 49
5, 3697, Note_on_c, 4, 72, 0
5, 3715, Note_on_c, 4, 72, 39
5, 3819, Note_on_c, 4, 72, 0
5, 3833, Note_on_c, 4, 72, 49
5, 4279, Note_on_c, 4, 72, 0
5, 4321, Note_on_c, 4, 72, 49
5, 4555, Note_on_c, 4, 75, 55
5, 4560, Note_on_c, 4, 72, 0
5, 4796, Note_on_c, 4, 72, 44
5, 4800, Note_on_c, 4, 75, 0
5, 5278, Note_on_c, 4, 75, 55
5, 5286, Note_on_c, 4, 72, 0
5, 5516, Note_on_c, 4, 72, 49
5, 5522, Note_on_c, 4, 75, 0
5, 5738, Note_on_c, 4, 72, 0
5, 5755, Note_on_c, 4, 72, 55
5, 5939, Note_on_c, 4, 72, 0
5, 6962, Note_on_c, 4, 74, 49
5, 7077, Note_on_c, 4, 75, 49
5, 7079, Note_on_c, 4, 74, 0
5, 7309, Note_on_c, 4, 72, 39
5, 7313, Note_on_c, 4, 75, 0
5, 7408, Note_on_c, 4, 72, 0
5, 7436, Note_on_c, 4, 72, 49
5, 7552, Note_on_c, 4, 74, 55
5, 7559, Note_on_c, 4, 72, 0
5, 7802, Note_on_c, 4, 68, 55
5, 7806, Note_on_c, 4, 74, 0
5, 7923, Note_on_c, 4, 70, 70
5, 7926, Note_on_c, 4, 68, 0
5, 8036, Note_on_c, 4, 72, 49
5, 8039, Note_on_c, 4, 70, 0
5, 8155, Note_on_c, 4, 74, 49
5, 8156, Note_on_c, 4, 72, 0
5, 8278, Note_on_c, 4, 74, 0
5, 8279, Note_on_c, 4, 75, 55
5, 8402, Note_on_c, 4, 72, 49
5, 8405, Note_on_c, 4, 75, 0
5, 8518, Note_on_c, 4, 72, 0
5, 8518, Note_on_c, 4, 74, 55
5, 8763, Note_on_c, 4, 70, 62
5, 8768, Note_on_c, 4, 74, 0
5, 8879, Note_on_c, 4, 72, 49
5, 8883, Note_on_c, 4, 70, 0
5, 9000, Note_on_c, 4, 74, 49
5, 9001, Note_on_c, 4, 72, 0
5, 9240, Note_on_c, 4, 68, 62
5, 9248, Note_on_c, 4, 74, 0
5, 9352, Note_on_c, 4, 70, 62
5, 9357, Note_on_c, 4, 68, 0
5, 9581, Note_on_c, 4, 70, 0
5, 9599, Note_on_c, 4, 70, 62
5, 9806, Note_on_c, 4, 70, 0
5, 10318, Note_on_c, 4, 72, 49
5, 10661, Note_on_c, 4, 72, 0
5, 10679, Note_on_c, 4, 72, 55
5, 10781, Note_on_c, 4, 72, 0
5, 10795, Note_on_c, 4, 72, 62
5, 11289, Note_on_c, 4, 72, 0
5, 25676, Note_on_c, 4, 70, 70
5, 25925, Note_on_c, 4, 72, 62
5, 25929, Note_on_c, 4, 70, 0
5, 25929, Control_c, 4, 10, 54
5, 26043, Control_c, 4, 10, 55
5, 26364, Note_on_c, 4, 72, 0
5, 26396, Note_on_c, 4, 72, 70
5, 26576, Note_on_c, 4, 72, 0
5, 26630, Note_on_c, 4, 70, 70
5, 26878, Note_on_c, 4, 72, 70
5, 26884, Note_on_c, 4, 70, 0
5, 27323, Note_on_c, 4, 72, 0
5, 27353, Note_on_c, 4, 72, 88
5, 27571, Note_on_c, 4, 72, 0
5, 27604, Note_on_c, 4, 70, 88
5, 27840, Note_on_c, 4, 70, 0
5, 27840, Note_on_c, 4, 72, 70
5, 29030, Note_on_c, 4, 72, 0
5, 29039, Note_on_c, 4, 70, 88
5, 29273, Note_on_c, 4, 72, 78
5, 29275, Note_on_c, 4, 70, 0
5, 29275, Control_c, 4, 10, 54
5, 29515, Note_on_c, 4, 74, 98
5, 29519, Note_on_c, 4, 72, 0
5, 29790, Control_c, 4, 10, 55
5, 29998, Note_on_c, 4, 70, 98
5, 30000, Note_on_c, 4, 74, 0
5, 30235, Note_on_c, 4, 72, 98
5, 30240, Note_on_c, 4, 70, 0
5, 30480, Note_on_c, 4, 74, 110
5, 30487, Note_on_c, 4, 72, 0
5, 30709, Note_on_c, 4, 74, 0
5, 30714, Note_on_c, 4, 76, 110
5, 31449, Note_on_c, 4, 76, 0
5, 42720, Note_on_c, 4, 72, 88
5, 42953, Note_on_c, 4, 76, 110
5, 42959, Note_on_c, 4, 72, 0
5, 43405, Note_on_c, 4, 76, 0
5, 43434, Note_on_c, 4, 76, 110
5, 43599, Note_on_c, 4, 76, 0
5, 43666, Note_on_c, 4, 72, 98
5, 43916, Note_on_c, 4, 76, 98
5, 43922, Note_on_c, 4, 72, 0
5, 44381, Note_on_c, 4, 76, 0
5, 44402, Note_on_c, 4, 76, 98
5, 44561, Note_on_c, 4, 76, 0
5, 44621, Note_on_c, 4, 72, 98
5, 44879, Note_on_c, 4, 76, 88
5, 44879, Note_on_c, 4, 77, 98
5, 44884, Note_on_c, 4, 72, 0
5, 44908, Note_on_c, 4, 77, 0
5, 45340, Note_on_c, 4, 76, 0
5, 45356, Note_on_c, 4, 76, 98
5, 45538, Note_on_c, 4, 76, 0
5, 45584, Note_on_c, 4, 72, 98
5, 45830, Note_on_c, 4, 76, 98
5, 45838, Note_on_c, 4, 72, 0
5, 46293, Note_on_c, 4, 76, 0
5, 46315, Note_on_c, 4, 76, 98
5, 46504, Note_on_c, 4, 76, 0
5, 46552, Note_on_c, 4, 72, 98
5, 46791, Note_on_c, 4, 76, 98
5, 46796, Note_on_c, 4, 72, 0
5, 47253, Note_on_c, 4, 76, 0
5, 47275, Note_on_c, 4, 76, 110
5, 47464, Note_on_c, 4, 76, 0
5, 47501, Note_on_c, 4, 72, 98
5, 47756, Note_on_c, 4, 76, 98
5, 47760, Note_on_c, 4, 72, 0
5, 48212, Note_on_c, 4, 76, 0
5, 48239, Note_on_c, 4, 76, 110
5, 48475, Note_on_c, 4, 76, 0
5, 50278, Note_on_c, 4, 72, 62
5, 50310, Note_on_c, 4, 72, 0
5, 50336, Note_on_c, 4, 72, 70
5, 50404, Note_on_c, 4, 74, 88
5, 50408, Note_on_c, 4, 72, 0
5, 50531, Note_on_c, 4, 75, 62
5, 50536, Note_on_c, 4, 74, 0
5, 50755, Note_on_c, 4, 75, 0
5, 52317, Note_on_c, 4, 75, 110
5, 52538, Note_on_c, 4, 75, 0
5, 52556, Note_on_c, 4, 75, 78
5, 52762, Note_on_c, 4, 75, 0
5, 52792, Note_on_c, 4, 75, 88
5, 53039, Note_on_c, 4, 75, 0
5, 53039, Note_on_c, 4, 77, 78
5, 53381, Note_on_c, 4, 77, 0
5, 53398, Note_on_c, 4, 77, 98
5, 53450, Note_on_c, 4, 77, 0
5, 56160, Note_on_c, 4, 67, 110
5, 56197, Note_on_c, 4, 67, 0
5, 56217, Note_on_c, 4, 67, 70
5, 56250, Note_on_c, 4, 67, 0
5, 56274, Note_on_c, 4, 67, 70
5, 56306, Note_on_c, 4, 67, 0
5, 56333, Note_on_c, 4, 67, 70
5, 56364, Note_on_c, 4, 67, 0
5, 56392, Note_on_c, 4, 67, 62
5, 56420, Note_on_c, 4, 67, 0
5, 56450, Note_on_c, 4, 67, 70
5, 56630, Note_on_c, 4, 67, 0
5, 59276, Note_on_c, 4, 67, 110
5, 59312, Note_on_c, 4, 67, 0
5, 59338, Note_on_c, 4, 67, 78
5, 59362, Note_on_c, 4, 67, 0
5, 59394, Note_on_c, 4, 67, 88
5, 59423, Note_on_c, 4, 67, 0
5, 59454, Note_on_c, 4, 67, 78
5, 59479, Note_on_c, 4, 67, 0
5, 59511, Note_on_c, 4, 67, 78
5, 59533, Note_on_c, 4, 67, 0
5, 59567, Note_on_c, 4, 67, 88
5, 59607, Note_on_c, 4, 67, 0
5, 61560, Note_on_c, 4, 71, 110
5, 61597, Note_on_c, 4, 71, 0
5, 61617, Note_on_c, 4, 71, 88
5, 61650, Note_on_c, 4, 71, 0
5, 61675, Note_on_c, 4, 71, 70
5, 61707, Note_on_c, 4, 71, 0
5, 61733, Note_on_c, 4, 71, 70
5, 61768, Note_on_c, 4, 71, 0
5, 61790, Note_on_c, 4, 71, 70
5, 61824, Note_on_c, 4, 71, 0
5, 61849, Note_on_c, 4, 71, 70
5, 62035, Note_on_c, 4, 71, 0
5, 62218, Note_on_c, 4, 71, 70
5, 62250, Note_on_c, 4, 71, 0
5, 62278, Note_on_c, 4, 71, 110
5, 62315, Note_on_c, 4, 71, 0
5, 62340, Note_on_c, 4, 71, 62
5, 62375, Note_on_c, 4, 71, 0
5, 62397, Note_on_c, 4, 71, 78
5, 62438, Note_on_c, 4, 71, 0
5, 62457, Note_on_c, 4, 71, 62
5, 62982, Note_on_c, 4, 71, 0
5, 64440, Note_on_c, 4, 65, 110
5, 64480, Note_on_c, 4, 65, 0
5, 64499, Note_on_c, 4, 65, 98
5, 64532, Note_on_c, 4, 65, 0
5, 64558, Note_on_c, 4, 65, 88
5, 64592, Note_on_c, 4, 65, 0
5, 64616, Note_on_c, 4, 65, 78
5, 64644, Note_on_c, 4, 65, 0
5, 64669, Note_on_c, 4, 65, 78
5, 64705, Note_on_c, 4, 65, 0
5, 64729, Note_on_c, 4, 65, 78
5, 64913, Note_on_c, 4, 65, 0
5, 64975, Note_on_c, 4, 65, 88
5, 64999, Note_on_c, 4, 65, 0
5, 65034, Note_on_c, 4, 65, 124
5, 65072, Note_on_c, 4, 65, 0
5, 65099, Note_on_c, 4, 65, 98
5, 65133, Note_on_c, 4, 65, 0
5, 65157, Note_on_c, 4, 65, 88
5, 65192, Note_on_c, 4, 65, 0
5, 65217, Note_on_c, 4, 65, 78
5, 65399, Note_on_c, 4, 65, 0
5, 73680, Note_on_c, 4, 66, 70
5, 73860, Note_on_c, 4, 62, 55
5, 73889, Note_on_c, 4, 66, 0
5, 73907, Note_on_c, 4, 62, 0
5, 73920, Note_on_c, 4, 69, 70
5, 74094, Note_on_c, 4, 69, 0
5, 74100, Note_on_c, 4, 66, 62
5, 74148, Note_on_c, 4, 66, 0
5, 74160, Note_on_c, 4, 74, 70
5, 74160, Note_on_c, 4, 73, 22
5, 74177, Note_on_c, 4, 73, 0
5, 74340, Note_on_c, 4, 78, 62
5, 74347, Note_on_c, 4, 74, 0
5, 74392, Note_on_c, 4, 78, 0
5, 74400, Note_on_c, 4, 71, 78
5, 74878, Note_on_c, 4, 71, 0
5, 74880, Note_on_c, 4, 69, 70
5, 75120, Note_on_c, 4, 67, 78
5, 75131, Note_on_c, 4, 69, 0
5, 75300, Note_on_c, 4, 71, 70
5, 75324, Note_on_c, 4, 67, 0
5, 75343, Note_on_c, 4, 71, 0
5, 75360, Note_on_c, 4, 76, 78
5, 75540, Note_on_c, 4, 79, 70
5, 75577, Note_on_c, 4, 79, 0
5, 75593, Note_on_c, 4, 76, 0
5, 75600, Note_on_c, 4, 67, 88
5, 75775, Note_on_c, 4, 67, 0
5, 75780, Note_on_c, 4, 71, 78
5, 75817, Note_on_c, 4, 71, 0
5, 75840, Note_on_c, 4, 69, 88
5, 76320, Note_on_c, 4, 67, 62
5, 76321, Note_on_c, 4, 69, 0
5, 76560, Note_on_c, 4, 65, 98
5, 76573, Note_on_c, 4, 67, 0
5, 76740, Note_on_c, 4, 62, 78
5, 76749, Note_on_c, 4, 65, 0
5, 76779, Note_on_c, 4, 62, 0
5, 76800, Note_on_c, 4, 74, 88
5, 76980, Note_on_c, 4, 69, 78
5, 77001, Note_on_c, 4, 74, 0
5, 77025, Note_on_c, 4, 69, 0
5, 77040, Note_on_c, 4, 77, 88
5, 77220, Note_on_c, 4, 65, 98
5, 77230, Note_on_c, 4, 77, 0
5, 77264, Note_on_c, 4, 65, 0
5, 77280, Note_on_c, 4, 64, 98
5, 77760, Note_on_c, 4, 62, 78
5, 77762, Note_on_c, 4, 64, 0
5, 78000, Note_on_c, 4, 66, 110
5, 78005, Note_on_c, 4, 62, 0
5, 78180, Note_on_c, 4, 69, 88
5, 78203, Note_on_c, 4, 66, 0
5, 78224, Note_on_c, 4, 69, 0
5, 78240, Note_on_c, 4, 74, 98
5, 78420, Note_on_c, 4, 62, 78
5, 78438, Note_on_c, 4, 74, 0
5, 78446, Note_on_c, 4, 62, 0
5, 78480, Note_on_c, 4, 62, 78
5, 78660, Note_on_c, 4, 62, 70
5, 78662, Note_on_c, 4, 62, 0
5, 78679, Note_on_c, 4, 62, 0
5, 78720, Note_on_c, 4, 61, 98
5, 78952, Note_on_c, 4, 61, 0
5, 78960, Note_on_c, 4, 62, 78
5, 79200, Note_on_c, 4, 62, 0
5, 79200, Note_on_c, 4, 64, 88
5, 79440, Note_on_c, 4, 65, 98
5, 79446, Note_on_c, 4, 64, 0
5, 79677, Note_on_c, 4, 65, 0
5, 79680, Note_on_c, 4, 67, 98
5, 79920, Note_on_c, 4, 68, 110
5, 79929, Note_on_c, 4, 67, 0
5, 80160, Note_on_c, 4, 70, 110
5, 80163, Note_on_c, 4, 68, 0
5, 80400, Note_on_c, 4, 72, 98
5, 80405, Note_on_c, 4, 70, 0
5, 80640, Note_on_c, 4, 74, 110
5, 80646, Note_on_c, 4, 72, 0
5, 80878, Note_on_c, 4, 74, 0
5, 80880, Note_on_c, 4, 75, 110
5, 81120, Note_on_c, 4, 77, 98
5, 81124, Note_on_c, 4, 75, 0
5, 81360, Note_on_c, 4, 78, 110
5, 81372, Note_on_c, 4, 77, 0
5, 81600, Note_on_c, 4, 78, 0
5, 81600, Note_on_c, 4, 75, 110
5, 81840, Note_on_c, 4, 66, 124
5, 81844, Note_on_c, 4, 75, 0
5, 82080, Note_on_c, 4, 77, 88
5, 82082, Note_on_c, 4, 66, 0
5, 82308, Note_on_c, 4, 77, 0
5, 82320, Note_on_c, 4, 74, 110
5, 82560, Note_on_c, 4, 67, 98
5, 82591, Note_on_c, 4, 74, 0
5, 82790, Note_on_c, 4, 67, 0
5, 82800, Note_on_c, 4, 76, 110
5, 83040, Note_on_c, 4, 75, 98
5, 83053, Note_on_c, 4, 76, 0
5, 83280, Note_on_c, 4, 74, 70
5, 83283, Note_on_c, 4, 75, 0
5, 83517, Note_on_c, 4, 74, 0
5, 83520, Note_on_c, 4, 72, 62
5, 83640, Note_on_c, 4, 74, 62
5, 83659, Note_on_c, 4, 72, 0
5, 83760, Note_on_c, 4, 75, 62
5, 83761, Note_on_c, 4, 74, 0
5, 83996, Note_on_c, 4, 75, 0
5, 84000, Note_on_c, 4, 74, 70
5, 84240, Note_on_c, 4, 72, 55
5, 84260, Note_on_c, 4, 74, 0
5, 84360, Note_on_c, 4, 74, 62
5, 84362, Note_on_c, 4, 72, 0
5, 84480, Note_on_c, 4, 75, 62
5, 84482, Note_on_c, 4, 74, 0
5, 84718, Note_on_c, 4, 75, 0
5, 84720, Note_on_c, 4, 74, 62
5, 84960, Note_on_c, 4, 72, 62
5, 84973, Note_on_c, 4, 74, 0
5, 85080, Note_on_c, 4, 74, 78
5, 85098, Note_on_c, 4, 72, 0
5, 85200, Note_on_c, 4, 75, 70
5, 85207, Note_on_c, 4, 74, 0
5, 85440, Note_on_c, 4, 74, 70
5, 85446, Note_on_c, 4, 75, 0
5, 85676, Note_on_c, 4, 74, 0
5, 85680, Note_on_c, 4, 72, 55
5, 85800, Note_on_c, 4, 73, 70
5, 85815, Note_on_c, 4, 72, 0
5, 85919, Note_on_c, 4, 73, 0
5, 85920, Note_on_c, 4, 74, 70
5, 86160, Note_on_c, 4, 73, 70
5, 86163, Note_on_c, 4, 74, 0
5, 86400, Note_on_c, 4, 72, 70
5, 86406, Note_on_c, 4, 73, 0
5, 86620, Note_on_c, 4, 72, 0
5, 86640, Note_on_c, 4, 72, 70
5, 87335, Note_on_c, 4, 72, 0
5, 87360, Note_on_c, 4, 75, 88
5, 87594, Note_on_c, 4, 75, 0
5, 87600, Note_on_c, 4, 74, 70
5, 87837, Note_on_c, 4, 74, 0
5, 87840, Note_on_c, 4, 72, 62
5, 87960, Note_on_c, 4, 74, 62
5, 87975, Note_on_c, 4, 72, 0
5, 88075, Note_on_c, 4, 74, 0
5, 88080, Note_on_c, 4, 75, 70
5, 88320, Note_on_c, 4, 74, 70
5, 88334, Note_on_c, 4, 75, 0
5, 88560, Note_on_c, 4, 72, 70
5, 88568, Note_on_c, 4, 74, 0
5, 88680, Note_on_c, 4, 74, 70
5, 88685, Note_on_c, 4, 72, 0
5, 88800, Note_on_c, 4, 75, 78
5, 88802, Note_on_c, 4, 74, 0
5, 89040, Note_on_c, 4, 74, 62
5, 89047, Note_on_c, 4, 75, 0
5, 89277, Note_on_c, 4, 74, 0
5, 89280, Note_on_c, 4, 72, 70
5, 89400, Note_on_c, 4, 74, 70
5, 89410, Note_on_c, 4, 72, 0
5, 89520, Note_on_c, 4, 75, 70
5, 89523, Note_on_c, 4, 74, 0
5, 89760, Note_on_c, 4, 74, 70
5, 89764, Note_on_c, 4, 75, 0
5, 90000, Note_on_c, 4, 72, 62
5, 90009, Note_on_c, 4, 74, 0
5, 90120, Note_on_c, 4, 73, 88
5, 90126, Note_on_c, 4, 72, 0
5, 90240, Note_on_c, 4, 74, 70
5, 90245, Note_on_c, 4, 73, 0
5, 90480, Note_on_c, 4, 73, 62
5, 90481, Note_on_c, 4, 74, 0
5, 90716, Note_on_c, 4, 73, 0
5, 90720, Note_on_c, 4, 72, 78
5, 90960, Note_on_c, 4, 72, 70
5, 90964, Note_on_c, 4, 72, 0
5, 91668, Note_on_c, 4, 72, 0
5, 97449, Note_on_c, 4, 70, 78
5, 97917, Note_on_c, 4, 72, 98
5, 97925, Note_on_c, 4, 70, 0
5, 98391, Note_on_c, 4, 72, 0
5, 98394, Note_on_c, 4, 74, 110
5, 98880, Note_on_c, 4, 75, 110
5, 98887, Note_on_c, 4, 74, 0
5, 99832, Note_on_c, 4, 75, 0
5, 99835, Note_on_c, 4, 74, 110
5, 100246, Note_on_c, 4, 74, 0
5, 100320, Note_on_c, 4, 75, 70
5, 100568, Note_on_c, 4, 74, 62
5, 100581, Note_on_c, 4, 75, 0
5, 100799, Note_on_c, 4, 72, 70
5, 100810, Note_on_c, 4, 74, 0
5, 100920, Note_on_c, 4, 74, 62
5, 100936, Note_on_c, 4, 72, 0
5, 101043, Note_on_c, 4, 75, 70
5, 101053, Note_on_c, 4, 74, 0
5, 101271, Note_on_c, 4, 74, 78
5, 101284, Note_on_c, 4, 75, 0
5, 101514, Note_on_c, 4, 72, 55
5, 101517, Note_on_c, 4, 74, 0
5, 101625, Note_on_c, 4, 74, 78
5, 101644, Note_on_c, 4, 72, 0
5, 101758, Note_on_c, 4, 75, 78
5, 101769, Note_on_c, 4, 74, 0
5, 101999, Note_on_c, 4, 74, 78
5, 102004, Note_on_c, 4, 75, 0
5, 102240, Note_on_c, 4, 74, 0
5, 102240, Note_on_c, 4, 72, 62
5, 102350, Note_on_c, 4, 74, 70
5, 102363, Note_on_c, 4, 72, 0
5, 102475, Note_on_c, 4, 75, 78
5, 102486, Note_on_c, 4, 74, 0
5, 102709, Note_on_c, 4, 74, 78
5, 102720, Note_on_c, 4, 75, 0
5, 102935, Note_on_c, 4, 74, 0
5, 102938, Note_on_c, 4, 72, 62
5, 103060, Note_on_c, 4, 73, 88
5, 103079, Note_on_c, 4, 72, 0
5, 103192, Note_on_c, 4, 74, 88
5, 103195, Note_on_c, 4, 73, 0
5, 103448, Note_on_c, 4, 73, 88
5, 103464, Note_on_c, 4, 74, 0
5, 103679, Note_on_c, 4, 72, 88
5, 103685, Note_on_c, 4, 73, 0
5, 103884, Note_on_c, 4, 72, 0
5, 103919, Note_on_c, 4, 72, 70
5, 104556, Note_on_c, 4, 72, 0
5, 104628, Note_on_c, 4, 75, 70
5, 104886, Note_on_c, 4, 75, 0
5, 104886, Note_on_c, 4, 74, 78
5, 105123, Note_on_c, 4, 72, 78
5, 105126, Note_on_c, 4, 74, 0
5, 105237, Note_on_c, 4, 74, 78
5, 105254, Note_on_c, 4, 72, 0
5, 105360, Note_on_c, 4, 75, 62
5, 105382, Note_on_c, 4, 74, 0
5, 105597, Note_on_c, 4, 74, 78
5, 105605, Note_on_c, 4, 75, 0
5, 105840, Note_on_c, 4, 72, 70
5, 105847, Note_on_c, 4, 74, 0
5, 105956, Note_on_c, 4, 74, 70
5, 105971, Note_on_c, 4, 72, 0
5, 106079, Note_on_c, 4, 75, 78
5, 106087, Note_on_c, 4, 74, 0
5, 106327, Note_on_c, 4, 74, 70
5, 106336, Note_on_c, 4, 75, 0
5, 106559, Note_on_c, 4, 74, 0
5, 106564, Note_on_c, 4, 72, 70
5, 106678, Note_on_c, 4, 74, 62
5, 106687, Note_on_c, 4, 72, 0
5, 106801, Note_on_c, 4, 75, 78
5, 106810, Note_on_c, 4, 74, 0
5, 107043, Note_on_c, 4, 74, 78
5, 107049, Note_on_c, 4, 75, 0
5, 107278, Note_on_c, 4, 74, 0
5, 107280, Note_on_c, 4, 72, 70
5, 107398, Note_on_c, 4, 73, 88
5, 107412, Note_on_c, 4, 72, 0
5, 107518, Note_on_c, 4, 74, 88
5, 107526, Note_on_c, 4, 73, 0
5, 107762, Note_on_c, 4, 73, 88
5, 107768, Note_on_c, 4, 74, 0
5, 107992, Note_on_c, 4, 72, 78
5, 108000, Note_on_c, 4, 73, 0
5, 108195, Note_on_c, 4, 72, 0
5, 108240, Note_on_c, 4, 72, 78
5, 108834, Note_on_c, 4, 72, 0
5, 113643, Note_on_c, 4, 72, 70
5, 113677, Note_on_c, 4, 72, 0
5, 113701, Note_on_c, 4, 72, 70
5, 113766, Note_on_c, 4, 74, 98
5, 113767, Note_on_c, 4, 72, 0
5, 113896, Note_on_c, 4, 75, 70
5, 113899, Note_on_c, 4, 74, 0
5, 114133, Note_on_c, 4, 75, 0
5, 115209, Note_on_c, 4, 74, 70
5, 115319, Note_on_c, 4, 75, 70
5, 115326, Note_on_c, 4, 74, 0
5, 115565, Note_on_c, 4, 70, 70
5, 115570, Note_on_c, 4, 75, 0
5, 115625, Note_on_c, 4, 70, 0
5, 115684, Note_on_c, 4, 72, 70
5, 116014, Note_on_c, 4, 72, 0
5, 116041, Note_on_c, 4, 72, 55
5, 116128, Note_on_c, 4, 72, 0
5, 116154, Note_on_c, 4, 72, 62
5, 116654, Note_on_c, 4, 72, 0
5, 116654, End_track
6, 0, Start_track
6, 0, MIDI_port, 0
6, 0, Title_t, "alto"
6, 0, Program_c, 5, 52
6, 0, Control_c, 5, 7, 127
6, 0, Control_c, 5, 10, 93
6, 1323, Note_on_c, 5, 67, 44
6, 1355, Note_on_c, 5, 67, 0
6, 1375, Note_on_c, 5, 67, 62
6, 1437, Note_on_c, 5, 68, 70
6, 1440, Note_on_c, 5, 67, 0
6, 1569, Note_on_c, 5, 67, 62
6, 1571, Note_on_c, 5, 68, 0
6, 1814, Note_on_c, 5, 67, 0
6, 2877, Note_on_c, 5, 62, 55
6, 2998, Note_on_c, 5, 63, 70
6, 3005, Note_on_c, 5, 62, 0
6, 3236, Note_on_c, 5, 70, 62
6, 3238, Note_on_c, 5, 63, 0
6, 3312, Note_on_c, 5, 70, 0
6, 3360, Note_on_c, 5, 72, 62
6, 3696, Note_on_c, 5, 72, 0
6, 3715, Note_on_c, 5, 72, 55
6, 3808, Note_on_c, 5, 72, 0
6, 3833, Note_on_c, 5, 72, 55
6, 4278, Note_on_c, 5, 72, 0
6, 4324, Note_on_c, 5, 72, 62
6, 4766, Note_on_c, 5, 72, 0
6, 4789, Note_on_c, 5, 72, 62
6, 5032, Note_on_c, 5, 64, 55
6, 5034, Note_on_c, 5, 72, 0
6, 5279, Note_on_c, 5, 63, 62
6, 5280, Note_on_c, 5, 64, 0
6, 5513, Note_on_c, 5, 64, 70
6, 5514, Note_on_c, 5, 63, 0
6, 5730, Note_on_c, 5, 64, 0
6, 5748, Note_on_c, 5, 64, 62
6, 5959, Note_on_c, 5, 64, 0
6, 6957, Note_on_c, 5, 70, 62
6, 7071, Note_on_c, 5, 72, 49
6, 7072, Note_on_c, 5, 70, 0
6, 7315, Note_on_c, 5, 68, 55
6, 7327, Note_on_c, 5, 72, 0
6, 7403, Note_on_c, 5, 68, 0
6, 7435, Note_on_c, 5, 68, 55
6, 7545, Note_on_c, 5, 70, 55
6, 7550, Note_on_c, 5, 68, 0
6, 7801, Note_on_c, 5, 70, 0
6, 7802, Note_on_c, 5, 65, 55
6, 7920, Note_on_c, 5, 67, 44
6, 7923, Note_on_c, 5, 65, 0
6, 8035, Note_on_c, 5, 68, 55
6, 8040, Note_on_c, 5, 67, 0
6, 8155, Note_on_c, 5, 70, 39
6, 8158, Note_on_c, 5, 68, 0
6, 8273, Note_on_c, 5, 72, 49
6, 8276, Note_on_c, 5, 70, 0
6, 8396, Note_on_c, 5, 68, 62
6, 8402, Note_on_c, 5, 72, 0
6, 8516, Note_on_c, 5, 70, 55
6, 8519, Note_on_c, 5, 68, 0
6, 8764, Note_on_c, 5, 67, 39
6, 8768, Note_on_c, 5, 70, 0
6, 8877, Note_on_c, 5, 68, 55
6, 8882, Note_on_c, 5, 67, 0
6, 8997, Note_on_c, 5, 70, 62
6, 8999, Note_on_c, 5, 68, 0
6, 9243, Note_on_c, 5, 65, 55
6, 9246, Note_on_c, 5, 70, 0
6, 9352, Note_on_c, 5, 67, 49
6, 9355, Note_on_c, 5, 65, 0
6, 9577, Note_on_c, 5, 67, 0
6, 9594, Note_on_c, 5, 67, 55
6, 9834, Note_on_c, 5, 67, 0
6, 10320, Note_on_c, 5, 72, 62
6, 10662, Note_on_c, 5, 72, 0
6, 10675, Note_on_c, 5, 72, 49
6, 10782, Note_on_c, 5, 72, 0
6, 10797, Note_on_c, 5, 72, 49
6, 11273, Note_on_c, 5, 72, 0
6, 26641, Note_on_c, 5, 67, 70
6, 26760, Note_on_c, 5, 65, 70
6, 26766, Note_on_c, 5, 67, 0
6, 26876, Note_on_c, 5, 67, 62
6, 26881, Note_on_c, 5, 65, 0
6, 27234, Note_on_c, 5, 65, 70
6, 27236, Note_on_c, 5, 67, 0
6, 27351, Note_on_c, 5, 67, 70
6, 27359, Note_on_c, 5, 65, 0
6, 27472, Note_on_c, 5, 69, 70
6, 27477, Note_on_c, 5, 67, 0
6, 27596, Note_on_c, 5, 67, 70
6, 27604, Note_on_c, 5, 69, 0
6, 27723, Note_on_c, 5, 65, 78
6, 27727, Note_on_c, 5, 67, 0
6, 27841, Note_on_c, 5, 67, 70
6, 27848, Note_on_c, 5, 65, 0
6, 27960, Note_on_c, 5, 69, 70
6, 27962, Note_on_c, 5, 67, 0
6, 28077, Note_on_c, 5, 67, 55
6, 28088, Note_on_c, 5, 69, 0
6, 28197, Note_on_c, 5, 65, 70
6, 28204, Note_on_c, 5, 67, 0
6, 28317, Note_on_c, 5, 67, 78
6, 28324, Note_on_c, 5, 65, 0
6, 28442, Note_on_c, 5, 69, 70
6, 28447, Note_on_c, 5, 67, 0
6, 28559, Note_on_c, 5, 67, 62
6, 28569, Note_on_c, 5, 69, 0
6, 28676, Note_on_c, 5, 65, 70
6, 28679, Note_on_c, 5, 67, 0
6, 28796, Note_on_c, 5, 67, 88
6, 28800, Note_on_c, 5, 65, 0
6, 29036, Note_on_c, 5, 63, 78
6, 29043, Note_on_c, 5, 67, 0
6, 29272, Note_on_c, 5, 67, 88
6, 29279, Note_on_c, 5, 63, 0
6, 29519, Note_on_c, 5, 70, 88
6, 29524, Note_on_c, 5, 67, 0
6, 29749, Note_on_c, 5, 70, 0
6, 29749, Note_on_c, 5, 62, 110
6, 29997, Note_on_c, 5, 62, 0
6, 29999, Note_on_c, 5, 64, 110
6, 30450, Note_on_c, 5, 64, 0
6, 30479, Note_on_c, 5, 64, 124
6, 31447, Note_on_c, 5, 64, 0
6, 31447, Control_c, 5, 10, 54
6, 31493, Note_on_c, 5, 64, 98
6, 31515, Note_on_c, 5, 64, 0
6, 31554, Note_on_c, 5, 64, 98
6, 31577, Note_on_c, 5, 64, 0
6, 31615, Note_on_c, 5, 64, 88
6, 31636, Note_on_c, 5, 64, 0
6, 31674, Note_on_c, 5, 64, 78
6, 31698, Note_on_c, 5, 64, 0
6, 31736, Note_on_c, 5, 64, 62
6, 31759, Note_on_c, 5, 64, 0
6, 31800, Note_on_c, 5, 64, 88
6, 31828, Note_on_c, 5, 64, 0
6, 32040, Note_on_c, 5, 64, 88
6, 32091, Note_on_c, 5, 64, 0
6, 32276, Note_on_c, 5, 64, 88
6, 32316, Note_on_c, 5, 64, 0
6, 32396, Note_on_c, 5, 64, 88
6, 32422, Note_on_c, 5, 64, 0
6, 32462, Note_on_c, 5, 64, 88
6, 32482, Note_on_c, 5, 64, 0
6, 32521, Note_on_c, 5, 64, 88
6, 32548, Note_on_c, 5, 64, 0
6, 32764, Note_on_c, 5, 64, 88
6, 32797, Note_on_c, 5, 64, 0
6, 32996, Note_on_c, 5, 64, 88
6, 33032, Note_on_c, 5, 64, 0
6, 33172, Note_on_c, 5, 64, 88
6, 33196, Note_on_c, 5, 64, 0
6, 33236, Note_on_c, 5, 64, 78
6, 33256, Note_on_c, 5, 64, 0
6, 33299, Note_on_c, 5, 64, 78
6, 33320, Note_on_c, 5, 64, 0
6, 33361, Note_on_c, 5, 64, 78
6, 33383, Note_on_c, 5, 64, 0
6, 33420, Note_on_c, 5, 64, 62
6, 33440, Note_on_c, 5, 64, 0
6, 33481, Note_on_c, 5, 64, 78
6, 33507, Note_on_c, 5, 64, 0
6, 33959, Note_on_c, 5, 64, 88
6, 33997, Note_on_c, 5, 64, 0
6, 34074, Note_on_c, 5, 64, 88
6, 34109, Note_on_c, 5, 64, 0
6, 34201, Note_on_c, 5, 64, 88
6, 34235, Note_on_c, 5, 64, 0
6, 34438, Note_on_c, 5, 64, 88
6, 34476, Note_on_c, 5, 64, 0
6, 34690, Note_on_c, 5, 64, 88
6, 34725, Note_on_c, 5, 64, 0
6, 39355, Note_on_c, 5, 70, 110
6, 39833, Note_on_c, 5, 67, 88
6, 39836, Note_on_c, 5, 70, 0
6, 40323, Note_on_c, 5, 67, 0
6, 40324, Note_on_c, 5, 60, 88
6, 40560, Note_on_c, 5, 60, 0
6, 40560, Note_on_c, 5, 72, 88
6, 41032, Note_on_c, 5, 62, 78
6, 41036, Note_on_c, 5, 72, 0
6, 41512, Note_on_c, 5, 62, 0
6, 41512, Note_on_c, 5, 67, 98
6, 41999, Note_on_c, 5, 64, 88
6, 42000, Note_on_c, 5, 67, 0
6, 42481, Note_on_c, 5, 72, 88
6, 42484, Note_on_c, 5, 64, 0
6, 42671, Note_on_c, 5, 72, 0
6, 42714, Note_on_c, 5, 72, 124
6, 43199, Note_on_c, 5, 70, 110
6, 43204, Note_on_c, 5, 72, 0
6, 43665, Note_on_c, 5, 70, 0
6, 43679, Note_on_c, 5, 70, 110
6, 44156, Note_on_c, 5, 70, 0
6, 44156, Note_on_c, 5, 69, 98
6, 44643, Note_on_c, 5, 72, 110
6, 44645, Note_on_c, 5, 69, 0
6, 45120, Note_on_c, 5, 70, 110
6, 45122, Note_on_c, 5, 72, 0
6, 45564, Note_on_c, 5, 70, 0
6, 45580, Note_on_c, 5, 70, 110
6, 46067, Note_on_c, 5, 69, 110
6, 46068, Note_on_c, 5, 70, 0
6, 46556, Note_on_c, 5, 72, 110
6, 46561, Note_on_c, 5, 69, 0
6, 47035, Note_on_c, 5, 70, 110
6, 47038, Note_on_c, 5, 72, 0
6, 47488, Note_on_c, 5, 70, 0
6, 47508, Note_on_c, 5, 70, 110
6, 47992, Note_on_c, 5, 70, 0
6, 47995, Note_on_c, 5, 69, 110
6, 48466, Note_on_c, 5, 69, 0
6, 50276, Note_on_c, 5, 67, 62
6, 50314, Note_on_c, 5, 67, 0
6, 50336, Note_on_c, 5, 67, 78
6, 50404, Note_on_c, 5, 68, 98
6, 50409, Note_on_c, 5, 67, 0
6, 50527, Note_on_c, 5, 67, 62
6, 50530, Note_on_c, 5, 68, 0
6, 50750, Note_on_c, 5, 67, 0
6, 52314, Note_on_c, 5, 63, 110
6, 52537, Note_on_c, 5, 63, 0
6, 52557, Note_on_c, 5, 63, 98
6, 52776, Note_on_c, 5, 63, 0
6, 52797, Note_on_c, 5, 63, 110
6, 53038, Note_on_c, 5, 65, 98
6, 53039, Note_on_c, 5, 63, 0
6, 53387, Note_on_c, 5, 65, 0
6, 53401, Note_on_c, 5, 65, 98
6, 53452, Note_on_c, 5, 65, 0
6, 56160, Note_on_c, 5, 64, 98
6, 56202, Note_on_c, 5, 64, 0
6, 56223, Note_on_c, 5, 64, 78
6, 56256, Note_on_c, 5, 64, 0
6, 56280, Note_on_c, 5, 64, 88
6, 56312, Note_on_c, 5, 64, 0
6, 56339, Note_on_c, 5, 64, 70
6, 56368, Note_on_c, 5, 64, 0
6, 56395, Note_on_c, 5, 64, 70
6, 56427, Note_on_c, 5, 64, 0
6, 56457, Note_on_c, 5, 64, 70
6, 56641, Note_on_c, 5, 64, 0
6, 59279, Note_on_c, 5, 64, 98
6, 59317, Note_on_c, 5, 64, 0
6, 59339, Note_on_c, 5, 64, 88
6, 59367, Note_on_c, 5, 64, 0
6, 59395, Note_on_c, 5, 64, 62
6, 59422, Note_on_c, 5, 64, 0
6, 59453, Note_on_c, 5, 64, 70
6, 59481, Note_on_c, 5, 64, 0
6, 59513, Note_on_c, 5, 64, 62
6, 59536, Note_on_c, 5, 64, 0
6, 59570, Note_on_c, 5, 64, 70
6, 59609, Note_on_c, 5, 64, 0
6, 61565, Note_on_c, 5, 68, 124
6, 61602, Note_on_c, 5, 68, 0
6, 61620, Note_on_c, 5, 68, 98
6, 61655, Note_on_c, 5, 68, 0
6, 61680, Note_on_c, 5, 68, 88
6, 61713, Note_on_c, 5, 68, 0
6, 61734, Note_on_c, 5, 68, 88
6, 61770, Note_on_c, 5, 68, 0
6, 61793, Note_on_c, 5, 68, 88
6, 61827, Note_on_c, 5, 68, 0
6, 61849, Note_on_c, 5, 68, 88
6, 62045, Note_on_c, 5, 68, 0
6, 62217, Note_on_c, 5, 68, 110
6, 62250, Note_on_c, 5, 68, 0
6, 62280, Note_on_c, 5, 68, 124
6, 62311, Note_on_c, 5, 68, 0
6, 62338, Note_on_c, 5, 68, 98
6, 62373, Note_on_c, 5, 68, 0
6, 62396, Note_on_c, 5, 68, 78
6, 62431, Note_on_c, 5, 68, 0
6, 62455, Note_on_c, 5, 68, 88
6, 63006, Note_on_c, 5, 68, 0
6, 64450, Note_on_c, 5, 62, 110
6, 64480, Note_on_c, 5, 62, 0
6, 64504, Note_on_c, 5, 62, 88
6, 64533, Note_on_c, 5, 62, 0
6, 64560, Note_on_c, 5, 62, 78
6, 64590, Note_on_c, 5, 62, 0
6, 64617, Note_on_c, 5, 62, 78
6, 64644, Note_on_c, 5, 62, 0
6, 64674, Note_on_c, 5, 62, 78
6, 64708, Note_on_c, 5, 62, 0
6, 64730, Note_on_c, 5, 62, 78
6, 64924, Note_on_c, 5, 62, 0
6, 64972, Note_on_c, 5, 62, 110
6, 64996, Note_on_c, 5, 62, 0
6, 65032, Note_on_c, 5, 62, 124
6, 65071, Note_on_c, 5, 62, 0
6, 65094, Note_on_c, 5, 62, 78
6, 65127, Note_on_c, 5, 62, 0
6, 65155, Note_on_c, 5, 62, 78
6, 65186, Note_on_c, 5, 62, 0
6, 65216, Note_on_c, 5, 62, 78
6, 65396, Note_on_c, 5, 62, 0
6, 78720, Note_on_c, 5, 58, 98
6, 78892, Note_on_c, 5, 58, 0
6, 78900, Note_on_c, 5, 55, 98
6, 78960, Note_on_c, 5, 62, 110
6, 78961, Note_on_c, 5, 55, 0
6, 79133, Note_on_c, 5, 62, 0
6, 79140, Note_on_c, 5, 58, 110
6, 79198, Note_on_c, 5, 58, 0
6, 79200, Note_on_c, 5, 67, 98
6, 79378, Note_on_c, 5, 67, 0
6, 79380, Note_on_c, 5, 70, 110
6, 79440, Note_on_c, 5, 63, 110
6, 79441, Note_on_c, 5, 70, 0
6, 79680, Note_on_c, 5, 63, 0
6, 79680, Note_on_c, 5, 61, 110
6, 79918, Note_on_c, 5, 61, 0
6, 79920, Note_on_c, 5, 60, 98
6, 80100, Note_on_c, 5, 62, 110
6, 80102, Note_on_c, 5, 60, 0
6, 80160, Note_on_c, 5, 61, 110
6, 80169, Note_on_c, 5, 62, 0
6, 80333, Note_on_c, 5, 61, 0
6, 80340, Note_on_c, 5, 58, 110
6, 80398, Note_on_c, 5, 58, 0
6, 80400, Note_on_c, 5, 65, 110
6, 80580, Note_on_c, 5, 67, 98
6, 80588, Note_on_c, 5, 65, 0
6, 80640, Note_on_c, 5, 68, 110
6, 80651, Note_on_c, 5, 67, 0
6, 81060, Note_on_c, 5, 65, 98
6, 81061, Note_on_c, 5, 68, 0
6, 81120, Note_on_c, 5, 75, 110
6, 81123, Note_on_c, 5, 65, 0
6, 81298, Note_on_c, 5, 75, 0
6, 81300, Note_on_c, 5, 72, 88
6, 81360, Note_on_c, 5, 66, 110
6, 81363, Note_on_c, 5, 72, 0
6, 81540, Note_on_c, 5, 63, 98
6, 81547, Note_on_c, 5, 66, 0
6, 81589, Note_on_c, 5, 63, 0
6, 81600, Note_on_c, 5, 63, 110
6, 82080, Note_on_c, 5, 63, 0
6, 82080, Note_on_c, 5, 62, 110
6, 82560, Note_on_c, 5, 65, 110
6, 82566, Note_on_c, 5, 62, 0
6, 82800, Note_on_c, 5, 67, 110
6, 82801, Note_on_c, 5, 65, 0
6, 83040, Note_on_c, 5, 67, 0
6, 83040, Note_on_c, 5, 68, 88
6, 83231, Note_on_c, 5, 68, 0
6, 83278, Note_on_c, 5, 68, 88
6, 83469, Note_on_c, 5, 68, 0
6, 83515, Note_on_c, 5, 68, 88
6, 83713, Note_on_c, 5, 68, 0
6, 83766, Note_on_c, 5, 68, 98
6, 84006, Note_on_c, 5, 70, 78
6, 84011, Note_on_c, 5, 68, 0
6, 84232, Note_on_c, 5, 68, 98
6, 84240, Note_on_c, 5, 70, 0
6, 84468, Note_on_c, 5, 70, 78
6, 84471, Note_on_c, 5, 68, 0
6, 84710, Note_on_c, 5, 68, 98
6, 84713, Note_on_c, 5, 70, 0
6, 84958, Note_on_c, 5, 70, 88
6, 84964, Note_on_c, 5, 68, 0
6, 85040, Note_on_c, 5, 70, 0
6, 85079, Note_on_c, 5, 70, 78
6, 85201, Note_on_c, 5, 68, 98
6, 85206, Note_on_c, 5, 70, 0
6, 85680, Note_on_c, 5, 70, 78
6, 85688, Note_on_c, 5, 68, 0
6, 85920, Note_on_c, 5, 70, 0
6, 85920, Note_on_c, 5, 67, 78
6, 86160, Note_on_c, 5, 70, 78
6, 86173, Note_on_c, 5, 67, 0
6, 86359, Note_on_c, 5, 70, 0
6, 86399, Note_on_c, 5, 70, 88
6, 86629, Note_on_c, 5, 70, 0
6, 86629, Note_on_c, 5, 68, 88
6, 87287, Note_on_c, 5, 68, 0
6, 87353, Note_on_c, 5, 68, 88
6, 87557, Note_on_c, 5, 68, 0
6, 87604, Note_on_c, 5, 68, 88
6, 87803, Note_on_c, 5, 68, 0
6, 87843, Note_on_c, 5, 68, 88
6, 88037, Note_on_c, 5, 68, 0
6, 88075, Note_on_c, 5, 68, 88
6, 88310, Note_on_c, 5, 70, 70
6, 88317, Note_on_c, 5, 68, 0
6, 88554, Note_on_c, 5, 68, 88
6, 88558, Note_on_c, 5, 70, 0
6, 88784, Note_on_c, 5, 70, 78
6, 88788, Note_on_c, 5, 68, 0
6, 89034, Note_on_c, 5, 68, 98
6, 89040, Note_on_c, 5, 70, 0
6, 89284, Note_on_c, 5, 70, 78
6, 89296, Note_on_c, 5, 68, 0
6, 89355, Note_on_c, 5, 70, 0
6, 89391, Note_on_c, 5, 70, 78
6, 89524, Note_on_c, 5, 68, 88
6, 89530, Note_on_c, 5, 70, 0
6, 89761, Note_on_c, 5, 70, 78
6, 89764, Note_on_c, 5, 68, 0
6, 89999, Note_on_c, 5, 70, 0
6, 90004, Note_on_c, 5, 68, 88
6, 90110, Note_on_c, 5, 70, 88
6, 90112, Note_on_c, 5, 68, 0
6, 90217, Note_on_c, 5, 70, 0
6, 90224, Note_on_c, 5, 72, 78
6, 90473, Note_on_c, 5, 67, 88
6, 90489, Note_on_c, 5, 72, 0
6, 90676, Note_on_c, 5, 67, 0
6, 90717, Note_on_c, 5, 67, 78
6, 90827, Note_on_c, 5, 69, 88
6, 90834, Note_on_c, 5, 67, 0
6, 90951, Note_on_c, 5, 70, 88
6, 90958, Note_on_c, 5, 69, 0
6, 91655, Note_on_c, 5, 70, 0
6, 97445, Note_on_c, 5, 70, 98
6, 97908, Note_on_c, 5, 72, 78
6, 97911, Note_on_c, 5, 70, 0
6, 98401, Note_on_c, 5, 74, 88
6, 98410, Note_on_c, 5, 72, 0
6, 98873, Note_on_c, 5, 70, 98
6, 98881, Note_on_c, 5, 74, 0
6, 99113, Note_on_c, 5, 71, 88
6, 99183, Note_on_c, 5, 70, 0
6, 99360, Note_on_c, 5, 72, 88
6, 99372, Note_on_c, 5, 71, 0
6, 100098, Note_on_c, 5, 70, 110
6, 100109, Note_on_c, 5, 72, 0
6, 100320, Note_on_c, 5, 68, 110
6, 100331, Note_on_c, 5, 70, 0
6, 100779, Note_on_c, 5, 68, 0
6, 100812, Note_on_c, 5, 68, 110
6, 101006, Note_on_c, 5, 68, 0
6, 101053, Note_on_c, 5, 68, 88
6, 101286, Note_on_c, 5, 70, 78
6, 101289, Note_on_c, 5, 68, 0
6, 101526, Note_on_c, 5, 70, 0
6, 101526, Note_on_c, 5, 68, 88
6, 101766, Note_on_c, 5, 70, 78
6, 101771, Note_on_c, 5, 68, 0
6, 102008, Note_on_c, 5, 68, 78
6, 102019, Note_on_c, 5, 70, 0
6, 102234, Note_on_c, 5, 70, 78
6, 102240, Note_on_c, 5, 68, 0
6, 102469, Note_on_c, 5, 68, 88
6, 102472, Note_on_c, 5, 70, 0
6, 102967, Note_on_c, 5, 70, 78
6, 102973, Note_on_c, 5, 68, 0
6, 103201, Note_on_c, 5, 70, 0
6, 103201, Note_on_c, 5, 67, 78
6, 103433, Note_on_c, 5, 70, 70
6, 103446, Note_on_c, 5, 67, 0
6, 103637, Note_on_c, 5, 70, 0
6, 103679, Note_on_c, 5, 70, 70
6, 103913, Note_on_c, 5, 68, 78
6, 103924, Note_on_c, 5, 70, 0
6, 104580, Note_on_c, 5, 68, 0
6, 104640, Note_on_c, 5, 68, 78
6, 105076, Note_on_c, 5, 68, 0
6, 105124, Note_on_c, 5, 68, 70
6, 105316, Note_on_c, 5, 68, 0
6, 105372, Note_on_c, 5, 68, 78
6, 105601, Note_on_c, 5, 70, 70
6, 105604, Note_on_c, 5, 68, 0
6, 105839, Note_on_c, 5, 68, 70
6, 105850, Note_on_c, 5, 70, 0
6, 106076, Note_on_c, 5, 68, 0
6, 106076, Note_on_c, 5, 70, 70
6, 106318, Note_on_c, 5, 68, 78
6, 106327, Note_on_c, 5, 70, 0
6, 106557, Note_on_c, 5, 70, 70
6, 106560, Note_on_c, 5, 68, 0
6, 106795, Note_on_c, 5, 68, 70
6, 106806, Note_on_c, 5, 70, 0
6, 107035, Note_on_c, 5, 70, 70
6, 107040, Note_on_c, 5, 68, 0
6, 107274, Note_on_c, 5, 70, 0
6, 107274, Note_on_c, 5, 68, 88
6, 107389, Note_on_c, 5, 70, 78
6, 107402, Note_on_c, 5, 68, 0
6, 107508, Note_on_c, 5, 70, 0
6, 107514, Note_on_c, 5, 72, 78
6, 107765, Note_on_c, 5, 67, 78
6, 107787, Note_on_c, 5, 72, 0
6, 108114, Note_on_c, 5, 69, 70
6, 108132, Note_on_c, 5, 67, 0
6, 108235, Note_on_c, 5, 70, 78
6, 108241, Note_on_c, 5, 69, 0
6, 108835, Note_on_c, 5, 70, 0
6, 113646, Note_on_c, 5, 67, 70
6, 113679, Note_on_c, 5, 67, 0
6, 113703, Note_on_c, 5, 67, 70
6, 113766, Note_on_c, 5, 68, 98
6, 113771, Note_on_c, 5, 67, 0
6, 113894, Note_on_c, 5, 67, 78
6, 113896, Note_on_c, 5, 68, 0
6, 114126, Note_on_c, 5, 67, 0
6, 115200, Note_on_c, 5, 62, 78
6, 115314, Note_on_c, 5, 63, 88
6, 115322, Note_on_c, 5, 62, 0
6, 115564, Note_on_c, 5, 70, 70
6, 115569, Note_on_c, 5, 63, 0
6, 115643, Note_on_c, 5, 70, 0
6, 115689, Note_on_c, 5, 72, 78
6, 115968, Note_on_c, 5, 72, 0
6, 116035, Note_on_c, 5, 60, 70
6, 116117, Note_on_c, 5, 60, 0
6, 116154, Note_on_c, 5, 60, 78
6, 116652, Note_on_c, 5, 60, 0
6, 116652, End_track
7, 0, Start_track
7, 0, MIDI_port, 0
7, 0, Title_t, "tenor"
7, 0, Program_c, 6, 52
7, 0, Control_c, 6, 7, 127
7, 0, Control_c, 6, 10, 44
7, 1309, Note_on_c, 6, 65, 62
7, 1355, Note_on_c, 6, 65, 0
7, 1372, Note_on_c, 6, 65, 62
7, 1412, Note_on_c, 6, 65, 0
7, 1435, Note_on_c, 6, 65, 62
7, 1567, Note_on_c, 6, 63, 70
7, 1571, Note_on_c, 6, 65, 0
7, 1800, Note_on_c, 6, 63, 0
7, 1912, Note_on_c, 6, 62, 39
7, 2034, Note_on_c, 6, 63, 49
7, 2039, Note_on_c, 6, 62, 0
7, 2279, Note_on_c, 6, 58, 44
7, 2282, Note_on_c, 6, 63, 0
7, 2349, Note_on_c, 6, 58, 0
7, 2395, Note_on_c, 6, 62, 55
7, 2509, Note_on_c, 6, 62, 0
7, 2509, Note_on_c, 6, 63, 62
7, 2761, Note_on_c, 6, 58, 55
7, 2764, Note_on_c, 6, 63, 0
7, 2822, Note_on_c, 6, 58, 0
7, 2877, Note_on_c, 6, 62, 39
7, 2993, Note_on_c, 6, 63, 39
7, 2995, Note_on_c, 6, 62, 0
7, 3233, Note_on_c, 6, 58, 55
7, 3234, Note_on_c, 6, 63, 0
7, 3304, Note_on_c, 6, 58, 0
7, 3358, Note_on_c, 6, 60, 44
7, 3707, Note_on_c, 6, 60, 0
7, 3721, Note_on_c, 6, 60, 44
7, 3809, Note_on_c, 6, 60, 0
7, 3828, Note_on_c, 6, 60, 44
7, 4286, Note_on_c, 6, 60, 0
7, 4328, Note_on_c, 6, 63, 78
7, 4763, Note_on_c, 6, 63, 0
7, 4785, Note_on_c, 6, 63, 55
7, 5038, Note_on_c, 6, 64, 55
7, 5040, Note_on_c, 6, 63, 0
7, 5276, Note_on_c, 6, 64, 0
7, 5276, Note_on_c, 6, 60, 35
7, 5501, Note_on_c, 6, 60, 0
7, 5521, Note_on_c, 6, 60, 55
7, 5734, Note_on_c, 6, 60, 0
7, 5755, Note_on_c, 6, 60, 49
7, 5943, Note_on_c, 6, 60, 0
7, 6000, Note_on_c, 6, 62, 55
7, 6112, Note_on_c, 6, 63, 55
7, 6116, Note_on_c, 6, 62, 0
7, 6363, Note_on_c, 6, 58, 55
7, 6366, Note_on_c, 6, 63, 0
7, 6432, Note_on_c, 6, 58, 0
7, 6480, Note_on_c, 6, 62, 44
7, 6588, Note_on_c, 6, 63, 49
7, 6589, Note_on_c, 6, 62, 0
7, 6684, Note_on_c, 6, 63, 0
7, 6710, Note_on_c, 6, 63, 55
7, 6960, Note_on_c, 6, 58, 55
7, 6962, Note_on_c, 6, 63, 0
7, 7176, Note_on_c, 6, 58, 0
7, 7194, Note_on_c, 6, 62, 44
7, 7429, Note_on_c, 6, 63, 49
7, 7430, Note_on_c, 6, 62, 0
7, 7680, Note_on_c, 6, 58, 62
7, 7681, Note_on_c, 6, 63, 0
7, 7913, Note_on_c, 6, 58, 0
7, 7916, Note_on_c, 6, 62, 44
7, 8146, Note_on_c, 6, 63, 55
7, 8148, Note_on_c, 6, 62, 0
7, 8394, Note_on_c, 6, 58, 44
7, 8396, Note_on_c, 6, 63, 0
7, 8633, Note_on_c, 6, 58, 0
7, 8633, Note_on_c, 6, 62, 44
7, 8876, Note_on_c, 6, 63, 55
7, 8877, Note_on_c, 6, 62, 0
7, 9119, Note_on_c, 6, 58, 49
7, 9121, Note_on_c, 6, 63, 0
7, 9353, Note_on_c, 6, 58, 0
7, 9353, Note_on_c, 6, 62, 39
7, 9473, Note_on_c, 6, 63, 49
7, 9475, Note_on_c, 6, 62, 0
7, 9713, Note_on_c, 6, 58, 39
7, 9716, Note_on_c, 6, 63, 0
7, 9778, Note_on_c, 6, 58, 0
7, 9833, Note_on_c, 6, 62, 44
7, 9948, Note_on_c, 6, 63, 49
7, 9954, Note_on_c, 6, 62, 0
7, 10195, Note_on_c, 6, 58, 62
7, 10198, Note_on_c, 6, 63, 0
7, 10270, Note_on_c, 6, 58, 0
7, 10317, Note_on_c, 6, 60, 44
7, 10657, Note_on_c, 6, 60, 0
7, 10676, Note_on_c, 6, 60, 55
7, 10782, Note_on_c, 6, 60, 0
7, 10798, Note_on_c, 6, 60, 44
7, 11279, Note_on_c, 6, 60, 0
7, 31500, Note_on_c, 6, 52, 88
7, 31521, Note_on_c, 6, 52, 0
7, 31556, Note_on_c, 6, 52, 78
7, 31576, Note_on_c, 6, 52, 0
7, 31618, Note_on_c, 6, 52, 78
7, 31641, Note_on_c, 6, 52, 0
7, 31678, Note_on_c, 6, 52, 70
7, 31701, Note_on_c, 6, 52, 0
7, 31738, Note_on_c, 6, 52, 70
7, 31758, Note_on_c, 6, 52, 0
7, 31799, Note_on_c, 6, 52, 88
7, 31826, Note_on_c, 6, 52, 0
7, 32041, Note_on_c, 6, 52, 88
7, 32076, Note_on_c, 6, 52, 0
7, 32272, Note_on_c, 6, 52, 88
7, 32308, Note_on_c, 6, 52, 0
7, 32393, Note_on_c, 6, 52, 88
7, 32416, Note_on_c, 6, 52, 0
7, 32455, Note_on_c, 6, 52, 78
7, 32475, Note_on_c, 6, 52, 0
7, 32519, Note_on_c, 6, 52, 88
7, 32551, Note_on_c, 6, 52, 0
7, 32675, Control_c, 6, 10, 55
7, 32770, Note_on_c, 6, 52, 88
7, 32800, Note_on_c, 6, 52, 0
7, 32998, Note_on_c, 6, 52, 88
7, 33027, Note_on_c, 6, 52, 0
7, 33171, Note_on_c, 6, 52, 88
7, 33192, Note_on_c, 6, 52, 0
7, 33231, Note_on_c, 6, 52, 78
7, 33252, Note_on_c, 6, 52, 0
7, 33292, Note_on_c, 6, 52, 78
7, 33315, Note_on_c, 6, 52, 0
7, 33356, Note_on_c, 6, 52, 78
7, 33378, Note_on_c, 6, 52, 0
7, 33419, Note_on_c, 6, 52, 78
7, 33437, Note_on_c, 6, 52, 0
7, 33478, Note_on_c, 6, 52, 78
7, 33508, Note_on_c, 6, 52, 0
7, 33959, Note_on_c, 6, 52, 98
7, 33996, Note_on_c, 6, 52, 0
7, 34075, Note_on_c, 6, 52, 98
7, 34108, Note_on_c, 6, 52, 0
7, 34196, Note_on_c, 6, 52, 98
7, 34231, Note_on_c, 6, 52, 0
7, 34442, Note_on_c, 6, 52, 88
7, 34477, Note_on_c, 6, 52, 0
7, 34683, Note_on_c, 6, 52, 98
7, 34724, Note_on_c, 6, 52, 0
7, 34724, Control_c, 6, 10, 54
7, 39361, Note_on_c, 6, 58, 98
7, 39842, Note_on_c, 6, 58, 0
7, 39844, Note_on_c, 6, 55, 98
7, 40324, Note_on_c, 6, 48, 78
7, 40339, Note_on_c, 6, 55, 0
7, 40550, Note_on_c, 6, 48, 0
7, 40552, Note_on_c, 6, 60, 98
7, 41031, Note_on_c, 6, 50, 88
7, 41032, Note_on_c, 6, 60, 0
7, 41512, Note_on_c, 6, 55, 98
7, 41519, Note_on_c, 6, 50, 0
7, 41997, Note_on_c, 6, 55, 0
7, 41999, Note_on_c, 6, 52, 98
7, 42482, Note_on_c, 6, 52, 0
7, 42482, Note_on_c, 6, 57, 98
7, 42697, Note_on_c, 6, 57, 0
7, 42721, Note_on_c, 6, 64, 110
7, 43199, Note_on_c, 6, 62, 110
7, 43204, Note_on_c, 6, 64, 0
7, 43665, Note_on_c, 6, 62, 0
7, 43679, Note_on_c, 6, 62, 110
7, 44159, Note_on_c, 6, 61, 110
7, 44164, Note_on_c, 6, 62, 0
7, 44617, Note_on_c, 6, 61, 0
7, 44646, Note_on_c, 6, 64, 110
7, 45116, Note_on_c, 6, 62, 98
7, 45121, Note_on_c, 6, 64, 0
7, 45564, Note_on_c, 6, 62, 0
7, 45577, Note_on_c, 6, 62, 98
7, 46076, Note_on_c, 6, 61, 110
7, 46083, Note_on_c, 6, 62, 0
7, 46548, Note_on_c, 6, 61, 0
7, 46551, Note_on_c, 6, 64, 98
7, 47032, Note_on_c, 6, 62, 98
7, 47036, Note_on_c, 6, 64, 0
7, 47480, Note_on_c, 6, 62, 0
7, 47502, Note_on_c, 6, 62, 110
7, 48000, Note_on_c, 6, 61, 110
7, 48002, Note_on_c, 6, 62, 0
7, 48466, Note_on_c, 6, 61, 0
7, 50286, Note_on_c, 6, 65, 88
7, 50324, Note_on_c, 6, 65, 0
7, 50344, Note_on_c, 6, 65, 70
7, 50370, Note_on_c, 6, 65, 0
7, 50404, Note_on_c, 6, 65, 78
7, 50524, Note_on_c, 6, 63, 88
7, 50532, Note_on_c, 6, 65, 0
7, 50766, Note_on_c, 6, 63, 0
7, 50876, Note_on_c, 6, 63, 110
7, 51198, Note_on_c, 6, 63, 0
7, 51234, Note_on_c, 6, 63, 110
7, 51692, Note_on_c, 6, 63, 0
7, 51719, Note_on_c, 6, 63, 110
7, 51762, Note_on_c, 6, 63, 0
7, 51834, Note_on_c, 6, 60, 98
7, 51892, Note_on_c, 6, 60, 0
7, 51947, Note_on_c, 6, 63, 124
7, 52000, Note_on_c, 6, 63, 0
7, 52073, Note_on_c, 6, 61, 110
7, 52127, Note_on_c, 6, 61, 0
7, 52318, Note_on_c, 6, 63, 98
7, 52529, Note_on_c, 6, 63, 0
7, 52555, Note_on_c, 6, 63, 110
7, 52775, Note_on_c, 6, 63, 0
7, 52796, Note_on_c, 6, 63, 98
7, 53036, Note_on_c, 6, 63, 0
7, 53039, Note_on_c, 6, 65, 98
7, 53378, Note_on_c, 6, 65, 0
7, 53397, Note_on_c, 6, 65, 110
7, 53455, Note_on_c, 6, 65, 0
7, 56158, Note_on_c, 6, 60, 110
7, 56191, Note_on_c, 6, 60, 0
7, 56215, Note_on_c, 6, 60, 88
7, 56242, Note_on_c, 6, 60, 0
7, 56271, Note_on_c, 6, 60, 88
7, 56303, Note_on_c, 6, 60, 0
7, 56332, Note_on_c, 6, 60, 88
7, 56364, Note_on_c, 6, 60, 0
7, 56393, Note_on_c, 6, 60, 62
7, 56420, Note_on_c, 6, 60, 0
7, 56449, Note_on_c, 6, 60, 78
7, 56616, Note_on_c, 6, 60, 0
7, 59273, Note_on_c, 6, 60, 110
7, 59314, Note_on_c, 6, 60, 0
7, 59337, Note_on_c, 6, 60, 78
7, 59364, Note_on_c, 6, 60, 0
7, 59393, Note_on_c, 6, 60, 78
7, 59424, Note_on_c, 6, 60, 0
7, 59454, Note_on_c, 6, 60, 70
7, 59480, Note_on_c, 6, 60, 0
7, 59512, Note_on_c, 6, 60, 78
7, 59538, Note_on_c, 6, 60, 0
7, 59572, Note_on_c, 6, 60, 88
7, 59604, Note_on_c, 6, 60, 0
7, 61561, Note_on_c, 6, 64, 110
7, 61599, Note_on_c, 6, 64, 0
7, 61622, Note_on_c, 6, 64, 78
7, 61650, Note_on_c, 6, 64, 0
7, 61677, Note_on_c, 6, 64, 88
7, 61708, Note_on_c, 6, 64, 0
7, 61734, Note_on_c, 6, 64, 78
7, 61764, Note_on_c, 6, 64, 0
7, 61793, Note_on_c, 6, 64, 78
7, 61825, Note_on_c, 6, 64, 0
7, 61853, Note_on_c, 6, 64, 88
7, 62041, Note_on_c, 6, 64, 0
7, 62217, Note_on_c, 6, 64, 98
7, 62248, Note_on_c, 6, 64, 0
7, 62277, Note_on_c, 6, 64, 124
7, 62315, Note_on_c, 6, 64, 0
7, 62339, Note_on_c, 6, 64, 88
7, 62377, Note_on_c, 6, 64, 0
7, 62400, Note_on_c, 6, 64, 88
7, 62437, Note_on_c, 6, 64, 0
7, 62460, Note_on_c, 6, 64, 98
7, 62987, Note_on_c, 6, 64, 0
7, 64445, Note_on_c, 6, 58, 110
7, 64482, Note_on_c, 6, 58, 0
7, 64501, Note_on_c, 6, 58, 98
7, 64531, Note_on_c, 6, 58, 0
7, 64557, Note_on_c, 6, 58, 98
7, 64592, Note_on_c, 6, 58, 0
7, 64614, Note_on_c, 6, 58, 78
7, 64638, Note_on_c, 6, 58, 0
7, 64668, Note_on_c, 6, 58, 88
7, 64698, Note_on_c, 6, 58, 0
7, 64727, Note_on_c, 6, 58, 88
7, 64922, Note_on_c, 6, 58, 0
7, 64975, Note_on_c, 6, 58, 110
7, 65011, Note_on_c, 6, 58, 0
7, 65034, Note_on_c, 6, 58, 78
7, 65065, Note_on_c, 6, 58, 0
7, 65095, Note_on_c, 6, 58, 70
7, 65130, Note_on_c, 6, 58, 0
7, 65154, Note_on_c, 6, 58, 70
7, 65188, Note_on_c, 6, 58, 0
7, 65214, Note_on_c, 6, 58, 70
7, 65395, Note_on_c, 6, 58, 0
7, 78720, Note_on_c, 6, 58, 88
7, 78894, Note_on_c, 6, 58, 0
7, 78900, Note_on_c, 6, 55, 78
7, 78960, Note_on_c, 6, 62, 88
7, 78963, Note_on_c, 6, 55, 0
7, 79200, Note_on_c, 6, 62, 0
7, 79200, Note_on_c, 6, 61, 88
7, 79380, Note_on_c, 6, 61, 0
7, 79380, Note_on_c, 6, 58, 110
7, 79440, Note_on_c, 6, 58, 0
7, 79440, Note_on_c, 6, 56, 88
7, 79920, Note_on_c, 6, 65, 98
7, 79932, Note_on_c, 6, 56, 0
7, 80100, Note_on_c, 6, 57, 78
7, 80107, Note_on_c, 6, 65, 0
7, 80154, Note_on_c, 6, 57, 0
7, 80160, Note_on_c, 6, 55, 88
7, 80398, Note_on_c, 6, 55, 0
7, 80400, Note_on_c, 6, 56, 98
7, 80580, Note_on_c, 6, 58, 98
7, 80582, Note_on_c, 6, 56, 0
7, 80640, Note_on_c, 6, 60, 88
7, 80644, Note_on_c, 6, 58, 0
7, 80820, Note_on_c, 6, 59, 88
7, 80826, Note_on_c, 6, 60, 0
7, 80880, Note_on_c, 6, 59, 0
7, 80880, Note_on_c, 6, 60, 88
7, 81120, Note_on_c, 6, 56, 98
7, 81122, Note_on_c, 6, 60, 0
7, 81300, Note_on_c, 6, 58, 98
7, 81304, Note_on_c, 6, 56, 0
7, 81360, Note_on_c, 6, 58, 0
7, 81360, Note_on_c, 6, 60, 98
7, 81536, Note_on_c, 6, 60, 0
7, 81540, Note_on_c, 6, 59, 88
7, 81600, Note_on_c, 6, 59, 0
7, 81600, Note_on_c, 6, 67, 110
7, 81838, Note_on_c, 6, 67, 0
7, 81840, Note_on_c, 6, 63, 110
7, 82078, Note_on_c, 6, 63, 0
7, 82080, Note_on_c, 6, 55, 110
7, 82317, Note_on_c, 6, 55, 0
7, 82320, Note_on_c, 6, 65, 110
7, 82560, Note_on_c, 6, 62, 110
7, 82569, Note_on_c, 6, 65, 0
7, 82800, Note_on_c, 6, 59, 110
7, 82816, Note_on_c, 6, 62, 0
7, 83038, Note_on_c, 6, 59, 0
7, 83046, Note_on_c, 6, 60, 70
7, 83240, Note_on_c, 6, 60, 0
7, 83295, Note_on_c, 6, 60, 70
7, 83477, Note_on_c, 6, 60, 0
7, 83531, Note_on_c, 6, 60, 78
7, 83714, Note_on_c, 6, 60, 0
7, 83771, Note_on_c, 6, 60, 88
7, 84005, Note_on_c, 6, 58, 98
7, 84016, Note_on_c, 6, 60, 0
7, 84239, Note_on_c, 6, 60, 78
7, 84247, Note_on_c, 6, 58, 0
7, 84441, Note_on_c, 6, 60, 0
7, 84480, Note_on_c, 6, 60, 78
7, 84698, Note_on_c, 6, 60, 0
7, 84735, Note_on_c, 6, 60, 70
7, 84921, Note_on_c, 6, 60, 0
7, 84956, Note_on_c, 6, 60, 78
7, 85059, Note_on_c, 6, 60, 0
7, 85086, Note_on_c, 6, 60, 70
7, 85168, Note_on_c, 6, 60, 0
7, 85209, Note_on_c, 6, 60, 88
7, 85634, Note_on_c, 6, 60, 0
7, 85678, Note_on_c, 6, 60, 78
7, 85917, Note_on_c, 6, 58, 98
7, 85932, Note_on_c, 6, 60, 0
7, 86119, Note_on_c, 6, 58, 0
7, 86157, Note_on_c, 6, 58, 98
7, 86364, Note_on_c, 6, 58, 0
7, 86406, Note_on_c, 6, 58, 98
7, 86634, Note_on_c, 6, 60, 98
7, 86636, Note_on_c, 6, 58, 0
7, 87304, Note_on_c, 6, 60, 0
7, 87359, Note_on_c, 6, 60, 88
7, 87571, Note_on_c, 6, 60, 0
7, 87604, Note_on_c, 6, 60, 98
7, 87816, Note_on_c, 6, 60, 0
7, 87851, Note_on_c, 6, 60, 88
7, 88059, Note_on_c, 6, 60, 0
7, 88094, Note_on_c, 6, 60, 98
7, 88329, Note_on_c, 6, 58, 98
7, 88340, Note_on_c, 6, 60, 0
7, 88547, Note_on_c, 6, 60, 88
7, 88558, Note_on_c, 6, 58, 0
7, 88761, Note_on_c, 6, 60, 0
7, 88806, Note_on_c, 6, 60, 88
7, 89010, Note_on_c, 6, 60, 0
7, 89048, Note_on_c, 6, 60, 98
7, 89260, Note_on_c, 6, 60, 0
7, 89293, Note_on_c, 6, 60, 98
7, 89366, Note_on_c, 6, 60, 0
7, 89401, Note_on_c, 6, 60, 78
7, 89459, Note_on_c, 6, 60, 0
7, 89521, Note_on_c, 6, 60, 88
7, 89750, Note_on_c, 6, 68, 110
7, 89764, Note_on_c, 6, 60, 0
7, 89985, Note_on_c, 6, 67, 98
7, 89991, Note_on_c, 6, 68, 0
7, 90240, Note_on_c, 6, 66, 110
7, 90254, Note_on_c, 6, 67, 0
7, 90486, Note_on_c, 6, 65, 110
7, 90505, Note_on_c, 6, 66, 0
7, 90726, Note_on_c, 6, 63, 98
7, 90736, Note_on_c, 6, 65, 0
7, 90951, Note_on_c, 6, 63, 0
7, 90957, Note_on_c, 6, 62, 98
7, 91571, Note_on_c, 6, 62, 0
7, 91679, Note_on_c, 6, 58, 110
7, 92540, Note_on_c, 6, 58, 0
7, 92636, Note_on_c, 6, 58, 110
7, 93314, Note_on_c, 6, 58, 0
7, 93363, Note_on_c, 6, 58, 110
7, 93791, Note_on_c, 6, 58, 0
7, 93853, Note_on_c, 6, 58, 110
7, 94076, Note_on_c, 6, 58, 0
7, 94081, Note_on_c, 6, 61, 110
7, 94319, Note_on_c, 6, 56, 98
7, 94324, Note_on_c, 6, 61, 0
7, 94569, Note_on_c, 6, 58, 98
7, 94572, Note_on_c, 6, 56, 0
7, 94992, Note_on_c, 6, 58, 0
7, 95051, Note_on_c, 6, 58, 110
7, 95716, Note_on_c, 6, 58, 0
7, 95763, Note_on_c, 6, 58, 98
7, 96217, Note_on_c, 6, 58, 0
7, 96240, Note_on_c, 6, 58, 110
7, 96654, Note_on_c, 6, 58, 0
7, 96719, Note_on_c, 6, 58, 110
7, 96967, Note_on_c, 6, 58, 0
7, 96967, Note_on_c, 6, 61, 98
7, 97206, Note_on_c, 6, 56, 88
7, 97212, Note_on_c, 6, 61, 0
7, 97440, Note_on_c, 6, 58, 78
7, 97446, Note_on_c, 6, 56, 0
7, 97915, Note_on_c, 6, 58, 0
7, 97917, Note_on_c, 6, 60, 98
7, 98403, Note_on_c, 6, 62, 98
7, 98407, Note_on_c, 6, 60, 0
7, 98879, Note_on_c, 6, 63, 98
7, 98889, Note_on_c, 6, 62, 0
7, 99840, Note_on_c, 6, 62, 98
7, 99848, Note_on_c, 6, 63, 0
7, 100269, Note_on_c, 6, 62, 0
7, 100326, Note_on_c, 6, 60, 78
7, 100759, Note_on_c, 6, 60, 0
7, 100804, Note_on_c, 6, 60, 70
7, 100988, Note_on_c, 6, 60, 0
7, 101044, Note_on_c, 6, 60, 70
7, 101279, Note_on_c, 6, 58, 88
7, 101289, Note_on_c, 6, 60, 0
7, 101519, Note_on_c, 6, 58, 0
7, 101526, Note_on_c, 6, 60, 70
7, 101947, Note_on_c, 6, 60, 0
7, 101996, Note_on_c, 6, 60, 78
7, 102191, Note_on_c, 6, 60, 0
7, 102235, Note_on_c, 6, 60, 70
7, 102440, Note_on_c, 6, 60, 0
7, 102477, Note_on_c, 6, 60, 70
7, 102938, Note_on_c, 6, 60, 0
7, 102981, Note_on_c, 6, 60, 70
7, 103199, Note_on_c, 6, 58, 88
7, 103207, Note_on_c, 6, 60, 0
7, 103651, Note_on_c, 6, 58, 0
7, 103692, Note_on_c, 6, 58, 88
7, 103911, Note_on_c, 6, 58, 0
7, 103913, Note_on_c, 6, 60, 78
7, 104581, Note_on_c, 6, 60, 0
7, 104635, Note_on_c, 6, 60, 70
7, 105085, Note_on_c, 6, 60, 0
7, 105117, Note_on_c, 6, 60, 62
7, 105319, Note_on_c, 6, 60, 0
7, 105357, Note_on_c, 6, 60, 70
7, 105599, Note_on_c, 6, 58, 88
7, 105615, Note_on_c, 6, 60, 0
7, 105839, Note_on_c, 6, 60, 70
7, 105848, Note_on_c, 6, 58, 0
7, 106049, Note_on_c, 6, 60, 0
7, 106093, Note_on_c, 6, 60, 88
7, 106503, Note_on_c, 6, 60, 0
7, 106558, Note_on_c, 6, 60, 78
7, 106765, Note_on_c, 6, 60, 0
7, 106811, Note_on_c, 6, 60, 70
7, 107043, Note_on_c, 6, 68, 88
7, 107052, Note_on_c, 6, 60, 0
7, 107280, Note_on_c, 6, 68, 0
7, 107291, Note_on_c, 6, 67, 78
7, 107520, Note_on_c, 6, 66, 98
7, 107537, Note_on_c, 6, 67, 0
7, 107768, Note_on_c, 6, 65, 98
7, 107771, Note_on_c, 6, 66, 0
7, 108004, Note_on_c, 6, 63, 98
7, 108018, Note_on_c, 6, 65, 0
7, 108236, Note_on_c, 6, 63, 0
7, 108239, Note_on_c, 6, 62, 88
7, 108838, Note_on_c, 6, 62, 0
7, 113640, Note_on_c, 6, 65, 78
7, 113675, Note_on_c, 6, 65, 0
7, 113698, Note_on_c, 6, 65, 78
7, 113731, Note_on_c, 6, 65, 0
7, 113765, Note_on_c, 6, 65, 88
7, 113882, Note_on_c, 6, 63, 88
7, 113888, Note_on_c, 6, 65, 0
7, 114142, Note_on_c, 6, 63, 0
7, 114231, Note_on_c, 6, 62, 62
7, 114348, Note_on_c, 6, 63, 70
7, 114350, Note_on_c, 6, 62, 0
7, 114599, Note_on_c, 6, 58, 78
7, 114601, Note_on_c, 6, 63, 0
7, 114657, Note_on_c, 6, 58, 0
7, 114717, Note_on_c, 6, 62, 70
7, 114840, Note_on_c, 6, 63, 70
7, 114845, Note_on_c, 6, 62, 0
7, 115076, Note_on_c, 6, 58, 70
7, 115079, Note_on_c, 6, 63, 0
7, 115138, Note_on_c, 6, 58, 0
7, 115194, Note_on_c, 6, 62, 70
7, 115314, Note_on_c, 6, 63, 62
7, 115318, Note_on_c, 6, 62, 0
7, 115557, Note_on_c, 6, 58, 70
7, 115561, Note_on_c, 6, 63, 0
7, 115612, Note_on_c, 6, 58, 0
7, 115683, Note_on_c, 6, 60, 70
7, 115975, Note_on_c, 6, 60, 0
7, 116026, Note_on_c, 6, 60, 62
7, 116126, Note_on_c, 6, 60, 0
7, 116156, Note_on_c, 6, 60, 62
7, 116635, Note_on_c, 6, 60, 0
7, 116635, End_track
8, 0, Start_track
8, 0, MIDI_port, 0
8, 0, Title_t, "bass"
8, 0, Program_c, 7, 52
8, 0, Control_c, 7, 7, 127
8, 0, Control_c, 7, 10, 14
8, 1314, Note_on_c, 7, 57, 62
8, 1355, Note_on_c, 7, 57, 0
8, 1373, Note_on_c, 7, 57, 78
8, 1433, Note_on_c, 7, 56, 88
8, 1438, Note_on_c, 7, 57, 0
8, 1568, Note_on_c, 7, 58, 70
8, 1573, Note_on_c, 7, 56, 0
8, 1800, Note_on_c, 7, 58, 0
8, 1912, Note_on_c, 7, 50, 35
8, 2031, Note_on_c, 7, 51, 49
8, 2038, Note_on_c, 7, 50, 0
8, 2279, Note_on_c, 7, 46, 55
8, 2282, Note_on_c, 7, 51, 0
8, 2339, Note_on_c, 7, 46, 0
8, 2398, Note_on_c, 7, 50, 35
8, 2505, Note_on_c, 7, 51, 49
8, 2506, Note_on_c, 7, 50, 0
8, 2758, Note_on_c, 7, 46, 55
8, 2759, Note_on_c, 7, 51, 0
8, 2824, Note_on_c, 7, 46, 0
8, 2879, Note_on_c, 7, 50, 44
8, 2989, Note_on_c, 7, 51, 49
8, 2990, Note_on_c, 7, 50, 0
8, 3233, Note_on_c, 7, 46, 55
8, 3234, Note_on_c, 7, 51, 0
8, 3312, Note_on_c, 7, 46, 0
8, 3361, Note_on_c, 7, 48, 39
8, 3704, Note_on_c, 7, 48, 0
8, 3722, Note_on_c, 7, 48, 35
8, 3822, Note_on_c, 7, 48, 0
8, 3840, Note_on_c, 7, 48, 35
8, 4277, Note_on_c, 7, 48, 0
8, 4322, Note_on_c, 7, 48, 44
8, 4560, Note_on_c, 7, 51, 39
8, 4567, Note_on_c, 7, 48, 0
8, 4791, Note_on_c, 7, 51, 0
8, 4792, Note_on_c, 7, 60, 39
8, 5040, Note_on_c, 7, 48, 35
8, 5046, Note_on_c, 7, 60, 0
8, 5270, Note_on_c, 7, 51, 44
8, 5274, Note_on_c, 7, 48, 0
8, 5511, Note_on_c, 7, 48, 35
8, 5515, Note_on_c, 7, 51, 0
8, 5727, Note_on_c, 7, 48, 0
8, 5747, Note_on_c, 7, 48, 39
8, 5945, Note_on_c, 7, 48, 0
8, 5991, Note_on_c, 7, 50, 30
8, 6115, Note_on_c, 7, 51, 44
8, 6120, Note_on_c, 7, 50, 0
8, 6356, Note_on_c, 7, 46, 55
8, 6360, Note_on_c, 7, 51, 0
8, 6433, Note_on_c, 7, 46, 0
8, 6470, Note_on_c, 7, 50, 49
8, 6589, Note_on_c, 7, 51, 55
8, 6593, Note_on_c, 7, 50, 0
8, 6689, Note_on_c, 7, 51, 0
8, 6713, Note_on_c, 7, 51, 49
8, 6957, Note_on_c, 7, 46, 49
8, 6960, Note_on_c, 7, 51, 0
8, 7188, Note_on_c, 7, 46, 0
8, 7188, Note_on_c, 7, 50, 62
8, 7433, Note_on_c, 7, 51, 62
8, 7435, Note_on_c, 7, 50, 0
8, 7673, Note_on_c, 7, 46, 62
8, 7676, Note_on_c, 7, 51, 0
8, 7910, Note_on_c, 7, 46, 0
8, 7910, Note_on_c, 7, 50, 55
8, 8149, Note_on_c, 7, 51, 55
8, 8153, Note_on_c, 7, 50, 0
8, 8397, Note_on_c, 7, 46, 55
8, 8399, Note_on_c, 7, 51, 0
8, 8628, Note_on_c, 7, 50, 49
8, 8631, Note_on_c, 7, 46, 0
8, 8871, Note_on_c, 7, 51, 55
8, 8878, Note_on_c, 7, 50, 0
8, 9119, Note_on_c, 7, 46, 55
8, 9122, Note_on_c, 7, 51, 0
8, 9356, Note_on_c, 7, 50, 55
8, 9358, Note_on_c, 7, 46, 0
8, 9474, Note_on_c, 7, 51, 62
8, 9477, Note_on_c, 7, 50, 0
8, 9719, Note_on_c, 7, 46, 62
8, 9721, Note_on_c, 7, 51, 0
8, 9781, Note_on_c, 7, 46, 0
8, 9838, Note_on_c, 7, 50, 49
8, 9953, Note_on_c, 7, 51, 55
8, 9956, Note_on_c, 7, 50, 0
8, 10203, Note_on_c, 7, 46, 62
8, 10206, Note_on_c, 7, 51, 0
8, 10262, Note_on_c, 7, 46, 0
8, 10315, Note_on_c, 7, 48, 55
8, 10660, Note_on_c, 7, 48, 0
8, 10674, Note_on_c, 7, 48, 49
8, 10787, Note_on_c, 7, 48, 0
8, 10801, Note_on_c, 7, 48, 55
8, 11268, Note_on_c, 7, 48, 0
8, 35040, Note_on_c, 7, 43, 88
8, 35276, Note_on_c, 7, 52, 98
8, 35278, Note_on_c, 7, 43, 0
8, 35724, Note_on_c, 7, 52, 0
8, 35757, Note_on_c, 7, 52, 110
8, 36000, Note_on_c, 7, 43, 98
8, 36005, Note_on_c, 7, 52, 0
8, 36234, Note_on_c, 7, 52, 110
8, 36236, Note_on_c, 7, 43, 0
8, 36368, Control_c, 7, 10, 55
8, 36682, Note_on_c, 7, 52, 0
8, 36709, Note_on_c, 7, 52, 110
8, 36956, Note_on_c, 7, 45, 98
8, 36959, Note_on_c, 7, 52, 0
8, 37203, Note_on_c, 7, 52, 110
8, 37204, Note_on_c, 7, 45, 0
8, 37435, Note_on_c, 7, 52, 0
8, 37435, Note_on_c, 7, 48, 98
8, 37675, Note_on_c, 7, 60, 110
8, 37679, Note_on_c, 7, 48, 0
8, 37924, Note_on_c, 7, 50, 98
8, 37929, Note_on_c, 7, 60, 0
8, 38128, Note_on_c, 7, 50, 0
8, 38153, Note_on_c, 7, 50, 110
8, 38393, Note_on_c, 7, 55, 110
8, 38397, Note_on_c, 7, 50, 0
8, 38623, Note_on_c, 7, 55, 0
8, 38624, Note_on_c, 7, 57, 110
8, 38884, Note_on_c, 7, 57, 0
8, 38884, Note_on_c, 7, 62, 110
8, 39124, Note_on_c, 7, 52, 98
8, 39130, Note_on_c, 7, 62, 0
8, 39589, Note_on_c, 7, 55, 110
8, 39590, Note_on_c, 7, 52, 0
8, 40066, Note_on_c, 7, 55, 0
8, 40067, Note_on_c, 7, 48, 98
8, 40067, Control_c, 7, 10, 54
8, 40556, Note_on_c, 7, 52, 98
8, 40563, Note_on_c, 7, 48, 0
8, 40805, Note_on_c, 7, 54, 110
8, 40814, Note_on_c, 7, 52, 0
8, 41039, Note_on_c, 7, 54, 0
8, 41039, Note_on_c, 7, 53, 78
8, 41524, Note_on_c, 7, 52, 98
8, 41525, Note_on_c, 7, 53, 0
8, 41755, Note_on_c, 7, 52, 0
8, 41755, Note_on_c, 7, 60, 98
8, 42242, Note_on_c, 7, 48, 88
8, 42247, Note_on_c, 7, 60, 0
8, 42690, Note_on_c, 7, 48, 0
8, 42726, Note_on_c, 7, 58, 110
8, 42960, Note_on_c, 7, 58, 0
8, 42960, Note_on_c, 7, 60, 98
8, 43436, Note_on_c, 7, 60, 0
8, 43436, Note_on_c, 7, 55, 98
8, 43562, Note_on_c, 7, 55, 0
8, 43671, Note_on_c, 7, 55, 110
8, 43702, Control_c, 7, 10, 55
8, 43917, Note_on_c, 7, 57, 110
8, 43922, Note_on_c, 7, 55, 0
8, 44400, Note_on_c, 7, 57, 0
8, 44401, Note_on_c, 7, 52, 98
8, 44584, Note_on_c, 7, 52, 0
8, 44639, Note_on_c, 7, 58, 110
8, 44882, Note_on_c, 7, 60, 98
8, 44884, Note_on_c, 7, 58, 0
8, 45359, Note_on_c, 7, 60, 0
8, 45360, Note_on_c, 7, 55, 98
8, 45360, Control_c, 7, 10, 54
8, 45528, Note_on_c, 7, 55, 0
8, 45581, Note_on_c, 7, 55, 98
8, 45601, Control_c, 7, 10, 55
8, 45833, Note_on_c, 7, 57, 98
8, 45837, Note_on_c, 7, 55, 0
8, 46323, Note_on_c, 7, 57, 0
8, 46323, Note_on_c, 7, 52, 98
8, 46489, Note_on_c, 7, 52, 0
8, 46553, Note_on_c, 7, 58, 110
8, 46796, Note_on_c, 7, 60, 88
8, 46804, Note_on_c, 7, 58, 0
8, 47285, Note_on_c, 7, 55, 98
8, 47287, Note_on_c, 7, 60, 0
8, 47423, Note_on_c, 7, 55, 0
8, 47521, Note_on_c, 7, 55, 98
8, 47762, Note_on_c, 7, 57, 110
8, 47769, Note_on_c, 7, 55, 0
8, 48237, Note_on_c, 7, 57, 0
8, 48242, Note_on_c, 7, 52, 98
8, 48436, Note_on_c, 7, 52, 0
8, 50280, Note_on_c, 7, 57, 62
8, 50322, Note_on_c, 7, 57, 0
8, 50346, Note_on_c, 7, 57, 70
8, 50407, Note_on_c, 7, 56, 78
8, 50411, Note_on_c, 7, 57, 0
8, 50532, Note_on_c, 7, 58, 62
8, 50537, Note_on_c, 7, 56, 0
8, 50758, Note_on_c, 7, 58, 0
8, 50868, Note_on_c, 7, 51, 124
8, 51200, Note_on_c, 7, 51, 0
8, 51236, Note_on_c, 7, 51, 124
8, 51691, Note_on_c, 7, 51, 0
8, 51719, Note_on_c, 7, 51, 110
8, 51772, Note_on_c, 7, 51, 0
8, 51838, Note_on_c, 7, 48, 98
8, 51899, Note_on_c, 7, 48, 0
8, 51950, Note_on_c, 7, 51, 110
8, 52017, Note_on_c, 7, 51, 0
8, 52073, Note_on_c, 7, 49, 110
8, 52137, Note_on_c, 7, 49, 0
8, 52318, Note_on_c, 7, 51, 110
8, 52538, Note_on_c, 7, 51, 0
8, 52566, Note_on_c, 7, 51, 110
8, 52773, Note_on_c, 7, 51, 0
8, 52799, Note_on_c, 7, 51, 124
8, 53035, Note_on_c, 7, 51, 0
8, 53039, Note_on_c, 7, 53, 88
8, 53380, Note_on_c, 7, 53, 0
8, 53401, Note_on_c, 7, 53, 98
8, 53444, Note_on_c, 7, 53, 0
8, 56160, Note_on_c, 7, 52, 110
8, 56200, Note_on_c, 7, 52, 0
8, 56220, Note_on_c, 7, 52, 78
8, 56253, Note_on_c, 7, 52, 0
8, 56280, Note_on_c, 7, 52, 78
8, 56310, Note_on_c, 7, 52, 0
8, 56340, Note_on_c, 7, 52, 78
8, 56374, Note_on_c, 7, 52, 0
8, 56400, Note_on_c, 7, 52, 88
8, 56432, Note_on_c, 7, 52, 0
8, 56460, Note_on_c, 7, 52, 78
8, 56638, Note_on_c, 7, 52, 0
8, 59276, Note_on_c, 7, 52, 110
8, 59319, Note_on_c, 7, 52, 0
8, 59339, Note_on_c, 7, 52, 70
8, 59373, Note_on_c, 7, 52, 0
8, 59397, Note_on_c, 7, 52, 78
8, 59434, Note_on_c, 7, 52, 0
8, 59457, Note_on_c, 7, 52, 70
8, 59490, Note_on_c, 7, 52, 0
8, 59512, Note_on_c, 7, 52, 70
8, 59546, Note_on_c, 7, 52, 0
8, 59570, Note_on_c, 7, 52, 70
8, 59618, Note_on_c, 7, 52, 0
8, 61563, Note_on_c, 7, 56, 124
8, 61599, Note_on_c, 7, 56, 0
8, 61623, Note_on_c, 7, 56, 98
8, 61657, Note_on_c, 7, 56, 0
8, 61681, Note_on_c, 7, 56, 98
8, 61712, Note_on_c, 7, 56, 0
8, 61739, Note_on_c, 7, 56, 88
8, 61773, Note_on_c, 7, 56, 0
8, 61797, Note_on_c, 7, 56, 88
8, 61825, Note_on_c, 7, 56, 0
8, 61857, Note_on_c, 7, 56, 98
8, 62044, Note_on_c, 7, 56, 0
8, 62219, Note_on_c, 7, 56, 98
8, 62247, Note_on_c, 7, 56, 0
8, 62278, Note_on_c, 7, 56, 110
8, 62313, Note_on_c, 7, 56, 0
8, 62340, Note_on_c, 7, 56, 98
8, 62373, Note_on_c, 7, 56, 0
8, 62399, Note_on_c, 7, 56, 88
8, 62433, Note_on_c, 7, 56, 0
8, 62460, Note_on_c, 7, 56, 110
8, 62996, Note_on_c, 7, 56, 0
8, 64445, Note_on_c, 7, 50, 110
8, 64480, Note_on_c, 7, 50, 0
8, 64503, Note_on_c, 7, 50, 78
8, 64532, Note_on_c, 7, 50, 0
8, 64562, Note_on_c, 7, 50, 78
8, 64592, Note_on_c, 7, 50, 0
8, 64617, Note_on_c, 7, 50, 78
8, 64647, Note_on_c, 7, 50, 0
8, 64674, Note_on_c, 7, 50, 78
8, 64704, Note_on_c, 7, 50, 0
8, 64731, Note_on_c, 7, 50, 78
8, 64937, Note_on_c, 7, 50, 0
8, 64972, Note_on_c, 7, 50, 70
8, 64993, Note_on_c, 7, 50, 0
8, 65032, Note_on_c, 7, 50, 124
8, 65063, Note_on_c, 7, 50, 0
8, 65093, Note_on_c, 7, 50, 78
8, 65124, Note_on_c, 7, 50, 0
8, 65152, Note_on_c, 7, 50, 98
8, 65187, Note_on_c, 7, 50, 0
8, 65215, Note_on_c, 7, 50, 78
8, 65394, Note_on_c, 7, 50, 0
8, 74400, Note_on_c, 7, 47, 78
8, 74580, Note_on_c, 7, 43, 70
8, 74586, Note_on_c, 7, 47, 0
8, 74640, Note_on_c, 7, 50, 88
8, 74643, Note_on_c, 7, 43, 0
8, 74813, Note_on_c, 7, 50, 0
8, 74820, Note_on_c, 7, 47, 78
8, 74879, Note_on_c, 7, 47, 0
8, 74880, Note_on_c, 7, 55, 88
8, 75060, Note_on_c, 7, 59, 98
8, 75073, Note_on_c, 7, 55, 0
8, 75118, Note_on_c, 7, 59, 0
8, 75120, Note_on_c, 7, 52, 98
8, 75597, Note_on_c, 7, 52, 0
8, 75600, Note_on_c, 7, 50, 78
8, 75839, Note_on_c, 7, 50, 0
8, 75840, Note_on_c, 7, 48, 88
8, 76020, Note_on_c, 7, 52, 88
8, 76025, Note_on_c, 7, 48, 0
8, 76074, Note_on_c, 7, 52, 0
8, 76080, Note_on_c, 7, 57, 98
8, 76260, Note_on_c, 7, 60, 88
8, 76264, Note_on_c, 7, 57, 0
8, 76317, Note_on_c, 7, 60, 0
8, 76320, Note_on_c, 7, 48, 88
8, 76500, Note_on_c, 7, 52, 78
8, 76508, Note_on_c, 7, 48, 0
8, 76560, Note_on_c, 7, 50, 78
8, 76564, Note_on_c, 7, 52, 0
8, 77040, Note_on_c, 7, 48, 88
8, 77048, Note_on_c, 7, 50, 0
8, 77280, Note_on_c, 7, 46, 98
8, 77285, Note_on_c, 7, 48, 0
8, 77452, Note_on_c, 7, 46, 0
8, 77460, Note_on_c, 7, 43, 78
8, 77520, Note_on_c, 7, 55, 98
8, 77524, Note_on_c, 7, 43, 0
8, 77691, Note_on_c, 7, 55, 0
8, 77700, Note_on_c, 7, 50, 88
8, 77760, Note_on_c, 7, 50, 0
8, 77760, Note_on_c, 7, 58, 98
8, 77940, Note_on_c, 7, 47, 88
8, 77962, Note_on_c, 7, 58, 0
8, 78000, Note_on_c, 7, 45, 88
8, 78006, Note_on_c, 7, 47, 0
8, 78479, Note_on_c, 7, 45, 0
8, 78480, Note_on_c, 7, 43, 78
8, 78701, Note_on_c, 7, 43, 0
8, 78720, Note_on_c, 7, 43, 88
8, 79430, Note_on_c, 7, 43, 0
8, 79440, Note_on_c, 7, 48, 88
8, 79620, Note_on_c, 7, 44, 88
8, 79623, Note_on_c, 7, 48, 0
8, 79680, Note_on_c, 7, 53, 88
8, 79688, Note_on_c, 7, 44, 0
8, 79860, Note_on_c, 7, 48, 78
8, 79869, Note_on_c, 7, 53, 0
8, 79913, Note_on_c, 7, 48, 0
8, 79920, Note_on_c, 7, 56, 110
8, 80100, Note_on_c, 7, 47, 88
8, 80105, Note_on_c, 7, 56, 0
8, 80160, Note_on_c, 7, 46, 98
8, 80163, Note_on_c, 7, 47, 0
8, 80880, Note_on_c, 7, 44, 110
8, 80884, Note_on_c, 7, 46, 0
8, 81060, Note_on_c, 7, 46, 88
8, 81064, Note_on_c, 7, 44, 0
8, 81120, Note_on_c, 7, 48, 98
8, 81121, Note_on_c, 7, 46, 0
8, 81300, Note_on_c, 7, 50, 88
8, 81307, Note_on_c, 7, 48, 0
8, 81360, Note_on_c, 7, 51, 88
8, 81364, Note_on_c, 7, 50, 0
8, 81540, Note_on_c, 7, 54, 110
8, 81544, Note_on_c, 7, 51, 0
8, 81585, Note_on_c, 7, 54, 0
8, 81600, Note_on_c, 7, 55, 110
8, 81840, Note_on_c, 7, 60, 98
8, 81843, Note_on_c, 7, 55, 0
8, 82080, Note_on_c, 7, 60, 0
8, 82080, Note_on_c, 7, 53, 98
8, 82317, Note_on_c, 7, 53, 0
8, 82320, Note_on_c, 7, 59, 98
8, 82560, Note_on_c, 7, 55, 98
8, 82563, Note_on_c, 7, 59, 0
8, 82800, Note_on_c, 7, 48, 88
8, 82823, Note_on_c, 7, 55, 0
8, 83040, Note_on_c, 7, 48, 0
8, 83040, Note_on_c, 7, 58, 88
8, 83279, Note_on_c, 7, 58, 0
8, 83280, Note_on_c, 7, 46, 70
8, 83520, Note_on_c, 7, 58, 78
8, 83526, Note_on_c, 7, 46, 0
8, 83740, Note_on_c, 7, 58, 0
8, 83760, Note_on_c, 7, 58, 88
8, 84237, Note_on_c, 7, 58, 0
8, 84240, Note_on_c, 7, 46, 70
8, 84480, Note_on_c, 7, 46, 0
8, 84480, Note_on_c, 7, 58, 88
8, 84719, Note_on_c, 7, 58, 0
8, 84720, Note_on_c, 7, 46, 70
8, 84960, Note_on_c, 7, 58, 88
8, 84980, Note_on_c, 7, 46, 0
8, 85049, Note_on_c, 7, 58, 0
8, 85080, Note_on_c, 7, 58, 98
8, 85196, Note_on_c, 7, 58, 0
8, 85200, Note_on_c, 7, 60, 78
8, 85636, Note_on_c, 7, 60, 0
8, 85680, Note_on_c, 7, 60, 70
8, 85800, Note_on_c, 7, 61, 88
8, 85804, Note_on_c, 7, 60, 0
8, 85920, Note_on_c, 7, 62, 78
8, 85924, Note_on_c, 7, 61, 0
8, 86160, Note_on_c, 7, 61, 78
8, 86183, Note_on_c, 7, 62, 0
8, 86394, Note_on_c, 7, 61, 0
8, 86400, Note_on_c, 7, 60, 70
8, 86614, Note_on_c, 7, 60, 0
8, 86640, Note_on_c, 7, 60, 78
8, 87305, Note_on_c, 7, 60, 0
8, 87360, Note_on_c, 7, 58, 88
8, 87592, Note_on_c, 7, 46, 78
8, 87598, Note_on_c, 7, 58, 0
8, 87833, Note_on_c, 7, 58, 88
8, 87840, Note_on_c, 7, 46, 0
8, 88033, Note_on_c, 7, 58, 0
8, 88066, Note_on_c, 7, 58, 98
8, 88551, Note_on_c, 7, 46, 70
8, 88556, Note_on_c, 7, 58, 0
8, 88790, Note_on_c, 7, 58, 98
8, 88791, Note_on_c, 7, 46, 0
8, 89029, Note_on_c, 7, 46, 88
8, 89032, Note_on_c, 7, 58, 0
8, 89277, Note_on_c, 7, 58, 98
8, 89294, Note_on_c, 7, 46, 0
8, 89363, Note_on_c, 7, 58, 0
8, 89394, Note_on_c, 7, 58, 98
8, 89512, Note_on_c, 7, 46, 78
8, 89514, Note_on_c, 7, 58, 0
8, 89762, Note_on_c, 7, 58, 98
8, 89768, Note_on_c, 7, 46, 0
8, 89958, Note_on_c, 7, 58, 0
8, 89996, Note_on_c, 7, 58, 98
8, 90228, Note_on_c, 7, 58, 0
8, 90228, Note_on_c, 7, 57, 88
8, 90459, Note_on_c, 7, 58, 88
8, 90461, Note_on_c, 7, 57, 0
8, 90711, Note_on_c, 7, 60, 88
8, 90716, Note_on_c, 7, 58, 0
8, 90957, Note_on_c, 7, 62, 98
8, 90960, Note_on_c, 7, 60, 0
8, 91584, Note_on_c, 7, 62, 0
8, 91676, Note_on_c, 7, 46, 110
8, 92568, Note_on_c, 7, 46, 0
8, 92629, Note_on_c, 7, 46, 110
8, 93326, Note_on_c, 7, 46, 0
8, 93362, Note_on_c, 7, 46, 110
8, 93803, Note_on_c, 7, 46, 0
8, 93850, Note_on_c, 7, 46, 98
8, 94071, Note_on_c, 7, 49, 78
8, 94073, Note_on_c, 7, 46, 0
8, 94312, Note_on_c, 7, 44, 78
8, 94316, Note_on_c, 7, 49, 0
8, 94550, Note_on_c, 7, 46, 78
8, 94558, Note_on_c, 7, 44, 0
8, 95018, Note_on_c, 7, 46, 0
8, 95036, Note_on_c, 7, 46, 124
8, 95697, Note_on_c, 7, 46, 0
8, 95738, Note_on_c, 7, 46, 110
8, 96196, Note_on_c, 7, 46, 0
8, 96226, Note_on_c, 7, 46, 98
8, 96717, Note_on_c, 7, 46, 0
8, 96720, Note_on_c, 7, 46, 98
8, 96954, Note_on_c, 7, 49, 78
8, 96958, Note_on_c, 7, 46, 0
8, 97172, Note_on_c, 7, 44, 78
8, 97178, Note_on_c, 7, 49, 0
8, 97433, Note_on_c, 7, 46, 88
8, 97437, Note_on_c, 7, 44, 0
8, 97907, Note_on_c, 7, 46, 0
8, 97907, Note_on_c, 7, 48, 98
8, 98393, Note_on_c, 7, 50, 98
8, 98398, Note_on_c, 7, 48, 0
8, 98868, Note_on_c, 7, 51, 98
8, 98877, Note_on_c, 7, 50, 0
8, 99824, Note_on_c, 7, 50, 98
8, 99830, Note_on_c, 7, 51, 0
8, 100257, Note_on_c, 7, 50, 0
8, 100323, Note_on_c, 7, 58, 88
8, 100781, Note_on_c, 7, 46, 70
8, 100787, Note_on_c, 7, 58, 0
8, 100987, Note_on_c, 7, 46, 0
8, 101024, Note_on_c, 7, 46, 78
8, 101234, Note_on_c, 7, 46, 0
8, 101266, Note_on_c, 7, 46, 78
8, 101471, Note_on_c, 7, 46, 0
8, 101516, Note_on_c, 7, 46, 62
8, 101760, Note_on_c, 7, 58, 88
8, 101765, Note_on_c, 7, 46, 0
8, 101991, Note_on_c, 7, 46, 70
8, 101996, Note_on_c, 7, 58, 0
8, 102218, Note_on_c, 7, 58, 70
8, 102225, Note_on_c, 7, 46, 0
8, 102461, Note_on_c, 7, 58, 0
8, 102461, Note_on_c, 7, 60, 78
8, 102911, Note_on_c, 7, 60, 0
8, 102947, Note_on_c, 7, 60, 70
8, 103063, Note_on_c, 7, 61, 78
8, 103073, Note_on_c, 7, 60, 0
8, 103189, Note_on_c, 7, 62, 78
8, 103190, Note_on_c, 7, 61, 0
8, 103451, Note_on_c, 7, 61, 70
8, 103458, Note_on_c, 7, 62, 0
8, 103676, Note_on_c, 7, 60, 70
8, 103683, Note_on_c, 7, 61, 0
8, 103878, Note_on_c, 7, 60, 0
8, 103906, Note_on_c, 7, 60, 70
8, 104575, Note_on_c, 7, 60, 0
8, 104638, Note_on_c, 7, 58, 78
8, 105125, Note_on_c, 7, 46, 55
8, 105130, Note_on_c, 7, 58, 0
8, 105347, Note_on_c, 7, 58, 78
8, 105359, Note_on_c, 7, 46, 0
8, 105566, Note_on_c, 7, 58, 0
8, 105593, Note_on_c, 7, 58, 78
8, 105805, Note_on_c, 7, 58, 0
8, 105836, Note_on_c, 7, 58, 88
8, 106025, Note_on_c, 7, 58, 0
8, 106069, Note_on_c, 7, 58, 78
8, 106558, Note_on_c, 7, 46, 70
8, 106565, Note_on_c, 7, 58, 0
8, 106795, Note_on_c, 7, 46, 0
8, 106795, Note_on_c, 7, 58, 88
8, 107242, Note_on_c, 7, 58, 0
8, 107277, Note_on_c, 7, 58, 88
8, 107502, Note_on_c, 7, 58, 0
8, 107502, Note_on_c, 7, 57, 78
8, 107742, Note_on_c, 7, 58, 78
8, 107750, Note_on_c, 7, 57, 0
8, 107988, Note_on_c, 7, 60, 70
8, 107992, Note_on_c, 7, 58, 0
8, 108229, Note_on_c, 7, 62, 88
8, 108234, Note_on_c, 7, 60, 0
8, 108802, Note_on_c, 7, 62, 0
8, 113636, Note_on_c, 7, 57, 70
8, 113675, Note_on_c, 7, 57, 0
8, 113699, Note_on_c, 7, 57, 78
8, 113761, Note_on_c, 7, 56, 110
8, 113767, Note_on_c, 7, 57, 0
8, 113889, Note_on_c, 7, 58, 88
8, 113893, Note_on_c, 7, 56, 0
8, 114108, Note_on_c, 7, 58, 0
8, 114240, Note_on_c, 7, 50, 55
8, 114359, Note_on_c, 7, 51, 55
8, 114362, Note_on_c, 7, 50, 0
8, 114595, Note_on_c, 7, 46, 70
8, 114597, Note_on_c, 7, 51, 0
8, 114660, Note_on_c, 7, 46, 0
8, 114720, Note_on_c, 7, 50, 70
8, 114835, Note_on_c, 7, 50, 0
8, 114835, Note_on_c, 7, 51, 70
8, 115077, Note_on_c, 7, 46, 62
8, 115082, Note_on_c, 7, 51, 0
8, 115148, Note_on_c, 7, 46, 0
8, 115198, Note_on_c, 7, 50, 62
8, 115314, Note_on_c, 7, 51, 70
8, 115316, Note_on_c, 7, 50, 0
8, 115555, Note_on_c, 7, 46, 70
8, 115557, Note_on_c, 7, 51, 0
8, 115618, Note_on_c, 7, 46, 0
8, 115676, Note_on_c, 7, 48, 70
8, 115976, Note_on_c, 7, 48, 0
8, 116034, Note_on_c, 7, 48, 70
8, 116123, Note_on_c, 7, 48, 0
8, 116158, Note_on_c, 7, 48, 70
8, 116647, Note_on_c, 7, 48, 0
8, 116647, End_track
9, 0, Start_track
9, 0, MIDI_port, 0
9, 0, Title_t, "-movement 3 (of 3)"
9, 0, Control_c, 0, 7, 127
9, 0, Control_c, 0, 10, 64
9, 0, End_track
10, 0, Start_track
10, 0, MIDI_port, 0
10, 0, Title_t, "Symphony of Psalms"
10, 0, Control_c, 0, 7, 127
10, 0, Control_c, 0, 10, 64
10, 0, End_track
11, 0, Start_track
11, 0, MIDI_port, 0
11, 0, Title_t, "by Igor Stravinsky"
11, 0, Control_c, 0, 7, 127
11, 0, Control_c, 0, 10, 64
11, 0, End_track
12, 0, Start_track
12, 0, MIDI_port, 0
12, 0, Title_t, "sequenced by "
12, 0, Control_c, 0, 7, 127
12, 0, Control_c, 0, 10, 64
12, 0, End_track
13, 0, Start_track
13, 0, MIDI_port, 0
13, 0, Title_t, "Michael Petri"
13, 0, Control_c, 0, 7, 127
13, 0, Control_c, 0, 10, 64
13, 0, End_track
0, 0, End_of_file
