0, 0, Header, 1, 39, 480
1, 0, Start_track
1, 0, Sequencer_specific, 10, 0, 0, 91, 35, 2, 0, 3, 0, 51, 0
1, 0, Title_t, "Rite of Spring - 2. The sacrifice"
1, 0, MIDI_port, 0
1, 0, Text_t, "by Igor Stravinsky"
1, 0, Time_signature, 3, 2, 24, 8
1, 0, Key_signature, 0, "major"
1, 0, Tempo, 1645639
1, 0, Marker_t, "Largo"
1, 1440, Time_signature, 4, 2, 24, 8
1, 2400, Tempo, 1760563
1, 2880, Tempo, 1939864
1, 3360, Tempo, 1703093
1, 7200, Time_signature, 3, 2, 24, 8
1, 8640, Time_signature, 4, 2, 24, 8
1, 8640, Tempo, 1737619
1, 9120, Tempo, 1765225
1, 9360, Tempo, 1808318
1, 9600, Tempo, 1928640
1, 9840, Tempo, 2048480
1, 10080, Tempo, 2350176
1, 10320, Tempo, 2748511
1, 10560, Time_signature, 3, 2, 24, 8
1, 10560, Tempo, 1798561
1, 13440, Time_signature, 4, 2, 24, 8
1, 14400, Tempo, 1838235
1, 14640, Tempo, 1907790
1, 14880, Tempo, 2247191
1, 15120, Tempo, 2713704
1, 15360, Time_signature, 3, 2, 24, 8
1, 15360, Tempo, 1747742
1, 16800, Time_signature, 4, 2, 24, 8
1, 18720, Time_signature, 2, 2, 24, 8
1, 18960, Tempo, 1945525
1, 19200, Tempo, 2181025
1, 19440, Tempo, 2638522
1, 19680, Time_signature, 3, 2, 24, 8
1, 19680, Tempo, 1715756
1, 21600, Tempo, 1733102
1, 21840, Tempo, 1765225
1, 22080, Tempo, 1838235
1, 22320, Tempo, 1980198
1, 22560, Tempo, 1719690
1, 23280, Tempo, 1779359
1, 23520, Tempo, 1869741
1, 23760, Tempo, 2066827
1, 24000, Tempo, 1703093
1, 24960, Tempo, 1798561
1, 25200, Tempo, 1951854
1, 25440, Tempo, 1706970
1, 26160, Tempo, 1829268
1, 26400, Tempo, 2004008
1, 26640, Tempo, 2173913
1, 26880, Tempo, 1725129
1, 27840, Tempo, 1890359
1, 28080, Tempo, 2092050
1, 28320, Tempo, 1680672
1, 29760, Time_signature, 4, 2, 24, 8
1, 31680, Time_signature, 2, 2, 24, 8
1, 32640, Time_signature, 4, 2, 24, 8
1, 34560, Time_signature, 2, 2, 24, 8
1, 34560, Tempo, 1733102
1, 34800, Tempo, 1794258
1, 35040, Tempo, 1829268
1, 35280, Tempo, 1939864
1, 35520, Time_signature, 4, 2, 24, 8
1, 35520, Tempo, 1647446
1, 37440, Time_signature, 2, 2, 24, 8
1, 37920, Tempo, 1784121
1, 38160, Tempo, 1907790
1, 38400, Time_signature, 4, 2, 24, 8
1, 38400, Tempo, 1651982
1, 38880, Tempo, 1711840
1, 39120, Tempo, 1808318
1, 39360, Tempo, 1639344
1, 40320, Time_signature, 5, 2, 24, 8
1, 40320, Tempo, 1428571
1, 42720, Time_signature, 3, 2, 24, 8
1, 42720, Tempo, 1476741
1, 44160, Time_signature, 4, 2, 24, 8
1, 44640, Tempo, 1612469
1, 46080, Tempo, 1711840
1, 47520, Tempo, 1798561
1, 47760, Tempo, 2048480
1, 48000, Time_signature, 5, 2, 24, 8
1, 48000, Tempo, 1373311
1, 49440, Tempo, 1584786
1, 49920, Tempo, 2092050
1, 50400, Time_signature, 6, 2, 24, 8
1, 50400, Tempo, 1361470
1, 51840, Tempo, 1480019
1, 52320, Tempo, 1558846
1, 52800, Tempo, 2079002
1, 53280, Time_signature, 5, 2, 24, 8
1, 53280, Tempo, 1361470
1, 54720, Tempo, 1527106
1, 55200, Tempo, 2059732
1, 55680, Tempo, 1359003
1, 61920, Tempo, 1472754
1, 62400, Tempo, 1794258
1, 62880, Time_signature, 6, 2, 24, 8
1, 62880, Tempo, 1359003
1, 64800, Tempo, 1533742
1, 65040, Tempo, 1668984
1, 65280, Tempo, 1874414
1, 65520, Tempo, 1384083
1, 65760, Time_signature, 4, 2, 24, 8
1, 65760, Tempo, 1249219
1, 67680, Time_signature, 5, 2, 24, 8
1, 72480, Time_signature, 4, 2, 24, 8
1, 74400, Time_signature, 3, 2, 24, 8
1, 83040, Tempo, 1966568
1, 83040, Marker_t, "Più mosso"
1, 83520, Tempo, 1080497
1, 84480, Time_signature, 4, 2, 24, 8
1, 85440, Tempo, 1227747
1, 85920, Tempo, 1397624
1, 86400, Time_signature, 3, 2, 24, 8
1, 86400, Tempo, 1145475
1, 87840, Tempo, 1498127
1, 88320, Tempo, 1683974
1, 89040, Tempo, 5012531
1, 89280, Time_signature, 5, 2, 24, 8
1, 89280, Tempo, 1487357
1, 89280, Marker_t, "Tempo I"
1, 90720, Tempo, 1819836
1, 91200, Tempo, 2212389
1, 91680, Time_signature, 6, 2, 24, 8
1, 91680, Tempo, 1518218
1, 92640, Tempo, 1593625
1, 93600, Tempo, 2088409
1, 94080, Tempo, 1909004
1, 94560, Time_signature, 5, 2, 24, 8
1, 94560, Tempo, 1376462
1, 95520, Tempo, 1560062
1, 96000, Tempo, 1882648
1, 96480, Tempo, 2162162
1, 96960, Tempo, 1586462
1, 97920, Tempo, 1752848
1, 98400, Tempo, 1989389
1, 98880, Tempo, 2177068
1, 99120, Tempo, 2644336
1, 99360, Time_signature, 4, 2, 24, 8
1, 99360, Tempo, 1000834
1, 99360, Marker_t, "Andante con moto"
1, 101280, Time_signature, 2, 2, 24, 8
1, 101280, Tempo, 1030573
1, 101760, Tempo, 1082251
1, 102240, Time_signature, 4, 2, 24, 8
1, 102240, Tempo, 1000834
1, 103680, Tempo, 1059696
1, 104160, Time_signature, 3, 2, 24, 8
1, 104160, Tempo, 1085776
1, 105120, Tempo, 1116902
1, 105600, Time_signature, 4, 2, 24, 8
1, 105600, Tempo, 1157184
1, 106080, Tempo, 1186005
1, 106560, Tempo, 1083815
1, 107520, Time_signature, 5, 2, 24, 8
1, 109920, Time_signature, 3, 2, 24, 8
1, 112800, Tempo, 660211
1, 112800, Marker_t, "Più mosso"
1, 120000, Time_signature, 2, 2, 24, 8
1, 120480, Tempo, 680349
1, 120960, Time_signature, 3, 2, 24, 8
1, 122400, Time_signature, 4, 2, 24, 8
1, 122400, Tempo, 699708
1, 124320, Tempo, 723938
1, 126240, Time_signature, 3, 2, 24, 8
1, 127680, Tempo, 742482
1, 132000, Tempo, 727890
1, 139200, Tempo, 710816
1, 140640, Tempo, 696136
1, 142080, Tempo, 710059
1, 143520, Tempo, 723240
1, 144960, Tempo, 742482
1, 145440, Tempo, 755953
1, 145920, Tempo, 773694
1, 146400, Tempo, 789993
1, 146880, Tempo, 847218
1, 147360, Tempo, 902391
1, 147840, Time_signature, 5, 2, 24, 8
1, 147840, Tempo, 1545993
1, 147840, Marker_t, "Tempo I"
1, 148320, Tempo, 1192605
1, 150240, Time_signature, 4, 2, 24, 8
1, 152160, Tempo, 1112553
1, 154080, Time_signature, 3, 2, 24, 8
1, 155520, Time_signature, 6, 2, 24, 8
1, 158400, Time_signature, 3, 2, 24, 8
1, 159840, Time_signature, 6, 2, 24, 8
1, 159840, Tempo, 1164370
1, 162720, Time_signature, 8, 2, 24, 8
1, 162720, Tempo, 1270917
1, 166560, Time_signature, 6, 2, 24, 8
1, 166560, Tempo, 977676
1, 168480, Tempo, 1069709
1, 168960, Tempo, 1481847
1, 169440, Tempo, 1074306
1, 171360, Tempo, 1203852
1, 171840, Tempo, 1606425
1, 172320, Tempo, 1170275
1, 174240, Tempo, 1239413
1, 174720, Tempo, 1353485
1, 175200, Tempo, 1038601
1, 177120, Tempo, 1284521
1, 177360, Tempo, 1439194
1, 177600, Tempo, 1606425
1, 177840, Tempo, 1958863
1, 178080, Tempo, 993213
1, 179520, Tempo, 1284521
1, 180000, Tempo, 1536885
1, 180960, Tempo, 989609
1, 182400, Tempo, 1209677
1, 182880, Tempo, 1586042
1, 183840, Tempo, 920104
1, 185760, Tempo, 1270917
1, 186720, Tempo, 1065530
1, 188640, Tempo, 1518602
1, 189600, Time_signature, 4, 2, 24, 8
1, 189600, Tempo, 1252348
1, 191520, Time_signature, 6, 2, 24, 8
1, 191520, Tempo, 1112553
1, 194400, Time_signature, 4, 2, 24, 8
1, 194400, Tempo, 1164370
1, 196320, Time_signature, 5, 2, 24, 8
1, 196320, Tempo, 1088534
1, 198720, Time_signature, 3, 2, 24, 8
1, 198720, Tempo, 1215559
1, 199680, Tempo, 1606425
1, 200160, Time_signature, 4, 2, 24, 8
1, 200160, Tempo, 1252348
1, 201120, Tempo, 789577
1, 202080, Tempo, 723676
1, 204000, Tempo, 505646
1, 205920, Time_signature, 5, 2, 24, 8
1, 205920, Tempo, 483208
1, 208320, Tempo, 460052
1, 210240, Tempo, 544168
1, 210720, Time_signature, 11, 2, 24, 8
1, 210720, Tempo, 478507
1, 210720, Marker_t, "Vivo"
1, 216000, Time_signature, 5, 3, 12, 8
1, 216000, Tempo, 509727
1, 218400, Time_signature, 9, 3, 12, 8
1, 220560, Time_signature, 5, 3, 12, 8
1, 221760, Time_signature, 7, 3, 12, 8
1, 223440, Time_signature, 3, 3, 12, 8
1, 224160, Time_signature, 4, 3, 12, 8
1, 225120, Time_signature, 7, 2, 24, 8
1, 228480, Time_signature, 3, 2, 24, 8
1, 229920, Time_signature, 7, 2, 24, 8
1, 233280, Time_signature, 3, 3, 12, 8
1, 234000, Time_signature, 4, 3, 12, 8
1, 234960, Time_signature, 7, 2, 24, 8
1, 238320, Time_signature, 6, 3, 12, 8
1, 239760, Time_signature, 5, 3, 12, 8
1, 240960, Time_signature, 9, 3, 12, 8
1, 243120, Time_signature, 5, 3, 12, 8
1, 243120, Tempo, 521739
1, 245520, Time_signature, 7, 3, 12, 8
1, 247200, Time_signature, 5, 3, 12, 8
1, 248400, Time_signature, 3, 3, 12, 8
1, 248400, Tempo, 496565
1, 249120, Time_signature, 3, 2, 24, 8
1, 250560, Time_signature, 3, 3, 12, 8
1, 251280, Time_signature, 4, 2, 24, 8
1, 253200, Time_signature, 3, 3, 12, 8
1, 253920, Time_signature, 3, 2, 24, 8
1, 253920, Tempo, 495949
1, 256800, Time_signature, 5, 2, 24, 8
1, 259200, Time_signature, 3, 2, 24, 8
1, 263520, Time_signature, 2, 2, 24, 8
1, 264480, Time_signature, 5, 2, 24, 8
1, 264480, Tempo, 479463
1, 266880, Time_signature, 6, 2, 24, 8
1, 269760, Time_signature, 5, 2, 24, 8
1, 272160, Time_signature, 6, 2, 24, 8
1, 275040, Time_signature, 5, 2, 24, 8
1, 279840, Time_signature, 3, 2, 24, 8
1, 281280, Time_signature, 6, 2, 24, 8
1, 284160, Time_signature, 2, 2, 24, 8
1, 285120, Time_signature, 3, 2, 24, 8
1, 288000, Time_signature, 5, 3, 12, 8
1, 288000, Tempo, 990262
1, 288240, Tempo, 1139168
1, 288480, Tempo, 1272534
1, 288720, Tempo, 1362707
1, 288960, Tempo, 1425178
1, 289200, Time_signature, 3, 2, 24, 8
1, 289200, Tempo, 503609
1, 290640, Time_signature, 5, 3, 12, 8
1, 293040, Time_signature, 9, 3, 12, 8
1, 295200, Time_signature, 5, 3, 12, 8
1, 296400, Time_signature, 7, 3, 12, 8
1, 298080, Time_signature, 5, 3, 12, 8
1, 299280, Time_signature, 6, 3, 12, 8
1, 300720, Time_signature, 5, 3, 12, 8
1, 301920, Time_signature, 9, 3, 12, 8
1, 304080, Time_signature, 5, 3, 12, 8
1, 306480, Time_signature, 7, 3, 12, 8
1, 308160, Time_signature, 5, 3, 12, 8
1, 309360, Time_signature, 3, 1, 48, 8
1, 309360, Tempo, 290177
1, 309360, Marker_t, "Evocation of the ancestors"
1, 318000, Time_signature, 2, 1, 48, 8
1, 319920, Time_signature, 3, 2, 24, 8
1, 321360, Time_signature, 2, 2, 24, 8
1, 322320, Time_signature, 3, 2, 24, 8
1, 323760, Time_signature, 3, 1, 48, 8
1, 323760, Tempo, 328713
1, 329520, Time_signature, 2, 2, 24, 8
1, 330480, Time_signature, 3, 2, 24, 8
1, 331920, Time_signature, 3, 1, 48, 8
1, 337680, Tempo, 263054
1, 340560, Time_signature, 2, 2, 24, 8
1, 340560, Tempo, 299625
1, 341520, Time_signature, 3, 2, 24, 8
1, 342960, Time_signature, 2, 1, 48, 8
1, 344880, Time_signature, 3, 2, 24, 8
1, 347760, Time_signature, 2, 1, 48, 8
1, 349680, Time_signature, 3, 2, 24, 8
1, 352560, Time_signature, 2, 2, 24, 8
1, 353520, Time_signature, 3, 2, 24, 8
1, 354960, Time_signature, 3, 1, 48, 8
1, 359760, Tempo, 1395024
1, 360720, Time_signature, 2, 1, 48, 8
1, 360720, Tempo, 320393
1, 362640, Time_signature, 3, 2, 24, 8
1, 364080, Time_signature, 2, 2, 24, 8
1, 365040, Time_signature, 3, 2, 24, 8
1, 366480, Time_signature, 2, 2, 24, 8
1, 367440, Time_signature, 3, 2, 24, 8
1, 370320, Time_signature, 3, 1, 48, 8
1, 373200, Time_signature, 3, 2, 24, 8
1, 376080, Time_signature, 2, 2, 24, 8
1, 377040, Time_signature, 3, 2, 24, 8
1, 378480, Time_signature, 3, 1, 48, 8
1, 384240, Time_signature, 3, 2, 24, 8
1, 385680, Time_signature, 4, 2, 24, 8
1, 385680, Tempo, 1077973
1, 385920, Tempo, 1214083
1, 386160, Tempo, 1323626
1, 387120, Tempo, 1396973
1, 387600, Tempo, 1141987
1, 388560, Tempo, 1190712
1, 389520, Tempo, 1250260
1, 390480, Tempo, 1316078
1, 391440, Tempo, 1374570
1, 392400, Tempo, 1250260
1, 401040, Tempo, 1202645
1, 409200, Tempo, 1269841
1, 414480, Tempo, 1219760
1, 416880, Tempo, 1185068
1, 418320, Time_signature, 3, 2, 24, 8
1, 419760, Tempo, 1152516
1, 422640, Time_signature, 2, 2, 24, 8
1, 424560, Time_signature, 3, 2, 24, 8
1, 424560, Tempo, 1219760
1, 426000, Time_signature, 2, 2, 24, 8
1, 426960, Time_signature, 4, 2, 24, 8
1, 428880, Time_signature, 2, 2, 24, 8
1, 428880, Tempo, 1157854
1, 429840, Time_signature, 4, 2, 24, 8
1, 431760, Time_signature, 2, 2, 24, 8
1, 432720, Time_signature, 5, 2, 24, 8
1, 432720, Tempo, 1136794
1, 435120, Time_signature, 6, 2, 24, 8
1, 443760, Time_signature, 3, 2, 24, 8
1, 445200, Time_signature, 2, 2, 24, 8
1, 447120, Tempo, 1106806
1, 451920, Tempo, 1153846
1, 457680, Time_signature, 4, 2, 24, 8
1, 459600, Time_signature, 3, 2, 24, 8
1, 459600, Tempo, 1179477
1, 463920, Tempo, 1136794
1, 465360, Time_signature, 4, 2, 24, 8
1, 467280, Time_signature, 3, 2, 24, 8
1, 467280, Tempo, 1250260
1, 468720, Time_signature, 4, 2, 24, 8
1, 470640, Tempo, 1196649
1, 476400, Time_signature, 3, 2, 24, 8
1, 477840, Time_signature, 4, 2, 24, 8
1, 477840, Tempo, 1174168
1, 480240, Tempo, 1152516
1, 481680, Time_signature, 3, 2, 24, 8
1, 481680, Tempo, 1116279
1, 487440, Time_signature, 2, 2, 24, 8
1, 488400, Time_signature, 3, 2, 24, 8
1, 489840, Time_signature, 2, 2, 24, 8
1, 490800, Time_signature, 3, 4, 6, 8
1, 490800, Tempo, 1202645
1, 490800, Marker_t, "Sacrifical Dance"
1, 491040, Tempo, 4636785
1, 491160, Time_signature, 2, 4, 6, 8
1, 491160, Tempo, 980552
1, 491400, Time_signature, 3, 4, 6, 8
1, 492120, Time_signature, 2, 3, 12, 8
1, 492600, Time_signature, 2, 4, 6, 8
1, 492840, Time_signature, 3, 4, 6, 8
1, 493560, Time_signature, 2, 3, 12, 8
1, 494040, Time_signature, 3, 4, 6, 8
1, 494760, Time_signature, 5, 4, 6, 8
1, 495360, Time_signature, 2, 3, 12, 8
1, 495360, Tempo, 919258
1, 495840, Time_signature, 3, 4, 6, 8
1, 496200, Time_signature, 2, 3, 12, 8
1, 496680, Time_signature, 5, 4, 6, 8
1, 497880, Time_signature, 2, 3, 12, 8
1, 498360, Time_signature, 3, 4, 6, 8
1, 498720, Time_signature, 2, 3, 12, 8
1, 499200, Time_signature, 3, 4, 6, 8
1, 499560, Time_signature, 2, 4, 6, 8
1, 499800, Time_signature, 3, 4, 6, 8
1, 500160, Time_signature, 2, 3, 12, 8
1, 500640, Time_signature, 3, 3, 12, 8
1, 501360, Time_signature, 3, 4, 6, 8
1, 501720, Time_signature, 2, 4, 6, 8
1, 501960, Time_signature, 3, 4, 6, 8
1, 502320, Time_signature, 2, 3, 12, 8
1, 502800, Time_signature, 2, 4, 6, 8
1, 503040, Time_signature, 3, 4, 6, 8
1, 503760, Time_signature, 2, 3, 12, 8
1, 504240, Time_signature, 3, 3, 12, 8
1, 504240, Tempo, 886917
1, 504960, Time_signature, 2, 3, 12, 8
1, 506880, Tempo, 919258
1, 507360, Time_signature, 3, 3, 12, 8
1, 507360, Tempo, 954350
1, 508080, Time_signature, 2, 3, 12, 8
1, 509520, Time_signature, 3, 3, 12, 8
1, 510240, Time_signature, 2, 3, 12, 8
1, 511680, Time_signature, 3, 3, 12, 8
1, 513120, Time_signature, 2, 3, 12, 8
1, 514080, Time_signature, 3, 3, 12, 8
1, 515520, Time_signature, 2, 3, 12, 8
1, 516480, Time_signature, 3, 3, 12, 8
1, 517200, Time_signature, 2, 3, 12, 8
1, 518640, Time_signature, 3, 3, 12, 8
1, 519360, Time_signature, 2, 3, 12, 8
1, 521280, Time_signature, 3, 3, 12, 8
1, 522000, Time_signature, 2, 3, 12, 8
1, 523440, Time_signature, 3, 3, 12, 8
1, 523440, Tempo, 919258
1, 524880, Time_signature, 2, 3, 12, 8
1, 526320, Tempo, 892990
1, 528720, Time_signature, 3, 3, 12, 8
1, 530160, Time_signature, 2, 3, 12, 8
1, 530640, Time_signature, 3, 3, 12, 8
1, 532080, Time_signature, 2, 3, 12, 8
1, 533040, Time_signature, 3, 3, 12, 8
1, 533760, Time_signature, 2, 3, 12, 8
1, 533760, Tempo, 933271
1, 535200, Time_signature, 3, 3, 12, 8
1, 535920, Tempo, 980552
1, 536640, Time_signature, 4, 3, 12, 8
1, 537600, Time_signature, 3, 3, 12, 8
1, 539040, Time_signature, 2, 3, 12, 8
1, 540000, Time_signature, 3, 3, 12, 8
1, 540720, Time_signature, 2, 3, 12, 8
1, 542160, Time_signature, 3, 3, 12, 8
1, 543600, Time_signature, 2, 3, 12, 8
1, 544560, Time_signature, 3, 3, 12, 8
1, 545760, Tempo, 940144
1, 546720, Time_signature, 2, 3, 12, 8
1, 549120, Time_signature, 3, 3, 12, 8
1, 550560, Time_signature, 2, 3, 12, 8
1, 550800, Tempo, 1077973
1, 550920, Tempo, 6116207
1, 551040, Time_signature, 3, 4, 6, 8
1, 551040, Tempo, 735384
1, 551280, Tempo, 5444646
1, 551400, Time_signature, 2, 4, 6, 8
1, 551400, Tempo, 926354
1, 551640, Time_signature, 3, 4, 6, 8
1, 552360, Time_signature, 2, 3, 12, 8
1, 552840, Time_signature, 2, 4, 6, 8
1, 553080, Time_signature, 3, 4, 6, 8
1, 553800, Time_signature, 2, 3, 12, 8
1, 554280, Time_signature, 3, 4, 6, 8
1, 555000, Time_signature, 5, 4, 6, 8
1, 555000, Tempo, 996181
1, 555600, Time_signature, 2, 3, 12, 8
1, 555600, Tempo, 896191
1, 556080, Time_signature, 3, 4, 6, 8
1, 556440, Time_signature, 2, 3, 12, 8
1, 556440, Tempo, 1059509
1, 556680, Tempo, 926354
1, 556920, Time_signature, 5, 4, 6, 8
1, 558120, Time_signature, 2, 3, 12, 8
1, 558600, Time_signature, 3, 4, 6, 8
1, 558960, Time_signature, 2, 3, 12, 8
1, 559440, Time_signature, 3, 4, 6, 8
1, 559800, Time_signature, 2, 4, 6, 8
1, 560040, Time_signature, 3, 4, 6, 8
1, 560400, Time_signature, 2, 3, 12, 8
1, 560880, Time_signature, 3, 3, 12, 8
1, 561600, Time_signature, 3, 4, 6, 8
1, 561600, Tempo, 926354
1, 561960, Time_signature, 2, 4, 6, 8
1, 562200, Time_signature, 3, 4, 6, 8
1, 562560, Time_signature, 2, 3, 12, 8
1, 562560, Tempo, 1073153
1, 562800, Tempo, 980552
1, 563040, Time_signature, 2, 4, 6, 8
1, 563280, Time_signature, 3, 4, 6, 8
1, 564000, Time_signature, 2, 3, 12, 8
1, 564480, Time_signature, 5, 2, 24, 8
1, 564480, Tempo, 457700
1, 566880, Time_signature, 3, 2, 24, 8
1, 568320, Time_signature, 5, 2, 24, 8
1, 570720, Time_signature, 3, 2, 24, 8
1, 572160, Time_signature, 5, 2, 24, 8
1, 574560, Time_signature, 4, 2, 24, 8
1, 576480, Time_signature, 5, 2, 24, 8
1, 578880, Tempo, 473223
1, 586080, Time_signature, 4, 2, 24, 8
1, 588000, Time_signature, 2, 2, 24, 8
1, 601440, Time_signature, 5, 4, 6, 8
1, 601440, Tempo, 1000000
1, 601560, Tempo, 907441
1, 601800, Tempo, 3050330
1, 601920, Tempo, 3523194
1, 602040, Time_signature, 2, 4, 6, 8
1, 602040, Tempo, 1082446
1, 602280, Time_signature, 3, 4, 6, 8
1, 602640, Tempo, 980552
1, 603000, Time_signature, 2, 3, 12, 8
1, 603480, Time_signature, 2, 4, 6, 8
1, 603720, Time_signature, 2, 3, 12, 8
1, 604200, Tempo, 2033209
1, 604440, Tempo, 519795
1, 604680, Time_signature, 2, 2, 24, 8
1, 618120, Time_signature, 3, 2, 24, 8
1, 619560, Time_signature, 2, 2, 24, 8
1, 619560, Tempo, 503018
1, 620520, Time_signature, 4, 2, 24, 8
1, 622440, Time_signature, 2, 2, 24, 8
1, 625320, Time_signature, 3, 2, 24, 8
1, 626760, Time_signature, 2, 2, 24, 8
1, 627720, Time_signature, 5, 4, 6, 8
1, 627720, Tempo, 984413
1, 628320, Time_signature, 2, 3, 12, 8
1, 628800, Time_signature, 1, 3, 12, 8
1, 629040, Time_signature, 2, 3, 12, 8
1, 629520, Time_signature, 5, 4, 6, 8
1, 630120, Time_signature, 2, 3, 12, 8
1, 630600, Time_signature, 5, 4, 6, 8
1, 631200, Time_signature, 2, 3, 12, 8
1, 631680, Time_signature, 1, 3, 12, 8
1, 631920, Time_signature, 2, 3, 12, 8
1, 632400, Time_signature, 5, 4, 6, 8
1, 633600, Time_signature, 2, 3, 12, 8
1, 634080, Time_signature, 5, 4, 6, 8
1, 634080, Tempo, 1016088
1, 636480, Time_signature, 2, 3, 12, 8
1, 636480, Tempo, 972920
1, 636960, Time_signature, 5, 4, 6, 8
1, 637560, Time_signature, 2, 3, 12, 8
1, 638040, Time_signature, 5, 4, 6, 8
1, 638640, Time_signature, 2, 3, 12, 8
1, 639120, Time_signature, 1, 3, 12, 8
1, 639360, Time_signature, 2, 3, 12, 8
1, 639840, Time_signature, 2, 4, 6, 8
1, 640080, Time_signature, 3, 4, 6, 8
1, 640440, Time_signature, 2, 4, 6, 8
1, 640680, Time_signature, 3, 4, 6, 8
1, 641760, Time_signature, 2, 4, 6, 8
1, 642000, Time_signature, 3, 4, 6, 8
1, 642360, Time_signature, 2, 4, 6, 8
1, 642600, Time_signature, 3, 4, 6, 8
1, 643680, Time_signature, 2, 4, 6, 8
1, 643920, Time_signature, 3, 4, 6, 8
1, 645000, Time_signature, 2, 4, 6, 8
1, 645480, Time_signature, 3, 4, 6, 8
1, 646560, Time_signature, 2, 4, 6, 8
1, 646800, Time_signature, 3, 4, 6, 8
1, 648240, Time_signature, 2, 3, 12, 8
1, 648720, Time_signature, 3, 4, 6, 8
1, 649440, Time_signature, 2, 4, 6, 8
1, 649920, Time_signature, 3, 4, 6, 8
1, 651000, Time_signature, 2, 4, 6, 8
1, 651240, Time_signature, 3, 4, 6, 8
1, 652680, Time_signature, 2, 4, 6, 8
1, 652920, Time_signature, 3, 4, 6, 8
1, 654360, Time_signature, 2, 4, 6, 8
1, 654600, Time_signature, 5, 4, 6, 8
1, 655200, Time_signature, 3, 2, 24, 8
1, 655200, Tempo, 1121076
1, 655200, End_track
2, 0, Start_track
2, 0, Title_t, "Ottavini"
2, 0, MIDI_port, 0
2, 0, Program_c, 0, 73
2, 0, Control_c, 0, 7, 75
2, 0, Control_c, 0, 10, 34
2, 0, Control_c, 0, 91, 64
2, 10560, Control_c, 0, 11, 127
2, 10567, Note_on_c, 0, 93, 80
2, 10636, Control_c, 0, 11, 126
2, 10712, Control_c, 0, 11, 125
2, 10788, Control_c, 0, 11, 124
2, 10864, Control_c, 0, 11, 123
2, 10941, Control_c, 0, 11, 122
2, 11017, Control_c, 0, 11, 121
2, 11093, Control_c, 0, 11, 120
2, 11169, Control_c, 0, 11, 119
2, 11245, Control_c, 0, 11, 118
2, 11321, Control_c, 0, 11, 117
2, 11398, Control_c, 0, 11, 116
2, 11474, Control_c, 0, 11, 115
2, 11550, Control_c, 0, 11, 114
2, 11626, Control_c, 0, 11, 113
2, 11702, Control_c, 0, 11, 112
2, 11779, Control_c, 0, 11, 111
2, 11855, Control_c, 0, 11, 110
2, 11931, Control_c, 0, 11, 109
2, 12007, Control_c, 0, 11, 108
2, 12083, Control_c, 0, 11, 107
2, 12159, Control_c, 0, 11, 106
2, 12236, Control_c, 0, 11, 105
2, 12312, Control_c, 0, 11, 104
2, 12388, Control_c, 0, 11, 103
2, 12464, Control_c, 0, 11, 102
2, 12540, Control_c, 0, 11, 101
2, 12617, Control_c, 0, 11, 100
2, 12693, Control_c, 0, 11, 99
2, 12769, Control_c, 0, 11, 98
2, 12845, Control_c, 0, 11, 97
2, 12922, Control_c, 0, 11, 96
2, 12997, Control_c, 0, 11, 95
2, 13074, Control_c, 0, 11, 94
2, 13150, Control_c, 0, 11, 93
2, 13207, Note_on_c, 0, 93, 0
2, 13224, Note_on_c, 0, 91, 78
2, 13226, Control_c, 0, 11, 92
2, 13302, Control_c, 0, 11, 91
2, 13379, Control_c, 0, 11, 90
2, 13455, Control_c, 0, 11, 89
2, 13464, Note_on_c, 0, 91, 0
2, 13531, Control_c, 0, 11, 88
2, 13607, Control_c, 0, 11, 87
2, 13683, Control_c, 0, 11, 86
2, 13760, Control_c, 0, 11, 85
2, 13836, Control_c, 0, 11, 84
2, 13912, Control_c, 0, 11, 83
2, 13988, Control_c, 0, 11, 82
2, 14064, Control_c, 0, 11, 81
2, 14140, Control_c, 0, 11, 80
2, 14217, Control_c, 0, 11, 79
2, 14293, Control_c, 0, 11, 78
2, 14369, Control_c, 0, 11, 77
2, 14445, Control_c, 0, 11, 76
2, 14521, Control_c, 0, 11, 75
2, 14598, Control_c, 0, 11, 74
2, 14674, Control_c, 0, 11, 73
2, 14750, Control_c, 0, 11, 72
2, 14826, Control_c, 0, 11, 71
2, 14902, Control_c, 0, 11, 70
2, 14978, Control_c, 0, 11, 69
2, 15055, Control_c, 0, 11, 68
2, 15131, Control_c, 0, 11, 67
2, 15207, Control_c, 0, 11, 66
2, 15283, Control_c, 0, 11, 65
2, 15360, Control_c, 0, 11, 127
2, 15360, Note_on_c, 0, 93, 73
2, 15378, Control_c, 0, 11, 126
2, 15396, Control_c, 0, 11, 125
2, 15414, Control_c, 0, 11, 124
2, 15433, Control_c, 0, 11, 123
2, 15450, Control_c, 0, 11, 122
2, 15469, Control_c, 0, 11, 121
2, 15487, Control_c, 0, 11, 120
2, 15505, Control_c, 0, 11, 119
2, 15524, Control_c, 0, 11, 118
2, 15542, Control_c, 0, 11, 117
2, 15560, Control_c, 0, 11, 116
2, 15578, Control_c, 0, 11, 115
2, 15597, Control_c, 0, 11, 114
2, 15615, Control_c, 0, 11, 113
2, 15633, Control_c, 0, 11, 112
2, 15651, Control_c, 0, 11, 111
2, 15669, Control_c, 0, 11, 110
2, 15688, Control_c, 0, 11, 109
2, 15706, Control_c, 0, 11, 108
2, 15724, Control_c, 0, 11, 107
2, 15742, Control_c, 0, 11, 106
2, 15760, Control_c, 0, 11, 105
2, 15779, Control_c, 0, 11, 104
2, 15797, Control_c, 0, 11, 103
2, 15815, Control_c, 0, 11, 102
2, 15833, Control_c, 0, 11, 101
2, 15852, Control_c, 0, 11, 100
2, 15870, Control_c, 0, 11, 99
2, 15888, Control_c, 0, 11, 98
2, 15907, Control_c, 0, 11, 97
2, 15924, Control_c, 0, 11, 96
2, 15943, Control_c, 0, 11, 95
2, 15961, Control_c, 0, 11, 94
2, 15979, Control_c, 0, 11, 93
2, 15997, Control_c, 0, 11, 92
2, 16016, Control_c, 0, 11, 91
2, 16034, Control_c, 0, 11, 90
2, 16052, Control_c, 0, 11, 89
2, 16071, Control_c, 0, 11, 88
2, 16088, Control_c, 0, 11, 87
2, 16107, Control_c, 0, 11, 86
2, 16125, Control_c, 0, 11, 85
2, 16143, Control_c, 0, 11, 84
2, 16162, Control_c, 0, 11, 83
2, 16180, Control_c, 0, 11, 82
2, 16198, Control_c, 0, 11, 81
2, 16216, Control_c, 0, 11, 80
2, 16235, Control_c, 0, 11, 79
2, 16252, Control_c, 0, 11, 78
2, 16271, Control_c, 0, 11, 77
2, 16289, Control_c, 0, 11, 76
2, 16307, Control_c, 0, 11, 75
2, 16326, Control_c, 0, 11, 74
2, 16344, Control_c, 0, 11, 73
2, 16362, Control_c, 0, 11, 72
2, 16380, Control_c, 0, 11, 71
2, 16399, Control_c, 0, 11, 70
2, 16417, Control_c, 0, 11, 69
2, 16435, Control_c, 0, 11, 68
2, 16453, Control_c, 0, 11, 67
2, 16471, Control_c, 0, 11, 66
2, 16490, Control_c, 0, 11, 65
2, 16508, Control_c, 0, 11, 64
2, 16526, Control_c, 0, 11, 63
2, 16545, Control_c, 0, 11, 62
2, 16562, Control_c, 0, 11, 61
2, 16581, Control_c, 0, 11, 60
2, 16599, Control_c, 0, 11, 59
2, 16617, Control_c, 0, 11, 58
2, 16635, Control_c, 0, 11, 57
2, 16654, Control_c, 0, 11, 56
2, 16672, Control_c, 0, 11, 55
2, 16690, Control_c, 0, 11, 54
2, 16709, Control_c, 0, 11, 53
2, 16726, Control_c, 0, 11, 52
2, 16745, Control_c, 0, 11, 51
2, 16763, Control_c, 0, 11, 50
2, 16781, Control_c, 0, 11, 49
2, 17040, Note_on_c, 0, 93, 0
2, 19680, Control_c, 0, 11, 127
2, 19695, Note_on_c, 0, 93, 69
2, 19772, Control_c, 0, 11, 126
2, 19865, Control_c, 0, 11, 125
2, 19958, Control_c, 0, 11, 124
2, 20051, Control_c, 0, 11, 123
2, 20144, Control_c, 0, 11, 122
2, 20237, Control_c, 0, 11, 121
2, 20330, Control_c, 0, 11, 120
2, 20423, Control_c, 0, 11, 119
2, 20516, Control_c, 0, 11, 118
2, 20609, Control_c, 0, 11, 117
2, 20701, Control_c, 0, 11, 116
2, 20794, Control_c, 0, 11, 115
2, 20887, Control_c, 0, 11, 114
2, 20980, Control_c, 0, 11, 113
2, 21073, Control_c, 0, 11, 112
2, 21166, Control_c, 0, 11, 111
2, 21259, Control_c, 0, 11, 110
2, 21352, Control_c, 0, 11, 109
2, 21445, Control_c, 0, 11, 108
2, 21538, Control_c, 0, 11, 107
2, 21630, Control_c, 0, 11, 106
2, 21723, Control_c, 0, 11, 105
2, 21816, Control_c, 0, 11, 104
2, 21909, Control_c, 0, 11, 103
2, 22002, Control_c, 0, 11, 102
2, 22095, Control_c, 0, 11, 101
2, 22188, Control_c, 0, 11, 100
2, 22215, Note_on_c, 0, 93, 0
2, 22281, Control_c, 0, 11, 99
2, 22374, Control_c, 0, 11, 98
2, 22467, Control_c, 0, 11, 97
2, 24017, Note_on_c, 0, 87, 51
2, 24257, Note_on_c, 0, 87, 0
2, 24260, Note_on_c, 0, 84, 53
2, 24492, Note_on_c, 0, 87, 55
2, 24500, Note_on_c, 0, 84, 0
2, 24732, Note_on_c, 0, 87, 0
2, 24746, Note_on_c, 0, 82, 43
2, 24979, Note_on_c, 0, 87, 44
2, 24986, Note_on_c, 0, 82, 0
2, 25219, Note_on_c, 0, 87, 0
2, 25227, Note_on_c, 0, 81, 43
2, 25419, Note_on_c, 0, 81, 0
2, 25461, Note_on_c, 0, 91, 55
2, 25701, Note_on_c, 0, 91, 0
2, 25702, Note_on_c, 0, 89, 43
2, 25942, Note_on_c, 0, 89, 0
2, 25946, Note_on_c, 0, 88, 48
2, 26180, Note_on_c, 0, 86, 40
2, 26186, Note_on_c, 0, 88, 0
2, 26412, Note_on_c, 0, 85, 56
2, 26420, Note_on_c, 0, 86, 0
2, 26652, Note_on_c, 0, 85, 0
2, 26875, Control_c, 0, 11, 127
2, 209773, Note_on_c, 0, 96, 38
2, 209804, Note_on_c, 0, 96, 0
2, 209850, Note_on_c, 0, 97, 48
2, 209882, Note_on_c, 0, 97, 0
2, 209947, Note_on_c, 0, 98, 59
2, 209979, Note_on_c, 0, 98, 0
2, 210010, Note_on_c, 0, 99, 70
2, 210041, Note_on_c, 0, 99, 0
2, 210095, Note_on_c, 0, 100, 81
2, 210127, Note_on_c, 0, 100, 0
2, 210176, Note_on_c, 0, 101, 76
2, 210208, Note_on_c, 0, 101, 0
2, 210248, Note_on_c, 0, 102, 84
2, 210295, Note_on_c, 0, 102, 0
2, 215942, Note_on_c, 0, 96, 83
2, 216002, Note_on_c, 0, 96, 0
2, 216009, Note_on_c, 0, 97, 84
2, 216069, Note_on_c, 0, 97, 0
2, 216078, Note_on_c, 0, 99, 95
2, 216124, Note_on_c, 0, 100, 85
2, 216138, Note_on_c, 0, 99, 0
2, 216184, Note_on_c, 0, 100, 0
2, 216205, Note_on_c, 0, 102, 96
2, 216264, Note_on_c, 0, 103, 96
2, 216265, Note_on_c, 0, 102, 0
2, 216360, Note_on_c, 0, 103, 0
2, 217144, Note_on_c, 0, 96, 91
2, 217204, Note_on_c, 0, 96, 0
2, 217224, Note_on_c, 0, 97, 85
2, 217262, Note_on_c, 0, 99, 80
2, 217284, Note_on_c, 0, 97, 0
2, 217322, Note_on_c, 0, 99, 0
2, 217341, Note_on_c, 0, 100, 95
2, 217383, Note_on_c, 0, 102, 97
2, 217401, Note_on_c, 0, 100, 0
2, 217443, Note_on_c, 0, 102, 0
2, 217445, Note_on_c, 0, 103, 95
2, 217541, Note_on_c, 0, 103, 0
2, 220521, Note_on_c, 0, 96, 87
2, 220579, Note_on_c, 0, 97, 90
2, 220581, Note_on_c, 0, 96, 0
2, 220636, Note_on_c, 0, 99, 94
2, 220639, Note_on_c, 0, 97, 0
2, 220696, Note_on_c, 0, 99, 0
2, 220699, Note_on_c, 0, 100, 90
2, 220750, Note_on_c, 0, 102, 96
2, 220759, Note_on_c, 0, 100, 0
2, 220810, Note_on_c, 0, 102, 0
2, 220815, Note_on_c, 0, 103, 85
2, 220911, Note_on_c, 0, 103, 0
2, 222197, Note_on_c, 0, 96, 81
2, 222257, Note_on_c, 0, 96, 0
2, 222268, Note_on_c, 0, 97, 90
2, 222313, Note_on_c, 0, 99, 92
2, 222328, Note_on_c, 0, 97, 0
2, 222372, Note_on_c, 0, 100, 80
2, 222373, Note_on_c, 0, 99, 0
2, 222421, Note_on_c, 0, 102, 93
2, 222432, Note_on_c, 0, 100, 0
2, 222481, Note_on_c, 0, 102, 0
2, 222497, Note_on_c, 0, 103, 89
2, 222593, Note_on_c, 0, 103, 0
2, 223385, Note_on_c, 0, 96, 91
2, 223445, Note_on_c, 0, 96, 0
2, 223455, Note_on_c, 0, 97, 85
2, 223512, Note_on_c, 0, 99, 85
2, 223515, Note_on_c, 0, 97, 0
2, 223572, Note_on_c, 0, 99, 0
2, 223586, Note_on_c, 0, 100, 96
2, 223626, Note_on_c, 0, 102, 88
2, 223646, Note_on_c, 0, 100, 0
2, 223686, Note_on_c, 0, 102, 0
2, 223701, Note_on_c, 0, 103, 98
2, 223797, Note_on_c, 0, 103, 0
2, 224164, Note_on_c, 0, 102, 99
2, 224284, Note_on_c, 0, 102, 0
2, 224299, Note_on_c, 0, 100, 95
2, 224408, Note_on_c, 0, 99, 94
2, 224419, Note_on_c, 0, 100, 0
2, 224504, Note_on_c, 0, 99, 0
2, 224654, Note_on_c, 0, 96, 86
2, 224685, Note_on_c, 0, 96, 0
2, 224749, Note_on_c, 0, 97, 93
2, 224781, Note_on_c, 0, 97, 0
2, 224825, Note_on_c, 0, 98, 98
2, 224857, Note_on_c, 0, 98, 0
2, 224893, Note_on_c, 0, 99, 117
2, 224924, Note_on_c, 0, 99, 0
2, 224969, Note_on_c, 0, 100, 107
2, 225001, Note_on_c, 0, 100, 0
2, 225065, Note_on_c, 0, 101, 127
2, 225097, Note_on_c, 0, 101, 0
2, 225251, Note_on_c, 0, 105, 107
2, 225298, Note_on_c, 0, 105, 0
2, 225365, Note_on_c, 0, 104, 108
2, 225485, Note_on_c, 0, 104, 0
2, 225494, Note_on_c, 0, 103, 122
2, 225590, Note_on_c, 0, 103, 0
2, 230054, Note_on_c, 0, 105, 120
2, 230101, Note_on_c, 0, 105, 0
2, 230183, Note_on_c, 0, 104, 108
2, 230288, Note_on_c, 0, 103, 110
2, 230303, Note_on_c, 0, 104, 0
2, 230384, Note_on_c, 0, 103, 0
2, 233243, Note_on_c, 0, 96, 116
2, 233303, Note_on_c, 0, 96, 0
2, 233304, Note_on_c, 0, 97, 113
2, 233357, Note_on_c, 0, 99, 112
2, 233364, Note_on_c, 0, 97, 0
2, 233417, Note_on_c, 0, 99, 0
2, 233420, Note_on_c, 0, 100, 113
2, 233469, Note_on_c, 0, 102, 104
2, 233480, Note_on_c, 0, 100, 0
2, 233523, Note_on_c, 0, 103, 108
2, 233529, Note_on_c, 0, 102, 0
2, 233619, Note_on_c, 0, 103, 0
2, 234002, Note_on_c, 0, 102, 104
2, 234122, Note_on_c, 0, 102, 0
2, 234138, Note_on_c, 0, 100, 95
2, 234258, Note_on_c, 0, 100, 0
2, 234263, Note_on_c, 0, 99, 100
2, 234359, Note_on_c, 0, 99, 0
2, 234499, Note_on_c, 0, 96, 90
2, 234530, Note_on_c, 0, 96, 0
2, 234573, Note_on_c, 0, 97, 93
2, 234605, Note_on_c, 0, 97, 0
2, 234661, Note_on_c, 0, 98, 101
2, 234693, Note_on_c, 0, 98, 0
2, 234739, Note_on_c, 0, 99, 97
2, 234770, Note_on_c, 0, 99, 0
2, 234827, Note_on_c, 0, 100, 104
2, 234859, Note_on_c, 0, 100, 0
2, 234886, Note_on_c, 0, 101, 127
2, 234918, Note_on_c, 0, 101, 0
2, 235095, Note_on_c, 0, 105, 119
2, 235142, Note_on_c, 0, 105, 0
2, 235202, Note_on_c, 0, 104, 116
2, 235322, Note_on_c, 0, 104, 0
2, 235330, Note_on_c, 0, 103, 115
2, 235426, Note_on_c, 0, 103, 0
2, 239725, Note_on_c, 0, 96, 106
2, 239762, Note_on_c, 0, 97, 111
2, 239785, Note_on_c, 0, 96, 0
2, 239822, Note_on_c, 0, 97, 0
2, 239843, Note_on_c, 0, 99, 121
2, 239887, Note_on_c, 0, 100, 106
2, 239903, Note_on_c, 0, 99, 0
2, 239947, Note_on_c, 0, 100, 0
2, 239951, Note_on_c, 0, 102, 106
2, 240005, Note_on_c, 0, 103, 119
2, 240011, Note_on_c, 0, 102, 0
2, 240101, Note_on_c, 0, 103, 0
2, 243081, Note_on_c, 0, 96, 117
2, 243141, Note_on_c, 0, 96, 0
2, 243147, Note_on_c, 0, 97, 114
2, 243207, Note_on_c, 0, 97, 0
2, 243207, Note_on_c, 0, 99, 108
2, 243263, Note_on_c, 0, 100, 111
2, 243267, Note_on_c, 0, 99, 0
2, 243309, Note_on_c, 0, 102, 107
2, 243323, Note_on_c, 0, 100, 0
2, 243369, Note_on_c, 0, 102, 0
2, 243382, Note_on_c, 0, 103, 106
2, 243478, Note_on_c, 0, 103, 0
2, 244281, Note_on_c, 0, 96, 124
2, 244340, Note_on_c, 0, 97, 115
2, 244341, Note_on_c, 0, 96, 0
2, 244381, Note_on_c, 0, 99, 107
2, 244400, Note_on_c, 0, 97, 0
2, 244441, Note_on_c, 0, 99, 0
2, 244441, Note_on_c, 0, 100, 119
2, 244501, Note_on_c, 0, 100, 0
2, 244518, Note_on_c, 0, 102, 124
2, 244578, Note_on_c, 0, 102, 0
2, 244588, Note_on_c, 0, 103, 110
2, 244684, Note_on_c, 0, 103, 0
2, 245965, Note_on_c, 0, 96, 119
2, 246002, Note_on_c, 0, 97, 112
2, 246025, Note_on_c, 0, 96, 0
2, 246062, Note_on_c, 0, 97, 0
2, 246064, Note_on_c, 0, 99, 108
2, 246124, Note_on_c, 0, 99, 0
2, 246140, Note_on_c, 0, 100, 111
2, 246196, Note_on_c, 0, 102, 105
2, 246200, Note_on_c, 0, 100, 0
2, 246240, Note_on_c, 0, 103, 120
2, 246256, Note_on_c, 0, 102, 0
2, 246336, Note_on_c, 0, 103, 0
2, 247148, Note_on_c, 0, 96, 115
2, 247206, Note_on_c, 0, 97, 113
2, 247208, Note_on_c, 0, 96, 0
2, 247266, Note_on_c, 0, 97, 0
2, 247285, Note_on_c, 0, 99, 108
2, 247323, Note_on_c, 0, 100, 123
2, 247345, Note_on_c, 0, 99, 0
2, 247383, Note_on_c, 0, 100, 0
2, 247399, Note_on_c, 0, 102, 113
2, 247459, Note_on_c, 0, 102, 0
2, 247467, Note_on_c, 0, 103, 121
2, 247563, Note_on_c, 0, 103, 0
2, 248666, Note_on_c, 0, 101, 122
2, 248762, Note_on_c, 0, 101, 0
2, 248802, Note_on_c, 0, 96, 109
2, 248898, Note_on_c, 0, 96, 0
2, 248980, Note_on_c, 0, 89, 107
2, 249076, Note_on_c, 0, 89, 0
2, 250818, Note_on_c, 0, 101, 111
2, 250914, Note_on_c, 0, 101, 0
2, 250966, Note_on_c, 0, 96, 119
2, 251062, Note_on_c, 0, 96, 0
2, 251121, Note_on_c, 0, 89, 105
2, 251217, Note_on_c, 0, 89, 0
2, 253462, Note_on_c, 0, 101, 109
2, 253558, Note_on_c, 0, 101, 0
2, 253605, Note_on_c, 0, 96, 104
2, 253701, Note_on_c, 0, 96, 0
2, 253777, Note_on_c, 0, 89, 107
2, 253873, Note_on_c, 0, 89, 0
2, 255847, Note_on_c, 0, 94, 105
2, 255965, Note_on_c, 0, 92, 108
2, 255967, Note_on_c, 0, 94, 0
2, 256085, Note_on_c, 0, 92, 0
2, 256334, Note_on_c, 0, 90, 111
2, 256454, Note_on_c, 0, 90, 0
2, 256462, Note_on_c, 0, 92, 122
2, 256582, Note_on_c, 0, 92, 0
2, 261620, Note_on_c, 0, 90, 116
2, 261735, Note_on_c, 0, 92, 118
2, 261740, Note_on_c, 0, 90, 0
2, 261855, Note_on_c, 0, 92, 0
2, 262571, Note_on_c, 0, 94, 123
2, 262691, Note_on_c, 0, 94, 0
2, 262692, Note_on_c, 0, 92, 123
2, 262812, Note_on_c, 0, 92, 0
2, 263063, Note_on_c, 0, 90, 123
2, 263166, Note_on_c, 0, 92, 117
2, 263183, Note_on_c, 0, 90, 0
2, 263286, Note_on_c, 0, 92, 0
2, 263544, Note_on_c, 0, 94, 109
2, 263624, Note_on_c, 0, 94, 0
2, 263707, Note_on_c, 0, 96, 119
2, 263787, Note_on_c, 0, 96, 0
2, 263868, Note_on_c, 0, 94, 118
2, 263948, Note_on_c, 0, 94, 0
2, 264005, Note_on_c, 0, 92, 105
2, 264085, Note_on_c, 0, 92, 0
2, 264172, Note_on_c, 0, 90, 118
2, 264252, Note_on_c, 0, 90, 0
2, 264321, Note_on_c, 0, 92, 123
2, 264401, Note_on_c, 0, 92, 0
2, 277705, Note_on_c, 0, 87, 70
2, 277825, Note_on_c, 0, 87, 0
2, 278177, Note_on_c, 0, 87, 82
2, 278297, Note_on_c, 0, 87, 0
2, 278651, Note_on_c, 0, 87, 66
2, 278771, Note_on_c, 0, 87, 0
2, 279120, Note_on_c, 0, 87, 81
2, 279240, Note_on_c, 0, 87, 0
2, 279620, Note_on_c, 0, 87, 68
2, 279740, Note_on_c, 0, 87, 0
2, 279858, Note_on_c, 0, 87, 94
2, 279927, Note_on_c, 0, 89, 110
2, 279948, Note_on_c, 0, 87, 0
2, 279975, Note_on_c, 0, 87, 93
2, 280017, Note_on_c, 0, 89, 0
2, 280039, Note_on_c, 0, 89, 101
2, 280065, Note_on_c, 0, 87, 0
2, 280109, Note_on_c, 0, 87, 96
2, 280129, Note_on_c, 0, 89, 0
2, 280165, Note_on_c, 0, 89, 111
2, 280183, Note_on_c, 0, 87, 0
2, 280202, Note_on_c, 0, 87, 102
2, 280249, Note_on_c, 0, 89, 0
2, 280268, Note_on_c, 0, 89, 94
2, 280292, Note_on_c, 0, 87, 0
2, 280342, Note_on_c, 0, 87, 105
2, 280358, Note_on_c, 0, 89, 0
2, 280386, Note_on_c, 0, 89, 96
2, 280432, Note_on_c, 0, 87, 0
2, 280462, Note_on_c, 0, 87, 106
2, 280476, Note_on_c, 0, 89, 0
2, 280523, Note_on_c, 0, 89, 109
2, 280541, Note_on_c, 0, 87, 0
2, 280561, Note_on_c, 0, 87, 97
2, 280613, Note_on_c, 0, 89, 0
2, 280641, Note_on_c, 0, 89, 107
2, 280651, Note_on_c, 0, 87, 0
2, 280695, Note_on_c, 0, 87, 93
2, 280731, Note_on_c, 0, 89, 0
2, 280750, Note_on_c, 0, 89, 103
2, 280785, Note_on_c, 0, 87, 0
2, 280808, Note_on_c, 0, 87, 106
2, 280810, Note_on_c, 0, 89, 0
2, 280928, Note_on_c, 0, 87, 0
2, 281546, Note_on_c, 0, 87, 68
2, 281666, Note_on_c, 0, 87, 0
2, 282028, Note_on_c, 0, 87, 68
2, 282148, Note_on_c, 0, 87, 0
2, 282501, Note_on_c, 0, 87, 78
2, 282621, Note_on_c, 0, 87, 0
2, 282976, Note_on_c, 0, 87, 82
2, 283096, Note_on_c, 0, 87, 0
2, 283446, Note_on_c, 0, 87, 74
2, 283566, Note_on_c, 0, 87, 0
2, 283923, Note_on_c, 0, 87, 67
2, 284043, Note_on_c, 0, 87, 0
2, 284171, Note_on_c, 0, 87, 91
2, 284232, Note_on_c, 0, 89, 101
2, 284261, Note_on_c, 0, 87, 0
2, 284296, Note_on_c, 0, 87, 100
2, 284322, Note_on_c, 0, 89, 0
2, 284347, Note_on_c, 0, 89, 101
2, 284386, Note_on_c, 0, 87, 0
2, 284406, Note_on_c, 0, 87, 101
2, 284437, Note_on_c, 0, 89, 0
2, 284467, Note_on_c, 0, 89, 107
2, 284496, Note_on_c, 0, 87, 0
2, 284538, Note_on_c, 0, 87, 92
2, 284557, Note_on_c, 0, 89, 0
2, 284598, Note_on_c, 0, 89, 104
2, 284624, Note_on_c, 0, 87, 0
2, 284644, Note_on_c, 0, 87, 102
2, 284685, Note_on_c, 0, 89, 0
2, 284705, Note_on_c, 0, 89, 96
2, 284734, Note_on_c, 0, 87, 0
2, 284776, Note_on_c, 0, 87, 109
2, 284795, Note_on_c, 0, 89, 0
2, 284826, Note_on_c, 0, 89, 109
2, 284866, Note_on_c, 0, 87, 0
2, 284904, Note_on_c, 0, 87, 107
2, 284916, Note_on_c, 0, 89, 0
2, 284961, Note_on_c, 0, 89, 94
2, 284991, Note_on_c, 0, 87, 0
2, 285010, Note_on_c, 0, 87, 98
2, 285051, Note_on_c, 0, 89, 0
2, 285081, Note_on_c, 0, 89, 94
2, 285100, Note_on_c, 0, 87, 0
2, 285141, Note_on_c, 0, 89, 0
2, 285381, Note_on_c, 0, 87, 69
2, 285501, Note_on_c, 0, 87, 0
2, 285858, Note_on_c, 0, 87, 69
2, 285978, Note_on_c, 0, 87, 0
2, 286330, Note_on_c, 0, 87, 74
2, 286450, Note_on_c, 0, 87, 0
2, 286569, Note_on_c, 0, 87, 100
2, 286622, Note_on_c, 0, 89, 101
2, 286659, Note_on_c, 0, 87, 0
2, 286708, Note_on_c, 0, 87, 101
2, 286712, Note_on_c, 0, 89, 0
2, 286762, Note_on_c, 0, 89, 111
2, 286781, Note_on_c, 0, 87, 0
2, 286800, Note_on_c, 0, 87, 104
2, 286844, Note_on_c, 0, 89, 0
2, 286863, Note_on_c, 0, 89, 108
2, 286890, Note_on_c, 0, 87, 0
2, 286940, Note_on_c, 0, 87, 105
2, 286953, Note_on_c, 0, 89, 0
2, 286982, Note_on_c, 0, 89, 96
2, 287030, Note_on_c, 0, 87, 0
2, 287057, Note_on_c, 0, 87, 109
2, 287072, Note_on_c, 0, 89, 0
2, 287115, Note_on_c, 0, 89, 98
2, 287147, Note_on_c, 0, 87, 0
2, 287186, Note_on_c, 0, 87, 91
2, 287205, Note_on_c, 0, 89, 0
2, 287237, Note_on_c, 0, 89, 111
2, 287267, Note_on_c, 0, 87, 0
2, 287286, Note_on_c, 0, 87, 103
2, 287323, Note_on_c, 0, 89, 0
2, 287342, Note_on_c, 0, 89, 97
2, 287376, Note_on_c, 0, 87, 0
2, 287419, Note_on_c, 0, 87, 108
2, 287432, Note_on_c, 0, 89, 0
2, 287475, Note_on_c, 0, 89, 107
2, 287509, Note_on_c, 0, 87, 0
2, 287547, Note_on_c, 0, 87, 92
2, 287565, Note_on_c, 0, 89, 0
2, 287593, Note_on_c, 0, 89, 91
2, 287637, Note_on_c, 0, 87, 0
2, 287667, Note_on_c, 0, 87, 92
2, 287683, Note_on_c, 0, 89, 0
2, 287722, Note_on_c, 0, 89, 96
2, 287747, Note_on_c, 0, 87, 0
2, 287767, Note_on_c, 0, 87, 98
2, 287812, Note_on_c, 0, 89, 0
2, 287849, Note_on_c, 0, 89, 108
2, 287857, Note_on_c, 0, 87, 0
2, 287906, Note_on_c, 0, 87, 101
2, 287927, Note_on_c, 0, 89, 0
2, 287946, Note_on_c, 0, 89, 101
2, 287996, Note_on_c, 0, 87, 0
2, 288006, Note_on_c, 0, 89, 0
2, 288024, Note_on_c, 0, 87, 110
2, 288144, Note_on_c, 0, 87, 0
2, 288254, Note_on_c, 0, 94, 96
2, 288374, Note_on_c, 0, 94, 0
2, 288484, Note_on_c, 0, 99, 95
2, 288604, Note_on_c, 0, 99, 0
2, 288739, Note_on_c, 0, 96, 103
2, 288859, Note_on_c, 0, 96, 0
2, 288986, Note_on_c, 0, 92, 109
2, 289106, Note_on_c, 0, 92, 0
2, 289218, Note_on_c, 0, 94, 107
2, 289458, Note_on_c, 0, 94, 0
2, 290593, Note_on_c, 0, 96, 102
2, 290645, Note_on_c, 0, 97, 101
2, 290653, Note_on_c, 0, 96, 0
2, 290705, Note_on_c, 0, 97, 0
2, 290707, Note_on_c, 0, 99, 100
2, 290762, Note_on_c, 0, 100, 105
2, 290767, Note_on_c, 0, 99, 0
2, 290822, Note_on_c, 0, 100, 0
2, 290845, Note_on_c, 0, 102, 100
2, 290899, Note_on_c, 0, 103, 88
2, 290905, Note_on_c, 0, 102, 0
2, 290995, Note_on_c, 0, 103, 0
2, 291786, Note_on_c, 0, 96, 78
2, 291846, Note_on_c, 0, 96, 0
2, 291867, Note_on_c, 0, 97, 82
2, 291922, Note_on_c, 0, 99, 90
2, 291927, Note_on_c, 0, 97, 0
2, 291973, Note_on_c, 0, 100, 92
2, 291982, Note_on_c, 0, 99, 0
2, 292020, Note_on_c, 0, 102, 90
2, 292033, Note_on_c, 0, 100, 0
2, 292080, Note_on_c, 0, 102, 0
2, 292093, Note_on_c, 0, 103, 83
2, 292189, Note_on_c, 0, 103, 0
2, 295159, Note_on_c, 0, 96, 94
2, 295206, Note_on_c, 0, 97, 91
2, 295219, Note_on_c, 0, 96, 0
2, 295266, Note_on_c, 0, 97, 0
2, 295274, Note_on_c, 0, 99, 98
2, 295334, Note_on_c, 0, 99, 0
2, 295334, Note_on_c, 0, 100, 94
2, 295394, Note_on_c, 0, 100, 0
2, 295400, Note_on_c, 0, 102, 96
2, 295455, Note_on_c, 0, 103, 92
2, 295460, Note_on_c, 0, 102, 0
2, 295551, Note_on_c, 0, 103, 0
2, 296829, Note_on_c, 0, 96, 85
2, 296889, Note_on_c, 0, 96, 0
2, 296890, Note_on_c, 0, 97, 88
2, 296950, Note_on_c, 0, 97, 0
2, 296963, Note_on_c, 0, 99, 84
2, 297013, Note_on_c, 0, 100, 93
2, 297023, Note_on_c, 0, 99, 0
2, 297073, Note_on_c, 0, 100, 0
2, 297083, Note_on_c, 0, 102, 87
2, 297143, Note_on_c, 0, 102, 0
2, 297146, Note_on_c, 0, 103, 78
2, 297242, Note_on_c, 0, 103, 0
2, 298031, Note_on_c, 0, 96, 96
2, 298083, Note_on_c, 0, 97, 88
2, 298091, Note_on_c, 0, 96, 0
2, 298143, Note_on_c, 0, 97, 0
2, 298149, Note_on_c, 0, 99, 94
2, 298209, Note_on_c, 0, 99, 0
2, 298223, Note_on_c, 0, 100, 81
2, 298283, Note_on_c, 0, 100, 0
2, 298284, Note_on_c, 0, 102, 97
2, 298340, Note_on_c, 0, 103, 90
2, 298344, Note_on_c, 0, 102, 0
2, 298436, Note_on_c, 0, 103, 0
2, 300673, Note_on_c, 0, 96, 85
2, 300733, Note_on_c, 0, 96, 0
2, 300737, Note_on_c, 0, 97, 95
2, 300797, Note_on_c, 0, 97, 0
2, 300798, Note_on_c, 0, 99, 92
2, 300858, Note_on_c, 0, 99, 0
2, 300864, Note_on_c, 0, 100, 81
2, 300923, Note_on_c, 0, 102, 94
2, 300924, Note_on_c, 0, 100, 0
2, 300983, Note_on_c, 0, 102, 0
2, 300987, Note_on_c, 0, 103, 81
2, 301083, Note_on_c, 0, 103, 0
2, 304042, Note_on_c, 0, 96, 98
2, 304102, Note_on_c, 0, 96, 0
2, 304109, Note_on_c, 0, 97, 82
2, 304141, Note_on_c, 0, 99, 78
2, 304169, Note_on_c, 0, 97, 0
2, 304201, Note_on_c, 0, 99, 0
2, 304210, Note_on_c, 0, 100, 86
2, 304270, Note_on_c, 0, 100, 0
2, 304272, Note_on_c, 0, 102, 89
2, 304332, Note_on_c, 0, 102, 0
2, 304334, Note_on_c, 0, 103, 93
2, 304430, Note_on_c, 0, 103, 0
2, 305227, Note_on_c, 0, 96, 86
2, 305287, Note_on_c, 0, 96, 0
2, 305308, Note_on_c, 0, 97, 81
2, 305342, Note_on_c, 0, 99, 94
2, 305368, Note_on_c, 0, 97, 0
2, 305402, Note_on_c, 0, 99, 0
2, 305425, Note_on_c, 0, 100, 81
2, 305476, Note_on_c, 0, 102, 82
2, 305485, Note_on_c, 0, 100, 0
2, 305536, Note_on_c, 0, 102, 0
2, 305547, Note_on_c, 0, 103, 83
2, 305643, Note_on_c, 0, 103, 0
2, 306902, Note_on_c, 0, 96, 80
2, 306961, Note_on_c, 0, 97, 96
2, 306962, Note_on_c, 0, 96, 0
2, 307021, Note_on_c, 0, 97, 0
2, 307024, Note_on_c, 0, 99, 96
2, 307084, Note_on_c, 0, 99, 0
2, 307086, Note_on_c, 0, 100, 89
2, 307146, Note_on_c, 0, 100, 0
2, 307166, Note_on_c, 0, 102, 89
2, 307224, Note_on_c, 0, 103, 85
2, 307226, Note_on_c, 0, 102, 0
2, 307320, Note_on_c, 0, 103, 0
2, 308125, Note_on_c, 0, 96, 95
2, 308174, Note_on_c, 0, 97, 80
2, 308185, Note_on_c, 0, 96, 0
2, 308220, Note_on_c, 0, 99, 95
2, 308234, Note_on_c, 0, 97, 0
2, 308280, Note_on_c, 0, 99, 0
2, 308305, Note_on_c, 0, 100, 82
2, 308354, Note_on_c, 0, 102, 82
2, 308365, Note_on_c, 0, 100, 0
2, 308414, Note_on_c, 0, 102, 0
2, 308421, Note_on_c, 0, 103, 82
2, 308517, Note_on_c, 0, 103, 0
2, 318025, Note_on_c, 0, 100, 92
2, 318865, Note_on_c, 0, 100, 0
2, 318972, Note_on_c, 0, 100, 101
2, 319332, Note_on_c, 0, 100, 0
2, 319461, Note_on_c, 0, 100, 111
2, 319821, Note_on_c, 0, 100, 0
2, 319924, Note_on_c, 0, 100, 91
2, 320284, Note_on_c, 0, 100, 0
2, 320411, Note_on_c, 0, 100, 109
2, 320771, Note_on_c, 0, 100, 0
2, 320907, Note_on_c, 0, 100, 106
2, 321267, Note_on_c, 0, 100, 0
2, 321380, Note_on_c, 0, 100, 102
2, 322220, Note_on_c, 0, 100, 0
2, 322337, Note_on_c, 0, 100, 99
2, 322697, Note_on_c, 0, 100, 0
2, 322813, Note_on_c, 0, 100, 102
2, 323173, Note_on_c, 0, 100, 0
2, 323298, Note_on_c, 0, 100, 108
2, 323658, Note_on_c, 0, 100, 0
2, 323784, Note_on_c, 0, 100, 107
2, 324144, Note_on_c, 0, 100, 0
2, 340585, Note_on_c, 0, 100, 109
2, 340945, Note_on_c, 0, 100, 0
2, 341537, Note_on_c, 0, 100, 91
2, 341897, Note_on_c, 0, 100, 0
2, 342502, Note_on_c, 0, 100, 99
2, 342862, Note_on_c, 0, 100, 0
2, 342964, Note_on_c, 0, 100, 110
2, 343324, Note_on_c, 0, 100, 0
2, 343921, Note_on_c, 0, 100, 100
2, 344281, Note_on_c, 0, 100, 0
2, 344904, Note_on_c, 0, 100, 102
2, 345264, Note_on_c, 0, 100, 0
2, 345841, Note_on_c, 0, 100, 98
2, 346201, Note_on_c, 0, 100, 0
2, 346332, Note_on_c, 0, 100, 101
2, 346692, Note_on_c, 0, 100, 0
2, 347289, Note_on_c, 0, 100, 97
2, 347649, Note_on_c, 0, 100, 0
2, 347778, Note_on_c, 0, 100, 97
2, 348618, Note_on_c, 0, 100, 0
2, 348721, Note_on_c, 0, 100, 106
2, 349081, Note_on_c, 0, 100, 0
2, 349683, Note_on_c, 0, 103, 95
2, 350043, Note_on_c, 0, 103, 0
2, 350172, Note_on_c, 0, 102, 103
2, 350532, Note_on_c, 0, 102, 0
2, 350655, Note_on_c, 0, 100, 102
2, 351015, Note_on_c, 0, 100, 0
2, 351139, Note_on_c, 0, 100, 92
2, 351499, Note_on_c, 0, 100, 0
2, 383286, Note_on_c, 0, 100, 109
2, 383526, Note_on_c, 0, 100, 0
2, 383773, Note_on_c, 0, 100, 101
2, 384013, Note_on_c, 0, 100, 0
2, 384264, Note_on_c, 0, 100, 109
2, 384504, Note_on_c, 0, 100, 0
2, 384744, Note_on_c, 0, 100, 96
2, 384984, Note_on_c, 0, 100, 0
2, 385224, Note_on_c, 0, 100, 93
2, 385464, Note_on_c, 0, 100, 0
2, 385690, Note_on_c, 0, 100, 109
2, 385930, Note_on_c, 0, 100, 0
2, 490800, Control_c, 0, 11, 127
2, 490800, Control_c, 0, 7, 75
2, 494536, Note_on_c, 0, 89, 101
2, 494538, Note_on_c, 0, 101, 111
2, 494679, Note_on_c, 0, 89, 0
2, 494681, Note_on_c, 0, 101, 0
2, 494762, Note_on_c, 0, 89, 98
2, 494786, Note_on_c, 0, 101, 93
2, 494905, Note_on_c, 0, 89, 0
2, 494929, Note_on_c, 0, 101, 0
2, 495019, Note_on_c, 0, 89, 104
2, 495021, Note_on_c, 0, 101, 109
2, 495079, Note_on_c, 0, 89, 0
2, 495081, Note_on_c, 0, 101, 0
2, 495139, Note_on_c, 0, 93, 96
2, 495142, Note_on_c, 0, 105, 106
2, 495211, Note_on_c, 0, 93, 0
2, 495214, Note_on_c, 0, 105, 0
2, 495255, Note_on_c, 0, 89, 101
2, 495269, Note_on_c, 0, 101, 108
2, 495315, Note_on_c, 0, 89, 0
2, 495329, Note_on_c, 0, 101, 0
2, 496689, Note_on_c, 0, 101, 104
2, 496707, Note_on_c, 0, 89, 110
2, 496761, Note_on_c, 0, 101, 0
2, 496779, Note_on_c, 0, 89, 0
2, 496807, Note_on_c, 0, 101, 92
2, 496808, Note_on_c, 0, 89, 104
2, 496879, Note_on_c, 0, 101, 0
2, 496880, Note_on_c, 0, 89, 0
2, 496921, Note_on_c, 0, 101, 96
2, 496939, Note_on_c, 0, 89, 108
2, 496993, Note_on_c, 0, 101, 0
2, 497011, Note_on_c, 0, 89, 0
2, 497058, Note_on_c, 0, 93, 101
2, 497061, Note_on_c, 0, 105, 91
2, 497130, Note_on_c, 0, 93, 0
2, 497133, Note_on_c, 0, 105, 0
2, 497175, Note_on_c, 0, 89, 109
2, 497185, Note_on_c, 0, 101, 102
2, 497222, Note_on_c, 0, 89, 0
2, 497232, Note_on_c, 0, 101, 0
2, 502934, Note_on_c, 0, 89, 107
2, 502945, Note_on_c, 0, 101, 107
2, 503014, Note_on_c, 0, 89, 0
2, 503025, Note_on_c, 0, 101, 0
2, 503055, Note_on_c, 0, 93, 115
2, 503067, Note_on_c, 0, 105, 120
2, 503135, Note_on_c, 0, 93, 0
2, 503147, Note_on_c, 0, 105, 0
2, 503533, Note_on_c, 0, 101, 110
2, 503544, Note_on_c, 0, 89, 116
2, 503613, Note_on_c, 0, 101, 0
2, 503624, Note_on_c, 0, 89, 0
2, 503655, Note_on_c, 0, 105, 107
2, 503662, Note_on_c, 0, 93, 101
2, 503735, Note_on_c, 0, 105, 0
2, 503742, Note_on_c, 0, 93, 0
2, 503891, Note_on_c, 0, 94, 117
2, 503894, Note_on_c, 0, 106, 117
2, 503971, Note_on_c, 0, 94, 0
2, 503974, Note_on_c, 0, 106, 0
2, 522975, Note_on_c, 0, 104, 95
2, 523032, Note_on_c, 0, 104, 0
2, 523073, Note_on_c, 0, 104, 87
2, 523130, Note_on_c, 0, 104, 0
2, 523164, Note_on_c, 0, 103, 93
2, 523221, Note_on_c, 0, 103, 0
2, 523251, Note_on_c, 0, 103, 83
2, 523308, Note_on_c, 0, 103, 0
2, 523354, Note_on_c, 0, 102, 82
2, 523412, Note_on_c, 0, 102, 0
2, 523440, Note_on_c, 0, 102, 93
2, 523512, Note_on_c, 0, 102, 0
2, 525369, Note_on_c, 0, 104, 93
2, 525426, Note_on_c, 0, 104, 0
2, 525466, Note_on_c, 0, 104, 88
2, 525523, Note_on_c, 0, 104, 0
2, 525553, Note_on_c, 0, 103, 85
2, 525610, Note_on_c, 0, 103, 0
2, 525656, Note_on_c, 0, 103, 88
2, 525713, Note_on_c, 0, 103, 0
2, 525750, Note_on_c, 0, 102, 98
2, 525808, Note_on_c, 0, 102, 0
2, 525848, Note_on_c, 0, 102, 86
2, 525920, Note_on_c, 0, 102, 0
2, 531372, Note_on_c, 0, 93, 94
2, 531420, Note_on_c, 0, 93, 0
2, 531439, Note_on_c, 0, 93, 93
2, 531499, Note_on_c, 0, 93, 0
2, 531605, Note_on_c, 0, 93, 110
2, 531650, Note_on_c, 0, 93, 0
2, 531669, Note_on_c, 0, 93, 95
2, 531729, Note_on_c, 0, 93, 0
2, 531862, Note_on_c, 0, 93, 101
2, 531905, Note_on_c, 0, 93, 0
2, 531924, Note_on_c, 0, 93, 102
2, 531984, Note_on_c, 0, 93, 0
2, 532328, Note_on_c, 0, 93, 91
2, 532384, Note_on_c, 0, 93, 0
2, 532404, Note_on_c, 0, 93, 111
2, 532464, Note_on_c, 0, 93, 0
2, 532581, Note_on_c, 0, 93, 102
2, 532603, Note_on_c, 0, 93, 0
2, 532622, Note_on_c, 0, 93, 96
2, 532682, Note_on_c, 0, 93, 0
2, 532812, Note_on_c, 0, 93, 95
2, 532865, Note_on_c, 0, 93, 0
2, 532884, Note_on_c, 0, 93, 91
2, 532944, Note_on_c, 0, 93, 0
2, 533046, Note_on_c, 0, 93, 106
2, 533101, Note_on_c, 0, 93, 0
2, 533120, Note_on_c, 0, 93, 100
2, 533180, Note_on_c, 0, 93, 0
2, 533301, Note_on_c, 0, 93, 95
2, 533327, Note_on_c, 0, 93, 0
2, 533347, Note_on_c, 0, 93, 95
2, 533407, Note_on_c, 0, 93, 0
2, 533765, Note_on_c, 0, 93, 99
2, 533825, Note_on_c, 0, 93, 0
2, 533847, Note_on_c, 0, 93, 111
2, 533907, Note_on_c, 0, 93, 0
2, 534265, Note_on_c, 0, 93, 94
2, 534294, Note_on_c, 0, 93, 0
2, 534313, Note_on_c, 0, 93, 108
2, 534373, Note_on_c, 0, 93, 0
2, 534505, Note_on_c, 0, 91, 93
2, 534540, Note_on_c, 0, 91, 0
2, 534559, Note_on_c, 0, 91, 92
2, 534619, Note_on_c, 0, 91, 0
2, 534746, Note_on_c, 0, 93, 102
2, 534773, Note_on_c, 0, 93, 0
2, 534793, Note_on_c, 0, 93, 93
2, 534853, Note_on_c, 0, 93, 0
2, 535212, Note_on_c, 0, 93, 96
2, 535254, Note_on_c, 0, 93, 0
2, 535273, Note_on_c, 0, 93, 98
2, 535333, Note_on_c, 0, 93, 0
2, 535690, Note_on_c, 0, 93, 103
2, 535729, Note_on_c, 0, 93, 0
2, 535748, Note_on_c, 0, 93, 99
2, 535808, Note_on_c, 0, 93, 0
2, 536660, Note_on_c, 0, 95, 119
2, 536675, Note_on_c, 0, 95, 0
2, 536739, Note_on_c, 0, 95, 110
2, 536754, Note_on_c, 0, 95, 0
2, 536859, Note_on_c, 0, 94, 105
2, 536874, Note_on_c, 0, 94, 0
2, 536930, Note_on_c, 0, 94, 122
2, 536945, Note_on_c, 0, 94, 0
2, 537029, Note_on_c, 0, 93, 122
2, 537044, Note_on_c, 0, 93, 0
2, 537128, Note_on_c, 0, 93, 114
2, 537188, Note_on_c, 0, 93, 0
2, 546024, Note_on_c, 0, 92, 75
2, 546056, Note_on_c, 0, 93, 85
2, 546071, Note_on_c, 0, 92, 0
2, 546104, Note_on_c, 0, 93, 0
2, 546113, Note_on_c, 0, 92, 77
2, 546149, Note_on_c, 0, 91, 80
2, 546160, Note_on_c, 0, 92, 0
2, 546197, Note_on_c, 0, 91, 0
2, 546207, Note_on_c, 0, 92, 82
2, 546255, Note_on_c, 0, 92, 0
2, 546261, Note_on_c, 0, 80, 82
2, 546308, Note_on_c, 0, 80, 0
2, 546503, Note_on_c, 0, 92, 81
2, 546535, Note_on_c, 0, 93, 65
2, 546550, Note_on_c, 0, 92, 0
2, 546579, Note_on_c, 0, 92, 79
2, 546583, Note_on_c, 0, 93, 0
2, 546626, Note_on_c, 0, 92, 0
2, 546649, Note_on_c, 0, 91, 67
2, 546695, Note_on_c, 0, 92, 81
2, 546697, Note_on_c, 0, 91, 0
2, 546731, Note_on_c, 0, 80, 81
2, 546743, Note_on_c, 0, 92, 0
2, 546778, Note_on_c, 0, 80, 0
2, 546978, Note_on_c, 0, 92, 69
2, 547017, Note_on_c, 0, 93, 69
2, 547025, Note_on_c, 0, 92, 0
2, 547065, Note_on_c, 0, 93, 0
2, 547070, Note_on_c, 0, 92, 67
2, 547117, Note_on_c, 0, 92, 0
2, 547126, Note_on_c, 0, 91, 69
2, 547174, Note_on_c, 0, 91, 0
2, 547176, Note_on_c, 0, 92, 75
2, 547217, Note_on_c, 0, 80, 76
2, 547224, Note_on_c, 0, 92, 0
2, 547264, Note_on_c, 0, 80, 0
2, 547467, Note_on_c, 0, 93, 78
2, 547504, Note_on_c, 0, 95, 71
2, 547514, Note_on_c, 0, 93, 0
2, 547541, Note_on_c, 0, 93, 78
2, 547552, Note_on_c, 0, 95, 0
2, 547588, Note_on_c, 0, 93, 0
2, 547594, Note_on_c, 0, 92, 79
2, 547642, Note_on_c, 0, 92, 0
2, 547659, Note_on_c, 0, 93, 69
2, 547696, Note_on_c, 0, 80, 65
2, 547707, Note_on_c, 0, 93, 0
2, 547743, Note_on_c, 0, 80, 0
2, 547922, Note_on_c, 0, 92, 67
2, 547969, Note_on_c, 0, 92, 0
2, 547990, Note_on_c, 0, 93, 65
2, 548019, Note_on_c, 0, 92, 74
2, 548038, Note_on_c, 0, 93, 0
2, 548066, Note_on_c, 0, 92, 0
2, 548076, Note_on_c, 0, 90, 68
2, 548124, Note_on_c, 0, 90, 0
2, 548134, Note_on_c, 0, 92, 72
2, 548160, Note_on_c, 0, 80, 69
2, 548182, Note_on_c, 0, 92, 0
2, 548207, Note_on_c, 0, 80, 0
2, 548428, Note_on_c, 0, 92, 81
2, 548458, Note_on_c, 0, 93, 76
2, 548475, Note_on_c, 0, 92, 0
2, 548496, Note_on_c, 0, 92, 74
2, 548506, Note_on_c, 0, 93, 0
2, 548543, Note_on_c, 0, 92, 0
2, 548548, Note_on_c, 0, 90, 82
2, 548592, Note_on_c, 0, 92, 74
2, 548596, Note_on_c, 0, 90, 0
2, 548640, Note_on_c, 0, 92, 0
2, 548664, Note_on_c, 0, 80, 67
2, 548711, Note_on_c, 0, 80, 0
2, 548888, Note_on_c, 0, 92, 80
2, 548935, Note_on_c, 0, 92, 0
2, 548948, Note_on_c, 0, 93, 81
2, 548988, Note_on_c, 0, 92, 83
2, 548996, Note_on_c, 0, 93, 0
2, 549035, Note_on_c, 0, 92, 0
2, 549036, Note_on_c, 0, 90, 85
2, 549078, Note_on_c, 0, 92, 83
2, 549084, Note_on_c, 0, 90, 0
2, 549126, Note_on_c, 0, 92, 0
2, 549130, Note_on_c, 0, 80, 65
2, 549177, Note_on_c, 0, 80, 0
2, 549371, Note_on_c, 0, 93, 69
2, 549408, Note_on_c, 0, 95, 79
2, 549418, Note_on_c, 0, 93, 0
2, 549456, Note_on_c, 0, 95, 0
2, 549464, Note_on_c, 0, 93, 84
2, 549511, Note_on_c, 0, 93, 0
2, 549520, Note_on_c, 0, 92, 72
2, 549568, Note_on_c, 0, 92, 0
2, 549576, Note_on_c, 0, 93, 91
2, 549624, Note_on_c, 0, 93, 0
2, 549629, Note_on_c, 0, 81, 79
2, 549676, Note_on_c, 0, 81, 0
2, 549840, Note_on_c, 0, 93, 87
2, 549887, Note_on_c, 0, 93, 0
2, 549913, Note_on_c, 0, 95, 83
2, 549961, Note_on_c, 0, 95, 0
2, 549963, Note_on_c, 0, 93, 95
2, 550002, Note_on_c, 0, 92, 89
2, 550010, Note_on_c, 0, 93, 0
2, 550044, Note_on_c, 0, 93, 92
2, 550050, Note_on_c, 0, 92, 0
2, 550083, Note_on_c, 0, 81, 97
2, 550092, Note_on_c, 0, 93, 0
2, 550130, Note_on_c, 0, 81, 0
2, 550326, Note_on_c, 0, 93, 85
2, 550373, Note_on_c, 0, 93, 0
2, 550396, Note_on_c, 0, 95, 97
2, 550428, Note_on_c, 0, 93, 97
2, 550444, Note_on_c, 0, 95, 0
2, 550475, Note_on_c, 0, 93, 0
2, 550483, Note_on_c, 0, 92, 97
2, 550524, Note_on_c, 0, 93, 108
2, 550531, Note_on_c, 0, 92, 0
2, 550554, Note_on_c, 0, 93, 0
2, 550574, Note_on_c, 0, 93, 94
2, 550613, Note_on_c, 0, 93, 0
2, 550616, Note_on_c, 0, 94, 107
2, 550644, Note_on_c, 0, 95, 93
2, 550656, Note_on_c, 0, 94, 0
2, 550684, Note_on_c, 0, 95, 0
2, 550696, Note_on_c, 0, 97, 108
2, 550731, Note_on_c, 0, 99, 92
2, 550735, Note_on_c, 0, 97, 0
2, 550763, Note_on_c, 0, 101, 104
2, 550771, Note_on_c, 0, 99, 0
2, 550800, Note_on_c, 0, 102, 97
2, 550803, Note_on_c, 0, 101, 0
2, 550920, Note_on_c, 0, 102, 0
2, 554761, Note_on_c, 0, 100, 110
2, 554782, Note_on_c, 0, 88, 108
2, 554904, Note_on_c, 0, 100, 0
2, 554925, Note_on_c, 0, 88, 0
2, 555005, Note_on_c, 0, 100, 110
2, 555023, Note_on_c, 0, 88, 104
2, 555148, Note_on_c, 0, 100, 0
2, 555166, Note_on_c, 0, 88, 0
2, 555251, Note_on_c, 0, 100, 96
2, 555253, Note_on_c, 0, 88, 95
2, 555311, Note_on_c, 0, 100, 0
2, 555313, Note_on_c, 0, 88, 0
2, 555375, Note_on_c, 0, 104, 109
2, 555382, Note_on_c, 0, 92, 93
2, 555447, Note_on_c, 0, 104, 0
2, 555454, Note_on_c, 0, 92, 0
2, 555482, Note_on_c, 0, 88, 106
2, 555507, Note_on_c, 0, 100, 94
2, 555542, Note_on_c, 0, 88, 0
2, 555567, Note_on_c, 0, 100, 0
2, 556929, Note_on_c, 0, 88, 97
2, 556941, Note_on_c, 0, 100, 110
2, 557001, Note_on_c, 0, 88, 0
2, 557013, Note_on_c, 0, 100, 0
2, 557049, Note_on_c, 0, 100, 97
2, 557050, Note_on_c, 0, 88, 91
2, 557121, Note_on_c, 0, 100, 0
2, 557122, Note_on_c, 0, 88, 0
2, 557162, Note_on_c, 0, 100, 92
2, 557177, Note_on_c, 0, 88, 105
2, 557234, Note_on_c, 0, 100, 0
2, 557249, Note_on_c, 0, 88, 0
2, 557293, Note_on_c, 0, 92, 95
2, 557299, Note_on_c, 0, 104, 103
2, 557365, Note_on_c, 0, 92, 0
2, 557371, Note_on_c, 0, 104, 0
2, 557418, Note_on_c, 0, 88, 96
2, 557428, Note_on_c, 0, 100, 107
2, 557465, Note_on_c, 0, 88, 0
2, 557475, Note_on_c, 0, 100, 0
2, 563160, Note_on_c, 0, 100, 104
2, 563173, Note_on_c, 0, 88, 109
2, 563220, Note_on_c, 0, 100, 0
2, 563233, Note_on_c, 0, 88, 0
2, 563282, Note_on_c, 0, 92, 98
2, 563294, Note_on_c, 0, 104, 107
2, 563342, Note_on_c, 0, 92, 0
2, 563354, Note_on_c, 0, 104, 0
2, 563761, Note_on_c, 0, 100, 102
2, 563765, Note_on_c, 0, 88, 111
2, 563821, Note_on_c, 0, 100, 0
2, 563825, Note_on_c, 0, 88, 0
2, 563882, Note_on_c, 0, 92, 106
2, 563888, Note_on_c, 0, 104, 106
2, 563942, Note_on_c, 0, 92, 0
2, 563948, Note_on_c, 0, 104, 0
2, 564122, Note_on_c, 0, 105, 96
2, 564143, Note_on_c, 0, 93, 103
2, 564182, Note_on_c, 0, 105, 0
2, 564203, Note_on_c, 0, 93, 0
2, 579848, Note_on_c, 0, 84, 99
2, 579902, Note_on_c, 0, 86, 103
2, 579908, Note_on_c, 0, 84, 0
2, 579962, Note_on_c, 0, 86, 0
2, 579962, Note_on_c, 0, 88, 107
2, 580022, Note_on_c, 0, 88, 0
2, 580037, Note_on_c, 0, 90, 99
2, 580092, Note_on_c, 0, 91, 118
2, 580097, Note_on_c, 0, 90, 0
2, 580332, Note_on_c, 0, 91, 0
2, 584667, Note_on_c, 0, 84, 120
2, 584724, Note_on_c, 0, 86, 100
2, 584727, Note_on_c, 0, 84, 0
2, 584777, Note_on_c, 0, 88, 101
2, 584784, Note_on_c, 0, 86, 0
2, 584824, Note_on_c, 0, 90, 108
2, 584837, Note_on_c, 0, 88, 0
2, 584884, Note_on_c, 0, 90, 0
2, 584895, Note_on_c, 0, 91, 102
2, 585135, Note_on_c, 0, 91, 0
2, 600008, Note_on_c, 0, 98, 102
2, 600295, Note_on_c, 0, 98, 0
2, 600508, Note_on_c, 0, 96, 95
2, 600651, Note_on_c, 0, 96, 0
2, 600737, Note_on_c, 0, 94, 96
2, 600880, Note_on_c, 0, 94, 0
2, 600983, Note_on_c, 0, 92, 109
2, 601126, Note_on_c, 0, 92, 0
2, 601217, Note_on_c, 0, 96, 96
2, 601360, Note_on_c, 0, 96, 0
2, 601453, Note_on_c, 0, 95, 116
2, 601455, Note_on_c, 0, 98, 105
2, 601525, Note_on_c, 0, 95, 0
2, 601527, Note_on_c, 0, 98, 0
2, 604866, Note_on_c, 0, 79, 104
2, 604876, Note_on_c, 0, 91, 99
2, 604926, Note_on_c, 0, 79, 0
2, 604936, Note_on_c, 0, 91, 0
2, 604947, Note_on_c, 0, 93, 109
2, 604948, Note_on_c, 0, 82, 106
2, 604980, Note_on_c, 0, 87, 101
2, 605005, Note_on_c, 0, 94, 108
2, 605007, Note_on_c, 0, 93, 0
2, 605008, Note_on_c, 0, 82, 0
2, 605040, Note_on_c, 0, 87, 0
2, 605052, Note_on_c, 0, 91, 99
2, 605058, Note_on_c, 0, 96, 110
2, 605065, Note_on_c, 0, 94, 0
2, 605112, Note_on_c, 0, 91, 0
2, 605114, Note_on_c, 0, 94, 91
2, 605118, Note_on_c, 0, 96, 0
2, 605127, Note_on_c, 0, 97, 93
2, 605174, Note_on_c, 0, 94, 0
2, 605179, Note_on_c, 0, 98, 107
2, 605187, Note_on_c, 0, 97, 0
2, 605419, Note_on_c, 0, 98, 0
2, 605820, Note_on_c, 0, 81, 100
2, 605839, Note_on_c, 0, 91, 92
2, 605880, Note_on_c, 0, 81, 0
2, 605884, Note_on_c, 0, 86, 91
2, 605889, Note_on_c, 0, 93, 106
2, 605899, Note_on_c, 0, 91, 0
2, 605944, Note_on_c, 0, 86, 0
2, 605949, Note_on_c, 0, 93, 0
2, 605956, Note_on_c, 0, 94, 99
2, 605966, Note_on_c, 0, 90, 93
2, 606016, Note_on_c, 0, 94, 0
2, 606024, Note_on_c, 0, 96, 109
2, 606026, Note_on_c, 0, 90, 0
2, 606028, Note_on_c, 0, 93, 105
2, 606080, Note_on_c, 0, 97, 104
2, 606084, Note_on_c, 0, 96, 0
2, 606088, Note_on_c, 0, 93, 0
2, 606128, Note_on_c, 0, 98, 105
2, 606140, Note_on_c, 0, 97, 0
2, 606368, Note_on_c, 0, 98, 0
2, 606781, Note_on_c, 0, 91, 108
2, 606795, Note_on_c, 0, 81, 91
2, 606841, Note_on_c, 0, 91, 0
2, 606842, Note_on_c, 0, 93, 104
2, 606853, Note_on_c, 0, 86, 95
2, 606855, Note_on_c, 0, 81, 0
2, 606902, Note_on_c, 0, 93, 0
2, 606908, Note_on_c, 0, 90, 109
2, 606913, Note_on_c, 0, 86, 0
2, 606925, Note_on_c, 0, 94, 106
2, 606968, Note_on_c, 0, 90, 0
2, 606979, Note_on_c, 0, 93, 108
2, 606985, Note_on_c, 0, 94, 0
2, 606987, Note_on_c, 0, 96, 100
2, 607020, Note_on_c, 0, 97, 92
2, 607039, Note_on_c, 0, 93, 0
2, 607047, Note_on_c, 0, 96, 0
2, 607080, Note_on_c, 0, 97, 0
2, 607094, Note_on_c, 0, 98, 93
2, 607334, Note_on_c, 0, 98, 0
2, 607747, Note_on_c, 0, 79, 101
2, 607759, Note_on_c, 0, 91, 94
2, 607807, Note_on_c, 0, 79, 0
2, 607808, Note_on_c, 0, 84, 106
2, 607813, Note_on_c, 0, 93, 102
2, 607819, Note_on_c, 0, 91, 0
2, 607865, Note_on_c, 0, 88, 92
2, 607868, Note_on_c, 0, 84, 0
2, 607873, Note_on_c, 0, 93, 0
2, 607874, Note_on_c, 0, 94, 100
2, 607925, Note_on_c, 0, 88, 0
2, 607934, Note_on_c, 0, 94, 0
2, 607944, Note_on_c, 0, 91, 96
2, 607945, Note_on_c, 0, 96, 106
2, 608000, Note_on_c, 0, 97, 91
2, 608004, Note_on_c, 0, 91, 0
2, 608005, Note_on_c, 0, 96, 0
2, 608042, Note_on_c, 0, 98, 97
2, 608060, Note_on_c, 0, 97, 0
2, 608282, Note_on_c, 0, 98, 0
2, 610629, Note_on_c, 0, 91, 109
2, 610645, Note_on_c, 0, 82, 100
2, 610688, Note_on_c, 0, 93, 99
2, 610688, Note_on_c, 0, 85, 99
2, 610689, Note_on_c, 0, 91, 0
2, 610705, Note_on_c, 0, 82, 0
2, 610742, Note_on_c, 0, 94, 97
2, 610748, Note_on_c, 0, 93, 0
2, 610748, Note_on_c, 0, 85, 0
2, 610754, Note_on_c, 0, 90, 110
2, 610797, Note_on_c, 0, 94, 0
2, 610814, Note_on_c, 0, 90, 0
2, 610816, Note_on_c, 0, 94, 98
2, 610819, Note_on_c, 0, 96, 107
2, 610876, Note_on_c, 0, 94, 0
2, 610879, Note_on_c, 0, 96, 0
2, 610885, Note_on_c, 0, 97, 97
2, 610945, Note_on_c, 0, 97, 0
2, 610949, Note_on_c, 0, 98, 98
2, 611189, Note_on_c, 0, 98, 0
2, 613500, Note_on_c, 0, 79, 105
2, 613507, Note_on_c, 0, 91, 102
2, 613560, Note_on_c, 0, 79, 0
2, 613564, Note_on_c, 0, 93, 102
2, 613567, Note_on_c, 0, 91, 0
2, 613574, Note_on_c, 0, 84, 102
2, 613624, Note_on_c, 0, 93, 0
2, 613634, Note_on_c, 0, 84, 0
2, 613634, Note_on_c, 0, 88, 92
2, 613644, Note_on_c, 0, 94, 98
2, 613683, Note_on_c, 0, 91, 100
2, 613694, Note_on_c, 0, 88, 0
2, 613704, Note_on_c, 0, 94, 0
2, 613704, Note_on_c, 0, 96, 111
2, 613743, Note_on_c, 0, 91, 0
2, 613750, Note_on_c, 0, 97, 97
2, 613764, Note_on_c, 0, 96, 0
2, 613810, Note_on_c, 0, 97, 0
2, 613823, Note_on_c, 0, 98, 93
2, 614063, Note_on_c, 0, 98, 0
2, 615425, Note_on_c, 0, 91, 105
2, 615448, Note_on_c, 0, 83, 96
2, 615484, Note_on_c, 0, 87, 101
2, 615485, Note_on_c, 0, 91, 0
2, 615496, Note_on_c, 0, 93, 107
2, 615508, Note_on_c, 0, 83, 0
2, 615541, Note_on_c, 0, 90, 109
2, 615544, Note_on_c, 0, 87, 0
2, 615554, Note_on_c, 0, 94, 108
2, 615556, Note_on_c, 0, 93, 0
2, 615601, Note_on_c, 0, 90, 0
2, 615602, Note_on_c, 0, 96, 97
2, 615614, Note_on_c, 0, 94, 0
2, 615621, Note_on_c, 0, 93, 96
2, 615662, Note_on_c, 0, 96, 0
2, 615664, Note_on_c, 0, 97, 103
2, 615681, Note_on_c, 0, 93, 0
2, 615724, Note_on_c, 0, 97, 0
2, 615727, Note_on_c, 0, 98, 98
2, 615967, Note_on_c, 0, 98, 0
2, 623170, Note_on_c, 0, 81, 94
2, 623181, Note_on_c, 0, 93, 105
2, 623227, Note_on_c, 0, 85, 107
2, 623230, Note_on_c, 0, 81, 0
2, 623241, Note_on_c, 0, 93, 0
2, 623244, Note_on_c, 0, 97, 94
2, 623287, Note_on_c, 0, 85, 0
2, 623291, Note_on_c, 0, 101, 98
2, 623302, Note_on_c, 0, 89, 102
2, 623304, Note_on_c, 0, 97, 0
2, 623343, Note_on_c, 0, 102, 99
2, 623351, Note_on_c, 0, 101, 0
2, 623355, Note_on_c, 0, 90, 111
2, 623362, Note_on_c, 0, 89, 0
2, 623403, Note_on_c, 0, 102, 0
2, 623408, Note_on_c, 0, 94, 99
2, 623415, Note_on_c, 0, 90, 0
2, 623426, Note_on_c, 0, 106, 107
2, 623528, Note_on_c, 0, 94, 0
2, 623546, Note_on_c, 0, 106, 0
2, 623646, Note_on_c, 0, 95, 106
2, 623766, Note_on_c, 0, 95, 0
2, 623898, Note_on_c, 0, 101, 109
2, 623978, Note_on_c, 0, 101, 0
2, 624046, Note_on_c, 0, 96, 104
2, 624126, Note_on_c, 0, 96, 0
2, 624215, Note_on_c, 0, 101, 94
2, 624295, Note_on_c, 0, 101, 0
2, 624367, Note_on_c, 0, 88, 97
2, 624607, Note_on_c, 0, 88, 0
2, 626536, Note_on_c, 0, 92, 91
2, 626591, Note_on_c, 0, 95, 99
2, 626596, Note_on_c, 0, 92, 0
2, 626651, Note_on_c, 0, 95, 0
2, 626665, Note_on_c, 0, 100, 104
2, 626723, Note_on_c, 0, 103, 97
2, 626725, Note_on_c, 0, 100, 0
2, 626760, Note_on_c, 0, 106, 93
2, 626783, Note_on_c, 0, 103, 0
2, 626880, Note_on_c, 0, 106, 0
2, 627022, Note_on_c, 0, 95, 102
2, 627142, Note_on_c, 0, 95, 0
2, 627256, Note_on_c, 0, 101, 109
2, 627336, Note_on_c, 0, 101, 0
2, 627418, Note_on_c, 0, 96, 101
2, 627498, Note_on_c, 0, 96, 0
2, 627565, Note_on_c, 0, 101, 108
2, 627645, Note_on_c, 0, 101, 0
2, 627729, Note_on_c, 0, 88, 100
2, 627849, Note_on_c, 0, 88, 0
2, 648280, Note_on_c, 0, 97, 95
2, 648310, Note_on_c, 0, 97, 0
2, 648311, Note_on_c, 0, 99, 92
2, 648341, Note_on_c, 0, 99, 0
2, 648356, Note_on_c, 0, 100, 99
2, 648367, Note_on_c, 0, 96, 91
2, 648382, Note_on_c, 0, 101, 88
2, 648386, Note_on_c, 0, 100, 0
2, 648427, Note_on_c, 0, 96, 0
2, 648442, Note_on_c, 0, 101, 0
2, 649236, Note_on_c, 0, 97, 98
2, 649266, Note_on_c, 0, 97, 0
2, 649275, Note_on_c, 0, 99, 94
2, 649305, Note_on_c, 0, 99, 0
2, 649317, Note_on_c, 0, 100, 89
2, 649322, Note_on_c, 0, 96, 96
2, 649324, Note_on_c, 0, 101, 82
2, 649347, Note_on_c, 0, 100, 0
2, 649382, Note_on_c, 0, 96, 0
2, 649384, Note_on_c, 0, 101, 0
2, 650810, Note_on_c, 0, 97, 82
2, 650823, Note_on_c, 0, 99, 79
2, 650840, Note_on_c, 0, 97, 0
2, 650853, Note_on_c, 0, 99, 0
2, 650862, Note_on_c, 0, 100, 94
2, 650885, Note_on_c, 0, 101, 87
2, 650892, Note_on_c, 0, 100, 0
2, 650893, Note_on_c, 0, 96, 87
2, 650945, Note_on_c, 0, 101, 0
2, 650953, Note_on_c, 0, 96, 0
2, 651755, Note_on_c, 0, 97, 95
2, 651785, Note_on_c, 0, 97, 0
2, 651795, Note_on_c, 0, 99, 84
2, 651814, Note_on_c, 0, 100, 93
2, 651825, Note_on_c, 0, 99, 0
2, 651844, Note_on_c, 0, 100, 0
2, 651846, Note_on_c, 0, 96, 78
2, 651855, Note_on_c, 0, 101, 98
2, 651906, Note_on_c, 0, 96, 0
2, 651915, Note_on_c, 0, 101, 0
2, 652473, Note_on_c, 0, 97, 93
2, 652502, Note_on_c, 0, 99, 88
2, 652503, Note_on_c, 0, 97, 0
2, 652532, Note_on_c, 0, 99, 0
2, 652558, Note_on_c, 0, 100, 87
2, 652568, Note_on_c, 0, 96, 86
2, 652583, Note_on_c, 0, 101, 89
2, 652588, Note_on_c, 0, 100, 0
2, 652628, Note_on_c, 0, 96, 0
2, 652643, Note_on_c, 0, 101, 0
2, 653434, Note_on_c, 0, 97, 86
2, 653464, Note_on_c, 0, 97, 0
2, 653473, Note_on_c, 0, 99, 96
2, 653503, Note_on_c, 0, 99, 0
2, 653519, Note_on_c, 0, 100, 91
2, 653525, Note_on_c, 0, 101, 81
2, 653541, Note_on_c, 0, 96, 80
2, 653549, Note_on_c, 0, 100, 0
2, 653585, Note_on_c, 0, 101, 0
2, 653601, Note_on_c, 0, 96, 0
2, 654153, Note_on_c, 0, 97, 91
2, 654183, Note_on_c, 0, 97, 0
2, 654208, Note_on_c, 0, 99, 90
2, 654215, Note_on_c, 0, 100, 91
2, 654238, Note_on_c, 0, 99, 0
2, 654245, Note_on_c, 0, 100, 0
2, 654247, Note_on_c, 0, 96, 97
2, 654257, Note_on_c, 0, 101, 92
2, 654307, Note_on_c, 0, 96, 0
2, 654317, Note_on_c, 0, 101, 0
2, 655336, Note_on_c, 0, 91, 117
2, 655456, Note_on_c, 0, 91, 0
2, 657850, Note_on_c, 0, 79, 115
2, 657880, Note_on_c, 0, 79, 0
2, 657884, Note_on_c, 0, 81, 112
2, 657911, Note_on_c, 0, 91, 118
2, 657914, Note_on_c, 0, 81, 0
2, 657941, Note_on_c, 0, 91, 0
2, 657956, Note_on_c, 0, 93, 104
2, 657971, Note_on_c, 0, 104, 110
2, 657973, Note_on_c, 0, 105, 107
2, 657986, Note_on_c, 0, 93, 0
2, 658091, Note_on_c, 0, 104, 0
2, 658093, Note_on_c, 0, 105, 0
2, 658093, End_track
3, 0, Start_track
3, 0, Title_t, "Flauti"
3, 0, MIDI_port, 0
3, 0, Program_c, 0, 73
3, 0, Control_c, 0, 11, 64
3, 2, Control_c, 0, 11, 65
3, 3, Note_on_c, 0, 69, 52
3, 10, Control_c, 0, 11, 66
3, 16, Note_on_c, 0, 66, 54
3, 18, Control_c, 0, 11, 67
3, 26, Control_c, 0, 11, 68
3, 27, Note_on_c, 0, 75, 47
3, 34, Control_c, 0, 11, 69
3, 42, Control_c, 0, 11, 70
3, 50, Control_c, 0, 11, 71
3, 58, Control_c, 0, 11, 72
3, 66, Control_c, 0, 11, 73
3, 74, Control_c, 0, 11, 74
3, 82, Control_c, 0, 11, 75
3, 90, Control_c, 0, 11, 76
3, 97, Control_c, 0, 11, 77
3, 105, Control_c, 0, 11, 78
3, 113, Control_c, 0, 11, 79
3, 121, Control_c, 0, 11, 80
3, 129, Control_c, 0, 11, 81
3, 137, Control_c, 0, 11, 82
3, 145, Control_c, 0, 11, 83
3, 153, Control_c, 0, 11, 84
3, 161, Control_c, 0, 11, 85
3, 169, Control_c, 0, 11, 86
3, 177, Control_c, 0, 11, 87
3, 185, Control_c, 0, 11, 88
3, 193, Control_c, 0, 11, 89
3, 201, Control_c, 0, 11, 90
3, 208, Control_c, 0, 11, 91
3, 216, Control_c, 0, 11, 92
3, 224, Control_c, 0, 11, 93
3, 232, Control_c, 0, 11, 94
3, 240, Control_c, 0, 11, 95
3, 241, Note_on_c, 0, 69, 0
3, 245, Note_on_c, 0, 76, 51
3, 248, Control_c, 0, 11, 96
3, 256, Note_on_c, 0, 66, 0
3, 256, Control_c, 0, 11, 97
3, 263, Note_on_c, 0, 73, 43
3, 264, Control_c, 0, 11, 98
3, 265, Note_on_c, 0, 75, 0
3, 267, Note_on_c, 0, 68, 53
3, 272, Control_c, 0, 11, 99
3, 280, Control_c, 0, 11, 100
3, 287, Control_c, 0, 11, 101
3, 295, Control_c, 0, 11, 102
3, 303, Control_c, 0, 11, 103
3, 311, Control_c, 0, 11, 104
3, 319, Control_c, 0, 11, 105
3, 327, Control_c, 0, 11, 106
3, 335, Control_c, 0, 11, 107
3, 343, Control_c, 0, 11, 108
3, 351, Control_c, 0, 11, 109
3, 359, Control_c, 0, 11, 110
3, 367, Control_c, 0, 11, 111
3, 375, Control_c, 0, 11, 112
3, 382, Control_c, 0, 11, 113
3, 390, Control_c, 0, 11, 114
3, 398, Control_c, 0, 11, 115
3, 406, Control_c, 0, 11, 116
3, 414, Control_c, 0, 11, 117
3, 422, Control_c, 0, 11, 118
3, 430, Control_c, 0, 11, 119
3, 438, Control_c, 0, 11, 120
3, 446, Control_c, 0, 11, 121
3, 454, Control_c, 0, 11, 122
3, 462, Control_c, 0, 11, 123
3, 470, Control_c, 0, 11, 124
3, 478, Control_c, 0, 11, 125
3, 485, Note_on_c, 0, 76, 0
3, 486, Control_c, 0, 11, 126
3, 491, Note_on_c, 0, 66, 44
3, 503, Note_on_c, 0, 73, 0
3, 503, Note_on_c, 0, 69, 55
3, 506, Note_on_c, 0, 75, 43
3, 507, Note_on_c, 0, 68, 0
3, 722, Note_on_c, 0, 76, 55
3, 731, Note_on_c, 0, 66, 0
3, 731, Note_on_c, 0, 68, 43
3, 737, Note_on_c, 0, 73, 43
3, 743, Note_on_c, 0, 69, 0
3, 746, Note_on_c, 0, 75, 0
3, 962, Note_on_c, 0, 76, 0
3, 965, Note_on_c, 0, 66, 56
3, 966, Note_on_c, 0, 75, 40
3, 971, Note_on_c, 0, 68, 0
3, 977, Note_on_c, 0, 73, 0
3, 977, Note_on_c, 0, 69, 48
3, 1203, Note_on_c, 0, 76, 42
3, 1205, Note_on_c, 0, 66, 0
3, 1206, Note_on_c, 0, 75, 0
3, 1207, Note_on_c, 0, 68, 47
3, 1217, Note_on_c, 0, 69, 0
3, 1223, Note_on_c, 0, 73, 39
3, 1443, Note_on_c, 0, 76, 0
3, 1446, Note_on_c, 0, 69, 51
3, 1447, Note_on_c, 0, 68, 0
3, 1456, Note_on_c, 0, 66, 44
3, 1463, Note_on_c, 0, 73, 0
3, 1466, Note_on_c, 0, 75, 55
3, 1682, Note_on_c, 0, 76, 44
3, 1684, Note_on_c, 0, 68, 45
3, 1686, Note_on_c, 0, 69, 0
3, 1696, Note_on_c, 0, 66, 0
3, 1705, Note_on_c, 0, 73, 45
3, 1706, Note_on_c, 0, 75, 0
3, 1921, Note_on_c, 0, 75, 46
3, 1922, Note_on_c, 0, 76, 0
3, 1924, Note_on_c, 0, 68, 0
3, 1924, Note_on_c, 0, 69, 56
3, 1945, Note_on_c, 0, 73, 0
3, 1948, Note_on_c, 0, 66, 57
3, 2161, Note_on_c, 0, 75, 0
3, 2164, Note_on_c, 0, 69, 0
3, 2175, Note_on_c, 0, 73, 57
3, 2176, Note_on_c, 0, 76, 52
3, 2182, Note_on_c, 0, 68, 46
3, 2188, Note_on_c, 0, 66, 0
3, 2407, Note_on_c, 0, 75, 56
3, 2415, Note_on_c, 0, 73, 0
3, 2416, Note_on_c, 0, 76, 0
3, 2422, Note_on_c, 0, 68, 0
3, 2423, Note_on_c, 0, 69, 41
3, 2427, Note_on_c, 0, 66, 58
3, 2647, Note_on_c, 0, 75, 0
3, 2657, Note_on_c, 0, 76, 48
3, 2663, Note_on_c, 0, 69, 0
3, 2664, Note_on_c, 0, 73, 56
3, 2667, Note_on_c, 0, 66, 0
3, 2885, Note_on_c, 0, 82, 51
3, 2897, Note_on_c, 0, 76, 0
3, 2903, Note_on_c, 0, 85, 55
3, 2904, Note_on_c, 0, 73, 0
3, 3125, Note_on_c, 0, 82, 0
3, 3141, Note_on_c, 0, 76, 51
3, 3143, Note_on_c, 0, 85, 0
3, 3147, Note_on_c, 0, 79, 57
3, 3361, Note_on_c, 0, 66, 46
3, 3371, Note_on_c, 0, 69, 42
3, 3381, Note_on_c, 0, 76, 0
3, 3381, Note_on_c, 0, 75, 51
3, 3387, Note_on_c, 0, 79, 0
3, 3601, Note_on_c, 0, 66, 0
3, 3610, Note_on_c, 0, 76, 54
3, 3611, Note_on_c, 0, 69, 0
3, 3616, Note_on_c, 0, 68, 53
3, 3621, Note_on_c, 0, 75, 0
3, 3622, Note_on_c, 0, 73, 41
3, 3841, Note_on_c, 0, 75, 46
3, 3850, Note_on_c, 0, 76, 0
3, 3854, Note_on_c, 0, 66, 50
3, 3856, Note_on_c, 0, 68, 0
3, 3862, Note_on_c, 0, 73, 0
3, 3866, Note_on_c, 0, 69, 52
3, 4081, Note_on_c, 0, 75, 0
3, 4091, Note_on_c, 0, 76, 49
3, 4094, Note_on_c, 0, 66, 0
3, 4103, Note_on_c, 0, 68, 46
3, 4106, Note_on_c, 0, 69, 0
3, 4108, Note_on_c, 0, 73, 57
3, 4331, Note_on_c, 0, 76, 0
3, 4332, Note_on_c, 0, 66, 59
3, 4339, Note_on_c, 0, 69, 47
3, 4343, Note_on_c, 0, 68, 0
3, 4343, Note_on_c, 0, 75, 43
3, 4348, Note_on_c, 0, 73, 0
3, 4565, Note_on_c, 0, 76, 48
3, 4572, Note_on_c, 0, 66, 0
3, 4575, Note_on_c, 0, 68, 42
3, 4579, Note_on_c, 0, 69, 0
3, 4583, Note_on_c, 0, 75, 0
3, 4583, Note_on_c, 0, 73, 47
3, 4805, Note_on_c, 0, 76, 0
3, 4812, Note_on_c, 0, 66, 46
3, 4814, Note_on_c, 0, 69, 59
3, 4815, Note_on_c, 0, 68, 0
3, 4821, Note_on_c, 0, 75, 42
3, 4823, Note_on_c, 0, 73, 0
3, 5049, Note_on_c, 0, 68, 58
3, 5051, Note_on_c, 0, 76, 43
3, 5052, Note_on_c, 0, 66, 0
3, 5054, Note_on_c, 0, 69, 0
3, 5061, Note_on_c, 0, 75, 0
3, 5064, Note_on_c, 0, 73, 42
3, 5286, Note_on_c, 0, 75, 43
3, 5289, Note_on_c, 0, 68, 0
3, 5291, Note_on_c, 0, 76, 0
3, 5293, Note_on_c, 0, 66, 57
3, 5303, Note_on_c, 0, 69, 55
3, 5304, Note_on_c, 0, 73, 0
3, 5521, Note_on_c, 0, 73, 51
3, 5526, Note_on_c, 0, 75, 0
3, 5533, Note_on_c, 0, 66, 0
3, 5543, Note_on_c, 0, 69, 0
3, 5545, Note_on_c, 0, 76, 48
3, 5547, Note_on_c, 0, 68, 45
3, 5761, Note_on_c, 0, 73, 0
3, 5771, Note_on_c, 0, 75, 39
3, 5776, Note_on_c, 0, 66, 47
3, 5785, Note_on_c, 0, 76, 0
3, 5787, Note_on_c, 0, 68, 0
3, 5787, Note_on_c, 0, 69, 48
3, 6008, Note_on_c, 0, 76, 43
3, 6011, Note_on_c, 0, 75, 0
3, 6016, Note_on_c, 0, 66, 0
3, 6019, Note_on_c, 0, 68, 43
3, 6026, Note_on_c, 0, 73, 52
3, 6027, Note_on_c, 0, 69, 0
3, 6242, Note_on_c, 0, 69, 51
3, 6248, Note_on_c, 0, 76, 0
3, 6258, Note_on_c, 0, 75, 48
3, 6259, Note_on_c, 0, 68, 0
3, 6266, Note_on_c, 0, 73, 0
3, 6268, Note_on_c, 0, 66, 48
3, 6481, Note_on_c, 0, 73, 39
3, 6482, Note_on_c, 0, 69, 0
3, 6484, Note_on_c, 0, 76, 39
3, 6493, Note_on_c, 0, 68, 49
3, 6498, Note_on_c, 0, 75, 0
3, 6508, Note_on_c, 0, 66, 0
3, 6721, Note_on_c, 0, 73, 0
3, 6724, Note_on_c, 0, 76, 0
3, 6733, Note_on_c, 0, 68, 0
3, 6735, Note_on_c, 0, 66, 57
3, 6744, Note_on_c, 0, 69, 54
3, 6747, Note_on_c, 0, 75, 51
3, 6971, Note_on_c, 0, 68, 50
3, 6972, Note_on_c, 0, 73, 41
3, 6973, Note_on_c, 0, 76, 46
3, 6975, Note_on_c, 0, 66, 0
3, 6984, Note_on_c, 0, 69, 0
3, 6987, Note_on_c, 0, 75, 0
3, 7207, Note_on_c, 0, 66, 56
3, 7208, Note_on_c, 0, 69, 41
3, 7211, Note_on_c, 0, 68, 0
3, 7211, Note_on_c, 0, 75, 41
3, 7212, Note_on_c, 0, 73, 0
3, 7213, Note_on_c, 0, 76, 0
3, 7447, Note_on_c, 0, 66, 0
3, 7448, Note_on_c, 0, 69, 0
3, 7451, Note_on_c, 0, 75, 0
3, 7452, Note_on_c, 0, 76, 49
3, 7458, Note_on_c, 0, 73, 52
3, 7461, Note_on_c, 0, 68, 54
3, 7689, Note_on_c, 0, 70, 43
3, 7689, Note_on_c, 0, 75, 46
3, 7689, Note_on_c, 0, 78, 42
3, 7692, Note_on_c, 0, 76, 0
3, 7698, Note_on_c, 0, 73, 0
3, 7701, Note_on_c, 0, 68, 0
3, 7929, Note_on_c, 0, 70, 0
3, 7929, Note_on_c, 0, 75, 0
3, 7929, Note_on_c, 0, 78, 0
3, 7932, Note_on_c, 0, 73, 50
3, 7936, Note_on_c, 0, 68, 59
3, 7947, Note_on_c, 0, 64, 41
3, 8160, Note_on_c, 0, 66, 42
3, 8168, Note_on_c, 0, 75, 59
3, 8172, Note_on_c, 0, 73, 0
3, 8176, Note_on_c, 0, 68, 0
3, 8181, Note_on_c, 0, 70, 54
3, 8187, Note_on_c, 0, 64, 0
3, 8400, Note_on_c, 0, 66, 0
3, 8408, Note_on_c, 0, 75, 0
3, 8409, Note_on_c, 0, 64, 54
3, 8421, Note_on_c, 0, 70, 0
3, 8422, Note_on_c, 0, 68, 47
3, 8423, Note_on_c, 0, 61, 45
3, 8642, Note_on_c, 0, 66, 43
3, 8649, Note_on_c, 0, 64, 0
3, 8649, Note_on_c, 0, 75, 40
3, 8662, Note_on_c, 0, 68, 0
3, 8663, Note_on_c, 0, 61, 0
3, 8666, Note_on_c, 0, 70, 46
3, 8880, Note_on_c, 0, 68, 60
3, 8882, Note_on_c, 0, 66, 0
3, 8883, Note_on_c, 0, 73, 55
3, 8889, Note_on_c, 0, 75, 0
3, 8902, Note_on_c, 0, 76, 53
3, 8906, Note_on_c, 0, 70, 0
3, 9110, Note_on_c, 0, 73, 0
3, 9120, Note_on_c, 0, 68, 0
3, 9120, Note_on_c, 0, 65, 52
3, 9129, Note_on_c, 0, 73, 57
3, 9136, Note_on_c, 0, 70, 67
3, 9142, Note_on_c, 0, 76, 0
3, 9360, Note_on_c, 0, 65, 0
3, 9361, Note_on_c, 0, 71, 70
3, 9369, Note_on_c, 0, 73, 0
3, 9372, Note_on_c, 0, 79, 58
3, 9376, Note_on_c, 0, 70, 0
3, 9388, Note_on_c, 0, 76, 71
3, 9601, Note_on_c, 0, 71, 0
3, 9612, Note_on_c, 0, 79, 0
3, 9626, Note_on_c, 0, 78, 72
3, 9627, Note_on_c, 0, 70, 60
3, 9627, Note_on_c, 0, 75, 64
3, 9628, Note_on_c, 0, 76, 0
3, 9845, Note_on_c, 0, 76, 63
3, 9859, Note_on_c, 0, 80, 67
3, 9863, Note_on_c, 0, 85, 62
3, 9866, Note_on_c, 0, 78, 0
3, 9867, Note_on_c, 0, 70, 0
3, 9867, Note_on_c, 0, 75, 0
3, 10085, Note_on_c, 0, 76, 0
3, 10091, Note_on_c, 0, 77, 67
3, 10091, Note_on_c, 0, 82, 70
3, 10099, Note_on_c, 0, 80, 0
3, 10103, Note_on_c, 0, 85, 0
3, 10107, Note_on_c, 0, 73, 69
3, 10321, Note_on_c, 0, 88, 83
3, 10331, Note_on_c, 0, 77, 0
3, 10331, Note_on_c, 0, 82, 0
3, 10339, Note_on_c, 0, 79, 78
3, 10345, Note_on_c, 0, 83, 89
3, 10347, Note_on_c, 0, 73, 0
3, 10513, Note_on_c, 0, 88, 0
3, 10531, Note_on_c, 0, 79, 0
3, 10537, Note_on_c, 0, 83, 0
3, 10577, Note_on_c, 0, 81, 79
3, 12724, Note_on_c, 0, 73, 84
3, 12733, Note_on_c, 0, 64, 84
3, 12741, Note_on_c, 0, 68, 84
3, 12964, Note_on_c, 0, 73, 0
3, 12969, Note_on_c, 0, 66, 78
3, 12972, Note_on_c, 0, 75, 80
3, 12973, Note_on_c, 0, 64, 0
3, 12981, Note_on_c, 0, 68, 0
3, 12984, Note_on_c, 0, 70, 70
3, 13209, Note_on_c, 0, 66, 0
3, 13210, Note_on_c, 0, 79, 84
3, 13211, Note_on_c, 0, 68, 79
3, 13212, Note_on_c, 0, 75, 0
3, 13212, Note_on_c, 0, 77, 79
3, 13217, Note_on_c, 0, 81, 0
3, 13217, Note_on_c, 0, 72, 66
3, 13224, Note_on_c, 0, 70, 0
3, 13450, Note_on_c, 0, 79, 0
3, 13451, Note_on_c, 0, 68, 0
3, 13451, Note_on_c, 0, 78, 66
3, 13452, Note_on_c, 0, 77, 0
3, 13454, Note_on_c, 0, 70, 70
3, 13457, Note_on_c, 0, 72, 0
3, 13467, Note_on_c, 0, 75, 82
3, 13683, Note_on_c, 0, 80, 42
3, 13684, Note_on_c, 0, 72, 55
3, 13691, Note_on_c, 0, 78, 0
3, 13694, Note_on_c, 0, 70, 0
3, 13694, Note_on_c, 0, 77, 42
3, 13706, Note_on_c, 0, 68, 58
3, 13707, Note_on_c, 0, 75, 0
3, 13923, Note_on_c, 0, 80, 0
3, 13924, Note_on_c, 0, 72, 0
3, 13930, Note_on_c, 0, 75, 49
3, 13931, Note_on_c, 0, 70, 41
3, 13934, Note_on_c, 0, 77, 0
3, 13935, Note_on_c, 0, 66, 48
3, 13946, Note_on_c, 0, 68, 0
3, 13948, Note_on_c, 0, 78, 44
3, 14169, Note_on_c, 0, 76, 53
3, 14170, Note_on_c, 0, 75, 0
3, 14171, Note_on_c, 0, 70, 0
3, 14172, Note_on_c, 0, 73, 42
3, 14175, Note_on_c, 0, 66, 0
3, 14180, Note_on_c, 0, 68, 50
3, 14188, Note_on_c, 0, 78, 0
3, 14188, Note_on_c, 0, 64, 23
3, 14404, Note_on_c, 0, 75, 45
3, 14409, Note_on_c, 0, 76, 0
3, 14412, Note_on_c, 0, 73, 0
3, 14420, Note_on_c, 0, 68, 0
3, 14422, Note_on_c, 0, 66, 54
3, 14428, Note_on_c, 0, 64, 0
3, 14428, Note_on_c, 0, 70, 57
3, 14627, Note_on_c, 0, 70, 0
3, 14644, Note_on_c, 0, 75, 0
3, 14646, Note_on_c, 0, 70, 51
3, 14654, Note_on_c, 0, 65, 41
3, 14662, Note_on_c, 0, 66, 0
3, 14668, Note_on_c, 0, 73, 54
3, 14877, Note_on_c, 0, 65, 0
3, 14886, Note_on_c, 0, 70, 0
3, 14896, Note_on_c, 0, 65, 42
3, 14903, Note_on_c, 0, 68, 42
3, 14906, Note_on_c, 0, 72, 52
3, 14908, Note_on_c, 0, 73, 0
3, 15121, Note_on_c, 0, 64, 56
3, 15136, Note_on_c, 0, 65, 0
3, 15143, Note_on_c, 0, 68, 0
3, 15144, Note_on_c, 0, 67, 48
3, 15146, Note_on_c, 0, 72, 0
3, 15147, Note_on_c, 0, 71, 41
3, 15313, Note_on_c, 0, 64, 0
3, 15336, Note_on_c, 0, 67, 0
3, 15339, Note_on_c, 0, 71, 0
3, 15374, Note_on_c, 0, 81, 65
3, 17054, Note_on_c, 0, 81, 0
3, 17280, Control_c, 0, 11, 127
3, 17529, Note_on_c, 0, 64, 49
3, 17534, Note_on_c, 0, 73, 48
3, 17541, Note_on_c, 0, 68, 49
3, 17762, Note_on_c, 0, 66, 55
3, 17769, Note_on_c, 0, 64, 0
3, 17774, Note_on_c, 0, 73, 0
3, 17775, Note_on_c, 0, 75, 40
3, 17777, Note_on_c, 0, 70, 52
3, 17779, Note_on_c, 0, 63, 50
3, 17781, Note_on_c, 0, 68, 0
3, 18002, Note_on_c, 0, 66, 0
3, 18008, Note_on_c, 0, 70, 0
3, 18009, Note_on_c, 0, 73, 57
3, 18011, Note_on_c, 0, 77, 57
3, 18015, Note_on_c, 0, 75, 0
3, 18019, Note_on_c, 0, 63, 0
3, 18024, Note_on_c, 0, 65, 55
3, 18028, Note_on_c, 0, 70, 44
3, 18247, Note_on_c, 0, 70, 0
3, 18249, Note_on_c, 0, 73, 0
3, 18251, Note_on_c, 0, 77, 0
3, 18254, Note_on_c, 0, 67, 43
3, 18260, Note_on_c, 0, 74, 42
3, 18264, Note_on_c, 0, 65, 0
3, 18266, Note_on_c, 0, 79, 46
3, 18266, Note_on_c, 0, 70, 42
3, 18487, Note_on_c, 0, 71, 48
3, 18489, Note_on_c, 0, 75, 43
3, 18489, Note_on_c, 0, 80, 48
3, 18493, Note_on_c, 0, 68, 49
3, 18494, Note_on_c, 0, 67, 0
3, 18500, Note_on_c, 0, 74, 0
3, 18506, Note_on_c, 0, 79, 0
3, 18506, Note_on_c, 0, 70, 0
3, 18724, Note_on_c, 0, 73, 52
3, 18727, Note_on_c, 0, 71, 0
3, 18729, Note_on_c, 0, 75, 0
3, 18729, Note_on_c, 0, 80, 0
3, 18730, Note_on_c, 0, 82, 59
3, 18730, Note_on_c, 0, 70, 56
3, 18732, Note_on_c, 0, 77, 49
3, 18733, Note_on_c, 0, 68, 0
3, 18964, Note_on_c, 0, 73, 0
3, 18970, Note_on_c, 0, 82, 0
3, 18970, Note_on_c, 0, 70, 0
3, 18970, Note_on_c, 0, 72, 46
3, 18972, Note_on_c, 0, 77, 0
3, 18973, Note_on_c, 0, 79, 53
3, 18976, Note_on_c, 0, 84, 44
3, 18982, Note_on_c, 0, 75, 57
3, 19200, Note_on_c, 0, 81, 39
3, 19205, Note_on_c, 0, 74, 45
3, 19210, Note_on_c, 0, 72, 0
3, 19213, Note_on_c, 0, 79, 0
3, 19216, Note_on_c, 0, 84, 0
3, 19221, Note_on_c, 0, 86, 59
3, 19221, Note_on_c, 0, 77, 51
3, 19222, Note_on_c, 0, 75, 0
3, 19440, Note_on_c, 0, 81, 0
3, 19443, Note_on_c, 0, 83, 56
3, 19443, Note_on_c, 0, 76, 39
3, 19444, Note_on_c, 0, 79, 40
3, 19445, Note_on_c, 0, 74, 0
3, 19461, Note_on_c, 0, 86, 0
3, 19461, Note_on_c, 0, 77, 0
3, 19461, Note_on_c, 0, 88, 55
3, 19635, Note_on_c, 0, 83, 0
3, 19635, Note_on_c, 0, 76, 0
3, 19636, Note_on_c, 0, 79, 0
3, 19653, Note_on_c, 0, 88, 0
3, 19688, Note_on_c, 0, 69, 66
3, 21128, Note_on_c, 0, 69, 0
3, 21132, Note_on_c, 0, 70, 49
3, 21137, Note_on_c, 0, 75, 56
3, 21141, Note_on_c, 0, 78, 44
3, 21143, Note_on_c, 0, 83, 46
3, 21372, Note_on_c, 0, 70, 0
3, 21377, Note_on_c, 0, 75, 0
3, 21381, Note_on_c, 0, 78, 0
3, 21383, Note_on_c, 0, 83, 0
3, 21383, Note_on_c, 0, 73, 58
3, 21387, Note_on_c, 0, 76, 49
3, 21388, Note_on_c, 0, 68, 44
3, 21605, Note_on_c, 0, 78, 43
3, 21606, Note_on_c, 0, 83, 51
3, 21611, Note_on_c, 0, 75, 57
3, 21620, Note_on_c, 0, 70, 55
3, 21623, Note_on_c, 0, 73, 0
3, 21627, Note_on_c, 0, 76, 0
3, 21628, Note_on_c, 0, 68, 0
3, 21845, Note_on_c, 0, 78, 0
3, 21846, Note_on_c, 0, 83, 0
3, 21846, Note_on_c, 0, 73, 49
3, 21851, Note_on_c, 0, 75, 0
3, 21860, Note_on_c, 0, 70, 0
3, 21862, Note_on_c, 0, 68, 48
3, 21864, Note_on_c, 0, 76, 50
3, 22084, Note_on_c, 0, 83, 48
3, 22086, Note_on_c, 0, 73, 0
3, 22086, Note_on_c, 0, 78, 53
3, 22098, Note_on_c, 0, 70, 39
3, 22102, Note_on_c, 0, 68, 0
3, 22103, Note_on_c, 0, 75, 49
3, 22104, Note_on_c, 0, 76, 0
3, 22324, Note_on_c, 0, 83, 0
3, 22326, Note_on_c, 0, 78, 0
3, 22329, Note_on_c, 0, 68, 43
3, 22338, Note_on_c, 0, 70, 0
3, 22342, Note_on_c, 0, 73, 53
3, 22343, Note_on_c, 0, 75, 0
3, 22346, Note_on_c, 0, 76, 51
3, 22521, Note_on_c, 0, 68, 0
3, 22534, Note_on_c, 0, 73, 0
3, 22538, Note_on_c, 0, 76, 0
3, 22567, Note_on_c, 0, 77, 52
3, 22567, Note_on_c, 0, 73, 59
3, 22573, Note_on_c, 0, 82, 44
3, 22584, Note_on_c, 0, 85, 55
3, 22807, Note_on_c, 0, 77, 0
3, 22807, Note_on_c, 0, 73, 0
3, 22808, Note_on_c, 0, 71, 53
3, 22811, Note_on_c, 0, 76, 57
3, 22813, Note_on_c, 0, 82, 0
3, 22814, Note_on_c, 0, 79, 55
3, 22824, Note_on_c, 0, 85, 0
3, 23042, Note_on_c, 0, 77, 48
3, 23048, Note_on_c, 0, 71, 0
3, 23051, Note_on_c, 0, 76, 0
3, 23054, Note_on_c, 0, 79, 0
3, 23058, Note_on_c, 0, 73, 46
3, 23060, Note_on_c, 0, 82, 45
3, 23061, Note_on_c, 0, 85, 54
3, 23274, Note_on_c, 0, 73, 0
3, 23282, Note_on_c, 0, 77, 0
3, 23297, Note_on_c, 0, 76, 49
3, 23298, Note_on_c, 0, 79, 57
3, 23300, Note_on_c, 0, 82, 0
3, 23301, Note_on_c, 0, 85, 0
3, 23301, Note_on_c, 0, 71, 55
3, 23521, Note_on_c, 0, 85, 58
3, 23524, Note_on_c, 0, 82, 42
3, 23531, Note_on_c, 0, 77, 51
3, 23532, Note_on_c, 0, 73, 46
3, 23537, Note_on_c, 0, 76, 0
3, 23538, Note_on_c, 0, 79, 0
3, 23541, Note_on_c, 0, 71, 0
3, 23761, Note_on_c, 0, 85, 0
3, 23764, Note_on_c, 0, 82, 0
3, 23771, Note_on_c, 0, 77, 0
3, 23772, Note_on_c, 0, 73, 0
3, 23772, Note_on_c, 0, 71, 42
3, 23780, Note_on_c, 0, 79, 56
3, 23780, Note_on_c, 0, 76, 53
3, 23964, Note_on_c, 0, 71, 0
3, 23972, Note_on_c, 0, 79, 0
3, 23972, Note_on_c, 0, 76, 0
3, 24008, Note_on_c, 0, 75, 59
3, 24022, Note_on_c, 0, 84, 55
3, 24027, Note_on_c, 0, 79, 42
3, 24244, Note_on_c, 0, 72, 39
3, 24248, Note_on_c, 0, 75, 0
3, 24255, Note_on_c, 0, 76, 47
3, 24262, Note_on_c, 0, 81, 43
3, 24267, Note_on_c, 0, 79, 0
3, 24484, Note_on_c, 0, 72, 0
3, 24484, Note_on_c, 0, 79, 50
3, 24495, Note_on_c, 0, 76, 0
3, 24502, Note_on_c, 0, 81, 0
3, 24503, Note_on_c, 0, 75, 54
3, 24723, Note_on_c, 0, 75, 0
3, 24724, Note_on_c, 0, 79, 0
3, 24724, Note_on_c, 0, 82, 47
3, 24724, Note_on_c, 0, 70, 42
3, 24725, Note_on_c, 0, 78, 55
3, 24742, Note_on_c, 0, 84, 0
3, 24743, Note_on_c, 0, 75, 42
3, 24959, Note_on_c, 0, 75, 0
3, 24960, Note_on_c, 0, 84, 43
3, 24964, Note_on_c, 0, 82, 0
3, 24964, Note_on_c, 0, 70, 0
3, 24965, Note_on_c, 0, 78, 0
3, 24975, Note_on_c, 0, 79, 44
3, 24978, Note_on_c, 0, 75, 57
3, 25200, Note_on_c, 0, 84, 0
3, 25201, Note_on_c, 0, 78, 50
3, 25215, Note_on_c, 0, 79, 0
3, 25215, Note_on_c, 0, 69, 50
3, 25218, Note_on_c, 0, 75, 0
3, 25223, Note_on_c, 0, 81, 57
3, 25393, Note_on_c, 0, 78, 0
3, 25407, Note_on_c, 0, 69, 0
3, 25415, Note_on_c, 0, 81, 0
3, 25451, Note_on_c, 0, 82, 56
3, 25459, Note_on_c, 0, 86, 46
3, 25465, Note_on_c, 0, 79, 41
3, 25660, Note_on_c, 0, 82, 0
3, 25680, Note_on_c, 0, 82, 43
3, 25688, Note_on_c, 0, 77, 56
3, 25699, Note_on_c, 0, 86, 0
3, 25700, Note_on_c, 0, 85, 43
3, 25705, Note_on_c, 0, 79, 0
3, 25920, Note_on_c, 0, 82, 0
3, 25926, Note_on_c, 0, 79, 40
3, 25928, Note_on_c, 0, 77, 0
3, 25931, Note_on_c, 0, 83, 49
3, 25938, Note_on_c, 0, 76, 39
3, 25940, Note_on_c, 0, 85, 0
3, 26153, Note_on_c, 0, 79, 0
3, 26171, Note_on_c, 0, 83, 0
3, 26172, Note_on_c, 0, 79, 54
3, 26178, Note_on_c, 0, 76, 0
3, 26179, Note_on_c, 0, 82, 57
3, 26182, Note_on_c, 0, 74, 50
3, 26400, Note_on_c, 0, 82, 0
3, 26412, Note_on_c, 0, 79, 0
3, 26419, Note_on_c, 0, 82, 56
3, 26419, Note_on_c, 0, 85, 47
3, 26422, Note_on_c, 0, 74, 0
3, 26424, Note_on_c, 0, 77, 50
3, 26425, Note_on_c, 0, 73, 55
3, 26643, Note_on_c, 0, 83, 57
3, 26650, Note_on_c, 0, 71, 58
3, 26659, Note_on_c, 0, 82, 0
3, 26659, Note_on_c, 0, 85, 0
3, 26660, Note_on_c, 0, 76, 39
3, 26663, Note_on_c, 0, 79, 47
3, 26664, Note_on_c, 0, 77, 0
3, 26665, Note_on_c, 0, 73, 0
3, 26883, Note_on_c, 0, 83, 0
3, 26890, Note_on_c, 0, 71, 0
3, 26900, Note_on_c, 0, 76, 0
3, 26903, Note_on_c, 0, 79, 0
3, 28341, Note_on_c, 0, 73, 48
3, 29527, Note_on_c, 0, 71, 50
3, 29541, Note_on_c, 0, 73, 0
3, 29765, Note_on_c, 0, 73, 46
3, 29767, Note_on_c, 0, 71, 0
3, 30480, Note_on_c, 0, 71, 49
3, 30485, Note_on_c, 0, 73, 0
3, 30720, Note_on_c, 0, 71, 0
3, 30731, Note_on_c, 0, 73, 45
3, 31211, Note_on_c, 0, 73, 0
3, 31218, Note_on_c, 0, 68, 45
3, 31458, Note_on_c, 0, 68, 0
3, 31459, Note_on_c, 0, 66, 54
3, 31699, Note_on_c, 0, 66, 0
3, 31709, Note_on_c, 0, 71, 43
3, 32169, Note_on_c, 0, 68, 51
3, 32189, Note_on_c, 0, 71, 0
3, 32649, Note_on_c, 0, 68, 0
3, 32660, Note_on_c, 0, 72, 50
3, 33380, Note_on_c, 0, 72, 0
3, 33385, Note_on_c, 0, 71, 40
3, 33625, Note_on_c, 0, 71, 0
3, 33626, Note_on_c, 0, 72, 57
3, 34100, Note_on_c, 0, 68, 49
3, 34106, Note_on_c, 0, 72, 0
3, 34332, Note_on_c, 0, 66, 57
3, 34340, Note_on_c, 0, 68, 0
3, 34569, Note_on_c, 0, 71, 44
3, 34572, Note_on_c, 0, 66, 0
3, 35040, Note_on_c, 0, 68, 41
3, 35049, Note_on_c, 0, 71, 0
3, 35520, Note_on_c, 0, 68, 0
3, 65768, Note_on_c, 0, 84, 50
3, 65771, Note_on_c, 0, 79, 40
3, 65782, Note_on_c, 0, 88, 48
3, 67328, Note_on_c, 0, 84, 0
3, 67331, Note_on_c, 0, 79, 0
3, 67342, Note_on_c, 0, 88, 0
3, 68168, Note_on_c, 0, 88, 37
3, 68172, Note_on_c, 0, 79, 32
3, 68179, Note_on_c, 0, 84, 43
3, 69248, Note_on_c, 0, 88, 0
3, 69252, Note_on_c, 0, 79, 0
3, 69259, Note_on_c, 0, 84, 0
3, 69616, Note_on_c, 0, 79, 35
3, 69618, Note_on_c, 0, 84, 45
3, 69627, Note_on_c, 0, 88, 48
3, 71656, Note_on_c, 0, 79, 0
3, 71658, Note_on_c, 0, 84, 0
3, 71667, Note_on_c, 0, 88, 0
3, 72492, Note_on_c, 0, 84, 49
3, 72495, Note_on_c, 0, 79, 47
3, 72506, Note_on_c, 0, 88, 40
3, 73572, Note_on_c, 0, 84, 0
3, 73575, Note_on_c, 0, 79, 0
3, 73586, Note_on_c, 0, 88, 0
3, 73921, Note_on_c, 0, 79, 43
3, 73940, Note_on_c, 0, 88, 43
3, 73941, Note_on_c, 0, 84, 31
3, 75961, Note_on_c, 0, 79, 0
3, 75980, Note_on_c, 0, 88, 0
3, 75981, Note_on_c, 0, 84, 0
3, 76813, Note_on_c, 0, 88, 47
3, 76822, Note_on_c, 0, 79, 35
3, 76828, Note_on_c, 0, 84, 40
3, 77893, Note_on_c, 0, 88, 0
3, 77902, Note_on_c, 0, 79, 0
3, 77908, Note_on_c, 0, 84, 0
3, 78244, Note_on_c, 0, 88, 30
3, 78252, Note_on_c, 0, 79, 48
3, 78253, Note_on_c, 0, 84, 41
3, 80284, Note_on_c, 0, 88, 0
3, 80292, Note_on_c, 0, 79, 0
3, 80293, Note_on_c, 0, 84, 0
3, 81122, Note_on_c, 0, 84, 45
3, 81129, Note_on_c, 0, 88, 37
3, 81144, Note_on_c, 0, 79, 37
3, 82202, Note_on_c, 0, 84, 0
3, 82209, Note_on_c, 0, 88, 0
3, 82224, Note_on_c, 0, 79, 0
3, 82570, Note_on_c, 0, 84, 40
3, 82573, Note_on_c, 0, 88, 50
3, 82584, Note_on_c, 0, 79, 46
3, 89050, Note_on_c, 0, 84, 0
3, 89053, Note_on_c, 0, 88, 0
3, 89064, Note_on_c, 0, 79, 0
3, 118090, Control_c, 0, 7, 127
3, 118565, Note_on_c, 0, 68, 40
3, 119045, Note_on_c, 0, 68, 0
3, 119063, Note_on_c, 0, 63, 46
3, 119300, Note_on_c, 0, 68, 56
3, 119303, Note_on_c, 0, 63, 0
3, 119418, Note_on_c, 0, 66, 56
3, 119420, Note_on_c, 0, 68, 0
3, 119466, Note_on_c, 0, 68, 56
3, 119508, Note_on_c, 0, 66, 0
3, 119537, Note_on_c, 0, 66, 48
3, 119556, Note_on_c, 0, 68, 0
3, 119763, Note_on_c, 0, 65, 54
3, 119777, Note_on_c, 0, 66, 0
3, 120003, Note_on_c, 0, 65, 0
3, 120027, Note_on_c, 0, 63, 44
3, 120503, Note_on_c, 0, 66, 43
3, 120507, Note_on_c, 0, 63, 0
3, 120743, Note_on_c, 0, 66, 0
3, 120748, Note_on_c, 0, 63, 54
3, 120965, Note_on_c, 0, 68, 54
3, 120988, Note_on_c, 0, 63, 0
3, 121445, Note_on_c, 0, 68, 0
3, 121459, Note_on_c, 0, 63, 49
3, 121699, Note_on_c, 0, 63, 0
3, 121699, Note_on_c, 0, 68, 46
3, 121816, Note_on_c, 0, 66, 49
3, 121819, Note_on_c, 0, 68, 0
3, 121866, Note_on_c, 0, 68, 59
3, 121906, Note_on_c, 0, 66, 0
3, 121948, Note_on_c, 0, 66, 47
3, 121956, Note_on_c, 0, 68, 0
3, 122181, Note_on_c, 0, 65, 42
3, 122188, Note_on_c, 0, 66, 0
3, 122410, Note_on_c, 0, 63, 41
3, 122421, Note_on_c, 0, 65, 0
3, 122888, Note_on_c, 0, 66, 58
3, 122890, Note_on_c, 0, 63, 0
3, 123128, Note_on_c, 0, 66, 0
3, 123133, Note_on_c, 0, 63, 43
3, 123373, Note_on_c, 0, 63, 0
3, 123375, Note_on_c, 0, 68, 49
3, 123843, Note_on_c, 0, 63, 50
3, 123855, Note_on_c, 0, 68, 0
3, 124320, Note_on_c, 0, 59, 39
3, 124323, Note_on_c, 0, 63, 0
3, 124560, Note_on_c, 0, 59, 0
3, 124573, Note_on_c, 0, 61, 59
3, 124813, Note_on_c, 0, 61, 0
3, 124825, Note_on_c, 0, 63, 50
3, 125051, Note_on_c, 0, 66, 44
3, 125065, Note_on_c, 0, 63, 0
3, 125291, Note_on_c, 0, 66, 0
3, 125298, Note_on_c, 0, 63, 43
3, 125776, Note_on_c, 0, 68, 39
3, 125778, Note_on_c, 0, 63, 0
3, 126256, Note_on_c, 0, 68, 0
3, 126262, Note_on_c, 0, 66, 54
3, 126727, Note_on_c, 0, 65, 48
3, 126742, Note_on_c, 0, 66, 0
3, 126967, Note_on_c, 0, 65, 0
3, 126969, Note_on_c, 0, 68, 43
3, 127209, Note_on_c, 0, 68, 0
3, 127211, Note_on_c, 0, 63, 43
3, 127691, Note_on_c, 0, 63, 0
3, 128196, Control_c, 0, 7, 75
3, 152183, Note_on_c, 0, 57, 72
3, 152186, Note_on_c, 0, 69, 60
3, 152663, Note_on_c, 0, 57, 0
3, 152666, Note_on_c, 0, 69, 0
3, 152666, Note_on_c, 0, 62, 55
3, 153130, Note_on_c, 0, 69, 54
3, 153135, Note_on_c, 0, 57, 53
3, 153146, Note_on_c, 0, 62, 0
3, 153610, Note_on_c, 0, 69, 0
3, 153615, Note_on_c, 0, 57, 0
3, 153621, Note_on_c, 0, 62, 63
3, 154097, Note_on_c, 0, 72, 70
3, 154100, Note_on_c, 0, 60, 72
3, 154101, Note_on_c, 0, 62, 0
3, 154560, Note_on_c, 0, 68, 77
3, 154577, Note_on_c, 0, 72, 0
3, 154580, Note_on_c, 0, 60, 0
3, 154583, Note_on_c, 0, 57, 73
3, 155040, Note_on_c, 0, 68, 0
3, 155053, Note_on_c, 0, 66, 80
3, 155063, Note_on_c, 0, 57, 0
3, 155063, Note_on_c, 0, 55, 71
3, 155522, Note_on_c, 0, 69, 53
3, 155533, Note_on_c, 0, 66, 0
3, 155540, Note_on_c, 0, 57, 70
3, 155543, Note_on_c, 0, 55, 0
3, 156002, Note_on_c, 0, 69, 0
3, 156016, Note_on_c, 0, 62, 70
3, 156020, Note_on_c, 0, 57, 0
3, 156491, Note_on_c, 0, 69, 62
3, 156496, Note_on_c, 0, 62, 0
3, 156501, Note_on_c, 0, 57, 72
3, 156971, Note_on_c, 0, 69, 0
3, 156981, Note_on_c, 0, 57, 0
3, 156981, Note_on_c, 0, 62, 64
3, 157461, Note_on_c, 0, 62, 0
3, 157467, Note_on_c, 0, 69, 69
3, 157468, Note_on_c, 0, 57, 69
3, 157941, Note_on_c, 0, 62, 68
3, 157947, Note_on_c, 0, 69, 0
3, 157948, Note_on_c, 0, 57, 0
3, 158411, Note_on_c, 0, 60, 67
3, 158415, Note_on_c, 0, 72, 79
3, 158421, Note_on_c, 0, 62, 0
3, 158885, Note_on_c, 0, 68, 81
3, 158891, Note_on_c, 0, 60, 0
3, 158895, Note_on_c, 0, 72, 0
3, 158905, Note_on_c, 0, 57, 81
3, 159365, Note_on_c, 0, 68, 0
3, 159374, Note_on_c, 0, 66, 69
3, 159383, Note_on_c, 0, 55, 69
3, 159385, Note_on_c, 0, 57, 0
3, 159854, Note_on_c, 0, 66, 0
3, 159863, Note_on_c, 0, 55, 0
3, 159868, Note_on_c, 0, 62, 67
3, 160252, Note_on_c, 0, 62, 0
3, 160328, Note_on_c, 0, 57, 69
3, 160344, Note_on_c, 0, 69, 65
3, 160712, Note_on_c, 0, 57, 0
3, 160728, Note_on_c, 0, 69, 0
3, 160809, Note_on_c, 0, 62, 81
3, 161193, Note_on_c, 0, 62, 0
3, 161286, Note_on_c, 0, 57, 83
3, 161287, Note_on_c, 0, 69, 85
3, 161670, Note_on_c, 0, 57, 0
3, 161671, Note_on_c, 0, 69, 0
3, 161770, Note_on_c, 0, 63, 84
3, 162154, Note_on_c, 0, 63, 0
3, 162240, Note_on_c, 0, 57, 76
3, 162267, Note_on_c, 0, 69, 65
3, 162624, Note_on_c, 0, 57, 0
3, 162651, Note_on_c, 0, 69, 0
3, 162732, Note_on_c, 0, 62, 68
3, 163116, Note_on_c, 0, 62, 0
3, 163200, Note_on_c, 0, 57, 84
3, 163223, Note_on_c, 0, 69, 69
3, 163584, Note_on_c, 0, 57, 0
3, 163607, Note_on_c, 0, 69, 0
3, 163693, Note_on_c, 0, 62, 84
3, 164077, Note_on_c, 0, 62, 0
3, 164174, Note_on_c, 0, 69, 83
3, 164183, Note_on_c, 0, 57, 81
3, 164558, Note_on_c, 0, 69, 0
3, 164567, Note_on_c, 0, 57, 0
3, 164651, Note_on_c, 0, 62, 80
3, 165035, Note_on_c, 0, 62, 0
3, 165139, Note_on_c, 0, 57, 85
3, 165143, Note_on_c, 0, 69, 65
3, 165523, Note_on_c, 0, 57, 0
3, 165527, Note_on_c, 0, 69, 0
3, 165614, Note_on_c, 0, 63, 83
3, 165998, Note_on_c, 0, 63, 0
3, 166082, Note_on_c, 0, 69, 82
3, 166103, Note_on_c, 0, 57, 75
3, 166466, Note_on_c, 0, 69, 0
3, 166487, Note_on_c, 0, 57, 0
3, 169440, Control_c, 0, 11, 64
3, 172331, Control_c, 0, 11, 65
3, 172331, Note_on_c, 0, 71, 66
3, 172332, Note_on_c, 0, 57, 65
3, 172347, Control_c, 0, 11, 66
3, 172362, Control_c, 0, 11, 67
3, 172378, Control_c, 0, 11, 68
3, 172394, Control_c, 0, 11, 69
3, 172409, Control_c, 0, 11, 70
3, 172425, Control_c, 0, 11, 71
3, 172440, Control_c, 0, 11, 72
3, 172456, Control_c, 0, 11, 73
3, 172471, Control_c, 0, 11, 74
3, 172487, Control_c, 0, 11, 75
3, 172503, Control_c, 0, 11, 76
3, 172518, Control_c, 0, 11, 77
3, 172534, Control_c, 0, 11, 78
3, 172550, Control_c, 0, 11, 79
3, 172565, Control_c, 0, 11, 80
3, 172581, Control_c, 0, 11, 81
3, 172597, Control_c, 0, 11, 82
3, 172612, Control_c, 0, 11, 83
3, 172628, Control_c, 0, 11, 84
3, 172643, Control_c, 0, 11, 85
3, 172659, Control_c, 0, 11, 86
3, 172675, Control_c, 0, 11, 87
3, 172690, Control_c, 0, 11, 88
3, 172706, Control_c, 0, 11, 89
3, 172722, Control_c, 0, 11, 90
3, 172737, Control_c, 0, 11, 91
3, 172753, Control_c, 0, 11, 92
3, 172769, Control_c, 0, 11, 93
3, 172784, Control_c, 0, 11, 94
3, 172800, Control_c, 0, 11, 95
3, 172815, Control_c, 0, 11, 96
3, 172831, Control_c, 0, 11, 97
3, 172846, Control_c, 0, 11, 98
3, 172862, Control_c, 0, 11, 99
3, 172878, Control_c, 0, 11, 100
3, 172893, Control_c, 0, 11, 101
3, 172909, Control_c, 0, 11, 102
3, 172925, Control_c, 0, 11, 103
3, 172940, Control_c, 0, 11, 104
3, 172956, Control_c, 0, 11, 105
3, 172972, Control_c, 0, 11, 106
3, 172987, Control_c, 0, 11, 107
3, 173003, Control_c, 0, 11, 108
3, 173018, Control_c, 0, 11, 109
3, 173034, Control_c, 0, 11, 110
3, 173050, Control_c, 0, 11, 111
3, 173051, Note_on_c, 0, 71, 0
3, 173061, Note_on_c, 0, 69, 80
3, 173065, Control_c, 0, 11, 112
3, 173081, Control_c, 0, 11, 113
3, 173097, Control_c, 0, 11, 114
3, 173112, Control_c, 0, 11, 115
3, 173128, Control_c, 0, 11, 116
3, 173144, Control_c, 0, 11, 117
3, 173159, Control_c, 0, 11, 118
3, 173175, Control_c, 0, 11, 119
3, 173190, Control_c, 0, 11, 120
3, 173206, Control_c, 0, 11, 121
3, 173221, Control_c, 0, 11, 122
3, 173237, Control_c, 0, 11, 123
3, 173253, Control_c, 0, 11, 124
3, 173268, Control_c, 0, 11, 125
3, 173284, Control_c, 0, 11, 126
3, 173285, Note_on_c, 0, 60, 73
3, 173292, Note_on_c, 0, 57, 0
3, 173293, Note_on_c, 0, 71, 67
3, 173301, Note_on_c, 0, 69, 0
3, 173765, Note_on_c, 0, 60, 0
3, 173773, Note_on_c, 0, 71, 0
3, 173776, Note_on_c, 0, 57, 83
3, 173778, Note_on_c, 0, 68, 79
3, 174008, Note_on_c, 0, 66, 78
3, 174018, Note_on_c, 0, 68, 0
3, 174248, Note_on_c, 0, 66, 0
3, 174256, Note_on_c, 0, 57, 0
3, 174256, Note_on_c, 0, 58, 65
3, 174266, Note_on_c, 0, 69, 79
3, 174743, Note_on_c, 0, 66, 82
3, 174746, Note_on_c, 0, 69, 0
3, 175024, Note_on_c, 0, 58, 0
3, 175127, Note_on_c, 0, 66, 0
3, 175209, Note_on_c, 0, 56, 83
3, 175225, Note_on_c, 0, 60, 78
3, 175227, Note_on_c, 0, 71, 69
3, 175940, Note_on_c, 0, 69, 80
3, 175947, Note_on_c, 0, 71, 0
3, 176169, Note_on_c, 0, 56, 0
3, 176178, Note_on_c, 0, 57, 74
3, 176180, Note_on_c, 0, 69, 0
3, 176181, Note_on_c, 0, 71, 82
3, 176656, Note_on_c, 0, 68, 66
3, 176661, Note_on_c, 0, 71, 0
3, 176896, Note_on_c, 0, 68, 0
3, 176901, Note_on_c, 0, 66, 67
3, 177128, Note_on_c, 0, 69, 75
3, 177131, Note_on_c, 0, 61, 68
3, 177135, Note_on_c, 0, 58, 80
3, 177138, Note_on_c, 0, 57, 0
3, 177141, Note_on_c, 0, 66, 0
3, 177145, Note_on_c, 0, 60, 0
3, 177600, Note_on_c, 0, 61, 0
3, 177600, Note_on_c, 0, 66, 76
3, 177608, Note_on_c, 0, 69, 0
3, 177615, Note_on_c, 0, 58, 0
3, 177620, Note_on_c, 0, 61, 66
3, 177888, Note_on_c, 0, 66, 0
3, 177908, Note_on_c, 0, 61, 0
3, 192015, Note_on_c, 0, 84, 48
3, 192481, Note_on_c, 0, 79, 44
3, 192961, Note_on_c, 0, 79, 0
3, 193455, Note_on_c, 0, 84, 0
3, 193926, Note_on_c, 0, 84, 54
3, 194413, Note_on_c, 0, 79, 39
3, 194893, Note_on_c, 0, 79, 0
3, 195366, Note_on_c, 0, 84, 0
3, 195858, Note_on_c, 0, 84, 45
3, 196339, Note_on_c, 0, 79, 48
3, 196819, Note_on_c, 0, 79, 0
3, 197298, Note_on_c, 0, 84, 0
3, 197787, Note_on_c, 0, 84, 57
3, 198253, Note_on_c, 0, 79, 47
3, 198733, Note_on_c, 0, 79, 0
3, 198747, Note_on_c, 0, 84, 0
3, 199213, Note_on_c, 0, 84, 47
3, 199706, Note_on_c, 0, 79, 58
3, 200173, Note_on_c, 0, 84, 0
3, 200186, Note_on_c, 0, 79, 0
3, 209291, Note_on_c, 0, 74, 45
3, 209301, Note_on_c, 0, 68, 54
3, 209305, Note_on_c, 0, 79, 44
3, 209329, Note_on_c, 0, 74, 0
3, 209339, Note_on_c, 0, 68, 0
3, 209343, Note_on_c, 0, 79, 0
3, 209379, Note_on_c, 0, 75, 56
3, 209381, Note_on_c, 0, 80, 85
3, 209390, Note_on_c, 0, 83, 46
3, 209394, Note_on_c, 0, 69, 53
3, 209417, Note_on_c, 0, 75, 0
3, 209419, Note_on_c, 0, 80, 0
3, 209428, Note_on_c, 0, 83, 0
3, 209432, Note_on_c, 0, 69, 0
3, 209473, Note_on_c, 0, 70, 53
3, 209473, Note_on_c, 0, 87, 52
3, 209478, Note_on_c, 0, 81, 89
3, 209493, Note_on_c, 0, 76, 47
3, 209511, Note_on_c, 0, 70, 0
3, 209511, Note_on_c, 0, 87, 0
3, 209516, Note_on_c, 0, 81, 0
3, 209531, Note_on_c, 0, 76, 0
3, 209575, Note_on_c, 0, 77, 56
3, 209585, Note_on_c, 0, 71, 52
3, 209588, Note_on_c, 0, 82, 98
3, 209595, Note_on_c, 0, 91, 52
3, 209613, Note_on_c, 0, 77, 0
3, 209623, Note_on_c, 0, 71, 0
3, 209626, Note_on_c, 0, 82, 0
3, 209633, Note_on_c, 0, 91, 0
3, 209670, Note_on_c, 0, 72, 70
3, 209677, Note_on_c, 0, 78, 64
3, 209681, Note_on_c, 0, 83, 92
3, 209683, Note_on_c, 0, 95, 49
3, 209708, Note_on_c, 0, 72, 0
3, 209715, Note_on_c, 0, 78, 0
3, 209719, Note_on_c, 0, 83, 0
3, 209721, Note_on_c, 0, 95, 0
3, 209765, Note_on_c, 0, 84, 95
3, 209769, Note_on_c, 0, 73, 64
3, 209779, Note_on_c, 0, 96, 64
3, 209780, Note_on_c, 0, 79, 63
3, 209796, Note_on_c, 0, 84, 0
3, 209800, Note_on_c, 0, 73, 0
3, 209811, Note_on_c, 0, 79, 0
3, 209826, Note_on_c, 0, 96, 0
3, 209853, Note_on_c, 0, 85, 90
3, 209859, Note_on_c, 0, 74, 64
3, 209862, Note_on_c, 0, 80, 68
3, 209885, Note_on_c, 0, 85, 0
3, 209891, Note_on_c, 0, 74, 0
3, 209894, Note_on_c, 0, 80, 0
3, 209920, Note_on_c, 0, 86, 92
3, 209923, Note_on_c, 0, 75, 68
3, 209926, Note_on_c, 0, 81, 81
3, 209952, Note_on_c, 0, 86, 0
3, 209955, Note_on_c, 0, 75, 0
3, 209958, Note_on_c, 0, 81, 0
3, 210004, Note_on_c, 0, 82, 75
3, 210004, Note_on_c, 0, 76, 88
3, 210027, Note_on_c, 0, 87, 89
3, 210035, Note_on_c, 0, 82, 0
3, 210035, Note_on_c, 0, 76, 0
3, 210058, Note_on_c, 0, 87, 0
3, 210086, Note_on_c, 0, 77, 87
3, 210092, Note_on_c, 0, 88, 86
3, 210097, Note_on_c, 0, 83, 79
3, 210118, Note_on_c, 0, 77, 0
3, 210124, Note_on_c, 0, 88, 0
3, 210129, Note_on_c, 0, 83, 0
3, 210162, Note_on_c, 0, 78, 88
3, 210173, Note_on_c, 0, 84, 93
3, 210176, Note_on_c, 0, 89, 93
3, 210194, Note_on_c, 0, 78, 0
3, 210205, Note_on_c, 0, 84, 0
3, 210208, Note_on_c, 0, 89, 0
3, 210240, Note_on_c, 0, 85, 84
3, 210252, Note_on_c, 0, 90, 81
3, 210259, Note_on_c, 0, 79, 78
3, 210287, Note_on_c, 0, 85, 0
3, 210299, Note_on_c, 0, 90, 0
3, 210306, Note_on_c, 0, 79, 0
3, 215944, Note_on_c, 0, 84, 86
3, 216004, Note_on_c, 0, 84, 0
3, 216024, Note_on_c, 0, 85, 91
3, 216084, Note_on_c, 0, 85, 0
3, 216088, Note_on_c, 0, 87, 84
3, 216143, Note_on_c, 0, 88, 80
3, 216148, Note_on_c, 0, 87, 0
3, 216184, Note_on_c, 0, 90, 89
3, 216203, Note_on_c, 0, 88, 0
3, 216243, Note_on_c, 0, 91, 96
3, 216244, Note_on_c, 0, 90, 0
3, 216339, Note_on_c, 0, 91, 0
3, 216738, Note_on_c, 0, 90, 101
3, 216747, Note_on_c, 0, 79, 108
3, 216843, Note_on_c, 0, 79, 0
3, 216858, Note_on_c, 0, 90, 0
3, 216865, Note_on_c, 0, 88, 100
3, 216977, Note_on_c, 0, 87, 95
3, 216985, Note_on_c, 0, 88, 0
3, 217073, Note_on_c, 0, 87, 0
3, 217162, Note_on_c, 0, 84, 92
3, 217212, Note_on_c, 0, 85, 99
3, 217222, Note_on_c, 0, 84, 0
3, 217269, Note_on_c, 0, 87, 104
3, 217272, Note_on_c, 0, 85, 0
3, 217329, Note_on_c, 0, 87, 0
3, 217333, Note_on_c, 0, 88, 101
3, 217393, Note_on_c, 0, 88, 0
3, 217401, Note_on_c, 0, 90, 111
3, 217449, Note_on_c, 0, 91, 94
3, 217461, Note_on_c, 0, 90, 0
3, 217545, Note_on_c, 0, 91, 0
3, 217945, Note_on_c, 0, 90, 102
3, 217945, Note_on_c, 0, 79, 109
3, 218041, Note_on_c, 0, 79, 0
3, 218046, Note_on_c, 0, 88, 95
3, 218065, Note_on_c, 0, 90, 0
3, 218166, Note_on_c, 0, 88, 0
3, 218170, Note_on_c, 0, 87, 95
3, 218410, Note_on_c, 0, 87, 0
3, 220525, Note_on_c, 0, 84, 92
3, 220583, Note_on_c, 0, 85, 107
3, 220585, Note_on_c, 0, 84, 0
3, 220639, Note_on_c, 0, 87, 100
3, 220643, Note_on_c, 0, 85, 0
3, 220698, Note_on_c, 0, 88, 100
3, 220699, Note_on_c, 0, 87, 0
3, 220758, Note_on_c, 0, 88, 0
3, 220762, Note_on_c, 0, 90, 108
3, 220809, Note_on_c, 0, 91, 84
3, 220822, Note_on_c, 0, 90, 0
3, 220905, Note_on_c, 0, 91, 0
3, 221300, Note_on_c, 0, 79, 91
3, 221301, Note_on_c, 0, 90, 106
3, 221396, Note_on_c, 0, 79, 0
3, 221421, Note_on_c, 0, 90, 0
3, 221422, Note_on_c, 0, 88, 111
3, 221542, Note_on_c, 0, 88, 0
3, 221544, Note_on_c, 0, 87, 106
3, 221640, Note_on_c, 0, 87, 0
3, 222185, Note_on_c, 0, 84, 101
3, 222245, Note_on_c, 0, 84, 0
3, 222251, Note_on_c, 0, 85, 100
3, 222303, Note_on_c, 0, 87, 99
3, 222311, Note_on_c, 0, 85, 0
3, 222363, Note_on_c, 0, 87, 0
3, 222363, Note_on_c, 0, 88, 102
3, 222423, Note_on_c, 0, 88, 0
3, 222440, Note_on_c, 0, 90, 99
3, 222500, Note_on_c, 0, 90, 0
3, 222506, Note_on_c, 0, 91, 96
3, 222602, Note_on_c, 0, 91, 0
3, 222965, Note_on_c, 0, 90, 104
3, 222988, Note_on_c, 0, 79, 93
3, 223084, Note_on_c, 0, 79, 0
3, 223085, Note_on_c, 0, 90, 0
3, 223099, Note_on_c, 0, 88, 94
3, 223200, Note_on_c, 0, 87, 104
3, 223219, Note_on_c, 0, 88, 0
3, 223296, Note_on_c, 0, 87, 0
3, 223393, Note_on_c, 0, 84, 103
3, 223453, Note_on_c, 0, 84, 0
3, 223456, Note_on_c, 0, 85, 104
3, 223516, Note_on_c, 0, 85, 0
3, 223524, Note_on_c, 0, 87, 110
3, 223573, Note_on_c, 0, 88, 105
3, 223584, Note_on_c, 0, 87, 0
3, 223633, Note_on_c, 0, 88, 0
3, 223635, Note_on_c, 0, 90, 104
3, 223695, Note_on_c, 0, 90, 0
3, 223708, Note_on_c, 0, 91, 89
3, 223804, Note_on_c, 0, 91, 0
3, 224169, Note_on_c, 0, 90, 99
3, 224185, Note_on_c, 0, 79, 105
3, 224281, Note_on_c, 0, 79, 0
3, 224285, Note_on_c, 0, 88, 91
3, 224289, Note_on_c, 0, 90, 0
3, 224405, Note_on_c, 0, 88, 0
3, 224414, Note_on_c, 0, 87, 97
3, 224510, Note_on_c, 0, 87, 0
3, 224646, Note_on_c, 0, 79, 82
3, 224652, Note_on_c, 0, 73, 84
3, 224667, Note_on_c, 0, 84, 81
3, 224677, Note_on_c, 0, 79, 0
3, 224683, Note_on_c, 0, 73, 0
3, 224698, Note_on_c, 0, 84, 0
3, 224730, Note_on_c, 0, 85, 104
3, 224737, Note_on_c, 0, 80, 85
3, 224745, Note_on_c, 0, 74, 101
3, 224762, Note_on_c, 0, 85, 0
3, 224769, Note_on_c, 0, 80, 0
3, 224777, Note_on_c, 0, 74, 0
3, 224802, Note_on_c, 0, 81, 105
3, 224819, Note_on_c, 0, 75, 91
3, 224824, Note_on_c, 0, 86, 98
3, 224834, Note_on_c, 0, 81, 0
3, 224851, Note_on_c, 0, 75, 0
3, 224856, Note_on_c, 0, 86, 0
3, 224885, Note_on_c, 0, 87, 98
3, 224886, Note_on_c, 0, 76, 103
3, 224887, Note_on_c, 0, 82, 98
3, 224916, Note_on_c, 0, 87, 0
3, 224917, Note_on_c, 0, 76, 0
3, 224918, Note_on_c, 0, 82, 0
3, 224961, Note_on_c, 0, 77, 120
3, 224971, Note_on_c, 0, 83, 104
3, 224983, Note_on_c, 0, 88, 109
3, 224993, Note_on_c, 0, 77, 0
3, 225003, Note_on_c, 0, 83, 0
3, 225015, Note_on_c, 0, 88, 0
3, 225052, Note_on_c, 0, 78, 115
3, 225059, Note_on_c, 0, 89, 127
3, 225064, Note_on_c, 0, 84, 116
3, 225084, Note_on_c, 0, 78, 0
3, 225091, Note_on_c, 0, 89, 0
3, 225096, Note_on_c, 0, 84, 0
3, 225121, Note_on_c, 0, 85, 109
3, 225127, Note_on_c, 0, 79, 114
3, 225133, Note_on_c, 0, 90, 105
3, 225229, Note_on_c, 0, 90, 0
3, 225241, Note_on_c, 0, 85, 0
3, 225247, Note_on_c, 0, 79, 0
3, 225371, Note_on_c, 0, 93, 114
3, 225491, Note_on_c, 0, 93, 0
3, 225496, Note_on_c, 0, 92, 114
3, 225616, Note_on_c, 0, 92, 0
3, 225624, Note_on_c, 0, 91, 108
3, 225720, Note_on_c, 0, 91, 0
3, 228484, Note_on_c, 0, 61, 87
3, 228495, Note_on_c, 0, 66, 96
3, 228496, Note_on_c, 0, 60, 92
3, 228505, Note_on_c, 0, 72, 84
3, 228515, Note_on_c, 0, 61, 0
3, 228526, Note_on_c, 0, 66, 0
3, 228527, Note_on_c, 0, 60, 0
3, 228536, Note_on_c, 0, 72, 0
3, 228561, Note_on_c, 0, 73, 82
3, 228579, Note_on_c, 0, 61, 84
3, 228581, Note_on_c, 0, 68, 86
3, 228589, Note_on_c, 0, 62, 89
3, 228593, Note_on_c, 0, 73, 0
3, 228611, Note_on_c, 0, 61, 0
3, 228613, Note_on_c, 0, 68, 0
3, 228621, Note_on_c, 0, 62, 0
3, 228645, Note_on_c, 0, 74, 101
3, 228650, Note_on_c, 0, 69, 93
3, 228651, Note_on_c, 0, 63, 91
3, 228662, Note_on_c, 0, 62, 84
3, 228677, Note_on_c, 0, 74, 0
3, 228682, Note_on_c, 0, 69, 0
3, 228683, Note_on_c, 0, 63, 0
3, 228694, Note_on_c, 0, 62, 0
3, 228724, Note_on_c, 0, 75, 96
3, 228724, Note_on_c, 0, 70, 97
3, 228741, Note_on_c, 0, 64, 94
3, 228743, Note_on_c, 0, 63, 96
3, 228755, Note_on_c, 0, 75, 0
3, 228755, Note_on_c, 0, 70, 0
3, 228772, Note_on_c, 0, 64, 0
3, 228774, Note_on_c, 0, 63, 0
3, 228811, Note_on_c, 0, 65, 104
3, 228816, Note_on_c, 0, 71, 89
3, 228821, Note_on_c, 0, 76, 85
3, 228827, Note_on_c, 0, 64, 89
3, 228843, Note_on_c, 0, 65, 0
3, 228848, Note_on_c, 0, 71, 0
3, 228853, Note_on_c, 0, 76, 0
3, 228859, Note_on_c, 0, 64, 0
3, 228891, Note_on_c, 0, 65, 100
3, 228894, Note_on_c, 0, 77, 92
3, 228902, Note_on_c, 0, 72, 96
3, 228903, Note_on_c, 0, 66, 97
3, 228923, Note_on_c, 0, 65, 0
3, 228926, Note_on_c, 0, 77, 0
3, 228934, Note_on_c, 0, 72, 0
3, 228935, Note_on_c, 0, 66, 0
3, 228967, Note_on_c, 0, 78, 95
3, 228968, Note_on_c, 0, 66, 94
3, 228977, Note_on_c, 0, 67, 91
3, 228987, Note_on_c, 0, 73, 90
3, 228998, Note_on_c, 0, 78, 0
3, 228999, Note_on_c, 0, 66, 0
3, 229008, Note_on_c, 0, 67, 0
3, 229018, Note_on_c, 0, 73, 0
3, 229041, Note_on_c, 0, 79, 107
3, 229047, Note_on_c, 0, 68, 110
3, 229051, Note_on_c, 0, 74, 106
3, 229061, Note_on_c, 0, 67, 105
3, 229073, Note_on_c, 0, 79, 0
3, 229079, Note_on_c, 0, 68, 0
3, 229083, Note_on_c, 0, 74, 0
3, 229093, Note_on_c, 0, 67, 0
3, 229125, Note_on_c, 0, 75, 108
3, 229130, Note_on_c, 0, 68, 103
3, 229143, Note_on_c, 0, 69, 112
3, 229148, Note_on_c, 0, 80, 92
3, 229157, Note_on_c, 0, 75, 0
3, 229162, Note_on_c, 0, 68, 0
3, 229175, Note_on_c, 0, 69, 0
3, 229180, Note_on_c, 0, 80, 0
3, 229200, Note_on_c, 0, 70, 98
3, 229202, Note_on_c, 0, 81, 110
3, 229204, Note_on_c, 0, 76, 103
3, 229222, Note_on_c, 0, 69, 106
3, 229231, Note_on_c, 0, 70, 0
3, 229233, Note_on_c, 0, 81, 0
3, 229235, Note_on_c, 0, 76, 0
3, 229253, Note_on_c, 0, 69, 0
3, 229280, Note_on_c, 0, 70, 102
3, 229301, Note_on_c, 0, 71, 99
3, 229303, Note_on_c, 0, 82, 109
3, 229308, Note_on_c, 0, 77, 109
3, 229312, Note_on_c, 0, 70, 0
3, 229333, Note_on_c, 0, 71, 0
3, 229335, Note_on_c, 0, 82, 0
3, 229340, Note_on_c, 0, 77, 0
3, 229370, Note_on_c, 0, 78, 98
3, 229374, Note_on_c, 0, 72, 100
3, 229378, Note_on_c, 0, 71, 105
3, 229388, Note_on_c, 0, 83, 118
3, 229402, Note_on_c, 0, 78, 0
3, 229406, Note_on_c, 0, 72, 0
3, 229410, Note_on_c, 0, 71, 0
3, 229420, Note_on_c, 0, 83, 0
3, 229442, Note_on_c, 0, 72, 110
3, 229448, Note_on_c, 0, 84, 105
3, 229451, Note_on_c, 0, 73, 101
3, 229459, Note_on_c, 0, 79, 107
3, 229473, Note_on_c, 0, 72, 0
3, 229479, Note_on_c, 0, 84, 0
3, 229482, Note_on_c, 0, 73, 0
3, 229490, Note_on_c, 0, 79, 0
3, 229522, Note_on_c, 0, 80, 114
3, 229531, Note_on_c, 0, 85, 118
3, 229531, Note_on_c, 0, 74, 106
3, 229543, Note_on_c, 0, 73, 112
3, 229554, Note_on_c, 0, 80, 0
3, 229563, Note_on_c, 0, 85, 0
3, 229563, Note_on_c, 0, 74, 0
3, 229575, Note_on_c, 0, 73, 0
3, 229602, Note_on_c, 0, 74, 107
3, 229613, Note_on_c, 0, 81, 113
3, 229618, Note_on_c, 0, 75, 109
3, 229624, Note_on_c, 0, 86, 120
3, 229634, Note_on_c, 0, 74, 0
3, 229645, Note_on_c, 0, 81, 0
3, 229650, Note_on_c, 0, 75, 0
3, 229656, Note_on_c, 0, 86, 0
3, 229681, Note_on_c, 0, 75, 117
3, 229700, Note_on_c, 0, 82, 106
3, 229704, Note_on_c, 0, 87, 117
3, 229705, Note_on_c, 0, 76, 119
3, 229712, Note_on_c, 0, 75, 0
3, 229731, Note_on_c, 0, 82, 0
3, 229735, Note_on_c, 0, 87, 0
3, 229736, Note_on_c, 0, 76, 0
3, 229761, Note_on_c, 0, 83, 116
3, 229772, Note_on_c, 0, 76, 112
3, 229776, Note_on_c, 0, 88, 122
3, 229787, Note_on_c, 0, 77, 120
3, 229793, Note_on_c, 0, 83, 0
3, 229804, Note_on_c, 0, 76, 0
3, 229808, Note_on_c, 0, 88, 0
3, 229819, Note_on_c, 0, 77, 0
3, 229848, Note_on_c, 0, 89, 123
3, 229854, Note_on_c, 0, 77, 125
3, 229857, Note_on_c, 0, 78, 113
3, 229857, Note_on_c, 0, 84, 115
3, 229880, Note_on_c, 0, 89, 0
3, 229886, Note_on_c, 0, 77, 0
3, 229889, Note_on_c, 0, 78, 0
3, 229889, Note_on_c, 0, 84, 0
3, 229920, Note_on_c, 0, 79, 116
3, 229937, Note_on_c, 0, 90, 113
3, 229937, Note_on_c, 0, 85, 123
3, 230033, Note_on_c, 0, 90, 0
3, 230040, Note_on_c, 0, 79, 0
3, 230057, Note_on_c, 0, 85, 0
3, 230186, Note_on_c, 0, 93, 123
3, 230299, Note_on_c, 0, 92, 105
3, 230306, Note_on_c, 0, 93, 0
3, 230419, Note_on_c, 0, 92, 0
3, 230425, Note_on_c, 0, 91, 104
3, 230521, Note_on_c, 0, 91, 0
3, 233221, Note_on_c, 0, 84, 111
3, 233281, Note_on_c, 0, 84, 0
3, 233308, Note_on_c, 0, 85, 123
3, 233365, Note_on_c, 0, 87, 116
3, 233368, Note_on_c, 0, 85, 0
3, 233407, Note_on_c, 0, 88, 120
3, 233425, Note_on_c, 0, 87, 0
3, 233467, Note_on_c, 0, 88, 0
3, 233474, Note_on_c, 0, 90, 121
3, 233529, Note_on_c, 0, 91, 84
3, 233534, Note_on_c, 0, 90, 0
3, 233625, Note_on_c, 0, 91, 0
3, 234018, Note_on_c, 0, 79, 94
3, 234024, Note_on_c, 0, 90, 91
3, 234114, Note_on_c, 0, 79, 0
3, 234129, Note_on_c, 0, 88, 103
3, 234144, Note_on_c, 0, 90, 0
3, 234249, Note_on_c, 0, 88, 0
3, 234255, Note_on_c, 0, 87, 104
3, 234351, Note_on_c, 0, 87, 0
3, 234480, Note_on_c, 0, 73, 87
3, 234498, Note_on_c, 0, 84, 93
3, 234506, Note_on_c, 0, 79, 79
3, 234511, Note_on_c, 0, 73, 0
3, 234529, Note_on_c, 0, 84, 0
3, 234537, Note_on_c, 0, 79, 0
3, 234563, Note_on_c, 0, 80, 103
3, 234572, Note_on_c, 0, 85, 99
3, 234576, Note_on_c, 0, 74, 92
3, 234595, Note_on_c, 0, 80, 0
3, 234604, Note_on_c, 0, 85, 0
3, 234608, Note_on_c, 0, 74, 0
3, 234649, Note_on_c, 0, 75, 94
3, 234650, Note_on_c, 0, 81, 110
3, 234658, Note_on_c, 0, 86, 95
3, 234681, Note_on_c, 0, 75, 0
3, 234682, Note_on_c, 0, 81, 0
3, 234690, Note_on_c, 0, 86, 0
3, 234734, Note_on_c, 0, 82, 98
3, 234735, Note_on_c, 0, 76, 108
3, 234737, Note_on_c, 0, 87, 116
3, 234765, Note_on_c, 0, 82, 0
3, 234766, Note_on_c, 0, 76, 0
3, 234768, Note_on_c, 0, 87, 0
3, 234802, Note_on_c, 0, 83, 113
3, 234810, Note_on_c, 0, 77, 120
3, 234815, Note_on_c, 0, 88, 122
3, 234834, Note_on_c, 0, 83, 0
3, 234842, Note_on_c, 0, 77, 0
3, 234847, Note_on_c, 0, 88, 0
3, 234880, Note_on_c, 0, 84, 124
3, 234886, Note_on_c, 0, 89, 127
3, 234902, Note_on_c, 0, 78, 117
3, 234912, Note_on_c, 0, 84, 0
3, 234918, Note_on_c, 0, 89, 0
3, 234934, Note_on_c, 0, 78, 0
3, 234960, Note_on_c, 0, 85, 120
3, 234962, Note_on_c, 0, 90, 123
3, 234976, Note_on_c, 0, 79, 120
3, 235058, Note_on_c, 0, 90, 0
3, 235080, Note_on_c, 0, 85, 0
3, 235096, Note_on_c, 0, 79, 0
3, 235200, Note_on_c, 0, 93, 106
3, 235320, Note_on_c, 0, 93, 0
3, 235323, Note_on_c, 0, 92, 113
3, 235443, Note_on_c, 0, 92, 0
3, 235455, Note_on_c, 0, 91, 109
3, 235551, Note_on_c, 0, 91, 0
3, 239706, Note_on_c, 0, 84, 114
3, 239766, Note_on_c, 0, 84, 0
3, 239787, Note_on_c, 0, 85, 116
3, 239840, Note_on_c, 0, 87, 108
3, 239847, Note_on_c, 0, 85, 0
3, 239890, Note_on_c, 0, 88, 115
3, 239900, Note_on_c, 0, 87, 0
3, 239950, Note_on_c, 0, 88, 0
3, 239950, Note_on_c, 0, 90, 111
3, 240010, Note_on_c, 0, 90, 0
3, 240026, Note_on_c, 0, 91, 92
3, 240122, Note_on_c, 0, 91, 0
3, 240491, Note_on_c, 0, 90, 101
3, 240492, Note_on_c, 0, 79, 99
3, 240588, Note_on_c, 0, 79, 0
3, 240611, Note_on_c, 0, 90, 0
3, 240611, Note_on_c, 0, 88, 111
3, 240731, Note_on_c, 0, 88, 0
3, 240741, Note_on_c, 0, 87, 100
3, 240837, Note_on_c, 0, 87, 0
3, 243080, Note_on_c, 0, 84, 93
3, 243140, Note_on_c, 0, 84, 0
3, 243148, Note_on_c, 0, 85, 108
3, 243194, Note_on_c, 0, 87, 111
3, 243208, Note_on_c, 0, 85, 0
3, 243254, Note_on_c, 0, 87, 0
3, 243257, Note_on_c, 0, 88, 108
3, 243300, Note_on_c, 0, 90, 110
3, 243317, Note_on_c, 0, 88, 0
3, 243360, Note_on_c, 0, 90, 0
3, 243384, Note_on_c, 0, 91, 80
3, 243480, Note_on_c, 0, 91, 0
3, 243846, Note_on_c, 0, 79, 95
3, 243852, Note_on_c, 0, 90, 105
3, 243942, Note_on_c, 0, 79, 0
3, 243967, Note_on_c, 0, 88, 99
3, 243972, Note_on_c, 0, 90, 0
3, 244085, Note_on_c, 0, 87, 110
3, 244087, Note_on_c, 0, 88, 0
3, 244181, Note_on_c, 0, 87, 0
3, 244284, Note_on_c, 0, 84, 94
3, 244344, Note_on_c, 0, 84, 0
3, 244346, Note_on_c, 0, 85, 97
3, 244384, Note_on_c, 0, 87, 105
3, 244406, Note_on_c, 0, 85, 0
3, 244444, Note_on_c, 0, 87, 0
3, 244445, Note_on_c, 0, 88, 94
3, 244505, Note_on_c, 0, 88, 0
3, 244521, Note_on_c, 0, 90, 97
3, 244562, Note_on_c, 0, 91, 80
3, 244581, Note_on_c, 0, 90, 0
3, 244658, Note_on_c, 0, 91, 0
3, 245046, Note_on_c, 0, 79, 99
3, 245051, Note_on_c, 0, 90, 108
3, 245142, Note_on_c, 0, 79, 0
3, 245162, Note_on_c, 0, 88, 103
3, 245171, Note_on_c, 0, 90, 0
3, 245282, Note_on_c, 0, 88, 0
3, 245296, Note_on_c, 0, 87, 106
3, 245392, Note_on_c, 0, 87, 0
3, 245949, Note_on_c, 0, 84, 105
3, 246009, Note_on_c, 0, 84, 0
3, 246019, Note_on_c, 0, 85, 96
3, 246060, Note_on_c, 0, 87, 103
3, 246079, Note_on_c, 0, 85, 0
3, 246120, Note_on_c, 0, 87, 0
3, 246141, Note_on_c, 0, 88, 97
3, 246192, Note_on_c, 0, 90, 104
3, 246201, Note_on_c, 0, 88, 0
3, 246252, Note_on_c, 0, 90, 0
3, 246259, Note_on_c, 0, 91, 96
3, 246355, Note_on_c, 0, 91, 0
3, 246724, Note_on_c, 0, 79, 111
3, 246738, Note_on_c, 0, 90, 96
3, 246820, Note_on_c, 0, 79, 0
3, 246842, Note_on_c, 0, 88, 108
3, 246858, Note_on_c, 0, 90, 0
3, 246962, Note_on_c, 0, 88, 0
3, 246962, Note_on_c, 0, 87, 101
3, 247058, Note_on_c, 0, 87, 0
3, 247148, Note_on_c, 0, 84, 101
3, 247205, Note_on_c, 0, 85, 106
3, 247208, Note_on_c, 0, 84, 0
3, 247265, Note_on_c, 0, 85, 0
3, 247267, Note_on_c, 0, 87, 93
3, 247327, Note_on_c, 0, 87, 0
3, 247328, Note_on_c, 0, 88, 93
3, 247385, Note_on_c, 0, 90, 95
3, 247388, Note_on_c, 0, 88, 0
3, 247445, Note_on_c, 0, 90, 0
3, 247446, Note_on_c, 0, 91, 78
3, 247542, Note_on_c, 0, 91, 0
3, 247922, Note_on_c, 0, 90, 98
3, 247931, Note_on_c, 0, 79, 97
3, 248027, Note_on_c, 0, 79, 0
3, 248041, Note_on_c, 0, 88, 109
3, 248042, Note_on_c, 0, 90, 0
3, 248161, Note_on_c, 0, 88, 0
3, 248166, Note_on_c, 0, 87, 93
3, 248262, Note_on_c, 0, 87, 0
3, 248655, Note_on_c, 0, 89, 111
3, 248728, Note_on_c, 0, 90, 108
3, 248735, Note_on_c, 0, 89, 0
3, 248807, Note_on_c, 0, 90, 0
3, 248817, Note_on_c, 0, 96, 116
3, 248825, Note_on_c, 0, 89, 113
3, 248905, Note_on_c, 0, 89, 0
3, 248908, Note_on_c, 0, 84, 122
3, 248913, Note_on_c, 0, 96, 0
3, 248987, Note_on_c, 0, 88, 108
3, 248988, Note_on_c, 0, 84, 0
3, 248988, Note_on_c, 0, 89, 124
3, 249059, Note_on_c, 0, 78, 107
3, 249066, Note_on_c, 0, 88, 0
3, 249084, Note_on_c, 0, 89, 0
3, 249134, Note_on_c, 0, 77, 124
3, 249139, Note_on_c, 0, 78, 0
3, 249374, Note_on_c, 0, 77, 0
3, 250823, Note_on_c, 0, 89, 118
3, 250903, Note_on_c, 0, 89, 0
3, 250903, Note_on_c, 0, 90, 122
3, 250965, Note_on_c, 0, 96, 123
3, 250982, Note_on_c, 0, 90, 0
3, 250988, Note_on_c, 0, 89, 124
3, 251049, Note_on_c, 0, 84, 107
3, 251061, Note_on_c, 0, 96, 0
3, 251068, Note_on_c, 0, 89, 0
3, 251122, Note_on_c, 0, 88, 119
3, 251129, Note_on_c, 0, 84, 0
3, 251141, Note_on_c, 0, 89, 108
3, 251201, Note_on_c, 0, 88, 0
3, 251203, Note_on_c, 0, 78, 109
3, 251237, Note_on_c, 0, 89, 0
3, 251283, Note_on_c, 0, 78, 0
3, 251295, Note_on_c, 0, 77, 114
3, 251535, Note_on_c, 0, 77, 0
3, 253447, Note_on_c, 0, 89, 104
3, 253522, Note_on_c, 0, 90, 114
3, 253527, Note_on_c, 0, 89, 0
3, 253601, Note_on_c, 0, 90, 0
3, 253609, Note_on_c, 0, 89, 105
3, 253613, Note_on_c, 0, 96, 104
3, 253689, Note_on_c, 0, 89, 0
3, 253702, Note_on_c, 0, 84, 119
3, 253709, Note_on_c, 0, 96, 0
3, 253765, Note_on_c, 0, 89, 107
3, 253782, Note_on_c, 0, 84, 0
3, 253787, Note_on_c, 0, 88, 108
3, 253846, Note_on_c, 0, 78, 112
3, 253861, Note_on_c, 0, 89, 0
3, 253866, Note_on_c, 0, 88, 0
3, 253926, Note_on_c, 0, 78, 0
3, 253926, Note_on_c, 0, 77, 116
3, 254166, Note_on_c, 0, 77, 0
3, 255843, Note_on_c, 0, 90, 115
3, 255962, Note_on_c, 0, 81, 112
3, 255963, Note_on_c, 0, 90, 0
3, 256082, Note_on_c, 0, 81, 0
3, 256333, Note_on_c, 0, 87, 123
3, 256453, Note_on_c, 0, 87, 0
3, 256459, Note_on_c, 0, 84, 116
3, 256579, Note_on_c, 0, 84, 0
3, 261615, Note_on_c, 0, 87, 104
3, 261735, Note_on_c, 0, 87, 0
3, 261749, Note_on_c, 0, 84, 110
3, 261869, Note_on_c, 0, 84, 0
3, 262588, Note_on_c, 0, 90, 112
3, 262697, Note_on_c, 0, 81, 123
3, 262708, Note_on_c, 0, 90, 0
3, 262817, Note_on_c, 0, 81, 0
3, 263057, Note_on_c, 0, 87, 108
3, 263174, Note_on_c, 0, 84, 111
3, 263177, Note_on_c, 0, 87, 0
3, 263294, Note_on_c, 0, 84, 0
3, 263541, Note_on_c, 0, 90, 122
3, 263621, Note_on_c, 0, 90, 0
3, 263688, Note_on_c, 0, 85, 112
3, 263768, Note_on_c, 0, 85, 0
3, 263854, Note_on_c, 0, 90, 113
3, 263934, Note_on_c, 0, 90, 0
3, 264023, Note_on_c, 0, 84, 119
3, 264103, Note_on_c, 0, 84, 0
3, 264166, Note_on_c, 0, 87, 122
3, 264246, Note_on_c, 0, 87, 0
3, 264328, Note_on_c, 0, 84, 118
3, 264408, Note_on_c, 0, 84, 0
3, 277684, Note_on_c, 0, 70, 76
3, 277694, Note_on_c, 0, 82, 85
3, 277702, Note_on_c, 0, 75, 82
3, 277804, Note_on_c, 0, 70, 0
3, 277814, Note_on_c, 0, 82, 0
3, 277822, Note_on_c, 0, 75, 0
3, 278169, Note_on_c, 0, 82, 85
3, 278177, Note_on_c, 0, 75, 85
3, 278185, Note_on_c, 0, 70, 81
3, 278289, Note_on_c, 0, 82, 0
3, 278297, Note_on_c, 0, 75, 0
3, 278305, Note_on_c, 0, 70, 0
3, 278657, Note_on_c, 0, 82, 85
3, 278659, Note_on_c, 0, 75, 67
3, 278660, Note_on_c, 0, 70, 68
3, 278777, Note_on_c, 0, 82, 0
3, 278779, Note_on_c, 0, 75, 0
3, 278780, Note_on_c, 0, 70, 0
3, 279129, Note_on_c, 0, 70, 85
3, 279130, Note_on_c, 0, 75, 73
3, 279137, Note_on_c, 0, 82, 73
3, 279249, Note_on_c, 0, 70, 0
3, 279250, Note_on_c, 0, 75, 0
3, 279257, Note_on_c, 0, 82, 0
3, 279600, Note_on_c, 0, 75, 67
3, 279607, Note_on_c, 0, 70, 69
3, 279613, Note_on_c, 0, 82, 65
3, 279720, Note_on_c, 0, 75, 0
3, 279727, Note_on_c, 0, 70, 0
3, 279733, Note_on_c, 0, 82, 0
3, 279840, Note_on_c, 0, 75, 95
3, 279913, Note_on_c, 0, 78, 95
3, 279916, Note_on_c, 0, 77, 102
3, 279930, Note_on_c, 0, 75, 0
3, 279964, Note_on_c, 0, 75, 100
3, 280003, Note_on_c, 0, 78, 0
3, 280006, Note_on_c, 0, 77, 0
3, 280021, Note_on_c, 0, 78, 96
3, 280033, Note_on_c, 0, 77, 108
3, 280054, Note_on_c, 0, 75, 0
3, 280094, Note_on_c, 0, 75, 92
3, 280111, Note_on_c, 0, 78, 0
3, 280123, Note_on_c, 0, 77, 0
3, 280144, Note_on_c, 0, 78, 109
3, 280160, Note_on_c, 0, 77, 99
3, 280182, Note_on_c, 0, 75, 0
3, 280201, Note_on_c, 0, 75, 93
3, 280234, Note_on_c, 0, 78, 0
3, 280241, Note_on_c, 0, 77, 0
3, 280260, Note_on_c, 0, 77, 111
3, 280281, Note_on_c, 0, 78, 106
3, 280291, Note_on_c, 0, 75, 0
3, 280333, Note_on_c, 0, 75, 108
3, 280350, Note_on_c, 0, 77, 0
3, 280370, Note_on_c, 0, 78, 0
3, 280389, Note_on_c, 0, 78, 104
3, 280390, Note_on_c, 0, 77, 96
3, 280423, Note_on_c, 0, 75, 0
3, 280466, Note_on_c, 0, 75, 95
3, 280479, Note_on_c, 0, 78, 0
3, 280480, Note_on_c, 0, 77, 0
3, 280514, Note_on_c, 0, 78, 98
3, 280523, Note_on_c, 0, 77, 106
3, 280552, Note_on_c, 0, 75, 0
3, 280571, Note_on_c, 0, 75, 106
3, 280604, Note_on_c, 0, 78, 0
3, 280613, Note_on_c, 0, 77, 0
3, 280640, Note_on_c, 0, 78, 97
3, 280643, Note_on_c, 0, 77, 111
3, 280661, Note_on_c, 0, 75, 0
3, 280685, Note_on_c, 0, 75, 95
3, 280721, Note_on_c, 0, 77, 0
3, 280724, Note_on_c, 0, 78, 0
3, 280740, Note_on_c, 0, 77, 109
3, 280743, Note_on_c, 0, 78, 102
3, 280775, Note_on_c, 0, 75, 0
3, 280800, Note_on_c, 0, 77, 0
3, 280801, Note_on_c, 0, 75, 91
3, 280803, Note_on_c, 0, 78, 0
3, 280921, Note_on_c, 0, 75, 0
3, 281527, Note_on_c, 0, 82, 66
3, 281528, Note_on_c, 0, 70, 70
3, 281529, Note_on_c, 0, 75, 68
3, 281647, Note_on_c, 0, 82, 0
3, 281648, Note_on_c, 0, 70, 0
3, 281649, Note_on_c, 0, 75, 0
3, 282005, Note_on_c, 0, 70, 79
3, 282019, Note_on_c, 0, 75, 72
3, 282026, Note_on_c, 0, 82, 67
3, 282125, Note_on_c, 0, 70, 0
3, 282139, Note_on_c, 0, 75, 0
3, 282146, Note_on_c, 0, 82, 0
3, 282482, Note_on_c, 0, 70, 77
3, 282484, Note_on_c, 0, 75, 73
3, 282507, Note_on_c, 0, 82, 67
3, 282602, Note_on_c, 0, 70, 0
3, 282604, Note_on_c, 0, 75, 0
3, 282627, Note_on_c, 0, 82, 0
3, 282965, Note_on_c, 0, 75, 82
3, 282975, Note_on_c, 0, 70, 65
3, 282987, Note_on_c, 0, 82, 81
3, 283085, Note_on_c, 0, 75, 0
3, 283095, Note_on_c, 0, 70, 0
3, 283107, Note_on_c, 0, 82, 0
3, 283442, Note_on_c, 0, 75, 77
3, 283451, Note_on_c, 0, 70, 70
3, 283454, Note_on_c, 0, 82, 67
3, 283562, Note_on_c, 0, 75, 0
3, 283571, Note_on_c, 0, 70, 0
3, 283574, Note_on_c, 0, 82, 0
3, 283921, Note_on_c, 0, 82, 69
3, 283924, Note_on_c, 0, 75, 73
3, 283927, Note_on_c, 0, 70, 68
3, 284041, Note_on_c, 0, 82, 0
3, 284044, Note_on_c, 0, 75, 0
3, 284047, Note_on_c, 0, 70, 0
3, 284160, Note_on_c, 0, 75, 109
3, 284232, Note_on_c, 0, 77, 101
3, 284233, Note_on_c, 0, 78, 111
3, 284250, Note_on_c, 0, 75, 0
3, 284296, Note_on_c, 0, 75, 98
3, 284322, Note_on_c, 0, 77, 0
3, 284323, Note_on_c, 0, 78, 0
3, 284340, Note_on_c, 0, 78, 107
3, 284348, Note_on_c, 0, 77, 95
3, 284386, Note_on_c, 0, 75, 0
3, 284421, Note_on_c, 0, 75, 92
3, 284430, Note_on_c, 0, 78, 0
3, 284438, Note_on_c, 0, 77, 0
3, 284473, Note_on_c, 0, 77, 96
3, 284475, Note_on_c, 0, 78, 94
3, 284511, Note_on_c, 0, 75, 0
3, 284548, Note_on_c, 0, 75, 99
3, 284563, Note_on_c, 0, 77, 0
3, 284565, Note_on_c, 0, 78, 0
3, 284582, Note_on_c, 0, 78, 110
3, 284588, Note_on_c, 0, 77, 108
3, 284631, Note_on_c, 0, 75, 0
3, 284651, Note_on_c, 0, 75, 93
3, 284672, Note_on_c, 0, 78, 0
3, 284678, Note_on_c, 0, 77, 0
3, 284712, Note_on_c, 0, 78, 110
3, 284726, Note_on_c, 0, 77, 95
3, 284741, Note_on_c, 0, 75, 0
3, 284764, Note_on_c, 0, 75, 104
3, 284802, Note_on_c, 0, 78, 0
3, 284816, Note_on_c, 0, 77, 0
3, 284822, Note_on_c, 0, 78, 109
3, 284840, Note_on_c, 0, 77, 92
3, 284854, Note_on_c, 0, 75, 0
3, 284883, Note_on_c, 0, 75, 93
3, 284912, Note_on_c, 0, 78, 0
3, 284930, Note_on_c, 0, 77, 0
3, 284944, Note_on_c, 0, 78, 96
3, 284958, Note_on_c, 0, 77, 108
3, 284973, Note_on_c, 0, 75, 0
3, 285006, Note_on_c, 0, 75, 110
3, 285034, Note_on_c, 0, 78, 0
3, 285048, Note_on_c, 0, 77, 0
3, 285079, Note_on_c, 0, 78, 108
3, 285088, Note_on_c, 0, 77, 105
3, 285096, Note_on_c, 0, 75, 0
3, 285139, Note_on_c, 0, 78, 0
3, 285148, Note_on_c, 0, 77, 0
3, 285361, Note_on_c, 0, 70, 66
3, 285380, Note_on_c, 0, 75, 74
3, 285385, Note_on_c, 0, 82, 79
3, 285481, Note_on_c, 0, 70, 0
3, 285500, Note_on_c, 0, 75, 0
3, 285505, Note_on_c, 0, 82, 0
3, 285841, Note_on_c, 0, 75, 71
3, 285854, Note_on_c, 0, 82, 67
3, 285859, Note_on_c, 0, 70, 78
3, 285961, Note_on_c, 0, 75, 0
3, 285974, Note_on_c, 0, 82, 0
3, 285979, Note_on_c, 0, 70, 0
3, 286326, Note_on_c, 0, 75, 82
3, 286328, Note_on_c, 0, 70, 79
3, 286335, Note_on_c, 0, 82, 77
3, 286446, Note_on_c, 0, 75, 0
3, 286448, Note_on_c, 0, 70, 0
3, 286455, Note_on_c, 0, 82, 0
3, 286573, Note_on_c, 0, 75, 104
3, 286626, Note_on_c, 0, 77, 108
3, 286644, Note_on_c, 0, 78, 99
3, 286663, Note_on_c, 0, 75, 0
3, 286702, Note_on_c, 0, 75, 98
3, 286716, Note_on_c, 0, 77, 0
3, 286727, Note_on_c, 0, 78, 0
3, 286741, Note_on_c, 0, 77, 108
3, 286747, Note_on_c, 0, 78, 94
3, 286787, Note_on_c, 0, 75, 0
3, 286806, Note_on_c, 0, 75, 110
3, 286831, Note_on_c, 0, 77, 0
3, 286837, Note_on_c, 0, 78, 0
3, 286871, Note_on_c, 0, 77, 92
3, 286883, Note_on_c, 0, 78, 105
3, 286896, Note_on_c, 0, 75, 0
3, 286921, Note_on_c, 0, 75, 107
3, 286961, Note_on_c, 0, 77, 0
3, 286973, Note_on_c, 0, 78, 0
3, 286997, Note_on_c, 0, 77, 110
3, 287007, Note_on_c, 0, 78, 97
3, 287011, Note_on_c, 0, 75, 0
3, 287063, Note_on_c, 0, 75, 104
3, 287087, Note_on_c, 0, 77, 0
3, 287097, Note_on_c, 0, 78, 0
3, 287120, Note_on_c, 0, 78, 95
3, 287126, Note_on_c, 0, 77, 102
3, 287153, Note_on_c, 0, 75, 0
3, 287183, Note_on_c, 0, 75, 91
3, 287210, Note_on_c, 0, 78, 0
3, 287216, Note_on_c, 0, 77, 0
3, 287240, Note_on_c, 0, 77, 93
3, 287246, Note_on_c, 0, 78, 108
3, 287273, Note_on_c, 0, 75, 0
3, 287308, Note_on_c, 0, 75, 92
3, 287323, Note_on_c, 0, 78, 0
3, 287327, Note_on_c, 0, 77, 0
3, 287342, Note_on_c, 0, 78, 105
3, 287346, Note_on_c, 0, 77, 94
3, 287398, Note_on_c, 0, 75, 0
3, 287425, Note_on_c, 0, 75, 97
3, 287432, Note_on_c, 0, 78, 0
3, 287436, Note_on_c, 0, 77, 0
3, 287462, Note_on_c, 0, 78, 103
3, 287473, Note_on_c, 0, 77, 105
3, 287515, Note_on_c, 0, 75, 0
3, 287522, Note_on_c, 0, 78, 0
3, 287531, Note_on_c, 0, 63, 95
3, 287533, Note_on_c, 0, 77, 0
3, 287549, Note_on_c, 0, 75, 94
3, 287588, Note_on_c, 0, 65, 103
3, 287591, Note_on_c, 0, 77, 105
3, 287599, Note_on_c, 0, 63, 0
3, 287617, Note_on_c, 0, 75, 0
3, 287657, Note_on_c, 0, 65, 0
3, 287657, Note_on_c, 0, 78, 94
3, 287659, Note_on_c, 0, 66, 110
3, 287660, Note_on_c, 0, 77, 0
3, 287725, Note_on_c, 0, 78, 0
3, 287727, Note_on_c, 0, 66, 0
3, 287729, Note_on_c, 0, 68, 107
3, 287743, Note_on_c, 0, 80, 110
3, 287796, Note_on_c, 0, 70, 97
3, 287797, Note_on_c, 0, 68, 0
3, 287804, Note_on_c, 0, 82, 110
3, 287811, Note_on_c, 0, 80, 0
3, 287864, Note_on_c, 0, 70, 0
3, 287869, Note_on_c, 0, 72, 99
3, 287872, Note_on_c, 0, 82, 0
3, 287887, Note_on_c, 0, 84, 102
3, 287932, Note_on_c, 0, 73, 100
3, 287938, Note_on_c, 0, 72, 0
3, 287946, Note_on_c, 0, 85, 91
3, 287956, Note_on_c, 0, 84, 0
3, 288000, Note_on_c, 0, 73, 0
3, 288014, Note_on_c, 0, 85, 0
3, 288016, Note_on_c, 0, 70, 104
3, 288024, Note_on_c, 0, 75, 100
3, 288136, Note_on_c, 0, 70, 0
3, 288144, Note_on_c, 0, 75, 0
3, 288249, Note_on_c, 0, 75, 104
3, 288251, Note_on_c, 0, 82, 97
3, 288369, Note_on_c, 0, 75, 0
3, 288371, Note_on_c, 0, 82, 0
3, 288505, Note_on_c, 0, 74, 98
3, 288509, Note_on_c, 0, 87, 102
3, 288625, Note_on_c, 0, 74, 0
3, 288629, Note_on_c, 0, 87, 0
3, 288723, Note_on_c, 0, 73, 104
3, 288740, Note_on_c, 0, 84, 104
3, 288843, Note_on_c, 0, 73, 0
3, 288860, Note_on_c, 0, 84, 0
3, 288982, Note_on_c, 0, 72, 111
3, 288983, Note_on_c, 0, 80, 97
3, 289102, Note_on_c, 0, 72, 0
3, 289103, Note_on_c, 0, 80, 0
3, 289208, Note_on_c, 0, 70, 99
3, 289213, Note_on_c, 0, 82, 98
3, 289448, Note_on_c, 0, 70, 0
3, 289453, Note_on_c, 0, 82, 0
3, 289690, Note_on_c, 0, 73, 97
3, 289721, Note_on_c, 0, 73, 0
3, 289781, Note_on_c, 0, 74, 96
3, 289813, Note_on_c, 0, 74, 0
3, 289867, Note_on_c, 0, 75, 103
3, 289899, Note_on_c, 0, 75, 0
3, 289922, Note_on_c, 0, 76, 107
3, 289953, Note_on_c, 0, 76, 0
3, 290023, Note_on_c, 0, 77, 94
3, 290055, Note_on_c, 0, 77, 0
3, 290096, Note_on_c, 0, 78, 100
3, 290128, Note_on_c, 0, 78, 0
3, 290163, Note_on_c, 0, 61, 97
3, 290171, Note_on_c, 0, 79, 93
3, 290194, Note_on_c, 0, 61, 0
3, 290202, Note_on_c, 0, 79, 0
3, 290258, Note_on_c, 0, 62, 99
3, 290266, Note_on_c, 0, 80, 92
3, 290290, Note_on_c, 0, 62, 0
3, 290298, Note_on_c, 0, 80, 0
3, 290334, Note_on_c, 0, 81, 103
3, 290338, Note_on_c, 0, 63, 97
3, 290366, Note_on_c, 0, 81, 0
3, 290370, Note_on_c, 0, 63, 0
3, 290401, Note_on_c, 0, 64, 101
3, 290423, Note_on_c, 0, 82, 99
3, 290432, Note_on_c, 0, 64, 0
3, 290454, Note_on_c, 0, 82, 0
3, 290483, Note_on_c, 0, 82, 94
3, 290500, Note_on_c, 0, 65, 103
3, 290515, Note_on_c, 0, 82, 0
3, 290532, Note_on_c, 0, 65, 0
3, 290573, Note_on_c, 0, 84, 99
3, 290578, Note_on_c, 0, 66, 111
3, 290579, Note_on_c, 0, 84, 0
3, 290599, Note_on_c, 0, 84, 101
3, 290610, Note_on_c, 0, 66, 0
3, 290645, Note_on_c, 0, 85, 106
3, 290647, Note_on_c, 0, 67, 98
3, 290659, Note_on_c, 0, 84, 0
3, 290692, Note_on_c, 0, 85, 0
3, 290713, Note_on_c, 0, 87, 106
3, 290767, Note_on_c, 0, 67, 0
3, 290773, Note_on_c, 0, 87, 0
3, 290780, Note_on_c, 0, 88, 94
3, 290823, Note_on_c, 0, 90, 100
3, 290840, Note_on_c, 0, 88, 0
3, 290883, Note_on_c, 0, 90, 0
3, 290883, Note_on_c, 0, 91, 88
3, 290979, Note_on_c, 0, 91, 0
3, 291366, Note_on_c, 0, 90, 96
3, 291385, Note_on_c, 0, 79, 110
3, 291481, Note_on_c, 0, 79, 0
3, 291486, Note_on_c, 0, 90, 0
3, 291498, Note_on_c, 0, 88, 92
3, 291618, Note_on_c, 0, 88, 0
3, 291619, Note_on_c, 0, 87, 105
3, 291715, Note_on_c, 0, 87, 0
3, 291806, Note_on_c, 0, 84, 107
3, 291841, Note_on_c, 0, 85, 98
3, 291866, Note_on_c, 0, 84, 0
3, 291901, Note_on_c, 0, 85, 0
3, 291925, Note_on_c, 0, 87, 103
3, 291970, Note_on_c, 0, 88, 107
3, 291985, Note_on_c, 0, 87, 0
3, 292021, Note_on_c, 0, 90, 98
3, 292030, Note_on_c, 0, 88, 0
3, 292081, Note_on_c, 0, 90, 0
3, 292104, Note_on_c, 0, 91, 82
3, 292200, Note_on_c, 0, 91, 0
3, 292560, Note_on_c, 0, 79, 102
3, 292567, Note_on_c, 0, 90, 94
3, 292656, Note_on_c, 0, 79, 0
3, 292687, Note_on_c, 0, 90, 0
3, 292704, Note_on_c, 0, 88, 92
3, 292807, Note_on_c, 0, 87, 94
3, 292824, Note_on_c, 0, 88, 0
3, 292903, Note_on_c, 0, 87, 0
3, 295162, Note_on_c, 0, 84, 96
3, 295201, Note_on_c, 0, 85, 108
3, 295222, Note_on_c, 0, 84, 0
3, 295261, Note_on_c, 0, 85, 0
3, 295282, Note_on_c, 0, 87, 91
3, 295324, Note_on_c, 0, 88, 102
3, 295342, Note_on_c, 0, 87, 0
3, 295384, Note_on_c, 0, 88, 0
3, 295397, Note_on_c, 0, 90, 93
3, 295447, Note_on_c, 0, 91, 82
3, 295457, Note_on_c, 0, 90, 0
3, 295543, Note_on_c, 0, 91, 0
3, 295928, Note_on_c, 0, 79, 108
3, 295936, Note_on_c, 0, 90, 97
3, 296024, Note_on_c, 0, 79, 0
3, 296053, Note_on_c, 0, 88, 111
3, 296056, Note_on_c, 0, 90, 0
3, 296161, Note_on_c, 0, 87, 107
3, 296173, Note_on_c, 0, 88, 0
3, 296257, Note_on_c, 0, 87, 0
3, 296830, Note_on_c, 0, 84, 91
3, 296890, Note_on_c, 0, 84, 0
3, 296893, Note_on_c, 0, 85, 100
3, 296953, Note_on_c, 0, 85, 0
3, 296956, Note_on_c, 0, 87, 93
3, 297016, Note_on_c, 0, 87, 0
3, 297024, Note_on_c, 0, 88, 97
3, 297078, Note_on_c, 0, 90, 91
3, 297084, Note_on_c, 0, 88, 0
3, 297138, Note_on_c, 0, 90, 0
3, 297141, Note_on_c, 0, 91, 93
3, 297237, Note_on_c, 0, 91, 0
3, 297619, Note_on_c, 0, 79, 104
3, 297625, Note_on_c, 0, 90, 102
3, 297715, Note_on_c, 0, 79, 0
3, 297745, Note_on_c, 0, 90, 0
3, 297749, Note_on_c, 0, 88, 104
3, 297846, Note_on_c, 0, 87, 106
3, 297869, Note_on_c, 0, 88, 0
3, 297942, Note_on_c, 0, 87, 0
3, 298044, Note_on_c, 0, 84, 107
3, 298093, Note_on_c, 0, 85, 93
3, 298104, Note_on_c, 0, 84, 0
3, 298149, Note_on_c, 0, 87, 100
3, 298153, Note_on_c, 0, 85, 0
3, 298209, Note_on_c, 0, 87, 0
3, 298219, Note_on_c, 0, 88, 93
3, 298274, Note_on_c, 0, 90, 100
3, 298279, Note_on_c, 0, 88, 0
3, 298334, Note_on_c, 0, 90, 0
3, 298337, Note_on_c, 0, 91, 94
3, 298433, Note_on_c, 0, 91, 0
3, 298806, Note_on_c, 0, 90, 101
3, 298813, Note_on_c, 0, 79, 99
3, 298909, Note_on_c, 0, 79, 0
3, 298926, Note_on_c, 0, 90, 0
3, 298926, Note_on_c, 0, 88, 105
3, 299046, Note_on_c, 0, 88, 0
3, 299050, Note_on_c, 0, 87, 109
3, 299146, Note_on_c, 0, 87, 0
3, 300675, Note_on_c, 0, 84, 105
3, 300735, Note_on_c, 0, 84, 0
3, 300740, Note_on_c, 0, 85, 109
3, 300800, Note_on_c, 0, 85, 0
3, 300804, Note_on_c, 0, 87, 108
3, 300849, Note_on_c, 0, 88, 105
3, 300864, Note_on_c, 0, 87, 0
3, 300909, Note_on_c, 0, 88, 0
3, 300915, Note_on_c, 0, 90, 104
3, 300970, Note_on_c, 0, 91, 85
3, 300975, Note_on_c, 0, 90, 0
3, 301066, Note_on_c, 0, 91, 0
3, 301450, Note_on_c, 0, 90, 95
3, 301454, Note_on_c, 0, 79, 94
3, 301550, Note_on_c, 0, 79, 0
3, 301566, Note_on_c, 0, 88, 94
3, 301570, Note_on_c, 0, 90, 0
3, 301686, Note_on_c, 0, 88, 0
3, 301698, Note_on_c, 0, 87, 107
3, 301794, Note_on_c, 0, 87, 0
3, 304042, Note_on_c, 0, 84, 99
3, 304085, Note_on_c, 0, 85, 108
3, 304102, Note_on_c, 0, 84, 0
3, 304141, Note_on_c, 0, 87, 100
3, 304145, Note_on_c, 0, 85, 0
3, 304201, Note_on_c, 0, 87, 0
3, 304201, Note_on_c, 0, 88, 108
3, 304261, Note_on_c, 0, 88, 0
3, 304276, Note_on_c, 0, 90, 94
3, 304336, Note_on_c, 0, 90, 0
3, 304339, Note_on_c, 0, 91, 91
3, 304435, Note_on_c, 0, 91, 0
3, 304812, Note_on_c, 0, 90, 103
3, 304826, Note_on_c, 0, 79, 111
3, 304922, Note_on_c, 0, 79, 0
3, 304932, Note_on_c, 0, 90, 0
3, 304948, Note_on_c, 0, 88, 95
3, 305049, Note_on_c, 0, 87, 103
3, 305068, Note_on_c, 0, 88, 0
3, 305145, Note_on_c, 0, 87, 0
3, 305239, Note_on_c, 0, 84, 110
3, 305298, Note_on_c, 0, 85, 91
3, 305299, Note_on_c, 0, 84, 0
3, 305342, Note_on_c, 0, 87, 97
3, 305358, Note_on_c, 0, 85, 0
3, 305402, Note_on_c, 0, 87, 0
3, 305406, Note_on_c, 0, 88, 93
3, 305466, Note_on_c, 0, 88, 0
3, 305478, Note_on_c, 0, 90, 106
3, 305538, Note_on_c, 0, 90, 0
3, 305547, Note_on_c, 0, 91, 96
3, 305643, Note_on_c, 0, 91, 0
3, 306005, Note_on_c, 0, 90, 105
3, 306025, Note_on_c, 0, 79, 107
3, 306121, Note_on_c, 0, 79, 0
3, 306125, Note_on_c, 0, 90, 0
3, 306136, Note_on_c, 0, 88, 91
3, 306256, Note_on_c, 0, 88, 0
3, 306260, Note_on_c, 0, 87, 95
3, 306356, Note_on_c, 0, 87, 0
3, 306916, Note_on_c, 0, 84, 98
3, 306963, Note_on_c, 0, 85, 107
3, 306976, Note_on_c, 0, 84, 0
3, 307023, Note_on_c, 0, 85, 0
3, 307030, Note_on_c, 0, 87, 102
3, 307090, Note_on_c, 0, 87, 0
3, 307094, Note_on_c, 0, 88, 96
3, 307154, Note_on_c, 0, 88, 0
3, 307158, Note_on_c, 0, 90, 100
3, 307218, Note_on_c, 0, 90, 0
3, 307224, Note_on_c, 0, 91, 81
3, 307320, Note_on_c, 0, 91, 0
3, 307683, Note_on_c, 0, 79, 98
3, 307706, Note_on_c, 0, 90, 105
3, 307779, Note_on_c, 0, 79, 0
3, 307826, Note_on_c, 0, 90, 0
3, 307826, Note_on_c, 0, 88, 111
3, 307933, Note_on_c, 0, 87, 110
3, 307946, Note_on_c, 0, 88, 0
3, 308029, Note_on_c, 0, 87, 0
3, 308114, Note_on_c, 0, 84, 109
3, 308174, Note_on_c, 0, 84, 0
3, 308177, Note_on_c, 0, 85, 97
3, 308237, Note_on_c, 0, 85, 0
3, 308245, Note_on_c, 0, 87, 108
3, 308299, Note_on_c, 0, 88, 109
3, 308305, Note_on_c, 0, 87, 0
3, 308353, Note_on_c, 0, 90, 98
3, 308359, Note_on_c, 0, 88, 0
3, 308409, Note_on_c, 0, 91, 95
3, 308413, Note_on_c, 0, 90, 0
3, 308505, Note_on_c, 0, 91, 0
3, 308884, Note_on_c, 0, 79, 98
3, 308889, Note_on_c, 0, 90, 111
3, 308980, Note_on_c, 0, 79, 0
3, 309009, Note_on_c, 0, 90, 0
3, 309016, Note_on_c, 0, 88, 107
3, 309123, Note_on_c, 0, 87, 110
3, 309136, Note_on_c, 0, 88, 0
3, 309219, Note_on_c, 0, 87, 0
3, 318009, Note_on_c, 0, 76, 110
3, 318011, Note_on_c, 0, 84, 97
3, 318025, Note_on_c, 0, 88, 97
3, 318849, Note_on_c, 0, 76, 0
3, 318851, Note_on_c, 0, 84, 0
3, 318865, Note_on_c, 0, 88, 0
3, 318987, Note_on_c, 0, 76, 103
3, 318988, Note_on_c, 0, 88, 100
3, 318988, Note_on_c, 0, 84, 93
3, 319347, Note_on_c, 0, 76, 0
3, 319348, Note_on_c, 0, 88, 0
3, 319348, Note_on_c, 0, 84, 0
3, 319451, Note_on_c, 0, 76, 92
3, 319453, Note_on_c, 0, 88, 99
3, 319455, Note_on_c, 0, 84, 102
3, 319811, Note_on_c, 0, 76, 0
3, 319813, Note_on_c, 0, 88, 0
3, 319815, Note_on_c, 0, 84, 0
3, 319924, Note_on_c, 0, 84, 96
3, 319925, Note_on_c, 0, 88, 111
3, 319947, Note_on_c, 0, 76, 111
3, 320284, Note_on_c, 0, 84, 0
3, 320285, Note_on_c, 0, 88, 0
3, 320307, Note_on_c, 0, 76, 0
3, 320402, Note_on_c, 0, 88, 95
3, 320402, Note_on_c, 0, 84, 95
3, 320406, Note_on_c, 0, 76, 94
3, 320762, Note_on_c, 0, 88, 0
3, 320762, Note_on_c, 0, 84, 0
3, 320766, Note_on_c, 0, 76, 0
3, 320883, Note_on_c, 0, 84, 98
3, 320889, Note_on_c, 0, 88, 107
3, 320902, Note_on_c, 0, 76, 93
3, 321243, Note_on_c, 0, 84, 0
3, 321249, Note_on_c, 0, 88, 0
3, 321262, Note_on_c, 0, 76, 0
3, 321364, Note_on_c, 0, 84, 91
3, 321371, Note_on_c, 0, 88, 95
3, 321383, Note_on_c, 0, 76, 93
3, 322204, Note_on_c, 0, 84, 0
3, 322211, Note_on_c, 0, 88, 0
3, 322223, Note_on_c, 0, 76, 0
3, 322339, Note_on_c, 0, 88, 110
3, 322346, Note_on_c, 0, 84, 104
3, 322348, Note_on_c, 0, 76, 91
3, 322699, Note_on_c, 0, 88, 0
3, 322706, Note_on_c, 0, 84, 0
3, 322708, Note_on_c, 0, 76, 0
3, 322802, Note_on_c, 0, 84, 106
3, 322818, Note_on_c, 0, 88, 111
3, 322823, Note_on_c, 0, 76, 106
3, 323162, Note_on_c, 0, 84, 0
3, 323178, Note_on_c, 0, 88, 0
3, 323183, Note_on_c, 0, 76, 0
3, 323282, Note_on_c, 0, 88, 97
3, 323283, Note_on_c, 0, 76, 99
3, 323289, Note_on_c, 0, 84, 93
3, 323642, Note_on_c, 0, 88, 0
3, 323643, Note_on_c, 0, 76, 0
3, 323649, Note_on_c, 0, 84, 0
3, 323775, Note_on_c, 0, 76, 92
3, 323779, Note_on_c, 0, 88, 99
3, 323779, Note_on_c, 0, 84, 109
3, 324135, Note_on_c, 0, 76, 0
3, 324139, Note_on_c, 0, 88, 0
3, 324139, Note_on_c, 0, 84, 0
3, 340566, Note_on_c, 0, 76, 97
3, 340578, Note_on_c, 0, 84, 108
3, 340580, Note_on_c, 0, 88, 93
3, 340926, Note_on_c, 0, 76, 0
3, 340938, Note_on_c, 0, 84, 0
3, 340940, Note_on_c, 0, 88, 0
3, 341046, Note_on_c, 0, 84, 105
3, 341053, Note_on_c, 0, 88, 102
3, 341063, Note_on_c, 0, 76, 109
3, 341406, Note_on_c, 0, 84, 0
3, 341413, Note_on_c, 0, 88, 0
3, 341423, Note_on_c, 0, 76, 0
3, 341526, Note_on_c, 0, 88, 108
3, 341544, Note_on_c, 0, 84, 94
3, 341546, Note_on_c, 0, 76, 94
3, 341886, Note_on_c, 0, 88, 0
3, 341904, Note_on_c, 0, 84, 0
3, 341906, Note_on_c, 0, 76, 0
3, 342002, Note_on_c, 0, 84, 103
3, 342010, Note_on_c, 0, 88, 98
3, 342012, Note_on_c, 0, 76, 91
3, 342362, Note_on_c, 0, 84, 0
3, 342370, Note_on_c, 0, 88, 0
3, 342372, Note_on_c, 0, 76, 0
3, 342482, Note_on_c, 0, 84, 96
3, 342499, Note_on_c, 0, 76, 104
3, 342508, Note_on_c, 0, 88, 103
3, 342842, Note_on_c, 0, 84, 0
3, 342859, Note_on_c, 0, 76, 0
3, 342868, Note_on_c, 0, 88, 0
3, 342970, Note_on_c, 0, 76, 108
3, 342978, Note_on_c, 0, 84, 100
3, 342983, Note_on_c, 0, 88, 94
3, 343330, Note_on_c, 0, 76, 0
3, 343338, Note_on_c, 0, 84, 0
3, 343343, Note_on_c, 0, 88, 0
3, 343937, Note_on_c, 0, 76, 100
3, 343941, Note_on_c, 0, 88, 96
3, 343947, Note_on_c, 0, 84, 104
3, 344297, Note_on_c, 0, 76, 0
3, 344301, Note_on_c, 0, 88, 0
3, 344307, Note_on_c, 0, 84, 0
3, 344403, Note_on_c, 0, 84, 105
3, 344408, Note_on_c, 0, 88, 101
3, 344425, Note_on_c, 0, 76, 98
3, 344763, Note_on_c, 0, 84, 0
3, 344768, Note_on_c, 0, 88, 0
3, 344785, Note_on_c, 0, 76, 0
3, 344881, Note_on_c, 0, 88, 95
3, 344883, Note_on_c, 0, 84, 103
3, 344899, Note_on_c, 0, 76, 110
3, 345241, Note_on_c, 0, 88, 0
3, 345243, Note_on_c, 0, 84, 0
3, 345259, Note_on_c, 0, 76, 0
3, 345364, Note_on_c, 0, 76, 100
3, 345367, Note_on_c, 0, 88, 103
3, 345380, Note_on_c, 0, 84, 94
3, 345724, Note_on_c, 0, 76, 0
3, 345727, Note_on_c, 0, 88, 0
3, 345740, Note_on_c, 0, 84, 0
3, 345840, Note_on_c, 0, 88, 91
3, 345853, Note_on_c, 0, 76, 100
3, 345853, Note_on_c, 0, 84, 105
3, 346200, Note_on_c, 0, 88, 0
3, 346213, Note_on_c, 0, 76, 0
3, 346213, Note_on_c, 0, 84, 0
3, 346333, Note_on_c, 0, 84, 97
3, 346336, Note_on_c, 0, 76, 110
3, 346337, Note_on_c, 0, 88, 95
3, 346693, Note_on_c, 0, 84, 0
3, 346696, Note_on_c, 0, 76, 0
3, 346697, Note_on_c, 0, 88, 0
3, 346807, Note_on_c, 0, 76, 93
3, 346809, Note_on_c, 0, 88, 104
3, 346811, Note_on_c, 0, 84, 111
3, 347167, Note_on_c, 0, 76, 0
3, 347169, Note_on_c, 0, 88, 0
3, 347171, Note_on_c, 0, 84, 0
3, 347298, Note_on_c, 0, 84, 106
3, 347303, Note_on_c, 0, 88, 93
3, 347303, Note_on_c, 0, 76, 94
3, 347658, Note_on_c, 0, 84, 0
3, 347663, Note_on_c, 0, 88, 0
3, 347663, Note_on_c, 0, 76, 0
3, 347760, Note_on_c, 0, 88, 96
3, 347768, Note_on_c, 0, 76, 101
3, 347777, Note_on_c, 0, 84, 93
3, 348600, Note_on_c, 0, 88, 0
3, 348608, Note_on_c, 0, 76, 0
3, 348617, Note_on_c, 0, 84, 0
3, 348734, Note_on_c, 0, 76, 106
3, 348735, Note_on_c, 0, 84, 104
3, 348738, Note_on_c, 0, 88, 107
3, 349094, Note_on_c, 0, 76, 0
3, 349095, Note_on_c, 0, 84, 0
3, 349098, Note_on_c, 0, 88, 0
3, 349221, Note_on_c, 0, 76, 96
3, 349225, Note_on_c, 0, 84, 100
3, 349228, Note_on_c, 0, 88, 104
3, 349581, Note_on_c, 0, 76, 0
3, 349585, Note_on_c, 0, 84, 0
3, 349588, Note_on_c, 0, 88, 0
3, 349685, Note_on_c, 0, 91, 109
3, 349699, Note_on_c, 0, 84, 96
3, 349704, Note_on_c, 0, 76, 91
3, 350045, Note_on_c, 0, 91, 0
3, 350059, Note_on_c, 0, 84, 0
3, 350064, Note_on_c, 0, 76, 0
3, 350168, Note_on_c, 0, 76, 96
3, 350179, Note_on_c, 0, 84, 102
3, 350183, Note_on_c, 0, 90, 97
3, 350528, Note_on_c, 0, 76, 0
3, 350539, Note_on_c, 0, 84, 0
3, 350543, Note_on_c, 0, 90, 0
3, 350651, Note_on_c, 0, 88, 97
3, 350659, Note_on_c, 0, 84, 103
3, 350665, Note_on_c, 0, 76, 93
3, 351011, Note_on_c, 0, 88, 0
3, 351019, Note_on_c, 0, 84, 0
3, 351025, Note_on_c, 0, 76, 0
3, 351128, Note_on_c, 0, 76, 99
3, 351132, Note_on_c, 0, 84, 95
3, 351141, Note_on_c, 0, 88, 111
3, 351488, Note_on_c, 0, 76, 0
3, 351492, Note_on_c, 0, 84, 0
3, 351501, Note_on_c, 0, 88, 0
3, 383285, Note_on_c, 0, 88, 96
3, 383301, Note_on_c, 0, 76, 96
3, 383303, Note_on_c, 0, 84, 99
3, 383525, Note_on_c, 0, 88, 0
3, 383541, Note_on_c, 0, 76, 0
3, 383543, Note_on_c, 0, 84, 0
3, 383765, Note_on_c, 0, 84, 110
3, 383767, Note_on_c, 0, 76, 91
3, 383782, Note_on_c, 0, 88, 99
3, 384005, Note_on_c, 0, 84, 0
3, 384007, Note_on_c, 0, 76, 0
3, 384022, Note_on_c, 0, 88, 0
3, 384243, Note_on_c, 0, 88, 102
3, 384247, Note_on_c, 0, 76, 91
3, 384248, Note_on_c, 0, 84, 99
3, 384483, Note_on_c, 0, 88, 0
3, 384487, Note_on_c, 0, 76, 0
3, 384488, Note_on_c, 0, 84, 0
3, 384721, Note_on_c, 0, 84, 99
3, 384736, Note_on_c, 0, 76, 108
3, 384747, Note_on_c, 0, 88, 110
3, 384961, Note_on_c, 0, 84, 0
3, 384976, Note_on_c, 0, 76, 0
3, 384987, Note_on_c, 0, 88, 0
3, 385202, Note_on_c, 0, 84, 93
3, 385207, Note_on_c, 0, 76, 109
3, 385225, Note_on_c, 0, 88, 105
3, 385442, Note_on_c, 0, 84, 0
3, 385447, Note_on_c, 0, 76, 0
3, 385465, Note_on_c, 0, 88, 0
3, 385683, Note_on_c, 0, 88, 101
3, 385683, Note_on_c, 0, 84, 106
3, 385694, Note_on_c, 0, 76, 92
3, 385923, Note_on_c, 0, 88, 0
3, 385923, Note_on_c, 0, 84, 0
3, 385934, Note_on_c, 0, 76, 0
3, 399561, Control_c, 0, 7, 127
3, 400107, Note_on_c, 0, 59, 58
3, 400224, Note_on_c, 0, 62, 39
3, 400227, Note_on_c, 0, 59, 0
3, 400333, Note_on_c, 0, 59, 59
3, 400344, Note_on_c, 0, 62, 0
3, 400451, Note_on_c, 0, 56, 41
3, 400453, Note_on_c, 0, 59, 0
3, 400563, Note_on_c, 0, 60, 46
3, 400571, Note_on_c, 0, 56, 0
3, 400605, Control_c, 0, 11, 127
3, 400628, Control_c, 0, 11, 127
3, 400656, Control_c, 0, 11, 126
3, 400683, Control_c, 0, 11, 125
3, 400710, Control_c, 0, 11, 124
3, 400738, Control_c, 0, 11, 123
3, 400766, Control_c, 0, 11, 122
3, 400793, Control_c, 0, 11, 121
3, 400821, Control_c, 0, 11, 120
3, 400848, Control_c, 0, 11, 119
3, 400876, Control_c, 0, 11, 118
3, 400904, Control_c, 0, 11, 117
3, 400931, Control_c, 0, 11, 116
3, 400959, Control_c, 0, 11, 115
3, 400987, Control_c, 0, 11, 114
3, 401014, Control_c, 0, 11, 113
3, 401041, Control_c, 0, 11, 112
3, 401069, Control_c, 0, 11, 111
3, 401097, Control_c, 0, 11, 110
3, 401124, Control_c, 0, 11, 109
3, 401152, Control_c, 0, 11, 108
3, 401179, Control_c, 0, 11, 107
3, 401207, Control_c, 0, 11, 106
3, 401235, Control_c, 0, 11, 105
3, 401262, Control_c, 0, 11, 104
3, 401289, Control_c, 0, 11, 103
3, 401317, Control_c, 0, 11, 102
3, 401345, Control_c, 0, 11, 101
3, 401372, Control_c, 0, 11, 100
3, 401400, Control_c, 0, 11, 99
3, 401427, Control_c, 0, 11, 98
3, 401455, Control_c, 0, 11, 97
3, 401482, Control_c, 0, 11, 96
3, 401510, Control_c, 0, 11, 95
3, 401538, Control_c, 0, 11, 94
3, 401565, Control_c, 0, 11, 93
3, 401593, Control_c, 0, 11, 92
3, 401620, Control_c, 0, 11, 91
3, 401648, Control_c, 0, 11, 90
3, 401676, Control_c, 0, 11, 89
3, 401703, Control_c, 0, 11, 88
3, 401730, Control_c, 0, 11, 87
3, 401758, Control_c, 0, 11, 86
3, 401786, Control_c, 0, 11, 85
3, 401813, Control_c, 0, 11, 84
3, 401841, Control_c, 0, 11, 83
3, 401868, Control_c, 0, 11, 82
3, 401896, Control_c, 0, 11, 81
3, 401924, Control_c, 0, 11, 80
3, 401951, Control_c, 0, 11, 79
3, 401979, Control_c, 0, 11, 78
3, 402006, Control_c, 0, 11, 77
3, 402034, Control_c, 0, 11, 76
3, 402061, Control_c, 0, 11, 75
3, 402089, Control_c, 0, 11, 74
3, 402117, Control_c, 0, 11, 73
3, 402144, Control_c, 0, 11, 72
3, 402172, Control_c, 0, 11, 71
3, 402199, Control_c, 0, 11, 70
3, 402227, Control_c, 0, 11, 69
3, 402255, Control_c, 0, 11, 68
3, 402282, Control_c, 0, 11, 67
3, 402309, Control_c, 0, 11, 66
3, 402337, Control_c, 0, 11, 65
3, 402379, Control_c, 0, 11, 65
3, 402382, Control_c, 0, 11, 66
3, 402386, Control_c, 0, 11, 67
3, 402390, Control_c, 0, 11, 68
3, 402394, Control_c, 0, 11, 69
3, 402398, Control_c, 0, 11, 70
3, 402402, Control_c, 0, 11, 71
3, 402405, Control_c, 0, 11, 72
3, 402409, Control_c, 0, 11, 73
3, 402413, Control_c, 0, 11, 74
3, 402417, Control_c, 0, 11, 75
3, 402421, Control_c, 0, 11, 76
3, 402425, Control_c, 0, 11, 77
3, 402428, Control_c, 0, 11, 78
3, 402432, Control_c, 0, 11, 79
3, 402436, Control_c, 0, 11, 80
3, 402440, Control_c, 0, 11, 81
3, 402444, Control_c, 0, 11, 82
3, 402448, Control_c, 0, 11, 83
3, 402451, Control_c, 0, 11, 84
3, 402455, Control_c, 0, 11, 85
3, 402459, Control_c, 0, 11, 86
3, 402463, Control_c, 0, 11, 87
3, 402466, Control_c, 0, 11, 88
3, 402471, Control_c, 0, 11, 89
3, 402474, Control_c, 0, 11, 90
3, 402478, Control_c, 0, 11, 91
3, 402482, Control_c, 0, 11, 92
3, 402486, Control_c, 0, 11, 93
3, 402489, Control_c, 0, 11, 94
3, 402493, Control_c, 0, 11, 95
3, 402497, Control_c, 0, 11, 96
3, 402501, Control_c, 0, 11, 97
3, 402505, Control_c, 0, 11, 98
3, 402509, Control_c, 0, 11, 99
3, 402512, Control_c, 0, 11, 100
3, 402516, Control_c, 0, 11, 101
3, 402520, Control_c, 0, 11, 102
3, 402524, Control_c, 0, 11, 103
3, 402528, Control_c, 0, 11, 104
3, 402532, Control_c, 0, 11, 105
3, 402535, Control_c, 0, 11, 106
3, 402539, Control_c, 0, 11, 107
3, 402543, Control_c, 0, 11, 108
3, 402547, Control_c, 0, 11, 109
3, 402551, Control_c, 0, 11, 110
3, 402555, Control_c, 0, 11, 111
3, 402558, Control_c, 0, 11, 112
3, 402562, Control_c, 0, 11, 113
3, 402566, Control_c, 0, 11, 114
3, 402570, Control_c, 0, 11, 115
3, 402573, Control_c, 0, 11, 116
3, 402577, Control_c, 0, 11, 117
3, 402581, Control_c, 0, 11, 118
3, 402585, Control_c, 0, 11, 119
3, 402589, Control_c, 0, 11, 120
3, 402592, Control_c, 0, 11, 121
3, 402596, Control_c, 0, 11, 122
3, 402600, Control_c, 0, 11, 123
3, 402603, Note_on_c, 0, 60, 0
3, 402604, Control_c, 0, 11, 124
3, 402605, Note_on_c, 0, 62, 56
3, 402608, Control_c, 0, 11, 125
3, 402723, Note_on_c, 0, 59, 54
3, 402725, Note_on_c, 0, 62, 0
3, 402843, Note_on_c, 0, 59, 0
3, 402864, Note_on_c, 0, 56, 56
3, 402964, Note_on_c, 0, 60, 41
3, 402984, Note_on_c, 0, 56, 0
3, 402997, Control_c, 0, 11, 126
3, 403040, Control_c, 0, 11, 125
3, 403083, Control_c, 0, 11, 124
3, 403125, Control_c, 0, 11, 123
3, 403168, Control_c, 0, 11, 122
3, 403211, Control_c, 0, 11, 121
3, 403253, Control_c, 0, 11, 120
3, 403296, Control_c, 0, 11, 119
3, 403339, Control_c, 0, 11, 118
3, 403381, Control_c, 0, 11, 117
3, 403424, Control_c, 0, 11, 116
3, 403467, Control_c, 0, 11, 115
3, 403509, Control_c, 0, 11, 114
3, 403552, Control_c, 0, 11, 113
3, 403595, Control_c, 0, 11, 112
3, 403638, Control_c, 0, 11, 111
3, 403680, Control_c, 0, 11, 110
3, 403723, Control_c, 0, 11, 109
3, 403766, Control_c, 0, 11, 108
3, 403808, Control_c, 0, 11, 107
3, 403851, Control_c, 0, 11, 106
3, 403894, Control_c, 0, 11, 105
3, 403936, Control_c, 0, 11, 104
3, 403979, Control_c, 0, 11, 103
3, 404022, Control_c, 0, 11, 102
3, 404064, Control_c, 0, 11, 101
3, 404107, Control_c, 0, 11, 100
3, 404150, Control_c, 0, 11, 99
3, 404192, Control_c, 0, 11, 98
3, 404235, Control_c, 0, 11, 97
3, 404278, Control_c, 0, 11, 96
3, 404320, Control_c, 0, 11, 95
3, 404363, Control_c, 0, 11, 94
3, 404406, Control_c, 0, 11, 93
3, 404448, Control_c, 0, 11, 92
3, 404491, Control_c, 0, 11, 91
3, 404534, Control_c, 0, 11, 90
3, 404576, Control_c, 0, 11, 89
3, 404619, Control_c, 0, 11, 88
3, 404662, Control_c, 0, 11, 87
3, 404704, Control_c, 0, 11, 86
3, 404747, Control_c, 0, 11, 85
3, 404790, Control_c, 0, 11, 84
3, 404832, Control_c, 0, 11, 83
3, 404875, Control_c, 0, 11, 82
3, 404917, Control_c, 0, 11, 81
3, 404960, Control_c, 0, 11, 80
3, 405003, Control_c, 0, 11, 79
3, 405046, Control_c, 0, 11, 78
3, 405089, Control_c, 0, 11, 77
3, 405131, Control_c, 0, 11, 76
3, 405174, Control_c, 0, 11, 75
3, 405217, Control_c, 0, 11, 74
3, 405259, Control_c, 0, 11, 73
3, 405302, Control_c, 0, 11, 72
3, 405345, Control_c, 0, 11, 71
3, 405387, Control_c, 0, 11, 70
3, 405430, Control_c, 0, 11, 69
3, 405472, Control_c, 0, 11, 68
3, 405515, Control_c, 0, 11, 67
3, 405558, Control_c, 0, 11, 66
3, 405600, Control_c, 0, 11, 65
3, 405649, Control_c, 0, 11, 65
3, 405654, Control_c, 0, 11, 66
3, 405660, Control_c, 0, 11, 67
3, 405665, Control_c, 0, 11, 68
3, 405671, Control_c, 0, 11, 69
3, 405676, Control_c, 0, 11, 70
3, 405682, Control_c, 0, 11, 71
3, 405688, Control_c, 0, 11, 72
3, 405693, Control_c, 0, 11, 73
3, 405699, Control_c, 0, 11, 74
3, 405705, Control_c, 0, 11, 75
3, 405710, Control_c, 0, 11, 76
3, 405715, Control_c, 0, 11, 77
3, 405721, Control_c, 0, 11, 78
3, 405727, Control_c, 0, 11, 79
3, 405732, Control_c, 0, 11, 80
3, 405738, Control_c, 0, 11, 81
3, 405743, Control_c, 0, 11, 82
3, 405749, Control_c, 0, 11, 83
3, 405754, Control_c, 0, 11, 84
3, 405760, Control_c, 0, 11, 85
3, 405765, Control_c, 0, 11, 86
3, 405771, Control_c, 0, 11, 87
3, 405777, Control_c, 0, 11, 88
3, 405782, Control_c, 0, 11, 89
3, 405788, Control_c, 0, 11, 90
3, 405794, Control_c, 0, 11, 91
3, 405799, Control_c, 0, 11, 92
3, 405804, Control_c, 0, 11, 93
3, 405810, Control_c, 0, 11, 94
3, 405816, Control_c, 0, 11, 95
3, 405821, Control_c, 0, 11, 96
3, 405827, Control_c, 0, 11, 97
3, 405832, Control_c, 0, 11, 98
3, 405838, Control_c, 0, 11, 99
3, 405843, Control_c, 0, 11, 100
3, 405849, Control_c, 0, 11, 101
3, 405855, Control_c, 0, 11, 102
3, 405860, Control_c, 0, 11, 103
3, 405866, Control_c, 0, 11, 104
3, 405871, Control_c, 0, 11, 105
3, 405877, Control_c, 0, 11, 106
3, 405883, Control_c, 0, 11, 107
3, 405888, Control_c, 0, 11, 108
3, 405893, Control_c, 0, 11, 109
3, 405899, Control_c, 0, 11, 110
3, 405905, Control_c, 0, 11, 111
3, 405910, Control_c, 0, 11, 112
3, 405916, Control_c, 0, 11, 113
3, 405922, Control_c, 0, 11, 114
3, 405927, Control_c, 0, 11, 115
3, 405932, Control_c, 0, 11, 116
3, 405938, Control_c, 0, 11, 117
3, 405944, Control_c, 0, 11, 118
3, 405949, Control_c, 0, 11, 119
3, 405955, Control_c, 0, 11, 120
3, 405960, Control_c, 0, 11, 121
3, 405964, Note_on_c, 0, 60, 0
3, 405966, Control_c, 0, 11, 122
3, 405967, Note_on_c, 0, 62, 53
3, 405972, Control_c, 0, 11, 123
3, 405977, Control_c, 0, 11, 124
3, 405982, Control_c, 0, 11, 125
3, 405988, Control_c, 0, 11, 126
3, 406087, Note_on_c, 0, 62, 0
3, 406105, Note_on_c, 0, 59, 52
3, 406209, Note_on_c, 0, 56, 57
3, 406225, Note_on_c, 0, 59, 0
3, 406323, Note_on_c, 0, 59, 50
3, 406329, Note_on_c, 0, 56, 0
3, 406443, Note_on_c, 0, 59, 0
3, 406457, Note_on_c, 0, 61, 55
3, 406576, Note_on_c, 0, 58, 40
3, 406577, Note_on_c, 0, 61, 0
3, 406694, Note_on_c, 0, 56, 44
3, 406696, Note_on_c, 0, 58, 0
3, 406811, Note_on_c, 0, 60, 45
3, 406814, Note_on_c, 0, 56, 0
3, 406836, Control_c, 0, 11, 126
3, 406875, Control_c, 0, 11, 125
3, 406915, Control_c, 0, 11, 124
3, 406955, Control_c, 0, 11, 123
3, 406995, Control_c, 0, 11, 122
3, 407034, Control_c, 0, 11, 121
3, 407074, Control_c, 0, 11, 120
3, 407113, Control_c, 0, 11, 119
3, 407153, Control_c, 0, 11, 118
3, 407193, Control_c, 0, 11, 117
3, 407232, Control_c, 0, 11, 116
3, 407272, Control_c, 0, 11, 115
3, 407311, Control_c, 0, 11, 114
3, 407351, Control_c, 0, 11, 113
3, 407391, Control_c, 0, 11, 112
3, 407430, Control_c, 0, 11, 111
3, 407470, Control_c, 0, 11, 110
3, 407510, Control_c, 0, 11, 109
3, 407550, Control_c, 0, 11, 108
3, 407589, Control_c, 0, 11, 107
3, 407629, Control_c, 0, 11, 106
3, 407668, Control_c, 0, 11, 105
3, 407708, Control_c, 0, 11, 104
3, 407747, Control_c, 0, 11, 103
3, 407787, Control_c, 0, 11, 102
3, 407827, Control_c, 0, 11, 101
3, 407866, Control_c, 0, 11, 100
3, 407906, Control_c, 0, 11, 99
3, 407946, Control_c, 0, 11, 98
3, 407985, Control_c, 0, 11, 97
3, 408025, Control_c, 0, 11, 96
3, 408065, Control_c, 0, 11, 95
3, 408104, Control_c, 0, 11, 94
3, 408144, Control_c, 0, 11, 93
3, 408183, Control_c, 0, 11, 92
3, 408223, Control_c, 0, 11, 91
3, 408263, Control_c, 0, 11, 90
3, 408302, Control_c, 0, 11, 89
3, 408342, Control_c, 0, 11, 88
3, 408382, Control_c, 0, 11, 87
3, 408421, Control_c, 0, 11, 86
3, 408461, Control_c, 0, 11, 85
3, 408501, Control_c, 0, 11, 84
3, 408540, Control_c, 0, 11, 83
3, 408580, Control_c, 0, 11, 82
3, 408620, Control_c, 0, 11, 81
3, 408659, Control_c, 0, 11, 80
3, 408699, Control_c, 0, 11, 79
3, 408738, Control_c, 0, 11, 78
3, 408778, Control_c, 0, 11, 77
3, 408817, Control_c, 0, 11, 76
3, 408857, Control_c, 0, 11, 75
3, 408897, Control_c, 0, 11, 74
3, 408937, Control_c, 0, 11, 73
3, 408976, Control_c, 0, 11, 72
3, 409016, Control_c, 0, 11, 71
3, 409056, Control_c, 0, 11, 70
3, 409095, Control_c, 0, 11, 69
3, 409135, Control_c, 0, 11, 68
3, 409174, Control_c, 0, 11, 67
3, 409214, Control_c, 0, 11, 66
3, 409253, Control_c, 0, 11, 65
3, 409331, Note_on_c, 0, 60, 0
3, 412560, Control_c, 0, 11, 92
3, 414481, Note_on_c, 0, 61, 49
3, 414600, Note_on_c, 0, 62, 55
3, 414601, Note_on_c, 0, 61, 0
3, 414720, Note_on_c, 0, 62, 0
3, 414726, Note_on_c, 0, 61, 39
3, 414846, Note_on_c, 0, 61, 0
3, 414851, Note_on_c, 0, 62, 56
3, 414971, Note_on_c, 0, 62, 0
3, 414979, Note_on_c, 0, 61, 46
3, 415098, Note_on_c, 0, 62, 55
3, 415099, Note_on_c, 0, 61, 0
3, 415200, Note_on_c, 0, 61, 53
3, 415218, Note_on_c, 0, 62, 0
3, 415320, Note_on_c, 0, 61, 0
3, 415341, Note_on_c, 0, 62, 48
3, 415461, Note_on_c, 0, 62, 0
3, 415465, Note_on_c, 0, 61, 58
3, 415581, Note_on_c, 0, 62, 52
3, 415585, Note_on_c, 0, 61, 0
3, 415686, Note_on_c, 0, 61, 46
3, 415701, Note_on_c, 0, 62, 0
3, 415806, Note_on_c, 0, 61, 0
3, 415810, Note_on_c, 0, 62, 46
3, 415923, Note_on_c, 0, 64, 58
3, 415930, Note_on_c, 0, 62, 0
3, 416040, Note_on_c, 0, 62, 40
3, 416043, Note_on_c, 0, 64, 0
3, 416160, Note_on_c, 0, 62, 0
3, 416164, Note_on_c, 0, 61, 44
3, 416284, Note_on_c, 0, 61, 0
3, 416290, Note_on_c, 0, 59, 40
3, 416404, Note_on_c, 0, 61, 51
3, 416410, Note_on_c, 0, 59, 0
3, 416524, Note_on_c, 0, 61, 0
3, 416526, Note_on_c, 0, 62, 52
3, 416646, Note_on_c, 0, 62, 0
3, 416654, Note_on_c, 0, 64, 45
3, 416770, Note_on_c, 0, 65, 44
3, 416774, Note_on_c, 0, 64, 0
3, 416890, Note_on_c, 0, 65, 0
3, 416897, Note_on_c, 0, 64, 41
3, 417011, Note_on_c, 0, 65, 54
3, 417017, Note_on_c, 0, 64, 0
3, 417131, Note_on_c, 0, 65, 0
3, 417140, Note_on_c, 0, 64, 42
3, 417240, Note_on_c, 0, 62, 41
3, 417260, Note_on_c, 0, 64, 0
3, 417360, Note_on_c, 0, 62, 0
3, 417362, Note_on_c, 0, 61, 48
3, 417482, Note_on_c, 0, 61, 0
3, 417487, Note_on_c, 0, 59, 58
3, 417607, Note_on_c, 0, 59, 0
3, 417617, Note_on_c, 0, 61, 54
3, 417737, Note_on_c, 0, 61, 0
3, 417741, Note_on_c, 0, 62, 40
3, 417861, Note_on_c, 0, 62, 0
3, 417865, Note_on_c, 0, 64, 55
3, 417978, Note_on_c, 0, 62, 49
3, 417985, Note_on_c, 0, 64, 0
3, 418082, Note_on_c, 0, 61, 43
3, 418098, Note_on_c, 0, 62, 0
3, 418202, Note_on_c, 0, 61, 0
3, 418216, Note_on_c, 0, 59, 50
3, 418335, Note_on_c, 0, 61, 57
3, 418336, Note_on_c, 0, 59, 0
3, 418454, Note_on_c, 0, 62, 60
3, 418455, Note_on_c, 0, 61, 0
3, 418568, Note_on_c, 0, 61, 65
3, 418574, Note_on_c, 0, 62, 0
3, 418688, Note_on_c, 0, 61, 0
3, 418690, Note_on_c, 0, 62, 65
3, 418802, Note_on_c, 0, 61, 77
3, 418810, Note_on_c, 0, 62, 0
3, 418922, Note_on_c, 0, 61, 0
3, 418929, Note_on_c, 0, 62, 76
3, 419049, Note_on_c, 0, 62, 0
3, 419055, Note_on_c, 0, 61, 73
3, 419169, Note_on_c, 0, 62, 77
3, 419175, Note_on_c, 0, 61, 0
3, 419264, Note_on_c, 0, 62, 0
3, 419283, Note_on_c, 0, 62, 69
3, 419403, Note_on_c, 0, 62, 0
3, 419429, Note_on_c, 0, 64, 73
3, 419545, Note_on_c, 0, 62, 70
3, 419549, Note_on_c, 0, 64, 0
3, 419649, Note_on_c, 0, 64, 72
3, 419665, Note_on_c, 0, 62, 0
3, 419761, Note_on_c, 0, 61, 79
3, 419769, Note_on_c, 0, 64, 0
3, 419881, Note_on_c, 0, 61, 0
3, 419885, Note_on_c, 0, 62, 83
3, 420005, Note_on_c, 0, 62, 0
3, 420007, Note_on_c, 0, 61, 68
3, 420127, Note_on_c, 0, 61, 0
3, 420132, Note_on_c, 0, 62, 82
3, 420223, Note_on_c, 0, 62, 0
3, 420242, Note_on_c, 0, 62, 69
3, 420362, Note_on_c, 0, 62, 0
3, 420380, Note_on_c, 0, 64, 82
3, 420487, Note_on_c, 0, 62, 81
3, 420500, Note_on_c, 0, 64, 0
3, 420607, Note_on_c, 0, 62, 0
3, 420626, Note_on_c, 0, 64, 79
3, 420726, Note_on_c, 0, 62, 74
3, 420746, Note_on_c, 0, 64, 0
3, 420846, Note_on_c, 0, 62, 0
3, 420863, Note_on_c, 0, 64, 78
3, 420983, Note_on_c, 0, 64, 0
3, 420986, Note_on_c, 0, 62, 68
3, 421087, Note_on_c, 0, 64, 68
3, 421106, Note_on_c, 0, 62, 0
3, 421207, Note_on_c, 0, 64, 0
3, 421227, Note_on_c, 0, 62, 68
3, 421344, Note_on_c, 0, 64, 65
3, 421347, Note_on_c, 0, 62, 0
3, 421461, Note_on_c, 0, 62, 78
3, 421464, Note_on_c, 0, 64, 0
3, 421577, Note_on_c, 0, 64, 82
3, 421581, Note_on_c, 0, 62, 0
3, 421697, Note_on_c, 0, 64, 0
3, 421708, Note_on_c, 0, 62, 85
3, 421802, Note_on_c, 0, 64, 67
3, 421828, Note_on_c, 0, 62, 0
3, 421922, Note_on_c, 0, 64, 0
3, 421931, Note_on_c, 0, 62, 71
3, 422050, Note_on_c, 0, 64, 81
3, 422051, Note_on_c, 0, 62, 0
3, 422162, Note_on_c, 0, 65, 70
3, 422170, Note_on_c, 0, 64, 0
3, 422282, Note_on_c, 0, 65, 0
3, 422284, Note_on_c, 0, 64, 70
3, 422404, Note_on_c, 0, 64, 0
3, 422427, Note_on_c, 0, 62, 82
3, 422544, Note_on_c, 0, 61, 83
3, 422547, Note_on_c, 0, 62, 0
3, 422657, Note_on_c, 0, 59, 85
3, 422664, Note_on_c, 0, 61, 0
3, 422765, Note_on_c, 0, 61, 82
3, 422777, Note_on_c, 0, 59, 0
3, 422885, Note_on_c, 0, 61, 0
3, 422896, Note_on_c, 0, 62, 84
3, 423016, Note_on_c, 0, 62, 0
3, 423022, Note_on_c, 0, 64, 70
3, 423120, Note_on_c, 0, 65, 82
3, 423142, Note_on_c, 0, 64, 0
3, 423240, Note_on_c, 0, 65, 0
3, 423247, Note_on_c, 0, 64, 83
3, 423367, Note_on_c, 0, 64, 0
3, 423378, Note_on_c, 0, 62, 70
3, 423498, Note_on_c, 0, 62, 0
3, 423508, Note_on_c, 0, 61, 84
3, 423624, Note_on_c, 0, 62, 67
3, 423628, Note_on_c, 0, 61, 0
3, 423729, Note_on_c, 0, 64, 71
3, 423744, Note_on_c, 0, 62, 0
3, 423849, Note_on_c, 0, 64, 0
3, 423860, Note_on_c, 0, 65, 68
3, 423980, Note_on_c, 0, 65, 0
3, 423985, Note_on_c, 0, 64, 71
3, 424102, Note_on_c, 0, 62, 69
3, 424105, Note_on_c, 0, 64, 0
3, 424205, Note_on_c, 0, 64, 78
3, 424222, Note_on_c, 0, 62, 0
3, 424325, Note_on_c, 0, 64, 0
3, 424334, Note_on_c, 0, 62, 84
3, 424448, Note_on_c, 0, 61, 75
3, 424454, Note_on_c, 0, 62, 0
3, 424562, Note_on_c, 0, 62, 72
3, 424568, Note_on_c, 0, 61, 0
3, 424682, Note_on_c, 0, 62, 0
3, 424696, Note_on_c, 0, 64, 83
3, 424808, Note_on_c, 0, 62, 67
3, 424816, Note_on_c, 0, 64, 0
3, 424928, Note_on_c, 0, 62, 0
3, 424940, Note_on_c, 0, 61, 79
3, 425043, Note_on_c, 0, 59, 72
3, 425060, Note_on_c, 0, 61, 0
3, 425163, Note_on_c, 0, 59, 0
3, 425188, Note_on_c, 0, 61, 71
3, 425297, Note_on_c, 0, 62, 84
3, 425308, Note_on_c, 0, 61, 0
3, 425417, Note_on_c, 0, 62, 0
3, 425424, Note_on_c, 0, 64, 79
3, 425541, Note_on_c, 0, 65, 66
3, 425544, Note_on_c, 0, 64, 0
3, 425641, Note_on_c, 0, 64, 69
3, 425661, Note_on_c, 0, 65, 0
3, 425761, Note_on_c, 0, 64, 0
3, 425762, Note_on_c, 0, 62, 70
3, 425882, Note_on_c, 0, 62, 0
3, 425892, Note_on_c, 0, 61, 83
3, 426000, Note_on_c, 0, 59, 65
3, 426012, Note_on_c, 0, 61, 0
3, 426120, Note_on_c, 0, 59, 0
3, 426126, Note_on_c, 0, 61, 72
3, 426246, Note_on_c, 0, 61, 0
3, 426257, Note_on_c, 0, 62, 83
3, 426377, Note_on_c, 0, 62, 0
3, 426383, Note_on_c, 0, 64, 71
3, 426442, Note_on_c, 0, 65, 84
3, 426484, Note_on_c, 0, 64, 0
3, 426502, Note_on_c, 0, 65, 0
3, 426503, Note_on_c, 0, 64, 66
3, 426602, Note_on_c, 0, 62, 69
3, 426623, Note_on_c, 0, 64, 0
3, 426721, Note_on_c, 0, 61, 68
3, 426722, Note_on_c, 0, 62, 0
3, 426841, Note_on_c, 0, 61, 0
3, 426849, Note_on_c, 0, 59, 76
3, 426966, Note_on_c, 0, 61, 75
3, 426969, Note_on_c, 0, 59, 0
3, 427086, Note_on_c, 0, 61, 0
3, 427087, Note_on_c, 0, 62, 69
3, 427207, Note_on_c, 0, 62, 0
3, 427227, Note_on_c, 0, 61, 81
3, 427341, Note_on_c, 0, 62, 84
3, 427347, Note_on_c, 0, 61, 0
3, 427440, Note_on_c, 0, 61, 81
3, 427461, Note_on_c, 0, 62, 0
3, 427560, Note_on_c, 0, 61, 0
3, 427570, Note_on_c, 0, 62, 67
3, 427690, Note_on_c, 0, 62, 0
3, 427691, Note_on_c, 0, 61, 70
3, 427804, Note_on_c, 0, 62, 69
3, 427811, Note_on_c, 0, 61, 0
3, 427924, Note_on_c, 0, 62, 0
3, 427935, Note_on_c, 0, 61, 80
3, 428052, Note_on_c, 0, 62, 66
3, 428055, Note_on_c, 0, 61, 0
3, 428165, Note_on_c, 0, 61, 78
3, 428172, Note_on_c, 0, 62, 0
3, 428285, Note_on_c, 0, 61, 0
3, 428306, Note_on_c, 0, 62, 78
3, 428417, Note_on_c, 0, 64, 68
3, 428426, Note_on_c, 0, 62, 0
3, 428537, Note_on_c, 0, 64, 0
3, 428538, Note_on_c, 0, 62, 74
3, 428648, Note_on_c, 0, 61, 76
3, 428658, Note_on_c, 0, 62, 0
3, 428768, Note_on_c, 0, 61, 0
3, 428771, Note_on_c, 0, 59, 80
3, 428882, Note_on_c, 0, 73, 53
3, 428891, Note_on_c, 0, 59, 0
3, 428901, Note_on_c, 0, 61, 51
3, 429002, Note_on_c, 0, 73, 0
3, 429007, Note_on_c, 0, 74, 39
3, 429014, Note_on_c, 0, 62, 52
3, 429021, Note_on_c, 0, 61, 0
3, 429127, Note_on_c, 0, 74, 0
3, 429134, Note_on_c, 0, 62, 0
3, 429139, Note_on_c, 0, 73, 39
3, 429142, Note_on_c, 0, 61, 56
3, 429247, Note_on_c, 0, 74, 47
3, 429259, Note_on_c, 0, 73, 0
3, 429259, Note_on_c, 0, 62, 40
3, 429262, Note_on_c, 0, 61, 0
3, 429364, Note_on_c, 0, 76, 39
3, 429367, Note_on_c, 0, 74, 0
3, 429370, Note_on_c, 0, 64, 48
3, 429379, Note_on_c, 0, 62, 0
3, 429484, Note_on_c, 0, 76, 0
3, 429487, Note_on_c, 0, 74, 40
3, 429489, Note_on_c, 0, 62, 40
3, 429490, Note_on_c, 0, 64, 0
3, 429607, Note_on_c, 0, 74, 0
3, 429609, Note_on_c, 0, 62, 0
3, 429616, Note_on_c, 0, 73, 43
3, 429620, Note_on_c, 0, 61, 55
3, 429723, Note_on_c, 0, 59, 42
3, 429736, Note_on_c, 0, 73, 0
3, 429740, Note_on_c, 0, 61, 0
3, 429741, Note_on_c, 0, 71, 46
3, 429843, Note_on_c, 0, 59, 0
3, 429850, Note_on_c, 0, 73, 54
3, 429856, Note_on_c, 0, 61, 39
3, 429861, Note_on_c, 0, 71, 0
3, 429970, Note_on_c, 0, 73, 0
3, 429975, Note_on_c, 0, 62, 51
3, 429976, Note_on_c, 0, 61, 0
3, 429976, Note_on_c, 0, 74, 57
3, 430094, Note_on_c, 0, 61, 41
3, 430095, Note_on_c, 0, 62, 0
3, 430096, Note_on_c, 0, 74, 0
3, 430099, Note_on_c, 0, 73, 56
3, 430202, Note_on_c, 0, 74, 59
3, 430214, Note_on_c, 0, 61, 0
3, 430219, Note_on_c, 0, 73, 0
3, 430224, Note_on_c, 0, 62, 40
3, 430322, Note_on_c, 0, 74, 0
3, 430322, Note_on_c, 0, 73, 55
3, 430327, Note_on_c, 0, 61, 47
3, 430344, Note_on_c, 0, 62, 0
3, 430442, Note_on_c, 0, 73, 0
3, 430442, Note_on_c, 0, 62, 48
3, 430447, Note_on_c, 0, 61, 0
3, 430451, Note_on_c, 0, 74, 53
3, 430562, Note_on_c, 0, 62, 0
3, 430571, Note_on_c, 0, 74, 0
3, 430588, Note_on_c, 0, 73, 43
3, 430588, Note_on_c, 0, 61, 44
3, 430691, Note_on_c, 0, 62, 45
3, 430706, Note_on_c, 0, 74, 50
3, 430708, Note_on_c, 0, 73, 0
3, 430708, Note_on_c, 0, 61, 0
3, 430802, Note_on_c, 0, 61, 49
3, 430811, Note_on_c, 0, 62, 0
3, 430823, Note_on_c, 0, 73, 57
3, 430826, Note_on_c, 0, 74, 0
3, 430922, Note_on_c, 0, 61, 0
3, 430932, Note_on_c, 0, 74, 47
3, 430941, Note_on_c, 0, 62, 42
3, 430943, Note_on_c, 0, 73, 0
3, 431052, Note_on_c, 0, 74, 0
3, 431052, Note_on_c, 0, 61, 50
3, 431056, Note_on_c, 0, 73, 52
3, 431061, Note_on_c, 0, 62, 0
3, 431170, Note_on_c, 0, 62, 44
3, 431172, Note_on_c, 0, 61, 0
3, 431176, Note_on_c, 0, 73, 0
3, 431180, Note_on_c, 0, 74, 44
3, 431290, Note_on_c, 0, 62, 0
3, 431297, Note_on_c, 0, 76, 43
3, 431297, Note_on_c, 0, 64, 56
3, 431300, Note_on_c, 0, 74, 0
3, 431411, Note_on_c, 0, 74, 42
3, 431417, Note_on_c, 0, 76, 0
3, 431417, Note_on_c, 0, 64, 0
3, 431428, Note_on_c, 0, 62, 56
3, 431531, Note_on_c, 0, 74, 0
3, 431532, Note_on_c, 0, 61, 57
3, 431541, Note_on_c, 0, 73, 40
3, 431548, Note_on_c, 0, 62, 0
3, 431640, Note_on_c, 0, 71, 43
3, 431642, Note_on_c, 0, 59, 50
3, 431652, Note_on_c, 0, 61, 0
3, 431661, Note_on_c, 0, 73, 0
3, 431760, Note_on_c, 0, 71, 0
3, 431762, Note_on_c, 0, 59, 0
3, 431764, Note_on_c, 0, 61, 48
3, 431767, Note_on_c, 0, 73, 59
3, 431884, Note_on_c, 0, 61, 0
3, 431887, Note_on_c, 0, 73, 0
3, 431887, Note_on_c, 0, 62, 46
3, 431906, Note_on_c, 0, 74, 51
3, 432007, Note_on_c, 0, 62, 0
3, 432008, Note_on_c, 0, 76, 43
3, 432016, Note_on_c, 0, 64, 46
3, 432026, Note_on_c, 0, 74, 0
3, 432124, Note_on_c, 0, 77, 51
3, 432128, Note_on_c, 0, 76, 0
3, 432136, Note_on_c, 0, 64, 0
3, 432140, Note_on_c, 0, 65, 39
3, 432244, Note_on_c, 0, 77, 0
3, 432245, Note_on_c, 0, 64, 56
3, 432260, Note_on_c, 0, 65, 0
3, 432269, Note_on_c, 0, 76, 39
3, 432365, Note_on_c, 0, 64, 0
3, 432365, Note_on_c, 0, 65, 55
3, 432367, Note_on_c, 0, 77, 46
3, 432389, Note_on_c, 0, 76, 0
3, 432485, Note_on_c, 0, 65, 0
3, 432486, Note_on_c, 0, 76, 52
3, 432487, Note_on_c, 0, 77, 0
3, 432506, Note_on_c, 0, 64, 44
3, 432600, Note_on_c, 0, 74, 48
3, 432606, Note_on_c, 0, 76, 0
3, 432612, Note_on_c, 0, 62, 46
3, 432626, Note_on_c, 0, 64, 0
3, 432720, Note_on_c, 0, 74, 0
3, 432732, Note_on_c, 0, 62, 0
3, 432739, Note_on_c, 0, 73, 58
3, 432745, Note_on_c, 0, 61, 55
3, 432844, Note_on_c, 0, 62, 46
3, 432859, Note_on_c, 0, 73, 0
3, 432864, Note_on_c, 0, 74, 45
3, 432865, Note_on_c, 0, 61, 0
3, 432964, Note_on_c, 0, 62, 0
3, 432965, Note_on_c, 0, 73, 44
3, 432983, Note_on_c, 0, 61, 53
3, 432984, Note_on_c, 0, 74, 0
3, 433081, Note_on_c, 0, 62, 51
3, 433084, Note_on_c, 0, 74, 45
3, 433085, Note_on_c, 0, 73, 0
3, 433103, Note_on_c, 0, 61, 0
3, 433201, Note_on_c, 0, 62, 0
3, 433204, Note_on_c, 0, 74, 0
3, 433209, Note_on_c, 0, 73, 57
3, 433214, Note_on_c, 0, 61, 57
3, 433323, Note_on_c, 0, 74, 45
3, 433329, Note_on_c, 0, 73, 0
3, 433334, Note_on_c, 0, 61, 0
3, 433334, Note_on_c, 0, 62, 50
3, 433443, Note_on_c, 0, 74, 0
3, 433446, Note_on_c, 0, 76, 57
3, 433454, Note_on_c, 0, 62, 0
3, 433462, Note_on_c, 0, 64, 52
3, 433566, Note_on_c, 0, 76, 0
3, 433569, Note_on_c, 0, 65, 43
3, 433571, Note_on_c, 0, 77, 45
3, 433582, Note_on_c, 0, 64, 0
3, 433682, Note_on_c, 0, 76, 52
3, 433689, Note_on_c, 0, 65, 0
3, 433691, Note_on_c, 0, 77, 0
3, 433696, Note_on_c, 0, 64, 56
3, 433802, Note_on_c, 0, 76, 0
3, 433816, Note_on_c, 0, 64, 0
3, 433819, Note_on_c, 0, 77, 58
3, 433829, Note_on_c, 0, 65, 53
3, 433931, Note_on_c, 0, 64, 53
3, 433939, Note_on_c, 0, 77, 0
3, 433946, Note_on_c, 0, 76, 57
3, 433949, Note_on_c, 0, 65, 0
3, 434051, Note_on_c, 0, 64, 0
3, 434053, Note_on_c, 0, 74, 57
3, 434054, Note_on_c, 0, 62, 50
3, 434066, Note_on_c, 0, 76, 0
3, 434169, Note_on_c, 0, 73, 53
3, 434171, Note_on_c, 0, 61, 46
3, 434173, Note_on_c, 0, 74, 0
3, 434174, Note_on_c, 0, 62, 0
3, 434288, Note_on_c, 0, 71, 46
3, 434289, Note_on_c, 0, 73, 0
3, 434291, Note_on_c, 0, 61, 0
3, 434305, Note_on_c, 0, 59, 52
3, 434406, Note_on_c, 0, 61, 48
3, 434408, Note_on_c, 0, 71, 0
3, 434424, Note_on_c, 0, 73, 57
3, 434425, Note_on_c, 0, 59, 0
3, 434522, Note_on_c, 0, 62, 52
3, 434526, Note_on_c, 0, 61, 0
3, 434543, Note_on_c, 0, 74, 47
3, 434544, Note_on_c, 0, 73, 0
3, 434642, Note_on_c, 0, 62, 0
3, 434642, Note_on_c, 0, 64, 43
3, 434654, Note_on_c, 0, 76, 44
3, 434663, Note_on_c, 0, 74, 0
3, 434762, Note_on_c, 0, 64, 0
3, 434774, Note_on_c, 0, 76, 0
3, 434779, Note_on_c, 0, 62, 53
3, 434781, Note_on_c, 0, 74, 43
3, 434884, Note_on_c, 0, 61, 53
3, 434899, Note_on_c, 0, 62, 0
3, 434901, Note_on_c, 0, 74, 0
3, 434903, Note_on_c, 0, 73, 48
3, 435004, Note_on_c, 0, 61, 0
3, 435023, Note_on_c, 0, 73, 0
3, 435023, Note_on_c, 0, 59, 55
3, 435024, Note_on_c, 0, 71, 42
3, 435134, Note_on_c, 0, 73, 50
3, 435138, Note_on_c, 0, 61, 53
3, 435143, Note_on_c, 0, 59, 0
3, 435144, Note_on_c, 0, 71, 0
3, 435247, Note_on_c, 0, 74, 52
3, 435253, Note_on_c, 0, 62, 41
3, 435254, Note_on_c, 0, 73, 0
3, 435258, Note_on_c, 0, 61, 0
3, 435362, Note_on_c, 0, 73, 42
3, 435367, Note_on_c, 0, 74, 0
3, 435373, Note_on_c, 0, 62, 0
3, 435385, Note_on_c, 0, 61, 48
3, 435482, Note_on_c, 0, 73, 0
3, 435491, Note_on_c, 0, 62, 59
3, 435505, Note_on_c, 0, 61, 0
3, 435508, Note_on_c, 0, 74, 58
3, 435604, Note_on_c, 0, 76, 45
3, 435611, Note_on_c, 0, 62, 0
3, 435614, Note_on_c, 0, 64, 54
3, 435628, Note_on_c, 0, 74, 0
3, 435724, Note_on_c, 0, 76, 0
3, 435728, Note_on_c, 0, 62, 44
3, 435734, Note_on_c, 0, 64, 0
3, 435740, Note_on_c, 0, 74, 55
3, 435845, Note_on_c, 0, 61, 51
3, 435848, Note_on_c, 0, 62, 0
3, 435860, Note_on_c, 0, 74, 0
3, 435863, Note_on_c, 0, 73, 53
3, 435962, Note_on_c, 0, 71, 44
3, 435965, Note_on_c, 0, 61, 0
3, 435983, Note_on_c, 0, 73, 0
3, 435984, Note_on_c, 0, 59, 59
3, 436082, Note_on_c, 0, 71, 0
3, 436088, Note_on_c, 0, 73, 54
3, 436090, Note_on_c, 0, 61, 40
3, 436104, Note_on_c, 0, 59, 0
3, 436208, Note_on_c, 0, 73, 0
3, 436210, Note_on_c, 0, 61, 0
3, 436221, Note_on_c, 0, 74, 42
3, 436228, Note_on_c, 0, 62, 46
3, 436341, Note_on_c, 0, 74, 0
3, 436341, Note_on_c, 0, 64, 59
3, 436346, Note_on_c, 0, 76, 39
3, 436348, Note_on_c, 0, 62, 0
3, 436448, Note_on_c, 0, 77, 45
3, 436461, Note_on_c, 0, 64, 0
3, 436463, Note_on_c, 0, 65, 48
3, 436466, Note_on_c, 0, 76, 0
3, 436568, Note_on_c, 0, 77, 0
3, 436577, Note_on_c, 0, 64, 49
3, 436577, Note_on_c, 0, 76, 41
3, 436583, Note_on_c, 0, 65, 0
3, 436687, Note_on_c, 0, 77, 57
3, 436692, Note_on_c, 0, 65, 48
3, 436697, Note_on_c, 0, 64, 0
3, 436697, Note_on_c, 0, 76, 0
3, 436807, Note_on_c, 0, 77, 0
3, 436812, Note_on_c, 0, 65, 0
3, 436813, Note_on_c, 0, 64, 51
3, 436826, Note_on_c, 0, 76, 48
3, 436921, Note_on_c, 0, 74, 48
3, 436933, Note_on_c, 0, 64, 0
3, 436945, Note_on_c, 0, 62, 51
3, 436946, Note_on_c, 0, 76, 0
3, 437041, Note_on_c, 0, 74, 0
3, 437054, Note_on_c, 0, 61, 40
3, 437060, Note_on_c, 0, 73, 49
3, 437065, Note_on_c, 0, 62, 0
3, 437174, Note_on_c, 0, 61, 0
3, 437174, Note_on_c, 0, 71, 48
3, 437180, Note_on_c, 0, 73, 0
3, 437185, Note_on_c, 0, 59, 40
3, 437284, Note_on_c, 0, 61, 53
3, 437294, Note_on_c, 0, 71, 0
3, 437305, Note_on_c, 0, 59, 0
3, 437306, Note_on_c, 0, 73, 48
3, 437404, Note_on_c, 0, 61, 0
3, 437408, Note_on_c, 0, 74, 47
3, 437412, Note_on_c, 0, 62, 41
3, 437426, Note_on_c, 0, 73, 0
3, 437526, Note_on_c, 0, 76, 48
3, 437528, Note_on_c, 0, 74, 0
3, 437532, Note_on_c, 0, 62, 0
3, 437538, Note_on_c, 0, 64, 42
3, 437646, Note_on_c, 0, 76, 0
3, 437658, Note_on_c, 0, 64, 0
3, 437661, Note_on_c, 0, 77, 44
3, 437667, Note_on_c, 0, 65, 51
3, 437761, Note_on_c, 0, 76, 54
3, 437769, Note_on_c, 0, 64, 40
3, 437781, Note_on_c, 0, 77, 0
3, 437787, Note_on_c, 0, 65, 0
3, 437881, Note_on_c, 0, 76, 0
3, 437881, Note_on_c, 0, 74, 51
3, 437883, Note_on_c, 0, 62, 41
3, 437889, Note_on_c, 0, 64, 0
3, 437986, Note_on_c, 0, 62, 0
3, 437998, Note_on_c, 0, 74, 0
3, 438005, Note_on_c, 0, 62, 96
3, 438017, Note_on_c, 0, 74, 98
3, 438038, Note_on_c, 0, 74, 0
3, 438057, Note_on_c, 0, 74, 103
3, 438087, Note_on_c, 0, 74, 0
3, 438107, Note_on_c, 0, 74, 106
3, 438122, Note_on_c, 0, 74, 0
3, 438125, Note_on_c, 0, 62, 0
3, 438136, Note_on_c, 0, 76, 79
3, 438139, Note_on_c, 0, 64, 96
3, 438141, Note_on_c, 0, 74, 102
3, 438159, Note_on_c, 0, 74, 0
3, 438178, Note_on_c, 0, 74, 122
3, 438185, Note_on_c, 0, 74, 0
3, 438204, Note_on_c, 0, 74, 111
3, 438222, Note_on_c, 0, 74, 0
3, 438233, Note_on_c, 0, 76, 0
3, 438242, Note_on_c, 0, 74, 78
3, 438247, Note_on_c, 0, 62, 94
3, 438252, Note_on_c, 0, 76, 114
3, 438259, Note_on_c, 0, 64, 0
3, 438282, Note_on_c, 0, 74, 0
3, 438291, Note_on_c, 0, 76, 0
3, 438301, Note_on_c, 0, 74, 106
3, 438314, Note_on_c, 0, 74, 0
3, 438334, Note_on_c, 0, 74, 100
3, 438361, Note_on_c, 0, 74, 0
3, 438363, Note_on_c, 0, 76, 87
3, 438367, Note_on_c, 0, 62, 0
3, 438379, Note_on_c, 0, 64, 83
3, 438380, Note_on_c, 0, 74, 106
3, 438398, Note_on_c, 0, 74, 0
3, 438418, Note_on_c, 0, 74, 95
3, 438432, Note_on_c, 0, 74, 0
3, 438451, Note_on_c, 0, 74, 79
3, 438469, Note_on_c, 0, 74, 0
3, 438483, Note_on_c, 0, 76, 0
3, 438488, Note_on_c, 0, 74, 82
3, 438494, Note_on_c, 0, 62, 78
3, 438499, Note_on_c, 0, 64, 0
3, 438527, Note_on_c, 0, 74, 0
3, 438546, Note_on_c, 0, 74, 93
3, 438547, Note_on_c, 0, 74, 0
3, 438566, Note_on_c, 0, 74, 102
3, 438589, Note_on_c, 0, 74, 0
3, 438607, Note_on_c, 0, 76, 93
3, 438608, Note_on_c, 0, 74, 114
3, 438614, Note_on_c, 0, 62, 0
3, 438626, Note_on_c, 0, 74, 0
3, 438627, Note_on_c, 0, 64, 93
3, 438645, Note_on_c, 0, 74, 108
3, 438670, Note_on_c, 0, 74, 0
3, 438689, Note_on_c, 0, 74, 110
3, 438704, Note_on_c, 0, 74, 0
3, 438708, Note_on_c, 0, 76, 0
3, 438722, Note_on_c, 0, 62, 81
3, 438724, Note_on_c, 0, 74, 92
3, 438727, Note_on_c, 0, 76, 114
3, 438744, Note_on_c, 0, 74, 0
3, 438747, Note_on_c, 0, 64, 0
3, 438763, Note_on_c, 0, 74, 108
3, 438766, Note_on_c, 0, 76, 0
3, 438787, Note_on_c, 0, 74, 0
3, 438806, Note_on_c, 0, 74, 99
3, 438821, Note_on_c, 0, 74, 0
3, 438841, Note_on_c, 0, 74, 99
3, 438842, Note_on_c, 0, 62, 0
3, 438850, Note_on_c, 0, 76, 81
3, 438852, Note_on_c, 0, 64, 93
3, 438871, Note_on_c, 0, 74, 0
3, 438890, Note_on_c, 0, 74, 91
3, 438917, Note_on_c, 0, 74, 0
3, 438937, Note_on_c, 0, 74, 85
3, 438947, Note_on_c, 0, 64, 0
3, 438966, Note_on_c, 0, 76, 0
3, 438967, Note_on_c, 0, 64, 95
3, 438977, Note_on_c, 0, 74, 0
3, 438985, Note_on_c, 0, 76, 80
3, 438986, Note_on_c, 0, 76, 0
3, 439003, Note_on_c, 0, 76, 85
3, 439026, Note_on_c, 0, 76, 0
3, 439046, Note_on_c, 0, 76, 99
3, 439084, Note_on_c, 0, 76, 0
3, 439084, Note_on_c, 0, 77, 86
3, 439084, Note_on_c, 0, 65, 98
3, 439087, Note_on_c, 0, 64, 0
3, 439103, Note_on_c, 0, 76, 106
3, 439114, Note_on_c, 0, 76, 0
3, 439134, Note_on_c, 0, 76, 117
3, 439165, Note_on_c, 0, 76, 0
3, 439184, Note_on_c, 0, 76, 122
3, 439199, Note_on_c, 0, 76, 0
3, 439201, Note_on_c, 0, 77, 0
3, 439204, Note_on_c, 0, 65, 0
3, 439208, Note_on_c, 0, 64, 81
3, 439218, Note_on_c, 0, 76, 78
3, 439220, Note_on_c, 0, 77, 114
3, 439229, Note_on_c, 0, 76, 0
3, 439248, Note_on_c, 0, 76, 106
3, 439259, Note_on_c, 0, 77, 0
3, 439274, Note_on_c, 0, 76, 0
3, 439293, Note_on_c, 0, 76, 97
3, 439328, Note_on_c, 0, 64, 0
3, 439329, Note_on_c, 0, 76, 0
3, 439339, Note_on_c, 0, 65, 89
3, 439346, Note_on_c, 0, 77, 91
3, 439348, Note_on_c, 0, 76, 108
3, 439351, Note_on_c, 0, 76, 0
3, 439370, Note_on_c, 0, 76, 85
3, 439395, Note_on_c, 0, 76, 0
3, 439414, Note_on_c, 0, 76, 95
3, 439428, Note_on_c, 0, 76, 0
3, 439447, Note_on_c, 0, 76, 89
3, 439454, Note_on_c, 0, 64, 82
3, 439459, Note_on_c, 0, 65, 0
3, 439466, Note_on_c, 0, 77, 0
3, 439476, Note_on_c, 0, 76, 0
3, 439495, Note_on_c, 0, 76, 93
3, 439521, Note_on_c, 0, 76, 0
3, 439541, Note_on_c, 0, 76, 102
3, 439558, Note_on_c, 0, 76, 0
3, 439561, Note_on_c, 0, 65, 93
3, 439574, Note_on_c, 0, 64, 0
3, 439577, Note_on_c, 0, 76, 105
3, 439588, Note_on_c, 0, 77, 80
3, 439594, Note_on_c, 0, 76, 0
3, 439613, Note_on_c, 0, 76, 122
3, 439648, Note_on_c, 0, 76, 0
3, 439668, Note_on_c, 0, 76, 111
3, 439672, Note_on_c, 0, 76, 0
3, 439678, Note_on_c, 0, 77, 0
3, 439681, Note_on_c, 0, 65, 0
3, 439685, Note_on_c, 0, 64, 94
3, 439691, Note_on_c, 0, 76, 87
3, 439697, Note_on_c, 0, 77, 114
3, 439708, Note_on_c, 0, 76, 0
3, 439727, Note_on_c, 0, 76, 107
3, 439736, Note_on_c, 0, 77, 0
3, 439767, Note_on_c, 0, 76, 0
3, 439786, Note_on_c, 0, 76, 104
3, 439805, Note_on_c, 0, 64, 0
3, 439808, Note_on_c, 0, 76, 0
3, 439813, Note_on_c, 0, 77, 78
3, 439820, Note_on_c, 0, 65, 95
3, 439828, Note_on_c, 0, 76, 103
3, 439839, Note_on_c, 0, 76, 0
3, 439858, Note_on_c, 0, 76, 85
3, 439864, Note_on_c, 0, 76, 0
3, 439883, Note_on_c, 0, 76, 93
3, 439923, Note_on_c, 0, 76, 0
3, 439928, Note_on_c, 0, 65, 0
3, 439929, Note_on_c, 0, 77, 0
3, 439947, Note_on_c, 0, 65, 91
3, 439948, Note_on_c, 0, 77, 87
3, 439968, Note_on_c, 0, 77, 0
3, 439987, Note_on_c, 0, 77, 87
3, 439996, Note_on_c, 0, 77, 0
3, 440015, Note_on_c, 0, 77, 93
3, 440038, Note_on_c, 0, 77, 0
3, 440050, Note_on_c, 0, 79, 87
3, 440057, Note_on_c, 0, 77, 101
3, 440060, Note_on_c, 0, 67, 97
3, 440067, Note_on_c, 0, 65, 0
3, 440087, Note_on_c, 0, 77, 0
3, 440106, Note_on_c, 0, 77, 107
3, 440107, Note_on_c, 0, 77, 0
3, 440120, Note_on_c, 0, 77, 127
3, 440143, Note_on_c, 0, 79, 0
3, 440150, Note_on_c, 0, 77, 0
3, 440163, Note_on_c, 0, 79, 115
3, 440163, Note_on_c, 0, 65, 93
3, 440169, Note_on_c, 0, 77, 97
3, 440180, Note_on_c, 0, 67, 0
3, 440194, Note_on_c, 0, 77, 0
3, 440202, Note_on_c, 0, 79, 0
3, 440213, Note_on_c, 0, 77, 109
3, 440235, Note_on_c, 0, 77, 0
3, 440255, Note_on_c, 0, 77, 116
3, 440271, Note_on_c, 0, 77, 0
3, 440283, Note_on_c, 0, 65, 0
3, 440284, Note_on_c, 0, 67, 87
3, 440290, Note_on_c, 0, 77, 108
3, 440295, Note_on_c, 0, 79, 94
3, 440306, Note_on_c, 0, 77, 0
3, 440326, Note_on_c, 0, 77, 102
3, 440366, Note_on_c, 0, 77, 0
3, 440387, Note_on_c, 0, 77, 93
3, 440404, Note_on_c, 0, 67, 0
3, 440407, Note_on_c, 0, 77, 0
3, 440415, Note_on_c, 0, 79, 0
3, 440426, Note_on_c, 0, 77, 90
3, 440428, Note_on_c, 0, 65, 91
3, 440445, Note_on_c, 0, 77, 0
3, 440464, Note_on_c, 0, 77, 90
3, 440466, Note_on_c, 0, 77, 0
3, 440485, Note_on_c, 0, 77, 105
3, 440507, Note_on_c, 0, 77, 0
3, 440526, Note_on_c, 0, 77, 106
3, 440531, Note_on_c, 0, 79, 89
3, 440548, Note_on_c, 0, 65, 0
3, 440548, Note_on_c, 0, 67, 78
3, 440553, Note_on_c, 0, 77, 0
3, 440573, Note_on_c, 0, 77, 115
3, 440588, Note_on_c, 0, 77, 0
3, 440607, Note_on_c, 0, 77, 110
3, 440626, Note_on_c, 0, 79, 0
3, 440639, Note_on_c, 0, 77, 0
3, 440646, Note_on_c, 0, 79, 121
3, 440658, Note_on_c, 0, 77, 95
3, 440665, Note_on_c, 0, 65, 91
3, 440668, Note_on_c, 0, 67, 0
3, 440679, Note_on_c, 0, 77, 0
3, 440685, Note_on_c, 0, 79, 0
3, 440698, Note_on_c, 0, 77, 121
3, 440724, Note_on_c, 0, 77, 0
3, 440743, Note_on_c, 0, 77, 104
3, 440756, Note_on_c, 0, 77, 0
3, 440766, Note_on_c, 0, 76, 93
3, 440770, Note_on_c, 0, 64, 86
3, 440775, Note_on_c, 0, 77, 101
3, 440783, Note_on_c, 0, 77, 0
3, 440785, Note_on_c, 0, 65, 0
3, 440802, Note_on_c, 0, 77, 87
3, 440834, Note_on_c, 0, 77, 0
3, 440854, Note_on_c, 0, 77, 89
3, 440886, Note_on_c, 0, 76, 0
3, 440888, Note_on_c, 0, 74, 80
3, 440890, Note_on_c, 0, 64, 0
3, 440894, Note_on_c, 0, 77, 0
3, 440900, Note_on_c, 0, 74, 0
3, 440907, Note_on_c, 0, 62, 95
3, 440919, Note_on_c, 0, 74, 94
3, 440955, Note_on_c, 0, 74, 0
3, 440975, Note_on_c, 0, 74, 110
3, 440990, Note_on_c, 0, 74, 0
3, 441007, Note_on_c, 0, 64, 92
3, 441009, Note_on_c, 0, 74, 106
3, 441011, Note_on_c, 0, 76, 88
3, 441027, Note_on_c, 0, 62, 0
3, 441032, Note_on_c, 0, 74, 0
3, 441051, Note_on_c, 0, 74, 118
3, 441066, Note_on_c, 0, 74, 0
3, 441086, Note_on_c, 0, 74, 122
3, 441103, Note_on_c, 0, 76, 0
3, 441110, Note_on_c, 0, 74, 0
3, 441122, Note_on_c, 0, 76, 118
3, 441127, Note_on_c, 0, 64, 0
3, 441129, Note_on_c, 0, 74, 85
3, 441131, Note_on_c, 0, 62, 95
3, 441151, Note_on_c, 0, 74, 0
3, 441161, Note_on_c, 0, 76, 0
3, 441170, Note_on_c, 0, 74, 117
3, 441197, Note_on_c, 0, 74, 0
3, 441217, Note_on_c, 0, 74, 117
3, 441246, Note_on_c, 0, 74, 0
3, 441247, Note_on_c, 0, 64, 79
3, 441251, Note_on_c, 0, 62, 0
3, 441264, Note_on_c, 0, 76, 85
3, 441265, Note_on_c, 0, 74, 93
3, 441282, Note_on_c, 0, 74, 0
3, 441301, Note_on_c, 0, 74, 100
3, 441315, Note_on_c, 0, 74, 0
3, 441335, Note_on_c, 0, 74, 92
3, 441342, Note_on_c, 0, 74, 0
3, 441361, Note_on_c, 0, 74, 98
3, 441361, Note_on_c, 0, 62, 94
3, 441367, Note_on_c, 0, 64, 0
3, 441384, Note_on_c, 0, 76, 0
3, 441395, Note_on_c, 0, 74, 0
3, 441415, Note_on_c, 0, 74, 100
3, 441439, Note_on_c, 0, 74, 0
3, 441458, Note_on_c, 0, 74, 110
3, 441481, Note_on_c, 0, 62, 0
3, 441483, Note_on_c, 0, 74, 0
3, 441484, Note_on_c, 0, 64, 93
3, 441494, Note_on_c, 0, 76, 96
3, 441502, Note_on_c, 0, 74, 116
3, 441505, Note_on_c, 0, 74, 0
3, 441524, Note_on_c, 0, 74, 117
3, 441541, Note_on_c, 0, 74, 0
3, 441560, Note_on_c, 0, 74, 127
3, 441584, Note_on_c, 0, 74, 0
3, 441599, Note_on_c, 0, 76, 0
3, 441603, Note_on_c, 0, 74, 85
3, 441604, Note_on_c, 0, 64, 0
3, 441618, Note_on_c, 0, 76, 125
3, 441626, Note_on_c, 0, 74, 0
3, 441629, Note_on_c, 0, 62, 96
3, 441646, Note_on_c, 0, 74, 105
3, 441657, Note_on_c, 0, 76, 0
3, 441668, Note_on_c, 0, 74, 0
3, 441687, Note_on_c, 0, 74, 100
3, 441701, Note_on_c, 0, 74, 0
3, 441721, Note_on_c, 0, 74, 92
3, 441728, Note_on_c, 0, 64, 89
3, 441742, Note_on_c, 0, 76, 84
3, 441749, Note_on_c, 0, 62, 0
3, 441752, Note_on_c, 0, 74, 0
3, 441771, Note_on_c, 0, 74, 100
3, 441780, Note_on_c, 0, 74, 0
3, 441800, Note_on_c, 0, 74, 79
3, 441826, Note_on_c, 0, 64, 0
3, 441840, Note_on_c, 0, 74, 0
3, 441842, Note_on_c, 0, 76, 0
3, 441845, Note_on_c, 0, 64, 94
3, 441862, Note_on_c, 0, 76, 89
3, 441887, Note_on_c, 0, 76, 0
3, 441906, Note_on_c, 0, 76, 92
3, 441915, Note_on_c, 0, 76, 0
3, 441935, Note_on_c, 0, 76, 104
3, 441958, Note_on_c, 0, 76, 0
3, 441962, Note_on_c, 0, 65, 87
3, 441965, Note_on_c, 0, 64, 0
3, 441977, Note_on_c, 0, 76, 99
3, 441980, Note_on_c, 0, 77, 95
3, 442001, Note_on_c, 0, 76, 0
3, 442020, Note_on_c, 0, 76, 109
3, 442023, Note_on_c, 0, 76, 0
3, 442042, Note_on_c, 0, 76, 117
3, 442062, Note_on_c, 0, 76, 0
3, 442063, Note_on_c, 0, 77, 0
3, 442082, Note_on_c, 0, 65, 0
3, 442082, Note_on_c, 0, 76, 98
3, 442083, Note_on_c, 0, 77, 122
3, 442091, Note_on_c, 0, 64, 88
3, 442111, Note_on_c, 0, 76, 0
3, 442122, Note_on_c, 0, 77, 0
3, 442130, Note_on_c, 0, 76, 107
3, 442146, Note_on_c, 0, 76, 0
3, 442165, Note_on_c, 0, 76, 97
3, 442198, Note_on_c, 0, 76, 0
3, 442211, Note_on_c, 0, 64, 0
3, 442217, Note_on_c, 0, 76, 109
3, 442223, Note_on_c, 0, 65, 94
3, 442226, Note_on_c, 0, 77, 91
3, 442242, Note_on_c, 0, 76, 0
3, 442262, Note_on_c, 0, 76, 94
3, 442274, Note_on_c, 0, 76, 0
3, 442293, Note_on_c, 0, 76, 85
3, 442324, Note_on_c, 0, 76, 0
3, 442343, Note_on_c, 0, 65, 0
3, 442344, Note_on_c, 0, 76, 97
3, 442346, Note_on_c, 0, 77, 0
3, 442348, Note_on_c, 0, 64, 83
3, 442367, Note_on_c, 0, 76, 0
3, 442386, Note_on_c, 0, 76, 95
3, 442387, Note_on_c, 0, 76, 0
3, 442403, Note_on_c, 0, 76, 105
3, 442431, Note_on_c, 0, 76, 0
3, 442446, Note_on_c, 0, 65, 87
3, 442450, Note_on_c, 0, 76, 116
3, 442463, Note_on_c, 0, 77, 78
3, 442468, Note_on_c, 0, 64, 0
3, 442481, Note_on_c, 0, 76, 0
3, 442500, Note_on_c, 0, 76, 124
3, 442514, Note_on_c, 0, 76, 0
3, 442533, Note_on_c, 0, 76, 121
3, 442548, Note_on_c, 0, 77, 0
3, 442558, Note_on_c, 0, 76, 0
3, 442566, Note_on_c, 0, 65, 0
3, 442567, Note_on_c, 0, 77, 111
3, 442570, Note_on_c, 0, 64, 86
3, 442578, Note_on_c, 0, 76, 95
3, 442599, Note_on_c, 0, 76, 0
3, 442606, Note_on_c, 0, 77, 0
3, 442618, Note_on_c, 0, 76, 123
3, 442634, Note_on_c, 0, 76, 0
3, 442653, Note_on_c, 0, 76, 102
3, 442671, Note_on_c, 0, 76, 0
3, 442690, Note_on_c, 0, 64, 0
3, 442691, Note_on_c, 0, 76, 93
3, 442694, Note_on_c, 0, 65, 92
3, 442702, Note_on_c, 0, 77, 93
3, 442723, Note_on_c, 0, 76, 0
3, 442742, Note_on_c, 0, 76, 90
3, 442759, Note_on_c, 0, 76, 0
3, 442779, Note_on_c, 0, 76, 96
3, 442791, Note_on_c, 0, 77, 0
3, 442809, Note_on_c, 0, 65, 0
3, 442810, Note_on_c, 0, 77, 90
3, 442819, Note_on_c, 0, 76, 0
3, 442829, Note_on_c, 0, 65, 88
3, 442842, Note_on_c, 0, 77, 0
3, 442862, Note_on_c, 0, 77, 99
3, 442865, Note_on_c, 0, 77, 0
3, 442884, Note_on_c, 0, 77, 105
3, 442904, Note_on_c, 0, 77, 0
3, 442923, Note_on_c, 0, 77, 102
3, 442923, Note_on_c, 0, 67, 94
3, 442945, Note_on_c, 0, 79, 79
3, 442949, Note_on_c, 0, 65, 0
3, 442962, Note_on_c, 0, 77, 0
3, 442985, Note_on_c, 0, 77, 121
3, 442994, Note_on_c, 0, 77, 0
3, 443013, Note_on_c, 0, 77, 120
3, 443029, Note_on_c, 0, 79, 0
3, 443043, Note_on_c, 0, 67, 0
3, 443044, Note_on_c, 0, 77, 0
3, 443048, Note_on_c, 0, 79, 116
3, 443063, Note_on_c, 0, 77, 95
3, 443064, Note_on_c, 0, 77, 0
3, 443066, Note_on_c, 0, 65, 88
3, 443082, Note_on_c, 0, 77, 113
3, 443087, Note_on_c, 0, 79, 0
3, 443126, Note_on_c, 0, 77, 0
3, 443146, Note_on_c, 0, 77, 116
3, 443149, Note_on_c, 0, 77, 0
3, 443166, Note_on_c, 0, 79, 80
3, 443167, Note_on_c, 0, 67, 93
3, 443168, Note_on_c, 0, 77, 106
3, 443186, Note_on_c, 0, 65, 0
3, 443203, Note_on_c, 0, 77, 0
3, 443222, Note_on_c, 0, 77, 93
3, 443245, Note_on_c, 0, 77, 0
3, 443264, Note_on_c, 0, 77, 93
3, 443265, Note_on_c, 0, 77, 0
3, 443285, Note_on_c, 0, 77, 95
3, 443286, Note_on_c, 0, 79, 0
3, 443287, Note_on_c, 0, 67, 0
3, 443309, Note_on_c, 0, 65, 94
3, 443316, Note_on_c, 0, 77, 0
3, 443335, Note_on_c, 0, 77, 86
3, 443364, Note_on_c, 0, 77, 0
3, 443383, Note_on_c, 0, 77, 101
3, 443384, Note_on_c, 0, 77, 0
3, 443401, Note_on_c, 0, 77, 98
3, 443412, Note_on_c, 0, 67, 93
3, 443413, Note_on_c, 0, 79, 97
3, 443427, Note_on_c, 0, 77, 0
3, 443429, Note_on_c, 0, 65, 0
3, 443446, Note_on_c, 0, 77, 119
3, 443470, Note_on_c, 0, 77, 0
3, 443489, Note_on_c, 0, 77, 127
3, 443511, Note_on_c, 0, 79, 0
3, 443521, Note_on_c, 0, 65, 91
3, 443523, Note_on_c, 0, 77, 0
3, 443530, Note_on_c, 0, 79, 116
3, 443532, Note_on_c, 0, 67, 0
3, 443543, Note_on_c, 0, 77, 79
3, 443554, Note_on_c, 0, 77, 0
3, 443569, Note_on_c, 0, 79, 0
3, 443573, Note_on_c, 0, 77, 116
3, 443598, Note_on_c, 0, 77, 0
3, 443617, Note_on_c, 0, 77, 97
3, 443632, Note_on_c, 0, 77, 0
3, 443641, Note_on_c, 0, 65, 0
3, 443651, Note_on_c, 0, 77, 85
3, 443664, Note_on_c, 0, 73, 94
3, 443667, Note_on_c, 0, 64, 81
3, 443669, Note_on_c, 0, 76, 95
3, 443690, Note_on_c, 0, 77, 0
3, 443693, Note_on_c, 0, 79, 78
3, 443699, Note_on_c, 0, 75, 102
3, 443703, Note_on_c, 0, 73, 0
3, 443733, Note_on_c, 0, 79, 0
3, 443735, Note_on_c, 0, 77, 86
3, 443739, Note_on_c, 0, 75, 0
3, 443746, Note_on_c, 0, 81, 83
3, 443761, Note_on_c, 0, 90, 93
3, 443771, Note_on_c, 0, 82, 94
3, 443775, Note_on_c, 0, 77, 0
3, 443780, Note_on_c, 0, 70, 82
3, 443786, Note_on_c, 0, 81, 0
3, 443787, Note_on_c, 0, 64, 0
3, 443788, Note_on_c, 0, 94, 84
3, 443789, Note_on_c, 0, 76, 0
3, 443900, Note_on_c, 0, 70, 0
3, 443908, Note_on_c, 0, 94, 0
3, 444001, Note_on_c, 0, 90, 0
3, 444011, Note_on_c, 0, 82, 0
3, 448099, Control_c, 0, 7, 92
3, 448568, Note_on_c, 0, 72, 87
3, 448576, Note_on_c, 0, 60, 94
3, 448583, Note_on_c, 0, 68, 90
3, 448868, Note_on_c, 0, 72, 0
3, 448869, Note_on_c, 0, 67, 97
3, 448876, Note_on_c, 0, 60, 0
3, 448880, Note_on_c, 0, 59, 94
3, 448883, Note_on_c, 0, 68, 0
3, 448883, Note_on_c, 0, 71, 96
3, 448929, Note_on_c, 0, 67, 0
3, 448930, Note_on_c, 0, 70, 76
3, 448938, Note_on_c, 0, 66, 82
3, 448940, Note_on_c, 0, 59, 0
3, 448943, Note_on_c, 0, 71, 0
3, 448946, Note_on_c, 0, 58, 74
3, 448990, Note_on_c, 0, 70, 0
3, 448992, Note_on_c, 0, 65, 60
3, 448994, Note_on_c, 0, 57, 58
3, 448998, Note_on_c, 0, 66, 0
3, 449006, Note_on_c, 0, 58, 0
3, 449008, Note_on_c, 0, 69, 61
3, 449052, Note_on_c, 0, 65, 0
3, 449054, Note_on_c, 0, 57, 0
3, 449057, Note_on_c, 0, 56, 54
3, 449063, Note_on_c, 0, 64, 46
3, 449064, Note_on_c, 0, 68, 54
3, 449068, Note_on_c, 0, 69, 0
3, 449177, Note_on_c, 0, 56, 0
3, 449183, Note_on_c, 0, 64, 0
3, 449184, Note_on_c, 0, 68, 0
3, 450489, Note_on_c, 0, 60, 90
3, 450504, Note_on_c, 0, 72, 97
3, 450508, Note_on_c, 0, 68, 81
3, 450783, Note_on_c, 0, 67, 96
3, 450789, Note_on_c, 0, 60, 0
3, 450796, Note_on_c, 0, 59, 90
3, 450804, Note_on_c, 0, 72, 0
3, 450806, Note_on_c, 0, 71, 89
3, 450808, Note_on_c, 0, 68, 0
3, 450843, Note_on_c, 0, 67, 0
3, 450848, Note_on_c, 0, 66, 81
3, 450855, Note_on_c, 0, 70, 87
3, 450856, Note_on_c, 0, 59, 0
3, 450866, Note_on_c, 0, 71, 0
3, 450866, Note_on_c, 0, 58, 77
3, 450908, Note_on_c, 0, 66, 0
3, 450909, Note_on_c, 0, 65, 57
3, 450915, Note_on_c, 0, 70, 0
3, 450918, Note_on_c, 0, 57, 64
3, 450924, Note_on_c, 0, 69, 75
3, 450926, Note_on_c, 0, 58, 0
3, 450969, Note_on_c, 0, 65, 0
3, 450969, Note_on_c, 0, 68, 56
3, 450971, Note_on_c, 0, 64, 63
3, 450977, Note_on_c, 0, 56, 61
3, 450978, Note_on_c, 0, 57, 0
3, 450984, Note_on_c, 0, 69, 0
3, 451089, Note_on_c, 0, 68, 0
3, 451091, Note_on_c, 0, 64, 0
3, 451097, Note_on_c, 0, 56, 0
3, 452416, Note_on_c, 0, 72, 98
3, 452416, Note_on_c, 0, 60, 92
3, 452420, Note_on_c, 0, 68, 82
3, 452701, Note_on_c, 0, 71, 95
3, 452716, Note_on_c, 0, 72, 0
3, 452716, Note_on_c, 0, 60, 0
3, 452720, Note_on_c, 0, 68, 0
3, 452722, Note_on_c, 0, 59, 83
3, 452727, Note_on_c, 0, 67, 97
3, 452761, Note_on_c, 0, 71, 0
3, 452771, Note_on_c, 0, 66, 71
3, 452778, Note_on_c, 0, 70, 73
3, 452779, Note_on_c, 0, 58, 76
3, 452782, Note_on_c, 0, 59, 0
3, 452787, Note_on_c, 0, 67, 0
3, 452827, Note_on_c, 0, 65, 65
3, 452827, Note_on_c, 0, 69, 60
3, 452831, Note_on_c, 0, 66, 0
3, 452836, Note_on_c, 0, 57, 76
3, 452838, Note_on_c, 0, 70, 0
3, 452839, Note_on_c, 0, 58, 0
3, 452886, Note_on_c, 0, 64, 48
3, 452887, Note_on_c, 0, 65, 0
3, 452887, Note_on_c, 0, 69, 0
3, 452895, Note_on_c, 0, 68, 53
3, 452896, Note_on_c, 0, 57, 0
3, 452897, Note_on_c, 0, 56, 66
3, 453006, Note_on_c, 0, 64, 0
3, 453015, Note_on_c, 0, 68, 0
3, 453017, Note_on_c, 0, 56, 0
3, 458088, Note_on_c, 0, 88, 92
3, 458089, Note_on_c, 0, 76, 84
3, 458102, Note_on_c, 0, 75, 95
3, 458103, Note_on_c, 0, 87, 89
3, 458118, Note_on_c, 0, 88, 0
3, 458119, Note_on_c, 0, 76, 0
3, 458133, Note_on_c, 0, 75, 0
3, 458134, Note_on_c, 0, 87, 0
3, 458142, Note_on_c, 0, 86, 92
3, 458142, Note_on_c, 0, 74, 86
3, 458164, Note_on_c, 0, 73, 97
3, 458171, Note_on_c, 0, 86, 0
3, 458171, Note_on_c, 0, 74, 0
3, 458175, Note_on_c, 0, 85, 92
3, 458404, Note_on_c, 0, 73, 0
3, 458415, Note_on_c, 0, 85, 0
3, 458576, Note_on_c, 0, 76, 105
3, 458578, Note_on_c, 0, 88, 92
3, 458584, Note_on_c, 0, 87, 94
3, 458598, Note_on_c, 0, 75, 106
3, 458606, Note_on_c, 0, 76, 0
3, 458608, Note_on_c, 0, 88, 0
3, 458611, Note_on_c, 0, 74, 96
3, 458615, Note_on_c, 0, 87, 0
3, 458622, Note_on_c, 0, 86, 109
3, 458629, Note_on_c, 0, 75, 0
3, 458640, Note_on_c, 0, 74, 0
3, 458640, Note_on_c, 0, 73, 91
3, 458651, Note_on_c, 0, 86, 0
3, 458658, Note_on_c, 0, 85, 108
3, 458880, Note_on_c, 0, 73, 0
3, 458898, Note_on_c, 0, 85, 0
3, 459030, Note_on_c, 0, 76, 93
3, 459057, Note_on_c, 0, 88, 108
3, 459060, Note_on_c, 0, 76, 0
3, 459060, Note_on_c, 0, 75, 104
3, 459071, Note_on_c, 0, 87, 97
3, 459087, Note_on_c, 0, 88, 0
3, 459091, Note_on_c, 0, 75, 0
3, 459101, Note_on_c, 0, 86, 104
3, 459102, Note_on_c, 0, 87, 0
3, 459110, Note_on_c, 0, 74, 108
3, 459130, Note_on_c, 0, 86, 0
3, 459137, Note_on_c, 0, 73, 100
3, 459139, Note_on_c, 0, 74, 0
3, 459141, Note_on_c, 0, 85, 97
3, 459377, Note_on_c, 0, 73, 0
3, 459381, Note_on_c, 0, 85, 0
3, 459527, Note_on_c, 0, 76, 97
3, 459538, Note_on_c, 0, 88, 111
3, 459545, Note_on_c, 0, 87, 100
3, 459550, Note_on_c, 0, 75, 110
3, 459557, Note_on_c, 0, 76, 0
3, 459568, Note_on_c, 0, 88, 0
3, 459575, Note_on_c, 0, 87, 0
3, 459580, Note_on_c, 0, 75, 0
3, 459587, Note_on_c, 0, 74, 93
3, 459593, Note_on_c, 0, 86, 105
3, 459608, Note_on_c, 0, 73, 106
3, 459614, Note_on_c, 0, 85, 105
3, 459617, Note_on_c, 0, 74, 0
3, 459623, Note_on_c, 0, 86, 0
3, 459848, Note_on_c, 0, 73, 0
3, 459854, Note_on_c, 0, 85, 0
3, 461430, Note_on_c, 0, 88, 92
3, 461446, Note_on_c, 0, 76, 98
3, 461460, Note_on_c, 0, 88, 0
3, 461461, Note_on_c, 0, 87, 100
3, 461462, Note_on_c, 0, 75, 104
3, 461476, Note_on_c, 0, 76, 0
3, 461491, Note_on_c, 0, 87, 0
3, 461492, Note_on_c, 0, 75, 0
3, 461502, Note_on_c, 0, 86, 104
3, 461506, Note_on_c, 0, 74, 101
3, 461531, Note_on_c, 0, 85, 111
3, 461532, Note_on_c, 0, 86, 0
3, 461536, Note_on_c, 0, 74, 0
3, 461543, Note_on_c, 0, 73, 93
3, 461771, Note_on_c, 0, 85, 0
3, 461783, Note_on_c, 0, 73, 0
3, 463357, Note_on_c, 0, 88, 103
3, 463359, Note_on_c, 0, 76, 96
3, 463386, Note_on_c, 0, 75, 108
3, 463387, Note_on_c, 0, 88, 0
3, 463389, Note_on_c, 0, 76, 0
3, 463404, Note_on_c, 0, 87, 95
3, 463416, Note_on_c, 0, 75, 0
3, 463416, Note_on_c, 0, 86, 95
3, 463420, Note_on_c, 0, 74, 102
3, 463434, Note_on_c, 0, 87, 0
3, 463446, Note_on_c, 0, 86, 0
3, 463450, Note_on_c, 0, 74, 0
3, 463459, Note_on_c, 0, 85, 108
3, 463465, Note_on_c, 0, 73, 100
3, 463699, Note_on_c, 0, 85, 0
3, 463705, Note_on_c, 0, 73, 0
3, 465281, Note_on_c, 0, 88, 104
3, 465287, Note_on_c, 0, 76, 98
3, 465308, Note_on_c, 0, 87, 92
3, 465311, Note_on_c, 0, 88, 0
3, 465317, Note_on_c, 0, 76, 0
3, 465325, Note_on_c, 0, 75, 102
3, 465338, Note_on_c, 0, 87, 0
3, 465355, Note_on_c, 0, 75, 0
3, 465357, Note_on_c, 0, 74, 108
3, 465357, Note_on_c, 0, 86, 108
3, 465368, Note_on_c, 0, 85, 104
3, 465380, Note_on_c, 0, 73, 91
3, 465387, Note_on_c, 0, 74, 0
3, 465387, Note_on_c, 0, 86, 0
3, 465608, Note_on_c, 0, 85, 0
3, 465620, Note_on_c, 0, 73, 0
3, 468720, Control_c, 0, 7, 127
3, 471612, Note_on_c, 0, 59, 49
3, 471732, Note_on_c, 0, 59, 0
3, 471745, Note_on_c, 0, 62, 41
3, 471845, Note_on_c, 0, 59, 37
3, 471865, Note_on_c, 0, 62, 0
3, 471965, Note_on_c, 0, 59, 0
3, 471985, Note_on_c, 0, 56, 30
3, 472088, Control_c, 0, 11, 126
3, 472100, Note_on_c, 0, 60, 50
3, 472105, Note_on_c, 0, 56, 0
3, 472111, Control_c, 0, 11, 125
3, 472135, Control_c, 0, 11, 124
3, 472158, Control_c, 0, 11, 123
3, 472181, Control_c, 0, 11, 122
3, 472204, Control_c, 0, 11, 121
3, 472227, Control_c, 0, 11, 120
3, 472250, Control_c, 0, 11, 119
3, 472273, Control_c, 0, 11, 118
3, 472296, Control_c, 0, 11, 117
3, 472320, Control_c, 0, 11, 116
3, 472342, Control_c, 0, 11, 115
3, 472365, Control_c, 0, 11, 114
3, 472388, Control_c, 0, 11, 113
3, 472412, Control_c, 0, 11, 112
3, 472435, Control_c, 0, 11, 111
3, 472458, Control_c, 0, 11, 110
3, 472481, Control_c, 0, 11, 109
3, 472504, Control_c, 0, 11, 108
3, 472527, Control_c, 0, 11, 107
3, 472550, Control_c, 0, 11, 106
3, 472573, Control_c, 0, 11, 105
3, 472596, Control_c, 0, 11, 104
3, 472620, Control_c, 0, 11, 103
3, 472642, Control_c, 0, 11, 102
3, 472665, Control_c, 0, 11, 101
3, 472688, Control_c, 0, 11, 100
3, 472712, Control_c, 0, 11, 99
3, 472735, Control_c, 0, 11, 98
3, 472758, Control_c, 0, 11, 97
3, 472781, Control_c, 0, 11, 96
3, 472804, Control_c, 0, 11, 95
3, 472827, Control_c, 0, 11, 94
3, 472850, Control_c, 0, 11, 93
3, 472873, Control_c, 0, 11, 92
3, 472897, Control_c, 0, 11, 91
3, 472920, Control_c, 0, 11, 90
3, 472942, Control_c, 0, 11, 89
3, 472965, Control_c, 0, 11, 88
3, 472989, Control_c, 0, 11, 87
3, 473012, Control_c, 0, 11, 86
3, 473035, Control_c, 0, 11, 85
3, 473058, Control_c, 0, 11, 84
3, 473081, Control_c, 0, 11, 83
3, 473104, Control_c, 0, 11, 82
3, 473127, Control_c, 0, 11, 81
3, 473150, Control_c, 0, 11, 80
3, 473173, Control_c, 0, 11, 79
3, 473197, Control_c, 0, 11, 78
3, 473220, Control_c, 0, 11, 77
3, 473242, Control_c, 0, 11, 76
3, 473265, Control_c, 0, 11, 75
3, 473289, Control_c, 0, 11, 74
3, 473312, Control_c, 0, 11, 73
3, 473335, Control_c, 0, 11, 72
3, 473358, Control_c, 0, 11, 71
3, 473381, Control_c, 0, 11, 70
3, 473404, Control_c, 0, 11, 69
3, 473427, Control_c, 0, 11, 68
3, 473450, Control_c, 0, 11, 67
3, 473474, Control_c, 0, 11, 66
3, 473500, Control_c, 0, 11, 65
3, 473503, Control_c, 0, 11, 66
3, 473506, Control_c, 0, 11, 67
3, 473509, Control_c, 0, 11, 68
3, 473512, Control_c, 0, 11, 69
3, 473515, Control_c, 0, 11, 70
3, 473518, Control_c, 0, 11, 71
3, 473520, Control_c, 0, 11, 72
3, 473523, Control_c, 0, 11, 73
3, 473527, Control_c, 0, 11, 74
3, 473529, Control_c, 0, 11, 75
3, 473532, Control_c, 0, 11, 76
3, 473535, Control_c, 0, 11, 77
3, 473538, Control_c, 0, 11, 78
3, 473541, Control_c, 0, 11, 79
3, 473544, Control_c, 0, 11, 80
3, 473547, Control_c, 0, 11, 81
3, 473550, Control_c, 0, 11, 82
3, 473552, Control_c, 0, 11, 83
3, 473555, Control_c, 0, 11, 84
3, 473558, Control_c, 0, 11, 85
3, 473561, Control_c, 0, 11, 86
3, 473564, Control_c, 0, 11, 87
3, 473567, Control_c, 0, 11, 88
3, 473570, Control_c, 0, 11, 89
3, 473572, Control_c, 0, 11, 90
3, 473575, Control_c, 0, 11, 91
3, 473578, Control_c, 0, 11, 92
3, 473581, Control_c, 0, 11, 93
3, 473584, Control_c, 0, 11, 94
3, 473587, Control_c, 0, 11, 95
3, 473590, Control_c, 0, 11, 96
3, 473593, Control_c, 0, 11, 97
3, 473595, Control_c, 0, 11, 98
3, 473599, Control_c, 0, 11, 99
3, 473602, Control_c, 0, 11, 100
3, 473604, Control_c, 0, 11, 101
3, 473607, Control_c, 0, 11, 102
3, 473610, Control_c, 0, 11, 103
3, 473613, Control_c, 0, 11, 104
3, 473616, Control_c, 0, 11, 105
3, 473619, Control_c, 0, 11, 106
3, 473622, Control_c, 0, 11, 107
3, 473625, Control_c, 0, 11, 108
3, 473627, Control_c, 0, 11, 109
3, 473630, Control_c, 0, 11, 110
3, 473633, Control_c, 0, 11, 111
3, 473636, Control_c, 0, 11, 112
3, 473639, Control_c, 0, 11, 113
3, 473642, Control_c, 0, 11, 114
3, 473645, Control_c, 0, 11, 115
3, 473647, Control_c, 0, 11, 116
3, 473650, Control_c, 0, 11, 117
3, 473654, Control_c, 0, 11, 118
3, 473656, Control_c, 0, 11, 119
3, 473657, Note_on_c, 0, 62, 33
3, 473659, Control_c, 0, 11, 120
3, 473660, Note_on_c, 0, 60, 0
3, 473662, Control_c, 0, 11, 121
3, 473665, Control_c, 0, 11, 122
3, 473668, Control_c, 0, 11, 123
3, 473671, Control_c, 0, 11, 124
3, 473674, Control_c, 0, 11, 125
3, 473777, Note_on_c, 0, 62, 0
3, 473777, Note_on_c, 0, 59, 42
3, 473892, Note_on_c, 0, 56, 40
3, 473897, Note_on_c, 0, 59, 0
3, 474012, Note_on_c, 0, 56, 0
3, 474017, Note_on_c, 0, 59, 39
3, 474128, Note_on_c, 0, 61, 33
3, 474137, Note_on_c, 0, 59, 0
3, 474245, Note_on_c, 0, 58, 46
3, 474248, Note_on_c, 0, 61, 0
3, 474365, Note_on_c, 0, 58, 0
3, 474381, Note_on_c, 0, 56, 40
3, 474501, Note_on_c, 0, 56, 0
3, 474505, Note_on_c, 0, 60, 37
3, 474514, Control_c, 0, 11, 126
3, 474554, Control_c, 0, 11, 125
3, 474593, Control_c, 0, 11, 124
3, 474633, Control_c, 0, 11, 123
3, 474673, Control_c, 0, 11, 122
3, 474712, Control_c, 0, 11, 121
3, 474752, Control_c, 0, 11, 120
3, 474791, Control_c, 0, 11, 119
3, 474831, Control_c, 0, 11, 118
3, 474870, Control_c, 0, 11, 117
3, 474910, Control_c, 0, 11, 116
3, 474950, Control_c, 0, 11, 115
3, 474990, Control_c, 0, 11, 114
3, 475029, Control_c, 0, 11, 113
3, 475068, Control_c, 0, 11, 112
3, 475108, Control_c, 0, 11, 111
3, 475147, Control_c, 0, 11, 110
3, 475187, Control_c, 0, 11, 109
3, 475227, Control_c, 0, 11, 108
3, 475267, Control_c, 0, 11, 107
3, 475306, Control_c, 0, 11, 106
3, 475345, Control_c, 0, 11, 105
3, 475385, Control_c, 0, 11, 104
3, 475425, Control_c, 0, 11, 103
3, 475464, Control_c, 0, 11, 102
3, 475504, Control_c, 0, 11, 101
3, 475544, Control_c, 0, 11, 100
3, 475583, Control_c, 0, 11, 99
3, 475622, Control_c, 0, 11, 98
3, 475662, Control_c, 0, 11, 97
3, 475702, Control_c, 0, 11, 96
3, 475741, Control_c, 0, 11, 95
3, 475781, Control_c, 0, 11, 94
3, 475821, Control_c, 0, 11, 93
3, 475860, Control_c, 0, 11, 92
3, 475899, Control_c, 0, 11, 91
3, 475939, Control_c, 0, 11, 90
3, 475979, Control_c, 0, 11, 89
3, 476018, Control_c, 0, 11, 88
3, 476058, Control_c, 0, 11, 87
3, 476098, Control_c, 0, 11, 86
3, 476137, Control_c, 0, 11, 85
3, 476176, Control_c, 0, 11, 84
3, 476216, Control_c, 0, 11, 83
3, 476256, Control_c, 0, 11, 82
3, 476295, Control_c, 0, 11, 81
3, 476335, Control_c, 0, 11, 80
3, 476375, Control_c, 0, 11, 79
3, 476414, Control_c, 0, 11, 78
3, 476453, Control_c, 0, 11, 77
3, 476493, Control_c, 0, 11, 76
3, 476533, Control_c, 0, 11, 75
3, 476572, Control_c, 0, 11, 74
3, 476612, Control_c, 0, 11, 73
3, 476652, Control_c, 0, 11, 72
3, 476691, Control_c, 0, 11, 71
3, 476730, Control_c, 0, 11, 70
3, 476770, Control_c, 0, 11, 69
3, 476810, Control_c, 0, 11, 68
3, 476850, Control_c, 0, 11, 67
3, 476889, Control_c, 0, 11, 66
3, 476929, Control_c, 0, 11, 65
3, 477025, Note_on_c, 0, 60, 0
3, 477840, Control_c, 0, 11, 127
3, 494525, Note_on_c, 0, 77, 108
3, 494527, Note_on_c, 0, 87, 92
3, 494542, Note_on_c, 0, 82, 107
3, 494668, Note_on_c, 0, 77, 0
3, 494670, Note_on_c, 0, 87, 0
3, 494685, Note_on_c, 0, 82, 0
3, 494768, Note_on_c, 0, 87, 93
3, 494778, Note_on_c, 0, 82, 97
3, 494778, Note_on_c, 0, 77, 99
3, 494911, Note_on_c, 0, 87, 0
3, 494921, Note_on_c, 0, 82, 0
3, 494921, Note_on_c, 0, 77, 0
3, 495010, Note_on_c, 0, 82, 102
3, 495023, Note_on_c, 0, 87, 107
3, 495024, Note_on_c, 0, 77, 93
3, 495070, Note_on_c, 0, 82, 0
3, 495083, Note_on_c, 0, 87, 0
3, 495084, Note_on_c, 0, 77, 0
3, 495123, Note_on_c, 0, 87, 99
3, 495141, Note_on_c, 0, 82, 99
3, 495142, Note_on_c, 0, 81, 98
3, 495195, Note_on_c, 0, 87, 0
3, 495213, Note_on_c, 0, 82, 0
3, 495214, Note_on_c, 0, 81, 0
3, 495244, Note_on_c, 0, 87, 91
3, 495260, Note_on_c, 0, 77, 104
3, 495266, Note_on_c, 0, 82, 97
3, 495304, Note_on_c, 0, 87, 0
3, 495320, Note_on_c, 0, 77, 0
3, 495326, Note_on_c, 0, 82, 0
3, 496688, Note_on_c, 0, 82, 91
3, 496708, Note_on_c, 0, 89, 108
3, 496709, Note_on_c, 0, 87, 107
3, 496760, Note_on_c, 0, 82, 0
3, 496780, Note_on_c, 0, 89, 0
3, 496781, Note_on_c, 0, 87, 0
3, 496808, Note_on_c, 0, 82, 104
3, 496817, Note_on_c, 0, 87, 108
3, 496820, Note_on_c, 0, 89, 97
3, 496880, Note_on_c, 0, 82, 0
3, 496889, Note_on_c, 0, 87, 0
3, 496892, Note_on_c, 0, 89, 0
3, 496925, Note_on_c, 0, 87, 104
3, 496945, Note_on_c, 0, 82, 101
3, 496947, Note_on_c, 0, 89, 100
3, 496997, Note_on_c, 0, 87, 0
3, 497017, Note_on_c, 0, 82, 0
3, 497019, Note_on_c, 0, 89, 0
3, 497050, Note_on_c, 0, 82, 102
3, 497055, Note_on_c, 0, 87, 104
3, 497068, Note_on_c, 0, 93, 108
3, 497122, Note_on_c, 0, 82, 0
3, 497127, Note_on_c, 0, 87, 0
3, 497140, Note_on_c, 0, 93, 0
3, 497161, Note_on_c, 0, 87, 101
3, 497184, Note_on_c, 0, 89, 99
3, 497186, Note_on_c, 0, 82, 97
3, 497208, Note_on_c, 0, 87, 0
3, 497231, Note_on_c, 0, 89, 0
3, 497233, Note_on_c, 0, 82, 0
3, 502923, Note_on_c, 0, 87, 118
3, 502934, Note_on_c, 0, 89, 118
3, 502935, Note_on_c, 0, 82, 103
3, 503003, Note_on_c, 0, 87, 0
3, 503014, Note_on_c, 0, 89, 0
3, 503015, Note_on_c, 0, 82, 0
3, 503063, Note_on_c, 0, 87, 111
3, 503064, Note_on_c, 0, 89, 112
3, 503066, Note_on_c, 0, 82, 105
3, 503143, Note_on_c, 0, 87, 0
3, 503144, Note_on_c, 0, 89, 0
3, 503146, Note_on_c, 0, 82, 0
3, 503522, Note_on_c, 0, 82, 116
3, 503544, Note_on_c, 0, 87, 102
3, 503547, Note_on_c, 0, 89, 117
3, 503602, Note_on_c, 0, 82, 0
3, 503624, Note_on_c, 0, 87, 0
3, 503627, Note_on_c, 0, 89, 0
3, 503644, Note_on_c, 0, 90, 107
3, 503647, Note_on_c, 0, 93, 101
3, 503653, Note_on_c, 0, 82, 111
3, 503724, Note_on_c, 0, 90, 0
3, 503727, Note_on_c, 0, 93, 0
3, 503733, Note_on_c, 0, 82, 0
3, 503899, Note_on_c, 0, 94, 107
3, 503900, Note_on_c, 0, 89, 100
3, 503905, Note_on_c, 0, 82, 110
3, 503979, Note_on_c, 0, 94, 0
3, 503980, Note_on_c, 0, 89, 0
3, 503985, Note_on_c, 0, 82, 0
3, 515293, Note_on_c, 0, 70, 82
3, 515295, Note_on_c, 0, 82, 98
3, 515323, Note_on_c, 0, 84, 87
3, 515332, Note_on_c, 0, 70, 0
3, 515334, Note_on_c, 0, 82, 0
3, 515345, Note_on_c, 0, 72, 78
3, 515363, Note_on_c, 0, 84, 0
3, 515369, Note_on_c, 0, 86, 86
3, 515378, Note_on_c, 0, 74, 78
3, 515385, Note_on_c, 0, 72, 0
3, 515409, Note_on_c, 0, 86, 0
3, 515412, Note_on_c, 0, 76, 85
3, 515418, Note_on_c, 0, 74, 0
3, 515425, Note_on_c, 0, 88, 96
3, 515446, Note_on_c, 0, 89, 84
3, 515451, Note_on_c, 0, 76, 0
3, 515464, Note_on_c, 0, 88, 0
3, 515467, Note_on_c, 0, 77, 82
3, 515486, Note_on_c, 0, 89, 0
3, 515487, Note_on_c, 0, 91, 95
3, 515488, Note_on_c, 0, 79, 96
3, 515507, Note_on_c, 0, 77, 0
3, 515525, Note_on_c, 0, 81, 98
3, 515527, Note_on_c, 0, 91, 0
3, 515528, Note_on_c, 0, 79, 0
3, 515529, Note_on_c, 0, 93, 89
3, 515645, Note_on_c, 0, 81, 0
3, 515649, Note_on_c, 0, 93, 0
3, 531360, Note_on_c, 0, 93, 95
3, 531363, Note_on_c, 0, 87, 94
3, 531370, Note_on_c, 0, 81, 97
3, 531380, Note_on_c, 0, 90, 101
3, 531402, Note_on_c, 0, 81, 0
3, 531403, Note_on_c, 0, 90, 0
3, 531405, Note_on_c, 0, 87, 0
3, 531420, Note_on_c, 0, 93, 0
3, 531421, Note_on_c, 0, 81, 111
3, 531423, Note_on_c, 0, 90, 98
3, 531425, Note_on_c, 0, 87, 91
3, 531481, Note_on_c, 0, 81, 0
3, 531483, Note_on_c, 0, 90, 0
3, 531485, Note_on_c, 0, 87, 0
3, 531611, Note_on_c, 0, 87, 111
3, 531612, Note_on_c, 0, 90, 94
3, 531617, Note_on_c, 0, 81, 107
3, 531629, Note_on_c, 0, 93, 92
3, 531648, Note_on_c, 0, 87, 0
3, 531655, Note_on_c, 0, 90, 0
3, 531656, Note_on_c, 0, 81, 0
3, 531667, Note_on_c, 0, 87, 105
3, 531675, Note_on_c, 0, 90, 91
3, 531675, Note_on_c, 0, 81, 95
3, 531689, Note_on_c, 0, 93, 0
3, 531727, Note_on_c, 0, 87, 0
3, 531735, Note_on_c, 0, 90, 0
3, 531735, Note_on_c, 0, 81, 0
3, 531841, Note_on_c, 0, 81, 100
3, 531851, Note_on_c, 0, 90, 103
3, 531856, Note_on_c, 0, 93, 97
3, 531865, Note_on_c, 0, 87, 99
3, 531888, Note_on_c, 0, 81, 0
3, 531890, Note_on_c, 0, 90, 0
3, 531902, Note_on_c, 0, 87, 0
3, 531907, Note_on_c, 0, 81, 105
3, 531909, Note_on_c, 0, 90, 108
3, 531916, Note_on_c, 0, 93, 0
3, 531921, Note_on_c, 0, 87, 106
3, 531967, Note_on_c, 0, 81, 0
3, 531969, Note_on_c, 0, 90, 0
3, 531981, Note_on_c, 0, 87, 0
3, 532320, Note_on_c, 0, 87, 111
3, 532329, Note_on_c, 0, 93, 102
3, 532344, Note_on_c, 0, 81, 104
3, 532347, Note_on_c, 0, 90, 100
3, 532374, Note_on_c, 0, 87, 0
3, 532374, Note_on_c, 0, 90, 0
3, 532386, Note_on_c, 0, 81, 0
3, 532389, Note_on_c, 0, 93, 0
3, 532393, Note_on_c, 0, 90, 98
3, 532394, Note_on_c, 0, 87, 104
3, 532405, Note_on_c, 0, 81, 94
3, 532453, Note_on_c, 0, 90, 0
3, 532454, Note_on_c, 0, 87, 0
3, 532465, Note_on_c, 0, 81, 0
3, 532566, Note_on_c, 0, 87, 104
3, 532567, Note_on_c, 0, 93, 91
3, 532570, Note_on_c, 0, 90, 111
3, 532579, Note_on_c, 0, 81, 97
3, 532606, Note_on_c, 0, 81, 0
3, 532625, Note_on_c, 0, 81, 100
3, 532626, Note_on_c, 0, 87, 0
3, 532627, Note_on_c, 0, 93, 0
3, 532627, Note_on_c, 0, 90, 0
3, 532646, Note_on_c, 0, 87, 91
3, 532646, Note_on_c, 0, 90, 100
3, 532685, Note_on_c, 0, 81, 0
3, 532706, Note_on_c, 0, 87, 0
3, 532706, Note_on_c, 0, 90, 0
3, 532801, Note_on_c, 0, 93, 96
3, 532816, Note_on_c, 0, 81, 109
3, 532820, Note_on_c, 0, 90, 103
3, 532824, Note_on_c, 0, 87, 110
3, 532844, Note_on_c, 0, 90, 0
3, 532848, Note_on_c, 0, 81, 0
3, 532855, Note_on_c, 0, 87, 0
3, 532861, Note_on_c, 0, 93, 0
3, 532863, Note_on_c, 0, 90, 108
3, 532867, Note_on_c, 0, 81, 110
3, 532874, Note_on_c, 0, 87, 93
3, 532923, Note_on_c, 0, 90, 0
3, 532927, Note_on_c, 0, 81, 0
3, 532934, Note_on_c, 0, 87, 0
3, 533048, Note_on_c, 0, 87, 101
3, 533055, Note_on_c, 0, 81, 105
3, 533064, Note_on_c, 0, 90, 92
3, 533065, Note_on_c, 0, 93, 102
3, 533087, Note_on_c, 0, 90, 0
3, 533094, Note_on_c, 0, 87, 0
3, 533094, Note_on_c, 0, 81, 0
3, 533106, Note_on_c, 0, 90, 91
3, 533113, Note_on_c, 0, 87, 99
3, 533114, Note_on_c, 0, 81, 100
3, 533125, Note_on_c, 0, 93, 0
3, 533166, Note_on_c, 0, 90, 0
3, 533173, Note_on_c, 0, 87, 0
3, 533174, Note_on_c, 0, 81, 0
3, 533284, Note_on_c, 0, 90, 93
3, 533307, Note_on_c, 0, 87, 100
3, 533307, Note_on_c, 0, 81, 96
3, 533307, Note_on_c, 0, 93, 102
3, 533322, Note_on_c, 0, 90, 0
3, 533334, Note_on_c, 0, 81, 0
3, 533337, Note_on_c, 0, 87, 0
3, 533341, Note_on_c, 0, 90, 105
3, 533353, Note_on_c, 0, 81, 107
3, 533356, Note_on_c, 0, 87, 110
3, 533367, Note_on_c, 0, 93, 0
3, 533401, Note_on_c, 0, 90, 0
3, 533413, Note_on_c, 0, 81, 0
3, 533416, Note_on_c, 0, 87, 0
3, 533767, Note_on_c, 0, 90, 109
3, 533770, Note_on_c, 0, 93, 103
3, 533774, Note_on_c, 0, 87, 104
3, 533779, Note_on_c, 0, 81, 109
3, 533805, Note_on_c, 0, 81, 0
3, 533806, Note_on_c, 0, 90, 0
3, 533817, Note_on_c, 0, 87, 0
3, 533824, Note_on_c, 0, 81, 99
3, 533825, Note_on_c, 0, 90, 105
3, 533830, Note_on_c, 0, 93, 0
3, 533836, Note_on_c, 0, 87, 108
3, 533884, Note_on_c, 0, 81, 0
3, 533885, Note_on_c, 0, 90, 0
3, 533896, Note_on_c, 0, 87, 0
3, 534242, Note_on_c, 0, 93, 96
3, 534248, Note_on_c, 0, 87, 111
3, 534250, Note_on_c, 0, 90, 96
3, 534268, Note_on_c, 0, 81, 100
3, 534282, Note_on_c, 0, 81, 0
3, 534301, Note_on_c, 0, 81, 92
3, 534302, Note_on_c, 0, 93, 0
3, 534307, Note_on_c, 0, 93, 99
3, 534308, Note_on_c, 0, 87, 0
3, 534309, Note_on_c, 0, 90, 0
3, 534323, Note_on_c, 0, 87, 103
3, 534328, Note_on_c, 0, 90, 98
3, 534361, Note_on_c, 0, 81, 0
3, 534367, Note_on_c, 0, 93, 0
3, 534383, Note_on_c, 0, 87, 0
3, 534388, Note_on_c, 0, 90, 0
3, 534494, Note_on_c, 0, 79, 93
3, 534502, Note_on_c, 0, 86, 108
3, 534504, Note_on_c, 0, 89, 95
3, 534505, Note_on_c, 0, 91, 103
3, 534525, Note_on_c, 0, 89, 0
3, 534534, Note_on_c, 0, 79, 0
3, 534539, Note_on_c, 0, 91, 0
3, 534545, Note_on_c, 0, 86, 0
3, 534545, Note_on_c, 0, 89, 102
3, 534553, Note_on_c, 0, 79, 97
3, 534559, Note_on_c, 0, 91, 109
3, 534565, Note_on_c, 0, 86, 100
3, 534605, Note_on_c, 0, 89, 0
3, 534613, Note_on_c, 0, 79, 0
3, 534619, Note_on_c, 0, 91, 0
3, 534625, Note_on_c, 0, 86, 0
3, 534720, Note_on_c, 0, 81, 106
3, 534737, Note_on_c, 0, 90, 109
3, 534780, Note_on_c, 0, 81, 0
3, 534785, Note_on_c, 0, 90, 0
3, 534802, Note_on_c, 0, 81, 100
3, 534804, Note_on_c, 0, 90, 91
3, 534862, Note_on_c, 0, 81, 0
3, 534864, Note_on_c, 0, 90, 0
3, 535200, Note_on_c, 0, 90, 111
3, 535205, Note_on_c, 0, 81, 107
3, 535212, Note_on_c, 0, 93, 94
3, 535221, Note_on_c, 0, 87, 100
3, 535244, Note_on_c, 0, 93, 0
3, 535248, Note_on_c, 0, 81, 0
3, 535252, Note_on_c, 0, 90, 0
3, 535259, Note_on_c, 0, 87, 0
3, 535263, Note_on_c, 0, 93, 102
3, 535267, Note_on_c, 0, 81, 111
3, 535272, Note_on_c, 0, 90, 101
3, 535278, Note_on_c, 0, 87, 101
3, 535323, Note_on_c, 0, 93, 0
3, 535327, Note_on_c, 0, 81, 0
3, 535332, Note_on_c, 0, 90, 0
3, 535338, Note_on_c, 0, 87, 0
3, 535696, Note_on_c, 0, 81, 109
3, 535697, Note_on_c, 0, 87, 101
3, 535707, Note_on_c, 0, 90, 109
3, 535708, Note_on_c, 0, 93, 100
3, 535732, Note_on_c, 0, 90, 0
3, 535733, Note_on_c, 0, 87, 0
3, 535743, Note_on_c, 0, 81, 0
3, 535745, Note_on_c, 0, 93, 0
3, 535751, Note_on_c, 0, 90, 101
3, 535752, Note_on_c, 0, 87, 92
3, 535763, Note_on_c, 0, 81, 104
3, 535764, Note_on_c, 0, 93, 98
3, 535811, Note_on_c, 0, 90, 0
3, 535812, Note_on_c, 0, 87, 0
3, 535823, Note_on_c, 0, 81, 0
3, 535824, Note_on_c, 0, 93, 0
3, 535923, Note_on_c, 0, 93, 121
3, 535934, Note_on_c, 0, 90, 113
3, 535953, Note_on_c, 0, 93, 0
3, 535973, Note_on_c, 0, 93, 123
3, 535974, Note_on_c, 0, 93, 0
3, 535981, Note_on_c, 0, 90, 0
3, 535985, Note_on_c, 0, 89, 115
3, 535993, Note_on_c, 0, 93, 106
3, 536007, Note_on_c, 0, 93, 0
3, 536017, Note_on_c, 0, 88, 117
3, 536026, Note_on_c, 0, 93, 122
3, 536033, Note_on_c, 0, 89, 0
3, 536034, Note_on_c, 0, 93, 0
3, 536053, Note_on_c, 0, 93, 110
3, 536054, Note_on_c, 0, 93, 0
3, 536064, Note_on_c, 0, 88, 0
3, 536072, Note_on_c, 0, 93, 115
3, 536073, Note_on_c, 0, 87, 121
3, 536098, Note_on_c, 0, 93, 0
3, 536117, Note_on_c, 0, 93, 119
3, 536121, Note_on_c, 0, 87, 0
3, 536125, Note_on_c, 0, 86, 119
3, 536147, Note_on_c, 0, 93, 0
3, 536149, Note_on_c, 0, 91, 117
3, 536160, Note_on_c, 0, 91, 0
3, 536162, Note_on_c, 0, 77, 110
3, 536173, Note_on_c, 0, 86, 0
3, 536179, Note_on_c, 0, 91, 114
3, 536180, Note_on_c, 0, 91, 0
3, 536187, Note_on_c, 0, 85, 119
3, 536190, Note_on_c, 0, 91, 113
3, 536209, Note_on_c, 0, 77, 0
3, 536215, Note_on_c, 0, 78, 124
3, 536220, Note_on_c, 0, 91, 0
3, 536243, Note_on_c, 0, 91, 111
3, 536247, Note_on_c, 0, 85, 0
3, 536248, Note_on_c, 0, 91, 0
3, 536263, Note_on_c, 0, 78, 0
3, 536267, Note_on_c, 0, 91, 120
3, 536275, Note_on_c, 0, 79, 104
3, 536282, Note_on_c, 0, 91, 0
3, 536302, Note_on_c, 0, 91, 108
3, 536307, Note_on_c, 0, 91, 0
3, 536322, Note_on_c, 0, 79, 0
3, 536323, Note_on_c, 0, 80, 121
3, 536326, Note_on_c, 0, 91, 112
3, 536337, Note_on_c, 0, 91, 0
3, 536357, Note_on_c, 0, 91, 116
3, 536362, Note_on_c, 0, 81, 124
3, 536370, Note_on_c, 0, 91, 0
3, 536371, Note_on_c, 0, 80, 0
3, 536389, Note_on_c, 0, 91, 110
3, 536406, Note_on_c, 0, 82, 109
3, 536410, Note_on_c, 0, 81, 0
3, 536419, Note_on_c, 0, 91, 0
3, 536421, Note_on_c, 0, 90, 111
3, 536422, Note_on_c, 0, 90, 0
3, 536426, Note_on_c, 0, 87, 107
3, 536433, Note_on_c, 0, 90, 115
3, 536450, Note_on_c, 0, 86, 116
3, 536456, Note_on_c, 0, 90, 0
3, 536466, Note_on_c, 0, 82, 0
3, 536473, Note_on_c, 0, 87, 0
3, 536476, Note_on_c, 0, 90, 123
3, 536477, Note_on_c, 0, 90, 0
3, 536494, Note_on_c, 0, 90, 117
3, 536498, Note_on_c, 0, 86, 0
3, 536514, Note_on_c, 0, 90, 0
3, 536524, Note_on_c, 0, 85, 108
3, 536534, Note_on_c, 0, 90, 120
3, 536556, Note_on_c, 0, 90, 0
3, 536559, Note_on_c, 0, 84, 122
3, 536571, Note_on_c, 0, 85, 0
3, 536575, Note_on_c, 0, 90, 115
3, 536586, Note_on_c, 0, 90, 0
3, 536605, Note_on_c, 0, 90, 120
3, 536606, Note_on_c, 0, 90, 0
3, 536607, Note_on_c, 0, 84, 0
3, 536620, Note_on_c, 0, 83, 110
3, 536623, Note_on_c, 0, 90, 105
3, 536643, Note_on_c, 0, 74, 115
3, 536653, Note_on_c, 0, 90, 0
3, 536656, Note_on_c, 0, 82, 106
3, 536665, Note_on_c, 0, 88, 122
3, 536668, Note_on_c, 0, 83, 0
3, 536679, Note_on_c, 0, 88, 0
3, 536698, Note_on_c, 0, 88, 108
3, 536699, Note_on_c, 0, 88, 0
3, 536700, Note_on_c, 0, 75, 114
3, 536703, Note_on_c, 0, 74, 0
3, 536704, Note_on_c, 0, 88, 119
3, 536716, Note_on_c, 0, 82, 0
3, 536726, Note_on_c, 0, 88, 0
3, 536745, Note_on_c, 0, 88, 110
3, 536760, Note_on_c, 0, 75, 0
3, 536767, Note_on_c, 0, 88, 0
3, 536784, Note_on_c, 0, 76, 107
3, 536787, Note_on_c, 0, 88, 119
3, 536796, Note_on_c, 0, 88, 0
3, 536815, Note_on_c, 0, 88, 115
3, 536816, Note_on_c, 0, 88, 0
3, 536824, Note_on_c, 0, 77, 106
3, 536836, Note_on_c, 0, 88, 110
3, 536842, Note_on_c, 0, 88, 0
3, 536844, Note_on_c, 0, 76, 0
3, 536861, Note_on_c, 0, 88, 111
3, 536880, Note_on_c, 0, 78, 116
3, 536884, Note_on_c, 0, 77, 0
3, 536891, Note_on_c, 0, 88, 0
3, 536892, Note_on_c, 0, 86, 110
3, 536909, Note_on_c, 0, 86, 0
3, 536928, Note_on_c, 0, 86, 117
3, 536934, Note_on_c, 0, 85, 108
3, 536940, Note_on_c, 0, 78, 0
3, 536946, Note_on_c, 0, 86, 0
3, 536965, Note_on_c, 0, 86, 121
3, 536966, Note_on_c, 0, 86, 0
3, 536982, Note_on_c, 0, 85, 0
3, 536986, Note_on_c, 0, 86, 124
3, 536989, Note_on_c, 0, 86, 0
3, 536994, Note_on_c, 0, 84, 105
3, 537008, Note_on_c, 0, 86, 107
3, 537032, Note_on_c, 0, 86, 0
3, 537041, Note_on_c, 0, 84, 0
3, 537042, Note_on_c, 0, 83, 107
3, 537051, Note_on_c, 0, 86, 108
3, 537052, Note_on_c, 0, 86, 0
3, 537071, Note_on_c, 0, 86, 123
3, 537090, Note_on_c, 0, 83, 0
3, 537092, Note_on_c, 0, 86, 0
3, 537092, Note_on_c, 0, 82, 114
3, 537111, Note_on_c, 0, 86, 118
3, 537138, Note_on_c, 0, 81, 110
3, 537140, Note_on_c, 0, 82, 0
3, 537141, Note_on_c, 0, 86, 0
3, 537142, Note_on_c, 0, 84, 118
3, 537146, Note_on_c, 0, 84, 0
3, 537165, Note_on_c, 0, 84, 121
3, 537167, Note_on_c, 0, 84, 0
3, 537174, Note_on_c, 0, 80, 113
3, 537185, Note_on_c, 0, 81, 0
3, 537186, Note_on_c, 0, 84, 107
3, 537210, Note_on_c, 0, 84, 0
3, 537222, Note_on_c, 0, 80, 0
3, 537223, Note_on_c, 0, 79, 109
3, 537230, Note_on_c, 0, 84, 122
3, 537231, Note_on_c, 0, 84, 0
3, 537244, Note_on_c, 0, 84, 114
3, 537268, Note_on_c, 0, 84, 0
3, 537270, Note_on_c, 0, 79, 0
3, 537282, Note_on_c, 0, 78, 105
3, 537287, Note_on_c, 0, 84, 122
3, 537292, Note_on_c, 0, 84, 0
3, 537312, Note_on_c, 0, 84, 110
3, 537312, Note_on_c, 0, 77, 105
3, 537321, Note_on_c, 0, 84, 0
3, 537330, Note_on_c, 0, 78, 0
3, 537340, Note_on_c, 0, 84, 104
3, 537360, Note_on_c, 0, 77, 0
3, 537367, Note_on_c, 0, 76, 124
3, 537370, Note_on_c, 0, 84, 0
3, 537381, Note_on_c, 0, 83, 106
3, 537382, Note_on_c, 0, 83, 0
3, 537395, Note_on_c, 0, 83, 120
3, 537414, Note_on_c, 0, 76, 0
3, 537416, Note_on_c, 0, 83, 0
3, 537435, Note_on_c, 0, 83, 113
3, 537446, Note_on_c, 0, 83, 0
3, 537466, Note_on_c, 0, 83, 108
3, 537486, Note_on_c, 0, 83, 0
3, 537505, Note_on_c, 0, 83, 108
3, 537507, Note_on_c, 0, 83, 0
3, 537526, Note_on_c, 0, 83, 122
3, 537540, Note_on_c, 0, 83, 0
3, 537559, Note_on_c, 0, 83, 108
3, 537575, Note_on_c, 0, 83, 0
3, 537594, Note_on_c, 0, 83, 123
3, 537624, Note_on_c, 0, 83, 0
3, 544583, Note_on_c, 0, 80, 39
3, 544620, Note_on_c, 0, 79, 43
3, 544643, Note_on_c, 0, 80, 0
3, 544680, Note_on_c, 0, 79, 0
3, 544696, Note_on_c, 0, 80, 55
3, 544749, Note_on_c, 0, 79, 58
3, 544756, Note_on_c, 0, 80, 0
3, 544809, Note_on_c, 0, 79, 0
3, 544809, Note_on_c, 0, 80, 47
3, 544869, Note_on_c, 0, 80, 0
3, 544886, Note_on_c, 0, 79, 56
3, 544946, Note_on_c, 0, 79, 0
3, 544946, Note_on_c, 0, 80, 40
3, 544981, Note_on_c, 0, 79, 39
3, 545006, Note_on_c, 0, 80, 0
3, 545041, Note_on_c, 0, 79, 0
3, 545043, Note_on_c, 0, 80, 46
3, 545103, Note_on_c, 0, 80, 0
3, 545125, Note_on_c, 0, 79, 46
3, 545174, Note_on_c, 0, 80, 59
3, 545185, Note_on_c, 0, 79, 0
3, 545229, Note_on_c, 0, 79, 55
3, 545234, Note_on_c, 0, 80, 0
3, 545289, Note_on_c, 0, 79, 0
3, 545289, Note_on_c, 0, 81, 40
3, 545349, Note_on_c, 0, 81, 0
3, 545354, Note_on_c, 0, 79, 50
3, 545414, Note_on_c, 0, 79, 0
3, 545415, Note_on_c, 0, 81, 55
3, 545464, Note_on_c, 0, 79, 43
3, 545475, Note_on_c, 0, 81, 0
3, 545524, Note_on_c, 0, 79, 0
3, 545524, Note_on_c, 0, 81, 58
3, 545581, Note_on_c, 0, 79, 51
3, 545584, Note_on_c, 0, 81, 0
3, 545641, Note_on_c, 0, 79, 0
3, 545645, Note_on_c, 0, 81, 41
3, 545705, Note_on_c, 0, 81, 0
3, 545705, Note_on_c, 0, 79, 58
3, 545765, Note_on_c, 0, 79, 0
3, 545784, Note_on_c, 0, 80, 45
3, 545818, Note_on_c, 0, 80, 0
3, 545821, Note_on_c, 0, 82, 55
3, 545844, Note_on_c, 0, 84, 48
3, 545855, Note_on_c, 0, 82, 0
3, 545863, Note_on_c, 0, 86, 51
3, 545878, Note_on_c, 0, 84, 0
3, 545897, Note_on_c, 0, 86, 0
3, 545908, Note_on_c, 0, 87, 51
3, 545942, Note_on_c, 0, 87, 0
3, 545952, Note_on_c, 0, 89, 56
3, 545977, Note_on_c, 0, 91, 42
3, 545986, Note_on_c, 0, 89, 0
3, 546011, Note_on_c, 0, 91, 0
3, 546025, Note_on_c, 0, 92, 40
3, 546085, Note_on_c, 0, 92, 0
3, 546241, Note_on_c, 0, 92, 77
3, 546288, Note_on_c, 0, 92, 0
3, 546314, Note_on_c, 0, 93, 84
3, 546341, Note_on_c, 0, 92, 66
3, 546362, Note_on_c, 0, 93, 0
3, 546387, Note_on_c, 0, 91, 65
3, 546388, Note_on_c, 0, 92, 0
3, 546435, Note_on_c, 0, 91, 0
3, 546437, Note_on_c, 0, 92, 72
3, 546485, Note_on_c, 0, 92, 0
3, 546499, Note_on_c, 0, 80, 70
3, 546546, Note_on_c, 0, 80, 0
3, 546729, Note_on_c, 0, 92, 79
3, 546776, Note_on_c, 0, 92, 0
3, 546776, Note_on_c, 0, 93, 72
3, 546822, Note_on_c, 0, 92, 75
3, 546824, Note_on_c, 0, 93, 0
3, 546866, Note_on_c, 0, 91, 67
3, 546869, Note_on_c, 0, 92, 0
3, 546914, Note_on_c, 0, 91, 0
3, 546932, Note_on_c, 0, 92, 68
3, 546964, Note_on_c, 0, 80, 67
3, 546980, Note_on_c, 0, 92, 0
3, 547011, Note_on_c, 0, 80, 0
3, 547220, Note_on_c, 0, 92, 74
3, 547248, Note_on_c, 0, 93, 77
3, 547267, Note_on_c, 0, 92, 0
3, 547296, Note_on_c, 0, 93, 0
3, 547319, Note_on_c, 0, 92, 72
3, 547366, Note_on_c, 0, 92, 0
3, 547367, Note_on_c, 0, 91, 68
3, 547410, Note_on_c, 0, 92, 77
3, 547415, Note_on_c, 0, 91, 0
3, 547454, Note_on_c, 0, 80, 76
3, 547458, Note_on_c, 0, 92, 0
3, 547501, Note_on_c, 0, 80, 0
3, 547686, Note_on_c, 0, 92, 82
3, 547730, Note_on_c, 0, 93, 75
3, 547733, Note_on_c, 0, 92, 0
3, 547778, Note_on_c, 0, 93, 0
3, 547783, Note_on_c, 0, 92, 71
3, 547830, Note_on_c, 0, 92, 0
3, 547847, Note_on_c, 0, 91, 83
3, 547893, Note_on_c, 0, 92, 68
3, 547895, Note_on_c, 0, 91, 0
3, 547941, Note_on_c, 0, 92, 0
3, 547945, Note_on_c, 0, 80, 77
3, 547992, Note_on_c, 0, 80, 0
3, 548165, Note_on_c, 0, 92, 82
3, 548212, Note_on_c, 0, 92, 0
3, 548215, Note_on_c, 0, 93, 78
3, 548263, Note_on_c, 0, 93, 0
3, 548266, Note_on_c, 0, 92, 70
3, 548313, Note_on_c, 0, 92, 0
3, 548322, Note_on_c, 0, 91, 72
3, 548361, Note_on_c, 0, 92, 66
3, 548370, Note_on_c, 0, 91, 0
3, 548409, Note_on_c, 0, 92, 0
3, 548412, Note_on_c, 0, 80, 76
3, 548459, Note_on_c, 0, 80, 0
3, 548656, Note_on_c, 0, 92, 69
3, 548703, Note_on_c, 0, 92, 0
3, 548712, Note_on_c, 0, 93, 69
3, 548748, Note_on_c, 0, 92, 78
3, 548760, Note_on_c, 0, 93, 0
3, 548795, Note_on_c, 0, 92, 0
3, 548796, Note_on_c, 0, 91, 76
3, 548836, Note_on_c, 0, 92, 74
3, 548844, Note_on_c, 0, 91, 0
3, 548884, Note_on_c, 0, 92, 0
3, 548895, Note_on_c, 0, 80, 78
3, 548942, Note_on_c, 0, 80, 0
3, 549133, Note_on_c, 0, 92, 81
3, 549180, Note_on_c, 0, 92, 0
3, 549181, Note_on_c, 0, 93, 76
3, 549225, Note_on_c, 0, 92, 75
3, 549229, Note_on_c, 0, 93, 0
3, 549272, Note_on_c, 0, 92, 0
3, 549285, Note_on_c, 0, 91, 83
3, 549332, Note_on_c, 0, 92, 84
3, 549333, Note_on_c, 0, 91, 0
3, 549380, Note_on_c, 0, 92, 0
3, 549388, Note_on_c, 0, 80, 78
3, 549435, Note_on_c, 0, 80, 0
3, 549620, Note_on_c, 0, 93, 86
3, 549654, Note_on_c, 0, 95, 89
3, 549667, Note_on_c, 0, 93, 0
3, 549702, Note_on_c, 0, 95, 0
3, 549721, Note_on_c, 0, 93, 91
3, 549764, Note_on_c, 0, 92, 91
3, 549768, Note_on_c, 0, 93, 0
3, 549812, Note_on_c, 0, 92, 0
3, 549813, Note_on_c, 0, 93, 96
3, 549841, Note_on_c, 0, 81, 95
3, 549861, Note_on_c, 0, 93, 0
3, 549888, Note_on_c, 0, 81, 0
3, 550105, Note_on_c, 0, 93, 90
3, 550130, Note_on_c, 0, 95, 101
3, 550152, Note_on_c, 0, 93, 0
3, 550178, Note_on_c, 0, 95, 0
3, 550199, Note_on_c, 0, 93, 82
3, 550246, Note_on_c, 0, 93, 0
3, 550246, Note_on_c, 0, 92, 87
3, 550282, Note_on_c, 0, 93, 95
3, 550294, Note_on_c, 0, 92, 0
3, 550330, Note_on_c, 0, 93, 0
3, 550332, Note_on_c, 0, 81, 103
3, 550379, Note_on_c, 0, 81, 0
3, 550561, Note_on_c, 0, 81, 97
3, 550600, Note_on_c, 0, 81, 0
3, 550609, Note_on_c, 0, 82, 79
3, 550641, Note_on_c, 0, 83, 96
3, 550649, Note_on_c, 0, 82, 0
3, 550681, Note_on_c, 0, 83, 0
3, 550701, Note_on_c, 0, 85, 95
3, 550740, Note_on_c, 0, 85, 0
3, 550743, Note_on_c, 0, 87, 98
3, 550768, Note_on_c, 0, 89, 100
3, 550783, Note_on_c, 0, 87, 0
3, 550808, Note_on_c, 0, 89, 0
3, 550823, Note_on_c, 0, 90, 93
3, 550943, Note_on_c, 0, 90, 0
3, 554762, Note_on_c, 0, 86, 104
3, 554783, Note_on_c, 0, 81, 108
3, 554787, Note_on_c, 0, 76, 100
3, 554905, Note_on_c, 0, 86, 0
3, 554926, Note_on_c, 0, 81, 0
3, 554930, Note_on_c, 0, 76, 0
3, 555002, Note_on_c, 0, 76, 109
3, 555006, Note_on_c, 0, 86, 94
3, 555012, Note_on_c, 0, 81, 99
3, 555145, Note_on_c, 0, 76, 0
3, 555149, Note_on_c, 0, 86, 0
3, 555155, Note_on_c, 0, 81, 0
3, 555246, Note_on_c, 0, 81, 103
3, 555252, Note_on_c, 0, 76, 107
3, 555264, Note_on_c, 0, 86, 99
3, 555306, Note_on_c, 0, 81, 0
3, 555312, Note_on_c, 0, 76, 0
3, 555324, Note_on_c, 0, 86, 0
3, 555368, Note_on_c, 0, 81, 106
3, 555375, Note_on_c, 0, 86, 101
3, 555381, Note_on_c, 0, 80, 100
3, 555440, Note_on_c, 0, 81, 0
3, 555447, Note_on_c, 0, 86, 0
3, 555453, Note_on_c, 0, 80, 0
3, 555488, Note_on_c, 0, 76, 101
3, 555494, Note_on_c, 0, 86, 106
3, 555496, Note_on_c, 0, 81, 92
3, 555548, Note_on_c, 0, 76, 0
3, 555554, Note_on_c, 0, 86, 0
3, 555556, Note_on_c, 0, 81, 0
3, 556938, Note_on_c, 0, 88, 105
3, 556942, Note_on_c, 0, 81, 95
3, 556945, Note_on_c, 0, 86, 107
3, 557010, Note_on_c, 0, 88, 0
3, 557014, Note_on_c, 0, 81, 0
3, 557017, Note_on_c, 0, 86, 0
3, 557046, Note_on_c, 0, 81, 103
3, 557047, Note_on_c, 0, 88, 104
3, 557054, Note_on_c, 0, 86, 97
3, 557118, Note_on_c, 0, 81, 0
3, 557119, Note_on_c, 0, 88, 0
3, 557126, Note_on_c, 0, 86, 0
3, 557168, Note_on_c, 0, 81, 110
3, 557174, Note_on_c, 0, 86, 100
3, 557186, Note_on_c, 0, 88, 109
3, 557240, Note_on_c, 0, 81, 0
3, 557246, Note_on_c, 0, 86, 0
3, 557258, Note_on_c, 0, 88, 0
3, 557280, Note_on_c, 0, 92, 99
3, 557304, Note_on_c, 0, 81, 93
3, 557307, Note_on_c, 0, 86, 92
3, 557352, Note_on_c, 0, 92, 0
3, 557376, Note_on_c, 0, 81, 0
3, 557379, Note_on_c, 0, 86, 0
3, 557405, Note_on_c, 0, 88, 105
3, 557412, Note_on_c, 0, 81, 94
3, 557426, Note_on_c, 0, 86, 108
3, 557452, Note_on_c, 0, 88, 0
3, 557459, Note_on_c, 0, 81, 0
3, 557473, Note_on_c, 0, 86, 0
3, 563162, Note_on_c, 0, 86, 109
3, 563168, Note_on_c, 0, 81, 111
3, 563171, Note_on_c, 0, 88, 91
3, 563222, Note_on_c, 0, 86, 0
3, 563228, Note_on_c, 0, 81, 0
3, 563231, Note_on_c, 0, 88, 0
3, 563295, Note_on_c, 0, 89, 107
3, 563301, Note_on_c, 0, 92, 108
3, 563302, Note_on_c, 0, 81, 100
3, 563355, Note_on_c, 0, 89, 0
3, 563361, Note_on_c, 0, 92, 0
3, 563362, Note_on_c, 0, 81, 0
3, 563760, Note_on_c, 0, 88, 99
3, 563777, Note_on_c, 0, 86, 111
3, 563780, Note_on_c, 0, 81, 98
3, 563820, Note_on_c, 0, 88, 0
3, 563837, Note_on_c, 0, 86, 0
3, 563840, Note_on_c, 0, 81, 0
3, 563890, Note_on_c, 0, 81, 102
3, 563896, Note_on_c, 0, 89, 97
3, 563900, Note_on_c, 0, 92, 92
3, 563950, Note_on_c, 0, 81, 0
3, 563956, Note_on_c, 0, 89, 0
3, 563960, Note_on_c, 0, 92, 0
3, 564138, Note_on_c, 0, 88, 95
3, 564144, Note_on_c, 0, 93, 94
3, 564148, Note_on_c, 0, 81, 95
3, 564198, Note_on_c, 0, 88, 0
3, 564204, Note_on_c, 0, 93, 0
3, 564208, Note_on_c, 0, 81, 0
3, 580101, Note_on_c, 0, 84, 103
3, 580341, Note_on_c, 0, 84, 0
3, 584907, Note_on_c, 0, 84, 106
3, 585147, Note_on_c, 0, 84, 0
3, 600017, Note_on_c, 0, 86, 111
3, 600304, Note_on_c, 0, 86, 0
3, 600502, Note_on_c, 0, 84, 110
3, 600645, Note_on_c, 0, 84, 0
3, 600726, Note_on_c, 0, 82, 98
3, 600869, Note_on_c, 0, 82, 0
3, 600965, Note_on_c, 0, 80, 93
3, 601108, Note_on_c, 0, 80, 0
3, 601227, Note_on_c, 0, 84, 100
3, 601370, Note_on_c, 0, 84, 0
3, 601459, Note_on_c, 0, 86, 118
3, 601531, Note_on_c, 0, 86, 0
3, 604862, Note_on_c, 0, 79, 106
3, 604922, Note_on_c, 0, 79, 0
3, 604948, Note_on_c, 0, 81, 104
3, 604992, Note_on_c, 0, 82, 100
3, 605008, Note_on_c, 0, 81, 0
3, 605042, Note_on_c, 0, 84, 95
3, 605052, Note_on_c, 0, 82, 0
3, 605102, Note_on_c, 0, 84, 0
3, 605102, Note_on_c, 0, 85, 108
3, 605162, Note_on_c, 0, 85, 0
3, 605164, Note_on_c, 0, 86, 92
3, 605180, Note_on_c, 0, 74, 100
3, 605404, Note_on_c, 0, 86, 0
3, 605420, Note_on_c, 0, 74, 0
3, 605828, Note_on_c, 0, 79, 101
3, 605881, Note_on_c, 0, 81, 91
3, 605888, Note_on_c, 0, 79, 0
3, 605941, Note_on_c, 0, 81, 0
3, 605958, Note_on_c, 0, 82, 107
3, 606018, Note_on_c, 0, 82, 0
3, 606025, Note_on_c, 0, 84, 102
3, 606082, Note_on_c, 0, 85, 95
3, 606085, Note_on_c, 0, 84, 0
3, 606130, Note_on_c, 0, 74, 110
3, 606142, Note_on_c, 0, 85, 0
3, 606143, Note_on_c, 0, 86, 104
3, 606370, Note_on_c, 0, 74, 0
3, 606383, Note_on_c, 0, 86, 0
3, 606786, Note_on_c, 0, 79, 94
3, 606842, Note_on_c, 0, 81, 111
3, 606846, Note_on_c, 0, 79, 0
3, 606902, Note_on_c, 0, 81, 0
3, 606926, Note_on_c, 0, 82, 93
3, 606971, Note_on_c, 0, 84, 103
3, 606986, Note_on_c, 0, 82, 0
3, 607031, Note_on_c, 0, 84, 0
3, 607048, Note_on_c, 0, 85, 110
3, 607103, Note_on_c, 0, 86, 107
3, 607105, Note_on_c, 0, 74, 108
3, 607108, Note_on_c, 0, 85, 0
3, 607343, Note_on_c, 0, 86, 0
3, 607345, Note_on_c, 0, 74, 0
3, 607767, Note_on_c, 0, 79, 100
3, 607804, Note_on_c, 0, 81, 100
3, 607827, Note_on_c, 0, 79, 0
3, 607864, Note_on_c, 0, 81, 0
3, 607869, Note_on_c, 0, 82, 93
3, 607924, Note_on_c, 0, 84, 102
3, 607929, Note_on_c, 0, 82, 0
3, 607984, Note_on_c, 0, 84, 0
3, 608008, Note_on_c, 0, 85, 92
3, 608054, Note_on_c, 0, 74, 101
3, 608062, Note_on_c, 0, 86, 104
3, 608068, Note_on_c, 0, 85, 0
3, 608294, Note_on_c, 0, 74, 0
3, 608302, Note_on_c, 0, 86, 0
3, 610644, Note_on_c, 0, 79, 110
3, 610699, Note_on_c, 0, 81, 92
3, 610704, Note_on_c, 0, 79, 0
3, 610752, Note_on_c, 0, 82, 101
3, 610759, Note_on_c, 0, 81, 0
3, 610804, Note_on_c, 0, 84, 109
3, 610812, Note_on_c, 0, 82, 0
3, 610864, Note_on_c, 0, 84, 0
3, 610870, Note_on_c, 0, 85, 101
3, 610924, Note_on_c, 0, 86, 94
3, 610930, Note_on_c, 0, 85, 0
3, 610939, Note_on_c, 0, 74, 99
3, 611164, Note_on_c, 0, 86, 0
3, 611179, Note_on_c, 0, 74, 0
3, 611906, Note_on_c, 0, 84, 96
3, 611906, Note_on_c, 0, 72, 106
3, 612026, Note_on_c, 0, 84, 0
3, 612026, Note_on_c, 0, 72, 0
3, 612137, Note_on_c, 0, 82, 107
3, 612146, Note_on_c, 0, 70, 99
3, 612257, Note_on_c, 0, 82, 0
3, 612266, Note_on_c, 0, 70, 0
3, 612366, Note_on_c, 0, 80, 91
3, 612366, Note_on_c, 0, 68, 101
3, 612486, Note_on_c, 0, 80, 0
3, 612486, Note_on_c, 0, 68, 0
3, 612619, Note_on_c, 0, 84, 110
3, 612627, Note_on_c, 0, 72, 104
3, 612739, Note_on_c, 0, 84, 0
3, 612747, Note_on_c, 0, 72, 0
3, 612852, Note_on_c, 0, 74, 97
3, 612853, Note_on_c, 0, 86, 94
3, 612972, Note_on_c, 0, 74, 0
3, 612973, Note_on_c, 0, 86, 0
3, 613508, Note_on_c, 0, 79, 101
3, 613568, Note_on_c, 0, 79, 0
3, 613580, Note_on_c, 0, 81, 103
3, 613638, Note_on_c, 0, 82, 91
3, 613640, Note_on_c, 0, 81, 0
3, 613683, Note_on_c, 0, 84, 95
3, 613698, Note_on_c, 0, 82, 0
3, 613743, Note_on_c, 0, 84, 0
3, 613754, Note_on_c, 0, 85, 109
3, 613805, Note_on_c, 0, 86, 97
3, 613807, Note_on_c, 0, 74, 105
3, 613814, Note_on_c, 0, 85, 0
3, 614045, Note_on_c, 0, 86, 0
3, 614047, Note_on_c, 0, 74, 0
3, 614280, Note_on_c, 0, 72, 92
3, 614282, Note_on_c, 0, 84, 109
3, 614400, Note_on_c, 0, 72, 0
3, 614402, Note_on_c, 0, 84, 0
3, 614535, Note_on_c, 0, 82, 92
3, 614544, Note_on_c, 0, 70, 103
3, 614655, Note_on_c, 0, 82, 0
3, 614664, Note_on_c, 0, 70, 0
3, 614761, Note_on_c, 0, 80, 103
3, 614777, Note_on_c, 0, 68, 109
3, 614881, Note_on_c, 0, 80, 0
3, 614897, Note_on_c, 0, 68, 0
3, 615006, Note_on_c, 0, 72, 111
3, 615011, Note_on_c, 0, 84, 110
3, 615126, Note_on_c, 0, 72, 0
3, 615131, Note_on_c, 0, 84, 0
3, 615241, Note_on_c, 0, 86, 109
3, 615254, Note_on_c, 0, 74, 106
3, 615361, Note_on_c, 0, 86, 0
3, 615374, Note_on_c, 0, 74, 0
3, 615444, Note_on_c, 0, 79, 102
3, 615504, Note_on_c, 0, 79, 0
3, 615507, Note_on_c, 0, 81, 107
3, 615565, Note_on_c, 0, 82, 109
3, 615567, Note_on_c, 0, 81, 0
3, 615620, Note_on_c, 0, 84, 100
3, 615625, Note_on_c, 0, 82, 0
3, 615665, Note_on_c, 0, 85, 96
3, 615680, Note_on_c, 0, 84, 0
3, 615725, Note_on_c, 0, 85, 0
3, 615727, Note_on_c, 0, 74, 109
3, 615729, Note_on_c, 0, 86, 105
3, 615847, Note_on_c, 0, 74, 0
3, 615969, Note_on_c, 0, 86, 0
3, 616706, Note_on_c, 0, 76, 96
3, 616708, Note_on_c, 0, 88, 105
3, 616826, Note_on_c, 0, 76, 0
3, 616828, Note_on_c, 0, 88, 0
3, 616922, Note_on_c, 0, 74, 101
3, 616935, Note_on_c, 0, 86, 105
3, 617042, Note_on_c, 0, 74, 0
3, 617055, Note_on_c, 0, 86, 0
3, 617164, Note_on_c, 0, 76, 92
3, 617186, Note_on_c, 0, 88, 103
3, 617404, Note_on_c, 0, 76, 0
3, 617426, Note_on_c, 0, 88, 0
3, 617648, Note_on_c, 0, 78, 105
3, 617668, Note_on_c, 0, 90, 109
3, 617888, Note_on_c, 0, 78, 0
3, 617908, Note_on_c, 0, 90, 0
3, 618129, Note_on_c, 0, 91, 104
3, 618142, Note_on_c, 0, 79, 111
3, 618369, Note_on_c, 0, 91, 0
3, 618382, Note_on_c, 0, 79, 0
3, 618601, Note_on_c, 0, 79, 106
3, 618615, Note_on_c, 0, 91, 113
3, 618841, Note_on_c, 0, 79, 0
3, 618855, Note_on_c, 0, 91, 0
3, 619101, Note_on_c, 0, 91, 117
3, 619106, Note_on_c, 0, 79, 111
3, 619341, Note_on_c, 0, 91, 0
3, 619346, Note_on_c, 0, 79, 0
3, 619569, Note_on_c, 0, 89, 123
3, 619570, Note_on_c, 0, 77, 117
3, 619689, Note_on_c, 0, 89, 0
3, 619690, Note_on_c, 0, 77, 0
3, 619803, Note_on_c, 0, 87, 114
3, 619824, Note_on_c, 0, 75, 115
3, 619923, Note_on_c, 0, 87, 0
3, 619944, Note_on_c, 0, 75, 0
3, 620047, Note_on_c, 0, 85, 116
3, 620066, Note_on_c, 0, 73, 113
3, 620167, Note_on_c, 0, 85, 0
3, 620186, Note_on_c, 0, 73, 0
3, 620292, Note_on_c, 0, 77, 116
3, 620300, Note_on_c, 0, 89, 124
3, 620412, Note_on_c, 0, 77, 0
3, 620420, Note_on_c, 0, 89, 0
3, 620538, Note_on_c, 0, 79, 110
3, 620547, Note_on_c, 0, 91, 117
3, 620778, Note_on_c, 0, 79, 0
3, 620787, Note_on_c, 0, 91, 0
3, 621011, Note_on_c, 0, 79, 114
3, 621013, Note_on_c, 0, 91, 108
3, 621251, Note_on_c, 0, 79, 0
3, 621253, Note_on_c, 0, 91, 0
3, 621491, Note_on_c, 0, 79, 117
3, 621508, Note_on_c, 0, 91, 113
3, 621731, Note_on_c, 0, 79, 0
3, 621748, Note_on_c, 0, 91, 0
3, 621961, Note_on_c, 0, 91, 114
3, 621978, Note_on_c, 0, 79, 116
3, 622201, Note_on_c, 0, 91, 0
3, 622218, Note_on_c, 0, 79, 0
3, 622454, Note_on_c, 0, 77, 118
3, 622461, Note_on_c, 0, 89, 119
3, 622574, Note_on_c, 0, 77, 0
3, 622581, Note_on_c, 0, 89, 0
3, 622683, Note_on_c, 0, 75, 120
3, 622706, Note_on_c, 0, 87, 107
3, 622803, Note_on_c, 0, 75, 0
3, 622826, Note_on_c, 0, 87, 0
3, 622937, Note_on_c, 0, 73, 106
3, 622946, Note_on_c, 0, 85, 120
3, 623057, Note_on_c, 0, 73, 0
3, 623066, Note_on_c, 0, 85, 0
3, 623175, Note_on_c, 0, 77, 113
3, 623189, Note_on_c, 0, 89, 123
3, 623295, Note_on_c, 0, 77, 0
3, 623309, Note_on_c, 0, 89, 0
3, 623415, Note_on_c, 0, 79, 120
3, 623424, Note_on_c, 0, 91, 123
3, 623655, Note_on_c, 0, 79, 0
3, 623664, Note_on_c, 0, 91, 0
3, 623887, Note_on_c, 0, 79, 106
3, 623891, Note_on_c, 0, 91, 109
3, 624127, Note_on_c, 0, 79, 0
3, 624131, Note_on_c, 0, 91, 0
3, 624365, Note_on_c, 0, 77, 117
3, 624386, Note_on_c, 0, 89, 108
3, 624485, Note_on_c, 0, 77, 0
3, 624506, Note_on_c, 0, 89, 0
3, 624600, Note_on_c, 0, 75, 110
3, 624626, Note_on_c, 0, 87, 121
3, 624720, Note_on_c, 0, 75, 0
3, 624746, Note_on_c, 0, 87, 0
3, 624852, Note_on_c, 0, 85, 121
3, 624854, Note_on_c, 0, 73, 123
3, 624972, Note_on_c, 0, 85, 0
3, 624974, Note_on_c, 0, 73, 0
3, 625090, Note_on_c, 0, 77, 117
3, 625107, Note_on_c, 0, 89, 107
3, 625210, Note_on_c, 0, 77, 0
3, 625227, Note_on_c, 0, 89, 0
3, 625326, Note_on_c, 0, 91, 119
3, 625326, Note_on_c, 0, 79, 123
3, 625566, Note_on_c, 0, 91, 0
3, 625566, Note_on_c, 0, 79, 0
3, 625811, Note_on_c, 0, 91, 118
3, 625826, Note_on_c, 0, 79, 114
3, 626051, Note_on_c, 0, 91, 0
3, 626066, Note_on_c, 0, 79, 0
3, 626283, Note_on_c, 0, 91, 111
3, 626296, Note_on_c, 0, 79, 113
3, 626523, Note_on_c, 0, 91, 0
3, 626536, Note_on_c, 0, 79, 0
3, 626766, Note_on_c, 0, 89, 124
3, 626788, Note_on_c, 0, 77, 117
3, 626886, Note_on_c, 0, 89, 0
3, 626908, Note_on_c, 0, 77, 0
3, 627011, Note_on_c, 0, 75, 113
3, 627022, Note_on_c, 0, 87, 109
3, 627131, Note_on_c, 0, 75, 0
3, 627142, Note_on_c, 0, 87, 0
3, 627240, Note_on_c, 0, 85, 113
3, 627262, Note_on_c, 0, 73, 108
3, 627360, Note_on_c, 0, 85, 0
3, 627382, Note_on_c, 0, 73, 0
3, 627482, Note_on_c, 0, 89, 105
3, 627485, Note_on_c, 0, 77, 118
3, 627602, Note_on_c, 0, 89, 0
3, 627605, Note_on_c, 0, 77, 0
3, 627723, Note_on_c, 0, 79, 112
3, 627726, Note_on_c, 0, 91, 104
3, 627843, Note_on_c, 0, 79, 0
3, 627846, Note_on_c, 0, 91, 0
3, 636005, Note_on_c, 0, 69, 88
3, 636007, Note_on_c, 0, 81, 89
3, 636010, Note_on_c, 0, 79, 81
3, 636065, Note_on_c, 0, 69, 0
3, 636067, Note_on_c, 0, 81, 0
3, 636070, Note_on_c, 0, 79, 0
3, 636250, Note_on_c, 0, 81, 79
3, 636253, Note_on_c, 0, 69, 84
3, 636262, Note_on_c, 0, 79, 96
3, 636310, Note_on_c, 0, 81, 0
3, 636313, Note_on_c, 0, 69, 0
3, 636322, Note_on_c, 0, 79, 0
3, 637104, Note_on_c, 0, 69, 98
3, 637107, Note_on_c, 0, 79, 88
3, 637108, Note_on_c, 0, 81, 98
3, 637164, Note_on_c, 0, 69, 0
3, 637167, Note_on_c, 0, 79, 0
3, 637168, Note_on_c, 0, 81, 0
3, 637322, Note_on_c, 0, 79, 81
3, 637323, Note_on_c, 0, 81, 86
3, 637344, Note_on_c, 0, 69, 82
3, 637382, Note_on_c, 0, 79, 0
3, 637383, Note_on_c, 0, 81, 0
3, 637404, Note_on_c, 0, 69, 0
3, 638168, Note_on_c, 0, 81, 95
3, 638176, Note_on_c, 0, 69, 86
3, 638184, Note_on_c, 0, 79, 81
3, 638228, Note_on_c, 0, 81, 0
3, 638236, Note_on_c, 0, 69, 0
3, 638244, Note_on_c, 0, 79, 0
3, 638405, Note_on_c, 0, 81, 88
3, 638410, Note_on_c, 0, 79, 90
3, 638424, Note_on_c, 0, 69, 85
3, 638465, Note_on_c, 0, 81, 0
3, 638470, Note_on_c, 0, 79, 0
3, 638484, Note_on_c, 0, 69, 0
3, 639243, Note_on_c, 0, 81, 85
3, 639246, Note_on_c, 0, 69, 98
3, 639266, Note_on_c, 0, 79, 80
3, 639303, Note_on_c, 0, 81, 0
3, 639306, Note_on_c, 0, 69, 0
3, 639326, Note_on_c, 0, 79, 0
3, 639962, Note_on_c, 0, 84, 111
3, 639967, Note_on_c, 0, 72, 106
3, 640022, Note_on_c, 0, 84, 0
3, 640027, Note_on_c, 0, 72, 0
3, 640089, Note_on_c, 0, 88, 111
3, 640097, Note_on_c, 0, 76, 110
3, 640149, Note_on_c, 0, 88, 0
3, 640157, Note_on_c, 0, 76, 0
3, 640337, Note_on_c, 0, 76, 85
3, 640397, Note_on_c, 0, 76, 0
3, 641160, Note_on_c, 0, 79, 100
3, 641164, Note_on_c, 0, 67, 100
3, 641220, Note_on_c, 0, 79, 0
3, 641224, Note_on_c, 0, 67, 0
3, 641286, Note_on_c, 0, 84, 109
3, 641302, Note_on_c, 0, 72, 108
3, 641346, Note_on_c, 0, 84, 0
3, 641362, Note_on_c, 0, 72, 0
3, 641402, Note_on_c, 0, 76, 91
3, 641408, Note_on_c, 0, 88, 104
3, 641462, Note_on_c, 0, 76, 0
3, 641468, Note_on_c, 0, 88, 0
3, 641663, Note_on_c, 0, 76, 68
3, 641723, Note_on_c, 0, 76, 0
3, 645372, Note_on_c, 0, 84, 95
3, 645384, Note_on_c, 0, 72, 105
3, 645432, Note_on_c, 0, 84, 0
3, 645444, Note_on_c, 0, 72, 0
3, 645481, Note_on_c, 0, 88, 105
3, 645488, Note_on_c, 0, 76, 92
3, 645541, Note_on_c, 0, 88, 0
3, 645548, Note_on_c, 0, 76, 0
3, 645724, Note_on_c, 0, 76, 80
3, 645784, Note_on_c, 0, 76, 0
3, 646688, Note_on_c, 0, 84, 96
3, 646690, Note_on_c, 0, 72, 97
3, 646748, Note_on_c, 0, 84, 0
3, 646750, Note_on_c, 0, 72, 0
3, 646810, Note_on_c, 0, 88, 106
3, 646818, Note_on_c, 0, 76, 94
3, 646870, Note_on_c, 0, 88, 0
3, 646878, Note_on_c, 0, 76, 0
3, 647040, Note_on_c, 0, 76, 79
3, 647100, Note_on_c, 0, 76, 0
3, 647290, Note_on_c, 0, 67, 100
3, 647295, Note_on_c, 0, 79, 105
3, 647350, Note_on_c, 0, 67, 0
3, 647355, Note_on_c, 0, 79, 0
3, 647416, Note_on_c, 0, 84, 97
3, 647418, Note_on_c, 0, 72, 99
3, 647476, Note_on_c, 0, 84, 0
3, 647478, Note_on_c, 0, 72, 0
3, 647540, Note_on_c, 0, 88, 100
3, 647548, Note_on_c, 0, 76, 105
3, 647600, Note_on_c, 0, 88, 0
3, 647608, Note_on_c, 0, 76, 0
3, 647768, Note_on_c, 0, 76, 66
3, 647828, Note_on_c, 0, 76, 0
3, 648006, Note_on_c, 0, 72, 106
3, 648015, Note_on_c, 0, 84, 108
3, 648066, Note_on_c, 0, 72, 0
3, 648075, Note_on_c, 0, 84, 0
3, 648120, Note_on_c, 0, 88, 97
3, 648133, Note_on_c, 0, 76, 107
3, 648180, Note_on_c, 0, 88, 0
3, 648193, Note_on_c, 0, 76, 0
3, 648380, Note_on_c, 0, 72, 110
3, 648389, Note_on_c, 0, 84, 93
3, 648440, Note_on_c, 0, 72, 0
3, 648449, Note_on_c, 0, 84, 0
3, 648627, Note_on_c, 0, 76, 69
3, 648687, Note_on_c, 0, 76, 0
3, 648844, Note_on_c, 0, 67, 91
3, 648860, Note_on_c, 0, 79, 100
3, 648904, Note_on_c, 0, 67, 0
3, 648920, Note_on_c, 0, 79, 0
3, 648974, Note_on_c, 0, 72, 101
3, 648977, Note_on_c, 0, 84, 98
3, 649034, Note_on_c, 0, 72, 0
3, 649037, Note_on_c, 0, 84, 0
3, 649100, Note_on_c, 0, 88, 111
3, 649106, Note_on_c, 0, 76, 98
3, 649160, Note_on_c, 0, 88, 0
3, 649166, Note_on_c, 0, 76, 0
3, 649322, Note_on_c, 0, 72, 80
3, 649338, Note_on_c, 0, 84, 81
3, 649382, Note_on_c, 0, 72, 0
3, 649398, Note_on_c, 0, 84, 0
3, 649588, Note_on_c, 0, 76, 69
3, 649708, Note_on_c, 0, 76, 0
3, 649814, Note_on_c, 0, 84, 95
3, 649817, Note_on_c, 0, 72, 105
3, 649874, Note_on_c, 0, 84, 0
3, 649877, Note_on_c, 0, 72, 0
3, 649923, Note_on_c, 0, 76, 97
3, 649944, Note_on_c, 0, 88, 104
3, 649983, Note_on_c, 0, 76, 0
3, 650004, Note_on_c, 0, 88, 0
3, 650414, Note_on_c, 0, 67, 99
3, 650427, Note_on_c, 0, 79, 94
3, 650474, Note_on_c, 0, 67, 0
3, 650487, Note_on_c, 0, 79, 0
3, 650528, Note_on_c, 0, 72, 91
3, 650528, Note_on_c, 0, 84, 105
3, 650588, Note_on_c, 0, 72, 0
3, 650588, Note_on_c, 0, 84, 0
3, 650659, Note_on_c, 0, 76, 91
3, 650663, Note_on_c, 0, 88, 100
3, 650719, Note_on_c, 0, 76, 0
3, 650723, Note_on_c, 0, 88, 0
3, 650893, Note_on_c, 0, 72, 67
3, 650903, Note_on_c, 0, 84, 75
3, 650953, Note_on_c, 0, 72, 0
3, 650963, Note_on_c, 0, 84, 0
3, 651123, Note_on_c, 0, 76, 83
3, 651183, Note_on_c, 0, 76, 0
3, 651365, Note_on_c, 0, 79, 110
3, 651384, Note_on_c, 0, 67, 98
3, 651425, Note_on_c, 0, 79, 0
3, 651444, Note_on_c, 0, 67, 0
3, 651492, Note_on_c, 0, 84, 92
3, 651501, Note_on_c, 0, 72, 106
3, 651552, Note_on_c, 0, 84, 0
3, 651561, Note_on_c, 0, 72, 0
3, 651611, Note_on_c, 0, 88, 105
3, 651625, Note_on_c, 0, 76, 102
3, 651671, Note_on_c, 0, 88, 0
3, 651685, Note_on_c, 0, 76, 0
3, 651851, Note_on_c, 0, 72, 72
3, 651856, Note_on_c, 0, 84, 71
3, 651911, Note_on_c, 0, 72, 0
3, 651916, Note_on_c, 0, 84, 0
3, 652081, Note_on_c, 0, 67, 94
3, 652087, Note_on_c, 0, 79, 108
3, 652141, Note_on_c, 0, 67, 0
3, 652147, Note_on_c, 0, 79, 0
3, 652203, Note_on_c, 0, 72, 92
3, 652223, Note_on_c, 0, 84, 95
3, 652263, Note_on_c, 0, 72, 0
3, 652283, Note_on_c, 0, 84, 0
3, 652341, Note_on_c, 0, 88, 91
3, 652343, Note_on_c, 0, 76, 91
3, 652401, Note_on_c, 0, 88, 0
3, 652403, Note_on_c, 0, 76, 0
3, 652576, Note_on_c, 0, 72, 66
3, 652587, Note_on_c, 0, 84, 67
3, 652636, Note_on_c, 0, 72, 0
3, 652647, Note_on_c, 0, 84, 0
3, 652804, Note_on_c, 0, 76, 84
3, 652864, Note_on_c, 0, 76, 0
3, 653045, Note_on_c, 0, 67, 106
3, 653054, Note_on_c, 0, 79, 109
3, 653105, Note_on_c, 0, 67, 0
3, 653114, Note_on_c, 0, 79, 0
3, 653164, Note_on_c, 0, 84, 110
3, 653169, Note_on_c, 0, 72, 102
3, 653224, Note_on_c, 0, 84, 0
3, 653229, Note_on_c, 0, 72, 0
3, 653288, Note_on_c, 0, 76, 93
3, 653307, Note_on_c, 0, 88, 93
3, 653348, Note_on_c, 0, 76, 0
3, 653367, Note_on_c, 0, 88, 0
3, 653534, Note_on_c, 0, 84, 73
3, 653544, Note_on_c, 0, 72, 68
3, 653594, Note_on_c, 0, 84, 0
3, 653604, Note_on_c, 0, 72, 0
3, 653760, Note_on_c, 0, 79, 99
3, 653780, Note_on_c, 0, 67, 107
3, 653820, Note_on_c, 0, 79, 0
3, 653840, Note_on_c, 0, 67, 0
3, 653892, Note_on_c, 0, 84, 91
3, 653898, Note_on_c, 0, 72, 102
3, 653952, Note_on_c, 0, 84, 0
3, 653958, Note_on_c, 0, 72, 0
3, 654015, Note_on_c, 0, 88, 106
3, 654026, Note_on_c, 0, 76, 111
3, 654075, Note_on_c, 0, 88, 0
3, 654086, Note_on_c, 0, 76, 0
3, 654256, Note_on_c, 0, 84, 76
3, 654258, Note_on_c, 0, 72, 71
3, 654316, Note_on_c, 0, 84, 0
3, 654318, Note_on_c, 0, 72, 0
3, 654487, Note_on_c, 0, 76, 65
3, 654547, Note_on_c, 0, 76, 0
3, 654721, Note_on_c, 0, 67, 103
3, 654737, Note_on_c, 0, 79, 98
3, 654781, Note_on_c, 0, 67, 0
3, 654797, Note_on_c, 0, 79, 0
3, 654854, Note_on_c, 0, 72, 105
3, 654856, Note_on_c, 0, 84, 93
3, 654914, Note_on_c, 0, 72, 0
3, 654916, Note_on_c, 0, 84, 0
3, 654974, Note_on_c, 0, 88, 111
3, 654977, Note_on_c, 0, 76, 100
3, 655034, Note_on_c, 0, 88, 0
3, 655037, Note_on_c, 0, 76, 0
3, 655091, Note_on_c, 0, 72, 70
3, 655099, Note_on_c, 0, 84, 69
3, 655151, Note_on_c, 0, 72, 0
3, 655159, Note_on_c, 0, 84, 0
3, 655329, Note_on_c, 0, 81, 108
3, 655342, Note_on_c, 0, 84, 121
3, 655343, Note_on_c, 0, 88, 109
3, 655449, Note_on_c, 0, 81, 0
3, 655462, Note_on_c, 0, 84, 0
3, 655463, Note_on_c, 0, 88, 0
3, 656173, Note_on_c, 0, 79, 54
3, 656182, Note_on_c, 0, 67, 45
3, 656217, Note_on_c, 0, 81, 54
3, 656217, Note_on_c, 0, 69, 58
3, 656226, Note_on_c, 0, 79, 0
3, 656235, Note_on_c, 0, 67, 0
3, 656270, Note_on_c, 0, 81, 0
3, 656270, Note_on_c, 0, 69, 0
3, 656271, Note_on_c, 0, 70, 47
3, 656275, Note_on_c, 0, 82, 57
3, 656324, Note_on_c, 0, 70, 0
3, 656328, Note_on_c, 0, 82, 0
3, 656333, Note_on_c, 0, 72, 48
3, 656340, Note_on_c, 0, 84, 40
3, 656380, Note_on_c, 0, 73, 58
3, 656386, Note_on_c, 0, 72, 0
3, 656390, Note_on_c, 0, 85, 41
3, 656393, Note_on_c, 0, 84, 0
3, 656428, Note_on_c, 0, 86, 43
3, 656433, Note_on_c, 0, 73, 0
3, 656442, Note_on_c, 0, 74, 56
3, 656443, Note_on_c, 0, 85, 0
3, 656481, Note_on_c, 0, 86, 0
3, 656489, Note_on_c, 0, 88, 40
3, 656495, Note_on_c, 0, 74, 0
3, 656498, Note_on_c, 0, 76, 59
3, 656541, Note_on_c, 0, 77, 44
3, 656542, Note_on_c, 0, 88, 0
3, 656551, Note_on_c, 0, 76, 0
3, 656556, Note_on_c, 0, 89, 39
3, 656588, Note_on_c, 0, 79, 42
3, 656594, Note_on_c, 0, 77, 0
3, 656600, Note_on_c, 0, 91, 50
3, 656609, Note_on_c, 0, 89, 0
3, 656640, Note_on_c, 0, 92, 54
3, 656641, Note_on_c, 0, 79, 0
3, 656652, Note_on_c, 0, 81, 40
3, 656653, Note_on_c, 0, 91, 0
3, 656661, Note_on_c, 0, 79, 41
3, 656700, Note_on_c, 0, 92, 0
3, 656712, Note_on_c, 0, 81, 0
3, 656721, Note_on_c, 0, 79, 0
3, 656721, End_track
4, 0, Start_track
4, 0, Title_t, "Oboi I"
4, 0, MIDI_port, 0
4, 0, Program_c, 1, 68
4, 0, Control_c, 1, 7, 75
4, 0, Control_c, 1, 10, 44
4, 0, Control_c, 1, 91, 64
4, 2, Control_c, 1, 11, 65
4, 3, Note_on_c, 1, 81, 26
4, 10, Control_c, 1, 11, 66
4, 18, Control_c, 1, 11, 67
4, 21, Note_on_c, 1, 69, 28
4, 26, Control_c, 1, 11, 68
4, 34, Control_c, 1, 11, 69
4, 42, Control_c, 1, 11, 70
4, 50, Control_c, 1, 11, 71
4, 58, Control_c, 1, 11, 72
4, 66, Control_c, 1, 11, 73
4, 74, Control_c, 1, 11, 74
4, 82, Control_c, 1, 11, 75
4, 90, Control_c, 1, 11, 76
4, 97, Control_c, 1, 11, 77
4, 105, Control_c, 1, 11, 78
4, 113, Control_c, 1, 11, 79
4, 121, Control_c, 1, 11, 80
4, 129, Control_c, 1, 11, 81
4, 137, Control_c, 1, 11, 82
4, 145, Control_c, 1, 11, 83
4, 153, Control_c, 1, 11, 84
4, 161, Control_c, 1, 11, 85
4, 169, Control_c, 1, 11, 86
4, 177, Control_c, 1, 11, 87
4, 185, Control_c, 1, 11, 88
4, 193, Control_c, 1, 11, 89
4, 201, Control_c, 1, 11, 90
4, 208, Control_c, 1, 11, 91
4, 216, Control_c, 1, 11, 92
4, 224, Control_c, 1, 11, 93
4, 232, Control_c, 1, 11, 94
4, 240, Control_c, 1, 11, 95
4, 248, Control_c, 1, 11, 96
4, 256, Control_c, 1, 11, 97
4, 264, Control_c, 1, 11, 98
4, 272, Control_c, 1, 11, 99
4, 280, Control_c, 1, 11, 100
4, 287, Control_c, 1, 11, 101
4, 295, Control_c, 1, 11, 102
4, 303, Control_c, 1, 11, 103
4, 311, Control_c, 1, 11, 104
4, 319, Control_c, 1, 11, 105
4, 327, Control_c, 1, 11, 106
4, 335, Control_c, 1, 11, 107
4, 343, Control_c, 1, 11, 108
4, 351, Control_c, 1, 11, 109
4, 359, Control_c, 1, 11, 110
4, 367, Control_c, 1, 11, 111
4, 375, Control_c, 1, 11, 112
4, 382, Control_c, 1, 11, 113
4, 390, Control_c, 1, 11, 114
4, 398, Control_c, 1, 11, 115
4, 406, Control_c, 1, 11, 116
4, 414, Control_c, 1, 11, 117
4, 422, Control_c, 1, 11, 118
4, 430, Control_c, 1, 11, 119
4, 438, Control_c, 1, 11, 120
4, 446, Control_c, 1, 11, 121
4, 454, Control_c, 1, 11, 122
4, 462, Control_c, 1, 11, 123
4, 470, Control_c, 1, 11, 124
4, 478, Control_c, 1, 11, 125
4, 486, Control_c, 1, 11, 126
4, 2641, Note_on_c, 1, 81, 0
4, 2659, Note_on_c, 1, 69, 0
4, 3379, Note_on_c, 1, 81, 21
4, 8755, Note_on_c, 1, 81, 0
4, 10560, Control_c, 1, 11, 127
4, 10560, Control_c, 1, 11, 127
4, 10567, Note_on_c, 1, 90, 77
4, 10573, Note_on_c, 1, 82, 69
4, 10590, Control_c, 1, 11, 126
4, 10590, Control_c, 1, 11, 126
4, 10620, Control_c, 1, 11, 125
4, 10620, Control_c, 1, 11, 125
4, 10650, Control_c, 1, 11, 124
4, 10650, Control_c, 1, 11, 124
4, 10681, Control_c, 1, 11, 123
4, 10681, Control_c, 1, 11, 123
4, 10711, Control_c, 1, 11, 122
4, 10711, Control_c, 1, 11, 122
4, 10741, Control_c, 1, 11, 121
4, 10741, Control_c, 1, 11, 121
4, 10772, Control_c, 1, 11, 120
4, 10772, Control_c, 1, 11, 120
4, 10802, Control_c, 1, 11, 119
4, 10802, Control_c, 1, 11, 119
4, 10803, Note_on_c, 1, 89, 79
4, 10807, Note_on_c, 1, 90, 0
4, 10813, Note_on_c, 1, 82, 0
4, 10827, Note_on_c, 1, 80, 77
4, 10832, Control_c, 1, 11, 118
4, 10832, Control_c, 1, 11, 118
4, 10863, Control_c, 1, 11, 117
4, 10863, Control_c, 1, 11, 117
4, 10893, Control_c, 1, 11, 116
4, 10893, Control_c, 1, 11, 116
4, 10923, Control_c, 1, 11, 115
4, 10923, Control_c, 1, 11, 115
4, 10954, Control_c, 1, 11, 114
4, 10954, Control_c, 1, 11, 114
4, 10984, Control_c, 1, 11, 113
4, 10984, Control_c, 1, 11, 113
4, 11014, Control_c, 1, 11, 112
4, 11014, Control_c, 1, 11, 112
4, 11043, Note_on_c, 1, 89, 0
4, 11045, Note_on_c, 1, 88, 67
4, 11045, Control_c, 1, 11, 111
4, 11045, Control_c, 1, 11, 111
4, 11061, Note_on_c, 1, 85, 66
4, 11067, Note_on_c, 1, 80, 0
4, 11075, Control_c, 1, 11, 110
4, 11075, Control_c, 1, 11, 110
4, 11105, Control_c, 1, 11, 109
4, 11105, Control_c, 1, 11, 109
4, 11136, Control_c, 1, 11, 108
4, 11136, Control_c, 1, 11, 108
4, 11166, Control_c, 1, 11, 107
4, 11166, Control_c, 1, 11, 107
4, 11196, Control_c, 1, 11, 106
4, 11196, Control_c, 1, 11, 106
4, 11227, Control_c, 1, 11, 105
4, 11227, Control_c, 1, 11, 105
4, 11257, Control_c, 1, 11, 104
4, 11257, Control_c, 1, 11, 104
4, 11285, Note_on_c, 1, 88, 0
4, 11287, Control_c, 1, 11, 103
4, 11287, Control_c, 1, 11, 103
4, 11298, Note_on_c, 1, 82, 64
4, 11301, Note_on_c, 1, 85, 0
4, 11305, Note_on_c, 1, 87, 76
4, 11317, Control_c, 1, 11, 102
4, 11317, Control_c, 1, 11, 102
4, 11348, Control_c, 1, 11, 101
4, 11348, Control_c, 1, 11, 101
4, 11378, Control_c, 1, 11, 100
4, 11378, Control_c, 1, 11, 100
4, 11408, Control_c, 1, 11, 99
4, 11408, Control_c, 1, 11, 99
4, 11439, Control_c, 1, 11, 98
4, 11439, Control_c, 1, 11, 98
4, 11469, Control_c, 1, 11, 97
4, 11469, Control_c, 1, 11, 97
4, 11499, Control_c, 1, 11, 96
4, 11499, Control_c, 1, 11, 96
4, 11530, Note_on_c, 1, 77, 63
4, 11530, Control_c, 1, 11, 95
4, 11530, Control_c, 1, 11, 95
4, 11531, Note_on_c, 1, 85, 68
4, 11538, Note_on_c, 1, 82, 0
4, 11545, Note_on_c, 1, 87, 0
4, 11560, Control_c, 1, 11, 94
4, 11560, Control_c, 1, 11, 94
4, 11590, Control_c, 1, 11, 93
4, 11590, Control_c, 1, 11, 93
4, 11621, Control_c, 1, 11, 92
4, 11621, Control_c, 1, 11, 92
4, 11651, Control_c, 1, 11, 91
4, 11651, Control_c, 1, 11, 91
4, 11681, Control_c, 1, 11, 90
4, 11681, Control_c, 1, 11, 90
4, 11712, Control_c, 1, 11, 89
4, 11712, Control_c, 1, 11, 89
4, 11742, Control_c, 1, 11, 88
4, 11742, Control_c, 1, 11, 88
4, 11770, Note_on_c, 1, 77, 0
4, 11771, Note_on_c, 1, 85, 0
4, 11772, Control_c, 1, 11, 87
4, 11772, Control_c, 1, 11, 87
4, 11777, Note_on_c, 1, 76, 58
4, 11777, Note_on_c, 1, 84, 74
4, 11803, Control_c, 1, 11, 86
4, 11803, Control_c, 1, 11, 86
4, 11833, Control_c, 1, 11, 85
4, 11833, Control_c, 1, 11, 85
4, 11863, Control_c, 1, 11, 84
4, 11863, Control_c, 1, 11, 84
4, 11894, Control_c, 1, 11, 83
4, 11894, Control_c, 1, 11, 83
4, 11924, Control_c, 1, 11, 82
4, 11924, Control_c, 1, 11, 82
4, 11954, Control_c, 1, 11, 81
4, 11954, Control_c, 1, 11, 81
4, 11985, Control_c, 1, 11, 80
4, 11985, Control_c, 1, 11, 80
4, 12000, Note_on_c, 1, 82, 58
4, 12015, Control_c, 1, 11, 79
4, 12015, Control_c, 1, 11, 79
4, 12017, Note_on_c, 1, 76, 0
4, 12017, Note_on_c, 1, 84, 0
4, 12021, Note_on_c, 1, 75, 55
4, 12045, Control_c, 1, 11, 78
4, 12045, Control_c, 1, 11, 78
4, 12075, Control_c, 1, 11, 77
4, 12075, Control_c, 1, 11, 77
4, 12105, Control_c, 1, 11, 76
4, 12105, Control_c, 1, 11, 76
4, 12136, Control_c, 1, 11, 75
4, 12136, Control_c, 1, 11, 75
4, 12166, Control_c, 1, 11, 74
4, 12166, Control_c, 1, 11, 74
4, 12196, Control_c, 1, 11, 73
4, 12196, Control_c, 1, 11, 73
4, 12227, Control_c, 1, 11, 72
4, 12227, Control_c, 1, 11, 72
4, 12240, Note_on_c, 1, 82, 0
4, 12255, Note_on_c, 1, 80, 66
4, 12257, Control_c, 1, 11, 71
4, 12257, Control_c, 1, 11, 71
4, 12261, Note_on_c, 1, 75, 0
4, 12261, Note_on_c, 1, 72, 62
4, 12287, Control_c, 1, 11, 70
4, 12287, Control_c, 1, 11, 70
4, 12318, Control_c, 1, 11, 69
4, 12318, Control_c, 1, 11, 69
4, 12348, Control_c, 1, 11, 68
4, 12348, Control_c, 1, 11, 68
4, 12378, Control_c, 1, 11, 67
4, 12378, Control_c, 1, 11, 67
4, 12409, Control_c, 1, 11, 66
4, 12409, Control_c, 1, 11, 66
4, 12439, Control_c, 1, 11, 65
4, 12439, Control_c, 1, 11, 65
4, 12469, Control_c, 1, 11, 64
4, 12469, Control_c, 1, 11, 64
4, 12495, Note_on_c, 1, 80, 0
4, 12496, Note_on_c, 1, 70, 68
4, 12500, Control_c, 1, 11, 63
4, 12500, Control_c, 1, 11, 63
4, 12501, Note_on_c, 1, 72, 0
4, 12501, Note_on_c, 1, 78, 57
4, 12530, Control_c, 1, 11, 62
4, 12530, Control_c, 1, 11, 62
4, 12560, Control_c, 1, 11, 61
4, 12560, Control_c, 1, 11, 61
4, 12591, Control_c, 1, 11, 60
4, 12591, Control_c, 1, 11, 60
4, 12621, Control_c, 1, 11, 59
4, 12621, Control_c, 1, 11, 59
4, 12651, Control_c, 1, 11, 58
4, 12651, Control_c, 1, 11, 58
4, 12682, Control_c, 1, 11, 57
4, 12682, Control_c, 1, 11, 57
4, 12712, Control_c, 1, 11, 56
4, 12712, Control_c, 1, 11, 56
4, 12724, Note_on_c, 1, 76, 56
4, 12736, Note_on_c, 1, 70, 0
4, 12741, Note_on_c, 1, 78, 0
4, 12741, Note_on_c, 1, 68, 57
4, 12742, Control_c, 1, 11, 55
4, 12742, Control_c, 1, 11, 55
4, 12772, Control_c, 1, 11, 54
4, 12772, Control_c, 1, 11, 54
4, 12803, Control_c, 1, 11, 53
4, 12803, Control_c, 1, 11, 53
4, 12833, Control_c, 1, 11, 52
4, 12833, Control_c, 1, 11, 52
4, 12863, Control_c, 1, 11, 51
4, 12863, Control_c, 1, 11, 51
4, 12894, Control_c, 1, 11, 50
4, 12894, Control_c, 1, 11, 50
4, 12924, Control_c, 1, 11, 49
4, 12924, Control_c, 1, 11, 49
4, 12954, Control_c, 1, 11, 48
4, 12954, Control_c, 1, 11, 48
4, 12964, Note_on_c, 1, 76, 0
4, 12968, Note_on_c, 1, 70, 55
4, 12975, Note_on_c, 1, 78, 66
4, 12981, Note_on_c, 1, 68, 0
4, 12985, Control_c, 1, 11, 47
4, 12985, Control_c, 1, 11, 47
4, 13015, Control_c, 1, 11, 46
4, 13015, Control_c, 1, 11, 46
4, 13045, Control_c, 1, 11, 45
4, 13045, Control_c, 1, 11, 45
4, 13076, Control_c, 1, 11, 44
4, 13076, Control_c, 1, 11, 44
4, 13106, Control_c, 1, 11, 43
4, 13106, Control_c, 1, 11, 43
4, 13136, Control_c, 1, 11, 42
4, 13136, Control_c, 1, 11, 42
4, 13167, Control_c, 1, 11, 41
4, 13167, Control_c, 1, 11, 41
4, 13197, Control_c, 1, 11, 40
4, 13197, Control_c, 1, 11, 40
4, 13208, Note_on_c, 1, 70, 0
4, 13208, Note_on_c, 1, 80, 65
4, 13215, Note_on_c, 1, 78, 0
4, 13219, Note_on_c, 1, 72, 54
4, 13227, Control_c, 1, 11, 39
4, 13227, Control_c, 1, 11, 39
4, 13258, Control_c, 1, 11, 38
4, 13258, Control_c, 1, 11, 38
4, 13288, Control_c, 1, 11, 37
4, 13288, Control_c, 1, 11, 37
4, 13318, Control_c, 1, 11, 36
4, 13318, Control_c, 1, 11, 36
4, 13349, Control_c, 1, 11, 35
4, 13349, Control_c, 1, 11, 35
4, 13379, Control_c, 1, 11, 34
4, 13379, Control_c, 1, 11, 34
4, 13409, Control_c, 1, 11, 33
4, 13409, Control_c, 1, 11, 33
4, 13440, Control_c, 1, 11, 32
4, 13448, Note_on_c, 1, 80, 0
4, 13452, Note_on_c, 1, 75, 64
4, 13459, Note_on_c, 1, 72, 0
4, 13464, Note_on_c, 1, 82, 59
4, 13692, Note_on_c, 1, 75, 0
4, 13704, Note_on_c, 1, 82, 0
4, 15360, Control_c, 1, 11, 127
4, 15367, Note_on_c, 1, 82, 72
4, 15378, Note_on_c, 1, 90, 67
4, 15395, Control_c, 1, 11, 126
4, 15430, Control_c, 1, 11, 125
4, 15465, Control_c, 1, 11, 124
4, 15501, Control_c, 1, 11, 123
4, 15536, Control_c, 1, 11, 122
4, 15572, Control_c, 1, 11, 121
4, 15607, Note_on_c, 1, 82, 0
4, 15607, Note_on_c, 1, 80, 80
4, 15607, Control_c, 1, 11, 120
4, 15618, Note_on_c, 1, 90, 0
4, 15628, Note_on_c, 1, 89, 82
4, 15643, Control_c, 1, 11, 119
4, 15678, Control_c, 1, 11, 118
4, 15713, Control_c, 1, 11, 117
4, 15749, Control_c, 1, 11, 116
4, 15784, Control_c, 1, 11, 115
4, 15819, Control_c, 1, 11, 114
4, 15847, Note_on_c, 1, 80, 0
4, 15851, Note_on_c, 1, 85, 77
4, 15855, Control_c, 1, 11, 113
4, 15864, Note_on_c, 1, 88, 69
4, 15868, Note_on_c, 1, 89, 0
4, 15890, Control_c, 1, 11, 112
4, 15925, Control_c, 1, 11, 111
4, 15961, Control_c, 1, 11, 110
4, 15996, Control_c, 1, 11, 109
4, 16032, Control_c, 1, 11, 108
4, 16067, Control_c, 1, 11, 107
4, 16081, Note_on_c, 1, 82, 70
4, 16086, Note_on_c, 1, 87, 74
4, 16091, Note_on_c, 1, 85, 0
4, 16102, Control_c, 1, 11, 106
4, 16104, Note_on_c, 1, 88, 0
4, 16138, Control_c, 1, 11, 105
4, 16173, Control_c, 1, 11, 104
4, 16208, Control_c, 1, 11, 103
4, 16244, Control_c, 1, 11, 102
4, 16279, Control_c, 1, 11, 101
4, 16314, Control_c, 1, 11, 100
4, 16321, Note_on_c, 1, 82, 0
4, 16326, Note_on_c, 1, 87, 0
4, 16341, Note_on_c, 1, 85, 74
4, 16345, Note_on_c, 1, 77, 68
4, 16350, Control_c, 1, 11, 99
4, 16385, Control_c, 1, 11, 98
4, 16421, Control_c, 1, 11, 97
4, 16456, Control_c, 1, 11, 96
4, 16491, Control_c, 1, 11, 95
4, 16527, Control_c, 1, 11, 94
4, 16562, Control_c, 1, 11, 93
4, 16566, Note_on_c, 1, 84, 57
4, 16581, Note_on_c, 1, 85, 0
4, 16582, Note_on_c, 1, 76, 61
4, 16585, Note_on_c, 1, 77, 0
4, 16597, Control_c, 1, 11, 92
4, 16633, Control_c, 1, 11, 91
4, 16668, Control_c, 1, 11, 90
4, 16703, Control_c, 1, 11, 89
4, 16739, Control_c, 1, 11, 88
4, 16774, Control_c, 1, 11, 87
4, 16805, Note_on_c, 1, 75, 63
4, 16806, Note_on_c, 1, 84, 0
4, 16810, Control_c, 1, 11, 86
4, 16822, Note_on_c, 1, 76, 0
4, 16823, Note_on_c, 1, 82, 65
4, 16845, Control_c, 1, 11, 85
4, 16880, Control_c, 1, 11, 84
4, 16916, Control_c, 1, 11, 83
4, 16951, Control_c, 1, 11, 82
4, 16987, Control_c, 1, 11, 81
4, 17022, Control_c, 1, 11, 80
4, 17045, Note_on_c, 1, 75, 0
4, 17048, Note_on_c, 1, 80, 64
4, 17049, Note_on_c, 1, 72, 51
4, 17057, Control_c, 1, 11, 79
4, 17063, Note_on_c, 1, 82, 0
4, 17092, Control_c, 1, 11, 78
4, 17128, Control_c, 1, 11, 77
4, 17163, Control_c, 1, 11, 76
4, 17199, Control_c, 1, 11, 75
4, 17234, Control_c, 1, 11, 74
4, 17269, Control_c, 1, 11, 73
4, 17288, Note_on_c, 1, 80, 0
4, 17289, Note_on_c, 1, 72, 0
4, 17291, Note_on_c, 1, 70, 58
4, 17293, Note_on_c, 1, 78, 60
4, 17305, Control_c, 1, 11, 72
4, 17340, Control_c, 1, 11, 71
4, 17376, Control_c, 1, 11, 70
4, 17411, Control_c, 1, 11, 69
4, 17446, Control_c, 1, 11, 68
4, 17482, Control_c, 1, 11, 67
4, 17517, Control_c, 1, 11, 66
4, 17529, Note_on_c, 1, 76, 51
4, 17531, Note_on_c, 1, 70, 0
4, 17533, Note_on_c, 1, 78, 0
4, 17542, Note_on_c, 1, 68, 51
4, 17552, Control_c, 1, 11, 65
4, 17588, Control_c, 1, 11, 64
4, 17623, Control_c, 1, 11, 63
4, 17658, Control_c, 1, 11, 62
4, 17694, Control_c, 1, 11, 61
4, 17729, Control_c, 1, 11, 60
4, 17765, Control_c, 1, 11, 59
4, 17769, Note_on_c, 1, 76, 0
4, 17772, Note_on_c, 1, 66, 60
4, 17774, Note_on_c, 1, 75, 52
4, 17782, Note_on_c, 1, 68, 0
4, 17800, Control_c, 1, 11, 58
4, 17835, Control_c, 1, 11, 57
4, 17871, Control_c, 1, 11, 56
4, 17906, Control_c, 1, 11, 55
4, 17941, Control_c, 1, 11, 54
4, 17977, Control_c, 1, 11, 53
4, 18012, Note_on_c, 1, 66, 0
4, 18012, Control_c, 1, 11, 52
4, 18014, Note_on_c, 1, 75, 0
4, 18047, Control_c, 1, 11, 51
4, 18083, Control_c, 1, 11, 50
4, 18118, Control_c, 1, 11, 49
4, 18154, Control_c, 1, 11, 48
4, 18189, Control_c, 1, 11, 47
4, 18225, Control_c, 1, 11, 46
4, 18260, Control_c, 1, 11, 45
4, 18295, Control_c, 1, 11, 44
4, 18330, Control_c, 1, 11, 43
4, 18366, Control_c, 1, 11, 42
4, 18401, Control_c, 1, 11, 41
4, 18436, Control_c, 1, 11, 40
4, 18472, Control_c, 1, 11, 39
4, 18507, Control_c, 1, 11, 38
4, 18543, Control_c, 1, 11, 37
4, 18578, Control_c, 1, 11, 36
4, 18614, Control_c, 1, 11, 35
4, 18649, Control_c, 1, 11, 34
4, 18684, Control_c, 1, 11, 33
4, 18720, Control_c, 1, 11, 127
4, 19688, Note_on_c, 1, 82, 85
4, 19689, Note_on_c, 1, 90, 73
4, 19928, Note_on_c, 1, 82, 0
4, 19928, Note_on_c, 1, 89, 64
4, 19929, Note_on_c, 1, 90, 0
4, 19930, Note_on_c, 1, 80, 65
4, 20168, Note_on_c, 1, 89, 0
4, 20170, Note_on_c, 1, 80, 0
4, 20177, Note_on_c, 1, 88, 66
4, 20182, Note_on_c, 1, 85, 65
4, 20400, Note_on_c, 1, 87, 73
4, 20407, Note_on_c, 1, 82, 60
4, 20417, Note_on_c, 1, 88, 0
4, 20422, Note_on_c, 1, 85, 0
4, 20640, Note_on_c, 1, 87, 0
4, 20647, Note_on_c, 1, 82, 0
4, 20660, Note_on_c, 1, 77, 52
4, 20666, Note_on_c, 1, 85, 68
4, 20888, Note_on_c, 1, 84, 49
4, 20900, Note_on_c, 1, 77, 0
4, 20901, Note_on_c, 1, 76, 48
4, 20906, Note_on_c, 1, 85, 0
4, 21121, Note_on_c, 1, 75, 59
4, 21128, Note_on_c, 1, 84, 0
4, 21130, Note_on_c, 1, 82, 57
4, 21141, Note_on_c, 1, 76, 0
4, 21361, Note_on_c, 1, 75, 0
4, 21370, Note_on_c, 1, 82, 0
4, 22560, Control_c, 1, 11, 127
4, 26880, Note_on_c, 1, 91, 43
4, 26903, Note_on_c, 1, 82, 45
4, 27120, Note_on_c, 1, 91, 0
4, 27122, Note_on_c, 1, 89, 51
4, 27143, Note_on_c, 1, 82, 0
4, 27145, Note_on_c, 1, 85, 48
4, 27362, Note_on_c, 1, 89, 0
4, 27378, Note_on_c, 1, 83, 48
4, 27385, Note_on_c, 1, 85, 0
4, 27387, Note_on_c, 1, 88, 47
4, 27601, Note_on_c, 1, 86, 39
4, 27617, Note_on_c, 1, 79, 43
4, 27618, Note_on_c, 1, 83, 0
4, 27627, Note_on_c, 1, 88, 0
4, 27840, Note_on_c, 1, 82, 43
4, 27841, Note_on_c, 1, 86, 0
4, 27857, Note_on_c, 1, 79, 0
4, 27858, Note_on_c, 1, 85, 52
4, 28080, Note_on_c, 1, 82, 0
4, 28096, Note_on_c, 1, 83, 51
4, 28098, Note_on_c, 1, 85, 0
4, 28103, Note_on_c, 1, 79, 48
4, 28324, Note_on_c, 1, 79, 0
4, 28331, Note_on_c, 1, 86, 49
4, 28336, Note_on_c, 1, 83, 0
4, 28344, Note_on_c, 1, 79, 48
4, 28562, Note_on_c, 1, 84, 39
4, 28571, Note_on_c, 1, 86, 0
4, 28584, Note_on_c, 1, 79, 0
4, 28587, Note_on_c, 1, 76, 39
4, 28802, Note_on_c, 1, 84, 0
4, 28804, Note_on_c, 1, 74, 57
4, 28806, Note_on_c, 1, 82, 54
4, 28827, Note_on_c, 1, 76, 0
4, 29044, Note_on_c, 1, 74, 0
4, 29046, Note_on_c, 1, 82, 0
4, 29054, Note_on_c, 1, 72, 51
4, 29062, Note_on_c, 1, 80, 50
4, 29286, Note_on_c, 1, 70, 41
4, 29294, Note_on_c, 1, 72, 0
4, 29294, Note_on_c, 1, 79, 46
4, 29302, Note_on_c, 1, 80, 0
4, 29526, Note_on_c, 1, 70, 0
4, 29526, Note_on_c, 1, 74, 56
4, 29534, Note_on_c, 1, 79, 0
4, 29539, Note_on_c, 1, 81, 41
4, 29762, Note_on_c, 1, 74, 0
4, 29779, Note_on_c, 1, 81, 0
4, 29780, Note_on_c, 1, 82, 54
4, 29781, Note_on_c, 1, 74, 41
4, 30012, Note_on_c, 1, 76, 52
4, 30020, Note_on_c, 1, 82, 0
4, 30021, Note_on_c, 1, 74, 0
4, 30026, Note_on_c, 1, 84, 49
4, 30242, Note_on_c, 1, 82, 46
4, 30249, Note_on_c, 1, 74, 43
4, 30252, Note_on_c, 1, 76, 0
4, 30266, Note_on_c, 1, 84, 0
4, 30482, Note_on_c, 1, 82, 0
4, 30489, Note_on_c, 1, 74, 0
4, 30491, Note_on_c, 1, 72, 42
4, 30494, Note_on_c, 1, 80, 41
4, 30708, Note_on_c, 1, 72, 0
4, 30728, Note_on_c, 1, 72, 59
4, 30734, Note_on_c, 1, 80, 0
4, 30735, Note_on_c, 1, 79, 50
4, 30968, Note_on_c, 1, 72, 0
4, 30973, Note_on_c, 1, 74, 42
4, 30975, Note_on_c, 1, 79, 0
4, 30978, Note_on_c, 1, 77, 54
4, 31211, Note_on_c, 1, 71, 59
4, 31213, Note_on_c, 1, 74, 0
4, 31218, Note_on_c, 1, 77, 0
4, 31224, Note_on_c, 1, 78, 45
4, 31446, Note_on_c, 1, 72, 54
4, 31451, Note_on_c, 1, 71, 0
4, 31459, Note_on_c, 1, 79, 47
4, 31464, Note_on_c, 1, 78, 0
4, 31682, Note_on_c, 1, 81, 46
4, 31686, Note_on_c, 1, 72, 0
4, 31699, Note_on_c, 1, 79, 0
4, 31703, Note_on_c, 1, 74, 43
4, 31922, Note_on_c, 1, 81, 0
4, 31931, Note_on_c, 1, 83, 55
4, 31937, Note_on_c, 1, 76, 40
4, 31943, Note_on_c, 1, 74, 0
4, 32168, Note_on_c, 1, 85, 48
4, 32171, Note_on_c, 1, 83, 0
4, 32171, Note_on_c, 1, 78, 50
4, 32177, Note_on_c, 1, 76, 0
4, 32408, Note_on_c, 1, 85, 0
4, 32409, Note_on_c, 1, 80, 43
4, 32411, Note_on_c, 1, 78, 0
4, 32425, Note_on_c, 1, 87, 58
4, 32643, Note_on_c, 1, 86, 56
4, 32649, Note_on_c, 1, 80, 0
4, 32663, Note_on_c, 1, 79, 48
4, 32665, Note_on_c, 1, 87, 0
4, 32883, Note_on_c, 1, 86, 0
4, 32893, Note_on_c, 1, 76, 57
4, 32903, Note_on_c, 1, 79, 0
4, 32905, Note_on_c, 1, 84, 44
4, 33133, Note_on_c, 1, 76, 0
4, 33143, Note_on_c, 1, 74, 42
4, 33144, Note_on_c, 1, 82, 46
4, 33145, Note_on_c, 1, 84, 0
4, 33361, Note_on_c, 1, 72, 54
4, 33377, Note_on_c, 1, 80, 40
4, 33383, Note_on_c, 1, 74, 0
4, 33384, Note_on_c, 1, 82, 0
4, 33601, Note_on_c, 1, 72, 0
4, 33602, Note_on_c, 1, 70, 44
4, 33617, Note_on_c, 1, 80, 0
4, 33617, Note_on_c, 1, 79, 39
4, 33841, Note_on_c, 1, 74, 42
4, 33841, Note_on_c, 1, 77, 40
4, 33842, Note_on_c, 1, 70, 0
4, 33857, Note_on_c, 1, 79, 0
4, 34081, Note_on_c, 1, 74, 0
4, 34081, Note_on_c, 1, 77, 0
4, 34091, Note_on_c, 1, 78, 46
4, 34106, Note_on_c, 1, 71, 43
4, 34323, Note_on_c, 1, 79, 51
4, 34331, Note_on_c, 1, 78, 0
4, 34333, Note_on_c, 1, 72, 57
4, 34346, Note_on_c, 1, 71, 0
4, 34563, Note_on_c, 1, 79, 0
4, 34573, Note_on_c, 1, 72, 0
4, 34574, Note_on_c, 1, 74, 53
4, 34581, Note_on_c, 1, 81, 58
4, 34814, Note_on_c, 1, 74, 0
4, 34818, Note_on_c, 1, 83, 58
4, 34821, Note_on_c, 1, 81, 0
4, 34827, Note_on_c, 1, 76, 58
4, 35058, Note_on_c, 1, 83, 0
4, 35064, Note_on_c, 1, 86, 44
4, 35067, Note_on_c, 1, 76, 0
4, 35067, Note_on_c, 1, 81, 52
4, 35297, Note_on_c, 1, 90, 53
4, 35300, Note_on_c, 1, 83, 54
4, 35304, Note_on_c, 1, 86, 0
4, 35307, Note_on_c, 1, 81, 0
4, 35525, Note_on_c, 1, 90, 0
4, 35528, Note_on_c, 1, 83, 0
4, 135796, Control_c, 1, 7, 127
4, 136332, Note_on_c, 1, 78, 40
4, 136810, Note_on_c, 1, 73, 53
4, 136812, Note_on_c, 1, 78, 0
4, 137050, Note_on_c, 1, 73, 0
4, 137054, Note_on_c, 1, 78, 58
4, 137292, Note_on_c, 1, 76, 44
4, 137294, Note_on_c, 1, 78, 0
4, 137526, Note_on_c, 1, 75, 56
4, 137532, Note_on_c, 1, 76, 0
4, 137766, Note_on_c, 1, 75, 0
4, 137770, Note_on_c, 1, 73, 40
4, 138250, Note_on_c, 1, 73, 0
4, 138261, Note_on_c, 1, 76, 55
4, 138501, Note_on_c, 1, 76, 0
4, 138502, Note_on_c, 1, 78, 42
4, 138733, Note_on_c, 1, 73, 42
4, 138742, Note_on_c, 1, 78, 0
4, 139205, Note_on_c, 1, 69, 41
4, 139213, Note_on_c, 1, 73, 0
4, 139220, Note_on_c, 1, 78, 58
4, 139685, Note_on_c, 1, 69, 0
4, 139685, Note_on_c, 1, 73, 49
4, 139692, Note_on_c, 1, 64, 44
4, 139700, Note_on_c, 1, 78, 0
4, 139925, Note_on_c, 1, 73, 0
4, 139925, Note_on_c, 1, 78, 59
4, 139932, Note_on_c, 1, 64, 0
4, 139948, Note_on_c, 1, 69, 50
4, 140165, Note_on_c, 1, 78, 0
4, 140166, Note_on_c, 1, 68, 53
4, 140184, Note_on_c, 1, 76, 42
4, 140188, Note_on_c, 1, 69, 0
4, 140406, Note_on_c, 1, 68, 0
4, 140408, Note_on_c, 1, 75, 44
4, 140424, Note_on_c, 1, 76, 0
4, 140427, Note_on_c, 1, 66, 54
4, 140645, Note_on_c, 1, 64, 45
4, 140648, Note_on_c, 1, 75, 0
4, 140656, Note_on_c, 1, 73, 57
4, 140667, Note_on_c, 1, 66, 0
4, 141125, Note_on_c, 1, 64, 0
4, 141136, Note_on_c, 1, 73, 0
4, 141602, Control_c, 1, 7, 75
4, 183862, Note_on_c, 1, 74, 81
4, 183868, Note_on_c, 1, 78, 67
4, 184567, Note_on_c, 1, 76, 80
4, 184575, Note_on_c, 1, 72, 77
4, 184582, Note_on_c, 1, 74, 0
4, 184588, Note_on_c, 1, 78, 0
4, 184803, Note_on_c, 1, 74, 68
4, 184807, Note_on_c, 1, 76, 0
4, 184815, Note_on_c, 1, 72, 0
4, 184816, Note_on_c, 1, 78, 68
4, 185283, Note_on_c, 1, 74, 0
4, 185285, Note_on_c, 1, 73, 82
4, 185289, Note_on_c, 1, 69, 78
4, 185296, Note_on_c, 1, 78, 0
4, 185525, Note_on_c, 1, 73, 0
4, 185529, Note_on_c, 1, 69, 0
4, 185532, Note_on_c, 1, 71, 67
4, 185542, Note_on_c, 1, 67, 74
4, 185767, Note_on_c, 1, 76, 75
4, 185772, Note_on_c, 1, 71, 0
4, 185772, Note_on_c, 1, 72, 65
4, 185782, Note_on_c, 1, 67, 0
4, 186247, Note_on_c, 1, 76, 0
4, 186251, Note_on_c, 1, 73, 75
4, 186252, Note_on_c, 1, 72, 0
4, 186261, Note_on_c, 1, 69, 74
4, 186635, Note_on_c, 1, 73, 0
4, 186645, Note_on_c, 1, 69, 0
4, 186726, Note_on_c, 1, 71, 81
4, 186739, Note_on_c, 1, 67, 75
4, 187206, Note_on_c, 1, 71, 0
4, 187219, Note_on_c, 1, 67, 0
4, 187222, Note_on_c, 1, 69, 66
4, 187222, Note_on_c, 1, 73, 78
4, 187450, Note_on_c, 1, 67, 76
4, 187456, Note_on_c, 1, 71, 70
4, 187462, Note_on_c, 1, 69, 0
4, 187462, Note_on_c, 1, 73, 0
4, 187690, Note_on_c, 1, 67, 0
4, 187695, Note_on_c, 1, 74, 83
4, 187696, Note_on_c, 1, 71, 0
4, 187707, Note_on_c, 1, 78, 83
4, 188175, Note_on_c, 1, 74, 0
4, 188176, Note_on_c, 1, 75, 68
4, 188177, Note_on_c, 1, 71, 81
4, 188187, Note_on_c, 1, 78, 0
4, 188656, Note_on_c, 1, 75, 0
4, 188657, Note_on_c, 1, 71, 0
4, 188666, Note_on_c, 1, 76, 68
4, 188666, Note_on_c, 1, 72, 72
4, 188884, Note_on_c, 1, 75, 69
4, 188884, Note_on_c, 1, 78, 69
4, 188906, Note_on_c, 1, 76, 0
4, 188906, Note_on_c, 1, 72, 0
4, 189124, Note_on_c, 1, 75, 0
4, 189124, Note_on_c, 1, 78, 0
4, 189141, Note_on_c, 1, 69, 74
4, 189147, Note_on_c, 1, 73, 74
4, 189525, Note_on_c, 1, 69, 0
4, 189531, Note_on_c, 1, 73, 0
4, 191522, Note_on_c, 1, 67, 75
4, 191526, Note_on_c, 1, 71, 75
4, 192002, Note_on_c, 1, 67, 0
4, 192002, Note_on_c, 1, 69, 85
4, 192006, Note_on_c, 1, 71, 0
4, 192022, Note_on_c, 1, 73, 78
4, 192242, Note_on_c, 1, 69, 0
4, 192261, Note_on_c, 1, 71, 79
4, 192262, Note_on_c, 1, 73, 0
4, 192267, Note_on_c, 1, 67, 82
4, 192501, Note_on_c, 1, 71, 0
4, 192501, Note_on_c, 1, 74, 70
4, 192504, Note_on_c, 1, 78, 83
4, 192507, Note_on_c, 1, 67, 0
4, 192978, Note_on_c, 1, 73, 65
4, 192981, Note_on_c, 1, 74, 0
4, 192984, Note_on_c, 1, 78, 0
4, 192988, Note_on_c, 1, 67, 72
4, 193447, Note_on_c, 1, 71, 85
4, 193458, Note_on_c, 1, 73, 0
4, 193462, Note_on_c, 1, 75, 77
4, 193468, Note_on_c, 1, 67, 0
4, 193681, Note_on_c, 1, 78, 82
4, 193687, Note_on_c, 1, 71, 0
4, 193699, Note_on_c, 1, 74, 71
4, 193702, Note_on_c, 1, 75, 0
4, 193921, Note_on_c, 1, 78, 0
4, 193924, Note_on_c, 1, 73, 66
4, 193933, Note_on_c, 1, 67, 81
4, 193939, Note_on_c, 1, 74, 0
4, 194404, Note_on_c, 1, 73, 0
4, 194404, Note_on_c, 1, 78, 66
4, 194413, Note_on_c, 1, 67, 0
4, 194422, Note_on_c, 1, 74, 65
4, 194884, Note_on_c, 1, 78, 0
4, 194899, Note_on_c, 1, 81, 72
4, 194901, Note_on_c, 1, 75, 70
4, 194902, Note_on_c, 1, 74, 0
4, 195365, Note_on_c, 1, 78, 75
4, 195379, Note_on_c, 1, 81, 0
4, 195381, Note_on_c, 1, 75, 0
4, 195385, Note_on_c, 1, 74, 82
4, 195841, Note_on_c, 1, 72, 75
4, 195842, Note_on_c, 1, 76, 84
4, 195845, Note_on_c, 1, 78, 0
4, 195865, Note_on_c, 1, 74, 0
4, 196081, Note_on_c, 1, 72, 0
4, 196082, Note_on_c, 1, 76, 0
4, 196098, Note_on_c, 1, 73, 69
4, 196106, Note_on_c, 1, 67, 70
4, 196321, Note_on_c, 1, 74, 77
4, 196321, Note_on_c, 1, 78, 83
4, 196338, Note_on_c, 1, 73, 0
4, 196346, Note_on_c, 1, 67, 0
4, 196801, Note_on_c, 1, 74, 0
4, 196801, Note_on_c, 1, 78, 0
4, 196810, Note_on_c, 1, 81, 76
4, 196819, Note_on_c, 1, 75, 81
4, 197283, Note_on_c, 1, 74, 75
4, 197287, Note_on_c, 1, 78, 74
4, 197290, Note_on_c, 1, 81, 0
4, 197299, Note_on_c, 1, 75, 0
4, 197763, Note_on_c, 1, 74, 0
4, 197767, Note_on_c, 1, 78, 0
4, 197772, Note_on_c, 1, 72, 79
4, 197788, Note_on_c, 1, 76, 74
4, 198012, Note_on_c, 1, 72, 0
4, 198015, Note_on_c, 1, 78, 65
4, 198021, Note_on_c, 1, 74, 75
4, 198028, Note_on_c, 1, 76, 0
4, 198243, Note_on_c, 1, 72, 69
4, 198255, Note_on_c, 1, 78, 0
4, 198257, Note_on_c, 1, 76, 77
4, 198261, Note_on_c, 1, 74, 0
4, 198483, Note_on_c, 1, 72, 0
4, 198487, Note_on_c, 1, 71, 79
4, 198493, Note_on_c, 1, 75, 77
4, 198497, Note_on_c, 1, 76, 0
4, 198720, Note_on_c, 1, 73, 81
4, 198727, Note_on_c, 1, 71, 0
4, 198730, Note_on_c, 1, 67, 70
4, 198733, Note_on_c, 1, 75, 0
4, 199200, Note_on_c, 1, 73, 0
4, 199210, Note_on_c, 1, 67, 0
4, 199212, Note_on_c, 1, 64, 78
4, 199213, Note_on_c, 1, 71, 85
4, 199452, Note_on_c, 1, 64, 0
4, 199453, Note_on_c, 1, 71, 0
4, 199463, Note_on_c, 1, 73, 83
4, 199468, Note_on_c, 1, 69, 81
4, 199681, Note_on_c, 1, 75, 72
4, 199698, Note_on_c, 1, 71, 79
4, 199703, Note_on_c, 1, 73, 0
4, 199708, Note_on_c, 1, 69, 0
4, 200161, Note_on_c, 1, 75, 0
4, 200178, Note_on_c, 1, 71, 0
4, 208813, Note_on_c, 1, 75, 80
4, 208823, Note_on_c, 1, 71, 71
4, 208824, Note_on_c, 1, 68, 75
4, 208860, Note_on_c, 1, 75, 0
4, 208870, Note_on_c, 1, 71, 0
4, 208871, Note_on_c, 1, 68, 0
4, 208922, Note_on_c, 1, 69, 74
4, 208927, Note_on_c, 1, 72, 65
4, 208936, Note_on_c, 1, 76, 83
4, 208969, Note_on_c, 1, 69, 0
4, 208974, Note_on_c, 1, 72, 0
4, 208983, Note_on_c, 1, 76, 0
4, 209051, Note_on_c, 1, 73, 81
4, 209066, Note_on_c, 1, 70, 75
4, 209067, Note_on_c, 1, 77, 68
4, 209098, Note_on_c, 1, 73, 0
4, 209113, Note_on_c, 1, 70, 0
4, 209114, Note_on_c, 1, 77, 0
4, 209163, Note_on_c, 1, 75, 77
4, 209167, Note_on_c, 1, 78, 72
4, 209183, Note_on_c, 1, 69, 84
4, 209210, Note_on_c, 1, 75, 0
4, 209214, Note_on_c, 1, 78, 0
4, 209230, Note_on_c, 1, 69, 0
4, 209288, Note_on_c, 1, 79, 68
4, 209297, Note_on_c, 1, 68, 82
4, 209297, Note_on_c, 1, 74, 79
4, 209335, Note_on_c, 1, 79, 0
4, 209344, Note_on_c, 1, 68, 0
4, 209344, Note_on_c, 1, 74, 0
4, 210244, Note_on_c, 1, 78, 94
4, 210254, Note_on_c, 1, 79, 81
4, 210255, Note_on_c, 1, 85, 98
4, 210291, Note_on_c, 1, 78, 0
4, 210301, Note_on_c, 1, 79, 0
4, 210302, Note_on_c, 1, 85, 0
4, 216243, Note_on_c, 1, 79, 100
4, 216246, Note_on_c, 1, 73, 104
4, 216350, Note_on_c, 1, 79, 0
4, 216353, Note_on_c, 1, 73, 0
4, 216724, Note_on_c, 1, 79, 99
4, 216742, Note_on_c, 1, 85, 102
4, 216831, Note_on_c, 1, 79, 0
4, 216849, Note_on_c, 1, 85, 0
4, 217442, Note_on_c, 1, 72, 115
4, 217454, Note_on_c, 1, 79, 108
4, 217549, Note_on_c, 1, 72, 0
4, 217561, Note_on_c, 1, 79, 0
4, 217927, Note_on_c, 1, 85, 107
4, 217934, Note_on_c, 1, 79, 94
4, 218034, Note_on_c, 1, 85, 0
4, 218041, Note_on_c, 1, 79, 0
4, 218659, Note_on_c, 1, 73, 103
4, 218660, Note_on_c, 1, 79, 104
4, 218766, Note_on_c, 1, 73, 0
4, 218767, Note_on_c, 1, 79, 0
4, 219126, Note_on_c, 1, 79, 102
4, 219136, Note_on_c, 1, 73, 105
4, 219233, Note_on_c, 1, 79, 0
4, 219243, Note_on_c, 1, 73, 0
4, 219614, Note_on_c, 1, 79, 118
4, 219615, Note_on_c, 1, 73, 118
4, 219721, Note_on_c, 1, 79, 0
4, 219722, Note_on_c, 1, 73, 0
4, 220081, Note_on_c, 1, 79, 111
4, 220099, Note_on_c, 1, 73, 111
4, 220188, Note_on_c, 1, 79, 0
4, 220206, Note_on_c, 1, 73, 0
4, 220806, Note_on_c, 1, 79, 117
4, 220812, Note_on_c, 1, 73, 107
4, 220913, Note_on_c, 1, 79, 0
4, 220919, Note_on_c, 1, 73, 0
4, 221286, Note_on_c, 1, 85, 108
4, 221290, Note_on_c, 1, 79, 93
4, 221393, Note_on_c, 1, 85, 0
4, 221397, Note_on_c, 1, 79, 0
4, 222009, Note_on_c, 1, 73, 104
4, 222015, Note_on_c, 1, 79, 104
4, 222116, Note_on_c, 1, 73, 0
4, 222122, Note_on_c, 1, 79, 0
4, 222495, Note_on_c, 1, 79, 101
4, 222503, Note_on_c, 1, 72, 104
4, 222602, Note_on_c, 1, 79, 0
4, 222610, Note_on_c, 1, 72, 0
4, 222970, Note_on_c, 1, 85, 111
4, 222984, Note_on_c, 1, 79, 101
4, 223077, Note_on_c, 1, 85, 0
4, 223091, Note_on_c, 1, 79, 0
4, 223684, Note_on_c, 1, 73, 100
4, 223686, Note_on_c, 1, 79, 118
4, 223791, Note_on_c, 1, 73, 0
4, 223793, Note_on_c, 1, 79, 0
4, 224162, Note_on_c, 1, 85, 102
4, 224177, Note_on_c, 1, 79, 106
4, 224269, Note_on_c, 1, 85, 0
4, 224284, Note_on_c, 1, 79, 0
4, 224656, Note_on_c, 1, 67, 86
4, 224666, Note_on_c, 1, 72, 89
4, 224687, Note_on_c, 1, 67, 0
4, 224697, Note_on_c, 1, 72, 0
4, 224726, Note_on_c, 1, 68, 101
4, 224748, Note_on_c, 1, 73, 100
4, 224758, Note_on_c, 1, 68, 0
4, 224780, Note_on_c, 1, 73, 0
4, 224804, Note_on_c, 1, 74, 91
4, 224824, Note_on_c, 1, 69, 109
4, 224836, Note_on_c, 1, 74, 0
4, 224856, Note_on_c, 1, 69, 0
4, 224881, Note_on_c, 1, 70, 105
4, 224907, Note_on_c, 1, 75, 116
4, 224912, Note_on_c, 1, 70, 0
4, 224938, Note_on_c, 1, 75, 0
4, 224960, Note_on_c, 1, 76, 115
4, 224987, Note_on_c, 1, 72, 113
4, 224992, Note_on_c, 1, 76, 0
4, 225019, Note_on_c, 1, 72, 0
4, 225052, Note_on_c, 1, 77, 120
4, 225055, Note_on_c, 1, 72, 117
4, 225084, Note_on_c, 1, 77, 0
4, 225087, Note_on_c, 1, 72, 0
4, 225121, Note_on_c, 1, 73, 84
4, 225148, Note_on_c, 1, 78, 84
4, 225241, Note_on_c, 1, 73, 0
4, 225268, Note_on_c, 1, 78, 0
4, 228972, Note_on_c, 1, 73, 93
4, 229030, Note_on_c, 1, 78, 84
4, 229032, Note_on_c, 1, 73, 0
4, 229089, Note_on_c, 1, 73, 94
4, 229090, Note_on_c, 1, 78, 0
4, 229149, Note_on_c, 1, 73, 0
4, 229159, Note_on_c, 1, 78, 95
4, 229203, Note_on_c, 1, 73, 88
4, 229219, Note_on_c, 1, 78, 0
4, 229263, Note_on_c, 1, 73, 0
4, 229286, Note_on_c, 1, 78, 107
4, 229337, Note_on_c, 1, 73, 101
4, 229346, Note_on_c, 1, 78, 0
4, 229397, Note_on_c, 1, 73, 0
4, 229398, Note_on_c, 1, 78, 111
4, 229424, Note_on_c, 1, 78, 0
4, 229443, Note_on_c, 1, 78, 83
4, 229454, Note_on_c, 1, 73, 97
4, 229503, Note_on_c, 1, 78, 0
4, 229514, Note_on_c, 1, 73, 0
4, 229520, Note_on_c, 1, 84, 101
4, 229527, Note_on_c, 1, 78, 107
4, 229565, Note_on_c, 1, 78, 0
4, 229580, Note_on_c, 1, 84, 0
4, 229584, Note_on_c, 1, 78, 107
4, 229588, Note_on_c, 1, 73, 106
4, 229606, Note_on_c, 1, 78, 0
4, 229626, Note_on_c, 1, 78, 114
4, 229635, Note_on_c, 1, 84, 94
4, 229648, Note_on_c, 1, 73, 0
4, 229681, Note_on_c, 1, 78, 0
4, 229681, Note_on_c, 1, 73, 109
4, 229695, Note_on_c, 1, 84, 0
4, 229700, Note_on_c, 1, 78, 114
4, 229725, Note_on_c, 1, 78, 0
4, 229741, Note_on_c, 1, 73, 0
4, 229744, Note_on_c, 1, 78, 116
4, 229759, Note_on_c, 1, 84, 116
4, 229794, Note_on_c, 1, 78, 0
4, 229814, Note_on_c, 1, 78, 122
4, 229819, Note_on_c, 1, 84, 0
4, 229874, Note_on_c, 1, 78, 0
4, 229884, Note_on_c, 1, 84, 127
4, 229925, Note_on_c, 1, 78, 91
4, 229931, Note_on_c, 1, 73, 91
4, 229944, Note_on_c, 1, 84, 0
4, 230045, Note_on_c, 1, 78, 0
4, 230051, Note_on_c, 1, 73, 0
4, 233526, Note_on_c, 1, 73, 101
4, 233533, Note_on_c, 1, 79, 117
4, 233633, Note_on_c, 1, 73, 0
4, 233640, Note_on_c, 1, 79, 0
4, 234019, Note_on_c, 1, 85, 101
4, 234024, Note_on_c, 1, 79, 96
4, 234126, Note_on_c, 1, 85, 0
4, 234131, Note_on_c, 1, 79, 0
4, 234481, Note_on_c, 1, 67, 78
4, 234501, Note_on_c, 1, 72, 96
4, 234512, Note_on_c, 1, 67, 0
4, 234532, Note_on_c, 1, 72, 0
4, 234560, Note_on_c, 1, 73, 91
4, 234585, Note_on_c, 1, 68, 95
4, 234592, Note_on_c, 1, 73, 0
4, 234617, Note_on_c, 1, 68, 0
4, 234663, Note_on_c, 1, 74, 106
4, 234667, Note_on_c, 1, 69, 98
4, 234695, Note_on_c, 1, 74, 0
4, 234699, Note_on_c, 1, 69, 0
4, 234721, Note_on_c, 1, 75, 113
4, 234726, Note_on_c, 1, 70, 117
4, 234752, Note_on_c, 1, 75, 0
4, 234757, Note_on_c, 1, 70, 0
4, 234804, Note_on_c, 1, 72, 114
4, 234819, Note_on_c, 1, 76, 105
4, 234836, Note_on_c, 1, 72, 0
4, 234851, Note_on_c, 1, 76, 0
4, 234889, Note_on_c, 1, 77, 127
4, 234899, Note_on_c, 1, 72, 117
4, 234921, Note_on_c, 1, 77, 0
4, 234931, Note_on_c, 1, 72, 0
4, 234970, Note_on_c, 1, 78, 95
4, 234976, Note_on_c, 1, 73, 95
4, 235090, Note_on_c, 1, 78, 0
4, 235096, Note_on_c, 1, 73, 0
4, 238561, Note_on_c, 1, 84, 93
4, 238563, Note_on_c, 1, 78, 87
4, 238657, Note_on_c, 1, 84, 0
4, 238659, Note_on_c, 1, 78, 0
4, 239056, Note_on_c, 1, 82, 82
4, 239064, Note_on_c, 1, 77, 83
4, 239152, Note_on_c, 1, 82, 0
4, 239160, Note_on_c, 1, 77, 0
4, 239522, Note_on_c, 1, 80, 93
4, 239526, Note_on_c, 1, 74, 93
4, 239618, Note_on_c, 1, 80, 0
4, 239622, Note_on_c, 1, 74, 0
4, 240016, Note_on_c, 1, 79, 107
4, 240025, Note_on_c, 1, 72, 110
4, 240123, Note_on_c, 1, 79, 0
4, 240132, Note_on_c, 1, 72, 0
4, 240484, Note_on_c, 1, 79, 101
4, 240507, Note_on_c, 1, 85, 111
4, 240591, Note_on_c, 1, 79, 0
4, 240614, Note_on_c, 1, 85, 0
4, 241215, Note_on_c, 1, 84, 81
4, 241227, Note_on_c, 1, 79, 86
4, 241311, Note_on_c, 1, 84, 0
4, 241323, Note_on_c, 1, 79, 0
4, 241683, Note_on_c, 1, 82, 97
4, 241688, Note_on_c, 1, 76, 80
4, 241779, Note_on_c, 1, 82, 0
4, 241784, Note_on_c, 1, 76, 0
4, 242166, Note_on_c, 1, 80, 88
4, 242173, Note_on_c, 1, 75, 82
4, 242262, Note_on_c, 1, 80, 0
4, 242269, Note_on_c, 1, 75, 0
4, 242655, Note_on_c, 1, 79, 78
4, 242656, Note_on_c, 1, 73, 89
4, 242751, Note_on_c, 1, 79, 0
4, 242752, Note_on_c, 1, 73, 0
4, 243360, Note_on_c, 1, 79, 111
4, 243368, Note_on_c, 1, 72, 120
4, 243467, Note_on_c, 1, 79, 0
4, 243475, Note_on_c, 1, 72, 0
4, 243859, Note_on_c, 1, 85, 95
4, 243863, Note_on_c, 1, 79, 96
4, 243966, Note_on_c, 1, 85, 0
4, 243970, Note_on_c, 1, 79, 0
4, 244577, Note_on_c, 1, 79, 115
4, 244583, Note_on_c, 1, 72, 100
4, 244684, Note_on_c, 1, 79, 0
4, 244690, Note_on_c, 1, 72, 0
4, 245058, Note_on_c, 1, 79, 100
4, 245060, Note_on_c, 1, 85, 95
4, 245165, Note_on_c, 1, 79, 0
4, 245167, Note_on_c, 1, 85, 0
4, 245761, Note_on_c, 1, 79, 108
4, 245774, Note_on_c, 1, 73, 104
4, 245868, Note_on_c, 1, 79, 0
4, 245881, Note_on_c, 1, 73, 0
4, 246251, Note_on_c, 1, 79, 103
4, 246266, Note_on_c, 1, 72, 120
4, 246358, Note_on_c, 1, 79, 0
4, 246373, Note_on_c, 1, 72, 0
4, 246733, Note_on_c, 1, 85, 93
4, 246746, Note_on_c, 1, 79, 108
4, 246840, Note_on_c, 1, 85, 0
4, 246853, Note_on_c, 1, 79, 0
4, 247457, Note_on_c, 1, 72, 101
4, 247468, Note_on_c, 1, 79, 111
4, 247564, Note_on_c, 1, 72, 0
4, 247575, Note_on_c, 1, 79, 0
4, 247922, Note_on_c, 1, 79, 93
4, 247945, Note_on_c, 1, 85, 96
4, 248029, Note_on_c, 1, 79, 0
4, 248052, Note_on_c, 1, 85, 0
4, 249291, Note_on_c, 1, 78, 98
4, 249300, Note_on_c, 1, 82, 103
4, 249387, Note_on_c, 1, 78, 0
4, 249396, Note_on_c, 1, 82, 0
4, 249460, Note_on_c, 1, 73, 99
4, 249464, Note_on_c, 1, 84, 106
4, 249523, Note_on_c, 1, 73, 0
4, 249527, Note_on_c, 1, 84, 0
4, 249779, Note_on_c, 1, 78, 97
4, 249782, Note_on_c, 1, 82, 92
4, 249875, Note_on_c, 1, 78, 0
4, 249878, Note_on_c, 1, 82, 0
4, 249940, Note_on_c, 1, 80, 109
4, 249941, Note_on_c, 1, 69, 109
4, 250003, Note_on_c, 1, 80, 0
4, 250004, Note_on_c, 1, 69, 0
4, 250249, Note_on_c, 1, 75, 101
4, 250264, Note_on_c, 1, 77, 101
4, 250345, Note_on_c, 1, 75, 0
4, 250360, Note_on_c, 1, 77, 0
4, 250404, Note_on_c, 1, 72, 111
4, 250406, Note_on_c, 1, 80, 103
4, 250467, Note_on_c, 1, 72, 0
4, 250469, Note_on_c, 1, 80, 0
4, 251451, Note_on_c, 1, 78, 106
4, 251454, Note_on_c, 1, 82, 108
4, 251547, Note_on_c, 1, 78, 0
4, 251550, Note_on_c, 1, 82, 0
4, 251617, Note_on_c, 1, 73, 108
4, 251622, Note_on_c, 1, 84, 107
4, 251680, Note_on_c, 1, 73, 0
4, 251685, Note_on_c, 1, 84, 0
4, 251929, Note_on_c, 1, 78, 91
4, 251932, Note_on_c, 1, 82, 105
4, 252025, Note_on_c, 1, 78, 0
4, 252028, Note_on_c, 1, 82, 0
4, 252080, Note_on_c, 1, 70, 93
4, 252085, Note_on_c, 1, 80, 107
4, 252143, Note_on_c, 1, 70, 0
4, 252148, Note_on_c, 1, 80, 0
4, 252406, Note_on_c, 1, 75, 107
4, 252418, Note_on_c, 1, 78, 95
4, 252502, Note_on_c, 1, 75, 0
4, 252514, Note_on_c, 1, 78, 0
4, 252574, Note_on_c, 1, 72, 95
4, 252575, Note_on_c, 1, 80, 93
4, 252637, Note_on_c, 1, 72, 0
4, 252638, Note_on_c, 1, 80, 0
4, 252891, Note_on_c, 1, 78, 101
4, 252898, Note_on_c, 1, 75, 95
4, 252987, Note_on_c, 1, 78, 0
4, 252994, Note_on_c, 1, 75, 0
4, 253048, Note_on_c, 1, 80, 104
4, 253065, Note_on_c, 1, 69, 102
4, 253111, Note_on_c, 1, 80, 0
4, 253128, Note_on_c, 1, 69, 0
4, 254091, Note_on_c, 1, 78, 97
4, 254102, Note_on_c, 1, 82, 104
4, 254187, Note_on_c, 1, 78, 0
4, 254198, Note_on_c, 1, 82, 0
4, 254257, Note_on_c, 1, 73, 105
4, 254267, Note_on_c, 1, 84, 95
4, 254320, Note_on_c, 1, 73, 0
4, 254330, Note_on_c, 1, 84, 0
4, 254559, Note_on_c, 1, 82, 93
4, 254587, Note_on_c, 1, 78, 91
4, 254655, Note_on_c, 1, 82, 0
4, 254683, Note_on_c, 1, 78, 0
4, 254739, Note_on_c, 1, 70, 91
4, 254739, Note_on_c, 1, 80, 100
4, 254802, Note_on_c, 1, 70, 0
4, 254802, Note_on_c, 1, 80, 0
4, 255047, Note_on_c, 1, 75, 94
4, 255058, Note_on_c, 1, 78, 98
4, 255143, Note_on_c, 1, 75, 0
4, 255154, Note_on_c, 1, 78, 0
4, 255204, Note_on_c, 1, 80, 107
4, 255208, Note_on_c, 1, 72, 95
4, 255267, Note_on_c, 1, 80, 0
4, 255271, Note_on_c, 1, 72, 0
4, 255539, Note_on_c, 1, 78, 102
4, 255547, Note_on_c, 1, 82, 100
4, 255635, Note_on_c, 1, 78, 0
4, 255643, Note_on_c, 1, 82, 0
4, 255682, Note_on_c, 1, 84, 100
4, 255695, Note_on_c, 1, 73, 108
4, 255745, Note_on_c, 1, 84, 0
4, 255758, Note_on_c, 1, 73, 0
4, 255861, Note_on_c, 1, 78, 93
4, 255868, Note_on_c, 1, 82, 106
4, 255967, Note_on_c, 1, 80, 109
4, 255977, Note_on_c, 1, 69, 107
4, 255981, Note_on_c, 1, 78, 0
4, 255988, Note_on_c, 1, 82, 0
4, 256087, Note_on_c, 1, 80, 0
4, 256097, Note_on_c, 1, 69, 0
4, 256329, Note_on_c, 1, 78, 109
4, 256334, Note_on_c, 1, 75, 111
4, 256445, Note_on_c, 1, 72, 91
4, 256449, Note_on_c, 1, 78, 0
4, 256454, Note_on_c, 1, 75, 0
4, 256465, Note_on_c, 1, 80, 91
4, 256565, Note_on_c, 1, 72, 0
4, 256585, Note_on_c, 1, 80, 0
4, 259365, Note_on_c, 1, 82, 104
4, 259366, Note_on_c, 1, 78, 100
4, 259461, Note_on_c, 1, 82, 0
4, 259462, Note_on_c, 1, 78, 0
4, 259535, Note_on_c, 1, 73, 92
4, 259539, Note_on_c, 1, 84, 110
4, 259598, Note_on_c, 1, 73, 0
4, 259602, Note_on_c, 1, 84, 0
4, 259854, Note_on_c, 1, 82, 101
4, 259866, Note_on_c, 1, 78, 97
4, 259950, Note_on_c, 1, 82, 0
4, 259962, Note_on_c, 1, 78, 0
4, 260014, Note_on_c, 1, 69, 96
4, 260025, Note_on_c, 1, 80, 107
4, 260077, Note_on_c, 1, 69, 0
4, 260088, Note_on_c, 1, 80, 0
4, 260339, Note_on_c, 1, 78, 103
4, 260345, Note_on_c, 1, 75, 101
4, 260435, Note_on_c, 1, 78, 0
4, 260441, Note_on_c, 1, 75, 0
4, 260501, Note_on_c, 1, 80, 91
4, 260503, Note_on_c, 1, 72, 107
4, 260564, Note_on_c, 1, 80, 0
4, 260566, Note_on_c, 1, 72, 0
4, 260808, Note_on_c, 1, 82, 101
4, 260818, Note_on_c, 1, 78, 102
4, 260904, Note_on_c, 1, 82, 0
4, 260914, Note_on_c, 1, 78, 0
4, 260980, Note_on_c, 1, 84, 111
4, 260986, Note_on_c, 1, 73, 101
4, 261043, Note_on_c, 1, 84, 0
4, 261049, Note_on_c, 1, 73, 0
4, 261288, Note_on_c, 1, 78, 96
4, 261294, Note_on_c, 1, 82, 108
4, 261384, Note_on_c, 1, 78, 0
4, 261390, Note_on_c, 1, 82, 0
4, 261441, Note_on_c, 1, 80, 108
4, 261459, Note_on_c, 1, 70, 94
4, 261504, Note_on_c, 1, 80, 0
4, 261522, Note_on_c, 1, 70, 0
4, 261601, Note_on_c, 1, 78, 103
4, 261612, Note_on_c, 1, 75, 91
4, 261721, Note_on_c, 1, 78, 0
4, 261721, Note_on_c, 1, 72, 95
4, 261732, Note_on_c, 1, 75, 0
4, 261746, Note_on_c, 1, 80, 108
4, 261841, Note_on_c, 1, 72, 0
4, 261866, Note_on_c, 1, 80, 0
4, 262258, Note_on_c, 1, 78, 110
4, 262263, Note_on_c, 1, 82, 104
4, 262354, Note_on_c, 1, 78, 0
4, 262359, Note_on_c, 1, 82, 0
4, 262407, Note_on_c, 1, 73, 110
4, 262424, Note_on_c, 1, 84, 95
4, 262470, Note_on_c, 1, 73, 0
4, 262487, Note_on_c, 1, 84, 0
4, 262565, Note_on_c, 1, 78, 96
4, 262570, Note_on_c, 1, 82, 93
4, 262685, Note_on_c, 1, 78, 0
4, 262690, Note_on_c, 1, 82, 0
4, 262694, Note_on_c, 1, 69, 109
4, 262698, Note_on_c, 1, 80, 106
4, 262814, Note_on_c, 1, 69, 0
4, 262818, Note_on_c, 1, 80, 0
4, 263040, Note_on_c, 1, 75, 94
4, 263048, Note_on_c, 1, 78, 97
4, 263160, Note_on_c, 1, 75, 0
4, 263160, Note_on_c, 1, 72, 110
4, 263168, Note_on_c, 1, 78, 0
4, 263181, Note_on_c, 1, 80, 91
4, 263280, Note_on_c, 1, 72, 0
4, 263301, Note_on_c, 1, 80, 0
4, 277707, Note_on_c, 1, 82, 71
4, 277827, Note_on_c, 1, 82, 0
4, 278173, Note_on_c, 1, 84, 79
4, 278293, Note_on_c, 1, 84, 0
4, 278646, Note_on_c, 1, 85, 66
4, 278766, Note_on_c, 1, 85, 0
4, 279133, Note_on_c, 1, 82, 69
4, 279253, Note_on_c, 1, 82, 0
4, 279628, Note_on_c, 1, 85, 77
4, 279748, Note_on_c, 1, 85, 0
4, 279847, Note_on_c, 1, 75, 96
4, 279915, Note_on_c, 1, 75, 0
4, 279932, Note_on_c, 1, 77, 107
4, 279993, Note_on_c, 1, 78, 109
4, 280001, Note_on_c, 1, 77, 0
4, 280052, Note_on_c, 1, 80, 104
4, 280061, Note_on_c, 1, 78, 0
4, 280120, Note_on_c, 1, 80, 0
4, 280140, Note_on_c, 1, 82, 98
4, 280208, Note_on_c, 1, 82, 0
4, 280208, Note_on_c, 1, 84, 107
4, 280276, Note_on_c, 1, 85, 111
4, 280277, Note_on_c, 1, 84, 0
4, 280341, Note_on_c, 1, 87, 102
4, 280344, Note_on_c, 1, 85, 0
4, 280409, Note_on_c, 1, 87, 0
4, 280409, Note_on_c, 1, 85, 106
4, 280470, Note_on_c, 1, 84, 106
4, 280478, Note_on_c, 1, 85, 0
4, 280538, Note_on_c, 1, 84, 0
4, 280542, Note_on_c, 1, 82, 103
4, 280607, Note_on_c, 1, 80, 96
4, 280610, Note_on_c, 1, 82, 0
4, 280675, Note_on_c, 1, 80, 0
4, 280681, Note_on_c, 1, 78, 99
4, 280735, Note_on_c, 1, 77, 103
4, 280750, Note_on_c, 1, 78, 0
4, 280803, Note_on_c, 1, 77, 0
4, 280818, Note_on_c, 1, 75, 107
4, 280938, Note_on_c, 1, 75, 0
4, 281524, Note_on_c, 1, 82, 73
4, 281644, Note_on_c, 1, 82, 0
4, 282003, Note_on_c, 1, 84, 83
4, 282123, Note_on_c, 1, 84, 0
4, 282493, Note_on_c, 1, 85, 85
4, 282613, Note_on_c, 1, 85, 0
4, 282975, Note_on_c, 1, 82, 65
4, 283095, Note_on_c, 1, 82, 0
4, 283446, Note_on_c, 1, 85, 66
4, 283566, Note_on_c, 1, 85, 0
4, 283925, Note_on_c, 1, 84, 73
4, 284045, Note_on_c, 1, 84, 0
4, 284170, Note_on_c, 1, 75, 93
4, 284238, Note_on_c, 1, 75, 0
4, 284253, Note_on_c, 1, 77, 102
4, 284316, Note_on_c, 1, 78, 95
4, 284322, Note_on_c, 1, 77, 0
4, 284371, Note_on_c, 1, 80, 96
4, 284384, Note_on_c, 1, 78, 0
4, 284439, Note_on_c, 1, 80, 0
4, 284446, Note_on_c, 1, 82, 109
4, 284514, Note_on_c, 1, 82, 0
4, 284518, Note_on_c, 1, 84, 96
4, 284572, Note_on_c, 1, 85, 107
4, 284587, Note_on_c, 1, 84, 0
4, 284640, Note_on_c, 1, 85, 0
4, 284660, Note_on_c, 1, 87, 96
4, 284721, Note_on_c, 1, 85, 104
4, 284728, Note_on_c, 1, 87, 0
4, 284783, Note_on_c, 1, 84, 99
4, 284790, Note_on_c, 1, 85, 0
4, 284851, Note_on_c, 1, 84, 0
4, 284851, Note_on_c, 1, 82, 106
4, 284919, Note_on_c, 1, 82, 0
4, 284923, Note_on_c, 1, 80, 109
4, 284990, Note_on_c, 1, 78, 101
4, 284991, Note_on_c, 1, 80, 0
4, 285059, Note_on_c, 1, 78, 0
4, 285062, Note_on_c, 1, 77, 108
4, 285130, Note_on_c, 1, 77, 0
4, 285374, Note_on_c, 1, 82, 73
4, 285494, Note_on_c, 1, 82, 0
4, 285857, Note_on_c, 1, 84, 84
4, 285977, Note_on_c, 1, 84, 0
4, 286326, Note_on_c, 1, 85, 65
4, 286446, Note_on_c, 1, 85, 0
4, 286585, Note_on_c, 1, 75, 93
4, 286640, Note_on_c, 1, 77, 107
4, 286653, Note_on_c, 1, 75, 0
4, 286709, Note_on_c, 1, 77, 0
4, 286718, Note_on_c, 1, 78, 100
4, 286768, Note_on_c, 1, 80, 92
4, 286786, Note_on_c, 1, 78, 0
4, 286836, Note_on_c, 1, 80, 0
4, 286837, Note_on_c, 1, 82, 91
4, 286905, Note_on_c, 1, 82, 0
4, 286914, Note_on_c, 1, 84, 106
4, 286980, Note_on_c, 1, 85, 93
4, 286983, Note_on_c, 1, 84, 0
4, 287048, Note_on_c, 1, 85, 0
4, 287061, Note_on_c, 1, 87, 99
4, 287119, Note_on_c, 1, 85, 105
4, 287129, Note_on_c, 1, 87, 0
4, 287188, Note_on_c, 1, 85, 0
4, 287195, Note_on_c, 1, 84, 109
4, 287248, Note_on_c, 1, 82, 104
4, 287263, Note_on_c, 1, 84, 0
4, 287316, Note_on_c, 1, 82, 0
4, 287320, Note_on_c, 1, 80, 105
4, 287388, Note_on_c, 1, 80, 0
4, 287404, Note_on_c, 1, 78, 91
4, 287473, Note_on_c, 1, 78, 0
4, 287473, Note_on_c, 1, 77, 108
4, 287538, Note_on_c, 1, 75, 95
4, 287541, Note_on_c, 1, 77, 0
4, 287593, Note_on_c, 1, 77, 104
4, 287628, Note_on_c, 1, 75, 0
4, 287650, Note_on_c, 1, 75, 109
4, 287683, Note_on_c, 1, 77, 0
4, 287711, Note_on_c, 1, 77, 106
4, 287740, Note_on_c, 1, 75, 0
4, 287776, Note_on_c, 1, 75, 108
4, 287801, Note_on_c, 1, 77, 0
4, 287847, Note_on_c, 1, 77, 100
4, 287861, Note_on_c, 1, 75, 0
4, 287880, Note_on_c, 1, 75, 92
4, 287937, Note_on_c, 1, 77, 0
4, 287961, Note_on_c, 1, 77, 93
4, 287970, Note_on_c, 1, 75, 0
4, 288004, Note_on_c, 1, 75, 101
4, 288021, Note_on_c, 1, 77, 0
4, 288124, Note_on_c, 1, 75, 0
4, 288265, Note_on_c, 1, 80, 94
4, 288385, Note_on_c, 1, 80, 0
4, 288503, Note_on_c, 1, 79, 106
4, 288623, Note_on_c, 1, 79, 0
4, 288740, Note_on_c, 1, 78, 102
4, 288860, Note_on_c, 1, 78, 0
4, 288974, Note_on_c, 1, 77, 92
4, 289094, Note_on_c, 1, 77, 0
4, 289205, Note_on_c, 1, 76, 100
4, 289445, Note_on_c, 1, 76, 0
4, 290880, Note_on_c, 1, 79, 115
4, 290890, Note_on_c, 1, 73, 105
4, 290987, Note_on_c, 1, 79, 0
4, 290997, Note_on_c, 1, 73, 0
4, 291365, Note_on_c, 1, 79, 91
4, 291372, Note_on_c, 1, 85, 97
4, 291472, Note_on_c, 1, 79, 0
4, 291479, Note_on_c, 1, 85, 0
4, 292086, Note_on_c, 1, 72, 109
4, 292096, Note_on_c, 1, 79, 118
4, 292193, Note_on_c, 1, 72, 0
4, 292203, Note_on_c, 1, 79, 0
4, 292561, Note_on_c, 1, 79, 99
4, 292574, Note_on_c, 1, 85, 99
4, 292668, Note_on_c, 1, 79, 0
4, 292681, Note_on_c, 1, 85, 0
4, 293287, Note_on_c, 1, 73, 119
4, 293289, Note_on_c, 1, 79, 106
4, 293394, Note_on_c, 1, 73, 0
4, 293396, Note_on_c, 1, 79, 0
4, 293760, Note_on_c, 1, 73, 107
4, 293769, Note_on_c, 1, 79, 116
4, 293867, Note_on_c, 1, 73, 0
4, 293876, Note_on_c, 1, 79, 0
4, 294242, Note_on_c, 1, 73, 106
4, 294253, Note_on_c, 1, 79, 107
4, 294349, Note_on_c, 1, 73, 0
4, 294360, Note_on_c, 1, 79, 0
4, 294722, Note_on_c, 1, 73, 114
4, 294738, Note_on_c, 1, 79, 111
4, 294829, Note_on_c, 1, 73, 0
4, 294845, Note_on_c, 1, 79, 0
4, 295448, Note_on_c, 1, 73, 111
4, 295457, Note_on_c, 1, 79, 111
4, 295555, Note_on_c, 1, 73, 0
4, 295564, Note_on_c, 1, 79, 0
4, 295925, Note_on_c, 1, 79, 92
4, 295929, Note_on_c, 1, 85, 98
4, 296032, Note_on_c, 1, 79, 0
4, 296036, Note_on_c, 1, 85, 0
4, 296648, Note_on_c, 1, 73, 109
4, 296655, Note_on_c, 1, 79, 120
4, 296755, Note_on_c, 1, 73, 0
4, 296762, Note_on_c, 1, 79, 0
4, 297121, Note_on_c, 1, 72, 106
4, 297136, Note_on_c, 1, 79, 102
4, 297228, Note_on_c, 1, 72, 0
4, 297243, Note_on_c, 1, 79, 0
4, 297617, Note_on_c, 1, 79, 96
4, 297621, Note_on_c, 1, 85, 105
4, 297724, Note_on_c, 1, 79, 0
4, 297728, Note_on_c, 1, 85, 0
4, 298326, Note_on_c, 1, 72, 110
4, 298327, Note_on_c, 1, 79, 116
4, 298433, Note_on_c, 1, 72, 0
4, 298434, Note_on_c, 1, 79, 0
4, 298825, Note_on_c, 1, 79, 109
4, 298829, Note_on_c, 1, 85, 108
4, 298932, Note_on_c, 1, 79, 0
4, 298936, Note_on_c, 1, 85, 0
4, 299530, Note_on_c, 1, 78, 83
4, 299536, Note_on_c, 1, 84, 84
4, 299626, Note_on_c, 1, 78, 0
4, 299632, Note_on_c, 1, 84, 0
4, 300002, Note_on_c, 1, 77, 90
4, 300024, Note_on_c, 1, 82, 85
4, 300098, Note_on_c, 1, 77, 0
4, 300120, Note_on_c, 1, 82, 0
4, 300503, Note_on_c, 1, 80, 92
4, 300506, Note_on_c, 1, 74, 81
4, 300599, Note_on_c, 1, 80, 0
4, 300602, Note_on_c, 1, 74, 0
4, 300964, Note_on_c, 1, 79, 103
4, 300985, Note_on_c, 1, 72, 116
4, 301071, Note_on_c, 1, 79, 0
4, 301092, Note_on_c, 1, 72, 0
4, 301442, Note_on_c, 1, 85, 98
4, 301452, Note_on_c, 1, 79, 102
4, 301549, Note_on_c, 1, 85, 0
4, 301559, Note_on_c, 1, 79, 0
4, 302170, Note_on_c, 1, 84, 86
4, 302188, Note_on_c, 1, 79, 98
4, 302266, Note_on_c, 1, 84, 0
4, 302284, Note_on_c, 1, 79, 0
4, 302646, Note_on_c, 1, 76, 86
4, 302667, Note_on_c, 1, 82, 94
4, 302742, Note_on_c, 1, 76, 0
4, 302763, Note_on_c, 1, 82, 0
4, 303124, Note_on_c, 1, 75, 93
4, 303137, Note_on_c, 1, 80, 96
4, 303220, Note_on_c, 1, 75, 0
4, 303233, Note_on_c, 1, 80, 0
4, 303606, Note_on_c, 1, 79, 81
4, 303624, Note_on_c, 1, 73, 91
4, 303702, Note_on_c, 1, 79, 0
4, 303720, Note_on_c, 1, 73, 0
4, 304326, Note_on_c, 1, 72, 106
4, 304339, Note_on_c, 1, 79, 100
4, 304433, Note_on_c, 1, 72, 0
4, 304446, Note_on_c, 1, 79, 0
4, 304800, Note_on_c, 1, 79, 99
4, 304825, Note_on_c, 1, 85, 104
4, 304907, Note_on_c, 1, 79, 0
4, 304932, Note_on_c, 1, 85, 0
4, 305527, Note_on_c, 1, 72, 106
4, 305541, Note_on_c, 1, 79, 102
4, 305634, Note_on_c, 1, 72, 0
4, 305648, Note_on_c, 1, 79, 0
4, 306000, Note_on_c, 1, 79, 102
4, 306027, Note_on_c, 1, 85, 109
4, 306107, Note_on_c, 1, 79, 0
4, 306134, Note_on_c, 1, 85, 0
4, 306726, Note_on_c, 1, 79, 117
4, 306729, Note_on_c, 1, 73, 110
4, 306833, Note_on_c, 1, 79, 0
4, 306836, Note_on_c, 1, 73, 0
4, 307212, Note_on_c, 1, 72, 109
4, 307226, Note_on_c, 1, 79, 104
4, 307319, Note_on_c, 1, 72, 0
4, 307333, Note_on_c, 1, 79, 0
4, 307682, Note_on_c, 1, 79, 92
4, 307706, Note_on_c, 1, 85, 99
4, 307789, Note_on_c, 1, 79, 0
4, 307813, Note_on_c, 1, 85, 0
4, 308410, Note_on_c, 1, 79, 110
4, 308423, Note_on_c, 1, 72, 113
4, 308517, Note_on_c, 1, 79, 0
4, 308530, Note_on_c, 1, 72, 0
4, 308904, Note_on_c, 1, 79, 111
4, 308904, Note_on_c, 1, 85, 107
4, 309011, Note_on_c, 1, 79, 0
4, 309011, Note_on_c, 1, 85, 0
4, 318005, Note_on_c, 1, 79, 102
4, 318010, Note_on_c, 1, 84, 109
4, 318845, Note_on_c, 1, 79, 0
4, 318850, Note_on_c, 1, 84, 0
4, 318974, Note_on_c, 1, 79, 95
4, 318988, Note_on_c, 1, 84, 95
4, 319334, Note_on_c, 1, 79, 0
4, 319348, Note_on_c, 1, 84, 0
4, 319455, Note_on_c, 1, 79, 92
4, 319464, Note_on_c, 1, 84, 107
4, 319815, Note_on_c, 1, 79, 0
4, 319824, Note_on_c, 1, 84, 0
4, 319928, Note_on_c, 1, 82, 100
4, 319948, Note_on_c, 1, 86, 100
4, 320288, Note_on_c, 1, 82, 0
4, 320308, Note_on_c, 1, 86, 0
4, 320408, Note_on_c, 1, 84, 97
4, 320415, Note_on_c, 1, 79, 108
4, 320768, Note_on_c, 1, 84, 0
4, 320775, Note_on_c, 1, 79, 0
4, 320884, Note_on_c, 1, 86, 91
4, 320908, Note_on_c, 1, 82, 106
4, 321244, Note_on_c, 1, 86, 0
4, 321268, Note_on_c, 1, 82, 0
4, 321378, Note_on_c, 1, 84, 106
4, 321382, Note_on_c, 1, 79, 111
4, 322218, Note_on_c, 1, 84, 0
4, 322222, Note_on_c, 1, 79, 0
4, 322328, Note_on_c, 1, 79, 101
4, 322334, Note_on_c, 1, 84, 100
4, 322688, Note_on_c, 1, 79, 0
4, 322694, Note_on_c, 1, 84, 0
4, 322800, Note_on_c, 1, 84, 102
4, 322816, Note_on_c, 1, 79, 99
4, 323160, Note_on_c, 1, 84, 0
4, 323176, Note_on_c, 1, 79, 0
4, 323289, Note_on_c, 1, 86, 109
4, 323297, Note_on_c, 1, 82, 99
4, 323649, Note_on_c, 1, 86, 0
4, 323657, Note_on_c, 1, 82, 0
4, 323762, Note_on_c, 1, 84, 93
4, 323775, Note_on_c, 1, 79, 104
4, 324122, Note_on_c, 1, 84, 0
4, 324135, Note_on_c, 1, 79, 0
4, 340585, Note_on_c, 1, 84, 104
4, 340587, Note_on_c, 1, 79, 94
4, 340945, Note_on_c, 1, 84, 0
4, 340947, Note_on_c, 1, 79, 0
4, 341048, Note_on_c, 1, 79, 103
4, 341065, Note_on_c, 1, 84, 104
4, 341408, Note_on_c, 1, 79, 0
4, 341425, Note_on_c, 1, 84, 0
4, 341529, Note_on_c, 1, 86, 105
4, 341530, Note_on_c, 1, 82, 110
4, 341889, Note_on_c, 1, 86, 0
4, 341890, Note_on_c, 1, 82, 0
4, 342002, Note_on_c, 1, 84, 102
4, 342006, Note_on_c, 1, 79, 104
4, 342362, Note_on_c, 1, 84, 0
4, 342366, Note_on_c, 1, 79, 0
4, 342501, Note_on_c, 1, 82, 99
4, 342507, Note_on_c, 1, 86, 105
4, 342861, Note_on_c, 1, 82, 0
4, 342867, Note_on_c, 1, 86, 0
4, 342976, Note_on_c, 1, 79, 91
4, 342985, Note_on_c, 1, 84, 97
4, 343336, Note_on_c, 1, 79, 0
4, 343345, Note_on_c, 1, 84, 0
4, 343937, Note_on_c, 1, 84, 97
4, 343942, Note_on_c, 1, 79, 94
4, 344297, Note_on_c, 1, 84, 0
4, 344302, Note_on_c, 1, 79, 0
4, 344400, Note_on_c, 1, 79, 95
4, 344413, Note_on_c, 1, 84, 100
4, 344760, Note_on_c, 1, 79, 0
4, 344773, Note_on_c, 1, 84, 0
4, 344892, Note_on_c, 1, 82, 111
4, 344897, Note_on_c, 1, 86, 108
4, 345252, Note_on_c, 1, 82, 0
4, 345257, Note_on_c, 1, 86, 0
4, 345361, Note_on_c, 1, 84, 110
4, 345385, Note_on_c, 1, 79, 92
4, 345721, Note_on_c, 1, 84, 0
4, 345745, Note_on_c, 1, 79, 0
4, 345845, Note_on_c, 1, 82, 98
4, 345846, Note_on_c, 1, 86, 91
4, 346205, Note_on_c, 1, 82, 0
4, 346206, Note_on_c, 1, 86, 0
4, 346321, Note_on_c, 1, 84, 91
4, 346328, Note_on_c, 1, 79, 105
4, 346681, Note_on_c, 1, 84, 0
4, 346688, Note_on_c, 1, 79, 0
4, 346819, Note_on_c, 1, 82, 92
4, 346823, Note_on_c, 1, 87, 97
4, 347179, Note_on_c, 1, 82, 0
4, 347183, Note_on_c, 1, 87, 0
4, 347284, Note_on_c, 1, 82, 92
4, 347294, Note_on_c, 1, 86, 106
4, 347644, Note_on_c, 1, 82, 0
4, 347654, Note_on_c, 1, 86, 0
4, 347764, Note_on_c, 1, 79, 96
4, 347778, Note_on_c, 1, 84, 107
4, 348604, Note_on_c, 1, 79, 0
4, 348618, Note_on_c, 1, 84, 0
4, 348734, Note_on_c, 1, 84, 92
4, 348747, Note_on_c, 1, 79, 91
4, 349094, Note_on_c, 1, 84, 0
4, 349107, Note_on_c, 1, 79, 0
4, 349208, Note_on_c, 1, 84, 96
4, 349227, Note_on_c, 1, 79, 109
4, 349568, Note_on_c, 1, 84, 0
4, 349587, Note_on_c, 1, 79, 0
4, 349684, Note_on_c, 1, 79, 97
4, 349686, Note_on_c, 1, 88, 99
4, 350044, Note_on_c, 1, 79, 0
4, 350046, Note_on_c, 1, 88, 0
4, 350181, Note_on_c, 1, 86, 92
4, 350182, Note_on_c, 1, 90, 101
4, 350541, Note_on_c, 1, 86, 0
4, 350542, Note_on_c, 1, 90, 0
4, 350653, Note_on_c, 1, 88, 96
4, 350654, Note_on_c, 1, 81, 96
4, 351013, Note_on_c, 1, 88, 0
4, 351014, Note_on_c, 1, 81, 0
4, 351145, Note_on_c, 1, 84, 101
4, 351145, Note_on_c, 1, 79, 101
4, 351505, Note_on_c, 1, 84, 0
4, 351505, Note_on_c, 1, 79, 0
4, 383283, Note_on_c, 1, 79, 95
4, 383298, Note_on_c, 1, 84, 97
4, 383523, Note_on_c, 1, 79, 0
4, 383538, Note_on_c, 1, 84, 0
4, 383765, Note_on_c, 1, 79, 100
4, 383767, Note_on_c, 1, 84, 109
4, 384005, Note_on_c, 1, 79, 0
4, 384007, Note_on_c, 1, 84, 0
4, 384245, Note_on_c, 1, 86, 93
4, 384256, Note_on_c, 1, 82, 105
4, 384485, Note_on_c, 1, 86, 0
4, 384496, Note_on_c, 1, 82, 0
4, 384746, Note_on_c, 1, 79, 100
4, 384748, Note_on_c, 1, 84, 97
4, 384986, Note_on_c, 1, 79, 0
4, 384988, Note_on_c, 1, 84, 0
4, 385209, Note_on_c, 1, 86, 110
4, 385209, Note_on_c, 1, 82, 95
4, 385449, Note_on_c, 1, 86, 0
4, 385449, Note_on_c, 1, 82, 0
4, 385706, Note_on_c, 1, 79, 100
4, 385708, Note_on_c, 1, 84, 102
4, 385946, Note_on_c, 1, 79, 0
4, 385948, Note_on_c, 1, 84, 0
4, 438009, Note_on_c, 1, 85, 80
4, 438369, Note_on_c, 1, 85, 0
4, 438481, Note_on_c, 1, 83, 91
4, 438661, Note_on_c, 1, 83, 0
4, 438742, Note_on_c, 1, 85, 89
4, 438802, Note_on_c, 1, 85, 0
4, 438866, Note_on_c, 1, 83, 92
4, 438926, Note_on_c, 1, 83, 0
4, 438986, Note_on_c, 1, 82, 96
4, 439346, Note_on_c, 1, 82, 0
4, 439442, Note_on_c, 1, 80, 78
4, 439802, Note_on_c, 1, 80, 0
4, 439927, Note_on_c, 1, 80, 97
4, 440107, Note_on_c, 1, 80, 0
4, 440163, Note_on_c, 1, 83, 82
4, 440343, Note_on_c, 1, 83, 0
4, 440424, Note_on_c, 1, 85, 89
4, 440604, Note_on_c, 1, 85, 0
4, 440646, Note_on_c, 1, 82, 83
4, 440826, Note_on_c, 1, 82, 0
4, 440881, Note_on_c, 1, 80, 88
4, 441061, Note_on_c, 1, 80, 0
4, 441143, Note_on_c, 1, 85, 87
4, 441323, Note_on_c, 1, 85, 0
4, 441365, Note_on_c, 1, 83, 91
4, 441545, Note_on_c, 1, 83, 0
4, 441615, Note_on_c, 1, 85, 84
4, 441675, Note_on_c, 1, 85, 0
4, 441735, Note_on_c, 1, 83, 80
4, 441795, Note_on_c, 1, 83, 0
4, 441851, Note_on_c, 1, 82, 79
4, 442211, Note_on_c, 1, 82, 0
4, 442340, Note_on_c, 1, 80, 83
4, 442520, Note_on_c, 1, 80, 0
4, 442579, Note_on_c, 1, 83, 95
4, 442759, Note_on_c, 1, 83, 0
4, 442822, Note_on_c, 1, 85, 98
4, 443002, Note_on_c, 1, 85, 0
4, 443053, Note_on_c, 1, 82, 94
4, 443233, Note_on_c, 1, 82, 0
4, 443293, Note_on_c, 1, 80, 93
4, 443653, Note_on_c, 1, 80, 0
4, 443782, Note_on_c, 1, 70, 78
4, 443783, Note_on_c, 1, 78, 98
4, 443902, Note_on_c, 1, 70, 0
4, 443903, Note_on_c, 1, 78, 0
4, 446174, Note_on_c, 1, 61, 62
4, 446354, Note_on_c, 1, 61, 0
4, 446411, Note_on_c, 1, 77, 57
4, 446591, Note_on_c, 1, 77, 0
4, 446664, Note_on_c, 1, 76, 76
4, 446763, Note_on_c, 1, 76, 0
4, 446804, Note_on_c, 1, 73, 73
4, 446904, Note_on_c, 1, 73, 0
4, 446974, Note_on_c, 1, 71, 87
4, 447074, Note_on_c, 1, 71, 0
4, 447143, Note_on_c, 1, 66, 90
4, 447383, Note_on_c, 1, 66, 0
4, 447629, Note_on_c, 1, 69, 91
4, 447911, Note_on_c, 1, 68, 81
4, 447929, Note_on_c, 1, 69, 0
4, 447964, Note_on_c, 1, 67, 80
4, 447971, Note_on_c, 1, 68, 0
4, 448024, Note_on_c, 1, 67, 0
4, 448043, Note_on_c, 1, 66, 63
4, 448099, Note_on_c, 1, 65, 66
4, 448103, Note_on_c, 1, 66, 0
4, 448219, Note_on_c, 1, 65, 0
4, 450971, Note_on_c, 1, 68, 39
4, 450988, Note_on_c, 1, 64, 41
4, 451211, Note_on_c, 1, 68, 0
4, 451217, Note_on_c, 1, 66, 46
4, 451226, Note_on_c, 1, 70, 45
4, 451228, Note_on_c, 1, 64, 0
4, 451440, Note_on_c, 1, 71, 63
4, 451454, Note_on_c, 1, 67, 57
4, 451457, Note_on_c, 1, 66, 0
4, 451466, Note_on_c, 1, 70, 0
4, 451680, Note_on_c, 1, 71, 0
4, 451687, Note_on_c, 1, 64, 82
4, 451693, Note_on_c, 1, 72, 88
4, 451694, Note_on_c, 1, 67, 0
4, 451807, Note_on_c, 1, 64, 0
4, 451813, Note_on_c, 1, 72, 0
4, 453841, Note_on_c, 1, 69, 52
4, 453852, Note_on_c, 1, 61, 44
4, 454081, Note_on_c, 1, 69, 0
4, 454092, Note_on_c, 1, 61, 0
4, 454095, Note_on_c, 1, 70, 56
4, 454096, Note_on_c, 1, 66, 50
4, 454329, Note_on_c, 1, 67, 61
4, 454335, Note_on_c, 1, 70, 0
4, 454336, Note_on_c, 1, 66, 0
4, 454344, Note_on_c, 1, 71, 65
4, 454560, Note_on_c, 1, 64, 75
4, 454563, Note_on_c, 1, 72, 83
4, 454569, Note_on_c, 1, 67, 0
4, 454584, Note_on_c, 1, 71, 0
4, 454680, Note_on_c, 1, 64, 0
4, 454683, Note_on_c, 1, 72, 0
4, 455779, Note_on_c, 1, 61, 53
4, 455785, Note_on_c, 1, 69, 40
4, 456014, Note_on_c, 1, 66, 51
4, 456019, Note_on_c, 1, 61, 0
4, 456022, Note_on_c, 1, 70, 55
4, 456025, Note_on_c, 1, 69, 0
4, 456246, Note_on_c, 1, 71, 65
4, 456254, Note_on_c, 1, 66, 0
4, 456262, Note_on_c, 1, 70, 0
4, 456267, Note_on_c, 1, 67, 69
4, 456486, Note_on_c, 1, 71, 0
4, 456495, Note_on_c, 1, 72, 86
4, 456499, Note_on_c, 1, 64, 77
4, 456507, Note_on_c, 1, 67, 0
4, 456615, Note_on_c, 1, 72, 0
4, 456619, Note_on_c, 1, 64, 0
4, 456739, Note_on_c, 1, 64, 44
4, 456741, Note_on_c, 1, 68, 46
4, 456969, Note_on_c, 1, 70, 48
4, 456979, Note_on_c, 1, 64, 0
4, 456981, Note_on_c, 1, 68, 0
4, 456982, Note_on_c, 1, 66, 56
4, 457209, Note_on_c, 1, 70, 0
4, 457217, Note_on_c, 1, 67, 51
4, 457222, Note_on_c, 1, 66, 0
4, 457228, Note_on_c, 1, 71, 58
4, 457447, Note_on_c, 1, 74, 58
4, 457457, Note_on_c, 1, 67, 0
4, 457468, Note_on_c, 1, 71, 0
4, 457468, Note_on_c, 1, 66, 57
4, 457567, Note_on_c, 1, 74, 0
4, 457588, Note_on_c, 1, 66, 0
4, 457684, Note_on_c, 1, 70, 39
4, 457699, Note_on_c, 1, 73, 40
4, 465379, Note_on_c, 1, 73, 0
4, 465384, Note_on_c, 1, 74, 46
4, 467284, Note_on_c, 1, 70, 0
4, 467304, Note_on_c, 1, 74, 0
4, 490800, Control_c, 1, 11, 127
4, 490800, Control_c, 1, 7, 75
4, 491282, Note_on_c, 1, 72, 110
4, 491294, Note_on_c, 1, 74, 103
4, 491335, Note_on_c, 1, 72, 0
4, 491347, Note_on_c, 1, 74, 0
4, 491534, Note_on_c, 1, 74, 108
4, 491540, Note_on_c, 1, 72, 107
4, 491641, Note_on_c, 1, 74, 0
4, 491647, Note_on_c, 1, 72, 0
4, 491883, Note_on_c, 1, 74, 91
4, 491904, Note_on_c, 1, 72, 97
4, 492228, Note_on_c, 1, 72, 0
4, 492243, Note_on_c, 1, 74, 0
4, 492248, Note_on_c, 1, 72, 94
4, 492258, Note_on_c, 1, 76, 103
4, 492272, Note_on_c, 1, 72, 0
4, 492282, Note_on_c, 1, 76, 0
4, 492369, Note_on_c, 1, 73, 106
4, 492386, Note_on_c, 1, 71, 104
4, 492422, Note_on_c, 1, 73, 0
4, 492439, Note_on_c, 1, 71, 0
4, 492483, Note_on_c, 1, 69, 100
4, 492505, Note_on_c, 1, 72, 92
4, 492536, Note_on_c, 1, 69, 0
4, 492558, Note_on_c, 1, 72, 0
4, 492730, Note_on_c, 1, 72, 109
4, 492739, Note_on_c, 1, 74, 106
4, 492783, Note_on_c, 1, 72, 0
4, 492792, Note_on_c, 1, 74, 0
4, 492970, Note_on_c, 1, 72, 99
4, 492976, Note_on_c, 1, 74, 110
4, 493077, Note_on_c, 1, 72, 0
4, 493083, Note_on_c, 1, 74, 0
4, 493327, Note_on_c, 1, 74, 95
4, 493336, Note_on_c, 1, 72, 110
4, 493684, Note_on_c, 1, 72, 0
4, 493687, Note_on_c, 1, 74, 0
4, 493695, Note_on_c, 1, 76, 110
4, 493703, Note_on_c, 1, 72, 94
4, 493748, Note_on_c, 1, 76, 0
4, 493756, Note_on_c, 1, 72, 0
4, 493806, Note_on_c, 1, 73, 110
4, 493815, Note_on_c, 1, 71, 101
4, 493859, Note_on_c, 1, 73, 0
4, 493868, Note_on_c, 1, 71, 0
4, 493928, Note_on_c, 1, 69, 102
4, 493929, Note_on_c, 1, 72, 92
4, 493981, Note_on_c, 1, 69, 0
4, 493982, Note_on_c, 1, 72, 0
4, 494172, Note_on_c, 1, 74, 109
4, 494175, Note_on_c, 1, 72, 102
4, 494279, Note_on_c, 1, 74, 0
4, 494282, Note_on_c, 1, 72, 0
4, 494525, Note_on_c, 1, 78, 100
4, 494548, Note_on_c, 1, 75, 107
4, 494668, Note_on_c, 1, 78, 0
4, 494691, Note_on_c, 1, 75, 0
4, 494764, Note_on_c, 1, 78, 98
4, 494768, Note_on_c, 1, 82, 110
4, 494907, Note_on_c, 1, 78, 0
4, 494911, Note_on_c, 1, 82, 0
4, 495000, Note_on_c, 1, 87, 105
4, 495027, Note_on_c, 1, 82, 98
4, 495060, Note_on_c, 1, 87, 0
4, 495087, Note_on_c, 1, 82, 0
4, 495123, Note_on_c, 1, 87, 104
4, 495128, Note_on_c, 1, 90, 110
4, 495195, Note_on_c, 1, 87, 0
4, 495200, Note_on_c, 1, 90, 0
4, 495255, Note_on_c, 1, 82, 107
4, 495255, Note_on_c, 1, 87, 107
4, 495315, Note_on_c, 1, 82, 0
4, 495315, Note_on_c, 1, 87, 0
4, 495481, Note_on_c, 1, 74, 93
4, 495495, Note_on_c, 1, 72, 95
4, 495534, Note_on_c, 1, 74, 0
4, 495548, Note_on_c, 1, 72, 0
4, 495724, Note_on_c, 1, 72, 100
4, 495749, Note_on_c, 1, 74, 96
4, 495777, Note_on_c, 1, 72, 0
4, 495802, Note_on_c, 1, 74, 0
4, 495962, Note_on_c, 1, 74, 103
4, 495981, Note_on_c, 1, 72, 101
4, 496302, Note_on_c, 1, 72, 0
4, 496322, Note_on_c, 1, 74, 0
4, 496322, Note_on_c, 1, 72, 95
4, 496346, Note_on_c, 1, 76, 102
4, 496375, Note_on_c, 1, 72, 0
4, 496399, Note_on_c, 1, 76, 0
4, 496448, Note_on_c, 1, 73, 105
4, 496453, Note_on_c, 1, 71, 98
4, 496501, Note_on_c, 1, 73, 0
4, 496506, Note_on_c, 1, 71, 0
4, 496561, Note_on_c, 1, 72, 99
4, 496567, Note_on_c, 1, 69, 101
4, 496614, Note_on_c, 1, 72, 0
4, 496620, Note_on_c, 1, 69, 0
4, 496683, Note_on_c, 1, 75, 111
4, 496697, Note_on_c, 1, 78, 100
4, 496755, Note_on_c, 1, 75, 0
4, 496769, Note_on_c, 1, 78, 0
4, 496812, Note_on_c, 1, 78, 93
4, 496820, Note_on_c, 1, 82, 108
4, 496884, Note_on_c, 1, 78, 0
4, 496892, Note_on_c, 1, 82, 0
4, 496929, Note_on_c, 1, 87, 108
4, 496948, Note_on_c, 1, 82, 111
4, 497001, Note_on_c, 1, 87, 0
4, 497020, Note_on_c, 1, 82, 0
4, 497053, Note_on_c, 1, 87, 110
4, 497067, Note_on_c, 1, 90, 93
4, 497125, Note_on_c, 1, 87, 0
4, 497139, Note_on_c, 1, 90, 0
4, 497165, Note_on_c, 1, 82, 105
4, 497175, Note_on_c, 1, 87, 95
4, 497212, Note_on_c, 1, 82, 0
4, 497222, Note_on_c, 1, 87, 0
4, 497281, Note_on_c, 1, 74, 110
4, 497304, Note_on_c, 1, 72, 99
4, 497424, Note_on_c, 1, 74, 0
4, 497447, Note_on_c, 1, 72, 0
4, 497544, Note_on_c, 1, 72, 94
4, 497546, Note_on_c, 1, 74, 97
4, 497687, Note_on_c, 1, 72, 0
4, 497689, Note_on_c, 1, 74, 0
4, 497767, Note_on_c, 1, 72, 105
4, 497786, Note_on_c, 1, 74, 94
4, 497814, Note_on_c, 1, 72, 0
4, 497833, Note_on_c, 1, 74, 0
4, 498007, Note_on_c, 1, 74, 93
4, 498019, Note_on_c, 1, 72, 97
4, 498060, Note_on_c, 1, 74, 0
4, 498072, Note_on_c, 1, 72, 0
4, 498247, Note_on_c, 1, 74, 99
4, 498249, Note_on_c, 1, 72, 108
4, 498300, Note_on_c, 1, 74, 0
4, 498302, Note_on_c, 1, 72, 0
4, 498486, Note_on_c, 1, 72, 103
4, 498491, Note_on_c, 1, 74, 106
4, 498825, Note_on_c, 1, 72, 0
4, 498845, Note_on_c, 1, 72, 105
4, 498851, Note_on_c, 1, 74, 0
4, 498858, Note_on_c, 1, 76, 96
4, 498898, Note_on_c, 1, 72, 0
4, 498911, Note_on_c, 1, 76, 0
4, 498977, Note_on_c, 1, 71, 103
4, 498988, Note_on_c, 1, 73, 97
4, 499030, Note_on_c, 1, 71, 0
4, 499041, Note_on_c, 1, 73, 0
4, 499082, Note_on_c, 1, 69, 104
4, 499088, Note_on_c, 1, 72, 109
4, 499135, Note_on_c, 1, 69, 0
4, 499141, Note_on_c, 1, 72, 0
4, 499337, Note_on_c, 1, 74, 111
4, 499347, Note_on_c, 1, 72, 96
4, 499444, Note_on_c, 1, 74, 0
4, 499454, Note_on_c, 1, 72, 0
4, 499688, Note_on_c, 1, 74, 101
4, 499701, Note_on_c, 1, 72, 108
4, 499741, Note_on_c, 1, 74, 0
4, 499754, Note_on_c, 1, 72, 0
4, 499924, Note_on_c, 1, 74, 106
4, 499948, Note_on_c, 1, 72, 101
4, 499977, Note_on_c, 1, 74, 0
4, 500001, Note_on_c, 1, 72, 0
4, 500281, Note_on_c, 1, 76, 93
4, 500289, Note_on_c, 1, 72, 93
4, 500334, Note_on_c, 1, 76, 0
4, 500342, Note_on_c, 1, 72, 0
4, 500411, Note_on_c, 1, 73, 91
4, 500425, Note_on_c, 1, 71, 95
4, 500464, Note_on_c, 1, 73, 0
4, 500478, Note_on_c, 1, 71, 0
4, 500524, Note_on_c, 1, 69, 98
4, 500544, Note_on_c, 1, 72, 97
4, 500577, Note_on_c, 1, 69, 0
4, 500597, Note_on_c, 1, 72, 0
4, 500768, Note_on_c, 1, 72, 109
4, 500773, Note_on_c, 1, 74, 93
4, 500821, Note_on_c, 1, 72, 0
4, 500826, Note_on_c, 1, 74, 0
4, 501016, Note_on_c, 1, 72, 98
4, 501016, Note_on_c, 1, 76, 92
4, 501069, Note_on_c, 1, 72, 0
4, 501069, Note_on_c, 1, 76, 0
4, 501138, Note_on_c, 1, 73, 100
4, 501145, Note_on_c, 1, 71, 95
4, 501191, Note_on_c, 1, 73, 0
4, 501198, Note_on_c, 1, 71, 0
4, 501248, Note_on_c, 1, 72, 109
4, 501256, Note_on_c, 1, 69, 103
4, 501301, Note_on_c, 1, 72, 0
4, 501309, Note_on_c, 1, 69, 0
4, 501487, Note_on_c, 1, 72, 95
4, 501490, Note_on_c, 1, 74, 111
4, 501594, Note_on_c, 1, 72, 0
4, 501597, Note_on_c, 1, 74, 0
4, 501845, Note_on_c, 1, 74, 111
4, 501866, Note_on_c, 1, 72, 94
4, 501898, Note_on_c, 1, 74, 0
4, 501919, Note_on_c, 1, 72, 0
4, 502091, Note_on_c, 1, 74, 95
4, 502105, Note_on_c, 1, 72, 105
4, 502198, Note_on_c, 1, 74, 0
4, 502212, Note_on_c, 1, 72, 0
4, 502457, Note_on_c, 1, 72, 109
4, 502459, Note_on_c, 1, 76, 111
4, 502510, Note_on_c, 1, 72, 0
4, 502512, Note_on_c, 1, 76, 0
4, 502579, Note_on_c, 1, 73, 94
4, 502581, Note_on_c, 1, 71, 110
4, 502632, Note_on_c, 1, 73, 0
4, 502634, Note_on_c, 1, 71, 0
4, 502681, Note_on_c, 1, 72, 95
4, 502685, Note_on_c, 1, 69, 106
4, 502734, Note_on_c, 1, 72, 0
4, 502738, Note_on_c, 1, 69, 0
4, 502933, Note_on_c, 1, 82, 110
4, 502939, Note_on_c, 1, 78, 105
4, 503013, Note_on_c, 1, 82, 0
4, 503019, Note_on_c, 1, 78, 0
4, 503047, Note_on_c, 1, 82, 100
4, 503063, Note_on_c, 1, 87, 100
4, 503127, Note_on_c, 1, 82, 0
4, 503143, Note_on_c, 1, 87, 0
4, 503288, Note_on_c, 1, 81, 101
4, 503305, Note_on_c, 1, 77, 110
4, 503368, Note_on_c, 1, 81, 0
4, 503385, Note_on_c, 1, 77, 0
4, 503521, Note_on_c, 1, 82, 115
4, 503541, Note_on_c, 1, 78, 100
4, 503601, Note_on_c, 1, 82, 0
4, 503621, Note_on_c, 1, 78, 0
4, 503645, Note_on_c, 1, 82, 104
4, 503650, Note_on_c, 1, 87, 103
4, 503725, Note_on_c, 1, 82, 0
4, 503730, Note_on_c, 1, 87, 0
4, 503896, Note_on_c, 1, 87, 112
4, 503908, Note_on_c, 1, 82, 108
4, 503976, Note_on_c, 1, 87, 0
4, 503988, Note_on_c, 1, 82, 0
4, 504137, Note_on_c, 1, 77, 111
4, 504148, Note_on_c, 1, 81, 108
4, 504217, Note_on_c, 1, 77, 0
4, 504228, Note_on_c, 1, 81, 0
4, 514057, Control_c, 1, 11, 64
4, 514081, Control_c, 1, 11, 65
4, 514104, Control_c, 1, 11, 66
4, 514106, Note_on_c, 1, 82, 97
4, 514127, Control_c, 1, 11, 67
4, 514150, Control_c, 1, 11, 68
4, 514174, Control_c, 1, 11, 69
4, 514197, Control_c, 1, 11, 70
4, 514220, Control_c, 1, 11, 71
4, 514243, Control_c, 1, 11, 72
4, 514267, Control_c, 1, 11, 73
4, 514290, Control_c, 1, 11, 74
4, 514313, Control_c, 1, 11, 75
4, 514336, Control_c, 1, 11, 76
4, 514359, Control_c, 1, 11, 77
4, 514382, Control_c, 1, 11, 78
4, 514406, Control_c, 1, 11, 79
4, 514429, Control_c, 1, 11, 80
4, 514452, Control_c, 1, 11, 81
4, 514475, Control_c, 1, 11, 82
4, 514499, Control_c, 1, 11, 83
4, 514522, Control_c, 1, 11, 84
4, 514545, Control_c, 1, 11, 85
4, 514568, Control_c, 1, 11, 86
4, 514591, Control_c, 1, 11, 87
4, 514614, Control_c, 1, 11, 88
4, 514638, Control_c, 1, 11, 89
4, 514661, Control_c, 1, 11, 90
4, 514684, Control_c, 1, 11, 91
4, 514707, Control_c, 1, 11, 92
4, 514731, Control_c, 1, 11, 93
4, 514754, Control_c, 1, 11, 94
4, 514777, Control_c, 1, 11, 95
4, 514800, Control_c, 1, 11, 96
4, 514823, Control_c, 1, 11, 97
4, 514846, Control_c, 1, 11, 98
4, 514870, Control_c, 1, 11, 99
4, 514893, Control_c, 1, 11, 100
4, 514916, Control_c, 1, 11, 101
4, 514939, Control_c, 1, 11, 102
4, 514963, Control_c, 1, 11, 103
4, 514986, Control_c, 1, 11, 104
4, 515009, Control_c, 1, 11, 105
4, 515032, Control_c, 1, 11, 106
4, 515055, Control_c, 1, 11, 107
4, 515078, Control_c, 1, 11, 108
4, 515102, Control_c, 1, 11, 109
4, 515125, Control_c, 1, 11, 110
4, 515148, Control_c, 1, 11, 111
4, 515171, Control_c, 1, 11, 112
4, 515195, Control_c, 1, 11, 113
4, 515218, Control_c, 1, 11, 114
4, 515241, Control_c, 1, 11, 115
4, 515264, Control_c, 1, 11, 116
4, 515287, Control_c, 1, 11, 117
4, 515310, Control_c, 1, 11, 118
4, 515334, Control_c, 1, 11, 119
4, 515357, Control_c, 1, 11, 120
4, 515380, Control_c, 1, 11, 121
4, 515403, Control_c, 1, 11, 122
4, 515427, Control_c, 1, 11, 123
4, 515450, Control_c, 1, 11, 124
4, 515473, Control_c, 1, 11, 125
4, 515496, Control_c, 1, 11, 126
4, 515666, Note_on_c, 1, 82, 0
4, 531368, Note_on_c, 1, 87, 103
4, 531415, Note_on_c, 1, 87, 0
4, 531609, Note_on_c, 1, 87, 91
4, 531656, Note_on_c, 1, 87, 0
4, 531860, Note_on_c, 1, 87, 97
4, 531907, Note_on_c, 1, 87, 0
4, 532341, Note_on_c, 1, 87, 99
4, 532388, Note_on_c, 1, 87, 0
4, 532569, Note_on_c, 1, 87, 110
4, 532616, Note_on_c, 1, 87, 0
4, 532820, Note_on_c, 1, 87, 95
4, 532867, Note_on_c, 1, 87, 0
4, 533059, Note_on_c, 1, 87, 98
4, 533106, Note_on_c, 1, 87, 0
4, 533285, Note_on_c, 1, 87, 109
4, 533332, Note_on_c, 1, 87, 0
4, 533782, Note_on_c, 1, 87, 99
4, 533829, Note_on_c, 1, 87, 0
4, 534256, Note_on_c, 1, 87, 100
4, 534303, Note_on_c, 1, 87, 0
4, 534488, Note_on_c, 1, 86, 106
4, 534535, Note_on_c, 1, 86, 0
4, 534722, Note_on_c, 1, 87, 109
4, 534769, Note_on_c, 1, 87, 0
4, 535212, Note_on_c, 1, 87, 105
4, 535259, Note_on_c, 1, 87, 0
4, 535705, Note_on_c, 1, 87, 108
4, 535752, Note_on_c, 1, 87, 0
4, 535930, Note_on_c, 1, 82, 115
4, 535933, Note_on_c, 1, 78, 124
4, 535961, Note_on_c, 1, 82, 0
4, 535964, Note_on_c, 1, 78, 0
4, 536013, Note_on_c, 1, 75, 124
4, 536025, Note_on_c, 1, 78, 124
4, 536045, Note_on_c, 1, 75, 0
4, 536057, Note_on_c, 1, 78, 0
4, 536080, Note_on_c, 1, 70, 120
4, 536084, Note_on_c, 1, 75, 106
4, 536112, Note_on_c, 1, 70, 0
4, 536116, Note_on_c, 1, 75, 0
4, 536163, Note_on_c, 1, 73, 107
4, 536165, Note_on_c, 1, 70, 124
4, 536194, Note_on_c, 1, 73, 0
4, 536196, Note_on_c, 1, 70, 0
4, 536252, Note_on_c, 1, 73, 112
4, 536258, Note_on_c, 1, 77, 112
4, 536284, Note_on_c, 1, 73, 0
4, 536290, Note_on_c, 1, 77, 0
4, 536330, Note_on_c, 1, 77, 124
4, 536338, Note_on_c, 1, 82, 106
4, 536362, Note_on_c, 1, 77, 0
4, 536370, Note_on_c, 1, 82, 0
4, 536409, Note_on_c, 1, 79, 108
4, 536418, Note_on_c, 1, 75, 104
4, 536440, Note_on_c, 1, 79, 0
4, 536449, Note_on_c, 1, 75, 0
4, 536495, Note_on_c, 1, 75, 121
4, 536508, Note_on_c, 1, 72, 108
4, 536527, Note_on_c, 1, 75, 0
4, 536540, Note_on_c, 1, 72, 0
4, 536580, Note_on_c, 1, 72, 108
4, 536584, Note_on_c, 1, 67, 115
4, 536612, Note_on_c, 1, 72, 0
4, 536616, Note_on_c, 1, 67, 0
4, 536646, Note_on_c, 1, 65, 113
4, 536669, Note_on_c, 1, 70, 116
4, 536677, Note_on_c, 1, 65, 0
4, 536700, Note_on_c, 1, 70, 0
4, 536726, Note_on_c, 1, 73, 109
4, 536735, Note_on_c, 1, 70, 121
4, 536758, Note_on_c, 1, 73, 0
4, 536767, Note_on_c, 1, 70, 0
4, 536810, Note_on_c, 1, 77, 106
4, 536820, Note_on_c, 1, 73, 105
4, 536842, Note_on_c, 1, 77, 0
4, 536852, Note_on_c, 1, 73, 0
4, 536880, Note_on_c, 1, 72, 112
4, 536883, Note_on_c, 1, 75, 122
4, 536911, Note_on_c, 1, 72, 0
4, 536914, Note_on_c, 1, 75, 0
4, 536987, Note_on_c, 1, 72, 114
4, 536989, Note_on_c, 1, 68, 106
4, 537019, Note_on_c, 1, 72, 0
4, 537021, Note_on_c, 1, 68, 0
4, 537065, Note_on_c, 1, 68, 119
4, 537068, Note_on_c, 1, 63, 124
4, 537097, Note_on_c, 1, 68, 0
4, 537100, Note_on_c, 1, 63, 0
4, 537123, Note_on_c, 1, 68, 115
4, 537134, Note_on_c, 1, 64, 121
4, 537146, Note_on_c, 1, 68, 0
4, 537157, Note_on_c, 1, 64, 0
4, 537183, Note_on_c, 1, 73, 117
4, 537204, Note_on_c, 1, 69, 109
4, 537206, Note_on_c, 1, 73, 0
4, 537227, Note_on_c, 1, 69, 0
4, 537259, Note_on_c, 1, 76, 111
4, 537261, Note_on_c, 1, 73, 108
4, 537282, Note_on_c, 1, 76, 0
4, 537284, Note_on_c, 1, 73, 0
4, 537302, Note_on_c, 1, 81, 111
4, 537311, Note_on_c, 1, 76, 119
4, 537325, Note_on_c, 1, 81, 0
4, 537334, Note_on_c, 1, 76, 0
4, 543869, Note_on_c, 1, 69, 93
4, 543895, Note_on_c, 1, 69, 0
4, 543900, Note_on_c, 1, 70, 88
4, 543927, Note_on_c, 1, 70, 0
4, 543936, Note_on_c, 1, 72, 98
4, 543962, Note_on_c, 1, 72, 0
4, 543965, Note_on_c, 1, 74, 84
4, 543980, Note_on_c, 1, 75, 82
4, 543991, Note_on_c, 1, 74, 0
4, 544006, Note_on_c, 1, 75, 0
4, 544022, Note_on_c, 1, 77, 79
4, 544046, Note_on_c, 1, 79, 96
4, 544049, Note_on_c, 1, 77, 0
4, 544063, Note_on_c, 1, 81, 89
4, 544072, Note_on_c, 1, 79, 0
4, 544090, Note_on_c, 1, 81, 0
4, 544097, Note_on_c, 1, 82, 78
4, 544217, Note_on_c, 1, 82, 0
4, 544564, Note_on_c, 1, 68, 39
4, 544603, Note_on_c, 1, 68, 0
4, 544607, Note_on_c, 1, 71, 42
4, 544647, Note_on_c, 1, 71, 0
4, 544648, Note_on_c, 1, 68, 40
4, 544688, Note_on_c, 1, 68, 0
4, 544707, Note_on_c, 1, 71, 44
4, 544730, Note_on_c, 1, 68, 46
4, 544746, Note_on_c, 1, 71, 0
4, 544768, Note_on_c, 1, 71, 41
4, 544770, Note_on_c, 1, 68, 0
4, 544808, Note_on_c, 1, 71, 0
4, 544809, Note_on_c, 1, 68, 53
4, 544844, Note_on_c, 1, 71, 47
4, 544848, Note_on_c, 1, 68, 0
4, 544884, Note_on_c, 1, 71, 0
4, 544903, Note_on_c, 1, 68, 41
4, 544931, Note_on_c, 1, 71, 51
4, 544940, Note_on_c, 1, 68, 0
4, 544960, Note_on_c, 1, 68, 56
4, 544970, Note_on_c, 1, 71, 0
4, 545000, Note_on_c, 1, 68, 0
4, 545014, Note_on_c, 1, 71, 55
4, 545054, Note_on_c, 1, 71, 0
4, 545054, Note_on_c, 1, 68, 39
4, 545085, Note_on_c, 1, 71, 51
4, 545093, Note_on_c, 1, 68, 0
4, 545125, Note_on_c, 1, 71, 0
4, 545135, Note_on_c, 1, 68, 41
4, 545175, Note_on_c, 1, 68, 0
4, 545180, Note_on_c, 1, 71, 44
4, 545202, Note_on_c, 1, 68, 47
4, 545219, Note_on_c, 1, 71, 0
4, 545242, Note_on_c, 1, 68, 0
4, 545249, Note_on_c, 1, 71, 43
4, 545282, Note_on_c, 1, 68, 42
4, 545289, Note_on_c, 1, 71, 0
4, 545321, Note_on_c, 1, 68, 0
4, 545331, Note_on_c, 1, 71, 57
4, 545371, Note_on_c, 1, 71, 0
4, 545385, Note_on_c, 1, 68, 46
4, 545423, Note_on_c, 1, 71, 49
4, 545425, Note_on_c, 1, 68, 0
4, 545456, Note_on_c, 1, 68, 59
4, 545462, Note_on_c, 1, 71, 0
4, 545496, Note_on_c, 1, 68, 0
4, 545507, Note_on_c, 1, 71, 46
4, 545525, Note_on_c, 1, 68, 53
4, 545547, Note_on_c, 1, 71, 0
4, 545564, Note_on_c, 1, 68, 0
4, 545577, Note_on_c, 1, 71, 43
4, 545601, Note_on_c, 1, 68, 55
4, 545617, Note_on_c, 1, 71, 0
4, 545641, Note_on_c, 1, 68, 0
4, 545643, Note_on_c, 1, 71, 40
4, 545682, Note_on_c, 1, 71, 0
4, 545687, Note_on_c, 1, 68, 44
4, 545727, Note_on_c, 1, 68, 0
4, 545736, Note_on_c, 1, 71, 44
4, 545776, Note_on_c, 1, 71, 0
4, 545785, Note_on_c, 1, 68, 42
4, 545803, Note_on_c, 1, 70, 47
4, 545819, Note_on_c, 1, 68, 0
4, 545837, Note_on_c, 1, 70, 0
4, 545839, Note_on_c, 1, 72, 59
4, 545873, Note_on_c, 1, 72, 0
4, 545885, Note_on_c, 1, 74, 56
4, 545904, Note_on_c, 1, 75, 58
4, 545919, Note_on_c, 1, 74, 0
4, 545938, Note_on_c, 1, 75, 0
4, 545942, Note_on_c, 1, 77, 41
4, 545976, Note_on_c, 1, 77, 0
4, 545991, Note_on_c, 1, 79, 49
4, 546011, Note_on_c, 1, 80, 69
4, 546014, Note_on_c, 1, 85, 84
4, 546025, Note_on_c, 1, 79, 0
4, 546131, Note_on_c, 1, 80, 0
4, 546134, Note_on_c, 1, 85, 0
4, 546243, Note_on_c, 1, 80, 78
4, 546265, Note_on_c, 1, 85, 84
4, 546363, Note_on_c, 1, 80, 0
4, 546385, Note_on_c, 1, 85, 0
4, 546728, Note_on_c, 1, 85, 83
4, 546746, Note_on_c, 1, 80, 66
4, 546848, Note_on_c, 1, 85, 0
4, 546866, Note_on_c, 1, 80, 0
4, 547213, Note_on_c, 1, 85, 79
4, 547219, Note_on_c, 1, 80, 67
4, 547333, Note_on_c, 1, 85, 0
4, 547339, Note_on_c, 1, 80, 0
4, 547442, Note_on_c, 1, 78, 82
4, 547443, Note_on_c, 1, 83, 70
4, 547562, Note_on_c, 1, 78, 0
4, 547563, Note_on_c, 1, 83, 0
4, 547686, Note_on_c, 1, 85, 66
4, 547694, Note_on_c, 1, 80, 84
4, 547806, Note_on_c, 1, 85, 0
4, 547814, Note_on_c, 1, 80, 0
4, 548178, Note_on_c, 1, 80, 79
4, 548178, Note_on_c, 1, 85, 82
4, 548298, Note_on_c, 1, 80, 0
4, 548298, Note_on_c, 1, 85, 0
4, 548658, Note_on_c, 1, 85, 79
4, 548665, Note_on_c, 1, 80, 74
4, 548778, Note_on_c, 1, 85, 0
4, 548785, Note_on_c, 1, 80, 0
4, 549126, Note_on_c, 1, 85, 71
4, 549148, Note_on_c, 1, 80, 66
4, 549246, Note_on_c, 1, 85, 0
4, 549268, Note_on_c, 1, 80, 0
4, 549369, Note_on_c, 1, 78, 67
4, 549388, Note_on_c, 1, 83, 78
4, 549489, Note_on_c, 1, 78, 0
4, 549508, Note_on_c, 1, 83, 0
4, 549840, Note_on_c, 1, 74, 82
4, 549858, Note_on_c, 1, 80, 77
4, 549960, Note_on_c, 1, 74, 0
4, 549978, Note_on_c, 1, 80, 0
4, 550336, Note_on_c, 1, 80, 78
4, 550347, Note_on_c, 1, 74, 79
4, 550456, Note_on_c, 1, 80, 0
4, 550467, Note_on_c, 1, 74, 0
4, 550571, Note_on_c, 1, 80, 82
4, 550579, Note_on_c, 1, 74, 74
4, 550691, Note_on_c, 1, 80, 0
4, 550699, Note_on_c, 1, 74, 0
4, 550820, Note_on_c, 1, 75, 108
4, 550828, Note_on_c, 1, 78, 107
4, 550940, Note_on_c, 1, 75, 0
4, 550948, Note_on_c, 1, 78, 0
4, 551171, Note_on_c, 1, 73, 108
4, 551180, Note_on_c, 1, 71, 104
4, 551278, Note_on_c, 1, 73, 0
4, 551287, Note_on_c, 1, 71, 0
4, 551535, Note_on_c, 1, 71, 94
4, 551544, Note_on_c, 1, 73, 110
4, 551588, Note_on_c, 1, 71, 0
4, 551597, Note_on_c, 1, 73, 0
4, 551763, Note_on_c, 1, 71, 97
4, 551780, Note_on_c, 1, 73, 92
4, 551870, Note_on_c, 1, 71, 0
4, 551887, Note_on_c, 1, 73, 0
4, 552147, Note_on_c, 1, 73, 107
4, 552147, Note_on_c, 1, 71, 105
4, 552478, Note_on_c, 1, 71, 0
4, 552481, Note_on_c, 1, 75, 110
4, 552497, Note_on_c, 1, 71, 107
4, 552505, Note_on_c, 1, 75, 0
4, 552507, Note_on_c, 1, 73, 0
4, 552521, Note_on_c, 1, 71, 0
4, 552605, Note_on_c, 1, 72, 104
4, 552615, Note_on_c, 1, 70, 97
4, 552658, Note_on_c, 1, 72, 0
4, 552668, Note_on_c, 1, 70, 0
4, 552729, Note_on_c, 1, 68, 92
4, 552730, Note_on_c, 1, 71, 102
4, 552782, Note_on_c, 1, 68, 0
4, 552783, Note_on_c, 1, 71, 0
4, 552961, Note_on_c, 1, 73, 91
4, 552987, Note_on_c, 1, 71, 95
4, 553014, Note_on_c, 1, 73, 0
4, 553040, Note_on_c, 1, 71, 0
4, 553215, Note_on_c, 1, 73, 93
4, 553224, Note_on_c, 1, 71, 98
4, 553322, Note_on_c, 1, 73, 0
4, 553331, Note_on_c, 1, 71, 0
4, 553564, Note_on_c, 1, 71, 108
4, 553567, Note_on_c, 1, 73, 92
4, 553903, Note_on_c, 1, 71, 0
4, 553923, Note_on_c, 1, 71, 110
4, 553927, Note_on_c, 1, 73, 0
4, 553934, Note_on_c, 1, 75, 94
4, 553976, Note_on_c, 1, 71, 0
4, 553987, Note_on_c, 1, 75, 0
4, 554055, Note_on_c, 1, 72, 97
4, 554064, Note_on_c, 1, 70, 105
4, 554108, Note_on_c, 1, 72, 0
4, 554117, Note_on_c, 1, 70, 0
4, 554181, Note_on_c, 1, 71, 105
4, 554182, Note_on_c, 1, 68, 92
4, 554234, Note_on_c, 1, 71, 0
4, 554235, Note_on_c, 1, 68, 0
4, 554426, Note_on_c, 1, 73, 94
4, 554427, Note_on_c, 1, 71, 103
4, 554533, Note_on_c, 1, 73, 0
4, 554534, Note_on_c, 1, 71, 0
4, 554767, Note_on_c, 1, 74, 95
4, 554774, Note_on_c, 1, 77, 105
4, 554910, Note_on_c, 1, 74, 0
4, 554917, Note_on_c, 1, 77, 0
4, 555019, Note_on_c, 1, 81, 94
4, 555028, Note_on_c, 1, 77, 103
4, 555162, Note_on_c, 1, 81, 0
4, 555171, Note_on_c, 1, 77, 0
4, 555250, Note_on_c, 1, 86, 110
4, 555268, Note_on_c, 1, 81, 110
4, 555310, Note_on_c, 1, 86, 0
4, 555328, Note_on_c, 1, 81, 0
4, 555377, Note_on_c, 1, 86, 107
4, 555381, Note_on_c, 1, 89, 110
4, 555449, Note_on_c, 1, 86, 0
4, 555453, Note_on_c, 1, 89, 0
4, 555482, Note_on_c, 1, 81, 97
4, 555488, Note_on_c, 1, 86, 102
4, 555542, Note_on_c, 1, 81, 0
4, 555548, Note_on_c, 1, 86, 0
4, 555729, Note_on_c, 1, 71, 99
4, 555742, Note_on_c, 1, 73, 91
4, 555782, Note_on_c, 1, 71, 0
4, 555795, Note_on_c, 1, 73, 0
4, 555969, Note_on_c, 1, 71, 100
4, 555971, Note_on_c, 1, 73, 100
4, 556022, Note_on_c, 1, 71, 0
4, 556024, Note_on_c, 1, 73, 0
4, 556202, Note_on_c, 1, 71, 104
4, 556216, Note_on_c, 1, 73, 97
4, 556541, Note_on_c, 1, 71, 0
4, 556560, Note_on_c, 1, 71, 104
4, 556574, Note_on_c, 1, 75, 102
4, 556576, Note_on_c, 1, 73, 0
4, 556613, Note_on_c, 1, 71, 0
4, 556627, Note_on_c, 1, 75, 0
4, 556694, Note_on_c, 1, 70, 98
4, 556709, Note_on_c, 1, 72, 104
4, 556747, Note_on_c, 1, 70, 0
4, 556762, Note_on_c, 1, 72, 0
4, 556806, Note_on_c, 1, 68, 104
4, 556824, Note_on_c, 1, 71, 97
4, 556859, Note_on_c, 1, 68, 0
4, 556877, Note_on_c, 1, 71, 0
4, 556920, Note_on_c, 1, 77, 98
4, 556922, Note_on_c, 1, 74, 111
4, 556992, Note_on_c, 1, 77, 0
4, 556994, Note_on_c, 1, 74, 0
4, 557040, Note_on_c, 1, 77, 99
4, 557050, Note_on_c, 1, 81, 97
4, 557112, Note_on_c, 1, 77, 0
4, 557122, Note_on_c, 1, 81, 0
4, 557172, Note_on_c, 1, 81, 96
4, 557182, Note_on_c, 1, 86, 103
4, 557244, Note_on_c, 1, 81, 0
4, 557254, Note_on_c, 1, 86, 0
4, 557287, Note_on_c, 1, 89, 94
4, 557290, Note_on_c, 1, 86, 107
4, 557359, Note_on_c, 1, 89, 0
4, 557362, Note_on_c, 1, 86, 0
4, 557414, Note_on_c, 1, 81, 100
4, 557420, Note_on_c, 1, 86, 93
4, 557461, Note_on_c, 1, 81, 0
4, 557467, Note_on_c, 1, 86, 0
4, 557524, Note_on_c, 1, 71, 97
4, 557537, Note_on_c, 1, 73, 92
4, 557667, Note_on_c, 1, 71, 0
4, 557680, Note_on_c, 1, 73, 0
4, 557763, Note_on_c, 1, 71, 99
4, 557769, Note_on_c, 1, 73, 103
4, 557906, Note_on_c, 1, 71, 0
4, 557912, Note_on_c, 1, 73, 0
4, 558028, Note_on_c, 1, 71, 97
4, 558029, Note_on_c, 1, 73, 99
4, 558075, Note_on_c, 1, 71, 0
4, 558076, Note_on_c, 1, 73, 0
4, 558240, Note_on_c, 1, 73, 94
4, 558260, Note_on_c, 1, 71, 101
4, 558293, Note_on_c, 1, 73, 0
4, 558313, Note_on_c, 1, 71, 0
4, 558500, Note_on_c, 1, 73, 99
4, 558504, Note_on_c, 1, 71, 103
4, 558553, Note_on_c, 1, 73, 0
4, 558557, Note_on_c, 1, 71, 0
4, 558729, Note_on_c, 1, 71, 111
4, 558747, Note_on_c, 1, 73, 101
4, 559087, Note_on_c, 1, 71, 0
4, 559104, Note_on_c, 1, 75, 96
4, 559106, Note_on_c, 1, 71, 106
4, 559107, Note_on_c, 1, 73, 0
4, 559157, Note_on_c, 1, 75, 0
4, 559159, Note_on_c, 1, 71, 0
4, 559216, Note_on_c, 1, 72, 106
4, 559223, Note_on_c, 1, 70, 98
4, 559269, Note_on_c, 1, 72, 0
4, 559276, Note_on_c, 1, 70, 0
4, 559323, Note_on_c, 1, 68, 94
4, 559327, Note_on_c, 1, 71, 100
4, 559376, Note_on_c, 1, 68, 0
4, 559380, Note_on_c, 1, 71, 0
4, 559569, Note_on_c, 1, 71, 101
4, 559584, Note_on_c, 1, 73, 96
4, 559676, Note_on_c, 1, 71, 0
4, 559691, Note_on_c, 1, 73, 0
4, 559934, Note_on_c, 1, 73, 92
4, 559947, Note_on_c, 1, 71, 110
4, 559987, Note_on_c, 1, 73, 0
4, 560000, Note_on_c, 1, 71, 0
4, 560179, Note_on_c, 1, 73, 107
4, 560183, Note_on_c, 1, 71, 105
4, 560286, Note_on_c, 1, 73, 0
4, 560290, Note_on_c, 1, 71, 0
4, 560520, Note_on_c, 1, 71, 98
4, 560521, Note_on_c, 1, 75, 103
4, 560573, Note_on_c, 1, 71, 0
4, 560574, Note_on_c, 1, 75, 0
4, 560661, Note_on_c, 1, 72, 98
4, 560667, Note_on_c, 1, 70, 107
4, 560714, Note_on_c, 1, 72, 0
4, 560720, Note_on_c, 1, 70, 0
4, 560771, Note_on_c, 1, 68, 95
4, 560789, Note_on_c, 1, 71, 94
4, 560824, Note_on_c, 1, 68, 0
4, 560842, Note_on_c, 1, 71, 0
4, 561007, Note_on_c, 1, 71, 102
4, 561012, Note_on_c, 1, 73, 92
4, 561060, Note_on_c, 1, 71, 0
4, 561065, Note_on_c, 1, 73, 0
4, 561249, Note_on_c, 1, 71, 94
4, 561253, Note_on_c, 1, 75, 96
4, 561302, Note_on_c, 1, 71, 0
4, 561306, Note_on_c, 1, 75, 0
4, 561369, Note_on_c, 1, 70, 108
4, 561388, Note_on_c, 1, 72, 91
4, 561422, Note_on_c, 1, 70, 0
4, 561441, Note_on_c, 1, 72, 0
4, 561485, Note_on_c, 1, 71, 93
4, 561498, Note_on_c, 1, 68, 102
4, 561538, Note_on_c, 1, 71, 0
4, 561551, Note_on_c, 1, 68, 0
4, 561729, Note_on_c, 1, 71, 95
4, 561740, Note_on_c, 1, 73, 97
4, 561836, Note_on_c, 1, 71, 0
4, 561847, Note_on_c, 1, 73, 0
4, 562092, Note_on_c, 1, 71, 108
4, 562101, Note_on_c, 1, 73, 111
4, 562145, Note_on_c, 1, 71, 0
4, 562154, Note_on_c, 1, 73, 0
4, 562333, Note_on_c, 1, 73, 91
4, 562340, Note_on_c, 1, 71, 107
4, 562440, Note_on_c, 1, 73, 0
4, 562447, Note_on_c, 1, 71, 0
4, 562684, Note_on_c, 1, 75, 93
4, 562699, Note_on_c, 1, 71, 100
4, 562737, Note_on_c, 1, 75, 0
4, 562752, Note_on_c, 1, 71, 0
4, 562802, Note_on_c, 1, 70, 97
4, 562806, Note_on_c, 1, 72, 91
4, 562855, Note_on_c, 1, 70, 0
4, 562859, Note_on_c, 1, 72, 0
4, 562940, Note_on_c, 1, 68, 106
4, 562948, Note_on_c, 1, 71, 102
4, 562993, Note_on_c, 1, 68, 0
4, 563001, Note_on_c, 1, 71, 0
4, 563161, Note_on_c, 1, 81, 104
4, 563164, Note_on_c, 1, 77, 104
4, 563221, Note_on_c, 1, 81, 0
4, 563224, Note_on_c, 1, 77, 0
4, 563283, Note_on_c, 1, 86, 107
4, 563303, Note_on_c, 1, 81, 106
4, 563343, Note_on_c, 1, 86, 0
4, 563363, Note_on_c, 1, 81, 0
4, 563522, Note_on_c, 1, 76, 93
4, 563546, Note_on_c, 1, 80, 100
4, 563582, Note_on_c, 1, 76, 0
4, 563606, Note_on_c, 1, 80, 0
4, 563778, Note_on_c, 1, 77, 93
4, 563779, Note_on_c, 1, 81, 100
4, 563838, Note_on_c, 1, 77, 0
4, 563839, Note_on_c, 1, 81, 0
4, 563891, Note_on_c, 1, 81, 107
4, 563899, Note_on_c, 1, 86, 101
4, 563951, Note_on_c, 1, 81, 0
4, 563959, Note_on_c, 1, 86, 0
4, 564136, Note_on_c, 1, 81, 99
4, 564137, Note_on_c, 1, 86, 105
4, 564196, Note_on_c, 1, 81, 0
4, 564197, Note_on_c, 1, 86, 0
4, 564362, Note_on_c, 1, 76, 109
4, 564384, Note_on_c, 1, 80, 105
4, 564422, Note_on_c, 1, 76, 0
4, 564444, Note_on_c, 1, 80, 0
4, 580084, Note_on_c, 1, 79, 109
4, 580084, Note_on_c, 1, 72, 108
4, 581524, Note_on_c, 1, 72, 0
4, 582484, Note_on_c, 1, 79, 0
4, 584893, Note_on_c, 1, 72, 104
4, 584905, Note_on_c, 1, 79, 105
4, 586333, Note_on_c, 1, 72, 0
4, 587305, Note_on_c, 1, 79, 0
4, 601461, Note_on_c, 1, 87, 104
4, 601463, Note_on_c, 1, 78, 107
4, 601533, Note_on_c, 1, 87, 0
4, 601535, Note_on_c, 1, 78, 0
4, 602748, Control_c, 1, 11, 65
4, 602752, Control_c, 1, 11, 66
4, 602756, Control_c, 1, 11, 67
4, 602760, Control_c, 1, 11, 68
4, 602763, Note_on_c, 1, 72, 94
4, 602764, Control_c, 1, 11, 69
4, 602768, Control_c, 1, 11, 70
4, 602773, Control_c, 1, 11, 71
4, 602775, Note_on_c, 1, 74, 94
4, 602776, Control_c, 1, 11, 72
4, 602781, Control_c, 1, 11, 73
4, 602785, Control_c, 1, 11, 74
4, 602789, Control_c, 1, 11, 75
4, 602793, Control_c, 1, 11, 76
4, 602797, Control_c, 1, 11, 77
4, 602801, Control_c, 1, 11, 78
4, 602805, Control_c, 1, 11, 79
4, 602809, Control_c, 1, 11, 80
4, 602813, Control_c, 1, 11, 81
4, 602817, Control_c, 1, 11, 82
4, 602821, Control_c, 1, 11, 83
4, 602825, Control_c, 1, 11, 84
4, 602829, Control_c, 1, 11, 85
4, 602833, Control_c, 1, 11, 86
4, 602837, Control_c, 1, 11, 87
4, 602842, Control_c, 1, 11, 88
4, 602845, Control_c, 1, 11, 89
4, 602850, Control_c, 1, 11, 90
4, 602854, Control_c, 1, 11, 91
4, 602857, Control_c, 1, 11, 92
4, 602862, Control_c, 1, 11, 93
4, 602866, Control_c, 1, 11, 94
4, 602870, Control_c, 1, 11, 95
4, 602874, Control_c, 1, 11, 96
4, 602878, Control_c, 1, 11, 97
4, 602882, Control_c, 1, 11, 98
4, 602886, Control_c, 1, 11, 99
4, 602890, Control_c, 1, 11, 100
4, 602894, Control_c, 1, 11, 101
4, 602898, Control_c, 1, 11, 102
4, 602902, Control_c, 1, 11, 103
4, 602906, Control_c, 1, 11, 104
4, 602910, Control_c, 1, 11, 105
4, 602914, Control_c, 1, 11, 106
4, 602918, Control_c, 1, 11, 107
4, 602923, Control_c, 1, 11, 108
4, 602926, Control_c, 1, 11, 109
4, 602931, Control_c, 1, 11, 110
4, 602935, Control_c, 1, 11, 111
4, 602939, Control_c, 1, 11, 112
4, 602943, Control_c, 1, 11, 113
4, 602947, Control_c, 1, 11, 114
4, 602951, Control_c, 1, 11, 115
4, 602955, Control_c, 1, 11, 116
4, 602959, Control_c, 1, 11, 117
4, 602963, Control_c, 1, 11, 118
4, 602967, Control_c, 1, 11, 119
4, 602971, Control_c, 1, 11, 120
4, 602975, Control_c, 1, 11, 121
4, 602979, Control_c, 1, 11, 122
4, 602983, Control_c, 1, 11, 123
4, 602987, Control_c, 1, 11, 124
4, 602992, Control_c, 1, 11, 125
4, 602995, Control_c, 1, 11, 126
4, 603116, Note_on_c, 1, 72, 0
4, 603135, Note_on_c, 1, 74, 0
4, 603135, Note_on_c, 1, 72, 107
4, 603143, Note_on_c, 1, 76, 99
4, 603188, Note_on_c, 1, 72, 0
4, 603196, Note_on_c, 1, 76, 0
4, 603258, Note_on_c, 1, 71, 108
4, 603259, Note_on_c, 1, 73, 100
4, 603311, Note_on_c, 1, 71, 0
4, 603312, Note_on_c, 1, 73, 0
4, 603363, Note_on_c, 1, 69, 108
4, 603364, Note_on_c, 1, 72, 94
4, 603416, Note_on_c, 1, 69, 0
4, 603417, Note_on_c, 1, 72, 0
4, 604687, Note_on_c, 1, 86, 103
4, 604693, Note_on_c, 1, 74, 104
4, 604927, Note_on_c, 1, 86, 0
4, 604933, Note_on_c, 1, 74, 0
4, 605165, Note_on_c, 1, 86, 95
4, 605179, Note_on_c, 1, 74, 111
4, 605885, Note_on_c, 1, 86, 0
4, 605899, Note_on_c, 1, 74, 0
4, 606129, Note_on_c, 1, 74, 103
4, 606142, Note_on_c, 1, 86, 110
4, 606849, Note_on_c, 1, 74, 0
4, 606862, Note_on_c, 1, 86, 0
4, 607089, Note_on_c, 1, 86, 97
4, 607100, Note_on_c, 1, 74, 91
4, 607809, Note_on_c, 1, 86, 0
4, 607820, Note_on_c, 1, 74, 0
4, 608040, Note_on_c, 1, 86, 106
4, 608058, Note_on_c, 1, 74, 93
4, 609000, Note_on_c, 1, 86, 0
4, 609018, Note_on_c, 1, 74, 0
4, 609023, Note_on_c, 1, 72, 109
4, 609024, Note_on_c, 1, 84, 105
4, 609143, Note_on_c, 1, 72, 0
4, 609144, Note_on_c, 1, 84, 0
4, 609248, Note_on_c, 1, 70, 107
4, 609260, Note_on_c, 1, 82, 91
4, 609368, Note_on_c, 1, 70, 0
4, 609380, Note_on_c, 1, 82, 0
4, 609488, Note_on_c, 1, 68, 95
4, 609507, Note_on_c, 1, 80, 98
4, 609608, Note_on_c, 1, 68, 0
4, 609627, Note_on_c, 1, 80, 0
4, 609727, Note_on_c, 1, 84, 102
4, 609741, Note_on_c, 1, 72, 107
4, 609847, Note_on_c, 1, 84, 0
4, 609861, Note_on_c, 1, 72, 0
4, 609961, Note_on_c, 1, 86, 100
4, 609975, Note_on_c, 1, 74, 96
4, 610681, Note_on_c, 1, 86, 0
4, 610695, Note_on_c, 1, 74, 0
4, 610925, Note_on_c, 1, 74, 94
4, 610941, Note_on_c, 1, 86, 105
4, 611645, Note_on_c, 1, 74, 0
4, 611661, Note_on_c, 1, 86, 0
4, 612852, Note_on_c, 1, 86, 111
4, 612864, Note_on_c, 1, 74, 98
4, 614052, Note_on_c, 1, 86, 0
4, 614064, Note_on_c, 1, 74, 0
4, 615726, Note_on_c, 1, 86, 109
4, 615729, Note_on_c, 1, 74, 110
4, 616446, Note_on_c, 1, 86, 0
4, 616449, Note_on_c, 1, 74, 0
4, 616692, Note_on_c, 1, 77, 97
4, 616694, Note_on_c, 1, 85, 108
4, 616932, Note_on_c, 1, 77, 0
4, 616934, Note_on_c, 1, 85, 0
4, 617161, Note_on_c, 1, 86, 98
4, 617167, Note_on_c, 1, 78, 109
4, 617401, Note_on_c, 1, 86, 0
4, 617407, Note_on_c, 1, 78, 0
4, 617647, Note_on_c, 1, 78, 108
4, 617665, Note_on_c, 1, 87, 111
4, 617887, Note_on_c, 1, 78, 0
4, 617905, Note_on_c, 1, 87, 0
4, 618121, Note_on_c, 1, 80, 98
4, 618148, Note_on_c, 1, 88, 107
4, 618361, Note_on_c, 1, 80, 0
4, 618388, Note_on_c, 1, 88, 0
4, 618605, Note_on_c, 1, 85, 97
4, 618622, Note_on_c, 1, 78, 110
4, 618845, Note_on_c, 1, 85, 0
4, 618862, Note_on_c, 1, 78, 0
4, 619103, Note_on_c, 1, 84, 97
4, 619103, Note_on_c, 1, 77, 110
4, 619343, Note_on_c, 1, 84, 0
4, 619343, Note_on_c, 1, 77, 0
4, 619570, Note_on_c, 1, 78, 100
4, 619577, Note_on_c, 1, 85, 103
4, 619810, Note_on_c, 1, 78, 0
4, 619817, Note_on_c, 1, 85, 0
4, 620047, Note_on_c, 1, 84, 99
4, 620055, Note_on_c, 1, 77, 93
4, 620287, Note_on_c, 1, 84, 0
4, 620295, Note_on_c, 1, 77, 0
4, 620534, Note_on_c, 1, 85, 102
4, 620540, Note_on_c, 1, 78, 92
4, 620774, Note_on_c, 1, 85, 0
4, 620780, Note_on_c, 1, 78, 0
4, 621003, Note_on_c, 1, 77, 111
4, 621007, Note_on_c, 1, 84, 111
4, 621243, Note_on_c, 1, 77, 0
4, 621247, Note_on_c, 1, 84, 0
4, 621487, Note_on_c, 1, 76, 96
4, 621488, Note_on_c, 1, 83, 95
4, 621727, Note_on_c, 1, 76, 0
4, 621728, Note_on_c, 1, 83, 0
4, 621964, Note_on_c, 1, 84, 95
4, 621965, Note_on_c, 1, 77, 94
4, 622204, Note_on_c, 1, 84, 0
4, 622205, Note_on_c, 1, 77, 0
4, 622456, Note_on_c, 1, 85, 93
4, 622463, Note_on_c, 1, 78, 107
4, 622696, Note_on_c, 1, 85, 0
4, 622703, Note_on_c, 1, 78, 0
4, 622943, Note_on_c, 1, 77, 98
4, 622944, Note_on_c, 1, 85, 95
4, 623183, Note_on_c, 1, 77, 0
4, 623184, Note_on_c, 1, 85, 0
4, 623419, Note_on_c, 1, 85, 91
4, 623423, Note_on_c, 1, 78, 93
4, 623659, Note_on_c, 1, 85, 0
4, 623663, Note_on_c, 1, 78, 0
4, 623899, Note_on_c, 1, 77, 110
4, 623904, Note_on_c, 1, 85, 91
4, 624139, Note_on_c, 1, 77, 0
4, 624144, Note_on_c, 1, 85, 0
4, 624367, Note_on_c, 1, 85, 111
4, 624371, Note_on_c, 1, 78, 104
4, 624607, Note_on_c, 1, 85, 0
4, 624611, Note_on_c, 1, 78, 0
4, 624866, Note_on_c, 1, 77, 106
4, 624866, Note_on_c, 1, 85, 106
4, 625106, Note_on_c, 1, 77, 0
4, 625106, Note_on_c, 1, 85, 0
4, 625328, Note_on_c, 1, 76, 97
4, 625329, Note_on_c, 1, 83, 99
4, 625568, Note_on_c, 1, 76, 0
4, 625569, Note_on_c, 1, 83, 0
4, 625805, Note_on_c, 1, 83, 99
4, 625828, Note_on_c, 1, 77, 93
4, 626045, Note_on_c, 1, 83, 0
4, 626068, Note_on_c, 1, 77, 0
4, 626280, Note_on_c, 1, 83, 109
4, 626286, Note_on_c, 1, 76, 92
4, 626520, Note_on_c, 1, 83, 0
4, 626526, Note_on_c, 1, 76, 0
4, 626772, Note_on_c, 1, 79, 93
4, 626777, Note_on_c, 1, 82, 97
4, 627012, Note_on_c, 1, 79, 0
4, 627017, Note_on_c, 1, 82, 0
4, 627265, Note_on_c, 1, 81, 108
4, 627505, Note_on_c, 1, 81, 0
4, 627731, Note_on_c, 1, 82, 102
4, 627743, Note_on_c, 1, 87, 109
4, 627851, Note_on_c, 1, 82, 0
4, 627863, Note_on_c, 1, 87, 0
4, 636602, Note_on_c, 1, 77, 92
4, 636614, Note_on_c, 1, 83, 95
4, 636655, Note_on_c, 1, 77, 0
4, 636667, Note_on_c, 1, 83, 0
4, 636726, Note_on_c, 1, 80, 81
4, 636749, Note_on_c, 1, 72, 81
4, 636779, Note_on_c, 1, 80, 0
4, 636802, Note_on_c, 1, 72, 0
4, 636847, Note_on_c, 1, 79, 78
4, 636849, Note_on_c, 1, 73, 85
4, 636900, Note_on_c, 1, 79, 0
4, 636902, Note_on_c, 1, 73, 0
4, 637684, Note_on_c, 1, 77, 90
4, 637696, Note_on_c, 1, 83, 90
4, 637737, Note_on_c, 1, 77, 0
4, 637749, Note_on_c, 1, 83, 0
4, 637817, Note_on_c, 1, 80, 83
4, 637825, Note_on_c, 1, 72, 91
4, 637870, Note_on_c, 1, 80, 0
4, 637878, Note_on_c, 1, 72, 0
4, 637925, Note_on_c, 1, 79, 95
4, 637935, Note_on_c, 1, 73, 81
4, 637978, Note_on_c, 1, 79, 0
4, 637988, Note_on_c, 1, 73, 0
4, 638761, Note_on_c, 1, 83, 83
4, 638775, Note_on_c, 1, 77, 87
4, 638814, Note_on_c, 1, 83, 0
4, 638828, Note_on_c, 1, 77, 0
4, 638883, Note_on_c, 1, 72, 87
4, 638887, Note_on_c, 1, 80, 91
4, 638936, Note_on_c, 1, 72, 0
4, 638940, Note_on_c, 1, 80, 0
4, 639016, Note_on_c, 1, 79, 85
4, 639027, Note_on_c, 1, 73, 88
4, 639069, Note_on_c, 1, 79, 0
4, 639080, Note_on_c, 1, 73, 0
4, 639497, Note_on_c, 1, 77, 92
4, 639509, Note_on_c, 1, 83, 82
4, 639550, Note_on_c, 1, 77, 0
4, 639562, Note_on_c, 1, 83, 0
4, 639606, Note_on_c, 1, 80, 90
4, 639608, Note_on_c, 1, 72, 97
4, 639659, Note_on_c, 1, 80, 0
4, 639661, Note_on_c, 1, 72, 0
4, 639734, Note_on_c, 1, 79, 87
4, 639742, Note_on_c, 1, 73, 90
4, 639787, Note_on_c, 1, 79, 0
4, 639795, Note_on_c, 1, 73, 0
4, 639964, Note_on_c, 1, 82, 91
4, 639967, Note_on_c, 1, 77, 94
4, 640024, Note_on_c, 1, 82, 0
4, 640027, Note_on_c, 1, 77, 0
4, 640080, Note_on_c, 1, 82, 100
4, 640094, Note_on_c, 1, 85, 105
4, 640140, Note_on_c, 1, 82, 0
4, 640154, Note_on_c, 1, 85, 0
4, 641175, Note_on_c, 1, 77, 110
4, 641186, Note_on_c, 1, 74, 95
4, 641235, Note_on_c, 1, 77, 0
4, 641246, Note_on_c, 1, 74, 0
4, 641296, Note_on_c, 1, 77, 97
4, 641301, Note_on_c, 1, 82, 104
4, 641356, Note_on_c, 1, 77, 0
4, 641361, Note_on_c, 1, 82, 0
4, 641407, Note_on_c, 1, 85, 111
4, 641426, Note_on_c, 1, 82, 93
4, 641467, Note_on_c, 1, 85, 0
4, 641486, Note_on_c, 1, 82, 0
4, 645369, Note_on_c, 1, 82, 94
4, 645387, Note_on_c, 1, 77, 93
4, 645429, Note_on_c, 1, 82, 0
4, 645447, Note_on_c, 1, 77, 0
4, 645495, Note_on_c, 1, 85, 96
4, 645503, Note_on_c, 1, 82, 106
4, 645555, Note_on_c, 1, 85, 0
4, 645563, Note_on_c, 1, 82, 0
4, 646697, Note_on_c, 1, 77, 101
4, 646699, Note_on_c, 1, 82, 93
4, 646757, Note_on_c, 1, 77, 0
4, 646759, Note_on_c, 1, 82, 0
4, 646800, Note_on_c, 1, 82, 107
4, 646803, Note_on_c, 1, 85, 106
4, 646860, Note_on_c, 1, 82, 0
4, 646863, Note_on_c, 1, 85, 0
4, 647280, Note_on_c, 1, 77, 104
4, 647291, Note_on_c, 1, 73, 104
4, 647340, Note_on_c, 1, 77, 0
4, 647351, Note_on_c, 1, 73, 0
4, 647400, Note_on_c, 1, 82, 100
4, 647410, Note_on_c, 1, 77, 96
4, 647460, Note_on_c, 1, 82, 0
4, 647470, Note_on_c, 1, 77, 0
4, 647530, Note_on_c, 1, 85, 91
4, 647543, Note_on_c, 1, 82, 109
4, 647590, Note_on_c, 1, 85, 0
4, 647603, Note_on_c, 1, 82, 0
4, 648010, Note_on_c, 1, 82, 97
4, 648026, Note_on_c, 1, 77, 96
4, 648070, Note_on_c, 1, 82, 0
4, 648086, Note_on_c, 1, 77, 0
4, 648137, Note_on_c, 1, 82, 96
4, 648148, Note_on_c, 1, 85, 102
4, 648197, Note_on_c, 1, 82, 0
4, 648208, Note_on_c, 1, 85, 0
4, 648363, Note_on_c, 1, 86, 93
4, 648375, Note_on_c, 1, 82, 97
4, 648423, Note_on_c, 1, 86, 0
4, 648435, Note_on_c, 1, 82, 0
4, 648856, Note_on_c, 1, 77, 111
4, 648864, Note_on_c, 1, 73, 103
4, 648916, Note_on_c, 1, 77, 0
4, 648924, Note_on_c, 1, 73, 0
4, 648970, Note_on_c, 1, 82, 95
4, 648972, Note_on_c, 1, 77, 99
4, 649030, Note_on_c, 1, 82, 0
4, 649032, Note_on_c, 1, 77, 0
4, 649100, Note_on_c, 1, 85, 96
4, 649103, Note_on_c, 1, 82, 96
4, 649160, Note_on_c, 1, 85, 0
4, 649163, Note_on_c, 1, 82, 0
4, 649335, Note_on_c, 1, 89, 99
4, 649348, Note_on_c, 1, 85, 99
4, 649455, Note_on_c, 1, 89, 0
4, 649468, Note_on_c, 1, 85, 0
4, 649801, Note_on_c, 1, 82, 110
4, 649807, Note_on_c, 1, 77, 91
4, 649861, Note_on_c, 1, 82, 0
4, 649867, Note_on_c, 1, 77, 0
4, 649930, Note_on_c, 1, 85, 91
4, 649937, Note_on_c, 1, 82, 102
4, 649990, Note_on_c, 1, 85, 0
4, 649997, Note_on_c, 1, 82, 0
4, 650412, Note_on_c, 1, 77, 110
4, 650426, Note_on_c, 1, 73, 99
4, 650472, Note_on_c, 1, 77, 0
4, 650486, Note_on_c, 1, 73, 0
4, 650535, Note_on_c, 1, 82, 99
4, 650538, Note_on_c, 1, 77, 108
4, 650595, Note_on_c, 1, 82, 0
4, 650598, Note_on_c, 1, 77, 0
4, 650647, Note_on_c, 1, 82, 105
4, 650651, Note_on_c, 1, 85, 109
4, 650707, Note_on_c, 1, 82, 0
4, 650711, Note_on_c, 1, 85, 0
4, 650886, Note_on_c, 1, 85, 93
4, 650904, Note_on_c, 1, 89, 101
4, 651006, Note_on_c, 1, 85, 0
4, 651024, Note_on_c, 1, 89, 0
4, 651360, Note_on_c, 1, 77, 106
4, 651367, Note_on_c, 1, 73, 92
4, 651420, Note_on_c, 1, 77, 0
4, 651427, Note_on_c, 1, 73, 0
4, 651501, Note_on_c, 1, 82, 91
4, 651505, Note_on_c, 1, 77, 110
4, 651561, Note_on_c, 1, 82, 0
4, 651565, Note_on_c, 1, 77, 0
4, 651619, Note_on_c, 1, 82, 111
4, 651623, Note_on_c, 1, 85, 93
4, 651679, Note_on_c, 1, 82, 0
4, 651683, Note_on_c, 1, 85, 0
4, 651847, Note_on_c, 1, 85, 98
4, 651848, Note_on_c, 1, 89, 108
4, 651967, Note_on_c, 1, 85, 0
4, 651968, Note_on_c, 1, 89, 0
4, 652097, Note_on_c, 1, 77, 108
4, 652107, Note_on_c, 1, 73, 106
4, 652157, Note_on_c, 1, 77, 0
4, 652167, Note_on_c, 1, 73, 0
4, 652212, Note_on_c, 1, 82, 105
4, 652221, Note_on_c, 1, 77, 93
4, 652272, Note_on_c, 1, 82, 0
4, 652281, Note_on_c, 1, 77, 0
4, 652323, Note_on_c, 1, 85, 109
4, 652327, Note_on_c, 1, 82, 104
4, 652383, Note_on_c, 1, 85, 0
4, 652387, Note_on_c, 1, 82, 0
4, 652564, Note_on_c, 1, 89, 107
4, 652584, Note_on_c, 1, 85, 102
4, 652684, Note_on_c, 1, 89, 0
4, 652704, Note_on_c, 1, 85, 0
4, 653057, Note_on_c, 1, 77, 96
4, 653063, Note_on_c, 1, 73, 92
4, 653117, Note_on_c, 1, 77, 0
4, 653123, Note_on_c, 1, 73, 0
4, 653178, Note_on_c, 1, 77, 97
4, 653181, Note_on_c, 1, 82, 101
4, 653238, Note_on_c, 1, 77, 0
4, 653241, Note_on_c, 1, 82, 0
4, 653285, Note_on_c, 1, 82, 107
4, 653302, Note_on_c, 1, 85, 91
4, 653345, Note_on_c, 1, 82, 0
4, 653362, Note_on_c, 1, 85, 0
4, 653536, Note_on_c, 1, 85, 108
4, 653546, Note_on_c, 1, 89, 98
4, 653656, Note_on_c, 1, 85, 0
4, 653666, Note_on_c, 1, 89, 0
4, 653761, Note_on_c, 1, 77, 105
4, 653786, Note_on_c, 1, 73, 107
4, 653821, Note_on_c, 1, 77, 0
4, 653846, Note_on_c, 1, 73, 0
4, 653900, Note_on_c, 1, 82, 110
4, 653905, Note_on_c, 1, 77, 100
4, 653960, Note_on_c, 1, 82, 0
4, 653965, Note_on_c, 1, 77, 0
4, 654010, Note_on_c, 1, 85, 98
4, 654010, Note_on_c, 1, 82, 104
4, 654070, Note_on_c, 1, 85, 0
4, 654070, Note_on_c, 1, 82, 0
4, 654243, Note_on_c, 1, 85, 98
4, 654263, Note_on_c, 1, 89, 110
4, 654363, Note_on_c, 1, 85, 0
4, 654383, Note_on_c, 1, 89, 0
4, 654730, Note_on_c, 1, 73, 92
4, 654742, Note_on_c, 1, 77, 96
4, 654790, Note_on_c, 1, 73, 0
4, 654802, Note_on_c, 1, 77, 0
4, 654841, Note_on_c, 1, 77, 92
4, 654844, Note_on_c, 1, 82, 103
4, 654901, Note_on_c, 1, 77, 0
4, 654904, Note_on_c, 1, 82, 0
4, 654972, Note_on_c, 1, 85, 97
4, 654985, Note_on_c, 1, 82, 104
4, 655032, Note_on_c, 1, 85, 0
4, 655045, Note_on_c, 1, 82, 0
4, 655087, Note_on_c, 1, 85, 96
4, 655096, Note_on_c, 1, 89, 93
4, 655207, Note_on_c, 1, 85, 0
4, 655216, Note_on_c, 1, 89, 0
4, 655335, Note_on_c, 1, 90, 107
4, 655342, Note_on_c, 1, 85, 119
4, 655455, Note_on_c, 1, 90, 0
4, 655462, Note_on_c, 1, 85, 0
4, 655462, End_track
5, 0, Start_track
5, 0, Title_t, "Oboi II"
5, 0, MIDI_port, 0
5, 0, Program_c, 1, 68
5, 3380, Note_on_c, 1, 69, 28
5, 8420, Note_on_c, 1, 69, 0
5, 10562, Note_on_c, 1, 87, 73
5, 10588, Note_on_c, 1, 78, 78
5, 10802, Note_on_c, 1, 87, 0
5, 10805, Note_on_c, 1, 84, 75
5, 10809, Note_on_c, 1, 77, 67
5, 10828, Note_on_c, 1, 78, 0
5, 11045, Note_on_c, 1, 84, 0
5, 11049, Note_on_c, 1, 77, 0
5, 11049, Note_on_c, 1, 80, 78
5, 11058, Note_on_c, 1, 76, 76
5, 11289, Note_on_c, 1, 80, 0
5, 11298, Note_on_c, 1, 76, 0
5, 11298, Note_on_c, 1, 78, 65
5, 11301, Note_on_c, 1, 75, 64
5, 11527, Note_on_c, 1, 73, 63
5, 11533, Note_on_c, 1, 82, 75
5, 11538, Note_on_c, 1, 78, 0
5, 11541, Note_on_c, 1, 75, 0
5, 11767, Note_on_c, 1, 73, 0
5, 11769, Note_on_c, 1, 72, 61
5, 11771, Note_on_c, 1, 81, 66
5, 11773, Note_on_c, 1, 82, 0
5, 12008, Note_on_c, 1, 78, 72
5, 12009, Note_on_c, 1, 72, 0
5, 12011, Note_on_c, 1, 81, 0
5, 12012, Note_on_c, 1, 70, 56
5, 12248, Note_on_c, 1, 78, 0
5, 12252, Note_on_c, 1, 70, 0
5, 12254, Note_on_c, 1, 68, 54
5, 12262, Note_on_c, 1, 77, 57
5, 12494, Note_on_c, 1, 68, 0
5, 12494, Note_on_c, 1, 66, 60
5, 12494, Note_on_c, 1, 75, 64
5, 12502, Note_on_c, 1, 77, 0
5, 12734, Note_on_c, 1, 66, 0
5, 12734, Note_on_c, 1, 75, 0
5, 12747, Note_on_c, 1, 64, 67
5, 12747, Note_on_c, 1, 73, 56
5, 12962, Note_on_c, 1, 66, 55
5, 12981, Note_on_c, 1, 75, 54
5, 12987, Note_on_c, 1, 64, 0
5, 12987, Note_on_c, 1, 73, 0
5, 13202, Note_on_c, 1, 66, 0
5, 13214, Note_on_c, 1, 68, 53
5, 13216, Note_on_c, 1, 77, 64
5, 13221, Note_on_c, 1, 75, 0
5, 13444, Note_on_c, 1, 70, 53
5, 13454, Note_on_c, 1, 68, 0
5, 13456, Note_on_c, 1, 77, 0
5, 13466, Note_on_c, 1, 78, 64
5, 13684, Note_on_c, 1, 70, 0
5, 13706, Note_on_c, 1, 78, 0
5, 15379, Note_on_c, 1, 78, 83
5, 15387, Note_on_c, 1, 87, 78
5, 15613, Note_on_c, 1, 84, 65
5, 15615, Note_on_c, 1, 77, 70
5, 15619, Note_on_c, 1, 78, 0
5, 15627, Note_on_c, 1, 87, 0
5, 15853, Note_on_c, 1, 84, 0
5, 15855, Note_on_c, 1, 77, 0
5, 15863, Note_on_c, 1, 80, 79
5, 15865, Note_on_c, 1, 76, 77
5, 16095, Note_on_c, 1, 78, 67
5, 16103, Note_on_c, 1, 80, 0
5, 16105, Note_on_c, 1, 76, 0
5, 16107, Note_on_c, 1, 75, 75
5, 16335, Note_on_c, 1, 78, 0
5, 16335, Note_on_c, 1, 73, 68
5, 16347, Note_on_c, 1, 75, 0
5, 16349, Note_on_c, 1, 82, 72
5, 16571, Note_on_c, 1, 72, 66
5, 16574, Note_on_c, 1, 81, 72
5, 16575, Note_on_c, 1, 73, 0
5, 16589, Note_on_c, 1, 82, 0
5, 16801, Note_on_c, 1, 78, 54
5, 16811, Note_on_c, 1, 72, 0
5, 16814, Note_on_c, 1, 81, 0
5, 16820, Note_on_c, 1, 70, 58
5, 17041, Note_on_c, 1, 78, 0
5, 17047, Note_on_c, 1, 68, 61
5, 17053, Note_on_c, 1, 77, 63
5, 17060, Note_on_c, 1, 70, 0
5, 17285, Note_on_c, 1, 75, 62
5, 17287, Note_on_c, 1, 68, 0
5, 17293, Note_on_c, 1, 77, 0
5, 17301, Note_on_c, 1, 66, 49
5, 17523, Note_on_c, 1, 64, 55
5, 17525, Note_on_c, 1, 75, 0
5, 17528, Note_on_c, 1, 73, 57
5, 17541, Note_on_c, 1, 66, 0
5, 17763, Note_on_c, 1, 64, 0
5, 17768, Note_on_c, 1, 73, 0
5, 17771, Note_on_c, 1, 63, 49
5, 17771, Note_on_c, 1, 70, 49
5, 18011, Note_on_c, 1, 63, 0
5, 18011, Note_on_c, 1, 70, 0
5, 19696, Note_on_c, 1, 87, 75
5, 19697, Note_on_c, 1, 78, 83
5, 19924, Note_on_c, 1, 84, 69
5, 19936, Note_on_c, 1, 87, 0
5, 19937, Note_on_c, 1, 78, 0
5, 19947, Note_on_c, 1, 77, 81
5, 20164, Note_on_c, 1, 84, 0
5, 20166, Note_on_c, 1, 80, 60
5, 20187, Note_on_c, 1, 77, 0
5, 20188, Note_on_c, 1, 76, 61
5, 20406, Note_on_c, 1, 80, 0
5, 20408, Note_on_c, 1, 78, 62
5, 20424, Note_on_c, 1, 75, 61
5, 20428, Note_on_c, 1, 76, 0
5, 20642, Note_on_c, 1, 82, 69
5, 20648, Note_on_c, 1, 78, 0
5, 20653, Note_on_c, 1, 73, 56
5, 20664, Note_on_c, 1, 75, 0
5, 20882, Note_on_c, 1, 82, 0
5, 20892, Note_on_c, 1, 81, 64
5, 20893, Note_on_c, 1, 73, 0
5, 20907, Note_on_c, 1, 72, 48
5, 21126, Note_on_c, 1, 70, 44
5, 21132, Note_on_c, 1, 81, 0
5, 21132, Note_on_c, 1, 78, 45
5, 21147, Note_on_c, 1, 72, 0
5, 21366, Note_on_c, 1, 70, 0
5, 21372, Note_on_c, 1, 78, 0
5, 26904, Note_on_c, 1, 86, 57
5, 26908, Note_on_c, 1, 79, 55
5, 27134, Note_on_c, 1, 77, 45
5, 27136, Note_on_c, 1, 82, 43
5, 27144, Note_on_c, 1, 86, 0
5, 27148, Note_on_c, 1, 79, 0
5, 27363, Note_on_c, 1, 83, 51
5, 27374, Note_on_c, 1, 77, 0
5, 27376, Note_on_c, 1, 82, 0
5, 27380, Note_on_c, 1, 79, 48
5, 27603, Note_on_c, 1, 83, 0
5, 27620, Note_on_c, 1, 79, 0
5, 27625, Note_on_c, 1, 82, 47
5, 27850, Note_on_c, 1, 77, 48
5, 27865, Note_on_c, 1, 82, 0
5, 28090, Note_on_c, 1, 77, 0
5, 28105, Note_on_c, 1, 76, 39
5, 28338, Note_on_c, 1, 74, 43
5, 28338, Note_on_c, 1, 82, 52
5, 28345, Note_on_c, 1, 76, 0
5, 28566, Note_on_c, 1, 72, 43
5, 28571, Note_on_c, 1, 81, 48
5, 28578, Note_on_c, 1, 74, 0
5, 28578, Note_on_c, 1, 82, 0
5, 28805, Note_on_c, 1, 70, 51
5, 28806, Note_on_c, 1, 72, 0
5, 28811, Note_on_c, 1, 81, 0
5, 28824, Note_on_c, 1, 79, 48
5, 29045, Note_on_c, 1, 70, 0
5, 29050, Note_on_c, 1, 77, 39
5, 29055, Note_on_c, 1, 68, 49
5, 29064, Note_on_c, 1, 79, 0
5, 29282, Note_on_c, 1, 67, 39
5, 29290, Note_on_c, 1, 77, 0
5, 29295, Note_on_c, 1, 68, 0
5, 29307, Note_on_c, 1, 74, 57
5, 29522, Note_on_c, 1, 67, 0
5, 29539, Note_on_c, 1, 69, 54
5, 29546, Note_on_c, 1, 77, 51
5, 29547, Note_on_c, 1, 74, 0
5, 29772, Note_on_c, 1, 70, 50
5, 29779, Note_on_c, 1, 69, 0
5, 29780, Note_on_c, 1, 79, 41
5, 29786, Note_on_c, 1, 77, 0
5, 30005, Note_on_c, 1, 72, 46
5, 30010, Note_on_c, 1, 81, 56
5, 30012, Note_on_c, 1, 70, 0
5, 30020, Note_on_c, 1, 79, 0
5, 30245, Note_on_c, 1, 72, 0
5, 30250, Note_on_c, 1, 81, 0
5, 30256, Note_on_c, 1, 79, 41
5, 30268, Note_on_c, 1, 70, 41
5, 30480, Note_on_c, 1, 77, 52
5, 30496, Note_on_c, 1, 79, 0
5, 30505, Note_on_c, 1, 68, 54
5, 30508, Note_on_c, 1, 70, 0
5, 30720, Note_on_c, 1, 77, 0
5, 30726, Note_on_c, 1, 74, 43
5, 30745, Note_on_c, 1, 68, 0
5, 30748, Note_on_c, 1, 67, 49
5, 30966, Note_on_c, 1, 74, 0
5, 30968, Note_on_c, 1, 65, 46
5, 30968, Note_on_c, 1, 69, 42
5, 30988, Note_on_c, 1, 67, 0
5, 31208, Note_on_c, 1, 65, 0
5, 31208, Note_on_c, 1, 69, 0
5, 31218, Note_on_c, 1, 66, 41
5, 31227, Note_on_c, 1, 74, 59
5, 31442, Note_on_c, 1, 67, 50
5, 31446, Note_on_c, 1, 75, 42
5, 31458, Note_on_c, 1, 66, 0
5, 31467, Note_on_c, 1, 74, 0
5, 31682, Note_on_c, 1, 67, 0
5, 31686, Note_on_c, 1, 75, 0
5, 31691, Note_on_c, 1, 69, 54
5, 31700, Note_on_c, 1, 77, 59
5, 31922, Note_on_c, 1, 79, 54
5, 31925, Note_on_c, 1, 71, 45
5, 31931, Note_on_c, 1, 69, 0
5, 31940, Note_on_c, 1, 77, 0
5, 32162, Note_on_c, 1, 79, 0
5, 32164, Note_on_c, 1, 73, 47
5, 32165, Note_on_c, 1, 71, 0
5, 32185, Note_on_c, 1, 81, 43
5, 32404, Note_on_c, 1, 73, 0
5, 32421, Note_on_c, 1, 75, 46
5, 32424, Note_on_c, 1, 83, 40
5, 32425, Note_on_c, 1, 81, 0
5, 32661, Note_on_c, 1, 75, 0
5, 32661, Note_on_c, 1, 74, 55
5, 32664, Note_on_c, 1, 83, 0
5, 32664, Note_on_c, 1, 82, 50
5, 32887, Note_on_c, 1, 81, 43
5, 32892, Note_on_c, 1, 72, 48
5, 32901, Note_on_c, 1, 74, 0
5, 32904, Note_on_c, 1, 82, 0
5, 33124, Note_on_c, 1, 70, 58
5, 33127, Note_on_c, 1, 81, 0
5, 33132, Note_on_c, 1, 72, 0
5, 33146, Note_on_c, 1, 79, 48
5, 33364, Note_on_c, 1, 70, 0
5, 33364, Note_on_c, 1, 68, 56
5, 33371, Note_on_c, 1, 77, 57
5, 33386, Note_on_c, 1, 79, 0
5, 33601, Note_on_c, 1, 74, 42
5, 33604, Note_on_c, 1, 68, 0
5, 33609, Note_on_c, 1, 67, 44
5, 33611, Note_on_c, 1, 77, 0
5, 33841, Note_on_c, 1, 74, 0
5, 33842, Note_on_c, 1, 65, 46
5, 33849, Note_on_c, 1, 67, 0
5, 33850, Note_on_c, 1, 68, 54
5, 34082, Note_on_c, 1, 65, 0
5, 34090, Note_on_c, 1, 68, 0
5, 34095, Note_on_c, 1, 66, 40
5, 34099, Note_on_c, 1, 74, 44
5, 34332, Note_on_c, 1, 75, 42
5, 34335, Note_on_c, 1, 66, 0
5, 34339, Note_on_c, 1, 74, 0
5, 34347, Note_on_c, 1, 67, 39
5, 34572, Note_on_c, 1, 75, 0
5, 34574, Note_on_c, 1, 77, 40
5, 34585, Note_on_c, 1, 69, 43
5, 34587, Note_on_c, 1, 67, 0
5, 34804, Note_on_c, 1, 71, 57
5, 34814, Note_on_c, 1, 77, 0
5, 34821, Note_on_c, 1, 79, 46
5, 34825, Note_on_c, 1, 69, 0
5, 35044, Note_on_c, 1, 71, 0
5, 35045, Note_on_c, 1, 77, 51
5, 35061, Note_on_c, 1, 79, 0
5, 35068, Note_on_c, 1, 74, 53
5, 35188, Note_on_c, 1, 74, 0
5, 35285, Note_on_c, 1, 77, 0
5, 35296, Note_on_c, 1, 74, 58
5, 35524, Note_on_c, 1, 74, 0
5, 183846, Note_on_c, 1, 71, 84
5, 184566, Note_on_c, 1, 71, 0
5, 184584, Note_on_c, 1, 70, 84
5, 184801, Note_on_c, 1, 71, 78
5, 184824, Note_on_c, 1, 70, 0
5, 185281, Note_on_c, 1, 71, 0
5, 185284, Note_on_c, 1, 67, 70
5, 185524, Note_on_c, 1, 67, 0
5, 185543, Note_on_c, 1, 64, 80
5, 185766, Note_on_c, 1, 70, 79
5, 185783, Note_on_c, 1, 64, 0
5, 186246, Note_on_c, 1, 70, 0
5, 186252, Note_on_c, 1, 67, 66
5, 186636, Note_on_c, 1, 67, 0
5, 186731, Note_on_c, 1, 64, 79
5, 187211, Note_on_c, 1, 64, 0
5, 187225, Note_on_c, 1, 67, 84
5, 187442, Note_on_c, 1, 64, 70
5, 187465, Note_on_c, 1, 67, 0
5, 187682, Note_on_c, 1, 64, 0
5, 187693, Note_on_c, 1, 71, 82
5, 188168, Note_on_c, 1, 68, 66
5, 188173, Note_on_c, 1, 71, 0
5, 188648, Note_on_c, 1, 68, 0
5, 188662, Note_on_c, 1, 70, 81
5, 188897, Note_on_c, 1, 71, 68
5, 188902, Note_on_c, 1, 70, 0
5, 189136, Note_on_c, 1, 67, 68
5, 189137, Note_on_c, 1, 71, 0
5, 189520, Note_on_c, 1, 67, 0
5, 191547, Note_on_c, 1, 64, 84
5, 192011, Note_on_c, 1, 67, 67
5, 192027, Note_on_c, 1, 64, 0
5, 192249, Note_on_c, 1, 64, 75
5, 192251, Note_on_c, 1, 67, 0
5, 192489, Note_on_c, 1, 64, 0
5, 192503, Note_on_c, 1, 71, 70
5, 192974, Note_on_c, 1, 69, 85
5, 192983, Note_on_c, 1, 71, 0
5, 193454, Note_on_c, 1, 69, 0
5, 193455, Note_on_c, 1, 68, 76
5, 193695, Note_on_c, 1, 68, 0
5, 193707, Note_on_c, 1, 71, 68
5, 193923, Note_on_c, 1, 69, 79
5, 193947, Note_on_c, 1, 71, 0
5, 194403, Note_on_c, 1, 69, 0
5, 194419, Note_on_c, 1, 71, 70
5, 194899, Note_on_c, 1, 71, 0
5, 194906, Note_on_c, 1, 77, 80
5, 195363, Note_on_c, 1, 71, 83
5, 195386, Note_on_c, 1, 77, 0
5, 195843, Note_on_c, 1, 71, 0
5, 195853, Note_on_c, 1, 70, 71
5, 196084, Note_on_c, 1, 69, 81
5, 196093, Note_on_c, 1, 70, 0
5, 196323, Note_on_c, 1, 71, 67
5, 196324, Note_on_c, 1, 69, 0
5, 196803, Note_on_c, 1, 71, 0
5, 196811, Note_on_c, 1, 77, 77
5, 197291, Note_on_c, 1, 77, 0
5, 197300, Note_on_c, 1, 71, 80
5, 197767, Note_on_c, 1, 70, 68
5, 197780, Note_on_c, 1, 71, 0
5, 198007, Note_on_c, 1, 70, 0
5, 198015, Note_on_c, 1, 71, 68
5, 198254, Note_on_c, 1, 70, 78
5, 198255, Note_on_c, 1, 71, 0
5, 198481, Note_on_c, 1, 68, 82
5, 198494, Note_on_c, 1, 70, 0
5, 198720, Note_on_c, 1, 69, 74
5, 198721, Note_on_c, 1, 68, 0
5, 199200, Note_on_c, 1, 69, 0
5, 199215, Note_on_c, 1, 67, 67
5, 199695, Note_on_c, 1, 67, 0
5, 199708, Note_on_c, 1, 68, 65
5, 200188, Note_on_c, 1, 68, 0
5, 216744, Note_on_c, 1, 78, 101
5, 216851, Note_on_c, 1, 78, 0
5, 217922, Note_on_c, 1, 78, 100
5, 218029, Note_on_c, 1, 78, 0
5, 221305, Note_on_c, 1, 78, 101
5, 221412, Note_on_c, 1, 78, 0
5, 222981, Note_on_c, 1, 78, 101
5, 223088, Note_on_c, 1, 78, 0
5, 224166, Note_on_c, 1, 66, 79
5, 224175, Note_on_c, 1, 61, 94
5, 224197, Note_on_c, 1, 66, 0
5, 224206, Note_on_c, 1, 61, 0
5, 224251, Note_on_c, 1, 67, 95
5, 224252, Note_on_c, 1, 62, 97
5, 224283, Note_on_c, 1, 67, 0
5, 224284, Note_on_c, 1, 62, 0
5, 224332, Note_on_c, 1, 63, 96
5, 224345, Note_on_c, 1, 68, 109
5, 224364, Note_on_c, 1, 63, 0
5, 224377, Note_on_c, 1, 68, 0
5, 224411, Note_on_c, 1, 64, 115
5, 224415, Note_on_c, 1, 69, 113
5, 224442, Note_on_c, 1, 64, 0
5, 224446, Note_on_c, 1, 69, 0
5, 224481, Note_on_c, 1, 70, 111
5, 224504, Note_on_c, 1, 65, 107
5, 224513, Note_on_c, 1, 70, 0
5, 224536, Note_on_c, 1, 65, 0
5, 224567, Note_on_c, 1, 71, 114
5, 224582, Note_on_c, 1, 66, 113
5, 224599, Note_on_c, 1, 71, 0
5, 224614, Note_on_c, 1, 66, 0
5, 224644, Note_on_c, 1, 72, 87
5, 224650, Note_on_c, 1, 67, 82
5, 224691, Note_on_c, 1, 72, 0
5, 224697, Note_on_c, 1, 67, 0
5, 225141, Note_on_c, 1, 79, 87
5, 225261, Note_on_c, 1, 79, 0
5, 228491, Note_on_c, 1, 67, 88
5, 228508, Note_on_c, 1, 61, 88
5, 228547, Note_on_c, 1, 67, 0
5, 228566, Note_on_c, 1, 72, 92
5, 228566, Note_on_c, 1, 67, 99
5, 228568, Note_on_c, 1, 61, 0
5, 228585, Note_on_c, 1, 67, 0
5, 228604, Note_on_c, 1, 67, 95
5, 228615, Note_on_c, 1, 61, 98
5, 228626, Note_on_c, 1, 72, 0
5, 228646, Note_on_c, 1, 67, 0
5, 228665, Note_on_c, 1, 67, 87
5, 228675, Note_on_c, 1, 61, 0
5, 228688, Note_on_c, 1, 72, 100
5, 228715, Note_on_c, 1, 67, 0
5, 228735, Note_on_c, 1, 61, 91
5, 228735, Note_on_c, 1, 67, 84
5, 228748, Note_on_c, 1, 72, 0
5, 228787, Note_on_c, 1, 67, 0
5, 228794, Note_on_c, 1, 72, 97
5, 228795, Note_on_c, 1, 61, 0
5, 228806, Note_on_c, 1, 67, 105
5, 228837, Note_on_c, 1, 67, 0
5, 228854, Note_on_c, 1, 72, 0
5, 228856, Note_on_c, 1, 67, 103
5, 228867, Note_on_c, 1, 61, 92
5, 228891, Note_on_c, 1, 67, 0
5, 228910, Note_on_c, 1, 67, 104
5, 228927, Note_on_c, 1, 61, 0
5, 228927, Note_on_c, 1, 72, 89
5, 228953, Note_on_c, 1, 67, 0
5, 228963, Note_on_c, 1, 61, 89
5, 228972, Note_on_c, 1, 67, 90
5, 228987, Note_on_c, 1, 72, 0
5, 229017, Note_on_c, 1, 67, 0
5, 229023, Note_on_c, 1, 61, 0
5, 229036, Note_on_c, 1, 67, 96
5, 229049, Note_on_c, 1, 72, 98
5, 229075, Note_on_c, 1, 67, 0
5, 229087, Note_on_c, 1, 61, 109
5, 229094, Note_on_c, 1, 67, 102
5, 229109, Note_on_c, 1, 72, 0
5, 229142, Note_on_c, 1, 67, 0
5, 229143, Note_on_c, 1, 72, 112
5, 229147, Note_on_c, 1, 61, 0
5, 229161, Note_on_c, 1, 67, 103
5, 229182, Note_on_c, 1, 67, 0
5, 229201, Note_on_c, 1, 61, 100
5, 229202, Note_on_c, 1, 67, 99
5, 229203, Note_on_c, 1, 72, 0
5, 229253, Note_on_c, 1, 67, 0
5, 229261, Note_on_c, 1, 61, 0
5, 229272, Note_on_c, 1, 67, 108
5, 229280, Note_on_c, 1, 72, 114
5, 229315, Note_on_c, 1, 67, 0
5, 229324, Note_on_c, 1, 61, 113
5, 229334, Note_on_c, 1, 67, 108
5, 229340, Note_on_c, 1, 72, 0
5, 229372, Note_on_c, 1, 67, 0
5, 229384, Note_on_c, 1, 61, 0
5, 229388, Note_on_c, 1, 72, 108
5, 229391, Note_on_c, 1, 67, 109
5, 229448, Note_on_c, 1, 72, 0
5, 229449, Note_on_c, 1, 67, 0
5, 229468, Note_on_c, 1, 67, 109
5, 229469, Note_on_c, 1, 61, 114
5, 229504, Note_on_c, 1, 67, 0
5, 229524, Note_on_c, 1, 67, 112
5, 229526, Note_on_c, 1, 72, 102
5, 229529, Note_on_c, 1, 61, 0
5, 229550, Note_on_c, 1, 67, 0
5, 229569, Note_on_c, 1, 67, 115
5, 229574, Note_on_c, 1, 61, 107
5, 229586, Note_on_c, 1, 72, 0
5, 229618, Note_on_c, 1, 67, 0
5, 229620, Note_on_c, 1, 72, 116
5, 229634, Note_on_c, 1, 61, 0
5, 229637, Note_on_c, 1, 67, 118
5, 229664, Note_on_c, 1, 67, 0
5, 229680, Note_on_c, 1, 72, 0
5, 229683, Note_on_c, 1, 67, 122
5, 229697, Note_on_c, 1, 61, 111
5, 229731, Note_on_c, 1, 67, 0
5, 229750, Note_on_c, 1, 67, 120
5, 229757, Note_on_c, 1, 61, 0
5, 229757, Note_on_c, 1, 72, 127
5, 229784, Note_on_c, 1, 67, 0
5, 229803, Note_on_c, 1, 67, 127
5, 229817, Note_on_c, 1, 72, 0
5, 229822, Note_on_c, 1, 61, 125
5, 229845, Note_on_c, 1, 67, 0
5, 229862, Note_on_c, 1, 72, 117
5, 229864, Note_on_c, 1, 67, 124
5, 229882, Note_on_c, 1, 61, 0
5, 229922, Note_on_c, 1, 72, 0
5, 229924, Note_on_c, 1, 67, 0
5, 229941, Note_on_c, 1, 79, 88
5, 230061, Note_on_c, 1, 79, 0
5, 234008, Note_on_c, 1, 61, 84
5, 234024, Note_on_c, 1, 66, 93
5, 234039, Note_on_c, 1, 61, 0
5, 234055, Note_on_c, 1, 66, 0
5, 234093, Note_on_c, 1, 62, 93
5, 234097, Note_on_c, 1, 67, 84
5, 234125, Note_on_c, 1, 62, 0
5, 234129, Note_on_c, 1, 67, 0
5, 234173, Note_on_c, 1, 68, 101
5, 234188, Note_on_c, 1, 63, 109
5, 234205, Note_on_c, 1, 68, 0
5, 234220, Note_on_c, 1, 63, 0
5, 234244, Note_on_c, 1, 69, 100
5, 234254, Note_on_c, 1, 64, 113
5, 234275, Note_on_c, 1, 69, 0
5, 234285, Note_on_c, 1, 64, 0
5, 234323, Note_on_c, 1, 70, 116
5, 234344, Note_on_c, 1, 65, 123
5, 234355, Note_on_c, 1, 70, 0
5, 234376, Note_on_c, 1, 65, 0
5, 234410, Note_on_c, 1, 71, 127
5, 234427, Note_on_c, 1, 66, 117
5, 234442, Note_on_c, 1, 71, 0
5, 234459, Note_on_c, 1, 66, 0
5, 234491, Note_on_c, 1, 67, 92
5, 234494, Note_on_c, 1, 72, 81
5, 234538, Note_on_c, 1, 67, 0
5, 234541, Note_on_c, 1, 72, 0
5, 234982, Note_on_c, 1, 79, 94
5, 235102, Note_on_c, 1, 79, 0
5, 240490, Note_on_c, 1, 78, 94
5, 240597, Note_on_c, 1, 78, 0
5, 243862, Note_on_c, 1, 78, 111
5, 243969, Note_on_c, 1, 78, 0
5, 245062, Note_on_c, 1, 78, 95
5, 245169, Note_on_c, 1, 78, 0
5, 246722, Note_on_c, 1, 78, 91
5, 246829, Note_on_c, 1, 78, 0
5, 247935, Note_on_c, 1, 78, 99
5, 248042, Note_on_c, 1, 78, 0
5, 249293, Note_on_c, 1, 70, 102
5, 249389, Note_on_c, 1, 70, 0
5, 249445, Note_on_c, 1, 72, 106
5, 249508, Note_on_c, 1, 72, 0
5, 249760, Note_on_c, 1, 70, 99
5, 249856, Note_on_c, 1, 70, 0
5, 249927, Note_on_c, 1, 68, 94
5, 249990, Note_on_c, 1, 68, 0
5, 250250, Note_on_c, 1, 66, 107
5, 250346, Note_on_c, 1, 66, 0
5, 250413, Note_on_c, 1, 68, 94
5, 250476, Note_on_c, 1, 68, 0
5, 251458, Note_on_c, 1, 70, 95
5, 251554, Note_on_c, 1, 70, 0
5, 251616, Note_on_c, 1, 72, 96
5, 251679, Note_on_c, 1, 72, 0
5, 251932, Note_on_c, 1, 70, 93
5, 252028, Note_on_c, 1, 70, 0
5, 252101, Note_on_c, 1, 68, 109
5, 252164, Note_on_c, 1, 68, 0
5, 252410, Note_on_c, 1, 66, 109
5, 252506, Note_on_c, 1, 66, 0
5, 252566, Note_on_c, 1, 68, 102
5, 252629, Note_on_c, 1, 68, 0
5, 252903, Note_on_c, 1, 66, 102
5, 252999, Note_on_c, 1, 66, 0
5, 253053, Note_on_c, 1, 68, 98
5, 253116, Note_on_c, 1, 68, 0
5, 254105, Note_on_c, 1, 70, 108
5, 254201, Note_on_c, 1, 70, 0
5, 254248, Note_on_c, 1, 72, 93
5, 254311, Note_on_c, 1, 72, 0
5, 254563, Note_on_c, 1, 70, 108
5, 254659, Note_on_c, 1, 70, 0
5, 254735, Note_on_c, 1, 68, 95
5, 254798, Note_on_c, 1, 68, 0
5, 255050, Note_on_c, 1, 66, 95
5, 255146, Note_on_c, 1, 66, 0
5, 255209, Note_on_c, 1, 68, 95
5, 255272, Note_on_c, 1, 68, 0
5, 255526, Note_on_c, 1, 70, 92
5, 255622, Note_on_c, 1, 70, 0
5, 255703, Note_on_c, 1, 72, 101
5, 255766, Note_on_c, 1, 72, 0
5, 255866, Note_on_c, 1, 70, 111
5, 255986, Note_on_c, 1, 70, 0
5, 255987, Note_on_c, 1, 68, 91
5, 256107, Note_on_c, 1, 68, 0
5, 256340, Note_on_c, 1, 66, 109
5, 256460, Note_on_c, 1, 66, 0
5, 256461, Note_on_c, 1, 68, 106
5, 256581, Note_on_c, 1, 68, 0
5, 259363, Note_on_c, 1, 70, 102
5, 259459, Note_on_c, 1, 70, 0
5, 259548, Note_on_c, 1, 72, 99
5, 259611, Note_on_c, 1, 72, 0
5, 259867, Note_on_c, 1, 70, 102
5, 259963, Note_on_c, 1, 70, 0
5, 260016, Note_on_c, 1, 68, 108
5, 260079, Note_on_c, 1, 68, 0
5, 260319, Note_on_c, 1, 66, 107
5, 260415, Note_on_c, 1, 66, 0
5, 260495, Note_on_c, 1, 68, 109
5, 260558, Note_on_c, 1, 68, 0
5, 260826, Note_on_c, 1, 70, 91
5, 260922, Note_on_c, 1, 70, 0
5, 260983, Note_on_c, 1, 72, 99
5, 261046, Note_on_c, 1, 72, 0
5, 261289, Note_on_c, 1, 70, 110
5, 261385, Note_on_c, 1, 70, 0
5, 261448, Note_on_c, 1, 68, 100
5, 261511, Note_on_c, 1, 68, 0
5, 261621, Note_on_c, 1, 66, 102
5, 261736, Note_on_c, 1, 68, 98
5, 261741, Note_on_c, 1, 66, 0
5, 261856, Note_on_c, 1, 68, 0
5, 262266, Note_on_c, 1, 70, 101
5, 262362, Note_on_c, 1, 70, 0
5, 262423, Note_on_c, 1, 72, 97
5, 262486, Note_on_c, 1, 72, 0
5, 262571, Note_on_c, 1, 70, 97
5, 262691, Note_on_c, 1, 70, 0
5, 262695, Note_on_c, 1, 68, 106
5, 262815, Note_on_c, 1, 68, 0
5, 263057, Note_on_c, 1, 66, 95
5, 263177, Note_on_c, 1, 66, 0
5, 263178, Note_on_c, 1, 68, 103
5, 263298, Note_on_c, 1, 68, 0
5, 277687, Note_on_c, 1, 76, 76
5, 277807, Note_on_c, 1, 76, 0
5, 278161, Note_on_c, 1, 79, 66
5, 278281, Note_on_c, 1, 79, 0
5, 278650, Note_on_c, 1, 80, 83
5, 278770, Note_on_c, 1, 80, 0
5, 279141, Note_on_c, 1, 77, 75
5, 279261, Note_on_c, 1, 77, 0
5, 279604, Note_on_c, 1, 79, 83
5, 279724, Note_on_c, 1, 79, 0
5, 279934, Note_on_c, 1, 73, 96
5, 279993, Note_on_c, 1, 72, 93
5, 280003, Note_on_c, 1, 73, 0
5, 280048, Note_on_c, 1, 70, 109
5, 280061, Note_on_c, 1, 72, 0
5, 280116, Note_on_c, 1, 70, 0
5, 280128, Note_on_c, 1, 68, 101
5, 280196, Note_on_c, 1, 68, 0
5, 280200, Note_on_c, 1, 66, 111
5, 280269, Note_on_c, 1, 66, 0
5, 280269, Note_on_c, 1, 65, 98
5, 280326, Note_on_c, 1, 63, 93
5, 280337, Note_on_c, 1, 65, 0
5, 280394, Note_on_c, 1, 63, 0
5, 280409, Note_on_c, 1, 65, 104
5, 280478, Note_on_c, 1, 65, 0
5, 280482, Note_on_c, 1, 66, 109
5, 280530, Note_on_c, 1, 68, 96
5, 280550, Note_on_c, 1, 66, 0
5, 280598, Note_on_c, 1, 68, 0
5, 280606, Note_on_c, 1, 70, 106
5, 280669, Note_on_c, 1, 72, 101
5, 280674, Note_on_c, 1, 70, 0
5, 280732, Note_on_c, 1, 73, 108
5, 280738, Note_on_c, 1, 72, 0
5, 280800, Note_on_c, 1, 73, 0
5, 280824, Note_on_c, 1, 76, 110
5, 280944, Note_on_c, 1, 76, 0
5, 281531, Note_on_c, 1, 76, 78
5, 281651, Note_on_c, 1, 76, 0
5, 282010, Note_on_c, 1, 79, 78
5, 282130, Note_on_c, 1, 79, 0
5, 282495, Note_on_c, 1, 80, 66
5, 282615, Note_on_c, 1, 80, 0
5, 282988, Note_on_c, 1, 77, 82
5, 283108, Note_on_c, 1, 77, 0
5, 283453, Note_on_c, 1, 79, 70
5, 283573, Note_on_c, 1, 79, 0
5, 283922, Note_on_c, 1, 79, 75
5, 284042, Note_on_c, 1, 79, 0
5, 284238, Note_on_c, 1, 73, 91
5, 284303, Note_on_c, 1, 72, 109
5, 284307, Note_on_c, 1, 73, 0
5, 284371, Note_on_c, 1, 72, 0
5, 284388, Note_on_c, 1, 70, 102
5, 284456, Note_on_c, 1, 70, 0
5, 284461, Note_on_c, 1, 68, 98
5, 284518, Note_on_c, 1, 66, 98
5, 284529, Note_on_c, 1, 68, 0
5, 284573, Note_on_c, 1, 65, 106
5, 284587, Note_on_c, 1, 66, 0
5, 284641, Note_on_c, 1, 65, 0
5, 284665, Note_on_c, 1, 63, 111
5, 284709, Note_on_c, 1, 65, 107
5, 284733, Note_on_c, 1, 63, 0
5, 284778, Note_on_c, 1, 65, 0
5, 284778, Note_on_c, 1, 66, 101
5, 284846, Note_on_c, 1, 66, 0
5, 284854, Note_on_c, 1, 68, 92
5, 284922, Note_on_c, 1, 68, 0
5, 284929, Note_on_c, 1, 70, 98
5, 284986, Note_on_c, 1, 72, 108
5, 284997, Note_on_c, 1, 70, 0
5, 285055, Note_on_c, 1, 72, 0
5, 285074, Note_on_c, 1, 73, 108
5, 285142, Note_on_c, 1, 73, 0
5, 285362, Note_on_c, 1, 76, 82
5, 285482, Note_on_c, 1, 76, 0
5, 285843, Note_on_c, 1, 79, 74
5, 285963, Note_on_c, 1, 79, 0
5, 286336, Note_on_c, 1, 80, 80
5, 286456, Note_on_c, 1, 80, 0
5, 286647, Note_on_c, 1, 73, 96
5, 286702, Note_on_c, 1, 72, 95
5, 286716, Note_on_c, 1, 73, 0
5, 286770, Note_on_c, 1, 72, 0
5, 286776, Note_on_c, 1, 70, 106
5, 286844, Note_on_c, 1, 70, 0
5, 286861, Note_on_c, 1, 68, 106
5, 286912, Note_on_c, 1, 66, 101
5, 286929, Note_on_c, 1, 68, 0
5, 286975, Note_on_c, 1, 65, 98
5, 286981, Note_on_c, 1, 66, 0
5, 287043, Note_on_c, 1, 65, 0
5, 287046, Note_on_c, 1, 63, 101
5, 287114, Note_on_c, 1, 63, 0
5, 287132, Note_on_c, 1, 65, 111
5, 287201, Note_on_c, 1, 65, 0
5, 287204, Note_on_c, 1, 66, 99
5, 287247, Note_on_c, 1, 68, 94
5, 287272, Note_on_c, 1, 66, 0
5, 287315, Note_on_c, 1, 68, 0
5, 287342, Note_on_c, 1, 70, 93
5, 287385, Note_on_c, 1, 72, 110
5, 287410, Note_on_c, 1, 70, 0
5, 287454, Note_on_c, 1, 72, 0
5, 287472, Note_on_c, 1, 73, 95
5, 287540, Note_on_c, 1, 73, 0
5, 288261, Note_on_c, 1, 68, 101
5, 288381, Note_on_c, 1, 68, 0
5, 288508, Note_on_c, 1, 67, 102
5, 288628, Note_on_c, 1, 67, 0
5, 288720, Note_on_c, 1, 66, 91
5, 288840, Note_on_c, 1, 66, 0
5, 288960, Note_on_c, 1, 65, 111
5, 289080, Note_on_c, 1, 65, 0
5, 289205, Note_on_c, 1, 64, 102
5, 289445, Note_on_c, 1, 64, 0
5, 291384, Note_on_c, 1, 78, 96
5, 291491, Note_on_c, 1, 78, 0
5, 292576, Note_on_c, 1, 78, 95
5, 292683, Note_on_c, 1, 78, 0
5, 295942, Note_on_c, 1, 78, 91
5, 296049, Note_on_c, 1, 78, 0
5, 297612, Note_on_c, 1, 78, 106
5, 297719, Note_on_c, 1, 78, 0
5, 298807, Note_on_c, 1, 78, 100
5, 298914, Note_on_c, 1, 78, 0
5, 301448, Note_on_c, 1, 78, 95
5, 301555, Note_on_c, 1, 78, 0
5, 304824, Note_on_c, 1, 78, 95
5, 304931, Note_on_c, 1, 78, 0
5, 306002, Note_on_c, 1, 78, 99
5, 306109, Note_on_c, 1, 78, 0
5, 307694, Note_on_c, 1, 78, 111
5, 307801, Note_on_c, 1, 78, 0
5, 308888, Note_on_c, 1, 78, 94
5, 308995, Note_on_c, 1, 78, 0
5, 428891, Note_on_c, 1, 68, 47
5, 428898, Note_on_c, 1, 70, 32
5, 429731, Note_on_c, 1, 68, 0
5, 429738, Note_on_c, 1, 70, 0
5, 429856, Note_on_c, 1, 70, 41
5, 429867, Note_on_c, 1, 68, 31
5, 431656, Note_on_c, 1, 70, 0
5, 431667, Note_on_c, 1, 68, 0
5, 431760, Control_c, 1, 11, 127
5, 431767, Note_on_c, 1, 70, 35
5, 431775, Control_c, 1, 11, 126
5, 431786, Note_on_c, 1, 68, 32
5, 431790, Control_c, 1, 11, 125
5, 431805, Control_c, 1, 11, 124
5, 431820, Control_c, 1, 11, 123
5, 431836, Control_c, 1, 11, 122
5, 431851, Control_c, 1, 11, 121
5, 431866, Control_c, 1, 11, 120
5, 431881, Control_c, 1, 11, 119
5, 431897, Control_c, 1, 11, 118
5, 431912, Control_c, 1, 11, 117
5, 431927, Control_c, 1, 11, 116
5, 431942, Control_c, 1, 11, 115
5, 431958, Control_c, 1, 11, 114
5, 431973, Control_c, 1, 11, 113
5, 431988, Control_c, 1, 11, 112
5, 432003, Control_c, 1, 11, 111
5, 432019, Control_c, 1, 11, 110
5, 432034, Control_c, 1, 11, 109
5, 432049, Control_c, 1, 11, 108
5, 432064, Control_c, 1, 11, 107
5, 432080, Control_c, 1, 11, 106
5, 432095, Control_c, 1, 11, 105
5, 432110, Control_c, 1, 11, 104
5, 432125, Control_c, 1, 11, 103
5, 432141, Control_c, 1, 11, 102
5, 432156, Control_c, 1, 11, 101
5, 432171, Control_c, 1, 11, 100
5, 432186, Control_c, 1, 11, 99
5, 432202, Control_c, 1, 11, 98
5, 432217, Control_c, 1, 11, 97
5, 432232, Control_c, 1, 11, 96
5, 432247, Control_c, 1, 11, 95
5, 432262, Control_c, 1, 11, 94
5, 432277, Control_c, 1, 11, 93
5, 432293, Control_c, 1, 11, 92
5, 432308, Control_c, 1, 11, 91
5, 432323, Control_c, 1, 11, 90
5, 432338, Control_c, 1, 11, 89
5, 432354, Control_c, 1, 11, 88
5, 432369, Control_c, 1, 11, 87
5, 432384, Control_c, 1, 11, 86
5, 432399, Control_c, 1, 11, 85
5, 432415, Control_c, 1, 11, 84
5, 432430, Control_c, 1, 11, 83
5, 432445, Control_c, 1, 11, 82
5, 432460, Control_c, 1, 11, 81
5, 432476, Control_c, 1, 11, 80
5, 432491, Control_c, 1, 11, 79
5, 432506, Control_c, 1, 11, 78
5, 432521, Control_c, 1, 11, 77
5, 432537, Control_c, 1, 11, 76
5, 432552, Control_c, 1, 11, 75
5, 432567, Control_c, 1, 11, 74
5, 432582, Control_c, 1, 11, 73
5, 432598, Control_c, 1, 11, 72
5, 432613, Control_c, 1, 11, 71
5, 432628, Control_c, 1, 11, 70
5, 432643, Control_c, 1, 11, 69
5, 432659, Control_c, 1, 11, 68
5, 432674, Control_c, 1, 11, 67
5, 432689, Control_c, 1, 11, 66
5, 432704, Control_c, 1, 11, 65
5, 432727, Note_on_c, 1, 70, 0
5, 432746, Note_on_c, 1, 68, 0
5, 435120, Control_c, 1, 11, 127
5, 443780, Note_on_c, 1, 66, 37
5, 443900, Note_on_c, 1, 66, 0
5, 444265, Note_on_c, 1, 69, 90
5, 444565, Note_on_c, 1, 69, 0
5, 444567, Note_on_c, 1, 68, 86
5, 444611, Note_on_c, 1, 67, 82
5, 444627, Note_on_c, 1, 68, 0
5, 444670, Note_on_c, 1, 66, 63
5, 444671, Note_on_c, 1, 67, 0
5, 444730, Note_on_c, 1, 66, 0
5, 444743, Note_on_c, 1, 65, 47
5, 444863, Note_on_c, 1, 65, 0
5, 445684, Note_on_c, 1, 69, 96
5, 445984, Note_on_c, 1, 69, 0
5, 445984, Note_on_c, 1, 68, 96
5, 446044, Note_on_c, 1, 68, 0
5, 446064, Note_on_c, 1, 67, 77
5, 446110, Note_on_c, 1, 66, 67
5, 446124, Note_on_c, 1, 67, 0
5, 446170, Note_on_c, 1, 66, 0
5, 446176, Note_on_c, 1, 65, 66
5, 446356, Note_on_c, 1, 65, 0
5, 446414, Note_on_c, 1, 73, 58
5, 446594, Note_on_c, 1, 73, 0
5, 446655, Note_on_c, 1, 68, 75
5, 446754, Note_on_c, 1, 68, 0
5, 446824, Note_on_c, 1, 62, 86
5, 446924, Note_on_c, 1, 62, 0
5, 446967, Note_on_c, 1, 63, 95
5, 447067, Note_on_c, 1, 63, 0
5, 450985, Note_on_c, 1, 68, 55
5, 451225, Note_on_c, 1, 68, 0
5, 451226, Note_on_c, 1, 70, 39
5, 451446, Note_on_c, 1, 71, 69
5, 451466, Note_on_c, 1, 70, 0
5, 451686, Note_on_c, 1, 71, 0
5, 451694, Note_on_c, 1, 72, 73
5, 451814, Note_on_c, 1, 72, 0
5, 453863, Note_on_c, 1, 69, 55
5, 454093, Note_on_c, 1, 70, 55
5, 454103, Note_on_c, 1, 69, 0
5, 454333, Note_on_c, 1, 70, 0
5, 454337, Note_on_c, 1, 71, 59
5, 454568, Note_on_c, 1, 72, 75
5, 454577, Note_on_c, 1, 71, 0
5, 454688, Note_on_c, 1, 72, 0
5, 455768, Note_on_c, 1, 69, 41
5, 456008, Note_on_c, 1, 69, 0
5, 456010, Note_on_c, 1, 70, 43
5, 456250, Note_on_c, 1, 70, 0
5, 456263, Note_on_c, 1, 71, 65
5, 456490, Note_on_c, 1, 72, 82
5, 456503, Note_on_c, 1, 71, 0
5, 456610, Note_on_c, 1, 72, 0
5, 491285, Note_on_c, 1, 66, 104
5, 491291, Note_on_c, 1, 69, 97
5, 491338, Note_on_c, 1, 66, 0
5, 491344, Note_on_c, 1, 69, 0
5, 491522, Note_on_c, 1, 66, 104
5, 491541, Note_on_c, 1, 69, 105
5, 491629, Note_on_c, 1, 66, 0
5, 491648, Note_on_c, 1, 69, 0
5, 492246, Note_on_c, 1, 67, 95
5, 492261, Note_on_c, 1, 70, 91
5, 492270, Note_on_c, 1, 67, 0
5, 492285, Note_on_c, 1, 70, 0
5, 492365, Note_on_c, 1, 65, 93
5, 492376, Note_on_c, 1, 68, 91
5, 492418, Note_on_c, 1, 65, 0
5, 492429, Note_on_c, 1, 68, 0
5, 492490, Note_on_c, 1, 62, 100
5, 492491, Note_on_c, 1, 66, 94
5, 492543, Note_on_c, 1, 62, 0
5, 492544, Note_on_c, 1, 66, 0
5, 492726, Note_on_c, 1, 69, 95
5, 492737, Note_on_c, 1, 66, 98
5, 492779, Note_on_c, 1, 69, 0
5, 492790, Note_on_c, 1, 66, 0
5, 493680, Note_on_c, 1, 67, 107
5, 493687, Note_on_c, 1, 70, 102
5, 493704, Note_on_c, 1, 67, 0
5, 493711, Note_on_c, 1, 70, 0
5, 493803, Note_on_c, 1, 65, 100
5, 493817, Note_on_c, 1, 68, 108
5, 493856, Note_on_c, 1, 65, 0
5, 493870, Note_on_c, 1, 68, 0
5, 493943, Note_on_c, 1, 62, 100
5, 493948, Note_on_c, 1, 66, 93
5, 493996, Note_on_c, 1, 62, 0
5, 494001, Note_on_c, 1, 66, 0
5, 494526, Note_on_c, 1, 70, 107
5, 494541, Note_on_c, 1, 66, 106
5, 494669, Note_on_c, 1, 70, 0
5, 494684, Note_on_c, 1, 66, 0
5, 494763, Note_on_c, 1, 75, 111
5, 494780, Note_on_c, 1, 70, 109
5, 494906, Note_on_c, 1, 75, 0
5, 494923, Note_on_c, 1, 70, 0
5, 495022, Note_on_c, 1, 78, 91
5, 495026, Note_on_c, 1, 75, 109
5, 495082, Note_on_c, 1, 78, 0
5, 495086, Note_on_c, 1, 75, 0
5, 495123, Note_on_c, 1, 82, 100
5, 495144, Note_on_c, 1, 78, 91
5, 495195, Note_on_c, 1, 82, 0
5, 495216, Note_on_c, 1, 78, 0
5, 495249, Note_on_c, 1, 75, 104
5, 495251, Note_on_c, 1, 78, 92
5, 495309, Note_on_c, 1, 75, 0
5, 495311, Note_on_c, 1, 78, 0
5, 495493, Note_on_c, 1, 66, 110
5, 495502, Note_on_c, 1, 69, 97
5, 495546, Note_on_c, 1, 66, 0
5, 495555, Note_on_c, 1, 69, 0
5, 495728, Note_on_c, 1, 69, 96
5, 495734, Note_on_c, 1, 66, 101
5, 495781, Note_on_c, 1, 69, 0
5, 495787, Note_on_c, 1, 66, 0
5, 496322, Note_on_c, 1, 70, 101
5, 496330, Note_on_c, 1, 67, 107
5, 496375, Note_on_c, 1, 70, 0
5, 496383, Note_on_c, 1, 67, 0
5, 496462, Note_on_c, 1, 65, 103
5, 496463, Note_on_c, 1, 68, 107
5, 496515, Note_on_c, 1, 65, 0
5, 496516, Note_on_c, 1, 68, 0
5, 496567, Note_on_c, 1, 62, 91
5, 496584, Note_on_c, 1, 66, 102
5, 496620, Note_on_c, 1, 62, 0
5, 496637, Note_on_c, 1, 66, 0
5, 496708, Note_on_c, 1, 66, 101
5, 496709, Note_on_c, 1, 63, 101
5, 496780, Note_on_c, 1, 66, 0
5, 496781, Note_on_c, 1, 63, 0
5, 496823, Note_on_c, 1, 70, 96
5, 496828, Note_on_c, 1, 66, 111
5, 496895, Note_on_c, 1, 70, 0
5, 496900, Note_on_c, 1, 66, 0
5, 496921, Note_on_c, 1, 70, 108
5, 496948, Note_on_c, 1, 75, 94
5, 496993, Note_on_c, 1, 70, 0
5, 497020, Note_on_c, 1, 75, 0
5, 497065, Note_on_c, 1, 78, 91
5, 497066, Note_on_c, 1, 75, 108
5, 497137, Note_on_c, 1, 78, 0
5, 497138, Note_on_c, 1, 75, 0
5, 497161, Note_on_c, 1, 70, 103
5, 497177, Note_on_c, 1, 75, 95
5, 497208, Note_on_c, 1, 70, 0
5, 497224, Note_on_c, 1, 75, 0
5, 498002, Note_on_c, 1, 69, 110
5, 498010, Note_on_c, 1, 66, 108
5, 498055, Note_on_c, 1, 69, 0
5, 498063, Note_on_c, 1, 66, 0
5, 498241, Note_on_c, 1, 66, 104
5, 498255, Note_on_c, 1, 69, 110
5, 498294, Note_on_c, 1, 66, 0
5, 498308, Note_on_c, 1, 69, 0
5, 498843, Note_on_c, 1, 70, 96
5, 498866, Note_on_c, 1, 67, 95
5, 498896, Note_on_c, 1, 70, 0
5, 498919, Note_on_c, 1, 67, 0
5, 498972, Note_on_c, 1, 65, 93
5, 498986, Note_on_c, 1, 68, 109
5, 499025, Note_on_c, 1, 65, 0
5, 499039, Note_on_c, 1, 68, 0
5, 499081, Note_on_c, 1, 66, 94
5, 499087, Note_on_c, 1, 62, 106
5, 499134, Note_on_c, 1, 66, 0
5, 499140, Note_on_c, 1, 62, 0
5, 499323, Note_on_c, 1, 69, 110
5, 499344, Note_on_c, 1, 66, 97
5, 499430, Note_on_c, 1, 69, 0
5, 499451, Note_on_c, 1, 66, 0
5, 499702, Note_on_c, 1, 69, 97
5, 499708, Note_on_c, 1, 66, 91
5, 499755, Note_on_c, 1, 69, 0
5, 499761, Note_on_c, 1, 66, 0
5, 499948, Note_on_c, 1, 69, 92
5, 499949, Note_on_c, 1, 66, 105
5, 500001, Note_on_c, 1, 69, 0
5, 500002, Note_on_c, 1, 66, 0
5, 500288, Note_on_c, 1, 67, 95
5, 500309, Note_on_c, 1, 70, 103
5, 500341, Note_on_c, 1, 67, 0
5, 500362, Note_on_c, 1, 70, 0
5, 500407, Note_on_c, 1, 68, 107
5, 500423, Note_on_c, 1, 65, 96
5, 500460, Note_on_c, 1, 68, 0
5, 500476, Note_on_c, 1, 65, 0
5, 500531, Note_on_c, 1, 66, 104
5, 500531, Note_on_c, 1, 62, 109
5, 500584, Note_on_c, 1, 66, 0
5, 500584, Note_on_c, 1, 62, 0
5, 500766, Note_on_c, 1, 66, 98
5, 500769, Note_on_c, 1, 69, 107
5, 500819, Note_on_c, 1, 66, 0
5, 500822, Note_on_c, 1, 69, 0
5, 501006, Note_on_c, 1, 67, 111
5, 501023, Note_on_c, 1, 70, 102
5, 501059, Note_on_c, 1, 67, 0
5, 501076, Note_on_c, 1, 70, 0
5, 501138, Note_on_c, 1, 65, 106
5, 501145, Note_on_c, 1, 68, 106
5, 501191, Note_on_c, 1, 65, 0
5, 501198, Note_on_c, 1, 68, 0
5, 501246, Note_on_c, 1, 62, 103
5, 501254, Note_on_c, 1, 66, 96
5, 501299, Note_on_c, 1, 62, 0
5, 501307, Note_on_c, 1, 66, 0
5, 501492, Note_on_c, 1, 66, 99
5, 501496, Note_on_c, 1, 69, 103
5, 501599, Note_on_c, 1, 66, 0
5, 501603, Note_on_c, 1, 69, 0
5, 501854, Note_on_c, 1, 66, 107
5, 501857, Note_on_c, 1, 69, 99
5, 501907, Note_on_c, 1, 66, 0
5, 501910, Note_on_c, 1, 69, 0
5, 502093, Note_on_c, 1, 66, 109
5, 502105, Note_on_c, 1, 69, 111
5, 502200, Note_on_c, 1, 66, 0
5, 502212, Note_on_c, 1, 69, 0
5, 502441, Note_on_c, 1, 67, 91
5, 502444, Note_on_c, 1, 70, 92
5, 502494, Note_on_c, 1, 67, 0
5, 502497, Note_on_c, 1, 70, 0
5, 502585, Note_on_c, 1, 65, 99
5, 502587, Note_on_c, 1, 68, 93
5, 502638, Note_on_c, 1, 65, 0
5, 502640, Note_on_c, 1, 68, 0
5, 502686, Note_on_c, 1, 66, 95
5, 502703, Note_on_c, 1, 62, 102
5, 502739, Note_on_c, 1, 66, 0
5, 502756, Note_on_c, 1, 62, 0
5, 502945, Note_on_c, 1, 70, 105
5, 502946, Note_on_c, 1, 75, 118
5, 503025, Note_on_c, 1, 70, 0
5, 503026, Note_on_c, 1, 75, 0
5, 503050, Note_on_c, 1, 75, 105
5, 503056, Note_on_c, 1, 78, 116
5, 503130, Note_on_c, 1, 75, 0
5, 503136, Note_on_c, 1, 78, 0
5, 503281, Note_on_c, 1, 75, 113
5, 503284, Note_on_c, 1, 70, 105
5, 503361, Note_on_c, 1, 75, 0
5, 503364, Note_on_c, 1, 70, 0
5, 503520, Note_on_c, 1, 70, 108
5, 503545, Note_on_c, 1, 75, 115
5, 503600, Note_on_c, 1, 70, 0
5, 503625, Note_on_c, 1, 75, 0
5, 503664, Note_on_c, 1, 78, 110
5, 503667, Note_on_c, 1, 75, 118
5, 503744, Note_on_c, 1, 78, 0
5, 503747, Note_on_c, 1, 75, 0
5, 503897, Note_on_c, 1, 78, 108
5, 503900, Note_on_c, 1, 75, 117
5, 503977, Note_on_c, 1, 78, 0
5, 503980, Note_on_c, 1, 75, 0
5, 504123, Note_on_c, 1, 70, 119
5, 504133, Note_on_c, 1, 75, 100
5, 504203, Note_on_c, 1, 70, 0
5, 504213, Note_on_c, 1, 75, 0
5, 531374, Note_on_c, 1, 78, 107
5, 531379, Note_on_c, 1, 75, 93
5, 531380, Note_on_c, 1, 82, 100
5, 531402, Note_on_c, 1, 82, 0
5, 531407, Note_on_c, 1, 78, 0
5, 531414, Note_on_c, 1, 75, 0
5, 531422, Note_on_c, 1, 82, 106
5, 531426, Note_on_c, 1, 78, 91
5, 531433, Note_on_c, 1, 75, 92
5, 531482, Note_on_c, 1, 82, 0
5, 531486, Note_on_c, 1, 78, 0
5, 531493, Note_on_c, 1, 75, 0
5, 531604, Note_on_c, 1, 78, 99
5, 531619, Note_on_c, 1, 82, 105
5, 531624, Note_on_c, 1, 75, 93
5, 531653, Note_on_c, 1, 75, 0
5, 531660, Note_on_c, 1, 78, 0
5, 531661, Note_on_c, 1, 82, 0
5, 531672, Note_on_c, 1, 75, 109
5, 531679, Note_on_c, 1, 78, 104
5, 531680, Note_on_c, 1, 82, 105
5, 531732, Note_on_c, 1, 75, 0
5, 531739, Note_on_c, 1, 78, 0
5, 531740, Note_on_c, 1, 82, 0
5, 531841, Note_on_c, 1, 82, 95
5, 531851, Note_on_c, 1, 75, 91
5, 531863, Note_on_c, 1, 78, 108
5, 531901, Note_on_c, 1, 82, 0
5, 531903, Note_on_c, 1, 78, 0
5, 531907, Note_on_c, 1, 75, 0
5, 531907, Note_on_c, 1, 82, 106
5, 531922, Note_on_c, 1, 78, 109
5, 531926, Note_on_c, 1, 75, 104
5, 531967, Note_on_c, 1, 82, 0
5, 531982, Note_on_c, 1, 78, 0
5, 531986, Note_on_c, 1, 75, 0
5, 532321, Note_on_c, 1, 78, 100
5, 532323, Note_on_c, 1, 82, 92
5, 532343, Note_on_c, 1, 75, 108
5, 532376, Note_on_c, 1, 82, 0
5, 532381, Note_on_c, 1, 78, 0
5, 532381, Note_on_c, 1, 75, 0
5, 532391, Note_on_c, 1, 78, 101
5, 532395, Note_on_c, 1, 82, 94
5, 532401, Note_on_c, 1, 75, 93
5, 532451, Note_on_c, 1, 78, 0
5, 532455, Note_on_c, 1, 82, 0
5, 532461, Note_on_c, 1, 75, 0
5, 532561, Note_on_c, 1, 78, 102
5, 532566, Note_on_c, 1, 82, 92
5, 532578, Note_on_c, 1, 75, 106
5, 532604, Note_on_c, 1, 75, 0
5, 532609, Note_on_c, 1, 78, 0
5, 532614, Note_on_c, 1, 82, 0
5, 532623, Note_on_c, 1, 75, 100
5, 532628, Note_on_c, 1, 78, 96
5, 532634, Note_on_c, 1, 82, 106
5, 532683, Note_on_c, 1, 75, 0
5, 532688, Note_on_c, 1, 78, 0
5, 532694, Note_on_c, 1, 82, 0
5, 532806, Note_on_c, 1, 78, 97
5, 532817, Note_on_c, 1, 75, 91
5, 532826, Note_on_c, 1, 82, 100
5, 532841, Note_on_c, 1, 75, 0
5, 532854, Note_on_c, 1, 78, 0
5, 532860, Note_on_c, 1, 75, 109
5, 532864, Note_on_c, 1, 82, 0
5, 532873, Note_on_c, 1, 78, 99
5, 532884, Note_on_c, 1, 82, 99
5, 532920, Note_on_c, 1, 75, 0
5, 532933, Note_on_c, 1, 78, 0
5, 532944, Note_on_c, 1, 82, 0
5, 533046, Note_on_c, 1, 75, 110
5, 533055, Note_on_c, 1, 82, 98
5, 533067, Note_on_c, 1, 78, 97
5, 533081, Note_on_c, 1, 82, 0
5, 533083, Note_on_c, 1, 78, 0
5, 533101, Note_on_c, 1, 82, 98
5, 533102, Note_on_c, 1, 78, 97
5, 533106, Note_on_c, 1, 75, 0
5, 533128, Note_on_c, 1, 75, 107
5, 533161, Note_on_c, 1, 82, 0
5, 533162, Note_on_c, 1, 78, 0
5, 533188, Note_on_c, 1, 75, 0
5, 533285, Note_on_c, 1, 75, 105
5, 533288, Note_on_c, 1, 82, 102
5, 533303, Note_on_c, 1, 78, 102
5, 533337, Note_on_c, 1, 75, 0
5, 533344, Note_on_c, 1, 82, 0
5, 533347, Note_on_c, 1, 78, 0
5, 533356, Note_on_c, 1, 75, 102
5, 533363, Note_on_c, 1, 82, 98
5, 533366, Note_on_c, 1, 78, 92
5, 533416, Note_on_c, 1, 75, 0
5, 533423, Note_on_c, 1, 82, 0
5, 533426, Note_on_c, 1, 78, 0
5, 533761, Note_on_c, 1, 82, 97
5, 533780, Note_on_c, 1, 78, 111
5, 533788, Note_on_c, 1, 75, 100
5, 533802, Note_on_c, 1, 75, 0
5, 533814, Note_on_c, 1, 78, 0
5, 533821, Note_on_c, 1, 82, 0
5, 533821, Note_on_c, 1, 75, 93
5, 533833, Note_on_c, 1, 78, 96
5, 533843, Note_on_c, 1, 82, 105
5, 533881, Note_on_c, 1, 75, 0
5, 533893, Note_on_c, 1, 78, 0
5, 533903, Note_on_c, 1, 82, 0
5, 534253, Note_on_c, 1, 78, 107
5, 534257, Note_on_c, 1, 82, 109
5, 534265, Note_on_c, 1, 75, 101
5, 534287, Note_on_c, 1, 78, 0
5, 534293, Note_on_c, 1, 82, 0
5, 534299, Note_on_c, 1, 75, 0
5, 534307, Note_on_c, 1, 78, 96
5, 534312, Note_on_c, 1, 82, 97
5, 534318, Note_on_c, 1, 75, 108
5, 534367, Note_on_c, 1, 78, 0
5, 534372, Note_on_c, 1, 82, 0
5, 534378, Note_on_c, 1, 75, 0
5, 534486, Note_on_c, 1, 74, 103
5, 534493, Note_on_c, 1, 77, 98
5, 534495, Note_on_c, 1, 83, 94
5, 534526, Note_on_c, 1, 77, 0
5, 534526, Note_on_c, 1, 83, 0
5, 534544, Note_on_c, 1, 74, 0
5, 534545, Note_on_c, 1, 77, 107
5, 534545, Note_on_c, 1, 83, 94
5, 534563, Note_on_c, 1, 74, 105
5, 534605, Note_on_c, 1, 77, 0
5, 534605, Note_on_c, 1, 83, 0
5, 534623, Note_on_c, 1, 74, 0
5, 534721, Note_on_c, 1, 75, 102
5, 534721, Note_on_c, 1, 82, 111
5, 534745, Note_on_c, 1, 78, 98
5, 534763, Note_on_c, 1, 78, 0
5, 534769, Note_on_c, 1, 82, 0
5, 534781, Note_on_c, 1, 75, 0
5, 534783, Note_on_c, 1, 78, 99
5, 534789, Note_on_c, 1, 82, 107
5, 534800, Note_on_c, 1, 75, 99
5, 534843, Note_on_c, 1, 78, 0
5, 534849, Note_on_c, 1, 82, 0
5, 534860, Note_on_c, 1, 75, 0
5, 535201, Note_on_c, 1, 75, 106
5, 535206, Note_on_c, 1, 82, 104
5, 535215, Note_on_c, 1, 78, 109
5, 535242, Note_on_c, 1, 78, 0
5, 535255, Note_on_c, 1, 82, 0
5, 535257, Note_on_c, 1, 75, 0
5, 535262, Note_on_c, 1, 78, 97
5, 535275, Note_on_c, 1, 82, 91
5, 535276, Note_on_c, 1, 75, 94
5, 535322, Note_on_c, 1, 78, 0
5, 535335, Note_on_c, 1, 82, 0
5, 535336, Note_on_c, 1, 75, 0
5, 535681, Note_on_c, 1, 82, 97
5, 535684, Note_on_c, 1, 78, 104
5, 535705, Note_on_c, 1, 75, 99
5, 535741, Note_on_c, 1, 82, 0
5, 535741, Note_on_c, 1, 82, 109
5, 535743, Note_on_c, 1, 75, 0
5, 535744, Note_on_c, 1, 78, 0
5, 535762, Note_on_c, 1, 75, 93
5, 535763, Note_on_c, 1, 78, 102
5, 535801, Note_on_c, 1, 82, 0
5, 535822, Note_on_c, 1, 75, 0
5, 535823, Note_on_c, 1, 78, 0
5, 535925, Note_on_c, 1, 75, 101
5, 535956, Note_on_c, 1, 75, 0
5, 536003, Note_on_c, 1, 70, 108
5, 536035, Note_on_c, 1, 70, 0
5, 536085, Note_on_c, 1, 66, 100
5, 536117, Note_on_c, 1, 66, 0
5, 536169, Note_on_c, 1, 65, 95
5, 536200, Note_on_c, 1, 65, 0
5, 536240, Note_on_c, 1, 70, 92
5, 536272, Note_on_c, 1, 70, 0
5, 536338, Note_on_c, 1, 73, 99
5, 536370, Note_on_c, 1, 73, 0
5, 536402, Note_on_c, 1, 72, 104
5, 536433, Note_on_c, 1, 72, 0
5, 536500, Note_on_c, 1, 67, 101
5, 536532, Note_on_c, 1, 67, 0
5, 536576, Note_on_c, 1, 63, 111
5, 536608, Note_on_c, 1, 63, 0
5, 536668, Note_on_c, 1, 61, 107
5, 536699, Note_on_c, 1, 61, 0
5, 536737, Note_on_c, 1, 65, 102
5, 536769, Note_on_c, 1, 65, 0
5, 536819, Note_on_c, 1, 70, 109
5, 536851, Note_on_c, 1, 70, 0
5, 536893, Note_on_c, 1, 68, 95
5, 536924, Note_on_c, 1, 68, 0
5, 536983, Note_on_c, 1, 63, 95
5, 537015, Note_on_c, 1, 63, 0
5, 537053, Note_on_c, 1, 60, 92
5, 537085, Note_on_c, 1, 60, 0
5, 537136, Note_on_c, 1, 61, 120
5, 537139, Note_on_c, 1, 64, 113
5, 537159, Note_on_c, 1, 61, 0
5, 537162, Note_on_c, 1, 64, 0
5, 537180, Note_on_c, 1, 63, 113
5, 537203, Note_on_c, 1, 63, 0
5, 537209, Note_on_c, 1, 65, 121
5, 537232, Note_on_c, 1, 65, 0
5, 537243, Note_on_c, 1, 68, 110
5, 537257, Note_on_c, 1, 66, 119
5, 537266, Note_on_c, 1, 68, 0
5, 537280, Note_on_c, 1, 66, 0
5, 537301, Note_on_c, 1, 67, 124
5, 537308, Note_on_c, 1, 72, 104
5, 537324, Note_on_c, 1, 67, 0
5, 537331, Note_on_c, 1, 72, 0
5, 537382, Note_on_c, 1, 74, 119
5, 537388, Note_on_c, 1, 68, 114
5, 537429, Note_on_c, 1, 74, 0
5, 537435, Note_on_c, 1, 68, 0
5, 546016, Note_on_c, 1, 74, 74
5, 546018, Note_on_c, 1, 84, 73
5, 546136, Note_on_c, 1, 74, 0
5, 546138, Note_on_c, 1, 84, 0
5, 546243, Note_on_c, 1, 74, 76
5, 546267, Note_on_c, 1, 84, 73
5, 546363, Note_on_c, 1, 74, 0
5, 546387, Note_on_c, 1, 84, 0
5, 546727, Note_on_c, 1, 84, 78
5, 546747, Note_on_c, 1, 74, 83
5, 546847, Note_on_c, 1, 84, 0
5, 546867, Note_on_c, 1, 74, 0
5, 547221, Note_on_c, 1, 84, 68
5, 547227, Note_on_c, 1, 74, 67
5, 547341, Note_on_c, 1, 84, 0
5, 547347, Note_on_c, 1, 74, 0
5, 547463, Note_on_c, 1, 75, 78
5, 547465, Note_on_c, 1, 81, 77
5, 547583, Note_on_c, 1, 75, 0
5, 547585, Note_on_c, 1, 81, 0
5, 547693, Note_on_c, 1, 74, 78
5, 547706, Note_on_c, 1, 84, 84
5, 547813, Note_on_c, 1, 74, 0
5, 547826, Note_on_c, 1, 84, 0
5, 548165, Note_on_c, 1, 74, 79
5, 548169, Note_on_c, 1, 84, 78
5, 548285, Note_on_c, 1, 74, 0
5, 548289, Note_on_c, 1, 84, 0
5, 548648, Note_on_c, 1, 74, 76
5, 548668, Note_on_c, 1, 84, 73
5, 548768, Note_on_c, 1, 74, 0
5, 548788, Note_on_c, 1, 84, 0
5, 549124, Note_on_c, 1, 74, 79
5, 549133, Note_on_c, 1, 84, 65
5, 549244, Note_on_c, 1, 74, 0
5, 549253, Note_on_c, 1, 84, 0
5, 549366, Note_on_c, 1, 81, 68
5, 549374, Note_on_c, 1, 75, 71
5, 549486, Note_on_c, 1, 81, 0
5, 549494, Note_on_c, 1, 75, 0
5, 549849, Note_on_c, 1, 69, 71
5, 549855, Note_on_c, 1, 78, 69
5, 549969, Note_on_c, 1, 69, 0
5, 549975, Note_on_c, 1, 78, 0
5, 550329, Note_on_c, 1, 78, 85
5, 550332, Note_on_c, 1, 69, 74
5, 550449, Note_on_c, 1, 78, 0
5, 550452, Note_on_c, 1, 69, 0
5, 550564, Note_on_c, 1, 78, 66
5, 550566, Note_on_c, 1, 69, 82
5, 550684, Note_on_c, 1, 78, 0
5, 550686, Note_on_c, 1, 69, 0
5, 550828, Note_on_c, 1, 67, 119
5, 550828, Note_on_c, 1, 78, 107
5, 550948, Note_on_c, 1, 67, 0
5, 550948, Note_on_c, 1, 78, 0
5, 551184, Note_on_c, 1, 68, 105
5, 551188, Note_on_c, 1, 65, 91
5, 551291, Note_on_c, 1, 68, 0
5, 551295, Note_on_c, 1, 65, 0
5, 551530, Note_on_c, 1, 65, 91
5, 551543, Note_on_c, 1, 68, 92
5, 551583, Note_on_c, 1, 65, 0
5, 551596, Note_on_c, 1, 68, 0
5, 551781, Note_on_c, 1, 65, 97
5, 551787, Note_on_c, 1, 68, 92
5, 551888, Note_on_c, 1, 65, 0
5, 551894, Note_on_c, 1, 68, 0
5, 552488, Note_on_c, 1, 69, 96
5, 552494, Note_on_c, 1, 66, 106
5, 552512, Note_on_c, 1, 69, 0
5, 552518, Note_on_c, 1, 66, 0
5, 552604, Note_on_c, 1, 64, 107
5, 552612, Note_on_c, 1, 67, 91
5, 552657, Note_on_c, 1, 64, 0
5, 552665, Note_on_c, 1, 67, 0
5, 552732, Note_on_c, 1, 65, 109
5, 552748, Note_on_c, 1, 61, 92
5, 552785, Note_on_c, 1, 65, 0
5, 552801, Note_on_c, 1, 61, 0
5, 552964, Note_on_c, 1, 65, 96
5, 552981, Note_on_c, 1, 68, 97
5, 553017, Note_on_c, 1, 65, 0
5, 553034, Note_on_c, 1, 68, 0
5, 553935, Note_on_c, 1, 66, 99
5, 553948, Note_on_c, 1, 69, 92
5, 553959, Note_on_c, 1, 66, 0
5, 553972, Note_on_c, 1, 69, 0
5, 554062, Note_on_c, 1, 67, 96
5, 554067, Note_on_c, 1, 64, 101
5, 554115, Note_on_c, 1, 67, 0
5, 554120, Note_on_c, 1, 64, 0
5, 554161, Note_on_c, 1, 61, 96
5, 554170, Note_on_c, 1, 65, 101
5, 554214, Note_on_c, 1, 61, 0
5, 554223, Note_on_c, 1, 65, 0
5, 554772, Note_on_c, 1, 69, 95
5, 554779, Note_on_c, 1, 65, 101
5, 554915, Note_on_c, 1, 69, 0
5, 554922, Note_on_c, 1, 65, 0
5, 555004, Note_on_c, 1, 74, 100
5, 555028, Note_on_c, 1, 69, 97
5, 555147, Note_on_c, 1, 74, 0
5, 555171, Note_on_c, 1, 69, 0
5, 555248, Note_on_c, 1, 77, 105
5, 555250, Note_on_c, 1, 74, 109
5, 555308, Note_on_c, 1, 77, 0
5, 555310, Note_on_c, 1, 74, 0
5, 555362, Note_on_c, 1, 77, 93
5, 555368, Note_on_c, 1, 81, 100
5, 555434, Note_on_c, 1, 77, 0
5, 555440, Note_on_c, 1, 81, 0
5, 555481, Note_on_c, 1, 77, 95
5, 555502, Note_on_c, 1, 74, 97
5, 555541, Note_on_c, 1, 77, 0
5, 555562, Note_on_c, 1, 74, 0
5, 555723, Note_on_c, 1, 68, 100
5, 555724, Note_on_c, 1, 65, 110
5, 555776, Note_on_c, 1, 68, 0
5, 555777, Note_on_c, 1, 65, 0
5, 555968, Note_on_c, 1, 68, 93
5, 555975, Note_on_c, 1, 65, 102
5, 556021, Note_on_c, 1, 68, 0
5, 556028, Note_on_c, 1, 65, 0
5, 556566, Note_on_c, 1, 66, 104
5, 556578, Note_on_c, 1, 69, 102
5, 556619, Note_on_c, 1, 66, 0
5, 556631, Note_on_c, 1, 69, 0
5, 556681, Note_on_c, 1, 64, 105
5, 556708, Note_on_c, 1, 67, 109
5, 556734, Note_on_c, 1, 64, 0
5, 556761, Note_on_c, 1, 67, 0
5, 556800, Note_on_c, 1, 65, 110
5, 556807, Note_on_c, 1, 61, 91
5, 556853, Note_on_c, 1, 65, 0
5, 556860, Note_on_c, 1, 61, 0
5, 556926, Note_on_c, 1, 65, 102
5, 556939, Note_on_c, 1, 62, 95
5, 556998, Note_on_c, 1, 65, 0
5, 557011, Note_on_c, 1, 62, 0
5, 557048, Note_on_c, 1, 69, 101
5, 557063, Note_on_c, 1, 65, 96
5, 557120, Note_on_c, 1, 69, 0
5, 557135, Note_on_c, 1, 65, 0
5, 557161, Note_on_c, 1, 69, 100
5, 557186, Note_on_c, 1, 74, 104
5, 557233, Note_on_c, 1, 69, 0
5, 557258, Note_on_c, 1, 74, 0
5, 557289, Note_on_c, 1, 74, 97
5, 557302, Note_on_c, 1, 77, 93
5, 557361, Note_on_c, 1, 74, 0
5, 557374, Note_on_c, 1, 77, 0
5, 557408, Note_on_c, 1, 74, 96
5, 557427, Note_on_c, 1, 69, 92
5, 557455, Note_on_c, 1, 74, 0
5, 557474, Note_on_c, 1, 69, 0
5, 558249, Note_on_c, 1, 68, 111
5, 558251, Note_on_c, 1, 65, 108
5, 558302, Note_on_c, 1, 68, 0
5, 558304, Note_on_c, 1, 65, 0
5, 558486, Note_on_c, 1, 65, 107
5, 558508, Note_on_c, 1, 68, 106
5, 558539, Note_on_c, 1, 65, 0
5, 558561, Note_on_c, 1, 68, 0
5, 559091, Note_on_c, 1, 66, 91
5, 559106, Note_on_c, 1, 69, 111
5, 559144, Note_on_c, 1, 66, 0
5, 559159, Note_on_c, 1, 69, 0
5, 559201, Note_on_c, 1, 67, 102
5, 559205, Note_on_c, 1, 64, 107
5, 559254, Note_on_c, 1, 67, 0
5, 559258, Note_on_c, 1, 64, 0
5, 559322, Note_on_c, 1, 65, 95
5, 559346, Note_on_c, 1, 61, 107
5, 559375, Note_on_c, 1, 65, 0
5, 559399, Note_on_c, 1, 61, 0
5, 559563, Note_on_c, 1, 65, 100
5, 559586, Note_on_c, 1, 68, 103
5, 559670, Note_on_c, 1, 65, 0
5, 559693, Note_on_c, 1, 68, 0
5, 559945, Note_on_c, 1, 65, 104
5, 559947, Note_on_c, 1, 68, 94
5, 559998, Note_on_c, 1, 65, 0
5, 560000, Note_on_c, 1, 68, 0
5, 560182, Note_on_c, 1, 68, 97
5, 560187, Note_on_c, 1, 65, 104
5, 560289, Note_on_c, 1, 68, 0
5, 560294, Note_on_c, 1, 65, 0
5, 560520, Note_on_c, 1, 66, 111
5, 560543, Note_on_c, 1, 69, 93
5, 560573, Note_on_c, 1, 66, 0
5, 560596, Note_on_c, 1, 69, 0
5, 560649, Note_on_c, 1, 64, 91
5, 560649, Note_on_c, 1, 67, 98
5, 560702, Note_on_c, 1, 64, 0
5, 560702, Note_on_c, 1, 67, 0
5, 560769, Note_on_c, 1, 65, 93
5, 560770, Note_on_c, 1, 61, 97
5, 560822, Note_on_c, 1, 65, 0
5, 560823, Note_on_c, 1, 61, 0
5, 561000, Note_on_c, 1, 68, 102
5, 561014, Note_on_c, 1, 65, 99
5, 561053, Note_on_c, 1, 68, 0
5, 561067, Note_on_c, 1, 65, 0
5, 561240, Note_on_c, 1, 69, 96
5, 561269, Note_on_c, 1, 66, 108
5, 561293, Note_on_c, 1, 69, 0
5, 561322, Note_on_c, 1, 66, 0
5, 561369, Note_on_c, 1, 64, 104
5, 561388, Note_on_c, 1, 67, 102
5, 561422, Note_on_c, 1, 64, 0
5, 561441, Note_on_c, 1, 67, 0
5, 561492, Note_on_c, 1, 65, 97
5, 561499, Note_on_c, 1, 61, 108
5, 561545, Note_on_c, 1, 65, 0
5, 561552, Note_on_c, 1, 61, 0
5, 561725, Note_on_c, 1, 65, 101
5, 561734, Note_on_c, 1, 68, 95
5, 561832, Note_on_c, 1, 65, 0
5, 561841, Note_on_c, 1, 68, 0
5, 562087, Note_on_c, 1, 65, 103
5, 562088, Note_on_c, 1, 68, 105
5, 562140, Note_on_c, 1, 65, 0
5, 562141, Note_on_c, 1, 68, 0
5, 562327, Note_on_c, 1, 68, 103
5, 562340, Note_on_c, 1, 65, 92
5, 562434, Note_on_c, 1, 68, 0
5, 562447, Note_on_c, 1, 65, 0
5, 562692, Note_on_c, 1, 66, 107
5, 562704, Note_on_c, 1, 69, 105
5, 562745, Note_on_c, 1, 66, 0
5, 562757, Note_on_c, 1, 69, 0
5, 562803, Note_on_c, 1, 67, 97
5, 562813, Note_on_c, 1, 64, 101
5, 562856, Note_on_c, 1, 67, 0
5, 562866, Note_on_c, 1, 64, 0
5, 562934, Note_on_c, 1, 61, 106
5, 562941, Note_on_c, 1, 65, 96
5, 562987, Note_on_c, 1, 61, 0
5, 562994, Note_on_c, 1, 65, 0
5, 563161, Note_on_c, 1, 74, 108
5, 563188, Note_on_c, 1, 69, 98
5, 563221, Note_on_c, 1, 74, 0
5, 563248, Note_on_c, 1, 69, 0
5, 563289, Note_on_c, 1, 74, 100
5, 563305, Note_on_c, 1, 77, 103
5, 563349, Note_on_c, 1, 74, 0
5, 563365, Note_on_c, 1, 77, 0
5, 563528, Note_on_c, 1, 74, 109
5, 563538, Note_on_c, 1, 69, 110
5, 563588, Note_on_c, 1, 74, 0
5, 563598, Note_on_c, 1, 69, 0
5, 563778, Note_on_c, 1, 74, 92
5, 563780, Note_on_c, 1, 69, 110
5, 563838, Note_on_c, 1, 74, 0
5, 563840, Note_on_c, 1, 69, 0
5, 563893, Note_on_c, 1, 74, 91
5, 563899, Note_on_c, 1, 77, 98
5, 563953, Note_on_c, 1, 74, 0
5, 563959, Note_on_c, 1, 77, 0
5, 564128, Note_on_c, 1, 77, 103
5, 564145, Note_on_c, 1, 74, 110
5, 564188, Note_on_c, 1, 77, 0
5, 564205, Note_on_c, 1, 74, 0
5, 564369, Note_on_c, 1, 74, 108
5, 564375, Note_on_c, 1, 69, 107
5, 564429, Note_on_c, 1, 74, 0
5, 564435, Note_on_c, 1, 69, 0
5, 582241, Note_on_c, 1, 60, 97
5, 583221, Note_on_c, 1, 67, 91
5, 584881, Note_on_c, 1, 60, 0
5, 584901, Note_on_c, 1, 67, 0
5, 601444, Note_on_c, 1, 83, 112
5, 601452, Note_on_c, 1, 75, 103
5, 601516, Note_on_c, 1, 83, 0
5, 601524, Note_on_c, 1, 75, 0
5, 602777, Note_on_c, 1, 72, 104
5, 602777, Note_on_c, 1, 74, 106
5, 603135, Note_on_c, 1, 70, 92
5, 603137, Note_on_c, 1, 72, 0
5, 603137, Note_on_c, 1, 74, 0
5, 603143, Note_on_c, 1, 67, 100
5, 603188, Note_on_c, 1, 70, 0
5, 603196, Note_on_c, 1, 67, 0
5, 603251, Note_on_c, 1, 65, 109
5, 603265, Note_on_c, 1, 68, 106
5, 603304, Note_on_c, 1, 65, 0
5, 603318, Note_on_c, 1, 68, 0
5, 603380, Note_on_c, 1, 66, 110
5, 603383, Note_on_c, 1, 62, 99
5, 603433, Note_on_c, 1, 66, 0
5, 603436, Note_on_c, 1, 62, 0
5, 616697, Note_on_c, 1, 73, 110
5, 616703, Note_on_c, 1, 85, 95
5, 616937, Note_on_c, 1, 73, 0
5, 616943, Note_on_c, 1, 85, 0
5, 617168, Note_on_c, 1, 74, 94
5, 617184, Note_on_c, 1, 81, 110
5, 617408, Note_on_c, 1, 74, 0
5, 617424, Note_on_c, 1, 81, 0
5, 617661, Note_on_c, 1, 82, 110
5, 617668, Note_on_c, 1, 75, 101
5, 617901, Note_on_c, 1, 82, 0
5, 617908, Note_on_c, 1, 75, 0
5, 618128, Note_on_c, 1, 83, 92
5, 618130, Note_on_c, 1, 76, 102
5, 618368, Note_on_c, 1, 83, 0
5, 618370, Note_on_c, 1, 76, 0
5, 618614, Note_on_c, 1, 73, 102
5, 618623, Note_on_c, 1, 82, 109
5, 618854, Note_on_c, 1, 73, 0
5, 618863, Note_on_c, 1, 82, 0
5, 619088, Note_on_c, 1, 81, 100
5, 619099, Note_on_c, 1, 72, 107
5, 619328, Note_on_c, 1, 81, 0
5, 619339, Note_on_c, 1, 72, 0
5, 619572, Note_on_c, 1, 82, 110
5, 619586, Note_on_c, 1, 73, 98
5, 619812, Note_on_c, 1, 82, 0
5, 619826, Note_on_c, 1, 73, 0
5, 620055, Note_on_c, 1, 81, 105
5, 620059, Note_on_c, 1, 72, 98
5, 620295, Note_on_c, 1, 81, 0
5, 620299, Note_on_c, 1, 72, 0
5, 620533, Note_on_c, 1, 73, 104
5, 620535, Note_on_c, 1, 82, 110
5, 620773, Note_on_c, 1, 73, 0
5, 620775, Note_on_c, 1, 82, 0
5, 621017, Note_on_c, 1, 81, 107
5, 621028, Note_on_c, 1, 72, 107
5, 621257, Note_on_c, 1, 81, 0
5, 621268, Note_on_c, 1, 72, 0
5, 621484, Note_on_c, 1, 71, 95
5, 621486, Note_on_c, 1, 80, 93
5, 621724, Note_on_c, 1, 71, 0
5, 621726, Note_on_c, 1, 80, 0
5, 621969, Note_on_c, 1, 81, 96
5, 621978, Note_on_c, 1, 72, 100
5, 622209, Note_on_c, 1, 81, 0
5, 622218, Note_on_c, 1, 72, 0
5, 622449, Note_on_c, 1, 73, 101
5, 622455, Note_on_c, 1, 82, 103
5, 622689, Note_on_c, 1, 73, 0
5, 622695, Note_on_c, 1, 82, 0
5, 622931, Note_on_c, 1, 81, 102
5, 622947, Note_on_c, 1, 72, 95
5, 623171, Note_on_c, 1, 81, 0
5, 623187, Note_on_c, 1, 72, 0
5, 623403, Note_on_c, 1, 82, 105
5, 623409, Note_on_c, 1, 73, 98
5, 623643, Note_on_c, 1, 82, 0
5, 623649, Note_on_c, 1, 73, 0
5, 623888, Note_on_c, 1, 81, 99
5, 623902, Note_on_c, 1, 72, 101
5, 624128, Note_on_c, 1, 81, 0
5, 624142, Note_on_c, 1, 72, 0
5, 624365, Note_on_c, 1, 82, 100
5, 624379, Note_on_c, 1, 73, 111
5, 624605, Note_on_c, 1, 82, 0
5, 624619, Note_on_c, 1, 73, 0
5, 624843, Note_on_c, 1, 72, 93
5, 624854, Note_on_c, 1, 81, 108
5, 625083, Note_on_c, 1, 72, 0
5, 625094, Note_on_c, 1, 81, 0
5, 625331, Note_on_c, 1, 80, 108
5, 625346, Note_on_c, 1, 71, 111
5, 625571, Note_on_c, 1, 80, 0
5, 625586, Note_on_c, 1, 71, 0
5, 625804, Note_on_c, 1, 81, 93
5, 625823, Note_on_c, 1, 72, 110
5, 626044, Note_on_c, 1, 81, 0
5, 626063, Note_on_c, 1, 72, 0
5, 626292, Note_on_c, 1, 71, 105
5, 626305, Note_on_c, 1, 80, 95
5, 626532, Note_on_c, 1, 71, 0
5, 626545, Note_on_c, 1, 80, 0
5, 626786, Note_on_c, 1, 75, 99
5, 627026, Note_on_c, 1, 75, 0
5, 627250, Note_on_c, 1, 78, 110
5, 627490, Note_on_c, 1, 78, 0
5, 627743, Note_on_c, 1, 79, 94
5, 627863, Note_on_c, 1, 79, 0
5, 636603, Note_on_c, 1, 74, 84
5, 636619, Note_on_c, 1, 79, 92
5, 636656, Note_on_c, 1, 74, 0
5, 636672, Note_on_c, 1, 79, 0
5, 636722, Note_on_c, 1, 78, 84
5, 636749, Note_on_c, 1, 75, 81
5, 636775, Note_on_c, 1, 78, 0
5, 636802, Note_on_c, 1, 75, 0
5, 636854, Note_on_c, 1, 76, 95
5, 636867, Note_on_c, 1, 69, 80
5, 636907, Note_on_c, 1, 76, 0
5, 636920, Note_on_c, 1, 69, 0
5, 637682, Note_on_c, 1, 79, 90
5, 637687, Note_on_c, 1, 74, 86
5, 637735, Note_on_c, 1, 79, 0
5, 637740, Note_on_c, 1, 74, 0
5, 637801, Note_on_c, 1, 78, 92
5, 637820, Note_on_c, 1, 75, 93
5, 637854, Note_on_c, 1, 78, 0
5, 637873, Note_on_c, 1, 75, 0
5, 637930, Note_on_c, 1, 69, 83
5, 637948, Note_on_c, 1, 76, 90
5, 637983, Note_on_c, 1, 69, 0
5, 638001, Note_on_c, 1, 76, 0
5, 638765, Note_on_c, 1, 74, 84
5, 638773, Note_on_c, 1, 79, 91
5, 638818, Note_on_c, 1, 74, 0
5, 638826, Note_on_c, 1, 79, 0
5, 638895, Note_on_c, 1, 75, 96
5, 638898, Note_on_c, 1, 78, 83
5, 638948, Note_on_c, 1, 75, 0
5, 638951, Note_on_c, 1, 78, 0
5, 639004, Note_on_c, 1, 76, 95
5, 639008, Note_on_c, 1, 69, 98
5, 639057, Note_on_c, 1, 76, 0
5, 639061, Note_on_c, 1, 69, 0
5, 639489, Note_on_c, 1, 79, 88
5, 639498, Note_on_c, 1, 74, 88
5, 639542, Note_on_c, 1, 79, 0
5, 639551, Note_on_c, 1, 74, 0
5, 639608, Note_on_c, 1, 78, 80
5, 639627, Note_on_c, 1, 75, 93
5, 639661, Note_on_c, 1, 78, 0
5, 639680, Note_on_c, 1, 75, 0
5, 639724, Note_on_c, 1, 76, 82
5, 639742, Note_on_c, 1, 69, 80
5, 639777, Note_on_c, 1, 76, 0
5, 639795, Note_on_c, 1, 69, 0
5, 639982, Note_on_c, 1, 73, 91
5, 640042, Note_on_c, 1, 73, 0
5, 640085, Note_on_c, 1, 77, 98
5, 640145, Note_on_c, 1, 77, 0
5, 641187, Note_on_c, 1, 70, 97
5, 641247, Note_on_c, 1, 70, 0
5, 641289, Note_on_c, 1, 73, 109
5, 641349, Note_on_c, 1, 73, 0
5, 641408, Note_on_c, 1, 77, 93
5, 641468, Note_on_c, 1, 77, 0
5, 645386, Note_on_c, 1, 70, 98
5, 645446, Note_on_c, 1, 70, 0
5, 645503, Note_on_c, 1, 77, 92
5, 645563, Note_on_c, 1, 77, 0
5, 646706, Note_on_c, 1, 73, 95
5, 646766, Note_on_c, 1, 73, 0
5, 646802, Note_on_c, 1, 77, 100
5, 646862, Note_on_c, 1, 77, 0
5, 647299, Note_on_c, 1, 70, 103
5, 647359, Note_on_c, 1, 70, 0
5, 647425, Note_on_c, 1, 73, 109
5, 647485, Note_on_c, 1, 73, 0
5, 647537, Note_on_c, 1, 77, 95
5, 647597, Note_on_c, 1, 77, 0
5, 648005, Note_on_c, 1, 73, 111
5, 648065, Note_on_c, 1, 73, 0
5, 648129, Note_on_c, 1, 77, 94
5, 648189, Note_on_c, 1, 77, 0
5, 648363, Note_on_c, 1, 73, 111
5, 648423, Note_on_c, 1, 73, 0
5, 648853, Note_on_c, 1, 70, 105
5, 648913, Note_on_c, 1, 70, 0
5, 648973, Note_on_c, 1, 73, 95
5, 649033, Note_on_c, 1, 73, 0
5, 649086, Note_on_c, 1, 77, 109
5, 649146, Note_on_c, 1, 77, 0
5, 649333, Note_on_c, 1, 82, 111
5, 649453, Note_on_c, 1, 82, 0
5, 649818, Note_on_c, 1, 73, 110
5, 649878, Note_on_c, 1, 73, 0
5, 649935, Note_on_c, 1, 77, 94
5, 649995, Note_on_c, 1, 77, 0
5, 650401, Note_on_c, 1, 70, 106
5, 650461, Note_on_c, 1, 70, 0
5, 650537, Note_on_c, 1, 73, 95
5, 650597, Note_on_c, 1, 73, 0
5, 650660, Note_on_c, 1, 77, 96
5, 650720, Note_on_c, 1, 77, 0
5, 650900, Note_on_c, 1, 82, 101
5, 651020, Note_on_c, 1, 82, 0
5, 651387, Note_on_c, 1, 70, 91
5, 651447, Note_on_c, 1, 70, 0
5, 651503, Note_on_c, 1, 73, 91
5, 651563, Note_on_c, 1, 73, 0
5, 651609, Note_on_c, 1, 77, 101
5, 651669, Note_on_c, 1, 77, 0
5, 651859, Note_on_c, 1, 82, 92
5, 651979, Note_on_c, 1, 82, 0
5, 652091, Note_on_c, 1, 70, 91
5, 652151, Note_on_c, 1, 70, 0
5, 652200, Note_on_c, 1, 73, 106
5, 652260, Note_on_c, 1, 73, 0
5, 652347, Note_on_c, 1, 77, 95
5, 652407, Note_on_c, 1, 77, 0
5, 652576, Note_on_c, 1, 82, 94
5, 652696, Note_on_c, 1, 82, 0
5, 653047, Note_on_c, 1, 70, 99
5, 653107, Note_on_c, 1, 70, 0
5, 653165, Note_on_c, 1, 73, 103
5, 653225, Note_on_c, 1, 73, 0
5, 653286, Note_on_c, 1, 77, 102
5, 653346, Note_on_c, 1, 77, 0
5, 653522, Note_on_c, 1, 82, 99
5, 653642, Note_on_c, 1, 82, 0
5, 653779, Note_on_c, 1, 70, 110
5, 653839, Note_on_c, 1, 70, 0
5, 653887, Note_on_c, 1, 73, 103
5, 653947, Note_on_c, 1, 73, 0
5, 654016, Note_on_c, 1, 77, 91
5, 654076, Note_on_c, 1, 77, 0
5, 654250, Note_on_c, 1, 82, 97
5, 654370, Note_on_c, 1, 82, 0
5, 654748, Note_on_c, 1, 70, 99
5, 654808, Note_on_c, 1, 70, 0
5, 654859, Note_on_c, 1, 73, 110
5, 654919, Note_on_c, 1, 73, 0
5, 654962, Note_on_c, 1, 77, 95
5, 655022, Note_on_c, 1, 77, 0
5, 655103, Note_on_c, 1, 82, 98
5, 655223, Note_on_c, 1, 82, 0
5, 655342, Note_on_c, 1, 82, 122
5, 655462, Note_on_c, 1, 82, 0
5, 655462, End_track
6, 0, Start_track
6, 0, Title_t, "Corno inglese"
6, 0, MIDI_port, 0
6, 0, Program_c, 2, 69
6, 0, Control_c, 2, 7, 92
6, 0, Control_c, 2, 10, 54
6, 0, Control_c, 2, 91, 64
6, 10560, Control_c, 2, 11, 127
6, 10586, Note_on_c, 2, 69, 80
6, 10590, Control_c, 2, 11, 126
6, 10620, Control_c, 2, 11, 125
6, 10650, Control_c, 2, 11, 124
6, 10681, Control_c, 2, 11, 123
6, 10711, Control_c, 2, 11, 122
6, 10741, Control_c, 2, 11, 121
6, 10772, Control_c, 2, 11, 120
6, 10802, Control_c, 2, 11, 119
6, 10832, Control_c, 2, 11, 118
6, 10863, Control_c, 2, 11, 117
6, 10893, Control_c, 2, 11, 116
6, 10923, Control_c, 2, 11, 115
6, 10954, Control_c, 2, 11, 114
6, 10984, Control_c, 2, 11, 113
6, 11014, Control_c, 2, 11, 112
6, 11045, Control_c, 2, 11, 111
6, 11075, Control_c, 2, 11, 110
6, 11105, Control_c, 2, 11, 109
6, 11136, Control_c, 2, 11, 108
6, 11166, Control_c, 2, 11, 107
6, 11196, Control_c, 2, 11, 106
6, 11227, Control_c, 2, 11, 105
6, 11257, Control_c, 2, 11, 104
6, 11287, Control_c, 2, 11, 103
6, 11317, Control_c, 2, 11, 102
6, 11348, Control_c, 2, 11, 101
6, 11378, Control_c, 2, 11, 100
6, 11408, Control_c, 2, 11, 99
6, 11439, Control_c, 2, 11, 98
6, 11469, Control_c, 2, 11, 97
6, 11499, Control_c, 2, 11, 96
6, 11530, Control_c, 2, 11, 95
6, 11560, Control_c, 2, 11, 94
6, 11590, Control_c, 2, 11, 93
6, 11621, Control_c, 2, 11, 92
6, 11651, Control_c, 2, 11, 91
6, 11681, Control_c, 2, 11, 90
6, 11712, Control_c, 2, 11, 89
6, 11742, Control_c, 2, 11, 88
6, 11772, Control_c, 2, 11, 87
6, 11803, Control_c, 2, 11, 86
6, 11833, Control_c, 2, 11, 85
6, 11863, Control_c, 2, 11, 84
6, 11894, Control_c, 2, 11, 83
6, 11924, Control_c, 2, 11, 82
6, 11954, Control_c, 2, 11, 81
6, 11985, Control_c, 2, 11, 80
6, 12015, Control_c, 2, 11, 79
6, 12045, Control_c, 2, 11, 78
6, 12075, Control_c, 2, 11, 77
6, 12105, Control_c, 2, 11, 76
6, 12136, Control_c, 2, 11, 75
6, 12166, Control_c, 2, 11, 74
6, 12196, Control_c, 2, 11, 73
6, 12227, Control_c, 2, 11, 72
6, 12257, Control_c, 2, 11, 71
6, 12287, Control_c, 2, 11, 70
6, 12318, Control_c, 2, 11, 69
6, 12348, Control_c, 2, 11, 68
6, 12378, Control_c, 2, 11, 67
6, 12409, Control_c, 2, 11, 66
6, 12439, Control_c, 2, 11, 65
6, 12469, Control_c, 2, 11, 64
6, 12500, Control_c, 2, 11, 63
6, 12530, Control_c, 2, 11, 62
6, 12560, Control_c, 2, 11, 61
6, 12591, Control_c, 2, 11, 60
6, 12621, Control_c, 2, 11, 59
6, 12651, Control_c, 2, 11, 58
6, 12682, Control_c, 2, 11, 57
6, 12712, Control_c, 2, 11, 56
6, 12742, Control_c, 2, 11, 55
6, 12772, Control_c, 2, 11, 54
6, 12803, Control_c, 2, 11, 53
6, 12833, Control_c, 2, 11, 52
6, 12863, Control_c, 2, 11, 51
6, 12894, Control_c, 2, 11, 50
6, 12924, Control_c, 2, 11, 49
6, 12954, Control_c, 2, 11, 48
6, 12985, Control_c, 2, 11, 47
6, 13015, Control_c, 2, 11, 46
6, 13045, Control_c, 2, 11, 45
6, 13076, Control_c, 2, 11, 44
6, 13106, Control_c, 2, 11, 43
6, 13136, Control_c, 2, 11, 42
6, 13167, Control_c, 2, 11, 41
6, 13197, Control_c, 2, 11, 40
6, 13222, Note_on_c, 2, 67, 78
6, 13226, Note_on_c, 2, 69, 0
6, 13227, Control_c, 2, 11, 39
6, 13258, Control_c, 2, 11, 38
6, 13288, Control_c, 2, 11, 37
6, 13318, Control_c, 2, 11, 36
6, 13349, Control_c, 2, 11, 35
6, 13379, Control_c, 2, 11, 34
6, 13409, Control_c, 2, 11, 33
6, 13440, Control_c, 2, 11, 127
6, 13462, Note_on_c, 2, 67, 0
6, 15360, Control_c, 2, 11, 127
6, 15375, Control_c, 2, 11, 126
6, 15376, Note_on_c, 2, 69, 73
6, 15390, Control_c, 2, 11, 125
6, 15405, Control_c, 2, 11, 124
6, 15420, Control_c, 2, 11, 123
6, 15435, Control_c, 2, 11, 122
6, 15450, Control_c, 2, 11, 121
6, 15465, Control_c, 2, 11, 120
6, 15481, Control_c, 2, 11, 119
6, 15496, Control_c, 2, 11, 118
6, 15511, Control_c, 2, 11, 117
6, 15526, Control_c, 2, 11, 116
6, 15541, Control_c, 2, 11, 115
6, 15556, Control_c, 2, 11, 114
6, 15572, Control_c, 2, 11, 113
6, 15587, Control_c, 2, 11, 112
6, 15602, Control_c, 2, 11, 111
6, 15617, Control_c, 2, 11, 110
6, 15632, Control_c, 2, 11, 109
6, 15647, Control_c, 2, 11, 108
6, 15663, Control_c, 2, 11, 107
6, 15678, Control_c, 2, 11, 106
6, 15693, Control_c, 2, 11, 105
6, 15708, Control_c, 2, 11, 104
6, 15723, Control_c, 2, 11, 103
6, 15738, Control_c, 2, 11, 102
6, 15754, Control_c, 2, 11, 101
6, 15769, Control_c, 2, 11, 100
6, 15784, Control_c, 2, 11, 99
6, 15799, Control_c, 2, 11, 98
6, 15814, Control_c, 2, 11, 97
6, 15829, Control_c, 2, 11, 96
6, 15845, Control_c, 2, 11, 95
6, 15860, Control_c, 2, 11, 94
6, 15875, Control_c, 2, 11, 93
6, 15890, Control_c, 2, 11, 92
6, 15905, Control_c, 2, 11, 91
6, 15920, Control_c, 2, 11, 90
6, 15936, Control_c, 2, 11, 89
6, 15951, Control_c, 2, 11, 88
6, 15966, Control_c, 2, 11, 87
6, 15981, Control_c, 2, 11, 86
6, 15996, Control_c, 2, 11, 85
6, 16011, Control_c, 2, 11, 84
6, 16027, Control_c, 2, 11, 83
6, 16042, Control_c, 2, 11, 82
6, 16057, Control_c, 2, 11, 81
6, 16072, Control_c, 2, 11, 80
6, 16087, Control_c, 2, 11, 79
6, 16102, Control_c, 2, 11, 78
6, 16117, Control_c, 2, 11, 77
6, 16132, Control_c, 2, 11, 76
6, 16148, Control_c, 2, 11, 75
6, 16163, Control_c, 2, 11, 74
6, 16178, Control_c, 2, 11, 73
6, 16193, Control_c, 2, 11, 72
6, 16208, Control_c, 2, 11, 71
6, 16223, Control_c, 2, 11, 70
6, 16239, Control_c, 2, 11, 69
6, 16254, Control_c, 2, 11, 68
6, 16269, Control_c, 2, 11, 67
6, 16284, Control_c, 2, 11, 66
6, 16299, Control_c, 2, 11, 65
6, 16314, Control_c, 2, 11, 64
6, 16330, Control_c, 2, 11, 63
6, 16345, Control_c, 2, 11, 62
6, 16360, Control_c, 2, 11, 61
6, 16375, Control_c, 2, 11, 60
6, 16390, Control_c, 2, 11, 59
6, 16405, Control_c, 2, 11, 58
6, 16421, Control_c, 2, 11, 57
6, 16436, Control_c, 2, 11, 56
6, 16451, Control_c, 2, 11, 55
6, 16466, Control_c, 2, 11, 54
6, 16481, Control_c, 2, 11, 53
6, 16496, Control_c, 2, 11, 52
6, 16512, Control_c, 2, 11, 51
6, 16527, Control_c, 2, 11, 50
6, 16542, Control_c, 2, 11, 49
6, 16557, Control_c, 2, 11, 48
6, 16572, Control_c, 2, 11, 47
6, 16587, Control_c, 2, 11, 46
6, 16603, Control_c, 2, 11, 45
6, 16618, Control_c, 2, 11, 44
6, 16633, Control_c, 2, 11, 43
6, 16648, Control_c, 2, 11, 42
6, 16663, Control_c, 2, 11, 41
6, 16678, Control_c, 2, 11, 40
6, 16694, Control_c, 2, 11, 39
6, 16709, Control_c, 2, 11, 38
6, 16724, Control_c, 2, 11, 37
6, 16739, Control_c, 2, 11, 36
6, 16754, Control_c, 2, 11, 35
6, 16769, Control_c, 2, 11, 34
6, 16785, Control_c, 2, 11, 33
6, 17056, Note_on_c, 2, 69, 0
6, 18720, Control_c, 2, 11, 127
6, 19680, Control_c, 2, 11, 127
6, 19686, Note_on_c, 2, 81, 69
6, 19695, Control_c, 2, 11, 126
6, 19710, Control_c, 2, 11, 125
6, 19725, Control_c, 2, 11, 124
6, 19740, Control_c, 2, 11, 123
6, 19755, Control_c, 2, 11, 122
6, 19770, Control_c, 2, 11, 121
6, 19785, Control_c, 2, 11, 120
6, 19801, Control_c, 2, 11, 119
6, 19816, Control_c, 2, 11, 118
6, 19831, Control_c, 2, 11, 117
6, 19846, Control_c, 2, 11, 116
6, 19861, Control_c, 2, 11, 115
6, 19876, Control_c, 2, 11, 114
6, 19892, Control_c, 2, 11, 113
6, 19907, Control_c, 2, 11, 112
6, 19922, Control_c, 2, 11, 111
6, 19937, Control_c, 2, 11, 110
6, 19952, Control_c, 2, 11, 109
6, 19967, Control_c, 2, 11, 108
6, 19983, Control_c, 2, 11, 107
6, 19998, Control_c, 2, 11, 106
6, 20013, Control_c, 2, 11, 105
6, 20028, Control_c, 2, 11, 104
6, 20043, Control_c, 2, 11, 103
6, 20058, Control_c, 2, 11, 102
6, 20074, Control_c, 2, 11, 101
6, 20089, Control_c, 2, 11, 100
6, 20104, Control_c, 2, 11, 99
6, 20119, Control_c, 2, 11, 98
6, 20134, Control_c, 2, 11, 97
6, 20149, Control_c, 2, 11, 96
6, 20165, Control_c, 2, 11, 95
6, 20180, Control_c, 2, 11, 94
6, 20195, Control_c, 2, 11, 93
6, 20210, Control_c, 2, 11, 92
6, 20225, Control_c, 2, 11, 91
6, 20240, Control_c, 2, 11, 90
6, 20256, Control_c, 2, 11, 89
6, 20271, Control_c, 2, 11, 88
6, 20286, Control_c, 2, 11, 87
6, 20301, Control_c, 2, 11, 86
6, 20316, Control_c, 2, 11, 85
6, 20331, Control_c, 2, 11, 84
6, 20347, Control_c, 2, 11, 83
6, 20362, Control_c, 2, 11, 82
6, 20377, Control_c, 2, 11, 81
6, 20392, Control_c, 2, 11, 80
6, 20407, Control_c, 2, 11, 79
6, 20422, Control_c, 2, 11, 78
6, 20437, Control_c, 2, 11, 77
6, 20452, Control_c, 2, 11, 76
6, 20468, Control_c, 2, 11, 75
6, 20483, Control_c, 2, 11, 74
6, 20498, Control_c, 2, 11, 73
6, 20513, Control_c, 2, 11, 72
6, 20528, Control_c, 2, 11, 71
6, 20543, Control_c, 2, 11, 70
6, 20559, Control_c, 2, 11, 69
6, 20574, Control_c, 2, 11, 68
6, 20589, Control_c, 2, 11, 67
6, 20604, Control_c, 2, 11, 66
6, 20619, Control_c, 2, 11, 65
6, 20634, Control_c, 2, 11, 64
6, 20650, Control_c, 2, 11, 63
6, 20665, Control_c, 2, 11, 62
6, 20680, Control_c, 2, 11, 61
6, 20695, Control_c, 2, 11, 60
6, 20710, Control_c, 2, 11, 59
6, 20725, Control_c, 2, 11, 58
6, 20741, Control_c, 2, 11, 57
6, 20756, Control_c, 2, 11, 56
6, 20771, Control_c, 2, 11, 55
6, 20786, Control_c, 2, 11, 54
6, 20801, Control_c, 2, 11, 53
6, 20816, Control_c, 2, 11, 52
6, 20832, Control_c, 2, 11, 51
6, 20847, Control_c, 2, 11, 50
6, 20862, Control_c, 2, 11, 49
6, 20877, Control_c, 2, 11, 48
6, 20892, Control_c, 2, 11, 47
6, 20907, Control_c, 2, 11, 46
6, 20923, Control_c, 2, 11, 45
6, 20938, Control_c, 2, 11, 44
6, 20953, Control_c, 2, 11, 43
6, 20968, Control_c, 2, 11, 42
6, 20983, Control_c, 2, 11, 41
6, 20998, Control_c, 2, 11, 40
6, 21014, Control_c, 2, 11, 39
6, 21029, Control_c, 2, 11, 38
6, 21044, Control_c, 2, 11, 37
6, 21059, Control_c, 2, 11, 36
6, 21074, Control_c, 2, 11, 35
6, 21089, Control_c, 2, 11, 34
6, 21105, Control_c, 2, 11, 33
6, 21366, Note_on_c, 2, 81, 0
6, 22560, Control_c, 2, 11, 127
6, 159845, Note_on_c, 2, 63, 77
6, 160085, Note_on_c, 2, 63, 0
6, 160086, Note_on_c, 2, 61, 79
6, 160326, Note_on_c, 2, 61, 0
6, 160335, Note_on_c, 2, 63, 81
6, 160564, Note_on_c, 2, 61, 69
6, 160575, Note_on_c, 2, 63, 0
6, 160803, Note_on_c, 2, 63, 70
6, 160804, Note_on_c, 2, 61, 0
6, 161043, Note_on_c, 2, 63, 0
6, 161060, Note_on_c, 2, 61, 69
6, 161290, Note_on_c, 2, 63, 81
6, 161300, Note_on_c, 2, 61, 0
6, 161530, Note_on_c, 2, 63, 0
6, 161536, Note_on_c, 2, 61, 69
6, 161769, Note_on_c, 2, 63, 74
6, 161776, Note_on_c, 2, 61, 0
6, 162009, Note_on_c, 2, 63, 0
6, 162017, Note_on_c, 2, 61, 66
6, 162240, Note_on_c, 2, 63, 82
6, 162257, Note_on_c, 2, 61, 0
6, 162480, Note_on_c, 2, 63, 0
6, 162495, Note_on_c, 2, 61, 65
6, 162725, Note_on_c, 2, 63, 68
6, 162735, Note_on_c, 2, 61, 0
6, 162965, Note_on_c, 2, 63, 0
6, 162983, Note_on_c, 2, 61, 73
6, 163222, Note_on_c, 2, 63, 77
6, 163223, Note_on_c, 2, 61, 0
6, 163462, Note_on_c, 2, 63, 0
6, 163463, Note_on_c, 2, 61, 81
6, 163682, Note_on_c, 2, 63, 70
6, 163703, Note_on_c, 2, 61, 0
6, 163922, Note_on_c, 2, 63, 0
6, 163924, Note_on_c, 2, 61, 71
6, 164164, Note_on_c, 2, 61, 0
6, 164188, Note_on_c, 2, 63, 70
6, 164408, Note_on_c, 2, 61, 71
6, 164428, Note_on_c, 2, 63, 0
6, 164648, Note_on_c, 2, 61, 0
6, 164653, Note_on_c, 2, 63, 82
6, 164893, Note_on_c, 2, 63, 0
6, 164893, Note_on_c, 2, 61, 72
6, 165133, Note_on_c, 2, 61, 0
6, 165142, Note_on_c, 2, 63, 83
6, 165369, Note_on_c, 2, 61, 83
6, 165382, Note_on_c, 2, 63, 0
6, 165609, Note_on_c, 2, 61, 0
6, 165617, Note_on_c, 2, 63, 78
6, 165846, Note_on_c, 2, 61, 72
6, 165857, Note_on_c, 2, 63, 0
6, 166086, Note_on_c, 2, 61, 0
6, 166102, Note_on_c, 2, 63, 67
6, 166330, Note_on_c, 2, 61, 82
6, 166342, Note_on_c, 2, 63, 0
6, 166570, Note_on_c, 2, 61, 0
6, 216251, Note_on_c, 2, 68, 119
6, 216358, Note_on_c, 2, 68, 0
6, 216722, Note_on_c, 2, 73, 108
6, 216829, Note_on_c, 2, 73, 0
6, 217456, Note_on_c, 2, 68, 109
6, 217563, Note_on_c, 2, 68, 0
6, 217941, Note_on_c, 2, 73, 103
6, 218048, Note_on_c, 2, 73, 0
6, 218656, Note_on_c, 2, 68, 116
6, 218763, Note_on_c, 2, 68, 0
6, 219138, Note_on_c, 2, 68, 112
6, 219245, Note_on_c, 2, 68, 0
6, 219626, Note_on_c, 2, 68, 118
6, 219733, Note_on_c, 2, 68, 0
6, 220096, Note_on_c, 2, 68, 107
6, 220203, Note_on_c, 2, 68, 0
6, 220826, Note_on_c, 2, 68, 103
6, 220933, Note_on_c, 2, 68, 0
6, 221309, Note_on_c, 2, 73, 103
6, 221416, Note_on_c, 2, 73, 0
6, 222008, Note_on_c, 2, 68, 114
6, 222115, Note_on_c, 2, 68, 0
6, 222507, Note_on_c, 2, 68, 102
6, 222614, Note_on_c, 2, 68, 0
6, 222966, Note_on_c, 2, 73, 106
6, 223073, Note_on_c, 2, 73, 0
6, 223708, Note_on_c, 2, 61, 89
6, 223746, Note_on_c, 2, 61, 0
6, 223782, Note_on_c, 2, 62, 93
6, 223820, Note_on_c, 2, 62, 0
6, 223879, Note_on_c, 2, 63, 90
6, 223917, Note_on_c, 2, 63, 0
6, 223981, Note_on_c, 2, 64, 92
6, 224019, Note_on_c, 2, 64, 0
6, 224065, Note_on_c, 2, 65, 105
6, 224103, Note_on_c, 2, 65, 0
6, 224189, Note_on_c, 2, 66, 99
6, 224236, Note_on_c, 2, 66, 0
6, 224663, Note_on_c, 2, 61, 121
6, 224694, Note_on_c, 2, 61, 0
6, 224738, Note_on_c, 2, 62, 110
6, 224770, Note_on_c, 2, 62, 0
6, 224811, Note_on_c, 2, 63, 108
6, 224843, Note_on_c, 2, 63, 0
6, 224895, Note_on_c, 2, 64, 109
6, 224926, Note_on_c, 2, 64, 0
6, 224968, Note_on_c, 2, 65, 116
6, 225000, Note_on_c, 2, 65, 0
6, 225061, Note_on_c, 2, 66, 119
6, 225093, Note_on_c, 2, 66, 0
6, 225140, Note_on_c, 2, 67, 85
6, 225260, Note_on_c, 2, 67, 0
6, 229462, Note_on_c, 2, 73, 98
6, 229517, Note_on_c, 2, 74, 86
6, 229522, Note_on_c, 2, 73, 0
6, 229561, Note_on_c, 2, 73, 106
6, 229577, Note_on_c, 2, 74, 0
6, 229621, Note_on_c, 2, 73, 0
6, 229627, Note_on_c, 2, 74, 95
6, 229687, Note_on_c, 2, 74, 0
6, 229688, Note_on_c, 2, 73, 100
6, 229748, Note_on_c, 2, 73, 0
6, 229753, Note_on_c, 2, 74, 119
6, 229813, Note_on_c, 2, 74, 0
6, 229821, Note_on_c, 2, 73, 121
6, 229861, Note_on_c, 2, 74, 114
6, 229881, Note_on_c, 2, 73, 0
6, 229921, Note_on_c, 2, 74, 0
6, 229934, Note_on_c, 2, 67, 84
6, 230054, Note_on_c, 2, 67, 0
6, 233547, Note_on_c, 2, 61, 90
6, 233585, Note_on_c, 2, 61, 0
6, 233637, Note_on_c, 2, 62, 89
6, 233675, Note_on_c, 2, 62, 0
6, 233721, Note_on_c, 2, 63, 91
6, 233759, Note_on_c, 2, 63, 0
6, 233821, Note_on_c, 2, 64, 94
6, 233859, Note_on_c, 2, 64, 0
6, 233924, Note_on_c, 2, 65, 87
6, 233962, Note_on_c, 2, 65, 0
6, 234025, Note_on_c, 2, 66, 93
6, 234072, Note_on_c, 2, 66, 0
6, 234492, Note_on_c, 2, 61, 114
6, 234523, Note_on_c, 2, 61, 0
6, 234564, Note_on_c, 2, 62, 106
6, 234596, Note_on_c, 2, 62, 0
6, 234647, Note_on_c, 2, 63, 113
6, 234679, Note_on_c, 2, 63, 0
6, 234746, Note_on_c, 2, 64, 118
6, 234777, Note_on_c, 2, 64, 0
6, 234811, Note_on_c, 2, 65, 117
6, 234843, Note_on_c, 2, 65, 0
6, 234892, Note_on_c, 2, 66, 120
6, 234924, Note_on_c, 2, 66, 0
6, 234976, Note_on_c, 2, 67, 78
6, 235096, Note_on_c, 2, 67, 0
6, 238588, Note_on_c, 2, 73, 78
6, 238684, Note_on_c, 2, 73, 0
6, 239057, Note_on_c, 2, 71, 96
6, 239153, Note_on_c, 2, 71, 0
6, 239536, Note_on_c, 2, 69, 93
6, 239632, Note_on_c, 2, 69, 0
6, 240020, Note_on_c, 2, 68, 112
6, 240127, Note_on_c, 2, 68, 0
6, 240500, Note_on_c, 2, 73, 102
6, 240607, Note_on_c, 2, 73, 0
6, 241210, Note_on_c, 2, 73, 80
6, 241306, Note_on_c, 2, 73, 0
6, 241690, Note_on_c, 2, 71, 85
6, 241786, Note_on_c, 2, 71, 0
6, 242166, Note_on_c, 2, 69, 95
6, 242262, Note_on_c, 2, 69, 0
6, 242643, Note_on_c, 2, 68, 80
6, 242739, Note_on_c, 2, 68, 0
6, 243360, Note_on_c, 2, 68, 102
6, 243467, Note_on_c, 2, 68, 0
6, 243843, Note_on_c, 2, 73, 106
6, 243950, Note_on_c, 2, 73, 0
6, 244581, Note_on_c, 2, 68, 113
6, 244688, Note_on_c, 2, 68, 0
6, 245060, Note_on_c, 2, 73, 101
6, 245167, Note_on_c, 2, 73, 0
6, 245760, Note_on_c, 2, 68, 104
6, 245867, Note_on_c, 2, 68, 0
6, 246249, Note_on_c, 2, 68, 107
6, 246356, Note_on_c, 2, 68, 0
6, 246733, Note_on_c, 2, 73, 94
6, 246840, Note_on_c, 2, 73, 0
6, 247461, Note_on_c, 2, 68, 102
6, 247568, Note_on_c, 2, 68, 0
6, 247928, Note_on_c, 2, 73, 111
6, 248035, Note_on_c, 2, 73, 0
6, 249297, Note_on_c, 2, 66, 102
6, 249393, Note_on_c, 2, 66, 0
6, 249464, Note_on_c, 2, 61, 94
6, 249527, Note_on_c, 2, 61, 0
6, 249765, Note_on_c, 2, 66, 106
6, 249861, Note_on_c, 2, 66, 0
6, 249941, Note_on_c, 2, 57, 111
6, 250004, Note_on_c, 2, 57, 0
6, 250265, Note_on_c, 2, 63, 97
6, 250361, Note_on_c, 2, 63, 0
6, 250404, Note_on_c, 2, 60, 106
6, 250467, Note_on_c, 2, 60, 0
6, 251455, Note_on_c, 2, 66, 99
6, 251551, Note_on_c, 2, 66, 0
6, 251615, Note_on_c, 2, 61, 95
6, 251678, Note_on_c, 2, 61, 0
6, 251934, Note_on_c, 2, 66, 98
6, 252030, Note_on_c, 2, 66, 0
6, 252082, Note_on_c, 2, 58, 92
6, 252145, Note_on_c, 2, 58, 0
6, 252400, Note_on_c, 2, 63, 107
6, 252496, Note_on_c, 2, 63, 0
6, 252569, Note_on_c, 2, 60, 102
6, 252632, Note_on_c, 2, 60, 0
6, 252907, Note_on_c, 2, 63, 100
6, 253003, Note_on_c, 2, 63, 0
6, 253065, Note_on_c, 2, 57, 95
6, 253128, Note_on_c, 2, 57, 0
6, 254091, Note_on_c, 2, 66, 110
6, 254187, Note_on_c, 2, 66, 0
6, 254263, Note_on_c, 2, 61, 100
6, 254326, Note_on_c, 2, 61, 0
6, 254568, Note_on_c, 2, 66, 108
6, 254664, Note_on_c, 2, 66, 0
6, 254721, Note_on_c, 2, 57, 109
6, 254784, Note_on_c, 2, 57, 0
6, 255053, Note_on_c, 2, 63, 96
6, 255149, Note_on_c, 2, 63, 0
6, 255206, Note_on_c, 2, 60, 94
6, 255269, Note_on_c, 2, 60, 0
6, 255535, Note_on_c, 2, 66, 98
6, 255631, Note_on_c, 2, 66, 0
6, 255680, Note_on_c, 2, 61, 106
6, 255743, Note_on_c, 2, 61, 0
6, 255843, Note_on_c, 2, 66, 92
6, 255963, Note_on_c, 2, 66, 0
6, 255989, Note_on_c, 2, 57, 96
6, 256109, Note_on_c, 2, 57, 0
6, 256346, Note_on_c, 2, 63, 91
6, 256447, Note_on_c, 2, 60, 94
6, 256466, Note_on_c, 2, 63, 0
6, 256567, Note_on_c, 2, 60, 0
6, 259366, Note_on_c, 2, 66, 92
6, 259462, Note_on_c, 2, 66, 0
6, 259522, Note_on_c, 2, 61, 95
6, 259585, Note_on_c, 2, 61, 0
6, 259861, Note_on_c, 2, 66, 98
6, 259957, Note_on_c, 2, 66, 0
6, 260003, Note_on_c, 2, 57, 109
6, 260066, Note_on_c, 2, 57, 0
6, 260329, Note_on_c, 2, 63, 103
6, 260425, Note_on_c, 2, 63, 0
6, 260489, Note_on_c, 2, 60, 105
6, 260552, Note_on_c, 2, 60, 0
6, 260812, Note_on_c, 2, 66, 110
6, 260908, Note_on_c, 2, 66, 0
6, 260965, Note_on_c, 2, 61, 110
6, 261028, Note_on_c, 2, 61, 0
6, 261300, Note_on_c, 2, 66, 110
6, 261396, Note_on_c, 2, 66, 0
6, 261467, Note_on_c, 2, 57, 104
6, 261530, Note_on_c, 2, 57, 0
6, 261611, Note_on_c, 2, 63, 96
6, 261731, Note_on_c, 2, 63, 0
6, 261739, Note_on_c, 2, 60, 106
6, 261859, Note_on_c, 2, 60, 0
6, 262264, Note_on_c, 2, 66, 105
6, 262360, Note_on_c, 2, 66, 0
6, 262414, Note_on_c, 2, 61, 92
6, 262477, Note_on_c, 2, 61, 0
6, 262587, Note_on_c, 2, 66, 105
6, 262686, Note_on_c, 2, 57, 110
6, 262707, Note_on_c, 2, 66, 0
6, 262806, Note_on_c, 2, 57, 0
6, 263056, Note_on_c, 2, 63, 96
6, 263171, Note_on_c, 2, 60, 108
6, 263176, Note_on_c, 2, 63, 0
6, 263291, Note_on_c, 2, 60, 0
6, 290880, Program_c, 2, 69
6, 290884, Note_on_c, 2, 68, 101
6, 290991, Note_on_c, 2, 68, 0
6, 291376, Note_on_c, 2, 73, 107
6, 291483, Note_on_c, 2, 73, 0
6, 292080, Note_on_c, 2, 68, 103
6, 292187, Note_on_c, 2, 68, 0
6, 292580, Note_on_c, 2, 73, 94
6, 292687, Note_on_c, 2, 73, 0
6, 293304, Note_on_c, 2, 68, 119
6, 293411, Note_on_c, 2, 68, 0
6, 293773, Note_on_c, 2, 68, 102
6, 293880, Note_on_c, 2, 68, 0
6, 294262, Note_on_c, 2, 68, 110
6, 294369, Note_on_c, 2, 68, 0
6, 294723, Note_on_c, 2, 68, 105
6, 294830, Note_on_c, 2, 68, 0
6, 295446, Note_on_c, 2, 68, 120
6, 295553, Note_on_c, 2, 68, 0
6, 295943, Note_on_c, 2, 73, 102
6, 296050, Note_on_c, 2, 73, 0
6, 296665, Note_on_c, 2, 68, 103
6, 296772, Note_on_c, 2, 68, 0
6, 297120, Note_on_c, 2, 68, 114
6, 297227, Note_on_c, 2, 68, 0
6, 297619, Note_on_c, 2, 73, 96
6, 297726, Note_on_c, 2, 73, 0
6, 298329, Note_on_c, 2, 68, 115
6, 298436, Note_on_c, 2, 68, 0
6, 298810, Note_on_c, 2, 73, 109
6, 298917, Note_on_c, 2, 73, 0
6, 299530, Note_on_c, 2, 73, 84
6, 299626, Note_on_c, 2, 73, 0
6, 300006, Note_on_c, 2, 71, 94
6, 300102, Note_on_c, 2, 71, 0
6, 300498, Note_on_c, 2, 69, 80
6, 300594, Note_on_c, 2, 69, 0
6, 300968, Note_on_c, 2, 68, 112
6, 301075, Note_on_c, 2, 68, 0
6, 301453, Note_on_c, 2, 73, 106
6, 301560, Note_on_c, 2, 73, 0
6, 302186, Note_on_c, 2, 73, 81
6, 302282, Note_on_c, 2, 73, 0
6, 302658, Note_on_c, 2, 71, 81
6, 302754, Note_on_c, 2, 71, 0
6, 303144, Note_on_c, 2, 69, 91
6, 303240, Note_on_c, 2, 69, 0
6, 303615, Note_on_c, 2, 68, 95
6, 303711, Note_on_c, 2, 68, 0
6, 304337, Note_on_c, 2, 68, 109
6, 304444, Note_on_c, 2, 68, 0
6, 304800, Note_on_c, 2, 73, 93
6, 304907, Note_on_c, 2, 73, 0
6, 305531, Note_on_c, 2, 68, 100
6, 305638, Note_on_c, 2, 68, 0
6, 306024, Note_on_c, 2, 73, 101
6, 306131, Note_on_c, 2, 73, 0
6, 306744, Note_on_c, 2, 68, 109
6, 306851, Note_on_c, 2, 68, 0
6, 307206, Note_on_c, 2, 68, 110
6, 307313, Note_on_c, 2, 68, 0
6, 307708, Note_on_c, 2, 73, 101
6, 307815, Note_on_c, 2, 73, 0
6, 308428, Note_on_c, 2, 68, 116
6, 308535, Note_on_c, 2, 68, 0
6, 308891, Note_on_c, 2, 73, 92
6, 308998, Note_on_c, 2, 73, 0
6, 318026, Note_on_c, 2, 72, 104
6, 318866, Note_on_c, 2, 72, 0
6, 318983, Note_on_c, 2, 72, 102
6, 319343, Note_on_c, 2, 72, 0
6, 319468, Note_on_c, 2, 72, 96
6, 319828, Note_on_c, 2, 72, 0
6, 319925, Note_on_c, 2, 72, 109
6, 320285, Note_on_c, 2, 72, 0
6, 320407, Note_on_c, 2, 72, 109
6, 320767, Note_on_c, 2, 72, 0
6, 320897, Note_on_c, 2, 72, 107
6, 321257, Note_on_c, 2, 72, 0
6, 321374, Note_on_c, 2, 72, 94
6, 322214, Note_on_c, 2, 72, 0
6, 322336, Note_on_c, 2, 72, 98
6, 322696, Note_on_c, 2, 72, 0
6, 322828, Note_on_c, 2, 72, 94
6, 323188, Note_on_c, 2, 72, 0
6, 323306, Note_on_c, 2, 72, 95
6, 323666, Note_on_c, 2, 72, 0
6, 323773, Note_on_c, 2, 72, 95
6, 324133, Note_on_c, 2, 72, 0
6, 340584, Note_on_c, 2, 72, 100
6, 340944, Note_on_c, 2, 72, 0
6, 341061, Note_on_c, 2, 72, 100
6, 341421, Note_on_c, 2, 72, 0
6, 341534, Note_on_c, 2, 74, 101
6, 341894, Note_on_c, 2, 74, 0
6, 342028, Note_on_c, 2, 72, 101
6, 342388, Note_on_c, 2, 72, 0
6, 342493, Note_on_c, 2, 74, 111
6, 342853, Note_on_c, 2, 74, 0
6, 342960, Note_on_c, 2, 72, 104
6, 343320, Note_on_c, 2, 72, 0
6, 343928, Note_on_c, 2, 72, 108
6, 344288, Note_on_c, 2, 72, 0
6, 344420, Note_on_c, 2, 72, 105
6, 344780, Note_on_c, 2, 72, 0
6, 344902, Note_on_c, 2, 74, 96
6, 345262, Note_on_c, 2, 74, 0
6, 345379, Note_on_c, 2, 72, 109
6, 345739, Note_on_c, 2, 72, 0
6, 345865, Note_on_c, 2, 74, 98
6, 346225, Note_on_c, 2, 74, 0
6, 346342, Note_on_c, 2, 72, 91
6, 346702, Note_on_c, 2, 72, 0
6, 346801, Note_on_c, 2, 75, 111
6, 347161, Note_on_c, 2, 75, 0
6, 347302, Note_on_c, 2, 74, 103
6, 347662, Note_on_c, 2, 74, 0
6, 347763, Note_on_c, 2, 72, 97
6, 348603, Note_on_c, 2, 72, 0
6, 348726, Note_on_c, 2, 72, 108
6, 349086, Note_on_c, 2, 72, 0
6, 349212, Note_on_c, 2, 72, 107
6, 349572, Note_on_c, 2, 72, 0
6, 349695, Note_on_c, 2, 79, 92
6, 350055, Note_on_c, 2, 79, 0
6, 350167, Note_on_c, 2, 78, 91
6, 350527, Note_on_c, 2, 78, 0
6, 350663, Note_on_c, 2, 76, 92
6, 351023, Note_on_c, 2, 76, 0
6, 351125, Note_on_c, 2, 72, 96
6, 351485, Note_on_c, 2, 72, 0
6, 383301, Note_on_c, 2, 72, 98
6, 383541, Note_on_c, 2, 72, 0
6, 383776, Note_on_c, 2, 72, 108
6, 384016, Note_on_c, 2, 72, 0
6, 384269, Note_on_c, 2, 74, 101
6, 384509, Note_on_c, 2, 74, 0
6, 384733, Note_on_c, 2, 72, 101
6, 384973, Note_on_c, 2, 72, 0
6, 385203, Note_on_c, 2, 74, 110
6, 385443, Note_on_c, 2, 74, 0
6, 385706, Note_on_c, 2, 72, 96
6, 385946, Note_on_c, 2, 72, 0
6, 393206, Note_on_c, 2, 52, 43
6, 393265, Note_on_c, 2, 53, 51
6, 393286, Note_on_c, 2, 52, 0
6, 393298, Note_on_c, 2, 54, 57
6, 393336, Note_on_c, 2, 55, 55
6, 393344, Note_on_c, 2, 53, 0
6, 393374, Note_on_c, 2, 56, 50
6, 393379, Note_on_c, 2, 54, 0
6, 393390, Control_c, 2, 11, 127
6, 393416, Note_on_c, 2, 55, 0
6, 393425, Control_c, 2, 11, 126
6, 393460, Control_c, 2, 11, 125
6, 393495, Control_c, 2, 11, 124
6, 393531, Control_c, 2, 11, 123
6, 393566, Control_c, 2, 11, 122
6, 393601, Control_c, 2, 11, 121
6, 393637, Control_c, 2, 11, 120
6, 393672, Control_c, 2, 11, 119
6, 393707, Control_c, 2, 11, 118
6, 393742, Control_c, 2, 11, 117
6, 393778, Control_c, 2, 11, 116
6, 393813, Control_c, 2, 11, 115
6, 393848, Control_c, 2, 11, 114
6, 393884, Control_c, 2, 11, 113
6, 393919, Control_c, 2, 11, 112
6, 393954, Control_c, 2, 11, 111
6, 393990, Control_c, 2, 11, 110
6, 394025, Control_c, 2, 11, 109
6, 394060, Control_c, 2, 11, 108
6, 394095, Control_c, 2, 11, 107
6, 394131, Control_c, 2, 11, 106
6, 394166, Control_c, 2, 11, 105
6, 394201, Control_c, 2, 11, 104
6, 394237, Control_c, 2, 11, 103
6, 394272, Control_c, 2, 11, 102
6, 394307, Control_c, 2, 11, 101
6, 394342, Control_c, 2, 11, 100
6, 394378, Control_c, 2, 11, 99
6, 394413, Control_c, 2, 11, 98
6, 394448, Control_c, 2, 11, 97
6, 394484, Control_c, 2, 11, 96
6, 394519, Control_c, 2, 11, 95
6, 394554, Control_c, 2, 11, 94
6, 394589, Control_c, 2, 11, 93
6, 394625, Control_c, 2, 11, 92
6, 394660, Control_c, 2, 11, 91
6, 394695, Control_c, 2, 11, 90
6, 394731, Control_c, 2, 11, 89
6, 394766, Control_c, 2, 11, 88
6, 394801, Control_c, 2, 11, 87
6, 394836, Control_c, 2, 11, 86
6, 394872, Control_c, 2, 11, 85
6, 394907, Control_c, 2, 11, 84
6, 394942, Control_c, 2, 11, 83
6, 394977, Control_c, 2, 11, 82
6, 395013, Control_c, 2, 11, 81
6, 395048, Control_c, 2, 11, 80
6, 395083, Control_c, 2, 11, 79
6, 395119, Control_c, 2, 11, 78
6, 395154, Control_c, 2, 11, 77
6, 395189, Control_c, 2, 11, 76
6, 395224, Control_c, 2, 11, 75
6, 395260, Control_c, 2, 11, 74
6, 395295, Control_c, 2, 11, 73
6, 395330, Control_c, 2, 11, 72
6, 395365, Control_c, 2, 11, 71
6, 395401, Control_c, 2, 11, 70
6, 395436, Control_c, 2, 11, 69
6, 395471, Control_c, 2, 11, 68
6, 395507, Control_c, 2, 11, 67
6, 395542, Control_c, 2, 11, 66
6, 395577, Control_c, 2, 11, 65
6, 395612, Control_c, 2, 11, 64
6, 395648, Control_c, 2, 11, 63
6, 395683, Control_c, 2, 11, 62
6, 395718, Control_c, 2, 11, 61
6, 395753, Control_c, 2, 11, 60
6, 395789, Control_c, 2, 11, 59
6, 395824, Control_c, 2, 11, 58
6, 395859, Control_c, 2, 11, 57
6, 395895, Control_c, 2, 11, 56
6, 395930, Control_c, 2, 11, 55
6, 395965, Control_c, 2, 11, 54
6, 396000, Control_c, 2, 11, 53
6, 396036, Control_c, 2, 11, 52
6, 396071, Control_c, 2, 11, 51
6, 396106, Control_c, 2, 11, 50
6, 396142, Control_c, 2, 11, 49
6, 396177, Control_c, 2, 11, 48
6, 396212, Control_c, 2, 11, 47
6, 396247, Control_c, 2, 11, 46
6, 396283, Control_c, 2, 11, 45
6, 396318, Control_c, 2, 11, 44
6, 396353, Control_c, 2, 11, 43
6, 396389, Control_c, 2, 11, 42
6, 396424, Control_c, 2, 11, 41
6, 396459, Control_c, 2, 11, 40
6, 396495, Control_c, 2, 11, 39
6, 396530, Control_c, 2, 11, 38
6, 396565, Control_c, 2, 11, 37
6, 396600, Control_c, 2, 11, 36
6, 396636, Control_c, 2, 11, 35
6, 396671, Control_c, 2, 11, 34
6, 396706, Control_c, 2, 11, 33
6, 396893, Note_on_c, 2, 56, 0
6, 396909, Control_c, 2, 11, 127
6, 397057, Note_on_c, 2, 52, 49
6, 397085, Note_on_c, 2, 53, 48
6, 397124, Note_on_c, 2, 54, 53
6, 397137, Note_on_c, 2, 52, 0
6, 397164, Note_on_c, 2, 53, 0
6, 397169, Note_on_c, 2, 55, 48
6, 397200, Note_on_c, 2, 56, 49
6, 397205, Note_on_c, 2, 54, 0
6, 397210, Control_c, 2, 11, 127
6, 397225, Control_c, 2, 11, 126
6, 397240, Control_c, 2, 11, 125
6, 397249, Note_on_c, 2, 55, 0
6, 397256, Control_c, 2, 11, 124
6, 397271, Control_c, 2, 11, 123
6, 397286, Control_c, 2, 11, 122
6, 397301, Control_c, 2, 11, 121
6, 397316, Control_c, 2, 11, 120
6, 397332, Control_c, 2, 11, 119
6, 397347, Control_c, 2, 11, 118
6, 397362, Control_c, 2, 11, 117
6, 397377, Control_c, 2, 11, 116
6, 397393, Control_c, 2, 11, 115
6, 397408, Control_c, 2, 11, 114
6, 397423, Control_c, 2, 11, 113
6, 397438, Control_c, 2, 11, 112
6, 397453, Control_c, 2, 11, 111
6, 397469, Control_c, 2, 11, 110
6, 397484, Control_c, 2, 11, 109
6, 397499, Control_c, 2, 11, 108
6, 397514, Control_c, 2, 11, 107
6, 397529, Control_c, 2, 11, 106
6, 397545, Control_c, 2, 11, 105
6, 397560, Control_c, 2, 11, 104
6, 397575, Control_c, 2, 11, 103
6, 397590, Control_c, 2, 11, 102
6, 397605, Control_c, 2, 11, 101
6, 397620, Control_c, 2, 11, 100
6, 397635, Control_c, 2, 11, 99
6, 397651, Control_c, 2, 11, 98
6, 397666, Control_c, 2, 11, 97
6, 397681, Control_c, 2, 11, 96
6, 397696, Control_c, 2, 11, 95
6, 397712, Control_c, 2, 11, 94
6, 397727, Control_c, 2, 11, 93
6, 397742, Control_c, 2, 11, 92
6, 397757, Control_c, 2, 11, 91
6, 397772, Control_c, 2, 11, 90
6, 397788, Control_c, 2, 11, 89
6, 397803, Control_c, 2, 11, 88
6, 397818, Control_c, 2, 11, 87
6, 397833, Control_c, 2, 11, 86
6, 397848, Control_c, 2, 11, 85
6, 397864, Control_c, 2, 11, 84
6, 397879, Control_c, 2, 11, 83
6, 397894, Control_c, 2, 11, 82
6, 397909, Control_c, 2, 11, 81
6, 397925, Control_c, 2, 11, 80
6, 397940, Control_c, 2, 11, 79
6, 397955, Control_c, 2, 11, 78
6, 397970, Control_c, 2, 11, 77
6, 397985, Control_c, 2, 11, 76
6, 398001, Control_c, 2, 11, 75
6, 398016, Control_c, 2, 11, 74
6, 398031, Control_c, 2, 11, 73
6, 398046, Control_c, 2, 11, 72
6, 398061, Control_c, 2, 11, 71
6, 398077, Control_c, 2, 11, 70
6, 398092, Control_c, 2, 11, 69
6, 398107, Control_c, 2, 11, 68
6, 398122, Control_c, 2, 11, 67
6, 398137, Control_c, 2, 11, 66
6, 398152, Control_c, 2, 11, 65
6, 398167, Control_c, 2, 11, 64
6, 398183, Control_c, 2, 11, 63
6, 398198, Control_c, 2, 11, 62
6, 398213, Control_c, 2, 11, 61
6, 398228, Control_c, 2, 11, 60
6, 398243, Control_c, 2, 11, 59
6, 398259, Control_c, 2, 11, 58
6, 398274, Control_c, 2, 11, 57
6, 398289, Control_c, 2, 11, 56
6, 398304, Control_c, 2, 11, 55
6, 398320, Control_c, 2, 11, 54
6, 398335, Control_c, 2, 11, 53
6, 398350, Control_c, 2, 11, 52
6, 398365, Control_c, 2, 11, 51
6, 398380, Control_c, 2, 11, 50
6, 398396, Control_c, 2, 11, 49
6, 398411, Control_c, 2, 11, 48
6, 398426, Control_c, 2, 11, 47
6, 398441, Control_c, 2, 11, 46
6, 398456, Control_c, 2, 11, 45
6, 398472, Control_c, 2, 11, 44
6, 398487, Control_c, 2, 11, 43
6, 398502, Control_c, 2, 11, 42
6, 398517, Control_c, 2, 11, 41
6, 398533, Control_c, 2, 11, 40
6, 398548, Control_c, 2, 11, 39
6, 398563, Control_c, 2, 11, 38
6, 398578, Control_c, 2, 11, 37
6, 398593, Control_c, 2, 11, 36
6, 398609, Control_c, 2, 11, 35
6, 398624, Control_c, 2, 11, 34
6, 398639, Control_c, 2, 11, 33
6, 398640, Note_on_c, 2, 56, 0
6, 398799, Control_c, 2, 11, 127
6, 398982, Note_on_c, 2, 52, 39
6, 399001, Note_on_c, 2, 53, 43
6, 399059, Note_on_c, 2, 54, 51
6, 399062, Note_on_c, 2, 52, 0
6, 399080, Note_on_c, 2, 53, 0
6, 399090, Note_on_c, 2, 55, 53
6, 399121, Note_on_c, 2, 56, 51
6, 399130, Control_c, 2, 11, 127
6, 399140, Note_on_c, 2, 54, 0
6, 399145, Control_c, 2, 11, 126
6, 399160, Control_c, 2, 11, 125
6, 399170, Note_on_c, 2, 55, 0
6, 399176, Control_c, 2, 11, 124
6, 399191, Control_c, 2, 11, 123
6, 399206, Control_c, 2, 11, 122
6, 399221, Control_c, 2, 11, 121
6, 399236, Control_c, 2, 11, 120
6, 399252, Control_c, 2, 11, 119
6, 399267, Control_c, 2, 11, 118
6, 399282, Control_c, 2, 11, 117
6, 399297, Control_c, 2, 11, 116
6, 399313, Control_c, 2, 11, 115
6, 399328, Control_c, 2, 11, 114
6, 399343, Control_c, 2, 11, 113
6, 399358, Control_c, 2, 11, 112
6, 399373, Control_c, 2, 11, 111
6, 399389, Control_c, 2, 11, 110
6, 399404, Control_c, 2, 11, 109
6, 399419, Control_c, 2, 11, 108
6, 399434, Control_c, 2, 11, 107
6, 399449, Control_c, 2, 11, 106
6, 399465, Control_c, 2, 11, 105
6, 399480, Control_c, 2, 11, 104
6, 399495, Control_c, 2, 11, 103
6, 399510, Control_c, 2, 11, 102
6, 399525, Control_c, 2, 11, 101
6, 399540, Control_c, 2, 11, 100
6, 399555, Control_c, 2, 11, 99
6, 399571, Control_c, 2, 11, 98
6, 399586, Control_c, 2, 11, 97
6, 399601, Control_c, 2, 11, 96
6, 399616, Control_c, 2, 11, 95
6, 399632, Control_c, 2, 11, 94
6, 399647, Control_c, 2, 11, 93
6, 399662, Control_c, 2, 11, 92
6, 399677, Control_c, 2, 11, 91
6, 399692, Control_c, 2, 11, 90
6, 399708, Control_c, 2, 11, 89
6, 399723, Control_c, 2, 11, 88
6, 399738, Control_c, 2, 11, 87
6, 399753, Control_c, 2, 11, 86
6, 399768, Control_c, 2, 11, 85
6, 399784, Control_c, 2, 11, 84
6, 399799, Control_c, 2, 11, 83
6, 399814, Control_c, 2, 11, 82
6, 399829, Control_c, 2, 11, 81
6, 399845, Control_c, 2, 11, 80
6, 399860, Control_c, 2, 11, 79
6, 399875, Control_c, 2, 11, 78
6, 399890, Control_c, 2, 11, 77
6, 399905, Control_c, 2, 11, 76
6, 399921, Control_c, 2, 11, 75
6, 399936, Control_c, 2, 11, 74
6, 399951, Control_c, 2, 11, 73
6, 399966, Control_c, 2, 11, 72
6, 399981, Control_c, 2, 11, 71
6, 399997, Control_c, 2, 11, 70
6, 400012, Control_c, 2, 11, 69
6, 400027, Control_c, 2, 11, 68
6, 400042, Control_c, 2, 11, 67
6, 400057, Control_c, 2, 11, 66
6, 400072, Control_c, 2, 11, 65
6, 400087, Control_c, 2, 11, 64
6, 400103, Control_c, 2, 11, 63
6, 400118, Control_c, 2, 11, 62
6, 400133, Control_c, 2, 11, 61
6, 400148, Control_c, 2, 11, 60
6, 400163, Control_c, 2, 11, 59
6, 400179, Control_c, 2, 11, 58
6, 400194, Control_c, 2, 11, 57
6, 400209, Control_c, 2, 11, 56
6, 400224, Control_c, 2, 11, 55
6, 400240, Control_c, 2, 11, 54
6, 400255, Control_c, 2, 11, 53
6, 400270, Control_c, 2, 11, 52
6, 400285, Control_c, 2, 11, 51
6, 400300, Control_c, 2, 11, 50
6, 400316, Control_c, 2, 11, 49
6, 400331, Control_c, 2, 11, 48
6, 400346, Control_c, 2, 11, 47
6, 400361, Control_c, 2, 11, 46
6, 400376, Control_c, 2, 11, 45
6, 400392, Control_c, 2, 11, 44
6, 400407, Control_c, 2, 11, 43
6, 400422, Control_c, 2, 11, 42
6, 400437, Control_c, 2, 11, 41
6, 400453, Control_c, 2, 11, 40
6, 400468, Control_c, 2, 11, 39
6, 400483, Control_c, 2, 11, 38
6, 400498, Control_c, 2, 11, 37
6, 400513, Control_c, 2, 11, 36
6, 400529, Control_c, 2, 11, 35
6, 400544, Control_c, 2, 11, 34
6, 400559, Control_c, 2, 11, 33
6, 400719, Control_c, 2, 11, 127
6, 400720, Note_on_c, 2, 56, 0
6, 400891, Note_on_c, 2, 52, 44
6, 400942, Note_on_c, 2, 53, 55
6, 400971, Note_on_c, 2, 52, 0
6, 400978, Note_on_c, 2, 54, 52
6, 401021, Note_on_c, 2, 53, 0
6, 401026, Note_on_c, 2, 55, 59
6, 401051, Note_on_c, 2, 56, 55
6, 401059, Note_on_c, 2, 54, 0
6, 401072, Control_c, 2, 11, 127
6, 401106, Note_on_c, 2, 55, 0
6, 401109, Control_c, 2, 11, 126
6, 401147, Control_c, 2, 11, 125
6, 401184, Control_c, 2, 11, 124
6, 401221, Control_c, 2, 11, 123
6, 401259, Control_c, 2, 11, 122
6, 401296, Control_c, 2, 11, 121
6, 401333, Control_c, 2, 11, 120
6, 401371, Control_c, 2, 11, 119
6, 401408, Control_c, 2, 11, 118
6, 401445, Control_c, 2, 11, 117
6, 401483, Control_c, 2, 11, 116
6, 401520, Control_c, 2, 11, 115
6, 401557, Control_c, 2, 11, 114
6, 401595, Control_c, 2, 11, 113
6, 401632, Control_c, 2, 11, 112
6, 401670, Control_c, 2, 11, 111
6, 401707, Control_c, 2, 11, 110
6, 401744, Control_c, 2, 11, 109
6, 401782, Control_c, 2, 11, 108
6, 401819, Control_c, 2, 11, 107
6, 401856, Control_c, 2, 11, 106
6, 401894, Control_c, 2, 11, 105
6, 401931, Control_c, 2, 11, 104
6, 401968, Control_c, 2, 11, 103
6, 402006, Control_c, 2, 11, 102
6, 402043, Control_c, 2, 11, 101
6, 402080, Control_c, 2, 11, 100
6, 402118, Control_c, 2, 11, 99
6, 402155, Control_c, 2, 11, 98
6, 402192, Control_c, 2, 11, 97
6, 402230, Control_c, 2, 11, 96
6, 402267, Control_c, 2, 11, 95
6, 402304, Control_c, 2, 11, 94
6, 402342, Control_c, 2, 11, 93
6, 402379, Control_c, 2, 11, 92
6, 402416, Control_c, 2, 11, 91
6, 402454, Control_c, 2, 11, 90
6, 402491, Control_c, 2, 11, 89
6, 402528, Control_c, 2, 11, 88
6, 402566, Control_c, 2, 11, 87
6, 402603, Control_c, 2, 11, 86
6, 402640, Control_c, 2, 11, 85
6, 402678, Control_c, 2, 11, 84
6, 402715, Control_c, 2, 11, 83
6, 402752, Control_c, 2, 11, 82
6, 402790, Control_c, 2, 11, 81
6, 402827, Control_c, 2, 11, 80
6, 402864, Control_c, 2, 11, 79
6, 402902, Control_c, 2, 11, 78
6, 402939, Control_c, 2, 11, 77
6, 402976, Control_c, 2, 11, 76
6, 403014, Control_c, 2, 11, 75
6, 403051, Control_c, 2, 11, 74
6, 403088, Control_c, 2, 11, 73
6, 403126, Control_c, 2, 11, 72
6, 403163, Control_c, 2, 11, 71
6, 403200, Control_c, 2, 11, 70
6, 403238, Control_c, 2, 11, 69
6, 403275, Control_c, 2, 11, 68
6, 403312, Control_c, 2, 11, 67
6, 403350, Control_c, 2, 11, 66
6, 403387, Control_c, 2, 11, 65
6, 403425, Control_c, 2, 11, 64
6, 403462, Control_c, 2, 11, 63
6, 403499, Control_c, 2, 11, 62
6, 403537, Control_c, 2, 11, 61
6, 403574, Control_c, 2, 11, 60
6, 403611, Control_c, 2, 11, 59
6, 403649, Control_c, 2, 11, 58
6, 403686, Control_c, 2, 11, 57
6, 403723, Control_c, 2, 11, 56
6, 403761, Control_c, 2, 11, 55
6, 403798, Control_c, 2, 11, 54
6, 403835, Control_c, 2, 11, 53
6, 403873, Control_c, 2, 11, 52
6, 403910, Control_c, 2, 11, 51
6, 403947, Control_c, 2, 11, 50
6, 403985, Control_c, 2, 11, 49
6, 404022, Control_c, 2, 11, 48
6, 404059, Control_c, 2, 11, 47
6, 404097, Control_c, 2, 11, 46
6, 404134, Control_c, 2, 11, 45
6, 404171, Control_c, 2, 11, 44
6, 404209, Control_c, 2, 11, 43
6, 404246, Control_c, 2, 11, 42
6, 404283, Control_c, 2, 11, 41
6, 404321, Control_c, 2, 11, 40
6, 404358, Control_c, 2, 11, 39
6, 404395, Control_c, 2, 11, 38
6, 404433, Control_c, 2, 11, 37
6, 404470, Control_c, 2, 11, 36
6, 404507, Control_c, 2, 11, 35
6, 404545, Control_c, 2, 11, 34
6, 404570, Note_on_c, 2, 56, 0
6, 404582, Control_c, 2, 11, 33
6, 404640, Control_c, 2, 11, 32
6, 404640, Control_c, 2, 11, 33
6, 404642, Control_c, 2, 11, 34
6, 404643, Control_c, 2, 11, 35
6, 404644, Control_c, 2, 11, 36
6, 404645, Control_c, 2, 11, 37
6, 404646, Control_c, 2, 11, 38
6, 404647, Control_c, 2, 11, 39
6, 404648, Control_c, 2, 11, 40
6, 404649, Control_c, 2, 11, 41
6, 404650, Control_c, 2, 11, 42
6, 404652, Control_c, 2, 11, 43
6, 404653, Control_c, 2, 11, 44
6, 404654, Control_c, 2, 11, 45
6, 404655, Control_c, 2, 11, 46
6, 404656, Control_c, 2, 11, 47
6, 404657, Control_c, 2, 11, 48
6, 404658, Control_c, 2, 11, 49
6, 404659, Control_c, 2, 11, 50
6, 404660, Control_c, 2, 11, 51
6, 404662, Control_c, 2, 11, 52
6, 404662, Control_c, 2, 11, 53
6, 404663, Control_c, 2, 11, 54
6, 404665, Control_c, 2, 11, 55
6, 404666, Control_c, 2, 11, 56
6, 404667, Control_c, 2, 11, 57
6, 404668, Control_c, 2, 11, 58
6, 404669, Control_c, 2, 11, 59
6, 404670, Control_c, 2, 11, 60
6, 404671, Control_c, 2, 11, 61
6, 404672, Control_c, 2, 11, 62
6, 404673, Control_c, 2, 11, 63
6, 404675, Control_c, 2, 11, 64
6, 404676, Control_c, 2, 11, 65
6, 404677, Control_c, 2, 11, 66
6, 404678, Control_c, 2, 11, 67
6, 404679, Control_c, 2, 11, 68
6, 404680, Control_c, 2, 11, 69
6, 404681, Control_c, 2, 11, 70
6, 404682, Control_c, 2, 11, 71
6, 404683, Control_c, 2, 11, 72
6, 404685, Control_c, 2, 11, 73
6, 404685, Control_c, 2, 11, 74
6, 404686, Control_c, 2, 11, 75
6, 404688, Control_c, 2, 11, 76
6, 404689, Control_c, 2, 11, 77
6, 404690, Control_c, 2, 11, 78
6, 404691, Control_c, 2, 11, 79
6, 404692, Control_c, 2, 11, 80
6, 404693, Control_c, 2, 11, 81
6, 404694, Control_c, 2, 11, 82
6, 404695, Control_c, 2, 11, 83
6, 404697, Control_c, 2, 11, 84
6, 404698, Control_c, 2, 11, 85
6, 404699, Control_c, 2, 11, 86
6, 404700, Control_c, 2, 11, 87
6, 404701, Control_c, 2, 11, 88
6, 404702, Control_c, 2, 11, 89
6, 404703, Control_c, 2, 11, 90
6, 404704, Control_c, 2, 11, 91
6, 404705, Control_c, 2, 11, 92
6, 404707, Control_c, 2, 11, 93
6, 404707, Control_c, 2, 11, 94
6, 404708, Control_c, 2, 11, 95
6, 404710, Control_c, 2, 11, 96
6, 404711, Control_c, 2, 11, 97
6, 404712, Control_c, 2, 11, 98
6, 404713, Control_c, 2, 11, 99
6, 404714, Control_c, 2, 11, 100
6, 404715, Control_c, 2, 11, 101
6, 404716, Control_c, 2, 11, 102
6, 404717, Control_c, 2, 11, 103
6, 404718, Control_c, 2, 11, 104
6, 404720, Control_c, 2, 11, 105
6, 404721, Control_c, 2, 11, 106
6, 404722, Control_c, 2, 11, 107
6, 404723, Control_c, 2, 11, 108
6, 404724, Control_c, 2, 11, 109
6, 404725, Control_c, 2, 11, 110
6, 404726, Control_c, 2, 11, 111
6, 404727, Control_c, 2, 11, 112
6, 404728, Control_c, 2, 11, 113
6, 404730, Control_c, 2, 11, 114
6, 404730, Control_c, 2, 11, 115
6, 404731, Control_c, 2, 11, 116
6, 404733, Control_c, 2, 11, 117
6, 404734, Control_c, 2, 11, 118
6, 404735, Control_c, 2, 11, 119
6, 404736, Control_c, 2, 11, 120
6, 404737, Control_c, 2, 11, 121
6, 404738, Control_c, 2, 11, 122
6, 404739, Note_on_c, 2, 52, 57
6, 404739, Control_c, 2, 11, 123
6, 404740, Control_c, 2, 11, 124
6, 404741, Control_c, 2, 11, 125
6, 404765, Note_on_c, 2, 53, 53
6, 404819, Note_on_c, 2, 52, 0
6, 404826, Note_on_c, 2, 54, 46
6, 404844, Note_on_c, 2, 53, 0
6, 404858, Note_on_c, 2, 55, 49
6, 404893, Note_on_c, 2, 56, 45
6, 404900, Control_c, 2, 11, 127
6, 404907, Note_on_c, 2, 54, 0
6, 404925, Control_c, 2, 11, 126
6, 404938, Note_on_c, 2, 55, 0
6, 404950, Control_c, 2, 11, 125
6, 404976, Control_c, 2, 11, 124
6, 405001, Control_c, 2, 11, 123
6, 405026, Control_c, 2, 11, 122
6, 405051, Control_c, 2, 11, 121
6, 405076, Control_c, 2, 11, 120
6, 405102, Control_c, 2, 11, 119
6, 405127, Control_c, 2, 11, 118
6, 405152, Control_c, 2, 11, 117
6, 405177, Control_c, 2, 11, 116
6, 405202, Control_c, 2, 11, 115
6, 405228, Control_c, 2, 11, 114
6, 405253, Control_c, 2, 11, 113
6, 405278, Control_c, 2, 11, 112
6, 405303, Control_c, 2, 11, 111
6, 405329, Control_c, 2, 11, 110
6, 405353, Control_c, 2, 11, 109
6, 405379, Control_c, 2, 11, 108
6, 405404, Control_c, 2, 11, 107
6, 405429, Control_c, 2, 11, 106
6, 405454, Control_c, 2, 11, 105
6, 405480, Control_c, 2, 11, 104
6, 405505, Control_c, 2, 11, 103
6, 405530, Control_c, 2, 11, 102
6, 405555, Control_c, 2, 11, 101
6, 405580, Control_c, 2, 11, 100
6, 405606, Control_c, 2, 11, 99
6, 405631, Control_c, 2, 11, 98
6, 405656, Control_c, 2, 11, 97
6, 405681, Control_c, 2, 11, 96
6, 405706, Control_c, 2, 11, 95
6, 405732, Control_c, 2, 11, 94
6, 405757, Control_c, 2, 11, 93
6, 405782, Control_c, 2, 11, 92
6, 405807, Control_c, 2, 11, 91
6, 405832, Control_c, 2, 11, 90
6, 405858, Control_c, 2, 11, 89
6, 405883, Control_c, 2, 11, 88
6, 405908, Control_c, 2, 11, 87
6, 405933, Control_c, 2, 11, 86
6, 405959, Control_c, 2, 11, 85
6, 405983, Control_c, 2, 11, 84
6, 406009, Control_c, 2, 11, 83
6, 406034, Control_c, 2, 11, 82
6, 406059, Control_c, 2, 11, 81
6, 406085, Control_c, 2, 11, 80
6, 406110, Control_c, 2, 11, 79
6, 406135, Control_c, 2, 11, 78
6, 406160, Control_c, 2, 11, 77
6, 406185, Control_c, 2, 11, 76
6, 406210, Control_c, 2, 11, 75
6, 406236, Control_c, 2, 11, 74
6, 406261, Control_c, 2, 11, 73
6, 406286, Control_c, 2, 11, 72
6, 406311, Control_c, 2, 11, 71
6, 406336, Control_c, 2, 11, 70
6, 406362, Control_c, 2, 11, 69
6, 406387, Control_c, 2, 11, 68
6, 406412, Control_c, 2, 11, 67
6, 406437, Control_c, 2, 11, 66
6, 406462, Control_c, 2, 11, 65
6, 406488, Control_c, 2, 11, 64
6, 406513, Control_c, 2, 11, 63
6, 406538, Control_c, 2, 11, 62
6, 406563, Control_c, 2, 11, 61
6, 406589, Control_c, 2, 11, 60
6, 406613, Control_c, 2, 11, 59
6, 406639, Control_c, 2, 11, 58
6, 406664, Control_c, 2, 11, 57
6, 406689, Control_c, 2, 11, 56
6, 406715, Control_c, 2, 11, 55
6, 406740, Control_c, 2, 11, 54
6, 406765, Control_c, 2, 11, 53
6, 406790, Control_c, 2, 11, 52
6, 406815, Control_c, 2, 11, 51
6, 406840, Control_c, 2, 11, 50
6, 406866, Control_c, 2, 11, 49
6, 406891, Control_c, 2, 11, 48
6, 406916, Control_c, 2, 11, 47
6, 406941, Control_c, 2, 11, 46
6, 406966, Control_c, 2, 11, 45
6, 406992, Control_c, 2, 11, 44
6, 407017, Control_c, 2, 11, 43
6, 407042, Control_c, 2, 11, 42
6, 407067, Control_c, 2, 11, 41
6, 407092, Control_c, 2, 11, 40
6, 407118, Control_c, 2, 11, 39
6, 407143, Control_c, 2, 11, 38
6, 407168, Control_c, 2, 11, 37
6, 407193, Control_c, 2, 11, 36
6, 407219, Control_c, 2, 11, 35
6, 407243, Control_c, 2, 11, 34
6, 407269, Control_c, 2, 11, 33
6, 407449, Control_c, 2, 11, 127
6, 407452, Note_on_c, 2, 56, 0
6, 407617, Note_on_c, 2, 52, 54
6, 407640, Note_on_c, 2, 53, 48
6, 407697, Note_on_c, 2, 52, 0
6, 407698, Note_on_c, 2, 54, 39
6, 407719, Note_on_c, 2, 53, 0
6, 407737, Note_on_c, 2, 55, 57
6, 407767, Note_on_c, 2, 56, 49
6, 407779, Note_on_c, 2, 54, 0
6, 407817, Note_on_c, 2, 55, 0
6, 407852, Control_c, 2, 11, 127
6, 407889, Control_c, 2, 11, 126
6, 407927, Control_c, 2, 11, 125
6, 407964, Control_c, 2, 11, 124
6, 408002, Control_c, 2, 11, 123
6, 408039, Control_c, 2, 11, 122
6, 408077, Control_c, 2, 11, 121
6, 408114, Control_c, 2, 11, 120
6, 408152, Control_c, 2, 11, 119
6, 408189, Control_c, 2, 11, 118
6, 408227, Control_c, 2, 11, 117
6, 408264, Control_c, 2, 11, 116
6, 408302, Control_c, 2, 11, 115
6, 408339, Control_c, 2, 11, 114
6, 408377, Control_c, 2, 11, 113
6, 408414, Control_c, 2, 11, 112
6, 408452, Control_c, 2, 11, 111
6, 408489, Control_c, 2, 11, 110
6, 408527, Control_c, 2, 11, 109
6, 408564, Control_c, 2, 11, 108
6, 408602, Control_c, 2, 11, 107
6, 408639, Control_c, 2, 11, 106
6, 408677, Control_c, 2, 11, 105
6, 408714, Control_c, 2, 11, 104
6, 408752, Control_c, 2, 11, 103
6, 408789, Control_c, 2, 11, 102
6, 408827, Control_c, 2, 11, 101
6, 408864, Control_c, 2, 11, 100
6, 408902, Control_c, 2, 11, 99
6, 408939, Control_c, 2, 11, 98
6, 408977, Control_c, 2, 11, 97
6, 409014, Control_c, 2, 11, 96
6, 409052, Control_c, 2, 11, 95
6, 409090, Control_c, 2, 11, 94
6, 409127, Control_c, 2, 11, 93
6, 409165, Control_c, 2, 11, 92
6, 409202, Control_c, 2, 11, 91
6, 409240, Control_c, 2, 11, 90
6, 409277, Control_c, 2, 11, 89
6, 409315, Control_c, 2, 11, 88
6, 409352, Control_c, 2, 11, 87
6, 409390, Control_c, 2, 11, 86
6, 409427, Control_c, 2, 11, 85
6, 409465, Control_c, 2, 11, 84
6, 409502, Control_c, 2, 11, 83
6, 409540, Control_c, 2, 11, 82
6, 409577, Control_c, 2, 11, 81
6, 409615, Control_c, 2, 11, 80
6, 409652, Control_c, 2, 11, 79
6, 409690, Control_c, 2, 11, 78
6, 409727, Control_c, 2, 11, 77
6, 409765, Control_c, 2, 11, 76
6, 409802, Control_c, 2, 11, 75
6, 409840, Control_c, 2, 11, 74
6, 409877, Control_c, 2, 11, 73
6, 409915, Control_c, 2, 11, 72
6, 409952, Control_c, 2, 11, 71
6, 409990, Control_c, 2, 11, 70
6, 410027, Control_c, 2, 11, 69
6, 410065, Control_c, 2, 11, 68
6, 410102, Control_c, 2, 11, 67
6, 410140, Control_c, 2, 11, 66
6, 410177, Control_c, 2, 11, 65
6, 410407, Note_on_c, 2, 56, 0
6, 410635, Control_c, 2, 11, 127
6, 414497, Note_on_c, 2, 58, 36
6, 414737, Note_on_c, 2, 58, 0
6, 414967, Note_on_c, 2, 58, 23
6, 415207, Note_on_c, 2, 58, 0
6, 415465, Note_on_c, 2, 58, 39
6, 415705, Note_on_c, 2, 58, 0
6, 415924, Note_on_c, 2, 58, 32
6, 416164, Note_on_c, 2, 58, 0
6, 416407, Note_on_c, 2, 58, 27
6, 416647, Note_on_c, 2, 58, 0
6, 416882, Note_on_c, 2, 58, 37
6, 417122, Note_on_c, 2, 58, 0
6, 417366, Note_on_c, 2, 58, 34
6, 417606, Note_on_c, 2, 58, 0
6, 417845, Note_on_c, 2, 58, 23
6, 418085, Note_on_c, 2, 58, 0
6, 418344, Note_on_c, 2, 58, 36
6, 418584, Note_on_c, 2, 58, 0
6, 418821, Note_on_c, 2, 58, 23
6, 419061, Note_on_c, 2, 58, 0
6, 419287, Note_on_c, 2, 58, 53
6, 419527, Note_on_c, 2, 58, 0
6, 419768, Note_on_c, 2, 58, 24
6, 420008, Note_on_c, 2, 58, 0
6, 420265, Note_on_c, 2, 58, 33
6, 420505, Note_on_c, 2, 58, 0
6, 420739, Note_on_c, 2, 58, 28
6, 420979, Note_on_c, 2, 58, 0
6, 421225, Note_on_c, 2, 58, 31
6, 421465, Note_on_c, 2, 58, 0
6, 421705, Note_on_c, 2, 58, 35
6, 421945, Note_on_c, 2, 58, 0
6, 422165, Note_on_c, 2, 58, 28
6, 422405, Note_on_c, 2, 58, 0
6, 422660, Note_on_c, 2, 58, 23
6, 422900, Note_on_c, 2, 58, 0
6, 423136, Note_on_c, 2, 58, 36
6, 423376, Note_on_c, 2, 58, 0
6, 423607, Note_on_c, 2, 58, 23
6, 423847, Note_on_c, 2, 58, 0
6, 424089, Note_on_c, 2, 58, 24
6, 424329, Note_on_c, 2, 58, 0
6, 424580, Note_on_c, 2, 58, 25
6, 424820, Note_on_c, 2, 58, 0
6, 425048, Note_on_c, 2, 58, 22
6, 425288, Note_on_c, 2, 58, 0
6, 425546, Note_on_c, 2, 58, 38
6, 425786, Note_on_c, 2, 58, 0
6, 426022, Note_on_c, 2, 58, 38
6, 426262, Note_on_c, 2, 58, 0
6, 426502, Note_on_c, 2, 58, 31
6, 426742, Note_on_c, 2, 58, 0
6, 426961, Note_on_c, 2, 58, 31
6, 427201, Note_on_c, 2, 58, 0
6, 427461, Note_on_c, 2, 58, 27
6, 427701, Note_on_c, 2, 58, 0
6, 427947, Note_on_c, 2, 58, 37
6, 428187, Note_on_c, 2, 58, 0
6, 428428, Note_on_c, 2, 58, 22
6, 428668, Note_on_c, 2, 58, 0
6, 428886, Note_on_c, 2, 58, 37
6, 429126, Note_on_c, 2, 58, 0
6, 429363, Note_on_c, 2, 58, 24
6, 429603, Note_on_c, 2, 58, 0
6, 429852, Note_on_c, 2, 58, 24
6, 430092, Note_on_c, 2, 58, 0
6, 430346, Note_on_c, 2, 58, 24
6, 430586, Note_on_c, 2, 58, 0
6, 430823, Note_on_c, 2, 58, 21
6, 431063, Note_on_c, 2, 58, 0
6, 431289, Note_on_c, 2, 58, 30
6, 431529, Note_on_c, 2, 58, 0
6, 431775, Note_on_c, 2, 58, 40
6, 432015, Note_on_c, 2, 58, 0
6, 432260, Note_on_c, 2, 58, 20
6, 432500, Note_on_c, 2, 58, 0
6, 432724, Note_on_c, 2, 58, 38
6, 432964, Note_on_c, 2, 58, 0
6, 433201, Note_on_c, 2, 58, 35
6, 433441, Note_on_c, 2, 58, 0
6, 433681, Note_on_c, 2, 58, 31
6, 433921, Note_on_c, 2, 58, 0
6, 434177, Note_on_c, 2, 58, 28
6, 434417, Note_on_c, 2, 58, 0
6, 434663, Note_on_c, 2, 58, 31
6, 434903, Note_on_c, 2, 58, 0
6, 435137, Note_on_c, 2, 58, 37
6, 435377, Note_on_c, 2, 58, 0
6, 435615, Note_on_c, 2, 58, 36
6, 435855, Note_on_c, 2, 58, 0
6, 436089, Note_on_c, 2, 58, 38
6, 436329, Note_on_c, 2, 58, 0
6, 436578, Note_on_c, 2, 58, 20
6, 436818, Note_on_c, 2, 58, 0
6, 437061, Note_on_c, 2, 58, 28
6, 437301, Note_on_c, 2, 58, 0
6, 437521, Note_on_c, 2, 58, 39
6, 437761, Note_on_c, 2, 58, 0
6, 438017, Note_on_c, 2, 58, 87
6, 438257, Note_on_c, 2, 58, 0
6, 438497, Note_on_c, 2, 58, 89
6, 438737, Note_on_c, 2, 58, 0
6, 438979, Note_on_c, 2, 58, 85
6, 439219, Note_on_c, 2, 58, 0
6, 439461, Note_on_c, 2, 58, 88
6, 439701, Note_on_c, 2, 58, 0
6, 439926, Note_on_c, 2, 58, 84
6, 440166, Note_on_c, 2, 58, 0
6, 440420, Note_on_c, 2, 58, 84
6, 440660, Note_on_c, 2, 58, 0
6, 440906, Note_on_c, 2, 58, 93
6, 441146, Note_on_c, 2, 58, 0
6, 441381, Note_on_c, 2, 58, 82
6, 441621, Note_on_c, 2, 58, 0
6, 441855, Note_on_c, 2, 58, 90
6, 442095, Note_on_c, 2, 58, 0
6, 442326, Note_on_c, 2, 58, 89
6, 442566, Note_on_c, 2, 58, 0
6, 442822, Note_on_c, 2, 58, 79
6, 443062, Note_on_c, 2, 58, 0
6, 443283, Note_on_c, 2, 58, 96
6, 443523, Note_on_c, 2, 58, 0
6, 444242, Note_on_c, 2, 65, 88
6, 444246, Note_on_c, 2, 57, 96
6, 444542, Note_on_c, 2, 65, 0
6, 444546, Note_on_c, 2, 57, 0
6, 444555, Note_on_c, 2, 56, 80
6, 444558, Note_on_c, 2, 64, 83
6, 444607, Note_on_c, 2, 55, 77
6, 444609, Note_on_c, 2, 63, 85
6, 444615, Note_on_c, 2, 56, 0
6, 444618, Note_on_c, 2, 64, 0
6, 444667, Note_on_c, 2, 55, 0
6, 444669, Note_on_c, 2, 63, 0
6, 444674, Note_on_c, 2, 62, 77
6, 444678, Note_on_c, 2, 54, 64
6, 444729, Note_on_c, 2, 61, 48
6, 444734, Note_on_c, 2, 62, 0
6, 444738, Note_on_c, 2, 54, 0
6, 444749, Note_on_c, 2, 53, 59
6, 444849, Note_on_c, 2, 61, 0
6, 444869, Note_on_c, 2, 53, 0
6, 445687, Note_on_c, 2, 65, 96
6, 445693, Note_on_c, 2, 57, 83
6, 445987, Note_on_c, 2, 65, 0
6, 445989, Note_on_c, 2, 64, 93
6, 445993, Note_on_c, 2, 57, 0
6, 446008, Note_on_c, 2, 56, 88
6, 446040, Note_on_c, 2, 55, 86
6, 446046, Note_on_c, 2, 63, 84
6, 446049, Note_on_c, 2, 64, 0
6, 446068, Note_on_c, 2, 56, 0
6, 446100, Note_on_c, 2, 55, 0
6, 446104, Note_on_c, 2, 54, 70
6, 446106, Note_on_c, 2, 63, 0
6, 446117, Note_on_c, 2, 62, 70
6, 446162, Note_on_c, 2, 61, 47
6, 446164, Note_on_c, 2, 54, 0
6, 446177, Note_on_c, 2, 62, 0
6, 446188, Note_on_c, 2, 53, 63
6, 446342, Note_on_c, 2, 61, 0
6, 446426, Note_on_c, 2, 65, 51
6, 446428, Note_on_c, 2, 53, 0
6, 446606, Note_on_c, 2, 65, 0
6, 446646, Note_on_c, 2, 64, 70
6, 446745, Note_on_c, 2, 64, 0
6, 446803, Note_on_c, 2, 61, 69
6, 446903, Note_on_c, 2, 61, 0
6, 446969, Note_on_c, 2, 59, 96
6, 447069, Note_on_c, 2, 59, 0
6, 447129, Note_on_c, 2, 54, 85
6, 447134, Note_on_c, 2, 58, 89
6, 447369, Note_on_c, 2, 54, 0
6, 447374, Note_on_c, 2, 58, 0
6, 447610, Note_on_c, 2, 65, 85
6, 447625, Note_on_c, 2, 57, 93
6, 447910, Note_on_c, 2, 65, 0
6, 447914, Note_on_c, 2, 64, 98
6, 447916, Note_on_c, 2, 56, 94
6, 447925, Note_on_c, 2, 57, 0
6, 447974, Note_on_c, 2, 64, 0
6, 447976, Note_on_c, 2, 56, 0
6, 447979, Note_on_c, 2, 55, 68
6, 447981, Note_on_c, 2, 63, 88
6, 448034, Note_on_c, 2, 62, 85
6, 448037, Note_on_c, 2, 54, 74
6, 448039, Note_on_c, 2, 55, 0
6, 448041, Note_on_c, 2, 63, 0
6, 448080, Note_on_c, 2, 53, 63
6, 448080, Note_on_c, 2, 61, 95
6, 448094, Note_on_c, 2, 62, 0
6, 448097, Note_on_c, 2, 54, 0
6, 448200, Note_on_c, 2, 53, 0
6, 448200, Note_on_c, 2, 61, 0
6, 450968, Note_on_c, 2, 64, 54
6, 450979, Note_on_c, 2, 56, 48
6, 451205, Note_on_c, 2, 66, 43
6, 451208, Note_on_c, 2, 64, 0
6, 451213, Note_on_c, 2, 58, 44
6, 451219, Note_on_c, 2, 56, 0
6, 451445, Note_on_c, 2, 66, 0
6, 451451, Note_on_c, 2, 67, 70
6, 451452, Note_on_c, 2, 59, 70
6, 451453, Note_on_c, 2, 58, 0
6, 451682, Note_on_c, 2, 64, 78
6, 451691, Note_on_c, 2, 67, 0
6, 451692, Note_on_c, 2, 59, 0
6, 451702, Note_on_c, 2, 60, 81
6, 451802, Note_on_c, 2, 64, 0
6, 451822, Note_on_c, 2, 60, 0
6, 453860, Note_on_c, 2, 61, 59
6, 453865, Note_on_c, 2, 57, 49
6, 454082, Note_on_c, 2, 58, 47
6, 454097, Note_on_c, 2, 66, 42
6, 454100, Note_on_c, 2, 61, 0
6, 454105, Note_on_c, 2, 57, 0
6, 454322, Note_on_c, 2, 58, 0
6, 454329, Note_on_c, 2, 59, 57
6, 454337, Note_on_c, 2, 66, 0
6, 454342, Note_on_c, 2, 67, 74
6, 454562, Note_on_c, 2, 64, 81
6, 454569, Note_on_c, 2, 59, 0
6, 454579, Note_on_c, 2, 60, 75
6, 454582, Note_on_c, 2, 67, 0
6, 454682, Note_on_c, 2, 64, 0
6, 454699, Note_on_c, 2, 60, 0
6, 455772, Note_on_c, 2, 57, 50
6, 455788, Note_on_c, 2, 61, 39
6, 456008, Note_on_c, 2, 66, 50
6, 456012, Note_on_c, 2, 57, 0
6, 456016, Note_on_c, 2, 58, 59
6, 456028, Note_on_c, 2, 61, 0
6, 456248, Note_on_c, 2, 66, 0
6, 456256, Note_on_c, 2, 58, 0
6, 456261, Note_on_c, 2, 59, 60
6, 456264, Note_on_c, 2, 67, 59
6, 456482, Note_on_c, 2, 64, 86
6, 456501, Note_on_c, 2, 59, 0
6, 456503, Note_on_c, 2, 60, 71
6, 456504, Note_on_c, 2, 67, 0
6, 456602, Note_on_c, 2, 64, 0
6, 456623, Note_on_c, 2, 60, 0
6, 456720, Note_on_c, 2, 56, 48
6, 456733, Note_on_c, 2, 64, 43
6, 456960, Note_on_c, 2, 56, 0
6, 456968, Note_on_c, 2, 58, 43
6, 456968, Note_on_c, 2, 66, 47
6, 456973, Note_on_c, 2, 64, 0
6, 457208, Note_on_c, 2, 58, 0
6, 457208, Note_on_c, 2, 66, 0
6, 457212, Note_on_c, 2, 67, 42
6, 457219, Note_on_c, 2, 59, 59
6, 457452, Note_on_c, 2, 67, 0
6, 457453, Note_on_c, 2, 66, 41
6, 457459, Note_on_c, 2, 59, 0
6, 457460, Note_on_c, 2, 62, 56
6, 457573, Note_on_c, 2, 66, 0
6, 457580, Note_on_c, 2, 62, 0
6, 457688, Note_on_c, 2, 59, 50
6, 457708, Note_on_c, 2, 65, 40
6, 457928, Note_on_c, 2, 59, 0
6, 462508, Note_on_c, 2, 65, 0
6, 468715, Control_c, 2, 11, 127
6, 468726, Note_on_c, 2, 56, 41
6, 468743, Control_c, 2, 11, 126
6, 468772, Control_c, 2, 11, 125
6, 468800, Control_c, 2, 11, 124
6, 468829, Control_c, 2, 11, 123
6, 468857, Control_c, 2, 11, 122
6, 468886, Control_c, 2, 11, 121
6, 468915, Control_c, 2, 11, 120
6, 468943, Control_c, 2, 11, 119
6, 468971, Control_c, 2, 11, 118
6, 469000, Control_c, 2, 11, 117
6, 469028, Control_c, 2, 11, 116
6, 469057, Control_c, 2, 11, 115
6, 469085, Control_c, 2, 11, 114
6, 469114, Control_c, 2, 11, 113
6, 469142, Control_c, 2, 11, 112
6, 469171, Control_c, 2, 11, 111
6, 469199, Control_c, 2, 11, 110
6, 469228, Control_c, 2, 11, 109
6, 469256, Control_c, 2, 11, 108
6, 469285, Control_c, 2, 11, 107
6, 469313, Control_c, 2, 11, 106
6, 469342, Control_c, 2, 11, 105
6, 469370, Control_c, 2, 11, 104
6, 469399, Control_c, 2, 11, 103
6, 469427, Control_c, 2, 11, 102
6, 469456, Control_c, 2, 11, 101
6, 469484, Control_c, 2, 11, 100
6, 469513, Control_c, 2, 11, 99
6, 469541, Control_c, 2, 11, 98
6, 469570, Control_c, 2, 11, 97
6, 469598, Control_c, 2, 11, 96
6, 469627, Control_c, 2, 11, 95
6, 469655, Control_c, 2, 11, 94
6, 469684, Control_c, 2, 11, 93
6, 469712, Control_c, 2, 11, 92
6, 469741, Control_c, 2, 11, 91
6, 469769, Control_c, 2, 11, 90
6, 469798, Control_c, 2, 11, 89
6, 469826, Control_c, 2, 11, 88
6, 469855, Control_c, 2, 11, 87
6, 469883, Control_c, 2, 11, 86
6, 469912, Control_c, 2, 11, 85
6, 469940, Control_c, 2, 11, 84
6, 469969, Control_c, 2, 11, 83
6, 469997, Control_c, 2, 11, 82
6, 470026, Control_c, 2, 11, 81
6, 470054, Control_c, 2, 11, 80
6, 470083, Control_c, 2, 11, 79
6, 470111, Control_c, 2, 11, 78
6, 470140, Control_c, 2, 11, 77
6, 470168, Control_c, 2, 11, 76
6, 470197, Control_c, 2, 11, 75
6, 470225, Control_c, 2, 11, 74
6, 470254, Control_c, 2, 11, 73
6, 470282, Control_c, 2, 11, 72
6, 470310, Control_c, 2, 11, 71
6, 470339, Control_c, 2, 11, 70
6, 470368, Control_c, 2, 11, 69
6, 470396, Control_c, 2, 11, 68
6, 470406, Note_on_c, 2, 56, 0
6, 470425, Control_c, 2, 11, 67
6, 470453, Control_c, 2, 11, 66
6, 470482, Control_c, 2, 11, 65
6, 470636, Control_c, 2, 11, 127
6, 470648, Note_on_c, 2, 56, 44
6, 470665, Control_c, 2, 11, 126
6, 470693, Control_c, 2, 11, 125
6, 470722, Control_c, 2, 11, 124
6, 470750, Control_c, 2, 11, 123
6, 470778, Control_c, 2, 11, 122
6, 470806, Control_c, 2, 11, 121
6, 470835, Control_c, 2, 11, 120
6, 470863, Control_c, 2, 11, 119
6, 470892, Control_c, 2, 11, 118
6, 470920, Control_c, 2, 11, 117
6, 470948, Control_c, 2, 11, 116
6, 470977, Control_c, 2, 11, 115
6, 471005, Control_c, 2, 11, 114
6, 471034, Control_c, 2, 11, 113
6, 471062, Control_c, 2, 11, 112
6, 471090, Control_c, 2, 11, 111
6, 471119, Control_c, 2, 11, 110
6, 471147, Control_c, 2, 11, 109
6, 471175, Control_c, 2, 11, 108
6, 471204, Control_c, 2, 11, 107
6, 471232, Control_c, 2, 11, 106
6, 471261, Control_c, 2, 11, 105
6, 471289, Control_c, 2, 11, 104
6, 471317, Control_c, 2, 11, 103
6, 471345, Control_c, 2, 11, 102
6, 471374, Control_c, 2, 11, 101
6, 471403, Control_c, 2, 11, 100
6, 471431, Control_c, 2, 11, 99
6, 471459, Control_c, 2, 11, 98
6, 471487, Control_c, 2, 11, 97
6, 471516, Control_c, 2, 11, 96
6, 471544, Control_c, 2, 11, 95
6, 471573, Control_c, 2, 11, 94
6, 471601, Control_c, 2, 11, 93
6, 471630, Control_c, 2, 11, 92
6, 471658, Control_c, 2, 11, 91
6, 471686, Control_c, 2, 11, 90
6, 471715, Control_c, 2, 11, 89
6, 471743, Control_c, 2, 11, 88
6, 471772, Control_c, 2, 11, 87
6, 471800, Control_c, 2, 11, 86
6, 471828, Control_c, 2, 11, 85
6, 471856, Control_c, 2, 11, 84
6, 471885, Control_c, 2, 11, 83
6, 471913, Control_c, 2, 11, 82
6, 471942, Control_c, 2, 11, 81
6, 471970, Control_c, 2, 11, 80
6, 471998, Control_c, 2, 11, 79
6, 472027, Control_c, 2, 11, 78
6, 472055, Control_c, 2, 11, 77
6, 472084, Control_c, 2, 11, 76
6, 472112, Control_c, 2, 11, 75
6, 472140, Control_c, 2, 11, 74
6, 472169, Control_c, 2, 11, 73
6, 472197, Control_c, 2, 11, 72
6, 472225, Control_c, 2, 11, 71
6, 472254, Control_c, 2, 11, 70
6, 472282, Control_c, 2, 11, 69
6, 472311, Control_c, 2, 11, 68
6, 472328, Note_on_c, 2, 56, 0
6, 472339, Control_c, 2, 11, 67
6, 472367, Control_c, 2, 11, 66
6, 472395, Control_c, 2, 11, 65
6, 472573, Note_on_c, 2, 56, 46
6, 472600, Control_c, 2, 11, 126
6, 472643, Control_c, 2, 11, 125
6, 472687, Control_c, 2, 11, 124
6, 472730, Control_c, 2, 11, 123
6, 472774, Control_c, 2, 11, 122
6, 472817, Control_c, 2, 11, 121
6, 472860, Control_c, 2, 11, 120
6, 472904, Control_c, 2, 11, 119
6, 472948, Control_c, 2, 11, 118
6, 472991, Control_c, 2, 11, 117
6, 473034, Control_c, 2, 11, 116
6, 473078, Control_c, 2, 11, 115
6, 473122, Control_c, 2, 11, 114
6, 473165, Control_c, 2, 11, 113
6, 473208, Control_c, 2, 11, 112
6, 473252, Control_c, 2, 11, 111
6, 473295, Control_c, 2, 11, 110
6, 473339, Control_c, 2, 11, 109
6, 473382, Control_c, 2, 11, 108
6, 473426, Control_c, 2, 11, 107
6, 473469, Control_c, 2, 11, 106
6, 473512, Control_c, 2, 11, 105
6, 473556, Control_c, 2, 11, 104
6, 473600, Control_c, 2, 11, 103
6, 473643, Control_c, 2, 11, 102
6, 473686, Control_c, 2, 11, 101
6, 473730, Control_c, 2, 11, 100
6, 473774, Control_c, 2, 11, 99
6, 473817, Control_c, 2, 11, 98
6, 473860, Control_c, 2, 11, 97
6, 473904, Control_c, 2, 11, 96
6, 473947, Control_c, 2, 11, 95
6, 473991, Control_c, 2, 11, 94
6, 474034, Control_c, 2, 11, 93
6, 474078, Control_c, 2, 11, 92
6, 474121, Control_c, 2, 11, 91
6, 474165, Control_c, 2, 11, 90
6, 474208, Control_c, 2, 11, 89
6, 474252, Control_c, 2, 11, 88
6, 474295, Control_c, 2, 11, 87
6, 474339, Control_c, 2, 11, 86
6, 474382, Control_c, 2, 11, 85
6, 474426, Control_c, 2, 11, 84
6, 474469, Control_c, 2, 11, 83
6, 474513, Control_c, 2, 11, 82
6, 474556, Control_c, 2, 11, 81
6, 474600, Control_c, 2, 11, 80
6, 474643, Control_c, 2, 11, 79
6, 474687, Control_c, 2, 11, 78
6, 474730, Control_c, 2, 11, 77
6, 474773, Control_c, 2, 11, 76
6, 474817, Control_c, 2, 11, 75
6, 474861, Control_c, 2, 11, 74
6, 474904, Control_c, 2, 11, 73
6, 474947, Control_c, 2, 11, 72
6, 474991, Control_c, 2, 11, 71
6, 475035, Control_c, 2, 11, 70
6, 475078, Control_c, 2, 11, 69
6, 475121, Control_c, 2, 11, 68
6, 475165, Control_c, 2, 11, 67
6, 475208, Control_c, 2, 11, 66
6, 475213, Note_on_c, 2, 56, 0
6, 475252, Control_c, 2, 11, 65
6, 475389, Control_c, 2, 11, 127
6, 475432, Control_c, 2, 11, 126
6, 475441, Note_on_c, 2, 56, 51
6, 475477, Control_c, 2, 11, 125
6, 475520, Control_c, 2, 11, 124
6, 475564, Control_c, 2, 11, 123
6, 475608, Control_c, 2, 11, 122
6, 475651, Control_c, 2, 11, 121
6, 475695, Control_c, 2, 11, 120
6, 475739, Control_c, 2, 11, 119
6, 475783, Control_c, 2, 11, 118
6, 475826, Control_c, 2, 11, 117
6, 475870, Control_c, 2, 11, 116
6, 475914, Control_c, 2, 11, 115
6, 475957, Control_c, 2, 11, 114
6, 476002, Control_c, 2, 11, 113
6, 476045, Control_c, 2, 11, 112
6, 476089, Control_c, 2, 11, 111
6, 476133, Control_c, 2, 11, 110
6, 476176, Control_c, 2, 11, 109
6, 476220, Control_c, 2, 11, 108
6, 476264, Control_c, 2, 11, 107
6, 476308, Control_c, 2, 11, 106
6, 476351, Control_c, 2, 11, 105
6, 476395, Control_c, 2, 11, 104
6, 476439, Control_c, 2, 11, 103
6, 476482, Control_c, 2, 11, 102
6, 476527, Control_c, 2, 11, 101
6, 476570, Control_c, 2, 11, 100
6, 476614, Control_c, 2, 11, 99
6, 476658, Control_c, 2, 11, 98
6, 476701, Control_c, 2, 11, 97
6, 476745, Control_c, 2, 11, 96
6, 476789, Control_c, 2, 11, 95
6, 476833, Control_c, 2, 11, 94
6, 476876, Control_c, 2, 11, 93
6, 476920, Control_c, 2, 11, 92
6, 476964, Control_c, 2, 11, 91
6, 477007, Control_c, 2, 11, 90
6, 477052, Control_c, 2, 11, 89
6, 477095, Control_c, 2, 11, 88
6, 477139, Control_c, 2, 11, 87
6, 477183, Control_c, 2, 11, 86
6, 477226, Control_c, 2, 11, 85
6, 477270, Control_c, 2, 11, 84
6, 477314, Control_c, 2, 11, 83
6, 477358, Control_c, 2, 11, 82
6, 477401, Control_c, 2, 11, 81
6, 477445, Control_c, 2, 11, 80
6, 477489, Control_c, 2, 11, 79
6, 477532, Control_c, 2, 11, 78
6, 477577, Control_c, 2, 11, 77
6, 477620, Control_c, 2, 11, 76
6, 477664, Control_c, 2, 11, 75
6, 477708, Control_c, 2, 11, 74
6, 477751, Control_c, 2, 11, 73
6, 477795, Control_c, 2, 11, 72
6, 477839, Control_c, 2, 11, 71
6, 477883, Control_c, 2, 11, 70
6, 477926, Control_c, 2, 11, 69
6, 477970, Control_c, 2, 11, 68
6, 478014, Control_c, 2, 11, 67
6, 478057, Control_c, 2, 11, 66
6, 478081, Note_on_c, 2, 56, 0
6, 478102, Control_c, 2, 11, 65
6, 479760, Control_c, 2, 11, 127
6, 490800, Control_c, 2, 11, 127
6, 490800, Control_c, 2, 7, 75
6, 491306, Note_on_c, 2, 62, 99
6, 491359, Note_on_c, 2, 62, 0
6, 491545, Note_on_c, 2, 62, 106
6, 491652, Note_on_c, 2, 62, 0
6, 491903, Note_on_c, 2, 72, 97
6, 492249, Note_on_c, 2, 64, 92
6, 492263, Note_on_c, 2, 72, 0
6, 492302, Note_on_c, 2, 64, 0
6, 492363, Note_on_c, 2, 61, 109
6, 492416, Note_on_c, 2, 61, 0
6, 492490, Note_on_c, 2, 60, 109
6, 492543, Note_on_c, 2, 60, 0
6, 492744, Note_on_c, 2, 62, 101
6, 492797, Note_on_c, 2, 62, 0
6, 492984, Note_on_c, 2, 62, 101
6, 493091, Note_on_c, 2, 62, 0
6, 493338, Note_on_c, 2, 72, 111
6, 493684, Note_on_c, 2, 64, 103
6, 493698, Note_on_c, 2, 72, 0
6, 493737, Note_on_c, 2, 64, 0
6, 493813, Note_on_c, 2, 61, 106
6, 493866, Note_on_c, 2, 61, 0
6, 493922, Note_on_c, 2, 60, 108
6, 493975, Note_on_c, 2, 60, 0
6, 494166, Note_on_c, 2, 62, 108
6, 494273, Note_on_c, 2, 62, 0
6, 494524, Note_on_c, 2, 63, 107
6, 494667, Note_on_c, 2, 63, 0
6, 494776, Note_on_c, 2, 66, 91
6, 494919, Note_on_c, 2, 66, 0
6, 495020, Note_on_c, 2, 70, 105
6, 495080, Note_on_c, 2, 70, 0
6, 495138, Note_on_c, 2, 75, 93
6, 495210, Note_on_c, 2, 75, 0
6, 495259, Note_on_c, 2, 70, 107
6, 495319, Note_on_c, 2, 70, 0
6, 495492, Note_on_c, 2, 62, 107
6, 495545, Note_on_c, 2, 62, 0
6, 495739, Note_on_c, 2, 62, 95
6, 495792, Note_on_c, 2, 62, 0
6, 495964, Note_on_c, 2, 72, 95
6, 496324, Note_on_c, 2, 72, 0
6, 496346, Note_on_c, 2, 64, 93
6, 496399, Note_on_c, 2, 64, 0
6, 496462, Note_on_c, 2, 61, 95
6, 496515, Note_on_c, 2, 61, 0
6, 496562, Note_on_c, 2, 60, 101
6, 496615, Note_on_c, 2, 60, 0
6, 496707, Note_on_c, 2, 63, 102
6, 496779, Note_on_c, 2, 63, 0
6, 496811, Note_on_c, 2, 66, 104
6, 496883, Note_on_c, 2, 66, 0
6, 496943, Note_on_c, 2, 69, 97
6, 497015, Note_on_c, 2, 69, 0
6, 497059, Note_on_c, 2, 75, 104
6, 497131, Note_on_c, 2, 75, 0
6, 497175, Note_on_c, 2, 69, 105
6, 497222, Note_on_c, 2, 69, 0
6, 497282, Note_on_c, 2, 62, 95
6, 497425, Note_on_c, 2, 62, 0
6, 497546, Note_on_c, 2, 62, 91
6, 497689, Note_on_c, 2, 62, 0
6, 497762, Note_on_c, 2, 62, 93
6, 497809, Note_on_c, 2, 62, 0
6, 498016, Note_on_c, 2, 62, 91
6, 498069, Note_on_c, 2, 62, 0
6, 498241, Note_on_c, 2, 62, 100
6, 498294, Note_on_c, 2, 62, 0
6, 498503, Note_on_c, 2, 72, 94
6, 498863, Note_on_c, 2, 72, 0
6, 498866, Note_on_c, 2, 64, 98
6, 498919, Note_on_c, 2, 64, 0
6, 498980, Note_on_c, 2, 61, 95
6, 499033, Note_on_c, 2, 61, 0
6, 499100, Note_on_c, 2, 60, 107
6, 499153, Note_on_c, 2, 60, 0
6, 499322, Note_on_c, 2, 62, 102
6, 499429, Note_on_c, 2, 62, 0
6, 499686, Note_on_c, 2, 62, 100
6, 499739, Note_on_c, 2, 62, 0
6, 499927, Note_on_c, 2, 62, 108
6, 499980, Note_on_c, 2, 62, 0
6, 500306, Note_on_c, 2, 64, 100
6, 500359, Note_on_c, 2, 64, 0
6, 500423, Note_on_c, 2, 61, 93
6, 500476, Note_on_c, 2, 61, 0
6, 500521, Note_on_c, 2, 60, 106
6, 500574, Note_on_c, 2, 60, 0
6, 500770, Note_on_c, 2, 62, 107
6, 500823, Note_on_c, 2, 62, 0
6, 501017, Note_on_c, 2, 64, 109
6, 501070, Note_on_c, 2, 64, 0
6, 501148, Note_on_c, 2, 61, 111
6, 501201, Note_on_c, 2, 61, 0
6, 501246, Note_on_c, 2, 60, 109
6, 501299, Note_on_c, 2, 60, 0
6, 501489, Note_on_c, 2, 62, 91
6, 501596, Note_on_c, 2, 62, 0
6, 501851, Note_on_c, 2, 62, 91
6, 501904, Note_on_c, 2, 62, 0
6, 502084, Note_on_c, 2, 62, 100
6, 502191, Note_on_c, 2, 62, 0
6, 502465, Note_on_c, 2, 64, 104
6, 502518, Note_on_c, 2, 64, 0
6, 502575, Note_on_c, 2, 61, 92
6, 502628, Note_on_c, 2, 61, 0
6, 502708, Note_on_c, 2, 60, 110
6, 502761, Note_on_c, 2, 60, 0
6, 502920, Note_on_c, 2, 66, 106
6, 503000, Note_on_c, 2, 66, 0
6, 503058, Note_on_c, 2, 66, 110
6, 503138, Note_on_c, 2, 66, 0
6, 503299, Note_on_c, 2, 69, 105
6, 503379, Note_on_c, 2, 69, 0
6, 503522, Note_on_c, 2, 66, 116
6, 503602, Note_on_c, 2, 66, 0
6, 503657, Note_on_c, 2, 66, 110
6, 503737, Note_on_c, 2, 66, 0
6, 503889, Note_on_c, 2, 66, 112
6, 503969, Note_on_c, 2, 66, 0
6, 504138, Note_on_c, 2, 69, 116
6, 504218, Note_on_c, 2, 69, 0
6, 514057, Control_c, 2, 11, 64
6, 514081, Control_c, 2, 11, 65
6, 514081, Note_on_c, 2, 70, 78
6, 514104, Control_c, 2, 11, 66
6, 514127, Control_c, 2, 11, 67
6, 514150, Control_c, 2, 11, 68
6, 514174, Control_c, 2, 11, 69
6, 514197, Control_c, 2, 11, 70
6, 514220, Control_c, 2, 11, 71
6, 514243, Control_c, 2, 11, 72
6, 514267, Control_c, 2, 11, 73
6, 514290, Control_c, 2, 11, 74
6, 514313, Control_c, 2, 11, 75
6, 514336, Control_c, 2, 11, 76
6, 514359, Control_c, 2, 11, 77
6, 514382, Control_c, 2, 11, 78
6, 514406, Control_c, 2, 11, 79
6, 514429, Control_c, 2, 11, 80
6, 514452, Control_c, 2, 11, 81
6, 514475, Control_c, 2, 11, 82
6, 514499, Control_c, 2, 11, 83
6, 514522, Control_c, 2, 11, 84
6, 514545, Control_c, 2, 11, 85
6, 514568, Control_c, 2, 11, 86
6, 514591, Control_c, 2, 11, 87
6, 514614, Control_c, 2, 11, 88
6, 514638, Control_c, 2, 11, 89
6, 514661, Control_c, 2, 11, 90
6, 514684, Control_c, 2, 11, 91
6, 514707, Control_c, 2, 11, 92
6, 514731, Control_c, 2, 11, 93
6, 514754, Control_c, 2, 11, 94
6, 514777, Control_c, 2, 11, 95
6, 514800, Control_c, 2, 11, 96
6, 514823, Control_c, 2, 11, 97
6, 514846, Control_c, 2, 11, 98
6, 514870, Control_c, 2, 11, 99
6, 514893, Control_c, 2, 11, 100
6, 514916, Control_c, 2, 11, 101
6, 514939, Control_c, 2, 11, 102
6, 514963, Control_c, 2, 11, 103
6, 514986, Control_c, 2, 11, 104
6, 515009, Control_c, 2, 11, 105
6, 515032, Control_c, 2, 11, 106
6, 515055, Control_c, 2, 11, 107
6, 515078, Control_c, 2, 11, 108
6, 515102, Control_c, 2, 11, 109
6, 515125, Control_c, 2, 11, 110
6, 515148, Control_c, 2, 11, 111
6, 515171, Control_c, 2, 11, 112
6, 515195, Control_c, 2, 11, 113
6, 515218, Control_c, 2, 11, 114
6, 515241, Control_c, 2, 11, 115
6, 515264, Control_c, 2, 11, 116
6, 515287, Control_c, 2, 11, 117
6, 515310, Control_c, 2, 11, 118
6, 515334, Control_c, 2, 11, 119
6, 515357, Control_c, 2, 11, 120
6, 515380, Control_c, 2, 11, 121
6, 515403, Control_c, 2, 11, 122
6, 515427, Control_c, 2, 11, 123
6, 515450, Control_c, 2, 11, 124
6, 515473, Control_c, 2, 11, 125
6, 515496, Control_c, 2, 11, 126
6, 515641, Note_on_c, 2, 70, 0
6, 531370, Note_on_c, 2, 69, 102
6, 531411, Note_on_c, 2, 69, 0
6, 531430, Note_on_c, 2, 69, 101
6, 531490, Note_on_c, 2, 69, 0
6, 531615, Note_on_c, 2, 69, 101
6, 531664, Note_on_c, 2, 69, 0
6, 531683, Note_on_c, 2, 69, 111
6, 531743, Note_on_c, 2, 69, 0
6, 531863, Note_on_c, 2, 69, 96
6, 531887, Note_on_c, 2, 69, 0
6, 531906, Note_on_c, 2, 69, 108
6, 531966, Note_on_c, 2, 69, 0
6, 532346, Note_on_c, 2, 69, 94
6, 532364, Note_on_c, 2, 69, 0
6, 532384, Note_on_c, 2, 69, 108
6, 532444, Note_on_c, 2, 69, 0
6, 532585, Note_on_c, 2, 69, 91
6, 532625, Note_on_c, 2, 69, 0
6, 532644, Note_on_c, 2, 69, 103
6, 532704, Note_on_c, 2, 69, 0
6, 532828, Note_on_c, 2, 69, 95
6, 532852, Note_on_c, 2, 69, 0
6, 532871, Note_on_c, 2, 69, 108
6, 532931, Note_on_c, 2, 69, 0
6, 533044, Note_on_c, 2, 69, 110
6, 533086, Note_on_c, 2, 69, 0
6, 533105, Note_on_c, 2, 69, 104
6, 533165, Note_on_c, 2, 69, 0
6, 533303, Note_on_c, 2, 69, 110
6, 533327, Note_on_c, 2, 69, 0
6, 533347, Note_on_c, 2, 69, 95
6, 533407, Note_on_c, 2, 69, 0
6, 533767, Note_on_c, 2, 69, 96
6, 533820, Note_on_c, 2, 69, 0
6, 533839, Note_on_c, 2, 69, 93
6, 533899, Note_on_c, 2, 69, 0
6, 534268, Note_on_c, 2, 69, 109
6, 534288, Note_on_c, 2, 69, 0
6, 534308, Note_on_c, 2, 69, 106
6, 534368, Note_on_c, 2, 69, 0
6, 534503, Note_on_c, 2, 67, 94
6, 534536, Note_on_c, 2, 67, 0
6, 534556, Note_on_c, 2, 67, 97
6, 534616, Note_on_c, 2, 67, 0
6, 534733, Note_on_c, 2, 69, 110
6, 534772, Note_on_c, 2, 69, 0
6, 534791, Note_on_c, 2, 69, 91
6, 534851, Note_on_c, 2, 69, 0
6, 535204, Note_on_c, 2, 69, 97
6, 535249, Note_on_c, 2, 69, 0
6, 535268, Note_on_c, 2, 69, 105
6, 535328, Note_on_c, 2, 69, 0
6, 535690, Note_on_c, 2, 69, 92
6, 535745, Note_on_c, 2, 69, 0
6, 535764, Note_on_c, 2, 69, 95
6, 535824, Note_on_c, 2, 69, 0
6, 537134, Note_on_c, 2, 57, 116
6, 537157, Note_on_c, 2, 57, 0
6, 537197, Note_on_c, 2, 61, 109
6, 537220, Note_on_c, 2, 61, 0
6, 537248, Note_on_c, 2, 64, 120
6, 537271, Note_on_c, 2, 64, 0
6, 537322, Note_on_c, 2, 69, 122
6, 537345, Note_on_c, 2, 69, 0
6, 537377, Note_on_c, 2, 71, 117
6, 537424, Note_on_c, 2, 71, 0
6, 546009, Note_on_c, 2, 73, 72
6, 546129, Note_on_c, 2, 73, 0
6, 546253, Note_on_c, 2, 73, 81
6, 546373, Note_on_c, 2, 73, 0
6, 546744, Note_on_c, 2, 73, 85
6, 546864, Note_on_c, 2, 73, 0
6, 547209, Note_on_c, 2, 73, 76
6, 547329, Note_on_c, 2, 73, 0
6, 547464, Note_on_c, 2, 71, 80
6, 547584, Note_on_c, 2, 71, 0
6, 547708, Note_on_c, 2, 73, 80
6, 547828, Note_on_c, 2, 73, 0
6, 548173, Note_on_c, 2, 73, 77
6, 548293, Note_on_c, 2, 73, 0
6, 548657, Note_on_c, 2, 73, 70
6, 548777, Note_on_c, 2, 73, 0
6, 549120, Note_on_c, 2, 73, 73
6, 549240, Note_on_c, 2, 73, 0
6, 549384, Note_on_c, 2, 71, 77
6, 549504, Note_on_c, 2, 71, 0
6, 549858, Note_on_c, 2, 68, 81
6, 549978, Note_on_c, 2, 68, 0
6, 550325, Note_on_c, 2, 68, 73
6, 550445, Note_on_c, 2, 68, 0
6, 550560, Note_on_c, 2, 68, 83
6, 550680, Note_on_c, 2, 68, 0
6, 550817, Note_on_c, 2, 67, 120
6, 550937, Note_on_c, 2, 67, 0
6, 551172, Note_on_c, 2, 61, 91
6, 551279, Note_on_c, 2, 61, 0
6, 551547, Note_on_c, 2, 61, 92
6, 551600, Note_on_c, 2, 61, 0
6, 551778, Note_on_c, 2, 61, 99
6, 551885, Note_on_c, 2, 61, 0
6, 552136, Note_on_c, 2, 71, 93
6, 552496, Note_on_c, 2, 71, 0
6, 552496, Note_on_c, 2, 63, 102
6, 552549, Note_on_c, 2, 63, 0
6, 552608, Note_on_c, 2, 60, 95
6, 552661, Note_on_c, 2, 60, 0
6, 552721, Note_on_c, 2, 59, 96
6, 552774, Note_on_c, 2, 59, 0
6, 552960, Note_on_c, 2, 61, 109
6, 553013, Note_on_c, 2, 61, 0
6, 553203, Note_on_c, 2, 61, 96
6, 553310, Note_on_c, 2, 61, 0
6, 553572, Note_on_c, 2, 71, 107
6, 553932, Note_on_c, 2, 71, 0
6, 553940, Note_on_c, 2, 63, 96
6, 553993, Note_on_c, 2, 63, 0
6, 554048, Note_on_c, 2, 60, 104
6, 554101, Note_on_c, 2, 60, 0
6, 554187, Note_on_c, 2, 59, 99
6, 554240, Note_on_c, 2, 59, 0
6, 554401, Note_on_c, 2, 61, 106
6, 554508, Note_on_c, 2, 61, 0
6, 554787, Note_on_c, 2, 62, 109
6, 554930, Note_on_c, 2, 62, 0
6, 555019, Note_on_c, 2, 65, 101
6, 555162, Note_on_c, 2, 65, 0
6, 555262, Note_on_c, 2, 69, 108
6, 555322, Note_on_c, 2, 69, 0
6, 555387, Note_on_c, 2, 74, 99
6, 555459, Note_on_c, 2, 74, 0
6, 555482, Note_on_c, 2, 69, 110
6, 555542, Note_on_c, 2, 69, 0
6, 555729, Note_on_c, 2, 61, 91
6, 555782, Note_on_c, 2, 61, 0
6, 555977, Note_on_c, 2, 61, 93
6, 556030, Note_on_c, 2, 61, 0
6, 556228, Note_on_c, 2, 71, 107
6, 556567, Note_on_c, 2, 63, 100
6, 556588, Note_on_c, 2, 71, 0
6, 556620, Note_on_c, 2, 63, 0
6, 556693, Note_on_c, 2, 60, 92
6, 556746, Note_on_c, 2, 60, 0
6, 556826, Note_on_c, 2, 59, 91
6, 556879, Note_on_c, 2, 59, 0
6, 556923, Note_on_c, 2, 62, 106
6, 556995, Note_on_c, 2, 62, 0
6, 557050, Note_on_c, 2, 65, 93
6, 557122, Note_on_c, 2, 65, 0
6, 557174, Note_on_c, 2, 68, 99
6, 557246, Note_on_c, 2, 68, 0
6, 557286, Note_on_c, 2, 74, 105
6, 557358, Note_on_c, 2, 74, 0
6, 557407, Note_on_c, 2, 68, 109
6, 557454, Note_on_c, 2, 68, 0
6, 557520, Note_on_c, 2, 61, 104
6, 557663, Note_on_c, 2, 61, 0
6, 557780, Note_on_c, 2, 61, 105
6, 557923, Note_on_c, 2, 61, 0
6, 558015, Note_on_c, 2, 61, 91
6, 558062, Note_on_c, 2, 61, 0
6, 558250, Note_on_c, 2, 61, 108
6, 558303, Note_on_c, 2, 61, 0
6, 558487, Note_on_c, 2, 61, 95
6, 558540, Note_on_c, 2, 61, 0
6, 558731, Note_on_c, 2, 71, 104
6, 559091, Note_on_c, 2, 71, 0
6, 559107, Note_on_c, 2, 63, 109
6, 559160, Note_on_c, 2, 63, 0
6, 559220, Note_on_c, 2, 60, 106
6, 559273, Note_on_c, 2, 60, 0
6, 559349, Note_on_c, 2, 59, 108
6, 559402, Note_on_c, 2, 59, 0
6, 559585, Note_on_c, 2, 61, 100
6, 559692, Note_on_c, 2, 61, 0
6, 559934, Note_on_c, 2, 61, 92
6, 559987, Note_on_c, 2, 61, 0
6, 560181, Note_on_c, 2, 61, 93
6, 560288, Note_on_c, 2, 61, 0
6, 560520, Note_on_c, 2, 63, 101
6, 560573, Note_on_c, 2, 63, 0
6, 560642, Note_on_c, 2, 60, 94
6, 560695, Note_on_c, 2, 60, 0
6, 560784, Note_on_c, 2, 59, 106
6, 560837, Note_on_c, 2, 59, 0
6, 561025, Note_on_c, 2, 61, 102
6, 561078, Note_on_c, 2, 61, 0
6, 561263, Note_on_c, 2, 63, 92
6, 561316, Note_on_c, 2, 63, 0
6, 561369, Note_on_c, 2, 60, 100
6, 561422, Note_on_c, 2, 60, 0
6, 561489, Note_on_c, 2, 59, 96
6, 561542, Note_on_c, 2, 59, 0
6, 561738, Note_on_c, 2, 61, 106
6, 561845, Note_on_c, 2, 61, 0
6, 562082, Note_on_c, 2, 61, 91
6, 562135, Note_on_c, 2, 61, 0
6, 562333, Note_on_c, 2, 61, 97
6, 562440, Note_on_c, 2, 61, 0
6, 562691, Note_on_c, 2, 63, 100
6, 562744, Note_on_c, 2, 63, 0
6, 562828, Note_on_c, 2, 60, 109
6, 562881, Note_on_c, 2, 60, 0
6, 562943, Note_on_c, 2, 59, 99
6, 562996, Note_on_c, 2, 59, 0
6, 563173, Note_on_c, 2, 65, 99
6, 563233, Note_on_c, 2, 65, 0
6, 563292, Note_on_c, 2, 65, 110
6, 563352, Note_on_c, 2, 65, 0
6, 563525, Note_on_c, 2, 68, 97
6, 563585, Note_on_c, 2, 68, 0
6, 563779, Note_on_c, 2, 65, 98
6, 563839, Note_on_c, 2, 65, 0
6, 563894, Note_on_c, 2, 65, 107
6, 563954, Note_on_c, 2, 65, 0
6, 564127, Note_on_c, 2, 65, 97
6, 564187, Note_on_c, 2, 65, 0
6, 564384, Note_on_c, 2, 68, 98
6, 564444, Note_on_c, 2, 68, 0
6, 601440, Note_on_c, 2, 71, 114
6, 601512, Note_on_c, 2, 71, 0
6, 603148, Note_on_c, 2, 64, 102
6, 603201, Note_on_c, 2, 64, 0
6, 603243, Note_on_c, 2, 61, 102
6, 603296, Note_on_c, 2, 61, 0
6, 603378, Note_on_c, 2, 60, 102
6, 603431, Note_on_c, 2, 60, 0
6, 618379, Note_on_c, 2, 68, 105
6, 618426, Note_on_c, 2, 71, 111
6, 618439, Note_on_c, 2, 68, 0
6, 618486, Note_on_c, 2, 71, 0
6, 618486, Note_on_c, 2, 76, 113
6, 618546, Note_on_c, 2, 76, 0
6, 618549, Note_on_c, 2, 79, 124
6, 618609, Note_on_c, 2, 79, 0
6, 618609, Note_on_c, 2, 82, 110
6, 618849, Note_on_c, 2, 82, 0
6, 620282, Note_on_c, 2, 69, 106
6, 620342, Note_on_c, 2, 69, 0
6, 620344, Note_on_c, 2, 73, 109
6, 620404, Note_on_c, 2, 73, 0
6, 620424, Note_on_c, 2, 77, 118
6, 620469, Note_on_c, 2, 78, 114
6, 620484, Note_on_c, 2, 77, 0
6, 620529, Note_on_c, 2, 78, 0
6, 620534, Note_on_c, 2, 82, 120
6, 620774, Note_on_c, 2, 82, 0
6, 622207, Note_on_c, 2, 69, 122
6, 622267, Note_on_c, 2, 69, 0
6, 622278, Note_on_c, 2, 73, 121
6, 622328, Note_on_c, 2, 77, 109
6, 622338, Note_on_c, 2, 73, 0
6, 622386, Note_on_c, 2, 78, 110
6, 622388, Note_on_c, 2, 77, 0
6, 622446, Note_on_c, 2, 78, 0
6, 622448, Note_on_c, 2, 82, 116
6, 622688, Note_on_c, 2, 82, 0
6, 625095, Note_on_c, 2, 69, 111
6, 625150, Note_on_c, 2, 73, 107
6, 625155, Note_on_c, 2, 69, 0
6, 625210, Note_on_c, 2, 73, 0
6, 625226, Note_on_c, 2, 77, 118
6, 625269, Note_on_c, 2, 78, 120
6, 625286, Note_on_c, 2, 77, 0
6, 625329, Note_on_c, 2, 78, 0
6, 625341, Note_on_c, 2, 82, 107
6, 625581, Note_on_c, 2, 82, 0
6, 626537, Note_on_c, 2, 68, 115
6, 626582, Note_on_c, 2, 71, 111
6, 626597, Note_on_c, 2, 68, 0
6, 626642, Note_on_c, 2, 71, 0
6, 626660, Note_on_c, 2, 76, 124
6, 626714, Note_on_c, 2, 79, 112
6, 626720, Note_on_c, 2, 76, 0
6, 626765, Note_on_c, 2, 82, 112
6, 626774, Note_on_c, 2, 79, 0
6, 627005, Note_on_c, 2, 82, 0
6, 627261, Note_on_c, 2, 73, 120
6, 627731, Note_on_c, 2, 75, 119
6, 627741, Note_on_c, 2, 73, 0
6, 627851, Note_on_c, 2, 75, 0
6, 636621, Note_on_c, 2, 71, 96
6, 636674, Note_on_c, 2, 71, 0
6, 636737, Note_on_c, 2, 68, 91
6, 636790, Note_on_c, 2, 68, 0
6, 636857, Note_on_c, 2, 67, 81
6, 636910, Note_on_c, 2, 67, 0
6, 637686, Note_on_c, 2, 71, 84
6, 637739, Note_on_c, 2, 71, 0
6, 637817, Note_on_c, 2, 68, 78
6, 637870, Note_on_c, 2, 68, 0
6, 637925, Note_on_c, 2, 67, 86
6, 637978, Note_on_c, 2, 67, 0
6, 638772, Note_on_c, 2, 71, 91
6, 638825, Note_on_c, 2, 71, 0
6, 638903, Note_on_c, 2, 68, 84
6, 638956, Note_on_c, 2, 68, 0
6, 639006, Note_on_c, 2, 67, 80
6, 639059, Note_on_c, 2, 67, 0
6, 639493, Note_on_c, 2, 71, 89
6, 639546, Note_on_c, 2, 71, 0
6, 639602, Note_on_c, 2, 68, 96
6, 639655, Note_on_c, 2, 68, 0
6, 639723, Note_on_c, 2, 67, 88
6, 639776, Note_on_c, 2, 67, 0
6, 639963, Note_on_c, 2, 77, 108
6, 640023, Note_on_c, 2, 77, 0
6, 640094, Note_on_c, 2, 81, 100
6, 640154, Note_on_c, 2, 81, 0
6, 641162, Note_on_c, 2, 72, 95
6, 641222, Note_on_c, 2, 72, 0
6, 641297, Note_on_c, 2, 77, 92
6, 641357, Note_on_c, 2, 77, 0
6, 641411, Note_on_c, 2, 80, 99
6, 641471, Note_on_c, 2, 80, 0
6, 645362, Note_on_c, 2, 70, 104
6, 645422, Note_on_c, 2, 70, 0
6, 645502, Note_on_c, 2, 73, 101
6, 645562, Note_on_c, 2, 73, 0
6, 646687, Note_on_c, 2, 70, 111
6, 646747, Note_on_c, 2, 70, 0
6, 646819, Note_on_c, 2, 73, 107
6, 646879, Note_on_c, 2, 73, 0
6, 647308, Note_on_c, 2, 65, 102
6, 647427, Note_on_c, 2, 70, 109
6, 647428, Note_on_c, 2, 65, 0
6, 647523, Note_on_c, 2, 73, 95
6, 647547, Note_on_c, 2, 70, 0
6, 647643, Note_on_c, 2, 73, 0
6, 648027, Note_on_c, 2, 70, 95
6, 648087, Note_on_c, 2, 70, 0
6, 648129, Note_on_c, 2, 73, 92
6, 648189, Note_on_c, 2, 73, 0
6, 648363, Note_on_c, 2, 77, 107
6, 648483, Note_on_c, 2, 77, 0
6, 648862, Note_on_c, 2, 65, 100
6, 648922, Note_on_c, 2, 65, 0
6, 648975, Note_on_c, 2, 70, 100
6, 649035, Note_on_c, 2, 70, 0
6, 649093, Note_on_c, 2, 73, 108
6, 649213, Note_on_c, 2, 73, 0
6, 649321, Note_on_c, 2, 77, 97
6, 649441, Note_on_c, 2, 77, 0
6, 649811, Note_on_c, 2, 70, 106
6, 649871, Note_on_c, 2, 70, 0
6, 649936, Note_on_c, 2, 73, 91
6, 649996, Note_on_c, 2, 73, 0
6, 650406, Note_on_c, 2, 65, 111
6, 650466, Note_on_c, 2, 65, 0
6, 650547, Note_on_c, 2, 70, 106
6, 650607, Note_on_c, 2, 70, 0
6, 650664, Note_on_c, 2, 73, 101
6, 650784, Note_on_c, 2, 73, 0
6, 650901, Note_on_c, 2, 77, 100
6, 651021, Note_on_c, 2, 77, 0
6, 651387, Note_on_c, 2, 65, 99
6, 651447, Note_on_c, 2, 65, 0
6, 651503, Note_on_c, 2, 70, 102
6, 651563, Note_on_c, 2, 70, 0
6, 651603, Note_on_c, 2, 73, 99
6, 651723, Note_on_c, 2, 73, 0
6, 651869, Note_on_c, 2, 77, 109
6, 651989, Note_on_c, 2, 77, 0
6, 652108, Note_on_c, 2, 65, 104
6, 652168, Note_on_c, 2, 65, 0
6, 652217, Note_on_c, 2, 70, 93
6, 652277, Note_on_c, 2, 70, 0
6, 652334, Note_on_c, 2, 73, 94
6, 652454, Note_on_c, 2, 73, 0
6, 652560, Note_on_c, 2, 77, 104
6, 652680, Note_on_c, 2, 77, 0
6, 653051, Note_on_c, 2, 65, 103
6, 653111, Note_on_c, 2, 65, 0
6, 653169, Note_on_c, 2, 70, 104
6, 653229, Note_on_c, 2, 70, 0
6, 653301, Note_on_c, 2, 73, 110
6, 653421, Note_on_c, 2, 73, 0
6, 653522, Note_on_c, 2, 77, 105
6, 653642, Note_on_c, 2, 77, 0
6, 653767, Note_on_c, 2, 65, 104
6, 653827, Note_on_c, 2, 65, 0
6, 653892, Note_on_c, 2, 70, 102
6, 653952, Note_on_c, 2, 70, 0
6, 654024, Note_on_c, 2, 73, 99
6, 654144, Note_on_c, 2, 73, 0
6, 654247, Note_on_c, 2, 77, 105
6, 654367, Note_on_c, 2, 77, 0
6, 654731, Note_on_c, 2, 65, 91
6, 654791, Note_on_c, 2, 65, 0
6, 654863, Note_on_c, 2, 70, 97
6, 654923, Note_on_c, 2, 70, 0
6, 654969, Note_on_c, 2, 73, 94
6, 655089, Note_on_c, 2, 73, 0
6, 655102, Note_on_c, 2, 77, 97
6, 655222, Note_on_c, 2, 77, 0
6, 655346, Note_on_c, 2, 77, 43
6, 655363, Note_on_c, 2, 79, 48
6, 655366, Note_on_c, 2, 77, 0
6, 655385, Note_on_c, 2, 77, 59
6, 655393, Note_on_c, 2, 79, 0
6, 655415, Note_on_c, 2, 77, 0
6, 655433, Note_on_c, 2, 79, 56
6, 655440, Note_on_c, 2, 77, 40
6, 655463, Note_on_c, 2, 79, 0
6, 655470, Note_on_c, 2, 77, 0
6, 655494, Note_on_c, 2, 79, 58
6, 655519, Note_on_c, 2, 77, 46
6, 655524, Note_on_c, 2, 79, 0
6, 655549, Note_on_c, 2, 77, 0
6, 655557, Note_on_c, 2, 79, 39
6, 655570, Note_on_c, 2, 77, 53
6, 655587, Note_on_c, 2, 79, 0
6, 655600, Note_on_c, 2, 77, 0
6, 655615, Note_on_c, 2, 79, 39
6, 655626, Note_on_c, 2, 77, 40
6, 655632, Note_on_c, 2, 79, 0
6, 655652, Note_on_c, 2, 79, 45
6, 655656, Note_on_c, 2, 77, 0
6, 655682, Note_on_c, 2, 79, 0
6, 655708, Note_on_c, 2, 77, 40
6, 655714, Note_on_c, 2, 79, 54
6, 655726, Note_on_c, 2, 77, 0
6, 655744, Note_on_c, 2, 79, 0
6, 655745, Note_on_c, 2, 77, 44
6, 655775, Note_on_c, 2, 77, 0
6, 655788, Note_on_c, 2, 79, 55
6, 655816, Note_on_c, 2, 77, 39
6, 655818, Note_on_c, 2, 79, 0
6, 655841, Note_on_c, 2, 79, 40
6, 655846, Note_on_c, 2, 77, 0
6, 655871, Note_on_c, 2, 79, 0
6, 655882, Note_on_c, 2, 77, 57
6, 655906, Note_on_c, 2, 79, 44
6, 655912, Note_on_c, 2, 77, 0
6, 655935, Note_on_c, 2, 79, 0
6, 655935, Note_on_c, 2, 77, 45
6, 655954, Note_on_c, 2, 79, 47
6, 655965, Note_on_c, 2, 77, 0
6, 655984, Note_on_c, 2, 79, 0
6, 655995, Note_on_c, 2, 77, 40
6, 656021, Note_on_c, 2, 79, 49
6, 656025, Note_on_c, 2, 77, 0
6, 656050, Note_on_c, 2, 77, 44
6, 656051, Note_on_c, 2, 79, 0
6, 656080, Note_on_c, 2, 77, 0
6, 656092, Note_on_c, 2, 79, 44
6, 656122, Note_on_c, 2, 79, 0
6, 656122, Note_on_c, 2, 77, 49
6, 656152, Note_on_c, 2, 77, 0
6, 656153, Note_on_c, 2, 79, 49
6, 656183, Note_on_c, 2, 79, 0
6, 656183, End_track
7, 0, Start_track
7, 0, Title_t, "Clarinetto piccolo"
7, 0, MIDI_port, 0
7, 0, Program_c, 3, 71
7, 0, Control_c, 3, 7, 92
7, 0, Control_c, 3, 10, 64
7, 0, Control_c, 3, 91, 64
7, 1, Control_c, 3, 11, 65
7, 4, Note_on_c, 3, 63, 54
7, 10, Control_c, 3, 11, 66
7, 18, Control_c, 3, 11, 67
7, 26, Control_c, 3, 11, 68
7, 34, Control_c, 3, 11, 69
7, 42, Control_c, 3, 11, 70
7, 50, Control_c, 3, 11, 71
7, 58, Control_c, 3, 11, 72
7, 66, Control_c, 3, 11, 73
7, 74, Control_c, 3, 11, 74
7, 82, Control_c, 3, 11, 75
7, 90, Control_c, 3, 11, 76
7, 97, Control_c, 3, 11, 77
7, 105, Control_c, 3, 11, 78
7, 113, Control_c, 3, 11, 79
7, 121, Control_c, 3, 11, 80
7, 129, Control_c, 3, 11, 81
7, 137, Control_c, 3, 11, 82
7, 145, Control_c, 3, 11, 83
7, 153, Control_c, 3, 11, 84
7, 161, Control_c, 3, 11, 85
7, 169, Control_c, 3, 11, 86
7, 177, Control_c, 3, 11, 87
7, 185, Control_c, 3, 11, 88
7, 193, Control_c, 3, 11, 89
7, 201, Control_c, 3, 11, 90
7, 208, Control_c, 3, 11, 91
7, 216, Control_c, 3, 11, 92
7, 224, Control_c, 3, 11, 93
7, 232, Control_c, 3, 11, 94
7, 240, Control_c, 3, 11, 95
7, 242, Note_on_c, 3, 63, 0
7, 248, Control_c, 3, 11, 96
7, 256, Control_c, 3, 11, 97
7, 264, Note_on_c, 3, 68, 52
7, 264, Control_c, 3, 11, 98
7, 272, Control_c, 3, 11, 99
7, 280, Control_c, 3, 11, 100
7, 287, Control_c, 3, 11, 101
7, 295, Control_c, 3, 11, 102
7, 303, Control_c, 3, 11, 103
7, 311, Control_c, 3, 11, 104
7, 319, Control_c, 3, 11, 105
7, 327, Control_c, 3, 11, 106
7, 335, Control_c, 3, 11, 107
7, 343, Control_c, 3, 11, 108
7, 351, Control_c, 3, 11, 109
7, 359, Control_c, 3, 11, 110
7, 367, Control_c, 3, 11, 111
7, 375, Control_c, 3, 11, 112
7, 382, Control_c, 3, 11, 113
7, 390, Control_c, 3, 11, 114
7, 398, Control_c, 3, 11, 115
7, 406, Control_c, 3, 11, 116
7, 414, Control_c, 3, 11, 117
7, 422, Control_c, 3, 11, 118
7, 430, Control_c, 3, 11, 119
7, 438, Control_c, 3, 11, 120
7, 446, Control_c, 3, 11, 121
7, 454, Control_c, 3, 11, 122
7, 462, Control_c, 3, 11, 123
7, 470, Control_c, 3, 11, 124
7, 478, Control_c, 3, 11, 125
7, 486, Control_c, 3, 11, 126
7, 492, Note_on_c, 3, 63, 47
7, 504, Note_on_c, 3, 68, 0
7, 732, Note_on_c, 3, 63, 0
7, 744, Note_on_c, 3, 68, 43
7, 963, Note_on_c, 3, 63, 51
7, 984, Note_on_c, 3, 68, 0
7, 1203, Note_on_c, 3, 63, 0
7, 1219, Note_on_c, 3, 68, 53
7, 1443, Note_on_c, 3, 63, 55
7, 1459, Note_on_c, 3, 68, 0
7, 1683, Note_on_c, 3, 63, 0
7, 1691, Note_on_c, 3, 68, 43
7, 1931, Note_on_c, 3, 68, 0
7, 1944, Note_on_c, 3, 63, 44
7, 2168, Note_on_c, 3, 68, 43
7, 2184, Note_on_c, 3, 63, 0
7, 2404, Note_on_c, 3, 63, 55
7, 2408, Note_on_c, 3, 68, 0
7, 2642, Note_on_c, 3, 68, 43
7, 2644, Note_on_c, 3, 63, 0
7, 2882, Note_on_c, 3, 68, 0
7, 2908, Note_on_c, 3, 56, 48
7, 3364, Note_on_c, 3, 63, 40
7, 3388, Note_on_c, 3, 56, 0
7, 3601, Note_on_c, 3, 68, 56
7, 3604, Note_on_c, 3, 63, 0
7, 3841, Note_on_c, 3, 68, 0
7, 3848, Note_on_c, 3, 63, 39
7, 4088, Note_on_c, 3, 63, 0
7, 4099, Note_on_c, 3, 68, 42
7, 4330, Note_on_c, 3, 63, 47
7, 4339, Note_on_c, 3, 68, 0
7, 4570, Note_on_c, 3, 63, 0
7, 4579, Note_on_c, 3, 68, 51
7, 4817, Note_on_c, 3, 63, 55
7, 4819, Note_on_c, 3, 68, 0
7, 5056, Note_on_c, 3, 68, 44
7, 5057, Note_on_c, 3, 63, 0
7, 5296, Note_on_c, 3, 68, 0
7, 5308, Note_on_c, 3, 63, 45
7, 5526, Note_on_c, 3, 68, 44
7, 5548, Note_on_c, 3, 63, 0
7, 5766, Note_on_c, 3, 68, 0
7, 5770, Note_on_c, 3, 63, 45
7, 6000, Note_on_c, 3, 68, 56
7, 6010, Note_on_c, 3, 63, 0
7, 6240, Note_on_c, 3, 68, 0
7, 6249, Note_on_c, 3, 63, 46
7, 6487, Note_on_c, 3, 68, 57
7, 6489, Note_on_c, 3, 63, 0
7, 6727, Note_on_c, 3, 68, 0
7, 6727, Note_on_c, 3, 63, 57
7, 6961, Note_on_c, 3, 68, 52
7, 6967, Note_on_c, 3, 63, 0
7, 7201, Note_on_c, 3, 68, 0
7, 7203, Note_on_c, 3, 63, 46
7, 7443, Note_on_c, 3, 63, 0
7, 10576, Note_on_c, 3, 74, 67
7, 12256, Note_on_c, 3, 74, 0
7, 15360, Control_c, 3, 11, 127
7, 15382, Control_c, 3, 11, 126
7, 15386, Note_on_c, 3, 74, 82
7, 15405, Control_c, 3, 11, 125
7, 15428, Control_c, 3, 11, 124
7, 15451, Control_c, 3, 11, 123
7, 15474, Control_c, 3, 11, 122
7, 15497, Control_c, 3, 11, 121
7, 15519, Control_c, 3, 11, 120
7, 15542, Control_c, 3, 11, 119
7, 15565, Control_c, 3, 11, 118
7, 15588, Control_c, 3, 11, 117
7, 15611, Control_c, 3, 11, 116
7, 15634, Control_c, 3, 11, 115
7, 15657, Control_c, 3, 11, 114
7, 15680, Control_c, 3, 11, 113
7, 15702, Control_c, 3, 11, 112
7, 15725, Control_c, 3, 11, 111
7, 15748, Control_c, 3, 11, 110
7, 15771, Control_c, 3, 11, 109
7, 15794, Control_c, 3, 11, 108
7, 15817, Control_c, 3, 11, 107
7, 15840, Control_c, 3, 11, 106
7, 15862, Control_c, 3, 11, 105
7, 15885, Control_c, 3, 11, 104
7, 15908, Control_c, 3, 11, 103
7, 15931, Control_c, 3, 11, 102
7, 15954, Control_c, 3, 11, 101
7, 15977, Control_c, 3, 11, 100
7, 15999, Control_c, 3, 11, 99
7, 16022, Control_c, 3, 11, 98
7, 16045, Control_c, 3, 11, 97
7, 16068, Control_c, 3, 11, 96
7, 16091, Control_c, 3, 11, 95
7, 16114, Control_c, 3, 11, 94
7, 16137, Control_c, 3, 11, 93
7, 16160, Control_c, 3, 11, 92
7, 16182, Control_c, 3, 11, 91
7, 16205, Control_c, 3, 11, 90
7, 16228, Control_c, 3, 11, 89
7, 16251, Control_c, 3, 11, 88
7, 16274, Control_c, 3, 11, 87
7, 16297, Control_c, 3, 11, 86
7, 16320, Control_c, 3, 11, 85
7, 16342, Control_c, 3, 11, 84
7, 16365, Control_c, 3, 11, 83
7, 16388, Control_c, 3, 11, 82
7, 16411, Control_c, 3, 11, 81
7, 16434, Control_c, 3, 11, 80
7, 16457, Control_c, 3, 11, 79
7, 16479, Control_c, 3, 11, 78
7, 16502, Control_c, 3, 11, 77
7, 16525, Control_c, 3, 11, 76
7, 16548, Control_c, 3, 11, 75
7, 16571, Control_c, 3, 11, 74
7, 16594, Control_c, 3, 11, 73
7, 16617, Control_c, 3, 11, 72
7, 16640, Control_c, 3, 11, 71
7, 16662, Control_c, 3, 11, 70
7, 16685, Control_c, 3, 11, 69
7, 16708, Control_c, 3, 11, 68
7, 16731, Control_c, 3, 11, 67
7, 16754, Control_c, 3, 11, 66
7, 16777, Control_c, 3, 11, 65
7, 17066, Note_on_c, 3, 74, 0
7, 19680, Control_c, 3, 11, 127
7, 19695, Note_on_c, 3, 74, 84
7, 19702, Control_c, 3, 11, 126
7, 19725, Control_c, 3, 11, 125
7, 19748, Control_c, 3, 11, 124
7, 19771, Control_c, 3, 11, 123
7, 19794, Control_c, 3, 11, 122
7, 19817, Control_c, 3, 11, 121
7, 19839, Control_c, 3, 11, 120
7, 19862, Control_c, 3, 11, 119
7, 19885, Control_c, 3, 11, 118
7, 19908, Control_c, 3, 11, 117
7, 19931, Control_c, 3, 11, 116
7, 19954, Control_c, 3, 11, 115
7, 19977, Control_c, 3, 11, 114
7, 20000, Control_c, 3, 11, 113
7, 20022, Control_c, 3, 11, 112
7, 20045, Control_c, 3, 11, 111
7, 20068, Control_c, 3, 11, 110
7, 20091, Control_c, 3, 11, 109
7, 20114, Control_c, 3, 11, 108
7, 20137, Control_c, 3, 11, 107
7, 20160, Control_c, 3, 11, 106
7, 20182, Control_c, 3, 11, 105
7, 20205, Control_c, 3, 11, 104
7, 20228, Control_c, 3, 11, 103
7, 20251, Control_c, 3, 11, 102
7, 20274, Control_c, 3, 11, 101
7, 20297, Control_c, 3, 11, 100
7, 20319, Control_c, 3, 11, 99
7, 20342, Control_c, 3, 11, 98
7, 20365, Control_c, 3, 11, 97
7, 20388, Control_c, 3, 11, 96
7, 20411, Control_c, 3, 11, 95
7, 20434, Control_c, 3, 11, 94
7, 20457, Control_c, 3, 11, 93
7, 20480, Control_c, 3, 11, 92
7, 20502, Control_c, 3, 11, 91
7, 20525, Control_c, 3, 11, 90
7, 20548, Control_c, 3, 11, 89
7, 20571, Control_c, 3, 11, 88
7, 20594, Control_c, 3, 11, 87
7, 20617, Control_c, 3, 11, 86
7, 20640, Control_c, 3, 11, 85
7, 20662, Control_c, 3, 11, 84
7, 20685, Control_c, 3, 11, 83
7, 20708, Control_c, 3, 11, 82
7, 20731, Control_c, 3, 11, 81
7, 20754, Control_c, 3, 11, 80
7, 20777, Control_c, 3, 11, 79
7, 20799, Control_c, 3, 11, 78
7, 20822, Control_c, 3, 11, 77
7, 20845, Control_c, 3, 11, 76
7, 20868, Control_c, 3, 11, 75
7, 20891, Control_c, 3, 11, 74
7, 20914, Control_c, 3, 11, 73
7, 20937, Control_c, 3, 11, 72
7, 20960, Control_c, 3, 11, 71
7, 20982, Control_c, 3, 11, 70
7, 21005, Control_c, 3, 11, 69
7, 21028, Control_c, 3, 11, 68
7, 21051, Control_c, 3, 11, 67
7, 21074, Control_c, 3, 11, 66
7, 21097, Control_c, 3, 11, 65
7, 22431, Note_on_c, 3, 74, 0
7, 22550, Control_c, 3, 11, 127
7, 22584, Note_on_c, 3, 70, 42
7, 23880, Note_on_c, 3, 70, 0
7, 24007, Note_on_c, 3, 67, 37
7, 25303, Note_on_c, 3, 67, 0
7, 25453, Note_on_c, 3, 70, 42
7, 26411, Note_on_c, 3, 67, 44
7, 26413, Note_on_c, 3, 70, 0
7, 27371, Note_on_c, 3, 67, 0
7, 65520, Note_on_c, 3, 64, 32
7, 65559, Note_on_c, 3, 64, 0
7, 65584, Note_on_c, 3, 67, 45
7, 65609, Note_on_c, 3, 72, 41
7, 65624, Note_on_c, 3, 67, 0
7, 65649, Note_on_c, 3, 72, 0
7, 65658, Note_on_c, 3, 76, 43
7, 65697, Note_on_c, 3, 76, 0
7, 65705, Note_on_c, 3, 79, 37
7, 65724, Note_on_c, 3, 82, 37
7, 65745, Note_on_c, 3, 79, 0
7, 65762, Note_on_c, 3, 84, 48
7, 65764, Note_on_c, 3, 82, 0
7, 65882, Note_on_c, 3, 84, 0
7, 67935, Note_on_c, 3, 64, 40
7, 67967, Note_on_c, 3, 67, 50
7, 67974, Note_on_c, 3, 64, 0
7, 68007, Note_on_c, 3, 67, 0
7, 68022, Note_on_c, 3, 72, 38
7, 68062, Note_on_c, 3, 72, 0
7, 68066, Note_on_c, 3, 76, 34
7, 68085, Note_on_c, 3, 79, 33
7, 68105, Note_on_c, 3, 76, 0
7, 68123, Note_on_c, 3, 82, 38
7, 68125, Note_on_c, 3, 79, 0
7, 68163, Note_on_c, 3, 82, 0
7, 68181, Note_on_c, 3, 84, 39
7, 68301, Note_on_c, 3, 84, 0
7, 69374, Note_on_c, 3, 64, 37
7, 69409, Note_on_c, 3, 67, 50
7, 69413, Note_on_c, 3, 64, 0
7, 69449, Note_on_c, 3, 67, 0
7, 69464, Note_on_c, 3, 72, 33
7, 69502, Note_on_c, 3, 76, 49
7, 69504, Note_on_c, 3, 72, 0
7, 69540, Note_on_c, 3, 79, 33
7, 69541, Note_on_c, 3, 76, 0
7, 69577, Note_on_c, 3, 82, 34
7, 69580, Note_on_c, 3, 79, 0
7, 69606, Note_on_c, 3, 84, 48
7, 69617, Note_on_c, 3, 82, 0
7, 69726, Note_on_c, 3, 84, 0
7, 72244, Note_on_c, 3, 64, 46
7, 72283, Note_on_c, 3, 64, 0
7, 72293, Note_on_c, 3, 67, 34
7, 72333, Note_on_c, 3, 67, 0
7, 72335, Note_on_c, 3, 72, 36
7, 72362, Note_on_c, 3, 76, 42
7, 72375, Note_on_c, 3, 72, 0
7, 72401, Note_on_c, 3, 76, 0
7, 72408, Note_on_c, 3, 79, 39
7, 72448, Note_on_c, 3, 79, 0
7, 72449, Note_on_c, 3, 82, 38
7, 72480, Note_on_c, 3, 84, 39
7, 72489, Note_on_c, 3, 82, 0
7, 72600, Note_on_c, 3, 84, 0
7, 73694, Note_on_c, 3, 64, 30
7, 73733, Note_on_c, 3, 64, 0
7, 73743, Note_on_c, 3, 67, 34
7, 73783, Note_on_c, 3, 67, 0
7, 73785, Note_on_c, 3, 72, 43
7, 73816, Note_on_c, 3, 76, 34
7, 73825, Note_on_c, 3, 72, 0
7, 73851, Note_on_c, 3, 79, 39
7, 73855, Note_on_c, 3, 76, 0
7, 73883, Note_on_c, 3, 82, 42
7, 73891, Note_on_c, 3, 79, 0
7, 73923, Note_on_c, 3, 82, 0
7, 73932, Note_on_c, 3, 84, 39
7, 74052, Note_on_c, 3, 84, 0
7, 76588, Note_on_c, 3, 64, 40
7, 76600, Note_on_c, 3, 67, 30
7, 76627, Note_on_c, 3, 64, 0
7, 76640, Note_on_c, 3, 67, 0
7, 76649, Note_on_c, 3, 72, 30
7, 76689, Note_on_c, 3, 72, 0
7, 76691, Note_on_c, 3, 76, 48
7, 76730, Note_on_c, 3, 76, 0
7, 76736, Note_on_c, 3, 79, 45
7, 76762, Note_on_c, 3, 82, 42
7, 76776, Note_on_c, 3, 79, 0
7, 76802, Note_on_c, 3, 82, 0
7, 76802, Note_on_c, 3, 84, 41
7, 76922, Note_on_c, 3, 84, 0
7, 78018, Note_on_c, 3, 64, 32
7, 78052, Note_on_c, 3, 67, 37
7, 78057, Note_on_c, 3, 64, 0
7, 78092, Note_on_c, 3, 67, 0
7, 78101, Note_on_c, 3, 72, 47
7, 78134, Note_on_c, 3, 76, 32
7, 78141, Note_on_c, 3, 72, 0
7, 78164, Note_on_c, 3, 79, 32
7, 78173, Note_on_c, 3, 76, 0
7, 78204, Note_on_c, 3, 79, 0
7, 78220, Note_on_c, 3, 82, 45
7, 78260, Note_on_c, 3, 82, 0
7, 78268, Note_on_c, 3, 84, 43
7, 78388, Note_on_c, 3, 84, 0
7, 80885, Note_on_c, 3, 64, 40
7, 80921, Note_on_c, 3, 67, 34
7, 80924, Note_on_c, 3, 64, 0
7, 80961, Note_on_c, 3, 67, 0
7, 80973, Note_on_c, 3, 72, 37
7, 81013, Note_on_c, 3, 72, 0
7, 81027, Note_on_c, 3, 76, 33
7, 81044, Note_on_c, 3, 79, 32
7, 81066, Note_on_c, 3, 76, 0
7, 81084, Note_on_c, 3, 79, 0
7, 81099, Note_on_c, 3, 82, 50
7, 81139, Note_on_c, 3, 82, 0
7, 81144, Note_on_c, 3, 84, 41
7, 81264, Note_on_c, 3, 84, 0
7, 82344, Note_on_c, 3, 64, 33
7, 82378, Note_on_c, 3, 67, 45
7, 82383, Note_on_c, 3, 64, 0
7, 82404, Note_on_c, 3, 72, 50
7, 82418, Note_on_c, 3, 67, 0
7, 82442, Note_on_c, 3, 76, 36
7, 82444, Note_on_c, 3, 72, 0
7, 82481, Note_on_c, 3, 76, 0
7, 82491, Note_on_c, 3, 79, 45
7, 82531, Note_on_c, 3, 79, 0
7, 82532, Note_on_c, 3, 82, 38
7, 82572, Note_on_c, 3, 82, 0
7, 82576, Note_on_c, 3, 84, 34
7, 82696, Note_on_c, 3, 84, 0
7, 216746, Note_on_c, 3, 79, 98
7, 216853, Note_on_c, 3, 79, 0
7, 217926, Note_on_c, 3, 79, 92
7, 218033, Note_on_c, 3, 79, 0
7, 221286, Note_on_c, 3, 79, 107
7, 221393, Note_on_c, 3, 79, 0
7, 222971, Note_on_c, 3, 79, 102
7, 223078, Note_on_c, 3, 79, 0
7, 223682, Note_on_c, 3, 74, 87
7, 223720, Note_on_c, 3, 74, 0
7, 223800, Note_on_c, 3, 75, 85
7, 223838, Note_on_c, 3, 75, 0
7, 223896, Note_on_c, 3, 76, 103
7, 223934, Note_on_c, 3, 76, 0
7, 223970, Note_on_c, 3, 77, 97
7, 224008, Note_on_c, 3, 77, 0
7, 224075, Note_on_c, 3, 78, 108
7, 224113, Note_on_c, 3, 78, 0
7, 224166, Note_on_c, 3, 79, 112
7, 224197, Note_on_c, 3, 79, 0
7, 224261, Note_on_c, 3, 80, 102
7, 224293, Note_on_c, 3, 80, 0
7, 224323, Note_on_c, 3, 81, 102
7, 224355, Note_on_c, 3, 81, 0
7, 224406, Note_on_c, 3, 82, 109
7, 224437, Note_on_c, 3, 82, 0
7, 224486, Note_on_c, 3, 83, 120
7, 224518, Note_on_c, 3, 83, 0
7, 224577, Note_on_c, 3, 84, 108
7, 224609, Note_on_c, 3, 84, 0
7, 224649, Note_on_c, 3, 85, 115
7, 224696, Note_on_c, 3, 85, 0
7, 225134, Note_on_c, 3, 85, 78
7, 225254, Note_on_c, 3, 85, 0
7, 229452, Note_on_c, 3, 84, 81
7, 229507, Note_on_c, 3, 85, 84
7, 229512, Note_on_c, 3, 84, 0
7, 229567, Note_on_c, 3, 85, 0
7, 229571, Note_on_c, 3, 84, 91
7, 229631, Note_on_c, 3, 84, 0
7, 229647, Note_on_c, 3, 85, 99
7, 229684, Note_on_c, 3, 84, 114
7, 229707, Note_on_c, 3, 85, 0
7, 229744, Note_on_c, 3, 84, 0
7, 229766, Note_on_c, 3, 85, 113
7, 229826, Note_on_c, 3, 85, 0
7, 229827, Note_on_c, 3, 84, 119
7, 229862, Note_on_c, 3, 85, 127
7, 229887, Note_on_c, 3, 84, 0
7, 229920, Note_on_c, 3, 85, 0
7, 229939, Note_on_c, 3, 85, 97
7, 230059, Note_on_c, 3, 85, 0
7, 233521, Note_on_c, 3, 74, 97
7, 233559, Note_on_c, 3, 74, 0
7, 233618, Note_on_c, 3, 75, 94
7, 233656, Note_on_c, 3, 75, 0
7, 233732, Note_on_c, 3, 76, 89
7, 233770, Note_on_c, 3, 76, 0
7, 233818, Note_on_c, 3, 77, 103
7, 233856, Note_on_c, 3, 77, 0
7, 233928, Note_on_c, 3, 78, 105
7, 233966, Note_on_c, 3, 78, 0
7, 234015, Note_on_c, 3, 79, 95
7, 234046, Note_on_c, 3, 79, 0
7, 234089, Note_on_c, 3, 80, 111
7, 234121, Note_on_c, 3, 80, 0
7, 234162, Note_on_c, 3, 81, 118
7, 234194, Note_on_c, 3, 81, 0
7, 234262, Note_on_c, 3, 82, 107
7, 234293, Note_on_c, 3, 82, 0
7, 234342, Note_on_c, 3, 83, 122
7, 234374, Note_on_c, 3, 83, 0
7, 234405, Note_on_c, 3, 84, 108
7, 234437, Note_on_c, 3, 84, 0
7, 234481, Note_on_c, 3, 85, 126
7, 234528, Note_on_c, 3, 85, 0
7, 234981, Note_on_c, 3, 85, 81
7, 235101, Note_on_c, 3, 85, 0
7, 240486, Note_on_c, 3, 79, 94
7, 240593, Note_on_c, 3, 79, 0
7, 243860, Note_on_c, 3, 79, 110
7, 243967, Note_on_c, 3, 79, 0
7, 245063, Note_on_c, 3, 79, 93
7, 245170, Note_on_c, 3, 79, 0
7, 246743, Note_on_c, 3, 79, 101
7, 246850, Note_on_c, 3, 79, 0
7, 247948, Note_on_c, 3, 79, 96
7, 248055, Note_on_c, 3, 79, 0
7, 248654, Note_on_c, 3, 89, 124
7, 248722, Note_on_c, 3, 89, 0
7, 248731, Note_on_c, 3, 87, 115
7, 248786, Note_on_c, 3, 85, 107
7, 248800, Note_on_c, 3, 87, 0
7, 248846, Note_on_c, 3, 84, 118
7, 248854, Note_on_c, 3, 85, 0
7, 248914, Note_on_c, 3, 84, 0
7, 248942, Note_on_c, 3, 82, 109
7, 249010, Note_on_c, 3, 82, 0
7, 249010, Note_on_c, 3, 80, 119
7, 249059, Note_on_c, 3, 78, 122
7, 249079, Note_on_c, 3, 80, 0
7, 249121, Note_on_c, 3, 77, 110
7, 249127, Note_on_c, 3, 78, 0
7, 249361, Note_on_c, 3, 77, 0
7, 250808, Note_on_c, 3, 89, 120
7, 250876, Note_on_c, 3, 89, 0
7, 250890, Note_on_c, 3, 87, 106
7, 250959, Note_on_c, 3, 87, 0
7, 250959, Note_on_c, 3, 85, 116
7, 251027, Note_on_c, 3, 85, 0
7, 251030, Note_on_c, 3, 84, 119
7, 251088, Note_on_c, 3, 82, 107
7, 251098, Note_on_c, 3, 84, 0
7, 251155, Note_on_c, 3, 80, 107
7, 251156, Note_on_c, 3, 82, 0
7, 251216, Note_on_c, 3, 78, 117
7, 251224, Note_on_c, 3, 80, 0
7, 251284, Note_on_c, 3, 78, 0
7, 253453, Note_on_c, 3, 89, 121
7, 253521, Note_on_c, 3, 89, 0
7, 253531, Note_on_c, 3, 87, 113
7, 253578, Note_on_c, 3, 85, 106
7, 253600, Note_on_c, 3, 87, 0
7, 253646, Note_on_c, 3, 85, 0
7, 253669, Note_on_c, 3, 84, 104
7, 253736, Note_on_c, 3, 82, 114
7, 253737, Note_on_c, 3, 84, 0
7, 253785, Note_on_c, 3, 80, 113
7, 253804, Note_on_c, 3, 82, 0
7, 253854, Note_on_c, 3, 80, 0
7, 253876, Note_on_c, 3, 78, 114
7, 253931, Note_on_c, 3, 77, 114
7, 253944, Note_on_c, 3, 78, 0
7, 254171, Note_on_c, 3, 77, 0
7, 263522, Note_on_c, 3, 90, 120
7, 263602, Note_on_c, 3, 90, 0
7, 263700, Note_on_c, 3, 84, 105
7, 263780, Note_on_c, 3, 84, 0
7, 263858, Note_on_c, 3, 78, 117
7, 263938, Note_on_c, 3, 78, 0
7, 264005, Note_on_c, 3, 84, 115
7, 264085, Note_on_c, 3, 84, 0
7, 264163, Note_on_c, 3, 90, 109
7, 264243, Note_on_c, 3, 90, 0
7, 264346, Note_on_c, 3, 84, 122
7, 264426, Note_on_c, 3, 84, 0
7, 277688, Note_on_c, 3, 82, 83
7, 277808, Note_on_c, 3, 82, 0
7, 278177, Note_on_c, 3, 82, 81
7, 278297, Note_on_c, 3, 82, 0
7, 278665, Note_on_c, 3, 82, 68
7, 278785, Note_on_c, 3, 82, 0
7, 279132, Note_on_c, 3, 82, 72
7, 279252, Note_on_c, 3, 82, 0
7, 279609, Note_on_c, 3, 82, 68
7, 279729, Note_on_c, 3, 82, 0
7, 279866, Note_on_c, 3, 63, 95
7, 279913, Note_on_c, 3, 66, 95
7, 279926, Note_on_c, 3, 63, 0
7, 279968, Note_on_c, 3, 70, 100
7, 279973, Note_on_c, 3, 66, 0
7, 280028, Note_on_c, 3, 70, 0
7, 280028, Note_on_c, 3, 72, 100
7, 280088, Note_on_c, 3, 72, 0
7, 280094, Note_on_c, 3, 75, 101
7, 280154, Note_on_c, 3, 75, 0
7, 280164, Note_on_c, 3, 78, 101
7, 280224, Note_on_c, 3, 78, 0
7, 280224, Note_on_c, 3, 82, 111
7, 280277, Note_on_c, 3, 84, 104
7, 280284, Note_on_c, 3, 82, 0
7, 280337, Note_on_c, 3, 84, 0
7, 280344, Note_on_c, 3, 87, 108
7, 280403, Note_on_c, 3, 84, 105
7, 280404, Note_on_c, 3, 87, 0
7, 280457, Note_on_c, 3, 82, 96
7, 280463, Note_on_c, 3, 84, 0
7, 280517, Note_on_c, 3, 82, 0
7, 280524, Note_on_c, 3, 78, 109
7, 280573, Note_on_c, 3, 75, 98
7, 280584, Note_on_c, 3, 78, 0
7, 280633, Note_on_c, 3, 75, 0
7, 280645, Note_on_c, 3, 72, 91
7, 280691, Note_on_c, 3, 70, 111
7, 280705, Note_on_c, 3, 72, 0
7, 280751, Note_on_c, 3, 70, 0
7, 280759, Note_on_c, 3, 66, 103
7, 280819, Note_on_c, 3, 66, 0
7, 280827, Note_on_c, 3, 63, 97
7, 280947, Note_on_c, 3, 63, 0
7, 281543, Note_on_c, 3, 82, 82
7, 281663, Note_on_c, 3, 82, 0
7, 282026, Note_on_c, 3, 82, 81
7, 282146, Note_on_c, 3, 82, 0
7, 282496, Note_on_c, 3, 82, 66
7, 282616, Note_on_c, 3, 82, 0
7, 282968, Note_on_c, 3, 82, 65
7, 283088, Note_on_c, 3, 82, 0
7, 283462, Note_on_c, 3, 82, 66
7, 283582, Note_on_c, 3, 82, 0
7, 283948, Note_on_c, 3, 82, 70
7, 284068, Note_on_c, 3, 82, 0
7, 284178, Note_on_c, 3, 63, 98
7, 284238, Note_on_c, 3, 63, 0
7, 284244, Note_on_c, 3, 66, 108
7, 284281, Note_on_c, 3, 70, 101
7, 284304, Note_on_c, 3, 66, 0
7, 284341, Note_on_c, 3, 70, 0
7, 284365, Note_on_c, 3, 72, 101
7, 284401, Note_on_c, 3, 75, 110
7, 284425, Note_on_c, 3, 72, 0
7, 284461, Note_on_c, 3, 75, 0
7, 284484, Note_on_c, 3, 78, 96
7, 284536, Note_on_c, 3, 82, 95
7, 284544, Note_on_c, 3, 78, 0
7, 284596, Note_on_c, 3, 82, 0
7, 284604, Note_on_c, 3, 84, 103
7, 284664, Note_on_c, 3, 84, 0
7, 284668, Note_on_c, 3, 87, 109
7, 284717, Note_on_c, 3, 84, 107
7, 284728, Note_on_c, 3, 87, 0
7, 284777, Note_on_c, 3, 84, 0
7, 284787, Note_on_c, 3, 82, 102
7, 284842, Note_on_c, 3, 78, 101
7, 284847, Note_on_c, 3, 82, 0
7, 284898, Note_on_c, 3, 75, 100
7, 284902, Note_on_c, 3, 78, 0
7, 284942, Note_on_c, 3, 72, 105
7, 284958, Note_on_c, 3, 75, 0
7, 285002, Note_on_c, 3, 72, 0
7, 285018, Note_on_c, 3, 70, 100
7, 285078, Note_on_c, 3, 70, 0
7, 285088, Note_on_c, 3, 66, 101
7, 285148, Note_on_c, 3, 66, 0
7, 285372, Note_on_c, 3, 82, 65
7, 285492, Note_on_c, 3, 82, 0
7, 285864, Note_on_c, 3, 82, 69
7, 285984, Note_on_c, 3, 82, 0
7, 286345, Note_on_c, 3, 82, 77
7, 286465, Note_on_c, 3, 82, 0
7, 286569, Note_on_c, 3, 63, 105
7, 286629, Note_on_c, 3, 63, 0
7, 286630, Note_on_c, 3, 66, 103
7, 286690, Note_on_c, 3, 66, 0
7, 286698, Note_on_c, 3, 70, 96
7, 286744, Note_on_c, 3, 72, 107
7, 286758, Note_on_c, 3, 70, 0
7, 286804, Note_on_c, 3, 72, 0
7, 286804, Note_on_c, 3, 75, 104
7, 286864, Note_on_c, 3, 75, 0
7, 286870, Note_on_c, 3, 78, 111
7, 286930, Note_on_c, 3, 78, 0
7, 286937, Note_on_c, 3, 82, 107
7, 286997, Note_on_c, 3, 82, 0
7, 286999, Note_on_c, 3, 84, 109
7, 287041, Note_on_c, 3, 87, 105
7, 287059, Note_on_c, 3, 84, 0
7, 287101, Note_on_c, 3, 87, 0
7, 287118, Note_on_c, 3, 84, 98
7, 287163, Note_on_c, 3, 82, 101
7, 287178, Note_on_c, 3, 84, 0
7, 287223, Note_on_c, 3, 82, 0
7, 287248, Note_on_c, 3, 78, 97
7, 287307, Note_on_c, 3, 75, 106
7, 287308, Note_on_c, 3, 78, 0
7, 287363, Note_on_c, 3, 72, 100
7, 287367, Note_on_c, 3, 75, 0
7, 287421, Note_on_c, 3, 70, 91
7, 287423, Note_on_c, 3, 72, 0
7, 287471, Note_on_c, 3, 66, 109
7, 287481, Note_on_c, 3, 70, 0
7, 287531, Note_on_c, 3, 66, 0
7, 287537, Note_on_c, 3, 63, 101
7, 287597, Note_on_c, 3, 63, 0
7, 287604, Note_on_c, 3, 66, 107
7, 287664, Note_on_c, 3, 66, 0
7, 287669, Note_on_c, 3, 70, 94
7, 287714, Note_on_c, 3, 72, 110
7, 287729, Note_on_c, 3, 70, 0
7, 287764, Note_on_c, 3, 75, 103
7, 287774, Note_on_c, 3, 72, 0
7, 287824, Note_on_c, 3, 75, 0
7, 287832, Note_on_c, 3, 78, 98
7, 287892, Note_on_c, 3, 78, 0
7, 287896, Note_on_c, 3, 82, 108
7, 287956, Note_on_c, 3, 82, 0
7, 287956, Note_on_c, 3, 84, 105
7, 288016, Note_on_c, 3, 84, 0
7, 288019, Note_on_c, 3, 87, 94
7, 288259, Note_on_c, 3, 87, 0
7, 289211, Note_on_c, 3, 73, 107
7, 289249, Note_on_c, 3, 73, 0
7, 289302, Note_on_c, 3, 74, 94
7, 289340, Note_on_c, 3, 74, 0
7, 289397, Note_on_c, 3, 75, 111
7, 289435, Note_on_c, 3, 75, 0
7, 289499, Note_on_c, 3, 76, 95
7, 289537, Note_on_c, 3, 76, 0
7, 289591, Note_on_c, 3, 77, 91
7, 289629, Note_on_c, 3, 77, 0
7, 289704, Note_on_c, 3, 78, 99
7, 289735, Note_on_c, 3, 78, 0
7, 289775, Note_on_c, 3, 79, 102
7, 289807, Note_on_c, 3, 79, 0
7, 289857, Note_on_c, 3, 80, 106
7, 289889, Note_on_c, 3, 80, 0
7, 289931, Note_on_c, 3, 81, 99
7, 289962, Note_on_c, 3, 81, 0
7, 290010, Note_on_c, 3, 82, 94
7, 290042, Note_on_c, 3, 82, 0
7, 290082, Note_on_c, 3, 83, 107
7, 290114, Note_on_c, 3, 83, 0
7, 290182, Note_on_c, 3, 84, 94
7, 290213, Note_on_c, 3, 84, 0
7, 290242, Note_on_c, 3, 85, 95
7, 290274, Note_on_c, 3, 85, 0
7, 290348, Note_on_c, 3, 86, 96
7, 290380, Note_on_c, 3, 86, 0
7, 290412, Note_on_c, 3, 87, 93
7, 290443, Note_on_c, 3, 87, 0
7, 290504, Note_on_c, 3, 88, 109
7, 290536, Note_on_c, 3, 88, 0
7, 290560, Note_on_c, 3, 89, 109
7, 290592, Note_on_c, 3, 89, 0
7, 290661, Note_on_c, 3, 90, 102
7, 290781, Note_on_c, 3, 90, 0
7, 291382, Note_on_c, 3, 79, 102
7, 291489, Note_on_c, 3, 79, 0
7, 292587, Note_on_c, 3, 79, 98
7, 292694, Note_on_c, 3, 79, 0
7, 295931, Note_on_c, 3, 79, 108
7, 296038, Note_on_c, 3, 79, 0
7, 297617, Note_on_c, 3, 79, 93
7, 297724, Note_on_c, 3, 79, 0
7, 298807, Note_on_c, 3, 79, 108
7, 298914, Note_on_c, 3, 79, 0
7, 301441, Note_on_c, 3, 79, 95
7, 301548, Note_on_c, 3, 79, 0
7, 304824, Note_on_c, 3, 79, 95
7, 304931, Note_on_c, 3, 79, 0
7, 306014, Note_on_c, 3, 79, 95
7, 306121, Note_on_c, 3, 79, 0
7, 307694, Note_on_c, 3, 79, 92
7, 307801, Note_on_c, 3, 79, 0
7, 308897, Note_on_c, 3, 79, 101
7, 309004, Note_on_c, 3, 79, 0
7, 318024, Note_on_c, 3, 88, 111
7, 318864, Note_on_c, 3, 88, 0
7, 318969, Note_on_c, 3, 88, 91
7, 319329, Note_on_c, 3, 88, 0
7, 319465, Note_on_c, 3, 88, 109
7, 319825, Note_on_c, 3, 88, 0
7, 319932, Note_on_c, 3, 88, 106
7, 320292, Note_on_c, 3, 88, 0
7, 320424, Note_on_c, 3, 88, 102
7, 320784, Note_on_c, 3, 88, 0
7, 320900, Note_on_c, 3, 88, 99
7, 321260, Note_on_c, 3, 88, 0
7, 321375, Note_on_c, 3, 88, 102
7, 322215, Note_on_c, 3, 88, 0
7, 322336, Note_on_c, 3, 88, 108
7, 322696, Note_on_c, 3, 88, 0
7, 322818, Note_on_c, 3, 88, 107
7, 323178, Note_on_c, 3, 88, 0
7, 323305, Note_on_c, 3, 88, 109
7, 323665, Note_on_c, 3, 88, 0
7, 323760, Note_on_c, 3, 88, 91
7, 324120, Note_on_c, 3, 88, 0
7, 340572, Note_on_c, 3, 88, 99
7, 340932, Note_on_c, 3, 88, 0
7, 341042, Note_on_c, 3, 88, 110
7, 341402, Note_on_c, 3, 88, 0
7, 341525, Note_on_c, 3, 88, 100
7, 341885, Note_on_c, 3, 88, 0
7, 342012, Note_on_c, 3, 88, 102
7, 342372, Note_on_c, 3, 88, 0
7, 342488, Note_on_c, 3, 88, 98
7, 342848, Note_on_c, 3, 88, 0
7, 342960, Note_on_c, 3, 88, 101
7, 343320, Note_on_c, 3, 88, 0
7, 343938, Note_on_c, 3, 88, 97
7, 344298, Note_on_c, 3, 88, 0
7, 344407, Note_on_c, 3, 88, 97
7, 344767, Note_on_c, 3, 88, 0
7, 344894, Note_on_c, 3, 88, 106
7, 345254, Note_on_c, 3, 88, 0
7, 345384, Note_on_c, 3, 88, 95
7, 345744, Note_on_c, 3, 88, 0
7, 345865, Note_on_c, 3, 88, 103
7, 346225, Note_on_c, 3, 88, 0
7, 346346, Note_on_c, 3, 88, 102
7, 346706, Note_on_c, 3, 88, 0
7, 346823, Note_on_c, 3, 88, 92
7, 347183, Note_on_c, 3, 88, 0
7, 347289, Note_on_c, 3, 88, 109
7, 347649, Note_on_c, 3, 88, 0
7, 347765, Note_on_c, 3, 88, 101
7, 348605, Note_on_c, 3, 88, 0
7, 348736, Note_on_c, 3, 88, 109
7, 349096, Note_on_c, 3, 88, 0
7, 349223, Note_on_c, 3, 88, 96
7, 349583, Note_on_c, 3, 88, 0
7, 349695, Note_on_c, 3, 88, 93
7, 350055, Note_on_c, 3, 88, 0
7, 350182, Note_on_c, 3, 88, 109
7, 350542, Note_on_c, 3, 88, 0
7, 350664, Note_on_c, 3, 88, 101
7, 351024, Note_on_c, 3, 88, 0
7, 351130, Note_on_c, 3, 87, 111
7, 351490, Note_on_c, 3, 87, 0
7, 383293, Note_on_c, 3, 88, 98
7, 383533, Note_on_c, 3, 88, 0
7, 383782, Note_on_c, 3, 88, 93
7, 384022, Note_on_c, 3, 88, 0
7, 384243, Note_on_c, 3, 88, 104
7, 384483, Note_on_c, 3, 88, 0
7, 384730, Note_on_c, 3, 88, 109
7, 384970, Note_on_c, 3, 88, 0
7, 385228, Note_on_c, 3, 88, 96
7, 385468, Note_on_c, 3, 88, 0
7, 385687, Note_on_c, 3, 88, 106
7, 385927, Note_on_c, 3, 88, 0
7, 438024, Note_on_c, 3, 73, 88
7, 438126, Note_on_c, 3, 71, 95
7, 438144, Note_on_c, 3, 73, 0
7, 438243, Note_on_c, 3, 70, 97
7, 438246, Note_on_c, 3, 71, 0
7, 438363, Note_on_c, 3, 70, 0
7, 438371, Note_on_c, 3, 68, 91
7, 438491, Note_on_c, 3, 68, 0
7, 438491, Note_on_c, 3, 73, 91
7, 438611, Note_on_c, 3, 73, 0
7, 438621, Note_on_c, 3, 71, 79
7, 438721, Note_on_c, 3, 70, 95
7, 438741, Note_on_c, 3, 71, 0
7, 438841, Note_on_c, 3, 70, 0
7, 438855, Note_on_c, 3, 68, 83
7, 438970, Note_on_c, 3, 73, 88
7, 438975, Note_on_c, 3, 68, 0
7, 439090, Note_on_c, 3, 73, 0
7, 439099, Note_on_c, 3, 71, 78
7, 439219, Note_on_c, 3, 71, 0
7, 439223, Note_on_c, 3, 70, 96
7, 439338, Note_on_c, 3, 68, 89
7, 439343, Note_on_c, 3, 70, 0
7, 439455, Note_on_c, 3, 73, 85
7, 439458, Note_on_c, 3, 68, 0
7, 439575, Note_on_c, 3, 73, 0
7, 439577, Note_on_c, 3, 71, 85
7, 439697, Note_on_c, 3, 71, 0
7, 439705, Note_on_c, 3, 70, 93
7, 439815, Note_on_c, 3, 68, 98
7, 439825, Note_on_c, 3, 70, 0
7, 439935, Note_on_c, 3, 68, 0
7, 439941, Note_on_c, 3, 73, 94
7, 440044, Note_on_c, 3, 71, 88
7, 440061, Note_on_c, 3, 73, 0
7, 440164, Note_on_c, 3, 71, 0
7, 440172, Note_on_c, 3, 70, 79
7, 440281, Note_on_c, 3, 68, 85
7, 440292, Note_on_c, 3, 70, 0
7, 440401, Note_on_c, 3, 68, 0
7, 440416, Note_on_c, 3, 73, 95
7, 440531, Note_on_c, 3, 71, 95
7, 440536, Note_on_c, 3, 73, 0
7, 440644, Note_on_c, 3, 70, 95
7, 440651, Note_on_c, 3, 71, 0
7, 440760, Note_on_c, 3, 68, 87
7, 440764, Note_on_c, 3, 70, 0
7, 440880, Note_on_c, 3, 68, 0
7, 440903, Note_on_c, 3, 73, 93
7, 441001, Note_on_c, 3, 71, 83
7, 441023, Note_on_c, 3, 73, 0
7, 441121, Note_on_c, 3, 71, 0
7, 441145, Note_on_c, 3, 70, 82
7, 441248, Note_on_c, 3, 68, 93
7, 441265, Note_on_c, 3, 70, 0
7, 441368, Note_on_c, 3, 68, 0
7, 441384, Note_on_c, 3, 73, 93
7, 441485, Note_on_c, 3, 71, 88
7, 441504, Note_on_c, 3, 73, 0
7, 441605, Note_on_c, 3, 71, 0
7, 441608, Note_on_c, 3, 70, 85
7, 441728, Note_on_c, 3, 70, 0
7, 441746, Note_on_c, 3, 68, 88
7, 441855, Note_on_c, 3, 73, 98
7, 441866, Note_on_c, 3, 68, 0
7, 441972, Note_on_c, 3, 71, 86
7, 441975, Note_on_c, 3, 73, 0
7, 442092, Note_on_c, 3, 71, 0
7, 442105, Note_on_c, 3, 70, 81
7, 442214, Note_on_c, 3, 68, 80
7, 442225, Note_on_c, 3, 70, 0
7, 442327, Note_on_c, 3, 73, 97
7, 442334, Note_on_c, 3, 68, 0
7, 442447, Note_on_c, 3, 73, 0
7, 442452, Note_on_c, 3, 71, 82
7, 442572, Note_on_c, 3, 71, 0
7, 442581, Note_on_c, 3, 70, 88
7, 442696, Note_on_c, 3, 68, 89
7, 442701, Note_on_c, 3, 70, 0
7, 442810, Note_on_c, 3, 73, 78
7, 442816, Note_on_c, 3, 68, 0
7, 442930, Note_on_c, 3, 73, 0
7, 442938, Note_on_c, 3, 71, 98
7, 443048, Note_on_c, 3, 70, 89
7, 443058, Note_on_c, 3, 71, 0
7, 443168, Note_on_c, 3, 70, 0
7, 443171, Note_on_c, 3, 68, 83
7, 443291, Note_on_c, 3, 68, 0
7, 443303, Note_on_c, 3, 73, 82
7, 443411, Note_on_c, 3, 71, 78
7, 443423, Note_on_c, 3, 73, 0
7, 443531, Note_on_c, 3, 71, 0
7, 443535, Note_on_c, 3, 70, 93
7, 443655, Note_on_c, 3, 70, 0
7, 443657, Note_on_c, 3, 68, 87
7, 443777, Note_on_c, 3, 68, 0
7, 448109, Note_on_c, 3, 69, 43
7, 448205, Note_on_c, 3, 69, 0
7, 448347, Note_on_c, 3, 69, 43
7, 448443, Note_on_c, 3, 69, 0
7, 448588, Note_on_c, 3, 72, 47
7, 448684, Note_on_c, 3, 72, 0
7, 449061, Note_on_c, 3, 68, 85
7, 449301, Note_on_c, 3, 68, 0
7, 449301, Note_on_c, 3, 80, 68
7, 449530, Note_on_c, 3, 79, 82
7, 449541, Note_on_c, 3, 80, 0
7, 449629, Note_on_c, 3, 79, 0
7, 449697, Note_on_c, 3, 76, 67
7, 449797, Note_on_c, 3, 76, 0
7, 449840, Note_on_c, 3, 74, 66
7, 449940, Note_on_c, 3, 74, 0
7, 450023, Note_on_c, 3, 69, 50
7, 450119, Note_on_c, 3, 69, 0
7, 450267, Note_on_c, 3, 69, 41
7, 450363, Note_on_c, 3, 69, 0
7, 450492, Note_on_c, 3, 72, 44
7, 450588, Note_on_c, 3, 72, 0
7, 451928, Note_on_c, 3, 69, 46
7, 452024, Note_on_c, 3, 69, 0
7, 452179, Note_on_c, 3, 69, 51
7, 452275, Note_on_c, 3, 69, 0
7, 452405, Note_on_c, 3, 72, 47
7, 452501, Note_on_c, 3, 72, 0
7, 452894, Note_on_c, 3, 68, 80
7, 453125, Note_on_c, 3, 80, 71
7, 453134, Note_on_c, 3, 68, 0
7, 453365, Note_on_c, 3, 80, 0
7, 453387, Note_on_c, 3, 79, 66
7, 453486, Note_on_c, 3, 79, 0
7, 453538, Note_on_c, 3, 76, 83
7, 453638, Note_on_c, 3, 76, 0
7, 453685, Note_on_c, 3, 74, 83
7, 453785, Note_on_c, 3, 74, 0
7, 454817, Note_on_c, 3, 68, 75
7, 455057, Note_on_c, 3, 68, 0
7, 455060, Note_on_c, 3, 80, 75
7, 455290, Note_on_c, 3, 79, 85
7, 455300, Note_on_c, 3, 80, 0
7, 455389, Note_on_c, 3, 79, 0
7, 455451, Note_on_c, 3, 76, 77
7, 455551, Note_on_c, 3, 76, 0
7, 455627, Note_on_c, 3, 74, 80
7, 455727, Note_on_c, 3, 74, 0
7, 456720, Control_c, 3, 11, 75
7, 457440, Note_on_c, 3, 74, 95
7, 457470, Note_on_c, 3, 74, 0
7, 457470, Note_on_c, 3, 75, 95
7, 457500, Note_on_c, 3, 75, 0
7, 457500, Note_on_c, 3, 76, 94
7, 457530, Note_on_c, 3, 76, 0
7, 457530, Note_on_c, 3, 78, 78
7, 457560, Note_on_c, 3, 78, 0
7, 457560, Note_on_c, 3, 79, 92
7, 457590, Note_on_c, 3, 79, 0
7, 457590, Note_on_c, 3, 80, 80
7, 457620, Note_on_c, 3, 80, 0
7, 457620, Note_on_c, 3, 81, 94
7, 457650, Note_on_c, 3, 81, 0
7, 457650, Note_on_c, 3, 82, 94
7, 457680, Note_on_c, 3, 82, 0
7, 457680, Note_on_c, 3, 85, 95
7, 457710, Note_on_c, 3, 84, 95
7, 457725, Note_on_c, 3, 85, 0
7, 457740, Note_on_c, 3, 85, 93
7, 457755, Note_on_c, 3, 84, 0
7, 457770, Note_on_c, 3, 84, 95
7, 457785, Note_on_c, 3, 85, 0
7, 457800, Note_on_c, 3, 85, 101
7, 457815, Note_on_c, 3, 84, 0
7, 457830, Note_on_c, 3, 84, 102
7, 457845, Note_on_c, 3, 85, 0
7, 457860, Note_on_c, 3, 85, 104
7, 457875, Note_on_c, 3, 84, 0
7, 457890, Note_on_c, 3, 84, 97
7, 457905, Note_on_c, 3, 85, 0
7, 457920, Note_on_c, 3, 85, 104
7, 457935, Note_on_c, 3, 84, 0
7, 457950, Note_on_c, 3, 84, 105
7, 457965, Note_on_c, 3, 85, 0
7, 457980, Note_on_c, 3, 85, 95
7, 457995, Note_on_c, 3, 84, 0
7, 458010, Note_on_c, 3, 84, 91
7, 458025, Note_on_c, 3, 85, 0
7, 458040, Note_on_c, 3, 85, 93
7, 458055, Note_on_c, 3, 84, 0
7, 458070, Note_on_c, 3, 84, 91
7, 458085, Note_on_c, 3, 85, 0
7, 458100, Note_on_c, 3, 85, 100
7, 458115, Note_on_c, 3, 84, 0
7, 458130, Note_on_c, 3, 84, 94
7, 458145, Note_on_c, 3, 85, 0
7, 458160, Note_on_c, 3, 85, 98
7, 458175, Note_on_c, 3, 84, 0
7, 458190, Note_on_c, 3, 84, 95
7, 458205, Note_on_c, 3, 85, 0
7, 458220, Note_on_c, 3, 85, 107
7, 458235, Note_on_c, 3, 84, 0
7, 458250, Note_on_c, 3, 84, 102
7, 458265, Note_on_c, 3, 85, 0
7, 458280, Note_on_c, 3, 85, 100
7, 458295, Note_on_c, 3, 84, 0
7, 458310, Note_on_c, 3, 84, 108
7, 458325, Note_on_c, 3, 85, 0
7, 458340, Note_on_c, 3, 85, 100
7, 458355, Note_on_c, 3, 84, 0
7, 458370, Note_on_c, 3, 84, 93
7, 458385, Note_on_c, 3, 85, 0
7, 458400, Note_on_c, 3, 85, 106
7, 458415, Note_on_c, 3, 84, 0
7, 458430, Note_on_c, 3, 84, 107
7, 458445, Note_on_c, 3, 85, 0
7, 458460, Note_on_c, 3, 85, 109
7, 458475, Note_on_c, 3, 84, 0
7, 458490, Note_on_c, 3, 84, 111
7, 458505, Note_on_c, 3, 85, 0
7, 458520, Note_on_c, 3, 85, 109
7, 458535, Note_on_c, 3, 84, 0
7, 458550, Note_on_c, 3, 84, 91
7, 458565, Note_on_c, 3, 85, 0
7, 458580, Note_on_c, 3, 85, 91
7, 458595, Note_on_c, 3, 84, 0
7, 458610, Note_on_c, 3, 84, 100
7, 458625, Note_on_c, 3, 85, 0
7, 458640, Note_on_c, 3, 85, 104
7, 458655, Note_on_c, 3, 84, 0
7, 458670, Note_on_c, 3, 84, 92
7, 458685, Note_on_c, 3, 85, 0
7, 458700, Note_on_c, 3, 85, 110
7, 458715, Note_on_c, 3, 84, 0
7, 458730, Note_on_c, 3, 84, 97
7, 458745, Note_on_c, 3, 85, 0
7, 458760, Note_on_c, 3, 85, 101
7, 458775, Note_on_c, 3, 84, 0
7, 458790, Note_on_c, 3, 84, 96
7, 458805, Note_on_c, 3, 85, 0
7, 458820, Note_on_c, 3, 85, 107
7, 458835, Note_on_c, 3, 84, 0
7, 458850, Note_on_c, 3, 84, 101
7, 458865, Note_on_c, 3, 85, 0
7, 458880, Note_on_c, 3, 85, 103
7, 458895, Note_on_c, 3, 84, 0
7, 458910, Note_on_c, 3, 84, 107
7, 458925, Note_on_c, 3, 85, 0
7, 458940, Note_on_c, 3, 85, 91
7, 458955, Note_on_c, 3, 84, 0
7, 458970, Note_on_c, 3, 84, 102
7, 458985, Note_on_c, 3, 85, 0
7, 459000, Note_on_c, 3, 85, 101
7, 459015, Note_on_c, 3, 84, 0
7, 459030, Note_on_c, 3, 84, 101
7, 459045, Note_on_c, 3, 85, 0
7, 459060, Note_on_c, 3, 85, 111
7, 459075, Note_on_c, 3, 84, 0
7, 459090, Note_on_c, 3, 84, 96
7, 459105, Note_on_c, 3, 85, 0
7, 459120, Note_on_c, 3, 85, 108
7, 459135, Note_on_c, 3, 84, 0
7, 459150, Note_on_c, 3, 84, 94
7, 459165, Note_on_c, 3, 85, 0
7, 459180, Note_on_c, 3, 85, 108
7, 459195, Note_on_c, 3, 84, 0
7, 459210, Note_on_c, 3, 84, 91
7, 459225, Note_on_c, 3, 85, 0
7, 459240, Note_on_c, 3, 85, 103
7, 459255, Note_on_c, 3, 84, 0
7, 459270, Note_on_c, 3, 84, 95
7, 459285, Note_on_c, 3, 85, 0
7, 459300, Note_on_c, 3, 85, 108
7, 459315, Note_on_c, 3, 84, 0
7, 459330, Note_on_c, 3, 84, 110
7, 459345, Note_on_c, 3, 85, 0
7, 459360, Note_on_c, 3, 85, 104
7, 459375, Note_on_c, 3, 84, 0
7, 459390, Note_on_c, 3, 84, 110
7, 459405, Note_on_c, 3, 85, 0
7, 459420, Note_on_c, 3, 85, 95
7, 459435, Note_on_c, 3, 84, 0
7, 459450, Note_on_c, 3, 84, 96
7, 459465, Note_on_c, 3, 85, 0
7, 459480, Note_on_c, 3, 85, 93
7, 459495, Note_on_c, 3, 84, 0
7, 459510, Note_on_c, 3, 84, 109
7, 459525, Note_on_c, 3, 85, 0
7, 459540, Note_on_c, 3, 85, 106
7, 459555, Note_on_c, 3, 84, 0
7, 459570, Note_on_c, 3, 84, 94
7, 459585, Note_on_c, 3, 85, 0
7, 459600, Note_on_c, 3, 85, 97
7, 459615, Note_on_c, 3, 84, 0
7, 459630, Note_on_c, 3, 84, 110
7, 459645, Note_on_c, 3, 85, 0
7, 459660, Note_on_c, 3, 85, 91
7, 459675, Note_on_c, 3, 84, 0
7, 459690, Note_on_c, 3, 84, 97
7, 459705, Note_on_c, 3, 85, 0
7, 459720, Note_on_c, 3, 85, 105
7, 459735, Note_on_c, 3, 84, 0
7, 459750, Note_on_c, 3, 84, 92
7, 459765, Note_on_c, 3, 85, 0
7, 459780, Note_on_c, 3, 85, 95
7, 459795, Note_on_c, 3, 84, 0
7, 459810, Note_on_c, 3, 84, 103
7, 459825, Note_on_c, 3, 85, 0
7, 459840, Note_on_c, 3, 85, 96
7, 459855, Note_on_c, 3, 84, 0
7, 459870, Note_on_c, 3, 84, 107
7, 459885, Note_on_c, 3, 85, 0
7, 459900, Note_on_c, 3, 85, 109
7, 459915, Note_on_c, 3, 84, 0
7, 459930, Note_on_c, 3, 84, 104
7, 459945, Note_on_c, 3, 85, 0
7, 459960, Note_on_c, 3, 85, 98
7, 459975, Note_on_c, 3, 84, 0
7, 459990, Note_on_c, 3, 84, 107
7, 460005, Note_on_c, 3, 85, 0
7, 460020, Note_on_c, 3, 85, 111
7, 460035, Note_on_c, 3, 84, 0
7, 460050, Note_on_c, 3, 84, 102
7, 460065, Note_on_c, 3, 85, 0
7, 460080, Note_on_c, 3, 86, 106
7, 460095, Note_on_c, 3, 84, 0
7, 460110, Note_on_c, 3, 85, 106
7, 460125, Note_on_c, 3, 86, 0
7, 460140, Note_on_c, 3, 86, 103
7, 460155, Note_on_c, 3, 85, 0
7, 460170, Note_on_c, 3, 85, 96
7, 460185, Note_on_c, 3, 86, 0
7, 460200, Note_on_c, 3, 86, 99
7, 460215, Note_on_c, 3, 85, 0
7, 460230, Note_on_c, 3, 85, 103
7, 460245, Note_on_c, 3, 86, 0
7, 460260, Note_on_c, 3, 86, 107
7, 460275, Note_on_c, 3, 85, 0
7, 460290, Note_on_c, 3, 85, 99
7, 460305, Note_on_c, 3, 86, 0
7, 460320, Note_on_c, 3, 86, 109
7, 460335, Note_on_c, 3, 85, 0
7, 460350, Note_on_c, 3, 85, 111
7, 460365, Note_on_c, 3, 86, 0
7, 460380, Note_on_c, 3, 86, 91
7, 460395, Note_on_c, 3, 85, 0
7, 460410, Note_on_c, 3, 85, 92
7, 460425, Note_on_c, 3, 86, 0
7, 460440, Note_on_c, 3, 86, 99
7, 460455, Note_on_c, 3, 85, 0
7, 460470, Note_on_c, 3, 85, 93
7, 460485, Note_on_c, 3, 86, 0
7, 460500, Note_on_c, 3, 86, 102
7, 460515, Note_on_c, 3, 85, 0
7, 460530, Note_on_c, 3, 85, 95
7, 460545, Note_on_c, 3, 86, 0
7, 460560, Note_on_c, 3, 88, 96
7, 460575, Note_on_c, 3, 85, 0
7, 460590, Note_on_c, 3, 86, 109
7, 460605, Note_on_c, 3, 88, 0
7, 460620, Note_on_c, 3, 88, 96
7, 460635, Note_on_c, 3, 86, 0
7, 460650, Note_on_c, 3, 86, 107
7, 460665, Note_on_c, 3, 88, 0
7, 460680, Note_on_c, 3, 88, 96
7, 460695, Note_on_c, 3, 86, 0
7, 460710, Note_on_c, 3, 86, 104
7, 460725, Note_on_c, 3, 88, 0
7, 460740, Note_on_c, 3, 88, 99
7, 460755, Note_on_c, 3, 86, 0
7, 460770, Note_on_c, 3, 86, 106
7, 460785, Note_on_c, 3, 88, 0
7, 460800, Note_on_c, 3, 88, 109
7, 460815, Note_on_c, 3, 86, 0
7, 460830, Note_on_c, 3, 86, 101
7, 460845, Note_on_c, 3, 88, 0
7, 460860, Note_on_c, 3, 88, 108
7, 460875, Note_on_c, 3, 86, 0
7, 460890, Note_on_c, 3, 86, 99
7, 460905, Note_on_c, 3, 88, 0
7, 460920, Note_on_c, 3, 88, 110
7, 460935, Note_on_c, 3, 86, 0
7, 460950, Note_on_c, 3, 86, 91
7, 460965, Note_on_c, 3, 88, 0
7, 460980, Note_on_c, 3, 88, 93
7, 460995, Note_on_c, 3, 86, 0
7, 461010, Note_on_c, 3, 86, 107
7, 461025, Note_on_c, 3, 88, 0
7, 461040, Note_on_c, 3, 89, 100
7, 461055, Note_on_c, 3, 86, 0
7, 461070, Note_on_c, 3, 88, 92
7, 461085, Note_on_c, 3, 89, 0
7, 461100, Note_on_c, 3, 89, 91
7, 461115, Note_on_c, 3, 88, 0
7, 461130, Note_on_c, 3, 88, 106
7, 461145, Note_on_c, 3, 89, 0
7, 461160, Note_on_c, 3, 89, 93
7, 461175, Note_on_c, 3, 88, 0
7, 461190, Note_on_c, 3, 88, 99
7, 461205, Note_on_c, 3, 89, 0
7, 461220, Note_on_c, 3, 89, 105
7, 461235, Note_on_c, 3, 88, 0
7, 461250, Note_on_c, 3, 88, 109
7, 461265, Note_on_c, 3, 89, 0
7, 461280, Note_on_c, 3, 89, 104
7, 461295, Note_on_c, 3, 88, 0
7, 461310, Note_on_c, 3, 88, 105
7, 461325, Note_on_c, 3, 89, 0
7, 461340, Note_on_c, 3, 89, 91
7, 461355, Note_on_c, 3, 88, 0
7, 461370, Note_on_c, 3, 88, 108
7, 461385, Note_on_c, 3, 89, 0
7, 461400, Note_on_c, 3, 89, 95
7, 461415, Note_on_c, 3, 88, 0
7, 461430, Note_on_c, 3, 88, 104
7, 461445, Note_on_c, 3, 89, 0
7, 461460, Note_on_c, 3, 89, 109
7, 461475, Note_on_c, 3, 88, 0
7, 461490, Note_on_c, 3, 88, 106
7, 461505, Note_on_c, 3, 89, 0
7, 461520, Note_on_c, 3, 85, 108
7, 461535, Note_on_c, 3, 88, 0
7, 461550, Note_on_c, 3, 84, 100
7, 461565, Note_on_c, 3, 85, 0
7, 461580, Note_on_c, 3, 85, 92
7, 461595, Note_on_c, 3, 84, 0
7, 461610, Note_on_c, 3, 84, 93
7, 461625, Note_on_c, 3, 85, 0
7, 461640, Note_on_c, 3, 85, 101
7, 461655, Note_on_c, 3, 84, 0
7, 461670, Note_on_c, 3, 84, 94
7, 461685, Note_on_c, 3, 85, 0
7, 461700, Note_on_c, 3, 85, 106
7, 461715, Note_on_c, 3, 84, 0
7, 461730, Note_on_c, 3, 84, 102
7, 461745, Note_on_c, 3, 85, 0
7, 461760, Note_on_c, 3, 85, 92
7, 461775, Note_on_c, 3, 84, 0
7, 461790, Note_on_c, 3, 84, 100
7, 461805, Note_on_c, 3, 85, 0
7, 461820, Note_on_c, 3, 85, 96
7, 461835, Note_on_c, 3, 84, 0
7, 461850, Note_on_c, 3, 84, 106
7, 461865, Note_on_c, 3, 85, 0
7, 461880, Note_on_c, 3, 85, 91
7, 461895, Note_on_c, 3, 84, 0
7, 461910, Note_on_c, 3, 84, 97
7, 461925, Note_on_c, 3, 85, 0
7, 461940, Note_on_c, 3, 85, 100
7, 461955, Note_on_c, 3, 84, 0
7, 461970, Note_on_c, 3, 84, 109
7, 461985, Note_on_c, 3, 85, 0
7, 462000, Note_on_c, 3, 86, 99
7, 462015, Note_on_c, 3, 84, 0
7, 462030, Note_on_c, 3, 85, 99
7, 462045, Note_on_c, 3, 86, 0
7, 462060, Note_on_c, 3, 86, 110
7, 462075, Note_on_c, 3, 85, 0
7, 462090, Note_on_c, 3, 85, 97
7, 462105, Note_on_c, 3, 86, 0
7, 462120, Note_on_c, 3, 86, 98
7, 462135, Note_on_c, 3, 85, 0
7, 462150, Note_on_c, 3, 85, 107
7, 462165, Note_on_c, 3, 86, 0
7, 462180, Note_on_c, 3, 86, 97
7, 462195, Note_on_c, 3, 85, 0
7, 462210, Note_on_c, 3, 85, 98
7, 462225, Note_on_c, 3, 86, 0
7, 462240, Note_on_c, 3, 86, 105
7, 462255, Note_on_c, 3, 85, 0
7, 462270, Note_on_c, 3, 85, 102
7, 462285, Note_on_c, 3, 86, 0
7, 462300, Note_on_c, 3, 86, 102
7, 462315, Note_on_c, 3, 85, 0
7, 462330, Note_on_c, 3, 85, 102
7, 462345, Note_on_c, 3, 86, 0
7, 462360, Note_on_c, 3, 86, 92
7, 462375, Note_on_c, 3, 85, 0
7, 462390, Note_on_c, 3, 85, 98
7, 462405, Note_on_c, 3, 86, 0
7, 462420, Note_on_c, 3, 86, 100
7, 462435, Note_on_c, 3, 85, 0
7, 462450, Note_on_c, 3, 85, 111
7, 462465, Note_on_c, 3, 86, 0
7, 462480, Note_on_c, 3, 88, 97
7, 462495, Note_on_c, 3, 85, 0
7, 462510, Note_on_c, 3, 86, 93
7, 462525, Note_on_c, 3, 88, 0
7, 462540, Note_on_c, 3, 88, 96
7, 462555, Note_on_c, 3, 86, 0
7, 462570, Note_on_c, 3, 86, 105
7, 462585, Note_on_c, 3, 88, 0
7, 462600, Note_on_c, 3, 88, 101
7, 462615, Note_on_c, 3, 86, 0
7, 462630, Note_on_c, 3, 86, 107
7, 462645, Note_on_c, 3, 88, 0
7, 462660, Note_on_c, 3, 88, 109
7, 462675, Note_on_c, 3, 86, 0
7, 462690, Note_on_c, 3, 86, 108
7, 462705, Note_on_c, 3, 88, 0
7, 462720, Note_on_c, 3, 88, 96
7, 462735, Note_on_c, 3, 86, 0
7, 462750, Note_on_c, 3, 86, 97
7, 462765, Note_on_c, 3, 88, 0
7, 462780, Note_on_c, 3, 88, 103
7, 462795, Note_on_c, 3, 86, 0
7, 462810, Note_on_c, 3, 86, 98
7, 462825, Note_on_c, 3, 88, 0
7, 462840, Note_on_c, 3, 88, 94
7, 462855, Note_on_c, 3, 86, 0
7, 462870, Note_on_c, 3, 86, 105
7, 462885, Note_on_c, 3, 88, 0
7, 462900, Note_on_c, 3, 88, 107
7, 462915, Note_on_c, 3, 86, 0
7, 462930, Note_on_c, 3, 86, 94
7, 462945, Note_on_c, 3, 88, 0
7, 462960, Note_on_c, 3, 89, 102
7, 462975, Note_on_c, 3, 86, 0
7, 462990, Note_on_c, 3, 88, 98
7, 463005, Note_on_c, 3, 89, 0
7, 463020, Note_on_c, 3, 89, 111
7, 463035, Note_on_c, 3, 88, 0
7, 463050, Note_on_c, 3, 88, 99
7, 463065, Note_on_c, 3, 89, 0
7, 463080, Note_on_c, 3, 89, 99
7, 463095, Note_on_c, 3, 88, 0
7, 463110, Note_on_c, 3, 88, 107
7, 463125, Note_on_c, 3, 89, 0
7, 463140, Note_on_c, 3, 89, 106
7, 463155, Note_on_c, 3, 88, 0
7, 463170, Note_on_c, 3, 88, 109
7, 463185, Note_on_c, 3, 89, 0
7, 463200, Note_on_c, 3, 89, 104
7, 463215, Note_on_c, 3, 88, 0
7, 463230, Note_on_c, 3, 88, 94
7, 463245, Note_on_c, 3, 89, 0
7, 463260, Note_on_c, 3, 89, 97
7, 463275, Note_on_c, 3, 88, 0
7, 463290, Note_on_c, 3, 88, 91
7, 463305, Note_on_c, 3, 89, 0
7, 463320, Note_on_c, 3, 89, 99
7, 463335, Note_on_c, 3, 88, 0
7, 463350, Note_on_c, 3, 88, 104
7, 463365, Note_on_c, 3, 89, 0
7, 463380, Note_on_c, 3, 89, 97
7, 463395, Note_on_c, 3, 88, 0
7, 463410, Note_on_c, 3, 88, 93
7, 463425, Note_on_c, 3, 89, 0
7, 463440, Note_on_c, 3, 85, 102
7, 463455, Note_on_c, 3, 88, 0
7, 463470, Note_on_c, 3, 84, 109
7, 463485, Note_on_c, 3, 85, 0
7, 463500, Note_on_c, 3, 85, 101
7, 463515, Note_on_c, 3, 84, 0
7, 463530, Note_on_c, 3, 84, 108
7, 463545, Note_on_c, 3, 85, 0
7, 463560, Note_on_c, 3, 85, 100
7, 463575, Note_on_c, 3, 84, 0
7, 463590, Note_on_c, 3, 84, 95
7, 463605, Note_on_c, 3, 85, 0
7, 463620, Note_on_c, 3, 85, 92
7, 463635, Note_on_c, 3, 84, 0
7, 463650, Note_on_c, 3, 84, 99
7, 463665, Note_on_c, 3, 85, 0
7, 463680, Note_on_c, 3, 85, 104
7, 463695, Note_on_c, 3, 84, 0
7, 463710, Note_on_c, 3, 84, 101
7, 463725, Note_on_c, 3, 85, 0
7, 463740, Note_on_c, 3, 85, 111
7, 463755, Note_on_c, 3, 84, 0
7, 463770, Note_on_c, 3, 84, 107
7, 463785, Note_on_c, 3, 85, 0
7, 463800, Note_on_c, 3, 85, 102
7, 463815, Note_on_c, 3, 84, 0
7, 463830, Note_on_c, 3, 84, 109
7, 463845, Note_on_c, 3, 85, 0
7, 463860, Note_on_c, 3, 85, 95
7, 463875, Note_on_c, 3, 84, 0
7, 463890, Note_on_c, 3, 84, 95
7, 463905, Note_on_c, 3, 85, 0
7, 463920, Note_on_c, 3, 86, 92
7, 463935, Note_on_c, 3, 84, 0
7, 463950, Note_on_c, 3, 85, 107
7, 463965, Note_on_c, 3, 86, 0
7, 463980, Note_on_c, 3, 86, 100
7, 463995, Note_on_c, 3, 85, 0
7, 464010, Note_on_c, 3, 85, 100
7, 464025, Note_on_c, 3, 86, 0
7, 464040, Note_on_c, 3, 86, 108
7, 464055, Note_on_c, 3, 85, 0
7, 464070, Note_on_c, 3, 85, 97
7, 464085, Note_on_c, 3, 86, 0
7, 464100, Note_on_c, 3, 86, 106
7, 464115, Note_on_c, 3, 85, 0
7, 464130, Note_on_c, 3, 85, 91
7, 464145, Note_on_c, 3, 86, 0
7, 464160, Note_on_c, 3, 86, 111
7, 464175, Note_on_c, 3, 85, 0
7, 464190, Note_on_c, 3, 85, 106
7, 464205, Note_on_c, 3, 86, 0
7, 464220, Note_on_c, 3, 86, 101
7, 464235, Note_on_c, 3, 85, 0
7, 464250, Note_on_c, 3, 85, 100
7, 464265, Note_on_c, 3, 86, 0
7, 464280, Note_on_c, 3, 86, 99
7, 464295, Note_on_c, 3, 85, 0
7, 464310, Note_on_c, 3, 85, 102
7, 464325, Note_on_c, 3, 86, 0
7, 464340, Note_on_c, 3, 86, 99
7, 464355, Note_on_c, 3, 85, 0
7, 464370, Note_on_c, 3, 85, 109
7, 464385, Note_on_c, 3, 86, 0
7, 464400, Note_on_c, 3, 88, 104
7, 464415, Note_on_c, 3, 85, 0
7, 464430, Note_on_c, 3, 86, 93
7, 464445, Note_on_c, 3, 88, 0
7, 464460, Note_on_c, 3, 88, 94
7, 464475, Note_on_c, 3, 86, 0
7, 464490, Note_on_c, 3, 86, 104
7, 464505, Note_on_c, 3, 88, 0
7, 464520, Note_on_c, 3, 88, 103
7, 464535, Note_on_c, 3, 86, 0
7, 464550, Note_on_c, 3, 86, 104
7, 464565, Note_on_c, 3, 88, 0
7, 464580, Note_on_c, 3, 88, 110
7, 464595, Note_on_c, 3, 86, 0
7, 464610, Note_on_c, 3, 86, 105
7, 464625, Note_on_c, 3, 88, 0
7, 464640, Note_on_c, 3, 88, 104
7, 464655, Note_on_c, 3, 86, 0
7, 464670, Note_on_c, 3, 86, 102
7, 464685, Note_on_c, 3, 88, 0
7, 464700, Note_on_c, 3, 88, 99
7, 464715, Note_on_c, 3, 86, 0
7, 464730, Note_on_c, 3, 86, 105
7, 464745, Note_on_c, 3, 88, 0
7, 464760, Note_on_c, 3, 88, 91
7, 464775, Note_on_c, 3, 86, 0
7, 464790, Note_on_c, 3, 86, 97
7, 464805, Note_on_c, 3, 88, 0
7, 464820, Note_on_c, 3, 88, 94
7, 464835, Note_on_c, 3, 86, 0
7, 464850, Note_on_c, 3, 86, 97
7, 464865, Note_on_c, 3, 88, 0
7, 464880, Note_on_c, 3, 89, 95
7, 464895, Note_on_c, 3, 86, 0
7, 464910, Note_on_c, 3, 88, 100
7, 464925, Note_on_c, 3, 89, 0
7, 464940, Note_on_c, 3, 89, 111
7, 464955, Note_on_c, 3, 88, 0
7, 464970, Note_on_c, 3, 88, 108
7, 464985, Note_on_c, 3, 89, 0
7, 465000, Note_on_c, 3, 89, 92
7, 465015, Note_on_c, 3, 88, 0
7, 465030, Note_on_c, 3, 88, 110
7, 465045, Note_on_c, 3, 89, 0
7, 465060, Note_on_c, 3, 89, 98
7, 465075, Note_on_c, 3, 88, 0
7, 465090, Note_on_c, 3, 88, 91
7, 465105, Note_on_c, 3, 89, 0
7, 465120, Note_on_c, 3, 89, 105
7, 465135, Note_on_c, 3, 88, 0
7, 465150, Note_on_c, 3, 88, 91
7, 465165, Note_on_c, 3, 89, 0
7, 465180, Note_on_c, 3, 89, 92
7, 465195, Note_on_c, 3, 88, 0
7, 465210, Note_on_c, 3, 88, 97
7, 465225, Note_on_c, 3, 89, 0
7, 465240, Note_on_c, 3, 89, 92
7, 465255, Note_on_c, 3, 88, 0
7, 465270, Note_on_c, 3, 88, 106
7, 465285, Note_on_c, 3, 89, 0
7, 465300, Note_on_c, 3, 89, 96
7, 465315, Note_on_c, 3, 88, 0
7, 465330, Note_on_c, 3, 88, 107
7, 465345, Note_on_c, 3, 89, 0
7, 465360, Note_on_c, 3, 85, 91
7, 465375, Note_on_c, 3, 88, 0
7, 465390, Note_on_c, 3, 84, 92
7, 465405, Note_on_c, 3, 85, 0
7, 465420, Note_on_c, 3, 85, 109
7, 465435, Note_on_c, 3, 84, 0
7, 465450, Note_on_c, 3, 84, 96
7, 465465, Note_on_c, 3, 85, 0
7, 465480, Note_on_c, 3, 85, 97
7, 465495, Note_on_c, 3, 84, 0
7, 465510, Note_on_c, 3, 84, 99
7, 465525, Note_on_c, 3, 85, 0
7, 465540, Note_on_c, 3, 85, 92
7, 465555, Note_on_c, 3, 84, 0
7, 465570, Note_on_c, 3, 84, 101
7, 465585, Note_on_c, 3, 85, 0
7, 465600, Note_on_c, 3, 85, 96
7, 465615, Note_on_c, 3, 84, 0
7, 465630, Note_on_c, 3, 84, 96
7, 465645, Note_on_c, 3, 85, 0
7, 465660, Note_on_c, 3, 85, 101
7, 465675, Note_on_c, 3, 84, 0
7, 465690, Note_on_c, 3, 84, 101
7, 465705, Note_on_c, 3, 85, 0
7, 465720, Note_on_c, 3, 85, 95
7, 465735, Note_on_c, 3, 84, 0
7, 465750, Note_on_c, 3, 84, 97
7, 465765, Note_on_c, 3, 85, 0
7, 465780, Note_on_c, 3, 85, 100
7, 465795, Note_on_c, 3, 84, 0
7, 465810, Note_on_c, 3, 84, 109
7, 465825, Note_on_c, 3, 85, 0
7, 465840, Note_on_c, 3, 86, 105
7, 465855, Note_on_c, 3, 84, 0
7, 465870, Note_on_c, 3, 85, 93
7, 465885, Note_on_c, 3, 86, 0
7, 465900, Note_on_c, 3, 86, 100
7, 465915, Note_on_c, 3, 85, 0
7, 465930, Note_on_c, 3, 85, 97
7, 465945, Note_on_c, 3, 86, 0
7, 465960, Note_on_c, 3, 86, 95
7, 465975, Note_on_c, 3, 85, 0
7, 465990, Note_on_c, 3, 85, 110
7, 466005, Note_on_c, 3, 86, 0
7, 466020, Note_on_c, 3, 86, 100
7, 466035, Note_on_c, 3, 85, 0
7, 466050, Note_on_c, 3, 85, 102
7, 466065, Note_on_c, 3, 86, 0
7, 466080, Note_on_c, 3, 86, 93
7, 466095, Note_on_c, 3, 85, 0
7, 466110, Note_on_c, 3, 85, 104
7, 466125, Note_on_c, 3, 86, 0
7, 466140, Note_on_c, 3, 86, 102
7, 466155, Note_on_c, 3, 85, 0
7, 466170, Note_on_c, 3, 85, 105
7, 466185, Note_on_c, 3, 86, 0
7, 466200, Note_on_c, 3, 86, 109
7, 466215, Note_on_c, 3, 85, 0
7, 466230, Note_on_c, 3, 85, 91
7, 466245, Note_on_c, 3, 86, 0
7, 466260, Note_on_c, 3, 86, 110
7, 466275, Note_on_c, 3, 85, 0
7, 466290, Note_on_c, 3, 85, 95
7, 466305, Note_on_c, 3, 86, 0
7, 466320, Note_on_c, 3, 88, 102
7, 466335, Note_on_c, 3, 85, 0
7, 466350, Note_on_c, 3, 86, 96
7, 466365, Note_on_c, 3, 88, 0
7, 466380, Note_on_c, 3, 88, 101
7, 466395, Note_on_c, 3, 86, 0
7, 466410, Note_on_c, 3, 86, 100
7, 466425, Note_on_c, 3, 88, 0
7, 466440, Note_on_c, 3, 88, 104
7, 466455, Note_on_c, 3, 86, 0
7, 466470, Note_on_c, 3, 86, 97
7, 466485, Note_on_c, 3, 88, 0
7, 466500, Note_on_c, 3, 88, 93
7, 466515, Note_on_c, 3, 86, 0
7, 466530, Note_on_c, 3, 86, 92
7, 466545, Note_on_c, 3, 88, 0
7, 466560, Note_on_c, 3, 88, 96
7, 466575, Note_on_c, 3, 86, 0
7, 466590, Note_on_c, 3, 86, 108
7, 466605, Note_on_c, 3, 88, 0
7, 466620, Note_on_c, 3, 88, 111
7, 466635, Note_on_c, 3, 86, 0
7, 466650, Note_on_c, 3, 86, 107
7, 466665, Note_on_c, 3, 88, 0
7, 466680, Note_on_c, 3, 88, 106
7, 466695, Note_on_c, 3, 86, 0
7, 466710, Note_on_c, 3, 86, 91
7, 466725, Note_on_c, 3, 88, 0
7, 466740, Note_on_c, 3, 88, 111
7, 466755, Note_on_c, 3, 86, 0
7, 466770, Note_on_c, 3, 86, 107
7, 466785, Note_on_c, 3, 88, 0
7, 466800, Note_on_c, 3, 89, 102
7, 466815, Note_on_c, 3, 86, 0
7, 466830, Note_on_c, 3, 88, 107
7, 466845, Note_on_c, 3, 89, 0
7, 466860, Note_on_c, 3, 89, 95
7, 466875, Note_on_c, 3, 88, 0
7, 466890, Note_on_c, 3, 88, 100
7, 466905, Note_on_c, 3, 89, 0
7, 466920, Note_on_c, 3, 89, 103
7, 466935, Note_on_c, 3, 88, 0
7, 466950, Note_on_c, 3, 88, 104
7, 466965, Note_on_c, 3, 89, 0
7, 466980, Note_on_c, 3, 89, 94
7, 466995, Note_on_c, 3, 88, 0
7, 467010, Note_on_c, 3, 88, 104
7, 467025, Note_on_c, 3, 89, 0
7, 467040, Note_on_c, 3, 89, 97
7, 467055, Note_on_c, 3, 88, 0
7, 467070, Note_on_c, 3, 88, 111
7, 467085, Note_on_c, 3, 89, 0
7, 467100, Note_on_c, 3, 89, 93
7, 467115, Note_on_c, 3, 88, 0
7, 467130, Note_on_c, 3, 88, 91
7, 467145, Note_on_c, 3, 89, 0
7, 467160, Note_on_c, 3, 89, 98
7, 467175, Note_on_c, 3, 88, 0
7, 467190, Note_on_c, 3, 88, 97
7, 467205, Note_on_c, 3, 89, 0
7, 467220, Note_on_c, 3, 89, 93
7, 467235, Note_on_c, 3, 88, 0
7, 467250, Note_on_c, 3, 88, 99
7, 467265, Note_on_c, 3, 89, 0
7, 467280, Control_c, 3, 11, 127
7, 467291, Note_on_c, 3, 65, 41
7, 467295, Note_on_c, 3, 88, 0
7, 467483, Note_on_c, 3, 65, 0
7, 467783, Note_on_c, 3, 65, 47
7, 467975, Note_on_c, 3, 65, 0
7, 468254, Note_on_c, 3, 65, 35
7, 468446, Note_on_c, 3, 65, 0
7, 468743, Note_on_c, 3, 65, 43
7, 468935, Note_on_c, 3, 65, 0
7, 469213, Note_on_c, 3, 65, 41
7, 469405, Note_on_c, 3, 65, 0
7, 469702, Note_on_c, 3, 65, 47
7, 469894, Note_on_c, 3, 65, 0
7, 470166, Note_on_c, 3, 65, 36
7, 470358, Note_on_c, 3, 65, 0
7, 470642, Note_on_c, 3, 65, 40
7, 470834, Note_on_c, 3, 65, 0
7, 471123, Note_on_c, 3, 65, 34
7, 471315, Note_on_c, 3, 65, 0
7, 471613, Note_on_c, 3, 65, 42
7, 471805, Note_on_c, 3, 65, 0
7, 472092, Note_on_c, 3, 65, 44
7, 472284, Note_on_c, 3, 65, 0
7, 472586, Note_on_c, 3, 65, 31
7, 472778, Note_on_c, 3, 65, 0
7, 473047, Note_on_c, 3, 65, 42
7, 473239, Note_on_c, 3, 65, 0
7, 473536, Note_on_c, 3, 65, 46
7, 473728, Note_on_c, 3, 65, 0
7, 474018, Note_on_c, 3, 65, 44
7, 474210, Note_on_c, 3, 65, 0
7, 474509, Note_on_c, 3, 65, 40
7, 474701, Note_on_c, 3, 65, 0
7, 474973, Note_on_c, 3, 65, 36
7, 475165, Note_on_c, 3, 65, 0
7, 475445, Note_on_c, 3, 65, 45
7, 475637, Note_on_c, 3, 65, 0
7, 475936, Note_on_c, 3, 65, 35
7, 476128, Note_on_c, 3, 65, 0
7, 491160, Control_c, 3, 7, 75
7, 491160, Control_c, 3, 11, 127
7, 494547, Note_on_c, 3, 89, 98
7, 494690, Note_on_c, 3, 89, 0
7, 494780, Note_on_c, 3, 89, 108
7, 494923, Note_on_c, 3, 89, 0
7, 495022, Note_on_c, 3, 89, 100
7, 495082, Note_on_c, 3, 89, 0
7, 495149, Note_on_c, 3, 93, 103
7, 495221, Note_on_c, 3, 93, 0
7, 495266, Note_on_c, 3, 89, 110
7, 495326, Note_on_c, 3, 89, 0
7, 496694, Note_on_c, 3, 89, 109
7, 496766, Note_on_c, 3, 89, 0
7, 496822, Note_on_c, 3, 89, 110
7, 496894, Note_on_c, 3, 89, 0
7, 496943, Note_on_c, 3, 89, 92
7, 497015, Note_on_c, 3, 89, 0
7, 497053, Note_on_c, 3, 93, 91
7, 497125, Note_on_c, 3, 93, 0
7, 497173, Note_on_c, 3, 89, 98
7, 497220, Note_on_c, 3, 89, 0
7, 502941, Note_on_c, 3, 82, 119
7, 503021, Note_on_c, 3, 82, 0
7, 503052, Note_on_c, 3, 87, 112
7, 503132, Note_on_c, 3, 87, 0
7, 503528, Note_on_c, 3, 82, 116
7, 503608, Note_on_c, 3, 82, 0
7, 503653, Note_on_c, 3, 87, 117
7, 503733, Note_on_c, 3, 87, 0
7, 503881, Note_on_c, 3, 90, 106
7, 503961, Note_on_c, 3, 90, 0
7, 522960, Note_on_c, 3, 92, 78
7, 523017, Note_on_c, 3, 92, 0
7, 523066, Note_on_c, 3, 92, 81
7, 523123, Note_on_c, 3, 92, 0
7, 523154, Note_on_c, 3, 91, 90
7, 523211, Note_on_c, 3, 91, 0
7, 523262, Note_on_c, 3, 91, 91
7, 523319, Note_on_c, 3, 91, 0
7, 523366, Note_on_c, 3, 90, 93
7, 523424, Note_on_c, 3, 90, 0
7, 523465, Note_on_c, 3, 90, 87
7, 523537, Note_on_c, 3, 90, 0
7, 525365, Note_on_c, 3, 92, 79
7, 525422, Note_on_c, 3, 92, 0
7, 525476, Note_on_c, 3, 92, 96
7, 525533, Note_on_c, 3, 92, 0
7, 525575, Note_on_c, 3, 91, 93
7, 525632, Note_on_c, 3, 91, 0
7, 525667, Note_on_c, 3, 91, 86
7, 525724, Note_on_c, 3, 91, 0
7, 525767, Note_on_c, 3, 90, 97
7, 525825, Note_on_c, 3, 90, 0
7, 525868, Note_on_c, 3, 90, 97
7, 525940, Note_on_c, 3, 90, 0
7, 527291, Note_on_c, 3, 92, 82
7, 527348, Note_on_c, 3, 92, 0
7, 527402, Note_on_c, 3, 92, 81
7, 527459, Note_on_c, 3, 92, 0
7, 527496, Note_on_c, 3, 91, 97
7, 527552, Note_on_c, 3, 91, 0
7, 527571, Note_on_c, 3, 91, 88
7, 527628, Note_on_c, 3, 91, 0
7, 527676, Note_on_c, 3, 90, 97
7, 527734, Note_on_c, 3, 90, 0
7, 527765, Note_on_c, 3, 90, 89
7, 527885, Note_on_c, 3, 90, 0
7, 529441, Note_on_c, 3, 92, 79
7, 529498, Note_on_c, 3, 92, 0
7, 529542, Note_on_c, 3, 92, 89
7, 529599, Note_on_c, 3, 92, 0
7, 529653, Note_on_c, 3, 91, 96
7, 529710, Note_on_c, 3, 91, 0
7, 529753, Note_on_c, 3, 91, 94
7, 529810, Note_on_c, 3, 91, 0
7, 529825, Note_on_c, 3, 90, 87
7, 529883, Note_on_c, 3, 90, 0
7, 529940, Note_on_c, 3, 90, 85
7, 530060, Note_on_c, 3, 90, 0
7, 531360, Note_on_c, 3, 90, 110
7, 531407, Note_on_c, 3, 90, 0
7, 531616, Note_on_c, 3, 90, 98
7, 531663, Note_on_c, 3, 90, 0
7, 531849, Note_on_c, 3, 90, 105
7, 531896, Note_on_c, 3, 90, 0
7, 532344, Note_on_c, 3, 90, 104
7, 532391, Note_on_c, 3, 90, 0
7, 532578, Note_on_c, 3, 90, 110
7, 532625, Note_on_c, 3, 90, 0
7, 532824, Note_on_c, 3, 90, 107
7, 532871, Note_on_c, 3, 90, 0
7, 533061, Note_on_c, 3, 90, 107
7, 533108, Note_on_c, 3, 90, 0
7, 533283, Note_on_c, 3, 90, 95
7, 533330, Note_on_c, 3, 90, 0
7, 533781, Note_on_c, 3, 90, 93
7, 533828, Note_on_c, 3, 90, 0
7, 534250, Note_on_c, 3, 90, 100
7, 534297, Note_on_c, 3, 90, 0
7, 534483, Note_on_c, 3, 89, 96
7, 534530, Note_on_c, 3, 89, 0
7, 534729, Note_on_c, 3, 90, 101
7, 534776, Note_on_c, 3, 90, 0
7, 535228, Note_on_c, 3, 90, 103
7, 535275, Note_on_c, 3, 90, 0
7, 535684, Note_on_c, 3, 90, 95
7, 535731, Note_on_c, 3, 90, 0
7, 535949, Note_on_c, 3, 87, 115
7, 535968, Note_on_c, 3, 87, 0
7, 535987, Note_on_c, 3, 86, 111
7, 536006, Note_on_c, 3, 86, 0
7, 536026, Note_on_c, 3, 85, 118
7, 536045, Note_on_c, 3, 85, 0
7, 536066, Note_on_c, 3, 84, 114
7, 536085, Note_on_c, 3, 84, 0
7, 536119, Note_on_c, 3, 83, 112
7, 536138, Note_on_c, 3, 83, 0
7, 536174, Note_on_c, 3, 82, 124
7, 536197, Note_on_c, 3, 82, 0
7, 536428, Note_on_c, 3, 82, 113
7, 536447, Note_on_c, 3, 82, 0
7, 536453, Note_on_c, 3, 81, 106
7, 536472, Note_on_c, 3, 81, 0
7, 536507, Note_on_c, 3, 80, 121
7, 536526, Note_on_c, 3, 80, 0
7, 536561, Note_on_c, 3, 79, 124
7, 536580, Note_on_c, 3, 79, 0
7, 536613, Note_on_c, 3, 79, 121
7, 536632, Note_on_c, 3, 79, 0
7, 536659, Note_on_c, 3, 77, 123
7, 536682, Note_on_c, 3, 77, 0
7, 536901, Note_on_c, 3, 81, 106
7, 536920, Note_on_c, 3, 81, 0
7, 536943, Note_on_c, 3, 80, 118
7, 536962, Note_on_c, 3, 80, 0
7, 536993, Note_on_c, 3, 79, 108
7, 537012, Note_on_c, 3, 79, 0
7, 537047, Note_on_c, 3, 78, 112
7, 537066, Note_on_c, 3, 78, 0
7, 537083, Note_on_c, 3, 77, 123
7, 537102, Note_on_c, 3, 77, 0
7, 537146, Note_on_c, 3, 76, 107
7, 537165, Note_on_c, 3, 76, 0
7, 537186, Note_on_c, 3, 75, 110
7, 537205, Note_on_c, 3, 75, 0
7, 537217, Note_on_c, 3, 74, 118
7, 537236, Note_on_c, 3, 74, 0
7, 537282, Note_on_c, 3, 73, 107
7, 537301, Note_on_c, 3, 73, 0
7, 537321, Note_on_c, 3, 72, 110
7, 537340, Note_on_c, 3, 72, 0
7, 537372, Note_on_c, 3, 71, 106
7, 537419, Note_on_c, 3, 71, 0
7, 547441, Note_on_c, 3, 81, 95
7, 547480, Note_on_c, 3, 81, 0
7, 547505, Note_on_c, 3, 83, 86
7, 547530, Note_on_c, 3, 81, 90
7, 547545, Note_on_c, 3, 83, 0
7, 547565, Note_on_c, 3, 83, 93
7, 547570, Note_on_c, 3, 81, 0
7, 547604, Note_on_c, 3, 83, 0
7, 547627, Note_on_c, 3, 81, 92
7, 547662, Note_on_c, 3, 83, 83
7, 547667, Note_on_c, 3, 81, 0
7, 547702, Note_on_c, 3, 83, 0
7, 549375, Note_on_c, 3, 81, 90
7, 549428, Note_on_c, 3, 82, 84
7, 549435, Note_on_c, 3, 81, 0
7, 549488, Note_on_c, 3, 82, 0
7, 549491, Note_on_c, 3, 81, 91
7, 549551, Note_on_c, 3, 81, 0
7, 549551, Note_on_c, 3, 82, 96
7, 549611, Note_on_c, 3, 82, 0
7, 549619, Note_on_c, 3, 81, 83
7, 549679, Note_on_c, 3, 81, 0
7, 549679, Note_on_c, 3, 82, 98
7, 549739, Note_on_c, 3, 82, 0
7, 549746, Note_on_c, 3, 81, 95
7, 549806, Note_on_c, 3, 81, 0
7, 549807, Note_on_c, 3, 82, 88
7, 549842, Note_on_c, 3, 81, 88
7, 549867, Note_on_c, 3, 82, 0
7, 549902, Note_on_c, 3, 81, 0
7, 549918, Note_on_c, 3, 82, 93
7, 549970, Note_on_c, 3, 81, 80
7, 549978, Note_on_c, 3, 82, 0
7, 550030, Note_on_c, 3, 81, 0
7, 550040, Note_on_c, 3, 82, 80
7, 550089, Note_on_c, 3, 81, 82
7, 550100, Note_on_c, 3, 82, 0
7, 550149, Note_on_c, 3, 81, 0
7, 550152, Note_on_c, 3, 82, 78
7, 550212, Note_on_c, 3, 82, 0
7, 550224, Note_on_c, 3, 81, 85
7, 550275, Note_on_c, 3, 82, 84
7, 550284, Note_on_c, 3, 81, 0
7, 550335, Note_on_c, 3, 82, 0
7, 550342, Note_on_c, 3, 81, 96
7, 550402, Note_on_c, 3, 81, 0
7, 550407, Note_on_c, 3, 82, 80
7, 550447, Note_on_c, 3, 81, 85
7, 550467, Note_on_c, 3, 82, 0
7, 550505, Note_on_c, 3, 82, 79
7, 550507, Note_on_c, 3, 81, 0
7, 550565, Note_on_c, 3, 82, 0
7, 550568, Note_on_c, 3, 80, 82
7, 550688, Note_on_c, 3, 80, 0
7, 554774, Note_on_c, 3, 88, 100
7, 554917, Note_on_c, 3, 88, 0
7, 555019, Note_on_c, 3, 88, 103
7, 555162, Note_on_c, 3, 88, 0
7, 555267, Note_on_c, 3, 88, 109
7, 555327, Note_on_c, 3, 88, 0
7, 555386, Note_on_c, 3, 92, 95
7, 555458, Note_on_c, 3, 92, 0
7, 555507, Note_on_c, 3, 88, 111
7, 555567, Note_on_c, 3, 88, 0
7, 556922, Note_on_c, 3, 88, 94
7, 556994, Note_on_c, 3, 88, 0
7, 557064, Note_on_c, 3, 88, 111
7, 557136, Note_on_c, 3, 88, 0
7, 557165, Note_on_c, 3, 88, 105
7, 557237, Note_on_c, 3, 88, 0
7, 557299, Note_on_c, 3, 92, 95
7, 557371, Note_on_c, 3, 92, 0
7, 557424, Note_on_c, 3, 88, 109
7, 557471, Note_on_c, 3, 88, 0
7, 563171, Note_on_c, 3, 81, 111
7, 563231, Note_on_c, 3, 81, 0
7, 563296, Note_on_c, 3, 86, 110
7, 563356, Note_on_c, 3, 86, 0
7, 563781, Note_on_c, 3, 81, 94
7, 563841, Note_on_c, 3, 81, 0
7, 563891, Note_on_c, 3, 86, 106
7, 563951, Note_on_c, 3, 86, 0
7, 564140, Note_on_c, 3, 89, 95
7, 564200, Note_on_c, 3, 89, 0
7, 581291, Note_on_c, 3, 76, 83
7, 581387, Note_on_c, 3, 76, 0
7, 581521, Note_on_c, 3, 75, 88
7, 581617, Note_on_c, 3, 75, 0
7, 581785, Note_on_c, 3, 73, 78
7, 581881, Note_on_c, 3, 73, 0
7, 582011, Note_on_c, 3, 77, 78
7, 582107, Note_on_c, 3, 77, 0
7, 582265, Note_on_c, 3, 79, 88
7, 582361, Note_on_c, 3, 79, 0
7, 583686, Note_on_c, 3, 76, 79
7, 583782, Note_on_c, 3, 76, 0
7, 583945, Note_on_c, 3, 75, 78
7, 584041, Note_on_c, 3, 75, 0
7, 584188, Note_on_c, 3, 73, 93
7, 584284, Note_on_c, 3, 73, 0
7, 584411, Note_on_c, 3, 77, 82
7, 584507, Note_on_c, 3, 77, 0
7, 584654, Note_on_c, 3, 79, 81
7, 584750, Note_on_c, 3, 79, 0
7, 597124, Note_on_c, 3, 86, 86
7, 597844, Note_on_c, 3, 86, 0
7, 598090, Note_on_c, 3, 86, 90
7, 598810, Note_on_c, 3, 86, 0
7, 599042, Note_on_c, 3, 86, 89
7, 599762, Note_on_c, 3, 86, 0
7, 600024, Note_on_c, 3, 86, 86
7, 600264, Note_on_c, 3, 86, 0
7, 600506, Note_on_c, 3, 84, 97
7, 600649, Note_on_c, 3, 84, 0
7, 600735, Note_on_c, 3, 82, 90
7, 600878, Note_on_c, 3, 82, 0
7, 600988, Note_on_c, 3, 80, 78
7, 601131, Note_on_c, 3, 80, 0
7, 601213, Note_on_c, 3, 84, 84
7, 601356, Note_on_c, 3, 84, 0
7, 601442, Note_on_c, 3, 86, 108
7, 601514, Note_on_c, 3, 86, 0
7, 605178, Note_on_c, 3, 88, 110
7, 605418, Note_on_c, 3, 88, 0
7, 605661, Note_on_c, 3, 86, 95
7, 605901, Note_on_c, 3, 86, 0
7, 606123, Note_on_c, 3, 85, 98
7, 606363, Note_on_c, 3, 85, 0
7, 606626, Note_on_c, 3, 84, 109
7, 606866, Note_on_c, 3, 84, 0
7, 607097, Note_on_c, 3, 83, 99
7, 607337, Note_on_c, 3, 83, 0
7, 607571, Note_on_c, 3, 84, 100
7, 607811, Note_on_c, 3, 84, 0
7, 608053, Note_on_c, 3, 83, 106
7, 608293, Note_on_c, 3, 83, 0
7, 608537, Note_on_c, 3, 82, 109
7, 608777, Note_on_c, 3, 82, 0
7, 609003, Note_on_c, 3, 81, 105
7, 609243, Note_on_c, 3, 81, 0
7, 609488, Note_on_c, 3, 80, 108
7, 609728, Note_on_c, 3, 80, 0
7, 609964, Note_on_c, 3, 79, 111
7, 610204, Note_on_c, 3, 79, 0
7, 610441, Note_on_c, 3, 78, 102
7, 610681, Note_on_c, 3, 78, 0
7, 610942, Note_on_c, 3, 79, 111
7, 611182, Note_on_c, 3, 79, 0
7, 611420, Note_on_c, 3, 75, 111
7, 611660, Note_on_c, 3, 75, 0
7, 611888, Note_on_c, 3, 76, 107
7, 612128, Note_on_c, 3, 76, 0
7, 612382, Note_on_c, 3, 74, 93
7, 612622, Note_on_c, 3, 74, 0
7, 612857, Note_on_c, 3, 75, 111
7, 613097, Note_on_c, 3, 75, 0
7, 613337, Note_on_c, 3, 70, 94
7, 613577, Note_on_c, 3, 70, 0
7, 618366, Note_on_c, 3, 80, 99
7, 618426, Note_on_c, 3, 80, 0
7, 618441, Note_on_c, 3, 83, 99
7, 618484, Note_on_c, 3, 88, 111
7, 618501, Note_on_c, 3, 83, 0
7, 618544, Note_on_c, 3, 88, 0
7, 618557, Note_on_c, 3, 91, 93
7, 618613, Note_on_c, 3, 94, 91
7, 618617, Note_on_c, 3, 91, 0
7, 618733, Note_on_c, 3, 94, 0
7, 618864, Note_on_c, 3, 83, 95
7, 618984, Note_on_c, 3, 83, 0
7, 619102, Note_on_c, 3, 89, 95
7, 619182, Note_on_c, 3, 89, 0
7, 619244, Note_on_c, 3, 84, 108
7, 619324, Note_on_c, 3, 84, 0
7, 619418, Note_on_c, 3, 89, 102
7, 619498, Note_on_c, 3, 89, 0
7, 619563, Note_on_c, 3, 76, 95
7, 619803, Note_on_c, 3, 76, 0
7, 620302, Note_on_c, 3, 81, 100
7, 620362, Note_on_c, 3, 81, 0
7, 620362, Note_on_c, 3, 85, 103
7, 620408, Note_on_c, 3, 89, 108
7, 620422, Note_on_c, 3, 85, 0
7, 620468, Note_on_c, 3, 89, 0
7, 620469, Note_on_c, 3, 90, 96
7, 620520, Note_on_c, 3, 94, 92
7, 620529, Note_on_c, 3, 90, 0
7, 620640, Note_on_c, 3, 94, 0
7, 620766, Note_on_c, 3, 83, 93
7, 620886, Note_on_c, 3, 83, 0
7, 621005, Note_on_c, 3, 89, 99
7, 621085, Note_on_c, 3, 89, 0
7, 621164, Note_on_c, 3, 84, 109
7, 621244, Note_on_c, 3, 84, 0
7, 621342, Note_on_c, 3, 89, 93
7, 621422, Note_on_c, 3, 89, 0
7, 621482, Note_on_c, 3, 76, 101
7, 621722, Note_on_c, 3, 76, 0
7, 622200, Note_on_c, 3, 81, 111
7, 622260, Note_on_c, 3, 81, 0
7, 622284, Note_on_c, 3, 85, 106
7, 622331, Note_on_c, 3, 89, 108
7, 622344, Note_on_c, 3, 85, 0
7, 622381, Note_on_c, 3, 90, 102
7, 622391, Note_on_c, 3, 89, 0
7, 622441, Note_on_c, 3, 90, 0
7, 622465, Note_on_c, 3, 94, 96
7, 622585, Note_on_c, 3, 94, 0
7, 622698, Note_on_c, 3, 83, 104
7, 622818, Note_on_c, 3, 83, 0
7, 622927, Note_on_c, 3, 89, 95
7, 623007, Note_on_c, 3, 89, 0
7, 623106, Note_on_c, 3, 84, 98
7, 623186, Note_on_c, 3, 84, 0
7, 623246, Note_on_c, 3, 89, 106
7, 623326, Note_on_c, 3, 89, 0
7, 623411, Note_on_c, 3, 76, 98
7, 623651, Note_on_c, 3, 76, 0
7, 623657, Note_on_c, 3, 83, 106
7, 623895, Note_on_c, 3, 89, 101
7, 623897, Note_on_c, 3, 83, 0
7, 624049, Note_on_c, 3, 84, 111
7, 624054, Note_on_c, 3, 89, 0
7, 624209, Note_on_c, 3, 84, 0
7, 624212, Note_on_c, 3, 89, 97
7, 624372, Note_on_c, 3, 89, 0
7, 624378, Note_on_c, 3, 76, 95
7, 624618, Note_on_c, 3, 76, 0
7, 625102, Note_on_c, 3, 81, 92
7, 625159, Note_on_c, 3, 85, 109
7, 625162, Note_on_c, 3, 81, 0
7, 625219, Note_on_c, 3, 85, 0
7, 625226, Note_on_c, 3, 89, 102
7, 625285, Note_on_c, 3, 90, 91
7, 625286, Note_on_c, 3, 89, 0
7, 625320, Note_on_c, 3, 94, 91
7, 625345, Note_on_c, 3, 90, 0
7, 625440, Note_on_c, 3, 94, 0
7, 625574, Note_on_c, 3, 83, 94
7, 625694, Note_on_c, 3, 83, 0
7, 625814, Note_on_c, 3, 89, 92
7, 625894, Note_on_c, 3, 89, 0
7, 625974, Note_on_c, 3, 84, 96
7, 626054, Note_on_c, 3, 84, 0
7, 626122, Note_on_c, 3, 89, 98
7, 626202, Note_on_c, 3, 89, 0
7, 626307, Note_on_c, 3, 76, 93
7, 626527, Note_on_c, 3, 80, 105
7, 626547, Note_on_c, 3, 76, 0
7, 626585, Note_on_c, 3, 83, 99
7, 626587, Note_on_c, 3, 80, 0
7, 626645, Note_on_c, 3, 83, 0
7, 626662, Note_on_c, 3, 89, 93
7, 626712, Note_on_c, 3, 91, 103
7, 626722, Note_on_c, 3, 89, 0
7, 626772, Note_on_c, 3, 91, 0
7, 626782, Note_on_c, 3, 94, 108
7, 626902, Note_on_c, 3, 94, 0
7, 627021, Note_on_c, 3, 83, 107
7, 627141, Note_on_c, 3, 83, 0
7, 627262, Note_on_c, 3, 89, 91
7, 627342, Note_on_c, 3, 89, 0
7, 627421, Note_on_c, 3, 84, 103
7, 627501, Note_on_c, 3, 84, 0
7, 627588, Note_on_c, 3, 89, 93
7, 627668, Note_on_c, 3, 89, 0
7, 627723, Note_on_c, 3, 76, 96
7, 627843, Note_on_c, 3, 76, 0
7, 636025, Note_on_c, 3, 76, 86
7, 636085, Note_on_c, 3, 76, 0
7, 636241, Note_on_c, 3, 76, 82
7, 636301, Note_on_c, 3, 76, 0
7, 637092, Note_on_c, 3, 76, 81
7, 637152, Note_on_c, 3, 76, 0
7, 637332, Note_on_c, 3, 76, 96
7, 637392, Note_on_c, 3, 76, 0
7, 638180, Note_on_c, 3, 76, 85
7, 638240, Note_on_c, 3, 76, 0
7, 638402, Note_on_c, 3, 76, 88
7, 638462, Note_on_c, 3, 76, 0
7, 639264, Note_on_c, 3, 76, 98
7, 639324, Note_on_c, 3, 76, 0
7, 639967, Note_on_c, 3, 79, 98
7, 640027, Note_on_c, 3, 79, 0
7, 640086, Note_on_c, 3, 79, 105
7, 640146, Note_on_c, 3, 79, 0
7, 641184, Note_on_c, 3, 74, 95
7, 641244, Note_on_c, 3, 74, 0
7, 641305, Note_on_c, 3, 74, 107
7, 641365, Note_on_c, 3, 74, 0
7, 641420, Note_on_c, 3, 79, 92
7, 641480, Note_on_c, 3, 79, 0
7, 645382, Note_on_c, 3, 77, 96
7, 645442, Note_on_c, 3, 77, 0
7, 645484, Note_on_c, 3, 82, 96
7, 645544, Note_on_c, 3, 82, 0
7, 646697, Note_on_c, 3, 77, 94
7, 646757, Note_on_c, 3, 77, 0
7, 646820, Note_on_c, 3, 82, 99
7, 646880, Note_on_c, 3, 82, 0
7, 647296, Note_on_c, 3, 77, 111
7, 647356, Note_on_c, 3, 77, 0
7, 647406, Note_on_c, 3, 77, 108
7, 647466, Note_on_c, 3, 77, 0
7, 647535, Note_on_c, 3, 82, 110
7, 647595, Note_on_c, 3, 82, 0
7, 648000, Note_on_c, 3, 77, 93
7, 648060, Note_on_c, 3, 77, 0
7, 648134, Note_on_c, 3, 82, 101
7, 648194, Note_on_c, 3, 82, 0
7, 648379, Note_on_c, 3, 85, 95
7, 648439, Note_on_c, 3, 85, 0
7, 648857, Note_on_c, 3, 77, 110
7, 648917, Note_on_c, 3, 77, 0
7, 648977, Note_on_c, 3, 77, 104
7, 649037, Note_on_c, 3, 77, 0
7, 649095, Note_on_c, 3, 82, 110
7, 649155, Note_on_c, 3, 82, 0
7, 649337, Note_on_c, 3, 85, 92
7, 649457, Note_on_c, 3, 85, 0
7, 649800, Note_on_c, 3, 77, 109
7, 649860, Note_on_c, 3, 77, 0
7, 649942, Note_on_c, 3, 82, 93
7, 650002, Note_on_c, 3, 82, 0
7, 650421, Note_on_c, 3, 77, 105
7, 650481, Note_on_c, 3, 77, 0
7, 650520, Note_on_c, 3, 77, 108
7, 650580, Note_on_c, 3, 77, 0
7, 650640, Note_on_c, 3, 82, 96
7, 650700, Note_on_c, 3, 82, 0
7, 650906, Note_on_c, 3, 85, 110
7, 651026, Note_on_c, 3, 85, 0
7, 651378, Note_on_c, 3, 77, 92
7, 651438, Note_on_c, 3, 77, 0
7, 651496, Note_on_c, 3, 77, 105
7, 651556, Note_on_c, 3, 77, 0
7, 651619, Note_on_c, 3, 82, 108
7, 651679, Note_on_c, 3, 82, 0
7, 651863, Note_on_c, 3, 85, 100
7, 651983, Note_on_c, 3, 85, 0
7, 652094, Note_on_c, 3, 77, 105
7, 652154, Note_on_c, 3, 77, 0
7, 652207, Note_on_c, 3, 77, 92
7, 652267, Note_on_c, 3, 77, 0
7, 652321, Note_on_c, 3, 82, 97
7, 652381, Note_on_c, 3, 82, 0
7, 652573, Note_on_c, 3, 85, 93
7, 652693, Note_on_c, 3, 85, 0
7, 653053, Note_on_c, 3, 77, 104
7, 653113, Note_on_c, 3, 77, 0
7, 653178, Note_on_c, 3, 77, 108
7, 653238, Note_on_c, 3, 77, 0
7, 653287, Note_on_c, 3, 82, 103
7, 653347, Note_on_c, 3, 82, 0
7, 653527, Note_on_c, 3, 85, 105
7, 653647, Note_on_c, 3, 85, 0
7, 653781, Note_on_c, 3, 77, 104
7, 653841, Note_on_c, 3, 77, 0
7, 653885, Note_on_c, 3, 77, 100
7, 653945, Note_on_c, 3, 77, 0
7, 654014, Note_on_c, 3, 82, 108
7, 654074, Note_on_c, 3, 82, 0
7, 654245, Note_on_c, 3, 85, 99
7, 654365, Note_on_c, 3, 85, 0
7, 654728, Note_on_c, 3, 77, 98
7, 654788, Note_on_c, 3, 77, 0
7, 654856, Note_on_c, 3, 77, 104
7, 654916, Note_on_c, 3, 77, 0
7, 654976, Note_on_c, 3, 82, 108
7, 655036, Note_on_c, 3, 82, 0
7, 655088, Note_on_c, 3, 85, 94
7, 655208, Note_on_c, 3, 85, 0
7, 655324, Note_on_c, 3, 90, 123
7, 655384, Note_on_c, 3, 90, 0
7, 655384, End_track
8, 0, Start_track
8, 0, Title_t, "Clarinetti I"
8, 0, MIDI_port, 0
8, 0, Program_c, 3, 71
8, 6, Note_on_c, 3, 82, 52
8, 13, Note_on_c, 3, 78, 54
8, 243, Note_on_c, 3, 76, 43
8, 244, Note_on_c, 3, 82, 0
8, 249, Note_on_c, 3, 73, 47
8, 251, Note_on_c, 3, 78, 0
8, 483, Note_on_c, 3, 76, 0
8, 487, Note_on_c, 3, 78, 51
8, 489, Note_on_c, 3, 73, 0
8, 503, Note_on_c, 3, 82, 53
8, 727, Note_on_c, 3, 78, 0
8, 737, Note_on_c, 3, 76, 43
8, 738, Note_on_c, 3, 73, 55
8, 743, Note_on_c, 3, 82, 0
8, 977, Note_on_c, 3, 76, 0
8, 978, Note_on_c, 3, 73, 0
8, 985, Note_on_c, 3, 82, 43
8, 986, Note_on_c, 3, 78, 44
8, 1211, Note_on_c, 3, 73, 55
8, 1214, Note_on_c, 3, 76, 43
8, 1225, Note_on_c, 3, 82, 0
8, 1226, Note_on_c, 3, 78, 0
8, 1447, Note_on_c, 3, 82, 40
8, 1451, Note_on_c, 3, 73, 0
8, 1454, Note_on_c, 3, 76, 0
8, 1455, Note_on_c, 3, 78, 48
8, 1681, Note_on_c, 3, 76, 39
8, 1687, Note_on_c, 3, 82, 0
8, 1695, Note_on_c, 3, 78, 0
8, 1708, Note_on_c, 3, 73, 56
8, 1921, Note_on_c, 3, 76, 0
8, 1923, Note_on_c, 3, 82, 47
8, 1945, Note_on_c, 3, 78, 42
8, 1948, Note_on_c, 3, 73, 0
8, 2163, Note_on_c, 3, 82, 0
8, 2164, Note_on_c, 3, 76, 55
8, 2173, Note_on_c, 3, 73, 51
8, 2185, Note_on_c, 3, 78, 0
8, 2404, Note_on_c, 3, 76, 0
8, 2410, Note_on_c, 3, 78, 44
8, 2413, Note_on_c, 3, 73, 0
8, 2415, Note_on_c, 3, 82, 45
8, 2650, Note_on_c, 3, 78, 0
8, 2654, Note_on_c, 3, 76, 45
8, 2655, Note_on_c, 3, 82, 0
8, 2657, Note_on_c, 3, 73, 44
8, 2894, Note_on_c, 3, 76, 0
8, 2897, Note_on_c, 3, 73, 0
8, 3369, Note_on_c, 3, 78, 56
8, 3378, Note_on_c, 3, 82, 46
8, 3604, Note_on_c, 3, 73, 57
8, 3609, Note_on_c, 3, 78, 0
8, 3618, Note_on_c, 3, 82, 0
8, 3626, Note_on_c, 3, 76, 57
8, 3844, Note_on_c, 3, 73, 0
8, 3850, Note_on_c, 3, 78, 52
8, 3857, Note_on_c, 3, 82, 46
8, 3866, Note_on_c, 3, 76, 0
8, 4090, Note_on_c, 3, 78, 0
8, 4096, Note_on_c, 3, 73, 41
8, 4097, Note_on_c, 3, 82, 0
8, 4099, Note_on_c, 3, 76, 56
8, 4336, Note_on_c, 3, 73, 0
8, 4339, Note_on_c, 3, 76, 0
8, 4339, Note_on_c, 3, 78, 58
8, 4348, Note_on_c, 3, 82, 56
8, 4566, Note_on_c, 3, 73, 48
8, 4566, Note_on_c, 3, 76, 51
8, 4579, Note_on_c, 3, 78, 0
8, 4588, Note_on_c, 3, 82, 0
8, 4806, Note_on_c, 3, 73, 0
8, 4806, Note_on_c, 3, 76, 0
8, 4808, Note_on_c, 3, 78, 55
8, 4816, Note_on_c, 3, 82, 51
8, 5048, Note_on_c, 3, 78, 0
8, 5054, Note_on_c, 3, 76, 46
8, 5056, Note_on_c, 3, 82, 0
8, 5067, Note_on_c, 3, 73, 57
8, 5294, Note_on_c, 3, 76, 0
8, 5298, Note_on_c, 3, 78, 42
8, 5301, Note_on_c, 3, 82, 51
8, 5307, Note_on_c, 3, 73, 0
8, 5520, Note_on_c, 3, 73, 53
8, 5533, Note_on_c, 3, 76, 41
8, 5538, Note_on_c, 3, 78, 0
8, 5541, Note_on_c, 3, 82, 0
8, 5760, Note_on_c, 3, 73, 0
8, 5773, Note_on_c, 3, 76, 0
8, 5773, Note_on_c, 3, 78, 54
8, 5777, Note_on_c, 3, 82, 50
8, 6013, Note_on_c, 3, 78, 0
8, 6017, Note_on_c, 3, 82, 0
8, 6023, Note_on_c, 3, 76, 46
8, 6026, Note_on_c, 3, 73, 52
8, 6241, Note_on_c, 3, 82, 57
8, 6247, Note_on_c, 3, 78, 46
8, 6263, Note_on_c, 3, 76, 0
8, 6266, Note_on_c, 3, 73, 0
8, 6481, Note_on_c, 3, 82, 0
8, 6487, Note_on_c, 3, 78, 0
8, 6488, Note_on_c, 3, 73, 49
8, 6501, Note_on_c, 3, 76, 59
8, 6720, Note_on_c, 3, 78, 47
8, 6728, Note_on_c, 3, 73, 0
8, 6741, Note_on_c, 3, 76, 0
8, 6744, Note_on_c, 3, 82, 43
8, 6960, Note_on_c, 3, 78, 0
8, 6965, Note_on_c, 3, 73, 42
8, 6976, Note_on_c, 3, 76, 47
8, 6984, Note_on_c, 3, 82, 0
8, 7205, Note_on_c, 3, 73, 0
8, 7213, Note_on_c, 3, 78, 48
8, 7216, Note_on_c, 3, 76, 0
8, 7217, Note_on_c, 3, 82, 46
8, 7453, Note_on_c, 3, 78, 0
8, 7457, Note_on_c, 3, 82, 0
8, 10560, Control_c, 3, 11, 127
8, 10562, Note_on_c, 3, 69, 68
8, 10570, Note_on_c, 3, 65, 85
8, 10590, Control_c, 3, 11, 126
8, 10620, Control_c, 3, 11, 125
8, 10650, Control_c, 3, 11, 124
8, 10681, Control_c, 3, 11, 123
8, 10711, Control_c, 3, 11, 122
8, 10741, Control_c, 3, 11, 121
8, 10772, Control_c, 3, 11, 120
8, 10802, Control_c, 3, 11, 119
8, 10832, Control_c, 3, 11, 118
8, 10863, Control_c, 3, 11, 117
8, 10893, Control_c, 3, 11, 116
8, 10923, Control_c, 3, 11, 115
8, 10954, Control_c, 3, 11, 114
8, 10984, Control_c, 3, 11, 113
8, 11014, Control_c, 3, 11, 112
8, 11045, Control_c, 3, 11, 111
8, 11075, Control_c, 3, 11, 110
8, 11105, Control_c, 3, 11, 109
8, 11136, Control_c, 3, 11, 108
8, 11166, Control_c, 3, 11, 107
8, 11196, Control_c, 3, 11, 106
8, 11227, Control_c, 3, 11, 105
8, 11257, Control_c, 3, 11, 104
8, 11287, Control_c, 3, 11, 103
8, 11317, Control_c, 3, 11, 102
8, 11348, Control_c, 3, 11, 101
8, 11378, Control_c, 3, 11, 100
8, 11408, Control_c, 3, 11, 99
8, 11439, Control_c, 3, 11, 98
8, 11469, Control_c, 3, 11, 97
8, 11499, Control_c, 3, 11, 96
8, 11530, Control_c, 3, 11, 95
8, 11560, Control_c, 3, 11, 94
8, 11590, Control_c, 3, 11, 93
8, 11621, Control_c, 3, 11, 92
8, 11651, Control_c, 3, 11, 91
8, 11681, Control_c, 3, 11, 90
8, 11712, Control_c, 3, 11, 89
8, 11742, Control_c, 3, 11, 88
8, 11772, Control_c, 3, 11, 87
8, 11803, Control_c, 3, 11, 86
8, 11833, Control_c, 3, 11, 85
8, 11863, Control_c, 3, 11, 84
8, 11894, Control_c, 3, 11, 83
8, 11924, Control_c, 3, 11, 82
8, 11954, Control_c, 3, 11, 81
8, 11985, Control_c, 3, 11, 80
8, 12015, Control_c, 3, 11, 79
8, 12045, Control_c, 3, 11, 78
8, 12075, Control_c, 3, 11, 77
8, 12105, Control_c, 3, 11, 76
8, 12136, Control_c, 3, 11, 75
8, 12166, Control_c, 3, 11, 74
8, 12196, Control_c, 3, 11, 73
8, 12227, Control_c, 3, 11, 72
8, 12257, Control_c, 3, 11, 71
8, 12287, Control_c, 3, 11, 70
8, 12318, Control_c, 3, 11, 69
8, 12348, Control_c, 3, 11, 68
8, 12378, Control_c, 3, 11, 67
8, 12409, Control_c, 3, 11, 66
8, 12439, Control_c, 3, 11, 65
8, 12469, Control_c, 3, 11, 64
8, 12500, Control_c, 3, 11, 63
8, 12530, Control_c, 3, 11, 62
8, 12560, Control_c, 3, 11, 61
8, 12591, Control_c, 3, 11, 60
8, 12621, Control_c, 3, 11, 59
8, 12651, Control_c, 3, 11, 58
8, 12682, Control_c, 3, 11, 57
8, 12712, Control_c, 3, 11, 56
8, 12742, Control_c, 3, 11, 55
8, 12772, Control_c, 3, 11, 54
8, 12803, Control_c, 3, 11, 53
8, 12833, Control_c, 3, 11, 52
8, 12863, Control_c, 3, 11, 51
8, 12894, Control_c, 3, 11, 50
8, 12924, Control_c, 3, 11, 49
8, 12954, Control_c, 3, 11, 48
8, 12985, Control_c, 3, 11, 47
8, 13015, Control_c, 3, 11, 46
8, 13045, Control_c, 3, 11, 45
8, 13076, Control_c, 3, 11, 44
8, 13106, Control_c, 3, 11, 43
8, 13136, Control_c, 3, 11, 42
8, 13167, Control_c, 3, 11, 41
8, 13197, Control_c, 3, 11, 40
8, 13227, Control_c, 3, 11, 39
8, 13258, Control_c, 3, 11, 38
8, 13288, Control_c, 3, 11, 37
8, 13318, Control_c, 3, 11, 36
8, 13349, Control_c, 3, 11, 35
8, 13379, Control_c, 3, 11, 34
8, 13409, Control_c, 3, 11, 33
8, 13682, Note_on_c, 3, 69, 0
8, 13690, Note_on_c, 3, 65, 0
8, 15383, Note_on_c, 3, 65, 84
8, 16822, Note_on_c, 3, 53, 68
8, 17063, Note_on_c, 3, 65, 0
8, 18735, Note_on_c, 3, 56, 69
8, 18742, Note_on_c, 3, 53, 0
8, 19599, Note_on_c, 3, 56, 0
8, 19682, Note_on_c, 3, 69, 83
8, 19705, Note_on_c, 3, 65, 69
8, 22418, Note_on_c, 3, 69, 0
8, 22441, Note_on_c, 3, 65, 0
8, 22568, Note_on_c, 3, 73, 42
8, 22578, Note_on_c, 3, 62, 39
8, 23864, Note_on_c, 3, 73, 0
8, 23874, Note_on_c, 3, 62, 0
8, 24003, Note_on_c, 3, 69, 43
8, 24012, Note_on_c, 3, 61, 34
8, 25299, Note_on_c, 3, 69, 0
8, 25308, Note_on_c, 3, 61, 0
8, 25445, Note_on_c, 3, 73, 39
8, 25448, Note_on_c, 3, 62, 42
8, 26405, Note_on_c, 3, 73, 0
8, 26408, Note_on_c, 3, 62, 0
8, 26408, Note_on_c, 3, 67, 30
8, 26428, Note_on_c, 3, 59, 40
8, 26894, Note_on_c, 3, 58, 30
8, 26908, Note_on_c, 3, 59, 0
8, 27368, Note_on_c, 3, 67, 0
8, 27369, Note_on_c, 3, 62, 45
8, 27374, Note_on_c, 3, 58, 0
8, 27386, Note_on_c, 3, 56, 48
8, 28329, Note_on_c, 3, 62, 0
8, 28346, Note_on_c, 3, 56, 0
8, 70085, Note_on_c, 3, 70, 50
8, 70105, Note_on_c, 3, 58, 51
8, 70805, Note_on_c, 3, 70, 0
8, 70807, Note_on_c, 3, 59, 41
8, 70825, Note_on_c, 3, 58, 0
8, 70826, Note_on_c, 3, 71, 46
8, 71286, Note_on_c, 3, 70, 41
8, 71287, Note_on_c, 3, 59, 0
8, 71299, Note_on_c, 3, 58, 56
8, 71306, Note_on_c, 3, 71, 0
8, 71765, Note_on_c, 3, 60, 41
8, 71766, Note_on_c, 3, 70, 0
8, 71767, Note_on_c, 3, 72, 54
8, 71779, Note_on_c, 3, 58, 0
8, 72485, Note_on_c, 3, 60, 0
8, 72487, Note_on_c, 3, 72, 0
8, 74413, Note_on_c, 3, 70, 49
8, 74428, Note_on_c, 3, 58, 52
8, 75132, Note_on_c, 3, 71, 46
8, 75133, Note_on_c, 3, 70, 0
8, 75134, Note_on_c, 3, 59, 43
8, 75148, Note_on_c, 3, 58, 0
8, 75612, Note_on_c, 3, 71, 0
8, 75614, Note_on_c, 3, 59, 0
8, 75615, Note_on_c, 3, 70, 41
8, 75623, Note_on_c, 3, 58, 42
8, 76089, Note_on_c, 3, 60, 59
8, 76095, Note_on_c, 3, 70, 0
8, 76096, Note_on_c, 3, 72, 50
8, 76103, Note_on_c, 3, 58, 0
8, 76809, Note_on_c, 3, 60, 0
8, 76816, Note_on_c, 3, 72, 0
8, 77286, Note_on_c, 3, 58, 42
8, 77300, Note_on_c, 3, 70, 54
8, 77981, Note_on_c, 3, 58, 0
8, 77987, Note_on_c, 3, 70, 0
8, 78000, Note_on_c, 3, 58, 59
8, 78006, Note_on_c, 3, 70, 45
8, 78480, Note_on_c, 3, 58, 0
8, 78486, Note_on_c, 3, 70, 0
8, 78486, Note_on_c, 3, 71, 47
8, 78490, Note_on_c, 3, 59, 54
8, 78966, Note_on_c, 3, 71, 0
8, 78967, Note_on_c, 3, 58, 43
8, 78970, Note_on_c, 3, 59, 0
8, 78976, Note_on_c, 3, 70, 46
8, 79447, Note_on_c, 3, 58, 0
8, 79456, Note_on_c, 3, 70, 0
8, 79457, Note_on_c, 3, 60, 40
8, 79468, Note_on_c, 3, 72, 55
8, 80168, Note_on_c, 3, 58, 50
8, 80177, Note_on_c, 3, 60, 0
8, 80177, Note_on_c, 3, 70, 48
8, 80188, Note_on_c, 3, 72, 0
8, 80867, Note_on_c, 3, 70, 0
8, 80873, Note_on_c, 3, 58, 0
8, 80886, Note_on_c, 3, 70, 58
8, 80892, Note_on_c, 3, 58, 43
8, 81363, Note_on_c, 3, 59, 48
8, 81366, Note_on_c, 3, 70, 0
8, 81372, Note_on_c, 3, 58, 0
8, 81372, Note_on_c, 3, 71, 56
8, 81843, Note_on_c, 3, 59, 0
8, 81852, Note_on_c, 3, 71, 0
8, 81862, Note_on_c, 3, 70, 44
8, 81867, Note_on_c, 3, 58, 57
8, 82332, Note_on_c, 3, 60, 42
8, 82340, Note_on_c, 3, 72, 46
8, 82342, Note_on_c, 3, 70, 0
8, 82347, Note_on_c, 3, 58, 0
8, 83052, Note_on_c, 3, 60, 0
8, 83060, Note_on_c, 3, 72, 0
8, 112817, Note_on_c, 3, 70, 93
8, 112879, Note_on_c, 3, 68, 40
8, 112907, Note_on_c, 3, 70, 0
8, 112927, Note_on_c, 3, 70, 44
8, 112968, Note_on_c, 3, 68, 0
8, 112987, Note_on_c, 3, 68, 39
8, 113017, Note_on_c, 3, 70, 0
8, 113047, Note_on_c, 3, 70, 42
8, 113077, Note_on_c, 3, 68, 0
8, 113100, Note_on_c, 3, 68, 40
8, 113137, Note_on_c, 3, 70, 0
8, 113184, Note_on_c, 3, 70, 43
8, 113190, Note_on_c, 3, 68, 0
8, 113237, Note_on_c, 3, 68, 46
8, 113274, Note_on_c, 3, 70, 0
8, 113307, Note_on_c, 3, 70, 57
8, 113327, Note_on_c, 3, 68, 0
8, 113364, Note_on_c, 3, 68, 51
8, 113392, Note_on_c, 3, 70, 0
8, 113412, Note_on_c, 3, 70, 53
8, 113454, Note_on_c, 3, 68, 0
8, 113482, Note_on_c, 3, 68, 58
8, 113502, Note_on_c, 3, 70, 0
8, 113536, Note_on_c, 3, 70, 58
8, 113560, Note_on_c, 3, 68, 0
8, 113580, Note_on_c, 3, 68, 58
8, 113626, Note_on_c, 3, 70, 0
8, 113667, Note_on_c, 3, 70, 52
8, 113670, Note_on_c, 3, 68, 0
8, 113713, Note_on_c, 3, 68, 44
8, 113757, Note_on_c, 3, 70, 0
8, 113778, Note_on_c, 3, 70, 54
8, 113803, Note_on_c, 3, 68, 0
8, 113824, Note_on_c, 3, 68, 53
8, 113868, Note_on_c, 3, 70, 0
8, 113893, Note_on_c, 3, 70, 40
8, 113914, Note_on_c, 3, 68, 0
8, 113942, Note_on_c, 3, 68, 53
8, 113983, Note_on_c, 3, 70, 0
8, 114006, Note_on_c, 3, 70, 58
8, 114032, Note_on_c, 3, 68, 0
8, 114067, Note_on_c, 3, 68, 44
8, 114096, Note_on_c, 3, 70, 0
8, 114145, Note_on_c, 3, 70, 56
8, 114157, Note_on_c, 3, 68, 0
8, 114193, Note_on_c, 3, 68, 40
8, 114232, Note_on_c, 3, 70, 0
8, 114251, Note_on_c, 3, 70, 55
8, 114283, Note_on_c, 3, 68, 0
8, 114322, Note_on_c, 3, 68, 40
8, 114341, Note_on_c, 3, 70, 0
8, 114368, Note_on_c, 3, 70, 37
8, 114412, Note_on_c, 3, 68, 0
8, 114439, Note_on_c, 3, 68, 51
8, 114458, Note_on_c, 3, 70, 0
8, 114492, Note_on_c, 3, 70, 31
8, 114529, Note_on_c, 3, 68, 0
8, 114556, Note_on_c, 3, 68, 37
8, 114582, Note_on_c, 3, 70, 0
8, 114605, Note_on_c, 3, 70, 30
8, 114646, Note_on_c, 3, 68, 0
8, 114666, Note_on_c, 3, 68, 42
8, 114695, Note_on_c, 3, 70, 0
8, 114745, Note_on_c, 3, 70, 31
8, 114756, Note_on_c, 3, 68, 0
8, 114985, Note_on_c, 3, 70, 0
8, 127188, Control_c, 3, 7, 127
8, 127681, Note_on_c, 3, 79, 53
8, 127707, Note_on_c, 3, 68, 42
8, 128161, Note_on_c, 3, 79, 0
8, 128176, Note_on_c, 3, 63, 44
8, 128176, Note_on_c, 3, 74, 54
8, 128187, Note_on_c, 3, 68, 0
8, 128416, Note_on_c, 3, 63, 0
8, 128416, Note_on_c, 3, 74, 0
8, 128428, Note_on_c, 3, 66, 57
8, 128429, Note_on_c, 3, 77, 45
8, 128646, Note_on_c, 3, 64, 55
8, 128646, Note_on_c, 3, 75, 41
8, 128668, Note_on_c, 3, 66, 0
8, 128669, Note_on_c, 3, 77, 0
8, 128883, Note_on_c, 3, 74, 54
8, 128886, Note_on_c, 3, 64, 0
8, 128886, Note_on_c, 3, 75, 0
8, 128909, Note_on_c, 3, 63, 51
8, 129123, Note_on_c, 3, 74, 0
8, 129136, Note_on_c, 3, 72, 42
8, 129136, Note_on_c, 3, 61, 42
8, 129149, Note_on_c, 3, 63, 0
8, 129616, Note_on_c, 3, 72, 0
8, 129616, Note_on_c, 3, 61, 0
8, 129624, Note_on_c, 3, 68, 52
8, 129626, Note_on_c, 3, 79, 56
8, 130082, Note_on_c, 3, 66, 48
8, 130099, Note_on_c, 3, 77, 41
8, 130104, Note_on_c, 3, 68, 0
8, 130106, Note_on_c, 3, 79, 0
8, 130321, Note_on_c, 3, 74, 49
8, 130322, Note_on_c, 3, 66, 0
8, 130339, Note_on_c, 3, 77, 0
8, 130344, Note_on_c, 3, 63, 39
8, 130561, Note_on_c, 3, 74, 0
8, 130575, Note_on_c, 3, 79, 49
8, 130584, Note_on_c, 3, 63, 0
8, 130587, Note_on_c, 3, 68, 48
8, 131050, Note_on_c, 3, 63, 49
8, 131054, Note_on_c, 3, 74, 55
8, 131055, Note_on_c, 3, 79, 0
8, 131067, Note_on_c, 3, 68, 0
8, 131281, Note_on_c, 3, 77, 52
8, 131290, Note_on_c, 3, 63, 0
8, 131290, Note_on_c, 3, 66, 40
8, 131294, Note_on_c, 3, 74, 0
8, 131521, Note_on_c, 3, 77, 0
8, 131530, Note_on_c, 3, 66, 0
8, 131534, Note_on_c, 3, 64, 50
8, 131541, Note_on_c, 3, 75, 44
8, 131764, Note_on_c, 3, 63, 57
8, 131774, Note_on_c, 3, 64, 0
8, 131781, Note_on_c, 3, 75, 0
8, 131787, Note_on_c, 3, 74, 57
8, 132004, Note_on_c, 3, 63, 0
8, 132009, Note_on_c, 3, 72, 42
8, 132015, Note_on_c, 3, 61, 55
8, 132027, Note_on_c, 3, 74, 0
8, 132489, Note_on_c, 3, 72, 0
8, 132495, Note_on_c, 3, 61, 0
8, 132498, Note_on_c, 3, 77, 42
8, 132502, Note_on_c, 3, 66, 46
8, 132732, Note_on_c, 3, 72, 43
8, 132738, Note_on_c, 3, 77, 0
8, 132742, Note_on_c, 3, 66, 0
8, 132748, Note_on_c, 3, 61, 43
8, 132961, Note_on_c, 3, 79, 48
8, 132972, Note_on_c, 3, 72, 0
8, 132977, Note_on_c, 3, 68, 48
8, 132988, Note_on_c, 3, 61, 0
8, 133423, Note_on_c, 3, 79, 0
8, 133436, Note_on_c, 3, 68, 0
8, 133442, Note_on_c, 3, 79, 49
8, 133455, Note_on_c, 3, 68, 49
8, 133922, Note_on_c, 3, 79, 0
8, 133928, Note_on_c, 3, 74, 52
8, 133930, Note_on_c, 3, 63, 59
8, 133935, Note_on_c, 3, 68, 0
8, 134168, Note_on_c, 3, 74, 0
8, 134169, Note_on_c, 3, 66, 56
8, 134170, Note_on_c, 3, 63, 0
8, 134170, Note_on_c, 3, 77, 53
8, 134409, Note_on_c, 3, 66, 0
8, 134410, Note_on_c, 3, 77, 0
8, 134419, Note_on_c, 3, 75, 57
8, 134424, Note_on_c, 3, 64, 44
8, 134654, Note_on_c, 3, 74, 39
8, 134659, Note_on_c, 3, 75, 0
8, 134663, Note_on_c, 3, 63, 46
8, 134664, Note_on_c, 3, 64, 0
8, 134885, Note_on_c, 3, 72, 51
8, 134887, Note_on_c, 3, 61, 59
8, 134894, Note_on_c, 3, 74, 0
8, 134903, Note_on_c, 3, 63, 0
8, 135365, Note_on_c, 3, 72, 0
8, 135367, Note_on_c, 3, 61, 0
8, 135812, Control_c, 3, 7, 75
8, 169440, Control_c, 3, 11, 64
8, 172326, Note_on_c, 3, 77, 82
8, 172331, Control_c, 3, 11, 65
8, 172334, Note_on_c, 3, 65, 71
8, 172347, Control_c, 3, 11, 66
8, 172362, Control_c, 3, 11, 67
8, 172378, Control_c, 3, 11, 68
8, 172394, Control_c, 3, 11, 69
8, 172409, Control_c, 3, 11, 70
8, 172425, Control_c, 3, 11, 71
8, 172440, Control_c, 3, 11, 72
8, 172456, Control_c, 3, 11, 73
8, 172471, Control_c, 3, 11, 74
8, 172487, Control_c, 3, 11, 75
8, 172503, Control_c, 3, 11, 76
8, 172518, Control_c, 3, 11, 77
8, 172534, Control_c, 3, 11, 78
8, 172550, Control_c, 3, 11, 79
8, 172565, Control_c, 3, 11, 80
8, 172581, Control_c, 3, 11, 81
8, 172597, Control_c, 3, 11, 82
8, 172612, Control_c, 3, 11, 83
8, 172628, Control_c, 3, 11, 84
8, 172643, Control_c, 3, 11, 85
8, 172659, Control_c, 3, 11, 86
8, 172675, Control_c, 3, 11, 87
8, 172690, Control_c, 3, 11, 88
8, 172706, Control_c, 3, 11, 89
8, 172722, Control_c, 3, 11, 90
8, 172737, Control_c, 3, 11, 91
8, 172753, Control_c, 3, 11, 92
8, 172769, Control_c, 3, 11, 93
8, 172784, Control_c, 3, 11, 94
8, 172800, Control_c, 3, 11, 95
8, 172803, Note_on_c, 3, 76, 66
8, 172806, Note_on_c, 3, 77, 0
8, 172814, Note_on_c, 3, 65, 0
8, 172815, Control_c, 3, 11, 96
8, 172827, Note_on_c, 3, 64, 81
8, 172831, Control_c, 3, 11, 97
8, 172846, Control_c, 3, 11, 98
8, 172862, Control_c, 3, 11, 99
8, 172878, Control_c, 3, 11, 100
8, 172893, Control_c, 3, 11, 101
8, 172909, Control_c, 3, 11, 102
8, 172925, Control_c, 3, 11, 103
8, 172940, Control_c, 3, 11, 104
8, 172956, Control_c, 3, 11, 105
8, 172972, Control_c, 3, 11, 106
8, 172987, Control_c, 3, 11, 107
8, 173003, Control_c, 3, 11, 108
8, 173018, Control_c, 3, 11, 109
8, 173034, Control_c, 3, 11, 110
8, 173050, Control_c, 3, 11, 111
8, 173065, Control_c, 3, 11, 112
8, 173081, Control_c, 3, 11, 113
8, 173097, Control_c, 3, 11, 114
8, 173112, Control_c, 3, 11, 115
8, 173128, Control_c, 3, 11, 116
8, 173144, Control_c, 3, 11, 117
8, 173159, Control_c, 3, 11, 118
8, 173175, Control_c, 3, 11, 119
8, 173190, Control_c, 3, 11, 120
8, 173206, Control_c, 3, 11, 121
8, 173221, Control_c, 3, 11, 122
8, 173237, Control_c, 3, 11, 123
8, 173253, Control_c, 3, 11, 124
8, 173268, Control_c, 3, 11, 125
8, 173280, Note_on_c, 3, 63, 65
8, 173283, Note_on_c, 3, 76, 0
8, 173284, Control_c, 3, 11, 126
8, 173297, Note_on_c, 3, 75, 66
8, 173307, Note_on_c, 3, 64, 0
8, 173760, Note_on_c, 3, 63, 0
8, 173764, Note_on_c, 3, 62, 70
8, 173777, Note_on_c, 3, 75, 0
8, 173781, Note_on_c, 3, 74, 72
8, 174243, Note_on_c, 3, 64, 82
8, 174244, Note_on_c, 3, 62, 0
8, 174253, Note_on_c, 3, 76, 75
8, 174261, Note_on_c, 3, 74, 0
8, 174721, Note_on_c, 3, 75, 84
8, 174723, Note_on_c, 3, 64, 0
8, 174733, Note_on_c, 3, 76, 0
8, 174747, Note_on_c, 3, 63, 75
8, 175105, Note_on_c, 3, 75, 0
8, 175131, Note_on_c, 3, 63, 0
8, 175202, Note_on_c, 3, 75, 69
8, 175210, Note_on_c, 3, 63, 70
8, 175682, Note_on_c, 3, 75, 0
8, 175690, Note_on_c, 3, 63, 0
8, 175695, Note_on_c, 3, 78, 83
8, 175701, Note_on_c, 3, 66, 77
8, 176170, Note_on_c, 3, 77, 76
8, 176175, Note_on_c, 3, 78, 0
8, 176177, Note_on_c, 3, 65, 81
8, 176181, Note_on_c, 3, 66, 0
8, 176643, Note_on_c, 3, 62, 75
8, 176650, Note_on_c, 3, 77, 0
8, 176657, Note_on_c, 3, 65, 0
8, 176668, Note_on_c, 3, 74, 74
8, 176883, Note_on_c, 3, 62, 0
8, 176885, Note_on_c, 3, 75, 74
8, 176906, Note_on_c, 3, 63, 79
8, 176908, Note_on_c, 3, 74, 0
8, 177125, Note_on_c, 3, 75, 0
8, 177126, Note_on_c, 3, 64, 75
8, 177127, Note_on_c, 3, 76, 65
8, 177146, Note_on_c, 3, 63, 0
8, 177606, Note_on_c, 3, 64, 0
8, 177607, Note_on_c, 3, 76, 0
8, 177620, Note_on_c, 3, 62, 69
8, 177621, Note_on_c, 3, 74, 77
8, 177908, Note_on_c, 3, 62, 0
8, 177909, Note_on_c, 3, 74, 0
8, 209301, Note_on_c, 3, 67, 50
8, 209308, Note_on_c, 3, 62, 52
8, 209339, Note_on_c, 3, 67, 0
8, 209346, Note_on_c, 3, 62, 0
8, 209388, Note_on_c, 3, 68, 58
8, 209402, Note_on_c, 3, 63, 47
8, 209426, Note_on_c, 3, 68, 0
8, 209440, Note_on_c, 3, 63, 0
8, 209479, Note_on_c, 3, 64, 59
8, 209492, Note_on_c, 3, 69, 66
8, 209517, Note_on_c, 3, 64, 0
8, 209530, Note_on_c, 3, 69, 0
8, 209570, Note_on_c, 3, 70, 68
8, 209595, Note_on_c, 3, 65, 66
8, 209608, Note_on_c, 3, 70, 0
8, 209633, Note_on_c, 3, 65, 0
8, 209663, Note_on_c, 3, 66, 68
8, 209667, Note_on_c, 3, 71, 61
8, 209701, Note_on_c, 3, 66, 0
8, 209705, Note_on_c, 3, 71, 0
8, 209773, Note_on_c, 3, 72, 64
8, 209777, Note_on_c, 3, 67, 68
8, 209804, Note_on_c, 3, 72, 0
8, 209808, Note_on_c, 3, 67, 0
8, 209858, Note_on_c, 3, 73, 70
8, 209865, Note_on_c, 3, 68, 76
8, 209890, Note_on_c, 3, 73, 0
8, 209897, Note_on_c, 3, 68, 0
8, 209941, Note_on_c, 3, 74, 83
8, 209946, Note_on_c, 3, 69, 65
8, 209973, Note_on_c, 3, 74, 0
8, 209978, Note_on_c, 3, 69, 0
8, 210000, Note_on_c, 3, 75, 84
8, 210004, Note_on_c, 3, 70, 78
8, 210031, Note_on_c, 3, 75, 0
8, 210035, Note_on_c, 3, 70, 0
8, 210085, Note_on_c, 3, 71, 74
8, 210092, Note_on_c, 3, 76, 90
8, 210117, Note_on_c, 3, 71, 0
8, 210124, Note_on_c, 3, 76, 0
8, 210166, Note_on_c, 3, 77, 82
8, 210178, Note_on_c, 3, 72, 87
8, 210198, Note_on_c, 3, 77, 0
8, 210210, Note_on_c, 3, 72, 0
8, 210253, Note_on_c, 3, 78, 92
8, 210254, Note_on_c, 3, 73, 95
8, 210300, Note_on_c, 3, 78, 0
8, 210301, Note_on_c, 3, 73, 0
8, 216747, Note_on_c, 3, 78, 94
8, 216854, Note_on_c, 3, 78, 0
8, 217935, Note_on_c, 3, 78, 107
8, 218042, Note_on_c, 3, 78, 0
8, 221292, Note_on_c, 3, 78, 94
8, 221399, Note_on_c, 3, 78, 0
8, 222964, Note_on_c, 3, 78, 111
8, 223071, Note_on_c, 3, 78, 0
8, 224181, Note_on_c, 3, 78, 95
8, 224212, Note_on_c, 3, 78, 0
8, 224261, Note_on_c, 3, 79, 96
8, 224293, Note_on_c, 3, 79, 0
8, 224321, Note_on_c, 3, 80, 110
8, 224353, Note_on_c, 3, 80, 0
8, 224414, Note_on_c, 3, 81, 118
8, 224445, Note_on_c, 3, 81, 0
8, 224484, Note_on_c, 3, 82, 127
8, 224516, Note_on_c, 3, 82, 0
8, 224577, Note_on_c, 3, 83, 125
8, 224609, Note_on_c, 3, 83, 0
8, 224659, Note_on_c, 3, 84, 120
8, 224706, Note_on_c, 3, 84, 0
8, 225133, Note_on_c, 3, 78, 94
8, 225133, Note_on_c, 3, 79, 95
8, 225136, Note_on_c, 3, 73, 107
8, 225253, Note_on_c, 3, 78, 0
8, 225253, Note_on_c, 3, 79, 0
8, 225256, Note_on_c, 3, 73, 0
8, 228972, Note_on_c, 3, 61, 96
8, 228982, Note_on_c, 3, 66, 93
8, 229041, Note_on_c, 3, 64, 109
8, 229052, Note_on_c, 3, 61, 0
8, 229060, Note_on_c, 3, 69, 109
8, 229062, Note_on_c, 3, 66, 0
8, 229120, Note_on_c, 3, 64, 0
8, 229133, Note_on_c, 3, 67, 102
8, 229136, Note_on_c, 3, 72, 102
8, 229139, Note_on_c, 3, 69, 0
8, 229213, Note_on_c, 3, 67, 0
8, 229216, Note_on_c, 3, 72, 0
8, 229225, Note_on_c, 3, 70, 98
8, 229227, Note_on_c, 3, 75, 108
8, 229297, Note_on_c, 3, 73, 93
8, 229304, Note_on_c, 3, 78, 108
8, 229305, Note_on_c, 3, 70, 0
8, 229307, Note_on_c, 3, 75, 0
8, 229376, Note_on_c, 3, 73, 0
8, 229383, Note_on_c, 3, 78, 0
8, 229384, Note_on_c, 3, 76, 95
8, 229386, Note_on_c, 3, 81, 95
8, 229445, Note_on_c, 3, 84, 82
8, 229464, Note_on_c, 3, 76, 0
8, 229466, Note_on_c, 3, 81, 0
8, 229505, Note_on_c, 3, 84, 0
8, 229529, Note_on_c, 3, 85, 79
8, 229567, Note_on_c, 3, 84, 88
8, 229589, Note_on_c, 3, 85, 0
8, 229627, Note_on_c, 3, 84, 0
8, 229645, Note_on_c, 3, 85, 98
8, 229702, Note_on_c, 3, 84, 78
8, 229705, Note_on_c, 3, 85, 0
8, 229741, Note_on_c, 3, 85, 96
8, 229762, Note_on_c, 3, 84, 0
8, 229801, Note_on_c, 3, 85, 0
8, 229827, Note_on_c, 3, 84, 93
8, 229863, Note_on_c, 3, 85, 89
8, 229887, Note_on_c, 3, 84, 0
8, 229923, Note_on_c, 3, 85, 0
8, 229925, Note_on_c, 3, 73, 86
8, 229933, Note_on_c, 3, 78, 89
8, 229939, Note_on_c, 3, 79, 95
8, 230045, Note_on_c, 3, 73, 0
8, 230053, Note_on_c, 3, 78, 0
8, 230059, Note_on_c, 3, 79, 0
8, 234008, Note_on_c, 3, 78, 94
8, 234039, Note_on_c, 3, 78, 0
8, 234107, Note_on_c, 3, 79, 101
8, 234139, Note_on_c, 3, 79, 0
8, 234161, Note_on_c, 3, 80, 89
8, 234193, Note_on_c, 3, 80, 0
8, 234246, Note_on_c, 3, 81, 102
8, 234277, Note_on_c, 3, 81, 0
8, 234346, Note_on_c, 3, 82, 118
8, 234378, Note_on_c, 3, 82, 0
8, 234422, Note_on_c, 3, 83, 114
8, 234454, Note_on_c, 3, 83, 0
8, 234508, Note_on_c, 3, 84, 121
8, 234555, Note_on_c, 3, 84, 0
8, 234973, Note_on_c, 3, 79, 84
8, 234974, Note_on_c, 3, 73, 85
8, 234980, Note_on_c, 3, 78, 88
8, 235093, Note_on_c, 3, 79, 0
8, 235094, Note_on_c, 3, 73, 0
8, 235100, Note_on_c, 3, 78, 0
8, 240483, Note_on_c, 3, 78, 95
8, 240485, Note_on_c, 3, 73, 106
8, 240498, Note_on_c, 3, 67, 97
8, 240590, Note_on_c, 3, 78, 0
8, 240592, Note_on_c, 3, 73, 0
8, 240605, Note_on_c, 3, 67, 0
8, 243854, Note_on_c, 3, 78, 103
8, 243961, Note_on_c, 3, 78, 0
8, 245053, Note_on_c, 3, 78, 102
8, 245160, Note_on_c, 3, 78, 0
8, 246737, Note_on_c, 3, 78, 92
8, 246844, Note_on_c, 3, 78, 0
8, 247928, Note_on_c, 3, 78, 109
8, 248035, Note_on_c, 3, 78, 0
8, 248652, Note_on_c, 3, 89, 114
8, 248717, Note_on_c, 3, 87, 122
8, 248720, Note_on_c, 3, 89, 0
8, 248786, Note_on_c, 3, 87, 0
8, 248796, Note_on_c, 3, 85, 109
8, 248864, Note_on_c, 3, 85, 0
8, 248868, Note_on_c, 3, 84, 106
8, 248935, Note_on_c, 3, 82, 122
8, 248936, Note_on_c, 3, 84, 0
8, 249003, Note_on_c, 3, 82, 0
8, 249006, Note_on_c, 3, 80, 114
8, 249072, Note_on_c, 3, 78, 124
8, 249075, Note_on_c, 3, 80, 0
8, 249133, Note_on_c, 3, 77, 111
8, 249140, Note_on_c, 3, 78, 0
8, 249373, Note_on_c, 3, 77, 0
8, 250808, Note_on_c, 3, 89, 106
8, 250876, Note_on_c, 3, 89, 0
8, 250882, Note_on_c, 3, 87, 117
8, 250951, Note_on_c, 3, 87, 0
8, 250956, Note_on_c, 3, 85, 122
8, 251014, Note_on_c, 3, 84, 109
8, 251024, Note_on_c, 3, 85, 0
8, 251082, Note_on_c, 3, 84, 0
8, 251090, Note_on_c, 3, 82, 119
8, 251158, Note_on_c, 3, 82, 0
8, 251166, Note_on_c, 3, 80, 114
8, 251218, Note_on_c, 3, 78, 121
8, 251235, Note_on_c, 3, 80, 0
8, 251286, Note_on_c, 3, 78, 0
8, 253463, Note_on_c, 3, 89, 123
8, 253520, Note_on_c, 3, 87, 117
8, 253531, Note_on_c, 3, 89, 0
8, 253589, Note_on_c, 3, 87, 0
8, 253599, Note_on_c, 3, 85, 117
8, 253667, Note_on_c, 3, 85, 0
8, 253670, Note_on_c, 3, 84, 105
8, 253720, Note_on_c, 3, 82, 121
8, 253738, Note_on_c, 3, 84, 0
8, 253788, Note_on_c, 3, 82, 0
8, 253807, Note_on_c, 3, 80, 109
8, 253876, Note_on_c, 3, 80, 0
8, 253880, Note_on_c, 3, 78, 114
8, 253936, Note_on_c, 3, 77, 104
8, 253948, Note_on_c, 3, 78, 0
8, 254176, Note_on_c, 3, 77, 0
8, 263535, Note_on_c, 3, 78, 122
8, 263615, Note_on_c, 3, 78, 0
8, 263683, Note_on_c, 3, 72, 115
8, 263694, Note_on_c, 3, 73, 111
8, 263763, Note_on_c, 3, 72, 0
8, 263774, Note_on_c, 3, 73, 0
8, 263847, Note_on_c, 3, 70, 111
8, 263852, Note_on_c, 3, 78, 119
8, 263927, Note_on_c, 3, 70, 0
8, 263932, Note_on_c, 3, 78, 0
8, 264025, Note_on_c, 3, 72, 124
8, 264105, Note_on_c, 3, 72, 0
8, 264160, Note_on_c, 3, 75, 120
8, 264166, Note_on_c, 3, 78, 114
8, 264240, Note_on_c, 3, 75, 0
8, 264246, Note_on_c, 3, 78, 0
8, 264331, Note_on_c, 3, 84, 111
8, 264336, Note_on_c, 3, 80, 105
8, 264411, Note_on_c, 3, 84, 0
8, 264416, Note_on_c, 3, 80, 0
8, 277698, Note_on_c, 3, 70, 82
8, 277818, Note_on_c, 3, 70, 0
8, 278176, Note_on_c, 3, 70, 82
8, 278296, Note_on_c, 3, 70, 0
8, 278656, Note_on_c, 3, 70, 82
8, 278776, Note_on_c, 3, 70, 0
8, 279131, Note_on_c, 3, 70, 74
8, 279251, Note_on_c, 3, 70, 0
8, 279627, Note_on_c, 3, 70, 80
8, 279747, Note_on_c, 3, 70, 0
8, 281541, Note_on_c, 3, 70, 70
8, 281661, Note_on_c, 3, 70, 0
8, 282026, Note_on_c, 3, 70, 69
8, 282146, Note_on_c, 3, 70, 0
8, 282490, Note_on_c, 3, 70, 80
8, 282610, Note_on_c, 3, 70, 0
8, 282966, Note_on_c, 3, 70, 80
8, 283086, Note_on_c, 3, 70, 0
8, 283458, Note_on_c, 3, 70, 75
8, 283578, Note_on_c, 3, 70, 0
8, 283921, Note_on_c, 3, 70, 72
8, 284041, Note_on_c, 3, 70, 0
8, 285386, Note_on_c, 3, 70, 75
8, 285506, Note_on_c, 3, 70, 0
8, 285858, Note_on_c, 3, 70, 85
8, 285978, Note_on_c, 3, 70, 0
8, 286320, Note_on_c, 3, 70, 73
8, 286440, Note_on_c, 3, 70, 0
8, 289207, Note_on_c, 3, 62, 68
8, 289245, Note_on_c, 3, 62, 0
8, 289321, Note_on_c, 3, 63, 67
8, 289359, Note_on_c, 3, 63, 0
8, 289417, Note_on_c, 3, 64, 84
8, 289455, Note_on_c, 3, 64, 0
8, 289494, Note_on_c, 3, 65, 69
8, 289532, Note_on_c, 3, 65, 0
8, 289606, Note_on_c, 3, 66, 75
8, 289644, Note_on_c, 3, 66, 0
8, 289708, Note_on_c, 3, 67, 76
8, 289739, Note_on_c, 3, 67, 0
8, 289786, Note_on_c, 3, 68, 65
8, 289818, Note_on_c, 3, 68, 0
8, 289859, Note_on_c, 3, 69, 85
8, 289891, Note_on_c, 3, 69, 0
8, 289927, Note_on_c, 3, 70, 76
8, 289958, Note_on_c, 3, 70, 0
8, 290009, Note_on_c, 3, 71, 70
8, 290041, Note_on_c, 3, 71, 0
8, 290084, Note_on_c, 3, 72, 69
8, 290116, Note_on_c, 3, 72, 0
8, 290188, Note_on_c, 3, 73, 65
8, 290219, Note_on_c, 3, 73, 0
8, 290246, Note_on_c, 3, 74, 80
8, 290278, Note_on_c, 3, 74, 0
8, 290327, Note_on_c, 3, 75, 74
8, 290359, Note_on_c, 3, 75, 0
8, 290413, Note_on_c, 3, 76, 69
8, 290444, Note_on_c, 3, 76, 0
8, 290487, Note_on_c, 3, 77, 69
8, 290519, Note_on_c, 3, 77, 0
8, 290580, Note_on_c, 3, 78, 73
8, 290612, Note_on_c, 3, 78, 0
8, 290663, Note_on_c, 3, 79, 85
8, 290783, Note_on_c, 3, 79, 0
8, 291389, Note_on_c, 3, 78, 94
8, 291496, Note_on_c, 3, 78, 0
8, 292576, Note_on_c, 3, 78, 108
8, 292683, Note_on_c, 3, 78, 0
8, 295942, Note_on_c, 3, 78, 93
8, 296049, Note_on_c, 3, 78, 0
8, 297602, Note_on_c, 3, 78, 92
8, 297709, Note_on_c, 3, 78, 0
8, 298813, Note_on_c, 3, 78, 102
8, 298920, Note_on_c, 3, 78, 0
8, 301451, Note_on_c, 3, 73, 96
8, 301452, Note_on_c, 3, 67, 93
8, 301459, Note_on_c, 3, 78, 98
8, 301558, Note_on_c, 3, 73, 0
8, 301559, Note_on_c, 3, 67, 0
8, 301566, Note_on_c, 3, 78, 0
8, 304813, Note_on_c, 3, 67, 103
8, 304825, Note_on_c, 3, 73, 99
8, 304828, Note_on_c, 3, 78, 106
8, 304920, Note_on_c, 3, 67, 0
8, 304932, Note_on_c, 3, 73, 0
8, 304935, Note_on_c, 3, 78, 0
8, 306005, Note_on_c, 3, 73, 92
8, 306011, Note_on_c, 3, 67, 97
8, 306015, Note_on_c, 3, 78, 109
8, 306112, Note_on_c, 3, 73, 0
8, 306118, Note_on_c, 3, 67, 0
8, 306122, Note_on_c, 3, 78, 0
8, 307685, Note_on_c, 3, 78, 101
8, 307698, Note_on_c, 3, 73, 101
8, 307707, Note_on_c, 3, 67, 109
8, 307792, Note_on_c, 3, 78, 0
8, 307805, Note_on_c, 3, 73, 0
8, 307814, Note_on_c, 3, 67, 0
8, 308883, Note_on_c, 3, 73, 103
8, 308883, Note_on_c, 3, 78, 106
8, 308903, Note_on_c, 3, 67, 111
8, 308990, Note_on_c, 3, 73, 0
8, 308990, Note_on_c, 3, 78, 0
8, 309010, Note_on_c, 3, 67, 0
8, 318013, Note_on_c, 3, 84, 108
8, 318853, Note_on_c, 3, 84, 0
8, 318967, Note_on_c, 3, 84, 108
8, 319327, Note_on_c, 3, 84, 0
8, 319458, Note_on_c, 3, 84, 107
8, 319818, Note_on_c, 3, 84, 0
8, 319925, Note_on_c, 3, 84, 91
8, 320285, Note_on_c, 3, 84, 0
8, 320413, Note_on_c, 3, 84, 105
8, 320773, Note_on_c, 3, 84, 0
8, 320907, Note_on_c, 3, 84, 93
8, 321267, Note_on_c, 3, 84, 0
8, 321363, Note_on_c, 3, 84, 107
8, 322203, Note_on_c, 3, 84, 0
8, 322337, Note_on_c, 3, 84, 107
8, 322697, Note_on_c, 3, 84, 0
8, 322823, Note_on_c, 3, 84, 95
8, 323183, Note_on_c, 3, 84, 0
8, 323286, Note_on_c, 3, 84, 95
8, 323646, Note_on_c, 3, 84, 0
8, 323765, Note_on_c, 3, 84, 93
8, 324125, Note_on_c, 3, 84, 0
8, 340587, Note_on_c, 3, 84, 95
8, 340947, Note_on_c, 3, 84, 0
8, 341046, Note_on_c, 3, 84, 101
8, 341406, Note_on_c, 3, 84, 0
8, 341522, Note_on_c, 3, 84, 102
8, 341882, Note_on_c, 3, 84, 0
8, 342028, Note_on_c, 3, 84, 104
8, 342388, Note_on_c, 3, 84, 0
8, 342494, Note_on_c, 3, 84, 97
8, 342854, Note_on_c, 3, 84, 0
8, 342984, Note_on_c, 3, 84, 104
8, 343344, Note_on_c, 3, 84, 0
8, 343944, Note_on_c, 3, 84, 105
8, 344304, Note_on_c, 3, 84, 0
8, 344400, Note_on_c, 3, 84, 95
8, 344760, Note_on_c, 3, 84, 0
8, 344892, Note_on_c, 3, 84, 91
8, 345252, Note_on_c, 3, 84, 0
8, 345372, Note_on_c, 3, 84, 93
8, 345732, Note_on_c, 3, 84, 0
8, 345859, Note_on_c, 3, 84, 91
8, 346219, Note_on_c, 3, 84, 0
8, 346324, Note_on_c, 3, 84, 100
8, 346684, Note_on_c, 3, 84, 0
8, 346821, Note_on_c, 3, 84, 94
8, 347181, Note_on_c, 3, 84, 0
8, 347292, Note_on_c, 3, 84, 98
8, 347652, Note_on_c, 3, 84, 0
8, 347788, Note_on_c, 3, 84, 95
8, 348628, Note_on_c, 3, 84, 0
8, 348724, Note_on_c, 3, 84, 107
8, 349084, Note_on_c, 3, 84, 0
8, 349202, Note_on_c, 3, 84, 102
8, 349562, Note_on_c, 3, 84, 0
8, 349701, Note_on_c, 3, 84, 100
8, 350061, Note_on_c, 3, 84, 0
8, 350182, Note_on_c, 3, 84, 108
8, 350542, Note_on_c, 3, 84, 0
8, 350667, Note_on_c, 3, 84, 100
8, 351027, Note_on_c, 3, 84, 0
8, 351132, Note_on_c, 3, 84, 93
8, 351492, Note_on_c, 3, 84, 0
8, 383290, Note_on_c, 3, 84, 107
8, 383301, Note_on_c, 3, 76, 106
8, 383530, Note_on_c, 3, 84, 0
8, 383541, Note_on_c, 3, 76, 0
8, 383766, Note_on_c, 3, 84, 111
8, 383783, Note_on_c, 3, 76, 109
8, 384006, Note_on_c, 3, 84, 0
8, 384023, Note_on_c, 3, 76, 0
8, 384240, Note_on_c, 3, 84, 91
8, 384263, Note_on_c, 3, 76, 109
8, 384480, Note_on_c, 3, 84, 0
8, 384503, Note_on_c, 3, 76, 0
8, 384723, Note_on_c, 3, 84, 100
8, 384731, Note_on_c, 3, 76, 91
8, 384963, Note_on_c, 3, 84, 0
8, 384971, Note_on_c, 3, 76, 0
8, 385203, Note_on_c, 3, 76, 104
8, 385212, Note_on_c, 3, 84, 92
8, 385443, Note_on_c, 3, 76, 0
8, 385452, Note_on_c, 3, 84, 0
8, 385701, Note_on_c, 3, 84, 97
8, 385707, Note_on_c, 3, 76, 110
8, 385941, Note_on_c, 3, 84, 0
8, 385947, Note_on_c, 3, 76, 0
8, 409192, Control_c, 3, 7, 127
8, 409816, Note_on_c, 3, 62, 40
8, 409930, Note_on_c, 3, 58, 35
8, 409936, Note_on_c, 3, 62, 0
8, 410050, Note_on_c, 3, 58, 0
8, 410062, Note_on_c, 3, 56, 46
8, 410173, Note_on_c, 3, 59, 40
8, 410182, Note_on_c, 3, 56, 0
8, 411853, Note_on_c, 3, 59, 0
8, 413082, Control_c, 3, 7, 75
8, 438004, Note_on_c, 3, 73, 90
8, 438124, Note_on_c, 3, 73, 0
8, 438139, Note_on_c, 3, 71, 94
8, 438259, Note_on_c, 3, 71, 0
8, 438268, Note_on_c, 3, 70, 78
8, 438371, Note_on_c, 3, 68, 89
8, 438388, Note_on_c, 3, 70, 0
8, 438491, Note_on_c, 3, 68, 0
8, 438493, Note_on_c, 3, 73, 88
8, 438613, Note_on_c, 3, 73, 0
8, 438621, Note_on_c, 3, 71, 88
8, 438741, Note_on_c, 3, 71, 0
8, 438742, Note_on_c, 3, 70, 98
8, 438849, Note_on_c, 3, 68, 83
8, 438862, Note_on_c, 3, 70, 0
8, 438969, Note_on_c, 3, 68, 0
8, 438983, Note_on_c, 3, 73, 95
8, 439090, Note_on_c, 3, 71, 81
8, 439103, Note_on_c, 3, 73, 0
8, 439210, Note_on_c, 3, 71, 0
8, 439225, Note_on_c, 3, 70, 95
8, 439323, Note_on_c, 3, 68, 78
8, 439345, Note_on_c, 3, 70, 0
8, 439443, Note_on_c, 3, 68, 0
8, 439450, Note_on_c, 3, 73, 90
8, 439570, Note_on_c, 3, 73, 0
8, 439588, Note_on_c, 3, 71, 82
8, 439688, Note_on_c, 3, 70, 95
8, 439708, Note_on_c, 3, 71, 0
8, 439808, Note_on_c, 3, 70, 0
8, 439824, Note_on_c, 3, 68, 97
8, 439939, Note_on_c, 3, 73, 91
8, 439944, Note_on_c, 3, 68, 0
8, 440046, Note_on_c, 3, 71, 97
8, 440059, Note_on_c, 3, 73, 0
8, 440166, Note_on_c, 3, 71, 0
8, 440185, Note_on_c, 3, 70, 82
8, 440280, Note_on_c, 3, 68, 83
8, 440305, Note_on_c, 3, 70, 0
8, 440400, Note_on_c, 3, 68, 0
8, 440405, Note_on_c, 3, 73, 80
8, 440525, Note_on_c, 3, 73, 0
8, 440541, Note_on_c, 3, 71, 96
8, 440644, Note_on_c, 3, 70, 93
8, 440661, Note_on_c, 3, 71, 0
8, 440764, Note_on_c, 3, 70, 0
8, 440787, Note_on_c, 3, 68, 81
8, 440892, Note_on_c, 3, 73, 84
8, 440907, Note_on_c, 3, 68, 0
8, 441012, Note_on_c, 3, 73, 0
8, 441024, Note_on_c, 3, 71, 97
8, 441144, Note_on_c, 3, 71, 0
8, 441149, Note_on_c, 3, 70, 78
8, 441269, Note_on_c, 3, 70, 0
8, 441269, Note_on_c, 3, 68, 84
8, 441381, Note_on_c, 3, 73, 92
8, 441389, Note_on_c, 3, 68, 0
8, 441485, Note_on_c, 3, 71, 79
8, 441501, Note_on_c, 3, 73, 0
8, 441605, Note_on_c, 3, 71, 0
8, 441620, Note_on_c, 3, 70, 82
8, 441740, Note_on_c, 3, 70, 0
8, 441743, Note_on_c, 3, 68, 90
8, 441860, Note_on_c, 3, 73, 83
8, 441863, Note_on_c, 3, 68, 0
8, 441975, Note_on_c, 3, 71, 94
8, 441980, Note_on_c, 3, 73, 0
8, 442095, Note_on_c, 3, 71, 0
8, 442096, Note_on_c, 3, 70, 96
8, 442204, Note_on_c, 3, 68, 91
8, 442216, Note_on_c, 3, 70, 0
8, 442324, Note_on_c, 3, 68, 0
8, 442336, Note_on_c, 3, 73, 85
8, 442456, Note_on_c, 3, 73, 0
8, 442464, Note_on_c, 3, 71, 94
8, 442584, Note_on_c, 3, 71, 0
8, 442586, Note_on_c, 3, 70, 98
8, 442706, Note_on_c, 3, 70, 0
8, 442707, Note_on_c, 3, 68, 89
8, 442814, Note_on_c, 3, 73, 93
8, 442827, Note_on_c, 3, 68, 0
8, 442934, Note_on_c, 3, 73, 0
8, 442937, Note_on_c, 3, 71, 93
8, 443053, Note_on_c, 3, 70, 90
8, 443057, Note_on_c, 3, 71, 0
8, 443173, Note_on_c, 3, 70, 0
8, 443184, Note_on_c, 3, 68, 83
8, 443281, Note_on_c, 3, 73, 86
8, 443304, Note_on_c, 3, 68, 0
8, 443401, Note_on_c, 3, 73, 0
8, 443410, Note_on_c, 3, 71, 90
8, 443530, Note_on_c, 3, 71, 0
8, 443548, Note_on_c, 3, 70, 94
8, 443642, Note_on_c, 3, 68, 86
8, 443668, Note_on_c, 3, 70, 0
8, 443762, Note_on_c, 3, 68, 0
8, 448087, Note_on_c, 3, 61, 59
8, 448107, Note_on_c, 3, 57, 57
8, 448183, Note_on_c, 3, 61, 0
8, 448203, Note_on_c, 3, 57, 0
8, 448325, Note_on_c, 3, 61, 40
8, 448332, Note_on_c, 3, 57, 39
8, 448421, Note_on_c, 3, 61, 0
8, 448428, Note_on_c, 3, 57, 0
8, 448561, Note_on_c, 3, 60, 47
8, 448578, Note_on_c, 3, 68, 41
8, 448657, Note_on_c, 3, 60, 0
8, 448674, Note_on_c, 3, 68, 0
8, 449046, Note_on_c, 3, 56, 76
8, 449064, Note_on_c, 3, 64, 69
8, 449286, Note_on_c, 3, 56, 0
8, 449295, Note_on_c, 3, 76, 83
8, 449300, Note_on_c, 3, 68, 70
8, 449304, Note_on_c, 3, 64, 0
8, 449530, Note_on_c, 3, 67, 70
8, 449530, Note_on_c, 3, 71, 81
8, 449535, Note_on_c, 3, 76, 0
8, 449540, Note_on_c, 3, 68, 0
8, 449629, Note_on_c, 3, 67, 0
8, 449629, Note_on_c, 3, 71, 0
8, 449689, Note_on_c, 3, 65, 78
8, 449704, Note_on_c, 3, 64, 70
8, 449789, Note_on_c, 3, 65, 0
8, 449804, Note_on_c, 3, 64, 0
8, 449862, Note_on_c, 3, 66, 80
8, 449865, Note_on_c, 3, 62, 73
8, 449962, Note_on_c, 3, 66, 0
8, 449965, Note_on_c, 3, 62, 0
8, 450024, Note_on_c, 3, 57, 57
8, 450026, Note_on_c, 3, 61, 49
8, 450120, Note_on_c, 3, 57, 0
8, 450122, Note_on_c, 3, 61, 0
8, 450244, Note_on_c, 3, 57, 56
8, 450246, Note_on_c, 3, 61, 47
8, 450340, Note_on_c, 3, 57, 0
8, 450342, Note_on_c, 3, 61, 0
8, 450496, Note_on_c, 3, 68, 39
8, 450508, Note_on_c, 3, 60, 58
8, 450592, Note_on_c, 3, 68, 0
8, 450604, Note_on_c, 3, 60, 0
8, 451943, Note_on_c, 3, 57, 41
8, 451943, Note_on_c, 3, 61, 55
8, 452039, Note_on_c, 3, 57, 0
8, 452039, Note_on_c, 3, 61, 0
8, 452180, Note_on_c, 3, 57, 48
8, 452188, Note_on_c, 3, 61, 40
8, 452276, Note_on_c, 3, 57, 0
8, 452284, Note_on_c, 3, 61, 0
8, 452403, Note_on_c, 3, 60, 39
8, 452427, Note_on_c, 3, 68, 54
8, 452499, Note_on_c, 3, 60, 0
8, 452523, Note_on_c, 3, 68, 0
8, 452887, Note_on_c, 3, 56, 67
8, 452895, Note_on_c, 3, 64, 73
8, 453126, Note_on_c, 3, 76, 83
8, 453127, Note_on_c, 3, 56, 0
8, 453135, Note_on_c, 3, 64, 0
8, 453135, Note_on_c, 3, 68, 79
8, 453365, Note_on_c, 3, 67, 78
8, 453366, Note_on_c, 3, 76, 0
8, 453375, Note_on_c, 3, 68, 0
8, 453378, Note_on_c, 3, 71, 79
8, 453464, Note_on_c, 3, 67, 0
8, 453477, Note_on_c, 3, 71, 0
8, 453522, Note_on_c, 3, 64, 65
8, 453533, Note_on_c, 3, 65, 82
8, 453622, Note_on_c, 3, 64, 0
8, 453633, Note_on_c, 3, 65, 0
8, 453682, Note_on_c, 3, 66, 78
8, 453694, Note_on_c, 3, 62, 69
8, 453782, Note_on_c, 3, 66, 0
8, 453794, Note_on_c, 3, 62, 0
8, 454811, Note_on_c, 3, 64, 80
8, 454826, Note_on_c, 3, 56, 83
8, 455041, Note_on_c, 3, 76, 74
8, 455051, Note_on_c, 3, 64, 0
8, 455053, Note_on_c, 3, 68, 82
8, 455066, Note_on_c, 3, 56, 0
8, 455281, Note_on_c, 3, 76, 0
8, 455291, Note_on_c, 3, 71, 67
8, 455293, Note_on_c, 3, 68, 0
8, 455304, Note_on_c, 3, 67, 66
8, 455390, Note_on_c, 3, 71, 0
8, 455403, Note_on_c, 3, 67, 0
8, 455457, Note_on_c, 3, 65, 68
8, 455467, Note_on_c, 3, 64, 75
8, 455557, Note_on_c, 3, 65, 0
8, 455567, Note_on_c, 3, 64, 0
8, 455603, Note_on_c, 3, 66, 76
8, 455627, Note_on_c, 3, 62, 80
8, 455703, Note_on_c, 3, 66, 0
8, 455727, Note_on_c, 3, 62, 0
8, 457470, Note_on_c, 3, 63, 87
8, 457500, Note_on_c, 3, 63, 0
8, 457500, Note_on_c, 3, 64, 83
8, 457530, Note_on_c, 3, 64, 0
8, 457530, Note_on_c, 3, 66, 93
8, 457560, Note_on_c, 3, 66, 0
8, 457560, Note_on_c, 3, 67, 78
8, 457590, Note_on_c, 3, 67, 0
8, 457590, Note_on_c, 3, 68, 84
8, 457620, Note_on_c, 3, 68, 0
8, 457620, Note_on_c, 3, 69, 87
8, 457650, Note_on_c, 3, 69, 0
8, 457650, Note_on_c, 3, 71, 96
8, 457680, Note_on_c, 3, 71, 0
8, 457680, Note_on_c, 3, 73, 99
8, 457710, Note_on_c, 3, 72, 99
8, 457725, Note_on_c, 3, 73, 0
8, 457740, Note_on_c, 3, 73, 110
8, 457755, Note_on_c, 3, 72, 0
8, 457770, Note_on_c, 3, 72, 97
8, 457785, Note_on_c, 3, 73, 0
8, 457800, Note_on_c, 3, 73, 98
8, 457815, Note_on_c, 3, 72, 0
8, 457830, Note_on_c, 3, 72, 107
8, 457845, Note_on_c, 3, 73, 0
8, 457860, Note_on_c, 3, 73, 97
8, 457875, Note_on_c, 3, 72, 0
8, 457890, Note_on_c, 3, 72, 98
8, 457905, Note_on_c, 3, 73, 0
8, 457920, Note_on_c, 3, 73, 105
8, 457935, Note_on_c, 3, 72, 0
8, 457950, Note_on_c, 3, 72, 102
8, 457965, Note_on_c, 3, 73, 0
8, 457980, Note_on_c, 3, 73, 102
8, 457995, Note_on_c, 3, 72, 0
8, 458010, Note_on_c, 3, 72, 102
8, 458025, Note_on_c, 3, 73, 0
8, 458040, Note_on_c, 3, 73, 92
8, 458055, Note_on_c, 3, 72, 0
8, 458070, Note_on_c, 3, 72, 98
8, 458085, Note_on_c, 3, 73, 0
8, 458100, Note_on_c, 3, 73, 100
8, 458115, Note_on_c, 3, 72, 0
8, 458130, Note_on_c, 3, 72, 111
8, 458145, Note_on_c, 3, 73, 0
8, 458160, Note_on_c, 3, 73, 97
8, 458175, Note_on_c, 3, 72, 0
8, 458190, Note_on_c, 3, 72, 93
8, 458205, Note_on_c, 3, 73, 0
8, 458220, Note_on_c, 3, 73, 96
8, 458235, Note_on_c, 3, 72, 0
8, 458250, Note_on_c, 3, 72, 105
8, 458265, Note_on_c, 3, 73, 0
8, 458280, Note_on_c, 3, 73, 101
8, 458295, Note_on_c, 3, 72, 0
8, 458310, Note_on_c, 3, 72, 107
8, 458325, Note_on_c, 3, 73, 0
8, 458340, Note_on_c, 3, 73, 109
8, 458355, Note_on_c, 3, 72, 0
8, 458370, Note_on_c, 3, 72, 108
8, 458385, Note_on_c, 3, 73, 0
8, 458400, Note_on_c, 3, 73, 96
8, 458415, Note_on_c, 3, 72, 0
8, 458430, Note_on_c, 3, 72, 97
8, 458445, Note_on_c, 3, 73, 0
8, 458460, Note_on_c, 3, 73, 103
8, 458475, Note_on_c, 3, 72, 0
8, 458490, Note_on_c, 3, 72, 98
8, 458505, Note_on_c, 3, 73, 0
8, 458520, Note_on_c, 3, 73, 94
8, 458535, Note_on_c, 3, 72, 0
8, 458550, Note_on_c, 3, 72, 105
8, 458565, Note_on_c, 3, 73, 0
8, 458580, Note_on_c, 3, 73, 107
8, 458595, Note_on_c, 3, 72, 0
8, 458610, Note_on_c, 3, 72, 94
8, 458625, Note_on_c, 3, 73, 0
8, 458640, Note_on_c, 3, 73, 102
8, 458655, Note_on_c, 3, 72, 0
8, 458670, Note_on_c, 3, 72, 98
8, 458685, Note_on_c, 3, 73, 0
8, 458700, Note_on_c, 3, 73, 111
8, 458715, Note_on_c, 3, 72, 0
8, 458730, Note_on_c, 3, 72, 99
8, 458745, Note_on_c, 3, 73, 0
8, 458760, Note_on_c, 3, 73, 99
8, 458775, Note_on_c, 3, 72, 0
8, 458790, Note_on_c, 3, 72, 107
8, 458805, Note_on_c, 3, 73, 0
8, 458820, Note_on_c, 3, 73, 106
8, 458835, Note_on_c, 3, 72, 0
8, 458850, Note_on_c, 3, 72, 109
8, 458865, Note_on_c, 3, 73, 0
8, 458880, Note_on_c, 3, 73, 104
8, 458895, Note_on_c, 3, 72, 0
8, 458910, Note_on_c, 3, 72, 94
8, 458925, Note_on_c, 3, 73, 0
8, 458940, Note_on_c, 3, 73, 97
8, 458955, Note_on_c, 3, 72, 0
8, 458970, Note_on_c, 3, 72, 91
8, 458985, Note_on_c, 3, 73, 0
8, 459000, Note_on_c, 3, 73, 99
8, 459015, Note_on_c, 3, 72, 0
8, 459030, Note_on_c, 3, 72, 104
8, 459045, Note_on_c, 3, 73, 0
8, 459060, Note_on_c, 3, 73, 97
8, 459075, Note_on_c, 3, 72, 0
8, 459090, Note_on_c, 3, 72, 93
8, 459105, Note_on_c, 3, 73, 0
8, 459120, Note_on_c, 3, 73, 102
8, 459135, Note_on_c, 3, 72, 0
8, 459150, Note_on_c, 3, 72, 109
8, 459165, Note_on_c, 3, 73, 0
8, 459180, Note_on_c, 3, 73, 101
8, 459195, Note_on_c, 3, 72, 0
8, 459210, Note_on_c, 3, 72, 108
8, 459225, Note_on_c, 3, 73, 0
8, 459240, Note_on_c, 3, 73, 100
8, 459255, Note_on_c, 3, 72, 0
8, 459270, Note_on_c, 3, 72, 95
8, 459285, Note_on_c, 3, 73, 0
8, 459300, Note_on_c, 3, 73, 92
8, 459315, Note_on_c, 3, 72, 0
8, 459330, Note_on_c, 3, 72, 99
8, 459345, Note_on_c, 3, 73, 0
8, 459360, Note_on_c, 3, 73, 104
8, 459375, Note_on_c, 3, 72, 0
8, 459390, Note_on_c, 3, 72, 101
8, 459405, Note_on_c, 3, 73, 0
8, 459420, Note_on_c, 3, 73, 111
8, 459435, Note_on_c, 3, 72, 0
8, 459450, Note_on_c, 3, 72, 107
8, 459465, Note_on_c, 3, 73, 0
8, 459480, Note_on_c, 3, 73, 102
8, 459495, Note_on_c, 3, 72, 0
8, 459510, Note_on_c, 3, 72, 109
8, 459525, Note_on_c, 3, 73, 0
8, 459540, Note_on_c, 3, 73, 95
8, 459555, Note_on_c, 3, 72, 0
8, 459570, Note_on_c, 3, 72, 95
8, 459585, Note_on_c, 3, 73, 0
8, 459600, Note_on_c, 3, 73, 92
8, 459615, Note_on_c, 3, 72, 0
8, 459630, Note_on_c, 3, 72, 107
8, 459645, Note_on_c, 3, 73, 0
8, 459660, Note_on_c, 3, 73, 100
8, 459675, Note_on_c, 3, 72, 0
8, 459690, Note_on_c, 3, 72, 100
8, 459705, Note_on_c, 3, 73, 0
8, 459720, Note_on_c, 3, 73, 108
8, 459735, Note_on_c, 3, 72, 0
8, 459750, Note_on_c, 3, 72, 97
8, 459765, Note_on_c, 3, 73, 0
8, 459780, Note_on_c, 3, 73, 106
8, 459795, Note_on_c, 3, 72, 0
8, 459810, Note_on_c, 3, 72, 91
8, 459825, Note_on_c, 3, 73, 0
8, 459840, Note_on_c, 3, 73, 111
8, 459855, Note_on_c, 3, 72, 0
8, 459870, Note_on_c, 3, 72, 106
8, 459885, Note_on_c, 3, 73, 0
8, 459900, Note_on_c, 3, 73, 101
8, 459915, Note_on_c, 3, 72, 0
8, 459930, Note_on_c, 3, 72, 100
8, 459945, Note_on_c, 3, 73, 0
8, 459960, Note_on_c, 3, 73, 99
8, 459975, Note_on_c, 3, 72, 0
8, 459990, Note_on_c, 3, 72, 102
8, 460005, Note_on_c, 3, 73, 0
8, 460020, Note_on_c, 3, 73, 99
8, 460035, Note_on_c, 3, 72, 0
8, 460050, Note_on_c, 3, 72, 109
8, 460065, Note_on_c, 3, 73, 0
8, 460080, Note_on_c, 3, 74, 104
8, 460095, Note_on_c, 3, 72, 0
8, 460110, Note_on_c, 3, 73, 93
8, 460125, Note_on_c, 3, 74, 0
8, 460140, Note_on_c, 3, 74, 94
8, 460155, Note_on_c, 3, 73, 0
8, 460170, Note_on_c, 3, 73, 104
8, 460185, Note_on_c, 3, 74, 0
8, 460200, Note_on_c, 3, 74, 103
8, 460215, Note_on_c, 3, 73, 0
8, 460230, Note_on_c, 3, 73, 104
8, 460245, Note_on_c, 3, 74, 0
8, 460260, Note_on_c, 3, 74, 110
8, 460275, Note_on_c, 3, 73, 0
8, 460290, Note_on_c, 3, 73, 105
8, 460305, Note_on_c, 3, 74, 0
8, 460320, Note_on_c, 3, 74, 104
8, 460335, Note_on_c, 3, 73, 0
8, 460350, Note_on_c, 3, 73, 102
8, 460365, Note_on_c, 3, 74, 0
8, 460380, Note_on_c, 3, 74, 99
8, 460395, Note_on_c, 3, 73, 0
8, 460410, Note_on_c, 3, 73, 105
8, 460425, Note_on_c, 3, 74, 0
8, 460440, Note_on_c, 3, 74, 91
8, 460455, Note_on_c, 3, 73, 0
8, 460470, Note_on_c, 3, 73, 97
8, 460485, Note_on_c, 3, 74, 0
8, 460500, Note_on_c, 3, 74, 94
8, 460515, Note_on_c, 3, 73, 0
8, 460530, Note_on_c, 3, 73, 97
8, 460545, Note_on_c, 3, 74, 0
8, 460560, Note_on_c, 3, 76, 95
8, 460575, Note_on_c, 3, 73, 0
8, 460590, Note_on_c, 3, 74, 100
8, 460605, Note_on_c, 3, 76, 0
8, 460620, Note_on_c, 3, 76, 111
8, 460635, Note_on_c, 3, 74, 0
8, 460650, Note_on_c, 3, 74, 108
8, 460665, Note_on_c, 3, 76, 0
8, 460680, Note_on_c, 3, 76, 92
8, 460695, Note_on_c, 3, 74, 0
8, 460710, Note_on_c, 3, 74, 110
8, 460725, Note_on_c, 3, 76, 0
8, 460740, Note_on_c, 3, 76, 98
8, 460755, Note_on_c, 3, 74, 0
8, 460770, Note_on_c, 3, 74, 91
8, 460785, Note_on_c, 3, 76, 0
8, 460800, Note_on_c, 3, 76, 105
8, 460815, Note_on_c, 3, 74, 0
8, 460830, Note_on_c, 3, 74, 91
8, 460845, Note_on_c, 3, 76, 0
8, 460860, Note_on_c, 3, 76, 92
8, 460875, Note_on_c, 3, 74, 0
8, 460890, Note_on_c, 3, 74, 97
8, 460905, Note_on_c, 3, 76, 0
8, 460920, Note_on_c, 3, 76, 92
8, 460935, Note_on_c, 3, 74, 0
8, 460950, Note_on_c, 3, 74, 106
8, 460965, Note_on_c, 3, 76, 0
8, 460980, Note_on_c, 3, 76, 96
8, 460995, Note_on_c, 3, 74, 0
8, 461010, Note_on_c, 3, 74, 107
8, 461025, Note_on_c, 3, 76, 0
8, 461040, Note_on_c, 3, 77, 91
8, 461055, Note_on_c, 3, 74, 0
8, 461070, Note_on_c, 3, 76, 92
8, 461085, Note_on_c, 3, 77, 0
8, 461100, Note_on_c, 3, 77, 109
8, 461115, Note_on_c, 3, 76, 0
8, 461130, Note_on_c, 3, 76, 96
8, 461145, Note_on_c, 3, 77, 0
8, 461160, Note_on_c, 3, 77, 97
8, 461175, Note_on_c, 3, 76, 0
8, 461190, Note_on_c, 3, 76, 99
8, 461205, Note_on_c, 3, 77, 0
8, 461220, Note_on_c, 3, 77, 92
8, 461235, Note_on_c, 3, 76, 0
8, 461250, Note_on_c, 3, 76, 101
8, 461265, Note_on_c, 3, 77, 0
8, 461280, Note_on_c, 3, 77, 96
8, 461295, Note_on_c, 3, 76, 0
8, 461310, Note_on_c, 3, 76, 96
8, 461325, Note_on_c, 3, 77, 0
8, 461340, Note_on_c, 3, 77, 101
8, 461355, Note_on_c, 3, 76, 0
8, 461370, Note_on_c, 3, 76, 101
8, 461385, Note_on_c, 3, 77, 0
8, 461400, Note_on_c, 3, 77, 95
8, 461415, Note_on_c, 3, 76, 0
8, 461430, Note_on_c, 3, 76, 97
8, 461445, Note_on_c, 3, 77, 0
8, 461460, Note_on_c, 3, 77, 100
8, 461475, Note_on_c, 3, 76, 0
8, 461490, Note_on_c, 3, 76, 109
8, 461505, Note_on_c, 3, 77, 0
8, 461520, Note_on_c, 3, 73, 105
8, 461535, Note_on_c, 3, 76, 0
8, 461550, Note_on_c, 3, 72, 93
8, 461565, Note_on_c, 3, 73, 0
8, 461580, Note_on_c, 3, 73, 100
8, 461595, Note_on_c, 3, 72, 0
8, 461610, Note_on_c, 3, 72, 97
8, 461625, Note_on_c, 3, 73, 0
8, 461640, Note_on_c, 3, 73, 95
8, 461655, Note_on_c, 3, 72, 0
8, 461670, Note_on_c, 3, 72, 110
8, 461685, Note_on_c, 3, 73, 0
8, 461700, Note_on_c, 3, 73, 100
8, 461715, Note_on_c, 3, 72, 0
8, 461730, Note_on_c, 3, 72, 102
8, 461745, Note_on_c, 3, 73, 0
8, 461760, Note_on_c, 3, 73, 93
8, 461775, Note_on_c, 3, 72, 0
8, 461790, Note_on_c, 3, 72, 104
8, 461805, Note_on_c, 3, 73, 0
8, 461820, Note_on_c, 3, 73, 102
8, 461835, Note_on_c, 3, 72, 0
8, 461850, Note_on_c, 3, 72, 105
8, 461865, Note_on_c, 3, 73, 0
8, 461880, Note_on_c, 3, 73, 109
8, 461895, Note_on_c, 3, 72, 0
8, 461910, Note_on_c, 3, 72, 91
8, 461925, Note_on_c, 3, 73, 0
8, 461940, Note_on_c, 3, 73, 110
8, 461955, Note_on_c, 3, 72, 0
8, 461970, Note_on_c, 3, 72, 95
8, 461985, Note_on_c, 3, 73, 0
8, 462000, Note_on_c, 3, 74, 102
8, 462015, Note_on_c, 3, 72, 0
8, 462030, Note_on_c, 3, 73, 96
8, 462045, Note_on_c, 3, 74, 0
8, 462060, Note_on_c, 3, 74, 101
8, 462075, Note_on_c, 3, 73, 0
8, 462090, Note_on_c, 3, 73, 100
8, 462105, Note_on_c, 3, 74, 0
8, 462120, Note_on_c, 3, 74, 104
8, 462135, Note_on_c, 3, 73, 0
8, 462150, Note_on_c, 3, 73, 97
8, 462165, Note_on_c, 3, 74, 0
8, 462180, Note_on_c, 3, 74, 93
8, 462195, Note_on_c, 3, 73, 0
8, 462210, Note_on_c, 3, 73, 92
8, 462225, Note_on_c, 3, 74, 0
8, 462240, Note_on_c, 3, 74, 96
8, 462255, Note_on_c, 3, 73, 0
8, 462270, Note_on_c, 3, 73, 108
8, 462285, Note_on_c, 3, 74, 0
8, 462300, Note_on_c, 3, 74, 111
8, 462315, Note_on_c, 3, 73, 0
8, 462330, Note_on_c, 3, 73, 107
8, 462345, Note_on_c, 3, 74, 0
8, 462360, Note_on_c, 3, 74, 106
8, 462375, Note_on_c, 3, 73, 0
8, 462390, Note_on_c, 3, 73, 91
8, 462405, Note_on_c, 3, 74, 0
8, 462420, Note_on_c, 3, 74, 111
8, 462435, Note_on_c, 3, 73, 0
8, 462450, Note_on_c, 3, 73, 107
8, 462465, Note_on_c, 3, 74, 0
8, 462480, Note_on_c, 3, 76, 102
8, 462495, Note_on_c, 3, 73, 0
8, 462510, Note_on_c, 3, 74, 107
8, 462525, Note_on_c, 3, 76, 0
8, 462540, Note_on_c, 3, 76, 95
8, 462555, Note_on_c, 3, 74, 0
8, 462570, Note_on_c, 3, 74, 100
8, 462585, Note_on_c, 3, 76, 0
8, 462600, Note_on_c, 3, 76, 103
8, 462615, Note_on_c, 3, 74, 0
8, 462630, Note_on_c, 3, 74, 104
8, 462645, Note_on_c, 3, 76, 0
8, 462660, Note_on_c, 3, 76, 94
8, 462675, Note_on_c, 3, 74, 0
8, 462690, Note_on_c, 3, 74, 104
8, 462705, Note_on_c, 3, 76, 0
8, 462720, Note_on_c, 3, 76, 97
8, 462735, Note_on_c, 3, 74, 0
8, 462750, Note_on_c, 3, 74, 111
8, 462765, Note_on_c, 3, 76, 0
8, 462780, Note_on_c, 3, 76, 93
8, 462795, Note_on_c, 3, 74, 0
8, 462810, Note_on_c, 3, 74, 91
8, 462825, Note_on_c, 3, 76, 0
8, 462840, Note_on_c, 3, 76, 98
8, 462855, Note_on_c, 3, 74, 0
8, 462870, Note_on_c, 3, 74, 97
8, 462885, Note_on_c, 3, 76, 0
8, 462900, Note_on_c, 3, 76, 93
8, 462915, Note_on_c, 3, 74, 0
8, 462930, Note_on_c, 3, 74, 99
8, 462945, Note_on_c, 3, 76, 0
8, 462960, Note_on_c, 3, 77, 102
8, 462975, Note_on_c, 3, 74, 0
8, 462990, Note_on_c, 3, 76, 108
8, 463005, Note_on_c, 3, 77, 0
8, 463020, Note_on_c, 3, 77, 96
8, 463035, Note_on_c, 3, 76, 0
8, 463050, Note_on_c, 3, 76, 104
8, 463065, Note_on_c, 3, 77, 0
8, 463080, Note_on_c, 3, 77, 102
8, 463095, Note_on_c, 3, 76, 0
8, 463110, Note_on_c, 3, 76, 108
8, 463125, Note_on_c, 3, 77, 0
8, 463140, Note_on_c, 3, 77, 97
8, 463155, Note_on_c, 3, 76, 0
8, 463170, Note_on_c, 3, 76, 101
8, 463185, Note_on_c, 3, 77, 0
8, 463200, Note_on_c, 3, 77, 95
8, 463215, Note_on_c, 3, 76, 0
8, 463230, Note_on_c, 3, 76, 103
8, 463245, Note_on_c, 3, 77, 0
8, 463260, Note_on_c, 3, 77, 105
8, 463275, Note_on_c, 3, 76, 0
8, 463290, Note_on_c, 3, 76, 92
8, 463305, Note_on_c, 3, 77, 0
8, 463320, Note_on_c, 3, 77, 103
8, 463335, Note_on_c, 3, 76, 0
8, 463350, Note_on_c, 3, 76, 107
8, 463365, Note_on_c, 3, 77, 0
8, 463380, Note_on_c, 3, 77, 105
8, 463395, Note_on_c, 3, 76, 0
8, 463410, Note_on_c, 3, 76, 101
8, 463425, Note_on_c, 3, 77, 0
8, 463440, Note_on_c, 3, 73, 97
8, 463455, Note_on_c, 3, 76, 0
8, 463470, Note_on_c, 3, 72, 106
8, 463485, Note_on_c, 3, 73, 0
8, 463500, Note_on_c, 3, 73, 96
8, 463515, Note_on_c, 3, 72, 0
8, 463530, Note_on_c, 3, 72, 98
8, 463545, Note_on_c, 3, 73, 0
8, 463560, Note_on_c, 3, 73, 108
8, 463575, Note_on_c, 3, 72, 0
8, 463590, Note_on_c, 3, 72, 100
8, 463605, Note_on_c, 3, 73, 0
8, 463620, Note_on_c, 3, 73, 103
8, 463635, Note_on_c, 3, 72, 0
8, 463650, Note_on_c, 3, 72, 110
8, 463665, Note_on_c, 3, 73, 0
8, 463680, Note_on_c, 3, 73, 109
8, 463695, Note_on_c, 3, 72, 0
8, 463710, Note_on_c, 3, 72, 110
8, 463725, Note_on_c, 3, 73, 0
8, 463740, Note_on_c, 3, 73, 92
8, 463755, Note_on_c, 3, 72, 0
8, 463770, Note_on_c, 3, 72, 91
8, 463785, Note_on_c, 3, 73, 0
8, 463800, Note_on_c, 3, 73, 98
8, 463815, Note_on_c, 3, 72, 0
8, 463830, Note_on_c, 3, 72, 110
8, 463845, Note_on_c, 3, 73, 0
8, 463860, Note_on_c, 3, 73, 103
8, 463875, Note_on_c, 3, 72, 0
8, 463890, Note_on_c, 3, 72, 107
8, 463905, Note_on_c, 3, 73, 0
8, 463920, Note_on_c, 3, 74, 108
8, 463935, Note_on_c, 3, 72, 0
8, 463950, Note_on_c, 3, 73, 97
8, 463965, Note_on_c, 3, 74, 0
8, 463980, Note_on_c, 3, 74, 91
8, 463995, Note_on_c, 3, 73, 0
8, 464010, Note_on_c, 3, 73, 94
8, 464025, Note_on_c, 3, 74, 0
8, 464040, Note_on_c, 3, 74, 103
8, 464055, Note_on_c, 3, 73, 0
8, 464070, Note_on_c, 3, 73, 104
8, 464085, Note_on_c, 3, 74, 0
8, 464100, Note_on_c, 3, 74, 106
8, 464115, Note_on_c, 3, 73, 0
8, 464130, Note_on_c, 3, 73, 100
8, 464145, Note_on_c, 3, 74, 0
8, 464160, Note_on_c, 3, 74, 92
8, 464175, Note_on_c, 3, 73, 0
8, 464190, Note_on_c, 3, 73, 109
8, 464205, Note_on_c, 3, 74, 0
8, 464220, Note_on_c, 3, 74, 106
8, 464235, Note_on_c, 3, 73, 0
8, 464250, Note_on_c, 3, 73, 99
8, 464265, Note_on_c, 3, 74, 0
8, 464280, Note_on_c, 3, 74, 110
8, 464295, Note_on_c, 3, 73, 0
8, 464310, Note_on_c, 3, 73, 110
8, 464325, Note_on_c, 3, 74, 0
8, 464340, Note_on_c, 3, 74, 95
8, 464355, Note_on_c, 3, 73, 0
8, 464370, Note_on_c, 3, 73, 94
8, 464385, Note_on_c, 3, 74, 0
8, 464400, Note_on_c, 3, 76, 110
8, 464415, Note_on_c, 3, 73, 0
8, 464430, Note_on_c, 3, 74, 101
8, 464445, Note_on_c, 3, 76, 0
8, 464460, Note_on_c, 3, 76, 110
8, 464475, Note_on_c, 3, 74, 0
8, 464490, Note_on_c, 3, 74, 102
8, 464505, Note_on_c, 3, 76, 0
8, 464520, Note_on_c, 3, 76, 92
8, 464535, Note_on_c, 3, 74, 0
8, 464550, Note_on_c, 3, 74, 102
8, 464565, Note_on_c, 3, 76, 0
8, 464580, Note_on_c, 3, 76, 109
8, 464595, Note_on_c, 3, 74, 0
8, 464610, Note_on_c, 3, 74, 107
8, 464625, Note_on_c, 3, 76, 0
8, 464640, Note_on_c, 3, 76, 100
8, 464655, Note_on_c, 3, 74, 0
8, 464670, Note_on_c, 3, 74, 98
8, 464685, Note_on_c, 3, 76, 0
8, 464700, Note_on_c, 3, 76, 110
8, 464715, Note_on_c, 3, 74, 0
8, 464730, Note_on_c, 3, 74, 98
8, 464745, Note_on_c, 3, 76, 0
8, 464760, Note_on_c, 3, 76, 105
8, 464775, Note_on_c, 3, 74, 0
8, 464790, Note_on_c, 3, 74, 104
8, 464805, Note_on_c, 3, 76, 0
8, 464820, Note_on_c, 3, 76, 110
8, 464835, Note_on_c, 3, 74, 0
8, 464850, Note_on_c, 3, 74, 107
8, 464865, Note_on_c, 3, 76, 0
8, 464880, Note_on_c, 3, 77, 107
8, 464895, Note_on_c, 3, 74, 0
8, 464910, Note_on_c, 3, 76, 95
8, 464925, Note_on_c, 3, 77, 0
8, 464940, Note_on_c, 3, 77, 93
8, 464955, Note_on_c, 3, 76, 0
8, 464970, Note_on_c, 3, 76, 100
8, 464985, Note_on_c, 3, 77, 0
8, 465000, Note_on_c, 3, 77, 96
8, 465015, Note_on_c, 3, 76, 0
8, 465030, Note_on_c, 3, 76, 101
8, 465045, Note_on_c, 3, 77, 0
8, 465060, Note_on_c, 3, 77, 103
8, 465075, Note_on_c, 3, 76, 0
8, 465090, Note_on_c, 3, 76, 95
8, 465105, Note_on_c, 3, 77, 0
8, 465120, Note_on_c, 3, 77, 102
8, 465135, Note_on_c, 3, 76, 0
8, 465150, Note_on_c, 3, 76, 98
8, 465165, Note_on_c, 3, 77, 0
8, 465180, Note_on_c, 3, 77, 105
8, 465195, Note_on_c, 3, 76, 0
8, 465210, Note_on_c, 3, 76, 101
8, 465225, Note_on_c, 3, 77, 0
8, 465240, Note_on_c, 3, 77, 99
8, 465255, Note_on_c, 3, 76, 0
8, 465270, Note_on_c, 3, 76, 111
8, 465285, Note_on_c, 3, 77, 0
8, 465300, Note_on_c, 3, 77, 100
8, 465315, Note_on_c, 3, 76, 0
8, 465330, Note_on_c, 3, 76, 93
8, 465345, Note_on_c, 3, 77, 0
8, 465360, Note_on_c, 3, 73, 108
8, 465375, Note_on_c, 3, 76, 0
8, 465390, Note_on_c, 3, 72, 111
8, 465405, Note_on_c, 3, 73, 0
8, 465420, Note_on_c, 3, 73, 108
8, 465435, Note_on_c, 3, 72, 0
8, 465450, Note_on_c, 3, 72, 110
8, 465465, Note_on_c, 3, 73, 0
8, 465480, Note_on_c, 3, 73, 93
8, 465495, Note_on_c, 3, 72, 0
8, 465510, Note_on_c, 3, 72, 105
8, 465525, Note_on_c, 3, 73, 0
8, 465540, Note_on_c, 3, 73, 95
8, 465555, Note_on_c, 3, 72, 0
8, 465570, Note_on_c, 3, 72, 99
8, 465585, Note_on_c, 3, 73, 0
8, 465600, Note_on_c, 3, 73, 110
8, 465615, Note_on_c, 3, 72, 0
8, 465630, Note_on_c, 3, 72, 94
8, 465645, Note_on_c, 3, 73, 0
8, 465660, Note_on_c, 3, 73, 97
8, 465675, Note_on_c, 3, 72, 0
8, 465690, Note_on_c, 3, 72, 105
8, 465705, Note_on_c, 3, 73, 0
8, 465720, Note_on_c, 3, 73, 94
8, 465735, Note_on_c, 3, 72, 0
8, 465750, Note_on_c, 3, 72, 97
8, 465765, Note_on_c, 3, 73, 0
8, 465780, Note_on_c, 3, 73, 93
8, 465795, Note_on_c, 3, 72, 0
8, 465810, Note_on_c, 3, 72, 108
8, 465825, Note_on_c, 3, 73, 0
8, 465840, Note_on_c, 3, 74, 99
8, 465855, Note_on_c, 3, 72, 0
8, 465870, Note_on_c, 3, 73, 103
8, 465885, Note_on_c, 3, 74, 0
8, 465900, Note_on_c, 3, 74, 106
8, 465915, Note_on_c, 3, 73, 0
8, 465930, Note_on_c, 3, 73, 105
8, 465945, Note_on_c, 3, 74, 0
8, 465960, Note_on_c, 3, 74, 96
8, 465975, Note_on_c, 3, 73, 0
8, 465990, Note_on_c, 3, 73, 103
8, 466005, Note_on_c, 3, 74, 0
8, 466020, Note_on_c, 3, 74, 97
8, 466035, Note_on_c, 3, 73, 0
8, 466050, Note_on_c, 3, 73, 104
8, 466065, Note_on_c, 3, 74, 0
8, 466080, Note_on_c, 3, 74, 109
8, 466095, Note_on_c, 3, 73, 0
8, 466110, Note_on_c, 3, 73, 96
8, 466125, Note_on_c, 3, 74, 0
8, 466140, Note_on_c, 3, 74, 111
8, 466155, Note_on_c, 3, 73, 0
8, 466170, Note_on_c, 3, 73, 108
8, 466185, Note_on_c, 3, 74, 0
8, 466200, Note_on_c, 3, 74, 101
8, 466215, Note_on_c, 3, 73, 0
8, 466230, Note_on_c, 3, 73, 101
8, 466245, Note_on_c, 3, 74, 0
8, 466260, Note_on_c, 3, 74, 106
8, 466275, Note_on_c, 3, 73, 0
8, 466290, Note_on_c, 3, 73, 93
8, 466305, Note_on_c, 3, 74, 0
8, 466320, Note_on_c, 3, 76, 93
8, 466335, Note_on_c, 3, 73, 0
8, 466350, Note_on_c, 3, 74, 95
8, 466365, Note_on_c, 3, 76, 0
8, 466380, Note_on_c, 3, 76, 91
8, 466395, Note_on_c, 3, 74, 0
8, 466410, Note_on_c, 3, 74, 98
8, 466425, Note_on_c, 3, 76, 0
8, 466440, Note_on_c, 3, 76, 97
8, 466455, Note_on_c, 3, 74, 0
8, 466470, Note_on_c, 3, 74, 109
8, 466485, Note_on_c, 3, 76, 0
8, 466500, Note_on_c, 3, 76, 93
8, 466515, Note_on_c, 3, 74, 0
8, 466530, Note_on_c, 3, 74, 98
8, 466545, Note_on_c, 3, 76, 0
8, 466560, Note_on_c, 3, 76, 92
8, 466575, Note_on_c, 3, 74, 0
8, 466590, Note_on_c, 3, 74, 95
8, 466605, Note_on_c, 3, 76, 0
8, 466620, Note_on_c, 3, 76, 100
8, 466635, Note_on_c, 3, 74, 0
8, 466650, Note_on_c, 3, 74, 103
8, 466665, Note_on_c, 3, 76, 0
8, 466680, Note_on_c, 3, 76, 109
8, 466695, Note_on_c, 3, 74, 0
8, 466710, Note_on_c, 3, 74, 95
8, 466725, Note_on_c, 3, 76, 0
8, 466740, Note_on_c, 3, 76, 111
8, 466755, Note_on_c, 3, 74, 0
8, 466770, Note_on_c, 3, 74, 94
8, 466785, Note_on_c, 3, 76, 0
8, 466800, Note_on_c, 3, 77, 111
8, 466815, Note_on_c, 3, 74, 0
8, 466830, Note_on_c, 3, 76, 105
8, 466845, Note_on_c, 3, 77, 0
8, 466860, Note_on_c, 3, 77, 95
8, 466875, Note_on_c, 3, 76, 0
8, 466890, Note_on_c, 3, 76, 109
8, 466905, Note_on_c, 3, 77, 0
8, 466920, Note_on_c, 3, 77, 111
8, 466935, Note_on_c, 3, 76, 0
8, 466950, Note_on_c, 3, 76, 110
8, 466965, Note_on_c, 3, 77, 0
8, 466980, Note_on_c, 3, 77, 94
8, 466995, Note_on_c, 3, 76, 0
8, 467010, Note_on_c, 3, 76, 106
8, 467025, Note_on_c, 3, 77, 0
8, 467040, Note_on_c, 3, 77, 95
8, 467055, Note_on_c, 3, 76, 0
8, 467070, Note_on_c, 3, 76, 96
8, 467085, Note_on_c, 3, 77, 0
8, 467100, Note_on_c, 3, 77, 101
8, 467115, Note_on_c, 3, 76, 0
8, 467130, Note_on_c, 3, 76, 91
8, 467145, Note_on_c, 3, 77, 0
8, 467160, Note_on_c, 3, 77, 91
8, 467175, Note_on_c, 3, 76, 0
8, 467190, Note_on_c, 3, 76, 101
8, 467205, Note_on_c, 3, 77, 0
8, 467220, Note_on_c, 3, 77, 92
8, 467235, Note_on_c, 3, 76, 0
8, 467250, Note_on_c, 3, 76, 91
8, 467265, Note_on_c, 3, 77, 0
8, 467280, Note_on_c, 3, 63, 34
8, 467295, Note_on_c, 3, 76, 0
8, 467305, Note_on_c, 3, 54, 45
8, 467472, Note_on_c, 3, 63, 0
8, 467497, Note_on_c, 3, 54, 0
8, 467786, Note_on_c, 3, 54, 33
8, 467787, Note_on_c, 3, 63, 38
8, 467978, Note_on_c, 3, 54, 0
8, 467979, Note_on_c, 3, 63, 0
8, 468246, Note_on_c, 3, 63, 41
8, 468262, Note_on_c, 3, 54, 42
8, 468438, Note_on_c, 3, 63, 0
8, 468454, Note_on_c, 3, 54, 0
8, 468738, Note_on_c, 3, 63, 49
8, 468745, Note_on_c, 3, 55, 38
8, 468930, Note_on_c, 3, 63, 0
8, 468937, Note_on_c, 3, 55, 0
8, 469205, Note_on_c, 3, 55, 42
8, 469226, Note_on_c, 3, 63, 30
8, 469397, Note_on_c, 3, 55, 0
8, 469418, Note_on_c, 3, 63, 0
8, 469682, Note_on_c, 3, 55, 36
8, 469704, Note_on_c, 3, 63, 38
8, 469874, Note_on_c, 3, 55, 0
8, 469896, Note_on_c, 3, 63, 0
8, 470164, Note_on_c, 3, 55, 49
8, 470182, Note_on_c, 3, 63, 34
8, 470356, Note_on_c, 3, 55, 0
8, 470374, Note_on_c, 3, 63, 0
8, 470643, Note_on_c, 3, 63, 48
8, 470659, Note_on_c, 3, 55, 37
8, 470835, Note_on_c, 3, 63, 0
8, 470851, Note_on_c, 3, 55, 0
8, 471132, Note_on_c, 3, 63, 39
8, 471145, Note_on_c, 3, 55, 38
8, 471324, Note_on_c, 3, 63, 0
8, 471337, Note_on_c, 3, 55, 0
8, 471611, Note_on_c, 3, 55, 45
8, 471614, Note_on_c, 3, 63, 48
8, 471803, Note_on_c, 3, 55, 0
8, 471806, Note_on_c, 3, 63, 0
8, 472086, Note_on_c, 3, 55, 44
8, 472107, Note_on_c, 3, 63, 47
8, 472278, Note_on_c, 3, 55, 0
8, 472299, Note_on_c, 3, 63, 0
8, 472560, Note_on_c, 3, 55, 50
8, 472586, Note_on_c, 3, 63, 41
8, 472752, Note_on_c, 3, 55, 0
8, 472778, Note_on_c, 3, 63, 0
8, 473042, Note_on_c, 3, 55, 50
8, 473059, Note_on_c, 3, 63, 50
8, 473234, Note_on_c, 3, 55, 0
8, 473251, Note_on_c, 3, 63, 0
8, 473527, Note_on_c, 3, 55, 46
8, 473545, Note_on_c, 3, 63, 32
8, 473719, Note_on_c, 3, 55, 0
8, 473737, Note_on_c, 3, 63, 0
8, 474003, Note_on_c, 3, 63, 33
8, 474006, Note_on_c, 3, 55, 50
8, 474195, Note_on_c, 3, 63, 0
8, 474198, Note_on_c, 3, 55, 0
8, 474481, Note_on_c, 3, 55, 38
8, 474496, Note_on_c, 3, 63, 38
8, 474673, Note_on_c, 3, 55, 0
8, 474688, Note_on_c, 3, 63, 0
8, 474964, Note_on_c, 3, 63, 32
8, 474970, Note_on_c, 3, 55, 50
8, 475156, Note_on_c, 3, 63, 0
8, 475162, Note_on_c, 3, 55, 0
8, 475444, Note_on_c, 3, 63, 34
8, 475445, Note_on_c, 3, 55, 30
8, 475636, Note_on_c, 3, 63, 0
8, 475637, Note_on_c, 3, 55, 0
8, 475922, Note_on_c, 3, 63, 34
8, 476114, Note_on_c, 3, 63, 0
8, 476400, Control_c, 3, 7, 127
8, 477500, Note_on_c, 3, 62, 56
8, 477612, Note_on_c, 3, 58, 50
8, 477620, Note_on_c, 3, 62, 0
8, 477732, Note_on_c, 3, 58, 0
8, 477740, Note_on_c, 3, 56, 43
8, 477846, Note_on_c, 3, 61, 48
8, 477860, Note_on_c, 3, 56, 0
8, 479586, Note_on_c, 3, 61, 0
8, 479598, Note_on_c, 3, 59, 51
8, 479640, Note_on_c, 3, 61, 56
8, 479673, Note_on_c, 3, 59, 0
8, 479703, Note_on_c, 3, 59, 44
8, 479715, Note_on_c, 3, 61, 0
8, 479777, Note_on_c, 3, 61, 40
8, 479778, Note_on_c, 3, 59, 0
8, 480530, Note_on_c, 3, 59, 41
8, 480536, Note_on_c, 3, 61, 0
8, 480570, Note_on_c, 3, 61, 47
8, 480584, Note_on_c, 3, 59, 0
8, 480603, Note_on_c, 3, 59, 57
8, 480625, Note_on_c, 3, 61, 0
8, 480657, Note_on_c, 3, 59, 0
8, 480663, Note_on_c, 3, 61, 41
8, 480696, Note_on_c, 3, 59, 49
8, 480718, Note_on_c, 3, 61, 0
8, 480742, Note_on_c, 3, 61, 59
8, 480751, Note_on_c, 3, 59, 0
8, 481222, Note_on_c, 3, 61, 0
8, 481222, Note_on_c, 3, 59, 54
8, 481509, Note_on_c, 3, 59, 0
8, 481509, Note_on_c, 3, 60, 56
8, 481550, Note_on_c, 3, 64, 50
8, 481572, Note_on_c, 3, 60, 0
8, 481596, Note_on_c, 3, 60, 44
8, 481612, Note_on_c, 3, 64, 0
8, 481652, Note_on_c, 3, 51, 52
8, 481659, Note_on_c, 3, 60, 0
8, 481696, Note_on_c, 3, 61, 43
8, 481715, Note_on_c, 3, 51, 0
8, 482454, Note_on_c, 3, 59, 46
8, 482455, Note_on_c, 3, 61, 0
8, 482487, Note_on_c, 3, 61, 54
8, 482509, Note_on_c, 3, 59, 0
8, 482542, Note_on_c, 3, 61, 0
8, 482543, Note_on_c, 3, 59, 46
8, 482588, Note_on_c, 3, 61, 54
8, 482597, Note_on_c, 3, 59, 0
8, 482626, Note_on_c, 3, 61, 0
8, 482626, Note_on_c, 3, 59, 49
8, 482645, Note_on_c, 3, 61, 59
8, 482681, Note_on_c, 3, 59, 0
8, 482919, Note_on_c, 3, 59, 45
8, 482924, Note_on_c, 3, 61, 0
8, 482960, Note_on_c, 3, 61, 43
8, 482974, Note_on_c, 3, 59, 0
8, 483000, Note_on_c, 3, 59, 40
8, 483015, Note_on_c, 3, 61, 0
8, 483039, Note_on_c, 3, 61, 57
8, 483054, Note_on_c, 3, 59, 0
8, 483080, Note_on_c, 3, 59, 50
8, 483094, Note_on_c, 3, 61, 0
8, 483120, Note_on_c, 3, 61, 39
8, 483135, Note_on_c, 3, 59, 0
8, 483150, Note_on_c, 3, 59, 39
8, 483165, Note_on_c, 3, 61, 0
8, 483180, Note_on_c, 3, 61, 42
8, 483195, Note_on_c, 3, 59, 0
8, 483210, Note_on_c, 3, 59, 40
8, 483225, Note_on_c, 3, 61, 0
8, 483240, Note_on_c, 3, 61, 44
8, 483255, Note_on_c, 3, 59, 0
8, 483270, Note_on_c, 3, 59, 46
8, 483285, Note_on_c, 3, 61, 0
8, 483300, Note_on_c, 3, 61, 41
8, 483315, Note_on_c, 3, 59, 0
8, 483330, Note_on_c, 3, 59, 53
8, 483345, Note_on_c, 3, 61, 0
8, 483360, Note_on_c, 3, 61, 47
8, 483375, Note_on_c, 3, 59, 0
8, 483390, Note_on_c, 3, 59, 41
8, 483405, Note_on_c, 3, 61, 0
8, 483420, Note_on_c, 3, 61, 51
8, 483435, Note_on_c, 3, 59, 0
8, 483450, Note_on_c, 3, 59, 56
8, 483465, Note_on_c, 3, 61, 0
8, 483480, Note_on_c, 3, 61, 55
8, 483495, Note_on_c, 3, 59, 0
8, 483510, Note_on_c, 3, 59, 39
8, 483525, Note_on_c, 3, 61, 0
8, 483540, Note_on_c, 3, 61, 51
8, 483555, Note_on_c, 3, 59, 0
8, 483570, Note_on_c, 3, 59, 41
8, 483585, Note_on_c, 3, 61, 0
8, 483600, Note_on_c, 3, 61, 44
8, 483615, Note_on_c, 3, 59, 0
8, 483630, Note_on_c, 3, 59, 47
8, 483645, Note_on_c, 3, 61, 0
8, 483660, Note_on_c, 3, 61, 43
8, 483675, Note_on_c, 3, 59, 0
8, 483690, Note_on_c, 3, 59, 42
8, 483705, Note_on_c, 3, 61, 0
8, 483720, Note_on_c, 3, 61, 57
8, 483735, Note_on_c, 3, 59, 0
8, 483750, Note_on_c, 3, 59, 46
8, 483765, Note_on_c, 3, 61, 0
8, 483780, Note_on_c, 3, 61, 49
8, 483795, Note_on_c, 3, 59, 0
8, 483810, Note_on_c, 3, 59, 59
8, 483825, Note_on_c, 3, 61, 0
8, 483840, Note_on_c, 3, 61, 46
8, 483855, Note_on_c, 3, 59, 0
8, 483870, Note_on_c, 3, 59, 53
8, 483885, Note_on_c, 3, 61, 0
8, 483900, Note_on_c, 3, 61, 43
8, 483915, Note_on_c, 3, 59, 0
8, 483930, Note_on_c, 3, 59, 55
8, 483945, Note_on_c, 3, 61, 0
8, 483960, Note_on_c, 3, 61, 40
8, 483975, Note_on_c, 3, 59, 0
8, 483990, Note_on_c, 3, 59, 44
8, 484005, Note_on_c, 3, 61, 0
8, 484020, Note_on_c, 3, 61, 44
8, 484035, Note_on_c, 3, 59, 0
8, 484050, Note_on_c, 3, 59, 42
8, 484065, Note_on_c, 3, 61, 0
8, 484095, Note_on_c, 3, 59, 0
8, 494522, Note_on_c, 3, 78, 111
8, 494529, Note_on_c, 3, 75, 99
8, 494549, Note_on_c, 3, 82, 108
8, 494665, Note_on_c, 3, 78, 0
8, 494672, Note_on_c, 3, 75, 0
8, 494692, Note_on_c, 3, 82, 0
8, 494761, Note_on_c, 3, 75, 110
8, 494770, Note_on_c, 3, 82, 101
8, 494783, Note_on_c, 3, 78, 93
8, 494904, Note_on_c, 3, 75, 0
8, 494913, Note_on_c, 3, 82, 0
8, 494926, Note_on_c, 3, 78, 0
8, 495019, Note_on_c, 3, 82, 104
8, 495027, Note_on_c, 3, 75, 95
8, 495028, Note_on_c, 3, 78, 110
8, 495079, Note_on_c, 3, 82, 0
8, 495087, Note_on_c, 3, 75, 0
8, 495088, Note_on_c, 3, 78, 0
8, 495120, Note_on_c, 3, 75, 110
8, 495123, Note_on_c, 3, 78, 92
8, 495129, Note_on_c, 3, 82, 109
8, 495192, Note_on_c, 3, 75, 0
8, 495195, Note_on_c, 3, 78, 0
8, 495201, Note_on_c, 3, 82, 0
8, 495254, Note_on_c, 3, 78, 105
8, 495258, Note_on_c, 3, 82, 108
8, 495267, Note_on_c, 3, 75, 93
8, 495314, Note_on_c, 3, 78, 0
8, 495318, Note_on_c, 3, 82, 0
8, 495327, Note_on_c, 3, 75, 0
8, 496682, Note_on_c, 3, 82, 92
8, 496702, Note_on_c, 3, 75, 96
8, 496703, Note_on_c, 3, 78, 110
8, 496754, Note_on_c, 3, 82, 0
8, 496774, Note_on_c, 3, 75, 0
8, 496775, Note_on_c, 3, 78, 0
8, 496804, Note_on_c, 3, 78, 108
8, 496823, Note_on_c, 3, 82, 100
8, 496828, Note_on_c, 3, 75, 105
8, 496876, Note_on_c, 3, 78, 0
8, 496895, Note_on_c, 3, 82, 0
8, 496900, Note_on_c, 3, 75, 0
8, 496922, Note_on_c, 3, 82, 97
8, 496924, Note_on_c, 3, 78, 92
8, 496931, Note_on_c, 3, 75, 105
8, 496994, Note_on_c, 3, 82, 0
8, 496996, Note_on_c, 3, 78, 0
8, 497003, Note_on_c, 3, 75, 0
8, 497043, Note_on_c, 3, 82, 108
8, 497054, Note_on_c, 3, 75, 93
8, 497069, Note_on_c, 3, 78, 104
8, 497115, Note_on_c, 3, 82, 0
8, 497126, Note_on_c, 3, 75, 0
8, 497141, Note_on_c, 3, 78, 0
8, 497172, Note_on_c, 3, 75, 103
8, 497173, Note_on_c, 3, 82, 104
8, 497175, Note_on_c, 3, 78, 105
8, 497219, Note_on_c, 3, 75, 0
8, 497220, Note_on_c, 3, 82, 0
8, 497222, Note_on_c, 3, 78, 0
8, 502928, Note_on_c, 3, 75, 117
8, 502933, Note_on_c, 3, 70, 109
8, 502939, Note_on_c, 3, 78, 108
8, 503008, Note_on_c, 3, 75, 0
8, 503013, Note_on_c, 3, 70, 0
8, 503019, Note_on_c, 3, 78, 0
8, 503041, Note_on_c, 3, 75, 107
8, 503054, Note_on_c, 3, 78, 113
8, 503055, Note_on_c, 3, 82, 117
8, 503121, Note_on_c, 3, 75, 0
8, 503134, Note_on_c, 3, 78, 0
8, 503135, Note_on_c, 3, 82, 0
8, 503520, Note_on_c, 3, 70, 103
8, 503529, Note_on_c, 3, 78, 106
8, 503535, Note_on_c, 3, 75, 119
8, 503600, Note_on_c, 3, 70, 0
8, 503609, Note_on_c, 3, 78, 0
8, 503615, Note_on_c, 3, 75, 0
8, 503640, Note_on_c, 3, 78, 114
8, 503647, Note_on_c, 3, 75, 101
8, 503647, Note_on_c, 3, 82, 116
8, 503720, Note_on_c, 3, 78, 0
8, 503727, Note_on_c, 3, 75, 0
8, 503727, Note_on_c, 3, 82, 0
8, 503891, Note_on_c, 3, 87, 106
8, 503895, Note_on_c, 3, 78, 116
8, 503904, Note_on_c, 3, 82, 119
8, 503971, Note_on_c, 3, 87, 0
8, 503975, Note_on_c, 3, 78, 0
8, 503984, Note_on_c, 3, 82, 0
8, 531384, Note_on_c, 3, 82, 104
8, 531431, Note_on_c, 3, 82, 0
8, 531609, Note_on_c, 3, 82, 92
8, 531656, Note_on_c, 3, 82, 0
8, 531866, Note_on_c, 3, 82, 102
8, 531913, Note_on_c, 3, 82, 0
8, 532329, Note_on_c, 3, 82, 95
8, 532376, Note_on_c, 3, 82, 0
8, 532569, Note_on_c, 3, 82, 91
8, 532616, Note_on_c, 3, 82, 0
8, 532800, Note_on_c, 3, 82, 98
8, 532847, Note_on_c, 3, 82, 0
8, 533047, Note_on_c, 3, 82, 93
8, 533094, Note_on_c, 3, 82, 0
8, 533290, Note_on_c, 3, 82, 108
8, 533337, Note_on_c, 3, 82, 0
8, 533784, Note_on_c, 3, 82, 92
8, 533831, Note_on_c, 3, 82, 0
8, 534263, Note_on_c, 3, 82, 110
8, 534310, Note_on_c, 3, 82, 0
8, 534499, Note_on_c, 3, 83, 94
8, 534546, Note_on_c, 3, 83, 0
8, 534727, Note_on_c, 3, 82, 105
8, 534774, Note_on_c, 3, 82, 0
8, 535202, Note_on_c, 3, 82, 97
8, 535249, Note_on_c, 3, 82, 0
8, 535688, Note_on_c, 3, 82, 92
8, 535735, Note_on_c, 3, 82, 0
8, 536161, Note_on_c, 3, 70, 116
8, 536170, Note_on_c, 3, 67, 118
8, 536180, Note_on_c, 3, 70, 0
8, 536189, Note_on_c, 3, 67, 0
8, 536225, Note_on_c, 3, 68, 107
8, 536236, Note_on_c, 3, 71, 108
8, 536244, Note_on_c, 3, 68, 0
8, 536255, Note_on_c, 3, 71, 0
8, 536257, Note_on_c, 3, 69, 118
8, 536270, Note_on_c, 3, 72, 116
8, 536276, Note_on_c, 3, 69, 0
8, 536289, Note_on_c, 3, 72, 0
8, 536322, Note_on_c, 3, 70, 107
8, 536326, Note_on_c, 3, 73, 123
8, 536341, Note_on_c, 3, 70, 0
8, 536345, Note_on_c, 3, 73, 0
8, 536363, Note_on_c, 3, 71, 123
8, 536379, Note_on_c, 3, 74, 120
8, 536382, Note_on_c, 3, 71, 0
8, 536398, Note_on_c, 3, 74, 0
8, 536411, Note_on_c, 3, 75, 110
8, 536417, Note_on_c, 3, 72, 123
8, 536434, Note_on_c, 3, 75, 0
8, 536440, Note_on_c, 3, 72, 0
8, 536648, Note_on_c, 3, 70, 112
8, 536664, Note_on_c, 3, 65, 115
8, 536671, Note_on_c, 3, 70, 0
8, 536687, Note_on_c, 3, 65, 0
8, 536702, Note_on_c, 3, 66, 104
8, 536725, Note_on_c, 3, 66, 0
8, 536728, Note_on_c, 3, 71, 113
8, 536751, Note_on_c, 3, 71, 0
8, 536760, Note_on_c, 3, 72, 117
8, 536783, Note_on_c, 3, 72, 0
8, 536783, Note_on_c, 3, 67, 113
8, 536806, Note_on_c, 3, 67, 0
8, 536824, Note_on_c, 3, 68, 110
8, 536842, Note_on_c, 3, 73, 117
8, 536847, Note_on_c, 3, 68, 0
8, 536865, Note_on_c, 3, 73, 0
8, 536891, Note_on_c, 3, 69, 115
8, 536898, Note_on_c, 3, 74, 111
8, 536914, Note_on_c, 3, 69, 0
8, 536921, Note_on_c, 3, 74, 0
8, 546000, Note_on_c, 3, 80, 78
8, 546039, Note_on_c, 3, 80, 0
8, 546039, Note_on_c, 3, 81, 78
8, 546079, Note_on_c, 3, 81, 0
8, 546080, Note_on_c, 3, 80, 71
8, 546120, Note_on_c, 3, 80, 0
8, 546120, Note_on_c, 3, 81, 85
8, 546159, Note_on_c, 3, 81, 0
8, 546159, Note_on_c, 3, 80, 72
8, 546199, Note_on_c, 3, 80, 0
8, 546200, Note_on_c, 3, 81, 73
8, 546240, Note_on_c, 3, 81, 0
8, 546240, Note_on_c, 3, 80, 71
8, 546279, Note_on_c, 3, 80, 0
8, 546279, Note_on_c, 3, 81, 70
8, 546319, Note_on_c, 3, 81, 0
8, 546320, Note_on_c, 3, 80, 77
8, 546360, Note_on_c, 3, 80, 0
8, 546360, Note_on_c, 3, 81, 81
8, 546399, Note_on_c, 3, 81, 0
8, 546399, Note_on_c, 3, 80, 68
8, 546439, Note_on_c, 3, 80, 0
8, 546440, Note_on_c, 3, 81, 74
8, 546480, Note_on_c, 3, 81, 0
8, 546480, Note_on_c, 3, 80, 67
8, 546519, Note_on_c, 3, 80, 0
8, 546519, Note_on_c, 3, 81, 71
8, 546559, Note_on_c, 3, 81, 0
8, 546560, Note_on_c, 3, 80, 66
8, 546600, Note_on_c, 3, 80, 0
8, 546600, Note_on_c, 3, 81, 73
8, 546639, Note_on_c, 3, 81, 0
8, 546639, Note_on_c, 3, 80, 77
8, 546679, Note_on_c, 3, 80, 0
8, 546680, Note_on_c, 3, 81, 71
8, 546720, Note_on_c, 3, 81, 0
8, 546720, Note_on_c, 3, 80, 73
8, 546759, Note_on_c, 3, 80, 0
8, 546759, Note_on_c, 3, 81, 75
8, 546799, Note_on_c, 3, 81, 0
8, 546800, Note_on_c, 3, 80, 68
8, 546840, Note_on_c, 3, 80, 0
8, 546840, Note_on_c, 3, 81, 77
8, 546879, Note_on_c, 3, 81, 0
8, 546879, Note_on_c, 3, 80, 73
8, 546919, Note_on_c, 3, 80, 0
8, 546920, Note_on_c, 3, 81, 85
8, 546960, Note_on_c, 3, 81, 0
8, 546960, Note_on_c, 3, 80, 75
8, 546999, Note_on_c, 3, 80, 0
8, 546999, Note_on_c, 3, 81, 80
8, 547039, Note_on_c, 3, 81, 0
8, 547040, Note_on_c, 3, 80, 70
8, 547080, Note_on_c, 3, 80, 0
8, 547080, Note_on_c, 3, 81, 72
8, 547119, Note_on_c, 3, 81, 0
8, 547119, Note_on_c, 3, 80, 80
8, 547159, Note_on_c, 3, 80, 0
8, 547160, Note_on_c, 3, 81, 68
8, 547200, Note_on_c, 3, 81, 0
8, 547200, Note_on_c, 3, 80, 74
8, 547239, Note_on_c, 3, 80, 0
8, 547239, Note_on_c, 3, 81, 75
8, 547279, Note_on_c, 3, 81, 0
8, 547280, Note_on_c, 3, 80, 70
8, 547320, Note_on_c, 3, 80, 0
8, 547320, Note_on_c, 3, 81, 84
8, 547359, Note_on_c, 3, 81, 0
8, 547359, Note_on_c, 3, 80, 66
8, 547399, Note_on_c, 3, 80, 0
8, 547400, Note_on_c, 3, 81, 79
8, 547440, Note_on_c, 3, 81, 0
8, 547440, Note_on_c, 3, 80, 81
8, 547479, Note_on_c, 3, 80, 0
8, 547479, Note_on_c, 3, 81, 72
8, 547519, Note_on_c, 3, 81, 0
8, 547520, Note_on_c, 3, 80, 77
8, 547560, Note_on_c, 3, 80, 0
8, 547680, Note_on_c, 3, 80, 81
8, 547719, Note_on_c, 3, 80, 0
8, 547719, Note_on_c, 3, 81, 72
8, 547759, Note_on_c, 3, 81, 0
8, 547760, Note_on_c, 3, 80, 69
8, 547800, Note_on_c, 3, 80, 0
8, 547800, Note_on_c, 3, 81, 68
8, 547839, Note_on_c, 3, 81, 0
8, 547839, Note_on_c, 3, 80, 76
8, 547879, Note_on_c, 3, 80, 0
8, 547880, Note_on_c, 3, 81, 66
8, 547920, Note_on_c, 3, 81, 0
8, 547920, Note_on_c, 3, 80, 68
8, 547959, Note_on_c, 3, 80, 0
8, 547959, Note_on_c, 3, 81, 70
8, 547999, Note_on_c, 3, 81, 0
8, 548000, Note_on_c, 3, 80, 82
8, 548040, Note_on_c, 3, 80, 0
8, 548040, Note_on_c, 3, 81, 65
8, 548079, Note_on_c, 3, 81, 0
8, 548079, Note_on_c, 3, 80, 76
8, 548119, Note_on_c, 3, 80, 0
8, 548120, Note_on_c, 3, 81, 67
8, 548160, Note_on_c, 3, 81, 0
8, 548160, Note_on_c, 3, 80, 69
8, 548199, Note_on_c, 3, 80, 0
8, 548199, Note_on_c, 3, 81, 71
8, 548239, Note_on_c, 3, 81, 0
8, 548240, Note_on_c, 3, 80, 82
8, 548280, Note_on_c, 3, 80, 0
8, 548280, Note_on_c, 3, 81, 85
8, 548319, Note_on_c, 3, 81, 0
8, 548319, Note_on_c, 3, 80, 81
8, 548359, Note_on_c, 3, 80, 0
8, 548360, Note_on_c, 3, 81, 65
8, 548400, Note_on_c, 3, 81, 0
8, 548400, Note_on_c, 3, 80, 74
8, 548439, Note_on_c, 3, 80, 0
8, 548439, Note_on_c, 3, 81, 67
8, 548479, Note_on_c, 3, 81, 0
8, 548480, Note_on_c, 3, 80, 71
8, 548520, Note_on_c, 3, 80, 0
8, 548520, Note_on_c, 3, 81, 65
8, 548559, Note_on_c, 3, 81, 0
8, 548559, Note_on_c, 3, 80, 80
8, 548599, Note_on_c, 3, 80, 0
8, 548600, Note_on_c, 3, 81, 76
8, 548640, Note_on_c, 3, 81, 0
8, 548640, Note_on_c, 3, 80, 78
8, 548679, Note_on_c, 3, 80, 0
8, 548679, Note_on_c, 3, 81, 78
8, 548719, Note_on_c, 3, 81, 0
8, 548720, Note_on_c, 3, 80, 80
8, 548760, Note_on_c, 3, 80, 0
8, 548760, Note_on_c, 3, 81, 81
8, 548799, Note_on_c, 3, 81, 0
8, 548799, Note_on_c, 3, 80, 67
8, 548839, Note_on_c, 3, 80, 0
8, 548840, Note_on_c, 3, 81, 74
8, 548880, Note_on_c, 3, 81, 0
8, 548880, Note_on_c, 3, 80, 67
8, 548919, Note_on_c, 3, 80, 0
8, 548919, Note_on_c, 3, 81, 74
8, 548959, Note_on_c, 3, 81, 0
8, 548960, Note_on_c, 3, 80, 81
8, 549000, Note_on_c, 3, 80, 0
8, 549000, Note_on_c, 3, 81, 75
8, 549039, Note_on_c, 3, 81, 0
8, 549039, Note_on_c, 3, 80, 73
8, 549079, Note_on_c, 3, 80, 0
8, 549080, Note_on_c, 3, 81, 79
8, 549120, Note_on_c, 3, 81, 0
8, 549120, Note_on_c, 3, 80, 83
8, 549159, Note_on_c, 3, 80, 0
8, 549159, Note_on_c, 3, 81, 79
8, 549199, Note_on_c, 3, 81, 0
8, 549200, Note_on_c, 3, 80, 83
8, 549240, Note_on_c, 3, 80, 0
8, 549240, Note_on_c, 3, 81, 82
8, 549279, Note_on_c, 3, 81, 0
8, 549279, Note_on_c, 3, 80, 79
8, 549319, Note_on_c, 3, 80, 0
8, 549320, Note_on_c, 3, 81, 78
8, 549360, Note_on_c, 3, 81, 0
8, 549360, Note_on_c, 3, 81, 72
8, 549480, Note_on_c, 3, 81, 0
8, 554768, Note_on_c, 3, 74, 95
8, 554776, Note_on_c, 3, 77, 94
8, 554778, Note_on_c, 3, 81, 94
8, 554911, Note_on_c, 3, 74, 0
8, 554919, Note_on_c, 3, 77, 0
8, 554921, Note_on_c, 3, 81, 0
8, 555002, Note_on_c, 3, 74, 107
8, 555002, Note_on_c, 3, 77, 99
8, 555006, Note_on_c, 3, 81, 108
8, 555145, Note_on_c, 3, 74, 0
8, 555145, Note_on_c, 3, 77, 0
8, 555149, Note_on_c, 3, 81, 0
8, 555240, Note_on_c, 3, 77, 108
8, 555248, Note_on_c, 3, 81, 94
8, 555253, Note_on_c, 3, 74, 100
8, 555300, Note_on_c, 3, 77, 0
8, 555308, Note_on_c, 3, 81, 0
8, 555313, Note_on_c, 3, 74, 0
8, 555365, Note_on_c, 3, 77, 103
8, 555370, Note_on_c, 3, 74, 104
8, 555378, Note_on_c, 3, 81, 111
8, 555437, Note_on_c, 3, 77, 0
8, 555442, Note_on_c, 3, 74, 0
8, 555450, Note_on_c, 3, 81, 0
8, 555483, Note_on_c, 3, 74, 95
8, 555490, Note_on_c, 3, 81, 110
8, 555508, Note_on_c, 3, 77, 103
8, 555543, Note_on_c, 3, 74, 0
8, 555550, Note_on_c, 3, 81, 0
8, 555568, Note_on_c, 3, 77, 0
8, 556922, Note_on_c, 3, 81, 93
8, 556929, Note_on_c, 3, 74, 91
8, 556940, Note_on_c, 3, 77, 97
8, 556994, Note_on_c, 3, 81, 0
8, 557001, Note_on_c, 3, 74, 0
8, 557012, Note_on_c, 3, 77, 0
8, 557052, Note_on_c, 3, 81, 105
8, 557061, Note_on_c, 3, 74, 106
8, 557063, Note_on_c, 3, 77, 109
8, 557124, Note_on_c, 3, 81, 0
8, 557133, Note_on_c, 3, 74, 0
8, 557135, Note_on_c, 3, 77, 0
8, 557160, Note_on_c, 3, 81, 95
8, 557164, Note_on_c, 3, 74, 107
8, 557166, Note_on_c, 3, 77, 91
8, 557232, Note_on_c, 3, 81, 0
8, 557236, Note_on_c, 3, 74, 0
8, 557238, Note_on_c, 3, 77, 0
8, 557285, Note_on_c, 3, 77, 107
8, 557289, Note_on_c, 3, 81, 102
8, 557292, Note_on_c, 3, 74, 98
8, 557357, Note_on_c, 3, 77, 0
8, 557361, Note_on_c, 3, 81, 0
8, 557364, Note_on_c, 3, 74, 0
8, 557410, Note_on_c, 3, 77, 100
8, 557412, Note_on_c, 3, 74, 96
8, 557424, Note_on_c, 3, 81, 94
8, 557457, Note_on_c, 3, 77, 0
8, 557459, Note_on_c, 3, 74, 0
8, 557471, Note_on_c, 3, 81, 0
8, 563166, Note_on_c, 3, 77, 111
8, 563167, Note_on_c, 3, 74, 98
8, 563180, Note_on_c, 3, 69, 105
8, 563226, Note_on_c, 3, 77, 0
8, 563227, Note_on_c, 3, 74, 0
8, 563240, Note_on_c, 3, 69, 0
8, 563297, Note_on_c, 3, 77, 109
8, 563297, Note_on_c, 3, 74, 110
8, 563301, Note_on_c, 3, 81, 97
8, 563357, Note_on_c, 3, 77, 0
8, 563357, Note_on_c, 3, 74, 0
8, 563361, Note_on_c, 3, 81, 0
8, 563765, Note_on_c, 3, 69, 108
8, 563779, Note_on_c, 3, 77, 98
8, 563779, Note_on_c, 3, 74, 109
8, 563825, Note_on_c, 3, 69, 0
8, 563839, Note_on_c, 3, 77, 0
8, 563839, Note_on_c, 3, 74, 0
8, 563887, Note_on_c, 3, 74, 108
8, 563887, Note_on_c, 3, 81, 98
8, 563903, Note_on_c, 3, 77, 111
8, 563947, Note_on_c, 3, 74, 0
8, 563947, Note_on_c, 3, 81, 0
8, 563963, Note_on_c, 3, 77, 0
8, 564126, Note_on_c, 3, 77, 107
8, 564127, Note_on_c, 3, 81, 110
8, 564146, Note_on_c, 3, 86, 97
8, 564186, Note_on_c, 3, 77, 0
8, 564187, Note_on_c, 3, 81, 0
8, 564206, Note_on_c, 3, 86, 0
8, 581285, Note_on_c, 3, 64, 97
8, 581308, Note_on_c, 3, 73, 84
8, 581381, Note_on_c, 3, 64, 0
8, 581404, Note_on_c, 3, 73, 0
8, 581521, Note_on_c, 3, 72, 90
8, 581524, Note_on_c, 3, 63, 87
8, 581617, Note_on_c, 3, 72, 0
8, 581620, Note_on_c, 3, 63, 0
8, 581775, Note_on_c, 3, 61, 80
8, 581775, Note_on_c, 3, 70, 86
8, 581871, Note_on_c, 3, 61, 0
8, 581871, Note_on_c, 3, 70, 0
8, 582015, Note_on_c, 3, 65, 79
8, 582019, Note_on_c, 3, 73, 89
8, 582111, Note_on_c, 3, 65, 0
8, 582115, Note_on_c, 3, 73, 0
8, 582242, Note_on_c, 3, 72, 98
8, 582257, Note_on_c, 3, 67, 98
8, 582338, Note_on_c, 3, 72, 0
8, 582353, Note_on_c, 3, 67, 0
8, 583689, Note_on_c, 3, 73, 82
8, 583691, Note_on_c, 3, 64, 83
8, 583785, Note_on_c, 3, 73, 0
8, 583787, Note_on_c, 3, 64, 0
8, 583923, Note_on_c, 3, 63, 81
8, 583933, Note_on_c, 3, 72, 82
8, 584019, Note_on_c, 3, 63, 0
8, 584029, Note_on_c, 3, 72, 0
8, 584164, Note_on_c, 3, 61, 94
8, 584186, Note_on_c, 3, 70, 80
8, 584260, Note_on_c, 3, 61, 0
8, 584282, Note_on_c, 3, 70, 0
8, 584400, Note_on_c, 3, 65, 85
8, 584423, Note_on_c, 3, 73, 82
8, 584496, Note_on_c, 3, 65, 0
8, 584519, Note_on_c, 3, 73, 0
8, 584653, Note_on_c, 3, 72, 78
8, 584659, Note_on_c, 3, 67, 80
8, 584749, Note_on_c, 3, 72, 0
8, 584755, Note_on_c, 3, 67, 0
8, 598089, Note_on_c, 3, 86, 97
8, 598809, Note_on_c, 3, 86, 0
8, 599050, Note_on_c, 3, 86, 78
8, 599770, Note_on_c, 3, 86, 0
8, 600023, Note_on_c, 3, 86, 91
8, 600263, Note_on_c, 3, 86, 0
8, 600488, Note_on_c, 3, 84, 98
8, 600631, Note_on_c, 3, 84, 0
8, 600738, Note_on_c, 3, 82, 93
8, 600881, Note_on_c, 3, 82, 0
8, 600972, Note_on_c, 3, 80, 93
8, 601115, Note_on_c, 3, 80, 0
8, 601219, Note_on_c, 3, 84, 84
8, 601362, Note_on_c, 3, 84, 0
8, 601449, Note_on_c, 3, 82, 108
8, 601453, Note_on_c, 3, 86, 102
8, 601521, Note_on_c, 3, 82, 0
8, 601525, Note_on_c, 3, 86, 0
8, 605165, Note_on_c, 3, 82, 92
8, 605169, Note_on_c, 3, 79, 99
8, 605405, Note_on_c, 3, 82, 0
8, 605409, Note_on_c, 3, 79, 0
8, 605665, Note_on_c, 3, 81, 93
8, 605667, Note_on_c, 3, 78, 109
8, 605905, Note_on_c, 3, 81, 0
8, 605907, Note_on_c, 3, 78, 0
8, 606140, Note_on_c, 3, 80, 108
8, 606148, Note_on_c, 3, 77, 97
8, 606380, Note_on_c, 3, 80, 0
8, 606388, Note_on_c, 3, 77, 0
8, 606607, Note_on_c, 3, 76, 102
8, 606613, Note_on_c, 3, 79, 109
8, 606847, Note_on_c, 3, 76, 0
8, 606853, Note_on_c, 3, 79, 0
8, 607098, Note_on_c, 3, 78, 108
8, 607108, Note_on_c, 3, 76, 105
8, 607338, Note_on_c, 3, 78, 0
8, 607348, Note_on_c, 3, 76, 0
8, 607571, Note_on_c, 3, 76, 94
8, 607580, Note_on_c, 3, 79, 94
8, 607811, Note_on_c, 3, 76, 0
8, 607820, Note_on_c, 3, 79, 0
8, 608046, Note_on_c, 3, 75, 98
8, 608059, Note_on_c, 3, 78, 91
8, 608286, Note_on_c, 3, 75, 0
8, 608299, Note_on_c, 3, 78, 0
8, 608546, Note_on_c, 3, 74, 103
8, 608547, Note_on_c, 3, 77, 103
8, 608786, Note_on_c, 3, 74, 0
8, 608787, Note_on_c, 3, 77, 0
8, 609017, Note_on_c, 3, 73, 104
8, 609026, Note_on_c, 3, 76, 96
8, 609257, Note_on_c, 3, 73, 0
8, 609266, Note_on_c, 3, 76, 0
8, 609490, Note_on_c, 3, 75, 108
8, 609502, Note_on_c, 3, 72, 94
8, 609730, Note_on_c, 3, 75, 0
8, 609742, Note_on_c, 3, 72, 0
8, 609965, Note_on_c, 3, 74, 96
8, 609984, Note_on_c, 3, 71, 100
8, 610205, Note_on_c, 3, 74, 0
8, 610224, Note_on_c, 3, 71, 0
8, 610456, Note_on_c, 3, 70, 100
8, 610459, Note_on_c, 3, 73, 104
8, 610696, Note_on_c, 3, 70, 0
8, 610699, Note_on_c, 3, 73, 0
8, 610937, Note_on_c, 3, 71, 101
8, 610940, Note_on_c, 3, 74, 98
8, 611177, Note_on_c, 3, 71, 0
8, 611180, Note_on_c, 3, 74, 0
8, 611411, Note_on_c, 3, 72, 95
8, 611413, Note_on_c, 3, 68, 105
8, 611651, Note_on_c, 3, 72, 0
8, 611653, Note_on_c, 3, 68, 0
8, 611885, Note_on_c, 3, 69, 110
8, 611901, Note_on_c, 3, 73, 103
8, 612125, Note_on_c, 3, 69, 0
8, 612141, Note_on_c, 3, 73, 0
8, 612370, Note_on_c, 3, 65, 103
8, 612383, Note_on_c, 3, 70, 100
8, 612610, Note_on_c, 3, 65, 0
8, 612623, Note_on_c, 3, 70, 0
8, 612860, Note_on_c, 3, 71, 91
8, 612860, Note_on_c, 3, 66, 94
8, 613100, Note_on_c, 3, 71, 0
8, 613100, Note_on_c, 3, 66, 0
8, 613323, Note_on_c, 3, 67, 105
8, 613331, Note_on_c, 3, 63, 100
8, 613563, Note_on_c, 3, 67, 0
8, 613571, Note_on_c, 3, 63, 0
8, 618130, Note_on_c, 3, 79, 108
8, 618591, Note_on_c, 3, 79, 0
8, 618611, Note_on_c, 3, 79, 123
8, 619071, Note_on_c, 3, 79, 0
8, 619090, Note_on_c, 3, 79, 110
8, 619570, Note_on_c, 3, 79, 0
8, 619580, Note_on_c, 3, 77, 117
8, 619700, Note_on_c, 3, 77, 0
8, 619803, Note_on_c, 3, 75, 106
8, 619923, Note_on_c, 3, 75, 0
8, 620042, Note_on_c, 3, 73, 124
8, 620162, Note_on_c, 3, 73, 0
8, 620301, Note_on_c, 3, 77, 106
8, 620421, Note_on_c, 3, 77, 0
8, 620543, Note_on_c, 3, 79, 107
8, 620783, Note_on_c, 3, 79, 0
8, 621003, Note_on_c, 3, 79, 119
8, 621243, Note_on_c, 3, 79, 0
8, 621487, Note_on_c, 3, 79, 109
8, 621727, Note_on_c, 3, 79, 0
8, 621981, Note_on_c, 3, 79, 114
8, 622221, Note_on_c, 3, 79, 0
8, 622464, Note_on_c, 3, 77, 106
8, 622584, Note_on_c, 3, 77, 0
8, 622699, Note_on_c, 3, 75, 120
8, 622819, Note_on_c, 3, 75, 0
8, 622948, Note_on_c, 3, 73, 119
8, 623068, Note_on_c, 3, 73, 0
8, 623167, Note_on_c, 3, 77, 117
8, 623287, Note_on_c, 3, 77, 0
8, 623417, Note_on_c, 3, 79, 117
8, 623657, Note_on_c, 3, 79, 0
8, 623895, Note_on_c, 3, 79, 109
8, 624135, Note_on_c, 3, 79, 0
8, 624372, Note_on_c, 3, 77, 113
8, 624492, Note_on_c, 3, 77, 0
8, 624622, Note_on_c, 3, 75, 122
8, 624742, Note_on_c, 3, 75, 0
8, 624852, Note_on_c, 3, 73, 104
8, 624972, Note_on_c, 3, 73, 0
8, 625084, Note_on_c, 3, 77, 109
8, 625204, Note_on_c, 3, 77, 0
8, 625336, Note_on_c, 3, 79, 110
8, 625576, Note_on_c, 3, 79, 0
8, 625801, Note_on_c, 3, 79, 109
8, 626041, Note_on_c, 3, 79, 0
8, 626292, Note_on_c, 3, 79, 115
8, 626532, Note_on_c, 3, 79, 0
8, 626779, Note_on_c, 3, 77, 110
8, 626899, Note_on_c, 3, 77, 0
8, 627009, Note_on_c, 3, 75, 106
8, 627129, Note_on_c, 3, 75, 0
8, 627264, Note_on_c, 3, 73, 116
8, 627384, Note_on_c, 3, 73, 0
8, 627480, Note_on_c, 3, 77, 124
8, 627600, Note_on_c, 3, 77, 0
8, 627736, Note_on_c, 3, 75, 112
8, 627737, Note_on_c, 3, 82, 108
8, 627748, Note_on_c, 3, 87, 109
8, 627856, Note_on_c, 3, 75, 0
8, 627857, Note_on_c, 3, 82, 0
8, 627868, Note_on_c, 3, 87, 0
8, 636000, Note_on_c, 3, 61, 83
8, 636019, Note_on_c, 3, 64, 86
8, 636026, Note_on_c, 3, 73, 86
8, 636060, Note_on_c, 3, 61, 0
8, 636079, Note_on_c, 3, 64, 0
8, 636086, Note_on_c, 3, 73, 0
8, 636250, Note_on_c, 3, 73, 89
8, 636251, Note_on_c, 3, 61, 78
8, 636255, Note_on_c, 3, 64, 97
8, 636310, Note_on_c, 3, 73, 0
8, 636311, Note_on_c, 3, 61, 0
8, 636315, Note_on_c, 3, 64, 0
8, 637086, Note_on_c, 3, 73, 97
8, 637096, Note_on_c, 3, 61, 78
8, 637106, Note_on_c, 3, 64, 86
8, 637146, Note_on_c, 3, 73, 0
8, 637156, Note_on_c, 3, 61, 0
8, 637166, Note_on_c, 3, 64, 0
8, 637325, Note_on_c, 3, 61, 95
8, 637333, Note_on_c, 3, 73, 92
8, 637344, Note_on_c, 3, 64, 86
8, 637385, Note_on_c, 3, 61, 0
8, 637393, Note_on_c, 3, 73, 0
8, 637404, Note_on_c, 3, 64, 0
8, 638169, Note_on_c, 3, 61, 96
8, 638177, Note_on_c, 3, 64, 80
8, 638181, Note_on_c, 3, 73, 88
8, 638229, Note_on_c, 3, 61, 0
8, 638237, Note_on_c, 3, 64, 0
8, 638241, Note_on_c, 3, 73, 0
8, 638402, Note_on_c, 3, 73, 97
8, 638405, Note_on_c, 3, 64, 93
8, 638410, Note_on_c, 3, 61, 79
8, 638462, Note_on_c, 3, 73, 0
8, 638465, Note_on_c, 3, 64, 0
8, 638470, Note_on_c, 3, 61, 0
8, 639241, Note_on_c, 3, 73, 80
8, 639248, Note_on_c, 3, 61, 78
8, 639266, Note_on_c, 3, 64, 98
8, 639301, Note_on_c, 3, 73, 0
8, 639308, Note_on_c, 3, 61, 0
8, 639326, Note_on_c, 3, 64, 0
8, 639969, Note_on_c, 3, 79, 106
8, 639974, Note_on_c, 3, 75, 108
8, 639985, Note_on_c, 3, 72, 98
8, 640029, Note_on_c, 3, 79, 0
8, 640034, Note_on_c, 3, 75, 0
8, 640045, Note_on_c, 3, 72, 0
8, 640084, Note_on_c, 3, 72, 108
8, 640088, Note_on_c, 3, 75, 93
8, 640102, Note_on_c, 3, 79, 105
8, 640144, Note_on_c, 3, 72, 0
8, 640148, Note_on_c, 3, 75, 0
8, 640162, Note_on_c, 3, 79, 0
8, 640321, Note_on_c, 3, 72, 83
8, 640337, Note_on_c, 3, 67, 78
8, 640343, Note_on_c, 3, 75, 76
8, 640381, Note_on_c, 3, 72, 0
8, 640397, Note_on_c, 3, 67, 0
8, 640403, Note_on_c, 3, 75, 0
8, 641163, Note_on_c, 3, 67, 107
8, 641174, Note_on_c, 3, 75, 96
8, 641188, Note_on_c, 3, 72, 92
8, 641223, Note_on_c, 3, 67, 0
8, 641234, Note_on_c, 3, 75, 0
8, 641248, Note_on_c, 3, 72, 0
8, 641285, Note_on_c, 3, 75, 107
8, 641307, Note_on_c, 3, 72, 101
8, 641307, Note_on_c, 3, 67, 97
8, 641345, Note_on_c, 3, 75, 0
8, 641367, Note_on_c, 3, 72, 0
8, 641367, Note_on_c, 3, 67, 0
8, 641402, Note_on_c, 3, 72, 91
8, 641422, Note_on_c, 3, 79, 98
8, 641428, Note_on_c, 3, 75, 108
8, 641462, Note_on_c, 3, 72, 0
8, 641482, Note_on_c, 3, 79, 0
8, 641488, Note_on_c, 3, 75, 0
8, 641654, Note_on_c, 3, 75, 74
8, 641654, Note_on_c, 3, 67, 81
8, 641663, Note_on_c, 3, 72, 79
8, 641714, Note_on_c, 3, 75, 0
8, 641714, Note_on_c, 3, 67, 0
8, 641723, Note_on_c, 3, 72, 0
8, 645366, Note_on_c, 3, 73, 98
8, 645372, Note_on_c, 3, 70, 104
8, 645372, Note_on_c, 3, 65, 110
8, 645426, Note_on_c, 3, 73, 0
8, 645432, Note_on_c, 3, 70, 0
8, 645432, Note_on_c, 3, 65, 0
8, 645485, Note_on_c, 3, 73, 110
8, 645492, Note_on_c, 3, 77, 92
8, 645508, Note_on_c, 3, 70, 98
8, 645545, Note_on_c, 3, 73, 0
8, 645552, Note_on_c, 3, 77, 0
8, 645568, Note_on_c, 3, 70, 0
8, 645735, Note_on_c, 3, 73, 77
8, 645744, Note_on_c, 3, 70, 66
8, 645745, Note_on_c, 3, 65, 70
8, 645795, Note_on_c, 3, 73, 0
8, 645804, Note_on_c, 3, 70, 0
8, 645805, Note_on_c, 3, 65, 0
8, 646680, Note_on_c, 3, 70, 97
8, 646699, Note_on_c, 3, 73, 96
8, 646701, Note_on_c, 3, 65, 104
8, 646740, Note_on_c, 3, 70, 0
8, 646759, Note_on_c, 3, 73, 0
8, 646761, Note_on_c, 3, 65, 0
8, 646812, Note_on_c, 3, 70, 93
8, 646819, Note_on_c, 3, 77, 94
8, 646821, Note_on_c, 3, 73, 106
8, 646872, Note_on_c, 3, 70, 0
8, 646879, Note_on_c, 3, 77, 0
8, 646881, Note_on_c, 3, 73, 0
8, 647046, Note_on_c, 3, 65, 67
8, 647062, Note_on_c, 3, 70, 74
8, 647062, Note_on_c, 3, 73, 84
8, 647106, Note_on_c, 3, 65, 0
8, 647122, Note_on_c, 3, 70, 0
8, 647122, Note_on_c, 3, 73, 0
8, 647280, Note_on_c, 3, 65, 106
8, 647282, Note_on_c, 3, 70, 92
8, 647307, Note_on_c, 3, 73, 107
8, 647340, Note_on_c, 3, 65, 0
8, 647342, Note_on_c, 3, 70, 0
8, 647367, Note_on_c, 3, 73, 0
8, 647401, Note_on_c, 3, 70, 95
8, 647405, Note_on_c, 3, 65, 101
8, 647415, Note_on_c, 3, 73, 102
8, 647461, Note_on_c, 3, 70, 0
8, 647465, Note_on_c, 3, 65, 0
8, 647475, Note_on_c, 3, 73, 0
8, 647522, Note_on_c, 3, 77, 108
8, 647531, Note_on_c, 3, 73, 107
8, 647536, Note_on_c, 3, 70, 109
8, 647582, Note_on_c, 3, 77, 0
8, 647591, Note_on_c, 3, 73, 0
8, 647596, Note_on_c, 3, 70, 0
8, 647762, Note_on_c, 3, 65, 77
8, 647784, Note_on_c, 3, 70, 85
8, 647787, Note_on_c, 3, 73, 79
8, 647822, Note_on_c, 3, 65, 0
8, 647844, Note_on_c, 3, 70, 0
8, 647847, Note_on_c, 3, 73, 0
8, 648012, Note_on_c, 3, 65, 98
8, 648020, Note_on_c, 3, 73, 95
8, 648028, Note_on_c, 3, 70, 97
8, 648072, Note_on_c, 3, 65, 0
8, 648080, Note_on_c, 3, 73, 0
8, 648088, Note_on_c, 3, 70, 0
8, 648124, Note_on_c, 3, 70, 99
8, 648135, Note_on_c, 3, 73, 96
8, 648140, Note_on_c, 3, 77, 98
8, 648184, Note_on_c, 3, 70, 0
8, 648195, Note_on_c, 3, 73, 0
8, 648200, Note_on_c, 3, 77, 0
8, 648362, Note_on_c, 3, 82, 94
8, 648362, Note_on_c, 3, 73, 105
8, 648379, Note_on_c, 3, 77, 109
8, 648422, Note_on_c, 3, 82, 0
8, 648422, Note_on_c, 3, 73, 0
8, 648439, Note_on_c, 3, 77, 0
8, 648615, Note_on_c, 3, 70, 69
8, 648615, Note_on_c, 3, 73, 82
8, 648618, Note_on_c, 3, 65, 82
8, 648675, Note_on_c, 3, 70, 0
8, 648675, Note_on_c, 3, 73, 0
8, 648678, Note_on_c, 3, 65, 0
8, 648855, Note_on_c, 3, 65, 107
8, 648858, Note_on_c, 3, 73, 100
8, 648864, Note_on_c, 3, 70, 105
8, 648915, Note_on_c, 3, 65, 0
8, 648918, Note_on_c, 3, 73, 0
8, 648924, Note_on_c, 3, 70, 0
8, 648971, Note_on_c, 3, 65, 104
8, 648971, Note_on_c, 3, 70, 94
8, 648985, Note_on_c, 3, 73, 94
8, 649031, Note_on_c, 3, 65, 0
8, 649031, Note_on_c, 3, 70, 0
8, 649045, Note_on_c, 3, 73, 0
8, 649099, Note_on_c, 3, 77, 104
8, 649103, Note_on_c, 3, 73, 91
8, 649108, Note_on_c, 3, 70, 94
8, 649159, Note_on_c, 3, 77, 0
8, 649163, Note_on_c, 3, 73, 0
8, 649168, Note_on_c, 3, 70, 0
8, 649320, Note_on_c, 3, 73, 82
8, 649324, Note_on_c, 3, 82, 67
8, 649348, Note_on_c, 3, 77, 85
8, 649380, Note_on_c, 3, 73, 0
8, 649384, Note_on_c, 3, 82, 0
8, 649408, Note_on_c, 3, 77, 0
8, 649560, Note_on_c, 3, 70, 81
8, 649564, Note_on_c, 3, 65, 71
8, 649576, Note_on_c, 3, 73, 70
8, 649620, Note_on_c, 3, 70, 0
8, 649624, Note_on_c, 3, 65, 0
8, 649636, Note_on_c, 3, 73, 0
8, 649804, Note_on_c, 3, 65, 96
8, 649819, Note_on_c, 3, 73, 109
8, 649820, Note_on_c, 3, 70, 108
8, 649864, Note_on_c, 3, 65, 0
8, 649879, Note_on_c, 3, 73, 0
8, 649880, Note_on_c, 3, 70, 0
8, 649920, Note_on_c, 3, 73, 108
8, 649942, Note_on_c, 3, 77, 110
8, 649943, Note_on_c, 3, 70, 111
8, 649980, Note_on_c, 3, 73, 0
8, 650002, Note_on_c, 3, 77, 0
8, 650003, Note_on_c, 3, 70, 0
8, 650412, Note_on_c, 3, 73, 109
8, 650413, Note_on_c, 3, 70, 108
8, 650422, Note_on_c, 3, 65, 96
8, 650472, Note_on_c, 3, 73, 0
8, 650473, Note_on_c, 3, 70, 0
8, 650482, Note_on_c, 3, 65, 0
8, 650525, Note_on_c, 3, 73, 93
8, 650526, Note_on_c, 3, 65, 96
8, 650528, Note_on_c, 3, 70, 110
8, 650585, Note_on_c, 3, 73, 0
8, 650586, Note_on_c, 3, 65, 0
8, 650588, Note_on_c, 3, 70, 0
8, 650646, Note_on_c, 3, 73, 94
8, 650654, Note_on_c, 3, 70, 97
8, 650665, Note_on_c, 3, 77, 97
8, 650706, Note_on_c, 3, 73, 0
8, 650714, Note_on_c, 3, 70, 0
8, 650725, Note_on_c, 3, 77, 0
8, 650890, Note_on_c, 3, 73, 69
8, 650893, Note_on_c, 3, 77, 78
8, 650899, Note_on_c, 3, 82, 84
8, 650950, Note_on_c, 3, 73, 0
8, 650953, Note_on_c, 3, 77, 0
8, 650959, Note_on_c, 3, 82, 0
8, 651129, Note_on_c, 3, 70, 72
8, 651139, Note_on_c, 3, 65, 75
8, 651140, Note_on_c, 3, 73, 83
8, 651189, Note_on_c, 3, 70, 0
8, 651199, Note_on_c, 3, 65, 0
8, 651200, Note_on_c, 3, 73, 0
8, 651373, Note_on_c, 3, 65, 93
8, 651375, Note_on_c, 3, 73, 98
8, 651383, Note_on_c, 3, 70, 105
8, 651433, Note_on_c, 3, 65, 0
8, 651435, Note_on_c, 3, 73, 0
8, 651443, Note_on_c, 3, 70, 0
8, 651491, Note_on_c, 3, 73, 105
8, 651493, Note_on_c, 3, 70, 110
8, 651495, Note_on_c, 3, 65, 97
8, 651551, Note_on_c, 3, 73, 0
8, 651553, Note_on_c, 3, 70, 0
8, 651555, Note_on_c, 3, 65, 0
8, 651601, Note_on_c, 3, 73, 95
8, 651609, Note_on_c, 3, 77, 96
8, 651613, Note_on_c, 3, 70, 92
8, 651661, Note_on_c, 3, 73, 0
8, 651669, Note_on_c, 3, 77, 0
8, 651673, Note_on_c, 3, 70, 0
8, 651842, Note_on_c, 3, 73, 83
8, 651849, Note_on_c, 3, 77, 65
8, 651862, Note_on_c, 3, 82, 72
8, 651902, Note_on_c, 3, 73, 0
8, 651909, Note_on_c, 3, 77, 0
8, 651922, Note_on_c, 3, 82, 0
8, 652095, Note_on_c, 3, 70, 97
8, 652099, Note_on_c, 3, 65, 109
8, 652100, Note_on_c, 3, 73, 110
8, 652155, Note_on_c, 3, 70, 0
8, 652159, Note_on_c, 3, 65, 0
8, 652160, Note_on_c, 3, 73, 0
8, 652203, Note_on_c, 3, 73, 94
8, 652207, Note_on_c, 3, 65, 92
8, 652228, Note_on_c, 3, 70, 95
8, 652263, Note_on_c, 3, 73, 0
8, 652267, Note_on_c, 3, 65, 0
8, 652288, Note_on_c, 3, 70, 0
8, 652329, Note_on_c, 3, 73, 101
8, 652335, Note_on_c, 3, 70, 102
8, 652339, Note_on_c, 3, 77, 95
8, 652389, Note_on_c, 3, 73, 0
8, 652395, Note_on_c, 3, 70, 0
8, 652399, Note_on_c, 3, 77, 0
8, 652560, Note_on_c, 3, 73, 81
8, 652581, Note_on_c, 3, 82, 81
8, 652585, Note_on_c, 3, 77, 84
8, 652620, Note_on_c, 3, 73, 0
8, 652641, Note_on_c, 3, 82, 0
8, 652645, Note_on_c, 3, 77, 0
8, 652811, Note_on_c, 3, 65, 67
8, 652812, Note_on_c, 3, 70, 70
8, 652820, Note_on_c, 3, 73, 69
8, 652871, Note_on_c, 3, 65, 0
8, 652872, Note_on_c, 3, 70, 0
8, 652880, Note_on_c, 3, 73, 0
8, 653046, Note_on_c, 3, 73, 104
8, 653049, Note_on_c, 3, 70, 92
8, 653066, Note_on_c, 3, 65, 106
8, 653106, Note_on_c, 3, 73, 0
8, 653109, Note_on_c, 3, 70, 0
8, 653126, Note_on_c, 3, 65, 0
8, 653163, Note_on_c, 3, 73, 100
8, 653167, Note_on_c, 3, 70, 94
8, 653168, Note_on_c, 3, 65, 104
8, 653223, Note_on_c, 3, 73, 0
8, 653227, Note_on_c, 3, 70, 0
8, 653228, Note_on_c, 3, 65, 0
8, 653282, Note_on_c, 3, 73, 106
8, 653290, Note_on_c, 3, 70, 102
8, 653293, Note_on_c, 3, 77, 105
8, 653342, Note_on_c, 3, 73, 0
8, 653350, Note_on_c, 3, 70, 0
8, 653353, Note_on_c, 3, 77, 0
8, 653534, Note_on_c, 3, 82, 78
8, 653536, Note_on_c, 3, 73, 77
8, 653544, Note_on_c, 3, 77, 65
8, 653594, Note_on_c, 3, 82, 0
8, 653596, Note_on_c, 3, 73, 0
8, 653604, Note_on_c, 3, 77, 0
8, 653769, Note_on_c, 3, 65, 91
8, 653771, Note_on_c, 3, 70, 108
8, 653783, Note_on_c, 3, 73, 99
8, 653829, Note_on_c, 3, 65, 0
8, 653831, Note_on_c, 3, 70, 0
8, 653843, Note_on_c, 3, 73, 0
8, 653886, Note_on_c, 3, 70, 91
8, 653890, Note_on_c, 3, 65, 92
8, 653904, Note_on_c, 3, 73, 100
8, 653946, Note_on_c, 3, 70, 0
8, 653950, Note_on_c, 3, 65, 0
8, 653964, Note_on_c, 3, 73, 0
8, 654007, Note_on_c, 3, 77, 95
8, 654014, Note_on_c, 3, 73, 92
8, 654022, Note_on_c, 3, 70, 92
8, 654067, Note_on_c, 3, 77, 0
8, 654074, Note_on_c, 3, 73, 0
8, 654082, Note_on_c, 3, 70, 0
8, 654240, Note_on_c, 3, 82, 68
8, 654243, Note_on_c, 3, 73, 81
8, 654266, Note_on_c, 3, 77, 72
8, 654300, Note_on_c, 3, 82, 0
8, 654303, Note_on_c, 3, 73, 0
8, 654326, Note_on_c, 3, 77, 0
8, 654481, Note_on_c, 3, 73, 83
8, 654497, Note_on_c, 3, 65, 80
8, 654499, Note_on_c, 3, 70, 65
8, 654541, Note_on_c, 3, 73, 0
8, 654557, Note_on_c, 3, 65, 0
8, 654559, Note_on_c, 3, 70, 0
8, 654725, Note_on_c, 3, 65, 103
8, 654726, Note_on_c, 3, 73, 93
8, 654737, Note_on_c, 3, 70, 108
8, 654785, Note_on_c, 3, 65, 0
8, 654786, Note_on_c, 3, 73, 0
8, 654797, Note_on_c, 3, 70, 0
8, 654845, Note_on_c, 3, 73, 107
8, 654861, Note_on_c, 3, 65, 111
8, 654865, Note_on_c, 3, 70, 92
8, 654905, Note_on_c, 3, 73, 0
8, 654921, Note_on_c, 3, 65, 0
8, 654925, Note_on_c, 3, 70, 0
8, 654976, Note_on_c, 3, 73, 105
8, 654978, Note_on_c, 3, 70, 99
8, 654984, Note_on_c, 3, 77, 100
8, 655036, Note_on_c, 3, 73, 0
8, 655038, Note_on_c, 3, 70, 0
8, 655044, Note_on_c, 3, 77, 0
8, 655082, Note_on_c, 3, 82, 76
8, 655093, Note_on_c, 3, 73, 69
8, 655096, Note_on_c, 3, 77, 70
8, 655142, Note_on_c, 3, 82, 0
8, 655153, Note_on_c, 3, 73, 0
8, 655156, Note_on_c, 3, 77, 0
8, 655332, Note_on_c, 3, 85, 114
8, 655341, Note_on_c, 3, 82, 122
8, 655348, Note_on_c, 3, 77, 110
8, 655392, Note_on_c, 3, 85, 0
8, 655401, Note_on_c, 3, 82, 0
8, 655408, Note_on_c, 3, 77, 0
8, 655408, End_track
9, 0, Start_track
9, 0, Title_t, "Clarinetti II"
9, 0, MIDI_port, 0
9, 0, Program_c, 3, 71
9, 208817, Note_on_c, 3, 63, 69
9, 208864, Note_on_c, 3, 63, 0
9, 208932, Note_on_c, 3, 64, 67
9, 208979, Note_on_c, 3, 64, 0
9, 209059, Note_on_c, 3, 65, 62
9, 209106, Note_on_c, 3, 65, 0
9, 209182, Note_on_c, 3, 66, 58
9, 209229, Note_on_c, 3, 66, 0
9, 209291, Note_on_c, 3, 67, 66
9, 209338, Note_on_c, 3, 67, 0
9, 209762, Note_on_c, 3, 61, 48
9, 209793, Note_on_c, 3, 61, 0
9, 209865, Note_on_c, 3, 62, 53
9, 209897, Note_on_c, 3, 62, 0
9, 209938, Note_on_c, 3, 63, 45
9, 209970, Note_on_c, 3, 63, 0
9, 210009, Note_on_c, 3, 64, 49
9, 210040, Note_on_c, 3, 64, 0
9, 210099, Note_on_c, 3, 65, 51
9, 210131, Note_on_c, 3, 65, 0
9, 210167, Note_on_c, 3, 66, 67
9, 210199, Note_on_c, 3, 66, 0
9, 210243, Note_on_c, 3, 67, 82
9, 210290, Note_on_c, 3, 67, 0
9, 216723, Note_on_c, 3, 73, 92
9, 216738, Note_on_c, 3, 67, 100
9, 216830, Note_on_c, 3, 73, 0
9, 216845, Note_on_c, 3, 67, 0
9, 217924, Note_on_c, 3, 67, 108
9, 217948, Note_on_c, 3, 73, 91
9, 218031, Note_on_c, 3, 67, 0
9, 218055, Note_on_c, 3, 73, 0
9, 221281, Note_on_c, 3, 73, 99
9, 221292, Note_on_c, 3, 67, 94
9, 221388, Note_on_c, 3, 73, 0
9, 221399, Note_on_c, 3, 67, 0
9, 222972, Note_on_c, 3, 67, 103
9, 222977, Note_on_c, 3, 73, 107
9, 223079, Note_on_c, 3, 67, 0
9, 223084, Note_on_c, 3, 73, 0
9, 223696, Note_on_c, 3, 68, 83
9, 223734, Note_on_c, 3, 68, 0
9, 223798, Note_on_c, 3, 69, 87
9, 223836, Note_on_c, 3, 69, 0
9, 223896, Note_on_c, 3, 70, 89
9, 223934, Note_on_c, 3, 70, 0
9, 223994, Note_on_c, 3, 71, 94
9, 224032, Note_on_c, 3, 71, 0
9, 224073, Note_on_c, 3, 72, 108
9, 224111, Note_on_c, 3, 72, 0
9, 224163, Note_on_c, 3, 67, 101
9, 224179, Note_on_c, 3, 73, 112
9, 224194, Note_on_c, 3, 67, 0
9, 224210, Note_on_c, 3, 73, 0
9, 224244, Note_on_c, 3, 68, 115
9, 224261, Note_on_c, 3, 74, 110
9, 224276, Note_on_c, 3, 68, 0
9, 224293, Note_on_c, 3, 74, 0
9, 224323, Note_on_c, 3, 75, 101
9, 224326, Note_on_c, 3, 69, 106
9, 224355, Note_on_c, 3, 75, 0
9, 224358, Note_on_c, 3, 69, 0
9, 224409, Note_on_c, 3, 76, 121
9, 224416, Note_on_c, 3, 70, 119
9, 224440, Note_on_c, 3, 76, 0
9, 224447, Note_on_c, 3, 70, 0
9, 224488, Note_on_c, 3, 71, 122
9, 224497, Note_on_c, 3, 77, 114
9, 224520, Note_on_c, 3, 71, 0
9, 224529, Note_on_c, 3, 77, 0
9, 224566, Note_on_c, 3, 78, 123
9, 224582, Note_on_c, 3, 72, 119
9, 224598, Note_on_c, 3, 78, 0
9, 224614, Note_on_c, 3, 72, 0
9, 224648, Note_on_c, 3, 73, 122
9, 224663, Note_on_c, 3, 79, 127
9, 224695, Note_on_c, 3, 73, 0
9, 224710, Note_on_c, 3, 79, 0
9, 233533, Note_on_c, 3, 68, 85
9, 233571, Note_on_c, 3, 68, 0
9, 233632, Note_on_c, 3, 69, 84
9, 233670, Note_on_c, 3, 69, 0
9, 233734, Note_on_c, 3, 70, 96
9, 233772, Note_on_c, 3, 70, 0
9, 233825, Note_on_c, 3, 71, 102
9, 233863, Note_on_c, 3, 71, 0
9, 233927, Note_on_c, 3, 72, 93
9, 233965, Note_on_c, 3, 72, 0
9, 234023, Note_on_c, 3, 67, 109
9, 234025, Note_on_c, 3, 73, 105
9, 234054, Note_on_c, 3, 67, 0
9, 234056, Note_on_c, 3, 73, 0
9, 234080, Note_on_c, 3, 68, 110
9, 234083, Note_on_c, 3, 74, 104
9, 234112, Note_on_c, 3, 68, 0
9, 234115, Note_on_c, 3, 74, 0
9, 234163, Note_on_c, 3, 69, 106
9, 234166, Note_on_c, 3, 75, 117
9, 234195, Note_on_c, 3, 69, 0
9, 234198, Note_on_c, 3, 75, 0
9, 234243, Note_on_c, 3, 76, 122
9, 234262, Note_on_c, 3, 70, 112
9, 234274, Note_on_c, 3, 76, 0
9, 234293, Note_on_c, 3, 70, 0
9, 234340, Note_on_c, 3, 77, 109
9, 234348, Note_on_c, 3, 71, 113
9, 234372, Note_on_c, 3, 77, 0
9, 234380, Note_on_c, 3, 71, 0
9, 234407, Note_on_c, 3, 72, 110
9, 234423, Note_on_c, 3, 78, 115
9, 234439, Note_on_c, 3, 72, 0
9, 234455, Note_on_c, 3, 78, 0
9, 234484, Note_on_c, 3, 79, 117
9, 234496, Note_on_c, 3, 73, 119
9, 234531, Note_on_c, 3, 79, 0
9, 234543, Note_on_c, 3, 73, 0
9, 243855, Note_on_c, 3, 73, 94
9, 243856, Note_on_c, 3, 67, 111
9, 243962, Note_on_c, 3, 73, 0
9, 243963, Note_on_c, 3, 67, 0
9, 245045, Note_on_c, 3, 67, 110
9, 245052, Note_on_c, 3, 73, 94
9, 245152, Note_on_c, 3, 67, 0
9, 245159, Note_on_c, 3, 73, 0
9, 246736, Note_on_c, 3, 73, 109
9, 246736, Note_on_c, 3, 67, 95
9, 246843, Note_on_c, 3, 73, 0
9, 246843, Note_on_c, 3, 67, 0
9, 247930, Note_on_c, 3, 73, 95
9, 247940, Note_on_c, 3, 67, 107
9, 248037, Note_on_c, 3, 73, 0
9, 248047, Note_on_c, 3, 67, 0
9, 248667, Note_on_c, 3, 65, 110
9, 248713, Note_on_c, 3, 67, 116
9, 248735, Note_on_c, 3, 65, 0
9, 248782, Note_on_c, 3, 67, 0
9, 248798, Note_on_c, 3, 68, 113
9, 248857, Note_on_c, 3, 70, 112
9, 248866, Note_on_c, 3, 68, 0
9, 248918, Note_on_c, 3, 72, 113
9, 248925, Note_on_c, 3, 70, 0
9, 248986, Note_on_c, 3, 72, 0
9, 249010, Note_on_c, 3, 73, 104
9, 249065, Note_on_c, 3, 75, 108
9, 249079, Note_on_c, 3, 73, 0
9, 249133, Note_on_c, 3, 75, 0
9, 249144, Note_on_c, 3, 77, 117
9, 249384, Note_on_c, 3, 77, 0
9, 250824, Note_on_c, 3, 65, 108
9, 250886, Note_on_c, 3, 67, 113
9, 250892, Note_on_c, 3, 65, 0
9, 250955, Note_on_c, 3, 67, 0
9, 250962, Note_on_c, 3, 68, 116
9, 251030, Note_on_c, 3, 68, 0
9, 251030, Note_on_c, 3, 70, 113
9, 251080, Note_on_c, 3, 72, 114
9, 251098, Note_on_c, 3, 70, 0
9, 251148, Note_on_c, 3, 72, 0
9, 251151, Note_on_c, 3, 73, 104
9, 251220, Note_on_c, 3, 73, 0
9, 251231, Note_on_c, 3, 75, 104
9, 251299, Note_on_c, 3, 75, 0
9, 253452, Note_on_c, 3, 65, 122
9, 253515, Note_on_c, 3, 67, 119
9, 253520, Note_on_c, 3, 65, 0
9, 253584, Note_on_c, 3, 67, 0
9, 253598, Note_on_c, 3, 68, 116
9, 253666, Note_on_c, 3, 68, 0
9, 253670, Note_on_c, 3, 70, 115
9, 253732, Note_on_c, 3, 72, 106
9, 253738, Note_on_c, 3, 70, 0
9, 253800, Note_on_c, 3, 72, 0
9, 253800, Note_on_c, 3, 73, 111
9, 253869, Note_on_c, 3, 73, 0
9, 253873, Note_on_c, 3, 75, 121
9, 253929, Note_on_c, 3, 77, 106
9, 253941, Note_on_c, 3, 75, 0
9, 254169, Note_on_c, 3, 77, 0
9, 263534, Note_on_c, 3, 70, 106
9, 263614, Note_on_c, 3, 70, 0
9, 263682, Note_on_c, 3, 73, 119
9, 263762, Note_on_c, 3, 73, 0
9, 263869, Note_on_c, 3, 78, 117
9, 263949, Note_on_c, 3, 78, 0
9, 264012, Note_on_c, 3, 80, 114
9, 264092, Note_on_c, 3, 80, 0
9, 264173, Note_on_c, 3, 75, 108
9, 264253, Note_on_c, 3, 75, 0
9, 264332, Note_on_c, 3, 72, 111
9, 264412, Note_on_c, 3, 72, 0
9, 277680, Note_on_c, 3, 64, 68
9, 277690, Note_on_c, 3, 76, 67
9, 277800, Note_on_c, 3, 64, 0
9, 277810, Note_on_c, 3, 76, 0
9, 278169, Note_on_c, 3, 76, 76
9, 278182, Note_on_c, 3, 64, 85
9, 278289, Note_on_c, 3, 76, 0
9, 278302, Note_on_c, 3, 64, 0
9, 278642, Note_on_c, 3, 76, 80
9, 278656, Note_on_c, 3, 64, 68
9, 278762, Note_on_c, 3, 76, 0
9, 278776, Note_on_c, 3, 64, 0
9, 279137, Note_on_c, 3, 76, 71
9, 279148, Note_on_c, 3, 64, 85
9, 279257, Note_on_c, 3, 76, 0
9, 279268, Note_on_c, 3, 64, 0
9, 279604, Note_on_c, 3, 64, 80
9, 279612, Note_on_c, 3, 76, 73
9, 279724, Note_on_c, 3, 64, 0
9, 279732, Note_on_c, 3, 76, 0
9, 279853, Note_on_c, 3, 87, 95
9, 279913, Note_on_c, 3, 87, 0
9, 279919, Note_on_c, 3, 84, 98
9, 279963, Note_on_c, 3, 82, 92
9, 279979, Note_on_c, 3, 84, 0
9, 280023, Note_on_c, 3, 82, 0
9, 280023, Note_on_c, 3, 78, 107
9, 280083, Note_on_c, 3, 78, 0
9, 280106, Note_on_c, 3, 75, 102
9, 280149, Note_on_c, 3, 72, 100
9, 280166, Note_on_c, 3, 75, 0
9, 280209, Note_on_c, 3, 72, 0
9, 280226, Note_on_c, 3, 70, 95
9, 280262, Note_on_c, 3, 66, 110
9, 280286, Note_on_c, 3, 70, 0
9, 280322, Note_on_c, 3, 66, 0
9, 280323, Note_on_c, 3, 63, 100
9, 280383, Note_on_c, 3, 63, 0
9, 280392, Note_on_c, 3, 66, 108
9, 280452, Note_on_c, 3, 66, 0
9, 280452, Note_on_c, 3, 70, 109
9, 280512, Note_on_c, 3, 70, 0
9, 280526, Note_on_c, 3, 72, 96
9, 280583, Note_on_c, 3, 75, 94
9, 280586, Note_on_c, 3, 72, 0
9, 280640, Note_on_c, 3, 78, 98
9, 280643, Note_on_c, 3, 75, 0
9, 280689, Note_on_c, 3, 82, 106
9, 280700, Note_on_c, 3, 78, 0
9, 280747, Note_on_c, 3, 84, 92
9, 280749, Note_on_c, 3, 82, 0
9, 280804, Note_on_c, 3, 87, 96
9, 280807, Note_on_c, 3, 84, 0
9, 280924, Note_on_c, 3, 87, 0
9, 281524, Note_on_c, 3, 76, 68
9, 281545, Note_on_c, 3, 64, 65
9, 281644, Note_on_c, 3, 76, 0
9, 281665, Note_on_c, 3, 64, 0
9, 282017, Note_on_c, 3, 76, 69
9, 282019, Note_on_c, 3, 64, 66
9, 282137, Note_on_c, 3, 76, 0
9, 282139, Note_on_c, 3, 64, 0
9, 282483, Note_on_c, 3, 76, 83
9, 282491, Note_on_c, 3, 64, 72
9, 282603, Note_on_c, 3, 76, 0
9, 282611, Note_on_c, 3, 64, 0
9, 282973, Note_on_c, 3, 76, 79
9, 282985, Note_on_c, 3, 64, 77
9, 283093, Note_on_c, 3, 76, 0
9, 283105, Note_on_c, 3, 64, 0
9, 283450, Note_on_c, 3, 76, 84
9, 283459, Note_on_c, 3, 64, 84
9, 283570, Note_on_c, 3, 76, 0
9, 283579, Note_on_c, 3, 64, 0
9, 283934, Note_on_c, 3, 64, 84
9, 283945, Note_on_c, 3, 76, 78
9, 284054, Note_on_c, 3, 64, 0
9, 284065, Note_on_c, 3, 76, 0
9, 284187, Note_on_c, 3, 87, 96
9, 284247, Note_on_c, 3, 87, 0
9, 284248, Note_on_c, 3, 84, 106
9, 284298, Note_on_c, 3, 82, 105
9, 284308, Note_on_c, 3, 84, 0
9, 284358, Note_on_c, 3, 82, 0
9, 284365, Note_on_c, 3, 78, 92
9, 284412, Note_on_c, 3, 75, 105
9, 284425, Note_on_c, 3, 78, 0
9, 284472, Note_on_c, 3, 75, 0
9, 284483, Note_on_c, 3, 72, 110
9, 284535, Note_on_c, 3, 70, 96
9, 284543, Note_on_c, 3, 72, 0
9, 284593, Note_on_c, 3, 66, 108
9, 284595, Note_on_c, 3, 70, 0
9, 284653, Note_on_c, 3, 66, 0
9, 284669, Note_on_c, 3, 63, 92
9, 284717, Note_on_c, 3, 66, 107
9, 284729, Note_on_c, 3, 63, 0
9, 284777, Note_on_c, 3, 66, 0
9, 284782, Note_on_c, 3, 70, 94
9, 284842, Note_on_c, 3, 70, 0
9, 284845, Note_on_c, 3, 72, 94
9, 284901, Note_on_c, 3, 75, 110
9, 284905, Note_on_c, 3, 72, 0
9, 284955, Note_on_c, 3, 78, 93
9, 284961, Note_on_c, 3, 75, 0
9, 285001, Note_on_c, 3, 82, 101
9, 285015, Note_on_c, 3, 78, 0
9, 285061, Note_on_c, 3, 82, 0
9, 285064, Note_on_c, 3, 84, 96
9, 285124, Note_on_c, 3, 84, 0
9, 285370, Note_on_c, 3, 76, 76
9, 285372, Note_on_c, 3, 64, 85
9, 285490, Note_on_c, 3, 76, 0
9, 285492, Note_on_c, 3, 64, 0
9, 285842, Note_on_c, 3, 64, 68
9, 285846, Note_on_c, 3, 76, 79
9, 285962, Note_on_c, 3, 64, 0
9, 285966, Note_on_c, 3, 76, 0
9, 286332, Note_on_c, 3, 76, 80
9, 286349, Note_on_c, 3, 64, 70
9, 286452, Note_on_c, 3, 76, 0
9, 286469, Note_on_c, 3, 64, 0
9, 286576, Note_on_c, 3, 87, 109
9, 286629, Note_on_c, 3, 84, 97
9, 286636, Note_on_c, 3, 87, 0
9, 286689, Note_on_c, 3, 84, 0
9, 286705, Note_on_c, 3, 82, 107
9, 286755, Note_on_c, 3, 78, 93
9, 286765, Note_on_c, 3, 82, 0
9, 286815, Note_on_c, 3, 78, 0
9, 286824, Note_on_c, 3, 75, 103
9, 286866, Note_on_c, 3, 72, 106
9, 286884, Note_on_c, 3, 75, 0
9, 286926, Note_on_c, 3, 72, 0
9, 286944, Note_on_c, 3, 70, 94
9, 286980, Note_on_c, 3, 66, 94
9, 287004, Note_on_c, 3, 70, 0
9, 287040, Note_on_c, 3, 66, 0
9, 287054, Note_on_c, 3, 63, 104
9, 287104, Note_on_c, 3, 66, 108
9, 287114, Note_on_c, 3, 63, 0
9, 287164, Note_on_c, 3, 66, 0
9, 287168, Note_on_c, 3, 70, 100
9, 287227, Note_on_c, 3, 72, 93
9, 287228, Note_on_c, 3, 70, 0
9, 287287, Note_on_c, 3, 72, 0
9, 287302, Note_on_c, 3, 75, 91
9, 287357, Note_on_c, 3, 78, 101
9, 287362, Note_on_c, 3, 75, 0
9, 287406, Note_on_c, 3, 82, 100
9, 287417, Note_on_c, 3, 78, 0
9, 287464, Note_on_c, 3, 84, 101
9, 287466, Note_on_c, 3, 82, 0
9, 287524, Note_on_c, 3, 84, 0
9, 287547, Note_on_c, 3, 87, 101
9, 287598, Note_on_c, 3, 84, 107
9, 287607, Note_on_c, 3, 87, 0
9, 287643, Note_on_c, 3, 82, 92
9, 287658, Note_on_c, 3, 84, 0
9, 287703, Note_on_c, 3, 82, 0
9, 287703, Note_on_c, 3, 78, 104
9, 287763, Note_on_c, 3, 78, 0
9, 287780, Note_on_c, 3, 75, 102
9, 287840, Note_on_c, 3, 75, 0
9, 287845, Note_on_c, 3, 72, 96
9, 287889, Note_on_c, 3, 70, 109
9, 287905, Note_on_c, 3, 72, 0
9, 287949, Note_on_c, 3, 70, 0
9, 287966, Note_on_c, 3, 66, 109
9, 288023, Note_on_c, 3, 63, 107
9, 288026, Note_on_c, 3, 66, 0
9, 288263, Note_on_c, 3, 63, 0
9, 289222, Note_on_c, 3, 68, 94
9, 289260, Note_on_c, 3, 68, 0
9, 289298, Note_on_c, 3, 69, 98
9, 289336, Note_on_c, 3, 69, 0
9, 289418, Note_on_c, 3, 70, 94
9, 289456, Note_on_c, 3, 70, 0
9, 289491, Note_on_c, 3, 71, 95
9, 289529, Note_on_c, 3, 71, 0
9, 289592, Note_on_c, 3, 72, 95
9, 289630, Note_on_c, 3, 72, 0
9, 289693, Note_on_c, 3, 61, 100
9, 289698, Note_on_c, 3, 73, 100
9, 289724, Note_on_c, 3, 61, 0
9, 289745, Note_on_c, 3, 73, 0
9, 289769, Note_on_c, 3, 62, 101
9, 289801, Note_on_c, 3, 62, 0
9, 289845, Note_on_c, 3, 63, 101
9, 289877, Note_on_c, 3, 63, 0
9, 289930, Note_on_c, 3, 64, 111
9, 289961, Note_on_c, 3, 64, 0
9, 290019, Note_on_c, 3, 65, 104
9, 290051, Note_on_c, 3, 65, 0
9, 290103, Note_on_c, 3, 66, 108
9, 290135, Note_on_c, 3, 66, 0
9, 290171, Note_on_c, 3, 67, 105
9, 290178, Note_on_c, 3, 72, 96
9, 290202, Note_on_c, 3, 67, 0
9, 290209, Note_on_c, 3, 72, 0
9, 290256, Note_on_c, 3, 68, 109
9, 290262, Note_on_c, 3, 73, 98
9, 290288, Note_on_c, 3, 68, 0
9, 290294, Note_on_c, 3, 73, 0
9, 290328, Note_on_c, 3, 74, 111
9, 290332, Note_on_c, 3, 69, 91
9, 290360, Note_on_c, 3, 74, 0
9, 290364, Note_on_c, 3, 69, 0
9, 290405, Note_on_c, 3, 75, 97
9, 290417, Note_on_c, 3, 70, 103
9, 290436, Note_on_c, 3, 75, 0
9, 290448, Note_on_c, 3, 70, 0
9, 290500, Note_on_c, 3, 76, 107
9, 290503, Note_on_c, 3, 71, 108
9, 290532, Note_on_c, 3, 76, 0
9, 290535, Note_on_c, 3, 71, 0
9, 290581, Note_on_c, 3, 72, 92
9, 290584, Note_on_c, 3, 77, 91
9, 290613, Note_on_c, 3, 72, 0
9, 290616, Note_on_c, 3, 77, 0
9, 290641, Note_on_c, 3, 73, 92
9, 290649, Note_on_c, 3, 78, 96
9, 290761, Note_on_c, 3, 73, 0
9, 290769, Note_on_c, 3, 78, 0
9, 291374, Note_on_c, 3, 73, 108
9, 291377, Note_on_c, 3, 67, 98
9, 291481, Note_on_c, 3, 73, 0
9, 291484, Note_on_c, 3, 67, 0
9, 292576, Note_on_c, 3, 67, 101
9, 292587, Note_on_c, 3, 73, 101
9, 292683, Note_on_c, 3, 67, 0
9, 292694, Note_on_c, 3, 73, 0
9, 295943, Note_on_c, 3, 73, 96
9, 295946, Note_on_c, 3, 67, 110
9, 296050, Note_on_c, 3, 73, 0
9, 296053, Note_on_c, 3, 67, 0
9, 297602, Note_on_c, 3, 73, 103
9, 297610, Note_on_c, 3, 67, 95
9, 297709, Note_on_c, 3, 73, 0
9, 297717, Note_on_c, 3, 67, 0
9, 298802, Note_on_c, 3, 67, 109
9, 298826, Note_on_c, 3, 73, 107
9, 298909, Note_on_c, 3, 67, 0
9, 298933, Note_on_c, 3, 73, 0
9, 318002, Note_on_c, 3, 76, 102
9, 318842, Note_on_c, 3, 76, 0
9, 318982, Note_on_c, 3, 76, 101
9, 319342, Note_on_c, 3, 76, 0
9, 319448, Note_on_c, 3, 76, 100
9, 319808, Note_on_c, 3, 76, 0
9, 319936, Note_on_c, 3, 76, 105
9, 320296, Note_on_c, 3, 76, 0
9, 320423, Note_on_c, 3, 76, 100
9, 320783, Note_on_c, 3, 76, 0
9, 320894, Note_on_c, 3, 76, 101
9, 321254, Note_on_c, 3, 76, 0
9, 321381, Note_on_c, 3, 76, 91
9, 322221, Note_on_c, 3, 76, 0
9, 322341, Note_on_c, 3, 76, 95
9, 322701, Note_on_c, 3, 76, 0
9, 322826, Note_on_c, 3, 76, 103
9, 323186, Note_on_c, 3, 76, 0
9, 323307, Note_on_c, 3, 76, 105
9, 323667, Note_on_c, 3, 76, 0
9, 323786, Note_on_c, 3, 76, 103
9, 324146, Note_on_c, 3, 76, 0
9, 340588, Note_on_c, 3, 76, 96
9, 340948, Note_on_c, 3, 76, 0
9, 341040, Note_on_c, 3, 76, 107
9, 341400, Note_on_c, 3, 76, 0
9, 341528, Note_on_c, 3, 76, 104
9, 341888, Note_on_c, 3, 76, 0
9, 342001, Note_on_c, 3, 76, 111
9, 342361, Note_on_c, 3, 76, 0
9, 342487, Note_on_c, 3, 76, 107
9, 342847, Note_on_c, 3, 76, 0
9, 342971, Note_on_c, 3, 76, 109
9, 343331, Note_on_c, 3, 76, 0
9, 343932, Note_on_c, 3, 76, 105
9, 344292, Note_on_c, 3, 76, 0
9, 344404, Note_on_c, 3, 76, 98
9, 344764, Note_on_c, 3, 76, 0
9, 344901, Note_on_c, 3, 76, 101
9, 345261, Note_on_c, 3, 76, 0
9, 345388, Note_on_c, 3, 76, 97
9, 345748, Note_on_c, 3, 76, 0
9, 345857, Note_on_c, 3, 76, 106
9, 346217, Note_on_c, 3, 76, 0
9, 346339, Note_on_c, 3, 76, 100
9, 346699, Note_on_c, 3, 76, 0
9, 346826, Note_on_c, 3, 76, 91
9, 347186, Note_on_c, 3, 76, 0
9, 347284, Note_on_c, 3, 76, 109
9, 347644, Note_on_c, 3, 76, 0
9, 347775, Note_on_c, 3, 76, 101
9, 348615, Note_on_c, 3, 76, 0
9, 348732, Note_on_c, 3, 76, 107
9, 349092, Note_on_c, 3, 76, 0
9, 349212, Note_on_c, 3, 76, 94
9, 349572, Note_on_c, 3, 76, 0
9, 349690, Note_on_c, 3, 76, 110
9, 350050, Note_on_c, 3, 76, 0
9, 350171, Note_on_c, 3, 76, 103
9, 350531, Note_on_c, 3, 76, 0
9, 350651, Note_on_c, 3, 76, 98
9, 351011, Note_on_c, 3, 76, 0
9, 351139, Note_on_c, 3, 76, 108
9, 351499, Note_on_c, 3, 76, 0
9, 438013, Note_on_c, 3, 61, 92
9, 438128, Note_on_c, 3, 59, 81
9, 438133, Note_on_c, 3, 61, 0
9, 438248, Note_on_c, 3, 59, 0
9, 438260, Note_on_c, 3, 58, 94
9, 438380, Note_on_c, 3, 58, 0
9, 438383, Note_on_c, 3, 56, 81
9, 438488, Note_on_c, 3, 61, 98
9, 438503, Note_on_c, 3, 56, 0
9, 438608, Note_on_c, 3, 61, 0
9, 438616, Note_on_c, 3, 59, 82
9, 438733, Note_on_c, 3, 58, 78
9, 438736, Note_on_c, 3, 59, 0
9, 438844, Note_on_c, 3, 56, 86
9, 438853, Note_on_c, 3, 58, 0
9, 438964, Note_on_c, 3, 56, 0
9, 438970, Note_on_c, 3, 61, 89
9, 439086, Note_on_c, 3, 59, 93
9, 439090, Note_on_c, 3, 61, 0
9, 439206, Note_on_c, 3, 59, 0
9, 439217, Note_on_c, 3, 58, 86
9, 439334, Note_on_c, 3, 56, 81
9, 439337, Note_on_c, 3, 58, 0
9, 439454, Note_on_c, 3, 56, 0
9, 439467, Note_on_c, 3, 61, 94
9, 439567, Note_on_c, 3, 59, 81
9, 439587, Note_on_c, 3, 61, 0
9, 439687, Note_on_c, 3, 59, 0
9, 439702, Note_on_c, 3, 58, 82
9, 439814, Note_on_c, 3, 56, 83
9, 439822, Note_on_c, 3, 58, 0
9, 439923, Note_on_c, 3, 61, 80
9, 439934, Note_on_c, 3, 56, 0
9, 440043, Note_on_c, 3, 61, 0
9, 440052, Note_on_c, 3, 59, 96
9, 440172, Note_on_c, 3, 59, 0
9, 440188, Note_on_c, 3, 58, 96
9, 440280, Note_on_c, 3, 56, 89
9, 440308, Note_on_c, 3, 58, 0
9, 440400, Note_on_c, 3, 56, 0
9, 440416, Note_on_c, 3, 61, 89
9, 440536, Note_on_c, 3, 61, 0
9, 440543, Note_on_c, 3, 59, 85
9, 440649, Note_on_c, 3, 58, 95
9, 440663, Note_on_c, 3, 59, 0
9, 440761, Note_on_c, 3, 56, 80
9, 440769, Note_on_c, 3, 58, 0
9, 440881, Note_on_c, 3, 56, 0
9, 440882, Note_on_c, 3, 61, 95
9, 441002, Note_on_c, 3, 61, 0
9, 441009, Note_on_c, 3, 59, 82
9, 441129, Note_on_c, 3, 59, 0
9, 441147, Note_on_c, 3, 58, 82
9, 441241, Note_on_c, 3, 56, 82
9, 441267, Note_on_c, 3, 58, 0
9, 441361, Note_on_c, 3, 56, 0
9, 441369, Note_on_c, 3, 61, 79
9, 441489, Note_on_c, 3, 61, 0
9, 441492, Note_on_c, 3, 59, 88
9, 441604, Note_on_c, 3, 58, 98
9, 441612, Note_on_c, 3, 59, 0
9, 441724, Note_on_c, 3, 58, 0
9, 441740, Note_on_c, 3, 56, 78
9, 441860, Note_on_c, 3, 56, 0
9, 441865, Note_on_c, 3, 61, 96
9, 441985, Note_on_c, 3, 61, 0
9, 441989, Note_on_c, 3, 59, 93
9, 442085, Note_on_c, 3, 58, 89
9, 442109, Note_on_c, 3, 59, 0
9, 442205, Note_on_c, 3, 58, 0
9, 442227, Note_on_c, 3, 56, 86
9, 442333, Note_on_c, 3, 61, 89
9, 442347, Note_on_c, 3, 56, 0
9, 442447, Note_on_c, 3, 59, 95
9, 442453, Note_on_c, 3, 61, 0
9, 442567, Note_on_c, 3, 59, 0
9, 442569, Note_on_c, 3, 58, 94
9, 442689, Note_on_c, 3, 58, 0
9, 442691, Note_on_c, 3, 56, 96
9, 442811, Note_on_c, 3, 56, 0
9, 442818, Note_on_c, 3, 61, 78
9, 442923, Note_on_c, 3, 59, 86
9, 442938, Note_on_c, 3, 61, 0
9, 443043, Note_on_c, 3, 59, 0
9, 443053, Note_on_c, 3, 58, 97
9, 443173, Note_on_c, 3, 58, 0
9, 443178, Note_on_c, 3, 56, 87
9, 443296, Note_on_c, 3, 61, 89
9, 443298, Note_on_c, 3, 56, 0
9, 443414, Note_on_c, 3, 59, 85
9, 443416, Note_on_c, 3, 61, 0
9, 443534, Note_on_c, 3, 59, 0
9, 443545, Note_on_c, 3, 58, 88
9, 443653, Note_on_c, 3, 56, 84
9, 443665, Note_on_c, 3, 58, 0
9, 443773, Note_on_c, 3, 56, 0
9, 531362, Note_on_c, 3, 70, 106
9, 531367, Note_on_c, 3, 58, 97
9, 531406, Note_on_c, 3, 70, 0
9, 531409, Note_on_c, 3, 58, 0
9, 531425, Note_on_c, 3, 70, 103
9, 531428, Note_on_c, 3, 58, 95
9, 531485, Note_on_c, 3, 70, 0
9, 531488, Note_on_c, 3, 58, 0
9, 531600, Note_on_c, 3, 70, 92
9, 531601, Note_on_c, 3, 58, 102
9, 531646, Note_on_c, 3, 58, 0
9, 531660, Note_on_c, 3, 70, 0
9, 531665, Note_on_c, 3, 58, 109
9, 531680, Note_on_c, 3, 70, 101
9, 531725, Note_on_c, 3, 58, 0
9, 531740, Note_on_c, 3, 70, 0
9, 531855, Note_on_c, 3, 70, 96
9, 531862, Note_on_c, 3, 58, 109
9, 531882, Note_on_c, 3, 58, 0
9, 531888, Note_on_c, 3, 70, 0
9, 531901, Note_on_c, 3, 58, 93
9, 531907, Note_on_c, 3, 70, 109
9, 531961, Note_on_c, 3, 58, 0
9, 531967, Note_on_c, 3, 70, 0
9, 532320, Note_on_c, 3, 58, 101
9, 532322, Note_on_c, 3, 70, 111
9, 532363, Note_on_c, 3, 70, 0
9, 532365, Note_on_c, 3, 58, 0
9, 532382, Note_on_c, 3, 70, 93
9, 532384, Note_on_c, 3, 58, 98
9, 532442, Note_on_c, 3, 70, 0
9, 532444, Note_on_c, 3, 58, 0
9, 532565, Note_on_c, 3, 70, 109
9, 532574, Note_on_c, 3, 58, 104
9, 532611, Note_on_c, 3, 70, 0
9, 532615, Note_on_c, 3, 58, 0
9, 532631, Note_on_c, 3, 70, 106
9, 532635, Note_on_c, 3, 58, 96
9, 532691, Note_on_c, 3, 70, 0
9, 532695, Note_on_c, 3, 58, 0
9, 532817, Note_on_c, 3, 58, 101
9, 532820, Note_on_c, 3, 70, 108
9, 532849, Note_on_c, 3, 70, 0
9, 532864, Note_on_c, 3, 58, 0
9, 532869, Note_on_c, 3, 70, 104
9, 532884, Note_on_c, 3, 58, 110
9, 532929, Note_on_c, 3, 70, 0
9, 532944, Note_on_c, 3, 58, 0
9, 533046, Note_on_c, 3, 58, 104
9, 533067, Note_on_c, 3, 70, 92
9, 533097, Note_on_c, 3, 58, 0
9, 533107, Note_on_c, 3, 70, 0
9, 533116, Note_on_c, 3, 58, 108
9, 533126, Note_on_c, 3, 70, 96
9, 533176, Note_on_c, 3, 58, 0
9, 533186, Note_on_c, 3, 70, 0
9, 533305, Note_on_c, 3, 70, 91
9, 533306, Note_on_c, 3, 58, 101
9, 533332, Note_on_c, 3, 58, 0
9, 533347, Note_on_c, 3, 70, 0
9, 533351, Note_on_c, 3, 58, 109
9, 533366, Note_on_c, 3, 70, 102
9, 533411, Note_on_c, 3, 58, 0
9, 533426, Note_on_c, 3, 70, 0
9, 533768, Note_on_c, 3, 58, 98
9, 533787, Note_on_c, 3, 70, 98
9, 533812, Note_on_c, 3, 58, 0
9, 533814, Note_on_c, 3, 70, 0
9, 533832, Note_on_c, 3, 58, 106
9, 533834, Note_on_c, 3, 70, 111
9, 533892, Note_on_c, 3, 58, 0
9, 533894, Note_on_c, 3, 70, 0
9, 534249, Note_on_c, 3, 58, 107
9, 534262, Note_on_c, 3, 70, 101
9, 534282, Note_on_c, 3, 58, 0
9, 534300, Note_on_c, 3, 70, 0
9, 534301, Note_on_c, 3, 58, 92
9, 534320, Note_on_c, 3, 70, 98
9, 534361, Note_on_c, 3, 58, 0
9, 534380, Note_on_c, 3, 70, 0
9, 534486, Note_on_c, 3, 59, 108
9, 534502, Note_on_c, 3, 71, 108
9, 534522, Note_on_c, 3, 59, 0
9, 534542, Note_on_c, 3, 59, 108
9, 534546, Note_on_c, 3, 71, 0
9, 534566, Note_on_c, 3, 71, 100
9, 534602, Note_on_c, 3, 59, 0
9, 534626, Note_on_c, 3, 71, 0
9, 534729, Note_on_c, 3, 58, 106
9, 534743, Note_on_c, 3, 70, 96
9, 534768, Note_on_c, 3, 58, 0
9, 534787, Note_on_c, 3, 70, 0
9, 534788, Note_on_c, 3, 58, 95
9, 534806, Note_on_c, 3, 70, 106
9, 534848, Note_on_c, 3, 58, 0
9, 534866, Note_on_c, 3, 70, 0
9, 535211, Note_on_c, 3, 70, 101
9, 535223, Note_on_c, 3, 58, 106
9, 535249, Note_on_c, 3, 58, 0
9, 535265, Note_on_c, 3, 70, 0
9, 535268, Note_on_c, 3, 58, 98
9, 535285, Note_on_c, 3, 70, 101
9, 535328, Note_on_c, 3, 58, 0
9, 535345, Note_on_c, 3, 70, 0
9, 535690, Note_on_c, 3, 58, 111
9, 535698, Note_on_c, 3, 70, 99
9, 535722, Note_on_c, 3, 70, 0
9, 535737, Note_on_c, 3, 58, 0
9, 535741, Note_on_c, 3, 70, 93
9, 535756, Note_on_c, 3, 58, 94
9, 535801, Note_on_c, 3, 70, 0
9, 535816, Note_on_c, 3, 58, 0
9, 535931, Note_on_c, 3, 82, 123
9, 535950, Note_on_c, 3, 82, 0
9, 535972, Note_on_c, 3, 81, 108
9, 535991, Note_on_c, 3, 81, 0
9, 536032, Note_on_c, 3, 80, 114
9, 536051, Note_on_c, 3, 80, 0
9, 536076, Note_on_c, 3, 79, 115
9, 536095, Note_on_c, 3, 79, 0
9, 536122, Note_on_c, 3, 78, 104
9, 536141, Note_on_c, 3, 78, 0
9, 536185, Note_on_c, 3, 77, 124
9, 536208, Note_on_c, 3, 77, 0
9, 536406, Note_on_c, 3, 79, 115
9, 536425, Note_on_c, 3, 79, 0
9, 536449, Note_on_c, 3, 78, 109
9, 536468, Note_on_c, 3, 78, 0
9, 536520, Note_on_c, 3, 77, 108
9, 536539, Note_on_c, 3, 77, 0
9, 536564, Note_on_c, 3, 76, 104
9, 536583, Note_on_c, 3, 76, 0
9, 536617, Note_on_c, 3, 75, 119
9, 536636, Note_on_c, 3, 75, 0
9, 536651, Note_on_c, 3, 74, 113
9, 536674, Note_on_c, 3, 74, 0
9, 536890, Note_on_c, 3, 78, 108
9, 536909, Note_on_c, 3, 78, 0
9, 536953, Note_on_c, 3, 77, 108
9, 536972, Note_on_c, 3, 77, 0
9, 536977, Note_on_c, 3, 76, 112
9, 536996, Note_on_c, 3, 76, 0
9, 537028, Note_on_c, 3, 75, 124
9, 537047, Note_on_c, 3, 75, 0
9, 537099, Note_on_c, 3, 74, 107
9, 537118, Note_on_c, 3, 74, 0
9, 537138, Note_on_c, 3, 73, 121
9, 537157, Note_on_c, 3, 73, 0
9, 537186, Note_on_c, 3, 72, 106
9, 537205, Note_on_c, 3, 72, 0
9, 537217, Note_on_c, 3, 71, 105
9, 537236, Note_on_c, 3, 71, 0
9, 537278, Note_on_c, 3, 70, 115
9, 537297, Note_on_c, 3, 70, 0
9, 537324, Note_on_c, 3, 69, 106
9, 537343, Note_on_c, 3, 69, 0
9, 537383, Note_on_c, 3, 68, 109
9, 537430, Note_on_c, 3, 68, 0
9, 546000, Note_on_c, 3, 79, 72
9, 546039, Note_on_c, 3, 79, 0
9, 546039, Note_on_c, 3, 77, 77
9, 546079, Note_on_c, 3, 77, 0
9, 546080, Note_on_c, 3, 79, 73
9, 546120, Note_on_c, 3, 79, 0
9, 546120, Note_on_c, 3, 77, 80
9, 546159, Note_on_c, 3, 77, 0
9, 546159, Note_on_c, 3, 79, 71
9, 546199, Note_on_c, 3, 79, 0
9, 546200, Note_on_c, 3, 77, 66
9, 546240, Note_on_c, 3, 77, 0
9, 546240, Note_on_c, 3, 79, 83
9, 546279, Note_on_c, 3, 79, 0
9, 546279, Note_on_c, 3, 77, 83
9, 546319, Note_on_c, 3, 77, 0
9, 546320, Note_on_c, 3, 79, 75
9, 546360, Note_on_c, 3, 79, 0
9, 546360, Note_on_c, 3, 77, 75
9, 546399, Note_on_c, 3, 77, 0
9, 546399, Note_on_c, 3, 79, 85
9, 546439, Note_on_c, 3, 79, 0
9, 546440, Note_on_c, 3, 77, 77
9, 546480, Note_on_c, 3, 77, 0
9, 546480, Note_on_c, 3, 79, 80
9, 546519, Note_on_c, 3, 79, 0
9, 546519, Note_on_c, 3, 77, 82
9, 546559, Note_on_c, 3, 77, 0
9, 546560, Note_on_c, 3, 79, 82
9, 546600, Note_on_c, 3, 79, 0
9, 546600, Note_on_c, 3, 77, 81
9, 546639, Note_on_c, 3, 77, 0
9, 546639, Note_on_c, 3, 79, 65
9, 546679, Note_on_c, 3, 79, 0
9, 546680, Note_on_c, 3, 77, 79
9, 546720, Note_on_c, 3, 77, 0
9, 546720, Note_on_c, 3, 79, 67
9, 546759, Note_on_c, 3, 79, 0
9, 546759, Note_on_c, 3, 77, 81
9, 546799, Note_on_c, 3, 77, 0
9, 546800, Note_on_c, 3, 79, 81
9, 546840, Note_on_c, 3, 79, 0
9, 546840, Note_on_c, 3, 77, 69
9, 546879, Note_on_c, 3, 77, 0
9, 546879, Note_on_c, 3, 79, 69
9, 546919, Note_on_c, 3, 79, 0
9, 546920, Note_on_c, 3, 77, 67
9, 546960, Note_on_c, 3, 77, 0
9, 546960, Note_on_c, 3, 79, 69
9, 546999, Note_on_c, 3, 79, 0
9, 546999, Note_on_c, 3, 77, 75
9, 547039, Note_on_c, 3, 77, 0
9, 547040, Note_on_c, 3, 79, 76
9, 547080, Note_on_c, 3, 79, 0
9, 547080, Note_on_c, 3, 77, 78
9, 547119, Note_on_c, 3, 77, 0
9, 547119, Note_on_c, 3, 79, 71
9, 547159, Note_on_c, 3, 79, 0
9, 547160, Note_on_c, 3, 77, 78
9, 547200, Note_on_c, 3, 77, 0
9, 547200, Note_on_c, 3, 79, 79
9, 547239, Note_on_c, 3, 79, 0
9, 547239, Note_on_c, 3, 77, 69
9, 547279, Note_on_c, 3, 77, 0
9, 547280, Note_on_c, 3, 79, 65
9, 547320, Note_on_c, 3, 79, 0
9, 547320, Note_on_c, 3, 77, 67
9, 547359, Note_on_c, 3, 77, 0
9, 547359, Note_on_c, 3, 79, 65
9, 547399, Note_on_c, 3, 79, 0
9, 547400, Note_on_c, 3, 77, 74
9, 547440, Note_on_c, 3, 77, 0
9, 547440, Note_on_c, 3, 80, 81
9, 547479, Note_on_c, 3, 80, 0
9, 547479, Note_on_c, 3, 83, 85
9, 547519, Note_on_c, 3, 83, 0
9, 547520, Note_on_c, 3, 80, 82
9, 547560, Note_on_c, 3, 80, 0
9, 547560, Note_on_c, 3, 83, 94
9, 547599, Note_on_c, 3, 83, 0
9, 547599, Note_on_c, 3, 80, 89
9, 547639, Note_on_c, 3, 80, 0
9, 547640, Note_on_c, 3, 83, 87
9, 547680, Note_on_c, 3, 83, 0
9, 547680, Note_on_c, 3, 79, 82
9, 547719, Note_on_c, 3, 79, 0
9, 547719, Note_on_c, 3, 77, 74
9, 547759, Note_on_c, 3, 77, 0
9, 547760, Note_on_c, 3, 79, 67
9, 547800, Note_on_c, 3, 79, 0
9, 547800, Note_on_c, 3, 77, 80
9, 547839, Note_on_c, 3, 77, 0
9, 547839, Note_on_c, 3, 79, 81
9, 547879, Note_on_c, 3, 79, 0
9, 547880, Note_on_c, 3, 77, 83
9, 547920, Note_on_c, 3, 77, 0
9, 547920, Note_on_c, 3, 79, 85
9, 547959, Note_on_c, 3, 79, 0
9, 547959, Note_on_c, 3, 77, 83
9, 547999, Note_on_c, 3, 77, 0
9, 548000, Note_on_c, 3, 79, 65
9, 548040, Note_on_c, 3, 79, 0
9, 548040, Note_on_c, 3, 77, 65
9, 548079, Note_on_c, 3, 77, 0
9, 548079, Note_on_c, 3, 79, 74
9, 548119, Note_on_c, 3, 79, 0
9, 548120, Note_on_c, 3, 77, 78
9, 548160, Note_on_c, 3, 77, 0
9, 548160, Note_on_c, 3, 79, 66
9, 548199, Note_on_c, 3, 79, 0
9, 548199, Note_on_c, 3, 77, 84
9, 548239, Note_on_c, 3, 77, 0
9, 548240, Note_on_c, 3, 79, 71
9, 548280, Note_on_c, 3, 79, 0
9, 548280, Note_on_c, 3, 77, 75
9, 548319, Note_on_c, 3, 77, 0
9, 548319, Note_on_c, 3, 79, 70
9, 548359, Note_on_c, 3, 79, 0
9, 548360, Note_on_c, 3, 77, 81
9, 548400, Note_on_c, 3, 77, 0
9, 548400, Note_on_c, 3, 79, 75
9, 548439, Note_on_c, 3, 79, 0
9, 548439, Note_on_c, 3, 77, 77
9, 548479, Note_on_c, 3, 77, 0
9, 548480, Note_on_c, 3, 79, 81
9, 548520, Note_on_c, 3, 79, 0
9, 548520, Note_on_c, 3, 77, 65
9, 548559, Note_on_c, 3, 77, 0
9, 548559, Note_on_c, 3, 79, 76
9, 548599, Note_on_c, 3, 79, 0
9, 548600, Note_on_c, 3, 77, 75
9, 548640, Note_on_c, 3, 77, 0
9, 548640, Note_on_c, 3, 79, 75
9, 548679, Note_on_c, 3, 79, 0
9, 548679, Note_on_c, 3, 77, 85
9, 548719, Note_on_c, 3, 77, 0
9, 548720, Note_on_c, 3, 79, 70
9, 548760, Note_on_c, 3, 79, 0
9, 548760, Note_on_c, 3, 77, 82
9, 548799, Note_on_c, 3, 77, 0
9, 548799, Note_on_c, 3, 79, 68
9, 548839, Note_on_c, 3, 79, 0
9, 548840, Note_on_c, 3, 77, 82
9, 548880, Note_on_c, 3, 77, 0
9, 548880, Note_on_c, 3, 79, 65
9, 548919, Note_on_c, 3, 79, 0
9, 548919, Note_on_c, 3, 77, 77
9, 548959, Note_on_c, 3, 77, 0
9, 548960, Note_on_c, 3, 79, 69
9, 549000, Note_on_c, 3, 79, 0
9, 549000, Note_on_c, 3, 77, 82
9, 549039, Note_on_c, 3, 77, 0
9, 549039, Note_on_c, 3, 79, 84
9, 549079, Note_on_c, 3, 79, 0
9, 549080, Note_on_c, 3, 77, 78
9, 549120, Note_on_c, 3, 77, 0
9, 549120, Note_on_c, 3, 79, 84
9, 549159, Note_on_c, 3, 79, 0
9, 549159, Note_on_c, 3, 77, 69
9, 549199, Note_on_c, 3, 77, 0
9, 549200, Note_on_c, 3, 79, 70
9, 549240, Note_on_c, 3, 79, 0
9, 549240, Note_on_c, 3, 77, 67
9, 549279, Note_on_c, 3, 77, 0
9, 549279, Note_on_c, 3, 79, 83
9, 549319, Note_on_c, 3, 79, 0
9, 549320, Note_on_c, 3, 77, 80
9, 549360, Note_on_c, 3, 77, 0
9, 549360, Note_on_c, 3, 80, 68
9, 549420, Note_on_c, 3, 80, 0
9, 549420, Note_on_c, 3, 83, 71
9, 549480, Note_on_c, 3, 83, 0
9, 549480, Note_on_c, 3, 80, 84
9, 549540, Note_on_c, 3, 80, 0
9, 549540, Note_on_c, 3, 83, 65
9, 549600, Note_on_c, 3, 83, 0
9, 549600, Note_on_c, 3, 80, 71
9, 549660, Note_on_c, 3, 80, 0
9, 549660, Note_on_c, 3, 83, 79
9, 549720, Note_on_c, 3, 83, 0
9, 549720, Note_on_c, 3, 80, 66
9, 549780, Note_on_c, 3, 80, 0
9, 549780, Note_on_c, 3, 83, 69
9, 549840, Note_on_c, 3, 83, 0
9, 549840, Note_on_c, 3, 80, 77
9, 549900, Note_on_c, 3, 80, 0
9, 549900, Note_on_c, 3, 83, 70
9, 549960, Note_on_c, 3, 83, 0
9, 549960, Note_on_c, 3, 80, 81
9, 550020, Note_on_c, 3, 80, 0
9, 550020, Note_on_c, 3, 83, 83
9, 550080, Note_on_c, 3, 83, 0
9, 550080, Note_on_c, 3, 80, 78
9, 550140, Note_on_c, 3, 80, 0
9, 550140, Note_on_c, 3, 83, 72
9, 550200, Note_on_c, 3, 83, 0
9, 550200, Note_on_c, 3, 80, 81
9, 550260, Note_on_c, 3, 80, 0
9, 550260, Note_on_c, 3, 83, 85
9, 550320, Note_on_c, 3, 83, 0
9, 550320, Note_on_c, 3, 80, 76
9, 550380, Note_on_c, 3, 80, 0
9, 550380, Note_on_c, 3, 83, 80
9, 550440, Note_on_c, 3, 83, 0
9, 550440, Note_on_c, 3, 80, 80
9, 550500, Note_on_c, 3, 80, 0
9, 550500, Note_on_c, 3, 83, 77
9, 550560, Note_on_c, 3, 83, 0
9, 550560, Note_on_c, 3, 81, 70
9, 550620, Note_on_c, 3, 81, 0
9, 563187, Note_on_c, 3, 74, 99
9, 563247, Note_on_c, 3, 74, 0
9, 563298, Note_on_c, 3, 74, 103
9, 563358, Note_on_c, 3, 74, 0
9, 563788, Note_on_c, 3, 74, 107
9, 563848, Note_on_c, 3, 74, 0
9, 563906, Note_on_c, 3, 74, 99
9, 563966, Note_on_c, 3, 74, 0
9, 564133, Note_on_c, 3, 74, 109
9, 564193, Note_on_c, 3, 74, 0
9, 581298, Note_on_c, 3, 61, 98
9, 581394, Note_on_c, 3, 61, 0
9, 581537, Note_on_c, 3, 60, 78
9, 581633, Note_on_c, 3, 60, 0
9, 581783, Note_on_c, 3, 58, 79
9, 581879, Note_on_c, 3, 58, 0
9, 582006, Note_on_c, 3, 61, 86
9, 582102, Note_on_c, 3, 61, 0
9, 582258, Note_on_c, 3, 60, 80
9, 582354, Note_on_c, 3, 60, 0
9, 583689, Note_on_c, 3, 61, 89
9, 583785, Note_on_c, 3, 61, 0
9, 583938, Note_on_c, 3, 60, 82
9, 584034, Note_on_c, 3, 60, 0
9, 584163, Note_on_c, 3, 58, 83
9, 584259, Note_on_c, 3, 58, 0
9, 584406, Note_on_c, 3, 61, 96
9, 584502, Note_on_c, 3, 61, 0
9, 584646, Note_on_c, 3, 60, 83
9, 584742, Note_on_c, 3, 60, 0
9, 601447, Note_on_c, 3, 75, 116
9, 601519, Note_on_c, 3, 75, 0
9, 605171, Note_on_c, 3, 75, 96
9, 605411, Note_on_c, 3, 75, 0
9, 605645, Note_on_c, 3, 74, 104
9, 605885, Note_on_c, 3, 74, 0
9, 606134, Note_on_c, 3, 73, 99
9, 606374, Note_on_c, 3, 73, 0
9, 606622, Note_on_c, 3, 72, 106
9, 606862, Note_on_c, 3, 72, 0
9, 607099, Note_on_c, 3, 71, 109
9, 607339, Note_on_c, 3, 71, 0
9, 607567, Note_on_c, 3, 72, 101
9, 607807, Note_on_c, 3, 72, 0
9, 608044, Note_on_c, 3, 71, 108
9, 608284, Note_on_c, 3, 71, 0
9, 608536, Note_on_c, 3, 70, 99
9, 608776, Note_on_c, 3, 70, 0
9, 609018, Note_on_c, 3, 69, 110
9, 609258, Note_on_c, 3, 69, 0
9, 609486, Note_on_c, 3, 68, 91
9, 609726, Note_on_c, 3, 68, 0
9, 609975, Note_on_c, 3, 67, 93
9, 610215, Note_on_c, 3, 67, 0
9, 610441, Note_on_c, 3, 66, 107
9, 610681, Note_on_c, 3, 66, 0
9, 610938, Note_on_c, 3, 67, 100
9, 611178, Note_on_c, 3, 67, 0
9, 611422, Note_on_c, 3, 68, 92
9, 611662, Note_on_c, 3, 68, 0
9, 611883, Note_on_c, 3, 69, 91
9, 612123, Note_on_c, 3, 69, 0
9, 612382, Note_on_c, 3, 70, 106
9, 612622, Note_on_c, 3, 70, 0
9, 612844, Note_on_c, 3, 71, 93
9, 613084, Note_on_c, 3, 71, 0
9, 613325, Note_on_c, 3, 70, 99
9, 613565, Note_on_c, 3, 70, 0
9, 618140, Note_on_c, 3, 67, 118
9, 618604, Note_on_c, 3, 67, 0
9, 618624, Note_on_c, 3, 67, 122
9, 619074, Note_on_c, 3, 67, 0
9, 619093, Note_on_c, 3, 67, 117
9, 619573, Note_on_c, 3, 67, 0
9, 619577, Note_on_c, 3, 65, 118
9, 619697, Note_on_c, 3, 65, 0
9, 619825, Note_on_c, 3, 63, 104
9, 619945, Note_on_c, 3, 63, 0
9, 620068, Note_on_c, 3, 61, 121
9, 620188, Note_on_c, 3, 61, 0
9, 620294, Note_on_c, 3, 65, 108
9, 620414, Note_on_c, 3, 65, 0
9, 620530, Note_on_c, 3, 67, 117
9, 620770, Note_on_c, 3, 67, 0
9, 621012, Note_on_c, 3, 67, 122
9, 621252, Note_on_c, 3, 67, 0
9, 621507, Note_on_c, 3, 67, 119
9, 621747, Note_on_c, 3, 67, 0
9, 621983, Note_on_c, 3, 67, 121
9, 622223, Note_on_c, 3, 67, 0
9, 622463, Note_on_c, 3, 65, 113
9, 622583, Note_on_c, 3, 65, 0
9, 622706, Note_on_c, 3, 63, 105
9, 622826, Note_on_c, 3, 63, 0
9, 622934, Note_on_c, 3, 61, 106
9, 623054, Note_on_c, 3, 61, 0
9, 623183, Note_on_c, 3, 65, 114
9, 623303, Note_on_c, 3, 65, 0
9, 623413, Note_on_c, 3, 67, 107
9, 623653, Note_on_c, 3, 67, 0
9, 623890, Note_on_c, 3, 67, 119
9, 624130, Note_on_c, 3, 67, 0
9, 624377, Note_on_c, 3, 65, 115
9, 624497, Note_on_c, 3, 65, 0
9, 624608, Note_on_c, 3, 63, 105
9, 624728, Note_on_c, 3, 63, 0
9, 624860, Note_on_c, 3, 61, 113
9, 624980, Note_on_c, 3, 61, 0
9, 625103, Note_on_c, 3, 65, 109
9, 625223, Note_on_c, 3, 65, 0
9, 625323, Note_on_c, 3, 67, 119
9, 625563, Note_on_c, 3, 67, 0
9, 625803, Note_on_c, 3, 67, 104
9, 626043, Note_on_c, 3, 67, 0
9, 626283, Note_on_c, 3, 67, 110
9, 626523, Note_on_c, 3, 67, 0
9, 626764, Note_on_c, 3, 65, 113
9, 626884, Note_on_c, 3, 65, 0
9, 627020, Note_on_c, 3, 63, 122
9, 627140, Note_on_c, 3, 63, 0
9, 627263, Note_on_c, 3, 61, 112
9, 627383, Note_on_c, 3, 61, 0
9, 627508, Note_on_c, 3, 65, 112
9, 627628, Note_on_c, 3, 65, 0
9, 627628, End_track
10, 0, Start_track
10, 0, Title_t, "Clarinetti bassi"
10, 0, MIDI_port, 0
10, 0, Program_c, 3, 71
10, 2906, Note_on_c, 3, 40, 54
10, 2907, Note_on_c, 3, 47, 52
10, 3386, Note_on_c, 3, 40, 0
10, 3387, Note_on_c, 3, 47, 0
10, 10567, Note_on_c, 3, 38, 73
10, 10585, Note_on_c, 3, 45, 69
10, 13687, Note_on_c, 3, 38, 0
10, 13705, Note_on_c, 3, 45, 0
10, 15360, Note_on_c, 3, 38, 77
10, 15366, Note_on_c, 3, 45, 79
10, 18720, Note_on_c, 3, 38, 0
10, 18720, Note_on_c, 3, 47, 69
10, 18726, Note_on_c, 3, 45, 0
10, 18748, Note_on_c, 3, 40, 81
10, 19584, Note_on_c, 3, 47, 0
10, 19612, Note_on_c, 3, 40, 0
10, 19697, Note_on_c, 3, 38, 69
10, 19702, Note_on_c, 3, 45, 70
10, 22433, Note_on_c, 3, 38, 0
10, 22438, Note_on_c, 3, 45, 0
10, 22563, Note_on_c, 3, 47, 34
10, 22582, Note_on_c, 3, 40, 39
10, 23859, Note_on_c, 3, 47, 0
10, 23878, Note_on_c, 3, 40, 0
10, 24006, Note_on_c, 3, 43, 38
10, 24012, Note_on_c, 3, 50, 42
10, 24966, Note_on_c, 3, 43, 0
10, 24972, Note_on_c, 3, 50, 0
10, 24973, Note_on_c, 3, 52, 35
10, 24984, Note_on_c, 3, 45, 46
10, 25848, Note_on_c, 3, 45, 0
10, 25922, Note_on_c, 3, 47, 35
10, 26882, Note_on_c, 3, 47, 0
10, 26893, Note_on_c, 3, 52, 0
10, 89761, Note_on_c, 3, 46, 45
10, 91201, Note_on_c, 3, 46, 0
10, 91222, Note_on_c, 3, 49, 56
10, 91654, Note_on_c, 3, 49, 0
10, 92167, Note_on_c, 3, 46, 46
10, 94087, Note_on_c, 3, 46, 0
10, 94101, Note_on_c, 3, 49, 57
10, 94533, Note_on_c, 3, 49, 0
10, 95064, Note_on_c, 3, 46, 57
10, 96488, Note_on_c, 3, 49, 52
10, 96504, Note_on_c, 3, 46, 0
10, 96920, Note_on_c, 3, 49, 0
10, 97464, Note_on_c, 3, 46, 46
10, 98894, Note_on_c, 3, 49, 41
10, 98904, Note_on_c, 3, 46, 0
10, 99226, Note_on_c, 3, 49, 0
10, 141147, Note_on_c, 3, 47, 82
10, 141366, Note_on_c, 3, 49, 84
10, 141387, Note_on_c, 3, 47, 0
10, 141605, Note_on_c, 3, 51, 82
10, 141606, Note_on_c, 3, 49, 0
10, 141845, Note_on_c, 3, 51, 0
10, 141847, Note_on_c, 3, 52, 74
10, 142087, Note_on_c, 3, 52, 0
10, 142096, Note_on_c, 3, 54, 77
10, 142562, Note_on_c, 3, 49, 81
10, 142576, Note_on_c, 3, 54, 0
10, 142802, Note_on_c, 3, 49, 0
10, 142807, Note_on_c, 3, 54, 77
10, 143047, Note_on_c, 3, 54, 0
10, 143049, Note_on_c, 3, 52, 83
10, 143289, Note_on_c, 3, 52, 0
10, 143299, Note_on_c, 3, 51, 72
10, 143529, Note_on_c, 3, 49, 68
10, 143539, Note_on_c, 3, 51, 0
10, 144001, Note_on_c, 3, 52, 77
10, 144009, Note_on_c, 3, 49, 0
10, 144241, Note_on_c, 3, 52, 0
10, 144260, Note_on_c, 3, 54, 79
10, 144486, Note_on_c, 3, 49, 67
10, 144500, Note_on_c, 3, 54, 0
10, 144966, Note_on_c, 3, 49, 0
10, 144972, Note_on_c, 3, 54, 80
10, 145447, Note_on_c, 3, 49, 76
10, 145452, Note_on_c, 3, 54, 0
10, 145686, Note_on_c, 3, 54, 78
10, 145687, Note_on_c, 3, 49, 0
10, 145926, Note_on_c, 3, 54, 0
10, 145927, Note_on_c, 3, 52, 72
10, 146167, Note_on_c, 3, 52, 0
10, 146174, Note_on_c, 3, 51, 72
10, 146414, Note_on_c, 3, 51, 0
10, 146428, Note_on_c, 3, 49, 83
10, 146888, Note_on_c, 3, 47, 75
10, 146908, Note_on_c, 3, 49, 0
10, 147128, Note_on_c, 3, 47, 0
10, 147146, Note_on_c, 3, 49, 85
10, 147384, Note_on_c, 3, 51, 73
10, 147386, Note_on_c, 3, 49, 0
10, 147619, Note_on_c, 3, 52, 69
10, 147624, Note_on_c, 3, 51, 0
10, 147859, Note_on_c, 3, 52, 0
10, 160341, Note_on_c, 3, 42, 68
10, 160821, Note_on_c, 3, 42, 0
10, 161288, Note_on_c, 3, 42, 85
10, 161768, Note_on_c, 3, 42, 0
10, 162254, Note_on_c, 3, 38, 69
10, 162734, Note_on_c, 3, 38, 0
10, 163221, Note_on_c, 3, 42, 71
10, 163701, Note_on_c, 3, 42, 0
10, 164167, Note_on_c, 3, 42, 74
10, 164647, Note_on_c, 3, 42, 0
10, 165135, Note_on_c, 3, 38, 69
10, 165615, Note_on_c, 3, 38, 0
10, 166106, Note_on_c, 3, 39, 75
10, 166586, Note_on_c, 3, 39, 0
10, 216742, Note_on_c, 3, 67, 106
10, 216849, Note_on_c, 3, 67, 0
10, 217939, Note_on_c, 3, 67, 103
10, 218046, Note_on_c, 3, 67, 0
10, 221284, Note_on_c, 3, 67, 102
10, 221391, Note_on_c, 3, 67, 0
10, 222967, Note_on_c, 3, 67, 93
10, 223074, Note_on_c, 3, 67, 0
10, 224653, Note_on_c, 3, 61, 85
10, 224704, Note_on_c, 3, 62, 100
10, 224713, Note_on_c, 3, 61, 0
10, 224760, Note_on_c, 3, 61, 89
10, 224764, Note_on_c, 3, 62, 0
10, 224820, Note_on_c, 3, 61, 0
10, 224836, Note_on_c, 3, 62, 94
10, 224881, Note_on_c, 3, 61, 111
10, 224896, Note_on_c, 3, 62, 0
10, 224941, Note_on_c, 3, 61, 0
10, 224957, Note_on_c, 3, 62, 114
10, 225017, Note_on_c, 3, 62, 0
10, 225018, Note_on_c, 3, 61, 115
10, 225078, Note_on_c, 3, 61, 0
10, 225079, Note_on_c, 3, 62, 114
10, 225139, Note_on_c, 3, 62, 0
10, 225143, Note_on_c, 3, 61, 85
10, 225263, Note_on_c, 3, 61, 0
10, 228495, Note_on_c, 3, 61, 68
10, 228552, Note_on_c, 3, 62, 68
10, 228555, Note_on_c, 3, 61, 0
10, 228612, Note_on_c, 3, 62, 0
10, 228623, Note_on_c, 3, 61, 88
10, 228672, Note_on_c, 3, 62, 80
10, 228683, Note_on_c, 3, 61, 0
10, 228732, Note_on_c, 3, 62, 0
10, 228743, Note_on_c, 3, 61, 74
10, 228803, Note_on_c, 3, 61, 0
10, 228804, Note_on_c, 3, 62, 87
10, 228860, Note_on_c, 3, 61, 93
10, 228864, Note_on_c, 3, 62, 0
10, 228915, Note_on_c, 3, 62, 81
10, 228920, Note_on_c, 3, 61, 0
10, 228964, Note_on_c, 3, 61, 91
10, 228975, Note_on_c, 3, 62, 0
10, 229024, Note_on_c, 3, 61, 0
10, 229038, Note_on_c, 3, 62, 86
10, 229097, Note_on_c, 3, 61, 83
10, 229098, Note_on_c, 3, 62, 0
10, 229157, Note_on_c, 3, 61, 0
10, 229165, Note_on_c, 3, 62, 87
10, 229217, Note_on_c, 3, 61, 83
10, 229225, Note_on_c, 3, 62, 0
10, 229264, Note_on_c, 3, 62, 99
10, 229277, Note_on_c, 3, 61, 0
10, 229324, Note_on_c, 3, 62, 0
10, 229333, Note_on_c, 3, 61, 95
10, 229393, Note_on_c, 3, 61, 0
10, 229394, Note_on_c, 3, 62, 95
10, 229454, Note_on_c, 3, 62, 0
10, 229465, Note_on_c, 3, 61, 91
10, 229508, Note_on_c, 3, 62, 108
10, 229525, Note_on_c, 3, 61, 0
10, 229566, Note_on_c, 3, 61, 99
10, 229568, Note_on_c, 3, 62, 0
10, 229626, Note_on_c, 3, 61, 0
10, 229647, Note_on_c, 3, 62, 108
10, 229699, Note_on_c, 3, 61, 111
10, 229707, Note_on_c, 3, 62, 0
10, 229759, Note_on_c, 3, 61, 0
10, 229765, Note_on_c, 3, 62, 99
10, 229814, Note_on_c, 3, 61, 99
10, 229825, Note_on_c, 3, 62, 0
10, 229874, Note_on_c, 3, 61, 0
10, 229875, Note_on_c, 3, 62, 104
10, 229924, Note_on_c, 3, 61, 80
10, 229935, Note_on_c, 3, 62, 0
10, 230044, Note_on_c, 3, 61, 0
10, 234489, Note_on_c, 3, 61, 79
10, 234549, Note_on_c, 3, 61, 0
10, 234558, Note_on_c, 3, 62, 88
10, 234618, Note_on_c, 3, 62, 0
10, 234628, Note_on_c, 3, 61, 87
10, 234662, Note_on_c, 3, 62, 95
10, 234688, Note_on_c, 3, 61, 0
10, 234722, Note_on_c, 3, 62, 0
10, 234734, Note_on_c, 3, 61, 97
10, 234794, Note_on_c, 3, 61, 0
10, 234794, Note_on_c, 3, 62, 105
10, 234840, Note_on_c, 3, 61, 112
10, 234854, Note_on_c, 3, 62, 0
10, 234900, Note_on_c, 3, 61, 0
10, 234928, Note_on_c, 3, 62, 127
10, 234972, Note_on_c, 3, 61, 90
10, 234988, Note_on_c, 3, 62, 0
10, 235092, Note_on_c, 3, 61, 0
10, 240503, Note_on_c, 3, 67, 105
10, 240610, Note_on_c, 3, 67, 0
10, 243854, Note_on_c, 3, 67, 110
10, 243961, Note_on_c, 3, 67, 0
10, 245046, Note_on_c, 3, 67, 110
10, 245153, Note_on_c, 3, 67, 0
10, 246744, Note_on_c, 3, 67, 110
10, 246851, Note_on_c, 3, 67, 0
10, 247932, Note_on_c, 3, 67, 104
10, 248039, Note_on_c, 3, 67, 0
10, 256807, Note_on_c, 3, 41, 70
10, 257023, Note_on_c, 3, 41, 0
10, 257286, Note_on_c, 3, 40, 80
10, 257502, Note_on_c, 3, 40, 0
10, 257771, Note_on_c, 3, 41, 79
10, 257987, Note_on_c, 3, 41, 0
10, 258257, Note_on_c, 3, 40, 66
10, 258473, Note_on_c, 3, 40, 0
10, 258741, Note_on_c, 3, 41, 79
10, 258957, Note_on_c, 3, 41, 0
10, 264496, Note_on_c, 3, 53, 97
10, 264688, Note_on_c, 3, 53, 0
10, 264989, Note_on_c, 3, 40, 44
10, 265181, Note_on_c, 3, 40, 0
10, 265458, Note_on_c, 3, 53, 95
10, 265650, Note_on_c, 3, 53, 0
10, 265948, Note_on_c, 3, 40, 40
10, 266140, Note_on_c, 3, 40, 0
10, 266420, Note_on_c, 3, 53, 94
10, 266612, Note_on_c, 3, 53, 0
10, 266892, Note_on_c, 3, 40, 42
10, 267084, Note_on_c, 3, 40, 0
10, 267378, Note_on_c, 3, 53, 81
10, 267570, Note_on_c, 3, 53, 0
10, 267855, Note_on_c, 3, 40, 58
10, 268047, Note_on_c, 3, 40, 0
10, 268323, Note_on_c, 3, 53, 80
10, 268515, Note_on_c, 3, 53, 0
10, 268806, Note_on_c, 3, 40, 49
10, 268998, Note_on_c, 3, 40, 0
10, 269288, Note_on_c, 3, 53, 83
10, 269480, Note_on_c, 3, 53, 0
10, 269765, Note_on_c, 3, 40, 59
10, 269957, Note_on_c, 3, 40, 0
10, 270256, Note_on_c, 3, 53, 89
10, 270448, Note_on_c, 3, 53, 0
10, 270738, Note_on_c, 3, 40, 42
10, 270930, Note_on_c, 3, 40, 0
10, 271215, Note_on_c, 3, 53, 92
10, 271407, Note_on_c, 3, 53, 0
10, 271703, Note_on_c, 3, 40, 44
10, 271895, Note_on_c, 3, 40, 0
10, 272165, Note_on_c, 3, 53, 93
10, 272357, Note_on_c, 3, 53, 0
10, 272648, Note_on_c, 3, 40, 57
10, 272840, Note_on_c, 3, 40, 0
10, 273125, Note_on_c, 3, 53, 84
10, 273317, Note_on_c, 3, 53, 0
10, 273626, Note_on_c, 3, 40, 55
10, 273818, Note_on_c, 3, 40, 0
10, 274106, Note_on_c, 3, 53, 80
10, 274298, Note_on_c, 3, 53, 0
10, 274573, Note_on_c, 3, 40, 51
10, 274765, Note_on_c, 3, 40, 0
10, 275061, Note_on_c, 3, 53, 93
10, 275253, Note_on_c, 3, 53, 0
10, 275543, Note_on_c, 3, 40, 42
10, 275735, Note_on_c, 3, 40, 0
10, 276000, Note_on_c, 3, 53, 81
10, 276192, Note_on_c, 3, 53, 0
10, 276503, Note_on_c, 3, 40, 52
10, 276695, Note_on_c, 3, 40, 0
10, 276982, Note_on_c, 3, 53, 95
10, 277174, Note_on_c, 3, 53, 0
10, 277454, Note_on_c, 3, 40, 48
10, 277646, Note_on_c, 3, 40, 0
10, 277925, Note_on_c, 3, 53, 80
10, 278117, Note_on_c, 3, 53, 0
10, 278415, Note_on_c, 3, 40, 39
10, 278607, Note_on_c, 3, 40, 0
10, 278897, Note_on_c, 3, 53, 88
10, 279089, Note_on_c, 3, 53, 0
10, 279367, Note_on_c, 3, 40, 48
10, 279559, Note_on_c, 3, 40, 0
10, 279861, Note_on_c, 3, 53, 88
10, 280053, Note_on_c, 3, 53, 0
10, 280320, Note_on_c, 3, 40, 49
10, 280512, Note_on_c, 3, 40, 0
10, 280819, Note_on_c, 3, 53, 94
10, 281011, Note_on_c, 3, 53, 0
10, 281293, Note_on_c, 3, 40, 40
10, 281485, Note_on_c, 3, 40, 0
10, 281787, Note_on_c, 3, 53, 91
10, 281979, Note_on_c, 3, 53, 0
10, 282268, Note_on_c, 3, 40, 50
10, 282460, Note_on_c, 3, 40, 0
10, 282729, Note_on_c, 3, 53, 83
10, 282921, Note_on_c, 3, 53, 0
10, 283217, Note_on_c, 3, 40, 57
10, 283409, Note_on_c, 3, 40, 0
10, 283688, Note_on_c, 3, 53, 96
10, 283880, Note_on_c, 3, 53, 0
10, 284184, Note_on_c, 3, 40, 55
10, 284376, Note_on_c, 3, 40, 0
10, 284645, Note_on_c, 3, 53, 81
10, 284837, Note_on_c, 3, 53, 0
10, 285132, Note_on_c, 3, 40, 46
10, 285324, Note_on_c, 3, 40, 0
10, 285608, Note_on_c, 3, 53, 81
10, 285800, Note_on_c, 3, 53, 0
10, 286084, Note_on_c, 3, 40, 43
10, 286276, Note_on_c, 3, 40, 0
10, 286560, Note_on_c, 3, 53, 82
10, 286752, Note_on_c, 3, 53, 0
10, 287053, Note_on_c, 3, 40, 48
10, 287245, Note_on_c, 3, 40, 0
10, 287547, Note_on_c, 3, 53, 87
10, 287739, Note_on_c, 3, 53, 0
10, 291366, Note_on_c, 3, 67, 101
10, 291473, Note_on_c, 3, 67, 0
10, 292577, Note_on_c, 3, 67, 101
10, 292684, Note_on_c, 3, 67, 0
10, 295930, Note_on_c, 3, 67, 111
10, 296037, Note_on_c, 3, 67, 0
10, 297600, Note_on_c, 3, 67, 104
10, 297707, Note_on_c, 3, 67, 0
10, 298814, Note_on_c, 3, 67, 108
10, 298921, Note_on_c, 3, 67, 0
10, 301441, Note_on_c, 3, 67, 105
10, 301548, Note_on_c, 3, 67, 0
10, 304802, Note_on_c, 3, 67, 96
10, 304909, Note_on_c, 3, 67, 0
10, 306000, Note_on_c, 3, 67, 109
10, 306107, Note_on_c, 3, 67, 0
10, 307686, Note_on_c, 3, 67, 98
10, 307793, Note_on_c, 3, 67, 0
10, 308887, Note_on_c, 3, 67, 91
10, 308994, Note_on_c, 3, 67, 0
10, 312255, Note_on_c, 3, 42, 111
10, 312575, Note_on_c, 3, 42, 0
10, 312747, Control_c, 3, 11, 127
10, 312785, Control_c, 3, 11, 126
10, 312823, Control_c, 3, 11, 125
10, 312860, Control_c, 3, 11, 124
10, 312886, Note_on_c, 3, 39, 103
10, 312898, Control_c, 3, 11, 123
10, 312936, Control_c, 3, 11, 122
10, 312973, Control_c, 3, 11, 121
10, 313011, Control_c, 3, 11, 120
10, 313049, Control_c, 3, 11, 119
10, 313086, Control_c, 3, 11, 118
10, 313124, Control_c, 3, 11, 117
10, 313162, Control_c, 3, 11, 116
10, 313199, Control_c, 3, 11, 115
10, 313237, Control_c, 3, 11, 114
10, 313275, Control_c, 3, 11, 113
10, 313312, Control_c, 3, 11, 112
10, 313350, Control_c, 3, 11, 111
10, 313387, Control_c, 3, 11, 110
10, 313425, Control_c, 3, 11, 109
10, 313463, Control_c, 3, 11, 108
10, 313500, Control_c, 3, 11, 107
10, 313538, Control_c, 3, 11, 106
10, 313576, Control_c, 3, 11, 105
10, 313613, Control_c, 3, 11, 104
10, 313651, Control_c, 3, 11, 103
10, 313689, Control_c, 3, 11, 102
10, 313726, Control_c, 3, 11, 101
10, 313764, Control_c, 3, 11, 100
10, 313802, Control_c, 3, 11, 99
10, 313839, Control_c, 3, 11, 98
10, 313877, Control_c, 3, 11, 97
10, 313915, Control_c, 3, 11, 96
10, 313952, Control_c, 3, 11, 95
10, 313990, Control_c, 3, 11, 94
10, 314027, Control_c, 3, 11, 93
10, 314065, Control_c, 3, 11, 92
10, 314103, Control_c, 3, 11, 91
10, 314140, Control_c, 3, 11, 90
10, 314178, Control_c, 3, 11, 89
10, 314216, Control_c, 3, 11, 88
10, 314253, Control_c, 3, 11, 87
10, 314291, Control_c, 3, 11, 86
10, 314329, Control_c, 3, 11, 85
10, 314366, Control_c, 3, 11, 84
10, 314404, Control_c, 3, 11, 83
10, 314442, Control_c, 3, 11, 82
10, 314479, Control_c, 3, 11, 81
10, 314517, Control_c, 3, 11, 80
10, 314555, Control_c, 3, 11, 79
10, 314592, Control_c, 3, 11, 78
10, 314630, Control_c, 3, 11, 77
10, 314668, Control_c, 3, 11, 76
10, 314705, Control_c, 3, 11, 75
10, 314743, Control_c, 3, 11, 74
10, 314781, Control_c, 3, 11, 73
10, 314818, Control_c, 3, 11, 72
10, 314856, Control_c, 3, 11, 71
10, 314894, Control_c, 3, 11, 70
10, 314931, Control_c, 3, 11, 69
10, 314969, Control_c, 3, 11, 68
10, 315007, Control_c, 3, 11, 67
10, 315044, Control_c, 3, 11, 66
10, 315082, Control_c, 3, 11, 65
10, 322315, Control_c, 3, 11, 127
10, 322326, Note_on_c, 3, 39, 0
10, 322347, Note_on_c, 3, 43, 97
10, 323287, Control_c, 3, 11, 127
10, 323295, Control_c, 3, 11, 126
10, 323302, Control_c, 3, 11, 125
10, 323306, Note_on_c, 3, 39, 108
10, 323307, Note_on_c, 3, 43, 0
10, 323310, Control_c, 3, 11, 124
10, 323317, Control_c, 3, 11, 123
10, 323325, Control_c, 3, 11, 122
10, 323332, Control_c, 3, 11, 121
10, 323340, Control_c, 3, 11, 120
10, 323347, Control_c, 3, 11, 119
10, 323355, Control_c, 3, 11, 118
10, 323362, Control_c, 3, 11, 117
10, 323370, Control_c, 3, 11, 116
10, 323377, Control_c, 3, 11, 115
10, 323385, Control_c, 3, 11, 114
10, 323392, Control_c, 3, 11, 113
10, 323400, Control_c, 3, 11, 112
10, 323407, Control_c, 3, 11, 111
10, 323415, Control_c, 3, 11, 110
10, 323422, Control_c, 3, 11, 109
10, 323430, Control_c, 3, 11, 108
10, 323437, Control_c, 3, 11, 107
10, 323445, Control_c, 3, 11, 106
10, 323452, Control_c, 3, 11, 105
10, 323460, Control_c, 3, 11, 104
10, 323467, Control_c, 3, 11, 103
10, 323475, Control_c, 3, 11, 102
10, 323482, Control_c, 3, 11, 101
10, 323490, Control_c, 3, 11, 100
10, 323497, Control_c, 3, 11, 99
10, 323505, Control_c, 3, 11, 98
10, 323512, Control_c, 3, 11, 97
10, 323520, Control_c, 3, 11, 96
10, 323527, Control_c, 3, 11, 95
10, 323535, Control_c, 3, 11, 94
10, 323542, Control_c, 3, 11, 93
10, 323550, Control_c, 3, 11, 92
10, 323557, Control_c, 3, 11, 91
10, 323565, Control_c, 3, 11, 90
10, 323572, Control_c, 3, 11, 89
10, 323580, Control_c, 3, 11, 88
10, 323587, Control_c, 3, 11, 87
10, 323595, Control_c, 3, 11, 86
10, 323602, Control_c, 3, 11, 85
10, 323610, Control_c, 3, 11, 84
10, 323617, Control_c, 3, 11, 83
10, 323625, Control_c, 3, 11, 82
10, 323632, Control_c, 3, 11, 81
10, 323640, Control_c, 3, 11, 80
10, 323647, Control_c, 3, 11, 79
10, 323655, Control_c, 3, 11, 78
10, 323662, Control_c, 3, 11, 77
10, 323670, Control_c, 3, 11, 76
10, 323677, Control_c, 3, 11, 75
10, 323685, Control_c, 3, 11, 74
10, 323692, Control_c, 3, 11, 73
10, 323700, Control_c, 3, 11, 72
10, 323707, Control_c, 3, 11, 71
10, 323715, Control_c, 3, 11, 70
10, 323722, Control_c, 3, 11, 69
10, 323730, Control_c, 3, 11, 68
10, 323737, Control_c, 3, 11, 67
10, 323745, Control_c, 3, 11, 66
10, 323752, Control_c, 3, 11, 65
10, 324737, Control_c, 3, 11, 65
10, 324768, Control_c, 3, 11, 66
10, 324798, Control_c, 3, 11, 67
10, 324828, Control_c, 3, 11, 68
10, 324858, Control_c, 3, 11, 69
10, 324888, Control_c, 3, 11, 70
10, 324919, Control_c, 3, 11, 71
10, 324949, Control_c, 3, 11, 72
10, 324979, Control_c, 3, 11, 73
10, 325009, Control_c, 3, 11, 74
10, 325039, Control_c, 3, 11, 75
10, 325070, Control_c, 3, 11, 76
10, 325100, Control_c, 3, 11, 77
10, 325130, Control_c, 3, 11, 78
10, 325160, Control_c, 3, 11, 79
10, 325191, Control_c, 3, 11, 80
10, 325221, Control_c, 3, 11, 81
10, 325251, Control_c, 3, 11, 82
10, 325281, Control_c, 3, 11, 83
10, 325311, Control_c, 3, 11, 84
10, 325342, Control_c, 3, 11, 85
10, 325372, Control_c, 3, 11, 86
10, 325402, Control_c, 3, 11, 87
10, 325432, Control_c, 3, 11, 88
10, 325462, Control_c, 3, 11, 89
10, 325492, Control_c, 3, 11, 90
10, 325522, Control_c, 3, 11, 91
10, 325552, Control_c, 3, 11, 92
10, 325583, Control_c, 3, 11, 93
10, 325613, Control_c, 3, 11, 94
10, 325643, Control_c, 3, 11, 95
10, 325673, Control_c, 3, 11, 96
10, 325703, Control_c, 3, 11, 97
10, 325734, Control_c, 3, 11, 98
10, 325764, Control_c, 3, 11, 99
10, 325794, Control_c, 3, 11, 100
10, 325824, Control_c, 3, 11, 101
10, 325854, Control_c, 3, 11, 102
10, 325885, Control_c, 3, 11, 103
10, 325915, Control_c, 3, 11, 104
10, 325945, Control_c, 3, 11, 105
10, 325975, Control_c, 3, 11, 106
10, 326005, Control_c, 3, 11, 107
10, 326036, Control_c, 3, 11, 108
10, 326066, Control_c, 3, 11, 109
10, 326096, Control_c, 3, 11, 110
10, 326126, Control_c, 3, 11, 111
10, 326157, Control_c, 3, 11, 112
10, 326187, Control_c, 3, 11, 113
10, 326217, Control_c, 3, 11, 114
10, 326247, Control_c, 3, 11, 115
10, 326277, Control_c, 3, 11, 116
10, 326308, Control_c, 3, 11, 117
10, 326338, Control_c, 3, 11, 118
10, 326368, Control_c, 3, 11, 119
10, 326398, Control_c, 3, 11, 120
10, 326428, Control_c, 3, 11, 121
10, 326459, Control_c, 3, 11, 122
10, 326489, Control_c, 3, 11, 123
10, 326519, Control_c, 3, 11, 124
10, 326549, Control_c, 3, 11, 125
10, 326579, Control_c, 3, 11, 126
10, 326610, Control_c, 3, 11, 127
10, 326647, Note_on_c, 3, 42, 107
10, 326666, Note_on_c, 3, 39, 0
10, 326967, Note_on_c, 3, 42, 0
10, 327228, Control_c, 3, 11, 127
10, 327264, Control_c, 3, 11, 126
10, 327300, Control_c, 3, 11, 125
10, 327306, Note_on_c, 3, 39, 92
10, 327337, Control_c, 3, 11, 124
10, 327373, Control_c, 3, 11, 123
10, 327410, Control_c, 3, 11, 122
10, 327446, Control_c, 3, 11, 121
10, 327482, Control_c, 3, 11, 120
10, 327518, Control_c, 3, 11, 119
10, 327555, Control_c, 3, 11, 118
10, 327592, Control_c, 3, 11, 117
10, 327628, Control_c, 3, 11, 116
10, 327664, Control_c, 3, 11, 115
10, 327701, Control_c, 3, 11, 114
10, 327737, Control_c, 3, 11, 113
10, 327773, Control_c, 3, 11, 112
10, 327810, Control_c, 3, 11, 111
10, 327846, Control_c, 3, 11, 110
10, 327883, Control_c, 3, 11, 109
10, 327919, Control_c, 3, 11, 108
10, 327955, Control_c, 3, 11, 107
10, 327991, Control_c, 3, 11, 106
10, 328028, Control_c, 3, 11, 105
10, 328065, Control_c, 3, 11, 104
10, 328101, Control_c, 3, 11, 103
10, 328137, Control_c, 3, 11, 102
10, 328173, Control_c, 3, 11, 101
10, 328210, Control_c, 3, 11, 100
10, 328246, Control_c, 3, 11, 99
10, 328282, Control_c, 3, 11, 98
10, 328319, Control_c, 3, 11, 97
10, 328356, Control_c, 3, 11, 96
10, 328392, Control_c, 3, 11, 95
10, 328428, Control_c, 3, 11, 94
10, 328464, Control_c, 3, 11, 93
10, 328501, Control_c, 3, 11, 92
10, 328537, Control_c, 3, 11, 91
10, 328574, Control_c, 3, 11, 90
10, 328610, Control_c, 3, 11, 89
10, 328646, Control_c, 3, 11, 88
10, 328683, Control_c, 3, 11, 87
10, 328719, Control_c, 3, 11, 86
10, 328755, Control_c, 3, 11, 85
10, 328792, Control_c, 3, 11, 84
10, 328828, Control_c, 3, 11, 83
10, 328865, Control_c, 3, 11, 82
10, 328901, Control_c, 3, 11, 81
10, 328937, Control_c, 3, 11, 80
10, 328974, Control_c, 3, 11, 79
10, 329010, Control_c, 3, 11, 78
10, 329047, Control_c, 3, 11, 77
10, 329083, Control_c, 3, 11, 76
10, 329119, Control_c, 3, 11, 75
10, 329156, Control_c, 3, 11, 74
10, 329192, Control_c, 3, 11, 73
10, 329228, Control_c, 3, 11, 72
10, 329265, Control_c, 3, 11, 71
10, 329301, Control_c, 3, 11, 70
10, 329338, Control_c, 3, 11, 69
10, 329374, Control_c, 3, 11, 68
10, 329410, Control_c, 3, 11, 67
10, 329447, Control_c, 3, 11, 66
10, 329483, Control_c, 3, 11, 65
10, 331920, Control_c, 3, 11, 64
10, 331965, Control_c, 3, 11, 65
10, 332010, Control_c, 3, 11, 66
10, 332055, Control_c, 3, 11, 67
10, 332100, Control_c, 3, 11, 68
10, 332145, Control_c, 3, 11, 69
10, 332190, Control_c, 3, 11, 70
10, 332235, Control_c, 3, 11, 71
10, 332280, Control_c, 3, 11, 72
10, 332325, Control_c, 3, 11, 73
10, 332370, Control_c, 3, 11, 74
10, 332415, Control_c, 3, 11, 75
10, 332460, Control_c, 3, 11, 76
10, 332505, Control_c, 3, 11, 77
10, 332550, Control_c, 3, 11, 78
10, 332595, Control_c, 3, 11, 79
10, 332640, Control_c, 3, 11, 80
10, 332685, Control_c, 3, 11, 81
10, 332730, Control_c, 3, 11, 82
10, 332775, Control_c, 3, 11, 83
10, 332820, Control_c, 3, 11, 84
10, 332865, Control_c, 3, 11, 85
10, 332910, Control_c, 3, 11, 86
10, 332955, Control_c, 3, 11, 87
10, 333000, Control_c, 3, 11, 88
10, 333045, Control_c, 3, 11, 89
10, 333090, Control_c, 3, 11, 90
10, 333135, Control_c, 3, 11, 91
10, 333180, Control_c, 3, 11, 92
10, 333225, Control_c, 3, 11, 93
10, 333270, Control_c, 3, 11, 94
10, 333315, Control_c, 3, 11, 95
10, 333360, Control_c, 3, 11, 96
10, 333405, Control_c, 3, 11, 97
10, 333450, Control_c, 3, 11, 98
10, 333495, Control_c, 3, 11, 99
10, 333540, Control_c, 3, 11, 100
10, 333585, Control_c, 3, 11, 101
10, 333630, Control_c, 3, 11, 102
10, 333675, Control_c, 3, 11, 103
10, 333720, Control_c, 3, 11, 104
10, 333765, Control_c, 3, 11, 105
10, 333810, Control_c, 3, 11, 106
10, 333855, Control_c, 3, 11, 107
10, 333900, Control_c, 3, 11, 108
10, 333945, Control_c, 3, 11, 109
10, 333990, Control_c, 3, 11, 110
10, 334035, Control_c, 3, 11, 111
10, 334080, Control_c, 3, 11, 112
10, 334125, Control_c, 3, 11, 113
10, 334170, Control_c, 3, 11, 114
10, 334215, Control_c, 3, 11, 115
10, 334260, Control_c, 3, 11, 116
10, 334305, Control_c, 3, 11, 117
10, 334350, Control_c, 3, 11, 118
10, 334395, Control_c, 3, 11, 119
10, 334440, Control_c, 3, 11, 120
10, 334485, Control_c, 3, 11, 121
10, 334530, Control_c, 3, 11, 122
10, 334575, Control_c, 3, 11, 123
10, 334620, Control_c, 3, 11, 124
10, 334665, Control_c, 3, 11, 125
10, 334710, Control_c, 3, 11, 126
10, 334755, Control_c, 3, 11, 127
10, 334826, Note_on_c, 3, 39, 0
10, 334826, Note_on_c, 3, 42, 91
10, 335146, Note_on_c, 3, 42, 0
10, 335442, Note_on_c, 3, 39, 92
10, 335546, Control_c, 3, 11, 127
10, 335580, Control_c, 3, 11, 126
10, 335614, Control_c, 3, 11, 125
10, 335647, Control_c, 3, 11, 124
10, 335681, Control_c, 3, 11, 123
10, 335715, Control_c, 3, 11, 122
10, 335749, Control_c, 3, 11, 121
10, 335783, Control_c, 3, 11, 120
10, 335817, Control_c, 3, 11, 119
10, 335851, Control_c, 3, 11, 118
10, 335885, Control_c, 3, 11, 117
10, 335918, Control_c, 3, 11, 116
10, 335952, Control_c, 3, 11, 115
10, 335986, Control_c, 3, 11, 114
10, 336020, Control_c, 3, 11, 113
10, 336054, Control_c, 3, 11, 112
10, 336088, Control_c, 3, 11, 111
10, 336122, Control_c, 3, 11, 110
10, 336156, Control_c, 3, 11, 109
10, 336189, Control_c, 3, 11, 108
10, 336223, Control_c, 3, 11, 107
10, 336257, Control_c, 3, 11, 106
10, 336291, Control_c, 3, 11, 105
10, 336325, Control_c, 3, 11, 104
10, 336359, Control_c, 3, 11, 103
10, 336393, Control_c, 3, 11, 102
10, 336427, Control_c, 3, 11, 101
10, 336460, Control_c, 3, 11, 100
10, 336494, Control_c, 3, 11, 99
10, 336528, Control_c, 3, 11, 98
10, 336562, Control_c, 3, 11, 97
10, 336596, Control_c, 3, 11, 96
10, 336630, Control_c, 3, 11, 95
10, 336664, Control_c, 3, 11, 94
10, 336697, Control_c, 3, 11, 93
10, 336731, Control_c, 3, 11, 92
10, 336765, Control_c, 3, 11, 91
10, 336799, Control_c, 3, 11, 90
10, 336833, Control_c, 3, 11, 89
10, 336867, Control_c, 3, 11, 88
10, 336900, Control_c, 3, 11, 87
10, 336935, Control_c, 3, 11, 86
10, 336968, Control_c, 3, 11, 85
10, 337002, Control_c, 3, 11, 84
10, 337036, Control_c, 3, 11, 83
10, 337070, Control_c, 3, 11, 82
10, 337104, Control_c, 3, 11, 81
10, 337138, Control_c, 3, 11, 80
10, 337171, Control_c, 3, 11, 79
10, 337206, Control_c, 3, 11, 78
10, 337239, Control_c, 3, 11, 77
10, 337273, Control_c, 3, 11, 76
10, 337307, Control_c, 3, 11, 75
10, 337341, Control_c, 3, 11, 74
10, 337375, Control_c, 3, 11, 73
10, 337409, Control_c, 3, 11, 72
10, 337442, Control_c, 3, 11, 71
10, 337477, Control_c, 3, 11, 70
10, 337510, Control_c, 3, 11, 69
10, 337544, Control_c, 3, 11, 68
10, 337578, Control_c, 3, 11, 67
10, 337612, Control_c, 3, 11, 66
10, 337646, Control_c, 3, 11, 65
10, 341522, Note_on_c, 3, 39, 0
10, 341529, Note_on_c, 3, 43, 96
10, 342484, Note_on_c, 3, 39, 98
10, 342489, Note_on_c, 3, 43, 0
10, 346324, Note_on_c, 3, 39, 0
10, 346334, Note_on_c, 3, 43, 108
10, 347294, Note_on_c, 3, 43, 0
10, 347302, Note_on_c, 3, 39, 101
10, 349683, Note_on_c, 3, 43, 101
10, 349702, Note_on_c, 3, 39, 0
10, 350643, Note_on_c, 3, 43, 0
10, 350653, Note_on_c, 3, 39, 110
10, 354960, Control_c, 3, 11, 64
10, 355005, Control_c, 3, 11, 65
10, 355050, Control_c, 3, 11, 66
10, 355095, Control_c, 3, 11, 67
10, 355140, Control_c, 3, 11, 68
10, 355185, Control_c, 3, 11, 69
10, 355230, Control_c, 3, 11, 70
10, 355275, Control_c, 3, 11, 71
10, 355320, Control_c, 3, 11, 72
10, 355365, Control_c, 3, 11, 73
10, 355410, Control_c, 3, 11, 74
10, 355455, Control_c, 3, 11, 75
10, 355500, Control_c, 3, 11, 76
10, 355545, Control_c, 3, 11, 77
10, 355590, Control_c, 3, 11, 78
10, 355635, Control_c, 3, 11, 79
10, 355680, Control_c, 3, 11, 80
10, 355725, Control_c, 3, 11, 81
10, 355770, Control_c, 3, 11, 82
10, 355815, Control_c, 3, 11, 83
10, 355860, Control_c, 3, 11, 84
10, 355905, Control_c, 3, 11, 85
10, 355950, Control_c, 3, 11, 86
10, 355995, Control_c, 3, 11, 87
10, 356040, Control_c, 3, 11, 88
10, 356085, Control_c, 3, 11, 89
10, 356130, Control_c, 3, 11, 90
10, 356175, Control_c, 3, 11, 91
10, 356220, Control_c, 3, 11, 92
10, 356265, Control_c, 3, 11, 93
10, 356310, Control_c, 3, 11, 94
10, 356355, Control_c, 3, 11, 95
10, 356400, Control_c, 3, 11, 96
10, 356445, Control_c, 3, 11, 97
10, 356490, Control_c, 3, 11, 98
10, 356535, Control_c, 3, 11, 99
10, 356580, Control_c, 3, 11, 100
10, 356625, Control_c, 3, 11, 101
10, 356670, Control_c, 3, 11, 102
10, 356715, Control_c, 3, 11, 103
10, 356760, Control_c, 3, 11, 104
10, 356805, Control_c, 3, 11, 105
10, 356850, Control_c, 3, 11, 106
10, 356895, Control_c, 3, 11, 107
10, 356940, Control_c, 3, 11, 108
10, 356985, Control_c, 3, 11, 109
10, 357030, Control_c, 3, 11, 110
10, 357075, Control_c, 3, 11, 111
10, 357120, Control_c, 3, 11, 112
10, 357165, Control_c, 3, 11, 113
10, 357210, Control_c, 3, 11, 114
10, 357255, Control_c, 3, 11, 115
10, 357300, Control_c, 3, 11, 116
10, 357345, Control_c, 3, 11, 117
10, 357390, Control_c, 3, 11, 118
10, 357435, Control_c, 3, 11, 119
10, 357480, Control_c, 3, 11, 120
10, 357525, Control_c, 3, 11, 121
10, 357570, Control_c, 3, 11, 122
10, 357615, Control_c, 3, 11, 123
10, 357660, Control_c, 3, 11, 124
10, 357705, Control_c, 3, 11, 125
10, 357750, Control_c, 3, 11, 126
10, 357795, Control_c, 3, 11, 127
10, 357853, Note_on_c, 3, 39, 0
10, 357857, Note_on_c, 3, 42, 96
10, 358177, Note_on_c, 3, 42, 0
10, 358497, Note_on_c, 3, 39, 95
10, 358622, Control_c, 3, 11, 127
10, 358655, Control_c, 3, 11, 126
10, 358688, Control_c, 3, 11, 125
10, 358722, Control_c, 3, 11, 124
10, 358755, Control_c, 3, 11, 123
10, 358788, Control_c, 3, 11, 122
10, 358822, Control_c, 3, 11, 121
10, 358855, Control_c, 3, 11, 120
10, 358888, Control_c, 3, 11, 119
10, 358921, Control_c, 3, 11, 118
10, 358955, Control_c, 3, 11, 117
10, 358988, Control_c, 3, 11, 116
10, 359021, Control_c, 3, 11, 115
10, 359055, Control_c, 3, 11, 114
10, 359088, Control_c, 3, 11, 113
10, 359122, Control_c, 3, 11, 112
10, 359155, Control_c, 3, 11, 111
10, 359188, Control_c, 3, 11, 110
10, 359221, Control_c, 3, 11, 109
10, 359255, Control_c, 3, 11, 108
10, 359288, Control_c, 3, 11, 107
10, 359321, Control_c, 3, 11, 106
10, 359355, Control_c, 3, 11, 105
10, 359388, Control_c, 3, 11, 104
10, 359421, Control_c, 3, 11, 103
10, 359454, Control_c, 3, 11, 102
10, 359488, Control_c, 3, 11, 101
10, 359521, Control_c, 3, 11, 100
10, 359554, Control_c, 3, 11, 99
10, 359587, Control_c, 3, 11, 98
10, 359621, Control_c, 3, 11, 97
10, 359654, Control_c, 3, 11, 96
10, 359687, Control_c, 3, 11, 95
10, 359721, Control_c, 3, 11, 94
10, 359754, Control_c, 3, 11, 93
10, 359787, Control_c, 3, 11, 92
10, 359820, Control_c, 3, 11, 91
10, 359854, Control_c, 3, 11, 90
10, 359887, Control_c, 3, 11, 89
10, 359920, Control_c, 3, 11, 88
10, 359954, Control_c, 3, 11, 87
10, 359987, Control_c, 3, 11, 86
10, 360020, Control_c, 3, 11, 85
10, 360053, Control_c, 3, 11, 84
10, 360087, Control_c, 3, 11, 83
10, 360120, Control_c, 3, 11, 82
10, 360153, Control_c, 3, 11, 81
10, 360187, Control_c, 3, 11, 80
10, 360220, Control_c, 3, 11, 79
10, 360254, Control_c, 3, 11, 78
10, 360287, Control_c, 3, 11, 77
10, 360320, Control_c, 3, 11, 76
10, 360353, Control_c, 3, 11, 75
10, 360387, Control_c, 3, 11, 74
10, 360420, Control_c, 3, 11, 73
10, 360453, Control_c, 3, 11, 72
10, 360487, Control_c, 3, 11, 71
10, 360520, Control_c, 3, 11, 70
10, 360553, Control_c, 3, 11, 69
10, 360586, Control_c, 3, 11, 68
10, 360620, Control_c, 3, 11, 67
10, 360653, Control_c, 3, 11, 66
10, 360686, Control_c, 3, 11, 65
10, 378540, Control_c, 3, 11, 65
10, 378600, Control_c, 3, 11, 66
10, 378661, Control_c, 3, 11, 67
10, 378721, Control_c, 3, 11, 68
10, 378782, Control_c, 3, 11, 69
10, 378842, Control_c, 3, 11, 70
10, 378903, Control_c, 3, 11, 71
10, 378963, Control_c, 3, 11, 72
10, 379024, Control_c, 3, 11, 73
10, 379084, Control_c, 3, 11, 74
10, 379145, Control_c, 3, 11, 75
10, 379205, Control_c, 3, 11, 76
10, 379266, Control_c, 3, 11, 77
10, 379326, Control_c, 3, 11, 78
10, 379387, Control_c, 3, 11, 79
10, 379447, Control_c, 3, 11, 80
10, 379507, Control_c, 3, 11, 81
10, 379567, Control_c, 3, 11, 82
10, 379628, Control_c, 3, 11, 83
10, 379688, Control_c, 3, 11, 84
10, 379749, Control_c, 3, 11, 85
10, 379809, Control_c, 3, 11, 86
10, 379870, Control_c, 3, 11, 87
10, 379930, Control_c, 3, 11, 88
10, 379991, Control_c, 3, 11, 89
10, 380051, Control_c, 3, 11, 90
10, 380112, Control_c, 3, 11, 91
10, 380172, Control_c, 3, 11, 92
10, 380233, Control_c, 3, 11, 93
10, 380293, Control_c, 3, 11, 94
10, 380354, Control_c, 3, 11, 95
10, 380414, Control_c, 3, 11, 96
10, 380475, Control_c, 3, 11, 97
10, 380535, Control_c, 3, 11, 98
10, 380595, Control_c, 3, 11, 99
10, 380656, Control_c, 3, 11, 100
10, 380716, Control_c, 3, 11, 101
10, 380777, Control_c, 3, 11, 102
10, 380837, Control_c, 3, 11, 103
10, 380898, Control_c, 3, 11, 104
10, 380958, Control_c, 3, 11, 105
10, 381019, Control_c, 3, 11, 106
10, 381079, Control_c, 3, 11, 107
10, 381140, Control_c, 3, 11, 108
10, 381200, Control_c, 3, 11, 109
10, 381261, Control_c, 3, 11, 110
10, 381321, Control_c, 3, 11, 111
10, 381382, Control_c, 3, 11, 112
10, 381442, Control_c, 3, 11, 113
10, 381502, Control_c, 3, 11, 114
10, 381562, Control_c, 3, 11, 115
10, 381623, Control_c, 3, 11, 116
10, 381683, Control_c, 3, 11, 117
10, 381744, Control_c, 3, 11, 118
10, 381804, Control_c, 3, 11, 119
10, 381865, Control_c, 3, 11, 120
10, 381925, Control_c, 3, 11, 121
10, 381986, Control_c, 3, 11, 122
10, 382046, Control_c, 3, 11, 123
10, 382107, Control_c, 3, 11, 124
10, 382167, Control_c, 3, 11, 125
10, 382228, Control_c, 3, 11, 126
10, 382288, Control_c, 3, 11, 127
10, 382329, Note_on_c, 3, 42, 116
10, 382337, Note_on_c, 3, 39, 0
10, 382649, Note_on_c, 3, 42, 0
10, 382973, Note_on_c, 3, 39, 122
10, 383317, Control_c, 3, 11, 127
10, 383355, Control_c, 3, 11, 126
10, 383392, Control_c, 3, 11, 125
10, 383430, Control_c, 3, 11, 124
10, 383467, Control_c, 3, 11, 123
10, 383505, Control_c, 3, 11, 122
10, 383542, Control_c, 3, 11, 121
10, 383580, Control_c, 3, 11, 120
10, 383617, Control_c, 3, 11, 119
10, 383655, Control_c, 3, 11, 118
10, 383692, Control_c, 3, 11, 117
10, 383730, Control_c, 3, 11, 116
10, 383767, Control_c, 3, 11, 115
10, 383805, Control_c, 3, 11, 114
10, 383842, Control_c, 3, 11, 113
10, 383880, Control_c, 3, 11, 112
10, 383917, Control_c, 3, 11, 111
10, 383955, Control_c, 3, 11, 110
10, 383992, Control_c, 3, 11, 109
10, 384030, Control_c, 3, 11, 108
10, 384067, Control_c, 3, 11, 107
10, 384105, Control_c, 3, 11, 106
10, 384142, Control_c, 3, 11, 105
10, 384180, Control_c, 3, 11, 104
10, 384217, Control_c, 3, 11, 103
10, 384255, Control_c, 3, 11, 102
10, 384292, Control_c, 3, 11, 101
10, 384330, Control_c, 3, 11, 100
10, 384367, Control_c, 3, 11, 99
10, 384405, Control_c, 3, 11, 98
10, 384442, Control_c, 3, 11, 97
10, 384480, Control_c, 3, 11, 96
10, 384517, Control_c, 3, 11, 95
10, 384555, Control_c, 3, 11, 94
10, 384592, Control_c, 3, 11, 93
10, 384630, Control_c, 3, 11, 92
10, 384667, Control_c, 3, 11, 91
10, 384705, Control_c, 3, 11, 90
10, 384742, Control_c, 3, 11, 89
10, 384780, Control_c, 3, 11, 88
10, 384817, Control_c, 3, 11, 87
10, 384855, Control_c, 3, 11, 86
10, 384892, Control_c, 3, 11, 85
10, 384930, Control_c, 3, 11, 84
10, 384967, Control_c, 3, 11, 83
10, 385005, Control_c, 3, 11, 82
10, 385042, Control_c, 3, 11, 81
10, 385080, Control_c, 3, 11, 80
10, 385117, Control_c, 3, 11, 79
10, 385155, Control_c, 3, 11, 78
10, 385192, Control_c, 3, 11, 77
10, 385230, Control_c, 3, 11, 76
10, 385267, Control_c, 3, 11, 75
10, 385305, Control_c, 3, 11, 74
10, 385342, Control_c, 3, 11, 73
10, 385380, Control_c, 3, 11, 72
10, 385417, Control_c, 3, 11, 71
10, 385455, Control_c, 3, 11, 70
10, 385492, Control_c, 3, 11, 69
10, 385530, Control_c, 3, 11, 68
10, 385567, Control_c, 3, 11, 67
10, 385605, Control_c, 3, 11, 66
10, 385642, Control_c, 3, 11, 65
10, 386173, Note_on_c, 3, 39, 0
10, 387600, Control_c, 3, 11, 127
10, 446162, Control_c, 3, 11, 65
10, 446163, Note_on_c, 3, 38, 116
10, 446174, Control_c, 3, 11, 66
10, 446185, Control_c, 3, 11, 67
10, 446197, Control_c, 3, 11, 68
10, 446209, Control_c, 3, 11, 69
10, 446220, Control_c, 3, 11, 70
10, 446232, Control_c, 3, 11, 71
10, 446243, Control_c, 3, 11, 72
10, 446255, Control_c, 3, 11, 73
10, 446267, Control_c, 3, 11, 74
10, 446278, Control_c, 3, 11, 75
10, 446290, Control_c, 3, 11, 76
10, 446302, Control_c, 3, 11, 77
10, 446313, Control_c, 3, 11, 78
10, 446325, Control_c, 3, 11, 79
10, 446336, Control_c, 3, 11, 80
10, 446348, Control_c, 3, 11, 81
10, 446360, Control_c, 3, 11, 82
10, 446371, Control_c, 3, 11, 83
10, 446383, Control_c, 3, 11, 84
10, 446394, Control_c, 3, 11, 85
10, 446406, Control_c, 3, 11, 86
10, 446418, Control_c, 3, 11, 87
10, 446429, Control_c, 3, 11, 88
10, 446441, Control_c, 3, 11, 89
10, 446452, Control_c, 3, 11, 90
10, 446464, Control_c, 3, 11, 91
10, 446475, Control_c, 3, 11, 92
10, 446487, Control_c, 3, 11, 93
10, 446499, Control_c, 3, 11, 94
10, 446511, Control_c, 3, 11, 95
10, 446522, Control_c, 3, 11, 96
10, 446534, Control_c, 3, 11, 97
10, 446545, Control_c, 3, 11, 98
10, 446557, Control_c, 3, 11, 99
10, 446569, Control_c, 3, 11, 100
10, 446580, Control_c, 3, 11, 101
10, 446592, Control_c, 3, 11, 102
10, 446603, Control_c, 3, 11, 103
10, 446615, Control_c, 3, 11, 104
10, 446626, Control_c, 3, 11, 105
10, 446638, Control_c, 3, 11, 106
10, 446650, Control_c, 3, 11, 107
10, 446662, Control_c, 3, 11, 108
10, 446673, Control_c, 3, 11, 109
10, 446685, Control_c, 3, 11, 110
10, 446696, Control_c, 3, 11, 111
10, 446708, Control_c, 3, 11, 112
10, 446720, Control_c, 3, 11, 113
10, 446731, Control_c, 3, 11, 114
10, 446743, Control_c, 3, 11, 115
10, 446754, Control_c, 3, 11, 116
10, 446766, Control_c, 3, 11, 117
10, 446777, Control_c, 3, 11, 118
10, 446789, Control_c, 3, 11, 119
10, 446801, Control_c, 3, 11, 120
10, 446812, Control_c, 3, 11, 121
10, 446824, Control_c, 3, 11, 122
10, 446835, Control_c, 3, 11, 123
10, 446847, Control_c, 3, 11, 124
10, 446859, Control_c, 3, 11, 125
10, 446870, Control_c, 3, 11, 126
10, 446882, Control_c, 3, 11, 127
10, 446883, Note_on_c, 3, 38, 0
10, 448081, Note_on_c, 3, 48, 49
10, 448102, Note_on_c, 3, 41, 50
10, 448177, Note_on_c, 3, 48, 0
10, 448198, Note_on_c, 3, 41, 0
10, 448330, Note_on_c, 3, 48, 53
10, 448339, Note_on_c, 3, 41, 48
10, 448426, Note_on_c, 3, 48, 0
10, 448435, Note_on_c, 3, 41, 0
10, 448561, Note_on_c, 3, 40, 48
10, 448561, Note_on_c, 3, 47, 49
10, 448657, Note_on_c, 3, 40, 0
10, 448657, Note_on_c, 3, 47, 0
10, 449042, Control_c, 3, 11, 65
10, 449054, Control_c, 3, 11, 66
10, 449057, Note_on_c, 3, 41, 100
10, 449063, Note_on_c, 3, 53, 104
10, 449065, Control_c, 3, 11, 67
10, 449077, Control_c, 3, 11, 68
10, 449089, Control_c, 3, 11, 69
10, 449100, Control_c, 3, 11, 70
10, 449112, Control_c, 3, 11, 71
10, 449123, Control_c, 3, 11, 72
10, 449135, Control_c, 3, 11, 73
10, 449147, Control_c, 3, 11, 74
10, 449158, Control_c, 3, 11, 75
10, 449170, Control_c, 3, 11, 76
10, 449182, Control_c, 3, 11, 77
10, 449193, Control_c, 3, 11, 78
10, 449205, Control_c, 3, 11, 79
10, 449216, Control_c, 3, 11, 80
10, 449228, Control_c, 3, 11, 81
10, 449240, Control_c, 3, 11, 82
10, 449251, Control_c, 3, 11, 83
10, 449263, Control_c, 3, 11, 84
10, 449274, Control_c, 3, 11, 85
10, 449286, Control_c, 3, 11, 86
10, 449298, Control_c, 3, 11, 87
10, 449309, Control_c, 3, 11, 88
10, 449321, Control_c, 3, 11, 89
10, 449332, Control_c, 3, 11, 90
10, 449344, Control_c, 3, 11, 91
10, 449355, Control_c, 3, 11, 92
10, 449367, Control_c, 3, 11, 93
10, 449379, Control_c, 3, 11, 94
10, 449391, Control_c, 3, 11, 95
10, 449402, Control_c, 3, 11, 96
10, 449414, Control_c, 3, 11, 97
10, 449425, Control_c, 3, 11, 98
10, 449437, Control_c, 3, 11, 99
10, 449449, Control_c, 3, 11, 100
10, 449460, Control_c, 3, 11, 101
10, 449472, Control_c, 3, 11, 102
10, 449483, Control_c, 3, 11, 103
10, 449495, Control_c, 3, 11, 104
10, 449506, Control_c, 3, 11, 105
10, 449518, Control_c, 3, 11, 106
10, 449530, Control_c, 3, 11, 107
10, 449542, Control_c, 3, 11, 108
10, 449553, Control_c, 3, 11, 109
10, 449565, Control_c, 3, 11, 110
10, 449576, Control_c, 3, 11, 111
10, 449588, Control_c, 3, 11, 112
10, 449600, Control_c, 3, 11, 113
10, 449611, Control_c, 3, 11, 114
10, 449623, Control_c, 3, 11, 115
10, 449634, Control_c, 3, 11, 116
10, 449646, Control_c, 3, 11, 117
10, 449657, Control_c, 3, 11, 118
10, 449669, Control_c, 3, 11, 119
10, 449681, Control_c, 3, 11, 120
10, 449692, Control_c, 3, 11, 121
10, 449704, Control_c, 3, 11, 122
10, 449715, Control_c, 3, 11, 123
10, 449727, Control_c, 3, 11, 124
10, 449739, Control_c, 3, 11, 125
10, 449750, Control_c, 3, 11, 126
10, 449762, Control_c, 3, 11, 127
10, 449777, Note_on_c, 3, 41, 0
10, 449783, Note_on_c, 3, 53, 0
10, 450009, Note_on_c, 3, 48, 53
10, 450019, Note_on_c, 3, 41, 51
10, 450105, Note_on_c, 3, 48, 0
10, 450115, Note_on_c, 3, 41, 0
10, 450246, Note_on_c, 3, 48, 44
10, 450253, Note_on_c, 3, 41, 51
10, 450342, Note_on_c, 3, 48, 0
10, 450349, Note_on_c, 3, 41, 0
10, 450483, Note_on_c, 3, 40, 55
10, 450488, Note_on_c, 3, 47, 52
10, 450579, Note_on_c, 3, 40, 0
10, 450584, Note_on_c, 3, 47, 0
10, 451934, Note_on_c, 3, 48, 55
10, 451939, Note_on_c, 3, 41, 59
10, 452030, Note_on_c, 3, 48, 0
10, 452035, Note_on_c, 3, 41, 0
10, 452160, Note_on_c, 3, 48, 53
10, 452185, Note_on_c, 3, 41, 57
10, 452256, Note_on_c, 3, 48, 0
10, 452281, Note_on_c, 3, 41, 0
10, 452402, Note_on_c, 3, 47, 49
10, 452415, Note_on_c, 3, 40, 46
10, 452498, Note_on_c, 3, 47, 0
10, 452511, Note_on_c, 3, 40, 0
10, 452882, Control_c, 3, 11, 65
10, 452884, Note_on_c, 3, 41, 106
10, 452891, Note_on_c, 3, 53, 115
10, 452894, Control_c, 3, 11, 66
10, 452905, Control_c, 3, 11, 67
10, 452917, Control_c, 3, 11, 68
10, 452929, Control_c, 3, 11, 69
10, 452940, Control_c, 3, 11, 70
10, 452952, Control_c, 3, 11, 71
10, 452963, Control_c, 3, 11, 72
10, 452975, Control_c, 3, 11, 73
10, 452987, Control_c, 3, 11, 74
10, 452998, Control_c, 3, 11, 75
10, 453010, Control_c, 3, 11, 76
10, 453022, Control_c, 3, 11, 77
10, 453033, Control_c, 3, 11, 78
10, 453045, Control_c, 3, 11, 79
10, 453056, Control_c, 3, 11, 80
10, 453068, Control_c, 3, 11, 81
10, 453080, Control_c, 3, 11, 82
10, 453091, Control_c, 3, 11, 83
10, 453103, Control_c, 3, 11, 84
10, 453114, Control_c, 3, 11, 85
10, 453126, Control_c, 3, 11, 86
10, 453138, Control_c, 3, 11, 87
10, 453149, Control_c, 3, 11, 88
10, 453161, Control_c, 3, 11, 89
10, 453172, Control_c, 3, 11, 90
10, 453184, Control_c, 3, 11, 91
10, 453195, Control_c, 3, 11, 92
10, 453207, Control_c, 3, 11, 93
10, 453219, Control_c, 3, 11, 94
10, 453231, Control_c, 3, 11, 95
10, 453242, Control_c, 3, 11, 96
10, 453254, Control_c, 3, 11, 97
10, 453265, Control_c, 3, 11, 98
10, 453277, Control_c, 3, 11, 99
10, 453289, Control_c, 3, 11, 100
10, 453300, Control_c, 3, 11, 101
10, 453312, Control_c, 3, 11, 102
10, 453323, Control_c, 3, 11, 103
10, 453335, Control_c, 3, 11, 104
10, 453346, Control_c, 3, 11, 105
10, 453358, Control_c, 3, 11, 106
10, 453370, Control_c, 3, 11, 107
10, 453382, Control_c, 3, 11, 108
10, 453393, Control_c, 3, 11, 109
10, 453405, Control_c, 3, 11, 110
10, 453416, Control_c, 3, 11, 111
10, 453428, Control_c, 3, 11, 112
10, 453440, Control_c, 3, 11, 113
10, 453451, Control_c, 3, 11, 114
10, 453463, Control_c, 3, 11, 115
10, 453474, Control_c, 3, 11, 116
10, 453486, Control_c, 3, 11, 117
10, 453497, Control_c, 3, 11, 118
10, 453509, Control_c, 3, 11, 119
10, 453521, Control_c, 3, 11, 120
10, 453532, Control_c, 3, 11, 121
10, 453544, Control_c, 3, 11, 122
10, 453555, Control_c, 3, 11, 123
10, 453567, Control_c, 3, 11, 124
10, 453579, Control_c, 3, 11, 125
10, 453590, Control_c, 3, 11, 126
10, 453602, Control_c, 3, 11, 127
10, 453604, Note_on_c, 3, 41, 0
10, 453611, Note_on_c, 3, 53, 0
10, 454802, Note_on_c, 3, 41, 109
10, 454802, Control_c, 3, 11, 65
10, 454814, Control_c, 3, 11, 66
10, 454821, Note_on_c, 3, 53, 100
10, 454825, Control_c, 3, 11, 67
10, 454837, Control_c, 3, 11, 68
10, 454849, Control_c, 3, 11, 69
10, 454860, Control_c, 3, 11, 70
10, 454872, Control_c, 3, 11, 71
10, 454883, Control_c, 3, 11, 72
10, 454895, Control_c, 3, 11, 73
10, 454907, Control_c, 3, 11, 74
10, 454918, Control_c, 3, 11, 75
10, 454930, Control_c, 3, 11, 76
10, 454942, Control_c, 3, 11, 77
10, 454953, Control_c, 3, 11, 78
10, 454965, Control_c, 3, 11, 79
10, 454976, Control_c, 3, 11, 80
10, 454988, Control_c, 3, 11, 81
10, 455000, Control_c, 3, 11, 82
10, 455011, Control_c, 3, 11, 83
10, 455023, Control_c, 3, 11, 84
10, 455034, Control_c, 3, 11, 85
10, 455046, Control_c, 3, 11, 86
10, 455058, Control_c, 3, 11, 87
10, 455069, Control_c, 3, 11, 88
10, 455081, Control_c, 3, 11, 89
10, 455092, Control_c, 3, 11, 90
10, 455104, Control_c, 3, 11, 91
10, 455115, Control_c, 3, 11, 92
10, 455127, Control_c, 3, 11, 93
10, 455139, Control_c, 3, 11, 94
10, 455151, Control_c, 3, 11, 95
10, 455162, Control_c, 3, 11, 96
10, 455174, Control_c, 3, 11, 97
10, 455185, Control_c, 3, 11, 98
10, 455197, Control_c, 3, 11, 99
10, 455209, Control_c, 3, 11, 100
10, 455220, Control_c, 3, 11, 101
10, 455232, Control_c, 3, 11, 102
10, 455243, Control_c, 3, 11, 103
10, 455255, Control_c, 3, 11, 104
10, 455266, Control_c, 3, 11, 105
10, 455278, Control_c, 3, 11, 106
10, 455290, Control_c, 3, 11, 107
10, 455302, Control_c, 3, 11, 108
10, 455313, Control_c, 3, 11, 109
10, 455325, Control_c, 3, 11, 110
10, 455336, Control_c, 3, 11, 111
10, 455348, Control_c, 3, 11, 112
10, 455360, Control_c, 3, 11, 113
10, 455371, Control_c, 3, 11, 114
10, 455383, Control_c, 3, 11, 115
10, 455394, Control_c, 3, 11, 116
10, 455406, Control_c, 3, 11, 117
10, 455417, Control_c, 3, 11, 118
10, 455429, Control_c, 3, 11, 119
10, 455441, Control_c, 3, 11, 120
10, 455452, Control_c, 3, 11, 121
10, 455464, Control_c, 3, 11, 122
10, 455475, Control_c, 3, 11, 123
10, 455487, Control_c, 3, 11, 124
10, 455499, Control_c, 3, 11, 125
10, 455510, Control_c, 3, 11, 126
10, 455522, Note_on_c, 3, 41, 0
10, 455522, Control_c, 3, 11, 127
10, 455541, Note_on_c, 3, 53, 0
10, 467293, Note_on_c, 3, 38, 48
10, 467300, Note_on_c, 3, 46, 40
10, 467485, Note_on_c, 3, 38, 0
10, 467492, Note_on_c, 3, 46, 0
10, 467767, Note_on_c, 3, 46, 33
10, 467784, Note_on_c, 3, 38, 46
10, 467959, Note_on_c, 3, 46, 0
10, 467976, Note_on_c, 3, 38, 0
10, 468250, Note_on_c, 3, 46, 42
10, 468267, Note_on_c, 3, 38, 49
10, 468442, Note_on_c, 3, 46, 0
10, 468459, Note_on_c, 3, 38, 0
10, 468742, Note_on_c, 3, 46, 47
10, 468749, Note_on_c, 3, 38, 37
10, 468934, Note_on_c, 3, 46, 0
10, 468941, Note_on_c, 3, 38, 0
10, 469205, Note_on_c, 3, 46, 33
10, 469207, Note_on_c, 3, 38, 44
10, 469397, Note_on_c, 3, 46, 0
10, 469399, Note_on_c, 3, 38, 0
10, 469686, Note_on_c, 3, 46, 33
10, 469698, Note_on_c, 3, 38, 46
10, 469878, Note_on_c, 3, 46, 0
10, 469890, Note_on_c, 3, 38, 0
10, 470161, Note_on_c, 3, 46, 34
10, 470162, Note_on_c, 3, 38, 50
10, 470353, Note_on_c, 3, 46, 0
10, 470354, Note_on_c, 3, 38, 0
10, 470657, Note_on_c, 3, 46, 38
10, 470658, Note_on_c, 3, 38, 30
10, 470849, Note_on_c, 3, 46, 0
10, 470850, Note_on_c, 3, 38, 0
10, 471137, Note_on_c, 3, 38, 41
10, 471145, Note_on_c, 3, 46, 45
10, 471329, Note_on_c, 3, 38, 0
10, 471337, Note_on_c, 3, 46, 0
10, 471614, Note_on_c, 3, 46, 33
10, 471620, Note_on_c, 3, 38, 38
10, 471806, Note_on_c, 3, 46, 0
10, 471812, Note_on_c, 3, 38, 0
10, 472086, Note_on_c, 3, 46, 33
10, 472090, Note_on_c, 3, 38, 46
10, 472278, Note_on_c, 3, 46, 0
10, 472282, Note_on_c, 3, 38, 0
10, 472579, Note_on_c, 3, 38, 34
10, 472585, Note_on_c, 3, 46, 35
10, 472771, Note_on_c, 3, 38, 0
10, 472777, Note_on_c, 3, 46, 0
10, 473055, Note_on_c, 3, 46, 48
10, 473057, Note_on_c, 3, 38, 32
10, 473247, Note_on_c, 3, 46, 0
10, 473249, Note_on_c, 3, 38, 0
10, 473529, Note_on_c, 3, 38, 48
10, 473536, Note_on_c, 3, 46, 41
10, 473721, Note_on_c, 3, 38, 0
10, 473728, Note_on_c, 3, 46, 0
10, 474013, Note_on_c, 3, 38, 41
10, 474016, Note_on_c, 3, 46, 37
10, 474205, Note_on_c, 3, 38, 0
10, 474208, Note_on_c, 3, 46, 0
10, 474495, Note_on_c, 3, 46, 32
10, 474499, Note_on_c, 3, 38, 47
10, 474687, Note_on_c, 3, 46, 0
10, 474691, Note_on_c, 3, 38, 0
10, 474971, Note_on_c, 3, 46, 47
10, 475163, Note_on_c, 3, 46, 0
10, 481691, Note_on_c, 3, 49, 43
10, 482450, Note_on_c, 3, 49, 0
10, 482458, Note_on_c, 3, 47, 43
10, 482486, Note_on_c, 3, 49, 43
10, 482498, Note_on_c, 3, 47, 0
10, 482526, Note_on_c, 3, 49, 0
10, 482529, Note_on_c, 3, 47, 40
10, 482568, Note_on_c, 3, 47, 0
10, 482587, Note_on_c, 3, 49, 49
10, 482603, Note_on_c, 3, 47, 59
10, 482624, Note_on_c, 3, 49, 0
10, 482643, Note_on_c, 3, 47, 0
10, 482643, Note_on_c, 3, 49, 39
10, 482919, Note_on_c, 3, 47, 57
10, 482922, Note_on_c, 3, 49, 0
10, 482959, Note_on_c, 3, 47, 0
10, 482960, Note_on_c, 3, 49, 54
10, 483000, Note_on_c, 3, 49, 0
10, 483000, Note_on_c, 3, 47, 50
10, 483039, Note_on_c, 3, 47, 0
10, 483039, Note_on_c, 3, 49, 47
10, 483079, Note_on_c, 3, 49, 0
10, 483080, Note_on_c, 3, 47, 50
10, 483120, Note_on_c, 3, 47, 0
10, 483120, Note_on_c, 3, 49, 56
10, 483150, Note_on_c, 3, 47, 55
10, 483165, Note_on_c, 3, 49, 0
10, 483180, Note_on_c, 3, 49, 57
10, 483195, Note_on_c, 3, 47, 0
10, 483210, Note_on_c, 3, 47, 39
10, 483225, Note_on_c, 3, 49, 0
10, 483240, Note_on_c, 3, 49, 47
10, 483255, Note_on_c, 3, 47, 0
10, 483270, Note_on_c, 3, 47, 58
10, 483285, Note_on_c, 3, 49, 0
10, 483300, Note_on_c, 3, 49, 48
10, 483315, Note_on_c, 3, 47, 0
10, 483330, Note_on_c, 3, 47, 50
10, 483345, Note_on_c, 3, 49, 0
10, 483360, Note_on_c, 3, 49, 46
10, 483375, Note_on_c, 3, 47, 0
10, 483390, Note_on_c, 3, 47, 49
10, 483405, Note_on_c, 3, 49, 0
10, 483420, Note_on_c, 3, 49, 45
10, 483435, Note_on_c, 3, 47, 0
10, 483450, Note_on_c, 3, 47, 45
10, 483465, Note_on_c, 3, 49, 0
10, 483480, Note_on_c, 3, 49, 54
10, 483495, Note_on_c, 3, 47, 0
10, 483510, Note_on_c, 3, 47, 43
10, 483525, Note_on_c, 3, 49, 0
10, 483540, Note_on_c, 3, 49, 51
10, 483555, Note_on_c, 3, 47, 0
10, 483570, Note_on_c, 3, 47, 50
10, 483585, Note_on_c, 3, 49, 0
10, 483600, Note_on_c, 3, 49, 40
10, 483615, Note_on_c, 3, 47, 0
10, 483630, Note_on_c, 3, 47, 57
10, 483645, Note_on_c, 3, 49, 0
10, 483660, Note_on_c, 3, 49, 49
10, 483675, Note_on_c, 3, 47, 0
10, 483690, Note_on_c, 3, 47, 57
10, 483705, Note_on_c, 3, 49, 0
10, 483720, Note_on_c, 3, 49, 44
10, 483735, Note_on_c, 3, 47, 0
10, 483750, Note_on_c, 3, 47, 41
10, 483765, Note_on_c, 3, 49, 0
10, 483780, Note_on_c, 3, 49, 57
10, 483795, Note_on_c, 3, 47, 0
10, 483810, Note_on_c, 3, 47, 49
10, 483825, Note_on_c, 3, 49, 0
10, 483840, Note_on_c, 3, 49, 59
10, 483855, Note_on_c, 3, 47, 0
10, 483870, Note_on_c, 3, 47, 46
10, 483885, Note_on_c, 3, 49, 0
10, 483900, Note_on_c, 3, 49, 41
10, 483915, Note_on_c, 3, 47, 0
10, 483930, Note_on_c, 3, 47, 52
10, 483945, Note_on_c, 3, 49, 0
10, 483960, Note_on_c, 3, 49, 57
10, 483975, Note_on_c, 3, 47, 0
10, 483990, Note_on_c, 3, 47, 44
10, 484005, Note_on_c, 3, 49, 0
10, 484020, Note_on_c, 3, 49, 54
10, 484035, Note_on_c, 3, 47, 0
10, 484050, Note_on_c, 3, 47, 49
10, 484065, Note_on_c, 3, 49, 0
10, 484080, Note_on_c, 3, 49, 58
10, 484080, Note_on_c, 3, 61, 56
10, 484095, Note_on_c, 3, 47, 0
10, 484110, Note_on_c, 3, 47, 52
10, 484110, Note_on_c, 3, 59, 52
10, 484125, Note_on_c, 3, 49, 0
10, 484125, Note_on_c, 3, 61, 0
10, 484140, Note_on_c, 3, 49, 56
10, 484140, Note_on_c, 3, 61, 40
10, 484155, Note_on_c, 3, 47, 0
10, 484155, Note_on_c, 3, 59, 0
10, 484170, Note_on_c, 3, 47, 49
10, 484170, Note_on_c, 3, 59, 44
10, 484185, Note_on_c, 3, 49, 0
10, 484185, Note_on_c, 3, 61, 0
10, 484200, Note_on_c, 3, 49, 57
10, 484200, Note_on_c, 3, 61, 39
10, 484215, Note_on_c, 3, 47, 0
10, 484215, Note_on_c, 3, 59, 0
10, 484230, Note_on_c, 3, 59, 50
10, 484230, Note_on_c, 3, 47, 46
10, 484245, Note_on_c, 3, 49, 0
10, 484245, Note_on_c, 3, 61, 0
10, 484260, Note_on_c, 3, 61, 46
10, 484260, Note_on_c, 3, 49, 54
10, 484275, Note_on_c, 3, 59, 0
10, 484275, Note_on_c, 3, 47, 0
10, 484290, Note_on_c, 3, 47, 55
10, 484290, Note_on_c, 3, 59, 59
10, 484305, Note_on_c, 3, 61, 0
10, 484305, Note_on_c, 3, 49, 0
10, 484320, Note_on_c, 3, 49, 40
10, 484320, Note_on_c, 3, 57, 49
10, 484335, Note_on_c, 3, 47, 0
10, 484335, Note_on_c, 3, 59, 0
10, 484350, Note_on_c, 3, 47, 46
10, 484365, Note_on_c, 3, 49, 0
10, 484367, Note_on_c, 3, 57, 0
10, 484367, Note_on_c, 3, 54, 56
10, 484380, Note_on_c, 3, 49, 56
10, 484395, Note_on_c, 3, 47, 0
10, 484410, Note_on_c, 3, 47, 56
10, 484415, Note_on_c, 3, 54, 0
10, 484416, Note_on_c, 3, 57, 48
10, 484425, Note_on_c, 3, 49, 0
10, 484440, Note_on_c, 3, 49, 54
10, 484455, Note_on_c, 3, 47, 0
10, 484463, Note_on_c, 3, 57, 0
10, 484463, Note_on_c, 3, 53, 44
10, 484470, Note_on_c, 3, 47, 43
10, 484485, Note_on_c, 3, 49, 0
10, 484500, Note_on_c, 3, 49, 54
10, 484511, Note_on_c, 3, 53, 0
10, 484512, Note_on_c, 3, 51, 54
10, 484515, Note_on_c, 3, 47, 0
10, 484530, Note_on_c, 3, 47, 49
10, 484545, Note_on_c, 3, 49, 0
10, 484560, Note_on_c, 3, 51, 0
10, 484575, Note_on_c, 3, 47, 0
10, 484581, Note_on_c, 3, 61, 46
10, 485221, Note_on_c, 3, 59, 49
10, 485241, Note_on_c, 3, 61, 0
10, 485281, Note_on_c, 3, 59, 0
10, 485297, Note_on_c, 3, 61, 59
10, 485341, Note_on_c, 3, 59, 47
10, 485357, Note_on_c, 3, 61, 0
10, 485401, Note_on_c, 3, 59, 0
10, 485428, Note_on_c, 3, 61, 42
10, 485463, Note_on_c, 3, 59, 41
10, 485488, Note_on_c, 3, 61, 0
10, 485523, Note_on_c, 3, 59, 0
10, 485533, Note_on_c, 3, 61, 58
10, 486486, Note_on_c, 3, 59, 43
10, 486493, Note_on_c, 3, 61, 0
10, 486582, Note_on_c, 3, 59, 0
10, 487545, Note_on_c, 3, 48, 62
10, 487633, Note_on_c, 3, 52, 63
10, 487641, Note_on_c, 3, 48, 0
10, 487728, Note_on_c, 3, 52, 0
10, 487738, Note_on_c, 3, 48, 52
10, 487824, Note_on_c, 3, 39, 72
10, 487834, Note_on_c, 3, 48, 0
10, 487920, Note_on_c, 3, 39, 0
10, 487948, Note_on_c, 3, 51, 63
10, 487999, Note_on_c, 3, 52, 57
10, 488008, Note_on_c, 3, 51, 0
10, 488047, Note_on_c, 3, 60, 56
10, 488059, Note_on_c, 3, 52, 0
10, 488106, Note_on_c, 3, 64, 52
10, 488107, Note_on_c, 3, 60, 0
10, 488166, Note_on_c, 3, 64, 0
10, 488175, Note_on_c, 3, 60, 67
10, 488235, Note_on_c, 3, 60, 0
10, 488240, Note_on_c, 3, 52, 61
10, 488300, Note_on_c, 3, 52, 0
10, 488301, Note_on_c, 3, 48, 56
10, 488358, Note_on_c, 3, 39, 56
10, 488361, Note_on_c, 3, 48, 0
10, 488413, Note_on_c, 3, 49, 60
10, 488418, Note_on_c, 3, 39, 0
10, 489373, Note_on_c, 3, 49, 0
10, 489386, Note_on_c, 3, 47, 72
10, 489626, Note_on_c, 3, 47, 0
10, 490416, Note_on_c, 3, 46, 33
10, 490450, Note_on_c, 3, 46, 0
10, 490465, Note_on_c, 3, 45, 47
10, 490499, Note_on_c, 3, 45, 0
10, 490538, Note_on_c, 3, 42, 32
10, 490572, Note_on_c, 3, 42, 0
10, 490620, Note_on_c, 3, 41, 31
10, 490654, Note_on_c, 3, 41, 0
10, 490685, Note_on_c, 3, 40, 41
10, 490719, Note_on_c, 3, 40, 0
10, 490734, Note_on_c, 3, 39, 32
10, 490768, Note_on_c, 3, 39, 0
10, 490813, Note_on_c, 3, 38, 35
10, 490873, Note_on_c, 3, 38, 0
10, 494544, Note_on_c, 3, 63, 98
10, 494687, Note_on_c, 3, 63, 0
10, 494776, Note_on_c, 3, 63, 103
10, 494919, Note_on_c, 3, 63, 0
10, 495006, Note_on_c, 3, 63, 99
10, 495066, Note_on_c, 3, 63, 0
10, 495120, Note_on_c, 3, 63, 106
10, 495192, Note_on_c, 3, 63, 0
10, 495262, Note_on_c, 3, 63, 97
10, 495322, Note_on_c, 3, 63, 0
10, 496682, Note_on_c, 3, 63, 92
10, 496754, Note_on_c, 3, 63, 0
10, 496814, Note_on_c, 3, 63, 109
10, 496886, Note_on_c, 3, 63, 0
10, 496945, Note_on_c, 3, 63, 109
10, 497017, Note_on_c, 3, 63, 0
10, 497054, Note_on_c, 3, 63, 101
10, 497126, Note_on_c, 3, 63, 0
10, 497172, Note_on_c, 3, 63, 101
10, 497219, Note_on_c, 3, 63, 0
10, 502920, Note_on_c, 3, 63, 120
10, 503000, Note_on_c, 3, 63, 0
10, 503069, Note_on_c, 3, 63, 112
10, 503149, Note_on_c, 3, 63, 0
10, 503534, Note_on_c, 3, 63, 115
10, 503614, Note_on_c, 3, 63, 0
10, 503643, Note_on_c, 3, 63, 117
10, 503723, Note_on_c, 3, 63, 0
10, 503889, Note_on_c, 3, 63, 117
10, 503969, Note_on_c, 3, 63, 0
10, 531383, Note_on_c, 3, 63, 107
10, 531418, Note_on_c, 3, 63, 0
10, 531437, Note_on_c, 3, 63, 91
10, 531497, Note_on_c, 3, 63, 0
10, 531600, Note_on_c, 3, 63, 105
10, 531654, Note_on_c, 3, 63, 0
10, 531674, Note_on_c, 3, 63, 93
10, 531734, Note_on_c, 3, 63, 0
10, 531840, Note_on_c, 3, 63, 107
10, 531900, Note_on_c, 3, 63, 0
10, 531926, Note_on_c, 3, 63, 107
10, 531986, Note_on_c, 3, 63, 0
10, 532330, Note_on_c, 3, 63, 95
10, 532385, Note_on_c, 3, 63, 0
10, 532405, Note_on_c, 3, 63, 95
10, 532465, Note_on_c, 3, 63, 0
10, 532576, Note_on_c, 3, 63, 93
10, 532606, Note_on_c, 3, 63, 0
10, 532625, Note_on_c, 3, 63, 95
10, 532685, Note_on_c, 3, 63, 0
10, 532827, Note_on_c, 3, 63, 101
10, 532852, Note_on_c, 3, 63, 0
10, 532872, Note_on_c, 3, 63, 102
10, 532932, Note_on_c, 3, 63, 0
10, 533047, Note_on_c, 3, 63, 104
10, 533099, Note_on_c, 3, 63, 0
10, 533119, Note_on_c, 3, 63, 97
10, 533179, Note_on_c, 3, 63, 0
10, 533283, Note_on_c, 3, 63, 104
10, 533343, Note_on_c, 3, 63, 0
10, 533364, Note_on_c, 3, 63, 105
10, 533424, Note_on_c, 3, 63, 0
10, 533768, Note_on_c, 3, 63, 95
10, 533811, Note_on_c, 3, 63, 0
10, 533830, Note_on_c, 3, 63, 91
10, 533890, Note_on_c, 3, 63, 0
10, 534264, Note_on_c, 3, 63, 93
10, 534302, Note_on_c, 3, 63, 0
10, 534322, Note_on_c, 3, 63, 91
10, 534382, Note_on_c, 3, 63, 0
10, 534482, Note_on_c, 3, 62, 100
10, 534523, Note_on_c, 3, 62, 0
10, 534542, Note_on_c, 3, 62, 94
10, 534602, Note_on_c, 3, 62, 0
10, 534748, Note_on_c, 3, 63, 98
10, 534773, Note_on_c, 3, 63, 0
10, 534793, Note_on_c, 3, 63, 95
10, 534853, Note_on_c, 3, 63, 0
10, 535202, Note_on_c, 3, 63, 107
10, 535252, Note_on_c, 3, 63, 0
10, 535271, Note_on_c, 3, 63, 102
10, 535331, Note_on_c, 3, 63, 0
10, 535684, Note_on_c, 3, 63, 100
10, 535728, Note_on_c, 3, 63, 0
10, 535747, Note_on_c, 3, 63, 108
10, 535807, Note_on_c, 3, 63, 0
10, 554780, Note_on_c, 3, 62, 100
10, 554923, Note_on_c, 3, 62, 0
10, 555006, Note_on_c, 3, 62, 93
10, 555149, Note_on_c, 3, 62, 0
10, 555267, Note_on_c, 3, 62, 106
10, 555327, Note_on_c, 3, 62, 0
10, 555380, Note_on_c, 3, 62, 107
10, 555452, Note_on_c, 3, 62, 0
10, 555485, Note_on_c, 3, 62, 109
10, 555545, Note_on_c, 3, 62, 0
10, 556948, Note_on_c, 3, 62, 111
10, 557020, Note_on_c, 3, 62, 0
10, 557054, Note_on_c, 3, 62, 109
10, 557126, Note_on_c, 3, 62, 0
10, 557184, Note_on_c, 3, 62, 91
10, 557256, Note_on_c, 3, 62, 0
10, 557296, Note_on_c, 3, 62, 91
10, 557368, Note_on_c, 3, 62, 0
10, 557407, Note_on_c, 3, 62, 100
10, 557454, Note_on_c, 3, 62, 0
10, 635889, Note_on_c, 3, 45, 91
10, 635936, Note_on_c, 3, 45, 0
10, 636131, Note_on_c, 3, 48, 79
10, 636227, Note_on_c, 3, 48, 0
10, 636380, Note_on_c, 3, 45, 97
10, 636493, Note_on_c, 3, 48, 84
10, 636500, Note_on_c, 3, 45, 0
10, 636613, Note_on_c, 3, 48, 0
10, 636975, Note_on_c, 3, 45, 88
10, 637022, Note_on_c, 3, 45, 0
10, 637207, Note_on_c, 3, 48, 83
10, 637303, Note_on_c, 3, 48, 0
10, 637463, Note_on_c, 3, 45, 94
10, 637583, Note_on_c, 3, 45, 0
10, 637583, Note_on_c, 3, 48, 88
10, 637703, Note_on_c, 3, 48, 0
10, 638060, Note_on_c, 3, 45, 90
10, 638107, Note_on_c, 3, 45, 0
10, 638284, Note_on_c, 3, 48, 94
10, 638380, Note_on_c, 3, 48, 0
10, 638540, Note_on_c, 3, 45, 78
10, 638660, Note_on_c, 3, 45, 0
10, 638660, Note_on_c, 3, 48, 89
10, 638780, Note_on_c, 3, 48, 0
10, 639126, Note_on_c, 3, 45, 88
10, 639173, Note_on_c, 3, 45, 0
10, 639381, Note_on_c, 3, 48, 88
10, 639501, Note_on_c, 3, 48, 0
10, 639847, Note_on_c, 3, 47, 111
10, 639894, Note_on_c, 3, 47, 0
10, 640201, Note_on_c, 3, 50, 70
10, 640248, Note_on_c, 3, 50, 0
10, 640457, Note_on_c, 3, 47, 82
10, 640504, Note_on_c, 3, 47, 0
10, 640705, Note_on_c, 3, 50, 68
10, 640752, Note_on_c, 3, 50, 0
10, 641050, Note_on_c, 3, 47, 108
10, 641097, Note_on_c, 3, 47, 0
10, 641534, Note_on_c, 3, 50, 65
10, 641581, Note_on_c, 3, 50, 0
10, 641775, Note_on_c, 3, 47, 77
10, 641822, Note_on_c, 3, 47, 0
10, 642139, Note_on_c, 3, 50, 69
10, 642186, Note_on_c, 3, 50, 0
10, 642374, Note_on_c, 3, 47, 82
10, 642421, Note_on_c, 3, 47, 0
10, 642740, Note_on_c, 3, 50, 84
10, 642787, Note_on_c, 3, 50, 0
10, 642980, Note_on_c, 3, 47, 78
10, 643027, Note_on_c, 3, 47, 0
10, 643442, Note_on_c, 3, 48, 84
10, 643489, Note_on_c, 3, 48, 0
10, 643685, Note_on_c, 3, 45, 69
10, 643732, Note_on_c, 3, 45, 0
10, 644046, Note_on_c, 3, 48, 70
10, 644093, Note_on_c, 3, 48, 0
10, 644291, Note_on_c, 3, 45, 67
10, 644338, Note_on_c, 3, 45, 0
10, 644532, Note_on_c, 3, 48, 83
10, 644579, Note_on_c, 3, 48, 0
10, 644772, Note_on_c, 3, 45, 80
10, 644819, Note_on_c, 3, 45, 0
10, 645009, Note_on_c, 3, 48, 68
10, 645056, Note_on_c, 3, 48, 0
10, 645266, Note_on_c, 3, 45, 97
10, 645313, Note_on_c, 3, 45, 0
10, 645620, Note_on_c, 3, 48, 84
10, 645667, Note_on_c, 3, 48, 0
10, 645865, Note_on_c, 3, 45, 65
10, 645912, Note_on_c, 3, 45, 0
10, 646341, Note_on_c, 3, 48, 71
10, 646388, Note_on_c, 3, 48, 0
10, 646577, Note_on_c, 3, 45, 105
10, 646624, Note_on_c, 3, 45, 0
10, 646934, Note_on_c, 3, 48, 66
10, 646981, Note_on_c, 3, 48, 0
10, 647184, Note_on_c, 3, 45, 95
10, 647231, Note_on_c, 3, 45, 0
10, 647642, Note_on_c, 3, 48, 77
10, 647689, Note_on_c, 3, 48, 0
10, 647908, Note_on_c, 3, 45, 96
10, 647955, Note_on_c, 3, 45, 0
10, 648508, Note_on_c, 3, 48, 81
10, 648555, Note_on_c, 3, 48, 0
10, 648744, Note_on_c, 3, 45, 96
10, 648791, Note_on_c, 3, 45, 0
10, 648974, Note_on_c, 3, 48, 91
10, 649021, Note_on_c, 3, 48, 0
10, 649228, Note_on_c, 3, 45, 85
10, 649275, Note_on_c, 3, 45, 0
10, 649467, Note_on_c, 3, 48, 94
10, 649514, Note_on_c, 3, 48, 0
10, 649682, Note_on_c, 3, 45, 111
10, 649729, Note_on_c, 3, 45, 0
10, 650063, Note_on_c, 3, 48, 76
10, 650110, Note_on_c, 3, 48, 0
10, 650297, Note_on_c, 3, 45, 93
10, 650344, Note_on_c, 3, 45, 0
10, 650544, Note_on_c, 3, 48, 93
10, 650591, Note_on_c, 3, 48, 0
10, 650777, Note_on_c, 3, 45, 90
10, 650824, Note_on_c, 3, 45, 0
10, 651028, Note_on_c, 3, 48, 83
10, 651075, Note_on_c, 3, 48, 0
10, 651254, Note_on_c, 3, 45, 86
10, 651301, Note_on_c, 3, 45, 0
10, 651500, Note_on_c, 3, 48, 90
10, 651620, Note_on_c, 3, 48, 0
10, 651731, Note_on_c, 3, 45, 94
10, 651778, Note_on_c, 3, 45, 0
10, 651978, Note_on_c, 3, 48, 86
10, 652025, Note_on_c, 3, 48, 0
10, 652220, Note_on_c, 3, 45, 96
10, 652267, Note_on_c, 3, 45, 0
10, 652454, Note_on_c, 3, 48, 98
10, 652501, Note_on_c, 3, 48, 0
10, 652705, Note_on_c, 3, 45, 78
10, 652752, Note_on_c, 3, 45, 0
10, 652922, Note_on_c, 3, 48, 79
10, 652969, Note_on_c, 3, 48, 0
10, 653181, Note_on_c, 3, 45, 86
10, 653228, Note_on_c, 3, 45, 0
10, 653411, Note_on_c, 3, 48, 80
10, 653458, Note_on_c, 3, 48, 0
10, 653656, Note_on_c, 3, 48, 89
10, 653703, Note_on_c, 3, 48, 0
10, 653900, Note_on_c, 3, 45, 82
10, 653947, Note_on_c, 3, 45, 0
10, 654124, Note_on_c, 3, 48, 83
10, 654171, Note_on_c, 3, 48, 0
10, 654380, Note_on_c, 3, 45, 96
10, 654427, Note_on_c, 3, 45, 0
10, 654626, Note_on_c, 3, 48, 83
10, 654673, Note_on_c, 3, 48, 0
10, 654673, End_track
11, 0, Start_track
11, 0, Title_t, "Fagotti"
11, 0, MIDI_port, 0
11, 0, Program_c, 4, 70
11, 0, Control_c, 4, 7, 92
11, 0, Control_c, 4, 10, 84
11, 0, Control_c, 4, 91, 64
11, 0, Control_c, 4, 11, 127
11, 10569, Note_on_c, 4, 38, 73
11, 10573, Note_on_c, 4, 53, 80
11, 10577, Note_on_c, 4, 45, 69
11, 10585, Note_on_c, 4, 62, 78
11, 10590, Control_c, 4, 11, 126
11, 10620, Control_c, 4, 11, 125
11, 10650, Control_c, 4, 11, 124
11, 10681, Control_c, 4, 11, 123
11, 10711, Control_c, 4, 11, 122
11, 10741, Control_c, 4, 11, 121
11, 10772, Control_c, 4, 11, 120
11, 10802, Control_c, 4, 11, 119
11, 10832, Control_c, 4, 11, 118
11, 10863, Control_c, 4, 11, 117
11, 10893, Control_c, 4, 11, 116
11, 10923, Control_c, 4, 11, 115
11, 10954, Control_c, 4, 11, 114
11, 10984, Control_c, 4, 11, 113
11, 11014, Control_c, 4, 11, 112
11, 11045, Control_c, 4, 11, 111
11, 11075, Control_c, 4, 11, 110
11, 11105, Control_c, 4, 11, 109
11, 11136, Control_c, 4, 11, 108
11, 11166, Control_c, 4, 11, 107
11, 11196, Control_c, 4, 11, 106
11, 11227, Control_c, 4, 11, 105
11, 11257, Control_c, 4, 11, 104
11, 11287, Control_c, 4, 11, 103
11, 11317, Control_c, 4, 11, 102
11, 11348, Control_c, 4, 11, 101
11, 11378, Control_c, 4, 11, 100
11, 11408, Control_c, 4, 11, 99
11, 11439, Control_c, 4, 11, 98
11, 11469, Control_c, 4, 11, 97
11, 11499, Control_c, 4, 11, 96
11, 11530, Control_c, 4, 11, 95
11, 11560, Control_c, 4, 11, 94
11, 11590, Control_c, 4, 11, 93
11, 11621, Control_c, 4, 11, 92
11, 11651, Control_c, 4, 11, 91
11, 11681, Control_c, 4, 11, 90
11, 11712, Control_c, 4, 11, 89
11, 11742, Control_c, 4, 11, 88
11, 11772, Control_c, 4, 11, 87
11, 11803, Control_c, 4, 11, 86
11, 11833, Control_c, 4, 11, 85
11, 11863, Control_c, 4, 11, 84
11, 11894, Control_c, 4, 11, 83
11, 11924, Control_c, 4, 11, 82
11, 11954, Control_c, 4, 11, 81
11, 11985, Control_c, 4, 11, 80
11, 12015, Control_c, 4, 11, 79
11, 12045, Control_c, 4, 11, 78
11, 12075, Control_c, 4, 11, 77
11, 12105, Control_c, 4, 11, 76
11, 12136, Control_c, 4, 11, 75
11, 12166, Control_c, 4, 11, 74
11, 12196, Control_c, 4, 11, 73
11, 12227, Control_c, 4, 11, 72
11, 12257, Control_c, 4, 11, 71
11, 12287, Control_c, 4, 11, 70
11, 12318, Control_c, 4, 11, 69
11, 12348, Control_c, 4, 11, 68
11, 12378, Control_c, 4, 11, 67
11, 12409, Control_c, 4, 11, 66
11, 12439, Control_c, 4, 11, 65
11, 12469, Control_c, 4, 11, 64
11, 12500, Control_c, 4, 11, 63
11, 12530, Control_c, 4, 11, 62
11, 12560, Control_c, 4, 11, 61
11, 12591, Control_c, 4, 11, 60
11, 12621, Control_c, 4, 11, 59
11, 12651, Control_c, 4, 11, 58
11, 12682, Control_c, 4, 11, 57
11, 12712, Control_c, 4, 11, 56
11, 12742, Control_c, 4, 11, 55
11, 12772, Control_c, 4, 11, 54
11, 12803, Control_c, 4, 11, 53
11, 12833, Control_c, 4, 11, 52
11, 12863, Control_c, 4, 11, 51
11, 12894, Control_c, 4, 11, 50
11, 12924, Control_c, 4, 11, 49
11, 12954, Control_c, 4, 11, 48
11, 12985, Control_c, 4, 11, 47
11, 13015, Control_c, 4, 11, 46
11, 13045, Control_c, 4, 11, 45
11, 13076, Control_c, 4, 11, 44
11, 13106, Control_c, 4, 11, 43
11, 13136, Control_c, 4, 11, 42
11, 13167, Control_c, 4, 11, 41
11, 13197, Control_c, 4, 11, 40
11, 13227, Control_c, 4, 11, 39
11, 13258, Control_c, 4, 11, 38
11, 13288, Control_c, 4, 11, 37
11, 13318, Control_c, 4, 11, 36
11, 13349, Control_c, 4, 11, 35
11, 13379, Control_c, 4, 11, 34
11, 13409, Control_c, 4, 11, 33
11, 14889, Note_on_c, 4, 38, 0
11, 14893, Note_on_c, 4, 53, 0
11, 14897, Note_on_c, 4, 45, 0
11, 14905, Note_on_c, 4, 62, 0
11, 15360, Control_c, 4, 11, 127
11, 15362, Note_on_c, 4, 53, 77
11, 15366, Note_on_c, 4, 45, 69
11, 15367, Note_on_c, 4, 38, 81
11, 15375, Control_c, 4, 11, 126
11, 15386, Note_on_c, 4, 62, 79
11, 15390, Control_c, 4, 11, 125
11, 15405, Control_c, 4, 11, 124
11, 15420, Control_c, 4, 11, 123
11, 15435, Control_c, 4, 11, 122
11, 15450, Control_c, 4, 11, 121
11, 15465, Control_c, 4, 11, 120
11, 15481, Control_c, 4, 11, 119
11, 15496, Control_c, 4, 11, 118
11, 15511, Control_c, 4, 11, 117
11, 15526, Control_c, 4, 11, 116
11, 15541, Control_c, 4, 11, 115
11, 15556, Control_c, 4, 11, 114
11, 15572, Control_c, 4, 11, 113
11, 15587, Control_c, 4, 11, 112
11, 15602, Control_c, 4, 11, 111
11, 15617, Control_c, 4, 11, 110
11, 15632, Control_c, 4, 11, 109
11, 15647, Control_c, 4, 11, 108
11, 15663, Control_c, 4, 11, 107
11, 15678, Control_c, 4, 11, 106
11, 15693, Control_c, 4, 11, 105
11, 15708, Control_c, 4, 11, 104
11, 15723, Control_c, 4, 11, 103
11, 15738, Control_c, 4, 11, 102
11, 15754, Control_c, 4, 11, 101
11, 15769, Control_c, 4, 11, 100
11, 15784, Control_c, 4, 11, 99
11, 15799, Control_c, 4, 11, 98
11, 15814, Control_c, 4, 11, 97
11, 15829, Control_c, 4, 11, 96
11, 15845, Control_c, 4, 11, 95
11, 15860, Control_c, 4, 11, 94
11, 15875, Control_c, 4, 11, 93
11, 15890, Control_c, 4, 11, 92
11, 15905, Control_c, 4, 11, 91
11, 15920, Control_c, 4, 11, 90
11, 15936, Control_c, 4, 11, 89
11, 15951, Control_c, 4, 11, 88
11, 15966, Control_c, 4, 11, 87
11, 15981, Control_c, 4, 11, 86
11, 15996, Control_c, 4, 11, 85
11, 16011, Control_c, 4, 11, 84
11, 16027, Control_c, 4, 11, 83
11, 16042, Control_c, 4, 11, 82
11, 16057, Control_c, 4, 11, 81
11, 16072, Control_c, 4, 11, 80
11, 16087, Control_c, 4, 11, 79
11, 16102, Control_c, 4, 11, 78
11, 16117, Control_c, 4, 11, 77
11, 16132, Control_c, 4, 11, 76
11, 16148, Control_c, 4, 11, 75
11, 16163, Control_c, 4, 11, 74
11, 16178, Control_c, 4, 11, 73
11, 16193, Control_c, 4, 11, 72
11, 16208, Control_c, 4, 11, 71
11, 16223, Control_c, 4, 11, 70
11, 16239, Control_c, 4, 11, 69
11, 16254, Control_c, 4, 11, 68
11, 16269, Control_c, 4, 11, 67
11, 16284, Control_c, 4, 11, 66
11, 16299, Control_c, 4, 11, 65
11, 16314, Control_c, 4, 11, 64
11, 16330, Control_c, 4, 11, 63
11, 16345, Control_c, 4, 11, 62
11, 16360, Control_c, 4, 11, 61
11, 16375, Control_c, 4, 11, 60
11, 16390, Control_c, 4, 11, 59
11, 16405, Control_c, 4, 11, 58
11, 16421, Control_c, 4, 11, 57
11, 16436, Control_c, 4, 11, 56
11, 16451, Control_c, 4, 11, 55
11, 16466, Control_c, 4, 11, 54
11, 16481, Control_c, 4, 11, 53
11, 16496, Control_c, 4, 11, 52
11, 16512, Control_c, 4, 11, 51
11, 16527, Control_c, 4, 11, 50
11, 16542, Control_c, 4, 11, 49
11, 16557, Control_c, 4, 11, 48
11, 16572, Control_c, 4, 11, 47
11, 16587, Control_c, 4, 11, 46
11, 16603, Control_c, 4, 11, 45
11, 16618, Control_c, 4, 11, 44
11, 16633, Control_c, 4, 11, 43
11, 16648, Control_c, 4, 11, 42
11, 16663, Control_c, 4, 11, 41
11, 16678, Control_c, 4, 11, 40
11, 16694, Control_c, 4, 11, 39
11, 16709, Control_c, 4, 11, 38
11, 16724, Control_c, 4, 11, 37
11, 16739, Control_c, 4, 11, 36
11, 16754, Control_c, 4, 11, 35
11, 16769, Control_c, 4, 11, 34
11, 16785, Control_c, 4, 11, 33
11, 17042, Note_on_c, 4, 53, 0
11, 17046, Note_on_c, 4, 45, 0
11, 17047, Note_on_c, 4, 38, 0
11, 17066, Note_on_c, 4, 62, 0
11, 19680, Note_on_c, 4, 62, 69
11, 19690, Note_on_c, 4, 53, 70
11, 19696, Control_c, 4, 11, 126
11, 19696, Note_on_c, 4, 45, 69
11, 19699, Note_on_c, 4, 38, 81
11, 19719, Control_c, 4, 11, 125
11, 19741, Control_c, 4, 11, 124
11, 19764, Control_c, 4, 11, 123
11, 19787, Control_c, 4, 11, 122
11, 19810, Control_c, 4, 11, 121
11, 19833, Control_c, 4, 11, 120
11, 19856, Control_c, 4, 11, 119
11, 19879, Control_c, 4, 11, 118
11, 19902, Control_c, 4, 11, 117
11, 19924, Control_c, 4, 11, 116
11, 19947, Control_c, 4, 11, 115
11, 19970, Control_c, 4, 11, 114
11, 19993, Control_c, 4, 11, 113
11, 20016, Control_c, 4, 11, 112
11, 20039, Control_c, 4, 11, 111
11, 20062, Control_c, 4, 11, 110
11, 20085, Control_c, 4, 11, 109
11, 20107, Control_c, 4, 11, 108
11, 20130, Control_c, 4, 11, 107
11, 20153, Control_c, 4, 11, 106
11, 20176, Control_c, 4, 11, 105
11, 20199, Control_c, 4, 11, 104
11, 20221, Control_c, 4, 11, 103
11, 20244, Control_c, 4, 11, 102
11, 20267, Control_c, 4, 11, 101
11, 20290, Control_c, 4, 11, 100
11, 20313, Control_c, 4, 11, 99
11, 20336, Control_c, 4, 11, 98
11, 20359, Control_c, 4, 11, 97
11, 20382, Control_c, 4, 11, 96
11, 20404, Control_c, 4, 11, 95
11, 20427, Control_c, 4, 11, 94
11, 20450, Control_c, 4, 11, 93
11, 20473, Control_c, 4, 11, 92
11, 20496, Control_c, 4, 11, 91
11, 20519, Control_c, 4, 11, 90
11, 20542, Control_c, 4, 11, 89
11, 20565, Control_c, 4, 11, 88
11, 20587, Control_c, 4, 11, 87
11, 20610, Control_c, 4, 11, 86
11, 20633, Control_c, 4, 11, 85
11, 20656, Control_c, 4, 11, 84
11, 20679, Control_c, 4, 11, 83
11, 20701, Control_c, 4, 11, 82
11, 20724, Control_c, 4, 11, 81
11, 20747, Control_c, 4, 11, 80
11, 20770, Control_c, 4, 11, 79
11, 20793, Control_c, 4, 11, 78
11, 20816, Control_c, 4, 11, 77
11, 20839, Control_c, 4, 11, 76
11, 20862, Control_c, 4, 11, 75
11, 20884, Control_c, 4, 11, 74
11, 20907, Control_c, 4, 11, 73
11, 20930, Control_c, 4, 11, 72
11, 20953, Control_c, 4, 11, 71
11, 20976, Control_c, 4, 11, 70
11, 20999, Control_c, 4, 11, 69
11, 21022, Control_c, 4, 11, 68
11, 21045, Control_c, 4, 11, 67
11, 21067, Control_c, 4, 11, 66
11, 21090, Control_c, 4, 11, 65
11, 21113, Control_c, 4, 11, 64
11, 21360, Note_on_c, 4, 62, 0
11, 21370, Note_on_c, 4, 53, 0
11, 21376, Note_on_c, 4, 45, 0
11, 21379, Note_on_c, 4, 38, 0
11, 22560, Control_c, 4, 11, 127
11, 136345, Note_on_c, 4, 66, 48
11, 136808, Note_on_c, 4, 61, 40
11, 136825, Note_on_c, 4, 66, 0
11, 137048, Note_on_c, 4, 61, 0
11, 137050, Note_on_c, 4, 66, 56
11, 137290, Note_on_c, 4, 66, 0
11, 137290, Note_on_c, 4, 64, 39
11, 137530, Note_on_c, 4, 64, 0
11, 137537, Note_on_c, 4, 63, 42
11, 137777, Note_on_c, 4, 63, 0
11, 137778, Note_on_c, 4, 61, 47
11, 138248, Note_on_c, 4, 64, 51
11, 138258, Note_on_c, 4, 61, 0
11, 138488, Note_on_c, 4, 64, 0
11, 138492, Note_on_c, 4, 66, 55
11, 138732, Note_on_c, 4, 66, 0
11, 138745, Note_on_c, 4, 61, 44
11, 139212, Note_on_c, 4, 66, 45
11, 139225, Note_on_c, 4, 61, 0
11, 139692, Note_on_c, 4, 66, 0
11, 139708, Note_on_c, 4, 61, 44
11, 139945, Note_on_c, 4, 66, 45
11, 139948, Note_on_c, 4, 61, 0
11, 140170, Note_on_c, 4, 64, 56
11, 140185, Note_on_c, 4, 66, 0
11, 140403, Note_on_c, 4, 63, 46
11, 140410, Note_on_c, 4, 64, 0
11, 140643, Note_on_c, 4, 63, 0
11, 140666, Note_on_c, 4, 61, 57
11, 141146, Note_on_c, 4, 61, 0
11, 169440, Control_c, 4, 11, 64
11, 172331, Control_c, 4, 11, 65
11, 172345, Note_on_c, 4, 54, 83
11, 172347, Control_c, 4, 11, 66
11, 172362, Control_c, 4, 11, 67
11, 172378, Control_c, 4, 11, 68
11, 172394, Control_c, 4, 11, 69
11, 172409, Control_c, 4, 11, 70
11, 172425, Control_c, 4, 11, 71
11, 172440, Control_c, 4, 11, 72
11, 172456, Control_c, 4, 11, 73
11, 172471, Control_c, 4, 11, 74
11, 172487, Control_c, 4, 11, 75
11, 172503, Control_c, 4, 11, 76
11, 172518, Control_c, 4, 11, 77
11, 172534, Control_c, 4, 11, 78
11, 172550, Control_c, 4, 11, 79
11, 172565, Control_c, 4, 11, 80
11, 172581, Control_c, 4, 11, 81
11, 172597, Control_c, 4, 11, 82
11, 172612, Control_c, 4, 11, 83
11, 172628, Control_c, 4, 11, 84
11, 172643, Control_c, 4, 11, 85
11, 172659, Control_c, 4, 11, 86
11, 172675, Control_c, 4, 11, 87
11, 172690, Control_c, 4, 11, 88
11, 172706, Control_c, 4, 11, 89
11, 172722, Control_c, 4, 11, 90
11, 172737, Control_c, 4, 11, 91
11, 172753, Control_c, 4, 11, 92
11, 172769, Control_c, 4, 11, 93
11, 172784, Control_c, 4, 11, 94
11, 172800, Control_c, 4, 11, 95
11, 172815, Control_c, 4, 11, 96
11, 172831, Control_c, 4, 11, 97
11, 172846, Control_c, 4, 11, 98
11, 172862, Control_c, 4, 11, 99
11, 172878, Control_c, 4, 11, 100
11, 172893, Control_c, 4, 11, 101
11, 172909, Control_c, 4, 11, 102
11, 172925, Control_c, 4, 11, 103
11, 172940, Control_c, 4, 11, 104
11, 172956, Control_c, 4, 11, 105
11, 172972, Control_c, 4, 11, 106
11, 172987, Control_c, 4, 11, 107
11, 173003, Control_c, 4, 11, 108
11, 173018, Control_c, 4, 11, 109
11, 173034, Control_c, 4, 11, 110
11, 173050, Control_c, 4, 11, 111
11, 173065, Control_c, 4, 11, 112
11, 173081, Control_c, 4, 11, 113
11, 173097, Control_c, 4, 11, 114
11, 173112, Control_c, 4, 11, 115
11, 173128, Control_c, 4, 11, 116
11, 173144, Control_c, 4, 11, 117
11, 173159, Control_c, 4, 11, 118
11, 173175, Control_c, 4, 11, 119
11, 173190, Control_c, 4, 11, 120
11, 173206, Control_c, 4, 11, 121
11, 173221, Control_c, 4, 11, 122
11, 173237, Control_c, 4, 11, 123
11, 173253, Control_c, 4, 11, 124
11, 173268, Control_c, 4, 11, 125
11, 173284, Control_c, 4, 11, 126
11, 173775, Note_on_c, 4, 51, 78
11, 173785, Note_on_c, 4, 54, 0
11, 174255, Note_on_c, 4, 51, 0
11, 174262, Note_on_c, 4, 54, 72
11, 174741, Note_on_c, 4, 55, 67
11, 174742, Note_on_c, 4, 54, 0
11, 175125, Note_on_c, 4, 55, 0
11, 216021, Note_on_c, 4, 45, 121
11, 216128, Note_on_c, 4, 45, 0
11, 217229, Note_on_c, 4, 45, 123
11, 217336, Note_on_c, 4, 45, 0
11, 220574, Note_on_c, 4, 45, 121
11, 220681, Note_on_c, 4, 45, 0
11, 221782, Note_on_c, 4, 45, 113
11, 221889, Note_on_c, 4, 45, 0
11, 222250, Note_on_c, 4, 45, 116
11, 222357, Note_on_c, 4, 45, 0
11, 223461, Note_on_c, 4, 45, 120
11, 223568, Note_on_c, 4, 45, 0
11, 225360, Note_on_c, 4, 62, 90
11, 225363, Note_on_c, 4, 51, 96
11, 225365, Note_on_c, 4, 56, 85
11, 225480, Note_on_c, 4, 62, 0
11, 225483, Note_on_c, 4, 51, 0
11, 225485, Note_on_c, 4, 56, 0
11, 225603, Note_on_c, 4, 53, 81
11, 225617, Note_on_c, 4, 48, 92
11, 225625, Note_on_c, 4, 42, 90
11, 225723, Note_on_c, 4, 53, 0
11, 225737, Note_on_c, 4, 48, 0
11, 225745, Note_on_c, 4, 42, 0
11, 225844, Note_on_c, 4, 62, 80
11, 225845, Note_on_c, 4, 51, 93
11, 225855, Note_on_c, 4, 56, 89
11, 225964, Note_on_c, 4, 62, 0
11, 225965, Note_on_c, 4, 51, 0
11, 225975, Note_on_c, 4, 56, 0
11, 226096, Note_on_c, 4, 42, 85
11, 226103, Note_on_c, 4, 53, 91
11, 226104, Note_on_c, 4, 48, 85
11, 226216, Note_on_c, 4, 42, 0
11, 226223, Note_on_c, 4, 53, 0
11, 226224, Note_on_c, 4, 48, 0
11, 226324, Note_on_c, 4, 56, 98
11, 226325, Note_on_c, 4, 62, 96
11, 226329, Note_on_c, 4, 51, 88
11, 226444, Note_on_c, 4, 56, 0
11, 226445, Note_on_c, 4, 62, 0
11, 226449, Note_on_c, 4, 51, 0
11, 226563, Note_on_c, 4, 42, 82
11, 226578, Note_on_c, 4, 53, 86
11, 226586, Note_on_c, 4, 48, 81
11, 226683, Note_on_c, 4, 42, 0
11, 226698, Note_on_c, 4, 53, 0
11, 226706, Note_on_c, 4, 48, 0
11, 226806, Note_on_c, 4, 62, 86
11, 226814, Note_on_c, 4, 51, 87
11, 226815, Note_on_c, 4, 56, 85
11, 226926, Note_on_c, 4, 62, 0
11, 226934, Note_on_c, 4, 51, 0
11, 226935, Note_on_c, 4, 56, 0
11, 227044, Note_on_c, 4, 42, 81
11, 227050, Note_on_c, 4, 53, 98
11, 227059, Note_on_c, 4, 48, 97
11, 227164, Note_on_c, 4, 42, 0
11, 227170, Note_on_c, 4, 53, 0
11, 227179, Note_on_c, 4, 48, 0
11, 227286, Note_on_c, 4, 62, 81
11, 227305, Note_on_c, 4, 56, 96
11, 227308, Note_on_c, 4, 51, 82
11, 227406, Note_on_c, 4, 62, 0
11, 227425, Note_on_c, 4, 56, 0
11, 227428, Note_on_c, 4, 51, 0
11, 227528, Note_on_c, 4, 48, 84
11, 227542, Note_on_c, 4, 53, 94
11, 227548, Note_on_c, 4, 42, 82
11, 227648, Note_on_c, 4, 48, 0
11, 227662, Note_on_c, 4, 53, 0
11, 227668, Note_on_c, 4, 42, 0
11, 227773, Note_on_c, 4, 56, 86
11, 227774, Note_on_c, 4, 51, 87
11, 227788, Note_on_c, 4, 62, 90
11, 227893, Note_on_c, 4, 56, 0
11, 227894, Note_on_c, 4, 51, 0
11, 227908, Note_on_c, 4, 62, 0
11, 228000, Note_on_c, 4, 53, 87
11, 228005, Note_on_c, 4, 48, 82
11, 228012, Note_on_c, 4, 42, 78
11, 228120, Note_on_c, 4, 53, 0
11, 228125, Note_on_c, 4, 48, 0
11, 228132, Note_on_c, 4, 42, 0
11, 228242, Note_on_c, 4, 51, 82
11, 228242, Note_on_c, 4, 56, 87
11, 228248, Note_on_c, 4, 62, 91
11, 228362, Note_on_c, 4, 51, 0
11, 228362, Note_on_c, 4, 56, 0
11, 228368, Note_on_c, 4, 62, 0
11, 228494, Note_on_c, 4, 48, 88
11, 228498, Note_on_c, 4, 42, 87
11, 228502, Note_on_c, 4, 53, 90
11, 228614, Note_on_c, 4, 48, 0
11, 228618, Note_on_c, 4, 42, 0
11, 228622, Note_on_c, 4, 53, 0
11, 230164, Note_on_c, 4, 51, 78
11, 230179, Note_on_c, 4, 62, 78
11, 230180, Note_on_c, 4, 56, 96
11, 230284, Note_on_c, 4, 51, 0
11, 230299, Note_on_c, 4, 62, 0
11, 230300, Note_on_c, 4, 56, 0
11, 230403, Note_on_c, 4, 48, 89
11, 230409, Note_on_c, 4, 53, 93
11, 230421, Note_on_c, 4, 42, 90
11, 230523, Note_on_c, 4, 48, 0
11, 230529, Note_on_c, 4, 53, 0
11, 230541, Note_on_c, 4, 42, 0
11, 230649, Note_on_c, 4, 62, 80
11, 230659, Note_on_c, 4, 56, 95
11, 230663, Note_on_c, 4, 51, 85
11, 230769, Note_on_c, 4, 62, 0
11, 230779, Note_on_c, 4, 56, 0
11, 230783, Note_on_c, 4, 51, 0
11, 230882, Note_on_c, 4, 42, 80
11, 230889, Note_on_c, 4, 48, 93
11, 230898, Note_on_c, 4, 53, 80
11, 231002, Note_on_c, 4, 42, 0
11, 231009, Note_on_c, 4, 48, 0
11, 231018, Note_on_c, 4, 53, 0
11, 231132, Note_on_c, 4, 56, 82
11, 231144, Note_on_c, 4, 51, 88
11, 231149, Note_on_c, 4, 62, 91
11, 231252, Note_on_c, 4, 56, 0
11, 231264, Note_on_c, 4, 51, 0
11, 231269, Note_on_c, 4, 62, 0
11, 231368, Note_on_c, 4, 53, 85
11, 231381, Note_on_c, 4, 48, 80
11, 231387, Note_on_c, 4, 42, 81
11, 231488, Note_on_c, 4, 53, 0
11, 231501, Note_on_c, 4, 48, 0
11, 231507, Note_on_c, 4, 42, 0
11, 231611, Note_on_c, 4, 56, 81
11, 231625, Note_on_c, 4, 51, 89
11, 231626, Note_on_c, 4, 62, 98
11, 231731, Note_on_c, 4, 56, 0
11, 231745, Note_on_c, 4, 51, 0
11, 231746, Note_on_c, 4, 62, 0
11, 231846, Note_on_c, 4, 42, 98
11, 231854, Note_on_c, 4, 48, 84
11, 231862, Note_on_c, 4, 53, 93
11, 231966, Note_on_c, 4, 42, 0
11, 231974, Note_on_c, 4, 48, 0
11, 231982, Note_on_c, 4, 53, 0
11, 232083, Note_on_c, 4, 51, 86
11, 232090, Note_on_c, 4, 56, 82
11, 232094, Note_on_c, 4, 62, 93
11, 232203, Note_on_c, 4, 51, 0
11, 232210, Note_on_c, 4, 56, 0
11, 232214, Note_on_c, 4, 62, 0
11, 232321, Note_on_c, 4, 53, 85
11, 232331, Note_on_c, 4, 42, 79
11, 232349, Note_on_c, 4, 48, 94
11, 232441, Note_on_c, 4, 53, 0
11, 232451, Note_on_c, 4, 42, 0
11, 232469, Note_on_c, 4, 48, 0
11, 232574, Note_on_c, 4, 62, 89
11, 232575, Note_on_c, 4, 51, 87
11, 232586, Note_on_c, 4, 56, 82
11, 232694, Note_on_c, 4, 62, 0
11, 232695, Note_on_c, 4, 51, 0
11, 232706, Note_on_c, 4, 56, 0
11, 232810, Note_on_c, 4, 42, 87
11, 232823, Note_on_c, 4, 53, 97
11, 232826, Note_on_c, 4, 48, 95
11, 232930, Note_on_c, 4, 42, 0
11, 232943, Note_on_c, 4, 53, 0
11, 232946, Note_on_c, 4, 48, 0
11, 233043, Note_on_c, 4, 51, 83
11, 233056, Note_on_c, 4, 62, 96
11, 233056, Note_on_c, 4, 56, 81
11, 233163, Note_on_c, 4, 51, 0
11, 233176, Note_on_c, 4, 62, 0
11, 233176, Note_on_c, 4, 56, 0
11, 235200, Note_on_c, 4, 56, 79
11, 235210, Note_on_c, 4, 51, 93
11, 235218, Note_on_c, 4, 62, 85
11, 235320, Note_on_c, 4, 56, 0
11, 235330, Note_on_c, 4, 51, 0
11, 235338, Note_on_c, 4, 62, 0
11, 235440, Note_on_c, 4, 53, 83
11, 235454, Note_on_c, 4, 42, 78
11, 235460, Note_on_c, 4, 48, 81
11, 235560, Note_on_c, 4, 53, 0
11, 235574, Note_on_c, 4, 42, 0
11, 235580, Note_on_c, 4, 48, 0
11, 235681, Note_on_c, 4, 62, 79
11, 235681, Note_on_c, 4, 51, 82
11, 235705, Note_on_c, 4, 56, 85
11, 235801, Note_on_c, 4, 62, 0
11, 235801, Note_on_c, 4, 51, 0
11, 235825, Note_on_c, 4, 56, 0
11, 235922, Note_on_c, 4, 48, 92
11, 235942, Note_on_c, 4, 53, 96
11, 235944, Note_on_c, 4, 42, 90
11, 236042, Note_on_c, 4, 48, 0
11, 236062, Note_on_c, 4, 53, 0
11, 236064, Note_on_c, 4, 42, 0
11, 236160, Note_on_c, 4, 51, 97
11, 236172, Note_on_c, 4, 56, 97
11, 236179, Note_on_c, 4, 62, 97
11, 236280, Note_on_c, 4, 51, 0
11, 236292, Note_on_c, 4, 56, 0
11, 236299, Note_on_c, 4, 62, 0
11, 236403, Note_on_c, 4, 48, 93
11, 236404, Note_on_c, 4, 42, 83
11, 236414, Note_on_c, 4, 53, 91
11, 236523, Note_on_c, 4, 48, 0
11, 236524, Note_on_c, 4, 42, 0
11, 236534, Note_on_c, 4, 53, 0
11, 236641, Note_on_c, 4, 62, 92
11, 236664, Note_on_c, 4, 56, 92
11, 236665, Note_on_c, 4, 51, 79
11, 236761, Note_on_c, 4, 62, 0
11, 236784, Note_on_c, 4, 56, 0
11, 236785, Note_on_c, 4, 51, 0
11, 236884, Note_on_c, 4, 53, 97
11, 236889, Note_on_c, 4, 48, 95
11, 236898, Note_on_c, 4, 42, 83
11, 237004, Note_on_c, 4, 53, 0
11, 237009, Note_on_c, 4, 48, 0
11, 237018, Note_on_c, 4, 42, 0
11, 237145, Note_on_c, 4, 56, 81
11, 237146, Note_on_c, 4, 51, 94
11, 237147, Note_on_c, 4, 62, 79
11, 237265, Note_on_c, 4, 56, 0
11, 237266, Note_on_c, 4, 51, 0
11, 237267, Note_on_c, 4, 62, 0
11, 237367, Note_on_c, 4, 48, 80
11, 237378, Note_on_c, 4, 42, 97
11, 237383, Note_on_c, 4, 53, 81
11, 237487, Note_on_c, 4, 48, 0
11, 237498, Note_on_c, 4, 42, 0
11, 237503, Note_on_c, 4, 53, 0
11, 237601, Note_on_c, 4, 62, 88
11, 237609, Note_on_c, 4, 51, 83
11, 237617, Note_on_c, 4, 56, 98
11, 237721, Note_on_c, 4, 62, 0
11, 237729, Note_on_c, 4, 51, 0
11, 237737, Note_on_c, 4, 56, 0
11, 237850, Note_on_c, 4, 42, 81
11, 237853, Note_on_c, 4, 48, 92
11, 237863, Note_on_c, 4, 53, 89
11, 237970, Note_on_c, 4, 42, 0
11, 237973, Note_on_c, 4, 48, 0
11, 237983, Note_on_c, 4, 53, 0
11, 238086, Note_on_c, 4, 62, 83
11, 238096, Note_on_c, 4, 51, 93
11, 238106, Note_on_c, 4, 56, 96
11, 238206, Note_on_c, 4, 62, 0
11, 238216, Note_on_c, 4, 51, 0
11, 238226, Note_on_c, 4, 56, 0
11, 239764, Note_on_c, 4, 45, 110
11, 239871, Note_on_c, 4, 45, 0
11, 243145, Note_on_c, 4, 45, 120
11, 243252, Note_on_c, 4, 45, 0
11, 244336, Note_on_c, 4, 45, 106
11, 244443, Note_on_c, 4, 45, 0
11, 245532, Note_on_c, 4, 45, 116
11, 245639, Note_on_c, 4, 45, 0
11, 246007, Note_on_c, 4, 45, 119
11, 246114, Note_on_c, 4, 45, 0
11, 247229, Note_on_c, 4, 45, 107
11, 247336, Note_on_c, 4, 45, 0
11, 256822, Note_on_c, 4, 41, 68
11, 256929, Note_on_c, 4, 41, 0
11, 257007, Note_on_c, 4, 40, 78
11, 257042, Note_on_c, 4, 41, 82
11, 257067, Note_on_c, 4, 40, 0
11, 257149, Note_on_c, 4, 41, 0
11, 257285, Note_on_c, 4, 41, 74
11, 257392, Note_on_c, 4, 41, 0
11, 257488, Note_on_c, 4, 40, 67
11, 257521, Note_on_c, 4, 41, 65
11, 257548, Note_on_c, 4, 40, 0
11, 257628, Note_on_c, 4, 41, 0
11, 257777, Note_on_c, 4, 41, 75
11, 257884, Note_on_c, 4, 41, 0
11, 257944, Note_on_c, 4, 40, 74
11, 258004, Note_on_c, 4, 40, 0
11, 258018, Note_on_c, 4, 41, 75
11, 258125, Note_on_c, 4, 41, 0
11, 258265, Note_on_c, 4, 41, 75
11, 258372, Note_on_c, 4, 41, 0
11, 258480, Note_on_c, 4, 41, 81
11, 258587, Note_on_c, 4, 41, 0
11, 258666, Note_on_c, 4, 40, 66
11, 258726, Note_on_c, 4, 40, 0
11, 258736, Note_on_c, 4, 41, 78
11, 258843, Note_on_c, 4, 41, 0
11, 258979, Note_on_c, 4, 41, 76
11, 259086, Note_on_c, 4, 41, 0
11, 264506, Note_on_c, 4, 53, 83
11, 264626, Note_on_c, 4, 53, 0
11, 264671, Note_on_c, 4, 40, 96
11, 264731, Note_on_c, 4, 40, 0
11, 264734, Note_on_c, 4, 41, 57
11, 264854, Note_on_c, 4, 41, 0
11, 264973, Note_on_c, 4, 41, 55
11, 265093, Note_on_c, 4, 41, 0
11, 265155, Note_on_c, 4, 40, 46
11, 265207, Note_on_c, 4, 41, 42
11, 265215, Note_on_c, 4, 40, 0
11, 265327, Note_on_c, 4, 41, 0
11, 265452, Note_on_c, 4, 53, 82
11, 265572, Note_on_c, 4, 53, 0
11, 265624, Note_on_c, 4, 40, 82
11, 265684, Note_on_c, 4, 40, 0
11, 265694, Note_on_c, 4, 41, 48
11, 265814, Note_on_c, 4, 41, 0
11, 265927, Note_on_c, 4, 41, 48
11, 266047, Note_on_c, 4, 41, 0
11, 266122, Note_on_c, 4, 40, 49
11, 266172, Note_on_c, 4, 41, 59
11, 266182, Note_on_c, 4, 40, 0
11, 266292, Note_on_c, 4, 41, 0
11, 266420, Note_on_c, 4, 53, 91
11, 266540, Note_on_c, 4, 53, 0
11, 266592, Note_on_c, 4, 40, 95
11, 266652, Note_on_c, 4, 40, 0
11, 266652, Note_on_c, 4, 41, 53
11, 266772, Note_on_c, 4, 41, 0
11, 266895, Note_on_c, 4, 41, 44
11, 267015, Note_on_c, 4, 41, 0
11, 267073, Note_on_c, 4, 40, 46
11, 267127, Note_on_c, 4, 41, 39
11, 267133, Note_on_c, 4, 40, 0
11, 267247, Note_on_c, 4, 41, 0
11, 267368, Note_on_c, 4, 53, 98
11, 267488, Note_on_c, 4, 53, 0
11, 267555, Note_on_c, 4, 40, 90
11, 267609, Note_on_c, 4, 41, 45
11, 267615, Note_on_c, 4, 40, 0
11, 267729, Note_on_c, 4, 41, 0
11, 267865, Note_on_c, 4, 41, 56
11, 267985, Note_on_c, 4, 41, 0
11, 268026, Note_on_c, 4, 40, 40
11, 268086, Note_on_c, 4, 40, 0
11, 268088, Note_on_c, 4, 41, 39
11, 268208, Note_on_c, 4, 41, 0
11, 268321, Note_on_c, 4, 53, 79
11, 268441, Note_on_c, 4, 53, 0
11, 268521, Note_on_c, 4, 40, 83
11, 268577, Note_on_c, 4, 41, 46
11, 268581, Note_on_c, 4, 40, 0
11, 268697, Note_on_c, 4, 41, 0
11, 268826, Note_on_c, 4, 41, 56
11, 268946, Note_on_c, 4, 41, 0
11, 268983, Note_on_c, 4, 40, 49
11, 269040, Note_on_c, 4, 41, 58
11, 269043, Note_on_c, 4, 40, 0
11, 269160, Note_on_c, 4, 41, 0
11, 269280, Note_on_c, 4, 53, 83
11, 269400, Note_on_c, 4, 53, 0
11, 269481, Note_on_c, 4, 40, 82
11, 269534, Note_on_c, 4, 41, 51
11, 269541, Note_on_c, 4, 40, 0
11, 269654, Note_on_c, 4, 41, 0
11, 269783, Note_on_c, 4, 41, 57
11, 269903, Note_on_c, 4, 41, 0
11, 269966, Note_on_c, 4, 40, 50
11, 270003, Note_on_c, 4, 41, 49
11, 270026, Note_on_c, 4, 40, 0
11, 270123, Note_on_c, 4, 41, 0
11, 270242, Note_on_c, 4, 53, 87
11, 270362, Note_on_c, 4, 53, 0
11, 270422, Note_on_c, 4, 40, 92
11, 270482, Note_on_c, 4, 40, 0
11, 270498, Note_on_c, 4, 41, 48
11, 270618, Note_on_c, 4, 41, 0
11, 270728, Note_on_c, 4, 41, 49
11, 270848, Note_on_c, 4, 41, 0
11, 270904, Note_on_c, 4, 40, 43
11, 270964, Note_on_c, 4, 40, 0
11, 270975, Note_on_c, 4, 41, 51
11, 271095, Note_on_c, 4, 41, 0
11, 271225, Note_on_c, 4, 53, 92
11, 271345, Note_on_c, 4, 53, 0
11, 271380, Note_on_c, 4, 40, 90
11, 271440, Note_on_c, 4, 40, 0
11, 271461, Note_on_c, 4, 41, 44
11, 271581, Note_on_c, 4, 41, 0
11, 271694, Note_on_c, 4, 41, 55
11, 271814, Note_on_c, 4, 41, 0
11, 271866, Note_on_c, 4, 40, 59
11, 271926, Note_on_c, 4, 40, 0
11, 271941, Note_on_c, 4, 41, 55
11, 272061, Note_on_c, 4, 41, 0
11, 272167, Note_on_c, 4, 53, 96
11, 272287, Note_on_c, 4, 53, 0
11, 272358, Note_on_c, 4, 40, 92
11, 272412, Note_on_c, 4, 41, 46
11, 272418, Note_on_c, 4, 40, 0
11, 272532, Note_on_c, 4, 41, 0
11, 272658, Note_on_c, 4, 41, 49
11, 272778, Note_on_c, 4, 41, 0
11, 272826, Note_on_c, 4, 40, 54
11, 272886, Note_on_c, 4, 40, 0
11, 272890, Note_on_c, 4, 41, 48
11, 273010, Note_on_c, 4, 41, 0
11, 273136, Note_on_c, 4, 53, 78
11, 273256, Note_on_c, 4, 53, 0
11, 273325, Note_on_c, 4, 40, 96
11, 273385, Note_on_c, 4, 40, 0
11, 273386, Note_on_c, 4, 41, 49
11, 273506, Note_on_c, 4, 41, 0
11, 273600, Note_on_c, 4, 41, 55
11, 273720, Note_on_c, 4, 41, 0
11, 273781, Note_on_c, 4, 40, 58
11, 273841, Note_on_c, 4, 40, 0
11, 273848, Note_on_c, 4, 41, 51
11, 273968, Note_on_c, 4, 41, 0
11, 274105, Note_on_c, 4, 53, 85
11, 274225, Note_on_c, 4, 53, 0
11, 274263, Note_on_c, 4, 40, 95
11, 274323, Note_on_c, 4, 40, 0
11, 274338, Note_on_c, 4, 41, 53
11, 274458, Note_on_c, 4, 41, 0
11, 274588, Note_on_c, 4, 41, 42
11, 274708, Note_on_c, 4, 41, 0
11, 274750, Note_on_c, 4, 40, 42
11, 274810, Note_on_c, 4, 40, 0
11, 274814, Note_on_c, 4, 41, 59
11, 274934, Note_on_c, 4, 41, 0
11, 275065, Note_on_c, 4, 53, 82
11, 275185, Note_on_c, 4, 53, 0
11, 275244, Note_on_c, 4, 40, 78
11, 275302, Note_on_c, 4, 41, 47
11, 275304, Note_on_c, 4, 40, 0
11, 275422, Note_on_c, 4, 41, 0
11, 275546, Note_on_c, 4, 41, 50
11, 275666, Note_on_c, 4, 41, 0
11, 275726, Note_on_c, 4, 40, 47
11, 275777, Note_on_c, 4, 41, 42
11, 275786, Note_on_c, 4, 40, 0
11, 275897, Note_on_c, 4, 41, 0
11, 276004, Note_on_c, 4, 53, 94
11, 276124, Note_on_c, 4, 53, 0
11, 276193, Note_on_c, 4, 40, 81
11, 276253, Note_on_c, 4, 40, 0
11, 276264, Note_on_c, 4, 41, 43
11, 276384, Note_on_c, 4, 41, 0
11, 276507, Note_on_c, 4, 41, 44
11, 276627, Note_on_c, 4, 41, 0
11, 276685, Note_on_c, 4, 40, 57
11, 276745, Note_on_c, 4, 40, 0
11, 276745, Note_on_c, 4, 41, 57
11, 276865, Note_on_c, 4, 41, 0
11, 276965, Note_on_c, 4, 53, 89
11, 277085, Note_on_c, 4, 53, 0
11, 277143, Note_on_c, 4, 40, 89
11, 277203, Note_on_c, 4, 40, 0
11, 277209, Note_on_c, 4, 41, 46
11, 277329, Note_on_c, 4, 41, 0
11, 277460, Note_on_c, 4, 41, 56
11, 277580, Note_on_c, 4, 41, 0
11, 277623, Note_on_c, 4, 40, 56
11, 277683, Note_on_c, 4, 40, 0
11, 277688, Note_on_c, 4, 53, 82
11, 277696, Note_on_c, 4, 41, 82
11, 277808, Note_on_c, 4, 53, 0
11, 277816, Note_on_c, 4, 41, 0
11, 277860, Note_on_c, 4, 40, 82
11, 277920, Note_on_c, 4, 40, 0
11, 277935, Note_on_c, 4, 41, 40
11, 278055, Note_on_c, 4, 41, 0
11, 278177, Note_on_c, 4, 41, 49
11, 278297, Note_on_c, 4, 41, 0
11, 278417, Note_on_c, 4, 41, 59
11, 278537, Note_on_c, 4, 41, 0
11, 278585, Note_on_c, 4, 40, 39
11, 278645, Note_on_c, 4, 40, 0
11, 278660, Note_on_c, 4, 41, 93
11, 278668, Note_on_c, 4, 53, 96
11, 278780, Note_on_c, 4, 41, 0
11, 278788, Note_on_c, 4, 53, 0
11, 278836, Note_on_c, 4, 40, 89
11, 278896, Note_on_c, 4, 40, 0
11, 278900, Note_on_c, 4, 41, 47
11, 279020, Note_on_c, 4, 41, 0
11, 279133, Note_on_c, 4, 41, 50
11, 279253, Note_on_c, 4, 41, 0
11, 279384, Note_on_c, 4, 41, 56
11, 279504, Note_on_c, 4, 41, 0
11, 279544, Note_on_c, 4, 40, 55
11, 279604, Note_on_c, 4, 40, 0
11, 279604, Note_on_c, 4, 41, 57
11, 279724, Note_on_c, 4, 41, 0
11, 279859, Note_on_c, 4, 53, 78
11, 279979, Note_on_c, 4, 53, 0
11, 280032, Note_on_c, 4, 40, 86
11, 280092, Note_on_c, 4, 40, 0
11, 280092, Note_on_c, 4, 41, 58
11, 280212, Note_on_c, 4, 41, 0
11, 280327, Note_on_c, 4, 41, 48
11, 280447, Note_on_c, 4, 41, 0
11, 280504, Note_on_c, 4, 40, 46
11, 280564, Note_on_c, 4, 40, 0
11, 280586, Note_on_c, 4, 41, 49
11, 280706, Note_on_c, 4, 41, 0
11, 280810, Note_on_c, 4, 53, 84
11, 280930, Note_on_c, 4, 53, 0
11, 280990, Note_on_c, 4, 40, 84
11, 281050, Note_on_c, 4, 40, 0
11, 281068, Note_on_c, 4, 41, 54
11, 281188, Note_on_c, 4, 41, 0
11, 281298, Note_on_c, 4, 41, 43
11, 281418, Note_on_c, 4, 41, 0
11, 281479, Note_on_c, 4, 40, 50
11, 281539, Note_on_c, 4, 40, 0
11, 281540, Note_on_c, 4, 41, 40
11, 281660, Note_on_c, 4, 41, 0
11, 281784, Note_on_c, 4, 53, 96
11, 281904, Note_on_c, 4, 53, 0
11, 281961, Note_on_c, 4, 40, 88
11, 282015, Note_on_c, 4, 41, 57
11, 282021, Note_on_c, 4, 40, 0
11, 282135, Note_on_c, 4, 41, 0
11, 282268, Note_on_c, 4, 41, 44
11, 282388, Note_on_c, 4, 41, 0
11, 282439, Note_on_c, 4, 40, 57
11, 282499, Note_on_c, 4, 40, 0
11, 282503, Note_on_c, 4, 41, 49
11, 282623, Note_on_c, 4, 41, 0
11, 282728, Note_on_c, 4, 53, 98
11, 282848, Note_on_c, 4, 53, 0
11, 282926, Note_on_c, 4, 40, 85
11, 282985, Note_on_c, 4, 41, 41
11, 282986, Note_on_c, 4, 40, 0
11, 283105, Note_on_c, 4, 41, 0
11, 283200, Note_on_c, 4, 41, 52
11, 283320, Note_on_c, 4, 41, 0
11, 283390, Note_on_c, 4, 40, 44
11, 283441, Note_on_c, 4, 41, 54
11, 283450, Note_on_c, 4, 40, 0
11, 283561, Note_on_c, 4, 41, 0
11, 283694, Note_on_c, 4, 53, 88
11, 283814, Note_on_c, 4, 53, 0
11, 283862, Note_on_c, 4, 40, 95
11, 283922, Note_on_c, 4, 40, 0
11, 283927, Note_on_c, 4, 41, 58
11, 284047, Note_on_c, 4, 41, 0
11, 284179, Note_on_c, 4, 41, 52
11, 284299, Note_on_c, 4, 41, 0
11, 284357, Note_on_c, 4, 40, 40
11, 284407, Note_on_c, 4, 41, 56
11, 284417, Note_on_c, 4, 40, 0
11, 284527, Note_on_c, 4, 41, 0
11, 284663, Note_on_c, 4, 53, 83
11, 284783, Note_on_c, 4, 53, 0
11, 284840, Note_on_c, 4, 40, 88
11, 284888, Note_on_c, 4, 41, 39
11, 284900, Note_on_c, 4, 40, 0
11, 285008, Note_on_c, 4, 41, 0
11, 285137, Note_on_c, 4, 41, 57
11, 285257, Note_on_c, 4, 41, 0
11, 285322, Note_on_c, 4, 40, 46
11, 285382, Note_on_c, 4, 40, 0
11, 285387, Note_on_c, 4, 41, 46
11, 285507, Note_on_c, 4, 41, 0
11, 285607, Note_on_c, 4, 53, 93
11, 285727, Note_on_c, 4, 53, 0
11, 285784, Note_on_c, 4, 40, 98
11, 285844, Note_on_c, 4, 40, 0
11, 285861, Note_on_c, 4, 41, 55
11, 285981, Note_on_c, 4, 41, 0
11, 286086, Note_on_c, 4, 41, 49
11, 286206, Note_on_c, 4, 41, 0
11, 286281, Note_on_c, 4, 40, 46
11, 286341, Note_on_c, 4, 40, 0
11, 286346, Note_on_c, 4, 41, 56
11, 286466, Note_on_c, 4, 41, 0
11, 286586, Note_on_c, 4, 53, 95
11, 286706, Note_on_c, 4, 53, 0
11, 286755, Note_on_c, 4, 40, 95
11, 286805, Note_on_c, 4, 41, 48
11, 286815, Note_on_c, 4, 40, 0
11, 286925, Note_on_c, 4, 41, 0
11, 287056, Note_on_c, 4, 41, 54
11, 287176, Note_on_c, 4, 41, 0
11, 287230, Note_on_c, 4, 40, 43
11, 287290, Note_on_c, 4, 40, 0
11, 287307, Note_on_c, 4, 41, 54
11, 287427, Note_on_c, 4, 41, 0
11, 287536, Note_on_c, 4, 53, 93
11, 287656, Note_on_c, 4, 53, 0
11, 287725, Note_on_c, 4, 40, 88
11, 287772, Note_on_c, 4, 41, 46
11, 287785, Note_on_c, 4, 40, 0
11, 287892, Note_on_c, 4, 41, 0
11, 288262, Note_on_c, 4, 52, 101
11, 288266, Note_on_c, 4, 41, 111
11, 288488, Note_on_c, 4, 52, 0
11, 288499, Note_on_c, 4, 63, 99
11, 288506, Note_on_c, 4, 41, 0
11, 288507, Note_on_c, 4, 52, 94
11, 288724, Note_on_c, 4, 63, 0
11, 288743, Note_on_c, 4, 63, 93
11, 288747, Note_on_c, 4, 52, 0
11, 288967, Note_on_c, 4, 63, 0
11, 288987, Note_on_c, 4, 63, 110
11, 288987, Note_on_c, 4, 52, 95
11, 289206, Note_on_c, 4, 52, 0
11, 289208, Note_on_c, 4, 41, 110
11, 289225, Note_on_c, 4, 52, 111
11, 289227, Note_on_c, 4, 63, 0
11, 289448, Note_on_c, 4, 41, 0
11, 289465, Note_on_c, 4, 52, 0
11, 290667, Note_on_c, 4, 45, 104
11, 290774, Note_on_c, 4, 45, 0
11, 291861, Note_on_c, 4, 45, 124
11, 291968, Note_on_c, 4, 45, 0
11, 295222, Note_on_c, 4, 45, 115
11, 295329, Note_on_c, 4, 45, 0
11, 296427, Note_on_c, 4, 45, 109
11, 296534, Note_on_c, 4, 45, 0
11, 296895, Note_on_c, 4, 45, 108
11, 297002, Note_on_c, 4, 45, 0
11, 298093, Note_on_c, 4, 45, 104
11, 298200, Note_on_c, 4, 45, 0
11, 300746, Note_on_c, 4, 45, 119
11, 300853, Note_on_c, 4, 45, 0
11, 304097, Note_on_c, 4, 45, 113
11, 304204, Note_on_c, 4, 45, 0
11, 305284, Note_on_c, 4, 45, 108
11, 305391, Note_on_c, 4, 45, 0
11, 306480, Note_on_c, 4, 45, 108
11, 306587, Note_on_c, 4, 45, 0
11, 306973, Note_on_c, 4, 45, 112
11, 307080, Note_on_c, 4, 45, 0
11, 308182, Note_on_c, 4, 45, 124
11, 308289, Note_on_c, 4, 45, 0
11, 360729, Note_on_c, 4, 52, 40
11, 360735, Note_on_c, 4, 55, 42
11, 360738, Note_on_c, 4, 60, 56
11, 360749, Note_on_c, 4, 48, 41
11, 361449, Note_on_c, 4, 52, 0
11, 361455, Note_on_c, 4, 55, 0
11, 361458, Note_on_c, 4, 60, 0
11, 361469, Note_on_c, 4, 48, 0
11, 361682, Note_on_c, 4, 48, 44
11, 361693, Note_on_c, 4, 52, 46
11, 361696, Note_on_c, 4, 55, 50
11, 361704, Note_on_c, 4, 60, 41
11, 361922, Note_on_c, 4, 48, 0
11, 361933, Note_on_c, 4, 52, 0
11, 361936, Note_on_c, 4, 55, 0
11, 361944, Note_on_c, 4, 60, 0
11, 362169, Note_on_c, 4, 60, 47
11, 362169, Note_on_c, 4, 48, 54
11, 362178, Note_on_c, 4, 55, 51
11, 362179, Note_on_c, 4, 52, 45
11, 362409, Note_on_c, 4, 60, 0
11, 362409, Note_on_c, 4, 48, 0
11, 362418, Note_on_c, 4, 55, 0
11, 362419, Note_on_c, 4, 52, 0
11, 362640, Note_on_c, 4, 62, 57
11, 362647, Note_on_c, 4, 58, 40
11, 362650, Note_on_c, 4, 48, 57
11, 362668, Note_on_c, 4, 52, 49
11, 362880, Note_on_c, 4, 62, 0
11, 362887, Note_on_c, 4, 58, 0
11, 362890, Note_on_c, 4, 48, 0
11, 362908, Note_on_c, 4, 52, 0
11, 363141, Note_on_c, 4, 52, 54
11, 363143, Note_on_c, 4, 60, 59
11, 363147, Note_on_c, 4, 48, 51
11, 363148, Note_on_c, 4, 55, 49
11, 363381, Note_on_c, 4, 52, 0
11, 363383, Note_on_c, 4, 60, 0
11, 363387, Note_on_c, 4, 48, 0
11, 363388, Note_on_c, 4, 55, 0
11, 363604, Note_on_c, 4, 58, 56
11, 363619, Note_on_c, 4, 48, 55
11, 363622, Note_on_c, 4, 62, 56
11, 363628, Note_on_c, 4, 52, 39
11, 363844, Note_on_c, 4, 58, 0
11, 363859, Note_on_c, 4, 48, 0
11, 363862, Note_on_c, 4, 62, 0
11, 363868, Note_on_c, 4, 52, 0
11, 364086, Note_on_c, 4, 52, 55
11, 364092, Note_on_c, 4, 48, 55
11, 364103, Note_on_c, 4, 60, 41
11, 364105, Note_on_c, 4, 55, 53
11, 364806, Note_on_c, 4, 52, 0
11, 364812, Note_on_c, 4, 48, 0
11, 364823, Note_on_c, 4, 60, 0
11, 364825, Note_on_c, 4, 55, 0
11, 365046, Note_on_c, 4, 48, 41
11, 365054, Note_on_c, 4, 60, 43
11, 365059, Note_on_c, 4, 52, 43
11, 365062, Note_on_c, 4, 55, 43
11, 365286, Note_on_c, 4, 48, 0
11, 365294, Note_on_c, 4, 60, 0
11, 365299, Note_on_c, 4, 52, 0
11, 365302, Note_on_c, 4, 55, 0
11, 365521, Note_on_c, 4, 55, 49
11, 365525, Note_on_c, 4, 60, 50
11, 365526, Note_on_c, 4, 48, 52
11, 365541, Note_on_c, 4, 52, 45
11, 365761, Note_on_c, 4, 55, 0
11, 365765, Note_on_c, 4, 60, 0
11, 365766, Note_on_c, 4, 48, 0
11, 365781, Note_on_c, 4, 52, 0
11, 366004, Note_on_c, 4, 62, 53
11, 366014, Note_on_c, 4, 52, 39
11, 366023, Note_on_c, 4, 48, 43
11, 366029, Note_on_c, 4, 58, 52
11, 366244, Note_on_c, 4, 62, 0
11, 366254, Note_on_c, 4, 52, 0
11, 366263, Note_on_c, 4, 48, 0
11, 366269, Note_on_c, 4, 58, 0
11, 366480, Note_on_c, 4, 48, 48
11, 366490, Note_on_c, 4, 55, 41
11, 366494, Note_on_c, 4, 60, 39
11, 366505, Note_on_c, 4, 52, 42
11, 367200, Note_on_c, 4, 48, 0
11, 367210, Note_on_c, 4, 55, 0
11, 367214, Note_on_c, 4, 60, 0
11, 367225, Note_on_c, 4, 52, 0
11, 367440, Note_on_c, 4, 60, 43
11, 367441, Note_on_c, 4, 55, 46
11, 367458, Note_on_c, 4, 52, 50
11, 367466, Note_on_c, 4, 48, 55
11, 367680, Note_on_c, 4, 60, 0
11, 367681, Note_on_c, 4, 55, 0
11, 367698, Note_on_c, 4, 52, 0
11, 367706, Note_on_c, 4, 48, 0
11, 367924, Note_on_c, 4, 52, 41
11, 367930, Note_on_c, 4, 55, 48
11, 367934, Note_on_c, 4, 48, 48
11, 367939, Note_on_c, 4, 60, 56
11, 368164, Note_on_c, 4, 52, 0
11, 368170, Note_on_c, 4, 55, 0
11, 368174, Note_on_c, 4, 48, 0
11, 368179, Note_on_c, 4, 60, 0
11, 368411, Note_on_c, 4, 52, 59
11, 368416, Note_on_c, 4, 58, 54
11, 368419, Note_on_c, 4, 48, 57
11, 368427, Note_on_c, 4, 62, 55
11, 368651, Note_on_c, 4, 52, 0
11, 368656, Note_on_c, 4, 58, 0
11, 368659, Note_on_c, 4, 48, 0
11, 368667, Note_on_c, 4, 62, 0
11, 368891, Note_on_c, 4, 60, 39
11, 368894, Note_on_c, 4, 55, 57
11, 368896, Note_on_c, 4, 52, 48
11, 368904, Note_on_c, 4, 48, 39
11, 369131, Note_on_c, 4, 60, 0
11, 369134, Note_on_c, 4, 55, 0
11, 369136, Note_on_c, 4, 52, 0
11, 369144, Note_on_c, 4, 48, 0
11, 369381, Note_on_c, 4, 52, 45
11, 369381, Note_on_c, 4, 62, 40
11, 369383, Note_on_c, 4, 58, 52
11, 369385, Note_on_c, 4, 48, 58
11, 369621, Note_on_c, 4, 52, 0
11, 369621, Note_on_c, 4, 62, 0
11, 369623, Note_on_c, 4, 58, 0
11, 369625, Note_on_c, 4, 48, 0
11, 369845, Note_on_c, 4, 52, 49
11, 369854, Note_on_c, 4, 60, 44
11, 369863, Note_on_c, 4, 55, 49
11, 369864, Note_on_c, 4, 48, 55
11, 370085, Note_on_c, 4, 52, 0
11, 370094, Note_on_c, 4, 60, 0
11, 370103, Note_on_c, 4, 55, 0
11, 370104, Note_on_c, 4, 48, 0
11, 370334, Note_on_c, 4, 52, 50
11, 370339, Note_on_c, 4, 58, 51
11, 370347, Note_on_c, 4, 48, 39
11, 370348, Note_on_c, 4, 63, 55
11, 370574, Note_on_c, 4, 52, 0
11, 370579, Note_on_c, 4, 58, 0
11, 370587, Note_on_c, 4, 48, 0
11, 370588, Note_on_c, 4, 63, 0
11, 370800, Note_on_c, 4, 48, 59
11, 370813, Note_on_c, 4, 62, 49
11, 370817, Note_on_c, 4, 58, 49
11, 370818, Note_on_c, 4, 52, 44
11, 371040, Note_on_c, 4, 48, 0
11, 371053, Note_on_c, 4, 62, 0
11, 371057, Note_on_c, 4, 58, 0
11, 371058, Note_on_c, 4, 52, 0
11, 371281, Note_on_c, 4, 52, 39
11, 371293, Note_on_c, 4, 55, 56
11, 371300, Note_on_c, 4, 60, 42
11, 371300, Note_on_c, 4, 48, 56
11, 372001, Note_on_c, 4, 52, 0
11, 372013, Note_on_c, 4, 55, 0
11, 372020, Note_on_c, 4, 60, 0
11, 372020, Note_on_c, 4, 48, 0
11, 372241, Note_on_c, 4, 48, 56
11, 372243, Note_on_c, 4, 60, 43
11, 372257, Note_on_c, 4, 55, 51
11, 372258, Note_on_c, 4, 52, 58
11, 372481, Note_on_c, 4, 48, 0
11, 372483, Note_on_c, 4, 60, 0
11, 372497, Note_on_c, 4, 55, 0
11, 372498, Note_on_c, 4, 52, 0
11, 372720, Note_on_c, 4, 52, 44
11, 372731, Note_on_c, 4, 60, 58
11, 372731, Note_on_c, 4, 48, 43
11, 372734, Note_on_c, 4, 55, 52
11, 372960, Note_on_c, 4, 52, 0
11, 372971, Note_on_c, 4, 60, 0
11, 372971, Note_on_c, 4, 48, 0
11, 372974, Note_on_c, 4, 55, 0
11, 373211, Note_on_c, 4, 52, 42
11, 373212, Note_on_c, 4, 58, 41
11, 373216, Note_on_c, 4, 62, 57
11, 373223, Note_on_c, 4, 48, 54
11, 373451, Note_on_c, 4, 52, 0
11, 373452, Note_on_c, 4, 58, 0
11, 373456, Note_on_c, 4, 62, 0
11, 373463, Note_on_c, 4, 48, 0
11, 373683, Note_on_c, 4, 52, 45
11, 373689, Note_on_c, 4, 60, 58
11, 373702, Note_on_c, 4, 48, 39
11, 373709, Note_on_c, 4, 55, 45
11, 373923, Note_on_c, 4, 52, 0
11, 373929, Note_on_c, 4, 60, 0
11, 373942, Note_on_c, 4, 48, 0
11, 373949, Note_on_c, 4, 55, 0
11, 374160, Note_on_c, 4, 62, 40
11, 374167, Note_on_c, 4, 58, 53
11, 374170, Note_on_c, 4, 52, 51
11, 374171, Note_on_c, 4, 48, 43
11, 374400, Note_on_c, 4, 62, 0
11, 374407, Note_on_c, 4, 58, 0
11, 374410, Note_on_c, 4, 52, 0
11, 374411, Note_on_c, 4, 48, 0
11, 374646, Note_on_c, 4, 60, 55
11, 374647, Note_on_c, 4, 48, 57
11, 374653, Note_on_c, 4, 52, 52
11, 374657, Note_on_c, 4, 55, 44
11, 374886, Note_on_c, 4, 60, 0
11, 374887, Note_on_c, 4, 48, 0
11, 374893, Note_on_c, 4, 52, 0
11, 374897, Note_on_c, 4, 55, 0
11, 376081, Note_on_c, 4, 48, 59
11, 376084, Note_on_c, 4, 60, 55
11, 376089, Note_on_c, 4, 52, 50
11, 376097, Note_on_c, 4, 55, 46
11, 376801, Note_on_c, 4, 48, 0
11, 376804, Note_on_c, 4, 60, 0
11, 376809, Note_on_c, 4, 52, 0
11, 376817, Note_on_c, 4, 55, 0
11, 377044, Note_on_c, 4, 60, 54
11, 377046, Note_on_c, 4, 52, 44
11, 377062, Note_on_c, 4, 55, 54
11, 377064, Note_on_c, 4, 48, 51
11, 377284, Note_on_c, 4, 60, 0
11, 377286, Note_on_c, 4, 52, 0
11, 377302, Note_on_c, 4, 55, 0
11, 377304, Note_on_c, 4, 48, 0
11, 377526, Note_on_c, 4, 60, 51
11, 377532, Note_on_c, 4, 48, 55
11, 377542, Note_on_c, 4, 52, 47
11, 377548, Note_on_c, 4, 55, 47
11, 377766, Note_on_c, 4, 60, 0
11, 377772, Note_on_c, 4, 48, 0
11, 377782, Note_on_c, 4, 52, 0
11, 377788, Note_on_c, 4, 55, 0
11, 378001, Note_on_c, 4, 62, 59
11, 378007, Note_on_c, 4, 48, 39
11, 378008, Note_on_c, 4, 52, 40
11, 378025, Note_on_c, 4, 58, 57
11, 378241, Note_on_c, 4, 62, 0
11, 378247, Note_on_c, 4, 48, 0
11, 378248, Note_on_c, 4, 52, 0
11, 378265, Note_on_c, 4, 58, 0
11, 378485, Note_on_c, 4, 48, 50
11, 378487, Note_on_c, 4, 52, 43
11, 378497, Note_on_c, 4, 60, 41
11, 378501, Note_on_c, 4, 55, 47
11, 379205, Note_on_c, 4, 48, 0
11, 379207, Note_on_c, 4, 52, 0
11, 379217, Note_on_c, 4, 60, 0
11, 379221, Note_on_c, 4, 55, 0
11, 385697, Note_on_c, 4, 64, 18
11, 385701, Note_on_c, 4, 60, 31
11, 385706, Note_on_c, 4, 57, 18
11, 387187, Note_on_c, 4, 53, 29
11, 387197, Note_on_c, 4, 57, 0
11, 387216, Note_on_c, 4, 57, 18
11, 387221, Note_on_c, 4, 60, 0
11, 387222, Note_on_c, 4, 61, 26
11, 387233, Note_on_c, 4, 64, 0
11, 387247, Note_on_c, 4, 53, 0
11, 387253, Note_on_c, 4, 48, 21
11, 387291, Note_on_c, 4, 53, 28
11, 387295, Note_on_c, 4, 57, 0
11, 387308, Note_on_c, 4, 44, 31
11, 387313, Note_on_c, 4, 48, 0
11, 387318, Note_on_c, 4, 61, 0
11, 387332, Note_on_c, 4, 57, 23
11, 387368, Note_on_c, 4, 44, 0
11, 387371, Note_on_c, 4, 53, 0
11, 387373, Note_on_c, 4, 50, 30
11, 387379, Note_on_c, 4, 40, 21
11, 387427, Note_on_c, 4, 57, 0
11, 387430, Note_on_c, 4, 54, 32
11, 387453, Note_on_c, 4, 50, 0
11, 387458, Note_on_c, 4, 46, 13
11, 387522, Note_on_c, 4, 41, 29
11, 387523, Note_on_c, 4, 50, 15
11, 387526, Note_on_c, 4, 54, 0
11, 387537, Note_on_c, 4, 46, 0
11, 387602, Note_on_c, 4, 41, 0
11, 387603, Note_on_c, 4, 46, 14
11, 387616, Note_on_c, 4, 38, 22
11, 387619, Note_on_c, 4, 40, 0
11, 387619, Note_on_c, 4, 50, 0
11, 387723, Note_on_c, 4, 46, 0
11, 387736, Note_on_c, 4, 38, 0
11, 414503, Note_on_c, 4, 50, 52
11, 414599, Note_on_c, 4, 50, 0
11, 414739, Note_on_c, 4, 58, 67
11, 414835, Note_on_c, 4, 58, 0
11, 414984, Note_on_c, 4, 50, 54
11, 415080, Note_on_c, 4, 50, 0
11, 415224, Note_on_c, 4, 58, 60
11, 415320, Note_on_c, 4, 58, 0
11, 415461, Note_on_c, 4, 50, 66
11, 415557, Note_on_c, 4, 50, 0
11, 415695, Note_on_c, 4, 58, 70
11, 415791, Note_on_c, 4, 58, 0
11, 415934, Note_on_c, 4, 50, 65
11, 416030, Note_on_c, 4, 50, 0
11, 416183, Note_on_c, 4, 58, 66
11, 416279, Note_on_c, 4, 58, 0
11, 416426, Note_on_c, 4, 50, 52
11, 416522, Note_on_c, 4, 50, 0
11, 416661, Note_on_c, 4, 58, 69
11, 416757, Note_on_c, 4, 58, 0
11, 416906, Note_on_c, 4, 50, 56
11, 417002, Note_on_c, 4, 50, 0
11, 417144, Note_on_c, 4, 58, 65
11, 417240, Note_on_c, 4, 58, 0
11, 417372, Note_on_c, 4, 50, 70
11, 417468, Note_on_c, 4, 50, 0
11, 417625, Note_on_c, 4, 58, 67
11, 417721, Note_on_c, 4, 58, 0
11, 417854, Note_on_c, 4, 50, 69
11, 417950, Note_on_c, 4, 50, 0
11, 418089, Note_on_c, 4, 58, 61
11, 418185, Note_on_c, 4, 58, 0
11, 418345, Note_on_c, 4, 50, 53
11, 418441, Note_on_c, 4, 50, 0
11, 418578, Note_on_c, 4, 58, 54
11, 418674, Note_on_c, 4, 58, 0
11, 418802, Note_on_c, 4, 50, 62
11, 418898, Note_on_c, 4, 50, 0
11, 419067, Note_on_c, 4, 58, 55
11, 419163, Note_on_c, 4, 58, 0
11, 419302, Note_on_c, 4, 50, 80
11, 419398, Note_on_c, 4, 50, 0
11, 419543, Note_on_c, 4, 58, 76
11, 419639, Note_on_c, 4, 58, 0
11, 419777, Note_on_c, 4, 50, 53
11, 419873, Note_on_c, 4, 50, 0
11, 420012, Note_on_c, 4, 58, 61
11, 420108, Note_on_c, 4, 58, 0
11, 420256, Note_on_c, 4, 50, 70
11, 420352, Note_on_c, 4, 50, 0
11, 420504, Note_on_c, 4, 58, 80
11, 420600, Note_on_c, 4, 58, 0
11, 420724, Note_on_c, 4, 50, 65
11, 420820, Note_on_c, 4, 50, 0
11, 420972, Note_on_c, 4, 58, 71
11, 421068, Note_on_c, 4, 58, 0
11, 421228, Note_on_c, 4, 50, 74
11, 421324, Note_on_c, 4, 50, 0
11, 421459, Note_on_c, 4, 58, 83
11, 421555, Note_on_c, 4, 58, 0
11, 421698, Note_on_c, 4, 50, 73
11, 421794, Note_on_c, 4, 50, 0
11, 421926, Note_on_c, 4, 58, 73
11, 422022, Note_on_c, 4, 58, 0
11, 422176, Note_on_c, 4, 50, 84
11, 422272, Note_on_c, 4, 50, 0
11, 422420, Note_on_c, 4, 58, 71
11, 422516, Note_on_c, 4, 58, 0
11, 422651, Note_on_c, 4, 50, 72
11, 422747, Note_on_c, 4, 50, 0
11, 422900, Note_on_c, 4, 58, 81
11, 422996, Note_on_c, 4, 58, 0
11, 423147, Note_on_c, 4, 50, 71
11, 423243, Note_on_c, 4, 50, 0
11, 423369, Note_on_c, 4, 58, 72
11, 423465, Note_on_c, 4, 58, 0
11, 423621, Note_on_c, 4, 50, 79
11, 423717, Note_on_c, 4, 50, 0
11, 423843, Note_on_c, 4, 58, 76
11, 423939, Note_on_c, 4, 58, 0
11, 424089, Note_on_c, 4, 50, 76
11, 424185, Note_on_c, 4, 50, 0
11, 424333, Note_on_c, 4, 58, 76
11, 424429, Note_on_c, 4, 58, 0
11, 424562, Note_on_c, 4, 50, 66
11, 424658, Note_on_c, 4, 50, 0
11, 424827, Note_on_c, 4, 58, 72
11, 424923, Note_on_c, 4, 58, 0
11, 425052, Note_on_c, 4, 50, 74
11, 425148, Note_on_c, 4, 50, 0
11, 425307, Note_on_c, 4, 58, 85
11, 425403, Note_on_c, 4, 58, 0
11, 425531, Note_on_c, 4, 50, 71
11, 425627, Note_on_c, 4, 50, 0
11, 425765, Note_on_c, 4, 58, 67
11, 425861, Note_on_c, 4, 58, 0
11, 426017, Note_on_c, 4, 50, 70
11, 426113, Note_on_c, 4, 50, 0
11, 426254, Note_on_c, 4, 58, 79
11, 426350, Note_on_c, 4, 58, 0
11, 426480, Note_on_c, 4, 50, 75
11, 426576, Note_on_c, 4, 50, 0
11, 426729, Note_on_c, 4, 58, 81
11, 426825, Note_on_c, 4, 58, 0
11, 426988, Note_on_c, 4, 50, 83
11, 427084, Note_on_c, 4, 50, 0
11, 427213, Note_on_c, 4, 58, 82
11, 427309, Note_on_c, 4, 58, 0
11, 427466, Note_on_c, 4, 50, 70
11, 427562, Note_on_c, 4, 50, 0
11, 427688, Note_on_c, 4, 58, 71
11, 427784, Note_on_c, 4, 58, 0
11, 427937, Note_on_c, 4, 50, 77
11, 428033, Note_on_c, 4, 50, 0
11, 428176, Note_on_c, 4, 58, 72
11, 428272, Note_on_c, 4, 58, 0
11, 428424, Note_on_c, 4, 50, 68
11, 428520, Note_on_c, 4, 50, 0
11, 428650, Note_on_c, 4, 58, 79
11, 428746, Note_on_c, 4, 58, 0
11, 428880, Note_on_c, 4, 50, 81
11, 428976, Note_on_c, 4, 50, 0
11, 429144, Note_on_c, 4, 58, 68
11, 429240, Note_on_c, 4, 58, 0
11, 429376, Note_on_c, 4, 50, 76
11, 429472, Note_on_c, 4, 50, 0
11, 429609, Note_on_c, 4, 58, 72
11, 429705, Note_on_c, 4, 58, 0
11, 429862, Note_on_c, 4, 50, 85
11, 429958, Note_on_c, 4, 50, 0
11, 430083, Note_on_c, 4, 58, 73
11, 430179, Note_on_c, 4, 58, 0
11, 430345, Note_on_c, 4, 50, 73
11, 430441, Note_on_c, 4, 50, 0
11, 430577, Note_on_c, 4, 58, 81
11, 430673, Note_on_c, 4, 58, 0
11, 430809, Note_on_c, 4, 50, 80
11, 430905, Note_on_c, 4, 50, 0
11, 431051, Note_on_c, 4, 58, 83
11, 431147, Note_on_c, 4, 58, 0
11, 431302, Note_on_c, 4, 50, 78
11, 431398, Note_on_c, 4, 50, 0
11, 431532, Note_on_c, 4, 58, 68
11, 431628, Note_on_c, 4, 58, 0
11, 431784, Note_on_c, 4, 50, 71
11, 431880, Note_on_c, 4, 50, 0
11, 432007, Note_on_c, 4, 58, 65
11, 432103, Note_on_c, 4, 58, 0
11, 432268, Note_on_c, 4, 50, 73
11, 432364, Note_on_c, 4, 50, 0
11, 432484, Note_on_c, 4, 58, 78
11, 432580, Note_on_c, 4, 58, 0
11, 432743, Note_on_c, 4, 50, 71
11, 432839, Note_on_c, 4, 50, 0
11, 432964, Note_on_c, 4, 58, 67
11, 433060, Note_on_c, 4, 58, 0
11, 433202, Note_on_c, 4, 50, 76
11, 433298, Note_on_c, 4, 50, 0
11, 433444, Note_on_c, 4, 58, 83
11, 433540, Note_on_c, 4, 58, 0
11, 433682, Note_on_c, 4, 50, 75
11, 433778, Note_on_c, 4, 50, 0
11, 433944, Note_on_c, 4, 58, 82
11, 434040, Note_on_c, 4, 58, 0
11, 434183, Note_on_c, 4, 50, 74
11, 434279, Note_on_c, 4, 50, 0
11, 434421, Note_on_c, 4, 58, 69
11, 434517, Note_on_c, 4, 58, 0
11, 434647, Note_on_c, 4, 50, 66
11, 434743, Note_on_c, 4, 50, 0
11, 434888, Note_on_c, 4, 58, 73
11, 434984, Note_on_c, 4, 58, 0
11, 435149, Note_on_c, 4, 50, 78
11, 435245, Note_on_c, 4, 50, 0
11, 435385, Note_on_c, 4, 58, 75
11, 435481, Note_on_c, 4, 58, 0
11, 435620, Note_on_c, 4, 50, 85
11, 435716, Note_on_c, 4, 50, 0
11, 435844, Note_on_c, 4, 58, 81
11, 435940, Note_on_c, 4, 58, 0
11, 436101, Note_on_c, 4, 50, 76
11, 436197, Note_on_c, 4, 50, 0
11, 436327, Note_on_c, 4, 58, 83
11, 436423, Note_on_c, 4, 58, 0
11, 436576, Note_on_c, 4, 50, 69
11, 436672, Note_on_c, 4, 50, 0
11, 436802, Note_on_c, 4, 58, 69
11, 436898, Note_on_c, 4, 58, 0
11, 437058, Note_on_c, 4, 50, 66
11, 437154, Note_on_c, 4, 50, 0
11, 437301, Note_on_c, 4, 58, 81
11, 437397, Note_on_c, 4, 58, 0
11, 437532, Note_on_c, 4, 50, 74
11, 437628, Note_on_c, 4, 50, 0
11, 437788, Note_on_c, 4, 58, 74
11, 437884, Note_on_c, 4, 58, 0
11, 438003, Note_on_c, 4, 50, 108
11, 438014, Note_on_c, 4, 43, 106
11, 438023, Note_on_c, 4, 37, 97
11, 438099, Note_on_c, 4, 50, 0
11, 438254, Note_on_c, 4, 43, 0
11, 438263, Note_on_c, 4, 37, 0
11, 438263, Note_on_c, 4, 58, 78
11, 438359, Note_on_c, 4, 58, 0
11, 438480, Note_on_c, 4, 50, 111
11, 438486, Note_on_c, 4, 37, 106
11, 438498, Note_on_c, 4, 43, 101
11, 438576, Note_on_c, 4, 50, 0
11, 438726, Note_on_c, 4, 37, 0
11, 438738, Note_on_c, 4, 43, 0
11, 438739, Note_on_c, 4, 58, 87
11, 438835, Note_on_c, 4, 58, 0
11, 438982, Note_on_c, 4, 50, 99
11, 438984, Note_on_c, 4, 43, 99
11, 438985, Note_on_c, 4, 37, 102
11, 439078, Note_on_c, 4, 50, 0
11, 439208, Note_on_c, 4, 58, 96
11, 439224, Note_on_c, 4, 43, 0
11, 439225, Note_on_c, 4, 37, 0
11, 439304, Note_on_c, 4, 58, 0
11, 439447, Note_on_c, 4, 50, 104
11, 439466, Note_on_c, 4, 43, 94
11, 439468, Note_on_c, 4, 37, 93
11, 439543, Note_on_c, 4, 50, 0
11, 439693, Note_on_c, 4, 58, 91
11, 439706, Note_on_c, 4, 43, 0
11, 439708, Note_on_c, 4, 37, 0
11, 439789, Note_on_c, 4, 58, 0
11, 439927, Note_on_c, 4, 37, 104
11, 439934, Note_on_c, 4, 43, 110
11, 439936, Note_on_c, 4, 50, 103
11, 440032, Note_on_c, 4, 50, 0
11, 440167, Note_on_c, 4, 37, 0
11, 440168, Note_on_c, 4, 58, 92
11, 440174, Note_on_c, 4, 43, 0
11, 440264, Note_on_c, 4, 58, 0
11, 440419, Note_on_c, 4, 37, 102
11, 440424, Note_on_c, 4, 50, 104
11, 440425, Note_on_c, 4, 43, 99
11, 440520, Note_on_c, 4, 50, 0
11, 440657, Note_on_c, 4, 58, 92
11, 440659, Note_on_c, 4, 37, 0
11, 440665, Note_on_c, 4, 43, 0
11, 440753, Note_on_c, 4, 58, 0
11, 440891, Note_on_c, 4, 37, 97
11, 440893, Note_on_c, 4, 43, 94
11, 440908, Note_on_c, 4, 50, 91
11, 441004, Note_on_c, 4, 50, 0
11, 441131, Note_on_c, 4, 37, 0
11, 441133, Note_on_c, 4, 43, 0
11, 441133, Note_on_c, 4, 58, 84
11, 441229, Note_on_c, 4, 58, 0
11, 441364, Note_on_c, 4, 37, 100
11, 441372, Note_on_c, 4, 43, 111
11, 441380, Note_on_c, 4, 50, 95
11, 441476, Note_on_c, 4, 50, 0
11, 441604, Note_on_c, 4, 37, 0
11, 441604, Note_on_c, 4, 58, 95
11, 441612, Note_on_c, 4, 43, 0
11, 441700, Note_on_c, 4, 58, 0
11, 441852, Note_on_c, 4, 50, 92
11, 441857, Note_on_c, 4, 43, 98
11, 441868, Note_on_c, 4, 37, 110
11, 441948, Note_on_c, 4, 50, 0
11, 442086, Note_on_c, 4, 58, 78
11, 442097, Note_on_c, 4, 43, 0
11, 442108, Note_on_c, 4, 37, 0
11, 442182, Note_on_c, 4, 58, 0
11, 442323, Note_on_c, 4, 37, 91
11, 442328, Note_on_c, 4, 50, 105
11, 442348, Note_on_c, 4, 43, 92
11, 442424, Note_on_c, 4, 50, 0
11, 442563, Note_on_c, 4, 37, 0
11, 442577, Note_on_c, 4, 58, 84
11, 442588, Note_on_c, 4, 43, 0
11, 442673, Note_on_c, 4, 58, 0
11, 442812, Note_on_c, 4, 50, 92
11, 442817, Note_on_c, 4, 37, 106
11, 442825, Note_on_c, 4, 43, 96
11, 442908, Note_on_c, 4, 50, 0
11, 443057, Note_on_c, 4, 37, 0
11, 443059, Note_on_c, 4, 58, 94
11, 443065, Note_on_c, 4, 43, 0
11, 443155, Note_on_c, 4, 58, 0
11, 443283, Note_on_c, 4, 43, 109
11, 443284, Note_on_c, 4, 37, 92
11, 443308, Note_on_c, 4, 50, 91
11, 443404, Note_on_c, 4, 50, 0
11, 443523, Note_on_c, 4, 43, 0
11, 443524, Note_on_c, 4, 37, 0
11, 443526, Note_on_c, 4, 58, 83
11, 443622, Note_on_c, 4, 58, 0
11, 443760, Note_on_c, 4, 66, 47
11, 443786, Note_on_c, 4, 54, 40
11, 443788, Note_on_c, 4, 58, 45
11, 443788, Note_on_c, 4, 45, 49
11, 443856, Note_on_c, 4, 66, 0
11, 443882, Note_on_c, 4, 54, 0
11, 443884, Note_on_c, 4, 58, 0
11, 443884, Note_on_c, 4, 45, 0
11, 444005, Note_on_c, 4, 54, 49
11, 444009, Note_on_c, 4, 66, 44
11, 444016, Note_on_c, 4, 58, 44
11, 444020, Note_on_c, 4, 45, 49
11, 444101, Note_on_c, 4, 54, 0
11, 444105, Note_on_c, 4, 66, 0
11, 444112, Note_on_c, 4, 58, 0
11, 444116, Note_on_c, 4, 45, 0
11, 444243, Note_on_c, 4, 57, 87
11, 444245, Note_on_c, 4, 65, 82
11, 444252, Note_on_c, 4, 69, 84
11, 444253, Note_on_c, 4, 44, 96
11, 444339, Note_on_c, 4, 57, 0
11, 444341, Note_on_c, 4, 65, 0
11, 444348, Note_on_c, 4, 69, 0
11, 444728, Note_on_c, 4, 45, 53
11, 444733, Note_on_c, 4, 44, 0
11, 444824, Note_on_c, 4, 45, 0
11, 445206, Note_on_c, 4, 45, 43
11, 445219, Note_on_c, 4, 54, 45
11, 445228, Note_on_c, 4, 58, 41
11, 445229, Note_on_c, 4, 66, 48
11, 445302, Note_on_c, 4, 45, 0
11, 445315, Note_on_c, 4, 54, 0
11, 445324, Note_on_c, 4, 58, 0
11, 445325, Note_on_c, 4, 66, 0
11, 445443, Note_on_c, 4, 54, 50
11, 445459, Note_on_c, 4, 66, 48
11, 445460, Note_on_c, 4, 45, 41
11, 445467, Note_on_c, 4, 58, 58
11, 445539, Note_on_c, 4, 54, 0
11, 445555, Note_on_c, 4, 66, 0
11, 445556, Note_on_c, 4, 45, 0
11, 445563, Note_on_c, 4, 58, 0
11, 445681, Note_on_c, 4, 69, 89
11, 445692, Note_on_c, 4, 44, 96
11, 445702, Note_on_c, 4, 65, 91
11, 445704, Note_on_c, 4, 57, 92
11, 445777, Note_on_c, 4, 69, 0
11, 445798, Note_on_c, 4, 65, 0
11, 445800, Note_on_c, 4, 57, 0
11, 446167, Note_on_c, 4, 45, 39
11, 446172, Note_on_c, 4, 44, 0
11, 446263, Note_on_c, 4, 45, 0
11, 457693, Note_on_c, 4, 36, 58
11, 457699, Note_on_c, 4, 43, 43
11, 467293, Note_on_c, 4, 36, 0
11, 467299, Note_on_c, 4, 43, 0
11, 490800, Control_c, 4, 11, 127
11, 490800, Control_c, 4, 7, 75
11, 504241, Note_on_c, 4, 38, 41
11, 504253, Note_on_c, 4, 45, 35
11, 504288, Note_on_c, 4, 38, 0
11, 504300, Note_on_c, 4, 45, 0
11, 504483, Note_on_c, 4, 45, 39
11, 504501, Note_on_c, 4, 38, 40
11, 504530, Note_on_c, 4, 45, 0
11, 504548, Note_on_c, 4, 38, 0
11, 504975, Note_on_c, 4, 45, 36
11, 504980, Note_on_c, 4, 38, 43
11, 505022, Note_on_c, 4, 45, 0
11, 505027, Note_on_c, 4, 38, 0
11, 505450, Note_on_c, 4, 45, 31
11, 505459, Note_on_c, 4, 38, 32
11, 505497, Note_on_c, 4, 45, 0
11, 505506, Note_on_c, 4, 38, 0
11, 505699, Note_on_c, 4, 38, 35
11, 505704, Note_on_c, 4, 45, 47
11, 505746, Note_on_c, 4, 38, 0
11, 505751, Note_on_c, 4, 45, 0
11, 505925, Note_on_c, 4, 38, 50
11, 505943, Note_on_c, 4, 45, 46
11, 505972, Note_on_c, 4, 38, 0
11, 505990, Note_on_c, 4, 45, 0
11, 506402, Note_on_c, 4, 38, 45
11, 506427, Note_on_c, 4, 45, 30
11, 506449, Note_on_c, 4, 38, 0
11, 506474, Note_on_c, 4, 45, 0
11, 506880, Note_on_c, 4, 45, 46
11, 506896, Note_on_c, 4, 38, 50
11, 506927, Note_on_c, 4, 45, 0
11, 506943, Note_on_c, 4, 38, 0
11, 507362, Note_on_c, 4, 45, 46
11, 507372, Note_on_c, 4, 38, 41
11, 507409, Note_on_c, 4, 45, 0
11, 507419, Note_on_c, 4, 38, 0
11, 507604, Note_on_c, 4, 45, 39
11, 507608, Note_on_c, 4, 38, 34
11, 507651, Note_on_c, 4, 45, 0
11, 507655, Note_on_c, 4, 38, 0
11, 508080, Note_on_c, 4, 38, 42
11, 508094, Note_on_c, 4, 45, 43
11, 508127, Note_on_c, 4, 38, 0
11, 508141, Note_on_c, 4, 45, 0
11, 508324, Note_on_c, 4, 45, 43
11, 508347, Note_on_c, 4, 38, 33
11, 508371, Note_on_c, 4, 45, 0
11, 508394, Note_on_c, 4, 38, 0
11, 508561, Note_on_c, 4, 45, 50
11, 508585, Note_on_c, 4, 38, 36
11, 508608, Note_on_c, 4, 45, 0
11, 508632, Note_on_c, 4, 38, 0
11, 509044, Note_on_c, 4, 45, 30
11, 509055, Note_on_c, 4, 38, 32
11, 509091, Note_on_c, 4, 45, 0
11, 509102, Note_on_c, 4, 38, 0
11, 509528, Note_on_c, 4, 45, 36
11, 509532, Note_on_c, 4, 38, 37
11, 509575, Note_on_c, 4, 45, 0
11, 509579, Note_on_c, 4, 38, 0
11, 509763, Note_on_c, 4, 45, 38
11, 509768, Note_on_c, 4, 38, 32
11, 509810, Note_on_c, 4, 45, 0
11, 509815, Note_on_c, 4, 38, 0
11, 510257, Note_on_c, 4, 38, 41
11, 510265, Note_on_c, 4, 45, 47
11, 510304, Note_on_c, 4, 38, 0
11, 510312, Note_on_c, 4, 45, 0
11, 510731, Note_on_c, 4, 45, 43
11, 510742, Note_on_c, 4, 38, 35
11, 510778, Note_on_c, 4, 45, 0
11, 510789, Note_on_c, 4, 38, 0
11, 511216, Note_on_c, 4, 38, 41
11, 511216, Note_on_c, 4, 45, 47
11, 511263, Note_on_c, 4, 38, 0
11, 511263, Note_on_c, 4, 45, 0
11, 511694, Note_on_c, 4, 45, 40
11, 511706, Note_on_c, 4, 38, 36
11, 511741, Note_on_c, 4, 45, 0
11, 511753, Note_on_c, 4, 38, 0
11, 511928, Note_on_c, 4, 38, 34
11, 511942, Note_on_c, 4, 45, 42
11, 511975, Note_on_c, 4, 38, 0
11, 511989, Note_on_c, 4, 45, 0
11, 512415, Note_on_c, 4, 45, 31
11, 512417, Note_on_c, 4, 38, 44
11, 512462, Note_on_c, 4, 45, 0
11, 512464, Note_on_c, 4, 38, 0
11, 512883, Note_on_c, 4, 45, 46
11, 512902, Note_on_c, 4, 38, 42
11, 512930, Note_on_c, 4, 45, 0
11, 512949, Note_on_c, 4, 38, 0
11, 513366, Note_on_c, 4, 38, 44
11, 513369, Note_on_c, 4, 45, 40
11, 513413, Note_on_c, 4, 38, 0
11, 513416, Note_on_c, 4, 45, 0
11, 513840, Note_on_c, 4, 45, 45
11, 513851, Note_on_c, 4, 38, 36
11, 513887, Note_on_c, 4, 45, 0
11, 513898, Note_on_c, 4, 38, 0
11, 514082, Note_on_c, 4, 38, 35
11, 514096, Note_on_c, 4, 45, 37
11, 514129, Note_on_c, 4, 38, 0
11, 514143, Note_on_c, 4, 45, 0
11, 514331, Note_on_c, 4, 45, 39
11, 514344, Note_on_c, 4, 38, 47
11, 514378, Note_on_c, 4, 45, 0
11, 514391, Note_on_c, 4, 38, 0
11, 514806, Note_on_c, 4, 45, 49
11, 514814, Note_on_c, 4, 38, 42
11, 514853, Note_on_c, 4, 45, 0
11, 514861, Note_on_c, 4, 38, 0
11, 515289, Note_on_c, 4, 38, 48
11, 515308, Note_on_c, 4, 45, 49
11, 515336, Note_on_c, 4, 38, 0
11, 515355, Note_on_c, 4, 45, 0
11, 515539, Note_on_c, 4, 38, 31
11, 515544, Note_on_c, 4, 45, 30
11, 515586, Note_on_c, 4, 38, 0
11, 515591, Note_on_c, 4, 45, 0
11, 516022, Note_on_c, 4, 45, 49
11, 516028, Note_on_c, 4, 38, 37
11, 516069, Note_on_c, 4, 45, 0
11, 516075, Note_on_c, 4, 38, 0
11, 516265, Note_on_c, 4, 38, 42
11, 516269, Note_on_c, 4, 45, 46
11, 516312, Note_on_c, 4, 38, 0
11, 516316, Note_on_c, 4, 45, 0
11, 516730, Note_on_c, 4, 38, 47
11, 516746, Note_on_c, 4, 45, 36
11, 516777, Note_on_c, 4, 38, 0
11, 516793, Note_on_c, 4, 45, 0
11, 517219, Note_on_c, 4, 38, 30
11, 517225, Note_on_c, 4, 45, 33
11, 517266, Note_on_c, 4, 38, 0
11, 517272, Note_on_c, 4, 45, 0
11, 517457, Note_on_c, 4, 45, 43
11, 517458, Note_on_c, 4, 38, 42
11, 517504, Note_on_c, 4, 45, 0
11, 517505, Note_on_c, 4, 38, 0
11, 517686, Note_on_c, 4, 45, 39
11, 517705, Note_on_c, 4, 38, 45
11, 517733, Note_on_c, 4, 45, 0
11, 517752, Note_on_c, 4, 38, 0
11, 518178, Note_on_c, 4, 38, 31
11, 518185, Note_on_c, 4, 45, 48
11, 518225, Note_on_c, 4, 38, 0
11, 518232, Note_on_c, 4, 45, 0
11, 518643, Note_on_c, 4, 38, 45
11, 518649, Note_on_c, 4, 45, 38
11, 518690, Note_on_c, 4, 38, 0
11, 518696, Note_on_c, 4, 45, 0
11, 518886, Note_on_c, 4, 38, 49
11, 518902, Note_on_c, 4, 45, 49
11, 518933, Note_on_c, 4, 38, 0
11, 518949, Note_on_c, 4, 45, 0
11, 519368, Note_on_c, 4, 38, 34
11, 519382, Note_on_c, 4, 45, 33
11, 519415, Note_on_c, 4, 38, 0
11, 519429, Note_on_c, 4, 45, 0
11, 519850, Note_on_c, 4, 45, 40
11, 519865, Note_on_c, 4, 38, 49
11, 519897, Note_on_c, 4, 45, 0
11, 519912, Note_on_c, 4, 38, 0
11, 531360, Note_on_c, 4, 53, 92
11, 531364, Note_on_c, 4, 57, 102
11, 531375, Note_on_c, 4, 45, 102
11, 531379, Note_on_c, 4, 66, 110
11, 531405, Note_on_c, 4, 45, 0
11, 531405, Note_on_c, 4, 66, 0
11, 531411, Note_on_c, 4, 53, 0
11, 531422, Note_on_c, 4, 57, 0
11, 531424, Note_on_c, 4, 66, 109
11, 531424, Note_on_c, 4, 45, 107
11, 531431, Note_on_c, 4, 53, 100
11, 531441, Note_on_c, 4, 57, 98
11, 531484, Note_on_c, 4, 66, 0
11, 531484, Note_on_c, 4, 45, 0
11, 531491, Note_on_c, 4, 53, 0
11, 531501, Note_on_c, 4, 57, 0
11, 531601, Note_on_c, 4, 45, 98
11, 531610, Note_on_c, 4, 66, 110
11, 531618, Note_on_c, 4, 53, 105
11, 531618, Note_on_c, 4, 57, 104
11, 531657, Note_on_c, 4, 53, 0
11, 531660, Note_on_c, 4, 57, 0
11, 531661, Note_on_c, 4, 45, 0
11, 531662, Note_on_c, 4, 45, 107
11, 531667, Note_on_c, 4, 66, 0
11, 531676, Note_on_c, 4, 53, 107
11, 531680, Note_on_c, 4, 57, 95
11, 531687, Note_on_c, 4, 66, 110
11, 531722, Note_on_c, 4, 45, 0
11, 531736, Note_on_c, 4, 53, 0
11, 531740, Note_on_c, 4, 57, 0
11, 531747, Note_on_c, 4, 66, 0
11, 531847, Note_on_c, 4, 45, 100
11, 531848, Note_on_c, 4, 66, 93
11, 531856, Note_on_c, 4, 53, 96
11, 531867, Note_on_c, 4, 57, 101
11, 531881, Note_on_c, 4, 66, 0
11, 531895, Note_on_c, 4, 45, 0
11, 531896, Note_on_c, 4, 53, 0
11, 531899, Note_on_c, 4, 57, 0
11, 531900, Note_on_c, 4, 66, 103
11, 531914, Note_on_c, 4, 45, 95
11, 531915, Note_on_c, 4, 53, 102
11, 531918, Note_on_c, 4, 57, 98
11, 531960, Note_on_c, 4, 66, 0
11, 531974, Note_on_c, 4, 45, 0
11, 531975, Note_on_c, 4, 53, 0
11, 531978, Note_on_c, 4, 57, 0
11, 532332, Note_on_c, 4, 45, 101
11, 532336, Note_on_c, 4, 57, 111
11, 532340, Note_on_c, 4, 66, 105
11, 532348, Note_on_c, 4, 53, 99
11, 532369, Note_on_c, 4, 45, 0
11, 532375, Note_on_c, 4, 53, 0
11, 532384, Note_on_c, 4, 57, 0
11, 532388, Note_on_c, 4, 45, 93
11, 532389, Note_on_c, 4, 66, 0
11, 532395, Note_on_c, 4, 53, 108
11, 532403, Note_on_c, 4, 57, 111
11, 532408, Note_on_c, 4, 66, 100
11, 532448, Note_on_c, 4, 45, 0
11, 532455, Note_on_c, 4, 53, 0
11, 532463, Note_on_c, 4, 57, 0
11, 532468, Note_on_c, 4, 66, 0
11, 532573, Note_on_c, 4, 66, 108
11, 532578, Note_on_c, 4, 45, 110
11, 532580, Note_on_c, 4, 57, 105
11, 532587, Note_on_c, 4, 53, 93
11, 532601, Note_on_c, 4, 53, 0
11, 532602, Note_on_c, 4, 45, 0
11, 532616, Note_on_c, 4, 57, 0
11, 532620, Note_on_c, 4, 53, 110
11, 532622, Note_on_c, 4, 45, 99
11, 532623, Note_on_c, 4, 66, 0
11, 532635, Note_on_c, 4, 57, 94
11, 532642, Note_on_c, 4, 66, 95
11, 532680, Note_on_c, 4, 53, 0
11, 532682, Note_on_c, 4, 45, 0
11, 532695, Note_on_c, 4, 57, 0
11, 532702, Note_on_c, 4, 66, 0
11, 532800, Note_on_c, 4, 45, 105
11, 532802, Note_on_c, 4, 53, 94
11, 532812, Note_on_c, 4, 66, 97
11, 532814, Note_on_c, 4, 57, 97
11, 532850, Note_on_c, 4, 66, 0
11, 532860, Note_on_c, 4, 45, 0
11, 532862, Note_on_c, 4, 53, 0
11, 532864, Note_on_c, 4, 57, 0
11, 532869, Note_on_c, 4, 53, 99
11, 532870, Note_on_c, 4, 66, 93
11, 532883, Note_on_c, 4, 57, 103
11, 532888, Note_on_c, 4, 45, 108
11, 532929, Note_on_c, 4, 53, 0
11, 532930, Note_on_c, 4, 66, 0
11, 532943, Note_on_c, 4, 57, 0
11, 532948, Note_on_c, 4, 45, 0
11, 533054, Note_on_c, 4, 45, 105
11, 533056, Note_on_c, 4, 53, 96
11, 533065, Note_on_c, 4, 66, 106
11, 533065, Note_on_c, 4, 57, 103
11, 533080, Note_on_c, 4, 45, 0
11, 533097, Note_on_c, 4, 53, 0
11, 533097, Note_on_c, 4, 57, 0
11, 533100, Note_on_c, 4, 45, 104
11, 533109, Note_on_c, 4, 66, 0
11, 533116, Note_on_c, 4, 53, 109
11, 533116, Note_on_c, 4, 57, 96
11, 533128, Note_on_c, 4, 66, 97
11, 533160, Note_on_c, 4, 45, 0
11, 533176, Note_on_c, 4, 53, 0
11, 533176, Note_on_c, 4, 57, 0
11, 533188, Note_on_c, 4, 66, 0
11, 533280, Note_on_c, 4, 66, 111
11, 533286, Note_on_c, 4, 57, 101
11, 533296, Note_on_c, 4, 53, 101
11, 533299, Note_on_c, 4, 45, 108
11, 533323, Note_on_c, 4, 66, 0
11, 533325, Note_on_c, 4, 45, 0
11, 533326, Note_on_c, 4, 53, 0
11, 533329, Note_on_c, 4, 57, 0
11, 533342, Note_on_c, 4, 66, 106
11, 533344, Note_on_c, 4, 45, 93
11, 533345, Note_on_c, 4, 53, 93
11, 533348, Note_on_c, 4, 57, 95
11, 533402, Note_on_c, 4, 66, 0
11, 533404, Note_on_c, 4, 45, 0
11, 533405, Note_on_c, 4, 53, 0
11, 533408, Note_on_c, 4, 57, 0
11, 533773, Note_on_c, 4, 66, 91
11, 533775, Note_on_c, 4, 57, 109
11, 533778, Note_on_c, 4, 45, 98
11, 533778, Note_on_c, 4, 53, 97
11, 533802, Note_on_c, 4, 66, 0
11, 533812, Note_on_c, 4, 45, 0
11, 533814, Note_on_c, 4, 53, 0
11, 533821, Note_on_c, 4, 66, 93
11, 533829, Note_on_c, 4, 57, 0
11, 533831, Note_on_c, 4, 45, 98
11, 533833, Note_on_c, 4, 53, 92
11, 533848, Note_on_c, 4, 57, 95
11, 533881, Note_on_c, 4, 66, 0
11, 533891, Note_on_c, 4, 45, 0
11, 533893, Note_on_c, 4, 53, 0
11, 533908, Note_on_c, 4, 57, 0
11, 534241, Note_on_c, 4, 66, 100
11, 534255, Note_on_c, 4, 45, 103
11, 534260, Note_on_c, 4, 57, 95
11, 534266, Note_on_c, 4, 53, 109
11, 534293, Note_on_c, 4, 45, 0
11, 534298, Note_on_c, 4, 66, 0
11, 534299, Note_on_c, 4, 53, 0
11, 534305, Note_on_c, 4, 57, 0
11, 534312, Note_on_c, 4, 45, 94
11, 534317, Note_on_c, 4, 66, 111
11, 534319, Note_on_c, 4, 53, 111
11, 534324, Note_on_c, 4, 57, 105
11, 534372, Note_on_c, 4, 45, 0
11, 534377, Note_on_c, 4, 66, 0
11, 534379, Note_on_c, 4, 53, 0
11, 534384, Note_on_c, 4, 57, 0
11, 534498, Note_on_c, 4, 65, 95
11, 534499, Note_on_c, 4, 56, 111
11, 534507, Note_on_c, 4, 47, 109
11, 534524, Note_on_c, 4, 47, 0
11, 534529, Note_on_c, 4, 56, 0
11, 534541, Note_on_c, 4, 65, 0
11, 534543, Note_on_c, 4, 47, 94
11, 534548, Note_on_c, 4, 56, 106
11, 534561, Note_on_c, 4, 65, 110
11, 534603, Note_on_c, 4, 47, 0
11, 534608, Note_on_c, 4, 56, 0
11, 534621, Note_on_c, 4, 65, 0
11, 534723, Note_on_c, 4, 57, 91
11, 534724, Note_on_c, 4, 53, 101
11, 534725, Note_on_c, 4, 45, 96
11, 534738, Note_on_c, 4, 66, 95
11, 534767, Note_on_c, 4, 57, 0
11, 534768, Note_on_c, 4, 45, 0
11, 534770, Note_on_c, 4, 66, 0
11, 534777, Note_on_c, 4, 53, 0
11, 534786, Note_on_c, 4, 57, 91
11, 534787, Note_on_c, 4, 45, 101
11, 534790, Note_on_c, 4, 66, 91
11, 534797, Note_on_c, 4, 53, 92
11, 534846, Note_on_c, 4, 57, 0
11, 534847, Note_on_c, 4, 45, 0
11, 534850, Note_on_c, 4, 66, 0
11, 534857, Note_on_c, 4, 53, 0
11, 535215, Note_on_c, 4, 45, 95
11, 535222, Note_on_c, 4, 57, 99
11, 535226, Note_on_c, 4, 66, 106
11, 535226, Note_on_c, 4, 53, 94
11, 535246, Note_on_c, 4, 53, 0
11, 535252, Note_on_c, 4, 45, 0
11, 535253, Note_on_c, 4, 66, 0
11, 535265, Note_on_c, 4, 57, 0
11, 535265, Note_on_c, 4, 53, 99
11, 535271, Note_on_c, 4, 45, 102
11, 535272, Note_on_c, 4, 66, 103
11, 535285, Note_on_c, 4, 57, 110
11, 535325, Note_on_c, 4, 53, 0
11, 535331, Note_on_c, 4, 45, 0
11, 535332, Note_on_c, 4, 66, 0
11, 535345, Note_on_c, 4, 57, 0
11, 535683, Note_on_c, 4, 57, 99
11, 535706, Note_on_c, 4, 53, 97
11, 535707, Note_on_c, 4, 66, 103
11, 535707, Note_on_c, 4, 45, 91
11, 535721, Note_on_c, 4, 53, 0
11, 535732, Note_on_c, 4, 57, 0
11, 535735, Note_on_c, 4, 66, 0
11, 535739, Note_on_c, 4, 45, 0
11, 535740, Note_on_c, 4, 53, 98
11, 535751, Note_on_c, 4, 57, 109
11, 535754, Note_on_c, 4, 66, 110
11, 535758, Note_on_c, 4, 45, 95
11, 535800, Note_on_c, 4, 53, 0
11, 535811, Note_on_c, 4, 57, 0
11, 535814, Note_on_c, 4, 66, 0
11, 535818, Note_on_c, 4, 45, 0
11, 537606, Note_on_c, 4, 43, 39
11, 537606, Note_on_c, 4, 36, 38
11, 537653, Note_on_c, 4, 43, 0
11, 537653, Note_on_c, 4, 36, 0
11, 537844, Note_on_c, 4, 43, 48
11, 537845, Note_on_c, 4, 36, 45
11, 537891, Note_on_c, 4, 43, 0
11, 537892, Note_on_c, 4, 36, 0
11, 538564, Note_on_c, 4, 36, 44
11, 538581, Note_on_c, 4, 43, 47
11, 538611, Note_on_c, 4, 36, 0
11, 538628, Note_on_c, 4, 43, 0
11, 539048, Note_on_c, 4, 36, 50
11, 539059, Note_on_c, 4, 43, 41
11, 539095, Note_on_c, 4, 36, 0
11, 539106, Note_on_c, 4, 43, 0
11, 539281, Note_on_c, 4, 43, 50
11, 539307, Note_on_c, 4, 36, 50
11, 539328, Note_on_c, 4, 43, 0
11, 539354, Note_on_c, 4, 36, 0
11, 539520, Note_on_c, 4, 43, 32
11, 539538, Note_on_c, 4, 36, 46
11, 539567, Note_on_c, 4, 43, 0
11, 539585, Note_on_c, 4, 36, 0
11, 540006, Note_on_c, 4, 36, 50
11, 540028, Note_on_c, 4, 43, 33
11, 540053, Note_on_c, 4, 36, 0
11, 540075, Note_on_c, 4, 43, 0
11, 540242, Note_on_c, 4, 43, 38
11, 540261, Note_on_c, 4, 36, 38
11, 540289, Note_on_c, 4, 43, 0
11, 540308, Note_on_c, 4, 36, 0
11, 540733, Note_on_c, 4, 43, 32
11, 540737, Note_on_c, 4, 36, 50
11, 540780, Note_on_c, 4, 43, 0
11, 540784, Note_on_c, 4, 36, 0
11, 541208, Note_on_c, 4, 36, 30
11, 541217, Note_on_c, 4, 43, 34
11, 541255, Note_on_c, 4, 36, 0
11, 541264, Note_on_c, 4, 43, 0
11, 541680, Note_on_c, 4, 43, 47
11, 541696, Note_on_c, 4, 36, 34
11, 541727, Note_on_c, 4, 43, 0
11, 541743, Note_on_c, 4, 36, 0
11, 542177, Note_on_c, 4, 36, 41
11, 542184, Note_on_c, 4, 43, 34
11, 542224, Note_on_c, 4, 36, 0
11, 542231, Note_on_c, 4, 43, 0
11, 542410, Note_on_c, 4, 43, 42
11, 542427, Note_on_c, 4, 36, 39
11, 542457, Note_on_c, 4, 43, 0
11, 542474, Note_on_c, 4, 36, 0
11, 542882, Note_on_c, 4, 43, 35
11, 542888, Note_on_c, 4, 36, 47
11, 542929, Note_on_c, 4, 43, 0
11, 542935, Note_on_c, 4, 36, 0
11, 543364, Note_on_c, 4, 36, 31
11, 543388, Note_on_c, 4, 43, 32
11, 543411, Note_on_c, 4, 36, 0
11, 543435, Note_on_c, 4, 43, 0
11, 543862, Note_on_c, 4, 43, 48
11, 543868, Note_on_c, 4, 36, 38
11, 543909, Note_on_c, 4, 43, 0
11, 543915, Note_on_c, 4, 36, 0
11, 544331, Note_on_c, 4, 36, 32
11, 544343, Note_on_c, 4, 43, 40
11, 544378, Note_on_c, 4, 36, 0
11, 544390, Note_on_c, 4, 43, 0
11, 544576, Note_on_c, 4, 43, 45
11, 544578, Note_on_c, 4, 36, 50
11, 544623, Note_on_c, 4, 43, 0
11, 544625, Note_on_c, 4, 36, 0
11, 544800, Note_on_c, 4, 36, 47
11, 544803, Note_on_c, 4, 43, 41
11, 544847, Note_on_c, 4, 36, 0
11, 544850, Note_on_c, 4, 43, 0
11, 545293, Note_on_c, 4, 36, 35
11, 545295, Note_on_c, 4, 43, 43
11, 545340, Note_on_c, 4, 36, 0
11, 545342, Note_on_c, 4, 43, 0
11, 545521, Note_on_c, 4, 43, 37
11, 545525, Note_on_c, 4, 36, 34
11, 545568, Note_on_c, 4, 43, 0
11, 545572, Note_on_c, 4, 36, 0
11, 551404, Note_on_c, 4, 37, 115
11, 551457, Note_on_c, 4, 37, 0
11, 552842, Note_on_c, 4, 37, 107
11, 552895, Note_on_c, 4, 37, 0
11, 554288, Note_on_c, 4, 37, 115
11, 554408, Note_on_c, 4, 37, 0
11, 554668, Note_on_c, 4, 37, 110
11, 554788, Note_on_c, 4, 37, 0
11, 555626, Note_on_c, 4, 37, 120
11, 555746, Note_on_c, 4, 37, 0
11, 556095, Note_on_c, 4, 37, 106
11, 556215, Note_on_c, 4, 37, 0
11, 558126, Note_on_c, 4, 37, 104
11, 558246, Note_on_c, 4, 37, 0
11, 558614, Note_on_c, 4, 37, 101
11, 558734, Note_on_c, 4, 37, 0
11, 559813, Note_on_c, 4, 37, 118
11, 559956, Note_on_c, 4, 37, 0
11, 560046, Note_on_c, 4, 40, 111
11, 560189, Note_on_c, 4, 40, 0
11, 560281, Note_on_c, 4, 36, 100
11, 560328, Note_on_c, 4, 36, 0
11, 560403, Note_on_c, 4, 40, 100
11, 560546, Note_on_c, 4, 40, 0
11, 560888, Note_on_c, 4, 37, 103
11, 561031, Note_on_c, 4, 37, 0
11, 561140, Note_on_c, 4, 40, 101
11, 561283, Note_on_c, 4, 40, 0
11, 561611, Note_on_c, 4, 37, 105
11, 561718, Note_on_c, 4, 37, 0
11, 561961, Note_on_c, 4, 37, 107
11, 562104, Note_on_c, 4, 37, 0
11, 562218, Note_on_c, 4, 40, 102
11, 562361, Note_on_c, 4, 40, 0
11, 562452, Note_on_c, 4, 36, 114
11, 562499, Note_on_c, 4, 36, 0
11, 562562, Note_on_c, 4, 40, 108
11, 562705, Note_on_c, 4, 40, 0
11, 563048, Note_on_c, 4, 37, 102
11, 563155, Note_on_c, 4, 37, 0
11, 563665, Note_on_c, 4, 37, 112
11, 563772, Note_on_c, 4, 37, 0
11, 605169, Note_on_c, 4, 62, 108
11, 605409, Note_on_c, 4, 62, 0
11, 606135, Note_on_c, 4, 62, 107
11, 606375, Note_on_c, 4, 62, 0
11, 607095, Note_on_c, 4, 62, 91
11, 607335, Note_on_c, 4, 62, 0
11, 608060, Note_on_c, 4, 62, 103
11, 608300, Note_on_c, 4, 62, 0
11, 609019, Note_on_c, 4, 60, 93
11, 609139, Note_on_c, 4, 60, 0
11, 609253, Note_on_c, 4, 58, 96
11, 609373, Note_on_c, 4, 58, 0
11, 609482, Note_on_c, 4, 56, 99
11, 609602, Note_on_c, 4, 56, 0
11, 609733, Note_on_c, 4, 60, 95
11, 609853, Note_on_c, 4, 60, 0
11, 609987, Note_on_c, 4, 62, 94
11, 610107, Note_on_c, 4, 62, 0
11, 610929, Note_on_c, 4, 62, 109
11, 611169, Note_on_c, 4, 62, 0
11, 611881, Note_on_c, 4, 60, 98
11, 612001, Note_on_c, 4, 60, 0
11, 612138, Note_on_c, 4, 58, 101
11, 612258, Note_on_c, 4, 58, 0
11, 612384, Note_on_c, 4, 56, 111
11, 612504, Note_on_c, 4, 56, 0
11, 612609, Note_on_c, 4, 60, 98
11, 612729, Note_on_c, 4, 60, 0
11, 612860, Note_on_c, 4, 62, 105
11, 612980, Note_on_c, 4, 62, 0
11, 613823, Note_on_c, 4, 62, 95
11, 614063, Note_on_c, 4, 62, 0
11, 614297, Note_on_c, 4, 60, 107
11, 614417, Note_on_c, 4, 60, 0
11, 614545, Note_on_c, 4, 58, 92
11, 614665, Note_on_c, 4, 58, 0
11, 614787, Note_on_c, 4, 56, 96
11, 614907, Note_on_c, 4, 56, 0
11, 615007, Note_on_c, 4, 60, 96
11, 615127, Note_on_c, 4, 60, 0
11, 615240, Note_on_c, 4, 62, 94
11, 615360, Note_on_c, 4, 62, 0
11, 615746, Note_on_c, 4, 62, 99
11, 615866, Note_on_c, 4, 62, 0
11, 616684, Note_on_c, 4, 67, 111
11, 616804, Note_on_c, 4, 67, 0
11, 616941, Note_on_c, 4, 65, 108
11, 617061, Note_on_c, 4, 65, 0
11, 617180, Note_on_c, 4, 64, 110
11, 617420, Note_on_c, 4, 64, 0
11, 617666, Note_on_c, 4, 66, 93
11, 617906, Note_on_c, 4, 66, 0
11, 618127, Note_on_c, 4, 67, 114
11, 618367, Note_on_c, 4, 67, 0
11, 618618, Note_on_c, 4, 67, 108
11, 618858, Note_on_c, 4, 67, 0
11, 619102, Note_on_c, 4, 67, 123
11, 619342, Note_on_c, 4, 67, 0
11, 619564, Note_on_c, 4, 65, 117
11, 619684, Note_on_c, 4, 65, 0
11, 619800, Note_on_c, 4, 63, 123
11, 619920, Note_on_c, 4, 63, 0
11, 620044, Note_on_c, 4, 61, 105
11, 620164, Note_on_c, 4, 61, 0
11, 620301, Note_on_c, 4, 65, 122
11, 620421, Note_on_c, 4, 65, 0
11, 620545, Note_on_c, 4, 67, 106
11, 620785, Note_on_c, 4, 67, 0
11, 621020, Note_on_c, 4, 67, 118
11, 621260, Note_on_c, 4, 67, 0
11, 621504, Note_on_c, 4, 67, 121
11, 621744, Note_on_c, 4, 67, 0
11, 621972, Note_on_c, 4, 67, 109
11, 622212, Note_on_c, 4, 67, 0
11, 622465, Note_on_c, 4, 65, 123
11, 622585, Note_on_c, 4, 65, 0
11, 622684, Note_on_c, 4, 63, 105
11, 622804, Note_on_c, 4, 63, 0
11, 622923, Note_on_c, 4, 61, 118
11, 623043, Note_on_c, 4, 61, 0
11, 623187, Note_on_c, 4, 65, 121
11, 623307, Note_on_c, 4, 65, 0
11, 623400, Note_on_c, 4, 67, 113
11, 623640, Note_on_c, 4, 67, 0
11, 623896, Note_on_c, 4, 67, 118
11, 624136, Note_on_c, 4, 67, 0
11, 624362, Note_on_c, 4, 65, 105
11, 624482, Note_on_c, 4, 65, 0
11, 624600, Note_on_c, 4, 63, 110
11, 624720, Note_on_c, 4, 63, 0
11, 624859, Note_on_c, 4, 61, 106
11, 624979, Note_on_c, 4, 61, 0
11, 625090, Note_on_c, 4, 65, 117
11, 625210, Note_on_c, 4, 65, 0
11, 625331, Note_on_c, 4, 67, 121
11, 625571, Note_on_c, 4, 67, 0
11, 625800, Note_on_c, 4, 67, 116
11, 626040, Note_on_c, 4, 67, 0
11, 626286, Note_on_c, 4, 67, 118
11, 626526, Note_on_c, 4, 67, 0
11, 627746, Note_on_c, 4, 45, 117
11, 627853, Note_on_c, 4, 44, 113
11, 627854, Note_on_c, 4, 49, 112
11, 627858, Note_on_c, 4, 46, 121
11, 627866, Note_on_c, 4, 45, 0
11, 627973, Note_on_c, 4, 44, 0
11, 627974, Note_on_c, 4, 49, 0
11, 627978, Note_on_c, 4, 46, 0
11, 628090, Note_on_c, 4, 46, 117
11, 628100, Note_on_c, 4, 49, 121
11, 628109, Note_on_c, 4, 44, 111
11, 628210, Note_on_c, 4, 46, 0
11, 628220, Note_on_c, 4, 49, 0
11, 628229, Note_on_c, 4, 44, 0
11, 628922, Note_on_c, 4, 44, 107
11, 628925, Note_on_c, 4, 49, 110
11, 628948, Note_on_c, 4, 46, 123
11, 629042, Note_on_c, 4, 44, 0
11, 629045, Note_on_c, 4, 49, 0
11, 629068, Note_on_c, 4, 46, 0
11, 629646, Note_on_c, 4, 49, 120
11, 629648, Note_on_c, 4, 46, 118
11, 629657, Note_on_c, 4, 44, 105
11, 629766, Note_on_c, 4, 49, 0
11, 629768, Note_on_c, 4, 46, 0
11, 629777, Note_on_c, 4, 44, 0
11, 629886, Note_on_c, 4, 49, 110
11, 629905, Note_on_c, 4, 46, 123
11, 629906, Note_on_c, 4, 44, 120
11, 630006, Note_on_c, 4, 49, 0
11, 630025, Note_on_c, 4, 46, 0
11, 630026, Note_on_c, 4, 44, 0
11, 630724, Note_on_c, 4, 49, 115
11, 630725, Note_on_c, 4, 44, 117
11, 630729, Note_on_c, 4, 46, 105
11, 630844, Note_on_c, 4, 49, 0
11, 630845, Note_on_c, 4, 44, 0
11, 630849, Note_on_c, 4, 46, 0
11, 630974, Note_on_c, 4, 44, 108
11, 630974, Note_on_c, 4, 46, 104
11, 630987, Note_on_c, 4, 49, 111
11, 631094, Note_on_c, 4, 44, 0
11, 631094, Note_on_c, 4, 46, 0
11, 631107, Note_on_c, 4, 49, 0
11, 631801, Note_on_c, 4, 44, 106
11, 631801, Note_on_c, 4, 46, 121
11, 631819, Note_on_c, 4, 49, 105
11, 631921, Note_on_c, 4, 44, 0
11, 631921, Note_on_c, 4, 46, 0
11, 631939, Note_on_c, 4, 49, 0
11, 632520, Note_on_c, 4, 49, 118
11, 632524, Note_on_c, 4, 46, 107
11, 632530, Note_on_c, 4, 44, 123
11, 632640, Note_on_c, 4, 49, 0
11, 632644, Note_on_c, 4, 46, 0
11, 632650, Note_on_c, 4, 44, 0
11, 632762, Note_on_c, 4, 46, 105
11, 632768, Note_on_c, 4, 49, 118
11, 632787, Note_on_c, 4, 44, 110
11, 632882, Note_on_c, 4, 46, 0
11, 632888, Note_on_c, 4, 49, 0
11, 632907, Note_on_c, 4, 44, 0
11, 636608, Note_on_c, 4, 65, 82
11, 636618, Note_on_c, 4, 62, 81
11, 636619, Note_on_c, 4, 59, 90
11, 636661, Note_on_c, 4, 65, 0
11, 636671, Note_on_c, 4, 62, 0
11, 636672, Note_on_c, 4, 59, 0
11, 636723, Note_on_c, 4, 63, 90
11, 636724, Note_on_c, 4, 60, 92
11, 636726, Note_on_c, 4, 66, 81
11, 636776, Note_on_c, 4, 63, 0
11, 636777, Note_on_c, 4, 60, 0
11, 636779, Note_on_c, 4, 66, 0
11, 636843, Note_on_c, 4, 64, 97
11, 636854, Note_on_c, 4, 67, 94
11, 636868, Note_on_c, 4, 61, 97
11, 636896, Note_on_c, 4, 64, 0
11, 636907, Note_on_c, 4, 67, 0
11, 636921, Note_on_c, 4, 61, 0
11, 637685, Note_on_c, 4, 65, 89
11, 637694, Note_on_c, 4, 59, 97
11, 637703, Note_on_c, 4, 62, 84
11, 637738, Note_on_c, 4, 65, 0
11, 637747, Note_on_c, 4, 59, 0
11, 637756, Note_on_c, 4, 62, 0
11, 637802, Note_on_c, 4, 60, 86
11, 637802, Note_on_c, 4, 63, 78
11, 637825, Note_on_c, 4, 66, 87
11, 637855, Note_on_c, 4, 60, 0
11, 637855, Note_on_c, 4, 63, 0
11, 637878, Note_on_c, 4, 66, 0
11, 637920, Note_on_c, 4, 67, 84
11, 637925, Note_on_c, 4, 64, 91
11, 637938, Note_on_c, 4, 61, 87
11, 637973, Note_on_c, 4, 67, 0
11, 637978, Note_on_c, 4, 64, 0
11, 637991, Note_on_c, 4, 61, 0
11, 638765, Note_on_c, 4, 65, 85
11, 638772, Note_on_c, 4, 59, 91
11, 638781, Note_on_c, 4, 62, 89
11, 638818, Note_on_c, 4, 65, 0
11, 638825, Note_on_c, 4, 59, 0
11, 638834, Note_on_c, 4, 62, 0
11, 638881, Note_on_c, 4, 60, 91
11, 638893, Note_on_c, 4, 63, 91
11, 638904, Note_on_c, 4, 66, 84
11, 638934, Note_on_c, 4, 60, 0
11, 638946, Note_on_c, 4, 63, 0
11, 638957, Note_on_c, 4, 66, 0
11, 639020, Note_on_c, 4, 64, 85
11, 639021, Note_on_c, 4, 61, 98
11, 639021, Note_on_c, 4, 67, 86
11, 639073, Note_on_c, 4, 64, 0
11, 639074, Note_on_c, 4, 61, 0
11, 639074, Note_on_c, 4, 67, 0
11, 639484, Note_on_c, 4, 65, 90
11, 639496, Note_on_c, 4, 59, 84
11, 639506, Note_on_c, 4, 62, 83
11, 639537, Note_on_c, 4, 65, 0
11, 639549, Note_on_c, 4, 59, 0
11, 639559, Note_on_c, 4, 62, 0
11, 639606, Note_on_c, 4, 60, 94
11, 639620, Note_on_c, 4, 66, 87
11, 639622, Note_on_c, 4, 63, 81
11, 639659, Note_on_c, 4, 60, 0
11, 639673, Note_on_c, 4, 66, 0
11, 639675, Note_on_c, 4, 63, 0
11, 639737, Note_on_c, 4, 61, 80
11, 639738, Note_on_c, 4, 64, 84
11, 639748, Note_on_c, 4, 67, 79
11, 639790, Note_on_c, 4, 61, 0
11, 639791, Note_on_c, 4, 64, 0
11, 639801, Note_on_c, 4, 67, 0
11, 639857, Note_on_c, 4, 45, 99
11, 639917, Note_on_c, 4, 45, 0
11, 640339, Note_on_c, 4, 52, 71
11, 640345, Note_on_c, 4, 42, 77
11, 640399, Note_on_c, 4, 52, 0
11, 640405, Note_on_c, 4, 42, 0
11, 641059, Note_on_c, 4, 45, 99
11, 641119, Note_on_c, 4, 45, 0
11, 641652, Note_on_c, 4, 42, 75
11, 641655, Note_on_c, 4, 52, 68
11, 641712, Note_on_c, 4, 42, 0
11, 641715, Note_on_c, 4, 52, 0
11, 647059, Note_on_c, 4, 42, 77
11, 647060, Note_on_c, 4, 52, 73
11, 647119, Note_on_c, 4, 42, 0
11, 647120, Note_on_c, 4, 52, 0
11, 647181, Note_on_c, 4, 45, 111
11, 647196, Note_on_c, 4, 45, 0
11, 647766, Note_on_c, 4, 42, 75
11, 647784, Note_on_c, 4, 52, 80
11, 647826, Note_on_c, 4, 42, 0
11, 647844, Note_on_c, 4, 52, 0
11, 647898, Note_on_c, 4, 45, 96
11, 647913, Note_on_c, 4, 45, 0
11, 648618, Note_on_c, 4, 42, 72
11, 648626, Note_on_c, 4, 52, 80
11, 648678, Note_on_c, 4, 42, 0
11, 648686, Note_on_c, 4, 52, 0
11, 648739, Note_on_c, 4, 45, 81
11, 648786, Note_on_c, 4, 45, 0
11, 648964, Note_on_c, 4, 48, 87
11, 649011, Note_on_c, 4, 48, 0
11, 649212, Note_on_c, 4, 45, 88
11, 649259, Note_on_c, 4, 45, 0
11, 649467, Note_on_c, 4, 45, 83
11, 649514, Note_on_c, 4, 45, 0
11, 649563, Note_on_c, 4, 42, 84
11, 649584, Note_on_c, 4, 52, 66
11, 649623, Note_on_c, 4, 42, 0
11, 649644, Note_on_c, 4, 52, 0
11, 649700, Note_on_c, 4, 45, 105
11, 649747, Note_on_c, 4, 45, 0
11, 650183, Note_on_c, 4, 42, 81
11, 650187, Note_on_c, 4, 52, 72
11, 650243, Note_on_c, 4, 42, 0
11, 650247, Note_on_c, 4, 52, 0
11, 650290, Note_on_c, 4, 45, 90
11, 650337, Note_on_c, 4, 45, 0
11, 650535, Note_on_c, 4, 48, 94
11, 650582, Note_on_c, 4, 48, 0
11, 650788, Note_on_c, 4, 45, 85
11, 650835, Note_on_c, 4, 45, 0
11, 651026, Note_on_c, 4, 48, 82
11, 651073, Note_on_c, 4, 48, 0
11, 651134, Note_on_c, 4, 52, 76
11, 651143, Note_on_c, 4, 42, 68
11, 651194, Note_on_c, 4, 52, 0
11, 651203, Note_on_c, 4, 42, 0
11, 651255, Note_on_c, 4, 45, 79
11, 651302, Note_on_c, 4, 45, 0
11, 651504, Note_on_c, 4, 48, 81
11, 651624, Note_on_c, 4, 48, 0
11, 651728, Note_on_c, 4, 45, 83
11, 651775, Note_on_c, 4, 45, 0
11, 651985, Note_on_c, 4, 48, 95
11, 652032, Note_on_c, 4, 48, 0
11, 652204, Note_on_c, 4, 45, 78
11, 652251, Note_on_c, 4, 45, 0
11, 652441, Note_on_c, 4, 48, 89
11, 652488, Note_on_c, 4, 48, 0
11, 652696, Note_on_c, 4, 45, 80
11, 652743, Note_on_c, 4, 45, 0
11, 652808, Note_on_c, 4, 52, 71
11, 652809, Note_on_c, 4, 42, 69
11, 652868, Note_on_c, 4, 52, 0
11, 652869, Note_on_c, 4, 42, 0
11, 652934, Note_on_c, 4, 48, 95
11, 652981, Note_on_c, 4, 48, 0
11, 653180, Note_on_c, 4, 45, 98
11, 653227, Note_on_c, 4, 45, 0
11, 653400, Note_on_c, 4, 48, 94
11, 653447, Note_on_c, 4, 48, 0
11, 653659, Note_on_c, 4, 48, 78
11, 653706, Note_on_c, 4, 48, 0
11, 653907, Note_on_c, 4, 45, 87
11, 653954, Note_on_c, 4, 45, 0
11, 654125, Note_on_c, 4, 48, 80
11, 654172, Note_on_c, 4, 48, 0
11, 654360, Note_on_c, 4, 45, 84
11, 654407, Note_on_c, 4, 45, 0
11, 654488, Note_on_c, 4, 52, 80
11, 654499, Note_on_c, 4, 42, 65
11, 654548, Note_on_c, 4, 52, 0
11, 654559, Note_on_c, 4, 42, 0
11, 654606, Note_on_c, 4, 48, 89
11, 654653, Note_on_c, 4, 48, 0
11, 654653, End_track
12, 0, Start_track
12, 0, Title_t, "Controfagotti"
12, 0, MIDI_port, 0
12, 0, Program_c, 4, 70
12, 10577, Note_on_c, 4, 26, 80
12, 14897, Note_on_c, 4, 26, 0
12, 15370, Note_on_c, 4, 26, 78
12, 17050, Note_on_c, 4, 26, 0
12, 19687, Note_on_c, 4, 26, 73
12, 21367, Note_on_c, 4, 26, 0
12, 216028, Note_on_c, 4, 33, 108
12, 216135, Note_on_c, 4, 33, 0
12, 217221, Note_on_c, 4, 33, 116
12, 217328, Note_on_c, 4, 33, 0
12, 220561, Note_on_c, 4, 33, 118
12, 220668, Note_on_c, 4, 33, 0
12, 221774, Note_on_c, 4, 33, 120
12, 221881, Note_on_c, 4, 33, 0
12, 222244, Note_on_c, 4, 33, 108
12, 222351, Note_on_c, 4, 33, 0
12, 223454, Note_on_c, 4, 33, 109
12, 223561, Note_on_c, 4, 33, 0
12, 233282, Note_on_c, 4, 33, 108
12, 233389, Note_on_c, 4, 33, 0
12, 239777, Note_on_c, 4, 33, 120
12, 239884, Note_on_c, 4, 33, 0
12, 243129, Note_on_c, 4, 33, 108
12, 243236, Note_on_c, 4, 33, 0
12, 244343, Note_on_c, 4, 33, 113
12, 244450, Note_on_c, 4, 33, 0
12, 245542, Note_on_c, 4, 33, 105
12, 245649, Note_on_c, 4, 33, 0
12, 246002, Note_on_c, 4, 33, 121
12, 246109, Note_on_c, 4, 33, 0
12, 247210, Note_on_c, 4, 33, 104
12, 247317, Note_on_c, 4, 33, 0
12, 257050, Note_on_c, 4, 30, 68
12, 257157, Note_on_c, 4, 30, 0
12, 257538, Note_on_c, 4, 42, 73
12, 257645, Note_on_c, 4, 42, 0
12, 258015, Note_on_c, 4, 30, 77
12, 258122, Note_on_c, 4, 30, 0
12, 258508, Note_on_c, 4, 42, 81
12, 258615, Note_on_c, 4, 42, 0
12, 258985, Note_on_c, 4, 30, 70
12, 259092, Note_on_c, 4, 30, 0
12, 264731, Note_on_c, 4, 30, 45
12, 264971, Note_on_c, 4, 30, 0
12, 265214, Note_on_c, 4, 42, 44
12, 265454, Note_on_c, 4, 42, 0
12, 265694, Note_on_c, 4, 30, 45
12, 265934, Note_on_c, 4, 30, 0
12, 266161, Note_on_c, 4, 42, 56
12, 266401, Note_on_c, 4, 42, 0
12, 266652, Note_on_c, 4, 30, 46
12, 266892, Note_on_c, 4, 30, 0
12, 267148, Note_on_c, 4, 42, 57
12, 267388, Note_on_c, 4, 42, 0
12, 267604, Note_on_c, 4, 30, 57
12, 267844, Note_on_c, 4, 30, 0
12, 268083, Note_on_c, 4, 42, 52
12, 268323, Note_on_c, 4, 42, 0
12, 268588, Note_on_c, 4, 30, 46
12, 268828, Note_on_c, 4, 30, 0
12, 269057, Note_on_c, 4, 42, 41
12, 269297, Note_on_c, 4, 42, 0
12, 269528, Note_on_c, 4, 30, 56
12, 269768, Note_on_c, 4, 30, 0
12, 270016, Note_on_c, 4, 42, 58
12, 270256, Note_on_c, 4, 42, 0
12, 270483, Note_on_c, 4, 30, 56
12, 270723, Note_on_c, 4, 30, 0
12, 270985, Note_on_c, 4, 42, 48
12, 271225, Note_on_c, 4, 42, 0
12, 271451, Note_on_c, 4, 30, 51
12, 271691, Note_on_c, 4, 30, 0
12, 271926, Note_on_c, 4, 42, 55
12, 272166, Note_on_c, 4, 42, 0
12, 272412, Note_on_c, 4, 30, 51
12, 272652, Note_on_c, 4, 30, 0
12, 272893, Note_on_c, 4, 42, 57
12, 273133, Note_on_c, 4, 42, 0
12, 273378, Note_on_c, 4, 30, 46
12, 273618, Note_on_c, 4, 30, 0
12, 273858, Note_on_c, 4, 42, 42
12, 274098, Note_on_c, 4, 42, 0
12, 274326, Note_on_c, 4, 30, 51
12, 274566, Note_on_c, 4, 30, 0
12, 274822, Note_on_c, 4, 42, 53
12, 275062, Note_on_c, 4, 42, 0
12, 275309, Note_on_c, 4, 30, 41
12, 275549, Note_on_c, 4, 30, 0
12, 275773, Note_on_c, 4, 42, 54
12, 276013, Note_on_c, 4, 42, 0
12, 276240, Note_on_c, 4, 30, 50
12, 276480, Note_on_c, 4, 30, 0
12, 276740, Note_on_c, 4, 42, 52
12, 276980, Note_on_c, 4, 42, 0
12, 277218, Note_on_c, 4, 30, 46
12, 277458, Note_on_c, 4, 30, 0
12, 277691, Note_on_c, 4, 30, 46
12, 277931, Note_on_c, 4, 30, 0
12, 278168, Note_on_c, 4, 42, 57
12, 278408, Note_on_c, 4, 42, 0
12, 278651, Note_on_c, 4, 30, 49
12, 278891, Note_on_c, 4, 30, 0
12, 279125, Note_on_c, 4, 42, 59
12, 279365, Note_on_c, 4, 42, 0
12, 279626, Note_on_c, 4, 30, 47
12, 279866, Note_on_c, 4, 30, 0
12, 280086, Note_on_c, 4, 30, 43
12, 280326, Note_on_c, 4, 30, 0
12, 280562, Note_on_c, 4, 42, 42
12, 280802, Note_on_c, 4, 42, 0
12, 281041, Note_on_c, 4, 30, 47
12, 281281, Note_on_c, 4, 30, 0
12, 281525, Note_on_c, 4, 42, 48
12, 281765, Note_on_c, 4, 42, 0
12, 282007, Note_on_c, 4, 30, 46
12, 282247, Note_on_c, 4, 30, 0
12, 282488, Note_on_c, 4, 42, 59
12, 282728, Note_on_c, 4, 42, 0
12, 282979, Note_on_c, 4, 30, 42
12, 283219, Note_on_c, 4, 30, 0
12, 283443, Note_on_c, 4, 42, 58
12, 283683, Note_on_c, 4, 42, 0
12, 283935, Note_on_c, 4, 30, 42
12, 284175, Note_on_c, 4, 30, 0
12, 284411, Note_on_c, 4, 42, 43
12, 284651, Note_on_c, 4, 42, 0
12, 284897, Note_on_c, 4, 30, 57
12, 285137, Note_on_c, 4, 30, 0
12, 285380, Note_on_c, 4, 42, 55
12, 285620, Note_on_c, 4, 42, 0
12, 285846, Note_on_c, 4, 30, 43
12, 286086, Note_on_c, 4, 30, 0
12, 286326, Note_on_c, 4, 42, 45
12, 286566, Note_on_c, 4, 42, 0
12, 286822, Note_on_c, 4, 30, 51
12, 287062, Note_on_c, 4, 30, 0
12, 287283, Note_on_c, 4, 42, 48
12, 287523, Note_on_c, 4, 42, 0
12, 287786, Note_on_c, 4, 30, 47
12, 288026, Note_on_c, 4, 30, 0
12, 290649, Note_on_c, 4, 33, 113
12, 290756, Note_on_c, 4, 33, 0
12, 291864, Note_on_c, 4, 33, 104
12, 291971, Note_on_c, 4, 33, 0
12, 295219, Note_on_c, 4, 33, 108
12, 295326, Note_on_c, 4, 33, 0
12, 296400, Note_on_c, 4, 33, 117
12, 296507, Note_on_c, 4, 33, 0
12, 296908, Note_on_c, 4, 33, 108
12, 297015, Note_on_c, 4, 33, 0
12, 298108, Note_on_c, 4, 33, 113
12, 298215, Note_on_c, 4, 33, 0
12, 300738, Note_on_c, 4, 33, 116
12, 300845, Note_on_c, 4, 33, 0
12, 304080, Note_on_c, 4, 33, 113
12, 304187, Note_on_c, 4, 33, 0
12, 305293, Note_on_c, 4, 33, 114
12, 305400, Note_on_c, 4, 33, 0
12, 306504, Note_on_c, 4, 33, 104
12, 306611, Note_on_c, 4, 33, 0
12, 306986, Note_on_c, 4, 33, 104
12, 307093, Note_on_c, 4, 33, 0
12, 308186, Note_on_c, 4, 33, 122
12, 308293, Note_on_c, 4, 33, 0
12, 360725, Note_on_c, 4, 45, 54
12, 361445, Note_on_c, 4, 45, 0
12, 361705, Note_on_c, 4, 45, 51
12, 361945, Note_on_c, 4, 45, 0
12, 362172, Note_on_c, 4, 45, 50
12, 362412, Note_on_c, 4, 45, 0
12, 362650, Note_on_c, 4, 43, 41
12, 362890, Note_on_c, 4, 43, 0
12, 363135, Note_on_c, 4, 45, 46
12, 363375, Note_on_c, 4, 45, 0
12, 363622, Note_on_c, 4, 43, 56
12, 363862, Note_on_c, 4, 43, 0
12, 364086, Note_on_c, 4, 45, 41
12, 364806, Note_on_c, 4, 45, 0
12, 365042, Note_on_c, 4, 45, 41
12, 365282, Note_on_c, 4, 45, 0
12, 365535, Note_on_c, 4, 45, 54
12, 365775, Note_on_c, 4, 45, 0
12, 366025, Note_on_c, 4, 43, 52
12, 366265, Note_on_c, 4, 43, 0
12, 366493, Note_on_c, 4, 45, 49
12, 367213, Note_on_c, 4, 45, 0
12, 367457, Note_on_c, 4, 45, 43
12, 367697, Note_on_c, 4, 45, 0
12, 367947, Note_on_c, 4, 45, 46
12, 368187, Note_on_c, 4, 45, 0
12, 368417, Note_on_c, 4, 43, 42
12, 368657, Note_on_c, 4, 43, 0
12, 368894, Note_on_c, 4, 45, 41
12, 369134, Note_on_c, 4, 45, 0
12, 369375, Note_on_c, 4, 43, 59
12, 369615, Note_on_c, 4, 43, 0
12, 369864, Note_on_c, 4, 45, 50
12, 370104, Note_on_c, 4, 45, 0
12, 370326, Note_on_c, 4, 43, 42
12, 370566, Note_on_c, 4, 43, 0
12, 370824, Note_on_c, 4, 43, 54
12, 371064, Note_on_c, 4, 43, 0
12, 371280, Note_on_c, 4, 45, 59
12, 372000, Note_on_c, 4, 45, 0
12, 372264, Note_on_c, 4, 45, 45
12, 372504, Note_on_c, 4, 45, 0
12, 372720, Note_on_c, 4, 45, 54
12, 372960, Note_on_c, 4, 45, 0
12, 373220, Note_on_c, 4, 43, 47
12, 373460, Note_on_c, 4, 43, 0
12, 373686, Note_on_c, 4, 45, 43
12, 373926, Note_on_c, 4, 45, 0
12, 374163, Note_on_c, 4, 43, 46
12, 374403, Note_on_c, 4, 43, 0
12, 374644, Note_on_c, 4, 45, 40
12, 374884, Note_on_c, 4, 45, 0
12, 376095, Note_on_c, 4, 45, 55
12, 376815, Note_on_c, 4, 45, 0
12, 377056, Note_on_c, 4, 45, 50
12, 377296, Note_on_c, 4, 45, 0
12, 377524, Note_on_c, 4, 45, 48
12, 377764, Note_on_c, 4, 45, 0
12, 378016, Note_on_c, 4, 43, 43
12, 378256, Note_on_c, 4, 43, 0
12, 378500, Note_on_c, 4, 45, 58
12, 379220, Note_on_c, 4, 45, 0
12, 387385, Note_on_c, 4, 40, 48
12, 387435, Note_on_c, 4, 35, 56
12, 387445, Note_on_c, 4, 40, 0
12, 387495, Note_on_c, 4, 35, 0
12, 387509, Note_on_c, 4, 30, 57
12, 387565, Note_on_c, 4, 27, 44
12, 387569, Note_on_c, 4, 30, 0
12, 387621, Note_on_c, 4, 26, 42
12, 387625, Note_on_c, 4, 27, 0
12, 387741, Note_on_c, 4, 26, 0
12, 438022, Note_on_c, 4, 37, 98
12, 438262, Note_on_c, 4, 37, 0
12, 438489, Note_on_c, 4, 37, 106
12, 438729, Note_on_c, 4, 37, 0
12, 438985, Note_on_c, 4, 37, 92
12, 439225, Note_on_c, 4, 37, 0
12, 439468, Note_on_c, 4, 37, 96
12, 439708, Note_on_c, 4, 37, 0
12, 439942, Note_on_c, 4, 37, 91
12, 440182, Note_on_c, 4, 37, 0
12, 440421, Note_on_c, 4, 37, 94
12, 440661, Note_on_c, 4, 37, 0
12, 440894, Note_on_c, 4, 37, 92
12, 441134, Note_on_c, 4, 37, 0
12, 441371, Note_on_c, 4, 37, 95
12, 441611, Note_on_c, 4, 37, 0
12, 441850, Note_on_c, 4, 37, 98
12, 442090, Note_on_c, 4, 37, 0
12, 442347, Note_on_c, 4, 37, 109
12, 442587, Note_on_c, 4, 37, 0
12, 442803, Note_on_c, 4, 37, 103
12, 443043, Note_on_c, 4, 37, 0
12, 443308, Note_on_c, 4, 37, 105
12, 443548, Note_on_c, 4, 37, 0
12, 443782, Note_on_c, 4, 38, 110
12, 443878, Note_on_c, 4, 38, 0
12, 444011, Note_on_c, 4, 38, 110
12, 444107, Note_on_c, 4, 38, 0
12, 444241, Note_on_c, 4, 37, 97
12, 444721, Note_on_c, 4, 37, 0
12, 444724, Note_on_c, 4, 38, 52
12, 444964, Note_on_c, 4, 38, 0
12, 445203, Note_on_c, 4, 38, 44
12, 445299, Note_on_c, 4, 38, 0
12, 445448, Note_on_c, 4, 38, 54
12, 445544, Note_on_c, 4, 38, 0
12, 445686, Note_on_c, 4, 37, 92
12, 446166, Note_on_c, 4, 37, 0
12, 446176, Note_on_c, 4, 38, 40
12, 446416, Note_on_c, 4, 38, 0
12, 457688, Note_on_c, 4, 24, 92
12, 457928, Note_on_c, 4, 24, 0
12, 458185, Note_on_c, 4, 24, 97
12, 458425, Note_on_c, 4, 24, 0
12, 458664, Note_on_c, 4, 24, 83
12, 458904, Note_on_c, 4, 24, 0
12, 459141, Note_on_c, 4, 24, 95
12, 459381, Note_on_c, 4, 24, 0
12, 459615, Note_on_c, 4, 24, 79
12, 459855, Note_on_c, 4, 24, 0
12, 460109, Note_on_c, 4, 24, 94
12, 460349, Note_on_c, 4, 24, 0
12, 460567, Note_on_c, 4, 24, 81
12, 460807, Note_on_c, 4, 24, 0
12, 461056, Note_on_c, 4, 24, 81
12, 461296, Note_on_c, 4, 24, 0
12, 461526, Note_on_c, 4, 24, 97
12, 461766, Note_on_c, 4, 24, 0
12, 462028, Note_on_c, 4, 24, 80
12, 462268, Note_on_c, 4, 24, 0
12, 462486, Note_on_c, 4, 24, 88
12, 462726, Note_on_c, 4, 24, 0
12, 462974, Note_on_c, 4, 24, 83
12, 463214, Note_on_c, 4, 24, 0
12, 463466, Note_on_c, 4, 24, 98
12, 463706, Note_on_c, 4, 24, 0
12, 463934, Note_on_c, 4, 24, 89
12, 464174, Note_on_c, 4, 24, 0
12, 464408, Note_on_c, 4, 24, 81
12, 464648, Note_on_c, 4, 24, 0
12, 464909, Note_on_c, 4, 24, 92
12, 465149, Note_on_c, 4, 24, 0
12, 465385, Note_on_c, 4, 24, 83
12, 465625, Note_on_c, 4, 24, 0
12, 465866, Note_on_c, 4, 24, 93
12, 466106, Note_on_c, 4, 24, 0
12, 466330, Note_on_c, 4, 24, 96
12, 466570, Note_on_c, 4, 24, 0
12, 466829, Note_on_c, 4, 24, 84
12, 467069, Note_on_c, 4, 24, 0
12, 504250, Note_on_c, 4, 31, 46
12, 504297, Note_on_c, 4, 31, 0
12, 504482, Note_on_c, 4, 31, 32
12, 504529, Note_on_c, 4, 31, 0
12, 504977, Note_on_c, 4, 31, 42
12, 505024, Note_on_c, 4, 31, 0
12, 505442, Note_on_c, 4, 31, 45
12, 505489, Note_on_c, 4, 31, 0
12, 505704, Note_on_c, 4, 31, 33
12, 505751, Note_on_c, 4, 31, 0
12, 505949, Note_on_c, 4, 31, 33
12, 505996, Note_on_c, 4, 31, 0
12, 506402, Note_on_c, 4, 31, 43
12, 506449, Note_on_c, 4, 31, 0
12, 506899, Note_on_c, 4, 31, 47
12, 506946, Note_on_c, 4, 31, 0
12, 507372, Note_on_c, 4, 31, 39
12, 507419, Note_on_c, 4, 31, 0
12, 507611, Note_on_c, 4, 31, 32
12, 507658, Note_on_c, 4, 31, 0
12, 508087, Note_on_c, 4, 31, 30
12, 508134, Note_on_c, 4, 31, 0
12, 508337, Note_on_c, 4, 31, 40
12, 508384, Note_on_c, 4, 31, 0
12, 508583, Note_on_c, 4, 31, 39
12, 508630, Note_on_c, 4, 31, 0
12, 509047, Note_on_c, 4, 31, 40
12, 509094, Note_on_c, 4, 31, 0
12, 509533, Note_on_c, 4, 31, 40
12, 509580, Note_on_c, 4, 31, 0
12, 509776, Note_on_c, 4, 31, 46
12, 509823, Note_on_c, 4, 31, 0
12, 510266, Note_on_c, 4, 31, 31
12, 510313, Note_on_c, 4, 31, 0
12, 510737, Note_on_c, 4, 31, 43
12, 510784, Note_on_c, 4, 31, 0
12, 511204, Note_on_c, 4, 31, 41
12, 511251, Note_on_c, 4, 31, 0
12, 511695, Note_on_c, 4, 31, 35
12, 511742, Note_on_c, 4, 31, 0
12, 511942, Note_on_c, 4, 31, 48
12, 511989, Note_on_c, 4, 31, 0
12, 512414, Note_on_c, 4, 31, 48
12, 512461, Note_on_c, 4, 31, 0
12, 512880, Note_on_c, 4, 31, 46
12, 512927, Note_on_c, 4, 31, 0
12, 513388, Note_on_c, 4, 31, 33
12, 513435, Note_on_c, 4, 31, 0
12, 513867, Note_on_c, 4, 31, 37
12, 513914, Note_on_c, 4, 31, 0
12, 514092, Note_on_c, 4, 31, 33
12, 514139, Note_on_c, 4, 31, 0
12, 514324, Note_on_c, 4, 31, 34
12, 514371, Note_on_c, 4, 31, 0
12, 514821, Note_on_c, 4, 31, 34
12, 514868, Note_on_c, 4, 31, 0
12, 515286, Note_on_c, 4, 31, 39
12, 515333, Note_on_c, 4, 31, 0
12, 515520, Note_on_c, 4, 31, 39
12, 515567, Note_on_c, 4, 31, 0
12, 516012, Note_on_c, 4, 31, 40
12, 516059, Note_on_c, 4, 31, 0
12, 516262, Note_on_c, 4, 31, 40
12, 516309, Note_on_c, 4, 31, 0
12, 516740, Note_on_c, 4, 31, 50
12, 516787, Note_on_c, 4, 31, 0
12, 517210, Note_on_c, 4, 31, 43
12, 517257, Note_on_c, 4, 31, 0
12, 517468, Note_on_c, 4, 31, 47
12, 517515, Note_on_c, 4, 31, 0
12, 517680, Note_on_c, 4, 31, 44
12, 517727, Note_on_c, 4, 31, 0
12, 518180, Note_on_c, 4, 31, 35
12, 518227, Note_on_c, 4, 31, 0
12, 518659, Note_on_c, 4, 31, 48
12, 518706, Note_on_c, 4, 31, 0
12, 518893, Note_on_c, 4, 31, 37
12, 518940, Note_on_c, 4, 31, 0
12, 519368, Note_on_c, 4, 31, 30
12, 519415, Note_on_c, 4, 31, 0
12, 519855, Note_on_c, 4, 31, 50
12, 519902, Note_on_c, 4, 31, 0
12, 531372, Note_on_c, 4, 38, 103
12, 531414, Note_on_c, 4, 38, 0
12, 531433, Note_on_c, 4, 38, 97
12, 531493, Note_on_c, 4, 38, 0
12, 531615, Note_on_c, 4, 38, 108
12, 531649, Note_on_c, 4, 38, 0
12, 531668, Note_on_c, 4, 38, 107
12, 531728, Note_on_c, 4, 38, 0
12, 531854, Note_on_c, 4, 38, 92
12, 531881, Note_on_c, 4, 38, 0
12, 531901, Note_on_c, 4, 38, 91
12, 531961, Note_on_c, 4, 38, 0
12, 532333, Note_on_c, 4, 38, 92
12, 532373, Note_on_c, 4, 38, 0
12, 532393, Note_on_c, 4, 38, 96
12, 532453, Note_on_c, 4, 38, 0
12, 532577, Note_on_c, 4, 38, 98
12, 532610, Note_on_c, 4, 38, 0
12, 532630, Note_on_c, 4, 38, 108
12, 532690, Note_on_c, 4, 38, 0
12, 532806, Note_on_c, 4, 38, 101
12, 532847, Note_on_c, 4, 38, 0
12, 532867, Note_on_c, 4, 38, 101
12, 532927, Note_on_c, 4, 38, 0
12, 533065, Note_on_c, 4, 38, 110
12, 533096, Note_on_c, 4, 38, 0
12, 533116, Note_on_c, 4, 38, 96
12, 533176, Note_on_c, 4, 38, 0
12, 533293, Note_on_c, 4, 38, 95
12, 533340, Note_on_c, 4, 38, 0
12, 533359, Note_on_c, 4, 38, 103
12, 533419, Note_on_c, 4, 38, 0
12, 533786, Note_on_c, 4, 38, 109
12, 533816, Note_on_c, 4, 38, 0
12, 533835, Note_on_c, 4, 38, 107
12, 533895, Note_on_c, 4, 38, 0
12, 534262, Note_on_c, 4, 38, 102
12, 534300, Note_on_c, 4, 38, 0
12, 534319, Note_on_c, 4, 38, 101
12, 534379, Note_on_c, 4, 38, 0
12, 534497, Note_on_c, 4, 40, 100
12, 534547, Note_on_c, 4, 40, 0
12, 534566, Note_on_c, 4, 40, 105
12, 534626, Note_on_c, 4, 40, 0
12, 534728, Note_on_c, 4, 38, 100
12, 534783, Note_on_c, 4, 38, 0
12, 534803, Note_on_c, 4, 38, 101
12, 534863, Note_on_c, 4, 38, 0
12, 535227, Note_on_c, 4, 38, 91
12, 535260, Note_on_c, 4, 38, 0
12, 535279, Note_on_c, 4, 38, 95
12, 535339, Note_on_c, 4, 38, 0
12, 535704, Note_on_c, 4, 38, 103
12, 535725, Note_on_c, 4, 38, 0
12, 535745, Note_on_c, 4, 38, 105
12, 535805, Note_on_c, 4, 38, 0
12, 537608, Note_on_c, 4, 29, 42
12, 537655, Note_on_c, 4, 29, 0
12, 537861, Note_on_c, 4, 29, 35
12, 537908, Note_on_c, 4, 29, 0
12, 538579, Note_on_c, 4, 29, 46
12, 538626, Note_on_c, 4, 29, 0
12, 539041, Note_on_c, 4, 29, 43
12, 539088, Note_on_c, 4, 29, 0
12, 539290, Note_on_c, 4, 29, 50
12, 539337, Note_on_c, 4, 29, 0
12, 539531, Note_on_c, 4, 29, 46
12, 539578, Note_on_c, 4, 29, 0
12, 540014, Note_on_c, 4, 29, 48
12, 540061, Note_on_c, 4, 29, 0
12, 540266, Note_on_c, 4, 29, 44
12, 540313, Note_on_c, 4, 29, 0
12, 540721, Note_on_c, 4, 29, 37
12, 540768, Note_on_c, 4, 29, 0
12, 541207, Note_on_c, 4, 29, 40
12, 541254, Note_on_c, 4, 29, 0
12, 541680, Note_on_c, 4, 29, 36
12, 541727, Note_on_c, 4, 29, 0
12, 542182, Note_on_c, 4, 29, 45
12, 542229, Note_on_c, 4, 29, 0
12, 542400, Note_on_c, 4, 29, 39
12, 542447, Note_on_c, 4, 29, 0
12, 542880, Note_on_c, 4, 29, 30
12, 542927, Note_on_c, 4, 29, 0
12, 543360, Note_on_c, 4, 29, 48
12, 543407, Note_on_c, 4, 29, 0
12, 543868, Note_on_c, 4, 29, 40
12, 543915, Note_on_c, 4, 29, 0
12, 544343, Note_on_c, 4, 29, 46
12, 544390, Note_on_c, 4, 29, 0
12, 544564, Note_on_c, 4, 29, 33
12, 544611, Note_on_c, 4, 29, 0
12, 544826, Note_on_c, 4, 29, 49
12, 544873, Note_on_c, 4, 29, 0
12, 545297, Note_on_c, 4, 29, 42
12, 545344, Note_on_c, 4, 29, 0
12, 545547, Note_on_c, 4, 29, 37
12, 545594, Note_on_c, 4, 29, 0
12, 551405, Note_on_c, 4, 25, 117
12, 551458, Note_on_c, 4, 25, 0
12, 552869, Note_on_c, 4, 25, 114
12, 552922, Note_on_c, 4, 25, 0
12, 554295, Note_on_c, 4, 25, 103
12, 554415, Note_on_c, 4, 25, 0
12, 554640, Note_on_c, 4, 25, 116
12, 554760, Note_on_c, 4, 25, 0
12, 555608, Note_on_c, 4, 25, 103
12, 555728, Note_on_c, 4, 25, 0
12, 556088, Note_on_c, 4, 25, 120
12, 556208, Note_on_c, 4, 25, 0
12, 558138, Note_on_c, 4, 25, 104
12, 558258, Note_on_c, 4, 25, 0
12, 558616, Note_on_c, 4, 25, 100
12, 558736, Note_on_c, 4, 25, 0
12, 559824, Note_on_c, 4, 25, 108
12, 559967, Note_on_c, 4, 25, 0
12, 560046, Note_on_c, 4, 28, 111
12, 560189, Note_on_c, 4, 28, 0
12, 560290, Note_on_c, 4, 24, 115
12, 560337, Note_on_c, 4, 24, 0
12, 560414, Note_on_c, 4, 28, 108
12, 560557, Note_on_c, 4, 28, 0
12, 560907, Note_on_c, 4, 25, 103
12, 561050, Note_on_c, 4, 25, 0
12, 561148, Note_on_c, 4, 28, 116
12, 561291, Note_on_c, 4, 28, 0
12, 561622, Note_on_c, 4, 25, 103
12, 561729, Note_on_c, 4, 25, 0
12, 561961, Note_on_c, 4, 25, 104
12, 562104, Note_on_c, 4, 25, 0
12, 562225, Note_on_c, 4, 28, 105
12, 562368, Note_on_c, 4, 28, 0
12, 562457, Note_on_c, 4, 24, 102
12, 562504, Note_on_c, 4, 24, 0
12, 562579, Note_on_c, 4, 28, 118
12, 562722, Note_on_c, 4, 28, 0
12, 563060, Note_on_c, 4, 25, 118
12, 563167, Note_on_c, 4, 25, 0
12, 563655, Note_on_c, 4, 25, 111
12, 563762, Note_on_c, 4, 25, 0
12, 565204, Note_on_c, 4, 29, 102
12, 565264, Note_on_c, 4, 29, 0
12, 565272, Note_on_c, 4, 30, 98
12, 565324, Note_on_c, 4, 31, 108
12, 565332, Note_on_c, 4, 30, 0
12, 565384, Note_on_c, 4, 31, 0
12, 565384, Note_on_c, 4, 32, 93
12, 565444, Note_on_c, 4, 32, 0
12, 565445, Note_on_c, 4, 33, 108
12, 565685, Note_on_c, 4, 33, 0
12, 567603, Note_on_c, 4, 29, 95
12, 567663, Note_on_c, 4, 29, 0
12, 567685, Note_on_c, 4, 30, 95
12, 567735, Note_on_c, 4, 31, 95
12, 567745, Note_on_c, 4, 30, 0
12, 567784, Note_on_c, 4, 32, 92
12, 567795, Note_on_c, 4, 31, 0
12, 567844, Note_on_c, 4, 32, 0
12, 567858, Note_on_c, 4, 33, 101
12, 568098, Note_on_c, 4, 33, 0
12, 569061, Note_on_c, 4, 29, 111
12, 569113, Note_on_c, 4, 30, 91
12, 569121, Note_on_c, 4, 29, 0
12, 569173, Note_on_c, 4, 30, 0
12, 569187, Note_on_c, 4, 31, 109
12, 569220, Note_on_c, 4, 32, 106
12, 569247, Note_on_c, 4, 31, 0
12, 569280, Note_on_c, 4, 32, 0
12, 569302, Note_on_c, 4, 33, 102
12, 569542, Note_on_c, 4, 33, 0
12, 571451, Note_on_c, 4, 29, 99
12, 571511, Note_on_c, 4, 29, 0
12, 571519, Note_on_c, 4, 30, 102
12, 571567, Note_on_c, 4, 31, 108
12, 571579, Note_on_c, 4, 30, 0
12, 571627, Note_on_c, 4, 31, 0
12, 571628, Note_on_c, 4, 32, 107
12, 571684, Note_on_c, 4, 33, 109
12, 571688, Note_on_c, 4, 32, 0
12, 571924, Note_on_c, 4, 33, 0
12, 572894, Note_on_c, 4, 29, 91
12, 572954, Note_on_c, 4, 29, 0
12, 572961, Note_on_c, 4, 30, 99
12, 573021, Note_on_c, 4, 30, 0
12, 573029, Note_on_c, 4, 31, 110
12, 573085, Note_on_c, 4, 32, 100
12, 573089, Note_on_c, 4, 31, 0
12, 573120, Note_on_c, 4, 33, 102
12, 573145, Note_on_c, 4, 32, 0
12, 573360, Note_on_c, 4, 33, 0
12, 575299, Note_on_c, 4, 29, 98
12, 575356, Note_on_c, 4, 30, 101
12, 575359, Note_on_c, 4, 29, 0
12, 575416, Note_on_c, 4, 30, 0
12, 575425, Note_on_c, 4, 31, 97
12, 575464, Note_on_c, 4, 32, 97
12, 575485, Note_on_c, 4, 31, 0
12, 575524, Note_on_c, 4, 32, 0
12, 575541, Note_on_c, 4, 33, 106
12, 575781, Note_on_c, 4, 33, 0
12, 577211, Note_on_c, 4, 29, 95
12, 577271, Note_on_c, 4, 29, 0
12, 577271, Note_on_c, 4, 30, 103
12, 577323, Note_on_c, 4, 31, 102
12, 577331, Note_on_c, 4, 30, 0
12, 577383, Note_on_c, 4, 31, 0
12, 577396, Note_on_c, 4, 32, 92
12, 577448, Note_on_c, 4, 33, 109
12, 577456, Note_on_c, 4, 32, 0
12, 577688, Note_on_c, 4, 33, 0
12, 579608, Note_on_c, 4, 29, 101
12, 579662, Note_on_c, 4, 30, 109
12, 579668, Note_on_c, 4, 29, 0
12, 579722, Note_on_c, 4, 30, 0
12, 579737, Note_on_c, 4, 31, 96
12, 579783, Note_on_c, 4, 32, 93
12, 579797, Note_on_c, 4, 31, 0
12, 579843, Note_on_c, 4, 32, 0
12, 579853, Note_on_c, 4, 33, 109
12, 580093, Note_on_c, 4, 33, 0
12, 582009, Note_on_c, 4, 29, 101
12, 582069, Note_on_c, 4, 29, 0
12, 582087, Note_on_c, 4, 30, 111
12, 582121, Note_on_c, 4, 31, 98
12, 582147, Note_on_c, 4, 30, 0
12, 582181, Note_on_c, 4, 31, 0
12, 582209, Note_on_c, 4, 32, 93
12, 582250, Note_on_c, 4, 33, 104
12, 582269, Note_on_c, 4, 32, 0
12, 582490, Note_on_c, 4, 33, 0
12, 584406, Note_on_c, 4, 29, 109
12, 584466, Note_on_c, 4, 29, 0
12, 584474, Note_on_c, 4, 30, 96
12, 584527, Note_on_c, 4, 31, 106
12, 584534, Note_on_c, 4, 30, 0
12, 584587, Note_on_c, 4, 31, 0
12, 584596, Note_on_c, 4, 32, 101
12, 584656, Note_on_c, 4, 32, 0
12, 584668, Note_on_c, 4, 33, 108
12, 584908, Note_on_c, 4, 33, 0
12, 585854, Note_on_c, 4, 29, 110
12, 585903, Note_on_c, 4, 30, 104
12, 585914, Note_on_c, 4, 29, 0
12, 585963, Note_on_c, 4, 30, 0
12, 585970, Note_on_c, 4, 31, 104
12, 586030, Note_on_c, 4, 31, 0
12, 586039, Note_on_c, 4, 32, 92
12, 586087, Note_on_c, 4, 33, 108
12, 586099, Note_on_c, 4, 32, 0
12, 586327, Note_on_c, 4, 33, 0
12, 587780, Note_on_c, 4, 29, 96
12, 587840, Note_on_c, 4, 29, 0
12, 587840, Note_on_c, 4, 30, 101
12, 587894, Note_on_c, 4, 31, 91
12, 587900, Note_on_c, 4, 30, 0
12, 587954, Note_on_c, 4, 31, 0
12, 587960, Note_on_c, 4, 32, 109
12, 588020, Note_on_c, 4, 32, 0
12, 588023, Note_on_c, 4, 33, 102
12, 588263, Note_on_c, 4, 33, 0
12, 589228, Note_on_c, 4, 29, 98
12, 589286, Note_on_c, 4, 30, 98
12, 589288, Note_on_c, 4, 29, 0
12, 589344, Note_on_c, 4, 31, 106
12, 589346, Note_on_c, 4, 30, 0
12, 589402, Note_on_c, 4, 32, 111
12, 589404, Note_on_c, 4, 31, 0
12, 589462, Note_on_c, 4, 32, 0
12, 589468, Note_on_c, 4, 33, 107
12, 589708, Note_on_c, 4, 33, 0
12, 591612, Note_on_c, 4, 29, 101
12, 591672, Note_on_c, 4, 29, 0
12, 591681, Note_on_c, 4, 30, 92
12, 591741, Note_on_c, 4, 30, 0
12, 591744, Note_on_c, 4, 31, 98
12, 591804, Note_on_c, 4, 31, 0
12, 591807, Note_on_c, 4, 32, 108
12, 591867, Note_on_c, 4, 32, 0
12, 591868, Note_on_c, 4, 33, 108
12, 592108, Note_on_c, 4, 33, 0
12, 594025, Note_on_c, 4, 29, 108
12, 594080, Note_on_c, 4, 30, 100
12, 594085, Note_on_c, 4, 29, 0
12, 594138, Note_on_c, 4, 31, 106
12, 594140, Note_on_c, 4, 30, 0
12, 594187, Note_on_c, 4, 32, 96
12, 594198, Note_on_c, 4, 31, 0
12, 594247, Note_on_c, 4, 32, 0
12, 594265, Note_on_c, 4, 33, 95
12, 594505, Note_on_c, 4, 33, 0
12, 596420, Note_on_c, 4, 29, 106
12, 596464, Note_on_c, 4, 30, 106
12, 596480, Note_on_c, 4, 29, 0
12, 596524, Note_on_c, 4, 30, 0
12, 596538, Note_on_c, 4, 31, 101
12, 596598, Note_on_c, 4, 31, 0
12, 596607, Note_on_c, 4, 32, 98
12, 596655, Note_on_c, 4, 33, 101
12, 596667, Note_on_c, 4, 32, 0
12, 596895, Note_on_c, 4, 33, 0
12, 598812, Note_on_c, 4, 29, 111
12, 598871, Note_on_c, 4, 30, 99
12, 598872, Note_on_c, 4, 29, 0
12, 598931, Note_on_c, 4, 30, 0
12, 598942, Note_on_c, 4, 31, 94
12, 598987, Note_on_c, 4, 32, 93
12, 599002, Note_on_c, 4, 31, 0
12, 599047, Note_on_c, 4, 32, 0
12, 599064, Note_on_c, 4, 33, 110
12, 599304, Note_on_c, 4, 33, 0
12, 601226, Note_on_c, 4, 29, 95
12, 601270, Note_on_c, 4, 30, 101
12, 601286, Note_on_c, 4, 29, 0
12, 601324, Note_on_c, 4, 31, 102
12, 601330, Note_on_c, 4, 30, 0
12, 601384, Note_on_c, 4, 31, 0
12, 601388, Note_on_c, 4, 32, 91
12, 601448, Note_on_c, 4, 32, 0
12, 601457, Note_on_c, 4, 33, 120
12, 601697, Note_on_c, 4, 33, 0
12, 605403, Note_on_c, 4, 29, 111
12, 605463, Note_on_c, 4, 29, 0
12, 605477, Note_on_c, 4, 30, 105
12, 605537, Note_on_c, 4, 30, 0
12, 605541, Note_on_c, 4, 31, 104
12, 605594, Note_on_c, 4, 32, 100
12, 605601, Note_on_c, 4, 31, 0
12, 605654, Note_on_c, 4, 32, 0
12, 605665, Note_on_c, 4, 33, 106
12, 605905, Note_on_c, 4, 33, 0
12, 607812, Note_on_c, 4, 29, 100
12, 607872, Note_on_c, 4, 29, 0
12, 607885, Note_on_c, 4, 30, 95
12, 607938, Note_on_c, 4, 31, 95
12, 607945, Note_on_c, 4, 30, 0
12, 607986, Note_on_c, 4, 32, 99
12, 607998, Note_on_c, 4, 31, 0
12, 608046, Note_on_c, 4, 32, 0
12, 608053, Note_on_c, 4, 33, 111
12, 608293, Note_on_c, 4, 33, 0
12, 610227, Note_on_c, 4, 29, 94
12, 610271, Note_on_c, 4, 30, 108
12, 610287, Note_on_c, 4, 29, 0
12, 610331, Note_on_c, 4, 30, 0
12, 610336, Note_on_c, 4, 31, 93
12, 610396, Note_on_c, 4, 31, 0
12, 610404, Note_on_c, 4, 32, 92
12, 610457, Note_on_c, 4, 33, 102
12, 610464, Note_on_c, 4, 32, 0
12, 610697, Note_on_c, 4, 33, 0
12, 612624, Note_on_c, 4, 29, 93
12, 612663, Note_on_c, 4, 30, 96
12, 612684, Note_on_c, 4, 29, 0
12, 612723, Note_on_c, 4, 30, 0
12, 612741, Note_on_c, 4, 31, 98
12, 612797, Note_on_c, 4, 32, 103
12, 612801, Note_on_c, 4, 31, 0
12, 612857, Note_on_c, 4, 32, 0
12, 612860, Note_on_c, 4, 33, 99
12, 613100, Note_on_c, 4, 33, 0
12, 615027, Note_on_c, 4, 29, 106
12, 615061, Note_on_c, 4, 30, 97
12, 615087, Note_on_c, 4, 29, 0
12, 615121, Note_on_c, 4, 30, 0
12, 615140, Note_on_c, 4, 31, 92
12, 615182, Note_on_c, 4, 32, 109
12, 615200, Note_on_c, 4, 31, 0
12, 615242, Note_on_c, 4, 32, 0
12, 615242, Note_on_c, 4, 33, 109
12, 615482, Note_on_c, 4, 33, 0
12, 617411, Note_on_c, 4, 29, 101
12, 617471, Note_on_c, 4, 29, 0
12, 617477, Note_on_c, 4, 30, 101
12, 617537, Note_on_c, 4, 30, 0
12, 617543, Note_on_c, 4, 31, 111
12, 617593, Note_on_c, 4, 32, 103
12, 617603, Note_on_c, 4, 31, 0
12, 617649, Note_on_c, 4, 33, 106
12, 617653, Note_on_c, 4, 32, 0
12, 617889, Note_on_c, 4, 33, 0
12, 619825, Note_on_c, 4, 29, 108
12, 619885, Note_on_c, 4, 29, 0
12, 619886, Note_on_c, 4, 30, 108
12, 619931, Note_on_c, 4, 31, 107
12, 619946, Note_on_c, 4, 30, 0
12, 619991, Note_on_c, 4, 31, 0
12, 620007, Note_on_c, 4, 32, 91
12, 620054, Note_on_c, 4, 33, 105
12, 620067, Note_on_c, 4, 32, 0
12, 620294, Note_on_c, 4, 33, 0
12, 622226, Note_on_c, 4, 29, 93
12, 622265, Note_on_c, 4, 30, 107
12, 622286, Note_on_c, 4, 29, 0
12, 622321, Note_on_c, 4, 31, 107
12, 622325, Note_on_c, 4, 30, 0
12, 622381, Note_on_c, 4, 31, 0
12, 622382, Note_on_c, 4, 32, 95
12, 622442, Note_on_c, 4, 32, 0
12, 622442, Note_on_c, 4, 33, 95
12, 622682, Note_on_c, 4, 33, 0
12, 624616, Note_on_c, 4, 29, 93
12, 624665, Note_on_c, 4, 30, 95
12, 624676, Note_on_c, 4, 29, 0
12, 624725, Note_on_c, 4, 30, 0
12, 624738, Note_on_c, 4, 31, 101
12, 624798, Note_on_c, 4, 31, 0
12, 624801, Note_on_c, 4, 32, 102
12, 624843, Note_on_c, 4, 33, 104
12, 624861, Note_on_c, 4, 32, 0
12, 625083, Note_on_c, 4, 33, 0
12, 627026, Note_on_c, 4, 29, 97
12, 627061, Note_on_c, 4, 30, 104
12, 627086, Note_on_c, 4, 29, 0
12, 627121, Note_on_c, 4, 30, 0
12, 627142, Note_on_c, 4, 31, 105
12, 627187, Note_on_c, 4, 32, 95
12, 627202, Note_on_c, 4, 31, 0
12, 627247, Note_on_c, 4, 32, 0
12, 627261, Note_on_c, 4, 33, 91
12, 627501, Note_on_c, 4, 33, 0
12, 627721, Note_on_c, 4, 33, 106
12, 627841, Note_on_c, 4, 33, 0
12, 627976, Note_on_c, 4, 36, 78
12, 628096, Note_on_c, 4, 36, 0
12, 628218, Note_on_c, 4, 33, 87
12, 628338, Note_on_c, 4, 33, 0
12, 628347, Note_on_c, 4, 36, 81
12, 628467, Note_on_c, 4, 36, 0
12, 628827, Note_on_c, 4, 33, 85
12, 628947, Note_on_c, 4, 33, 0
12, 629060, Note_on_c, 4, 36, 82
12, 629180, Note_on_c, 4, 36, 0
12, 629546, Note_on_c, 4, 33, 120
12, 629666, Note_on_c, 4, 33, 0
12, 629775, Note_on_c, 4, 36, 89
12, 629895, Note_on_c, 4, 36, 0
12, 630022, Note_on_c, 4, 33, 87
12, 630138, Note_on_c, 4, 36, 95
12, 630142, Note_on_c, 4, 33, 0
12, 630258, Note_on_c, 4, 36, 0
12, 630614, Note_on_c, 4, 33, 113
12, 630734, Note_on_c, 4, 33, 0
12, 630856, Note_on_c, 4, 36, 80
12, 630976, Note_on_c, 4, 36, 0
12, 631102, Note_on_c, 4, 33, 93
12, 631222, Note_on_c, 4, 33, 0
12, 631228, Note_on_c, 4, 36, 94
12, 631348, Note_on_c, 4, 36, 0
12, 631700, Note_on_c, 4, 33, 96
12, 631820, Note_on_c, 4, 33, 0
12, 631947, Note_on_c, 4, 36, 98
12, 632067, Note_on_c, 4, 36, 0
12, 632414, Note_on_c, 4, 33, 122
12, 632534, Note_on_c, 4, 33, 0
12, 632652, Note_on_c, 4, 36, 78
12, 632772, Note_on_c, 4, 36, 0
12, 632894, Note_on_c, 4, 33, 78
12, 633014, Note_on_c, 4, 33, 0
12, 635885, Note_on_c, 4, 33, 87
12, 635932, Note_on_c, 4, 33, 0
12, 636137, Note_on_c, 4, 36, 91
12, 636233, Note_on_c, 4, 36, 0
12, 636368, Note_on_c, 4, 33, 79
12, 636488, Note_on_c, 4, 33, 0
12, 636488, Note_on_c, 4, 36, 97
12, 636608, Note_on_c, 4, 36, 0
12, 636974, Note_on_c, 4, 33, 84
12, 637021, Note_on_c, 4, 33, 0
12, 637212, Note_on_c, 4, 36, 88
12, 637308, Note_on_c, 4, 36, 0
12, 637441, Note_on_c, 4, 33, 83
12, 637561, Note_on_c, 4, 33, 0
12, 637575, Note_on_c, 4, 36, 94
12, 637695, Note_on_c, 4, 36, 0
12, 638048, Note_on_c, 4, 33, 88
12, 638095, Note_on_c, 4, 33, 0
12, 638297, Note_on_c, 4, 36, 90
12, 638393, Note_on_c, 4, 36, 0
12, 638546, Note_on_c, 4, 33, 94
12, 638653, Note_on_c, 4, 36, 78
12, 638666, Note_on_c, 4, 33, 0
12, 638773, Note_on_c, 4, 36, 0
12, 639141, Note_on_c, 4, 33, 89
12, 639188, Note_on_c, 4, 33, 0
12, 639361, Note_on_c, 4, 36, 88
12, 639481, Note_on_c, 4, 36, 0
12, 639864, Note_on_c, 4, 33, 101
12, 639911, Note_on_c, 4, 33, 0
12, 640222, Note_on_c, 4, 38, 85
12, 640269, Note_on_c, 4, 38, 0
12, 640464, Note_on_c, 4, 33, 70
12, 640511, Note_on_c, 4, 33, 0
12, 640705, Note_on_c, 4, 38, 82
12, 640752, Note_on_c, 4, 38, 0
12, 641048, Note_on_c, 4, 33, 94
12, 641095, Note_on_c, 4, 33, 0
12, 641544, Note_on_c, 4, 38, 82
12, 641591, Note_on_c, 4, 38, 0
12, 641771, Note_on_c, 4, 33, 65
12, 641818, Note_on_c, 4, 33, 0
12, 642132, Note_on_c, 4, 38, 77
12, 642179, Note_on_c, 4, 38, 0
12, 642371, Note_on_c, 4, 33, 69
12, 642418, Note_on_c, 4, 33, 0
12, 642722, Note_on_c, 4, 38, 82
12, 642769, Note_on_c, 4, 38, 0
12, 642977, Note_on_c, 4, 33, 84
12, 643024, Note_on_c, 4, 33, 0
12, 643465, Note_on_c, 4, 36, 78
12, 643512, Note_on_c, 4, 36, 0
12, 643692, Note_on_c, 4, 33, 84
12, 643739, Note_on_c, 4, 33, 0
12, 644054, Note_on_c, 4, 36, 69
12, 644101, Note_on_c, 4, 36, 0
12, 644296, Note_on_c, 4, 33, 70
12, 644343, Note_on_c, 4, 33, 0
12, 644526, Note_on_c, 4, 36, 67
12, 644573, Note_on_c, 4, 36, 0
12, 644777, Note_on_c, 4, 33, 83
12, 644824, Note_on_c, 4, 33, 0
12, 645019, Note_on_c, 4, 36, 80
12, 645066, Note_on_c, 4, 36, 0
12, 645264, Note_on_c, 4, 33, 94
12, 645311, Note_on_c, 4, 33, 0
12, 645615, Note_on_c, 4, 36, 71
12, 645662, Note_on_c, 4, 36, 0
12, 645853, Note_on_c, 4, 33, 84
12, 645900, Note_on_c, 4, 33, 0
12, 646344, Note_on_c, 4, 36, 65
12, 646391, Note_on_c, 4, 36, 0
12, 646570, Note_on_c, 4, 33, 97
12, 646617, Note_on_c, 4, 33, 0
12, 646937, Note_on_c, 4, 36, 79
12, 646984, Note_on_c, 4, 36, 0
12, 647182, Note_on_c, 4, 33, 92
12, 647229, Note_on_c, 4, 33, 0
12, 647655, Note_on_c, 4, 36, 69
12, 647702, Note_on_c, 4, 36, 0
12, 647880, Note_on_c, 4, 33, 103
12, 647927, Note_on_c, 4, 33, 0
12, 648507, Note_on_c, 4, 36, 70
12, 648554, Note_on_c, 4, 36, 0
12, 648733, Note_on_c, 4, 33, 94
12, 648780, Note_on_c, 4, 33, 0
12, 648974, Note_on_c, 4, 36, 96
12, 649021, Note_on_c, 4, 36, 0
12, 649213, Note_on_c, 4, 33, 91
12, 649260, Note_on_c, 4, 33, 0
12, 649464, Note_on_c, 4, 36, 85
12, 649511, Note_on_c, 4, 36, 0
12, 649688, Note_on_c, 4, 33, 107
12, 649735, Note_on_c, 4, 33, 0
12, 650060, Note_on_c, 4, 36, 85
12, 650107, Note_on_c, 4, 36, 0
12, 650294, Note_on_c, 4, 33, 89
12, 650341, Note_on_c, 4, 33, 0
12, 650525, Note_on_c, 4, 36, 93
12, 650572, Note_on_c, 4, 36, 0
12, 650767, Note_on_c, 4, 33, 93
12, 650814, Note_on_c, 4, 33, 0
12, 651004, Note_on_c, 4, 36, 90
12, 651051, Note_on_c, 4, 36, 0
12, 651251, Note_on_c, 4, 33, 83
12, 651298, Note_on_c, 4, 33, 0
12, 651500, Note_on_c, 4, 36, 86
12, 651620, Note_on_c, 4, 36, 0
12, 651729, Note_on_c, 4, 33, 90
12, 651776, Note_on_c, 4, 33, 0
12, 651977, Note_on_c, 4, 36, 94
12, 652024, Note_on_c, 4, 36, 0
12, 652222, Note_on_c, 4, 33, 86
12, 652269, Note_on_c, 4, 33, 0
12, 652446, Note_on_c, 4, 36, 96
12, 652493, Note_on_c, 4, 36, 0
12, 652701, Note_on_c, 4, 33, 98
12, 652748, Note_on_c, 4, 33, 0
12, 652937, Note_on_c, 4, 36, 78
12, 652984, Note_on_c, 4, 36, 0
12, 653188, Note_on_c, 4, 33, 79
12, 653235, Note_on_c, 4, 33, 0
12, 653418, Note_on_c, 4, 36, 86
12, 653465, Note_on_c, 4, 36, 0
12, 653663, Note_on_c, 4, 36, 80
12, 653710, Note_on_c, 4, 36, 0
12, 653907, Note_on_c, 4, 33, 89
12, 653954, Note_on_c, 4, 33, 0
12, 654130, Note_on_c, 4, 36, 82
12, 654177, Note_on_c, 4, 36, 0
12, 654379, Note_on_c, 4, 33, 83
12, 654426, Note_on_c, 4, 33, 0
12, 654624, Note_on_c, 4, 36, 96
12, 654671, Note_on_c, 4, 36, 0
12, 654671, End_track
13, 0, Start_track
13, 0, Title_t, "Corni I"
13, 0, MIDI_port, 0
13, 0, Program_c, 5, 60
13, 0, Control_c, 5, 7, 108
13, 0, Control_c, 5, 10, 44
13, 0, Control_c, 5, 91, 96
13, 2, Control_c, 5, 11, 65
13, 10, Note_on_c, 5, 62, 45
13, 10, Control_c, 5, 11, 66
13, 18, Control_c, 5, 11, 67
13, 26, Control_c, 5, 11, 68
13, 34, Control_c, 5, 11, 69
13, 42, Control_c, 5, 11, 70
13, 50, Control_c, 5, 11, 71
13, 58, Control_c, 5, 11, 72
13, 66, Control_c, 5, 11, 73
13, 74, Control_c, 5, 11, 74
13, 82, Control_c, 5, 11, 75
13, 90, Control_c, 5, 11, 76
13, 97, Control_c, 5, 11, 77
13, 105, Control_c, 5, 11, 78
13, 113, Control_c, 5, 11, 79
13, 121, Control_c, 5, 11, 80
13, 129, Control_c, 5, 11, 81
13, 137, Control_c, 5, 11, 82
13, 145, Control_c, 5, 11, 83
13, 153, Control_c, 5, 11, 84
13, 161, Control_c, 5, 11, 85
13, 169, Control_c, 5, 11, 86
13, 177, Control_c, 5, 11, 87
13, 185, Control_c, 5, 11, 88
13, 193, Control_c, 5, 11, 89
13, 201, Control_c, 5, 11, 90
13, 208, Control_c, 5, 11, 91
13, 216, Control_c, 5, 11, 92
13, 224, Control_c, 5, 11, 93
13, 232, Control_c, 5, 11, 94
13, 240, Control_c, 5, 11, 95
13, 248, Control_c, 5, 11, 96
13, 256, Control_c, 5, 11, 97
13, 264, Control_c, 5, 11, 98
13, 272, Control_c, 5, 11, 99
13, 280, Control_c, 5, 11, 100
13, 287, Control_c, 5, 11, 101
13, 295, Control_c, 5, 11, 102
13, 303, Control_c, 5, 11, 103
13, 311, Control_c, 5, 11, 104
13, 319, Control_c, 5, 11, 105
13, 327, Control_c, 5, 11, 106
13, 335, Control_c, 5, 11, 107
13, 343, Control_c, 5, 11, 108
13, 351, Control_c, 5, 11, 109
13, 359, Control_c, 5, 11, 110
13, 367, Control_c, 5, 11, 111
13, 375, Control_c, 5, 11, 112
13, 382, Control_c, 5, 11, 113
13, 390, Control_c, 5, 11, 114
13, 398, Control_c, 5, 11, 115
13, 406, Control_c, 5, 11, 116
13, 414, Control_c, 5, 11, 117
13, 422, Control_c, 5, 11, 118
13, 430, Control_c, 5, 11, 119
13, 438, Control_c, 5, 11, 120
13, 446, Control_c, 5, 11, 121
13, 454, Control_c, 5, 11, 122
13, 462, Control_c, 5, 11, 123
13, 470, Control_c, 5, 11, 124
13, 478, Control_c, 5, 11, 125
13, 486, Control_c, 5, 11, 126
13, 3344, Note_on_c, 5, 62, 0
13, 3364, Note_on_c, 5, 62, 43
13, 10359, Note_on_c, 5, 62, 0
13, 10560, Control_c, 5, 11, 127
13, 10574, Note_on_c, 5, 62, 73
13, 10590, Control_c, 5, 11, 126
13, 10620, Control_c, 5, 11, 125
13, 10650, Control_c, 5, 11, 124
13, 10681, Control_c, 5, 11, 123
13, 10711, Control_c, 5, 11, 122
13, 10741, Control_c, 5, 11, 121
13, 10772, Control_c, 5, 11, 120
13, 10802, Control_c, 5, 11, 119
13, 10832, Control_c, 5, 11, 118
13, 10863, Control_c, 5, 11, 117
13, 10893, Control_c, 5, 11, 116
13, 10923, Control_c, 5, 11, 115
13, 10954, Control_c, 5, 11, 114
13, 10984, Control_c, 5, 11, 113
13, 11014, Control_c, 5, 11, 112
13, 11045, Control_c, 5, 11, 111
13, 11075, Control_c, 5, 11, 110
13, 11105, Control_c, 5, 11, 109
13, 11136, Control_c, 5, 11, 108
13, 11166, Control_c, 5, 11, 107
13, 11196, Control_c, 5, 11, 106
13, 11227, Control_c, 5, 11, 105
13, 11257, Control_c, 5, 11, 104
13, 11287, Control_c, 5, 11, 103
13, 11317, Control_c, 5, 11, 102
13, 11348, Control_c, 5, 11, 101
13, 11378, Control_c, 5, 11, 100
13, 11408, Control_c, 5, 11, 99
13, 11439, Control_c, 5, 11, 98
13, 11469, Control_c, 5, 11, 97
13, 11499, Control_c, 5, 11, 96
13, 11530, Control_c, 5, 11, 95
13, 11560, Control_c, 5, 11, 94
13, 11590, Control_c, 5, 11, 93
13, 11621, Control_c, 5, 11, 92
13, 11651, Control_c, 5, 11, 91
13, 11681, Control_c, 5, 11, 90
13, 11712, Control_c, 5, 11, 89
13, 11742, Control_c, 5, 11, 88
13, 11772, Control_c, 5, 11, 87
13, 11803, Control_c, 5, 11, 86
13, 11833, Control_c, 5, 11, 85
13, 11863, Control_c, 5, 11, 84
13, 11894, Control_c, 5, 11, 83
13, 11924, Control_c, 5, 11, 82
13, 11954, Control_c, 5, 11, 81
13, 11985, Control_c, 5, 11, 80
13, 12015, Control_c, 5, 11, 79
13, 12045, Control_c, 5, 11, 78
13, 12075, Control_c, 5, 11, 77
13, 12105, Control_c, 5, 11, 76
13, 12136, Control_c, 5, 11, 75
13, 12166, Control_c, 5, 11, 74
13, 12196, Control_c, 5, 11, 73
13, 12227, Control_c, 5, 11, 72
13, 12257, Control_c, 5, 11, 71
13, 12287, Control_c, 5, 11, 70
13, 12318, Control_c, 5, 11, 69
13, 12348, Control_c, 5, 11, 68
13, 12378, Control_c, 5, 11, 67
13, 12409, Control_c, 5, 11, 66
13, 12439, Control_c, 5, 11, 65
13, 12469, Control_c, 5, 11, 64
13, 12500, Control_c, 5, 11, 63
13, 12530, Control_c, 5, 11, 62
13, 12560, Control_c, 5, 11, 61
13, 12591, Control_c, 5, 11, 60
13, 12621, Control_c, 5, 11, 59
13, 12651, Control_c, 5, 11, 58
13, 12682, Control_c, 5, 11, 57
13, 12712, Control_c, 5, 11, 56
13, 12742, Control_c, 5, 11, 55
13, 12772, Control_c, 5, 11, 54
13, 12803, Control_c, 5, 11, 53
13, 12833, Control_c, 5, 11, 52
13, 12863, Control_c, 5, 11, 51
13, 12894, Control_c, 5, 11, 50
13, 12924, Control_c, 5, 11, 49
13, 12954, Control_c, 5, 11, 48
13, 12985, Control_c, 5, 11, 47
13, 13015, Control_c, 5, 11, 46
13, 13045, Control_c, 5, 11, 45
13, 13076, Control_c, 5, 11, 44
13, 13106, Control_c, 5, 11, 43
13, 13136, Control_c, 5, 11, 42
13, 13167, Control_c, 5, 11, 41
13, 13197, Control_c, 5, 11, 40
13, 13227, Control_c, 5, 11, 39
13, 13258, Control_c, 5, 11, 38
13, 13288, Control_c, 5, 11, 37
13, 13318, Control_c, 5, 11, 36
13, 13349, Control_c, 5, 11, 35
13, 13379, Control_c, 5, 11, 34
13, 13409, Control_c, 5, 11, 33
13, 13694, Note_on_c, 5, 62, 0
13, 15360, Control_c, 5, 11, 127
13, 15372, Note_on_c, 5, 62, 69
13, 15375, Control_c, 5, 11, 126
13, 15390, Control_c, 5, 11, 125
13, 15405, Control_c, 5, 11, 124
13, 15420, Control_c, 5, 11, 123
13, 15435, Control_c, 5, 11, 122
13, 15450, Control_c, 5, 11, 121
13, 15465, Control_c, 5, 11, 120
13, 15481, Control_c, 5, 11, 119
13, 15496, Control_c, 5, 11, 118
13, 15511, Control_c, 5, 11, 117
13, 15526, Control_c, 5, 11, 116
13, 15541, Control_c, 5, 11, 115
13, 15556, Control_c, 5, 11, 114
13, 15572, Control_c, 5, 11, 113
13, 15587, Control_c, 5, 11, 112
13, 15602, Control_c, 5, 11, 111
13, 15617, Control_c, 5, 11, 110
13, 15632, Control_c, 5, 11, 109
13, 15647, Control_c, 5, 11, 108
13, 15663, Control_c, 5, 11, 107
13, 15678, Control_c, 5, 11, 106
13, 15693, Control_c, 5, 11, 105
13, 15708, Control_c, 5, 11, 104
13, 15723, Control_c, 5, 11, 103
13, 15738, Control_c, 5, 11, 102
13, 15754, Control_c, 5, 11, 101
13, 15769, Control_c, 5, 11, 100
13, 15784, Control_c, 5, 11, 99
13, 15799, Control_c, 5, 11, 98
13, 15814, Control_c, 5, 11, 97
13, 15829, Control_c, 5, 11, 96
13, 15845, Control_c, 5, 11, 95
13, 15860, Control_c, 5, 11, 94
13, 15875, Control_c, 5, 11, 93
13, 15890, Control_c, 5, 11, 92
13, 15905, Control_c, 5, 11, 91
13, 15920, Control_c, 5, 11, 90
13, 15936, Control_c, 5, 11, 89
13, 15951, Control_c, 5, 11, 88
13, 15966, Control_c, 5, 11, 87
13, 15981, Control_c, 5, 11, 86
13, 15996, Control_c, 5, 11, 85
13, 16011, Control_c, 5, 11, 84
13, 16027, Control_c, 5, 11, 83
13, 16042, Control_c, 5, 11, 82
13, 16057, Control_c, 5, 11, 81
13, 16072, Control_c, 5, 11, 80
13, 16087, Control_c, 5, 11, 79
13, 16102, Control_c, 5, 11, 78
13, 16117, Control_c, 5, 11, 77
13, 16132, Control_c, 5, 11, 76
13, 16148, Control_c, 5, 11, 75
13, 16163, Control_c, 5, 11, 74
13, 16178, Control_c, 5, 11, 73
13, 16193, Control_c, 5, 11, 72
13, 16208, Control_c, 5, 11, 71
13, 16223, Control_c, 5, 11, 70
13, 16239, Control_c, 5, 11, 69
13, 16254, Control_c, 5, 11, 68
13, 16269, Control_c, 5, 11, 67
13, 16284, Control_c, 5, 11, 66
13, 16299, Control_c, 5, 11, 65
13, 16314, Control_c, 5, 11, 64
13, 16330, Control_c, 5, 11, 63
13, 16345, Control_c, 5, 11, 62
13, 16360, Control_c, 5, 11, 61
13, 16375, Control_c, 5, 11, 60
13, 16390, Control_c, 5, 11, 59
13, 16405, Control_c, 5, 11, 58
13, 16421, Control_c, 5, 11, 57
13, 16436, Control_c, 5, 11, 56
13, 16451, Control_c, 5, 11, 55
13, 16466, Control_c, 5, 11, 54
13, 16481, Control_c, 5, 11, 53
13, 16496, Control_c, 5, 11, 52
13, 16512, Control_c, 5, 11, 51
13, 16527, Control_c, 5, 11, 50
13, 16542, Control_c, 5, 11, 49
13, 16557, Control_c, 5, 11, 48
13, 16572, Control_c, 5, 11, 47
13, 16587, Control_c, 5, 11, 46
13, 16603, Control_c, 5, 11, 45
13, 16618, Control_c, 5, 11, 44
13, 16633, Control_c, 5, 11, 43
13, 16648, Control_c, 5, 11, 42
13, 16663, Control_c, 5, 11, 41
13, 16678, Control_c, 5, 11, 40
13, 16694, Control_c, 5, 11, 39
13, 16709, Control_c, 5, 11, 38
13, 16724, Control_c, 5, 11, 37
13, 16739, Control_c, 5, 11, 36
13, 16754, Control_c, 5, 11, 35
13, 16769, Control_c, 5, 11, 34
13, 16785, Control_c, 5, 11, 33
13, 19476, Note_on_c, 5, 62, 0
13, 19696, Control_c, 5, 11, 126
13, 19698, Note_on_c, 5, 62, 77
13, 19719, Control_c, 5, 11, 125
13, 19741, Control_c, 5, 11, 124
13, 19764, Control_c, 5, 11, 123
13, 19787, Control_c, 5, 11, 122
13, 19810, Control_c, 5, 11, 121
13, 19833, Control_c, 5, 11, 120
13, 19856, Control_c, 5, 11, 119
13, 19879, Control_c, 5, 11, 118
13, 19902, Control_c, 5, 11, 117
13, 19924, Control_c, 5, 11, 116
13, 19947, Control_c, 5, 11, 115
13, 19970, Control_c, 5, 11, 114
13, 19993, Control_c, 5, 11, 113
13, 20016, Control_c, 5, 11, 112
13, 20039, Control_c, 5, 11, 111
13, 20062, Control_c, 5, 11, 110
13, 20085, Control_c, 5, 11, 109
13, 20107, Control_c, 5, 11, 108
13, 20130, Control_c, 5, 11, 107
13, 20153, Control_c, 5, 11, 106
13, 20176, Control_c, 5, 11, 105
13, 20199, Control_c, 5, 11, 104
13, 20221, Control_c, 5, 11, 103
13, 20244, Control_c, 5, 11, 102
13, 20267, Control_c, 5, 11, 101
13, 20290, Control_c, 5, 11, 100
13, 20313, Control_c, 5, 11, 99
13, 20336, Control_c, 5, 11, 98
13, 20359, Control_c, 5, 11, 97
13, 20382, Control_c, 5, 11, 96
13, 20404, Control_c, 5, 11, 95
13, 20427, Control_c, 5, 11, 94
13, 20450, Control_c, 5, 11, 93
13, 20473, Control_c, 5, 11, 92
13, 20496, Control_c, 5, 11, 91
13, 20519, Control_c, 5, 11, 90
13, 20542, Control_c, 5, 11, 89
13, 20565, Control_c, 5, 11, 88
13, 20587, Control_c, 5, 11, 87
13, 20610, Control_c, 5, 11, 86
13, 20633, Control_c, 5, 11, 85
13, 20656, Control_c, 5, 11, 84
13, 20679, Control_c, 5, 11, 83
13, 20701, Control_c, 5, 11, 82
13, 20724, Control_c, 5, 11, 81
13, 20747, Control_c, 5, 11, 80
13, 20770, Control_c, 5, 11, 79
13, 20793, Control_c, 5, 11, 78
13, 20816, Control_c, 5, 11, 77
13, 20839, Control_c, 5, 11, 76
13, 20862, Control_c, 5, 11, 75
13, 20884, Control_c, 5, 11, 74
13, 20907, Control_c, 5, 11, 73
13, 20930, Control_c, 5, 11, 72
13, 20953, Control_c, 5, 11, 71
13, 20976, Control_c, 5, 11, 70
13, 20999, Control_c, 5, 11, 69
13, 21022, Control_c, 5, 11, 68
13, 21045, Control_c, 5, 11, 67
13, 21067, Control_c, 5, 11, 66
13, 21090, Control_c, 5, 11, 65
13, 21113, Control_c, 5, 11, 64
13, 22290, Note_on_c, 5, 62, 0
13, 22560, Control_c, 5, 11, 127
13, 22584, Note_on_c, 5, 56, 34
13, 22586, Note_on_c, 5, 62, 46
13, 23880, Note_on_c, 5, 56, 0
13, 23882, Note_on_c, 5, 62, 0
13, 24004, Note_on_c, 5, 64, 47
13, 25300, Note_on_c, 5, 64, 0
13, 25451, Note_on_c, 5, 59, 33
13, 25452, Note_on_c, 5, 65, 38
13, 26411, Note_on_c, 5, 59, 0
13, 26412, Note_on_c, 5, 65, 0
13, 26413, Note_on_c, 5, 67, 42
13, 26424, Note_on_c, 5, 60, 46
13, 27360, Note_on_c, 5, 62, 35
13, 27384, Note_on_c, 5, 60, 0
13, 28320, Note_on_c, 5, 62, 0
13, 28333, Note_on_c, 5, 67, 0
13, 44165, Note_on_c, 5, 63, 44
13, 44169, Note_on_c, 5, 59, 45
13, 44645, Note_on_c, 5, 63, 0
13, 44648, Note_on_c, 5, 62, 45
13, 44649, Note_on_c, 5, 59, 0
13, 44660, Note_on_c, 5, 65, 56
13, 44888, Note_on_c, 5, 62, 0
13, 44889, Note_on_c, 5, 63, 57
13, 44900, Note_on_c, 5, 65, 0
13, 44900, Note_on_c, 5, 59, 46
13, 45123, Note_on_c, 5, 66, 52
13, 45126, Note_on_c, 5, 62, 57
13, 45129, Note_on_c, 5, 63, 0
13, 45140, Note_on_c, 5, 59, 0
13, 45603, Note_on_c, 5, 66, 0
13, 45606, Note_on_c, 5, 62, 0
13, 45614, Note_on_c, 5, 58, 46
13, 45616, Note_on_c, 5, 61, 41
13, 46094, Note_on_c, 5, 58, 0
13, 46095, Note_on_c, 5, 63, 58
13, 46096, Note_on_c, 5, 61, 0
13, 46108, Note_on_c, 5, 59, 56
13, 46562, Note_on_c, 5, 65, 48
13, 46575, Note_on_c, 5, 63, 0
13, 46585, Note_on_c, 5, 62, 56
13, 46588, Note_on_c, 5, 59, 0
13, 46802, Note_on_c, 5, 65, 0
13, 46812, Note_on_c, 5, 63, 55
13, 46819, Note_on_c, 5, 59, 51
13, 46825, Note_on_c, 5, 62, 0
13, 47052, Note_on_c, 5, 63, 0
13, 47054, Note_on_c, 5, 62, 51
13, 47059, Note_on_c, 5, 59, 0
13, 47066, Note_on_c, 5, 66, 57
13, 47534, Note_on_c, 5, 62, 0
13, 47537, Note_on_c, 5, 61, 42
13, 47546, Note_on_c, 5, 66, 0
13, 47548, Note_on_c, 5, 58, 46
13, 48017, Note_on_c, 5, 61, 0
13, 48028, Note_on_c, 5, 58, 0
13, 70098, Note_on_c, 5, 70, 42
13, 70573, Note_on_c, 5, 68, 44
13, 70578, Note_on_c, 5, 70, 0
13, 71053, Note_on_c, 5, 68, 0
13, 71068, Note_on_c, 5, 65, 32
13, 71523, Note_on_c, 5, 68, 45
13, 71548, Note_on_c, 5, 65, 0
13, 72003, Note_on_c, 5, 68, 0
13, 72018, Note_on_c, 5, 64, 41
13, 72498, Note_on_c, 5, 64, 0
13, 74408, Note_on_c, 5, 70, 43
13, 74888, Note_on_c, 5, 70, 0
13, 74905, Note_on_c, 5, 68, 37
13, 75374, Note_on_c, 5, 65, 37
13, 75385, Note_on_c, 5, 68, 0
13, 75854, Note_on_c, 5, 65, 0
13, 75860, Note_on_c, 5, 68, 48
13, 76339, Note_on_c, 5, 64, 40
13, 76340, Note_on_c, 5, 68, 0
13, 76819, Note_on_c, 5, 64, 0
13, 77295, Note_on_c, 5, 70, 50
13, 77766, Note_on_c, 5, 68, 38
13, 77775, Note_on_c, 5, 70, 0
13, 78244, Note_on_c, 5, 67, 34
13, 78246, Note_on_c, 5, 68, 0
13, 78724, Note_on_c, 5, 67, 0
13, 78728, Note_on_c, 5, 65, 33
13, 79208, Note_on_c, 5, 65, 0
13, 79213, Note_on_c, 5, 68, 38
13, 79693, Note_on_c, 5, 68, 0
13, 79705, Note_on_c, 5, 64, 39
13, 80161, Note_on_c, 5, 70, 37
13, 80185, Note_on_c, 5, 64, 0
13, 80641, Note_on_c, 5, 70, 0
13, 80665, Note_on_c, 5, 68, 50
13, 81126, Note_on_c, 5, 67, 33
13, 81145, Note_on_c, 5, 68, 0
13, 81606, Note_on_c, 5, 67, 0
13, 81622, Note_on_c, 5, 65, 49
13, 82097, Note_on_c, 5, 68, 33
13, 82102, Note_on_c, 5, 65, 0
13, 82577, Note_on_c, 5, 68, 0
13, 82579, Note_on_c, 5, 64, 34
13, 83059, Note_on_c, 5, 64, 0
13, 89297, Note_on_c, 5, 65, 46
13, 89308, Note_on_c, 5, 53, 48
13, 90004, Note_on_c, 5, 54, 34
13, 90015, Note_on_c, 5, 66, 36
13, 90017, Note_on_c, 5, 65, 0
13, 90028, Note_on_c, 5, 53, 0
13, 90483, Note_on_c, 5, 65, 39
13, 90484, Note_on_c, 5, 54, 0
13, 90492, Note_on_c, 5, 53, 42
13, 90495, Note_on_c, 5, 66, 0
13, 90963, Note_on_c, 5, 65, 0
13, 90971, Note_on_c, 5, 67, 39
13, 90972, Note_on_c, 5, 53, 0
13, 90983, Note_on_c, 5, 55, 38
13, 91619, Note_on_c, 5, 67, 0
13, 91631, Note_on_c, 5, 55, 0
13, 91689, Note_on_c, 5, 65, 34
13, 91699, Note_on_c, 5, 53, 30
13, 92382, Note_on_c, 5, 65, 0
13, 92401, Note_on_c, 5, 53, 0
13, 92402, Note_on_c, 5, 65, 34
13, 92421, Note_on_c, 5, 53, 43
13, 92882, Note_on_c, 5, 65, 0
13, 92883, Note_on_c, 5, 66, 42
13, 92894, Note_on_c, 5, 54, 39
13, 92901, Note_on_c, 5, 53, 0
13, 93363, Note_on_c, 5, 66, 0
13, 93374, Note_on_c, 5, 54, 0
13, 93383, Note_on_c, 5, 65, 40
13, 93386, Note_on_c, 5, 53, 39
13, 93850, Note_on_c, 5, 55, 30
13, 93850, Note_on_c, 5, 67, 30
13, 93863, Note_on_c, 5, 65, 0
13, 93866, Note_on_c, 5, 53, 0
13, 94498, Note_on_c, 5, 55, 0
13, 94498, Note_on_c, 5, 67, 0
13, 94575, Note_on_c, 5, 53, 48
13, 94584, Note_on_c, 5, 65, 45
13, 95286, Note_on_c, 5, 66, 41
13, 95295, Note_on_c, 5, 53, 0
13, 95301, Note_on_c, 5, 54, 42
13, 95304, Note_on_c, 5, 65, 0
13, 95766, Note_on_c, 5, 66, 0
13, 95778, Note_on_c, 5, 65, 37
13, 95781, Note_on_c, 5, 54, 0
13, 95783, Note_on_c, 5, 53, 32
13, 96243, Note_on_c, 5, 55, 47
13, 96251, Note_on_c, 5, 67, 32
13, 96258, Note_on_c, 5, 65, 0
13, 96263, Note_on_c, 5, 53, 0
13, 96891, Note_on_c, 5, 55, 0
13, 96899, Note_on_c, 5, 67, 0
13, 96968, Note_on_c, 5, 65, 45
13, 96981, Note_on_c, 5, 53, 32
13, 97688, Note_on_c, 5, 65, 0
13, 97688, Note_on_c, 5, 54, 43
13, 97701, Note_on_c, 5, 53, 0
13, 97704, Note_on_c, 5, 66, 40
13, 98168, Note_on_c, 5, 54, 0
13, 98173, Note_on_c, 5, 53, 34
13, 98184, Note_on_c, 5, 66, 0
13, 98186, Note_on_c, 5, 65, 37
13, 98653, Note_on_c, 5, 53, 0
13, 98659, Note_on_c, 5, 55, 33
13, 98662, Note_on_c, 5, 67, 32
13, 98666, Note_on_c, 5, 65, 0
13, 99235, Note_on_c, 5, 55, 0
13, 99238, Note_on_c, 5, 67, 0
13, 105621, Note_on_c, 5, 59, 59
13, 106093, Note_on_c, 5, 61, 50
13, 106101, Note_on_c, 5, 59, 0
13, 106561, Note_on_c, 5, 64, 42
13, 106573, Note_on_c, 5, 61, 0
13, 107041, Note_on_c, 5, 64, 0
13, 107062, Note_on_c, 5, 66, 54
13, 107525, Note_on_c, 5, 59, 59
13, 107542, Note_on_c, 5, 66, 0
13, 108005, Note_on_c, 5, 59, 0
13, 108015, Note_on_c, 5, 61, 45
13, 108495, Note_on_c, 5, 61, 0
13, 108495, Note_on_c, 5, 62, 54
13, 108968, Note_on_c, 5, 64, 47
13, 108975, Note_on_c, 5, 62, 0
13, 109448, Note_on_c, 5, 64, 0
13, 109449, Note_on_c, 5, 66, 43
13, 109929, Note_on_c, 5, 66, 0
13, 109940, Note_on_c, 5, 59, 46
13, 112820, Note_on_c, 5, 59, 0
13, 148325, Note_on_c, 5, 63, 29
13, 159845, Note_on_c, 5, 63, 0
13, 166058, Control_c, 5, 7, 127
13, 166560, Note_on_c, 5, 65, 48
13, 166565, Note_on_c, 5, 71, 50
13, 167285, Note_on_c, 5, 71, 0
13, 167286, Note_on_c, 5, 69, 43
13, 167520, Note_on_c, 5, 65, 0
13, 167523, Note_on_c, 5, 71, 58
13, 167523, Note_on_c, 5, 63, 48
13, 167526, Note_on_c, 5, 69, 0
13, 168001, Note_on_c, 5, 68, 56
13, 168003, Note_on_c, 5, 71, 0
13, 168241, Note_on_c, 5, 68, 0
13, 168245, Note_on_c, 5, 66, 57
13, 168483, Note_on_c, 5, 63, 0
13, 168485, Note_on_c, 5, 66, 0
13, 168486, Note_on_c, 5, 69, 44
13, 168487, Note_on_c, 5, 61, 42
13, 168966, Note_on_c, 5, 69, 0
13, 168988, Note_on_c, 5, 66, 46
13, 169255, Note_on_c, 5, 61, 0
13, 169372, Note_on_c, 5, 66, 0
13, 169459, Note_on_c, 5, 71, 54
13, 169468, Note_on_c, 5, 65, 40
13, 170179, Note_on_c, 5, 71, 0
13, 170184, Note_on_c, 5, 69, 44
13, 170421, Note_on_c, 5, 71, 39
13, 170423, Note_on_c, 5, 63, 42
13, 170424, Note_on_c, 5, 69, 0
13, 170428, Note_on_c, 5, 65, 0
13, 170885, Note_on_c, 5, 68, 40
13, 170901, Note_on_c, 5, 71, 0
13, 171125, Note_on_c, 5, 68, 0
13, 171132, Note_on_c, 5, 66, 43
13, 171368, Note_on_c, 5, 69, 46
13, 171372, Note_on_c, 5, 66, 0
13, 171378, Note_on_c, 5, 61, 57
13, 171383, Note_on_c, 5, 63, 0
13, 171848, Note_on_c, 5, 69, 0
13, 171857, Note_on_c, 5, 66, 51
13, 172146, Note_on_c, 5, 61, 0
13, 172241, Note_on_c, 5, 66, 0
13, 178100, Note_on_c, 5, 58, 58
13, 178107, Note_on_c, 5, 66, 53
13, 178580, Note_on_c, 5, 58, 0
13, 178587, Note_on_c, 5, 59, 58
13, 178802, Note_on_c, 5, 64, 58
13, 178827, Note_on_c, 5, 66, 0
13, 179042, Note_on_c, 5, 64, 0
13, 179050, Note_on_c, 5, 60, 44
13, 179063, Note_on_c, 5, 66, 52
13, 179067, Note_on_c, 5, 59, 0
13, 179530, Note_on_c, 5, 60, 0
13, 179538, Note_on_c, 5, 57, 53
13, 179542, Note_on_c, 5, 61, 54
13, 179543, Note_on_c, 5, 66, 0
13, 179778, Note_on_c, 5, 57, 0
13, 179782, Note_on_c, 5, 61, 0
13, 179783, Note_on_c, 5, 59, 40
13, 179789, Note_on_c, 5, 55, 53
13, 180008, Note_on_c, 5, 64, 58
13, 180022, Note_on_c, 5, 60, 44
13, 180023, Note_on_c, 5, 59, 0
13, 180029, Note_on_c, 5, 55, 0
13, 180488, Note_on_c, 5, 64, 0
13, 180489, Note_on_c, 5, 57, 40
13, 180502, Note_on_c, 5, 60, 0
13, 180508, Note_on_c, 5, 61, 56
13, 180873, Note_on_c, 5, 57, 0
13, 180892, Note_on_c, 5, 61, 0
13, 180968, Note_on_c, 5, 66, 55
13, 181688, Note_on_c, 5, 66, 0
13, 181695, Note_on_c, 5, 64, 42
13, 181935, Note_on_c, 5, 64, 0
13, 181936, Note_on_c, 5, 66, 42
13, 182416, Note_on_c, 5, 66, 0
13, 182416, Note_on_c, 5, 61, 58
13, 182640, Note_on_c, 5, 59, 41
13, 182656, Note_on_c, 5, 61, 0
13, 182880, Note_on_c, 5, 59, 0
13, 182900, Note_on_c, 5, 64, 49
13, 183367, Note_on_c, 5, 61, 44
13, 183380, Note_on_c, 5, 64, 0
13, 183655, Note_on_c, 5, 61, 0
13, 189600, Control_c, 5, 11, 127
13, 189606, Note_on_c, 5, 66, 120
13, 189620, Control_c, 5, 11, 126
13, 189640, Control_c, 5, 11, 125
13, 189660, Control_c, 5, 11, 124
13, 189680, Control_c, 5, 11, 123
13, 189701, Control_c, 5, 11, 122
13, 189721, Control_c, 5, 11, 121
13, 189741, Control_c, 5, 11, 120
13, 189761, Control_c, 5, 11, 119
13, 189781, Control_c, 5, 11, 118
13, 189802, Control_c, 5, 11, 117
13, 189822, Control_c, 5, 11, 116
13, 189842, Control_c, 5, 11, 115
13, 189846, Note_on_c, 5, 66, 0
13, 189861, Note_on_c, 5, 68, 111
13, 189862, Control_c, 5, 11, 114
13, 189883, Control_c, 5, 11, 113
13, 189903, Control_c, 5, 11, 112
13, 189923, Control_c, 5, 11, 111
13, 189943, Control_c, 5, 11, 110
13, 189963, Control_c, 5, 11, 109
13, 189983, Control_c, 5, 11, 108
13, 190004, Control_c, 5, 11, 107
13, 190024, Control_c, 5, 11, 106
13, 190044, Control_c, 5, 11, 105
13, 190065, Control_c, 5, 11, 104
13, 190085, Control_c, 5, 11, 103
13, 190105, Control_c, 5, 11, 102
13, 190125, Control_c, 5, 11, 101
13, 190145, Control_c, 5, 11, 100
13, 190165, Control_c, 5, 11, 99
13, 190185, Control_c, 5, 11, 98
13, 190206, Control_c, 5, 11, 97
13, 190226, Control_c, 5, 11, 96
13, 190246, Control_c, 5, 11, 95
13, 190267, Control_c, 5, 11, 94
13, 190287, Control_c, 5, 11, 93
13, 190307, Control_c, 5, 11, 92
13, 190327, Control_c, 5, 11, 91
13, 190347, Control_c, 5, 11, 90
13, 190367, Control_c, 5, 11, 89
13, 190388, Control_c, 5, 11, 88
13, 190408, Control_c, 5, 11, 87
13, 190428, Control_c, 5, 11, 86
13, 190448, Control_c, 5, 11, 85
13, 190469, Control_c, 5, 11, 84
13, 190489, Control_c, 5, 11, 83
13, 190509, Control_c, 5, 11, 82
13, 190529, Control_c, 5, 11, 81
13, 190549, Control_c, 5, 11, 80
13, 190570, Control_c, 5, 11, 79
13, 190590, Control_c, 5, 11, 78
13, 190610, Control_c, 5, 11, 77
13, 190630, Control_c, 5, 11, 76
13, 190650, Control_c, 5, 11, 75
13, 190671, Control_c, 5, 11, 74
13, 190691, Control_c, 5, 11, 73
13, 190711, Control_c, 5, 11, 72
13, 190731, Control_c, 5, 11, 71
13, 190752, Control_c, 5, 11, 70
13, 190772, Control_c, 5, 11, 69
13, 190792, Control_c, 5, 11, 68
13, 190812, Control_c, 5, 11, 67
13, 190832, Control_c, 5, 11, 66
13, 190852, Control_c, 5, 11, 65
13, 190873, Control_c, 5, 11, 64
13, 190893, Control_c, 5, 11, 63
13, 190913, Control_c, 5, 11, 62
13, 190934, Control_c, 5, 11, 61
13, 190954, Control_c, 5, 11, 60
13, 190974, Control_c, 5, 11, 59
13, 190994, Control_c, 5, 11, 58
13, 191014, Control_c, 5, 11, 57
13, 191034, Control_c, 5, 11, 56
13, 191055, Control_c, 5, 11, 55
13, 191075, Control_c, 5, 11, 54
13, 191095, Control_c, 5, 11, 53
13, 191115, Control_c, 5, 11, 52
13, 191136, Control_c, 5, 11, 51
13, 191156, Control_c, 5, 11, 50
13, 191176, Control_c, 5, 11, 49
13, 191196, Control_c, 5, 11, 48
13, 191216, Control_c, 5, 11, 47
13, 191236, Control_c, 5, 11, 46
13, 191257, Control_c, 5, 11, 45
13, 191277, Control_c, 5, 11, 44
13, 191297, Control_c, 5, 11, 43
13, 191317, Control_c, 5, 11, 42
13, 191338, Control_c, 5, 11, 41
13, 191358, Control_c, 5, 11, 40
13, 191378, Control_c, 5, 11, 39
13, 191398, Control_c, 5, 11, 38
13, 191418, Control_c, 5, 11, 37
13, 191439, Control_c, 5, 11, 36
13, 191459, Control_c, 5, 11, 35
13, 191479, Control_c, 5, 11, 34
13, 191499, Control_c, 5, 11, 33
13, 191541, Note_on_c, 5, 68, 0
13, 194400, Control_c, 5, 11, 127
13, 200176, Control_c, 5, 11, 126
13, 200184, Note_on_c, 5, 69, 103
13, 200195, Control_c, 5, 11, 125
13, 200212, Control_c, 5, 11, 124
13, 200231, Control_c, 5, 11, 123
13, 200249, Control_c, 5, 11, 122
13, 200267, Control_c, 5, 11, 121
13, 200285, Control_c, 5, 11, 120
13, 200303, Control_c, 5, 11, 119
13, 200321, Control_c, 5, 11, 118
13, 200339, Control_c, 5, 11, 117
13, 200357, Control_c, 5, 11, 116
13, 200375, Control_c, 5, 11, 115
13, 200393, Control_c, 5, 11, 114
13, 200411, Control_c, 5, 11, 113
13, 200429, Control_c, 5, 11, 112
13, 200447, Control_c, 5, 11, 111
13, 200465, Control_c, 5, 11, 110
13, 200483, Control_c, 5, 11, 109
13, 200501, Control_c, 5, 11, 108
13, 200520, Control_c, 5, 11, 107
13, 200537, Control_c, 5, 11, 106
13, 200556, Control_c, 5, 11, 105
13, 200573, Control_c, 5, 11, 104
13, 200592, Control_c, 5, 11, 103
13, 200610, Control_c, 5, 11, 102
13, 200628, Control_c, 5, 11, 101
13, 200646, Control_c, 5, 11, 100
13, 200664, Control_c, 5, 11, 99
13, 200682, Control_c, 5, 11, 98
13, 200700, Control_c, 5, 11, 97
13, 200718, Control_c, 5, 11, 96
13, 200736, Control_c, 5, 11, 95
13, 200754, Control_c, 5, 11, 94
13, 200772, Control_c, 5, 11, 93
13, 200790, Control_c, 5, 11, 92
13, 200808, Control_c, 5, 11, 91
13, 200826, Control_c, 5, 11, 90
13, 200844, Control_c, 5, 11, 89
13, 200862, Control_c, 5, 11, 88
13, 200880, Control_c, 5, 11, 87
13, 200898, Control_c, 5, 11, 86
13, 200916, Control_c, 5, 11, 85
13, 200934, Control_c, 5, 11, 84
13, 200952, Control_c, 5, 11, 83
13, 200970, Control_c, 5, 11, 82
13, 200988, Control_c, 5, 11, 81
13, 201007, Control_c, 5, 11, 80
13, 201024, Control_c, 5, 11, 79
13, 201043, Control_c, 5, 11, 78
13, 201060, Control_c, 5, 11, 77
13, 201079, Control_c, 5, 11, 76
13, 201097, Control_c, 5, 11, 75
13, 201115, Control_c, 5, 11, 74
13, 201133, Control_c, 5, 11, 73
13, 201151, Control_c, 5, 11, 72
13, 201169, Control_c, 5, 11, 71
13, 201187, Control_c, 5, 11, 70
13, 201205, Control_c, 5, 11, 69
13, 201223, Control_c, 5, 11, 68
13, 201241, Control_c, 5, 11, 67
13, 201259, Control_c, 5, 11, 66
13, 201277, Control_c, 5, 11, 65
13, 201295, Control_c, 5, 11, 64
13, 201313, Control_c, 5, 11, 63
13, 201331, Control_c, 5, 11, 62
13, 201349, Control_c, 5, 11, 61
13, 201367, Control_c, 5, 11, 60
13, 201385, Control_c, 5, 11, 59
13, 201404, Control_c, 5, 11, 58
13, 201421, Control_c, 5, 11, 57
13, 201440, Control_c, 5, 11, 56
13, 201457, Control_c, 5, 11, 55
13, 201476, Control_c, 5, 11, 54
13, 201494, Control_c, 5, 11, 53
13, 201512, Control_c, 5, 11, 52
13, 201530, Control_c, 5, 11, 51
13, 201548, Control_c, 5, 11, 50
13, 201566, Control_c, 5, 11, 49
13, 201584, Control_c, 5, 11, 48
13, 201602, Control_c, 5, 11, 47
13, 201620, Control_c, 5, 11, 46
13, 202324, Note_on_c, 5, 69, 0
13, 202343, Note_on_c, 5, 69, 114
13, 203288, Note_on_c, 5, 69, 0
13, 203308, Note_on_c, 5, 69, 105
13, 204232, Note_on_c, 5, 69, 0
13, 204251, Note_on_c, 5, 69, 115
13, 204707, Note_on_c, 5, 69, 0
13, 204726, Note_on_c, 5, 69, 118
13, 205181, Note_on_c, 5, 69, 0
13, 205200, Note_on_c, 5, 69, 106
13, 205680, Note_on_c, 5, 69, 0
13, 205704, Note_on_c, 5, 69, 116
13, 206161, Note_on_c, 5, 69, 0
13, 206180, Note_on_c, 5, 69, 102
13, 206638, Note_on_c, 5, 69, 0
13, 206658, Note_on_c, 5, 69, 112
13, 207115, Note_on_c, 5, 69, 0
13, 207134, Note_on_c, 5, 69, 115
13, 207586, Note_on_c, 5, 69, 0
13, 207606, Note_on_c, 5, 69, 103
13, 208067, Note_on_c, 5, 69, 0
13, 208086, Note_on_c, 5, 69, 103
13, 208485, Note_on_c, 5, 69, 0
13, 209749, Control_c, 5, 11, 48
13, 209755, Control_c, 5, 11, 49
13, 209761, Control_c, 5, 11, 50
13, 209768, Control_c, 5, 11, 51
13, 209769, Note_on_c, 5, 67, 113
13, 209774, Control_c, 5, 11, 52
13, 209781, Control_c, 5, 11, 53
13, 209787, Control_c, 5, 11, 54
13, 209793, Control_c, 5, 11, 55
13, 209799, Control_c, 5, 11, 56
13, 209806, Control_c, 5, 11, 57
13, 209812, Control_c, 5, 11, 58
13, 209819, Control_c, 5, 11, 59
13, 209825, Control_c, 5, 11, 60
13, 209831, Control_c, 5, 11, 61
13, 209838, Control_c, 5, 11, 62
13, 209844, Control_c, 5, 11, 63
13, 209850, Control_c, 5, 11, 64
13, 209857, Control_c, 5, 11, 65
13, 209863, Control_c, 5, 11, 66
13, 209869, Control_c, 5, 11, 67
13, 209876, Control_c, 5, 11, 68
13, 209882, Control_c, 5, 11, 69
13, 209888, Control_c, 5, 11, 70
13, 209895, Control_c, 5, 11, 71
13, 209901, Control_c, 5, 11, 72
13, 209908, Control_c, 5, 11, 73
13, 209914, Control_c, 5, 11, 74
13, 209920, Control_c, 5, 11, 75
13, 209926, Control_c, 5, 11, 76
13, 209933, Control_c, 5, 11, 77
13, 209939, Control_c, 5, 11, 78
13, 209946, Control_c, 5, 11, 79
13, 209952, Control_c, 5, 11, 80
13, 209958, Control_c, 5, 11, 81
13, 209965, Control_c, 5, 11, 82
13, 209971, Control_c, 5, 11, 83
13, 209977, Control_c, 5, 11, 84
13, 209984, Control_c, 5, 11, 85
13, 209990, Control_c, 5, 11, 86
13, 209996, Control_c, 5, 11, 87
13, 210003, Control_c, 5, 11, 88
13, 210009, Control_c, 5, 11, 89
13, 210015, Control_c, 5, 11, 90
13, 210022, Control_c, 5, 11, 91
13, 210028, Control_c, 5, 11, 92
13, 210034, Control_c, 5, 11, 93
13, 210041, Control_c, 5, 11, 94
13, 210047, Control_c, 5, 11, 95
13, 210053, Control_c, 5, 11, 96
13, 210060, Control_c, 5, 11, 97
13, 210066, Control_c, 5, 11, 98
13, 210073, Control_c, 5, 11, 99
13, 210079, Control_c, 5, 11, 100
13, 210085, Control_c, 5, 11, 101
13, 210091, Control_c, 5, 11, 102
13, 210098, Control_c, 5, 11, 103
13, 210104, Control_c, 5, 11, 104
13, 210111, Control_c, 5, 11, 105
13, 210117, Control_c, 5, 11, 106
13, 210123, Control_c, 5, 11, 107
13, 210130, Control_c, 5, 11, 108
13, 210136, Control_c, 5, 11, 109
13, 210142, Control_c, 5, 11, 110
13, 210149, Control_c, 5, 11, 111
13, 210155, Control_c, 5, 11, 112
13, 210161, Control_c, 5, 11, 113
13, 210168, Control_c, 5, 11, 114
13, 210174, Control_c, 5, 11, 115
13, 210180, Control_c, 5, 11, 116
13, 210187, Control_c, 5, 11, 117
13, 210193, Control_c, 5, 11, 118
13, 210200, Control_c, 5, 11, 119
13, 210206, Control_c, 5, 11, 120
13, 210212, Control_c, 5, 11, 121
13, 210218, Control_c, 5, 11, 122
13, 210225, Control_c, 5, 11, 123
13, 210231, Control_c, 5, 11, 124
13, 210238, Control_c, 5, 11, 125
13, 210244, Control_c, 5, 11, 126
13, 210369, Note_on_c, 5, 67, 0
13, 216245, Note_on_c, 5, 61, 109
13, 216250, Note_on_c, 5, 73, 117
13, 216485, Note_on_c, 5, 61, 0
13, 216490, Note_on_c, 5, 73, 0
13, 216740, Note_on_c, 5, 66, 93
13, 216841, Note_on_c, 5, 64, 91
13, 216860, Note_on_c, 5, 66, 0
13, 216961, Note_on_c, 5, 64, 0
13, 216979, Note_on_c, 5, 63, 101
13, 217075, Note_on_c, 5, 63, 0
13, 217442, Note_on_c, 5, 61, 110
13, 217465, Note_on_c, 5, 72, 109
13, 217490, Note_on_c, 5, 61, 0
13, 217572, Note_on_c, 5, 72, 0
13, 217949, Note_on_c, 5, 66, 101
13, 218054, Note_on_c, 5, 64, 107
13, 218069, Note_on_c, 5, 66, 0
13, 218160, Note_on_c, 5, 63, 92
13, 218174, Note_on_c, 5, 64, 0
13, 218256, Note_on_c, 5, 63, 0
13, 220801, Note_on_c, 5, 61, 111
13, 220824, Note_on_c, 5, 73, 113
13, 221041, Note_on_c, 5, 61, 0
13, 221064, Note_on_c, 5, 73, 0
13, 221289, Note_on_c, 5, 66, 96
13, 221409, Note_on_c, 5, 66, 0
13, 221414, Note_on_c, 5, 64, 109
13, 221534, Note_on_c, 5, 64, 0
13, 221536, Note_on_c, 5, 63, 109
13, 221632, Note_on_c, 5, 63, 0
13, 222007, Note_on_c, 5, 61, 116
13, 222023, Note_on_c, 5, 73, 103
13, 222114, Note_on_c, 5, 61, 0
13, 222130, Note_on_c, 5, 73, 0
13, 222500, Note_on_c, 5, 61, 107
13, 222501, Note_on_c, 5, 72, 103
13, 222607, Note_on_c, 5, 61, 0
13, 222608, Note_on_c, 5, 72, 0
13, 222971, Note_on_c, 5, 66, 95
13, 223090, Note_on_c, 5, 64, 95
13, 223091, Note_on_c, 5, 66, 0
13, 223210, Note_on_c, 5, 64, 0
13, 223212, Note_on_c, 5, 63, 100
13, 223308, Note_on_c, 5, 63, 0
13, 223705, Note_on_c, 5, 73, 110
13, 223707, Note_on_c, 5, 61, 109
13, 223812, Note_on_c, 5, 73, 0
13, 223814, Note_on_c, 5, 61, 0
13, 224188, Note_on_c, 5, 66, 101
13, 224285, Note_on_c, 5, 64, 111
13, 224308, Note_on_c, 5, 66, 0
13, 224405, Note_on_c, 5, 64, 0
13, 224410, Note_on_c, 5, 63, 104
13, 224506, Note_on_c, 5, 63, 0
13, 224636, Control_c, 5, 11, 65
13, 224644, Control_c, 5, 11, 66
13, 224652, Control_c, 5, 11, 67
13, 224657, Note_on_c, 5, 67, 127
13, 224660, Control_c, 5, 11, 68
13, 224667, Control_c, 5, 11, 69
13, 224675, Control_c, 5, 11, 70
13, 224683, Control_c, 5, 11, 71
13, 224691, Control_c, 5, 11, 72
13, 224699, Control_c, 5, 11, 73
13, 224706, Control_c, 5, 11, 74
13, 224714, Control_c, 5, 11, 75
13, 224722, Control_c, 5, 11, 76
13, 224730, Control_c, 5, 11, 77
13, 224737, Control_c, 5, 11, 78
13, 224745, Control_c, 5, 11, 79
13, 224753, Control_c, 5, 11, 80
13, 224761, Control_c, 5, 11, 81
13, 224768, Control_c, 5, 11, 82
13, 224776, Control_c, 5, 11, 83
13, 224784, Control_c, 5, 11, 84
13, 224792, Control_c, 5, 11, 85
13, 224800, Control_c, 5, 11, 86
13, 224808, Control_c, 5, 11, 87
13, 224815, Control_c, 5, 11, 88
13, 224823, Control_c, 5, 11, 89
13, 224831, Control_c, 5, 11, 90
13, 224839, Control_c, 5, 11, 91
13, 224847, Control_c, 5, 11, 92
13, 224854, Control_c, 5, 11, 93
13, 224862, Control_c, 5, 11, 94
13, 224870, Control_c, 5, 11, 95
13, 224878, Control_c, 5, 11, 96
13, 224886, Control_c, 5, 11, 97
13, 224894, Control_c, 5, 11, 98
13, 224901, Control_c, 5, 11, 99
13, 224909, Control_c, 5, 11, 100
13, 224917, Control_c, 5, 11, 101
13, 224925, Control_c, 5, 11, 102
13, 224932, Control_c, 5, 11, 103
13, 224940, Control_c, 5, 11, 104
13, 224948, Control_c, 5, 11, 105
13, 224956, Control_c, 5, 11, 106
13, 224963, Control_c, 5, 11, 107
13, 224971, Control_c, 5, 11, 108
13, 224979, Control_c, 5, 11, 109
13, 224987, Control_c, 5, 11, 110
13, 224995, Control_c, 5, 11, 111
13, 225002, Control_c, 5, 11, 112
13, 225010, Control_c, 5, 11, 113
13, 225018, Control_c, 5, 11, 114
13, 225026, Control_c, 5, 11, 115
13, 225034, Control_c, 5, 11, 116
13, 225042, Control_c, 5, 11, 117
13, 225049, Control_c, 5, 11, 118
13, 225057, Control_c, 5, 11, 119
13, 225065, Control_c, 5, 11, 120
13, 225073, Control_c, 5, 11, 121
13, 225081, Control_c, 5, 11, 122
13, 225088, Control_c, 5, 11, 123
13, 225096, Control_c, 5, 11, 124
13, 225104, Control_c, 5, 11, 125
13, 225112, Control_c, 5, 11, 126
13, 225129, Note_on_c, 5, 66, 83
13, 225142, Note_on_c, 5, 61, 92
13, 225249, Note_on_c, 5, 66, 0
13, 225257, Note_on_c, 5, 67, 0
13, 225262, Note_on_c, 5, 61, 0
13, 225604, Note_on_c, 5, 53, 118
13, 225711, Note_on_c, 5, 53, 0
13, 226094, Note_on_c, 5, 53, 107
13, 226201, Note_on_c, 5, 53, 0
13, 226576, Note_on_c, 5, 53, 100
13, 226683, Note_on_c, 5, 53, 0
13, 227053, Note_on_c, 5, 53, 120
13, 227160, Note_on_c, 5, 53, 0
13, 227545, Note_on_c, 5, 53, 112
13, 227652, Note_on_c, 5, 53, 0
13, 228011, Note_on_c, 5, 53, 106
13, 228118, Note_on_c, 5, 53, 0
13, 228485, Note_on_c, 5, 53, 117
13, 228592, Note_on_c, 5, 53, 0
13, 229449, Note_on_c, 5, 67, 126
13, 229923, Note_on_c, 5, 67, 0
13, 229937, Note_on_c, 5, 66, 79
13, 229941, Note_on_c, 5, 61, 78
13, 229942, Note_on_c, 5, 67, 79
13, 230057, Note_on_c, 5, 66, 0
13, 230061, Note_on_c, 5, 61, 0
13, 230062, Note_on_c, 5, 67, 0
13, 230419, Note_on_c, 5, 53, 105
13, 230526, Note_on_c, 5, 53, 0
13, 230903, Note_on_c, 5, 53, 107
13, 231010, Note_on_c, 5, 53, 0
13, 231388, Note_on_c, 5, 53, 117
13, 231495, Note_on_c, 5, 53, 0
13, 231840, Note_on_c, 5, 53, 110
13, 231947, Note_on_c, 5, 53, 0
13, 232320, Note_on_c, 5, 53, 110
13, 232427, Note_on_c, 5, 53, 0
13, 232814, Note_on_c, 5, 53, 119
13, 232921, Note_on_c, 5, 53, 0
13, 233524, Note_on_c, 5, 73, 104
13, 233532, Note_on_c, 5, 61, 105
13, 233631, Note_on_c, 5, 73, 0
13, 233639, Note_on_c, 5, 61, 0
13, 234027, Note_on_c, 5, 66, 103
13, 234132, Note_on_c, 5, 64, 109
13, 234147, Note_on_c, 5, 66, 0
13, 234252, Note_on_c, 5, 64, 0
13, 234263, Note_on_c, 5, 63, 107
13, 234359, Note_on_c, 5, 63, 0
13, 234476, Control_c, 5, 11, 65
13, 234484, Control_c, 5, 11, 66
13, 234492, Control_c, 5, 11, 67
13, 234500, Control_c, 5, 11, 68
13, 234505, Note_on_c, 5, 67, 121
13, 234507, Control_c, 5, 11, 69
13, 234515, Control_c, 5, 11, 70
13, 234523, Control_c, 5, 11, 71
13, 234531, Control_c, 5, 11, 72
13, 234539, Control_c, 5, 11, 73
13, 234546, Control_c, 5, 11, 74
13, 234554, Control_c, 5, 11, 75
13, 234562, Control_c, 5, 11, 76
13, 234570, Control_c, 5, 11, 77
13, 234577, Control_c, 5, 11, 78
13, 234585, Control_c, 5, 11, 79
13, 234593, Control_c, 5, 11, 80
13, 234601, Control_c, 5, 11, 81
13, 234608, Control_c, 5, 11, 82
13, 234616, Control_c, 5, 11, 83
13, 234624, Control_c, 5, 11, 84
13, 234632, Control_c, 5, 11, 85
13, 234640, Control_c, 5, 11, 86
13, 234648, Control_c, 5, 11, 87
13, 234655, Control_c, 5, 11, 88
13, 234663, Control_c, 5, 11, 89
13, 234671, Control_c, 5, 11, 90
13, 234679, Control_c, 5, 11, 91
13, 234687, Control_c, 5, 11, 92
13, 234694, Control_c, 5, 11, 93
13, 234702, Control_c, 5, 11, 94
13, 234710, Control_c, 5, 11, 95
13, 234718, Control_c, 5, 11, 96
13, 234726, Control_c, 5, 11, 97
13, 234734, Control_c, 5, 11, 98
13, 234741, Control_c, 5, 11, 99
13, 234749, Control_c, 5, 11, 100
13, 234757, Control_c, 5, 11, 101
13, 234765, Control_c, 5, 11, 102
13, 234772, Control_c, 5, 11, 103
13, 234780, Control_c, 5, 11, 104
13, 234788, Control_c, 5, 11, 105
13, 234796, Control_c, 5, 11, 106
13, 234803, Control_c, 5, 11, 107
13, 234811, Control_c, 5, 11, 108
13, 234819, Control_c, 5, 11, 109
13, 234827, Control_c, 5, 11, 110
13, 234835, Control_c, 5, 11, 111
13, 234842, Control_c, 5, 11, 112
13, 234850, Control_c, 5, 11, 113
13, 234858, Control_c, 5, 11, 114
13, 234866, Control_c, 5, 11, 115
13, 234874, Control_c, 5, 11, 116
13, 234882, Control_c, 5, 11, 117
13, 234889, Control_c, 5, 11, 118
13, 234897, Control_c, 5, 11, 119
13, 234905, Control_c, 5, 11, 120
13, 234913, Control_c, 5, 11, 121
13, 234921, Control_c, 5, 11, 122
13, 234928, Control_c, 5, 11, 123
13, 234936, Control_c, 5, 11, 124
13, 234944, Control_c, 5, 11, 125
13, 234952, Control_c, 5, 11, 126
13, 234965, Note_on_c, 5, 66, 87
13, 234985, Note_on_c, 5, 61, 88
13, 235085, Note_on_c, 5, 66, 0
13, 235105, Note_on_c, 5, 67, 0
13, 235105, Note_on_c, 5, 61, 0
13, 235466, Note_on_c, 5, 53, 114
13, 235573, Note_on_c, 5, 53, 0
13, 235933, Note_on_c, 5, 53, 109
13, 236040, Note_on_c, 5, 53, 0
13, 236414, Note_on_c, 5, 53, 110
13, 236521, Note_on_c, 5, 53, 0
13, 236904, Note_on_c, 5, 53, 100
13, 237011, Note_on_c, 5, 53, 0
13, 237379, Note_on_c, 5, 53, 104
13, 237486, Note_on_c, 5, 53, 0
13, 237868, Note_on_c, 5, 53, 112
13, 237975, Note_on_c, 5, 53, 0
13, 238561, Note_on_c, 5, 63, 92
13, 238657, Note_on_c, 5, 63, 0
13, 239045, Note_on_c, 5, 62, 90
13, 239141, Note_on_c, 5, 62, 0
13, 239545, Note_on_c, 5, 60, 83
13, 239641, Note_on_c, 5, 60, 0
13, 240011, Note_on_c, 5, 61, 116
13, 240016, Note_on_c, 5, 72, 113
13, 240118, Note_on_c, 5, 61, 0
13, 240123, Note_on_c, 5, 72, 0
13, 240495, Note_on_c, 5, 66, 111
13, 240615, Note_on_c, 5, 66, 0
13, 240618, Note_on_c, 5, 64, 107
13, 240728, Note_on_c, 5, 63, 109
13, 240738, Note_on_c, 5, 64, 0
13, 240824, Note_on_c, 5, 63, 0
13, 241204, Note_on_c, 5, 63, 92
13, 241300, Note_on_c, 5, 63, 0
13, 241693, Note_on_c, 5, 62, 85
13, 241789, Note_on_c, 5, 62, 0
13, 242179, Note_on_c, 5, 60, 88
13, 242275, Note_on_c, 5, 60, 0
13, 242652, Note_on_c, 5, 59, 84
13, 242748, Note_on_c, 5, 59, 0
13, 243380, Note_on_c, 5, 61, 115
13, 243384, Note_on_c, 5, 72, 109
13, 243487, Note_on_c, 5, 61, 0
13, 243491, Note_on_c, 5, 72, 0
13, 243860, Note_on_c, 5, 66, 91
13, 243980, Note_on_c, 5, 66, 0
13, 243983, Note_on_c, 5, 64, 109
13, 244103, Note_on_c, 5, 64, 0
13, 244104, Note_on_c, 5, 63, 101
13, 244200, Note_on_c, 5, 63, 0
13, 244571, Note_on_c, 5, 72, 103
13, 244576, Note_on_c, 5, 61, 116
13, 244678, Note_on_c, 5, 72, 0
13, 244683, Note_on_c, 5, 61, 0
13, 245042, Note_on_c, 5, 66, 110
13, 245162, Note_on_c, 5, 66, 0
13, 245188, Note_on_c, 5, 64, 103
13, 245281, Note_on_c, 5, 63, 98
13, 245308, Note_on_c, 5, 64, 0
13, 245377, Note_on_c, 5, 63, 0
13, 245768, Note_on_c, 5, 73, 105
13, 245772, Note_on_c, 5, 61, 108
13, 245875, Note_on_c, 5, 73, 0
13, 245879, Note_on_c, 5, 61, 0
13, 246252, Note_on_c, 5, 61, 94
13, 246268, Note_on_c, 5, 72, 107
13, 246359, Note_on_c, 5, 61, 0
13, 246375, Note_on_c, 5, 72, 0
13, 246739, Note_on_c, 5, 66, 94
13, 246850, Note_on_c, 5, 64, 111
13, 246859, Note_on_c, 5, 66, 0
13, 246970, Note_on_c, 5, 64, 0
13, 246976, Note_on_c, 5, 63, 95
13, 247072, Note_on_c, 5, 63, 0
13, 247451, Note_on_c, 5, 72, 108
13, 247455, Note_on_c, 5, 61, 100
13, 247558, Note_on_c, 5, 72, 0
13, 247562, Note_on_c, 5, 61, 0
13, 247936, Note_on_c, 5, 66, 102
13, 248055, Note_on_c, 5, 64, 106
13, 248056, Note_on_c, 5, 66, 0
13, 248175, Note_on_c, 5, 64, 0
13, 248178, Note_on_c, 5, 63, 99
13, 248274, Note_on_c, 5, 63, 0
13, 249132, Note_on_c, 5, 53, 94
13, 249147, Note_on_c, 5, 65, 107
13, 249299, Note_on_c, 5, 53, 0
13, 249314, Note_on_c, 5, 65, 0
13, 249604, Note_on_c, 5, 76, 95
13, 249622, Note_on_c, 5, 64, 94
13, 249771, Note_on_c, 5, 76, 0
13, 249789, Note_on_c, 5, 64, 0
13, 250095, Note_on_c, 5, 66, 93
13, 250104, Note_on_c, 5, 54, 96
13, 250262, Note_on_c, 5, 66, 0
13, 250271, Note_on_c, 5, 54, 0
13, 250814, Note_on_c, 5, 65, 109
13, 250882, Note_on_c, 5, 65, 0
13, 250887, Note_on_c, 5, 67, 109
13, 250939, Note_on_c, 5, 69, 102
13, 250956, Note_on_c, 5, 67, 0
13, 251007, Note_on_c, 5, 69, 0
13, 251015, Note_on_c, 5, 72, 102
13, 251083, Note_on_c, 5, 72, 0
13, 251102, Note_on_c, 5, 73, 98
13, 251157, Note_on_c, 5, 75, 108
13, 251170, Note_on_c, 5, 73, 0
13, 251219, Note_on_c, 5, 76, 93
13, 251226, Note_on_c, 5, 75, 0
13, 251287, Note_on_c, 5, 76, 0
13, 251291, Note_on_c, 5, 77, 95
13, 251304, Note_on_c, 5, 53, 108
13, 251458, Note_on_c, 5, 77, 0
13, 251471, Note_on_c, 5, 53, 0
13, 251763, Note_on_c, 5, 76, 95
13, 251780, Note_on_c, 5, 64, 95
13, 251930, Note_on_c, 5, 76, 0
13, 251947, Note_on_c, 5, 64, 0
13, 252260, Note_on_c, 5, 64, 92
13, 252268, Note_on_c, 5, 76, 101
13, 252427, Note_on_c, 5, 64, 0
13, 252435, Note_on_c, 5, 76, 0
13, 252724, Note_on_c, 5, 54, 111
13, 252727, Note_on_c, 5, 66, 91
13, 252891, Note_on_c, 5, 54, 0
13, 252894, Note_on_c, 5, 66, 0
13, 253925, Note_on_c, 5, 65, 106
13, 253929, Note_on_c, 5, 53, 109
13, 254092, Note_on_c, 5, 65, 0
13, 254096, Note_on_c, 5, 53, 0
13, 254400, Note_on_c, 5, 64, 102
13, 254425, Note_on_c, 5, 76, 99
13, 254567, Note_on_c, 5, 64, 0
13, 254592, Note_on_c, 5, 76, 0
13, 254899, Note_on_c, 5, 66, 108
13, 254899, Note_on_c, 5, 54, 102
13, 255066, Note_on_c, 5, 66, 0
13, 255066, Note_on_c, 5, 54, 0
13, 255366, Note_on_c, 5, 64, 107
13, 255387, Note_on_c, 5, 76, 109
13, 255726, Note_on_c, 5, 64, 0
13, 255747, Note_on_c, 5, 76, 0
13, 255855, Note_on_c, 5, 53, 91
13, 255858, Note_on_c, 5, 65, 99
13, 256215, Note_on_c, 5, 53, 0
13, 256218, Note_on_c, 5, 65, 0
13, 256340, Note_on_c, 5, 76, 100
13, 256341, Note_on_c, 5, 64, 110
13, 256700, Note_on_c, 5, 76, 0
13, 256701, Note_on_c, 5, 64, 0
13, 259223, Note_on_c, 5, 76, 98
13, 259225, Note_on_c, 5, 64, 102
13, 259583, Note_on_c, 5, 76, 0
13, 259585, Note_on_c, 5, 64, 0
13, 259696, Note_on_c, 5, 53, 101
13, 259699, Note_on_c, 5, 65, 97
13, 260056, Note_on_c, 5, 53, 0
13, 260059, Note_on_c, 5, 65, 0
13, 260175, Note_on_c, 5, 76, 106
13, 260185, Note_on_c, 5, 64, 97
13, 260535, Note_on_c, 5, 76, 0
13, 260545, Note_on_c, 5, 64, 0
13, 260644, Note_on_c, 5, 53, 95
13, 260668, Note_on_c, 5, 65, 103
13, 261004, Note_on_c, 5, 53, 0
13, 261028, Note_on_c, 5, 65, 0
13, 261120, Note_on_c, 5, 64, 102
13, 261122, Note_on_c, 5, 76, 92
13, 261480, Note_on_c, 5, 64, 0
13, 261482, Note_on_c, 5, 76, 0
13, 261601, Note_on_c, 5, 65, 101
13, 261625, Note_on_c, 5, 53, 109
13, 261961, Note_on_c, 5, 65, 0
13, 261985, Note_on_c, 5, 53, 0
13, 262090, Note_on_c, 5, 76, 96
13, 262104, Note_on_c, 5, 64, 109
13, 262450, Note_on_c, 5, 76, 0
13, 262464, Note_on_c, 5, 64, 0
13, 262560, Note_on_c, 5, 65, 109
13, 262565, Note_on_c, 5, 53, 93
13, 262920, Note_on_c, 5, 65, 0
13, 262925, Note_on_c, 5, 53, 0
13, 263046, Note_on_c, 5, 64, 101
13, 263068, Note_on_c, 5, 76, 111
13, 263406, Note_on_c, 5, 64, 0
13, 263428, Note_on_c, 5, 76, 0
13, 263523, Note_on_c, 5, 53, 98
13, 263542, Note_on_c, 5, 65, 93
13, 263923, Note_on_c, 5, 53, 0
13, 263942, Note_on_c, 5, 65, 0
13, 264000, Note_on_c, 5, 64, 104
13, 264003, Note_on_c, 5, 76, 109
13, 264400, Note_on_c, 5, 64, 0
13, 264403, Note_on_c, 5, 76, 0
13, 277708, Note_on_c, 5, 70, 83
13, 277828, Note_on_c, 5, 70, 0
13, 278184, Note_on_c, 5, 72, 93
13, 278304, Note_on_c, 5, 72, 0
13, 278653, Note_on_c, 5, 73, 88
13, 278773, Note_on_c, 5, 73, 0
13, 279135, Note_on_c, 5, 70, 95
13, 279255, Note_on_c, 5, 70, 0
13, 279620, Note_on_c, 5, 73, 97
13, 279740, Note_on_c, 5, 73, 0
13, 281546, Note_on_c, 5, 70, 91
13, 281666, Note_on_c, 5, 70, 0
13, 282016, Note_on_c, 5, 72, 91
13, 282136, Note_on_c, 5, 72, 0
13, 282489, Note_on_c, 5, 73, 79
13, 282609, Note_on_c, 5, 73, 0
13, 282976, Note_on_c, 5, 70, 95
13, 283096, Note_on_c, 5, 70, 0
13, 283452, Note_on_c, 5, 73, 83
13, 283572, Note_on_c, 5, 73, 0
13, 283939, Note_on_c, 5, 72, 88
13, 284059, Note_on_c, 5, 72, 0
13, 285362, Note_on_c, 5, 70, 78
13, 285482, Note_on_c, 5, 70, 0
13, 285844, Note_on_c, 5, 72, 96
13, 285964, Note_on_c, 5, 72, 0
13, 286325, Note_on_c, 5, 73, 89
13, 286445, Note_on_c, 5, 73, 0
13, 288018, Note_on_c, 5, 51, 85
13, 288023, Note_on_c, 5, 63, 85
13, 288138, Note_on_c, 5, 51, 0
13, 288143, Note_on_c, 5, 63, 0
13, 288240, Note_on_c, 5, 70, 98
13, 288244, Note_on_c, 5, 58, 93
13, 288360, Note_on_c, 5, 70, 0
13, 288364, Note_on_c, 5, 58, 0
13, 288490, Note_on_c, 5, 63, 94
13, 288507, Note_on_c, 5, 75, 88
13, 288610, Note_on_c, 5, 63, 0
13, 288627, Note_on_c, 5, 75, 0
13, 288731, Note_on_c, 5, 60, 79
13, 288738, Note_on_c, 5, 72, 85
13, 288851, Note_on_c, 5, 60, 0
13, 288858, Note_on_c, 5, 72, 0
13, 288974, Note_on_c, 5, 68, 95
13, 288986, Note_on_c, 5, 56, 95
13, 289094, Note_on_c, 5, 68, 0
13, 289106, Note_on_c, 5, 56, 0
13, 289203, Note_on_c, 5, 52, 95
13, 289224, Note_on_c, 5, 58, 87
13, 289225, Note_on_c, 5, 70, 93
13, 289443, Note_on_c, 5, 52, 0
13, 289464, Note_on_c, 5, 58, 0
13, 289465, Note_on_c, 5, 70, 0
13, 290183, Note_on_c, 5, 57, 83
13, 290234, Note_on_c, 5, 60, 87
13, 290243, Note_on_c, 5, 57, 0
13, 290292, Note_on_c, 5, 63, 102
13, 290294, Note_on_c, 5, 60, 0
13, 290352, Note_on_c, 5, 63, 0
13, 290360, Note_on_c, 5, 65, 107
13, 290417, Note_on_c, 5, 67, 106
13, 290420, Note_on_c, 5, 65, 0
13, 290477, Note_on_c, 5, 67, 0
13, 290479, Note_on_c, 5, 69, 108
13, 290528, Note_on_c, 5, 72, 115
13, 290539, Note_on_c, 5, 69, 0
13, 290588, Note_on_c, 5, 72, 0
13, 290598, Note_on_c, 5, 73, 127
13, 290644, Note_on_c, 5, 75, 118
13, 290658, Note_on_c, 5, 73, 0
13, 290884, Note_on_c, 5, 75, 0
13, 290902, Note_on_c, 5, 61, 103
13, 290903, Note_on_c, 5, 68, 102
13, 291009, Note_on_c, 5, 61, 0
13, 291010, Note_on_c, 5, 68, 0
13, 291383, Note_on_c, 5, 66, 110
13, 291495, Note_on_c, 5, 64, 95
13, 291503, Note_on_c, 5, 66, 0
13, 291613, Note_on_c, 5, 63, 101
13, 291615, Note_on_c, 5, 64, 0
13, 291709, Note_on_c, 5, 63, 0
13, 292082, Note_on_c, 5, 61, 111
13, 292093, Note_on_c, 5, 68, 100
13, 292189, Note_on_c, 5, 61, 0
13, 292200, Note_on_c, 5, 68, 0
13, 292571, Note_on_c, 5, 66, 111
13, 292680, Note_on_c, 5, 64, 102
13, 292691, Note_on_c, 5, 66, 0
13, 292800, Note_on_c, 5, 64, 0
13, 292809, Note_on_c, 5, 63, 96
13, 292905, Note_on_c, 5, 63, 0
13, 295449, Note_on_c, 5, 61, 100
13, 295461, Note_on_c, 5, 73, 104
13, 295689, Note_on_c, 5, 61, 0
13, 295701, Note_on_c, 5, 73, 0
13, 295942, Note_on_c, 5, 66, 106
13, 296040, Note_on_c, 5, 64, 100
13, 296062, Note_on_c, 5, 66, 0
13, 296160, Note_on_c, 5, 64, 0
13, 296186, Note_on_c, 5, 63, 95
13, 296282, Note_on_c, 5, 63, 0
13, 296642, Note_on_c, 5, 73, 108
13, 296644, Note_on_c, 5, 61, 104
13, 296749, Note_on_c, 5, 73, 0
13, 296751, Note_on_c, 5, 61, 0
13, 297123, Note_on_c, 5, 61, 120
13, 297131, Note_on_c, 5, 72, 103
13, 297230, Note_on_c, 5, 61, 0
13, 297238, Note_on_c, 5, 72, 0
13, 297605, Note_on_c, 5, 66, 108
13, 297725, Note_on_c, 5, 66, 0
13, 297743, Note_on_c, 5, 64, 93
13, 297846, Note_on_c, 5, 63, 92
13, 297863, Note_on_c, 5, 64, 0
13, 297942, Note_on_c, 5, 63, 0
13, 298323, Note_on_c, 5, 61, 102
13, 298330, Note_on_c, 5, 73, 111
13, 298563, Note_on_c, 5, 61, 0
13, 298570, Note_on_c, 5, 73, 0
13, 298824, Note_on_c, 5, 66, 96
13, 298939, Note_on_c, 5, 64, 98
13, 298944, Note_on_c, 5, 66, 0
13, 299040, Note_on_c, 5, 63, 103
13, 299059, Note_on_c, 5, 64, 0
13, 299136, Note_on_c, 5, 63, 0
13, 299545, Note_on_c, 5, 63, 86
13, 299641, Note_on_c, 5, 63, 0
13, 300006, Note_on_c, 5, 62, 93
13, 300102, Note_on_c, 5, 62, 0
13, 300484, Note_on_c, 5, 60, 84
13, 300580, Note_on_c, 5, 60, 0
13, 300974, Note_on_c, 5, 61, 101
13, 300982, Note_on_c, 5, 72, 118
13, 301081, Note_on_c, 5, 61, 0
13, 301089, Note_on_c, 5, 72, 0
13, 301442, Note_on_c, 5, 66, 109
13, 301562, Note_on_c, 5, 66, 0
13, 301569, Note_on_c, 5, 64, 101
13, 301689, Note_on_c, 5, 64, 0
13, 301693, Note_on_c, 5, 63, 101
13, 301789, Note_on_c, 5, 63, 0
13, 302164, Note_on_c, 5, 63, 98
13, 302260, Note_on_c, 5, 63, 0
13, 302648, Note_on_c, 5, 62, 90
13, 302744, Note_on_c, 5, 62, 0
13, 303126, Note_on_c, 5, 60, 93
13, 303222, Note_on_c, 5, 60, 0
13, 303617, Note_on_c, 5, 59, 95
13, 303713, Note_on_c, 5, 59, 0
13, 304337, Note_on_c, 5, 72, 116
13, 304343, Note_on_c, 5, 61, 117
13, 304444, Note_on_c, 5, 72, 0
13, 304450, Note_on_c, 5, 61, 0
13, 304808, Note_on_c, 5, 66, 91
13, 304925, Note_on_c, 5, 64, 105
13, 304928, Note_on_c, 5, 66, 0
13, 305042, Note_on_c, 5, 63, 93
13, 305045, Note_on_c, 5, 64, 0
13, 305138, Note_on_c, 5, 63, 0
13, 305523, Note_on_c, 5, 72, 116
13, 305528, Note_on_c, 5, 61, 116
13, 305630, Note_on_c, 5, 72, 0
13, 305635, Note_on_c, 5, 61, 0
13, 306027, Note_on_c, 5, 66, 95
13, 306140, Note_on_c, 5, 64, 95
13, 306147, Note_on_c, 5, 66, 0
13, 306247, Note_on_c, 5, 63, 93
13, 306260, Note_on_c, 5, 64, 0
13, 306343, Note_on_c, 5, 63, 0
13, 306727, Note_on_c, 5, 73, 110
13, 306740, Note_on_c, 5, 61, 104
13, 306834, Note_on_c, 5, 73, 0
13, 306847, Note_on_c, 5, 61, 0
13, 307204, Note_on_c, 5, 72, 113
13, 307222, Note_on_c, 5, 61, 111
13, 307311, Note_on_c, 5, 72, 0
13, 307329, Note_on_c, 5, 61, 0
13, 307704, Note_on_c, 5, 66, 97
13, 307824, Note_on_c, 5, 66, 0
13, 307827, Note_on_c, 5, 64, 104
13, 307939, Note_on_c, 5, 63, 105
13, 307947, Note_on_c, 5, 64, 0
13, 308035, Note_on_c, 5, 63, 0
13, 308412, Note_on_c, 5, 72, 100
13, 308426, Note_on_c, 5, 61, 104
13, 308519, Note_on_c, 5, 72, 0
13, 308533, Note_on_c, 5, 61, 0
13, 308905, Note_on_c, 5, 66, 93
13, 309025, Note_on_c, 5, 66, 0
13, 309025, Note_on_c, 5, 64, 91
13, 309136, Note_on_c, 5, 63, 100
13, 309145, Note_on_c, 5, 64, 0
13, 309232, Note_on_c, 5, 63, 0
13, 318009, Note_on_c, 5, 69, 85
13, 318017, Note_on_c, 5, 57, 81
13, 318849, Note_on_c, 5, 69, 0
13, 318857, Note_on_c, 5, 57, 0
13, 318985, Note_on_c, 5, 57, 82
13, 318986, Note_on_c, 5, 69, 94
13, 319345, Note_on_c, 5, 57, 0
13, 319346, Note_on_c, 5, 69, 0
13, 319464, Note_on_c, 5, 57, 89
13, 319468, Note_on_c, 5, 69, 87
13, 319824, Note_on_c, 5, 57, 0
13, 319828, Note_on_c, 5, 69, 0
13, 319941, Note_on_c, 5, 55, 95
13, 319941, Note_on_c, 5, 67, 87
13, 320301, Note_on_c, 5, 55, 0
13, 320301, Note_on_c, 5, 67, 0
13, 320401, Note_on_c, 5, 69, 93
13, 320405, Note_on_c, 5, 57, 80
13, 320761, Note_on_c, 5, 69, 0
13, 320765, Note_on_c, 5, 57, 0
13, 320883, Note_on_c, 5, 67, 96
13, 320902, Note_on_c, 5, 55, 94
13, 321243, Note_on_c, 5, 67, 0
13, 321262, Note_on_c, 5, 55, 0
13, 321365, Note_on_c, 5, 57, 98
13, 321366, Note_on_c, 5, 69, 96
13, 322205, Note_on_c, 5, 57, 0
13, 322206, Note_on_c, 5, 69, 0
13, 322339, Note_on_c, 5, 69, 78
13, 322345, Note_on_c, 5, 57, 78
13, 322699, Note_on_c, 5, 69, 0
13, 322705, Note_on_c, 5, 57, 0
13, 322810, Note_on_c, 5, 57, 87
13, 322812, Note_on_c, 5, 69, 91
13, 323170, Note_on_c, 5, 57, 0
13, 323172, Note_on_c, 5, 69, 0
13, 323281, Note_on_c, 5, 55, 79
13, 323294, Note_on_c, 5, 67, 97
13, 323641, Note_on_c, 5, 55, 0
13, 323654, Note_on_c, 5, 67, 0
13, 323776, Note_on_c, 5, 57, 84
13, 323781, Note_on_c, 5, 69, 88
13, 324136, Note_on_c, 5, 57, 0
13, 324141, Note_on_c, 5, 69, 0
13, 340571, Note_on_c, 5, 69, 94
13, 340578, Note_on_c, 5, 57, 83
13, 340931, Note_on_c, 5, 69, 0
13, 340938, Note_on_c, 5, 57, 0
13, 341040, Note_on_c, 5, 69, 90
13, 341046, Note_on_c, 5, 57, 88
13, 341400, Note_on_c, 5, 69, 0
13, 341406, Note_on_c, 5, 57, 0
13, 341530, Note_on_c, 5, 67, 78
13, 341537, Note_on_c, 5, 55, 94
13, 341890, Note_on_c, 5, 67, 0
13, 341897, Note_on_c, 5, 55, 0
13, 342010, Note_on_c, 5, 69, 88
13, 342010, Note_on_c, 5, 57, 89
13, 342370, Note_on_c, 5, 69, 0
13, 342370, Note_on_c, 5, 57, 0
13, 342489, Note_on_c, 5, 55, 88
13, 342497, Note_on_c, 5, 67, 98
13, 342849, Note_on_c, 5, 55, 0
13, 342857, Note_on_c, 5, 67, 0
13, 342970, Note_on_c, 5, 69, 95
13, 342974, Note_on_c, 5, 57, 83
13, 343330, Note_on_c, 5, 69, 0
13, 343334, Note_on_c, 5, 57, 0
13, 343933, Note_on_c, 5, 69, 95
13, 343940, Note_on_c, 5, 57, 81
13, 344293, Note_on_c, 5, 69, 0
13, 344300, Note_on_c, 5, 57, 0
13, 344418, Note_on_c, 5, 57, 78
13, 344419, Note_on_c, 5, 69, 90
13, 344778, Note_on_c, 5, 57, 0
13, 344779, Note_on_c, 5, 69, 0
13, 344904, Note_on_c, 5, 55, 82
13, 344906, Note_on_c, 5, 67, 95
13, 345264, Note_on_c, 5, 55, 0
13, 345266, Note_on_c, 5, 67, 0
13, 345362, Note_on_c, 5, 57, 97
13, 345375, Note_on_c, 5, 69, 91
13, 345722, Note_on_c, 5, 57, 0
13, 345735, Note_on_c, 5, 69, 0
13, 345845, Note_on_c, 5, 67, 82
13, 345858, Note_on_c, 5, 55, 97
13, 346205, Note_on_c, 5, 67, 0
13, 346218, Note_on_c, 5, 55, 0
13, 346327, Note_on_c, 5, 69, 80
13, 346341, Note_on_c, 5, 57, 83
13, 346687, Note_on_c, 5, 69, 0
13, 346701, Note_on_c, 5, 57, 0
13, 346806, Note_on_c, 5, 67, 93
13, 346827, Note_on_c, 5, 55, 96
13, 347166, Note_on_c, 5, 67, 0
13, 347187, Note_on_c, 5, 55, 0
13, 347281, Note_on_c, 5, 67, 84
13, 347300, Note_on_c, 5, 55, 81
13, 347641, Note_on_c, 5, 67, 0
13, 347660, Note_on_c, 5, 55, 0
13, 347762, Note_on_c, 5, 69, 78
13, 347783, Note_on_c, 5, 57, 97
13, 348602, Note_on_c, 5, 69, 0
13, 348623, Note_on_c, 5, 57, 0
13, 348722, Note_on_c, 5, 69, 92
13, 348729, Note_on_c, 5, 57, 84
13, 349082, Note_on_c, 5, 69, 0
13, 349089, Note_on_c, 5, 57, 0
13, 349204, Note_on_c, 5, 57, 79
13, 349218, Note_on_c, 5, 69, 82
13, 349564, Note_on_c, 5, 57, 0
13, 349578, Note_on_c, 5, 69, 0
13, 349696, Note_on_c, 5, 67, 83
13, 349704, Note_on_c, 5, 55, 90
13, 350056, Note_on_c, 5, 67, 0
13, 350064, Note_on_c, 5, 55, 0
13, 350161, Note_on_c, 5, 57, 94
13, 350169, Note_on_c, 5, 69, 96
13, 350521, Note_on_c, 5, 57, 0
13, 350529, Note_on_c, 5, 69, 0
13, 350644, Note_on_c, 5, 55, 91
13, 350646, Note_on_c, 5, 67, 85
13, 351004, Note_on_c, 5, 55, 0
13, 351006, Note_on_c, 5, 67, 0
13, 351136, Note_on_c, 5, 57, 94
13, 351139, Note_on_c, 5, 69, 98
13, 351496, Note_on_c, 5, 57, 0
13, 351499, Note_on_c, 5, 69, 0
13, 383284, Note_on_c, 5, 57, 102
13, 383293, Note_on_c, 5, 69, 106
13, 383524, Note_on_c, 5, 57, 0
13, 383533, Note_on_c, 5, 69, 0
13, 383761, Note_on_c, 5, 69, 103
13, 383776, Note_on_c, 5, 57, 106
13, 384001, Note_on_c, 5, 69, 0
13, 384016, Note_on_c, 5, 57, 0
13, 384246, Note_on_c, 5, 67, 99
13, 384248, Note_on_c, 5, 55, 96
13, 384486, Note_on_c, 5, 67, 0
13, 384488, Note_on_c, 5, 55, 0
13, 384725, Note_on_c, 5, 57, 103
13, 384731, Note_on_c, 5, 69, 107
13, 384965, Note_on_c, 5, 57, 0
13, 384971, Note_on_c, 5, 69, 0
13, 385211, Note_on_c, 5, 55, 99
13, 385220, Note_on_c, 5, 67, 109
13, 385451, Note_on_c, 5, 55, 0
13, 385460, Note_on_c, 5, 67, 0
13, 385699, Note_on_c, 5, 57, 111
13, 385705, Note_on_c, 5, 69, 91
13, 385939, Note_on_c, 5, 57, 0
13, 385945, Note_on_c, 5, 69, 0
13, 387099, Control_c, 5, 7, 64
13, 389534, Note_on_c, 5, 54, 40
13, 389774, Note_on_c, 5, 54, 0
13, 390016, Note_on_c, 5, 54, 47
13, 390256, Note_on_c, 5, 54, 0
13, 390494, Note_on_c, 5, 54, 41
13, 390734, Note_on_c, 5, 54, 0
13, 390986, Note_on_c, 5, 54, 50
13, 391226, Note_on_c, 5, 54, 0
13, 391455, Note_on_c, 5, 54, 43
13, 391457, Note_on_c, 5, 65, 44
13, 391695, Note_on_c, 5, 54, 0
13, 391697, Note_on_c, 5, 65, 0
13, 391920, Note_on_c, 5, 65, 44
13, 391938, Note_on_c, 5, 54, 57
13, 392160, Note_on_c, 5, 65, 0
13, 392178, Note_on_c, 5, 54, 0
13, 392420, Note_on_c, 5, 54, 55
13, 392427, Note_on_c, 5, 65, 44
13, 392660, Note_on_c, 5, 54, 0
13, 392667, Note_on_c, 5, 65, 0
13, 392881, Note_on_c, 5, 65, 47
13, 392897, Note_on_c, 5, 54, 52
13, 393121, Note_on_c, 5, 65, 0
13, 393137, Note_on_c, 5, 54, 0
13, 393361, Note_on_c, 5, 65, 57
13, 393385, Note_on_c, 5, 54, 54
13, 393601, Note_on_c, 5, 65, 0
13, 393625, Note_on_c, 5, 54, 0
13, 393851, Note_on_c, 5, 54, 49
13, 393855, Note_on_c, 5, 65, 56
13, 394091, Note_on_c, 5, 54, 0
13, 394095, Note_on_c, 5, 65, 0
13, 394335, Note_on_c, 5, 65, 58
13, 394348, Note_on_c, 5, 54, 47
13, 394575, Note_on_c, 5, 65, 0
13, 394588, Note_on_c, 5, 54, 0
13, 394812, Note_on_c, 5, 54, 39
13, 394827, Note_on_c, 5, 65, 41
13, 395052, Note_on_c, 5, 54, 0
13, 395067, Note_on_c, 5, 65, 0
13, 395292, Note_on_c, 5, 65, 48
13, 395305, Note_on_c, 5, 54, 55
13, 395532, Note_on_c, 5, 65, 0
13, 395545, Note_on_c, 5, 54, 0
13, 395770, Note_on_c, 5, 65, 39
13, 395785, Note_on_c, 5, 54, 40
13, 396010, Note_on_c, 5, 65, 0
13, 396025, Note_on_c, 5, 54, 0
13, 396245, Note_on_c, 5, 54, 54
13, 396249, Note_on_c, 5, 65, 41
13, 396485, Note_on_c, 5, 54, 0
13, 396489, Note_on_c, 5, 65, 0
13, 396739, Note_on_c, 5, 65, 53
13, 396741, Note_on_c, 5, 54, 47
13, 396979, Note_on_c, 5, 65, 0
13, 396981, Note_on_c, 5, 54, 0
13, 397218, Note_on_c, 5, 65, 52
13, 397224, Note_on_c, 5, 54, 57
13, 397458, Note_on_c, 5, 65, 0
13, 397464, Note_on_c, 5, 54, 0
13, 397684, Note_on_c, 5, 54, 53
13, 397691, Note_on_c, 5, 65, 39
13, 397924, Note_on_c, 5, 54, 0
13, 397931, Note_on_c, 5, 65, 0
13, 398164, Note_on_c, 5, 54, 56
13, 398171, Note_on_c, 5, 65, 43
13, 398404, Note_on_c, 5, 54, 0
13, 398411, Note_on_c, 5, 65, 0
13, 398643, Note_on_c, 5, 65, 57
13, 398645, Note_on_c, 5, 54, 52
13, 398883, Note_on_c, 5, 65, 0
13, 398885, Note_on_c, 5, 54, 0
13, 399134, Note_on_c, 5, 54, 54
13, 399142, Note_on_c, 5, 65, 56
13, 399374, Note_on_c, 5, 54, 0
13, 399382, Note_on_c, 5, 65, 0
13, 399607, Note_on_c, 5, 54, 48
13, 399608, Note_on_c, 5, 65, 40
13, 399847, Note_on_c, 5, 54, 0
13, 399848, Note_on_c, 5, 65, 0
13, 400081, Note_on_c, 5, 54, 41
13, 400094, Note_on_c, 5, 65, 49
13, 400321, Note_on_c, 5, 54, 0
13, 400334, Note_on_c, 5, 65, 0
13, 400579, Note_on_c, 5, 54, 42
13, 400581, Note_on_c, 5, 65, 54
13, 400819, Note_on_c, 5, 54, 0
13, 400821, Note_on_c, 5, 65, 0
13, 401046, Note_on_c, 5, 65, 40
13, 401054, Note_on_c, 5, 54, 50
13, 401286, Note_on_c, 5, 65, 0
13, 401294, Note_on_c, 5, 54, 0
13, 401526, Note_on_c, 5, 54, 48
13, 401547, Note_on_c, 5, 65, 44
13, 401766, Note_on_c, 5, 54, 0
13, 401787, Note_on_c, 5, 65, 0
13, 402018, Note_on_c, 5, 54, 54
13, 402027, Note_on_c, 5, 65, 39
13, 402258, Note_on_c, 5, 54, 0
13, 402267, Note_on_c, 5, 65, 0
13, 402480, Note_on_c, 5, 65, 48
13, 402486, Note_on_c, 5, 54, 45
13, 402720, Note_on_c, 5, 65, 0
13, 402726, Note_on_c, 5, 54, 0
13, 402975, Note_on_c, 5, 54, 57
13, 402976, Note_on_c, 5, 65, 47
13, 403215, Note_on_c, 5, 54, 0
13, 403216, Note_on_c, 5, 65, 0
13, 403445, Note_on_c, 5, 65, 58
13, 403459, Note_on_c, 5, 54, 47
13, 403685, Note_on_c, 5, 65, 0
13, 403699, Note_on_c, 5, 54, 0
13, 403933, Note_on_c, 5, 54, 45
13, 403947, Note_on_c, 5, 65, 46
13, 404173, Note_on_c, 5, 54, 0
13, 404187, Note_on_c, 5, 65, 0
13, 404405, Note_on_c, 5, 54, 55
13, 404425, Note_on_c, 5, 65, 45
13, 404645, Note_on_c, 5, 54, 0
13, 404665, Note_on_c, 5, 65, 0
13, 404892, Note_on_c, 5, 54, 46
13, 404903, Note_on_c, 5, 65, 53
13, 405132, Note_on_c, 5, 54, 0
13, 405143, Note_on_c, 5, 65, 0
13, 405362, Note_on_c, 5, 54, 50
13, 405370, Note_on_c, 5, 65, 50
13, 405602, Note_on_c, 5, 54, 0
13, 405610, Note_on_c, 5, 65, 0
13, 405841, Note_on_c, 5, 54, 50
13, 405866, Note_on_c, 5, 65, 40
13, 406081, Note_on_c, 5, 54, 0
13, 406106, Note_on_c, 5, 65, 0
13, 406328, Note_on_c, 5, 54, 46
13, 406337, Note_on_c, 5, 65, 48
13, 406568, Note_on_c, 5, 54, 0
13, 406577, Note_on_c, 5, 65, 0
13, 406809, Note_on_c, 5, 65, 45
13, 406809, Note_on_c, 5, 54, 59
13, 407049, Note_on_c, 5, 65, 0
13, 407049, Note_on_c, 5, 54, 0
13, 407294, Note_on_c, 5, 65, 36
13, 407299, Note_on_c, 5, 54, 33
13, 407534, Note_on_c, 5, 65, 0
13, 407539, Note_on_c, 5, 54, 0
13, 407764, Note_on_c, 5, 65, 33
13, 407769, Note_on_c, 5, 54, 37
13, 408004, Note_on_c, 5, 65, 0
13, 408009, Note_on_c, 5, 54, 0
13, 408266, Note_on_c, 5, 65, 31
13, 408506, Note_on_c, 5, 65, 0
13, 438006, Note_on_c, 5, 73, 109
13, 438366, Note_on_c, 5, 73, 0
13, 438487, Note_on_c, 5, 71, 108
13, 438503, Note_on_c, 5, 56, 96
13, 438667, Note_on_c, 5, 71, 0
13, 438733, Note_on_c, 5, 73, 97
13, 438793, Note_on_c, 5, 73, 0
13, 438845, Note_on_c, 5, 71, 103
13, 438905, Note_on_c, 5, 71, 0
13, 438971, Note_on_c, 5, 70, 98
13, 438983, Note_on_c, 5, 56, 0
13, 439331, Note_on_c, 5, 70, 0
13, 439442, Note_on_c, 5, 68, 94
13, 439442, Note_on_c, 5, 54, 105
13, 439802, Note_on_c, 5, 68, 0
13, 439922, Note_on_c, 5, 54, 0
13, 439943, Note_on_c, 5, 68, 107
13, 440123, Note_on_c, 5, 68, 0
13, 440170, Note_on_c, 5, 71, 94
13, 440350, Note_on_c, 5, 71, 0
13, 440410, Note_on_c, 5, 73, 102
13, 440418, Note_on_c, 5, 53, 98
13, 440590, Note_on_c, 5, 73, 0
13, 440661, Note_on_c, 5, 70, 111
13, 440841, Note_on_c, 5, 70, 0
13, 440894, Note_on_c, 5, 68, 99
13, 440898, Note_on_c, 5, 53, 0
13, 441074, Note_on_c, 5, 68, 0
13, 441146, Note_on_c, 5, 73, 99
13, 441326, Note_on_c, 5, 73, 0
13, 441370, Note_on_c, 5, 56, 106
13, 441387, Note_on_c, 5, 71, 107
13, 441567, Note_on_c, 5, 71, 0
13, 441600, Note_on_c, 5, 73, 109
13, 441660, Note_on_c, 5, 73, 0
13, 441734, Note_on_c, 5, 71, 104
13, 441794, Note_on_c, 5, 71, 0
13, 441850, Note_on_c, 5, 56, 0
13, 441859, Note_on_c, 5, 70, 94
13, 442219, Note_on_c, 5, 70, 0
13, 442328, Note_on_c, 5, 54, 91
13, 442335, Note_on_c, 5, 68, 97
13, 442515, Note_on_c, 5, 68, 0
13, 442574, Note_on_c, 5, 71, 99
13, 442754, Note_on_c, 5, 71, 0
13, 442808, Note_on_c, 5, 54, 0
13, 442811, Note_on_c, 5, 73, 104
13, 442991, Note_on_c, 5, 73, 0
13, 443060, Note_on_c, 5, 70, 97
13, 443240, Note_on_c, 5, 70, 0
13, 443301, Note_on_c, 5, 53, 102
13, 443302, Note_on_c, 5, 68, 93
13, 443662, Note_on_c, 5, 68, 0
13, 443781, Note_on_c, 5, 53, 0
13, 448562, Note_on_c, 5, 52, 109
13, 449162, Note_on_c, 5, 52, 0
13, 450000, Control_c, 5, 11, 96
13, 450960, Control_c, 5, 11, 96
13, 450987, Note_on_c, 5, 53, 75
13, 450990, Control_c, 5, 11, 97
13, 451020, Control_c, 5, 11, 98
13, 451050, Control_c, 5, 11, 99
13, 451080, Control_c, 5, 11, 100
13, 451110, Control_c, 5, 11, 101
13, 451140, Control_c, 5, 11, 102
13, 451170, Control_c, 5, 11, 103
13, 451200, Control_c, 5, 11, 104
13, 451230, Control_c, 5, 11, 105
13, 451260, Control_c, 5, 11, 106
13, 451290, Control_c, 5, 11, 107
13, 451320, Control_c, 5, 11, 108
13, 451350, Control_c, 5, 11, 109
13, 451380, Control_c, 5, 11, 110
13, 451410, Control_c, 5, 11, 111
13, 451440, Control_c, 5, 11, 112
13, 451470, Control_c, 5, 11, 113
13, 451500, Control_c, 5, 11, 114
13, 451530, Control_c, 5, 11, 115
13, 451560, Control_c, 5, 11, 116
13, 451590, Control_c, 5, 11, 117
13, 451620, Control_c, 5, 11, 118
13, 451650, Control_c, 5, 11, 119
13, 451680, Control_c, 5, 11, 120
13, 451710, Control_c, 5, 11, 121
13, 451740, Control_c, 5, 11, 122
13, 451770, Control_c, 5, 11, 123
13, 451800, Control_c, 5, 11, 124
13, 451827, Note_on_c, 5, 53, 0
13, 451830, Control_c, 5, 11, 125
13, 451860, Control_c, 5, 11, 126
13, 451890, Control_c, 5, 11, 127
13, 451920, Control_c, 5, 11, 96
13, 453840, Control_c, 5, 11, 96
13, 453853, Note_on_c, 5, 53, 82
13, 453870, Control_c, 5, 11, 97
13, 453900, Control_c, 5, 11, 98
13, 453930, Control_c, 5, 11, 99
13, 453960, Control_c, 5, 11, 100
13, 453990, Control_c, 5, 11, 101
13, 454020, Control_c, 5, 11, 102
13, 454050, Control_c, 5, 11, 103
13, 454080, Control_c, 5, 11, 104
13, 454110, Control_c, 5, 11, 105
13, 454140, Control_c, 5, 11, 106
13, 454170, Control_c, 5, 11, 107
13, 454200, Control_c, 5, 11, 108
13, 454230, Control_c, 5, 11, 109
13, 454260, Control_c, 5, 11, 110
13, 454290, Control_c, 5, 11, 111
13, 454320, Control_c, 5, 11, 112
13, 454350, Control_c, 5, 11, 113
13, 454380, Control_c, 5, 11, 114
13, 454410, Control_c, 5, 11, 115
13, 454440, Control_c, 5, 11, 116
13, 454470, Control_c, 5, 11, 117
13, 454500, Control_c, 5, 11, 118
13, 454530, Control_c, 5, 11, 119
13, 454560, Control_c, 5, 11, 120
13, 454590, Control_c, 5, 11, 121
13, 454620, Control_c, 5, 11, 122
13, 454650, Control_c, 5, 11, 123
13, 454680, Control_c, 5, 11, 124
13, 454693, Note_on_c, 5, 53, 0
13, 454710, Control_c, 5, 11, 125
13, 454740, Control_c, 5, 11, 126
13, 454770, Control_c, 5, 11, 127
13, 454800, Control_c, 5, 11, 96
13, 455760, Control_c, 5, 11, 96
13, 455783, Note_on_c, 5, 53, 74
13, 455790, Control_c, 5, 11, 97
13, 455820, Control_c, 5, 11, 98
13, 455850, Control_c, 5, 11, 99
13, 455880, Control_c, 5, 11, 100
13, 455910, Control_c, 5, 11, 101
13, 455940, Control_c, 5, 11, 102
13, 455970, Control_c, 5, 11, 103
13, 456000, Control_c, 5, 11, 104
13, 456030, Control_c, 5, 11, 105
13, 456060, Control_c, 5, 11, 106
13, 456090, Control_c, 5, 11, 107
13, 456120, Control_c, 5, 11, 108
13, 456150, Control_c, 5, 11, 109
13, 456180, Control_c, 5, 11, 110
13, 456210, Control_c, 5, 11, 111
13, 456240, Control_c, 5, 11, 112
13, 456270, Control_c, 5, 11, 113
13, 456300, Control_c, 5, 11, 114
13, 456330, Control_c, 5, 11, 115
13, 456360, Control_c, 5, 11, 116
13, 456390, Control_c, 5, 11, 117
13, 456420, Control_c, 5, 11, 118
13, 456450, Control_c, 5, 11, 119
13, 456480, Control_c, 5, 11, 120
13, 456510, Control_c, 5, 11, 121
13, 456540, Control_c, 5, 11, 122
13, 456570, Control_c, 5, 11, 123
13, 456600, Control_c, 5, 11, 124
13, 456623, Note_on_c, 5, 53, 0
13, 456630, Control_c, 5, 11, 125
13, 456660, Control_c, 5, 11, 126
13, 456690, Control_c, 5, 11, 127
13, 456746, Note_on_c, 5, 53, 69
13, 456972, Note_on_c, 5, 55, 66
13, 456986, Note_on_c, 5, 53, 0
13, 457211, Note_on_c, 5, 56, 73
13, 457212, Note_on_c, 5, 55, 0
13, 457451, Note_on_c, 5, 56, 0
13, 457461, Note_on_c, 5, 57, 78
13, 457581, Note_on_c, 5, 57, 0
13, 457680, Control_c, 5, 11, 127
13, 457680, Control_c, 5, 7, 127
13, 459602, Note_on_c, 5, 73, 114
13, 459962, Note_on_c, 5, 73, 0
13, 460098, Note_on_c, 5, 71, 124
13, 460278, Note_on_c, 5, 71, 0
13, 460329, Note_on_c, 5, 73, 120
13, 460389, Note_on_c, 5, 73, 0
13, 460453, Note_on_c, 5, 71, 115
13, 460513, Note_on_c, 5, 71, 0
13, 460588, Note_on_c, 5, 70, 122
13, 460948, Note_on_c, 5, 70, 0
13, 461062, Note_on_c, 5, 68, 108
13, 461242, Note_on_c, 5, 68, 0
13, 461298, Note_on_c, 5, 73, 108
13, 461478, Note_on_c, 5, 73, 0
13, 461522, Note_on_c, 5, 71, 105
13, 461702, Note_on_c, 5, 71, 0
13, 461763, Note_on_c, 5, 73, 120
13, 461823, Note_on_c, 5, 73, 0
13, 461899, Note_on_c, 5, 71, 113
13, 461959, Note_on_c, 5, 71, 0
13, 462005, Note_on_c, 5, 70, 113
13, 462365, Note_on_c, 5, 70, 0
13, 462490, Note_on_c, 5, 68, 121
13, 462670, Note_on_c, 5, 68, 0
13, 462728, Note_on_c, 5, 71, 110
13, 462908, Note_on_c, 5, 71, 0
13, 462984, Note_on_c, 5, 73, 119
13, 463164, Note_on_c, 5, 73, 0
13, 463204, Note_on_c, 5, 70, 104
13, 463384, Note_on_c, 5, 70, 0
13, 463446, Note_on_c, 5, 68, 124
13, 463626, Note_on_c, 5, 68, 0
13, 463706, Note_on_c, 5, 73, 119
13, 463886, Note_on_c, 5, 73, 0
13, 463945, Note_on_c, 5, 71, 114
13, 464125, Note_on_c, 5, 71, 0
13, 464170, Note_on_c, 5, 73, 113
13, 464230, Note_on_c, 5, 73, 0
13, 464286, Note_on_c, 5, 71, 112
13, 464346, Note_on_c, 5, 71, 0
13, 464426, Note_on_c, 5, 70, 115
13, 464786, Note_on_c, 5, 70, 0
13, 464888, Note_on_c, 5, 68, 112
13, 465248, Note_on_c, 5, 68, 0
13, 465374, Note_on_c, 5, 73, 122
13, 465734, Note_on_c, 5, 73, 0
13, 465862, Note_on_c, 5, 71, 117
13, 466042, Note_on_c, 5, 71, 0
13, 466101, Note_on_c, 5, 73, 106
13, 466161, Note_on_c, 5, 73, 0
13, 466219, Note_on_c, 5, 71, 107
13, 466279, Note_on_c, 5, 71, 0
13, 466337, Note_on_c, 5, 70, 117
13, 466697, Note_on_c, 5, 70, 0
13, 466802, Note_on_c, 5, 68, 116
13, 467162, Note_on_c, 5, 68, 0
13, 490800, Control_c, 5, 7, 75
13, 491811, Control_c, 5, 11, 64
13, 491818, Control_c, 5, 11, 65
13, 491825, Control_c, 5, 11, 66
13, 491833, Control_c, 5, 11, 67
13, 491840, Control_c, 5, 11, 68
13, 491847, Control_c, 5, 11, 69
13, 491854, Control_c, 5, 11, 70
13, 491862, Control_c, 5, 11, 71
13, 491869, Control_c, 5, 11, 72
13, 491876, Control_c, 5, 11, 73
13, 491883, Control_c, 5, 11, 74
13, 491888, Note_on_c, 5, 63, 91
13, 491891, Control_c, 5, 11, 75
13, 491898, Control_c, 5, 11, 76
13, 491905, Control_c, 5, 11, 77
13, 491912, Control_c, 5, 11, 78
13, 491920, Control_c, 5, 11, 79
13, 491927, Control_c, 5, 11, 80
13, 491934, Control_c, 5, 11, 81
13, 491941, Control_c, 5, 11, 82
13, 491949, Control_c, 5, 11, 83
13, 491956, Control_c, 5, 11, 84
13, 491963, Control_c, 5, 11, 85
13, 491970, Control_c, 5, 11, 86
13, 491978, Control_c, 5, 11, 87
13, 491985, Control_c, 5, 11, 88
13, 491992, Control_c, 5, 11, 89
13, 492000, Control_c, 5, 11, 90
13, 492007, Control_c, 5, 11, 91
13, 492014, Control_c, 5, 11, 92
13, 492022, Control_c, 5, 11, 93
13, 492029, Control_c, 5, 11, 94
13, 492036, Control_c, 5, 11, 95
13, 492043, Control_c, 5, 11, 96
13, 492051, Control_c, 5, 11, 97
13, 492058, Control_c, 5, 11, 98
13, 492065, Control_c, 5, 11, 99
13, 492072, Control_c, 5, 11, 100
13, 492080, Control_c, 5, 11, 101
13, 492087, Control_c, 5, 11, 102
13, 492094, Control_c, 5, 11, 103
13, 492101, Control_c, 5, 11, 104
13, 492109, Control_c, 5, 11, 105
13, 492116, Control_c, 5, 11, 106
13, 492123, Control_c, 5, 11, 107
13, 492130, Control_c, 5, 11, 108
13, 492138, Control_c, 5, 11, 109
13, 492145, Control_c, 5, 11, 110
13, 492152, Control_c, 5, 11, 111
13, 492159, Control_c, 5, 11, 112
13, 492167, Control_c, 5, 11, 113
13, 492174, Control_c, 5, 11, 114
13, 492181, Control_c, 5, 11, 115
13, 492188, Control_c, 5, 11, 116
13, 492196, Control_c, 5, 11, 117
13, 492203, Control_c, 5, 11, 118
13, 492210, Control_c, 5, 11, 119
13, 492217, Control_c, 5, 11, 120
13, 492225, Control_c, 5, 11, 121
13, 492232, Control_c, 5, 11, 122
13, 492240, Control_c, 5, 11, 123
13, 492247, Control_c, 5, 11, 124
13, 492248, Note_on_c, 5, 63, 0
13, 492254, Control_c, 5, 11, 125
13, 492261, Control_c, 5, 11, 126
13, 492974, Note_on_c, 5, 63, 97
13, 493081, Note_on_c, 5, 63, 0
13, 493251, Control_c, 5, 11, 64
13, 493258, Control_c, 5, 11, 65
13, 493265, Control_c, 5, 11, 66
13, 493273, Control_c, 5, 11, 67
13, 493280, Control_c, 5, 11, 68
13, 493287, Control_c, 5, 11, 69
13, 493294, Control_c, 5, 11, 70
13, 493302, Control_c, 5, 11, 71
13, 493309, Control_c, 5, 11, 72
13, 493316, Control_c, 5, 11, 73
13, 493323, Control_c, 5, 11, 74
13, 493331, Control_c, 5, 11, 75
13, 493338, Control_c, 5, 11, 76
13, 493345, Note_on_c, 5, 63, 92
13, 493345, Control_c, 5, 11, 77
13, 493352, Control_c, 5, 11, 78
13, 493360, Control_c, 5, 11, 79
13, 493367, Control_c, 5, 11, 80
13, 493374, Control_c, 5, 11, 81
13, 493381, Control_c, 5, 11, 82
13, 493389, Control_c, 5, 11, 83
13, 493396, Control_c, 5, 11, 84
13, 493403, Control_c, 5, 11, 85
13, 493410, Control_c, 5, 11, 86
13, 493418, Control_c, 5, 11, 87
13, 493425, Control_c, 5, 11, 88
13, 493432, Control_c, 5, 11, 89
13, 493440, Control_c, 5, 11, 90
13, 493447, Control_c, 5, 11, 91
13, 493454, Control_c, 5, 11, 92
13, 493462, Control_c, 5, 11, 93
13, 493469, Control_c, 5, 11, 94
13, 493476, Control_c, 5, 11, 95
13, 493483, Control_c, 5, 11, 96
13, 493491, Control_c, 5, 11, 97
13, 493498, Control_c, 5, 11, 98
13, 493505, Control_c, 5, 11, 99
13, 493512, Control_c, 5, 11, 100
13, 493520, Control_c, 5, 11, 101
13, 493527, Control_c, 5, 11, 102
13, 493534, Control_c, 5, 11, 103
13, 493541, Control_c, 5, 11, 104
13, 493549, Control_c, 5, 11, 105
13, 493556, Control_c, 5, 11, 106
13, 493563, Control_c, 5, 11, 107
13, 493570, Control_c, 5, 11, 108
13, 493578, Control_c, 5, 11, 109
13, 493585, Control_c, 5, 11, 110
13, 493592, Control_c, 5, 11, 111
13, 493599, Control_c, 5, 11, 112
13, 493607, Control_c, 5, 11, 113
13, 493614, Control_c, 5, 11, 114
13, 493621, Control_c, 5, 11, 115
13, 493628, Control_c, 5, 11, 116
13, 493636, Control_c, 5, 11, 117
13, 493643, Control_c, 5, 11, 118
13, 493650, Control_c, 5, 11, 119
13, 493657, Control_c, 5, 11, 120
13, 493665, Control_c, 5, 11, 121
13, 493672, Control_c, 5, 11, 122
13, 493680, Control_c, 5, 11, 123
13, 493687, Control_c, 5, 11, 124
13, 493694, Control_c, 5, 11, 125
13, 493701, Control_c, 5, 11, 126
13, 493705, Note_on_c, 5, 63, 0
13, 494520, Note_on_c, 5, 57, 91
13, 494663, Note_on_c, 5, 57, 0
13, 494783, Note_on_c, 5, 54, 89
13, 494926, Note_on_c, 5, 54, 0
13, 495028, Note_on_c, 5, 54, 86
13, 495088, Note_on_c, 5, 54, 0
13, 495137, Note_on_c, 5, 51, 92
13, 495209, Note_on_c, 5, 51, 0
13, 495243, Note_on_c, 5, 51, 78
13, 495303, Note_on_c, 5, 51, 0
13, 495721, Note_on_c, 5, 63, 84
13, 495774, Note_on_c, 5, 63, 0
13, 495879, Control_c, 5, 11, 65
13, 495885, Control_c, 5, 11, 66
13, 495892, Control_c, 5, 11, 67
13, 495899, Control_c, 5, 11, 68
13, 495906, Control_c, 5, 11, 69
13, 495912, Control_c, 5, 11, 70
13, 495919, Control_c, 5, 11, 71
13, 495925, Control_c, 5, 11, 72
13, 495932, Control_c, 5, 11, 73
13, 495938, Control_c, 5, 11, 74
13, 495945, Control_c, 5, 11, 75
13, 495952, Control_c, 5, 11, 76
13, 495959, Control_c, 5, 11, 77
13, 495965, Control_c, 5, 11, 78
13, 495972, Control_c, 5, 11, 79
13, 495976, Note_on_c, 5, 63, 81
13, 495978, Control_c, 5, 11, 80
13, 495985, Control_c, 5, 11, 81
13, 495991, Control_c, 5, 11, 82
13, 495998, Control_c, 5, 11, 83
13, 496005, Control_c, 5, 11, 84
13, 496012, Control_c, 5, 11, 85
13, 496018, Control_c, 5, 11, 86
13, 496025, Control_c, 5, 11, 87
13, 496031, Control_c, 5, 11, 88
13, 496038, Control_c, 5, 11, 89
13, 496044, Control_c, 5, 11, 90
13, 496051, Control_c, 5, 11, 91
13, 496058, Control_c, 5, 11, 92
13, 496065, Control_c, 5, 11, 93
13, 496071, Control_c, 5, 11, 94
13, 496078, Control_c, 5, 11, 95
13, 496084, Control_c, 5, 11, 96
13, 496091, Control_c, 5, 11, 97
13, 496097, Control_c, 5, 11, 98
13, 496104, Control_c, 5, 11, 99
13, 496111, Control_c, 5, 11, 100
13, 496117, Control_c, 5, 11, 101
13, 496124, Control_c, 5, 11, 102
13, 496131, Control_c, 5, 11, 103
13, 496137, Control_c, 5, 11, 104
13, 496144, Control_c, 5, 11, 105
13, 496150, Control_c, 5, 11, 106
13, 496157, Control_c, 5, 11, 107
13, 496164, Control_c, 5, 11, 108
13, 496170, Control_c, 5, 11, 109
13, 496177, Control_c, 5, 11, 110
13, 496184, Control_c, 5, 11, 111
13, 496190, Control_c, 5, 11, 112
13, 496197, Control_c, 5, 11, 113
13, 496203, Control_c, 5, 11, 114
13, 496210, Control_c, 5, 11, 115
13, 496217, Control_c, 5, 11, 116
13, 496223, Control_c, 5, 11, 117
13, 496230, Control_c, 5, 11, 118
13, 496237, Control_c, 5, 11, 119
13, 496243, Control_c, 5, 11, 120
13, 496250, Control_c, 5, 11, 121
13, 496256, Control_c, 5, 11, 122
13, 496263, Control_c, 5, 11, 123
13, 496270, Control_c, 5, 11, 124
13, 496276, Control_c, 5, 11, 125
13, 496283, Control_c, 5, 11, 126
13, 496336, Note_on_c, 5, 63, 0
13, 496683, Note_on_c, 5, 57, 84
13, 496755, Note_on_c, 5, 57, 0
13, 496805, Note_on_c, 5, 54, 82
13, 496877, Note_on_c, 5, 54, 0
13, 496925, Note_on_c, 5, 54, 87
13, 496997, Note_on_c, 5, 54, 0
13, 497050, Note_on_c, 5, 51, 98
13, 497122, Note_on_c, 5, 51, 0
13, 497174, Note_on_c, 5, 51, 95
13, 497221, Note_on_c, 5, 51, 0
13, 497283, Note_on_c, 5, 63, 79
13, 497369, Note_on_c, 5, 63, 0
13, 497548, Note_on_c, 5, 63, 97
13, 497691, Note_on_c, 5, 63, 0
13, 497781, Note_on_c, 5, 63, 85
13, 497828, Note_on_c, 5, 63, 0
13, 498261, Note_on_c, 5, 63, 78
13, 498314, Note_on_c, 5, 63, 0
13, 498399, Control_c, 5, 11, 65
13, 498405, Control_c, 5, 11, 66
13, 498412, Control_c, 5, 11, 67
13, 498419, Control_c, 5, 11, 68
13, 498426, Control_c, 5, 11, 69
13, 498432, Control_c, 5, 11, 70
13, 498439, Control_c, 5, 11, 71
13, 498445, Control_c, 5, 11, 72
13, 498452, Control_c, 5, 11, 73
13, 498458, Control_c, 5, 11, 74
13, 498465, Control_c, 5, 11, 75
13, 498472, Control_c, 5, 11, 76
13, 498479, Control_c, 5, 11, 77
13, 498485, Control_c, 5, 11, 78
13, 498492, Control_c, 5, 11, 79
13, 498498, Control_c, 5, 11, 80
13, 498505, Control_c, 5, 11, 81
13, 498507, Note_on_c, 5, 63, 92
13, 498511, Control_c, 5, 11, 82
13, 498518, Control_c, 5, 11, 83
13, 498525, Control_c, 5, 11, 84
13, 498532, Control_c, 5, 11, 85
13, 498538, Control_c, 5, 11, 86
13, 498545, Control_c, 5, 11, 87
13, 498551, Control_c, 5, 11, 88
13, 498558, Control_c, 5, 11, 89
13, 498564, Control_c, 5, 11, 90
13, 498571, Control_c, 5, 11, 91
13, 498578, Control_c, 5, 11, 92
13, 498585, Control_c, 5, 11, 93
13, 498591, Control_c, 5, 11, 94
13, 498598, Control_c, 5, 11, 95
13, 498604, Control_c, 5, 11, 96
13, 498611, Control_c, 5, 11, 97
13, 498617, Control_c, 5, 11, 98
13, 498624, Control_c, 5, 11, 99
13, 498631, Control_c, 5, 11, 100
13, 498637, Control_c, 5, 11, 101
13, 498644, Control_c, 5, 11, 102
13, 498651, Control_c, 5, 11, 103
13, 498657, Control_c, 5, 11, 104
13, 498664, Control_c, 5, 11, 105
13, 498670, Control_c, 5, 11, 106
13, 498677, Control_c, 5, 11, 107
13, 498684, Control_c, 5, 11, 108
13, 498690, Control_c, 5, 11, 109
13, 498697, Control_c, 5, 11, 110
13, 498704, Control_c, 5, 11, 111
13, 498710, Control_c, 5, 11, 112
13, 498717, Control_c, 5, 11, 113
13, 498723, Control_c, 5, 11, 114
13, 498730, Control_c, 5, 11, 115
13, 498737, Control_c, 5, 11, 116
13, 498743, Control_c, 5, 11, 117
13, 498750, Control_c, 5, 11, 118
13, 498757, Control_c, 5, 11, 119
13, 498763, Control_c, 5, 11, 120
13, 498770, Control_c, 5, 11, 121
13, 498776, Control_c, 5, 11, 122
13, 498783, Control_c, 5, 11, 123
13, 498790, Control_c, 5, 11, 124
13, 498796, Control_c, 5, 11, 125
13, 498803, Control_c, 5, 11, 126
13, 498867, Note_on_c, 5, 63, 0
13, 503300, Note_on_c, 5, 70, 101
13, 503301, Note_on_c, 5, 63, 100
13, 503353, Note_on_c, 5, 70, 0
13, 503354, Note_on_c, 5, 63, 0
13, 504126, Note_on_c, 5, 70, 101
13, 504135, Note_on_c, 5, 63, 106
13, 504179, Note_on_c, 5, 70, 0
13, 504188, Note_on_c, 5, 63, 0
13, 504257, Note_on_c, 5, 64, 35
13, 504267, Note_on_c, 5, 57, 45
13, 504280, Note_on_c, 5, 64, 0
13, 504287, Note_on_c, 5, 57, 0
13, 504301, Note_on_c, 5, 64, 30
13, 504306, Note_on_c, 5, 57, 46
13, 504324, Note_on_c, 5, 64, 0
13, 504329, Note_on_c, 5, 57, 0
13, 504483, Note_on_c, 5, 57, 31
13, 504504, Note_on_c, 5, 64, 48
13, 504506, Note_on_c, 5, 57, 0
13, 504527, Note_on_c, 5, 64, 0
13, 504547, Note_on_c, 5, 64, 36
13, 504554, Note_on_c, 5, 57, 35
13, 504570, Note_on_c, 5, 64, 0
13, 504577, Note_on_c, 5, 57, 0
13, 504987, Note_on_c, 5, 57, 38
13, 504988, Note_on_c, 5, 64, 31
13, 505010, Note_on_c, 5, 57, 0
13, 505011, Note_on_c, 5, 64, 0
13, 505027, Note_on_c, 5, 64, 35
13, 505037, Note_on_c, 5, 57, 40
13, 505050, Note_on_c, 5, 64, 0
13, 505060, Note_on_c, 5, 57, 0
13, 505456, Note_on_c, 5, 57, 35
13, 505456, Note_on_c, 5, 64, 40
13, 505479, Note_on_c, 5, 57, 0
13, 505479, Note_on_c, 5, 64, 0
13, 505517, Note_on_c, 5, 57, 40
13, 505517, Note_on_c, 5, 64, 34
13, 505540, Note_on_c, 5, 57, 0
13, 505540, Note_on_c, 5, 64, 0
13, 505684, Note_on_c, 5, 64, 39
13, 505698, Note_on_c, 5, 57, 36
13, 505707, Note_on_c, 5, 64, 0
13, 505721, Note_on_c, 5, 57, 0
13, 505753, Note_on_c, 5, 57, 48
13, 505757, Note_on_c, 5, 64, 44
13, 505776, Note_on_c, 5, 57, 0
13, 505780, Note_on_c, 5, 64, 0
13, 505925, Note_on_c, 5, 64, 39
13, 505930, Note_on_c, 5, 57, 32
13, 505948, Note_on_c, 5, 64, 0
13, 505953, Note_on_c, 5, 57, 0
13, 505981, Note_on_c, 5, 57, 36
13, 505987, Note_on_c, 5, 64, 34
13, 506004, Note_on_c, 5, 57, 0
13, 506010, Note_on_c, 5, 64, 0
13, 506408, Note_on_c, 5, 57, 49
13, 506412, Note_on_c, 5, 64, 39
13, 506431, Note_on_c, 5, 57, 0
13, 506435, Note_on_c, 5, 64, 0
13, 506478, Note_on_c, 5, 57, 41
13, 506483, Note_on_c, 5, 64, 32
13, 506501, Note_on_c, 5, 57, 0
13, 506506, Note_on_c, 5, 64, 0
13, 506881, Note_on_c, 5, 64, 41
13, 506890, Note_on_c, 5, 57, 43
13, 506904, Note_on_c, 5, 64, 0
13, 506913, Note_on_c, 5, 57, 0
13, 506943, Note_on_c, 5, 64, 48
13, 506966, Note_on_c, 5, 64, 0
13, 506966, Note_on_c, 5, 57, 44
13, 506989, Note_on_c, 5, 57, 0
13, 507364, Note_on_c, 5, 64, 49
13, 507370, Note_on_c, 5, 57, 30
13, 507387, Note_on_c, 5, 64, 0
13, 507393, Note_on_c, 5, 57, 0
13, 507438, Note_on_c, 5, 64, 41
13, 507448, Note_on_c, 5, 57, 34
13, 507461, Note_on_c, 5, 64, 0
13, 507471, Note_on_c, 5, 57, 0
13, 507615, Note_on_c, 5, 57, 35
13, 507616, Note_on_c, 5, 64, 40
13, 507638, Note_on_c, 5, 57, 0
13, 507639, Note_on_c, 5, 64, 0
13, 507672, Note_on_c, 5, 57, 39
13, 507676, Note_on_c, 5, 64, 43
13, 507695, Note_on_c, 5, 57, 0
13, 507699, Note_on_c, 5, 64, 0
13, 508081, Note_on_c, 5, 64, 32
13, 508088, Note_on_c, 5, 57, 36
13, 508104, Note_on_c, 5, 64, 0
13, 508111, Note_on_c, 5, 57, 0
13, 508156, Note_on_c, 5, 64, 35
13, 508165, Note_on_c, 5, 57, 31
13, 508179, Note_on_c, 5, 64, 0
13, 508188, Note_on_c, 5, 57, 0
13, 508337, Note_on_c, 5, 64, 50
13, 508348, Note_on_c, 5, 57, 47
13, 508360, Note_on_c, 5, 64, 0
13, 508371, Note_on_c, 5, 57, 0
13, 508386, Note_on_c, 5, 64, 45
13, 508397, Note_on_c, 5, 57, 46
13, 508409, Note_on_c, 5, 64, 0
13, 508420, Note_on_c, 5, 57, 0
13, 508582, Note_on_c, 5, 57, 30
13, 508588, Note_on_c, 5, 64, 50
13, 508605, Note_on_c, 5, 57, 0
13, 508611, Note_on_c, 5, 64, 0
13, 508624, Note_on_c, 5, 64, 41
13, 508645, Note_on_c, 5, 57, 46
13, 508647, Note_on_c, 5, 64, 0
13, 508668, Note_on_c, 5, 57, 0
13, 509046, Note_on_c, 5, 64, 34
13, 509063, Note_on_c, 5, 57, 46
13, 509069, Note_on_c, 5, 64, 0
13, 509086, Note_on_c, 5, 57, 0
13, 509105, Note_on_c, 5, 57, 39
13, 509120, Note_on_c, 5, 64, 42
13, 509128, Note_on_c, 5, 57, 0
13, 509143, Note_on_c, 5, 64, 0
13, 509536, Note_on_c, 5, 64, 33
13, 509543, Note_on_c, 5, 57, 43
13, 509559, Note_on_c, 5, 64, 0
13, 509566, Note_on_c, 5, 57, 0
13, 509602, Note_on_c, 5, 57, 43
13, 509603, Note_on_c, 5, 64, 36
13, 509625, Note_on_c, 5, 57, 0
13, 509626, Note_on_c, 5, 64, 0
13, 509773, Note_on_c, 5, 57, 50
13, 509783, Note_on_c, 5, 64, 32
13, 509796, Note_on_c, 5, 57, 0
13, 509806, Note_on_c, 5, 64, 0
13, 509841, Note_on_c, 5, 64, 37
13, 509841, Note_on_c, 5, 57, 30
13, 509864, Note_on_c, 5, 64, 0
13, 509864, Note_on_c, 5, 57, 0
13, 510256, Note_on_c, 5, 64, 32
13, 510264, Note_on_c, 5, 57, 36
13, 510279, Note_on_c, 5, 64, 0
13, 510286, Note_on_c, 5, 57, 0
13, 510305, Note_on_c, 5, 57, 38
13, 510323, Note_on_c, 5, 64, 41
13, 510328, Note_on_c, 5, 57, 0
13, 510346, Note_on_c, 5, 64, 0
13, 510745, Note_on_c, 5, 57, 47
13, 510748, Note_on_c, 5, 64, 35
13, 510764, Note_on_c, 5, 57, 0
13, 510771, Note_on_c, 5, 64, 0
13, 510783, Note_on_c, 5, 57, 43
13, 510806, Note_on_c, 5, 57, 0
13, 510808, Note_on_c, 5, 64, 41
13, 510831, Note_on_c, 5, 64, 0
13, 511206, Note_on_c, 5, 57, 47
13, 511219, Note_on_c, 5, 64, 36
13, 511229, Note_on_c, 5, 57, 0
13, 511242, Note_on_c, 5, 64, 0
13, 511266, Note_on_c, 5, 64, 34
13, 511273, Note_on_c, 5, 57, 40
13, 511289, Note_on_c, 5, 64, 0
13, 511296, Note_on_c, 5, 57, 0
13, 511680, Note_on_c, 5, 64, 44
13, 511684, Note_on_c, 5, 57, 42
13, 511703, Note_on_c, 5, 64, 0
13, 511707, Note_on_c, 5, 57, 0
13, 511756, Note_on_c, 5, 57, 31
13, 511765, Note_on_c, 5, 64, 42
13, 511779, Note_on_c, 5, 57, 0
13, 511788, Note_on_c, 5, 64, 0
13, 511937, Note_on_c, 5, 64, 44
13, 511939, Note_on_c, 5, 57, 46
13, 511960, Note_on_c, 5, 64, 0
13, 511962, Note_on_c, 5, 57, 0
13, 511981, Note_on_c, 5, 64, 36
13, 511992, Note_on_c, 5, 57, 40
13, 512004, Note_on_c, 5, 64, 0
13, 512015, Note_on_c, 5, 57, 0
13, 512419, Note_on_c, 5, 57, 45
13, 512423, Note_on_c, 5, 64, 35
13, 512442, Note_on_c, 5, 57, 0
13, 512446, Note_on_c, 5, 64, 0
13, 512476, Note_on_c, 5, 57, 37
13, 512485, Note_on_c, 5, 64, 47
13, 512499, Note_on_c, 5, 57, 0
13, 512508, Note_on_c, 5, 64, 0
13, 512887, Note_on_c, 5, 57, 39
13, 512893, Note_on_c, 5, 64, 42
13, 512910, Note_on_c, 5, 57, 0
13, 512916, Note_on_c, 5, 64, 0
13, 512951, Note_on_c, 5, 64, 48
13, 512953, Note_on_c, 5, 57, 49
13, 512974, Note_on_c, 5, 64, 0
13, 512976, Note_on_c, 5, 57, 0
13, 513372, Note_on_c, 5, 64, 31
13, 513384, Note_on_c, 5, 57, 49
13, 513395, Note_on_c, 5, 64, 0
13, 513407, Note_on_c, 5, 57, 0
13, 513422, Note_on_c, 5, 64, 37
13, 513440, Note_on_c, 5, 57, 30
13, 513445, Note_on_c, 5, 64, 0
13, 513463, Note_on_c, 5, 57, 0
13, 513848, Note_on_c, 5, 57, 49
13, 513863, Note_on_c, 5, 64, 42
13, 513871, Note_on_c, 5, 57, 0
13, 513886, Note_on_c, 5, 64, 0
13, 513903, Note_on_c, 5, 57, 46
13, 513906, Note_on_c, 5, 64, 47
13, 513926, Note_on_c, 5, 57, 0
13, 513929, Note_on_c, 5, 64, 0
13, 514084, Note_on_c, 5, 64, 30
13, 514088, Note_on_c, 5, 57, 36
13, 514107, Note_on_c, 5, 64, 0
13, 514111, Note_on_c, 5, 57, 0
13, 514140, Note_on_c, 5, 64, 42
13, 514148, Note_on_c, 5, 57, 33
13, 514163, Note_on_c, 5, 64, 0
13, 514171, Note_on_c, 5, 57, 0
13, 514323, Note_on_c, 5, 57, 43
13, 514340, Note_on_c, 5, 64, 45
13, 514346, Note_on_c, 5, 57, 0
13, 514363, Note_on_c, 5, 64, 0
13, 514381, Note_on_c, 5, 64, 31
13, 514400, Note_on_c, 5, 57, 39
13, 514404, Note_on_c, 5, 64, 0
13, 514423, Note_on_c, 5, 57, 0
13, 514800, Note_on_c, 5, 64, 45
13, 514815, Note_on_c, 5, 57, 48
13, 514823, Note_on_c, 5, 64, 0
13, 514838, Note_on_c, 5, 57, 0
13, 514866, Note_on_c, 5, 64, 49
13, 514878, Note_on_c, 5, 57, 38
13, 514889, Note_on_c, 5, 64, 0
13, 514901, Note_on_c, 5, 57, 0
13, 515299, Note_on_c, 5, 64, 34
13, 515309, Note_on_c, 5, 57, 49
13, 515322, Note_on_c, 5, 64, 0
13, 515329, Note_on_c, 5, 57, 0
13, 515348, Note_on_c, 5, 57, 33
13, 515357, Note_on_c, 5, 64, 49
13, 515371, Note_on_c, 5, 57, 0
13, 515380, Note_on_c, 5, 64, 0
13, 515531, Note_on_c, 5, 57, 40
13, 515534, Note_on_c, 5, 64, 49
13, 515554, Note_on_c, 5, 57, 0
13, 515557, Note_on_c, 5, 64, 0
13, 515589, Note_on_c, 5, 64, 31
13, 515608, Note_on_c, 5, 57, 41
13, 515612, Note_on_c, 5, 64, 0
13, 515631, Note_on_c, 5, 57, 0
13, 516007, Note_on_c, 5, 57, 41
13, 516021, Note_on_c, 5, 64, 48
13, 516030, Note_on_c, 5, 57, 0
13, 516044, Note_on_c, 5, 64, 0
13, 516078, Note_on_c, 5, 64, 39
13, 516084, Note_on_c, 5, 57, 46
13, 516101, Note_on_c, 5, 64, 0
13, 516107, Note_on_c, 5, 57, 0
13, 516247, Note_on_c, 5, 57, 37
13, 516266, Note_on_c, 5, 64, 49
13, 516270, Note_on_c, 5, 57, 0
13, 516289, Note_on_c, 5, 64, 0
13, 516309, Note_on_c, 5, 57, 37
13, 516319, Note_on_c, 5, 64, 44
13, 516332, Note_on_c, 5, 57, 0
13, 516342, Note_on_c, 5, 64, 0
13, 516740, Note_on_c, 5, 57, 43
13, 516741, Note_on_c, 5, 64, 49
13, 516763, Note_on_c, 5, 57, 0
13, 516764, Note_on_c, 5, 64, 0
13, 516796, Note_on_c, 5, 57, 46
13, 516802, Note_on_c, 5, 64, 46
13, 516819, Note_on_c, 5, 57, 0
13, 516825, Note_on_c, 5, 64, 0
13, 517217, Note_on_c, 5, 64, 32
13, 517219, Note_on_c, 5, 57, 34
13, 517240, Note_on_c, 5, 64, 0
13, 517241, Note_on_c, 5, 57, 0
13, 517260, Note_on_c, 5, 57, 39
13, 517283, Note_on_c, 5, 57, 0
13, 517288, Note_on_c, 5, 64, 35
13, 517311, Note_on_c, 5, 64, 0
13, 517443, Note_on_c, 5, 57, 40
13, 517464, Note_on_c, 5, 64, 42
13, 517466, Note_on_c, 5, 57, 0
13, 517487, Note_on_c, 5, 64, 0
13, 517523, Note_on_c, 5, 64, 41
13, 517528, Note_on_c, 5, 57, 34
13, 517546, Note_on_c, 5, 64, 0
13, 517551, Note_on_c, 5, 57, 0
13, 517682, Note_on_c, 5, 64, 44
13, 517688, Note_on_c, 5, 57, 37
13, 517705, Note_on_c, 5, 64, 0
13, 517711, Note_on_c, 5, 57, 0
13, 517761, Note_on_c, 5, 57, 40
13, 517761, Note_on_c, 5, 64, 38
13, 517784, Note_on_c, 5, 57, 0
13, 517784, Note_on_c, 5, 64, 0
13, 518182, Note_on_c, 5, 57, 50
13, 518185, Note_on_c, 5, 64, 39
13, 518205, Note_on_c, 5, 57, 0
13, 518208, Note_on_c, 5, 64, 0
13, 518225, Note_on_c, 5, 64, 47
13, 518232, Note_on_c, 5, 57, 32
13, 518248, Note_on_c, 5, 64, 0
13, 518255, Note_on_c, 5, 57, 0
13, 518652, Note_on_c, 5, 64, 47
13, 518661, Note_on_c, 5, 57, 50
13, 518675, Note_on_c, 5, 64, 0
13, 518684, Note_on_c, 5, 57, 0
13, 518703, Note_on_c, 5, 57, 49
13, 518710, Note_on_c, 5, 64, 32
13, 518726, Note_on_c, 5, 57, 0
13, 518733, Note_on_c, 5, 64, 0
13, 518898, Note_on_c, 5, 64, 34
13, 518908, Note_on_c, 5, 57, 44
13, 518921, Note_on_c, 5, 64, 0
13, 518931, Note_on_c, 5, 57, 0
13, 518952, Note_on_c, 5, 57, 38
13, 518955, Note_on_c, 5, 64, 49
13, 518975, Note_on_c, 5, 57, 0
13, 518978, Note_on_c, 5, 64, 0
13, 519371, Note_on_c, 5, 64, 36
13, 519387, Note_on_c, 5, 57, 33
13, 519394, Note_on_c, 5, 64, 0
13, 519407, Note_on_c, 5, 57, 0
13, 519426, Note_on_c, 5, 64, 33
13, 519426, Note_on_c, 5, 57, 44
13, 519449, Note_on_c, 5, 64, 0
13, 519449, Note_on_c, 5, 57, 0
13, 519855, Note_on_c, 5, 57, 36
13, 519867, Note_on_c, 5, 64, 32
13, 519878, Note_on_c, 5, 57, 0
13, 519890, Note_on_c, 5, 64, 0
13, 519901, Note_on_c, 5, 64, 38
13, 519924, Note_on_c, 5, 64, 0
13, 519924, Note_on_c, 5, 57, 47
13, 519947, Note_on_c, 5, 57, 0
13, 527777, Note_on_c, 5, 55, 90
13, 527779, Note_on_c, 5, 67, 93
13, 527834, Note_on_c, 5, 55, 0
13, 527836, Note_on_c, 5, 67, 0
13, 527856, Note_on_c, 5, 55, 92
13, 527876, Note_on_c, 5, 67, 83
13, 527913, Note_on_c, 5, 55, 0
13, 527933, Note_on_c, 5, 67, 0
13, 527971, Note_on_c, 5, 55, 90
13, 527975, Note_on_c, 5, 67, 84
13, 528028, Note_on_c, 5, 55, 0
13, 528032, Note_on_c, 5, 67, 0
13, 528060, Note_on_c, 5, 54, 91
13, 528062, Note_on_c, 5, 66, 96
13, 528117, Note_on_c, 5, 54, 0
13, 528119, Note_on_c, 5, 66, 0
13, 528149, Note_on_c, 5, 53, 83
13, 528168, Note_on_c, 5, 65, 98
13, 528207, Note_on_c, 5, 53, 0
13, 528226, Note_on_c, 5, 65, 0
13, 528244, Note_on_c, 5, 65, 88
13, 528260, Note_on_c, 5, 53, 95
13, 528316, Note_on_c, 5, 65, 0
13, 528332, Note_on_c, 5, 53, 0
13, 529945, Note_on_c, 5, 67, 88
13, 529993, Note_on_c, 5, 67, 0
13, 530020, Note_on_c, 5, 66, 93
13, 530067, Note_on_c, 5, 66, 0
13, 530096, Note_on_c, 5, 65, 80
13, 530141, Note_on_c, 5, 65, 0
13, 530161, Note_on_c, 5, 65, 80
13, 530233, Note_on_c, 5, 65, 0
13, 531362, Note_on_c, 5, 58, 95
13, 531363, Note_on_c, 5, 69, 91
13, 531482, Note_on_c, 5, 58, 0
13, 531483, Note_on_c, 5, 69, 0
13, 531604, Note_on_c, 5, 69, 97
13, 531621, Note_on_c, 5, 58, 98
13, 531724, Note_on_c, 5, 69, 0
13, 531741, Note_on_c, 5, 58, 0
13, 531846, Note_on_c, 5, 69, 93
13, 531860, Note_on_c, 5, 58, 109
13, 531966, Note_on_c, 5, 69, 0
13, 531980, Note_on_c, 5, 58, 0
13, 532324, Note_on_c, 5, 58, 98
13, 532332, Note_on_c, 5, 69, 92
13, 532444, Note_on_c, 5, 58, 0
13, 532452, Note_on_c, 5, 69, 0
13, 532567, Note_on_c, 5, 58, 95
13, 532576, Note_on_c, 5, 69, 100
13, 532687, Note_on_c, 5, 58, 0
13, 532696, Note_on_c, 5, 69, 0
13, 532808, Note_on_c, 5, 69, 109
13, 532822, Note_on_c, 5, 58, 103
13, 532928, Note_on_c, 5, 69, 0
13, 532942, Note_on_c, 5, 58, 0
13, 533048, Note_on_c, 5, 58, 95
13, 533068, Note_on_c, 5, 69, 111
13, 533168, Note_on_c, 5, 58, 0
13, 533188, Note_on_c, 5, 69, 0
13, 533291, Note_on_c, 5, 69, 111
13, 533308, Note_on_c, 5, 58, 94
13, 533411, Note_on_c, 5, 69, 0
13, 533428, Note_on_c, 5, 58, 0
13, 533761, Note_on_c, 5, 58, 105
13, 533781, Note_on_c, 5, 69, 95
13, 533881, Note_on_c, 5, 58, 0
13, 533901, Note_on_c, 5, 69, 0
13, 534245, Note_on_c, 5, 58, 109
13, 534259, Note_on_c, 5, 69, 111
13, 534365, Note_on_c, 5, 58, 0
13, 534379, Note_on_c, 5, 69, 0
13, 534484, Note_on_c, 5, 67, 94
13, 534508, Note_on_c, 5, 59, 110
13, 534604, Note_on_c, 5, 67, 0
13, 534628, Note_on_c, 5, 59, 0
13, 534728, Note_on_c, 5, 58, 106
13, 534732, Note_on_c, 5, 69, 95
13, 534848, Note_on_c, 5, 58, 0
13, 534852, Note_on_c, 5, 69, 0
13, 535203, Note_on_c, 5, 58, 96
13, 535203, Note_on_c, 5, 69, 101
13, 535323, Note_on_c, 5, 58, 0
13, 535323, Note_on_c, 5, 69, 0
13, 535682, Note_on_c, 5, 58, 91
13, 535703, Note_on_c, 5, 69, 91
13, 535802, Note_on_c, 5, 58, 0
13, 535823, Note_on_c, 5, 69, 0
13, 535930, Note_on_c, 5, 53, 101
13, 536050, Note_on_c, 5, 53, 0
13, 536165, Note_on_c, 5, 65, 92
13, 536285, Note_on_c, 5, 65, 0
13, 536402, Note_on_c, 5, 75, 91
13, 536522, Note_on_c, 5, 75, 0
13, 536647, Note_on_c, 5, 73, 106
13, 536767, Note_on_c, 5, 73, 0
13, 536899, Note_on_c, 5, 74, 95
13, 537019, Note_on_c, 5, 74, 0
13, 537139, Note_on_c, 5, 64, 94
13, 537259, Note_on_c, 5, 64, 0
13, 537387, Note_on_c, 5, 52, 99
13, 537447, Note_on_c, 5, 52, 0
13, 537846, Note_on_c, 5, 62, 41
13, 537857, Note_on_c, 5, 55, 42
13, 537881, Note_on_c, 5, 55, 0
13, 537900, Note_on_c, 5, 62, 0
13, 537900, Note_on_c, 5, 55, 38
13, 537919, Note_on_c, 5, 62, 49
13, 537960, Note_on_c, 5, 55, 0
13, 537979, Note_on_c, 5, 62, 0
13, 538083, Note_on_c, 5, 55, 42
13, 538100, Note_on_c, 5, 62, 30
13, 538113, Note_on_c, 5, 55, 0
13, 538130, Note_on_c, 5, 62, 0
13, 538160, Note_on_c, 5, 62, 38
13, 538166, Note_on_c, 5, 55, 36
13, 538190, Note_on_c, 5, 62, 0
13, 538196, Note_on_c, 5, 55, 0
13, 538563, Note_on_c, 5, 62, 34
13, 538578, Note_on_c, 5, 55, 49
13, 538593, Note_on_c, 5, 62, 0
13, 538608, Note_on_c, 5, 55, 0
13, 538631, Note_on_c, 5, 55, 37
13, 538638, Note_on_c, 5, 62, 48
13, 538661, Note_on_c, 5, 55, 0
13, 538668, Note_on_c, 5, 62, 0
13, 539045, Note_on_c, 5, 55, 38
13, 539068, Note_on_c, 5, 62, 39
13, 539075, Note_on_c, 5, 55, 0
13, 539098, Note_on_c, 5, 62, 0
13, 539104, Note_on_c, 5, 55, 45
13, 539120, Note_on_c, 5, 62, 48
13, 539134, Note_on_c, 5, 55, 0
13, 539150, Note_on_c, 5, 62, 0
13, 539280, Note_on_c, 5, 55, 44
13, 539301, Note_on_c, 5, 62, 47
13, 539310, Note_on_c, 5, 55, 0
13, 539331, Note_on_c, 5, 62, 0
13, 539365, Note_on_c, 5, 62, 41
13, 539366, Note_on_c, 5, 55, 50
13, 539395, Note_on_c, 5, 62, 0
13, 539396, Note_on_c, 5, 55, 0
13, 539531, Note_on_c, 5, 62, 50
13, 539538, Note_on_c, 5, 55, 50
13, 539561, Note_on_c, 5, 62, 0
13, 539568, Note_on_c, 5, 55, 0
13, 539603, Note_on_c, 5, 62, 32
13, 539605, Note_on_c, 5, 55, 46
13, 539633, Note_on_c, 5, 62, 0
13, 539635, Note_on_c, 5, 55, 0
13, 540019, Note_on_c, 5, 62, 33
13, 540025, Note_on_c, 5, 55, 50
13, 540042, Note_on_c, 5, 55, 0
13, 540049, Note_on_c, 5, 62, 0
13, 540062, Note_on_c, 5, 55, 38
13, 540085, Note_on_c, 5, 62, 38
13, 540092, Note_on_c, 5, 55, 0
13, 540115, Note_on_c, 5, 62, 0
13, 540246, Note_on_c, 5, 62, 32
13, 540248, Note_on_c, 5, 55, 50
13, 540276, Note_on_c, 5, 62, 0
13, 540278, Note_on_c, 5, 55, 0
13, 540300, Note_on_c, 5, 62, 34
13, 540314, Note_on_c, 5, 55, 30
13, 540330, Note_on_c, 5, 62, 0
13, 540344, Note_on_c, 5, 55, 0
13, 540736, Note_on_c, 5, 55, 34
13, 540748, Note_on_c, 5, 62, 47
13, 540766, Note_on_c, 5, 55, 0
13, 540778, Note_on_c, 5, 62, 0
13, 540791, Note_on_c, 5, 62, 34
13, 540801, Note_on_c, 5, 55, 41
13, 540821, Note_on_c, 5, 62, 0
13, 540831, Note_on_c, 5, 55, 0
13, 541221, Note_on_c, 5, 62, 42
13, 541224, Note_on_c, 5, 55, 39
13, 541251, Note_on_c, 5, 62, 0
13, 541254, Note_on_c, 5, 55, 0
13, 541282, Note_on_c, 5, 55, 47
13, 541287, Note_on_c, 5, 62, 35
13, 541312, Note_on_c, 5, 55, 0
13, 541317, Note_on_c, 5, 62, 0
13, 541693, Note_on_c, 5, 55, 31
13, 541701, Note_on_c, 5, 62, 32
13, 541723, Note_on_c, 5, 55, 0
13, 541731, Note_on_c, 5, 62, 0
13, 541754, Note_on_c, 5, 55, 38
13, 541767, Note_on_c, 5, 62, 48
13, 541784, Note_on_c, 5, 55, 0
13, 541797, Note_on_c, 5, 62, 0
13, 542167, Note_on_c, 5, 62, 40
13, 542186, Note_on_c, 5, 55, 32
13, 542197, Note_on_c, 5, 62, 0
13, 542211, Note_on_c, 5, 55, 0
13, 542230, Note_on_c, 5, 55, 50
13, 542230, Note_on_c, 5, 62, 45
13, 542260, Note_on_c, 5, 55, 0
13, 542260, Note_on_c, 5, 62, 0
13, 542409, Note_on_c, 5, 55, 47
13, 542414, Note_on_c, 5, 62, 41
13, 542439, Note_on_c, 5, 55, 0
13, 542444, Note_on_c, 5, 62, 0
13, 542478, Note_on_c, 5, 55, 35
13, 542478, Note_on_c, 5, 62, 43
13, 542508, Note_on_c, 5, 55, 0
13, 542508, Note_on_c, 5, 62, 0
13, 542888, Note_on_c, 5, 62, 37
13, 542889, Note_on_c, 5, 55, 34
13, 542918, Note_on_c, 5, 62, 0
13, 542919, Note_on_c, 5, 55, 0
13, 542942, Note_on_c, 5, 55, 45
13, 542956, Note_on_c, 5, 62, 37
13, 542972, Note_on_c, 5, 55, 0
13, 542986, Note_on_c, 5, 62, 0
13, 543375, Note_on_c, 5, 55, 45
13, 543387, Note_on_c, 5, 62, 40
13, 543405, Note_on_c, 5, 55, 0
13, 543413, Note_on_c, 5, 62, 0
13, 543426, Note_on_c, 5, 55, 50
13, 543432, Note_on_c, 5, 62, 36
13, 543456, Note_on_c, 5, 55, 0
13, 543462, Note_on_c, 5, 62, 0
13, 543854, Note_on_c, 5, 62, 31
13, 543860, Note_on_c, 5, 55, 34
13, 543884, Note_on_c, 5, 62, 0
13, 543887, Note_on_c, 5, 55, 0
13, 543907, Note_on_c, 5, 55, 48
13, 543921, Note_on_c, 5, 62, 41
13, 543937, Note_on_c, 5, 55, 0
13, 543951, Note_on_c, 5, 62, 0
13, 544335, Note_on_c, 5, 62, 30
13, 544347, Note_on_c, 5, 55, 30
13, 544365, Note_on_c, 5, 62, 0
13, 544369, Note_on_c, 5, 55, 0
13, 544388, Note_on_c, 5, 55, 33
13, 544393, Note_on_c, 5, 62, 31
13, 544418, Note_on_c, 5, 55, 0
13, 544423, Note_on_c, 5, 62, 0
13, 544560, Note_on_c, 5, 62, 37
13, 544584, Note_on_c, 5, 55, 35
13, 544590, Note_on_c, 5, 62, 0
13, 544614, Note_on_c, 5, 55, 0
13, 544645, Note_on_c, 5, 62, 44
13, 544647, Note_on_c, 5, 55, 32
13, 544675, Note_on_c, 5, 62, 0
13, 544677, Note_on_c, 5, 55, 0
13, 544822, Note_on_c, 5, 62, 32
13, 544826, Note_on_c, 5, 55, 38
13, 544852, Note_on_c, 5, 62, 0
13, 544856, Note_on_c, 5, 55, 0
13, 544880, Note_on_c, 5, 62, 47
13, 544888, Note_on_c, 5, 55, 42
13, 544910, Note_on_c, 5, 62, 0
13, 544918, Note_on_c, 5, 55, 0
13, 545298, Note_on_c, 5, 62, 30
13, 545299, Note_on_c, 5, 55, 46
13, 545328, Note_on_c, 5, 62, 0
13, 545329, Note_on_c, 5, 55, 0
13, 545349, Note_on_c, 5, 62, 32
13, 545361, Note_on_c, 5, 55, 42
13, 545379, Note_on_c, 5, 62, 0
13, 545391, Note_on_c, 5, 55, 0
13, 545773, Note_on_c, 5, 62, 38
13, 545784, Note_on_c, 5, 55, 35
13, 545803, Note_on_c, 5, 62, 0
13, 545814, Note_on_c, 5, 55, 0
13, 545834, Note_on_c, 5, 55, 34
13, 545846, Note_on_c, 5, 62, 33
13, 545864, Note_on_c, 5, 55, 0
13, 545876, Note_on_c, 5, 62, 0
13, 546003, Note_on_c, 5, 57, 83
13, 546011, Note_on_c, 5, 61, 72
13, 546123, Note_on_c, 5, 57, 0
13, 546131, Note_on_c, 5, 61, 0
13, 546241, Note_on_c, 5, 61, 85
13, 546245, Note_on_c, 5, 57, 75
13, 546361, Note_on_c, 5, 61, 0
13, 546365, Note_on_c, 5, 57, 0
13, 546728, Note_on_c, 5, 61, 79
13, 546737, Note_on_c, 5, 57, 72
13, 546848, Note_on_c, 5, 61, 0
13, 546857, Note_on_c, 5, 57, 0
13, 547205, Note_on_c, 5, 61, 81
13, 547229, Note_on_c, 5, 57, 69
13, 547325, Note_on_c, 5, 61, 0
13, 547349, Note_on_c, 5, 57, 0
13, 547453, Note_on_c, 5, 60, 66
13, 547455, Note_on_c, 5, 63, 70
13, 547573, Note_on_c, 5, 60, 0
13, 547575, Note_on_c, 5, 63, 0
13, 547689, Note_on_c, 5, 57, 70
13, 547692, Note_on_c, 5, 61, 68
13, 547809, Note_on_c, 5, 57, 0
13, 547812, Note_on_c, 5, 61, 0
13, 548164, Note_on_c, 5, 57, 73
13, 548185, Note_on_c, 5, 61, 85
13, 548284, Note_on_c, 5, 57, 0
13, 548305, Note_on_c, 5, 61, 0
13, 548642, Note_on_c, 5, 61, 84
13, 548646, Note_on_c, 5, 57, 82
13, 548762, Note_on_c, 5, 61, 0
13, 548766, Note_on_c, 5, 57, 0
13, 549129, Note_on_c, 5, 61, 75
13, 549144, Note_on_c, 5, 57, 67
13, 549249, Note_on_c, 5, 61, 0
13, 549264, Note_on_c, 5, 57, 0
13, 549370, Note_on_c, 5, 63, 84
13, 549374, Note_on_c, 5, 60, 69
13, 549490, Note_on_c, 5, 63, 0
13, 549494, Note_on_c, 5, 60, 0
13, 549842, Note_on_c, 5, 60, 84
13, 549863, Note_on_c, 5, 57, 78
13, 549962, Note_on_c, 5, 60, 0
13, 549983, Note_on_c, 5, 57, 0
13, 550342, Note_on_c, 5, 57, 66
13, 550344, Note_on_c, 5, 60, 83
13, 550462, Note_on_c, 5, 57, 0
13, 550464, Note_on_c, 5, 60, 0
13, 550564, Note_on_c, 5, 63, 79
13, 550581, Note_on_c, 5, 57, 67
13, 550684, Note_on_c, 5, 63, 0
13, 550701, Note_on_c, 5, 57, 0
13, 550814, Note_on_c, 5, 64, 105
13, 550815, Note_on_c, 5, 58, 117
13, 550934, Note_on_c, 5, 64, 0
13, 550935, Note_on_c, 5, 58, 0
13, 552144, Note_on_c, 5, 62, 97
13, 552504, Note_on_c, 5, 62, 0
13, 553206, Note_on_c, 5, 62, 79
13, 553313, Note_on_c, 5, 62, 0
13, 553581, Note_on_c, 5, 62, 92
13, 553941, Note_on_c, 5, 62, 0
13, 554779, Note_on_c, 5, 56, 95
13, 554922, Note_on_c, 5, 56, 0
13, 555020, Note_on_c, 5, 53, 87
13, 555163, Note_on_c, 5, 53, 0
13, 555264, Note_on_c, 5, 53, 92
13, 555324, Note_on_c, 5, 53, 0
13, 555361, Note_on_c, 5, 50, 79
13, 555433, Note_on_c, 5, 50, 0
13, 555496, Note_on_c, 5, 50, 84
13, 555556, Note_on_c, 5, 50, 0
13, 555988, Note_on_c, 5, 62, 80
13, 556041, Note_on_c, 5, 62, 0
13, 556223, Note_on_c, 5, 62, 91
13, 556583, Note_on_c, 5, 62, 0
13, 556936, Note_on_c, 5, 56, 95
13, 557008, Note_on_c, 5, 56, 0
13, 557066, Note_on_c, 5, 53, 90
13, 557138, Note_on_c, 5, 53, 0
13, 557161, Note_on_c, 5, 53, 92
13, 557233, Note_on_c, 5, 53, 0
13, 557300, Note_on_c, 5, 50, 91
13, 557372, Note_on_c, 5, 50, 0
13, 557420, Note_on_c, 5, 50, 87
13, 557467, Note_on_c, 5, 50, 0
13, 557540, Note_on_c, 5, 62, 95
13, 557626, Note_on_c, 5, 62, 0
13, 557775, Note_on_c, 5, 62, 86
13, 557918, Note_on_c, 5, 62, 0
13, 558012, Note_on_c, 5, 62, 85
13, 558059, Note_on_c, 5, 62, 0
13, 558481, Note_on_c, 5, 62, 91
13, 558534, Note_on_c, 5, 62, 0
13, 558724, Note_on_c, 5, 62, 95
13, 559084, Note_on_c, 5, 62, 0
13, 563526, Note_on_c, 5, 62, 94
13, 563547, Note_on_c, 5, 69, 110
13, 563579, Note_on_c, 5, 62, 0
13, 563600, Note_on_c, 5, 69, 0
13, 564371, Note_on_c, 5, 69, 92
13, 564372, Note_on_c, 5, 62, 97
13, 564424, Note_on_c, 5, 69, 0
13, 564425, Note_on_c, 5, 62, 0
13, 564480, Control_c, 5, 7, 108
13, 568081, Note_on_c, 5, 50, 94
13, 568102, Note_on_c, 5, 62, 92
13, 568441, Note_on_c, 5, 50, 0
13, 568568, Note_on_c, 5, 50, 94
13, 568688, Note_on_c, 5, 50, 0
13, 568821, Note_on_c, 5, 50, 97
13, 568860, Note_on_c, 5, 50, 0
13, 568968, Note_on_c, 5, 50, 84
13, 569008, Note_on_c, 5, 50, 0
13, 569133, Note_on_c, 5, 50, 91
13, 569173, Note_on_c, 5, 50, 0
13, 569302, Note_on_c, 5, 50, 79
13, 569422, Note_on_c, 5, 50, 0
13, 569528, Note_on_c, 5, 50, 89
13, 569648, Note_on_c, 5, 50, 0
13, 569764, Note_on_c, 5, 50, 82
13, 569803, Note_on_c, 5, 50, 0
13, 569927, Note_on_c, 5, 50, 78
13, 569967, Note_on_c, 5, 50, 0
13, 570092, Note_on_c, 5, 50, 85
13, 570132, Note_on_c, 5, 50, 0
13, 570245, Note_on_c, 5, 50, 80
13, 570284, Note_on_c, 5, 50, 0
13, 570414, Note_on_c, 5, 50, 95
13, 570454, Note_on_c, 5, 50, 0
13, 570544, Note_on_c, 5, 62, 0
13, 570563, Note_on_c, 5, 62, 79
13, 570568, Note_on_c, 5, 50, 97
13, 570848, Note_on_c, 5, 50, 0
13, 570985, Note_on_c, 5, 50, 81
13, 571105, Note_on_c, 5, 50, 0
13, 571215, Note_on_c, 5, 50, 92
13, 571254, Note_on_c, 5, 50, 0
13, 571388, Note_on_c, 5, 50, 84
13, 571428, Note_on_c, 5, 50, 0
13, 571542, Note_on_c, 5, 50, 79
13, 571582, Note_on_c, 5, 50, 0
13, 571705, Note_on_c, 5, 50, 92
13, 571825, Note_on_c, 5, 50, 0
13, 571903, Note_on_c, 5, 62, 0
13, 571922, Note_on_c, 5, 62, 90
13, 571922, Note_on_c, 5, 50, 81
13, 572282, Note_on_c, 5, 50, 0
13, 572402, Note_on_c, 5, 50, 82
13, 572522, Note_on_c, 5, 50, 0
13, 572654, Note_on_c, 5, 50, 92
13, 572693, Note_on_c, 5, 50, 0
13, 572812, Note_on_c, 5, 50, 90
13, 572852, Note_on_c, 5, 50, 0
13, 572972, Note_on_c, 5, 50, 81
13, 573012, Note_on_c, 5, 50, 0
13, 573139, Note_on_c, 5, 50, 97
13, 573259, Note_on_c, 5, 50, 0
13, 573378, Note_on_c, 5, 50, 97
13, 573498, Note_on_c, 5, 50, 0
13, 573627, Note_on_c, 5, 50, 94
13, 573666, Note_on_c, 5, 50, 0
13, 573772, Note_on_c, 5, 50, 97
13, 573812, Note_on_c, 5, 50, 0
13, 573944, Note_on_c, 5, 50, 84
13, 573984, Note_on_c, 5, 50, 0
13, 574105, Note_on_c, 5, 50, 89
13, 574144, Note_on_c, 5, 50, 0
13, 574263, Note_on_c, 5, 50, 86
13, 574303, Note_on_c, 5, 50, 0
13, 574382, Note_on_c, 5, 62, 0
13, 574401, Note_on_c, 5, 62, 78
13, 574401, Note_on_c, 5, 50, 87
13, 575041, Note_on_c, 5, 62, 0
13, 575041, Note_on_c, 5, 50, 0
13, 575060, Note_on_c, 5, 60, 87
13, 575180, Note_on_c, 5, 60, 0
13, 575303, Note_on_c, 5, 58, 91
13, 575423, Note_on_c, 5, 58, 0
13, 575547, Note_on_c, 5, 56, 84
13, 575667, Note_on_c, 5, 56, 0
13, 575779, Note_on_c, 5, 60, 91
13, 575899, Note_on_c, 5, 60, 0
13, 576027, Note_on_c, 5, 62, 89
13, 576147, Note_on_c, 5, 62, 0
13, 576256, Note_on_c, 5, 62, 85
13, 577454, Note_on_c, 5, 60, 91
13, 577456, Note_on_c, 5, 62, 0
13, 577574, Note_on_c, 5, 60, 0
13, 577683, Note_on_c, 5, 58, 91
13, 577803, Note_on_c, 5, 58, 0
13, 577926, Note_on_c, 5, 56, 84
13, 578046, Note_on_c, 5, 56, 0
13, 578175, Note_on_c, 5, 60, 98
13, 578295, Note_on_c, 5, 60, 0
13, 578422, Note_on_c, 5, 62, 85
13, 578542, Note_on_c, 5, 62, 0
13, 580587, Note_on_c, 5, 74, 86
13, 581294, Note_on_c, 5, 72, 84
13, 581307, Note_on_c, 5, 74, 0
13, 581581, Note_on_c, 5, 72, 0
13, 581783, Note_on_c, 5, 70, 83
13, 582070, Note_on_c, 5, 70, 0
13, 582268, Note_on_c, 5, 68, 90
13, 582555, Note_on_c, 5, 68, 0
13, 582735, Note_on_c, 5, 72, 94
13, 583022, Note_on_c, 5, 72, 0
13, 583207, Note_on_c, 5, 74, 81
13, 583447, Note_on_c, 5, 74, 0
13, 585388, Note_on_c, 5, 74, 87
13, 586102, Note_on_c, 5, 72, 80
13, 586108, Note_on_c, 5, 74, 0
13, 586389, Note_on_c, 5, 72, 0
13, 586565, Note_on_c, 5, 70, 84
13, 586852, Note_on_c, 5, 70, 0
13, 587049, Note_on_c, 5, 68, 79
13, 587336, Note_on_c, 5, 68, 0
13, 587545, Note_on_c, 5, 72, 86
13, 587832, Note_on_c, 5, 72, 0
13, 588005, Note_on_c, 5, 74, 90
13, 588125, Note_on_c, 5, 74, 0
13, 588481, Note_on_c, 5, 63, 84
13, 588504, Note_on_c, 5, 70, 86
13, 588601, Note_on_c, 5, 63, 0
13, 588624, Note_on_c, 5, 70, 0
13, 589468, Note_on_c, 5, 63, 88
13, 589588, Note_on_c, 5, 63, 0
13, 590419, Note_on_c, 5, 63, 81
13, 590539, Note_on_c, 5, 63, 0
13, 590886, Note_on_c, 5, 60, 90
13, 590907, Note_on_c, 5, 59, 86
13, 590946, Note_on_c, 5, 60, 0
13, 590951, Note_on_c, 5, 63, 98
13, 591002, Note_on_c, 5, 65, 88
13, 591011, Note_on_c, 5, 63, 0
13, 591027, Note_on_c, 5, 59, 0
13, 591062, Note_on_c, 5, 65, 0
13, 591086, Note_on_c, 5, 67, 93
13, 591131, Note_on_c, 5, 58, 85
13, 591139, Note_on_c, 5, 69, 83
13, 591146, Note_on_c, 5, 67, 0
13, 591184, Note_on_c, 5, 70, 93
13, 591199, Note_on_c, 5, 69, 0
13, 591244, Note_on_c, 5, 70, 0
13, 591251, Note_on_c, 5, 58, 0
13, 591252, Note_on_c, 5, 72, 81
13, 591311, Note_on_c, 5, 74, 87
13, 591312, Note_on_c, 5, 72, 0
13, 591371, Note_on_c, 5, 74, 0
13, 591376, Note_on_c, 5, 56, 83
13, 591380, Note_on_c, 5, 75, 88
13, 591496, Note_on_c, 5, 56, 0
13, 591500, Note_on_c, 5, 75, 0
13, 591626, Note_on_c, 5, 59, 97
13, 591746, Note_on_c, 5, 59, 0
13, 591849, Note_on_c, 5, 61, 79
13, 591969, Note_on_c, 5, 61, 0
13, 592324, Note_on_c, 5, 70, 92
13, 592340, Note_on_c, 5, 63, 94
13, 592444, Note_on_c, 5, 70, 0
13, 592460, Note_on_c, 5, 63, 0
13, 592821, Note_on_c, 5, 59, 85
13, 592941, Note_on_c, 5, 59, 0
13, 593063, Note_on_c, 5, 58, 90
13, 593183, Note_on_c, 5, 58, 0
13, 593305, Note_on_c, 5, 56, 94
13, 593425, Note_on_c, 5, 56, 0
13, 593530, Note_on_c, 5, 59, 85
13, 593650, Note_on_c, 5, 59, 0
13, 593784, Note_on_c, 5, 61, 82
13, 593904, Note_on_c, 5, 61, 0
13, 594257, Note_on_c, 5, 63, 81
13, 594377, Note_on_c, 5, 63, 0
13, 594748, Note_on_c, 5, 60, 89
13, 594789, Note_on_c, 5, 63, 79
13, 594808, Note_on_c, 5, 60, 0
13, 594849, Note_on_c, 5, 63, 0
13, 594854, Note_on_c, 5, 65, 81
13, 594904, Note_on_c, 5, 67, 83
13, 594914, Note_on_c, 5, 65, 0
13, 594962, Note_on_c, 5, 69, 95
13, 594964, Note_on_c, 5, 67, 0
13, 595022, Note_on_c, 5, 69, 0
13, 595046, Note_on_c, 5, 70, 78
13, 595102, Note_on_c, 5, 72, 89
13, 595106, Note_on_c, 5, 70, 0
13, 595144, Note_on_c, 5, 74, 80
13, 595162, Note_on_c, 5, 72, 0
13, 595204, Note_on_c, 5, 74, 0
13, 595214, Note_on_c, 5, 75, 82
13, 595223, Note_on_c, 5, 63, 84
13, 595334, Note_on_c, 5, 75, 0
13, 595343, Note_on_c, 5, 63, 0
13, 595707, Note_on_c, 5, 59, 95
13, 595827, Note_on_c, 5, 59, 0
13, 595932, Note_on_c, 5, 58, 98
13, 596052, Note_on_c, 5, 58, 0
13, 596168, Note_on_c, 5, 56, 78
13, 596185, Note_on_c, 5, 70, 94
13, 596288, Note_on_c, 5, 56, 0
13, 596305, Note_on_c, 5, 70, 0
13, 596411, Note_on_c, 5, 59, 87
13, 596531, Note_on_c, 5, 59, 0
13, 596667, Note_on_c, 5, 61, 80
13, 596787, Note_on_c, 5, 61, 0
13, 597143, Note_on_c, 5, 63, 84
13, 597263, Note_on_c, 5, 63, 0
13, 597607, Note_on_c, 5, 59, 78
13, 597727, Note_on_c, 5, 59, 0
13, 597864, Note_on_c, 5, 58, 93
13, 597984, Note_on_c, 5, 58, 0
13, 598080, Note_on_c, 5, 56, 89
13, 598200, Note_on_c, 5, 56, 0
13, 598330, Note_on_c, 5, 59, 91
13, 598450, Note_on_c, 5, 59, 0
13, 598572, Note_on_c, 5, 61, 93
13, 598582, Note_on_c, 5, 60, 91
13, 598633, Note_on_c, 5, 63, 94
13, 598642, Note_on_c, 5, 60, 0
13, 598692, Note_on_c, 5, 61, 0
13, 598693, Note_on_c, 5, 63, 0
13, 598695, Note_on_c, 5, 65, 80
13, 598741, Note_on_c, 5, 67, 87
13, 598755, Note_on_c, 5, 65, 0
13, 598801, Note_on_c, 5, 67, 0
13, 598823, Note_on_c, 5, 69, 80
13, 598871, Note_on_c, 5, 70, 87
13, 598883, Note_on_c, 5, 69, 0
13, 598928, Note_on_c, 5, 72, 94
13, 598931, Note_on_c, 5, 70, 0
13, 598983, Note_on_c, 5, 74, 88
13, 598988, Note_on_c, 5, 72, 0
13, 599043, Note_on_c, 5, 74, 0
13, 599048, Note_on_c, 5, 63, 92
13, 599059, Note_on_c, 5, 75, 86
13, 599168, Note_on_c, 5, 63, 0
13, 599179, Note_on_c, 5, 75, 0
13, 600004, Note_on_c, 5, 63, 92
13, 600007, Note_on_c, 5, 55, 96
13, 600244, Note_on_c, 5, 63, 0
13, 600247, Note_on_c, 5, 55, 0
13, 600480, Note_on_c, 5, 57, 96
13, 600507, Note_on_c, 5, 64, 95
13, 600720, Note_on_c, 5, 57, 0
13, 600747, Note_on_c, 5, 64, 0
13, 600973, Note_on_c, 5, 65, 91
13, 600987, Note_on_c, 5, 58, 92
13, 601213, Note_on_c, 5, 65, 0
13, 601227, Note_on_c, 5, 58, 0
13, 601445, Note_on_c, 5, 66, 104
13, 601460, Note_on_c, 5, 59, 107
13, 601685, Note_on_c, 5, 66, 0
13, 601700, Note_on_c, 5, 59, 0
13, 602750, Control_c, 5, 11, 65
13, 602756, Control_c, 5, 11, 66
13, 602762, Control_c, 5, 11, 67
13, 602768, Control_c, 5, 11, 68
13, 602774, Control_c, 5, 11, 69
13, 602779, Note_on_c, 5, 69, 103
13, 602780, Control_c, 5, 11, 70
13, 602786, Control_c, 5, 11, 71
13, 602792, Control_c, 5, 11, 72
13, 602797, Control_c, 5, 11, 73
13, 602804, Control_c, 5, 11, 74
13, 602810, Control_c, 5, 11, 75
13, 602816, Control_c, 5, 11, 76
13, 602821, Control_c, 5, 11, 77
13, 602827, Control_c, 5, 11, 78
13, 602834, Control_c, 5, 11, 79
13, 602839, Control_c, 5, 11, 80
13, 602845, Control_c, 5, 11, 81
13, 602851, Control_c, 5, 11, 82
13, 602857, Control_c, 5, 11, 83
13, 602863, Control_c, 5, 11, 84
13, 602869, Control_c, 5, 11, 85
13, 602875, Control_c, 5, 11, 86
13, 602881, Control_c, 5, 11, 87
13, 602887, Control_c, 5, 11, 88
13, 602893, Control_c, 5, 11, 89
13, 602899, Control_c, 5, 11, 90
13, 602905, Control_c, 5, 11, 91
13, 602911, Control_c, 5, 11, 92
13, 602917, Control_c, 5, 11, 93
13, 602923, Control_c, 5, 11, 94
13, 602929, Control_c, 5, 11, 95
13, 602935, Control_c, 5, 11, 96
13, 602941, Control_c, 5, 11, 97
13, 602947, Control_c, 5, 11, 98
13, 602953, Control_c, 5, 11, 99
13, 602959, Control_c, 5, 11, 100
13, 602964, Control_c, 5, 11, 101
13, 602970, Control_c, 5, 11, 102
13, 602977, Control_c, 5, 11, 103
13, 602983, Control_c, 5, 11, 104
13, 602988, Control_c, 5, 11, 105
13, 602994, Control_c, 5, 11, 106
13, 603000, Control_c, 5, 11, 107
13, 603006, Control_c, 5, 11, 108
13, 603012, Control_c, 5, 11, 109
13, 603018, Control_c, 5, 11, 110
13, 603024, Control_c, 5, 11, 111
13, 603030, Control_c, 5, 11, 112
13, 603036, Control_c, 5, 11, 113
13, 603042, Control_c, 5, 11, 114
13, 603048, Control_c, 5, 11, 115
13, 603054, Control_c, 5, 11, 116
13, 603060, Control_c, 5, 11, 117
13, 603066, Control_c, 5, 11, 118
13, 603072, Control_c, 5, 11, 119
13, 603078, Control_c, 5, 11, 120
13, 603084, Control_c, 5, 11, 121
13, 603090, Control_c, 5, 11, 122
13, 603096, Control_c, 5, 11, 123
13, 603102, Control_c, 5, 11, 124
13, 603108, Control_c, 5, 11, 125
13, 603113, Control_c, 5, 11, 126
13, 603139, Note_on_c, 5, 69, 0
13, 605177, Note_on_c, 5, 75, 81
13, 605417, Note_on_c, 5, 75, 0
13, 605657, Note_on_c, 5, 74, 94
13, 605897, Note_on_c, 5, 74, 0
13, 606145, Note_on_c, 5, 73, 86
13, 606385, Note_on_c, 5, 73, 0
13, 606604, Note_on_c, 5, 72, 95
13, 606844, Note_on_c, 5, 72, 0
13, 607096, Note_on_c, 5, 71, 87
13, 607336, Note_on_c, 5, 71, 0
13, 607578, Note_on_c, 5, 72, 95
13, 607818, Note_on_c, 5, 72, 0
13, 608067, Note_on_c, 5, 71, 81
13, 608307, Note_on_c, 5, 71, 0
13, 608541, Note_on_c, 5, 70, 91
13, 608781, Note_on_c, 5, 70, 0
13, 609020, Note_on_c, 5, 69, 90
13, 609260, Note_on_c, 5, 69, 0
13, 609492, Note_on_c, 5, 68, 98
13, 609732, Note_on_c, 5, 68, 0
13, 609961, Note_on_c, 5, 67, 82
13, 610201, Note_on_c, 5, 67, 0
13, 610464, Note_on_c, 5, 66, 90
13, 610704, Note_on_c, 5, 66, 0
13, 610942, Note_on_c, 5, 59, 97
13, 611182, Note_on_c, 5, 59, 0
13, 611423, Note_on_c, 5, 60, 78
13, 611663, Note_on_c, 5, 60, 0
13, 611889, Note_on_c, 5, 61, 84
13, 612129, Note_on_c, 5, 61, 0
13, 612373, Note_on_c, 5, 62, 80
13, 612613, Note_on_c, 5, 62, 0
13, 612859, Note_on_c, 5, 63, 93
13, 613099, Note_on_c, 5, 63, 0
13, 613320, Note_on_c, 5, 63, 92
13, 613336, Note_on_c, 5, 55, 96
13, 613560, Note_on_c, 5, 63, 0
13, 613576, Note_on_c, 5, 55, 0
13, 613816, Note_on_c, 5, 57, 98
13, 613821, Note_on_c, 5, 65, 82
13, 614056, Note_on_c, 5, 57, 0
13, 614061, Note_on_c, 5, 65, 0
13, 614286, Note_on_c, 5, 59, 89
13, 614306, Note_on_c, 5, 67, 92
13, 614526, Note_on_c, 5, 59, 0
13, 614546, Note_on_c, 5, 67, 0
13, 614784, Note_on_c, 5, 69, 100
13, 614788, Note_on_c, 5, 61, 105
13, 615024, Note_on_c, 5, 69, 0
13, 615028, Note_on_c, 5, 61, 0
13, 615259, Note_on_c, 5, 71, 102
13, 615266, Note_on_c, 5, 63, 98
13, 615499, Note_on_c, 5, 71, 0
13, 615506, Note_on_c, 5, 63, 0
13, 615734, Note_on_c, 5, 65, 100
13, 615736, Note_on_c, 5, 73, 111
13, 615974, Note_on_c, 5, 65, 0
13, 615976, Note_on_c, 5, 73, 0
13, 616217, Note_on_c, 5, 75, 120
13, 616220, Note_on_c, 5, 63, 107
13, 616457, Note_on_c, 5, 75, 0
13, 616460, Note_on_c, 5, 63, 0
13, 616686, Note_on_c, 5, 65, 123
13, 616691, Note_on_c, 5, 70, 122
13, 616926, Note_on_c, 5, 65, 0
13, 616931, Note_on_c, 5, 70, 0
13, 617169, Note_on_c, 5, 62, 110
13, 617178, Note_on_c, 5, 68, 121
13, 617409, Note_on_c, 5, 62, 0
13, 617418, Note_on_c, 5, 68, 0
13, 617648, Note_on_c, 5, 58, 122
13, 617659, Note_on_c, 5, 70, 111
13, 617888, Note_on_c, 5, 58, 0
13, 617899, Note_on_c, 5, 70, 0
13, 618120, Note_on_c, 5, 67, 124
13, 618126, Note_on_c, 5, 59, 121
13, 618360, Note_on_c, 5, 67, 0
13, 618366, Note_on_c, 5, 59, 0
13, 618609, Note_on_c, 5, 70, 120
13, 618624, Note_on_c, 5, 61, 111
13, 618849, Note_on_c, 5, 70, 0
13, 618864, Note_on_c, 5, 61, 0
13, 619094, Note_on_c, 5, 60, 110
13, 619102, Note_on_c, 5, 66, 123
13, 619222, Note_on_c, 5, 66, 0
13, 619324, Note_on_c, 5, 65, 123
13, 619334, Note_on_c, 5, 60, 0
13, 619444, Note_on_c, 5, 65, 0
13, 619561, Note_on_c, 5, 61, 113
13, 619586, Note_on_c, 5, 63, 110
13, 619706, Note_on_c, 5, 63, 0
13, 619827, Note_on_c, 5, 66, 116
13, 619947, Note_on_c, 5, 66, 0
13, 620041, Note_on_c, 5, 61, 0
13, 620053, Note_on_c, 5, 60, 106
13, 620064, Note_on_c, 5, 68, 112
13, 620293, Note_on_c, 5, 60, 0
13, 620304, Note_on_c, 5, 68, 0
13, 620524, Note_on_c, 5, 61, 105
13, 620537, Note_on_c, 5, 70, 115
13, 620764, Note_on_c, 5, 61, 0
13, 620777, Note_on_c, 5, 70, 0
13, 621019, Note_on_c, 5, 68, 124
13, 621021, Note_on_c, 5, 60, 124
13, 621259, Note_on_c, 5, 68, 0
13, 621261, Note_on_c, 5, 60, 0
13, 621500, Note_on_c, 5, 70, 108
13, 621507, Note_on_c, 5, 59, 109
13, 621740, Note_on_c, 5, 70, 0
13, 621747, Note_on_c, 5, 59, 0
13, 621961, Note_on_c, 5, 67, 108
13, 621987, Note_on_c, 5, 60, 107
13, 622201, Note_on_c, 5, 67, 0
13, 622227, Note_on_c, 5, 60, 0
13, 622452, Note_on_c, 5, 61, 120
13, 622468, Note_on_c, 5, 70, 106
13, 622692, Note_on_c, 5, 61, 0
13, 622708, Note_on_c, 5, 70, 0
13, 622927, Note_on_c, 5, 60, 108
13, 622930, Note_on_c, 5, 66, 111
13, 623050, Note_on_c, 5, 66, 0
13, 623171, Note_on_c, 5, 65, 106
13, 623291, Note_on_c, 5, 65, 0
13, 623407, Note_on_c, 5, 60, 0
13, 623413, Note_on_c, 5, 61, 123
13, 623416, Note_on_c, 5, 63, 104
13, 623536, Note_on_c, 5, 63, 0
13, 623641, Note_on_c, 5, 66, 104
13, 623761, Note_on_c, 5, 66, 0
13, 623890, Note_on_c, 5, 68, 124
13, 623893, Note_on_c, 5, 61, 0
13, 623898, Note_on_c, 5, 60, 117
13, 624130, Note_on_c, 5, 68, 0
13, 624138, Note_on_c, 5, 60, 0
13, 624367, Note_on_c, 5, 62, 119
13, 624380, Note_on_c, 5, 70, 119
13, 624607, Note_on_c, 5, 62, 0
13, 624620, Note_on_c, 5, 70, 0
13, 624846, Note_on_c, 5, 60, 110
13, 624863, Note_on_c, 5, 68, 112
13, 625086, Note_on_c, 5, 60, 0
13, 625103, Note_on_c, 5, 68, 0
13, 625320, Note_on_c, 5, 70, 112
13, 625320, Note_on_c, 5, 59, 106
13, 625560, Note_on_c, 5, 70, 0
13, 625560, Note_on_c, 5, 59, 0
13, 625803, Note_on_c, 5, 60, 122
13, 625813, Note_on_c, 5, 66, 105
13, 625933, Note_on_c, 5, 66, 0
13, 626053, Note_on_c, 5, 65, 106
13, 626173, Note_on_c, 5, 65, 0
13, 626283, Note_on_c, 5, 60, 0
13, 626298, Note_on_c, 5, 58, 121
13, 626300, Note_on_c, 5, 63, 110
13, 626420, Note_on_c, 5, 63, 0
13, 626523, Note_on_c, 5, 68, 115
13, 626643, Note_on_c, 5, 68, 0
13, 626765, Note_on_c, 5, 70, 122
13, 626769, Note_on_c, 5, 58, 0
13, 626788, Note_on_c, 5, 58, 118
13, 627005, Note_on_c, 5, 70, 0
13, 627255, Note_on_c, 5, 57, 121
13, 627268, Note_on_c, 5, 58, 0
13, 627722, Note_on_c, 5, 67, 107
13, 627728, Note_on_c, 5, 55, 107
13, 627735, Note_on_c, 5, 57, 0
13, 627842, Note_on_c, 5, 67, 0
13, 627848, Note_on_c, 5, 55, 0
13, 633130, Note_on_c, 5, 70, 100
13, 633140, Note_on_c, 5, 58, 107
13, 633190, Note_on_c, 5, 70, 0
13, 633200, Note_on_c, 5, 58, 0
13, 633363, Note_on_c, 5, 58, 112
13, 633375, Note_on_c, 5, 70, 112
13, 633423, Note_on_c, 5, 58, 0
13, 633435, Note_on_c, 5, 70, 0
13, 634097, Note_on_c, 5, 58, 91
13, 634157, Note_on_c, 5, 58, 0
13, 634221, Note_on_c, 5, 54, 83
13, 634281, Note_on_c, 5, 54, 0
13, 634332, Note_on_c, 5, 55, 81
13, 634392, Note_on_c, 5, 55, 0
13, 634442, Note_on_c, 5, 51, 95
13, 634502, Note_on_c, 5, 51, 0
13, 634568, Note_on_c, 5, 52, 87
13, 634628, Note_on_c, 5, 52, 0
13, 634824, Note_on_c, 5, 58, 105
13, 634827, Note_on_c, 5, 70, 109
13, 634884, Note_on_c, 5, 58, 0
13, 634887, Note_on_c, 5, 70, 0
13, 635042, Note_on_c, 5, 70, 110
13, 635055, Note_on_c, 5, 58, 113
13, 635102, Note_on_c, 5, 70, 0
13, 635115, Note_on_c, 5, 58, 0
13, 635308, Note_on_c, 5, 58, 85
13, 635368, Note_on_c, 5, 58, 0
13, 635404, Note_on_c, 5, 54, 92
13, 635464, Note_on_c, 5, 54, 0
13, 635520, Note_on_c, 5, 55, 82
13, 635580, Note_on_c, 5, 55, 0
13, 635657, Note_on_c, 5, 51, 97
13, 635717, Note_on_c, 5, 51, 0
13, 635783, Note_on_c, 5, 52, 90
13, 635843, Note_on_c, 5, 52, 0
13, 636004, Note_on_c, 5, 56, 77
13, 636026, Note_on_c, 5, 70, 74
13, 636064, Note_on_c, 5, 56, 0
13, 636086, Note_on_c, 5, 70, 0
13, 636240, Note_on_c, 5, 70, 65
13, 636251, Note_on_c, 5, 56, 68
13, 636300, Note_on_c, 5, 70, 0
13, 636311, Note_on_c, 5, 56, 0
13, 636613, Note_on_c, 5, 70, 92
13, 636628, Note_on_c, 5, 56, 87
13, 636666, Note_on_c, 5, 70, 0
13, 636681, Note_on_c, 5, 56, 0
13, 636731, Note_on_c, 5, 69, 97
13, 636735, Note_on_c, 5, 55, 82
13, 636784, Note_on_c, 5, 69, 0
13, 636788, Note_on_c, 5, 55, 0
13, 636844, Note_on_c, 5, 70, 91
13, 636853, Note_on_c, 5, 56, 84
13, 636897, Note_on_c, 5, 70, 0
13, 636906, Note_on_c, 5, 56, 0
13, 637095, Note_on_c, 5, 70, 85
13, 637107, Note_on_c, 5, 56, 67
13, 637155, Note_on_c, 5, 70, 0
13, 637167, Note_on_c, 5, 56, 0
13, 637323, Note_on_c, 5, 70, 68
13, 637337, Note_on_c, 5, 56, 67
13, 637383, Note_on_c, 5, 70, 0
13, 637397, Note_on_c, 5, 56, 0
13, 637686, Note_on_c, 5, 70, 83
13, 637690, Note_on_c, 5, 56, 93
13, 637739, Note_on_c, 5, 70, 0
13, 637743, Note_on_c, 5, 56, 0
13, 637805, Note_on_c, 5, 69, 80
13, 637822, Note_on_c, 5, 55, 88
13, 637858, Note_on_c, 5, 69, 0
13, 637875, Note_on_c, 5, 55, 0
13, 637924, Note_on_c, 5, 56, 94
13, 637925, Note_on_c, 5, 70, 93
13, 637977, Note_on_c, 5, 56, 0
13, 637978, Note_on_c, 5, 70, 0
13, 638173, Note_on_c, 5, 70, 78
13, 638182, Note_on_c, 5, 56, 78
13, 638233, Note_on_c, 5, 70, 0
13, 638242, Note_on_c, 5, 56, 0
13, 638407, Note_on_c, 5, 70, 74
13, 638428, Note_on_c, 5, 56, 70
13, 638467, Note_on_c, 5, 70, 0
13, 638488, Note_on_c, 5, 56, 0
13, 638772, Note_on_c, 5, 56, 96
13, 638780, Note_on_c, 5, 70, 78
13, 638825, Note_on_c, 5, 56, 0
13, 638833, Note_on_c, 5, 70, 0
13, 638890, Note_on_c, 5, 55, 83
13, 638904, Note_on_c, 5, 69, 84
13, 638943, Note_on_c, 5, 55, 0
13, 638957, Note_on_c, 5, 69, 0
13, 639012, Note_on_c, 5, 70, 89
13, 639017, Note_on_c, 5, 56, 83
13, 639065, Note_on_c, 5, 70, 0
13, 639070, Note_on_c, 5, 56, 0
13, 639256, Note_on_c, 5, 56, 71
13, 639267, Note_on_c, 5, 70, 67
13, 639316, Note_on_c, 5, 56, 0
13, 639327, Note_on_c, 5, 70, 0
13, 639496, Note_on_c, 5, 56, 90
13, 639501, Note_on_c, 5, 70, 98
13, 639549, Note_on_c, 5, 56, 0
13, 639554, Note_on_c, 5, 70, 0
13, 639608, Note_on_c, 5, 55, 86
13, 639621, Note_on_c, 5, 69, 82
13, 639661, Note_on_c, 5, 55, 0
13, 639674, Note_on_c, 5, 69, 0
13, 639727, Note_on_c, 5, 56, 83
13, 639734, Note_on_c, 5, 70, 83
13, 639780, Note_on_c, 5, 56, 0
13, 639787, Note_on_c, 5, 70, 0
13, 640574, Note_on_c, 5, 69, 73
13, 640579, Note_on_c, 5, 57, 73
13, 640621, Note_on_c, 5, 69, 0
13, 640626, Note_on_c, 5, 57, 0
13, 640680, Note_on_c, 5, 67, 84
13, 640705, Note_on_c, 5, 55, 65
13, 640727, Note_on_c, 5, 67, 0
13, 640752, Note_on_c, 5, 55, 0
13, 640921, Note_on_c, 5, 54, 76
13, 640933, Note_on_c, 5, 66, 65
13, 640968, Note_on_c, 5, 54, 0
13, 640980, Note_on_c, 5, 66, 0
13, 641882, Note_on_c, 5, 57, 77
13, 641885, Note_on_c, 5, 69, 88
13, 641929, Note_on_c, 5, 57, 0
13, 641932, Note_on_c, 5, 69, 0
13, 642003, Note_on_c, 5, 67, 77
13, 642024, Note_on_c, 5, 55, 86
13, 642050, Note_on_c, 5, 67, 0
13, 642071, Note_on_c, 5, 55, 0
13, 642250, Note_on_c, 5, 54, 83
13, 642263, Note_on_c, 5, 66, 87
13, 642297, Note_on_c, 5, 54, 0
13, 642310, Note_on_c, 5, 66, 0
13, 642497, Note_on_c, 5, 57, 71
13, 642506, Note_on_c, 5, 69, 79
13, 642544, Note_on_c, 5, 57, 0
13, 642553, Note_on_c, 5, 69, 0
13, 642613, Note_on_c, 5, 67, 84
13, 642616, Note_on_c, 5, 55, 70
13, 642660, Note_on_c, 5, 67, 0
13, 642663, Note_on_c, 5, 55, 0
13, 642847, Note_on_c, 5, 54, 88
13, 642859, Note_on_c, 5, 66, 69
13, 642894, Note_on_c, 5, 54, 0
13, 642906, Note_on_c, 5, 66, 0
13, 643094, Note_on_c, 5, 70, 71
13, 643103, Note_on_c, 5, 58, 89
13, 643141, Note_on_c, 5, 70, 0
13, 643150, Note_on_c, 5, 58, 0
13, 643210, Note_on_c, 5, 69, 86
13, 643221, Note_on_c, 5, 57, 76
13, 643257, Note_on_c, 5, 69, 0
13, 643268, Note_on_c, 5, 57, 0
13, 643320, Note_on_c, 5, 55, 84
13, 643326, Note_on_c, 5, 67, 86
13, 643367, Note_on_c, 5, 55, 0
13, 643373, Note_on_c, 5, 67, 0
13, 643579, Note_on_c, 5, 66, 83
13, 643588, Note_on_c, 5, 54, 71
13, 643626, Note_on_c, 5, 66, 0
13, 643635, Note_on_c, 5, 54, 0
13, 643800, Note_on_c, 5, 69, 87
13, 643829, Note_on_c, 5, 57, 82
13, 643847, Note_on_c, 5, 69, 0
13, 643876, Note_on_c, 5, 57, 0
13, 643940, Note_on_c, 5, 67, 85
13, 643945, Note_on_c, 5, 55, 80
13, 643987, Note_on_c, 5, 67, 0
13, 643992, Note_on_c, 5, 55, 0
13, 644179, Note_on_c, 5, 54, 70
13, 644188, Note_on_c, 5, 66, 74
13, 644226, Note_on_c, 5, 54, 0
13, 644235, Note_on_c, 5, 66, 0
13, 644407, Note_on_c, 5, 72, 79
13, 644418, Note_on_c, 5, 60, 75
13, 644454, Note_on_c, 5, 72, 0
13, 644465, Note_on_c, 5, 60, 0
13, 644526, Note_on_c, 5, 70, 69
13, 644527, Note_on_c, 5, 58, 85
13, 644573, Note_on_c, 5, 70, 0
13, 644574, Note_on_c, 5, 58, 0
13, 644647, Note_on_c, 5, 69, 76
13, 644652, Note_on_c, 5, 57, 86
13, 644694, Note_on_c, 5, 69, 0
13, 644699, Note_on_c, 5, 57, 0
13, 644896, Note_on_c, 5, 67, 83
13, 644904, Note_on_c, 5, 55, 85
13, 644943, Note_on_c, 5, 67, 0
13, 644951, Note_on_c, 5, 55, 0
13, 645125, Note_on_c, 5, 66, 88
13, 645128, Note_on_c, 5, 54, 78
13, 645172, Note_on_c, 5, 66, 0
13, 645175, Note_on_c, 5, 54, 0
13, 645974, Note_on_c, 5, 70, 46
13, 645977, Note_on_c, 5, 58, 52
13, 646021, Note_on_c, 5, 70, 0
13, 646024, Note_on_c, 5, 58, 0
13, 646091, Note_on_c, 5, 69, 58
13, 646101, Note_on_c, 5, 57, 46
13, 646138, Note_on_c, 5, 69, 0
13, 646148, Note_on_c, 5, 57, 0
13, 646200, Note_on_c, 5, 55, 40
13, 646220, Note_on_c, 5, 67, 44
13, 646247, Note_on_c, 5, 55, 0
13, 646267, Note_on_c, 5, 67, 0
13, 646461, Note_on_c, 5, 54, 40
13, 646463, Note_on_c, 5, 66, 51
13, 646508, Note_on_c, 5, 54, 0
13, 646510, Note_on_c, 5, 66, 0
13, 648382, Note_on_c, 5, 58, 104
13, 648385, Note_on_c, 5, 65, 97
13, 648502, Note_on_c, 5, 58, 0
13, 648505, Note_on_c, 5, 65, 0
13, 649330, Note_on_c, 5, 65, 96
13, 649450, Note_on_c, 5, 65, 0
13, 650888, Note_on_c, 5, 65, 93
13, 651008, Note_on_c, 5, 65, 0
13, 651867, Note_on_c, 5, 65, 106
13, 651987, Note_on_c, 5, 65, 0
13, 652578, Note_on_c, 5, 65, 94
13, 652698, Note_on_c, 5, 65, 0
13, 653540, Note_on_c, 5, 65, 93
13, 653660, Note_on_c, 5, 65, 0
13, 654240, Note_on_c, 5, 65, 100
13, 654360, Note_on_c, 5, 65, 0
13, 654735, Note_on_c, 5, 65, 110
13, 654795, Note_on_c, 5, 65, 0
13, 654864, Note_on_c, 5, 65, 106
13, 654924, Note_on_c, 5, 65, 0
13, 654964, Note_on_c, 5, 65, 92
13, 655024, Note_on_c, 5, 65, 0
13, 655103, Note_on_c, 5, 65, 107
13, 655163, Note_on_c, 5, 65, 0
13, 655326, Note_on_c, 5, 67, 108
13, 655327, Note_on_c, 5, 66, 114
13, 655386, Note_on_c, 5, 67, 0
13, 655387, Note_on_c, 5, 66, 0
13, 658085, Note_on_c, 5, 56, 115
13, 658138, Note_on_c, 5, 56, 0
13, 658138, End_track
14, 0, Start_track
14, 0, Title_t, "Corni II"
14, 0, MIDI_port, 0
14, 0, Program_c, 5, 60
14, 26, Note_on_c, 5, 53, 45
14, 2890, Note_on_c, 5, 56, 43
14, 2904, Note_on_c, 5, 53, 0
14, 3130, Note_on_c, 5, 56, 0
14, 3376, Note_on_c, 5, 53, 38
14, 8896, Note_on_c, 5, 53, 0
14, 10570, Note_on_c, 5, 53, 69
14, 13690, Note_on_c, 5, 53, 0
14, 15363, Note_on_c, 5, 53, 77
14, 17043, Note_on_c, 5, 53, 0
14, 19689, Note_on_c, 5, 53, 79
14, 21369, Note_on_c, 5, 53, 0
14, 44165, Note_on_c, 5, 51, 55
14, 44173, Note_on_c, 5, 57, 43
14, 44645, Note_on_c, 5, 51, 0
14, 44647, Note_on_c, 5, 58, 43
14, 44653, Note_on_c, 5, 57, 0
14, 44654, Note_on_c, 5, 53, 44
14, 44887, Note_on_c, 5, 58, 0
14, 44888, Note_on_c, 5, 57, 43
14, 44894, Note_on_c, 5, 53, 0
14, 44905, Note_on_c, 5, 51, 55
14, 45128, Note_on_c, 5, 57, 0
14, 45144, Note_on_c, 5, 58, 40
14, 45145, Note_on_c, 5, 51, 0
14, 45147, Note_on_c, 5, 55, 48
14, 45621, Note_on_c, 5, 53, 56
14, 45627, Note_on_c, 5, 55, 0
14, 46093, Note_on_c, 5, 51, 39
14, 46098, Note_on_c, 5, 57, 42
14, 46101, Note_on_c, 5, 53, 0
14, 46104, Note_on_c, 5, 58, 0
14, 46561, Note_on_c, 5, 53, 47
14, 46564, Note_on_c, 5, 58, 51
14, 46573, Note_on_c, 5, 51, 0
14, 46578, Note_on_c, 5, 57, 0
14, 46801, Note_on_c, 5, 53, 0
14, 46804, Note_on_c, 5, 58, 0
14, 46821, Note_on_c, 5, 51, 55
14, 46828, Note_on_c, 5, 57, 44
14, 47061, Note_on_c, 5, 51, 0
14, 47062, Note_on_c, 5, 55, 45
14, 47068, Note_on_c, 5, 57, 0
14, 47068, Note_on_c, 5, 58, 44
14, 47520, Note_on_c, 5, 53, 45
14, 47542, Note_on_c, 5, 55, 0
14, 48000, Note_on_c, 5, 53, 0
14, 48028, Note_on_c, 5, 58, 0
14, 83528, Note_on_c, 5, 71, 47
14, 84248, Note_on_c, 5, 71, 0
14, 84250, Note_on_c, 5, 69, 37
14, 84490, Note_on_c, 5, 69, 0
14, 84495, Note_on_c, 5, 71, 48
14, 84975, Note_on_c, 5, 71, 0
14, 84982, Note_on_c, 5, 66, 48
14, 85222, Note_on_c, 5, 66, 0
14, 85228, Note_on_c, 5, 64, 43
14, 85468, Note_on_c, 5, 64, 0
14, 85468, Note_on_c, 5, 69, 37
14, 85930, Note_on_c, 5, 66, 32
14, 85948, Note_on_c, 5, 69, 0
14, 86362, Note_on_c, 5, 66, 0
14, 86409, Note_on_c, 5, 71, 47
14, 87129, Note_on_c, 5, 71, 0
14, 87130, Note_on_c, 5, 69, 49
14, 87370, Note_on_c, 5, 69, 0
14, 87385, Note_on_c, 5, 71, 47
14, 87848, Note_on_c, 5, 66, 39
14, 87865, Note_on_c, 5, 71, 0
14, 88088, Note_on_c, 5, 66, 0
14, 88107, Note_on_c, 5, 64, 42
14, 88333, Note_on_c, 5, 69, 46
14, 88347, Note_on_c, 5, 64, 0
14, 88573, Note_on_c, 5, 69, 0
14, 110400, Control_c, 5, 11, 127
14, 110414, Note_on_c, 5, 63, 31
14, 110420, Note_on_c, 5, 57, 25
14, 110425, Control_c, 5, 11, 126
14, 110450, Control_c, 5, 11, 125
14, 110475, Control_c, 5, 11, 124
14, 110501, Control_c, 5, 11, 123
14, 110526, Control_c, 5, 11, 122
14, 110551, Control_c, 5, 11, 121
14, 110576, Control_c, 5, 11, 120
14, 110602, Control_c, 5, 11, 119
14, 110627, Control_c, 5, 11, 118
14, 110652, Control_c, 5, 11, 117
14, 110677, Control_c, 5, 11, 116
14, 110703, Control_c, 5, 11, 115
14, 110728, Control_c, 5, 11, 114
14, 110753, Control_c, 5, 11, 113
14, 110778, Control_c, 5, 11, 112
14, 110804, Control_c, 5, 11, 111
14, 110829, Control_c, 5, 11, 110
14, 110854, Control_c, 5, 11, 109
14, 110880, Control_c, 5, 11, 108
14, 110905, Control_c, 5, 11, 107
14, 110930, Control_c, 5, 11, 106
14, 110955, Control_c, 5, 11, 105
14, 110981, Control_c, 5, 11, 104
14, 111006, Control_c, 5, 11, 103
14, 111031, Control_c, 5, 11, 102
14, 111056, Control_c, 5, 11, 101
14, 111082, Control_c, 5, 11, 100
14, 111107, Control_c, 5, 11, 99
14, 111132, Control_c, 5, 11, 98
14, 111157, Control_c, 5, 11, 97
14, 111183, Control_c, 5, 11, 96
14, 111208, Control_c, 5, 11, 95
14, 111233, Control_c, 5, 11, 94
14, 111258, Control_c, 5, 11, 93
14, 111284, Control_c, 5, 11, 92
14, 111309, Control_c, 5, 11, 91
14, 111334, Control_c, 5, 11, 90
14, 111360, Control_c, 5, 11, 89
14, 111385, Control_c, 5, 11, 88
14, 111410, Control_c, 5, 11, 87
14, 111435, Control_c, 5, 11, 86
14, 111461, Control_c, 5, 11, 85
14, 111486, Control_c, 5, 11, 84
14, 111511, Control_c, 5, 11, 83
14, 111536, Control_c, 5, 11, 82
14, 111562, Control_c, 5, 11, 81
14, 111587, Control_c, 5, 11, 80
14, 111612, Control_c, 5, 11, 79
14, 111637, Control_c, 5, 11, 78
14, 111663, Control_c, 5, 11, 77
14, 111688, Control_c, 5, 11, 76
14, 111713, Control_c, 5, 11, 75
14, 111738, Control_c, 5, 11, 74
14, 111764, Control_c, 5, 11, 73
14, 111789, Control_c, 5, 11, 72
14, 111814, Control_c, 5, 11, 71
14, 111840, Control_c, 5, 11, 70
14, 111865, Control_c, 5, 11, 69
14, 111890, Control_c, 5, 11, 68
14, 111915, Control_c, 5, 11, 67
14, 111941, Control_c, 5, 11, 66
14, 111966, Control_c, 5, 11, 65
14, 111991, Control_c, 5, 11, 64
14, 112016, Control_c, 5, 11, 63
14, 112042, Control_c, 5, 11, 62
14, 112067, Control_c, 5, 11, 61
14, 112092, Control_c, 5, 11, 60
14, 112117, Control_c, 5, 11, 59
14, 112143, Control_c, 5, 11, 58
14, 112168, Control_c, 5, 11, 57
14, 112193, Control_c, 5, 11, 56
14, 112218, Control_c, 5, 11, 55
14, 112244, Control_c, 5, 11, 54
14, 112269, Control_c, 5, 11, 53
14, 112294, Control_c, 5, 11, 52
14, 112320, Control_c, 5, 11, 51
14, 112345, Control_c, 5, 11, 50
14, 112370, Control_c, 5, 11, 49
14, 112395, Control_c, 5, 11, 48
14, 112421, Control_c, 5, 11, 47
14, 112446, Control_c, 5, 11, 46
14, 112471, Control_c, 5, 11, 45
14, 112496, Control_c, 5, 11, 44
14, 112522, Control_c, 5, 11, 43
14, 112547, Control_c, 5, 11, 42
14, 112572, Control_c, 5, 11, 41
14, 112597, Control_c, 5, 11, 40
14, 112623, Control_c, 5, 11, 39
14, 112648, Control_c, 5, 11, 38
14, 112673, Control_c, 5, 11, 37
14, 112698, Control_c, 5, 11, 36
14, 112724, Control_c, 5, 11, 35
14, 112749, Control_c, 5, 11, 34
14, 112774, Control_c, 5, 11, 33
14, 112800, Control_c, 5, 11, 32
14, 112814, Note_on_c, 5, 63, 0
14, 112820, Note_on_c, 5, 57, 0
14, 159374, Control_c, 5, 11, 127
14, 159850, Note_on_c, 5, 57, 68
14, 159862, Note_on_c, 5, 59, 72
14, 160234, Note_on_c, 5, 57, 0
14, 160246, Note_on_c, 5, 59, 0
14, 160330, Note_on_c, 5, 53, 72
14, 160343, Note_on_c, 5, 58, 72
14, 160714, Note_on_c, 5, 53, 0
14, 160727, Note_on_c, 5, 58, 0
14, 160802, Note_on_c, 5, 59, 73
14, 160820, Note_on_c, 5, 57, 74
14, 161186, Note_on_c, 5, 59, 0
14, 161204, Note_on_c, 5, 57, 0
14, 161281, Note_on_c, 5, 53, 81
14, 161304, Note_on_c, 5, 58, 83
14, 161665, Note_on_c, 5, 53, 0
14, 161688, Note_on_c, 5, 58, 0
14, 161762, Note_on_c, 5, 61, 65
14, 161768, Note_on_c, 5, 57, 69
14, 162146, Note_on_c, 5, 61, 0
14, 162152, Note_on_c, 5, 57, 0
14, 162260, Note_on_c, 5, 54, 65
14, 162265, Note_on_c, 5, 60, 65
14, 162644, Note_on_c, 5, 54, 0
14, 162649, Note_on_c, 5, 60, 0
14, 162721, Note_on_c, 5, 57, 67
14, 162723, Note_on_c, 5, 59, 82
14, 163105, Note_on_c, 5, 57, 0
14, 163107, Note_on_c, 5, 59, 0
14, 163221, Note_on_c, 5, 58, 68
14, 163225, Note_on_c, 5, 53, 67
14, 163605, Note_on_c, 5, 58, 0
14, 163609, Note_on_c, 5, 53, 0
14, 163694, Note_on_c, 5, 57, 73
14, 163709, Note_on_c, 5, 59, 80
14, 164078, Note_on_c, 5, 57, 0
14, 164093, Note_on_c, 5, 59, 0
14, 164172, Note_on_c, 5, 58, 69
14, 164175, Note_on_c, 5, 53, 84
14, 164556, Note_on_c, 5, 58, 0
14, 164559, Note_on_c, 5, 53, 0
14, 164652, Note_on_c, 5, 57, 66
14, 164659, Note_on_c, 5, 59, 80
14, 165036, Note_on_c, 5, 57, 0
14, 165043, Note_on_c, 5, 59, 0
14, 165120, Note_on_c, 5, 60, 83
14, 165138, Note_on_c, 5, 54, 77
14, 165504, Note_on_c, 5, 60, 0
14, 165522, Note_on_c, 5, 54, 0
14, 165611, Note_on_c, 5, 59, 80
14, 165621, Note_on_c, 5, 56, 79
14, 165995, Note_on_c, 5, 59, 0
14, 166005, Note_on_c, 5, 56, 0
14, 166086, Note_on_c, 5, 55, 68
14, 166087, Note_on_c, 5, 58, 81
14, 166470, Note_on_c, 5, 55, 0
14, 166471, Note_on_c, 5, 58, 0
14, 178084, Note_on_c, 5, 55, 50
14, 179764, Note_on_c, 5, 55, 0
14, 179785, Note_on_c, 5, 52, 42
14, 180024, Note_on_c, 5, 58, 53
14, 180025, Note_on_c, 5, 52, 0
14, 180484, Note_on_c, 5, 55, 44
14, 180504, Note_on_c, 5, 58, 0
14, 180868, Note_on_c, 5, 55, 0
14, 180962, Note_on_c, 5, 61, 54
14, 181442, Note_on_c, 5, 61, 0
14, 181449, Note_on_c, 5, 60, 57
14, 181929, Note_on_c, 5, 60, 0
14, 181934, Note_on_c, 5, 59, 45
14, 182405, Note_on_c, 5, 57, 55
14, 182414, Note_on_c, 5, 59, 0
14, 182645, Note_on_c, 5, 57, 0
14, 182659, Note_on_c, 5, 55, 41
14, 182899, Note_on_c, 5, 55, 0
14, 182907, Note_on_c, 5, 60, 51
14, 183375, Note_on_c, 5, 57, 54
14, 183387, Note_on_c, 5, 60, 0
14, 183663, Note_on_c, 5, 57, 0
14, 189614, Note_on_c, 5, 59, 103
14, 189842, Note_on_c, 5, 64, 103
14, 189854, Note_on_c, 5, 59, 0
14, 191522, Note_on_c, 5, 64, 0
14, 201867, Note_on_c, 5, 47, 113
14, 202099, Note_on_c, 5, 57, 117
14, 202107, Note_on_c, 5, 47, 0
14, 202819, Note_on_c, 5, 57, 0
14, 203769, Note_on_c, 5, 47, 109
14, 204009, Note_on_c, 5, 47, 0
14, 204018, Note_on_c, 5, 57, 102
14, 204738, Note_on_c, 5, 57, 0
14, 205701, Note_on_c, 5, 47, 100
14, 205941, Note_on_c, 5, 47, 0
14, 205942, Note_on_c, 5, 57, 110
14, 206182, Note_on_c, 5, 57, 0
14, 206644, Note_on_c, 5, 47, 109
14, 206884, Note_on_c, 5, 47, 0
14, 206884, Note_on_c, 5, 57, 110
14, 207124, Note_on_c, 5, 57, 0
14, 207627, Note_on_c, 5, 47, 110
14, 207847, Note_on_c, 5, 57, 116
14, 207867, Note_on_c, 5, 47, 0
14, 208087, Note_on_c, 5, 57, 0
14, 210254, Note_on_c, 5, 43, 101
14, 210374, Note_on_c, 5, 43, 0
14, 216245, Note_on_c, 5, 67, 111
14, 216255, Note_on_c, 5, 68, 113
14, 216352, Note_on_c, 5, 67, 0
14, 216362, Note_on_c, 5, 68, 0
14, 217440, Note_on_c, 5, 68, 105
14, 217453, Note_on_c, 5, 67, 118
14, 217547, Note_on_c, 5, 68, 0
14, 217560, Note_on_c, 5, 67, 0
14, 218640, Note_on_c, 5, 61, 118
14, 218646, Note_on_c, 5, 67, 116
14, 218747, Note_on_c, 5, 61, 0
14, 218753, Note_on_c, 5, 67, 0
14, 219122, Note_on_c, 5, 61, 103
14, 219134, Note_on_c, 5, 67, 107
14, 219229, Note_on_c, 5, 61, 0
14, 219241, Note_on_c, 5, 67, 0
14, 219612, Note_on_c, 5, 61, 103
14, 219613, Note_on_c, 5, 67, 104
14, 219719, Note_on_c, 5, 61, 0
14, 219720, Note_on_c, 5, 67, 0
14, 220082, Note_on_c, 5, 61, 104
14, 220101, Note_on_c, 5, 67, 109
14, 220189, Note_on_c, 5, 61, 0
14, 220208, Note_on_c, 5, 67, 0
14, 220802, Note_on_c, 5, 68, 109
14, 220816, Note_on_c, 5, 67, 110
14, 220909, Note_on_c, 5, 68, 0
14, 220923, Note_on_c, 5, 67, 0
14, 222004, Note_on_c, 5, 67, 120
14, 222026, Note_on_c, 5, 68, 110
14, 222111, Note_on_c, 5, 67, 0
14, 222133, Note_on_c, 5, 68, 0
14, 222508, Note_on_c, 5, 68, 113
14, 222508, Note_on_c, 5, 67, 117
14, 222615, Note_on_c, 5, 68, 0
14, 222615, Note_on_c, 5, 67, 0
14, 223682, Note_on_c, 5, 68, 114
14, 223696, Note_on_c, 5, 67, 105
14, 223789, Note_on_c, 5, 68, 0
14, 223803, Note_on_c, 5, 67, 0
14, 224640, Note_on_c, 5, 57, 127
14, 224700, Note_on_c, 5, 57, 0
14, 224718, Note_on_c, 5, 60, 117
14, 224778, Note_on_c, 5, 60, 0
14, 224782, Note_on_c, 5, 63, 110
14, 224828, Note_on_c, 5, 65, 127
14, 224842, Note_on_c, 5, 63, 0
14, 224888, Note_on_c, 5, 65, 0
14, 224894, Note_on_c, 5, 67, 122
14, 224952, Note_on_c, 5, 69, 116
14, 224954, Note_on_c, 5, 67, 0
14, 225004, Note_on_c, 5, 72, 127
14, 225012, Note_on_c, 5, 69, 0
14, 225061, Note_on_c, 5, 73, 126
14, 225064, Note_on_c, 5, 72, 0
14, 225121, Note_on_c, 5, 73, 0
14, 225135, Note_on_c, 5, 75, 79
14, 225255, Note_on_c, 5, 75, 0
14, 225601, Note_on_c, 5, 48, 101
14, 225610, Note_on_c, 5, 42, 100
14, 225708, Note_on_c, 5, 48, 0
14, 225717, Note_on_c, 5, 42, 0
14, 226097, Note_on_c, 5, 51, 107
14, 226103, Note_on_c, 5, 42, 105
14, 226204, Note_on_c, 5, 51, 0
14, 226210, Note_on_c, 5, 42, 0
14, 226562, Note_on_c, 5, 48, 110
14, 226585, Note_on_c, 5, 42, 117
14, 226669, Note_on_c, 5, 48, 0
14, 226692, Note_on_c, 5, 42, 0
14, 227051, Note_on_c, 5, 51, 119
14, 227061, Note_on_c, 5, 42, 110
14, 227158, Note_on_c, 5, 51, 0
14, 227168, Note_on_c, 5, 42, 0
14, 227539, Note_on_c, 5, 48, 104
14, 227544, Note_on_c, 5, 42, 105
14, 227646, Note_on_c, 5, 48, 0
14, 227651, Note_on_c, 5, 42, 0
14, 228005, Note_on_c, 5, 42, 112
14, 228018, Note_on_c, 5, 51, 118
14, 228112, Note_on_c, 5, 42, 0
14, 228125, Note_on_c, 5, 51, 0
14, 228492, Note_on_c, 5, 42, 116
14, 228497, Note_on_c, 5, 48, 111
14, 228599, Note_on_c, 5, 42, 0
14, 228604, Note_on_c, 5, 48, 0
14, 229464, Note_on_c, 5, 57, 120
14, 229521, Note_on_c, 5, 60, 119
14, 229524, Note_on_c, 5, 57, 0
14, 229562, Note_on_c, 5, 63, 124
14, 229581, Note_on_c, 5, 60, 0
14, 229622, Note_on_c, 5, 63, 0
14, 229633, Note_on_c, 5, 65, 119
14, 229681, Note_on_c, 5, 67, 120
14, 229693, Note_on_c, 5, 65, 0
14, 229741, Note_on_c, 5, 67, 0
14, 229761, Note_on_c, 5, 69, 110
14, 229820, Note_on_c, 5, 72, 114
14, 229821, Note_on_c, 5, 69, 0
14, 229880, Note_on_c, 5, 72, 0
14, 229885, Note_on_c, 5, 73, 122
14, 229941, Note_on_c, 5, 75, 92
14, 229945, Note_on_c, 5, 73, 0
14, 230061, Note_on_c, 5, 75, 0
14, 230403, Note_on_c, 5, 42, 112
14, 230429, Note_on_c, 5, 48, 105
14, 230510, Note_on_c, 5, 42, 0
14, 230536, Note_on_c, 5, 48, 0
14, 230882, Note_on_c, 5, 42, 116
14, 230888, Note_on_c, 5, 51, 113
14, 230989, Note_on_c, 5, 42, 0
14, 230995, Note_on_c, 5, 51, 0
14, 231380, Note_on_c, 5, 42, 120
14, 231386, Note_on_c, 5, 48, 116
14, 231487, Note_on_c, 5, 42, 0
14, 231493, Note_on_c, 5, 48, 0
14, 231856, Note_on_c, 5, 42, 118
14, 231858, Note_on_c, 5, 51, 114
14, 231963, Note_on_c, 5, 42, 0
14, 231965, Note_on_c, 5, 51, 0
14, 232326, Note_on_c, 5, 42, 107
14, 232340, Note_on_c, 5, 48, 110
14, 232433, Note_on_c, 5, 42, 0
14, 232447, Note_on_c, 5, 48, 0
14, 232820, Note_on_c, 5, 42, 106
14, 232820, Note_on_c, 5, 51, 115
14, 232927, Note_on_c, 5, 42, 0
14, 232927, Note_on_c, 5, 51, 0
14, 233522, Note_on_c, 5, 67, 100
14, 233537, Note_on_c, 5, 68, 109
14, 233629, Note_on_c, 5, 67, 0
14, 233644, Note_on_c, 5, 68, 0
14, 234492, Note_on_c, 5, 57, 127
14, 234552, Note_on_c, 5, 57, 0
14, 234563, Note_on_c, 5, 60, 120
14, 234613, Note_on_c, 5, 63, 126
14, 234623, Note_on_c, 5, 60, 0
14, 234673, Note_on_c, 5, 63, 0
14, 234683, Note_on_c, 5, 65, 113
14, 234743, Note_on_c, 5, 65, 0
14, 234749, Note_on_c, 5, 67, 127
14, 234790, Note_on_c, 5, 69, 122
14, 234809, Note_on_c, 5, 67, 0
14, 234844, Note_on_c, 5, 72, 117
14, 234850, Note_on_c, 5, 69, 0
14, 234904, Note_on_c, 5, 72, 0
14, 234923, Note_on_c, 5, 73, 127
14, 234960, Note_on_c, 5, 75, 92
14, 234983, Note_on_c, 5, 73, 0
14, 235080, Note_on_c, 5, 75, 0
14, 235447, Note_on_c, 5, 42, 103
14, 235455, Note_on_c, 5, 48, 116
14, 235554, Note_on_c, 5, 42, 0
14, 235562, Note_on_c, 5, 48, 0
14, 235928, Note_on_c, 5, 42, 103
14, 235937, Note_on_c, 5, 51, 120
14, 236035, Note_on_c, 5, 42, 0
14, 236044, Note_on_c, 5, 51, 0
14, 236404, Note_on_c, 5, 48, 100
14, 236417, Note_on_c, 5, 42, 104
14, 236511, Note_on_c, 5, 48, 0
14, 236524, Note_on_c, 5, 42, 0
14, 236889, Note_on_c, 5, 42, 108
14, 236896, Note_on_c, 5, 51, 111
14, 236996, Note_on_c, 5, 42, 0
14, 237003, Note_on_c, 5, 51, 0
14, 237361, Note_on_c, 5, 42, 115
14, 237370, Note_on_c, 5, 48, 108
14, 237468, Note_on_c, 5, 42, 0
14, 237477, Note_on_c, 5, 48, 0
14, 237845, Note_on_c, 5, 42, 103
14, 237854, Note_on_c, 5, 51, 116
14, 237952, Note_on_c, 5, 42, 0
14, 237961, Note_on_c, 5, 51, 0
14, 238573, Note_on_c, 5, 73, 82
14, 238585, Note_on_c, 5, 72, 81
14, 238669, Note_on_c, 5, 73, 0
14, 238681, Note_on_c, 5, 72, 0
14, 239055, Note_on_c, 5, 71, 80
14, 239068, Note_on_c, 5, 70, 83
14, 239151, Note_on_c, 5, 71, 0
14, 239164, Note_on_c, 5, 70, 0
14, 239538, Note_on_c, 5, 69, 96
14, 239542, Note_on_c, 5, 68, 96
14, 239634, Note_on_c, 5, 69, 0
14, 239638, Note_on_c, 5, 68, 0
14, 240015, Note_on_c, 5, 68, 111
14, 240020, Note_on_c, 5, 67, 111
14, 240122, Note_on_c, 5, 68, 0
14, 240127, Note_on_c, 5, 67, 0
14, 241207, Note_on_c, 5, 72, 85
14, 241210, Note_on_c, 5, 73, 95
14, 241303, Note_on_c, 5, 72, 0
14, 241306, Note_on_c, 5, 73, 0
14, 241692, Note_on_c, 5, 71, 95
14, 241704, Note_on_c, 5, 70, 80
14, 241788, Note_on_c, 5, 71, 0
14, 241800, Note_on_c, 5, 70, 0
14, 242160, Note_on_c, 5, 68, 82
14, 242180, Note_on_c, 5, 69, 82
14, 242256, Note_on_c, 5, 68, 0
14, 242276, Note_on_c, 5, 69, 0
14, 242644, Note_on_c, 5, 68, 79
14, 242659, Note_on_c, 5, 67, 82
14, 242740, Note_on_c, 5, 68, 0
14, 242755, Note_on_c, 5, 67, 0
14, 243361, Note_on_c, 5, 67, 120
14, 243386, Note_on_c, 5, 68, 110
14, 243468, Note_on_c, 5, 67, 0
14, 243493, Note_on_c, 5, 68, 0
14, 244570, Note_on_c, 5, 68, 100
14, 244586, Note_on_c, 5, 67, 118
14, 244677, Note_on_c, 5, 68, 0
14, 244693, Note_on_c, 5, 67, 0
14, 245763, Note_on_c, 5, 67, 111
14, 245764, Note_on_c, 5, 68, 115
14, 245870, Note_on_c, 5, 67, 0
14, 245871, Note_on_c, 5, 68, 0
14, 246252, Note_on_c, 5, 68, 108
14, 246259, Note_on_c, 5, 67, 111
14, 246359, Note_on_c, 5, 68, 0
14, 246366, Note_on_c, 5, 67, 0
14, 247445, Note_on_c, 5, 68, 117
14, 247445, Note_on_c, 5, 67, 116
14, 247552, Note_on_c, 5, 68, 0
14, 247552, Note_on_c, 5, 67, 0
14, 248665, Note_on_c, 5, 65, 109
14, 248710, Note_on_c, 5, 67, 91
14, 248733, Note_on_c, 5, 65, 0
14, 248779, Note_on_c, 5, 67, 0
14, 248795, Note_on_c, 5, 69, 99
14, 248861, Note_on_c, 5, 72, 110
14, 248863, Note_on_c, 5, 69, 0
14, 248927, Note_on_c, 5, 73, 100
14, 248929, Note_on_c, 5, 72, 0
14, 248995, Note_on_c, 5, 73, 0
14, 248995, Note_on_c, 5, 75, 102
14, 249058, Note_on_c, 5, 76, 98
14, 249064, Note_on_c, 5, 75, 0
14, 249126, Note_on_c, 5, 76, 0
14, 249149, Note_on_c, 5, 77, 101
14, 249316, Note_on_c, 5, 77, 0
14, 251301, Note_on_c, 5, 65, 97
14, 251468, Note_on_c, 5, 65, 0
14, 253442, Note_on_c, 5, 65, 97
14, 253510, Note_on_c, 5, 65, 0
14, 253529, Note_on_c, 5, 67, 106
14, 253578, Note_on_c, 5, 69, 95
14, 253598, Note_on_c, 5, 67, 0
14, 253646, Note_on_c, 5, 69, 0
14, 253666, Note_on_c, 5, 72, 103
14, 253734, Note_on_c, 5, 72, 0
14, 253738, Note_on_c, 5, 73, 102
14, 253795, Note_on_c, 5, 75, 92
14, 253806, Note_on_c, 5, 73, 0
14, 253864, Note_on_c, 5, 75, 0
14, 253869, Note_on_c, 5, 76, 109
14, 253937, Note_on_c, 5, 76, 0
14, 253948, Note_on_c, 5, 77, 101
14, 254235, Note_on_c, 5, 77, 0
14, 277683, Note_on_c, 5, 64, 96
14, 277803, Note_on_c, 5, 64, 0
14, 278186, Note_on_c, 5, 67, 83
14, 278306, Note_on_c, 5, 67, 0
14, 278654, Note_on_c, 5, 68, 80
14, 278774, Note_on_c, 5, 68, 0
14, 279140, Note_on_c, 5, 65, 96
14, 279260, Note_on_c, 5, 65, 0
14, 279615, Note_on_c, 5, 67, 88
14, 279735, Note_on_c, 5, 67, 0
14, 281536, Note_on_c, 5, 64, 98
14, 281656, Note_on_c, 5, 64, 0
14, 282015, Note_on_c, 5, 67, 85
14, 282135, Note_on_c, 5, 67, 0
14, 282487, Note_on_c, 5, 68, 80
14, 282607, Note_on_c, 5, 68, 0
14, 282960, Note_on_c, 5, 65, 91
14, 283080, Note_on_c, 5, 65, 0
14, 283455, Note_on_c, 5, 67, 96
14, 283575, Note_on_c, 5, 67, 0
14, 283939, Note_on_c, 5, 67, 83
14, 284059, Note_on_c, 5, 67, 0
14, 285383, Note_on_c, 5, 64, 93
14, 285503, Note_on_c, 5, 64, 0
14, 285849, Note_on_c, 5, 67, 88
14, 285969, Note_on_c, 5, 67, 0
14, 286340, Note_on_c, 5, 68, 95
14, 286460, Note_on_c, 5, 68, 0
14, 288243, Note_on_c, 5, 52, 97
14, 288363, Note_on_c, 5, 52, 0
14, 288745, Note_on_c, 5, 74, 91
14, 288865, Note_on_c, 5, 74, 0
14, 288983, Note_on_c, 5, 64, 91
14, 289103, Note_on_c, 5, 64, 0
14, 290167, Note_on_c, 5, 67, 79
14, 290869, Note_on_c, 5, 67, 0
14, 290888, Note_on_c, 5, 73, 117
14, 290888, Note_on_c, 5, 67, 105
14, 290995, Note_on_c, 5, 73, 0
14, 290995, Note_on_c, 5, 67, 0
14, 292101, Note_on_c, 5, 67, 100
14, 292107, Note_on_c, 5, 72, 110
14, 292208, Note_on_c, 5, 67, 0
14, 292214, Note_on_c, 5, 72, 0
14, 293287, Note_on_c, 5, 61, 118
14, 293292, Note_on_c, 5, 67, 111
14, 293394, Note_on_c, 5, 61, 0
14, 293399, Note_on_c, 5, 67, 0
14, 293783, Note_on_c, 5, 61, 107
14, 293787, Note_on_c, 5, 67, 107
14, 293890, Note_on_c, 5, 61, 0
14, 293894, Note_on_c, 5, 67, 0
14, 294253, Note_on_c, 5, 67, 120
14, 294262, Note_on_c, 5, 61, 115
14, 294360, Note_on_c, 5, 67, 0
14, 294369, Note_on_c, 5, 61, 0
14, 294726, Note_on_c, 5, 61, 116
14, 294726, Note_on_c, 5, 67, 110
14, 294833, Note_on_c, 5, 61, 0
14, 294833, Note_on_c, 5, 67, 0
14, 295462, Note_on_c, 5, 68, 101
14, 295467, Note_on_c, 5, 67, 107
14, 295569, Note_on_c, 5, 68, 0
14, 295574, Note_on_c, 5, 67, 0
14, 296653, Note_on_c, 5, 68, 117
14, 296658, Note_on_c, 5, 67, 117
14, 296760, Note_on_c, 5, 68, 0
14, 296765, Note_on_c, 5, 67, 0
14, 297131, Note_on_c, 5, 67, 109
14, 297148, Note_on_c, 5, 68, 117
14, 297238, Note_on_c, 5, 67, 0
14, 297255, Note_on_c, 5, 68, 0
14, 298320, Note_on_c, 5, 67, 105
14, 298334, Note_on_c, 5, 68, 115
14, 298427, Note_on_c, 5, 67, 0
14, 298441, Note_on_c, 5, 68, 0
14, 299521, Note_on_c, 5, 72, 82
14, 299523, Note_on_c, 5, 73, 93
14, 299617, Note_on_c, 5, 72, 0
14, 299619, Note_on_c, 5, 73, 0
14, 300008, Note_on_c, 5, 70, 93
14, 300016, Note_on_c, 5, 71, 88
14, 300104, Note_on_c, 5, 70, 0
14, 300112, Note_on_c, 5, 71, 0
14, 300480, Note_on_c, 5, 69, 88
14, 300495, Note_on_c, 5, 68, 85
14, 300576, Note_on_c, 5, 69, 0
14, 300591, Note_on_c, 5, 68, 0
14, 300972, Note_on_c, 5, 67, 108
14, 300982, Note_on_c, 5, 68, 120
14, 301079, Note_on_c, 5, 67, 0
14, 301089, Note_on_c, 5, 68, 0
14, 302180, Note_on_c, 5, 72, 81
14, 302187, Note_on_c, 5, 73, 80
14, 302276, Note_on_c, 5, 72, 0
14, 302283, Note_on_c, 5, 73, 0
14, 302648, Note_on_c, 5, 70, 97
14, 302650, Note_on_c, 5, 71, 82
14, 302744, Note_on_c, 5, 70, 0
14, 302746, Note_on_c, 5, 71, 0
14, 303125, Note_on_c, 5, 68, 88
14, 303136, Note_on_c, 5, 69, 89
14, 303221, Note_on_c, 5, 68, 0
14, 303232, Note_on_c, 5, 69, 0
14, 303610, Note_on_c, 5, 67, 78
14, 303617, Note_on_c, 5, 68, 98
14, 303706, Note_on_c, 5, 67, 0
14, 303713, Note_on_c, 5, 68, 0
14, 304321, Note_on_c, 5, 68, 111
14, 304344, Note_on_c, 5, 67, 105
14, 304428, Note_on_c, 5, 68, 0
14, 304451, Note_on_c, 5, 67, 0
14, 305523, Note_on_c, 5, 67, 100
14, 305538, Note_on_c, 5, 68, 104
14, 305630, Note_on_c, 5, 67, 0
14, 305645, Note_on_c, 5, 68, 0
14, 306726, Note_on_c, 5, 67, 109
14, 306742, Note_on_c, 5, 68, 115
14, 306833, Note_on_c, 5, 67, 0
14, 306849, Note_on_c, 5, 68, 0
14, 307206, Note_on_c, 5, 68, 104
14, 307216, Note_on_c, 5, 67, 104
14, 307313, Note_on_c, 5, 68, 0
14, 307323, Note_on_c, 5, 67, 0
14, 308401, Note_on_c, 5, 67, 120
14, 308417, Note_on_c, 5, 68, 108
14, 308508, Note_on_c, 5, 67, 0
14, 308524, Note_on_c, 5, 68, 0
14, 312255, Note_on_c, 5, 42, 107
14, 312495, Note_on_c, 5, 42, 0
14, 322321, Note_on_c, 5, 43, 108
14, 322801, Note_on_c, 5, 43, 0
14, 323285, Note_on_c, 5, 39, 93
14, 323765, Note_on_c, 5, 39, 0
14, 324018, Control_c, 5, 11, 32
14, 324718, Control_c, 5, 11, 33
14, 324735, Note_on_c, 5, 39, 105
14, 324738, Control_c, 5, 11, 34
14, 324758, Control_c, 5, 11, 35
14, 324779, Control_c, 5, 11, 36
14, 324799, Control_c, 5, 11, 37
14, 324819, Control_c, 5, 11, 38
14, 324839, Control_c, 5, 11, 39
14, 324859, Control_c, 5, 11, 40
14, 324879, Control_c, 5, 11, 41
14, 324900, Control_c, 5, 11, 42
14, 324920, Control_c, 5, 11, 43
14, 324940, Control_c, 5, 11, 44
14, 324960, Control_c, 5, 11, 45
14, 324981, Control_c, 5, 11, 46
14, 325001, Control_c, 5, 11, 47
14, 325021, Control_c, 5, 11, 48
14, 325042, Control_c, 5, 11, 49
14, 325062, Control_c, 5, 11, 50
14, 325082, Control_c, 5, 11, 51
14, 325102, Control_c, 5, 11, 52
14, 325122, Control_c, 5, 11, 53
14, 325142, Control_c, 5, 11, 54
14, 325163, Control_c, 5, 11, 55
14, 325183, Control_c, 5, 11, 56
14, 325203, Control_c, 5, 11, 57
14, 325223, Control_c, 5, 11, 58
14, 325244, Control_c, 5, 11, 59
14, 325264, Control_c, 5, 11, 60
14, 325284, Control_c, 5, 11, 61
14, 325305, Control_c, 5, 11, 62
14, 325325, Control_c, 5, 11, 63
14, 325345, Control_c, 5, 11, 64
14, 325365, Control_c, 5, 11, 65
14, 325385, Control_c, 5, 11, 66
14, 325405, Control_c, 5, 11, 67
14, 325426, Control_c, 5, 11, 68
14, 325446, Control_c, 5, 11, 69
14, 325466, Control_c, 5, 11, 70
14, 325486, Control_c, 5, 11, 71
14, 325507, Control_c, 5, 11, 72
14, 325527, Control_c, 5, 11, 73
14, 325547, Control_c, 5, 11, 74
14, 325567, Control_c, 5, 11, 75
14, 325588, Control_c, 5, 11, 76
14, 325608, Control_c, 5, 11, 77
14, 325628, Control_c, 5, 11, 78
14, 325648, Control_c, 5, 11, 79
14, 325669, Control_c, 5, 11, 80
14, 325689, Control_c, 5, 11, 81
14, 325709, Control_c, 5, 11, 82
14, 325729, Control_c, 5, 11, 83
14, 325749, Control_c, 5, 11, 84
14, 325770, Control_c, 5, 11, 85
14, 325790, Control_c, 5, 11, 86
14, 325810, Control_c, 5, 11, 87
14, 325830, Control_c, 5, 11, 88
14, 325851, Control_c, 5, 11, 89
14, 325871, Control_c, 5, 11, 90
14, 325891, Control_c, 5, 11, 91
14, 325911, Control_c, 5, 11, 92
14, 325932, Control_c, 5, 11, 93
14, 325952, Control_c, 5, 11, 94
14, 325972, Control_c, 5, 11, 95
14, 325992, Control_c, 5, 11, 96
14, 326012, Control_c, 5, 11, 97
14, 326032, Control_c, 5, 11, 98
14, 326053, Control_c, 5, 11, 99
14, 326073, Control_c, 5, 11, 100
14, 326093, Control_c, 5, 11, 101
14, 326114, Control_c, 5, 11, 102
14, 326134, Control_c, 5, 11, 103
14, 326154, Control_c, 5, 11, 104
14, 326174, Control_c, 5, 11, 105
14, 326195, Control_c, 5, 11, 106
14, 326215, Control_c, 5, 11, 107
14, 326235, Control_c, 5, 11, 108
14, 326255, Control_c, 5, 11, 109
14, 326275, Control_c, 5, 11, 110
14, 326295, Control_c, 5, 11, 111
14, 326316, Control_c, 5, 11, 112
14, 326336, Control_c, 5, 11, 113
14, 326356, Control_c, 5, 11, 114
14, 326377, Control_c, 5, 11, 115
14, 326397, Control_c, 5, 11, 116
14, 326417, Control_c, 5, 11, 117
14, 326437, Control_c, 5, 11, 118
14, 326458, Control_c, 5, 11, 119
14, 326478, Control_c, 5, 11, 120
14, 326498, Control_c, 5, 11, 121
14, 326518, Control_c, 5, 11, 122
14, 326538, Control_c, 5, 11, 123
14, 326558, Control_c, 5, 11, 124
14, 326579, Control_c, 5, 11, 125
14, 326599, Control_c, 5, 11, 126
14, 326619, Control_c, 5, 11, 127
14, 326655, Note_on_c, 5, 39, 0
14, 326667, Note_on_c, 5, 42, 115
14, 326907, Note_on_c, 5, 42, 0
14, 332294, Control_c, 5, 11, 33
14, 332320, Control_c, 5, 11, 34
14, 332347, Control_c, 5, 11, 35
14, 332373, Control_c, 5, 11, 36
14, 332399, Control_c, 5, 11, 37
14, 332426, Control_c, 5, 11, 38
14, 332452, Control_c, 5, 11, 39
14, 332478, Control_c, 5, 11, 40
14, 332505, Control_c, 5, 11, 41
14, 332531, Control_c, 5, 11, 42
14, 332557, Control_c, 5, 11, 43
14, 332584, Control_c, 5, 11, 44
14, 332610, Control_c, 5, 11, 45
14, 332637, Control_c, 5, 11, 46
14, 332663, Control_c, 5, 11, 47
14, 332689, Control_c, 5, 11, 48
14, 332716, Control_c, 5, 11, 49
14, 332742, Control_c, 5, 11, 50
14, 332768, Control_c, 5, 11, 51
14, 332795, Control_c, 5, 11, 52
14, 332821, Control_c, 5, 11, 53
14, 332848, Control_c, 5, 11, 54
14, 332874, Control_c, 5, 11, 55
14, 332899, Note_on_c, 5, 39, 106
14, 332901, Control_c, 5, 11, 56
14, 332927, Control_c, 5, 11, 57
14, 332953, Control_c, 5, 11, 58
14, 332979, Control_c, 5, 11, 59
14, 333006, Control_c, 5, 11, 60
14, 333032, Control_c, 5, 11, 61
14, 333059, Control_c, 5, 11, 62
14, 333085, Control_c, 5, 11, 63
14, 333112, Control_c, 5, 11, 64
14, 333138, Control_c, 5, 11, 65
14, 333164, Control_c, 5, 11, 66
14, 333190, Control_c, 5, 11, 67
14, 333217, Control_c, 5, 11, 68
14, 333243, Control_c, 5, 11, 69
14, 333270, Control_c, 5, 11, 70
14, 333296, Control_c, 5, 11, 71
14, 333322, Control_c, 5, 11, 72
14, 333349, Control_c, 5, 11, 73
14, 333375, Control_c, 5, 11, 74
14, 333402, Control_c, 5, 11, 75
14, 333428, Control_c, 5, 11, 76
14, 333454, Control_c, 5, 11, 77
14, 333480, Control_c, 5, 11, 78
14, 333507, Control_c, 5, 11, 79
14, 333533, Control_c, 5, 11, 80
14, 333560, Control_c, 5, 11, 81
14, 333586, Control_c, 5, 11, 82
14, 333613, Control_c, 5, 11, 83
14, 333639, Control_c, 5, 11, 84
14, 333665, Control_c, 5, 11, 85
14, 333692, Control_c, 5, 11, 86
14, 333718, Control_c, 5, 11, 87
14, 333744, Control_c, 5, 11, 88
14, 333771, Control_c, 5, 11, 89
14, 333797, Control_c, 5, 11, 90
14, 333824, Control_c, 5, 11, 91
14, 333850, Control_c, 5, 11, 92
14, 333877, Control_c, 5, 11, 93
14, 333903, Control_c, 5, 11, 94
14, 333929, Control_c, 5, 11, 95
14, 333955, Control_c, 5, 11, 96
14, 333982, Control_c, 5, 11, 97
14, 334008, Control_c, 5, 11, 98
14, 334035, Control_c, 5, 11, 99
14, 334061, Control_c, 5, 11, 100
14, 334087, Control_c, 5, 11, 101
14, 334114, Control_c, 5, 11, 102
14, 334140, Control_c, 5, 11, 103
14, 334167, Control_c, 5, 11, 104
14, 334193, Control_c, 5, 11, 105
14, 334219, Control_c, 5, 11, 106
14, 334245, Control_c, 5, 11, 107
14, 334272, Control_c, 5, 11, 108
14, 334298, Control_c, 5, 11, 109
14, 334325, Control_c, 5, 11, 110
14, 334351, Control_c, 5, 11, 111
14, 334378, Control_c, 5, 11, 112
14, 334404, Control_c, 5, 11, 113
14, 334430, Control_c, 5, 11, 114
14, 334456, Control_c, 5, 11, 115
14, 334483, Control_c, 5, 11, 116
14, 334509, Control_c, 5, 11, 117
14, 334536, Control_c, 5, 11, 118
14, 334562, Control_c, 5, 11, 119
14, 334589, Control_c, 5, 11, 120
14, 334615, Control_c, 5, 11, 121
14, 334641, Control_c, 5, 11, 122
14, 334668, Control_c, 5, 11, 123
14, 334694, Control_c, 5, 11, 124
14, 334720, Control_c, 5, 11, 125
14, 334747, Control_c, 5, 11, 126
14, 334773, Control_c, 5, 11, 127
14, 334819, Note_on_c, 5, 39, 0
14, 334821, Note_on_c, 5, 42, 109
14, 335061, Note_on_c, 5, 42, 0
14, 341547, Note_on_c, 5, 40, 98
14, 342027, Note_on_c, 5, 40, 0
14, 342499, Note_on_c, 5, 39, 103
14, 342979, Note_on_c, 5, 39, 0
14, 346342, Note_on_c, 5, 43, 99
14, 346822, Note_on_c, 5, 43, 0
14, 347297, Note_on_c, 5, 39, 106
14, 347777, Note_on_c, 5, 39, 0
14, 349693, Note_on_c, 5, 43, 97
14, 350173, Note_on_c, 5, 43, 0
14, 350649, Note_on_c, 5, 39, 92
14, 351129, Note_on_c, 5, 39, 0
14, 355873, Control_c, 5, 11, 65
14, 355904, Control_c, 5, 11, 66
14, 355932, Note_on_c, 5, 39, 109
14, 355935, Control_c, 5, 11, 67
14, 355966, Control_c, 5, 11, 68
14, 355997, Control_c, 5, 11, 69
14, 356029, Control_c, 5, 11, 70
14, 356060, Control_c, 5, 11, 71
14, 356091, Control_c, 5, 11, 72
14, 356122, Control_c, 5, 11, 73
14, 356153, Control_c, 5, 11, 74
14, 356185, Control_c, 5, 11, 75
14, 356216, Control_c, 5, 11, 76
14, 356247, Control_c, 5, 11, 77
14, 356279, Control_c, 5, 11, 78
14, 356310, Control_c, 5, 11, 79
14, 356341, Control_c, 5, 11, 80
14, 356372, Control_c, 5, 11, 81
14, 356403, Control_c, 5, 11, 82
14, 356435, Control_c, 5, 11, 83
14, 356466, Control_c, 5, 11, 84
14, 356497, Control_c, 5, 11, 85
14, 356528, Control_c, 5, 11, 86
14, 356559, Control_c, 5, 11, 87
14, 356591, Control_c, 5, 11, 88
14, 356622, Control_c, 5, 11, 89
14, 356653, Control_c, 5, 11, 90
14, 356684, Control_c, 5, 11, 91
14, 356715, Control_c, 5, 11, 92
14, 356747, Control_c, 5, 11, 93
14, 356778, Control_c, 5, 11, 94
14, 356809, Control_c, 5, 11, 95
14, 356841, Control_c, 5, 11, 96
14, 356872, Control_c, 5, 11, 97
14, 356903, Control_c, 5, 11, 98
14, 356934, Control_c, 5, 11, 99
14, 356965, Control_c, 5, 11, 100
14, 356997, Control_c, 5, 11, 101
14, 357028, Control_c, 5, 11, 102
14, 357059, Control_c, 5, 11, 103
14, 357090, Control_c, 5, 11, 104
14, 357121, Control_c, 5, 11, 105
14, 357153, Control_c, 5, 11, 106
14, 357184, Control_c, 5, 11, 107
14, 357215, Control_c, 5, 11, 108
14, 357246, Control_c, 5, 11, 109
14, 357277, Control_c, 5, 11, 110
14, 357309, Control_c, 5, 11, 111
14, 357340, Control_c, 5, 11, 112
14, 357371, Control_c, 5, 11, 113
14, 357402, Control_c, 5, 11, 114
14, 357434, Control_c, 5, 11, 115
14, 357465, Control_c, 5, 11, 116
14, 357496, Control_c, 5, 11, 117
14, 357527, Control_c, 5, 11, 118
14, 357559, Control_c, 5, 11, 119
14, 357590, Control_c, 5, 11, 120
14, 357621, Control_c, 5, 11, 121
14, 357652, Control_c, 5, 11, 122
14, 357683, Control_c, 5, 11, 123
14, 357715, Control_c, 5, 11, 124
14, 357746, Control_c, 5, 11, 125
14, 357777, Control_c, 5, 11, 126
14, 357808, Control_c, 5, 11, 127
14, 357852, Note_on_c, 5, 39, 0
14, 357853, Note_on_c, 5, 42, 122
14, 358093, Note_on_c, 5, 42, 0
14, 379438, Control_c, 5, 11, 33
14, 379451, Note_on_c, 5, 39, 114
14, 379469, Control_c, 5, 11, 34
14, 379500, Control_c, 5, 11, 35
14, 379530, Control_c, 5, 11, 36
14, 379561, Control_c, 5, 11, 37
14, 379591, Control_c, 5, 11, 38
14, 379622, Control_c, 5, 11, 39
14, 379653, Control_c, 5, 11, 40
14, 379684, Control_c, 5, 11, 41
14, 379714, Control_c, 5, 11, 42
14, 379745, Control_c, 5, 11, 43
14, 379776, Control_c, 5, 11, 44
14, 379806, Control_c, 5, 11, 45
14, 379837, Control_c, 5, 11, 46
14, 379867, Control_c, 5, 11, 47
14, 379898, Control_c, 5, 11, 48
14, 379929, Control_c, 5, 11, 49
14, 379959, Control_c, 5, 11, 50
14, 379990, Control_c, 5, 11, 51
14, 380021, Control_c, 5, 11, 52
14, 380052, Control_c, 5, 11, 53
14, 380082, Control_c, 5, 11, 54
14, 380113, Control_c, 5, 11, 55
14, 380144, Control_c, 5, 11, 56
14, 380174, Control_c, 5, 11, 57
14, 380205, Control_c, 5, 11, 58
14, 380235, Control_c, 5, 11, 59
14, 380266, Control_c, 5, 11, 60
14, 380297, Control_c, 5, 11, 61
14, 380327, Control_c, 5, 11, 62
14, 380358, Control_c, 5, 11, 63
14, 380389, Control_c, 5, 11, 64
14, 380419, Control_c, 5, 11, 65
14, 380450, Control_c, 5, 11, 66
14, 380481, Control_c, 5, 11, 67
14, 380512, Control_c, 5, 11, 68
14, 380542, Control_c, 5, 11, 69
14, 380572, Control_c, 5, 11, 70
14, 380603, Control_c, 5, 11, 71
14, 380634, Control_c, 5, 11, 72
14, 380665, Control_c, 5, 11, 73
14, 380695, Control_c, 5, 11, 74
14, 380726, Control_c, 5, 11, 75
14, 380757, Control_c, 5, 11, 76
14, 380787, Control_c, 5, 11, 77
14, 380818, Control_c, 5, 11, 78
14, 380849, Control_c, 5, 11, 79
14, 380880, Control_c, 5, 11, 80
14, 380910, Control_c, 5, 11, 81
14, 380940, Control_c, 5, 11, 82
14, 380971, Control_c, 5, 11, 83
14, 381002, Control_c, 5, 11, 84
14, 381033, Control_c, 5, 11, 85
14, 381063, Control_c, 5, 11, 86
14, 381094, Control_c, 5, 11, 87
14, 381125, Control_c, 5, 11, 88
14, 381155, Control_c, 5, 11, 89
14, 381186, Control_c, 5, 11, 90
14, 381217, Control_c, 5, 11, 91
14, 381247, Control_c, 5, 11, 92
14, 381278, Control_c, 5, 11, 93
14, 381308, Control_c, 5, 11, 94
14, 381339, Control_c, 5, 11, 95
14, 381370, Control_c, 5, 11, 96
14, 381400, Control_c, 5, 11, 97
14, 381431, Control_c, 5, 11, 98
14, 381462, Control_c, 5, 11, 99
14, 381493, Control_c, 5, 11, 100
14, 381523, Control_c, 5, 11, 101
14, 381554, Control_c, 5, 11, 102
14, 381585, Control_c, 5, 11, 103
14, 381615, Control_c, 5, 11, 104
14, 381646, Control_c, 5, 11, 105
14, 381676, Control_c, 5, 11, 106
14, 381707, Control_c, 5, 11, 107
14, 381738, Control_c, 5, 11, 108
14, 381768, Control_c, 5, 11, 109
14, 381799, Control_c, 5, 11, 110
14, 381830, Control_c, 5, 11, 111
14, 381861, Control_c, 5, 11, 112
14, 381891, Control_c, 5, 11, 113
14, 381922, Control_c, 5, 11, 114
14, 381952, Control_c, 5, 11, 115
14, 381983, Control_c, 5, 11, 116
14, 382014, Control_c, 5, 11, 117
14, 382044, Control_c, 5, 11, 118
14, 382075, Control_c, 5, 11, 119
14, 382106, Control_c, 5, 11, 120
14, 382136, Control_c, 5, 11, 121
14, 382167, Control_c, 5, 11, 122
14, 382198, Control_c, 5, 11, 123
14, 382228, Control_c, 5, 11, 124
14, 382259, Control_c, 5, 11, 125
14, 382290, Control_c, 5, 11, 126
14, 382320, Control_c, 5, 11, 127
14, 382331, Note_on_c, 5, 39, 0
14, 382340, Note_on_c, 5, 42, 114
14, 382580, Note_on_c, 5, 42, 0
14, 391445, Note_on_c, 5, 63, 59
14, 391685, Note_on_c, 5, 63, 0
14, 391931, Note_on_c, 5, 63, 51
14, 392171, Note_on_c, 5, 63, 0
14, 392405, Note_on_c, 5, 63, 54
14, 392645, Note_on_c, 5, 63, 0
14, 392880, Note_on_c, 5, 63, 56
14, 393120, Note_on_c, 5, 63, 0
14, 393379, Note_on_c, 5, 63, 56
14, 393619, Note_on_c, 5, 63, 0
14, 393855, Note_on_c, 5, 63, 55
14, 394095, Note_on_c, 5, 63, 0
14, 394328, Note_on_c, 5, 63, 39
14, 394568, Note_on_c, 5, 63, 0
14, 394815, Note_on_c, 5, 63, 53
14, 395055, Note_on_c, 5, 63, 0
14, 395287, Note_on_c, 5, 63, 41
14, 395527, Note_on_c, 5, 63, 0
14, 395776, Note_on_c, 5, 63, 55
14, 396016, Note_on_c, 5, 63, 0
14, 396249, Note_on_c, 5, 63, 55
14, 396489, Note_on_c, 5, 63, 0
14, 396727, Note_on_c, 5, 63, 43
14, 396967, Note_on_c, 5, 63, 0
14, 397212, Note_on_c, 5, 63, 43
14, 397452, Note_on_c, 5, 63, 0
14, 397686, Note_on_c, 5, 63, 41
14, 397926, Note_on_c, 5, 63, 0
14, 398179, Note_on_c, 5, 63, 43
14, 398419, Note_on_c, 5, 63, 0
14, 398659, Note_on_c, 5, 63, 49
14, 398899, Note_on_c, 5, 63, 0
14, 399121, Note_on_c, 5, 63, 50
14, 399361, Note_on_c, 5, 63, 0
14, 399614, Note_on_c, 5, 63, 52
14, 399854, Note_on_c, 5, 63, 0
14, 400091, Note_on_c, 5, 63, 45
14, 400331, Note_on_c, 5, 63, 0
14, 400562, Note_on_c, 5, 63, 52
14, 400802, Note_on_c, 5, 63, 0
14, 401065, Note_on_c, 5, 63, 53
14, 401305, Note_on_c, 5, 63, 0
14, 401528, Note_on_c, 5, 63, 43
14, 401768, Note_on_c, 5, 63, 0
14, 402012, Note_on_c, 5, 63, 39
14, 402252, Note_on_c, 5, 63, 0
14, 402507, Note_on_c, 5, 63, 41
14, 402747, Note_on_c, 5, 63, 0
14, 402984, Note_on_c, 5, 63, 39
14, 403224, Note_on_c, 5, 63, 0
14, 403457, Note_on_c, 5, 63, 48
14, 403697, Note_on_c, 5, 63, 0
14, 403926, Note_on_c, 5, 63, 42
14, 404166, Note_on_c, 5, 63, 0
14, 404420, Note_on_c, 5, 63, 46
14, 404660, Note_on_c, 5, 63, 0
14, 404907, Note_on_c, 5, 63, 43
14, 405147, Note_on_c, 5, 63, 0
14, 405367, Note_on_c, 5, 63, 55
14, 405607, Note_on_c, 5, 63, 0
14, 405850, Note_on_c, 5, 63, 50
14, 406090, Note_on_c, 5, 63, 0
14, 406336, Note_on_c, 5, 63, 48
14, 406576, Note_on_c, 5, 63, 0
14, 406812, Note_on_c, 5, 63, 56
14, 407052, Note_on_c, 5, 63, 0
14, 407287, Note_on_c, 5, 63, 40
14, 407527, Note_on_c, 5, 63, 0
14, 407776, Note_on_c, 5, 63, 25
14, 408016, Note_on_c, 5, 63, 0
14, 408263, Note_on_c, 5, 63, 30
14, 408503, Note_on_c, 5, 63, 0
14, 443763, Note_on_c, 5, 66, 55
14, 444003, Note_on_c, 5, 66, 0
14, 445215, Note_on_c, 5, 66, 57
14, 445455, Note_on_c, 5, 66, 0
14, 447140, Note_on_c, 5, 66, 59
14, 447380, Note_on_c, 5, 66, 0
14, 450507, Note_on_c, 5, 52, 57
14, 450987, Note_on_c, 5, 52, 0
14, 450988, Note_on_c, 5, 53, 39
14, 451108, Note_on_c, 5, 53, 0
14, 453361, Note_on_c, 5, 52, 39
14, 453841, Note_on_c, 5, 52, 0
14, 453843, Note_on_c, 5, 53, 48
14, 453963, Note_on_c, 5, 53, 0
14, 491900, Note_on_c, 5, 61, 91
14, 492260, Note_on_c, 5, 61, 0
14, 492984, Note_on_c, 5, 61, 79
14, 493091, Note_on_c, 5, 61, 0
14, 493333, Note_on_c, 5, 61, 97
14, 493693, Note_on_c, 5, 61, 0
14, 495728, Note_on_c, 5, 61, 84
14, 495781, Note_on_c, 5, 61, 0
14, 495987, Note_on_c, 5, 61, 88
14, 496347, Note_on_c, 5, 61, 0
14, 497302, Note_on_c, 5, 61, 83
14, 497388, Note_on_c, 5, 61, 0
14, 497528, Note_on_c, 5, 61, 94
14, 497671, Note_on_c, 5, 61, 0
14, 497771, Note_on_c, 5, 61, 88
14, 497818, Note_on_c, 5, 61, 0
14, 498247, Note_on_c, 5, 61, 90
14, 498300, Note_on_c, 5, 61, 0
14, 498486, Note_on_c, 5, 61, 94
14, 498846, Note_on_c, 5, 61, 0
14, 503299, Note_on_c, 5, 58, 100
14, 503300, Note_on_c, 5, 66, 111
14, 503419, Note_on_c, 5, 58, 0
14, 503420, Note_on_c, 5, 66, 0
14, 504120, Note_on_c, 5, 66, 110
14, 504130, Note_on_c, 5, 58, 110
14, 504240, Note_on_c, 5, 66, 0
14, 504240, Note_on_c, 5, 53, 50
14, 504250, Note_on_c, 5, 58, 0
14, 504263, Note_on_c, 5, 53, 0
14, 504323, Note_on_c, 5, 53, 35
14, 504346, Note_on_c, 5, 53, 0
14, 504497, Note_on_c, 5, 53, 47
14, 504520, Note_on_c, 5, 53, 0
14, 504551, Note_on_c, 5, 53, 33
14, 504574, Note_on_c, 5, 53, 0
14, 504966, Note_on_c, 5, 53, 47
14, 504989, Note_on_c, 5, 53, 0
14, 505035, Note_on_c, 5, 53, 30
14, 505058, Note_on_c, 5, 53, 0
14, 505453, Note_on_c, 5, 53, 42
14, 505476, Note_on_c, 5, 53, 0
14, 505510, Note_on_c, 5, 53, 34
14, 505533, Note_on_c, 5, 53, 0
14, 505701, Note_on_c, 5, 53, 47
14, 505724, Note_on_c, 5, 53, 0
14, 505768, Note_on_c, 5, 53, 49
14, 505791, Note_on_c, 5, 53, 0
14, 505932, Note_on_c, 5, 53, 43
14, 505955, Note_on_c, 5, 53, 0
14, 505998, Note_on_c, 5, 53, 49
14, 506021, Note_on_c, 5, 53, 0
14, 506425, Note_on_c, 5, 53, 34
14, 506448, Note_on_c, 5, 53, 0
14, 506484, Note_on_c, 5, 53, 35
14, 506507, Note_on_c, 5, 53, 0
14, 506900, Note_on_c, 5, 53, 32
14, 506923, Note_on_c, 5, 53, 0
14, 506957, Note_on_c, 5, 53, 48
14, 506980, Note_on_c, 5, 53, 0
14, 507364, Note_on_c, 5, 53, 45
14, 507387, Note_on_c, 5, 53, 0
14, 507429, Note_on_c, 5, 53, 33
14, 507452, Note_on_c, 5, 53, 0
14, 507619, Note_on_c, 5, 53, 36
14, 507642, Note_on_c, 5, 53, 0
14, 507678, Note_on_c, 5, 53, 49
14, 507701, Note_on_c, 5, 53, 0
14, 508099, Note_on_c, 5, 53, 30
14, 508122, Note_on_c, 5, 53, 0
14, 508148, Note_on_c, 5, 53, 36
14, 508171, Note_on_c, 5, 53, 0
14, 508344, Note_on_c, 5, 53, 44
14, 508366, Note_on_c, 5, 53, 0
14, 508385, Note_on_c, 5, 53, 31
14, 508408, Note_on_c, 5, 53, 0
14, 508575, Note_on_c, 5, 53, 34
14, 508598, Note_on_c, 5, 53, 0
14, 508642, Note_on_c, 5, 53, 42
14, 508665, Note_on_c, 5, 53, 0
14, 509066, Note_on_c, 5, 53, 35
14, 509089, Note_on_c, 5, 53, 0
14, 509122, Note_on_c, 5, 53, 46
14, 509145, Note_on_c, 5, 53, 0
14, 509521, Note_on_c, 5, 53, 48
14, 509544, Note_on_c, 5, 53, 0
14, 509594, Note_on_c, 5, 53, 43
14, 509617, Note_on_c, 5, 53, 0
14, 509760, Note_on_c, 5, 53, 37
14, 509783, Note_on_c, 5, 53, 0
14, 509828, Note_on_c, 5, 53, 46
14, 509851, Note_on_c, 5, 53, 0
14, 510246, Note_on_c, 5, 53, 50
14, 510269, Note_on_c, 5, 53, 0
14, 510304, Note_on_c, 5, 53, 41
14, 510327, Note_on_c, 5, 53, 0
14, 510742, Note_on_c, 5, 53, 45
14, 510765, Note_on_c, 5, 53, 0
14, 510801, Note_on_c, 5, 53, 45
14, 510824, Note_on_c, 5, 53, 0
14, 511226, Note_on_c, 5, 53, 42
14, 511243, Note_on_c, 5, 53, 0
14, 511263, Note_on_c, 5, 53, 35
14, 511286, Note_on_c, 5, 53, 0
14, 511693, Note_on_c, 5, 53, 42
14, 511698, Note_on_c, 5, 58, 38
14, 511716, Note_on_c, 5, 53, 0
14, 511759, Note_on_c, 5, 53, 46
14, 511782, Note_on_c, 5, 53, 0
14, 511925, Note_on_c, 5, 53, 38
14, 511948, Note_on_c, 5, 53, 0
14, 511995, Note_on_c, 5, 53, 48
14, 512018, Note_on_c, 5, 53, 0
14, 512410, Note_on_c, 5, 53, 50
14, 512433, Note_on_c, 5, 53, 0
14, 512473, Note_on_c, 5, 53, 30
14, 512496, Note_on_c, 5, 53, 0
14, 512894, Note_on_c, 5, 53, 31
14, 512917, Note_on_c, 5, 53, 0
14, 512961, Note_on_c, 5, 53, 38
14, 512984, Note_on_c, 5, 53, 0
14, 513258, Note_on_c, 5, 58, 0
14, 513380, Note_on_c, 5, 53, 32
14, 513403, Note_on_c, 5, 53, 0
14, 513437, Note_on_c, 5, 53, 41
14, 513460, Note_on_c, 5, 53, 0
14, 513860, Note_on_c, 5, 53, 34
14, 513883, Note_on_c, 5, 53, 0
14, 513922, Note_on_c, 5, 53, 35
14, 513945, Note_on_c, 5, 53, 0
14, 514103, Note_on_c, 5, 53, 48
14, 514126, Note_on_c, 5, 53, 0
14, 514155, Note_on_c, 5, 53, 35
14, 514178, Note_on_c, 5, 53, 0
14, 514340, Note_on_c, 5, 53, 46
14, 514363, Note_on_c, 5, 53, 0
14, 514407, Note_on_c, 5, 53, 35
14, 514430, Note_on_c, 5, 53, 0
14, 514808, Note_on_c, 5, 53, 43
14, 514831, Note_on_c, 5, 53, 0
14, 514870, Note_on_c, 5, 53, 38
14, 514893, Note_on_c, 5, 53, 0
14, 515287, Note_on_c, 5, 53, 45
14, 515310, Note_on_c, 5, 53, 0
14, 515366, Note_on_c, 5, 53, 48
14, 515389, Note_on_c, 5, 53, 0
14, 515531, Note_on_c, 5, 53, 40
14, 515554, Note_on_c, 5, 53, 0
14, 515587, Note_on_c, 5, 53, 47
14, 515610, Note_on_c, 5, 53, 0
14, 516007, Note_on_c, 5, 53, 38
14, 516030, Note_on_c, 5, 53, 0
14, 516063, Note_on_c, 5, 53, 49
14, 516086, Note_on_c, 5, 53, 0
14, 516254, Note_on_c, 5, 53, 30
14, 516277, Note_on_c, 5, 53, 0
14, 516324, Note_on_c, 5, 53, 32
14, 516347, Note_on_c, 5, 53, 0
14, 516743, Note_on_c, 5, 53, 46
14, 516766, Note_on_c, 5, 53, 0
14, 516797, Note_on_c, 5, 53, 39
14, 516820, Note_on_c, 5, 53, 0
14, 517228, Note_on_c, 5, 53, 31
14, 517241, Note_on_c, 5, 53, 0
14, 517260, Note_on_c, 5, 53, 30
14, 517283, Note_on_c, 5, 53, 0
14, 517456, Note_on_c, 5, 53, 45
14, 517479, Note_on_c, 5, 53, 0
14, 517520, Note_on_c, 5, 53, 32
14, 517543, Note_on_c, 5, 53, 0
14, 517683, Note_on_c, 5, 53, 38
14, 517706, Note_on_c, 5, 53, 0
14, 517752, Note_on_c, 5, 53, 44
14, 517775, Note_on_c, 5, 53, 0
14, 518170, Note_on_c, 5, 53, 48
14, 518193, Note_on_c, 5, 53, 0
14, 518223, Note_on_c, 5, 53, 43
14, 518246, Note_on_c, 5, 53, 0
14, 518652, Note_on_c, 5, 53, 44
14, 518675, Note_on_c, 5, 53, 0
14, 518717, Note_on_c, 5, 53, 30
14, 518740, Note_on_c, 5, 53, 0
14, 518885, Note_on_c, 5, 53, 47
14, 518908, Note_on_c, 5, 53, 0
14, 518957, Note_on_c, 5, 53, 34
14, 518980, Note_on_c, 5, 53, 0
14, 519363, Note_on_c, 5, 53, 43
14, 519386, Note_on_c, 5, 53, 0
14, 519425, Note_on_c, 5, 53, 48
14, 519448, Note_on_c, 5, 53, 0
14, 519848, Note_on_c, 5, 53, 45
14, 519871, Note_on_c, 5, 53, 0
14, 519913, Note_on_c, 5, 53, 47
14, 519936, Note_on_c, 5, 53, 0
14, 529928, Note_on_c, 5, 55, 39
14, 529976, Note_on_c, 5, 55, 0
14, 530016, Note_on_c, 5, 54, 31
14, 530063, Note_on_c, 5, 54, 0
14, 530097, Note_on_c, 5, 53, 32
14, 530145, Note_on_c, 5, 53, 0
14, 530185, Note_on_c, 5, 53, 40
14, 530257, Note_on_c, 5, 53, 0
14, 531360, Note_on_c, 5, 53, 94
14, 531380, Note_on_c, 5, 66, 106
14, 531480, Note_on_c, 5, 53, 0
14, 531500, Note_on_c, 5, 66, 0
14, 531618, Note_on_c, 5, 53, 102
14, 531627, Note_on_c, 5, 66, 92
14, 531738, Note_on_c, 5, 53, 0
14, 531747, Note_on_c, 5, 66, 0
14, 531861, Note_on_c, 5, 53, 100
14, 531865, Note_on_c, 5, 66, 96
14, 531981, Note_on_c, 5, 53, 0
14, 531985, Note_on_c, 5, 66, 0
14, 532330, Note_on_c, 5, 53, 106
14, 532336, Note_on_c, 5, 66, 91
14, 532450, Note_on_c, 5, 53, 0
14, 532456, Note_on_c, 5, 66, 0
14, 532561, Note_on_c, 5, 66, 100
14, 532570, Note_on_c, 5, 53, 97
14, 532681, Note_on_c, 5, 66, 0
14, 532690, Note_on_c, 5, 53, 0
14, 532813, Note_on_c, 5, 66, 99
14, 532817, Note_on_c, 5, 53, 109
14, 532933, Note_on_c, 5, 66, 0
14, 532937, Note_on_c, 5, 53, 0
14, 533045, Note_on_c, 5, 53, 99
14, 533060, Note_on_c, 5, 66, 110
14, 533165, Note_on_c, 5, 53, 0
14, 533180, Note_on_c, 5, 66, 0
14, 533285, Note_on_c, 5, 66, 98
14, 533303, Note_on_c, 5, 53, 97
14, 533405, Note_on_c, 5, 66, 0
14, 533423, Note_on_c, 5, 53, 0
14, 533763, Note_on_c, 5, 53, 107
14, 533766, Note_on_c, 5, 66, 97
14, 533883, Note_on_c, 5, 53, 0
14, 533886, Note_on_c, 5, 66, 0
14, 534242, Note_on_c, 5, 66, 105
14, 534259, Note_on_c, 5, 53, 98
14, 534362, Note_on_c, 5, 66, 0
14, 534379, Note_on_c, 5, 53, 0
14, 534488, Note_on_c, 5, 56, 102
14, 534499, Note_on_c, 5, 64, 102
14, 534608, Note_on_c, 5, 56, 0
14, 534619, Note_on_c, 5, 64, 0
14, 534724, Note_on_c, 5, 53, 102
14, 534724, Note_on_c, 5, 66, 92
14, 534844, Note_on_c, 5, 53, 0
14, 534844, Note_on_c, 5, 66, 0
14, 535202, Note_on_c, 5, 53, 98
14, 535210, Note_on_c, 5, 66, 100
14, 535322, Note_on_c, 5, 53, 0
14, 535330, Note_on_c, 5, 66, 0
14, 535684, Note_on_c, 5, 66, 97
14, 535702, Note_on_c, 5, 53, 111
14, 535804, Note_on_c, 5, 66, 0
14, 535822, Note_on_c, 5, 53, 0
14, 535922, Note_on_c, 5, 57, 109
14, 535927, Note_on_c, 5, 50, 106
14, 536042, Note_on_c, 5, 57, 0
14, 536047, Note_on_c, 5, 50, 0
14, 536172, Note_on_c, 5, 50, 118
14, 536183, Note_on_c, 5, 59, 114
14, 536292, Note_on_c, 5, 50, 0
14, 536303, Note_on_c, 5, 59, 0
14, 536400, Note_on_c, 5, 52, 120
14, 536424, Note_on_c, 5, 61, 122
14, 536520, Note_on_c, 5, 52, 0
14, 536544, Note_on_c, 5, 61, 0
14, 536640, Note_on_c, 5, 62, 109
14, 536644, Note_on_c, 5, 54, 121
14, 536760, Note_on_c, 5, 62, 0
14, 536764, Note_on_c, 5, 54, 0
14, 536882, Note_on_c, 5, 62, 116
14, 536903, Note_on_c, 5, 54, 110
14, 537002, Note_on_c, 5, 62, 0
14, 537023, Note_on_c, 5, 54, 0
14, 537120, Note_on_c, 5, 55, 111
14, 537130, Note_on_c, 5, 64, 107
14, 537240, Note_on_c, 5, 55, 0
14, 537250, Note_on_c, 5, 64, 0
14, 537366, Note_on_c, 5, 56, 118
14, 537374, Note_on_c, 5, 67, 120
14, 537426, Note_on_c, 5, 56, 0
14, 537434, Note_on_c, 5, 67, 0
14, 537842, Note_on_c, 5, 51, 33
14, 537872, Note_on_c, 5, 51, 0
14, 537919, Note_on_c, 5, 51, 41
14, 537949, Note_on_c, 5, 51, 0
14, 538083, Note_on_c, 5, 51, 37
14, 538113, Note_on_c, 5, 51, 0
14, 538153, Note_on_c, 5, 51, 50
14, 538183, Note_on_c, 5, 51, 0
14, 538582, Note_on_c, 5, 51, 38
14, 538608, Note_on_c, 5, 51, 0
14, 538627, Note_on_c, 5, 51, 38
14, 538657, Note_on_c, 5, 51, 0
14, 539056, Note_on_c, 5, 51, 46
14, 539086, Note_on_c, 5, 51, 0
14, 539128, Note_on_c, 5, 51, 45
14, 539158, Note_on_c, 5, 51, 0
14, 539287, Note_on_c, 5, 51, 48
14, 539317, Note_on_c, 5, 51, 0
14, 539347, Note_on_c, 5, 51, 43
14, 539377, Note_on_c, 5, 51, 0
14, 539535, Note_on_c, 5, 51, 33
14, 539565, Note_on_c, 5, 51, 0
14, 539599, Note_on_c, 5, 51, 36
14, 539629, Note_on_c, 5, 51, 0
14, 540010, Note_on_c, 5, 51, 30
14, 540040, Note_on_c, 5, 51, 0
14, 540060, Note_on_c, 5, 51, 38
14, 540090, Note_on_c, 5, 51, 0
14, 540255, Note_on_c, 5, 51, 43
14, 540285, Note_on_c, 5, 51, 0
14, 540326, Note_on_c, 5, 51, 36
14, 540356, Note_on_c, 5, 51, 0
14, 540738, Note_on_c, 5, 51, 32
14, 540768, Note_on_c, 5, 51, 0
14, 540787, Note_on_c, 5, 51, 41
14, 540817, Note_on_c, 5, 51, 0
14, 541219, Note_on_c, 5, 51, 48
14, 541241, Note_on_c, 5, 51, 0
14, 541261, Note_on_c, 5, 51, 40
14, 541291, Note_on_c, 5, 51, 0
14, 541685, Note_on_c, 5, 51, 47
14, 541715, Note_on_c, 5, 51, 0
14, 541747, Note_on_c, 5, 51, 39
14, 541777, Note_on_c, 5, 51, 0
14, 542172, Note_on_c, 5, 56, 34
14, 543612, Note_on_c, 5, 56, 0
14, 543619, Note_on_c, 5, 58, 101
14, 543859, Note_on_c, 5, 58, 0
14, 546016, Note_on_c, 5, 54, 73
14, 546136, Note_on_c, 5, 54, 0
14, 546265, Note_on_c, 5, 54, 78
14, 546385, Note_on_c, 5, 54, 0
14, 546723, Note_on_c, 5, 54, 75
14, 546843, Note_on_c, 5, 54, 0
14, 547203, Note_on_c, 5, 54, 85
14, 547323, Note_on_c, 5, 54, 0
14, 547441, Note_on_c, 5, 54, 81
14, 547561, Note_on_c, 5, 54, 0
14, 547708, Note_on_c, 5, 54, 76
14, 547828, Note_on_c, 5, 54, 0
14, 548161, Note_on_c, 5, 54, 83
14, 548281, Note_on_c, 5, 54, 0
14, 548655, Note_on_c, 5, 54, 69
14, 548775, Note_on_c, 5, 54, 0
14, 549135, Note_on_c, 5, 54, 69
14, 549255, Note_on_c, 5, 54, 0
14, 549386, Note_on_c, 5, 54, 66
14, 549506, Note_on_c, 5, 54, 0
14, 549867, Note_on_c, 5, 54, 81
14, 549987, Note_on_c, 5, 54, 0
14, 550334, Note_on_c, 5, 54, 74
14, 550454, Note_on_c, 5, 54, 0
14, 550568, Note_on_c, 5, 54, 74
14, 550688, Note_on_c, 5, 54, 0
14, 550816, Note_on_c, 5, 55, 117
14, 550936, Note_on_c, 5, 55, 0
14, 552133, Note_on_c, 5, 60, 84
14, 552493, Note_on_c, 5, 60, 0
14, 553220, Note_on_c, 5, 60, 93
14, 553327, Note_on_c, 5, 60, 0
14, 553566, Note_on_c, 5, 60, 78
14, 553926, Note_on_c, 5, 60, 0
14, 555989, Note_on_c, 5, 60, 98
14, 556042, Note_on_c, 5, 60, 0
14, 556226, Note_on_c, 5, 60, 93
14, 556586, Note_on_c, 5, 60, 0
14, 557530, Note_on_c, 5, 60, 88
14, 557616, Note_on_c, 5, 60, 0
14, 557787, Note_on_c, 5, 60, 87
14, 557930, Note_on_c, 5, 60, 0
14, 558016, Note_on_c, 5, 60, 86
14, 558063, Note_on_c, 5, 60, 0
14, 558499, Note_on_c, 5, 60, 89
14, 558552, Note_on_c, 5, 60, 0
14, 558743, Note_on_c, 5, 60, 86
14, 559103, Note_on_c, 5, 60, 0
14, 563538, Note_on_c, 5, 57, 109
14, 563547, Note_on_c, 5, 65, 104
14, 563591, Note_on_c, 5, 57, 0
14, 563600, Note_on_c, 5, 65, 0
14, 564371, Note_on_c, 5, 57, 93
14, 564379, Note_on_c, 5, 65, 94
14, 564424, Note_on_c, 5, 57, 0
14, 564432, Note_on_c, 5, 65, 0
14, 580082, Note_on_c, 5, 67, 104
14, 580094, Note_on_c, 5, 60, 103
14, 581534, Note_on_c, 5, 60, 0
14, 582482, Note_on_c, 5, 67, 0
14, 584881, Note_on_c, 5, 60, 110
14, 584884, Note_on_c, 5, 67, 104
14, 586321, Note_on_c, 5, 60, 0
14, 587284, Note_on_c, 5, 67, 0
14, 587524, Note_on_c, 5, 60, 105
14, 587811, Note_on_c, 5, 60, 0
14, 588009, Note_on_c, 5, 62, 104
14, 588129, Note_on_c, 5, 62, 0
14, 588503, Note_on_c, 5, 58, 102
14, 588623, Note_on_c, 5, 58, 0
14, 588966, Note_on_c, 5, 60, 99
14, 589026, Note_on_c, 5, 60, 0
14, 589048, Note_on_c, 5, 63, 105
14, 589104, Note_on_c, 5, 65, 91
14, 589108, Note_on_c, 5, 63, 0
14, 589154, Note_on_c, 5, 67, 97
14, 589164, Note_on_c, 5, 65, 0
14, 589211, Note_on_c, 5, 69, 94
14, 589214, Note_on_c, 5, 67, 0
14, 589271, Note_on_c, 5, 69, 0
14, 589289, Note_on_c, 5, 70, 97
14, 589330, Note_on_c, 5, 72, 95
14, 589349, Note_on_c, 5, 70, 0
14, 589390, Note_on_c, 5, 72, 0
14, 589396, Note_on_c, 5, 74, 100
14, 589456, Note_on_c, 5, 74, 0
14, 589458, Note_on_c, 5, 75, 111
14, 589578, Note_on_c, 5, 75, 0
14, 590408, Note_on_c, 5, 58, 108
14, 590427, Note_on_c, 5, 70, 92
14, 590528, Note_on_c, 5, 58, 0
14, 590547, Note_on_c, 5, 70, 0
14, 590888, Note_on_c, 5, 56, 110
14, 591008, Note_on_c, 5, 56, 0
14, 591130, Note_on_c, 5, 55, 98
14, 591250, Note_on_c, 5, 55, 0
14, 591371, Note_on_c, 5, 53, 91
14, 591491, Note_on_c, 5, 53, 0
14, 591611, Note_on_c, 5, 56, 105
14, 591731, Note_on_c, 5, 56, 0
14, 591851, Note_on_c, 5, 58, 91
14, 591971, Note_on_c, 5, 58, 0
14, 592327, Note_on_c, 5, 58, 92
14, 592447, Note_on_c, 5, 58, 0
14, 592802, Note_on_c, 5, 60, 97
14, 592816, Note_on_c, 5, 56, 92
14, 592862, Note_on_c, 5, 60, 0
14, 592871, Note_on_c, 5, 63, 106
14, 592924, Note_on_c, 5, 65, 96
14, 592931, Note_on_c, 5, 63, 0
14, 592936, Note_on_c, 5, 56, 0
14, 592984, Note_on_c, 5, 65, 0
14, 592999, Note_on_c, 5, 67, 107
14, 593047, Note_on_c, 5, 55, 92
14, 593049, Note_on_c, 5, 69, 91
14, 593059, Note_on_c, 5, 67, 0
14, 593109, Note_on_c, 5, 69, 0
14, 593127, Note_on_c, 5, 70, 109
14, 593167, Note_on_c, 5, 55, 0
14, 593169, Note_on_c, 5, 72, 96
14, 593187, Note_on_c, 5, 70, 0
14, 593229, Note_on_c, 5, 72, 0
14, 593245, Note_on_c, 5, 74, 97
14, 593288, Note_on_c, 5, 75, 99
14, 593305, Note_on_c, 5, 74, 0
14, 593305, Note_on_c, 5, 53, 92
14, 593408, Note_on_c, 5, 75, 0
14, 593425, Note_on_c, 5, 53, 0
14, 593542, Note_on_c, 5, 56, 101
14, 593662, Note_on_c, 5, 56, 0
14, 593761, Note_on_c, 5, 58, 96
14, 593881, Note_on_c, 5, 58, 0
14, 594240, Note_on_c, 5, 70, 96
14, 594261, Note_on_c, 5, 58, 101
14, 594360, Note_on_c, 5, 70, 0
14, 594381, Note_on_c, 5, 58, 0
14, 595202, Note_on_c, 5, 58, 101
14, 595322, Note_on_c, 5, 58, 0
14, 595702, Note_on_c, 5, 56, 95
14, 595822, Note_on_c, 5, 56, 0
14, 595923, Note_on_c, 5, 55, 97
14, 596043, Note_on_c, 5, 55, 0
14, 596185, Note_on_c, 5, 53, 100
14, 596305, Note_on_c, 5, 53, 0
14, 596400, Note_on_c, 5, 56, 109
14, 596520, Note_on_c, 5, 56, 0
14, 596654, Note_on_c, 5, 60, 105
14, 596668, Note_on_c, 5, 58, 93
14, 596714, Note_on_c, 5, 60, 0
14, 596723, Note_on_c, 5, 63, 100
14, 596778, Note_on_c, 5, 65, 97
14, 596783, Note_on_c, 5, 63, 0
14, 596788, Note_on_c, 5, 58, 0
14, 596828, Note_on_c, 5, 67, 95
14, 596838, Note_on_c, 5, 65, 0
14, 596888, Note_on_c, 5, 67, 0
14, 596892, Note_on_c, 5, 69, 110
14, 596952, Note_on_c, 5, 69, 0
14, 596953, Note_on_c, 5, 70, 100
14, 597013, Note_on_c, 5, 70, 0
14, 597028, Note_on_c, 5, 72, 102
14, 597083, Note_on_c, 5, 74, 93
14, 597088, Note_on_c, 5, 72, 0
14, 597143, Note_on_c, 5, 74, 0
14, 597144, Note_on_c, 5, 58, 102
14, 597149, Note_on_c, 5, 75, 104
14, 597264, Note_on_c, 5, 58, 0
14, 597269, Note_on_c, 5, 75, 0
14, 597617, Note_on_c, 5, 56, 105
14, 597737, Note_on_c, 5, 56, 0
14, 597852, Note_on_c, 5, 55, 109
14, 597972, Note_on_c, 5, 55, 0
14, 598092, Note_on_c, 5, 70, 91
14, 598095, Note_on_c, 5, 53, 110
14, 598212, Note_on_c, 5, 70, 0
14, 598215, Note_on_c, 5, 53, 0
14, 598334, Note_on_c, 5, 56, 95
14, 598454, Note_on_c, 5, 56, 0
14, 598583, Note_on_c, 5, 58, 102
14, 598703, Note_on_c, 5, 58, 0
14, 599057, Note_on_c, 5, 58, 96
14, 599177, Note_on_c, 5, 58, 0
14, 600010, Note_on_c, 5, 51, 101
14, 600021, Note_on_c, 5, 58, 100
14, 600250, Note_on_c, 5, 51, 0
14, 600261, Note_on_c, 5, 58, 0
14, 600489, Note_on_c, 5, 52, 104
14, 600503, Note_on_c, 5, 61, 97
14, 600729, Note_on_c, 5, 52, 0
14, 600743, Note_on_c, 5, 61, 0
14, 600978, Note_on_c, 5, 62, 92
14, 600988, Note_on_c, 5, 53, 93
14, 601218, Note_on_c, 5, 62, 0
14, 601228, Note_on_c, 5, 53, 0
14, 601450, Note_on_c, 5, 54, 105
14, 601455, Note_on_c, 5, 63, 117
14, 601690, Note_on_c, 5, 54, 0
14, 601695, Note_on_c, 5, 63, 0
14, 602780, Note_on_c, 5, 62, 120
14, 603127, Note_on_c, 5, 63, 116
14, 603140, Note_on_c, 5, 62, 0
14, 603180, Note_on_c, 5, 63, 0
14, 603252, Note_on_c, 5, 62, 115
14, 603305, Note_on_c, 5, 62, 0
14, 603379, Note_on_c, 5, 63, 100
14, 603432, Note_on_c, 5, 63, 0
14, 605171, Note_on_c, 5, 70, 98
14, 605411, Note_on_c, 5, 70, 0
14, 605661, Note_on_c, 5, 69, 94
14, 605901, Note_on_c, 5, 69, 0
14, 606134, Note_on_c, 5, 68, 89
14, 606374, Note_on_c, 5, 68, 0
14, 606608, Note_on_c, 5, 67, 94
14, 606848, Note_on_c, 5, 67, 0
14, 607102, Note_on_c, 5, 66, 82
14, 607342, Note_on_c, 5, 66, 0
14, 607583, Note_on_c, 5, 67, 87
14, 607823, Note_on_c, 5, 67, 0
14, 608058, Note_on_c, 5, 66, 90
14, 608298, Note_on_c, 5, 66, 0
14, 608526, Note_on_c, 5, 65, 91
14, 608766, Note_on_c, 5, 65, 0
14, 609005, Note_on_c, 5, 64, 81
14, 609245, Note_on_c, 5, 64, 0
14, 609501, Note_on_c, 5, 63, 91
14, 609741, Note_on_c, 5, 63, 0
14, 609985, Note_on_c, 5, 62, 84
14, 610225, Note_on_c, 5, 62, 0
14, 610468, Note_on_c, 5, 61, 98
14, 610708, Note_on_c, 5, 61, 0
14, 610929, Note_on_c, 5, 62, 80
14, 611169, Note_on_c, 5, 62, 0
14, 611402, Note_on_c, 5, 63, 78
14, 611642, Note_on_c, 5, 63, 0
14, 611894, Note_on_c, 5, 64, 85
14, 612134, Note_on_c, 5, 64, 0
14, 612373, Note_on_c, 5, 65, 84
14, 612613, Note_on_c, 5, 65, 0
14, 612855, Note_on_c, 5, 66, 80
14, 613095, Note_on_c, 5, 66, 0
14, 613330, Note_on_c, 5, 58, 86
14, 613570, Note_on_c, 5, 58, 0
14, 613818, Note_on_c, 5, 60, 93
14, 614058, Note_on_c, 5, 60, 0
14, 614282, Note_on_c, 5, 62, 102
14, 614522, Note_on_c, 5, 62, 0
14, 614765, Note_on_c, 5, 64, 94
14, 615005, Note_on_c, 5, 64, 0
14, 615251, Note_on_c, 5, 66, 106
14, 615491, Note_on_c, 5, 66, 0
14, 615741, Note_on_c, 5, 68, 108
14, 615981, Note_on_c, 5, 68, 0
14, 616214, Note_on_c, 5, 67, 117
14, 616218, Note_on_c, 5, 70, 106
14, 616454, Note_on_c, 5, 67, 0
14, 616458, Note_on_c, 5, 70, 0
14, 616704, Note_on_c, 5, 61, 114
14, 616944, Note_on_c, 5, 61, 0
14, 617176, Note_on_c, 5, 57, 108
14, 617416, Note_on_c, 5, 57, 0
14, 617648, Note_on_c, 5, 55, 116
14, 617888, Note_on_c, 5, 55, 0
14, 618127, Note_on_c, 5, 56, 118
14, 618367, Note_on_c, 5, 56, 0
14, 618601, Note_on_c, 5, 58, 105
14, 618841, Note_on_c, 5, 58, 0
14, 619100, Note_on_c, 5, 57, 116
14, 619340, Note_on_c, 5, 57, 0
14, 619579, Note_on_c, 5, 58, 120
14, 619819, Note_on_c, 5, 58, 0
14, 620046, Note_on_c, 5, 57, 118
14, 620286, Note_on_c, 5, 57, 0
14, 620542, Note_on_c, 5, 58, 114
14, 620782, Note_on_c, 5, 58, 0
14, 621016, Note_on_c, 5, 57, 110
14, 621256, Note_on_c, 5, 57, 0
14, 621502, Note_on_c, 5, 56, 119
14, 621742, Note_on_c, 5, 56, 0
14, 621972, Note_on_c, 5, 57, 109
14, 622212, Note_on_c, 5, 57, 0
14, 622441, Note_on_c, 5, 58, 111
14, 622681, Note_on_c, 5, 58, 0
14, 622946, Note_on_c, 5, 57, 121
14, 623186, Note_on_c, 5, 57, 0
14, 623417, Note_on_c, 5, 58, 113
14, 623657, Note_on_c, 5, 58, 0
14, 623891, Note_on_c, 5, 57, 116
14, 624131, Note_on_c, 5, 57, 0
14, 624373, Note_on_c, 5, 58, 123
14, 624613, Note_on_c, 5, 58, 0
14, 624861, Note_on_c, 5, 57, 122
14, 625101, Note_on_c, 5, 57, 0
14, 625327, Note_on_c, 5, 56, 123
14, 625567, Note_on_c, 5, 56, 0
14, 625803, Note_on_c, 5, 57, 105
14, 626043, Note_on_c, 5, 57, 0
14, 626303, Note_on_c, 5, 56, 104
14, 626543, Note_on_c, 5, 56, 0
14, 626770, Note_on_c, 5, 55, 111
14, 627010, Note_on_c, 5, 55, 0
14, 627258, Note_on_c, 5, 54, 123
14, 627498, Note_on_c, 5, 54, 0
14, 627722, Note_on_c, 5, 52, 116
14, 627746, Note_on_c, 5, 61, 120
14, 627842, Note_on_c, 5, 52, 0
14, 627866, Note_on_c, 5, 61, 0
14, 633120, Note_on_c, 5, 56, 117
14, 633124, Note_on_c, 5, 64, 106
14, 633180, Note_on_c, 5, 56, 0
14, 633184, Note_on_c, 5, 64, 0
14, 633361, Note_on_c, 5, 64, 103
14, 633381, Note_on_c, 5, 56, 100
14, 633421, Note_on_c, 5, 64, 0
14, 633441, Note_on_c, 5, 56, 0
14, 634081, Note_on_c, 5, 60, 91
14, 634098, Note_on_c, 5, 55, 90
14, 634141, Note_on_c, 5, 60, 0
14, 634158, Note_on_c, 5, 55, 0
14, 634202, Note_on_c, 5, 52, 93
14, 634220, Note_on_c, 5, 58, 87
14, 634262, Note_on_c, 5, 52, 0
14, 634280, Note_on_c, 5, 58, 0
14, 634325, Note_on_c, 5, 52, 79
14, 634333, Note_on_c, 5, 58, 96
14, 634385, Note_on_c, 5, 52, 0
14, 634393, Note_on_c, 5, 58, 0
14, 634454, Note_on_c, 5, 49, 93
14, 634459, Note_on_c, 5, 55, 86
14, 634514, Note_on_c, 5, 49, 0
14, 634519, Note_on_c, 5, 55, 0
14, 634569, Note_on_c, 5, 49, 97
14, 634588, Note_on_c, 5, 54, 97
14, 634629, Note_on_c, 5, 49, 0
14, 634648, Note_on_c, 5, 54, 0
14, 634809, Note_on_c, 5, 64, 81
14, 634815, Note_on_c, 5, 56, 82
14, 634869, Note_on_c, 5, 64, 0
14, 634875, Note_on_c, 5, 56, 0
14, 635046, Note_on_c, 5, 56, 97
14, 635048, Note_on_c, 5, 64, 88
14, 635106, Note_on_c, 5, 56, 0
14, 635108, Note_on_c, 5, 64, 0
14, 635282, Note_on_c, 5, 55, 97
14, 635284, Note_on_c, 5, 60, 89
14, 635342, Note_on_c, 5, 55, 0
14, 635344, Note_on_c, 5, 60, 0
14, 635418, Note_on_c, 5, 58, 89
14, 635427, Note_on_c, 5, 52, 79
14, 635478, Note_on_c, 5, 58, 0
14, 635487, Note_on_c, 5, 52, 0
14, 635528, Note_on_c, 5, 52, 96
14, 635542, Note_on_c, 5, 58, 94
14, 635588, Note_on_c, 5, 52, 0
14, 635602, Note_on_c, 5, 58, 0
14, 635643, Note_on_c, 5, 55, 85
14, 635655, Note_on_c, 5, 49, 87
14, 635703, Note_on_c, 5, 55, 0
14, 635715, Note_on_c, 5, 49, 0
14, 635782, Note_on_c, 5, 49, 97
14, 635785, Note_on_c, 5, 54, 85
14, 635842, Note_on_c, 5, 49, 0
14, 635845, Note_on_c, 5, 54, 0
14, 640333, Note_on_c, 5, 54, 79
14, 640380, Note_on_c, 5, 54, 0
14, 640572, Note_on_c, 5, 67, 78
14, 640619, Note_on_c, 5, 67, 0
14, 640694, Note_on_c, 5, 63, 84
14, 640741, Note_on_c, 5, 63, 0
14, 640942, Note_on_c, 5, 64, 81
14, 640989, Note_on_c, 5, 64, 0
14, 641663, Note_on_c, 5, 54, 81
14, 641710, Note_on_c, 5, 54, 0
14, 641905, Note_on_c, 5, 67, 73
14, 641952, Note_on_c, 5, 67, 0
14, 642002, Note_on_c, 5, 63, 71
14, 642049, Note_on_c, 5, 63, 0
14, 642251, Note_on_c, 5, 64, 78
14, 642298, Note_on_c, 5, 64, 0
14, 642493, Note_on_c, 5, 67, 74
14, 642540, Note_on_c, 5, 67, 0
14, 642607, Note_on_c, 5, 63, 79
14, 642654, Note_on_c, 5, 63, 0
14, 642849, Note_on_c, 5, 64, 81
14, 642896, Note_on_c, 5, 64, 0
14, 643103, Note_on_c, 5, 66, 73
14, 643150, Note_on_c, 5, 66, 0
14, 643220, Note_on_c, 5, 67, 80
14, 643267, Note_on_c, 5, 67, 0
14, 643343, Note_on_c, 5, 63, 76
14, 643390, Note_on_c, 5, 63, 0
14, 643588, Note_on_c, 5, 64, 83
14, 643635, Note_on_c, 5, 64, 0
14, 643802, Note_on_c, 5, 67, 79
14, 643849, Note_on_c, 5, 67, 0
14, 643923, Note_on_c, 5, 63, 77
14, 643970, Note_on_c, 5, 63, 0
14, 644165, Note_on_c, 5, 64, 89
14, 644212, Note_on_c, 5, 64, 0
14, 644424, Note_on_c, 5, 70, 78
14, 644471, Note_on_c, 5, 70, 0
14, 644529, Note_on_c, 5, 66, 71
14, 644576, Note_on_c, 5, 66, 0
14, 644640, Note_on_c, 5, 67, 86
14, 644687, Note_on_c, 5, 67, 0
14, 644909, Note_on_c, 5, 63, 89
14, 644956, Note_on_c, 5, 63, 0
14, 645129, Note_on_c, 5, 64, 86
14, 645176, Note_on_c, 5, 64, 0
14, 645727, Note_on_c, 5, 54, 84
14, 645847, Note_on_c, 5, 54, 0
14, 645962, Note_on_c, 5, 66, 67
14, 646009, Note_on_c, 5, 66, 0
14, 646085, Note_on_c, 5, 67, 79
14, 646132, Note_on_c, 5, 67, 0
14, 646201, Note_on_c, 5, 63, 69
14, 646248, Note_on_c, 5, 63, 0
14, 646466, Note_on_c, 5, 64, 73
14, 646513, Note_on_c, 5, 64, 0
14, 647047, Note_on_c, 5, 54, 84
14, 647167, Note_on_c, 5, 54, 0
14, 647764, Note_on_c, 5, 54, 68
14, 647811, Note_on_c, 5, 54, 0
14, 648384, Note_on_c, 5, 61, 97
14, 648504, Note_on_c, 5, 61, 0
14, 648604, Note_on_c, 5, 54, 79
14, 648651, Note_on_c, 5, 54, 0
14, 649560, Note_on_c, 5, 54, 68
14, 649607, Note_on_c, 5, 54, 0
14, 650175, Note_on_c, 5, 54, 71
14, 650295, Note_on_c, 5, 54, 0
14, 651121, Note_on_c, 5, 54, 67
14, 651168, Note_on_c, 5, 54, 0
14, 652814, Note_on_c, 5, 54, 82
14, 652861, Note_on_c, 5, 54, 0
14, 654491, Note_on_c, 5, 54, 73
14, 654538, Note_on_c, 5, 54, 0
14, 658089, Note_on_c, 5, 50, 116
14, 658142, Note_on_c, 5, 50, 0
14, 658142, End_track
15, 0, Start_track
15, 0, Title_t, "Corni III"
15, 0, MIDI_port, 0
15, 0, Program_c, 5, 60
15, 15, Note_on_c, 5, 45, 45
15, 2893, Note_on_c, 5, 45, 0
15, 2905, Note_on_c, 5, 47, 43
15, 3145, Note_on_c, 5, 47, 0
15, 3362, Note_on_c, 5, 45, 38
15, 8882, Note_on_c, 5, 45, 0
15, 10579, Note_on_c, 5, 45, 77
15, 10585, Note_on_c, 5, 38, 69
15, 13699, Note_on_c, 5, 45, 0
15, 13705, Note_on_c, 5, 38, 0
15, 15374, Note_on_c, 5, 38, 79
15, 15388, Note_on_c, 5, 45, 81
15, 17054, Note_on_c, 5, 38, 0
15, 17068, Note_on_c, 5, 45, 0
15, 19693, Note_on_c, 5, 38, 69
15, 19695, Note_on_c, 5, 45, 70
15, 21373, Note_on_c, 5, 38, 0
15, 21375, Note_on_c, 5, 45, 0
15, 83533, Note_on_c, 5, 67, 34
15, 84253, Note_on_c, 5, 67, 0
15, 84259, Note_on_c, 5, 65, 46
15, 84485, Note_on_c, 5, 67, 34
15, 84499, Note_on_c, 5, 65, 0
15, 84965, Note_on_c, 5, 67, 0
15, 84986, Note_on_c, 5, 62, 39
15, 85210, Note_on_c, 5, 60, 31
15, 85226, Note_on_c, 5, 62, 0
15, 85441, Note_on_c, 5, 65, 47
15, 85450, Note_on_c, 5, 60, 0
15, 85921, Note_on_c, 5, 65, 0
15, 85934, Note_on_c, 5, 62, 30
15, 86366, Note_on_c, 5, 62, 0
15, 86407, Note_on_c, 5, 67, 33
15, 87127, Note_on_c, 5, 67, 0
15, 87135, Note_on_c, 5, 65, 38
15, 87375, Note_on_c, 5, 65, 0
15, 87375, Note_on_c, 5, 67, 42
15, 87843, Note_on_c, 5, 62, 46
15, 87855, Note_on_c, 5, 67, 0
15, 88083, Note_on_c, 5, 62, 0
15, 88108, Note_on_c, 5, 60, 35
15, 88321, Note_on_c, 5, 65, 36
15, 88348, Note_on_c, 5, 60, 0
15, 88561, Note_on_c, 5, 65, 0
15, 166582, Note_on_c, 5, 57, 44
15, 167048, Note_on_c, 5, 60, 45
15, 167062, Note_on_c, 5, 57, 0
15, 168008, Note_on_c, 5, 60, 0
15, 168011, Note_on_c, 5, 57, 56
15, 168491, Note_on_c, 5, 57, 0
15, 168506, Note_on_c, 5, 58, 46
15, 168980, Note_on_c, 5, 55, 57
15, 168986, Note_on_c, 5, 58, 0
15, 169364, Note_on_c, 5, 55, 0
15, 169463, Note_on_c, 5, 57, 57
15, 169943, Note_on_c, 5, 57, 0
15, 169944, Note_on_c, 5, 60, 52
15, 170904, Note_on_c, 5, 60, 0
15, 170908, Note_on_c, 5, 57, 46
15, 171384, Note_on_c, 5, 58, 41
15, 171388, Note_on_c, 5, 57, 0
15, 172152, Note_on_c, 5, 58, 0
15, 189608, Note_on_c, 5, 62, 117
15, 191528, Note_on_c, 5, 62, 0
15, 200169, Note_on_c, 5, 68, 119
15, 202309, Note_on_c, 5, 68, 0
15, 202328, Note_on_c, 5, 68, 117
15, 203278, Note_on_c, 5, 68, 0
15, 203297, Note_on_c, 5, 68, 109
15, 204235, Note_on_c, 5, 68, 0
15, 204255, Note_on_c, 5, 68, 112
15, 204722, Note_on_c, 5, 68, 0
15, 204741, Note_on_c, 5, 68, 116
15, 205185, Note_on_c, 5, 68, 0
15, 205204, Note_on_c, 5, 68, 112
15, 205684, Note_on_c, 5, 68, 0
15, 205708, Note_on_c, 5, 68, 118
15, 206149, Note_on_c, 5, 68, 0
15, 206169, Note_on_c, 5, 68, 107
15, 206638, Note_on_c, 5, 68, 0
15, 206657, Note_on_c, 5, 68, 103
15, 207116, Note_on_c, 5, 68, 0
15, 207135, Note_on_c, 5, 68, 112
15, 207584, Note_on_c, 5, 68, 0
15, 207603, Note_on_c, 5, 68, 114
15, 208078, Note_on_c, 5, 68, 0
15, 208097, Note_on_c, 5, 68, 102
15, 208327, Note_on_c, 5, 67, 115
15, 208337, Note_on_c, 5, 68, 0
15, 208486, Note_on_c, 5, 67, 0
15, 208825, Note_on_c, 5, 68, 111
15, 208826, Note_on_c, 5, 69, 113
15, 208984, Note_on_c, 5, 68, 0
15, 208985, Note_on_c, 5, 69, 0
15, 209769, Note_on_c, 5, 57, 107
15, 209829, Note_on_c, 5, 57, 0
15, 209841, Note_on_c, 5, 60, 107
15, 209894, Note_on_c, 5, 63, 118
15, 209901, Note_on_c, 5, 60, 0
15, 209951, Note_on_c, 5, 65, 110
15, 209954, Note_on_c, 5, 63, 0
15, 210003, Note_on_c, 5, 68, 120
15, 210011, Note_on_c, 5, 65, 0
15, 210063, Note_on_c, 5, 68, 0
15, 210070, Note_on_c, 5, 69, 108
15, 210130, Note_on_c, 5, 69, 0
15, 210141, Note_on_c, 5, 72, 104
15, 210182, Note_on_c, 5, 73, 103
15, 210201, Note_on_c, 5, 72, 0
15, 210242, Note_on_c, 5, 73, 0
15, 210266, Note_on_c, 5, 75, 108
15, 210386, Note_on_c, 5, 75, 0
15, 288008, Note_on_c, 5, 39, 109
15, 288128, Note_on_c, 5, 39, 0
15, 288244, Note_on_c, 5, 41, 107
15, 288364, Note_on_c, 5, 41, 0
15, 288497, Note_on_c, 5, 52, 120
15, 288617, Note_on_c, 5, 52, 0
15, 288747, Note_on_c, 5, 63, 103
15, 288867, Note_on_c, 5, 63, 0
15, 288971, Note_on_c, 5, 52, 119
15, 289091, Note_on_c, 5, 52, 0
15, 289204, Note_on_c, 5, 41, 103
15, 289444, Note_on_c, 5, 41, 0
15, 399132, Note_on_c, 5, 46, 104
15, 399372, Note_on_c, 5, 46, 0
15, 399626, Note_on_c, 5, 46, 118
15, 399866, Note_on_c, 5, 46, 0
15, 400103, Note_on_c, 5, 46, 116
15, 400343, Note_on_c, 5, 46, 0
15, 400576, Note_on_c, 5, 46, 104
15, 400816, Note_on_c, 5, 46, 0
15, 401051, Note_on_c, 5, 46, 106
15, 401291, Note_on_c, 5, 46, 0
15, 401540, Note_on_c, 5, 46, 112
15, 401780, Note_on_c, 5, 46, 0
15, 402003, Note_on_c, 5, 46, 109
15, 402243, Note_on_c, 5, 46, 0
15, 402502, Note_on_c, 5, 46, 108
15, 402742, Note_on_c, 5, 46, 0
15, 402981, Note_on_c, 5, 46, 109
15, 403221, Note_on_c, 5, 46, 0
15, 403456, Note_on_c, 5, 46, 100
15, 403696, Note_on_c, 5, 46, 0
15, 403924, Note_on_c, 5, 46, 104
15, 404164, Note_on_c, 5, 46, 0
15, 404408, Note_on_c, 5, 46, 113
15, 404648, Note_on_c, 5, 46, 0
15, 404897, Note_on_c, 5, 46, 104
15, 405137, Note_on_c, 5, 46, 0
15, 405387, Note_on_c, 5, 46, 103
15, 405627, Note_on_c, 5, 46, 0
15, 405845, Note_on_c, 5, 46, 99
15, 406085, Note_on_c, 5, 46, 0
15, 406322, Note_on_c, 5, 46, 90
15, 406562, Note_on_c, 5, 46, 0
15, 406820, Note_on_c, 5, 46, 84
15, 407060, Note_on_c, 5, 46, 0
15, 407286, Note_on_c, 5, 46, 68
15, 407526, Note_on_c, 5, 46, 0
15, 419292, Note_on_c, 5, 50, 65
15, 419412, Note_on_c, 5, 50, 0
15, 419531, Note_on_c, 5, 50, 83
15, 419651, Note_on_c, 5, 50, 0
15, 420265, Note_on_c, 5, 50, 80
15, 420385, Note_on_c, 5, 50, 0
15, 420486, Note_on_c, 5, 50, 77
15, 420606, Note_on_c, 5, 50, 0
15, 420729, Note_on_c, 5, 50, 76
15, 420849, Note_on_c, 5, 50, 0
15, 420967, Note_on_c, 5, 50, 67
15, 421087, Note_on_c, 5, 50, 0
15, 421218, Note_on_c, 5, 50, 72
15, 421338, Note_on_c, 5, 50, 0
15, 421452, Note_on_c, 5, 50, 82
15, 421572, Note_on_c, 5, 50, 0
15, 421706, Note_on_c, 5, 50, 67
15, 421826, Note_on_c, 5, 50, 0
15, 421947, Note_on_c, 5, 50, 67
15, 422067, Note_on_c, 5, 50, 0
15, 422176, Note_on_c, 5, 50, 80
15, 422296, Note_on_c, 5, 50, 0
15, 422416, Note_on_c, 5, 50, 78
15, 422536, Note_on_c, 5, 50, 0
15, 422667, Note_on_c, 5, 50, 75
15, 422787, Note_on_c, 5, 50, 0
15, 422896, Note_on_c, 5, 50, 69
15, 423016, Note_on_c, 5, 50, 0
15, 423137, Note_on_c, 5, 50, 72
15, 423257, Note_on_c, 5, 50, 0
15, 423381, Note_on_c, 5, 50, 68
15, 423501, Note_on_c, 5, 50, 0
15, 423622, Note_on_c, 5, 50, 67
15, 423742, Note_on_c, 5, 50, 0
15, 423847, Note_on_c, 5, 50, 85
15, 423967, Note_on_c, 5, 50, 0
15, 424083, Note_on_c, 5, 50, 76
15, 424203, Note_on_c, 5, 50, 0
15, 424329, Note_on_c, 5, 50, 68
15, 424449, Note_on_c, 5, 50, 0
15, 424576, Note_on_c, 5, 50, 80
15, 424696, Note_on_c, 5, 50, 0
15, 424807, Note_on_c, 5, 50, 85
15, 424927, Note_on_c, 5, 50, 0
15, 425067, Note_on_c, 5, 50, 71
15, 425187, Note_on_c, 5, 50, 0
15, 425289, Note_on_c, 5, 50, 80
15, 425409, Note_on_c, 5, 50, 0
15, 425531, Note_on_c, 5, 50, 73
15, 425651, Note_on_c, 5, 50, 0
15, 425774, Note_on_c, 5, 50, 69
15, 425894, Note_on_c, 5, 50, 0
15, 426020, Note_on_c, 5, 50, 72
15, 426140, Note_on_c, 5, 50, 0
15, 426251, Note_on_c, 5, 50, 66
15, 426371, Note_on_c, 5, 50, 0
15, 426489, Note_on_c, 5, 50, 81
15, 426609, Note_on_c, 5, 50, 0
15, 426725, Note_on_c, 5, 50, 76
15, 426845, Note_on_c, 5, 50, 0
15, 426975, Note_on_c, 5, 50, 74
15, 427095, Note_on_c, 5, 50, 0
15, 427215, Note_on_c, 5, 50, 69
15, 427335, Note_on_c, 5, 50, 0
15, 427440, Note_on_c, 5, 50, 84
15, 427560, Note_on_c, 5, 50, 0
15, 427700, Note_on_c, 5, 50, 74
15, 427820, Note_on_c, 5, 50, 0
15, 427921, Note_on_c, 5, 50, 82
15, 428041, Note_on_c, 5, 50, 0
15, 428169, Note_on_c, 5, 50, 83
15, 428289, Note_on_c, 5, 50, 0
15, 428423, Note_on_c, 5, 50, 70
15, 428543, Note_on_c, 5, 50, 0
15, 428655, Note_on_c, 5, 50, 68
15, 428775, Note_on_c, 5, 50, 0
15, 428900, Note_on_c, 5, 50, 72
15, 429020, Note_on_c, 5, 50, 0
15, 429143, Note_on_c, 5, 50, 80
15, 429263, Note_on_c, 5, 50, 0
15, 429389, Note_on_c, 5, 50, 66
15, 429509, Note_on_c, 5, 50, 0
15, 429612, Note_on_c, 5, 50, 70
15, 429732, Note_on_c, 5, 50, 0
15, 429858, Note_on_c, 5, 50, 65
15, 429978, Note_on_c, 5, 50, 0
15, 430108, Note_on_c, 5, 50, 68
15, 430228, Note_on_c, 5, 50, 0
15, 430320, Note_on_c, 5, 50, 66
15, 430440, Note_on_c, 5, 50, 0
15, 430568, Note_on_c, 5, 50, 69
15, 430688, Note_on_c, 5, 50, 0
15, 430819, Note_on_c, 5, 50, 72
15, 430939, Note_on_c, 5, 50, 0
15, 431041, Note_on_c, 5, 50, 83
15, 431161, Note_on_c, 5, 50, 0
15, 431305, Note_on_c, 5, 50, 77
15, 431425, Note_on_c, 5, 50, 0
15, 431522, Note_on_c, 5, 50, 79
15, 431642, Note_on_c, 5, 50, 0
15, 431772, Note_on_c, 5, 50, 84
15, 431892, Note_on_c, 5, 50, 0
15, 432006, Note_on_c, 5, 50, 84
15, 432126, Note_on_c, 5, 50, 0
15, 432267, Note_on_c, 5, 50, 84
15, 432387, Note_on_c, 5, 50, 0
15, 432502, Note_on_c, 5, 50, 78
15, 432622, Note_on_c, 5, 50, 0
15, 432728, Note_on_c, 5, 50, 70
15, 432848, Note_on_c, 5, 50, 0
15, 432983, Note_on_c, 5, 50, 80
15, 433103, Note_on_c, 5, 50, 0
15, 433211, Note_on_c, 5, 50, 79
15, 433331, Note_on_c, 5, 50, 0
15, 433465, Note_on_c, 5, 50, 66
15, 433585, Note_on_c, 5, 50, 0
15, 433707, Note_on_c, 5, 50, 79
15, 433827, Note_on_c, 5, 50, 0
15, 433936, Note_on_c, 5, 50, 84
15, 434056, Note_on_c, 5, 50, 0
15, 434174, Note_on_c, 5, 50, 70
15, 434294, Note_on_c, 5, 50, 0
15, 434402, Note_on_c, 5, 50, 82
15, 434522, Note_on_c, 5, 50, 0
15, 434664, Note_on_c, 5, 50, 66
15, 434784, Note_on_c, 5, 50, 0
15, 434881, Note_on_c, 5, 50, 81
15, 435001, Note_on_c, 5, 50, 0
15, 435141, Note_on_c, 5, 50, 68
15, 435261, Note_on_c, 5, 50, 0
15, 435385, Note_on_c, 5, 50, 68
15, 435505, Note_on_c, 5, 50, 0
15, 435602, Note_on_c, 5, 50, 84
15, 435722, Note_on_c, 5, 50, 0
15, 435854, Note_on_c, 5, 50, 67
15, 435974, Note_on_c, 5, 50, 0
15, 436092, Note_on_c, 5, 50, 75
15, 436212, Note_on_c, 5, 50, 0
15, 436328, Note_on_c, 5, 50, 70
15, 436448, Note_on_c, 5, 50, 0
15, 436569, Note_on_c, 5, 50, 85
15, 436689, Note_on_c, 5, 50, 0
15, 436828, Note_on_c, 5, 50, 76
15, 436948, Note_on_c, 5, 50, 0
15, 437065, Note_on_c, 5, 50, 68
15, 437185, Note_on_c, 5, 50, 0
15, 437287, Note_on_c, 5, 50, 79
15, 437407, Note_on_c, 5, 50, 0
15, 437536, Note_on_c, 5, 50, 70
15, 437656, Note_on_c, 5, 50, 0
15, 437784, Note_on_c, 5, 50, 80
15, 437904, Note_on_c, 5, 50, 0
15, 438005, Note_on_c, 5, 50, 84
15, 438022, Note_on_c, 5, 43, 96
15, 438185, Note_on_c, 5, 50, 0
15, 438202, Note_on_c, 5, 43, 0
15, 438248, Note_on_c, 5, 43, 55
15, 438260, Note_on_c, 5, 50, 41
15, 438428, Note_on_c, 5, 43, 0
15, 438440, Note_on_c, 5, 50, 0
15, 438491, Note_on_c, 5, 50, 93
15, 438504, Note_on_c, 5, 43, 90
15, 438671, Note_on_c, 5, 50, 0
15, 438684, Note_on_c, 5, 43, 0
15, 438737, Note_on_c, 5, 43, 42
15, 438743, Note_on_c, 5, 50, 42
15, 438917, Note_on_c, 5, 43, 0
15, 438923, Note_on_c, 5, 50, 0
15, 438974, Note_on_c, 5, 43, 91
15, 438988, Note_on_c, 5, 50, 95
15, 439154, Note_on_c, 5, 43, 0
15, 439168, Note_on_c, 5, 50, 0
15, 439214, Note_on_c, 5, 43, 48
15, 439220, Note_on_c, 5, 50, 41
15, 439394, Note_on_c, 5, 43, 0
15, 439400, Note_on_c, 5, 50, 0
15, 439454, Note_on_c, 5, 50, 88
15, 439463, Note_on_c, 5, 43, 78
15, 439634, Note_on_c, 5, 50, 0
15, 439643, Note_on_c, 5, 43, 0
15, 439682, Note_on_c, 5, 43, 48
15, 439685, Note_on_c, 5, 50, 49
15, 439862, Note_on_c, 5, 43, 0
15, 439865, Note_on_c, 5, 50, 0
15, 439940, Note_on_c, 5, 43, 88
15, 439945, Note_on_c, 5, 50, 94
15, 440120, Note_on_c, 5, 43, 0
15, 440125, Note_on_c, 5, 50, 0
15, 440162, Note_on_c, 5, 43, 40
15, 440163, Note_on_c, 5, 50, 52
15, 440342, Note_on_c, 5, 43, 0
15, 440343, Note_on_c, 5, 50, 0
15, 440405, Note_on_c, 5, 50, 83
15, 440409, Note_on_c, 5, 43, 89
15, 440585, Note_on_c, 5, 50, 0
15, 440589, Note_on_c, 5, 43, 0
15, 440654, Note_on_c, 5, 43, 57
15, 440666, Note_on_c, 5, 50, 57
15, 440834, Note_on_c, 5, 43, 0
15, 440846, Note_on_c, 5, 50, 0
15, 440883, Note_on_c, 5, 50, 81
15, 440896, Note_on_c, 5, 43, 94
15, 441063, Note_on_c, 5, 50, 0
15, 441076, Note_on_c, 5, 43, 0
15, 441125, Note_on_c, 5, 43, 46
15, 441126, Note_on_c, 5, 50, 42
15, 441305, Note_on_c, 5, 43, 0
15, 441306, Note_on_c, 5, 50, 0
15, 441370, Note_on_c, 5, 50, 82
15, 441384, Note_on_c, 5, 43, 82
15, 441550, Note_on_c, 5, 50, 0
15, 441564, Note_on_c, 5, 43, 0
15, 441612, Note_on_c, 5, 43, 48
15, 441612, Note_on_c, 5, 50, 48
15, 441792, Note_on_c, 5, 43, 0
15, 441792, Note_on_c, 5, 50, 0
15, 441849, Note_on_c, 5, 43, 88
15, 441851, Note_on_c, 5, 50, 88
15, 442029, Note_on_c, 5, 43, 0
15, 442031, Note_on_c, 5, 50, 0
15, 442091, Note_on_c, 5, 50, 52
15, 442105, Note_on_c, 5, 43, 59
15, 442271, Note_on_c, 5, 50, 0
15, 442285, Note_on_c, 5, 43, 0
15, 442323, Note_on_c, 5, 43, 95
15, 442340, Note_on_c, 5, 50, 92
15, 442503, Note_on_c, 5, 43, 0
15, 442520, Note_on_c, 5, 50, 0
15, 442566, Note_on_c, 5, 43, 44
15, 442567, Note_on_c, 5, 50, 57
15, 442746, Note_on_c, 5, 43, 0
15, 442747, Note_on_c, 5, 50, 0
15, 442807, Note_on_c, 5, 43, 85
15, 442811, Note_on_c, 5, 50, 78
15, 442987, Note_on_c, 5, 43, 0
15, 442991, Note_on_c, 5, 50, 0
15, 443051, Note_on_c, 5, 50, 51
15, 443056, Note_on_c, 5, 43, 59
15, 443231, Note_on_c, 5, 50, 0
15, 443236, Note_on_c, 5, 43, 0
15, 443280, Note_on_c, 5, 43, 84
15, 443292, Note_on_c, 5, 50, 95
15, 443460, Note_on_c, 5, 43, 0
15, 443472, Note_on_c, 5, 50, 0
15, 443529, Note_on_c, 5, 43, 55
15, 443537, Note_on_c, 5, 50, 40
15, 443709, Note_on_c, 5, 43, 0
15, 443717, Note_on_c, 5, 50, 0
15, 448583, Note_on_c, 5, 47, 39
15, 449063, Note_on_c, 5, 47, 0
15, 449068, Note_on_c, 5, 48, 40
15, 449188, Note_on_c, 5, 48, 0
15, 450495, Note_on_c, 5, 47, 44
15, 450964, Note_on_c, 5, 48, 46
15, 450975, Note_on_c, 5, 47, 0
15, 451204, Note_on_c, 5, 48, 0
15, 451216, Note_on_c, 5, 51, 56
15, 451456, Note_on_c, 5, 51, 0
15, 451462, Note_on_c, 5, 50, 49
15, 451681, Note_on_c, 5, 49, 49
15, 451702, Note_on_c, 5, 50, 0
15, 451801, Note_on_c, 5, 49, 0
15, 452421, Note_on_c, 5, 47, 58
15, 452882, Note_on_c, 5, 48, 44
15, 452901, Note_on_c, 5, 47, 0
15, 453002, Note_on_c, 5, 48, 0
15, 453864, Note_on_c, 5, 48, 43
15, 454096, Note_on_c, 5, 51, 51
15, 454104, Note_on_c, 5, 48, 0
15, 454336, Note_on_c, 5, 51, 0
15, 454340, Note_on_c, 5, 50, 57
15, 454562, Note_on_c, 5, 49, 55
15, 454580, Note_on_c, 5, 50, 0
15, 454682, Note_on_c, 5, 49, 0
15, 455763, Note_on_c, 5, 48, 50
15, 456001, Note_on_c, 5, 51, 49
15, 456003, Note_on_c, 5, 48, 0
15, 456241, Note_on_c, 5, 51, 0
15, 456246, Note_on_c, 5, 50, 48
15, 456486, Note_on_c, 5, 50, 0
15, 456504, Note_on_c, 5, 49, 53
15, 456624, Note_on_c, 5, 49, 0
15, 456730, Note_on_c, 5, 48, 48
15, 456970, Note_on_c, 5, 48, 0
15, 456987, Note_on_c, 5, 51, 49
15, 457217, Note_on_c, 5, 50, 39
15, 457227, Note_on_c, 5, 51, 0
15, 457451, Note_on_c, 5, 51, 43
15, 457457, Note_on_c, 5, 50, 0
15, 457571, Note_on_c, 5, 51, 0
15, 457696, Note_on_c, 5, 59, 51
15, 462472, Note_on_c, 5, 59, 0
15, 462486, Note_on_c, 5, 50, 53
15, 462491, Note_on_c, 5, 59, 51
15, 467286, Note_on_c, 5, 50, 0
15, 467291, Note_on_c, 5, 59, 0
15, 491281, Note_on_c, 5, 58, 116
15, 491288, Note_on_c, 5, 63, 105
15, 491317, Note_on_c, 5, 58, 0
15, 491324, Note_on_c, 5, 63, 0
15, 491542, Note_on_c, 5, 63, 113
15, 491649, Note_on_c, 5, 63, 0
15, 492146, Note_on_c, 5, 63, 120
15, 492199, Note_on_c, 5, 63, 0
15, 492253, Note_on_c, 5, 63, 116
15, 492306, Note_on_c, 5, 63, 0
15, 492374, Note_on_c, 5, 62, 118
15, 492427, Note_on_c, 5, 62, 0
15, 492500, Note_on_c, 5, 63, 114
15, 492553, Note_on_c, 5, 63, 0
15, 492724, Note_on_c, 5, 63, 107
15, 492726, Note_on_c, 5, 58, 110
15, 492760, Note_on_c, 5, 63, 0
15, 492762, Note_on_c, 5, 58, 0
15, 493571, Note_on_c, 5, 63, 106
15, 493624, Note_on_c, 5, 63, 0
15, 493699, Note_on_c, 5, 63, 115
15, 493752, Note_on_c, 5, 63, 0
15, 493811, Note_on_c, 5, 62, 109
15, 493864, Note_on_c, 5, 62, 0
15, 493925, Note_on_c, 5, 63, 100
15, 493978, Note_on_c, 5, 63, 0
15, 494183, Note_on_c, 5, 63, 118
15, 494290, Note_on_c, 5, 63, 0
15, 494522, Note_on_c, 5, 65, 94
15, 494527, Note_on_c, 5, 53, 88
15, 494665, Note_on_c, 5, 65, 0
15, 494670, Note_on_c, 5, 53, 0
15, 494772, Note_on_c, 5, 63, 97
15, 494778, Note_on_c, 5, 51, 81
15, 494915, Note_on_c, 5, 63, 0
15, 494921, Note_on_c, 5, 51, 0
15, 495013, Note_on_c, 5, 62, 85
15, 495018, Note_on_c, 5, 50, 90
15, 495073, Note_on_c, 5, 62, 0
15, 495078, Note_on_c, 5, 50, 0
15, 495143, Note_on_c, 5, 48, 95
15, 495149, Note_on_c, 5, 60, 92
15, 495215, Note_on_c, 5, 48, 0
15, 495221, Note_on_c, 5, 60, 0
15, 495259, Note_on_c, 5, 47, 81
15, 495262, Note_on_c, 5, 59, 94
15, 495319, Note_on_c, 5, 47, 0
15, 495322, Note_on_c, 5, 59, 0
15, 495494, Note_on_c, 5, 63, 98
15, 495499, Note_on_c, 5, 58, 81
15, 495547, Note_on_c, 5, 63, 0
15, 495552, Note_on_c, 5, 58, 0
15, 496217, Note_on_c, 5, 63, 82
15, 496270, Note_on_c, 5, 63, 0
15, 496335, Note_on_c, 5, 63, 78
15, 496388, Note_on_c, 5, 63, 0
15, 496467, Note_on_c, 5, 62, 86
15, 496520, Note_on_c, 5, 62, 0
15, 496573, Note_on_c, 5, 63, 89
15, 496626, Note_on_c, 5, 63, 0
15, 496684, Note_on_c, 5, 53, 93
15, 496685, Note_on_c, 5, 65, 86
15, 496756, Note_on_c, 5, 53, 0
15, 496757, Note_on_c, 5, 65, 0
15, 496816, Note_on_c, 5, 51, 81
15, 496828, Note_on_c, 5, 63, 94
15, 496888, Note_on_c, 5, 51, 0
15, 496900, Note_on_c, 5, 63, 0
15, 496944, Note_on_c, 5, 50, 81
15, 496944, Note_on_c, 5, 62, 82
15, 497016, Note_on_c, 5, 50, 0
15, 497016, Note_on_c, 5, 62, 0
15, 497067, Note_on_c, 5, 48, 83
15, 497069, Note_on_c, 5, 60, 80
15, 497139, Note_on_c, 5, 48, 0
15, 497141, Note_on_c, 5, 60, 0
15, 497162, Note_on_c, 5, 47, 96
15, 497166, Note_on_c, 5, 59, 96
15, 497209, Note_on_c, 5, 47, 0
15, 497213, Note_on_c, 5, 59, 0
15, 498022, Note_on_c, 5, 58, 89
15, 498027, Note_on_c, 5, 63, 89
15, 498075, Note_on_c, 5, 58, 0
15, 498080, Note_on_c, 5, 63, 0
15, 498744, Note_on_c, 5, 63, 85
15, 498797, Note_on_c, 5, 63, 0
15, 498853, Note_on_c, 5, 63, 95
15, 498906, Note_on_c, 5, 63, 0
15, 498983, Note_on_c, 5, 62, 80
15, 499036, Note_on_c, 5, 62, 0
15, 499085, Note_on_c, 5, 63, 95
15, 499138, Note_on_c, 5, 63, 0
15, 499321, Note_on_c, 5, 63, 82
15, 499337, Note_on_c, 5, 58, 82
15, 499428, Note_on_c, 5, 63, 0
15, 499444, Note_on_c, 5, 58, 0
15, 499680, Note_on_c, 5, 63, 82
15, 499733, Note_on_c, 5, 63, 0
15, 499925, Note_on_c, 5, 63, 79
15, 500032, Note_on_c, 5, 63, 0
15, 500302, Note_on_c, 5, 63, 88
15, 500355, Note_on_c, 5, 63, 0
15, 500408, Note_on_c, 5, 62, 98
15, 500461, Note_on_c, 5, 62, 0
15, 500522, Note_on_c, 5, 63, 78
15, 500575, Note_on_c, 5, 63, 0
15, 500781, Note_on_c, 5, 63, 96
15, 500834, Note_on_c, 5, 63, 0
15, 501006, Note_on_c, 5, 63, 93
15, 501059, Note_on_c, 5, 63, 0
15, 501130, Note_on_c, 5, 62, 89
15, 501183, Note_on_c, 5, 62, 0
15, 501245, Note_on_c, 5, 63, 86
15, 501298, Note_on_c, 5, 63, 0
15, 501501, Note_on_c, 5, 63, 89
15, 501608, Note_on_c, 5, 63, 0
15, 501852, Note_on_c, 5, 63, 95
15, 501905, Note_on_c, 5, 63, 0
15, 502092, Note_on_c, 5, 63, 94
15, 502199, Note_on_c, 5, 63, 0
15, 502441, Note_on_c, 5, 63, 96
15, 502494, Note_on_c, 5, 63, 0
15, 502569, Note_on_c, 5, 62, 78
15, 502622, Note_on_c, 5, 62, 0
15, 502684, Note_on_c, 5, 63, 86
15, 502737, Note_on_c, 5, 63, 0
15, 528252, Note_on_c, 5, 53, 110
15, 528256, Control_c, 5, 11, 65
15, 528261, Note_on_c, 5, 65, 100
15, 528275, Control_c, 5, 11, 66
15, 528294, Control_c, 5, 11, 67
15, 528314, Control_c, 5, 11, 68
15, 528333, Control_c, 5, 11, 69
15, 528352, Control_c, 5, 11, 70
15, 528371, Control_c, 5, 11, 71
15, 528390, Control_c, 5, 11, 72
15, 528409, Control_c, 5, 11, 73
15, 528428, Control_c, 5, 11, 74
15, 528447, Control_c, 5, 11, 75
15, 528466, Control_c, 5, 11, 76
15, 528485, Control_c, 5, 11, 77
15, 528504, Control_c, 5, 11, 78
15, 528524, Control_c, 5, 11, 79
15, 528542, Control_c, 5, 11, 80
15, 528562, Control_c, 5, 11, 81
15, 528581, Control_c, 5, 11, 82
15, 528600, Control_c, 5, 11, 83
15, 528619, Control_c, 5, 11, 84
15, 528638, Control_c, 5, 11, 85
15, 528657, Control_c, 5, 11, 86
15, 528676, Control_c, 5, 11, 87
15, 528695, Control_c, 5, 11, 88
15, 528714, Control_c, 5, 11, 89
15, 528734, Control_c, 5, 11, 90
15, 528752, Control_c, 5, 11, 91
15, 528772, Control_c, 5, 11, 92
15, 528791, Control_c, 5, 11, 93
15, 528810, Control_c, 5, 11, 94
15, 528829, Control_c, 5, 11, 95
15, 528848, Control_c, 5, 11, 96
15, 528867, Control_c, 5, 11, 97
15, 528886, Control_c, 5, 11, 98
15, 528905, Control_c, 5, 11, 99
15, 528924, Control_c, 5, 11, 100
15, 528943, Control_c, 5, 11, 101
15, 528962, Control_c, 5, 11, 102
15, 528982, Control_c, 5, 11, 103
15, 529001, Control_c, 5, 11, 104
15, 529020, Control_c, 5, 11, 105
15, 529039, Control_c, 5, 11, 106
15, 529058, Control_c, 5, 11, 107
15, 529077, Control_c, 5, 11, 108
15, 529096, Control_c, 5, 11, 109
15, 529115, Control_c, 5, 11, 110
15, 529134, Control_c, 5, 11, 111
15, 529153, Control_c, 5, 11, 112
15, 529172, Control_c, 5, 11, 113
15, 529192, Control_c, 5, 11, 114
15, 529210, Control_c, 5, 11, 115
15, 529230, Control_c, 5, 11, 116
15, 529249, Control_c, 5, 11, 117
15, 529268, Control_c, 5, 11, 118
15, 529287, Control_c, 5, 11, 119
15, 529306, Control_c, 5, 11, 120
15, 529325, Control_c, 5, 11, 121
15, 529344, Control_c, 5, 11, 122
15, 529363, Control_c, 5, 11, 123
15, 529382, Control_c, 5, 11, 124
15, 529402, Control_c, 5, 11, 125
15, 529420, Control_c, 5, 11, 126
15, 529452, Note_on_c, 5, 53, 0
15, 529461, Note_on_c, 5, 65, 0
15, 530170, Note_on_c, 5, 53, 102
15, 530176, Control_c, 5, 11, 65
15, 530182, Note_on_c, 5, 65, 98
15, 530195, Control_c, 5, 11, 66
15, 530214, Control_c, 5, 11, 67
15, 530234, Control_c, 5, 11, 68
15, 530253, Control_c, 5, 11, 69
15, 530272, Control_c, 5, 11, 70
15, 530291, Control_c, 5, 11, 71
15, 530310, Control_c, 5, 11, 72
15, 530329, Control_c, 5, 11, 73
15, 530348, Control_c, 5, 11, 74
15, 530367, Control_c, 5, 11, 75
15, 530386, Control_c, 5, 11, 76
15, 530405, Control_c, 5, 11, 77
15, 530424, Control_c, 5, 11, 78
15, 530444, Control_c, 5, 11, 79
15, 530462, Control_c, 5, 11, 80
15, 530482, Control_c, 5, 11, 81
15, 530501, Control_c, 5, 11, 82
15, 530520, Control_c, 5, 11, 83
15, 530539, Control_c, 5, 11, 84
15, 530558, Control_c, 5, 11, 85
15, 530577, Control_c, 5, 11, 86
15, 530596, Control_c, 5, 11, 87
15, 530615, Control_c, 5, 11, 88
15, 530634, Control_c, 5, 11, 89
15, 530654, Control_c, 5, 11, 90
15, 530672, Control_c, 5, 11, 91
15, 530692, Control_c, 5, 11, 92
15, 530711, Control_c, 5, 11, 93
15, 530730, Control_c, 5, 11, 94
15, 530749, Control_c, 5, 11, 95
15, 530768, Control_c, 5, 11, 96
15, 530787, Control_c, 5, 11, 97
15, 530806, Control_c, 5, 11, 98
15, 530825, Control_c, 5, 11, 99
15, 530844, Control_c, 5, 11, 100
15, 530863, Control_c, 5, 11, 101
15, 530882, Control_c, 5, 11, 102
15, 530902, Control_c, 5, 11, 103
15, 530921, Control_c, 5, 11, 104
15, 530940, Control_c, 5, 11, 105
15, 530959, Control_c, 5, 11, 106
15, 530978, Control_c, 5, 11, 107
15, 530997, Control_c, 5, 11, 108
15, 531016, Control_c, 5, 11, 109
15, 531035, Control_c, 5, 11, 110
15, 531054, Control_c, 5, 11, 111
15, 531073, Control_c, 5, 11, 112
15, 531092, Control_c, 5, 11, 113
15, 531112, Control_c, 5, 11, 114
15, 531130, Control_c, 5, 11, 115
15, 531150, Control_c, 5, 11, 116
15, 531169, Control_c, 5, 11, 117
15, 531188, Control_c, 5, 11, 118
15, 531207, Control_c, 5, 11, 119
15, 531226, Control_c, 5, 11, 120
15, 531245, Control_c, 5, 11, 121
15, 531264, Control_c, 5, 11, 122
15, 531283, Control_c, 5, 11, 123
15, 531302, Control_c, 5, 11, 124
15, 531322, Control_c, 5, 11, 125
15, 531340, Control_c, 5, 11, 126
15, 531370, Note_on_c, 5, 53, 0
15, 531379, Note_on_c, 5, 45, 101
15, 531382, Note_on_c, 5, 65, 0
15, 531388, Note_on_c, 5, 63, 97
15, 531499, Note_on_c, 5, 45, 0
15, 531508, Note_on_c, 5, 63, 0
15, 531610, Note_on_c, 5, 45, 97
15, 531615, Note_on_c, 5, 63, 106
15, 531730, Note_on_c, 5, 45, 0
15, 531735, Note_on_c, 5, 63, 0
15, 531845, Note_on_c, 5, 63, 103
15, 531855, Note_on_c, 5, 45, 95
15, 531965, Note_on_c, 5, 63, 0
15, 531975, Note_on_c, 5, 45, 0
15, 532329, Note_on_c, 5, 63, 92
15, 532347, Note_on_c, 5, 45, 102
15, 532449, Note_on_c, 5, 63, 0
15, 532467, Note_on_c, 5, 45, 0
15, 532564, Note_on_c, 5, 63, 101
15, 532581, Note_on_c, 5, 45, 109
15, 532684, Note_on_c, 5, 63, 0
15, 532701, Note_on_c, 5, 45, 0
15, 532801, Note_on_c, 5, 63, 96
15, 532814, Note_on_c, 5, 45, 109
15, 532921, Note_on_c, 5, 63, 0
15, 532934, Note_on_c, 5, 45, 0
15, 533044, Note_on_c, 5, 45, 93
15, 533049, Note_on_c, 5, 63, 109
15, 533164, Note_on_c, 5, 45, 0
15, 533169, Note_on_c, 5, 63, 0
15, 533289, Note_on_c, 5, 45, 101
15, 533302, Note_on_c, 5, 63, 111
15, 533409, Note_on_c, 5, 45, 0
15, 533422, Note_on_c, 5, 63, 0
15, 533775, Note_on_c, 5, 63, 93
15, 533783, Note_on_c, 5, 45, 98
15, 533895, Note_on_c, 5, 63, 0
15, 533903, Note_on_c, 5, 45, 0
15, 534240, Note_on_c, 5, 63, 109
15, 534253, Note_on_c, 5, 45, 104
15, 534360, Note_on_c, 5, 63, 0
15, 534373, Note_on_c, 5, 45, 0
15, 534481, Note_on_c, 5, 47, 96
15, 534482, Note_on_c, 5, 62, 106
15, 534601, Note_on_c, 5, 47, 0
15, 534602, Note_on_c, 5, 62, 0
15, 534727, Note_on_c, 5, 45, 101
15, 534742, Note_on_c, 5, 63, 108
15, 534847, Note_on_c, 5, 45, 0
15, 534862, Note_on_c, 5, 63, 0
15, 535208, Note_on_c, 5, 45, 110
15, 535211, Note_on_c, 5, 63, 104
15, 535328, Note_on_c, 5, 45, 0
15, 535331, Note_on_c, 5, 63, 0
15, 535687, Note_on_c, 5, 45, 104
15, 535708, Note_on_c, 5, 63, 92
15, 535807, Note_on_c, 5, 45, 0
15, 535828, Note_on_c, 5, 63, 0
15, 542170, Note_on_c, 5, 51, 108
15, 542200, Note_on_c, 5, 51, 0
15, 542234, Note_on_c, 5, 51, 96
15, 542264, Note_on_c, 5, 51, 0
15, 542428, Note_on_c, 5, 51, 101
15, 542444, Note_on_c, 5, 51, 0
15, 542464, Note_on_c, 5, 51, 91
15, 542494, Note_on_c, 5, 51, 0
15, 542894, Note_on_c, 5, 51, 109
15, 542924, Note_on_c, 5, 51, 0
15, 542948, Note_on_c, 5, 51, 102
15, 542978, Note_on_c, 5, 51, 0
15, 543367, Note_on_c, 5, 51, 98
15, 543397, Note_on_c, 5, 51, 0
15, 543428, Note_on_c, 5, 51, 98
15, 543458, Note_on_c, 5, 51, 0
15, 543845, Note_on_c, 5, 51, 106
15, 543875, Note_on_c, 5, 51, 0
15, 543904, Note_on_c, 5, 51, 111
15, 543934, Note_on_c, 5, 51, 0
15, 544347, Note_on_c, 5, 51, 107
15, 544377, Note_on_c, 5, 51, 0
15, 544401, Note_on_c, 5, 51, 101
15, 544431, Note_on_c, 5, 51, 0
15, 544567, Note_on_c, 5, 51, 92
15, 544597, Note_on_c, 5, 51, 0
15, 544637, Note_on_c, 5, 51, 98
15, 544667, Note_on_c, 5, 51, 0
15, 544821, Note_on_c, 5, 51, 108
15, 544841, Note_on_c, 5, 51, 0
15, 544860, Note_on_c, 5, 51, 108
15, 544890, Note_on_c, 5, 51, 0
15, 545307, Note_on_c, 5, 51, 108
15, 545334, Note_on_c, 5, 51, 0
15, 545353, Note_on_c, 5, 51, 100
15, 545383, Note_on_c, 5, 51, 0
15, 545766, Note_on_c, 5, 51, 106
15, 545796, Note_on_c, 5, 51, 0
15, 545845, Note_on_c, 5, 51, 96
15, 545875, Note_on_c, 5, 51, 0
15, 551169, Note_on_c, 5, 62, 104
15, 551170, Note_on_c, 5, 57, 115
15, 551205, Note_on_c, 5, 62, 0
15, 551206, Note_on_c, 5, 57, 0
15, 551534, Note_on_c, 5, 57, 110
15, 551540, Note_on_c, 5, 62, 115
15, 551570, Note_on_c, 5, 57, 0
15, 551576, Note_on_c, 5, 62, 0
15, 551768, Note_on_c, 5, 62, 107
15, 551875, Note_on_c, 5, 62, 0
15, 552377, Note_on_c, 5, 62, 110
15, 552430, Note_on_c, 5, 62, 0
15, 552500, Note_on_c, 5, 62, 120
15, 552553, Note_on_c, 5, 62, 0
15, 552608, Note_on_c, 5, 61, 108
15, 552661, Note_on_c, 5, 61, 0
15, 552730, Note_on_c, 5, 62, 103
15, 552783, Note_on_c, 5, 62, 0
15, 552973, Note_on_c, 5, 57, 119
15, 552987, Note_on_c, 5, 62, 102
15, 553009, Note_on_c, 5, 57, 0
15, 553023, Note_on_c, 5, 62, 0
15, 553804, Note_on_c, 5, 62, 104
15, 553857, Note_on_c, 5, 62, 0
15, 553927, Note_on_c, 5, 62, 110
15, 553980, Note_on_c, 5, 62, 0
15, 554066, Note_on_c, 5, 61, 111
15, 554119, Note_on_c, 5, 61, 0
15, 554177, Note_on_c, 5, 62, 100
15, 554230, Note_on_c, 5, 62, 0
15, 554423, Note_on_c, 5, 62, 120
15, 554530, Note_on_c, 5, 62, 0
15, 554771, Note_on_c, 5, 52, 89
15, 554786, Note_on_c, 5, 64, 83
15, 554914, Note_on_c, 5, 52, 0
15, 554929, Note_on_c, 5, 64, 0
15, 555026, Note_on_c, 5, 50, 82
15, 555028, Note_on_c, 5, 62, 78
15, 555169, Note_on_c, 5, 50, 0
15, 555171, Note_on_c, 5, 62, 0
15, 555249, Note_on_c, 5, 49, 93
15, 555250, Note_on_c, 5, 61, 87
15, 555309, Note_on_c, 5, 49, 0
15, 555310, Note_on_c, 5, 61, 0
15, 555363, Note_on_c, 5, 59, 82
15, 555365, Note_on_c, 5, 47, 82
15, 555435, Note_on_c, 5, 59, 0
15, 555437, Note_on_c, 5, 47, 0
15, 555507, Note_on_c, 5, 58, 98
15, 555508, Note_on_c, 5, 46, 86
15, 555567, Note_on_c, 5, 58, 0
15, 555568, Note_on_c, 5, 46, 0
15, 555734, Note_on_c, 5, 62, 95
15, 555748, Note_on_c, 5, 57, 81
15, 555787, Note_on_c, 5, 62, 0
15, 555801, Note_on_c, 5, 57, 0
15, 556456, Note_on_c, 5, 62, 80
15, 556509, Note_on_c, 5, 62, 0
15, 556565, Note_on_c, 5, 62, 79
15, 556618, Note_on_c, 5, 62, 0
15, 556681, Note_on_c, 5, 61, 89
15, 556734, Note_on_c, 5, 61, 0
15, 556820, Note_on_c, 5, 62, 80
15, 556873, Note_on_c, 5, 62, 0
15, 556923, Note_on_c, 5, 52, 83
15, 556938, Note_on_c, 5, 64, 85
15, 556995, Note_on_c, 5, 52, 0
15, 557010, Note_on_c, 5, 64, 0
15, 557047, Note_on_c, 5, 50, 90
15, 557063, Note_on_c, 5, 62, 86
15, 557119, Note_on_c, 5, 50, 0
15, 557135, Note_on_c, 5, 62, 0
15, 557165, Note_on_c, 5, 49, 93
15, 557179, Note_on_c, 5, 61, 84
15, 557237, Note_on_c, 5, 49, 0
15, 557251, Note_on_c, 5, 61, 0
15, 557287, Note_on_c, 5, 59, 96
15, 557304, Note_on_c, 5, 47, 79
15, 557359, Note_on_c, 5, 59, 0
15, 557376, Note_on_c, 5, 47, 0
15, 557401, Note_on_c, 5, 46, 96
15, 557427, Note_on_c, 5, 58, 88
15, 557448, Note_on_c, 5, 46, 0
15, 557474, Note_on_c, 5, 58, 0
15, 558240, Note_on_c, 5, 62, 98
15, 558265, Note_on_c, 5, 57, 88
15, 558293, Note_on_c, 5, 62, 0
15, 558318, Note_on_c, 5, 57, 0
15, 558978, Note_on_c, 5, 62, 90
15, 559031, Note_on_c, 5, 62, 0
15, 559095, Note_on_c, 5, 62, 93
15, 559148, Note_on_c, 5, 62, 0
15, 559223, Note_on_c, 5, 61, 95
15, 559276, Note_on_c, 5, 61, 0
15, 559340, Note_on_c, 5, 62, 95
15, 559393, Note_on_c, 5, 62, 0
15, 559576, Note_on_c, 5, 62, 94
15, 559683, Note_on_c, 5, 62, 0
15, 559930, Note_on_c, 5, 57, 78
15, 559944, Note_on_c, 5, 62, 92
15, 559983, Note_on_c, 5, 57, 0
15, 559997, Note_on_c, 5, 62, 0
15, 560173, Note_on_c, 5, 62, 80
15, 560280, Note_on_c, 5, 62, 0
15, 560546, Note_on_c, 5, 62, 94
15, 560599, Note_on_c, 5, 62, 0
15, 560662, Note_on_c, 5, 61, 94
15, 560715, Note_on_c, 5, 61, 0
15, 560763, Note_on_c, 5, 62, 82
15, 560816, Note_on_c, 5, 62, 0
15, 561004, Note_on_c, 5, 62, 82
15, 561057, Note_on_c, 5, 62, 0
15, 561244, Note_on_c, 5, 62, 80
15, 561297, Note_on_c, 5, 62, 0
15, 561363, Note_on_c, 5, 61, 82
15, 561416, Note_on_c, 5, 61, 0
15, 561486, Note_on_c, 5, 62, 88
15, 561539, Note_on_c, 5, 62, 0
15, 561735, Note_on_c, 5, 62, 89
15, 561842, Note_on_c, 5, 62, 0
15, 562090, Note_on_c, 5, 62, 91
15, 562143, Note_on_c, 5, 62, 0
15, 562340, Note_on_c, 5, 62, 84
15, 562447, Note_on_c, 5, 62, 0
15, 562706, Note_on_c, 5, 62, 91
15, 562759, Note_on_c, 5, 62, 0
15, 562812, Note_on_c, 5, 61, 92
15, 562865, Note_on_c, 5, 61, 0
15, 562927, Note_on_c, 5, 62, 82
15, 562980, Note_on_c, 5, 62, 0
15, 589943, Note_on_c, 5, 60, 91
15, 589992, Note_on_c, 5, 63, 93
15, 590003, Note_on_c, 5, 60, 0
15, 590048, Note_on_c, 5, 65, 91
15, 590052, Note_on_c, 5, 63, 0
15, 590108, Note_on_c, 5, 65, 0
15, 590116, Note_on_c, 5, 67, 100
15, 590169, Note_on_c, 5, 69, 94
15, 590176, Note_on_c, 5, 67, 0
15, 590229, Note_on_c, 5, 69, 0
15, 590242, Note_on_c, 5, 70, 98
15, 590284, Note_on_c, 5, 72, 95
15, 590302, Note_on_c, 5, 70, 0
15, 590344, Note_on_c, 5, 72, 0
15, 590353, Note_on_c, 5, 74, 107
15, 590410, Note_on_c, 5, 75, 100
15, 590413, Note_on_c, 5, 74, 0
15, 590419, Note_on_c, 5, 51, 102
15, 590530, Note_on_c, 5, 75, 0
15, 590539, Note_on_c, 5, 51, 0
15, 590883, Note_on_c, 5, 51, 108
15, 591003, Note_on_c, 5, 51, 0
15, 591142, Note_on_c, 5, 52, 100
15, 591262, Note_on_c, 5, 52, 0
15, 591387, Note_on_c, 5, 51, 93
15, 591507, Note_on_c, 5, 51, 0
15, 591605, Note_on_c, 5, 52, 106
15, 591725, Note_on_c, 5, 52, 0
15, 591843, Note_on_c, 5, 56, 107
15, 591963, Note_on_c, 5, 56, 0
15, 592344, Note_on_c, 5, 51, 109
15, 592464, Note_on_c, 5, 51, 0
15, 592827, Note_on_c, 5, 51, 111
15, 592947, Note_on_c, 5, 51, 0
15, 593043, Note_on_c, 5, 52, 109
15, 593163, Note_on_c, 5, 52, 0
15, 593285, Note_on_c, 5, 51, 91
15, 593405, Note_on_c, 5, 51, 0
15, 593543, Note_on_c, 5, 52, 91
15, 593663, Note_on_c, 5, 52, 0
15, 593761, Note_on_c, 5, 60, 100
15, 593787, Note_on_c, 5, 56, 104
15, 593820, Note_on_c, 5, 63, 92
15, 593821, Note_on_c, 5, 60, 0
15, 593880, Note_on_c, 5, 63, 0
15, 593883, Note_on_c, 5, 65, 110
15, 593943, Note_on_c, 5, 65, 0
15, 593952, Note_on_c, 5, 67, 97
15, 594012, Note_on_c, 5, 67, 0
15, 594015, Note_on_c, 5, 69, 101
15, 594027, Note_on_c, 5, 56, 0
15, 594075, Note_on_c, 5, 69, 0
15, 594085, Note_on_c, 5, 70, 96
15, 594145, Note_on_c, 5, 70, 0
15, 594148, Note_on_c, 5, 72, 107
15, 594195, Note_on_c, 5, 74, 101
15, 594208, Note_on_c, 5, 72, 0
15, 594253, Note_on_c, 5, 51, 107
15, 594255, Note_on_c, 5, 74, 0
15, 594262, Note_on_c, 5, 75, 103
15, 594373, Note_on_c, 5, 51, 0
15, 594382, Note_on_c, 5, 75, 0
15, 595211, Note_on_c, 5, 70, 91
15, 595213, Note_on_c, 5, 51, 102
15, 595451, Note_on_c, 5, 70, 0
15, 595453, Note_on_c, 5, 51, 0
15, 595699, Note_on_c, 5, 51, 101
15, 595819, Note_on_c, 5, 51, 0
15, 595940, Note_on_c, 5, 52, 101
15, 596060, Note_on_c, 5, 52, 0
15, 596176, Note_on_c, 5, 51, 111
15, 596296, Note_on_c, 5, 51, 0
15, 596404, Note_on_c, 5, 52, 96
15, 596524, Note_on_c, 5, 52, 0
15, 596644, Note_on_c, 5, 56, 108
15, 596764, Note_on_c, 5, 56, 0
15, 597127, Note_on_c, 5, 51, 94
15, 597247, Note_on_c, 5, 51, 0
15, 597601, Note_on_c, 5, 60, 108
15, 597605, Note_on_c, 5, 51, 91
15, 597661, Note_on_c, 5, 60, 0
15, 597661, Note_on_c, 5, 63, 103
15, 597721, Note_on_c, 5, 63, 0
15, 597725, Note_on_c, 5, 51, 0
15, 597742, Note_on_c, 5, 65, 95
15, 597795, Note_on_c, 5, 67, 108
15, 597802, Note_on_c, 5, 65, 0
15, 597855, Note_on_c, 5, 67, 0
15, 597861, Note_on_c, 5, 52, 104
15, 597861, Note_on_c, 5, 69, 110
15, 597921, Note_on_c, 5, 69, 0
15, 597925, Note_on_c, 5, 70, 110
15, 597980, Note_on_c, 5, 72, 95
15, 597981, Note_on_c, 5, 52, 0
15, 597985, Note_on_c, 5, 70, 0
15, 598027, Note_on_c, 5, 74, 96
15, 598040, Note_on_c, 5, 72, 0
15, 598087, Note_on_c, 5, 74, 0
15, 598103, Note_on_c, 5, 75, 93
15, 598103, Note_on_c, 5, 51, 109
15, 598223, Note_on_c, 5, 75, 0
15, 598223, Note_on_c, 5, 51, 0
15, 598349, Note_on_c, 5, 52, 106
15, 598581, Note_on_c, 5, 56, 94
15, 598589, Note_on_c, 5, 52, 0
15, 598701, Note_on_c, 5, 56, 0
15, 599046, Note_on_c, 5, 70, 97
15, 599061, Note_on_c, 5, 51, 110
15, 599181, Note_on_c, 5, 51, 0
15, 599286, Note_on_c, 5, 70, 0
15, 602767, Note_on_c, 5, 63, 100
15, 603127, Note_on_c, 5, 63, 0
15, 603144, Note_on_c, 5, 61, 106
15, 603197, Note_on_c, 5, 61, 0
15, 603247, Note_on_c, 5, 60, 114
15, 603300, Note_on_c, 5, 60, 0
15, 603377, Note_on_c, 5, 61, 101
15, 603430, Note_on_c, 5, 61, 0
15, 605163, Note_on_c, 5, 67, 82
15, 605403, Note_on_c, 5, 67, 0
15, 605649, Note_on_c, 5, 66, 90
15, 605889, Note_on_c, 5, 66, 0
15, 606136, Note_on_c, 5, 65, 83
15, 606376, Note_on_c, 5, 65, 0
15, 606627, Note_on_c, 5, 64, 94
15, 606867, Note_on_c, 5, 64, 0
15, 607092, Note_on_c, 5, 63, 96
15, 607332, Note_on_c, 5, 63, 0
15, 607568, Note_on_c, 5, 64, 91
15, 607808, Note_on_c, 5, 64, 0
15, 608064, Note_on_c, 5, 63, 85
15, 608304, Note_on_c, 5, 63, 0
15, 608535, Note_on_c, 5, 62, 94
15, 608775, Note_on_c, 5, 62, 0
15, 609012, Note_on_c, 5, 61, 98
15, 609252, Note_on_c, 5, 61, 0
15, 609485, Note_on_c, 5, 60, 89
15, 609725, Note_on_c, 5, 60, 0
15, 609962, Note_on_c, 5, 59, 93
15, 610202, Note_on_c, 5, 59, 0
15, 610461, Note_on_c, 5, 58, 93
15, 610701, Note_on_c, 5, 58, 0
15, 610929, Note_on_c, 5, 59, 90
15, 611169, Note_on_c, 5, 59, 0
15, 611428, Note_on_c, 5, 68, 83
15, 611668, Note_on_c, 5, 68, 0
15, 611907, Note_on_c, 5, 69, 86
15, 612147, Note_on_c, 5, 69, 0
15, 612372, Note_on_c, 5, 70, 90
15, 612612, Note_on_c, 5, 70, 0
15, 612863, Note_on_c, 5, 71, 94
15, 613103, Note_on_c, 5, 71, 0
15, 613334, Note_on_c, 5, 70, 86
15, 613574, Note_on_c, 5, 70, 0
15, 633129, Note_on_c, 5, 67, 120
15, 633131, Note_on_c, 5, 61, 118
15, 633189, Note_on_c, 5, 67, 0
15, 633191, Note_on_c, 5, 61, 0
15, 633363, Note_on_c, 5, 61, 100
15, 633371, Note_on_c, 5, 67, 101
15, 633423, Note_on_c, 5, 61, 0
15, 633431, Note_on_c, 5, 67, 0
15, 634802, Note_on_c, 5, 61, 108
15, 634811, Note_on_c, 5, 67, 102
15, 634862, Note_on_c, 5, 61, 0
15, 634871, Note_on_c, 5, 67, 0
15, 635040, Note_on_c, 5, 67, 104
15, 635042, Note_on_c, 5, 61, 111
15, 635100, Note_on_c, 5, 67, 0
15, 635102, Note_on_c, 5, 61, 0
15, 639845, Note_on_c, 5, 45, 96
15, 639898, Note_on_c, 5, 45, 0
15, 640341, Note_on_c, 5, 49, 83
15, 640461, Note_on_c, 5, 49, 0
15, 640562, Note_on_c, 5, 64, 70
15, 640609, Note_on_c, 5, 64, 0
15, 640689, Note_on_c, 5, 58, 81
15, 640736, Note_on_c, 5, 58, 0
15, 640928, Note_on_c, 5, 58, 70
15, 640975, Note_on_c, 5, 58, 0
15, 641063, Note_on_c, 5, 45, 104
15, 641116, Note_on_c, 5, 45, 0
15, 641653, Note_on_c, 5, 49, 73
15, 641773, Note_on_c, 5, 49, 0
15, 641909, Note_on_c, 5, 64, 84
15, 641956, Note_on_c, 5, 64, 0
15, 642011, Note_on_c, 5, 58, 87
15, 642058, Note_on_c, 5, 58, 0
15, 642249, Note_on_c, 5, 58, 79
15, 642296, Note_on_c, 5, 58, 0
15, 642480, Note_on_c, 5, 64, 86
15, 642527, Note_on_c, 5, 64, 0
15, 642606, Note_on_c, 5, 58, 77
15, 642653, Note_on_c, 5, 58, 0
15, 642845, Note_on_c, 5, 58, 88
15, 642892, Note_on_c, 5, 58, 0
15, 643098, Note_on_c, 5, 64, 69
15, 643145, Note_on_c, 5, 64, 0
15, 643225, Note_on_c, 5, 64, 71
15, 643272, Note_on_c, 5, 64, 0
15, 643344, Note_on_c, 5, 58, 85
15, 643391, Note_on_c, 5, 58, 0
15, 643583, Note_on_c, 5, 58, 78
15, 643630, Note_on_c, 5, 58, 0
15, 643811, Note_on_c, 5, 64, 70
15, 643858, Note_on_c, 5, 64, 0
15, 643939, Note_on_c, 5, 58, 69
15, 643986, Note_on_c, 5, 58, 0
15, 644167, Note_on_c, 5, 58, 84
15, 644214, Note_on_c, 5, 58, 0
15, 644406, Note_on_c, 5, 64, 71
15, 644453, Note_on_c, 5, 64, 0
15, 644528, Note_on_c, 5, 64, 77
15, 644575, Note_on_c, 5, 64, 0
15, 644648, Note_on_c, 5, 64, 83
15, 644695, Note_on_c, 5, 64, 0
15, 644900, Note_on_c, 5, 58, 87
15, 644947, Note_on_c, 5, 58, 0
15, 645129, Note_on_c, 5, 58, 82
15, 645176, Note_on_c, 5, 58, 0
15, 645724, Note_on_c, 5, 49, 79
15, 645844, Note_on_c, 5, 49, 0
15, 645973, Note_on_c, 5, 64, 65
15, 646020, Note_on_c, 5, 64, 0
15, 646089, Note_on_c, 5, 64, 82
15, 646136, Note_on_c, 5, 64, 0
15, 646208, Note_on_c, 5, 58, 69
15, 646255, Note_on_c, 5, 58, 0
15, 646463, Note_on_c, 5, 58, 78
15, 646510, Note_on_c, 5, 58, 0
15, 647062, Note_on_c, 5, 49, 83
15, 647175, Note_on_c, 5, 45, 106
15, 647182, Note_on_c, 5, 49, 0
15, 647228, Note_on_c, 5, 45, 0
15, 647767, Note_on_c, 5, 49, 82
15, 647887, Note_on_c, 5, 49, 0
15, 648614, Note_on_c, 5, 49, 74
15, 648734, Note_on_c, 5, 49, 0
15, 649331, Note_on_c, 5, 61, 92
15, 649451, Note_on_c, 5, 61, 0
15, 649580, Note_on_c, 5, 49, 67
15, 649700, Note_on_c, 5, 49, 0
15, 650170, Note_on_c, 5, 49, 75
15, 650290, Note_on_c, 5, 49, 0
15, 650891, Note_on_c, 5, 61, 94
15, 651011, Note_on_c, 5, 61, 0
15, 651120, Note_on_c, 5, 49, 80
15, 651240, Note_on_c, 5, 49, 0
15, 651846, Note_on_c, 5, 61, 102
15, 651966, Note_on_c, 5, 61, 0
15, 652583, Note_on_c, 5, 61, 92
15, 652703, Note_on_c, 5, 61, 0
15, 652825, Note_on_c, 5, 49, 74
15, 652945, Note_on_c, 5, 49, 0
15, 653530, Note_on_c, 5, 61, 96
15, 653650, Note_on_c, 5, 61, 0
15, 654245, Note_on_c, 5, 61, 106
15, 654365, Note_on_c, 5, 61, 0
15, 654506, Note_on_c, 5, 49, 65
15, 654626, Note_on_c, 5, 49, 0
15, 654725, Note_on_c, 5, 58, 71
15, 654738, Note_on_c, 5, 61, 74
15, 654785, Note_on_c, 5, 58, 0
15, 654798, Note_on_c, 5, 61, 0
15, 654845, Note_on_c, 5, 58, 83
15, 654855, Note_on_c, 5, 61, 73
15, 654905, Note_on_c, 5, 58, 0
15, 654915, Note_on_c, 5, 61, 0
15, 654983, Note_on_c, 5, 58, 73
15, 654983, Note_on_c, 5, 61, 84
15, 655043, Note_on_c, 5, 58, 0
15, 655043, Note_on_c, 5, 61, 0
15, 655093, Note_on_c, 5, 61, 72
15, 655108, Note_on_c, 5, 58, 71
15, 655153, Note_on_c, 5, 61, 0
15, 655168, Note_on_c, 5, 58, 0
15, 655325, Note_on_c, 5, 61, 110
15, 655334, Note_on_c, 5, 60, 120
15, 655385, Note_on_c, 5, 61, 0
15, 655394, Note_on_c, 5, 60, 0
15, 658102, Note_on_c, 5, 45, 111
15, 658155, Note_on_c, 5, 45, 0
15, 658155, End_track
16, 0, Start_track
16, 0, Title_t, "Corni IV"
16, 0, MIDI_port, 0
16, 0, Program_c, 5, 60
16, 2, Note_on_c, 5, 38, 45
16, 2880, Note_on_c, 5, 38, 0
16, 2890, Note_on_c, 5, 40, 43
16, 3130, Note_on_c, 5, 40, 0
16, 3363, Note_on_c, 5, 38, 38
16, 8883, Note_on_c, 5, 38, 0
16, 83532, Note_on_c, 5, 64, 34
16, 84252, Note_on_c, 5, 64, 0
16, 84268, Note_on_c, 5, 63, 42
16, 84492, Note_on_c, 5, 64, 44
16, 84508, Note_on_c, 5, 63, 0
16, 84961, Note_on_c, 5, 60, 46
16, 84972, Note_on_c, 5, 64, 0
16, 85201, Note_on_c, 5, 60, 0
16, 85226, Note_on_c, 5, 57, 34
16, 85443, Note_on_c, 5, 63, 35
16, 85466, Note_on_c, 5, 57, 0
16, 85922, Note_on_c, 5, 60, 34
16, 85923, Note_on_c, 5, 63, 0
16, 86354, Note_on_c, 5, 60, 0
16, 86419, Note_on_c, 5, 64, 46
16, 87122, Note_on_c, 5, 63, 34
16, 87139, Note_on_c, 5, 64, 0
16, 87362, Note_on_c, 5, 63, 0
16, 87374, Note_on_c, 5, 64, 39
16, 87849, Note_on_c, 5, 60, 31
16, 87854, Note_on_c, 5, 64, 0
16, 88089, Note_on_c, 5, 60, 0
16, 88107, Note_on_c, 5, 57, 47
16, 88320, Note_on_c, 5, 63, 30
16, 88347, Note_on_c, 5, 57, 0
16, 88560, Note_on_c, 5, 63, 0
16, 166567, Note_on_c, 5, 54, 42
16, 167527, Note_on_c, 5, 54, 0
16, 167546, Note_on_c, 5, 53, 47
16, 168501, Note_on_c, 5, 52, 51
16, 168506, Note_on_c, 5, 53, 0
16, 169269, Note_on_c, 5, 52, 0
16, 169465, Note_on_c, 5, 51, 55
16, 170412, Note_on_c, 5, 56, 44
16, 170425, Note_on_c, 5, 51, 0
16, 171849, Note_on_c, 5, 55, 45
16, 171852, Note_on_c, 5, 56, 0
16, 172233, Note_on_c, 5, 55, 0
16, 180983, Note_on_c, 5, 55, 45
16, 182644, Note_on_c, 5, 52, 56
16, 182663, Note_on_c, 5, 55, 0
16, 182884, Note_on_c, 5, 52, 0
16, 182887, Note_on_c, 5, 58, 46
16, 183367, Note_on_c, 5, 58, 0
16, 183373, Note_on_c, 5, 55, 57
16, 183661, Note_on_c, 5, 55, 0
16, 189623, Note_on_c, 5, 61, 118
16, 191543, Note_on_c, 5, 61, 0
16, 202821, Note_on_c, 5, 47, 113
16, 203041, Note_on_c, 5, 57, 107
16, 203061, Note_on_c, 5, 47, 0
16, 203761, Note_on_c, 5, 57, 0
16, 204740, Note_on_c, 5, 47, 102
16, 204960, Note_on_c, 5, 57, 117
16, 204980, Note_on_c, 5, 47, 0
16, 205680, Note_on_c, 5, 57, 0
16, 206168, Note_on_c, 5, 47, 119
16, 206408, Note_on_c, 5, 47, 0
16, 206423, Note_on_c, 5, 57, 117
16, 206663, Note_on_c, 5, 57, 0
16, 207142, Note_on_c, 5, 47, 109
16, 207381, Note_on_c, 5, 57, 112
16, 207382, Note_on_c, 5, 47, 0
16, 207621, Note_on_c, 5, 57, 0
16, 208107, Note_on_c, 5, 47, 116
16, 208332, Note_on_c, 5, 57, 112
16, 208347, Note_on_c, 5, 47, 0
16, 208491, Note_on_c, 5, 57, 0
16, 387610, Note_on_c, 5, 38, 57
16, 387619, Note_on_c, 5, 46, 46
16, 387850, Note_on_c, 5, 38, 0
16, 387859, Note_on_c, 5, 46, 0
16, 388088, Note_on_c, 5, 46, 51
16, 388096, Note_on_c, 5, 38, 42
16, 388328, Note_on_c, 5, 46, 0
16, 388336, Note_on_c, 5, 38, 0
16, 388566, Note_on_c, 5, 46, 41
16, 388575, Note_on_c, 5, 38, 53
16, 388806, Note_on_c, 5, 46, 0
16, 388815, Note_on_c, 5, 38, 0
16, 389064, Note_on_c, 5, 46, 50
16, 389065, Note_on_c, 5, 38, 54
16, 389304, Note_on_c, 5, 46, 0
16, 389305, Note_on_c, 5, 38, 0
16, 389521, Note_on_c, 5, 38, 52
16, 389537, Note_on_c, 5, 46, 46
16, 389761, Note_on_c, 5, 38, 0
16, 389777, Note_on_c, 5, 46, 0
16, 390019, Note_on_c, 5, 38, 46
16, 390024, Note_on_c, 5, 46, 57
16, 390259, Note_on_c, 5, 38, 0
16, 390264, Note_on_c, 5, 46, 0
16, 390496, Note_on_c, 5, 38, 49
16, 390497, Note_on_c, 5, 46, 59
16, 390736, Note_on_c, 5, 38, 0
16, 390737, Note_on_c, 5, 46, 0
16, 390973, Note_on_c, 5, 38, 47
16, 390973, Note_on_c, 5, 46, 43
16, 391213, Note_on_c, 5, 38, 0
16, 391213, Note_on_c, 5, 46, 0
16, 391452, Note_on_c, 5, 46, 47
16, 391455, Note_on_c, 5, 38, 42
16, 391692, Note_on_c, 5, 46, 0
16, 391695, Note_on_c, 5, 38, 0
16, 391929, Note_on_c, 5, 38, 48
16, 391942, Note_on_c, 5, 46, 46
16, 392169, Note_on_c, 5, 38, 0
16, 392182, Note_on_c, 5, 46, 0
16, 392413, Note_on_c, 5, 38, 59
16, 392423, Note_on_c, 5, 46, 42
16, 392653, Note_on_c, 5, 38, 0
16, 392663, Note_on_c, 5, 46, 0
16, 392890, Note_on_c, 5, 38, 58
16, 392896, Note_on_c, 5, 46, 42
16, 393130, Note_on_c, 5, 38, 0
16, 393136, Note_on_c, 5, 46, 0
16, 393376, Note_on_c, 5, 46, 57
16, 393384, Note_on_c, 5, 38, 43
16, 393616, Note_on_c, 5, 46, 0
16, 393624, Note_on_c, 5, 38, 0
16, 393855, Note_on_c, 5, 38, 55
16, 393866, Note_on_c, 5, 46, 43
16, 394095, Note_on_c, 5, 38, 0
16, 394106, Note_on_c, 5, 46, 0
16, 394321, Note_on_c, 5, 38, 45
16, 394326, Note_on_c, 5, 46, 51
16, 394561, Note_on_c, 5, 38, 0
16, 394566, Note_on_c, 5, 46, 0
16, 394801, Note_on_c, 5, 46, 47
16, 394813, Note_on_c, 5, 38, 48
16, 395041, Note_on_c, 5, 46, 0
16, 395053, Note_on_c, 5, 38, 0
16, 395301, Note_on_c, 5, 38, 48
16, 395308, Note_on_c, 5, 46, 39
16, 395541, Note_on_c, 5, 38, 0
16, 395548, Note_on_c, 5, 46, 0
16, 395777, Note_on_c, 5, 46, 52
16, 395779, Note_on_c, 5, 38, 43
16, 396017, Note_on_c, 5, 46, 0
16, 396019, Note_on_c, 5, 38, 0
16, 396251, Note_on_c, 5, 38, 43
16, 396252, Note_on_c, 5, 46, 48
16, 396491, Note_on_c, 5, 38, 0
16, 396492, Note_on_c, 5, 46, 0
16, 396723, Note_on_c, 5, 38, 51
16, 396726, Note_on_c, 5, 46, 48
16, 396963, Note_on_c, 5, 38, 0
16, 396966, Note_on_c, 5, 46, 0
16, 397203, Note_on_c, 5, 46, 39
16, 397219, Note_on_c, 5, 38, 49
16, 397443, Note_on_c, 5, 46, 0
16, 397459, Note_on_c, 5, 38, 0
16, 397684, Note_on_c, 5, 38, 39
16, 397705, Note_on_c, 5, 46, 57
16, 397924, Note_on_c, 5, 38, 0
16, 397945, Note_on_c, 5, 46, 0
16, 398160, Note_on_c, 5, 38, 54
16, 398181, Note_on_c, 5, 46, 51
16, 398400, Note_on_c, 5, 38, 0
16, 398421, Note_on_c, 5, 46, 0
16, 398647, Note_on_c, 5, 46, 41
16, 398649, Note_on_c, 5, 38, 50
16, 398887, Note_on_c, 5, 46, 0
16, 398889, Note_on_c, 5, 38, 0
16, 399133, Note_on_c, 5, 38, 46
16, 399373, Note_on_c, 5, 38, 0
16, 399622, Note_on_c, 5, 38, 56
16, 399862, Note_on_c, 5, 38, 0
16, 400099, Note_on_c, 5, 38, 41
16, 400339, Note_on_c, 5, 38, 0
16, 400584, Note_on_c, 5, 38, 41
16, 400824, Note_on_c, 5, 38, 0
16, 401064, Note_on_c, 5, 38, 54
16, 401304, Note_on_c, 5, 38, 0
16, 401535, Note_on_c, 5, 38, 52
16, 401775, Note_on_c, 5, 38, 0
16, 402012, Note_on_c, 5, 38, 49
16, 402252, Note_on_c, 5, 38, 0
16, 402483, Note_on_c, 5, 38, 43
16, 402723, Note_on_c, 5, 38, 0
16, 402964, Note_on_c, 5, 38, 46
16, 403204, Note_on_c, 5, 38, 0
16, 403457, Note_on_c, 5, 38, 42
16, 403697, Note_on_c, 5, 38, 0
16, 403926, Note_on_c, 5, 38, 41
16, 404166, Note_on_c, 5, 38, 0
16, 404404, Note_on_c, 5, 38, 59
16, 404644, Note_on_c, 5, 38, 0
16, 404889, Note_on_c, 5, 38, 50
16, 405129, Note_on_c, 5, 38, 0
16, 405377, Note_on_c, 5, 38, 34
16, 405617, Note_on_c, 5, 38, 0
16, 405843, Note_on_c, 5, 38, 38
16, 406083, Note_on_c, 5, 38, 0
16, 406331, Note_on_c, 5, 38, 35
16, 406571, Note_on_c, 5, 38, 0
16, 406815, Note_on_c, 5, 38, 13
16, 407055, Note_on_c, 5, 38, 0
16, 419282, Note_on_c, 5, 47, 80
16, 419402, Note_on_c, 5, 47, 0
16, 420247, Note_on_c, 5, 47, 73
16, 420367, Note_on_c, 5, 47, 0
16, 420724, Note_on_c, 5, 47, 69
16, 420844, Note_on_c, 5, 47, 0
16, 421215, Note_on_c, 5, 47, 72
16, 421335, Note_on_c, 5, 47, 0
16, 421708, Note_on_c, 5, 47, 66
16, 421828, Note_on_c, 5, 47, 0
16, 422175, Note_on_c, 5, 47, 81
16, 422295, Note_on_c, 5, 47, 0
16, 422666, Note_on_c, 5, 47, 76
16, 422786, Note_on_c, 5, 47, 0
16, 423124, Note_on_c, 5, 47, 74
16, 423244, Note_on_c, 5, 47, 0
16, 423626, Note_on_c, 5, 47, 69
16, 423746, Note_on_c, 5, 47, 0
16, 424080, Note_on_c, 5, 47, 84
16, 424200, Note_on_c, 5, 47, 0
16, 424572, Note_on_c, 5, 47, 74
16, 424692, Note_on_c, 5, 47, 0
16, 425043, Note_on_c, 5, 47, 82
16, 425163, Note_on_c, 5, 47, 0
16, 425547, Note_on_c, 5, 47, 83
16, 425667, Note_on_c, 5, 47, 0
16, 426028, Note_on_c, 5, 47, 70
16, 426148, Note_on_c, 5, 47, 0
16, 426503, Note_on_c, 5, 47, 68
16, 426623, Note_on_c, 5, 47, 0
16, 426972, Note_on_c, 5, 47, 72
16, 427092, Note_on_c, 5, 47, 0
16, 427443, Note_on_c, 5, 47, 80
16, 427563, Note_on_c, 5, 47, 0
16, 427937, Note_on_c, 5, 47, 66
16, 428057, Note_on_c, 5, 47, 0
16, 428419, Note_on_c, 5, 47, 70
16, 428539, Note_on_c, 5, 47, 0
16, 428909, Note_on_c, 5, 47, 65
16, 429029, Note_on_c, 5, 47, 0
16, 429378, Note_on_c, 5, 47, 68
16, 429498, Note_on_c, 5, 47, 0
16, 429869, Note_on_c, 5, 47, 66
16, 429989, Note_on_c, 5, 47, 0
16, 430324, Note_on_c, 5, 47, 69
16, 430444, Note_on_c, 5, 47, 0
16, 430817, Note_on_c, 5, 47, 72
16, 430937, Note_on_c, 5, 47, 0
16, 431302, Note_on_c, 5, 47, 83
16, 431422, Note_on_c, 5, 47, 0
16, 431788, Note_on_c, 5, 47, 77
16, 432028, Note_on_c, 5, 47, 0
16, 432242, Note_on_c, 5, 47, 79
16, 432482, Note_on_c, 5, 47, 0
16, 432748, Note_on_c, 5, 43, 84
16, 432988, Note_on_c, 5, 43, 0
16, 433201, Note_on_c, 5, 43, 84
16, 433441, Note_on_c, 5, 43, 0
16, 433708, Note_on_c, 5, 43, 84
16, 433948, Note_on_c, 5, 43, 0
16, 434169, Note_on_c, 5, 43, 78
16, 434409, Note_on_c, 5, 43, 0
16, 434642, Note_on_c, 5, 43, 70
16, 434882, Note_on_c, 5, 43, 0
16, 435136, Note_on_c, 5, 43, 80
16, 435376, Note_on_c, 5, 43, 0
16, 435618, Note_on_c, 5, 43, 79
16, 435858, Note_on_c, 5, 43, 0
16, 436086, Note_on_c, 5, 43, 66
16, 436326, Note_on_c, 5, 43, 0
16, 436586, Note_on_c, 5, 43, 79
16, 436826, Note_on_c, 5, 43, 0
16, 437050, Note_on_c, 5, 43, 84
16, 437290, Note_on_c, 5, 43, 0
16, 437539, Note_on_c, 5, 43, 70
16, 437779, Note_on_c, 5, 43, 0
16, 448579, Note_on_c, 5, 40, 82
16, 449059, Note_on_c, 5, 40, 0
16, 449061, Note_on_c, 5, 41, 66
16, 449181, Note_on_c, 5, 41, 0
16, 450501, Note_on_c, 5, 40, 81
16, 450960, Note_on_c, 5, 41, 68
16, 450981, Note_on_c, 5, 40, 0
16, 451440, Note_on_c, 5, 41, 0
16, 451469, Note_on_c, 5, 44, 68
16, 451829, Note_on_c, 5, 44, 0
16, 452421, Note_on_c, 5, 40, 84
16, 452882, Note_on_c, 5, 41, 67
16, 452901, Note_on_c, 5, 40, 0
16, 453002, Note_on_c, 5, 41, 0
16, 453849, Note_on_c, 5, 41, 75
16, 454321, Note_on_c, 5, 44, 70
16, 454329, Note_on_c, 5, 41, 0
16, 454681, Note_on_c, 5, 44, 0
16, 455776, Note_on_c, 5, 41, 85
16, 456249, Note_on_c, 5, 44, 76
16, 456256, Note_on_c, 5, 41, 0
16, 456609, Note_on_c, 5, 44, 0
16, 456740, Note_on_c, 5, 41, 68
16, 457220, Note_on_c, 5, 41, 0
16, 457228, Note_on_c, 5, 40, 79
16, 457588, Note_on_c, 5, 40, 0
16, 491300, Note_on_c, 5, 51, 105
16, 491336, Note_on_c, 5, 51, 0
16, 491548, Note_on_c, 5, 61, 115
16, 491655, Note_on_c, 5, 61, 0
16, 492135, Note_on_c, 5, 61, 118
16, 492188, Note_on_c, 5, 61, 0
16, 492250, Note_on_c, 5, 61, 106
16, 492303, Note_on_c, 5, 61, 0
16, 492380, Note_on_c, 5, 60, 116
16, 492433, Note_on_c, 5, 60, 0
16, 492481, Note_on_c, 5, 61, 102
16, 492534, Note_on_c, 5, 61, 0
16, 492742, Note_on_c, 5, 51, 112
16, 492778, Note_on_c, 5, 51, 0
16, 493588, Note_on_c, 5, 61, 115
16, 493641, Note_on_c, 5, 61, 0
16, 493700, Note_on_c, 5, 61, 103
16, 493753, Note_on_c, 5, 61, 0
16, 493809, Note_on_c, 5, 60, 103
16, 493862, Note_on_c, 5, 60, 0
16, 493933, Note_on_c, 5, 61, 113
16, 493986, Note_on_c, 5, 61, 0
16, 494163, Note_on_c, 5, 61, 117
16, 494270, Note_on_c, 5, 61, 0
16, 495495, Note_on_c, 5, 51, 109
16, 495548, Note_on_c, 5, 51, 0
16, 496202, Note_on_c, 5, 61, 102
16, 496255, Note_on_c, 5, 61, 0
16, 496336, Note_on_c, 5, 61, 100
16, 496389, Note_on_c, 5, 61, 0
16, 496465, Note_on_c, 5, 60, 110
16, 496518, Note_on_c, 5, 60, 0
16, 496578, Note_on_c, 5, 61, 109
16, 496631, Note_on_c, 5, 61, 0
16, 498007, Note_on_c, 5, 51, 110
16, 498060, Note_on_c, 5, 51, 0
16, 498733, Note_on_c, 5, 61, 110
16, 498786, Note_on_c, 5, 61, 0
16, 498850, Note_on_c, 5, 61, 116
16, 498903, Note_on_c, 5, 61, 0
16, 498983, Note_on_c, 5, 60, 101
16, 499036, Note_on_c, 5, 60, 0
16, 499091, Note_on_c, 5, 61, 113
16, 499144, Note_on_c, 5, 61, 0
16, 499333, Note_on_c, 5, 51, 111
16, 499440, Note_on_c, 5, 51, 0
16, 499702, Note_on_c, 5, 61, 105
16, 499755, Note_on_c, 5, 61, 0
16, 499933, Note_on_c, 5, 61, 118
16, 500040, Note_on_c, 5, 61, 0
16, 500292, Note_on_c, 5, 61, 118
16, 500345, Note_on_c, 5, 61, 0
16, 500412, Note_on_c, 5, 60, 116
16, 500465, Note_on_c, 5, 60, 0
16, 500534, Note_on_c, 5, 61, 103
16, 500587, Note_on_c, 5, 61, 0
16, 500768, Note_on_c, 5, 61, 107
16, 500821, Note_on_c, 5, 61, 0
16, 501013, Note_on_c, 5, 61, 103
16, 501066, Note_on_c, 5, 61, 0
16, 501135, Note_on_c, 5, 60, 104
16, 501188, Note_on_c, 5, 60, 0
16, 501264, Note_on_c, 5, 61, 104
16, 501317, Note_on_c, 5, 61, 0
16, 501488, Note_on_c, 5, 61, 109
16, 501595, Note_on_c, 5, 61, 0
16, 501840, Note_on_c, 5, 61, 109
16, 501893, Note_on_c, 5, 61, 0
16, 502103, Note_on_c, 5, 61, 110
16, 502210, Note_on_c, 5, 61, 0
16, 502457, Note_on_c, 5, 61, 110
16, 502510, Note_on_c, 5, 61, 0
16, 502563, Note_on_c, 5, 60, 120
16, 502616, Note_on_c, 5, 60, 0
16, 502701, Note_on_c, 5, 61, 113
16, 502754, Note_on_c, 5, 61, 0
16, 531380, Note_on_c, 5, 38, 108
16, 531500, Note_on_c, 5, 38, 0
16, 531604, Note_on_c, 5, 38, 105
16, 531724, Note_on_c, 5, 38, 0
16, 531866, Note_on_c, 5, 38, 96
16, 531986, Note_on_c, 5, 38, 0
16, 532333, Note_on_c, 5, 38, 109
16, 532453, Note_on_c, 5, 38, 0
16, 532563, Note_on_c, 5, 38, 98
16, 532683, Note_on_c, 5, 38, 0
16, 532826, Note_on_c, 5, 38, 91
16, 532946, Note_on_c, 5, 38, 0
16, 533045, Note_on_c, 5, 38, 111
16, 533165, Note_on_c, 5, 38, 0
16, 533297, Note_on_c, 5, 38, 103
16, 533417, Note_on_c, 5, 38, 0
16, 533779, Note_on_c, 5, 38, 97
16, 533899, Note_on_c, 5, 38, 0
16, 534262, Note_on_c, 5, 38, 108
16, 534382, Note_on_c, 5, 38, 0
16, 534494, Note_on_c, 5, 40, 107
16, 534614, Note_on_c, 5, 40, 0
16, 534727, Note_on_c, 5, 38, 92
16, 534847, Note_on_c, 5, 38, 0
16, 535206, Note_on_c, 5, 38, 91
16, 535326, Note_on_c, 5, 38, 0
16, 535687, Note_on_c, 5, 38, 92
16, 535807, Note_on_c, 5, 38, 0
16, 546017, Note_on_c, 5, 42, 70
16, 546137, Note_on_c, 5, 42, 0
16, 546261, Note_on_c, 5, 42, 72
16, 546381, Note_on_c, 5, 42, 0
16, 546746, Note_on_c, 5, 42, 82
16, 546866, Note_on_c, 5, 42, 0
16, 547211, Note_on_c, 5, 42, 75
16, 547331, Note_on_c, 5, 42, 0
16, 547462, Note_on_c, 5, 42, 75
16, 547582, Note_on_c, 5, 42, 0
16, 547705, Note_on_c, 5, 41, 84
16, 547825, Note_on_c, 5, 41, 0
16, 548186, Note_on_c, 5, 41, 70
16, 548306, Note_on_c, 5, 41, 0
16, 548667, Note_on_c, 5, 41, 69
16, 548787, Note_on_c, 5, 41, 0
16, 549126, Note_on_c, 5, 42, 77
16, 549246, Note_on_c, 5, 42, 0
16, 549375, Note_on_c, 5, 44, 83
16, 549495, Note_on_c, 5, 44, 0
16, 549868, Note_on_c, 5, 47, 81
16, 549988, Note_on_c, 5, 47, 0
16, 550328, Note_on_c, 5, 47, 76
16, 550448, Note_on_c, 5, 47, 0
16, 550562, Note_on_c, 5, 47, 75
16, 550682, Note_on_c, 5, 47, 0
16, 550800, Note_on_c, 5, 48, 109
16, 550920, Note_on_c, 5, 48, 0
16, 551178, Note_on_c, 5, 50, 114
16, 551214, Note_on_c, 5, 50, 0
16, 551525, Note_on_c, 5, 50, 109
16, 551561, Note_on_c, 5, 50, 0
16, 551767, Note_on_c, 5, 60, 110
16, 551874, Note_on_c, 5, 60, 0
16, 552379, Note_on_c, 5, 60, 100
16, 552432, Note_on_c, 5, 60, 0
16, 552504, Note_on_c, 5, 60, 104
16, 552557, Note_on_c, 5, 60, 0
16, 552612, Note_on_c, 5, 59, 112
16, 552665, Note_on_c, 5, 59, 0
16, 552720, Note_on_c, 5, 60, 114
16, 552773, Note_on_c, 5, 60, 0
16, 552981, Note_on_c, 5, 50, 112
16, 553017, Note_on_c, 5, 50, 0
16, 553820, Note_on_c, 5, 60, 105
16, 553873, Note_on_c, 5, 60, 0
16, 553941, Note_on_c, 5, 60, 116
16, 553994, Note_on_c, 5, 60, 0
16, 554055, Note_on_c, 5, 59, 113
16, 554108, Note_on_c, 5, 59, 0
16, 554168, Note_on_c, 5, 60, 120
16, 554221, Note_on_c, 5, 60, 0
16, 554420, Note_on_c, 5, 60, 116
16, 554527, Note_on_c, 5, 60, 0
16, 555742, Note_on_c, 5, 50, 118
16, 555795, Note_on_c, 5, 50, 0
16, 556447, Note_on_c, 5, 60, 114
16, 556500, Note_on_c, 5, 60, 0
16, 556564, Note_on_c, 5, 60, 107
16, 556617, Note_on_c, 5, 60, 0
16, 556690, Note_on_c, 5, 59, 110
16, 556743, Note_on_c, 5, 59, 0
16, 556823, Note_on_c, 5, 60, 106
16, 556876, Note_on_c, 5, 60, 0
16, 558247, Note_on_c, 5, 50, 115
16, 558300, Note_on_c, 5, 50, 0
16, 558978, Note_on_c, 5, 60, 109
16, 559031, Note_on_c, 5, 60, 0
16, 559095, Note_on_c, 5, 60, 100
16, 559148, Note_on_c, 5, 60, 0
16, 559202, Note_on_c, 5, 59, 118
16, 559255, Note_on_c, 5, 59, 0
16, 559340, Note_on_c, 5, 60, 110
16, 559393, Note_on_c, 5, 60, 0
16, 559581, Note_on_c, 5, 60, 116
16, 559688, Note_on_c, 5, 60, 0
16, 559935, Note_on_c, 5, 50, 103
16, 559988, Note_on_c, 5, 50, 0
16, 560166, Note_on_c, 5, 60, 119
16, 560273, Note_on_c, 5, 60, 0
16, 560532, Note_on_c, 5, 60, 112
16, 560585, Note_on_c, 5, 60, 0
16, 560646, Note_on_c, 5, 59, 107
16, 560699, Note_on_c, 5, 59, 0
16, 560760, Note_on_c, 5, 60, 117
16, 560813, Note_on_c, 5, 60, 0
16, 561007, Note_on_c, 5, 60, 114
16, 561060, Note_on_c, 5, 60, 0
16, 561241, Note_on_c, 5, 60, 103
16, 561294, Note_on_c, 5, 60, 0
16, 561371, Note_on_c, 5, 59, 116
16, 561424, Note_on_c, 5, 59, 0
16, 561491, Note_on_c, 5, 60, 103
16, 561544, Note_on_c, 5, 60, 0
16, 561743, Note_on_c, 5, 60, 120
16, 561850, Note_on_c, 5, 60, 0
16, 562101, Note_on_c, 5, 60, 104
16, 562154, Note_on_c, 5, 60, 0
16, 562330, Note_on_c, 5, 60, 100
16, 562437, Note_on_c, 5, 60, 0
16, 562687, Note_on_c, 5, 60, 108
16, 562740, Note_on_c, 5, 60, 0
16, 562808, Note_on_c, 5, 59, 111
16, 562861, Note_on_c, 5, 59, 0
16, 562939, Note_on_c, 5, 60, 115
16, 562992, Note_on_c, 5, 60, 0
16, 588001, Note_on_c, 5, 60, 99
16, 588061, Note_on_c, 5, 60, 0
16, 588066, Note_on_c, 5, 63, 94
16, 588126, Note_on_c, 5, 63, 0
16, 588130, Note_on_c, 5, 65, 107
16, 588186, Note_on_c, 5, 67, 94
16, 588190, Note_on_c, 5, 65, 0
16, 588246, Note_on_c, 5, 67, 0
16, 588268, Note_on_c, 5, 69, 95
16, 588327, Note_on_c, 5, 70, 96
16, 588328, Note_on_c, 5, 69, 0
16, 588380, Note_on_c, 5, 72, 93
16, 588387, Note_on_c, 5, 70, 0
16, 588422, Note_on_c, 5, 74, 109
16, 588440, Note_on_c, 5, 72, 0
16, 588482, Note_on_c, 5, 74, 0
16, 588502, Note_on_c, 5, 75, 109
16, 588742, Note_on_c, 5, 75, 0
16, 591388, Note_on_c, 5, 58, 102
16, 591628, Note_on_c, 5, 58, 0
16, 591854, Note_on_c, 5, 60, 102
16, 591900, Note_on_c, 5, 63, 98
16, 591914, Note_on_c, 5, 60, 0
16, 591960, Note_on_c, 5, 63, 0
16, 591978, Note_on_c, 5, 65, 108
16, 592022, Note_on_c, 5, 67, 93
16, 592038, Note_on_c, 5, 65, 0
16, 592082, Note_on_c, 5, 67, 0
16, 592090, Note_on_c, 5, 69, 108
16, 592150, Note_on_c, 5, 69, 0
16, 592159, Note_on_c, 5, 70, 95
16, 592213, Note_on_c, 5, 72, 95
16, 592219, Note_on_c, 5, 70, 0
16, 592273, Note_on_c, 5, 72, 0
16, 592278, Note_on_c, 5, 74, 95
16, 592334, Note_on_c, 5, 75, 92
16, 592338, Note_on_c, 5, 74, 0
16, 592343, Note_on_c, 5, 63, 101
16, 592454, Note_on_c, 5, 75, 0
16, 592463, Note_on_c, 5, 63, 0
16, 593302, Note_on_c, 5, 70, 91
16, 593304, Note_on_c, 5, 58, 111
16, 593422, Note_on_c, 5, 70, 0
16, 593424, Note_on_c, 5, 58, 0
16, 594241, Note_on_c, 5, 63, 109
16, 594481, Note_on_c, 5, 63, 0
16, 595217, Note_on_c, 5, 63, 106
16, 595457, Note_on_c, 5, 63, 0
16, 595706, Note_on_c, 5, 60, 102
16, 595750, Note_on_c, 5, 63, 99
16, 595766, Note_on_c, 5, 60, 0
16, 595810, Note_on_c, 5, 63, 0
16, 595820, Note_on_c, 5, 65, 102
16, 595880, Note_on_c, 5, 65, 0
16, 595887, Note_on_c, 5, 67, 108
16, 595935, Note_on_c, 5, 69, 107
16, 595947, Note_on_c, 5, 67, 0
16, 595995, Note_on_c, 5, 69, 0
16, 596002, Note_on_c, 5, 70, 109
16, 596061, Note_on_c, 5, 72, 91
16, 596062, Note_on_c, 5, 70, 0
16, 596121, Note_on_c, 5, 72, 0
16, 596127, Note_on_c, 5, 74, 99
16, 596171, Note_on_c, 5, 75, 110
16, 596177, Note_on_c, 5, 58, 100
16, 596187, Note_on_c, 5, 74, 0
16, 596291, Note_on_c, 5, 75, 0
16, 596297, Note_on_c, 5, 58, 0
16, 597121, Note_on_c, 5, 70, 102
16, 597361, Note_on_c, 5, 70, 0
16, 598091, Note_on_c, 5, 58, 98
16, 598331, Note_on_c, 5, 58, 0
16, 599051, Note_on_c, 5, 63, 101
16, 599291, Note_on_c, 5, 63, 0
16, 602764, Note_on_c, 5, 61, 106
16, 602769, Note_on_c, 5, 66, 106
16, 603004, Note_on_c, 5, 61, 0
16, 603009, Note_on_c, 5, 66, 0
16, 603014, Note_on_c, 5, 67, 104
16, 603023, Note_on_c, 5, 62, 115
16, 603134, Note_on_c, 5, 67, 0
16, 603143, Note_on_c, 5, 62, 0
16, 604683, Note_on_c, 5, 51, 90
16, 604803, Note_on_c, 5, 51, 0
16, 604942, Note_on_c, 5, 40, 89
16, 605062, Note_on_c, 5, 40, 0
16, 605183, Note_on_c, 5, 46, 79
16, 605303, Note_on_c, 5, 46, 0
16, 607085, Note_on_c, 5, 51, 96
16, 607205, Note_on_c, 5, 51, 0
16, 607324, Note_on_c, 5, 40, 88
16, 607444, Note_on_c, 5, 40, 0
16, 607581, Note_on_c, 5, 46, 96
16, 607701, Note_on_c, 5, 46, 0
16, 609490, Note_on_c, 5, 51, 83
16, 609610, Note_on_c, 5, 51, 0
16, 609735, Note_on_c, 5, 40, 80
16, 609855, Note_on_c, 5, 40, 0
16, 609966, Note_on_c, 5, 46, 96
16, 610086, Note_on_c, 5, 46, 0
16, 610943, Note_on_c, 5, 51, 88
16, 611063, Note_on_c, 5, 51, 0
16, 611179, Note_on_c, 5, 40, 98
16, 611299, Note_on_c, 5, 40, 0
16, 611414, Note_on_c, 5, 46, 85
16, 611534, Note_on_c, 5, 46, 0
16, 613334, Note_on_c, 5, 51, 80
16, 613454, Note_on_c, 5, 51, 0
16, 613560, Note_on_c, 5, 40, 91
16, 613680, Note_on_c, 5, 40, 0
16, 613804, Note_on_c, 5, 46, 96
16, 613924, Note_on_c, 5, 46, 0
16, 615731, Note_on_c, 5, 51, 83
16, 615851, Note_on_c, 5, 51, 0
16, 615988, Note_on_c, 5, 40, 93
16, 616108, Note_on_c, 5, 40, 0
16, 616223, Note_on_c, 5, 46, 88
16, 616343, Note_on_c, 5, 46, 0
16, 619080, Note_on_c, 5, 51, 95
16, 619200, Note_on_c, 5, 51, 0
16, 619343, Note_on_c, 5, 40, 97
16, 619463, Note_on_c, 5, 40, 0
16, 619575, Note_on_c, 5, 46, 91
16, 619590, Note_on_c, 5, 46, 0
16, 621490, Note_on_c, 5, 51, 91
16, 621610, Note_on_c, 5, 51, 0
16, 621748, Note_on_c, 5, 40, 79
16, 621868, Note_on_c, 5, 40, 0
16, 621984, Note_on_c, 5, 46, 95
16, 621999, Note_on_c, 5, 46, 0
16, 623906, Note_on_c, 5, 51, 83
16, 624026, Note_on_c, 5, 51, 0
16, 624139, Note_on_c, 5, 40, 88
16, 624259, Note_on_c, 5, 40, 0
16, 624373, Note_on_c, 5, 46, 78
16, 624388, Note_on_c, 5, 46, 0
16, 626294, Note_on_c, 5, 51, 96
16, 626414, Note_on_c, 5, 51, 0
16, 626526, Note_on_c, 5, 40, 89
16, 626646, Note_on_c, 5, 40, 0
16, 626760, Note_on_c, 5, 46, 85
16, 626775, Note_on_c, 5, 46, 0
16, 633130, Note_on_c, 5, 57, 85
16, 633190, Note_on_c, 5, 57, 0
16, 633371, Note_on_c, 5, 57, 93
16, 633431, Note_on_c, 5, 57, 0
16, 634100, Note_on_c, 5, 48, 98
16, 634108, Note_on_c, 5, 52, 94
16, 634160, Note_on_c, 5, 48, 0
16, 634168, Note_on_c, 5, 52, 0
16, 634219, Note_on_c, 5, 49, 79
16, 634224, Note_on_c, 5, 46, 88
16, 634279, Note_on_c, 5, 49, 0
16, 634284, Note_on_c, 5, 46, 0
16, 634330, Note_on_c, 5, 45, 85
16, 634331, Note_on_c, 5, 49, 95
16, 634390, Note_on_c, 5, 45, 0
16, 634391, Note_on_c, 5, 49, 0
16, 634447, Note_on_c, 5, 43, 95
16, 634451, Note_on_c, 5, 46, 95
16, 634507, Note_on_c, 5, 43, 0
16, 634511, Note_on_c, 5, 46, 0
16, 634562, Note_on_c, 5, 42, 87
16, 634563, Note_on_c, 5, 46, 93
16, 634622, Note_on_c, 5, 42, 0
16, 634623, Note_on_c, 5, 46, 0
16, 634811, Note_on_c, 5, 57, 83
16, 634871, Note_on_c, 5, 57, 0
16, 635063, Note_on_c, 5, 57, 82
16, 635123, Note_on_c, 5, 57, 0
16, 635289, Note_on_c, 5, 48, 93
16, 635304, Note_on_c, 5, 52, 93
16, 635349, Note_on_c, 5, 48, 0
16, 635364, Note_on_c, 5, 52, 0
16, 635403, Note_on_c, 5, 46, 88
16, 635419, Note_on_c, 5, 49, 85
16, 635463, Note_on_c, 5, 46, 0
16, 635479, Note_on_c, 5, 49, 0
16, 635522, Note_on_c, 5, 49, 98
16, 635547, Note_on_c, 5, 45, 88
16, 635582, Note_on_c, 5, 49, 0
16, 635607, Note_on_c, 5, 45, 0
16, 635654, Note_on_c, 5, 43, 86
16, 635666, Note_on_c, 5, 46, 81
16, 635714, Note_on_c, 5, 43, 0
16, 635726, Note_on_c, 5, 46, 0
16, 635772, Note_on_c, 5, 42, 80
16, 635778, Note_on_c, 5, 46, 97
16, 635832, Note_on_c, 5, 42, 0
16, 635838, Note_on_c, 5, 46, 0
16, 640346, Note_on_c, 5, 46, 69
16, 640466, Note_on_c, 5, 46, 0
16, 640572, Note_on_c, 5, 61, 75
16, 640619, Note_on_c, 5, 61, 0
16, 640688, Note_on_c, 5, 61, 76
16, 640735, Note_on_c, 5, 61, 0
16, 640930, Note_on_c, 5, 61, 65
16, 640977, Note_on_c, 5, 61, 0
16, 641656, Note_on_c, 5, 46, 85
16, 641776, Note_on_c, 5, 46, 0
16, 641906, Note_on_c, 5, 61, 80
16, 641953, Note_on_c, 5, 61, 0
16, 642023, Note_on_c, 5, 61, 74
16, 642070, Note_on_c, 5, 61, 0
16, 642248, Note_on_c, 5, 61, 73
16, 642295, Note_on_c, 5, 61, 0
16, 642504, Note_on_c, 5, 61, 69
16, 642551, Note_on_c, 5, 61, 0
16, 642621, Note_on_c, 5, 61, 84
16, 642668, Note_on_c, 5, 61, 0
16, 642853, Note_on_c, 5, 61, 78
16, 642900, Note_on_c, 5, 61, 0
16, 643088, Note_on_c, 5, 61, 73
16, 643135, Note_on_c, 5, 61, 0
16, 643223, Note_on_c, 5, 61, 73
16, 643270, Note_on_c, 5, 61, 0
16, 643346, Note_on_c, 5, 61, 77
16, 643393, Note_on_c, 5, 61, 0
16, 643585, Note_on_c, 5, 61, 89
16, 643632, Note_on_c, 5, 61, 0
16, 643811, Note_on_c, 5, 61, 72
16, 643858, Note_on_c, 5, 61, 0
16, 643945, Note_on_c, 5, 61, 86
16, 643992, Note_on_c, 5, 61, 0
16, 644170, Note_on_c, 5, 61, 71
16, 644217, Note_on_c, 5, 61, 0
16, 644401, Note_on_c, 5, 67, 70
16, 644448, Note_on_c, 5, 67, 0
16, 644523, Note_on_c, 5, 61, 80
16, 644570, Note_on_c, 5, 61, 0
16, 644659, Note_on_c, 5, 61, 71
16, 644706, Note_on_c, 5, 61, 0
16, 644888, Note_on_c, 5, 61, 74
16, 644935, Note_on_c, 5, 61, 0
16, 645131, Note_on_c, 5, 61, 76
16, 645178, Note_on_c, 5, 61, 0
16, 645256, Note_on_c, 5, 45, 103
16, 645376, Note_on_c, 5, 45, 0
16, 645733, Note_on_c, 5, 46, 73
16, 645853, Note_on_c, 5, 46, 0
16, 645972, Note_on_c, 5, 61, 80
16, 646019, Note_on_c, 5, 61, 0
16, 646083, Note_on_c, 5, 61, 71
16, 646130, Note_on_c, 5, 61, 0
16, 646216, Note_on_c, 5, 61, 66
16, 646263, Note_on_c, 5, 61, 0
16, 646455, Note_on_c, 5, 61, 83
16, 646502, Note_on_c, 5, 61, 0
16, 646579, Note_on_c, 5, 45, 109
16, 646699, Note_on_c, 5, 45, 0
16, 647060, Note_on_c, 5, 46, 75
16, 647180, Note_on_c, 5, 46, 0
16, 647768, Note_on_c, 5, 46, 75
16, 647884, Note_on_c, 5, 45, 111
16, 647888, Note_on_c, 5, 46, 0
16, 648004, Note_on_c, 5, 45, 0
16, 648257, Note_on_c, 5, 45, 103
16, 648377, Note_on_c, 5, 45, 0
16, 648604, Note_on_c, 5, 46, 80
16, 648724, Note_on_c, 5, 46, 0
16, 649347, Note_on_c, 5, 58, 108
16, 649467, Note_on_c, 5, 58, 0
16, 649574, Note_on_c, 5, 46, 82
16, 649694, Note_on_c, 5, 46, 0
16, 649708, Note_on_c, 5, 45, 107
16, 649828, Note_on_c, 5, 45, 0
16, 650169, Note_on_c, 5, 46, 65
16, 650289, Note_on_c, 5, 46, 0
16, 650885, Note_on_c, 5, 58, 105
16, 651005, Note_on_c, 5, 58, 0
16, 651140, Note_on_c, 5, 46, 67
16, 651260, Note_on_c, 5, 46, 0
16, 651853, Note_on_c, 5, 58, 107
16, 651973, Note_on_c, 5, 58, 0
16, 652567, Note_on_c, 5, 58, 107
16, 652687, Note_on_c, 5, 58, 0
16, 652814, Note_on_c, 5, 46, 69
16, 652934, Note_on_c, 5, 46, 0
16, 653530, Note_on_c, 5, 58, 95
16, 653650, Note_on_c, 5, 58, 0
16, 654262, Note_on_c, 5, 58, 93
16, 654382, Note_on_c, 5, 58, 0
16, 654488, Note_on_c, 5, 46, 69
16, 654608, Note_on_c, 5, 46, 0
16, 654866, Note_on_c, 5, 63, 75
16, 654926, Note_on_c, 5, 63, 0
16, 654974, Note_on_c, 5, 67, 76
16, 655034, Note_on_c, 5, 67, 0
16, 655088, Note_on_c, 5, 63, 78
16, 655148, Note_on_c, 5, 63, 0
16, 655347, Note_on_c, 5, 70, 110
16, 655407, Note_on_c, 5, 70, 0
16, 658107, Note_on_c, 5, 38, 117
16, 658160, Note_on_c, 5, 38, 0
16, 658160, End_track
17, 0, Start_track
17, 0, Title_t, "Trombe piccole"
17, 0, MIDI_port, 0
17, 0, Program_c, 6, 56
17, 0, Control_c, 6, 11, 127
17, 0, Control_c, 6, 7, 108
17, 0, Control_c, 6, 10, 64
17, 0, Control_c, 6, 91, 127
17, 10588, Note_on_c, 6, 70, 80
17, 10804, Note_on_c, 6, 72, 72
17, 10828, Note_on_c, 6, 70, 0
17, 11044, Note_on_c, 6, 72, 0
17, 11049, Note_on_c, 6, 73, 60
17, 11289, Note_on_c, 6, 73, 0
17, 11291, Note_on_c, 6, 75, 50
17, 11531, Note_on_c, 6, 75, 0
17, 11545, Note_on_c, 6, 77, 51
17, 11777, Note_on_c, 6, 81, 47
17, 11785, Note_on_c, 6, 77, 0
17, 12002, Note_on_c, 6, 82, 46
17, 12017, Note_on_c, 6, 81, 0
17, 12242, Note_on_c, 6, 82, 0
17, 15372, Note_on_c, 6, 70, 69
17, 15605, Note_on_c, 6, 72, 65
17, 15612, Note_on_c, 6, 70, 0
17, 15844, Note_on_c, 6, 73, 58
17, 15845, Note_on_c, 6, 72, 0
17, 16080, Note_on_c, 6, 75, 65
17, 16084, Note_on_c, 6, 73, 0
17, 16320, Note_on_c, 6, 75, 0
17, 16339, Note_on_c, 6, 77, 48
17, 16568, Note_on_c, 6, 81, 47
17, 16579, Note_on_c, 6, 77, 0
17, 16808, Note_on_c, 6, 81, 0
17, 16811, Note_on_c, 6, 82, 34
17, 17051, Note_on_c, 6, 82, 0
17, 19685, Note_on_c, 6, 70, 82
17, 19925, Note_on_c, 6, 70, 0
17, 19937, Note_on_c, 6, 72, 60
17, 20163, Note_on_c, 6, 73, 57
17, 20177, Note_on_c, 6, 72, 0
17, 20403, Note_on_c, 6, 73, 0
17, 20411, Note_on_c, 6, 75, 57
17, 20651, Note_on_c, 6, 75, 0
17, 20660, Note_on_c, 6, 77, 56
17, 20885, Note_on_c, 6, 81, 54
17, 20900, Note_on_c, 6, 77, 0
17, 21125, Note_on_c, 6, 81, 0
17, 21148, Note_on_c, 6, 82, 38
17, 21388, Note_on_c, 6, 82, 0
17, 208340, Note_on_c, 6, 75, 106
17, 208420, Note_on_c, 6, 75, 0
17, 208482, Note_on_c, 6, 73, 105
17, 208562, Note_on_c, 6, 73, 0
17, 208651, Note_on_c, 6, 74, 106
17, 208731, Note_on_c, 6, 74, 0
17, 208802, Note_on_c, 6, 75, 117
17, 208882, Note_on_c, 6, 75, 0
17, 209768, Note_on_c, 6, 69, 107
17, 209848, Note_on_c, 6, 69, 0
17, 209929, Note_on_c, 6, 65, 118
17, 210009, Note_on_c, 6, 65, 0
17, 210102, Note_on_c, 6, 64, 118
17, 210182, Note_on_c, 6, 64, 0
17, 210243, Note_on_c, 6, 75, 113
17, 210323, Note_on_c, 6, 75, 0
17, 216000, Program_c, 6, 56
17, 216747, Note_on_c, 6, 78, 98
17, 216854, Note_on_c, 6, 78, 0
17, 217940, Note_on_c, 6, 78, 93
17, 218047, Note_on_c, 6, 78, 0
17, 221296, Note_on_c, 6, 78, 108
17, 221403, Note_on_c, 6, 78, 0
17, 222972, Note_on_c, 6, 78, 110
17, 223079, Note_on_c, 6, 78, 0
17, 224179, Note_on_c, 6, 78, 108
17, 224286, Note_on_c, 6, 78, 0
17, 224661, Note_on_c, 6, 69, 87
17, 224741, Note_on_c, 6, 69, 0
17, 224811, Note_on_c, 6, 65, 90
17, 224891, Note_on_c, 6, 65, 0
17, 224971, Note_on_c, 6, 64, 94
17, 225051, Note_on_c, 6, 64, 0
17, 225142, Note_on_c, 6, 75, 90
17, 225195, Note_on_c, 6, 75, 0
17, 228961, Note_on_c, 6, 78, 96
17, 229068, Note_on_c, 6, 78, 0
17, 229453, Note_on_c, 6, 69, 85
17, 229533, Note_on_c, 6, 69, 0
17, 229610, Note_on_c, 6, 65, 81
17, 229690, Note_on_c, 6, 65, 0
17, 229768, Note_on_c, 6, 64, 90
17, 229848, Note_on_c, 6, 64, 0
17, 229937, Note_on_c, 6, 75, 92
17, 229990, Note_on_c, 6, 75, 0
17, 234020, Note_on_c, 6, 78, 80
17, 234127, Note_on_c, 6, 78, 0
17, 234493, Note_on_c, 6, 69, 93
17, 234573, Note_on_c, 6, 69, 0
17, 234651, Note_on_c, 6, 65, 89
17, 234731, Note_on_c, 6, 65, 0
17, 234821, Note_on_c, 6, 64, 91
17, 234901, Note_on_c, 6, 64, 0
17, 234972, Note_on_c, 6, 75, 85
17, 235025, Note_on_c, 6, 75, 0
17, 240508, Note_on_c, 6, 78, 98
17, 240615, Note_on_c, 6, 78, 0
17, 243840, Note_on_c, 6, 78, 109
17, 243947, Note_on_c, 6, 78, 0
17, 245064, Note_on_c, 6, 78, 101
17, 245171, Note_on_c, 6, 78, 0
17, 246742, Note_on_c, 6, 78, 111
17, 246849, Note_on_c, 6, 78, 0
17, 247921, Note_on_c, 6, 78, 99
17, 248028, Note_on_c, 6, 78, 0
17, 248654, Note_on_c, 6, 77, 95
17, 248682, Note_on_c, 6, 77, 0
17, 248701, Note_on_c, 6, 77, 94
17, 248737, Note_on_c, 6, 77, 0
17, 248756, Note_on_c, 6, 77, 99
17, 248800, Note_on_c, 6, 77, 0
17, 248820, Note_on_c, 6, 77, 100
17, 248846, Note_on_c, 6, 77, 0
17, 248865, Note_on_c, 6, 77, 98
17, 248909, Note_on_c, 6, 77, 0
17, 248928, Note_on_c, 6, 77, 111
17, 248967, Note_on_c, 6, 77, 0
17, 248986, Note_on_c, 6, 77, 94
17, 249018, Note_on_c, 6, 77, 0
17, 249037, Note_on_c, 6, 77, 110
17, 249064, Note_on_c, 6, 77, 0
17, 249084, Note_on_c, 6, 77, 94
17, 249113, Note_on_c, 6, 77, 0
17, 249132, Note_on_c, 6, 77, 95
17, 249372, Note_on_c, 6, 77, 0
17, 250800, Note_on_c, 6, 77, 109
17, 250852, Note_on_c, 6, 77, 0
17, 250878, Note_on_c, 6, 77, 107
17, 250901, Note_on_c, 6, 77, 0
17, 250921, Note_on_c, 6, 77, 95
17, 250946, Note_on_c, 6, 77, 0
17, 250965, Note_on_c, 6, 77, 97
17, 251012, Note_on_c, 6, 77, 0
17, 251031, Note_on_c, 6, 77, 103
17, 251072, Note_on_c, 6, 77, 0
17, 251091, Note_on_c, 6, 77, 100
17, 251109, Note_on_c, 6, 77, 0
17, 251129, Note_on_c, 6, 77, 99
17, 251175, Note_on_c, 6, 77, 0
17, 251194, Note_on_c, 6, 77, 100
17, 251216, Note_on_c, 6, 77, 0
17, 251236, Note_on_c, 6, 77, 91
17, 251289, Note_on_c, 6, 77, 0
17, 251308, Note_on_c, 6, 77, 95
17, 251548, Note_on_c, 6, 77, 0
17, 253457, Note_on_c, 6, 77, 104
17, 253502, Note_on_c, 6, 77, 0
17, 253521, Note_on_c, 6, 77, 95
17, 253551, Note_on_c, 6, 77, 0
17, 253570, Note_on_c, 6, 77, 100
17, 253582, Note_on_c, 6, 77, 0
17, 253601, Note_on_c, 6, 77, 103
17, 253643, Note_on_c, 6, 77, 0
17, 253662, Note_on_c, 6, 77, 100
17, 253690, Note_on_c, 6, 77, 0
17, 253709, Note_on_c, 6, 77, 101
17, 253742, Note_on_c, 6, 77, 0
17, 253761, Note_on_c, 6, 77, 91
17, 253808, Note_on_c, 6, 77, 0
17, 253827, Note_on_c, 6, 77, 91
17, 253848, Note_on_c, 6, 77, 0
17, 253868, Note_on_c, 6, 77, 109
17, 253907, Note_on_c, 6, 77, 0
17, 253926, Note_on_c, 6, 77, 106
17, 254166, Note_on_c, 6, 77, 0
17, 263534, Note_on_c, 6, 82, 103
17, 263614, Note_on_c, 6, 82, 0
17, 263704, Note_on_c, 6, 84, 102
17, 263784, Note_on_c, 6, 84, 0
17, 263848, Note_on_c, 6, 82, 93
17, 263928, Note_on_c, 6, 82, 0
17, 264027, Note_on_c, 6, 80, 98
17, 264107, Note_on_c, 6, 80, 0
17, 264185, Note_on_c, 6, 78, 108
17, 264265, Note_on_c, 6, 78, 0
17, 264339, Note_on_c, 6, 80, 93
17, 264419, Note_on_c, 6, 80, 0
17, 290174, Note_on_c, 6, 69, 80
17, 290333, Note_on_c, 6, 69, 0
17, 290333, Note_on_c, 6, 65, 93
17, 290493, Note_on_c, 6, 65, 0
17, 290504, Note_on_c, 6, 64, 91
17, 290664, Note_on_c, 6, 64, 0
17, 291368, Note_on_c, 6, 78, 101
17, 291475, Note_on_c, 6, 78, 0
17, 292572, Note_on_c, 6, 78, 95
17, 292679, Note_on_c, 6, 78, 0
17, 295948, Note_on_c, 6, 78, 98
17, 296055, Note_on_c, 6, 78, 0
17, 297612, Note_on_c, 6, 78, 94
17, 297719, Note_on_c, 6, 78, 0
17, 298810, Note_on_c, 6, 78, 93
17, 298917, Note_on_c, 6, 78, 0
17, 301450, Note_on_c, 6, 78, 111
17, 301557, Note_on_c, 6, 78, 0
17, 304803, Note_on_c, 6, 78, 102
17, 304910, Note_on_c, 6, 78, 0
17, 306003, Note_on_c, 6, 78, 94
17, 306110, Note_on_c, 6, 78, 0
17, 307685, Note_on_c, 6, 78, 106
17, 307792, Note_on_c, 6, 78, 0
17, 308886, Note_on_c, 6, 78, 111
17, 308993, Note_on_c, 6, 78, 0
17, 323289, Note_on_c, 6, 74, 84
17, 323649, Note_on_c, 6, 74, 0
17, 340565, Note_on_c, 6, 72, 93
17, 341023, Note_on_c, 6, 72, 0
17, 341042, Note_on_c, 6, 72, 86
17, 341522, Note_on_c, 6, 72, 0
17, 341545, Note_on_c, 6, 74, 82
17, 341905, Note_on_c, 6, 74, 0
17, 342483, Note_on_c, 6, 74, 85
17, 342843, Note_on_c, 6, 74, 0
17, 344893, Note_on_c, 6, 74, 79
17, 345253, Note_on_c, 6, 74, 0
17, 345865, Note_on_c, 6, 74, 94
17, 346225, Note_on_c, 6, 74, 0
17, 346817, Note_on_c, 6, 75, 89
17, 347177, Note_on_c, 6, 75, 0
17, 347292, Note_on_c, 6, 74, 87
17, 347652, Note_on_c, 6, 74, 0
17, 349705, Note_on_c, 6, 79, 82
17, 350065, Note_on_c, 6, 79, 0
17, 350185, Note_on_c, 6, 78, 97
17, 350545, Note_on_c, 6, 78, 0
17, 350665, Note_on_c, 6, 76, 87
17, 351025, Note_on_c, 6, 76, 0
17, 351138, Note_on_c, 6, 72, 95
17, 351498, Note_on_c, 6, 72, 0
17, 384263, Note_on_c, 6, 74, 96
17, 384503, Note_on_c, 6, 74, 0
17, 385200, Note_on_c, 6, 74, 83
17, 385440, Note_on_c, 6, 74, 0
17, 421213, Note_on_c, 6, 49, 68
17, 421573, Note_on_c, 6, 49, 0
17, 421696, Note_on_c, 6, 47, 72
17, 421876, Note_on_c, 6, 47, 0
17, 421925, Note_on_c, 6, 49, 80
17, 421985, Note_on_c, 6, 49, 0
17, 422056, Note_on_c, 6, 47, 66
17, 422116, Note_on_c, 6, 47, 0
17, 422174, Note_on_c, 6, 46, 70
17, 422534, Note_on_c, 6, 46, 0
17, 422658, Note_on_c, 6, 44, 65
17, 422838, Note_on_c, 6, 44, 0
17, 422886, Note_on_c, 6, 46, 68
17, 422946, Note_on_c, 6, 46, 0
17, 423009, Note_on_c, 6, 47, 66
17, 423069, Note_on_c, 6, 47, 0
17, 423138, Note_on_c, 6, 44, 69
17, 423498, Note_on_c, 6, 44, 0
17, 423609, Note_on_c, 6, 44, 72
17, 423789, Note_on_c, 6, 44, 0
17, 423858, Note_on_c, 6, 47, 83
17, 424038, Note_on_c, 6, 47, 0
17, 424087, Note_on_c, 6, 49, 77
17, 424447, Note_on_c, 6, 49, 0
17, 424582, Note_on_c, 6, 47, 79
17, 424942, Note_on_c, 6, 47, 0
17, 425067, Note_on_c, 6, 49, 84
17, 425247, Note_on_c, 6, 49, 0
17, 425306, Note_on_c, 6, 47, 84
17, 425486, Note_on_c, 6, 47, 0
17, 425546, Note_on_c, 6, 46, 84
17, 425906, Note_on_c, 6, 46, 0
17, 426027, Note_on_c, 6, 44, 78
17, 426207, Note_on_c, 6, 44, 0
17, 426268, Note_on_c, 6, 46, 70
17, 426328, Note_on_c, 6, 46, 0
17, 426361, Note_on_c, 6, 48, 80
17, 426421, Note_on_c, 6, 48, 0
17, 426505, Note_on_c, 6, 44, 79
17, 426985, Note_on_c, 6, 44, 0
17, 438007, Note_on_c, 6, 61, 92
17, 438367, Note_on_c, 6, 61, 0
17, 438509, Note_on_c, 6, 68, 105
17, 438869, Note_on_c, 6, 68, 0
17, 438984, Note_on_c, 6, 59, 110
17, 439344, Note_on_c, 6, 59, 0
17, 439449, Note_on_c, 6, 66, 96
17, 439809, Note_on_c, 6, 66, 0
17, 439947, Note_on_c, 6, 58, 108
17, 440307, Note_on_c, 6, 58, 0
17, 440412, Note_on_c, 6, 65, 92
17, 440772, Note_on_c, 6, 65, 0
17, 440882, Note_on_c, 6, 61, 107
17, 441242, Note_on_c, 6, 61, 0
17, 441361, Note_on_c, 6, 68, 94
17, 441721, Note_on_c, 6, 68, 0
17, 441865, Note_on_c, 6, 59, 94
17, 442225, Note_on_c, 6, 59, 0
17, 442341, Note_on_c, 6, 66, 110
17, 442701, Note_on_c, 6, 66, 0
17, 442807, Note_on_c, 6, 58, 93
17, 443167, Note_on_c, 6, 58, 0
17, 443301, Note_on_c, 6, 65, 101
17, 443661, Note_on_c, 6, 65, 0
17, 447095, Program_c, 6, 56
17, 448093, Note_on_c, 6, 57, 105
17, 448200, Note_on_c, 6, 57, 0
17, 450014, Note_on_c, 6, 57, 120
17, 450121, Note_on_c, 6, 57, 0
17, 451945, Note_on_c, 6, 57, 111
17, 452052, Note_on_c, 6, 57, 0
17, 457697, Note_on_c, 6, 73, 68
17, 457937, Note_on_c, 6, 73, 0
17, 458163, Note_on_c, 6, 73, 79
17, 458403, Note_on_c, 6, 73, 0
17, 458664, Note_on_c, 6, 73, 70
17, 458904, Note_on_c, 6, 73, 0
17, 459137, Note_on_c, 6, 73, 80
17, 459377, Note_on_c, 6, 73, 0
17, 459620, Note_on_c, 6, 73, 83
17, 459860, Note_on_c, 6, 73, 0
17, 460099, Note_on_c, 6, 73, 71
17, 460339, Note_on_c, 6, 73, 0
17, 460575, Note_on_c, 6, 73, 81
17, 460815, Note_on_c, 6, 73, 0
17, 461051, Note_on_c, 6, 73, 67
17, 461291, Note_on_c, 6, 73, 0
17, 461527, Note_on_c, 6, 73, 77
17, 461767, Note_on_c, 6, 73, 0
17, 462029, Note_on_c, 6, 73, 80
17, 462269, Note_on_c, 6, 73, 0
17, 462506, Note_on_c, 6, 73, 68
17, 462746, Note_on_c, 6, 73, 0
17, 462981, Note_on_c, 6, 73, 68
17, 463221, Note_on_c, 6, 73, 0
17, 463454, Note_on_c, 6, 73, 78
17, 463694, Note_on_c, 6, 73, 0
17, 463934, Note_on_c, 6, 73, 82
17, 464174, Note_on_c, 6, 73, 0
17, 464418, Note_on_c, 6, 73, 74
17, 464658, Note_on_c, 6, 73, 0
17, 464881, Note_on_c, 6, 73, 67
17, 465121, Note_on_c, 6, 73, 0
17, 465377, Note_on_c, 6, 73, 65
17, 465617, Note_on_c, 6, 73, 0
17, 465848, Note_on_c, 6, 73, 75
17, 466088, Note_on_c, 6, 73, 0
17, 466322, Note_on_c, 6, 73, 74
17, 466562, Note_on_c, 6, 73, 0
17, 466824, Note_on_c, 6, 73, 75
17, 467064, Note_on_c, 6, 73, 0
17, 467760, Program_c, 6, 59
17, 468570, Note_on_c, 6, 52, 75
17, 468604, Note_on_c, 6, 53, 81
17, 468610, Note_on_c, 6, 52, 0
17, 468643, Note_on_c, 6, 53, 0
17, 468654, Note_on_c, 6, 54, 66
17, 468690, Note_on_c, 6, 55, 78
17, 468694, Note_on_c, 6, 54, 0
17, 468730, Note_on_c, 6, 55, 0
17, 468745, Note_on_c, 6, 56, 76
17, 468865, Note_on_c, 6, 56, 0
17, 470491, Note_on_c, 6, 52, 70
17, 470531, Note_on_c, 6, 52, 0
17, 470545, Note_on_c, 6, 53, 83
17, 470578, Note_on_c, 6, 54, 83
17, 470584, Note_on_c, 6, 53, 0
17, 470618, Note_on_c, 6, 54, 0
17, 470626, Note_on_c, 6, 55, 81
17, 470653, Note_on_c, 6, 56, 68
17, 470666, Note_on_c, 6, 55, 0
17, 470773, Note_on_c, 6, 56, 0
17, 472410, Note_on_c, 6, 52, 72
17, 472450, Note_on_c, 6, 52, 0
17, 472453, Note_on_c, 6, 53, 68
17, 472484, Note_on_c, 6, 54, 69
17, 472492, Note_on_c, 6, 53, 0
17, 472524, Note_on_c, 6, 54, 0
17, 472540, Note_on_c, 6, 55, 69
17, 472580, Note_on_c, 6, 55, 0
17, 472581, Note_on_c, 6, 56, 74
17, 472701, Note_on_c, 6, 56, 0
17, 475293, Note_on_c, 6, 52, 74
17, 475333, Note_on_c, 6, 52, 0
17, 475345, Note_on_c, 6, 53, 75
17, 475361, Note_on_c, 6, 54, 75
17, 475384, Note_on_c, 6, 53, 0
17, 475401, Note_on_c, 6, 54, 0
17, 475427, Note_on_c, 6, 55, 85
17, 475444, Note_on_c, 6, 56, 78
17, 475467, Note_on_c, 6, 55, 0
17, 475564, Note_on_c, 6, 56, 0
17, 492128, Note_on_c, 6, 74, 117
17, 492175, Note_on_c, 6, 74, 0
17, 493567, Note_on_c, 6, 74, 114
17, 493614, Note_on_c, 6, 74, 0
17, 494546, Note_on_c, 6, 77, 83
17, 494689, Note_on_c, 6, 77, 0
17, 494779, Note_on_c, 6, 78, 96
17, 494922, Note_on_c, 6, 78, 0
17, 495026, Note_on_c, 6, 78, 85
17, 495086, Note_on_c, 6, 78, 0
17, 495147, Note_on_c, 6, 81, 78
17, 495219, Note_on_c, 6, 81, 0
17, 495247, Note_on_c, 6, 78, 98
17, 495307, Note_on_c, 6, 78, 0
17, 495483, Note_on_c, 6, 74, 112
17, 495530, Note_on_c, 6, 74, 0
17, 495732, Note_on_c, 6, 74, 106
17, 495779, Note_on_c, 6, 74, 0
17, 495879, Control_c, 6, 11, 65
17, 495885, Control_c, 6, 11, 66
17, 495892, Control_c, 6, 11, 67
17, 495899, Control_c, 6, 11, 68
17, 495906, Control_c, 6, 11, 69
17, 495912, Control_c, 6, 11, 70
17, 495919, Control_c, 6, 11, 71
17, 495925, Control_c, 6, 11, 72
17, 495932, Control_c, 6, 11, 73
17, 495938, Control_c, 6, 11, 74
17, 495945, Control_c, 6, 11, 75
17, 495952, Control_c, 6, 11, 76
17, 495959, Control_c, 6, 11, 77
17, 495965, Control_c, 6, 11, 78
17, 495969, Note_on_c, 6, 74, 117
17, 495972, Control_c, 6, 11, 79
17, 495978, Control_c, 6, 11, 80
17, 495985, Control_c, 6, 11, 81
17, 495991, Control_c, 6, 11, 82
17, 495998, Control_c, 6, 11, 83
17, 496005, Control_c, 6, 11, 84
17, 496012, Control_c, 6, 11, 85
17, 496018, Control_c, 6, 11, 86
17, 496025, Control_c, 6, 11, 87
17, 496031, Control_c, 6, 11, 88
17, 496038, Control_c, 6, 11, 89
17, 496044, Control_c, 6, 11, 90
17, 496051, Control_c, 6, 11, 91
17, 496058, Control_c, 6, 11, 92
17, 496065, Control_c, 6, 11, 93
17, 496071, Control_c, 6, 11, 94
17, 496078, Control_c, 6, 11, 95
17, 496084, Control_c, 6, 11, 96
17, 496091, Control_c, 6, 11, 97
17, 496097, Control_c, 6, 11, 98
17, 496104, Control_c, 6, 11, 99
17, 496111, Control_c, 6, 11, 100
17, 496117, Control_c, 6, 11, 101
17, 496124, Control_c, 6, 11, 102
17, 496131, Control_c, 6, 11, 103
17, 496137, Control_c, 6, 11, 104
17, 496144, Control_c, 6, 11, 105
17, 496150, Control_c, 6, 11, 106
17, 496157, Control_c, 6, 11, 107
17, 496164, Control_c, 6, 11, 108
17, 496170, Control_c, 6, 11, 109
17, 496177, Control_c, 6, 11, 110
17, 496184, Control_c, 6, 11, 111
17, 496190, Control_c, 6, 11, 112
17, 496197, Control_c, 6, 11, 113
17, 496203, Control_c, 6, 11, 114
17, 496210, Control_c, 6, 11, 115
17, 496217, Control_c, 6, 11, 116
17, 496223, Control_c, 6, 11, 117
17, 496230, Control_c, 6, 11, 118
17, 496237, Control_c, 6, 11, 119
17, 496243, Control_c, 6, 11, 120
17, 496250, Control_c, 6, 11, 121
17, 496256, Control_c, 6, 11, 122
17, 496263, Control_c, 6, 11, 123
17, 496270, Control_c, 6, 11, 124
17, 496276, Control_c, 6, 11, 125
17, 496283, Control_c, 6, 11, 126
17, 496329, Note_on_c, 6, 74, 0
17, 496707, Note_on_c, 6, 77, 94
17, 496779, Note_on_c, 6, 77, 0
17, 496811, Note_on_c, 6, 77, 79
17, 496883, Note_on_c, 6, 77, 0
17, 496924, Note_on_c, 6, 77, 78
17, 496996, Note_on_c, 6, 77, 0
17, 497057, Note_on_c, 6, 81, 79
17, 497129, Note_on_c, 6, 81, 0
17, 497182, Note_on_c, 6, 77, 83
17, 497229, Note_on_c, 6, 77, 0
17, 498015, Note_on_c, 6, 74, 107
17, 498062, Note_on_c, 6, 74, 0
17, 498268, Note_on_c, 6, 74, 117
17, 498315, Note_on_c, 6, 74, 0
17, 498399, Control_c, 6, 11, 65
17, 498405, Control_c, 6, 11, 66
17, 498412, Control_c, 6, 11, 67
17, 498419, Control_c, 6, 11, 68
17, 498426, Control_c, 6, 11, 69
17, 498432, Control_c, 6, 11, 70
17, 498439, Control_c, 6, 11, 71
17, 498445, Control_c, 6, 11, 72
17, 498452, Control_c, 6, 11, 73
17, 498458, Control_c, 6, 11, 74
17, 498465, Control_c, 6, 11, 75
17, 498472, Control_c, 6, 11, 76
17, 498479, Control_c, 6, 11, 77
17, 498485, Control_c, 6, 11, 78
17, 498492, Control_c, 6, 11, 79
17, 498497, Note_on_c, 6, 74, 110
17, 498498, Control_c, 6, 11, 80
17, 498505, Control_c, 6, 11, 81
17, 498511, Control_c, 6, 11, 82
17, 498518, Control_c, 6, 11, 83
17, 498525, Control_c, 6, 11, 84
17, 498532, Control_c, 6, 11, 85
17, 498538, Control_c, 6, 11, 86
17, 498545, Control_c, 6, 11, 87
17, 498551, Control_c, 6, 11, 88
17, 498558, Control_c, 6, 11, 89
17, 498564, Control_c, 6, 11, 90
17, 498571, Control_c, 6, 11, 91
17, 498578, Control_c, 6, 11, 92
17, 498585, Control_c, 6, 11, 93
17, 498591, Control_c, 6, 11, 94
17, 498598, Control_c, 6, 11, 95
17, 498604, Control_c, 6, 11, 96
17, 498611, Control_c, 6, 11, 97
17, 498617, Control_c, 6, 11, 98
17, 498624, Control_c, 6, 11, 99
17, 498631, Control_c, 6, 11, 100
17, 498637, Control_c, 6, 11, 101
17, 498644, Control_c, 6, 11, 102
17, 498651, Control_c, 6, 11, 103
17, 498657, Control_c, 6, 11, 104
17, 498664, Control_c, 6, 11, 105
17, 498670, Control_c, 6, 11, 106
17, 498677, Control_c, 6, 11, 107
17, 498684, Control_c, 6, 11, 108
17, 498690, Control_c, 6, 11, 109
17, 498697, Control_c, 6, 11, 110
17, 498704, Control_c, 6, 11, 111
17, 498710, Control_c, 6, 11, 112
17, 498717, Control_c, 6, 11, 113
17, 498723, Control_c, 6, 11, 114
17, 498730, Control_c, 6, 11, 115
17, 498737, Control_c, 6, 11, 116
17, 498743, Control_c, 6, 11, 117
17, 498750, Control_c, 6, 11, 118
17, 498757, Control_c, 6, 11, 119
17, 498763, Control_c, 6, 11, 120
17, 498770, Control_c, 6, 11, 121
17, 498776, Control_c, 6, 11, 122
17, 498783, Control_c, 6, 11, 123
17, 498790, Control_c, 6, 11, 124
17, 498796, Control_c, 6, 11, 125
17, 498803, Control_c, 6, 11, 126
17, 498857, Note_on_c, 6, 74, 0
17, 502373, Program_c, 6, 56
17, 502927, Note_on_c, 6, 77, 110
17, 502974, Note_on_c, 6, 77, 0
17, 503061, Note_on_c, 6, 81, 119
17, 503108, Note_on_c, 6, 81, 0
17, 503544, Note_on_c, 6, 77, 105
17, 503591, Note_on_c, 6, 77, 0
17, 503650, Note_on_c, 6, 81, 104
17, 503697, Note_on_c, 6, 81, 0
17, 503888, Note_on_c, 6, 82, 112
17, 503935, Note_on_c, 6, 82, 0
17, 512413, Program_c, 6, 59
17, 513615, Note_on_c, 6, 84, 96
17, 513672, Note_on_c, 6, 84, 0
17, 513719, Note_on_c, 6, 84, 94
17, 513776, Note_on_c, 6, 84, 0
17, 513818, Note_on_c, 6, 83, 89
17, 513874, Note_on_c, 6, 83, 0
17, 513893, Note_on_c, 6, 83, 88
17, 513950, Note_on_c, 6, 83, 0
17, 513984, Note_on_c, 6, 82, 87
17, 514042, Note_on_c, 6, 82, 0
17, 514094, Note_on_c, 6, 82, 92
17, 514166, Note_on_c, 6, 82, 0
17, 515539, Note_on_c, 6, 81, 109
17, 515592, Note_on_c, 6, 81, 0
17, 522514, Program_c, 6, 56
17, 522970, Note_on_c, 6, 80, 88
17, 523027, Note_on_c, 6, 80, 0
17, 523080, Note_on_c, 6, 80, 78
17, 523137, Note_on_c, 6, 80, 0
17, 523167, Note_on_c, 6, 79, 82
17, 523224, Note_on_c, 6, 79, 0
17, 523263, Note_on_c, 6, 79, 90
17, 523320, Note_on_c, 6, 79, 0
17, 523350, Note_on_c, 6, 78, 92
17, 523408, Note_on_c, 6, 78, 0
17, 523459, Note_on_c, 6, 78, 90
17, 523531, Note_on_c, 6, 78, 0
17, 525383, Note_on_c, 6, 80, 83
17, 525440, Note_on_c, 6, 80, 0
17, 525484, Note_on_c, 6, 80, 94
17, 525541, Note_on_c, 6, 80, 0
17, 525553, Note_on_c, 6, 79, 91
17, 525610, Note_on_c, 6, 79, 0
17, 525651, Note_on_c, 6, 79, 98
17, 525708, Note_on_c, 6, 79, 0
17, 525770, Note_on_c, 6, 78, 94
17, 525828, Note_on_c, 6, 78, 0
17, 525866, Note_on_c, 6, 78, 96
17, 525938, Note_on_c, 6, 78, 0
17, 527306, Note_on_c, 6, 80, 92
17, 527360, Note_on_c, 6, 80, 0
17, 527379, Note_on_c, 6, 80, 85
17, 527436, Note_on_c, 6, 80, 0
17, 527489, Note_on_c, 6, 79, 88
17, 527546, Note_on_c, 6, 79, 0
17, 527569, Note_on_c, 6, 79, 84
17, 527626, Note_on_c, 6, 79, 0
17, 527675, Note_on_c, 6, 78, 93
17, 527733, Note_on_c, 6, 78, 0
17, 527765, Note_on_c, 6, 78, 87
17, 527837, Note_on_c, 6, 78, 0
17, 529461, Note_on_c, 6, 80, 78
17, 529518, Note_on_c, 6, 80, 0
17, 529548, Note_on_c, 6, 80, 96
17, 529605, Note_on_c, 6, 80, 0
17, 529657, Note_on_c, 6, 79, 88
17, 529713, Note_on_c, 6, 79, 0
17, 529732, Note_on_c, 6, 79, 94
17, 529789, Note_on_c, 6, 79, 0
17, 529847, Note_on_c, 6, 78, 81
17, 529905, Note_on_c, 6, 78, 0
17, 529925, Note_on_c, 6, 78, 97
17, 529997, Note_on_c, 6, 78, 0
17, 536662, Note_on_c, 6, 83, 116
17, 536710, Note_on_c, 6, 83, 0
17, 536739, Note_on_c, 6, 83, 111
17, 536787, Note_on_c, 6, 83, 0
17, 536852, Note_on_c, 6, 82, 121
17, 536900, Note_on_c, 6, 82, 0
17, 536945, Note_on_c, 6, 82, 118
17, 536993, Note_on_c, 6, 82, 0
17, 537051, Note_on_c, 6, 81, 107
17, 537099, Note_on_c, 6, 81, 0
17, 537141, Note_on_c, 6, 81, 120
17, 537201, Note_on_c, 6, 81, 0
17, 543655, Program_c, 6, 59
17, 544108, Note_on_c, 6, 82, 81
17, 544156, Note_on_c, 6, 82, 0
17, 544196, Note_on_c, 6, 82, 98
17, 544244, Note_on_c, 6, 82, 0
17, 544292, Note_on_c, 6, 81, 82
17, 544340, Note_on_c, 6, 81, 0
17, 544371, Note_on_c, 6, 81, 78
17, 544419, Note_on_c, 6, 81, 0
17, 544492, Note_on_c, 6, 80, 86
17, 544540, Note_on_c, 6, 80, 0
17, 544583, Note_on_c, 6, 80, 89
17, 544655, Note_on_c, 6, 80, 0
17, 546728, Note_on_c, 6, 80, 93
17, 546774, Note_on_c, 6, 80, 0
17, 546793, Note_on_c, 6, 80, 86
17, 546835, Note_on_c, 6, 80, 0
17, 546854, Note_on_c, 6, 80, 81
17, 546904, Note_on_c, 6, 80, 0
17, 546923, Note_on_c, 6, 80, 94
17, 546982, Note_on_c, 6, 81, 103
17, 546983, Note_on_c, 6, 80, 0
17, 547102, Note_on_c, 6, 81, 0
17, 549122, Note_on_c, 6, 80, 104
17, 549166, Note_on_c, 6, 80, 0
17, 549185, Note_on_c, 6, 80, 105
17, 549245, Note_on_c, 6, 80, 0
17, 549267, Note_on_c, 6, 80, 102
17, 549281, Note_on_c, 6, 80, 0
17, 549300, Note_on_c, 6, 80, 118
17, 549360, Note_on_c, 6, 80, 0
17, 549376, Note_on_c, 6, 81, 118
17, 549496, Note_on_c, 6, 81, 0
17, 550575, Note_on_c, 6, 80, 111
17, 550612, Note_on_c, 6, 80, 0
17, 550631, Note_on_c, 6, 80, 111
17, 550688, Note_on_c, 6, 80, 0
17, 550707, Note_on_c, 6, 80, 107
17, 550745, Note_on_c, 6, 80, 0
17, 550765, Note_on_c, 6, 80, 117
17, 550825, Note_on_c, 6, 80, 0
17, 550826, Note_on_c, 6, 81, 102
17, 550946, Note_on_c, 6, 81, 0
17, 552376, Note_on_c, 6, 73, 117
17, 552423, Note_on_c, 6, 73, 0
17, 553810, Note_on_c, 6, 73, 104
17, 553857, Note_on_c, 6, 73, 0
17, 554767, Note_on_c, 6, 76, 82
17, 554910, Note_on_c, 6, 76, 0
17, 555026, Note_on_c, 6, 77, 82
17, 555169, Note_on_c, 6, 77, 0
17, 555247, Note_on_c, 6, 77, 79
17, 555307, Note_on_c, 6, 77, 0
17, 555363, Note_on_c, 6, 80, 88
17, 555435, Note_on_c, 6, 80, 0
17, 555486, Note_on_c, 6, 77, 98
17, 555546, Note_on_c, 6, 77, 0
17, 555720, Note_on_c, 6, 73, 100
17, 555767, Note_on_c, 6, 73, 0
17, 555984, Note_on_c, 6, 73, 118
17, 556031, Note_on_c, 6, 73, 0
17, 556202, Note_on_c, 6, 73, 115
17, 556562, Note_on_c, 6, 73, 0
17, 556948, Note_on_c, 6, 76, 89
17, 557020, Note_on_c, 6, 76, 0
17, 557051, Note_on_c, 6, 76, 86
17, 557123, Note_on_c, 6, 76, 0
17, 557180, Note_on_c, 6, 76, 89
17, 557252, Note_on_c, 6, 76, 0
17, 557307, Note_on_c, 6, 80, 95
17, 557379, Note_on_c, 6, 80, 0
17, 557418, Note_on_c, 6, 76, 94
17, 557465, Note_on_c, 6, 76, 0
17, 558246, Note_on_c, 6, 73, 118
17, 558293, Note_on_c, 6, 73, 0
17, 558499, Note_on_c, 6, 73, 100
17, 558546, Note_on_c, 6, 73, 0
17, 558733, Note_on_c, 6, 73, 108
17, 559093, Note_on_c, 6, 73, 0
17, 562571, Program_c, 6, 56
17, 563176, Note_on_c, 6, 76, 110
17, 563223, Note_on_c, 6, 76, 0
17, 563299, Note_on_c, 6, 80, 100
17, 563346, Note_on_c, 6, 80, 0
17, 563781, Note_on_c, 6, 76, 102
17, 563828, Note_on_c, 6, 76, 0
17, 563883, Note_on_c, 6, 80, 98
17, 563930, Note_on_c, 6, 80, 0
17, 564134, Note_on_c, 6, 81, 101
17, 564181, Note_on_c, 6, 81, 0
17, 576246, Note_on_c, 6, 74, 84
17, 578390, Note_on_c, 6, 74, 0
17, 578409, Note_on_c, 6, 74, 84
17, 578649, Note_on_c, 6, 74, 0
17, 578896, Note_on_c, 6, 76, 93
17, 579016, Note_on_c, 6, 76, 0
17, 579131, Note_on_c, 6, 74, 82
17, 579251, Note_on_c, 6, 74, 0
17, 579369, Note_on_c, 6, 76, 90
17, 579609, Note_on_c, 6, 76, 0
17, 579858, Note_on_c, 6, 78, 89
17, 580578, Note_on_c, 6, 78, 0
17, 582251, Note_on_c, 6, 79, 79
17, 584891, Note_on_c, 6, 79, 0
17, 587061, Note_on_c, 6, 79, 96
17, 588261, Note_on_c, 6, 79, 0
17, 588483, Note_on_c, 6, 74, 88
17, 589323, Note_on_c, 6, 74, 0
17, 589458, Note_on_c, 6, 74, 96
17, 590298, Note_on_c, 6, 74, 0
17, 590402, Note_on_c, 6, 74, 83
17, 591242, Note_on_c, 6, 74, 0
17, 591367, Note_on_c, 6, 74, 80
17, 592207, Note_on_c, 6, 74, 0
17, 592322, Note_on_c, 6, 74, 96
17, 593162, Note_on_c, 6, 74, 0
17, 593282, Note_on_c, 6, 74, 88
17, 594122, Note_on_c, 6, 74, 0
17, 594246, Note_on_c, 6, 74, 98
17, 595086, Note_on_c, 6, 74, 0
17, 595205, Note_on_c, 6, 74, 85
17, 596045, Note_on_c, 6, 74, 0
17, 596187, Note_on_c, 6, 74, 80
17, 597027, Note_on_c, 6, 74, 0
17, 597137, Note_on_c, 6, 74, 91
17, 597977, Note_on_c, 6, 74, 0
17, 598089, Note_on_c, 6, 74, 96
17, 598929, Note_on_c, 6, 74, 0
17, 599043, Note_on_c, 6, 74, 83
17, 600002, Note_on_c, 6, 74, 0
17, 600021, Note_on_c, 6, 74, 93
17, 600501, Note_on_c, 6, 74, 0
17, 600507, Note_on_c, 6, 72, 88
17, 600650, Note_on_c, 6, 72, 0
17, 600739, Note_on_c, 6, 70, 95
17, 600882, Note_on_c, 6, 70, 0
17, 600983, Note_on_c, 6, 68, 97
17, 601126, Note_on_c, 6, 68, 0
17, 601211, Note_on_c, 6, 72, 91
17, 601354, Note_on_c, 6, 72, 0
17, 601446, Note_on_c, 6, 74, 113
17, 601518, Note_on_c, 6, 74, 0
17, 601700, Note_on_c, 6, 74, 101
17, 601753, Note_on_c, 6, 74, 0
17, 602181, Note_on_c, 6, 74, 117
17, 602234, Note_on_c, 6, 74, 0
17, 602402, Note_on_c, 6, 74, 105
17, 602455, Note_on_c, 6, 74, 0
17, 602775, Note_on_c, 6, 74, 110
17, 602828, Note_on_c, 6, 74, 0
17, 603619, Note_on_c, 6, 74, 100
17, 603672, Note_on_c, 6, 74, 0
17, 603846, Note_on_c, 6, 76, 118
17, 603899, Note_on_c, 6, 76, 0
17, 603978, Note_on_c, 6, 73, 111
17, 604031, Note_on_c, 6, 73, 0
17, 604091, Note_on_c, 6, 72, 107
17, 604144, Note_on_c, 6, 72, 0
17, 614782, Note_on_c, 6, 75, 98
17, 615069, Note_on_c, 6, 75, 0
17, 615251, Note_on_c, 6, 71, 106
17, 615394, Note_on_c, 6, 71, 0
17, 615486, Note_on_c, 6, 70, 111
17, 615629, Note_on_c, 6, 70, 0
17, 615729, Note_on_c, 6, 68, 107
17, 615872, Note_on_c, 6, 68, 0
17, 615989, Note_on_c, 6, 71, 101
17, 616132, Note_on_c, 6, 71, 0
17, 616219, Note_on_c, 6, 73, 92
17, 616506, Note_on_c, 6, 73, 0
17, 618619, Note_on_c, 6, 82, 111
17, 618849, Note_on_c, 6, 71, 121
17, 618859, Note_on_c, 6, 82, 0
17, 619089, Note_on_c, 6, 71, 0
17, 619093, Note_on_c, 6, 77, 121
17, 619245, Note_on_c, 6, 72, 121
17, 619252, Note_on_c, 6, 77, 0
17, 619405, Note_on_c, 6, 72, 0
17, 619412, Note_on_c, 6, 77, 113
17, 619572, Note_on_c, 6, 77, 0
17, 619584, Note_on_c, 6, 64, 119
17, 619824, Note_on_c, 6, 64, 0
17, 620532, Note_on_c, 6, 82, 109
17, 620764, Note_on_c, 6, 71, 108
17, 620772, Note_on_c, 6, 82, 0
17, 621004, Note_on_c, 6, 71, 0
17, 621024, Note_on_c, 6, 77, 119
17, 621175, Note_on_c, 6, 72, 119
17, 621183, Note_on_c, 6, 77, 0
17, 621328, Note_on_c, 6, 77, 114
17, 621335, Note_on_c, 6, 72, 0
17, 621488, Note_on_c, 6, 77, 0
17, 621497, Note_on_c, 6, 64, 111
17, 621737, Note_on_c, 6, 64, 0
17, 622444, Note_on_c, 6, 82, 114
17, 622684, Note_on_c, 6, 82, 0
17, 622698, Note_on_c, 6, 71, 124
17, 622938, Note_on_c, 6, 71, 0
17, 622944, Note_on_c, 6, 77, 112
17, 623094, Note_on_c, 6, 72, 107
17, 623103, Note_on_c, 6, 77, 0
17, 623250, Note_on_c, 6, 77, 106
17, 623254, Note_on_c, 6, 72, 0
17, 623410, Note_on_c, 6, 77, 0
17, 623421, Note_on_c, 6, 64, 123
17, 623661, Note_on_c, 6, 64, 0
17, 625331, Note_on_c, 6, 82, 108
17, 625571, Note_on_c, 6, 82, 0
17, 625574, Note_on_c, 6, 71, 114
17, 625814, Note_on_c, 6, 71, 0
17, 625824, Note_on_c, 6, 77, 115
17, 625979, Note_on_c, 6, 72, 104
17, 625983, Note_on_c, 6, 77, 0
17, 626139, Note_on_c, 6, 72, 0
17, 626145, Note_on_c, 6, 77, 124
17, 626293, Note_on_c, 6, 64, 115
17, 626305, Note_on_c, 6, 77, 0
17, 626533, Note_on_c, 6, 64, 0
17, 627740, Note_on_c, 6, 79, 109
17, 627860, Note_on_c, 6, 79, 0
17, 634084, Note_on_c, 6, 72, 82
17, 634144, Note_on_c, 6, 72, 0
17, 634200, Note_on_c, 6, 72, 78
17, 634260, Note_on_c, 6, 72, 0
17, 634326, Note_on_c, 6, 72, 93
17, 634386, Note_on_c, 6, 72, 0
17, 634461, Note_on_c, 6, 76, 87
17, 634521, Note_on_c, 6, 76, 0
17, 634584, Note_on_c, 6, 72, 82
17, 634644, Note_on_c, 6, 72, 0
17, 635285, Note_on_c, 6, 72, 82
17, 635345, Note_on_c, 6, 72, 0
17, 635400, Note_on_c, 6, 72, 86
17, 635460, Note_on_c, 6, 72, 0
17, 635538, Note_on_c, 6, 72, 98
17, 635598, Note_on_c, 6, 72, 0
17, 635660, Note_on_c, 6, 76, 81
17, 635720, Note_on_c, 6, 76, 0
17, 635787, Note_on_c, 6, 72, 95
17, 635847, Note_on_c, 6, 72, 0
17, 639977, Note_on_c, 6, 72, 93
17, 640037, Note_on_c, 6, 72, 0
17, 640099, Note_on_c, 6, 76, 92
17, 640159, Note_on_c, 6, 76, 0
17, 641181, Note_on_c, 6, 67, 102
17, 641241, Note_on_c, 6, 67, 0
17, 641303, Note_on_c, 6, 72, 93
17, 641363, Note_on_c, 6, 72, 0
17, 641424, Note_on_c, 6, 76, 96
17, 641484, Note_on_c, 6, 76, 0
17, 645383, Note_on_c, 6, 72, 98
17, 645443, Note_on_c, 6, 72, 0
17, 645484, Note_on_c, 6, 76, 103
17, 645544, Note_on_c, 6, 76, 0
17, 646705, Note_on_c, 6, 72, 99
17, 646765, Note_on_c, 6, 72, 0
17, 646823, Note_on_c, 6, 76, 106
17, 646883, Note_on_c, 6, 76, 0
17, 647297, Note_on_c, 6, 67, 97
17, 647357, Note_on_c, 6, 67, 0
17, 647423, Note_on_c, 6, 72, 92
17, 647483, Note_on_c, 6, 72, 0
17, 647544, Note_on_c, 6, 76, 109
17, 647604, Note_on_c, 6, 76, 0
17, 648017, Note_on_c, 6, 72, 109
17, 648077, Note_on_c, 6, 72, 0
17, 648130, Note_on_c, 6, 76, 101
17, 648190, Note_on_c, 6, 76, 0
17, 648388, Note_on_c, 6, 75, 101
17, 648448, Note_on_c, 6, 75, 0
17, 648857, Note_on_c, 6, 70, 111
17, 648917, Note_on_c, 6, 70, 0
17, 648981, Note_on_c, 6, 75, 103
17, 649041, Note_on_c, 6, 75, 0
17, 649096, Note_on_c, 6, 79, 106
17, 649156, Note_on_c, 6, 79, 0
17, 649340, Note_on_c, 6, 75, 108
17, 649400, Note_on_c, 6, 75, 0
17, 649817, Note_on_c, 6, 75, 108
17, 649877, Note_on_c, 6, 75, 0
17, 649924, Note_on_c, 6, 79, 107
17, 649984, Note_on_c, 6, 79, 0
17, 650405, Note_on_c, 6, 67, 91
17, 650465, Note_on_c, 6, 67, 0
17, 650532, Note_on_c, 6, 72, 105
17, 650642, Note_on_c, 6, 76, 93
17, 650652, Note_on_c, 6, 72, 0
17, 650702, Note_on_c, 6, 76, 0
17, 650904, Note_on_c, 6, 72, 107
17, 650964, Note_on_c, 6, 72, 0
17, 651361, Note_on_c, 6, 67, 107
17, 651421, Note_on_c, 6, 67, 0
17, 651486, Note_on_c, 6, 72, 95
17, 651546, Note_on_c, 6, 72, 0
17, 651606, Note_on_c, 6, 76, 95
17, 651666, Note_on_c, 6, 76, 0
17, 651844, Note_on_c, 6, 72, 93
17, 651904, Note_on_c, 6, 72, 0
17, 652089, Note_on_c, 6, 67, 95
17, 652149, Note_on_c, 6, 67, 0
17, 652215, Note_on_c, 6, 72, 101
17, 652275, Note_on_c, 6, 72, 0
17, 652340, Note_on_c, 6, 76, 102
17, 652400, Note_on_c, 6, 76, 0
17, 652566, Note_on_c, 6, 72, 104
17, 652626, Note_on_c, 6, 72, 0
17, 653051, Note_on_c, 6, 67, 97
17, 653111, Note_on_c, 6, 67, 0
17, 653170, Note_on_c, 6, 72, 104
17, 653230, Note_on_c, 6, 72, 0
17, 653296, Note_on_c, 6, 76, 105
17, 653356, Note_on_c, 6, 76, 0
17, 653527, Note_on_c, 6, 72, 95
17, 653587, Note_on_c, 6, 72, 0
17, 653772, Note_on_c, 6, 67, 91
17, 653832, Note_on_c, 6, 67, 0
17, 653907, Note_on_c, 6, 72, 93
17, 653967, Note_on_c, 6, 72, 0
17, 654007, Note_on_c, 6, 76, 91
17, 654067, Note_on_c, 6, 76, 0
17, 654262, Note_on_c, 6, 72, 100
17, 654322, Note_on_c, 6, 72, 0
17, 654732, Note_on_c, 6, 67, 94
17, 654792, Note_on_c, 6, 67, 0
17, 654855, Note_on_c, 6, 72, 98
17, 654915, Note_on_c, 6, 72, 0
17, 654963, Note_on_c, 6, 76, 95
17, 655023, Note_on_c, 6, 76, 0
17, 655087, Note_on_c, 6, 72, 107
17, 655147, Note_on_c, 6, 72, 0
17, 655331, Note_on_c, 6, 79, 115
17, 655391, Note_on_c, 6, 79, 0
17, 655391, End_track
18, 0, Start_track
18, 0, Title_t, "Trombe I"
18, 0, MIDI_port, 0
18, 0, Program_c, 6, 56
18, 0, Program_c, 6, 59
18, 2412, Note_on_c, 6, 75, 52
18, 2416, Note_on_c, 6, 70, 54
18, 2649, Note_on_c, 6, 76, 43
18, 2652, Note_on_c, 6, 75, 0
18, 2656, Note_on_c, 6, 70, 0
18, 2665, Note_on_c, 6, 73, 47
18, 2861, Note_on_c, 6, 73, 0
18, 2880, Note_on_c, 6, 73, 51
18, 2889, Note_on_c, 6, 76, 0
18, 2890, Note_on_c, 6, 77, 53
18, 3120, Note_on_c, 6, 73, 0
18, 3124, Note_on_c, 6, 76, 55
18, 3130, Note_on_c, 6, 77, 0
18, 3144, Note_on_c, 6, 79, 43
18, 3364, Note_on_c, 6, 76, 0
18, 3384, Note_on_c, 6, 79, 0
18, 10586, Note_on_c, 6, 70, 69
18, 10589, Note_on_c, 6, 66, 70
18, 10806, Note_on_c, 6, 72, 64
18, 10814, Note_on_c, 6, 68, 76
18, 10826, Note_on_c, 6, 70, 0
18, 10829, Note_on_c, 6, 66, 0
18, 11031, Note_on_c, 6, 68, 0
18, 11046, Note_on_c, 6, 72, 0
18, 11050, Note_on_c, 6, 68, 63
18, 11057, Note_on_c, 6, 73, 55
18, 11280, Note_on_c, 6, 70, 66
18, 11290, Note_on_c, 6, 68, 0
18, 11297, Note_on_c, 6, 73, 0
18, 11297, Note_on_c, 6, 75, 49
18, 11520, Note_on_c, 6, 70, 0
18, 11522, Note_on_c, 6, 73, 47
18, 11537, Note_on_c, 6, 75, 0
18, 11544, Note_on_c, 6, 77, 52
18, 11762, Note_on_c, 6, 73, 0
18, 11768, Note_on_c, 6, 76, 54
18, 11776, Note_on_c, 6, 72, 50
18, 11784, Note_on_c, 6, 77, 0
18, 12008, Note_on_c, 6, 76, 0
18, 12016, Note_on_c, 6, 72, 0
18, 12020, Note_on_c, 6, 78, 36
18, 12022, Note_on_c, 6, 75, 35
18, 12260, Note_on_c, 6, 78, 0
18, 12262, Note_on_c, 6, 75, 0
18, 15380, Note_on_c, 6, 70, 71
18, 15383, Note_on_c, 6, 66, 70
18, 15609, Note_on_c, 6, 68, 77
18, 15620, Note_on_c, 6, 70, 0
18, 15621, Note_on_c, 6, 72, 67
18, 15623, Note_on_c, 6, 66, 0
18, 15821, Note_on_c, 6, 68, 0
18, 15840, Note_on_c, 6, 68, 72
18, 15860, Note_on_c, 6, 73, 72
18, 15861, Note_on_c, 6, 72, 0
18, 16080, Note_on_c, 6, 68, 0
18, 16080, Note_on_c, 6, 75, 56
18, 16098, Note_on_c, 6, 70, 62
18, 16100, Note_on_c, 6, 73, 0
18, 16320, Note_on_c, 6, 75, 0
18, 16321, Note_on_c, 6, 77, 61
18, 16332, Note_on_c, 6, 73, 46
18, 16338, Note_on_c, 6, 70, 0
18, 16561, Note_on_c, 6, 77, 0
18, 16572, Note_on_c, 6, 73, 0
18, 16574, Note_on_c, 6, 76, 55
18, 16581, Note_on_c, 6, 72, 57
18, 16814, Note_on_c, 6, 76, 0
18, 16820, Note_on_c, 6, 78, 45
18, 16821, Note_on_c, 6, 72, 0
18, 16827, Note_on_c, 6, 75, 42
18, 17060, Note_on_c, 6, 78, 0
18, 17067, Note_on_c, 6, 75, 0
18, 19692, Note_on_c, 6, 66, 81
18, 19701, Note_on_c, 6, 70, 77
18, 19931, Note_on_c, 6, 68, 78
18, 19932, Note_on_c, 6, 66, 0
18, 19941, Note_on_c, 6, 70, 0
18, 19946, Note_on_c, 6, 72, 67
18, 20157, Note_on_c, 6, 68, 0
18, 20167, Note_on_c, 6, 73, 66
18, 20176, Note_on_c, 6, 68, 57
18, 20186, Note_on_c, 6, 72, 0
18, 20401, Note_on_c, 6, 75, 51
18, 20404, Note_on_c, 6, 70, 63
18, 20407, Note_on_c, 6, 73, 0
18, 20416, Note_on_c, 6, 68, 0
18, 20641, Note_on_c, 6, 75, 0
18, 20643, Note_on_c, 6, 77, 55
18, 20644, Note_on_c, 6, 70, 0
18, 20656, Note_on_c, 6, 73, 59
18, 20883, Note_on_c, 6, 77, 0
18, 20885, Note_on_c, 6, 72, 51
18, 20896, Note_on_c, 6, 73, 0
18, 20898, Note_on_c, 6, 76, 45
18, 21125, Note_on_c, 6, 72, 0
18, 21127, Note_on_c, 6, 75, 40
18, 21133, Note_on_c, 6, 78, 51
18, 21138, Note_on_c, 6, 76, 0
18, 21367, Note_on_c, 6, 75, 0
18, 21373, Note_on_c, 6, 78, 0
18, 40304, Program_c, 6, 59
18, 40334, Note_on_c, 6, 70, 49
18, 41052, Note_on_c, 6, 71, 59
18, 41054, Note_on_c, 6, 70, 0
18, 41524, Note_on_c, 6, 70, 47
18, 41532, Note_on_c, 6, 71, 0
18, 42001, Note_on_c, 6, 72, 43
18, 42004, Note_on_c, 6, 70, 0
18, 42721, Note_on_c, 6, 72, 0
18, 48005, Note_on_c, 6, 70, 42
18, 48721, Note_on_c, 6, 71, 47
18, 48725, Note_on_c, 6, 70, 0
18, 49201, Note_on_c, 6, 71, 0
18, 49202, Note_on_c, 6, 70, 48
18, 49682, Note_on_c, 6, 70, 0
18, 49690, Note_on_c, 6, 72, 46
18, 50402, Note_on_c, 6, 70, 59
18, 50410, Note_on_c, 6, 72, 0
18, 51122, Note_on_c, 6, 70, 0
18, 51147, Note_on_c, 6, 70, 42
18, 51609, Note_on_c, 6, 71, 58
18, 51627, Note_on_c, 6, 70, 0
18, 52089, Note_on_c, 6, 71, 0
18, 52099, Note_on_c, 6, 70, 42
18, 52579, Note_on_c, 6, 70, 0
18, 52584, Note_on_c, 6, 72, 43
18, 53297, Note_on_c, 6, 70, 57
18, 53304, Note_on_c, 6, 72, 0
18, 54010, Note_on_c, 6, 71, 55
18, 54017, Note_on_c, 6, 70, 0
18, 54490, Note_on_c, 6, 71, 0
18, 54503, Note_on_c, 6, 70, 43
18, 54963, Note_on_c, 6, 72, 45
18, 54983, Note_on_c, 6, 70, 0
18, 55683, Note_on_c, 6, 72, 0
18, 55701, Note_on_c, 6, 70, 51
18, 56420, Note_on_c, 6, 71, 48
18, 56421, Note_on_c, 6, 70, 0
18, 56896, Note_on_c, 6, 70, 47
18, 56900, Note_on_c, 6, 71, 0
18, 57374, Note_on_c, 6, 72, 48
18, 57376, Note_on_c, 6, 70, 0
18, 58094, Note_on_c, 6, 72, 0
18, 60489, Note_on_c, 6, 70, 39
18, 61209, Note_on_c, 6, 70, 0
18, 61218, Note_on_c, 6, 71, 43
18, 61698, Note_on_c, 6, 71, 0
18, 61708, Note_on_c, 6, 70, 52
18, 62167, Note_on_c, 6, 72, 43
18, 62188, Note_on_c, 6, 70, 0
18, 62887, Note_on_c, 6, 72, 0
18, 62904, Note_on_c, 6, 70, 48
18, 63582, Note_on_c, 6, 70, 0
18, 63601, Note_on_c, 6, 70, 51
18, 64081, Note_on_c, 6, 70, 0
18, 64095, Note_on_c, 6, 71, 48
18, 64571, Note_on_c, 6, 70, 49
18, 64575, Note_on_c, 6, 71, 0
18, 65051, Note_on_c, 6, 70, 0
18, 65055, Note_on_c, 6, 72, 39
18, 65775, Note_on_c, 6, 72, 0
18, 110408, Note_on_c, 6, 71, 31
18, 110418, Note_on_c, 6, 68, 13
18, 110422, Note_on_c, 6, 75, 28
18, 112328, Note_on_c, 6, 71, 0
18, 112338, Note_on_c, 6, 68, 0
18, 112342, Note_on_c, 6, 75, 0
18, 159822, Program_c, 6, 59
18, 159844, Note_on_c, 6, 63, 76
18, 159847, Note_on_c, 6, 74, 77
18, 160228, Note_on_c, 6, 63, 0
18, 160231, Note_on_c, 6, 74, 0
18, 160332, Note_on_c, 6, 69, 78
18, 160340, Note_on_c, 6, 64, 75
18, 160716, Note_on_c, 6, 69, 0
18, 160724, Note_on_c, 6, 64, 0
18, 160807, Note_on_c, 6, 63, 80
18, 160819, Note_on_c, 6, 74, 68
18, 161191, Note_on_c, 6, 63, 0
18, 161203, Note_on_c, 6, 74, 0
18, 161295, Note_on_c, 6, 66, 81
18, 161306, Note_on_c, 6, 69, 66
18, 161679, Note_on_c, 6, 66, 0
18, 161690, Note_on_c, 6, 69, 0
18, 161783, Note_on_c, 6, 64, 70
18, 161785, Note_on_c, 6, 75, 83
18, 162167, Note_on_c, 6, 64, 0
18, 162169, Note_on_c, 6, 75, 0
18, 162256, Note_on_c, 6, 69, 68
18, 162256, Note_on_c, 6, 65, 66
18, 162640, Note_on_c, 6, 69, 0
18, 162640, Note_on_c, 6, 65, 0
18, 162724, Note_on_c, 6, 63, 84
18, 162735, Note_on_c, 6, 74, 84
18, 163108, Note_on_c, 6, 63, 0
18, 163119, Note_on_c, 6, 74, 0
18, 163208, Note_on_c, 6, 69, 84
18, 163211, Note_on_c, 6, 64, 70
18, 163592, Note_on_c, 6, 69, 0
18, 163595, Note_on_c, 6, 64, 0
18, 163683, Note_on_c, 6, 63, 75
18, 163685, Note_on_c, 6, 74, 67
18, 164067, Note_on_c, 6, 63, 0
18, 164069, Note_on_c, 6, 74, 0
18, 164182, Note_on_c, 6, 66, 83
18, 164186, Note_on_c, 6, 69, 80
18, 164566, Note_on_c, 6, 66, 0
18, 164570, Note_on_c, 6, 69, 0
18, 164641, Note_on_c, 6, 74, 68
18, 164649, Note_on_c, 6, 63, 78
18, 165025, Note_on_c, 6, 74, 0
18, 165033, Note_on_c, 6, 63, 0
18, 165127, Note_on_c, 6, 65, 75
18, 165146, Note_on_c, 6, 69, 75
18, 165511, Note_on_c, 6, 65, 0
18, 165530, Note_on_c, 6, 69, 0
18, 165602, Note_on_c, 6, 75, 83
18, 165605, Note_on_c, 6, 64, 81
18, 165986, Note_on_c, 6, 75, 0
18, 165989, Note_on_c, 6, 64, 0
18, 166092, Note_on_c, 6, 66, 75
18, 166108, Note_on_c, 6, 69, 74
18, 166476, Note_on_c, 6, 66, 0
18, 166492, Note_on_c, 6, 69, 0
18, 198715, Program_c, 6, 59
18, 200167, Note_on_c, 6, 73, 118
18, 200171, Control_c, 6, 11, 126
18, 200186, Control_c, 6, 11, 125
18, 200202, Control_c, 6, 11, 124
18, 200217, Control_c, 6, 11, 123
18, 200233, Control_c, 6, 11, 122
18, 200248, Control_c, 6, 11, 121
18, 200264, Control_c, 6, 11, 120
18, 200279, Control_c, 6, 11, 119
18, 200295, Control_c, 6, 11, 118
18, 200310, Control_c, 6, 11, 117
18, 200325, Control_c, 6, 11, 116
18, 200341, Control_c, 6, 11, 115
18, 200356, Control_c, 6, 11, 114
18, 200372, Control_c, 6, 11, 113
18, 200387, Control_c, 6, 11, 112
18, 200402, Control_c, 6, 11, 111
18, 200407, Note_on_c, 6, 73, 0
18, 200418, Control_c, 6, 11, 110
18, 200424, Note_on_c, 6, 75, 107
18, 200433, Control_c, 6, 11, 109
18, 200449, Control_c, 6, 11, 108
18, 200464, Control_c, 6, 11, 107
18, 200480, Control_c, 6, 11, 106
18, 200495, Control_c, 6, 11, 105
18, 200511, Control_c, 6, 11, 104
18, 200526, Control_c, 6, 11, 103
18, 200542, Control_c, 6, 11, 102
18, 200557, Control_c, 6, 11, 101
18, 200572, Control_c, 6, 11, 100
18, 200588, Control_c, 6, 11, 99
18, 200603, Control_c, 6, 11, 98
18, 200619, Control_c, 6, 11, 97
18, 200634, Control_c, 6, 11, 96
18, 200650, Control_c, 6, 11, 95
18, 200665, Control_c, 6, 11, 94
18, 200681, Control_c, 6, 11, 93
18, 200696, Control_c, 6, 11, 92
18, 200712, Control_c, 6, 11, 91
18, 200727, Control_c, 6, 11, 90
18, 200743, Control_c, 6, 11, 89
18, 200758, Control_c, 6, 11, 88
18, 200774, Control_c, 6, 11, 87
18, 200789, Control_c, 6, 11, 86
18, 200805, Control_c, 6, 11, 85
18, 200820, Control_c, 6, 11, 84
18, 200835, Control_c, 6, 11, 83
18, 200851, Control_c, 6, 11, 82
18, 200866, Control_c, 6, 11, 81
18, 200882, Control_c, 6, 11, 80
18, 200897, Control_c, 6, 11, 79
18, 200912, Control_c, 6, 11, 78
18, 200928, Control_c, 6, 11, 77
18, 200943, Control_c, 6, 11, 76
18, 200959, Control_c, 6, 11, 75
18, 200974, Control_c, 6, 11, 74
18, 200990, Control_c, 6, 11, 73
18, 201005, Control_c, 6, 11, 72
18, 201021, Control_c, 6, 11, 71
18, 201036, Control_c, 6, 11, 70
18, 201052, Control_c, 6, 11, 69
18, 201067, Control_c, 6, 11, 68
18, 201082, Control_c, 6, 11, 67
18, 201098, Control_c, 6, 11, 66
18, 201113, Control_c, 6, 11, 65
18, 201129, Control_c, 6, 11, 64
18, 201144, Control_c, 6, 11, 63
18, 201160, Control_c, 6, 11, 62
18, 201175, Control_c, 6, 11, 61
18, 201191, Control_c, 6, 11, 60
18, 201206, Control_c, 6, 11, 59
18, 201222, Control_c, 6, 11, 58
18, 201237, Control_c, 6, 11, 57
18, 201253, Control_c, 6, 11, 56
18, 201268, Control_c, 6, 11, 55
18, 201284, Control_c, 6, 11, 54
18, 201299, Control_c, 6, 11, 53
18, 201315, Control_c, 6, 11, 52
18, 201330, Control_c, 6, 11, 51
18, 201345, Control_c, 6, 11, 50
18, 201361, Control_c, 6, 11, 49
18, 201376, Control_c, 6, 11, 48
18, 201391, Control_c, 6, 11, 47
18, 201407, Control_c, 6, 11, 46
18, 201422, Control_c, 6, 11, 45
18, 201438, Control_c, 6, 11, 44
18, 201453, Control_c, 6, 11, 43
18, 201469, Control_c, 6, 11, 42
18, 201484, Control_c, 6, 11, 41
18, 201500, Control_c, 6, 11, 40
18, 201515, Control_c, 6, 11, 39
18, 201531, Control_c, 6, 11, 38
18, 201546, Control_c, 6, 11, 37
18, 201562, Control_c, 6, 11, 36
18, 201577, Control_c, 6, 11, 35
18, 201592, Control_c, 6, 11, 34
18, 201608, Control_c, 6, 11, 33
18, 202095, Note_on_c, 6, 74, 100
18, 202104, Note_on_c, 6, 75, 0
18, 202329, Note_on_c, 6, 73, 120
18, 202335, Note_on_c, 6, 74, 0
18, 202569, Note_on_c, 6, 73, 0
18, 202570, Note_on_c, 6, 75, 112
18, 203290, Note_on_c, 6, 75, 0
18, 203290, Note_on_c, 6, 73, 106
18, 203530, Note_on_c, 6, 73, 0
18, 203533, Note_on_c, 6, 75, 117
18, 204004, Note_on_c, 6, 74, 116
18, 204013, Note_on_c, 6, 75, 0
18, 204244, Note_on_c, 6, 74, 0
18, 204253, Note_on_c, 6, 73, 101
18, 204493, Note_on_c, 6, 73, 0
18, 204495, Note_on_c, 6, 75, 100
18, 204735, Note_on_c, 6, 75, 0
18, 204737, Note_on_c, 6, 73, 101
18, 204965, Note_on_c, 6, 75, 105
18, 204977, Note_on_c, 6, 73, 0
18, 205205, Note_on_c, 6, 75, 0
18, 205211, Note_on_c, 6, 73, 107
18, 205451, Note_on_c, 6, 73, 0
18, 205466, Note_on_c, 6, 75, 117
18, 205695, Note_on_c, 6, 73, 110
18, 205706, Note_on_c, 6, 75, 0
18, 205926, Note_on_c, 6, 75, 110
18, 205935, Note_on_c, 6, 73, 0
18, 206166, Note_on_c, 6, 75, 0
18, 206180, Note_on_c, 6, 73, 119
18, 206420, Note_on_c, 6, 73, 0
18, 206428, Note_on_c, 6, 75, 105
18, 206640, Note_on_c, 6, 73, 104
18, 206668, Note_on_c, 6, 75, 0
18, 206880, Note_on_c, 6, 73, 0
18, 206896, Note_on_c, 6, 75, 112
18, 207136, Note_on_c, 6, 75, 0
18, 207142, Note_on_c, 6, 73, 118
18, 207362, Note_on_c, 6, 75, 116
18, 207382, Note_on_c, 6, 73, 0
18, 207602, Note_on_c, 6, 75, 0
18, 207628, Note_on_c, 6, 73, 111
18, 207855, Note_on_c, 6, 75, 110
18, 207868, Note_on_c, 6, 73, 0
18, 208084, Note_on_c, 6, 73, 109
18, 208095, Note_on_c, 6, 75, 0
18, 208322, Note_on_c, 6, 71, 114
18, 208324, Note_on_c, 6, 73, 0
18, 208347, Note_on_c, 6, 75, 109
18, 208481, Note_on_c, 6, 71, 0
18, 208506, Note_on_c, 6, 75, 0
18, 209748, Control_c, 6, 11, 32
18, 209753, Control_c, 6, 11, 33
18, 209759, Control_c, 6, 11, 34
18, 209764, Control_c, 6, 11, 35
18, 209769, Note_on_c, 6, 72, 110
18, 209769, Control_c, 6, 11, 36
18, 209775, Control_c, 6, 11, 37
18, 209780, Control_c, 6, 11, 38
18, 209785, Control_c, 6, 11, 39
18, 209788, Note_on_c, 6, 73, 100
18, 209790, Control_c, 6, 11, 40
18, 209796, Control_c, 6, 11, 41
18, 209801, Note_on_c, 6, 72, 0
18, 209801, Control_c, 6, 11, 42
18, 209805, Note_on_c, 6, 73, 0
18, 209806, Control_c, 6, 11, 43
18, 209811, Control_c, 6, 11, 44
18, 209816, Control_c, 6, 11, 45
18, 209820, Note_on_c, 6, 72, 104
18, 209821, Control_c, 6, 11, 46
18, 209824, Note_on_c, 6, 73, 112
18, 209827, Control_c, 6, 11, 47
18, 209832, Control_c, 6, 11, 48
18, 209837, Control_c, 6, 11, 49
18, 209842, Control_c, 6, 11, 50
18, 209848, Control_c, 6, 11, 51
18, 209853, Control_c, 6, 11, 52
18, 209858, Control_c, 6, 11, 53
18, 209862, Note_on_c, 6, 73, 0
18, 209864, Control_c, 6, 11, 54
18, 209869, Control_c, 6, 11, 55
18, 209873, Note_on_c, 6, 72, 0
18, 209874, Control_c, 6, 11, 56
18, 209879, Control_c, 6, 11, 57
18, 209882, Note_on_c, 6, 73, 112
18, 209884, Control_c, 6, 11, 58
18, 209890, Control_c, 6, 11, 59
18, 209893, Note_on_c, 6, 72, 114
18, 209895, Control_c, 6, 11, 60
18, 209900, Control_c, 6, 11, 61
18, 209905, Control_c, 6, 11, 62
18, 209910, Note_on_c, 6, 73, 0
18, 209910, Control_c, 6, 11, 63
18, 209916, Control_c, 6, 11, 64
18, 209921, Control_c, 6, 11, 65
18, 209925, Note_on_c, 6, 72, 0
18, 209926, Control_c, 6, 11, 66
18, 209929, Note_on_c, 6, 73, 116
18, 209932, Control_c, 6, 11, 67
18, 209937, Control_c, 6, 11, 68
18, 209942, Control_c, 6, 11, 69
18, 209944, Note_on_c, 6, 72, 105
18, 209947, Control_c, 6, 11, 70
18, 209953, Control_c, 6, 11, 71
18, 209958, Control_c, 6, 11, 72
18, 209963, Control_c, 6, 11, 73
18, 209968, Note_on_c, 6, 73, 0
18, 209968, Control_c, 6, 11, 74
18, 209970, Note_on_c, 6, 72, 0
18, 209973, Control_c, 6, 11, 75
18, 209978, Control_c, 6, 11, 76
18, 209984, Control_c, 6, 11, 77
18, 209988, Note_on_c, 6, 73, 120
18, 209989, Note_on_c, 6, 72, 113
18, 209989, Control_c, 6, 11, 78
18, 209994, Control_c, 6, 11, 79
18, 210000, Control_c, 6, 11, 80
18, 210005, Control_c, 6, 11, 81
18, 210010, Control_c, 6, 11, 82
18, 210013, Note_on_c, 6, 72, 0
18, 210015, Control_c, 6, 11, 83
18, 210021, Control_c, 6, 11, 84
18, 210026, Control_c, 6, 11, 85
18, 210029, Note_on_c, 6, 73, 0
18, 210031, Control_c, 6, 11, 86
18, 210032, Note_on_c, 6, 72, 116
18, 210036, Control_c, 6, 11, 87
18, 210041, Control_c, 6, 11, 88
18, 210047, Control_c, 6, 11, 89
18, 210048, Note_on_c, 6, 73, 118
18, 210052, Control_c, 6, 11, 90
18, 210057, Control_c, 6, 11, 91
18, 210062, Control_c, 6, 11, 92
18, 210064, Note_on_c, 6, 72, 0
18, 210067, Control_c, 6, 11, 93
18, 210073, Control_c, 6, 11, 94
18, 210078, Control_c, 6, 11, 95
18, 210083, Control_c, 6, 11, 96
18, 210084, Note_on_c, 6, 72, 114
18, 210085, Note_on_c, 6, 73, 0
18, 210089, Control_c, 6, 11, 97
18, 210094, Control_c, 6, 11, 98
18, 210099, Control_c, 6, 11, 99
18, 210104, Note_on_c, 6, 73, 107
18, 210104, Control_c, 6, 11, 100
18, 210110, Control_c, 6, 11, 101
18, 210115, Control_c, 6, 11, 102
18, 210120, Control_c, 6, 11, 103
18, 210122, Note_on_c, 6, 73, 0
18, 210125, Control_c, 6, 11, 104
18, 210130, Control_c, 6, 11, 105
18, 210135, Control_c, 6, 11, 106
18, 210137, Note_on_c, 6, 72, 0
18, 210141, Control_c, 6, 11, 107
18, 210142, Note_on_c, 6, 73, 106
18, 210146, Control_c, 6, 11, 108
18, 210151, Control_c, 6, 11, 109
18, 210156, Note_on_c, 6, 72, 110
18, 210157, Control_c, 6, 11, 110
18, 210162, Control_c, 6, 11, 111
18, 210167, Control_c, 6, 11, 112
18, 210168, Note_on_c, 6, 72, 0
18, 210172, Control_c, 6, 11, 113
18, 210174, Note_on_c, 6, 73, 0
18, 210178, Control_c, 6, 11, 114
18, 210183, Control_c, 6, 11, 115
18, 210187, Note_on_c, 6, 72, 115
18, 210188, Control_c, 6, 11, 116
18, 210193, Note_on_c, 6, 73, 109
18, 210193, Control_c, 6, 11, 117
18, 210198, Control_c, 6, 11, 118
18, 210204, Control_c, 6, 11, 119
18, 210209, Control_c, 6, 11, 120
18, 210214, Control_c, 6, 11, 121
18, 210219, Control_c, 6, 11, 122
18, 210225, Control_c, 6, 11, 123
18, 210230, Control_c, 6, 11, 124
18, 210235, Control_c, 6, 11, 125
18, 210240, Note_on_c, 6, 72, 0
18, 210240, Control_c, 6, 11, 126
18, 210245, Note_on_c, 6, 73, 0
18, 210246, Control_c, 6, 11, 127
18, 210252, Note_on_c, 6, 78, 118
18, 210264, Note_on_c, 6, 73, 100
18, 210372, Note_on_c, 6, 78, 0
18, 210384, Note_on_c, 6, 73, 0
18, 216738, Note_on_c, 6, 73, 107
18, 216747, Note_on_c, 6, 67, 101
18, 216845, Note_on_c, 6, 73, 0
18, 216854, Note_on_c, 6, 67, 0
18, 217947, Note_on_c, 6, 73, 110
18, 217948, Note_on_c, 6, 67, 94
18, 218054, Note_on_c, 6, 73, 0
18, 218055, Note_on_c, 6, 67, 0
18, 221282, Note_on_c, 6, 73, 98
18, 221288, Note_on_c, 6, 67, 103
18, 221389, Note_on_c, 6, 73, 0
18, 221395, Note_on_c, 6, 67, 0
18, 222981, Note_on_c, 6, 67, 108
18, 222988, Note_on_c, 6, 73, 105
18, 223088, Note_on_c, 6, 67, 0
18, 223095, Note_on_c, 6, 73, 0
18, 224650, Note_on_c, 6, 73, 94
18, 224659, Note_on_c, 6, 72, 81
18, 224680, Note_on_c, 6, 73, 0
18, 224681, Note_on_c, 6, 72, 0
18, 224700, Note_on_c, 6, 72, 86
18, 224705, Note_on_c, 6, 73, 103
18, 224730, Note_on_c, 6, 72, 0
18, 224735, Note_on_c, 6, 73, 0
18, 224768, Note_on_c, 6, 72, 91
18, 224769, Note_on_c, 6, 73, 87
18, 224798, Note_on_c, 6, 72, 0
18, 224799, Note_on_c, 6, 73, 0
18, 224843, Note_on_c, 6, 73, 103
18, 224849, Note_on_c, 6, 72, 100
18, 224863, Note_on_c, 6, 72, 0
18, 224873, Note_on_c, 6, 73, 0
18, 224882, Note_on_c, 6, 72, 111
18, 224905, Note_on_c, 6, 73, 104
18, 224912, Note_on_c, 6, 72, 0
18, 224935, Note_on_c, 6, 73, 0
18, 224954, Note_on_c, 6, 72, 104
18, 224957, Note_on_c, 6, 73, 117
18, 224984, Note_on_c, 6, 72, 0
18, 224987, Note_on_c, 6, 73, 0
18, 225017, Note_on_c, 6, 73, 109
18, 225026, Note_on_c, 6, 72, 108
18, 225047, Note_on_c, 6, 73, 0
18, 225054, Note_on_c, 6, 72, 0
18, 225064, Note_on_c, 6, 73, 112
18, 225073, Note_on_c, 6, 72, 115
18, 225094, Note_on_c, 6, 73, 0
18, 225103, Note_on_c, 6, 72, 0
18, 225135, Note_on_c, 6, 78, 96
18, 225147, Note_on_c, 6, 73, 96
18, 225188, Note_on_c, 6, 78, 0
18, 225200, Note_on_c, 6, 73, 0
18, 229450, Note_on_c, 6, 73, 89
18, 229458, Note_on_c, 6, 72, 89
18, 229480, Note_on_c, 6, 73, 0
18, 229486, Note_on_c, 6, 72, 0
18, 229504, Note_on_c, 6, 73, 100
18, 229505, Note_on_c, 6, 72, 90
18, 229534, Note_on_c, 6, 73, 0
18, 229535, Note_on_c, 6, 72, 0
18, 229570, Note_on_c, 6, 73, 104
18, 229586, Note_on_c, 6, 72, 89
18, 229600, Note_on_c, 6, 73, 0
18, 229616, Note_on_c, 6, 72, 0
18, 229636, Note_on_c, 6, 73, 96
18, 229641, Note_on_c, 6, 72, 96
18, 229666, Note_on_c, 6, 73, 0
18, 229671, Note_on_c, 6, 72, 0
18, 229698, Note_on_c, 6, 72, 100
18, 229703, Note_on_c, 6, 73, 97
18, 229721, Note_on_c, 6, 72, 0
18, 229733, Note_on_c, 6, 73, 0
18, 229740, Note_on_c, 6, 72, 111
18, 229755, Note_on_c, 6, 73, 121
18, 229770, Note_on_c, 6, 72, 0
18, 229785, Note_on_c, 6, 73, 0
18, 229803, Note_on_c, 6, 73, 123
18, 229813, Note_on_c, 6, 72, 105
18, 229833, Note_on_c, 6, 73, 0
18, 229843, Note_on_c, 6, 72, 0
18, 229879, Note_on_c, 6, 73, 121
18, 229885, Note_on_c, 6, 72, 125
18, 229909, Note_on_c, 6, 73, 0
18, 229915, Note_on_c, 6, 72, 0
18, 229930, Note_on_c, 6, 78, 89
18, 229931, Note_on_c, 6, 73, 86
18, 229983, Note_on_c, 6, 78, 0
18, 229984, Note_on_c, 6, 73, 0
18, 234504, Note_on_c, 6, 73, 94
18, 234505, Note_on_c, 6, 72, 95
18, 234534, Note_on_c, 6, 73, 0
18, 234535, Note_on_c, 6, 72, 0
18, 234541, Note_on_c, 6, 73, 83
18, 234561, Note_on_c, 6, 72, 101
18, 234571, Note_on_c, 6, 73, 0
18, 234589, Note_on_c, 6, 72, 0
18, 234608, Note_on_c, 6, 72, 95
18, 234609, Note_on_c, 6, 73, 106
18, 234638, Note_on_c, 6, 72, 0
18, 234639, Note_on_c, 6, 73, 0
18, 234676, Note_on_c, 6, 72, 101
18, 234687, Note_on_c, 6, 73, 103
18, 234703, Note_on_c, 6, 72, 0
18, 234710, Note_on_c, 6, 73, 0
18, 234722, Note_on_c, 6, 72, 103
18, 234730, Note_on_c, 6, 73, 106
18, 234752, Note_on_c, 6, 72, 0
18, 234760, Note_on_c, 6, 73, 0
18, 234796, Note_on_c, 6, 73, 107
18, 234798, Note_on_c, 6, 72, 107
18, 234826, Note_on_c, 6, 73, 0
18, 234828, Note_on_c, 6, 72, 0
18, 234859, Note_on_c, 6, 72, 120
18, 234864, Note_on_c, 6, 73, 109
18, 234889, Note_on_c, 6, 72, 0
18, 234894, Note_on_c, 6, 73, 0
18, 234922, Note_on_c, 6, 73, 121
18, 234924, Note_on_c, 6, 72, 122
18, 234952, Note_on_c, 6, 73, 0
18, 234954, Note_on_c, 6, 72, 0
18, 234973, Note_on_c, 6, 78, 96
18, 234982, Note_on_c, 6, 73, 79
18, 235026, Note_on_c, 6, 78, 0
18, 235035, Note_on_c, 6, 73, 0
18, 240487, Note_on_c, 6, 67, 101
18, 240495, Note_on_c, 6, 73, 109
18, 240594, Note_on_c, 6, 67, 0
18, 240602, Note_on_c, 6, 73, 0
18, 243844, Note_on_c, 6, 73, 93
18, 243845, Note_on_c, 6, 67, 96
18, 243951, Note_on_c, 6, 73, 0
18, 243952, Note_on_c, 6, 67, 0
18, 245047, Note_on_c, 6, 67, 109
18, 245059, Note_on_c, 6, 73, 101
18, 245154, Note_on_c, 6, 67, 0
18, 245166, Note_on_c, 6, 73, 0
18, 246722, Note_on_c, 6, 67, 111
18, 246743, Note_on_c, 6, 73, 98
18, 246829, Note_on_c, 6, 67, 0
18, 246850, Note_on_c, 6, 73, 0
18, 247923, Note_on_c, 6, 73, 104
18, 247948, Note_on_c, 6, 67, 93
18, 248030, Note_on_c, 6, 73, 0
18, 248055, Note_on_c, 6, 67, 0
18, 249142, Note_on_c, 6, 77, 109
18, 249309, Note_on_c, 6, 77, 0
18, 249618, Note_on_c, 6, 77, 96
18, 249785, Note_on_c, 6, 77, 0
18, 250091, Note_on_c, 6, 77, 106
18, 250258, Note_on_c, 6, 77, 0
18, 251282, Note_on_c, 6, 77, 101
18, 251449, Note_on_c, 6, 77, 0
18, 251772, Note_on_c, 6, 77, 108
18, 251939, Note_on_c, 6, 77, 0
18, 252258, Note_on_c, 6, 77, 110
18, 252425, Note_on_c, 6, 77, 0
18, 252745, Note_on_c, 6, 77, 104
18, 252912, Note_on_c, 6, 77, 0
18, 253927, Note_on_c, 6, 65, 104
18, 253939, Note_on_c, 6, 77, 92
18, 254287, Note_on_c, 6, 65, 0
18, 254299, Note_on_c, 6, 77, 0
18, 254410, Note_on_c, 6, 77, 96
18, 254427, Note_on_c, 6, 65, 108
18, 254770, Note_on_c, 6, 77, 0
18, 254787, Note_on_c, 6, 65, 0
18, 254890, Note_on_c, 6, 65, 101
18, 254893, Note_on_c, 6, 77, 91
18, 255250, Note_on_c, 6, 65, 0
18, 255253, Note_on_c, 6, 77, 0
18, 255371, Note_on_c, 6, 65, 109
18, 255388, Note_on_c, 6, 77, 102
18, 255731, Note_on_c, 6, 65, 0
18, 255748, Note_on_c, 6, 77, 0
18, 255840, Note_on_c, 6, 77, 98
18, 255864, Note_on_c, 6, 65, 98
18, 256200, Note_on_c, 6, 77, 0
18, 256224, Note_on_c, 6, 65, 0
18, 256328, Note_on_c, 6, 65, 106
18, 256333, Note_on_c, 6, 77, 111
18, 256688, Note_on_c, 6, 65, 0
18, 256693, Note_on_c, 6, 77, 0
18, 259214, Note_on_c, 6, 77, 101
18, 259219, Note_on_c, 6, 65, 107
18, 259574, Note_on_c, 6, 77, 0
18, 259579, Note_on_c, 6, 65, 0
18, 259698, Note_on_c, 6, 77, 98
18, 259701, Note_on_c, 6, 65, 92
18, 260058, Note_on_c, 6, 77, 0
18, 260061, Note_on_c, 6, 65, 0
18, 260161, Note_on_c, 6, 65, 108
18, 260185, Note_on_c, 6, 77, 108
18, 260521, Note_on_c, 6, 65, 0
18, 260545, Note_on_c, 6, 77, 0
18, 260642, Note_on_c, 6, 65, 108
18, 260665, Note_on_c, 6, 77, 100
18, 261002, Note_on_c, 6, 65, 0
18, 261025, Note_on_c, 6, 77, 0
18, 261124, Note_on_c, 6, 65, 106
18, 261143, Note_on_c, 6, 77, 96
18, 261484, Note_on_c, 6, 65, 0
18, 261503, Note_on_c, 6, 77, 0
18, 261606, Note_on_c, 6, 77, 106
18, 261628, Note_on_c, 6, 65, 95
18, 261966, Note_on_c, 6, 77, 0
18, 261988, Note_on_c, 6, 65, 0
18, 262103, Note_on_c, 6, 65, 106
18, 262106, Note_on_c, 6, 77, 101
18, 262463, Note_on_c, 6, 65, 0
18, 262466, Note_on_c, 6, 77, 0
18, 262560, Note_on_c, 6, 65, 98
18, 262567, Note_on_c, 6, 77, 101
18, 262920, Note_on_c, 6, 65, 0
18, 262927, Note_on_c, 6, 77, 0
18, 263040, Note_on_c, 6, 77, 99
18, 263041, Note_on_c, 6, 65, 111
18, 263400, Note_on_c, 6, 77, 0
18, 263401, Note_on_c, 6, 65, 0
18, 263526, Note_on_c, 6, 79, 93
18, 263547, Note_on_c, 6, 70, 94
18, 263606, Note_on_c, 6, 79, 0
18, 263627, Note_on_c, 6, 70, 0
18, 263686, Note_on_c, 6, 72, 110
18, 263707, Note_on_c, 6, 73, 95
18, 263766, Note_on_c, 6, 72, 0
18, 263787, Note_on_c, 6, 73, 0
18, 263849, Note_on_c, 6, 70, 101
18, 263849, Note_on_c, 6, 79, 102
18, 263929, Note_on_c, 6, 70, 0
18, 263929, Note_on_c, 6, 79, 0
18, 264008, Note_on_c, 6, 72, 111
18, 264025, Note_on_c, 6, 68, 91
18, 264088, Note_on_c, 6, 72, 0
18, 264105, Note_on_c, 6, 68, 0
18, 264178, Note_on_c, 6, 75, 96
18, 264179, Note_on_c, 6, 66, 102
18, 264258, Note_on_c, 6, 75, 0
18, 264259, Note_on_c, 6, 66, 0
18, 264322, Note_on_c, 6, 68, 95
18, 264337, Note_on_c, 6, 72, 91
18, 264402, Note_on_c, 6, 68, 0
18, 264417, Note_on_c, 6, 72, 0
18, 279850, Note_on_c, 6, 68, 120
18, 279852, Note_on_c, 6, 66, 126
18, 279970, Note_on_c, 6, 68, 0
18, 279972, Note_on_c, 6, 66, 0
18, 280084, Note_on_c, 6, 72, 115
18, 280088, Note_on_c, 6, 61, 115
18, 280204, Note_on_c, 6, 72, 0
18, 280208, Note_on_c, 6, 61, 0
18, 280331, Note_on_c, 6, 70, 127
18, 280337, Note_on_c, 6, 68, 119
18, 280411, Note_on_c, 6, 70, 0
18, 280417, Note_on_c, 6, 68, 0
18, 280490, Note_on_c, 6, 70, 127
18, 280491, Note_on_c, 6, 68, 114
18, 280570, Note_on_c, 6, 70, 0
18, 280571, Note_on_c, 6, 68, 0
18, 280645, Note_on_c, 6, 57, 113
18, 280669, Note_on_c, 6, 68, 112
18, 280725, Note_on_c, 6, 57, 0
18, 280749, Note_on_c, 6, 68, 0
18, 280805, Note_on_c, 6, 63, 122
18, 280809, Note_on_c, 6, 65, 113
18, 281045, Note_on_c, 6, 63, 0
18, 281049, Note_on_c, 6, 65, 0
18, 284168, Note_on_c, 6, 68, 118
18, 284188, Note_on_c, 6, 66, 116
18, 284288, Note_on_c, 6, 68, 0
18, 284308, Note_on_c, 6, 66, 0
18, 284409, Note_on_c, 6, 61, 123
18, 284414, Note_on_c, 6, 72, 119
18, 284529, Note_on_c, 6, 61, 0
18, 284534, Note_on_c, 6, 72, 0
18, 284648, Note_on_c, 6, 68, 126
18, 284662, Note_on_c, 6, 70, 117
18, 284728, Note_on_c, 6, 68, 0
18, 284742, Note_on_c, 6, 70, 0
18, 284814, Note_on_c, 6, 68, 112
18, 284815, Note_on_c, 6, 70, 127
18, 284894, Note_on_c, 6, 68, 0
18, 284895, Note_on_c, 6, 70, 0
18, 284975, Note_on_c, 6, 68, 121
18, 284985, Note_on_c, 6, 57, 127
18, 285055, Note_on_c, 6, 68, 0
18, 285065, Note_on_c, 6, 57, 0
18, 286574, Note_on_c, 6, 66, 121
18, 286581, Note_on_c, 6, 68, 127
18, 286694, Note_on_c, 6, 66, 0
18, 286701, Note_on_c, 6, 68, 0
18, 286800, Note_on_c, 6, 61, 123
18, 286811, Note_on_c, 6, 72, 126
18, 286920, Note_on_c, 6, 61, 0
18, 286931, Note_on_c, 6, 72, 0
18, 287044, Note_on_c, 6, 68, 127
18, 287058, Note_on_c, 6, 70, 127
18, 287124, Note_on_c, 6, 68, 0
18, 287138, Note_on_c, 6, 70, 0
18, 287212, Note_on_c, 6, 70, 111
18, 287222, Note_on_c, 6, 68, 127
18, 287292, Note_on_c, 6, 70, 0
18, 287302, Note_on_c, 6, 68, 0
18, 287366, Note_on_c, 6, 57, 125
18, 287379, Note_on_c, 6, 68, 113
18, 287446, Note_on_c, 6, 57, 0
18, 287459, Note_on_c, 6, 68, 0
18, 287544, Note_on_c, 6, 68, 127
18, 287545, Note_on_c, 6, 67, 107
18, 287652, Note_on_c, 6, 70, 115
18, 287664, Note_on_c, 6, 68, 0
18, 287665, Note_on_c, 6, 67, 0
18, 287769, Note_on_c, 6, 66, 115
18, 287770, Note_on_c, 6, 65, 93
18, 287772, Note_on_c, 6, 70, 0
18, 287889, Note_on_c, 6, 66, 0
18, 287890, Note_on_c, 6, 65, 0
18, 287903, Note_on_c, 6, 68, 115
18, 288016, Note_on_c, 6, 61, 121
18, 288023, Note_on_c, 6, 68, 0
18, 288026, Note_on_c, 6, 63, 122
18, 288256, Note_on_c, 6, 61, 0
18, 288266, Note_on_c, 6, 63, 0
18, 290170, Note_on_c, 6, 71, 78
18, 290183, Note_on_c, 6, 73, 71
18, 290216, Note_on_c, 6, 71, 0
18, 290224, Note_on_c, 6, 73, 0
18, 290235, Note_on_c, 6, 71, 81
18, 290244, Note_on_c, 6, 73, 82
18, 290263, Note_on_c, 6, 73, 0
18, 290268, Note_on_c, 6, 71, 0
18, 290282, Note_on_c, 6, 73, 71
18, 290288, Note_on_c, 6, 71, 75
18, 290337, Note_on_c, 6, 71, 0
18, 290342, Note_on_c, 6, 73, 0
18, 290356, Note_on_c, 6, 71, 76
18, 290365, Note_on_c, 6, 73, 74
18, 290383, Note_on_c, 6, 71, 0
18, 290393, Note_on_c, 6, 73, 0
18, 290403, Note_on_c, 6, 71, 85
18, 290412, Note_on_c, 6, 73, 79
18, 290448, Note_on_c, 6, 73, 0
18, 290462, Note_on_c, 6, 71, 0
18, 290467, Note_on_c, 6, 73, 83
18, 290481, Note_on_c, 6, 71, 86
18, 290502, Note_on_c, 6, 71, 0
18, 290506, Note_on_c, 6, 73, 0
18, 290521, Note_on_c, 6, 71, 98
18, 290526, Note_on_c, 6, 73, 93
18, 290565, Note_on_c, 6, 73, 0
18, 290581, Note_on_c, 6, 71, 0
18, 290584, Note_on_c, 6, 73, 102
18, 290601, Note_on_c, 6, 71, 94
18, 290631, Note_on_c, 6, 73, 0
18, 290647, Note_on_c, 6, 78, 67
18, 290650, Note_on_c, 6, 73, 74
18, 290661, Note_on_c, 6, 71, 0
18, 290767, Note_on_c, 6, 78, 0
18, 290770, Note_on_c, 6, 73, 0
18, 291361, Note_on_c, 6, 73, 107
18, 291377, Note_on_c, 6, 67, 106
18, 291468, Note_on_c, 6, 73, 0
18, 291484, Note_on_c, 6, 67, 0
18, 292582, Note_on_c, 6, 73, 111
18, 292583, Note_on_c, 6, 67, 109
18, 292689, Note_on_c, 6, 73, 0
18, 292690, Note_on_c, 6, 67, 0
18, 295922, Note_on_c, 6, 67, 109
18, 295932, Note_on_c, 6, 73, 91
18, 296029, Note_on_c, 6, 67, 0
18, 296039, Note_on_c, 6, 73, 0
18, 297611, Note_on_c, 6, 67, 91
18, 297625, Note_on_c, 6, 73, 100
18, 297718, Note_on_c, 6, 67, 0
18, 297732, Note_on_c, 6, 73, 0
18, 298804, Note_on_c, 6, 67, 104
18, 298825, Note_on_c, 6, 73, 92
18, 298911, Note_on_c, 6, 67, 0
18, 298932, Note_on_c, 6, 73, 0
18, 301457, Note_on_c, 6, 67, 110
18, 301467, Note_on_c, 6, 73, 97
18, 301564, Note_on_c, 6, 67, 0
18, 301574, Note_on_c, 6, 73, 0
18, 304807, Note_on_c, 6, 73, 96
18, 304822, Note_on_c, 6, 67, 101
18, 304914, Note_on_c, 6, 73, 0
18, 304929, Note_on_c, 6, 67, 0
18, 306009, Note_on_c, 6, 67, 107
18, 306022, Note_on_c, 6, 73, 101
18, 306116, Note_on_c, 6, 67, 0
18, 306129, Note_on_c, 6, 73, 0
18, 307694, Note_on_c, 6, 73, 107
18, 307696, Note_on_c, 6, 67, 103
18, 307801, Note_on_c, 6, 73, 0
18, 307803, Note_on_c, 6, 67, 0
18, 308888, Note_on_c, 6, 73, 102
18, 308891, Note_on_c, 6, 67, 91
18, 308995, Note_on_c, 6, 73, 0
18, 308998, Note_on_c, 6, 67, 0
18, 318008, Note_on_c, 6, 76, 88
18, 318012, Note_on_c, 6, 72, 88
18, 318848, Note_on_c, 6, 76, 0
18, 318852, Note_on_c, 6, 72, 0
18, 318960, Note_on_c, 6, 76, 83
18, 318982, Note_on_c, 6, 72, 98
18, 319320, Note_on_c, 6, 76, 0
18, 319342, Note_on_c, 6, 72, 0
18, 319442, Note_on_c, 6, 72, 95
18, 319451, Note_on_c, 6, 76, 81
18, 319802, Note_on_c, 6, 72, 0
18, 319811, Note_on_c, 6, 76, 0
18, 319922, Note_on_c, 6, 72, 95
18, 319949, Note_on_c, 6, 76, 78
18, 320282, Note_on_c, 6, 72, 0
18, 320309, Note_on_c, 6, 76, 0
18, 320404, Note_on_c, 6, 76, 82
18, 320406, Note_on_c, 6, 72, 90
18, 320764, Note_on_c, 6, 76, 0
18, 320766, Note_on_c, 6, 72, 0
18, 320891, Note_on_c, 6, 72, 95
18, 320894, Note_on_c, 6, 76, 97
18, 321251, Note_on_c, 6, 72, 0
18, 321254, Note_on_c, 6, 76, 0
18, 321380, Note_on_c, 6, 76, 97
18, 321383, Note_on_c, 6, 72, 91
18, 322220, Note_on_c, 6, 76, 0
18, 322223, Note_on_c, 6, 72, 0
18, 322330, Note_on_c, 6, 72, 82
18, 322330, Note_on_c, 6, 76, 83
18, 322690, Note_on_c, 6, 72, 0
18, 322690, Note_on_c, 6, 76, 0
18, 322803, Note_on_c, 6, 72, 80
18, 322812, Note_on_c, 6, 76, 96
18, 323163, Note_on_c, 6, 72, 0
18, 323172, Note_on_c, 6, 76, 0
18, 323295, Note_on_c, 6, 76, 81
18, 323307, Note_on_c, 6, 72, 93
18, 323655, Note_on_c, 6, 76, 0
18, 323667, Note_on_c, 6, 72, 0
18, 323781, Note_on_c, 6, 76, 97
18, 323788, Note_on_c, 6, 72, 84
18, 324141, Note_on_c, 6, 76, 0
18, 324148, Note_on_c, 6, 72, 0
18, 340575, Note_on_c, 6, 72, 78
18, 340586, Note_on_c, 6, 76, 84
18, 340935, Note_on_c, 6, 72, 0
18, 340946, Note_on_c, 6, 76, 0
18, 341054, Note_on_c, 6, 72, 92
18, 341061, Note_on_c, 6, 76, 79
18, 341414, Note_on_c, 6, 72, 0
18, 341421, Note_on_c, 6, 76, 0
18, 341521, Note_on_c, 6, 76, 90
18, 341545, Note_on_c, 6, 72, 82
18, 341881, Note_on_c, 6, 76, 0
18, 341905, Note_on_c, 6, 72, 0
18, 342007, Note_on_c, 6, 72, 83
18, 342010, Note_on_c, 6, 76, 94
18, 342367, Note_on_c, 6, 72, 0
18, 342370, Note_on_c, 6, 76, 0
18, 342485, Note_on_c, 6, 76, 91
18, 342488, Note_on_c, 6, 72, 96
18, 342845, Note_on_c, 6, 76, 0
18, 342848, Note_on_c, 6, 72, 0
18, 342963, Note_on_c, 6, 72, 85
18, 342966, Note_on_c, 6, 76, 94
18, 343323, Note_on_c, 6, 72, 0
18, 343326, Note_on_c, 6, 76, 0
18, 343925, Note_on_c, 6, 72, 98
18, 343929, Note_on_c, 6, 76, 89
18, 344285, Note_on_c, 6, 72, 0
18, 344289, Note_on_c, 6, 76, 0
18, 344408, Note_on_c, 6, 72, 93
18, 344428, Note_on_c, 6, 76, 93
18, 344768, Note_on_c, 6, 72, 0
18, 344788, Note_on_c, 6, 76, 0
18, 344882, Note_on_c, 6, 72, 90
18, 344890, Note_on_c, 6, 76, 83
18, 345242, Note_on_c, 6, 72, 0
18, 345250, Note_on_c, 6, 76, 0
18, 345371, Note_on_c, 6, 76, 90
18, 345382, Note_on_c, 6, 72, 86
18, 345731, Note_on_c, 6, 76, 0
18, 345742, Note_on_c, 6, 72, 0
18, 345857, Note_on_c, 6, 72, 94
18, 345859, Note_on_c, 6, 76, 86
18, 346217, Note_on_c, 6, 72, 0
18, 346219, Note_on_c, 6, 76, 0
18, 346334, Note_on_c, 6, 76, 98
18, 346339, Note_on_c, 6, 72, 96
18, 346694, Note_on_c, 6, 76, 0
18, 346699, Note_on_c, 6, 72, 0
18, 346801, Note_on_c, 6, 76, 79
18, 346814, Note_on_c, 6, 72, 78
18, 347161, Note_on_c, 6, 76, 0
18, 347174, Note_on_c, 6, 72, 0
18, 347281, Note_on_c, 6, 72, 86
18, 347304, Note_on_c, 6, 76, 80
18, 347641, Note_on_c, 6, 72, 0
18, 347664, Note_on_c, 6, 76, 0
18, 347762, Note_on_c, 6, 76, 82
18, 347789, Note_on_c, 6, 72, 89
18, 348602, Note_on_c, 6, 76, 0
18, 348629, Note_on_c, 6, 72, 0
18, 348735, Note_on_c, 6, 76, 96
18, 348743, Note_on_c, 6, 72, 83
18, 349095, Note_on_c, 6, 76, 0
18, 349103, Note_on_c, 6, 72, 0
18, 349202, Note_on_c, 6, 72, 83
18, 349224, Note_on_c, 6, 76, 94
18, 349562, Note_on_c, 6, 72, 0
18, 349584, Note_on_c, 6, 76, 0
18, 349690, Note_on_c, 6, 76, 91
18, 349693, Note_on_c, 6, 72, 83
18, 350050, Note_on_c, 6, 76, 0
18, 350053, Note_on_c, 6, 72, 0
18, 350163, Note_on_c, 6, 76, 93
18, 350177, Note_on_c, 6, 72, 86
18, 350523, Note_on_c, 6, 76, 0
18, 350537, Note_on_c, 6, 72, 0
18, 350651, Note_on_c, 6, 72, 96
18, 351011, Note_on_c, 6, 72, 0
18, 351147, Note_on_c, 6, 76, 95
18, 351148, Note_on_c, 6, 72, 88
18, 351507, Note_on_c, 6, 76, 0
18, 351508, Note_on_c, 6, 72, 0
18, 383298, Note_on_c, 6, 76, 110
18, 383307, Note_on_c, 6, 72, 99
18, 383538, Note_on_c, 6, 76, 0
18, 383547, Note_on_c, 6, 72, 0
18, 383760, Note_on_c, 6, 72, 91
18, 383784, Note_on_c, 6, 76, 93
18, 384000, Note_on_c, 6, 72, 0
18, 384024, Note_on_c, 6, 76, 0
18, 384250, Note_on_c, 6, 76, 100
18, 384262, Note_on_c, 6, 72, 107
18, 384490, Note_on_c, 6, 76, 0
18, 384502, Note_on_c, 6, 72, 0
18, 384722, Note_on_c, 6, 76, 91
18, 384730, Note_on_c, 6, 72, 92
18, 384962, Note_on_c, 6, 76, 0
18, 384970, Note_on_c, 6, 72, 0
18, 385203, Note_on_c, 6, 76, 93
18, 385208, Note_on_c, 6, 72, 106
18, 385443, Note_on_c, 6, 76, 0
18, 385448, Note_on_c, 6, 72, 0
18, 385686, Note_on_c, 6, 72, 99
18, 385702, Note_on_c, 6, 76, 105
18, 385926, Note_on_c, 6, 72, 0
18, 385942, Note_on_c, 6, 76, 0
18, 419762, Program_c, 6, 59
18, 421222, Note_on_c, 6, 73, 83
18, 421582, Note_on_c, 6, 73, 0
18, 421706, Note_on_c, 6, 71, 78
18, 421886, Note_on_c, 6, 71, 0
18, 421944, Note_on_c, 6, 73, 79
18, 422004, Note_on_c, 6, 73, 0
18, 422051, Note_on_c, 6, 71, 65
18, 422111, Note_on_c, 6, 71, 0
18, 422165, Note_on_c, 6, 70, 82
18, 422525, Note_on_c, 6, 70, 0
18, 422644, Note_on_c, 6, 68, 69
18, 422824, Note_on_c, 6, 68, 0
18, 422889, Note_on_c, 6, 70, 78
18, 422949, Note_on_c, 6, 70, 0
18, 423009, Note_on_c, 6, 71, 83
18, 423069, Note_on_c, 6, 71, 0
18, 423130, Note_on_c, 6, 68, 80
18, 423490, Note_on_c, 6, 68, 0
18, 423620, Note_on_c, 6, 68, 82
18, 423800, Note_on_c, 6, 68, 0
18, 423858, Note_on_c, 6, 71, 74
18, 424038, Note_on_c, 6, 71, 0
18, 424085, Note_on_c, 6, 73, 66
18, 424445, Note_on_c, 6, 73, 0
18, 424566, Note_on_c, 6, 71, 67
18, 424926, Note_on_c, 6, 71, 0
18, 425040, Note_on_c, 6, 73, 75
18, 425220, Note_on_c, 6, 73, 0
18, 425291, Note_on_c, 6, 71, 68
18, 425471, Note_on_c, 6, 71, 0
18, 425544, Note_on_c, 6, 70, 80
18, 425904, Note_on_c, 6, 70, 0
18, 426012, Note_on_c, 6, 68, 76
18, 426192, Note_on_c, 6, 68, 0
18, 426269, Note_on_c, 6, 70, 66
18, 426329, Note_on_c, 6, 70, 0
18, 426362, Note_on_c, 6, 71, 74
18, 426422, Note_on_c, 6, 71, 0
18, 426498, Note_on_c, 6, 68, 70
18, 426978, Note_on_c, 6, 68, 0
18, 438015, Note_on_c, 6, 73, 106
18, 438375, Note_on_c, 6, 73, 0
18, 438500, Note_on_c, 6, 68, 91
18, 438860, Note_on_c, 6, 68, 0
18, 438978, Note_on_c, 6, 71, 97
18, 439338, Note_on_c, 6, 71, 0
18, 439453, Note_on_c, 6, 66, 100
18, 439813, Note_on_c, 6, 66, 0
18, 439932, Note_on_c, 6, 70, 109
18, 440292, Note_on_c, 6, 70, 0
18, 440423, Note_on_c, 6, 65, 99
18, 440783, Note_on_c, 6, 65, 0
18, 440880, Note_on_c, 6, 74, 99
18, 440919, Note_on_c, 6, 74, 0
18, 440919, Note_on_c, 6, 74, 116
18, 440959, Note_on_c, 6, 74, 0
18, 440960, Note_on_c, 6, 74, 110
18, 441000, Note_on_c, 6, 74, 0
18, 441000, Note_on_c, 6, 74, 117
18, 441039, Note_on_c, 6, 74, 0
18, 441039, Note_on_c, 6, 74, 127
18, 441079, Note_on_c, 6, 74, 0
18, 441080, Note_on_c, 6, 74, 123
18, 441120, Note_on_c, 6, 74, 0
18, 441120, Note_on_c, 6, 74, 124
18, 441159, Note_on_c, 6, 74, 0
18, 441159, Note_on_c, 6, 74, 127
18, 441199, Note_on_c, 6, 74, 0
18, 441200, Note_on_c, 6, 74, 121
18, 441240, Note_on_c, 6, 74, 0
18, 441240, Note_on_c, 6, 74, 115
18, 441279, Note_on_c, 6, 74, 0
18, 441279, Note_on_c, 6, 74, 108
18, 441319, Note_on_c, 6, 74, 0
18, 441320, Note_on_c, 6, 74, 92
18, 441360, Note_on_c, 6, 74, 0
18, 441360, Note_on_c, 6, 74, 98
18, 441399, Note_on_c, 6, 74, 0
18, 441399, Note_on_c, 6, 74, 106
18, 441439, Note_on_c, 6, 74, 0
18, 441440, Note_on_c, 6, 74, 124
18, 441480, Note_on_c, 6, 74, 0
18, 441480, Note_on_c, 6, 74, 116
18, 441519, Note_on_c, 6, 74, 0
18, 441519, Note_on_c, 6, 74, 119
18, 441559, Note_on_c, 6, 74, 0
18, 441560, Note_on_c, 6, 74, 122
18, 441600, Note_on_c, 6, 74, 0
18, 441600, Note_on_c, 6, 74, 127
18, 441639, Note_on_c, 6, 74, 0
18, 441639, Note_on_c, 6, 74, 127
18, 441679, Note_on_c, 6, 74, 0
18, 441680, Note_on_c, 6, 74, 126
18, 441720, Note_on_c, 6, 74, 0
18, 441720, Note_on_c, 6, 74, 122
18, 441759, Note_on_c, 6, 74, 0
18, 441759, Note_on_c, 6, 74, 114
18, 441799, Note_on_c, 6, 74, 0
18, 441800, Note_on_c, 6, 74, 96
18, 441840, Note_on_c, 6, 74, 0
18, 441840, Note_on_c, 6, 76, 97
18, 441879, Note_on_c, 6, 76, 0
18, 441879, Note_on_c, 6, 76, 109
18, 441919, Note_on_c, 6, 76, 0
18, 441920, Note_on_c, 6, 76, 111
18, 441960, Note_on_c, 6, 76, 0
18, 441960, Note_on_c, 6, 76, 113
18, 441999, Note_on_c, 6, 76, 0
18, 441999, Note_on_c, 6, 76, 127
18, 442039, Note_on_c, 6, 76, 0
18, 442040, Note_on_c, 6, 76, 127
18, 442080, Note_on_c, 6, 76, 0
18, 442080, Note_on_c, 6, 76, 120
18, 442119, Note_on_c, 6, 76, 0
18, 442119, Note_on_c, 6, 76, 127
18, 442159, Note_on_c, 6, 76, 0
18, 442160, Note_on_c, 6, 76, 117
18, 442200, Note_on_c, 6, 76, 0
18, 442200, Note_on_c, 6, 76, 124
18, 442239, Note_on_c, 6, 76, 0
18, 442239, Note_on_c, 6, 76, 105
18, 442279, Note_on_c, 6, 76, 0
18, 442280, Note_on_c, 6, 76, 99
18, 442320, Note_on_c, 6, 76, 0
18, 442320, Note_on_c, 6, 76, 107
18, 442359, Note_on_c, 6, 76, 0
18, 442359, Note_on_c, 6, 76, 112
18, 442399, Note_on_c, 6, 76, 0
18, 442400, Note_on_c, 6, 76, 122
18, 442440, Note_on_c, 6, 76, 0
18, 442440, Note_on_c, 6, 76, 123
18, 442479, Note_on_c, 6, 76, 0
18, 442479, Note_on_c, 6, 76, 120
18, 442519, Note_on_c, 6, 76, 0
18, 442520, Note_on_c, 6, 76, 123
18, 442560, Note_on_c, 6, 76, 0
18, 442560, Note_on_c, 6, 76, 117
18, 442599, Note_on_c, 6, 76, 0
18, 442599, Note_on_c, 6, 76, 125
18, 442639, Note_on_c, 6, 76, 0
18, 442640, Note_on_c, 6, 76, 123
18, 442680, Note_on_c, 6, 76, 0
18, 442680, Note_on_c, 6, 76, 110
18, 442719, Note_on_c, 6, 76, 0
18, 442719, Note_on_c, 6, 76, 99
18, 442759, Note_on_c, 6, 76, 0
18, 442760, Note_on_c, 6, 76, 102
18, 442800, Note_on_c, 6, 76, 0
18, 442800, Note_on_c, 6, 77, 109
18, 442839, Note_on_c, 6, 77, 0
18, 442839, Note_on_c, 6, 77, 107
18, 442879, Note_on_c, 6, 77, 0
18, 442880, Note_on_c, 6, 77, 121
18, 442920, Note_on_c, 6, 77, 0
18, 442920, Note_on_c, 6, 77, 119
18, 442959, Note_on_c, 6, 77, 0
18, 442959, Note_on_c, 6, 77, 121
18, 442999, Note_on_c, 6, 77, 0
18, 443000, Note_on_c, 6, 77, 118
18, 443040, Note_on_c, 6, 77, 0
18, 443040, Note_on_c, 6, 77, 125
18, 443079, Note_on_c, 6, 77, 0
18, 443079, Note_on_c, 6, 77, 127
18, 443119, Note_on_c, 6, 77, 0
18, 443120, Note_on_c, 6, 77, 120
18, 443160, Note_on_c, 6, 77, 0
18, 443160, Note_on_c, 6, 77, 124
18, 443199, Note_on_c, 6, 77, 0
18, 443199, Note_on_c, 6, 77, 113
18, 443239, Note_on_c, 6, 77, 0
18, 443240, Note_on_c, 6, 77, 102
18, 443280, Note_on_c, 6, 77, 0
18, 443280, Note_on_c, 6, 77, 109
18, 443319, Note_on_c, 6, 77, 0
18, 443319, Note_on_c, 6, 77, 101
18, 443359, Note_on_c, 6, 77, 0
18, 443360, Note_on_c, 6, 77, 108
18, 443400, Note_on_c, 6, 77, 0
18, 443400, Note_on_c, 6, 77, 111
18, 443439, Note_on_c, 6, 77, 0
18, 443439, Note_on_c, 6, 77, 127
18, 443479, Note_on_c, 6, 77, 0
18, 443480, Note_on_c, 6, 77, 126
18, 443520, Note_on_c, 6, 77, 0
18, 443520, Note_on_c, 6, 77, 126
18, 443559, Note_on_c, 6, 77, 0
18, 448093, Note_on_c, 6, 61, 117
18, 448103, Note_on_c, 6, 69, 106
18, 448200, Note_on_c, 6, 61, 0
18, 448210, Note_on_c, 6, 69, 0
18, 450000, Note_on_c, 6, 61, 115
18, 450024, Note_on_c, 6, 69, 100
18, 450107, Note_on_c, 6, 61, 0
18, 450131, Note_on_c, 6, 69, 0
18, 451933, Note_on_c, 6, 61, 120
18, 451936, Note_on_c, 6, 69, 115
18, 452040, Note_on_c, 6, 61, 0
18, 452043, Note_on_c, 6, 69, 0
18, 457680, Note_on_c, 6, 65, 74
18, 457688, Note_on_c, 6, 70, 73
18, 457708, Note_on_c, 6, 59, 75
18, 457920, Note_on_c, 6, 65, 0
18, 457928, Note_on_c, 6, 70, 0
18, 457948, Note_on_c, 6, 59, 0
18, 458166, Note_on_c, 6, 59, 76
18, 458180, Note_on_c, 6, 70, 83
18, 458188, Note_on_c, 6, 65, 73
18, 458406, Note_on_c, 6, 59, 0
18, 458420, Note_on_c, 6, 70, 0
18, 458428, Note_on_c, 6, 65, 0
18, 458650, Note_on_c, 6, 70, 68
18, 458656, Note_on_c, 6, 65, 67
18, 458656, Note_on_c, 6, 59, 78
18, 458890, Note_on_c, 6, 70, 0
18, 458896, Note_on_c, 6, 65, 0
18, 458896, Note_on_c, 6, 59, 0
18, 459120, Note_on_c, 6, 59, 78
18, 459125, Note_on_c, 6, 65, 77
18, 459137, Note_on_c, 6, 70, 78
18, 459360, Note_on_c, 6, 59, 0
18, 459365, Note_on_c, 6, 65, 0
18, 459377, Note_on_c, 6, 70, 0
18, 459609, Note_on_c, 6, 65, 79
18, 459612, Note_on_c, 6, 59, 84
18, 459629, Note_on_c, 6, 70, 78
18, 459849, Note_on_c, 6, 65, 0
18, 459852, Note_on_c, 6, 59, 0
18, 459869, Note_on_c, 6, 70, 0
18, 460080, Note_on_c, 6, 65, 73
18, 460088, Note_on_c, 6, 59, 76
18, 460093, Note_on_c, 6, 70, 79
18, 460320, Note_on_c, 6, 65, 0
18, 460328, Note_on_c, 6, 59, 0
18, 460333, Note_on_c, 6, 70, 0
18, 460560, Note_on_c, 6, 59, 65
18, 460567, Note_on_c, 6, 70, 68
18, 460575, Note_on_c, 6, 65, 71
18, 460800, Note_on_c, 6, 59, 0
18, 460807, Note_on_c, 6, 70, 0
18, 460815, Note_on_c, 6, 65, 0
18, 461040, Note_on_c, 6, 59, 71
18, 461055, Note_on_c, 6, 70, 74
18, 461061, Note_on_c, 6, 65, 69
18, 461280, Note_on_c, 6, 59, 0
18, 461295, Note_on_c, 6, 70, 0
18, 461301, Note_on_c, 6, 65, 0
18, 461522, Note_on_c, 6, 65, 82
18, 461534, Note_on_c, 6, 70, 66
18, 461539, Note_on_c, 6, 59, 85
18, 461762, Note_on_c, 6, 65, 0
18, 461774, Note_on_c, 6, 70, 0
18, 461779, Note_on_c, 6, 59, 0
18, 462003, Note_on_c, 6, 70, 65
18, 462005, Note_on_c, 6, 59, 84
18, 462005, Note_on_c, 6, 65, 72
18, 462243, Note_on_c, 6, 70, 0
18, 462245, Note_on_c, 6, 59, 0
18, 462245, Note_on_c, 6, 65, 0
18, 462481, Note_on_c, 6, 65, 65
18, 462485, Note_on_c, 6, 70, 66
18, 462499, Note_on_c, 6, 59, 79
18, 462721, Note_on_c, 6, 65, 0
18, 462725, Note_on_c, 6, 70, 0
18, 462739, Note_on_c, 6, 59, 0
18, 462969, Note_on_c, 6, 59, 71
18, 462979, Note_on_c, 6, 65, 66
18, 462981, Note_on_c, 6, 70, 80
18, 463209, Note_on_c, 6, 59, 0
18, 463219, Note_on_c, 6, 65, 0
18, 463221, Note_on_c, 6, 70, 0
18, 463447, Note_on_c, 6, 70, 65
18, 463448, Note_on_c, 6, 59, 70
18, 463460, Note_on_c, 6, 65, 81
18, 463687, Note_on_c, 6, 70, 0
18, 463688, Note_on_c, 6, 59, 0
18, 463700, Note_on_c, 6, 65, 0
18, 463927, Note_on_c, 6, 65, 83
18, 463928, Note_on_c, 6, 70, 70
18, 463933, Note_on_c, 6, 59, 66
18, 464167, Note_on_c, 6, 65, 0
18, 464168, Note_on_c, 6, 70, 0
18, 464173, Note_on_c, 6, 59, 0
18, 464405, Note_on_c, 6, 70, 66
18, 464419, Note_on_c, 6, 65, 73
18, 464420, Note_on_c, 6, 59, 71
18, 464645, Note_on_c, 6, 70, 0
18, 464659, Note_on_c, 6, 65, 0
18, 464660, Note_on_c, 6, 59, 0
18, 464883, Note_on_c, 6, 70, 70
18, 464896, Note_on_c, 6, 59, 75
18, 464902, Note_on_c, 6, 65, 70
18, 465123, Note_on_c, 6, 70, 0
18, 465136, Note_on_c, 6, 59, 0
18, 465142, Note_on_c, 6, 65, 0
18, 465375, Note_on_c, 6, 65, 75
18, 465378, Note_on_c, 6, 70, 69
18, 465379, Note_on_c, 6, 59, 75
18, 465615, Note_on_c, 6, 65, 0
18, 465618, Note_on_c, 6, 70, 0
18, 465619, Note_on_c, 6, 59, 0
18, 465842, Note_on_c, 6, 65, 74
18, 465844, Note_on_c, 6, 59, 71
18, 465856, Note_on_c, 6, 70, 83
18, 466082, Note_on_c, 6, 65, 0
18, 466084, Note_on_c, 6, 59, 0
18, 466096, Note_on_c, 6, 70, 0
18, 466323, Note_on_c, 6, 65, 67
18, 466335, Note_on_c, 6, 70, 74
18, 466345, Note_on_c, 6, 59, 79
18, 466563, Note_on_c, 6, 65, 0
18, 466575, Note_on_c, 6, 70, 0
18, 466585, Note_on_c, 6, 59, 0
18, 466801, Note_on_c, 6, 59, 71
18, 466819, Note_on_c, 6, 70, 84
18, 466823, Note_on_c, 6, 65, 69
18, 467041, Note_on_c, 6, 59, 0
18, 467059, Note_on_c, 6, 70, 0
18, 467063, Note_on_c, 6, 65, 0
18, 492122, Note_on_c, 6, 69, 111
18, 492132, Note_on_c, 6, 72, 102
18, 492137, Note_on_c, 6, 66, 109
18, 492169, Note_on_c, 6, 69, 0
18, 492179, Note_on_c, 6, 72, 0
18, 492184, Note_on_c, 6, 66, 0
18, 493563, Note_on_c, 6, 72, 114
18, 493568, Note_on_c, 6, 66, 113
18, 493572, Note_on_c, 6, 69, 111
18, 493610, Note_on_c, 6, 72, 0
18, 493615, Note_on_c, 6, 66, 0
18, 493619, Note_on_c, 6, 69, 0
18, 494532, Note_on_c, 6, 66, 96
18, 494533, Note_on_c, 6, 70, 78
18, 494534, Note_on_c, 6, 75, 97
18, 494675, Note_on_c, 6, 66, 0
18, 494676, Note_on_c, 6, 70, 0
18, 494677, Note_on_c, 6, 75, 0
18, 494767, Note_on_c, 6, 66, 82
18, 494776, Note_on_c, 6, 75, 83
18, 494778, Note_on_c, 6, 70, 89
18, 494910, Note_on_c, 6, 66, 0
18, 494919, Note_on_c, 6, 75, 0
18, 494921, Note_on_c, 6, 70, 0
18, 495003, Note_on_c, 6, 75, 91
18, 495009, Note_on_c, 6, 70, 87
18, 495016, Note_on_c, 6, 66, 88
18, 495063, Note_on_c, 6, 75, 0
18, 495069, Note_on_c, 6, 70, 0
18, 495076, Note_on_c, 6, 66, 0
18, 495125, Note_on_c, 6, 70, 84
18, 495136, Note_on_c, 6, 79, 79
18, 495139, Note_on_c, 6, 75, 80
18, 495197, Note_on_c, 6, 70, 0
18, 495208, Note_on_c, 6, 79, 0
18, 495211, Note_on_c, 6, 75, 0
18, 495240, Note_on_c, 6, 66, 83
18, 495248, Note_on_c, 6, 75, 98
18, 495264, Note_on_c, 6, 70, 95
18, 495300, Note_on_c, 6, 66, 0
18, 495308, Note_on_c, 6, 75, 0
18, 495324, Note_on_c, 6, 70, 0
18, 495481, Note_on_c, 6, 66, 116
18, 495493, Note_on_c, 6, 72, 100
18, 495493, Note_on_c, 6, 69, 115
18, 495528, Note_on_c, 6, 66, 0
18, 495540, Note_on_c, 6, 72, 0
18, 495540, Note_on_c, 6, 69, 0
18, 495723, Note_on_c, 6, 66, 120
18, 495725, Note_on_c, 6, 69, 116
18, 495742, Note_on_c, 6, 72, 111
18, 495770, Note_on_c, 6, 66, 0
18, 495772, Note_on_c, 6, 69, 0
18, 495789, Note_on_c, 6, 72, 0
18, 495960, Note_on_c, 6, 66, 116
18, 495975, Note_on_c, 6, 69, 104
18, 495983, Note_on_c, 6, 72, 109
18, 496320, Note_on_c, 6, 66, 0
18, 496335, Note_on_c, 6, 69, 0
18, 496343, Note_on_c, 6, 72, 0
18, 496693, Note_on_c, 6, 70, 91
18, 496699, Note_on_c, 6, 75, 81
18, 496703, Note_on_c, 6, 66, 90
18, 496765, Note_on_c, 6, 70, 0
18, 496771, Note_on_c, 6, 75, 0
18, 496775, Note_on_c, 6, 66, 0
18, 496804, Note_on_c, 6, 66, 91
18, 496807, Note_on_c, 6, 75, 98
18, 496826, Note_on_c, 6, 70, 84
18, 496876, Note_on_c, 6, 66, 0
18, 496879, Note_on_c, 6, 75, 0
18, 496898, Note_on_c, 6, 70, 0
18, 496928, Note_on_c, 6, 70, 78
18, 496937, Note_on_c, 6, 66, 80
18, 496939, Note_on_c, 6, 75, 85
18, 497000, Note_on_c, 6, 70, 0
18, 497009, Note_on_c, 6, 66, 0
18, 497011, Note_on_c, 6, 75, 0
18, 497043, Note_on_c, 6, 70, 84
18, 497064, Note_on_c, 6, 78, 86
18, 497065, Note_on_c, 6, 75, 80
18, 497115, Note_on_c, 6, 70, 0
18, 497136, Note_on_c, 6, 78, 0
18, 497137, Note_on_c, 6, 75, 0
18, 497173, Note_on_c, 6, 66, 89
18, 497182, Note_on_c, 6, 75, 83
18, 497184, Note_on_c, 6, 70, 95
18, 497220, Note_on_c, 6, 66, 0
18, 497229, Note_on_c, 6, 75, 0
18, 497231, Note_on_c, 6, 70, 0
18, 498010, Note_on_c, 6, 72, 117
18, 498022, Note_on_c, 6, 69, 111
18, 498024, Note_on_c, 6, 66, 113
18, 498057, Note_on_c, 6, 72, 0
18, 498069, Note_on_c, 6, 69, 0
18, 498071, Note_on_c, 6, 66, 0
18, 498252, Note_on_c, 6, 69, 110
18, 498254, Note_on_c, 6, 72, 104
18, 498257, Note_on_c, 6, 66, 106
18, 498299, Note_on_c, 6, 69, 0
18, 498301, Note_on_c, 6, 72, 0
18, 498304, Note_on_c, 6, 66, 0
18, 498498, Note_on_c, 6, 69, 114
18, 498500, Note_on_c, 6, 72, 101
18, 498502, Note_on_c, 6, 66, 112
18, 498858, Note_on_c, 6, 69, 0
18, 498860, Note_on_c, 6, 72, 0
18, 498862, Note_on_c, 6, 66, 0
18, 502933, Note_on_c, 6, 75, 114
18, 502943, Note_on_c, 6, 70, 116
18, 502948, Note_on_c, 6, 66, 112
18, 502980, Note_on_c, 6, 75, 0
18, 502990, Note_on_c, 6, 70, 0
18, 502995, Note_on_c, 6, 66, 0
18, 503046, Note_on_c, 6, 75, 106
18, 503057, Note_on_c, 6, 70, 110
18, 503060, Note_on_c, 6, 78, 115
18, 503093, Note_on_c, 6, 75, 0
18, 503104, Note_on_c, 6, 70, 0
18, 503107, Note_on_c, 6, 78, 0
18, 503522, Note_on_c, 6, 66, 105
18, 503527, Note_on_c, 6, 75, 117
18, 503530, Note_on_c, 6, 70, 107
18, 503569, Note_on_c, 6, 66, 0
18, 503574, Note_on_c, 6, 75, 0
18, 503577, Note_on_c, 6, 70, 0
18, 503645, Note_on_c, 6, 78, 119
18, 503653, Note_on_c, 6, 70, 109
18, 503666, Note_on_c, 6, 75, 112
18, 503692, Note_on_c, 6, 78, 0
18, 503700, Note_on_c, 6, 70, 0
18, 503713, Note_on_c, 6, 75, 0
18, 503886, Note_on_c, 6, 70, 118
18, 503887, Note_on_c, 6, 77, 119
18, 503888, Note_on_c, 6, 78, 101
18, 503933, Note_on_c, 6, 70, 0
18, 503934, Note_on_c, 6, 77, 0
18, 503935, Note_on_c, 6, 78, 0
18, 513600, Note_on_c, 6, 72, 78
18, 513657, Note_on_c, 6, 72, 0
18, 513696, Note_on_c, 6, 72, 85
18, 513753, Note_on_c, 6, 72, 0
18, 513804, Note_on_c, 6, 71, 97
18, 513861, Note_on_c, 6, 71, 0
18, 513901, Note_on_c, 6, 71, 90
18, 513958, Note_on_c, 6, 71, 0
18, 513989, Note_on_c, 6, 70, 94
18, 514047, Note_on_c, 6, 70, 0
18, 514088, Note_on_c, 6, 70, 95
18, 514160, Note_on_c, 6, 70, 0
18, 515302, Note_on_c, 6, 70, 106
18, 515595, Note_on_c, 6, 70, 0
18, 527286, Note_on_c, 6, 68, 78
18, 527343, Note_on_c, 6, 68, 0
18, 527402, Note_on_c, 6, 68, 81
18, 527459, Note_on_c, 6, 68, 0
18, 527487, Note_on_c, 6, 67, 90
18, 527544, Note_on_c, 6, 67, 0
18, 527578, Note_on_c, 6, 67, 91
18, 527635, Note_on_c, 6, 67, 0
18, 527688, Note_on_c, 6, 66, 93
18, 527746, Note_on_c, 6, 66, 0
18, 527788, Note_on_c, 6, 66, 87
18, 527860, Note_on_c, 6, 66, 0
18, 529461, Note_on_c, 6, 68, 79
18, 529518, Note_on_c, 6, 68, 0
18, 529548, Note_on_c, 6, 68, 96
18, 529605, Note_on_c, 6, 68, 0
18, 529649, Note_on_c, 6, 67, 93
18, 529706, Note_on_c, 6, 67, 0
18, 529738, Note_on_c, 6, 67, 86
18, 529795, Note_on_c, 6, 67, 0
18, 529832, Note_on_c, 6, 66, 97
18, 529890, Note_on_c, 6, 66, 0
18, 529948, Note_on_c, 6, 66, 97
18, 530020, Note_on_c, 6, 66, 0
18, 535920, Note_on_c, 6, 70, 95
18, 535923, Note_on_c, 6, 81, 94
18, 536040, Note_on_c, 6, 70, 0
18, 536043, Note_on_c, 6, 81, 0
18, 536178, Note_on_c, 6, 68, 110
18, 536182, Note_on_c, 6, 79, 101
18, 536298, Note_on_c, 6, 68, 0
18, 536302, Note_on_c, 6, 79, 0
18, 536414, Note_on_c, 6, 67, 110
18, 536417, Note_on_c, 6, 78, 102
18, 536534, Note_on_c, 6, 67, 0
18, 536537, Note_on_c, 6, 78, 0
18, 536647, Note_on_c, 6, 76, 102
18, 536658, Note_on_c, 6, 65, 92
18, 536767, Note_on_c, 6, 76, 0
18, 536778, Note_on_c, 6, 65, 0
18, 536900, Note_on_c, 6, 63, 109
18, 536905, Note_on_c, 6, 74, 107
18, 537020, Note_on_c, 6, 63, 0
18, 537025, Note_on_c, 6, 74, 0
18, 537130, Note_on_c, 6, 61, 100
18, 537142, Note_on_c, 6, 72, 98
18, 537250, Note_on_c, 6, 61, 0
18, 537262, Note_on_c, 6, 72, 0
18, 537363, Note_on_c, 6, 67, 98
18, 537372, Note_on_c, 6, 56, 110
18, 537423, Note_on_c, 6, 67, 0
18, 537432, Note_on_c, 6, 56, 0
18, 544101, Note_on_c, 6, 70, 92
18, 544149, Note_on_c, 6, 70, 0
18, 544180, Note_on_c, 6, 70, 91
18, 544228, Note_on_c, 6, 70, 0
18, 544294, Note_on_c, 6, 69, 97
18, 544342, Note_on_c, 6, 69, 0
18, 544390, Note_on_c, 6, 69, 94
18, 544438, Note_on_c, 6, 69, 0
18, 544490, Note_on_c, 6, 68, 94
18, 544538, Note_on_c, 6, 68, 0
18, 544583, Note_on_c, 6, 68, 82
18, 544655, Note_on_c, 6, 68, 0
18, 550811, Note_on_c, 6, 75, 102
18, 550817, Note_on_c, 6, 78, 109
18, 550931, Note_on_c, 6, 75, 0
18, 550937, Note_on_c, 6, 78, 0
18, 552365, Note_on_c, 6, 71, 112
18, 552369, Note_on_c, 6, 68, 110
18, 552388, Note_on_c, 6, 65, 105
18, 552412, Note_on_c, 6, 71, 0
18, 552416, Note_on_c, 6, 68, 0
18, 552435, Note_on_c, 6, 65, 0
18, 553808, Note_on_c, 6, 68, 111
18, 553825, Note_on_c, 6, 71, 107
18, 553828, Note_on_c, 6, 65, 104
18, 553855, Note_on_c, 6, 68, 0
18, 553872, Note_on_c, 6, 71, 0
18, 553875, Note_on_c, 6, 65, 0
18, 554769, Note_on_c, 6, 74, 86
18, 554771, Note_on_c, 6, 69, 88
18, 554781, Note_on_c, 6, 65, 92
18, 554912, Note_on_c, 6, 74, 0
18, 554914, Note_on_c, 6, 69, 0
18, 554924, Note_on_c, 6, 65, 0
18, 555005, Note_on_c, 6, 65, 98
18, 555009, Note_on_c, 6, 69, 87
18, 555015, Note_on_c, 6, 74, 80
18, 555148, Note_on_c, 6, 65, 0
18, 555152, Note_on_c, 6, 69, 0
18, 555158, Note_on_c, 6, 74, 0
18, 555241, Note_on_c, 6, 74, 95
18, 555248, Note_on_c, 6, 69, 98
18, 555252, Note_on_c, 6, 65, 95
18, 555301, Note_on_c, 6, 74, 0
18, 555308, Note_on_c, 6, 69, 0
18, 555312, Note_on_c, 6, 65, 0
18, 555362, Note_on_c, 6, 78, 92
18, 555370, Note_on_c, 6, 74, 80
18, 555378, Note_on_c, 6, 69, 97
18, 555434, Note_on_c, 6, 78, 0
18, 555442, Note_on_c, 6, 74, 0
18, 555450, Note_on_c, 6, 69, 0
18, 555486, Note_on_c, 6, 65, 82
18, 555503, Note_on_c, 6, 69, 86
18, 555503, Note_on_c, 6, 74, 97
18, 555546, Note_on_c, 6, 65, 0
18, 555563, Note_on_c, 6, 69, 0
18, 555563, Note_on_c, 6, 74, 0
18, 555731, Note_on_c, 6, 68, 106
18, 555733, Note_on_c, 6, 65, 103
18, 555743, Note_on_c, 6, 71, 114
18, 555778, Note_on_c, 6, 68, 0
18, 555780, Note_on_c, 6, 65, 0
18, 555790, Note_on_c, 6, 71, 0
18, 555963, Note_on_c, 6, 71, 102
18, 555970, Note_on_c, 6, 68, 106
18, 555984, Note_on_c, 6, 65, 103
18, 556010, Note_on_c, 6, 71, 0
18, 556017, Note_on_c, 6, 68, 0
18, 556031, Note_on_c, 6, 65, 0
18, 556200, Control_c, 6, 11, 64
18, 556205, Control_c, 6, 11, 65
18, 556211, Control_c, 6, 11, 66
18, 556213, Note_on_c, 6, 68, 108
18, 556217, Control_c, 6, 11, 67
18, 556219, Note_on_c, 6, 65, 117
18, 556222, Control_c, 6, 11, 68
18, 556222, Note_on_c, 6, 71, 112
18, 556228, Control_c, 6, 11, 69
18, 556234, Control_c, 6, 11, 70
18, 556240, Control_c, 6, 11, 71
18, 556245, Control_c, 6, 11, 72
18, 556251, Control_c, 6, 11, 73
18, 556257, Control_c, 6, 11, 74
18, 556262, Control_c, 6, 11, 75
18, 556268, Control_c, 6, 11, 76
18, 556274, Control_c, 6, 11, 77
18, 556280, Control_c, 6, 11, 78
18, 556285, Control_c, 6, 11, 79
18, 556291, Control_c, 6, 11, 80
18, 556297, Control_c, 6, 11, 81
18, 556302, Control_c, 6, 11, 82
18, 556308, Control_c, 6, 11, 83
18, 556314, Control_c, 6, 11, 84
18, 556320, Control_c, 6, 11, 85
18, 556325, Control_c, 6, 11, 86
18, 556331, Control_c, 6, 11, 87
18, 556337, Control_c, 6, 11, 88
18, 556342, Control_c, 6, 11, 89
18, 556348, Control_c, 6, 11, 90
18, 556354, Control_c, 6, 11, 91
18, 556360, Control_c, 6, 11, 92
18, 556365, Control_c, 6, 11, 93
18, 556371, Control_c, 6, 11, 94
18, 556377, Control_c, 6, 11, 95
18, 556382, Control_c, 6, 11, 96
18, 556388, Control_c, 6, 11, 97
18, 556394, Control_c, 6, 11, 98
18, 556400, Control_c, 6, 11, 99
18, 556405, Control_c, 6, 11, 100
18, 556411, Control_c, 6, 11, 101
18, 556417, Control_c, 6, 11, 102
18, 556422, Control_c, 6, 11, 103
18, 556428, Control_c, 6, 11, 104
18, 556434, Control_c, 6, 11, 105
18, 556440, Control_c, 6, 11, 106
18, 556445, Control_c, 6, 11, 107
18, 556451, Control_c, 6, 11, 108
18, 556457, Control_c, 6, 11, 109
18, 556462, Control_c, 6, 11, 110
18, 556468, Control_c, 6, 11, 111
18, 556474, Control_c, 6, 11, 112
18, 556480, Control_c, 6, 11, 113
18, 556485, Control_c, 6, 11, 114
18, 556491, Control_c, 6, 11, 115
18, 556497, Control_c, 6, 11, 116
18, 556502, Control_c, 6, 11, 117
18, 556508, Control_c, 6, 11, 118
18, 556514, Control_c, 6, 11, 119
18, 556520, Control_c, 6, 11, 120
18, 556525, Control_c, 6, 11, 121
18, 556531, Control_c, 6, 11, 122
18, 556537, Control_c, 6, 11, 123
18, 556542, Control_c, 6, 11, 124
18, 556548, Control_c, 6, 11, 125
18, 556554, Control_c, 6, 11, 126
18, 556560, Control_c, 6, 11, 127
18, 556573, Note_on_c, 6, 68, 0
18, 556579, Note_on_c, 6, 65, 0
18, 556582, Note_on_c, 6, 71, 0
18, 556928, Note_on_c, 6, 65, 93
18, 556936, Note_on_c, 6, 74, 83
18, 556940, Note_on_c, 6, 69, 92
18, 557000, Note_on_c, 6, 65, 0
18, 557008, Note_on_c, 6, 74, 0
18, 557012, Note_on_c, 6, 69, 0
18, 557053, Note_on_c, 6, 69, 84
18, 557054, Note_on_c, 6, 65, 90
18, 557059, Note_on_c, 6, 74, 91
18, 557125, Note_on_c, 6, 69, 0
18, 557126, Note_on_c, 6, 65, 0
18, 557131, Note_on_c, 6, 74, 0
18, 557163, Note_on_c, 6, 74, 98
18, 557169, Note_on_c, 6, 65, 96
18, 557186, Note_on_c, 6, 69, 83
18, 557235, Note_on_c, 6, 74, 0
18, 557241, Note_on_c, 6, 65, 0
18, 557258, Note_on_c, 6, 69, 0
18, 557282, Note_on_c, 6, 69, 95
18, 557295, Note_on_c, 6, 77, 88
18, 557301, Note_on_c, 6, 74, 88
18, 557354, Note_on_c, 6, 69, 0
18, 557367, Note_on_c, 6, 77, 0
18, 557373, Note_on_c, 6, 74, 0
18, 557410, Note_on_c, 6, 65, 93
18, 557411, Note_on_c, 6, 74, 80
18, 557411, Note_on_c, 6, 69, 80
18, 557457, Note_on_c, 6, 65, 0
18, 557458, Note_on_c, 6, 74, 0
18, 557458, Note_on_c, 6, 69, 0
18, 558255, Note_on_c, 6, 65, 104
18, 558267, Note_on_c, 6, 71, 107
18, 558268, Note_on_c, 6, 68, 100
18, 558302, Note_on_c, 6, 65, 0
18, 558314, Note_on_c, 6, 71, 0
18, 558315, Note_on_c, 6, 68, 0
18, 558482, Note_on_c, 6, 71, 102
18, 558501, Note_on_c, 6, 65, 106
18, 558508, Note_on_c, 6, 68, 118
18, 558529, Note_on_c, 6, 71, 0
18, 558548, Note_on_c, 6, 65, 0
18, 558555, Note_on_c, 6, 68, 0
18, 558720, Control_c, 6, 11, 64
18, 558725, Control_c, 6, 11, 65
18, 558731, Note_on_c, 6, 65, 107
18, 558731, Control_c, 6, 11, 66
18, 558737, Control_c, 6, 11, 67
18, 558738, Note_on_c, 6, 71, 104
18, 558742, Control_c, 6, 11, 68
18, 558742, Note_on_c, 6, 68, 101
18, 558748, Control_c, 6, 11, 69
18, 558754, Control_c, 6, 11, 70
18, 558760, Control_c, 6, 11, 71
18, 558765, Control_c, 6, 11, 72
18, 558771, Control_c, 6, 11, 73
18, 558777, Control_c, 6, 11, 74
18, 558782, Control_c, 6, 11, 75
18, 558788, Control_c, 6, 11, 76
18, 558794, Control_c, 6, 11, 77
18, 558800, Control_c, 6, 11, 78
18, 558805, Control_c, 6, 11, 79
18, 558811, Control_c, 6, 11, 80
18, 558817, Control_c, 6, 11, 81
18, 558822, Control_c, 6, 11, 82
18, 558828, Control_c, 6, 11, 83
18, 558834, Control_c, 6, 11, 84
18, 558840, Control_c, 6, 11, 85
18, 558845, Control_c, 6, 11, 86
18, 558851, Control_c, 6, 11, 87
18, 558857, Control_c, 6, 11, 88
18, 558862, Control_c, 6, 11, 89
18, 558868, Control_c, 6, 11, 90
18, 558874, Control_c, 6, 11, 91
18, 558880, Control_c, 6, 11, 92
18, 558885, Control_c, 6, 11, 93
18, 558891, Control_c, 6, 11, 94
18, 558897, Control_c, 6, 11, 95
18, 558902, Control_c, 6, 11, 96
18, 558908, Control_c, 6, 11, 97
18, 558914, Control_c, 6, 11, 98
18, 558920, Control_c, 6, 11, 99
18, 558925, Control_c, 6, 11, 100
18, 558931, Control_c, 6, 11, 101
18, 558937, Control_c, 6, 11, 102
18, 558942, Control_c, 6, 11, 103
18, 558948, Control_c, 6, 11, 104
18, 558954, Control_c, 6, 11, 105
18, 558960, Control_c, 6, 11, 106
18, 558965, Control_c, 6, 11, 107
18, 558971, Control_c, 6, 11, 108
18, 558977, Control_c, 6, 11, 109
18, 558982, Control_c, 6, 11, 110
18, 558988, Control_c, 6, 11, 111
18, 558994, Control_c, 6, 11, 112
18, 559000, Control_c, 6, 11, 113
18, 559005, Control_c, 6, 11, 114
18, 559011, Control_c, 6, 11, 115
18, 559017, Control_c, 6, 11, 116
18, 559022, Control_c, 6, 11, 117
18, 559028, Control_c, 6, 11, 118
18, 559034, Control_c, 6, 11, 119
18, 559040, Control_c, 6, 11, 120
18, 559045, Control_c, 6, 11, 121
18, 559051, Control_c, 6, 11, 122
18, 559057, Control_c, 6, 11, 123
18, 559062, Control_c, 6, 11, 124
18, 559068, Control_c, 6, 11, 125
18, 559074, Control_c, 6, 11, 126
18, 559080, Control_c, 6, 11, 127
18, 559091, Note_on_c, 6, 65, 0
18, 559098, Note_on_c, 6, 71, 0
18, 559102, Note_on_c, 6, 68, 0
18, 563160, Note_on_c, 6, 65, 100
18, 563179, Note_on_c, 6, 69, 103
18, 563185, Note_on_c, 6, 74, 109
18, 563207, Note_on_c, 6, 65, 0
18, 563226, Note_on_c, 6, 69, 0
18, 563232, Note_on_c, 6, 74, 0
18, 563282, Note_on_c, 6, 77, 94
18, 563303, Note_on_c, 6, 69, 95
18, 563307, Note_on_c, 6, 74, 111
18, 563329, Note_on_c, 6, 77, 0
18, 563350, Note_on_c, 6, 69, 0
18, 563354, Note_on_c, 6, 74, 0
18, 563764, Note_on_c, 6, 69, 105
18, 563771, Note_on_c, 6, 65, 111
18, 563783, Note_on_c, 6, 74, 95
18, 563811, Note_on_c, 6, 69, 0
18, 563818, Note_on_c, 6, 65, 0
18, 563830, Note_on_c, 6, 74, 0
18, 563890, Note_on_c, 6, 72, 111
18, 563891, Note_on_c, 6, 77, 110
18, 563903, Note_on_c, 6, 69, 109
18, 563937, Note_on_c, 6, 72, 0
18, 563938, Note_on_c, 6, 77, 0
18, 563950, Note_on_c, 6, 69, 0
18, 564123, Note_on_c, 6, 76, 106
18, 564136, Note_on_c, 6, 77, 95
18, 564145, Note_on_c, 6, 69, 94
18, 564170, Note_on_c, 6, 76, 0
18, 564183, Note_on_c, 6, 77, 0
18, 564192, Note_on_c, 6, 69, 0
18, 576243, Note_on_c, 6, 62, 83
18, 578398, Note_on_c, 6, 62, 0
18, 578417, Note_on_c, 6, 62, 88
18, 578657, Note_on_c, 6, 62, 0
18, 578884, Note_on_c, 6, 64, 78
18, 579004, Note_on_c, 6, 64, 0
18, 579141, Note_on_c, 6, 62, 78
18, 579261, Note_on_c, 6, 62, 0
18, 579361, Note_on_c, 6, 64, 88
18, 579601, Note_on_c, 6, 64, 0
18, 579843, Note_on_c, 6, 66, 79
18, 580563, Note_on_c, 6, 66, 0
18, 582252, Note_on_c, 6, 72, 93
18, 582266, Note_on_c, 6, 67, 78
18, 583228, Note_on_c, 6, 74, 82
18, 583466, Note_on_c, 6, 67, 0
18, 583691, Note_on_c, 6, 76, 81
18, 583708, Note_on_c, 6, 74, 0
18, 583811, Note_on_c, 6, 76, 0
18, 583921, Note_on_c, 6, 74, 86
18, 584041, Note_on_c, 6, 74, 0
18, 584168, Note_on_c, 6, 76, 90
18, 584412, Note_on_c, 6, 72, 0
18, 584648, Note_on_c, 6, 76, 0
18, 584650, Note_on_c, 6, 78, 89
18, 585370, Note_on_c, 6, 78, 0
18, 587052, Note_on_c, 6, 60, 90
18, 587065, Note_on_c, 6, 67, 86
18, 587067, Note_on_c, 6, 72, 97
18, 588252, Note_on_c, 6, 60, 0
18, 588265, Note_on_c, 6, 67, 0
18, 588267, Note_on_c, 6, 72, 0
18, 588970, Note_on_c, 6, 65, 86
18, 588980, Note_on_c, 6, 68, 78
18, 588982, Note_on_c, 6, 73, 84
18, 589113, Note_on_c, 6, 65, 0
18, 589123, Note_on_c, 6, 68, 0
18, 589125, Note_on_c, 6, 73, 0
18, 589927, Note_on_c, 6, 64, 85
18, 589929, Note_on_c, 6, 67, 97
18, 589933, Note_on_c, 6, 72, 82
18, 590070, Note_on_c, 6, 64, 0
18, 590072, Note_on_c, 6, 67, 0
18, 590076, Note_on_c, 6, 72, 0
18, 590894, Note_on_c, 6, 63, 87
18, 590899, Note_on_c, 6, 71, 86
18, 590908, Note_on_c, 6, 68, 96
18, 591037, Note_on_c, 6, 63, 0
18, 591042, Note_on_c, 6, 71, 0
18, 591051, Note_on_c, 6, 68, 0
18, 591130, Note_on_c, 6, 64, 92
18, 591133, Note_on_c, 6, 70, 96
18, 591138, Note_on_c, 6, 67, 93
18, 591273, Note_on_c, 6, 64, 0
18, 591276, Note_on_c, 6, 70, 0
18, 591281, Note_on_c, 6, 67, 0
18, 591362, Note_on_c, 6, 65, 95
18, 591377, Note_on_c, 6, 63, 89
18, 591381, Note_on_c, 6, 68, 98
18, 591505, Note_on_c, 6, 65, 0
18, 591520, Note_on_c, 6, 63, 0
18, 591524, Note_on_c, 6, 68, 0
18, 591606, Note_on_c, 6, 64, 94
18, 591617, Note_on_c, 6, 68, 98
18, 591626, Note_on_c, 6, 71, 98
18, 591749, Note_on_c, 6, 64, 0
18, 591760, Note_on_c, 6, 68, 0
18, 591769, Note_on_c, 6, 71, 0
18, 591849, Note_on_c, 6, 73, 98
18, 591851, Note_on_c, 6, 70, 80
18, 591866, Note_on_c, 6, 68, 81
18, 591992, Note_on_c, 6, 73, 0
18, 591994, Note_on_c, 6, 70, 0
18, 592009, Note_on_c, 6, 68, 0
18, 592813, Note_on_c, 6, 71, 86
18, 592822, Note_on_c, 6, 63, 98
18, 592829, Note_on_c, 6, 68, 86
18, 592956, Note_on_c, 6, 71, 0
18, 592965, Note_on_c, 6, 63, 0
18, 592972, Note_on_c, 6, 68, 0
18, 593045, Note_on_c, 6, 67, 80
18, 593046, Note_on_c, 6, 70, 78
18, 593059, Note_on_c, 6, 64, 82
18, 593188, Note_on_c, 6, 67, 0
18, 593189, Note_on_c, 6, 70, 0
18, 593202, Note_on_c, 6, 64, 0
18, 593283, Note_on_c, 6, 65, 82
18, 593291, Note_on_c, 6, 63, 89
18, 593303, Note_on_c, 6, 68, 95
18, 593426, Note_on_c, 6, 65, 0
18, 593434, Note_on_c, 6, 63, 0
18, 593446, Note_on_c, 6, 68, 0
18, 593527, Note_on_c, 6, 71, 87
18, 593545, Note_on_c, 6, 64, 90
18, 593545, Note_on_c, 6, 68, 82
18, 593670, Note_on_c, 6, 71, 0
18, 593688, Note_on_c, 6, 64, 0
18, 593688, Note_on_c, 6, 68, 0
18, 593765, Note_on_c, 6, 73, 83
18, 593776, Note_on_c, 6, 70, 95
18, 593785, Note_on_c, 6, 68, 79
18, 593908, Note_on_c, 6, 73, 0
18, 593919, Note_on_c, 6, 70, 0
18, 593928, Note_on_c, 6, 68, 0
18, 594721, Note_on_c, 6, 72, 86
18, 594722, Note_on_c, 6, 64, 96
18, 594731, Note_on_c, 6, 67, 80
18, 594817, Note_on_c, 6, 72, 0
18, 594818, Note_on_c, 6, 64, 0
18, 594827, Note_on_c, 6, 67, 0
18, 595688, Note_on_c, 6, 71, 88
18, 595689, Note_on_c, 6, 63, 98
18, 595692, Note_on_c, 6, 68, 80
18, 595831, Note_on_c, 6, 71, 0
18, 595832, Note_on_c, 6, 63, 0
18, 595835, Note_on_c, 6, 68, 0
18, 595920, Note_on_c, 6, 67, 93
18, 595939, Note_on_c, 6, 70, 95
18, 595948, Note_on_c, 6, 64, 89
18, 596063, Note_on_c, 6, 67, 0
18, 596082, Note_on_c, 6, 70, 0
18, 596091, Note_on_c, 6, 64, 0
18, 596167, Note_on_c, 6, 63, 82
18, 596179, Note_on_c, 6, 68, 91
18, 596184, Note_on_c, 6, 65, 83
18, 596310, Note_on_c, 6, 63, 0
18, 596322, Note_on_c, 6, 68, 0
18, 596327, Note_on_c, 6, 65, 0
18, 596405, Note_on_c, 6, 68, 85
18, 596407, Note_on_c, 6, 64, 85
18, 596428, Note_on_c, 6, 71, 93
18, 596548, Note_on_c, 6, 68, 0
18, 596550, Note_on_c, 6, 64, 0
18, 596571, Note_on_c, 6, 71, 0
18, 596646, Note_on_c, 6, 70, 93
18, 596649, Note_on_c, 6, 73, 88
18, 596663, Note_on_c, 6, 68, 98
18, 596789, Note_on_c, 6, 70, 0
18, 596792, Note_on_c, 6, 73, 0
18, 596806, Note_on_c, 6, 68, 0
18, 597613, Note_on_c, 6, 68, 84
18, 597616, Note_on_c, 6, 71, 82
18, 597625, Note_on_c, 6, 63, 79
18, 597756, Note_on_c, 6, 68, 0
18, 597759, Note_on_c, 6, 71, 0
18, 597768, Note_on_c, 6, 63, 0
18, 597843, Note_on_c, 6, 70, 89
18, 597856, Note_on_c, 6, 67, 96
18, 597864, Note_on_c, 6, 64, 78
18, 597986, Note_on_c, 6, 70, 0
18, 597999, Note_on_c, 6, 67, 0
18, 598007, Note_on_c, 6, 64, 0
18, 598090, Note_on_c, 6, 65, 78
18, 598103, Note_on_c, 6, 63, 79
18, 598104, Note_on_c, 6, 68, 81
18, 598233, Note_on_c, 6, 65, 0
18, 598246, Note_on_c, 6, 63, 0
18, 598247, Note_on_c, 6, 68, 0
18, 598325, Note_on_c, 6, 71, 85
18, 598329, Note_on_c, 6, 68, 83
18, 598340, Note_on_c, 6, 64, 80
18, 598468, Note_on_c, 6, 71, 0
18, 598472, Note_on_c, 6, 68, 0
18, 598483, Note_on_c, 6, 64, 0
18, 598562, Note_on_c, 6, 73, 86
18, 598563, Note_on_c, 6, 68, 80
18, 598577, Note_on_c, 6, 70, 92
18, 598705, Note_on_c, 6, 73, 0
18, 598706, Note_on_c, 6, 68, 0
18, 598720, Note_on_c, 6, 70, 0
18, 599529, Note_on_c, 6, 72, 95
18, 599532, Note_on_c, 6, 67, 90
18, 599540, Note_on_c, 6, 64, 94
18, 599625, Note_on_c, 6, 72, 0
18, 599628, Note_on_c, 6, 67, 0
18, 599636, Note_on_c, 6, 64, 0
18, 600002, Note_on_c, 6, 75, 90
18, 600011, Note_on_c, 6, 67, 80
18, 600017, Note_on_c, 6, 70, 78
18, 600118, Note_on_c, 6, 67, 0
18, 600242, Note_on_c, 6, 75, 0
18, 600257, Note_on_c, 6, 70, 0
18, 600489, Note_on_c, 6, 69, 82
18, 600494, Note_on_c, 6, 73, 83
18, 600506, Note_on_c, 6, 76, 86
18, 600596, Note_on_c, 6, 69, 0
18, 600601, Note_on_c, 6, 73, 0
18, 600613, Note_on_c, 6, 76, 0
18, 600972, Note_on_c, 6, 74, 81
18, 600980, Note_on_c, 6, 70, 85
18, 600988, Note_on_c, 6, 77, 96
18, 601079, Note_on_c, 6, 74, 0
18, 601095, Note_on_c, 6, 77, 0
18, 601220, Note_on_c, 6, 70, 0
18, 601441, Note_on_c, 6, 71, 107
18, 601454, Note_on_c, 6, 75, 110
18, 601462, Note_on_c, 6, 78, 120
18, 601507, Note_on_c, 6, 75, 0
18, 601515, Note_on_c, 6, 78, 0
18, 601561, Note_on_c, 6, 71, 0
18, 601682, Note_on_c, 6, 72, 104
18, 601698, Note_on_c, 6, 69, 114
18, 601699, Note_on_c, 6, 66, 116
18, 601735, Note_on_c, 6, 72, 0
18, 601751, Note_on_c, 6, 69, 0
18, 601752, Note_on_c, 6, 66, 0
18, 602170, Note_on_c, 6, 66, 105
18, 602177, Note_on_c, 6, 69, 101
18, 602187, Note_on_c, 6, 72, 105
18, 602223, Note_on_c, 6, 66, 0
18, 602230, Note_on_c, 6, 69, 0
18, 602240, Note_on_c, 6, 72, 0
18, 602400, Note_on_c, 6, 69, 103
18, 602418, Note_on_c, 6, 72, 108
18, 602420, Note_on_c, 6, 66, 120
18, 602453, Note_on_c, 6, 69, 0
18, 602471, Note_on_c, 6, 72, 0
18, 602473, Note_on_c, 6, 66, 0
18, 602762, Note_on_c, 6, 69, 117
18, 602766, Note_on_c, 6, 66, 102
18, 602787, Note_on_c, 6, 72, 119
18, 602815, Note_on_c, 6, 69, 0
18, 602819, Note_on_c, 6, 66, 0
18, 602840, Note_on_c, 6, 72, 0
18, 603607, Note_on_c, 6, 69, 110
18, 603616, Note_on_c, 6, 66, 119
18, 603622, Note_on_c, 6, 72, 104
18, 603660, Note_on_c, 6, 69, 0
18, 603669, Note_on_c, 6, 66, 0
18, 603675, Note_on_c, 6, 72, 0
18, 603855, Note_on_c, 6, 72, 119
18, 603855, Note_on_c, 6, 67, 101
18, 603867, Note_on_c, 6, 70, 113
18, 603891, Note_on_c, 6, 72, 0
18, 603891, Note_on_c, 6, 67, 0
18, 603903, Note_on_c, 6, 70, 0
18, 603965, Note_on_c, 6, 65, 114
18, 603983, Note_on_c, 6, 71, 102
18, 603986, Note_on_c, 6, 68, 118
18, 604001, Note_on_c, 6, 65, 0
18, 604019, Note_on_c, 6, 71, 0
18, 604022, Note_on_c, 6, 68, 0
18, 604093, Note_on_c, 6, 66, 117
18, 604102, Note_on_c, 6, 62, 119
18, 604107, Note_on_c, 6, 69, 105
18, 604129, Note_on_c, 6, 66, 0
18, 604138, Note_on_c, 6, 62, 0
18, 604143, Note_on_c, 6, 69, 0
18, 607086, Note_on_c, 6, 63, 105
18, 607099, Note_on_c, 6, 75, 92
18, 607326, Note_on_c, 6, 63, 0
18, 607339, Note_on_c, 6, 75, 0
18, 607566, Note_on_c, 6, 61, 100
18, 607572, Note_on_c, 6, 73, 108
18, 607806, Note_on_c, 6, 61, 0
18, 607812, Note_on_c, 6, 73, 0
18, 608052, Note_on_c, 6, 75, 105
18, 608063, Note_on_c, 6, 63, 92
18, 608292, Note_on_c, 6, 75, 0
18, 608303, Note_on_c, 6, 63, 0
18, 608531, Note_on_c, 6, 60, 93
18, 608532, Note_on_c, 6, 72, 97
18, 608771, Note_on_c, 6, 60, 0
18, 608772, Note_on_c, 6, 72, 0
18, 609017, Note_on_c, 6, 63, 108
18, 609023, Note_on_c, 6, 75, 104
18, 609257, Note_on_c, 6, 63, 0
18, 609263, Note_on_c, 6, 75, 0
18, 609487, Note_on_c, 6, 71, 103
18, 609503, Note_on_c, 6, 59, 105
18, 609607, Note_on_c, 6, 71, 0
18, 609623, Note_on_c, 6, 59, 0
18, 609722, Note_on_c, 6, 70, 104
18, 609733, Note_on_c, 6, 58, 100
18, 609842, Note_on_c, 6, 70, 0
18, 609853, Note_on_c, 6, 58, 0
18, 609965, Note_on_c, 6, 68, 108
18, 609980, Note_on_c, 6, 56, 99
18, 610085, Note_on_c, 6, 68, 0
18, 610100, Note_on_c, 6, 56, 0
18, 610211, Note_on_c, 6, 59, 104
18, 610214, Note_on_c, 6, 71, 98
18, 610331, Note_on_c, 6, 59, 0
18, 610334, Note_on_c, 6, 71, 0
18, 610456, Note_on_c, 6, 73, 108
18, 610465, Note_on_c, 6, 61, 94
18, 610696, Note_on_c, 6, 73, 0
18, 610705, Note_on_c, 6, 61, 0
18, 610942, Note_on_c, 6, 75, 110
18, 610943, Note_on_c, 6, 63, 97
18, 611182, Note_on_c, 6, 75, 0
18, 611183, Note_on_c, 6, 63, 0
18, 611415, Note_on_c, 6, 59, 105
18, 611425, Note_on_c, 6, 71, 92
18, 611535, Note_on_c, 6, 59, 0
18, 611545, Note_on_c, 6, 71, 0
18, 611658, Note_on_c, 6, 70, 107
18, 611664, Note_on_c, 6, 58, 107
18, 611778, Note_on_c, 6, 70, 0
18, 611784, Note_on_c, 6, 58, 0
18, 611897, Note_on_c, 6, 68, 110
18, 611897, Note_on_c, 6, 56, 97
18, 612017, Note_on_c, 6, 68, 0
18, 612017, Note_on_c, 6, 56, 0
18, 612131, Note_on_c, 6, 59, 92
18, 612138, Note_on_c, 6, 71, 104
18, 612251, Note_on_c, 6, 59, 0
18, 612258, Note_on_c, 6, 71, 0
18, 612366, Note_on_c, 6, 73, 102
18, 612385, Note_on_c, 6, 61, 95
18, 612606, Note_on_c, 6, 73, 0
18, 612625, Note_on_c, 6, 61, 0
18, 613327, Note_on_c, 6, 67, 65
18, 613327, Note_on_c, 6, 70, 72
18, 613337, Note_on_c, 6, 63, 67
18, 613567, Note_on_c, 6, 67, 0
18, 613567, Note_on_c, 6, 70, 0
18, 613577, Note_on_c, 6, 63, 0
18, 613804, Note_on_c, 6, 69, 85
18, 613811, Note_on_c, 6, 72, 69
18, 613819, Note_on_c, 6, 65, 87
18, 614044, Note_on_c, 6, 69, 0
18, 614051, Note_on_c, 6, 72, 0
18, 614059, Note_on_c, 6, 65, 0
18, 614283, Note_on_c, 6, 71, 75
18, 614287, Note_on_c, 6, 67, 78
18, 614293, Note_on_c, 6, 74, 86
18, 614523, Note_on_c, 6, 71, 0
18, 614527, Note_on_c, 6, 67, 0
18, 614533, Note_on_c, 6, 74, 0
18, 614770, Note_on_c, 6, 73, 76
18, 614780, Note_on_c, 6, 76, 89
18, 614784, Note_on_c, 6, 69, 87
18, 615010, Note_on_c, 6, 73, 0
18, 615020, Note_on_c, 6, 76, 0
18, 615024, Note_on_c, 6, 69, 0
18, 615247, Note_on_c, 6, 75, 81
18, 615249, Note_on_c, 6, 71, 92
18, 615265, Note_on_c, 6, 78, 82
18, 615487, Note_on_c, 6, 75, 0
18, 615489, Note_on_c, 6, 71, 0
18, 615505, Note_on_c, 6, 78, 0
18, 615731, Note_on_c, 6, 73, 100
18, 615741, Note_on_c, 6, 77, 93
18, 615741, Note_on_c, 6, 80, 84
18, 615971, Note_on_c, 6, 73, 0
18, 615981, Note_on_c, 6, 77, 0
18, 615981, Note_on_c, 6, 80, 0
18, 616216, Note_on_c, 6, 82, 101
18, 616218, Note_on_c, 6, 79, 104
18, 616225, Note_on_c, 6, 75, 104
18, 616456, Note_on_c, 6, 82, 0
18, 616458, Note_on_c, 6, 79, 0
18, 616465, Note_on_c, 6, 75, 0
18, 616681, Note_on_c, 6, 80, 99
18, 616683, Note_on_c, 6, 77, 94
18, 616700, Note_on_c, 6, 73, 96
18, 616921, Note_on_c, 6, 80, 0
18, 616923, Note_on_c, 6, 77, 0
18, 616940, Note_on_c, 6, 73, 0
18, 617164, Note_on_c, 6, 74, 91
18, 617174, Note_on_c, 6, 78, 100
18, 617186, Note_on_c, 6, 69, 100
18, 617404, Note_on_c, 6, 74, 0
18, 617414, Note_on_c, 6, 78, 0
18, 617426, Note_on_c, 6, 69, 0
18, 617642, Note_on_c, 6, 67, 104
18, 617647, Note_on_c, 6, 70, 104
18, 617649, Note_on_c, 6, 75, 97
18, 617882, Note_on_c, 6, 67, 0
18, 617887, Note_on_c, 6, 70, 0
18, 617889, Note_on_c, 6, 75, 0
18, 618124, Note_on_c, 6, 76, 98
18, 618141, Note_on_c, 6, 71, 102
18, 618146, Note_on_c, 6, 68, 104
18, 618364, Note_on_c, 6, 76, 0
18, 618381, Note_on_c, 6, 71, 0
18, 618386, Note_on_c, 6, 68, 0
18, 618603, Note_on_c, 6, 78, 97
18, 618610, Note_on_c, 6, 73, 104
18, 618618, Note_on_c, 6, 70, 111
18, 618843, Note_on_c, 6, 78, 0
18, 618850, Note_on_c, 6, 73, 0
18, 618858, Note_on_c, 6, 70, 0
18, 619080, Note_on_c, 6, 77, 99
18, 619088, Note_on_c, 6, 69, 97
18, 619107, Note_on_c, 6, 72, 98
18, 619320, Note_on_c, 6, 77, 0
18, 619328, Note_on_c, 6, 69, 0
18, 619347, Note_on_c, 6, 72, 0
18, 619571, Note_on_c, 6, 73, 96
18, 619580, Note_on_c, 6, 78, 103
18, 619588, Note_on_c, 6, 70, 107
18, 619811, Note_on_c, 6, 73, 0
18, 619820, Note_on_c, 6, 78, 0
18, 619828, Note_on_c, 6, 70, 0
18, 620042, Note_on_c, 6, 72, 94
18, 620062, Note_on_c, 6, 69, 93
18, 620067, Note_on_c, 6, 77, 100
18, 620282, Note_on_c, 6, 72, 0
18, 620302, Note_on_c, 6, 69, 0
18, 620307, Note_on_c, 6, 77, 0
18, 620537, Note_on_c, 6, 70, 99
18, 620539, Note_on_c, 6, 78, 92
18, 620542, Note_on_c, 6, 73, 97
18, 620777, Note_on_c, 6, 70, 0
18, 620779, Note_on_c, 6, 78, 0
18, 620782, Note_on_c, 6, 73, 0
18, 621008, Note_on_c, 6, 72, 103
18, 621013, Note_on_c, 6, 69, 99
18, 621015, Note_on_c, 6, 77, 97
18, 621248, Note_on_c, 6, 72, 0
18, 621253, Note_on_c, 6, 69, 0
18, 621255, Note_on_c, 6, 77, 0
18, 621500, Note_on_c, 6, 71, 75
18, 621501, Note_on_c, 6, 76, 68
18, 621506, Note_on_c, 6, 68, 77
18, 621740, Note_on_c, 6, 71, 0
18, 621741, Note_on_c, 6, 76, 0
18, 621746, Note_on_c, 6, 68, 0
18, 621980, Note_on_c, 6, 77, 85
18, 621987, Note_on_c, 6, 72, 73
18, 621988, Note_on_c, 6, 69, 75
18, 622220, Note_on_c, 6, 77, 0
18, 622227, Note_on_c, 6, 72, 0
18, 622228, Note_on_c, 6, 69, 0
18, 622442, Note_on_c, 6, 73, 80
18, 622456, Note_on_c, 6, 78, 70
18, 622462, Note_on_c, 6, 70, 72
18, 622682, Note_on_c, 6, 73, 0
18, 622696, Note_on_c, 6, 78, 0
18, 622702, Note_on_c, 6, 70, 0
18, 622930, Note_on_c, 6, 77, 68
18, 622941, Note_on_c, 6, 69, 74
18, 622942, Note_on_c, 6, 72, 80
18, 623170, Note_on_c, 6, 77, 0
18, 623181, Note_on_c, 6, 69, 0
18, 623182, Note_on_c, 6, 72, 0
18, 623404, Note_on_c, 6, 73, 75
18, 623416, Note_on_c, 6, 70, 84
18, 623423, Note_on_c, 6, 78, 70
18, 623644, Note_on_c, 6, 73, 0
18, 623656, Note_on_c, 6, 70, 0
18, 623663, Note_on_c, 6, 78, 0
18, 623882, Note_on_c, 6, 69, 81
18, 623895, Note_on_c, 6, 77, 79
18, 623906, Note_on_c, 6, 72, 66
18, 624122, Note_on_c, 6, 69, 0
18, 624135, Note_on_c, 6, 77, 0
18, 624146, Note_on_c, 6, 72, 0
18, 624378, Note_on_c, 6, 72, 72
18, 624378, Note_on_c, 6, 78, 77
18, 624385, Note_on_c, 6, 70, 81
18, 624618, Note_on_c, 6, 72, 0
18, 624618, Note_on_c, 6, 78, 0
18, 624625, Note_on_c, 6, 70, 0
18, 624848, Note_on_c, 6, 77, 69
18, 624850, Note_on_c, 6, 72, 72
18, 624851, Note_on_c, 6, 69, 68
18, 625088, Note_on_c, 6, 77, 0
18, 625090, Note_on_c, 6, 72, 0
18, 625091, Note_on_c, 6, 69, 0
18, 625328, Note_on_c, 6, 68, 68
18, 625341, Note_on_c, 6, 71, 76
18, 625347, Note_on_c, 6, 76, 66
18, 625568, Note_on_c, 6, 68, 0
18, 625581, Note_on_c, 6, 71, 0
18, 625587, Note_on_c, 6, 76, 0
18, 625801, Note_on_c, 6, 77, 82
18, 625806, Note_on_c, 6, 72, 70
18, 625825, Note_on_c, 6, 69, 65
18, 626041, Note_on_c, 6, 77, 0
18, 626046, Note_on_c, 6, 72, 0
18, 626065, Note_on_c, 6, 69, 0
18, 626295, Note_on_c, 6, 76, 67
18, 626303, Note_on_c, 6, 71, 76
18, 626303, Note_on_c, 6, 68, 69
18, 626535, Note_on_c, 6, 76, 0
18, 626543, Note_on_c, 6, 71, 0
18, 626543, Note_on_c, 6, 68, 0
18, 626770, Note_on_c, 6, 66, 85
18, 626778, Note_on_c, 6, 70, 71
18, 626785, Note_on_c, 6, 75, 82
18, 627010, Note_on_c, 6, 66, 0
18, 627018, Note_on_c, 6, 70, 0
18, 627025, Note_on_c, 6, 75, 0
18, 627247, Note_on_c, 6, 66, 74
18, 627264, Note_on_c, 6, 69, 81
18, 627264, Note_on_c, 6, 74, 65
18, 627487, Note_on_c, 6, 66, 0
18, 627504, Note_on_c, 6, 69, 0
18, 627504, Note_on_c, 6, 74, 0
18, 627723, Note_on_c, 6, 70, 71
18, 627736, Note_on_c, 6, 75, 65
18, 627746, Note_on_c, 6, 67, 67
18, 627843, Note_on_c, 6, 70, 0
18, 627856, Note_on_c, 6, 75, 0
18, 627866, Note_on_c, 6, 67, 0
18, 634080, Note_on_c, 6, 62, 93
18, 634084, Note_on_c, 6, 70, 91
18, 634091, Note_on_c, 6, 65, 89
18, 634140, Note_on_c, 6, 62, 0
18, 634144, Note_on_c, 6, 70, 0
18, 634151, Note_on_c, 6, 65, 0
18, 634213, Note_on_c, 6, 65, 93
18, 634218, Note_on_c, 6, 62, 91
18, 634223, Note_on_c, 6, 70, 94
18, 634273, Note_on_c, 6, 65, 0
18, 634278, Note_on_c, 6, 62, 0
18, 634283, Note_on_c, 6, 70, 0
18, 634321, Note_on_c, 6, 70, 80
18, 634326, Note_on_c, 6, 62, 80
18, 634329, Note_on_c, 6, 65, 87
18, 634381, Note_on_c, 6, 70, 0
18, 634386, Note_on_c, 6, 62, 0
18, 634389, Note_on_c, 6, 65, 0
18, 634452, Note_on_c, 6, 70, 94
18, 634453, Note_on_c, 6, 65, 87
18, 634467, Note_on_c, 6, 73, 88
18, 634512, Note_on_c, 6, 70, 0
18, 634513, Note_on_c, 6, 65, 0
18, 634527, Note_on_c, 6, 73, 0
18, 634564, Note_on_c, 6, 62, 86
18, 634579, Note_on_c, 6, 70, 96
18, 634581, Note_on_c, 6, 65, 92
18, 634624, Note_on_c, 6, 62, 0
18, 634639, Note_on_c, 6, 70, 0
18, 634641, Note_on_c, 6, 65, 0
18, 635289, Note_on_c, 6, 62, 92
18, 635299, Note_on_c, 6, 65, 96
18, 635307, Note_on_c, 6, 70, 95
18, 635349, Note_on_c, 6, 62, 0
18, 635359, Note_on_c, 6, 65, 0
18, 635367, Note_on_c, 6, 70, 0
18, 635403, Note_on_c, 6, 65, 91
18, 635416, Note_on_c, 6, 70, 85
18, 635428, Note_on_c, 6, 62, 92
18, 635463, Note_on_c, 6, 65, 0
18, 635476, Note_on_c, 6, 70, 0
18, 635488, Note_on_c, 6, 62, 0
18, 635523, Note_on_c, 6, 70, 81
18, 635526, Note_on_c, 6, 62, 82
18, 635533, Note_on_c, 6, 65, 81
18, 635583, Note_on_c, 6, 70, 0
18, 635586, Note_on_c, 6, 62, 0
18, 635593, Note_on_c, 6, 65, 0
18, 635650, Note_on_c, 6, 65, 94
18, 635650, Note_on_c, 6, 73, 95
18, 635661, Note_on_c, 6, 70, 86
18, 635710, Note_on_c, 6, 65, 0
18, 635710, Note_on_c, 6, 73, 0
18, 635721, Note_on_c, 6, 70, 0
18, 635762, Note_on_c, 6, 70, 81
18, 635784, Note_on_c, 6, 65, 95
18, 635784, Note_on_c, 6, 62, 87
18, 635822, Note_on_c, 6, 70, 0
18, 635844, Note_on_c, 6, 65, 0
18, 635844, Note_on_c, 6, 62, 0
18, 639968, Note_on_c, 6, 70, 111
18, 639969, Note_on_c, 6, 61, 104
18, 639979, Note_on_c, 6, 65, 103
18, 640028, Note_on_c, 6, 70, 0
18, 640029, Note_on_c, 6, 61, 0
18, 640039, Note_on_c, 6, 65, 0
18, 640086, Note_on_c, 6, 73, 110
18, 640098, Note_on_c, 6, 70, 103
18, 640102, Note_on_c, 6, 65, 95
18, 640146, Note_on_c, 6, 73, 0
18, 640158, Note_on_c, 6, 70, 0
18, 640162, Note_on_c, 6, 65, 0
18, 641175, Note_on_c, 6, 58, 91
18, 641185, Note_on_c, 6, 65, 93
18, 641188, Note_on_c, 6, 61, 97
18, 641235, Note_on_c, 6, 58, 0
18, 641245, Note_on_c, 6, 65, 0
18, 641248, Note_on_c, 6, 61, 0
18, 641289, Note_on_c, 6, 70, 105
18, 641301, Note_on_c, 6, 65, 109
18, 641305, Note_on_c, 6, 61, 106
18, 641349, Note_on_c, 6, 70, 0
18, 641361, Note_on_c, 6, 65, 0
18, 641365, Note_on_c, 6, 61, 0
18, 641408, Note_on_c, 6, 73, 95
18, 641423, Note_on_c, 6, 65, 107
18, 641423, Note_on_c, 6, 70, 91
18, 641468, Note_on_c, 6, 73, 0
18, 641483, Note_on_c, 6, 65, 0
18, 641483, Note_on_c, 6, 70, 0
18, 645372, Note_on_c, 6, 70, 102
18, 645380, Note_on_c, 6, 61, 98
18, 645386, Note_on_c, 6, 65, 107
18, 645432, Note_on_c, 6, 70, 0
18, 645440, Note_on_c, 6, 61, 0
18, 645446, Note_on_c, 6, 65, 0
18, 645483, Note_on_c, 6, 70, 100
18, 645492, Note_on_c, 6, 73, 94
18, 645492, Note_on_c, 6, 65, 96
18, 645543, Note_on_c, 6, 70, 0
18, 645552, Note_on_c, 6, 73, 0
18, 645552, Note_on_c, 6, 65, 0
18, 646689, Note_on_c, 6, 65, 98
18, 646696, Note_on_c, 6, 61, 105
18, 646699, Note_on_c, 6, 70, 111
18, 646749, Note_on_c, 6, 65, 0
18, 646756, Note_on_c, 6, 61, 0
18, 646759, Note_on_c, 6, 70, 0
18, 646810, Note_on_c, 6, 73, 97
18, 646824, Note_on_c, 6, 65, 110
18, 646828, Note_on_c, 6, 70, 109
18, 646870, Note_on_c, 6, 73, 0
18, 646884, Note_on_c, 6, 65, 0
18, 646888, Note_on_c, 6, 70, 0
18, 647282, Note_on_c, 6, 65, 98
18, 647292, Note_on_c, 6, 58, 108
18, 647296, Note_on_c, 6, 61, 109
18, 647342, Note_on_c, 6, 65, 0
18, 647352, Note_on_c, 6, 58, 0
18, 647356, Note_on_c, 6, 61, 0
18, 647411, Note_on_c, 6, 70, 98
18, 647418, Note_on_c, 6, 61, 108
18, 647424, Note_on_c, 6, 65, 111
18, 647471, Note_on_c, 6, 70, 0
18, 647478, Note_on_c, 6, 61, 0
18, 647484, Note_on_c, 6, 65, 0
18, 647531, Note_on_c, 6, 73, 97
18, 647538, Note_on_c, 6, 65, 107
18, 647541, Note_on_c, 6, 70, 110
18, 647591, Note_on_c, 6, 73, 0
18, 647598, Note_on_c, 6, 65, 0
18, 647601, Note_on_c, 6, 70, 0
18, 648004, Note_on_c, 6, 61, 110
18, 648015, Note_on_c, 6, 65, 97
18, 648028, Note_on_c, 6, 70, 100
18, 648064, Note_on_c, 6, 61, 0
18, 648075, Note_on_c, 6, 65, 0
18, 648088, Note_on_c, 6, 70, 0
18, 648138, Note_on_c, 6, 70, 93
18, 648143, Note_on_c, 6, 73, 99
18, 648147, Note_on_c, 6, 65, 103
18, 648198, Note_on_c, 6, 70, 0
18, 648203, Note_on_c, 6, 73, 0
18, 648207, Note_on_c, 6, 65, 0
18, 648371, Note_on_c, 6, 73, 102
18, 648376, Note_on_c, 6, 70, 92
18, 648388, Note_on_c, 6, 77, 111
18, 648431, Note_on_c, 6, 73, 0
18, 648436, Note_on_c, 6, 70, 0
18, 648448, Note_on_c, 6, 77, 0
18, 648855, Note_on_c, 6, 61, 96
18, 648862, Note_on_c, 6, 65, 95
18, 648863, Note_on_c, 6, 58, 111
18, 648915, Note_on_c, 6, 61, 0
18, 648922, Note_on_c, 6, 65, 0
18, 648923, Note_on_c, 6, 58, 0
18, 648968, Note_on_c, 6, 61, 94
18, 648971, Note_on_c, 6, 65, 95
18, 648978, Note_on_c, 6, 70, 107
18, 649028, Note_on_c, 6, 61, 0
18, 649031, Note_on_c, 6, 65, 0
18, 649038, Note_on_c, 6, 70, 0
18, 649088, Note_on_c, 6, 73, 95
18, 649089, Note_on_c, 6, 70, 98
18, 649090, Note_on_c, 6, 65, 93
18, 649148, Note_on_c, 6, 73, 0
18, 649149, Note_on_c, 6, 70, 0
18, 649150, Note_on_c, 6, 65, 0
18, 649321, Note_on_c, 6, 73, 91
18, 649328, Note_on_c, 6, 70, 93
18, 649343, Note_on_c, 6, 77, 110
18, 649381, Note_on_c, 6, 73, 0
18, 649388, Note_on_c, 6, 70, 0
18, 649403, Note_on_c, 6, 77, 0
18, 649813, Note_on_c, 6, 61, 91
18, 649816, Note_on_c, 6, 70, 111
18, 649827, Note_on_c, 6, 65, 104
18, 649873, Note_on_c, 6, 61, 0
18, 649876, Note_on_c, 6, 70, 0
18, 649887, Note_on_c, 6, 65, 0
18, 649924, Note_on_c, 6, 70, 106
18, 649928, Note_on_c, 6, 73, 97
18, 649930, Note_on_c, 6, 65, 106
18, 649984, Note_on_c, 6, 70, 0
18, 649988, Note_on_c, 6, 73, 0
18, 649990, Note_on_c, 6, 65, 0
18, 650402, Note_on_c, 6, 65, 99
18, 650403, Note_on_c, 6, 58, 99
18, 650426, Note_on_c, 6, 61, 93
18, 650462, Note_on_c, 6, 65, 0
18, 650463, Note_on_c, 6, 58, 0
18, 650486, Note_on_c, 6, 61, 0
18, 650524, Note_on_c, 6, 70, 93
18, 650539, Note_on_c, 6, 65, 109
18, 650548, Note_on_c, 6, 61, 92
18, 650584, Note_on_c, 6, 70, 0
18, 650599, Note_on_c, 6, 65, 0
18, 650608, Note_on_c, 6, 61, 0
18, 650646, Note_on_c, 6, 73, 102
18, 650654, Note_on_c, 6, 70, 108
18, 650659, Note_on_c, 6, 65, 97
18, 650706, Note_on_c, 6, 73, 0
18, 650714, Note_on_c, 6, 70, 0
18, 650719, Note_on_c, 6, 65, 0
18, 650885, Note_on_c, 6, 70, 109
18, 650887, Note_on_c, 6, 73, 105
18, 650894, Note_on_c, 6, 77, 108
18, 650945, Note_on_c, 6, 70, 0
18, 650947, Note_on_c, 6, 73, 0
18, 650954, Note_on_c, 6, 77, 0
18, 651363, Note_on_c, 6, 61, 94
18, 651375, Note_on_c, 6, 58, 94
18, 651377, Note_on_c, 6, 65, 98
18, 651423, Note_on_c, 6, 61, 0
18, 651435, Note_on_c, 6, 58, 0
18, 651437, Note_on_c, 6, 65, 0
18, 651484, Note_on_c, 6, 70, 103
18, 651491, Note_on_c, 6, 65, 103
18, 651505, Note_on_c, 6, 61, 91
18, 651544, Note_on_c, 6, 70, 0
18, 651551, Note_on_c, 6, 65, 0
18, 651565, Note_on_c, 6, 61, 0
18, 651610, Note_on_c, 6, 73, 94
18, 651612, Note_on_c, 6, 65, 104
18, 651617, Note_on_c, 6, 70, 96
18, 651670, Note_on_c, 6, 73, 0
18, 651672, Note_on_c, 6, 65, 0
18, 651677, Note_on_c, 6, 70, 0
18, 651849, Note_on_c, 6, 73, 100
18, 651850, Note_on_c, 6, 70, 108
18, 651861, Note_on_c, 6, 77, 96
18, 651909, Note_on_c, 6, 73, 0
18, 651910, Note_on_c, 6, 70, 0
18, 651921, Note_on_c, 6, 77, 0
18, 652083, Note_on_c, 6, 58, 100
18, 652099, Note_on_c, 6, 61, 104
18, 652100, Note_on_c, 6, 65, 101
18, 652143, Note_on_c, 6, 58, 0
18, 652159, Note_on_c, 6, 61, 0
18, 652160, Note_on_c, 6, 65, 0
18, 652202, Note_on_c, 6, 61, 98
18, 652207, Note_on_c, 6, 65, 105
18, 652225, Note_on_c, 6, 70, 95
18, 652262, Note_on_c, 6, 61, 0
18, 652267, Note_on_c, 6, 65, 0
18, 652285, Note_on_c, 6, 70, 0
18, 652325, Note_on_c, 6, 73, 103
18, 652338, Note_on_c, 6, 65, 110
18, 652341, Note_on_c, 6, 70, 103
18, 652385, Note_on_c, 6, 73, 0
18, 652398, Note_on_c, 6, 65, 0
18, 652401, Note_on_c, 6, 70, 0
18, 652561, Note_on_c, 6, 73, 94
18, 652578, Note_on_c, 6, 77, 91
18, 652586, Note_on_c, 6, 70, 100
18, 652621, Note_on_c, 6, 73, 0
18, 652638, Note_on_c, 6, 77, 0
18, 652646, Note_on_c, 6, 70, 0
18, 653048, Note_on_c, 6, 65, 95
18, 653057, Note_on_c, 6, 58, 100
18, 653066, Note_on_c, 6, 61, 105
18, 653108, Note_on_c, 6, 65, 0
18, 653117, Note_on_c, 6, 58, 0
18, 653126, Note_on_c, 6, 61, 0
18, 653165, Note_on_c, 6, 61, 110
18, 653166, Note_on_c, 6, 70, 104
18, 653180, Note_on_c, 6, 65, 97
18, 653225, Note_on_c, 6, 61, 0
18, 653226, Note_on_c, 6, 70, 0
18, 653240, Note_on_c, 6, 65, 0
18, 653280, Note_on_c, 6, 65, 93
18, 653281, Note_on_c, 6, 70, 111
18, 653293, Note_on_c, 6, 73, 93
18, 653340, Note_on_c, 6, 65, 0
18, 653341, Note_on_c, 6, 70, 0
18, 653353, Note_on_c, 6, 73, 0
18, 653542, Note_on_c, 6, 73, 106
18, 653543, Note_on_c, 6, 70, 94
18, 653548, Note_on_c, 6, 77, 96
18, 653602, Note_on_c, 6, 73, 0
18, 653603, Note_on_c, 6, 70, 0
18, 653608, Note_on_c, 6, 77, 0
18, 653764, Note_on_c, 6, 61, 93
18, 653769, Note_on_c, 6, 58, 101
18, 653774, Note_on_c, 6, 65, 107
18, 653824, Note_on_c, 6, 61, 0
18, 653829, Note_on_c, 6, 58, 0
18, 653834, Note_on_c, 6, 65, 0
18, 653880, Note_on_c, 6, 61, 106
18, 653894, Note_on_c, 6, 65, 104
18, 653908, Note_on_c, 6, 70, 104
18, 653940, Note_on_c, 6, 61, 0
18, 653954, Note_on_c, 6, 65, 0
18, 653968, Note_on_c, 6, 70, 0
18, 654011, Note_on_c, 6, 65, 96
18, 654016, Note_on_c, 6, 70, 100
18, 654023, Note_on_c, 6, 73, 109
18, 654071, Note_on_c, 6, 65, 0
18, 654076, Note_on_c, 6, 70, 0
18, 654083, Note_on_c, 6, 73, 0
18, 654242, Note_on_c, 6, 70, 91
18, 654262, Note_on_c, 6, 73, 96
18, 654268, Note_on_c, 6, 77, 97
18, 654302, Note_on_c, 6, 70, 0
18, 654322, Note_on_c, 6, 73, 0
18, 654328, Note_on_c, 6, 77, 0
18, 654722, Note_on_c, 6, 65, 97
18, 654736, Note_on_c, 6, 61, 102
18, 654742, Note_on_c, 6, 58, 96
18, 654782, Note_on_c, 6, 65, 0
18, 654796, Note_on_c, 6, 61, 0
18, 654802, Note_on_c, 6, 58, 0
18, 654844, Note_on_c, 6, 61, 93
18, 654853, Note_on_c, 6, 65, 103
18, 654856, Note_on_c, 6, 70, 111
18, 654904, Note_on_c, 6, 61, 0
18, 654913, Note_on_c, 6, 65, 0
18, 654916, Note_on_c, 6, 70, 0
18, 654963, Note_on_c, 6, 70, 95
18, 654966, Note_on_c, 6, 73, 96
18, 654981, Note_on_c, 6, 65, 99
18, 655023, Note_on_c, 6, 70, 0
18, 655026, Note_on_c, 6, 73, 0
18, 655041, Note_on_c, 6, 65, 0
18, 655080, Note_on_c, 6, 77, 99
18, 655095, Note_on_c, 6, 73, 99
18, 655108, Note_on_c, 6, 70, 96
18, 655140, Note_on_c, 6, 77, 0
18, 655155, Note_on_c, 6, 73, 0
18, 655168, Note_on_c, 6, 70, 0
18, 655323, Note_on_c, 6, 70, 104
18, 655323, Note_on_c, 6, 73, 123
18, 655327, Note_on_c, 6, 78, 115
18, 655383, Note_on_c, 6, 70, 0
18, 655383, Note_on_c, 6, 73, 0
18, 655387, Note_on_c, 6, 78, 0
18, 655387, End_track
19, 0, Start_track
19, 0, Title_t, "Trombe II"
19, 0, MIDI_port, 0
19, 0, Program_c, 6, 56
19, 2403, Note_on_c, 6, 66, 51
19, 2643, Note_on_c, 6, 66, 0
19, 2666, Note_on_c, 6, 68, 42
19, 2887, Note_on_c, 6, 70, 41
19, 2906, Note_on_c, 6, 68, 0
19, 3120, Note_on_c, 6, 71, 54
19, 3127, Note_on_c, 6, 70, 0
19, 3360, Note_on_c, 6, 71, 0
19, 10566, Note_on_c, 6, 58, 73
19, 10580, Note_on_c, 6, 63, 79
19, 10806, Note_on_c, 6, 58, 0
19, 10807, Note_on_c, 6, 60, 72
19, 10808, Note_on_c, 6, 65, 72
19, 10820, Note_on_c, 6, 63, 0
19, 11047, Note_on_c, 6, 60, 0
19, 11048, Note_on_c, 6, 65, 0
19, 11062, Note_on_c, 6, 64, 74
19, 11066, Note_on_c, 6, 61, 54
19, 11293, Note_on_c, 6, 66, 51
19, 11298, Note_on_c, 6, 63, 66
19, 11302, Note_on_c, 6, 64, 0
19, 11306, Note_on_c, 6, 61, 0
19, 11533, Note_on_c, 6, 66, 0
19, 11538, Note_on_c, 6, 63, 0
19, 11540, Note_on_c, 6, 70, 55
19, 11543, Note_on_c, 6, 65, 48
19, 11780, Note_on_c, 6, 70, 0
19, 11781, Note_on_c, 6, 72, 46
19, 11783, Note_on_c, 6, 65, 0
19, 11787, Note_on_c, 6, 69, 47
19, 12013, Note_on_c, 6, 70, 40
19, 12021, Note_on_c, 6, 72, 0
19, 12027, Note_on_c, 6, 69, 0
19, 12253, Note_on_c, 6, 70, 0
19, 15377, Note_on_c, 6, 58, 73
19, 15379, Note_on_c, 6, 63, 74
19, 15614, Note_on_c, 6, 65, 60
19, 15617, Note_on_c, 6, 58, 0
19, 15619, Note_on_c, 6, 63, 0
19, 15624, Note_on_c, 6, 60, 79
19, 15854, Note_on_c, 6, 65, 0
19, 15855, Note_on_c, 6, 61, 56
19, 15856, Note_on_c, 6, 64, 59
19, 15864, Note_on_c, 6, 60, 0
19, 16095, Note_on_c, 6, 61, 0
19, 16096, Note_on_c, 6, 64, 0
19, 16106, Note_on_c, 6, 63, 54
19, 16106, Note_on_c, 6, 66, 66
19, 16324, Note_on_c, 6, 70, 47
19, 16342, Note_on_c, 6, 65, 46
19, 16346, Note_on_c, 6, 63, 0
19, 16346, Note_on_c, 6, 66, 0
19, 16564, Note_on_c, 6, 70, 0
19, 16564, Note_on_c, 6, 72, 41
19, 16575, Note_on_c, 6, 69, 44
19, 16582, Note_on_c, 6, 65, 0
19, 16803, Note_on_c, 6, 70, 33
19, 16804, Note_on_c, 6, 72, 0
19, 16815, Note_on_c, 6, 69, 0
19, 17043, Note_on_c, 6, 70, 0
19, 19684, Note_on_c, 6, 58, 69
19, 19697, Note_on_c, 6, 63, 79
19, 19924, Note_on_c, 6, 58, 0
19, 19934, Note_on_c, 6, 65, 70
19, 19937, Note_on_c, 6, 63, 0
19, 19948, Note_on_c, 6, 60, 71
19, 20168, Note_on_c, 6, 64, 67
19, 20174, Note_on_c, 6, 65, 0
19, 20179, Note_on_c, 6, 61, 65
19, 20188, Note_on_c, 6, 60, 0
19, 20407, Note_on_c, 6, 66, 51
19, 20408, Note_on_c, 6, 64, 0
19, 20411, Note_on_c, 6, 63, 67
19, 20419, Note_on_c, 6, 61, 0
19, 20647, Note_on_c, 6, 66, 0
19, 20651, Note_on_c, 6, 63, 0
19, 20652, Note_on_c, 6, 70, 62
19, 20652, Note_on_c, 6, 65, 61
19, 20892, Note_on_c, 6, 70, 0
19, 20892, Note_on_c, 6, 65, 0
19, 20902, Note_on_c, 6, 69, 52
19, 20908, Note_on_c, 6, 72, 51
19, 21142, Note_on_c, 6, 69, 0
19, 21143, Note_on_c, 6, 70, 34
19, 21148, Note_on_c, 6, 72, 0
19, 21383, Note_on_c, 6, 70, 0
19, 40320, Note_on_c, 6, 70, 55
19, 40800, Note_on_c, 6, 70, 0
19, 40826, Note_on_c, 6, 68, 47
19, 41300, Note_on_c, 6, 65, 53
19, 41306, Note_on_c, 6, 68, 0
19, 41770, Note_on_c, 6, 68, 42
19, 41780, Note_on_c, 6, 65, 0
19, 42250, Note_on_c, 6, 68, 0
19, 42264, Note_on_c, 6, 64, 45
19, 42744, Note_on_c, 6, 64, 0
19, 48026, Note_on_c, 6, 70, 44
19, 48484, Note_on_c, 6, 68, 49
19, 48506, Note_on_c, 6, 70, 0
19, 48964, Note_on_c, 6, 68, 0
19, 48979, Note_on_c, 6, 65, 44
19, 49446, Note_on_c, 6, 68, 55
19, 49459, Note_on_c, 6, 65, 0
19, 49926, Note_on_c, 6, 68, 0
19, 49941, Note_on_c, 6, 64, 42
19, 50417, Note_on_c, 6, 70, 48
19, 50421, Note_on_c, 6, 64, 0
19, 50897, Note_on_c, 6, 70, 0
19, 50899, Note_on_c, 6, 68, 46
19, 51379, Note_on_c, 6, 68, 0
19, 51381, Note_on_c, 6, 67, 55
19, 51861, Note_on_c, 6, 67, 0
19, 51867, Note_on_c, 6, 65, 41
19, 52325, Note_on_c, 6, 68, 42
19, 52347, Note_on_c, 6, 65, 0
19, 52805, Note_on_c, 6, 68, 0
19, 52825, Note_on_c, 6, 64, 48
19, 53305, Note_on_c, 6, 64, 0
19, 53306, Note_on_c, 6, 70, 40
19, 53772, Note_on_c, 6, 68, 50
19, 53786, Note_on_c, 6, 70, 0
19, 54252, Note_on_c, 6, 68, 0
19, 54262, Note_on_c, 6, 65, 56
19, 54735, Note_on_c, 6, 68, 56
19, 54742, Note_on_c, 6, 65, 0
19, 55215, Note_on_c, 6, 68, 0
19, 55220, Note_on_c, 6, 64, 52
19, 55700, Note_on_c, 6, 64, 0
19, 55704, Note_on_c, 6, 70, 54
19, 56175, Note_on_c, 6, 68, 55
19, 56184, Note_on_c, 6, 70, 0
19, 56651, Note_on_c, 6, 65, 54
19, 56655, Note_on_c, 6, 68, 0
19, 57126, Note_on_c, 6, 68, 44
19, 57131, Note_on_c, 6, 65, 0
19, 57606, Note_on_c, 6, 68, 0
19, 57607, Note_on_c, 6, 64, 52
19, 58087, Note_on_c, 6, 64, 0
19, 60503, Note_on_c, 6, 70, 50
19, 60966, Note_on_c, 6, 68, 42
19, 60983, Note_on_c, 6, 70, 0
19, 61446, Note_on_c, 6, 68, 0
19, 61450, Note_on_c, 6, 65, 53
19, 61930, Note_on_c, 6, 65, 0
19, 61940, Note_on_c, 6, 68, 50
19, 62416, Note_on_c, 6, 64, 51
19, 62420, Note_on_c, 6, 68, 0
19, 62891, Note_on_c, 6, 70, 47
19, 62896, Note_on_c, 6, 64, 0
19, 63371, Note_on_c, 6, 70, 0
19, 63374, Note_on_c, 6, 68, 52
19, 63845, Note_on_c, 6, 67, 43
19, 63854, Note_on_c, 6, 68, 0
19, 64325, Note_on_c, 6, 67, 0
19, 64332, Note_on_c, 6, 65, 39
19, 64812, Note_on_c, 6, 65, 0
19, 64819, Note_on_c, 6, 68, 54
19, 65299, Note_on_c, 6, 68, 0
19, 65304, Note_on_c, 6, 64, 47
19, 65784, Note_on_c, 6, 64, 0
19, 200162, Note_on_c, 6, 66, 104
19, 200402, Note_on_c, 6, 66, 0
19, 200405, Note_on_c, 6, 71, 118
19, 202322, Note_on_c, 6, 66, 101
19, 202325, Note_on_c, 6, 71, 0
19, 202562, Note_on_c, 6, 66, 0
19, 202562, Note_on_c, 6, 71, 114
19, 203282, Note_on_c, 6, 71, 0
19, 203291, Note_on_c, 6, 66, 103
19, 203531, Note_on_c, 6, 66, 0
19, 203545, Note_on_c, 6, 71, 113
19, 204249, Note_on_c, 6, 66, 116
19, 204265, Note_on_c, 6, 71, 0
19, 204489, Note_on_c, 6, 66, 0
19, 204495, Note_on_c, 6, 71, 110
19, 204730, Note_on_c, 6, 66, 115
19, 204735, Note_on_c, 6, 71, 0
19, 204970, Note_on_c, 6, 66, 0
19, 204976, Note_on_c, 6, 71, 110
19, 205213, Note_on_c, 6, 66, 114
19, 205216, Note_on_c, 6, 71, 0
19, 205453, Note_on_c, 6, 66, 0
19, 205455, Note_on_c, 6, 71, 113
19, 205695, Note_on_c, 6, 71, 0
19, 205696, Note_on_c, 6, 66, 113
19, 205930, Note_on_c, 6, 71, 103
19, 205936, Note_on_c, 6, 66, 0
19, 206170, Note_on_c, 6, 71, 0
19, 206185, Note_on_c, 6, 66, 112
19, 206402, Note_on_c, 6, 71, 115
19, 206425, Note_on_c, 6, 66, 0
19, 206642, Note_on_c, 6, 71, 0
19, 206664, Note_on_c, 6, 66, 105
19, 206904, Note_on_c, 6, 66, 0
19, 206905, Note_on_c, 6, 71, 105
19, 207129, Note_on_c, 6, 66, 110
19, 207145, Note_on_c, 6, 71, 0
19, 207369, Note_on_c, 6, 66, 0
19, 207386, Note_on_c, 6, 71, 110
19, 207615, Note_on_c, 6, 66, 100
19, 207626, Note_on_c, 6, 71, 0
19, 207855, Note_on_c, 6, 66, 0
19, 207867, Note_on_c, 6, 71, 107
19, 208101, Note_on_c, 6, 66, 101
19, 208107, Note_on_c, 6, 71, 0
19, 208331, Note_on_c, 6, 71, 119
19, 208341, Note_on_c, 6, 66, 0
19, 208347, Note_on_c, 6, 68, 101
19, 208411, Note_on_c, 6, 71, 0
19, 208427, Note_on_c, 6, 68, 0
19, 208481, Note_on_c, 6, 69, 101
19, 208486, Note_on_c, 6, 66, 111
19, 208561, Note_on_c, 6, 69, 0
19, 208566, Note_on_c, 6, 66, 0
19, 208642, Note_on_c, 6, 67, 110
19, 208661, Note_on_c, 6, 70, 102
19, 208722, Note_on_c, 6, 67, 0
19, 208741, Note_on_c, 6, 70, 0
19, 208814, Note_on_c, 6, 68, 114
19, 208822, Note_on_c, 6, 71, 101
19, 208894, Note_on_c, 6, 68, 0
19, 208902, Note_on_c, 6, 71, 0
19, 209287, Note_on_c, 6, 59, 104
19, 209367, Note_on_c, 6, 59, 0
19, 209451, Note_on_c, 6, 68, 112
19, 209531, Note_on_c, 6, 68, 0
19, 209606, Note_on_c, 6, 58, 118
19, 209686, Note_on_c, 6, 58, 0
19, 209770, Note_on_c, 6, 70, 119
19, 209850, Note_on_c, 6, 70, 0
19, 209935, Note_on_c, 6, 65, 100
19, 210015, Note_on_c, 6, 65, 0
19, 210087, Note_on_c, 6, 64, 114
19, 210167, Note_on_c, 6, 64, 0
19, 210243, Note_on_c, 6, 75, 117
19, 210323, Note_on_c, 6, 75, 0
19, 224163, Note_on_c, 6, 73, 87
19, 224182, Note_on_c, 6, 59, 92
19, 224235, Note_on_c, 6, 73, 0
19, 224262, Note_on_c, 6, 59, 0
19, 224340, Note_on_c, 6, 67, 85
19, 224420, Note_on_c, 6, 67, 0
19, 224483, Note_on_c, 6, 58, 94
19, 224563, Note_on_c, 6, 58, 0
19, 224645, Note_on_c, 6, 69, 83
19, 224725, Note_on_c, 6, 69, 0
19, 224819, Note_on_c, 6, 65, 89
19, 224899, Note_on_c, 6, 65, 0
19, 224973, Note_on_c, 6, 64, 78
19, 225053, Note_on_c, 6, 64, 0
19, 225131, Note_on_c, 6, 75, 93
19, 225184, Note_on_c, 6, 75, 0
19, 228965, Note_on_c, 6, 58, 96
19, 229045, Note_on_c, 6, 58, 0
19, 229139, Note_on_c, 6, 67, 87
19, 229219, Note_on_c, 6, 67, 0
19, 229303, Note_on_c, 6, 59, 80
19, 229383, Note_on_c, 6, 59, 0
19, 229448, Note_on_c, 6, 69, 88
19, 229528, Note_on_c, 6, 69, 0
19, 229600, Note_on_c, 6, 65, 80
19, 229680, Note_on_c, 6, 65, 0
19, 229781, Note_on_c, 6, 64, 85
19, 229861, Note_on_c, 6, 64, 0
19, 229934, Note_on_c, 6, 75, 79
19, 229987, Note_on_c, 6, 75, 0
19, 234012, Note_on_c, 6, 73, 92
19, 234022, Note_on_c, 6, 59, 92
19, 234084, Note_on_c, 6, 73, 0
19, 234102, Note_on_c, 6, 59, 0
19, 234168, Note_on_c, 6, 67, 96
19, 234248, Note_on_c, 6, 67, 0
19, 234340, Note_on_c, 6, 58, 95
19, 234420, Note_on_c, 6, 58, 0
19, 234495, Note_on_c, 6, 69, 97
19, 234575, Note_on_c, 6, 69, 0
19, 234646, Note_on_c, 6, 65, 94
19, 234726, Note_on_c, 6, 65, 0
19, 234806, Note_on_c, 6, 64, 83
19, 234886, Note_on_c, 6, 64, 0
19, 234969, Note_on_c, 6, 75, 89
19, 235022, Note_on_c, 6, 75, 0
19, 289204, Note_on_c, 6, 64, 86
19, 289444, Note_on_c, 6, 64, 0
19, 289697, Note_on_c, 6, 59, 89
19, 289777, Note_on_c, 6, 59, 0
19, 289856, Note_on_c, 6, 67, 86
19, 289936, Note_on_c, 6, 67, 0
19, 290002, Note_on_c, 6, 58, 94
19, 290082, Note_on_c, 6, 58, 0
19, 290165, Note_on_c, 6, 69, 80
19, 290245, Note_on_c, 6, 69, 0
19, 290341, Note_on_c, 6, 65, 97
19, 290421, Note_on_c, 6, 65, 0
19, 290496, Note_on_c, 6, 64, 78
19, 290576, Note_on_c, 6, 64, 0
19, 290659, Note_on_c, 6, 75, 84
19, 290779, Note_on_c, 6, 75, 0
19, 318002, Note_on_c, 6, 67, 97
19, 318018, Note_on_c, 6, 60, 81
19, 318842, Note_on_c, 6, 67, 0
19, 318858, Note_on_c, 6, 60, 0
19, 318981, Note_on_c, 6, 60, 97
19, 318984, Note_on_c, 6, 67, 97
19, 319341, Note_on_c, 6, 60, 0
19, 319344, Note_on_c, 6, 67, 0
19, 319459, Note_on_c, 6, 67, 94
19, 319464, Note_on_c, 6, 60, 88
19, 319819, Note_on_c, 6, 67, 0
19, 319824, Note_on_c, 6, 60, 0
19, 319927, Note_on_c, 6, 62, 98
19, 319931, Note_on_c, 6, 70, 85
19, 320287, Note_on_c, 6, 62, 0
19, 320291, Note_on_c, 6, 70, 0
19, 320417, Note_on_c, 6, 60, 92
19, 320426, Note_on_c, 6, 67, 96
19, 320777, Note_on_c, 6, 60, 0
19, 320786, Note_on_c, 6, 67, 0
19, 320880, Note_on_c, 6, 70, 79
19, 320894, Note_on_c, 6, 62, 81
19, 321240, Note_on_c, 6, 70, 0
19, 321254, Note_on_c, 6, 62, 0
19, 321379, Note_on_c, 6, 67, 81
19, 321388, Note_on_c, 6, 60, 82
19, 322219, Note_on_c, 6, 67, 0
19, 322228, Note_on_c, 6, 60, 0
19, 322343, Note_on_c, 6, 60, 97
19, 322348, Note_on_c, 6, 67, 84
19, 322703, Note_on_c, 6, 60, 0
19, 322708, Note_on_c, 6, 67, 0
19, 322807, Note_on_c, 6, 67, 96
19, 322814, Note_on_c, 6, 60, 92
19, 323167, Note_on_c, 6, 67, 0
19, 323174, Note_on_c, 6, 60, 0
19, 323281, Note_on_c, 6, 70, 87
19, 323308, Note_on_c, 6, 62, 96
19, 323641, Note_on_c, 6, 70, 0
19, 323668, Note_on_c, 6, 62, 0
19, 323769, Note_on_c, 6, 60, 84
19, 323782, Note_on_c, 6, 67, 94
19, 324129, Note_on_c, 6, 60, 0
19, 324142, Note_on_c, 6, 67, 0
19, 340563, Note_on_c, 6, 67, 83
19, 340571, Note_on_c, 6, 60, 84
19, 340923, Note_on_c, 6, 67, 0
19, 340931, Note_on_c, 6, 60, 0
19, 341061, Note_on_c, 6, 60, 92
19, 341066, Note_on_c, 6, 67, 92
19, 341421, Note_on_c, 6, 60, 0
19, 341426, Note_on_c, 6, 67, 0
19, 341522, Note_on_c, 6, 62, 86
19, 341547, Note_on_c, 6, 70, 87
19, 341882, Note_on_c, 6, 62, 0
19, 341907, Note_on_c, 6, 70, 0
19, 342006, Note_on_c, 6, 67, 96
19, 342027, Note_on_c, 6, 60, 92
19, 342366, Note_on_c, 6, 67, 0
19, 342387, Note_on_c, 6, 60, 0
19, 342486, Note_on_c, 6, 70, 79
19, 342491, Note_on_c, 6, 62, 88
19, 342846, Note_on_c, 6, 70, 0
19, 342851, Note_on_c, 6, 62, 0
19, 342967, Note_on_c, 6, 60, 81
19, 342987, Note_on_c, 6, 67, 87
19, 343327, Note_on_c, 6, 60, 0
19, 343347, Note_on_c, 6, 67, 0
19, 343946, Note_on_c, 6, 60, 87
19, 343948, Note_on_c, 6, 67, 78
19, 344306, Note_on_c, 6, 60, 0
19, 344308, Note_on_c, 6, 67, 0
19, 344408, Note_on_c, 6, 60, 95
19, 344423, Note_on_c, 6, 67, 82
19, 344768, Note_on_c, 6, 60, 0
19, 344783, Note_on_c, 6, 67, 0
19, 344897, Note_on_c, 6, 62, 91
19, 344908, Note_on_c, 6, 70, 80
19, 345257, Note_on_c, 6, 62, 0
19, 345268, Note_on_c, 6, 70, 0
19, 345363, Note_on_c, 6, 67, 94
19, 345385, Note_on_c, 6, 60, 88
19, 345723, Note_on_c, 6, 67, 0
19, 345745, Note_on_c, 6, 60, 0
19, 345852, Note_on_c, 6, 70, 92
19, 345865, Note_on_c, 6, 62, 89
19, 346212, Note_on_c, 6, 70, 0
19, 346225, Note_on_c, 6, 62, 0
19, 346320, Note_on_c, 6, 67, 91
19, 346331, Note_on_c, 6, 60, 98
19, 346680, Note_on_c, 6, 67, 0
19, 346691, Note_on_c, 6, 60, 0
19, 346824, Note_on_c, 6, 63, 85
19, 346829, Note_on_c, 6, 70, 79
19, 347184, Note_on_c, 6, 63, 0
19, 347189, Note_on_c, 6, 70, 0
19, 347281, Note_on_c, 6, 62, 91
19, 347300, Note_on_c, 6, 70, 98
19, 347641, Note_on_c, 6, 62, 0
19, 347660, Note_on_c, 6, 70, 0
19, 347768, Note_on_c, 6, 67, 82
19, 347786, Note_on_c, 6, 60, 87
19, 348608, Note_on_c, 6, 67, 0
19, 348626, Note_on_c, 6, 60, 0
19, 348742, Note_on_c, 6, 67, 79
19, 348749, Note_on_c, 6, 60, 82
19, 349102, Note_on_c, 6, 67, 0
19, 349109, Note_on_c, 6, 60, 0
19, 349207, Note_on_c, 6, 60, 91
19, 349219, Note_on_c, 6, 67, 92
19, 349567, Note_on_c, 6, 60, 0
19, 349579, Note_on_c, 6, 67, 0
19, 349682, Note_on_c, 6, 67, 91
19, 350042, Note_on_c, 6, 67, 0
19, 350164, Note_on_c, 6, 74, 82
19, 350180, Note_on_c, 6, 66, 96
19, 350524, Note_on_c, 6, 74, 0
19, 350540, Note_on_c, 6, 66, 0
19, 350648, Note_on_c, 6, 64, 91
19, 350662, Note_on_c, 6, 69, 80
19, 351008, Note_on_c, 6, 64, 0
19, 351022, Note_on_c, 6, 69, 0
19, 351120, Note_on_c, 6, 67, 80
19, 351141, Note_on_c, 6, 60, 87
19, 351480, Note_on_c, 6, 67, 0
19, 351501, Note_on_c, 6, 60, 0
19, 383300, Note_on_c, 6, 67, 106
19, 383303, Note_on_c, 6, 60, 95
19, 383540, Note_on_c, 6, 67, 0
19, 383543, Note_on_c, 6, 60, 0
19, 383776, Note_on_c, 6, 67, 91
19, 383788, Note_on_c, 6, 60, 111
19, 384016, Note_on_c, 6, 67, 0
19, 384028, Note_on_c, 6, 60, 0
19, 384244, Note_on_c, 6, 70, 104
19, 384255, Note_on_c, 6, 62, 106
19, 384484, Note_on_c, 6, 70, 0
19, 384495, Note_on_c, 6, 62, 0
19, 384733, Note_on_c, 6, 60, 96
19, 384744, Note_on_c, 6, 67, 108
19, 384973, Note_on_c, 6, 60, 0
19, 384984, Note_on_c, 6, 67, 0
19, 385213, Note_on_c, 6, 62, 104
19, 385220, Note_on_c, 6, 70, 101
19, 385453, Note_on_c, 6, 62, 0
19, 385460, Note_on_c, 6, 70, 0
19, 385687, Note_on_c, 6, 60, 106
19, 385703, Note_on_c, 6, 67, 93
19, 385927, Note_on_c, 6, 60, 0
19, 385943, Note_on_c, 6, 67, 0
19, 421208, Note_on_c, 6, 61, 73
19, 421568, Note_on_c, 6, 61, 0
19, 421683, Note_on_c, 6, 59, 83
19, 421863, Note_on_c, 6, 59, 0
19, 421933, Note_on_c, 6, 61, 66
19, 421993, Note_on_c, 6, 61, 0
19, 422047, Note_on_c, 6, 59, 84
19, 422107, Note_on_c, 6, 59, 0
19, 422162, Note_on_c, 6, 58, 73
19, 422522, Note_on_c, 6, 58, 0
19, 422668, Note_on_c, 6, 56, 66
19, 422848, Note_on_c, 6, 56, 0
19, 422891, Note_on_c, 6, 58, 66
19, 422951, Note_on_c, 6, 58, 0
19, 423025, Note_on_c, 6, 59, 70
19, 423085, Note_on_c, 6, 59, 0
19, 423147, Note_on_c, 6, 56, 73
19, 423507, Note_on_c, 6, 56, 0
19, 423604, Note_on_c, 6, 56, 65
19, 423784, Note_on_c, 6, 56, 0
19, 423859, Note_on_c, 6, 59, 69
19, 424039, Note_on_c, 6, 59, 0
19, 424083, Note_on_c, 6, 61, 82
19, 424443, Note_on_c, 6, 61, 0
19, 424562, Note_on_c, 6, 59, 75
19, 424922, Note_on_c, 6, 59, 0
19, 425053, Note_on_c, 6, 61, 84
19, 425233, Note_on_c, 6, 61, 0
19, 425303, Note_on_c, 6, 59, 67
19, 425483, Note_on_c, 6, 59, 0
19, 425526, Note_on_c, 6, 58, 69
19, 425886, Note_on_c, 6, 58, 0
19, 426003, Note_on_c, 6, 56, 67
19, 426183, Note_on_c, 6, 56, 0
19, 426260, Note_on_c, 6, 58, 75
19, 426320, Note_on_c, 6, 58, 0
19, 426380, Note_on_c, 6, 59, 76
19, 426440, Note_on_c, 6, 59, 0
19, 426505, Note_on_c, 6, 56, 79
19, 426985, Note_on_c, 6, 56, 0
19, 440898, Note_on_c, 6, 73, 71
19, 441258, Note_on_c, 6, 73, 0
19, 441370, Note_on_c, 6, 68, 76
19, 441730, Note_on_c, 6, 68, 0
19, 441841, Note_on_c, 6, 71, 85
19, 442201, Note_on_c, 6, 71, 0
19, 442328, Note_on_c, 6, 66, 69
19, 442688, Note_on_c, 6, 66, 0
19, 442820, Note_on_c, 6, 70, 76
19, 443180, Note_on_c, 6, 70, 0
19, 443301, Note_on_c, 6, 65, 75
19, 443661, Note_on_c, 6, 65, 0
19, 492148, Note_on_c, 6, 62, 104
19, 492195, Note_on_c, 6, 62, 0
19, 493584, Note_on_c, 6, 62, 116
19, 493631, Note_on_c, 6, 62, 0
19, 494527, Note_on_c, 6, 60, 94
19, 494670, Note_on_c, 6, 60, 0
19, 494767, Note_on_c, 6, 59, 86
19, 494910, Note_on_c, 6, 59, 0
19, 495026, Note_on_c, 6, 57, 90
19, 495086, Note_on_c, 6, 57, 0
19, 495145, Note_on_c, 6, 56, 81
19, 495217, Note_on_c, 6, 56, 0
19, 495254, Note_on_c, 6, 54, 89
19, 495314, Note_on_c, 6, 54, 0
19, 495502, Note_on_c, 6, 62, 116
19, 495549, Note_on_c, 6, 62, 0
19, 495720, Note_on_c, 6, 62, 116
19, 495767, Note_on_c, 6, 62, 0
19, 495986, Note_on_c, 6, 62, 111
19, 496346, Note_on_c, 6, 62, 0
19, 496698, Note_on_c, 6, 60, 87
19, 496770, Note_on_c, 6, 60, 0
19, 496827, Note_on_c, 6, 59, 78
19, 496899, Note_on_c, 6, 59, 0
19, 496947, Note_on_c, 6, 58, 87
19, 497019, Note_on_c, 6, 58, 0
19, 497052, Note_on_c, 6, 56, 93
19, 497124, Note_on_c, 6, 56, 0
19, 497187, Note_on_c, 6, 54, 88
19, 497234, Note_on_c, 6, 54, 0
19, 498011, Note_on_c, 6, 62, 106
19, 498058, Note_on_c, 6, 62, 0
19, 498244, Note_on_c, 6, 62, 120
19, 498291, Note_on_c, 6, 62, 0
19, 498504, Note_on_c, 6, 62, 109
19, 498864, Note_on_c, 6, 62, 0
19, 502931, Note_on_c, 6, 62, 109
19, 502978, Note_on_c, 6, 62, 0
19, 503065, Note_on_c, 6, 60, 117
19, 503161, Note_on_c, 6, 60, 0
19, 503291, Note_on_c, 6, 59, 105
19, 503338, Note_on_c, 6, 59, 0
19, 503545, Note_on_c, 6, 63, 112
19, 503592, Note_on_c, 6, 63, 0
19, 503649, Note_on_c, 6, 62, 110
19, 503696, Note_on_c, 6, 62, 0
19, 503896, Note_on_c, 6, 60, 102
19, 503943, Note_on_c, 6, 60, 0
19, 504145, Note_on_c, 6, 59, 111
19, 504192, Note_on_c, 6, 59, 0
19, 535929, Note_on_c, 6, 70, 91
19, 535946, Note_on_c, 6, 75, 100
19, 535979, Note_on_c, 6, 70, 0
19, 535998, Note_on_c, 6, 70, 96
19, 536046, Note_on_c, 6, 70, 0
19, 536065, Note_on_c, 6, 70, 101
19, 536084, Note_on_c, 6, 70, 0
19, 536103, Note_on_c, 6, 70, 106
19, 536152, Note_on_c, 6, 70, 0
19, 536172, Note_on_c, 6, 70, 102
19, 536175, Note_on_c, 6, 73, 100
19, 536186, Note_on_c, 6, 75, 0
19, 536215, Note_on_c, 6, 70, 0
19, 536234, Note_on_c, 6, 70, 106
19, 536275, Note_on_c, 6, 70, 0
19, 536294, Note_on_c, 6, 70, 93
19, 536337, Note_on_c, 6, 70, 0
19, 536356, Note_on_c, 6, 70, 92
19, 536385, Note_on_c, 6, 70, 0
19, 536404, Note_on_c, 6, 70, 94
19, 536414, Note_on_c, 6, 72, 99
19, 536415, Note_on_c, 6, 73, 0
19, 536455, Note_on_c, 6, 70, 0
19, 536474, Note_on_c, 6, 70, 108
19, 536528, Note_on_c, 6, 70, 0
19, 536547, Note_on_c, 6, 70, 92
19, 536561, Note_on_c, 6, 70, 0
19, 536580, Note_on_c, 6, 70, 107
19, 536639, Note_on_c, 6, 70, 0
19, 536654, Note_on_c, 6, 72, 0
19, 536658, Note_on_c, 6, 70, 107
19, 536898, Note_on_c, 6, 70, 0
19, 536903, Note_on_c, 6, 68, 102
19, 536903, Note_on_c, 6, 71, 105
19, 537126, Note_on_c, 6, 69, 100
19, 537141, Note_on_c, 6, 67, 109
19, 537143, Note_on_c, 6, 68, 0
19, 537143, Note_on_c, 6, 71, 0
19, 537365, Note_on_c, 6, 71, 92
19, 537366, Note_on_c, 6, 69, 0
19, 537381, Note_on_c, 6, 67, 0
19, 537385, Note_on_c, 6, 65, 109
19, 537505, Note_on_c, 6, 65, 0
19, 537605, Note_on_c, 6, 71, 0
19, 550810, Note_on_c, 6, 67, 107
19, 550930, Note_on_c, 6, 67, 0
19, 552383, Note_on_c, 6, 61, 103
19, 552430, Note_on_c, 6, 61, 0
19, 553810, Note_on_c, 6, 61, 100
19, 553857, Note_on_c, 6, 61, 0
19, 554775, Note_on_c, 6, 59, 83
19, 554918, Note_on_c, 6, 59, 0
19, 555014, Note_on_c, 6, 58, 78
19, 555157, Note_on_c, 6, 58, 0
19, 555245, Note_on_c, 6, 56, 92
19, 555305, Note_on_c, 6, 56, 0
19, 555373, Note_on_c, 6, 55, 92
19, 555445, Note_on_c, 6, 55, 0
19, 555493, Note_on_c, 6, 53, 85
19, 555553, Note_on_c, 6, 53, 0
19, 555720, Note_on_c, 6, 61, 112
19, 555767, Note_on_c, 6, 61, 0
19, 555972, Note_on_c, 6, 61, 114
19, 556019, Note_on_c, 6, 61, 0
19, 556224, Note_on_c, 6, 61, 102
19, 556584, Note_on_c, 6, 61, 0
19, 556931, Note_on_c, 6, 59, 88
19, 557003, Note_on_c, 6, 59, 0
19, 557051, Note_on_c, 6, 58, 84
19, 557123, Note_on_c, 6, 58, 0
19, 557161, Note_on_c, 6, 56, 79
19, 557233, Note_on_c, 6, 56, 0
19, 557293, Note_on_c, 6, 55, 93
19, 557365, Note_on_c, 6, 55, 0
19, 557422, Note_on_c, 6, 53, 85
19, 557469, Note_on_c, 6, 53, 0
19, 558256, Note_on_c, 6, 61, 107
19, 558303, Note_on_c, 6, 61, 0
19, 558481, Note_on_c, 6, 61, 105
19, 558528, Note_on_c, 6, 61, 0
19, 558742, Note_on_c, 6, 61, 105
19, 559102, Note_on_c, 6, 61, 0
19, 563176, Note_on_c, 6, 61, 110
19, 563223, Note_on_c, 6, 61, 0
19, 563280, Note_on_c, 6, 59, 92
19, 563376, Note_on_c, 6, 59, 0
19, 563534, Note_on_c, 6, 58, 96
19, 563581, Note_on_c, 6, 58, 0
19, 563778, Note_on_c, 6, 62, 95
19, 563825, Note_on_c, 6, 62, 0
19, 563901, Note_on_c, 6, 61, 108
19, 563948, Note_on_c, 6, 61, 0
19, 564129, Note_on_c, 6, 59, 101
19, 564176, Note_on_c, 6, 59, 0
19, 564370, Note_on_c, 6, 58, 99
19, 564417, Note_on_c, 6, 58, 0
19, 582261, Note_on_c, 6, 60, 84
19, 583221, Note_on_c, 6, 60, 0
19, 583226, Note_on_c, 6, 62, 89
19, 583684, Note_on_c, 6, 64, 86
19, 583706, Note_on_c, 6, 62, 0
19, 583804, Note_on_c, 6, 64, 0
19, 583929, Note_on_c, 6, 62, 88
19, 584049, Note_on_c, 6, 62, 0
19, 584181, Note_on_c, 6, 64, 84
19, 584658, Note_on_c, 6, 66, 85
19, 584661, Note_on_c, 6, 64, 0
19, 585378, Note_on_c, 6, 66, 0
19, 588505, Note_on_c, 6, 62, 118
19, 588601, Note_on_c, 6, 62, 0
19, 589465, Note_on_c, 6, 62, 100
19, 589561, Note_on_c, 6, 62, 0
19, 590409, Note_on_c, 6, 62, 108
19, 590505, Note_on_c, 6, 62, 0
19, 591368, Note_on_c, 6, 62, 110
19, 591464, Note_on_c, 6, 62, 0
19, 592338, Note_on_c, 6, 62, 118
19, 592434, Note_on_c, 6, 62, 0
19, 593296, Note_on_c, 6, 62, 105
19, 593392, Note_on_c, 6, 62, 0
19, 594268, Note_on_c, 6, 62, 113
19, 594364, Note_on_c, 6, 62, 0
19, 595218, Note_on_c, 6, 62, 109
19, 595314, Note_on_c, 6, 62, 0
19, 596171, Note_on_c, 6, 62, 112
19, 596267, Note_on_c, 6, 62, 0
19, 597123, Note_on_c, 6, 62, 107
19, 597219, Note_on_c, 6, 62, 0
19, 598080, Note_on_c, 6, 62, 107
19, 598176, Note_on_c, 6, 62, 0
19, 599053, Note_on_c, 6, 62, 111
19, 599149, Note_on_c, 6, 62, 0
19, 600023, Note_on_c, 6, 62, 101
19, 600119, Note_on_c, 6, 62, 0
19, 600504, Note_on_c, 6, 64, 109
19, 600611, Note_on_c, 6, 64, 0
19, 600972, Note_on_c, 6, 65, 102
19, 601079, Note_on_c, 6, 65, 0
19, 601469, Note_on_c, 6, 66, 109
19, 601522, Note_on_c, 6, 66, 0
19, 601689, Note_on_c, 6, 62, 109
19, 601742, Note_on_c, 6, 62, 0
19, 602177, Note_on_c, 6, 62, 114
19, 602230, Note_on_c, 6, 62, 0
19, 602400, Note_on_c, 6, 62, 108
19, 602453, Note_on_c, 6, 62, 0
19, 602769, Note_on_c, 6, 62, 100
19, 602822, Note_on_c, 6, 62, 0
19, 603624, Note_on_c, 6, 62, 107
19, 603677, Note_on_c, 6, 62, 0
19, 603861, Note_on_c, 6, 64, 105
19, 603914, Note_on_c, 6, 64, 0
19, 603981, Note_on_c, 6, 61, 110
19, 604034, Note_on_c, 6, 61, 0
19, 604107, Note_on_c, 6, 60, 119
19, 604160, Note_on_c, 6, 60, 0
19, 607100, Note_on_c, 6, 63, 102
19, 607340, Note_on_c, 6, 63, 0
19, 607569, Note_on_c, 6, 61, 109
19, 607809, Note_on_c, 6, 61, 0
19, 608046, Note_on_c, 6, 63, 92
19, 608286, Note_on_c, 6, 63, 0
19, 608547, Note_on_c, 6, 60, 106
19, 608787, Note_on_c, 6, 60, 0
19, 609021, Note_on_c, 6, 63, 93
19, 609261, Note_on_c, 6, 63, 0
19, 609507, Note_on_c, 6, 59, 109
19, 609627, Note_on_c, 6, 59, 0
19, 609727, Note_on_c, 6, 58, 98
19, 609847, Note_on_c, 6, 58, 0
19, 609983, Note_on_c, 6, 56, 95
19, 610103, Note_on_c, 6, 56, 0
19, 610211, Note_on_c, 6, 59, 108
19, 610331, Note_on_c, 6, 59, 0
19, 610467, Note_on_c, 6, 61, 108
19, 610707, Note_on_c, 6, 61, 0
19, 610928, Note_on_c, 6, 63, 100
19, 611168, Note_on_c, 6, 63, 0
19, 611410, Note_on_c, 6, 59, 94
19, 611530, Note_on_c, 6, 59, 0
19, 611659, Note_on_c, 6, 58, 97
19, 611779, Note_on_c, 6, 58, 0
19, 611907, Note_on_c, 6, 56, 105
19, 612027, Note_on_c, 6, 56, 0
19, 612122, Note_on_c, 6, 59, 107
19, 612242, Note_on_c, 6, 59, 0
19, 612379, Note_on_c, 6, 61, 99
19, 612619, Note_on_c, 6, 61, 0
19, 614771, Note_on_c, 6, 63, 93
19, 615058, Note_on_c, 6, 63, 0
19, 615264, Note_on_c, 6, 59, 94
19, 615407, Note_on_c, 6, 59, 0
19, 615490, Note_on_c, 6, 58, 92
19, 615633, Note_on_c, 6, 58, 0
19, 615728, Note_on_c, 6, 56, 95
19, 615871, Note_on_c, 6, 56, 0
19, 615983, Note_on_c, 6, 59, 108
19, 616126, Note_on_c, 6, 59, 0
19, 616209, Note_on_c, 6, 61, 107
19, 616496, Note_on_c, 6, 61, 0
19, 616687, Note_on_c, 6, 68, 105
19, 616927, Note_on_c, 6, 68, 0
19, 617176, Note_on_c, 6, 66, 107
19, 617416, Note_on_c, 6, 66, 0
19, 617663, Note_on_c, 6, 63, 110
19, 617903, Note_on_c, 6, 63, 0
19, 618132, Note_on_c, 6, 64, 95
19, 618372, Note_on_c, 6, 64, 0
19, 618626, Note_on_c, 6, 66, 92
19, 618866, Note_on_c, 6, 66, 0
19, 619084, Note_on_c, 6, 65, 105
19, 619324, Note_on_c, 6, 65, 0
19, 619574, Note_on_c, 6, 66, 108
19, 619814, Note_on_c, 6, 66, 0
19, 620054, Note_on_c, 6, 65, 110
19, 620294, Note_on_c, 6, 65, 0
19, 620533, Note_on_c, 6, 66, 100
19, 620773, Note_on_c, 6, 66, 0
19, 621008, Note_on_c, 6, 65, 93
19, 621248, Note_on_c, 6, 65, 0
19, 621501, Note_on_c, 6, 66, 101
19, 621741, Note_on_c, 6, 66, 0
19, 621961, Note_on_c, 6, 65, 96
19, 622201, Note_on_c, 6, 65, 0
19, 622441, Note_on_c, 6, 66, 99
19, 622681, Note_on_c, 6, 66, 0
19, 622929, Note_on_c, 6, 65, 100
19, 623169, Note_on_c, 6, 65, 0
19, 623417, Note_on_c, 6, 66, 108
19, 623657, Note_on_c, 6, 66, 0
19, 623888, Note_on_c, 6, 65, 106
19, 624128, Note_on_c, 6, 65, 0
19, 624368, Note_on_c, 6, 66, 103
19, 624608, Note_on_c, 6, 66, 0
19, 624844, Note_on_c, 6, 65, 91
19, 625084, Note_on_c, 6, 65, 0
19, 625332, Note_on_c, 6, 64, 105
19, 625572, Note_on_c, 6, 64, 0
19, 625824, Note_on_c, 6, 65, 104
19, 626064, Note_on_c, 6, 65, 0
19, 626300, Note_on_c, 6, 64, 95
19, 626540, Note_on_c, 6, 64, 0
19, 626772, Note_on_c, 6, 63, 98
19, 627012, Note_on_c, 6, 63, 0
19, 627253, Note_on_c, 6, 62, 97
19, 627493, Note_on_c, 6, 62, 0
19, 627738, Note_on_c, 6, 61, 110
19, 627846, Note_on_c, 6, 57, 101
19, 627858, Note_on_c, 6, 61, 0
19, 627893, Note_on_c, 6, 57, 0
19, 628104, Note_on_c, 6, 57, 107
19, 628151, Note_on_c, 6, 57, 0
19, 628925, Note_on_c, 6, 57, 114
19, 628972, Note_on_c, 6, 57, 0
19, 629655, Note_on_c, 6, 57, 110
19, 629702, Note_on_c, 6, 57, 0
19, 629890, Note_on_c, 6, 57, 103
19, 629937, Note_on_c, 6, 57, 0
19, 630729, Note_on_c, 6, 57, 105
19, 630776, Note_on_c, 6, 57, 0
19, 630973, Note_on_c, 6, 57, 102
19, 631020, Note_on_c, 6, 57, 0
19, 631821, Note_on_c, 6, 57, 118
19, 631868, Note_on_c, 6, 57, 0
19, 632522, Note_on_c, 6, 57, 108
19, 632569, Note_on_c, 6, 57, 0
19, 632779, Note_on_c, 6, 57, 104
19, 632826, Note_on_c, 6, 57, 0
19, 634093, Note_on_c, 6, 60, 79
19, 634153, Note_on_c, 6, 60, 0
19, 634216, Note_on_c, 6, 60, 79
19, 634276, Note_on_c, 6, 60, 0
19, 634347, Note_on_c, 6, 60, 82
19, 634407, Note_on_c, 6, 60, 0
19, 634446, Note_on_c, 6, 64, 80
19, 634506, Note_on_c, 6, 64, 0
19, 634570, Note_on_c, 6, 60, 98
19, 634630, Note_on_c, 6, 60, 0
19, 635290, Note_on_c, 6, 60, 88
19, 635350, Note_on_c, 6, 60, 0
19, 635426, Note_on_c, 6, 60, 95
19, 635486, Note_on_c, 6, 60, 0
19, 635547, Note_on_c, 6, 60, 87
19, 635607, Note_on_c, 6, 60, 0
19, 635645, Note_on_c, 6, 64, 96
19, 635705, Note_on_c, 6, 64, 0
19, 635762, Note_on_c, 6, 60, 83
19, 635822, Note_on_c, 6, 60, 0
19, 639970, Note_on_c, 6, 60, 110
19, 640030, Note_on_c, 6, 60, 0
19, 640100, Note_on_c, 6, 64, 111
19, 640160, Note_on_c, 6, 64, 0
19, 641174, Note_on_c, 6, 55, 101
19, 641234, Note_on_c, 6, 55, 0
19, 641284, Note_on_c, 6, 60, 92
19, 641344, Note_on_c, 6, 60, 0
19, 641410, Note_on_c, 6, 64, 94
19, 641470, Note_on_c, 6, 64, 0
19, 645364, Note_on_c, 6, 60, 107
19, 645424, Note_on_c, 6, 60, 0
19, 645503, Note_on_c, 6, 64, 109
19, 645563, Note_on_c, 6, 64, 0
19, 646697, Note_on_c, 6, 60, 92
19, 646757, Note_on_c, 6, 60, 0
19, 646824, Note_on_c, 6, 64, 93
19, 646884, Note_on_c, 6, 64, 0
19, 647287, Note_on_c, 6, 55, 95
19, 647347, Note_on_c, 6, 55, 0
19, 647421, Note_on_c, 6, 60, 102
19, 647481, Note_on_c, 6, 60, 0
19, 647530, Note_on_c, 6, 64, 101
19, 647590, Note_on_c, 6, 64, 0
19, 648006, Note_on_c, 6, 60, 93
19, 648066, Note_on_c, 6, 60, 0
19, 648134, Note_on_c, 6, 64, 93
19, 648194, Note_on_c, 6, 64, 0
19, 648371, Note_on_c, 6, 60, 107
19, 648431, Note_on_c, 6, 60, 0
19, 648843, Note_on_c, 6, 55, 110
19, 648903, Note_on_c, 6, 55, 0
19, 648974, Note_on_c, 6, 60, 106
19, 649034, Note_on_c, 6, 60, 0
19, 649090, Note_on_c, 6, 64, 91
19, 649150, Note_on_c, 6, 64, 0
19, 649336, Note_on_c, 6, 60, 109
19, 649396, Note_on_c, 6, 60, 0
19, 649824, Note_on_c, 6, 60, 109
19, 649884, Note_on_c, 6, 60, 0
19, 649933, Note_on_c, 6, 64, 96
19, 649993, Note_on_c, 6, 64, 0
19, 650404, Note_on_c, 6, 55, 102
19, 650464, Note_on_c, 6, 55, 0
19, 650527, Note_on_c, 6, 60, 111
19, 650587, Note_on_c, 6, 60, 0
19, 650663, Note_on_c, 6, 64, 107
19, 650723, Note_on_c, 6, 64, 0
19, 650898, Note_on_c, 6, 60, 92
19, 650958, Note_on_c, 6, 60, 0
19, 651365, Note_on_c, 6, 55, 92
19, 651425, Note_on_c, 6, 55, 0
19, 651484, Note_on_c, 6, 60, 106
19, 651544, Note_on_c, 6, 60, 0
19, 651615, Note_on_c, 6, 64, 103
19, 651675, Note_on_c, 6, 64, 0
19, 651860, Note_on_c, 6, 60, 95
19, 651920, Note_on_c, 6, 60, 0
19, 652097, Note_on_c, 6, 55, 98
19, 652157, Note_on_c, 6, 55, 0
19, 652228, Note_on_c, 6, 60, 91
19, 652288, Note_on_c, 6, 60, 0
19, 652337, Note_on_c, 6, 64, 93
19, 652397, Note_on_c, 6, 64, 0
19, 652571, Note_on_c, 6, 60, 91
19, 652631, Note_on_c, 6, 60, 0
19, 653065, Note_on_c, 6, 55, 105
19, 653125, Note_on_c, 6, 55, 0
19, 653163, Note_on_c, 6, 60, 105
19, 653223, Note_on_c, 6, 60, 0
19, 653281, Note_on_c, 6, 64, 106
19, 653341, Note_on_c, 6, 64, 0
19, 653546, Note_on_c, 6, 60, 106
19, 653606, Note_on_c, 6, 60, 0
19, 653779, Note_on_c, 6, 55, 108
19, 653839, Note_on_c, 6, 55, 0
19, 653908, Note_on_c, 6, 60, 99
19, 653968, Note_on_c, 6, 60, 0
19, 654027, Note_on_c, 6, 64, 107
19, 654087, Note_on_c, 6, 64, 0
19, 654259, Note_on_c, 6, 60, 102
19, 654319, Note_on_c, 6, 60, 0
19, 654737, Note_on_c, 6, 55, 106
19, 654797, Note_on_c, 6, 55, 0
19, 654864, Note_on_c, 6, 60, 105
19, 654924, Note_on_c, 6, 60, 0
19, 654986, Note_on_c, 6, 64, 95
19, 655046, Note_on_c, 6, 64, 0
19, 655101, Note_on_c, 6, 60, 110
19, 655161, Note_on_c, 6, 60, 0
19, 655333, Note_on_c, 6, 72, 112
19, 655393, Note_on_c, 6, 72, 0
19, 655393, End_track
20, 0, Start_track
20, 0, Title_t, "Tromboni"
20, 0, MIDI_port, 0
20, 0, Control_c, 7, 7, 127
20, 0, Control_c, 7, 91, 127
20, 0, Program_c, 7, 57
20, 10560, Control_c, 7, 11, 127
20, 10565, Note_on_c, 7, 62, 54
20, 10570, Note_on_c, 7, 53, 55
20, 10582, Control_c, 7, 11, 126
20, 10583, Note_on_c, 7, 45, 64
20, 10605, Control_c, 7, 11, 125
20, 10628, Control_c, 7, 11, 124
20, 10651, Control_c, 7, 11, 123
20, 10674, Control_c, 7, 11, 122
20, 10697, Control_c, 7, 11, 121
20, 10719, Control_c, 7, 11, 120
20, 10742, Control_c, 7, 11, 119
20, 10765, Control_c, 7, 11, 118
20, 10788, Control_c, 7, 11, 117
20, 10811, Control_c, 7, 11, 116
20, 10834, Control_c, 7, 11, 115
20, 10857, Control_c, 7, 11, 114
20, 10880, Control_c, 7, 11, 113
20, 10902, Control_c, 7, 11, 112
20, 10925, Control_c, 7, 11, 111
20, 10948, Control_c, 7, 11, 110
20, 10971, Control_c, 7, 11, 109
20, 10994, Control_c, 7, 11, 108
20, 11017, Control_c, 7, 11, 107
20, 11040, Control_c, 7, 11, 106
20, 11062, Control_c, 7, 11, 105
20, 11085, Control_c, 7, 11, 104
20, 11108, Control_c, 7, 11, 103
20, 11131, Control_c, 7, 11, 102
20, 11154, Control_c, 7, 11, 101
20, 11177, Control_c, 7, 11, 100
20, 11199, Control_c, 7, 11, 99
20, 11222, Control_c, 7, 11, 98
20, 11245, Control_c, 7, 11, 97
20, 11268, Control_c, 7, 11, 96
20, 11291, Control_c, 7, 11, 95
20, 11314, Control_c, 7, 11, 94
20, 11337, Control_c, 7, 11, 93
20, 11360, Control_c, 7, 11, 92
20, 11382, Control_c, 7, 11, 91
20, 11405, Control_c, 7, 11, 90
20, 11428, Control_c, 7, 11, 89
20, 11451, Control_c, 7, 11, 88
20, 11474, Control_c, 7, 11, 87
20, 11497, Control_c, 7, 11, 86
20, 11520, Control_c, 7, 11, 85
20, 11542, Control_c, 7, 11, 84
20, 11565, Control_c, 7, 11, 83
20, 11588, Control_c, 7, 11, 82
20, 11611, Control_c, 7, 11, 81
20, 11634, Control_c, 7, 11, 80
20, 11657, Control_c, 7, 11, 79
20, 11679, Control_c, 7, 11, 78
20, 11702, Control_c, 7, 11, 77
20, 11725, Control_c, 7, 11, 76
20, 11748, Control_c, 7, 11, 75
20, 11771, Control_c, 7, 11, 74
20, 11794, Control_c, 7, 11, 73
20, 11817, Control_c, 7, 11, 72
20, 11840, Control_c, 7, 11, 71
20, 11862, Control_c, 7, 11, 70
20, 11885, Control_c, 7, 11, 69
20, 11908, Control_c, 7, 11, 68
20, 11931, Control_c, 7, 11, 67
20, 11954, Control_c, 7, 11, 66
20, 11977, Control_c, 7, 11, 65
20, 12245, Note_on_c, 7, 62, 0
20, 12250, Note_on_c, 7, 53, 0
20, 12263, Note_on_c, 7, 45, 0
20, 15360, Control_c, 7, 11, 127
20, 15362, Note_on_c, 7, 62, 66
20, 15375, Control_c, 7, 11, 126
20, 15378, Note_on_c, 7, 53, 60
20, 15380, Note_on_c, 7, 45, 67
20, 15390, Control_c, 7, 11, 125
20, 15405, Control_c, 7, 11, 124
20, 15420, Control_c, 7, 11, 123
20, 15435, Control_c, 7, 11, 122
20, 15450, Control_c, 7, 11, 121
20, 15465, Control_c, 7, 11, 120
20, 15481, Control_c, 7, 11, 119
20, 15496, Control_c, 7, 11, 118
20, 15511, Control_c, 7, 11, 117
20, 15526, Control_c, 7, 11, 116
20, 15541, Control_c, 7, 11, 115
20, 15556, Control_c, 7, 11, 114
20, 15572, Control_c, 7, 11, 113
20, 15587, Control_c, 7, 11, 112
20, 15602, Control_c, 7, 11, 111
20, 15617, Control_c, 7, 11, 110
20, 15632, Control_c, 7, 11, 109
20, 15647, Control_c, 7, 11, 108
20, 15663, Control_c, 7, 11, 107
20, 15678, Control_c, 7, 11, 106
20, 15693, Control_c, 7, 11, 105
20, 15708, Control_c, 7, 11, 104
20, 15723, Control_c, 7, 11, 103
20, 15738, Control_c, 7, 11, 102
20, 15754, Control_c, 7, 11, 101
20, 15769, Control_c, 7, 11, 100
20, 15784, Control_c, 7, 11, 99
20, 15799, Control_c, 7, 11, 98
20, 15814, Control_c, 7, 11, 97
20, 15829, Control_c, 7, 11, 96
20, 15845, Control_c, 7, 11, 95
20, 15860, Control_c, 7, 11, 94
20, 15875, Control_c, 7, 11, 93
20, 15890, Control_c, 7, 11, 92
20, 15905, Control_c, 7, 11, 91
20, 15920, Control_c, 7, 11, 90
20, 15936, Control_c, 7, 11, 89
20, 15951, Control_c, 7, 11, 88
20, 15966, Control_c, 7, 11, 87
20, 15981, Control_c, 7, 11, 86
20, 15996, Control_c, 7, 11, 85
20, 16011, Control_c, 7, 11, 84
20, 16027, Control_c, 7, 11, 83
20, 16042, Control_c, 7, 11, 82
20, 16057, Control_c, 7, 11, 81
20, 16072, Control_c, 7, 11, 80
20, 16087, Control_c, 7, 11, 79
20, 16102, Control_c, 7, 11, 78
20, 16117, Control_c, 7, 11, 77
20, 16132, Control_c, 7, 11, 76
20, 16148, Control_c, 7, 11, 75
20, 16163, Control_c, 7, 11, 74
20, 16178, Control_c, 7, 11, 73
20, 16193, Control_c, 7, 11, 72
20, 16208, Control_c, 7, 11, 71
20, 16223, Control_c, 7, 11, 70
20, 16239, Control_c, 7, 11, 69
20, 16254, Control_c, 7, 11, 68
20, 16269, Control_c, 7, 11, 67
20, 16284, Control_c, 7, 11, 66
20, 16299, Control_c, 7, 11, 65
20, 16314, Control_c, 7, 11, 64
20, 16330, Control_c, 7, 11, 63
20, 16345, Control_c, 7, 11, 62
20, 16360, Control_c, 7, 11, 61
20, 16375, Control_c, 7, 11, 60
20, 16390, Control_c, 7, 11, 59
20, 16405, Control_c, 7, 11, 58
20, 16421, Control_c, 7, 11, 57
20, 16436, Control_c, 7, 11, 56
20, 16451, Control_c, 7, 11, 55
20, 16466, Control_c, 7, 11, 54
20, 16481, Control_c, 7, 11, 53
20, 16496, Control_c, 7, 11, 52
20, 16512, Control_c, 7, 11, 51
20, 16527, Control_c, 7, 11, 50
20, 16542, Control_c, 7, 11, 49
20, 16557, Control_c, 7, 11, 48
20, 16572, Control_c, 7, 11, 47
20, 16587, Control_c, 7, 11, 46
20, 16603, Control_c, 7, 11, 45
20, 16618, Control_c, 7, 11, 44
20, 16633, Control_c, 7, 11, 43
20, 16648, Control_c, 7, 11, 42
20, 16663, Control_c, 7, 11, 41
20, 16678, Control_c, 7, 11, 40
20, 16694, Control_c, 7, 11, 39
20, 16709, Control_c, 7, 11, 38
20, 16724, Control_c, 7, 11, 37
20, 16739, Control_c, 7, 11, 36
20, 16754, Control_c, 7, 11, 35
20, 16769, Control_c, 7, 11, 34
20, 16785, Control_c, 7, 11, 33
20, 17042, Note_on_c, 7, 62, 0
20, 17058, Note_on_c, 7, 53, 0
20, 17060, Note_on_c, 7, 45, 0
20, 19680, Control_c, 7, 11, 127
20, 19691, Note_on_c, 7, 45, 64
20, 19701, Note_on_c, 7, 62, 52
20, 19702, Control_c, 7, 11, 126
20, 19709, Note_on_c, 7, 53, 64
20, 19725, Control_c, 7, 11, 125
20, 19748, Control_c, 7, 11, 124
20, 19771, Control_c, 7, 11, 123
20, 19794, Control_c, 7, 11, 122
20, 19817, Control_c, 7, 11, 121
20, 19839, Control_c, 7, 11, 120
20, 19862, Control_c, 7, 11, 119
20, 19885, Control_c, 7, 11, 118
20, 19908, Control_c, 7, 11, 117
20, 19931, Control_c, 7, 11, 116
20, 19954, Control_c, 7, 11, 115
20, 19977, Control_c, 7, 11, 114
20, 20000, Control_c, 7, 11, 113
20, 20022, Control_c, 7, 11, 112
20, 20045, Control_c, 7, 11, 111
20, 20068, Control_c, 7, 11, 110
20, 20091, Control_c, 7, 11, 109
20, 20114, Control_c, 7, 11, 108
20, 20137, Control_c, 7, 11, 107
20, 20160, Control_c, 7, 11, 106
20, 20182, Control_c, 7, 11, 105
20, 20205, Control_c, 7, 11, 104
20, 20228, Control_c, 7, 11, 103
20, 20251, Control_c, 7, 11, 102
20, 20274, Control_c, 7, 11, 101
20, 20297, Control_c, 7, 11, 100
20, 20319, Control_c, 7, 11, 99
20, 20342, Control_c, 7, 11, 98
20, 20365, Control_c, 7, 11, 97
20, 20388, Control_c, 7, 11, 96
20, 20411, Control_c, 7, 11, 95
20, 20434, Control_c, 7, 11, 94
20, 20457, Control_c, 7, 11, 93
20, 20480, Control_c, 7, 11, 92
20, 20502, Control_c, 7, 11, 91
20, 20525, Control_c, 7, 11, 90
20, 20548, Control_c, 7, 11, 89
20, 20571, Control_c, 7, 11, 88
20, 20594, Control_c, 7, 11, 87
20, 20617, Control_c, 7, 11, 86
20, 20640, Control_c, 7, 11, 85
20, 20662, Control_c, 7, 11, 84
20, 20685, Control_c, 7, 11, 83
20, 20708, Control_c, 7, 11, 82
20, 20731, Control_c, 7, 11, 81
20, 20754, Control_c, 7, 11, 80
20, 20777, Control_c, 7, 11, 79
20, 20799, Control_c, 7, 11, 78
20, 20822, Control_c, 7, 11, 77
20, 20845, Control_c, 7, 11, 76
20, 20868, Control_c, 7, 11, 75
20, 20891, Control_c, 7, 11, 74
20, 20914, Control_c, 7, 11, 73
20, 20937, Control_c, 7, 11, 72
20, 20960, Control_c, 7, 11, 71
20, 20982, Control_c, 7, 11, 70
20, 21005, Control_c, 7, 11, 69
20, 21028, Control_c, 7, 11, 68
20, 21051, Control_c, 7, 11, 67
20, 21074, Control_c, 7, 11, 66
20, 21097, Control_c, 7, 11, 65
20, 21371, Note_on_c, 7, 45, 0
20, 21381, Note_on_c, 7, 62, 0
20, 21389, Note_on_c, 7, 53, 0
20, 22550, Control_c, 7, 11, 127
20, 208810, Note_on_c, 7, 57, 72
20, 208890, Note_on_c, 7, 57, 0
20, 208968, Note_on_c, 7, 63, 69
20, 209048, Note_on_c, 7, 63, 0
20, 209138, Note_on_c, 7, 60, 54
20, 209218, Note_on_c, 7, 60, 0
20, 209293, Note_on_c, 7, 59, 56
20, 209373, Note_on_c, 7, 59, 0
20, 210263, Note_on_c, 7, 66, 111
20, 210383, Note_on_c, 7, 66, 0
20, 224189, Note_on_c, 7, 67, 87
20, 224285, Note_on_c, 7, 67, 0
20, 225124, Note_on_c, 7, 43, 108
20, 225130, Note_on_c, 7, 55, 110
20, 225177, Note_on_c, 7, 43, 0
20, 225183, Note_on_c, 7, 55, 0
20, 228484, Note_on_c, 7, 60, 108
20, 228564, Note_on_c, 7, 60, 0
20, 228651, Note_on_c, 7, 63, 109
20, 228731, Note_on_c, 7, 63, 0
20, 228811, Note_on_c, 7, 57, 119
20, 228891, Note_on_c, 7, 57, 0
20, 228963, Note_on_c, 7, 58, 100
20, 229043, Note_on_c, 7, 58, 0
20, 229943, Note_on_c, 7, 43, 102
20, 229944, Note_on_c, 7, 55, 105
20, 229996, Note_on_c, 7, 43, 0
20, 229997, Note_on_c, 7, 55, 0
20, 234013, Note_on_c, 7, 67, 83
20, 234109, Note_on_c, 7, 67, 0
20, 234965, Note_on_c, 7, 43, 117
20, 234984, Note_on_c, 7, 55, 102
20, 235018, Note_on_c, 7, 43, 0
20, 235037, Note_on_c, 7, 55, 0
20, 245562, Control_c, 7, 101, 0
20, 245562, Control_c, 7, 100, 0
20, 245563, Control_c, 7, 6, 24
20, 245563, Control_c, 7, 38, 0
20, 247214, Control_c, 7, 101, 0
20, 247214, Control_c, 7, 100, 0
20, 247215, Control_c, 7, 6, 24
20, 247215, Control_c, 7, 38, 24
20, 248982, Pitch_bend_c, 7, 5803
20, 248991, Pitch_bend_c, 7, 5963
20, 249000, Pitch_bend_c, 7, 6123
20, 249009, Pitch_bend_c, 7, 6283
20, 249009, Note_on_c, 7, 65, 107
20, 249018, Pitch_bend_c, 7, 6443
20, 249027, Pitch_bend_c, 7, 6603
20, 249036, Pitch_bend_c, 7, 6763
20, 249045, Pitch_bend_c, 7, 6923
20, 249054, Pitch_bend_c, 7, 7083
20, 249063, Pitch_bend_c, 7, 7243
20, 249072, Pitch_bend_c, 7, 7403
20, 249081, Pitch_bend_c, 7, 7563
20, 249090, Pitch_bend_c, 7, 7723
20, 249099, Pitch_bend_c, 7, 7883
20, 249108, Pitch_bend_c, 7, 8043
20, 249115, Pitch_bend_c, 7, 8192
20, 249369, Note_on_c, 7, 65, 0
20, 251142, Pitch_bend_c, 7, 5803
20, 251151, Pitch_bend_c, 7, 5963
20, 251160, Pitch_bend_c, 7, 6123
20, 251165, Note_on_c, 7, 65, 110
20, 251169, Pitch_bend_c, 7, 6283
20, 251178, Pitch_bend_c, 7, 6443
20, 251187, Pitch_bend_c, 7, 6603
20, 251196, Pitch_bend_c, 7, 6763
20, 251205, Pitch_bend_c, 7, 6923
20, 251214, Pitch_bend_c, 7, 7083
20, 251223, Pitch_bend_c, 7, 7243
20, 251232, Pitch_bend_c, 7, 7403
20, 251241, Pitch_bend_c, 7, 7563
20, 251250, Pitch_bend_c, 7, 7723
20, 251259, Pitch_bend_c, 7, 7883
20, 251268, Pitch_bend_c, 7, 8043
20, 251275, Pitch_bend_c, 7, 8192
20, 251525, Note_on_c, 7, 65, 0
20, 253782, Pitch_bend_c, 7, 5803
20, 253791, Pitch_bend_c, 7, 5963
20, 253800, Pitch_bend_c, 7, 6123
20, 253809, Pitch_bend_c, 7, 6283
20, 253817, Note_on_c, 7, 65, 107
20, 253818, Pitch_bend_c, 7, 6443
20, 253827, Pitch_bend_c, 7, 6603
20, 253836, Pitch_bend_c, 7, 6763
20, 253845, Pitch_bend_c, 7, 6923
20, 253854, Pitch_bend_c, 7, 7083
20, 253863, Pitch_bend_c, 7, 7243
20, 253872, Pitch_bend_c, 7, 7403
20, 253881, Pitch_bend_c, 7, 7563
20, 253890, Pitch_bend_c, 7, 7723
20, 253899, Pitch_bend_c, 7, 7883
20, 253908, Pitch_bend_c, 7, 8043
20, 253915, Pitch_bend_c, 7, 8192
20, 254177, Note_on_c, 7, 65, 0
20, 263547, Note_on_c, 7, 65, 91
20, 263907, Note_on_c, 7, 65, 0
20, 264028, Note_on_c, 7, 65, 95
20, 264388, Note_on_c, 7, 65, 0
20, 279847, Note_on_c, 7, 56, 125
20, 279868, Note_on_c, 7, 66, 122
20, 279967, Note_on_c, 7, 56, 0
20, 279988, Note_on_c, 7, 66, 0
20, 280099, Note_on_c, 7, 61, 122
20, 280103, Note_on_c, 7, 60, 121
20, 280219, Note_on_c, 7, 61, 0
20, 280223, Note_on_c, 7, 60, 0
20, 280321, Note_on_c, 7, 58, 124
20, 280401, Note_on_c, 7, 58, 0
20, 280485, Note_on_c, 7, 58, 127
20, 280565, Note_on_c, 7, 58, 0
20, 280654, Note_on_c, 7, 57, 127
20, 280666, Note_on_c, 7, 56, 113
20, 280734, Note_on_c, 7, 57, 0
20, 280746, Note_on_c, 7, 56, 0
20, 280808, Note_on_c, 7, 63, 125
20, 280826, Note_on_c, 7, 53, 127
20, 281048, Note_on_c, 7, 63, 0
20, 281066, Note_on_c, 7, 53, 0
20, 284163, Note_on_c, 7, 66, 112
20, 284172, Note_on_c, 7, 56, 124
20, 284283, Note_on_c, 7, 66, 0
20, 284292, Note_on_c, 7, 56, 0
20, 284412, Note_on_c, 7, 61, 119
20, 284425, Note_on_c, 7, 60, 127
20, 284532, Note_on_c, 7, 61, 0
20, 284545, Note_on_c, 7, 60, 0
20, 284657, Note_on_c, 7, 58, 125
20, 284737, Note_on_c, 7, 58, 0
20, 284813, Note_on_c, 7, 58, 114
20, 284893, Note_on_c, 7, 58, 0
20, 284987, Note_on_c, 7, 57, 116
20, 284988, Note_on_c, 7, 56, 117
20, 285067, Note_on_c, 7, 57, 0
20, 285068, Note_on_c, 7, 56, 0
20, 286562, Note_on_c, 7, 56, 121
20, 286576, Note_on_c, 7, 66, 116
20, 286682, Note_on_c, 7, 56, 0
20, 286696, Note_on_c, 7, 66, 0
20, 286801, Note_on_c, 7, 61, 114
20, 286810, Note_on_c, 7, 60, 127
20, 286921, Note_on_c, 7, 61, 0
20, 286930, Note_on_c, 7, 60, 0
20, 287063, Note_on_c, 7, 58, 120
20, 287143, Note_on_c, 7, 58, 0
20, 287203, Note_on_c, 7, 58, 118
20, 287283, Note_on_c, 7, 58, 0
20, 287379, Note_on_c, 7, 56, 127
20, 287385, Note_on_c, 7, 57, 113
20, 287459, Note_on_c, 7, 56, 0
20, 287465, Note_on_c, 7, 57, 0
20, 287522, Note_on_c, 7, 56, 94
20, 287527, Note_on_c, 7, 66, 100
20, 287642, Note_on_c, 7, 56, 0
20, 287647, Note_on_c, 7, 66, 0
20, 287666, Note_on_c, 7, 57, 92
20, 287766, Note_on_c, 7, 54, 102
20, 287786, Note_on_c, 7, 57, 0
20, 287886, Note_on_c, 7, 54, 0
20, 287903, Note_on_c, 7, 56, 108
20, 287904, Note_on_c, 7, 57, 108
20, 288000, Note_on_c, 7, 51, 104
20, 288023, Note_on_c, 7, 56, 0
20, 288023, Note_on_c, 7, 61, 106
20, 288024, Note_on_c, 7, 57, 0
20, 288120, Note_on_c, 7, 51, 0
20, 288143, Note_on_c, 7, 61, 0
20, 288256, Note_on_c, 7, 68, 107
20, 288376, Note_on_c, 7, 68, 0
20, 288497, Note_on_c, 7, 67, 106
20, 288617, Note_on_c, 7, 67, 0
20, 288740, Note_on_c, 7, 66, 96
20, 288860, Note_on_c, 7, 66, 0
20, 288969, Note_on_c, 7, 65, 104
20, 289089, Note_on_c, 7, 65, 0
20, 289228, Note_on_c, 7, 64, 102
20, 289468, Note_on_c, 7, 64, 0
20, 340567, Note_on_c, 7, 64, 92
20, 340579, Note_on_c, 7, 60, 81
20, 340927, Note_on_c, 7, 64, 0
20, 340939, Note_on_c, 7, 60, 0
20, 341052, Note_on_c, 7, 64, 90
20, 341063, Note_on_c, 7, 60, 89
20, 341412, Note_on_c, 7, 64, 0
20, 341423, Note_on_c, 7, 60, 0
20, 341525, Note_on_c, 7, 64, 91
20, 341530, Note_on_c, 7, 60, 86
20, 341885, Note_on_c, 7, 64, 0
20, 341890, Note_on_c, 7, 60, 0
20, 342020, Note_on_c, 7, 64, 78
20, 342022, Note_on_c, 7, 60, 82
20, 342380, Note_on_c, 7, 64, 0
20, 342382, Note_on_c, 7, 60, 0
20, 342487, Note_on_c, 7, 60, 93
20, 342493, Note_on_c, 7, 64, 86
20, 342847, Note_on_c, 7, 60, 0
20, 342853, Note_on_c, 7, 64, 0
20, 342961, Note_on_c, 7, 60, 82
20, 342965, Note_on_c, 7, 64, 96
20, 343321, Note_on_c, 7, 60, 0
20, 343325, Note_on_c, 7, 64, 0
20, 343920, Note_on_c, 7, 60, 79
20, 343926, Note_on_c, 7, 64, 92
20, 344280, Note_on_c, 7, 60, 0
20, 344286, Note_on_c, 7, 64, 0
20, 344406, Note_on_c, 7, 64, 91
20, 344406, Note_on_c, 7, 60, 81
20, 344766, Note_on_c, 7, 64, 0
20, 344766, Note_on_c, 7, 60, 0
20, 344884, Note_on_c, 7, 60, 94
20, 344900, Note_on_c, 7, 64, 88
20, 345244, Note_on_c, 7, 60, 0
20, 345260, Note_on_c, 7, 64, 0
20, 345361, Note_on_c, 7, 64, 88
20, 345379, Note_on_c, 7, 60, 93
20, 345721, Note_on_c, 7, 64, 0
20, 345739, Note_on_c, 7, 60, 0
20, 345845, Note_on_c, 7, 64, 91
20, 345867, Note_on_c, 7, 60, 92
20, 346205, Note_on_c, 7, 64, 0
20, 346227, Note_on_c, 7, 60, 0
20, 346332, Note_on_c, 7, 64, 81
20, 346336, Note_on_c, 7, 60, 91
20, 346692, Note_on_c, 7, 64, 0
20, 346696, Note_on_c, 7, 60, 0
20, 346801, Note_on_c, 7, 60, 90
20, 346820, Note_on_c, 7, 64, 93
20, 347161, Note_on_c, 7, 60, 0
20, 347180, Note_on_c, 7, 64, 0
20, 347280, Note_on_c, 7, 64, 83
20, 347297, Note_on_c, 7, 60, 83
20, 347640, Note_on_c, 7, 64, 0
20, 347657, Note_on_c, 7, 60, 0
20, 347760, Note_on_c, 7, 60, 88
20, 347773, Note_on_c, 7, 64, 88
20, 348600, Note_on_c, 7, 60, 0
20, 348613, Note_on_c, 7, 64, 0
20, 348722, Note_on_c, 7, 60, 78
20, 348722, Note_on_c, 7, 64, 85
20, 349082, Note_on_c, 7, 60, 0
20, 349082, Note_on_c, 7, 64, 0
20, 349215, Note_on_c, 7, 64, 97
20, 349224, Note_on_c, 7, 60, 79
20, 349575, Note_on_c, 7, 64, 0
20, 349584, Note_on_c, 7, 60, 0
20, 349682, Note_on_c, 7, 60, 79
20, 349689, Note_on_c, 7, 64, 79
20, 350042, Note_on_c, 7, 60, 0
20, 350049, Note_on_c, 7, 64, 0
20, 350176, Note_on_c, 7, 64, 80
20, 350187, Note_on_c, 7, 60, 89
20, 350536, Note_on_c, 7, 64, 0
20, 350547, Note_on_c, 7, 60, 0
20, 350652, Note_on_c, 7, 60, 88
20, 350658, Note_on_c, 7, 64, 79
20, 351012, Note_on_c, 7, 60, 0
20, 351018, Note_on_c, 7, 64, 0
20, 351147, Note_on_c, 7, 64, 82
20, 351147, Note_on_c, 7, 60, 92
20, 351507, Note_on_c, 7, 64, 0
20, 351507, Note_on_c, 7, 60, 0
20, 383294, Note_on_c, 7, 60, 103
20, 383302, Note_on_c, 7, 64, 109
20, 383534, Note_on_c, 7, 60, 0
20, 383542, Note_on_c, 7, 64, 0
20, 383767, Note_on_c, 7, 60, 110
20, 383767, Note_on_c, 7, 64, 91
20, 384007, Note_on_c, 7, 60, 0
20, 384007, Note_on_c, 7, 64, 0
20, 384268, Note_on_c, 7, 64, 108
20, 384268, Note_on_c, 7, 60, 105
20, 384508, Note_on_c, 7, 64, 0
20, 384508, Note_on_c, 7, 60, 0
20, 384729, Note_on_c, 7, 60, 100
20, 384732, Note_on_c, 7, 64, 105
20, 384969, Note_on_c, 7, 60, 0
20, 384972, Note_on_c, 7, 64, 0
20, 385221, Note_on_c, 7, 60, 98
20, 385227, Note_on_c, 7, 64, 107
20, 385461, Note_on_c, 7, 60, 0
20, 385467, Note_on_c, 7, 64, 0
20, 385699, Note_on_c, 7, 64, 102
20, 385700, Note_on_c, 7, 60, 96
20, 385939, Note_on_c, 7, 64, 0
20, 385940, Note_on_c, 7, 60, 0
20, 438001, Note_on_c, 7, 61, 91
20, 438025, Note_on_c, 7, 73, 106
20, 438361, Note_on_c, 7, 61, 0
20, 438385, Note_on_c, 7, 73, 0
20, 438499, Note_on_c, 7, 56, 109
20, 438502, Note_on_c, 7, 68, 100
20, 438859, Note_on_c, 7, 56, 0
20, 438862, Note_on_c, 7, 68, 0
20, 438964, Note_on_c, 7, 59, 93
20, 438968, Note_on_c, 7, 71, 101
20, 439324, Note_on_c, 7, 59, 0
20, 439328, Note_on_c, 7, 71, 0
20, 439447, Note_on_c, 7, 54, 93
20, 439467, Note_on_c, 7, 66, 98
20, 439807, Note_on_c, 7, 54, 0
20, 439827, Note_on_c, 7, 66, 0
20, 439925, Note_on_c, 7, 58, 92
20, 439935, Note_on_c, 7, 70, 105
20, 440285, Note_on_c, 7, 58, 0
20, 440295, Note_on_c, 7, 70, 0
20, 440415, Note_on_c, 7, 65, 109
20, 440428, Note_on_c, 7, 53, 105
20, 440775, Note_on_c, 7, 65, 0
20, 440788, Note_on_c, 7, 53, 0
20, 440894, Note_on_c, 7, 73, 110
20, 440906, Note_on_c, 7, 61, 108
20, 441254, Note_on_c, 7, 73, 0
20, 441266, Note_on_c, 7, 61, 0
20, 441360, Note_on_c, 7, 56, 107
20, 441379, Note_on_c, 7, 68, 96
20, 441720, Note_on_c, 7, 56, 0
20, 441739, Note_on_c, 7, 68, 0
20, 441846, Note_on_c, 7, 71, 99
20, 441862, Note_on_c, 7, 59, 102
20, 442206, Note_on_c, 7, 71, 0
20, 442222, Note_on_c, 7, 59, 0
20, 442346, Note_on_c, 7, 54, 102
20, 442346, Note_on_c, 7, 66, 99
20, 442706, Note_on_c, 7, 54, 0
20, 442706, Note_on_c, 7, 66, 0
20, 442811, Note_on_c, 7, 70, 93
20, 442816, Note_on_c, 7, 58, 107
20, 443171, Note_on_c, 7, 70, 0
20, 443176, Note_on_c, 7, 58, 0
20, 443287, Note_on_c, 7, 53, 110
20, 443305, Note_on_c, 7, 65, 91
20, 443647, Note_on_c, 7, 53, 0
20, 443665, Note_on_c, 7, 65, 0
20, 443762, Note_on_c, 7, 58, 103
20, 443769, Note_on_c, 7, 54, 106
20, 443869, Note_on_c, 7, 58, 0
20, 443876, Note_on_c, 7, 54, 0
20, 445207, Note_on_c, 7, 54, 119
20, 445215, Note_on_c, 7, 58, 119
20, 445314, Note_on_c, 7, 54, 0
20, 445322, Note_on_c, 7, 58, 0
20, 446163, Note_on_c, 7, 45, 71
20, 446343, Note_on_c, 7, 45, 0
20, 446415, Note_on_c, 7, 46, 62
20, 446595, Note_on_c, 7, 46, 0
20, 446660, Note_on_c, 7, 47, 68
20, 446759, Note_on_c, 7, 47, 0
20, 446800, Note_on_c, 7, 47, 72
20, 446900, Note_on_c, 7, 47, 0
20, 446987, Note_on_c, 7, 48, 59
20, 447087, Note_on_c, 7, 48, 0
20, 447140, Note_on_c, 7, 54, 114
20, 447140, Note_on_c, 7, 58, 118
20, 447247, Note_on_c, 7, 54, 0
20, 447247, Note_on_c, 7, 58, 0
20, 448092, Note_on_c, 7, 53, 101
20, 448102, Note_on_c, 7, 41, 104
20, 448102, Note_on_c, 7, 48, 103
20, 448199, Note_on_c, 7, 53, 0
20, 448209, Note_on_c, 7, 48, 0
20, 448342, Note_on_c, 7, 41, 0
20, 449058, Note_on_c, 7, 48, 55
20, 449238, Note_on_c, 7, 48, 0
20, 449283, Note_on_c, 7, 49, 71
20, 449463, Note_on_c, 7, 49, 0
20, 449532, Note_on_c, 7, 50, 58
20, 449541, Note_on_c, 7, 41, 66
20, 449631, Note_on_c, 7, 50, 0
20, 449683, Note_on_c, 7, 50, 70
20, 449783, Note_on_c, 7, 50, 0
20, 449841, Note_on_c, 7, 51, 70
20, 449941, Note_on_c, 7, 51, 0
20, 449989, Note_on_c, 7, 41, 0
20, 450007, Note_on_c, 7, 48, 109
20, 450009, Note_on_c, 7, 41, 116
20, 450025, Note_on_c, 7, 53, 106
20, 450114, Note_on_c, 7, 48, 0
20, 450132, Note_on_c, 7, 53, 0
20, 450249, Note_on_c, 7, 41, 0
20, 451936, Note_on_c, 7, 48, 106
20, 451941, Note_on_c, 7, 53, 105
20, 451948, Note_on_c, 7, 41, 114
20, 452043, Note_on_c, 7, 48, 0
20, 452048, Note_on_c, 7, 53, 0
20, 452188, Note_on_c, 7, 41, 0
20, 452882, Note_on_c, 7, 48, 66
20, 453062, Note_on_c, 7, 48, 0
20, 453139, Note_on_c, 7, 49, 60
20, 453319, Note_on_c, 7, 49, 0
20, 453364, Note_on_c, 7, 41, 66
20, 453365, Note_on_c, 7, 50, 75
20, 453464, Note_on_c, 7, 50, 0
20, 453547, Note_on_c, 7, 50, 93
20, 453647, Note_on_c, 7, 50, 0
20, 453698, Note_on_c, 7, 51, 94
20, 453798, Note_on_c, 7, 51, 0
20, 453844, Note_on_c, 7, 41, 0
20, 454826, Note_on_c, 7, 48, 53
20, 455006, Note_on_c, 7, 48, 0
20, 455061, Note_on_c, 7, 49, 55
20, 455241, Note_on_c, 7, 49, 0
20, 455289, Note_on_c, 7, 41, 61
20, 455303, Note_on_c, 7, 50, 75
20, 455402, Note_on_c, 7, 50, 0
20, 455460, Note_on_c, 7, 50, 75
20, 455560, Note_on_c, 7, 50, 0
20, 455623, Note_on_c, 7, 51, 101
20, 455723, Note_on_c, 7, 51, 0
20, 455769, Note_on_c, 7, 41, 0
20, 457682, Note_on_c, 7, 43, 69
20, 457685, Note_on_c, 7, 50, 78
20, 457708, Note_on_c, 7, 59, 67
20, 457922, Note_on_c, 7, 43, 0
20, 457925, Note_on_c, 7, 50, 0
20, 457948, Note_on_c, 7, 59, 0
20, 458178, Note_on_c, 7, 50, 81
20, 458182, Note_on_c, 7, 59, 76
20, 458184, Note_on_c, 7, 43, 75
20, 458418, Note_on_c, 7, 50, 0
20, 458422, Note_on_c, 7, 59, 0
20, 458424, Note_on_c, 7, 43, 0
20, 458645, Note_on_c, 7, 59, 78
20, 458652, Note_on_c, 7, 43, 79
20, 458659, Note_on_c, 7, 50, 85
20, 458885, Note_on_c, 7, 59, 0
20, 458892, Note_on_c, 7, 43, 0
20, 458899, Note_on_c, 7, 50, 0
20, 459122, Note_on_c, 7, 59, 78
20, 459132, Note_on_c, 7, 43, 72
20, 459146, Note_on_c, 7, 50, 66
20, 459362, Note_on_c, 7, 59, 0
20, 459372, Note_on_c, 7, 43, 0
20, 459386, Note_on_c, 7, 50, 0
20, 459600, Note_on_c, 7, 43, 85
20, 459600, Note_on_c, 7, 50, 74
20, 459629, Note_on_c, 7, 59, 69
20, 459840, Note_on_c, 7, 43, 0
20, 459840, Note_on_c, 7, 50, 0
20, 459869, Note_on_c, 7, 59, 0
20, 460094, Note_on_c, 7, 43, 69
20, 460097, Note_on_c, 7, 50, 66
20, 460103, Note_on_c, 7, 59, 78
20, 460334, Note_on_c, 7, 43, 0
20, 460337, Note_on_c, 7, 50, 0
20, 460343, Note_on_c, 7, 59, 0
20, 460568, Note_on_c, 7, 50, 78
20, 460569, Note_on_c, 7, 59, 83
20, 460570, Note_on_c, 7, 43, 79
20, 460808, Note_on_c, 7, 50, 0
20, 460809, Note_on_c, 7, 59, 0
20, 460810, Note_on_c, 7, 43, 0
20, 461043, Note_on_c, 7, 43, 69
20, 461052, Note_on_c, 7, 50, 78
20, 461054, Note_on_c, 7, 59, 67
20, 461283, Note_on_c, 7, 43, 0
20, 461292, Note_on_c, 7, 50, 0
20, 461294, Note_on_c, 7, 59, 0
20, 461534, Note_on_c, 7, 59, 69
20, 461541, Note_on_c, 7, 50, 67
20, 461543, Note_on_c, 7, 43, 74
20, 461774, Note_on_c, 7, 59, 0
20, 461781, Note_on_c, 7, 50, 0
20, 461783, Note_on_c, 7, 43, 0
20, 462004, Note_on_c, 7, 43, 80
20, 462017, Note_on_c, 7, 50, 85
20, 462023, Note_on_c, 7, 59, 65
20, 462244, Note_on_c, 7, 43, 0
20, 462257, Note_on_c, 7, 50, 0
20, 462263, Note_on_c, 7, 59, 0
20, 462480, Note_on_c, 7, 50, 78
20, 462488, Note_on_c, 7, 59, 70
20, 462506, Note_on_c, 7, 43, 80
20, 462720, Note_on_c, 7, 50, 0
20, 462728, Note_on_c, 7, 59, 0
20, 462746, Note_on_c, 7, 43, 0
20, 462966, Note_on_c, 7, 59, 75
20, 462975, Note_on_c, 7, 43, 82
20, 462987, Note_on_c, 7, 50, 78
20, 463206, Note_on_c, 7, 59, 0
20, 463215, Note_on_c, 7, 43, 0
20, 463227, Note_on_c, 7, 50, 0
20, 463446, Note_on_c, 7, 43, 80
20, 463450, Note_on_c, 7, 50, 67
20, 463458, Note_on_c, 7, 59, 73
20, 463686, Note_on_c, 7, 43, 0
20, 463690, Note_on_c, 7, 50, 0
20, 463698, Note_on_c, 7, 59, 0
20, 463923, Note_on_c, 7, 43, 83
20, 463928, Note_on_c, 7, 59, 84
20, 463945, Note_on_c, 7, 50, 66
20, 464163, Note_on_c, 7, 43, 0
20, 464168, Note_on_c, 7, 59, 0
20, 464185, Note_on_c, 7, 50, 0
20, 464423, Note_on_c, 7, 59, 66
20, 464423, Note_on_c, 7, 50, 66
20, 464424, Note_on_c, 7, 43, 73
20, 464663, Note_on_c, 7, 59, 0
20, 464663, Note_on_c, 7, 50, 0
20, 464664, Note_on_c, 7, 43, 0
20, 464883, Note_on_c, 7, 50, 73
20, 464890, Note_on_c, 7, 43, 70
20, 464892, Note_on_c, 7, 59, 65
20, 465123, Note_on_c, 7, 50, 0
20, 465130, Note_on_c, 7, 43, 0
20, 465132, Note_on_c, 7, 59, 0
20, 465363, Note_on_c, 7, 50, 82
20, 465364, Note_on_c, 7, 59, 75
20, 465368, Note_on_c, 7, 43, 69
20, 465603, Note_on_c, 7, 50, 0
20, 465604, Note_on_c, 7, 59, 0
20, 465608, Note_on_c, 7, 43, 0
20, 465846, Note_on_c, 7, 43, 84
20, 465854, Note_on_c, 7, 59, 69
20, 465855, Note_on_c, 7, 50, 67
20, 466086, Note_on_c, 7, 43, 0
20, 466094, Note_on_c, 7, 59, 0
20, 466095, Note_on_c, 7, 50, 0
20, 466326, Note_on_c, 7, 43, 67
20, 466337, Note_on_c, 7, 50, 75
20, 466339, Note_on_c, 7, 59, 76
20, 466566, Note_on_c, 7, 43, 0
20, 466577, Note_on_c, 7, 50, 0
20, 466579, Note_on_c, 7, 59, 0
20, 466807, Note_on_c, 7, 50, 71
20, 466815, Note_on_c, 7, 43, 79
20, 466821, Note_on_c, 7, 59, 76
20, 467047, Note_on_c, 7, 50, 0
20, 467055, Note_on_c, 7, 43, 0
20, 467061, Note_on_c, 7, 59, 0
20, 491811, Control_c, 7, 11, 64
20, 491818, Control_c, 7, 11, 65
20, 491825, Control_c, 7, 11, 66
20, 491833, Control_c, 7, 11, 67
20, 491840, Control_c, 7, 11, 68
20, 491847, Control_c, 7, 11, 69
20, 491854, Control_c, 7, 11, 70
20, 491862, Control_c, 7, 11, 71
20, 491869, Control_c, 7, 11, 72
20, 491876, Control_c, 7, 11, 73
20, 491881, Note_on_c, 7, 69, 89
20, 491883, Control_c, 7, 11, 74
20, 491889, Note_on_c, 7, 66, 82
20, 491891, Control_c, 7, 11, 75
20, 491898, Control_c, 7, 11, 76
20, 491905, Control_c, 7, 11, 77
20, 491908, Note_on_c, 7, 62, 98
20, 491912, Control_c, 7, 11, 78
20, 491920, Control_c, 7, 11, 79
20, 491927, Control_c, 7, 11, 80
20, 491934, Control_c, 7, 11, 81
20, 491941, Control_c, 7, 11, 82
20, 491949, Control_c, 7, 11, 83
20, 491956, Control_c, 7, 11, 84
20, 491963, Control_c, 7, 11, 85
20, 491970, Control_c, 7, 11, 86
20, 491978, Control_c, 7, 11, 87
20, 491985, Control_c, 7, 11, 88
20, 491992, Control_c, 7, 11, 89
20, 492000, Control_c, 7, 11, 90
20, 492007, Control_c, 7, 11, 91
20, 492014, Control_c, 7, 11, 92
20, 492022, Control_c, 7, 11, 93
20, 492029, Control_c, 7, 11, 94
20, 492036, Control_c, 7, 11, 95
20, 492043, Control_c, 7, 11, 96
20, 492051, Control_c, 7, 11, 97
20, 492058, Control_c, 7, 11, 98
20, 492065, Control_c, 7, 11, 99
20, 492072, Control_c, 7, 11, 100
20, 492080, Control_c, 7, 11, 101
20, 492087, Control_c, 7, 11, 102
20, 492094, Control_c, 7, 11, 103
20, 492101, Control_c, 7, 11, 104
20, 492109, Control_c, 7, 11, 105
20, 492116, Control_c, 7, 11, 106
20, 492123, Control_c, 7, 11, 107
20, 492130, Control_c, 7, 11, 108
20, 492138, Control_c, 7, 11, 109
20, 492145, Control_c, 7, 11, 110
20, 492152, Control_c, 7, 11, 111
20, 492159, Control_c, 7, 11, 112
20, 492167, Control_c, 7, 11, 113
20, 492174, Control_c, 7, 11, 114
20, 492181, Control_c, 7, 11, 115
20, 492188, Control_c, 7, 11, 116
20, 492196, Control_c, 7, 11, 117
20, 492203, Control_c, 7, 11, 118
20, 492210, Control_c, 7, 11, 119
20, 492217, Control_c, 7, 11, 120
20, 492225, Control_c, 7, 11, 121
20, 492232, Control_c, 7, 11, 122
20, 492240, Control_c, 7, 11, 123
20, 492241, Note_on_c, 7, 69, 0
20, 492247, Control_c, 7, 11, 124
20, 492249, Note_on_c, 7, 66, 0
20, 492254, Control_c, 7, 11, 125
20, 492261, Control_c, 7, 11, 126
20, 492268, Note_on_c, 7, 62, 0
20, 492963, Note_on_c, 7, 69, 116
20, 492971, Note_on_c, 7, 62, 110
20, 492982, Note_on_c, 7, 66, 104
20, 493070, Note_on_c, 7, 69, 0
20, 493078, Note_on_c, 7, 62, 0
20, 493089, Note_on_c, 7, 66, 0
20, 493251, Control_c, 7, 11, 64
20, 493258, Control_c, 7, 11, 65
20, 493265, Control_c, 7, 11, 66
20, 493273, Control_c, 7, 11, 67
20, 493280, Control_c, 7, 11, 68
20, 493287, Control_c, 7, 11, 69
20, 493294, Control_c, 7, 11, 70
20, 493302, Control_c, 7, 11, 71
20, 493309, Control_c, 7, 11, 72
20, 493316, Control_c, 7, 11, 73
20, 493323, Control_c, 7, 11, 74
20, 493325, Note_on_c, 7, 66, 108
20, 493330, Note_on_c, 7, 69, 112
20, 493331, Control_c, 7, 11, 75
20, 493331, Note_on_c, 7, 62, 116
20, 493338, Control_c, 7, 11, 76
20, 493345, Control_c, 7, 11, 77
20, 493352, Control_c, 7, 11, 78
20, 493360, Control_c, 7, 11, 79
20, 493367, Control_c, 7, 11, 80
20, 493374, Control_c, 7, 11, 81
20, 493381, Control_c, 7, 11, 82
20, 493389, Control_c, 7, 11, 83
20, 493396, Control_c, 7, 11, 84
20, 493403, Control_c, 7, 11, 85
20, 493410, Control_c, 7, 11, 86
20, 493418, Control_c, 7, 11, 87
20, 493425, Control_c, 7, 11, 88
20, 493432, Control_c, 7, 11, 89
20, 493440, Control_c, 7, 11, 90
20, 493447, Control_c, 7, 11, 91
20, 493454, Control_c, 7, 11, 92
20, 493462, Control_c, 7, 11, 93
20, 493469, Control_c, 7, 11, 94
20, 493476, Control_c, 7, 11, 95
20, 493483, Control_c, 7, 11, 96
20, 493491, Control_c, 7, 11, 97
20, 493498, Control_c, 7, 11, 98
20, 493505, Control_c, 7, 11, 99
20, 493512, Control_c, 7, 11, 100
20, 493520, Control_c, 7, 11, 101
20, 493527, Control_c, 7, 11, 102
20, 493534, Control_c, 7, 11, 103
20, 493541, Control_c, 7, 11, 104
20, 493549, Control_c, 7, 11, 105
20, 493556, Control_c, 7, 11, 106
20, 493563, Control_c, 7, 11, 107
20, 493570, Control_c, 7, 11, 108
20, 493578, Control_c, 7, 11, 109
20, 493585, Control_c, 7, 11, 110
20, 493592, Control_c, 7, 11, 111
20, 493599, Control_c, 7, 11, 112
20, 493607, Control_c, 7, 11, 113
20, 493614, Control_c, 7, 11, 114
20, 493621, Control_c, 7, 11, 115
20, 493628, Control_c, 7, 11, 116
20, 493636, Control_c, 7, 11, 117
20, 493643, Control_c, 7, 11, 118
20, 493650, Control_c, 7, 11, 119
20, 493657, Control_c, 7, 11, 120
20, 493665, Control_c, 7, 11, 121
20, 493672, Control_c, 7, 11, 122
20, 493680, Control_c, 7, 11, 123
20, 493685, Note_on_c, 7, 66, 0
20, 493687, Control_c, 7, 11, 124
20, 493690, Note_on_c, 7, 69, 0
20, 493691, Note_on_c, 7, 62, 0
20, 493694, Control_c, 7, 11, 125
20, 493701, Control_c, 7, 11, 126
20, 496227, Note_on_c, 7, 62, 103
20, 496274, Note_on_c, 7, 62, 0
20, 497280, Note_on_c, 7, 66, 116
20, 497291, Note_on_c, 7, 62, 111
20, 497299, Note_on_c, 7, 69, 116
20, 497423, Note_on_c, 7, 66, 0
20, 497434, Note_on_c, 7, 62, 0
20, 497442, Note_on_c, 7, 69, 0
20, 497521, Note_on_c, 7, 69, 100
20, 497535, Note_on_c, 7, 66, 109
20, 497542, Note_on_c, 7, 62, 111
20, 497664, Note_on_c, 7, 69, 0
20, 497678, Note_on_c, 7, 66, 0
20, 497685, Note_on_c, 7, 62, 0
20, 497764, Note_on_c, 7, 62, 109
20, 497766, Note_on_c, 7, 69, 110
20, 497788, Note_on_c, 7, 66, 115
20, 497811, Note_on_c, 7, 62, 0
20, 497813, Note_on_c, 7, 69, 0
20, 497835, Note_on_c, 7, 66, 0
20, 498741, Note_on_c, 7, 62, 106
20, 498788, Note_on_c, 7, 62, 0
20, 502921, Note_on_c, 7, 57, 109
20, 502924, Note_on_c, 7, 54, 109
20, 502947, Note_on_c, 7, 50, 120
20, 502968, Note_on_c, 7, 57, 0
20, 502971, Note_on_c, 7, 54, 0
20, 502994, Note_on_c, 7, 50, 0
20, 503046, Note_on_c, 7, 56, 112
20, 503047, Note_on_c, 7, 51, 105
20, 503049, Note_on_c, 7, 48, 117
20, 503142, Note_on_c, 7, 56, 0
20, 503143, Note_on_c, 7, 51, 0
20, 503145, Note_on_c, 7, 48, 0
20, 503281, Note_on_c, 7, 47, 110
20, 503284, Note_on_c, 7, 51, 102
20, 503298, Note_on_c, 7, 54, 111
20, 503328, Note_on_c, 7, 47, 0
20, 503331, Note_on_c, 7, 51, 0
20, 503345, Note_on_c, 7, 54, 0
20, 503523, Note_on_c, 7, 54, 100
20, 503527, Note_on_c, 7, 51, 109
20, 503544, Note_on_c, 7, 59, 105
20, 503570, Note_on_c, 7, 54, 0
20, 503574, Note_on_c, 7, 51, 0
20, 503591, Note_on_c, 7, 59, 0
20, 503642, Note_on_c, 7, 54, 115
20, 503643, Note_on_c, 7, 57, 109
20, 503654, Note_on_c, 7, 50, 110
20, 503689, Note_on_c, 7, 54, 0
20, 503690, Note_on_c, 7, 57, 0
20, 503701, Note_on_c, 7, 50, 0
20, 503891, Note_on_c, 7, 51, 115
20, 503894, Note_on_c, 7, 48, 111
20, 503898, Note_on_c, 7, 56, 102
20, 503938, Note_on_c, 7, 51, 0
20, 503941, Note_on_c, 7, 48, 0
20, 503945, Note_on_c, 7, 56, 0
20, 504128, Note_on_c, 7, 54, 103
20, 504130, Note_on_c, 7, 51, 108
20, 504137, Note_on_c, 7, 47, 101
20, 504175, Note_on_c, 7, 54, 0
20, 504177, Note_on_c, 7, 51, 0
20, 504184, Note_on_c, 7, 47, 0
20, 511200, Note_on_c, 7, 60, 95
20, 511257, Note_on_c, 7, 60, 0
20, 511296, Note_on_c, 7, 60, 79
20, 511353, Note_on_c, 7, 60, 0
20, 511392, Note_on_c, 7, 59, 94
20, 511449, Note_on_c, 7, 59, 0
20, 511487, Note_on_c, 7, 59, 94
20, 511544, Note_on_c, 7, 59, 0
20, 511583, Note_on_c, 7, 58, 89
20, 511641, Note_on_c, 7, 58, 0
20, 511684, Note_on_c, 7, 58, 92
20, 511756, Note_on_c, 7, 58, 0
20, 513120, Note_on_c, 7, 60, 96
20, 513177, Note_on_c, 7, 60, 0
20, 513216, Note_on_c, 7, 60, 87
20, 513273, Note_on_c, 7, 60, 0
20, 513312, Note_on_c, 7, 59, 96
20, 513369, Note_on_c, 7, 59, 0
20, 513407, Note_on_c, 7, 59, 79
20, 513464, Note_on_c, 7, 59, 0
20, 513503, Note_on_c, 7, 58, 85
20, 513561, Note_on_c, 7, 58, 0
20, 513613, Note_on_c, 7, 58, 81
20, 513685, Note_on_c, 7, 58, 0
20, 536900, Note_on_c, 7, 68, 104
20, 536948, Note_on_c, 7, 68, 0
20, 537002, Note_on_c, 7, 68, 109
20, 537050, Note_on_c, 7, 68, 0
20, 537100, Note_on_c, 7, 67, 104
20, 537148, Note_on_c, 7, 67, 0
20, 537170, Note_on_c, 7, 67, 118
20, 537218, Note_on_c, 7, 67, 0
20, 537277, Note_on_c, 7, 65, 118
20, 537325, Note_on_c, 7, 65, 0
20, 537385, Note_on_c, 7, 65, 111
20, 537445, Note_on_c, 7, 65, 0
20, 537496, Note_on_c, 7, 59, 116
20, 537556, Note_on_c, 7, 59, 0
20, 541680, Note_on_c, 7, 58, 92
20, 541728, Note_on_c, 7, 58, 0
20, 541776, Note_on_c, 7, 58, 80
20, 541824, Note_on_c, 7, 58, 0
20, 541872, Note_on_c, 7, 58, 88
20, 541920, Note_on_c, 7, 58, 0
20, 541967, Note_on_c, 7, 57, 84
20, 542015, Note_on_c, 7, 57, 0
20, 542063, Note_on_c, 7, 56, 79
20, 542111, Note_on_c, 7, 56, 0
20, 542160, Note_on_c, 7, 56, 93
20, 542220, Note_on_c, 7, 56, 0
20, 543600, Note_on_c, 7, 58, 85
20, 543648, Note_on_c, 7, 58, 0
20, 543696, Note_on_c, 7, 58, 85
20, 543744, Note_on_c, 7, 58, 0
20, 543792, Note_on_c, 7, 57, 83
20, 543840, Note_on_c, 7, 57, 0
20, 543887, Note_on_c, 7, 57, 83
20, 543935, Note_on_c, 7, 57, 0
20, 543983, Note_on_c, 7, 56, 97
20, 544031, Note_on_c, 7, 56, 0
20, 544100, Note_on_c, 7, 56, 79
20, 544172, Note_on_c, 7, 56, 0
20, 550802, Note_on_c, 7, 58, 104
20, 550817, Note_on_c, 7, 64, 117
20, 550825, Note_on_c, 7, 55, 105
20, 550922, Note_on_c, 7, 58, 0
20, 550937, Note_on_c, 7, 64, 0
20, 550945, Note_on_c, 7, 55, 0
20, 552032, Control_c, 7, 11, 65
20, 552039, Control_c, 7, 11, 66
20, 552046, Control_c, 7, 11, 67
20, 552053, Control_c, 7, 11, 68
20, 552060, Control_c, 7, 11, 69
20, 552067, Control_c, 7, 11, 70
20, 552074, Control_c, 7, 11, 71
20, 552081, Control_c, 7, 11, 72
20, 552088, Control_c, 7, 11, 73
20, 552095, Control_c, 7, 11, 74
20, 552102, Control_c, 7, 11, 75
20, 552109, Control_c, 7, 11, 76
20, 552116, Control_c, 7, 11, 77
20, 552122, Note_on_c, 7, 61, 88
20, 552123, Control_c, 7, 11, 78
20, 552130, Control_c, 7, 11, 79
20, 552134, Note_on_c, 7, 68, 84
20, 552136, Control_c, 7, 11, 80
20, 552139, Note_on_c, 7, 65, 86
20, 552143, Control_c, 7, 11, 81
20, 552150, Control_c, 7, 11, 82
20, 552157, Control_c, 7, 11, 83
20, 552165, Control_c, 7, 11, 84
20, 552172, Control_c, 7, 11, 85
20, 552179, Control_c, 7, 11, 86
20, 552186, Control_c, 7, 11, 87
20, 552193, Control_c, 7, 11, 88
20, 552200, Control_c, 7, 11, 89
20, 552207, Control_c, 7, 11, 90
20, 552213, Control_c, 7, 11, 91
20, 552220, Control_c, 7, 11, 92
20, 552227, Control_c, 7, 11, 93
20, 552234, Control_c, 7, 11, 94
20, 552241, Control_c, 7, 11, 95
20, 552248, Control_c, 7, 11, 96
20, 552255, Control_c, 7, 11, 97
20, 552262, Control_c, 7, 11, 98
20, 552270, Control_c, 7, 11, 99
20, 552277, Control_c, 7, 11, 100
20, 552283, Control_c, 7, 11, 101
20, 552290, Control_c, 7, 11, 102
20, 552297, Control_c, 7, 11, 103
20, 552304, Control_c, 7, 11, 104
20, 552311, Control_c, 7, 11, 105
20, 552318, Control_c, 7, 11, 106
20, 552325, Control_c, 7, 11, 107
20, 552332, Control_c, 7, 11, 108
20, 552339, Control_c, 7, 11, 109
20, 552346, Control_c, 7, 11, 110
20, 552353, Control_c, 7, 11, 111
20, 552360, Control_c, 7, 11, 112
20, 552367, Control_c, 7, 11, 113
20, 552374, Control_c, 7, 11, 114
20, 552381, Control_c, 7, 11, 115
20, 552388, Control_c, 7, 11, 116
20, 552395, Control_c, 7, 11, 117
20, 552402, Control_c, 7, 11, 118
20, 552409, Control_c, 7, 11, 119
20, 552416, Control_c, 7, 11, 120
20, 552423, Control_c, 7, 11, 121
20, 552430, Control_c, 7, 11, 122
20, 552437, Control_c, 7, 11, 123
20, 552444, Control_c, 7, 11, 124
20, 552451, Control_c, 7, 11, 125
20, 552458, Control_c, 7, 11, 126
20, 552482, Note_on_c, 7, 61, 0
20, 552494, Note_on_c, 7, 68, 0
20, 552499, Note_on_c, 7, 65, 0
20, 553206, Note_on_c, 7, 61, 111
20, 553209, Note_on_c, 7, 68, 110
20, 553212, Note_on_c, 7, 65, 108
20, 553313, Note_on_c, 7, 61, 0
20, 553316, Note_on_c, 7, 68, 0
20, 553319, Note_on_c, 7, 65, 0
20, 553513, Control_c, 7, 11, 65
20, 553519, Control_c, 7, 11, 66
20, 553526, Control_c, 7, 11, 67
20, 553532, Control_c, 7, 11, 68
20, 553538, Control_c, 7, 11, 69
20, 553545, Control_c, 7, 11, 70
20, 553551, Control_c, 7, 11, 71
20, 553558, Control_c, 7, 11, 72
20, 553562, Note_on_c, 7, 61, 84
20, 553564, Control_c, 7, 11, 73
20, 553570, Control_c, 7, 11, 74
20, 553571, Note_on_c, 7, 68, 96
20, 553573, Note_on_c, 7, 65, 85
20, 553577, Control_c, 7, 11, 75
20, 553583, Control_c, 7, 11, 76
20, 553590, Control_c, 7, 11, 77
20, 553596, Control_c, 7, 11, 78
20, 553603, Control_c, 7, 11, 79
20, 553609, Control_c, 7, 11, 80
20, 553615, Control_c, 7, 11, 81
20, 553622, Control_c, 7, 11, 82
20, 553628, Control_c, 7, 11, 83
20, 553635, Control_c, 7, 11, 84
20, 553641, Control_c, 7, 11, 85
20, 553647, Control_c, 7, 11, 86
20, 553654, Control_c, 7, 11, 87
20, 553660, Control_c, 7, 11, 88
20, 553666, Control_c, 7, 11, 89
20, 553673, Control_c, 7, 11, 90
20, 553679, Control_c, 7, 11, 91
20, 553686, Control_c, 7, 11, 92
20, 553692, Control_c, 7, 11, 93
20, 553698, Control_c, 7, 11, 94
20, 553705, Control_c, 7, 11, 95
20, 553711, Control_c, 7, 11, 96
20, 553717, Control_c, 7, 11, 97
20, 553724, Control_c, 7, 11, 98
20, 553730, Control_c, 7, 11, 99
20, 553737, Control_c, 7, 11, 100
20, 553743, Control_c, 7, 11, 101
20, 553749, Control_c, 7, 11, 102
20, 553756, Control_c, 7, 11, 103
20, 553762, Control_c, 7, 11, 104
20, 553769, Control_c, 7, 11, 105
20, 553775, Control_c, 7, 11, 106
20, 553782, Control_c, 7, 11, 107
20, 553788, Control_c, 7, 11, 108
20, 553794, Control_c, 7, 11, 109
20, 553800, Control_c, 7, 11, 110
20, 553807, Control_c, 7, 11, 111
20, 553814, Control_c, 7, 11, 112
20, 553820, Control_c, 7, 11, 113
20, 553826, Control_c, 7, 11, 114
20, 553833, Control_c, 7, 11, 115
20, 553839, Control_c, 7, 11, 116
20, 553845, Control_c, 7, 11, 117
20, 553852, Control_c, 7, 11, 118
20, 553858, Control_c, 7, 11, 119
20, 553865, Control_c, 7, 11, 120
20, 553871, Control_c, 7, 11, 121
20, 553877, Control_c, 7, 11, 122
20, 553884, Control_c, 7, 11, 123
20, 553890, Control_c, 7, 11, 124
20, 553897, Control_c, 7, 11, 125
20, 553903, Control_c, 7, 11, 126
20, 553909, Control_c, 7, 11, 127
20, 553922, Note_on_c, 7, 61, 0
20, 553931, Note_on_c, 7, 68, 0
20, 553933, Note_on_c, 7, 65, 0
20, 556447, Note_on_c, 7, 61, 100
20, 556494, Note_on_c, 7, 61, 0
20, 557522, Note_on_c, 7, 61, 108
20, 557532, Note_on_c, 7, 68, 118
20, 557537, Note_on_c, 7, 65, 110
20, 557665, Note_on_c, 7, 61, 0
20, 557675, Note_on_c, 7, 68, 0
20, 557680, Note_on_c, 7, 65, 0
20, 557776, Note_on_c, 7, 61, 105
20, 557776, Note_on_c, 7, 68, 109
20, 557783, Note_on_c, 7, 65, 113
20, 557919, Note_on_c, 7, 61, 0
20, 557919, Note_on_c, 7, 68, 0
20, 557926, Note_on_c, 7, 65, 0
20, 558001, Note_on_c, 7, 61, 112
20, 558019, Note_on_c, 7, 65, 107
20, 558020, Note_on_c, 7, 68, 107
20, 558048, Note_on_c, 7, 61, 0
20, 558066, Note_on_c, 7, 65, 0
20, 558067, Note_on_c, 7, 68, 0
20, 558961, Note_on_c, 7, 61, 111
20, 559008, Note_on_c, 7, 61, 0
20, 562657, Control_c, 10, 101, 0
20, 562657, Control_c, 10, 100, 0
20, 562658, Control_c, 10, 6, 11
20, 562658, Control_c, 10, 38, 11
20, 563021, Program_c, 10, 57
20, 563040, Control_c, 10, 7, 127
20, 563163, Note_on_c, 10, 49, 92
20, 563179, Note_on_c, 10, 53, 100
20, 563179, Note_on_c, 10, 56, 93
20, 563210, Note_on_c, 10, 49, 0
20, 563226, Note_on_c, 10, 53, 0
20, 563226, Note_on_c, 10, 56, 0
20, 563284, Note_on_c, 10, 47, 100
20, 563287, Note_on_c, 10, 55, 105
20, 563291, Note_on_c, 10, 50, 100
20, 563380, Note_on_c, 10, 47, 0
20, 563383, Note_on_c, 10, 55, 0
20, 563387, Note_on_c, 10, 50, 0
20, 563533, Note_on_c, 10, 53, 98
20, 563536, Note_on_c, 10, 46, 99
20, 563545, Note_on_c, 10, 50, 91
20, 563580, Note_on_c, 10, 53, 0
20, 563583, Note_on_c, 10, 46, 0
20, 563592, Note_on_c, 10, 50, 0
20, 563767, Note_on_c, 10, 50, 96
20, 563773, Note_on_c, 10, 53, 101
20, 563786, Note_on_c, 10, 58, 110
20, 563814, Note_on_c, 10, 50, 0
20, 563820, Note_on_c, 10, 53, 0
20, 563833, Note_on_c, 10, 58, 0
20, 563888, Note_on_c, 10, 56, 92
20, 563905, Note_on_c, 10, 49, 102
20, 563907, Note_on_c, 10, 53, 109
20, 563935, Note_on_c, 10, 56, 0
20, 563952, Note_on_c, 10, 49, 0
20, 563954, Note_on_c, 10, 53, 0
20, 564123, Note_on_c, 10, 50, 93
20, 564128, Note_on_c, 10, 53, 109
20, 564131, Note_on_c, 10, 47, 106
20, 564170, Note_on_c, 10, 50, 0
20, 564175, Note_on_c, 10, 53, 0
20, 564178, Note_on_c, 10, 47, 0
20, 564363, Note_on_c, 10, 53, 108
20, 564371, Note_on_c, 10, 46, 98
20, 564387, Note_on_c, 10, 50, 95
20, 564410, Note_on_c, 10, 53, 0
20, 564418, Note_on_c, 10, 46, 0
20, 564434, Note_on_c, 10, 50, 0
20, 564480, Pitch_bend_c, 10, 4416
20, 564480, Pitch_bend_c, 10, 4424
20, 564481, Pitch_bend_c, 10, 4432
20, 564481, Pitch_bend_c, 10, 4440
20, 564482, Pitch_bend_c, 10, 4448
20, 564482, Pitch_bend_c, 10, 4456
20, 564483, Pitch_bend_c, 10, 4464
20, 564483, Pitch_bend_c, 10, 4472
20, 564484, Pitch_bend_c, 10, 4479
20, 564484, Pitch_bend_c, 10, 4487
20, 564485, Pitch_bend_c, 10, 4495
20, 564485, Pitch_bend_c, 10, 4503
20, 564486, Pitch_bend_c, 10, 4511
20, 564486, Pitch_bend_c, 10, 4519
20, 564487, Pitch_bend_c, 10, 4527
20, 564487, Pitch_bend_c, 10, 4534
20, 564488, Pitch_bend_c, 10, 4542
20, 564488, Pitch_bend_c, 10, 4550
20, 564489, Pitch_bend_c, 10, 4558
20, 564489, Pitch_bend_c, 10, 4566
20, 564490, Pitch_bend_c, 10, 4574
20, 564490, Pitch_bend_c, 10, 4582
20, 564491, Pitch_bend_c, 10, 4590
20, 564491, Pitch_bend_c, 10, 4597
20, 564492, Pitch_bend_c, 10, 4605
20, 564492, Pitch_bend_c, 10, 4613
20, 564493, Pitch_bend_c, 10, 4621
20, 564493, Pitch_bend_c, 10, 4629
20, 564494, Pitch_bend_c, 10, 4637
20, 564494, Pitch_bend_c, 10, 4645
20, 564495, Pitch_bend_c, 10, 4652
20, 564495, Pitch_bend_c, 10, 4660
20, 564496, Pitch_bend_c, 10, 4668
20, 564496, Pitch_bend_c, 10, 4676
20, 564497, Pitch_bend_c, 10, 4684
20, 564497, Pitch_bend_c, 10, 4692
20, 564498, Pitch_bend_c, 10, 4700
20, 564498, Pitch_bend_c, 10, 4708
20, 564499, Pitch_bend_c, 10, 4715
20, 564499, Pitch_bend_c, 10, 4723
20, 564500, Pitch_bend_c, 10, 4731
20, 564500, Pitch_bend_c, 10, 4739
20, 564501, Pitch_bend_c, 10, 4747
20, 564501, Pitch_bend_c, 10, 4755
20, 564502, Pitch_bend_c, 10, 4763
20, 564502, Note_on_c, 10, 51, 95
20, 564502, Pitch_bend_c, 10, 4770
20, 564503, Pitch_bend_c, 10, 4778
20, 564503, Pitch_bend_c, 10, 4786
20, 564504, Pitch_bend_c, 10, 4794
20, 564504, Pitch_bend_c, 10, 4802
20, 564505, Pitch_bend_c, 10, 4810
20, 564505, Pitch_bend_c, 10, 4818
20, 564506, Pitch_bend_c, 10, 4826
20, 564506, Pitch_bend_c, 10, 4833
20, 564507, Pitch_bend_c, 10, 4841
20, 564507, Pitch_bend_c, 10, 4849
20, 564508, Pitch_bend_c, 10, 4857
20, 564508, Pitch_bend_c, 10, 4865
20, 564509, Pitch_bend_c, 10, 4873
20, 564509, Pitch_bend_c, 10, 4881
20, 564510, Pitch_bend_c, 10, 4888
20, 564510, Pitch_bend_c, 10, 4896
20, 564511, Pitch_bend_c, 10, 4904
20, 564511, Pitch_bend_c, 10, 4912
20, 564512, Pitch_bend_c, 10, 4920
20, 564512, Pitch_bend_c, 10, 4928
20, 564513, Pitch_bend_c, 10, 4936
20, 564513, Pitch_bend_c, 10, 4944
20, 564514, Pitch_bend_c, 10, 4951
20, 564514, Pitch_bend_c, 10, 4959
20, 564515, Pitch_bend_c, 10, 4967
20, 564515, Pitch_bend_c, 10, 4975
20, 564516, Pitch_bend_c, 10, 4983
20, 564516, Pitch_bend_c, 10, 4991
20, 564517, Pitch_bend_c, 10, 4999
20, 564517, Pitch_bend_c, 10, 5006
20, 564518, Pitch_bend_c, 10, 5014
20, 564518, Pitch_bend_c, 10, 5022
20, 564519, Pitch_bend_c, 10, 5030
20, 564519, Pitch_bend_c, 10, 5038
20, 564520, Pitch_bend_c, 10, 5046
20, 564520, Pitch_bend_c, 10, 5054
20, 564521, Pitch_bend_c, 10, 5062
20, 564521, Pitch_bend_c, 10, 5069
20, 564522, Pitch_bend_c, 10, 5077
20, 564522, Pitch_bend_c, 10, 5085
20, 564523, Pitch_bend_c, 10, 5093
20, 564523, Pitch_bend_c, 10, 5101
20, 564524, Pitch_bend_c, 10, 5109
20, 564524, Pitch_bend_c, 10, 5117
20, 564525, Pitch_bend_c, 10, 5124
20, 564525, Pitch_bend_c, 10, 5132
20, 564526, Pitch_bend_c, 10, 5140
20, 564526, Pitch_bend_c, 10, 5148
20, 564527, Pitch_bend_c, 10, 5156
20, 564527, Pitch_bend_c, 10, 5164
20, 564528, Pitch_bend_c, 10, 5172
20, 564528, Pitch_bend_c, 10, 5180
20, 564529, Pitch_bend_c, 10, 5187
20, 564529, Pitch_bend_c, 10, 5195
20, 564530, Pitch_bend_c, 10, 5203
20, 564530, Pitch_bend_c, 10, 5211
20, 564531, Pitch_bend_c, 10, 5219
20, 564531, Pitch_bend_c, 10, 5227
20, 564532, Pitch_bend_c, 10, 5235
20, 564532, Pitch_bend_c, 10, 5242
20, 564533, Pitch_bend_c, 10, 5250
20, 564533, Pitch_bend_c, 10, 5258
20, 564534, Pitch_bend_c, 10, 5266
20, 564534, Pitch_bend_c, 10, 5274
20, 564535, Pitch_bend_c, 10, 5282
20, 564535, Pitch_bend_c, 10, 5290
20, 564536, Pitch_bend_c, 10, 5298
20, 564536, Pitch_bend_c, 10, 5305
20, 564537, Pitch_bend_c, 10, 5313
20, 564537, Pitch_bend_c, 10, 5321
20, 564538, Pitch_bend_c, 10, 5329
20, 564538, Pitch_bend_c, 10, 5337
20, 564539, Pitch_bend_c, 10, 5345
20, 564539, Pitch_bend_c, 10, 5353
20, 564540, Pitch_bend_c, 10, 5360
20, 564540, Pitch_bend_c, 10, 5368
20, 564541, Pitch_bend_c, 10, 5376
20, 564541, Pitch_bend_c, 10, 5384
20, 564542, Pitch_bend_c, 10, 5392
20, 564542, Pitch_bend_c, 10, 5400
20, 564543, Pitch_bend_c, 10, 5408
20, 564543, Pitch_bend_c, 10, 5416
20, 564544, Pitch_bend_c, 10, 5423
20, 564544, Pitch_bend_c, 10, 5431
20, 564545, Pitch_bend_c, 10, 5439
20, 564545, Pitch_bend_c, 10, 5447
20, 564546, Pitch_bend_c, 10, 5455
20, 564546, Pitch_bend_c, 10, 5463
20, 564547, Pitch_bend_c, 10, 5471
20, 564547, Pitch_bend_c, 10, 5478
20, 564548, Pitch_bend_c, 10, 5486
20, 564548, Pitch_bend_c, 10, 5494
20, 564549, Pitch_bend_c, 10, 5502
20, 564549, Pitch_bend_c, 10, 5510
20, 564550, Pitch_bend_c, 10, 5518
20, 564550, Pitch_bend_c, 10, 5526
20, 564551, Pitch_bend_c, 10, 5534
20, 564551, Pitch_bend_c, 10, 5541
20, 564552, Pitch_bend_c, 10, 5549
20, 564552, Pitch_bend_c, 10, 5557
20, 564553, Pitch_bend_c, 10, 5565
20, 564553, Pitch_bend_c, 10, 5573
20, 564554, Pitch_bend_c, 10, 5581
20, 564554, Pitch_bend_c, 10, 5589
20, 564555, Pitch_bend_c, 10, 5596
20, 564555, Pitch_bend_c, 10, 5604
20, 564556, Pitch_bend_c, 10, 5612
20, 564556, Pitch_bend_c, 10, 5620
20, 564557, Pitch_bend_c, 10, 5628
20, 564557, Pitch_bend_c, 10, 5636
20, 564558, Pitch_bend_c, 10, 5644
20, 564558, Pitch_bend_c, 10, 5652
20, 564559, Pitch_bend_c, 10, 5659
20, 564559, Pitch_bend_c, 10, 5667
20, 564560, Pitch_bend_c, 10, 5675
20, 564560, Pitch_bend_c, 10, 5683
20, 564561, Pitch_bend_c, 10, 5691
20, 564561, Pitch_bend_c, 10, 5699
20, 564562, Pitch_bend_c, 10, 5707
20, 564562, Pitch_bend_c, 10, 5714
20, 564563, Pitch_bend_c, 10, 5722
20, 564563, Pitch_bend_c, 10, 5730
20, 564564, Pitch_bend_c, 10, 5738
20, 564564, Pitch_bend_c, 10, 5746
20, 564565, Pitch_bend_c, 10, 5754
20, 564565, Pitch_bend_c, 10, 5762
20, 564566, Pitch_bend_c, 10, 5770
20, 564566, Pitch_bend_c, 10, 5777
20, 564567, Pitch_bend_c, 10, 5785
20, 564567, Pitch_bend_c, 10, 5793
20, 564568, Pitch_bend_c, 10, 5801
20, 564568, Pitch_bend_c, 10, 5809
20, 564569, Pitch_bend_c, 10, 5817
20, 564569, Pitch_bend_c, 10, 5825
20, 564570, Pitch_bend_c, 10, 5832
20, 564570, Pitch_bend_c, 10, 5840
20, 564571, Pitch_bend_c, 10, 5848
20, 564571, Pitch_bend_c, 10, 5856
20, 564572, Pitch_bend_c, 10, 5864
20, 564572, Pitch_bend_c, 10, 5872
20, 564573, Pitch_bend_c, 10, 5880
20, 564573, Pitch_bend_c, 10, 5888
20, 564574, Pitch_bend_c, 10, 5895
20, 564574, Pitch_bend_c, 10, 5903
20, 564575, Pitch_bend_c, 10, 5911
20, 564575, Pitch_bend_c, 10, 5919
20, 564576, Pitch_bend_c, 10, 5927
20, 564576, Pitch_bend_c, 10, 5935
20, 564577, Pitch_bend_c, 10, 5943
20, 564577, Pitch_bend_c, 10, 5950
20, 564578, Pitch_bend_c, 10, 5958
20, 564578, Pitch_bend_c, 10, 5966
20, 564579, Pitch_bend_c, 10, 5974
20, 564579, Pitch_bend_c, 10, 5982
20, 564580, Pitch_bend_c, 10, 5990
20, 564580, Pitch_bend_c, 10, 5998
20, 564581, Pitch_bend_c, 10, 6006
20, 564581, Pitch_bend_c, 10, 6013
20, 564582, Pitch_bend_c, 10, 6021
20, 564582, Pitch_bend_c, 10, 6029
20, 564583, Pitch_bend_c, 10, 6037
20, 564583, Pitch_bend_c, 10, 6045
20, 564584, Pitch_bend_c, 10, 6053
20, 564584, Pitch_bend_c, 10, 6061
20, 564585, Pitch_bend_c, 10, 6068
20, 564585, Pitch_bend_c, 10, 6076
20, 564586, Pitch_bend_c, 10, 6084
20, 564586, Pitch_bend_c, 10, 6092
20, 564587, Pitch_bend_c, 10, 6100
20, 564587, Pitch_bend_c, 10, 6108
20, 564588, Pitch_bend_c, 10, 6116
20, 564588, Pitch_bend_c, 10, 6124
20, 564589, Pitch_bend_c, 10, 6131
20, 564589, Pitch_bend_c, 10, 6139
20, 564590, Pitch_bend_c, 10, 6147
20, 564590, Pitch_bend_c, 10, 6155
20, 564591, Pitch_bend_c, 10, 6163
20, 564591, Pitch_bend_c, 10, 6171
20, 564592, Pitch_bend_c, 10, 6179
20, 564592, Pitch_bend_c, 10, 6186
20, 564593, Pitch_bend_c, 10, 6194
20, 564593, Pitch_bend_c, 10, 6202
20, 564594, Pitch_bend_c, 10, 6210
20, 564594, Pitch_bend_c, 10, 6218
20, 564595, Pitch_bend_c, 10, 6226
20, 564595, Pitch_bend_c, 10, 6234
20, 564596, Pitch_bend_c, 10, 6242
20, 564596, Pitch_bend_c, 10, 6249
20, 564597, Pitch_bend_c, 10, 6257
20, 564597, Pitch_bend_c, 10, 6265
20, 564598, Pitch_bend_c, 10, 6273
20, 564598, Pitch_bend_c, 10, 6281
20, 564599, Pitch_bend_c, 10, 6289
20, 564599, Pitch_bend_c, 10, 6297
20, 564600, Pitch_bend_c, 10, 6304
20, 564600, Pitch_bend_c, 10, 6312
20, 564601, Pitch_bend_c, 10, 6320
20, 564601, Pitch_bend_c, 10, 6328
20, 564602, Pitch_bend_c, 10, 6336
20, 564602, Pitch_bend_c, 10, 6344
20, 564603, Pitch_bend_c, 10, 6352
20, 564603, Pitch_bend_c, 10, 6360
20, 564604, Pitch_bend_c, 10, 6367
20, 564604, Pitch_bend_c, 10, 6375
20, 564605, Pitch_bend_c, 10, 6383
20, 564605, Pitch_bend_c, 10, 6391
20, 564606, Pitch_bend_c, 10, 6399
20, 564606, Pitch_bend_c, 10, 6407
20, 564607, Pitch_bend_c, 10, 6415
20, 564607, Pitch_bend_c, 10, 6422
20, 564608, Pitch_bend_c, 10, 6430
20, 564608, Pitch_bend_c, 10, 6438
20, 564609, Pitch_bend_c, 10, 6446
20, 564609, Pitch_bend_c, 10, 6454
20, 564610, Pitch_bend_c, 10, 6462
20, 564610, Pitch_bend_c, 10, 6470
20, 564611, Pitch_bend_c, 10, 6478
20, 564611, Pitch_bend_c, 10, 6485
20, 564612, Pitch_bend_c, 10, 6493
20, 564612, Pitch_bend_c, 10, 6501
20, 564613, Pitch_bend_c, 10, 6509
20, 564613, Pitch_bend_c, 10, 6517
20, 564614, Pitch_bend_c, 10, 6525
20, 564614, Pitch_bend_c, 10, 6533
20, 564615, Pitch_bend_c, 10, 6540
20, 564615, Pitch_bend_c, 10, 6548
20, 564616, Pitch_bend_c, 10, 6556
20, 564616, Pitch_bend_c, 10, 6564
20, 564617, Pitch_bend_c, 10, 6572
20, 564617, Pitch_bend_c, 10, 6580
20, 564618, Pitch_bend_c, 10, 6588
20, 564618, Pitch_bend_c, 10, 6596
20, 564619, Pitch_bend_c, 10, 6603
20, 564619, Pitch_bend_c, 10, 6611
20, 564620, Pitch_bend_c, 10, 6619
20, 564620, Pitch_bend_c, 10, 6627
20, 564621, Pitch_bend_c, 10, 6635
20, 564621, Pitch_bend_c, 10, 6643
20, 564622, Pitch_bend_c, 10, 6651
20, 564622, Pitch_bend_c, 10, 6658
20, 564623, Pitch_bend_c, 10, 6666
20, 564623, Pitch_bend_c, 10, 6674
20, 564624, Pitch_bend_c, 10, 6682
20, 564624, Pitch_bend_c, 10, 6690
20, 564625, Pitch_bend_c, 10, 6698
20, 564625, Pitch_bend_c, 10, 6706
20, 564626, Pitch_bend_c, 10, 6714
20, 564626, Pitch_bend_c, 10, 6721
20, 564627, Pitch_bend_c, 10, 6729
20, 564627, Pitch_bend_c, 10, 6737
20, 564628, Pitch_bend_c, 10, 6745
20, 564628, Pitch_bend_c, 10, 6753
20, 564629, Pitch_bend_c, 10, 6761
20, 564629, Pitch_bend_c, 10, 6769
20, 564630, Pitch_bend_c, 10, 6776
20, 564630, Pitch_bend_c, 10, 6784
20, 564631, Pitch_bend_c, 10, 6792
20, 564631, Pitch_bend_c, 10, 6800
20, 564632, Pitch_bend_c, 10, 6808
20, 564632, Pitch_bend_c, 10, 6816
20, 564633, Pitch_bend_c, 10, 6824
20, 564633, Pitch_bend_c, 10, 6832
20, 564634, Pitch_bend_c, 10, 6839
20, 564634, Pitch_bend_c, 10, 6847
20, 564635, Pitch_bend_c, 10, 6855
20, 564635, Pitch_bend_c, 10, 6863
20, 564636, Pitch_bend_c, 10, 6871
20, 564636, Pitch_bend_c, 10, 6879
20, 564637, Pitch_bend_c, 10, 6887
20, 564637, Pitch_bend_c, 10, 6894
20, 564638, Pitch_bend_c, 10, 6902
20, 564638, Pitch_bend_c, 10, 6910
20, 564639, Pitch_bend_c, 10, 6918
20, 564639, Pitch_bend_c, 10, 6926
20, 564640, Pitch_bend_c, 10, 6934
20, 564640, Pitch_bend_c, 10, 6942
20, 564641, Pitch_bend_c, 10, 6950
20, 564641, Pitch_bend_c, 10, 6957
20, 564642, Pitch_bend_c, 10, 6965
20, 564642, Pitch_bend_c, 10, 6973
20, 564643, Pitch_bend_c, 10, 6981
20, 564643, Pitch_bend_c, 10, 6989
20, 564644, Pitch_bend_c, 10, 6997
20, 564644, Pitch_bend_c, 10, 7005
20, 564645, Pitch_bend_c, 10, 7012
20, 564645, Pitch_bend_c, 10, 7020
20, 564646, Pitch_bend_c, 10, 7028
20, 564646, Pitch_bend_c, 10, 7036
20, 564647, Pitch_bend_c, 10, 7044
20, 564647, Pitch_bend_c, 10, 7052
20, 564648, Pitch_bend_c, 10, 7060
20, 564648, Pitch_bend_c, 10, 7068
20, 564649, Pitch_bend_c, 10, 7075
20, 564649, Pitch_bend_c, 10, 7083
20, 564650, Pitch_bend_c, 10, 7091
20, 564650, Pitch_bend_c, 10, 7099
20, 564651, Pitch_bend_c, 10, 7107
20, 564651, Pitch_bend_c, 10, 7115
20, 564652, Pitch_bend_c, 10, 7123
20, 564652, Pitch_bend_c, 10, 7130
20, 564653, Pitch_bend_c, 10, 7138
20, 564653, Pitch_bend_c, 10, 7146
20, 564654, Pitch_bend_c, 10, 7154
20, 564654, Pitch_bend_c, 10, 7162
20, 564655, Pitch_bend_c, 10, 7170
20, 564655, Pitch_bend_c, 10, 7178
20, 564656, Pitch_bend_c, 10, 7186
20, 564656, Pitch_bend_c, 10, 7193
20, 564657, Pitch_bend_c, 10, 7201
20, 564657, Pitch_bend_c, 10, 7209
20, 564658, Pitch_bend_c, 10, 7217
20, 564658, Pitch_bend_c, 10, 7225
20, 564659, Pitch_bend_c, 10, 7233
20, 564659, Pitch_bend_c, 10, 7241
20, 564660, Pitch_bend_c, 10, 7248
20, 564660, Pitch_bend_c, 10, 7256
20, 564661, Pitch_bend_c, 10, 7264
20, 564661, Pitch_bend_c, 10, 7272
20, 564662, Pitch_bend_c, 10, 7280
20, 564662, Pitch_bend_c, 10, 7288
20, 564663, Pitch_bend_c, 10, 7296
20, 564663, Pitch_bend_c, 10, 7304
20, 564664, Pitch_bend_c, 10, 7311
20, 564664, Pitch_bend_c, 10, 7319
20, 564665, Pitch_bend_c, 10, 7327
20, 564665, Pitch_bend_c, 10, 7335
20, 564666, Pitch_bend_c, 10, 7343
20, 564666, Pitch_bend_c, 10, 7351
20, 564667, Pitch_bend_c, 10, 7359
20, 564667, Pitch_bend_c, 10, 7366
20, 564668, Pitch_bend_c, 10, 7374
20, 564668, Pitch_bend_c, 10, 7382
20, 564669, Pitch_bend_c, 10, 7390
20, 564669, Pitch_bend_c, 10, 7398
20, 564670, Pitch_bend_c, 10, 7406
20, 564670, Pitch_bend_c, 10, 7414
20, 564671, Pitch_bend_c, 10, 7422
20, 564671, Pitch_bend_c, 10, 7429
20, 564672, Pitch_bend_c, 10, 7437
20, 564672, Pitch_bend_c, 10, 7445
20, 564673, Pitch_bend_c, 10, 7453
20, 564673, Pitch_bend_c, 10, 7461
20, 564674, Pitch_bend_c, 10, 7469
20, 564674, Pitch_bend_c, 10, 7477
20, 564675, Pitch_bend_c, 10, 7484
20, 564675, Pitch_bend_c, 10, 7492
20, 564676, Pitch_bend_c, 10, 7500
20, 564676, Pitch_bend_c, 10, 7508
20, 564677, Pitch_bend_c, 10, 7516
20, 564677, Pitch_bend_c, 10, 7524
20, 564678, Pitch_bend_c, 10, 7532
20, 564678, Pitch_bend_c, 10, 7540
20, 564679, Pitch_bend_c, 10, 7547
20, 564679, Pitch_bend_c, 10, 7555
20, 564680, Pitch_bend_c, 10, 7563
20, 564680, Pitch_bend_c, 10, 7571
20, 564681, Pitch_bend_c, 10, 7579
20, 564681, Pitch_bend_c, 10, 7587
20, 564682, Pitch_bend_c, 10, 7595
20, 564682, Pitch_bend_c, 10, 7602
20, 564683, Pitch_bend_c, 10, 7610
20, 564683, Pitch_bend_c, 10, 7618
20, 564684, Pitch_bend_c, 10, 7626
20, 564684, Pitch_bend_c, 10, 7634
20, 564685, Pitch_bend_c, 10, 7642
20, 564685, Pitch_bend_c, 10, 7650
20, 564686, Pitch_bend_c, 10, 7658
20, 564686, Pitch_bend_c, 10, 7665
20, 564687, Pitch_bend_c, 10, 7673
20, 564687, Pitch_bend_c, 10, 7681
20, 564688, Pitch_bend_c, 10, 7689
20, 564688, Pitch_bend_c, 10, 7697
20, 564689, Pitch_bend_c, 10, 7705
20, 564689, Pitch_bend_c, 10, 7713
20, 564690, Pitch_bend_c, 10, 7720
20, 564690, Pitch_bend_c, 10, 7728
20, 564691, Pitch_bend_c, 10, 7736
20, 564691, Pitch_bend_c, 10, 7744
20, 564692, Pitch_bend_c, 10, 7752
20, 564692, Pitch_bend_c, 10, 7760
20, 564693, Pitch_bend_c, 10, 7768
20, 564693, Pitch_bend_c, 10, 7776
20, 564694, Pitch_bend_c, 10, 7783
20, 564694, Pitch_bend_c, 10, 7791
20, 564695, Pitch_bend_c, 10, 7799
20, 564695, Pitch_bend_c, 10, 7807
20, 564696, Pitch_bend_c, 10, 7815
20, 564696, Pitch_bend_c, 10, 7823
20, 564697, Pitch_bend_c, 10, 7831
20, 564697, Pitch_bend_c, 10, 7838
20, 564698, Pitch_bend_c, 10, 7846
20, 564698, Pitch_bend_c, 10, 7854
20, 564699, Pitch_bend_c, 10, 7862
20, 564699, Pitch_bend_c, 10, 7870
20, 564700, Pitch_bend_c, 10, 7878
20, 564700, Pitch_bend_c, 10, 7886
20, 564701, Pitch_bend_c, 10, 7894
20, 564701, Pitch_bend_c, 10, 7901
20, 564702, Pitch_bend_c, 10, 7909
20, 564702, Pitch_bend_c, 10, 7917
20, 564703, Pitch_bend_c, 10, 7925
20, 564703, Pitch_bend_c, 10, 7933
20, 564704, Pitch_bend_c, 10, 7941
20, 564704, Pitch_bend_c, 10, 7949
20, 564705, Pitch_bend_c, 10, 7956
20, 564705, Pitch_bend_c, 10, 7964
20, 564706, Pitch_bend_c, 10, 7972
20, 564706, Pitch_bend_c, 10, 7980
20, 564707, Pitch_bend_c, 10, 7988
20, 564707, Pitch_bend_c, 10, 7996
20, 564708, Pitch_bend_c, 10, 8004
20, 564708, Pitch_bend_c, 10, 8012
20, 564709, Pitch_bend_c, 10, 8019
20, 564709, Pitch_bend_c, 10, 8027
20, 564710, Pitch_bend_c, 10, 8035
20, 564710, Pitch_bend_c, 10, 8043
20, 564711, Pitch_bend_c, 10, 8051
20, 564711, Pitch_bend_c, 10, 8059
20, 564712, Pitch_bend_c, 10, 8067
20, 564712, Pitch_bend_c, 10, 8074
20, 564713, Pitch_bend_c, 10, 8082
20, 564713, Pitch_bend_c, 10, 8090
20, 564714, Pitch_bend_c, 10, 8098
20, 564714, Pitch_bend_c, 10, 8106
20, 564715, Pitch_bend_c, 10, 8114
20, 564715, Pitch_bend_c, 10, 8122
20, 564716, Pitch_bend_c, 10, 8130
20, 564716, Pitch_bend_c, 10, 8137
20, 564717, Pitch_bend_c, 10, 8145
20, 564717, Pitch_bend_c, 10, 8153
20, 564718, Pitch_bend_c, 10, 8161
20, 564718, Pitch_bend_c, 10, 8169
20, 564719, Pitch_bend_c, 10, 8177
20, 564719, Pitch_bend_c, 10, 8185
20, 564720, Pitch_bend_c, 10, 8192
20, 564742, Note_on_c, 10, 51, 0
20, 566880, Pitch_bend_c, 10, 4416
20, 566880, Pitch_bend_c, 10, 4424
20, 566881, Pitch_bend_c, 10, 4432
20, 566881, Pitch_bend_c, 10, 4440
20, 566882, Pitch_bend_c, 10, 4448
20, 566882, Pitch_bend_c, 10, 4456
20, 566883, Pitch_bend_c, 10, 4464
20, 566883, Pitch_bend_c, 10, 4472
20, 566884, Pitch_bend_c, 10, 4479
20, 566884, Note_on_c, 10, 51, 87
20, 566884, Pitch_bend_c, 10, 4487
20, 566885, Pitch_bend_c, 10, 4495
20, 566885, Pitch_bend_c, 10, 4503
20, 566886, Pitch_bend_c, 10, 4511
20, 566886, Pitch_bend_c, 10, 4519
20, 566887, Pitch_bend_c, 10, 4527
20, 566887, Pitch_bend_c, 10, 4534
20, 566888, Pitch_bend_c, 10, 4542
20, 566888, Pitch_bend_c, 10, 4550
20, 566889, Pitch_bend_c, 10, 4558
20, 566889, Pitch_bend_c, 10, 4566
20, 566890, Pitch_bend_c, 10, 4574
20, 566890, Pitch_bend_c, 10, 4582
20, 566891, Pitch_bend_c, 10, 4590
20, 566891, Pitch_bend_c, 10, 4597
20, 566892, Pitch_bend_c, 10, 4605
20, 566892, Pitch_bend_c, 10, 4613
20, 566893, Pitch_bend_c, 10, 4621
20, 566893, Pitch_bend_c, 10, 4629
20, 566894, Pitch_bend_c, 10, 4637
20, 566894, Pitch_bend_c, 10, 4645
20, 566895, Pitch_bend_c, 10, 4652
20, 566895, Pitch_bend_c, 10, 4660
20, 566896, Pitch_bend_c, 10, 4668
20, 566896, Pitch_bend_c, 10, 4676
20, 566897, Pitch_bend_c, 10, 4684
20, 566897, Pitch_bend_c, 10, 4692
20, 566898, Pitch_bend_c, 10, 4700
20, 566898, Pitch_bend_c, 10, 4708
20, 566899, Pitch_bend_c, 10, 4715
20, 566899, Pitch_bend_c, 10, 4723
20, 566900, Pitch_bend_c, 10, 4731
20, 566900, Pitch_bend_c, 10, 4739
20, 566901, Pitch_bend_c, 10, 4747
20, 566901, Pitch_bend_c, 10, 4755
20, 566902, Pitch_bend_c, 10, 4763
20, 566902, Pitch_bend_c, 10, 4770
20, 566903, Pitch_bend_c, 10, 4778
20, 566903, Pitch_bend_c, 10, 4786
20, 566904, Pitch_bend_c, 10, 4794
20, 566904, Pitch_bend_c, 10, 4802
20, 566905, Pitch_bend_c, 10, 4810
20, 566905, Pitch_bend_c, 10, 4818
20, 566906, Pitch_bend_c, 10, 4826
20, 566906, Pitch_bend_c, 10, 4833
20, 566907, Pitch_bend_c, 10, 4841
20, 566907, Pitch_bend_c, 10, 4849
20, 566908, Pitch_bend_c, 10, 4857
20, 566908, Pitch_bend_c, 10, 4865
20, 566909, Pitch_bend_c, 10, 4873
20, 566909, Pitch_bend_c, 10, 4881
20, 566910, Pitch_bend_c, 10, 4888
20, 566910, Pitch_bend_c, 10, 4896
20, 566911, Pitch_bend_c, 10, 4904
20, 566911, Pitch_bend_c, 10, 4912
20, 566912, Pitch_bend_c, 10, 4920
20, 566912, Pitch_bend_c, 10, 4928
20, 566913, Pitch_bend_c, 10, 4936
20, 566913, Pitch_bend_c, 10, 4944
20, 566914, Pitch_bend_c, 10, 4951
20, 566914, Pitch_bend_c, 10, 4959
20, 566915, Pitch_bend_c, 10, 4967
20, 566915, Pitch_bend_c, 10, 4975
20, 566916, Pitch_bend_c, 10, 4983
20, 566916, Pitch_bend_c, 10, 4991
20, 566917, Pitch_bend_c, 10, 4999
20, 566917, Pitch_bend_c, 10, 5006
20, 566918, Pitch_bend_c, 10, 5014
20, 566918, Pitch_bend_c, 10, 5022
20, 566919, Pitch_bend_c, 10, 5030
20, 566919, Pitch_bend_c, 10, 5038
20, 566920, Pitch_bend_c, 10, 5046
20, 566920, Pitch_bend_c, 10, 5054
20, 566921, Pitch_bend_c, 10, 5062
20, 566921, Pitch_bend_c, 10, 5069
20, 566922, Pitch_bend_c, 10, 5077
20, 566922, Pitch_bend_c, 10, 5085
20, 566923, Pitch_bend_c, 10, 5093
20, 566923, Pitch_bend_c, 10, 5101
20, 566924, Pitch_bend_c, 10, 5109
20, 566924, Pitch_bend_c, 10, 5117
20, 566925, Pitch_bend_c, 10, 5124
20, 566925, Pitch_bend_c, 10, 5132
20, 566926, Pitch_bend_c, 10, 5140
20, 566926, Pitch_bend_c, 10, 5148
20, 566927, Pitch_bend_c, 10, 5156
20, 566927, Pitch_bend_c, 10, 5164
20, 566928, Pitch_bend_c, 10, 5172
20, 566928, Pitch_bend_c, 10, 5180
20, 566929, Pitch_bend_c, 10, 5187
20, 566929, Pitch_bend_c, 10, 5195
20, 566930, Pitch_bend_c, 10, 5203
20, 566930, Pitch_bend_c, 10, 5211
20, 566931, Pitch_bend_c, 10, 5219
20, 566931, Pitch_bend_c, 10, 5227
20, 566932, Pitch_bend_c, 10, 5235
20, 566932, Pitch_bend_c, 10, 5242
20, 566933, Pitch_bend_c, 10, 5250
20, 566933, Pitch_bend_c, 10, 5258
20, 566934, Pitch_bend_c, 10, 5266
20, 566934, Pitch_bend_c, 10, 5274
20, 566935, Pitch_bend_c, 10, 5282
20, 566935, Pitch_bend_c, 10, 5290
20, 566936, Pitch_bend_c, 10, 5298
20, 566936, Pitch_bend_c, 10, 5305
20, 566937, Pitch_bend_c, 10, 5313
20, 566937, Pitch_bend_c, 10, 5321
20, 566938, Pitch_bend_c, 10, 5329
20, 566938, Pitch_bend_c, 10, 5337
20, 566939, Pitch_bend_c, 10, 5345
20, 566939, Pitch_bend_c, 10, 5353
20, 566940, Pitch_bend_c, 10, 5360
20, 566940, Pitch_bend_c, 10, 5368
20, 566941, Pitch_bend_c, 10, 5376
20, 566941, Pitch_bend_c, 10, 5384
20, 566942, Pitch_bend_c, 10, 5392
20, 566942, Pitch_bend_c, 10, 5400
20, 566943, Pitch_bend_c, 10, 5408
20, 566943, Pitch_bend_c, 10, 5416
20, 566944, Pitch_bend_c, 10, 5423
20, 566944, Pitch_bend_c, 10, 5431
20, 566945, Pitch_bend_c, 10, 5439
20, 566945, Pitch_bend_c, 10, 5447
20, 566946, Pitch_bend_c, 10, 5455
20, 566946, Pitch_bend_c, 10, 5463
20, 566947, Pitch_bend_c, 10, 5471
20, 566947, Pitch_bend_c, 10, 5478
20, 566948, Pitch_bend_c, 10, 5486
20, 566948, Pitch_bend_c, 10, 5494
20, 566949, Pitch_bend_c, 10, 5502
20, 566949, Pitch_bend_c, 10, 5510
20, 566950, Pitch_bend_c, 10, 5518
20, 566950, Pitch_bend_c, 10, 5526
20, 566951, Pitch_bend_c, 10, 5534
20, 566951, Pitch_bend_c, 10, 5541
20, 566952, Pitch_bend_c, 10, 5549
20, 566952, Pitch_bend_c, 10, 5557
20, 566953, Pitch_bend_c, 10, 5565
20, 566953, Pitch_bend_c, 10, 5573
20, 566954, Pitch_bend_c, 10, 5581
20, 566954, Pitch_bend_c, 10, 5589
20, 566955, Pitch_bend_c, 10, 5596
20, 566955, Pitch_bend_c, 10, 5604
20, 566956, Pitch_bend_c, 10, 5612
20, 566956, Pitch_bend_c, 10, 5620
20, 566957, Pitch_bend_c, 10, 5628
20, 566957, Pitch_bend_c, 10, 5636
20, 566958, Pitch_bend_c, 10, 5644
20, 566958, Pitch_bend_c, 10, 5652
20, 566959, Pitch_bend_c, 10, 5659
20, 566959, Pitch_bend_c, 10, 5667
20, 566960, Pitch_bend_c, 10, 5675
20, 566960, Pitch_bend_c, 10, 5683
20, 566961, Pitch_bend_c, 10, 5691
20, 566961, Pitch_bend_c, 10, 5699
20, 566962, Pitch_bend_c, 10, 5707
20, 566962, Pitch_bend_c, 10, 5714
20, 566963, Pitch_bend_c, 10, 5722
20, 566963, Pitch_bend_c, 10, 5730
20, 566964, Pitch_bend_c, 10, 5738
20, 566964, Pitch_bend_c, 10, 5746
20, 566965, Pitch_bend_c, 10, 5754
20, 566965, Pitch_bend_c, 10, 5762
20, 566966, Pitch_bend_c, 10, 5770
20, 566966, Pitch_bend_c, 10, 5777
20, 566967, Pitch_bend_c, 10, 5785
20, 566967, Pitch_bend_c, 10, 5793
20, 566968, Pitch_bend_c, 10, 5801
20, 566968, Pitch_bend_c, 10, 5809
20, 566969, Pitch_bend_c, 10, 5817
20, 566969, Pitch_bend_c, 10, 5825
20, 566970, Pitch_bend_c, 10, 5832
20, 566970, Pitch_bend_c, 10, 5840
20, 566971, Pitch_bend_c, 10, 5848
20, 566971, Pitch_bend_c, 10, 5856
20, 566972, Pitch_bend_c, 10, 5864
20, 566972, Pitch_bend_c, 10, 5872
20, 566973, Pitch_bend_c, 10, 5880
20, 566973, Pitch_bend_c, 10, 5888
20, 566974, Pitch_bend_c, 10, 5895
20, 566974, Pitch_bend_c, 10, 5903
20, 566975, Pitch_bend_c, 10, 5911
20, 566975, Pitch_bend_c, 10, 5919
20, 566976, Pitch_bend_c, 10, 5927
20, 566976, Pitch_bend_c, 10, 5935
20, 566977, Pitch_bend_c, 10, 5943
20, 566977, Pitch_bend_c, 10, 5950
20, 566978, Pitch_bend_c, 10, 5958
20, 566978, Pitch_bend_c, 10, 5966
20, 566979, Pitch_bend_c, 10, 5974
20, 566979, Pitch_bend_c, 10, 5982
20, 566980, Pitch_bend_c, 10, 5990
20, 566980, Pitch_bend_c, 10, 5998
20, 566981, Pitch_bend_c, 10, 6006
20, 566981, Pitch_bend_c, 10, 6013
20, 566982, Pitch_bend_c, 10, 6021
20, 566982, Pitch_bend_c, 10, 6029
20, 566983, Pitch_bend_c, 10, 6037
20, 566983, Pitch_bend_c, 10, 6045
20, 566984, Pitch_bend_c, 10, 6053
20, 566984, Pitch_bend_c, 10, 6061
20, 566985, Pitch_bend_c, 10, 6068
20, 566985, Pitch_bend_c, 10, 6076
20, 566986, Pitch_bend_c, 10, 6084
20, 566986, Pitch_bend_c, 10, 6092
20, 566987, Pitch_bend_c, 10, 6100
20, 566987, Pitch_bend_c, 10, 6108
20, 566988, Pitch_bend_c, 10, 6116
20, 566988, Pitch_bend_c, 10, 6124
20, 566989, Pitch_bend_c, 10, 6131
20, 566989, Pitch_bend_c, 10, 6139
20, 566990, Pitch_bend_c, 10, 6147
20, 566990, Pitch_bend_c, 10, 6155
20, 566991, Pitch_bend_c, 10, 6163
20, 566991, Pitch_bend_c, 10, 6171
20, 566992, Pitch_bend_c, 10, 6179
20, 566992, Pitch_bend_c, 10, 6186
20, 566993, Pitch_bend_c, 10, 6194
20, 566993, Pitch_bend_c, 10, 6202
20, 566994, Pitch_bend_c, 10, 6210
20, 566994, Pitch_bend_c, 10, 6218
20, 566995, Pitch_bend_c, 10, 6226
20, 566995, Pitch_bend_c, 10, 6234
20, 566996, Pitch_bend_c, 10, 6242
20, 566996, Pitch_bend_c, 10, 6249
20, 566997, Pitch_bend_c, 10, 6257
20, 566997, Pitch_bend_c, 10, 6265
20, 566998, Pitch_bend_c, 10, 6273
20, 566998, Pitch_bend_c, 10, 6281
20, 566999, Pitch_bend_c, 10, 6289
20, 566999, Pitch_bend_c, 10, 6297
20, 567000, Pitch_bend_c, 10, 6304
20, 567000, Pitch_bend_c, 10, 6312
20, 567001, Pitch_bend_c, 10, 6320
20, 567001, Pitch_bend_c, 10, 6328
20, 567002, Pitch_bend_c, 10, 6336
20, 567002, Pitch_bend_c, 10, 6344
20, 567003, Pitch_bend_c, 10, 6352
20, 567003, Pitch_bend_c, 10, 6360
20, 567004, Pitch_bend_c, 10, 6367
20, 567004, Pitch_bend_c, 10, 6375
20, 567005, Pitch_bend_c, 10, 6383
20, 567005, Pitch_bend_c, 10, 6391
20, 567006, Pitch_bend_c, 10, 6399
20, 567006, Pitch_bend_c, 10, 6407
20, 567007, Pitch_bend_c, 10, 6415
20, 567007, Pitch_bend_c, 10, 6422
20, 567008, Pitch_bend_c, 10, 6430
20, 567008, Pitch_bend_c, 10, 6438
20, 567009, Pitch_bend_c, 10, 6446
20, 567009, Pitch_bend_c, 10, 6454
20, 567010, Pitch_bend_c, 10, 6462
20, 567010, Pitch_bend_c, 10, 6470
20, 567011, Pitch_bend_c, 10, 6478
20, 567011, Pitch_bend_c, 10, 6485
20, 567012, Pitch_bend_c, 10, 6493
20, 567012, Pitch_bend_c, 10, 6501
20, 567013, Pitch_bend_c, 10, 6509
20, 567013, Pitch_bend_c, 10, 6517
20, 567014, Pitch_bend_c, 10, 6525
20, 567014, Pitch_bend_c, 10, 6533
20, 567015, Pitch_bend_c, 10, 6540
20, 567015, Pitch_bend_c, 10, 6548
20, 567016, Pitch_bend_c, 10, 6556
20, 567016, Pitch_bend_c, 10, 6564
20, 567017, Pitch_bend_c, 10, 6572
20, 567017, Pitch_bend_c, 10, 6580
20, 567018, Pitch_bend_c, 10, 6588
20, 567018, Pitch_bend_c, 10, 6596
20, 567019, Pitch_bend_c, 10, 6603
20, 567019, Pitch_bend_c, 10, 6611
20, 567020, Pitch_bend_c, 10, 6619
20, 567020, Pitch_bend_c, 10, 6627
20, 567021, Pitch_bend_c, 10, 6635
20, 567021, Pitch_bend_c, 10, 6643
20, 567022, Pitch_bend_c, 10, 6651
20, 567022, Pitch_bend_c, 10, 6658
20, 567023, Pitch_bend_c, 10, 6666
20, 567023, Pitch_bend_c, 10, 6674
20, 567024, Pitch_bend_c, 10, 6682
20, 567024, Pitch_bend_c, 10, 6690
20, 567025, Pitch_bend_c, 10, 6698
20, 567025, Pitch_bend_c, 10, 6706
20, 567026, Pitch_bend_c, 10, 6714
20, 567026, Pitch_bend_c, 10, 6721
20, 567027, Pitch_bend_c, 10, 6729
20, 567027, Pitch_bend_c, 10, 6737
20, 567028, Pitch_bend_c, 10, 6745
20, 567028, Pitch_bend_c, 10, 6753
20, 567029, Pitch_bend_c, 10, 6761
20, 567029, Pitch_bend_c, 10, 6769
20, 567030, Pitch_bend_c, 10, 6776
20, 567030, Pitch_bend_c, 10, 6784
20, 567031, Pitch_bend_c, 10, 6792
20, 567031, Pitch_bend_c, 10, 6800
20, 567032, Pitch_bend_c, 10, 6808
20, 567032, Pitch_bend_c, 10, 6816
20, 567033, Pitch_bend_c, 10, 6824
20, 567033, Pitch_bend_c, 10, 6832
20, 567034, Pitch_bend_c, 10, 6839
20, 567034, Pitch_bend_c, 10, 6847
20, 567035, Pitch_bend_c, 10, 6855
20, 567035, Pitch_bend_c, 10, 6863
20, 567036, Pitch_bend_c, 10, 6871
20, 567036, Pitch_bend_c, 10, 6879
20, 567037, Pitch_bend_c, 10, 6887
20, 567037, Pitch_bend_c, 10, 6894
20, 567038, Pitch_bend_c, 10, 6902
20, 567038, Pitch_bend_c, 10, 6910
20, 567039, Pitch_bend_c, 10, 6918
20, 567039, Pitch_bend_c, 10, 6926
20, 567040, Pitch_bend_c, 10, 6934
20, 567040, Pitch_bend_c, 10, 6942
20, 567041, Pitch_bend_c, 10, 6950
20, 567041, Pitch_bend_c, 10, 6957
20, 567042, Pitch_bend_c, 10, 6965
20, 567042, Pitch_bend_c, 10, 6973
20, 567043, Pitch_bend_c, 10, 6981
20, 567043, Pitch_bend_c, 10, 6989
20, 567044, Pitch_bend_c, 10, 6997
20, 567044, Pitch_bend_c, 10, 7005
20, 567045, Pitch_bend_c, 10, 7012
20, 567045, Pitch_bend_c, 10, 7020
20, 567046, Pitch_bend_c, 10, 7028
20, 567046, Pitch_bend_c, 10, 7036
20, 567047, Pitch_bend_c, 10, 7044
20, 567047, Pitch_bend_c, 10, 7052
20, 567048, Pitch_bend_c, 10, 7060
20, 567048, Pitch_bend_c, 10, 7068
20, 567049, Pitch_bend_c, 10, 7075
20, 567049, Pitch_bend_c, 10, 7083
20, 567050, Pitch_bend_c, 10, 7091
20, 567050, Pitch_bend_c, 10, 7099
20, 567051, Pitch_bend_c, 10, 7107
20, 567051, Pitch_bend_c, 10, 7115
20, 567052, Pitch_bend_c, 10, 7123
20, 567052, Pitch_bend_c, 10, 7130
20, 567053, Pitch_bend_c, 10, 7138
20, 567053, Pitch_bend_c, 10, 7146
20, 567054, Pitch_bend_c, 10, 7154
20, 567054, Pitch_bend_c, 10, 7162
20, 567055, Pitch_bend_c, 10, 7170
20, 567055, Pitch_bend_c, 10, 7178
20, 567056, Pitch_bend_c, 10, 7186
20, 567056, Pitch_bend_c, 10, 7193
20, 567057, Pitch_bend_c, 10, 7201
20, 567057, Pitch_bend_c, 10, 7209
20, 567058, Pitch_bend_c, 10, 7217
20, 567058, Pitch_bend_c, 10, 7225
20, 567059, Pitch_bend_c, 10, 7233
20, 567059, Pitch_bend_c, 10, 7241
20, 567060, Pitch_bend_c, 10, 7248
20, 567060, Pitch_bend_c, 10, 7256
20, 567061, Pitch_bend_c, 10, 7264
20, 567061, Pitch_bend_c, 10, 7272
20, 567062, Pitch_bend_c, 10, 7280
20, 567062, Pitch_bend_c, 10, 7288
20, 567063, Pitch_bend_c, 10, 7296
20, 567063, Pitch_bend_c, 10, 7304
20, 567064, Pitch_bend_c, 10, 7311
20, 567064, Pitch_bend_c, 10, 7319
20, 567065, Pitch_bend_c, 10, 7327
20, 567065, Pitch_bend_c, 10, 7335
20, 567066, Pitch_bend_c, 10, 7343
20, 567066, Pitch_bend_c, 10, 7351
20, 567067, Pitch_bend_c, 10, 7359
20, 567067, Pitch_bend_c, 10, 7366
20, 567068, Pitch_bend_c, 10, 7374
20, 567068, Pitch_bend_c, 10, 7382
20, 567069, Pitch_bend_c, 10, 7390
20, 567069, Pitch_bend_c, 10, 7398
20, 567070, Pitch_bend_c, 10, 7406
20, 567070, Pitch_bend_c, 10, 7414
20, 567071, Pitch_bend_c, 10, 7422
20, 567071, Pitch_bend_c, 10, 7429
20, 567072, Pitch_bend_c, 10, 7437
20, 567072, Pitch_bend_c, 10, 7445
20, 567073, Pitch_bend_c, 10, 7453
20, 567073, Pitch_bend_c, 10, 7461
20, 567074, Pitch_bend_c, 10, 7469
20, 567074, Pitch_bend_c, 10, 7477
20, 567075, Pitch_bend_c, 10, 7484
20, 567075, Pitch_bend_c, 10, 7492
20, 567076, Pitch_bend_c, 10, 7500
20, 567076, Pitch_bend_c, 10, 7508
20, 567077, Pitch_bend_c, 10, 7516
20, 567077, Pitch_bend_c, 10, 7524
20, 567078, Pitch_bend_c, 10, 7532
20, 567078, Pitch_bend_c, 10, 7540
20, 567079, Pitch_bend_c, 10, 7547
20, 567079, Pitch_bend_c, 10, 7555
20, 567080, Pitch_bend_c, 10, 7563
20, 567080, Pitch_bend_c, 10, 7571
20, 567081, Pitch_bend_c, 10, 7579
20, 567081, Pitch_bend_c, 10, 7587
20, 567082, Pitch_bend_c, 10, 7595
20, 567082, Pitch_bend_c, 10, 7602
20, 567083, Pitch_bend_c, 10, 7610
20, 567083, Pitch_bend_c, 10, 7618
20, 567084, Pitch_bend_c, 10, 7626
20, 567084, Pitch_bend_c, 10, 7634
20, 567085, Pitch_bend_c, 10, 7642
20, 567085, Pitch_bend_c, 10, 7650
20, 567086, Pitch_bend_c, 10, 7658
20, 567086, Pitch_bend_c, 10, 7665
20, 567087, Pitch_bend_c, 10, 7673
20, 567087, Pitch_bend_c, 10, 7681
20, 567088, Pitch_bend_c, 10, 7689
20, 567088, Pitch_bend_c, 10, 7697
20, 567089, Pitch_bend_c, 10, 7705
20, 567089, Pitch_bend_c, 10, 7713
20, 567090, Pitch_bend_c, 10, 7720
20, 567090, Pitch_bend_c, 10, 7728
20, 567091, Pitch_bend_c, 10, 7736
20, 567091, Pitch_bend_c, 10, 7744
20, 567092, Pitch_bend_c, 10, 7752
20, 567092, Pitch_bend_c, 10, 7760
20, 567093, Pitch_bend_c, 10, 7768
20, 567093, Pitch_bend_c, 10, 7776
20, 567094, Pitch_bend_c, 10, 7783
20, 567094, Pitch_bend_c, 10, 7791
20, 567095, Pitch_bend_c, 10, 7799
20, 567095, Pitch_bend_c, 10, 7807
20, 567096, Pitch_bend_c, 10, 7815
20, 567096, Pitch_bend_c, 10, 7823
20, 567097, Pitch_bend_c, 10, 7831
20, 567097, Pitch_bend_c, 10, 7838
20, 567098, Pitch_bend_c, 10, 7846
20, 567098, Pitch_bend_c, 10, 7854
20, 567099, Pitch_bend_c, 10, 7862
20, 567099, Pitch_bend_c, 10, 7870
20, 567100, Pitch_bend_c, 10, 7878
20, 567100, Pitch_bend_c, 10, 7886
20, 567101, Pitch_bend_c, 10, 7894
20, 567101, Pitch_bend_c, 10, 7901
20, 567102, Pitch_bend_c, 10, 7909
20, 567102, Pitch_bend_c, 10, 7917
20, 567103, Pitch_bend_c, 10, 7925
20, 567103, Pitch_bend_c, 10, 7933
20, 567104, Pitch_bend_c, 10, 7941
20, 567104, Pitch_bend_c, 10, 7949
20, 567105, Pitch_bend_c, 10, 7956
20, 567105, Pitch_bend_c, 10, 7964
20, 567106, Pitch_bend_c, 10, 7972
20, 567106, Pitch_bend_c, 10, 7980
20, 567107, Pitch_bend_c, 10, 7988
20, 567107, Pitch_bend_c, 10, 7996
20, 567108, Pitch_bend_c, 10, 8004
20, 567108, Pitch_bend_c, 10, 8012
20, 567109, Pitch_bend_c, 10, 8019
20, 567109, Pitch_bend_c, 10, 8027
20, 567110, Pitch_bend_c, 10, 8035
20, 567110, Pitch_bend_c, 10, 8043
20, 567111, Pitch_bend_c, 10, 8051
20, 567111, Pitch_bend_c, 10, 8059
20, 567112, Pitch_bend_c, 10, 8067
20, 567112, Pitch_bend_c, 10, 8074
20, 567113, Pitch_bend_c, 10, 8082
20, 567113, Pitch_bend_c, 10, 8090
20, 567114, Pitch_bend_c, 10, 8098
20, 567114, Pitch_bend_c, 10, 8106
20, 567115, Pitch_bend_c, 10, 8114
20, 567115, Pitch_bend_c, 10, 8122
20, 567116, Pitch_bend_c, 10, 8130
20, 567116, Pitch_bend_c, 10, 8137
20, 567117, Pitch_bend_c, 10, 8145
20, 567117, Pitch_bend_c, 10, 8153
20, 567118, Pitch_bend_c, 10, 8161
20, 567118, Pitch_bend_c, 10, 8169
20, 567119, Pitch_bend_c, 10, 8177
20, 567119, Pitch_bend_c, 10, 8185
20, 567120, Pitch_bend_c, 10, 8192
20, 567124, Note_on_c, 10, 51, 0
20, 568320, Pitch_bend_c, 10, 4416
20, 568320, Pitch_bend_c, 10, 4424
20, 568321, Pitch_bend_c, 10, 4432
20, 568321, Pitch_bend_c, 10, 4440
20, 568322, Note_on_c, 10, 51, 81
20, 568322, Pitch_bend_c, 10, 4448
20, 568322, Pitch_bend_c, 10, 4456
20, 568323, Pitch_bend_c, 10, 4464
20, 568323, Pitch_bend_c, 10, 4472
20, 568324, Pitch_bend_c, 10, 4479
20, 568324, Pitch_bend_c, 10, 4487
20, 568325, Pitch_bend_c, 10, 4495
20, 568325, Pitch_bend_c, 10, 4503
20, 568326, Pitch_bend_c, 10, 4511
20, 568326, Pitch_bend_c, 10, 4519
20, 568327, Pitch_bend_c, 10, 4527
20, 568327, Pitch_bend_c, 10, 4534
20, 568328, Pitch_bend_c, 10, 4542
20, 568328, Pitch_bend_c, 10, 4550
20, 568329, Pitch_bend_c, 10, 4558
20, 568329, Pitch_bend_c, 10, 4566
20, 568330, Pitch_bend_c, 10, 4574
20, 568330, Pitch_bend_c, 10, 4582
20, 568331, Pitch_bend_c, 10, 4590
20, 568331, Pitch_bend_c, 10, 4597
20, 568332, Pitch_bend_c, 10, 4605
20, 568332, Pitch_bend_c, 10, 4613
20, 568333, Pitch_bend_c, 10, 4621
20, 568333, Pitch_bend_c, 10, 4629
20, 568334, Pitch_bend_c, 10, 4637
20, 568334, Pitch_bend_c, 10, 4645
20, 568335, Pitch_bend_c, 10, 4652
20, 568335, Pitch_bend_c, 10, 4660
20, 568336, Pitch_bend_c, 10, 4668
20, 568336, Pitch_bend_c, 10, 4676
20, 568337, Pitch_bend_c, 10, 4684
20, 568337, Pitch_bend_c, 10, 4692
20, 568338, Pitch_bend_c, 10, 4700
20, 568338, Pitch_bend_c, 10, 4708
20, 568339, Pitch_bend_c, 10, 4715
20, 568339, Pitch_bend_c, 10, 4723
20, 568340, Pitch_bend_c, 10, 4731
20, 568340, Pitch_bend_c, 10, 4739
20, 568341, Pitch_bend_c, 10, 4747
20, 568341, Pitch_bend_c, 10, 4755
20, 568342, Pitch_bend_c, 10, 4763
20, 568342, Pitch_bend_c, 10, 4770
20, 568343, Pitch_bend_c, 10, 4778
20, 568343, Pitch_bend_c, 10, 4786
20, 568344, Pitch_bend_c, 10, 4794
20, 568344, Pitch_bend_c, 10, 4802
20, 568345, Pitch_bend_c, 10, 4810
20, 568345, Pitch_bend_c, 10, 4818
20, 568346, Pitch_bend_c, 10, 4826
20, 568346, Pitch_bend_c, 10, 4833
20, 568347, Pitch_bend_c, 10, 4841
20, 568347, Pitch_bend_c, 10, 4849
20, 568348, Pitch_bend_c, 10, 4857
20, 568348, Pitch_bend_c, 10, 4865
20, 568349, Pitch_bend_c, 10, 4873
20, 568349, Pitch_bend_c, 10, 4881
20, 568350, Pitch_bend_c, 10, 4888
20, 568350, Pitch_bend_c, 10, 4896
20, 568351, Pitch_bend_c, 10, 4904
20, 568351, Pitch_bend_c, 10, 4912
20, 568352, Pitch_bend_c, 10, 4920
20, 568352, Pitch_bend_c, 10, 4928
20, 568353, Pitch_bend_c, 10, 4936
20, 568353, Pitch_bend_c, 10, 4944
20, 568354, Pitch_bend_c, 10, 4951
20, 568354, Pitch_bend_c, 10, 4959
20, 568355, Pitch_bend_c, 10, 4967
20, 568355, Pitch_bend_c, 10, 4975
20, 568356, Pitch_bend_c, 10, 4983
20, 568356, Pitch_bend_c, 10, 4991
20, 568357, Pitch_bend_c, 10, 4999
20, 568357, Pitch_bend_c, 10, 5006
20, 568358, Pitch_bend_c, 10, 5014
20, 568358, Pitch_bend_c, 10, 5022
20, 568359, Pitch_bend_c, 10, 5030
20, 568359, Pitch_bend_c, 10, 5038
20, 568360, Pitch_bend_c, 10, 5046
20, 568360, Pitch_bend_c, 10, 5054
20, 568361, Pitch_bend_c, 10, 5062
20, 568361, Pitch_bend_c, 10, 5069
20, 568362, Pitch_bend_c, 10, 5077
20, 568362, Pitch_bend_c, 10, 5085
20, 568363, Pitch_bend_c, 10, 5093
20, 568363, Pitch_bend_c, 10, 5101
20, 568364, Pitch_bend_c, 10, 5109
20, 568364, Pitch_bend_c, 10, 5117
20, 568365, Pitch_bend_c, 10, 5124
20, 568365, Pitch_bend_c, 10, 5132
20, 568366, Pitch_bend_c, 10, 5140
20, 568366, Pitch_bend_c, 10, 5148
20, 568367, Pitch_bend_c, 10, 5156
20, 568367, Pitch_bend_c, 10, 5164
20, 568368, Pitch_bend_c, 10, 5172
20, 568368, Pitch_bend_c, 10, 5180
20, 568369, Pitch_bend_c, 10, 5187
20, 568369, Pitch_bend_c, 10, 5195
20, 568370, Pitch_bend_c, 10, 5203
20, 568370, Pitch_bend_c, 10, 5211
20, 568371, Pitch_bend_c, 10, 5219
20, 568371, Pitch_bend_c, 10, 5227
20, 568372, Pitch_bend_c, 10, 5235
20, 568372, Pitch_bend_c, 10, 5242
20, 568373, Pitch_bend_c, 10, 5250
20, 568373, Pitch_bend_c, 10, 5258
20, 568374, Pitch_bend_c, 10, 5266
20, 568374, Pitch_bend_c, 10, 5274
20, 568375, Pitch_bend_c, 10, 5282
20, 568375, Pitch_bend_c, 10, 5290
20, 568376, Pitch_bend_c, 10, 5298
20, 568376, Pitch_bend_c, 10, 5305
20, 568377, Pitch_bend_c, 10, 5313
20, 568377, Pitch_bend_c, 10, 5321
20, 568378, Pitch_bend_c, 10, 5329
20, 568378, Pitch_bend_c, 10, 5337
20, 568379, Pitch_bend_c, 10, 5345
20, 568379, Pitch_bend_c, 10, 5353
20, 568380, Pitch_bend_c, 10, 5360
20, 568380, Pitch_bend_c, 10, 5368
20, 568381, Pitch_bend_c, 10, 5376
20, 568381, Pitch_bend_c, 10, 5384
20, 568382, Pitch_bend_c, 10, 5392
20, 568382, Pitch_bend_c, 10, 5400
20, 568383, Pitch_bend_c, 10, 5408
20, 568383, Pitch_bend_c, 10, 5416
20, 568384, Pitch_bend_c, 10, 5423
20, 568384, Pitch_bend_c, 10, 5431
20, 568385, Pitch_bend_c, 10, 5439
20, 568385, Pitch_bend_c, 10, 5447
20, 568386, Pitch_bend_c, 10, 5455
20, 568386, Pitch_bend_c, 10, 5463
20, 568387, Pitch_bend_c, 10, 5471
20, 568387, Pitch_bend_c, 10, 5478
20, 568388, Pitch_bend_c, 10, 5486
20, 568388, Pitch_bend_c, 10, 5494
20, 568389, Pitch_bend_c, 10, 5502
20, 568389, Pitch_bend_c, 10, 5510
20, 568390, Pitch_bend_c, 10, 5518
20, 568390, Pitch_bend_c, 10, 5526
20, 568391, Pitch_bend_c, 10, 5534
20, 568391, Pitch_bend_c, 10, 5541
20, 568392, Pitch_bend_c, 10, 5549
20, 568392, Pitch_bend_c, 10, 5557
20, 568393, Pitch_bend_c, 10, 5565
20, 568393, Pitch_bend_c, 10, 5573
20, 568394, Pitch_bend_c, 10, 5581
20, 568394, Pitch_bend_c, 10, 5589
20, 568395, Pitch_bend_c, 10, 5596
20, 568395, Pitch_bend_c, 10, 5604
20, 568396, Pitch_bend_c, 10, 5612
20, 568396, Pitch_bend_c, 10, 5620
20, 568397, Pitch_bend_c, 10, 5628
20, 568397, Pitch_bend_c, 10, 5636
20, 568398, Pitch_bend_c, 10, 5644
20, 568398, Pitch_bend_c, 10, 5652
20, 568399, Pitch_bend_c, 10, 5659
20, 568399, Pitch_bend_c, 10, 5667
20, 568400, Pitch_bend_c, 10, 5675
20, 568400, Pitch_bend_c, 10, 5683
20, 568401, Pitch_bend_c, 10, 5691
20, 568401, Pitch_bend_c, 10, 5699
20, 568402, Pitch_bend_c, 10, 5707
20, 568402, Pitch_bend_c, 10, 5714
20, 568403, Pitch_bend_c, 10, 5722
20, 568403, Pitch_bend_c, 10, 5730
20, 568404, Pitch_bend_c, 10, 5738
20, 568404, Pitch_bend_c, 10, 5746
20, 568405, Pitch_bend_c, 10, 5754
20, 568405, Pitch_bend_c, 10, 5762
20, 568406, Pitch_bend_c, 10, 5770
20, 568406, Pitch_bend_c, 10, 5777
20, 568407, Pitch_bend_c, 10, 5785
20, 568407, Pitch_bend_c, 10, 5793
20, 568408, Pitch_bend_c, 10, 5801
20, 568408, Pitch_bend_c, 10, 5809
20, 568409, Pitch_bend_c, 10, 5817
20, 568409, Pitch_bend_c, 10, 5825
20, 568410, Pitch_bend_c, 10, 5832
20, 568410, Pitch_bend_c, 10, 5840
20, 568411, Pitch_bend_c, 10, 5848
20, 568411, Pitch_bend_c, 10, 5856
20, 568412, Pitch_bend_c, 10, 5864
20, 568412, Pitch_bend_c, 10, 5872
20, 568413, Pitch_bend_c, 10, 5880
20, 568413, Pitch_bend_c, 10, 5888
20, 568414, Pitch_bend_c, 10, 5895
20, 568414, Pitch_bend_c, 10, 5903
20, 568415, Pitch_bend_c, 10, 5911
20, 568415, Pitch_bend_c, 10, 5919
20, 568416, Pitch_bend_c, 10, 5927
20, 568416, Pitch_bend_c, 10, 5935
20, 568417, Pitch_bend_c, 10, 5943
20, 568417, Pitch_bend_c, 10, 5950
20, 568418, Pitch_bend_c, 10, 5958
20, 568418, Pitch_bend_c, 10, 5966
20, 568419, Pitch_bend_c, 10, 5974
20, 568419, Pitch_bend_c, 10, 5982
20, 568420, Pitch_bend_c, 10, 5990
20, 568420, Pitch_bend_c, 10, 5998
20, 568421, Pitch_bend_c, 10, 6006
20, 568421, Pitch_bend_c, 10, 6013
20, 568422, Pitch_bend_c, 10, 6021
20, 568422, Pitch_bend_c, 10, 6029
20, 568423, Pitch_bend_c, 10, 6037
20, 568423, Pitch_bend_c, 10, 6045
20, 568424, Pitch_bend_c, 10, 6053
20, 568424, Pitch_bend_c, 10, 6061
20, 568425, Pitch_bend_c, 10, 6068
20, 568425, Pitch_bend_c, 10, 6076
20, 568426, Pitch_bend_c, 10, 6084
20, 568426, Pitch_bend_c, 10, 6092
20, 568427, Pitch_bend_c, 10, 6100
20, 568427, Pitch_bend_c, 10, 6108
20, 568428, Pitch_bend_c, 10, 6116
20, 568428, Pitch_bend_c, 10, 6124
20, 568429, Pitch_bend_c, 10, 6131
20, 568429, Pitch_bend_c, 10, 6139
20, 568430, Pitch_bend_c, 10, 6147
20, 568430, Pitch_bend_c, 10, 6155
20, 568431, Pitch_bend_c, 10, 6163
20, 568431, Pitch_bend_c, 10, 6171
20, 568432, Pitch_bend_c, 10, 6179
20, 568432, Pitch_bend_c, 10, 6186
20, 568433, Pitch_bend_c, 10, 6194
20, 568433, Pitch_bend_c, 10, 6202
20, 568434, Pitch_bend_c, 10, 6210
20, 568434, Pitch_bend_c, 10, 6218
20, 568435, Pitch_bend_c, 10, 6226
20, 568435, Pitch_bend_c, 10, 6234
20, 568436, Pitch_bend_c, 10, 6242
20, 568436, Pitch_bend_c, 10, 6249
20, 568437, Pitch_bend_c, 10, 6257
20, 568437, Pitch_bend_c, 10, 6265
20, 568438, Pitch_bend_c, 10, 6273
20, 568438, Pitch_bend_c, 10, 6281
20, 568439, Pitch_bend_c, 10, 6289
20, 568439, Pitch_bend_c, 10, 6297
20, 568440, Pitch_bend_c, 10, 6304
20, 568440, Pitch_bend_c, 10, 6312
20, 568441, Pitch_bend_c, 10, 6320
20, 568441, Pitch_bend_c, 10, 6328
20, 568442, Pitch_bend_c, 10, 6336
20, 568442, Pitch_bend_c, 10, 6344
20, 568443, Pitch_bend_c, 10, 6352
20, 568443, Pitch_bend_c, 10, 6360
20, 568444, Pitch_bend_c, 10, 6367
20, 568444, Pitch_bend_c, 10, 6375
20, 568445, Pitch_bend_c, 10, 6383
20, 568445, Pitch_bend_c, 10, 6391
20, 568446, Pitch_bend_c, 10, 6399
20, 568446, Pitch_bend_c, 10, 6407
20, 568447, Pitch_bend_c, 10, 6415
20, 568447, Pitch_bend_c, 10, 6422
20, 568448, Pitch_bend_c, 10, 6430
20, 568448, Pitch_bend_c, 10, 6438
20, 568449, Pitch_bend_c, 10, 6446
20, 568449, Pitch_bend_c, 10, 6454
20, 568450, Pitch_bend_c, 10, 6462
20, 568450, Pitch_bend_c, 10, 6470
20, 568451, Pitch_bend_c, 10, 6478
20, 568451, Pitch_bend_c, 10, 6485
20, 568452, Pitch_bend_c, 10, 6493
20, 568452, Pitch_bend_c, 10, 6501
20, 568453, Pitch_bend_c, 10, 6509
20, 568453, Pitch_bend_c, 10, 6517
20, 568454, Pitch_bend_c, 10, 6525
20, 568454, Pitch_bend_c, 10, 6533
20, 568455, Pitch_bend_c, 10, 6540
20, 568455, Pitch_bend_c, 10, 6548
20, 568456, Pitch_bend_c, 10, 6556
20, 568456, Pitch_bend_c, 10, 6564
20, 568457, Pitch_bend_c, 10, 6572
20, 568457, Pitch_bend_c, 10, 6580
20, 568458, Pitch_bend_c, 10, 6588
20, 568458, Pitch_bend_c, 10, 6596
20, 568459, Pitch_bend_c, 10, 6603
20, 568459, Pitch_bend_c, 10, 6611
20, 568460, Pitch_bend_c, 10, 6619
20, 568460, Pitch_bend_c, 10, 6627
20, 568461, Pitch_bend_c, 10, 6635
20, 568461, Pitch_bend_c, 10, 6643
20, 568462, Pitch_bend_c, 10, 6651
20, 568462, Pitch_bend_c, 10, 6658
20, 568463, Pitch_bend_c, 10, 6666
20, 568463, Pitch_bend_c, 10, 6674
20, 568464, Pitch_bend_c, 10, 6682
20, 568464, Pitch_bend_c, 10, 6690
20, 568465, Pitch_bend_c, 10, 6698
20, 568465, Pitch_bend_c, 10, 6706
20, 568466, Pitch_bend_c, 10, 6714
20, 568466, Pitch_bend_c, 10, 6721
20, 568467, Pitch_bend_c, 10, 6729
20, 568467, Pitch_bend_c, 10, 6737
20, 568468, Pitch_bend_c, 10, 6745
20, 568468, Pitch_bend_c, 10, 6753
20, 568469, Pitch_bend_c, 10, 6761
20, 568469, Pitch_bend_c, 10, 6769
20, 568470, Pitch_bend_c, 10, 6776
20, 568470, Pitch_bend_c, 10, 6784
20, 568471, Pitch_bend_c, 10, 6792
20, 568471, Pitch_bend_c, 10, 6800
20, 568472, Pitch_bend_c, 10, 6808
20, 568472, Pitch_bend_c, 10, 6816
20, 568473, Pitch_bend_c, 10, 6824
20, 568473, Pitch_bend_c, 10, 6832
20, 568474, Pitch_bend_c, 10, 6839
20, 568474, Pitch_bend_c, 10, 6847
20, 568475, Pitch_bend_c, 10, 6855
20, 568475, Pitch_bend_c, 10, 6863
20, 568476, Pitch_bend_c, 10, 6871
20, 568476, Pitch_bend_c, 10, 6879
20, 568477, Pitch_bend_c, 10, 6887
20, 568477, Pitch_bend_c, 10, 6894
20, 568478, Pitch_bend_c, 10, 6902
20, 568478, Pitch_bend_c, 10, 6910
20, 568479, Pitch_bend_c, 10, 6918
20, 568479, Pitch_bend_c, 10, 6926
20, 568480, Pitch_bend_c, 10, 6934
20, 568480, Pitch_bend_c, 10, 6942
20, 568481, Pitch_bend_c, 10, 6950
20, 568481, Pitch_bend_c, 10, 6957
20, 568482, Pitch_bend_c, 10, 6965
20, 568482, Pitch_bend_c, 10, 6973
20, 568483, Pitch_bend_c, 10, 6981
20, 568483, Pitch_bend_c, 10, 6989
20, 568484, Pitch_bend_c, 10, 6997
20, 568484, Pitch_bend_c, 10, 7005
20, 568485, Pitch_bend_c, 10, 7012
20, 568485, Pitch_bend_c, 10, 7020
20, 568486, Pitch_bend_c, 10, 7028
20, 568486, Pitch_bend_c, 10, 7036
20, 568487, Pitch_bend_c, 10, 7044
20, 568487, Pitch_bend_c, 10, 7052
20, 568488, Pitch_bend_c, 10, 7060
20, 568488, Pitch_bend_c, 10, 7068
20, 568489, Pitch_bend_c, 10, 7075
20, 568489, Pitch_bend_c, 10, 7083
20, 568490, Pitch_bend_c, 10, 7091
20, 568490, Pitch_bend_c, 10, 7099
20, 568491, Pitch_bend_c, 10, 7107
20, 568491, Pitch_bend_c, 10, 7115
20, 568492, Pitch_bend_c, 10, 7123
20, 568492, Pitch_bend_c, 10, 7130
20, 568493, Pitch_bend_c, 10, 7138
20, 568493, Pitch_bend_c, 10, 7146
20, 568494, Pitch_bend_c, 10, 7154
20, 568494, Pitch_bend_c, 10, 7162
20, 568495, Pitch_bend_c, 10, 7170
20, 568495, Pitch_bend_c, 10, 7178
20, 568496, Pitch_bend_c, 10, 7186
20, 568496, Pitch_bend_c, 10, 7193
20, 568497, Pitch_bend_c, 10, 7201
20, 568497, Pitch_bend_c, 10, 7209
20, 568498, Pitch_bend_c, 10, 7217
20, 568498, Pitch_bend_c, 10, 7225
20, 568499, Pitch_bend_c, 10, 7233
20, 568499, Pitch_bend_c, 10, 7241
20, 568500, Pitch_bend_c, 10, 7248
20, 568500, Pitch_bend_c, 10, 7256
20, 568501, Pitch_bend_c, 10, 7264
20, 568501, Pitch_bend_c, 10, 7272
20, 568502, Pitch_bend_c, 10, 7280
20, 568502, Pitch_bend_c, 10, 7288
20, 568503, Pitch_bend_c, 10, 7296
20, 568503, Pitch_bend_c, 10, 7304
20, 568504, Pitch_bend_c, 10, 7311
20, 568504, Pitch_bend_c, 10, 7319
20, 568505, Pitch_bend_c, 10, 7327
20, 568505, Pitch_bend_c, 10, 7335
20, 568506, Pitch_bend_c, 10, 7343
20, 568506, Pitch_bend_c, 10, 7351
20, 568507, Pitch_bend_c, 10, 7359
20, 568507, Pitch_bend_c, 10, 7366
20, 568508, Pitch_bend_c, 10, 7374
20, 568508, Pitch_bend_c, 10, 7382
20, 568509, Pitch_bend_c, 10, 7390
20, 568509, Pitch_bend_c, 10, 7398
20, 568510, Pitch_bend_c, 10, 7406
20, 568510, Pitch_bend_c, 10, 7414
20, 568511, Pitch_bend_c, 10, 7422
20, 568511, Pitch_bend_c, 10, 7429
20, 568512, Pitch_bend_c, 10, 7437
20, 568512, Pitch_bend_c, 10, 7445
20, 568513, Pitch_bend_c, 10, 7453
20, 568513, Pitch_bend_c, 10, 7461
20, 568514, Pitch_bend_c, 10, 7469
20, 568514, Pitch_bend_c, 10, 7477
20, 568515, Pitch_bend_c, 10, 7484
20, 568515, Pitch_bend_c, 10, 7492
20, 568516, Pitch_bend_c, 10, 7500
20, 568516, Pitch_bend_c, 10, 7508
20, 568517, Pitch_bend_c, 10, 7516
20, 568517, Pitch_bend_c, 10, 7524
20, 568518, Pitch_bend_c, 10, 7532
20, 568518, Pitch_bend_c, 10, 7540
20, 568519, Pitch_bend_c, 10, 7547
20, 568519, Pitch_bend_c, 10, 7555
20, 568520, Pitch_bend_c, 10, 7563
20, 568520, Pitch_bend_c, 10, 7571
20, 568521, Pitch_bend_c, 10, 7579
20, 568521, Pitch_bend_c, 10, 7587
20, 568522, Pitch_bend_c, 10, 7595
20, 568522, Pitch_bend_c, 10, 7602
20, 568523, Pitch_bend_c, 10, 7610
20, 568523, Pitch_bend_c, 10, 7618
20, 568524, Pitch_bend_c, 10, 7626
20, 568524, Pitch_bend_c, 10, 7634
20, 568525, Pitch_bend_c, 10, 7642
20, 568525, Pitch_bend_c, 10, 7650
20, 568526, Pitch_bend_c, 10, 7658
20, 568526, Pitch_bend_c, 10, 7665
20, 568527, Pitch_bend_c, 10, 7673
20, 568527, Pitch_bend_c, 10, 7681
20, 568528, Pitch_bend_c, 10, 7689
20, 568528, Pitch_bend_c, 10, 7697
20, 568529, Pitch_bend_c, 10, 7705
20, 568529, Pitch_bend_c, 10, 7713
20, 568530, Pitch_bend_c, 10, 7720
20, 568530, Pitch_bend_c, 10, 7728
20, 568531, Pitch_bend_c, 10, 7736
20, 568531, Pitch_bend_c, 10, 7744
20, 568532, Pitch_bend_c, 10, 7752
20, 568532, Pitch_bend_c, 10, 7760
20, 568533, Pitch_bend_c, 10, 7768
20, 568533, Pitch_bend_c, 10, 7776
20, 568534, Pitch_bend_c, 10, 7783
20, 568534, Pitch_bend_c, 10, 7791
20, 568535, Pitch_bend_c, 10, 7799
20, 568535, Pitch_bend_c, 10, 7807
20, 568536, Pitch_bend_c, 10, 7815
20, 568536, Pitch_bend_c, 10, 7823
20, 568537, Pitch_bend_c, 10, 7831
20, 568537, Pitch_bend_c, 10, 7838
20, 568538, Pitch_bend_c, 10, 7846
20, 568538, Pitch_bend_c, 10, 7854
20, 568539, Pitch_bend_c, 10, 7862
20, 568539, Pitch_bend_c, 10, 7870
20, 568540, Pitch_bend_c, 10, 7878
20, 568540, Pitch_bend_c, 10, 7886
20, 568541, Pitch_bend_c, 10, 7894
20, 568541, Pitch_bend_c, 10, 7901
20, 568542, Pitch_bend_c, 10, 7909
20, 568542, Pitch_bend_c, 10, 7917
20, 568543, Pitch_bend_c, 10, 7925
20, 568543, Pitch_bend_c, 10, 7933
20, 568544, Pitch_bend_c, 10, 7941
20, 568544, Pitch_bend_c, 10, 7949
20, 568545, Pitch_bend_c, 10, 7956
20, 568545, Pitch_bend_c, 10, 7964
20, 568546, Pitch_bend_c, 10, 7972
20, 568546, Pitch_bend_c, 10, 7980
20, 568547, Pitch_bend_c, 10, 7988
20, 568547, Pitch_bend_c, 10, 7996
20, 568548, Pitch_bend_c, 10, 8004
20, 568548, Pitch_bend_c, 10, 8012
20, 568549, Pitch_bend_c, 10, 8019
20, 568549, Pitch_bend_c, 10, 8027
20, 568550, Pitch_bend_c, 10, 8035
20, 568550, Pitch_bend_c, 10, 8043
20, 568551, Pitch_bend_c, 10, 8051
20, 568551, Pitch_bend_c, 10, 8059
20, 568552, Pitch_bend_c, 10, 8067
20, 568552, Pitch_bend_c, 10, 8074
20, 568553, Pitch_bend_c, 10, 8082
20, 568553, Pitch_bend_c, 10, 8090
20, 568554, Pitch_bend_c, 10, 8098
20, 568554, Pitch_bend_c, 10, 8106
20, 568555, Pitch_bend_c, 10, 8114
20, 568555, Pitch_bend_c, 10, 8122
20, 568556, Pitch_bend_c, 10, 8130
20, 568556, Pitch_bend_c, 10, 8137
20, 568557, Pitch_bend_c, 10, 8145
20, 568557, Pitch_bend_c, 10, 8153
20, 568558, Pitch_bend_c, 10, 8161
20, 568558, Pitch_bend_c, 10, 8169
20, 568559, Pitch_bend_c, 10, 8177
20, 568559, Pitch_bend_c, 10, 8185
20, 568560, Pitch_bend_c, 10, 8192
20, 568562, Note_on_c, 10, 51, 0
20, 570720, Pitch_bend_c, 10, 4416
20, 570720, Pitch_bend_c, 10, 4424
20, 570721, Pitch_bend_c, 10, 4432
20, 570721, Pitch_bend_c, 10, 4440
20, 570722, Pitch_bend_c, 10, 4448
20, 570722, Pitch_bend_c, 10, 4456
20, 570723, Pitch_bend_c, 10, 4464
20, 570723, Pitch_bend_c, 10, 4472
20, 570724, Pitch_bend_c, 10, 4479
20, 570724, Pitch_bend_c, 10, 4487
20, 570725, Pitch_bend_c, 10, 4495
20, 570725, Pitch_bend_c, 10, 4503
20, 570726, Pitch_bend_c, 10, 4511
20, 570726, Pitch_bend_c, 10, 4519
20, 570727, Pitch_bend_c, 10, 4527
20, 570727, Pitch_bend_c, 10, 4534
20, 570728, Pitch_bend_c, 10, 4542
20, 570728, Pitch_bend_c, 10, 4550
20, 570729, Pitch_bend_c, 10, 4558
20, 570729, Pitch_bend_c, 10, 4566
20, 570730, Pitch_bend_c, 10, 4574
20, 570730, Pitch_bend_c, 10, 4582
20, 570731, Pitch_bend_c, 10, 4590
20, 570731, Pitch_bend_c, 10, 4597
20, 570732, Pitch_bend_c, 10, 4605
20, 570732, Pitch_bend_c, 10, 4613
20, 570733, Pitch_bend_c, 10, 4621
20, 570733, Pitch_bend_c, 10, 4629
20, 570734, Pitch_bend_c, 10, 4637
20, 570734, Pitch_bend_c, 10, 4645
20, 570735, Pitch_bend_c, 10, 4652
20, 570735, Pitch_bend_c, 10, 4660
20, 570736, Pitch_bend_c, 10, 4668
20, 570736, Pitch_bend_c, 10, 4676
20, 570737, Pitch_bend_c, 10, 4684
20, 570737, Pitch_bend_c, 10, 4692
20, 570738, Pitch_bend_c, 10, 4700
20, 570738, Pitch_bend_c, 10, 4708
20, 570739, Pitch_bend_c, 10, 4715
20, 570739, Pitch_bend_c, 10, 4723
20, 570740, Pitch_bend_c, 10, 4731
20, 570740, Note_on_c, 10, 51, 84
20, 570740, Pitch_bend_c, 10, 4739
20, 570741, Pitch_bend_c, 10, 4747
20, 570741, Pitch_bend_c, 10, 4755
20, 570742, Pitch_bend_c, 10, 4763
20, 570742, Pitch_bend_c, 10, 4770
20, 570743, Pitch_bend_c, 10, 4778
20, 570743, Pitch_bend_c, 10, 4786
20, 570744, Pitch_bend_c, 10, 4794
20, 570744, Pitch_bend_c, 10, 4802
20, 570745, Pitch_bend_c, 10, 4810
20, 570745, Pitch_bend_c, 10, 4818
20, 570746, Pitch_bend_c, 10, 4826
20, 570746, Pitch_bend_c, 10, 4833
20, 570747, Pitch_bend_c, 10, 4841
20, 570747, Pitch_bend_c, 10, 4849
20, 570748, Pitch_bend_c, 10, 4857
20, 570748, Pitch_bend_c, 10, 4865
20, 570749, Pitch_bend_c, 10, 4873
20, 570749, Pitch_bend_c, 10, 4881
20, 570750, Pitch_bend_c, 10, 4888
20, 570750, Pitch_bend_c, 10, 4896
20, 570751, Pitch_bend_c, 10, 4904
20, 570751, Pitch_bend_c, 10, 4912
20, 570752, Pitch_bend_c, 10, 4920
20, 570752, Pitch_bend_c, 10, 4928
20, 570753, Pitch_bend_c, 10, 4936
20, 570753, Pitch_bend_c, 10, 4944
20, 570754, Pitch_bend_c, 10, 4951
20, 570754, Pitch_bend_c, 10, 4959
20, 570755, Pitch_bend_c, 10, 4967
20, 570755, Pitch_bend_c, 10, 4975
20, 570756, Pitch_bend_c, 10, 4983
20, 570756, Pitch_bend_c, 10, 4991
20, 570757, Pitch_bend_c, 10, 4999
20, 570757, Pitch_bend_c, 10, 5006
20, 570758, Pitch_bend_c, 10, 5014
20, 570758, Pitch_bend_c, 10, 5022
20, 570759, Pitch_bend_c, 10, 5030
20, 570759, Pitch_bend_c, 10, 5038
20, 570760, Pitch_bend_c, 10, 5046
20, 570760, Pitch_bend_c, 10, 5054
20, 570761, Pitch_bend_c, 10, 5062
20, 570761, Pitch_bend_c, 10, 5069
20, 570762, Pitch_bend_c, 10, 5077
20, 570762, Pitch_bend_c, 10, 5085
20, 570763, Pitch_bend_c, 10, 5093
20, 570763, Pitch_bend_c, 10, 5101
20, 570764, Pitch_bend_c, 10, 5109
20, 570764, Pitch_bend_c, 10, 5117
20, 570765, Pitch_bend_c, 10, 5124
20, 570765, Pitch_bend_c, 10, 5132
20, 570766, Pitch_bend_c, 10, 5140
20, 570766, Pitch_bend_c, 10, 5148
20, 570767, Pitch_bend_c, 10, 5156
20, 570767, Pitch_bend_c, 10, 5164
20, 570768, Pitch_bend_c, 10, 5172
20, 570768, Pitch_bend_c, 10, 5180
20, 570769, Pitch_bend_c, 10, 5187
20, 570769, Pitch_bend_c, 10, 5195
20, 570770, Pitch_bend_c, 10, 5203
20, 570770, Pitch_bend_c, 10, 5211
20, 570771, Pitch_bend_c, 10, 5219
20, 570771, Pitch_bend_c, 10, 5227
20, 570772, Pitch_bend_c, 10, 5235
20, 570772, Pitch_bend_c, 10, 5242
20, 570773, Pitch_bend_c, 10, 5250
20, 570773, Pitch_bend_c, 10, 5258
20, 570774, Pitch_bend_c, 10, 5266
20, 570774, Pitch_bend_c, 10, 5274
20, 570775, Pitch_bend_c, 10, 5282
20, 570775, Pitch_bend_c, 10, 5290
20, 570776, Pitch_bend_c, 10, 5298
20, 570776, Pitch_bend_c, 10, 5305
20, 570777, Pitch_bend_c, 10, 5313
20, 570777, Pitch_bend_c, 10, 5321
20, 570778, Pitch_bend_c, 10, 5329
20, 570778, Pitch_bend_c, 10, 5337
20, 570779, Pitch_bend_c, 10, 5345
20, 570779, Pitch_bend_c, 10, 5353
20, 570780, Pitch_bend_c, 10, 5360
20, 570780, Pitch_bend_c, 10, 5368
20, 570781, Pitch_bend_c, 10, 5376
20, 570781, Pitch_bend_c, 10, 5384
20, 570782, Pitch_bend_c, 10, 5392
20, 570782, Pitch_bend_c, 10, 5400
20, 570783, Pitch_bend_c, 10, 5408
20, 570783, Pitch_bend_c, 10, 5416
20, 570784, Pitch_bend_c, 10, 5423
20, 570784, Pitch_bend_c, 10, 5431
20, 570785, Pitch_bend_c, 10, 5439
20, 570785, Pitch_bend_c, 10, 5447
20, 570786, Pitch_bend_c, 10, 5455
20, 570786, Pitch_bend_c, 10, 5463
20, 570787, Pitch_bend_c, 10, 5471
20, 570787, Pitch_bend_c, 10, 5478
20, 570788, Pitch_bend_c, 10, 5486
20, 570788, Pitch_bend_c, 10, 5494
20, 570789, Pitch_bend_c, 10, 5502
20, 570789, Pitch_bend_c, 10, 5510
20, 570790, Pitch_bend_c, 10, 5518
20, 570790, Pitch_bend_c, 10, 5526
20, 570791, Pitch_bend_c, 10, 5534
20, 570791, Pitch_bend_c, 10, 5541
20, 570792, Pitch_bend_c, 10, 5549
20, 570792, Pitch_bend_c, 10, 5557
20, 570793, Pitch_bend_c, 10, 5565
20, 570793, Pitch_bend_c, 10, 5573
20, 570794, Pitch_bend_c, 10, 5581
20, 570794, Pitch_bend_c, 10, 5589
20, 570795, Pitch_bend_c, 10, 5596
20, 570795, Pitch_bend_c, 10, 5604
20, 570796, Pitch_bend_c, 10, 5612
20, 570796, Pitch_bend_c, 10, 5620
20, 570797, Pitch_bend_c, 10, 5628
20, 570797, Pitch_bend_c, 10, 5636
20, 570798, Pitch_bend_c, 10, 5644
20, 570798, Pitch_bend_c, 10, 5652
20, 570799, Pitch_bend_c, 10, 5659
20, 570799, Pitch_bend_c, 10, 5667
20, 570800, Pitch_bend_c, 10, 5675
20, 570800, Pitch_bend_c, 10, 5683
20, 570801, Pitch_bend_c, 10, 5691
20, 570801, Pitch_bend_c, 10, 5699
20, 570802, Pitch_bend_c, 10, 5707
20, 570802, Pitch_bend_c, 10, 5714
20, 570803, Pitch_bend_c, 10, 5722
20, 570803, Pitch_bend_c, 10, 5730
20, 570804, Pitch_bend_c, 10, 5738
20, 570804, Pitch_bend_c, 10, 5746
20, 570805, Pitch_bend_c, 10, 5754
20, 570805, Pitch_bend_c, 10, 5762
20, 570806, Pitch_bend_c, 10, 5770
20, 570806, Pitch_bend_c, 10, 5777
20, 570807, Pitch_bend_c, 10, 5785
20, 570807, Pitch_bend_c, 10, 5793
20, 570808, Pitch_bend_c, 10, 5801
20, 570808, Pitch_bend_c, 10, 5809
20, 570809, Pitch_bend_c, 10, 5817
20, 570809, Pitch_bend_c, 10, 5825
20, 570810, Pitch_bend_c, 10, 5832
20, 570810, Pitch_bend_c, 10, 5840
20, 570811, Pitch_bend_c, 10, 5848
20, 570811, Pitch_bend_c, 10, 5856
20, 570812, Pitch_bend_c, 10, 5864
20, 570812, Pitch_bend_c, 10, 5872
20, 570813, Pitch_bend_c, 10, 5880
20, 570813, Pitch_bend_c, 10, 5888
20, 570814, Pitch_bend_c, 10, 5895
20, 570814, Pitch_bend_c, 10, 5903
20, 570815, Pitch_bend_c, 10, 5911
20, 570815, Pitch_bend_c, 10, 5919
20, 570816, Pitch_bend_c, 10, 5927
20, 570816, Pitch_bend_c, 10, 5935
20, 570817, Pitch_bend_c, 10, 5943
20, 570817, Pitch_bend_c, 10, 5950
20, 570818, Pitch_bend_c, 10, 5958
20, 570818, Pitch_bend_c, 10, 5966
20, 570819, Pitch_bend_c, 10, 5974
20, 570819, Pitch_bend_c, 10, 5982
20, 570820, Pitch_bend_c, 10, 5990
20, 570820, Pitch_bend_c, 10, 5998
20, 570821, Pitch_bend_c, 10, 6006
20, 570821, Pitch_bend_c, 10, 6013
20, 570822, Pitch_bend_c, 10, 6021
20, 570822, Pitch_bend_c, 10, 6029
20, 570823, Pitch_bend_c, 10, 6037
20, 570823, Pitch_bend_c, 10, 6045
20, 570824, Pitch_bend_c, 10, 6053
20, 570824, Pitch_bend_c, 10, 6061
20, 570825, Pitch_bend_c, 10, 6068
20, 570825, Pitch_bend_c, 10, 6076
20, 570826, Pitch_bend_c, 10, 6084
20, 570826, Pitch_bend_c, 10, 6092
20, 570827, Pitch_bend_c, 10, 6100
20, 570827, Pitch_bend_c, 10, 6108
20, 570828, Pitch_bend_c, 10, 6116
20, 570828, Pitch_bend_c, 10, 6124
20, 570829, Pitch_bend_c, 10, 6131
20, 570829, Pitch_bend_c, 10, 6139
20, 570830, Pitch_bend_c, 10, 6147
20, 570830, Pitch_bend_c, 10, 6155
20, 570831, Pitch_bend_c, 10, 6163
20, 570831, Pitch_bend_c, 10, 6171
20, 570832, Pitch_bend_c, 10, 6179
20, 570832, Pitch_bend_c, 10, 6186
20, 570833, Pitch_bend_c, 10, 6194
20, 570833, Pitch_bend_c, 10, 6202
20, 570834, Pitch_bend_c, 10, 6210
20, 570834, Pitch_bend_c, 10, 6218
20, 570835, Pitch_bend_c, 10, 6226
20, 570835, Pitch_bend_c, 10, 6234
20, 570836, Pitch_bend_c, 10, 6242
20, 570836, Pitch_bend_c, 10, 6249
20, 570837, Pitch_bend_c, 10, 6257
20, 570837, Pitch_bend_c, 10, 6265
20, 570838, Pitch_bend_c, 10, 6273
20, 570838, Pitch_bend_c, 10, 6281
20, 570839, Pitch_bend_c, 10, 6289
20, 570839, Pitch_bend_c, 10, 6297
20, 570840, Pitch_bend_c, 10, 6304
20, 570840, Pitch_bend_c, 10, 6312
20, 570841, Pitch_bend_c, 10, 6320
20, 570841, Pitch_bend_c, 10, 6328
20, 570842, Pitch_bend_c, 10, 6336
20, 570842, Pitch_bend_c, 10, 6344
20, 570843, Pitch_bend_c, 10, 6352
20, 570843, Pitch_bend_c, 10, 6360
20, 570844, Pitch_bend_c, 10, 6367
20, 570844, Pitch_bend_c, 10, 6375
20, 570845, Pitch_bend_c, 10, 6383
20, 570845, Pitch_bend_c, 10, 6391
20, 570846, Pitch_bend_c, 10, 6399
20, 570846, Pitch_bend_c, 10, 6407
20, 570847, Pitch_bend_c, 10, 6415
20, 570847, Pitch_bend_c, 10, 6422
20, 570848, Pitch_bend_c, 10, 6430
20, 570848, Pitch_bend_c, 10, 6438
20, 570849, Pitch_bend_c, 10, 6446
20, 570849, Pitch_bend_c, 10, 6454
20, 570850, Pitch_bend_c, 10, 6462
20, 570850, Pitch_bend_c, 10, 6470
20, 570851, Pitch_bend_c, 10, 6478
20, 570851, Pitch_bend_c, 10, 6485
20, 570852, Pitch_bend_c, 10, 6493
20, 570852, Pitch_bend_c, 10, 6501
20, 570853, Pitch_bend_c, 10, 6509
20, 570853, Pitch_bend_c, 10, 6517
20, 570854, Pitch_bend_c, 10, 6525
20, 570854, Pitch_bend_c, 10, 6533
20, 570855, Pitch_bend_c, 10, 6540
20, 570855, Pitch_bend_c, 10, 6548
20, 570856, Pitch_bend_c, 10, 6556
20, 570856, Pitch_bend_c, 10, 6564
20, 570857, Pitch_bend_c, 10, 6572
20, 570857, Pitch_bend_c, 10, 6580
20, 570858, Pitch_bend_c, 10, 6588
20, 570858, Pitch_bend_c, 10, 6596
20, 570859, Pitch_bend_c, 10, 6603
20, 570859, Pitch_bend_c, 10, 6611
20, 570860, Pitch_bend_c, 10, 6619
20, 570860, Pitch_bend_c, 10, 6627
20, 570861, Pitch_bend_c, 10, 6635
20, 570861, Pitch_bend_c, 10, 6643
20, 570862, Pitch_bend_c, 10, 6651
20, 570862, Pitch_bend_c, 10, 6658
20, 570863, Pitch_bend_c, 10, 6666
20, 570863, Pitch_bend_c, 10, 6674
20, 570864, Pitch_bend_c, 10, 6682
20, 570864, Pitch_bend_c, 10, 6690
20, 570865, Pitch_bend_c, 10, 6698
20, 570865, Pitch_bend_c, 10, 6706
20, 570866, Pitch_bend_c, 10, 6714
20, 570866, Pitch_bend_c, 10, 6721
20, 570867, Pitch_bend_c, 10, 6729
20, 570867, Pitch_bend_c, 10, 6737
20, 570868, Pitch_bend_c, 10, 6745
20, 570868, Pitch_bend_c, 10, 6753
20, 570869, Pitch_bend_c, 10, 6761
20, 570869, Pitch_bend_c, 10, 6769
20, 570870, Pitch_bend_c, 10, 6776
20, 570870, Pitch_bend_c, 10, 6784
20, 570871, Pitch_bend_c, 10, 6792
20, 570871, Pitch_bend_c, 10, 6800
20, 570872, Pitch_bend_c, 10, 6808
20, 570872, Pitch_bend_c, 10, 6816
20, 570873, Pitch_bend_c, 10, 6824
20, 570873, Pitch_bend_c, 10, 6832
20, 570874, Pitch_bend_c, 10, 6839
20, 570874, Pitch_bend_c, 10, 6847
20, 570875, Pitch_bend_c, 10, 6855
20, 570875, Pitch_bend_c, 10, 6863
20, 570876, Pitch_bend_c, 10, 6871
20, 570876, Pitch_bend_c, 10, 6879
20, 570877, Pitch_bend_c, 10, 6887
20, 570877, Pitch_bend_c, 10, 6894
20, 570878, Pitch_bend_c, 10, 6902
20, 570878, Pitch_bend_c, 10, 6910
20, 570879, Pitch_bend_c, 10, 6918
20, 570879, Pitch_bend_c, 10, 6926
20, 570880, Pitch_bend_c, 10, 6934
20, 570880, Pitch_bend_c, 10, 6942
20, 570881, Pitch_bend_c, 10, 6950
20, 570881, Pitch_bend_c, 10, 6957
20, 570882, Pitch_bend_c, 10, 6965
20, 570882, Pitch_bend_c, 10, 6973
20, 570883, Pitch_bend_c, 10, 6981
20, 570883, Pitch_bend_c, 10, 6989
20, 570884, Pitch_bend_c, 10, 6997
20, 570884, Pitch_bend_c, 10, 7005
20, 570885, Pitch_bend_c, 10, 7012
20, 570885, Pitch_bend_c, 10, 7020
20, 570886, Pitch_bend_c, 10, 7028
20, 570886, Pitch_bend_c, 10, 7036
20, 570887, Pitch_bend_c, 10, 7044
20, 570887, Pitch_bend_c, 10, 7052
20, 570888, Pitch_bend_c, 10, 7060
20, 570888, Pitch_bend_c, 10, 7068
20, 570889, Pitch_bend_c, 10, 7075
20, 570889, Pitch_bend_c, 10, 7083
20, 570890, Pitch_bend_c, 10, 7091
20, 570890, Pitch_bend_c, 10, 7099
20, 570891, Pitch_bend_c, 10, 7107
20, 570891, Pitch_bend_c, 10, 7115
20, 570892, Pitch_bend_c, 10, 7123
20, 570892, Pitch_bend_c, 10, 7130
20, 570893, Pitch_bend_c, 10, 7138
20, 570893, Pitch_bend_c, 10, 7146
20, 570894, Pitch_bend_c, 10, 7154
20, 570894, Pitch_bend_c, 10, 7162
20, 570895, Pitch_bend_c, 10, 7170
20, 570895, Pitch_bend_c, 10, 7178
20, 570896, Pitch_bend_c, 10, 7186
20, 570896, Pitch_bend_c, 10, 7193
20, 570897, Pitch_bend_c, 10, 7201
20, 570897, Pitch_bend_c, 10, 7209
20, 570898, Pitch_bend_c, 10, 7217
20, 570898, Pitch_bend_c, 10, 7225
20, 570899, Pitch_bend_c, 10, 7233
20, 570899, Pitch_bend_c, 10, 7241
20, 570900, Pitch_bend_c, 10, 7248
20, 570900, Pitch_bend_c, 10, 7256
20, 570901, Pitch_bend_c, 10, 7264
20, 570901, Pitch_bend_c, 10, 7272
20, 570902, Pitch_bend_c, 10, 7280
20, 570902, Pitch_bend_c, 10, 7288
20, 570903, Pitch_bend_c, 10, 7296
20, 570903, Pitch_bend_c, 10, 7304
20, 570904, Pitch_bend_c, 10, 7311
20, 570904, Pitch_bend_c, 10, 7319
20, 570905, Pitch_bend_c, 10, 7327
20, 570905, Pitch_bend_c, 10, 7335
20, 570906, Pitch_bend_c, 10, 7343
20, 570906, Pitch_bend_c, 10, 7351
20, 570907, Pitch_bend_c, 10, 7359
20, 570907, Pitch_bend_c, 10, 7366
20, 570908, Pitch_bend_c, 10, 7374
20, 570908, Pitch_bend_c, 10, 7382
20, 570909, Pitch_bend_c, 10, 7390
20, 570909, Pitch_bend_c, 10, 7398
20, 570910, Pitch_bend_c, 10, 7406
20, 570910, Pitch_bend_c, 10, 7414
20, 570911, Pitch_bend_c, 10, 7422
20, 570911, Pitch_bend_c, 10, 7429
20, 570912, Pitch_bend_c, 10, 7437
20, 570912, Pitch_bend_c, 10, 7445
20, 570913, Pitch_bend_c, 10, 7453
20, 570913, Pitch_bend_c, 10, 7461
20, 570914, Pitch_bend_c, 10, 7469
20, 570914, Pitch_bend_c, 10, 7477
20, 570915, Pitch_bend_c, 10, 7484
20, 570915, Pitch_bend_c, 10, 7492
20, 570916, Pitch_bend_c, 10, 7500
20, 570916, Pitch_bend_c, 10, 7508
20, 570917, Pitch_bend_c, 10, 7516
20, 570917, Pitch_bend_c, 10, 7524
20, 570918, Pitch_bend_c, 10, 7532
20, 570918, Pitch_bend_c, 10, 7540
20, 570919, Pitch_bend_c, 10, 7547
20, 570919, Pitch_bend_c, 10, 7555
20, 570920, Pitch_bend_c, 10, 7563
20, 570920, Pitch_bend_c, 10, 7571
20, 570921, Pitch_bend_c, 10, 7579
20, 570921, Pitch_bend_c, 10, 7587
20, 570922, Pitch_bend_c, 10, 7595
20, 570922, Pitch_bend_c, 10, 7602
20, 570923, Pitch_bend_c, 10, 7610
20, 570923, Pitch_bend_c, 10, 7618
20, 570924, Pitch_bend_c, 10, 7626
20, 570924, Pitch_bend_c, 10, 7634
20, 570925, Pitch_bend_c, 10, 7642
20, 570925, Pitch_bend_c, 10, 7650
20, 570926, Pitch_bend_c, 10, 7658
20, 570926, Pitch_bend_c, 10, 7665
20, 570927, Pitch_bend_c, 10, 7673
20, 570927, Pitch_bend_c, 10, 7681
20, 570928, Pitch_bend_c, 10, 7689
20, 570928, Pitch_bend_c, 10, 7697
20, 570929, Pitch_bend_c, 10, 7705
20, 570929, Pitch_bend_c, 10, 7713
20, 570930, Pitch_bend_c, 10, 7720
20, 570930, Pitch_bend_c, 10, 7728
20, 570931, Pitch_bend_c, 10, 7736
20, 570931, Pitch_bend_c, 10, 7744
20, 570932, Pitch_bend_c, 10, 7752
20, 570932, Pitch_bend_c, 10, 7760
20, 570933, Pitch_bend_c, 10, 7768
20, 570933, Pitch_bend_c, 10, 7776
20, 570934, Pitch_bend_c, 10, 7783
20, 570934, Pitch_bend_c, 10, 7791
20, 570935, Pitch_bend_c, 10, 7799
20, 570935, Pitch_bend_c, 10, 7807
20, 570936, Pitch_bend_c, 10, 7815
20, 570936, Pitch_bend_c, 10, 7823
20, 570937, Pitch_bend_c, 10, 7831
20, 570937, Pitch_bend_c, 10, 7838
20, 570938, Pitch_bend_c, 10, 7846
20, 570938, Pitch_bend_c, 10, 7854
20, 570939, Pitch_bend_c, 10, 7862
20, 570939, Pitch_bend_c, 10, 7870
20, 570940, Pitch_bend_c, 10, 7878
20, 570940, Pitch_bend_c, 10, 7886
20, 570941, Pitch_bend_c, 10, 7894
20, 570941, Pitch_bend_c, 10, 7901
20, 570942, Pitch_bend_c, 10, 7909
20, 570942, Pitch_bend_c, 10, 7917
20, 570943, Pitch_bend_c, 10, 7925
20, 570943, Pitch_bend_c, 10, 7933
20, 570944, Pitch_bend_c, 10, 7941
20, 570944, Pitch_bend_c, 10, 7949
20, 570945, Pitch_bend_c, 10, 7956
20, 570945, Pitch_bend_c, 10, 7964
20, 570946, Pitch_bend_c, 10, 7972
20, 570946, Pitch_bend_c, 10, 7980
20, 570947, Pitch_bend_c, 10, 7988
20, 570947, Pitch_bend_c, 10, 7996
20, 570948, Pitch_bend_c, 10, 8004
20, 570948, Pitch_bend_c, 10, 8012
20, 570949, Pitch_bend_c, 10, 8019
20, 570949, Pitch_bend_c, 10, 8027
20, 570950, Pitch_bend_c, 10, 8035
20, 570950, Pitch_bend_c, 10, 8043
20, 570951, Pitch_bend_c, 10, 8051
20, 570951, Pitch_bend_c, 10, 8059
20, 570952, Pitch_bend_c, 10, 8067
20, 570952, Pitch_bend_c, 10, 8074
20, 570953, Pitch_bend_c, 10, 8082
20, 570953, Pitch_bend_c, 10, 8090
20, 570954, Pitch_bend_c, 10, 8098
20, 570954, Pitch_bend_c, 10, 8106
20, 570955, Pitch_bend_c, 10, 8114
20, 570955, Pitch_bend_c, 10, 8122
20, 570956, Pitch_bend_c, 10, 8130
20, 570956, Pitch_bend_c, 10, 8137
20, 570957, Pitch_bend_c, 10, 8145
20, 570957, Pitch_bend_c, 10, 8153
20, 570958, Pitch_bend_c, 10, 8161
20, 570958, Pitch_bend_c, 10, 8169
20, 570959, Pitch_bend_c, 10, 8177
20, 570959, Pitch_bend_c, 10, 8185
20, 570960, Pitch_bend_c, 10, 8192
20, 570980, Note_on_c, 10, 51, 0
20, 572160, Pitch_bend_c, 10, 4416
20, 572160, Pitch_bend_c, 10, 4424
20, 572161, Pitch_bend_c, 10, 4432
20, 572161, Pitch_bend_c, 10, 4440
20, 572162, Pitch_bend_c, 10, 4448
20, 572162, Pitch_bend_c, 10, 4456
20, 572163, Pitch_bend_c, 10, 4464
20, 572163, Pitch_bend_c, 10, 4472
20, 572164, Note_on_c, 10, 51, 92
20, 572164, Pitch_bend_c, 10, 4479
20, 572164, Pitch_bend_c, 10, 4487
20, 572165, Pitch_bend_c, 10, 4495
20, 572165, Pitch_bend_c, 10, 4503
20, 572166, Pitch_bend_c, 10, 4511
20, 572166, Pitch_bend_c, 10, 4519
20, 572167, Pitch_bend_c, 10, 4527
20, 572167, Pitch_bend_c, 10, 4534
20, 572168, Pitch_bend_c, 10, 4542
20, 572168, Pitch_bend_c, 10, 4550
20, 572169, Pitch_bend_c, 10, 4558
20, 572169, Pitch_bend_c, 10, 4566
20, 572170, Pitch_bend_c, 10, 4574
20, 572170, Pitch_bend_c, 10, 4582
20, 572171, Pitch_bend_c, 10, 4590
20, 572171, Pitch_bend_c, 10, 4597
20, 572172, Pitch_bend_c, 10, 4605
20, 572172, Pitch_bend_c, 10, 4613
20, 572173, Pitch_bend_c, 10, 4621
20, 572173, Pitch_bend_c, 10, 4629
20, 572174, Pitch_bend_c, 10, 4637
20, 572174, Pitch_bend_c, 10, 4645
20, 572175, Pitch_bend_c, 10, 4652
20, 572175, Pitch_bend_c, 10, 4660
20, 572176, Pitch_bend_c, 10, 4668
20, 572176, Pitch_bend_c, 10, 4676
20, 572177, Pitch_bend_c, 10, 4684
20, 572177, Pitch_bend_c, 10, 4692
20, 572178, Pitch_bend_c, 10, 4700
20, 572178, Pitch_bend_c, 10, 4708
20, 572179, Pitch_bend_c, 10, 4715
20, 572179, Pitch_bend_c, 10, 4723
20, 572180, Pitch_bend_c, 10, 4731
20, 572180, Pitch_bend_c, 10, 4739
20, 572181, Pitch_bend_c, 10, 4747
20, 572181, Pitch_bend_c, 10, 4755
20, 572182, Pitch_bend_c, 10, 4763
20, 572182, Pitch_bend_c, 10, 4770
20, 572183, Pitch_bend_c, 10, 4778
20, 572183, Pitch_bend_c, 10, 4786
20, 572184, Pitch_bend_c, 10, 4794
20, 572184, Pitch_bend_c, 10, 4802
20, 572185, Pitch_bend_c, 10, 4810
20, 572185, Pitch_bend_c, 10, 4818
20, 572186, Pitch_bend_c, 10, 4826
20, 572186, Pitch_bend_c, 10, 4833
20, 572187, Pitch_bend_c, 10, 4841
20, 572187, Pitch_bend_c, 10, 4849
20, 572188, Pitch_bend_c, 10, 4857
20, 572188, Pitch_bend_c, 10, 4865
20, 572189, Pitch_bend_c, 10, 4873
20, 572189, Pitch_bend_c, 10, 4881
20, 572190, Pitch_bend_c, 10, 4888
20, 572190, Pitch_bend_c, 10, 4896
20, 572191, Pitch_bend_c, 10, 4904
20, 572191, Pitch_bend_c, 10, 4912
20, 572192, Pitch_bend_c, 10, 4920
20, 572192, Pitch_bend_c, 10, 4928
20, 572193, Pitch_bend_c, 10, 4936
20, 572193, Pitch_bend_c, 10, 4944
20, 572194, Pitch_bend_c, 10, 4951
20, 572194, Pitch_bend_c, 10, 4959
20, 572195, Pitch_bend_c, 10, 4967
20, 572195, Pitch_bend_c, 10, 4975
20, 572196, Pitch_bend_c, 10, 4983
20, 572196, Pitch_bend_c, 10, 4991
20, 572197, Pitch_bend_c, 10, 4999
20, 572197, Pitch_bend_c, 10, 5006
20, 572198, Pitch_bend_c, 10, 5014
20, 572198, Pitch_bend_c, 10, 5022
20, 572199, Pitch_bend_c, 10, 5030
20, 572199, Pitch_bend_c, 10, 5038
20, 572200, Pitch_bend_c, 10, 5046
20, 572200, Pitch_bend_c, 10, 5054
20, 572201, Pitch_bend_c, 10, 5062
20, 572201, Pitch_bend_c, 10, 5069
20, 572202, Pitch_bend_c, 10, 5077
20, 572202, Pitch_bend_c, 10, 5085
20, 572203, Pitch_bend_c, 10, 5093
20, 572203, Pitch_bend_c, 10, 5101
20, 572204, Pitch_bend_c, 10, 5109
20, 572204, Pitch_bend_c, 10, 5117
20, 572205, Pitch_bend_c, 10, 5124
20, 572205, Pitch_bend_c, 10, 5132
20, 572206, Pitch_bend_c, 10, 5140
20, 572206, Pitch_bend_c, 10, 5148
20, 572207, Pitch_bend_c, 10, 5156
20, 572207, Pitch_bend_c, 10, 5164
20, 572208, Pitch_bend_c, 10, 5172
20, 572208, Pitch_bend_c, 10, 5180
20, 572209, Pitch_bend_c, 10, 5187
20, 572209, Pitch_bend_c, 10, 5195
20, 572210, Pitch_bend_c, 10, 5203
20, 572210, Pitch_bend_c, 10, 5211
20, 572211, Pitch_bend_c, 10, 5219
20, 572211, Pitch_bend_c, 10, 5227
20, 572212, Pitch_bend_c, 10, 5235
20, 572212, Pitch_bend_c, 10, 5242
20, 572213, Pitch_bend_c, 10, 5250
20, 572213, Pitch_bend_c, 10, 5258
20, 572214, Pitch_bend_c, 10, 5266
20, 572214, Pitch_bend_c, 10, 5274
20, 572215, Pitch_bend_c, 10, 5282
20, 572215, Pitch_bend_c, 10, 5290
20, 572216, Pitch_bend_c, 10, 5298
20, 572216, Pitch_bend_c, 10, 5305
20, 572217, Pitch_bend_c, 10, 5313
20, 572217, Pitch_bend_c, 10, 5321
20, 572218, Pitch_bend_c, 10, 5329
20, 572218, Pitch_bend_c, 10, 5337
20, 572219, Pitch_bend_c, 10, 5345
20, 572219, Pitch_bend_c, 10, 5353
20, 572220, Pitch_bend_c, 10, 5360
20, 572220, Pitch_bend_c, 10, 5368
20, 572221, Pitch_bend_c, 10, 5376
20, 572221, Pitch_bend_c, 10, 5384
20, 572222, Pitch_bend_c, 10, 5392
20, 572222, Pitch_bend_c, 10, 5400
20, 572223, Pitch_bend_c, 10, 5408
20, 572223, Pitch_bend_c, 10, 5416
20, 572224, Pitch_bend_c, 10, 5423
20, 572224, Pitch_bend_c, 10, 5431
20, 572225, Pitch_bend_c, 10, 5439
20, 572225, Pitch_bend_c, 10, 5447
20, 572226, Pitch_bend_c, 10, 5455
20, 572226, Pitch_bend_c, 10, 5463
20, 572227, Pitch_bend_c, 10, 5471
20, 572227, Pitch_bend_c, 10, 5478
20, 572228, Pitch_bend_c, 10, 5486
20, 572228, Pitch_bend_c, 10, 5494
20, 572229, Pitch_bend_c, 10, 5502
20, 572229, Pitch_bend_c, 10, 5510
20, 572230, Pitch_bend_c, 10, 5518
20, 572230, Pitch_bend_c, 10, 5526
20, 572231, Pitch_bend_c, 10, 5534
20, 572231, Pitch_bend_c, 10, 5541
20, 572232, Pitch_bend_c, 10, 5549
20, 572232, Pitch_bend_c, 10, 5557
20, 572233, Pitch_bend_c, 10, 5565
20, 572233, Pitch_bend_c, 10, 5573
20, 572234, Pitch_bend_c, 10, 5581
20, 572234, Pitch_bend_c, 10, 5589
20, 572235, Pitch_bend_c, 10, 5596
20, 572235, Pitch_bend_c, 10, 5604
20, 572236, Pitch_bend_c, 10, 5612
20, 572236, Pitch_bend_c, 10, 5620
20, 572237, Pitch_bend_c, 10, 5628
20, 572237, Pitch_bend_c, 10, 5636
20, 572238, Pitch_bend_c, 10, 5644
20, 572238, Pitch_bend_c, 10, 5652
20, 572239, Pitch_bend_c, 10, 5659
20, 572239, Pitch_bend_c, 10, 5667
20, 572240, Pitch_bend_c, 10, 5675
20, 572240, Pitch_bend_c, 10, 5683
20, 572241, Pitch_bend_c, 10, 5691
20, 572241, Pitch_bend_c, 10, 5699
20, 572242, Pitch_bend_c, 10, 5707
20, 572242, Pitch_bend_c, 10, 5714
20, 572243, Pitch_bend_c, 10, 5722
20, 572243, Pitch_bend_c, 10, 5730
20, 572244, Pitch_bend_c, 10, 5738
20, 572244, Pitch_bend_c, 10, 5746
20, 572245, Pitch_bend_c, 10, 5754
20, 572245, Pitch_bend_c, 10, 5762
20, 572246, Pitch_bend_c, 10, 5770
20, 572246, Pitch_bend_c, 10, 5777
20, 572247, Pitch_bend_c, 10, 5785
20, 572247, Pitch_bend_c, 10, 5793
20, 572248, Pitch_bend_c, 10, 5801
20, 572248, Pitch_bend_c, 10, 5809
20, 572249, Pitch_bend_c, 10, 5817
20, 572249, Pitch_bend_c, 10, 5825
20, 572250, Pitch_bend_c, 10, 5832
20, 572250, Pitch_bend_c, 10, 5840
20, 572251, Pitch_bend_c, 10, 5848
20, 572251, Pitch_bend_c, 10, 5856
20, 572252, Pitch_bend_c, 10, 5864
20, 572252, Pitch_bend_c, 10, 5872
20, 572253, Pitch_bend_c, 10, 5880
20, 572253, Pitch_bend_c, 10, 5888
20, 572254, Pitch_bend_c, 10, 5895
20, 572254, Pitch_bend_c, 10, 5903
20, 572255, Pitch_bend_c, 10, 5911
20, 572255, Pitch_bend_c, 10, 5919
20, 572256, Pitch_bend_c, 10, 5927
20, 572256, Pitch_bend_c, 10, 5935
20, 572257, Pitch_bend_c, 10, 5943
20, 572257, Pitch_bend_c, 10, 5950
20, 572258, Pitch_bend_c, 10, 5958
20, 572258, Pitch_bend_c, 10, 5966
20, 572259, Pitch_bend_c, 10, 5974
20, 572259, Pitch_bend_c, 10, 5982
20, 572260, Pitch_bend_c, 10, 5990
20, 572260, Pitch_bend_c, 10, 5998
20, 572261, Pitch_bend_c, 10, 6006
20, 572261, Pitch_bend_c, 10, 6013
20, 572262, Pitch_bend_c, 10, 6021
20, 572262, Pitch_bend_c, 10, 6029
20, 572263, Pitch_bend_c, 10, 6037
20, 572263, Pitch_bend_c, 10, 6045
20, 572264, Pitch_bend_c, 10, 6053
20, 572264, Pitch_bend_c, 10, 6061
20, 572265, Pitch_bend_c, 10, 6068
20, 572265, Pitch_bend_c, 10, 6076
20, 572266, Pitch_bend_c, 10, 6084
20, 572266, Pitch_bend_c, 10, 6092
20, 572267, Pitch_bend_c, 10, 6100
20, 572267, Pitch_bend_c, 10, 6108
20, 572268, Pitch_bend_c, 10, 6116
20, 572268, Pitch_bend_c, 10, 6124
20, 572269, Pitch_bend_c, 10, 6131
20, 572269, Pitch_bend_c, 10, 6139
20, 572270, Pitch_bend_c, 10, 6147
20, 572270, Pitch_bend_c, 10, 6155
20, 572271, Pitch_bend_c, 10, 6163
20, 572271, Pitch_bend_c, 10, 6171
20, 572272, Pitch_bend_c, 10, 6179
20, 572272, Pitch_bend_c, 10, 6186
20, 572273, Pitch_bend_c, 10, 6194
20, 572273, Pitch_bend_c, 10, 6202
20, 572274, Pitch_bend_c, 10, 6210
20, 572274, Pitch_bend_c, 10, 6218
20, 572275, Pitch_bend_c, 10, 6226
20, 572275, Pitch_bend_c, 10, 6234
20, 572276, Pitch_bend_c, 10, 6242
20, 572276, Pitch_bend_c, 10, 6249
20, 572277, Pitch_bend_c, 10, 6257
20, 572277, Pitch_bend_c, 10, 6265
20, 572278, Pitch_bend_c, 10, 6273
20, 572278, Pitch_bend_c, 10, 6281
20, 572279, Pitch_bend_c, 10, 6289
20, 572279, Pitch_bend_c, 10, 6297
20, 572280, Pitch_bend_c, 10, 6304
20, 572280, Pitch_bend_c, 10, 6312
20, 572281, Pitch_bend_c, 10, 6320
20, 572281, Pitch_bend_c, 10, 6328
20, 572282, Pitch_bend_c, 10, 6336
20, 572282, Pitch_bend_c, 10, 6344
20, 572283, Pitch_bend_c, 10, 6352
20, 572283, Pitch_bend_c, 10, 6360
20, 572284, Pitch_bend_c, 10, 6367
20, 572284, Pitch_bend_c, 10, 6375
20, 572285, Pitch_bend_c, 10, 6383
20, 572285, Pitch_bend_c, 10, 6391
20, 572286, Pitch_bend_c, 10, 6399
20, 572286, Pitch_bend_c, 10, 6407
20, 572287, Pitch_bend_c, 10, 6415
20, 572287, Pitch_bend_c, 10, 6422
20, 572288, Pitch_bend_c, 10, 6430
20, 572288, Pitch_bend_c, 10, 6438
20, 572289, Pitch_bend_c, 10, 6446
20, 572289, Pitch_bend_c, 10, 6454
20, 572290, Pitch_bend_c, 10, 6462
20, 572290, Pitch_bend_c, 10, 6470
20, 572291, Pitch_bend_c, 10, 6478
20, 572291, Pitch_bend_c, 10, 6485
20, 572292, Pitch_bend_c, 10, 6493
20, 572292, Pitch_bend_c, 10, 6501
20, 572293, Pitch_bend_c, 10, 6509
20, 572293, Pitch_bend_c, 10, 6517
20, 572294, Pitch_bend_c, 10, 6525
20, 572294, Pitch_bend_c, 10, 6533
20, 572295, Pitch_bend_c, 10, 6540
20, 572295, Pitch_bend_c, 10, 6548
20, 572296, Pitch_bend_c, 10, 6556
20, 572296, Pitch_bend_c, 10, 6564
20, 572297, Pitch_bend_c, 10, 6572
20, 572297, Pitch_bend_c, 10, 6580
20, 572298, Pitch_bend_c, 10, 6588
20, 572298, Pitch_bend_c, 10, 6596
20, 572299, Pitch_bend_c, 10, 6603
20, 572299, Pitch_bend_c, 10, 6611
20, 572300, Pitch_bend_c, 10, 6619
20, 572300, Pitch_bend_c, 10, 6627
20, 572301, Pitch_bend_c, 10, 6635
20, 572301, Pitch_bend_c, 10, 6643
20, 572302, Pitch_bend_c, 10, 6651
20, 572302, Pitch_bend_c, 10, 6658
20, 572303, Pitch_bend_c, 10, 6666
20, 572303, Pitch_bend_c, 10, 6674
20, 572304, Pitch_bend_c, 10, 6682
20, 572304, Pitch_bend_c, 10, 6690
20, 572305, Pitch_bend_c, 10, 6698
20, 572305, Pitch_bend_c, 10, 6706
20, 572306, Pitch_bend_c, 10, 6714
20, 572306, Pitch_bend_c, 10, 6721
20, 572307, Pitch_bend_c, 10, 6729
20, 572307, Pitch_bend_c, 10, 6737
20, 572308, Pitch_bend_c, 10, 6745
20, 572308, Pitch_bend_c, 10, 6753
20, 572309, Pitch_bend_c, 10, 6761
20, 572309, Pitch_bend_c, 10, 6769
20, 572310, Pitch_bend_c, 10, 6776
20, 572310, Pitch_bend_c, 10, 6784
20, 572311, Pitch_bend_c, 10, 6792
20, 572311, Pitch_bend_c, 10, 6800
20, 572312, Pitch_bend_c, 10, 6808
20, 572312, Pitch_bend_c, 10, 6816
20, 572313, Pitch_bend_c, 10, 6824
20, 572313, Pitch_bend_c, 10, 6832
20, 572314, Pitch_bend_c, 10, 6839
20, 572314, Pitch_bend_c, 10, 6847
20, 572315, Pitch_bend_c, 10, 6855
20, 572315, Pitch_bend_c, 10, 6863
20, 572316, Pitch_bend_c, 10, 6871
20, 572316, Pitch_bend_c, 10, 6879
20, 572317, Pitch_bend_c, 10, 6887
20, 572317, Pitch_bend_c, 10, 6894
20, 572318, Pitch_bend_c, 10, 6902
20, 572318, Pitch_bend_c, 10, 6910
20, 572319, Pitch_bend_c, 10, 6918
20, 572319, Pitch_bend_c, 10, 6926
20, 572320, Pitch_bend_c, 10, 6934
20, 572320, Pitch_bend_c, 10, 6942
20, 572321, Pitch_bend_c, 10, 6950
20, 572321, Pitch_bend_c, 10, 6957
20, 572322, Pitch_bend_c, 10, 6965
20, 572322, Pitch_bend_c, 10, 6973
20, 572323, Pitch_bend_c, 10, 6981
20, 572323, Pitch_bend_c, 10, 6989
20, 572324, Pitch_bend_c, 10, 6997
20, 572324, Pitch_bend_c, 10, 7005
20, 572325, Pitch_bend_c, 10, 7012
20, 572325, Pitch_bend_c, 10, 7020
20, 572326, Pitch_bend_c, 10, 7028
20, 572326, Pitch_bend_c, 10, 7036
20, 572327, Pitch_bend_c, 10, 7044
20, 572327, Pitch_bend_c, 10, 7052
20, 572328, Pitch_bend_c, 10, 7060
20, 572328, Pitch_bend_c, 10, 7068
20, 572329, Pitch_bend_c, 10, 7075
20, 572329, Pitch_bend_c, 10, 7083
20, 572330, Pitch_bend_c, 10, 7091
20, 572330, Pitch_bend_c, 10, 7099
20, 572331, Pitch_bend_c, 10, 7107
20, 572331, Pitch_bend_c, 10, 7115
20, 572332, Pitch_bend_c, 10, 7123
20, 572332, Pitch_bend_c, 10, 7130
20, 572333, Pitch_bend_c, 10, 7138
20, 572333, Pitch_bend_c, 10, 7146
20, 572334, Pitch_bend_c, 10, 7154
20, 572334, Pitch_bend_c, 10, 7162
20, 572335, Pitch_bend_c, 10, 7170
20, 572335, Pitch_bend_c, 10, 7178
20, 572336, Pitch_bend_c, 10, 7186
20, 572336, Pitch_bend_c, 10, 7193
20, 572337, Pitch_bend_c, 10, 7201
20, 572337, Pitch_bend_c, 10, 7209
20, 572338, Pitch_bend_c, 10, 7217
20, 572338, Pitch_bend_c, 10, 7225
20, 572339, Pitch_bend_c, 10, 7233
20, 572339, Pitch_bend_c, 10, 7241
20, 572340, Pitch_bend_c, 10, 7248
20, 572340, Pitch_bend_c, 10, 7256
20, 572341, Pitch_bend_c, 10, 7264
20, 572341, Pitch_bend_c, 10, 7272
20, 572342, Pitch_bend_c, 10, 7280
20, 572342, Pitch_bend_c, 10, 7288
20, 572343, Pitch_bend_c, 10, 7296
20, 572343, Pitch_bend_c, 10, 7304
20, 572344, Pitch_bend_c, 10, 7311
20, 572344, Pitch_bend_c, 10, 7319
20, 572345, Pitch_bend_c, 10, 7327
20, 572345, Pitch_bend_c, 10, 7335
20, 572346, Pitch_bend_c, 10, 7343
20, 572346, Pitch_bend_c, 10, 7351
20, 572347, Pitch_bend_c, 10, 7359
20, 572347, Pitch_bend_c, 10, 7366
20, 572348, Pitch_bend_c, 10, 7374
20, 572348, Pitch_bend_c, 10, 7382
20, 572349, Pitch_bend_c, 10, 7390
20, 572349, Pitch_bend_c, 10, 7398
20, 572350, Pitch_bend_c, 10, 7406
20, 572350, Pitch_bend_c, 10, 7414
20, 572351, Pitch_bend_c, 10, 7422
20, 572351, Pitch_bend_c, 10, 7429
20, 572352, Pitch_bend_c, 10, 7437
20, 572352, Pitch_bend_c, 10, 7445
20, 572353, Pitch_bend_c, 10, 7453
20, 572353, Pitch_bend_c, 10, 7461
20, 572354, Pitch_bend_c, 10, 7469
20, 572354, Pitch_bend_c, 10, 7477
20, 572355, Pitch_bend_c, 10, 7484
20, 572355, Pitch_bend_c, 10, 7492
20, 572356, Pitch_bend_c, 10, 7500
20, 572356, Pitch_bend_c, 10, 7508
20, 572357, Pitch_bend_c, 10, 7516
20, 572357, Pitch_bend_c, 10, 7524
20, 572358, Pitch_bend_c, 10, 7532
20, 572358, Pitch_bend_c, 10, 7540
20, 572359, Pitch_bend_c, 10, 7547
20, 572359, Pitch_bend_c, 10, 7555
20, 572360, Pitch_bend_c, 10, 7563
20, 572360, Pitch_bend_c, 10, 7571
20, 572361, Pitch_bend_c, 10, 7579
20, 572361, Pitch_bend_c, 10, 7587
20, 572362, Pitch_bend_c, 10, 7595
20, 572362, Pitch_bend_c, 10, 7602
20, 572363, Pitch_bend_c, 10, 7610
20, 572363, Pitch_bend_c, 10, 7618
20, 572364, Pitch_bend_c, 10, 7626
20, 572364, Pitch_bend_c, 10, 7634
20, 572365, Pitch_bend_c, 10, 7642
20, 572365, Pitch_bend_c, 10, 7650
20, 572366, Pitch_bend_c, 10, 7658
20, 572366, Pitch_bend_c, 10, 7665
20, 572367, Pitch_bend_c, 10, 7673
20, 572367, Pitch_bend_c, 10, 7681
20, 572368, Pitch_bend_c, 10, 7689
20, 572368, Pitch_bend_c, 10, 7697
20, 572369, Pitch_bend_c, 10, 7705
20, 572369, Pitch_bend_c, 10, 7713
20, 572370, Pitch_bend_c, 10, 7720
20, 572370, Pitch_bend_c, 10, 7728
20, 572371, Pitch_bend_c, 10, 7736
20, 572371, Pitch_bend_c, 10, 7744
20, 572372, Pitch_bend_c, 10, 7752
20, 572372, Pitch_bend_c, 10, 7760
20, 572373, Pitch_bend_c, 10, 7768
20, 572373, Pitch_bend_c, 10, 7776
20, 572374, Pitch_bend_c, 10, 7783
20, 572374, Pitch_bend_c, 10, 7791
20, 572375, Pitch_bend_c, 10, 7799
20, 572375, Pitch_bend_c, 10, 7807
20, 572376, Pitch_bend_c, 10, 7815
20, 572376, Pitch_bend_c, 10, 7823
20, 572377, Pitch_bend_c, 10, 7831
20, 572377, Pitch_bend_c, 10, 7838
20, 572378, Pitch_bend_c, 10, 7846
20, 572378, Pitch_bend_c, 10, 7854
20, 572379, Pitch_bend_c, 10, 7862
20, 572379, Pitch_bend_c, 10, 7870
20, 572380, Pitch_bend_c, 10, 7878
20, 572380, Pitch_bend_c, 10, 7886
20, 572381, Pitch_bend_c, 10, 7894
20, 572381, Pitch_bend_c, 10, 7901
20, 572382, Pitch_bend_c, 10, 7909
20, 572382, Pitch_bend_c, 10, 7917
20, 572383, Pitch_bend_c, 10, 7925
20, 572383, Pitch_bend_c, 10, 7933
20, 572384, Pitch_bend_c, 10, 7941
20, 572384, Pitch_bend_c, 10, 7949
20, 572385, Pitch_bend_c, 10, 7956
20, 572385, Pitch_bend_c, 10, 7964
20, 572386, Pitch_bend_c, 10, 7972
20, 572386, Pitch_bend_c, 10, 7980
20, 572387, Pitch_bend_c, 10, 7988
20, 572387, Pitch_bend_c, 10, 7996
20, 572388, Pitch_bend_c, 10, 8004
20, 572388, Pitch_bend_c, 10, 8012
20, 572389, Pitch_bend_c, 10, 8019
20, 572389, Pitch_bend_c, 10, 8027
20, 572390, Pitch_bend_c, 10, 8035
20, 572390, Pitch_bend_c, 10, 8043
20, 572391, Pitch_bend_c, 10, 8051
20, 572391, Pitch_bend_c, 10, 8059
20, 572392, Pitch_bend_c, 10, 8067
20, 572392, Pitch_bend_c, 10, 8074
20, 572393, Pitch_bend_c, 10, 8082
20, 572393, Pitch_bend_c, 10, 8090
20, 572394, Pitch_bend_c, 10, 8098
20, 572394, Pitch_bend_c, 10, 8106
20, 572395, Pitch_bend_c, 10, 8114
20, 572395, Pitch_bend_c, 10, 8122
20, 572396, Pitch_bend_c, 10, 8130
20, 572396, Pitch_bend_c, 10, 8137
20, 572397, Pitch_bend_c, 10, 8145
20, 572397, Pitch_bend_c, 10, 8153
20, 572398, Pitch_bend_c, 10, 8161
20, 572398, Pitch_bend_c, 10, 8169
20, 572399, Pitch_bend_c, 10, 8177
20, 572399, Pitch_bend_c, 10, 8185
20, 572400, Pitch_bend_c, 10, 8192
20, 572404, Note_on_c, 10, 51, 0
20, 574560, Pitch_bend_c, 10, 4416
20, 574560, Pitch_bend_c, 10, 4424
20, 574561, Pitch_bend_c, 10, 4432
20, 574561, Pitch_bend_c, 10, 4440
20, 574562, Pitch_bend_c, 10, 4448
20, 574562, Pitch_bend_c, 10, 4456
20, 574563, Pitch_bend_c, 10, 4464
20, 574563, Pitch_bend_c, 10, 4472
20, 574564, Pitch_bend_c, 10, 4479
20, 574564, Pitch_bend_c, 10, 4487
20, 574565, Pitch_bend_c, 10, 4495
20, 574565, Pitch_bend_c, 10, 4503
20, 574566, Pitch_bend_c, 10, 4511
20, 574566, Pitch_bend_c, 10, 4519
20, 574567, Pitch_bend_c, 10, 4527
20, 574567, Pitch_bend_c, 10, 4534
20, 574568, Pitch_bend_c, 10, 4542
20, 574568, Pitch_bend_c, 10, 4550
20, 574569, Pitch_bend_c, 10, 4558
20, 574569, Pitch_bend_c, 10, 4566
20, 574570, Pitch_bend_c, 10, 4574
20, 574570, Pitch_bend_c, 10, 4582
20, 574571, Pitch_bend_c, 10, 4590
20, 574571, Pitch_bend_c, 10, 4597
20, 574572, Pitch_bend_c, 10, 4605
20, 574572, Pitch_bend_c, 10, 4613
20, 574573, Pitch_bend_c, 10, 4621
20, 574573, Note_on_c, 10, 51, 94
20, 574573, Pitch_bend_c, 10, 4629
20, 574574, Pitch_bend_c, 10, 4637
20, 574574, Pitch_bend_c, 10, 4645
20, 574575, Pitch_bend_c, 10, 4652
20, 574575, Pitch_bend_c, 10, 4660
20, 574576, Pitch_bend_c, 10, 4668
20, 574576, Pitch_bend_c, 10, 4676
20, 574577, Pitch_bend_c, 10, 4684
20, 574577, Pitch_bend_c, 10, 4692
20, 574578, Pitch_bend_c, 10, 4700
20, 574578, Pitch_bend_c, 10, 4708
20, 574579, Pitch_bend_c, 10, 4715
20, 574579, Pitch_bend_c, 10, 4723
20, 574580, Pitch_bend_c, 10, 4731
20, 574580, Pitch_bend_c, 10, 4739
20, 574581, Pitch_bend_c, 10, 4747
20, 574581, Pitch_bend_c, 10, 4755
20, 574582, Pitch_bend_c, 10, 4763
20, 574582, Pitch_bend_c, 10, 4770
20, 574583, Pitch_bend_c, 10, 4778
20, 574583, Pitch_bend_c, 10, 4786
20, 574584, Pitch_bend_c, 10, 4794
20, 574584, Pitch_bend_c, 10, 4802
20, 574585, Pitch_bend_c, 10, 4810
20, 574585, Pitch_bend_c, 10, 4818
20, 574586, Pitch_bend_c, 10, 4826
20, 574586, Pitch_bend_c, 10, 4833
20, 574587, Pitch_bend_c, 10, 4841
20, 574587, Pitch_bend_c, 10, 4849
20, 574588, Pitch_bend_c, 10, 4857
20, 574588, Pitch_bend_c, 10, 4865
20, 574589, Pitch_bend_c, 10, 4873
20, 574589, Pitch_bend_c, 10, 4881
20, 574590, Pitch_bend_c, 10, 4888
20, 574590, Pitch_bend_c, 10, 4896
20, 574591, Pitch_bend_c, 10, 4904
20, 574591, Pitch_bend_c, 10, 4912
20, 574592, Pitch_bend_c, 10, 4920
20, 574592, Pitch_bend_c, 10, 4928
20, 574593, Pitch_bend_c, 10, 4936
20, 574593, Pitch_bend_c, 10, 4944
20, 574594, Pitch_bend_c, 10, 4951
20, 574594, Pitch_bend_c, 10, 4959
20, 574595, Pitch_bend_c, 10, 4967
20, 574595, Pitch_bend_c, 10, 4975
20, 574596, Pitch_bend_c, 10, 4983
20, 574596, Pitch_bend_c, 10, 4991
20, 574597, Pitch_bend_c, 10, 4999
20, 574597, Pitch_bend_c, 10, 5006
20, 574598, Pitch_bend_c, 10, 5014
20, 574598, Pitch_bend_c, 10, 5022
20, 574599, Pitch_bend_c, 10, 5030
20, 574599, Pitch_bend_c, 10, 5038
20, 574600, Pitch_bend_c, 10, 5046
20, 574600, Pitch_bend_c, 10, 5054
20, 574601, Pitch_bend_c, 10, 5062
20, 574601, Pitch_bend_c, 10, 5069
20, 574602, Pitch_bend_c, 10, 5077
20, 574602, Pitch_bend_c, 10, 5085
20, 574603, Pitch_bend_c, 10, 5093
20, 574603, Pitch_bend_c, 10, 5101
20, 574604, Pitch_bend_c, 10, 5109
20, 574604, Pitch_bend_c, 10, 5117
20, 574605, Pitch_bend_c, 10, 5124
20, 574605, Pitch_bend_c, 10, 5132
20, 574606, Pitch_bend_c, 10, 5140
20, 574606, Pitch_bend_c, 10, 5148
20, 574607, Pitch_bend_c, 10, 5156
20, 574607, Pitch_bend_c, 10, 5164
20, 574608, Pitch_bend_c, 10, 5172
20, 574608, Pitch_bend_c, 10, 5180
20, 574609, Pitch_bend_c, 10, 5187
20, 574609, Pitch_bend_c, 10, 5195
20, 574610, Pitch_bend_c, 10, 5203
20, 574610, Pitch_bend_c, 10, 5211
20, 574611, Pitch_bend_c, 10, 5219
20, 574611, Pitch_bend_c, 10, 5227
20, 574612, Pitch_bend_c, 10, 5235
20, 574612, Pitch_bend_c, 10, 5242
20, 574613, Pitch_bend_c, 10, 5250
20, 574613, Pitch_bend_c, 10, 5258
20, 574614, Pitch_bend_c, 10, 5266
20, 574614, Pitch_bend_c, 10, 5274
20, 574615, Pitch_bend_c, 10, 5282
20, 574615, Pitch_bend_c, 10, 5290
20, 574616, Pitch_bend_c, 10, 5298
20, 574616, Pitch_bend_c, 10, 5305
20, 574617, Pitch_bend_c, 10, 5313
20, 574617, Pitch_bend_c, 10, 5321
20, 574618, Pitch_bend_c, 10, 5329
20, 574618, Pitch_bend_c, 10, 5337
20, 574619, Pitch_bend_c, 10, 5345
20, 574619, Pitch_bend_c, 10, 5353
20, 574620, Pitch_bend_c, 10, 5360
20, 574620, Pitch_bend_c, 10, 5368
20, 574621, Pitch_bend_c, 10, 5376
20, 574621, Pitch_bend_c, 10, 5384
20, 574622, Pitch_bend_c, 10, 5392
20, 574622, Pitch_bend_c, 10, 5400
20, 574623, Pitch_bend_c, 10, 5408
20, 574623, Pitch_bend_c, 10, 5416
20, 574624, Pitch_bend_c, 10, 5423
20, 574624, Pitch_bend_c, 10, 5431
20, 574625, Pitch_bend_c, 10, 5439
20, 574625, Pitch_bend_c, 10, 5447
20, 574626, Pitch_bend_c, 10, 5455
20, 574626, Pitch_bend_c, 10, 5463
20, 574627, Pitch_bend_c, 10, 5471
20, 574627, Pitch_bend_c, 10, 5478
20, 574628, Pitch_bend_c, 10, 5486
20, 574628, Pitch_bend_c, 10, 5494
20, 574629, Pitch_bend_c, 10, 5502
20, 574629, Pitch_bend_c, 10, 5510
20, 574630, Pitch_bend_c, 10, 5518
20, 574630, Pitch_bend_c, 10, 5526
20, 574631, Pitch_bend_c, 10, 5534
20, 574631, Pitch_bend_c, 10, 5541
20, 574632, Pitch_bend_c, 10, 5549
20, 574632, Pitch_bend_c, 10, 5557
20, 574633, Pitch_bend_c, 10, 5565
20, 574633, Pitch_bend_c, 10, 5573
20, 574634, Pitch_bend_c, 10, 5581
20, 574634, Pitch_bend_c, 10, 5589
20, 574635, Pitch_bend_c, 10, 5596
20, 574635, Pitch_bend_c, 10, 5604
20, 574636, Pitch_bend_c, 10, 5612
20, 574636, Pitch_bend_c, 10, 5620
20, 574637, Pitch_bend_c, 10, 5628
20, 574637, Pitch_bend_c, 10, 5636
20, 574638, Pitch_bend_c, 10, 5644
20, 574638, Pitch_bend_c, 10, 5652
20, 574639, Pitch_bend_c, 10, 5659
20, 574639, Pitch_bend_c, 10, 5667
20, 574640, Pitch_bend_c, 10, 5675
20, 574640, Pitch_bend_c, 10, 5683
20, 574641, Pitch_bend_c, 10, 5691
20, 574641, Pitch_bend_c, 10, 5699
20, 574642, Pitch_bend_c, 10, 5707
20, 574642, Pitch_bend_c, 10, 5714
20, 574643, Pitch_bend_c, 10, 5722
20, 574643, Pitch_bend_c, 10, 5730
20, 574644, Pitch_bend_c, 10, 5738
20, 574644, Pitch_bend_c, 10, 5746
20, 574645, Pitch_bend_c, 10, 5754
20, 574645, Pitch_bend_c, 10, 5762
20, 574646, Pitch_bend_c, 10, 5770
20, 574646, Pitch_bend_c, 10, 5777
20, 574647, Pitch_bend_c, 10, 5785
20, 574647, Pitch_bend_c, 10, 5793
20, 574648, Pitch_bend_c, 10, 5801
20, 574648, Pitch_bend_c, 10, 5809
20, 574649, Pitch_bend_c, 10, 5817
20, 574649, Pitch_bend_c, 10, 5825
20, 574650, Pitch_bend_c, 10, 5832
20, 574650, Pitch_bend_c, 10, 5840
20, 574651, Pitch_bend_c, 10, 5848
20, 574651, Pitch_bend_c, 10, 5856
20, 574652, Pitch_bend_c, 10, 5864
20, 574652, Pitch_bend_c, 10, 5872
20, 574653, Pitch_bend_c, 10, 5880
20, 574653, Pitch_bend_c, 10, 5888
20, 574654, Pitch_bend_c, 10, 5895
20, 574654, Pitch_bend_c, 10, 5903
20, 574655, Pitch_bend_c, 10, 5911
20, 574655, Pitch_bend_c, 10, 5919
20, 574656, Pitch_bend_c, 10, 5927
20, 574656, Pitch_bend_c, 10, 5935
20, 574657, Pitch_bend_c, 10, 5943
20, 574657, Pitch_bend_c, 10, 5950
20, 574658, Pitch_bend_c, 10, 5958
20, 574658, Pitch_bend_c, 10, 5966
20, 574659, Pitch_bend_c, 10, 5974
20, 574659, Pitch_bend_c, 10, 5982
20, 574660, Pitch_bend_c, 10, 5990
20, 574660, Pitch_bend_c, 10, 5998
20, 574661, Pitch_bend_c, 10, 6006
20, 574661, Pitch_bend_c, 10, 6013
20, 574662, Pitch_bend_c, 10, 6021
20, 574662, Pitch_bend_c, 10, 6029
20, 574663, Pitch_bend_c, 10, 6037
20, 574663, Pitch_bend_c, 10, 6045
20, 574664, Pitch_bend_c, 10, 6053
20, 574664, Pitch_bend_c, 10, 6061
20, 574665, Pitch_bend_c, 10, 6068
20, 574665, Pitch_bend_c, 10, 6076
20, 574666, Pitch_bend_c, 10, 6084
20, 574666, Pitch_bend_c, 10, 6092
20, 574667, Pitch_bend_c, 10, 6100
20, 574667, Pitch_bend_c, 10, 6108
20, 574668, Pitch_bend_c, 10, 6116
20, 574668, Pitch_bend_c, 10, 6124
20, 574669, Pitch_bend_c, 10, 6131
20, 574669, Pitch_bend_c, 10, 6139
20, 574670, Pitch_bend_c, 10, 6147
20, 574670, Pitch_bend_c, 10, 6155
20, 574671, Pitch_bend_c, 10, 6163
20, 574671, Pitch_bend_c, 10, 6171
20, 574672, Pitch_bend_c, 10, 6179
20, 574672, Pitch_bend_c, 10, 6186
20, 574673, Pitch_bend_c, 10, 6194
20, 574673, Pitch_bend_c, 10, 6202
20, 574674, Pitch_bend_c, 10, 6210
20, 574674, Pitch_bend_c, 10, 6218
20, 574675, Pitch_bend_c, 10, 6226
20, 574675, Pitch_bend_c, 10, 6234
20, 574676, Pitch_bend_c, 10, 6242
20, 574676, Pitch_bend_c, 10, 6249
20, 574677, Pitch_bend_c, 10, 6257
20, 574677, Pitch_bend_c, 10, 6265
20, 574678, Pitch_bend_c, 10, 6273
20, 574678, Pitch_bend_c, 10, 6281
20, 574679, Pitch_bend_c, 10, 6289
20, 574679, Pitch_bend_c, 10, 6297
20, 574680, Pitch_bend_c, 10, 6304
20, 574680, Pitch_bend_c, 10, 6312
20, 574681, Pitch_bend_c, 10, 6320
20, 574681, Pitch_bend_c, 10, 6328
20, 574682, Pitch_bend_c, 10, 6336
20, 574682, Pitch_bend_c, 10, 6344
20, 574683, Pitch_bend_c, 10, 6352
20, 574683, Pitch_bend_c, 10, 6360
20, 574684, Pitch_bend_c, 10, 6367
20, 574684, Pitch_bend_c, 10, 6375
20, 574685, Pitch_bend_c, 10, 6383
20, 574685, Pitch_bend_c, 10, 6391
20, 574686, Pitch_bend_c, 10, 6399
20, 574686, Pitch_bend_c, 10, 6407
20, 574687, Pitch_bend_c, 10, 6415
20, 574687, Pitch_bend_c, 10, 6422
20, 574688, Pitch_bend_c, 10, 6430
20, 574688, Pitch_bend_c, 10, 6438
20, 574689, Pitch_bend_c, 10, 6446
20, 574689, Pitch_bend_c, 10, 6454
20, 574690, Pitch_bend_c, 10, 6462
20, 574690, Pitch_bend_c, 10, 6470
20, 574691, Pitch_bend_c, 10, 6478
20, 574691, Pitch_bend_c, 10, 6485
20, 574692, Pitch_bend_c, 10, 6493
20, 574692, Pitch_bend_c, 10, 6501
20, 574693, Pitch_bend_c, 10, 6509
20, 574693, Pitch_bend_c, 10, 6517
20, 574694, Pitch_bend_c, 10, 6525
20, 574694, Pitch_bend_c, 10, 6533
20, 574695, Pitch_bend_c, 10, 6540
20, 574695, Pitch_bend_c, 10, 6548
20, 574696, Pitch_bend_c, 10, 6556
20, 574696, Pitch_bend_c, 10, 6564
20, 574697, Pitch_bend_c, 10, 6572
20, 574697, Pitch_bend_c, 10, 6580
20, 574698, Pitch_bend_c, 10, 6588
20, 574698, Pitch_bend_c, 10, 6596
20, 574699, Pitch_bend_c, 10, 6603
20, 574699, Pitch_bend_c, 10, 6611
20, 574700, Pitch_bend_c, 10, 6619
20, 574700, Pitch_bend_c, 10, 6627
20, 574701, Pitch_bend_c, 10, 6635
20, 574701, Pitch_bend_c, 10, 6643
20, 574702, Pitch_bend_c, 10, 6651
20, 574702, Pitch_bend_c, 10, 6658
20, 574703, Pitch_bend_c, 10, 6666
20, 574703, Pitch_bend_c, 10, 6674
20, 574704, Pitch_bend_c, 10, 6682
20, 574704, Pitch_bend_c, 10, 6690
20, 574705, Pitch_bend_c, 10, 6698
20, 574705, Pitch_bend_c, 10, 6706
20, 574706, Pitch_bend_c, 10, 6714
20, 574706, Pitch_bend_c, 10, 6721
20, 574707, Pitch_bend_c, 10, 6729
20, 574707, Pitch_bend_c, 10, 6737
20, 574708, Pitch_bend_c, 10, 6745
20, 574708, Pitch_bend_c, 10, 6753
20, 574709, Pitch_bend_c, 10, 6761
20, 574709, Pitch_bend_c, 10, 6769
20, 574710, Pitch_bend_c, 10, 6776
20, 574710, Pitch_bend_c, 10, 6784
20, 574711, Pitch_bend_c, 10, 6792
20, 574711, Pitch_bend_c, 10, 6800
20, 574712, Pitch_bend_c, 10, 6808
20, 574712, Pitch_bend_c, 10, 6816
20, 574713, Pitch_bend_c, 10, 6824
20, 574713, Pitch_bend_c, 10, 6832
20, 574714, Pitch_bend_c, 10, 6839
20, 574714, Pitch_bend_c, 10, 6847
20, 574715, Pitch_bend_c, 10, 6855
20, 574715, Pitch_bend_c, 10, 6863
20, 574716, Pitch_bend_c, 10, 6871
20, 574716, Pitch_bend_c, 10, 6879
20, 574717, Pitch_bend_c, 10, 6887
20, 574717, Pitch_bend_c, 10, 6894
20, 574718, Pitch_bend_c, 10, 6902
20, 574718, Pitch_bend_c, 10, 6910
20, 574719, Pitch_bend_c, 10, 6918
20, 574719, Pitch_bend_c, 10, 6926
20, 574720, Pitch_bend_c, 10, 6934
20, 574720, Pitch_bend_c, 10, 6942
20, 574721, Pitch_bend_c, 10, 6950
20, 574721, Pitch_bend_c, 10, 6957
20, 574722, Pitch_bend_c, 10, 6965
20, 574722, Pitch_bend_c, 10, 6973
20, 574723, Pitch_bend_c, 10, 6981
20, 574723, Pitch_bend_c, 10, 6989
20, 574724, Pitch_bend_c, 10, 6997
20, 574724, Pitch_bend_c, 10, 7005
20, 574725, Pitch_bend_c, 10, 7012
20, 574725, Pitch_bend_c, 10, 7020
20, 574726, Pitch_bend_c, 10, 7028
20, 574726, Pitch_bend_c, 10, 7036
20, 574727, Pitch_bend_c, 10, 7044
20, 574727, Pitch_bend_c, 10, 7052
20, 574728, Pitch_bend_c, 10, 7060
20, 574728, Pitch_bend_c, 10, 7068
20, 574729, Pitch_bend_c, 10, 7075
20, 574729, Pitch_bend_c, 10, 7083
20, 574730, Pitch_bend_c, 10, 7091
20, 574730, Pitch_bend_c, 10, 7099
20, 574731, Pitch_bend_c, 10, 7107
20, 574731, Pitch_bend_c, 10, 7115
20, 574732, Pitch_bend_c, 10, 7123
20, 574732, Pitch_bend_c, 10, 7130
20, 574733, Pitch_bend_c, 10, 7138
20, 574733, Pitch_bend_c, 10, 7146
20, 574734, Pitch_bend_c, 10, 7154
20, 574734, Pitch_bend_c, 10, 7162
20, 574735, Pitch_bend_c, 10, 7170
20, 574735, Pitch_bend_c, 10, 7178
20, 574736, Pitch_bend_c, 10, 7186
20, 574736, Pitch_bend_c, 10, 7193
20, 574737, Pitch_bend_c, 10, 7201
20, 574737, Pitch_bend_c, 10, 7209
20, 574738, Pitch_bend_c, 10, 7217
20, 574738, Pitch_bend_c, 10, 7225
20, 574739, Pitch_bend_c, 10, 7233
20, 574739, Pitch_bend_c, 10, 7241
20, 574740, Pitch_bend_c, 10, 7248
20, 574740, Pitch_bend_c, 10, 7256
20, 574741, Pitch_bend_c, 10, 7264
20, 574741, Pitch_bend_c, 10, 7272
20, 574742, Pitch_bend_c, 10, 7280
20, 574742, Pitch_bend_c, 10, 7288
20, 574743, Pitch_bend_c, 10, 7296
20, 574743, Pitch_bend_c, 10, 7304
20, 574744, Pitch_bend_c, 10, 7311
20, 574744, Pitch_bend_c, 10, 7319
20, 574745, Pitch_bend_c, 10, 7327
20, 574745, Pitch_bend_c, 10, 7335
20, 574746, Pitch_bend_c, 10, 7343
20, 574746, Pitch_bend_c, 10, 7351
20, 574747, Pitch_bend_c, 10, 7359
20, 574747, Pitch_bend_c, 10, 7366
20, 574748, Pitch_bend_c, 10, 7374
20, 574748, Pitch_bend_c, 10, 7382
20, 574749, Pitch_bend_c, 10, 7390
20, 574749, Pitch_bend_c, 10, 7398
20, 574750, Pitch_bend_c, 10, 7406
20, 574750, Pitch_bend_c, 10, 7414
20, 574751, Pitch_bend_c, 10, 7422
20, 574751, Pitch_bend_c, 10, 7429
20, 574752, Pitch_bend_c, 10, 7437
20, 574752, Pitch_bend_c, 10, 7445
20, 574753, Pitch_bend_c, 10, 7453
20, 574753, Pitch_bend_c, 10, 7461
20, 574754, Pitch_bend_c, 10, 7469
20, 574754, Pitch_bend_c, 10, 7477
20, 574755, Pitch_bend_c, 10, 7484
20, 574755, Pitch_bend_c, 10, 7492
20, 574756, Pitch_bend_c, 10, 7500
20, 574756, Pitch_bend_c, 10, 7508
20, 574757, Pitch_bend_c, 10, 7516
20, 574757, Pitch_bend_c, 10, 7524
20, 574758, Pitch_bend_c, 10, 7532
20, 574758, Pitch_bend_c, 10, 7540
20, 574759, Pitch_bend_c, 10, 7547
20, 574759, Pitch_bend_c, 10, 7555
20, 574760, Pitch_bend_c, 10, 7563
20, 574760, Pitch_bend_c, 10, 7571
20, 574761, Pitch_bend_c, 10, 7579
20, 574761, Pitch_bend_c, 10, 7587
20, 574762, Pitch_bend_c, 10, 7595
20, 574762, Pitch_bend_c, 10, 7602
20, 574763, Pitch_bend_c, 10, 7610
20, 574763, Pitch_bend_c, 10, 7618
20, 574764, Pitch_bend_c, 10, 7626
20, 574764, Pitch_bend_c, 10, 7634
20, 574765, Pitch_bend_c, 10, 7642
20, 574765, Pitch_bend_c, 10, 7650
20, 574766, Pitch_bend_c, 10, 7658
20, 574766, Pitch_bend_c, 10, 7665
20, 574767, Pitch_bend_c, 10, 7673
20, 574767, Pitch_bend_c, 10, 7681
20, 574768, Pitch_bend_c, 10, 7689
20, 574768, Pitch_bend_c, 10, 7697
20, 574769, Pitch_bend_c, 10, 7705
20, 574769, Pitch_bend_c, 10, 7713
20, 574770, Pitch_bend_c, 10, 7720
20, 574770, Pitch_bend_c, 10, 7728
20, 574771, Pitch_bend_c, 10, 7736
20, 574771, Pitch_bend_c, 10, 7744
20, 574772, Pitch_bend_c, 10, 7752
20, 574772, Pitch_bend_c, 10, 7760
20, 574773, Pitch_bend_c, 10, 7768
20, 574773, Pitch_bend_c, 10, 7776
20, 574774, Pitch_bend_c, 10, 7783
20, 574774, Pitch_bend_c, 10, 7791
20, 574775, Pitch_bend_c, 10, 7799
20, 574775, Pitch_bend_c, 10, 7807
20, 574776, Pitch_bend_c, 10, 7815
20, 574776, Pitch_bend_c, 10, 7823
20, 574777, Pitch_bend_c, 10, 7831
20, 574777, Pitch_bend_c, 10, 7838
20, 574778, Pitch_bend_c, 10, 7846
20, 574778, Pitch_bend_c, 10, 7854
20, 574779, Pitch_bend_c, 10, 7862
20, 574779, Pitch_bend_c, 10, 7870
20, 574780, Pitch_bend_c, 10, 7878
20, 574780, Pitch_bend_c, 10, 7886
20, 574781, Pitch_bend_c, 10, 7894
20, 574781, Pitch_bend_c, 10, 7901
20, 574782, Pitch_bend_c, 10, 7909
20, 574782, Pitch_bend_c, 10, 7917
20, 574783, Pitch_bend_c, 10, 7925
20, 574783, Pitch_bend_c, 10, 7933
20, 574784, Pitch_bend_c, 10, 7941
20, 574784, Pitch_bend_c, 10, 7949
20, 574785, Pitch_bend_c, 10, 7956
20, 574785, Pitch_bend_c, 10, 7964
20, 574786, Pitch_bend_c, 10, 7972
20, 574786, Pitch_bend_c, 10, 7980
20, 574787, Pitch_bend_c, 10, 7988
20, 574787, Pitch_bend_c, 10, 7996
20, 574788, Pitch_bend_c, 10, 8004
20, 574788, Pitch_bend_c, 10, 8012
20, 574789, Pitch_bend_c, 10, 8019
20, 574789, Pitch_bend_c, 10, 8027
20, 574790, Pitch_bend_c, 10, 8035
20, 574790, Pitch_bend_c, 10, 8043
20, 574791, Pitch_bend_c, 10, 8051
20, 574791, Pitch_bend_c, 10, 8059
20, 574792, Pitch_bend_c, 10, 8067
20, 574792, Pitch_bend_c, 10, 8074
20, 574793, Pitch_bend_c, 10, 8082
20, 574793, Pitch_bend_c, 10, 8090
20, 574794, Pitch_bend_c, 10, 8098
20, 574794, Pitch_bend_c, 10, 8106
20, 574795, Pitch_bend_c, 10, 8114
20, 574795, Pitch_bend_c, 10, 8122
20, 574796, Pitch_bend_c, 10, 8130
20, 574796, Pitch_bend_c, 10, 8137
20, 574797, Pitch_bend_c, 10, 8145
20, 574797, Pitch_bend_c, 10, 8153
20, 574798, Pitch_bend_c, 10, 8161
20, 574798, Pitch_bend_c, 10, 8169
20, 574799, Pitch_bend_c, 10, 8177
20, 574799, Pitch_bend_c, 10, 8185
20, 574800, Pitch_bend_c, 10, 8192
20, 574813, Note_on_c, 10, 51, 0
20, 576480, Pitch_bend_c, 10, 4416
20, 576480, Pitch_bend_c, 10, 4424
20, 576481, Pitch_bend_c, 10, 4432
20, 576481, Pitch_bend_c, 10, 4440
20, 576482, Pitch_bend_c, 10, 4448
20, 576482, Pitch_bend_c, 10, 4456
20, 576483, Pitch_bend_c, 10, 4464
20, 576483, Pitch_bend_c, 10, 4472
20, 576484, Pitch_bend_c, 10, 4479
20, 576484, Pitch_bend_c, 10, 4487
20, 576485, Pitch_bend_c, 10, 4495
20, 576485, Pitch_bend_c, 10, 4503
20, 576486, Pitch_bend_c, 10, 4511
20, 576486, Pitch_bend_c, 10, 4519
20, 576487, Pitch_bend_c, 10, 4527
20, 576487, Pitch_bend_c, 10, 4534
20, 576488, Pitch_bend_c, 10, 4542
20, 576488, Pitch_bend_c, 10, 4550
20, 576489, Pitch_bend_c, 10, 4558
20, 576489, Pitch_bend_c, 10, 4566
20, 576490, Pitch_bend_c, 10, 4574
20, 576490, Pitch_bend_c, 10, 4582
20, 576491, Pitch_bend_c, 10, 4590
20, 576491, Pitch_bend_c, 10, 4597
20, 576492, Pitch_bend_c, 10, 4605
20, 576492, Pitch_bend_c, 10, 4613
20, 576493, Pitch_bend_c, 10, 4621
20, 576493, Pitch_bend_c, 10, 4629
20, 576494, Pitch_bend_c, 10, 4637
20, 576494, Pitch_bend_c, 10, 4645
20, 576495, Pitch_bend_c, 10, 4652
20, 576495, Pitch_bend_c, 10, 4660
20, 576496, Pitch_bend_c, 10, 4668
20, 576496, Pitch_bend_c, 10, 4676
20, 576497, Pitch_bend_c, 10, 4684
20, 576497, Pitch_bend_c, 10, 4692
20, 576498, Pitch_bend_c, 10, 4700
20, 576498, Pitch_bend_c, 10, 4708
20, 576499, Pitch_bend_c, 10, 4715
20, 576499, Pitch_bend_c, 10, 4723
20, 576500, Pitch_bend_c, 10, 4731
20, 576500, Pitch_bend_c, 10, 4739
20, 576501, Pitch_bend_c, 10, 4747
20, 576501, Pitch_bend_c, 10, 4755
20, 576502, Pitch_bend_c, 10, 4763
20, 576502, Pitch_bend_c, 10, 4770
20, 576503, Pitch_bend_c, 10, 4778
20, 576503, Note_on_c, 10, 51, 86
20, 576503, Pitch_bend_c, 10, 4786
20, 576504, Pitch_bend_c, 10, 4794
20, 576504, Pitch_bend_c, 10, 4802
20, 576505, Pitch_bend_c, 10, 4810
20, 576505, Pitch_bend_c, 10, 4818
20, 576506, Pitch_bend_c, 10, 4826
20, 576506, Pitch_bend_c, 10, 4833
20, 576507, Pitch_bend_c, 10, 4841
20, 576507, Pitch_bend_c, 10, 4849
20, 576508, Pitch_bend_c, 10, 4857
20, 576508, Pitch_bend_c, 10, 4865
20, 576509, Pitch_bend_c, 10, 4873
20, 576509, Pitch_bend_c, 10, 4881
20, 576510, Pitch_bend_c, 10, 4888
20, 576510, Pitch_bend_c, 10, 4896
20, 576511, Pitch_bend_c, 10, 4904
20, 576511, Pitch_bend_c, 10, 4912
20, 576512, Pitch_bend_c, 10, 4920
20, 576512, Pitch_bend_c, 10, 4928
20, 576513, Pitch_bend_c, 10, 4936
20, 576513, Pitch_bend_c, 10, 4944
20, 576514, Pitch_bend_c, 10, 4951
20, 576514, Pitch_bend_c, 10, 4959
20, 576515, Pitch_bend_c, 10, 4967
20, 576515, Pitch_bend_c, 10, 4975
20, 576516, Pitch_bend_c, 10, 4983
20, 576516, Pitch_bend_c, 10, 4991
20, 576517, Pitch_bend_c, 10, 4999
20, 576517, Pitch_bend_c, 10, 5006
20, 576518, Pitch_bend_c, 10, 5014
20, 576518, Pitch_bend_c, 10, 5022
20, 576519, Pitch_bend_c, 10, 5030
20, 576519, Pitch_bend_c, 10, 5038
20, 576520, Pitch_bend_c, 10, 5046
20, 576520, Pitch_bend_c, 10, 5054
20, 576521, Pitch_bend_c, 10, 5062
20, 576521, Pitch_bend_c, 10, 5069
20, 576522, Pitch_bend_c, 10, 5077
20, 576522, Pitch_bend_c, 10, 5085
20, 576523, Pitch_bend_c, 10, 5093
20, 576523, Pitch_bend_c, 10, 5101
20, 576524, Pitch_bend_c, 10, 5109
20, 576524, Pitch_bend_c, 10, 5117
20, 576525, Pitch_bend_c, 10, 5124
20, 576525, Pitch_bend_c, 10, 5132
20, 576526, Pitch_bend_c, 10, 5140
20, 576526, Pitch_bend_c, 10, 5148
20, 576527, Pitch_bend_c, 10, 5156
20, 576527, Pitch_bend_c, 10, 5164
20, 576528, Pitch_bend_c, 10, 5172
20, 576528, Pitch_bend_c, 10, 5180
20, 576529, Pitch_bend_c, 10, 5187
20, 576529, Pitch_bend_c, 10, 5195
20, 576530, Pitch_bend_c, 10, 5203
20, 576530, Pitch_bend_c, 10, 5211
20, 576531, Pitch_bend_c, 10, 5219
20, 576531, Pitch_bend_c, 10, 5227
20, 576532, Pitch_bend_c, 10, 5235
20, 576532, Pitch_bend_c, 10, 5242
20, 576533, Pitch_bend_c, 10, 5250
20, 576533, Pitch_bend_c, 10, 5258
20, 576534, Pitch_bend_c, 10, 5266
20, 576534, Pitch_bend_c, 10, 5274
20, 576535, Pitch_bend_c, 10, 5282
20, 576535, Pitch_bend_c, 10, 5290
20, 576536, Pitch_bend_c, 10, 5298
20, 576536, Pitch_bend_c, 10, 5305
20, 576537, Pitch_bend_c, 10, 5313
20, 576537, Pitch_bend_c, 10, 5321
20, 576538, Pitch_bend_c, 10, 5329
20, 576538, Pitch_bend_c, 10, 5337
20, 576539, Pitch_bend_c, 10, 5345
20, 576539, Pitch_bend_c, 10, 5353
20, 576540, Pitch_bend_c, 10, 5360
20, 576540, Pitch_bend_c, 10, 5368
20, 576541, Pitch_bend_c, 10, 5376
20, 576541, Pitch_bend_c, 10, 5384
20, 576542, Pitch_bend_c, 10, 5392
20, 576542, Pitch_bend_c, 10, 5400
20, 576543, Pitch_bend_c, 10, 5408
20, 576543, Pitch_bend_c, 10, 5416
20, 576544, Pitch_bend_c, 10, 5423
20, 576544, Pitch_bend_c, 10, 5431
20, 576545, Pitch_bend_c, 10, 5439
20, 576545, Pitch_bend_c, 10, 5447
20, 576546, Pitch_bend_c, 10, 5455
20, 576546, Pitch_bend_c, 10, 5463
20, 576547, Pitch_bend_c, 10, 5471
20, 576547, Pitch_bend_c, 10, 5478
20, 576548, Pitch_bend_c, 10, 5486
20, 576548, Pitch_bend_c, 10, 5494
20, 576549, Pitch_bend_c, 10, 5502
20, 576549, Pitch_bend_c, 10, 5510
20, 576550, Pitch_bend_c, 10, 5518
20, 576550, Pitch_bend_c, 10, 5526
20, 576551, Pitch_bend_c, 10, 5534
20, 576551, Pitch_bend_c, 10, 5541
20, 576552, Pitch_bend_c, 10, 5549
20, 576552, Pitch_bend_c, 10, 5557
20, 576553, Pitch_bend_c, 10, 5565
20, 576553, Pitch_bend_c, 10, 5573
20, 576554, Pitch_bend_c, 10, 5581
20, 576554, Pitch_bend_c, 10, 5589
20, 576555, Pitch_bend_c, 10, 5596
20, 576555, Pitch_bend_c, 10, 5604
20, 576556, Pitch_bend_c, 10, 5612
20, 576556, Pitch_bend_c, 10, 5620
20, 576557, Pitch_bend_c, 10, 5628
20, 576557, Pitch_bend_c, 10, 5636
20, 576558, Pitch_bend_c, 10, 5644
20, 576558, Pitch_bend_c, 10, 5652
20, 576559, Pitch_bend_c, 10, 5659
20, 576559, Pitch_bend_c, 10, 5667
20, 576560, Pitch_bend_c, 10, 5675
20, 576560, Pitch_bend_c, 10, 5683
20, 576561, Pitch_bend_c, 10, 5691
20, 576561, Pitch_bend_c, 10, 5699
20, 576562, Pitch_bend_c, 10, 5707
20, 576562, Pitch_bend_c, 10, 5714
20, 576563, Pitch_bend_c, 10, 5722
20, 576563, Pitch_bend_c, 10, 5730
20, 576564, Pitch_bend_c, 10, 5738
20, 576564, Pitch_bend_c, 10, 5746
20, 576565, Pitch_bend_c, 10, 5754
20, 576565, Pitch_bend_c, 10, 5762
20, 576566, Pitch_bend_c, 10, 5770
20, 576566, Pitch_bend_c, 10, 5777
20, 576567, Pitch_bend_c, 10, 5785
20, 576567, Pitch_bend_c, 10, 5793
20, 576568, Pitch_bend_c, 10, 5801
20, 576568, Pitch_bend_c, 10, 5809
20, 576569, Pitch_bend_c, 10, 5817
20, 576569, Pitch_bend_c, 10, 5825
20, 576570, Pitch_bend_c, 10, 5832
20, 576570, Pitch_bend_c, 10, 5840
20, 576571, Pitch_bend_c, 10, 5848
20, 576571, Pitch_bend_c, 10, 5856
20, 576572, Pitch_bend_c, 10, 5864
20, 576572, Pitch_bend_c, 10, 5872
20, 576573, Pitch_bend_c, 10, 5880
20, 576573, Pitch_bend_c, 10, 5888
20, 576574, Pitch_bend_c, 10, 5895
20, 576574, Pitch_bend_c, 10, 5903
20, 576575, Pitch_bend_c, 10, 5911
20, 576575, Pitch_bend_c, 10, 5919
20, 576576, Pitch_bend_c, 10, 5927
20, 576576, Pitch_bend_c, 10, 5935
20, 576577, Pitch_bend_c, 10, 5943
20, 576577, Pitch_bend_c, 10, 5950
20, 576578, Pitch_bend_c, 10, 5958
20, 576578, Pitch_bend_c, 10, 5966
20, 576579, Pitch_bend_c, 10, 5974
20, 576579, Pitch_bend_c, 10, 5982
20, 576580, Pitch_bend_c, 10, 5990
20, 576580, Pitch_bend_c, 10, 5998
20, 576581, Pitch_bend_c, 10, 6006
20, 576581, Pitch_bend_c, 10, 6013
20, 576582, Pitch_bend_c, 10, 6021
20, 576582, Pitch_bend_c, 10, 6029
20, 576583, Pitch_bend_c, 10, 6037
20, 576583, Pitch_bend_c, 10, 6045
20, 576584, Pitch_bend_c, 10, 6053
20, 576584, Pitch_bend_c, 10, 6061
20, 576585, Pitch_bend_c, 10, 6068
20, 576585, Pitch_bend_c, 10, 6076
20, 576586, Pitch_bend_c, 10, 6084
20, 576586, Pitch_bend_c, 10, 6092
20, 576587, Pitch_bend_c, 10, 6100
20, 576587, Pitch_bend_c, 10, 6108
20, 576588, Pitch_bend_c, 10, 6116
20, 576588, Pitch_bend_c, 10, 6124
20, 576589, Pitch_bend_c, 10, 6131
20, 576589, Pitch_bend_c, 10, 6139
20, 576590, Pitch_bend_c, 10, 6147
20, 576590, Pitch_bend_c, 10, 6155
20, 576591, Pitch_bend_c, 10, 6163
20, 576591, Pitch_bend_c, 10, 6171
20, 576592, Pitch_bend_c, 10, 6179
20, 576592, Pitch_bend_c, 10, 6186
20, 576593, Pitch_bend_c, 10, 6194
20, 576593, Pitch_bend_c, 10, 6202
20, 576594, Pitch_bend_c, 10, 6210
20, 576594, Pitch_bend_c, 10, 6218
20, 576595, Pitch_bend_c, 10, 6226
20, 576595, Pitch_bend_c, 10, 6234
20, 576596, Pitch_bend_c, 10, 6242
20, 576596, Pitch_bend_c, 10, 6249
20, 576597, Pitch_bend_c, 10, 6257
20, 576597, Pitch_bend_c, 10, 6265
20, 576598, Pitch_bend_c, 10, 6273
20, 576598, Pitch_bend_c, 10, 6281
20, 576599, Pitch_bend_c, 10, 6289
20, 576599, Pitch_bend_c, 10, 6297
20, 576600, Pitch_bend_c, 10, 6304
20, 576600, Pitch_bend_c, 10, 6312
20, 576601, Pitch_bend_c, 10, 6320
20, 576601, Pitch_bend_c, 10, 6328
20, 576602, Pitch_bend_c, 10, 6336
20, 576602, Pitch_bend_c, 10, 6344
20, 576603, Pitch_bend_c, 10, 6352
20, 576603, Pitch_bend_c, 10, 6360
20, 576604, Pitch_bend_c, 10, 6367
20, 576604, Pitch_bend_c, 10, 6375
20, 576605, Pitch_bend_c, 10, 6383
20, 576605, Pitch_bend_c, 10, 6391
20, 576606, Pitch_bend_c, 10, 6399
20, 576606, Pitch_bend_c, 10, 6407
20, 576607, Pitch_bend_c, 10, 6415
20, 576607, Pitch_bend_c, 10, 6422
20, 576608, Pitch_bend_c, 10, 6430
20, 576608, Pitch_bend_c, 10, 6438
20, 576609, Pitch_bend_c, 10, 6446
20, 576609, Pitch_bend_c, 10, 6454
20, 576610, Pitch_bend_c, 10, 6462
20, 576610, Pitch_bend_c, 10, 6470
20, 576611, Pitch_bend_c, 10, 6478
20, 576611, Pitch_bend_c, 10, 6485
20, 576612, Pitch_bend_c, 10, 6493
20, 576612, Pitch_bend_c, 10, 6501
20, 576613, Pitch_bend_c, 10, 6509
20, 576613, Pitch_bend_c, 10, 6517
20, 576614, Pitch_bend_c, 10, 6525
20, 576614, Pitch_bend_c, 10, 6533
20, 576615, Pitch_bend_c, 10, 6540
20, 576615, Pitch_bend_c, 10, 6548
20, 576616, Pitch_bend_c, 10, 6556
20, 576616, Pitch_bend_c, 10, 6564
20, 576617, Pitch_bend_c, 10, 6572
20, 576617, Pitch_bend_c, 10, 6580
20, 576618, Pitch_bend_c, 10, 6588
20, 576618, Pitch_bend_c, 10, 6596
20, 576619, Pitch_bend_c, 10, 6603
20, 576619, Pitch_bend_c, 10, 6611
20, 576620, Pitch_bend_c, 10, 6619
20, 576620, Pitch_bend_c, 10, 6627
20, 576621, Pitch_bend_c, 10, 6635
20, 576621, Pitch_bend_c, 10, 6643
20, 576622, Pitch_bend_c, 10, 6651
20, 576622, Pitch_bend_c, 10, 6658
20, 576623, Pitch_bend_c, 10, 6666
20, 576623, Pitch_bend_c, 10, 6674
20, 576624, Pitch_bend_c, 10, 6682
20, 576624, Pitch_bend_c, 10, 6690
20, 576625, Pitch_bend_c, 10, 6698
20, 576625, Pitch_bend_c, 10, 6706
20, 576626, Pitch_bend_c, 10, 6714
20, 576626, Pitch_bend_c, 10, 6721
20, 576627, Pitch_bend_c, 10, 6729
20, 576627, Pitch_bend_c, 10, 6737
20, 576628, Pitch_bend_c, 10, 6745
20, 576628, Pitch_bend_c, 10, 6753
20, 576629, Pitch_bend_c, 10, 6761
20, 576629, Pitch_bend_c, 10, 6769
20, 576630, Pitch_bend_c, 10, 6776
20, 576630, Pitch_bend_c, 10, 6784
20, 576631, Pitch_bend_c, 10, 6792
20, 576631, Pitch_bend_c, 10, 6800
20, 576632, Pitch_bend_c, 10, 6808
20, 576632, Pitch_bend_c, 10, 6816
20, 576633, Pitch_bend_c, 10, 6824
20, 576633, Pitch_bend_c, 10, 6832
20, 576634, Pitch_bend_c, 10, 6839
20, 576634, Pitch_bend_c, 10, 6847
20, 576635, Pitch_bend_c, 10, 6855
20, 576635, Pitch_bend_c, 10, 6863
20, 576636, Pitch_bend_c, 10, 6871
20, 576636, Pitch_bend_c, 10, 6879
20, 576637, Pitch_bend_c, 10, 6887
20, 576637, Pitch_bend_c, 10, 6894
20, 576638, Pitch_bend_c, 10, 6902
20, 576638, Pitch_bend_c, 10, 6910
20, 576639, Pitch_bend_c, 10, 6918
20, 576639, Pitch_bend_c, 10, 6926
20, 576640, Pitch_bend_c, 10, 6934
20, 576640, Pitch_bend_c, 10, 6942
20, 576641, Pitch_bend_c, 10, 6950
20, 576641, Pitch_bend_c, 10, 6957
20, 576642, Pitch_bend_c, 10, 6965
20, 576642, Pitch_bend_c, 10, 6973
20, 576643, Pitch_bend_c, 10, 6981
20, 576643, Pitch_bend_c, 10, 6989
20, 576644, Pitch_bend_c, 10, 6997
20, 576644, Pitch_bend_c, 10, 7005
20, 576645, Pitch_bend_c, 10, 7012
20, 576645, Pitch_bend_c, 10, 7020
20, 576646, Pitch_bend_c, 10, 7028
20, 576646, Pitch_bend_c, 10, 7036
20, 576647, Pitch_bend_c, 10, 7044
20, 576647, Pitch_bend_c, 10, 7052
20, 576648, Pitch_bend_c, 10, 7060
20, 576648, Pitch_bend_c, 10, 7068
20, 576649, Pitch_bend_c, 10, 7075
20, 576649, Pitch_bend_c, 10, 7083
20, 576650, Pitch_bend_c, 10, 7091
20, 576650, Pitch_bend_c, 10, 7099
20, 576651, Pitch_bend_c, 10, 7107
20, 576651, Pitch_bend_c, 10, 7115
20, 576652, Pitch_bend_c, 10, 7123
20, 576652, Pitch_bend_c, 10, 7130
20, 576653, Pitch_bend_c, 10, 7138
20, 576653, Pitch_bend_c, 10, 7146
20, 576654, Pitch_bend_c, 10, 7154
20, 576654, Pitch_bend_c, 10, 7162
20, 576655, Pitch_bend_c, 10, 7170
20, 576655, Pitch_bend_c, 10, 7178
20, 576656, Pitch_bend_c, 10, 7186
20, 576656, Pitch_bend_c, 10, 7193
20, 576657, Pitch_bend_c, 10, 7201
20, 576657, Pitch_bend_c, 10, 7209
20, 576658, Pitch_bend_c, 10, 7217
20, 576658, Pitch_bend_c, 10, 7225
20, 576659, Pitch_bend_c, 10, 7233
20, 576659, Pitch_bend_c, 10, 7241
20, 576660, Pitch_bend_c, 10, 7248
20, 576660, Pitch_bend_c, 10, 7256
20, 576661, Pitch_bend_c, 10, 7264
20, 576661, Pitch_bend_c, 10, 7272
20, 576662, Pitch_bend_c, 10, 7280
20, 576662, Pitch_bend_c, 10, 7288
20, 576663, Pitch_bend_c, 10, 7296
20, 576663, Pitch_bend_c, 10, 7304
20, 576664, Pitch_bend_c, 10, 7311
20, 576664, Pitch_bend_c, 10, 7319
20, 576665, Pitch_bend_c, 10, 7327
20, 576665, Pitch_bend_c, 10, 7335
20, 576666, Pitch_bend_c, 10, 7343
20, 576666, Pitch_bend_c, 10, 7351
20, 576667, Pitch_bend_c, 10, 7359
20, 576667, Pitch_bend_c, 10, 7366
20, 576668, Pitch_bend_c, 10, 7374
20, 576668, Pitch_bend_c, 10, 7382
20, 576669, Pitch_bend_c, 10, 7390
20, 576669, Pitch_bend_c, 10, 7398
20, 576670, Pitch_bend_c, 10, 7406
20, 576670, Pitch_bend_c, 10, 7414
20, 576671, Pitch_bend_c, 10, 7422
20, 576671, Pitch_bend_c, 10, 7429
20, 576672, Pitch_bend_c, 10, 7437
20, 576672, Pitch_bend_c, 10, 7445
20, 576673, Pitch_bend_c, 10, 7453
20, 576673, Pitch_bend_c, 10, 7461
20, 576674, Pitch_bend_c, 10, 7469
20, 576674, Pitch_bend_c, 10, 7477
20, 576675, Pitch_bend_c, 10, 7484
20, 576675, Pitch_bend_c, 10, 7492
20, 576676, Pitch_bend_c, 10, 7500
20, 576676, Pitch_bend_c, 10, 7508
20, 576677, Pitch_bend_c, 10, 7516
20, 576677, Pitch_bend_c, 10, 7524
20, 576678, Pitch_bend_c, 10, 7532
20, 576678, Pitch_bend_c, 10, 7540
20, 576679, Pitch_bend_c, 10, 7547
20, 576679, Pitch_bend_c, 10, 7555
20, 576680, Pitch_bend_c, 10, 7563
20, 576680, Pitch_bend_c, 10, 7571
20, 576681, Pitch_bend_c, 10, 7579
20, 576681, Pitch_bend_c, 10, 7587
20, 576682, Pitch_bend_c, 10, 7595
20, 576682, Pitch_bend_c, 10, 7602
20, 576683, Pitch_bend_c, 10, 7610
20, 576683, Pitch_bend_c, 10, 7618
20, 576684, Pitch_bend_c, 10, 7626
20, 576684, Pitch_bend_c, 10, 7634
20, 576685, Pitch_bend_c, 10, 7642
20, 576685, Pitch_bend_c, 10, 7650
20, 576686, Pitch_bend_c, 10, 7658
20, 576686, Pitch_bend_c, 10, 7665
20, 576687, Pitch_bend_c, 10, 7673
20, 576687, Pitch_bend_c, 10, 7681
20, 576688, Pitch_bend_c, 10, 7689
20, 576688, Pitch_bend_c, 10, 7697
20, 576689, Pitch_bend_c, 10, 7705
20, 576689, Pitch_bend_c, 10, 7713
20, 576690, Pitch_bend_c, 10, 7720
20, 576690, Pitch_bend_c, 10, 7728
20, 576691, Pitch_bend_c, 10, 7736
20, 576691, Pitch_bend_c, 10, 7744
20, 576692, Pitch_bend_c, 10, 7752
20, 576692, Pitch_bend_c, 10, 7760
20, 576693, Pitch_bend_c, 10, 7768
20, 576693, Pitch_bend_c, 10, 7776
20, 576694, Pitch_bend_c, 10, 7783
20, 576694, Pitch_bend_c, 10, 7791
20, 576695, Pitch_bend_c, 10, 7799
20, 576695, Pitch_bend_c, 10, 7807
20, 576696, Pitch_bend_c, 10, 7815
20, 576696, Pitch_bend_c, 10, 7823
20, 576697, Pitch_bend_c, 10, 7831
20, 576697, Pitch_bend_c, 10, 7838
20, 576698, Pitch_bend_c, 10, 7846
20, 576698, Pitch_bend_c, 10, 7854
20, 576699, Pitch_bend_c, 10, 7862
20, 576699, Pitch_bend_c, 10, 7870
20, 576700, Pitch_bend_c, 10, 7878
20, 576700, Pitch_bend_c, 10, 7886
20, 576701, Pitch_bend_c, 10, 7894
20, 576701, Pitch_bend_c, 10, 7901
20, 576702, Pitch_bend_c, 10, 7909
20, 576702, Pitch_bend_c, 10, 7917
20, 576703, Pitch_bend_c, 10, 7925
20, 576703, Pitch_bend_c, 10, 7933
20, 576704, Pitch_bend_c, 10, 7941
20, 576704, Pitch_bend_c, 10, 7949
20, 576705, Pitch_bend_c, 10, 7956
20, 576705, Pitch_bend_c, 10, 7964
20, 576706, Pitch_bend_c, 10, 7972
20, 576706, Pitch_bend_c, 10, 7980
20, 576707, Pitch_bend_c, 10, 7988
20, 576707, Pitch_bend_c, 10, 7996
20, 576708, Pitch_bend_c, 10, 8004
20, 576708, Pitch_bend_c, 10, 8012
20, 576709, Pitch_bend_c, 10, 8019
20, 576709, Pitch_bend_c, 10, 8027
20, 576710, Pitch_bend_c, 10, 8035
20, 576710, Pitch_bend_c, 10, 8043
20, 576711, Pitch_bend_c, 10, 8051
20, 576711, Pitch_bend_c, 10, 8059
20, 576712, Pitch_bend_c, 10, 8067
20, 576712, Pitch_bend_c, 10, 8074
20, 576713, Pitch_bend_c, 10, 8082
20, 576713, Pitch_bend_c, 10, 8090
20, 576714, Pitch_bend_c, 10, 8098
20, 576714, Pitch_bend_c, 10, 8106
20, 576715, Pitch_bend_c, 10, 8114
20, 576715, Pitch_bend_c, 10, 8122
20, 576716, Pitch_bend_c, 10, 8130
20, 576716, Pitch_bend_c, 10, 8137
20, 576717, Pitch_bend_c, 10, 8145
20, 576717, Pitch_bend_c, 10, 8153
20, 576718, Pitch_bend_c, 10, 8161
20, 576718, Pitch_bend_c, 10, 8169
20, 576719, Pitch_bend_c, 10, 8177
20, 576719, Pitch_bend_c, 10, 8185
20, 576720, Pitch_bend_c, 10, 8192
20, 576743, Note_on_c, 10, 51, 0
20, 578880, Pitch_bend_c, 10, 4416
20, 578880, Pitch_bend_c, 10, 4424
20, 578881, Pitch_bend_c, 10, 4432
20, 578881, Pitch_bend_c, 10, 4440
20, 578882, Pitch_bend_c, 10, 4448
20, 578882, Pitch_bend_c, 10, 4456
20, 578883, Pitch_bend_c, 10, 4464
20, 578883, Pitch_bend_c, 10, 4472
20, 578884, Pitch_bend_c, 10, 4479
20, 578884, Pitch_bend_c, 10, 4487
20, 578885, Pitch_bend_c, 10, 4495
20, 578885, Pitch_bend_c, 10, 4503
20, 578886, Pitch_bend_c, 10, 4511
20, 578886, Pitch_bend_c, 10, 4519
20, 578887, Pitch_bend_c, 10, 4527
20, 578887, Pitch_bend_c, 10, 4534
20, 578888, Pitch_bend_c, 10, 4542
20, 578888, Pitch_bend_c, 10, 4550
20, 578889, Pitch_bend_c, 10, 4558
20, 578889, Pitch_bend_c, 10, 4566
20, 578890, Pitch_bend_c, 10, 4574
20, 578890, Pitch_bend_c, 10, 4582
20, 578891, Pitch_bend_c, 10, 4590
20, 578891, Pitch_bend_c, 10, 4597
20, 578892, Pitch_bend_c, 10, 4605
20, 578892, Pitch_bend_c, 10, 4613
20, 578893, Pitch_bend_c, 10, 4621
20, 578893, Pitch_bend_c, 10, 4629
20, 578894, Pitch_bend_c, 10, 4637
20, 578894, Pitch_bend_c, 10, 4645
20, 578895, Pitch_bend_c, 10, 4652
20, 578895, Pitch_bend_c, 10, 4660
20, 578896, Pitch_bend_c, 10, 4668
20, 578896, Pitch_bend_c, 10, 4676
20, 578897, Pitch_bend_c, 10, 4684
20, 578897, Pitch_bend_c, 10, 4692
20, 578898, Pitch_bend_c, 10, 4700
20, 578898, Pitch_bend_c, 10, 4708
20, 578899, Pitch_bend_c, 10, 4715
20, 578899, Pitch_bend_c, 10, 4723
20, 578900, Pitch_bend_c, 10, 4731
20, 578900, Pitch_bend_c, 10, 4739
20, 578901, Pitch_bend_c, 10, 4747
20, 578901, Pitch_bend_c, 10, 4755
20, 578902, Pitch_bend_c, 10, 4763
20, 578902, Pitch_bend_c, 10, 4770
20, 578903, Pitch_bend_c, 10, 4778
20, 578903, Pitch_bend_c, 10, 4786
20, 578904, Pitch_bend_c, 10, 4794
20, 578904, Pitch_bend_c, 10, 4802
20, 578905, Pitch_bend_c, 10, 4810
20, 578905, Note_on_c, 10, 51, 80
20, 578905, Pitch_bend_c, 10, 4818
20, 578906, Pitch_bend_c, 10, 4826
20, 578906, Pitch_bend_c, 10, 4833
20, 578907, Pitch_bend_c, 10, 4841
20, 578907, Pitch_bend_c, 10, 4849
20, 578908, Pitch_bend_c, 10, 4857
20, 578908, Pitch_bend_c, 10, 4865
20, 578909, Pitch_bend_c, 10, 4873
20, 578909, Pitch_bend_c, 10, 4881
20, 578910, Pitch_bend_c, 10, 4888
20, 578910, Pitch_bend_c, 10, 4896
20, 578911, Pitch_bend_c, 10, 4904
20, 578911, Pitch_bend_c, 10, 4912
20, 578912, Pitch_bend_c, 10, 4920
20, 578912, Pitch_bend_c, 10, 4928
20, 578913, Pitch_bend_c, 10, 4936
20, 578913, Pitch_bend_c, 10, 4944
20, 578914, Pitch_bend_c, 10, 4951
20, 578914, Pitch_bend_c, 10, 4959
20, 578915, Pitch_bend_c, 10, 4967
20, 578915, Pitch_bend_c, 10, 4975
20, 578916, Pitch_bend_c, 10, 4983
20, 578916, Pitch_bend_c, 10, 4991
20, 578917, Pitch_bend_c, 10, 4999
20, 578917, Pitch_bend_c, 10, 5006
20, 578918, Pitch_bend_c, 10, 5014
20, 578918, Pitch_bend_c, 10, 5022
20, 578919, Pitch_bend_c, 10, 5030
20, 578919, Pitch_bend_c, 10, 5038
20, 578920, Pitch_bend_c, 10, 5046
20, 578920, Pitch_bend_c, 10, 5054
20, 578921, Pitch_bend_c, 10, 5062
20, 578921, Pitch_bend_c, 10, 5069
20, 578922, Pitch_bend_c, 10, 5077
20, 578922, Pitch_bend_c, 10, 5085
20, 578923, Pitch_bend_c, 10, 5093
20, 578923, Pitch_bend_c, 10, 5101
20, 578924, Pitch_bend_c, 10, 5109
20, 578924, Pitch_bend_c, 10, 5117
20, 578925, Pitch_bend_c, 10, 5124
20, 578925, Pitch_bend_c, 10, 5132
20, 578926, Pitch_bend_c, 10, 5140
20, 578926, Pitch_bend_c, 10, 5148
20, 578927, Pitch_bend_c, 10, 5156
20, 578927, Pitch_bend_c, 10, 5164
20, 578928, Pitch_bend_c, 10, 5172
20, 578928, Pitch_bend_c, 10, 5180
20, 578929, Pitch_bend_c, 10, 5187
20, 578929, Pitch_bend_c, 10, 5195
20, 578930, Pitch_bend_c, 10, 5203
20, 578930, Pitch_bend_c, 10, 5211
20, 578931, Pitch_bend_c, 10, 5219
20, 578931, Pitch_bend_c, 10, 5227
20, 578932, Pitch_bend_c, 10, 5235
20, 578932, Pitch_bend_c, 10, 5242
20, 578933, Pitch_bend_c, 10, 5250
20, 578933, Pitch_bend_c, 10, 5258
20, 578934, Pitch_bend_c, 10, 5266
20, 578934, Pitch_bend_c, 10, 5274
20, 578935, Pitch_bend_c, 10, 5282
20, 578935, Pitch_bend_c, 10, 5290
20, 578936, Pitch_bend_c, 10, 5298
20, 578936, Pitch_bend_c, 10, 5305
20, 578937, Pitch_bend_c, 10, 5313
20, 578937, Pitch_bend_c, 10, 5321
20, 578938, Pitch_bend_c, 10, 5329
20, 578938, Pitch_bend_c, 10, 5337
20, 578939, Pitch_bend_c, 10, 5345
20, 578939, Pitch_bend_c, 10, 5353
20, 578940, Pitch_bend_c, 10, 5360
20, 578940, Pitch_bend_c, 10, 5368
20, 578941, Pitch_bend_c, 10, 5376
20, 578941, Pitch_bend_c, 10, 5384
20, 578942, Pitch_bend_c, 10, 5392
20, 578942, Pitch_bend_c, 10, 5400
20, 578943, Pitch_bend_c, 10, 5408
20, 578943, Pitch_bend_c, 10, 5416
20, 578944, Pitch_bend_c, 10, 5423
20, 578944, Pitch_bend_c, 10, 5431
20, 578945, Pitch_bend_c, 10, 5439
20, 578945, Pitch_bend_c, 10, 5447
20, 578946, Pitch_bend_c, 10, 5455
20, 578946, Pitch_bend_c, 10, 5463
20, 578947, Pitch_bend_c, 10, 5471
20, 578947, Pitch_bend_c, 10, 5478
20, 578948, Pitch_bend_c, 10, 5486
20, 578948, Pitch_bend_c, 10, 5494
20, 578949, Pitch_bend_c, 10, 5502
20, 578949, Pitch_bend_c, 10, 5510
20, 578950, Pitch_bend_c, 10, 5518
20, 578950, Pitch_bend_c, 10, 5526
20, 578951, Pitch_bend_c, 10, 5534
20, 578951, Pitch_bend_c, 10, 5541
20, 578952, Pitch_bend_c, 10, 5549
20, 578952, Pitch_bend_c, 10, 5557
20, 578953, Pitch_bend_c, 10, 5565
20, 578953, Pitch_bend_c, 10, 5573
20, 578954, Pitch_bend_c, 10, 5581
20, 578954, Pitch_bend_c, 10, 5589
20, 578955, Pitch_bend_c, 10, 5596
20, 578955, Pitch_bend_c, 10, 5604
20, 578956, Pitch_bend_c, 10, 5612
20, 578956, Pitch_bend_c, 10, 5620
20, 578957, Pitch_bend_c, 10, 5628
20, 578957, Pitch_bend_c, 10, 5636
20, 578958, Pitch_bend_c, 10, 5644
20, 578958, Pitch_bend_c, 10, 5652
20, 578959, Pitch_bend_c, 10, 5659
20, 578959, Pitch_bend_c, 10, 5667
20, 578960, Pitch_bend_c, 10, 5675
20, 578960, Pitch_bend_c, 10, 5683
20, 578961, Pitch_bend_c, 10, 5691
20, 578961, Pitch_bend_c, 10, 5699
20, 578962, Pitch_bend_c, 10, 5707
20, 578962, Pitch_bend_c, 10, 5714
20, 578963, Pitch_bend_c, 10, 5722
20, 578963, Pitch_bend_c, 10, 5730
20, 578964, Pitch_bend_c, 10, 5738
20, 578964, Pitch_bend_c, 10, 5746
20, 578965, Pitch_bend_c, 10, 5754
20, 578965, Pitch_bend_c, 10, 5762
20, 578966, Pitch_bend_c, 10, 5770
20, 578966, Pitch_bend_c, 10, 5777
20, 578967, Pitch_bend_c, 10, 5785
20, 578967, Pitch_bend_c, 10, 5793
20, 578968, Pitch_bend_c, 10, 5801
20, 578968, Pitch_bend_c, 10, 5809
20, 578969, Pitch_bend_c, 10, 5817
20, 578969, Pitch_bend_c, 10, 5825
20, 578970, Pitch_bend_c, 10, 5832
20, 578970, Pitch_bend_c, 10, 5840
20, 578971, Pitch_bend_c, 10, 5848
20, 578971, Pitch_bend_c, 10, 5856
20, 578972, Pitch_bend_c, 10, 5864
20, 578972, Pitch_bend_c, 10, 5872
20, 578973, Pitch_bend_c, 10, 5880
20, 578973, Pitch_bend_c, 10, 5888
20, 578974, Pitch_bend_c, 10, 5895
20, 578974, Pitch_bend_c, 10, 5903
20, 578975, Pitch_bend_c, 10, 5911
20, 578975, Pitch_bend_c, 10, 5919
20, 578976, Pitch_bend_c, 10, 5927
20, 578976, Pitch_bend_c, 10, 5935
20, 578977, Pitch_bend_c, 10, 5943
20, 578977, Pitch_bend_c, 10, 5950
20, 578978, Pitch_bend_c, 10, 5958
20, 578978, Pitch_bend_c, 10, 5966
20, 578979, Pitch_bend_c, 10, 5974
20, 578979, Pitch_bend_c, 10, 5982
20, 578980, Pitch_bend_c, 10, 5990
20, 578980, Pitch_bend_c, 10, 5998
20, 578981, Pitch_bend_c, 10, 6006
20, 578981, Pitch_bend_c, 10, 6013
20, 578982, Pitch_bend_c, 10, 6021
20, 578982, Pitch_bend_c, 10, 6029
20, 578983, Pitch_bend_c, 10, 6037
20, 578983, Pitch_bend_c, 10, 6045
20, 578984, Pitch_bend_c, 10, 6053
20, 578984, Pitch_bend_c, 10, 6061
20, 578985, Pitch_bend_c, 10, 6068
20, 578985, Pitch_bend_c, 10, 6076
20, 578986, Pitch_bend_c, 10, 6084
20, 578986, Pitch_bend_c, 10, 6092
20, 578987, Pitch_bend_c, 10, 6100
20, 578987, Pitch_bend_c, 10, 6108
20, 578988, Pitch_bend_c, 10, 6116
20, 578988, Pitch_bend_c, 10, 6124
20, 578989, Pitch_bend_c, 10, 6131
20, 578989, Pitch_bend_c, 10, 6139
20, 578990, Pitch_bend_c, 10, 6147
20, 578990, Pitch_bend_c, 10, 6155
20, 578991, Pitch_bend_c, 10, 6163
20, 578991, Pitch_bend_c, 10, 6171
20, 578992, Pitch_bend_c, 10, 6179
20, 578992, Pitch_bend_c, 10, 6186
20, 578993, Pitch_bend_c, 10, 6194
20, 578993, Pitch_bend_c, 10, 6202
20, 578994, Pitch_bend_c, 10, 6210
20, 578994, Pitch_bend_c, 10, 6218
20, 578995, Pitch_bend_c, 10, 6226
20, 578995, Pitch_bend_c, 10, 6234
20, 578996, Pitch_bend_c, 10, 6242
20, 578996, Pitch_bend_c, 10, 6249
20, 578997, Pitch_bend_c, 10, 6257
20, 578997, Pitch_bend_c, 10, 6265
20, 578998, Pitch_bend_c, 10, 6273
20, 578998, Pitch_bend_c, 10, 6281
20, 578999, Pitch_bend_c, 10, 6289
20, 578999, Pitch_bend_c, 10, 6297
20, 579000, Pitch_bend_c, 10, 6304
20, 579000, Pitch_bend_c, 10, 6312
20, 579001, Pitch_bend_c, 10, 6320
20, 579001, Pitch_bend_c, 10, 6328
20, 579002, Pitch_bend_c, 10, 6336
20, 579002, Pitch_bend_c, 10, 6344
20, 579003, Pitch_bend_c, 10, 6352
20, 579003, Pitch_bend_c, 10, 6360
20, 579004, Pitch_bend_c, 10, 6367
20, 579004, Pitch_bend_c, 10, 6375
20, 579005, Pitch_bend_c, 10, 6383
20, 579005, Pitch_bend_c, 10, 6391
20, 579006, Pitch_bend_c, 10, 6399
20, 579006, Pitch_bend_c, 10, 6407
20, 579007, Pitch_bend_c, 10, 6415
20, 579007, Pitch_bend_c, 10, 6422
20, 579008, Pitch_bend_c, 10, 6430
20, 579008, Pitch_bend_c, 10, 6438
20, 579009, Pitch_bend_c, 10, 6446
20, 579009, Pitch_bend_c, 10, 6454
20, 579010, Pitch_bend_c, 10, 6462
20, 579010, Pitch_bend_c, 10, 6470
20, 579011, Pitch_bend_c, 10, 6478
20, 579011, Pitch_bend_c, 10, 6485
20, 579012, Pitch_bend_c, 10, 6493
20, 579012, Pitch_bend_c, 10, 6501
20, 579013, Pitch_bend_c, 10, 6509
20, 579013, Pitch_bend_c, 10, 6517
20, 579014, Pitch_bend_c, 10, 6525
20, 579014, Pitch_bend_c, 10, 6533
20, 579015, Pitch_bend_c, 10, 6540
20, 579015, Pitch_bend_c, 10, 6548
20, 579016, Pitch_bend_c, 10, 6556
20, 579016, Pitch_bend_c, 10, 6564
20, 579017, Pitch_bend_c, 10, 6572
20, 579017, Pitch_bend_c, 10, 6580
20, 579018, Pitch_bend_c, 10, 6588
20, 579018, Pitch_bend_c, 10, 6596
20, 579019, Pitch_bend_c, 10, 6603
20, 579019, Pitch_bend_c, 10, 6611
20, 579020, Pitch_bend_c, 10, 6619
20, 579020, Pitch_bend_c, 10, 6627
20, 579021, Pitch_bend_c, 10, 6635
20, 579021, Pitch_bend_c, 10, 6643
20, 579022, Pitch_bend_c, 10, 6651
20, 579022, Pitch_bend_c, 10, 6658
20, 579023, Pitch_bend_c, 10, 6666
20, 579023, Pitch_bend_c, 10, 6674
20, 579024, Pitch_bend_c, 10, 6682
20, 579024, Pitch_bend_c, 10, 6690
20, 579025, Pitch_bend_c, 10, 6698
20, 579025, Pitch_bend_c, 10, 6706
20, 579026, Pitch_bend_c, 10, 6714
20, 579026, Pitch_bend_c, 10, 6721
20, 579027, Pitch_bend_c, 10, 6729
20, 579027, Pitch_bend_c, 10, 6737
20, 579028, Pitch_bend_c, 10, 6745
20, 579028, Pitch_bend_c, 10, 6753
20, 579029, Pitch_bend_c, 10, 6761
20, 579029, Pitch_bend_c, 10, 6769
20, 579030, Pitch_bend_c, 10, 6776
20, 579030, Pitch_bend_c, 10, 6784
20, 579031, Pitch_bend_c, 10, 6792
20, 579031, Pitch_bend_c, 10, 6800
20, 579032, Pitch_bend_c, 10, 6808
20, 579032, Pitch_bend_c, 10, 6816
20, 579033, Pitch_bend_c, 10, 6824
20, 579033, Pitch_bend_c, 10, 6832
20, 579034, Pitch_bend_c, 10, 6839
20, 579034, Pitch_bend_c, 10, 6847
20, 579035, Pitch_bend_c, 10, 6855
20, 579035, Pitch_bend_c, 10, 6863
20, 579036, Pitch_bend_c, 10, 6871
20, 579036, Pitch_bend_c, 10, 6879
20, 579037, Pitch_bend_c, 10, 6887
20, 579037, Pitch_bend_c, 10, 6894
20, 579038, Pitch_bend_c, 10, 6902
20, 579038, Pitch_bend_c, 10, 6910
20, 579039, Pitch_bend_c, 10, 6918
20, 579039, Pitch_bend_c, 10, 6926
20, 579040, Pitch_bend_c, 10, 6934
20, 579040, Pitch_bend_c, 10, 6942
20, 579041, Pitch_bend_c, 10, 6950
20, 579041, Pitch_bend_c, 10, 6957
20, 579042, Pitch_bend_c, 10, 6965
20, 579042, Pitch_bend_c, 10, 6973
20, 579043, Pitch_bend_c, 10, 6981
20, 579043, Pitch_bend_c, 10, 6989
20, 579044, Pitch_bend_c, 10, 6997
20, 579044, Pitch_bend_c, 10, 7005
20, 579045, Pitch_bend_c, 10, 7012
20, 579045, Pitch_bend_c, 10, 7020
20, 579046, Pitch_bend_c, 10, 7028
20, 579046, Pitch_bend_c, 10, 7036
20, 579047, Pitch_bend_c, 10, 7044
20, 579047, Pitch_bend_c, 10, 7052
20, 579048, Pitch_bend_c, 10, 7060
20, 579048, Pitch_bend_c, 10, 7068
20, 579049, Pitch_bend_c, 10, 7075
20, 579049, Pitch_bend_c, 10, 7083
20, 579050, Pitch_bend_c, 10, 7091
20, 579050, Pitch_bend_c, 10, 7099
20, 579051, Pitch_bend_c, 10, 7107
20, 579051, Pitch_bend_c, 10, 7115
20, 579052, Pitch_bend_c, 10, 7123
20, 579052, Pitch_bend_c, 10, 7130
20, 579053, Pitch_bend_c, 10, 7138
20, 579053, Pitch_bend_c, 10, 7146
20, 579054, Pitch_bend_c, 10, 7154
20, 579054, Pitch_bend_c, 10, 7162
20, 579055, Pitch_bend_c, 10, 7170
20, 579055, Pitch_bend_c, 10, 7178
20, 579056, Pitch_bend_c, 10, 7186
20, 579056, Pitch_bend_c, 10, 7193
20, 579057, Pitch_bend_c, 10, 7201
20, 579057, Pitch_bend_c, 10, 7209
20, 579058, Pitch_bend_c, 10, 7217
20, 579058, Pitch_bend_c, 10, 7225
20, 579059, Pitch_bend_c, 10, 7233
20, 579059, Pitch_bend_c, 10, 7241
20, 579060, Pitch_bend_c, 10, 7248
20, 579060, Pitch_bend_c, 10, 7256
20, 579061, Pitch_bend_c, 10, 7264
20, 579061, Pitch_bend_c, 10, 7272
20, 579062, Pitch_bend_c, 10, 7280
20, 579062, Pitch_bend_c, 10, 7288
20, 579063, Pitch_bend_c, 10, 7296
20, 579063, Pitch_bend_c, 10, 7304
20, 579064, Pitch_bend_c, 10, 7311
20, 579064, Pitch_bend_c, 10, 7319
20, 579065, Pitch_bend_c, 10, 7327
20, 579065, Pitch_bend_c, 10, 7335
20, 579066, Pitch_bend_c, 10, 7343
20, 579066, Pitch_bend_c, 10, 7351
20, 579067, Pitch_bend_c, 10, 7359
20, 579067, Pitch_bend_c, 10, 7366
20, 579068, Pitch_bend_c, 10, 7374
20, 579068, Pitch_bend_c, 10, 7382
20, 579069, Pitch_bend_c, 10, 7390
20, 579069, Pitch_bend_c, 10, 7398
20, 579070, Pitch_bend_c, 10, 7406
20, 579070, Pitch_bend_c, 10, 7414
20, 579071, Pitch_bend_c, 10, 7422
20, 579071, Pitch_bend_c, 10, 7429
20, 579072, Pitch_bend_c, 10, 7437
20, 579072, Pitch_bend_c, 10, 7445
20, 579073, Pitch_bend_c, 10, 7453
20, 579073, Pitch_bend_c, 10, 7461
20, 579074, Pitch_bend_c, 10, 7469
20, 579074, Pitch_bend_c, 10, 7477
20, 579075, Pitch_bend_c, 10, 7484
20, 579075, Pitch_bend_c, 10, 7492
20, 579076, Pitch_bend_c, 10, 7500
20, 579076, Pitch_bend_c, 10, 7508
20, 579077, Pitch_bend_c, 10, 7516
20, 579077, Pitch_bend_c, 10, 7524
20, 579078, Pitch_bend_c, 10, 7532
20, 579078, Pitch_bend_c, 10, 7540
20, 579079, Pitch_bend_c, 10, 7547
20, 579079, Pitch_bend_c, 10, 7555
20, 579080, Pitch_bend_c, 10, 7563
20, 579080, Pitch_bend_c, 10, 7571
20, 579081, Pitch_bend_c, 10, 7579
20, 579081, Pitch_bend_c, 10, 7587
20, 579082, Pitch_bend_c, 10, 7595
20, 579082, Pitch_bend_c, 10, 7602
20, 579083, Pitch_bend_c, 10, 7610
20, 579083, Pitch_bend_c, 10, 7618
20, 579084, Pitch_bend_c, 10, 7626
20, 579084, Pitch_bend_c, 10, 7634
20, 579085, Pitch_bend_c, 10, 7642
20, 579085, Pitch_bend_c, 10, 7650
20, 579086, Pitch_bend_c, 10, 7658
20, 579086, Pitch_bend_c, 10, 7665
20, 579087, Pitch_bend_c, 10, 7673
20, 579087, Pitch_bend_c, 10, 7681
20, 579088, Pitch_bend_c, 10, 7689
20, 579088, Pitch_bend_c, 10, 7697
20, 579089, Pitch_bend_c, 10, 7705
20, 579089, Pitch_bend_c, 10, 7713
20, 579090, Pitch_bend_c, 10, 7720
20, 579090, Pitch_bend_c, 10, 7728
20, 579091, Pitch_bend_c, 10, 7736
20, 579091, Pitch_bend_c, 10, 7744
20, 579092, Pitch_bend_c, 10, 7752
20, 579092, Pitch_bend_c, 10, 7760
20, 579093, Pitch_bend_c, 10, 7768
20, 579093, Pitch_bend_c, 10, 7776
20, 579094, Pitch_bend_c, 10, 7783
20, 579094, Pitch_bend_c, 10, 7791
20, 579095, Pitch_bend_c, 10, 7799
20, 579095, Pitch_bend_c, 10, 7807
20, 579096, Pitch_bend_c, 10, 7815
20, 579096, Pitch_bend_c, 10, 7823
20, 579097, Pitch_bend_c, 10, 7831
20, 579097, Pitch_bend_c, 10, 7838
20, 579098, Pitch_bend_c, 10, 7846
20, 579098, Pitch_bend_c, 10, 7854
20, 579099, Pitch_bend_c, 10, 7862
20, 579099, Pitch_bend_c, 10, 7870
20, 579100, Pitch_bend_c, 10, 7878
20, 579100, Pitch_bend_c, 10, 7886
20, 579101, Pitch_bend_c, 10, 7894
20, 579101, Pitch_bend_c, 10, 7901
20, 579102, Pitch_bend_c, 10, 7909
20, 579102, Pitch_bend_c, 10, 7917
20, 579103, Pitch_bend_c, 10, 7925
20, 579103, Pitch_bend_c, 10, 7933
20, 579104, Pitch_bend_c, 10, 7941
20, 579104, Pitch_bend_c, 10, 7949
20, 579105, Pitch_bend_c, 10, 7956
20, 579105, Pitch_bend_c, 10, 7964
20, 579106, Pitch_bend_c, 10, 7972
20, 579106, Pitch_bend_c, 10, 7980
20, 579107, Pitch_bend_c, 10, 7988
20, 579107, Pitch_bend_c, 10, 7996
20, 579108, Pitch_bend_c, 10, 8004
20, 579108, Pitch_bend_c, 10, 8012
20, 579109, Pitch_bend_c, 10, 8019
20, 579109, Pitch_bend_c, 10, 8027
20, 579110, Pitch_bend_c, 10, 8035
20, 579110, Pitch_bend_c, 10, 8043
20, 579111, Pitch_bend_c, 10, 8051
20, 579111, Pitch_bend_c, 10, 8059
20, 579112, Pitch_bend_c, 10, 8067
20, 579112, Pitch_bend_c, 10, 8074
20, 579113, Pitch_bend_c, 10, 8082
20, 579113, Pitch_bend_c, 10, 8090
20, 579114, Pitch_bend_c, 10, 8098
20, 579114, Pitch_bend_c, 10, 8106
20, 579115, Pitch_bend_c, 10, 8114
20, 579115, Pitch_bend_c, 10, 8122
20, 579116, Pitch_bend_c, 10, 8130
20, 579116, Pitch_bend_c, 10, 8137
20, 579117, Pitch_bend_c, 10, 8145
20, 579117, Pitch_bend_c, 10, 8153
20, 579118, Pitch_bend_c, 10, 8161
20, 579118, Pitch_bend_c, 10, 8169
20, 579119, Pitch_bend_c, 10, 8177
20, 579119, Pitch_bend_c, 10, 8185
20, 579120, Pitch_bend_c, 10, 8192
20, 579145, Note_on_c, 10, 51, 0
20, 581280, Pitch_bend_c, 10, 4416
20, 581280, Pitch_bend_c, 10, 4424
20, 581281, Pitch_bend_c, 10, 4432
20, 581281, Pitch_bend_c, 10, 4440
20, 581282, Pitch_bend_c, 10, 4448
20, 581282, Pitch_bend_c, 10, 4456
20, 581283, Pitch_bend_c, 10, 4464
20, 581283, Pitch_bend_c, 10, 4472
20, 581284, Pitch_bend_c, 10, 4479
20, 581284, Pitch_bend_c, 10, 4487
20, 581285, Pitch_bend_c, 10, 4495
20, 581285, Pitch_bend_c, 10, 4503
20, 581286, Pitch_bend_c, 10, 4511
20, 581286, Pitch_bend_c, 10, 4519
20, 581287, Pitch_bend_c, 10, 4527
20, 581287, Pitch_bend_c, 10, 4534
20, 581288, Pitch_bend_c, 10, 4542
20, 581288, Pitch_bend_c, 10, 4550
20, 581289, Pitch_bend_c, 10, 4558
20, 581289, Pitch_bend_c, 10, 4566
20, 581290, Pitch_bend_c, 10, 4574
20, 581290, Pitch_bend_c, 10, 4582
20, 581291, Pitch_bend_c, 10, 4590
20, 581291, Pitch_bend_c, 10, 4597
20, 581292, Pitch_bend_c, 10, 4605
20, 581292, Pitch_bend_c, 10, 4613
20, 581293, Pitch_bend_c, 10, 4621
20, 581293, Pitch_bend_c, 10, 4629
20, 581294, Note_on_c, 10, 51, 81
20, 581294, Pitch_bend_c, 10, 4637
20, 581294, Pitch_bend_c, 10, 4645
20, 581295, Pitch_bend_c, 10, 4652
20, 581295, Pitch_bend_c, 10, 4660
20, 581296, Pitch_bend_c, 10, 4668
20, 581296, Pitch_bend_c, 10, 4676
20, 581297, Pitch_bend_c, 10, 4684
20, 581297, Pitch_bend_c, 10, 4692
20, 581298, Pitch_bend_c, 10, 4700
20, 581298, Pitch_bend_c, 10, 4708
20, 581299, Pitch_bend_c, 10, 4715
20, 581299, Pitch_bend_c, 10, 4723
20, 581300, Pitch_bend_c, 10, 4731
20, 581300, Pitch_bend_c, 10, 4739
20, 581301, Pitch_bend_c, 10, 4747
20, 581301, Pitch_bend_c, 10, 4755
20, 581302, Pitch_bend_c, 10, 4763
20, 581302, Pitch_bend_c, 10, 4770
20, 581303, Pitch_bend_c, 10, 4778
20, 581303, Pitch_bend_c, 10, 4786
20, 581304, Pitch_bend_c, 10, 4794
20, 581304, Pitch_bend_c, 10, 4802
20, 581305, Pitch_bend_c, 10, 4810
20, 581305, Pitch_bend_c, 10, 4818
20, 581306, Pitch_bend_c, 10, 4826
20, 581306, Pitch_bend_c, 10, 4833
20, 581307, Pitch_bend_c, 10, 4841
20, 581307, Pitch_bend_c, 10, 4849
20, 581308, Pitch_bend_c, 10, 4857
20, 581308, Pitch_bend_c, 10, 4865
20, 581309, Pitch_bend_c, 10, 4873
20, 581309, Pitch_bend_c, 10, 4881
20, 581310, Pitch_bend_c, 10, 4888
20, 581310, Pitch_bend_c, 10, 4896
20, 581311, Pitch_bend_c, 10, 4904
20, 581311, Pitch_bend_c, 10, 4912
20, 581312, Pitch_bend_c, 10, 4920
20, 581312, Pitch_bend_c, 10, 4928
20, 581313, Pitch_bend_c, 10, 4936
20, 581313, Pitch_bend_c, 10, 4944
20, 581314, Pitch_bend_c, 10, 4951
20, 581314, Pitch_bend_c, 10, 4959
20, 581315, Pitch_bend_c, 10, 4967
20, 581315, Pitch_bend_c, 10, 4975
20, 581316, Pitch_bend_c, 10, 4983
20, 581316, Pitch_bend_c, 10, 4991
20, 581317, Pitch_bend_c, 10, 4999
20, 581317, Pitch_bend_c, 10, 5006
20, 581318, Pitch_bend_c, 10, 5014
20, 581318, Pitch_bend_c, 10, 5022
20, 581319, Pitch_bend_c, 10, 5030
20, 581319, Pitch_bend_c, 10, 5038
20, 581320, Pitch_bend_c, 10, 5046
20, 581320, Pitch_bend_c, 10, 5054
20, 581321, Pitch_bend_c, 10, 5062
20, 581321, Pitch_bend_c, 10, 5069
20, 581322, Pitch_bend_c, 10, 5077
20, 581322, Pitch_bend_c, 10, 5085
20, 581323, Pitch_bend_c, 10, 5093
20, 581323, Pitch_bend_c, 10, 5101
20, 581324, Pitch_bend_c, 10, 5109
20, 581324, Pitch_bend_c, 10, 5117
20, 581325, Pitch_bend_c, 10, 5124
20, 581325, Pitch_bend_c, 10, 5132
20, 581326, Pitch_bend_c, 10, 5140
20, 581326, Pitch_bend_c, 10, 5148
20, 581327, Pitch_bend_c, 10, 5156
20, 581327, Pitch_bend_c, 10, 5164
20, 581328, Pitch_bend_c, 10, 5172
20, 581328, Pitch_bend_c, 10, 5180
20, 581329, Pitch_bend_c, 10, 5187
20, 581329, Pitch_bend_c, 10, 5195
20, 581330, Pitch_bend_c, 10, 5203
20, 581330, Pitch_bend_c, 10, 5211
20, 581331, Pitch_bend_c, 10, 5219
20, 581331, Pitch_bend_c, 10, 5227
20, 581332, Pitch_bend_c, 10, 5235
20, 581332, Pitch_bend_c, 10, 5242
20, 581333, Pitch_bend_c, 10, 5250
20, 581333, Pitch_bend_c, 10, 5258
20, 581334, Pitch_bend_c, 10, 5266
20, 581334, Pitch_bend_c, 10, 5274
20, 581335, Pitch_bend_c, 10, 5282
20, 581335, Pitch_bend_c, 10, 5290
20, 581336, Pitch_bend_c, 10, 5298
20, 581336, Pitch_bend_c, 10, 5305
20, 581337, Pitch_bend_c, 10, 5313
20, 581337, Pitch_bend_c, 10, 5321
20, 581338, Pitch_bend_c, 10, 5329
20, 581338, Pitch_bend_c, 10, 5337
20, 581339, Pitch_bend_c, 10, 5345
20, 581339, Pitch_bend_c, 10, 5353
20, 581340, Pitch_bend_c, 10, 5360
20, 581340, Pitch_bend_c, 10, 5368
20, 581341, Pitch_bend_c, 10, 5376
20, 581341, Pitch_bend_c, 10, 5384
20, 581342, Pitch_bend_c, 10, 5392
20, 581342, Pitch_bend_c, 10, 5400
20, 581343, Pitch_bend_c, 10, 5408
20, 581343, Pitch_bend_c, 10, 5416
20, 581344, Pitch_bend_c, 10, 5423
20, 581344, Pitch_bend_c, 10, 5431
20, 581345, Pitch_bend_c, 10, 5439
20, 581345, Pitch_bend_c, 10, 5447
20, 581346, Pitch_bend_c, 10, 5455
20, 581346, Pitch_bend_c, 10, 5463
20, 581347, Pitch_bend_c, 10, 5471
20, 581347, Pitch_bend_c, 10, 5478
20, 581348, Pitch_bend_c, 10, 5486
20, 581348, Pitch_bend_c, 10, 5494
20, 581349, Pitch_bend_c, 10, 5502
20, 581349, Pitch_bend_c, 10, 5510
20, 581350, Pitch_bend_c, 10, 5518
20, 581350, Pitch_bend_c, 10, 5526
20, 581351, Pitch_bend_c, 10, 5534
20, 581351, Pitch_bend_c, 10, 5541
20, 581352, Pitch_bend_c, 10, 5549
20, 581352, Pitch_bend_c, 10, 5557
20, 581353, Pitch_bend_c, 10, 5565
20, 581353, Pitch_bend_c, 10, 5573
20, 581354, Pitch_bend_c, 10, 5581
20, 581354, Pitch_bend_c, 10, 5589
20, 581355, Pitch_bend_c, 10, 5596
20, 581355, Pitch_bend_c, 10, 5604
20, 581356, Pitch_bend_c, 10, 5612
20, 581356, Pitch_bend_c, 10, 5620
20, 581357, Pitch_bend_c, 10, 5628
20, 581357, Pitch_bend_c, 10, 5636
20, 581358, Pitch_bend_c, 10, 5644
20, 581358, Pitch_bend_c, 10, 5652
20, 581359, Pitch_bend_c, 10, 5659
20, 581359, Pitch_bend_c, 10, 5667
20, 581360, Pitch_bend_c, 10, 5675
20, 581360, Pitch_bend_c, 10, 5683
20, 581361, Pitch_bend_c, 10, 5691
20, 581361, Pitch_bend_c, 10, 5699
20, 581362, Pitch_bend_c, 10, 5707
20, 581362, Pitch_bend_c, 10, 5714
20, 581363, Pitch_bend_c, 10, 5722
20, 581363, Pitch_bend_c, 10, 5730
20, 581364, Pitch_bend_c, 10, 5738
20, 581364, Pitch_bend_c, 10, 5746
20, 581365, Pitch_bend_c, 10, 5754
20, 581365, Pitch_bend_c, 10, 5762
20, 581366, Pitch_bend_c, 10, 5770
20, 581366, Pitch_bend_c, 10, 5777
20, 581367, Pitch_bend_c, 10, 5785
20, 581367, Pitch_bend_c, 10, 5793
20, 581368, Pitch_bend_c, 10, 5801
20, 581368, Pitch_bend_c, 10, 5809
20, 581369, Pitch_bend_c, 10, 5817
20, 581369, Pitch_bend_c, 10, 5825
20, 581370, Pitch_bend_c, 10, 5832
20, 581370, Pitch_bend_c, 10, 5840
20, 581371, Pitch_bend_c, 10, 5848
20, 581371, Pitch_bend_c, 10, 5856
20, 581372, Pitch_bend_c, 10, 5864
20, 581372, Pitch_bend_c, 10, 5872
20, 581373, Pitch_bend_c, 10, 5880
20, 581373, Pitch_bend_c, 10, 5888
20, 581374, Pitch_bend_c, 10, 5895
20, 581374, Pitch_bend_c, 10, 5903
20, 581375, Pitch_bend_c, 10, 5911
20, 581375, Pitch_bend_c, 10, 5919
20, 581376, Pitch_bend_c, 10, 5927
20, 581376, Pitch_bend_c, 10, 5935
20, 581377, Pitch_bend_c, 10, 5943
20, 581377, Pitch_bend_c, 10, 5950
20, 581378, Pitch_bend_c, 10, 5958
20, 581378, Pitch_bend_c, 10, 5966
20, 581379, Pitch_bend_c, 10, 5974
20, 581379, Pitch_bend_c, 10, 5982
20, 581380, Pitch_bend_c, 10, 5990
20, 581380, Pitch_bend_c, 10, 5998
20, 581381, Pitch_bend_c, 10, 6006
20, 581381, Pitch_bend_c, 10, 6013
20, 581382, Pitch_bend_c, 10, 6021
20, 581382, Pitch_bend_c, 10, 6029
20, 581383, Pitch_bend_c, 10, 6037
20, 581383, Pitch_bend_c, 10, 6045
20, 581384, Pitch_bend_c, 10, 6053
20, 581384, Pitch_bend_c, 10, 6061
20, 581385, Pitch_bend_c, 10, 6068
20, 581385, Pitch_bend_c, 10, 6076
20, 581386, Pitch_bend_c, 10, 6084
20, 581386, Pitch_bend_c, 10, 6092
20, 581387, Pitch_bend_c, 10, 6100
20, 581387, Pitch_bend_c, 10, 6108
20, 581388, Pitch_bend_c, 10, 6116
20, 581388, Pitch_bend_c, 10, 6124
20, 581389, Pitch_bend_c, 10, 6131
20, 581389, Pitch_bend_c, 10, 6139
20, 581390, Pitch_bend_c, 10, 6147
20, 581390, Pitch_bend_c, 10, 6155
20, 581391, Pitch_bend_c, 10, 6163
20, 581391, Pitch_bend_c, 10, 6171
20, 581392, Pitch_bend_c, 10, 6179
20, 581392, Pitch_bend_c, 10, 6186
20, 581393, Pitch_bend_c, 10, 6194
20, 581393, Pitch_bend_c, 10, 6202
20, 581394, Pitch_bend_c, 10, 6210
20, 581394, Pitch_bend_c, 10, 6218
20, 581395, Pitch_bend_c, 10, 6226
20, 581395, Pitch_bend_c, 10, 6234
20, 581396, Pitch_bend_c, 10, 6242
20, 581396, Pitch_bend_c, 10, 6249
20, 581397, Pitch_bend_c, 10, 6257
20, 581397, Pitch_bend_c, 10, 6265
20, 581398, Pitch_bend_c, 10, 6273
20, 581398, Pitch_bend_c, 10, 6281
20, 581399, Pitch_bend_c, 10, 6289
20, 581399, Pitch_bend_c, 10, 6297
20, 581400, Pitch_bend_c, 10, 6304
20, 581400, Pitch_bend_c, 10, 6312
20, 581401, Pitch_bend_c, 10, 6320
20, 581401, Pitch_bend_c, 10, 6328
20, 581402, Pitch_bend_c, 10, 6336
20, 581402, Pitch_bend_c, 10, 6344
20, 581403, Pitch_bend_c, 10, 6352
20, 581403, Pitch_bend_c, 10, 6360
20, 581404, Pitch_bend_c, 10, 6367
20, 581404, Pitch_bend_c, 10, 6375
20, 581405, Pitch_bend_c, 10, 6383
20, 581405, Pitch_bend_c, 10, 6391
20, 581406, Pitch_bend_c, 10, 6399
20, 581406, Pitch_bend_c, 10, 6407
20, 581407, Pitch_bend_c, 10, 6415
20, 581407, Pitch_bend_c, 10, 6422
20, 581408, Pitch_bend_c, 10, 6430
20, 581408, Pitch_bend_c, 10, 6438
20, 581409, Pitch_bend_c, 10, 6446
20, 581409, Pitch_bend_c, 10, 6454
20, 581410, Pitch_bend_c, 10, 6462
20, 581410, Pitch_bend_c, 10, 6470
20, 581411, Pitch_bend_c, 10, 6478
20, 581411, Pitch_bend_c, 10, 6485
20, 581412, Pitch_bend_c, 10, 6493
20, 581412, Pitch_bend_c, 10, 6501
20, 581413, Pitch_bend_c, 10, 6509
20, 581413, Pitch_bend_c, 10, 6517
20, 581414, Pitch_bend_c, 10, 6525
20, 581414, Pitch_bend_c, 10, 6533
20, 581415, Pitch_bend_c, 10, 6540
20, 581415, Pitch_bend_c, 10, 6548
20, 581416, Pitch_bend_c, 10, 6556
20, 581416, Pitch_bend_c, 10, 6564
20, 581417, Pitch_bend_c, 10, 6572
20, 581417, Pitch_bend_c, 10, 6580
20, 581418, Pitch_bend_c, 10, 6588
20, 581418, Pitch_bend_c, 10, 6596
20, 581419, Pitch_bend_c, 10, 6603
20, 581419, Pitch_bend_c, 10, 6611
20, 581420, Pitch_bend_c, 10, 6619
20, 581420, Pitch_bend_c, 10, 6627
20, 581421, Pitch_bend_c, 10, 6635
20, 581421, Pitch_bend_c, 10, 6643
20, 581422, Pitch_bend_c, 10, 6651
20, 581422, Pitch_bend_c, 10, 6658
20, 581423, Pitch_bend_c, 10, 6666
20, 581423, Pitch_bend_c, 10, 6674
20, 581424, Pitch_bend_c, 10, 6682
20, 581424, Pitch_bend_c, 10, 6690
20, 581425, Pitch_bend_c, 10, 6698
20, 581425, Pitch_bend_c, 10, 6706
20, 581426, Pitch_bend_c, 10, 6714
20, 581426, Pitch_bend_c, 10, 6721
20, 581427, Pitch_bend_c, 10, 6729
20, 581427, Pitch_bend_c, 10, 6737
20, 581428, Pitch_bend_c, 10, 6745
20, 581428, Pitch_bend_c, 10, 6753
20, 581429, Pitch_bend_c, 10, 6761
20, 581429, Pitch_bend_c, 10, 6769
20, 581430, Pitch_bend_c, 10, 6776
20, 581430, Pitch_bend_c, 10, 6784
20, 581431, Pitch_bend_c, 10, 6792
20, 581431, Pitch_bend_c, 10, 6800
20, 581432, Pitch_bend_c, 10, 6808
20, 581432, Pitch_bend_c, 10, 6816
20, 581433, Pitch_bend_c, 10, 6824
20, 581433, Pitch_bend_c, 10, 6832
20, 581434, Pitch_bend_c, 10, 6839
20, 581434, Pitch_bend_c, 10, 6847
20, 581435, Pitch_bend_c, 10, 6855
20, 581435, Pitch_bend_c, 10, 6863
20, 581436, Pitch_bend_c, 10, 6871
20, 581436, Pitch_bend_c, 10, 6879
20, 581437, Pitch_bend_c, 10, 6887
20, 581437, Pitch_bend_c, 10, 6894
20, 581438, Pitch_bend_c, 10, 6902
20, 581438, Pitch_bend_c, 10, 6910
20, 581439, Pitch_bend_c, 10, 6918
20, 581439, Pitch_bend_c, 10, 6926
20, 581440, Pitch_bend_c, 10, 6934
20, 581440, Pitch_bend_c, 10, 6942
20, 581441, Pitch_bend_c, 10, 6950
20, 581441, Pitch_bend_c, 10, 6957
20, 581442, Pitch_bend_c, 10, 6965
20, 581442, Pitch_bend_c, 10, 6973
20, 581443, Pitch_bend_c, 10, 6981
20, 581443, Pitch_bend_c, 10, 6989
20, 581444, Pitch_bend_c, 10, 6997
20, 581444, Pitch_bend_c, 10, 7005
20, 581445, Pitch_bend_c, 10, 7012
20, 581445, Pitch_bend_c, 10, 7020
20, 581446, Pitch_bend_c, 10, 7028
20, 581446, Pitch_bend_c, 10, 7036
20, 581447, Pitch_bend_c, 10, 7044
20, 581447, Pitch_bend_c, 10, 7052
20, 581448, Pitch_bend_c, 10, 7060
20, 581448, Pitch_bend_c, 10, 7068
20, 581449, Pitch_bend_c, 10, 7075
20, 581449, Pitch_bend_c, 10, 7083
20, 581450, Pitch_bend_c, 10, 7091
20, 581450, Pitch_bend_c, 10, 7099
20, 581451, Pitch_bend_c, 10, 7107
20, 581451, Pitch_bend_c, 10, 7115
20, 581452, Pitch_bend_c, 10, 7123
20, 581452, Pitch_bend_c, 10, 7130
20, 581453, Pitch_bend_c, 10, 7138
20, 581453, Pitch_bend_c, 10, 7146
20, 581454, Pitch_bend_c, 10, 7154
20, 581454, Pitch_bend_c, 10, 7162
20, 581455, Pitch_bend_c, 10, 7170
20, 581455, Pitch_bend_c, 10, 7178
20, 581456, Pitch_bend_c, 10, 7186
20, 581456, Pitch_bend_c, 10, 7193
20, 581457, Pitch_bend_c, 10, 7201
20, 581457, Pitch_bend_c, 10, 7209
20, 581458, Pitch_bend_c, 10, 7217
20, 581458, Pitch_bend_c, 10, 7225
20, 581459, Pitch_bend_c, 10, 7233
20, 581459, Pitch_bend_c, 10, 7241
20, 581460, Pitch_bend_c, 10, 7248
20, 581460, Pitch_bend_c, 10, 7256
20, 581461, Pitch_bend_c, 10, 7264
20, 581461, Pitch_bend_c, 10, 7272
20, 581462, Pitch_bend_c, 10, 7280
20, 581462, Pitch_bend_c, 10, 7288
20, 581463, Pitch_bend_c, 10, 7296
20, 581463, Pitch_bend_c, 10, 7304
20, 581464, Pitch_bend_c, 10, 7311
20, 581464, Pitch_bend_c, 10, 7319
20, 581465, Pitch_bend_c, 10, 7327
20, 581465, Pitch_bend_c, 10, 7335
20, 581466, Pitch_bend_c, 10, 7343
20, 581466, Pitch_bend_c, 10, 7351
20, 581467, Pitch_bend_c, 10, 7359
20, 581467, Pitch_bend_c, 10, 7366
20, 581468, Pitch_bend_c, 10, 7374
20, 581468, Pitch_bend_c, 10, 7382
20, 581469, Pitch_bend_c, 10, 7390
20, 581469, Pitch_bend_c, 10, 7398
20, 581470, Pitch_bend_c, 10, 7406
20, 581470, Pitch_bend_c, 10, 7414
20, 581471, Pitch_bend_c, 10, 7422
20, 581471, Pitch_bend_c, 10, 7429
20, 581472, Pitch_bend_c, 10, 7437
20, 581472, Pitch_bend_c, 10, 7445
20, 581473, Pitch_bend_c, 10, 7453
20, 581473, Pitch_bend_c, 10, 7461
20, 581474, Pitch_bend_c, 10, 7469
20, 581474, Pitch_bend_c, 10, 7477
20, 581475, Pitch_bend_c, 10, 7484
20, 581475, Pitch_bend_c, 10, 7492
20, 581476, Pitch_bend_c, 10, 7500
20, 581476, Pitch_bend_c, 10, 7508
20, 581477, Pitch_bend_c, 10, 7516
20, 581477, Pitch_bend_c, 10, 7524
20, 581478, Pitch_bend_c, 10, 7532
20, 581478, Pitch_bend_c, 10, 7540
20, 581479, Pitch_bend_c, 10, 7547
20, 581479, Pitch_bend_c, 10, 7555
20, 581480, Pitch_bend_c, 10, 7563
20, 581480, Pitch_bend_c, 10, 7571
20, 581481, Pitch_bend_c, 10, 7579
20, 581481, Pitch_bend_c, 10, 7587
20, 581482, Pitch_bend_c, 10, 7595
20, 581482, Pitch_bend_c, 10, 7602
20, 581483, Pitch_bend_c, 10, 7610
20, 581483, Pitch_bend_c, 10, 7618
20, 581484, Pitch_bend_c, 10, 7626
20, 581484, Pitch_bend_c, 10, 7634
20, 581485, Pitch_bend_c, 10, 7642
20, 581485, Pitch_bend_c, 10, 7650
20, 581486, Pitch_bend_c, 10, 7658
20, 581486, Pitch_bend_c, 10, 7665
20, 581487, Pitch_bend_c, 10, 7673
20, 581487, Pitch_bend_c, 10, 7681
20, 581488, Pitch_bend_c, 10, 7689
20, 581488, Pitch_bend_c, 10, 7697
20, 581489, Pitch_bend_c, 10, 7705
20, 581489, Pitch_bend_c, 10, 7713
20, 581490, Pitch_bend_c, 10, 7720
20, 581490, Pitch_bend_c, 10, 7728
20, 581491, Pitch_bend_c, 10, 7736
20, 581491, Pitch_bend_c, 10, 7744
20, 581492, Pitch_bend_c, 10, 7752
20, 581492, Pitch_bend_c, 10, 7760
20, 581493, Pitch_bend_c, 10, 7768
20, 581493, Pitch_bend_c, 10, 7776
20, 581494, Pitch_bend_c, 10, 7783
20, 581494, Pitch_bend_c, 10, 7791
20, 581495, Pitch_bend_c, 10, 7799
20, 581495, Pitch_bend_c, 10, 7807
20, 581496, Pitch_bend_c, 10, 7815
20, 581496, Pitch_bend_c, 10, 7823
20, 581497, Pitch_bend_c, 10, 7831
20, 581497, Pitch_bend_c, 10, 7838
20, 581498, Pitch_bend_c, 10, 7846
20, 581498, Pitch_bend_c, 10, 7854
20, 581499, Pitch_bend_c, 10, 7862
20, 581499, Pitch_bend_c, 10, 7870
20, 581500, Pitch_bend_c, 10, 7878
20, 581500, Pitch_bend_c, 10, 7886
20, 581501, Pitch_bend_c, 10, 7894
20, 581501, Pitch_bend_c, 10, 7901
20, 581502, Pitch_bend_c, 10, 7909
20, 581502, Pitch_bend_c, 10, 7917
20, 581503, Pitch_bend_c, 10, 7925
20, 581503, Pitch_bend_c, 10, 7933
20, 581504, Pitch_bend_c, 10, 7941
20, 581504, Pitch_bend_c, 10, 7949
20, 581505, Pitch_bend_c, 10, 7956
20, 581505, Pitch_bend_c, 10, 7964
20, 581506, Pitch_bend_c, 10, 7972
20, 581506, Pitch_bend_c, 10, 7980
20, 581507, Pitch_bend_c, 10, 7988
20, 581507, Pitch_bend_c, 10, 7996
20, 581508, Pitch_bend_c, 10, 8004
20, 581508, Pitch_bend_c, 10, 8012
20, 581509, Pitch_bend_c, 10, 8019
20, 581509, Pitch_bend_c, 10, 8027
20, 581510, Pitch_bend_c, 10, 8035
20, 581510, Pitch_bend_c, 10, 8043
20, 581511, Pitch_bend_c, 10, 8051
20, 581511, Pitch_bend_c, 10, 8059
20, 581512, Pitch_bend_c, 10, 8067
20, 581512, Pitch_bend_c, 10, 8074
20, 581513, Pitch_bend_c, 10, 8082
20, 581513, Pitch_bend_c, 10, 8090
20, 581514, Pitch_bend_c, 10, 8098
20, 581514, Pitch_bend_c, 10, 8106
20, 581515, Pitch_bend_c, 10, 8114
20, 581515, Pitch_bend_c, 10, 8122
20, 581516, Pitch_bend_c, 10, 8130
20, 581516, Pitch_bend_c, 10, 8137
20, 581517, Pitch_bend_c, 10, 8145
20, 581517, Pitch_bend_c, 10, 8153
20, 581518, Pitch_bend_c, 10, 8161
20, 581518, Pitch_bend_c, 10, 8169
20, 581519, Pitch_bend_c, 10, 8177
20, 581519, Pitch_bend_c, 10, 8185
20, 581520, Pitch_bend_c, 10, 8192
20, 581534, Note_on_c, 10, 51, 0
20, 583200, Pitch_bend_c, 10, 4416
20, 583200, Pitch_bend_c, 10, 4424
20, 583201, Pitch_bend_c, 10, 4432
20, 583201, Pitch_bend_c, 10, 4440
20, 583202, Pitch_bend_c, 10, 4448
20, 583202, Pitch_bend_c, 10, 4456
20, 583203, Pitch_bend_c, 10, 4464
20, 583203, Pitch_bend_c, 10, 4472
20, 583204, Note_on_c, 10, 51, 79
20, 583204, Pitch_bend_c, 10, 4479
20, 583204, Pitch_bend_c, 10, 4487
20, 583205, Pitch_bend_c, 10, 4495
20, 583205, Pitch_bend_c, 10, 4503
20, 583206, Pitch_bend_c, 10, 4511
20, 583206, Pitch_bend_c, 10, 4519
20, 583207, Pitch_bend_c, 10, 4527
20, 583207, Pitch_bend_c, 10, 4534
20, 583208, Pitch_bend_c, 10, 4542
20, 583208, Pitch_bend_c, 10, 4550
20, 583209, Pitch_bend_c, 10, 4558
20, 583209, Pitch_bend_c, 10, 4566
20, 583210, Pitch_bend_c, 10, 4574
20, 583210, Pitch_bend_c, 10, 4582
20, 583211, Pitch_bend_c, 10, 4590
20, 583211, Pitch_bend_c, 10, 4597
20, 583212, Pitch_bend_c, 10, 4605
20, 583212, Pitch_bend_c, 10, 4613
20, 583213, Pitch_bend_c, 10, 4621
20, 583213, Pitch_bend_c, 10, 4629
20, 583214, Pitch_bend_c, 10, 4637
20, 583214, Pitch_bend_c, 10, 4645
20, 583215, Pitch_bend_c, 10, 4652
20, 583215, Pitch_bend_c, 10, 4660
20, 583216, Pitch_bend_c, 10, 4668
20, 583216, Pitch_bend_c, 10, 4676
20, 583217, Pitch_bend_c, 10, 4684
20, 583217, Pitch_bend_c, 10, 4692
20, 583218, Pitch_bend_c, 10, 4700
20, 583218, Pitch_bend_c, 10, 4708
20, 583219, Pitch_bend_c, 10, 4715
20, 583219, Pitch_bend_c, 10, 4723
20, 583220, Pitch_bend_c, 10, 4731
20, 583220, Pitch_bend_c, 10, 4739
20, 583221, Pitch_bend_c, 10, 4747
20, 583221, Pitch_bend_c, 10, 4755
20, 583222, Pitch_bend_c, 10, 4763
20, 583222, Pitch_bend_c, 10, 4770
20, 583223, Pitch_bend_c, 10, 4778
20, 583223, Pitch_bend_c, 10, 4786
20, 583224, Pitch_bend_c, 10, 4794
20, 583224, Pitch_bend_c, 10, 4802
20, 583225, Pitch_bend_c, 10, 4810
20, 583225, Pitch_bend_c, 10, 4818
20, 583226, Pitch_bend_c, 10, 4826
20, 583226, Pitch_bend_c, 10, 4833
20, 583227, Pitch_bend_c, 10, 4841
20, 583227, Pitch_bend_c, 10, 4849
20, 583228, Pitch_bend_c, 10, 4857
20, 583228, Pitch_bend_c, 10, 4865
20, 583229, Pitch_bend_c, 10, 4873
20, 583229, Pitch_bend_c, 10, 4881
20, 583230, Pitch_bend_c, 10, 4888
20, 583230, Pitch_bend_c, 10, 4896
20, 583231, Pitch_bend_c, 10, 4904
20, 583231, Pitch_bend_c, 10, 4912
20, 583232, Pitch_bend_c, 10, 4920
20, 583232, Pitch_bend_c, 10, 4928
20, 583233, Pitch_bend_c, 10, 4936
20, 583233, Pitch_bend_c, 10, 4944
20, 583234, Pitch_bend_c, 10, 4951
20, 583234, Pitch_bend_c, 10, 4959
20, 583235, Pitch_bend_c, 10, 4967
20, 583235, Pitch_bend_c, 10, 4975
20, 583236, Pitch_bend_c, 10, 4983
20, 583236, Pitch_bend_c, 10, 4991
20, 583237, Pitch_bend_c, 10, 4999
20, 583237, Pitch_bend_c, 10, 5006
20, 583238, Pitch_bend_c, 10, 5014
20, 583238, Pitch_bend_c, 10, 5022
20, 583239, Pitch_bend_c, 10, 5030
20, 583239, Pitch_bend_c, 10, 5038
20, 583240, Pitch_bend_c, 10, 5046
20, 583240, Pitch_bend_c, 10, 5054
20, 583241, Pitch_bend_c, 10, 5062
20, 583241, Pitch_bend_c, 10, 5069
20, 583242, Pitch_bend_c, 10, 5077
20, 583242, Pitch_bend_c, 10, 5085
20, 583243, Pitch_bend_c, 10, 5093
20, 583243, Pitch_bend_c, 10, 5101
20, 583244, Pitch_bend_c, 10, 5109
20, 583244, Pitch_bend_c, 10, 5117
20, 583245, Pitch_bend_c, 10, 5124
20, 583245, Pitch_bend_c, 10, 5132
20, 583246, Pitch_bend_c, 10, 5140
20, 583246, Pitch_bend_c, 10, 5148
20, 583247, Pitch_bend_c, 10, 5156
20, 583247, Pitch_bend_c, 10, 5164
20, 583248, Pitch_bend_c, 10, 5172
20, 583248, Pitch_bend_c, 10, 5180
20, 583249, Pitch_bend_c, 10, 5187
20, 583249, Pitch_bend_c, 10, 5195
20, 583250, Pitch_bend_c, 10, 5203
20, 583250, Pitch_bend_c, 10, 5211
20, 583251, Pitch_bend_c, 10, 5219
20, 583251, Pitch_bend_c, 10, 5227
20, 583252, Pitch_bend_c, 10, 5235
20, 583252, Pitch_bend_c, 10, 5242
20, 583253, Pitch_bend_c, 10, 5250
20, 583253, Pitch_bend_c, 10, 5258
20, 583254, Pitch_bend_c, 10, 5266
20, 583254, Pitch_bend_c, 10, 5274
20, 583255, Pitch_bend_c, 10, 5282
20, 583255, Pitch_bend_c, 10, 5290
20, 583256, Pitch_bend_c, 10, 5298
20, 583256, Pitch_bend_c, 10, 5305
20, 583257, Pitch_bend_c, 10, 5313
20, 583257, Pitch_bend_c, 10, 5321
20, 583258, Pitch_bend_c, 10, 5329
20, 583258, Pitch_bend_c, 10, 5337
20, 583259, Pitch_bend_c, 10, 5345
20, 583259, Pitch_bend_c, 10, 5353
20, 583260, Pitch_bend_c, 10, 5360
20, 583260, Pitch_bend_c, 10, 5368
20, 583261, Pitch_bend_c, 10, 5376
20, 583261, Pitch_bend_c, 10, 5384
20, 583262, Pitch_bend_c, 10, 5392
20, 583262, Pitch_bend_c, 10, 5400
20, 583263, Pitch_bend_c, 10, 5408
20, 583263, Pitch_bend_c, 10, 5416
20, 583264, Pitch_bend_c, 10, 5423
20, 583264, Pitch_bend_c, 10, 5431
20, 583265, Pitch_bend_c, 10, 5439
20, 583265, Pitch_bend_c, 10, 5447
20, 583266, Pitch_bend_c, 10, 5455
20, 583266, Pitch_bend_c, 10, 5463
20, 583267, Pitch_bend_c, 10, 5471
20, 583267, Pitch_bend_c, 10, 5478
20, 583268, Pitch_bend_c, 10, 5486
20, 583268, Pitch_bend_c, 10, 5494
20, 583269, Pitch_bend_c, 10, 5502
20, 583269, Pitch_bend_c, 10, 5510
20, 583270, Pitch_bend_c, 10, 5518
20, 583270, Pitch_bend_c, 10, 5526
20, 583271, Pitch_bend_c, 10, 5534
20, 583271, Pitch_bend_c, 10, 5541
20, 583272, Pitch_bend_c, 10, 5549
20, 583272, Pitch_bend_c, 10, 5557
20, 583273, Pitch_bend_c, 10, 5565
20, 583273, Pitch_bend_c, 10, 5573
20, 583274, Pitch_bend_c, 10, 5581
20, 583274, Pitch_bend_c, 10, 5589
20, 583275, Pitch_bend_c, 10, 5596
20, 583275, Pitch_bend_c, 10, 5604
20, 583276, Pitch_bend_c, 10, 5612
20, 583276, Pitch_bend_c, 10, 5620
20, 583277, Pitch_bend_c, 10, 5628
20, 583277, Pitch_bend_c, 10, 5636
20, 583278, Pitch_bend_c, 10, 5644
20, 583278, Pitch_bend_c, 10, 5652
20, 583279, Pitch_bend_c, 10, 5659
20, 583279, Pitch_bend_c, 10, 5667
20, 583280, Pitch_bend_c, 10, 5675
20, 583280, Pitch_bend_c, 10, 5683
20, 583281, Pitch_bend_c, 10, 5691
20, 583281, Pitch_bend_c, 10, 5699
20, 583282, Pitch_bend_c, 10, 5707
20, 583282, Pitch_bend_c, 10, 5714
20, 583283, Pitch_bend_c, 10, 5722
20, 583283, Pitch_bend_c, 10, 5730
20, 583284, Pitch_bend_c, 10, 5738
20, 583284, Pitch_bend_c, 10, 5746
20, 583285, Pitch_bend_c, 10, 5754
20, 583285, Pitch_bend_c, 10, 5762
20, 583286, Pitch_bend_c, 10, 5770
20, 583286, Pitch_bend_c, 10, 5777
20, 583287, Pitch_bend_c, 10, 5785
20, 583287, Pitch_bend_c, 10, 5793
20, 583288, Pitch_bend_c, 10, 5801
20, 583288, Pitch_bend_c, 10, 5809
20, 583289, Pitch_bend_c, 10, 5817
20, 583289, Pitch_bend_c, 10, 5825
20, 583290, Pitch_bend_c, 10, 5832
20, 583290, Pitch_bend_c, 10, 5840
20, 583291, Pitch_bend_c, 10, 5848
20, 583291, Pitch_bend_c, 10, 5856
20, 583292, Pitch_bend_c, 10, 5864
20, 583292, Pitch_bend_c, 10, 5872
20, 583293, Pitch_bend_c, 10, 5880
20, 583293, Pitch_bend_c, 10, 5888
20, 583294, Pitch_bend_c, 10, 5895
20, 583294, Pitch_bend_c, 10, 5903
20, 583295, Pitch_bend_c, 10, 5911
20, 583295, Pitch_bend_c, 10, 5919
20, 583296, Pitch_bend_c, 10, 5927
20, 583296, Pitch_bend_c, 10, 5935
20, 583297, Pitch_bend_c, 10, 5943
20, 583297, Pitch_bend_c, 10, 5950
20, 583298, Pitch_bend_c, 10, 5958
20, 583298, Pitch_bend_c, 10, 5966
20, 583299, Pitch_bend_c, 10, 5974
20, 583299, Pitch_bend_c, 10, 5982
20, 583300, Pitch_bend_c, 10, 5990
20, 583300, Pitch_bend_c, 10, 5998
20, 583301, Pitch_bend_c, 10, 6006
20, 583301, Pitch_bend_c, 10, 6013
20, 583302, Pitch_bend_c, 10, 6021
20, 583302, Pitch_bend_c, 10, 6029
20, 583303, Pitch_bend_c, 10, 6037
20, 583303, Pitch_bend_c, 10, 6045
20, 583304, Pitch_bend_c, 10, 6053
20, 583304, Pitch_bend_c, 10, 6061
20, 583305, Pitch_bend_c, 10, 6068
20, 583305, Pitch_bend_c, 10, 6076
20, 583306, Pitch_bend_c, 10, 6084
20, 583306, Pitch_bend_c, 10, 6092
20, 583307, Pitch_bend_c, 10, 6100
20, 583307, Pitch_bend_c, 10, 6108
20, 583308, Pitch_bend_c, 10, 6116
20, 583308, Pitch_bend_c, 10, 6124
20, 583309, Pitch_bend_c, 10, 6131
20, 583309, Pitch_bend_c, 10, 6139
20, 583310, Pitch_bend_c, 10, 6147
20, 583310, Pitch_bend_c, 10, 6155
20, 583311, Pitch_bend_c, 10, 6163
20, 583311, Pitch_bend_c, 10, 6171
20, 583312, Pitch_bend_c, 10, 6179
20, 583312, Pitch_bend_c, 10, 6186
20, 583313, Pitch_bend_c, 10, 6194
20, 583313, Pitch_bend_c, 10, 6202
20, 583314, Pitch_bend_c, 10, 6210
20, 583314, Pitch_bend_c, 10, 6218
20, 583315, Pitch_bend_c, 10, 6226
20, 583315, Pitch_bend_c, 10, 6234
20, 583316, Pitch_bend_c, 10, 6242
20, 583316, Pitch_bend_c, 10, 6249
20, 583317, Pitch_bend_c, 10, 6257
20, 583317, Pitch_bend_c, 10, 6265
20, 583318, Pitch_bend_c, 10, 6273
20, 583318, Pitch_bend_c, 10, 6281
20, 583319, Pitch_bend_c, 10, 6289
20, 583319, Pitch_bend_c, 10, 6297
20, 583320, Pitch_bend_c, 10, 6304
20, 583320, Pitch_bend_c, 10, 6312
20, 583321, Pitch_bend_c, 10, 6320
20, 583321, Pitch_bend_c, 10, 6328
20, 583322, Pitch_bend_c, 10, 6336
20, 583322, Pitch_bend_c, 10, 6344
20, 583323, Pitch_bend_c, 10, 6352
20, 583323, Pitch_bend_c, 10, 6360
20, 583324, Pitch_bend_c, 10, 6367
20, 583324, Pitch_bend_c, 10, 6375
20, 583325, Pitch_bend_c, 10, 6383
20, 583325, Pitch_bend_c, 10, 6391
20, 583326, Pitch_bend_c, 10, 6399
20, 583326, Pitch_bend_c, 10, 6407
20, 583327, Pitch_bend_c, 10, 6415
20, 583327, Pitch_bend_c, 10, 6422
20, 583328, Pitch_bend_c, 10, 6430
20, 583328, Pitch_bend_c, 10, 6438
20, 583329, Pitch_bend_c, 10, 6446
20, 583329, Pitch_bend_c, 10, 6454
20, 583330, Pitch_bend_c, 10, 6462
20, 583330, Pitch_bend_c, 10, 6470
20, 583331, Pitch_bend_c, 10, 6478
20, 583331, Pitch_bend_c, 10, 6485
20, 583332, Pitch_bend_c, 10, 6493
20, 583332, Pitch_bend_c, 10, 6501
20, 583333, Pitch_bend_c, 10, 6509
20, 583333, Pitch_bend_c, 10, 6517
20, 583334, Pitch_bend_c, 10, 6525
20, 583334, Pitch_bend_c, 10, 6533
20, 583335, Pitch_bend_c, 10, 6540
20, 583335, Pitch_bend_c, 10, 6548
20, 583336, Pitch_bend_c, 10, 6556
20, 583336, Pitch_bend_c, 10, 6564
20, 583337, Pitch_bend_c, 10, 6572
20, 583337, Pitch_bend_c, 10, 6580
20, 583338, Pitch_bend_c, 10, 6588
20, 583338, Pitch_bend_c, 10, 6596
20, 583339, Pitch_bend_c, 10, 6603
20, 583339, Pitch_bend_c, 10, 6611
20, 583340, Pitch_bend_c, 10, 6619
20, 583340, Pitch_bend_c, 10, 6627
20, 583341, Pitch_bend_c, 10, 6635
20, 583341, Pitch_bend_c, 10, 6643
20, 583342, Pitch_bend_c, 10, 6651
20, 583342, Pitch_bend_c, 10, 6658
20, 583343, Pitch_bend_c, 10, 6666
20, 583343, Pitch_bend_c, 10, 6674
20, 583344, Pitch_bend_c, 10, 6682
20, 583344, Pitch_bend_c, 10, 6690
20, 583345, Pitch_bend_c, 10, 6698
20, 583345, Pitch_bend_c, 10, 6706
20, 583346, Pitch_bend_c, 10, 6714
20, 583346, Pitch_bend_c, 10, 6721
20, 583347, Pitch_bend_c, 10, 6729
20, 583347, Pitch_bend_c, 10, 6737
20, 583348, Pitch_bend_c, 10, 6745
20, 583348, Pitch_bend_c, 10, 6753
20, 583349, Pitch_bend_c, 10, 6761
20, 583349, Pitch_bend_c, 10, 6769
20, 583350, Pitch_bend_c, 10, 6776
20, 583350, Pitch_bend_c, 10, 6784
20, 583351, Pitch_bend_c, 10, 6792
20, 583351, Pitch_bend_c, 10, 6800
20, 583352, Pitch_bend_c, 10, 6808
20, 583352, Pitch_bend_c, 10, 6816
20, 583353, Pitch_bend_c, 10, 6824
20, 583353, Pitch_bend_c, 10, 6832
20, 583354, Pitch_bend_c, 10, 6839
20, 583354, Pitch_bend_c, 10, 6847
20, 583355, Pitch_bend_c, 10, 6855
20, 583355, Pitch_bend_c, 10, 6863
20, 583356, Pitch_bend_c, 10, 6871
20, 583356, Pitch_bend_c, 10, 6879
20, 583357, Pitch_bend_c, 10, 6887
20, 583357, Pitch_bend_c, 10, 6894
20, 583358, Pitch_bend_c, 10, 6902
20, 583358, Pitch_bend_c, 10, 6910
20, 583359, Pitch_bend_c, 10, 6918
20, 583359, Pitch_bend_c, 10, 6926
20, 583360, Pitch_bend_c, 10, 6934
20, 583360, Pitch_bend_c, 10, 6942
20, 583361, Pitch_bend_c, 10, 6950
20, 583361, Pitch_bend_c, 10, 6957
20, 583362, Pitch_bend_c, 10, 6965
20, 583362, Pitch_bend_c, 10, 6973
20, 583363, Pitch_bend_c, 10, 6981
20, 583363, Pitch_bend_c, 10, 6989
20, 583364, Pitch_bend_c, 10, 6997
20, 583364, Pitch_bend_c, 10, 7005
20, 583365, Pitch_bend_c, 10, 7012
20, 583365, Pitch_bend_c, 10, 7020
20, 583366, Pitch_bend_c, 10, 7028
20, 583366, Pitch_bend_c, 10, 7036
20, 583367, Pitch_bend_c, 10, 7044
20, 583367, Pitch_bend_c, 10, 7052
20, 583368, Pitch_bend_c, 10, 7060
20, 583368, Pitch_bend_c, 10, 7068
20, 583369, Pitch_bend_c, 10, 7075
20, 583369, Pitch_bend_c, 10, 7083
20, 583370, Pitch_bend_c, 10, 7091
20, 583370, Pitch_bend_c, 10, 7099
20, 583371, Pitch_bend_c, 10, 7107
20, 583371, Pitch_bend_c, 10, 7115
20, 583372, Pitch_bend_c, 10, 7123
20, 583372, Pitch_bend_c, 10, 7130
20, 583373, Pitch_bend_c, 10, 7138
20, 583373, Pitch_bend_c, 10, 7146
20, 583374, Pitch_bend_c, 10, 7154
20, 583374, Pitch_bend_c, 10, 7162
20, 583375, Pitch_bend_c, 10, 7170
20, 583375, Pitch_bend_c, 10, 7178
20, 583376, Pitch_bend_c, 10, 7186
20, 583376, Pitch_bend_c, 10, 7193
20, 583377, Pitch_bend_c, 10, 7201
20, 583377, Pitch_bend_c, 10, 7209
20, 583378, Pitch_bend_c, 10, 7217
20, 583378, Pitch_bend_c, 10, 7225
20, 583379, Pitch_bend_c, 10, 7233
20, 583379, Pitch_bend_c, 10, 7241
20, 583380, Pitch_bend_c, 10, 7248
20, 583380, Pitch_bend_c, 10, 7256
20, 583381, Pitch_bend_c, 10, 7264
20, 583381, Pitch_bend_c, 10, 7272
20, 583382, Pitch_bend_c, 10, 7280
20, 583382, Pitch_bend_c, 10, 7288
20, 583383, Pitch_bend_c, 10, 7296
20, 583383, Pitch_bend_c, 10, 7304
20, 583384, Pitch_bend_c, 10, 7311
20, 583384, Pitch_bend_c, 10, 7319
20, 583385, Pitch_bend_c, 10, 7327
20, 583385, Pitch_bend_c, 10, 7335
20, 583386, Pitch_bend_c, 10, 7343
20, 583386, Pitch_bend_c, 10, 7351
20, 583387, Pitch_bend_c, 10, 7359
20, 583387, Pitch_bend_c, 10, 7366
20, 583388, Pitch_bend_c, 10, 7374
20, 583388, Pitch_bend_c, 10, 7382
20, 583389, Pitch_bend_c, 10, 7390
20, 583389, Pitch_bend_c, 10, 7398
20, 583390, Pitch_bend_c, 10, 7406
20, 583390, Pitch_bend_c, 10, 7414
20, 583391, Pitch_bend_c, 10, 7422
20, 583391, Pitch_bend_c, 10, 7429
20, 583392, Pitch_bend_c, 10, 7437
20, 583392, Pitch_bend_c, 10, 7445
20, 583393, Pitch_bend_c, 10, 7453
20, 583393, Pitch_bend_c, 10, 7461
20, 583394, Pitch_bend_c, 10, 7469
20, 583394, Pitch_bend_c, 10, 7477
20, 583395, Pitch_bend_c, 10, 7484
20, 583395, Pitch_bend_c, 10, 7492
20, 583396, Pitch_bend_c, 10, 7500
20, 583396, Pitch_bend_c, 10, 7508
20, 583397, Pitch_bend_c, 10, 7516
20, 583397, Pitch_bend_c, 10, 7524
20, 583398, Pitch_bend_c, 10, 7532
20, 583398, Pitch_bend_c, 10, 7540
20, 583399, Pitch_bend_c, 10, 7547
20, 583399, Pitch_bend_c, 10, 7555
20, 583400, Pitch_bend_c, 10, 7563
20, 583400, Pitch_bend_c, 10, 7571
20, 583401, Pitch_bend_c, 10, 7579
20, 583401, Pitch_bend_c, 10, 7587
20, 583402, Pitch_bend_c, 10, 7595
20, 583402, Pitch_bend_c, 10, 7602
20, 583403, Pitch_bend_c, 10, 7610
20, 583403, Pitch_bend_c, 10, 7618
20, 583404, Pitch_bend_c, 10, 7626
20, 583404, Pitch_bend_c, 10, 7634
20, 583405, Pitch_bend_c, 10, 7642
20, 583405, Pitch_bend_c, 10, 7650
20, 583406, Pitch_bend_c, 10, 7658
20, 583406, Pitch_bend_c, 10, 7665
20, 583407, Pitch_bend_c, 10, 7673
20, 583407, Pitch_bend_c, 10, 7681
20, 583408, Pitch_bend_c, 10, 7689
20, 583408, Pitch_bend_c, 10, 7697
20, 583409, Pitch_bend_c, 10, 7705
20, 583409, Pitch_bend_c, 10, 7713
20, 583410, Pitch_bend_c, 10, 7720
20, 583410, Pitch_bend_c, 10, 7728
20, 583411, Pitch_bend_c, 10, 7736
20, 583411, Pitch_bend_c, 10, 7744
20, 583412, Pitch_bend_c, 10, 7752
20, 583412, Pitch_bend_c, 10, 7760
20, 583413, Pitch_bend_c, 10, 7768
20, 583413, Pitch_bend_c, 10, 7776
20, 583414, Pitch_bend_c, 10, 7783
20, 583414, Pitch_bend_c, 10, 7791
20, 583415, Pitch_bend_c, 10, 7799
20, 583415, Pitch_bend_c, 10, 7807
20, 583416, Pitch_bend_c, 10, 7815
20, 583416, Pitch_bend_c, 10, 7823
20, 583417, Pitch_bend_c, 10, 7831
20, 583417, Pitch_bend_c, 10, 7838
20, 583418, Pitch_bend_c, 10, 7846
20, 583418, Pitch_bend_c, 10, 7854
20, 583419, Pitch_bend_c, 10, 7862
20, 583419, Pitch_bend_c, 10, 7870
20, 583420, Pitch_bend_c, 10, 7878
20, 583420, Pitch_bend_c, 10, 7886
20, 583421, Pitch_bend_c, 10, 7894
20, 583421, Pitch_bend_c, 10, 7901
20, 583422, Pitch_bend_c, 10, 7909
20, 583422, Pitch_bend_c, 10, 7917
20, 583423, Pitch_bend_c, 10, 7925
20, 583423, Pitch_bend_c, 10, 7933
20, 583424, Pitch_bend_c, 10, 7941
20, 583424, Pitch_bend_c, 10, 7949
20, 583425, Pitch_bend_c, 10, 7956
20, 583425, Pitch_bend_c, 10, 7964
20, 583426, Pitch_bend_c, 10, 7972
20, 583426, Pitch_bend_c, 10, 7980
20, 583427, Pitch_bend_c, 10, 7988
20, 583427, Pitch_bend_c, 10, 7996
20, 583428, Pitch_bend_c, 10, 8004
20, 583428, Pitch_bend_c, 10, 8012
20, 583429, Pitch_bend_c, 10, 8019
20, 583429, Pitch_bend_c, 10, 8027
20, 583430, Pitch_bend_c, 10, 8035
20, 583430, Pitch_bend_c, 10, 8043
20, 583431, Pitch_bend_c, 10, 8051
20, 583431, Pitch_bend_c, 10, 8059
20, 583432, Pitch_bend_c, 10, 8067
20, 583432, Pitch_bend_c, 10, 8074
20, 583433, Pitch_bend_c, 10, 8082
20, 583433, Pitch_bend_c, 10, 8090
20, 583434, Pitch_bend_c, 10, 8098
20, 583434, Pitch_bend_c, 10, 8106
20, 583435, Pitch_bend_c, 10, 8114
20, 583435, Pitch_bend_c, 10, 8122
20, 583436, Pitch_bend_c, 10, 8130
20, 583436, Pitch_bend_c, 10, 8137
20, 583437, Pitch_bend_c, 10, 8145
20, 583437, Pitch_bend_c, 10, 8153
20, 583438, Pitch_bend_c, 10, 8161
20, 583438, Pitch_bend_c, 10, 8169
20, 583439, Pitch_bend_c, 10, 8177
20, 583439, Pitch_bend_c, 10, 8185
20, 583440, Pitch_bend_c, 10, 8192
20, 583444, Note_on_c, 10, 51, 0
20, 585120, Pitch_bend_c, 10, 4416
20, 585120, Pitch_bend_c, 10, 4424
20, 585121, Pitch_bend_c, 10, 4432
20, 585121, Pitch_bend_c, 10, 4440
20, 585122, Pitch_bend_c, 10, 4448
20, 585122, Pitch_bend_c, 10, 4456
20, 585123, Pitch_bend_c, 10, 4464
20, 585123, Pitch_bend_c, 10, 4472
20, 585124, Pitch_bend_c, 10, 4479
20, 585124, Pitch_bend_c, 10, 4487
20, 585125, Pitch_bend_c, 10, 4495
20, 585125, Pitch_bend_c, 10, 4503
20, 585126, Pitch_bend_c, 10, 4511
20, 585126, Pitch_bend_c, 10, 4519
20, 585127, Pitch_bend_c, 10, 4527
20, 585127, Pitch_bend_c, 10, 4534
20, 585128, Pitch_bend_c, 10, 4542
20, 585128, Pitch_bend_c, 10, 4550
20, 585129, Pitch_bend_c, 10, 4558
20, 585129, Pitch_bend_c, 10, 4566
20, 585130, Pitch_bend_c, 10, 4574
20, 585130, Pitch_bend_c, 10, 4582
20, 585131, Pitch_bend_c, 10, 4590
20, 585131, Pitch_bend_c, 10, 4597
20, 585132, Pitch_bend_c, 10, 4605
20, 585132, Pitch_bend_c, 10, 4613
20, 585133, Pitch_bend_c, 10, 4621
20, 585133, Pitch_bend_c, 10, 4629
20, 585134, Pitch_bend_c, 10, 4637
20, 585134, Pitch_bend_c, 10, 4645
20, 585135, Pitch_bend_c, 10, 4652
20, 585135, Pitch_bend_c, 10, 4660
20, 585136, Pitch_bend_c, 10, 4668
20, 585136, Pitch_bend_c, 10, 4676
20, 585137, Pitch_bend_c, 10, 4684
20, 585137, Pitch_bend_c, 10, 4692
20, 585138, Pitch_bend_c, 10, 4700
20, 585138, Pitch_bend_c, 10, 4708
20, 585139, Note_on_c, 10, 51, 82
20, 585139, Pitch_bend_c, 10, 4715
20, 585139, Pitch_bend_c, 10, 4723
20, 585140, Pitch_bend_c, 10, 4731
20, 585140, Pitch_bend_c, 10, 4739
20, 585141, Pitch_bend_c, 10, 4747
20, 585141, Pitch_bend_c, 10, 4755
20, 585142, Pitch_bend_c, 10, 4763
20, 585142, Pitch_bend_c, 10, 4770
20, 585143, Pitch_bend_c, 10, 4778
20, 585143, Pitch_bend_c, 10, 4786
20, 585144, Pitch_bend_c, 10, 4794
20, 585144, Pitch_bend_c, 10, 4802
20, 585145, Pitch_bend_c, 10, 4810
20, 585145, Pitch_bend_c, 10, 4818
20, 585146, Pitch_bend_c, 10, 4826
20, 585146, Pitch_bend_c, 10, 4833
20, 585147, Pitch_bend_c, 10, 4841
20, 585147, Pitch_bend_c, 10, 4849
20, 585148, Pitch_bend_c, 10, 4857
20, 585148, Pitch_bend_c, 10, 4865
20, 585149, Pitch_bend_c, 10, 4873
20, 585149, Pitch_bend_c, 10, 4881
20, 585150, Pitch_bend_c, 10, 4888
20, 585150, Pitch_bend_c, 10, 4896
20, 585151, Pitch_bend_c, 10, 4904
20, 585151, Pitch_bend_c, 10, 4912
20, 585152, Pitch_bend_c, 10, 4920
20, 585152, Pitch_bend_c, 10, 4928
20, 585153, Pitch_bend_c, 10, 4936
20, 585153, Pitch_bend_c, 10, 4944
20, 585154, Pitch_bend_c, 10, 4951
20, 585154, Pitch_bend_c, 10, 4959
20, 585155, Pitch_bend_c, 10, 4967
20, 585155, Pitch_bend_c, 10, 4975
20, 585156, Pitch_bend_c, 10, 4983
20, 585156, Pitch_bend_c, 10, 4991
20, 585157, Pitch_bend_c, 10, 4999
20, 585157, Pitch_bend_c, 10, 5006
20, 585158, Pitch_bend_c, 10, 5014
20, 585158, Pitch_bend_c, 10, 5022
20, 585159, Pitch_bend_c, 10, 5030
20, 585159, Pitch_bend_c, 10, 5038
20, 585160, Pitch_bend_c, 10, 5046
20, 585160, Pitch_bend_c, 10, 5054
20, 585161, Pitch_bend_c, 10, 5062
20, 585161, Pitch_bend_c, 10, 5069
20, 585162, Pitch_bend_c, 10, 5077
20, 585162, Pitch_bend_c, 10, 5085
20, 585163, Pitch_bend_c, 10, 5093
20, 585163, Pitch_bend_c, 10, 5101
20, 585164, Pitch_bend_c, 10, 5109
20, 585164, Pitch_bend_c, 10, 5117
20, 585165, Pitch_bend_c, 10, 5124
20, 585165, Pitch_bend_c, 10, 5132
20, 585166, Pitch_bend_c, 10, 5140
20, 585166, Pitch_bend_c, 10, 5148
20, 585167, Pitch_bend_c, 10, 5156
20, 585167, Pitch_bend_c, 10, 5164
20, 585168, Pitch_bend_c, 10, 5172
20, 585168, Pitch_bend_c, 10, 5180
20, 585169, Pitch_bend_c, 10, 5187
20, 585169, Pitch_bend_c, 10, 5195
20, 585170, Pitch_bend_c, 10, 5203
20, 585170, Pitch_bend_c, 10, 5211
20, 585171, Pitch_bend_c, 10, 5219
20, 585171, Pitch_bend_c, 10, 5227
20, 585172, Pitch_bend_c, 10, 5235
20, 585172, Pitch_bend_c, 10, 5242
20, 585173, Pitch_bend_c, 10, 5250
20, 585173, Pitch_bend_c, 10, 5258
20, 585174, Pitch_bend_c, 10, 5266
20, 585174, Pitch_bend_c, 10, 5274
20, 585175, Pitch_bend_c, 10, 5282
20, 585175, Pitch_bend_c, 10, 5290
20, 585176, Pitch_bend_c, 10, 5298
20, 585176, Pitch_bend_c, 10, 5305
20, 585177, Pitch_bend_c, 10, 5313
20, 585177, Pitch_bend_c, 10, 5321
20, 585178, Pitch_bend_c, 10, 5329
20, 585178, Pitch_bend_c, 10, 5337
20, 585179, Pitch_bend_c, 10, 5345
20, 585179, Pitch_bend_c, 10, 5353
20, 585180, Pitch_bend_c, 10, 5360
20, 585180, Pitch_bend_c, 10, 5368
20, 585181, Pitch_bend_c, 10, 5376
20, 585181, Pitch_bend_c, 10, 5384
20, 585182, Pitch_bend_c, 10, 5392
20, 585182, Pitch_bend_c, 10, 5400
20, 585183, Pitch_bend_c, 10, 5408
20, 585183, Pitch_bend_c, 10, 5416
20, 585184, Pitch_bend_c, 10, 5423
20, 585184, Pitch_bend_c, 10, 5431
20, 585185, Pitch_bend_c, 10, 5439
20, 585185, Pitch_bend_c, 10, 5447
20, 585186, Pitch_bend_c, 10, 5455
20, 585186, Pitch_bend_c, 10, 5463
20, 585187, Pitch_bend_c, 10, 5471
20, 585187, Pitch_bend_c, 10, 5478
20, 585188, Pitch_bend_c, 10, 5486
20, 585188, Pitch_bend_c, 10, 5494
20, 585189, Pitch_bend_c, 10, 5502
20, 585189, Pitch_bend_c, 10, 5510
20, 585190, Pitch_bend_c, 10, 5518
20, 585190, Pitch_bend_c, 10, 5526
20, 585191, Pitch_bend_c, 10, 5534
20, 585191, Pitch_bend_c, 10, 5541
20, 585192, Pitch_bend_c, 10, 5549
20, 585192, Pitch_bend_c, 10, 5557
20, 585193, Pitch_bend_c, 10, 5565
20, 585193, Pitch_bend_c, 10, 5573
20, 585194, Pitch_bend_c, 10, 5581
20, 585194, Pitch_bend_c, 10, 5589
20, 585195, Pitch_bend_c, 10, 5596
20, 585195, Pitch_bend_c, 10, 5604
20, 585196, Pitch_bend_c, 10, 5612
20, 585196, Pitch_bend_c, 10, 5620
20, 585197, Pitch_bend_c, 10, 5628
20, 585197, Pitch_bend_c, 10, 5636
20, 585198, Pitch_bend_c, 10, 5644
20, 585198, Pitch_bend_c, 10, 5652
20, 585199, Pitch_bend_c, 10, 5659
20, 585199, Pitch_bend_c, 10, 5667
20, 585200, Pitch_bend_c, 10, 5675
20, 585200, Pitch_bend_c, 10, 5683
20, 585201, Pitch_bend_c, 10, 5691
20, 585201, Pitch_bend_c, 10, 5699
20, 585202, Pitch_bend_c, 10, 5707
20, 585202, Pitch_bend_c, 10, 5714
20, 585203, Pitch_bend_c, 10, 5722
20, 585203, Pitch_bend_c, 10, 5730
20, 585204, Pitch_bend_c, 10, 5738
20, 585204, Pitch_bend_c, 10, 5746
20, 585205, Pitch_bend_c, 10, 5754
20, 585205, Pitch_bend_c, 10, 5762
20, 585206, Pitch_bend_c, 10, 5770
20, 585206, Pitch_bend_c, 10, 5777
20, 585207, Pitch_bend_c, 10, 5785
20, 585207, Pitch_bend_c, 10, 5793
20, 585208, Pitch_bend_c, 10, 5801
20, 585208, Pitch_bend_c, 10, 5809
20, 585209, Pitch_bend_c, 10, 5817
20, 585209, Pitch_bend_c, 10, 5825
20, 585210, Pitch_bend_c, 10, 5832
20, 585210, Pitch_bend_c, 10, 5840
20, 585211, Pitch_bend_c, 10, 5848
20, 585211, Pitch_bend_c, 10, 5856
20, 585212, Pitch_bend_c, 10, 5864
20, 585212, Pitch_bend_c, 10, 5872
20, 585213, Pitch_bend_c, 10, 5880
20, 585213, Pitch_bend_c, 10, 5888
20, 585214, Pitch_bend_c, 10, 5895
20, 585214, Pitch_bend_c, 10, 5903
20, 585215, Pitch_bend_c, 10, 5911
20, 585215, Pitch_bend_c, 10, 5919
20, 585216, Pitch_bend_c, 10, 5927
20, 585216, Pitch_bend_c, 10, 5935
20, 585217, Pitch_bend_c, 10, 5943
20, 585217, Pitch_bend_c, 10, 5950
20, 585218, Pitch_bend_c, 10, 5958
20, 585218, Pitch_bend_c, 10, 5966
20, 585219, Pitch_bend_c, 10, 5974
20, 585219, Pitch_bend_c, 10, 5982
20, 585220, Pitch_bend_c, 10, 5990
20, 585220, Pitch_bend_c, 10, 5998
20, 585221, Pitch_bend_c, 10, 6006
20, 585221, Pitch_bend_c, 10, 6013
20, 585222, Pitch_bend_c, 10, 6021
20, 585222, Pitch_bend_c, 10, 6029
20, 585223, Pitch_bend_c, 10, 6037
20, 585223, Pitch_bend_c, 10, 6045
20, 585224, Pitch_bend_c, 10, 6053
20, 585224, Pitch_bend_c, 10, 6061
20, 585225, Pitch_bend_c, 10, 6068
20, 585225, Pitch_bend_c, 10, 6076
20, 585226, Pitch_bend_c, 10, 6084
20, 585226, Pitch_bend_c, 10, 6092
20, 585227, Pitch_bend_c, 10, 6100
20, 585227, Pitch_bend_c, 10, 6108
20, 585228, Pitch_bend_c, 10, 6116
20, 585228, Pitch_bend_c, 10, 6124
20, 585229, Pitch_bend_c, 10, 6131
20, 585229, Pitch_bend_c, 10, 6139
20, 585230, Pitch_bend_c, 10, 6147
20, 585230, Pitch_bend_c, 10, 6155
20, 585231, Pitch_bend_c, 10, 6163
20, 585231, Pitch_bend_c, 10, 6171
20, 585232, Pitch_bend_c, 10, 6179
20, 585232, Pitch_bend_c, 10, 6186
20, 585233, Pitch_bend_c, 10, 6194
20, 585233, Pitch_bend_c, 10, 6202
20, 585234, Pitch_bend_c, 10, 6210
20, 585234, Pitch_bend_c, 10, 6218
20, 585235, Pitch_bend_c, 10, 6226
20, 585235, Pitch_bend_c, 10, 6234
20, 585236, Pitch_bend_c, 10, 6242
20, 585236, Pitch_bend_c, 10, 6249
20, 585237, Pitch_bend_c, 10, 6257
20, 585237, Pitch_bend_c, 10, 6265
20, 585238, Pitch_bend_c, 10, 6273
20, 585238, Pitch_bend_c, 10, 6281
20, 585239, Pitch_bend_c, 10, 6289
20, 585239, Pitch_bend_c, 10, 6297
20, 585240, Pitch_bend_c, 10, 6304
20, 585240, Pitch_bend_c, 10, 6312
20, 585241, Pitch_bend_c, 10, 6320
20, 585241, Pitch_bend_c, 10, 6328
20, 585242, Pitch_bend_c, 10, 6336
20, 585242, Pitch_bend_c, 10, 6344
20, 585243, Pitch_bend_c, 10, 6352
20, 585243, Pitch_bend_c, 10, 6360
20, 585244, Pitch_bend_c, 10, 6367
20, 585244, Pitch_bend_c, 10, 6375
20, 585245, Pitch_bend_c, 10, 6383
20, 585245, Pitch_bend_c, 10, 6391
20, 585246, Pitch_bend_c, 10, 6399
20, 585246, Pitch_bend_c, 10, 6407
20, 585247, Pitch_bend_c, 10, 6415
20, 585247, Pitch_bend_c, 10, 6422
20, 585248, Pitch_bend_c, 10, 6430
20, 585248, Pitch_bend_c, 10, 6438
20, 585249, Pitch_bend_c, 10, 6446
20, 585249, Pitch_bend_c, 10, 6454
20, 585250, Pitch_bend_c, 10, 6462
20, 585250, Pitch_bend_c, 10, 6470
20, 585251, Pitch_bend_c, 10, 6478
20, 585251, Pitch_bend_c, 10, 6485
20, 585252, Pitch_bend_c, 10, 6493
20, 585252, Pitch_bend_c, 10, 6501
20, 585253, Pitch_bend_c, 10, 6509
20, 585253, Pitch_bend_c, 10, 6517
20, 585254, Pitch_bend_c, 10, 6525
20, 585254, Pitch_bend_c, 10, 6533
20, 585255, Pitch_bend_c, 10, 6540
20, 585255, Pitch_bend_c, 10, 6548
20, 585256, Pitch_bend_c, 10, 6556
20, 585256, Pitch_bend_c, 10, 6564
20, 585257, Pitch_bend_c, 10, 6572
20, 585257, Pitch_bend_c, 10, 6580
20, 585258, Pitch_bend_c, 10, 6588
20, 585258, Pitch_bend_c, 10, 6596
20, 585259, Pitch_bend_c, 10, 6603
20, 585259, Pitch_bend_c, 10, 6611
20, 585260, Pitch_bend_c, 10, 6619
20, 585260, Pitch_bend_c, 10, 6627
20, 585261, Pitch_bend_c, 10, 6635
20, 585261, Pitch_bend_c, 10, 6643
20, 585262, Pitch_bend_c, 10, 6651
20, 585262, Pitch_bend_c, 10, 6658
20, 585263, Pitch_bend_c, 10, 6666
20, 585263, Pitch_bend_c, 10, 6674
20, 585264, Pitch_bend_c, 10, 6682
20, 585264, Pitch_bend_c, 10, 6690
20, 585265, Pitch_bend_c, 10, 6698
20, 585265, Pitch_bend_c, 10, 6706
20, 585266, Pitch_bend_c, 10, 6714
20, 585266, Pitch_bend_c, 10, 6721
20, 585267, Pitch_bend_c, 10, 6729
20, 585267, Pitch_bend_c, 10, 6737
20, 585268, Pitch_bend_c, 10, 6745
20, 585268, Pitch_bend_c, 10, 6753
20, 585269, Pitch_bend_c, 10, 6761
20, 585269, Pitch_bend_c, 10, 6769
20, 585270, Pitch_bend_c, 10, 6776
20, 585270, Pitch_bend_c, 10, 6784
20, 585271, Pitch_bend_c, 10, 6792
20, 585271, Pitch_bend_c, 10, 6800
20, 585272, Pitch_bend_c, 10, 6808
20, 585272, Pitch_bend_c, 10, 6816
20, 585273, Pitch_bend_c, 10, 6824
20, 585273, Pitch_bend_c, 10, 6832
20, 585274, Pitch_bend_c, 10, 6839
20, 585274, Pitch_bend_c, 10, 6847
20, 585275, Pitch_bend_c, 10, 6855
20, 585275, Pitch_bend_c, 10, 6863
20, 585276, Pitch_bend_c, 10, 6871
20, 585276, Pitch_bend_c, 10, 6879
20, 585277, Pitch_bend_c, 10, 6887
20, 585277, Pitch_bend_c, 10, 6894
20, 585278, Pitch_bend_c, 10, 6902
20, 585278, Pitch_bend_c, 10, 6910
20, 585279, Pitch_bend_c, 10, 6918
20, 585279, Pitch_bend_c, 10, 6926
20, 585280, Pitch_bend_c, 10, 6934
20, 585280, Pitch_bend_c, 10, 6942
20, 585281, Pitch_bend_c, 10, 6950
20, 585281, Pitch_bend_c, 10, 6957
20, 585282, Pitch_bend_c, 10, 6965
20, 585282, Pitch_bend_c, 10, 6973
20, 585283, Pitch_bend_c, 10, 6981
20, 585283, Pitch_bend_c, 10, 6989
20, 585284, Pitch_bend_c, 10, 6997
20, 585284, Pitch_bend_c, 10, 7005
20, 585285, Pitch_bend_c, 10, 7012
20, 585285, Pitch_bend_c, 10, 7020
20, 585286, Pitch_bend_c, 10, 7028
20, 585286, Pitch_bend_c, 10, 7036
20, 585287, Pitch_bend_c, 10, 7044
20, 585287, Pitch_bend_c, 10, 7052
20, 585288, Pitch_bend_c, 10, 7060
20, 585288, Pitch_bend_c, 10, 7068
20, 585289, Pitch_bend_c, 10, 7075
20, 585289, Pitch_bend_c, 10, 7083
20, 585290, Pitch_bend_c, 10, 7091
20, 585290, Pitch_bend_c, 10, 7099
20, 585291, Pitch_bend_c, 10, 7107
20, 585291, Pitch_bend_c, 10, 7115
20, 585292, Pitch_bend_c, 10, 7123
20, 585292, Pitch_bend_c, 10, 7130
20, 585293, Pitch_bend_c, 10, 7138
20, 585293, Pitch_bend_c, 10, 7146
20, 585294, Pitch_bend_c, 10, 7154
20, 585294, Pitch_bend_c, 10, 7162
20, 585295, Pitch_bend_c, 10, 7170
20, 585295, Pitch_bend_c, 10, 7178
20, 585296, Pitch_bend_c, 10, 7186
20, 585296, Pitch_bend_c, 10, 7193
20, 585297, Pitch_bend_c, 10, 7201
20, 585297, Pitch_bend_c, 10, 7209
20, 585298, Pitch_bend_c, 10, 7217
20, 585298, Pitch_bend_c, 10, 7225
20, 585299, Pitch_bend_c, 10, 7233
20, 585299, Pitch_bend_c, 10, 7241
20, 585300, Pitch_bend_c, 10, 7248
20, 585300, Pitch_bend_c, 10, 7256
20, 585301, Pitch_bend_c, 10, 7264
20, 585301, Pitch_bend_c, 10, 7272
20, 585302, Pitch_bend_c, 10, 7280
20, 585302, Pitch_bend_c, 10, 7288
20, 585303, Pitch_bend_c, 10, 7296
20, 585303, Pitch_bend_c, 10, 7304
20, 585304, Pitch_bend_c, 10, 7311
20, 585304, Pitch_bend_c, 10, 7319
20, 585305, Pitch_bend_c, 10, 7327
20, 585305, Pitch_bend_c, 10, 7335
20, 585306, Pitch_bend_c, 10, 7343
20, 585306, Pitch_bend_c, 10, 7351
20, 585307, Pitch_bend_c, 10, 7359
20, 585307, Pitch_bend_c, 10, 7366
20, 585308, Pitch_bend_c, 10, 7374
20, 585308, Pitch_bend_c, 10, 7382
20, 585309, Pitch_bend_c, 10, 7390
20, 585309, Pitch_bend_c, 10, 7398
20, 585310, Pitch_bend_c, 10, 7406
20, 585310, Pitch_bend_c, 10, 7414
20, 585311, Pitch_bend_c, 10, 7422
20, 585311, Pitch_bend_c, 10, 7429
20, 585312, Pitch_bend_c, 10, 7437
20, 585312, Pitch_bend_c, 10, 7445
20, 585313, Pitch_bend_c, 10, 7453
20, 585313, Pitch_bend_c, 10, 7461
20, 585314, Pitch_bend_c, 10, 7469
20, 585314, Pitch_bend_c, 10, 7477
20, 585315, Pitch_bend_c, 10, 7484
20, 585315, Pitch_bend_c, 10, 7492
20, 585316, Pitch_bend_c, 10, 7500
20, 585316, Pitch_bend_c, 10, 7508
20, 585317, Pitch_bend_c, 10, 7516
20, 585317, Pitch_bend_c, 10, 7524
20, 585318, Pitch_bend_c, 10, 7532
20, 585318, Pitch_bend_c, 10, 7540
20, 585319, Pitch_bend_c, 10, 7547
20, 585319, Pitch_bend_c, 10, 7555
20, 585320, Pitch_bend_c, 10, 7563
20, 585320, Pitch_bend_c, 10, 7571
20, 585321, Pitch_bend_c, 10, 7579
20, 585321, Pitch_bend_c, 10, 7587
20, 585322, Pitch_bend_c, 10, 7595
20, 585322, Pitch_bend_c, 10, 7602
20, 585323, Pitch_bend_c, 10, 7610
20, 585323, Pitch_bend_c, 10, 7618
20, 585324, Pitch_bend_c, 10, 7626
20, 585324, Pitch_bend_c, 10, 7634
20, 585325, Pitch_bend_c, 10, 7642
20, 585325, Pitch_bend_c, 10, 7650
20, 585326, Pitch_bend_c, 10, 7658
20, 585326, Pitch_bend_c, 10, 7665
20, 585327, Pitch_bend_c, 10, 7673
20, 585327, Pitch_bend_c, 10, 7681
20, 585328, Pitch_bend_c, 10, 7689
20, 585328, Pitch_bend_c, 10, 7697
20, 585329, Pitch_bend_c, 10, 7705
20, 585329, Pitch_bend_c, 10, 7713
20, 585330, Pitch_bend_c, 10, 7720
20, 585330, Pitch_bend_c, 10, 7728
20, 585331, Pitch_bend_c, 10, 7736
20, 585331, Pitch_bend_c, 10, 7744
20, 585332, Pitch_bend_c, 10, 7752
20, 585332, Pitch_bend_c, 10, 7760
20, 585333, Pitch_bend_c, 10, 7768
20, 585333, Pitch_bend_c, 10, 7776
20, 585334, Pitch_bend_c, 10, 7783
20, 585334, Pitch_bend_c, 10, 7791
20, 585335, Pitch_bend_c, 10, 7799
20, 585335, Pitch_bend_c, 10, 7807
20, 585336, Pitch_bend_c, 10, 7815
20, 585336, Pitch_bend_c, 10, 7823
20, 585337, Pitch_bend_c, 10, 7831
20, 585337, Pitch_bend_c, 10, 7838
20, 585338, Pitch_bend_c, 10, 7846
20, 585338, Pitch_bend_c, 10, 7854
20, 585339, Pitch_bend_c, 10, 7862
20, 585339, Pitch_bend_c, 10, 7870
20, 585340, Pitch_bend_c, 10, 7878
20, 585340, Pitch_bend_c, 10, 7886
20, 585341, Pitch_bend_c, 10, 7894
20, 585341, Pitch_bend_c, 10, 7901
20, 585342, Pitch_bend_c, 10, 7909
20, 585342, Pitch_bend_c, 10, 7917
20, 585343, Pitch_bend_c, 10, 7925
20, 585343, Pitch_bend_c, 10, 7933
20, 585344, Pitch_bend_c, 10, 7941
20, 585344, Pitch_bend_c, 10, 7949
20, 585345, Pitch_bend_c, 10, 7956
20, 585345, Pitch_bend_c, 10, 7964
20, 585346, Pitch_bend_c, 10, 7972
20, 585346, Pitch_bend_c, 10, 7980
20, 585347, Pitch_bend_c, 10, 7988
20, 585347, Pitch_bend_c, 10, 7996
20, 585348, Pitch_bend_c, 10, 8004
20, 585348, Pitch_bend_c, 10, 8012
20, 585349, Pitch_bend_c, 10, 8019
20, 585349, Pitch_bend_c, 10, 8027
20, 585350, Pitch_bend_c, 10, 8035
20, 585350, Pitch_bend_c, 10, 8043
20, 585351, Pitch_bend_c, 10, 8051
20, 585351, Pitch_bend_c, 10, 8059
20, 585352, Pitch_bend_c, 10, 8067
20, 585352, Pitch_bend_c, 10, 8074
20, 585353, Pitch_bend_c, 10, 8082
20, 585353, Pitch_bend_c, 10, 8090
20, 585354, Pitch_bend_c, 10, 8098
20, 585354, Pitch_bend_c, 10, 8106
20, 585355, Pitch_bend_c, 10, 8114
20, 585355, Pitch_bend_c, 10, 8122
20, 585356, Pitch_bend_c, 10, 8130
20, 585356, Pitch_bend_c, 10, 8137
20, 585357, Pitch_bend_c, 10, 8145
20, 585357, Pitch_bend_c, 10, 8153
20, 585358, Pitch_bend_c, 10, 8161
20, 585358, Pitch_bend_c, 10, 8169
20, 585359, Pitch_bend_c, 10, 8177
20, 585359, Pitch_bend_c, 10, 8185
20, 585360, Pitch_bend_c, 10, 8192
20, 585379, Note_on_c, 10, 51, 0
20, 587040, Pitch_bend_c, 10, 4416
20, 587040, Pitch_bend_c, 10, 4424
20, 587041, Pitch_bend_c, 10, 4432
20, 587041, Pitch_bend_c, 10, 4440
20, 587042, Pitch_bend_c, 10, 4448
20, 587042, Pitch_bend_c, 10, 4456
20, 587043, Pitch_bend_c, 10, 4464
20, 587043, Pitch_bend_c, 10, 4472
20, 587044, Pitch_bend_c, 10, 4479
20, 587044, Pitch_bend_c, 10, 4487
20, 587045, Pitch_bend_c, 10, 4495
20, 587045, Pitch_bend_c, 10, 4503
20, 587046, Pitch_bend_c, 10, 4511
20, 587046, Pitch_bend_c, 10, 4519
20, 587047, Pitch_bend_c, 10, 4527
20, 587047, Pitch_bend_c, 10, 4534
20, 587048, Pitch_bend_c, 10, 4542
20, 587048, Pitch_bend_c, 10, 4550
20, 587049, Pitch_bend_c, 10, 4558
20, 587049, Pitch_bend_c, 10, 4566
20, 587050, Pitch_bend_c, 10, 4574
20, 587050, Pitch_bend_c, 10, 4582
20, 587051, Pitch_bend_c, 10, 4590
20, 587051, Pitch_bend_c, 10, 4597
20, 587052, Pitch_bend_c, 10, 4605
20, 587052, Pitch_bend_c, 10, 4613
20, 587053, Pitch_bend_c, 10, 4621
20, 587053, Pitch_bend_c, 10, 4629
20, 587054, Pitch_bend_c, 10, 4637
20, 587054, Pitch_bend_c, 10, 4645
20, 587055, Pitch_bend_c, 10, 4652
20, 587055, Pitch_bend_c, 10, 4660
20, 587056, Pitch_bend_c, 10, 4668
20, 587056, Pitch_bend_c, 10, 4676
20, 587057, Pitch_bend_c, 10, 4684
20, 587057, Pitch_bend_c, 10, 4692
20, 587058, Pitch_bend_c, 10, 4700
20, 587058, Pitch_bend_c, 10, 4708
20, 587059, Pitch_bend_c, 10, 4715
20, 587059, Pitch_bend_c, 10, 4723
20, 587060, Pitch_bend_c, 10, 4731
20, 587060, Pitch_bend_c, 10, 4739
20, 587061, Pitch_bend_c, 10, 4747
20, 587061, Pitch_bend_c, 10, 4755
20, 587062, Pitch_bend_c, 10, 4763
20, 587062, Pitch_bend_c, 10, 4770
20, 587063, Pitch_bend_c, 10, 4778
20, 587063, Pitch_bend_c, 10, 4786
20, 587064, Note_on_c, 10, 51, 95
20, 587064, Pitch_bend_c, 10, 4794
20, 587064, Pitch_bend_c, 10, 4802
20, 587065, Pitch_bend_c, 10, 4810
20, 587065, Pitch_bend_c, 10, 4818
20, 587066, Pitch_bend_c, 10, 4826
20, 587066, Pitch_bend_c, 10, 4833
20, 587067, Pitch_bend_c, 10, 4841
20, 587067, Pitch_bend_c, 10, 4849
20, 587068, Pitch_bend_c, 10, 4857
20, 587068, Pitch_bend_c, 10, 4865
20, 587069, Pitch_bend_c, 10, 4873
20, 587069, Pitch_bend_c, 10, 4881
20, 587070, Pitch_bend_c, 10, 4888
20, 587070, Pitch_bend_c, 10, 4896
20, 587071, Pitch_bend_c, 10, 4904
20, 587071, Pitch_bend_c, 10, 4912
20, 587072, Pitch_bend_c, 10, 4920
20, 587072, Pitch_bend_c, 10, 4928
20, 587073, Pitch_bend_c, 10, 4936
20, 587073, Pitch_bend_c, 10, 4944
20, 587074, Pitch_bend_c, 10, 4951
20, 587074, Pitch_bend_c, 10, 4959
20, 587075, Pitch_bend_c, 10, 4967
20, 587075, Pitch_bend_c, 10, 4975
20, 587076, Pitch_bend_c, 10, 4983
20, 587076, Pitch_bend_c, 10, 4991
20, 587077, Pitch_bend_c, 10, 4999
20, 587077, Pitch_bend_c, 10, 5006
20, 587078, Pitch_bend_c, 10, 5014
20, 587078, Pitch_bend_c, 10, 5022
20, 587079, Pitch_bend_c, 10, 5030
20, 587079, Pitch_bend_c, 10, 5038
20, 587080, Pitch_bend_c, 10, 5046
20, 587080, Pitch_bend_c, 10, 5054
20, 587081, Pitch_bend_c, 10, 5062
20, 587081, Pitch_bend_c, 10, 5069
20, 587082, Pitch_bend_c, 10, 5077
20, 587082, Pitch_bend_c, 10, 5085
20, 587083, Pitch_bend_c, 10, 5093
20, 587083, Pitch_bend_c, 10, 5101
20, 587084, Pitch_bend_c, 10, 5109
20, 587084, Pitch_bend_c, 10, 5117
20, 587085, Pitch_bend_c, 10, 5124
20, 587085, Pitch_bend_c, 10, 5132
20, 587086, Pitch_bend_c, 10, 5140
20, 587086, Pitch_bend_c, 10, 5148
20, 587087, Pitch_bend_c, 10, 5156
20, 587087, Pitch_bend_c, 10, 5164
20, 587088, Pitch_bend_c, 10, 5172
20, 587088, Pitch_bend_c, 10, 5180
20, 587089, Pitch_bend_c, 10, 5187
20, 587089, Pitch_bend_c, 10, 5195
20, 587090, Pitch_bend_c, 10, 5203
20, 587090, Pitch_bend_c, 10, 5211
20, 587091, Pitch_bend_c, 10, 5219
20, 587091, Pitch_bend_c, 10, 5227
20, 587092, Pitch_bend_c, 10, 5235
20, 587092, Pitch_bend_c, 10, 5242
20, 587093, Pitch_bend_c, 10, 5250
20, 587093, Pitch_bend_c, 10, 5258
20, 587094, Pitch_bend_c, 10, 5266
20, 587094, Pitch_bend_c, 10, 5274
20, 587095, Pitch_bend_c, 10, 5282
20, 587095, Pitch_bend_c, 10, 5290
20, 587096, Pitch_bend_c, 10, 5298
20, 587096, Pitch_bend_c, 10, 5305
20, 587097, Pitch_bend_c, 10, 5313
20, 587097, Pitch_bend_c, 10, 5321
20, 587098, Pitch_bend_c, 10, 5329
20, 587098, Pitch_bend_c, 10, 5337
20, 587099, Pitch_bend_c, 10, 5345
20, 587099, Pitch_bend_c, 10, 5353
20, 587100, Pitch_bend_c, 10, 5360
20, 587100, Pitch_bend_c, 10, 5368
20, 587101, Pitch_bend_c, 10, 5376
20, 587101, Pitch_bend_c, 10, 5384
20, 587102, Pitch_bend_c, 10, 5392
20, 587102, Pitch_bend_c, 10, 5400
20, 587103, Pitch_bend_c, 10, 5408
20, 587103, Pitch_bend_c, 10, 5416
20, 587104, Pitch_bend_c, 10, 5423
20, 587104, Pitch_bend_c, 10, 5431
20, 587105, Pitch_bend_c, 10, 5439
20, 587105, Pitch_bend_c, 10, 5447
20, 587106, Pitch_bend_c, 10, 5455
20, 587106, Pitch_bend_c, 10, 5463
20, 587107, Pitch_bend_c, 10, 5471
20, 587107, Pitch_bend_c, 10, 5478
20, 587108, Pitch_bend_c, 10, 5486
20, 587108, Pitch_bend_c, 10, 5494
20, 587109, Pitch_bend_c, 10, 5502
20, 587109, Pitch_bend_c, 10, 5510
20, 587110, Pitch_bend_c, 10, 5518
20, 587110, Pitch_bend_c, 10, 5526
20, 587111, Pitch_bend_c, 10, 5534
20, 587111, Pitch_bend_c, 10, 5541
20, 587112, Pitch_bend_c, 10, 5549
20, 587112, Pitch_bend_c, 10, 5557
20, 587113, Pitch_bend_c, 10, 5565
20, 587113, Pitch_bend_c, 10, 5573
20, 587114, Pitch_bend_c, 10, 5581
20, 587114, Pitch_bend_c, 10, 5589
20, 587115, Pitch_bend_c, 10, 5596
20, 587115, Pitch_bend_c, 10, 5604
20, 587116, Pitch_bend_c, 10, 5612
20, 587116, Pitch_bend_c, 10, 5620
20, 587117, Pitch_bend_c, 10, 5628
20, 587117, Pitch_bend_c, 10, 5636
20, 587118, Pitch_bend_c, 10, 5644
20, 587118, Pitch_bend_c, 10, 5652
20, 587119, Pitch_bend_c, 10, 5659
20, 587119, Pitch_bend_c, 10, 5667
20, 587120, Pitch_bend_c, 10, 5675
20, 587120, Pitch_bend_c, 10, 5683
20, 587121, Pitch_bend_c, 10, 5691
20, 587121, Pitch_bend_c, 10, 5699
20, 587122, Pitch_bend_c, 10, 5707
20, 587122, Pitch_bend_c, 10, 5714
20, 587123, Pitch_bend_c, 10, 5722
20, 587123, Pitch_bend_c, 10, 5730
20, 587124, Pitch_bend_c, 10, 5738
20, 587124, Pitch_bend_c, 10, 5746
20, 587125, Pitch_bend_c, 10, 5754
20, 587125, Pitch_bend_c, 10, 5762
20, 587126, Pitch_bend_c, 10, 5770
20, 587126, Pitch_bend_c, 10, 5777
20, 587127, Pitch_bend_c, 10, 5785
20, 587127, Pitch_bend_c, 10, 5793
20, 587128, Pitch_bend_c, 10, 5801
20, 587128, Pitch_bend_c, 10, 5809
20, 587129, Pitch_bend_c, 10, 5817
20, 587129, Pitch_bend_c, 10, 5825
20, 587130, Pitch_bend_c, 10, 5832
20, 587130, Pitch_bend_c, 10, 5840
20, 587131, Pitch_bend_c, 10, 5848
20, 587131, Pitch_bend_c, 10, 5856
20, 587132, Pitch_bend_c, 10, 5864
20, 587132, Pitch_bend_c, 10, 5872
20, 587133, Pitch_bend_c, 10, 5880
20, 587133, Pitch_bend_c, 10, 5888
20, 587134, Pitch_bend_c, 10, 5895
20, 587134, Pitch_bend_c, 10, 5903
20, 587135, Pitch_bend_c, 10, 5911
20, 587135, Pitch_bend_c, 10, 5919
20, 587136, Pitch_bend_c, 10, 5927
20, 587136, Pitch_bend_c, 10, 5935
20, 587137, Pitch_bend_c, 10, 5943
20, 587137, Pitch_bend_c, 10, 5950
20, 587138, Pitch_bend_c, 10, 5958
20, 587138, Pitch_bend_c, 10, 5966
20, 587139, Pitch_bend_c, 10, 5974
20, 587139, Pitch_bend_c, 10, 5982
20, 587140, Pitch_bend_c, 10, 5990
20, 587140, Pitch_bend_c, 10, 5998
20, 587141, Pitch_bend_c, 10, 6006
20, 587141, Pitch_bend_c, 10, 6013
20, 587142, Pitch_bend_c, 10, 6021
20, 587142, Pitch_bend_c, 10, 6029
20, 587143, Pitch_bend_c, 10, 6037
20, 587143, Pitch_bend_c, 10, 6045
20, 587144, Pitch_bend_c, 10, 6053
20, 587144, Pitch_bend_c, 10, 6061
20, 587145, Pitch_bend_c, 10, 6068
20, 587145, Pitch_bend_c, 10, 6076
20, 587146, Pitch_bend_c, 10, 6084
20, 587146, Pitch_bend_c, 10, 6092
20, 587147, Pitch_bend_c, 10, 6100
20, 587147, Pitch_bend_c, 10, 6108
20, 587148, Pitch_bend_c, 10, 6116
20, 587148, Pitch_bend_c, 10, 6124
20, 587149, Pitch_bend_c, 10, 6131
20, 587149, Pitch_bend_c, 10, 6139
20, 587150, Pitch_bend_c, 10, 6147
20, 587150, Pitch_bend_c, 10, 6155
20, 587151, Pitch_bend_c, 10, 6163
20, 587151, Pitch_bend_c, 10, 6171
20, 587152, Pitch_bend_c, 10, 6179
20, 587152, Pitch_bend_c, 10, 6186
20, 587153, Pitch_bend_c, 10, 6194
20, 587153, Pitch_bend_c, 10, 6202
20, 587154, Pitch_bend_c, 10, 6210
20, 587154, Pitch_bend_c, 10, 6218
20, 587155, Pitch_bend_c, 10, 6226
20, 587155, Pitch_bend_c, 10, 6234
20, 587156, Pitch_bend_c, 10, 6242
20, 587156, Pitch_bend_c, 10, 6249
20, 587157, Pitch_bend_c, 10, 6257
20, 587157, Pitch_bend_c, 10, 6265
20, 587158, Pitch_bend_c, 10, 6273
20, 587158, Pitch_bend_c, 10, 6281
20, 587159, Pitch_bend_c, 10, 6289
20, 587159, Pitch_bend_c, 10, 6297
20, 587160, Pitch_bend_c, 10, 6304
20, 587160, Pitch_bend_c, 10, 6312
20, 587161, Pitch_bend_c, 10, 6320
20, 587161, Pitch_bend_c, 10, 6328
20, 587162, Pitch_bend_c, 10, 6336
20, 587162, Pitch_bend_c, 10, 6344
20, 587163, Pitch_bend_c, 10, 6352
20, 587163, Pitch_bend_c, 10, 6360
20, 587164, Pitch_bend_c, 10, 6367
20, 587164, Pitch_bend_c, 10, 6375
20, 587165, Pitch_bend_c, 10, 6383
20, 587165, Pitch_bend_c, 10, 6391
20, 587166, Pitch_bend_c, 10, 6399
20, 587166, Pitch_bend_c, 10, 6407
20, 587167, Pitch_bend_c, 10, 6415
20, 587167, Pitch_bend_c, 10, 6422
20, 587168, Pitch_bend_c, 10, 6430
20, 587168, Pitch_bend_c, 10, 6438
20, 587169, Pitch_bend_c, 10, 6446
20, 587169, Pitch_bend_c, 10, 6454
20, 587170, Pitch_bend_c, 10, 6462
20, 587170, Pitch_bend_c, 10, 6470
20, 587171, Pitch_bend_c, 10, 6478
20, 587171, Pitch_bend_c, 10, 6485
20, 587172, Pitch_bend_c, 10, 6493
20, 587172, Pitch_bend_c, 10, 6501
20, 587173, Pitch_bend_c, 10, 6509
20, 587173, Pitch_bend_c, 10, 6517
20, 587174, Pitch_bend_c, 10, 6525
20, 587174, Pitch_bend_c, 10, 6533
20, 587175, Pitch_bend_c, 10, 6540
20, 587175, Pitch_bend_c, 10, 6548
20, 587176, Pitch_bend_c, 10, 6556
20, 587176, Pitch_bend_c, 10, 6564
20, 587177, Pitch_bend_c, 10, 6572
20, 587177, Pitch_bend_c, 10, 6580
20, 587178, Pitch_bend_c, 10, 6588
20, 587178, Pitch_bend_c, 10, 6596
20, 587179, Pitch_bend_c, 10, 6603
20, 587179, Pitch_bend_c, 10, 6611
20, 587180, Pitch_bend_c, 10, 6619
20, 587180, Pitch_bend_c, 10, 6627
20, 587181, Pitch_bend_c, 10, 6635
20, 587181, Pitch_bend_c, 10, 6643
20, 587182, Pitch_bend_c, 10, 6651
20, 587182, Pitch_bend_c, 10, 6658
20, 587183, Pitch_bend_c, 10, 6666
20, 587183, Pitch_bend_c, 10, 6674
20, 587184, Pitch_bend_c, 10, 6682
20, 587184, Pitch_bend_c, 10, 6690
20, 587185, Pitch_bend_c, 10, 6698
20, 587185, Pitch_bend_c, 10, 6706
20, 587186, Pitch_bend_c, 10, 6714
20, 587186, Pitch_bend_c, 10, 6721
20, 587187, Pitch_bend_c, 10, 6729
20, 587187, Pitch_bend_c, 10, 6737
20, 587188, Pitch_bend_c, 10, 6745
20, 587188, Pitch_bend_c, 10, 6753
20, 587189, Pitch_bend_c, 10, 6761
20, 587189, Pitch_bend_c, 10, 6769
20, 587190, Pitch_bend_c, 10, 6776
20, 587190, Pitch_bend_c, 10, 6784
20, 587191, Pitch_bend_c, 10, 6792
20, 587191, Pitch_bend_c, 10, 6800
20, 587192, Pitch_bend_c, 10, 6808
20, 587192, Pitch_bend_c, 10, 6816
20, 587193, Pitch_bend_c, 10, 6824
20, 587193, Pitch_bend_c, 10, 6832
20, 587194, Pitch_bend_c, 10, 6839
20, 587194, Pitch_bend_c, 10, 6847
20, 587195, Pitch_bend_c, 10, 6855
20, 587195, Pitch_bend_c, 10, 6863
20, 587196, Pitch_bend_c, 10, 6871
20, 587196, Pitch_bend_c, 10, 6879
20, 587197, Pitch_bend_c, 10, 6887
20, 587197, Pitch_bend_c, 10, 6894
20, 587198, Pitch_bend_c, 10, 6902
20, 587198, Pitch_bend_c, 10, 6910
20, 587199, Pitch_bend_c, 10, 6918
20, 587199, Pitch_bend_c, 10, 6926
20, 587200, Pitch_bend_c, 10, 6934
20, 587200, Pitch_bend_c, 10, 6942
20, 587201, Pitch_bend_c, 10, 6950
20, 587201, Pitch_bend_c, 10, 6957
20, 587202, Pitch_bend_c, 10, 6965
20, 587202, Pitch_bend_c, 10, 6973
20, 587203, Pitch_bend_c, 10, 6981
20, 587203, Pitch_bend_c, 10, 6989
20, 587204, Pitch_bend_c, 10, 6997
20, 587204, Pitch_bend_c, 10, 7005
20, 587205, Pitch_bend_c, 10, 7012
20, 587205, Pitch_bend_c, 10, 7020
20, 587206, Pitch_bend_c, 10, 7028
20, 587206, Pitch_bend_c, 10, 7036
20, 587207, Pitch_bend_c, 10, 7044
20, 587207, Pitch_bend_c, 10, 7052
20, 587208, Pitch_bend_c, 10, 7060
20, 587208, Pitch_bend_c, 10, 7068
20, 587209, Pitch_bend_c, 10, 7075
20, 587209, Pitch_bend_c, 10, 7083
20, 587210, Pitch_bend_c, 10, 7091
20, 587210, Pitch_bend_c, 10, 7099
20, 587211, Pitch_bend_c, 10, 7107
20, 587211, Pitch_bend_c, 10, 7115
20, 587212, Pitch_bend_c, 10, 7123
20, 587212, Pitch_bend_c, 10, 7130
20, 587213, Pitch_bend_c, 10, 7138
20, 587213, Pitch_bend_c, 10, 7146
20, 587214, Pitch_bend_c, 10, 7154
20, 587214, Pitch_bend_c, 10, 7162
20, 587215, Pitch_bend_c, 10, 7170
20, 587215, Pitch_bend_c, 10, 7178
20, 587216, Pitch_bend_c, 10, 7186
20, 587216, Pitch_bend_c, 10, 7193
20, 587217, Pitch_bend_c, 10, 7201
20, 587217, Pitch_bend_c, 10, 7209
20, 587218, Pitch_bend_c, 10, 7217
20, 587218, Pitch_bend_c, 10, 7225
20, 587219, Pitch_bend_c, 10, 7233
20, 587219, Pitch_bend_c, 10, 7241
20, 587220, Pitch_bend_c, 10, 7248
20, 587220, Pitch_bend_c, 10, 7256
20, 587221, Pitch_bend_c, 10, 7264
20, 587221, Pitch_bend_c, 10, 7272
20, 587222, Pitch_bend_c, 10, 7280
20, 587222, Pitch_bend_c, 10, 7288
20, 587223, Pitch_bend_c, 10, 7296
20, 587223, Pitch_bend_c, 10, 7304
20, 587224, Pitch_bend_c, 10, 7311
20, 587224, Pitch_bend_c, 10, 7319
20, 587225, Pitch_bend_c, 10, 7327
20, 587225, Pitch_bend_c, 10, 7335
20, 587226, Pitch_bend_c, 10, 7343
20, 587226, Pitch_bend_c, 10, 7351
20, 587227, Pitch_bend_c, 10, 7359
20, 587227, Pitch_bend_c, 10, 7366
20, 587228, Pitch_bend_c, 10, 7374
20, 587228, Pitch_bend_c, 10, 7382
20, 587229, Pitch_bend_c, 10, 7390
20, 587229, Pitch_bend_c, 10, 7398
20, 587230, Pitch_bend_c, 10, 7406
20, 587230, Pitch_bend_c, 10, 7414
20, 587231, Pitch_bend_c, 10, 7422
20, 587231, Pitch_bend_c, 10, 7429
20, 587232, Pitch_bend_c, 10, 7437
20, 587232, Pitch_bend_c, 10, 7445
20, 587233, Pitch_bend_c, 10, 7453
20, 587233, Pitch_bend_c, 10, 7461
20, 587234, Pitch_bend_c, 10, 7469
20, 587234, Pitch_bend_c, 10, 7477
20, 587235, Pitch_bend_c, 10, 7484
20, 587235, Pitch_bend_c, 10, 7492
20, 587236, Pitch_bend_c, 10, 7500
20, 587236, Pitch_bend_c, 10, 7508
20, 587237, Pitch_bend_c, 10, 7516
20, 587237, Pitch_bend_c, 10, 7524
20, 587238, Pitch_bend_c, 10, 7532
20, 587238, Pitch_bend_c, 10, 7540
20, 587239, Pitch_bend_c, 10, 7547
20, 587239, Pitch_bend_c, 10, 7555
20, 587240, Pitch_bend_c, 10, 7563
20, 587240, Pitch_bend_c, 10, 7571
20, 587241, Pitch_bend_c, 10, 7579
20, 587241, Pitch_bend_c, 10, 7587
20, 587242, Pitch_bend_c, 10, 7595
20, 587242, Pitch_bend_c, 10, 7602
20, 587243, Pitch_bend_c, 10, 7610
20, 587243, Pitch_bend_c, 10, 7618
20, 587244, Pitch_bend_c, 10, 7626
20, 587244, Pitch_bend_c, 10, 7634
20, 587245, Pitch_bend_c, 10, 7642
20, 587245, Pitch_bend_c, 10, 7650
20, 587246, Pitch_bend_c, 10, 7658
20, 587246, Pitch_bend_c, 10, 7665
20, 587247, Pitch_bend_c, 10, 7673
20, 587247, Pitch_bend_c, 10, 7681
20, 587248, Pitch_bend_c, 10, 7689
20, 587248, Pitch_bend_c, 10, 7697
20, 587249, Pitch_bend_c, 10, 7705
20, 587249, Pitch_bend_c, 10, 7713
20, 587250, Pitch_bend_c, 10, 7720
20, 587250, Pitch_bend_c, 10, 7728
20, 587251, Pitch_bend_c, 10, 7736
20, 587251, Pitch_bend_c, 10, 7744
20, 587252, Pitch_bend_c, 10, 7752
20, 587252, Pitch_bend_c, 10, 7760
20, 587253, Pitch_bend_c, 10, 7768
20, 587253, Pitch_bend_c, 10, 7776
20, 587254, Pitch_bend_c, 10, 7783
20, 587254, Pitch_bend_c, 10, 7791
20, 587255, Pitch_bend_c, 10, 7799
20, 587255, Pitch_bend_c, 10, 7807
20, 587256, Pitch_bend_c, 10, 7815
20, 587256, Pitch_bend_c, 10, 7823
20, 587257, Pitch_bend_c, 10, 7831
20, 587257, Pitch_bend_c, 10, 7838
20, 587258, Pitch_bend_c, 10, 7846
20, 587258, Pitch_bend_c, 10, 7854
20, 587259, Pitch_bend_c, 10, 7862
20, 587259, Pitch_bend_c, 10, 7870
20, 587260, Pitch_bend_c, 10, 7878
20, 587260, Pitch_bend_c, 10, 7886
20, 587261, Pitch_bend_c, 10, 7894
20, 587261, Pitch_bend_c, 10, 7901
20, 587262, Pitch_bend_c, 10, 7909
20, 587262, Pitch_bend_c, 10, 7917
20, 587263, Pitch_bend_c, 10, 7925
20, 587263, Pitch_bend_c, 10, 7933
20, 587264, Pitch_bend_c, 10, 7941
20, 587264, Pitch_bend_c, 10, 7949
20, 587265, Pitch_bend_c, 10, 7956
20, 587265, Pitch_bend_c, 10, 7964
20, 587266, Pitch_bend_c, 10, 7972
20, 587266, Pitch_bend_c, 10, 7980
20, 587267, Pitch_bend_c, 10, 7988
20, 587267, Pitch_bend_c, 10, 7996
20, 587268, Pitch_bend_c, 10, 8004
20, 587268, Pitch_bend_c, 10, 8012
20, 587269, Pitch_bend_c, 10, 8019
20, 587269, Pitch_bend_c, 10, 8027
20, 587270, Pitch_bend_c, 10, 8035
20, 587270, Pitch_bend_c, 10, 8043
20, 587271, Pitch_bend_c, 10, 8051
20, 587271, Pitch_bend_c, 10, 8059
20, 587272, Pitch_bend_c, 10, 8067
20, 587272, Pitch_bend_c, 10, 8074
20, 587273, Pitch_bend_c, 10, 8082
20, 587273, Pitch_bend_c, 10, 8090
20, 587274, Pitch_bend_c, 10, 8098
20, 587274, Pitch_bend_c, 10, 8106
20, 587275, Pitch_bend_c, 10, 8114
20, 587275, Pitch_bend_c, 10, 8122
20, 587276, Pitch_bend_c, 10, 8130
20, 587276, Pitch_bend_c, 10, 8137
20, 587277, Pitch_bend_c, 10, 8145
20, 587277, Pitch_bend_c, 10, 8153
20, 587278, Pitch_bend_c, 10, 8161
20, 587278, Pitch_bend_c, 10, 8169
20, 587279, Pitch_bend_c, 10, 8177
20, 587279, Pitch_bend_c, 10, 8185
20, 587280, Pitch_bend_c, 10, 8192
20, 587304, Note_on_c, 10, 51, 0
20, 588480, Pitch_bend_c, 10, 4416
20, 588480, Pitch_bend_c, 10, 4424
20, 588481, Pitch_bend_c, 10, 4432
20, 588481, Pitch_bend_c, 10, 4440
20, 588482, Pitch_bend_c, 10, 4448
20, 588482, Pitch_bend_c, 10, 4456
20, 588483, Pitch_bend_c, 10, 4464
20, 588483, Pitch_bend_c, 10, 4472
20, 588484, Pitch_bend_c, 10, 4479
20, 588484, Pitch_bend_c, 10, 4487
20, 588485, Pitch_bend_c, 10, 4495
20, 588485, Pitch_bend_c, 10, 4503
20, 588486, Pitch_bend_c, 10, 4511
20, 588486, Pitch_bend_c, 10, 4519
20, 588487, Pitch_bend_c, 10, 4527
20, 588487, Pitch_bend_c, 10, 4534
20, 588488, Pitch_bend_c, 10, 4542
20, 588488, Pitch_bend_c, 10, 4550
20, 588489, Pitch_bend_c, 10, 4558
20, 588489, Pitch_bend_c, 10, 4566
20, 588490, Pitch_bend_c, 10, 4574
20, 588490, Pitch_bend_c, 10, 4582
20, 588491, Pitch_bend_c, 10, 4590
20, 588491, Pitch_bend_c, 10, 4597
20, 588492, Pitch_bend_c, 10, 4605
20, 588492, Note_on_c, 10, 51, 94
20, 588492, Pitch_bend_c, 10, 4613
20, 588493, Pitch_bend_c, 10, 4621
20, 588493, Pitch_bend_c, 10, 4629
20, 588494, Pitch_bend_c, 10, 4637
20, 588494, Pitch_bend_c, 10, 4645
20, 588495, Pitch_bend_c, 10, 4652
20, 588495, Pitch_bend_c, 10, 4660
20, 588496, Pitch_bend_c, 10, 4668
20, 588496, Pitch_bend_c, 10, 4676
20, 588497, Pitch_bend_c, 10, 4684
20, 588497, Pitch_bend_c, 10, 4692
20, 588498, Pitch_bend_c, 10, 4700
20, 588498, Pitch_bend_c, 10, 4708
20, 588499, Pitch_bend_c, 10, 4715
20, 588499, Pitch_bend_c, 10, 4723
20, 588500, Pitch_bend_c, 10, 4731
20, 588500, Pitch_bend_c, 10, 4739
20, 588501, Pitch_bend_c, 10, 4747
20, 588501, Pitch_bend_c, 10, 4755
20, 588502, Pitch_bend_c, 10, 4763
20, 588502, Pitch_bend_c, 10, 4770
20, 588503, Pitch_bend_c, 10, 4778
20, 588503, Pitch_bend_c, 10, 4786
20, 588504, Pitch_bend_c, 10, 4794
20, 588504, Pitch_bend_c, 10, 4802
20, 588505, Pitch_bend_c, 10, 4810
20, 588505, Pitch_bend_c, 10, 4818
20, 588506, Pitch_bend_c, 10, 4826
20, 588506, Pitch_bend_c, 10, 4833
20, 588507, Pitch_bend_c, 10, 4841
20, 588507, Pitch_bend_c, 10, 4849
20, 588508, Pitch_bend_c, 10, 4857
20, 588508, Pitch_bend_c, 10, 4865
20, 588509, Pitch_bend_c, 10, 4873
20, 588509, Pitch_bend_c, 10, 4881
20, 588510, Pitch_bend_c, 10, 4888
20, 588510, Pitch_bend_c, 10, 4896
20, 588511, Pitch_bend_c, 10, 4904
20, 588511, Pitch_bend_c, 10, 4912
20, 588512, Pitch_bend_c, 10, 4920
20, 588512, Pitch_bend_c, 10, 4928
20, 588513, Pitch_bend_c, 10, 4936
20, 588513, Pitch_bend_c, 10, 4944
20, 588514, Pitch_bend_c, 10, 4951
20, 588514, Pitch_bend_c, 10, 4959
20, 588515, Pitch_bend_c, 10, 4967
20, 588515, Pitch_bend_c, 10, 4975
20, 588516, Pitch_bend_c, 10, 4983
20, 588516, Pitch_bend_c, 10, 4991
20, 588517, Pitch_bend_c, 10, 4999
20, 588517, Pitch_bend_c, 10, 5006
20, 588518, Pitch_bend_c, 10, 5014
20, 588518, Pitch_bend_c, 10, 5022
20, 588519, Pitch_bend_c, 10, 5030
20, 588519, Pitch_bend_c, 10, 5038
20, 588520, Pitch_bend_c, 10, 5046
20, 588520, Pitch_bend_c, 10, 5054
20, 588521, Pitch_bend_c, 10, 5062
20, 588521, Pitch_bend_c, 10, 5069
20, 588522, Pitch_bend_c, 10, 5077
20, 588522, Pitch_bend_c, 10, 5085
20, 588523, Pitch_bend_c, 10, 5093
20, 588523, Pitch_bend_c, 10, 5101
20, 588524, Pitch_bend_c, 10, 5109
20, 588524, Pitch_bend_c, 10, 5117
20, 588525, Pitch_bend_c, 10, 5124
20, 588525, Pitch_bend_c, 10, 5132
20, 588526, Pitch_bend_c, 10, 5140
20, 588526, Pitch_bend_c, 10, 5148
20, 588527, Pitch_bend_c, 10, 5156
20, 588527, Pitch_bend_c, 10, 5164
20, 588528, Pitch_bend_c, 10, 5172
20, 588528, Pitch_bend_c, 10, 5180
20, 588529, Pitch_bend_c, 10, 5187
20, 588529, Pitch_bend_c, 10, 5195
20, 588530, Pitch_bend_c, 10, 5203
20, 588530, Pitch_bend_c, 10, 5211
20, 588531, Pitch_bend_c, 10, 5219
20, 588531, Pitch_bend_c, 10, 5227
20, 588532, Pitch_bend_c, 10, 5235
20, 588532, Pitch_bend_c, 10, 5242
20, 588533, Pitch_bend_c, 10, 5250
20, 588533, Pitch_bend_c, 10, 5258
20, 588534, Pitch_bend_c, 10, 5266
20, 588534, Pitch_bend_c, 10, 5274
20, 588535, Pitch_bend_c, 10, 5282
20, 588535, Pitch_bend_c, 10, 5290
20, 588536, Pitch_bend_c, 10, 5298
20, 588536, Pitch_bend_c, 10, 5305
20, 588537, Pitch_bend_c, 10, 5313
20, 588537, Pitch_bend_c, 10, 5321
20, 588538, Pitch_bend_c, 10, 5329
20, 588538, Pitch_bend_c, 10, 5337
20, 588539, Pitch_bend_c, 10, 5345
20, 588539, Pitch_bend_c, 10, 5353
20, 588540, Pitch_bend_c, 10, 5360
20, 588540, Pitch_bend_c, 10, 5368
20, 588541, Pitch_bend_c, 10, 5376
20, 588541, Pitch_bend_c, 10, 5384
20, 588542, Pitch_bend_c, 10, 5392
20, 588542, Pitch_bend_c, 10, 5400
20, 588543, Pitch_bend_c, 10, 5408
20, 588543, Pitch_bend_c, 10, 5416
20, 588544, Pitch_bend_c, 10, 5423
20, 588544, Pitch_bend_c, 10, 5431
20, 588545, Pitch_bend_c, 10, 5439
20, 588545, Pitch_bend_c, 10, 5447
20, 588546, Pitch_bend_c, 10, 5455
20, 588546, Pitch_bend_c, 10, 5463
20, 588547, Pitch_bend_c, 10, 5471
20, 588547, Pitch_bend_c, 10, 5478
20, 588548, Pitch_bend_c, 10, 5486
20, 588548, Pitch_bend_c, 10, 5494
20, 588549, Pitch_bend_c, 10, 5502
20, 588549, Pitch_bend_c, 10, 5510
20, 588550, Pitch_bend_c, 10, 5518
20, 588550, Pitch_bend_c, 10, 5526
20, 588551, Pitch_bend_c, 10, 5534
20, 588551, Pitch_bend_c, 10, 5541
20, 588552, Pitch_bend_c, 10, 5549
20, 588552, Pitch_bend_c, 10, 5557
20, 588553, Pitch_bend_c, 10, 5565
20, 588553, Pitch_bend_c, 10, 5573
20, 588554, Pitch_bend_c, 10, 5581
20, 588554, Pitch_bend_c, 10, 5589
20, 588555, Pitch_bend_c, 10, 5596
20, 588555, Pitch_bend_c, 10, 5604
20, 588556, Pitch_bend_c, 10, 5612
20, 588556, Pitch_bend_c, 10, 5620
20, 588557, Pitch_bend_c, 10, 5628
20, 588557, Pitch_bend_c, 10, 5636
20, 588558, Pitch_bend_c, 10, 5644
20, 588558, Pitch_bend_c, 10, 5652
20, 588559, Pitch_bend_c, 10, 5659
20, 588559, Pitch_bend_c, 10, 5667
20, 588560, Pitch_bend_c, 10, 5675
20, 588560, Pitch_bend_c, 10, 5683
20, 588561, Pitch_bend_c, 10, 5691
20, 588561, Pitch_bend_c, 10, 5699
20, 588562, Pitch_bend_c, 10, 5707
20, 588562, Pitch_bend_c, 10, 5714
20, 588563, Pitch_bend_c, 10, 5722
20, 588563, Pitch_bend_c, 10, 5730
20, 588564, Pitch_bend_c, 10, 5738
20, 588564, Pitch_bend_c, 10, 5746
20, 588565, Pitch_bend_c, 10, 5754
20, 588565, Pitch_bend_c, 10, 5762
20, 588566, Pitch_bend_c, 10, 5770
20, 588566, Pitch_bend_c, 10, 5777
20, 588567, Pitch_bend_c, 10, 5785
20, 588567, Pitch_bend_c, 10, 5793
20, 588568, Pitch_bend_c, 10, 5801
20, 588568, Pitch_bend_c, 10, 5809
20, 588569, Pitch_bend_c, 10, 5817
20, 588569, Pitch_bend_c, 10, 5825
20, 588570, Pitch_bend_c, 10, 5832
20, 588570, Pitch_bend_c, 10, 5840
20, 588571, Pitch_bend_c, 10, 5848
20, 588571, Pitch_bend_c, 10, 5856
20, 588572, Pitch_bend_c, 10, 5864
20, 588572, Pitch_bend_c, 10, 5872
20, 588573, Pitch_bend_c, 10, 5880
20, 588573, Pitch_bend_c, 10, 5888
20, 588574, Pitch_bend_c, 10, 5895
20, 588574, Pitch_bend_c, 10, 5903
20, 588575, Pitch_bend_c, 10, 5911
20, 588575, Pitch_bend_c, 10, 5919
20, 588576, Pitch_bend_c, 10, 5927
20, 588576, Pitch_bend_c, 10, 5935
20, 588577, Pitch_bend_c, 10, 5943
20, 588577, Pitch_bend_c, 10, 5950
20, 588578, Pitch_bend_c, 10, 5958
20, 588578, Pitch_bend_c, 10, 5966
20, 588579, Pitch_bend_c, 10, 5974
20, 588579, Pitch_bend_c, 10, 5982
20, 588580, Pitch_bend_c, 10, 5990
20, 588580, Pitch_bend_c, 10, 5998
20, 588581, Pitch_bend_c, 10, 6006
20, 588581, Pitch_bend_c, 10, 6013
20, 588582, Pitch_bend_c, 10, 6021
20, 588582, Pitch_bend_c, 10, 6029
20, 588583, Pitch_bend_c, 10, 6037
20, 588583, Pitch_bend_c, 10, 6045
20, 588584, Pitch_bend_c, 10, 6053
20, 588584, Pitch_bend_c, 10, 6061
20, 588585, Pitch_bend_c, 10, 6068
20, 588585, Pitch_bend_c, 10, 6076
20, 588586, Pitch_bend_c, 10, 6084
20, 588586, Pitch_bend_c, 10, 6092
20, 588587, Pitch_bend_c, 10, 6100
20, 588587, Pitch_bend_c, 10, 6108
20, 588588, Pitch_bend_c, 10, 6116
20, 588588, Pitch_bend_c, 10, 6124
20, 588589, Pitch_bend_c, 10, 6131
20, 588589, Pitch_bend_c, 10, 6139
20, 588590, Pitch_bend_c, 10, 6147
20, 588590, Pitch_bend_c, 10, 6155
20, 588591, Pitch_bend_c, 10, 6163
20, 588591, Pitch_bend_c, 10, 6171
20, 588592, Pitch_bend_c, 10, 6179
20, 588592, Pitch_bend_c, 10, 6186
20, 588593, Pitch_bend_c, 10, 6194
20, 588593, Pitch_bend_c, 10, 6202
20, 588594, Pitch_bend_c, 10, 6210
20, 588594, Pitch_bend_c, 10, 6218
20, 588595, Pitch_bend_c, 10, 6226
20, 588595, Pitch_bend_c, 10, 6234
20, 588596, Pitch_bend_c, 10, 6242
20, 588596, Pitch_bend_c, 10, 6249
20, 588597, Pitch_bend_c, 10, 6257
20, 588597, Pitch_bend_c, 10, 6265
20, 588598, Pitch_bend_c, 10, 6273
20, 588598, Pitch_bend_c, 10, 6281
20, 588599, Pitch_bend_c, 10, 6289
20, 588599, Pitch_bend_c, 10, 6297
20, 588600, Pitch_bend_c, 10, 6304
20, 588600, Pitch_bend_c, 10, 6312
20, 588601, Pitch_bend_c, 10, 6320
20, 588601, Pitch_bend_c, 10, 6328
20, 588602, Pitch_bend_c, 10, 6336
20, 588602, Pitch_bend_c, 10, 6344
20, 588603, Pitch_bend_c, 10, 6352
20, 588603, Pitch_bend_c, 10, 6360
20, 588604, Pitch_bend_c, 10, 6367
20, 588604, Pitch_bend_c, 10, 6375
20, 588605, Pitch_bend_c, 10, 6383
20, 588605, Pitch_bend_c, 10, 6391
20, 588606, Pitch_bend_c, 10, 6399
20, 588606, Pitch_bend_c, 10, 6407
20, 588607, Pitch_bend_c, 10, 6415
20, 588607, Pitch_bend_c, 10, 6422
20, 588608, Pitch_bend_c, 10, 6430
20, 588608, Pitch_bend_c, 10, 6438
20, 588609, Pitch_bend_c, 10, 6446
20, 588609, Pitch_bend_c, 10, 6454
20, 588610, Pitch_bend_c, 10, 6462
20, 588610, Pitch_bend_c, 10, 6470
20, 588611, Pitch_bend_c, 10, 6478
20, 588611, Pitch_bend_c, 10, 6485
20, 588612, Pitch_bend_c, 10, 6493
20, 588612, Pitch_bend_c, 10, 6501
20, 588613, Pitch_bend_c, 10, 6509
20, 588613, Pitch_bend_c, 10, 6517
20, 588614, Pitch_bend_c, 10, 6525
20, 588614, Pitch_bend_c, 10, 6533
20, 588615, Pitch_bend_c, 10, 6540
20, 588615, Pitch_bend_c, 10, 6548
20, 588616, Pitch_bend_c, 10, 6556
20, 588616, Pitch_bend_c, 10, 6564
20, 588617, Pitch_bend_c, 10, 6572
20, 588617, Pitch_bend_c, 10, 6580
20, 588618, Pitch_bend_c, 10, 6588
20, 588618, Pitch_bend_c, 10, 6596
20, 588619, Pitch_bend_c, 10, 6603
20, 588619, Pitch_bend_c, 10, 6611
20, 588620, Pitch_bend_c, 10, 6619
20, 588620, Pitch_bend_c, 10, 6627
20, 588621, Pitch_bend_c, 10, 6635
20, 588621, Pitch_bend_c, 10, 6643
20, 588622, Pitch_bend_c, 10, 6651
20, 588622, Pitch_bend_c, 10, 6658
20, 588623, Pitch_bend_c, 10, 6666
20, 588623, Pitch_bend_c, 10, 6674
20, 588624, Pitch_bend_c, 10, 6682
20, 588624, Pitch_bend_c, 10, 6690
20, 588625, Pitch_bend_c, 10, 6698
20, 588625, Pitch_bend_c, 10, 6706
20, 588626, Pitch_bend_c, 10, 6714
20, 588626, Pitch_bend_c, 10, 6721
20, 588627, Pitch_bend_c, 10, 6729
20, 588627, Pitch_bend_c, 10, 6737
20, 588628, Pitch_bend_c, 10, 6745
20, 588628, Pitch_bend_c, 10, 6753
20, 588629, Pitch_bend_c, 10, 6761
20, 588629, Pitch_bend_c, 10, 6769
20, 588630, Pitch_bend_c, 10, 6776
20, 588630, Pitch_bend_c, 10, 6784
20, 588631, Pitch_bend_c, 10, 6792
20, 588631, Pitch_bend_c, 10, 6800
20, 588632, Pitch_bend_c, 10, 6808
20, 588632, Pitch_bend_c, 10, 6816
20, 588633, Pitch_bend_c, 10, 6824
20, 588633, Pitch_bend_c, 10, 6832
20, 588634, Pitch_bend_c, 10, 6839
20, 588634, Pitch_bend_c, 10, 6847
20, 588635, Pitch_bend_c, 10, 6855
20, 588635, Pitch_bend_c, 10, 6863
20, 588636, Pitch_bend_c, 10, 6871
20, 588636, Pitch_bend_c, 10, 6879
20, 588637, Pitch_bend_c, 10, 6887
20, 588637, Pitch_bend_c, 10, 6894
20, 588638, Pitch_bend_c, 10, 6902
20, 588638, Pitch_bend_c, 10, 6910
20, 588639, Pitch_bend_c, 10, 6918
20, 588639, Pitch_bend_c, 10, 6926
20, 588640, Pitch_bend_c, 10, 6934
20, 588640, Pitch_bend_c, 10, 6942
20, 588641, Pitch_bend_c, 10, 6950
20, 588641, Pitch_bend_c, 10, 6957
20, 588642, Pitch_bend_c, 10, 6965
20, 588642, Pitch_bend_c, 10, 6973
20, 588643, Pitch_bend_c, 10, 6981
20, 588643, Pitch_bend_c, 10, 6989
20, 588644, Pitch_bend_c, 10, 6997
20, 588644, Pitch_bend_c, 10, 7005
20, 588645, Pitch_bend_c, 10, 7012
20, 588645, Pitch_bend_c, 10, 7020
20, 588646, Pitch_bend_c, 10, 7028
20, 588646, Pitch_bend_c, 10, 7036
20, 588647, Pitch_bend_c, 10, 7044
20, 588647, Pitch_bend_c, 10, 7052
20, 588648, Pitch_bend_c, 10, 7060
20, 588648, Pitch_bend_c, 10, 7068
20, 588649, Pitch_bend_c, 10, 7075
20, 588649, Pitch_bend_c, 10, 7083
20, 588650, Pitch_bend_c, 10, 7091
20, 588650, Pitch_bend_c, 10, 7099
20, 588651, Pitch_bend_c, 10, 7107
20, 588651, Pitch_bend_c, 10, 7115
20, 588652, Pitch_bend_c, 10, 7123
20, 588652, Pitch_bend_c, 10, 7130
20, 588653, Pitch_bend_c, 10, 7138
20, 588653, Pitch_bend_c, 10, 7146
20, 588654, Pitch_bend_c, 10, 7154
20, 588654, Pitch_bend_c, 10, 7162
20, 588655, Pitch_bend_c, 10, 7170
20, 588655, Pitch_bend_c, 10, 7178
20, 588656, Pitch_bend_c, 10, 7186
20, 588656, Pitch_bend_c, 10, 7193
20, 588657, Pitch_bend_c, 10, 7201
20, 588657, Pitch_bend_c, 10, 7209
20, 588658, Pitch_bend_c, 10, 7217
20, 588658, Pitch_bend_c, 10, 7225
20, 588659, Pitch_bend_c, 10, 7233
20, 588659, Pitch_bend_c, 10, 7241
20, 588660, Pitch_bend_c, 10, 7248
20, 588660, Pitch_bend_c, 10, 7256
20, 588661, Pitch_bend_c, 10, 7264
20, 588661, Pitch_bend_c, 10, 7272
20, 588662, Pitch_bend_c, 10, 7280
20, 588662, Pitch_bend_c, 10, 7288
20, 588663, Pitch_bend_c, 10, 7296
20, 588663, Pitch_bend_c, 10, 7304
20, 588664, Pitch_bend_c, 10, 7311
20, 588664, Pitch_bend_c, 10, 7319
20, 588665, Pitch_bend_c, 10, 7327
20, 588665, Pitch_bend_c, 10, 7335
20, 588666, Pitch_bend_c, 10, 7343
20, 588666, Pitch_bend_c, 10, 7351
20, 588667, Pitch_bend_c, 10, 7359
20, 588667, Pitch_bend_c, 10, 7366
20, 588668, Pitch_bend_c, 10, 7374
20, 588668, Pitch_bend_c, 10, 7382
20, 588669, Pitch_bend_c, 10, 7390
20, 588669, Pitch_bend_c, 10, 7398
20, 588670, Pitch_bend_c, 10, 7406
20, 588670, Pitch_bend_c, 10, 7414
20, 588671, Pitch_bend_c, 10, 7422
20, 588671, Pitch_bend_c, 10, 7429
20, 588672, Pitch_bend_c, 10, 7437
20, 588672, Pitch_bend_c, 10, 7445
20, 588673, Pitch_bend_c, 10, 7453
20, 588673, Pitch_bend_c, 10, 7461
20, 588674, Pitch_bend_c, 10, 7469
20, 588674, Pitch_bend_c, 10, 7477
20, 588675, Pitch_bend_c, 10, 7484
20, 588675, Pitch_bend_c, 10, 7492
20, 588676, Pitch_bend_c, 10, 7500
20, 588676, Pitch_bend_c, 10, 7508
20, 588677, Pitch_bend_c, 10, 7516
20, 588677, Pitch_bend_c, 10, 7524
20, 588678, Pitch_bend_c, 10, 7532
20, 588678, Pitch_bend_c, 10, 7540
20, 588679, Pitch_bend_c, 10, 7547
20, 588679, Pitch_bend_c, 10, 7555
20, 588680, Pitch_bend_c, 10, 7563
20, 588680, Pitch_bend_c, 10, 7571
20, 588681, Pitch_bend_c, 10, 7579
20, 588681, Pitch_bend_c, 10, 7587
20, 588682, Pitch_bend_c, 10, 7595
20, 588682, Pitch_bend_c, 10, 7602
20, 588683, Pitch_bend_c, 10, 7610
20, 588683, Pitch_bend_c, 10, 7618
20, 588684, Pitch_bend_c, 10, 7626
20, 588684, Pitch_bend_c, 10, 7634
20, 588685, Pitch_bend_c, 10, 7642
20, 588685, Pitch_bend_c, 10, 7650
20, 588686, Pitch_bend_c, 10, 7658
20, 588686, Pitch_bend_c, 10, 7665
20, 588687, Pitch_bend_c, 10, 7673
20, 588687, Pitch_bend_c, 10, 7681
20, 588688, Pitch_bend_c, 10, 7689
20, 588688, Pitch_bend_c, 10, 7697
20, 588689, Pitch_bend_c, 10, 7705
20, 588689, Pitch_bend_c, 10, 7713
20, 588690, Pitch_bend_c, 10, 7720
20, 588690, Pitch_bend_c, 10, 7728
20, 588691, Pitch_bend_c, 10, 7736
20, 588691, Pitch_bend_c, 10, 7744
20, 588692, Pitch_bend_c, 10, 7752
20, 588692, Pitch_bend_c, 10, 7760
20, 588693, Pitch_bend_c, 10, 7768
20, 588693, Pitch_bend_c, 10, 7776
20, 588694, Pitch_bend_c, 10, 7783
20, 588694, Pitch_bend_c, 10, 7791
20, 588695, Pitch_bend_c, 10, 7799
20, 588695, Pitch_bend_c, 10, 7807
20, 588696, Pitch_bend_c, 10, 7815
20, 588696, Pitch_bend_c, 10, 7823
20, 588697, Pitch_bend_c, 10, 7831
20, 588697, Pitch_bend_c, 10, 7838
20, 588698, Pitch_bend_c, 10, 7846
20, 588698, Pitch_bend_c, 10, 7854
20, 588699, Pitch_bend_c, 10, 7862
20, 588699, Pitch_bend_c, 10, 7870
20, 588700, Pitch_bend_c, 10, 7878
20, 588700, Pitch_bend_c, 10, 7886
20, 588701, Pitch_bend_c, 10, 7894
20, 588701, Pitch_bend_c, 10, 7901
20, 588702, Pitch_bend_c, 10, 7909
20, 588702, Pitch_bend_c, 10, 7917
20, 588703, Pitch_bend_c, 10, 7925
20, 588703, Pitch_bend_c, 10, 7933
20, 588704, Pitch_bend_c, 10, 7941
20, 588704, Pitch_bend_c, 10, 7949
20, 588705, Pitch_bend_c, 10, 7956
20, 588705, Pitch_bend_c, 10, 7964
20, 588706, Pitch_bend_c, 10, 7972
20, 588706, Pitch_bend_c, 10, 7980
20, 588707, Pitch_bend_c, 10, 7988
20, 588707, Pitch_bend_c, 10, 7996
20, 588708, Pitch_bend_c, 10, 8004
20, 588708, Pitch_bend_c, 10, 8012
20, 588709, Pitch_bend_c, 10, 8019
20, 588709, Pitch_bend_c, 10, 8027
20, 588710, Pitch_bend_c, 10, 8035
20, 588710, Pitch_bend_c, 10, 8043
20, 588711, Pitch_bend_c, 10, 8051
20, 588711, Pitch_bend_c, 10, 8059
20, 588712, Pitch_bend_c, 10, 8067
20, 588712, Pitch_bend_c, 10, 8074
20, 588713, Pitch_bend_c, 10, 8082
20, 588713, Pitch_bend_c, 10, 8090
20, 588714, Pitch_bend_c, 10, 8098
20, 588714, Pitch_bend_c, 10, 8106
20, 588715, Pitch_bend_c, 10, 8114
20, 588715, Pitch_bend_c, 10, 8122
20, 588716, Pitch_bend_c, 10, 8130
20, 588716, Pitch_bend_c, 10, 8137
20, 588717, Pitch_bend_c, 10, 8145
20, 588717, Pitch_bend_c, 10, 8153
20, 588718, Pitch_bend_c, 10, 8161
20, 588718, Pitch_bend_c, 10, 8169
20, 588719, Pitch_bend_c, 10, 8177
20, 588719, Pitch_bend_c, 10, 8185
20, 588720, Pitch_bend_c, 10, 8192
20, 588732, Note_on_c, 10, 51, 0
20, 590880, Pitch_bend_c, 10, 4416
20, 590880, Pitch_bend_c, 10, 4424
20, 590881, Pitch_bend_c, 10, 4432
20, 590881, Pitch_bend_c, 10, 4440
20, 590882, Pitch_bend_c, 10, 4448
20, 590882, Pitch_bend_c, 10, 4456
20, 590883, Pitch_bend_c, 10, 4464
20, 590883, Pitch_bend_c, 10, 4472
20, 590884, Pitch_bend_c, 10, 4479
20, 590884, Pitch_bend_c, 10, 4487
20, 590885, Pitch_bend_c, 10, 4495
20, 590885, Pitch_bend_c, 10, 4503
20, 590886, Pitch_bend_c, 10, 4511
20, 590886, Pitch_bend_c, 10, 4519
20, 590887, Pitch_bend_c, 10, 4527
20, 590887, Pitch_bend_c, 10, 4534
20, 590888, Pitch_bend_c, 10, 4542
20, 590888, Pitch_bend_c, 10, 4550
20, 590889, Pitch_bend_c, 10, 4558
20, 590889, Pitch_bend_c, 10, 4566
20, 590890, Pitch_bend_c, 10, 4574
20, 590890, Pitch_bend_c, 10, 4582
20, 590891, Pitch_bend_c, 10, 4590
20, 590891, Pitch_bend_c, 10, 4597
20, 590892, Pitch_bend_c, 10, 4605
20, 590892, Pitch_bend_c, 10, 4613
20, 590893, Pitch_bend_c, 10, 4621
20, 590893, Pitch_bend_c, 10, 4629
20, 590894, Note_on_c, 10, 51, 92
20, 590894, Pitch_bend_c, 10, 4637
20, 590894, Pitch_bend_c, 10, 4645
20, 590895, Pitch_bend_c, 10, 4652
20, 590895, Pitch_bend_c, 10, 4660
20, 590896, Pitch_bend_c, 10, 4668
20, 590896, Pitch_bend_c, 10, 4676
20, 590897, Pitch_bend_c, 10, 4684
20, 590897, Pitch_bend_c, 10, 4692
20, 590898, Pitch_bend_c, 10, 4700
20, 590898, Pitch_bend_c, 10, 4708
20, 590899, Pitch_bend_c, 10, 4715
20, 590899, Pitch_bend_c, 10, 4723
20, 590900, Pitch_bend_c, 10, 4731
20, 590900, Pitch_bend_c, 10, 4739
20, 590901, Pitch_bend_c, 10, 4747
20, 590901, Pitch_bend_c, 10, 4755
20, 590902, Pitch_bend_c, 10, 4763
20, 590902, Pitch_bend_c, 10, 4770
20, 590903, Pitch_bend_c, 10, 4778
20, 590903, Pitch_bend_c, 10, 4786
20, 590904, Pitch_bend_c, 10, 4794
20, 590904, Pitch_bend_c, 10, 4802
20, 590905, Pitch_bend_c, 10, 4810
20, 590905, Pitch_bend_c, 10, 4818
20, 590906, Pitch_bend_c, 10, 4826
20, 590906, Pitch_bend_c, 10, 4833
20, 590907, Pitch_bend_c, 10, 4841
20, 590907, Pitch_bend_c, 10, 4849
20, 590908, Pitch_bend_c, 10, 4857
20, 590908, Pitch_bend_c, 10, 4865
20, 590909, Pitch_bend_c, 10, 4873
20, 590909, Pitch_bend_c, 10, 4881
20, 590910, Pitch_bend_c, 10, 4888
20, 590910, Pitch_bend_c, 10, 4896
20, 590911, Pitch_bend_c, 10, 4904
20, 590911, Pitch_bend_c, 10, 4912
20, 590912, Pitch_bend_c, 10, 4920
20, 590912, Pitch_bend_c, 10, 4928
20, 590913, Pitch_bend_c, 10, 4936
20, 590913, Pitch_bend_c, 10, 4944
20, 590914, Pitch_bend_c, 10, 4951
20, 590914, Pitch_bend_c, 10, 4959
20, 590915, Pitch_bend_c, 10, 4967
20, 590915, Pitch_bend_c, 10, 4975
20, 590916, Pitch_bend_c, 10, 4983
20, 590916, Pitch_bend_c, 10, 4991
20, 590917, Pitch_bend_c, 10, 4999
20, 590917, Pitch_bend_c, 10, 5006
20, 590918, Pitch_bend_c, 10, 5014
20, 590918, Pitch_bend_c, 10, 5022
20, 590919, Pitch_bend_c, 10, 5030
20, 590919, Pitch_bend_c, 10, 5038
20, 590920, Pitch_bend_c, 10, 5046
20, 590920, Pitch_bend_c, 10, 5054
20, 590921, Pitch_bend_c, 10, 5062
20, 590921, Pitch_bend_c, 10, 5069
20, 590922, Pitch_bend_c, 10, 5077
20, 590922, Pitch_bend_c, 10, 5085
20, 590923, Pitch_bend_c, 10, 5093
20, 590923, Pitch_bend_c, 10, 5101
20, 590924, Pitch_bend_c, 10, 5109
20, 590924, Pitch_bend_c, 10, 5117
20, 590925, Pitch_bend_c, 10, 5124
20, 590925, Pitch_bend_c, 10, 5132
20, 590926, Pitch_bend_c, 10, 5140
20, 590926, Pitch_bend_c, 10, 5148
20, 590927, Pitch_bend_c, 10, 5156
20, 590927, Pitch_bend_c, 10, 5164
20, 590928, Pitch_bend_c, 10, 5172
20, 590928, Pitch_bend_c, 10, 5180
20, 590929, Pitch_bend_c, 10, 5187
20, 590929, Pitch_bend_c, 10, 5195
20, 590930, Pitch_bend_c, 10, 5203
20, 590930, Pitch_bend_c, 10, 5211
20, 590931, Pitch_bend_c, 10, 5219
20, 590931, Pitch_bend_c, 10, 5227
20, 590932, Pitch_bend_c, 10, 5235
20, 590932, Pitch_bend_c, 10, 5242
20, 590933, Pitch_bend_c, 10, 5250
20, 590933, Pitch_bend_c, 10, 5258
20, 590934, Pitch_bend_c, 10, 5266
20, 590934, Pitch_bend_c, 10, 5274
20, 590935, Pitch_bend_c, 10, 5282
20, 590935, Pitch_bend_c, 10, 5290
20, 590936, Pitch_bend_c, 10, 5298
20, 590936, Pitch_bend_c, 10, 5305
20, 590937, Pitch_bend_c, 10, 5313
20, 590937, Pitch_bend_c, 10, 5321
20, 590938, Pitch_bend_c, 10, 5329
20, 590938, Pitch_bend_c, 10, 5337
20, 590939, Pitch_bend_c, 10, 5345
20, 590939, Pitch_bend_c, 10, 5353
20, 590940, Pitch_bend_c, 10, 5360
20, 590940, Pitch_bend_c, 10, 5368
20, 590941, Pitch_bend_c, 10, 5376
20, 590941, Pitch_bend_c, 10, 5384
20, 590942, Pitch_bend_c, 10, 5392
20, 590942, Pitch_bend_c, 10, 5400
20, 590943, Pitch_bend_c, 10, 5408
20, 590943, Pitch_bend_c, 10, 5416
20, 590944, Pitch_bend_c, 10, 5423
20, 590944, Pitch_bend_c, 10, 5431
20, 590945, Pitch_bend_c, 10, 5439
20, 590945, Pitch_bend_c, 10, 5447
20, 590946, Pitch_bend_c, 10, 5455
20, 590946, Pitch_bend_c, 10, 5463
20, 590947, Pitch_bend_c, 10, 5471
20, 590947, Pitch_bend_c, 10, 5478
20, 590948, Pitch_bend_c, 10, 5486
20, 590948, Pitch_bend_c, 10, 5494
20, 590949, Pitch_bend_c, 10, 5502
20, 590949, Pitch_bend_c, 10, 5510
20, 590950, Pitch_bend_c, 10, 5518
20, 590950, Pitch_bend_c, 10, 5526
20, 590951, Pitch_bend_c, 10, 5534
20, 590951, Pitch_bend_c, 10, 5541
20, 590952, Pitch_bend_c, 10, 5549
20, 590952, Pitch_bend_c, 10, 5557
20, 590953, Pitch_bend_c, 10, 5565
20, 590953, Pitch_bend_c, 10, 5573
20, 590954, Pitch_bend_c, 10, 5581
20, 590954, Pitch_bend_c, 10, 5589
20, 590955, Pitch_bend_c, 10, 5596
20, 590955, Pitch_bend_c, 10, 5604
20, 590956, Pitch_bend_c, 10, 5612
20, 590956, Pitch_bend_c, 10, 5620
20, 590957, Pitch_bend_c, 10, 5628
20, 590957, Pitch_bend_c, 10, 5636
20, 590958, Pitch_bend_c, 10, 5644
20, 590958, Pitch_bend_c, 10, 5652
20, 590959, Pitch_bend_c, 10, 5659
20, 590959, Pitch_bend_c, 10, 5667
20, 590960, Pitch_bend_c, 10, 5675
20, 590960, Pitch_bend_c, 10, 5683
20, 590961, Pitch_bend_c, 10, 5691
20, 590961, Pitch_bend_c, 10, 5699
20, 590962, Pitch_bend_c, 10, 5707
20, 590962, Pitch_bend_c, 10, 5714
20, 590963, Pitch_bend_c, 10, 5722
20, 590963, Pitch_bend_c, 10, 5730
20, 590964, Pitch_bend_c, 10, 5738
20, 590964, Pitch_bend_c, 10, 5746
20, 590965, Pitch_bend_c, 10, 5754
20, 590965, Pitch_bend_c, 10, 5762
20, 590966, Pitch_bend_c, 10, 5770
20, 590966, Pitch_bend_c, 10, 5777
20, 590967, Pitch_bend_c, 10, 5785
20, 590967, Pitch_bend_c, 10, 5793
20, 590968, Pitch_bend_c, 10, 5801
20, 590968, Pitch_bend_c, 10, 5809
20, 590969, Pitch_bend_c, 10, 5817
20, 590969, Pitch_bend_c, 10, 5825
20, 590970, Pitch_bend_c, 10, 5832
20, 590970, Pitch_bend_c, 10, 5840
20, 590971, Pitch_bend_c, 10, 5848
20, 590971, Pitch_bend_c, 10, 5856
20, 590972, Pitch_bend_c, 10, 5864
20, 590972, Pitch_bend_c, 10, 5872
20, 590973, Pitch_bend_c, 10, 5880
20, 590973, Pitch_bend_c, 10, 5888
20, 590974, Pitch_bend_c, 10, 5895
20, 590974, Pitch_bend_c, 10, 5903
20, 590975, Pitch_bend_c, 10, 5911
20, 590975, Pitch_bend_c, 10, 5919
20, 590976, Pitch_bend_c, 10, 5927
20, 590976, Pitch_bend_c, 10, 5935
20, 590977, Pitch_bend_c, 10, 5943
20, 590977, Pitch_bend_c, 10, 5950
20, 590978, Pitch_bend_c, 10, 5958
20, 590978, Pitch_bend_c, 10, 5966
20, 590979, Pitch_bend_c, 10, 5974
20, 590979, Pitch_bend_c, 10, 5982
20, 590980, Pitch_bend_c, 10, 5990
20, 590980, Pitch_bend_c, 10, 5998
20, 590981, Pitch_bend_c, 10, 6006
20, 590981, Pitch_bend_c, 10, 6013
20, 590982, Pitch_bend_c, 10, 6021
20, 590982, Pitch_bend_c, 10, 6029
20, 590983, Pitch_bend_c, 10, 6037
20, 590983, Pitch_bend_c, 10, 6045
20, 590984, Pitch_bend_c, 10, 6053
20, 590984, Pitch_bend_c, 10, 6061
20, 590985, Pitch_bend_c, 10, 6068
20, 590985, Pitch_bend_c, 10, 6076
20, 590986, Pitch_bend_c, 10, 6084
20, 590986, Pitch_bend_c, 10, 6092
20, 590987, Pitch_bend_c, 10, 6100
20, 590987, Pitch_bend_c, 10, 6108
20, 590988, Pitch_bend_c, 10, 6116
20, 590988, Pitch_bend_c, 10, 6124
20, 590989, Pitch_bend_c, 10, 6131
20, 590989, Pitch_bend_c, 10, 6139
20, 590990, Pitch_bend_c, 10, 6147
20, 590990, Pitch_bend_c, 10, 6155
20, 590991, Pitch_bend_c, 10, 6163
20, 590991, Pitch_bend_c, 10, 6171
20, 590992, Pitch_bend_c, 10, 6179
20, 590992, Pitch_bend_c, 10, 6186
20, 590993, Pitch_bend_c, 10, 6194
20, 590993, Pitch_bend_c, 10, 6202
20, 590994, Pitch_bend_c, 10, 6210
20, 590994, Pitch_bend_c, 10, 6218
20, 590995, Pitch_bend_c, 10, 6226
20, 590995, Pitch_bend_c, 10, 6234
20, 590996, Pitch_bend_c, 10, 6242
20, 590996, Pitch_bend_c, 10, 6249
20, 590997, Pitch_bend_c, 10, 6257
20, 590997, Pitch_bend_c, 10, 6265
20, 590998, Pitch_bend_c, 10, 6273
20, 590998, Pitch_bend_c, 10, 6281
20, 590999, Pitch_bend_c, 10, 6289
20, 590999, Pitch_bend_c, 10, 6297
20, 591000, Pitch_bend_c, 10, 6304
20, 591000, Pitch_bend_c, 10, 6312
20, 591001, Pitch_bend_c, 10, 6320
20, 591001, Pitch_bend_c, 10, 6328
20, 591002, Pitch_bend_c, 10, 6336
20, 591002, Pitch_bend_c, 10, 6344
20, 591003, Pitch_bend_c, 10, 6352
20, 591003, Pitch_bend_c, 10, 6360
20, 591004, Pitch_bend_c, 10, 6367
20, 591004, Pitch_bend_c, 10, 6375
20, 591005, Pitch_bend_c, 10, 6383
20, 591005, Pitch_bend_c, 10, 6391
20, 591006, Pitch_bend_c, 10, 6399
20, 591006, Pitch_bend_c, 10, 6407
20, 591007, Pitch_bend_c, 10, 6415
20, 591007, Pitch_bend_c, 10, 6422
20, 591008, Pitch_bend_c, 10, 6430
20, 591008, Pitch_bend_c, 10, 6438
20, 591009, Pitch_bend_c, 10, 6446
20, 591009, Pitch_bend_c, 10, 6454
20, 591010, Pitch_bend_c, 10, 6462
20, 591010, Pitch_bend_c, 10, 6470
20, 591011, Pitch_bend_c, 10, 6478
20, 591011, Pitch_bend_c, 10, 6485
20, 591012, Pitch_bend_c, 10, 6493
20, 591012, Pitch_bend_c, 10, 6501
20, 591013, Pitch_bend_c, 10, 6509
20, 591013, Pitch_bend_c, 10, 6517
20, 591014, Pitch_bend_c, 10, 6525
20, 591014, Pitch_bend_c, 10, 6533
20, 591015, Pitch_bend_c, 10, 6540
20, 591015, Pitch_bend_c, 10, 6548
20, 591016, Pitch_bend_c, 10, 6556
20, 591016, Pitch_bend_c, 10, 6564
20, 591017, Pitch_bend_c, 10, 6572
20, 591017, Pitch_bend_c, 10, 6580
20, 591018, Pitch_bend_c, 10, 6588
20, 591018, Pitch_bend_c, 10, 6596
20, 591019, Pitch_bend_c, 10, 6603
20, 591019, Pitch_bend_c, 10, 6611
20, 591020, Pitch_bend_c, 10, 6619
20, 591020, Pitch_bend_c, 10, 6627
20, 591021, Pitch_bend_c, 10, 6635
20, 591021, Pitch_bend_c, 10, 6643
20, 591022, Pitch_bend_c, 10, 6651
20, 591022, Pitch_bend_c, 10, 6658
20, 591023, Pitch_bend_c, 10, 6666
20, 591023, Pitch_bend_c, 10, 6674
20, 591024, Pitch_bend_c, 10, 6682
20, 591024, Pitch_bend_c, 10, 6690
20, 591025, Pitch_bend_c, 10, 6698
20, 591025, Pitch_bend_c, 10, 6706
20, 591026, Pitch_bend_c, 10, 6714
20, 591026, Pitch_bend_c, 10, 6721
20, 591027, Pitch_bend_c, 10, 6729
20, 591027, Pitch_bend_c, 10, 6737
20, 591028, Pitch_bend_c, 10, 6745
20, 591028, Pitch_bend_c, 10, 6753
20, 591029, Pitch_bend_c, 10, 6761
20, 591029, Pitch_bend_c, 10, 6769
20, 591030, Pitch_bend_c, 10, 6776
20, 591030, Pitch_bend_c, 10, 6784
20, 591031, Pitch_bend_c, 10, 6792
20, 591031, Pitch_bend_c, 10, 6800
20, 591032, Pitch_bend_c, 10, 6808
20, 591032, Pitch_bend_c, 10, 6816
20, 591033, Pitch_bend_c, 10, 6824
20, 591033, Pitch_bend_c, 10, 6832
20, 591034, Pitch_bend_c, 10, 6839
20, 591034, Pitch_bend_c, 10, 6847
20, 591035, Pitch_bend_c, 10, 6855
20, 591035, Pitch_bend_c, 10, 6863
20, 591036, Pitch_bend_c, 10, 6871
20, 591036, Pitch_bend_c, 10, 6879
20, 591037, Pitch_bend_c, 10, 6887
20, 591037, Pitch_bend_c, 10, 6894
20, 591038, Pitch_bend_c, 10, 6902
20, 591038, Pitch_bend_c, 10, 6910
20, 591039, Pitch_bend_c, 10, 6918
20, 591039, Pitch_bend_c, 10, 6926
20, 591040, Pitch_bend_c, 10, 6934
20, 591040, Pitch_bend_c, 10, 6942
20, 591041, Pitch_bend_c, 10, 6950
20, 591041, Pitch_bend_c, 10, 6957
20, 591042, Pitch_bend_c, 10, 6965
20, 591042, Pitch_bend_c, 10, 6973
20, 591043, Pitch_bend_c, 10, 6981
20, 591043, Pitch_bend_c, 10, 6989
20, 591044, Pitch_bend_c, 10, 6997
20, 591044, Pitch_bend_c, 10, 7005
20, 591045, Pitch_bend_c, 10, 7012
20, 591045, Pitch_bend_c, 10, 7020
20, 591046, Pitch_bend_c, 10, 7028
20, 591046, Pitch_bend_c, 10, 7036
20, 591047, Pitch_bend_c, 10, 7044
20, 591047, Pitch_bend_c, 10, 7052
20, 591048, Pitch_bend_c, 10, 7060
20, 591048, Pitch_bend_c, 10, 7068
20, 591049, Pitch_bend_c, 10, 7075
20, 591049, Pitch_bend_c, 10, 7083
20, 591050, Pitch_bend_c, 10, 7091
20, 591050, Pitch_bend_c, 10, 7099
20, 591051, Pitch_bend_c, 10, 7107
20, 591051, Pitch_bend_c, 10, 7115
20, 591052, Pitch_bend_c, 10, 7123
20, 591052, Pitch_bend_c, 10, 7130
20, 591053, Pitch_bend_c, 10, 7138
20, 591053, Pitch_bend_c, 10, 7146
20, 591054, Pitch_bend_c, 10, 7154
20, 591054, Pitch_bend_c, 10, 7162
20, 591055, Pitch_bend_c, 10, 7170
20, 591055, Pitch_bend_c, 10, 7178
20, 591056, Pitch_bend_c, 10, 7186
20, 591056, Pitch_bend_c, 10, 7193
20, 591057, Pitch_bend_c, 10, 7201
20, 591057, Pitch_bend_c, 10, 7209
20, 591058, Pitch_bend_c, 10, 7217
20, 591058, Pitch_bend_c, 10, 7225
20, 591059, Pitch_bend_c, 10, 7233
20, 591059, Pitch_bend_c, 10, 7241
20, 591060, Pitch_bend_c, 10, 7248
20, 591060, Pitch_bend_c, 10, 7256
20, 591061, Pitch_bend_c, 10, 7264
20, 591061, Pitch_bend_c, 10, 7272
20, 591062, Pitch_bend_c, 10, 7280
20, 591062, Pitch_bend_c, 10, 7288
20, 591063, Pitch_bend_c, 10, 7296
20, 591063, Pitch_bend_c, 10, 7304
20, 591064, Pitch_bend_c, 10, 7311
20, 591064, Pitch_bend_c, 10, 7319
20, 591065, Pitch_bend_c, 10, 7327
20, 591065, Pitch_bend_c, 10, 7335
20, 591066, Pitch_bend_c, 10, 7343
20, 591066, Pitch_bend_c, 10, 7351
20, 591067, Pitch_bend_c, 10, 7359
20, 591067, Pitch_bend_c, 10, 7366
20, 591068, Pitch_bend_c, 10, 7374
20, 591068, Pitch_bend_c, 10, 7382
20, 591069, Pitch_bend_c, 10, 7390
20, 591069, Pitch_bend_c, 10, 7398
20, 591070, Pitch_bend_c, 10, 7406
20, 591070, Pitch_bend_c, 10, 7414
20, 591071, Pitch_bend_c, 10, 7422
20, 591071, Pitch_bend_c, 10, 7429
20, 591072, Pitch_bend_c, 10, 7437
20, 591072, Pitch_bend_c, 10, 7445
20, 591073, Pitch_bend_c, 10, 7453
20, 591073, Pitch_bend_c, 10, 7461
20, 591074, Pitch_bend_c, 10, 7469
20, 591074, Pitch_bend_c, 10, 7477
20, 591075, Pitch_bend_c, 10, 7484
20, 591075, Pitch_bend_c, 10, 7492
20, 591076, Pitch_bend_c, 10, 7500
20, 591076, Pitch_bend_c, 10, 7508
20, 591077, Pitch_bend_c, 10, 7516
20, 591077, Pitch_bend_c, 10, 7524
20, 591078, Pitch_bend_c, 10, 7532
20, 591078, Pitch_bend_c, 10, 7540
20, 591079, Pitch_bend_c, 10, 7547
20, 591079, Pitch_bend_c, 10, 7555
20, 591080, Pitch_bend_c, 10, 7563
20, 591080, Pitch_bend_c, 10, 7571
20, 591081, Pitch_bend_c, 10, 7579
20, 591081, Pitch_bend_c, 10, 7587
20, 591082, Pitch_bend_c, 10, 7595
20, 591082, Pitch_bend_c, 10, 7602
20, 591083, Pitch_bend_c, 10, 7610
20, 591083, Pitch_bend_c, 10, 7618
20, 591084, Pitch_bend_c, 10, 7626
20, 591084, Pitch_bend_c, 10, 7634
20, 591085, Pitch_bend_c, 10, 7642
20, 591085, Pitch_bend_c, 10, 7650
20, 591086, Pitch_bend_c, 10, 7658
20, 591086, Pitch_bend_c, 10, 7665
20, 591087, Pitch_bend_c, 10, 7673
20, 591087, Pitch_bend_c, 10, 7681
20, 591088, Pitch_bend_c, 10, 7689
20, 591088, Pitch_bend_c, 10, 7697
20, 591089, Pitch_bend_c, 10, 7705
20, 591089, Pitch_bend_c, 10, 7713
20, 591090, Pitch_bend_c, 10, 7720
20, 591090, Pitch_bend_c, 10, 7728
20, 591091, Pitch_bend_c, 10, 7736
20, 591091, Pitch_bend_c, 10, 7744
20, 591092, Pitch_bend_c, 10, 7752
20, 591092, Pitch_bend_c, 10, 7760
20, 591093, Pitch_bend_c, 10, 7768
20, 591093, Pitch_bend_c, 10, 7776
20, 591094, Pitch_bend_c, 10, 7783
20, 591094, Pitch_bend_c, 10, 7791
20, 591095, Pitch_bend_c, 10, 7799
20, 591095, Pitch_bend_c, 10, 7807
20, 591096, Pitch_bend_c, 10, 7815
20, 591096, Pitch_bend_c, 10, 7823
20, 591097, Pitch_bend_c, 10, 7831
20, 591097, Pitch_bend_c, 10, 7838
20, 591098, Pitch_bend_c, 10, 7846
20, 591098, Pitch_bend_c, 10, 7854
20, 591099, Pitch_bend_c, 10, 7862
20, 591099, Pitch_bend_c, 10, 7870
20, 591100, Pitch_bend_c, 10, 7878
20, 591100, Pitch_bend_c, 10, 7886
20, 591101, Pitch_bend_c, 10, 7894
20, 591101, Pitch_bend_c, 10, 7901
20, 591102, Pitch_bend_c, 10, 7909
20, 591102, Pitch_bend_c, 10, 7917
20, 591103, Pitch_bend_c, 10, 7925
20, 591103, Pitch_bend_c, 10, 7933
20, 591104, Pitch_bend_c, 10, 7941
20, 591104, Pitch_bend_c, 10, 7949
20, 591105, Pitch_bend_c, 10, 7956
20, 591105, Pitch_bend_c, 10, 7964
20, 591106, Pitch_bend_c, 10, 7972
20, 591106, Pitch_bend_c, 10, 7980
20, 591107, Pitch_bend_c, 10, 7988
20, 591107, Pitch_bend_c, 10, 7996
20, 591108, Pitch_bend_c, 10, 8004
20, 591108, Pitch_bend_c, 10, 8012
20, 591109, Pitch_bend_c, 10, 8019
20, 591109, Pitch_bend_c, 10, 8027
20, 591110, Pitch_bend_c, 10, 8035
20, 591110, Pitch_bend_c, 10, 8043
20, 591111, Pitch_bend_c, 10, 8051
20, 591111, Pitch_bend_c, 10, 8059
20, 591112, Pitch_bend_c, 10, 8067
20, 591112, Pitch_bend_c, 10, 8074
20, 591113, Pitch_bend_c, 10, 8082
20, 591113, Pitch_bend_c, 10, 8090
20, 591114, Pitch_bend_c, 10, 8098
20, 591114, Pitch_bend_c, 10, 8106
20, 591115, Pitch_bend_c, 10, 8114
20, 591115, Pitch_bend_c, 10, 8122
20, 591116, Pitch_bend_c, 10, 8130
20, 591116, Pitch_bend_c, 10, 8137
20, 591117, Pitch_bend_c, 10, 8145
20, 591117, Pitch_bend_c, 10, 8153
20, 591118, Pitch_bend_c, 10, 8161
20, 591118, Pitch_bend_c, 10, 8169
20, 591119, Pitch_bend_c, 10, 8177
20, 591119, Pitch_bend_c, 10, 8185
20, 591120, Pitch_bend_c, 10, 8192
20, 591134, Note_on_c, 10, 51, 0
20, 593280, Pitch_bend_c, 10, 4416
20, 593280, Pitch_bend_c, 10, 4424
20, 593281, Pitch_bend_c, 10, 4432
20, 593281, Pitch_bend_c, 10, 4440
20, 593282, Pitch_bend_c, 10, 4448
20, 593282, Pitch_bend_c, 10, 4456
20, 593283, Pitch_bend_c, 10, 4464
20, 593283, Pitch_bend_c, 10, 4472
20, 593284, Pitch_bend_c, 10, 4479
20, 593284, Pitch_bend_c, 10, 4487
20, 593285, Pitch_bend_c, 10, 4495
20, 593285, Pitch_bend_c, 10, 4503
20, 593286, Pitch_bend_c, 10, 4511
20, 593286, Pitch_bend_c, 10, 4519
20, 593287, Pitch_bend_c, 10, 4527
20, 593287, Pitch_bend_c, 10, 4534
20, 593288, Pitch_bend_c, 10, 4542
20, 593288, Pitch_bend_c, 10, 4550
20, 593289, Pitch_bend_c, 10, 4558
20, 593289, Pitch_bend_c, 10, 4566
20, 593290, Pitch_bend_c, 10, 4574
20, 593290, Pitch_bend_c, 10, 4582
20, 593291, Pitch_bend_c, 10, 4590
20, 593291, Pitch_bend_c, 10, 4597
20, 593292, Pitch_bend_c, 10, 4605
20, 593292, Pitch_bend_c, 10, 4613
20, 593293, Pitch_bend_c, 10, 4621
20, 593293, Pitch_bend_c, 10, 4629
20, 593294, Pitch_bend_c, 10, 4637
20, 593294, Pitch_bend_c, 10, 4645
20, 593295, Pitch_bend_c, 10, 4652
20, 593295, Pitch_bend_c, 10, 4660
20, 593296, Pitch_bend_c, 10, 4668
20, 593296, Pitch_bend_c, 10, 4676
20, 593297, Pitch_bend_c, 10, 4684
20, 593297, Pitch_bend_c, 10, 4692
20, 593298, Pitch_bend_c, 10, 4700
20, 593298, Pitch_bend_c, 10, 4708
20, 593299, Pitch_bend_c, 10, 4715
20, 593299, Pitch_bend_c, 10, 4723
20, 593300, Pitch_bend_c, 10, 4731
20, 593300, Pitch_bend_c, 10, 4739
20, 593301, Pitch_bend_c, 10, 4747
20, 593301, Pitch_bend_c, 10, 4755
20, 593302, Note_on_c, 10, 51, 94
20, 593302, Pitch_bend_c, 10, 4763
20, 593302, Pitch_bend_c, 10, 4770
20, 593303, Pitch_bend_c, 10, 4778
20, 593303, Pitch_bend_c, 10, 4786
20, 593304, Pitch_bend_c, 10, 4794
20, 593304, Pitch_bend_c, 10, 4802
20, 593305, Pitch_bend_c, 10, 4810
20, 593305, Pitch_bend_c, 10, 4818
20, 593306, Pitch_bend_c, 10, 4826
20, 593306, Pitch_bend_c, 10, 4833
20, 593307, Pitch_bend_c, 10, 4841
20, 593307, Pitch_bend_c, 10, 4849
20, 593308, Pitch_bend_c, 10, 4857
20, 593308, Pitch_bend_c, 10, 4865
20, 593309, Pitch_bend_c, 10, 4873
20, 593309, Pitch_bend_c, 10, 4881
20, 593310, Pitch_bend_c, 10, 4888
20, 593310, Pitch_bend_c, 10, 4896
20, 593311, Pitch_bend_c, 10, 4904
20, 593311, Pitch_bend_c, 10, 4912
20, 593312, Pitch_bend_c, 10, 4920
20, 593312, Pitch_bend_c, 10, 4928
20, 593313, Pitch_bend_c, 10, 4936
20, 593313, Pitch_bend_c, 10, 4944
20, 593314, Pitch_bend_c, 10, 4951
20, 593314, Pitch_bend_c, 10, 4959
20, 593315, Pitch_bend_c, 10, 4967
20, 593315, Pitch_bend_c, 10, 4975
20, 593316, Pitch_bend_c, 10, 4983
20, 593316, Pitch_bend_c, 10, 4991
20, 593317, Pitch_bend_c, 10, 4999
20, 593317, Pitch_bend_c, 10, 5006
20, 593318, Pitch_bend_c, 10, 5014
20, 593318, Pitch_bend_c, 10, 5022
20, 593319, Pitch_bend_c, 10, 5030
20, 593319, Pitch_bend_c, 10, 5038
20, 593320, Pitch_bend_c, 10, 5046
20, 593320, Pitch_bend_c, 10, 5054
20, 593321, Pitch_bend_c, 10, 5062
20, 593321, Pitch_bend_c, 10, 5069
20, 593322, Pitch_bend_c, 10, 5077
20, 593322, Pitch_bend_c, 10, 5085
20, 593323, Pitch_bend_c, 10, 5093
20, 593323, Pitch_bend_c, 10, 5101
20, 593324, Pitch_bend_c, 10, 5109
20, 593324, Pitch_bend_c, 10, 5117
20, 593325, Pitch_bend_c, 10, 5124
20, 593325, Pitch_bend_c, 10, 5132
20, 593326, Pitch_bend_c, 10, 5140
20, 593326, Pitch_bend_c, 10, 5148
20, 593327, Pitch_bend_c, 10, 5156
20, 593327, Pitch_bend_c, 10, 5164
20, 593328, Pitch_bend_c, 10, 5172
20, 593328, Pitch_bend_c, 10, 5180
20, 593329, Pitch_bend_c, 10, 5187
20, 593329, Pitch_bend_c, 10, 5195
20, 593330, Pitch_bend_c, 10, 5203
20, 593330, Pitch_bend_c, 10, 5211
20, 593331, Pitch_bend_c, 10, 5219
20, 593331, Pitch_bend_c, 10, 5227
20, 593332, Pitch_bend_c, 10, 5235
20, 593332, Pitch_bend_c, 10, 5242
20, 593333, Pitch_bend_c, 10, 5250
20, 593333, Pitch_bend_c, 10, 5258
20, 593334, Pitch_bend_c, 10, 5266
20, 593334, Pitch_bend_c, 10, 5274
20, 593335, Pitch_bend_c, 10, 5282
20, 593335, Pitch_bend_c, 10, 5290
20, 593336, Pitch_bend_c, 10, 5298
20, 593336, Pitch_bend_c, 10, 5305
20, 593337, Pitch_bend_c, 10, 5313
20, 593337, Pitch_bend_c, 10, 5321
20, 593338, Pitch_bend_c, 10, 5329
20, 593338, Pitch_bend_c, 10, 5337
20, 593339, Pitch_bend_c, 10, 5345
20, 593339, Pitch_bend_c, 10, 5353
20, 593340, Pitch_bend_c, 10, 5360
20, 593340, Pitch_bend_c, 10, 5368
20, 593341, Pitch_bend_c, 10, 5376
20, 593341, Pitch_bend_c, 10, 5384
20, 593342, Pitch_bend_c, 10, 5392
20, 593342, Pitch_bend_c, 10, 5400
20, 593343, Pitch_bend_c, 10, 5408
20, 593343, Pitch_bend_c, 10, 5416
20, 593344, Pitch_bend_c, 10, 5423
20, 593344, Pitch_bend_c, 10, 5431
20, 593345, Pitch_bend_c, 10, 5439
20, 593345, Pitch_bend_c, 10, 5447
20, 593346, Pitch_bend_c, 10, 5455
20, 593346, Pitch_bend_c, 10, 5463
20, 593347, Pitch_bend_c, 10, 5471
20, 593347, Pitch_bend_c, 10, 5478
20, 593348, Pitch_bend_c, 10, 5486
20, 593348, Pitch_bend_c, 10, 5494
20, 593349, Pitch_bend_c, 10, 5502
20, 593349, Pitch_bend_c, 10, 5510
20, 593350, Pitch_bend_c, 10, 5518
20, 593350, Pitch_bend_c, 10, 5526
20, 593351, Pitch_bend_c, 10, 5534
20, 593351, Pitch_bend_c, 10, 5541
20, 593352, Pitch_bend_c, 10, 5549
20, 593352, Pitch_bend_c, 10, 5557
20, 593353, Pitch_bend_c, 10, 5565
20, 593353, Pitch_bend_c, 10, 5573
20, 593354, Pitch_bend_c, 10, 5581
20, 593354, Pitch_bend_c, 10, 5589
20, 593355, Pitch_bend_c, 10, 5596
20, 593355, Pitch_bend_c, 10, 5604
20, 593356, Pitch_bend_c, 10, 5612
20, 593356, Pitch_bend_c, 10, 5620
20, 593357, Pitch_bend_c, 10, 5628
20, 593357, Pitch_bend_c, 10, 5636
20, 593358, Pitch_bend_c, 10, 5644
20, 593358, Pitch_bend_c, 10, 5652
20, 593359, Pitch_bend_c, 10, 5659
20, 593359, Pitch_bend_c, 10, 5667
20, 593360, Pitch_bend_c, 10, 5675
20, 593360, Pitch_bend_c, 10, 5683
20, 593361, Pitch_bend_c, 10, 5691
20, 593361, Pitch_bend_c, 10, 5699
20, 593362, Pitch_bend_c, 10, 5707
20, 593362, Pitch_bend_c, 10, 5714
20, 593363, Pitch_bend_c, 10, 5722
20, 593363, Pitch_bend_c, 10, 5730
20, 593364, Pitch_bend_c, 10, 5738
20, 593364, Pitch_bend_c, 10, 5746
20, 593365, Pitch_bend_c, 10, 5754
20, 593365, Pitch_bend_c, 10, 5762
20, 593366, Pitch_bend_c, 10, 5770
20, 593366, Pitch_bend_c, 10, 5777
20, 593367, Pitch_bend_c, 10, 5785
20, 593367, Pitch_bend_c, 10, 5793
20, 593368, Pitch_bend_c, 10, 5801
20, 593368, Pitch_bend_c, 10, 5809
20, 593369, Pitch_bend_c, 10, 5817
20, 593369, Pitch_bend_c, 10, 5825
20, 593370, Pitch_bend_c, 10, 5832
20, 593370, Pitch_bend_c, 10, 5840
20, 593371, Pitch_bend_c, 10, 5848
20, 593371, Pitch_bend_c, 10, 5856
20, 593372, Pitch_bend_c, 10, 5864
20, 593372, Pitch_bend_c, 10, 5872
20, 593373, Pitch_bend_c, 10, 5880
20, 593373, Pitch_bend_c, 10, 5888
20, 593374, Pitch_bend_c, 10, 5895
20, 593374, Pitch_bend_c, 10, 5903
20, 593375, Pitch_bend_c, 10, 5911
20, 593375, Pitch_bend_c, 10, 5919
20, 593376, Pitch_bend_c, 10, 5927
20, 593376, Pitch_bend_c, 10, 5935
20, 593377, Pitch_bend_c, 10, 5943
20, 593377, Pitch_bend_c, 10, 5950
20, 593378, Pitch_bend_c, 10, 5958
20, 593378, Pitch_bend_c, 10, 5966
20, 593379, Pitch_bend_c, 10, 5974
20, 593379, Pitch_bend_c, 10, 5982
20, 593380, Pitch_bend_c, 10, 5990
20, 593380, Pitch_bend_c, 10, 5998
20, 593381, Pitch_bend_c, 10, 6006
20, 593381, Pitch_bend_c, 10, 6013
20, 593382, Pitch_bend_c, 10, 6021
20, 593382, Pitch_bend_c, 10, 6029
20, 593383, Pitch_bend_c, 10, 6037
20, 593383, Pitch_bend_c, 10, 6045
20, 593384, Pitch_bend_c, 10, 6053
20, 593384, Pitch_bend_c, 10, 6061
20, 593385, Pitch_bend_c, 10, 6068
20, 593385, Pitch_bend_c, 10, 6076
20, 593386, Pitch_bend_c, 10, 6084
20, 593386, Pitch_bend_c, 10, 6092
20, 593387, Pitch_bend_c, 10, 6100
20, 593387, Pitch_bend_c, 10, 6108
20, 593388, Pitch_bend_c, 10, 6116
20, 593388, Pitch_bend_c, 10, 6124
20, 593389, Pitch_bend_c, 10, 6131
20, 593389, Pitch_bend_c, 10, 6139
20, 593390, Pitch_bend_c, 10, 6147
20, 593390, Pitch_bend_c, 10, 6155
20, 593391, Pitch_bend_c, 10, 6163
20, 593391, Pitch_bend_c, 10, 6171
20, 593392, Pitch_bend_c, 10, 6179
20, 593392, Pitch_bend_c, 10, 6186
20, 593393, Pitch_bend_c, 10, 6194
20, 593393, Pitch_bend_c, 10, 6202
20, 593394, Pitch_bend_c, 10, 6210
20, 593394, Pitch_bend_c, 10, 6218
20, 593395, Pitch_bend_c, 10, 6226
20, 593395, Pitch_bend_c, 10, 6234
20, 593396, Pitch_bend_c, 10, 6242
20, 593396, Pitch_bend_c, 10, 6249
20, 593397, Pitch_bend_c, 10, 6257
20, 593397, Pitch_bend_c, 10, 6265
20, 593398, Pitch_bend_c, 10, 6273
20, 593398, Pitch_bend_c, 10, 6281
20, 593399, Pitch_bend_c, 10, 6289
20, 593399, Pitch_bend_c, 10, 6297
20, 593400, Pitch_bend_c, 10, 6304
20, 593400, Pitch_bend_c, 10, 6312
20, 593401, Pitch_bend_c, 10, 6320
20, 593401, Pitch_bend_c, 10, 6328
20, 593402, Pitch_bend_c, 10, 6336
20, 593402, Pitch_bend_c, 10, 6344
20, 593403, Pitch_bend_c, 10, 6352
20, 593403, Pitch_bend_c, 10, 6360
20, 593404, Pitch_bend_c, 10, 6367
20, 593404, Pitch_bend_c, 10, 6375
20, 593405, Pitch_bend_c, 10, 6383
20, 593405, Pitch_bend_c, 10, 6391
20, 593406, Pitch_bend_c, 10, 6399
20, 593406, Pitch_bend_c, 10, 6407
20, 593407, Pitch_bend_c, 10, 6415
20, 593407, Pitch_bend_c, 10, 6422
20, 593408, Pitch_bend_c, 10, 6430
20, 593408, Pitch_bend_c, 10, 6438
20, 593409, Pitch_bend_c, 10, 6446
20, 593409, Pitch_bend_c, 10, 6454
20, 593410, Pitch_bend_c, 10, 6462
20, 593410, Pitch_bend_c, 10, 6470
20, 593411, Pitch_bend_c, 10, 6478
20, 593411, Pitch_bend_c, 10, 6485
20, 593412, Pitch_bend_c, 10, 6493
20, 593412, Pitch_bend_c, 10, 6501
20, 593413, Pitch_bend_c, 10, 6509
20, 593413, Pitch_bend_c, 10, 6517
20, 593414, Pitch_bend_c, 10, 6525
20, 593414, Pitch_bend_c, 10, 6533
20, 593415, Pitch_bend_c, 10, 6540
20, 593415, Pitch_bend_c, 10, 6548
20, 593416, Pitch_bend_c, 10, 6556
20, 593416, Pitch_bend_c, 10, 6564
20, 593417, Pitch_bend_c, 10, 6572
20, 593417, Pitch_bend_c, 10, 6580
20, 593418, Pitch_bend_c, 10, 6588
20, 593418, Pitch_bend_c, 10, 6596
20, 593419, Pitch_bend_c, 10, 6603
20, 593419, Pitch_bend_c, 10, 6611
20, 593420, Pitch_bend_c, 10, 6619
20, 593420, Pitch_bend_c, 10, 6627
20, 593421, Pitch_bend_c, 10, 6635
20, 593421, Pitch_bend_c, 10, 6643
20, 593422, Pitch_bend_c, 10, 6651
20, 593422, Pitch_bend_c, 10, 6658
20, 593423, Pitch_bend_c, 10, 6666
20, 593423, Pitch_bend_c, 10, 6674
20, 593424, Pitch_bend_c, 10, 6682
20, 593424, Pitch_bend_c, 10, 6690
20, 593425, Pitch_bend_c, 10, 6698
20, 593425, Pitch_bend_c, 10, 6706
20, 593426, Pitch_bend_c, 10, 6714
20, 593426, Pitch_bend_c, 10, 6721
20, 593427, Pitch_bend_c, 10, 6729
20, 593427, Pitch_bend_c, 10, 6737
20, 593428, Pitch_bend_c, 10, 6745
20, 593428, Pitch_bend_c, 10, 6753
20, 593429, Pitch_bend_c, 10, 6761
20, 593429, Pitch_bend_c, 10, 6769
20, 593430, Pitch_bend_c, 10, 6776
20, 593430, Pitch_bend_c, 10, 6784
20, 593431, Pitch_bend_c, 10, 6792
20, 593431, Pitch_bend_c, 10, 6800
20, 593432, Pitch_bend_c, 10, 6808
20, 593432, Pitch_bend_c, 10, 6816
20, 593433, Pitch_bend_c, 10, 6824
20, 593433, Pitch_bend_c, 10, 6832
20, 593434, Pitch_bend_c, 10, 6839
20, 593434, Pitch_bend_c, 10, 6847
20, 593435, Pitch_bend_c, 10, 6855
20, 593435, Pitch_bend_c, 10, 6863
20, 593436, Pitch_bend_c, 10, 6871
20, 593436, Pitch_bend_c, 10, 6879
20, 593437, Pitch_bend_c, 10, 6887
20, 593437, Pitch_bend_c, 10, 6894
20, 593438, Pitch_bend_c, 10, 6902
20, 593438, Pitch_bend_c, 10, 6910
20, 593439, Pitch_bend_c, 10, 6918
20, 593439, Pitch_bend_c, 10, 6926
20, 593440, Pitch_bend_c, 10, 6934
20, 593440, Pitch_bend_c, 10, 6942
20, 593441, Pitch_bend_c, 10, 6950
20, 593441, Pitch_bend_c, 10, 6957
20, 593442, Pitch_bend_c, 10, 6965
20, 593442, Pitch_bend_c, 10, 6973
20, 593443, Pitch_bend_c, 10, 6981
20, 593443, Pitch_bend_c, 10, 6989
20, 593444, Pitch_bend_c, 10, 6997
20, 593444, Pitch_bend_c, 10, 7005
20, 593445, Pitch_bend_c, 10, 7012
20, 593445, Pitch_bend_c, 10, 7020
20, 593446, Pitch_bend_c, 10, 7028
20, 593446, Pitch_bend_c, 10, 7036
20, 593447, Pitch_bend_c, 10, 7044
20, 593447, Pitch_bend_c, 10, 7052
20, 593448, Pitch_bend_c, 10, 7060
20, 593448, Pitch_bend_c, 10, 7068
20, 593449, Pitch_bend_c, 10, 7075
20, 593449, Pitch_bend_c, 10, 7083
20, 593450, Pitch_bend_c, 10, 7091
20, 593450, Pitch_bend_c, 10, 7099
20, 593451, Pitch_bend_c, 10, 7107
20, 593451, Pitch_bend_c, 10, 7115
20, 593452, Pitch_bend_c, 10, 7123
20, 593452, Pitch_bend_c, 10, 7130
20, 593453, Pitch_bend_c, 10, 7138
20, 593453, Pitch_bend_c, 10, 7146
20, 593454, Pitch_bend_c, 10, 7154
20, 593454, Pitch_bend_c, 10, 7162
20, 593455, Pitch_bend_c, 10, 7170
20, 593455, Pitch_bend_c, 10, 7178
20, 593456, Pitch_bend_c, 10, 7186
20, 593456, Pitch_bend_c, 10, 7193
20, 593457, Pitch_bend_c, 10, 7201
20, 593457, Pitch_bend_c, 10, 7209
20, 593458, Pitch_bend_c, 10, 7217
20, 593458, Pitch_bend_c, 10, 7225
20, 593459, Pitch_bend_c, 10, 7233
20, 593459, Pitch_bend_c, 10, 7241
20, 593460, Pitch_bend_c, 10, 7248
20, 593460, Pitch_bend_c, 10, 7256
20, 593461, Pitch_bend_c, 10, 7264
20, 593461, Pitch_bend_c, 10, 7272
20, 593462, Pitch_bend_c, 10, 7280
20, 593462, Pitch_bend_c, 10, 7288
20, 593463, Pitch_bend_c, 10, 7296
20, 593463, Pitch_bend_c, 10, 7304
20, 593464, Pitch_bend_c, 10, 7311
20, 593464, Pitch_bend_c, 10, 7319
20, 593465, Pitch_bend_c, 10, 7327
20, 593465, Pitch_bend_c, 10, 7335
20, 593466, Pitch_bend_c, 10, 7343
20, 593466, Pitch_bend_c, 10, 7351
20, 593467, Pitch_bend_c, 10, 7359
20, 593467, Pitch_bend_c, 10, 7366
20, 593468, Pitch_bend_c, 10, 7374
20, 593468, Pitch_bend_c, 10, 7382
20, 593469, Pitch_bend_c, 10, 7390
20, 593469, Pitch_bend_c, 10, 7398
20, 593470, Pitch_bend_c, 10, 7406
20, 593470, Pitch_bend_c, 10, 7414
20, 593471, Pitch_bend_c, 10, 7422
20, 593471, Pitch_bend_c, 10, 7429
20, 593472, Pitch_bend_c, 10, 7437
20, 593472, Pitch_bend_c, 10, 7445
20, 593473, Pitch_bend_c, 10, 7453
20, 593473, Pitch_bend_c, 10, 7461
20, 593474, Pitch_bend_c, 10, 7469
20, 593474, Pitch_bend_c, 10, 7477
20, 593475, Pitch_bend_c, 10, 7484
20, 593475, Pitch_bend_c, 10, 7492
20, 593476, Pitch_bend_c, 10, 7500
20, 593476, Pitch_bend_c, 10, 7508
20, 593477, Pitch_bend_c, 10, 7516
20, 593477, Pitch_bend_c, 10, 7524
20, 593478, Pitch_bend_c, 10, 7532
20, 593478, Pitch_bend_c, 10, 7540
20, 593479, Pitch_bend_c, 10, 7547
20, 593479, Pitch_bend_c, 10, 7555
20, 593480, Pitch_bend_c, 10, 7563
20, 593480, Pitch_bend_c, 10, 7571
20, 593481, Pitch_bend_c, 10, 7579
20, 593481, Pitch_bend_c, 10, 7587
20, 593482, Pitch_bend_c, 10, 7595
20, 593482, Pitch_bend_c, 10, 7602
20, 593483, Pitch_bend_c, 10, 7610
20, 593483, Pitch_bend_c, 10, 7618
20, 593484, Pitch_bend_c, 10, 7626
20, 593484, Pitch_bend_c, 10, 7634
20, 593485, Pitch_bend_c, 10, 7642
20, 593485, Pitch_bend_c, 10, 7650
20, 593486, Pitch_bend_c, 10, 7658
20, 593486, Pitch_bend_c, 10, 7665
20, 593487, Pitch_bend_c, 10, 7673
20, 593487, Pitch_bend_c, 10, 7681
20, 593488, Pitch_bend_c, 10, 7689
20, 593488, Pitch_bend_c, 10, 7697
20, 593489, Pitch_bend_c, 10, 7705
20, 593489, Pitch_bend_c, 10, 7713
20, 593490, Pitch_bend_c, 10, 7720
20, 593490, Pitch_bend_c, 10, 7728
20, 593491, Pitch_bend_c, 10, 7736
20, 593491, Pitch_bend_c, 10, 7744
20, 593492, Pitch_bend_c, 10, 7752
20, 593492, Pitch_bend_c, 10, 7760
20, 593493, Pitch_bend_c, 10, 7768
20, 593493, Pitch_bend_c, 10, 7776
20, 593494, Pitch_bend_c, 10, 7783
20, 593494, Pitch_bend_c, 10, 7791
20, 593495, Pitch_bend_c, 10, 7799
20, 593495, Pitch_bend_c, 10, 7807
20, 593496, Pitch_bend_c, 10, 7815
20, 593496, Pitch_bend_c, 10, 7823
20, 593497, Pitch_bend_c, 10, 7831
20, 593497, Pitch_bend_c, 10, 7838
20, 593498, Pitch_bend_c, 10, 7846
20, 593498, Pitch_bend_c, 10, 7854
20, 593499, Pitch_bend_c, 10, 7862
20, 593499, Pitch_bend_c, 10, 7870
20, 593500, Pitch_bend_c, 10, 7878
20, 593500, Pitch_bend_c, 10, 7886
20, 593501, Pitch_bend_c, 10, 7894
20, 593501, Pitch_bend_c, 10, 7901
20, 593502, Pitch_bend_c, 10, 7909
20, 593502, Pitch_bend_c, 10, 7917
20, 593503, Pitch_bend_c, 10, 7925
20, 593503, Pitch_bend_c, 10, 7933
20, 593504, Pitch_bend_c, 10, 7941
20, 593504, Pitch_bend_c, 10, 7949
20, 593505, Pitch_bend_c, 10, 7956
20, 593505, Pitch_bend_c, 10, 7964
20, 593506, Pitch_bend_c, 10, 7972
20, 593506, Pitch_bend_c, 10, 7980
20, 593507, Pitch_bend_c, 10, 7988
20, 593507, Pitch_bend_c, 10, 7996
20, 593508, Pitch_bend_c, 10, 8004
20, 593508, Pitch_bend_c, 10, 8012
20, 593509, Pitch_bend_c, 10, 8019
20, 593509, Pitch_bend_c, 10, 8027
20, 593510, Pitch_bend_c, 10, 8035
20, 593510, Pitch_bend_c, 10, 8043
20, 593511, Pitch_bend_c, 10, 8051
20, 593511, Pitch_bend_c, 10, 8059
20, 593512, Pitch_bend_c, 10, 8067
20, 593512, Pitch_bend_c, 10, 8074
20, 593513, Pitch_bend_c, 10, 8082
20, 593513, Pitch_bend_c, 10, 8090
20, 593514, Pitch_bend_c, 10, 8098
20, 593514, Pitch_bend_c, 10, 8106
20, 593515, Pitch_bend_c, 10, 8114
20, 593515, Pitch_bend_c, 10, 8122
20, 593516, Pitch_bend_c, 10, 8130
20, 593516, Pitch_bend_c, 10, 8137
20, 593517, Pitch_bend_c, 10, 8145
20, 593517, Pitch_bend_c, 10, 8153
20, 593518, Pitch_bend_c, 10, 8161
20, 593518, Pitch_bend_c, 10, 8169
20, 593519, Pitch_bend_c, 10, 8177
20, 593519, Pitch_bend_c, 10, 8185
20, 593520, Pitch_bend_c, 10, 8192
20, 593542, Note_on_c, 10, 51, 0
20, 595680, Pitch_bend_c, 10, 4416
20, 595680, Pitch_bend_c, 10, 4424
20, 595681, Pitch_bend_c, 10, 4432
20, 595681, Pitch_bend_c, 10, 4440
20, 595682, Pitch_bend_c, 10, 4448
20, 595682, Pitch_bend_c, 10, 4456
20, 595683, Pitch_bend_c, 10, 4464
20, 595683, Pitch_bend_c, 10, 4472
20, 595684, Pitch_bend_c, 10, 4479
20, 595684, Pitch_bend_c, 10, 4487
20, 595685, Pitch_bend_c, 10, 4495
20, 595685, Pitch_bend_c, 10, 4503
20, 595686, Pitch_bend_c, 10, 4511
20, 595686, Pitch_bend_c, 10, 4519
20, 595687, Pitch_bend_c, 10, 4527
20, 595687, Pitch_bend_c, 10, 4534
20, 595688, Pitch_bend_c, 10, 4542
20, 595688, Pitch_bend_c, 10, 4550
20, 595689, Pitch_bend_c, 10, 4558
20, 595689, Pitch_bend_c, 10, 4566
20, 595690, Pitch_bend_c, 10, 4574
20, 595690, Pitch_bend_c, 10, 4582
20, 595691, Pitch_bend_c, 10, 4590
20, 595691, Pitch_bend_c, 10, 4597
20, 595692, Pitch_bend_c, 10, 4605
20, 595692, Pitch_bend_c, 10, 4613
20, 595693, Pitch_bend_c, 10, 4621
20, 595693, Pitch_bend_c, 10, 4629
20, 595694, Pitch_bend_c, 10, 4637
20, 595694, Pitch_bend_c, 10, 4645
20, 595695, Pitch_bend_c, 10, 4652
20, 595695, Pitch_bend_c, 10, 4660
20, 595696, Pitch_bend_c, 10, 4668
20, 595696, Pitch_bend_c, 10, 4676
20, 595697, Pitch_bend_c, 10, 4684
20, 595697, Pitch_bend_c, 10, 4692
20, 595698, Pitch_bend_c, 10, 4700
20, 595698, Pitch_bend_c, 10, 4708
20, 595699, Pitch_bend_c, 10, 4715
20, 595699, Pitch_bend_c, 10, 4723
20, 595700, Pitch_bend_c, 10, 4731
20, 595700, Pitch_bend_c, 10, 4739
20, 595701, Pitch_bend_c, 10, 4747
20, 595701, Note_on_c, 10, 51, 97
20, 595701, Pitch_bend_c, 10, 4755
20, 595702, Pitch_bend_c, 10, 4763
20, 595702, Pitch_bend_c, 10, 4770
20, 595703, Pitch_bend_c, 10, 4778
20, 595703, Pitch_bend_c, 10, 4786
20, 595704, Pitch_bend_c, 10, 4794
20, 595704, Pitch_bend_c, 10, 4802
20, 595705, Pitch_bend_c, 10, 4810
20, 595705, Pitch_bend_c, 10, 4818
20, 595706, Pitch_bend_c, 10, 4826
20, 595706, Pitch_bend_c, 10, 4833
20, 595707, Pitch_bend_c, 10, 4841
20, 595707, Pitch_bend_c, 10, 4849
20, 595708, Pitch_bend_c, 10, 4857
20, 595708, Pitch_bend_c, 10, 4865
20, 595709, Pitch_bend_c, 10, 4873
20, 595709, Pitch_bend_c, 10, 4881
20, 595710, Pitch_bend_c, 10, 4888
20, 595710, Pitch_bend_c, 10, 4896
20, 595711, Pitch_bend_c, 10, 4904
20, 595711, Pitch_bend_c, 10, 4912
20, 595712, Pitch_bend_c, 10, 4920
20, 595712, Pitch_bend_c, 10, 4928
20, 595713, Pitch_bend_c, 10, 4936
20, 595713, Pitch_bend_c, 10, 4944
20, 595714, Pitch_bend_c, 10, 4951
20, 595714, Pitch_bend_c, 10, 4959
20, 595715, Pitch_bend_c, 10, 4967
20, 595715, Pitch_bend_c, 10, 4975
20, 595716, Pitch_bend_c, 10, 4983
20, 595716, Pitch_bend_c, 10, 4991
20, 595717, Pitch_bend_c, 10, 4999
20, 595717, Pitch_bend_c, 10, 5006
20, 595718, Pitch_bend_c, 10, 5014
20, 595718, Pitch_bend_c, 10, 5022
20, 595719, Pitch_bend_c, 10, 5030
20, 595719, Pitch_bend_c, 10, 5038
20, 595720, Pitch_bend_c, 10, 5046
20, 595720, Pitch_bend_c, 10, 5054
20, 595721, Pitch_bend_c, 10, 5062
20, 595721, Pitch_bend_c, 10, 5069
20, 595722, Pitch_bend_c, 10, 5077
20, 595722, Pitch_bend_c, 10, 5085
20, 595723, Pitch_bend_c, 10, 5093
20, 595723, Pitch_bend_c, 10, 5101
20, 595724, Pitch_bend_c, 10, 5109
20, 595724, Pitch_bend_c, 10, 5117
20, 595725, Pitch_bend_c, 10, 5124
20, 595725, Pitch_bend_c, 10, 5132
20, 595726, Pitch_bend_c, 10, 5140
20, 595726, Pitch_bend_c, 10, 5148
20, 595727, Pitch_bend_c, 10, 5156
20, 595727, Pitch_bend_c, 10, 5164
20, 595728, Pitch_bend_c, 10, 5172
20, 595728, Pitch_bend_c, 10, 5180
20, 595729, Pitch_bend_c, 10, 5187
20, 595729, Pitch_bend_c, 10, 5195
20, 595730, Pitch_bend_c, 10, 5203
20, 595730, Pitch_bend_c, 10, 5211
20, 595731, Pitch_bend_c, 10, 5219
20, 595731, Pitch_bend_c, 10, 5227
20, 595732, Pitch_bend_c, 10, 5235
20, 595732, Pitch_bend_c, 10, 5242
20, 595733, Pitch_bend_c, 10, 5250
20, 595733, Pitch_bend_c, 10, 5258
20, 595734, Pitch_bend_c, 10, 5266
20, 595734, Pitch_bend_c, 10, 5274
20, 595735, Pitch_bend_c, 10, 5282
20, 595735, Pitch_bend_c, 10, 5290
20, 595736, Pitch_bend_c, 10, 5298
20, 595736, Pitch_bend_c, 10, 5305
20, 595737, Pitch_bend_c, 10, 5313
20, 595737, Pitch_bend_c, 10, 5321
20, 595738, Pitch_bend_c, 10, 5329
20, 595738, Pitch_bend_c, 10, 5337
20, 595739, Pitch_bend_c, 10, 5345
20, 595739, Pitch_bend_c, 10, 5353
20, 595740, Pitch_bend_c, 10, 5360
20, 595740, Pitch_bend_c, 10, 5368
20, 595741, Pitch_bend_c, 10, 5376
20, 595741, Pitch_bend_c, 10, 5384
20, 595742, Pitch_bend_c, 10, 5392
20, 595742, Pitch_bend_c, 10, 5400
20, 595743, Pitch_bend_c, 10, 5408
20, 595743, Pitch_bend_c, 10, 5416
20, 595744, Pitch_bend_c, 10, 5423
20, 595744, Pitch_bend_c, 10, 5431
20, 595745, Pitch_bend_c, 10, 5439
20, 595745, Pitch_bend_c, 10, 5447
20, 595746, Pitch_bend_c, 10, 5455
20, 595746, Pitch_bend_c, 10, 5463
20, 595747, Pitch_bend_c, 10, 5471
20, 595747, Pitch_bend_c, 10, 5478
20, 595748, Pitch_bend_c, 10, 5486
20, 595748, Pitch_bend_c, 10, 5494
20, 595749, Pitch_bend_c, 10, 5502
20, 595749, Pitch_bend_c, 10, 5510
20, 595750, Pitch_bend_c, 10, 5518
20, 595750, Pitch_bend_c, 10, 5526
20, 595751, Pitch_bend_c, 10, 5534
20, 595751, Pitch_bend_c, 10, 5541
20, 595752, Pitch_bend_c, 10, 5549
20, 595752, Pitch_bend_c, 10, 5557
20, 595753, Pitch_bend_c, 10, 5565
20, 595753, Pitch_bend_c, 10, 5573
20, 595754, Pitch_bend_c, 10, 5581
20, 595754, Pitch_bend_c, 10, 5589
20, 595755, Pitch_bend_c, 10, 5596
20, 595755, Pitch_bend_c, 10, 5604
20, 595756, Pitch_bend_c, 10, 5612
20, 595756, Pitch_bend_c, 10, 5620
20, 595757, Pitch_bend_c, 10, 5628
20, 595757, Pitch_bend_c, 10, 5636
20, 595758, Pitch_bend_c, 10, 5644
20, 595758, Pitch_bend_c, 10, 5652
20, 595759, Pitch_bend_c, 10, 5659
20, 595759, Pitch_bend_c, 10, 5667
20, 595760, Pitch_bend_c, 10, 5675
20, 595760, Pitch_bend_c, 10, 5683
20, 595761, Pitch_bend_c, 10, 5691
20, 595761, Pitch_bend_c, 10, 5699
20, 595762, Pitch_bend_c, 10, 5707
20, 595762, Pitch_bend_c, 10, 5714
20, 595763, Pitch_bend_c, 10, 5722
20, 595763, Pitch_bend_c, 10, 5730
20, 595764, Pitch_bend_c, 10, 5738
20, 595764, Pitch_bend_c, 10, 5746
20, 595765, Pitch_bend_c, 10, 5754
20, 595765, Pitch_bend_c, 10, 5762
20, 595766, Pitch_bend_c, 10, 5770
20, 595766, Pitch_bend_c, 10, 5777
20, 595767, Pitch_bend_c, 10, 5785
20, 595767, Pitch_bend_c, 10, 5793
20, 595768, Pitch_bend_c, 10, 5801
20, 595768, Pitch_bend_c, 10, 5809
20, 595769, Pitch_bend_c, 10, 5817
20, 595769, Pitch_bend_c, 10, 5825
20, 595770, Pitch_bend_c, 10, 5832
20, 595770, Pitch_bend_c, 10, 5840
20, 595771, Pitch_bend_c, 10, 5848
20, 595771, Pitch_bend_c, 10, 5856
20, 595772, Pitch_bend_c, 10, 5864
20, 595772, Pitch_bend_c, 10, 5872
20, 595773, Pitch_bend_c, 10, 5880
20, 595773, Pitch_bend_c, 10, 5888
20, 595774, Pitch_bend_c, 10, 5895
20, 595774, Pitch_bend_c, 10, 5903
20, 595775, Pitch_bend_c, 10, 5911
20, 595775, Pitch_bend_c, 10, 5919
20, 595776, Pitch_bend_c, 10, 5927
20, 595776, Pitch_bend_c, 10, 5935
20, 595777, Pitch_bend_c, 10, 5943
20, 595777, Pitch_bend_c, 10, 5950
20, 595778, Pitch_bend_c, 10, 5958
20, 595778, Pitch_bend_c, 10, 5966
20, 595779, Pitch_bend_c, 10, 5974
20, 595779, Pitch_bend_c, 10, 5982
20, 595780, Pitch_bend_c, 10, 5990
20, 595780, Pitch_bend_c, 10, 5998
20, 595781, Pitch_bend_c, 10, 6006
20, 595781, Pitch_bend_c, 10, 6013
20, 595782, Pitch_bend_c, 10, 6021
20, 595782, Pitch_bend_c, 10, 6029
20, 595783, Pitch_bend_c, 10, 6037
20, 595783, Pitch_bend_c, 10, 6045
20, 595784, Pitch_bend_c, 10, 6053
20, 595784, Pitch_bend_c, 10, 6061
20, 595785, Pitch_bend_c, 10, 6068
20, 595785, Pitch_bend_c, 10, 6076
20, 595786, Pitch_bend_c, 10, 6084
20, 595786, Pitch_bend_c, 10, 6092
20, 595787, Pitch_bend_c, 10, 6100
20, 595787, Pitch_bend_c, 10, 6108
20, 595788, Pitch_bend_c, 10, 6116
20, 595788, Pitch_bend_c, 10, 6124
20, 595789, Pitch_bend_c, 10, 6131
20, 595789, Pitch_bend_c, 10, 6139
20, 595790, Pitch_bend_c, 10, 6147
20, 595790, Pitch_bend_c, 10, 6155
20, 595791, Pitch_bend_c, 10, 6163
20, 595791, Pitch_bend_c, 10, 6171
20, 595792, Pitch_bend_c, 10, 6179
20, 595792, Pitch_bend_c, 10, 6186
20, 595793, Pitch_bend_c, 10, 6194
20, 595793, Pitch_bend_c, 10, 6202
20, 595794, Pitch_bend_c, 10, 6210
20, 595794, Pitch_bend_c, 10, 6218
20, 595795, Pitch_bend_c, 10, 6226
20, 595795, Pitch_bend_c, 10, 6234
20, 595796, Pitch_bend_c, 10, 6242
20, 595796, Pitch_bend_c, 10, 6249
20, 595797, Pitch_bend_c, 10, 6257
20, 595797, Pitch_bend_c, 10, 6265
20, 595798, Pitch_bend_c, 10, 6273
20, 595798, Pitch_bend_c, 10, 6281
20, 595799, Pitch_bend_c, 10, 6289
20, 595799, Pitch_bend_c, 10, 6297
20, 595800, Pitch_bend_c, 10, 6304
20, 595800, Pitch_bend_c, 10, 6312
20, 595801, Pitch_bend_c, 10, 6320
20, 595801, Pitch_bend_c, 10, 6328
20, 595802, Pitch_bend_c, 10, 6336
20, 595802, Pitch_bend_c, 10, 6344
20, 595803, Pitch_bend_c, 10, 6352
20, 595803, Pitch_bend_c, 10, 6360
20, 595804, Pitch_bend_c, 10, 6367
20, 595804, Pitch_bend_c, 10, 6375
20, 595805, Pitch_bend_c, 10, 6383
20, 595805, Pitch_bend_c, 10, 6391
20, 595806, Pitch_bend_c, 10, 6399
20, 595806, Pitch_bend_c, 10, 6407
20, 595807, Pitch_bend_c, 10, 6415
20, 595807, Pitch_bend_c, 10, 6422
20, 595808, Pitch_bend_c, 10, 6430
20, 595808, Pitch_bend_c, 10, 6438
20, 595809, Pitch_bend_c, 10, 6446
20, 595809, Pitch_bend_c, 10, 6454
20, 595810, Pitch_bend_c, 10, 6462
20, 595810, Pitch_bend_c, 10, 6470
20, 595811, Pitch_bend_c, 10, 6478
20, 595811, Pitch_bend_c, 10, 6485
20, 595812, Pitch_bend_c, 10, 6493
20, 595812, Pitch_bend_c, 10, 6501
20, 595813, Pitch_bend_c, 10, 6509
20, 595813, Pitch_bend_c, 10, 6517
20, 595814, Pitch_bend_c, 10, 6525
20, 595814, Pitch_bend_c, 10, 6533
20, 595815, Pitch_bend_c, 10, 6540
20, 595815, Pitch_bend_c, 10, 6548
20, 595816, Pitch_bend_c, 10, 6556
20, 595816, Pitch_bend_c, 10, 6564
20, 595817, Pitch_bend_c, 10, 6572
20, 595817, Pitch_bend_c, 10, 6580
20, 595818, Pitch_bend_c, 10, 6588
20, 595818, Pitch_bend_c, 10, 6596
20, 595819, Pitch_bend_c, 10, 6603
20, 595819, Pitch_bend_c, 10, 6611
20, 595820, Pitch_bend_c, 10, 6619
20, 595820, Pitch_bend_c, 10, 6627
20, 595821, Pitch_bend_c, 10, 6635
20, 595821, Pitch_bend_c, 10, 6643
20, 595822, Pitch_bend_c, 10, 6651
20, 595822, Pitch_bend_c, 10, 6658
20, 595823, Pitch_bend_c, 10, 6666
20, 595823, Pitch_bend_c, 10, 6674
20, 595824, Pitch_bend_c, 10, 6682
20, 595824, Pitch_bend_c, 10, 6690
20, 595825, Pitch_bend_c, 10, 6698
20, 595825, Pitch_bend_c, 10, 6706
20, 595826, Pitch_bend_c, 10, 6714
20, 595826, Pitch_bend_c, 10, 6721
20, 595827, Pitch_bend_c, 10, 6729
20, 595827, Pitch_bend_c, 10, 6737
20, 595828, Pitch_bend_c, 10, 6745
20, 595828, Pitch_bend_c, 10, 6753
20, 595829, Pitch_bend_c, 10, 6761
20, 595829, Pitch_bend_c, 10, 6769
20, 595830, Pitch_bend_c, 10, 6776
20, 595830, Pitch_bend_c, 10, 6784
20, 595831, Pitch_bend_c, 10, 6792
20, 595831, Pitch_bend_c, 10, 6800
20, 595832, Pitch_bend_c, 10, 6808
20, 595832, Pitch_bend_c, 10, 6816
20, 595833, Pitch_bend_c, 10, 6824
20, 595833, Pitch_bend_c, 10, 6832
20, 595834, Pitch_bend_c, 10, 6839
20, 595834, Pitch_bend_c, 10, 6847
20, 595835, Pitch_bend_c, 10, 6855
20, 595835, Pitch_bend_c, 10, 6863
20, 595836, Pitch_bend_c, 10, 6871
20, 595836, Pitch_bend_c, 10, 6879
20, 595837, Pitch_bend_c, 10, 6887
20, 595837, Pitch_bend_c, 10, 6894
20, 595838, Pitch_bend_c, 10, 6902
20, 595838, Pitch_bend_c, 10, 6910
20, 595839, Pitch_bend_c, 10, 6918
20, 595839, Pitch_bend_c, 10, 6926
20, 595840, Pitch_bend_c, 10, 6934
20, 595840, Pitch_bend_c, 10, 6942
20, 595841, Pitch_bend_c, 10, 6950
20, 595841, Pitch_bend_c, 10, 6957
20, 595842, Pitch_bend_c, 10, 6965
20, 595842, Pitch_bend_c, 10, 6973
20, 595843, Pitch_bend_c, 10, 6981
20, 595843, Pitch_bend_c, 10, 6989
20, 595844, Pitch_bend_c, 10, 6997
20, 595844, Pitch_bend_c, 10, 7005
20, 595845, Pitch_bend_c, 10, 7012
20, 595845, Pitch_bend_c, 10, 7020
20, 595846, Pitch_bend_c, 10, 7028
20, 595846, Pitch_bend_c, 10, 7036
20, 595847, Pitch_bend_c, 10, 7044
20, 595847, Pitch_bend_c, 10, 7052
20, 595848, Pitch_bend_c, 10, 7060
20, 595848, Pitch_bend_c, 10, 7068
20, 595849, Pitch_bend_c, 10, 7075
20, 595849, Pitch_bend_c, 10, 7083
20, 595850, Pitch_bend_c, 10, 7091
20, 595850, Pitch_bend_c, 10, 7099
20, 595851, Pitch_bend_c, 10, 7107
20, 595851, Pitch_bend_c, 10, 7115
20, 595852, Pitch_bend_c, 10, 7123
20, 595852, Pitch_bend_c, 10, 7130
20, 595853, Pitch_bend_c, 10, 7138
20, 595853, Pitch_bend_c, 10, 7146
20, 595854, Pitch_bend_c, 10, 7154
20, 595854, Pitch_bend_c, 10, 7162
20, 595855, Pitch_bend_c, 10, 7170
20, 595855, Pitch_bend_c, 10, 7178
20, 595856, Pitch_bend_c, 10, 7186
20, 595856, Pitch_bend_c, 10, 7193
20, 595857, Pitch_bend_c, 10, 7201
20, 595857, Pitch_bend_c, 10, 7209
20, 595858, Pitch_bend_c, 10, 7217
20, 595858, Pitch_bend_c, 10, 7225
20, 595859, Pitch_bend_c, 10, 7233
20, 595859, Pitch_bend_c, 10, 7241
20, 595860, Pitch_bend_c, 10, 7248
20, 595860, Pitch_bend_c, 10, 7256
20, 595861, Pitch_bend_c, 10, 7264
20, 595861, Pitch_bend_c, 10, 7272
20, 595862, Pitch_bend_c, 10, 7280
20, 595862, Pitch_bend_c, 10, 7288
20, 595863, Pitch_bend_c, 10, 7296
20, 595863, Pitch_bend_c, 10, 7304
20, 595864, Pitch_bend_c, 10, 7311
20, 595864, Pitch_bend_c, 10, 7319
20, 595865, Pitch_bend_c, 10, 7327
20, 595865, Pitch_bend_c, 10, 7335
20, 595866, Pitch_bend_c, 10, 7343
20, 595866, Pitch_bend_c, 10, 7351
20, 595867, Pitch_bend_c, 10, 7359
20, 595867, Pitch_bend_c, 10, 7366
20, 595868, Pitch_bend_c, 10, 7374
20, 595868, Pitch_bend_c, 10, 7382
20, 595869, Pitch_bend_c, 10, 7390
20, 595869, Pitch_bend_c, 10, 7398
20, 595870, Pitch_bend_c, 10, 7406
20, 595870, Pitch_bend_c, 10, 7414
20, 595871, Pitch_bend_c, 10, 7422
20, 595871, Pitch_bend_c, 10, 7429
20, 595872, Pitch_bend_c, 10, 7437
20, 595872, Pitch_bend_c, 10, 7445
20, 595873, Pitch_bend_c, 10, 7453
20, 595873, Pitch_bend_c, 10, 7461
20, 595874, Pitch_bend_c, 10, 7469
20, 595874, Pitch_bend_c, 10, 7477
20, 595875, Pitch_bend_c, 10, 7484
20, 595875, Pitch_bend_c, 10, 7492
20, 595876, Pitch_bend_c, 10, 7500
20, 595876, Pitch_bend_c, 10, 7508
20, 595877, Pitch_bend_c, 10, 7516
20, 595877, Pitch_bend_c, 10, 7524
20, 595878, Pitch_bend_c, 10, 7532
20, 595878, Pitch_bend_c, 10, 7540
20, 595879, Pitch_bend_c, 10, 7547
20, 595879, Pitch_bend_c, 10, 7555
20, 595880, Pitch_bend_c, 10, 7563
20, 595880, Pitch_bend_c, 10, 7571
20, 595881, Pitch_bend_c, 10, 7579
20, 595881, Pitch_bend_c, 10, 7587
20, 595882, Pitch_bend_c, 10, 7595
20, 595882, Pitch_bend_c, 10, 7602
20, 595883, Pitch_bend_c, 10, 7610
20, 595883, Pitch_bend_c, 10, 7618
20, 595884, Pitch_bend_c, 10, 7626
20, 595884, Pitch_bend_c, 10, 7634
20, 595885, Pitch_bend_c, 10, 7642
20, 595885, Pitch_bend_c, 10, 7650
20, 595886, Pitch_bend_c, 10, 7658
20, 595886, Pitch_bend_c, 10, 7665
20, 595887, Pitch_bend_c, 10, 7673
20, 595887, Pitch_bend_c, 10, 7681
20, 595888, Pitch_bend_c, 10, 7689
20, 595888, Pitch_bend_c, 10, 7697
20, 595889, Pitch_bend_c, 10, 7705
20, 595889, Pitch_bend_c, 10, 7713
20, 595890, Pitch_bend_c, 10, 7720
20, 595890, Pitch_bend_c, 10, 7728
20, 595891, Pitch_bend_c, 10, 7736
20, 595891, Pitch_bend_c, 10, 7744
20, 595892, Pitch_bend_c, 10, 7752
20, 595892, Pitch_bend_c, 10, 7760
20, 595893, Pitch_bend_c, 10, 7768
20, 595893, Pitch_bend_c, 10, 7776
20, 595894, Pitch_bend_c, 10, 7783
20, 595894, Pitch_bend_c, 10, 7791
20, 595895, Pitch_bend_c, 10, 7799
20, 595895, Pitch_bend_c, 10, 7807
20, 595896, Pitch_bend_c, 10, 7815
20, 595896, Pitch_bend_c, 10, 7823
20, 595897, Pitch_bend_c, 10, 7831
20, 595897, Pitch_bend_c, 10, 7838
20, 595898, Pitch_bend_c, 10, 7846
20, 595898, Pitch_bend_c, 10, 7854
20, 595899, Pitch_bend_c, 10, 7862
20, 595899, Pitch_bend_c, 10, 7870
20, 595900, Pitch_bend_c, 10, 7878
20, 595900, Pitch_bend_c, 10, 7886
20, 595901, Pitch_bend_c, 10, 7894
20, 595901, Pitch_bend_c, 10, 7901
20, 595902, Pitch_bend_c, 10, 7909
20, 595902, Pitch_bend_c, 10, 7917
20, 595903, Pitch_bend_c, 10, 7925
20, 595903, Pitch_bend_c, 10, 7933
20, 595904, Pitch_bend_c, 10, 7941
20, 595904, Pitch_bend_c, 10, 7949
20, 595905, Pitch_bend_c, 10, 7956
20, 595905, Pitch_bend_c, 10, 7964
20, 595906, Pitch_bend_c, 10, 7972
20, 595906, Pitch_bend_c, 10, 7980
20, 595907, Pitch_bend_c, 10, 7988
20, 595907, Pitch_bend_c, 10, 7996
20, 595908, Pitch_bend_c, 10, 8004
20, 595908, Pitch_bend_c, 10, 8012
20, 595909, Pitch_bend_c, 10, 8019
20, 595909, Pitch_bend_c, 10, 8027
20, 595910, Pitch_bend_c, 10, 8035
20, 595910, Pitch_bend_c, 10, 8043
20, 595911, Pitch_bend_c, 10, 8051
20, 595911, Pitch_bend_c, 10, 8059
20, 595912, Pitch_bend_c, 10, 8067
20, 595912, Pitch_bend_c, 10, 8074
20, 595913, Pitch_bend_c, 10, 8082
20, 595913, Pitch_bend_c, 10, 8090
20, 595914, Pitch_bend_c, 10, 8098
20, 595914, Pitch_bend_c, 10, 8106
20, 595915, Pitch_bend_c, 10, 8114
20, 595915, Pitch_bend_c, 10, 8122
20, 595916, Pitch_bend_c, 10, 8130
20, 595916, Pitch_bend_c, 10, 8137
20, 595917, Pitch_bend_c, 10, 8145
20, 595917, Pitch_bend_c, 10, 8153
20, 595918, Pitch_bend_c, 10, 8161
20, 595918, Pitch_bend_c, 10, 8169
20, 595919, Pitch_bend_c, 10, 8177
20, 595919, Pitch_bend_c, 10, 8185
20, 595920, Pitch_bend_c, 10, 8192
20, 595941, Note_on_c, 10, 51, 0
20, 598080, Pitch_bend_c, 10, 4416
20, 598080, Pitch_bend_c, 10, 4424
20, 598081, Pitch_bend_c, 10, 4432
20, 598081, Pitch_bend_c, 10, 4440
20, 598082, Pitch_bend_c, 10, 4448
20, 598082, Pitch_bend_c, 10, 4456
20, 598083, Pitch_bend_c, 10, 4464
20, 598083, Pitch_bend_c, 10, 4472
20, 598084, Pitch_bend_c, 10, 4479
20, 598084, Pitch_bend_c, 10, 4487
20, 598085, Pitch_bend_c, 10, 4495
20, 598085, Pitch_bend_c, 10, 4503
20, 598086, Pitch_bend_c, 10, 4511
20, 598086, Pitch_bend_c, 10, 4519
20, 598087, Pitch_bend_c, 10, 4527
20, 598087, Pitch_bend_c, 10, 4534
20, 598088, Pitch_bend_c, 10, 4542
20, 598088, Pitch_bend_c, 10, 4550
20, 598089, Pitch_bend_c, 10, 4558
20, 598089, Pitch_bend_c, 10, 4566
20, 598090, Pitch_bend_c, 10, 4574
20, 598090, Pitch_bend_c, 10, 4582
20, 598091, Pitch_bend_c, 10, 4590
20, 598091, Pitch_bend_c, 10, 4597
20, 598092, Pitch_bend_c, 10, 4605
20, 598092, Pitch_bend_c, 10, 4613
20, 598093, Pitch_bend_c, 10, 4621
20, 598093, Pitch_bend_c, 10, 4629
20, 598094, Pitch_bend_c, 10, 4637
20, 598094, Note_on_c, 10, 51, 82
20, 598094, Pitch_bend_c, 10, 4645
20, 598095, Pitch_bend_c, 10, 4652
20, 598095, Pitch_bend_c, 10, 4660
20, 598096, Pitch_bend_c, 10, 4668
20, 598096, Pitch_bend_c, 10, 4676
20, 598097, Pitch_bend_c, 10, 4684
20, 598097, Pitch_bend_c, 10, 4692
20, 598098, Pitch_bend_c, 10, 4700
20, 598098, Pitch_bend_c, 10, 4708
20, 598099, Pitch_bend_c, 10, 4715
20, 598099, Pitch_bend_c, 10, 4723
20, 598100, Pitch_bend_c, 10, 4731
20, 598100, Pitch_bend_c, 10, 4739
20, 598101, Pitch_bend_c, 10, 4747
20, 598101, Pitch_bend_c, 10, 4755
20, 598102, Pitch_bend_c, 10, 4763
20, 598102, Pitch_bend_c, 10, 4770
20, 598103, Pitch_bend_c, 10, 4778
20, 598103, Pitch_bend_c, 10, 4786
20, 598104, Pitch_bend_c, 10, 4794
20, 598104, Pitch_bend_c, 10, 4802
20, 598105, Pitch_bend_c, 10, 4810
20, 598105, Pitch_bend_c, 10, 4818
20, 598106, Pitch_bend_c, 10, 4826
20, 598106, Pitch_bend_c, 10, 4833
20, 598107, Pitch_bend_c, 10, 4841
20, 598107, Pitch_bend_c, 10, 4849
20, 598108, Pitch_bend_c, 10, 4857
20, 598108, Pitch_bend_c, 10, 4865
20, 598109, Pitch_bend_c, 10, 4873
20, 598109, Pitch_bend_c, 10, 4881
20, 598110, Pitch_bend_c, 10, 4888
20, 598110, Pitch_bend_c, 10, 4896
20, 598111, Pitch_bend_c, 10, 4904
20, 598111, Pitch_bend_c, 10, 4912
20, 598112, Pitch_bend_c, 10, 4920
20, 598112, Pitch_bend_c, 10, 4928
20, 598113, Pitch_bend_c, 10, 4936
20, 598113, Pitch_bend_c, 10, 4944
20, 598114, Pitch_bend_c, 10, 4951
20, 598114, Pitch_bend_c, 10, 4959
20, 598115, Pitch_bend_c, 10, 4967
20, 598115, Pitch_bend_c, 10, 4975
20, 598116, Pitch_bend_c, 10, 4983
20, 598116, Pitch_bend_c, 10, 4991
20, 598117, Pitch_bend_c, 10, 4999
20, 598117, Pitch_bend_c, 10, 5006
20, 598118, Pitch_bend_c, 10, 5014
20, 598118, Pitch_bend_c, 10, 5022
20, 598119, Pitch_bend_c, 10, 5030
20, 598119, Pitch_bend_c, 10, 5038
20, 598120, Pitch_bend_c, 10, 5046
20, 598120, Pitch_bend_c, 10, 5054
20, 598121, Pitch_bend_c, 10, 5062
20, 598121, Pitch_bend_c, 10, 5069
20, 598122, Pitch_bend_c, 10, 5077
20, 598122, Pitch_bend_c, 10, 5085
20, 598123, Pitch_bend_c, 10, 5093
20, 598123, Pitch_bend_c, 10, 5101
20, 598124, Pitch_bend_c, 10, 5109
20, 598124, Pitch_bend_c, 10, 5117
20, 598125, Pitch_bend_c, 10, 5124
20, 598125, Pitch_bend_c, 10, 5132
20, 598126, Pitch_bend_c, 10, 5140
20, 598126, Pitch_bend_c, 10, 5148
20, 598127, Pitch_bend_c, 10, 5156
20, 598127, Pitch_bend_c, 10, 5164
20, 598128, Pitch_bend_c, 10, 5172
20, 598128, Pitch_bend_c, 10, 5180
20, 598129, Pitch_bend_c, 10, 5187
20, 598129, Pitch_bend_c, 10, 5195
20, 598130, Pitch_bend_c, 10, 5203
20, 598130, Pitch_bend_c, 10, 5211
20, 598131, Pitch_bend_c, 10, 5219
20, 598131, Pitch_bend_c, 10, 5227
20, 598132, Pitch_bend_c, 10, 5235
20, 598132, Pitch_bend_c, 10, 5242
20, 598133, Pitch_bend_c, 10, 5250
20, 598133, Pitch_bend_c, 10, 5258
20, 598134, Pitch_bend_c, 10, 5266
20, 598134, Pitch_bend_c, 10, 5274
20, 598135, Pitch_bend_c, 10, 5282
20, 598135, Pitch_bend_c, 10, 5290
20, 598136, Pitch_bend_c, 10, 5298
20, 598136, Pitch_bend_c, 10, 5305
20, 598137, Pitch_bend_c, 10, 5313
20, 598137, Pitch_bend_c, 10, 5321
20, 598138, Pitch_bend_c, 10, 5329
20, 598138, Pitch_bend_c, 10, 5337
20, 598139, Pitch_bend_c, 10, 5345
20, 598139, Pitch_bend_c, 10, 5353
20, 598140, Pitch_bend_c, 10, 5360
20, 598140, Pitch_bend_c, 10, 5368
20, 598141, Pitch_bend_c, 10, 5376
20, 598141, Pitch_bend_c, 10, 5384
20, 598142, Pitch_bend_c, 10, 5392
20, 598142, Pitch_bend_c, 10, 5400
20, 598143, Pitch_bend_c, 10, 5408
20, 598143, Pitch_bend_c, 10, 5416
20, 598144, Pitch_bend_c, 10, 5423
20, 598144, Pitch_bend_c, 10, 5431
20, 598145, Pitch_bend_c, 10, 5439
20, 598145, Pitch_bend_c, 10, 5447
20, 598146, Pitch_bend_c, 10, 5455
20, 598146, Pitch_bend_c, 10, 5463
20, 598147, Pitch_bend_c, 10, 5471
20, 598147, Pitch_bend_c, 10, 5478
20, 598148, Pitch_bend_c, 10, 5486
20, 598148, Pitch_bend_c, 10, 5494
20, 598149, Pitch_bend_c, 10, 5502
20, 598149, Pitch_bend_c, 10, 5510
20, 598150, Pitch_bend_c, 10, 5518
20, 598150, Pitch_bend_c, 10, 5526
20, 598151, Pitch_bend_c, 10, 5534
20, 598151, Pitch_bend_c, 10, 5541
20, 598152, Pitch_bend_c, 10, 5549
20, 598152, Pitch_bend_c, 10, 5557
20, 598153, Pitch_bend_c, 10, 5565
20, 598153, Pitch_bend_c, 10, 5573
20, 598154, Pitch_bend_c, 10, 5581
20, 598154, Pitch_bend_c, 10, 5589
20, 598155, Pitch_bend_c, 10, 5596
20, 598155, Pitch_bend_c, 10, 5604
20, 598156, Pitch_bend_c, 10, 5612
20, 598156, Pitch_bend_c, 10, 5620
20, 598157, Pitch_bend_c, 10, 5628
20, 598157, Pitch_bend_c, 10, 5636
20, 598158, Pitch_bend_c, 10, 5644
20, 598158, Pitch_bend_c, 10, 5652
20, 598159, Pitch_bend_c, 10, 5659
20, 598159, Pitch_bend_c, 10, 5667
20, 598160, Pitch_bend_c, 10, 5675
20, 598160, Pitch_bend_c, 10, 5683
20, 598161, Pitch_bend_c, 10, 5691
20, 598161, Pitch_bend_c, 10, 5699
20, 598162, Pitch_bend_c, 10, 5707
20, 598162, Pitch_bend_c, 10, 5714
20, 598163, Pitch_bend_c, 10, 5722
20, 598163, Pitch_bend_c, 10, 5730
20, 598164, Pitch_bend_c, 10, 5738
20, 598164, Pitch_bend_c, 10, 5746
20, 598165, Pitch_bend_c, 10, 5754
20, 598165, Pitch_bend_c, 10, 5762
20, 598166, Pitch_bend_c, 10, 5770
20, 598166, Pitch_bend_c, 10, 5777
20, 598167, Pitch_bend_c, 10, 5785
20, 598167, Pitch_bend_c, 10, 5793
20, 598168, Pitch_bend_c, 10, 5801
20, 598168, Pitch_bend_c, 10, 5809
20, 598169, Pitch_bend_c, 10, 5817
20, 598169, Pitch_bend_c, 10, 5825
20, 598170, Pitch_bend_c, 10, 5832
20, 598170, Pitch_bend_c, 10, 5840
20, 598171, Pitch_bend_c, 10, 5848
20, 598171, Pitch_bend_c, 10, 5856
20, 598172, Pitch_bend_c, 10, 5864
20, 598172, Pitch_bend_c, 10, 5872
20, 598173, Pitch_bend_c, 10, 5880
20, 598173, Pitch_bend_c, 10, 5888
20, 598174, Pitch_bend_c, 10, 5895
20, 598174, Pitch_bend_c, 10, 5903
20, 598175, Pitch_bend_c, 10, 5911
20, 598175, Pitch_bend_c, 10, 5919
20, 598176, Pitch_bend_c, 10, 5927
20, 598176, Pitch_bend_c, 10, 5935
20, 598177, Pitch_bend_c, 10, 5943
20, 598177, Pitch_bend_c, 10, 5950
20, 598178, Pitch_bend_c, 10, 5958
20, 598178, Pitch_bend_c, 10, 5966
20, 598179, Pitch_bend_c, 10, 5974
20, 598179, Pitch_bend_c, 10, 5982
20, 598180, Pitch_bend_c, 10, 5990
20, 598180, Pitch_bend_c, 10, 5998
20, 598181, Pitch_bend_c, 10, 6006
20, 598181, Pitch_bend_c, 10, 6013
20, 598182, Pitch_bend_c, 10, 6021
20, 598182, Pitch_bend_c, 10, 6029
20, 598183, Pitch_bend_c, 10, 6037
20, 598183, Pitch_bend_c, 10, 6045
20, 598184, Pitch_bend_c, 10, 6053
20, 598184, Pitch_bend_c, 10, 6061
20, 598185, Pitch_bend_c, 10, 6068
20, 598185, Pitch_bend_c, 10, 6076
20, 598186, Pitch_bend_c, 10, 6084
20, 598186, Pitch_bend_c, 10, 6092
20, 598187, Pitch_bend_c, 10, 6100
20, 598187, Pitch_bend_c, 10, 6108
20, 598188, Pitch_bend_c, 10, 6116
20, 598188, Pitch_bend_c, 10, 6124
20, 598189, Pitch_bend_c, 10, 6131
20, 598189, Pitch_bend_c, 10, 6139
20, 598190, Pitch_bend_c, 10, 6147
20, 598190, Pitch_bend_c, 10, 6155
20, 598191, Pitch_bend_c, 10, 6163
20, 598191, Pitch_bend_c, 10, 6171
20, 598192, Pitch_bend_c, 10, 6179
20, 598192, Pitch_bend_c, 10, 6186
20, 598193, Pitch_bend_c, 10, 6194
20, 598193, Pitch_bend_c, 10, 6202
20, 598194, Pitch_bend_c, 10, 6210
20, 598194, Pitch_bend_c, 10, 6218
20, 598195, Pitch_bend_c, 10, 6226
20, 598195, Pitch_bend_c, 10, 6234
20, 598196, Pitch_bend_c, 10, 6242
20, 598196, Pitch_bend_c, 10, 6249
20, 598197, Pitch_bend_c, 10, 6257
20, 598197, Pitch_bend_c, 10, 6265
20, 598198, Pitch_bend_c, 10, 6273
20, 598198, Pitch_bend_c, 10, 6281
20, 598199, Pitch_bend_c, 10, 6289
20, 598199, Pitch_bend_c, 10, 6297
20, 598200, Pitch_bend_c, 10, 6304
20, 598200, Pitch_bend_c, 10, 6312
20, 598201, Pitch_bend_c, 10, 6320
20, 598201, Pitch_bend_c, 10, 6328
20, 598202, Pitch_bend_c, 10, 6336
20, 598202, Pitch_bend_c, 10, 6344
20, 598203, Pitch_bend_c, 10, 6352
20, 598203, Pitch_bend_c, 10, 6360
20, 598204, Pitch_bend_c, 10, 6367
20, 598204, Pitch_bend_c, 10, 6375
20, 598205, Pitch_bend_c, 10, 6383
20, 598205, Pitch_bend_c, 10, 6391
20, 598206, Pitch_bend_c, 10, 6399
20, 598206, Pitch_bend_c, 10, 6407
20, 598207, Pitch_bend_c, 10, 6415
20, 598207, Pitch_bend_c, 10, 6422
20, 598208, Pitch_bend_c, 10, 6430
20, 598208, Pitch_bend_c, 10, 6438
20, 598209, Pitch_bend_c, 10, 6446
20, 598209, Pitch_bend_c, 10, 6454
20, 598210, Pitch_bend_c, 10, 6462
20, 598210, Pitch_bend_c, 10, 6470
20, 598211, Pitch_bend_c, 10, 6478
20, 598211, Pitch_bend_c, 10, 6485
20, 598212, Pitch_bend_c, 10, 6493
20, 598212, Pitch_bend_c, 10, 6501
20, 598213, Pitch_bend_c, 10, 6509
20, 598213, Pitch_bend_c, 10, 6517
20, 598214, Pitch_bend_c, 10, 6525
20, 598214, Pitch_bend_c, 10, 6533
20, 598215, Pitch_bend_c, 10, 6540
20, 598215, Pitch_bend_c, 10, 6548
20, 598216, Pitch_bend_c, 10, 6556
20, 598216, Pitch_bend_c, 10, 6564
20, 598217, Pitch_bend_c, 10, 6572
20, 598217, Pitch_bend_c, 10, 6580
20, 598218, Pitch_bend_c, 10, 6588
20, 598218, Pitch_bend_c, 10, 6596
20, 598219, Pitch_bend_c, 10, 6603
20, 598219, Pitch_bend_c, 10, 6611
20, 598220, Pitch_bend_c, 10, 6619
20, 598220, Pitch_bend_c, 10, 6627
20, 598221, Pitch_bend_c, 10, 6635
20, 598221, Pitch_bend_c, 10, 6643
20, 598222, Pitch_bend_c, 10, 6651
20, 598222, Pitch_bend_c, 10, 6658
20, 598223, Pitch_bend_c, 10, 6666
20, 598223, Pitch_bend_c, 10, 6674
20, 598224, Pitch_bend_c, 10, 6682
20, 598224, Pitch_bend_c, 10, 6690
20, 598225, Pitch_bend_c, 10, 6698
20, 598225, Pitch_bend_c, 10, 6706
20, 598226, Pitch_bend_c, 10, 6714
20, 598226, Pitch_bend_c, 10, 6721
20, 598227, Pitch_bend_c, 10, 6729
20, 598227, Pitch_bend_c, 10, 6737
20, 598228, Pitch_bend_c, 10, 6745
20, 598228, Pitch_bend_c, 10, 6753
20, 598229, Pitch_bend_c, 10, 6761
20, 598229, Pitch_bend_c, 10, 6769
20, 598230, Pitch_bend_c, 10, 6776
20, 598230, Pitch_bend_c, 10, 6784
20, 598231, Pitch_bend_c, 10, 6792
20, 598231, Pitch_bend_c, 10, 6800
20, 598232, Pitch_bend_c, 10, 6808
20, 598232, Pitch_bend_c, 10, 6816
20, 598233, Pitch_bend_c, 10, 6824
20, 598233, Pitch_bend_c, 10, 6832
20, 598234, Pitch_bend_c, 10, 6839
20, 598234, Pitch_bend_c, 10, 6847
20, 598235, Pitch_bend_c, 10, 6855
20, 598235, Pitch_bend_c, 10, 6863
20, 598236, Pitch_bend_c, 10, 6871
20, 598236, Pitch_bend_c, 10, 6879
20, 598237, Pitch_bend_c, 10, 6887
20, 598237, Pitch_bend_c, 10, 6894
20, 598238, Pitch_bend_c, 10, 6902
20, 598238, Pitch_bend_c, 10, 6910
20, 598239, Pitch_bend_c, 10, 6918
20, 598239, Pitch_bend_c, 10, 6926
20, 598240, Pitch_bend_c, 10, 6934
20, 598240, Pitch_bend_c, 10, 6942
20, 598241, Pitch_bend_c, 10, 6950
20, 598241, Pitch_bend_c, 10, 6957
20, 598242, Pitch_bend_c, 10, 6965
20, 598242, Pitch_bend_c, 10, 6973
20, 598243, Pitch_bend_c, 10, 6981
20, 598243, Pitch_bend_c, 10, 6989
20, 598244, Pitch_bend_c, 10, 6997
20, 598244, Pitch_bend_c, 10, 7005
20, 598245, Pitch_bend_c, 10, 7012
20, 598245, Pitch_bend_c, 10, 7020
20, 598246, Pitch_bend_c, 10, 7028
20, 598246, Pitch_bend_c, 10, 7036
20, 598247, Pitch_bend_c, 10, 7044
20, 598247, Pitch_bend_c, 10, 7052
20, 598248, Pitch_bend_c, 10, 7060
20, 598248, Pitch_bend_c, 10, 7068
20, 598249, Pitch_bend_c, 10, 7075
20, 598249, Pitch_bend_c, 10, 7083
20, 598250, Pitch_bend_c, 10, 7091
20, 598250, Pitch_bend_c, 10, 7099
20, 598251, Pitch_bend_c, 10, 7107
20, 598251, Pitch_bend_c, 10, 7115
20, 598252, Pitch_bend_c, 10, 7123
20, 598252, Pitch_bend_c, 10, 7130
20, 598253, Pitch_bend_c, 10, 7138
20, 598253, Pitch_bend_c, 10, 7146
20, 598254, Pitch_bend_c, 10, 7154
20, 598254, Pitch_bend_c, 10, 7162
20, 598255, Pitch_bend_c, 10, 7170
20, 598255, Pitch_bend_c, 10, 7178
20, 598256, Pitch_bend_c, 10, 7186
20, 598256, Pitch_bend_c, 10, 7193
20, 598257, Pitch_bend_c, 10, 7201
20, 598257, Pitch_bend_c, 10, 7209
20, 598258, Pitch_bend_c, 10, 7217
20, 598258, Pitch_bend_c, 10, 7225
20, 598259, Pitch_bend_c, 10, 7233
20, 598259, Pitch_bend_c, 10, 7241
20, 598260, Pitch_bend_c, 10, 7248
20, 598260, Pitch_bend_c, 10, 7256
20, 598261, Pitch_bend_c, 10, 7264
20, 598261, Pitch_bend_c, 10, 7272
20, 598262, Pitch_bend_c, 10, 7280
20, 598262, Pitch_bend_c, 10, 7288
20, 598263, Pitch_bend_c, 10, 7296
20, 598263, Pitch_bend_c, 10, 7304
20, 598264, Pitch_bend_c, 10, 7311
20, 598264, Pitch_bend_c, 10, 7319
20, 598265, Pitch_bend_c, 10, 7327
20, 598265, Pitch_bend_c, 10, 7335
20, 598266, Pitch_bend_c, 10, 7343
20, 598266, Pitch_bend_c, 10, 7351
20, 598267, Pitch_bend_c, 10, 7359
20, 598267, Pitch_bend_c, 10, 7366
20, 598268, Pitch_bend_c, 10, 7374
20, 598268, Pitch_bend_c, 10, 7382
20, 598269, Pitch_bend_c, 10, 7390
20, 598269, Pitch_bend_c, 10, 7398
20, 598270, Pitch_bend_c, 10, 7406
20, 598270, Pitch_bend_c, 10, 7414
20, 598271, Pitch_bend_c, 10, 7422
20, 598271, Pitch_bend_c, 10, 7429
20, 598272, Pitch_bend_c, 10, 7437
20, 598272, Pitch_bend_c, 10, 7445
20, 598273, Pitch_bend_c, 10, 7453
20, 598273, Pitch_bend_c, 10, 7461
20, 598274, Pitch_bend_c, 10, 7469
20, 598274, Pitch_bend_c, 10, 7477
20, 598275, Pitch_bend_c, 10, 7484
20, 598275, Pitch_bend_c, 10, 7492
20, 598276, Pitch_bend_c, 10, 7500
20, 598276, Pitch_bend_c, 10, 7508
20, 598277, Pitch_bend_c, 10, 7516
20, 598277, Pitch_bend_c, 10, 7524
20, 598278, Pitch_bend_c, 10, 7532
20, 598278, Pitch_bend_c, 10, 7540
20, 598279, Pitch_bend_c, 10, 7547
20, 598279, Pitch_bend_c, 10, 7555
20, 598280, Pitch_bend_c, 10, 7563
20, 598280, Pitch_bend_c, 10, 7571
20, 598281, Pitch_bend_c, 10, 7579
20, 598281, Pitch_bend_c, 10, 7587
20, 598282, Pitch_bend_c, 10, 7595
20, 598282, Pitch_bend_c, 10, 7602
20, 598283, Pitch_bend_c, 10, 7610
20, 598283, Pitch_bend_c, 10, 7618
20, 598284, Pitch_bend_c, 10, 7626
20, 598284, Pitch_bend_c, 10, 7634
20, 598285, Pitch_bend_c, 10, 7642
20, 598285, Pitch_bend_c, 10, 7650
20, 598286, Pitch_bend_c, 10, 7658
20, 598286, Pitch_bend_c, 10, 7665
20, 598287, Pitch_bend_c, 10, 7673
20, 598287, Pitch_bend_c, 10, 7681
20, 598288, Pitch_bend_c, 10, 7689
20, 598288, Pitch_bend_c, 10, 7697
20, 598289, Pitch_bend_c, 10, 7705
20, 598289, Pitch_bend_c, 10, 7713
20, 598290, Pitch_bend_c, 10, 7720
20, 598290, Pitch_bend_c, 10, 7728
20, 598291, Pitch_bend_c, 10, 7736
20, 598291, Pitch_bend_c, 10, 7744
20, 598292, Pitch_bend_c, 10, 7752
20, 598292, Pitch_bend_c, 10, 7760
20, 598293, Pitch_bend_c, 10, 7768
20, 598293, Pitch_bend_c, 10, 7776
20, 598294, Pitch_bend_c, 10, 7783
20, 598294, Pitch_bend_c, 10, 7791
20, 598295, Pitch_bend_c, 10, 7799
20, 598295, Pitch_bend_c, 10, 7807
20, 598296, Pitch_bend_c, 10, 7815
20, 598296, Pitch_bend_c, 10, 7823
20, 598297, Pitch_bend_c, 10, 7831
20, 598297, Pitch_bend_c, 10, 7838
20, 598298, Pitch_bend_c, 10, 7846
20, 598298, Pitch_bend_c, 10, 7854
20, 598299, Pitch_bend_c, 10, 7862
20, 598299, Pitch_bend_c, 10, 7870
20, 598300, Pitch_bend_c, 10, 7878
20, 598300, Pitch_bend_c, 10, 7886
20, 598301, Pitch_bend_c, 10, 7894
20, 598301, Pitch_bend_c, 10, 7901
20, 598302, Pitch_bend_c, 10, 7909
20, 598302, Pitch_bend_c, 10, 7917
20, 598303, Pitch_bend_c, 10, 7925
20, 598303, Pitch_bend_c, 10, 7933
20, 598304, Pitch_bend_c, 10, 7941
20, 598304, Pitch_bend_c, 10, 7949
20, 598305, Pitch_bend_c, 10, 7956
20, 598305, Pitch_bend_c, 10, 7964
20, 598306, Pitch_bend_c, 10, 7972
20, 598306, Pitch_bend_c, 10, 7980
20, 598307, Pitch_bend_c, 10, 7988
20, 598307, Pitch_bend_c, 10, 7996
20, 598308, Pitch_bend_c, 10, 8004
20, 598308, Pitch_bend_c, 10, 8012
20, 598309, Pitch_bend_c, 10, 8019
20, 598309, Pitch_bend_c, 10, 8027
20, 598310, Pitch_bend_c, 10, 8035
20, 598310, Pitch_bend_c, 10, 8043
20, 598311, Pitch_bend_c, 10, 8051
20, 598311, Pitch_bend_c, 10, 8059
20, 598312, Pitch_bend_c, 10, 8067
20, 598312, Pitch_bend_c, 10, 8074
20, 598313, Pitch_bend_c, 10, 8082
20, 598313, Pitch_bend_c, 10, 8090
20, 598314, Pitch_bend_c, 10, 8098
20, 598314, Pitch_bend_c, 10, 8106
20, 598315, Pitch_bend_c, 10, 8114
20, 598315, Pitch_bend_c, 10, 8122
20, 598316, Pitch_bend_c, 10, 8130
20, 598316, Pitch_bend_c, 10, 8137
20, 598317, Pitch_bend_c, 10, 8145
20, 598317, Pitch_bend_c, 10, 8153
20, 598318, Pitch_bend_c, 10, 8161
20, 598318, Pitch_bend_c, 10, 8169
20, 598319, Pitch_bend_c, 10, 8177
20, 598319, Pitch_bend_c, 10, 8185
20, 598320, Pitch_bend_c, 10, 8192
20, 598334, Note_on_c, 10, 51, 0
20, 600480, Pitch_bend_c, 10, 4416
20, 600480, Pitch_bend_c, 10, 4424
20, 600481, Pitch_bend_c, 10, 4432
20, 600481, Pitch_bend_c, 10, 4440
20, 600482, Pitch_bend_c, 10, 4448
20, 600482, Pitch_bend_c, 10, 4456
20, 600483, Pitch_bend_c, 10, 4464
20, 600483, Pitch_bend_c, 10, 4472
20, 600484, Pitch_bend_c, 10, 4479
20, 600484, Note_on_c, 10, 51, 79
20, 600484, Pitch_bend_c, 10, 4487
20, 600485, Pitch_bend_c, 10, 4495
20, 600485, Pitch_bend_c, 10, 4503
20, 600486, Pitch_bend_c, 10, 4511
20, 600486, Pitch_bend_c, 10, 4519
20, 600487, Pitch_bend_c, 10, 4527
20, 600487, Pitch_bend_c, 10, 4534
20, 600488, Pitch_bend_c, 10, 4542
20, 600488, Pitch_bend_c, 10, 4550
20, 600489, Pitch_bend_c, 10, 4558
20, 600489, Pitch_bend_c, 10, 4566
20, 600490, Pitch_bend_c, 10, 4574
20, 600490, Pitch_bend_c, 10, 4582
20, 600491, Pitch_bend_c, 10, 4590
20, 600491, Pitch_bend_c, 10, 4597
20, 600492, Pitch_bend_c, 10, 4605
20, 600492, Pitch_bend_c, 10, 4613
20, 600493, Pitch_bend_c, 10, 4621
20, 600493, Pitch_bend_c, 10, 4629
20, 600494, Pitch_bend_c, 10, 4637
20, 600494, Pitch_bend_c, 10, 4645
20, 600495, Pitch_bend_c, 10, 4652
20, 600495, Pitch_bend_c, 10, 4660
20, 600496, Pitch_bend_c, 10, 4668
20, 600496, Pitch_bend_c, 10, 4676
20, 600497, Pitch_bend_c, 10, 4684
20, 600497, Pitch_bend_c, 10, 4692
20, 600498, Pitch_bend_c, 10, 4700
20, 600498, Pitch_bend_c, 10, 4708
20, 600499, Pitch_bend_c, 10, 4715
20, 600499, Pitch_bend_c, 10, 4723
20, 600500, Pitch_bend_c, 10, 4731
20, 600500, Pitch_bend_c, 10, 4739
20, 600501, Pitch_bend_c, 10, 4747
20, 600501, Pitch_bend_c, 10, 4755
20, 600502, Pitch_bend_c, 10, 4763
20, 600502, Pitch_bend_c, 10, 4770
20, 600503, Pitch_bend_c, 10, 4778
20, 600503, Pitch_bend_c, 10, 4786
20, 600504, Pitch_bend_c, 10, 4794
20, 600504, Pitch_bend_c, 10, 4802
20, 600505, Pitch_bend_c, 10, 4810
20, 600505, Pitch_bend_c, 10, 4818
20, 600506, Pitch_bend_c, 10, 4826
20, 600506, Pitch_bend_c, 10, 4833
20, 600507, Pitch_bend_c, 10, 4841
20, 600507, Pitch_bend_c, 10, 4849
20, 600508, Pitch_bend_c, 10, 4857
20, 600508, Pitch_bend_c, 10, 4865
20, 600509, Pitch_bend_c, 10, 4873
20, 600509, Pitch_bend_c, 10, 4881
20, 600510, Pitch_bend_c, 10, 4888
20, 600510, Pitch_bend_c, 10, 4896
20, 600511, Pitch_bend_c, 10, 4904
20, 600511, Pitch_bend_c, 10, 4912
20, 600512, Pitch_bend_c, 10, 4920
20, 600512, Pitch_bend_c, 10, 4928
20, 600513, Pitch_bend_c, 10, 4936
20, 600513, Pitch_bend_c, 10, 4944
20, 600514, Pitch_bend_c, 10, 4951
20, 600514, Pitch_bend_c, 10, 4959
20, 600515, Pitch_bend_c, 10, 4967
20, 600515, Pitch_bend_c, 10, 4975
20, 600516, Pitch_bend_c, 10, 4983
20, 600516, Pitch_bend_c, 10, 4991
20, 600517, Pitch_bend_c, 10, 4999
20, 600517, Pitch_bend_c, 10, 5006
20, 600518, Pitch_bend_c, 10, 5014
20, 600518, Pitch_bend_c, 10, 5022
20, 600519, Pitch_bend_c, 10, 5030
20, 600519, Pitch_bend_c, 10, 5038
20, 600520, Pitch_bend_c, 10, 5046
20, 600520, Pitch_bend_c, 10, 5054
20, 600521, Pitch_bend_c, 10, 5062
20, 600521, Pitch_bend_c, 10, 5069
20, 600522, Pitch_bend_c, 10, 5077
20, 600522, Pitch_bend_c, 10, 5085
20, 600523, Pitch_bend_c, 10, 5093
20, 600523, Pitch_bend_c, 10, 5101
20, 600524, Pitch_bend_c, 10, 5109
20, 600524, Pitch_bend_c, 10, 5117
20, 600525, Pitch_bend_c, 10, 5124
20, 600525, Pitch_bend_c, 10, 5132
20, 600526, Pitch_bend_c, 10, 5140
20, 600526, Pitch_bend_c, 10, 5148
20, 600527, Pitch_bend_c, 10, 5156
20, 600527, Pitch_bend_c, 10, 5164
20, 600528, Pitch_bend_c, 10, 5172
20, 600528, Pitch_bend_c, 10, 5180
20, 600529, Pitch_bend_c, 10, 5187
20, 600529, Pitch_bend_c, 10, 5195
20, 600530, Pitch_bend_c, 10, 5203
20, 600530, Pitch_bend_c, 10, 5211
20, 600531, Pitch_bend_c, 10, 5219
20, 600531, Pitch_bend_c, 10, 5227
20, 600532, Pitch_bend_c, 10, 5235
20, 600532, Pitch_bend_c, 10, 5242
20, 600533, Pitch_bend_c, 10, 5250
20, 600533, Pitch_bend_c, 10, 5258
20, 600534, Pitch_bend_c, 10, 5266
20, 600534, Pitch_bend_c, 10, 5274
20, 600535, Pitch_bend_c, 10, 5282
20, 600535, Pitch_bend_c, 10, 5290
20, 600536, Pitch_bend_c, 10, 5298
20, 600536, Pitch_bend_c, 10, 5305
20, 600537, Pitch_bend_c, 10, 5313
20, 600537, Pitch_bend_c, 10, 5321
20, 600538, Pitch_bend_c, 10, 5329
20, 600538, Pitch_bend_c, 10, 5337
20, 600539, Pitch_bend_c, 10, 5345
20, 600539, Pitch_bend_c, 10, 5353
20, 600540, Pitch_bend_c, 10, 5360
20, 600540, Pitch_bend_c, 10, 5368
20, 600541, Pitch_bend_c, 10, 5376
20, 600541, Pitch_bend_c, 10, 5384
20, 600542, Pitch_bend_c, 10, 5392
20, 600542, Pitch_bend_c, 10, 5400
20, 600543, Pitch_bend_c, 10, 5408
20, 600543, Pitch_bend_c, 10, 5416
20, 600544, Pitch_bend_c, 10, 5423
20, 600544, Pitch_bend_c, 10, 5431
20, 600545, Pitch_bend_c, 10, 5439
20, 600545, Pitch_bend_c, 10, 5447
20, 600546, Pitch_bend_c, 10, 5455
20, 600546, Pitch_bend_c, 10, 5463
20, 600547, Pitch_bend_c, 10, 5471
20, 600547, Pitch_bend_c, 10, 5478
20, 600548, Pitch_bend_c, 10, 5486
20, 600548, Pitch_bend_c, 10, 5494
20, 600549, Pitch_bend_c, 10, 5502
20, 600549, Pitch_bend_c, 10, 5510
20, 600550, Pitch_bend_c, 10, 5518
20, 600550, Pitch_bend_c, 10, 5526
20, 600551, Pitch_bend_c, 10, 5534
20, 600551, Pitch_bend_c, 10, 5541
20, 600552, Pitch_bend_c, 10, 5549
20, 600552, Pitch_bend_c, 10, 5557
20, 600553, Pitch_bend_c, 10, 5565
20, 600553, Pitch_bend_c, 10, 5573
20, 600554, Pitch_bend_c, 10, 5581
20, 600554, Pitch_bend_c, 10, 5589
20, 600555, Pitch_bend_c, 10, 5596
20, 600555, Pitch_bend_c, 10, 5604
20, 600556, Pitch_bend_c, 10, 5612
20, 600556, Pitch_bend_c, 10, 5620
20, 600557, Pitch_bend_c, 10, 5628
20, 600557, Pitch_bend_c, 10, 5636
20, 600558, Pitch_bend_c, 10, 5644
20, 600558, Pitch_bend_c, 10, 5652
20, 600559, Pitch_bend_c, 10, 5659
20, 600559, Pitch_bend_c, 10, 5667
20, 600560, Pitch_bend_c, 10, 5675
20, 600560, Pitch_bend_c, 10, 5683
20, 600561, Pitch_bend_c, 10, 5691
20, 600561, Pitch_bend_c, 10, 5699
20, 600562, Pitch_bend_c, 10, 5707
20, 600562, Pitch_bend_c, 10, 5714
20, 600563, Pitch_bend_c, 10, 5722
20, 600563, Pitch_bend_c, 10, 5730
20, 600564, Pitch_bend_c, 10, 5738
20, 600564, Pitch_bend_c, 10, 5746
20, 600565, Pitch_bend_c, 10, 5754
20, 600565, Pitch_bend_c, 10, 5762
20, 600566, Pitch_bend_c, 10, 5770
20, 600566, Pitch_bend_c, 10, 5777
20, 600567, Pitch_bend_c, 10, 5785
20, 600567, Pitch_bend_c, 10, 5793
20, 600568, Pitch_bend_c, 10, 5801
20, 600568, Pitch_bend_c, 10, 5809
20, 600569, Pitch_bend_c, 10, 5817
20, 600569, Pitch_bend_c, 10, 5825
20, 600570, Pitch_bend_c, 10, 5832
20, 600570, Pitch_bend_c, 10, 5840
20, 600571, Pitch_bend_c, 10, 5848
20, 600571, Pitch_bend_c, 10, 5856
20, 600572, Pitch_bend_c, 10, 5864
20, 600572, Pitch_bend_c, 10, 5872
20, 600573, Pitch_bend_c, 10, 5880
20, 600573, Pitch_bend_c, 10, 5888
20, 600574, Pitch_bend_c, 10, 5895
20, 600574, Pitch_bend_c, 10, 5903
20, 600575, Pitch_bend_c, 10, 5911
20, 600575, Pitch_bend_c, 10, 5919
20, 600576, Pitch_bend_c, 10, 5927
20, 600576, Pitch_bend_c, 10, 5935
20, 600577, Pitch_bend_c, 10, 5943
20, 600577, Pitch_bend_c, 10, 5950
20, 600578, Pitch_bend_c, 10, 5958
20, 600578, Pitch_bend_c, 10, 5966
20, 600579, Pitch_bend_c, 10, 5974
20, 600579, Pitch_bend_c, 10, 5982
20, 600580, Pitch_bend_c, 10, 5990
20, 600580, Pitch_bend_c, 10, 5998
20, 600581, Pitch_bend_c, 10, 6006
20, 600581, Pitch_bend_c, 10, 6013
20, 600582, Pitch_bend_c, 10, 6021
20, 600582, Pitch_bend_c, 10, 6029
20, 600583, Pitch_bend_c, 10, 6037
20, 600583, Pitch_bend_c, 10, 6045
20, 600584, Pitch_bend_c, 10, 6053
20, 600584, Pitch_bend_c, 10, 6061
20, 600585, Pitch_bend_c, 10, 6068
20, 600585, Pitch_bend_c, 10, 6076
20, 600586, Pitch_bend_c, 10, 6084
20, 600586, Pitch_bend_c, 10, 6092
20, 600587, Pitch_bend_c, 10, 6100
20, 600587, Pitch_bend_c, 10, 6108
20, 600588, Pitch_bend_c, 10, 6116
20, 600588, Pitch_bend_c, 10, 6124
20, 600589, Pitch_bend_c, 10, 6131
20, 600589, Pitch_bend_c, 10, 6139
20, 600590, Pitch_bend_c, 10, 6147
20, 600590, Pitch_bend_c, 10, 6155
20, 600591, Pitch_bend_c, 10, 6163
20, 600591, Pitch_bend_c, 10, 6171
20, 600592, Pitch_bend_c, 10, 6179
20, 600592, Pitch_bend_c, 10, 6186
20, 600593, Pitch_bend_c, 10, 6194
20, 600593, Pitch_bend_c, 10, 6202
20, 600594, Pitch_bend_c, 10, 6210
20, 600594, Pitch_bend_c, 10, 6218
20, 600595, Pitch_bend_c, 10, 6226
20, 600595, Pitch_bend_c, 10, 6234
20, 600596, Pitch_bend_c, 10, 6242
20, 600596, Pitch_bend_c, 10, 6249
20, 600597, Pitch_bend_c, 10, 6257
20, 600597, Pitch_bend_c, 10, 6265
20, 600598, Pitch_bend_c, 10, 6273
20, 600598, Pitch_bend_c, 10, 6281
20, 600599, Pitch_bend_c, 10, 6289
20, 600599, Pitch_bend_c, 10, 6297
20, 600600, Pitch_bend_c, 10, 6304
20, 600600, Pitch_bend_c, 10, 6312
20, 600601, Pitch_bend_c, 10, 6320
20, 600601, Pitch_bend_c, 10, 6328
20, 600602, Pitch_bend_c, 10, 6336
20, 600602, Pitch_bend_c, 10, 6344
20, 600603, Pitch_bend_c, 10, 6352
20, 600603, Pitch_bend_c, 10, 6360
20, 600604, Pitch_bend_c, 10, 6367
20, 600604, Pitch_bend_c, 10, 6375
20, 600605, Pitch_bend_c, 10, 6383
20, 600605, Pitch_bend_c, 10, 6391
20, 600606, Pitch_bend_c, 10, 6399
20, 600606, Pitch_bend_c, 10, 6407
20, 600607, Pitch_bend_c, 10, 6415
20, 600607, Pitch_bend_c, 10, 6422
20, 600608, Pitch_bend_c, 10, 6430
20, 600608, Pitch_bend_c, 10, 6438
20, 600609, Pitch_bend_c, 10, 6446
20, 600609, Pitch_bend_c, 10, 6454
20, 600610, Pitch_bend_c, 10, 6462
20, 600610, Pitch_bend_c, 10, 6470
20, 600611, Pitch_bend_c, 10, 6478
20, 600611, Pitch_bend_c, 10, 6485
20, 600612, Pitch_bend_c, 10, 6493
20, 600612, Pitch_bend_c, 10, 6501
20, 600613, Pitch_bend_c, 10, 6509
20, 600613, Pitch_bend_c, 10, 6517
20, 600614, Pitch_bend_c, 10, 6525
20, 600614, Pitch_bend_c, 10, 6533
20, 600615, Pitch_bend_c, 10, 6540
20, 600615, Pitch_bend_c, 10, 6548
20, 600616, Pitch_bend_c, 10, 6556
20, 600616, Pitch_bend_c, 10, 6564
20, 600617, Pitch_bend_c, 10, 6572
20, 600617, Pitch_bend_c, 10, 6580
20, 600618, Pitch_bend_c, 10, 6588
20, 600618, Pitch_bend_c, 10, 6596
20, 600619, Pitch_bend_c, 10, 6603
20, 600619, Pitch_bend_c, 10, 6611
20, 600620, Pitch_bend_c, 10, 6619
20, 600620, Pitch_bend_c, 10, 6627
20, 600621, Pitch_bend_c, 10, 6635
20, 600621, Pitch_bend_c, 10, 6643
20, 600622, Pitch_bend_c, 10, 6651
20, 600622, Pitch_bend_c, 10, 6658
20, 600623, Pitch_bend_c, 10, 6666
20, 600623, Pitch_bend_c, 10, 6674
20, 600624, Pitch_bend_c, 10, 6682
20, 600624, Pitch_bend_c, 10, 6690
20, 600625, Pitch_bend_c, 10, 6698
20, 600625, Pitch_bend_c, 10, 6706
20, 600626, Pitch_bend_c, 10, 6714
20, 600626, Pitch_bend_c, 10, 6721
20, 600627, Pitch_bend_c, 10, 6729
20, 600627, Pitch_bend_c, 10, 6737
20, 600628, Pitch_bend_c, 10, 6745
20, 600628, Pitch_bend_c, 10, 6753
20, 600629, Pitch_bend_c, 10, 6761
20, 600629, Pitch_bend_c, 10, 6769
20, 600630, Pitch_bend_c, 10, 6776
20, 600630, Pitch_bend_c, 10, 6784
20, 600631, Pitch_bend_c, 10, 6792
20, 600631, Pitch_bend_c, 10, 6800
20, 600632, Pitch_bend_c, 10, 6808
20, 600632, Pitch_bend_c, 10, 6816
20, 600633, Pitch_bend_c, 10, 6824
20, 600633, Pitch_bend_c, 10, 6832
20, 600634, Pitch_bend_c, 10, 6839
20, 600634, Pitch_bend_c, 10, 6847
20, 600635, Pitch_bend_c, 10, 6855
20, 600635, Pitch_bend_c, 10, 6863
20, 600636, Pitch_bend_c, 10, 6871
20, 600636, Pitch_bend_c, 10, 6879
20, 600637, Pitch_bend_c, 10, 6887
20, 600637, Pitch_bend_c, 10, 6894
20, 600638, Pitch_bend_c, 10, 6902
20, 600638, Pitch_bend_c, 10, 6910
20, 600639, Pitch_bend_c, 10, 6918
20, 600639, Pitch_bend_c, 10, 6926
20, 600640, Pitch_bend_c, 10, 6934
20, 600640, Pitch_bend_c, 10, 6942
20, 600641, Pitch_bend_c, 10, 6950
20, 600641, Pitch_bend_c, 10, 6957
20, 600642, Pitch_bend_c, 10, 6965
20, 600642, Pitch_bend_c, 10, 6973
20, 600643, Pitch_bend_c, 10, 6981
20, 600643, Pitch_bend_c, 10, 6989
20, 600644, Pitch_bend_c, 10, 6997
20, 600644, Pitch_bend_c, 10, 7005
20, 600645, Pitch_bend_c, 10, 7012
20, 600645, Pitch_bend_c, 10, 7020
20, 600646, Pitch_bend_c, 10, 7028
20, 600646, Pitch_bend_c, 10, 7036
20, 600647, Pitch_bend_c, 10, 7044
20, 600647, Pitch_bend_c, 10, 7052
20, 600648, Pitch_bend_c, 10, 7060
20, 600648, Pitch_bend_c, 10, 7068
20, 600649, Pitch_bend_c, 10, 7075
20, 600649, Pitch_bend_c, 10, 7083
20, 600650, Pitch_bend_c, 10, 7091
20, 600650, Pitch_bend_c, 10, 7099
20, 600651, Pitch_bend_c, 10, 7107
20, 600651, Pitch_bend_c, 10, 7115
20, 600652, Pitch_bend_c, 10, 7123
20, 600652, Pitch_bend_c, 10, 7130
20, 600653, Pitch_bend_c, 10, 7138
20, 600653, Pitch_bend_c, 10, 7146
20, 600654, Pitch_bend_c, 10, 7154
20, 600654, Pitch_bend_c, 10, 7162
20, 600655, Pitch_bend_c, 10, 7170
20, 600655, Pitch_bend_c, 10, 7178
20, 600656, Pitch_bend_c, 10, 7186
20, 600656, Pitch_bend_c, 10, 7193
20, 600657, Pitch_bend_c, 10, 7201
20, 600657, Pitch_bend_c, 10, 7209
20, 600658, Pitch_bend_c, 10, 7217
20, 600658, Pitch_bend_c, 10, 7225
20, 600659, Pitch_bend_c, 10, 7233
20, 600659, Pitch_bend_c, 10, 7241
20, 600660, Pitch_bend_c, 10, 7248
20, 600660, Pitch_bend_c, 10, 7256
20, 600661, Pitch_bend_c, 10, 7264
20, 600661, Pitch_bend_c, 10, 7272
20, 600662, Pitch_bend_c, 10, 7280
20, 600662, Pitch_bend_c, 10, 7288
20, 600663, Pitch_bend_c, 10, 7296
20, 600663, Pitch_bend_c, 10, 7304
20, 600664, Pitch_bend_c, 10, 7311
20, 600664, Pitch_bend_c, 10, 7319
20, 600665, Pitch_bend_c, 10, 7327
20, 600665, Pitch_bend_c, 10, 7335
20, 600666, Pitch_bend_c, 10, 7343
20, 600666, Pitch_bend_c, 10, 7351
20, 600667, Pitch_bend_c, 10, 7359
20, 600667, Pitch_bend_c, 10, 7366
20, 600668, Pitch_bend_c, 10, 7374
20, 600668, Pitch_bend_c, 10, 7382
20, 600669, Pitch_bend_c, 10, 7390
20, 600669, Pitch_bend_c, 10, 7398
20, 600670, Pitch_bend_c, 10, 7406
20, 600670, Pitch_bend_c, 10, 7414
20, 600671, Pitch_bend_c, 10, 7422
20, 600671, Pitch_bend_c, 10, 7429
20, 600672, Pitch_bend_c, 10, 7437
20, 600672, Pitch_bend_c, 10, 7445
20, 600673, Pitch_bend_c, 10, 7453
20, 600673, Pitch_bend_c, 10, 7461
20, 600674, Pitch_bend_c, 10, 7469
20, 600674, Pitch_bend_c, 10, 7477
20, 600675, Pitch_bend_c, 10, 7484
20, 600675, Pitch_bend_c, 10, 7492
20, 600676, Pitch_bend_c, 10, 7500
20, 600676, Pitch_bend_c, 10, 7508
20, 600677, Pitch_bend_c, 10, 7516
20, 600677, Pitch_bend_c, 10, 7524
20, 600678, Pitch_bend_c, 10, 7532
20, 600678, Pitch_bend_c, 10, 7540
20, 600679, Pitch_bend_c, 10, 7547
20, 600679, Pitch_bend_c, 10, 7555
20, 600680, Pitch_bend_c, 10, 7563
20, 600680, Pitch_bend_c, 10, 7571
20, 600681, Pitch_bend_c, 10, 7579
20, 600681, Pitch_bend_c, 10, 7587
20, 600682, Pitch_bend_c, 10, 7595
20, 600682, Pitch_bend_c, 10, 7602
20, 600683, Pitch_bend_c, 10, 7610
20, 600683, Pitch_bend_c, 10, 7618
20, 600684, Pitch_bend_c, 10, 7626
20, 600684, Pitch_bend_c, 10, 7634
20, 600685, Pitch_bend_c, 10, 7642
20, 600685, Pitch_bend_c, 10, 7650
20, 600686, Pitch_bend_c, 10, 7658
20, 600686, Pitch_bend_c, 10, 7665
20, 600687, Pitch_bend_c, 10, 7673
20, 600687, Pitch_bend_c, 10, 7681
20, 600688, Pitch_bend_c, 10, 7689
20, 600688, Pitch_bend_c, 10, 7697
20, 600689, Pitch_bend_c, 10, 7705
20, 600689, Pitch_bend_c, 10, 7713
20, 600690, Pitch_bend_c, 10, 7720
20, 600690, Pitch_bend_c, 10, 7728
20, 600691, Pitch_bend_c, 10, 7736
20, 600691, Pitch_bend_c, 10, 7744
20, 600692, Pitch_bend_c, 10, 7752
20, 600692, Pitch_bend_c, 10, 7760
20, 600693, Pitch_bend_c, 10, 7768
20, 600693, Pitch_bend_c, 10, 7776
20, 600694, Pitch_bend_c, 10, 7783
20, 600694, Pitch_bend_c, 10, 7791
20, 600695, Pitch_bend_c, 10, 7799
20, 600695, Pitch_bend_c, 10, 7807
20, 600696, Pitch_bend_c, 10, 7815
20, 600696, Pitch_bend_c, 10, 7823
20, 600697, Pitch_bend_c, 10, 7831
20, 600697, Pitch_bend_c, 10, 7838
20, 600698, Pitch_bend_c, 10, 7846
20, 600698, Pitch_bend_c, 10, 7854
20, 600699, Pitch_bend_c, 10, 7862
20, 600699, Pitch_bend_c, 10, 7870
20, 600700, Pitch_bend_c, 10, 7878
20, 600700, Pitch_bend_c, 10, 7886
20, 600701, Pitch_bend_c, 10, 7894
20, 600701, Pitch_bend_c, 10, 7901
20, 600702, Pitch_bend_c, 10, 7909
20, 600702, Pitch_bend_c, 10, 7917
20, 600703, Pitch_bend_c, 10, 7925
20, 600703, Pitch_bend_c, 10, 7933
20, 600704, Pitch_bend_c, 10, 7941
20, 600704, Pitch_bend_c, 10, 7949
20, 600705, Pitch_bend_c, 10, 7956
20, 600705, Pitch_bend_c, 10, 7964
20, 600706, Pitch_bend_c, 10, 7972
20, 600706, Pitch_bend_c, 10, 7980
20, 600707, Pitch_bend_c, 10, 7988
20, 600707, Pitch_bend_c, 10, 7996
20, 600708, Pitch_bend_c, 10, 8004
20, 600708, Pitch_bend_c, 10, 8012
20, 600709, Pitch_bend_c, 10, 8019
20, 600709, Pitch_bend_c, 10, 8027
20, 600710, Pitch_bend_c, 10, 8035
20, 600710, Pitch_bend_c, 10, 8043
20, 600711, Pitch_bend_c, 10, 8051
20, 600711, Pitch_bend_c, 10, 8059
20, 600712, Pitch_bend_c, 10, 8067
20, 600712, Pitch_bend_c, 10, 8074
20, 600713, Pitch_bend_c, 10, 8082
20, 600713, Pitch_bend_c, 10, 8090
20, 600714, Pitch_bend_c, 10, 8098
20, 600714, Pitch_bend_c, 10, 8106
20, 600715, Pitch_bend_c, 10, 8114
20, 600715, Pitch_bend_c, 10, 8122
20, 600716, Pitch_bend_c, 10, 8130
20, 600716, Pitch_bend_c, 10, 8137
20, 600717, Pitch_bend_c, 10, 8145
20, 600717, Pitch_bend_c, 10, 8153
20, 600718, Pitch_bend_c, 10, 8161
20, 600718, Pitch_bend_c, 10, 8169
20, 600719, Pitch_bend_c, 10, 8177
20, 600719, Pitch_bend_c, 10, 8185
20, 600720, Pitch_bend_c, 10, 8192
20, 600724, Note_on_c, 10, 51, 0
20, 601442, Note_on_c, 10, 47, 114
20, 601449, Note_on_c, 10, 52, 117
20, 601463, Note_on_c, 10, 56, 119
20, 601495, Note_on_c, 10, 47, 0
20, 601502, Note_on_c, 10, 52, 0
20, 601516, Note_on_c, 10, 56, 0
20, 601698, Note_on_c, 10, 56, 102
20, 601699, Note_on_c, 10, 54, 109
20, 601805, Note_on_c, 10, 56, 0
20, 601806, Note_on_c, 10, 54, 0
20, 602165, Note_on_c, 10, 56, 105
20, 602173, Note_on_c, 10, 54, 110
20, 602218, Note_on_c, 10, 56, 0
20, 602226, Note_on_c, 10, 54, 0
20, 602403, Note_on_c, 10, 54, 108
20, 602406, Note_on_c, 10, 56, 109
20, 602456, Note_on_c, 10, 54, 0
20, 602459, Note_on_c, 10, 56, 0
20, 602763, Note_on_c, 10, 54, 117
20, 602775, Note_on_c, 10, 56, 115
20, 602816, Note_on_c, 10, 54, 0
20, 602828, Note_on_c, 10, 56, 0
20, 603612, Note_on_c, 10, 56, 100
20, 603624, Note_on_c, 10, 54, 112
20, 603665, Note_on_c, 10, 56, 0
20, 603677, Note_on_c, 10, 54, 0
20, 603842, Note_on_c, 10, 56, 113
20, 603865, Note_on_c, 10, 54, 114
20, 603895, Note_on_c, 10, 56, 0
20, 603918, Note_on_c, 10, 54, 0
20, 603977, Note_on_c, 10, 55, 107
20, 603986, Note_on_c, 10, 53, 104
20, 604030, Note_on_c, 10, 55, 0
20, 604039, Note_on_c, 10, 53, 0
20, 604085, Note_on_c, 10, 56, 110
20, 604109, Note_on_c, 10, 54, 106
20, 604138, Note_on_c, 10, 56, 0
20, 604162, Note_on_c, 10, 54, 0
20, 604680, Pitch_bend_c, 10, 4416
20, 604680, Pitch_bend_c, 10, 4424
20, 604681, Pitch_bend_c, 10, 4432
20, 604681, Pitch_bend_c, 10, 4440
20, 604682, Pitch_bend_c, 10, 4448
20, 604682, Pitch_bend_c, 10, 4456
20, 604683, Pitch_bend_c, 10, 4464
20, 604683, Pitch_bend_c, 10, 4472
20, 604684, Pitch_bend_c, 10, 4479
20, 604684, Pitch_bend_c, 10, 4487
20, 604685, Pitch_bend_c, 10, 4495
20, 604685, Pitch_bend_c, 10, 4503
20, 604686, Pitch_bend_c, 10, 4511
20, 604686, Pitch_bend_c, 10, 4519
20, 604687, Pitch_bend_c, 10, 4527
20, 604687, Pitch_bend_c, 10, 4534
20, 604688, Pitch_bend_c, 10, 4542
20, 604688, Pitch_bend_c, 10, 4550
20, 604689, Pitch_bend_c, 10, 4558
20, 604689, Pitch_bend_c, 10, 4566
20, 604690, Pitch_bend_c, 10, 4574
20, 604690, Pitch_bend_c, 10, 4582
20, 604691, Pitch_bend_c, 10, 4590
20, 604691, Pitch_bend_c, 10, 4597
20, 604692, Pitch_bend_c, 10, 4605
20, 604692, Pitch_bend_c, 10, 4613
20, 604693, Pitch_bend_c, 10, 4621
20, 604693, Pitch_bend_c, 10, 4629
20, 604694, Pitch_bend_c, 10, 4637
20, 604694, Pitch_bend_c, 10, 4645
20, 604695, Pitch_bend_c, 10, 4652
20, 604695, Pitch_bend_c, 10, 4660
20, 604696, Pitch_bend_c, 10, 4668
20, 604696, Pitch_bend_c, 10, 4676
20, 604697, Pitch_bend_c, 10, 4684
20, 604697, Pitch_bend_c, 10, 4692
20, 604698, Pitch_bend_c, 10, 4700
20, 604698, Pitch_bend_c, 10, 4708
20, 604699, Pitch_bend_c, 10, 4715
20, 604699, Note_on_c, 10, 51, 101
20, 604699, Pitch_bend_c, 10, 4723
20, 604700, Pitch_bend_c, 10, 4731
20, 604700, Pitch_bend_c, 10, 4739
20, 604701, Pitch_bend_c, 10, 4747
20, 604701, Pitch_bend_c, 10, 4755
20, 604702, Pitch_bend_c, 10, 4763
20, 604702, Pitch_bend_c, 10, 4770
20, 604703, Pitch_bend_c, 10, 4778
20, 604703, Pitch_bend_c, 10, 4786
20, 604704, Pitch_bend_c, 10, 4794
20, 604704, Pitch_bend_c, 10, 4802
20, 604705, Pitch_bend_c, 10, 4810
20, 604705, Pitch_bend_c, 10, 4818
20, 604706, Pitch_bend_c, 10, 4826
20, 604706, Pitch_bend_c, 10, 4833
20, 604707, Pitch_bend_c, 10, 4841
20, 604707, Pitch_bend_c, 10, 4849
20, 604708, Pitch_bend_c, 10, 4857
20, 604708, Pitch_bend_c, 10, 4865
20, 604709, Pitch_bend_c, 10, 4873
20, 604709, Pitch_bend_c, 10, 4881
20, 604710, Pitch_bend_c, 10, 4888
20, 604710, Pitch_bend_c, 10, 4896
20, 604711, Pitch_bend_c, 10, 4904
20, 604711, Pitch_bend_c, 10, 4912
20, 604712, Pitch_bend_c, 10, 4920
20, 604712, Pitch_bend_c, 10, 4928
20, 604713, Pitch_bend_c, 10, 4936
20, 604713, Pitch_bend_c, 10, 4944
20, 604714, Pitch_bend_c, 10, 4951
20, 604714, Pitch_bend_c, 10, 4959
20, 604715, Pitch_bend_c, 10, 4967
20, 604715, Pitch_bend_c, 10, 4975
20, 604716, Pitch_bend_c, 10, 4983
20, 604716, Pitch_bend_c, 10, 4991
20, 604717, Pitch_bend_c, 10, 4999
20, 604717, Pitch_bend_c, 10, 5006
20, 604718, Pitch_bend_c, 10, 5014
20, 604718, Pitch_bend_c, 10, 5022
20, 604719, Pitch_bend_c, 10, 5030
20, 604719, Pitch_bend_c, 10, 5038
20, 604720, Pitch_bend_c, 10, 5046
20, 604720, Pitch_bend_c, 10, 5054
20, 604721, Pitch_bend_c, 10, 5062
20, 604721, Pitch_bend_c, 10, 5069
20, 604722, Pitch_bend_c, 10, 5077
20, 604722, Pitch_bend_c, 10, 5085
20, 604723, Pitch_bend_c, 10, 5093
20, 604723, Pitch_bend_c, 10, 5101
20, 604724, Pitch_bend_c, 10, 5109
20, 604724, Pitch_bend_c, 10, 5117
20, 604725, Pitch_bend_c, 10, 5124
20, 604725, Pitch_bend_c, 10, 5132
20, 604726, Pitch_bend_c, 10, 5140
20, 604726, Pitch_bend_c, 10, 5148
20, 604727, Pitch_bend_c, 10, 5156
20, 604727, Pitch_bend_c, 10, 5164
20, 604728, Pitch_bend_c, 10, 5172
20, 604728, Pitch_bend_c, 10, 5180
20, 604729, Pitch_bend_c, 10, 5187
20, 604729, Pitch_bend_c, 10, 5195
20, 604730, Pitch_bend_c, 10, 5203
20, 604730, Pitch_bend_c, 10, 5211
20, 604731, Pitch_bend_c, 10, 5219
20, 604731, Pitch_bend_c, 10, 5227
20, 604732, Pitch_bend_c, 10, 5235
20, 604732, Pitch_bend_c, 10, 5242
20, 604733, Pitch_bend_c, 10, 5250
20, 604733, Pitch_bend_c, 10, 5258
20, 604734, Pitch_bend_c, 10, 5266
20, 604734, Pitch_bend_c, 10, 5274
20, 604735, Pitch_bend_c, 10, 5282
20, 604735, Pitch_bend_c, 10, 5290
20, 604736, Pitch_bend_c, 10, 5298
20, 604736, Pitch_bend_c, 10, 5305
20, 604737, Pitch_bend_c, 10, 5313
20, 604737, Pitch_bend_c, 10, 5321
20, 604738, Pitch_bend_c, 10, 5329
20, 604738, Pitch_bend_c, 10, 5337
20, 604739, Pitch_bend_c, 10, 5345
20, 604739, Pitch_bend_c, 10, 5353
20, 604740, Pitch_bend_c, 10, 5360
20, 604740, Pitch_bend_c, 10, 5368
20, 604741, Pitch_bend_c, 10, 5376
20, 604741, Pitch_bend_c, 10, 5384
20, 604742, Pitch_bend_c, 10, 5392
20, 604742, Pitch_bend_c, 10, 5400
20, 604743, Pitch_bend_c, 10, 5408
20, 604743, Pitch_bend_c, 10, 5416
20, 604744, Pitch_bend_c, 10, 5423
20, 604744, Pitch_bend_c, 10, 5431
20, 604745, Pitch_bend_c, 10, 5439
20, 604745, Pitch_bend_c, 10, 5447
20, 604746, Pitch_bend_c, 10, 5455
20, 604746, Pitch_bend_c, 10, 5463
20, 604747, Pitch_bend_c, 10, 5471
20, 604747, Pitch_bend_c, 10, 5478
20, 604748, Pitch_bend_c, 10, 5486
20, 604748, Pitch_bend_c, 10, 5494
20, 604749, Pitch_bend_c, 10, 5502
20, 604749, Pitch_bend_c, 10, 5510
20, 604750, Pitch_bend_c, 10, 5518
20, 604750, Pitch_bend_c, 10, 5526
20, 604751, Pitch_bend_c, 10, 5534
20, 604751, Pitch_bend_c, 10, 5541
20, 604752, Pitch_bend_c, 10, 5549
20, 604752, Pitch_bend_c, 10, 5557
20, 604753, Pitch_bend_c, 10, 5565
20, 604753, Pitch_bend_c, 10, 5573
20, 604754, Pitch_bend_c, 10, 5581
20, 604754, Pitch_bend_c, 10, 5589
20, 604755, Pitch_bend_c, 10, 5596
20, 604755, Pitch_bend_c, 10, 5604
20, 604756, Pitch_bend_c, 10, 5612
20, 604756, Pitch_bend_c, 10, 5620
20, 604757, Pitch_bend_c, 10, 5628
20, 604757, Pitch_bend_c, 10, 5636
20, 604758, Pitch_bend_c, 10, 5644
20, 604758, Pitch_bend_c, 10, 5652
20, 604759, Pitch_bend_c, 10, 5659
20, 604759, Pitch_bend_c, 10, 5667
20, 604760, Pitch_bend_c, 10, 5675
20, 604760, Pitch_bend_c, 10, 5683
20, 604761, Pitch_bend_c, 10, 5691
20, 604761, Pitch_bend_c, 10, 5699
20, 604762, Pitch_bend_c, 10, 5707
20, 604762, Pitch_bend_c, 10, 5714
20, 604763, Pitch_bend_c, 10, 5722
20, 604763, Pitch_bend_c, 10, 5730
20, 604764, Pitch_bend_c, 10, 5738
20, 604764, Pitch_bend_c, 10, 5746
20, 604765, Pitch_bend_c, 10, 5754
20, 604765, Pitch_bend_c, 10, 5762
20, 604766, Pitch_bend_c, 10, 5770
20, 604766, Pitch_bend_c, 10, 5777
20, 604767, Pitch_bend_c, 10, 5785
20, 604767, Pitch_bend_c, 10, 5793
20, 604768, Pitch_bend_c, 10, 5801
20, 604768, Pitch_bend_c, 10, 5809
20, 604769, Pitch_bend_c, 10, 5817
20, 604769, Pitch_bend_c, 10, 5825
20, 604770, Pitch_bend_c, 10, 5832
20, 604770, Pitch_bend_c, 10, 5840
20, 604771, Pitch_bend_c, 10, 5848
20, 604771, Pitch_bend_c, 10, 5856
20, 604772, Pitch_bend_c, 10, 5864
20, 604772, Pitch_bend_c, 10, 5872
20, 604773, Pitch_bend_c, 10, 5880
20, 604773, Pitch_bend_c, 10, 5888
20, 604774, Pitch_bend_c, 10, 5895
20, 604774, Pitch_bend_c, 10, 5903
20, 604775, Pitch_bend_c, 10, 5911
20, 604775, Pitch_bend_c, 10, 5919
20, 604776, Pitch_bend_c, 10, 5927
20, 604776, Pitch_bend_c, 10, 5935
20, 604777, Pitch_bend_c, 10, 5943
20, 604777, Pitch_bend_c, 10, 5950
20, 604778, Pitch_bend_c, 10, 5958
20, 604778, Pitch_bend_c, 10, 5966
20, 604779, Pitch_bend_c, 10, 5974
20, 604779, Pitch_bend_c, 10, 5982
20, 604780, Pitch_bend_c, 10, 5990
20, 604780, Pitch_bend_c, 10, 5998
20, 604781, Pitch_bend_c, 10, 6006
20, 604781, Pitch_bend_c, 10, 6013
20, 604782, Pitch_bend_c, 10, 6021
20, 604782, Pitch_bend_c, 10, 6029
20, 604783, Pitch_bend_c, 10, 6037
20, 604783, Pitch_bend_c, 10, 6045
20, 604784, Pitch_bend_c, 10, 6053
20, 604784, Pitch_bend_c, 10, 6061
20, 604785, Pitch_bend_c, 10, 6068
20, 604785, Pitch_bend_c, 10, 6076
20, 604786, Pitch_bend_c, 10, 6084
20, 604786, Pitch_bend_c, 10, 6092
20, 604787, Pitch_bend_c, 10, 6100
20, 604787, Pitch_bend_c, 10, 6108
20, 604788, Pitch_bend_c, 10, 6116
20, 604788, Pitch_bend_c, 10, 6124
20, 604789, Pitch_bend_c, 10, 6131
20, 604789, Pitch_bend_c, 10, 6139
20, 604790, Pitch_bend_c, 10, 6147
20, 604790, Pitch_bend_c, 10, 6155
20, 604791, Pitch_bend_c, 10, 6163
20, 604791, Pitch_bend_c, 10, 6171
20, 604792, Pitch_bend_c, 10, 6179
20, 604792, Pitch_bend_c, 10, 6186
20, 604793, Pitch_bend_c, 10, 6194
20, 604793, Pitch_bend_c, 10, 6202
20, 604794, Pitch_bend_c, 10, 6210
20, 604794, Pitch_bend_c, 10, 6218
20, 604795, Pitch_bend_c, 10, 6226
20, 604795, Pitch_bend_c, 10, 6234
20, 604796, Pitch_bend_c, 10, 6242
20, 604796, Pitch_bend_c, 10, 6249
20, 604797, Pitch_bend_c, 10, 6257
20, 604797, Pitch_bend_c, 10, 6265
20, 604798, Pitch_bend_c, 10, 6273
20, 604798, Pitch_bend_c, 10, 6281
20, 604799, Pitch_bend_c, 10, 6289
20, 604799, Pitch_bend_c, 10, 6297
20, 604800, Pitch_bend_c, 10, 6304
20, 604800, Pitch_bend_c, 10, 6312
20, 604801, Pitch_bend_c, 10, 6320
20, 604801, Pitch_bend_c, 10, 6328
20, 604802, Pitch_bend_c, 10, 6336
20, 604802, Pitch_bend_c, 10, 6344
20, 604803, Pitch_bend_c, 10, 6352
20, 604803, Pitch_bend_c, 10, 6360
20, 604804, Pitch_bend_c, 10, 6367
20, 604804, Pitch_bend_c, 10, 6375
20, 604805, Pitch_bend_c, 10, 6383
20, 604805, Pitch_bend_c, 10, 6391
20, 604806, Pitch_bend_c, 10, 6399
20, 604806, Pitch_bend_c, 10, 6407
20, 604807, Pitch_bend_c, 10, 6415
20, 604807, Pitch_bend_c, 10, 6422
20, 604808, Pitch_bend_c, 10, 6430
20, 604808, Pitch_bend_c, 10, 6438
20, 604809, Pitch_bend_c, 10, 6446
20, 604809, Pitch_bend_c, 10, 6454
20, 604810, Pitch_bend_c, 10, 6462
20, 604810, Pitch_bend_c, 10, 6470
20, 604811, Pitch_bend_c, 10, 6478
20, 604811, Pitch_bend_c, 10, 6485
20, 604812, Pitch_bend_c, 10, 6493
20, 604812, Pitch_bend_c, 10, 6501
20, 604813, Pitch_bend_c, 10, 6509
20, 604813, Pitch_bend_c, 10, 6517
20, 604814, Pitch_bend_c, 10, 6525
20, 604814, Pitch_bend_c, 10, 6533
20, 604815, Pitch_bend_c, 10, 6540
20, 604815, Pitch_bend_c, 10, 6548
20, 604816, Pitch_bend_c, 10, 6556
20, 604816, Pitch_bend_c, 10, 6564
20, 604817, Pitch_bend_c, 10, 6572
20, 604817, Pitch_bend_c, 10, 6580
20, 604818, Pitch_bend_c, 10, 6588
20, 604818, Pitch_bend_c, 10, 6596
20, 604819, Pitch_bend_c, 10, 6603
20, 604819, Pitch_bend_c, 10, 6611
20, 604820, Pitch_bend_c, 10, 6619
20, 604820, Pitch_bend_c, 10, 6627
20, 604821, Pitch_bend_c, 10, 6635
20, 604821, Pitch_bend_c, 10, 6643
20, 604822, Pitch_bend_c, 10, 6651
20, 604822, Pitch_bend_c, 10, 6658
20, 604823, Pitch_bend_c, 10, 6666
20, 604823, Pitch_bend_c, 10, 6674
20, 604824, Pitch_bend_c, 10, 6682
20, 604824, Pitch_bend_c, 10, 6690
20, 604825, Pitch_bend_c, 10, 6698
20, 604825, Pitch_bend_c, 10, 6706
20, 604826, Pitch_bend_c, 10, 6714
20, 604826, Pitch_bend_c, 10, 6721
20, 604827, Pitch_bend_c, 10, 6729
20, 604827, Pitch_bend_c, 10, 6737
20, 604828, Pitch_bend_c, 10, 6745
20, 604828, Pitch_bend_c, 10, 6753
20, 604829, Pitch_bend_c, 10, 6761
20, 604829, Pitch_bend_c, 10, 6769
20, 604830, Pitch_bend_c, 10, 6776
20, 604830, Pitch_bend_c, 10, 6784
20, 604831, Pitch_bend_c, 10, 6792
20, 604831, Pitch_bend_c, 10, 6800
20, 604832, Pitch_bend_c, 10, 6808
20, 604832, Pitch_bend_c, 10, 6816
20, 604833, Pitch_bend_c, 10, 6824
20, 604833, Pitch_bend_c, 10, 6832
20, 604834, Pitch_bend_c, 10, 6839
20, 604834, Pitch_bend_c, 10, 6847
20, 604835, Pitch_bend_c, 10, 6855
20, 604835, Pitch_bend_c, 10, 6863
20, 604836, Pitch_bend_c, 10, 6871
20, 604836, Pitch_bend_c, 10, 6879
20, 604837, Pitch_bend_c, 10, 6887
20, 604837, Pitch_bend_c, 10, 6894
20, 604838, Pitch_bend_c, 10, 6902
20, 604838, Pitch_bend_c, 10, 6910
20, 604839, Pitch_bend_c, 10, 6918
20, 604839, Pitch_bend_c, 10, 6926
20, 604840, Pitch_bend_c, 10, 6934
20, 604840, Pitch_bend_c, 10, 6942
20, 604841, Pitch_bend_c, 10, 6950
20, 604841, Pitch_bend_c, 10, 6957
20, 604842, Pitch_bend_c, 10, 6965
20, 604842, Pitch_bend_c, 10, 6973
20, 604843, Pitch_bend_c, 10, 6981
20, 604843, Pitch_bend_c, 10, 6989
20, 604844, Pitch_bend_c, 10, 6997
20, 604844, Pitch_bend_c, 10, 7005
20, 604845, Pitch_bend_c, 10, 7012
20, 604845, Pitch_bend_c, 10, 7020
20, 604846, Pitch_bend_c, 10, 7028
20, 604846, Pitch_bend_c, 10, 7036
20, 604847, Pitch_bend_c, 10, 7044
20, 604847, Pitch_bend_c, 10, 7052
20, 604848, Pitch_bend_c, 10, 7060
20, 604848, Pitch_bend_c, 10, 7068
20, 604849, Pitch_bend_c, 10, 7075
20, 604849, Pitch_bend_c, 10, 7083
20, 604850, Pitch_bend_c, 10, 7091
20, 604850, Pitch_bend_c, 10, 7099
20, 604851, Pitch_bend_c, 10, 7107
20, 604851, Pitch_bend_c, 10, 7115
20, 604852, Pitch_bend_c, 10, 7123
20, 604852, Pitch_bend_c, 10, 7130
20, 604853, Pitch_bend_c, 10, 7138
20, 604853, Pitch_bend_c, 10, 7146
20, 604854, Pitch_bend_c, 10, 7154
20, 604854, Pitch_bend_c, 10, 7162
20, 604855, Pitch_bend_c, 10, 7170
20, 604855, Pitch_bend_c, 10, 7178
20, 604856, Pitch_bend_c, 10, 7186
20, 604856, Pitch_bend_c, 10, 7193
20, 604857, Pitch_bend_c, 10, 7201
20, 604857, Pitch_bend_c, 10, 7209
20, 604858, Pitch_bend_c, 10, 7217
20, 604858, Pitch_bend_c, 10, 7225
20, 604859, Pitch_bend_c, 10, 7233
20, 604859, Pitch_bend_c, 10, 7241
20, 604860, Pitch_bend_c, 10, 7248
20, 604860, Pitch_bend_c, 10, 7256
20, 604861, Pitch_bend_c, 10, 7264
20, 604861, Pitch_bend_c, 10, 7272
20, 604862, Pitch_bend_c, 10, 7280
20, 604862, Pitch_bend_c, 10, 7288
20, 604863, Pitch_bend_c, 10, 7296
20, 604863, Pitch_bend_c, 10, 7304
20, 604864, Pitch_bend_c, 10, 7311
20, 604864, Pitch_bend_c, 10, 7319
20, 604865, Pitch_bend_c, 10, 7327
20, 604865, Pitch_bend_c, 10, 7335
20, 604866, Pitch_bend_c, 10, 7343
20, 604866, Pitch_bend_c, 10, 7351
20, 604867, Pitch_bend_c, 10, 7359
20, 604867, Pitch_bend_c, 10, 7366
20, 604868, Pitch_bend_c, 10, 7374
20, 604868, Pitch_bend_c, 10, 7382
20, 604869, Pitch_bend_c, 10, 7390
20, 604869, Pitch_bend_c, 10, 7398
20, 604870, Pitch_bend_c, 10, 7406
20, 604870, Pitch_bend_c, 10, 7414
20, 604871, Pitch_bend_c, 10, 7422
20, 604871, Pitch_bend_c, 10, 7429
20, 604872, Pitch_bend_c, 10, 7437
20, 604872, Pitch_bend_c, 10, 7445
20, 604873, Pitch_bend_c, 10, 7453
20, 604873, Pitch_bend_c, 10, 7461
20, 604874, Pitch_bend_c, 10, 7469
20, 604874, Pitch_bend_c, 10, 7477
20, 604875, Pitch_bend_c, 10, 7484
20, 604875, Pitch_bend_c, 10, 7492
20, 604876, Pitch_bend_c, 10, 7500
20, 604876, Pitch_bend_c, 10, 7508
20, 604877, Pitch_bend_c, 10, 7516
20, 604877, Pitch_bend_c, 10, 7524
20, 604878, Pitch_bend_c, 10, 7532
20, 604878, Pitch_bend_c, 10, 7540
20, 604879, Pitch_bend_c, 10, 7547
20, 604879, Pitch_bend_c, 10, 7555
20, 604880, Pitch_bend_c, 10, 7563
20, 604880, Pitch_bend_c, 10, 7571
20, 604881, Pitch_bend_c, 10, 7579
20, 604881, Pitch_bend_c, 10, 7587
20, 604882, Pitch_bend_c, 10, 7595
20, 604882, Pitch_bend_c, 10, 7602
20, 604883, Pitch_bend_c, 10, 7610
20, 604883, Pitch_bend_c, 10, 7618
20, 604884, Pitch_bend_c, 10, 7626
20, 604884, Pitch_bend_c, 10, 7634
20, 604885, Pitch_bend_c, 10, 7642
20, 604885, Pitch_bend_c, 10, 7650
20, 604886, Pitch_bend_c, 10, 7658
20, 604886, Pitch_bend_c, 10, 7665
20, 604887, Pitch_bend_c, 10, 7673
20, 604887, Pitch_bend_c, 10, 7681
20, 604888, Pitch_bend_c, 10, 7689
20, 604888, Pitch_bend_c, 10, 7697
20, 604889, Pitch_bend_c, 10, 7705
20, 604889, Pitch_bend_c, 10, 7713
20, 604890, Pitch_bend_c, 10, 7720
20, 604890, Pitch_bend_c, 10, 7728
20, 604891, Pitch_bend_c, 10, 7736
20, 604891, Pitch_bend_c, 10, 7744
20, 604892, Pitch_bend_c, 10, 7752
20, 604892, Pitch_bend_c, 10, 7760
20, 604893, Pitch_bend_c, 10, 7768
20, 604893, Pitch_bend_c, 10, 7776
20, 604894, Pitch_bend_c, 10, 7783
20, 604894, Pitch_bend_c, 10, 7791
20, 604895, Pitch_bend_c, 10, 7799
20, 604895, Pitch_bend_c, 10, 7807
20, 604896, Pitch_bend_c, 10, 7815
20, 604896, Pitch_bend_c, 10, 7823
20, 604897, Pitch_bend_c, 10, 7831
20, 604897, Pitch_bend_c, 10, 7838
20, 604898, Pitch_bend_c, 10, 7846
20, 604898, Pitch_bend_c, 10, 7854
20, 604899, Pitch_bend_c, 10, 7862
20, 604899, Pitch_bend_c, 10, 7870
20, 604900, Pitch_bend_c, 10, 7878
20, 604900, Pitch_bend_c, 10, 7886
20, 604901, Pitch_bend_c, 10, 7894
20, 604901, Pitch_bend_c, 10, 7901
20, 604902, Pitch_bend_c, 10, 7909
20, 604902, Pitch_bend_c, 10, 7917
20, 604903, Pitch_bend_c, 10, 7925
20, 604903, Pitch_bend_c, 10, 7933
20, 604904, Pitch_bend_c, 10, 7941
20, 604904, Pitch_bend_c, 10, 7949
20, 604905, Pitch_bend_c, 10, 7956
20, 604905, Pitch_bend_c, 10, 7964
20, 604906, Pitch_bend_c, 10, 7972
20, 604906, Pitch_bend_c, 10, 7980
20, 604907, Pitch_bend_c, 10, 7988
20, 604907, Pitch_bend_c, 10, 7996
20, 604908, Pitch_bend_c, 10, 8004
20, 604908, Pitch_bend_c, 10, 8012
20, 604909, Pitch_bend_c, 10, 8019
20, 604909, Pitch_bend_c, 10, 8027
20, 604910, Pitch_bend_c, 10, 8035
20, 604910, Pitch_bend_c, 10, 8043
20, 604911, Pitch_bend_c, 10, 8051
20, 604911, Pitch_bend_c, 10, 8059
20, 604912, Pitch_bend_c, 10, 8067
20, 604912, Pitch_bend_c, 10, 8074
20, 604913, Pitch_bend_c, 10, 8082
20, 604913, Pitch_bend_c, 10, 8090
20, 604914, Pitch_bend_c, 10, 8098
20, 604914, Pitch_bend_c, 10, 8106
20, 604915, Pitch_bend_c, 10, 8114
20, 604915, Pitch_bend_c, 10, 8122
20, 604916, Pitch_bend_c, 10, 8130
20, 604916, Pitch_bend_c, 10, 8137
20, 604917, Pitch_bend_c, 10, 8145
20, 604917, Pitch_bend_c, 10, 8153
20, 604918, Pitch_bend_c, 10, 8161
20, 604918, Pitch_bend_c, 10, 8169
20, 604919, Pitch_bend_c, 10, 8177
20, 604919, Pitch_bend_c, 10, 8185
20, 604920, Pitch_bend_c, 10, 8192
20, 604939, Note_on_c, 10, 51, 0
20, 607080, Pitch_bend_c, 10, 4416
20, 607080, Pitch_bend_c, 10, 4424
20, 607081, Pitch_bend_c, 10, 4432
20, 607081, Pitch_bend_c, 10, 4440
20, 607082, Pitch_bend_c, 10, 4448
20, 607082, Pitch_bend_c, 10, 4456
20, 607083, Pitch_bend_c, 10, 4464
20, 607083, Pitch_bend_c, 10, 4472
20, 607084, Pitch_bend_c, 10, 4479
20, 607084, Pitch_bend_c, 10, 4487
20, 607085, Pitch_bend_c, 10, 4495
20, 607085, Pitch_bend_c, 10, 4503
20, 607086, Pitch_bend_c, 10, 4511
20, 607086, Pitch_bend_c, 10, 4519
20, 607087, Pitch_bend_c, 10, 4527
20, 607087, Pitch_bend_c, 10, 4534
20, 607088, Pitch_bend_c, 10, 4542
20, 607088, Pitch_bend_c, 10, 4550
20, 607089, Pitch_bend_c, 10, 4558
20, 607089, Pitch_bend_c, 10, 4566
20, 607090, Pitch_bend_c, 10, 4574
20, 607090, Pitch_bend_c, 10, 4582
20, 607091, Pitch_bend_c, 10, 4590
20, 607091, Pitch_bend_c, 10, 4597
20, 607092, Pitch_bend_c, 10, 4605
20, 607092, Pitch_bend_c, 10, 4613
20, 607093, Pitch_bend_c, 10, 4621
20, 607093, Pitch_bend_c, 10, 4629
20, 607094, Pitch_bend_c, 10, 4637
20, 607094, Pitch_bend_c, 10, 4645
20, 607095, Pitch_bend_c, 10, 4652
20, 607095, Pitch_bend_c, 10, 4660
20, 607096, Pitch_bend_c, 10, 4668
20, 607096, Pitch_bend_c, 10, 4676
20, 607097, Pitch_bend_c, 10, 4684
20, 607097, Pitch_bend_c, 10, 4692
20, 607098, Pitch_bend_c, 10, 4700
20, 607098, Pitch_bend_c, 10, 4708
20, 607099, Pitch_bend_c, 10, 4715
20, 607099, Pitch_bend_c, 10, 4723
20, 607100, Pitch_bend_c, 10, 4731
20, 607100, Pitch_bend_c, 10, 4739
20, 607101, Pitch_bend_c, 10, 4747
20, 607101, Pitch_bend_c, 10, 4755
20, 607102, Pitch_bend_c, 10, 4763
20, 607102, Note_on_c, 10, 51, 107
20, 607102, Pitch_bend_c, 10, 4770
20, 607103, Pitch_bend_c, 10, 4778
20, 607103, Pitch_bend_c, 10, 4786
20, 607104, Pitch_bend_c, 10, 4794
20, 607104, Pitch_bend_c, 10, 4802
20, 607105, Pitch_bend_c, 10, 4810
20, 607105, Pitch_bend_c, 10, 4818
20, 607106, Pitch_bend_c, 10, 4826
20, 607106, Pitch_bend_c, 10, 4833
20, 607107, Pitch_bend_c, 10, 4841
20, 607107, Pitch_bend_c, 10, 4849
20, 607108, Pitch_bend_c, 10, 4857
20, 607108, Pitch_bend_c, 10, 4865
20, 607109, Pitch_bend_c, 10, 4873
20, 607109, Pitch_bend_c, 10, 4881
20, 607110, Pitch_bend_c, 10, 4888
20, 607110, Pitch_bend_c, 10, 4896
20, 607111, Pitch_bend_c, 10, 4904
20, 607111, Pitch_bend_c, 10, 4912
20, 607112, Pitch_bend_c, 10, 4920
20, 607112, Pitch_bend_c, 10, 4928
20, 607113, Pitch_bend_c, 10, 4936
20, 607113, Pitch_bend_c, 10, 4944
20, 607114, Pitch_bend_c, 10, 4951
20, 607114, Pitch_bend_c, 10, 4959
20, 607115, Pitch_bend_c, 10, 4967
20, 607115, Pitch_bend_c, 10, 4975
20, 607116, Pitch_bend_c, 10, 4983
20, 607116, Pitch_bend_c, 10, 4991
20, 607117, Pitch_bend_c, 10, 4999
20, 607117, Pitch_bend_c, 10, 5006
20, 607118, Pitch_bend_c, 10, 5014
20, 607118, Pitch_bend_c, 10, 5022
20, 607119, Pitch_bend_c, 10, 5030
20, 607119, Pitch_bend_c, 10, 5038
20, 607120, Pitch_bend_c, 10, 5046
20, 607120, Pitch_bend_c, 10, 5054
20, 607121, Pitch_bend_c, 10, 5062
20, 607121, Pitch_bend_c, 10, 5069
20, 607122, Pitch_bend_c, 10, 5077
20, 607122, Pitch_bend_c, 10, 5085
20, 607123, Pitch_bend_c, 10, 5093
20, 607123, Pitch_bend_c, 10, 5101
20, 607124, Pitch_bend_c, 10, 5109
20, 607124, Pitch_bend_c, 10, 5117
20, 607125, Pitch_bend_c, 10, 5124
20, 607125, Pitch_bend_c, 10, 5132
20, 607126, Pitch_bend_c, 10, 5140
20, 607126, Pitch_bend_c, 10, 5148
20, 607127, Pitch_bend_c, 10, 5156
20, 607127, Pitch_bend_c, 10, 5164
20, 607128, Pitch_bend_c, 10, 5172
20, 607128, Pitch_bend_c, 10, 5180
20, 607129, Pitch_bend_c, 10, 5187
20, 607129, Pitch_bend_c, 10, 5195
20, 607130, Pitch_bend_c, 10, 5203
20, 607130, Pitch_bend_c, 10, 5211
20, 607131, Pitch_bend_c, 10, 5219
20, 607131, Pitch_bend_c, 10, 5227
20, 607132, Pitch_bend_c, 10, 5235
20, 607132, Pitch_bend_c, 10, 5242
20, 607133, Pitch_bend_c, 10, 5250
20, 607133, Pitch_bend_c, 10, 5258
20, 607134, Pitch_bend_c, 10, 5266
20, 607134, Pitch_bend_c, 10, 5274
20, 607135, Pitch_bend_c, 10, 5282
20, 607135, Pitch_bend_c, 10, 5290
20, 607136, Pitch_bend_c, 10, 5298
20, 607136, Pitch_bend_c, 10, 5305
20, 607137, Pitch_bend_c, 10, 5313
20, 607137, Pitch_bend_c, 10, 5321
20, 607138, Pitch_bend_c, 10, 5329
20, 607138, Pitch_bend_c, 10, 5337
20, 607139, Pitch_bend_c, 10, 5345
20, 607139, Pitch_bend_c, 10, 5353
20, 607140, Pitch_bend_c, 10, 5360
20, 607140, Pitch_bend_c, 10, 5368
20, 607141, Pitch_bend_c, 10, 5376
20, 607141, Pitch_bend_c, 10, 5384
20, 607142, Pitch_bend_c, 10, 5392
20, 607142, Pitch_bend_c, 10, 5400
20, 607143, Pitch_bend_c, 10, 5408
20, 607143, Pitch_bend_c, 10, 5416
20, 607144, Pitch_bend_c, 10, 5423
20, 607144, Pitch_bend_c, 10, 5431
20, 607145, Pitch_bend_c, 10, 5439
20, 607145, Pitch_bend_c, 10, 5447
20, 607146, Pitch_bend_c, 10, 5455
20, 607146, Pitch_bend_c, 10, 5463
20, 607147, Pitch_bend_c, 10, 5471
20, 607147, Pitch_bend_c, 10, 5478
20, 607148, Pitch_bend_c, 10, 5486
20, 607148, Pitch_bend_c, 10, 5494
20, 607149, Pitch_bend_c, 10, 5502
20, 607149, Pitch_bend_c, 10, 5510
20, 607150, Pitch_bend_c, 10, 5518
20, 607150, Pitch_bend_c, 10, 5526
20, 607151, Pitch_bend_c, 10, 5534
20, 607151, Pitch_bend_c, 10, 5541
20, 607152, Pitch_bend_c, 10, 5549
20, 607152, Pitch_bend_c, 10, 5557
20, 607153, Pitch_bend_c, 10, 5565
20, 607153, Pitch_bend_c, 10, 5573
20, 607154, Pitch_bend_c, 10, 5581
20, 607154, Pitch_bend_c, 10, 5589
20, 607155, Pitch_bend_c, 10, 5596
20, 607155, Pitch_bend_c, 10, 5604
20, 607156, Pitch_bend_c, 10, 5612
20, 607156, Pitch_bend_c, 10, 5620
20, 607157, Pitch_bend_c, 10, 5628
20, 607157, Pitch_bend_c, 10, 5636
20, 607158, Pitch_bend_c, 10, 5644
20, 607158, Pitch_bend_c, 10, 5652
20, 607159, Pitch_bend_c, 10, 5659
20, 607159, Pitch_bend_c, 10, 5667
20, 607160, Pitch_bend_c, 10, 5675
20, 607160, Pitch_bend_c, 10, 5683
20, 607161, Pitch_bend_c, 10, 5691
20, 607161, Pitch_bend_c, 10, 5699
20, 607162, Pitch_bend_c, 10, 5707
20, 607162, Pitch_bend_c, 10, 5714
20, 607163, Pitch_bend_c, 10, 5722
20, 607163, Pitch_bend_c, 10, 5730
20, 607164, Pitch_bend_c, 10, 5738
20, 607164, Pitch_bend_c, 10, 5746
20, 607165, Pitch_bend_c, 10, 5754
20, 607165, Pitch_bend_c, 10, 5762
20, 607166, Pitch_bend_c, 10, 5770
20, 607166, Pitch_bend_c, 10, 5777
20, 607167, Pitch_bend_c, 10, 5785
20, 607167, Pitch_bend_c, 10, 5793
20, 607168, Pitch_bend_c, 10, 5801
20, 607168, Pitch_bend_c, 10, 5809
20, 607169, Pitch_bend_c, 10, 5817
20, 607169, Pitch_bend_c, 10, 5825
20, 607170, Pitch_bend_c, 10, 5832
20, 607170, Pitch_bend_c, 10, 5840
20, 607171, Pitch_bend_c, 10, 5848
20, 607171, Pitch_bend_c, 10, 5856
20, 607172, Pitch_bend_c, 10, 5864
20, 607172, Pitch_bend_c, 10, 5872
20, 607173, Pitch_bend_c, 10, 5880
20, 607173, Pitch_bend_c, 10, 5888
20, 607174, Pitch_bend_c, 10, 5895
20, 607174, Pitch_bend_c, 10, 5903
20, 607175, Pitch_bend_c, 10, 5911
20, 607175, Pitch_bend_c, 10, 5919
20, 607176, Pitch_bend_c, 10, 5927
20, 607176, Pitch_bend_c, 10, 5935
20, 607177, Pitch_bend_c, 10, 5943
20, 607177, Pitch_bend_c, 10, 5950
20, 607178, Pitch_bend_c, 10, 5958
20, 607178, Pitch_bend_c, 10, 5966
20, 607179, Pitch_bend_c, 10, 5974
20, 607179, Pitch_bend_c, 10, 5982
20, 607180, Pitch_bend_c, 10, 5990
20, 607180, Pitch_bend_c, 10, 5998
20, 607181, Pitch_bend_c, 10, 6006
20, 607181, Pitch_bend_c, 10, 6013
20, 607182, Pitch_bend_c, 10, 6021
20, 607182, Pitch_bend_c, 10, 6029
20, 607183, Pitch_bend_c, 10, 6037
20, 607183, Pitch_bend_c, 10, 6045
20, 607184, Pitch_bend_c, 10, 6053
20, 607184, Pitch_bend_c, 10, 6061
20, 607185, Pitch_bend_c, 10, 6068
20, 607185, Pitch_bend_c, 10, 6076
20, 607186, Pitch_bend_c, 10, 6084
20, 607186, Pitch_bend_c, 10, 6092
20, 607187, Pitch_bend_c, 10, 6100
20, 607187, Pitch_bend_c, 10, 6108
20, 607188, Pitch_bend_c, 10, 6116
20, 607188, Pitch_bend_c, 10, 6124
20, 607189, Pitch_bend_c, 10, 6131
20, 607189, Pitch_bend_c, 10, 6139
20, 607190, Pitch_bend_c, 10, 6147
20, 607190, Pitch_bend_c, 10, 6155
20, 607191, Pitch_bend_c, 10, 6163
20, 607191, Pitch_bend_c, 10, 6171
20, 607192, Pitch_bend_c, 10, 6179
20, 607192, Pitch_bend_c, 10, 6186
20, 607193, Pitch_bend_c, 10, 6194
20, 607193, Pitch_bend_c, 10, 6202
20, 607194, Pitch_bend_c, 10, 6210
20, 607194, Pitch_bend_c, 10, 6218
20, 607195, Pitch_bend_c, 10, 6226
20, 607195, Pitch_bend_c, 10, 6234
20, 607196, Pitch_bend_c, 10, 6242
20, 607196, Pitch_bend_c, 10, 6249
20, 607197, Pitch_bend_c, 10, 6257
20, 607197, Pitch_bend_c, 10, 6265
20, 607198, Pitch_bend_c, 10, 6273
20, 607198, Pitch_bend_c, 10, 6281
20, 607199, Pitch_bend_c, 10, 6289
20, 607199, Pitch_bend_c, 10, 6297
20, 607200, Pitch_bend_c, 10, 6304
20, 607200, Pitch_bend_c, 10, 6312
20, 607201, Pitch_bend_c, 10, 6320
20, 607201, Pitch_bend_c, 10, 6328
20, 607202, Pitch_bend_c, 10, 6336
20, 607202, Pitch_bend_c, 10, 6344
20, 607203, Pitch_bend_c, 10, 6352
20, 607203, Pitch_bend_c, 10, 6360
20, 607204, Pitch_bend_c, 10, 6367
20, 607204, Pitch_bend_c, 10, 6375
20, 607205, Pitch_bend_c, 10, 6383
20, 607205, Pitch_bend_c, 10, 6391
20, 607206, Pitch_bend_c, 10, 6399
20, 607206, Pitch_bend_c, 10, 6407
20, 607207, Pitch_bend_c, 10, 6415
20, 607207, Pitch_bend_c, 10, 6422
20, 607208, Pitch_bend_c, 10, 6430
20, 607208, Pitch_bend_c, 10, 6438
20, 607209, Pitch_bend_c, 10, 6446
20, 607209, Pitch_bend_c, 10, 6454
20, 607210, Pitch_bend_c, 10, 6462
20, 607210, Pitch_bend_c, 10, 6470
20, 607211, Pitch_bend_c, 10, 6478
20, 607211, Pitch_bend_c, 10, 6485
20, 607212, Pitch_bend_c, 10, 6493
20, 607212, Pitch_bend_c, 10, 6501
20, 607213, Pitch_bend_c, 10, 6509
20, 607213, Pitch_bend_c, 10, 6517
20, 607214, Pitch_bend_c, 10, 6525
20, 607214, Pitch_bend_c, 10, 6533
20, 607215, Pitch_bend_c, 10, 6540
20, 607215, Pitch_bend_c, 10, 6548
20, 607216, Pitch_bend_c, 10, 6556
20, 607216, Pitch_bend_c, 10, 6564
20, 607217, Pitch_bend_c, 10, 6572
20, 607217, Pitch_bend_c, 10, 6580
20, 607218, Pitch_bend_c, 10, 6588
20, 607218, Pitch_bend_c, 10, 6596
20, 607219, Pitch_bend_c, 10, 6603
20, 607219, Pitch_bend_c, 10, 6611
20, 607220, Pitch_bend_c, 10, 6619
20, 607220, Pitch_bend_c, 10, 6627
20, 607221, Pitch_bend_c, 10, 6635
20, 607221, Pitch_bend_c, 10, 6643
20, 607222, Pitch_bend_c, 10, 6651
20, 607222, Pitch_bend_c, 10, 6658
20, 607223, Pitch_bend_c, 10, 6666
20, 607223, Pitch_bend_c, 10, 6674
20, 607224, Pitch_bend_c, 10, 6682
20, 607224, Pitch_bend_c, 10, 6690
20, 607225, Pitch_bend_c, 10, 6698
20, 607225, Pitch_bend_c, 10, 6706
20, 607226, Pitch_bend_c, 10, 6714
20, 607226, Pitch_bend_c, 10, 6721
20, 607227, Pitch_bend_c, 10, 6729
20, 607227, Pitch_bend_c, 10, 6737
20, 607228, Pitch_bend_c, 10, 6745
20, 607228, Pitch_bend_c, 10, 6753
20, 607229, Pitch_bend_c, 10, 6761
20, 607229, Pitch_bend_c, 10, 6769
20, 607230, Pitch_bend_c, 10, 6776
20, 607230, Pitch_bend_c, 10, 6784
20, 607231, Pitch_bend_c, 10, 6792
20, 607231, Pitch_bend_c, 10, 6800
20, 607232, Pitch_bend_c, 10, 6808
20, 607232, Pitch_bend_c, 10, 6816
20, 607233, Pitch_bend_c, 10, 6824
20, 607233, Pitch_bend_c, 10, 6832
20, 607234, Pitch_bend_c, 10, 6839
20, 607234, Pitch_bend_c, 10, 6847
20, 607235, Pitch_bend_c, 10, 6855
20, 607235, Pitch_bend_c, 10, 6863
20, 607236, Pitch_bend_c, 10, 6871
20, 607236, Pitch_bend_c, 10, 6879
20, 607237, Pitch_bend_c, 10, 6887
20, 607237, Pitch_bend_c, 10, 6894
20, 607238, Pitch_bend_c, 10, 6902
20, 607238, Pitch_bend_c, 10, 6910
20, 607239, Pitch_bend_c, 10, 6918
20, 607239, Pitch_bend_c, 10, 6926
20, 607240, Pitch_bend_c, 10, 6934
20, 607240, Pitch_bend_c, 10, 6942
20, 607241, Pitch_bend_c, 10, 6950
20, 607241, Pitch_bend_c, 10, 6957
20, 607242, Pitch_bend_c, 10, 6965
20, 607242, Pitch_bend_c, 10, 6973
20, 607243, Pitch_bend_c, 10, 6981
20, 607243, Pitch_bend_c, 10, 6989
20, 607244, Pitch_bend_c, 10, 6997
20, 607244, Pitch_bend_c, 10, 7005
20, 607245, Pitch_bend_c, 10, 7012
20, 607245, Pitch_bend_c, 10, 7020
20, 607246, Pitch_bend_c, 10, 7028
20, 607246, Pitch_bend_c, 10, 7036
20, 607247, Pitch_bend_c, 10, 7044
20, 607247, Pitch_bend_c, 10, 7052
20, 607248, Pitch_bend_c, 10, 7060
20, 607248, Pitch_bend_c, 10, 7068
20, 607249, Pitch_bend_c, 10, 7075
20, 607249, Pitch_bend_c, 10, 7083
20, 607250, Pitch_bend_c, 10, 7091
20, 607250, Pitch_bend_c, 10, 7099
20, 607251, Pitch_bend_c, 10, 7107
20, 607251, Pitch_bend_c, 10, 7115
20, 607252, Pitch_bend_c, 10, 7123
20, 607252, Pitch_bend_c, 10, 7130
20, 607253, Pitch_bend_c, 10, 7138
20, 607253, Pitch_bend_c, 10, 7146
20, 607254, Pitch_bend_c, 10, 7154
20, 607254, Pitch_bend_c, 10, 7162
20, 607255, Pitch_bend_c, 10, 7170
20, 607255, Pitch_bend_c, 10, 7178
20, 607256, Pitch_bend_c, 10, 7186
20, 607256, Pitch_bend_c, 10, 7193
20, 607257, Pitch_bend_c, 10, 7201
20, 607257, Pitch_bend_c, 10, 7209
20, 607258, Pitch_bend_c, 10, 7217
20, 607258, Pitch_bend_c, 10, 7225
20, 607259, Pitch_bend_c, 10, 7233
20, 607259, Pitch_bend_c, 10, 7241
20, 607260, Pitch_bend_c, 10, 7248
20, 607260, Pitch_bend_c, 10, 7256
20, 607261, Pitch_bend_c, 10, 7264
20, 607261, Pitch_bend_c, 10, 7272
20, 607262, Pitch_bend_c, 10, 7280
20, 607262, Pitch_bend_c, 10, 7288
20, 607263, Pitch_bend_c, 10, 7296
20, 607263, Pitch_bend_c, 10, 7304
20, 607264, Pitch_bend_c, 10, 7311
20, 607264, Pitch_bend_c, 10, 7319
20, 607265, Pitch_bend_c, 10, 7327
20, 607265, Pitch_bend_c, 10, 7335
20, 607266, Pitch_bend_c, 10, 7343
20, 607266, Pitch_bend_c, 10, 7351
20, 607267, Pitch_bend_c, 10, 7359
20, 607267, Pitch_bend_c, 10, 7366
20, 607268, Pitch_bend_c, 10, 7374
20, 607268, Pitch_bend_c, 10, 7382
20, 607269, Pitch_bend_c, 10, 7390
20, 607269, Pitch_bend_c, 10, 7398
20, 607270, Pitch_bend_c, 10, 7406
20, 607270, Pitch_bend_c, 10, 7414
20, 607271, Pitch_bend_c, 10, 7422
20, 607271, Pitch_bend_c, 10, 7429
20, 607272, Pitch_bend_c, 10, 7437
20, 607272, Pitch_bend_c, 10, 7445
20, 607273, Pitch_bend_c, 10, 7453
20, 607273, Pitch_bend_c, 10, 7461
20, 607274, Pitch_bend_c, 10, 7469
20, 607274, Pitch_bend_c, 10, 7477
20, 607275, Pitch_bend_c, 10, 7484
20, 607275, Pitch_bend_c, 10, 7492
20, 607276, Pitch_bend_c, 10, 7500
20, 607276, Pitch_bend_c, 10, 7508
20, 607277, Pitch_bend_c, 10, 7516
20, 607277, Pitch_bend_c, 10, 7524
20, 607278, Pitch_bend_c, 10, 7532
20, 607278, Pitch_bend_c, 10, 7540
20, 607279, Pitch_bend_c, 10, 7547
20, 607279, Pitch_bend_c, 10, 7555
20, 607280, Pitch_bend_c, 10, 7563
20, 607280, Pitch_bend_c, 10, 7571
20, 607281, Pitch_bend_c, 10, 7579
20, 607281, Pitch_bend_c, 10, 7587
20, 607282, Pitch_bend_c, 10, 7595
20, 607282, Pitch_bend_c, 10, 7602
20, 607283, Pitch_bend_c, 10, 7610
20, 607283, Pitch_bend_c, 10, 7618
20, 607284, Pitch_bend_c, 10, 7626
20, 607284, Pitch_bend_c, 10, 7634
20, 607285, Pitch_bend_c, 10, 7642
20, 607285, Pitch_bend_c, 10, 7650
20, 607286, Pitch_bend_c, 10, 7658
20, 607286, Pitch_bend_c, 10, 7665
20, 607287, Pitch_bend_c, 10, 7673
20, 607287, Pitch_bend_c, 10, 7681
20, 607288, Pitch_bend_c, 10, 7689
20, 607288, Pitch_bend_c, 10, 7697
20, 607289, Pitch_bend_c, 10, 7705
20, 607289, Pitch_bend_c, 10, 7713
20, 607290, Pitch_bend_c, 10, 7720
20, 607290, Pitch_bend_c, 10, 7728
20, 607291, Pitch_bend_c, 10, 7736
20, 607291, Pitch_bend_c, 10, 7744
20, 607292, Pitch_bend_c, 10, 7752
20, 607292, Pitch_bend_c, 10, 7760
20, 607293, Pitch_bend_c, 10, 7768
20, 607293, Pitch_bend_c, 10, 7776
20, 607294, Pitch_bend_c, 10, 7783
20, 607294, Pitch_bend_c, 10, 7791
20, 607295, Pitch_bend_c, 10, 7799
20, 607295, Pitch_bend_c, 10, 7807
20, 607296, Pitch_bend_c, 10, 7815
20, 607296, Pitch_bend_c, 10, 7823
20, 607297, Pitch_bend_c, 10, 7831
20, 607297, Pitch_bend_c, 10, 7838
20, 607298, Pitch_bend_c, 10, 7846
20, 607298, Pitch_bend_c, 10, 7854
20, 607299, Pitch_bend_c, 10, 7862
20, 607299, Pitch_bend_c, 10, 7870
20, 607300, Pitch_bend_c, 10, 7878
20, 607300, Pitch_bend_c, 10, 7886
20, 607301, Pitch_bend_c, 10, 7894
20, 607301, Pitch_bend_c, 10, 7901
20, 607302, Pitch_bend_c, 10, 7909
20, 607302, Pitch_bend_c, 10, 7917
20, 607303, Pitch_bend_c, 10, 7925
20, 607303, Pitch_bend_c, 10, 7933
20, 607304, Pitch_bend_c, 10, 7941
20, 607304, Pitch_bend_c, 10, 7949
20, 607305, Pitch_bend_c, 10, 7956
20, 607305, Pitch_bend_c, 10, 7964
20, 607306, Pitch_bend_c, 10, 7972
20, 607306, Pitch_bend_c, 10, 7980
20, 607307, Pitch_bend_c, 10, 7988
20, 607307, Pitch_bend_c, 10, 7996
20, 607308, Pitch_bend_c, 10, 8004
20, 607308, Pitch_bend_c, 10, 8012
20, 607309, Pitch_bend_c, 10, 8019
20, 607309, Pitch_bend_c, 10, 8027
20, 607310, Pitch_bend_c, 10, 8035
20, 607310, Pitch_bend_c, 10, 8043
20, 607311, Pitch_bend_c, 10, 8051
20, 607311, Pitch_bend_c, 10, 8059
20, 607312, Pitch_bend_c, 10, 8067
20, 607312, Pitch_bend_c, 10, 8074
20, 607313, Pitch_bend_c, 10, 8082
20, 607313, Pitch_bend_c, 10, 8090
20, 607314, Pitch_bend_c, 10, 8098
20, 607314, Pitch_bend_c, 10, 8106
20, 607315, Pitch_bend_c, 10, 8114
20, 607315, Pitch_bend_c, 10, 8122
20, 607316, Pitch_bend_c, 10, 8130
20, 607316, Pitch_bend_c, 10, 8137
20, 607317, Pitch_bend_c, 10, 8145
20, 607317, Pitch_bend_c, 10, 8153
20, 607318, Pitch_bend_c, 10, 8161
20, 607318, Pitch_bend_c, 10, 8169
20, 607319, Pitch_bend_c, 10, 8177
20, 607319, Pitch_bend_c, 10, 8185
20, 607320, Pitch_bend_c, 10, 8192
20, 607342, Note_on_c, 10, 51, 0
20, 609480, Pitch_bend_c, 10, 4416
20, 609480, Pitch_bend_c, 10, 4424
20, 609481, Pitch_bend_c, 10, 4432
20, 609481, Pitch_bend_c, 10, 4440
20, 609482, Pitch_bend_c, 10, 4448
20, 609482, Pitch_bend_c, 10, 4456
20, 609483, Pitch_bend_c, 10, 4464
20, 609483, Pitch_bend_c, 10, 4472
20, 609484, Pitch_bend_c, 10, 4479
20, 609484, Pitch_bend_c, 10, 4487
20, 609485, Pitch_bend_c, 10, 4495
20, 609485, Pitch_bend_c, 10, 4503
20, 609486, Pitch_bend_c, 10, 4511
20, 609486, Note_on_c, 10, 51, 114
20, 609486, Pitch_bend_c, 10, 4519
20, 609487, Pitch_bend_c, 10, 4527
20, 609487, Pitch_bend_c, 10, 4534
20, 609488, Pitch_bend_c, 10, 4542
20, 609488, Pitch_bend_c, 10, 4550
20, 609489, Pitch_bend_c, 10, 4558
20, 609489, Pitch_bend_c, 10, 4566
20, 609490, Pitch_bend_c, 10, 4574
20, 609490, Pitch_bend_c, 10, 4582
20, 609491, Pitch_bend_c, 10, 4590
20, 609491, Pitch_bend_c, 10, 4597
20, 609492, Pitch_bend_c, 10, 4605
20, 609492, Pitch_bend_c, 10, 4613
20, 609493, Pitch_bend_c, 10, 4621
20, 609493, Pitch_bend_c, 10, 4629
20, 609494, Pitch_bend_c, 10, 4637
20, 609494, Pitch_bend_c, 10, 4645
20, 609495, Pitch_bend_c, 10, 4652
20, 609495, Pitch_bend_c, 10, 4660
20, 609496, Pitch_bend_c, 10, 4668
20, 609496, Pitch_bend_c, 10, 4676
20, 609497, Pitch_bend_c, 10, 4684
20, 609497, Pitch_bend_c, 10, 4692
20, 609498, Pitch_bend_c, 10, 4700
20, 609498, Pitch_bend_c, 10, 4708
20, 609499, Pitch_bend_c, 10, 4715
20, 609499, Pitch_bend_c, 10, 4723
20, 609500, Pitch_bend_c, 10, 4731
20, 609500, Pitch_bend_c, 10, 4739
20, 609501, Pitch_bend_c, 10, 4747
20, 609501, Pitch_bend_c, 10, 4755
20, 609502, Pitch_bend_c, 10, 4763
20, 609502, Pitch_bend_c, 10, 4770
20, 609503, Pitch_bend_c, 10, 4778
20, 609503, Pitch_bend_c, 10, 4786
20, 609504, Pitch_bend_c, 10, 4794
20, 609504, Pitch_bend_c, 10, 4802
20, 609505, Pitch_bend_c, 10, 4810
20, 609505, Pitch_bend_c, 10, 4818
20, 609506, Pitch_bend_c, 10, 4826
20, 609506, Pitch_bend_c, 10, 4833
20, 609507, Pitch_bend_c, 10, 4841
20, 609507, Pitch_bend_c, 10, 4849
20, 609508, Pitch_bend_c, 10, 4857
20, 609508, Pitch_bend_c, 10, 4865
20, 609509, Pitch_bend_c, 10, 4873
20, 609509, Pitch_bend_c, 10, 4881
20, 609510, Pitch_bend_c, 10, 4888
20, 609510, Pitch_bend_c, 10, 4896
20, 609511, Pitch_bend_c, 10, 4904
20, 609511, Pitch_bend_c, 10, 4912
20, 609512, Pitch_bend_c, 10, 4920
20, 609512, Pitch_bend_c, 10, 4928
20, 609513, Pitch_bend_c, 10, 4936
20, 609513, Pitch_bend_c, 10, 4944
20, 609514, Pitch_bend_c, 10, 4951
20, 609514, Pitch_bend_c, 10, 4959
20, 609515, Pitch_bend_c, 10, 4967
20, 609515, Pitch_bend_c, 10, 4975
20, 609516, Pitch_bend_c, 10, 4983
20, 609516, Pitch_bend_c, 10, 4991
20, 609517, Pitch_bend_c, 10, 4999
20, 609517, Pitch_bend_c, 10, 5006
20, 609518, Pitch_bend_c, 10, 5014
20, 609518, Pitch_bend_c, 10, 5022
20, 609519, Pitch_bend_c, 10, 5030
20, 609519, Pitch_bend_c, 10, 5038
20, 609520, Pitch_bend_c, 10, 5046
20, 609520, Pitch_bend_c, 10, 5054
20, 609521, Pitch_bend_c, 10, 5062
20, 609521, Pitch_bend_c, 10, 5069
20, 609522, Pitch_bend_c, 10, 5077
20, 609522, Pitch_bend_c, 10, 5085
20, 609523, Pitch_bend_c, 10, 5093
20, 609523, Pitch_bend_c, 10, 5101
20, 609524, Pitch_bend_c, 10, 5109
20, 609524, Pitch_bend_c, 10, 5117
20, 609525, Pitch_bend_c, 10, 5124
20, 609525, Pitch_bend_c, 10, 5132
20, 609526, Pitch_bend_c, 10, 5140
20, 609526, Pitch_bend_c, 10, 5148
20, 609527, Pitch_bend_c, 10, 5156
20, 609527, Pitch_bend_c, 10, 5164
20, 609528, Pitch_bend_c, 10, 5172
20, 609528, Pitch_bend_c, 10, 5180
20, 609529, Pitch_bend_c, 10, 5187
20, 609529, Pitch_bend_c, 10, 5195
20, 609530, Pitch_bend_c, 10, 5203
20, 609530, Pitch_bend_c, 10, 5211
20, 609531, Pitch_bend_c, 10, 5219
20, 609531, Pitch_bend_c, 10, 5227
20, 609532, Pitch_bend_c, 10, 5235
20, 609532, Pitch_bend_c, 10, 5242
20, 609533, Pitch_bend_c, 10, 5250
20, 609533, Pitch_bend_c, 10, 5258
20, 609534, Pitch_bend_c, 10, 5266
20, 609534, Pitch_bend_c, 10, 5274
20, 609535, Pitch_bend_c, 10, 5282
20, 609535, Pitch_bend_c, 10, 5290
20, 609536, Pitch_bend_c, 10, 5298
20, 609536, Pitch_bend_c, 10, 5305
20, 609537, Pitch_bend_c, 10, 5313
20, 609537, Pitch_bend_c, 10, 5321
20, 609538, Pitch_bend_c, 10, 5329
20, 609538, Pitch_bend_c, 10, 5337
20, 609539, Pitch_bend_c, 10, 5345
20, 609539, Pitch_bend_c, 10, 5353
20, 609540, Pitch_bend_c, 10, 5360
20, 609540, Pitch_bend_c, 10, 5368
20, 609541, Pitch_bend_c, 10, 5376
20, 609541, Pitch_bend_c, 10, 5384
20, 609542, Pitch_bend_c, 10, 5392
20, 609542, Pitch_bend_c, 10, 5400
20, 609543, Pitch_bend_c, 10, 5408
20, 609543, Pitch_bend_c, 10, 5416
20, 609544, Pitch_bend_c, 10, 5423
20, 609544, Pitch_bend_c, 10, 5431
20, 609545, Pitch_bend_c, 10, 5439
20, 609545, Pitch_bend_c, 10, 5447
20, 609546, Pitch_bend_c, 10, 5455
20, 609546, Pitch_bend_c, 10, 5463
20, 609547, Pitch_bend_c, 10, 5471
20, 609547, Pitch_bend_c, 10, 5478
20, 609548, Pitch_bend_c, 10, 5486
20, 609548, Pitch_bend_c, 10, 5494
20, 609549, Pitch_bend_c, 10, 5502
20, 609549, Pitch_bend_c, 10, 5510
20, 609550, Pitch_bend_c, 10, 5518
20, 609550, Pitch_bend_c, 10, 5526
20, 609551, Pitch_bend_c, 10, 5534
20, 609551, Pitch_bend_c, 10, 5541
20, 609552, Pitch_bend_c, 10, 5549
20, 609552, Pitch_bend_c, 10, 5557
20, 609553, Pitch_bend_c, 10, 5565
20, 609553, Pitch_bend_c, 10, 5573
20, 609554, Pitch_bend_c, 10, 5581
20, 609554, Pitch_bend_c, 10, 5589
20, 609555, Pitch_bend_c, 10, 5596
20, 609555, Pitch_bend_c, 10, 5604
20, 609556, Pitch_bend_c, 10, 5612
20, 609556, Pitch_bend_c, 10, 5620
20, 609557, Pitch_bend_c, 10, 5628
20, 609557, Pitch_bend_c, 10, 5636
20, 609558, Pitch_bend_c, 10, 5644
20, 609558, Pitch_bend_c, 10, 5652
20, 609559, Pitch_bend_c, 10, 5659
20, 609559, Pitch_bend_c, 10, 5667
20, 609560, Pitch_bend_c, 10, 5675
20, 609560, Pitch_bend_c, 10, 5683
20, 609561, Pitch_bend_c, 10, 5691
20, 609561, Pitch_bend_c, 10, 5699
20, 609562, Pitch_bend_c, 10, 5707
20, 609562, Pitch_bend_c, 10, 5714
20, 609563, Pitch_bend_c, 10, 5722
20, 609563, Pitch_bend_c, 10, 5730
20, 609564, Pitch_bend_c, 10, 5738
20, 609564, Pitch_bend_c, 10, 5746
20, 609565, Pitch_bend_c, 10, 5754
20, 609565, Pitch_bend_c, 10, 5762
20, 609566, Pitch_bend_c, 10, 5770
20, 609566, Pitch_bend_c, 10, 5777
20, 609567, Pitch_bend_c, 10, 5785
20, 609567, Pitch_bend_c, 10, 5793
20, 609568, Pitch_bend_c, 10, 5801
20, 609568, Pitch_bend_c, 10, 5809
20, 609569, Pitch_bend_c, 10, 5817
20, 609569, Pitch_bend_c, 10, 5825
20, 609570, Pitch_bend_c, 10, 5832
20, 609570, Pitch_bend_c, 10, 5840
20, 609571, Pitch_bend_c, 10, 5848
20, 609571, Pitch_bend_c, 10, 5856
20, 609572, Pitch_bend_c, 10, 5864
20, 609572, Pitch_bend_c, 10, 5872
20, 609573, Pitch_bend_c, 10, 5880
20, 609573, Pitch_bend_c, 10, 5888
20, 609574, Pitch_bend_c, 10, 5895
20, 609574, Pitch_bend_c, 10, 5903
20, 609575, Pitch_bend_c, 10, 5911
20, 609575, Pitch_bend_c, 10, 5919
20, 609576, Pitch_bend_c, 10, 5927
20, 609576, Pitch_bend_c, 10, 5935
20, 609577, Pitch_bend_c, 10, 5943
20, 609577, Pitch_bend_c, 10, 5950
20, 609578, Pitch_bend_c, 10, 5958
20, 609578, Pitch_bend_c, 10, 5966
20, 609579, Pitch_bend_c, 10, 5974
20, 609579, Pitch_bend_c, 10, 5982
20, 609580, Pitch_bend_c, 10, 5990
20, 609580, Pitch_bend_c, 10, 5998
20, 609581, Pitch_bend_c, 10, 6006
20, 609581, Pitch_bend_c, 10, 6013
20, 609582, Pitch_bend_c, 10, 6021
20, 609582, Pitch_bend_c, 10, 6029
20, 609583, Pitch_bend_c, 10, 6037
20, 609583, Pitch_bend_c, 10, 6045
20, 609584, Pitch_bend_c, 10, 6053
20, 609584, Pitch_bend_c, 10, 6061
20, 609585, Pitch_bend_c, 10, 6068
20, 609585, Pitch_bend_c, 10, 6076
20, 609586, Pitch_bend_c, 10, 6084
20, 609586, Pitch_bend_c, 10, 6092
20, 609587, Pitch_bend_c, 10, 6100
20, 609587, Pitch_bend_c, 10, 6108
20, 609588, Pitch_bend_c, 10, 6116
20, 609588, Pitch_bend_c, 10, 6124
20, 609589, Pitch_bend_c, 10, 6131
20, 609589, Pitch_bend_c, 10, 6139
20, 609590, Pitch_bend_c, 10, 6147
20, 609590, Pitch_bend_c, 10, 6155
20, 609591, Pitch_bend_c, 10, 6163
20, 609591, Pitch_bend_c, 10, 6171
20, 609592, Pitch_bend_c, 10, 6179
20, 609592, Pitch_bend_c, 10, 6186
20, 609593, Pitch_bend_c, 10, 6194
20, 609593, Pitch_bend_c, 10, 6202
20, 609594, Pitch_bend_c, 10, 6210
20, 609594, Pitch_bend_c, 10, 6218
20, 609595, Pitch_bend_c, 10, 6226
20, 609595, Pitch_bend_c, 10, 6234
20, 609596, Pitch_bend_c, 10, 6242
20, 609596, Pitch_bend_c, 10, 6249
20, 609597, Pitch_bend_c, 10, 6257
20, 609597, Pitch_bend_c, 10, 6265
20, 609598, Pitch_bend_c, 10, 6273
20, 609598, Pitch_bend_c, 10, 6281
20, 609599, Pitch_bend_c, 10, 6289
20, 609599, Pitch_bend_c, 10, 6297
20, 609600, Pitch_bend_c, 10, 6304
20, 609600, Pitch_bend_c, 10, 6312
20, 609601, Pitch_bend_c, 10, 6320
20, 609601, Pitch_bend_c, 10, 6328
20, 609602, Pitch_bend_c, 10, 6336
20, 609602, Pitch_bend_c, 10, 6344
20, 609603, Pitch_bend_c, 10, 6352
20, 609603, Pitch_bend_c, 10, 6360
20, 609604, Pitch_bend_c, 10, 6367
20, 609604, Pitch_bend_c, 10, 6375
20, 609605, Pitch_bend_c, 10, 6383
20, 609605, Pitch_bend_c, 10, 6391
20, 609606, Pitch_bend_c, 10, 6399
20, 609606, Pitch_bend_c, 10, 6407
20, 609607, Pitch_bend_c, 10, 6415
20, 609607, Pitch_bend_c, 10, 6422
20, 609608, Pitch_bend_c, 10, 6430
20, 609608, Pitch_bend_c, 10, 6438
20, 609609, Pitch_bend_c, 10, 6446
20, 609609, Pitch_bend_c, 10, 6454
20, 609610, Pitch_bend_c, 10, 6462
20, 609610, Pitch_bend_c, 10, 6470
20, 609611, Pitch_bend_c, 10, 6478
20, 609611, Pitch_bend_c, 10, 6485
20, 609612, Pitch_bend_c, 10, 6493
20, 609612, Pitch_bend_c, 10, 6501
20, 609613, Pitch_bend_c, 10, 6509
20, 609613, Pitch_bend_c, 10, 6517
20, 609614, Pitch_bend_c, 10, 6525
20, 609614, Pitch_bend_c, 10, 6533
20, 609615, Pitch_bend_c, 10, 6540
20, 609615, Pitch_bend_c, 10, 6548
20, 609616, Pitch_bend_c, 10, 6556
20, 609616, Pitch_bend_c, 10, 6564
20, 609617, Pitch_bend_c, 10, 6572
20, 609617, Pitch_bend_c, 10, 6580
20, 609618, Pitch_bend_c, 10, 6588
20, 609618, Pitch_bend_c, 10, 6596
20, 609619, Pitch_bend_c, 10, 6603
20, 609619, Pitch_bend_c, 10, 6611
20, 609620, Pitch_bend_c, 10, 6619
20, 609620, Pitch_bend_c, 10, 6627
20, 609621, Pitch_bend_c, 10, 6635
20, 609621, Pitch_bend_c, 10, 6643
20, 609622, Pitch_bend_c, 10, 6651
20, 609622, Pitch_bend_c, 10, 6658
20, 609623, Pitch_bend_c, 10, 6666
20, 609623, Pitch_bend_c, 10, 6674
20, 609624, Pitch_bend_c, 10, 6682
20, 609624, Pitch_bend_c, 10, 6690
20, 609625, Pitch_bend_c, 10, 6698
20, 609625, Pitch_bend_c, 10, 6706
20, 609626, Pitch_bend_c, 10, 6714
20, 609626, Pitch_bend_c, 10, 6721
20, 609627, Pitch_bend_c, 10, 6729
20, 609627, Pitch_bend_c, 10, 6737
20, 609628, Pitch_bend_c, 10, 6745
20, 609628, Pitch_bend_c, 10, 6753
20, 609629, Pitch_bend_c, 10, 6761
20, 609629, Pitch_bend_c, 10, 6769
20, 609630, Pitch_bend_c, 10, 6776
20, 609630, Pitch_bend_c, 10, 6784
20, 609631, Pitch_bend_c, 10, 6792
20, 609631, Pitch_bend_c, 10, 6800
20, 609632, Pitch_bend_c, 10, 6808
20, 609632, Pitch_bend_c, 10, 6816
20, 609633, Pitch_bend_c, 10, 6824
20, 609633, Pitch_bend_c, 10, 6832
20, 609634, Pitch_bend_c, 10, 6839
20, 609634, Pitch_bend_c, 10, 6847
20, 609635, Pitch_bend_c, 10, 6855
20, 609635, Pitch_bend_c, 10, 6863
20, 609636, Pitch_bend_c, 10, 6871
20, 609636, Pitch_bend_c, 10, 6879
20, 609637, Pitch_bend_c, 10, 6887
20, 609637, Pitch_bend_c, 10, 6894
20, 609638, Pitch_bend_c, 10, 6902
20, 609638, Pitch_bend_c, 10, 6910
20, 609639, Pitch_bend_c, 10, 6918
20, 609639, Pitch_bend_c, 10, 6926
20, 609640, Pitch_bend_c, 10, 6934
20, 609640, Pitch_bend_c, 10, 6942
20, 609641, Pitch_bend_c, 10, 6950
20, 609641, Pitch_bend_c, 10, 6957
20, 609642, Pitch_bend_c, 10, 6965
20, 609642, Pitch_bend_c, 10, 6973
20, 609643, Pitch_bend_c, 10, 6981
20, 609643, Pitch_bend_c, 10, 6989
20, 609644, Pitch_bend_c, 10, 6997
20, 609644, Pitch_bend_c, 10, 7005
20, 609645, Pitch_bend_c, 10, 7012
20, 609645, Pitch_bend_c, 10, 7020
20, 609646, Pitch_bend_c, 10, 7028
20, 609646, Pitch_bend_c, 10, 7036
20, 609647, Pitch_bend_c, 10, 7044
20, 609647, Pitch_bend_c, 10, 7052
20, 609648, Pitch_bend_c, 10, 7060
20, 609648, Pitch_bend_c, 10, 7068
20, 609649, Pitch_bend_c, 10, 7075
20, 609649, Pitch_bend_c, 10, 7083
20, 609650, Pitch_bend_c, 10, 7091
20, 609650, Pitch_bend_c, 10, 7099
20, 609651, Pitch_bend_c, 10, 7107
20, 609651, Pitch_bend_c, 10, 7115
20, 609652, Pitch_bend_c, 10, 7123
20, 609652, Pitch_bend_c, 10, 7130
20, 609653, Pitch_bend_c, 10, 7138
20, 609653, Pitch_bend_c, 10, 7146
20, 609654, Pitch_bend_c, 10, 7154
20, 609654, Pitch_bend_c, 10, 7162
20, 609655, Pitch_bend_c, 10, 7170
20, 609655, Pitch_bend_c, 10, 7178
20, 609656, Pitch_bend_c, 10, 7186
20, 609656, Pitch_bend_c, 10, 7193
20, 609657, Pitch_bend_c, 10, 7201
20, 609657, Pitch_bend_c, 10, 7209
20, 609658, Pitch_bend_c, 10, 7217
20, 609658, Pitch_bend_c, 10, 7225
20, 609659, Pitch_bend_c, 10, 7233
20, 609659, Pitch_bend_c, 10, 7241
20, 609660, Pitch_bend_c, 10, 7248
20, 609660, Pitch_bend_c, 10, 7256
20, 609661, Pitch_bend_c, 10, 7264
20, 609661, Pitch_bend_c, 10, 7272
20, 609662, Pitch_bend_c, 10, 7280
20, 609662, Pitch_bend_c, 10, 7288
20, 609663, Pitch_bend_c, 10, 7296
20, 609663, Pitch_bend_c, 10, 7304
20, 609664, Pitch_bend_c, 10, 7311
20, 609664, Pitch_bend_c, 10, 7319
20, 609665, Pitch_bend_c, 10, 7327
20, 609665, Pitch_bend_c, 10, 7335
20, 609666, Pitch_bend_c, 10, 7343
20, 609666, Pitch_bend_c, 10, 7351
20, 609667, Pitch_bend_c, 10, 7359
20, 609667, Pitch_bend_c, 10, 7366
20, 609668, Pitch_bend_c, 10, 7374
20, 609668, Pitch_bend_c, 10, 7382
20, 609669, Pitch_bend_c, 10, 7390
20, 609669, Pitch_bend_c, 10, 7398
20, 609670, Pitch_bend_c, 10, 7406
20, 609670, Pitch_bend_c, 10, 7414
20, 609671, Pitch_bend_c, 10, 7422
20, 609671, Pitch_bend_c, 10, 7429
20, 609672, Pitch_bend_c, 10, 7437
20, 609672, Pitch_bend_c, 10, 7445
20, 609673, Pitch_bend_c, 10, 7453
20, 609673, Pitch_bend_c, 10, 7461
20, 609674, Pitch_bend_c, 10, 7469
20, 609674, Pitch_bend_c, 10, 7477
20, 609675, Pitch_bend_c, 10, 7484
20, 609675, Pitch_bend_c, 10, 7492
20, 609676, Pitch_bend_c, 10, 7500
20, 609676, Pitch_bend_c, 10, 7508
20, 609677, Pitch_bend_c, 10, 7516
20, 609677, Pitch_bend_c, 10, 7524
20, 609678, Pitch_bend_c, 10, 7532
20, 609678, Pitch_bend_c, 10, 7540
20, 609679, Pitch_bend_c, 10, 7547
20, 609679, Pitch_bend_c, 10, 7555
20, 609680, Pitch_bend_c, 10, 7563
20, 609680, Pitch_bend_c, 10, 7571
20, 609681, Pitch_bend_c, 10, 7579
20, 609681, Pitch_bend_c, 10, 7587
20, 609682, Pitch_bend_c, 10, 7595
20, 609682, Pitch_bend_c, 10, 7602
20, 609683, Pitch_bend_c, 10, 7610
20, 609683, Pitch_bend_c, 10, 7618
20, 609684, Pitch_bend_c, 10, 7626
20, 609684, Pitch_bend_c, 10, 7634
20, 609685, Pitch_bend_c, 10, 7642
20, 609685, Pitch_bend_c, 10, 7650
20, 609686, Pitch_bend_c, 10, 7658
20, 609686, Pitch_bend_c, 10, 7665
20, 609687, Pitch_bend_c, 10, 7673
20, 609687, Pitch_bend_c, 10, 7681
20, 609688, Pitch_bend_c, 10, 7689
20, 609688, Pitch_bend_c, 10, 7697
20, 609689, Pitch_bend_c, 10, 7705
20, 609689, Pitch_bend_c, 10, 7713
20, 609690, Pitch_bend_c, 10, 7720
20, 609690, Pitch_bend_c, 10, 7728
20, 609691, Pitch_bend_c, 10, 7736
20, 609691, Pitch_bend_c, 10, 7744
20, 609692, Pitch_bend_c, 10, 7752
20, 609692, Pitch_bend_c, 10, 7760
20, 609693, Pitch_bend_c, 10, 7768
20, 609693, Pitch_bend_c, 10, 7776
20, 609694, Pitch_bend_c, 10, 7783
20, 609694, Pitch_bend_c, 10, 7791
20, 609695, Pitch_bend_c, 10, 7799
20, 609695, Pitch_bend_c, 10, 7807
20, 609696, Pitch_bend_c, 10, 7815
20, 609696, Pitch_bend_c, 10, 7823
20, 609697, Pitch_bend_c, 10, 7831
20, 609697, Pitch_bend_c, 10, 7838
20, 609698, Pitch_bend_c, 10, 7846
20, 609698, Pitch_bend_c, 10, 7854
20, 609699, Pitch_bend_c, 10, 7862
20, 609699, Pitch_bend_c, 10, 7870
20, 609700, Pitch_bend_c, 10, 7878
20, 609700, Pitch_bend_c, 10, 7886
20, 609701, Pitch_bend_c, 10, 7894
20, 609701, Pitch_bend_c, 10, 7901
20, 609702, Pitch_bend_c, 10, 7909
20, 609702, Pitch_bend_c, 10, 7917
20, 609703, Pitch_bend_c, 10, 7925
20, 609703, Pitch_bend_c, 10, 7933
20, 609704, Pitch_bend_c, 10, 7941
20, 609704, Pitch_bend_c, 10, 7949
20, 609705, Pitch_bend_c, 10, 7956
20, 609705, Pitch_bend_c, 10, 7964
20, 609706, Pitch_bend_c, 10, 7972
20, 609706, Pitch_bend_c, 10, 7980
20, 609707, Pitch_bend_c, 10, 7988
20, 609707, Pitch_bend_c, 10, 7996
20, 609708, Pitch_bend_c, 10, 8004
20, 609708, Pitch_bend_c, 10, 8012
20, 609709, Pitch_bend_c, 10, 8019
20, 609709, Pitch_bend_c, 10, 8027
20, 609710, Pitch_bend_c, 10, 8035
20, 609710, Pitch_bend_c, 10, 8043
20, 609711, Pitch_bend_c, 10, 8051
20, 609711, Pitch_bend_c, 10, 8059
20, 609712, Pitch_bend_c, 10, 8067
20, 609712, Pitch_bend_c, 10, 8074
20, 609713, Pitch_bend_c, 10, 8082
20, 609713, Pitch_bend_c, 10, 8090
20, 609714, Pitch_bend_c, 10, 8098
20, 609714, Pitch_bend_c, 10, 8106
20, 609715, Pitch_bend_c, 10, 8114
20, 609715, Pitch_bend_c, 10, 8122
20, 609716, Pitch_bend_c, 10, 8130
20, 609716, Pitch_bend_c, 10, 8137
20, 609717, Pitch_bend_c, 10, 8145
20, 609717, Pitch_bend_c, 10, 8153
20, 609718, Pitch_bend_c, 10, 8161
20, 609718, Pitch_bend_c, 10, 8169
20, 609719, Pitch_bend_c, 10, 8177
20, 609719, Pitch_bend_c, 10, 8185
20, 609720, Pitch_bend_c, 10, 8192
20, 609726, Note_on_c, 10, 51, 0
20, 611880, Pitch_bend_c, 10, 4416
20, 611880, Pitch_bend_c, 10, 4424
20, 611881, Pitch_bend_c, 10, 4432
20, 611881, Pitch_bend_c, 10, 4440
20, 611882, Pitch_bend_c, 10, 4448
20, 611882, Pitch_bend_c, 10, 4456
20, 611883, Pitch_bend_c, 10, 4464
20, 611883, Pitch_bend_c, 10, 4472
20, 611884, Pitch_bend_c, 10, 4479
20, 611884, Pitch_bend_c, 10, 4487
20, 611885, Pitch_bend_c, 10, 4495
20, 611885, Pitch_bend_c, 10, 4503
20, 611886, Pitch_bend_c, 10, 4511
20, 611886, Pitch_bend_c, 10, 4519
20, 611887, Pitch_bend_c, 10, 4527
20, 611887, Pitch_bend_c, 10, 4534
20, 611888, Pitch_bend_c, 10, 4542
20, 611888, Pitch_bend_c, 10, 4550
20, 611889, Pitch_bend_c, 10, 4558
20, 611889, Pitch_bend_c, 10, 4566
20, 611890, Pitch_bend_c, 10, 4574
20, 611890, Pitch_bend_c, 10, 4582
20, 611891, Pitch_bend_c, 10, 4590
20, 611891, Pitch_bend_c, 10, 4597
20, 611892, Pitch_bend_c, 10, 4605
20, 611892, Pitch_bend_c, 10, 4613
20, 611893, Pitch_bend_c, 10, 4621
20, 611893, Pitch_bend_c, 10, 4629
20, 611894, Pitch_bend_c, 10, 4637
20, 611894, Pitch_bend_c, 10, 4645
20, 611895, Pitch_bend_c, 10, 4652
20, 611895, Pitch_bend_c, 10, 4660
20, 611896, Pitch_bend_c, 10, 4668
20, 611896, Pitch_bend_c, 10, 4676
20, 611897, Pitch_bend_c, 10, 4684
20, 611897, Pitch_bend_c, 10, 4692
20, 611898, Pitch_bend_c, 10, 4700
20, 611898, Pitch_bend_c, 10, 4708
20, 611899, Pitch_bend_c, 10, 4715
20, 611899, Pitch_bend_c, 10, 4723
20, 611900, Pitch_bend_c, 10, 4731
20, 611900, Pitch_bend_c, 10, 4739
20, 611901, Pitch_bend_c, 10, 4747
20, 611901, Pitch_bend_c, 10, 4755
20, 611902, Note_on_c, 10, 51, 110
20, 611902, Pitch_bend_c, 10, 4763
20, 611902, Pitch_bend_c, 10, 4770
20, 611903, Pitch_bend_c, 10, 4778
20, 611903, Pitch_bend_c, 10, 4786
20, 611904, Pitch_bend_c, 10, 4794
20, 611904, Pitch_bend_c, 10, 4802
20, 611905, Pitch_bend_c, 10, 4810
20, 611905, Pitch_bend_c, 10, 4818
20, 611906, Pitch_bend_c, 10, 4826
20, 611906, Pitch_bend_c, 10, 4833
20, 611907, Pitch_bend_c, 10, 4841
20, 611907, Pitch_bend_c, 10, 4849
20, 611908, Pitch_bend_c, 10, 4857
20, 611908, Pitch_bend_c, 10, 4865
20, 611909, Pitch_bend_c, 10, 4873
20, 611909, Pitch_bend_c, 10, 4881
20, 611910, Pitch_bend_c, 10, 4888
20, 611910, Pitch_bend_c, 10, 4896
20, 611911, Pitch_bend_c, 10, 4904
20, 611911, Pitch_bend_c, 10, 4912
20, 611912, Pitch_bend_c, 10, 4920
20, 611912, Pitch_bend_c, 10, 4928
20, 611913, Pitch_bend_c, 10, 4936
20, 611913, Pitch_bend_c, 10, 4944
20, 611914, Pitch_bend_c, 10, 4951
20, 611914, Pitch_bend_c, 10, 4959
20, 611915, Pitch_bend_c, 10, 4967
20, 611915, Pitch_bend_c, 10, 4975
20, 611916, Pitch_bend_c, 10, 4983
20, 611916, Pitch_bend_c, 10, 4991
20, 611917, Pitch_bend_c, 10, 4999
20, 611917, Pitch_bend_c, 10, 5006
20, 611918, Pitch_bend_c, 10, 5014
20, 611918, Pitch_bend_c, 10, 5022
20, 611919, Pitch_bend_c, 10, 5030
20, 611919, Pitch_bend_c, 10, 5038
20, 611920, Pitch_bend_c, 10, 5046
20, 611920, Pitch_bend_c, 10, 5054
20, 611921, Pitch_bend_c, 10, 5062
20, 611921, Pitch_bend_c, 10, 5069
20, 611922, Pitch_bend_c, 10, 5077
20, 611922, Pitch_bend_c, 10, 5085
20, 611923, Pitch_bend_c, 10, 5093
20, 611923, Pitch_bend_c, 10, 5101
20, 611924, Pitch_bend_c, 10, 5109
20, 611924, Pitch_bend_c, 10, 5117
20, 611925, Pitch_bend_c, 10, 5124
20, 611925, Pitch_bend_c, 10, 5132
20, 611926, Pitch_bend_c, 10, 5140
20, 611926, Pitch_bend_c, 10, 5148
20, 611927, Pitch_bend_c, 10, 5156
20, 611927, Pitch_bend_c, 10, 5164
20, 611928, Pitch_bend_c, 10, 5172
20, 611928, Pitch_bend_c, 10, 5180
20, 611929, Pitch_bend_c, 10, 5187
20, 611929, Pitch_bend_c, 10, 5195
20, 611930, Pitch_bend_c, 10, 5203
20, 611930, Pitch_bend_c, 10, 5211
20, 611931, Pitch_bend_c, 10, 5219
20, 611931, Pitch_bend_c, 10, 5227
20, 611932, Pitch_bend_c, 10, 5235
20, 611932, Pitch_bend_c, 10, 5242
20, 611933, Pitch_bend_c, 10, 5250
20, 611933, Pitch_bend_c, 10, 5258
20, 611934, Pitch_bend_c, 10, 5266
20, 611934, Pitch_bend_c, 10, 5274
20, 611935, Pitch_bend_c, 10, 5282
20, 611935, Pitch_bend_c, 10, 5290
20, 611936, Pitch_bend_c, 10, 5298
20, 611936, Pitch_bend_c, 10, 5305
20, 611937, Pitch_bend_c, 10, 5313
20, 611937, Pitch_bend_c, 10, 5321
20, 611938, Pitch_bend_c, 10, 5329
20, 611938, Pitch_bend_c, 10, 5337
20, 611939, Pitch_bend_c, 10, 5345
20, 611939, Pitch_bend_c, 10, 5353
20, 611940, Pitch_bend_c, 10, 5360
20, 611940, Pitch_bend_c, 10, 5368
20, 611941, Pitch_bend_c, 10, 5376
20, 611941, Pitch_bend_c, 10, 5384
20, 611942, Pitch_bend_c, 10, 5392
20, 611942, Pitch_bend_c, 10, 5400
20, 611943, Pitch_bend_c, 10, 5408
20, 611943, Pitch_bend_c, 10, 5416
20, 611944, Pitch_bend_c, 10, 5423
20, 611944, Pitch_bend_c, 10, 5431
20, 611945, Pitch_bend_c, 10, 5439
20, 611945, Pitch_bend_c, 10, 5447
20, 611946, Pitch_bend_c, 10, 5455
20, 611946, Pitch_bend_c, 10, 5463
20, 611947, Pitch_bend_c, 10, 5471
20, 611947, Pitch_bend_c, 10, 5478
20, 611948, Pitch_bend_c, 10, 5486
20, 611948, Pitch_bend_c, 10, 5494
20, 611949, Pitch_bend_c, 10, 5502
20, 611949, Pitch_bend_c, 10, 5510
20, 611950, Pitch_bend_c, 10, 5518
20, 611950, Pitch_bend_c, 10, 5526
20, 611951, Pitch_bend_c, 10, 5534
20, 611951, Pitch_bend_c, 10, 5541
20, 611952, Pitch_bend_c, 10, 5549
20, 611952, Pitch_bend_c, 10, 5557
20, 611953, Pitch_bend_c, 10, 5565
20, 611953, Pitch_bend_c, 10, 5573
20, 611954, Pitch_bend_c, 10, 5581
20, 611954, Pitch_bend_c, 10, 5589
20, 611955, Pitch_bend_c, 10, 5596
20, 611955, Pitch_bend_c, 10, 5604
20, 611956, Pitch_bend_c, 10, 5612
20, 611956, Pitch_bend_c, 10, 5620
20, 611957, Pitch_bend_c, 10, 5628
20, 611957, Pitch_bend_c, 10, 5636
20, 611958, Pitch_bend_c, 10, 5644
20, 611958, Pitch_bend_c, 10, 5652
20, 611959, Pitch_bend_c, 10, 5659
20, 611959, Pitch_bend_c, 10, 5667
20, 611960, Pitch_bend_c, 10, 5675
20, 611960, Pitch_bend_c, 10, 5683
20, 611961, Pitch_bend_c, 10, 5691
20, 611961, Pitch_bend_c, 10, 5699
20, 611962, Pitch_bend_c, 10, 5707
20, 611962, Pitch_bend_c, 10, 5714
20, 611963, Pitch_bend_c, 10, 5722
20, 611963, Pitch_bend_c, 10, 5730
20, 611964, Pitch_bend_c, 10, 5738
20, 611964, Pitch_bend_c, 10, 5746
20, 611965, Pitch_bend_c, 10, 5754
20, 611965, Pitch_bend_c, 10, 5762
20, 611966, Pitch_bend_c, 10, 5770
20, 611966, Pitch_bend_c, 10, 5777
20, 611967, Pitch_bend_c, 10, 5785
20, 611967, Pitch_bend_c, 10, 5793
20, 611968, Pitch_bend_c, 10, 5801
20, 611968, Pitch_bend_c, 10, 5809
20, 611969, Pitch_bend_c, 10, 5817
20, 611969, Pitch_bend_c, 10, 5825
20, 611970, Pitch_bend_c, 10, 5832
20, 611970, Pitch_bend_c, 10, 5840
20, 611971, Pitch_bend_c, 10, 5848
20, 611971, Pitch_bend_c, 10, 5856
20, 611972, Pitch_bend_c, 10, 5864
20, 611972, Pitch_bend_c, 10, 5872
20, 611973, Pitch_bend_c, 10, 5880
20, 611973, Pitch_bend_c, 10, 5888
20, 611974, Pitch_bend_c, 10, 5895
20, 611974, Pitch_bend_c, 10, 5903
20, 611975, Pitch_bend_c, 10, 5911
20, 611975, Pitch_bend_c, 10, 5919
20, 611976, Pitch_bend_c, 10, 5927
20, 611976, Pitch_bend_c, 10, 5935
20, 611977, Pitch_bend_c, 10, 5943
20, 611977, Pitch_bend_c, 10, 5950
20, 611978, Pitch_bend_c, 10, 5958
20, 611978, Pitch_bend_c, 10, 5966
20, 611979, Pitch_bend_c, 10, 5974
20, 611979, Pitch_bend_c, 10, 5982
20, 611980, Pitch_bend_c, 10, 5990
20, 611980, Pitch_bend_c, 10, 5998
20, 611981, Pitch_bend_c, 10, 6006
20, 611981, Pitch_bend_c, 10, 6013
20, 611982, Pitch_bend_c, 10, 6021
20, 611982, Pitch_bend_c, 10, 6029
20, 611983, Pitch_bend_c, 10, 6037
20, 611983, Pitch_bend_c, 10, 6045
20, 611984, Pitch_bend_c, 10, 6053
20, 611984, Pitch_bend_c, 10, 6061
20, 611985, Pitch_bend_c, 10, 6068
20, 611985, Pitch_bend_c, 10, 6076
20, 611986, Pitch_bend_c, 10, 6084
20, 611986, Pitch_bend_c, 10, 6092
20, 611987, Pitch_bend_c, 10, 6100
20, 611987, Pitch_bend_c, 10, 6108
20, 611988, Pitch_bend_c, 10, 6116
20, 611988, Pitch_bend_c, 10, 6124
20, 611989, Pitch_bend_c, 10, 6131
20, 611989, Pitch_bend_c, 10, 6139
20, 611990, Pitch_bend_c, 10, 6147
20, 611990, Pitch_bend_c, 10, 6155
20, 611991, Pitch_bend_c, 10, 6163
20, 611991, Pitch_bend_c, 10, 6171
20, 611992, Pitch_bend_c, 10, 6179
20, 611992, Pitch_bend_c, 10, 6186
20, 611993, Pitch_bend_c, 10, 6194
20, 611993, Pitch_bend_c, 10, 6202
20, 611994, Pitch_bend_c, 10, 6210
20, 611994, Pitch_bend_c, 10, 6218
20, 611995, Pitch_bend_c, 10, 6226
20, 611995, Pitch_bend_c, 10, 6234
20, 611996, Pitch_bend_c, 10, 6242
20, 611996, Pitch_bend_c, 10, 6249
20, 611997, Pitch_bend_c, 10, 6257
20, 611997, Pitch_bend_c, 10, 6265
20, 611998, Pitch_bend_c, 10, 6273
20, 611998, Pitch_bend_c, 10, 6281
20, 611999, Pitch_bend_c, 10, 6289
20, 611999, Pitch_bend_c, 10, 6297
20, 612000, Pitch_bend_c, 10, 6304
20, 612000, Pitch_bend_c, 10, 6312
20, 612001, Pitch_bend_c, 10, 6320
20, 612001, Pitch_bend_c, 10, 6328
20, 612002, Pitch_bend_c, 10, 6336
20, 612002, Pitch_bend_c, 10, 6344
20, 612003, Pitch_bend_c, 10, 6352
20, 612003, Pitch_bend_c, 10, 6360
20, 612004, Pitch_bend_c, 10, 6367
20, 612004, Pitch_bend_c, 10, 6375
20, 612005, Pitch_bend_c, 10, 6383
20, 612005, Pitch_bend_c, 10, 6391
20, 612006, Pitch_bend_c, 10, 6399
20, 612006, Pitch_bend_c, 10, 6407
20, 612007, Pitch_bend_c, 10, 6415
20, 612007, Pitch_bend_c, 10, 6422
20, 612008, Pitch_bend_c, 10, 6430
20, 612008, Pitch_bend_c, 10, 6438
20, 612009, Pitch_bend_c, 10, 6446
20, 612009, Pitch_bend_c, 10, 6454
20, 612010, Pitch_bend_c, 10, 6462
20, 612010, Pitch_bend_c, 10, 6470
20, 612011, Pitch_bend_c, 10, 6478
20, 612011, Pitch_bend_c, 10, 6485
20, 612012, Pitch_bend_c, 10, 6493
20, 612012, Pitch_bend_c, 10, 6501
20, 612013, Pitch_bend_c, 10, 6509
20, 612013, Pitch_bend_c, 10, 6517
20, 612014, Pitch_bend_c, 10, 6525
20, 612014, Pitch_bend_c, 10, 6533
20, 612015, Pitch_bend_c, 10, 6540
20, 612015, Pitch_bend_c, 10, 6548
20, 612016, Pitch_bend_c, 10, 6556
20, 612016, Pitch_bend_c, 10, 6564
20, 612017, Pitch_bend_c, 10, 6572
20, 612017, Pitch_bend_c, 10, 6580
20, 612018, Pitch_bend_c, 10, 6588
20, 612018, Pitch_bend_c, 10, 6596
20, 612019, Pitch_bend_c, 10, 6603
20, 612019, Pitch_bend_c, 10, 6611
20, 612020, Pitch_bend_c, 10, 6619
20, 612020, Pitch_bend_c, 10, 6627
20, 612021, Pitch_bend_c, 10, 6635
20, 612021, Pitch_bend_c, 10, 6643
20, 612022, Pitch_bend_c, 10, 6651
20, 612022, Pitch_bend_c, 10, 6658
20, 612023, Pitch_bend_c, 10, 6666
20, 612023, Pitch_bend_c, 10, 6674
20, 612024, Pitch_bend_c, 10, 6682
20, 612024, Pitch_bend_c, 10, 6690
20, 612025, Pitch_bend_c, 10, 6698
20, 612025, Pitch_bend_c, 10, 6706
20, 612026, Pitch_bend_c, 10, 6714
20, 612026, Pitch_bend_c, 10, 6721
20, 612027, Pitch_bend_c, 10, 6729
20, 612027, Pitch_bend_c, 10, 6737
20, 612028, Pitch_bend_c, 10, 6745
20, 612028, Pitch_bend_c, 10, 6753
20, 612029, Pitch_bend_c, 10, 6761
20, 612029, Pitch_bend_c, 10, 6769
20, 612030, Pitch_bend_c, 10, 6776
20, 612030, Pitch_bend_c, 10, 6784
20, 612031, Pitch_bend_c, 10, 6792
20, 612031, Pitch_bend_c, 10, 6800
20, 612032, Pitch_bend_c, 10, 6808
20, 612032, Pitch_bend_c, 10, 6816
20, 612033, Pitch_bend_c, 10, 6824
20, 612033, Pitch_bend_c, 10, 6832
20, 612034, Pitch_bend_c, 10, 6839
20, 612034, Pitch_bend_c, 10, 6847
20, 612035, Pitch_bend_c, 10, 6855
20, 612035, Pitch_bend_c, 10, 6863
20, 612036, Pitch_bend_c, 10, 6871
20, 612036, Pitch_bend_c, 10, 6879
20, 612037, Pitch_bend_c, 10, 6887
20, 612037, Pitch_bend_c, 10, 6894
20, 612038, Pitch_bend_c, 10, 6902
20, 612038, Pitch_bend_c, 10, 6910
20, 612039, Pitch_bend_c, 10, 6918
20, 612039, Pitch_bend_c, 10, 6926
20, 612040, Pitch_bend_c, 10, 6934
20, 612040, Pitch_bend_c, 10, 6942
20, 612041, Pitch_bend_c, 10, 6950
20, 612041, Pitch_bend_c, 10, 6957
20, 612042, Pitch_bend_c, 10, 6965
20, 612042, Pitch_bend_c, 10, 6973
20, 612043, Pitch_bend_c, 10, 6981
20, 612043, Pitch_bend_c, 10, 6989
20, 612044, Pitch_bend_c, 10, 6997
20, 612044, Pitch_bend_c, 10, 7005
20, 612045, Pitch_bend_c, 10, 7012
20, 612045, Pitch_bend_c, 10, 7020
20, 612046, Pitch_bend_c, 10, 7028
20, 612046, Pitch_bend_c, 10, 7036
20, 612047, Pitch_bend_c, 10, 7044
20, 612047, Pitch_bend_c, 10, 7052
20, 612048, Pitch_bend_c, 10, 7060
20, 612048, Pitch_bend_c, 10, 7068
20, 612049, Pitch_bend_c, 10, 7075
20, 612049, Pitch_bend_c, 10, 7083
20, 612050, Pitch_bend_c, 10, 7091
20, 612050, Pitch_bend_c, 10, 7099
20, 612051, Pitch_bend_c, 10, 7107
20, 612051, Pitch_bend_c, 10, 7115
20, 612052, Pitch_bend_c, 10, 7123
20, 612052, Pitch_bend_c, 10, 7130
20, 612053, Pitch_bend_c, 10, 7138
20, 612053, Pitch_bend_c, 10, 7146
20, 612054, Pitch_bend_c, 10, 7154
20, 612054, Pitch_bend_c, 10, 7162
20, 612055, Pitch_bend_c, 10, 7170
20, 612055, Pitch_bend_c, 10, 7178
20, 612056, Pitch_bend_c, 10, 7186
20, 612056, Pitch_bend_c, 10, 7193
20, 612057, Pitch_bend_c, 10, 7201
20, 612057, Pitch_bend_c, 10, 7209
20, 612058, Pitch_bend_c, 10, 7217
20, 612058, Pitch_bend_c, 10, 7225
20, 612059, Pitch_bend_c, 10, 7233
20, 612059, Pitch_bend_c, 10, 7241
20, 612060, Pitch_bend_c, 10, 7248
20, 612060, Pitch_bend_c, 10, 7256
20, 612061, Pitch_bend_c, 10, 7264
20, 612061, Pitch_bend_c, 10, 7272
20, 612062, Pitch_bend_c, 10, 7280
20, 612062, Pitch_bend_c, 10, 7288
20, 612063, Pitch_bend_c, 10, 7296
20, 612063, Pitch_bend_c, 10, 7304
20, 612064, Pitch_bend_c, 10, 7311
20, 612064, Pitch_bend_c, 10, 7319
20, 612065, Pitch_bend_c, 10, 7327
20, 612065, Pitch_bend_c, 10, 7335
20, 612066, Pitch_bend_c, 10, 7343
20, 612066, Pitch_bend_c, 10, 7351
20, 612067, Pitch_bend_c, 10, 7359
20, 612067, Pitch_bend_c, 10, 7366
20, 612068, Pitch_bend_c, 10, 7374
20, 612068, Pitch_bend_c, 10, 7382
20, 612069, Pitch_bend_c, 10, 7390
20, 612069, Pitch_bend_c, 10, 7398
20, 612070, Pitch_bend_c, 10, 7406
20, 612070, Pitch_bend_c, 10, 7414
20, 612071, Pitch_bend_c, 10, 7422
20, 612071, Pitch_bend_c, 10, 7429
20, 612072, Pitch_bend_c, 10, 7437
20, 612072, Pitch_bend_c, 10, 7445
20, 612073, Pitch_bend_c, 10, 7453
20, 612073, Pitch_bend_c, 10, 7461
20, 612074, Pitch_bend_c, 10, 7469
20, 612074, Pitch_bend_c, 10, 7477
20, 612075, Pitch_bend_c, 10, 7484
20, 612075, Pitch_bend_c, 10, 7492
20, 612076, Pitch_bend_c, 10, 7500
20, 612076, Pitch_bend_c, 10, 7508
20, 612077, Pitch_bend_c, 10, 7516
20, 612077, Pitch_bend_c, 10, 7524
20, 612078, Pitch_bend_c, 10, 7532
20, 612078, Pitch_bend_c, 10, 7540
20, 612079, Pitch_bend_c, 10, 7547
20, 612079, Pitch_bend_c, 10, 7555
20, 612080, Pitch_bend_c, 10, 7563
20, 612080, Pitch_bend_c, 10, 7571
20, 612081, Pitch_bend_c, 10, 7579
20, 612081, Pitch_bend_c, 10, 7587
20, 612082, Pitch_bend_c, 10, 7595
20, 612082, Pitch_bend_c, 10, 7602
20, 612083, Pitch_bend_c, 10, 7610
20, 612083, Pitch_bend_c, 10, 7618
20, 612084, Pitch_bend_c, 10, 7626
20, 612084, Pitch_bend_c, 10, 7634
20, 612085, Pitch_bend_c, 10, 7642
20, 612085, Pitch_bend_c, 10, 7650
20, 612086, Pitch_bend_c, 10, 7658
20, 612086, Pitch_bend_c, 10, 7665
20, 612087, Pitch_bend_c, 10, 7673
20, 612087, Pitch_bend_c, 10, 7681
20, 612088, Pitch_bend_c, 10, 7689
20, 612088, Pitch_bend_c, 10, 7697
20, 612089, Pitch_bend_c, 10, 7705
20, 612089, Pitch_bend_c, 10, 7713
20, 612090, Pitch_bend_c, 10, 7720
20, 612090, Pitch_bend_c, 10, 7728
20, 612091, Pitch_bend_c, 10, 7736
20, 612091, Pitch_bend_c, 10, 7744
20, 612092, Pitch_bend_c, 10, 7752
20, 612092, Pitch_bend_c, 10, 7760
20, 612093, Pitch_bend_c, 10, 7768
20, 612093, Pitch_bend_c, 10, 7776
20, 612094, Pitch_bend_c, 10, 7783
20, 612094, Pitch_bend_c, 10, 7791
20, 612095, Pitch_bend_c, 10, 7799
20, 612095, Pitch_bend_c, 10, 7807
20, 612096, Pitch_bend_c, 10, 7815
20, 612096, Pitch_bend_c, 10, 7823
20, 612097, Pitch_bend_c, 10, 7831
20, 612097, Pitch_bend_c, 10, 7838
20, 612098, Pitch_bend_c, 10, 7846
20, 612098, Pitch_bend_c, 10, 7854
20, 612099, Pitch_bend_c, 10, 7862
20, 612099, Pitch_bend_c, 10, 7870
20, 612100, Pitch_bend_c, 10, 7878
20, 612100, Pitch_bend_c, 10, 7886
20, 612101, Pitch_bend_c, 10, 7894
20, 612101, Pitch_bend_c, 10, 7901
20, 612102, Pitch_bend_c, 10, 7909
20, 612102, Pitch_bend_c, 10, 7917
20, 612103, Pitch_bend_c, 10, 7925
20, 612103, Pitch_bend_c, 10, 7933
20, 612104, Pitch_bend_c, 10, 7941
20, 612104, Pitch_bend_c, 10, 7949
20, 612105, Pitch_bend_c, 10, 7956
20, 612105, Pitch_bend_c, 10, 7964
20, 612106, Pitch_bend_c, 10, 7972
20, 612106, Pitch_bend_c, 10, 7980
20, 612107, Pitch_bend_c, 10, 7988
20, 612107, Pitch_bend_c, 10, 7996
20, 612108, Pitch_bend_c, 10, 8004
20, 612108, Pitch_bend_c, 10, 8012
20, 612109, Pitch_bend_c, 10, 8019
20, 612109, Pitch_bend_c, 10, 8027
20, 612110, Pitch_bend_c, 10, 8035
20, 612110, Pitch_bend_c, 10, 8043
20, 612111, Pitch_bend_c, 10, 8051
20, 612111, Pitch_bend_c, 10, 8059
20, 612112, Pitch_bend_c, 10, 8067
20, 612112, Pitch_bend_c, 10, 8074
20, 612113, Pitch_bend_c, 10, 8082
20, 612113, Pitch_bend_c, 10, 8090
20, 612114, Pitch_bend_c, 10, 8098
20, 612114, Pitch_bend_c, 10, 8106
20, 612115, Pitch_bend_c, 10, 8114
20, 612115, Pitch_bend_c, 10, 8122
20, 612116, Pitch_bend_c, 10, 8130
20, 612116, Pitch_bend_c, 10, 8137
20, 612117, Pitch_bend_c, 10, 8145
20, 612117, Pitch_bend_c, 10, 8153
20, 612118, Pitch_bend_c, 10, 8161
20, 612118, Pitch_bend_c, 10, 8169
20, 612119, Pitch_bend_c, 10, 8177
20, 612119, Pitch_bend_c, 10, 8185
20, 612120, Pitch_bend_c, 10, 8192
20, 612142, Note_on_c, 10, 51, 0
20, 614280, Pitch_bend_c, 10, 4416
20, 614280, Pitch_bend_c, 10, 4424
20, 614281, Pitch_bend_c, 10, 4432
20, 614281, Pitch_bend_c, 10, 4440
20, 614282, Pitch_bend_c, 10, 4448
20, 614282, Pitch_bend_c, 10, 4456
20, 614283, Pitch_bend_c, 10, 4464
20, 614283, Pitch_bend_c, 10, 4472
20, 614284, Pitch_bend_c, 10, 4479
20, 614284, Pitch_bend_c, 10, 4487
20, 614285, Pitch_bend_c, 10, 4495
20, 614285, Pitch_bend_c, 10, 4503
20, 614286, Pitch_bend_c, 10, 4511
20, 614286, Pitch_bend_c, 10, 4519
20, 614287, Pitch_bend_c, 10, 4527
20, 614287, Pitch_bend_c, 10, 4534
20, 614288, Pitch_bend_c, 10, 4542
20, 614288, Pitch_bend_c, 10, 4550
20, 614289, Pitch_bend_c, 10, 4558
20, 614289, Note_on_c, 10, 51, 103
20, 614289, Pitch_bend_c, 10, 4566
20, 614290, Pitch_bend_c, 10, 4574
20, 614290, Pitch_bend_c, 10, 4582
20, 614291, Pitch_bend_c, 10, 4590
20, 614291, Pitch_bend_c, 10, 4597
20, 614292, Pitch_bend_c, 10, 4605
20, 614292, Pitch_bend_c, 10, 4613
20, 614293, Pitch_bend_c, 10, 4621
20, 614293, Pitch_bend_c, 10, 4629
20, 614294, Pitch_bend_c, 10, 4637
20, 614294, Pitch_bend_c, 10, 4645
20, 614295, Pitch_bend_c, 10, 4652
20, 614295, Pitch_bend_c, 10, 4660
20, 614296, Pitch_bend_c, 10, 4668
20, 614296, Pitch_bend_c, 10, 4676
20, 614297, Pitch_bend_c, 10, 4684
20, 614297, Pitch_bend_c, 10, 4692
20, 614298, Pitch_bend_c, 10, 4700
20, 614298, Pitch_bend_c, 10, 4708
20, 614299, Pitch_bend_c, 10, 4715
20, 614299, Pitch_bend_c, 10, 4723
20, 614300, Pitch_bend_c, 10, 4731
20, 614300, Pitch_bend_c, 10, 4739
20, 614301, Pitch_bend_c, 10, 4747
20, 614301, Pitch_bend_c, 10, 4755
20, 614302, Pitch_bend_c, 10, 4763
20, 614302, Pitch_bend_c, 10, 4770
20, 614303, Pitch_bend_c, 10, 4778
20, 614303, Pitch_bend_c, 10, 4786
20, 614304, Pitch_bend_c, 10, 4794
20, 614304, Pitch_bend_c, 10, 4802
20, 614305, Pitch_bend_c, 10, 4810
20, 614305, Pitch_bend_c, 10, 4818
20, 614306, Pitch_bend_c, 10, 4826
20, 614306, Pitch_bend_c, 10, 4833
20, 614307, Pitch_bend_c, 10, 4841
20, 614307, Pitch_bend_c, 10, 4849
20, 614308, Pitch_bend_c, 10, 4857
20, 614308, Pitch_bend_c, 10, 4865
20, 614309, Pitch_bend_c, 10, 4873
20, 614309, Pitch_bend_c, 10, 4881
20, 614310, Pitch_bend_c, 10, 4888
20, 614310, Pitch_bend_c, 10, 4896
20, 614311, Pitch_bend_c, 10, 4904
20, 614311, Pitch_bend_c, 10, 4912
20, 614312, Pitch_bend_c, 10, 4920
20, 614312, Pitch_bend_c, 10, 4928
20, 614313, Pitch_bend_c, 10, 4936
20, 614313, Pitch_bend_c, 10, 4944
20, 614314, Pitch_bend_c, 10, 4951
20, 614314, Pitch_bend_c, 10, 4959
20, 614315, Pitch_bend_c, 10, 4967
20, 614315, Pitch_bend_c, 10, 4975
20, 614316, Pitch_bend_c, 10, 4983
20, 614316, Pitch_bend_c, 10, 4991
20, 614317, Pitch_bend_c, 10, 4999
20, 614317, Pitch_bend_c, 10, 5006
20, 614318, Pitch_bend_c, 10, 5014
20, 614318, Pitch_bend_c, 10, 5022
20, 614319, Pitch_bend_c, 10, 5030
20, 614319, Pitch_bend_c, 10, 5038
20, 614320, Pitch_bend_c, 10, 5046
20, 614320, Pitch_bend_c, 10, 5054
20, 614321, Pitch_bend_c, 10, 5062
20, 614321, Pitch_bend_c, 10, 5069
20, 614322, Pitch_bend_c, 10, 5077
20, 614322, Pitch_bend_c, 10, 5085
20, 614323, Pitch_bend_c, 10, 5093
20, 614323, Pitch_bend_c, 10, 5101
20, 614324, Pitch_bend_c, 10, 5109
20, 614324, Pitch_bend_c, 10, 5117
20, 614325, Pitch_bend_c, 10, 5124
20, 614325, Pitch_bend_c, 10, 5132
20, 614326, Pitch_bend_c, 10, 5140
20, 614326, Pitch_bend_c, 10, 5148
20, 614327, Pitch_bend_c, 10, 5156
20, 614327, Pitch_bend_c, 10, 5164
20, 614328, Pitch_bend_c, 10, 5172
20, 614328, Pitch_bend_c, 10, 5180
20, 614329, Pitch_bend_c, 10, 5187
20, 614329, Pitch_bend_c, 10, 5195
20, 614330, Pitch_bend_c, 10, 5203
20, 614330, Pitch_bend_c, 10, 5211
20, 614331, Pitch_bend_c, 10, 5219
20, 614331, Pitch_bend_c, 10, 5227
20, 614332, Pitch_bend_c, 10, 5235
20, 614332, Pitch_bend_c, 10, 5242
20, 614333, Pitch_bend_c, 10, 5250
20, 614333, Pitch_bend_c, 10, 5258
20, 614334, Pitch_bend_c, 10, 5266
20, 614334, Pitch_bend_c, 10, 5274
20, 614335, Pitch_bend_c, 10, 5282
20, 614335, Pitch_bend_c, 10, 5290
20, 614336, Pitch_bend_c, 10, 5298
20, 614336, Pitch_bend_c, 10, 5305
20, 614337, Pitch_bend_c, 10, 5313
20, 614337, Pitch_bend_c, 10, 5321
20, 614338, Pitch_bend_c, 10, 5329
20, 614338, Pitch_bend_c, 10, 5337
20, 614339, Pitch_bend_c, 10, 5345
20, 614339, Pitch_bend_c, 10, 5353
20, 614340, Pitch_bend_c, 10, 5360
20, 614340, Pitch_bend_c, 10, 5368
20, 614341, Pitch_bend_c, 10, 5376
20, 614341, Pitch_bend_c, 10, 5384
20, 614342, Pitch_bend_c, 10, 5392
20, 614342, Pitch_bend_c, 10, 5400
20, 614343, Pitch_bend_c, 10, 5408
20, 614343, Pitch_bend_c, 10, 5416
20, 614344, Pitch_bend_c, 10, 5423
20, 614344, Pitch_bend_c, 10, 5431
20, 614345, Pitch_bend_c, 10, 5439
20, 614345, Pitch_bend_c, 10, 5447
20, 614346, Pitch_bend_c, 10, 5455
20, 614346, Pitch_bend_c, 10, 5463
20, 614347, Pitch_bend_c, 10, 5471
20, 614347, Pitch_bend_c, 10, 5478
20, 614348, Pitch_bend_c, 10, 5486
20, 614348, Pitch_bend_c, 10, 5494
20, 614349, Pitch_bend_c, 10, 5502
20, 614349, Pitch_bend_c, 10, 5510
20, 614350, Pitch_bend_c, 10, 5518
20, 614350, Pitch_bend_c, 10, 5526
20, 614351, Pitch_bend_c, 10, 5534
20, 614351, Pitch_bend_c, 10, 5541
20, 614352, Pitch_bend_c, 10, 5549
20, 614352, Pitch_bend_c, 10, 5557
20, 614353, Pitch_bend_c, 10, 5565
20, 614353, Pitch_bend_c, 10, 5573
20, 614354, Pitch_bend_c, 10, 5581
20, 614354, Pitch_bend_c, 10, 5589
20, 614355, Pitch_bend_c, 10, 5596
20, 614355, Pitch_bend_c, 10, 5604
20, 614356, Pitch_bend_c, 10, 5612
20, 614356, Pitch_bend_c, 10, 5620
20, 614357, Pitch_bend_c, 10, 5628
20, 614357, Pitch_bend_c, 10, 5636
20, 614358, Pitch_bend_c, 10, 5644
20, 614358, Pitch_bend_c, 10, 5652
20, 614359, Pitch_bend_c, 10, 5659
20, 614359, Pitch_bend_c, 10, 5667
20, 614360, Pitch_bend_c, 10, 5675
20, 614360, Pitch_bend_c, 10, 5683
20, 614361, Pitch_bend_c, 10, 5691
20, 614361, Pitch_bend_c, 10, 5699
20, 614362, Pitch_bend_c, 10, 5707
20, 614362, Pitch_bend_c, 10, 5714
20, 614363, Pitch_bend_c, 10, 5722
20, 614363, Pitch_bend_c, 10, 5730
20, 614364, Pitch_bend_c, 10, 5738
20, 614364, Pitch_bend_c, 10, 5746
20, 614365, Pitch_bend_c, 10, 5754
20, 614365, Pitch_bend_c, 10, 5762
20, 614366, Pitch_bend_c, 10, 5770
20, 614366, Pitch_bend_c, 10, 5777
20, 614367, Pitch_bend_c, 10, 5785
20, 614367, Pitch_bend_c, 10, 5793
20, 614368, Pitch_bend_c, 10, 5801
20, 614368, Pitch_bend_c, 10, 5809
20, 614369, Pitch_bend_c, 10, 5817
20, 614369, Pitch_bend_c, 10, 5825
20, 614370, Pitch_bend_c, 10, 5832
20, 614370, Pitch_bend_c, 10, 5840
20, 614371, Pitch_bend_c, 10, 5848
20, 614371, Pitch_bend_c, 10, 5856
20, 614372, Pitch_bend_c, 10, 5864
20, 614372, Pitch_bend_c, 10, 5872
20, 614373, Pitch_bend_c, 10, 5880
20, 614373, Pitch_bend_c, 10, 5888
20, 614374, Pitch_bend_c, 10, 5895
20, 614374, Pitch_bend_c, 10, 5903
20, 614375, Pitch_bend_c, 10, 5911
20, 614375, Pitch_bend_c, 10, 5919
20, 614376, Pitch_bend_c, 10, 5927
20, 614376, Pitch_bend_c, 10, 5935
20, 614377, Pitch_bend_c, 10, 5943
20, 614377, Pitch_bend_c, 10, 5950
20, 614378, Pitch_bend_c, 10, 5958
20, 614378, Pitch_bend_c, 10, 5966
20, 614379, Pitch_bend_c, 10, 5974
20, 614379, Pitch_bend_c, 10, 5982
20, 614380, Pitch_bend_c, 10, 5990
20, 614380, Pitch_bend_c, 10, 5998
20, 614381, Pitch_bend_c, 10, 6006
20, 614381, Pitch_bend_c, 10, 6013
20, 614382, Pitch_bend_c, 10, 6021
20, 614382, Pitch_bend_c, 10, 6029
20, 614383, Pitch_bend_c, 10, 6037
20, 614383, Pitch_bend_c, 10, 6045
20, 614384, Pitch_bend_c, 10, 6053
20, 614384, Pitch_bend_c, 10, 6061
20, 614385, Pitch_bend_c, 10, 6068
20, 614385, Pitch_bend_c, 10, 6076
20, 614386, Pitch_bend_c, 10, 6084
20, 614386, Pitch_bend_c, 10, 6092
20, 614387, Pitch_bend_c, 10, 6100
20, 614387, Pitch_bend_c, 10, 6108
20, 614388, Pitch_bend_c, 10, 6116
20, 614388, Pitch_bend_c, 10, 6124
20, 614389, Pitch_bend_c, 10, 6131
20, 614389, Pitch_bend_c, 10, 6139
20, 614390, Pitch_bend_c, 10, 6147
20, 614390, Pitch_bend_c, 10, 6155
20, 614391, Pitch_bend_c, 10, 6163
20, 614391, Pitch_bend_c, 10, 6171
20, 614392, Pitch_bend_c, 10, 6179
20, 614392, Pitch_bend_c, 10, 6186
20, 614393, Pitch_bend_c, 10, 6194
20, 614393, Pitch_bend_c, 10, 6202
20, 614394, Pitch_bend_c, 10, 6210
20, 614394, Pitch_bend_c, 10, 6218
20, 614395, Pitch_bend_c, 10, 6226
20, 614395, Pitch_bend_c, 10, 6234
20, 614396, Pitch_bend_c, 10, 6242
20, 614396, Pitch_bend_c, 10, 6249
20, 614397, Pitch_bend_c, 10, 6257
20, 614397, Pitch_bend_c, 10, 6265
20, 614398, Pitch_bend_c, 10, 6273
20, 614398, Pitch_bend_c, 10, 6281
20, 614399, Pitch_bend_c, 10, 6289
20, 614399, Pitch_bend_c, 10, 6297
20, 614400, Pitch_bend_c, 10, 6304
20, 614400, Pitch_bend_c, 10, 6312
20, 614401, Pitch_bend_c, 10, 6320
20, 614401, Pitch_bend_c, 10, 6328
20, 614402, Pitch_bend_c, 10, 6336
20, 614402, Pitch_bend_c, 10, 6344
20, 614403, Pitch_bend_c, 10, 6352
20, 614403, Pitch_bend_c, 10, 6360
20, 614404, Pitch_bend_c, 10, 6367
20, 614404, Pitch_bend_c, 10, 6375
20, 614405, Pitch_bend_c, 10, 6383
20, 614405, Pitch_bend_c, 10, 6391
20, 614406, Pitch_bend_c, 10, 6399
20, 614406, Pitch_bend_c, 10, 6407
20, 614407, Pitch_bend_c, 10, 6415
20, 614407, Pitch_bend_c, 10, 6422
20, 614408, Pitch_bend_c, 10, 6430
20, 614408, Pitch_bend_c, 10, 6438
20, 614409, Pitch_bend_c, 10, 6446
20, 614409, Pitch_bend_c, 10, 6454
20, 614410, Pitch_bend_c, 10, 6462
20, 614410, Pitch_bend_c, 10, 6470
20, 614411, Pitch_bend_c, 10, 6478
20, 614411, Pitch_bend_c, 10, 6485
20, 614412, Pitch_bend_c, 10, 6493
20, 614412, Pitch_bend_c, 10, 6501
20, 614413, Pitch_bend_c, 10, 6509
20, 614413, Pitch_bend_c, 10, 6517
20, 614414, Pitch_bend_c, 10, 6525
20, 614414, Pitch_bend_c, 10, 6533
20, 614415, Pitch_bend_c, 10, 6540
20, 614415, Pitch_bend_c, 10, 6548
20, 614416, Pitch_bend_c, 10, 6556
20, 614416, Pitch_bend_c, 10, 6564
20, 614417, Pitch_bend_c, 10, 6572
20, 614417, Pitch_bend_c, 10, 6580
20, 614418, Pitch_bend_c, 10, 6588
20, 614418, Pitch_bend_c, 10, 6596
20, 614419, Pitch_bend_c, 10, 6603
20, 614419, Pitch_bend_c, 10, 6611
20, 614420, Pitch_bend_c, 10, 6619
20, 614420, Pitch_bend_c, 10, 6627
20, 614421, Pitch_bend_c, 10, 6635
20, 614421, Pitch_bend_c, 10, 6643
20, 614422, Pitch_bend_c, 10, 6651
20, 614422, Pitch_bend_c, 10, 6658
20, 614423, Pitch_bend_c, 10, 6666
20, 614423, Pitch_bend_c, 10, 6674
20, 614424, Pitch_bend_c, 10, 6682
20, 614424, Pitch_bend_c, 10, 6690
20, 614425, Pitch_bend_c, 10, 6698
20, 614425, Pitch_bend_c, 10, 6706
20, 614426, Pitch_bend_c, 10, 6714
20, 614426, Pitch_bend_c, 10, 6721
20, 614427, Pitch_bend_c, 10, 6729
20, 614427, Pitch_bend_c, 10, 6737
20, 614428, Pitch_bend_c, 10, 6745
20, 614428, Pitch_bend_c, 10, 6753
20, 614429, Pitch_bend_c, 10, 6761
20, 614429, Pitch_bend_c, 10, 6769
20, 614430, Pitch_bend_c, 10, 6776
20, 614430, Pitch_bend_c, 10, 6784
20, 614431, Pitch_bend_c, 10, 6792
20, 614431, Pitch_bend_c, 10, 6800
20, 614432, Pitch_bend_c, 10, 6808
20, 614432, Pitch_bend_c, 10, 6816
20, 614433, Pitch_bend_c, 10, 6824
20, 614433, Pitch_bend_c, 10, 6832
20, 614434, Pitch_bend_c, 10, 6839
20, 614434, Pitch_bend_c, 10, 6847
20, 614435, Pitch_bend_c, 10, 6855
20, 614435, Pitch_bend_c, 10, 6863
20, 614436, Pitch_bend_c, 10, 6871
20, 614436, Pitch_bend_c, 10, 6879
20, 614437, Pitch_bend_c, 10, 6887
20, 614437, Pitch_bend_c, 10, 6894
20, 614438, Pitch_bend_c, 10, 6902
20, 614438, Pitch_bend_c, 10, 6910
20, 614439, Pitch_bend_c, 10, 6918
20, 614439, Pitch_bend_c, 10, 6926
20, 614440, Pitch_bend_c, 10, 6934
20, 614440, Pitch_bend_c, 10, 6942
20, 614441, Pitch_bend_c, 10, 6950
20, 614441, Pitch_bend_c, 10, 6957
20, 614442, Pitch_bend_c, 10, 6965
20, 614442, Pitch_bend_c, 10, 6973
20, 614443, Pitch_bend_c, 10, 6981
20, 614443, Pitch_bend_c, 10, 6989
20, 614444, Pitch_bend_c, 10, 6997
20, 614444, Pitch_bend_c, 10, 7005
20, 614445, Pitch_bend_c, 10, 7012
20, 614445, Pitch_bend_c, 10, 7020
20, 614446, Pitch_bend_c, 10, 7028
20, 614446, Pitch_bend_c, 10, 7036
20, 614447, Pitch_bend_c, 10, 7044
20, 614447, Pitch_bend_c, 10, 7052
20, 614448, Pitch_bend_c, 10, 7060
20, 614448, Pitch_bend_c, 10, 7068
20, 614449, Pitch_bend_c, 10, 7075
20, 614449, Pitch_bend_c, 10, 7083
20, 614450, Pitch_bend_c, 10, 7091
20, 614450, Pitch_bend_c, 10, 7099
20, 614451, Pitch_bend_c, 10, 7107
20, 614451, Pitch_bend_c, 10, 7115
20, 614452, Pitch_bend_c, 10, 7123
20, 614452, Pitch_bend_c, 10, 7130
20, 614453, Pitch_bend_c, 10, 7138
20, 614453, Pitch_bend_c, 10, 7146
20, 614454, Pitch_bend_c, 10, 7154
20, 614454, Pitch_bend_c, 10, 7162
20, 614455, Pitch_bend_c, 10, 7170
20, 614455, Pitch_bend_c, 10, 7178
20, 614456, Pitch_bend_c, 10, 7186
20, 614456, Pitch_bend_c, 10, 7193
20, 614457, Pitch_bend_c, 10, 7201
20, 614457, Pitch_bend_c, 10, 7209
20, 614458, Pitch_bend_c, 10, 7217
20, 614458, Pitch_bend_c, 10, 7225
20, 614459, Pitch_bend_c, 10, 7233
20, 614459, Pitch_bend_c, 10, 7241
20, 614460, Pitch_bend_c, 10, 7248
20, 614460, Pitch_bend_c, 10, 7256
20, 614461, Pitch_bend_c, 10, 7264
20, 614461, Pitch_bend_c, 10, 7272
20, 614462, Pitch_bend_c, 10, 7280
20, 614462, Pitch_bend_c, 10, 7288
20, 614463, Pitch_bend_c, 10, 7296
20, 614463, Pitch_bend_c, 10, 7304
20, 614464, Pitch_bend_c, 10, 7311
20, 614464, Pitch_bend_c, 10, 7319
20, 614465, Pitch_bend_c, 10, 7327
20, 614465, Pitch_bend_c, 10, 7335
20, 614466, Pitch_bend_c, 10, 7343
20, 614466, Pitch_bend_c, 10, 7351
20, 614467, Pitch_bend_c, 10, 7359
20, 614467, Pitch_bend_c, 10, 7366
20, 614468, Pitch_bend_c, 10, 7374
20, 614468, Pitch_bend_c, 10, 7382
20, 614469, Pitch_bend_c, 10, 7390
20, 614469, Pitch_bend_c, 10, 7398
20, 614470, Pitch_bend_c, 10, 7406
20, 614470, Pitch_bend_c, 10, 7414
20, 614471, Pitch_bend_c, 10, 7422
20, 614471, Pitch_bend_c, 10, 7429
20, 614472, Pitch_bend_c, 10, 7437
20, 614472, Pitch_bend_c, 10, 7445
20, 614473, Pitch_bend_c, 10, 7453
20, 614473, Pitch_bend_c, 10, 7461
20, 614474, Pitch_bend_c, 10, 7469
20, 614474, Pitch_bend_c, 10, 7477
20, 614475, Pitch_bend_c, 10, 7484
20, 614475, Pitch_bend_c, 10, 7492
20, 614476, Pitch_bend_c, 10, 7500
20, 614476, Pitch_bend_c, 10, 7508
20, 614477, Pitch_bend_c, 10, 7516
20, 614477, Pitch_bend_c, 10, 7524
20, 614478, Pitch_bend_c, 10, 7532
20, 614478, Pitch_bend_c, 10, 7540
20, 614479, Pitch_bend_c, 10, 7547
20, 614479, Pitch_bend_c, 10, 7555
20, 614480, Pitch_bend_c, 10, 7563
20, 614480, Pitch_bend_c, 10, 7571
20, 614481, Pitch_bend_c, 10, 7579
20, 614481, Pitch_bend_c, 10, 7587
20, 614482, Pitch_bend_c, 10, 7595
20, 614482, Pitch_bend_c, 10, 7602
20, 614483, Pitch_bend_c, 10, 7610
20, 614483, Pitch_bend_c, 10, 7618
20, 614484, Pitch_bend_c, 10, 7626
20, 614484, Pitch_bend_c, 10, 7634
20, 614485, Pitch_bend_c, 10, 7642
20, 614485, Pitch_bend_c, 10, 7650
20, 614486, Pitch_bend_c, 10, 7658
20, 614486, Pitch_bend_c, 10, 7665
20, 614487, Pitch_bend_c, 10, 7673
20, 614487, Pitch_bend_c, 10, 7681
20, 614488, Pitch_bend_c, 10, 7689
20, 614488, Pitch_bend_c, 10, 7697
20, 614489, Pitch_bend_c, 10, 7705
20, 614489, Pitch_bend_c, 10, 7713
20, 614490, Pitch_bend_c, 10, 7720
20, 614490, Pitch_bend_c, 10, 7728
20, 614491, Pitch_bend_c, 10, 7736
20, 614491, Pitch_bend_c, 10, 7744
20, 614492, Pitch_bend_c, 10, 7752
20, 614492, Pitch_bend_c, 10, 7760
20, 614493, Pitch_bend_c, 10, 7768
20, 614493, Pitch_bend_c, 10, 7776
20, 614494, Pitch_bend_c, 10, 7783
20, 614494, Pitch_bend_c, 10, 7791
20, 614495, Pitch_bend_c, 10, 7799
20, 614495, Pitch_bend_c, 10, 7807
20, 614496, Pitch_bend_c, 10, 7815
20, 614496, Pitch_bend_c, 10, 7823
20, 614497, Pitch_bend_c, 10, 7831
20, 614497, Pitch_bend_c, 10, 7838
20, 614498, Pitch_bend_c, 10, 7846
20, 614498, Pitch_bend_c, 10, 7854
20, 614499, Pitch_bend_c, 10, 7862
20, 614499, Pitch_bend_c, 10, 7870
20, 614500, Pitch_bend_c, 10, 7878
20, 614500, Pitch_bend_c, 10, 7886
20, 614501, Pitch_bend_c, 10, 7894
20, 614501, Pitch_bend_c, 10, 7901
20, 614502, Pitch_bend_c, 10, 7909
20, 614502, Pitch_bend_c, 10, 7917
20, 614503, Pitch_bend_c, 10, 7925
20, 614503, Pitch_bend_c, 10, 7933
20, 614504, Pitch_bend_c, 10, 7941
20, 614504, Pitch_bend_c, 10, 7949
20, 614505, Pitch_bend_c, 10, 7956
20, 614505, Pitch_bend_c, 10, 7964
20, 614506, Pitch_bend_c, 10, 7972
20, 614506, Pitch_bend_c, 10, 7980
20, 614507, Pitch_bend_c, 10, 7988
20, 614507, Pitch_bend_c, 10, 7996
20, 614508, Pitch_bend_c, 10, 8004
20, 614508, Pitch_bend_c, 10, 8012
20, 614509, Pitch_bend_c, 10, 8019
20, 614509, Pitch_bend_c, 10, 8027
20, 614510, Pitch_bend_c, 10, 8035
20, 614510, Pitch_bend_c, 10, 8043
20, 614511, Pitch_bend_c, 10, 8051
20, 614511, Pitch_bend_c, 10, 8059
20, 614512, Pitch_bend_c, 10, 8067
20, 614512, Pitch_bend_c, 10, 8074
20, 614513, Pitch_bend_c, 10, 8082
20, 614513, Pitch_bend_c, 10, 8090
20, 614514, Pitch_bend_c, 10, 8098
20, 614514, Pitch_bend_c, 10, 8106
20, 614515, Pitch_bend_c, 10, 8114
20, 614515, Pitch_bend_c, 10, 8122
20, 614516, Pitch_bend_c, 10, 8130
20, 614516, Pitch_bend_c, 10, 8137
20, 614517, Pitch_bend_c, 10, 8145
20, 614517, Pitch_bend_c, 10, 8153
20, 614518, Pitch_bend_c, 10, 8161
20, 614518, Pitch_bend_c, 10, 8169
20, 614519, Pitch_bend_c, 10, 8177
20, 614519, Pitch_bend_c, 10, 8185
20, 614520, Pitch_bend_c, 10, 8192
20, 614529, Note_on_c, 10, 51, 0
20, 614775, Note_on_c, 10, 63, 96
20, 615062, Note_on_c, 10, 63, 0
20, 615262, Note_on_c, 10, 71, 109
20, 615265, Note_on_c, 10, 59, 93
20, 615405, Note_on_c, 10, 71, 0
20, 615408, Note_on_c, 10, 59, 0
20, 615484, Note_on_c, 10, 58, 99
20, 615489, Note_on_c, 10, 70, 95
20, 615627, Note_on_c, 10, 58, 0
20, 615632, Note_on_c, 10, 70, 0
20, 615743, Note_on_c, 10, 68, 92
20, 615747, Note_on_c, 10, 56, 92
20, 615886, Note_on_c, 10, 68, 0
20, 615890, Note_on_c, 10, 56, 0
20, 615983, Note_on_c, 10, 59, 95
20, 615983, Note_on_c, 10, 71, 93
20, 616126, Note_on_c, 10, 59, 0
20, 616126, Note_on_c, 10, 71, 0
20, 616204, Note_on_c, 10, 61, 111
20, 616208, Note_on_c, 10, 73, 101
20, 616684, Note_on_c, 10, 61, 0
20, 616687, Note_on_c, 10, 51, 100
20, 616688, Note_on_c, 10, 73, 0
20, 616694, Note_on_c, 10, 70, 108
20, 616927, Note_on_c, 10, 51, 0
20, 617174, Note_on_c, 10, 70, 0
20, 617658, Note_on_c, 10, 70, 109
20, 618138, Note_on_c, 10, 70, 0
20, 618614, Note_on_c, 10, 70, 96
20, 619088, Note_on_c, 10, 51, 110
20, 619094, Note_on_c, 10, 70, 0
20, 619328, Note_on_c, 10, 51, 0
20, 620521, Note_on_c, 10, 70, 111
20, 620761, Note_on_c, 10, 70, 0
20, 621491, Note_on_c, 10, 70, 101
20, 621504, Note_on_c, 10, 51, 92
20, 621731, Note_on_c, 10, 70, 0
20, 621744, Note_on_c, 10, 51, 0
20, 622459, Note_on_c, 10, 70, 94
20, 622699, Note_on_c, 10, 70, 0
20, 623899, Note_on_c, 10, 51, 107
20, 624139, Note_on_c, 10, 51, 0
20, 624386, Note_on_c, 10, 71, 109
20, 624626, Note_on_c, 10, 71, 0
20, 625341, Note_on_c, 10, 70, 92
20, 625581, Note_on_c, 10, 70, 0
20, 626283, Note_on_c, 10, 51, 95
20, 626284, Note_on_c, 10, 67, 93
20, 626523, Note_on_c, 10, 51, 0
20, 626524, Note_on_c, 10, 67, 0
20, 626766, Note_on_c, 10, 65, 102
20, 626886, Note_on_c, 10, 65, 0
20, 627020, Note_on_c, 10, 63, 101
20, 627140, Note_on_c, 10, 63, 0
20, 627251, Note_on_c, 10, 61, 93
20, 627371, Note_on_c, 10, 61, 0
20, 627499, Note_on_c, 10, 65, 93
20, 627619, Note_on_c, 10, 65, 0
20, 627720, Note_on_c, 10, 61, 119
20, 627728, Note_on_c, 10, 67, 115
20, 627731, Note_on_c, 10, 45, 116
20, 627840, Note_on_c, 10, 61, 0
20, 627848, Note_on_c, 10, 67, 0
20, 627848, Note_on_c, 10, 45, 0
20, 627851, Note_on_c, 10, 55, 118
20, 627858, Note_on_c, 10, 52, 118
20, 627867, Note_on_c, 10, 45, 100
20, 627898, Note_on_c, 10, 55, 0
20, 627905, Note_on_c, 10, 52, 0
20, 627914, Note_on_c, 10, 45, 0
20, 628087, Note_on_c, 10, 55, 120
20, 628105, Note_on_c, 10, 45, 105
20, 628107, Note_on_c, 10, 52, 111
20, 628134, Note_on_c, 10, 55, 0
20, 628152, Note_on_c, 10, 45, 0
20, 628154, Note_on_c, 10, 52, 0
20, 628922, Note_on_c, 10, 55, 101
20, 628926, Note_on_c, 10, 45, 116
20, 628946, Note_on_c, 10, 52, 101
20, 628969, Note_on_c, 10, 55, 0
20, 628973, Note_on_c, 10, 45, 0
20, 628993, Note_on_c, 10, 52, 0
20, 629650, Note_on_c, 10, 52, 112
20, 629663, Note_on_c, 10, 55, 104
20, 629667, Note_on_c, 10, 45, 115
20, 629697, Note_on_c, 10, 52, 0
20, 629710, Note_on_c, 10, 55, 0
20, 629714, Note_on_c, 10, 45, 0
20, 629896, Note_on_c, 10, 52, 100
20, 629900, Note_on_c, 10, 55, 102
20, 629902, Note_on_c, 10, 45, 107
20, 629943, Note_on_c, 10, 52, 0
20, 629947, Note_on_c, 10, 55, 0
20, 629949, Note_on_c, 10, 45, 0
20, 630734, Note_on_c, 10, 55, 114
20, 630734, Note_on_c, 10, 45, 100
20, 630735, Note_on_c, 10, 52, 114
20, 630781, Note_on_c, 10, 55, 0
20, 630781, Note_on_c, 10, 45, 0
20, 630782, Note_on_c, 10, 52, 0
20, 630963, Note_on_c, 10, 45, 115
20, 630968, Note_on_c, 10, 55, 117
20, 630972, Note_on_c, 10, 52, 115
20, 631010, Note_on_c, 10, 45, 0
20, 631015, Note_on_c, 10, 55, 0
20, 631019, Note_on_c, 10, 52, 0
20, 631818, Note_on_c, 10, 55, 111
20, 631818, Note_on_c, 10, 52, 116
20, 631826, Note_on_c, 10, 45, 108
20, 631865, Note_on_c, 10, 55, 0
20, 631865, Note_on_c, 10, 52, 0
20, 631873, Note_on_c, 10, 45, 0
20, 632536, Note_on_c, 10, 55, 104
20, 632541, Note_on_c, 10, 45, 115
20, 632546, Note_on_c, 10, 52, 114
20, 632583, Note_on_c, 10, 55, 0
20, 632588, Note_on_c, 10, 45, 0
20, 632593, Note_on_c, 10, 52, 0
20, 632777, Note_on_c, 10, 45, 119
20, 632777, Note_on_c, 10, 52, 108
20, 632784, Note_on_c, 10, 55, 119
20, 632824, Note_on_c, 10, 45, 0
20, 632824, Note_on_c, 10, 52, 0
20, 632831, Note_on_c, 10, 55, 0
20, 639979, Note_on_c, 10, 49, 97
20, 639981, Note_on_c, 10, 57, 102
20, 639986, Note_on_c, 10, 52, 94
20, 640039, Note_on_c, 10, 49, 0
20, 640041, Note_on_c, 10, 57, 0
20, 640046, Note_on_c, 10, 52, 0
20, 640086, Note_on_c, 10, 55, 100
20, 640093, Note_on_c, 10, 51, 102
20, 640106, Note_on_c, 10, 46, 91
20, 640146, Note_on_c, 10, 55, 0
20, 640153, Note_on_c, 10, 51, 0
20, 640166, Note_on_c, 10, 46, 0
20, 641166, Note_on_c, 10, 49, 108
20, 641176, Note_on_c, 10, 58, 97
20, 641184, Note_on_c, 10, 54, 107
20, 641226, Note_on_c, 10, 49, 0
20, 641236, Note_on_c, 10, 58, 0
20, 641244, Note_on_c, 10, 54, 0
20, 641286, Note_on_c, 10, 49, 110
20, 641286, Note_on_c, 10, 52, 105
20, 641298, Note_on_c, 10, 57, 98
20, 641346, Note_on_c, 10, 49, 0
20, 641346, Note_on_c, 10, 52, 0
20, 641358, Note_on_c, 10, 57, 0
20, 641410, Note_on_c, 10, 51, 92
20, 641417, Note_on_c, 10, 55, 108
20, 641428, Note_on_c, 10, 46, 107
20, 641470, Note_on_c, 10, 51, 0
20, 641477, Note_on_c, 10, 55, 0
20, 641488, Note_on_c, 10, 46, 0
20, 645363, Note_on_c, 10, 52, 105
20, 645364, Note_on_c, 10, 49, 100
20, 645380, Note_on_c, 10, 57, 103
20, 645423, Note_on_c, 10, 52, 0
20, 645424, Note_on_c, 10, 49, 0
20, 645440, Note_on_c, 10, 57, 0
20, 645485, Note_on_c, 10, 51, 95
20, 645500, Note_on_c, 10, 55, 98
20, 645506, Note_on_c, 10, 46, 104
20, 645545, Note_on_c, 10, 51, 0
20, 645560, Note_on_c, 10, 55, 0
20, 645566, Note_on_c, 10, 46, 0
20, 646684, Note_on_c, 10, 57, 97
20, 646689, Note_on_c, 10, 49, 111
20, 646690, Note_on_c, 10, 52, 95
20, 646744, Note_on_c, 10, 57, 0
20, 646749, Note_on_c, 10, 49, 0
20, 646750, Note_on_c, 10, 52, 0
20, 646811, Note_on_c, 10, 51, 108
20, 646816, Note_on_c, 10, 55, 96
20, 646820, Note_on_c, 10, 46, 96
20, 646871, Note_on_c, 10, 51, 0
20, 646876, Note_on_c, 10, 55, 0
20, 646880, Note_on_c, 10, 46, 0
20, 647294, Note_on_c, 10, 49, 96
20, 647295, Note_on_c, 10, 54, 100
20, 647308, Note_on_c, 10, 58, 105
20, 647354, Note_on_c, 10, 49, 0
20, 647355, Note_on_c, 10, 54, 0
20, 647368, Note_on_c, 10, 58, 0
20, 647402, Note_on_c, 10, 57, 94
20, 647406, Note_on_c, 10, 49, 92
20, 647410, Note_on_c, 10, 52, 99
20, 647462, Note_on_c, 10, 57, 0
20, 647466, Note_on_c, 10, 49, 0
20, 647470, Note_on_c, 10, 52, 0
20, 647521, Note_on_c, 10, 51, 107
20, 647523, Note_on_c, 10, 46, 98
20, 647547, Note_on_c, 10, 55, 93
20, 647581, Note_on_c, 10, 51, 0
20, 647583, Note_on_c, 10, 46, 0
20, 647607, Note_on_c, 10, 55, 0
20, 648009, Note_on_c, 10, 49, 108
20, 648018, Note_on_c, 10, 58, 100
20, 648023, Note_on_c, 10, 54, 103
20, 648069, Note_on_c, 10, 49, 0
20, 648078, Note_on_c, 10, 58, 0
20, 648083, Note_on_c, 10, 54, 0
20, 648140, Note_on_c, 10, 57, 100
20, 648141, Note_on_c, 10, 49, 92
20, 648146, Note_on_c, 10, 52, 101
20, 648200, Note_on_c, 10, 57, 0
20, 648201, Note_on_c, 10, 49, 0
20, 648206, Note_on_c, 10, 52, 0
20, 648360, Note_on_c, 10, 51, 105
20, 648365, Note_on_c, 10, 55, 96
20, 648377, Note_on_c, 10, 46, 109
20, 648420, Note_on_c, 10, 51, 0
20, 648425, Note_on_c, 10, 55, 0
20, 648437, Note_on_c, 10, 46, 0
20, 648849, Note_on_c, 10, 60, 99
20, 648867, Note_on_c, 10, 52, 110
20, 648867, Note_on_c, 10, 55, 108
20, 648909, Note_on_c, 10, 60, 0
20, 648927, Note_on_c, 10, 52, 0
20, 648927, Note_on_c, 10, 55, 0
20, 648967, Note_on_c, 10, 58, 101
20, 648969, Note_on_c, 10, 49, 111
20, 648986, Note_on_c, 10, 54, 100
20, 649027, Note_on_c, 10, 58, 0
20, 649029, Note_on_c, 10, 49, 0
20, 649046, Note_on_c, 10, 54, 0
20, 649082, Note_on_c, 10, 57, 101
20, 649093, Note_on_c, 10, 49, 106
20, 649096, Note_on_c, 10, 52, 107
20, 649142, Note_on_c, 10, 57, 0
20, 649153, Note_on_c, 10, 49, 0
20, 649156, Note_on_c, 10, 52, 0
20, 649343, Note_on_c, 10, 51, 93
20, 649345, Note_on_c, 10, 46, 102
20, 649348, Note_on_c, 10, 55, 99
20, 649403, Note_on_c, 10, 51, 0
20, 649405, Note_on_c, 10, 46, 0
20, 649408, Note_on_c, 10, 55, 0
20, 649800, Note_on_c, 10, 57, 92
20, 649804, Note_on_c, 10, 52, 108
20, 649814, Note_on_c, 10, 49, 105
20, 649860, Note_on_c, 10, 57, 0
20, 649864, Note_on_c, 10, 52, 0
20, 649874, Note_on_c, 10, 49, 0
20, 649921, Note_on_c, 10, 46, 106
20, 649929, Note_on_c, 10, 51, 104
20, 649929, Note_on_c, 10, 55, 93
20, 649981, Note_on_c, 10, 46, 0
20, 649989, Note_on_c, 10, 51, 0
20, 649989, Note_on_c, 10, 55, 0
20, 650408, Note_on_c, 10, 60, 109
20, 650411, Note_on_c, 10, 52, 94
20, 650420, Note_on_c, 10, 55, 92
20, 650468, Note_on_c, 10, 60, 0
20, 650471, Note_on_c, 10, 52, 0
20, 650480, Note_on_c, 10, 55, 0
20, 650532, Note_on_c, 10, 54, 108
20, 650534, Note_on_c, 10, 49, 102
20, 650538, Note_on_c, 10, 58, 103
20, 650592, Note_on_c, 10, 54, 0
20, 650594, Note_on_c, 10, 49, 0
20, 650598, Note_on_c, 10, 58, 0
20, 650652, Note_on_c, 10, 57, 106
20, 650657, Note_on_c, 10, 52, 108
20, 650660, Note_on_c, 10, 49, 100
20, 650712, Note_on_c, 10, 57, 0
20, 650717, Note_on_c, 10, 52, 0
20, 650720, Note_on_c, 10, 49, 0
20, 650883, Note_on_c, 10, 51, 96
20, 650895, Note_on_c, 10, 55, 97
20, 650906, Note_on_c, 10, 46, 91
20, 650943, Note_on_c, 10, 51, 0
20, 650955, Note_on_c, 10, 55, 0
20, 650966, Note_on_c, 10, 46, 0
20, 651365, Note_on_c, 10, 60, 100
20, 651366, Note_on_c, 10, 52, 103
20, 651373, Note_on_c, 10, 55, 93
20, 651425, Note_on_c, 10, 60, 0
20, 651426, Note_on_c, 10, 52, 0
20, 651433, Note_on_c, 10, 55, 0
20, 651480, Note_on_c, 10, 58, 109
20, 651482, Note_on_c, 10, 54, 107
20, 651499, Note_on_c, 10, 49, 93
20, 651540, Note_on_c, 10, 58, 0
20, 651542, Note_on_c, 10, 54, 0
20, 651559, Note_on_c, 10, 49, 0
20, 651601, Note_on_c, 10, 49, 97
20, 651608, Note_on_c, 10, 52, 109
20, 651626, Note_on_c, 10, 57, 100
20, 651661, Note_on_c, 10, 49, 0
20, 651668, Note_on_c, 10, 52, 0
20, 651686, Note_on_c, 10, 57, 0
20, 651850, Note_on_c, 10, 55, 107
20, 651858, Note_on_c, 10, 46, 98
20, 651861, Note_on_c, 10, 51, 110
20, 651910, Note_on_c, 10, 55, 0
20, 651918, Note_on_c, 10, 46, 0
20, 651921, Note_on_c, 10, 51, 0
20, 652102, Note_on_c, 10, 52, 111
20, 652104, Note_on_c, 10, 60, 91
20, 652104, Note_on_c, 10, 55, 102
20, 652162, Note_on_c, 10, 52, 0
20, 652164, Note_on_c, 10, 60, 0
20, 652164, Note_on_c, 10, 55, 0
20, 652220, Note_on_c, 10, 58, 108
20, 652224, Note_on_c, 10, 54, 102
20, 652227, Note_on_c, 10, 49, 105
20, 652280, Note_on_c, 10, 58, 0
20, 652284, Note_on_c, 10, 54, 0
20, 652287, Note_on_c, 10, 49, 0
20, 652320, Note_on_c, 10, 49, 102
20, 652341, Note_on_c, 10, 52, 92
20, 652348, Note_on_c, 10, 57, 96
20, 652380, Note_on_c, 10, 49, 0
20, 652401, Note_on_c, 10, 52, 0
20, 652408, Note_on_c, 10, 57, 0
20, 652563, Note_on_c, 10, 46, 96
20, 652565, Note_on_c, 10, 55, 98
20, 652576, Note_on_c, 10, 51, 106
20, 652623, Note_on_c, 10, 46, 0
20, 652625, Note_on_c, 10, 55, 0
20, 652636, Note_on_c, 10, 51, 0
20, 653049, Note_on_c, 10, 60, 97
20, 653056, Note_on_c, 10, 52, 103
20, 653060, Note_on_c, 10, 55, 96
20, 653109, Note_on_c, 10, 60, 0
20, 653116, Note_on_c, 10, 52, 0
20, 653120, Note_on_c, 10, 55, 0
20, 653166, Note_on_c, 10, 58, 92
20, 653173, Note_on_c, 10, 54, 98
20, 653173, Note_on_c, 10, 49, 99
20, 653226, Note_on_c, 10, 58, 0
20, 653233, Note_on_c, 10, 54, 0
20, 653233, Note_on_c, 10, 49, 0
20, 653288, Note_on_c, 10, 57, 92
20, 653300, Note_on_c, 10, 49, 98
20, 653303, Note_on_c, 10, 52, 99
20, 653348, Note_on_c, 10, 57, 0
20, 653360, Note_on_c, 10, 49, 0
20, 653363, Note_on_c, 10, 52, 0
20, 653530, Note_on_c, 10, 46, 107
20, 653534, Note_on_c, 10, 55, 111
20, 653543, Note_on_c, 10, 51, 109
20, 653590, Note_on_c, 10, 46, 0
20, 653594, Note_on_c, 10, 55, 0
20, 653603, Note_on_c, 10, 51, 0
20, 653762, Note_on_c, 10, 60, 94
20, 653772, Note_on_c, 10, 52, 108
20, 653783, Note_on_c, 10, 55, 91
20, 653822, Note_on_c, 10, 60, 0
20, 653832, Note_on_c, 10, 52, 0
20, 653843, Note_on_c, 10, 55, 0
20, 653895, Note_on_c, 10, 58, 91
20, 653898, Note_on_c, 10, 54, 107
20, 653906, Note_on_c, 10, 49, 101
20, 653955, Note_on_c, 10, 58, 0
20, 653958, Note_on_c, 10, 54, 0
20, 653966, Note_on_c, 10, 49, 0
20, 654007, Note_on_c, 10, 49, 92
20, 654017, Note_on_c, 10, 52, 110
20, 654021, Note_on_c, 10, 57, 94
20, 654067, Note_on_c, 10, 49, 0
20, 654077, Note_on_c, 10, 52, 0
20, 654081, Note_on_c, 10, 57, 0
20, 654243, Note_on_c, 10, 55, 110
20, 654253, Note_on_c, 10, 51, 93
20, 654267, Note_on_c, 10, 46, 97
20, 654303, Note_on_c, 10, 55, 0
20, 654313, Note_on_c, 10, 51, 0
20, 654327, Note_on_c, 10, 46, 0
20, 654724, Note_on_c, 10, 52, 101
20, 654739, Note_on_c, 10, 60, 111
20, 654742, Note_on_c, 10, 55, 101
20, 654784, Note_on_c, 10, 52, 0
20, 654799, Note_on_c, 10, 60, 0
20, 654802, Note_on_c, 10, 55, 0
20, 654847, Note_on_c, 10, 54, 93
20, 654855, Note_on_c, 10, 49, 102
20, 654860, Note_on_c, 10, 58, 97
20, 654907, Note_on_c, 10, 54, 0
20, 654915, Note_on_c, 10, 49, 0
20, 654920, Note_on_c, 10, 58, 0
20, 654968, Note_on_c, 10, 49, 91
20, 654968, Note_on_c, 10, 57, 98
20, 654978, Note_on_c, 10, 52, 100
20, 655028, Note_on_c, 10, 49, 0
20, 655028, Note_on_c, 10, 57, 0
20, 655038, Note_on_c, 10, 52, 0
20, 655090, Note_on_c, 10, 55, 98
20, 655093, Note_on_c, 10, 46, 92
20, 655103, Note_on_c, 10, 51, 108
20, 655150, Note_on_c, 10, 55, 0
20, 655153, Note_on_c, 10, 46, 0
20, 655163, Note_on_c, 10, 51, 0
20, 655322, Note_on_c, 10, 58, 118
20, 655324, Note_on_c, 10, 53, 111
20, 655330, Note_on_c, 10, 61, 115
20, 655382, Note_on_c, 10, 58, 0
20, 655384, Note_on_c, 10, 53, 0
20, 655390, Note_on_c, 10, 61, 0
20, 658086, Note_on_c, 10, 56, 119
20, 658102, Note_on_c, 10, 44, 111
20, 658104, Note_on_c, 10, 52, 106
20, 658139, Note_on_c, 10, 56, 0
20, 658155, Note_on_c, 10, 44, 0
20, 658157, Note_on_c, 10, 52, 0
20, 658157, End_track
21, 0, Start_track
21, 0, Title_t, "Tube"
21, 0, MIDI_port, 0
21, 0, Program_c, 7, 57
21, 10570, Note_on_c, 7, 26, 61
21, 10588, Note_on_c, 7, 38, 59
21, 12250, Note_on_c, 7, 26, 0
21, 12268, Note_on_c, 7, 38, 0
21, 15366, Note_on_c, 7, 38, 70
21, 15382, Note_on_c, 7, 26, 60
21, 17046, Note_on_c, 7, 38, 0
21, 17062, Note_on_c, 7, 26, 0
21, 19692, Note_on_c, 7, 38, 66
21, 19698, Note_on_c, 7, 26, 64
21, 21372, Note_on_c, 7, 38, 0
21, 21378, Note_on_c, 7, 26, 0
21, 210254, Note_on_c, 7, 61, 100
21, 210260, Note_on_c, 7, 55, 107
21, 210374, Note_on_c, 7, 61, 0
21, 210380, Note_on_c, 7, 55, 0
21, 216000, Note_on_c, 7, 33, 102
21, 216009, Note_on_c, 7, 45, 115
21, 216240, Note_on_c, 7, 33, 0
21, 216249, Note_on_c, 7, 45, 0
21, 217214, Note_on_c, 7, 45, 100
21, 217221, Note_on_c, 7, 33, 118
21, 217454, Note_on_c, 7, 45, 0
21, 217461, Note_on_c, 7, 33, 0
21, 220563, Note_on_c, 7, 45, 113
21, 220577, Note_on_c, 7, 33, 107
21, 220803, Note_on_c, 7, 45, 0
21, 220817, Note_on_c, 7, 33, 0
21, 221770, Note_on_c, 7, 33, 114
21, 221780, Note_on_c, 7, 45, 103
21, 222010, Note_on_c, 7, 33, 0
21, 222020, Note_on_c, 7, 45, 0
21, 222243, Note_on_c, 7, 33, 117
21, 222255, Note_on_c, 7, 45, 100
21, 222483, Note_on_c, 7, 33, 0
21, 222495, Note_on_c, 7, 45, 0
21, 223456, Note_on_c, 7, 33, 105
21, 223462, Note_on_c, 7, 45, 102
21, 223696, Note_on_c, 7, 33, 0
21, 223702, Note_on_c, 7, 45, 0
21, 233295, Note_on_c, 7, 33, 109
21, 233299, Note_on_c, 7, 45, 106
21, 233535, Note_on_c, 7, 33, 0
21, 233539, Note_on_c, 7, 45, 0
21, 239767, Note_on_c, 7, 33, 113
21, 239786, Note_on_c, 7, 45, 112
21, 240007, Note_on_c, 7, 33, 0
21, 240026, Note_on_c, 7, 45, 0
21, 243130, Note_on_c, 7, 33, 109
21, 243145, Note_on_c, 7, 45, 110
21, 243370, Note_on_c, 7, 33, 0
21, 243385, Note_on_c, 7, 45, 0
21, 244328, Note_on_c, 7, 33, 118
21, 244348, Note_on_c, 7, 45, 103
21, 244568, Note_on_c, 7, 33, 0
21, 244588, Note_on_c, 7, 45, 0
21, 245531, Note_on_c, 7, 45, 106
21, 245538, Note_on_c, 7, 33, 106
21, 245771, Note_on_c, 7, 45, 0
21, 245778, Note_on_c, 7, 33, 0
21, 246005, Note_on_c, 7, 33, 106
21, 246011, Note_on_c, 7, 45, 111
21, 246245, Note_on_c, 7, 33, 0
21, 246251, Note_on_c, 7, 45, 0
21, 247205, Note_on_c, 7, 45, 116
21, 247210, Note_on_c, 7, 33, 111
21, 247445, Note_on_c, 7, 45, 0
21, 247450, Note_on_c, 7, 33, 0
21, 253933, Note_on_c, 7, 66, 104
21, 254293, Note_on_c, 7, 66, 0
21, 254409, Note_on_c, 7, 53, 106
21, 254769, Note_on_c, 7, 53, 0
21, 254889, Note_on_c, 7, 66, 99
21, 255249, Note_on_c, 7, 66, 0
21, 255379, Note_on_c, 7, 53, 91
21, 255739, Note_on_c, 7, 53, 0
21, 255854, Note_on_c, 7, 66, 107
21, 256214, Note_on_c, 7, 66, 0
21, 256325, Note_on_c, 7, 53, 91
21, 256685, Note_on_c, 7, 53, 0
21, 259216, Note_on_c, 7, 53, 94
21, 259576, Note_on_c, 7, 53, 0
21, 259683, Note_on_c, 7, 66, 97
21, 260043, Note_on_c, 7, 66, 0
21, 260184, Note_on_c, 7, 53, 100
21, 260544, Note_on_c, 7, 53, 0
21, 260657, Note_on_c, 7, 66, 92
21, 261017, Note_on_c, 7, 66, 0
21, 261129, Note_on_c, 7, 53, 99
21, 261489, Note_on_c, 7, 53, 0
21, 261610, Note_on_c, 7, 66, 99
21, 261970, Note_on_c, 7, 66, 0
21, 262089, Note_on_c, 7, 53, 104
21, 262449, Note_on_c, 7, 53, 0
21, 262581, Note_on_c, 7, 66, 103
21, 262941, Note_on_c, 7, 66, 0
21, 263063, Note_on_c, 7, 53, 93
21, 263423, Note_on_c, 7, 53, 0
21, 263540, Note_on_c, 7, 66, 93
21, 263900, Note_on_c, 7, 66, 0
21, 264023, Note_on_c, 7, 53, 99
21, 264383, Note_on_c, 7, 53, 0
21, 279865, Note_on_c, 7, 56, 123
21, 279985, Note_on_c, 7, 56, 0
21, 280100, Note_on_c, 7, 60, 121
21, 280220, Note_on_c, 7, 60, 0
21, 280343, Note_on_c, 7, 58, 112
21, 280423, Note_on_c, 7, 58, 0
21, 280505, Note_on_c, 7, 58, 113
21, 280585, Note_on_c, 7, 58, 0
21, 280655, Note_on_c, 7, 55, 114
21, 280735, Note_on_c, 7, 55, 0
21, 280803, Note_on_c, 7, 53, 127
21, 281043, Note_on_c, 7, 53, 0
21, 284179, Note_on_c, 7, 56, 111
21, 284299, Note_on_c, 7, 56, 0
21, 284427, Note_on_c, 7, 60, 127
21, 284547, Note_on_c, 7, 60, 0
21, 284652, Note_on_c, 7, 58, 127
21, 284732, Note_on_c, 7, 58, 0
21, 284827, Note_on_c, 7, 58, 114
21, 284907, Note_on_c, 7, 58, 0
21, 284983, Note_on_c, 7, 55, 112
21, 285063, Note_on_c, 7, 55, 0
21, 286580, Note_on_c, 7, 56, 120
21, 286700, Note_on_c, 7, 56, 0
21, 286821, Note_on_c, 7, 60, 120
21, 286941, Note_on_c, 7, 60, 0
21, 287068, Note_on_c, 7, 58, 112
21, 287148, Note_on_c, 7, 58, 0
21, 287206, Note_on_c, 7, 58, 125
21, 287286, Note_on_c, 7, 58, 0
21, 287373, Note_on_c, 7, 56, 127
21, 287453, Note_on_c, 7, 56, 0
21, 287525, Note_on_c, 7, 56, 101
21, 287645, Note_on_c, 7, 56, 0
21, 287645, Note_on_c, 7, 58, 96
21, 287765, Note_on_c, 7, 58, 0
21, 287778, Note_on_c, 7, 54, 97
21, 287894, Note_on_c, 7, 56, 101
21, 287898, Note_on_c, 7, 54, 0
21, 288001, Note_on_c, 7, 51, 96
21, 288008, Note_on_c, 7, 39, 105
21, 288014, Note_on_c, 7, 56, 0
21, 288241, Note_on_c, 7, 51, 0
21, 288248, Note_on_c, 7, 39, 0
21, 290649, Note_on_c, 7, 33, 104
21, 290660, Note_on_c, 7, 45, 111
21, 290889, Note_on_c, 7, 33, 0
21, 290900, Note_on_c, 7, 45, 0
21, 291846, Note_on_c, 7, 45, 109
21, 291850, Note_on_c, 7, 33, 117
21, 292086, Note_on_c, 7, 45, 0
21, 292090, Note_on_c, 7, 33, 0
21, 295201, Note_on_c, 7, 33, 113
21, 295215, Note_on_c, 7, 45, 119
21, 295441, Note_on_c, 7, 33, 0
21, 295455, Note_on_c, 7, 45, 0
21, 296414, Note_on_c, 7, 33, 108
21, 296427, Note_on_c, 7, 45, 109
21, 296654, Note_on_c, 7, 33, 0
21, 296667, Note_on_c, 7, 45, 0
21, 296888, Note_on_c, 7, 33, 105
21, 296896, Note_on_c, 7, 45, 100
21, 297128, Note_on_c, 7, 33, 0
21, 297136, Note_on_c, 7, 45, 0
21, 298103, Note_on_c, 7, 33, 115
21, 298108, Note_on_c, 7, 45, 109
21, 298343, Note_on_c, 7, 33, 0
21, 298348, Note_on_c, 7, 45, 0
21, 300744, Note_on_c, 7, 45, 117
21, 300746, Note_on_c, 7, 33, 103
21, 300984, Note_on_c, 7, 45, 0
21, 300986, Note_on_c, 7, 33, 0
21, 304082, Note_on_c, 7, 45, 114
21, 304099, Note_on_c, 7, 33, 116
21, 304322, Note_on_c, 7, 45, 0
21, 304339, Note_on_c, 7, 33, 0
21, 305286, Note_on_c, 7, 33, 105
21, 305289, Note_on_c, 7, 45, 112
21, 305526, Note_on_c, 7, 33, 0
21, 305529, Note_on_c, 7, 45, 0
21, 306482, Note_on_c, 7, 33, 101
21, 306505, Note_on_c, 7, 45, 117
21, 306722, Note_on_c, 7, 33, 0
21, 306745, Note_on_c, 7, 45, 0
21, 306970, Note_on_c, 7, 33, 103
21, 306972, Note_on_c, 7, 45, 104
21, 307210, Note_on_c, 7, 33, 0
21, 307212, Note_on_c, 7, 45, 0
21, 308166, Note_on_c, 7, 33, 119
21, 308185, Note_on_c, 7, 45, 117
21, 308406, Note_on_c, 7, 33, 0
21, 308425, Note_on_c, 7, 45, 0
21, 312240, Note_on_c, 7, 42, 102
21, 312480, Note_on_c, 7, 42, 0
21, 322331, Note_on_c, 7, 43, 100
21, 322811, Note_on_c, 7, 43, 0
21, 323301, Note_on_c, 7, 39, 107
21, 323781, Note_on_c, 7, 39, 0
21, 326654, Note_on_c, 7, 42, 97
21, 326894, Note_on_c, 7, 42, 0
21, 334820, Note_on_c, 7, 42, 106
21, 335060, Note_on_c, 7, 42, 0
21, 341524, Note_on_c, 7, 43, 95
21, 342004, Note_on_c, 7, 43, 0
21, 342483, Note_on_c, 7, 39, 81
21, 342963, Note_on_c, 7, 39, 0
21, 346330, Note_on_c, 7, 43, 92
21, 346810, Note_on_c, 7, 43, 0
21, 347285, Note_on_c, 7, 39, 84
21, 347765, Note_on_c, 7, 39, 0
21, 349687, Note_on_c, 7, 43, 93
21, 350167, Note_on_c, 7, 43, 0
21, 350644, Note_on_c, 7, 39, 89
21, 351124, Note_on_c, 7, 39, 0
21, 357848, Note_on_c, 7, 42, 108
21, 358088, Note_on_c, 7, 42, 0
21, 382343, Note_on_c, 7, 42, 102
21, 382583, Note_on_c, 7, 42, 0
21, 443760, Note_on_c, 7, 38, 119
21, 443764, Note_on_c, 7, 45, 116
21, 443867, Note_on_c, 7, 38, 0
21, 443871, Note_on_c, 7, 45, 0
21, 445211, Note_on_c, 7, 45, 119
21, 445213, Note_on_c, 7, 38, 113
21, 445318, Note_on_c, 7, 45, 0
21, 445320, Note_on_c, 7, 38, 0
21, 446596, Control_c, 7, 11, 65
21, 446604, Control_c, 7, 11, 66
21, 446612, Control_c, 7, 11, 67
21, 446621, Control_c, 7, 11, 68
21, 446629, Control_c, 7, 11, 69
21, 446637, Control_c, 7, 11, 70
21, 446645, Note_on_c, 7, 38, 108
21, 446646, Control_c, 7, 11, 71
21, 446654, Control_c, 7, 11, 72
21, 446662, Control_c, 7, 11, 73
21, 446670, Control_c, 7, 11, 74
21, 446679, Control_c, 7, 11, 75
21, 446687, Control_c, 7, 11, 76
21, 446696, Control_c, 7, 11, 77
21, 446704, Control_c, 7, 11, 78
21, 446712, Control_c, 7, 11, 79
21, 446721, Control_c, 7, 11, 80
21, 446729, Control_c, 7, 11, 81
21, 446737, Control_c, 7, 11, 82
21, 446745, Control_c, 7, 11, 83
21, 446754, Control_c, 7, 11, 84
21, 446762, Control_c, 7, 11, 85
21, 446770, Control_c, 7, 11, 86
21, 446779, Control_c, 7, 11, 87
21, 446787, Control_c, 7, 11, 88
21, 446795, Control_c, 7, 11, 89
21, 446804, Control_c, 7, 11, 90
21, 446812, Control_c, 7, 11, 91
21, 446820, Control_c, 7, 11, 92
21, 446828, Control_c, 7, 11, 93
21, 446837, Control_c, 7, 11, 94
21, 446845, Control_c, 7, 11, 95
21, 446854, Control_c, 7, 11, 96
21, 446862, Control_c, 7, 11, 97
21, 446870, Control_c, 7, 11, 98
21, 446879, Control_c, 7, 11, 99
21, 446887, Control_c, 7, 11, 100
21, 446895, Control_c, 7, 11, 101
21, 446903, Control_c, 7, 11, 102
21, 446912, Control_c, 7, 11, 103
21, 446920, Control_c, 7, 11, 104
21, 446928, Control_c, 7, 11, 105
21, 446937, Control_c, 7, 11, 106
21, 446945, Control_c, 7, 11, 107
21, 446953, Control_c, 7, 11, 108
21, 446962, Control_c, 7, 11, 109
21, 446970, Control_c, 7, 11, 110
21, 446978, Control_c, 7, 11, 111
21, 446986, Control_c, 7, 11, 112
21, 446995, Control_c, 7, 11, 113
21, 447003, Control_c, 7, 11, 114
21, 447011, Control_c, 7, 11, 115
21, 447020, Control_c, 7, 11, 116
21, 447028, Control_c, 7, 11, 117
21, 447037, Control_c, 7, 11, 118
21, 447045, Control_c, 7, 11, 119
21, 447053, Control_c, 7, 11, 120
21, 447061, Control_c, 7, 11, 121
21, 447070, Control_c, 7, 11, 122
21, 447078, Control_c, 7, 11, 123
21, 447086, Control_c, 7, 11, 124
21, 447095, Control_c, 7, 11, 125
21, 447103, Control_c, 7, 11, 126
21, 447111, Control_c, 7, 11, 127
21, 447125, Note_on_c, 7, 38, 0
21, 447145, Note_on_c, 7, 38, 103
21, 447147, Note_on_c, 7, 45, 101
21, 447252, Note_on_c, 7, 38, 0
21, 447254, Note_on_c, 7, 45, 0
21, 448095, Note_on_c, 7, 53, 111
21, 448202, Note_on_c, 7, 53, 0
21, 450021, Note_on_c, 7, 53, 102
21, 450128, Note_on_c, 7, 53, 0
21, 451940, Note_on_c, 7, 53, 120
21, 452047, Note_on_c, 7, 53, 0
21, 457681, Note_on_c, 7, 36, 78
21, 457921, Note_on_c, 7, 36, 0
21, 458169, Note_on_c, 7, 36, 71
21, 458409, Note_on_c, 7, 36, 0
21, 458649, Note_on_c, 7, 36, 76
21, 458889, Note_on_c, 7, 36, 0
21, 459136, Note_on_c, 7, 36, 75
21, 459376, Note_on_c, 7, 36, 0
21, 459622, Note_on_c, 7, 36, 85
21, 459862, Note_on_c, 7, 36, 0
21, 460094, Note_on_c, 7, 36, 70
21, 460334, Note_on_c, 7, 36, 0
21, 460569, Note_on_c, 7, 36, 80
21, 460809, Note_on_c, 7, 36, 0
21, 461040, Note_on_c, 7, 36, 77
21, 461280, Note_on_c, 7, 36, 0
21, 461535, Note_on_c, 7, 36, 70
21, 461775, Note_on_c, 7, 36, 0
21, 462008, Note_on_c, 7, 36, 79
21, 462248, Note_on_c, 7, 36, 0
21, 462483, Note_on_c, 7, 36, 79
21, 462723, Note_on_c, 7, 36, 0
21, 462979, Note_on_c, 7, 36, 68
21, 463219, Note_on_c, 7, 36, 0
21, 463445, Note_on_c, 7, 36, 83
21, 463685, Note_on_c, 7, 36, 0
21, 463927, Note_on_c, 7, 36, 72
21, 464167, Note_on_c, 7, 36, 0
21, 464417, Note_on_c, 7, 36, 67
21, 464657, Note_on_c, 7, 36, 0
21, 464901, Note_on_c, 7, 36, 66
21, 465141, Note_on_c, 7, 36, 0
21, 465380, Note_on_c, 7, 36, 78
21, 465620, Note_on_c, 7, 36, 0
21, 465852, Note_on_c, 7, 36, 80
21, 466092, Note_on_c, 7, 36, 0
21, 466340, Note_on_c, 7, 36, 76
21, 466580, Note_on_c, 7, 36, 0
21, 466812, Note_on_c, 7, 36, 77
21, 467052, Note_on_c, 7, 36, 0
21, 495370, Note_on_c, 7, 38, 117
21, 495423, Note_on_c, 7, 38, 0
21, 495864, Note_on_c, 7, 38, 120
21, 495917, Note_on_c, 7, 38, 0
21, 497886, Note_on_c, 7, 38, 100
21, 497939, Note_on_c, 7, 38, 0
21, 498364, Note_on_c, 7, 38, 113
21, 498417, Note_on_c, 7, 38, 0
21, 499562, Note_on_c, 7, 38, 116
21, 499615, Note_on_c, 7, 38, 0
21, 500650, Note_on_c, 7, 38, 101
21, 500703, Note_on_c, 7, 38, 0
21, 501731, Note_on_c, 7, 38, 119
21, 501784, Note_on_c, 7, 38, 0
21, 502819, Note_on_c, 7, 38, 119
21, 502872, Note_on_c, 7, 38, 0
21, 503414, Note_on_c, 7, 38, 115
21, 503467, Note_on_c, 7, 38, 0
21, 535922, Note_on_c, 7, 38, 92
21, 535941, Note_on_c, 7, 53, 109
21, 536042, Note_on_c, 7, 38, 0
21, 536061, Note_on_c, 7, 53, 0
21, 536160, Note_on_c, 7, 40, 111
21, 536177, Note_on_c, 7, 56, 91
21, 536280, Note_on_c, 7, 40, 0
21, 536297, Note_on_c, 7, 56, 0
21, 536408, Note_on_c, 7, 58, 96
21, 536427, Note_on_c, 7, 42, 98
21, 536528, Note_on_c, 7, 58, 0
21, 536547, Note_on_c, 7, 42, 0
21, 536645, Note_on_c, 7, 43, 108
21, 536651, Note_on_c, 7, 59, 100
21, 536765, Note_on_c, 7, 43, 0
21, 536771, Note_on_c, 7, 59, 0
21, 536906, Note_on_c, 7, 60, 99
21, 536907, Note_on_c, 7, 45, 100
21, 537026, Note_on_c, 7, 60, 0
21, 537027, Note_on_c, 7, 45, 0
21, 537131, Note_on_c, 7, 46, 96
21, 537140, Note_on_c, 7, 61, 94
21, 537251, Note_on_c, 7, 46, 0
21, 537260, Note_on_c, 7, 61, 0
21, 537369, Note_on_c, 7, 47, 98
21, 537381, Note_on_c, 7, 62, 94
21, 537429, Note_on_c, 7, 47, 0
21, 537441, Note_on_c, 7, 62, 0
21, 550814, Note_on_c, 7, 48, 114
21, 550934, Note_on_c, 7, 48, 0
21, 555609, Note_on_c, 7, 37, 107
21, 555662, Note_on_c, 7, 37, 0
21, 556083, Note_on_c, 7, 37, 104
21, 556136, Note_on_c, 7, 37, 0
21, 558141, Note_on_c, 7, 37, 105
21, 558194, Note_on_c, 7, 37, 0
21, 558601, Note_on_c, 7, 37, 120
21, 558654, Note_on_c, 7, 37, 0
21, 559822, Note_on_c, 7, 37, 119
21, 559875, Note_on_c, 7, 37, 0
21, 560901, Note_on_c, 7, 37, 110
21, 560954, Note_on_c, 7, 37, 0
21, 561986, Note_on_c, 7, 37, 115
21, 562039, Note_on_c, 7, 37, 0
21, 563022, Program_c, 7, 57
21, 563043, Note_on_c, 7, 37, 103
21, 563096, Note_on_c, 7, 37, 0
21, 563659, Note_on_c, 7, 36, 100
21, 563712, Note_on_c, 7, 36, 0
21, 564501, Note_on_c, 7, 39, 83
21, 564741, Note_on_c, 7, 39, 0
21, 565457, Note_on_c, 7, 33, 85
21, 565458, Note_on_c, 7, 45, 82
21, 565697, Note_on_c, 7, 33, 0
21, 565698, Note_on_c, 7, 45, 0
21, 566901, Note_on_c, 7, 39, 93
21, 567141, Note_on_c, 7, 39, 0
21, 567841, Note_on_c, 7, 33, 80
21, 567859, Note_on_c, 7, 45, 87
21, 568081, Note_on_c, 7, 33, 0
21, 568099, Note_on_c, 7, 45, 0
21, 568331, Note_on_c, 7, 39, 93
21, 568571, Note_on_c, 7, 39, 0
21, 569282, Note_on_c, 7, 45, 80
21, 569304, Note_on_c, 7, 33, 85
21, 569522, Note_on_c, 7, 45, 0
21, 569544, Note_on_c, 7, 33, 0
21, 570737, Note_on_c, 7, 39, 81
21, 570977, Note_on_c, 7, 39, 0
21, 571703, Note_on_c, 7, 33, 80
21, 571707, Note_on_c, 7, 45, 95
21, 571943, Note_on_c, 7, 33, 0
21, 571947, Note_on_c, 7, 45, 0
21, 572163, Note_on_c, 7, 39, 79
21, 572403, Note_on_c, 7, 39, 0
21, 573141, Note_on_c, 7, 45, 87
21, 573142, Note_on_c, 7, 33, 85
21, 573381, Note_on_c, 7, 45, 0
21, 573382, Note_on_c, 7, 33, 0
21, 574572, Note_on_c, 7, 39, 94
21, 574812, Note_on_c, 7, 39, 0
21, 575526, Note_on_c, 7, 33, 88
21, 575539, Note_on_c, 7, 45, 91
21, 575766, Note_on_c, 7, 33, 0
21, 575779, Note_on_c, 7, 45, 0
21, 576494, Note_on_c, 7, 39, 87
21, 576734, Note_on_c, 7, 39, 0
21, 577443, Note_on_c, 7, 33, 96
21, 577451, Note_on_c, 7, 45, 82
21, 577683, Note_on_c, 7, 33, 0
21, 577691, Note_on_c, 7, 45, 0
21, 578891, Note_on_c, 7, 39, 91
21, 579131, Note_on_c, 7, 39, 0
21, 579846, Note_on_c, 7, 33, 96
21, 579868, Note_on_c, 7, 45, 95
21, 580086, Note_on_c, 7, 33, 0
21, 580108, Note_on_c, 7, 45, 0
21, 581290, Note_on_c, 7, 39, 82
21, 581530, Note_on_c, 7, 39, 0
21, 582256, Note_on_c, 7, 33, 86
21, 582265, Note_on_c, 7, 45, 84
21, 582496, Note_on_c, 7, 33, 0
21, 582505, Note_on_c, 7, 45, 0
21, 583207, Note_on_c, 7, 39, 93
21, 583447, Note_on_c, 7, 39, 0
21, 584172, Note_on_c, 7, 45, 94
21, 584186, Note_on_c, 7, 33, 98
21, 584412, Note_on_c, 7, 45, 0
21, 584426, Note_on_c, 7, 33, 0
21, 585123, Note_on_c, 7, 39, 81
21, 585363, Note_on_c, 7, 39, 0
21, 586098, Note_on_c, 7, 45, 83
21, 586107, Note_on_c, 7, 33, 86
21, 586338, Note_on_c, 7, 45, 0
21, 586347, Note_on_c, 7, 33, 0
21, 587060, Note_on_c, 7, 39, 80
21, 587300, Note_on_c, 7, 39, 0
21, 588007, Note_on_c, 7, 45, 87
21, 588024, Note_on_c, 7, 33, 87
21, 588247, Note_on_c, 7, 45, 0
21, 588264, Note_on_c, 7, 33, 0
21, 588489, Note_on_c, 7, 39, 93
21, 588729, Note_on_c, 7, 39, 0
21, 589452, Note_on_c, 7, 45, 84
21, 589457, Note_on_c, 7, 33, 86
21, 589692, Note_on_c, 7, 45, 0
21, 589697, Note_on_c, 7, 33, 0
21, 590908, Note_on_c, 7, 39, 94
21, 591148, Note_on_c, 7, 39, 0
21, 591857, Note_on_c, 7, 45, 97
21, 591868, Note_on_c, 7, 33, 83
21, 592097, Note_on_c, 7, 45, 0
21, 592108, Note_on_c, 7, 33, 0
21, 593292, Note_on_c, 7, 39, 81
21, 593532, Note_on_c, 7, 39, 0
21, 594260, Note_on_c, 7, 33, 79
21, 594260, Note_on_c, 7, 45, 93
21, 594500, Note_on_c, 7, 33, 0
21, 594500, Note_on_c, 7, 45, 0
21, 595699, Note_on_c, 7, 39, 98
21, 595939, Note_on_c, 7, 39, 0
21, 596667, Note_on_c, 7, 45, 97
21, 596668, Note_on_c, 7, 33, 81
21, 596907, Note_on_c, 7, 45, 0
21, 596908, Note_on_c, 7, 33, 0
21, 598094, Note_on_c, 7, 39, 88
21, 598334, Note_on_c, 7, 39, 0
21, 599043, Note_on_c, 7, 45, 91
21, 599046, Note_on_c, 7, 33, 78
21, 599283, Note_on_c, 7, 45, 0
21, 599286, Note_on_c, 7, 33, 0
21, 600498, Note_on_c, 7, 39, 90
21, 600738, Note_on_c, 7, 39, 0
21, 601461, Note_on_c, 7, 33, 104
21, 601461, Note_on_c, 7, 45, 109
21, 601514, Note_on_c, 7, 33, 0
21, 601514, Note_on_c, 7, 45, 0
21, 602061, Note_on_c, 7, 38, 119
21, 602108, Note_on_c, 7, 38, 0
21, 603505, Note_on_c, 7, 38, 111
21, 603625, Note_on_c, 7, 38, 0
21, 603729, Note_on_c, 7, 29, 114
21, 603739, Note_on_c, 7, 41, 110
21, 603849, Note_on_c, 7, 29, 0
21, 603859, Note_on_c, 7, 41, 0
21, 604705, Note_on_c, 7, 39, 103
21, 604945, Note_on_c, 7, 39, 0
21, 605659, Note_on_c, 7, 45, 102
21, 605666, Note_on_c, 7, 33, 120
21, 605899, Note_on_c, 7, 45, 0
21, 605906, Note_on_c, 7, 33, 0
21, 607095, Note_on_c, 7, 39, 108
21, 607335, Note_on_c, 7, 39, 0
21, 608044, Note_on_c, 7, 45, 111
21, 608066, Note_on_c, 7, 33, 106
21, 608284, Note_on_c, 7, 45, 0
21, 608306, Note_on_c, 7, 33, 0
21, 609506, Note_on_c, 7, 39, 118
21, 609746, Note_on_c, 7, 39, 0
21, 610455, Note_on_c, 7, 45, 100
21, 610466, Note_on_c, 7, 33, 102
21, 610695, Note_on_c, 7, 45, 0
21, 610706, Note_on_c, 7, 33, 0
21, 611886, Note_on_c, 7, 39, 104
21, 612126, Note_on_c, 7, 39, 0
21, 612841, Note_on_c, 7, 33, 115
21, 612861, Note_on_c, 7, 45, 111
21, 613081, Note_on_c, 7, 33, 0
21, 613101, Note_on_c, 7, 45, 0
21, 614292, Note_on_c, 7, 39, 103
21, 614532, Note_on_c, 7, 39, 0
21, 615250, Note_on_c, 7, 45, 102
21, 615257, Note_on_c, 7, 33, 109
21, 615490, Note_on_c, 7, 45, 0
21, 615497, Note_on_c, 7, 33, 0
21, 616683, Note_on_c, 7, 39, 106
21, 616923, Note_on_c, 7, 39, 0
21, 617646, Note_on_c, 7, 33, 109
21, 617647, Note_on_c, 7, 45, 105
21, 617886, Note_on_c, 7, 33, 0
21, 617887, Note_on_c, 7, 45, 0
21, 619090, Note_on_c, 7, 39, 115
21, 619330, Note_on_c, 7, 39, 0
21, 620047, Note_on_c, 7, 33, 119
21, 620065, Note_on_c, 7, 45, 117
21, 620287, Note_on_c, 7, 33, 0
21, 620305, Note_on_c, 7, 45, 0
21, 621482, Note_on_c, 7, 39, 109
21, 621722, Note_on_c, 7, 39, 0
21, 622455, Note_on_c, 7, 33, 117
21, 622468, Note_on_c, 7, 45, 111
21, 622695, Note_on_c, 7, 33, 0
21, 622708, Note_on_c, 7, 45, 0
21, 623882, Note_on_c, 7, 39, 106
21, 624122, Note_on_c, 7, 39, 0
21, 624842, Note_on_c, 7, 33, 100
21, 624868, Note_on_c, 7, 45, 100
21, 625082, Note_on_c, 7, 33, 0
21, 625108, Note_on_c, 7, 45, 0
21, 626300, Note_on_c, 7, 39, 118
21, 626540, Note_on_c, 7, 39, 0
21, 627247, Note_on_c, 7, 33, 105
21, 627257, Note_on_c, 7, 45, 115
21, 627487, Note_on_c, 7, 33, 0
21, 627497, Note_on_c, 7, 45, 0
21, 627725, Note_on_c, 7, 40, 105
21, 627727, Note_on_c, 7, 33, 115
21, 627772, Note_on_c, 7, 40, 0
21, 627847, Note_on_c, 7, 33, 0
21, 627851, Note_on_c, 7, 49, 105
21, 627898, Note_on_c, 7, 49, 0
21, 627981, Note_on_c, 7, 36, 106
21, 628085, Note_on_c, 7, 49, 110
21, 628132, Note_on_c, 7, 49, 0
21, 628210, Note_on_c, 7, 33, 113
21, 628221, Note_on_c, 7, 36, 0
21, 628320, Note_on_c, 7, 36, 100
21, 628330, Note_on_c, 7, 33, 0
21, 628440, Note_on_c, 7, 36, 0
21, 628804, Note_on_c, 7, 33, 107
21, 628924, Note_on_c, 7, 33, 0
21, 628947, Note_on_c, 7, 49, 109
21, 628994, Note_on_c, 7, 49, 0
21, 629046, Note_on_c, 7, 33, 117
21, 629166, Note_on_c, 7, 33, 0
21, 629540, Note_on_c, 7, 33, 107
21, 629645, Note_on_c, 7, 49, 109
21, 629660, Note_on_c, 7, 33, 0
21, 629692, Note_on_c, 7, 49, 0
21, 629777, Note_on_c, 7, 36, 108
21, 629883, Note_on_c, 7, 49, 105
21, 629930, Note_on_c, 7, 49, 0
21, 630004, Note_on_c, 7, 33, 114
21, 630017, Note_on_c, 7, 36, 0
21, 630124, Note_on_c, 7, 33, 0
21, 630132, Note_on_c, 7, 36, 109
21, 630252, Note_on_c, 7, 36, 0
21, 630604, Note_on_c, 7, 33, 108
21, 630724, Note_on_c, 7, 33, 0
21, 630733, Note_on_c, 7, 49, 103
21, 630780, Note_on_c, 7, 49, 0
21, 630859, Note_on_c, 7, 36, 110
21, 630970, Note_on_c, 7, 49, 119
21, 631017, Note_on_c, 7, 49, 0
21, 631090, Note_on_c, 7, 33, 112
21, 631099, Note_on_c, 7, 36, 0
21, 631208, Note_on_c, 7, 36, 107
21, 631210, Note_on_c, 7, 33, 0
21, 631328, Note_on_c, 7, 36, 0
21, 631698, Note_on_c, 7, 33, 105
21, 631805, Note_on_c, 7, 49, 115
21, 631818, Note_on_c, 7, 33, 0
21, 631852, Note_on_c, 7, 49, 0
21, 631931, Note_on_c, 7, 36, 106
21, 632051, Note_on_c, 7, 36, 0
21, 632403, Note_on_c, 7, 33, 102
21, 632523, Note_on_c, 7, 33, 0
21, 632524, Note_on_c, 7, 49, 117
21, 632571, Note_on_c, 7, 49, 0
21, 632648, Note_on_c, 7, 36, 118
21, 632776, Note_on_c, 7, 49, 111
21, 632823, Note_on_c, 7, 49, 0
21, 632888, Note_on_c, 7, 36, 0
21, 632890, Note_on_c, 7, 33, 112
21, 633010, Note_on_c, 7, 33, 0
21, 639974, Note_on_c, 7, 45, 95
21, 639974, Note_on_c, 7, 57, 96
21, 640034, Note_on_c, 7, 45, 0
21, 640034, Note_on_c, 7, 57, 0
21, 640097, Note_on_c, 7, 43, 96
21, 640100, Note_on_c, 7, 49, 93
21, 640157, Note_on_c, 7, 43, 0
21, 640160, Note_on_c, 7, 49, 0
21, 641182, Note_on_c, 7, 52, 108
21, 641188, Note_on_c, 7, 46, 108
21, 641242, Note_on_c, 7, 52, 0
21, 641248, Note_on_c, 7, 46, 0
21, 641283, Note_on_c, 7, 55, 102
21, 641288, Note_on_c, 7, 45, 107
21, 641343, Note_on_c, 7, 55, 0
21, 641348, Note_on_c, 7, 45, 0
21, 641400, Note_on_c, 7, 43, 94
21, 641424, Note_on_c, 7, 49, 110
21, 641460, Note_on_c, 7, 43, 0
21, 641484, Note_on_c, 7, 49, 0
21, 645372, Note_on_c, 7, 57, 104
21, 645373, Note_on_c, 7, 45, 100
21, 645432, Note_on_c, 7, 57, 0
21, 645433, Note_on_c, 7, 45, 0
21, 645480, Note_on_c, 7, 43, 101
21, 645495, Note_on_c, 7, 49, 109
21, 645540, Note_on_c, 7, 43, 0
21, 645555, Note_on_c, 7, 49, 0
21, 646697, Note_on_c, 7, 57, 94
21, 646705, Note_on_c, 7, 45, 96
21, 646757, Note_on_c, 7, 57, 0
21, 646765, Note_on_c, 7, 45, 0
21, 646805, Note_on_c, 7, 49, 106
21, 646825, Note_on_c, 7, 43, 102
21, 646865, Note_on_c, 7, 49, 0
21, 646885, Note_on_c, 7, 43, 0
21, 647281, Note_on_c, 7, 46, 105
21, 647300, Note_on_c, 7, 52, 103
21, 647341, Note_on_c, 7, 46, 0
21, 647360, Note_on_c, 7, 52, 0
21, 647400, Note_on_c, 7, 55, 102
21, 647409, Note_on_c, 7, 45, 92
21, 647460, Note_on_c, 7, 55, 0
21, 647469, Note_on_c, 7, 45, 0
21, 647521, Note_on_c, 7, 49, 104
21, 647529, Note_on_c, 7, 43, 100
21, 647581, Note_on_c, 7, 49, 0
21, 647589, Note_on_c, 7, 43, 0
21, 648018, Note_on_c, 7, 52, 101
21, 648027, Note_on_c, 7, 46, 108
21, 648078, Note_on_c, 7, 52, 0
21, 648087, Note_on_c, 7, 46, 0
21, 648123, Note_on_c, 7, 55, 92
21, 648148, Note_on_c, 7, 45, 104
21, 648183, Note_on_c, 7, 55, 0
21, 648208, Note_on_c, 7, 45, 0
21, 648362, Note_on_c, 7, 43, 108
21, 648369, Note_on_c, 7, 49, 104
21, 648422, Note_on_c, 7, 43, 0
21, 648429, Note_on_c, 7, 49, 0
21, 648855, Note_on_c, 7, 58, 105
21, 648859, Note_on_c, 7, 48, 110
21, 648915, Note_on_c, 7, 58, 0
21, 648919, Note_on_c, 7, 48, 0
21, 648966, Note_on_c, 7, 52, 109
21, 648989, Note_on_c, 7, 46, 99
21, 649026, Note_on_c, 7, 52, 0
21, 649049, Note_on_c, 7, 46, 0
21, 649084, Note_on_c, 7, 45, 106
21, 649100, Note_on_c, 7, 55, 102
21, 649144, Note_on_c, 7, 45, 0
21, 649160, Note_on_c, 7, 55, 0
21, 649320, Note_on_c, 7, 43, 106
21, 649337, Note_on_c, 7, 49, 93
21, 649380, Note_on_c, 7, 43, 0
21, 649397, Note_on_c, 7, 49, 0
21, 649824, Note_on_c, 7, 55, 106
21, 649825, Note_on_c, 7, 45, 99
21, 649884, Note_on_c, 7, 55, 0
21, 649885, Note_on_c, 7, 45, 0
21, 649929, Note_on_c, 7, 49, 91
21, 649938, Note_on_c, 7, 43, 100
21, 649989, Note_on_c, 7, 49, 0
21, 649998, Note_on_c, 7, 43, 0
21, 650412, Note_on_c, 7, 58, 91
21, 650425, Note_on_c, 7, 48, 98
21, 650472, Note_on_c, 7, 58, 0
21, 650485, Note_on_c, 7, 48, 0
21, 650531, Note_on_c, 7, 52, 111
21, 650537, Note_on_c, 7, 46, 103
21, 650591, Note_on_c, 7, 52, 0
21, 650597, Note_on_c, 7, 46, 0
21, 650652, Note_on_c, 7, 55, 96
21, 650667, Note_on_c, 7, 45, 105
21, 650712, Note_on_c, 7, 55, 0
21, 650727, Note_on_c, 7, 45, 0
21, 650886, Note_on_c, 7, 49, 105
21, 650895, Note_on_c, 7, 43, 96
21, 650946, Note_on_c, 7, 49, 0
21, 650955, Note_on_c, 7, 43, 0
21, 651373, Note_on_c, 7, 48, 99
21, 651384, Note_on_c, 7, 58, 91
21, 651433, Note_on_c, 7, 48, 0
21, 651444, Note_on_c, 7, 58, 0
21, 651483, Note_on_c, 7, 52, 106
21, 651503, Note_on_c, 7, 46, 104
21, 651543, Note_on_c, 7, 52, 0
21, 651563, Note_on_c, 7, 46, 0
21, 651603, Note_on_c, 7, 55, 108
21, 651621, Note_on_c, 7, 45, 94
21, 651663, Note_on_c, 7, 55, 0
21, 651681, Note_on_c, 7, 45, 0
21, 651848, Note_on_c, 7, 43, 99
21, 651858, Note_on_c, 7, 49, 103
21, 651908, Note_on_c, 7, 43, 0
21, 651918, Note_on_c, 7, 49, 0
21, 652080, Note_on_c, 7, 48, 106
21, 652098, Note_on_c, 7, 58, 93
21, 652140, Note_on_c, 7, 48, 0
21, 652158, Note_on_c, 7, 58, 0
21, 652216, Note_on_c, 7, 52, 99
21, 652228, Note_on_c, 7, 46, 108
21, 652276, Note_on_c, 7, 52, 0
21, 652288, Note_on_c, 7, 46, 0
21, 652333, Note_on_c, 7, 55, 102
21, 652338, Note_on_c, 7, 45, 107
21, 652393, Note_on_c, 7, 55, 0
21, 652398, Note_on_c, 7, 45, 0
21, 652562, Note_on_c, 7, 43, 105
21, 652573, Note_on_c, 7, 49, 103
21, 652622, Note_on_c, 7, 43, 0
21, 652633, Note_on_c, 7, 49, 0
21, 653041, Note_on_c, 7, 58, 106
21, 653060, Note_on_c, 7, 48, 109
21, 653101, Note_on_c, 7, 58, 0
21, 653120, Note_on_c, 7, 48, 0
21, 653184, Note_on_c, 7, 46, 94
21, 653188, Note_on_c, 7, 52, 94
21, 653244, Note_on_c, 7, 46, 0
21, 653248, Note_on_c, 7, 52, 0
21, 653285, Note_on_c, 7, 45, 100
21, 653305, Note_on_c, 7, 55, 95
21, 653345, Note_on_c, 7, 45, 0
21, 653365, Note_on_c, 7, 55, 0
21, 653523, Note_on_c, 7, 49, 96
21, 653533, Note_on_c, 7, 43, 102
21, 653583, Note_on_c, 7, 49, 0
21, 653593, Note_on_c, 7, 43, 0
21, 653761, Note_on_c, 7, 58, 107
21, 653783, Note_on_c, 7, 48, 91
21, 653821, Note_on_c, 7, 58, 0
21, 653843, Note_on_c, 7, 48, 0
21, 653882, Note_on_c, 7, 46, 93
21, 653892, Note_on_c, 7, 52, 95
21, 653942, Note_on_c, 7, 46, 0
21, 653952, Note_on_c, 7, 52, 0
21, 654003, Note_on_c, 7, 45, 100
21, 654029, Note_on_c, 7, 55, 93
21, 654063, Note_on_c, 7, 45, 0
21, 654089, Note_on_c, 7, 55, 0
21, 654248, Note_on_c, 7, 43, 99
21, 654260, Note_on_c, 7, 49, 106
21, 654308, Note_on_c, 7, 43, 0
21, 654320, Note_on_c, 7, 49, 0
21, 654742, Note_on_c, 7, 58, 101
21, 654748, Note_on_c, 7, 48, 93
21, 654802, Note_on_c, 7, 58, 0
21, 654808, Note_on_c, 7, 48, 0
21, 654846, Note_on_c, 7, 52, 96
21, 654847, Note_on_c, 7, 46, 101
21, 654906, Note_on_c, 7, 52, 0
21, 654907, Note_on_c, 7, 46, 0
21, 654962, Note_on_c, 7, 55, 99
21, 654980, Note_on_c, 7, 45, 95
21, 655022, Note_on_c, 7, 55, 0
21, 655040, Note_on_c, 7, 45, 0
21, 655087, Note_on_c, 7, 49, 100
21, 655094, Note_on_c, 7, 43, 91
21, 655147, Note_on_c, 7, 49, 0
21, 655154, Note_on_c, 7, 43, 0
21, 658086, Note_on_c, 7, 45, 123
21, 658089, Note_on_c, 7, 38, 117
21, 658139, Note_on_c, 7, 45, 0
21, 658142, Note_on_c, 7, 38, 0
21, 658142, End_track
22, 0, Start_track
22, 0, Title_t, "Timpani"
22, 0, MIDI_port, 0
22, 0, Program_c, 8, 47
22, 0, Control_c, 8, 7, 127
22, 0, Control_c, 8, 10, 64
22, 0, Control_c, 8, 91, 64
22, 10560, Note_on_c, 8, 50, 48
22, 10560, Note_on_c, 8, 45, 46
22, 10560, Note_on_c, 8, 50, 47
22, 10591, Note_on_c, 8, 50, 0
22, 10591, Note_on_c, 8, 45, 0
22, 10598, Note_on_c, 8, 45, 57
22, 10598, Note_on_c, 8, 50, 51
22, 10622, Note_on_c, 8, 50, 0
22, 10629, Note_on_c, 8, 45, 0
22, 10637, Note_on_c, 8, 45, 53
22, 10637, Note_on_c, 8, 50, 46
22, 10676, Note_on_c, 8, 50, 0
22, 10676, Note_on_c, 8, 45, 0
22, 10676, Note_on_c, 8, 45, 39
22, 10676, Note_on_c, 8, 50, 41
22, 10715, Note_on_c, 8, 50, 0
22, 10715, Note_on_c, 8, 45, 0
22, 10715, Note_on_c, 8, 45, 54
22, 10715, Note_on_c, 8, 50, 57
22, 10754, Note_on_c, 8, 50, 0
22, 10754, Note_on_c, 8, 45, 0
22, 10754, Note_on_c, 8, 45, 39
22, 10754, Note_on_c, 8, 50, 46
22, 10792, Note_on_c, 8, 50, 0
22, 10792, Note_on_c, 8, 45, 0
22, 10793, Note_on_c, 8, 45, 52
22, 10793, Note_on_c, 8, 50, 53
22, 10831, Note_on_c, 8, 50, 0
22, 10832, Note_on_c, 8, 45, 0
22, 10832, Note_on_c, 8, 45, 42
22, 10832, Note_on_c, 8, 50, 56
22, 10871, Note_on_c, 8, 50, 0
22, 10871, Note_on_c, 8, 45, 0
22, 10871, Note_on_c, 8, 45, 39
22, 10871, Note_on_c, 8, 50, 44
22, 10910, Note_on_c, 8, 50, 0
22, 10910, Note_on_c, 8, 45, 0
22, 10910, Note_on_c, 8, 45, 41
22, 10910, Note_on_c, 8, 50, 48
22, 10949, Note_on_c, 8, 50, 0
22, 10949, Note_on_c, 8, 45, 0
22, 10949, Note_on_c, 8, 45, 45
22, 10949, Note_on_c, 8, 50, 52
22, 10987, Note_on_c, 8, 50, 0
22, 10987, Note_on_c, 8, 45, 0
22, 10987, Note_on_c, 8, 45, 51
22, 10987, Note_on_c, 8, 50, 48
22, 11026, Note_on_c, 8, 50, 0
22, 11026, Note_on_c, 8, 45, 0
22, 11026, Note_on_c, 8, 45, 49
22, 11026, Note_on_c, 8, 50, 57
22, 11065, Note_on_c, 8, 50, 0
22, 11065, Note_on_c, 8, 45, 0
22, 11065, Note_on_c, 8, 45, 42
22, 11065, Note_on_c, 8, 50, 45
22, 11104, Note_on_c, 8, 50, 0
22, 11104, Note_on_c, 8, 45, 0
22, 11104, Note_on_c, 8, 45, 45
22, 11104, Note_on_c, 8, 50, 45
22, 11143, Note_on_c, 8, 50, 0
22, 11143, Note_on_c, 8, 45, 0
22, 11143, Note_on_c, 8, 45, 50
22, 11143, Note_on_c, 8, 50, 50
22, 11182, Note_on_c, 8, 50, 0
22, 11182, Note_on_c, 8, 45, 0
22, 11182, Note_on_c, 8, 45, 55
22, 11182, Note_on_c, 8, 50, 52
22, 11220, Note_on_c, 8, 50, 0
22, 11220, Note_on_c, 8, 45, 0
22, 11221, Note_on_c, 8, 45, 54
22, 11221, Note_on_c, 8, 50, 47
22, 11259, Note_on_c, 8, 50, 0
22, 11260, Note_on_c, 8, 45, 0
22, 11260, Note_on_c, 8, 45, 39
22, 11260, Note_on_c, 8, 50, 55
22, 11299, Note_on_c, 8, 50, 0
22, 11299, Note_on_c, 8, 45, 0
22, 11299, Note_on_c, 8, 45, 39
22, 11299, Note_on_c, 8, 50, 42
22, 11338, Note_on_c, 8, 50, 0
22, 11338, Note_on_c, 8, 45, 0
22, 11338, Note_on_c, 8, 45, 45
22, 11338, Note_on_c, 8, 50, 48
22, 11377, Note_on_c, 8, 50, 0
22, 11377, Note_on_c, 8, 45, 0
22, 11377, Note_on_c, 8, 45, 40
22, 11377, Note_on_c, 8, 50, 47
22, 11415, Note_on_c, 8, 50, 0
22, 11415, Note_on_c, 8, 45, 0
22, 11415, Note_on_c, 8, 45, 47
22, 11415, Note_on_c, 8, 50, 52
22, 11454, Note_on_c, 8, 50, 0
22, 11454, Note_on_c, 8, 45, 0
22, 11454, Note_on_c, 8, 45, 51
22, 11454, Note_on_c, 8, 50, 41
22, 11493, Note_on_c, 8, 50, 0
22, 11493, Note_on_c, 8, 45, 0
22, 11493, Note_on_c, 8, 45, 41
22, 11493, Note_on_c, 8, 50, 47
22, 11532, Note_on_c, 8, 50, 0
22, 11532, Note_on_c, 8, 45, 0
22, 11532, Note_on_c, 8, 45, 51
22, 11532, Note_on_c, 8, 50, 49
22, 11571, Note_on_c, 8, 50, 0
22, 11571, Note_on_c, 8, 45, 0
22, 11571, Note_on_c, 8, 45, 40
22, 11571, Note_on_c, 8, 50, 41
22, 11609, Note_on_c, 8, 50, 0
22, 11609, Note_on_c, 8, 45, 0
22, 11610, Note_on_c, 8, 45, 42
22, 11610, Note_on_c, 8, 50, 55
22, 11648, Note_on_c, 8, 50, 0
22, 11649, Note_on_c, 8, 45, 0
22, 11649, Note_on_c, 8, 45, 39
22, 11649, Note_on_c, 8, 50, 59
22, 11688, Note_on_c, 8, 50, 0
22, 11688, Note_on_c, 8, 45, 0
22, 11688, Note_on_c, 8, 45, 59
22, 11688, Note_on_c, 8, 50, 42
22, 11727, Note_on_c, 8, 50, 0
22, 11727, Note_on_c, 8, 45, 0
22, 11727, Note_on_c, 8, 45, 40
22, 11727, Note_on_c, 8, 50, 48
22, 11766, Note_on_c, 8, 50, 0
22, 11766, Note_on_c, 8, 45, 0
22, 11766, Note_on_c, 8, 45, 48
22, 11766, Note_on_c, 8, 50, 40
22, 11805, Note_on_c, 8, 50, 0
22, 11805, Note_on_c, 8, 45, 0
22, 11805, Note_on_c, 8, 45, 53
22, 11805, Note_on_c, 8, 50, 55
22, 11843, Note_on_c, 8, 50, 0
22, 11843, Note_on_c, 8, 45, 0
22, 11843, Note_on_c, 8, 45, 49
22, 11843, Note_on_c, 8, 50, 44
22, 11882, Note_on_c, 8, 50, 0
22, 11882, Note_on_c, 8, 45, 0
22, 11882, Note_on_c, 8, 45, 45
22, 11882, Note_on_c, 8, 50, 49
22, 11921, Note_on_c, 8, 50, 0
22, 11921, Note_on_c, 8, 45, 0
22, 11921, Note_on_c, 8, 45, 53
22, 11921, Note_on_c, 8, 50, 44
22, 11960, Note_on_c, 8, 50, 0
22, 11960, Note_on_c, 8, 45, 0
22, 11960, Note_on_c, 8, 45, 43
22, 11960, Note_on_c, 8, 50, 50
22, 11996, Note_on_c, 8, 45, 0
22, 11999, Note_on_c, 8, 50, 0
22, 11999, Note_on_c, 8, 50, 0
22, 12000, Note_on_c, 8, 50, 56
22, 12000, Note_on_c, 8, 45, 48
22, 12000, Note_on_c, 8, 50, 52
22, 12038, Note_on_c, 8, 50, 0
22, 12038, Note_on_c, 8, 45, 0
22, 12038, Note_on_c, 8, 45, 57
22, 12038, Note_on_c, 8, 50, 46
22, 12077, Note_on_c, 8, 50, 0
22, 12077, Note_on_c, 8, 45, 0
22, 12077, Note_on_c, 8, 45, 46
22, 12077, Note_on_c, 8, 50, 42
22, 12116, Note_on_c, 8, 50, 0
22, 12116, Note_on_c, 8, 45, 0
22, 12116, Note_on_c, 8, 45, 36
22, 12116, Note_on_c, 8, 50, 51
22, 12155, Note_on_c, 8, 50, 0
22, 12155, Note_on_c, 8, 45, 0
22, 12155, Note_on_c, 8, 45, 45
22, 12155, Note_on_c, 8, 50, 39
22, 12194, Note_on_c, 8, 50, 0
22, 12194, Note_on_c, 8, 45, 0
22, 12194, Note_on_c, 8, 45, 52
22, 12194, Note_on_c, 8, 50, 51
22, 12232, Note_on_c, 8, 50, 0
22, 12232, Note_on_c, 8, 45, 0
22, 12233, Note_on_c, 8, 45, 48
22, 12233, Note_on_c, 8, 50, 39
22, 12271, Note_on_c, 8, 50, 0
22, 12272, Note_on_c, 8, 45, 0
22, 12272, Note_on_c, 8, 45, 45
22, 12272, Note_on_c, 8, 50, 34
22, 12311, Note_on_c, 8, 50, 0
22, 12311, Note_on_c, 8, 45, 0
22, 12311, Note_on_c, 8, 45, 49
22, 12311, Note_on_c, 8, 50, 35
22, 12350, Note_on_c, 8, 50, 0
22, 12350, Note_on_c, 8, 45, 0
22, 12350, Note_on_c, 8, 45, 35
22, 12350, Note_on_c, 8, 50, 50
22, 12389, Note_on_c, 8, 50, 0
22, 12389, Note_on_c, 8, 45, 0
22, 12389, Note_on_c, 8, 45, 47
22, 12389, Note_on_c, 8, 50, 41
22, 12427, Note_on_c, 8, 50, 0
22, 12427, Note_on_c, 8, 45, 0
22, 12427, Note_on_c, 8, 45, 38
22, 12427, Note_on_c, 8, 50, 45
22, 12466, Note_on_c, 8, 50, 0
22, 12466, Note_on_c, 8, 45, 0
22, 12466, Note_on_c, 8, 45, 35
22, 12466, Note_on_c, 8, 50, 44
22, 12505, Note_on_c, 8, 50, 0
22, 12505, Note_on_c, 8, 45, 0
22, 12505, Note_on_c, 8, 45, 45
22, 12505, Note_on_c, 8, 50, 31
22, 12544, Note_on_c, 8, 50, 0
22, 12544, Note_on_c, 8, 45, 0
22, 12544, Note_on_c, 8, 45, 41
22, 12544, Note_on_c, 8, 50, 33
22, 12583, Note_on_c, 8, 50, 0
22, 12583, Note_on_c, 8, 45, 0
22, 12583, Note_on_c, 8, 45, 41
22, 12583, Note_on_c, 8, 50, 37
22, 12622, Note_on_c, 8, 50, 0
22, 12622, Note_on_c, 8, 45, 0
22, 12622, Note_on_c, 8, 45, 42
22, 12622, Note_on_c, 8, 50, 36
22, 12660, Note_on_c, 8, 50, 0
22, 12660, Note_on_c, 8, 45, 0
22, 12661, Note_on_c, 8, 45, 43
22, 12661, Note_on_c, 8, 50, 40
22, 12699, Note_on_c, 8, 50, 0
22, 12700, Note_on_c, 8, 45, 0
22, 12700, Note_on_c, 8, 45, 36
22, 12700, Note_on_c, 8, 50, 42
22, 12739, Note_on_c, 8, 50, 0
22, 12739, Note_on_c, 8, 45, 0
22, 12739, Note_on_c, 8, 45, 31
22, 12739, Note_on_c, 8, 50, 26
22, 12778, Note_on_c, 8, 50, 0
22, 12778, Note_on_c, 8, 45, 0
22, 12778, Note_on_c, 8, 45, 23
22, 12778, Note_on_c, 8, 50, 33
22, 12817, Note_on_c, 8, 50, 0
22, 12817, Note_on_c, 8, 45, 0
22, 12817, Note_on_c, 8, 45, 23
22, 12817, Note_on_c, 8, 50, 41
22, 12855, Note_on_c, 8, 50, 0
22, 12855, Note_on_c, 8, 45, 0
22, 12855, Note_on_c, 8, 45, 33
22, 12855, Note_on_c, 8, 50, 26
22, 12894, Note_on_c, 8, 50, 0
22, 12894, Note_on_c, 8, 45, 0
22, 12894, Note_on_c, 8, 45, 30
22, 12894, Note_on_c, 8, 50, 29
22, 12933, Note_on_c, 8, 50, 0
22, 12933, Note_on_c, 8, 45, 0
22, 12933, Note_on_c, 8, 45, 38
22, 12933, Note_on_c, 8, 50, 23
22, 12972, Note_on_c, 8, 50, 0
22, 12972, Note_on_c, 8, 45, 0
22, 12972, Note_on_c, 8, 45, 32
22, 12972, Note_on_c, 8, 50, 29
22, 13011, Note_on_c, 8, 50, 0
22, 13011, Note_on_c, 8, 45, 0
22, 13011, Note_on_c, 8, 45, 22
22, 13011, Note_on_c, 8, 50, 31
22, 13049, Note_on_c, 8, 50, 0
22, 13049, Note_on_c, 8, 45, 0
22, 13050, Note_on_c, 8, 45, 30
22, 13050, Note_on_c, 8, 50, 19
22, 13088, Note_on_c, 8, 50, 0
22, 13089, Note_on_c, 8, 45, 0
22, 13089, Note_on_c, 8, 45, 33
22, 13089, Note_on_c, 8, 50, 22
22, 13128, Note_on_c, 8, 50, 0
22, 13128, Note_on_c, 8, 45, 0
22, 13128, Note_on_c, 8, 45, 16
22, 13128, Note_on_c, 8, 50, 15
22, 13167, Note_on_c, 8, 50, 0
22, 13167, Note_on_c, 8, 45, 0
22, 13167, Note_on_c, 8, 45, 26
22, 13167, Note_on_c, 8, 50, 28
22, 13206, Note_on_c, 8, 50, 0
22, 13206, Note_on_c, 8, 45, 0
22, 13206, Note_on_c, 8, 45, 23
22, 13206, Note_on_c, 8, 50, 24
22, 13245, Note_on_c, 8, 50, 0
22, 13245, Note_on_c, 8, 45, 0
22, 13245, Note_on_c, 8, 45, 28
22, 13245, Note_on_c, 8, 50, 31
22, 13283, Note_on_c, 8, 50, 0
22, 13283, Note_on_c, 8, 45, 0
22, 13283, Note_on_c, 8, 45, 10
22, 13283, Note_on_c, 8, 50, 23
22, 13322, Note_on_c, 8, 50, 0
22, 13322, Note_on_c, 8, 45, 0
22, 13322, Note_on_c, 8, 45, 26
22, 13322, Note_on_c, 8, 50, 11
22, 13361, Note_on_c, 8, 50, 0
22, 13361, Note_on_c, 8, 45, 0
22, 13361, Note_on_c, 8, 45, 28
22, 13361, Note_on_c, 8, 50, 28
22, 13400, Note_on_c, 8, 50, 0
22, 13400, Note_on_c, 8, 45, 0
22, 13400, Note_on_c, 8, 45, 23
22, 13400, Note_on_c, 8, 50, 9
22, 13436, Note_on_c, 8, 45, 0
22, 13439, Note_on_c, 8, 50, 0
22, 13439, Note_on_c, 8, 50, 0
22, 15360, Note_on_c, 8, 50, 57
22, 15360, Note_on_c, 8, 45, 59
22, 15360, Note_on_c, 8, 50, 39
22, 15398, Note_on_c, 8, 50, 0
22, 15398, Note_on_c, 8, 45, 0
22, 15398, Note_on_c, 8, 45, 45
22, 15398, Note_on_c, 8, 50, 43
22, 15437, Note_on_c, 8, 50, 0
22, 15437, Note_on_c, 8, 45, 0
22, 15437, Note_on_c, 8, 45, 54
22, 15437, Note_on_c, 8, 50, 46
22, 15476, Note_on_c, 8, 50, 0
22, 15476, Note_on_c, 8, 45, 0
22, 15476, Note_on_c, 8, 45, 45
22, 15476, Note_on_c, 8, 50, 44
22, 15515, Note_on_c, 8, 50, 0
22, 15515, Note_on_c, 8, 45, 0
22, 15515, Note_on_c, 8, 45, 41
22, 15515, Note_on_c, 8, 50, 39
22, 15554, Note_on_c, 8, 50, 0
22, 15554, Note_on_c, 8, 45, 0
22, 15554, Note_on_c, 8, 45, 42
22, 15554, Note_on_c, 8, 50, 38
22, 15592, Note_on_c, 8, 50, 0
22, 15592, Note_on_c, 8, 45, 0
22, 15593, Note_on_c, 8, 45, 48
22, 15593, Note_on_c, 8, 50, 41
22, 15631, Note_on_c, 8, 50, 0
22, 15632, Note_on_c, 8, 45, 0
22, 15632, Note_on_c, 8, 45, 37
22, 15632, Note_on_c, 8, 50, 38
22, 15671, Note_on_c, 8, 50, 0
22, 15671, Note_on_c, 8, 45, 0
22, 15671, Note_on_c, 8, 45, 52
22, 15671, Note_on_c, 8, 50, 51
22, 15710, Note_on_c, 8, 50, 0
22, 15710, Note_on_c, 8, 45, 0
22, 15710, Note_on_c, 8, 45, 41
22, 15710, Note_on_c, 8, 50, 46
22, 15749, Note_on_c, 8, 50, 0
22, 15749, Note_on_c, 8, 45, 0
22, 15749, Note_on_c, 8, 45, 33
22, 15749, Note_on_c, 8, 50, 30
22, 15787, Note_on_c, 8, 50, 0
22, 15787, Note_on_c, 8, 45, 0
22, 15787, Note_on_c, 8, 45, 34
22, 15787, Note_on_c, 8, 50, 36
22, 15826, Note_on_c, 8, 50, 0
22, 15826, Note_on_c, 8, 45, 0
22, 15826, Note_on_c, 8, 45, 33
22, 15826, Note_on_c, 8, 50, 44
22, 15865, Note_on_c, 8, 50, 0
22, 15865, Note_on_c, 8, 45, 0
22, 15865, Note_on_c, 8, 45, 30
22, 15865, Note_on_c, 8, 50, 37
22, 15904, Note_on_c, 8, 50, 0
22, 15904, Note_on_c, 8, 45, 0
22, 15904, Note_on_c, 8, 45, 42
22, 15904, Note_on_c, 8, 50, 34
22, 15943, Note_on_c, 8, 50, 0
22, 15943, Note_on_c, 8, 45, 0
22, 15943, Note_on_c, 8, 45, 28
22, 15943, Note_on_c, 8, 50, 29
22, 15982, Note_on_c, 8, 50, 0
22, 15982, Note_on_c, 8, 45, 0
22, 15982, Note_on_c, 8, 45, 27
22, 15982, Note_on_c, 8, 50, 42
22, 16020, Note_on_c, 8, 50, 0
22, 16020, Note_on_c, 8, 45, 0
22, 16021, Note_on_c, 8, 45, 25
22, 16021, Note_on_c, 8, 50, 31
22, 16059, Note_on_c, 8, 50, 0
22, 16060, Note_on_c, 8, 45, 0
22, 16060, Note_on_c, 8, 45, 32
22, 16060, Note_on_c, 8, 50, 39
22, 16099, Note_on_c, 8, 50, 0
22, 16099, Note_on_c, 8, 45, 0
22, 16099, Note_on_c, 8, 45, 33
22, 16099, Note_on_c, 8, 50, 36
22, 16138, Note_on_c, 8, 50, 0
22, 16138, Note_on_c, 8, 45, 0
22, 16138, Note_on_c, 8, 45, 31
22, 16138, Note_on_c, 8, 50, 40
22, 16177, Note_on_c, 8, 50, 0
22, 16177, Note_on_c, 8, 45, 0
22, 16177, Note_on_c, 8, 45, 25
22, 16177, Note_on_c, 8, 50, 34
22, 16215, Note_on_c, 8, 50, 0
22, 16215, Note_on_c, 8, 45, 0
22, 16215, Note_on_c, 8, 45, 38
22, 16215, Note_on_c, 8, 50, 37
22, 16254, Note_on_c, 8, 50, 0
22, 16254, Note_on_c, 8, 45, 0
22, 16254, Note_on_c, 8, 45, 23
22, 16254, Note_on_c, 8, 50, 27
22, 16293, Note_on_c, 8, 50, 0
22, 16293, Note_on_c, 8, 45, 0
22, 16293, Note_on_c, 8, 45, 24
22, 16293, Note_on_c, 8, 50, 33
22, 16332, Note_on_c, 8, 50, 0
22, 16332, Note_on_c, 8, 45, 0
22, 16332, Note_on_c, 8, 45, 37
22, 16332, Note_on_c, 8, 50, 33
22, 16371, Note_on_c, 8, 50, 0
22, 16371, Note_on_c, 8, 45, 0
22, 16371, Note_on_c, 8, 45, 20
22, 16371, Note_on_c, 8, 50, 25
22, 16409, Note_on_c, 8, 50, 0
22, 16409, Note_on_c, 8, 45, 0
22, 16410, Note_on_c, 8, 45, 21
22, 16410, Note_on_c, 8, 50, 18
22, 16448, Note_on_c, 8, 50, 0
22, 16449, Note_on_c, 8, 45, 0
22, 16449, Note_on_c, 8, 45, 24
22, 16449, Note_on_c, 8, 50, 24
22, 16488, Note_on_c, 8, 50, 0
22, 16488, Note_on_c, 8, 45, 0
22, 16488, Note_on_c, 8, 45, 29
22, 16488, Note_on_c, 8, 50, 22
22, 16527, Note_on_c, 8, 50, 0
22, 16527, Note_on_c, 8, 45, 0
22, 16527, Note_on_c, 8, 45, 19
22, 16527, Note_on_c, 8, 50, 29
22, 16566, Note_on_c, 8, 50, 0
22, 16566, Note_on_c, 8, 45, 0
22, 16566, Note_on_c, 8, 45, 17
22, 16566, Note_on_c, 8, 50, 31
22, 16605, Note_on_c, 8, 50, 0
22, 16605, Note_on_c, 8, 45, 0
22, 16605, Note_on_c, 8, 45, 14
22, 16605, Note_on_c, 8, 50, 12
22, 16643, Note_on_c, 8, 50, 0
22, 16643, Note_on_c, 8, 45, 0
22, 16643, Note_on_c, 8, 45, 25
22, 16643, Note_on_c, 8, 50, 30
22, 16682, Note_on_c, 8, 50, 0
22, 16682, Note_on_c, 8, 45, 0
22, 16682, Note_on_c, 8, 45, 13
22, 16682, Note_on_c, 8, 50, 29
22, 16721, Note_on_c, 8, 50, 0
22, 16721, Note_on_c, 8, 45, 0
22, 16721, Note_on_c, 8, 45, 19
22, 16721, Note_on_c, 8, 50, 9
22, 16760, Note_on_c, 8, 50, 0
22, 16760, Note_on_c, 8, 45, 0
22, 16760, Note_on_c, 8, 45, 21
22, 16760, Note_on_c, 8, 50, 20
22, 16796, Note_on_c, 8, 45, 0
22, 16799, Note_on_c, 8, 50, 0
22, 16799, Note_on_c, 8, 50, 0
22, 19680, Note_on_c, 8, 50, 43
22, 19680, Note_on_c, 8, 45, 48
22, 19680, Note_on_c, 8, 50, 58
22, 19714, Note_on_c, 8, 45, 0
22, 19718, Note_on_c, 8, 50, 0
22, 19718, Note_on_c, 8, 45, 49
22, 19718, Note_on_c, 8, 50, 52
22, 19753, Note_on_c, 8, 45, 0
22, 19757, Note_on_c, 8, 50, 0
22, 19757, Note_on_c, 8, 45, 47
22, 19757, Note_on_c, 8, 50, 40
22, 19792, Note_on_c, 8, 45, 0
22, 19796, Note_on_c, 8, 50, 0
22, 19796, Note_on_c, 8, 45, 56
22, 19796, Note_on_c, 8, 50, 38
22, 19835, Note_on_c, 8, 50, 0
22, 19835, Note_on_c, 8, 45, 0
22, 19835, Note_on_c, 8, 45, 44
22, 19835, Note_on_c, 8, 50, 42
22, 19874, Note_on_c, 8, 50, 0
22, 19874, Note_on_c, 8, 45, 0
22, 19874, Note_on_c, 8, 45, 46
22, 19874, Note_on_c, 8, 50, 53
22, 19912, Note_on_c, 8, 50, 0
22, 19912, Note_on_c, 8, 45, 0
22, 19913, Note_on_c, 8, 45, 36
22, 19913, Note_on_c, 8, 50, 34
22, 19951, Note_on_c, 8, 50, 0
22, 19952, Note_on_c, 8, 45, 0
22, 19952, Note_on_c, 8, 45, 37
22, 19952, Note_on_c, 8, 50, 48
22, 19991, Note_on_c, 8, 50, 0
22, 19991, Note_on_c, 8, 45, 0
22, 19991, Note_on_c, 8, 45, 43
22, 19991, Note_on_c, 8, 50, 35
22, 20030, Note_on_c, 8, 50, 0
22, 20030, Note_on_c, 8, 45, 0
22, 20030, Note_on_c, 8, 45, 40
22, 20030, Note_on_c, 8, 50, 33
22, 20069, Note_on_c, 8, 50, 0
22, 20069, Note_on_c, 8, 45, 0
22, 20069, Note_on_c, 8, 45, 36
22, 20069, Note_on_c, 8, 50, 39
22, 20107, Note_on_c, 8, 50, 0
22, 20107, Note_on_c, 8, 45, 0
22, 20107, Note_on_c, 8, 45, 34
22, 20107, Note_on_c, 8, 50, 44
22, 20146, Note_on_c, 8, 50, 0
22, 20146, Note_on_c, 8, 45, 0
22, 20146, Note_on_c, 8, 45, 48
22, 20146, Note_on_c, 8, 50, 46
22, 20185, Note_on_c, 8, 50, 0
22, 20185, Note_on_c, 8, 45, 0
22, 20185, Note_on_c, 8, 45, 37
22, 20185, Note_on_c, 8, 50, 45
22, 20224, Note_on_c, 8, 50, 0
22, 20224, Note_on_c, 8, 45, 0
22, 20224, Note_on_c, 8, 45, 38
22, 20224, Note_on_c, 8, 50, 33
22, 20263, Note_on_c, 8, 50, 0
22, 20263, Note_on_c, 8, 45, 0
22, 20263, Note_on_c, 8, 45, 26
22, 20263, Note_on_c, 8, 50, 26
22, 20302, Note_on_c, 8, 50, 0
22, 20302, Note_on_c, 8, 45, 0
22, 20302, Note_on_c, 8, 45, 43
22, 20302, Note_on_c, 8, 50, 30
22, 20340, Note_on_c, 8, 50, 0
22, 20340, Note_on_c, 8, 45, 0
22, 20341, Note_on_c, 8, 45, 39
22, 20341, Note_on_c, 8, 50, 29
22, 20379, Note_on_c, 8, 50, 0
22, 20380, Note_on_c, 8, 45, 0
22, 20380, Note_on_c, 8, 45, 38
22, 20380, Note_on_c, 8, 50, 28
22, 20419, Note_on_c, 8, 50, 0
22, 20419, Note_on_c, 8, 45, 0
22, 20419, Note_on_c, 8, 45, 29
22, 20419, Note_on_c, 8, 50, 33
22, 20458, Note_on_c, 8, 50, 0
22, 20458, Note_on_c, 8, 45, 0
22, 20458, Note_on_c, 8, 45, 35
22, 20458, Note_on_c, 8, 50, 22
22, 20497, Note_on_c, 8, 50, 0
22, 20497, Note_on_c, 8, 45, 0
22, 20497, Note_on_c, 8, 45, 28
22, 20497, Note_on_c, 8, 50, 30
22, 20535, Note_on_c, 8, 50, 0
22, 20535, Note_on_c, 8, 45, 0
22, 20535, Note_on_c, 8, 45, 37
22, 20535, Note_on_c, 8, 50, 27
22, 20574, Note_on_c, 8, 50, 0
22, 20574, Note_on_c, 8, 45, 0
22, 20574, Note_on_c, 8, 45, 28
22, 20574, Note_on_c, 8, 50, 27
22, 20613, Note_on_c, 8, 50, 0
22, 20613, Note_on_c, 8, 45, 0
22, 20613, Note_on_c, 8, 45, 23
22, 20613, Note_on_c, 8, 50, 32
22, 20652, Note_on_c, 8, 50, 0
22, 20652, Note_on_c, 8, 45, 0
22, 20652, Note_on_c, 8, 45, 26
22, 20652, Note_on_c, 8, 50, 25
22, 20691, Note_on_c, 8, 50, 0
22, 20691, Note_on_c, 8, 45, 0
22, 20691, Note_on_c, 8, 45, 20
22, 20691, Note_on_c, 8, 50, 27
22, 20729, Note_on_c, 8, 50, 0
22, 20729, Note_on_c, 8, 45, 0
22, 20730, Note_on_c, 8, 45, 35
22, 20730, Note_on_c, 8, 50, 28
22, 20768, Note_on_c, 8, 50, 0
22, 20769, Note_on_c, 8, 45, 0
22, 20769, Note_on_c, 8, 45, 22
22, 20769, Note_on_c, 8, 50, 20
22, 20808, Note_on_c, 8, 50, 0
22, 20808, Note_on_c, 8, 45, 0
22, 20808, Note_on_c, 8, 45, 29
22, 20808, Note_on_c, 8, 50, 20
22, 20847, Note_on_c, 8, 50, 0
22, 20847, Note_on_c, 8, 45, 0
22, 20847, Note_on_c, 8, 45, 15
22, 20847, Note_on_c, 8, 50, 30
22, 20886, Note_on_c, 8, 50, 0
22, 20886, Note_on_c, 8, 45, 0
22, 20886, Note_on_c, 8, 45, 30
22, 20886, Note_on_c, 8, 50, 23
22, 20925, Note_on_c, 8, 50, 0
22, 20925, Note_on_c, 8, 45, 0
22, 20925, Note_on_c, 8, 45, 23
22, 20925, Note_on_c, 8, 50, 15
22, 20963, Note_on_c, 8, 50, 0
22, 20963, Note_on_c, 8, 45, 0
22, 20963, Note_on_c, 8, 45, 15
22, 20963, Note_on_c, 8, 50, 15
22, 21002, Note_on_c, 8, 50, 0
22, 21002, Note_on_c, 8, 45, 0
22, 21002, Note_on_c, 8, 45, 12
22, 21002, Note_on_c, 8, 50, 27
22, 21041, Note_on_c, 8, 50, 0
22, 21041, Note_on_c, 8, 45, 0
22, 21041, Note_on_c, 8, 45, 26
22, 21041, Note_on_c, 8, 50, 25
22, 21080, Note_on_c, 8, 50, 0
22, 21080, Note_on_c, 8, 45, 0
22, 21080, Note_on_c, 8, 45, 19
22, 21080, Note_on_c, 8, 50, 11
22, 21116, Note_on_c, 8, 45, 0
22, 21119, Note_on_c, 8, 50, 0
22, 21119, Note_on_c, 8, 50, 0
22, 210720, Note_on_c, 8, 42, 97
22, 210720, Note_on_c, 8, 45, 87
22, 210720, Note_on_c, 8, 51, 91
22, 210720, Note_on_c, 8, 53, 88
22, 211200, Note_on_c, 8, 42, 0
22, 211200, Note_on_c, 8, 45, 0
22, 211200, Note_on_c, 8, 51, 0
22, 211200, Note_on_c, 8, 53, 0
22, 211200, Note_on_c, 8, 42, 96
22, 211200, Note_on_c, 8, 45, 83
22, 211200, Note_on_c, 8, 51, 81
22, 211200, Note_on_c, 8, 53, 89
22, 211680, Note_on_c, 8, 42, 0
22, 211680, Note_on_c, 8, 45, 0
22, 211680, Note_on_c, 8, 51, 0
22, 211680, Note_on_c, 8, 53, 0
22, 211680, Note_on_c, 8, 42, 93
22, 211680, Note_on_c, 8, 45, 92
22, 211680, Note_on_c, 8, 51, 90
22, 211680, Note_on_c, 8, 53, 79
22, 212160, Note_on_c, 8, 42, 0
22, 212160, Note_on_c, 8, 45, 0
22, 212160, Note_on_c, 8, 51, 0
22, 212160, Note_on_c, 8, 53, 0
22, 212160, Note_on_c, 8, 42, 89
22, 212160, Note_on_c, 8, 45, 87
22, 212160, Note_on_c, 8, 51, 91
22, 212160, Note_on_c, 8, 53, 95
22, 212640, Note_on_c, 8, 42, 0
22, 212640, Note_on_c, 8, 45, 0
22, 212640, Note_on_c, 8, 51, 0
22, 212640, Note_on_c, 8, 53, 0
22, 212640, Note_on_c, 8, 42, 88
22, 212640, Note_on_c, 8, 45, 91
22, 212640, Note_on_c, 8, 51, 79
22, 212640, Note_on_c, 8, 53, 95
22, 213120, Note_on_c, 8, 42, 0
22, 213120, Note_on_c, 8, 45, 0
22, 213120, Note_on_c, 8, 51, 0
22, 213120, Note_on_c, 8, 53, 0
22, 213120, Note_on_c, 8, 42, 91
22, 213120, Note_on_c, 8, 45, 97
22, 213120, Note_on_c, 8, 51, 92
22, 213120, Note_on_c, 8, 53, 86
22, 213600, Note_on_c, 8, 42, 0
22, 213600, Note_on_c, 8, 45, 0
22, 213600, Note_on_c, 8, 51, 0
22, 213600, Note_on_c, 8, 53, 0
22, 213600, Note_on_c, 8, 42, 96
22, 213600, Note_on_c, 8, 45, 93
22, 213600, Note_on_c, 8, 51, 89
22, 213600, Note_on_c, 8, 53, 93
22, 214080, Note_on_c, 8, 42, 0
22, 214080, Note_on_c, 8, 45, 0
22, 214080, Note_on_c, 8, 51, 0
22, 214080, Note_on_c, 8, 53, 0
22, 214080, Note_on_c, 8, 42, 80
22, 214080, Note_on_c, 8, 45, 86
22, 214080, Note_on_c, 8, 51, 93
22, 214080, Note_on_c, 8, 53, 87
22, 214560, Note_on_c, 8, 42, 0
22, 214560, Note_on_c, 8, 45, 0
22, 214560, Note_on_c, 8, 51, 0
22, 214560, Note_on_c, 8, 53, 0
22, 214560, Note_on_c, 8, 42, 78
22, 214560, Note_on_c, 8, 45, 85
22, 214560, Note_on_c, 8, 51, 78
22, 214560, Note_on_c, 8, 53, 90
22, 215040, Note_on_c, 8, 42, 0
22, 215040, Note_on_c, 8, 45, 0
22, 215040, Note_on_c, 8, 51, 0
22, 215040, Note_on_c, 8, 53, 0
22, 215040, Note_on_c, 8, 42, 98
22, 215040, Note_on_c, 8, 45, 92
22, 215040, Note_on_c, 8, 51, 83
22, 215040, Note_on_c, 8, 53, 83
22, 215520, Note_on_c, 8, 42, 0
22, 215520, Note_on_c, 8, 45, 0
22, 215520, Note_on_c, 8, 51, 0
22, 215520, Note_on_c, 8, 53, 0
22, 215520, Note_on_c, 8, 42, 92
22, 215520, Note_on_c, 8, 45, 86
22, 215520, Note_on_c, 8, 51, 78
22, 215520, Note_on_c, 8, 53, 91
22, 216000, Note_on_c, 8, 42, 0
22, 216000, Note_on_c, 8, 45, 0
22, 216000, Note_on_c, 8, 51, 0
22, 216000, Note_on_c, 8, 53, 0
22, 216480, Note_on_c, 8, 45, 106
22, 216720, Note_on_c, 8, 45, 0
22, 217680, Note_on_c, 8, 45, 94
22, 217920, Note_on_c, 8, 45, 0
22, 221040, Note_on_c, 8, 45, 108
22, 221280, Note_on_c, 8, 45, 0
22, 222720, Note_on_c, 8, 45, 99
22, 222960, Note_on_c, 8, 45, 0
22, 223920, Note_on_c, 8, 45, 103
22, 224160, Note_on_c, 8, 45, 0
22, 225360, Note_on_c, 8, 51, 93
22, 225600, Note_on_c, 8, 51, 0
22, 225600, Note_on_c, 8, 42, 80
22, 225840, Note_on_c, 8, 42, 0
22, 225840, Note_on_c, 8, 48, 95
22, 226080, Note_on_c, 8, 48, 0
22, 226080, Note_on_c, 8, 42, 86
22, 226320, Note_on_c, 8, 42, 0
22, 226320, Note_on_c, 8, 51, 94
22, 226560, Note_on_c, 8, 51, 0
22, 226560, Note_on_c, 8, 42, 89
22, 226800, Note_on_c, 8, 42, 0
22, 226800, Note_on_c, 8, 48, 92
22, 227040, Note_on_c, 8, 48, 0
22, 227040, Note_on_c, 8, 42, 90
22, 227280, Note_on_c, 8, 42, 0
22, 227280, Note_on_c, 8, 51, 96
22, 227520, Note_on_c, 8, 51, 0
22, 227520, Note_on_c, 8, 42, 93
22, 227760, Note_on_c, 8, 42, 0
22, 227760, Note_on_c, 8, 48, 81
22, 228000, Note_on_c, 8, 48, 0
22, 228000, Note_on_c, 8, 42, 81
22, 228240, Note_on_c, 8, 42, 0
22, 228240, Note_on_c, 8, 51, 87
22, 228480, Note_on_c, 8, 51, 0
22, 228480, Note_on_c, 8, 42, 82
22, 228720, Note_on_c, 8, 42, 0
22, 230160, Note_on_c, 8, 51, 89
22, 230400, Note_on_c, 8, 51, 0
22, 230400, Note_on_c, 8, 42, 83
22, 230640, Note_on_c, 8, 42, 0
22, 230640, Note_on_c, 8, 48, 78
22, 230880, Note_on_c, 8, 48, 0
22, 230880, Note_on_c, 8, 42, 94
22, 231120, Note_on_c, 8, 42, 0
22, 231120, Note_on_c, 8, 51, 80
22, 231360, Note_on_c, 8, 51, 0
22, 231360, Note_on_c, 8, 42, 82
22, 231600, Note_on_c, 8, 42, 0
22, 231600, Note_on_c, 8, 48, 87
22, 231840, Note_on_c, 8, 48, 0
22, 231840, Note_on_c, 8, 42, 80
22, 232080, Note_on_c, 8, 42, 0
22, 232080, Note_on_c, 8, 51, 86
22, 232320, Note_on_c, 8, 51, 0
22, 232320, Note_on_c, 8, 42, 93
22, 232560, Note_on_c, 8, 42, 0
22, 232560, Note_on_c, 8, 48, 80
22, 232800, Note_on_c, 8, 48, 0
22, 232800, Note_on_c, 8, 42, 88
22, 233040, Note_on_c, 8, 42, 0
22, 233040, Note_on_c, 8, 51, 88
22, 233280, Note_on_c, 8, 51, 0
22, 233760, Note_on_c, 8, 45, 96
22, 234000, Note_on_c, 8, 45, 0
22, 235200, Note_on_c, 8, 51, 82
22, 235440, Note_on_c, 8, 51, 0
22, 235440, Note_on_c, 8, 42, 86
22, 235680, Note_on_c, 8, 42, 0
22, 235680, Note_on_c, 8, 48, 78
22, 235920, Note_on_c, 8, 48, 0
22, 235920, Note_on_c, 8, 42, 87
22, 236160, Note_on_c, 8, 42, 0
22, 236160, Note_on_c, 8, 51, 91
22, 236400, Note_on_c, 8, 51, 0
22, 236400, Note_on_c, 8, 42, 97
22, 236640, Note_on_c, 8, 42, 0
22, 236640, Note_on_c, 8, 48, 85
22, 236880, Note_on_c, 8, 48, 0
22, 236880, Note_on_c, 8, 42, 93
22, 237120, Note_on_c, 8, 42, 0
22, 237120, Note_on_c, 8, 51, 88
22, 237360, Note_on_c, 8, 51, 0
22, 237360, Note_on_c, 8, 42, 82
22, 237600, Note_on_c, 8, 42, 0
22, 237600, Note_on_c, 8, 48, 90
22, 237840, Note_on_c, 8, 48, 0
22, 237840, Note_on_c, 8, 42, 89
22, 238080, Note_on_c, 8, 42, 0
22, 238080, Note_on_c, 8, 51, 95
22, 238320, Note_on_c, 8, 51, 0
22, 240240, Note_on_c, 8, 45, 91
22, 240480, Note_on_c, 8, 45, 0
22, 243600, Note_on_c, 8, 45, 91
22, 243840, Note_on_c, 8, 45, 0
22, 244800, Note_on_c, 8, 45, 91
22, 245040, Note_on_c, 8, 45, 0
22, 246480, Note_on_c, 8, 45, 98
22, 246720, Note_on_c, 8, 45, 0
22, 247680, Note_on_c, 8, 45, 107
22, 247920, Note_on_c, 8, 45, 0
22, 256800, Note_on_c, 8, 41, 51
22, 257040, Note_on_c, 8, 41, 0
22, 257040, Note_on_c, 8, 42, 45
22, 257280, Note_on_c, 8, 42, 0
22, 257280, Note_on_c, 8, 41, 47
22, 257520, Note_on_c, 8, 41, 0
22, 257520, Note_on_c, 8, 42, 56
22, 257760, Note_on_c, 8, 42, 0
22, 257760, Note_on_c, 8, 41, 39
22, 258000, Note_on_c, 8, 41, 0
22, 258000, Note_on_c, 8, 42, 58
22, 258240, Note_on_c, 8, 42, 0
22, 258240, Note_on_c, 8, 41, 58
22, 258480, Note_on_c, 8, 41, 0
22, 258480, Note_on_c, 8, 42, 39
22, 258720, Note_on_c, 8, 42, 0
22, 258720, Note_on_c, 8, 41, 53
22, 258960, Note_on_c, 8, 41, 0
22, 258960, Note_on_c, 8, 42, 42
22, 259200, Note_on_c, 8, 42, 0
22, 264480, Note_on_c, 8, 53, 50
22, 264720, Note_on_c, 8, 53, 0
22, 264720, Note_on_c, 8, 42, 54
22, 264960, Note_on_c, 8, 42, 0
22, 264960, Note_on_c, 8, 41, 59
22, 265200, Note_on_c, 8, 41, 0
22, 265200, Note_on_c, 8, 41, 54
22, 265440, Note_on_c, 8, 41, 0
22, 265440, Note_on_c, 8, 53, 66
22, 265680, Note_on_c, 8, 53, 0
22, 265680, Note_on_c, 8, 42, 47
22, 265920, Note_on_c, 8, 42, 0
22, 265920, Note_on_c, 8, 41, 53
22, 266160, Note_on_c, 8, 41, 0
22, 266160, Note_on_c, 8, 41, 60
22, 266400, Note_on_c, 8, 41, 0
22, 266400, Note_on_c, 8, 53, 51
22, 266640, Note_on_c, 8, 53, 0
22, 266640, Note_on_c, 8, 42, 48
22, 266880, Note_on_c, 8, 42, 0
22, 266880, Note_on_c, 8, 41, 64
22, 267120, Note_on_c, 8, 41, 0
22, 267120, Note_on_c, 8, 41, 66
22, 267360, Note_on_c, 8, 41, 0
22, 267360, Note_on_c, 8, 53, 52
22, 267600, Note_on_c, 8, 53, 0
22, 267600, Note_on_c, 8, 42, 51
22, 267840, Note_on_c, 8, 42, 0
22, 267840, Note_on_c, 8, 41, 61
22, 268080, Note_on_c, 8, 41, 0
22, 268080, Note_on_c, 8, 41, 51
22, 268320, Note_on_c, 8, 41, 0
22, 268320, Note_on_c, 8, 53, 50
22, 268560, Note_on_c, 8, 53, 0
22, 268560, Note_on_c, 8, 42, 61
22, 268800, Note_on_c, 8, 42, 0
22, 268800, Note_on_c, 8, 41, 63
22, 269040, Note_on_c, 8, 41, 0
22, 269040, Note_on_c, 8, 41, 59
22, 269280, Note_on_c, 8, 41, 0
22, 269280, Note_on_c, 8, 53, 65
22, 269520, Note_on_c, 8, 53, 0
22, 269520, Note_on_c, 8, 42, 48
22, 269760, Note_on_c, 8, 42, 0
22, 269760, Note_on_c, 8, 41, 62
22, 270000, Note_on_c, 8, 41, 0
22, 270000, Note_on_c, 8, 41, 54
22, 270240, Note_on_c, 8, 41, 0
22, 270240, Note_on_c, 8, 53, 63
22, 270480, Note_on_c, 8, 53, 0
22, 270480, Note_on_c, 8, 42, 51
22, 270720, Note_on_c, 8, 42, 0
22, 270720, Note_on_c, 8, 41, 52
22, 270960, Note_on_c, 8, 41, 0
22, 270960, Note_on_c, 8, 41, 66
22, 271200, Note_on_c, 8, 41, 0
22, 271200, Note_on_c, 8, 53, 61
22, 271440, Note_on_c, 8, 53, 0
22, 271440, Note_on_c, 8, 42, 50
22, 271680, Note_on_c, 8, 42, 0
22, 271680, Note_on_c, 8, 41, 48
22, 271920, Note_on_c, 8, 41, 0
22, 271920, Note_on_c, 8, 41, 64
22, 272160, Note_on_c, 8, 41, 0
22, 272160, Note_on_c, 8, 53, 48
22, 272400, Note_on_c, 8, 53, 0
22, 272400, Note_on_c, 8, 42, 53
22, 272640, Note_on_c, 8, 42, 0
22, 272640, Note_on_c, 8, 41, 57
22, 272880, Note_on_c, 8, 41, 0
22, 272880, Note_on_c, 8, 41, 58
22, 273120, Note_on_c, 8, 41, 0
22, 273120, Note_on_c, 8, 53, 54
22, 273360, Note_on_c, 8, 53, 0
22, 273360, Note_on_c, 8, 42, 54
22, 273600, Note_on_c, 8, 42, 0
22, 273600, Note_on_c, 8, 41, 56
22, 273840, Note_on_c, 8, 41, 0
22, 273840, Note_on_c, 8, 41, 51
22, 274080, Note_on_c, 8, 41, 0
22, 274080, Note_on_c, 8, 53, 59
22, 274320, Note_on_c, 8, 53, 0
22, 274320, Note_on_c, 8, 42, 60
22, 274560, Note_on_c, 8, 42, 0
22, 274560, Note_on_c, 8, 41, 58
22, 274800, Note_on_c, 8, 41, 0
22, 274800, Note_on_c, 8, 41, 47
22, 275040, Note_on_c, 8, 41, 0
22, 275040, Note_on_c, 8, 53, 55
22, 275280, Note_on_c, 8, 53, 0
22, 275280, Note_on_c, 8, 42, 55
22, 275520, Note_on_c, 8, 42, 0
22, 275520, Note_on_c, 8, 41, 50
22, 275760, Note_on_c, 8, 41, 0
22, 275760, Note_on_c, 8, 41, 55
22, 276000, Note_on_c, 8, 41, 0
22, 276000, Note_on_c, 8, 53, 48
22, 276240, Note_on_c, 8, 53, 0
22, 276240, Note_on_c, 8, 42, 57
22, 276480, Note_on_c, 8, 42, 0
22, 276480, Note_on_c, 8, 41, 51
22, 276720, Note_on_c, 8, 41, 0
22, 276720, Note_on_c, 8, 41, 66
22, 276960, Note_on_c, 8, 41, 0
22, 276960, Note_on_c, 8, 53, 51
22, 277200, Note_on_c, 8, 53, 0
22, 277200, Note_on_c, 8, 42, 60
22, 277440, Note_on_c, 8, 42, 0
22, 277440, Note_on_c, 8, 41, 52
22, 277680, Note_on_c, 8, 41, 0
22, 277680, Note_on_c, 8, 41, 53
22, 277920, Note_on_c, 8, 41, 0
22, 277920, Note_on_c, 8, 53, 60
22, 278160, Note_on_c, 8, 53, 0
22, 278160, Note_on_c, 8, 42, 49
22, 278400, Note_on_c, 8, 42, 0
22, 278400, Note_on_c, 8, 41, 63
22, 278640, Note_on_c, 8, 41, 0
22, 278640, Note_on_c, 8, 41, 48
22, 278880, Note_on_c, 8, 41, 0
22, 278880, Note_on_c, 8, 53, 63
22, 279120, Note_on_c, 8, 53, 0
22, 279120, Note_on_c, 8, 42, 49
22, 279360, Note_on_c, 8, 42, 0
22, 279360, Note_on_c, 8, 41, 61
22, 279600, Note_on_c, 8, 41, 0
22, 279600, Note_on_c, 8, 41, 57
22, 279840, Note_on_c, 8, 41, 0
22, 279840, Note_on_c, 8, 53, 62
22, 280080, Note_on_c, 8, 53, 0
22, 280080, Note_on_c, 8, 42, 52
22, 280320, Note_on_c, 8, 42, 0
22, 280320, Note_on_c, 8, 41, 46
22, 280560, Note_on_c, 8, 41, 0
22, 280560, Note_on_c, 8, 41, 66
22, 280800, Note_on_c, 8, 41, 0
22, 280800, Note_on_c, 8, 53, 50
22, 281040, Note_on_c, 8, 53, 0
22, 281040, Note_on_c, 8, 42, 50
22, 281280, Note_on_c, 8, 42, 0
22, 281280, Note_on_c, 8, 41, 64
22, 281520, Note_on_c, 8, 41, 0
22, 281520, Note_on_c, 8, 41, 62
22, 281760, Note_on_c, 8, 41, 0
22, 281760, Note_on_c, 8, 53, 46
22, 282000, Note_on_c, 8, 53, 0
22, 282000, Note_on_c, 8, 42, 50
22, 282240, Note_on_c, 8, 42, 0
22, 282240, Note_on_c, 8, 41, 57
22, 282480, Note_on_c, 8, 41, 0
22, 282480, Note_on_c, 8, 41, 46
22, 282720, Note_on_c, 8, 41, 0
22, 282720, Note_on_c, 8, 53, 56
22, 282960, Note_on_c, 8, 53, 0
22, 282960, Note_on_c, 8, 42, 49
22, 283200, Note_on_c, 8, 42, 0
22, 283200, Note_on_c, 8, 41, 63
22, 283440, Note_on_c, 8, 41, 0
22, 283440, Note_on_c, 8, 41, 65
22, 283680, Note_on_c, 8, 41, 0
22, 283680, Note_on_c, 8, 53, 49
22, 283920, Note_on_c, 8, 53, 0
22, 283920, Note_on_c, 8, 42, 47
22, 284160, Note_on_c, 8, 42, 0
22, 284160, Note_on_c, 8, 41, 66
22, 284400, Note_on_c, 8, 41, 0
22, 284400, Note_on_c, 8, 41, 61
22, 284640, Note_on_c, 8, 41, 0
22, 284640, Note_on_c, 8, 53, 51
22, 284880, Note_on_c, 8, 53, 0
22, 284880, Note_on_c, 8, 42, 53
22, 285120, Note_on_c, 8, 42, 0
22, 285120, Note_on_c, 8, 41, 61
22, 285360, Note_on_c, 8, 41, 0
22, 285360, Note_on_c, 8, 41, 64
22, 285600, Note_on_c, 8, 41, 0
22, 285600, Note_on_c, 8, 53, 59
22, 285840, Note_on_c, 8, 53, 0
22, 285840, Note_on_c, 8, 42, 59
22, 286080, Note_on_c, 8, 42, 0
22, 286080, Note_on_c, 8, 41, 49
22, 286320, Note_on_c, 8, 41, 0
22, 286320, Note_on_c, 8, 41, 61
22, 286560, Note_on_c, 8, 41, 0
22, 286560, Note_on_c, 8, 53, 49
22, 286800, Note_on_c, 8, 53, 0
22, 286800, Note_on_c, 8, 42, 60
22, 287040, Note_on_c, 8, 42, 0
22, 287040, Note_on_c, 8, 41, 65
22, 287280, Note_on_c, 8, 41, 0
22, 287280, Note_on_c, 8, 41, 64
22, 287520, Note_on_c, 8, 41, 0
22, 287520, Note_on_c, 8, 53, 46
22, 287760, Note_on_c, 8, 53, 0
22, 287760, Note_on_c, 8, 42, 57
22, 288000, Note_on_c, 8, 42, 0
22, 290880, Program_c, 8, 47
22, 291120, Note_on_c, 8, 45, 105
22, 291360, Note_on_c, 8, 45, 0
22, 292320, Note_on_c, 8, 45, 108
22, 292560, Note_on_c, 8, 45, 0
22, 295680, Note_on_c, 8, 45, 103
22, 295920, Note_on_c, 8, 45, 0
22, 297360, Note_on_c, 8, 45, 98
22, 297600, Note_on_c, 8, 45, 0
22, 298560, Note_on_c, 8, 45, 99
22, 298800, Note_on_c, 8, 45, 0
22, 301200, Note_on_c, 8, 45, 111
22, 301440, Note_on_c, 8, 45, 0
22, 304560, Note_on_c, 8, 45, 110
22, 304800, Note_on_c, 8, 45, 0
22, 305760, Note_on_c, 8, 45, 101
22, 306000, Note_on_c, 8, 45, 0
22, 307440, Note_on_c, 8, 45, 108
22, 307680, Note_on_c, 8, 45, 0
22, 308640, Note_on_c, 8, 45, 103
22, 308880, Note_on_c, 8, 45, 0
22, 309360, Control_c, 8, 7, 127
22, 312240, Note_on_c, 8, 42, 96
22, 312432, Note_on_c, 8, 42, 0
22, 312560, Note_on_c, 8, 52, 93
22, 312751, Note_on_c, 8, 52, 0
22, 312879, Note_on_c, 8, 51, 108
22, 313071, Note_on_c, 8, 51, 0
22, 323280, Note_on_c, 8, 51, 89
22, 323520, Note_on_c, 8, 51, 0
22, 323760, Note_on_c, 8, 51, 14
22, 323880, Note_on_c, 8, 51, 0
22, 323880, Note_on_c, 8, 51, 23
22, 324000, Note_on_c, 8, 51, 0
22, 324000, Note_on_c, 8, 51, 33
22, 324120, Note_on_c, 8, 51, 0
22, 324120, Note_on_c, 8, 51, 21
22, 324240, Note_on_c, 8, 51, 0
22, 324240, Note_on_c, 8, 51, 31
22, 324360, Note_on_c, 8, 51, 0
22, 324360, Note_on_c, 8, 51, 33
22, 324480, Note_on_c, 8, 51, 0
22, 324480, Note_on_c, 8, 51, 32
22, 324600, Note_on_c, 8, 51, 0
22, 324600, Note_on_c, 8, 51, 43
22, 324720, Note_on_c, 8, 51, 0
22, 324720, Note_on_c, 8, 51, 41
22, 324840, Note_on_c, 8, 51, 0
22, 324840, Note_on_c, 8, 51, 49
22, 324960, Note_on_c, 8, 51, 0
22, 324960, Note_on_c, 8, 51, 36
22, 325080, Note_on_c, 8, 51, 0
22, 325080, Note_on_c, 8, 51, 37
22, 325200, Note_on_c, 8, 51, 0
22, 325200, Note_on_c, 8, 51, 52
22, 325320, Note_on_c, 8, 51, 0
22, 325320, Note_on_c, 8, 51, 45
22, 325440, Note_on_c, 8, 51, 0
22, 325440, Note_on_c, 8, 51, 53
22, 325560, Note_on_c, 8, 51, 0
22, 325560, Note_on_c, 8, 51, 62
22, 325680, Note_on_c, 8, 51, 0
22, 325680, Note_on_c, 8, 51, 48
22, 325800, Note_on_c, 8, 51, 0
22, 325800, Note_on_c, 8, 51, 54
22, 325920, Note_on_c, 8, 51, 0
22, 325920, Note_on_c, 8, 51, 69
22, 326040, Note_on_c, 8, 51, 0
22, 326040, Note_on_c, 8, 51, 57
22, 326160, Note_on_c, 8, 51, 0
22, 326640, Note_on_c, 8, 42, 92
22, 326832, Note_on_c, 8, 42, 0
22, 326960, Note_on_c, 8, 52, 106
22, 327151, Note_on_c, 8, 52, 0
22, 327279, Note_on_c, 8, 51, 92
22, 327471, Note_on_c, 8, 51, 0
22, 330480, Note_on_c, 8, 51, 17
22, 330600, Note_on_c, 8, 51, 0
22, 330600, Note_on_c, 8, 51, 27
22, 330720, Note_on_c, 8, 51, 0
22, 330720, Note_on_c, 8, 51, 21
22, 330840, Note_on_c, 8, 51, 0
22, 330840, Note_on_c, 8, 51, 14
22, 330960, Note_on_c, 8, 51, 0
22, 330960, Note_on_c, 8, 51, 34
22, 331080, Note_on_c, 8, 51, 0
22, 331080, Note_on_c, 8, 51, 32
22, 331200, Note_on_c, 8, 51, 0
22, 331200, Note_on_c, 8, 51, 26
22, 331320, Note_on_c, 8, 51, 0
22, 331320, Note_on_c, 8, 51, 25
22, 331440, Note_on_c, 8, 51, 0
22, 331440, Note_on_c, 8, 51, 28
22, 331560, Note_on_c, 8, 51, 0
22, 331560, Note_on_c, 8, 51, 26
22, 331680, Note_on_c, 8, 51, 0
22, 331680, Note_on_c, 8, 51, 26
22, 331800, Note_on_c, 8, 51, 0
22, 331800, Note_on_c, 8, 51, 31
22, 331920, Note_on_c, 8, 51, 0
22, 331920, Note_on_c, 8, 50, 26
22, 332040, Note_on_c, 8, 50, 0
22, 332040, Note_on_c, 8, 50, 46
22, 332160, Note_on_c, 8, 50, 0
22, 332160, Note_on_c, 8, 50, 44
22, 332280, Note_on_c, 8, 50, 0
22, 332280, Note_on_c, 8, 50, 42
22, 332400, Note_on_c, 8, 50, 0
22, 332400, Note_on_c, 8, 50, 41
22, 332520, Note_on_c, 8, 50, 0
22, 332520, Note_on_c, 8, 50, 35
22, 332640, Note_on_c, 8, 50, 0
22, 332640, Note_on_c, 8, 50, 46
22, 332760, Note_on_c, 8, 50, 0
22, 332760, Note_on_c, 8, 50, 45
22, 332880, Note_on_c, 8, 50, 0
22, 332880, Note_on_c, 8, 50, 53
22, 333000, Note_on_c, 8, 50, 0
22, 333000, Note_on_c, 8, 50, 58
22, 333120, Note_on_c, 8, 50, 0
22, 333120, Note_on_c, 8, 50, 48
22, 333240, Note_on_c, 8, 50, 0
22, 333240, Note_on_c, 8, 50, 52
22, 333360, Note_on_c, 8, 50, 0
22, 333360, Note_on_c, 8, 50, 53
22, 333480, Note_on_c, 8, 50, 0
22, 333480, Note_on_c, 8, 50, 64
22, 333600, Note_on_c, 8, 50, 0
22, 333600, Note_on_c, 8, 50, 49
22, 333720, Note_on_c, 8, 50, 0
22, 333720, Note_on_c, 8, 50, 47
22, 333840, Note_on_c, 8, 50, 0
22, 333840, Note_on_c, 8, 50, 57
22, 333960, Note_on_c, 8, 50, 0
22, 333960, Note_on_c, 8, 50, 69
22, 334080, Note_on_c, 8, 50, 0
22, 334080, Note_on_c, 8, 50, 69
22, 334200, Note_on_c, 8, 50, 0
22, 334200, Note_on_c, 8, 50, 71
22, 334320, Note_on_c, 8, 50, 0
22, 334800, Note_on_c, 8, 42, 104
22, 334992, Note_on_c, 8, 42, 0
22, 335120, Note_on_c, 8, 52, 96
22, 335311, Note_on_c, 8, 52, 0
22, 335439, Note_on_c, 8, 51, 103
22, 335631, Note_on_c, 8, 51, 0
22, 354960, Note_on_c, 8, 50, 25
22, 355080, Note_on_c, 8, 50, 0
22, 355080, Note_on_c, 8, 50, 30
22, 355200, Note_on_c, 8, 50, 0
22, 355200, Note_on_c, 8, 50, 19
22, 355320, Note_on_c, 8, 50, 0
22, 355320, Note_on_c, 8, 50, 34
22, 355440, Note_on_c, 8, 50, 0
22, 355440, Note_on_c, 8, 50, 31
22, 355560, Note_on_c, 8, 50, 0
22, 355560, Note_on_c, 8, 50, 23
22, 355680, Note_on_c, 8, 50, 0
22, 355680, Note_on_c, 8, 50, 43
22, 355800, Note_on_c, 8, 50, 0
22, 355800, Note_on_c, 8, 50, 35
22, 355920, Note_on_c, 8, 50, 0
22, 355920, Note_on_c, 8, 50, 32
22, 356040, Note_on_c, 8, 50, 0
22, 356040, Note_on_c, 8, 50, 47
22, 356160, Note_on_c, 8, 50, 0
22, 356160, Note_on_c, 8, 50, 51
22, 356280, Note_on_c, 8, 50, 0
22, 356280, Note_on_c, 8, 50, 45
22, 356400, Note_on_c, 8, 50, 0
22, 356400, Note_on_c, 8, 50, 56
22, 356520, Note_on_c, 8, 50, 0
22, 356520, Note_on_c, 8, 50, 52
22, 356640, Note_on_c, 8, 50, 0
22, 356640, Note_on_c, 8, 50, 56
22, 356760, Note_on_c, 8, 50, 0
22, 356760, Note_on_c, 8, 50, 58
22, 356880, Note_on_c, 8, 50, 0
22, 356880, Note_on_c, 8, 50, 62
22, 357000, Note_on_c, 8, 50, 0
22, 357000, Note_on_c, 8, 50, 66
22, 357120, Note_on_c, 8, 50, 0
22, 357120, Note_on_c, 8, 50, 65
22, 357240, Note_on_c, 8, 50, 0
22, 357240, Note_on_c, 8, 50, 58
22, 357360, Note_on_c, 8, 50, 0
22, 357840, Note_on_c, 8, 42, 111
22, 358032, Note_on_c, 8, 42, 0
22, 358160, Note_on_c, 8, 52, 109
22, 358351, Note_on_c, 8, 52, 0
22, 358479, Note_on_c, 8, 51, 101
22, 358671, Note_on_c, 8, 51, 0
22, 378480, Note_on_c, 8, 50, 22
22, 378600, Note_on_c, 8, 50, 0
22, 378600, Note_on_c, 8, 50, 25
22, 378720, Note_on_c, 8, 50, 0
22, 378720, Note_on_c, 8, 50, 32
22, 378840, Note_on_c, 8, 50, 0
22, 378840, Note_on_c, 8, 50, 25
22, 378960, Note_on_c, 8, 50, 0
22, 378960, Note_on_c, 8, 50, 26
22, 379080, Note_on_c, 8, 50, 0
22, 379080, Note_on_c, 8, 50, 35
22, 379200, Note_on_c, 8, 50, 0
22, 379200, Note_on_c, 8, 50, 29
22, 379320, Note_on_c, 8, 50, 0
22, 379320, Note_on_c, 8, 50, 24
22, 379440, Note_on_c, 8, 50, 0
22, 379440, Note_on_c, 8, 50, 27
22, 379560, Note_on_c, 8, 50, 0
22, 379560, Note_on_c, 8, 50, 30
22, 379680, Note_on_c, 8, 50, 0
22, 379680, Note_on_c, 8, 50, 34
22, 379800, Note_on_c, 8, 50, 0
22, 379800, Note_on_c, 8, 50, 31
22, 379920, Note_on_c, 8, 50, 0
22, 379920, Note_on_c, 8, 50, 35
22, 380040, Note_on_c, 8, 50, 0
22, 380040, Note_on_c, 8, 50, 37
22, 380160, Note_on_c, 8, 50, 0
22, 380160, Note_on_c, 8, 50, 32
22, 380280, Note_on_c, 8, 50, 0
22, 380280, Note_on_c, 8, 50, 36
22, 380400, Note_on_c, 8, 50, 0
22, 380400, Note_on_c, 8, 50, 49
22, 380520, Note_on_c, 8, 50, 0
22, 380520, Note_on_c, 8, 50, 36
22, 380640, Note_on_c, 8, 50, 0
22, 380640, Note_on_c, 8, 50, 44
22, 380760, Note_on_c, 8, 50, 0
22, 380760, Note_on_c, 8, 50, 44
22, 380880, Note_on_c, 8, 50, 0
22, 380880, Note_on_c, 8, 50, 52
22, 381000, Note_on_c, 8, 50, 0
22, 381000, Note_on_c, 8, 50, 56
22, 381120, Note_on_c, 8, 50, 0
22, 381120, Note_on_c, 8, 50, 58
22, 381240, Note_on_c, 8, 50, 0
22, 381240, Note_on_c, 8, 50, 66
22, 381360, Note_on_c, 8, 50, 0
22, 381360, Note_on_c, 8, 50, 60
22, 381480, Note_on_c, 8, 50, 0
22, 381480, Note_on_c, 8, 50, 63
22, 381600, Note_on_c, 8, 50, 0
22, 381600, Note_on_c, 8, 50, 57
22, 381720, Note_on_c, 8, 50, 0
22, 381720, Note_on_c, 8, 50, 62
22, 381840, Note_on_c, 8, 50, 0
22, 382320, Note_on_c, 8, 42, 94
22, 382512, Note_on_c, 8, 42, 0
22, 382640, Note_on_c, 8, 52, 101
22, 382831, Note_on_c, 8, 52, 0
22, 382959, Note_on_c, 8, 51, 109
22, 383151, Note_on_c, 8, 51, 0
22, 385920, Note_on_c, 8, 46, 57
22, 386160, Note_on_c, 8, 46, 0
22, 386400, Note_on_c, 8, 46, 53
22, 386640, Note_on_c, 8, 46, 0
22, 386880, Note_on_c, 8, 46, 40
22, 387120, Note_on_c, 8, 46, 0
22, 387360, Note_on_c, 8, 46, 42
22, 387600, Note_on_c, 8, 46, 0
22, 387840, Note_on_c, 8, 46, 53
22, 388080, Note_on_c, 8, 46, 0
22, 388320, Note_on_c, 8, 46, 56
22, 388560, Note_on_c, 8, 46, 0
22, 388800, Note_on_c, 8, 46, 41
22, 389040, Note_on_c, 8, 46, 0
22, 389280, Note_on_c, 8, 46, 39
22, 389520, Note_on_c, 8, 46, 0
22, 389760, Note_on_c, 8, 46, 46
22, 390000, Note_on_c, 8, 46, 0
22, 390240, Note_on_c, 8, 46, 53
22, 390480, Note_on_c, 8, 46, 0
22, 390720, Note_on_c, 8, 46, 52
22, 390960, Note_on_c, 8, 46, 0
22, 391200, Note_on_c, 8, 46, 41
22, 391440, Note_on_c, 8, 46, 0
22, 391680, Note_on_c, 8, 46, 45
22, 391920, Note_on_c, 8, 46, 0
22, 392160, Note_on_c, 8, 46, 44
22, 392400, Note_on_c, 8, 46, 0
22, 392640, Note_on_c, 8, 46, 55
22, 392880, Note_on_c, 8, 46, 0
22, 393120, Note_on_c, 8, 46, 56
22, 393360, Note_on_c, 8, 46, 0
22, 393600, Note_on_c, 8, 46, 53
22, 393840, Note_on_c, 8, 46, 0
22, 394080, Note_on_c, 8, 46, 41
22, 394320, Note_on_c, 8, 46, 0
22, 394560, Note_on_c, 8, 46, 39
22, 394800, Note_on_c, 8, 46, 0
22, 395040, Note_on_c, 8, 46, 45
22, 395280, Note_on_c, 8, 46, 0
22, 395520, Note_on_c, 8, 46, 53
22, 395760, Note_on_c, 8, 46, 0
22, 396000, Note_on_c, 8, 46, 50
22, 396240, Note_on_c, 8, 46, 0
22, 396480, Note_on_c, 8, 46, 45
22, 396720, Note_on_c, 8, 46, 0
22, 396960, Note_on_c, 8, 46, 48
22, 397200, Note_on_c, 8, 46, 0
22, 397440, Note_on_c, 8, 46, 47
22, 397680, Note_on_c, 8, 46, 0
22, 397920, Note_on_c, 8, 46, 51
22, 398160, Note_on_c, 8, 46, 0
22, 398400, Note_on_c, 8, 46, 53
22, 398640, Note_on_c, 8, 46, 0
22, 398880, Note_on_c, 8, 46, 45
22, 399120, Note_on_c, 8, 46, 0
22, 399360, Note_on_c, 8, 46, 58
22, 399600, Note_on_c, 8, 46, 0
22, 399840, Note_on_c, 8, 46, 58
22, 400080, Note_on_c, 8, 46, 0
22, 400320, Note_on_c, 8, 46, 59
22, 400560, Note_on_c, 8, 46, 0
22, 400800, Note_on_c, 8, 46, 43
22, 401040, Note_on_c, 8, 46, 0
22, 401280, Note_on_c, 8, 46, 42
22, 401520, Note_on_c, 8, 46, 0
22, 401760, Note_on_c, 8, 46, 58
22, 402000, Note_on_c, 8, 46, 0
22, 402240, Note_on_c, 8, 46, 51
22, 402480, Note_on_c, 8, 46, 0
22, 402720, Note_on_c, 8, 46, 43
22, 402960, Note_on_c, 8, 46, 0
22, 403200, Note_on_c, 8, 46, 47
22, 403440, Note_on_c, 8, 46, 0
22, 403680, Note_on_c, 8, 46, 41
22, 403920, Note_on_c, 8, 46, 0
22, 404160, Note_on_c, 8, 46, 56
22, 404400, Note_on_c, 8, 46, 0
22, 404640, Note_on_c, 8, 46, 52
22, 404880, Note_on_c, 8, 46, 0
22, 405120, Note_on_c, 8, 46, 54
22, 405360, Note_on_c, 8, 46, 0
22, 405600, Note_on_c, 8, 46, 55
22, 405840, Note_on_c, 8, 46, 0
22, 406080, Note_on_c, 8, 46, 52
22, 406320, Note_on_c, 8, 46, 0
22, 406560, Note_on_c, 8, 46, 39
22, 406800, Note_on_c, 8, 46, 0
22, 407040, Note_on_c, 8, 46, 50
22, 407280, Note_on_c, 8, 46, 0
22, 407520, Note_on_c, 8, 46, 59
22, 407760, Note_on_c, 8, 46, 0
22, 408000, Note_on_c, 8, 46, 46
22, 408240, Note_on_c, 8, 46, 0
22, 408480, Note_on_c, 8, 46, 57
22, 408720, Note_on_c, 8, 46, 0
22, 408960, Note_on_c, 8, 46, 43
22, 409200, Note_on_c, 8, 46, 0
22, 409440, Note_on_c, 8, 46, 44
22, 409680, Note_on_c, 8, 46, 0
22, 409920, Note_on_c, 8, 46, 42
22, 410160, Note_on_c, 8, 46, 0
22, 410400, Note_on_c, 8, 46, 49
22, 410640, Note_on_c, 8, 46, 0
22, 410880, Note_on_c, 8, 46, 47
22, 411120, Note_on_c, 8, 46, 0
22, 411360, Note_on_c, 8, 46, 40
22, 411600, Note_on_c, 8, 46, 0
22, 411840, Note_on_c, 8, 46, 38
22, 412080, Note_on_c, 8, 46, 0
22, 412320, Note_on_c, 8, 46, 26
22, 412560, Note_on_c, 8, 46, 0
22, 412800, Note_on_c, 8, 46, 30
22, 413040, Note_on_c, 8, 46, 0
22, 413280, Note_on_c, 8, 46, 34
22, 413520, Note_on_c, 8, 46, 0
22, 413760, Note_on_c, 8, 46, 26
22, 414000, Note_on_c, 8, 46, 0
22, 414240, Note_on_c, 8, 46, 18
22, 414480, Note_on_c, 8, 46, 0
22, 438240, Note_on_c, 8, 43, 58
22, 438240, Note_on_c, 8, 50, 42
22, 438240, Note_on_c, 8, 59, 50
22, 438480, Note_on_c, 8, 43, 0
22, 438480, Note_on_c, 8, 50, 0
22, 438480, Note_on_c, 8, 59, 0
22, 438720, Note_on_c, 8, 43, 48
22, 438720, Note_on_c, 8, 50, 56
22, 438720, Note_on_c, 8, 59, 53
22, 438960, Note_on_c, 8, 43, 0
22, 438960, Note_on_c, 8, 50, 0
22, 438960, Note_on_c, 8, 59, 0
22, 439200, Note_on_c, 8, 43, 39
22, 439200, Note_on_c, 8, 50, 39
22, 439200, Note_on_c, 8, 59, 42
22, 439440, Note_on_c, 8, 43, 0
22, 439440, Note_on_c, 8, 50, 0
22, 439440, Note_on_c, 8, 59, 0
22, 439680, Note_on_c, 8, 43, 58
22, 439680, Note_on_c, 8, 50, 59
22, 439680, Note_on_c, 8, 59, 54
22, 439920, Note_on_c, 8, 43, 0
22, 439920, Note_on_c, 8, 50, 0
22, 439920, Note_on_c, 8, 59, 0
22, 440160, Note_on_c, 8, 43, 52
22, 440160, Note_on_c, 8, 50, 46
22, 440160, Note_on_c, 8, 59, 57
22, 440400, Note_on_c, 8, 43, 0
22, 440400, Note_on_c, 8, 50, 0
22, 440400, Note_on_c, 8, 59, 0
22, 440640, Note_on_c, 8, 43, 50
22, 440640, Note_on_c, 8, 50, 55
22, 440640, Note_on_c, 8, 59, 57
22, 440880, Note_on_c, 8, 43, 0
22, 440880, Note_on_c, 8, 50, 0
22, 440880, Note_on_c, 8, 59, 0
22, 441120, Note_on_c, 8, 43, 55
22, 441120, Note_on_c, 8, 50, 53
22, 441120, Note_on_c, 8, 59, 44
22, 441360, Note_on_c, 8, 43, 0
22, 441360, Note_on_c, 8, 50, 0
22, 441360, Note_on_c, 8, 59, 0
22, 441600, Note_on_c, 8, 43, 50
22, 441600, Note_on_c, 8, 50, 49
22, 441600, Note_on_c, 8, 59, 44
22, 441840, Note_on_c, 8, 43, 0
22, 441840, Note_on_c, 8, 50, 0
22, 441840, Note_on_c, 8, 59, 0
22, 442080, Note_on_c, 8, 43, 40
22, 442080, Note_on_c, 8, 50, 59
22, 442080, Note_on_c, 8, 59, 46
22, 442320, Note_on_c, 8, 43, 0
22, 442320, Note_on_c, 8, 50, 0
22, 442320, Note_on_c, 8, 59, 0
22, 442560, Note_on_c, 8, 43, 58
22, 442560, Note_on_c, 8, 50, 52
22, 442560, Note_on_c, 8, 59, 43
22, 442800, Note_on_c, 8, 43, 0
22, 442800, Note_on_c, 8, 50, 0
22, 442800, Note_on_c, 8, 59, 0
22, 443040, Note_on_c, 8, 43, 41
22, 443040, Note_on_c, 8, 50, 48
22, 443040, Note_on_c, 8, 59, 47
22, 443280, Note_on_c, 8, 43, 0
22, 443280, Note_on_c, 8, 50, 0
22, 443280, Note_on_c, 8, 59, 0
22, 443520, Note_on_c, 8, 43, 49
22, 443520, Note_on_c, 8, 50, 49
22, 443520, Note_on_c, 8, 59, 55
22, 443760, Note_on_c, 8, 43, 0
22, 443760, Note_on_c, 8, 50, 0
22, 443760, Note_on_c, 8, 59, 0
22, 457920, Note_on_c, 8, 46, 60
22, 457920, Note_on_c, 8, 53, 67
22, 457920, Note_on_c, 8, 59, 58
22, 457920, Note_on_c, 8, 43, 67
22, 457920, Note_on_c, 8, 50, 56
22, 458160, Note_on_c, 8, 46, 0
22, 458160, Note_on_c, 8, 53, 0
22, 458160, Note_on_c, 8, 59, 0
22, 458160, Note_on_c, 8, 43, 0
22, 458160, Note_on_c, 8, 50, 0
22, 458400, Note_on_c, 8, 46, 54
22, 458400, Note_on_c, 8, 53, 71
22, 458400, Note_on_c, 8, 59, 72
22, 458400, Note_on_c, 8, 43, 56
22, 458400, Note_on_c, 8, 50, 52
22, 458640, Note_on_c, 8, 46, 0
22, 458640, Note_on_c, 8, 53, 0
22, 458640, Note_on_c, 8, 59, 0
22, 458640, Note_on_c, 8, 43, 0
22, 458640, Note_on_c, 8, 50, 0
22, 458880, Note_on_c, 8, 46, 63
22, 458880, Note_on_c, 8, 53, 53
22, 458880, Note_on_c, 8, 59, 68
22, 458880, Note_on_c, 8, 43, 71
22, 458880, Note_on_c, 8, 50, 60
22, 459120, Note_on_c, 8, 46, 0
22, 459120, Note_on_c, 8, 53, 0
22, 459120, Note_on_c, 8, 59, 0
22, 459120, Note_on_c, 8, 43, 0
22, 459120, Note_on_c, 8, 50, 0
22, 459360, Note_on_c, 8, 46, 72
22, 459360, Note_on_c, 8, 53, 70
22, 459360, Note_on_c, 8, 59, 52
22, 459360, Note_on_c, 8, 43, 70
22, 459360, Note_on_c, 8, 50, 67
22, 459600, Note_on_c, 8, 46, 0
22, 459600, Note_on_c, 8, 53, 0
22, 459600, Note_on_c, 8, 59, 0
22, 459600, Note_on_c, 8, 43, 0
22, 459600, Note_on_c, 8, 50, 0
22, 459840, Note_on_c, 8, 46, 62
22, 459840, Note_on_c, 8, 53, 72
22, 459840, Note_on_c, 8, 59, 72
22, 459840, Note_on_c, 8, 43, 68
22, 459840, Note_on_c, 8, 50, 58
22, 460080, Note_on_c, 8, 46, 0
22, 460080, Note_on_c, 8, 53, 0
22, 460080, Note_on_c, 8, 59, 0
22, 460080, Note_on_c, 8, 43, 0
22, 460080, Note_on_c, 8, 50, 0
22, 460320, Note_on_c, 8, 46, 62
22, 460320, Note_on_c, 8, 53, 55
22, 460320, Note_on_c, 8, 59, 71
22, 460320, Note_on_c, 8, 43, 71
22, 460320, Note_on_c, 8, 50, 70
22, 460560, Note_on_c, 8, 46, 0
22, 460560, Note_on_c, 8, 53, 0
22, 460560, Note_on_c, 8, 59, 0
22, 460560, Note_on_c, 8, 43, 0
22, 460560, Note_on_c, 8, 50, 0
22, 460800, Note_on_c, 8, 46, 55
22, 460800, Note_on_c, 8, 53, 58
22, 460800, Note_on_c, 8, 59, 63
22, 460800, Note_on_c, 8, 43, 52
22, 460800, Note_on_c, 8, 50, 56
22, 461040, Note_on_c, 8, 46, 0
22, 461040, Note_on_c, 8, 53, 0
22, 461040, Note_on_c, 8, 59, 0
22, 461040, Note_on_c, 8, 43, 0
22, 461040, Note_on_c, 8, 50, 0
22, 461280, Note_on_c, 8, 46, 61
22, 461280, Note_on_c, 8, 53, 64
22, 461280, Note_on_c, 8, 59, 66
22, 461280, Note_on_c, 8, 43, 56
22, 461280, Note_on_c, 8, 50, 62
22, 461520, Note_on_c, 8, 46, 0
22, 461520, Note_on_c, 8, 53, 0
22, 461520, Note_on_c, 8, 59, 0
22, 461520, Note_on_c, 8, 43, 0
22, 461520, Note_on_c, 8, 50, 0
22, 461760, Note_on_c, 8, 46, 60
22, 461760, Note_on_c, 8, 53, 59
22, 461760, Note_on_c, 8, 59, 62
22, 461760, Note_on_c, 8, 43, 62
22, 461760, Note_on_c, 8, 50, 68
22, 462000, Note_on_c, 8, 46, 0
22, 462000, Note_on_c, 8, 53, 0
22, 462000, Note_on_c, 8, 59, 0
22, 462000, Note_on_c, 8, 43, 0
22, 462000, Note_on_c, 8, 50, 0
22, 462240, Note_on_c, 8, 46, 61
22, 462240, Note_on_c, 8, 53, 69
22, 462240, Note_on_c, 8, 59, 62
22, 462240, Note_on_c, 8, 43, 71
22, 462240, Note_on_c, 8, 50, 63
22, 462480, Note_on_c, 8, 46, 0
22, 462480, Note_on_c, 8, 53, 0
22, 462480, Note_on_c, 8, 59, 0
22, 462480, Note_on_c, 8, 43, 0
22, 462480, Note_on_c, 8, 50, 0
22, 462720, Note_on_c, 8, 46, 70
22, 462720, Note_on_c, 8, 53, 66
22, 462720, Note_on_c, 8, 59, 64
22, 462720, Note_on_c, 8, 43, 52
22, 462720, Note_on_c, 8, 50, 56
22, 462960, Note_on_c, 8, 46, 0
22, 462960, Note_on_c, 8, 53, 0
22, 462960, Note_on_c, 8, 59, 0
22, 462960, Note_on_c, 8, 43, 0
22, 462960, Note_on_c, 8, 50, 0
22, 463200, Note_on_c, 8, 46, 56
22, 463200, Note_on_c, 8, 53, 64
22, 463200, Note_on_c, 8, 59, 69
22, 463200, Note_on_c, 8, 43, 57
22, 463200, Note_on_c, 8, 50, 67
22, 463440, Note_on_c, 8, 46, 0
22, 463440, Note_on_c, 8, 53, 0
22, 463440, Note_on_c, 8, 59, 0
22, 463440, Note_on_c, 8, 43, 0
22, 463440, Note_on_c, 8, 50, 0
22, 463680, Note_on_c, 8, 46, 67
22, 463680, Note_on_c, 8, 53, 62
22, 463680, Note_on_c, 8, 59, 54
22, 463680, Note_on_c, 8, 43, 61
22, 463680, Note_on_c, 8, 50, 55
22, 463920, Note_on_c, 8, 46, 0
22, 463920, Note_on_c, 8, 53, 0
22, 463920, Note_on_c, 8, 59, 0
22, 463920, Note_on_c, 8, 43, 0
22, 463920, Note_on_c, 8, 50, 0
22, 464160, Note_on_c, 8, 46, 57
22, 464160, Note_on_c, 8, 53, 64
22, 464160, Note_on_c, 8, 59, 58
22, 464160, Note_on_c, 8, 43, 55
22, 464160, Note_on_c, 8, 50, 58
22, 464400, Note_on_c, 8, 46, 0
22, 464400, Note_on_c, 8, 53, 0
22, 464400, Note_on_c, 8, 59, 0
22, 464400, Note_on_c, 8, 43, 0
22, 464400, Note_on_c, 8, 50, 0
22, 464640, Note_on_c, 8, 46, 64
22, 464640, Note_on_c, 8, 53, 64
22, 464640, Note_on_c, 8, 59, 69
22, 464640, Note_on_c, 8, 43, 61
22, 464640, Note_on_c, 8, 50, 58
22, 464880, Note_on_c, 8, 46, 0
22, 464880, Note_on_c, 8, 53, 0
22, 464880, Note_on_c, 8, 59, 0
22, 464880, Note_on_c, 8, 43, 0
22, 464880, Note_on_c, 8, 50, 0
22, 465120, Note_on_c, 8, 46, 59
22, 465120, Note_on_c, 8, 53, 67
22, 465120, Note_on_c, 8, 59, 54
22, 465120, Note_on_c, 8, 43, 64
22, 465120, Note_on_c, 8, 50, 53
22, 465360, Note_on_c, 8, 46, 0
22, 465360, Note_on_c, 8, 53, 0
22, 465360, Note_on_c, 8, 59, 0
22, 465360, Note_on_c, 8, 43, 0
22, 465360, Note_on_c, 8, 50, 0
22, 465600, Note_on_c, 8, 46, 63
22, 465600, Note_on_c, 8, 53, 56
22, 465600, Note_on_c, 8, 59, 70
22, 465600, Note_on_c, 8, 43, 65
22, 465600, Note_on_c, 8, 50, 70
22, 465840, Note_on_c, 8, 46, 0
22, 465840, Note_on_c, 8, 53, 0
22, 465840, Note_on_c, 8, 59, 0
22, 465840, Note_on_c, 8, 43, 0
22, 465840, Note_on_c, 8, 50, 0
22, 466080, Note_on_c, 8, 46, 59
22, 466080, Note_on_c, 8, 53, 56
22, 466080, Note_on_c, 8, 59, 70
22, 466080, Note_on_c, 8, 43, 64
22, 466080, Note_on_c, 8, 50, 62
22, 466320, Note_on_c, 8, 46, 0
22, 466320, Note_on_c, 8, 53, 0
22, 466320, Note_on_c, 8, 59, 0
22, 466320, Note_on_c, 8, 43, 0
22, 466320, Note_on_c, 8, 50, 0
22, 466560, Note_on_c, 8, 46, 57
22, 466560, Note_on_c, 8, 53, 68
22, 466560, Note_on_c, 8, 59, 68
22, 466560, Note_on_c, 8, 43, 55
22, 466560, Note_on_c, 8, 50, 69
22, 466800, Note_on_c, 8, 46, 0
22, 466800, Note_on_c, 8, 53, 0
22, 466800, Note_on_c, 8, 59, 0
22, 466800, Note_on_c, 8, 43, 0
22, 466800, Note_on_c, 8, 50, 0
22, 467040, Note_on_c, 8, 46, 69
22, 467040, Note_on_c, 8, 53, 60
22, 467040, Note_on_c, 8, 59, 58
22, 467040, Note_on_c, 8, 43, 57
22, 467040, Note_on_c, 8, 50, 63
22, 467280, Note_on_c, 8, 46, 0
22, 467280, Note_on_c, 8, 53, 0
22, 467280, Note_on_c, 8, 59, 0
22, 467280, Note_on_c, 8, 43, 0
22, 467280, Note_on_c, 8, 50, 0
22, 467280, Note_on_c, 8, 46, 41
22, 467760, Note_on_c, 8, 46, 0
22, 467760, Note_on_c, 8, 46, 49
22, 468240, Note_on_c, 8, 46, 0
22, 468240, Note_on_c, 8, 46, 52
22, 468720, Note_on_c, 8, 46, 0
22, 468720, Note_on_c, 8, 46, 46
22, 469200, Note_on_c, 8, 46, 0
22, 469200, Note_on_c, 8, 46, 42
22, 469680, Note_on_c, 8, 46, 0
22, 469680, Note_on_c, 8, 46, 53
22, 470160, Note_on_c, 8, 46, 0
22, 470160, Note_on_c, 8, 46, 47
22, 470640, Note_on_c, 8, 46, 0
22, 470640, Note_on_c, 8, 46, 45
22, 471120, Note_on_c, 8, 46, 0
22, 471120, Note_on_c, 8, 46, 54
22, 471600, Note_on_c, 8, 46, 0
22, 471600, Note_on_c, 8, 46, 48
22, 472080, Note_on_c, 8, 46, 0
22, 472080, Note_on_c, 8, 46, 54
22, 472560, Note_on_c, 8, 46, 0
22, 472560, Note_on_c, 8, 46, 48
22, 473040, Note_on_c, 8, 46, 0
22, 473040, Note_on_c, 8, 46, 50
22, 473520, Note_on_c, 8, 46, 0
22, 473520, Note_on_c, 8, 46, 51
22, 474000, Note_on_c, 8, 46, 0
22, 474000, Note_on_c, 8, 46, 52
22, 474480, Note_on_c, 8, 46, 0
22, 474480, Note_on_c, 8, 46, 48
22, 474960, Note_on_c, 8, 46, 0
22, 474960, Note_on_c, 8, 46, 54
22, 475440, Note_on_c, 8, 46, 0
22, 475440, Note_on_c, 8, 46, 41
22, 475920, Note_on_c, 8, 46, 0
22, 475920, Note_on_c, 8, 46, 50
22, 476400, Note_on_c, 8, 46, 0
22, 476400, Note_on_c, 8, 46, 41
22, 476880, Note_on_c, 8, 46, 0
22, 476880, Note_on_c, 8, 46, 48
22, 477360, Note_on_c, 8, 46, 0
22, 477360, Note_on_c, 8, 46, 55
22, 477840, Note_on_c, 8, 46, 0
22, 477840, Note_on_c, 8, 46, 41
22, 478080, Note_on_c, 8, 46, 0
22, 478080, Note_on_c, 8, 50, 40
22, 478080, Note_on_c, 8, 46, 41
22, 478320, Note_on_c, 8, 50, 0
22, 478320, Note_on_c, 8, 46, 0
22, 478320, Note_on_c, 8, 46, 39
22, 478560, Note_on_c, 8, 46, 0
22, 478560, Note_on_c, 8, 50, 43
22, 478560, Note_on_c, 8, 46, 46
22, 478800, Note_on_c, 8, 50, 0
22, 478800, Note_on_c, 8, 46, 0
22, 478800, Note_on_c, 8, 46, 45
22, 479040, Note_on_c, 8, 46, 0
22, 479040, Note_on_c, 8, 50, 41
22, 479040, Note_on_c, 8, 46, 35
22, 479280, Note_on_c, 8, 50, 0
22, 479280, Note_on_c, 8, 46, 0
22, 479280, Note_on_c, 8, 46, 39
22, 479520, Note_on_c, 8, 46, 0
22, 479520, Note_on_c, 8, 50, 48
22, 479520, Note_on_c, 8, 46, 41
22, 479760, Note_on_c, 8, 50, 0
22, 479760, Note_on_c, 8, 46, 0
22, 479760, Note_on_c, 8, 47, 35
22, 480000, Note_on_c, 8, 47, 0
22, 480000, Note_on_c, 8, 50, 34
22, 480000, Note_on_c, 8, 47, 42
22, 480240, Note_on_c, 8, 50, 0
22, 480240, Note_on_c, 8, 47, 0
22, 480240, Note_on_c, 8, 47, 45
22, 480480, Note_on_c, 8, 47, 0
22, 480480, Note_on_c, 8, 50, 41
22, 480480, Note_on_c, 8, 47, 35
22, 480720, Note_on_c, 8, 50, 0
22, 480720, Note_on_c, 8, 47, 0
22, 480720, Note_on_c, 8, 47, 39
22, 480960, Note_on_c, 8, 47, 0
22, 480960, Note_on_c, 8, 50, 49
22, 480960, Note_on_c, 8, 47, 37
22, 481200, Note_on_c, 8, 50, 0
22, 481200, Note_on_c, 8, 47, 0
22, 481200, Note_on_c, 8, 47, 43
22, 481440, Note_on_c, 8, 47, 0
22, 481440, Note_on_c, 8, 50, 33
22, 481440, Note_on_c, 8, 47, 35
22, 481680, Note_on_c, 8, 50, 0
22, 481680, Note_on_c, 8, 47, 0
22, 481680, Note_on_c, 8, 47, 49
22, 481920, Note_on_c, 8, 47, 0
22, 481920, Note_on_c, 8, 50, 48
22, 481920, Note_on_c, 8, 47, 43
22, 482160, Note_on_c, 8, 50, 0
22, 482160, Note_on_c, 8, 47, 0
22, 482160, Note_on_c, 8, 47, 48
22, 482400, Note_on_c, 8, 47, 0
22, 482400, Note_on_c, 8, 50, 38
22, 482400, Note_on_c, 8, 47, 42
22, 482640, Note_on_c, 8, 50, 0
22, 482640, Note_on_c, 8, 47, 0
22, 482640, Note_on_c, 8, 47, 34
22, 482880, Note_on_c, 8, 47, 0
22, 482880, Note_on_c, 8, 50, 40
22, 482880, Note_on_c, 8, 47, 32
22, 483120, Note_on_c, 8, 50, 0
22, 483120, Note_on_c, 8, 47, 0
22, 483120, Note_on_c, 8, 47, 46
22, 483360, Note_on_c, 8, 47, 0
22, 483360, Note_on_c, 8, 50, 45
22, 483360, Note_on_c, 8, 47, 50
22, 483600, Note_on_c, 8, 50, 0
22, 483600, Note_on_c, 8, 47, 0
22, 483600, Note_on_c, 8, 47, 36
22, 483840, Note_on_c, 8, 47, 0
22, 483840, Note_on_c, 8, 50, 41
22, 483840, Note_on_c, 8, 47, 44
22, 484080, Note_on_c, 8, 50, 0
22, 484080, Note_on_c, 8, 47, 0
22, 484080, Note_on_c, 8, 47, 38
22, 484320, Note_on_c, 8, 47, 0
22, 484320, Note_on_c, 8, 50, 49
22, 484320, Note_on_c, 8, 47, 43
22, 484560, Note_on_c, 8, 50, 0
22, 484560, Note_on_c, 8, 47, 0
22, 484560, Note_on_c, 8, 46, 45
22, 484800, Note_on_c, 8, 46, 0
22, 484800, Note_on_c, 8, 50, 50
22, 484800, Note_on_c, 8, 46, 39
22, 485040, Note_on_c, 8, 50, 0
22, 485040, Note_on_c, 8, 46, 0
22, 485040, Note_on_c, 8, 46, 31
22, 485280, Note_on_c, 8, 46, 0
22, 485280, Note_on_c, 8, 50, 40
22, 485280, Note_on_c, 8, 46, 44
22, 485520, Note_on_c, 8, 50, 0
22, 485520, Note_on_c, 8, 46, 0
22, 485520, Note_on_c, 8, 46, 37
22, 485760, Note_on_c, 8, 46, 0
22, 485760, Note_on_c, 8, 50, 50
22, 485760, Note_on_c, 8, 46, 39
22, 486000, Note_on_c, 8, 50, 0
22, 486000, Note_on_c, 8, 46, 0
22, 486000, Note_on_c, 8, 46, 40
22, 486240, Note_on_c, 8, 46, 0
22, 486240, Note_on_c, 8, 50, 30
22, 486240, Note_on_c, 8, 46, 38
22, 486480, Note_on_c, 8, 50, 0
22, 486480, Note_on_c, 8, 46, 0
22, 486480, Note_on_c, 8, 46, 46
22, 486720, Note_on_c, 8, 46, 0
22, 486720, Note_on_c, 8, 50, 37
22, 486720, Note_on_c, 8, 46, 37
22, 486960, Note_on_c, 8, 50, 0
22, 486960, Note_on_c, 8, 46, 0
22, 488400, Note_on_c, 8, 46, 41
22, 488640, Note_on_c, 8, 46, 0
22, 488640, Note_on_c, 8, 50, 36
22, 488640, Note_on_c, 8, 46, 47
22, 488880, Note_on_c, 8, 50, 0
22, 488880, Note_on_c, 8, 46, 0
22, 488880, Note_on_c, 8, 46, 48
22, 489120, Note_on_c, 8, 46, 0
22, 489120, Note_on_c, 8, 50, 48
22, 489120, Note_on_c, 8, 46, 32
22, 489360, Note_on_c, 8, 50, 0
22, 489360, Note_on_c, 8, 46, 0
22, 491400, Note_on_c, 8, 50, 94
22, 491640, Note_on_c, 8, 50, 0
22, 494400, Note_on_c, 8, 50, 94
22, 494640, Note_on_c, 8, 50, 0
22, 495600, Note_on_c, 8, 50, 79
22, 495840, Note_on_c, 8, 50, 0
22, 498120, Note_on_c, 8, 50, 88
22, 498360, Note_on_c, 8, 50, 0
22, 499560, Note_on_c, 8, 50, 82
22, 499800, Note_on_c, 8, 50, 0
22, 499800, Note_on_c, 8, 53, 80
22, 500040, Note_on_c, 8, 53, 0
22, 500040, Note_on_c, 8, 50, 95
22, 500160, Note_on_c, 8, 50, 0
22, 500160, Note_on_c, 8, 53, 87
22, 500400, Note_on_c, 8, 53, 0
22, 500640, Note_on_c, 8, 50, 88
22, 500880, Note_on_c, 8, 50, 0
22, 500880, Note_on_c, 8, 53, 82
22, 501120, Note_on_c, 8, 53, 0
22, 501360, Note_on_c, 8, 50, 89
22, 501600, Note_on_c, 8, 50, 0
22, 501600, Note_on_c, 8, 53, 88
22, 501720, Note_on_c, 8, 53, 0
22, 501720, Note_on_c, 8, 50, 80
22, 501960, Note_on_c, 8, 50, 0
22, 501960, Note_on_c, 8, 53, 92
22, 502200, Note_on_c, 8, 53, 0
22, 502200, Note_on_c, 8, 50, 93
22, 502320, Note_on_c, 8, 50, 0
22, 502320, Note_on_c, 8, 53, 82
22, 502560, Note_on_c, 8, 53, 0
22, 502800, Note_on_c, 8, 50, 85
22, 503040, Note_on_c, 8, 50, 0
22, 503160, Note_on_c, 8, 53, 93
22, 503400, Note_on_c, 8, 53, 0
22, 503400, Note_on_c, 8, 50, 98
22, 503760, Note_on_c, 8, 50, 0
22, 504000, Note_on_c, 8, 53, 84
22, 504240, Note_on_c, 8, 53, 0
22, 515640, Note_on_c, 8, 53, 89
22, 515760, Note_on_c, 8, 53, 0
22, 515760, Note_on_c, 8, 50, 93
22, 515840, Note_on_c, 8, 50, 0
22, 515840, Note_on_c, 8, 45, 82
22, 515919, Note_on_c, 8, 45, 0
22, 515919, Note_on_c, 8, 41, 94
22, 515999, Note_on_c, 8, 41, 0
22, 551040, Note_on_c, 8, 49, 88
22, 551280, Note_on_c, 8, 49, 0
22, 551640, Note_on_c, 8, 49, 89
22, 551880, Note_on_c, 8, 49, 0
22, 554640, Note_on_c, 8, 49, 83
22, 554880, Note_on_c, 8, 49, 0
22, 555840, Note_on_c, 8, 49, 97
22, 556080, Note_on_c, 8, 49, 0
22, 558360, Note_on_c, 8, 49, 96
22, 558600, Note_on_c, 8, 49, 0
22, 559800, Note_on_c, 8, 49, 95
22, 560040, Note_on_c, 8, 49, 0
22, 560040, Note_on_c, 8, 52, 93
22, 560280, Note_on_c, 8, 52, 0
22, 560280, Note_on_c, 8, 49, 84
22, 560400, Note_on_c, 8, 49, 0
22, 560400, Note_on_c, 8, 52, 82
22, 560640, Note_on_c, 8, 52, 0
22, 560880, Note_on_c, 8, 49, 89
22, 561120, Note_on_c, 8, 49, 0
22, 561120, Note_on_c, 8, 52, 88
22, 561360, Note_on_c, 8, 52, 0
22, 561600, Note_on_c, 8, 49, 90
22, 561840, Note_on_c, 8, 49, 0
22, 561840, Note_on_c, 8, 52, 98
22, 561960, Note_on_c, 8, 52, 0
22, 561960, Note_on_c, 8, 49, 88
22, 562200, Note_on_c, 8, 49, 0
22, 562200, Note_on_c, 8, 52, 80
22, 562440, Note_on_c, 8, 52, 0
22, 562440, Note_on_c, 8, 49, 96
22, 562560, Note_on_c, 8, 49, 0
22, 562560, Note_on_c, 8, 52, 91
22, 562800, Note_on_c, 8, 52, 0
22, 563040, Note_on_c, 8, 49, 78
22, 563160, Note_on_c, 8, 49, 0
22, 563280, Note_on_c, 8, 52, 88
22, 563520, Note_on_c, 8, 52, 0
22, 563520, Note_on_c, 8, 49, 79
22, 563640, Note_on_c, 8, 49, 0
22, 563640, Note_on_c, 8, 52, 97
22, 563880, Note_on_c, 8, 52, 0
22, 564480, Note_on_c, 8, 51, 80
22, 564720, Note_on_c, 8, 51, 0
22, 564720, Note_on_c, 8, 41, 82
22, 564960, Note_on_c, 8, 41, 0
22, 564960, Note_on_c, 8, 46, 98
22, 565119, Note_on_c, 8, 46, 0
22, 565119, Note_on_c, 8, 53, 97
22, 565119, Note_on_c, 8, 41, 89
22, 565279, Note_on_c, 8, 53, 0
22, 565279, Note_on_c, 8, 41, 0
22, 565280, Note_on_c, 8, 46, 83
22, 565440, Note_on_c, 8, 46, 0
22, 565920, Note_on_c, 8, 46, 89
22, 566079, Note_on_c, 8, 46, 0
22, 566079, Note_on_c, 8, 41, 98
22, 566239, Note_on_c, 8, 41, 0
22, 566240, Note_on_c, 8, 46, 82
22, 566400, Note_on_c, 8, 46, 0
22, 566400, Note_on_c, 8, 53, 93
22, 566400, Note_on_c, 8, 41, 89
22, 566559, Note_on_c, 8, 53, 0
22, 566559, Note_on_c, 8, 41, 0
22, 566559, Note_on_c, 8, 58, 93
22, 566559, Note_on_c, 8, 46, 79
22, 566719, Note_on_c, 8, 58, 0
22, 566719, Note_on_c, 8, 46, 0
22, 566720, Note_on_c, 8, 53, 91
22, 566720, Note_on_c, 8, 41, 82
22, 566880, Note_on_c, 8, 53, 0
22, 566880, Note_on_c, 8, 41, 0
22, 566880, Note_on_c, 8, 51, 92
22, 567120, Note_on_c, 8, 51, 0
22, 567120, Note_on_c, 8, 41, 84
22, 567360, Note_on_c, 8, 41, 0
22, 567360, Note_on_c, 8, 46, 94
22, 567519, Note_on_c, 8, 46, 0
22, 567519, Note_on_c, 8, 53, 83
22, 567519, Note_on_c, 8, 41, 98
22, 567679, Note_on_c, 8, 53, 0
22, 567679, Note_on_c, 8, 41, 0
22, 567680, Note_on_c, 8, 46, 87
22, 567840, Note_on_c, 8, 46, 0
22, 568320, Note_on_c, 8, 51, 90
22, 568560, Note_on_c, 8, 51, 0
22, 568560, Note_on_c, 8, 41, 92
22, 568800, Note_on_c, 8, 41, 0
22, 568800, Note_on_c, 8, 46, 81
22, 568959, Note_on_c, 8, 46, 0
22, 568959, Note_on_c, 8, 53, 97
22, 568959, Note_on_c, 8, 41, 83
22, 569119, Note_on_c, 8, 53, 0
22, 569119, Note_on_c, 8, 41, 0
22, 569120, Note_on_c, 8, 46, 88
22, 569280, Note_on_c, 8, 46, 0
22, 569760, Note_on_c, 8, 46, 95
22, 569919, Note_on_c, 8, 46, 0
22, 569919, Note_on_c, 8, 41, 85
22, 570079, Note_on_c, 8, 41, 0
22, 570080, Note_on_c, 8, 46, 95
22, 570240, Note_on_c, 8, 46, 0
22, 570240, Note_on_c, 8, 53, 90
22, 570240, Note_on_c, 8, 41, 94
22, 570399, Note_on_c, 8, 53, 0
22, 570399, Note_on_c, 8, 41, 0
22, 570399, Note_on_c, 8, 58, 88
22, 570399, Note_on_c, 8, 46, 95
22, 570559, Note_on_c, 8, 58, 0
22, 570559, Note_on_c, 8, 46, 0
22, 570560, Note_on_c, 8, 53, 87
22, 570560, Note_on_c, 8, 41, 86
22, 570720, Note_on_c, 8, 53, 0
22, 570720, Note_on_c, 8, 41, 0
22, 570720, Note_on_c, 8, 51, 90
22, 570960, Note_on_c, 8, 51, 0
22, 570960, Note_on_c, 8, 41, 94
22, 571200, Note_on_c, 8, 41, 0
22, 571200, Note_on_c, 8, 46, 84
22, 571359, Note_on_c, 8, 46, 0
22, 571359, Note_on_c, 8, 53, 94
22, 571359, Note_on_c, 8, 41, 82
22, 571519, Note_on_c, 8, 53, 0
22, 571519, Note_on_c, 8, 41, 0
22, 571520, Note_on_c, 8, 46, 93
22, 571680, Note_on_c, 8, 46, 0
22, 572160, Note_on_c, 8, 51, 91
22, 572400, Note_on_c, 8, 51, 0
22, 572400, Note_on_c, 8, 41, 84
22, 572640, Note_on_c, 8, 41, 0
22, 572640, Note_on_c, 8, 46, 87
22, 572799, Note_on_c, 8, 46, 0
22, 572799, Note_on_c, 8, 53, 85
22, 572799, Note_on_c, 8, 41, 93
22, 572959, Note_on_c, 8, 53, 0
22, 572959, Note_on_c, 8, 41, 0
22, 572960, Note_on_c, 8, 46, 95
22, 573120, Note_on_c, 8, 46, 0
22, 573600, Note_on_c, 8, 46, 95
22, 573759, Note_on_c, 8, 46, 0
22, 573759, Note_on_c, 8, 41, 82
22, 573919, Note_on_c, 8, 41, 0
22, 573920, Note_on_c, 8, 46, 80
22, 574080, Note_on_c, 8, 46, 0
22, 574080, Note_on_c, 8, 53, 79
22, 574080, Note_on_c, 8, 41, 91
22, 574239, Note_on_c, 8, 53, 0
22, 574239, Note_on_c, 8, 41, 0
22, 574239, Note_on_c, 8, 58, 96
22, 574239, Note_on_c, 8, 46, 84
22, 574399, Note_on_c, 8, 58, 0
22, 574399, Note_on_c, 8, 46, 0
22, 574400, Note_on_c, 8, 53, 94
22, 574400, Note_on_c, 8, 41, 80
22, 574560, Note_on_c, 8, 53, 0
22, 574560, Note_on_c, 8, 41, 0
22, 574560, Note_on_c, 8, 51, 86
22, 574800, Note_on_c, 8, 51, 0
22, 574800, Note_on_c, 8, 41, 89
22, 575040, Note_on_c, 8, 41, 0
22, 575040, Note_on_c, 8, 46, 92
22, 575199, Note_on_c, 8, 46, 0
22, 575199, Note_on_c, 8, 53, 91
22, 575199, Note_on_c, 8, 41, 89
22, 575359, Note_on_c, 8, 53, 0
22, 575359, Note_on_c, 8, 41, 0
22, 575360, Note_on_c, 8, 46, 87
22, 575520, Note_on_c, 8, 46, 0
22, 576000, Note_on_c, 8, 53, 87
22, 576000, Note_on_c, 8, 41, 80
22, 576159, Note_on_c, 8, 53, 0
22, 576159, Note_on_c, 8, 41, 0
22, 576159, Note_on_c, 8, 58, 98
22, 576159, Note_on_c, 8, 46, 80
22, 576319, Note_on_c, 8, 58, 0
22, 576319, Note_on_c, 8, 46, 0
22, 576320, Note_on_c, 8, 53, 89
22, 576320, Note_on_c, 8, 41, 81
22, 576480, Note_on_c, 8, 53, 0
22, 576480, Note_on_c, 8, 41, 0
22, 576480, Note_on_c, 8, 51, 80
22, 576720, Note_on_c, 8, 51, 0
22, 576720, Note_on_c, 8, 41, 98
22, 576960, Note_on_c, 8, 41, 0
22, 576960, Note_on_c, 8, 46, 93
22, 577119, Note_on_c, 8, 46, 0
22, 577119, Note_on_c, 8, 53, 81
22, 577119, Note_on_c, 8, 41, 84
22, 577279, Note_on_c, 8, 53, 0
22, 577279, Note_on_c, 8, 41, 0
22, 577280, Note_on_c, 8, 46, 92
22, 577440, Note_on_c, 8, 46, 0
22, 577920, Note_on_c, 8, 46, 80
22, 578079, Note_on_c, 8, 46, 0
22, 578079, Note_on_c, 8, 41, 86
22, 578239, Note_on_c, 8, 41, 0
22, 578240, Note_on_c, 8, 46, 97
22, 578400, Note_on_c, 8, 46, 0
22, 578400, Note_on_c, 8, 53, 90
22, 578400, Note_on_c, 8, 41, 84
22, 578559, Note_on_c, 8, 53, 0
22, 578559, Note_on_c, 8, 41, 0
22, 578559, Note_on_c, 8, 58, 87
22, 578559, Note_on_c, 8, 46, 94
22, 578719, Note_on_c, 8, 58, 0
22, 578719, Note_on_c, 8, 46, 0
22, 578720, Note_on_c, 8, 53, 87
22, 578720, Note_on_c, 8, 41, 98
22, 578880, Note_on_c, 8, 53, 0
22, 578880, Note_on_c, 8, 41, 0
22, 578880, Note_on_c, 8, 51, 87
22, 579120, Note_on_c, 8, 51, 0
22, 579120, Note_on_c, 8, 41, 79
22, 579360, Note_on_c, 8, 41, 0
22, 579360, Note_on_c, 8, 46, 93
22, 579519, Note_on_c, 8, 46, 0
22, 579519, Note_on_c, 8, 53, 95
22, 579519, Note_on_c, 8, 41, 92
22, 579679, Note_on_c, 8, 53, 0
22, 579679, Note_on_c, 8, 41, 0
22, 579680, Note_on_c, 8, 46, 94
22, 579840, Note_on_c, 8, 46, 0
22, 580320, Note_on_c, 8, 46, 97
22, 580479, Note_on_c, 8, 46, 0
22, 580479, Note_on_c, 8, 41, 88
22, 580639, Note_on_c, 8, 41, 0
22, 580640, Note_on_c, 8, 46, 97
22, 580800, Note_on_c, 8, 46, 0
22, 580800, Note_on_c, 8, 53, 86
22, 580800, Note_on_c, 8, 41, 93
22, 580959, Note_on_c, 8, 53, 0
22, 580959, Note_on_c, 8, 41, 0
22, 580959, Note_on_c, 8, 58, 88
22, 580959, Note_on_c, 8, 46, 89
22, 581119, Note_on_c, 8, 58, 0
22, 581119, Note_on_c, 8, 46, 0
22, 581120, Note_on_c, 8, 53, 93
22, 581120, Note_on_c, 8, 41, 82
22, 581280, Note_on_c, 8, 53, 0
22, 581280, Note_on_c, 8, 41, 0
22, 581280, Note_on_c, 8, 51, 84
22, 581520, Note_on_c, 8, 51, 0
22, 581520, Note_on_c, 8, 41, 83
22, 581760, Note_on_c, 8, 41, 0
22, 581760, Note_on_c, 8, 46, 82
22, 581919, Note_on_c, 8, 46, 0
22, 581919, Note_on_c, 8, 53, 92
22, 581919, Note_on_c, 8, 41, 93
22, 582079, Note_on_c, 8, 53, 0
22, 582079, Note_on_c, 8, 41, 0
22, 582080, Note_on_c, 8, 46, 96
22, 582240, Note_on_c, 8, 46, 0
22, 582720, Note_on_c, 8, 53, 79
22, 582720, Note_on_c, 8, 41, 95
22, 582879, Note_on_c, 8, 53, 0
22, 582879, Note_on_c, 8, 41, 0
22, 582879, Note_on_c, 8, 58, 85
22, 582879, Note_on_c, 8, 46, 94
22, 583039, Note_on_c, 8, 58, 0
22, 583039, Note_on_c, 8, 46, 0
22, 583040, Note_on_c, 8, 53, 96
22, 583040, Note_on_c, 8, 41, 97
22, 583200, Note_on_c, 8, 53, 0
22, 583200, Note_on_c, 8, 41, 0
22, 583200, Note_on_c, 8, 51, 80
22, 583440, Note_on_c, 8, 51, 0
22, 583440, Note_on_c, 8, 41, 83
22, 583680, Note_on_c, 8, 41, 0
22, 583680, Note_on_c, 8, 46, 86
22, 583839, Note_on_c, 8, 46, 0
22, 583839, Note_on_c, 8, 53, 93
22, 583839, Note_on_c, 8, 41, 96
22, 583999, Note_on_c, 8, 53, 0
22, 583999, Note_on_c, 8, 41, 0
22, 584000, Note_on_c, 8, 46, 94
22, 584160, Note_on_c, 8, 46, 0
22, 584640, Note_on_c, 8, 53, 92
22, 584640, Note_on_c, 8, 41, 87
22, 584799, Note_on_c, 8, 53, 0
22, 584799, Note_on_c, 8, 41, 0
22, 584799, Note_on_c, 8, 58, 96
22, 584799, Note_on_c, 8, 46, 83
22, 584959, Note_on_c, 8, 58, 0
22, 584959, Note_on_c, 8, 46, 0
22, 584960, Note_on_c, 8, 53, 94
22, 584960, Note_on_c, 8, 41, 82
22, 585120, Note_on_c, 8, 53, 0
22, 585120, Note_on_c, 8, 41, 0
22, 585120, Note_on_c, 8, 51, 85
22, 585360, Note_on_c, 8, 51, 0
22, 585360, Note_on_c, 8, 41, 91
22, 585600, Note_on_c, 8, 41, 0
22, 585600, Note_on_c, 8, 46, 96
22, 585759, Note_on_c, 8, 46, 0
22, 585759, Note_on_c, 8, 53, 87
22, 585759, Note_on_c, 8, 41, 86
22, 585919, Note_on_c, 8, 53, 0
22, 585919, Note_on_c, 8, 41, 0
22, 585920, Note_on_c, 8, 46, 78
22, 586080, Note_on_c, 8, 46, 0
22, 586560, Note_on_c, 8, 53, 91
22, 586560, Note_on_c, 8, 41, 95
22, 586719, Note_on_c, 8, 53, 0
22, 586719, Note_on_c, 8, 41, 0
22, 586719, Note_on_c, 8, 58, 94
22, 586719, Note_on_c, 8, 46, 92
22, 586879, Note_on_c, 8, 58, 0
22, 586879, Note_on_c, 8, 46, 0
22, 586880, Note_on_c, 8, 53, 80
22, 586880, Note_on_c, 8, 41, 92
22, 587040, Note_on_c, 8, 53, 0
22, 587040, Note_on_c, 8, 41, 0
22, 587040, Note_on_c, 8, 51, 98
22, 587280, Note_on_c, 8, 51, 0
22, 587280, Note_on_c, 8, 41, 97
22, 587520, Note_on_c, 8, 41, 0
22, 587520, Note_on_c, 8, 46, 89
22, 587679, Note_on_c, 8, 46, 0
22, 587679, Note_on_c, 8, 53, 87
22, 587679, Note_on_c, 8, 41, 90
22, 587839, Note_on_c, 8, 53, 0
22, 587839, Note_on_c, 8, 41, 0
22, 587840, Note_on_c, 8, 46, 89
22, 588000, Note_on_c, 8, 46, 0
22, 588480, Note_on_c, 8, 51, 78
22, 588720, Note_on_c, 8, 51, 0
22, 588720, Note_on_c, 8, 41, 97
22, 588960, Note_on_c, 8, 41, 0
22, 588960, Note_on_c, 8, 46, 87
22, 589119, Note_on_c, 8, 46, 0
22, 589119, Note_on_c, 8, 53, 88
22, 589119, Note_on_c, 8, 41, 85
22, 589279, Note_on_c, 8, 53, 0
22, 589279, Note_on_c, 8, 41, 0
22, 589280, Note_on_c, 8, 46, 96
22, 589440, Note_on_c, 8, 46, 0
22, 589920, Note_on_c, 8, 46, 82
22, 590079, Note_on_c, 8, 46, 0
22, 590079, Note_on_c, 8, 41, 88
22, 590239, Note_on_c, 8, 41, 0
22, 590240, Note_on_c, 8, 46, 89
22, 590400, Note_on_c, 8, 46, 0
22, 590400, Note_on_c, 8, 53, 91
22, 590400, Note_on_c, 8, 41, 88
22, 590559, Note_on_c, 8, 53, 0
22, 590559, Note_on_c, 8, 41, 0
22, 590559, Note_on_c, 8, 58, 90
22, 590559, Note_on_c, 8, 46, 93
22, 590719, Note_on_c, 8, 58, 0
22, 590719, Note_on_c, 8, 46, 0
22, 590720, Note_on_c, 8, 53, 83
22, 590720, Note_on_c, 8, 41, 89
22, 590880, Note_on_c, 8, 53, 0
22, 590880, Note_on_c, 8, 41, 0
22, 590880, Note_on_c, 8, 51, 86
22, 591120, Note_on_c, 8, 51, 0
22, 591120, Note_on_c, 8, 41, 95
22, 591360, Note_on_c, 8, 41, 0
22, 591360, Note_on_c, 8, 53, 86
22, 591360, Note_on_c, 8, 41, 79
22, 591519, Note_on_c, 8, 53, 0
22, 591519, Note_on_c, 8, 41, 0
22, 591519, Note_on_c, 8, 58, 88
22, 591519, Note_on_c, 8, 46, 94
22, 591679, Note_on_c, 8, 58, 0
22, 591679, Note_on_c, 8, 46, 0
22, 591680, Note_on_c, 8, 53, 98
22, 591680, Note_on_c, 8, 41, 80
22, 591840, Note_on_c, 8, 53, 0
22, 591840, Note_on_c, 8, 41, 0
22, 592320, Note_on_c, 8, 46, 85
22, 592479, Note_on_c, 8, 46, 0
22, 592479, Note_on_c, 8, 41, 91
22, 592639, Note_on_c, 8, 41, 0
22, 592640, Note_on_c, 8, 46, 90
22, 592800, Note_on_c, 8, 46, 0
22, 592800, Note_on_c, 8, 53, 83
22, 592800, Note_on_c, 8, 41, 81
22, 592959, Note_on_c, 8, 53, 0
22, 592959, Note_on_c, 8, 41, 0
22, 592959, Note_on_c, 8, 58, 79
22, 592959, Note_on_c, 8, 46, 84
22, 593119, Note_on_c, 8, 58, 0
22, 593119, Note_on_c, 8, 46, 0
22, 593120, Note_on_c, 8, 53, 97
22, 593120, Note_on_c, 8, 41, 82
22, 593280, Note_on_c, 8, 53, 0
22, 593280, Note_on_c, 8, 41, 0
22, 593280, Note_on_c, 8, 51, 91
22, 593520, Note_on_c, 8, 51, 0
22, 593520, Note_on_c, 8, 41, 95
22, 593760, Note_on_c, 8, 41, 0
22, 593760, Note_on_c, 8, 46, 81
22, 593919, Note_on_c, 8, 46, 0
22, 593919, Note_on_c, 8, 53, 86
22, 593919, Note_on_c, 8, 41, 89
22, 594079, Note_on_c, 8, 53, 0
22, 594079, Note_on_c, 8, 41, 0
22, 594080, Note_on_c, 8, 46, 79
22, 594240, Note_on_c, 8, 46, 0
22, 594720, Note_on_c, 8, 46, 80
22, 594879, Note_on_c, 8, 46, 0
22, 594879, Note_on_c, 8, 41, 96
22, 595039, Note_on_c, 8, 41, 0
22, 595040, Note_on_c, 8, 46, 87
22, 595200, Note_on_c, 8, 46, 0
22, 595200, Note_on_c, 8, 53, 89
22, 595200, Note_on_c, 8, 41, 95
22, 595359, Note_on_c, 8, 53, 0
22, 595359, Note_on_c, 8, 41, 0
22, 595359, Note_on_c, 8, 58, 87
22, 595359, Note_on_c, 8, 46, 78
22, 595519, Note_on_c, 8, 58, 0
22, 595519, Note_on_c, 8, 46, 0
22, 595520, Note_on_c, 8, 53, 93
22, 595520, Note_on_c, 8, 41, 93
22, 595680, Note_on_c, 8, 53, 0
22, 595680, Note_on_c, 8, 41, 0
22, 595680, Note_on_c, 8, 51, 89
22, 595920, Note_on_c, 8, 51, 0
22, 595920, Note_on_c, 8, 41, 79
22, 596160, Note_on_c, 8, 41, 0
22, 596160, Note_on_c, 8, 46, 79
22, 596319, Note_on_c, 8, 46, 0
22, 596319, Note_on_c, 8, 53, 94
22, 596319, Note_on_c, 8, 41, 88
22, 596479, Note_on_c, 8, 53, 0
22, 596479, Note_on_c, 8, 41, 0
22, 596480, Note_on_c, 8, 46, 90
22, 596640, Note_on_c, 8, 46, 0
22, 597120, Note_on_c, 8, 46, 92
22, 597279, Note_on_c, 8, 46, 0
22, 597279, Note_on_c, 8, 41, 85
22, 597439, Note_on_c, 8, 41, 0
22, 597440, Note_on_c, 8, 46, 91
22, 597600, Note_on_c, 8, 46, 0
22, 597600, Note_on_c, 8, 53, 95
22, 597600, Note_on_c, 8, 41, 80
22, 597759, Note_on_c, 8, 53, 0
22, 597759, Note_on_c, 8, 41, 0
22, 597759, Note_on_c, 8, 58, 83
22, 597759, Note_on_c, 8, 46, 81
22, 597919, Note_on_c, 8, 58, 0
22, 597919, Note_on_c, 8, 46, 0
22, 597920, Note_on_c, 8, 53, 85
22, 597920, Note_on_c, 8, 41, 93
22, 598080, Note_on_c, 8, 53, 0
22, 598080, Note_on_c, 8, 41, 0
22, 598080, Note_on_c, 8, 51, 83
22, 598320, Note_on_c, 8, 51, 0
22, 598320, Note_on_c, 8, 41, 78
22, 598560, Note_on_c, 8, 41, 0
22, 598560, Note_on_c, 8, 46, 81
22, 598719, Note_on_c, 8, 46, 0
22, 598719, Note_on_c, 8, 53, 86
22, 598719, Note_on_c, 8, 41, 86
22, 598879, Note_on_c, 8, 53, 0
22, 598879, Note_on_c, 8, 41, 0
22, 598880, Note_on_c, 8, 46, 82
22, 599040, Note_on_c, 8, 46, 0
22, 599520, Note_on_c, 8, 46, 93
22, 599679, Note_on_c, 8, 46, 0
22, 599679, Note_on_c, 8, 41, 89
22, 599839, Note_on_c, 8, 41, 0
22, 599840, Note_on_c, 8, 46, 85
22, 600000, Note_on_c, 8, 46, 0
22, 600000, Note_on_c, 8, 53, 82
22, 600000, Note_on_c, 8, 41, 79
22, 600159, Note_on_c, 8, 53, 0
22, 600159, Note_on_c, 8, 41, 0
22, 600159, Note_on_c, 8, 58, 90
22, 600159, Note_on_c, 8, 46, 94
22, 600319, Note_on_c, 8, 58, 0
22, 600319, Note_on_c, 8, 46, 0
22, 600320, Note_on_c, 8, 53, 96
22, 600320, Note_on_c, 8, 41, 81
22, 600480, Note_on_c, 8, 53, 0
22, 600480, Note_on_c, 8, 41, 0
22, 600480, Note_on_c, 8, 51, 83
22, 600720, Note_on_c, 8, 51, 0
22, 600720, Note_on_c, 8, 41, 88
22, 600960, Note_on_c, 8, 41, 0
22, 600960, Note_on_c, 8, 46, 87
22, 601119, Note_on_c, 8, 46, 0
22, 601119, Note_on_c, 8, 53, 80
22, 601119, Note_on_c, 8, 41, 95
22, 601279, Note_on_c, 8, 53, 0
22, 601279, Note_on_c, 8, 41, 0
22, 601280, Note_on_c, 8, 46, 86
22, 601440, Note_on_c, 8, 46, 0
22, 604680, Note_on_c, 8, 51, 88
22, 604920, Note_on_c, 8, 51, 0
22, 604920, Note_on_c, 8, 41, 84
22, 605160, Note_on_c, 8, 41, 0
22, 605160, Note_on_c, 8, 46, 79
22, 605319, Note_on_c, 8, 46, 0
22, 605319, Note_on_c, 8, 53, 98
22, 605319, Note_on_c, 8, 41, 88
22, 605479, Note_on_c, 8, 53, 0
22, 605479, Note_on_c, 8, 41, 0
22, 605480, Note_on_c, 8, 46, 88
22, 605640, Note_on_c, 8, 46, 0
22, 606120, Note_on_c, 8, 46, 92
22, 606279, Note_on_c, 8, 46, 0
22, 606279, Note_on_c, 8, 41, 81
22, 606439, Note_on_c, 8, 41, 0
22, 606440, Note_on_c, 8, 46, 93
22, 606600, Note_on_c, 8, 46, 0
22, 606600, Note_on_c, 8, 53, 86
22, 606600, Note_on_c, 8, 41, 93
22, 606759, Note_on_c, 8, 53, 0
22, 606759, Note_on_c, 8, 41, 0
22, 606759, Note_on_c, 8, 58, 88
22, 606759, Note_on_c, 8, 46, 97
22, 606919, Note_on_c, 8, 58, 0
22, 606919, Note_on_c, 8, 46, 0
22, 606920, Note_on_c, 8, 53, 81
22, 606920, Note_on_c, 8, 41, 83
22, 607080, Note_on_c, 8, 53, 0
22, 607080, Note_on_c, 8, 41, 0
22, 607080, Note_on_c, 8, 51, 93
22, 607320, Note_on_c, 8, 51, 0
22, 607320, Note_on_c, 8, 41, 97
22, 607560, Note_on_c, 8, 41, 0
22, 607560, Note_on_c, 8, 46, 80
22, 607719, Note_on_c, 8, 46, 0
22, 607719, Note_on_c, 8, 53, 83
22, 607719, Note_on_c, 8, 41, 96
22, 607879, Note_on_c, 8, 53, 0
22, 607879, Note_on_c, 8, 41, 0
22, 607880, Note_on_c, 8, 46, 93
22, 608040, Note_on_c, 8, 46, 0
22, 608520, Note_on_c, 8, 46, 80
22, 608679, Note_on_c, 8, 46, 0
22, 608679, Note_on_c, 8, 41, 86
22, 608839, Note_on_c, 8, 41, 0
22, 608840, Note_on_c, 8, 46, 92
22, 609000, Note_on_c, 8, 46, 0
22, 609000, Note_on_c, 8, 53, 95
22, 609000, Note_on_c, 8, 41, 97
22, 609159, Note_on_c, 8, 53, 0
22, 609159, Note_on_c, 8, 41, 0
22, 609159, Note_on_c, 8, 58, 85
22, 609159, Note_on_c, 8, 46, 94
22, 609319, Note_on_c, 8, 58, 0
22, 609319, Note_on_c, 8, 46, 0
22, 609320, Note_on_c, 8, 53, 94
22, 609320, Note_on_c, 8, 41, 86
22, 609480, Note_on_c, 8, 53, 0
22, 609480, Note_on_c, 8, 41, 0
22, 609480, Note_on_c, 8, 51, 96
22, 609720, Note_on_c, 8, 51, 0
22, 609720, Note_on_c, 8, 41, 89
22, 609960, Note_on_c, 8, 41, 0
22, 609960, Note_on_c, 8, 46, 94
22, 610119, Note_on_c, 8, 46, 0
22, 610119, Note_on_c, 8, 53, 82
22, 610119, Note_on_c, 8, 41, 96
22, 610279, Note_on_c, 8, 53, 0
22, 610279, Note_on_c, 8, 41, 0
22, 610280, Note_on_c, 8, 46, 95
22, 610440, Note_on_c, 8, 46, 0
22, 610920, Note_on_c, 8, 46, 87
22, 611079, Note_on_c, 8, 46, 0
22, 611079, Note_on_c, 8, 41, 85
22, 611239, Note_on_c, 8, 41, 0
22, 611240, Note_on_c, 8, 46, 94
22, 611400, Note_on_c, 8, 46, 0
22, 611400, Note_on_c, 8, 53, 82
22, 611400, Note_on_c, 8, 41, 78
22, 611559, Note_on_c, 8, 53, 0
22, 611559, Note_on_c, 8, 41, 0
22, 611559, Note_on_c, 8, 58, 79
22, 611559, Note_on_c, 8, 46, 82
22, 611719, Note_on_c, 8, 58, 0
22, 611719, Note_on_c, 8, 46, 0
22, 611720, Note_on_c, 8, 53, 83
22, 611720, Note_on_c, 8, 41, 98
22, 611880, Note_on_c, 8, 53, 0
22, 611880, Note_on_c, 8, 41, 0
22, 611880, Note_on_c, 8, 51, 94
22, 612120, Note_on_c, 8, 51, 0
22, 612120, Note_on_c, 8, 41, 96
22, 612360, Note_on_c, 8, 41, 0
22, 612360, Note_on_c, 8, 46, 80
22, 612519, Note_on_c, 8, 46, 0
22, 612519, Note_on_c, 8, 53, 82
22, 612519, Note_on_c, 8, 41, 84
22, 612679, Note_on_c, 8, 53, 0
22, 612679, Note_on_c, 8, 41, 0
22, 612680, Note_on_c, 8, 46, 79
22, 612840, Note_on_c, 8, 46, 0
22, 613320, Note_on_c, 8, 46, 81
22, 613479, Note_on_c, 8, 46, 0
22, 613479, Note_on_c, 8, 41, 81
22, 613639, Note_on_c, 8, 41, 0
22, 613640, Note_on_c, 8, 46, 94
22, 613800, Note_on_c, 8, 46, 0
22, 613800, Note_on_c, 8, 53, 80
22, 613800, Note_on_c, 8, 41, 80
22, 613959, Note_on_c, 8, 53, 0
22, 613959, Note_on_c, 8, 41, 0
22, 613959, Note_on_c, 8, 58, 94
22, 613959, Note_on_c, 8, 46, 84
22, 614119, Note_on_c, 8, 58, 0
22, 614119, Note_on_c, 8, 46, 0
22, 614120, Note_on_c, 8, 53, 85
22, 614120, Note_on_c, 8, 41, 93
22, 614280, Note_on_c, 8, 53, 0
22, 614280, Note_on_c, 8, 41, 0
22, 614280, Note_on_c, 8, 51, 97
22, 614520, Note_on_c, 8, 51, 0
22, 614520, Note_on_c, 8, 41, 95
22, 614760, Note_on_c, 8, 41, 0
22, 614760, Note_on_c, 8, 46, 85
22, 614919, Note_on_c, 8, 46, 0
22, 614919, Note_on_c, 8, 53, 91
22, 614919, Note_on_c, 8, 41, 89
22, 615079, Note_on_c, 8, 53, 0
22, 615079, Note_on_c, 8, 41, 0
22, 615080, Note_on_c, 8, 46, 87
22, 615240, Note_on_c, 8, 46, 0
22, 615720, Note_on_c, 8, 46, 95
22, 615879, Note_on_c, 8, 46, 0
22, 615879, Note_on_c, 8, 41, 88
22, 616039, Note_on_c, 8, 41, 0
22, 616040, Note_on_c, 8, 46, 96
22, 616200, Note_on_c, 8, 46, 0
22, 616200, Note_on_c, 8, 53, 82
22, 616200, Note_on_c, 8, 41, 89
22, 616359, Note_on_c, 8, 53, 0
22, 616359, Note_on_c, 8, 41, 0
22, 616359, Note_on_c, 8, 58, 80
22, 616359, Note_on_c, 8, 46, 95
22, 616519, Note_on_c, 8, 58, 0
22, 616519, Note_on_c, 8, 46, 0
22, 616520, Note_on_c, 8, 53, 82
22, 616520, Note_on_c, 8, 41, 86
22, 616680, Note_on_c, 8, 53, 0
22, 616680, Note_on_c, 8, 41, 0
22, 616680, Note_on_c, 8, 51, 78
22, 616920, Note_on_c, 8, 51, 0
22, 616920, Note_on_c, 8, 41, 78
22, 617160, Note_on_c, 8, 41, 0
22, 617160, Note_on_c, 8, 46, 98
22, 617319, Note_on_c, 8, 46, 0
22, 617319, Note_on_c, 8, 53, 82
22, 617319, Note_on_c, 8, 41, 87
22, 617479, Note_on_c, 8, 53, 0
22, 617479, Note_on_c, 8, 41, 0
22, 617480, Note_on_c, 8, 46, 94
22, 617640, Note_on_c, 8, 46, 0
22, 618120, Note_on_c, 8, 46, 84
22, 618279, Note_on_c, 8, 46, 0
22, 618279, Note_on_c, 8, 41, 88
22, 618439, Note_on_c, 8, 41, 0
22, 618440, Note_on_c, 8, 46, 85
22, 618600, Note_on_c, 8, 46, 0
22, 618600, Note_on_c, 8, 53, 92
22, 618600, Note_on_c, 8, 41, 78
22, 618759, Note_on_c, 8, 53, 0
22, 618759, Note_on_c, 8, 41, 0
22, 618759, Note_on_c, 8, 58, 92
22, 618759, Note_on_c, 8, 46, 87
22, 618919, Note_on_c, 8, 58, 0
22, 618919, Note_on_c, 8, 46, 0
22, 618920, Note_on_c, 8, 53, 96
22, 618920, Note_on_c, 8, 41, 90
22, 619080, Note_on_c, 8, 53, 0
22, 619080, Note_on_c, 8, 41, 0
22, 619080, Note_on_c, 8, 51, 83
22, 619320, Note_on_c, 8, 51, 0
22, 619320, Note_on_c, 8, 41, 91
22, 619560, Note_on_c, 8, 41, 0
22, 619560, Note_on_c, 8, 46, 87
22, 619575, Note_on_c, 8, 46, 0
22, 619719, Note_on_c, 8, 53, 88
22, 619719, Note_on_c, 8, 41, 97
22, 619734, Note_on_c, 8, 53, 0
22, 619734, Note_on_c, 8, 41, 0
22, 619880, Note_on_c, 8, 46, 83
22, 619895, Note_on_c, 8, 46, 0
22, 620520, Note_on_c, 8, 46, 93
22, 620679, Note_on_c, 8, 46, 0
22, 620679, Note_on_c, 8, 41, 89
22, 620839, Note_on_c, 8, 41, 0
22, 620840, Note_on_c, 8, 46, 84
22, 621000, Note_on_c, 8, 46, 0
22, 621000, Note_on_c, 8, 53, 85
22, 621000, Note_on_c, 8, 41, 92
22, 621159, Note_on_c, 8, 53, 0
22, 621159, Note_on_c, 8, 41, 0
22, 621159, Note_on_c, 8, 58, 81
22, 621159, Note_on_c, 8, 46, 94
22, 621319, Note_on_c, 8, 58, 0
22, 621319, Note_on_c, 8, 46, 0
22, 621320, Note_on_c, 8, 53, 89
22, 621320, Note_on_c, 8, 41, 90
22, 621480, Note_on_c, 8, 53, 0
22, 621480, Note_on_c, 8, 41, 0
22, 621480, Note_on_c, 8, 51, 84
22, 621720, Note_on_c, 8, 51, 0
22, 621720, Note_on_c, 8, 41, 85
22, 621960, Note_on_c, 8, 41, 0
22, 621960, Note_on_c, 8, 46, 98
22, 621975, Note_on_c, 8, 46, 0
22, 622119, Note_on_c, 8, 53, 91
22, 622119, Note_on_c, 8, 41, 92
22, 622134, Note_on_c, 8, 53, 0
22, 622134, Note_on_c, 8, 41, 0
22, 622280, Note_on_c, 8, 46, 87
22, 622295, Note_on_c, 8, 46, 0
22, 622920, Note_on_c, 8, 46, 90
22, 623079, Note_on_c, 8, 46, 0
22, 623079, Note_on_c, 8, 41, 92
22, 623239, Note_on_c, 8, 41, 0
22, 623240, Note_on_c, 8, 46, 83
22, 623400, Note_on_c, 8, 46, 0
22, 623400, Note_on_c, 8, 53, 78
22, 623400, Note_on_c, 8, 41, 96
22, 623559, Note_on_c, 8, 53, 0
22, 623559, Note_on_c, 8, 41, 0
22, 623559, Note_on_c, 8, 58, 81
22, 623559, Note_on_c, 8, 46, 97
22, 623719, Note_on_c, 8, 58, 0
22, 623719, Note_on_c, 8, 46, 0
22, 623720, Note_on_c, 8, 53, 78
22, 623720, Note_on_c, 8, 41, 92
22, 623880, Note_on_c, 8, 53, 0
22, 623880, Note_on_c, 8, 41, 0
22, 623880, Note_on_c, 8, 51, 88
22, 624120, Note_on_c, 8, 51, 0
22, 624120, Note_on_c, 8, 41, 91
22, 624360, Note_on_c, 8, 41, 0
22, 624360, Note_on_c, 8, 46, 98
22, 624375, Note_on_c, 8, 46, 0
22, 624519, Note_on_c, 8, 53, 90
22, 624519, Note_on_c, 8, 41, 86
22, 624534, Note_on_c, 8, 53, 0
22, 624534, Note_on_c, 8, 41, 0
22, 624680, Note_on_c, 8, 46, 81
22, 624695, Note_on_c, 8, 46, 0
22, 625320, Note_on_c, 8, 46, 91
22, 625479, Note_on_c, 8, 46, 0
22, 625479, Note_on_c, 8, 41, 85
22, 625639, Note_on_c, 8, 41, 0
22, 625640, Note_on_c, 8, 46, 80
22, 625800, Note_on_c, 8, 46, 0
22, 625800, Note_on_c, 8, 53, 83
22, 625800, Note_on_c, 8, 41, 96
22, 625959, Note_on_c, 8, 53, 0
22, 625959, Note_on_c, 8, 41, 0
22, 625959, Note_on_c, 8, 58, 96
22, 625959, Note_on_c, 8, 46, 79
22, 626119, Note_on_c, 8, 58, 0
22, 626119, Note_on_c, 8, 46, 0
22, 626120, Note_on_c, 8, 53, 89
22, 626120, Note_on_c, 8, 41, 78
22, 626280, Note_on_c, 8, 53, 0
22, 626280, Note_on_c, 8, 41, 0
22, 626280, Note_on_c, 8, 51, 86
22, 626520, Note_on_c, 8, 51, 0
22, 626520, Note_on_c, 8, 41, 86
22, 626760, Note_on_c, 8, 41, 0
22, 626760, Note_on_c, 8, 46, 86
22, 626775, Note_on_c, 8, 46, 0
22, 626919, Note_on_c, 8, 53, 86
22, 626919, Note_on_c, 8, 41, 97
22, 626934, Note_on_c, 8, 53, 0
22, 626934, Note_on_c, 8, 41, 0
22, 627080, Note_on_c, 8, 46, 96
22, 627095, Note_on_c, 8, 46, 0
22, 632400, Note_on_c, 8, 45, 70
22, 632640, Note_on_c, 8, 45, 0
22, 632640, Note_on_c, 8, 48, 84
22, 632880, Note_on_c, 8, 48, 0
22, 632880, Note_on_c, 8, 45, 75
22, 633000, Note_on_c, 8, 45, 0
22, 633000, Note_on_c, 8, 48, 68
22, 633120, Note_on_c, 8, 48, 0
22, 634680, Note_on_c, 8, 45, 75
22, 634920, Note_on_c, 8, 45, 0
22, 634920, Note_on_c, 8, 48, 73
22, 635160, Note_on_c, 8, 48, 0
22, 635160, Note_on_c, 8, 45, 85
22, 635280, Note_on_c, 8, 45, 0
22, 635280, Note_on_c, 8, 48, 70
22, 635400, Note_on_c, 8, 48, 0
22, 635880, Note_on_c, 8, 45, 69
22, 636120, Note_on_c, 8, 45, 0
22, 636120, Note_on_c, 8, 48, 70
22, 636360, Note_on_c, 8, 48, 0
22, 636360, Note_on_c, 8, 45, 69
22, 636480, Note_on_c, 8, 45, 0
22, 636480, Note_on_c, 8, 48, 79
22, 636600, Note_on_c, 8, 48, 0
22, 636960, Note_on_c, 8, 45, 73
22, 637200, Note_on_c, 8, 45, 0
22, 637200, Note_on_c, 8, 48, 70
22, 637440, Note_on_c, 8, 48, 0
22, 637440, Note_on_c, 8, 45, 79
22, 637560, Note_on_c, 8, 45, 0
22, 637560, Note_on_c, 8, 48, 73
22, 637680, Note_on_c, 8, 48, 0
22, 638040, Note_on_c, 8, 45, 67
22, 638280, Note_on_c, 8, 45, 0
22, 638280, Note_on_c, 8, 48, 67
22, 638520, Note_on_c, 8, 48, 0
22, 638520, Note_on_c, 8, 45, 77
22, 638640, Note_on_c, 8, 45, 0
22, 638640, Note_on_c, 8, 48, 68
22, 638760, Note_on_c, 8, 48, 0
22, 639120, Note_on_c, 8, 45, 83
22, 639240, Note_on_c, 8, 45, 0
22, 639360, Note_on_c, 8, 48, 75
22, 639480, Note_on_c, 8, 48, 0
22, 639840, Note_on_c, 8, 45, 111
22, 639960, Note_on_c, 8, 45, 0
22, 640200, Note_on_c, 8, 48, 96
22, 640320, Note_on_c, 8, 48, 0
22, 640440, Note_on_c, 8, 45, 69
22, 640680, Note_on_c, 8, 45, 0
22, 640800, Note_on_c, 8, 48, 91
22, 640920, Note_on_c, 8, 48, 0
22, 641040, Note_on_c, 8, 45, 71
22, 641280, Note_on_c, 8, 45, 0
22, 641520, Note_on_c, 8, 48, 80
22, 641640, Note_on_c, 8, 48, 0
22, 641760, Note_on_c, 8, 45, 67
22, 642000, Note_on_c, 8, 45, 0
22, 642120, Note_on_c, 8, 48, 94
22, 642240, Note_on_c, 8, 48, 0
22, 642360, Note_on_c, 8, 45, 70
22, 642600, Note_on_c, 8, 45, 0
22, 642720, Note_on_c, 8, 48, 88
22, 642840, Note_on_c, 8, 48, 0
22, 642960, Note_on_c, 8, 45, 75
22, 643200, Note_on_c, 8, 45, 0
22, 643440, Note_on_c, 8, 48, 66
22, 643560, Note_on_c, 8, 48, 0
22, 643680, Note_on_c, 8, 45, 69
22, 643920, Note_on_c, 8, 45, 0
22, 644040, Note_on_c, 8, 48, 69
22, 644160, Note_on_c, 8, 48, 0
22, 644280, Note_on_c, 8, 45, 65
22, 644520, Note_on_c, 8, 45, 0
22, 644520, Note_on_c, 8, 48, 77
22, 644640, Note_on_c, 8, 48, 0
22, 644760, Note_on_c, 8, 45, 66
22, 645000, Note_on_c, 8, 45, 0
22, 645000, Note_on_c, 8, 48, 67
22, 645120, Note_on_c, 8, 48, 0
22, 645240, Note_on_c, 8, 45, 120
22, 645360, Note_on_c, 8, 45, 0
22, 645600, Note_on_c, 8, 48, 81
22, 645720, Note_on_c, 8, 48, 0
22, 645840, Note_on_c, 8, 45, 83
22, 646080, Note_on_c, 8, 45, 0
22, 646320, Note_on_c, 8, 48, 82
22, 646440, Note_on_c, 8, 48, 0
22, 646560, Note_on_c, 8, 45, 110
22, 646680, Note_on_c, 8, 45, 0
22, 646920, Note_on_c, 8, 48, 86
22, 647040, Note_on_c, 8, 48, 0
22, 647160, Note_on_c, 8, 45, 65
22, 647400, Note_on_c, 8, 45, 0
22, 647640, Note_on_c, 8, 48, 79
22, 647760, Note_on_c, 8, 48, 0
22, 647880, Note_on_c, 8, 45, 105
22, 648120, Note_on_c, 8, 45, 0
22, 648480, Note_on_c, 8, 48, 107
22, 648600, Note_on_c, 8, 48, 0
22, 648720, Note_on_c, 8, 45, 115
22, 648840, Note_on_c, 8, 45, 0
22, 648960, Note_on_c, 8, 48, 103
22, 649080, Note_on_c, 8, 48, 0
22, 649200, Note_on_c, 8, 45, 92
22, 649320, Note_on_c, 8, 45, 0
22, 649440, Note_on_c, 8, 48, 87
22, 649560, Note_on_c, 8, 48, 0
22, 649680, Note_on_c, 8, 45, 111
22, 649920, Note_on_c, 8, 45, 0
22, 650040, Note_on_c, 8, 48, 92
22, 650160, Note_on_c, 8, 48, 0
22, 650280, Note_on_c, 8, 45, 118
22, 650400, Note_on_c, 8, 45, 0
22, 650520, Note_on_c, 8, 48, 113
22, 650640, Note_on_c, 8, 48, 0
22, 650760, Note_on_c, 8, 45, 80
22, 650880, Note_on_c, 8, 45, 0
22, 651000, Note_on_c, 8, 48, 98
22, 651120, Note_on_c, 8, 48, 0
22, 651240, Note_on_c, 8, 45, 117
22, 651360, Note_on_c, 8, 45, 0
22, 651480, Note_on_c, 8, 48, 111
22, 651600, Note_on_c, 8, 48, 0
22, 651720, Note_on_c, 8, 45, 93
22, 651840, Note_on_c, 8, 45, 0
22, 651960, Note_on_c, 8, 48, 106
22, 652080, Note_on_c, 8, 48, 0
22, 652200, Note_on_c, 8, 45, 104
22, 652320, Note_on_c, 8, 45, 0
22, 652440, Note_on_c, 8, 48, 84
22, 652560, Note_on_c, 8, 48, 0
22, 652680, Note_on_c, 8, 45, 88
22, 652800, Note_on_c, 8, 45, 0
22, 652920, Note_on_c, 8, 48, 102
22, 653040, Note_on_c, 8, 48, 0
22, 653160, Note_on_c, 8, 45, 114
22, 653280, Note_on_c, 8, 45, 0
22, 653400, Note_on_c, 8, 48, 98
22, 653520, Note_on_c, 8, 48, 0
22, 653640, Note_on_c, 8, 45, 110
22, 653760, Note_on_c, 8, 45, 0
22, 653880, Note_on_c, 8, 48, 112
22, 654000, Note_on_c, 8, 48, 0
22, 654120, Note_on_c, 8, 45, 87
22, 654240, Note_on_c, 8, 45, 0
22, 654360, Note_on_c, 8, 48, 82
22, 654480, Note_on_c, 8, 48, 0
22, 654600, Note_on_c, 8, 45, 103
22, 654720, Note_on_c, 8, 45, 0
22, 658080, Note_on_c, 8, 45, 99
22, 658200, Note_on_c, 8, 45, 0
22, 658200, End_track
23, 0, Start_track
23, 0, Title_t, "Grancassa"
23, 0, MIDI_port, 0
23, 0, Program_c, 8, 47
23, 0, Control_c, 8, 7, 127
23, 0, Control_c, 8, 10, 64
23, 0, Control_c, 8, 91, 127
23, 10560, Note_on_c, 8, 35, 48
23, 10560, Note_on_c, 8, 34, 46
23, 10598, Note_on_c, 8, 35, 0
23, 10598, Note_on_c, 8, 34, 0
23, 10598, Note_on_c, 8, 34, 47
23, 10598, Note_on_c, 8, 35, 57
23, 10637, Note_on_c, 8, 34, 0
23, 10637, Note_on_c, 8, 35, 0
23, 10637, Note_on_c, 8, 34, 50
23, 10637, Note_on_c, 8, 35, 52
23, 10676, Note_on_c, 8, 34, 0
23, 10676, Note_on_c, 8, 35, 0
23, 10676, Note_on_c, 8, 34, 45
23, 10676, Note_on_c, 8, 35, 38
23, 10715, Note_on_c, 8, 34, 0
23, 10715, Note_on_c, 8, 35, 0
23, 10715, Note_on_c, 8, 34, 40
23, 10715, Note_on_c, 8, 35, 53
23, 10754, Note_on_c, 8, 34, 0
23, 10754, Note_on_c, 8, 35, 0
23, 10754, Note_on_c, 8, 34, 56
23, 10754, Note_on_c, 8, 35, 38
23, 10792, Note_on_c, 8, 34, 0
23, 10792, Note_on_c, 8, 35, 0
23, 10793, Note_on_c, 8, 34, 44
23, 10793, Note_on_c, 8, 35, 50
23, 10832, Note_on_c, 8, 34, 0
23, 10832, Note_on_c, 8, 35, 0
23, 10832, Note_on_c, 8, 34, 51
23, 10832, Note_on_c, 8, 35, 40
23, 10871, Note_on_c, 8, 34, 0
23, 10871, Note_on_c, 8, 35, 0
23, 10871, Note_on_c, 8, 34, 54
23, 10871, Note_on_c, 8, 35, 37
23, 10910, Note_on_c, 8, 34, 0
23, 10910, Note_on_c, 8, 35, 0
23, 10910, Note_on_c, 8, 35, 42
23, 10910, Note_on_c, 8, 34, 39
23, 10949, Note_on_c, 8, 35, 0
23, 10949, Note_on_c, 8, 34, 0
23, 10949, Note_on_c, 8, 34, 45
23, 10949, Note_on_c, 8, 35, 42
23, 10987, Note_on_c, 8, 34, 0
23, 10987, Note_on_c, 8, 35, 0
23, 10987, Note_on_c, 8, 34, 49
23, 10987, Note_on_c, 8, 35, 48
23, 11026, Note_on_c, 8, 34, 0
23, 11026, Note_on_c, 8, 35, 0
23, 11026, Note_on_c, 8, 34, 45
23, 11026, Note_on_c, 8, 35, 46
23, 11065, Note_on_c, 8, 34, 0
23, 11065, Note_on_c, 8, 35, 0
23, 11065, Note_on_c, 8, 34, 54
23, 11065, Note_on_c, 8, 35, 39
23, 11104, Note_on_c, 8, 34, 0
23, 11104, Note_on_c, 8, 35, 0
23, 11104, Note_on_c, 8, 34, 41
23, 11104, Note_on_c, 8, 35, 41
23, 11143, Note_on_c, 8, 34, 0
23, 11143, Note_on_c, 8, 35, 0
23, 11143, Note_on_c, 8, 34, 41
23, 11143, Note_on_c, 8, 35, 46
23, 11182, Note_on_c, 8, 34, 0
23, 11182, Note_on_c, 8, 35, 0
23, 11182, Note_on_c, 8, 34, 46
23, 11182, Note_on_c, 8, 35, 51
23, 11220, Note_on_c, 8, 34, 0
23, 11220, Note_on_c, 8, 35, 0
23, 11221, Note_on_c, 8, 34, 48
23, 11221, Note_on_c, 8, 35, 50
23, 11260, Note_on_c, 8, 34, 0
23, 11260, Note_on_c, 8, 35, 0
23, 11260, Note_on_c, 8, 35, 42
23, 11260, Note_on_c, 8, 34, 34
23, 11299, Note_on_c, 8, 35, 0
23, 11299, Note_on_c, 8, 34, 0
23, 11299, Note_on_c, 8, 34, 50
23, 11299, Note_on_c, 8, 35, 34
23, 11338, Note_on_c, 8, 34, 0
23, 11338, Note_on_c, 8, 35, 0
23, 11338, Note_on_c, 8, 34, 37
23, 11338, Note_on_c, 8, 35, 40
23, 11377, Note_on_c, 8, 34, 0
23, 11377, Note_on_c, 8, 35, 0
23, 11377, Note_on_c, 8, 34, 43
23, 11377, Note_on_c, 8, 35, 35
23, 11415, Note_on_c, 8, 34, 0
23, 11415, Note_on_c, 8, 35, 0
23, 11415, Note_on_c, 8, 34, 41
23, 11415, Note_on_c, 8, 35, 41
23, 11454, Note_on_c, 8, 34, 0
23, 11454, Note_on_c, 8, 35, 0
23, 11454, Note_on_c, 8, 34, 46
23, 11454, Note_on_c, 8, 35, 45
23, 11493, Note_on_c, 8, 34, 0
23, 11493, Note_on_c, 8, 35, 0
23, 11493, Note_on_c, 8, 34, 35
23, 11493, Note_on_c, 8, 35, 35
23, 11532, Note_on_c, 8, 34, 0
23, 11532, Note_on_c, 8, 35, 0
23, 11532, Note_on_c, 8, 34, 41
23, 11532, Note_on_c, 8, 35, 45
23, 11571, Note_on_c, 8, 34, 0
23, 11571, Note_on_c, 8, 35, 0
23, 11571, Note_on_c, 8, 34, 42
23, 11571, Note_on_c, 8, 35, 33
23, 11609, Note_on_c, 8, 34, 0
23, 11609, Note_on_c, 8, 35, 0
23, 11610, Note_on_c, 8, 35, 34
23, 11610, Note_on_c, 8, 34, 35
23, 11649, Note_on_c, 8, 35, 0
23, 11649, Note_on_c, 8, 34, 0
23, 11649, Note_on_c, 8, 34, 48
23, 11649, Note_on_c, 8, 35, 32
23, 11688, Note_on_c, 8, 34, 0
23, 11688, Note_on_c, 8, 35, 0
23, 11688, Note_on_c, 8, 34, 51
23, 11688, Note_on_c, 8, 35, 51
23, 11727, Note_on_c, 8, 34, 0
23, 11727, Note_on_c, 8, 35, 0
23, 11727, Note_on_c, 8, 34, 34
23, 11727, Note_on_c, 8, 35, 32
23, 11766, Note_on_c, 8, 34, 0
23, 11766, Note_on_c, 8, 35, 0
23, 11766, Note_on_c, 8, 34, 40
23, 11766, Note_on_c, 8, 35, 40
23, 11805, Note_on_c, 8, 34, 0
23, 11805, Note_on_c, 8, 35, 0
23, 11805, Note_on_c, 8, 34, 32
23, 11805, Note_on_c, 8, 35, 45
23, 11843, Note_on_c, 8, 34, 0
23, 11843, Note_on_c, 8, 35, 0
23, 11843, Note_on_c, 8, 34, 46
23, 11843, Note_on_c, 8, 35, 40
23, 11882, Note_on_c, 8, 34, 0
23, 11882, Note_on_c, 8, 35, 0
23, 11882, Note_on_c, 8, 34, 35
23, 11882, Note_on_c, 8, 35, 36
23, 11921, Note_on_c, 8, 34, 0
23, 11921, Note_on_c, 8, 35, 0
23, 11921, Note_on_c, 8, 34, 40
23, 11921, Note_on_c, 8, 35, 44
23, 11960, Note_on_c, 8, 34, 0
23, 11960, Note_on_c, 8, 35, 0
23, 11960, Note_on_c, 8, 35, 35
23, 11960, Note_on_c, 8, 34, 34
23, 11996, Note_on_c, 8, 35, 0
23, 11996, Note_on_c, 8, 34, 0
23, 12000, Note_on_c, 8, 34, 40
23, 12000, Note_on_c, 8, 35, 46
23, 12038, Note_on_c, 8, 34, 0
23, 12038, Note_on_c, 8, 35, 0
23, 12038, Note_on_c, 8, 34, 38
23, 12038, Note_on_c, 8, 35, 42
23, 12077, Note_on_c, 8, 34, 0
23, 12077, Note_on_c, 8, 35, 0
23, 12077, Note_on_c, 8, 34, 48
23, 12077, Note_on_c, 8, 35, 37
23, 12116, Note_on_c, 8, 34, 0
23, 12116, Note_on_c, 8, 35, 0
23, 12116, Note_on_c, 8, 34, 38
23, 12116, Note_on_c, 8, 35, 34
23, 12155, Note_on_c, 8, 34, 0
23, 12155, Note_on_c, 8, 35, 0
23, 12155, Note_on_c, 8, 34, 28
23, 12155, Note_on_c, 8, 35, 43
23, 12194, Note_on_c, 8, 34, 0
23, 12194, Note_on_c, 8, 35, 0
23, 12194, Note_on_c, 8, 34, 37
23, 12194, Note_on_c, 8, 35, 31
23, 12232, Note_on_c, 8, 34, 0
23, 12232, Note_on_c, 8, 35, 0
23, 12233, Note_on_c, 8, 34, 45
23, 12233, Note_on_c, 8, 35, 44
23, 12272, Note_on_c, 8, 34, 0
23, 12272, Note_on_c, 8, 35, 0
23, 12272, Note_on_c, 8, 34, 42
23, 12272, Note_on_c, 8, 35, 33
23, 12311, Note_on_c, 8, 34, 0
23, 12311, Note_on_c, 8, 35, 0
23, 12311, Note_on_c, 8, 35, 39
23, 12311, Note_on_c, 8, 34, 28
23, 12350, Note_on_c, 8, 35, 0
23, 12350, Note_on_c, 8, 34, 0
23, 12350, Note_on_c, 8, 34, 44
23, 12350, Note_on_c, 8, 35, 30
23, 12389, Note_on_c, 8, 34, 0
23, 12389, Note_on_c, 8, 35, 0
23, 12389, Note_on_c, 8, 34, 31
23, 12389, Note_on_c, 8, 35, 46
23, 12427, Note_on_c, 8, 34, 0
23, 12427, Note_on_c, 8, 35, 0
23, 12427, Note_on_c, 8, 34, 44
23, 12427, Note_on_c, 8, 35, 38
23, 12466, Note_on_c, 8, 34, 0
23, 12466, Note_on_c, 8, 35, 0
23, 12466, Note_on_c, 8, 34, 35
23, 12466, Note_on_c, 8, 35, 42
23, 12505, Note_on_c, 8, 34, 0
23, 12505, Note_on_c, 8, 35, 0
23, 12505, Note_on_c, 8, 34, 32
23, 12505, Note_on_c, 8, 35, 41
23, 12544, Note_on_c, 8, 34, 0
23, 12544, Note_on_c, 8, 35, 0
23, 12544, Note_on_c, 8, 34, 43
23, 12544, Note_on_c, 8, 35, 29
23, 12583, Note_on_c, 8, 34, 0
23, 12583, Note_on_c, 8, 35, 0
23, 12583, Note_on_c, 8, 34, 40
23, 12583, Note_on_c, 8, 35, 32
23, 12622, Note_on_c, 8, 34, 0
23, 12622, Note_on_c, 8, 35, 0
23, 12622, Note_on_c, 8, 34, 40
23, 12622, Note_on_c, 8, 35, 36
23, 12660, Note_on_c, 8, 34, 0
23, 12660, Note_on_c, 8, 35, 0
23, 12661, Note_on_c, 8, 35, 42
23, 12661, Note_on_c, 8, 34, 36
23, 12700, Note_on_c, 8, 35, 0
23, 12700, Note_on_c, 8, 34, 0
23, 12700, Note_on_c, 8, 34, 44
23, 12700, Note_on_c, 8, 35, 41
23, 12739, Note_on_c, 8, 34, 0
23, 12739, Note_on_c, 8, 35, 0
23, 12739, Note_on_c, 8, 34, 37
23, 12739, Note_on_c, 8, 35, 43
23, 12778, Note_on_c, 8, 34, 0
23, 12778, Note_on_c, 8, 35, 0
23, 12778, Note_on_c, 8, 34, 32
23, 12778, Note_on_c, 8, 35, 27
23, 12817, Note_on_c, 8, 34, 0
23, 12817, Note_on_c, 8, 35, 0
23, 12817, Note_on_c, 8, 34, 25
23, 12817, Note_on_c, 8, 35, 35
23, 12855, Note_on_c, 8, 34, 0
23, 12855, Note_on_c, 8, 35, 0
23, 12855, Note_on_c, 8, 34, 26
23, 12855, Note_on_c, 8, 35, 44
23, 12894, Note_on_c, 8, 34, 0
23, 12894, Note_on_c, 8, 35, 0
23, 12894, Note_on_c, 8, 34, 36
23, 12894, Note_on_c, 8, 35, 29
23, 12933, Note_on_c, 8, 34, 0
23, 12933, Note_on_c, 8, 35, 0
23, 12933, Note_on_c, 8, 34, 34
23, 12933, Note_on_c, 8, 35, 33
23, 12972, Note_on_c, 8, 34, 0
23, 12972, Note_on_c, 8, 35, 0
23, 12972, Note_on_c, 8, 34, 43
23, 12972, Note_on_c, 8, 35, 28
23, 13011, Note_on_c, 8, 34, 0
23, 13011, Note_on_c, 8, 35, 0
23, 13011, Note_on_c, 8, 35, 38
23, 13011, Note_on_c, 8, 34, 35
23, 13049, Note_on_c, 8, 35, 0
23, 13049, Note_on_c, 8, 34, 0
23, 13050, Note_on_c, 8, 34, 27
23, 13050, Note_on_c, 8, 35, 36
23, 13089, Note_on_c, 8, 34, 0
23, 13089, Note_on_c, 8, 35, 0
23, 13089, Note_on_c, 8, 34, 36
23, 13089, Note_on_c, 8, 35, 25
23, 13128, Note_on_c, 8, 34, 0
23, 13128, Note_on_c, 8, 35, 0
23, 13128, Note_on_c, 8, 34, 40
23, 13128, Note_on_c, 8, 35, 29
23, 13167, Note_on_c, 8, 34, 0
23, 13167, Note_on_c, 8, 35, 0
23, 13167, Note_on_c, 8, 34, 24
23, 13167, Note_on_c, 8, 35, 23
23, 13206, Note_on_c, 8, 34, 0
23, 13206, Note_on_c, 8, 35, 0
23, 13206, Note_on_c, 8, 34, 34
23, 13206, Note_on_c, 8, 35, 36
23, 13245, Note_on_c, 8, 34, 0
23, 13245, Note_on_c, 8, 35, 0
23, 13245, Note_on_c, 8, 34, 32
23, 13245, Note_on_c, 8, 35, 33
23, 13283, Note_on_c, 8, 34, 0
23, 13283, Note_on_c, 8, 35, 0
23, 13283, Note_on_c, 8, 34, 38
23, 13283, Note_on_c, 8, 35, 41
23, 13322, Note_on_c, 8, 34, 0
23, 13322, Note_on_c, 8, 35, 0
23, 13322, Note_on_c, 8, 34, 21
23, 13322, Note_on_c, 8, 35, 34
23, 13361, Note_on_c, 8, 34, 0
23, 13361, Note_on_c, 8, 35, 0
23, 13361, Note_on_c, 8, 35, 36
23, 13361, Note_on_c, 8, 34, 21
23, 13400, Note_on_c, 8, 35, 0
23, 13400, Note_on_c, 8, 34, 0
23, 13400, Note_on_c, 8, 35, 39
23, 13400, Note_on_c, 8, 34, 39
23, 13436, Note_on_c, 8, 35, 0
23, 13436, Note_on_c, 8, 34, 0
23, 13440, Note_on_c, 8, 34, 35
23, 13440, Note_on_c, 8, 35, 21
23, 13476, Note_on_c, 8, 34, 0
23, 13476, Note_on_c, 8, 35, 0
23, 13476, Note_on_c, 8, 34, 38
23, 13476, Note_on_c, 8, 35, 40
23, 13512, Note_on_c, 8, 34, 0
23, 13512, Note_on_c, 8, 35, 0
23, 13513, Note_on_c, 8, 34, 19
23, 13513, Note_on_c, 8, 35, 26
23, 13549, Note_on_c, 8, 34, 0
23, 13549, Note_on_c, 8, 35, 0
23, 13549, Note_on_c, 8, 34, 24
23, 13549, Note_on_c, 8, 35, 36
23, 13585, Note_on_c, 8, 34, 0
23, 13585, Note_on_c, 8, 35, 0
23, 13586, Note_on_c, 8, 34, 28
23, 13586, Note_on_c, 8, 35, 28
23, 13622, Note_on_c, 8, 34, 0
23, 13622, Note_on_c, 8, 35, 0
23, 13622, Note_on_c, 8, 34, 27
23, 13622, Note_on_c, 8, 35, 24
23, 13658, Note_on_c, 8, 34, 0
23, 13658, Note_on_c, 8, 35, 0
23, 13659, Note_on_c, 8, 34, 21
23, 13659, Note_on_c, 8, 35, 25
23, 13695, Note_on_c, 8, 34, 0
23, 13695, Note_on_c, 8, 35, 0
23, 13695, Note_on_c, 8, 34, 21
23, 13695, Note_on_c, 8, 35, 32
23, 13732, Note_on_c, 8, 34, 0
23, 13732, Note_on_c, 8, 35, 0
23, 13732, Note_on_c, 8, 35, 25
23, 13732, Note_on_c, 8, 34, 22
23, 13768, Note_on_c, 8, 35, 0
23, 13768, Note_on_c, 8, 34, 0
23, 13769, Note_on_c, 8, 34, 23
23, 13769, Note_on_c, 8, 35, 38
23, 13805, Note_on_c, 8, 34, 0
23, 13805, Note_on_c, 8, 35, 0
23, 13805, Note_on_c, 8, 34, 36
23, 13805, Note_on_c, 8, 35, 27
23, 13841, Note_on_c, 8, 34, 0
23, 13841, Note_on_c, 8, 35, 0
23, 13842, Note_on_c, 8, 34, 32
23, 13842, Note_on_c, 8, 35, 20
23, 13878, Note_on_c, 8, 34, 0
23, 13878, Note_on_c, 8, 35, 0
23, 13878, Note_on_c, 8, 34, 17
23, 13878, Note_on_c, 8, 35, 22
23, 13914, Note_on_c, 8, 34, 0
23, 13914, Note_on_c, 8, 35, 0
23, 13920, Note_on_c, 8, 34, 20
23, 13920, Note_on_c, 8, 35, 17
23, 14160, Note_on_c, 8, 34, 0
23, 14160, Note_on_c, 8, 35, 0
23, 15360, Note_on_c, 8, 34, 54
23, 15360, Note_on_c, 8, 35, 41
23, 15398, Note_on_c, 8, 34, 0
23, 15398, Note_on_c, 8, 35, 0
23, 15398, Note_on_c, 8, 34, 48
23, 15398, Note_on_c, 8, 35, 54
23, 15437, Note_on_c, 8, 34, 0
23, 15437, Note_on_c, 8, 35, 0
23, 15437, Note_on_c, 8, 34, 45
23, 15437, Note_on_c, 8, 35, 40
23, 15476, Note_on_c, 8, 34, 0
23, 15476, Note_on_c, 8, 35, 0
23, 15476, Note_on_c, 8, 35, 41
23, 15476, Note_on_c, 8, 34, 40
23, 15515, Note_on_c, 8, 35, 0
23, 15515, Note_on_c, 8, 34, 0
23, 15515, Note_on_c, 8, 34, 55
23, 15515, Note_on_c, 8, 35, 39
23, 15554, Note_on_c, 8, 34, 0
23, 15554, Note_on_c, 8, 35, 0
23, 15554, Note_on_c, 8, 34, 45
23, 15554, Note_on_c, 8, 35, 47
23, 15592, Note_on_c, 8, 34, 0
23, 15592, Note_on_c, 8, 35, 0
23, 15593, Note_on_c, 8, 34, 53
23, 15593, Note_on_c, 8, 35, 47
23, 15632, Note_on_c, 8, 34, 0
23, 15632, Note_on_c, 8, 35, 0
23, 15632, Note_on_c, 8, 34, 50
23, 15632, Note_on_c, 8, 35, 46
23, 15671, Note_on_c, 8, 34, 0
23, 15671, Note_on_c, 8, 35, 0
23, 15671, Note_on_c, 8, 34, 55
23, 15671, Note_on_c, 8, 35, 41
23, 15710, Note_on_c, 8, 34, 0
23, 15710, Note_on_c, 8, 35, 0
23, 15710, Note_on_c, 8, 34, 50
23, 15710, Note_on_c, 8, 35, 55
23, 15749, Note_on_c, 8, 34, 0
23, 15749, Note_on_c, 8, 35, 0
23, 15749, Note_on_c, 8, 34, 53
23, 15749, Note_on_c, 8, 35, 40
23, 15787, Note_on_c, 8, 34, 0
23, 15787, Note_on_c, 8, 35, 0
23, 15787, Note_on_c, 8, 34, 44
23, 15787, Note_on_c, 8, 35, 42
23, 15826, Note_on_c, 8, 34, 0
23, 15826, Note_on_c, 8, 35, 0
23, 15826, Note_on_c, 8, 35, 51
23, 15826, Note_on_c, 8, 34, 56
23, 15865, Note_on_c, 8, 35, 0
23, 15865, Note_on_c, 8, 34, 0
23, 15865, Note_on_c, 8, 34, 52
23, 15865, Note_on_c, 8, 35, 39
23, 15904, Note_on_c, 8, 34, 0
23, 15904, Note_on_c, 8, 35, 0
23, 15904, Note_on_c, 8, 34, 43
23, 15904, Note_on_c, 8, 35, 40
23, 15943, Note_on_c, 8, 34, 0
23, 15943, Note_on_c, 8, 35, 0
23, 15943, Note_on_c, 8, 34, 37
23, 15943, Note_on_c, 8, 35, 44
23, 15982, Note_on_c, 8, 34, 0
23, 15982, Note_on_c, 8, 35, 0
23, 15982, Note_on_c, 8, 34, 44
23, 15982, Note_on_c, 8, 35, 50
23, 16020, Note_on_c, 8, 34, 0
23, 16020, Note_on_c, 8, 35, 0
23, 16021, Note_on_c, 8, 34, 43
23, 16021, Note_on_c, 8, 35, 41
23, 16060, Note_on_c, 8, 34, 0
23, 16060, Note_on_c, 8, 35, 0
23, 16060, Note_on_c, 8, 34, 50
23, 16060, Note_on_c, 8, 35, 39
23, 16099, Note_on_c, 8, 34, 0
23, 16099, Note_on_c, 8, 35, 0
23, 16099, Note_on_c, 8, 34, 53
23, 16099, Note_on_c, 8, 35, 37
23, 16138, Note_on_c, 8, 34, 0
23, 16138, Note_on_c, 8, 35, 0
23, 16138, Note_on_c, 8, 34, 35
23, 16138, Note_on_c, 8, 35, 49
23, 16177, Note_on_c, 8, 34, 0
23, 16177, Note_on_c, 8, 35, 0
23, 16177, Note_on_c, 8, 35, 54
23, 16177, Note_on_c, 8, 34, 37
23, 16215, Note_on_c, 8, 35, 0
23, 16215, Note_on_c, 8, 34, 0
23, 16215, Note_on_c, 8, 34, 52
23, 16215, Note_on_c, 8, 35, 43
23, 16254, Note_on_c, 8, 34, 0
23, 16254, Note_on_c, 8, 35, 0
23, 16254, Note_on_c, 8, 34, 33
23, 16254, Note_on_c, 8, 35, 46
23, 16293, Note_on_c, 8, 34, 0
23, 16293, Note_on_c, 8, 35, 0
23, 16293, Note_on_c, 8, 34, 45
23, 16293, Note_on_c, 8, 35, 37
23, 16332, Note_on_c, 8, 34, 0
23, 16332, Note_on_c, 8, 35, 0
23, 16332, Note_on_c, 8, 34, 42
23, 16332, Note_on_c, 8, 35, 52
23, 16371, Note_on_c, 8, 34, 0
23, 16371, Note_on_c, 8, 35, 0
23, 16371, Note_on_c, 8, 34, 43
23, 16371, Note_on_c, 8, 35, 46
23, 16409, Note_on_c, 8, 34, 0
23, 16409, Note_on_c, 8, 35, 0
23, 16410, Note_on_c, 8, 34, 42
23, 16410, Note_on_c, 8, 35, 35
23, 16449, Note_on_c, 8, 34, 0
23, 16449, Note_on_c, 8, 35, 0
23, 16449, Note_on_c, 8, 34, 52
23, 16449, Note_on_c, 8, 35, 34
23, 16488, Note_on_c, 8, 34, 0
23, 16488, Note_on_c, 8, 35, 0
23, 16488, Note_on_c, 8, 34, 39
23, 16488, Note_on_c, 8, 35, 37
23, 16527, Note_on_c, 8, 34, 0
23, 16527, Note_on_c, 8, 35, 0
23, 16527, Note_on_c, 8, 35, 42
23, 16527, Note_on_c, 8, 34, 49
23, 16566, Note_on_c, 8, 35, 0
23, 16566, Note_on_c, 8, 34, 0
23, 16566, Note_on_c, 8, 34, 33
23, 16566, Note_on_c, 8, 35, 31
23, 16605, Note_on_c, 8, 34, 0
23, 16605, Note_on_c, 8, 35, 0
23, 16605, Note_on_c, 8, 34, 35
23, 16605, Note_on_c, 8, 35, 46
23, 16643, Note_on_c, 8, 34, 0
23, 16643, Note_on_c, 8, 35, 0
23, 16643, Note_on_c, 8, 34, 41
23, 16643, Note_on_c, 8, 35, 33
23, 16682, Note_on_c, 8, 34, 0
23, 16682, Note_on_c, 8, 35, 0
23, 16682, Note_on_c, 8, 34, 39
23, 16682, Note_on_c, 8, 35, 32
23, 16721, Note_on_c, 8, 34, 0
23, 16721, Note_on_c, 8, 35, 0
23, 16721, Note_on_c, 8, 34, 36
23, 16721, Note_on_c, 8, 35, 39
23, 16760, Note_on_c, 8, 34, 0
23, 16760, Note_on_c, 8, 35, 0
23, 16760, Note_on_c, 8, 34, 35
23, 16760, Note_on_c, 8, 35, 45
23, 16796, Note_on_c, 8, 34, 0
23, 16796, Note_on_c, 8, 35, 0
23, 19680, Note_on_c, 8, 34, 58
23, 19680, Note_on_c, 8, 35, 56
23, 19718, Note_on_c, 8, 34, 0
23, 19718, Note_on_c, 8, 35, 0
23, 19718, Note_on_c, 8, 34, 48
23, 19718, Note_on_c, 8, 35, 56
23, 19757, Note_on_c, 8, 34, 0
23, 19757, Note_on_c, 8, 35, 0
23, 19757, Note_on_c, 8, 35, 49
23, 19757, Note_on_c, 8, 34, 44
23, 19796, Note_on_c, 8, 35, 0
23, 19796, Note_on_c, 8, 34, 0
23, 19796, Note_on_c, 8, 34, 38
23, 19796, Note_on_c, 8, 35, 38
23, 19835, Note_on_c, 8, 34, 0
23, 19835, Note_on_c, 8, 35, 0
23, 19835, Note_on_c, 8, 34, 56
23, 19835, Note_on_c, 8, 35, 43
23, 19874, Note_on_c, 8, 34, 0
23, 19874, Note_on_c, 8, 35, 0
23, 19874, Note_on_c, 8, 34, 53
23, 19874, Note_on_c, 8, 35, 43
23, 19912, Note_on_c, 8, 34, 0
23, 19912, Note_on_c, 8, 35, 0
23, 19913, Note_on_c, 8, 34, 52
23, 19913, Note_on_c, 8, 35, 42
23, 19952, Note_on_c, 8, 34, 0
23, 19952, Note_on_c, 8, 35, 0
23, 19952, Note_on_c, 8, 34, 43
23, 19952, Note_on_c, 8, 35, 47
23, 19991, Note_on_c, 8, 34, 0
23, 19991, Note_on_c, 8, 35, 0
23, 19991, Note_on_c, 8, 34, 50
23, 19991, Note_on_c, 8, 35, 37
23, 20030, Note_on_c, 8, 34, 0
23, 20030, Note_on_c, 8, 35, 0
23, 20030, Note_on_c, 8, 34, 44
23, 20030, Note_on_c, 8, 35, 46
23, 20069, Note_on_c, 8, 34, 0
23, 20069, Note_on_c, 8, 35, 0
23, 20069, Note_on_c, 8, 34, 53
23, 20069, Note_on_c, 8, 35, 43
23, 20107, Note_on_c, 8, 34, 0
23, 20107, Note_on_c, 8, 35, 0
23, 20107, Note_on_c, 8, 35, 45
23, 20107, Note_on_c, 8, 34, 44
23, 20146, Note_on_c, 8, 35, 0
23, 20146, Note_on_c, 8, 34, 0
23, 20146, Note_on_c, 8, 34, 41
23, 20146, Note_on_c, 8, 35, 50
23, 20185, Note_on_c, 8, 34, 0
23, 20185, Note_on_c, 8, 35, 0
23, 20185, Note_on_c, 8, 34, 45
23, 20185, Note_on_c, 8, 35, 44
23, 20224, Note_on_c, 8, 34, 0
23, 20224, Note_on_c, 8, 35, 0
23, 20224, Note_on_c, 8, 34, 38
23, 20224, Note_on_c, 8, 35, 45
23, 20263, Note_on_c, 8, 34, 0
23, 20263, Note_on_c, 8, 35, 0
23, 20263, Note_on_c, 8, 34, 54
23, 20263, Note_on_c, 8, 35, 47
23, 20302, Note_on_c, 8, 34, 0
23, 20302, Note_on_c, 8, 35, 0
23, 20302, Note_on_c, 8, 34, 42
23, 20302, Note_on_c, 8, 35, 40
23, 20340, Note_on_c, 8, 34, 0
23, 20340, Note_on_c, 8, 35, 0
23, 20341, Note_on_c, 8, 34, 50
23, 20341, Note_on_c, 8, 35, 41
23, 20380, Note_on_c, 8, 34, 0
23, 20380, Note_on_c, 8, 35, 0
23, 20380, Note_on_c, 8, 34, 36
23, 20380, Note_on_c, 8, 35, 51
23, 20419, Note_on_c, 8, 34, 0
23, 20419, Note_on_c, 8, 35, 0
23, 20419, Note_on_c, 8, 34, 52
23, 20419, Note_on_c, 8, 35, 45
23, 20458, Note_on_c, 8, 34, 0
23, 20458, Note_on_c, 8, 35, 0
23, 20458, Note_on_c, 8, 35, 46
23, 20458, Note_on_c, 8, 34, 38
23, 20497, Note_on_c, 8, 35, 0
23, 20497, Note_on_c, 8, 34, 0
23, 20497, Note_on_c, 8, 35, 39
23, 20497, Note_on_c, 8, 34, 39
23, 20535, Note_on_c, 8, 35, 0
23, 20535, Note_on_c, 8, 34, 0
23, 20535, Note_on_c, 8, 34, 35
23, 20535, Note_on_c, 8, 35, 50
23, 20574, Note_on_c, 8, 34, 0
23, 20574, Note_on_c, 8, 35, 0
23, 20574, Note_on_c, 8, 34, 50
23, 20574, Note_on_c, 8, 35, 49
23, 20613, Note_on_c, 8, 34, 0
23, 20613, Note_on_c, 8, 35, 0
23, 20613, Note_on_c, 8, 34, 44
23, 20613, Note_on_c, 8, 35, 36
23, 20652, Note_on_c, 8, 34, 0
23, 20652, Note_on_c, 8, 35, 0
23, 20652, Note_on_c, 8, 34, 52
23, 20652, Note_on_c, 8, 35, 42
23, 20691, Note_on_c, 8, 34, 0
23, 20691, Note_on_c, 8, 35, 0
23, 20691, Note_on_c, 8, 34, 45
23, 20691, Note_on_c, 8, 35, 42
23, 20729, Note_on_c, 8, 34, 0
23, 20729, Note_on_c, 8, 35, 0
23, 20730, Note_on_c, 8, 34, 50
23, 20730, Note_on_c, 8, 35, 37
23, 20769, Note_on_c, 8, 34, 0
23, 20769, Note_on_c, 8, 35, 0
23, 20769, Note_on_c, 8, 34, 35
23, 20769, Note_on_c, 8, 35, 43
23, 20808, Note_on_c, 8, 34, 0
23, 20808, Note_on_c, 8, 35, 0
23, 20808, Note_on_c, 8, 34, 46
23, 20808, Note_on_c, 8, 35, 45
23, 20847, Note_on_c, 8, 34, 0
23, 20847, Note_on_c, 8, 35, 0
23, 20847, Note_on_c, 8, 35, 43
23, 20847, Note_on_c, 8, 34, 32
23, 20886, Note_on_c, 8, 35, 0
23, 20886, Note_on_c, 8, 34, 0
23, 20886, Note_on_c, 8, 34, 42
23, 20886, Note_on_c, 8, 35, 40
23, 20925, Note_on_c, 8, 34, 0
23, 20925, Note_on_c, 8, 35, 0
23, 20925, Note_on_c, 8, 34, 44
23, 20925, Note_on_c, 8, 35, 48
23, 20963, Note_on_c, 8, 34, 0
23, 20963, Note_on_c, 8, 35, 0
23, 20963, Note_on_c, 8, 34, 40
23, 20963, Note_on_c, 8, 35, 43
23, 21002, Note_on_c, 8, 34, 0
23, 21002, Note_on_c, 8, 35, 0
23, 21002, Note_on_c, 8, 34, 31
23, 21002, Note_on_c, 8, 35, 47
23, 21041, Note_on_c, 8, 34, 0
23, 21041, Note_on_c, 8, 35, 0
23, 21041, Note_on_c, 8, 34, 43
23, 21041, Note_on_c, 8, 35, 49
23, 21080, Note_on_c, 8, 34, 0
23, 21080, Note_on_c, 8, 35, 0
23, 21080, Note_on_c, 8, 34, 44
23, 21080, Note_on_c, 8, 35, 38
23, 21116, Note_on_c, 8, 34, 0
23, 21116, Note_on_c, 8, 35, 0
23, 210720, Note_on_c, 8, 34, 96
23, 210720, Note_on_c, 8, 35, 93
23, 211200, Note_on_c, 8, 34, 0
23, 211200, Note_on_c, 8, 35, 0
23, 211200, Note_on_c, 8, 34, 89
23, 211200, Note_on_c, 8, 35, 93
23, 211680, Note_on_c, 8, 34, 0
23, 211680, Note_on_c, 8, 35, 0
23, 211680, Note_on_c, 8, 35, 80
23, 211680, Note_on_c, 8, 34, 86
23, 212160, Note_on_c, 8, 35, 0
23, 212160, Note_on_c, 8, 34, 0
23, 212160, Note_on_c, 8, 34, 93
23, 212160, Note_on_c, 8, 35, 87
23, 212640, Note_on_c, 8, 34, 0
23, 212640, Note_on_c, 8, 35, 0
23, 212640, Note_on_c, 8, 34, 78
23, 212640, Note_on_c, 8, 35, 85
23, 213120, Note_on_c, 8, 34, 0
23, 213120, Note_on_c, 8, 35, 0
23, 213120, Note_on_c, 8, 34, 78
23, 213120, Note_on_c, 8, 35, 90
23, 213600, Note_on_c, 8, 34, 0
23, 213600, Note_on_c, 8, 35, 0
23, 213600, Note_on_c, 8, 34, 98
23, 213600, Note_on_c, 8, 35, 92
23, 214080, Note_on_c, 8, 34, 0
23, 214080, Note_on_c, 8, 35, 0
23, 214080, Note_on_c, 8, 34, 83
23, 214080, Note_on_c, 8, 35, 83
23, 214560, Note_on_c, 8, 34, 0
23, 214560, Note_on_c, 8, 35, 0
23, 214560, Note_on_c, 8, 34, 92
23, 214560, Note_on_c, 8, 35, 86
23, 215040, Note_on_c, 8, 34, 0
23, 215040, Note_on_c, 8, 35, 0
23, 215040, Note_on_c, 8, 34, 78
23, 215040, Note_on_c, 8, 35, 91
23, 215520, Note_on_c, 8, 34, 0
23, 215520, Note_on_c, 8, 35, 0
23, 215520, Note_on_c, 8, 34, 93
23, 215520, Note_on_c, 8, 35, 81
23, 216000, Note_on_c, 8, 34, 0
23, 216000, Note_on_c, 8, 35, 0
23, 218400, Note_on_c, 8, 35, 117
23, 218400, Note_on_c, 8, 34, 108
23, 218640, Note_on_c, 8, 35, 0
23, 218640, Note_on_c, 8, 34, 0
23, 218880, Note_on_c, 8, 34, 112
23, 218880, Note_on_c, 8, 35, 115
23, 219120, Note_on_c, 8, 34, 0
23, 219120, Note_on_c, 8, 35, 0
23, 219360, Note_on_c, 8, 34, 102
23, 219360, Note_on_c, 8, 35, 117
23, 219600, Note_on_c, 8, 34, 0
23, 219600, Note_on_c, 8, 35, 0
23, 219840, Note_on_c, 8, 34, 108
23, 219840, Note_on_c, 8, 35, 116
23, 220080, Note_on_c, 8, 34, 0
23, 220080, Note_on_c, 8, 35, 0
23, 220320, Note_on_c, 8, 34, 111
23, 220320, Note_on_c, 8, 35, 114
23, 220560, Note_on_c, 8, 34, 0
23, 220560, Note_on_c, 8, 35, 0
23, 220560, Note_on_c, 8, 34, 112
23, 220560, Note_on_c, 8, 35, 118
23, 220800, Note_on_c, 8, 34, 0
23, 220800, Note_on_c, 8, 35, 0
23, 225360, Note_on_c, 8, 34, 93
23, 225360, Note_on_c, 8, 35, 81
23, 225600, Note_on_c, 8, 34, 0
23, 225600, Note_on_c, 8, 35, 0
23, 225840, Note_on_c, 8, 34, 81
23, 225840, Note_on_c, 8, 35, 87
23, 226080, Note_on_c, 8, 34, 0
23, 226080, Note_on_c, 8, 35, 0
23, 226320, Note_on_c, 8, 34, 82
23, 226320, Note_on_c, 8, 35, 89
23, 226560, Note_on_c, 8, 34, 0
23, 226560, Note_on_c, 8, 35, 0
23, 226800, Note_on_c, 8, 35, 83
23, 226800, Note_on_c, 8, 34, 78
23, 227040, Note_on_c, 8, 35, 0
23, 227040, Note_on_c, 8, 34, 0
23, 227280, Note_on_c, 8, 34, 94
23, 227280, Note_on_c, 8, 35, 80
23, 227520, Note_on_c, 8, 34, 0
23, 227520, Note_on_c, 8, 35, 0
23, 227760, Note_on_c, 8, 34, 82
23, 227760, Note_on_c, 8, 35, 87
23, 228000, Note_on_c, 8, 34, 0
23, 228000, Note_on_c, 8, 35, 0
23, 228240, Note_on_c, 8, 34, 80
23, 228240, Note_on_c, 8, 35, 86
23, 228480, Note_on_c, 8, 34, 0
23, 228480, Note_on_c, 8, 35, 0
23, 230160, Note_on_c, 8, 34, 93
23, 230160, Note_on_c, 8, 35, 80
23, 230400, Note_on_c, 8, 34, 0
23, 230400, Note_on_c, 8, 35, 0
23, 230640, Note_on_c, 8, 34, 88
23, 230640, Note_on_c, 8, 35, 88
23, 230880, Note_on_c, 8, 34, 0
23, 230880, Note_on_c, 8, 35, 0
23, 231120, Note_on_c, 8, 34, 83
23, 231120, Note_on_c, 8, 35, 82
23, 231360, Note_on_c, 8, 34, 0
23, 231360, Note_on_c, 8, 35, 0
23, 231600, Note_on_c, 8, 34, 86
23, 231600, Note_on_c, 8, 35, 78
23, 231840, Note_on_c, 8, 34, 0
23, 231840, Note_on_c, 8, 35, 0
23, 232080, Note_on_c, 8, 34, 87
23, 232080, Note_on_c, 8, 35, 91
23, 232320, Note_on_c, 8, 34, 0
23, 232320, Note_on_c, 8, 35, 0
23, 232560, Note_on_c, 8, 35, 97
23, 232560, Note_on_c, 8, 34, 85
23, 232800, Note_on_c, 8, 35, 0
23, 232800, Note_on_c, 8, 34, 0
23, 233040, Note_on_c, 8, 34, 93
23, 233040, Note_on_c, 8, 35, 88
23, 233280, Note_on_c, 8, 34, 0
23, 233280, Note_on_c, 8, 35, 0
23, 235200, Note_on_c, 8, 34, 82
23, 235200, Note_on_c, 8, 35, 90
23, 235440, Note_on_c, 8, 34, 0
23, 235440, Note_on_c, 8, 35, 0
23, 235680, Note_on_c, 8, 34, 89
23, 235680, Note_on_c, 8, 35, 95
23, 235920, Note_on_c, 8, 34, 0
23, 235920, Note_on_c, 8, 35, 0
23, 236160, Note_on_c, 8, 34, 78
23, 236160, Note_on_c, 8, 35, 78
23, 236400, Note_on_c, 8, 34, 0
23, 236400, Note_on_c, 8, 35, 0
23, 236640, Note_on_c, 8, 34, 78
23, 236640, Note_on_c, 8, 35, 85
23, 236880, Note_on_c, 8, 34, 0
23, 236880, Note_on_c, 8, 35, 0
23, 237120, Note_on_c, 8, 34, 94
23, 237120, Note_on_c, 8, 35, 90
23, 237360, Note_on_c, 8, 34, 0
23, 237360, Note_on_c, 8, 35, 0
23, 237600, Note_on_c, 8, 34, 84
23, 237600, Note_on_c, 8, 35, 86
23, 237840, Note_on_c, 8, 34, 0
23, 237840, Note_on_c, 8, 35, 0
23, 238080, Note_on_c, 8, 34, 95
23, 238080, Note_on_c, 8, 35, 78
23, 238320, Note_on_c, 8, 34, 0
23, 238320, Note_on_c, 8, 35, 0
23, 248400, Note_on_c, 8, 35, 123
23, 248400, Note_on_c, 8, 34, 123
23, 248640, Note_on_c, 8, 35, 0
23, 248640, Note_on_c, 8, 34, 0
23, 250560, Note_on_c, 8, 34, 104
23, 250560, Note_on_c, 8, 35, 118
23, 250800, Note_on_c, 8, 34, 0
23, 250800, Note_on_c, 8, 35, 0
23, 253200, Note_on_c, 8, 34, 107
23, 253200, Note_on_c, 8, 35, 108
23, 253440, Note_on_c, 8, 34, 0
23, 253440, Note_on_c, 8, 35, 0
23, 256800, Note_on_c, 8, 34, 47
23, 256800, Note_on_c, 8, 35, 52
23, 257040, Note_on_c, 8, 34, 0
23, 257040, Note_on_c, 8, 35, 0
23, 257040, Note_on_c, 8, 34, 47
23, 257040, Note_on_c, 8, 35, 59
23, 257280, Note_on_c, 8, 34, 0
23, 257280, Note_on_c, 8, 35, 0
23, 257280, Note_on_c, 8, 34, 40
23, 257280, Note_on_c, 8, 35, 46
23, 257520, Note_on_c, 8, 34, 0
23, 257520, Note_on_c, 8, 35, 0
23, 257520, Note_on_c, 8, 34, 53
23, 257520, Note_on_c, 8, 35, 44
23, 257760, Note_on_c, 8, 34, 0
23, 257760, Note_on_c, 8, 35, 0
23, 257760, Note_on_c, 8, 34, 41
23, 257760, Note_on_c, 8, 35, 57
23, 258000, Note_on_c, 8, 34, 0
23, 258000, Note_on_c, 8, 35, 0
23, 258000, Note_on_c, 8, 34, 59
23, 258000, Note_on_c, 8, 35, 45
23, 258240, Note_on_c, 8, 34, 0
23, 258240, Note_on_c, 8, 35, 0
23, 258240, Note_on_c, 8, 35, 44
23, 258240, Note_on_c, 8, 34, 54
23, 258480, Note_on_c, 8, 35, 0
23, 258480, Note_on_c, 8, 34, 0
23, 258480, Note_on_c, 8, 34, 44
23, 258480, Note_on_c, 8, 35, 43
23, 258720, Note_on_c, 8, 34, 0
23, 258720, Note_on_c, 8, 35, 0
23, 258720, Note_on_c, 8, 34, 54
23, 258720, Note_on_c, 8, 35, 56
23, 258960, Note_on_c, 8, 34, 0
23, 258960, Note_on_c, 8, 35, 0
23, 258960, Note_on_c, 8, 34, 52
23, 258960, Note_on_c, 8, 35, 58
23, 259200, Note_on_c, 8, 34, 0
23, 259200, Note_on_c, 8, 35, 0
23, 264480, Note_on_c, 8, 34, 41
23, 264480, Note_on_c, 8, 35, 55
23, 264720, Note_on_c, 8, 34, 0
23, 264720, Note_on_c, 8, 35, 0
23, 264720, Note_on_c, 8, 34, 47
23, 264720, Note_on_c, 8, 35, 56
23, 264960, Note_on_c, 8, 34, 0
23, 264960, Note_on_c, 8, 35, 0
23, 264960, Note_on_c, 8, 34, 44
23, 264960, Note_on_c, 8, 35, 45
23, 265200, Note_on_c, 8, 34, 0
23, 265200, Note_on_c, 8, 35, 0
23, 265200, Note_on_c, 8, 34, 59
23, 265200, Note_on_c, 8, 35, 54
23, 265440, Note_on_c, 8, 34, 0
23, 265440, Note_on_c, 8, 35, 0
23, 265440, Note_on_c, 8, 34, 43
23, 265440, Note_on_c, 8, 35, 41
23, 265680, Note_on_c, 8, 34, 0
23, 265680, Note_on_c, 8, 35, 0
23, 265680, Note_on_c, 8, 35, 57
23, 265680, Note_on_c, 8, 34, 41
23, 265920, Note_on_c, 8, 35, 0
23, 265920, Note_on_c, 8, 34, 0
23, 265920, Note_on_c, 8, 35, 46
23, 265920, Note_on_c, 8, 34, 50
23, 266160, Note_on_c, 8, 35, 0
23, 266160, Note_on_c, 8, 34, 0
23, 266160, Note_on_c, 8, 34, 51
23, 266160, Note_on_c, 8, 35, 47
23, 266400, Note_on_c, 8, 34, 0
23, 266400, Note_on_c, 8, 35, 0
23, 266400, Note_on_c, 8, 34, 47
23, 266400, Note_on_c, 8, 35, 49
23, 266640, Note_on_c, 8, 34, 0
23, 266640, Note_on_c, 8, 35, 0
23, 266640, Note_on_c, 8, 34, 44
23, 266640, Note_on_c, 8, 35, 52
23, 266880, Note_on_c, 8, 34, 0
23, 266880, Note_on_c, 8, 35, 0
23, 266880, Note_on_c, 8, 34, 53
23, 266880, Note_on_c, 8, 35, 51
23, 267120, Note_on_c, 8, 34, 0
23, 267120, Note_on_c, 8, 35, 0
23, 267120, Note_on_c, 8, 34, 40
23, 267120, Note_on_c, 8, 35, 48
23, 267360, Note_on_c, 8, 34, 0
23, 267360, Note_on_c, 8, 35, 0
23, 267360, Note_on_c, 8, 34, 48
23, 267360, Note_on_c, 8, 35, 43
23, 267600, Note_on_c, 8, 34, 0
23, 267600, Note_on_c, 8, 35, 0
23, 267600, Note_on_c, 8, 34, 48
23, 267600, Note_on_c, 8, 35, 41
23, 267840, Note_on_c, 8, 34, 0
23, 267840, Note_on_c, 8, 35, 0
23, 267840, Note_on_c, 8, 34, 50
23, 267840, Note_on_c, 8, 35, 44
23, 268080, Note_on_c, 8, 34, 0
23, 268080, Note_on_c, 8, 35, 0
23, 268080, Note_on_c, 8, 35, 59
23, 268080, Note_on_c, 8, 34, 44
23, 268320, Note_on_c, 8, 35, 0
23, 268320, Note_on_c, 8, 34, 0
23, 268320, Note_on_c, 8, 34, 53
23, 268320, Note_on_c, 8, 35, 45
23, 268560, Note_on_c, 8, 34, 0
23, 268560, Note_on_c, 8, 35, 0
23, 268560, Note_on_c, 8, 34, 46
23, 268560, Note_on_c, 8, 35, 53
23, 268800, Note_on_c, 8, 34, 0
23, 268800, Note_on_c, 8, 35, 0
23, 268800, Note_on_c, 8, 34, 42
23, 268800, Note_on_c, 8, 35, 56
23, 269040, Note_on_c, 8, 34, 0
23, 269040, Note_on_c, 8, 35, 0
23, 269040, Note_on_c, 8, 34, 41
23, 269040, Note_on_c, 8, 35, 56
23, 269280, Note_on_c, 8, 34, 0
23, 269280, Note_on_c, 8, 35, 0
23, 269280, Note_on_c, 8, 34, 42
23, 269280, Note_on_c, 8, 35, 54
23, 269520, Note_on_c, 8, 34, 0
23, 269520, Note_on_c, 8, 35, 0
23, 269520, Note_on_c, 8, 34, 50
23, 269520, Note_on_c, 8, 35, 55
23, 269760, Note_on_c, 8, 34, 0
23, 269760, Note_on_c, 8, 35, 0
23, 269760, Note_on_c, 8, 34, 45
23, 269760, Note_on_c, 8, 35, 39
23, 270000, Note_on_c, 8, 34, 0
23, 270000, Note_on_c, 8, 35, 0
23, 270000, Note_on_c, 8, 34, 59
23, 270000, Note_on_c, 8, 35, 43
23, 270240, Note_on_c, 8, 34, 0
23, 270240, Note_on_c, 8, 35, 0
23, 270240, Note_on_c, 8, 35, 43
23, 270240, Note_on_c, 8, 34, 57
23, 270480, Note_on_c, 8, 35, 0
23, 270480, Note_on_c, 8, 34, 0
23, 270480, Note_on_c, 8, 34, 55
23, 270480, Note_on_c, 8, 35, 39
23, 270720, Note_on_c, 8, 34, 0
23, 270720, Note_on_c, 8, 35, 0
23, 270720, Note_on_c, 8, 34, 43
23, 270720, Note_on_c, 8, 35, 50
23, 270960, Note_on_c, 8, 34, 0
23, 270960, Note_on_c, 8, 35, 0
23, 270960, Note_on_c, 8, 34, 39
23, 270960, Note_on_c, 8, 35, 49
23, 271200, Note_on_c, 8, 34, 0
23, 271200, Note_on_c, 8, 35, 0
23, 271200, Note_on_c, 8, 34, 42
23, 271200, Note_on_c, 8, 35, 56
23, 271440, Note_on_c, 8, 34, 0
23, 271440, Note_on_c, 8, 35, 0
23, 271440, Note_on_c, 8, 34, 58
23, 271440, Note_on_c, 8, 35, 42
23, 271680, Note_on_c, 8, 34, 0
23, 271680, Note_on_c, 8, 35, 0
23, 271680, Note_on_c, 8, 34, 40
23, 271680, Note_on_c, 8, 35, 59
23, 271920, Note_on_c, 8, 34, 0
23, 271920, Note_on_c, 8, 35, 0
23, 271920, Note_on_c, 8, 34, 54
23, 271920, Note_on_c, 8, 35, 44
23, 272160, Note_on_c, 8, 34, 0
23, 272160, Note_on_c, 8, 35, 0
23, 272160, Note_on_c, 8, 34, 46
23, 272160, Note_on_c, 8, 35, 54
23, 272400, Note_on_c, 8, 34, 0
23, 272400, Note_on_c, 8, 35, 0
23, 272400, Note_on_c, 8, 35, 57
23, 272400, Note_on_c, 8, 34, 52
23, 272640, Note_on_c, 8, 35, 0
23, 272640, Note_on_c, 8, 34, 0
23, 272640, Note_on_c, 8, 34, 52
23, 272640, Note_on_c, 8, 35, 42
23, 272880, Note_on_c, 8, 34, 0
23, 272880, Note_on_c, 8, 35, 0
23, 272880, Note_on_c, 8, 34, 54
23, 272880, Note_on_c, 8, 35, 42
23, 273120, Note_on_c, 8, 34, 0
23, 273120, Note_on_c, 8, 35, 0
23, 273120, Note_on_c, 8, 34, 53
23, 273120, Note_on_c, 8, 35, 58
23, 273360, Note_on_c, 8, 34, 0
23, 273360, Note_on_c, 8, 35, 0
23, 273360, Note_on_c, 8, 34, 57
23, 273360, Note_on_c, 8, 35, 39
23, 273600, Note_on_c, 8, 34, 0
23, 273600, Note_on_c, 8, 35, 0
23, 273600, Note_on_c, 8, 34, 50
23, 273600, Note_on_c, 8, 35, 53
23, 273840, Note_on_c, 8, 34, 0
23, 273840, Note_on_c, 8, 35, 0
23, 273840, Note_on_c, 8, 34, 56
23, 273840, Note_on_c, 8, 35, 51
23, 274080, Note_on_c, 8, 34, 0
23, 274080, Note_on_c, 8, 35, 0
23, 274080, Note_on_c, 8, 34, 46
23, 274080, Note_on_c, 8, 35, 47
23, 274320, Note_on_c, 8, 34, 0
23, 274320, Note_on_c, 8, 35, 0
23, 274320, Note_on_c, 8, 34, 59
23, 274320, Note_on_c, 8, 35, 58
23, 274560, Note_on_c, 8, 34, 0
23, 274560, Note_on_c, 8, 35, 0
23, 274560, Note_on_c, 8, 35, 49
23, 274560, Note_on_c, 8, 34, 56
23, 274800, Note_on_c, 8, 35, 0
23, 274800, Note_on_c, 8, 34, 0
23, 274800, Note_on_c, 8, 34, 51
23, 274800, Note_on_c, 8, 35, 44
23, 275040, Note_on_c, 8, 34, 0
23, 275040, Note_on_c, 8, 35, 0
23, 275040, Note_on_c, 8, 34, 41
23, 275040, Note_on_c, 8, 35, 56
23, 275280, Note_on_c, 8, 34, 0
23, 275280, Note_on_c, 8, 35, 0
23, 275280, Note_on_c, 8, 34, 50
23, 275280, Note_on_c, 8, 35, 43
23, 275520, Note_on_c, 8, 34, 0
23, 275520, Note_on_c, 8, 35, 0
23, 275520, Note_on_c, 8, 34, 50
23, 275520, Note_on_c, 8, 35, 58
23, 275760, Note_on_c, 8, 34, 0
23, 275760, Note_on_c, 8, 35, 0
23, 275760, Note_on_c, 8, 34, 44
23, 275760, Note_on_c, 8, 35, 52
23, 276000, Note_on_c, 8, 34, 0
23, 276000, Note_on_c, 8, 35, 0
23, 276000, Note_on_c, 8, 34, 51
23, 276000, Note_on_c, 8, 35, 48
23, 276240, Note_on_c, 8, 34, 0
23, 276240, Note_on_c, 8, 35, 0
23, 276240, Note_on_c, 8, 34, 57
23, 276240, Note_on_c, 8, 35, 53
23, 276480, Note_on_c, 8, 34, 0
23, 276480, Note_on_c, 8, 35, 0
23, 276480, Note_on_c, 8, 34, 59
23, 276480, Note_on_c, 8, 35, 43
23, 276720, Note_on_c, 8, 34, 0
23, 276720, Note_on_c, 8, 35, 0
23, 276720, Note_on_c, 8, 35, 42
23, 276720, Note_on_c, 8, 34, 55
23, 276960, Note_on_c, 8, 35, 0
23, 276960, Note_on_c, 8, 34, 0
23, 276960, Note_on_c, 8, 34, 46
23, 276960, Note_on_c, 8, 35, 52
23, 277200, Note_on_c, 8, 34, 0
23, 277200, Note_on_c, 8, 35, 0
23, 277200, Note_on_c, 8, 34, 58
23, 277200, Note_on_c, 8, 35, 42
23, 277440, Note_on_c, 8, 34, 0
23, 277440, Note_on_c, 8, 35, 0
23, 277440, Note_on_c, 8, 34, 46
23, 277440, Note_on_c, 8, 35, 59
23, 277680, Note_on_c, 8, 34, 0
23, 277680, Note_on_c, 8, 35, 0
23, 277680, Note_on_c, 8, 34, 45
23, 277680, Note_on_c, 8, 35, 40
23, 277920, Note_on_c, 8, 34, 0
23, 277920, Note_on_c, 8, 35, 0
23, 277920, Note_on_c, 8, 34, 54
23, 277920, Note_on_c, 8, 35, 40
23, 278160, Note_on_c, 8, 34, 0
23, 278160, Note_on_c, 8, 35, 0
23, 278160, Note_on_c, 8, 34, 46
23, 278160, Note_on_c, 8, 35, 55
23, 278400, Note_on_c, 8, 34, 0
23, 278400, Note_on_c, 8, 35, 0
23, 278400, Note_on_c, 8, 34, 48
23, 278400, Note_on_c, 8, 35, 39
23, 278640, Note_on_c, 8, 34, 0
23, 278640, Note_on_c, 8, 35, 0
23, 278640, Note_on_c, 8, 34, 58
23, 278640, Note_on_c, 8, 35, 55
23, 278880, Note_on_c, 8, 34, 0
23, 278880, Note_on_c, 8, 35, 0
23, 278880, Note_on_c, 8, 35, 47
23, 278880, Note_on_c, 8, 34, 45
23, 279120, Note_on_c, 8, 35, 0
23, 279120, Note_on_c, 8, 34, 0
23, 279120, Note_on_c, 8, 34, 46
23, 279120, Note_on_c, 8, 35, 43
23, 279360, Note_on_c, 8, 34, 0
23, 279360, Note_on_c, 8, 35, 0
23, 279360, Note_on_c, 8, 34, 42
23, 279360, Note_on_c, 8, 35, 45
23, 279600, Note_on_c, 8, 34, 0
23, 279600, Note_on_c, 8, 35, 0
23, 279600, Note_on_c, 8, 34, 39
23, 279600, Note_on_c, 8, 35, 58
23, 279840, Note_on_c, 8, 34, 0
23, 279840, Note_on_c, 8, 35, 0
23, 279840, Note_on_c, 8, 34, 54
23, 279840, Note_on_c, 8, 35, 51
23, 280080, Note_on_c, 8, 34, 0
23, 280080, Note_on_c, 8, 35, 0
23, 280080, Note_on_c, 8, 34, 48
23, 280080, Note_on_c, 8, 35, 41
23, 280320, Note_on_c, 8, 34, 0
23, 280320, Note_on_c, 8, 35, 0
23, 280320, Note_on_c, 8, 34, 51
23, 280320, Note_on_c, 8, 35, 48
23, 280560, Note_on_c, 8, 34, 0
23, 280560, Note_on_c, 8, 35, 0
23, 280560, Note_on_c, 8, 34, 55
23, 280560, Note_on_c, 8, 35, 59
23, 280800, Note_on_c, 8, 34, 0
23, 280800, Note_on_c, 8, 35, 0
23, 280800, Note_on_c, 8, 34, 47
23, 280800, Note_on_c, 8, 35, 50
23, 281040, Note_on_c, 8, 34, 0
23, 281040, Note_on_c, 8, 35, 0
23, 281040, Note_on_c, 8, 35, 49
23, 281040, Note_on_c, 8, 34, 59
23, 281280, Note_on_c, 8, 35, 0
23, 281280, Note_on_c, 8, 34, 0
23, 281280, Note_on_c, 8, 34, 43
23, 281280, Note_on_c, 8, 35, 39
23, 281520, Note_on_c, 8, 34, 0
23, 281520, Note_on_c, 8, 35, 0
23, 281520, Note_on_c, 8, 34, 48
23, 281520, Note_on_c, 8, 35, 59
23, 281760, Note_on_c, 8, 34, 0
23, 281760, Note_on_c, 8, 35, 0
23, 281760, Note_on_c, 8, 34, 57
23, 281760, Note_on_c, 8, 35, 58
23, 282000, Note_on_c, 8, 34, 0
23, 282000, Note_on_c, 8, 35, 0
23, 282000, Note_on_c, 8, 34, 52
23, 282000, Note_on_c, 8, 35, 44
23, 282240, Note_on_c, 8, 34, 0
23, 282240, Note_on_c, 8, 35, 0
23, 282240, Note_on_c, 8, 34, 51
23, 282240, Note_on_c, 8, 35, 54
23, 282480, Note_on_c, 8, 34, 0
23, 282480, Note_on_c, 8, 35, 0
23, 282480, Note_on_c, 8, 34, 57
23, 282480, Note_on_c, 8, 35, 44
23, 282720, Note_on_c, 8, 34, 0
23, 282720, Note_on_c, 8, 35, 0
23, 282720, Note_on_c, 8, 34, 57
23, 282720, Note_on_c, 8, 35, 52
23, 282960, Note_on_c, 8, 34, 0
23, 282960, Note_on_c, 8, 35, 0
23, 282960, Note_on_c, 8, 34, 41
23, 282960, Note_on_c, 8, 35, 59
23, 283200, Note_on_c, 8, 34, 0
23, 283200, Note_on_c, 8, 35, 0
23, 283200, Note_on_c, 8, 35, 49
23, 283200, Note_on_c, 8, 34, 44
23, 283440, Note_on_c, 8, 35, 0
23, 283440, Note_on_c, 8, 34, 0
23, 283440, Note_on_c, 8, 34, 57
23, 283440, Note_on_c, 8, 35, 58
23, 283680, Note_on_c, 8, 34, 0
23, 283680, Note_on_c, 8, 35, 0
23, 283680, Note_on_c, 8, 35, 50
23, 283680, Note_on_c, 8, 34, 59
23, 283920, Note_on_c, 8, 35, 0
23, 283920, Note_on_c, 8, 34, 0
23, 283920, Note_on_c, 8, 34, 53
23, 283920, Note_on_c, 8, 35, 55
23, 284160, Note_on_c, 8, 34, 0
23, 284160, Note_on_c, 8, 35, 0
23, 284160, Note_on_c, 8, 34, 54
23, 284160, Note_on_c, 8, 35, 56
23, 284400, Note_on_c, 8, 34, 0
23, 284400, Note_on_c, 8, 35, 0
23, 284400, Note_on_c, 8, 34, 58
23, 284400, Note_on_c, 8, 35, 55
23, 284640, Note_on_c, 8, 34, 0
23, 284640, Note_on_c, 8, 35, 0
23, 284640, Note_on_c, 8, 34, 46
23, 284640, Note_on_c, 8, 35, 59
23, 284880, Note_on_c, 8, 34, 0
23, 284880, Note_on_c, 8, 35, 0
23, 284880, Note_on_c, 8, 34, 57
23, 284880, Note_on_c, 8, 35, 49
23, 285120, Note_on_c, 8, 34, 0
23, 285120, Note_on_c, 8, 35, 0
23, 285120, Note_on_c, 8, 34, 51
23, 285120, Note_on_c, 8, 35, 53
23, 285360, Note_on_c, 8, 34, 0
23, 285360, Note_on_c, 8, 35, 0
23, 285360, Note_on_c, 8, 34, 58
23, 285360, Note_on_c, 8, 35, 50
23, 285600, Note_on_c, 8, 34, 0
23, 285600, Note_on_c, 8, 35, 0
23, 285600, Note_on_c, 8, 34, 49
23, 285600, Note_on_c, 8, 35, 57
23, 285840, Note_on_c, 8, 34, 0
23, 285840, Note_on_c, 8, 35, 0
23, 285840, Note_on_c, 8, 35, 49
23, 285840, Note_on_c, 8, 34, 42
23, 286080, Note_on_c, 8, 35, 0
23, 286080, Note_on_c, 8, 34, 0
23, 286080, Note_on_c, 8, 34, 44
23, 286080, Note_on_c, 8, 35, 45
23, 286320, Note_on_c, 8, 34, 0
23, 286320, Note_on_c, 8, 35, 0
23, 286320, Note_on_c, 8, 34, 48
23, 286320, Note_on_c, 8, 35, 43
23, 286560, Note_on_c, 8, 34, 0
23, 286560, Note_on_c, 8, 35, 0
23, 286560, Note_on_c, 8, 34, 46
23, 286560, Note_on_c, 8, 35, 46
23, 286800, Note_on_c, 8, 34, 0
23, 286800, Note_on_c, 8, 35, 0
23, 286800, Note_on_c, 8, 34, 39
23, 286800, Note_on_c, 8, 35, 42
23, 287040, Note_on_c, 8, 34, 0
23, 287040, Note_on_c, 8, 35, 0
23, 287040, Note_on_c, 8, 34, 53
23, 287040, Note_on_c, 8, 35, 39
23, 287280, Note_on_c, 8, 34, 0
23, 287280, Note_on_c, 8, 35, 0
23, 287280, Note_on_c, 8, 34, 45
23, 287280, Note_on_c, 8, 35, 44
23, 287520, Note_on_c, 8, 34, 0
23, 287520, Note_on_c, 8, 35, 0
23, 287520, Note_on_c, 8, 34, 50
23, 287520, Note_on_c, 8, 35, 52
23, 287760, Note_on_c, 8, 34, 0
23, 287760, Note_on_c, 8, 35, 0
23, 287760, Note_on_c, 8, 34, 53
23, 287760, Note_on_c, 8, 35, 59
23, 288000, Note_on_c, 8, 34, 0
23, 288000, Note_on_c, 8, 35, 0
23, 288000, Note_on_c, 8, 35, 52
23, 288000, Note_on_c, 8, 34, 53
23, 288240, Note_on_c, 8, 35, 0
23, 288240, Note_on_c, 8, 34, 0
23, 293040, Note_on_c, 8, 34, 107
23, 293040, Note_on_c, 8, 35, 110
23, 293280, Note_on_c, 8, 34, 0
23, 293280, Note_on_c, 8, 35, 0
23, 293520, Note_on_c, 8, 34, 103
23, 293520, Note_on_c, 8, 35, 110
23, 293760, Note_on_c, 8, 34, 0
23, 293760, Note_on_c, 8, 35, 0
23, 294000, Note_on_c, 8, 34, 118
23, 294000, Note_on_c, 8, 35, 118
23, 294240, Note_on_c, 8, 34, 0
23, 294240, Note_on_c, 8, 35, 0
23, 294480, Note_on_c, 8, 34, 114
23, 294480, Note_on_c, 8, 35, 101
23, 294720, Note_on_c, 8, 34, 0
23, 294720, Note_on_c, 8, 35, 0
23, 294960, Note_on_c, 8, 34, 103
23, 294960, Note_on_c, 8, 35, 114
23, 295200, Note_on_c, 8, 34, 0
23, 295200, Note_on_c, 8, 35, 0
23, 295200, Note_on_c, 8, 34, 117
23, 295200, Note_on_c, 8, 35, 102
23, 295440, Note_on_c, 8, 34, 0
23, 295440, Note_on_c, 8, 35, 0
23, 298080, Note_on_c, 8, 34, 100
23, 298080, Note_on_c, 8, 35, 107
23, 298320, Note_on_c, 8, 34, 0
23, 298320, Note_on_c, 8, 35, 0
23, 324720, Note_on_c, 8, 34, 51
23, 324720, Note_on_c, 8, 35, 50
23, 324840, Note_on_c, 8, 34, 0
23, 324840, Note_on_c, 8, 35, 0
23, 324840, Note_on_c, 8, 35, 43
23, 324840, Note_on_c, 8, 34, 47
23, 324960, Note_on_c, 8, 35, 0
23, 324960, Note_on_c, 8, 34, 0
23, 324960, Note_on_c, 8, 34, 49
23, 324960, Note_on_c, 8, 35, 60
23, 325080, Note_on_c, 8, 34, 0
23, 325080, Note_on_c, 8, 35, 0
23, 325080, Note_on_c, 8, 34, 65
23, 325080, Note_on_c, 8, 35, 62
23, 325200, Note_on_c, 8, 34, 0
23, 325200, Note_on_c, 8, 35, 0
23, 325200, Note_on_c, 8, 34, 53
23, 325200, Note_on_c, 8, 35, 51
23, 325320, Note_on_c, 8, 34, 0
23, 325320, Note_on_c, 8, 35, 0
23, 325320, Note_on_c, 8, 34, 61
23, 325320, Note_on_c, 8, 35, 69
23, 325440, Note_on_c, 8, 34, 0
23, 325440, Note_on_c, 8, 35, 0
23, 325440, Note_on_c, 8, 34, 70
23, 325440, Note_on_c, 8, 35, 65
23, 325560, Note_on_c, 8, 34, 0
23, 325560, Note_on_c, 8, 35, 0
23, 325560, Note_on_c, 8, 34, 71
23, 325560, Note_on_c, 8, 35, 70
23, 325680, Note_on_c, 8, 34, 0
23, 325680, Note_on_c, 8, 35, 0
23, 325680, Note_on_c, 8, 34, 78
23, 325680, Note_on_c, 8, 35, 80
23, 325800, Note_on_c, 8, 34, 0
23, 325800, Note_on_c, 8, 35, 0
23, 325800, Note_on_c, 8, 34, 75
23, 325800, Note_on_c, 8, 35, 88
23, 325920, Note_on_c, 8, 34, 0
23, 325920, Note_on_c, 8, 35, 0
23, 325920, Note_on_c, 8, 35, 92
23, 325920, Note_on_c, 8, 34, 93
23, 326040, Note_on_c, 8, 35, 0
23, 326040, Note_on_c, 8, 34, 0
23, 326040, Note_on_c, 8, 34, 81
23, 326040, Note_on_c, 8, 35, 80
23, 326160, Note_on_c, 8, 34, 0
23, 326160, Note_on_c, 8, 35, 0
23, 326160, Note_on_c, 8, 34, 99
23, 326160, Note_on_c, 8, 35, 92
23, 326280, Note_on_c, 8, 34, 0
23, 326280, Note_on_c, 8, 35, 0
23, 326280, Note_on_c, 8, 34, 88
23, 326280, Note_on_c, 8, 35, 92
23, 326400, Note_on_c, 8, 34, 0
23, 326400, Note_on_c, 8, 35, 0
23, 326400, Note_on_c, 8, 34, 89
23, 326400, Note_on_c, 8, 35, 104
23, 326520, Note_on_c, 8, 34, 0
23, 326520, Note_on_c, 8, 35, 0
23, 326520, Note_on_c, 8, 34, 104
23, 326520, Note_on_c, 8, 35, 106
23, 326640, Note_on_c, 8, 34, 0
23, 326640, Note_on_c, 8, 35, 0
23, 326640, Note_on_c, 8, 34, 107
23, 326640, Note_on_c, 8, 35, 104
23, 327120, Note_on_c, 8, 34, 0
23, 327120, Note_on_c, 8, 35, 0
23, 332880, Note_on_c, 8, 34, 37
23, 332880, Note_on_c, 8, 35, 48
23, 333000, Note_on_c, 8, 34, 0
23, 333000, Note_on_c, 8, 35, 0
23, 333000, Note_on_c, 8, 34, 61
23, 333000, Note_on_c, 8, 35, 48
23, 333120, Note_on_c, 8, 34, 0
23, 333120, Note_on_c, 8, 35, 0
23, 333120, Note_on_c, 8, 35, 62
23, 333120, Note_on_c, 8, 34, 48
23, 333240, Note_on_c, 8, 35, 0
23, 333240, Note_on_c, 8, 34, 0
23, 333240, Note_on_c, 8, 34, 53
23, 333240, Note_on_c, 8, 35, 51
23, 333360, Note_on_c, 8, 34, 0
23, 333360, Note_on_c, 8, 35, 0
23, 333360, Note_on_c, 8, 34, 61
23, 333360, Note_on_c, 8, 35, 59
23, 333480, Note_on_c, 8, 34, 0
23, 333480, Note_on_c, 8, 35, 0
23, 333480, Note_on_c, 8, 34, 61
23, 333480, Note_on_c, 8, 35, 63
23, 333600, Note_on_c, 8, 34, 0
23, 333600, Note_on_c, 8, 35, 0
23, 333600, Note_on_c, 8, 34, 60
23, 333600, Note_on_c, 8, 35, 68
23, 333720, Note_on_c, 8, 34, 0
23, 333720, Note_on_c, 8, 35, 0
23, 333720, Note_on_c, 8, 34, 80
23, 333720, Note_on_c, 8, 35, 76
23, 333840, Note_on_c, 8, 34, 0
23, 333840, Note_on_c, 8, 35, 0
23, 333840, Note_on_c, 8, 34, 77
23, 333840, Note_on_c, 8, 35, 85
23, 333960, Note_on_c, 8, 34, 0
23, 333960, Note_on_c, 8, 35, 0
23, 333960, Note_on_c, 8, 34, 72
23, 333960, Note_on_c, 8, 35, 80
23, 334080, Note_on_c, 8, 34, 0
23, 334080, Note_on_c, 8, 35, 0
23, 334080, Note_on_c, 8, 34, 82
23, 334080, Note_on_c, 8, 35, 90
23, 334200, Note_on_c, 8, 34, 0
23, 334200, Note_on_c, 8, 35, 0
23, 334200, Note_on_c, 8, 35, 91
23, 334200, Note_on_c, 8, 34, 77
23, 334320, Note_on_c, 8, 35, 0
23, 334320, Note_on_c, 8, 34, 0
23, 334320, Note_on_c, 8, 34, 80
23, 334320, Note_on_c, 8, 35, 83
23, 334440, Note_on_c, 8, 34, 0
23, 334440, Note_on_c, 8, 35, 0
23, 334440, Note_on_c, 8, 34, 103
23, 334440, Note_on_c, 8, 35, 104
23, 334560, Note_on_c, 8, 34, 0
23, 334560, Note_on_c, 8, 35, 0
23, 334560, Note_on_c, 8, 34, 102
23, 334560, Note_on_c, 8, 35, 100
23, 334680, Note_on_c, 8, 34, 0
23, 334680, Note_on_c, 8, 35, 0
23, 334680, Note_on_c, 8, 34, 98
23, 334680, Note_on_c, 8, 35, 109
23, 334800, Note_on_c, 8, 34, 0
23, 334800, Note_on_c, 8, 35, 0
23, 334800, Note_on_c, 8, 34, 102
23, 334800, Note_on_c, 8, 35, 107
23, 335280, Note_on_c, 8, 34, 0
23, 335280, Note_on_c, 8, 35, 0
23, 355920, Note_on_c, 8, 34, 55
23, 355920, Note_on_c, 8, 35, 53
23, 356040, Note_on_c, 8, 34, 0
23, 356040, Note_on_c, 8, 35, 0
23, 356040, Note_on_c, 8, 34, 55
23, 356040, Note_on_c, 8, 35, 46
23, 356160, Note_on_c, 8, 34, 0
23, 356160, Note_on_c, 8, 35, 0
23, 356160, Note_on_c, 8, 34, 55
23, 356160, Note_on_c, 8, 35, 54
23, 356280, Note_on_c, 8, 34, 0
23, 356280, Note_on_c, 8, 35, 0
23, 356280, Note_on_c, 8, 35, 53
23, 356280, Note_on_c, 8, 34, 49
23, 356400, Note_on_c, 8, 35, 0
23, 356400, Note_on_c, 8, 34, 0
23, 356400, Note_on_c, 8, 34, 71
23, 356400, Note_on_c, 8, 35, 58
23, 356520, Note_on_c, 8, 34, 0
23, 356520, Note_on_c, 8, 35, 0
23, 356520, Note_on_c, 8, 34, 74
23, 356520, Note_on_c, 8, 35, 68
23, 356640, Note_on_c, 8, 34, 0
23, 356640, Note_on_c, 8, 35, 0
23, 356640, Note_on_c, 8, 34, 63
23, 356640, Note_on_c, 8, 35, 61
23, 356760, Note_on_c, 8, 34, 0
23, 356760, Note_on_c, 8, 35, 0
23, 356760, Note_on_c, 8, 34, 71
23, 356760, Note_on_c, 8, 35, 70
23, 356880, Note_on_c, 8, 34, 0
23, 356880, Note_on_c, 8, 35, 0
23, 356880, Note_on_c, 8, 34, 76
23, 356880, Note_on_c, 8, 35, 76
23, 357000, Note_on_c, 8, 34, 0
23, 357000, Note_on_c, 8, 35, 0
23, 357000, Note_on_c, 8, 34, 85
23, 357000, Note_on_c, 8, 35, 77
23, 357120, Note_on_c, 8, 34, 0
23, 357120, Note_on_c, 8, 35, 0
23, 357120, Note_on_c, 8, 34, 88
23, 357120, Note_on_c, 8, 35, 79
23, 357240, Note_on_c, 8, 34, 0
23, 357240, Note_on_c, 8, 35, 0
23, 357240, Note_on_c, 8, 34, 92
23, 357240, Note_on_c, 8, 35, 81
23, 357360, Note_on_c, 8, 34, 0
23, 357360, Note_on_c, 8, 35, 0
23, 357360, Note_on_c, 8, 35, 82
23, 357360, Note_on_c, 8, 34, 99
23, 357480, Note_on_c, 8, 35, 0
23, 357480, Note_on_c, 8, 34, 0
23, 357480, Note_on_c, 8, 35, 104
23, 357480, Note_on_c, 8, 34, 88
23, 357600, Note_on_c, 8, 35, 0
23, 357600, Note_on_c, 8, 34, 0
23, 357600, Note_on_c, 8, 34, 87
23, 357600, Note_on_c, 8, 35, 98
23, 357720, Note_on_c, 8, 34, 0
23, 357720, Note_on_c, 8, 35, 0
23, 357720, Note_on_c, 8, 34, 92
23, 357720, Note_on_c, 8, 35, 107
23, 357840, Note_on_c, 8, 34, 0
23, 357840, Note_on_c, 8, 35, 0
23, 357840, Note_on_c, 8, 34, 110
23, 357840, Note_on_c, 8, 35, 99
23, 358320, Note_on_c, 8, 34, 0
23, 358320, Note_on_c, 8, 35, 0
23, 379440, Note_on_c, 8, 34, 52
23, 379440, Note_on_c, 8, 35, 50
23, 379560, Note_on_c, 8, 34, 0
23, 379560, Note_on_c, 8, 35, 0
23, 379560, Note_on_c, 8, 34, 34
23, 379560, Note_on_c, 8, 35, 52
23, 379680, Note_on_c, 8, 34, 0
23, 379680, Note_on_c, 8, 35, 0
23, 379680, Note_on_c, 8, 34, 52
23, 379680, Note_on_c, 8, 35, 47
23, 379800, Note_on_c, 8, 34, 0
23, 379800, Note_on_c, 8, 35, 0
23, 379800, Note_on_c, 8, 34, 59
23, 379800, Note_on_c, 8, 35, 59
23, 379920, Note_on_c, 8, 34, 0
23, 379920, Note_on_c, 8, 35, 0
23, 379920, Note_on_c, 8, 34, 58
23, 379920, Note_on_c, 8, 35, 48
23, 380040, Note_on_c, 8, 34, 0
23, 380040, Note_on_c, 8, 35, 0
23, 380040, Note_on_c, 8, 35, 54
23, 380040, Note_on_c, 8, 34, 47
23, 380160, Note_on_c, 8, 35, 0
23, 380160, Note_on_c, 8, 34, 0
23, 380160, Note_on_c, 8, 34, 66
23, 380160, Note_on_c, 8, 35, 66
23, 380280, Note_on_c, 8, 34, 0
23, 380280, Note_on_c, 8, 35, 0
23, 380280, Note_on_c, 8, 34, 67
23, 380280, Note_on_c, 8, 35, 52
23, 380400, Note_on_c, 8, 34, 0
23, 380400, Note_on_c, 8, 35, 0
23, 380400, Note_on_c, 8, 34, 58
23, 380400, Note_on_c, 8, 35, 63
23, 380520, Note_on_c, 8, 34, 0
23, 380520, Note_on_c, 8, 35, 0
23, 380520, Note_on_c, 8, 34, 54
23, 380520, Note_on_c, 8, 35, 58
23, 380640, Note_on_c, 8, 34, 0
23, 380640, Note_on_c, 8, 35, 0
23, 380640, Note_on_c, 8, 34, 66
23, 380640, Note_on_c, 8, 35, 69
23, 380760, Note_on_c, 8, 34, 0
23, 380760, Note_on_c, 8, 35, 0
23, 380760, Note_on_c, 8, 34, 73
23, 380760, Note_on_c, 8, 35, 63
23, 380880, Note_on_c, 8, 34, 0
23, 380880, Note_on_c, 8, 35, 0
23, 380880, Note_on_c, 8, 34, 72
23, 380880, Note_on_c, 8, 35, 70
23, 381000, Note_on_c, 8, 34, 0
23, 381000, Note_on_c, 8, 35, 0
23, 381000, Note_on_c, 8, 34, 71
23, 381000, Note_on_c, 8, 35, 74
23, 381120, Note_on_c, 8, 34, 0
23, 381120, Note_on_c, 8, 35, 0
23, 381120, Note_on_c, 8, 35, 76
23, 381120, Note_on_c, 8, 34, 82
23, 381240, Note_on_c, 8, 35, 0
23, 381240, Note_on_c, 8, 34, 0
23, 381240, Note_on_c, 8, 34, 78
23, 381240, Note_on_c, 8, 35, 86
23, 381360, Note_on_c, 8, 34, 0
23, 381360, Note_on_c, 8, 35, 0
23, 381360, Note_on_c, 8, 34, 81
23, 381360, Note_on_c, 8, 35, 90
23, 381480, Note_on_c, 8, 34, 0
23, 381480, Note_on_c, 8, 35, 0
23, 381480, Note_on_c, 8, 34, 85
23, 381480, Note_on_c, 8, 35, 92
23, 381600, Note_on_c, 8, 34, 0
23, 381600, Note_on_c, 8, 35, 0
23, 381600, Note_on_c, 8, 34, 90
23, 381600, Note_on_c, 8, 35, 88
23, 381720, Note_on_c, 8, 34, 0
23, 381720, Note_on_c, 8, 35, 0
23, 381720, Note_on_c, 8, 34, 79
23, 381720, Note_on_c, 8, 35, 83
23, 381840, Note_on_c, 8, 34, 0
23, 381840, Note_on_c, 8, 35, 0
23, 381840, Note_on_c, 8, 34, 85
23, 381840, Note_on_c, 8, 35, 93
23, 381960, Note_on_c, 8, 34, 0
23, 381960, Note_on_c, 8, 35, 0
23, 381960, Note_on_c, 8, 34, 101
23, 381960, Note_on_c, 8, 35, 89
23, 382080, Note_on_c, 8, 34, 0
23, 382080, Note_on_c, 8, 35, 0
23, 382080, Note_on_c, 8, 34, 101
23, 382080, Note_on_c, 8, 35, 101
23, 382200, Note_on_c, 8, 34, 0
23, 382200, Note_on_c, 8, 35, 0
23, 382200, Note_on_c, 8, 35, 99
23, 382200, Note_on_c, 8, 34, 91
23, 382320, Note_on_c, 8, 35, 0
23, 382320, Note_on_c, 8, 34, 0
23, 382320, Note_on_c, 8, 34, 100
23, 382320, Note_on_c, 8, 35, 94
23, 382800, Note_on_c, 8, 34, 0
23, 382800, Note_on_c, 8, 35, 0
23, 385680, Note_on_c, 8, 34, 18
23, 385680, Note_on_c, 8, 35, 25
23, 386160, Note_on_c, 8, 34, 0
23, 386160, Note_on_c, 8, 35, 0
23, 386160, Note_on_c, 8, 34, 19
23, 386160, Note_on_c, 8, 35, 16
23, 386640, Note_on_c, 8, 34, 0
23, 386640, Note_on_c, 8, 35, 0
23, 386640, Note_on_c, 8, 34, 19
23, 386640, Note_on_c, 8, 35, 25
23, 387120, Note_on_c, 8, 34, 0
23, 387120, Note_on_c, 8, 35, 0
23, 387120, Note_on_c, 8, 34, 25
23, 387120, Note_on_c, 8, 35, 30
23, 387600, Note_on_c, 8, 34, 0
23, 387600, Note_on_c, 8, 35, 0
23, 387600, Note_on_c, 8, 34, 22
23, 387600, Note_on_c, 8, 35, 19
23, 388080, Note_on_c, 8, 34, 0
23, 388080, Note_on_c, 8, 35, 0
23, 388080, Note_on_c, 8, 34, 20
23, 388080, Note_on_c, 8, 35, 28
23, 388560, Note_on_c, 8, 34, 0
23, 388560, Note_on_c, 8, 35, 0
23, 388560, Note_on_c, 8, 34, 15
23, 388560, Note_on_c, 8, 35, 25
23, 389040, Note_on_c, 8, 34, 0
23, 389040, Note_on_c, 8, 35, 0
23, 389040, Note_on_c, 8, 35, 14
23, 389040, Note_on_c, 8, 34, 24
23, 389520, Note_on_c, 8, 35, 0
23, 389520, Note_on_c, 8, 34, 0
23, 389520, Note_on_c, 8, 34, 17
23, 389520, Note_on_c, 8, 35, 31
23, 390000, Note_on_c, 8, 34, 0
23, 390000, Note_on_c, 8, 35, 0
23, 390000, Note_on_c, 8, 34, 26
23, 390000, Note_on_c, 8, 35, 31
23, 390480, Note_on_c, 8, 34, 0
23, 390480, Note_on_c, 8, 35, 0
23, 390480, Note_on_c, 8, 34, 20
23, 390480, Note_on_c, 8, 35, 17
23, 390960, Note_on_c, 8, 34, 0
23, 390960, Note_on_c, 8, 35, 0
23, 390960, Note_on_c, 8, 34, 31
23, 390960, Note_on_c, 8, 35, 25
23, 391440, Note_on_c, 8, 34, 0
23, 391440, Note_on_c, 8, 35, 0
23, 391440, Note_on_c, 8, 34, 23
23, 391440, Note_on_c, 8, 35, 18
23, 391920, Note_on_c, 8, 34, 0
23, 391920, Note_on_c, 8, 35, 0
23, 391920, Note_on_c, 8, 34, 29
23, 391920, Note_on_c, 8, 35, 29
23, 392400, Note_on_c, 8, 34, 0
23, 392400, Note_on_c, 8, 35, 0
23, 392400, Note_on_c, 8, 34, 16
23, 392400, Note_on_c, 8, 35, 30
23, 392880, Note_on_c, 8, 34, 0
23, 392880, Note_on_c, 8, 35, 0
23, 392880, Note_on_c, 8, 34, 30
23, 392880, Note_on_c, 8, 35, 21
23, 393360, Note_on_c, 8, 34, 0
23, 393360, Note_on_c, 8, 35, 0
23, 393360, Note_on_c, 8, 35, 19
23, 393360, Note_on_c, 8, 34, 18
23, 393840, Note_on_c, 8, 35, 0
23, 393840, Note_on_c, 8, 34, 0
23, 393840, Note_on_c, 8, 34, 24
23, 393840, Note_on_c, 8, 35, 15
23, 394320, Note_on_c, 8, 34, 0
23, 394320, Note_on_c, 8, 35, 0
23, 394320, Note_on_c, 8, 34, 23
23, 394320, Note_on_c, 8, 35, 26
23, 394800, Note_on_c, 8, 34, 0
23, 394800, Note_on_c, 8, 35, 0
23, 394800, Note_on_c, 8, 34, 20
23, 394800, Note_on_c, 8, 35, 16
23, 395280, Note_on_c, 8, 34, 0
23, 395280, Note_on_c, 8, 35, 0
23, 395280, Note_on_c, 8, 34, 27
23, 395280, Note_on_c, 8, 35, 21
23, 395760, Note_on_c, 8, 34, 0
23, 395760, Note_on_c, 8, 35, 0
23, 395760, Note_on_c, 8, 34, 19
23, 395760, Note_on_c, 8, 35, 28
23, 396240, Note_on_c, 8, 34, 0
23, 396240, Note_on_c, 8, 35, 0
23, 396240, Note_on_c, 8, 34, 22
23, 396240, Note_on_c, 8, 35, 28
23, 396720, Note_on_c, 8, 34, 0
23, 396720, Note_on_c, 8, 35, 0
23, 396720, Note_on_c, 8, 34, 22
23, 396720, Note_on_c, 8, 35, 24
23, 397200, Note_on_c, 8, 34, 0
23, 397200, Note_on_c, 8, 35, 0
23, 397200, Note_on_c, 8, 34, 25
23, 397200, Note_on_c, 8, 35, 26
23, 397680, Note_on_c, 8, 34, 0
23, 397680, Note_on_c, 8, 35, 0
23, 397680, Note_on_c, 8, 35, 22
23, 397680, Note_on_c, 8, 34, 28
23, 398160, Note_on_c, 8, 35, 0
23, 398160, Note_on_c, 8, 34, 0
23, 398160, Note_on_c, 8, 34, 15
23, 398160, Note_on_c, 8, 35, 24
23, 398640, Note_on_c, 8, 34, 0
23, 398640, Note_on_c, 8, 35, 0
23, 398640, Note_on_c, 8, 34, 15
23, 398640, Note_on_c, 8, 35, 22
23, 399120, Note_on_c, 8, 34, 0
23, 399120, Note_on_c, 8, 35, 0
23, 399120, Note_on_c, 8, 34, 29
23, 399120, Note_on_c, 8, 35, 15
23, 399600, Note_on_c, 8, 34, 0
23, 399600, Note_on_c, 8, 35, 0
23, 399600, Note_on_c, 8, 34, 23
23, 399600, Note_on_c, 8, 35, 24
23, 400080, Note_on_c, 8, 34, 0
23, 400080, Note_on_c, 8, 35, 0
23, 400080, Note_on_c, 8, 34, 22
23, 400080, Note_on_c, 8, 35, 26
23, 400560, Note_on_c, 8, 34, 0
23, 400560, Note_on_c, 8, 35, 0
23, 400560, Note_on_c, 8, 34, 29
23, 400560, Note_on_c, 8, 35, 28
23, 401040, Note_on_c, 8, 34, 0
23, 401040, Note_on_c, 8, 35, 0
23, 401040, Note_on_c, 8, 34, 24
23, 401040, Note_on_c, 8, 35, 18
23, 401520, Note_on_c, 8, 34, 0
23, 401520, Note_on_c, 8, 35, 0
23, 401520, Note_on_c, 8, 34, 22
23, 401520, Note_on_c, 8, 35, 31
23, 402000, Note_on_c, 8, 34, 0
23, 402000, Note_on_c, 8, 35, 0
23, 402000, Note_on_c, 8, 35, 24
23, 402000, Note_on_c, 8, 34, 18
23, 402480, Note_on_c, 8, 35, 0
23, 402480, Note_on_c, 8, 34, 0
23, 402480, Note_on_c, 8, 34, 17
23, 402480, Note_on_c, 8, 35, 25
23, 402960, Note_on_c, 8, 34, 0
23, 402960, Note_on_c, 8, 35, 0
23, 402960, Note_on_c, 8, 34, 28
23, 402960, Note_on_c, 8, 35, 24
23, 403440, Note_on_c, 8, 34, 0
23, 403440, Note_on_c, 8, 35, 0
23, 403440, Note_on_c, 8, 34, 18
23, 403440, Note_on_c, 8, 35, 22
23, 403920, Note_on_c, 8, 34, 0
23, 403920, Note_on_c, 8, 35, 0
23, 403920, Note_on_c, 8, 34, 32
23, 403920, Note_on_c, 8, 35, 20
23, 404400, Note_on_c, 8, 34, 0
23, 404400, Note_on_c, 8, 35, 0
23, 404400, Note_on_c, 8, 34, 26
23, 404400, Note_on_c, 8, 35, 16
23, 404880, Note_on_c, 8, 34, 0
23, 404880, Note_on_c, 8, 35, 0
23, 404880, Note_on_c, 8, 34, 18
23, 404880, Note_on_c, 8, 35, 32
23, 405360, Note_on_c, 8, 34, 0
23, 405360, Note_on_c, 8, 35, 0
23, 405360, Note_on_c, 8, 34, 31
23, 405360, Note_on_c, 8, 35, 26
23, 405840, Note_on_c, 8, 34, 0
23, 405840, Note_on_c, 8, 35, 0
23, 405840, Note_on_c, 8, 34, 31
23, 405840, Note_on_c, 8, 35, 21
23, 406320, Note_on_c, 8, 34, 0
23, 406320, Note_on_c, 8, 35, 0
23, 406320, Note_on_c, 8, 35, 25
23, 406320, Note_on_c, 8, 34, 17
23, 406800, Note_on_c, 8, 35, 0
23, 406800, Note_on_c, 8, 34, 0
23, 406800, Note_on_c, 8, 35, 23
23, 406800, Note_on_c, 8, 34, 15
23, 407280, Note_on_c, 8, 35, 0
23, 407280, Note_on_c, 8, 34, 0
23, 407280, Note_on_c, 8, 34, 29
23, 407280, Note_on_c, 8, 35, 28
23, 407760, Note_on_c, 8, 34, 0
23, 407760, Note_on_c, 8, 35, 0
23, 407760, Note_on_c, 8, 34, 33
23, 407760, Note_on_c, 8, 35, 19
23, 408240, Note_on_c, 8, 34, 0
23, 408240, Note_on_c, 8, 35, 0
23, 408240, Note_on_c, 8, 34, 24
23, 408240, Note_on_c, 8, 35, 27
23, 408720, Note_on_c, 8, 34, 0
23, 408720, Note_on_c, 8, 35, 0
23, 408720, Note_on_c, 8, 34, 21
23, 408720, Note_on_c, 8, 35, 32
23, 409200, Note_on_c, 8, 34, 0
23, 409200, Note_on_c, 8, 35, 0
23, 409200, Note_on_c, 8, 34, 26
23, 409200, Note_on_c, 8, 35, 28
23, 409680, Note_on_c, 8, 34, 0
23, 409680, Note_on_c, 8, 35, 0
23, 409680, Note_on_c, 8, 34, 33
23, 409680, Note_on_c, 8, 35, 22
23, 410160, Note_on_c, 8, 34, 0
23, 410160, Note_on_c, 8, 35, 0
23, 410160, Note_on_c, 8, 34, 14
23, 410160, Note_on_c, 8, 35, 23
23, 410640, Note_on_c, 8, 34, 0
23, 410640, Note_on_c, 8, 35, 0
23, 457680, Note_on_c, 8, 34, 92
23, 457680, Note_on_c, 8, 35, 85
23, 457920, Note_on_c, 8, 34, 0
23, 457920, Note_on_c, 8, 35, 0
23, 458160, Note_on_c, 8, 35, 98
23, 458160, Note_on_c, 8, 34, 87
23, 458400, Note_on_c, 8, 35, 0
23, 458400, Note_on_c, 8, 34, 0
23, 458640, Note_on_c, 8, 34, 88
23, 458640, Note_on_c, 8, 35, 78
23, 458880, Note_on_c, 8, 34, 0
23, 458880, Note_on_c, 8, 35, 0
23, 459120, Note_on_c, 8, 34, 86
23, 459120, Note_on_c, 8, 35, 94
23, 459360, Note_on_c, 8, 34, 0
23, 459360, Note_on_c, 8, 35, 0
23, 459600, Note_on_c, 8, 34, 85
23, 459600, Note_on_c, 8, 35, 85
23, 459840, Note_on_c, 8, 34, 0
23, 459840, Note_on_c, 8, 35, 0
23, 460080, Note_on_c, 8, 34, 89
23, 460080, Note_on_c, 8, 35, 84
23, 460320, Note_on_c, 8, 34, 0
23, 460320, Note_on_c, 8, 35, 0
23, 460560, Note_on_c, 8, 34, 95
23, 460560, Note_on_c, 8, 35, 96
23, 460800, Note_on_c, 8, 34, 0
23, 460800, Note_on_c, 8, 35, 0
23, 461040, Note_on_c, 8, 34, 96
23, 461040, Note_on_c, 8, 35, 80
23, 461280, Note_on_c, 8, 34, 0
23, 461280, Note_on_c, 8, 35, 0
23, 461520, Note_on_c, 8, 34, 94
23, 461520, Note_on_c, 8, 35, 94
23, 461760, Note_on_c, 8, 34, 0
23, 461760, Note_on_c, 8, 35, 0
23, 462000, Note_on_c, 8, 34, 79
23, 462000, Note_on_c, 8, 35, 88
23, 462240, Note_on_c, 8, 34, 0
23, 462240, Note_on_c, 8, 35, 0
23, 462480, Note_on_c, 8, 35, 82
23, 462480, Note_on_c, 8, 34, 80
23, 462720, Note_on_c, 8, 35, 0
23, 462720, Note_on_c, 8, 34, 0
23, 462960, Note_on_c, 8, 34, 95
23, 462960, Note_on_c, 8, 35, 87
23, 463200, Note_on_c, 8, 34, 0
23, 463200, Note_on_c, 8, 35, 0
23, 463440, Note_on_c, 8, 34, 88
23, 463440, Note_on_c, 8, 35, 82
23, 463680, Note_on_c, 8, 34, 0
23, 463680, Note_on_c, 8, 35, 0
23, 463920, Note_on_c, 8, 34, 89
23, 463920, Note_on_c, 8, 35, 88
23, 464160, Note_on_c, 8, 34, 0
23, 464160, Note_on_c, 8, 35, 0
23, 464400, Note_on_c, 8, 34, 80
23, 464400, Note_on_c, 8, 35, 92
23, 464640, Note_on_c, 8, 34, 0
23, 464640, Note_on_c, 8, 35, 0
23, 464880, Note_on_c, 8, 34, 93
23, 464880, Note_on_c, 8, 35, 82
23, 465120, Note_on_c, 8, 34, 0
23, 465120, Note_on_c, 8, 35, 0
23, 465360, Note_on_c, 8, 34, 85
23, 465360, Note_on_c, 8, 35, 93
23, 465600, Note_on_c, 8, 34, 0
23, 465600, Note_on_c, 8, 35, 0
23, 465840, Note_on_c, 8, 34, 98
23, 465840, Note_on_c, 8, 35, 84
23, 466080, Note_on_c, 8, 34, 0
23, 466080, Note_on_c, 8, 35, 0
23, 466320, Note_on_c, 8, 34, 89
23, 466320, Note_on_c, 8, 35, 93
23, 466560, Note_on_c, 8, 34, 0
23, 466560, Note_on_c, 8, 35, 0
23, 466800, Note_on_c, 8, 35, 82
23, 466800, Note_on_c, 8, 34, 94
23, 467040, Note_on_c, 8, 35, 0
23, 467040, Note_on_c, 8, 34, 0
23, 467280, Note_on_c, 8, 34, 49
23, 467280, Note_on_c, 8, 35, 50
23, 467760, Note_on_c, 8, 34, 0
23, 467760, Note_on_c, 8, 35, 0
23, 467760, Note_on_c, 8, 34, 44
23, 467760, Note_on_c, 8, 35, 58
23, 468240, Note_on_c, 8, 34, 0
23, 468240, Note_on_c, 8, 35, 0
23, 468240, Note_on_c, 8, 34, 57
23, 468240, Note_on_c, 8, 35, 56
23, 468720, Note_on_c, 8, 34, 0
23, 468720, Note_on_c, 8, 35, 0
23, 468720, Note_on_c, 8, 34, 54
23, 468720, Note_on_c, 8, 35, 45
23, 469200, Note_on_c, 8, 34, 0
23, 469200, Note_on_c, 8, 35, 0
23, 469200, Note_on_c, 8, 34, 43
23, 469200, Note_on_c, 8, 35, 50
23, 469680, Note_on_c, 8, 34, 0
23, 469680, Note_on_c, 8, 35, 0
23, 469680, Note_on_c, 8, 34, 49
23, 469680, Note_on_c, 8, 35, 51
23, 470160, Note_on_c, 8, 34, 0
23, 470160, Note_on_c, 8, 35, 0
23, 470160, Note_on_c, 8, 34, 59
23, 470160, Note_on_c, 8, 35, 49
23, 470640, Note_on_c, 8, 34, 0
23, 470640, Note_on_c, 8, 35, 0
23, 470640, Note_on_c, 8, 34, 41
23, 470640, Note_on_c, 8, 35, 57
23, 471120, Note_on_c, 8, 34, 0
23, 471120, Note_on_c, 8, 35, 0
23, 471120, Note_on_c, 8, 35, 52
23, 471120, Note_on_c, 8, 34, 39
23, 471600, Note_on_c, 8, 35, 0
23, 471600, Note_on_c, 8, 34, 0
23, 471600, Note_on_c, 8, 34, 49
23, 471600, Note_on_c, 8, 35, 40
23, 472080, Note_on_c, 8, 34, 0
23, 472080, Note_on_c, 8, 35, 0
23, 472080, Note_on_c, 8, 34, 58
23, 472080, Note_on_c, 8, 35, 41
23, 472560, Note_on_c, 8, 34, 0
23, 472560, Note_on_c, 8, 35, 0
23, 472560, Note_on_c, 8, 34, 43
23, 472560, Note_on_c, 8, 35, 59
23, 473040, Note_on_c, 8, 34, 0
23, 473040, Note_on_c, 8, 35, 0
23, 473040, Note_on_c, 8, 34, 58
23, 473040, Note_on_c, 8, 35, 50
23, 473520, Note_on_c, 8, 34, 0
23, 473520, Note_on_c, 8, 35, 0
23, 473520, Note_on_c, 8, 34, 44
23, 473520, Note_on_c, 8, 35, 50
23, 474000, Note_on_c, 8, 34, 0
23, 474000, Note_on_c, 8, 35, 0
23, 474000, Note_on_c, 8, 34, 59
23, 474000, Note_on_c, 8, 35, 43
23, 474480, Note_on_c, 8, 34, 0
23, 474480, Note_on_c, 8, 35, 0
23, 474480, Note_on_c, 8, 34, 54
23, 474480, Note_on_c, 8, 35, 50
23, 474960, Note_on_c, 8, 34, 0
23, 474960, Note_on_c, 8, 35, 0
23, 474960, Note_on_c, 8, 34, 54
23, 474960, Note_on_c, 8, 35, 40
23, 475440, Note_on_c, 8, 34, 0
23, 475440, Note_on_c, 8, 35, 0
23, 475440, Note_on_c, 8, 35, 52
23, 475440, Note_on_c, 8, 34, 43
23, 475920, Note_on_c, 8, 35, 0
23, 475920, Note_on_c, 8, 34, 0
23, 475920, Note_on_c, 8, 34, 53
23, 475920, Note_on_c, 8, 35, 45
23, 476400, Note_on_c, 8, 34, 0
23, 476400, Note_on_c, 8, 35, 0
23, 476400, Note_on_c, 8, 34, 55
23, 476400, Note_on_c, 8, 35, 44
23, 476880, Note_on_c, 8, 34, 0
23, 476880, Note_on_c, 8, 35, 0
23, 476880, Note_on_c, 8, 34, 59
23, 476880, Note_on_c, 8, 35, 48
23, 477360, Note_on_c, 8, 34, 0
23, 477360, Note_on_c, 8, 35, 0
23, 477360, Note_on_c, 8, 34, 51
23, 477360, Note_on_c, 8, 35, 53
23, 477840, Note_on_c, 8, 34, 0
23, 477840, Note_on_c, 8, 35, 0
23, 477840, Note_on_c, 8, 34, 33
23, 477840, Note_on_c, 8, 35, 49
23, 478320, Note_on_c, 8, 34, 0
23, 478320, Note_on_c, 8, 35, 0
23, 478320, Note_on_c, 8, 34, 35
23, 478320, Note_on_c, 8, 35, 40
23, 478800, Note_on_c, 8, 34, 0
23, 478800, Note_on_c, 8, 35, 0
23, 478800, Note_on_c, 8, 34, 47
23, 478800, Note_on_c, 8, 35, 37
23, 479280, Note_on_c, 8, 34, 0
23, 479280, Note_on_c, 8, 35, 0
23, 479280, Note_on_c, 8, 34, 47
23, 479280, Note_on_c, 8, 35, 42
23, 479760, Note_on_c, 8, 34, 0
23, 479760, Note_on_c, 8, 35, 0
23, 479760, Note_on_c, 8, 35, 46
23, 479760, Note_on_c, 8, 34, 40
23, 480240, Note_on_c, 8, 35, 0
23, 480240, Note_on_c, 8, 34, 0
23, 480240, Note_on_c, 8, 34, 47
23, 480240, Note_on_c, 8, 35, 39
23, 480720, Note_on_c, 8, 34, 0
23, 480720, Note_on_c, 8, 35, 0
23, 480720, Note_on_c, 8, 34, 38
23, 480720, Note_on_c, 8, 35, 42
23, 481200, Note_on_c, 8, 34, 0
23, 481200, Note_on_c, 8, 35, 0
23, 481200, Note_on_c, 8, 34, 46
23, 481200, Note_on_c, 8, 35, 36
23, 481680, Note_on_c, 8, 34, 0
23, 481680, Note_on_c, 8, 35, 0
23, 481680, Note_on_c, 8, 34, 46
23, 481680, Note_on_c, 8, 35, 34
23, 482160, Note_on_c, 8, 34, 0
23, 482160, Note_on_c, 8, 35, 0
23, 482160, Note_on_c, 8, 34, 45
23, 482160, Note_on_c, 8, 35, 43
23, 482640, Note_on_c, 8, 34, 0
23, 482640, Note_on_c, 8, 35, 0
23, 482640, Note_on_c, 8, 34, 36
23, 482640, Note_on_c, 8, 35, 39
23, 483120, Note_on_c, 8, 34, 0
23, 483120, Note_on_c, 8, 35, 0
23, 483120, Note_on_c, 8, 34, 37
23, 483120, Note_on_c, 8, 35, 45
23, 483600, Note_on_c, 8, 34, 0
23, 483600, Note_on_c, 8, 35, 0
23, 483600, Note_on_c, 8, 34, 47
23, 483600, Note_on_c, 8, 35, 47
23, 484080, Note_on_c, 8, 34, 0
23, 484080, Note_on_c, 8, 35, 0
23, 484080, Note_on_c, 8, 35, 34
23, 484080, Note_on_c, 8, 34, 32
23, 484560, Note_on_c, 8, 35, 0
23, 484560, Note_on_c, 8, 34, 0
23, 484560, Note_on_c, 8, 34, 31
23, 484560, Note_on_c, 8, 35, 43
23, 485040, Note_on_c, 8, 34, 0
23, 485040, Note_on_c, 8, 35, 0
23, 485040, Note_on_c, 8, 34, 48
23, 485040, Note_on_c, 8, 35, 36
23, 485520, Note_on_c, 8, 34, 0
23, 485520, Note_on_c, 8, 35, 0
23, 485520, Note_on_c, 8, 34, 46
23, 485520, Note_on_c, 8, 35, 32
23, 486000, Note_on_c, 8, 34, 0
23, 486000, Note_on_c, 8, 35, 0
23, 486000, Note_on_c, 8, 34, 38
23, 486000, Note_on_c, 8, 35, 41
23, 486480, Note_on_c, 8, 34, 0
23, 486480, Note_on_c, 8, 35, 0
23, 486480, Note_on_c, 8, 34, 44
23, 486480, Note_on_c, 8, 35, 43
23, 486960, Note_on_c, 8, 34, 0
23, 486960, Note_on_c, 8, 35, 0
23, 488400, Note_on_c, 8, 34, 41
23, 488400, Note_on_c, 8, 35, 39
23, 488880, Note_on_c, 8, 34, 0
23, 488880, Note_on_c, 8, 35, 0
23, 488880, Note_on_c, 8, 34, 39
23, 488880, Note_on_c, 8, 35, 32
23, 489360, Note_on_c, 8, 34, 0
23, 489360, Note_on_c, 8, 35, 0
23, 563040, Note_on_c, 8, 34, 98
23, 563040, Note_on_c, 8, 35, 80
23, 563280, Note_on_c, 8, 34, 0
23, 563280, Note_on_c, 8, 35, 0
23, 563400, Note_on_c, 8, 35, 89
23, 563400, Note_on_c, 8, 34, 81
23, 563640, Note_on_c, 8, 35, 0
23, 563640, Note_on_c, 8, 34, 0
23, 563640, Note_on_c, 8, 35, 80
23, 563640, Note_on_c, 8, 34, 98
23, 563880, Note_on_c, 8, 35, 0
23, 563880, Note_on_c, 8, 34, 0
23, 564240, Note_on_c, 8, 34, 93
23, 564240, Note_on_c, 8, 35, 81
23, 564480, Note_on_c, 8, 34, 0
23, 564480, Note_on_c, 8, 35, 0
23, 565680, Note_on_c, 8, 34, 84
23, 565680, Note_on_c, 8, 35, 92
23, 565920, Note_on_c, 8, 34, 0
23, 565920, Note_on_c, 8, 35, 0
23, 568080, Note_on_c, 8, 34, 80
23, 568080, Note_on_c, 8, 35, 86
23, 568320, Note_on_c, 8, 34, 0
23, 568320, Note_on_c, 8, 35, 0
23, 569520, Note_on_c, 8, 34, 97
23, 569520, Note_on_c, 8, 35, 90
23, 569760, Note_on_c, 8, 34, 0
23, 569760, Note_on_c, 8, 35, 0
23, 571920, Note_on_c, 8, 34, 84
23, 571920, Note_on_c, 8, 35, 87
23, 572160, Note_on_c, 8, 34, 0
23, 572160, Note_on_c, 8, 35, 0
23, 573360, Note_on_c, 8, 34, 94
23, 573360, Note_on_c, 8, 35, 87
23, 573600, Note_on_c, 8, 34, 0
23, 573600, Note_on_c, 8, 35, 0
23, 575760, Note_on_c, 8, 34, 98
23, 575760, Note_on_c, 8, 35, 87
23, 576000, Note_on_c, 8, 34, 0
23, 576000, Note_on_c, 8, 35, 0
23, 577680, Note_on_c, 8, 34, 79
23, 577680, Note_on_c, 8, 35, 93
23, 577920, Note_on_c, 8, 34, 0
23, 577920, Note_on_c, 8, 35, 0
23, 580080, Note_on_c, 8, 35, 95
23, 580080, Note_on_c, 8, 34, 92
23, 580320, Note_on_c, 8, 35, 0
23, 580320, Note_on_c, 8, 34, 0
23, 582480, Note_on_c, 8, 34, 94
23, 582480, Note_on_c, 8, 35, 97
23, 582720, Note_on_c, 8, 34, 0
23, 582720, Note_on_c, 8, 35, 0
23, 584400, Note_on_c, 8, 34, 88
23, 584400, Note_on_c, 8, 35, 97
23, 584640, Note_on_c, 8, 34, 0
23, 584640, Note_on_c, 8, 35, 0
23, 586320, Note_on_c, 8, 34, 86
23, 586320, Note_on_c, 8, 35, 93
23, 586560, Note_on_c, 8, 34, 0
23, 586560, Note_on_c, 8, 35, 0
23, 588240, Note_on_c, 8, 34, 88
23, 588240, Note_on_c, 8, 35, 89
23, 588480, Note_on_c, 8, 34, 0
23, 588480, Note_on_c, 8, 35, 0
23, 589680, Note_on_c, 8, 34, 93
23, 589680, Note_on_c, 8, 35, 82
23, 589920, Note_on_c, 8, 34, 0
23, 589920, Note_on_c, 8, 35, 0
23, 592080, Note_on_c, 8, 34, 84
23, 592080, Note_on_c, 8, 35, 83
23, 592320, Note_on_c, 8, 34, 0
23, 592320, Note_on_c, 8, 35, 0
23, 594480, Note_on_c, 8, 34, 82
23, 594480, Note_on_c, 8, 35, 92
23, 594720, Note_on_c, 8, 34, 0
23, 594720, Note_on_c, 8, 35, 0
23, 596880, Note_on_c, 8, 34, 93
23, 596880, Note_on_c, 8, 35, 96
23, 597120, Note_on_c, 8, 34, 0
23, 597120, Note_on_c, 8, 35, 0
23, 599280, Note_on_c, 8, 35, 79
23, 599280, Note_on_c, 8, 34, 95
23, 599520, Note_on_c, 8, 35, 0
23, 599520, Note_on_c, 8, 34, 0
23, 601560, Note_on_c, 8, 34, 85
23, 601560, Note_on_c, 8, 35, 94
23, 601680, Note_on_c, 8, 34, 0
23, 601680, Note_on_c, 8, 35, 0
23, 602280, Note_on_c, 8, 34, 96
23, 602280, Note_on_c, 8, 35, 97
23, 602400, Note_on_c, 8, 34, 0
23, 602400, Note_on_c, 8, 35, 0
23, 603480, Note_on_c, 8, 34, 80
23, 603480, Note_on_c, 8, 35, 83
23, 603600, Note_on_c, 8, 34, 0
23, 603600, Note_on_c, 8, 35, 0
23, 605880, Note_on_c, 8, 34, 86
23, 605880, Note_on_c, 8, 35, 93
23, 606120, Note_on_c, 8, 34, 0
23, 606120, Note_on_c, 8, 35, 0
23, 608280, Note_on_c, 8, 34, 96
23, 608280, Note_on_c, 8, 35, 94
23, 608520, Note_on_c, 8, 34, 0
23, 608520, Note_on_c, 8, 35, 0
23, 610680, Note_on_c, 8, 34, 92
23, 610680, Note_on_c, 8, 35, 87
23, 610920, Note_on_c, 8, 34, 0
23, 610920, Note_on_c, 8, 35, 0
23, 613080, Note_on_c, 8, 34, 96
23, 613080, Note_on_c, 8, 35, 83
23, 613320, Note_on_c, 8, 34, 0
23, 613320, Note_on_c, 8, 35, 0
23, 615480, Note_on_c, 8, 34, 94
23, 615480, Note_on_c, 8, 35, 82
23, 615720, Note_on_c, 8, 34, 0
23, 615720, Note_on_c, 8, 35, 0
23, 617880, Note_on_c, 8, 35, 85
23, 617880, Note_on_c, 8, 34, 91
23, 618120, Note_on_c, 8, 35, 0
23, 618120, Note_on_c, 8, 34, 0
23, 620280, Note_on_c, 8, 34, 96
23, 620280, Note_on_c, 8, 35, 87
23, 620520, Note_on_c, 8, 34, 0
23, 620520, Note_on_c, 8, 35, 0
23, 622680, Note_on_c, 8, 34, 86
23, 622680, Note_on_c, 8, 35, 78
23, 622920, Note_on_c, 8, 34, 0
23, 622920, Note_on_c, 8, 35, 0
23, 625080, Note_on_c, 8, 34, 91
23, 625080, Note_on_c, 8, 35, 95
23, 625320, Note_on_c, 8, 34, 0
23, 625320, Note_on_c, 8, 35, 0
23, 627480, Note_on_c, 8, 34, 94
23, 627480, Note_on_c, 8, 35, 92
23, 627720, Note_on_c, 8, 34, 0
23, 627720, Note_on_c, 8, 35, 0
23, 628320, Note_on_c, 8, 34, 80
23, 628320, Note_on_c, 8, 35, 92
23, 628440, Note_on_c, 8, 34, 0
23, 628440, Note_on_c, 8, 35, 0
23, 629040, Note_on_c, 8, 34, 98
23, 629040, Note_on_c, 8, 35, 97
23, 629160, Note_on_c, 8, 34, 0
23, 629160, Note_on_c, 8, 35, 0
23, 630120, Note_on_c, 8, 34, 89
23, 630120, Note_on_c, 8, 35, 87
23, 630240, Note_on_c, 8, 34, 0
23, 630240, Note_on_c, 8, 35, 0
23, 631200, Note_on_c, 8, 34, 90
23, 631200, Note_on_c, 8, 35, 89
23, 631320, Note_on_c, 8, 34, 0
23, 631320, Note_on_c, 8, 35, 0
23, 631920, Note_on_c, 8, 35, 78
23, 631920, Note_on_c, 8, 34, 97
23, 632040, Note_on_c, 8, 35, 0
23, 632040, Note_on_c, 8, 34, 0
23, 632640, Note_on_c, 8, 34, 87
23, 632640, Note_on_c, 8, 35, 88
23, 632880, Note_on_c, 8, 34, 0
23, 632880, Note_on_c, 8, 35, 0
23, 636480, Note_on_c, 8, 34, 72
23, 636480, Note_on_c, 8, 35, 83
23, 636600, Note_on_c, 8, 34, 0
23, 636600, Note_on_c, 8, 35, 0
23, 637560, Note_on_c, 8, 34, 69
23, 637560, Note_on_c, 8, 35, 75
23, 637680, Note_on_c, 8, 34, 0
23, 637680, Note_on_c, 8, 35, 0
23, 638640, Note_on_c, 8, 34, 76
23, 638640, Note_on_c, 8, 35, 78
23, 638760, Note_on_c, 8, 34, 0
23, 638760, Note_on_c, 8, 35, 0
23, 639360, Note_on_c, 8, 34, 88
23, 639360, Note_on_c, 8, 35, 90
23, 639480, Note_on_c, 8, 34, 0
23, 639480, Note_on_c, 8, 35, 0
23, 639840, Note_on_c, 8, 34, 106
23, 639840, Note_on_c, 8, 35, 96
23, 639960, Note_on_c, 8, 34, 0
23, 639960, Note_on_c, 8, 35, 0
23, 641040, Note_on_c, 8, 34, 102
23, 641040, Note_on_c, 8, 35, 99
23, 641160, Note_on_c, 8, 34, 0
23, 641160, Note_on_c, 8, 35, 0
23, 645240, Note_on_c, 8, 34, 108
23, 645240, Note_on_c, 8, 35, 99
23, 645360, Note_on_c, 8, 34, 0
23, 645360, Note_on_c, 8, 35, 0
23, 646560, Note_on_c, 8, 35, 92
23, 646560, Note_on_c, 8, 34, 101
23, 646680, Note_on_c, 8, 35, 0
23, 646680, Note_on_c, 8, 34, 0
23, 647160, Note_on_c, 8, 34, 107
23, 647160, Note_on_c, 8, 35, 111
23, 647280, Note_on_c, 8, 34, 0
23, 647280, Note_on_c, 8, 35, 0
23, 647880, Note_on_c, 8, 34, 93
23, 647880, Note_on_c, 8, 35, 98
23, 648000, Note_on_c, 8, 34, 0
23, 648000, Note_on_c, 8, 35, 0
23, 648720, Note_on_c, 8, 34, 104
23, 648720, Note_on_c, 8, 35, 103
23, 648840, Note_on_c, 8, 34, 0
23, 648840, Note_on_c, 8, 35, 0
23, 648960, Note_on_c, 8, 34, 96
23, 648960, Note_on_c, 8, 35, 94
23, 649080, Note_on_c, 8, 34, 0
23, 649080, Note_on_c, 8, 35, 0
23, 649200, Note_on_c, 8, 34, 92
23, 649200, Note_on_c, 8, 35, 97
23, 649320, Note_on_c, 8, 34, 0
23, 649320, Note_on_c, 8, 35, 0
23, 649440, Note_on_c, 8, 34, 110
23, 649440, Note_on_c, 8, 35, 95
23, 649560, Note_on_c, 8, 34, 0
23, 649560, Note_on_c, 8, 35, 0
23, 649680, Note_on_c, 8, 34, 104
23, 649680, Note_on_c, 8, 35, 108
23, 649800, Note_on_c, 8, 34, 0
23, 649800, Note_on_c, 8, 35, 0
23, 650280, Note_on_c, 8, 34, 94
23, 650280, Note_on_c, 8, 35, 99
23, 650400, Note_on_c, 8, 34, 0
23, 650400, Note_on_c, 8, 35, 0
23, 650520, Note_on_c, 8, 35, 102
23, 650520, Note_on_c, 8, 34, 92
23, 650640, Note_on_c, 8, 35, 0
23, 650640, Note_on_c, 8, 34, 0
23, 650760, Note_on_c, 8, 34, 93
23, 650760, Note_on_c, 8, 35, 109
23, 650880, Note_on_c, 8, 34, 0
23, 650880, Note_on_c, 8, 35, 0
23, 651000, Note_on_c, 8, 34, 100
23, 651000, Note_on_c, 8, 35, 102
23, 651120, Note_on_c, 8, 34, 0
23, 651120, Note_on_c, 8, 35, 0
23, 651240, Note_on_c, 8, 34, 108
23, 651240, Note_on_c, 8, 35, 100
23, 651360, Note_on_c, 8, 34, 0
23, 651360, Note_on_c, 8, 35, 0
23, 651480, Note_on_c, 8, 34, 91
23, 651480, Note_on_c, 8, 35, 106
23, 651600, Note_on_c, 8, 34, 0
23, 651600, Note_on_c, 8, 35, 0
23, 651720, Note_on_c, 8, 34, 106
23, 651720, Note_on_c, 8, 35, 102
23, 651840, Note_on_c, 8, 34, 0
23, 651840, Note_on_c, 8, 35, 0
23, 651960, Note_on_c, 8, 34, 92
23, 651960, Note_on_c, 8, 35, 92
23, 652080, Note_on_c, 8, 34, 0
23, 652080, Note_on_c, 8, 35, 0
23, 652200, Note_on_c, 8, 34, 107
23, 652200, Note_on_c, 8, 35, 101
23, 652320, Note_on_c, 8, 34, 0
23, 652320, Note_on_c, 8, 35, 0
23, 652440, Note_on_c, 8, 34, 103
23, 652440, Note_on_c, 8, 35, 105
23, 652560, Note_on_c, 8, 34, 0
23, 652560, Note_on_c, 8, 35, 0
23, 652680, Note_on_c, 8, 35, 98
23, 652680, Note_on_c, 8, 34, 104
23, 652800, Note_on_c, 8, 35, 0
23, 652800, Note_on_c, 8, 34, 0
23, 652920, Note_on_c, 8, 34, 108
23, 652920, Note_on_c, 8, 35, 93
23, 653040, Note_on_c, 8, 34, 0
23, 653040, Note_on_c, 8, 35, 0
23, 653160, Note_on_c, 8, 34, 96
23, 653160, Note_on_c, 8, 35, 94
23, 653280, Note_on_c, 8, 34, 0
23, 653280, Note_on_c, 8, 35, 0
23, 653400, Note_on_c, 8, 34, 98
23, 653400, Note_on_c, 8, 35, 106
23, 653520, Note_on_c, 8, 34, 0
23, 653520, Note_on_c, 8, 35, 0
23, 653640, Note_on_c, 8, 34, 96
23, 653640, Note_on_c, 8, 35, 91
23, 653760, Note_on_c, 8, 34, 0
23, 653760, Note_on_c, 8, 35, 0
23, 653880, Note_on_c, 8, 34, 94
23, 653880, Note_on_c, 8, 35, 99
23, 654000, Note_on_c, 8, 34, 0
23, 654000, Note_on_c, 8, 35, 0
23, 654120, Note_on_c, 8, 34, 99
23, 654120, Note_on_c, 8, 35, 95
23, 654240, Note_on_c, 8, 34, 0
23, 654240, Note_on_c, 8, 35, 0
23, 654360, Note_on_c, 8, 34, 106
23, 654360, Note_on_c, 8, 35, 102
23, 654480, Note_on_c, 8, 34, 0
23, 654480, Note_on_c, 8, 35, 0
23, 654600, Note_on_c, 8, 34, 98
23, 654600, Note_on_c, 8, 35, 95
23, 654720, Note_on_c, 8, 34, 0
23, 654720, Note_on_c, 8, 35, 0
23, 658080, Note_on_c, 8, 35, 92
23, 658080, Note_on_c, 8, 34, 103
23, 658200, Note_on_c, 8, 35, 0
23, 658200, Note_on_c, 8, 34, 0
23, 658200, End_track
24, 0, Start_track
24, 0, Title_t, "Tam-Tam"
24, 0, MIDI_port, 0
24, 0, Program_c, 9, 0
24, 0, Control_c, 9, 7, 96
24, 0, Control_c, 9, 91, 127
24, 198730, Control_c, 9, 99, 24
24, 198730, Control_c, 9, 98, 52
24, 198731, Control_c, 9, 6, 57
24, 198731, Control_c, 9, 38, 0
24, 204086, Control_c, 9, 99, 22
24, 204087, Control_c, 9, 98, 52
24, 204087, Control_c, 9, 6, 0
24, 204088, Control_c, 9, 38, 0
24, 209276, Control_c, 9, 99, 23
24, 209276, Control_c, 9, 98, 52
24, 209277, Control_c, 9, 6, 48
24, 209277, Control_c, 9, 38, 0
24, 210027, Note_on_c, 9, 52, 109
24, 210387, Note_on_c, 9, 52, 0
24, 224903, Note_on_c, 9, 52, 107
24, 225263, Note_on_c, 9, 52, 0
24, 229694, Note_on_c, 9, 52, 108
24, 230054, Note_on_c, 9, 52, 0
24, 234728, Note_on_c, 9, 52, 118
24, 235088, Note_on_c, 9, 52, 0
24, 290407, Note_on_c, 9, 52, 112
24, 290767, Note_on_c, 9, 52, 0
24, 457706, Note_on_c, 9, 52, 79
24, 457946, Note_on_c, 9, 52, 0
24, 458188, Note_on_c, 9, 52, 72
24, 458428, Note_on_c, 9, 52, 0
24, 458667, Note_on_c, 9, 52, 65
24, 458907, Note_on_c, 9, 52, 0
24, 459125, Note_on_c, 9, 52, 67
24, 459365, Note_on_c, 9, 52, 0
24, 459602, Note_on_c, 9, 52, 80
24, 459842, Note_on_c, 9, 52, 0
24, 460099, Note_on_c, 9, 52, 83
24, 460339, Note_on_c, 9, 52, 0
24, 460564, Note_on_c, 9, 52, 65
24, 460804, Note_on_c, 9, 52, 0
24, 461050, Note_on_c, 9, 52, 72
24, 461290, Note_on_c, 9, 52, 0
24, 461546, Note_on_c, 9, 52, 78
24, 461786, Note_on_c, 9, 52, 0
24, 462017, Note_on_c, 9, 52, 79
24, 462257, Note_on_c, 9, 52, 0
24, 462508, Note_on_c, 9, 52, 68
24, 462748, Note_on_c, 9, 52, 0
24, 462968, Note_on_c, 9, 52, 82
24, 463208, Note_on_c, 9, 52, 0
24, 463457, Note_on_c, 9, 52, 65
24, 463697, Note_on_c, 9, 52, 0
24, 463948, Note_on_c, 9, 52, 70
24, 464188, Note_on_c, 9, 52, 0
24, 464421, Note_on_c, 9, 52, 67
24, 464661, Note_on_c, 9, 52, 0
24, 464889, Note_on_c, 9, 52, 74
24, 465129, Note_on_c, 9, 52, 0
24, 465382, Note_on_c, 9, 52, 71
24, 465622, Note_on_c, 9, 52, 0
24, 465857, Note_on_c, 9, 52, 78
24, 466097, Note_on_c, 9, 52, 0
24, 466332, Note_on_c, 9, 52, 77
24, 466572, Note_on_c, 9, 52, 0
24, 466824, Note_on_c, 9, 52, 74
24, 467064, Note_on_c, 9, 52, 0
24, 515287, Note_on_c, 9, 52, 110
24, 515647, Note_on_c, 9, 52, 0
24, 565449, Note_on_c, 9, 52, 118
24, 565689, Note_on_c, 9, 52, 0
24, 567855, Note_on_c, 9, 52, 103
24, 568095, Note_on_c, 9, 52, 0
24, 569291, Note_on_c, 9, 52, 106
24, 569531, Note_on_c, 9, 52, 0
24, 571686, Note_on_c, 9, 52, 106
24, 571926, Note_on_c, 9, 52, 0
24, 573138, Note_on_c, 9, 52, 106
24, 573378, Note_on_c, 9, 52, 0
24, 575546, Note_on_c, 9, 52, 111
24, 575786, Note_on_c, 9, 52, 0
24, 577461, Note_on_c, 9, 52, 111
24, 577701, Note_on_c, 9, 52, 0
24, 579849, Note_on_c, 9, 52, 116
24, 580089, Note_on_c, 9, 52, 0
24, 582250, Note_on_c, 9, 52, 113
24, 582490, Note_on_c, 9, 52, 0
24, 584165, Note_on_c, 9, 52, 115
24, 584405, Note_on_c, 9, 52, 0
24, 586087, Note_on_c, 9, 52, 108
24, 586327, Note_on_c, 9, 52, 0
24, 588009, Note_on_c, 9, 52, 100
24, 588249, Note_on_c, 9, 52, 0
24, 589441, Note_on_c, 9, 52, 116
24, 589681, Note_on_c, 9, 52, 0
24, 591844, Note_on_c, 9, 52, 100
24, 592084, Note_on_c, 9, 52, 0
24, 594248, Note_on_c, 9, 52, 103
24, 594488, Note_on_c, 9, 52, 0
24, 596647, Note_on_c, 9, 52, 106
24, 596887, Note_on_c, 9, 52, 0
24, 599049, Note_on_c, 9, 52, 109
24, 599289, Note_on_c, 9, 52, 0
24, 601443, Note_on_c, 9, 52, 101
24, 601563, Note_on_c, 9, 52, 0
24, 605662, Note_on_c, 9, 52, 108
24, 605902, Note_on_c, 9, 52, 0
24, 608054, Note_on_c, 9, 52, 108
24, 608294, Note_on_c, 9, 52, 0
24, 610465, Note_on_c, 9, 52, 113
24, 610705, Note_on_c, 9, 52, 0
24, 612864, Note_on_c, 9, 52, 112
24, 613104, Note_on_c, 9, 52, 0
24, 615242, Note_on_c, 9, 52, 102
24, 615482, Note_on_c, 9, 52, 0
24, 617658, Note_on_c, 9, 52, 102
24, 617898, Note_on_c, 9, 52, 0
24, 620065, Note_on_c, 9, 52, 108
24, 620305, Note_on_c, 9, 52, 0
24, 622449, Note_on_c, 9, 52, 112
24, 622689, Note_on_c, 9, 52, 0
24, 624866, Note_on_c, 9, 52, 110
24, 625106, Note_on_c, 9, 52, 0
24, 627268, Note_on_c, 9, 52, 101
24, 627508, Note_on_c, 9, 52, 0
24, 627508, End_track
25, 0, Start_track
25, 0, Title_t, "Tamburino"
25, 0, MIDI_port, 0
25, 385945, Note_on_c, 9, 54, 48
25, 386185, Note_on_c, 9, 54, 0
25, 386408, Note_on_c, 9, 54, 46
25, 386648, Note_on_c, 9, 54, 0
25, 386885, Note_on_c, 9, 54, 47
25, 387125, Note_on_c, 9, 54, 0
25, 387382, Note_on_c, 9, 54, 57
25, 387622, Note_on_c, 9, 54, 0
25, 387847, Note_on_c, 9, 54, 51
25, 388087, Note_on_c, 9, 54, 0
25, 388330, Note_on_c, 9, 54, 53
25, 388570, Note_on_c, 9, 54, 0
25, 388807, Note_on_c, 9, 54, 46
25, 389047, Note_on_c, 9, 54, 0
25, 389280, Note_on_c, 9, 54, 39
25, 389520, Note_on_c, 9, 54, 0
25, 389786, Note_on_c, 9, 54, 41
25, 390026, Note_on_c, 9, 54, 0
25, 390248, Note_on_c, 9, 54, 54
25, 390488, Note_on_c, 9, 54, 0
25, 390747, Note_on_c, 9, 54, 57
25, 390987, Note_on_c, 9, 54, 0
25, 391213, Note_on_c, 9, 54, 39
25, 391453, Note_on_c, 9, 54, 0
25, 391708, Note_on_c, 9, 54, 46
25, 391948, Note_on_c, 9, 54, 0
25, 392181, Note_on_c, 9, 54, 52
25, 392421, Note_on_c, 9, 54, 0
25, 392668, Note_on_c, 9, 54, 53
25, 392908, Note_on_c, 9, 54, 0
25, 393141, Note_on_c, 9, 54, 42
25, 393381, Note_on_c, 9, 54, 0
25, 393622, Note_on_c, 9, 54, 56
25, 393862, Note_on_c, 9, 54, 0
25, 394081, Note_on_c, 9, 54, 39
25, 394321, Note_on_c, 9, 54, 0
25, 394576, Note_on_c, 9, 54, 44
25, 394816, Note_on_c, 9, 54, 0
25, 395047, Note_on_c, 9, 54, 41
25, 395287, Note_on_c, 9, 54, 0
25, 395534, Note_on_c, 9, 54, 48
25, 395774, Note_on_c, 9, 54, 0
25, 396007, Note_on_c, 9, 54, 45
25, 396247, Note_on_c, 9, 54, 0
25, 396485, Note_on_c, 9, 54, 52
25, 396725, Note_on_c, 9, 54, 0
25, 396972, Note_on_c, 9, 54, 51
25, 397212, Note_on_c, 9, 54, 0
25, 397445, Note_on_c, 9, 54, 48
25, 397685, Note_on_c, 9, 54, 0
25, 397941, Note_on_c, 9, 54, 49
25, 398181, Note_on_c, 9, 54, 0
25, 398426, Note_on_c, 9, 54, 57
25, 398666, Note_on_c, 9, 54, 0
25, 398890, Note_on_c, 9, 54, 42
25, 399130, Note_on_c, 9, 54, 0
25, 399383, Note_on_c, 9, 54, 45
25, 399623, Note_on_c, 9, 54, 0
25, 399865, Note_on_c, 9, 54, 45
25, 400105, Note_on_c, 9, 54, 0
25, 400332, Note_on_c, 9, 54, 45
25, 400572, Note_on_c, 9, 54, 0
25, 400824, Note_on_c, 9, 54, 50
25, 401064, Note_on_c, 9, 54, 0
25, 401281, Note_on_c, 9, 54, 50
25, 401521, Note_on_c, 9, 54, 0
25, 401781, Note_on_c, 9, 54, 55
25, 402021, Note_on_c, 9, 54, 0
25, 402253, Note_on_c, 9, 54, 52
25, 402493, Note_on_c, 9, 54, 0
25, 402745, Note_on_c, 9, 54, 54
25, 402985, Note_on_c, 9, 54, 0
25, 403205, Note_on_c, 9, 54, 47
25, 403445, Note_on_c, 9, 54, 0
25, 403700, Note_on_c, 9, 54, 39
25, 403940, Note_on_c, 9, 54, 0
25, 404168, Note_on_c, 9, 54, 55
25, 404408, Note_on_c, 9, 54, 0
25, 404645, Note_on_c, 9, 54, 39
25, 404885, Note_on_c, 9, 54, 0
25, 405146, Note_on_c, 9, 54, 42
25, 405386, Note_on_c, 9, 54, 0
25, 405605, Note_on_c, 9, 54, 45
25, 405845, Note_on_c, 9, 54, 0
25, 406104, Note_on_c, 9, 54, 48
25, 406344, Note_on_c, 9, 54, 0
25, 406582, Note_on_c, 9, 54, 40
25, 406822, Note_on_c, 9, 54, 0
25, 407057, Note_on_c, 9, 54, 47
25, 407297, Note_on_c, 9, 54, 0
25, 407520, Note_on_c, 9, 54, 47
25, 407760, Note_on_c, 9, 54, 0
25, 408002, Note_on_c, 9, 54, 52
25, 408242, Note_on_c, 9, 54, 0
25, 408482, Note_on_c, 9, 54, 51
25, 408722, Note_on_c, 9, 54, 0
25, 408981, Note_on_c, 9, 54, 41
25, 409221, Note_on_c, 9, 54, 0
25, 409467, Note_on_c, 9, 54, 41
25, 409707, Note_on_c, 9, 54, 0
25, 409944, Note_on_c, 9, 54, 47
25, 410184, Note_on_c, 9, 54, 0
25, 410422, Note_on_c, 9, 54, 51
25, 410662, Note_on_c, 9, 54, 0
25, 457931, Note_on_c, 9, 54, 49
25, 458171, Note_on_c, 9, 54, 0
25, 458401, Note_on_c, 9, 54, 40
25, 458641, Note_on_c, 9, 54, 0
25, 458898, Note_on_c, 9, 54, 41
25, 459138, Note_on_c, 9, 54, 0
25, 459369, Note_on_c, 9, 54, 42
25, 459609, Note_on_c, 9, 54, 0
25, 459853, Note_on_c, 9, 54, 55
25, 460093, Note_on_c, 9, 54, 0
25, 460331, Note_on_c, 9, 54, 39
25, 460571, Note_on_c, 9, 54, 0
25, 460815, Note_on_c, 9, 54, 59
25, 461055, Note_on_c, 9, 54, 0
25, 461298, Note_on_c, 9, 54, 59
25, 461538, Note_on_c, 9, 54, 0
25, 461769, Note_on_c, 9, 54, 42
25, 462009, Note_on_c, 9, 54, 0
25, 462258, Note_on_c, 9, 54, 40
25, 462498, Note_on_c, 9, 54, 0
25, 462746, Note_on_c, 9, 54, 48
25, 462986, Note_on_c, 9, 54, 0
25, 463211, Note_on_c, 9, 54, 48
25, 463451, Note_on_c, 9, 54, 0
25, 463698, Note_on_c, 9, 54, 40
25, 463938, Note_on_c, 9, 54, 0
25, 464184, Note_on_c, 9, 54, 53
25, 464424, Note_on_c, 9, 54, 0
25, 464660, Note_on_c, 9, 54, 55
25, 464900, Note_on_c, 9, 54, 0
25, 465120, Note_on_c, 9, 54, 49
25, 465360, Note_on_c, 9, 54, 0
25, 465605, Note_on_c, 9, 54, 44
25, 465845, Note_on_c, 9, 54, 0
25, 466083, Note_on_c, 9, 54, 45
25, 466323, Note_on_c, 9, 54, 0
25, 466571, Note_on_c, 9, 54, 49
25, 466811, Note_on_c, 9, 54, 0
25, 467062, Note_on_c, 9, 54, 53
25, 467302, Note_on_c, 9, 54, 0
25, 467302, End_track
26, 0, Start_track
26, 0, Title_t, "Piatti"
26, 0, MIDI_port, 0
26, 457691, Note_on_c, 9, 57, 100
26, 457931, Note_on_c, 9, 57, 0
26, 458171, Note_on_c, 9, 57, 98
26, 458411, Note_on_c, 9, 57, 0
26, 458668, Note_on_c, 9, 57, 99
26, 458908, Note_on_c, 9, 57, 0
26, 459139, Note_on_c, 9, 57, 109
26, 459379, Note_on_c, 9, 57, 0
26, 459607, Note_on_c, 9, 57, 103
26, 459847, Note_on_c, 9, 57, 0
26, 460085, Note_on_c, 9, 57, 105
26, 460325, Note_on_c, 9, 57, 0
26, 460570, Note_on_c, 9, 57, 98
26, 460810, Note_on_c, 9, 57, 0
26, 461069, Note_on_c, 9, 57, 91
26, 461309, Note_on_c, 9, 57, 0
26, 461526, Note_on_c, 9, 57, 93
26, 461766, Note_on_c, 9, 57, 0
26, 462004, Note_on_c, 9, 57, 106
26, 462244, Note_on_c, 9, 57, 0
26, 462497, Note_on_c, 9, 57, 109
26, 462737, Note_on_c, 9, 57, 0
26, 462980, Note_on_c, 9, 57, 91
26, 463220, Note_on_c, 9, 57, 0
26, 463453, Note_on_c, 9, 57, 98
26, 463693, Note_on_c, 9, 57, 0
26, 463939, Note_on_c, 9, 57, 104
26, 464179, Note_on_c, 9, 57, 0
26, 464410, Note_on_c, 9, 57, 105
26, 464650, Note_on_c, 9, 57, 0
26, 464891, Note_on_c, 9, 57, 94
26, 465131, Note_on_c, 9, 57, 0
26, 465366, Note_on_c, 9, 57, 108
26, 465606, Note_on_c, 9, 57, 0
26, 465842, Note_on_c, 9, 57, 91
26, 466082, Note_on_c, 9, 57, 0
26, 466332, Note_on_c, 9, 57, 96
26, 466572, Note_on_c, 9, 57, 0
26, 466824, Note_on_c, 9, 57, 93
26, 467064, Note_on_c, 9, 57, 0
26, 467546, Note_on_c, 9, 57, 48
26, 467786, Note_on_c, 9, 57, 0
26, 468025, Note_on_c, 9, 57, 45
26, 468265, Note_on_c, 9, 57, 0
26, 468489, Note_on_c, 9, 57, 52
26, 468729, Note_on_c, 9, 57, 0
26, 468983, Note_on_c, 9, 57, 51
26, 469223, Note_on_c, 9, 57, 0
26, 469458, Note_on_c, 9, 57, 48
26, 469698, Note_on_c, 9, 57, 0
26, 469921, Note_on_c, 9, 57, 49
26, 470161, Note_on_c, 9, 57, 0
26, 470418, Note_on_c, 9, 57, 57
26, 470658, Note_on_c, 9, 57, 0
26, 470901, Note_on_c, 9, 57, 42
26, 471141, Note_on_c, 9, 57, 0
26, 471386, Note_on_c, 9, 57, 45
26, 471626, Note_on_c, 9, 57, 0
26, 471865, Note_on_c, 9, 57, 45
26, 472105, Note_on_c, 9, 57, 0
26, 472330, Note_on_c, 9, 57, 45
26, 472570, Note_on_c, 9, 57, 0
26, 472821, Note_on_c, 9, 57, 50
26, 473061, Note_on_c, 9, 57, 0
26, 473291, Note_on_c, 9, 57, 50
26, 473531, Note_on_c, 9, 57, 0
26, 473781, Note_on_c, 9, 57, 55
26, 474021, Note_on_c, 9, 57, 0
26, 474251, Note_on_c, 9, 57, 52
26, 474491, Note_on_c, 9, 57, 0
26, 474738, Note_on_c, 9, 57, 54
26, 474978, Note_on_c, 9, 57, 0
26, 475220, Note_on_c, 9, 57, 47
26, 475460, Note_on_c, 9, 57, 0
26, 475695, Note_on_c, 9, 57, 39
26, 475935, Note_on_c, 9, 57, 0
26, 476176, Note_on_c, 9, 57, 55
26, 476416, Note_on_c, 9, 57, 0
26, 476648, Note_on_c, 9, 57, 39
26, 476888, Note_on_c, 9, 57, 0
26, 477128, Note_on_c, 9, 57, 42
26, 477368, Note_on_c, 9, 57, 0
26, 477627, Note_on_c, 9, 57, 45
26, 477867, Note_on_c, 9, 57, 0
26, 477867, End_track
27, 0, Start_track
27, 0, Title_t, "Violini Ia"
27, 0, MIDI_port, 0
27, 0, Program_c, 11, 48
27, 0, Control_c, 11, 11, 127
27, 0, Control_c, 11, 7, 75
27, 0, Control_c, 11, 10, 44
27, 0, Control_c, 11, 91, 96
27, 1440, Program_c, 11, 49
27, 2403, Note_on_c, 11, 69, 48
27, 2423, Note_on_c, 11, 81, 46
27, 2880, Note_on_c, 11, 70, 47
27, 2883, Note_on_c, 11, 69, 0
27, 2895, Note_on_c, 11, 77, 57
27, 2901, Note_on_c, 11, 85, 51
27, 2903, Note_on_c, 11, 81, 0
27, 3000, Note_on_c, 11, 70, 0
27, 3015, Note_on_c, 11, 77, 0
27, 3021, Note_on_c, 11, 85, 0
27, 5767, Note_on_c, 11, 70, 39
27, 5768, Note_on_c, 11, 63, 53
27, 5774, Note_on_c, 11, 66, 46
27, 6007, Note_on_c, 11, 70, 0
27, 6008, Note_on_c, 11, 63, 0
27, 6011, Note_on_c, 11, 73, 62
27, 6012, Note_on_c, 11, 76, 65
27, 6014, Note_on_c, 11, 66, 0
27, 6022, Note_on_c, 11, 68, 49
27, 6240, Note_on_c, 11, 78, 62
27, 6247, Note_on_c, 11, 82, 68
27, 6251, Note_on_c, 11, 73, 0
27, 6252, Note_on_c, 11, 76, 0
27, 6262, Note_on_c, 11, 68, 0
27, 6267, Note_on_c, 11, 75, 55
27, 6480, Note_on_c, 11, 78, 0
27, 6487, Note_on_c, 11, 82, 0
27, 6507, Note_on_c, 11, 75, 0
27, 8180, Note_on_c, 11, 69, 53
27, 8420, Note_on_c, 11, 69, 0
27, 8424, Note_on_c, 11, 81, 42
27, 8640, Note_on_c, 11, 81, 0
27, 8660, Note_on_c, 11, 81, 56
27, 9134, Note_on_c, 11, 85, 39
27, 9140, Note_on_c, 11, 81, 0
27, 9181, Note_on_c, 11, 85, 0
27, 9622, Note_on_c, 11, 81, 44
27, 10080, Note_on_c, 11, 89, 41
27, 10102, Note_on_c, 11, 81, 0
27, 10127, Note_on_c, 11, 89, 0
27, 10575, Note_on_c, 11, 93, 74
27, 10588, Note_on_c, 11, 69, 71
27, 12255, Note_on_c, 11, 93, 0
27, 13228, Note_on_c, 11, 69, 0
27, 13440, Program_c, 11, 49
27, 13450, Note_on_c, 11, 81, 52
27, 14170, Note_on_c, 11, 81, 0
27, 14187, Note_on_c, 11, 79, 51
27, 14416, Note_on_c, 11, 81, 48
27, 14427, Note_on_c, 11, 79, 0
27, 14894, Note_on_c, 11, 74, 49
27, 14896, Note_on_c, 11, 81, 0
27, 15278, Note_on_c, 11, 74, 0
27, 15360, Control_c, 11, 11, 127
27, 15363, Note_on_c, 11, 69, 68
27, 15365, Note_on_c, 11, 93, 71
27, 15382, Control_c, 11, 11, 126
27, 15405, Control_c, 11, 11, 125
27, 15428, Control_c, 11, 11, 124
27, 15451, Control_c, 11, 11, 123
27, 15474, Control_c, 11, 11, 122
27, 15497, Control_c, 11, 11, 121
27, 15519, Control_c, 11, 11, 120
27, 15542, Control_c, 11, 11, 119
27, 15565, Control_c, 11, 11, 118
27, 15588, Control_c, 11, 11, 117
27, 15611, Control_c, 11, 11, 116
27, 15634, Control_c, 11, 11, 115
27, 15657, Control_c, 11, 11, 114
27, 15680, Control_c, 11, 11, 113
27, 15702, Control_c, 11, 11, 112
27, 15725, Control_c, 11, 11, 111
27, 15748, Control_c, 11, 11, 110
27, 15771, Control_c, 11, 11, 109
27, 15794, Control_c, 11, 11, 108
27, 15817, Control_c, 11, 11, 107
27, 15840, Control_c, 11, 11, 106
27, 15862, Control_c, 11, 11, 105
27, 15885, Control_c, 11, 11, 104
27, 15908, Control_c, 11, 11, 103
27, 15931, Control_c, 11, 11, 102
27, 15954, Control_c, 11, 11, 101
27, 15977, Control_c, 11, 11, 100
27, 15999, Control_c, 11, 11, 99
27, 16022, Control_c, 11, 11, 98
27, 16045, Control_c, 11, 11, 97
27, 16068, Control_c, 11, 11, 96
27, 16091, Control_c, 11, 11, 95
27, 16114, Control_c, 11, 11, 94
27, 16137, Control_c, 11, 11, 93
27, 16160, Control_c, 11, 11, 92
27, 16182, Control_c, 11, 11, 91
27, 16205, Control_c, 11, 11, 90
27, 16228, Control_c, 11, 11, 89
27, 16251, Control_c, 11, 11, 88
27, 16274, Control_c, 11, 11, 87
27, 16297, Control_c, 11, 11, 86
27, 16320, Control_c, 11, 11, 85
27, 16342, Control_c, 11, 11, 84
27, 16365, Control_c, 11, 11, 83
27, 16388, Control_c, 11, 11, 82
27, 16411, Control_c, 11, 11, 81
27, 16434, Control_c, 11, 11, 80
27, 16457, Control_c, 11, 11, 79
27, 16479, Control_c, 11, 11, 78
27, 16502, Control_c, 11, 11, 77
27, 16525, Control_c, 11, 11, 76
27, 16548, Control_c, 11, 11, 75
27, 16571, Control_c, 11, 11, 74
27, 16594, Control_c, 11, 11, 73
27, 16617, Control_c, 11, 11, 72
27, 16640, Control_c, 11, 11, 71
27, 16662, Control_c, 11, 11, 70
27, 16685, Control_c, 11, 11, 69
27, 16708, Control_c, 11, 11, 68
27, 16731, Control_c, 11, 11, 67
27, 16754, Control_c, 11, 11, 66
27, 16777, Control_c, 11, 11, 65
27, 16797, Note_on_c, 11, 93, 0
27, 16803, Note_on_c, 11, 69, 0
27, 16816, Note_on_c, 11, 93, 71
27, 17536, Note_on_c, 11, 93, 0
27, 17537, Note_on_c, 11, 91, 71
27, 17777, Note_on_c, 11, 91, 0
27, 17788, Note_on_c, 11, 93, 76
27, 18258, Note_on_c, 11, 88, 76
27, 18268, Note_on_c, 11, 93, 0
27, 18498, Note_on_c, 11, 88, 0
27, 18502, Note_on_c, 11, 86, 81
27, 18723, Note_on_c, 11, 91, 78
27, 18742, Note_on_c, 11, 86, 0
27, 19203, Note_on_c, 11, 91, 0
27, 19212, Note_on_c, 11, 88, 80
27, 19596, Note_on_c, 11, 88, 0
27, 19680, Control_c, 11, 11, 127
27, 19680, Note_on_c, 11, 93, 65
27, 19702, Control_c, 11, 11, 126
27, 19708, Note_on_c, 11, 69, 73
27, 19725, Control_c, 11, 11, 125
27, 19748, Control_c, 11, 11, 124
27, 19771, Control_c, 11, 11, 123
27, 19794, Control_c, 11, 11, 122
27, 19817, Control_c, 11, 11, 121
27, 19839, Control_c, 11, 11, 120
27, 19862, Control_c, 11, 11, 119
27, 19885, Control_c, 11, 11, 118
27, 19908, Control_c, 11, 11, 117
27, 19931, Control_c, 11, 11, 116
27, 19954, Control_c, 11, 11, 115
27, 19977, Control_c, 11, 11, 114
27, 20000, Control_c, 11, 11, 113
27, 20022, Control_c, 11, 11, 112
27, 20045, Control_c, 11, 11, 111
27, 20068, Control_c, 11, 11, 110
27, 20091, Control_c, 11, 11, 109
27, 20114, Control_c, 11, 11, 108
27, 20137, Control_c, 11, 11, 107
27, 20160, Control_c, 11, 11, 106
27, 20182, Control_c, 11, 11, 105
27, 20205, Control_c, 11, 11, 104
27, 20228, Control_c, 11, 11, 103
27, 20251, Control_c, 11, 11, 102
27, 20274, Control_c, 11, 11, 101
27, 20297, Control_c, 11, 11, 100
27, 20319, Control_c, 11, 11, 99
27, 20342, Control_c, 11, 11, 98
27, 20365, Control_c, 11, 11, 97
27, 20388, Control_c, 11, 11, 96
27, 20411, Control_c, 11, 11, 95
27, 20434, Control_c, 11, 11, 94
27, 20457, Control_c, 11, 11, 93
27, 20480, Control_c, 11, 11, 92
27, 20502, Control_c, 11, 11, 91
27, 20525, Control_c, 11, 11, 90
27, 20548, Control_c, 11, 11, 89
27, 20571, Control_c, 11, 11, 88
27, 20594, Control_c, 11, 11, 87
27, 20617, Control_c, 11, 11, 86
27, 20640, Control_c, 11, 11, 85
27, 20662, Control_c, 11, 11, 84
27, 20685, Control_c, 11, 11, 83
27, 20708, Control_c, 11, 11, 82
27, 20731, Control_c, 11, 11, 81
27, 20754, Control_c, 11, 11, 80
27, 20777, Control_c, 11, 11, 79
27, 20799, Control_c, 11, 11, 78
27, 20822, Control_c, 11, 11, 77
27, 20845, Control_c, 11, 11, 76
27, 20868, Control_c, 11, 11, 75
27, 20891, Control_c, 11, 11, 74
27, 20914, Control_c, 11, 11, 73
27, 20937, Control_c, 11, 11, 72
27, 20960, Control_c, 11, 11, 71
27, 20982, Control_c, 11, 11, 70
27, 21005, Control_c, 11, 11, 69
27, 21028, Control_c, 11, 11, 68
27, 21051, Control_c, 11, 11, 67
27, 21074, Control_c, 11, 11, 66
27, 21097, Control_c, 11, 11, 65
27, 21120, Note_on_c, 11, 93, 0
27, 21120, Program_c, 11, 44
27, 21140, Note_on_c, 11, 105, 55
27, 21148, Note_on_c, 11, 69, 0
27, 22559, Note_on_c, 11, 105, 0
27, 22567, Note_on_c, 11, 103, 39
27, 23999, Note_on_c, 11, 103, 0
27, 24003, Note_on_c, 11, 101, 42
27, 25439, Note_on_c, 11, 101, 0
27, 25459, Note_on_c, 11, 100, 45
27, 26879, Note_on_c, 11, 100, 0
27, 26907, Note_on_c, 11, 98, 48
27, 28319, Note_on_c, 11, 98, 0
27, 28334, Note_on_c, 11, 97, 40
27, 28368, Program_c, 11, 40
27, 29524, Note_on_c, 11, 95, 47
27, 29534, Note_on_c, 11, 97, 0
27, 29764, Note_on_c, 11, 95, 0
27, 29767, Note_on_c, 11, 97, 47
27, 30483, Note_on_c, 11, 95, 52
27, 30487, Note_on_c, 11, 97, 0
27, 30723, Note_on_c, 11, 95, 0
27, 30744, Note_on_c, 11, 97, 51
27, 31201, Note_on_c, 11, 92, 41
27, 31224, Note_on_c, 11, 97, 0
27, 31441, Note_on_c, 11, 92, 0
27, 31463, Note_on_c, 11, 90, 41
27, 31702, Note_on_c, 11, 95, 47
27, 31703, Note_on_c, 11, 90, 0
27, 32182, Note_on_c, 11, 95, 0
27, 32186, Note_on_c, 11, 92, 51
27, 32666, Note_on_c, 11, 92, 0
27, 32668, Note_on_c, 11, 97, 49
27, 33372, Note_on_c, 11, 95, 40
27, 33388, Note_on_c, 11, 97, 0
27, 33612, Note_on_c, 11, 95, 0
27, 33626, Note_on_c, 11, 97, 41
27, 34104, Note_on_c, 11, 92, 42
27, 34106, Note_on_c, 11, 97, 0
27, 34332, Note_on_c, 11, 90, 55
27, 34344, Note_on_c, 11, 92, 0
27, 34572, Note_on_c, 11, 90, 0
27, 34576, Note_on_c, 11, 95, 39
27, 35047, Note_on_c, 11, 92, 59
27, 35056, Note_on_c, 11, 95, 0
27, 35503, Note_on_c, 11, 92, 0
27, 44142, Program_c, 11, 49
27, 45383, Note_on_c, 11, 77, 16
27, 45606, Note_on_c, 11, 90, 14
27, 45623, Note_on_c, 11, 77, 0
27, 45845, Note_on_c, 11, 89, 22
27, 45846, Note_on_c, 11, 90, 0
27, 46084, Note_on_c, 11, 102, 22
27, 46085, Note_on_c, 11, 89, 0
27, 46324, Note_on_c, 11, 102, 0
27, 46327, Note_on_c, 11, 89, 14
27, 46567, Note_on_c, 11, 89, 0
27, 46568, Note_on_c, 11, 90, 27
27, 46800, Note_on_c, 11, 77, 29
27, 46808, Note_on_c, 11, 90, 0
27, 47040, Note_on_c, 11, 77, 0
27, 47040, Note_on_c, 11, 78, 23
27, 47280, Note_on_c, 11, 78, 0
27, 65528, Note_on_c, 11, 60, 19
27, 65535, Note_on_c, 11, 64, 18
27, 65559, Note_on_c, 11, 60, 0
27, 65582, Note_on_c, 11, 64, 0
27, 65582, Note_on_c, 11, 72, 23
27, 65623, Note_on_c, 11, 76, 18
27, 65627, Note_on_c, 11, 60, 27
27, 65630, Note_on_c, 11, 72, 0
27, 65659, Note_on_c, 11, 60, 0
27, 65664, Note_on_c, 11, 76, 0
27, 65683, Note_on_c, 11, 76, 17
27, 65698, Note_on_c, 11, 60, 24
27, 65718, Note_on_c, 11, 84, 30
27, 65730, Note_on_c, 11, 60, 0
27, 65731, Note_on_c, 11, 76, 0
27, 65766, Note_on_c, 11, 84, 0
27, 65774, Note_on_c, 11, 88, 22
27, 65777, Note_on_c, 11, 79, 26
27, 65894, Note_on_c, 11, 88, 0
27, 65897, Note_on_c, 11, 79, 0
27, 67924, Note_on_c, 11, 60, 21
27, 67933, Note_on_c, 11, 64, 32
27, 67955, Note_on_c, 11, 60, 0
27, 67972, Note_on_c, 11, 72, 22
27, 67980, Note_on_c, 11, 64, 0
27, 68010, Note_on_c, 11, 60, 18
27, 68020, Note_on_c, 11, 72, 0
27, 68025, Note_on_c, 11, 76, 13
27, 68042, Note_on_c, 11, 60, 0
27, 68069, Note_on_c, 11, 76, 0
27, 68089, Note_on_c, 11, 76, 28
27, 68090, Note_on_c, 11, 60, 22
27, 68122, Note_on_c, 11, 60, 0
27, 68133, Note_on_c, 11, 84, 16
27, 68137, Note_on_c, 11, 76, 0
27, 68173, Note_on_c, 11, 79, 29
27, 68181, Note_on_c, 11, 84, 0
27, 68184, Note_on_c, 11, 88, 30
27, 68293, Note_on_c, 11, 79, 0
27, 68304, Note_on_c, 11, 88, 0
27, 69372, Note_on_c, 11, 60, 18
27, 69382, Note_on_c, 11, 64, 27
27, 69403, Note_on_c, 11, 60, 0
27, 69415, Note_on_c, 11, 72, 25
27, 69429, Note_on_c, 11, 64, 0
27, 69453, Note_on_c, 11, 60, 14
27, 69459, Note_on_c, 11, 76, 30
27, 69463, Note_on_c, 11, 72, 0
27, 69485, Note_on_c, 11, 60, 0
27, 69486, Note_on_c, 11, 76, 0
27, 69505, Note_on_c, 11, 76, 16
27, 69526, Note_on_c, 11, 60, 17
27, 69553, Note_on_c, 11, 76, 0
27, 69558, Note_on_c, 11, 60, 0
27, 69559, Note_on_c, 11, 84, 32
27, 69607, Note_on_c, 11, 84, 0
27, 69617, Note_on_c, 11, 79, 24
27, 69626, Note_on_c, 11, 88, 30
27, 69737, Note_on_c, 11, 79, 0
27, 69746, Note_on_c, 11, 88, 0
27, 72260, Note_on_c, 11, 60, 29
27, 72261, Note_on_c, 11, 64, 22
27, 72291, Note_on_c, 11, 60, 0
27, 72308, Note_on_c, 11, 64, 0
27, 72313, Note_on_c, 11, 72, 19
27, 72342, Note_on_c, 11, 76, 30
27, 72348, Note_on_c, 11, 60, 28
27, 72361, Note_on_c, 11, 72, 0
27, 72375, Note_on_c, 11, 76, 0
27, 72380, Note_on_c, 11, 60, 0
27, 72394, Note_on_c, 11, 76, 16
27, 72404, Note_on_c, 11, 60, 27
27, 72436, Note_on_c, 11, 60, 0
27, 72442, Note_on_c, 11, 76, 0
27, 72456, Note_on_c, 11, 84, 19
27, 72504, Note_on_c, 11, 84, 0
27, 72504, Note_on_c, 11, 79, 24
27, 72508, Note_on_c, 11, 88, 28
27, 72624, Note_on_c, 11, 79, 0
27, 72628, Note_on_c, 11, 88, 0
27, 73689, Note_on_c, 11, 64, 30
27, 73696, Note_on_c, 11, 60, 24
27, 73727, Note_on_c, 11, 60, 0
27, 73736, Note_on_c, 11, 64, 0
27, 73754, Note_on_c, 11, 72, 32
27, 73783, Note_on_c, 11, 60, 29
27, 73795, Note_on_c, 11, 76, 26
27, 73802, Note_on_c, 11, 72, 0
27, 73813, Note_on_c, 11, 76, 0
27, 73815, Note_on_c, 11, 60, 0
27, 73832, Note_on_c, 11, 76, 32
27, 73863, Note_on_c, 11, 60, 21
27, 73880, Note_on_c, 11, 76, 0
27, 73895, Note_on_c, 11, 60, 0
27, 73897, Note_on_c, 11, 84, 16
27, 73936, Note_on_c, 11, 79, 24
27, 73945, Note_on_c, 11, 84, 0
27, 73945, Note_on_c, 11, 88, 14
27, 74056, Note_on_c, 11, 79, 0
27, 74065, Note_on_c, 11, 88, 0
27, 76574, Note_on_c, 11, 60, 33
27, 76586, Note_on_c, 11, 64, 15
27, 76605, Note_on_c, 11, 60, 0
27, 76630, Note_on_c, 11, 72, 26
27, 76633, Note_on_c, 11, 64, 0
27, 76660, Note_on_c, 11, 60, 19
27, 76666, Note_on_c, 11, 76, 24
27, 76678, Note_on_c, 11, 72, 0
27, 76692, Note_on_c, 11, 60, 0
27, 76693, Note_on_c, 11, 76, 0
27, 76713, Note_on_c, 11, 76, 23
27, 76719, Note_on_c, 11, 60, 33
27, 76751, Note_on_c, 11, 60, 0
27, 76760, Note_on_c, 11, 84, 18
27, 76761, Note_on_c, 11, 76, 0
27, 76800, Note_on_c, 11, 88, 28
27, 76808, Note_on_c, 11, 84, 0
27, 76816, Note_on_c, 11, 79, 25
27, 76920, Note_on_c, 11, 88, 0
27, 76936, Note_on_c, 11, 79, 0
27, 78024, Note_on_c, 11, 64, 18
27, 78024, Note_on_c, 11, 60, 27
27, 78051, Note_on_c, 11, 72, 27
27, 78055, Note_on_c, 11, 60, 0
27, 78071, Note_on_c, 11, 64, 0
27, 78095, Note_on_c, 11, 60, 16
27, 78099, Note_on_c, 11, 72, 0
27, 78112, Note_on_c, 11, 76, 31
27, 78127, Note_on_c, 11, 60, 0
27, 78136, Note_on_c, 11, 76, 0
27, 78155, Note_on_c, 11, 76, 20
27, 78185, Note_on_c, 11, 60, 15
27, 78196, Note_on_c, 11, 84, 14
27, 78203, Note_on_c, 11, 76, 0
27, 78217, Note_on_c, 11, 60, 0
27, 78243, Note_on_c, 11, 88, 26
27, 78244, Note_on_c, 11, 84, 0
27, 78255, Note_on_c, 11, 79, 28
27, 78363, Note_on_c, 11, 88, 0
27, 78375, Note_on_c, 11, 79, 0
27, 80881, Note_on_c, 11, 64, 24
27, 80887, Note_on_c, 11, 60, 25
27, 80918, Note_on_c, 11, 60, 0
27, 80928, Note_on_c, 11, 64, 0
27, 80949, Note_on_c, 11, 72, 30
27, 80975, Note_on_c, 11, 60, 33
27, 80988, Note_on_c, 11, 76, 13
27, 80997, Note_on_c, 11, 72, 0
27, 81007, Note_on_c, 11, 60, 0
27, 81023, Note_on_c, 11, 76, 0
27, 81042, Note_on_c, 11, 76, 26
27, 81049, Note_on_c, 11, 60, 29
27, 81072, Note_on_c, 11, 84, 14
27, 81081, Note_on_c, 11, 60, 0
27, 81090, Note_on_c, 11, 76, 0
27, 81120, Note_on_c, 11, 84, 0
27, 81147, Note_on_c, 11, 88, 32
27, 81148, Note_on_c, 11, 79, 32
27, 81267, Note_on_c, 11, 88, 0
27, 81268, Note_on_c, 11, 79, 0
27, 82336, Note_on_c, 11, 60, 14
27, 82342, Note_on_c, 11, 64, 28
27, 82367, Note_on_c, 11, 60, 0
27, 82384, Note_on_c, 11, 72, 31
27, 82389, Note_on_c, 11, 64, 0
27, 82421, Note_on_c, 11, 60, 33
27, 82425, Note_on_c, 11, 76, 13
27, 82432, Note_on_c, 11, 72, 0
27, 82453, Note_on_c, 11, 60, 0
27, 82458, Note_on_c, 11, 76, 0
27, 82477, Note_on_c, 11, 76, 20
27, 82486, Note_on_c, 11, 60, 18
27, 82515, Note_on_c, 11, 84, 30
27, 82518, Note_on_c, 11, 60, 0
27, 82525, Note_on_c, 11, 76, 0
27, 82563, Note_on_c, 11, 84, 0
27, 82570, Note_on_c, 11, 79, 22
27, 82582, Note_on_c, 11, 88, 22
27, 82690, Note_on_c, 11, 79, 0
27, 82702, Note_on_c, 11, 88, 0
27, 97081, Program_c, 11, 42
27, 97451, Note_on_c, 11, 39, 47
27, 97685, Note_on_c, 11, 46, 44
27, 97691, Note_on_c, 11, 39, 0
27, 97925, Note_on_c, 11, 46, 0
27, 97933, Note_on_c, 11, 48, 42
27, 98166, Note_on_c, 11, 58, 46
27, 98173, Note_on_c, 11, 48, 0
27, 98406, Note_on_c, 11, 58, 0
27, 98425, Note_on_c, 11, 62, 42
27, 98663, Note_on_c, 11, 55, 53
27, 98665, Note_on_c, 11, 62, 0
27, 98882, Note_on_c, 11, 61, 46
27, 98903, Note_on_c, 11, 55, 0
27, 99122, Note_on_c, 11, 61, 0
27, 99136, Note_on_c, 11, 47, 43
27, 99260, Note_on_c, 11, 47, 0
27, 112790, Program_c, 11, 45
27, 112804, Note_on_c, 11, 70, 120
27, 112817, Note_on_c, 11, 68, 105
27, 113284, Note_on_c, 11, 70, 0
27, 113297, Note_on_c, 11, 68, 0
27, 115200, Program_c, 11, 44
27, 115213, Note_on_c, 11, 68, 49
27, 115214, Note_on_c, 11, 70, 40
27, 115685, Note_on_c, 11, 69, 45
27, 115693, Note_on_c, 11, 68, 0
27, 115694, Note_on_c, 11, 70, 0
27, 115701, Note_on_c, 11, 71, 33
27, 116165, Note_on_c, 11, 69, 0
27, 116176, Note_on_c, 11, 70, 30
27, 116181, Note_on_c, 11, 71, 0
27, 116185, Note_on_c, 11, 72, 35
27, 116625, Note_on_c, 11, 70, 0
27, 116645, Note_on_c, 11, 70, 34
27, 116662, Note_on_c, 11, 68, 37
27, 116665, Note_on_c, 11, 72, 0
27, 117120, Note_on_c, 11, 71, 32
27, 117125, Note_on_c, 11, 70, 0
27, 117138, Note_on_c, 11, 69, 45
27, 117142, Note_on_c, 11, 68, 0
27, 117600, Note_on_c, 11, 71, 0
27, 117603, Note_on_c, 11, 72, 45
27, 117618, Note_on_c, 11, 69, 0
27, 117622, Note_on_c, 11, 70, 39
27, 118075, Note_on_c, 11, 70, 0
27, 118083, Note_on_c, 11, 72, 0
27, 118094, Note_on_c, 11, 70, 32
27, 118098, Note_on_c, 11, 68, 37
27, 118568, Note_on_c, 11, 69, 33
27, 118574, Note_on_c, 11, 70, 0
27, 118578, Note_on_c, 11, 68, 0
27, 118586, Note_on_c, 11, 71, 32
27, 119040, Note_on_c, 11, 70, 47
27, 119048, Note_on_c, 11, 69, 0
27, 119062, Note_on_c, 11, 72, 31
27, 119066, Note_on_c, 11, 71, 0
27, 119520, Note_on_c, 11, 70, 0
27, 119521, Note_on_c, 11, 70, 39
27, 119542, Note_on_c, 11, 72, 0
27, 119547, Note_on_c, 11, 68, 37
27, 120001, Note_on_c, 11, 70, 0
27, 120018, Note_on_c, 11, 69, 46
27, 120025, Note_on_c, 11, 71, 40
27, 120027, Note_on_c, 11, 68, 0
27, 120489, Note_on_c, 11, 70, 43
27, 120493, Note_on_c, 11, 72, 39
27, 120498, Note_on_c, 11, 69, 0
27, 120505, Note_on_c, 11, 71, 0
27, 120963, Note_on_c, 11, 70, 0
27, 120973, Note_on_c, 11, 72, 0
27, 120980, Note_on_c, 11, 68, 48
27, 120982, Note_on_c, 11, 70, 34
27, 121441, Note_on_c, 11, 69, 43
27, 121460, Note_on_c, 11, 68, 0
27, 121460, Note_on_c, 11, 71, 48
27, 121462, Note_on_c, 11, 70, 0
27, 121921, Note_on_c, 11, 69, 0
27, 121924, Note_on_c, 11, 70, 47
27, 121940, Note_on_c, 11, 71, 0
27, 121946, Note_on_c, 11, 72, 34
27, 122404, Note_on_c, 11, 70, 0
27, 122416, Note_on_c, 11, 70, 36
27, 122426, Note_on_c, 11, 72, 0
27, 122427, Note_on_c, 11, 68, 38
27, 122884, Note_on_c, 11, 69, 45
27, 122896, Note_on_c, 11, 70, 0
27, 122897, Note_on_c, 11, 71, 50
27, 122907, Note_on_c, 11, 68, 0
27, 123364, Note_on_c, 11, 69, 0
27, 123371, Note_on_c, 11, 70, 46
27, 123377, Note_on_c, 11, 71, 0
27, 123385, Note_on_c, 11, 72, 33
27, 123825, Note_on_c, 11, 70, 0
27, 123844, Note_on_c, 11, 70, 35
27, 123858, Note_on_c, 11, 68, 38
27, 123865, Note_on_c, 11, 72, 0
27, 124323, Note_on_c, 11, 69, 32
27, 124324, Note_on_c, 11, 70, 0
27, 124338, Note_on_c, 11, 68, 0
27, 124338, Note_on_c, 11, 71, 39
27, 124803, Note_on_c, 11, 69, 0
27, 124810, Note_on_c, 11, 72, 45
27, 124811, Note_on_c, 11, 70, 39
27, 124818, Note_on_c, 11, 71, 0
27, 125283, Note_on_c, 11, 70, 0
27, 125284, Note_on_c, 11, 68, 38
27, 125290, Note_on_c, 11, 72, 0
27, 125302, Note_on_c, 11, 70, 36
27, 125761, Note_on_c, 11, 71, 35
27, 125762, Note_on_c, 11, 69, 46
27, 125764, Note_on_c, 11, 68, 0
27, 125782, Note_on_c, 11, 70, 0
27, 126241, Note_on_c, 11, 71, 0
27, 126242, Note_on_c, 11, 69, 0
27, 126242, Note_on_c, 11, 72, 33
27, 126264, Note_on_c, 11, 70, 49
27, 126721, Note_on_c, 11, 68, 31
27, 126722, Note_on_c, 11, 72, 0
27, 126723, Note_on_c, 11, 70, 0
27, 126742, Note_on_c, 11, 70, 45
27, 127201, Note_on_c, 11, 68, 0
27, 127202, Note_on_c, 11, 71, 33
27, 127222, Note_on_c, 11, 70, 0
27, 127226, Note_on_c, 11, 69, 50
27, 127657, Program_c, 11, 48
27, 127682, Note_on_c, 11, 71, 0
27, 127695, Note_on_c, 11, 72, 40
27, 127698, Note_on_c, 11, 70, 49
27, 127706, Note_on_c, 11, 69, 0
27, 127815, Note_on_c, 11, 72, 0
27, 127818, Note_on_c, 11, 70, 0
27, 134876, Program_c, 11, 49
27, 135375, Note_on_c, 11, 87, 65
27, 135843, Note_on_c, 11, 82, 78
27, 135855, Note_on_c, 11, 87, 0
27, 136323, Note_on_c, 11, 82, 0
27, 136338, Note_on_c, 11, 89, 51
27, 136811, Note_on_c, 11, 84, 43
27, 136818, Note_on_c, 11, 89, 0
27, 137291, Note_on_c, 11, 84, 0
27, 137304, Note_on_c, 11, 87, 48
27, 137778, Note_on_c, 11, 82, 58
27, 137784, Note_on_c, 11, 87, 0
27, 138254, Note_on_c, 11, 87, 50
27, 138258, Note_on_c, 11, 82, 0
27, 138722, Note_on_c, 11, 84, 53
27, 138734, Note_on_c, 11, 87, 0
27, 139202, Note_on_c, 11, 84, 0
27, 139209, Note_on_c, 11, 89, 49
27, 139689, Note_on_c, 11, 89, 0
27, 139702, Note_on_c, 11, 84, 42
27, 140167, Note_on_c, 11, 87, 59
27, 140182, Note_on_c, 11, 84, 0
27, 140647, Note_on_c, 11, 87, 0
27, 140657, Note_on_c, 11, 82, 41
27, 141137, Note_on_c, 11, 82, 0
27, 141147, Note_on_c, 11, 87, 47
27, 141611, Note_on_c, 11, 84, 45
27, 141627, Note_on_c, 11, 87, 0
27, 142091, Note_on_c, 11, 84, 0
27, 142100, Note_on_c, 11, 89, 50
27, 142579, Note_on_c, 11, 84, 57
27, 142580, Note_on_c, 11, 89, 0
27, 143045, Note_on_c, 11, 87, 41
27, 143059, Note_on_c, 11, 84, 0
27, 143525, Note_on_c, 11, 87, 0
27, 143538, Note_on_c, 11, 82, 39
27, 144009, Note_on_c, 11, 87, 43
27, 144018, Note_on_c, 11, 82, 0
27, 144487, Note_on_c, 11, 84, 54
27, 144489, Note_on_c, 11, 87, 0
27, 144967, Note_on_c, 11, 84, 0
27, 144969, Note_on_c, 11, 89, 50
27, 145449, Note_on_c, 11, 89, 0
27, 145450, Note_on_c, 11, 84, 42
27, 145925, Note_on_c, 11, 87, 48
27, 145930, Note_on_c, 11, 84, 0
27, 146405, Note_on_c, 11, 87, 0
27, 146415, Note_on_c, 11, 82, 41
27, 146895, Note_on_c, 11, 82, 0
27, 146899, Note_on_c, 11, 87, 45
27, 147367, Note_on_c, 11, 84, 48
27, 147379, Note_on_c, 11, 87, 0
27, 147847, Note_on_c, 11, 84, 0
27, 169440, Control_c, 11, 11, 64
27, 172330, Note_on_c, 11, 83, 70
27, 172332, Control_c, 11, 11, 65
27, 172348, Control_c, 11, 11, 66
27, 172364, Control_c, 11, 11, 67
27, 172380, Control_c, 11, 11, 68
27, 172396, Control_c, 11, 11, 69
27, 172413, Control_c, 11, 11, 70
27, 172429, Control_c, 11, 11, 71
27, 172445, Control_c, 11, 11, 72
27, 172462, Control_c, 11, 11, 73
27, 172478, Control_c, 11, 11, 74
27, 172494, Control_c, 11, 11, 75
27, 172510, Control_c, 11, 11, 76
27, 172527, Control_c, 11, 11, 77
27, 172543, Control_c, 11, 11, 78
27, 172559, Control_c, 11, 11, 79
27, 172575, Control_c, 11, 11, 80
27, 172592, Control_c, 11, 11, 81
27, 172608, Control_c, 11, 11, 82
27, 172624, Control_c, 11, 11, 83
27, 172641, Control_c, 11, 11, 84
27, 172657, Control_c, 11, 11, 85
27, 172673, Control_c, 11, 11, 86
27, 172689, Control_c, 11, 11, 87
27, 172705, Control_c, 11, 11, 88
27, 172722, Control_c, 11, 11, 89
27, 172738, Control_c, 11, 11, 90
27, 172754, Control_c, 11, 11, 91
27, 172770, Control_c, 11, 11, 92
27, 172787, Control_c, 11, 11, 93
27, 172803, Control_c, 11, 11, 94
27, 172819, Control_c, 11, 11, 95
27, 172836, Control_c, 11, 11, 96
27, 172852, Control_c, 11, 11, 97
27, 172868, Control_c, 11, 11, 98
27, 172884, Control_c, 11, 11, 99
27, 172901, Control_c, 11, 11, 100
27, 172917, Control_c, 11, 11, 101
27, 172933, Control_c, 11, 11, 102
27, 172950, Control_c, 11, 11, 103
27, 172965, Control_c, 11, 11, 104
27, 172982, Control_c, 11, 11, 105
27, 172998, Control_c, 11, 11, 106
27, 173014, Control_c, 11, 11, 107
27, 173031, Control_c, 11, 11, 108
27, 173047, Control_c, 11, 11, 109
27, 173050, Note_on_c, 11, 83, 0
27, 173063, Control_c, 11, 11, 110
27, 173064, Note_on_c, 11, 81, 80
27, 173079, Control_c, 11, 11, 111
27, 173096, Control_c, 11, 11, 112
27, 173112, Control_c, 11, 11, 113
27, 173128, Control_c, 11, 11, 114
27, 173145, Control_c, 11, 11, 115
27, 173160, Control_c, 11, 11, 116
27, 173177, Control_c, 11, 11, 117
27, 173193, Control_c, 11, 11, 118
27, 173210, Control_c, 11, 11, 119
27, 173226, Control_c, 11, 11, 120
27, 173242, Control_c, 11, 11, 121
27, 173258, Control_c, 11, 11, 122
27, 173274, Control_c, 11, 11, 123
27, 173291, Control_c, 11, 11, 124
27, 173300, Note_on_c, 11, 83, 84
27, 173304, Note_on_c, 11, 81, 0
27, 173307, Control_c, 11, 11, 125
27, 173323, Control_c, 11, 11, 126
27, 173760, Note_on_c, 11, 80, 82
27, 173780, Note_on_c, 11, 83, 0
27, 174000, Note_on_c, 11, 80, 0
27, 174015, Note_on_c, 11, 78, 74
27, 174249, Note_on_c, 11, 81, 82
27, 174255, Note_on_c, 11, 78, 0
27, 174729, Note_on_c, 11, 81, 0
27, 174730, Note_on_c, 11, 78, 76
27, 175114, Note_on_c, 11, 78, 0
27, 175221, Note_on_c, 11, 83, 71
27, 175937, Note_on_c, 11, 81, 65
27, 175941, Note_on_c, 11, 83, 0
27, 176165, Note_on_c, 11, 83, 65
27, 176177, Note_on_c, 11, 81, 0
27, 176642, Note_on_c, 11, 80, 83
27, 176645, Note_on_c, 11, 83, 0
27, 176882, Note_on_c, 11, 80, 0
27, 176883, Note_on_c, 11, 78, 70
27, 177123, Note_on_c, 11, 78, 0
27, 177144, Note_on_c, 11, 81, 80
27, 177613, Note_on_c, 11, 78, 70
27, 177624, Note_on_c, 11, 81, 0
27, 177901, Note_on_c, 11, 78, 0
27, 183841, Note_on_c, 11, 90, 35
27, 183857, Note_on_c, 11, 79, 45
27, 189313, Note_on_c, 11, 90, 0
27, 189329, Note_on_c, 11, 79, 0
27, 191529, Note_on_c, 11, 102, 40
27, 191544, Note_on_c, 11, 91, 36
27, 200169, Note_on_c, 11, 102, 0
27, 200184, Note_on_c, 11, 91, 0
27, 208312, Program_c, 11, 48
27, 208333, Note_on_c, 11, 71, 62
27, 208404, Note_on_c, 11, 71, 0
27, 208506, Note_on_c, 11, 73, 52
27, 208578, Note_on_c, 11, 73, 0
27, 208664, Note_on_c, 11, 74, 63
27, 208735, Note_on_c, 11, 74, 0
27, 208805, Note_on_c, 11, 75, 69
27, 208858, Note_on_c, 11, 75, 0
27, 208949, Note_on_c, 11, 76, 79
27, 209002, Note_on_c, 11, 76, 0
27, 209058, Note_on_c, 11, 77, 72
27, 209111, Note_on_c, 11, 77, 0
27, 209163, Note_on_c, 11, 78, 76
27, 209216, Note_on_c, 11, 78, 0
27, 209306, Note_on_c, 11, 79, 78
27, 209349, Note_on_c, 11, 79, 0
27, 209397, Note_on_c, 11, 80, 77
27, 209440, Note_on_c, 11, 80, 0
27, 209481, Note_on_c, 11, 81, 88
27, 209524, Note_on_c, 11, 81, 0
27, 209584, Note_on_c, 11, 82, 85
27, 209627, Note_on_c, 11, 82, 0
27, 209692, Note_on_c, 11, 83, 86
27, 209735, Note_on_c, 11, 83, 0
27, 209775, Note_on_c, 11, 84, 84
27, 209811, Note_on_c, 11, 84, 0
27, 209844, Note_on_c, 11, 85, 92
27, 209880, Note_on_c, 11, 85, 0
27, 209930, Note_on_c, 11, 86, 103
27, 209966, Note_on_c, 11, 86, 0
27, 210013, Note_on_c, 11, 87, 98
27, 210049, Note_on_c, 11, 87, 0
27, 210108, Note_on_c, 11, 88, 95
27, 210144, Note_on_c, 11, 88, 0
27, 210177, Note_on_c, 11, 89, 94
27, 210213, Note_on_c, 11, 89, 0
27, 210266, Note_on_c, 11, 90, 106
27, 210319, Note_on_c, 11, 90, 0
27, 210723, Note_on_c, 11, 56, 97
27, 210734, Note_on_c, 11, 62, 93
27, 210963, Note_on_c, 11, 56, 0
27, 210974, Note_on_c, 11, 62, 0
27, 211201, Note_on_c, 11, 62, 109
27, 211206, Note_on_c, 11, 56, 108
27, 211441, Note_on_c, 11, 62, 0
27, 211446, Note_on_c, 11, 56, 0
27, 211695, Note_on_c, 11, 56, 102
27, 211703, Note_on_c, 11, 62, 103
27, 211935, Note_on_c, 11, 56, 0
27, 211943, Note_on_c, 11, 62, 0
27, 212160, Note_on_c, 11, 56, 95
27, 212189, Note_on_c, 11, 62, 96
27, 212400, Note_on_c, 11, 56, 0
27, 212429, Note_on_c, 11, 62, 0
27, 212643, Note_on_c, 11, 62, 93
27, 212656, Note_on_c, 11, 56, 96
27, 212883, Note_on_c, 11, 62, 0
27, 212896, Note_on_c, 11, 56, 0
27, 213143, Note_on_c, 11, 56, 108
27, 213143, Note_on_c, 11, 62, 108
27, 213383, Note_on_c, 11, 56, 0
27, 213383, Note_on_c, 11, 62, 0
27, 213620, Note_on_c, 11, 62, 102
27, 213624, Note_on_c, 11, 56, 107
27, 213860, Note_on_c, 11, 62, 0
27, 213864, Note_on_c, 11, 56, 0
27, 214085, Note_on_c, 11, 56, 94
27, 214103, Note_on_c, 11, 62, 110
27, 214325, Note_on_c, 11, 56, 0
27, 214343, Note_on_c, 11, 62, 0
27, 214564, Note_on_c, 11, 62, 104
27, 214573, Note_on_c, 11, 56, 100
27, 214804, Note_on_c, 11, 62, 0
27, 214813, Note_on_c, 11, 56, 0
27, 215042, Note_on_c, 11, 62, 109
27, 215062, Note_on_c, 11, 56, 101
27, 215282, Note_on_c, 11, 62, 0
27, 215302, Note_on_c, 11, 56, 0
27, 215539, Note_on_c, 11, 56, 96
27, 215539, Note_on_c, 11, 62, 94
27, 215779, Note_on_c, 11, 56, 0
27, 215779, Note_on_c, 11, 62, 0
27, 216241, Note_on_c, 11, 79, 115
27, 216245, Note_on_c, 11, 67, 111
27, 216481, Note_on_c, 11, 79, 0
27, 216485, Note_on_c, 11, 67, 0
27, 216720, Program_c, 11, 45
27, 216731, Note_on_c, 11, 79, 105
27, 216971, Note_on_c, 11, 79, 0
27, 217440, Program_c, 11, 48
27, 217453, Note_on_c, 11, 79, 101
27, 217454, Note_on_c, 11, 67, 112
27, 217693, Note_on_c, 11, 79, 0
27, 217694, Note_on_c, 11, 67, 0
27, 217920, Program_c, 11, 45
27, 217932, Note_on_c, 11, 79, 102
27, 218172, Note_on_c, 11, 79, 0
27, 218400, Program_c, 11, 48
27, 218666, Note_on_c, 11, 67, 87
27, 218667, Note_on_c, 11, 79, 91
27, 218906, Note_on_c, 11, 67, 0
27, 218907, Note_on_c, 11, 79, 0
27, 219120, Note_on_c, 11, 67, 95
27, 219140, Note_on_c, 11, 79, 88
27, 219360, Note_on_c, 11, 67, 0
27, 219380, Note_on_c, 11, 79, 0
27, 219615, Note_on_c, 11, 67, 91
27, 219615, Note_on_c, 11, 79, 79
27, 219855, Note_on_c, 11, 67, 0
27, 219855, Note_on_c, 11, 79, 0
27, 220098, Note_on_c, 11, 79, 91
27, 220109, Note_on_c, 11, 67, 95
27, 220338, Note_on_c, 11, 79, 0
27, 220349, Note_on_c, 11, 67, 0
27, 220800, Program_c, 11, 48
27, 220822, Note_on_c, 11, 79, 114
27, 220826, Note_on_c, 11, 67, 119
27, 221062, Note_on_c, 11, 79, 0
27, 221066, Note_on_c, 11, 67, 0
27, 221280, Program_c, 11, 45
27, 221283, Note_on_c, 11, 79, 99
27, 221523, Note_on_c, 11, 79, 0
27, 222000, Program_c, 11, 48
27, 222004, Note_on_c, 11, 67, 118
27, 222008, Note_on_c, 11, 79, 115
27, 222244, Note_on_c, 11, 67, 0
27, 222248, Note_on_c, 11, 79, 0
27, 222482, Note_on_c, 11, 79, 115
27, 222485, Note_on_c, 11, 67, 111
27, 222722, Note_on_c, 11, 79, 0
27, 222725, Note_on_c, 11, 67, 0
27, 222960, Program_c, 11, 45
27, 222977, Note_on_c, 11, 79, 93
27, 223217, Note_on_c, 11, 79, 0
27, 223680, Program_c, 11, 48
27, 223680, Note_on_c, 11, 79, 115
27, 223707, Note_on_c, 11, 67, 108
27, 223920, Note_on_c, 11, 79, 0
27, 223947, Note_on_c, 11, 67, 0
27, 224160, Program_c, 11, 45
27, 224181, Note_on_c, 11, 79, 100
27, 224421, Note_on_c, 11, 79, 0
27, 224640, Program_c, 11, 48
27, 224648, Note_on_c, 11, 84, 91
27, 224684, Note_on_c, 11, 84, 0
27, 224733, Note_on_c, 11, 85, 98
27, 224769, Note_on_c, 11, 85, 0
27, 224809, Note_on_c, 11, 86, 91
27, 224845, Note_on_c, 11, 86, 0
27, 224898, Note_on_c, 11, 87, 103
27, 224934, Note_on_c, 11, 87, 0
27, 224967, Note_on_c, 11, 88, 111
27, 225003, Note_on_c, 11, 88, 0
27, 225043, Note_on_c, 11, 89, 105
27, 225079, Note_on_c, 11, 89, 0
27, 225138, Note_on_c, 11, 90, 96
27, 225258, Note_on_c, 11, 90, 0
27, 225366, Note_on_c, 11, 62, 96
27, 225473, Note_on_c, 11, 62, 0
27, 225866, Note_on_c, 11, 62, 105
27, 225973, Note_on_c, 11, 62, 0
27, 226340, Note_on_c, 11, 62, 99
27, 226447, Note_on_c, 11, 62, 0
27, 226808, Note_on_c, 11, 62, 91
27, 226915, Note_on_c, 11, 62, 0
27, 227285, Note_on_c, 11, 62, 104
27, 227392, Note_on_c, 11, 62, 0
27, 227787, Note_on_c, 11, 62, 106
27, 227894, Note_on_c, 11, 62, 0
27, 228262, Note_on_c, 11, 62, 94
27, 228369, Note_on_c, 11, 62, 0
27, 228489, Note_on_c, 11, 61, 108
27, 228549, Note_on_c, 11, 61, 0
27, 228549, Note_on_c, 11, 62, 99
27, 228609, Note_on_c, 11, 62, 0
27, 228610, Note_on_c, 11, 61, 103
27, 228669, Note_on_c, 11, 62, 106
27, 228670, Note_on_c, 11, 61, 0
27, 228729, Note_on_c, 11, 62, 0
27, 228736, Note_on_c, 11, 61, 93
27, 228785, Note_on_c, 11, 62, 108
27, 228796, Note_on_c, 11, 61, 0
27, 228845, Note_on_c, 11, 62, 0
27, 228865, Note_on_c, 11, 61, 99
27, 228908, Note_on_c, 11, 62, 107
27, 228925, Note_on_c, 11, 61, 0
27, 228968, Note_on_c, 11, 62, 0
27, 228969, Note_on_c, 11, 73, 102
27, 228992, Note_on_c, 11, 73, 0
27, 229054, Note_on_c, 11, 74, 108
27, 229078, Note_on_c, 11, 74, 0
27, 229143, Note_on_c, 11, 75, 109
27, 229167, Note_on_c, 11, 75, 0
27, 229222, Note_on_c, 11, 76, 118
27, 229245, Note_on_c, 11, 76, 0
27, 229281, Note_on_c, 11, 77, 118
27, 229305, Note_on_c, 11, 77, 0
27, 229380, Note_on_c, 11, 78, 109
27, 229404, Note_on_c, 11, 78, 0
27, 229449, Note_on_c, 11, 84, 111
27, 229453, Note_on_c, 11, 79, 117
27, 229472, Note_on_c, 11, 84, 0
27, 229476, Note_on_c, 11, 79, 0
27, 229528, Note_on_c, 11, 85, 115
27, 229540, Note_on_c, 11, 78, 122
27, 229552, Note_on_c, 11, 85, 0
27, 229564, Note_on_c, 11, 78, 0
27, 229620, Note_on_c, 11, 86, 119
27, 229622, Note_on_c, 11, 77, 114
27, 229644, Note_on_c, 11, 86, 0
27, 229646, Note_on_c, 11, 77, 0
27, 229681, Note_on_c, 11, 87, 127
27, 229696, Note_on_c, 11, 76, 119
27, 229704, Note_on_c, 11, 87, 0
27, 229719, Note_on_c, 11, 76, 0
27, 229763, Note_on_c, 11, 88, 121
27, 229787, Note_on_c, 11, 88, 0
27, 229787, Note_on_c, 11, 75, 126
27, 229811, Note_on_c, 11, 75, 0
27, 229863, Note_on_c, 11, 89, 119
27, 229867, Note_on_c, 11, 74, 125
27, 229887, Note_on_c, 11, 89, 0
27, 229891, Note_on_c, 11, 74, 0
27, 229924, Note_on_c, 11, 90, 106
27, 230044, Note_on_c, 11, 90, 0
27, 230177, Note_on_c, 11, 62, 93
27, 230284, Note_on_c, 11, 62, 0
27, 230651, Note_on_c, 11, 62, 101
27, 230758, Note_on_c, 11, 62, 0
27, 231148, Note_on_c, 11, 62, 101
27, 231255, Note_on_c, 11, 62, 0
27, 231616, Note_on_c, 11, 62, 96
27, 231723, Note_on_c, 11, 62, 0
27, 232104, Note_on_c, 11, 62, 95
27, 232211, Note_on_c, 11, 62, 0
27, 232572, Note_on_c, 11, 62, 99
27, 232679, Note_on_c, 11, 62, 0
27, 233064, Note_on_c, 11, 62, 91
27, 233171, Note_on_c, 11, 62, 0
27, 233520, Program_c, 11, 48
27, 233539, Note_on_c, 11, 67, 109
27, 233539, Note_on_c, 11, 79, 113
27, 233779, Note_on_c, 11, 67, 0
27, 233779, Note_on_c, 11, 79, 0
27, 234000, Program_c, 11, 45
27, 234022, Note_on_c, 11, 79, 110
27, 234262, Note_on_c, 11, 79, 0
27, 234480, Program_c, 11, 48
27, 234504, Note_on_c, 11, 84, 98
27, 234540, Note_on_c, 11, 84, 0
27, 234573, Note_on_c, 11, 85, 106
27, 234609, Note_on_c, 11, 85, 0
27, 234642, Note_on_c, 11, 86, 101
27, 234678, Note_on_c, 11, 86, 0
27, 234735, Note_on_c, 11, 87, 95
27, 234771, Note_on_c, 11, 87, 0
27, 234819, Note_on_c, 11, 88, 103
27, 234855, Note_on_c, 11, 88, 0
27, 234900, Note_on_c, 11, 89, 102
27, 234936, Note_on_c, 11, 89, 0
27, 234979, Note_on_c, 11, 90, 108
27, 235099, Note_on_c, 11, 90, 0
27, 235219, Note_on_c, 11, 62, 91
27, 235326, Note_on_c, 11, 62, 0
27, 235698, Note_on_c, 11, 62, 91
27, 235805, Note_on_c, 11, 62, 0
27, 236164, Note_on_c, 11, 62, 91
27, 236271, Note_on_c, 11, 62, 0
27, 236654, Note_on_c, 11, 62, 98
27, 236761, Note_on_c, 11, 62, 0
27, 237136, Note_on_c, 11, 62, 107
27, 237243, Note_on_c, 11, 62, 0
27, 237602, Note_on_c, 11, 62, 103
27, 237709, Note_on_c, 11, 62, 0
27, 238090, Note_on_c, 11, 62, 97
27, 238197, Note_on_c, 11, 62, 0
27, 238560, Note_on_c, 11, 78, 108
27, 238562, Note_on_c, 11, 84, 91
27, 238574, Note_on_c, 11, 73, 99
27, 238800, Note_on_c, 11, 78, 0
27, 238802, Note_on_c, 11, 84, 0
27, 238814, Note_on_c, 11, 73, 0
27, 239056, Note_on_c, 11, 77, 110
27, 239059, Note_on_c, 11, 71, 110
27, 239061, Note_on_c, 11, 82, 91
27, 239296, Note_on_c, 11, 77, 0
27, 239299, Note_on_c, 11, 71, 0
27, 239301, Note_on_c, 11, 82, 0
27, 239524, Note_on_c, 11, 80, 95
27, 239525, Note_on_c, 11, 69, 105
27, 239542, Note_on_c, 11, 74, 94
27, 239764, Note_on_c, 11, 80, 0
27, 239765, Note_on_c, 11, 69, 0
27, 239782, Note_on_c, 11, 74, 0
27, 240000, Program_c, 11, 48
27, 240019, Note_on_c, 11, 79, 113
27, 240020, Note_on_c, 11, 67, 108
27, 240259, Note_on_c, 11, 79, 0
27, 240260, Note_on_c, 11, 67, 0
27, 240480, Program_c, 11, 45
27, 240506, Note_on_c, 11, 79, 99
27, 240746, Note_on_c, 11, 79, 0
27, 241200, Program_c, 11, 48
27, 241205, Note_on_c, 11, 84, 98
27, 241213, Note_on_c, 11, 73, 111
27, 241214, Note_on_c, 11, 78, 92
27, 241445, Note_on_c, 11, 84, 0
27, 241453, Note_on_c, 11, 73, 0
27, 241454, Note_on_c, 11, 78, 0
27, 241696, Note_on_c, 11, 71, 105
27, 241698, Note_on_c, 11, 77, 96
27, 241705, Note_on_c, 11, 82, 93
27, 241936, Note_on_c, 11, 71, 0
27, 241938, Note_on_c, 11, 77, 0
27, 241945, Note_on_c, 11, 82, 0
27, 242176, Note_on_c, 11, 80, 97
27, 242178, Note_on_c, 11, 75, 111
27, 242187, Note_on_c, 11, 69, 109
27, 242416, Note_on_c, 11, 80, 0
27, 242418, Note_on_c, 11, 75, 0
27, 242427, Note_on_c, 11, 69, 0
27, 242655, Note_on_c, 11, 73, 106
27, 242665, Note_on_c, 11, 68, 96
27, 242668, Note_on_c, 11, 79, 96
27, 242895, Note_on_c, 11, 73, 0
27, 242905, Note_on_c, 11, 68, 0
27, 242908, Note_on_c, 11, 79, 0
27, 243363, Note_on_c, 11, 79, 115
27, 243379, Note_on_c, 11, 67, 104
27, 243603, Note_on_c, 11, 79, 0
27, 243619, Note_on_c, 11, 67, 0
27, 243840, Program_c, 11, 45
27, 243844, Note_on_c, 11, 79, 108
27, 244084, Note_on_c, 11, 79, 0
27, 244560, Program_c, 11, 48
27, 244575, Note_on_c, 11, 67, 113
27, 244587, Note_on_c, 11, 79, 119
27, 244815, Note_on_c, 11, 67, 0
27, 244827, Note_on_c, 11, 79, 0
27, 245040, Program_c, 11, 45
27, 245043, Note_on_c, 11, 79, 93
27, 245283, Note_on_c, 11, 79, 0
27, 245760, Program_c, 11, 48
27, 245766, Note_on_c, 11, 67, 116
27, 245777, Note_on_c, 11, 79, 108
27, 246006, Note_on_c, 11, 67, 0
27, 246017, Note_on_c, 11, 79, 0
27, 246242, Note_on_c, 11, 79, 105
27, 246264, Note_on_c, 11, 67, 117
27, 246482, Note_on_c, 11, 79, 0
27, 246504, Note_on_c, 11, 67, 0
27, 246720, Program_c, 11, 45
27, 246740, Note_on_c, 11, 79, 97
27, 246980, Note_on_c, 11, 79, 0
27, 247440, Program_c, 11, 48
27, 247445, Note_on_c, 11, 79, 115
27, 247454, Note_on_c, 11, 67, 120
27, 247685, Note_on_c, 11, 79, 0
27, 247694, Note_on_c, 11, 67, 0
27, 247920, Program_c, 11, 45
27, 247937, Note_on_c, 11, 79, 95
27, 248177, Note_on_c, 11, 79, 0
27, 248637, Pitch_bend_c, 11, 12128
27, 248640, Program_c, 11, 48
27, 248656, Pitch_bend_c, 11, 11968
27, 248665, Note_on_c, 11, 77, 106
27, 248676, Pitch_bend_c, 11, 11808
27, 248695, Pitch_bend_c, 11, 11648
27, 248715, Pitch_bend_c, 11, 11488
27, 248734, Pitch_bend_c, 11, 11328
27, 248754, Pitch_bend_c, 11, 11168
27, 248774, Pitch_bend_c, 11, 11008
27, 248793, Pitch_bend_c, 11, 10848
27, 248812, Pitch_bend_c, 11, 10688
27, 248832, Pitch_bend_c, 11, 10528
27, 248851, Pitch_bend_c, 11, 10368
27, 248871, Pitch_bend_c, 11, 10208
27, 248890, Pitch_bend_c, 11, 10048
27, 248910, Pitch_bend_c, 11, 9888
27, 248929, Pitch_bend_c, 11, 9728
27, 248949, Pitch_bend_c, 11, 9568
27, 248968, Pitch_bend_c, 11, 9408
27, 248988, Pitch_bend_c, 11, 9248
27, 249007, Pitch_bend_c, 11, 9088
27, 249027, Pitch_bend_c, 11, 8928
27, 249046, Pitch_bend_c, 11, 8768
27, 249066, Pitch_bend_c, 11, 8608
27, 249085, Pitch_bend_c, 11, 8448
27, 249105, Pitch_bend_c, 11, 8288
27, 249208, Note_on_c, 11, 77, 0
27, 249297, Note_on_c, 11, 82, 122
27, 249393, Note_on_c, 11, 82, 0
27, 249443, Note_on_c, 11, 84, 106
27, 249506, Note_on_c, 11, 84, 0
27, 249787, Note_on_c, 11, 82, 111
27, 249883, Note_on_c, 11, 82, 0
27, 249937, Note_on_c, 11, 80, 115
27, 250000, Note_on_c, 11, 80, 0
27, 250265, Note_on_c, 11, 78, 116
27, 250361, Note_on_c, 11, 78, 0
27, 250421, Note_on_c, 11, 80, 112
27, 250484, Note_on_c, 11, 80, 0
27, 250797, Pitch_bend_c, 11, 12128
27, 250805, Note_on_c, 11, 77, 112
27, 250816, Pitch_bend_c, 11, 11968
27, 250836, Pitch_bend_c, 11, 11808
27, 250855, Pitch_bend_c, 11, 11648
27, 250875, Pitch_bend_c, 11, 11488
27, 250894, Pitch_bend_c, 11, 11328
27, 250914, Pitch_bend_c, 11, 11168
27, 250934, Pitch_bend_c, 11, 11008
27, 250953, Pitch_bend_c, 11, 10848
27, 250972, Pitch_bend_c, 11, 10688
27, 250992, Pitch_bend_c, 11, 10528
27, 251011, Pitch_bend_c, 11, 10368
27, 251031, Pitch_bend_c, 11, 10208
27, 251050, Pitch_bend_c, 11, 10048
27, 251070, Pitch_bend_c, 11, 9888
27, 251089, Pitch_bend_c, 11, 9728
27, 251109, Pitch_bend_c, 11, 9568
27, 251128, Pitch_bend_c, 11, 9408
27, 251148, Pitch_bend_c, 11, 9248
27, 251167, Pitch_bend_c, 11, 9088
27, 251187, Pitch_bend_c, 11, 8928
27, 251206, Pitch_bend_c, 11, 8768
27, 251226, Pitch_bend_c, 11, 8608
27, 251245, Pitch_bend_c, 11, 8448
27, 251265, Pitch_bend_c, 11, 8288
27, 251348, Note_on_c, 11, 77, 0
27, 251460, Note_on_c, 11, 82, 114
27, 251556, Note_on_c, 11, 82, 0
27, 251613, Note_on_c, 11, 84, 109
27, 251676, Note_on_c, 11, 84, 0
27, 251945, Note_on_c, 11, 82, 117
27, 252041, Note_on_c, 11, 82, 0
27, 252105, Note_on_c, 11, 80, 118
27, 252168, Note_on_c, 11, 80, 0
27, 252400, Note_on_c, 11, 78, 116
27, 252496, Note_on_c, 11, 78, 0
27, 252568, Note_on_c, 11, 80, 105
27, 252631, Note_on_c, 11, 80, 0
27, 252908, Note_on_c, 11, 78, 113
27, 253004, Note_on_c, 11, 78, 0
27, 253062, Note_on_c, 11, 80, 113
27, 253125, Note_on_c, 11, 80, 0
27, 253437, Pitch_bend_c, 11, 12128
27, 253446, Note_on_c, 11, 77, 108
27, 253456, Pitch_bend_c, 11, 11968
27, 253476, Pitch_bend_c, 11, 11808
27, 253495, Pitch_bend_c, 11, 11648
27, 253515, Pitch_bend_c, 11, 11488
27, 253534, Pitch_bend_c, 11, 11328
27, 253554, Pitch_bend_c, 11, 11168
27, 253574, Pitch_bend_c, 11, 11008
27, 253593, Pitch_bend_c, 11, 10848
27, 253612, Pitch_bend_c, 11, 10688
27, 253632, Pitch_bend_c, 11, 10528
27, 253651, Pitch_bend_c, 11, 10368
27, 253671, Pitch_bend_c, 11, 10208
27, 253690, Pitch_bend_c, 11, 10048
27, 253710, Pitch_bend_c, 11, 9888
27, 253729, Pitch_bend_c, 11, 9728
27, 253749, Pitch_bend_c, 11, 9568
27, 253768, Pitch_bend_c, 11, 9408
27, 253788, Pitch_bend_c, 11, 9248
27, 253807, Pitch_bend_c, 11, 9088
27, 253827, Pitch_bend_c, 11, 8928
27, 253846, Pitch_bend_c, 11, 8768
27, 253866, Pitch_bend_c, 11, 8608
27, 253885, Pitch_bend_c, 11, 8448
27, 253905, Pitch_bend_c, 11, 8288
27, 253989, Note_on_c, 11, 77, 0
27, 254086, Note_on_c, 11, 82, 113
27, 254182, Note_on_c, 11, 82, 0
27, 254253, Note_on_c, 11, 84, 106
27, 254316, Note_on_c, 11, 84, 0
27, 254562, Note_on_c, 11, 82, 115
27, 254658, Note_on_c, 11, 82, 0
27, 254721, Note_on_c, 11, 80, 109
27, 254784, Note_on_c, 11, 80, 0
27, 255067, Note_on_c, 11, 78, 124
27, 255163, Note_on_c, 11, 78, 0
27, 255212, Note_on_c, 11, 80, 109
27, 255275, Note_on_c, 11, 80, 0
27, 255545, Note_on_c, 11, 82, 118
27, 255641, Note_on_c, 11, 82, 0
27, 255690, Note_on_c, 11, 84, 110
27, 255753, Note_on_c, 11, 84, 0
27, 255850, Note_on_c, 11, 82, 111
27, 255970, Note_on_c, 11, 82, 0
27, 255975, Note_on_c, 11, 80, 118
27, 256095, Note_on_c, 11, 80, 0
27, 256330, Note_on_c, 11, 78, 107
27, 256443, Note_on_c, 11, 80, 121
27, 256450, Note_on_c, 11, 78, 0
27, 256563, Note_on_c, 11, 80, 0
27, 257040, Program_c, 11, 45
27, 257052, Note_on_c, 11, 70, 68
27, 257065, Note_on_c, 11, 59, 67
27, 257065, Note_on_c, 11, 65, 82
27, 257292, Note_on_c, 11, 70, 0
27, 257305, Note_on_c, 11, 59, 0
27, 257305, Note_on_c, 11, 65, 0
27, 257527, Note_on_c, 11, 61, 80
27, 257539, Note_on_c, 11, 72, 81
27, 257540, Note_on_c, 11, 66, 76
27, 257767, Note_on_c, 11, 61, 0
27, 257779, Note_on_c, 11, 72, 0
27, 257780, Note_on_c, 11, 66, 0
27, 258005, Note_on_c, 11, 62, 71
27, 258015, Note_on_c, 11, 73, 85
27, 258021, Note_on_c, 11, 68, 65
27, 258245, Note_on_c, 11, 62, 0
27, 258255, Note_on_c, 11, 73, 0
27, 258261, Note_on_c, 11, 68, 0
27, 258484, Note_on_c, 11, 64, 69
27, 258497, Note_on_c, 11, 70, 83
27, 258498, Note_on_c, 11, 59, 69
27, 258724, Note_on_c, 11, 64, 0
27, 258737, Note_on_c, 11, 70, 0
27, 258738, Note_on_c, 11, 59, 0
27, 258965, Note_on_c, 11, 73, 69
27, 258972, Note_on_c, 11, 62, 81
27, 258984, Note_on_c, 11, 68, 65
27, 259205, Note_on_c, 11, 73, 0
27, 259212, Note_on_c, 11, 62, 0
27, 259224, Note_on_c, 11, 68, 0
27, 259359, Program_c, 11, 48
27, 259376, Note_on_c, 11, 82, 102
27, 259472, Note_on_c, 11, 82, 0
27, 259541, Note_on_c, 11, 84, 91
27, 259604, Note_on_c, 11, 84, 0
27, 259850, Note_on_c, 11, 82, 101
27, 259946, Note_on_c, 11, 82, 0
27, 260015, Note_on_c, 11, 80, 94
27, 260078, Note_on_c, 11, 80, 0
27, 260328, Note_on_c, 11, 78, 108
27, 260424, Note_on_c, 11, 78, 0
27, 260493, Note_on_c, 11, 80, 110
27, 260556, Note_on_c, 11, 80, 0
27, 260820, Note_on_c, 11, 82, 94
27, 260916, Note_on_c, 11, 82, 0
27, 260968, Note_on_c, 11, 84, 92
27, 261031, Note_on_c, 11, 84, 0
27, 261299, Note_on_c, 11, 82, 111
27, 261395, Note_on_c, 11, 82, 0
27, 261450, Note_on_c, 11, 80, 106
27, 261513, Note_on_c, 11, 80, 0
27, 261616, Note_on_c, 11, 78, 96
27, 261726, Note_on_c, 11, 80, 98
27, 261736, Note_on_c, 11, 78, 0
27, 261846, Note_on_c, 11, 80, 0
27, 262255, Note_on_c, 11, 82, 106
27, 262351, Note_on_c, 11, 82, 0
27, 262422, Note_on_c, 11, 84, 109
27, 262485, Note_on_c, 11, 84, 0
27, 262569, Note_on_c, 11, 82, 104
27, 262689, Note_on_c, 11, 82, 0
27, 262689, Note_on_c, 11, 80, 104
27, 262809, Note_on_c, 11, 80, 0
27, 263067, Note_on_c, 11, 78, 94
27, 263184, Note_on_c, 11, 80, 106
27, 263187, Note_on_c, 11, 78, 0
27, 263304, Note_on_c, 11, 80, 0
27, 263505, Program_c, 11, 45
27, 263682, Note_on_c, 11, 61, 94
27, 263762, Note_on_c, 11, 61, 0
27, 263842, Note_on_c, 11, 63, 105
27, 263922, Note_on_c, 11, 63, 0
27, 264008, Note_on_c, 11, 65, 110
27, 264088, Note_on_c, 11, 65, 0
27, 264170, Note_on_c, 11, 66, 109
27, 264250, Note_on_c, 11, 66, 0
27, 264332, Note_on_c, 11, 68, 91
27, 264412, Note_on_c, 11, 68, 0
27, 264722, Note_on_c, 11, 59, 63
27, 264727, Note_on_c, 11, 70, 69
27, 264738, Note_on_c, 11, 65, 66
27, 264962, Note_on_c, 11, 59, 0
27, 264967, Note_on_c, 11, 70, 0
27, 264978, Note_on_c, 11, 65, 0
27, 265205, Note_on_c, 11, 61, 64
27, 265220, Note_on_c, 11, 72, 60
27, 265224, Note_on_c, 11, 66, 59
27, 265445, Note_on_c, 11, 61, 0
27, 265460, Note_on_c, 11, 72, 0
27, 265464, Note_on_c, 11, 66, 0
27, 265690, Note_on_c, 11, 73, 62
27, 265702, Note_on_c, 11, 62, 72
27, 265705, Note_on_c, 11, 68, 71
27, 265930, Note_on_c, 11, 73, 0
27, 265942, Note_on_c, 11, 62, 0
27, 265945, Note_on_c, 11, 68, 0
27, 266167, Note_on_c, 11, 59, 69
27, 266175, Note_on_c, 11, 64, 64
27, 266188, Note_on_c, 11, 70, 57
27, 266407, Note_on_c, 11, 59, 0
27, 266415, Note_on_c, 11, 64, 0
27, 266428, Note_on_c, 11, 70, 0
27, 266650, Note_on_c, 11, 73, 63
27, 266660, Note_on_c, 11, 68, 69
27, 266665, Note_on_c, 11, 62, 54
27, 266890, Note_on_c, 11, 73, 0
27, 266900, Note_on_c, 11, 68, 0
27, 266905, Note_on_c, 11, 62, 0
27, 267136, Note_on_c, 11, 59, 56
27, 267136, Note_on_c, 11, 70, 71
27, 267145, Note_on_c, 11, 65, 63
27, 267376, Note_on_c, 11, 59, 0
27, 267376, Note_on_c, 11, 70, 0
27, 267385, Note_on_c, 11, 65, 0
27, 267605, Note_on_c, 11, 61, 57
27, 267615, Note_on_c, 11, 72, 64
27, 267627, Note_on_c, 11, 66, 65
27, 267845, Note_on_c, 11, 61, 0
27, 267855, Note_on_c, 11, 72, 0
27, 267867, Note_on_c, 11, 66, 0
27, 268080, Note_on_c, 11, 73, 66
27, 268099, Note_on_c, 11, 68, 70
27, 268100, Note_on_c, 11, 62, 61
27, 268320, Note_on_c, 11, 73, 0
27, 268339, Note_on_c, 11, 68, 0
27, 268340, Note_on_c, 11, 62, 0
27, 268569, Note_on_c, 11, 70, 55
27, 268572, Note_on_c, 11, 64, 56
27, 268573, Note_on_c, 11, 59, 72
27, 268809, Note_on_c, 11, 70, 0
27, 268812, Note_on_c, 11, 64, 0
27, 268813, Note_on_c, 11, 59, 0
27, 269048, Note_on_c, 11, 62, 68
27, 269049, Note_on_c, 11, 68, 59
27, 269055, Note_on_c, 11, 73, 65
27, 269288, Note_on_c, 11, 62, 0
27, 269289, Note_on_c, 11, 68, 0
27, 269295, Note_on_c, 11, 73, 0
27, 269523, Note_on_c, 11, 61, 71
27, 269532, Note_on_c, 11, 66, 55
27, 269533, Note_on_c, 11, 72, 59
27, 269763, Note_on_c, 11, 61, 0
27, 269772, Note_on_c, 11, 66, 0
27, 269773, Note_on_c, 11, 72, 0
27, 270007, Note_on_c, 11, 75, 71
27, 270028, Note_on_c, 11, 64, 85
27, 270247, Note_on_c, 11, 75, 0
27, 270268, Note_on_c, 11, 64, 0
27, 270488, Note_on_c, 11, 75, 80
27, 270493, Note_on_c, 11, 64, 66
27, 270728, Note_on_c, 11, 75, 0
27, 270733, Note_on_c, 11, 64, 0
27, 270972, Note_on_c, 11, 75, 72
27, 270976, Note_on_c, 11, 64, 66
27, 271212, Note_on_c, 11, 75, 0
27, 271216, Note_on_c, 11, 64, 0
27, 271447, Note_on_c, 11, 75, 74
27, 271449, Note_on_c, 11, 64, 81
27, 271687, Note_on_c, 11, 75, 0
27, 271689, Note_on_c, 11, 64, 0
27, 271920, Note_on_c, 11, 64, 65
27, 271932, Note_on_c, 11, 75, 84
27, 272160, Note_on_c, 11, 64, 0
27, 272172, Note_on_c, 11, 75, 0
27, 272411, Note_on_c, 11, 75, 73
27, 272415, Note_on_c, 11, 64, 81
27, 272651, Note_on_c, 11, 75, 0
27, 272655, Note_on_c, 11, 64, 0
27, 272881, Note_on_c, 11, 64, 71
27, 272892, Note_on_c, 11, 75, 72
27, 273121, Note_on_c, 11, 64, 0
27, 273132, Note_on_c, 11, 75, 0
27, 273365, Note_on_c, 11, 64, 69
27, 273372, Note_on_c, 11, 75, 68
27, 273605, Note_on_c, 11, 64, 0
27, 273612, Note_on_c, 11, 75, 0
27, 273846, Note_on_c, 11, 75, 65
27, 273852, Note_on_c, 11, 64, 71
27, 274086, Note_on_c, 11, 75, 0
27, 274092, Note_on_c, 11, 64, 0
27, 274346, Note_on_c, 11, 75, 80
27, 274348, Note_on_c, 11, 64, 84
27, 274586, Note_on_c, 11, 75, 0
27, 274588, Note_on_c, 11, 64, 0
27, 274808, Note_on_c, 11, 64, 77
27, 274817, Note_on_c, 11, 75, 74
27, 275048, Note_on_c, 11, 64, 0
27, 275057, Note_on_c, 11, 75, 0
27, 275292, Note_on_c, 11, 64, 67
27, 275302, Note_on_c, 11, 75, 77
27, 275532, Note_on_c, 11, 64, 0
27, 275542, Note_on_c, 11, 75, 0
27, 275774, Note_on_c, 11, 64, 74
27, 275784, Note_on_c, 11, 75, 81
27, 276014, Note_on_c, 11, 64, 0
27, 276024, Note_on_c, 11, 75, 0
27, 276241, Note_on_c, 11, 64, 85
27, 276246, Note_on_c, 11, 75, 73
27, 276481, Note_on_c, 11, 64, 0
27, 276486, Note_on_c, 11, 75, 0
27, 276727, Note_on_c, 11, 75, 75
27, 276735, Note_on_c, 11, 64, 76
27, 276967, Note_on_c, 11, 75, 0
27, 276975, Note_on_c, 11, 64, 0
27, 277212, Note_on_c, 11, 75, 69
27, 277214, Note_on_c, 11, 64, 85
27, 277452, Note_on_c, 11, 75, 0
27, 277454, Note_on_c, 11, 64, 0
27, 277683, Note_on_c, 11, 64, 65
27, 277691, Note_on_c, 11, 75, 74
27, 277923, Note_on_c, 11, 64, 0
27, 277931, Note_on_c, 11, 75, 0
27, 278172, Note_on_c, 11, 64, 85
27, 278180, Note_on_c, 11, 75, 83
27, 278412, Note_on_c, 11, 64, 0
27, 278420, Note_on_c, 11, 75, 0
27, 278641, Note_on_c, 11, 75, 78
27, 278642, Note_on_c, 11, 64, 84
27, 278881, Note_on_c, 11, 75, 0
27, 278882, Note_on_c, 11, 64, 0
27, 279136, Note_on_c, 11, 64, 70
27, 279149, Note_on_c, 11, 75, 77
27, 279376, Note_on_c, 11, 64, 0
27, 279389, Note_on_c, 11, 75, 0
27, 279615, Note_on_c, 11, 75, 83
27, 279624, Note_on_c, 11, 64, 80
27, 279840, Program_c, 11, 48
27, 279843, Note_on_c, 11, 75, 0
27, 279862, Note_on_c, 11, 75, 96
27, 279864, Note_on_c, 11, 64, 0
27, 279923, Note_on_c, 11, 77, 109
27, 279944, Note_on_c, 11, 75, 0
27, 279963, Note_on_c, 11, 75, 104
27, 280001, Note_on_c, 11, 77, 0
27, 280020, Note_on_c, 11, 77, 93
27, 280053, Note_on_c, 11, 75, 0
27, 280102, Note_on_c, 11, 75, 111
27, 280110, Note_on_c, 11, 77, 0
27, 280162, Note_on_c, 11, 77, 101
27, 280192, Note_on_c, 11, 75, 0
27, 280215, Note_on_c, 11, 75, 96
27, 280241, Note_on_c, 11, 77, 0
27, 280260, Note_on_c, 11, 77, 109
27, 280305, Note_on_c, 11, 75, 0
27, 280342, Note_on_c, 11, 75, 110
27, 280350, Note_on_c, 11, 77, 0
27, 280384, Note_on_c, 11, 77, 102
27, 280432, Note_on_c, 11, 75, 0
27, 280465, Note_on_c, 11, 75, 111
27, 280474, Note_on_c, 11, 77, 0
27, 280513, Note_on_c, 11, 77, 105
27, 280553, Note_on_c, 11, 75, 0
27, 280572, Note_on_c, 11, 75, 107
27, 280603, Note_on_c, 11, 77, 0
27, 280647, Note_on_c, 11, 77, 106
27, 280662, Note_on_c, 11, 75, 0
27, 280685, Note_on_c, 11, 75, 108
27, 280737, Note_on_c, 11, 77, 0
27, 280767, Note_on_c, 11, 77, 110
27, 280775, Note_on_c, 11, 75, 0
27, 280821, Note_on_c, 11, 75, 107
27, 280827, Note_on_c, 11, 77, 0
27, 280941, Note_on_c, 11, 75, 0
27, 281520, Program_c, 11, 45
27, 281523, Note_on_c, 11, 75, 85
27, 281530, Note_on_c, 11, 64, 72
27, 281763, Note_on_c, 11, 75, 0
27, 281770, Note_on_c, 11, 64, 0
27, 282011, Note_on_c, 11, 64, 83
27, 282015, Note_on_c, 11, 75, 75
27, 282251, Note_on_c, 11, 64, 0
27, 282255, Note_on_c, 11, 75, 0
27, 282495, Note_on_c, 11, 75, 79
27, 282498, Note_on_c, 11, 64, 77
27, 282735, Note_on_c, 11, 75, 0
27, 282738, Note_on_c, 11, 64, 0
27, 282966, Note_on_c, 11, 64, 84
27, 282972, Note_on_c, 11, 75, 76
27, 283206, Note_on_c, 11, 64, 0
27, 283212, Note_on_c, 11, 75, 0
27, 283445, Note_on_c, 11, 64, 75
27, 283446, Note_on_c, 11, 75, 83
27, 283685, Note_on_c, 11, 64, 0
27, 283686, Note_on_c, 11, 75, 0
27, 283924, Note_on_c, 11, 75, 68
27, 283934, Note_on_c, 11, 64, 75
27, 284160, Program_c, 11, 48
27, 284164, Note_on_c, 11, 75, 0
27, 284174, Note_on_c, 11, 64, 0
27, 284187, Note_on_c, 11, 75, 96
27, 284222, Note_on_c, 11, 77, 97
27, 284277, Note_on_c, 11, 75, 0
27, 284300, Note_on_c, 11, 75, 100
27, 284312, Note_on_c, 11, 77, 0
27, 284359, Note_on_c, 11, 77, 95
27, 284390, Note_on_c, 11, 75, 0
27, 284429, Note_on_c, 11, 75, 98
27, 284447, Note_on_c, 11, 77, 0
27, 284466, Note_on_c, 11, 77, 98
27, 284513, Note_on_c, 11, 75, 0
27, 284532, Note_on_c, 11, 75, 91
27, 284556, Note_on_c, 11, 77, 0
27, 284601, Note_on_c, 11, 77, 94
27, 284622, Note_on_c, 11, 75, 0
27, 284642, Note_on_c, 11, 75, 105
27, 284683, Note_on_c, 11, 77, 0
27, 284702, Note_on_c, 11, 77, 91
27, 284732, Note_on_c, 11, 75, 0
27, 284767, Note_on_c, 11, 75, 97
27, 284792, Note_on_c, 11, 77, 0
27, 284823, Note_on_c, 11, 77, 96
27, 284857, Note_on_c, 11, 75, 0
27, 284908, Note_on_c, 11, 75, 102
27, 284913, Note_on_c, 11, 77, 0
27, 284959, Note_on_c, 11, 77, 104
27, 284986, Note_on_c, 11, 75, 0
27, 285005, Note_on_c, 11, 75, 105
27, 285049, Note_on_c, 11, 77, 0
27, 285081, Note_on_c, 11, 77, 111
27, 285095, Note_on_c, 11, 75, 0
27, 285141, Note_on_c, 11, 77, 0
27, 285360, Program_c, 11, 45
27, 285377, Note_on_c, 11, 75, 79
27, 285384, Note_on_c, 11, 64, 78
27, 285617, Note_on_c, 11, 75, 0
27, 285624, Note_on_c, 11, 64, 0
27, 285858, Note_on_c, 11, 64, 72
27, 285865, Note_on_c, 11, 75, 75
27, 286098, Note_on_c, 11, 64, 0
27, 286105, Note_on_c, 11, 75, 0
27, 286321, Note_on_c, 11, 64, 68
27, 286338, Note_on_c, 11, 75, 75
27, 286554, Note_on_c, 11, 75, 0
27, 286560, Program_c, 11, 48
27, 286561, Note_on_c, 11, 64, 0
27, 286573, Note_on_c, 11, 75, 109
27, 286628, Note_on_c, 11, 77, 109
27, 286663, Note_on_c, 11, 75, 0
27, 286693, Note_on_c, 11, 75, 105
27, 286718, Note_on_c, 11, 77, 0
27, 286760, Note_on_c, 11, 77, 92
27, 286783, Note_on_c, 11, 75, 0
27, 286817, Note_on_c, 11, 75, 94
27, 286850, Note_on_c, 11, 77, 0
27, 286883, Note_on_c, 11, 77, 105
27, 286907, Note_on_c, 11, 75, 0
27, 286942, Note_on_c, 11, 75, 108
27, 286973, Note_on_c, 11, 77, 0
27, 286998, Note_on_c, 11, 77, 93
27, 287024, Note_on_c, 11, 75, 0
27, 287044, Note_on_c, 11, 75, 91
27, 287088, Note_on_c, 11, 77, 0
27, 287109, Note_on_c, 11, 77, 98
27, 287134, Note_on_c, 11, 75, 0
27, 287174, Note_on_c, 11, 75, 105
27, 287199, Note_on_c, 11, 77, 0
27, 287236, Note_on_c, 11, 77, 104
27, 287264, Note_on_c, 11, 75, 0
27, 287295, Note_on_c, 11, 75, 93
27, 287323, Note_on_c, 11, 77, 0
27, 287342, Note_on_c, 11, 77, 97
27, 287383, Note_on_c, 11, 75, 0
27, 287402, Note_on_c, 11, 75, 96
27, 287432, Note_on_c, 11, 77, 0
27, 287465, Note_on_c, 11, 77, 107
27, 287492, Note_on_c, 11, 75, 0
27, 287525, Note_on_c, 11, 77, 0
27, 287543, Note_on_c, 11, 75, 108
27, 287609, Note_on_c, 11, 77, 105
27, 287611, Note_on_c, 11, 75, 0
27, 287669, Note_on_c, 11, 78, 93
27, 287678, Note_on_c, 11, 77, 0
27, 287732, Note_on_c, 11, 80, 91
27, 287737, Note_on_c, 11, 78, 0
27, 287800, Note_on_c, 11, 80, 0
27, 287820, Note_on_c, 11, 82, 97
27, 287876, Note_on_c, 11, 84, 105
27, 287888, Note_on_c, 11, 82, 0
27, 287945, Note_on_c, 11, 84, 0
27, 287955, Note_on_c, 11, 85, 102
27, 288018, Note_on_c, 11, 87, 97
27, 288023, Note_on_c, 11, 85, 0
27, 288138, Note_on_c, 11, 87, 0
27, 289196, Control_c, 11, 101, 0
27, 289196, Control_c, 11, 100, 0
27, 289197, Control_c, 11, 6, 24
27, 289197, Control_c, 11, 38, 0
27, 289667, Pitch_bend_c, 11, 1024
27, 289676, Control_c, 11, 101, 0
27, 289676, Control_c, 11, 100, 0
27, 289677, Control_c, 11, 6, 24
27, 289677, Control_c, 11, 38, 24
27, 290167, Note_on_c, 11, 90, 100
27, 290169, Pitch_bend_c, 11, 1184
27, 290180, Pitch_bend_c, 11, 1344
27, 290190, Pitch_bend_c, 11, 1504
27, 290201, Pitch_bend_c, 11, 1664
27, 290212, Pitch_bend_c, 11, 1824
27, 290223, Pitch_bend_c, 11, 1984
27, 290233, Pitch_bend_c, 11, 2144
27, 290244, Pitch_bend_c, 11, 2304
27, 290255, Pitch_bend_c, 11, 2464
27, 290265, Pitch_bend_c, 11, 2624
27, 290276, Pitch_bend_c, 11, 2784
27, 290287, Pitch_bend_c, 11, 2944
27, 290298, Pitch_bend_c, 11, 3104
27, 290309, Pitch_bend_c, 11, 3264
27, 290319, Pitch_bend_c, 11, 3424
27, 290330, Pitch_bend_c, 11, 3584
27, 290341, Pitch_bend_c, 11, 3744
27, 290352, Pitch_bend_c, 11, 3904
27, 290362, Pitch_bend_c, 11, 4064
27, 290373, Pitch_bend_c, 11, 4224
27, 290384, Pitch_bend_c, 11, 4384
27, 290394, Pitch_bend_c, 11, 4544
27, 290405, Pitch_bend_c, 11, 4704
27, 290416, Pitch_bend_c, 11, 4864
27, 290427, Pitch_bend_c, 11, 5024
27, 290437, Pitch_bend_c, 11, 5184
27, 290448, Pitch_bend_c, 11, 5344
27, 290459, Pitch_bend_c, 11, 5504
27, 290470, Pitch_bend_c, 11, 5664
27, 290481, Pitch_bend_c, 11, 5824
27, 290491, Pitch_bend_c, 11, 5984
27, 290502, Pitch_bend_c, 11, 6144
27, 290512, Pitch_bend_c, 11, 6304
27, 290523, Pitch_bend_c, 11, 6464
27, 290534, Pitch_bend_c, 11, 6624
27, 290545, Pitch_bend_c, 11, 6784
27, 290556, Pitch_bend_c, 11, 6944
27, 290566, Pitch_bend_c, 11, 7104
27, 290577, Pitch_bend_c, 11, 7264
27, 290588, Pitch_bend_c, 11, 7424
27, 290599, Pitch_bend_c, 11, 7584
27, 290610, Pitch_bend_c, 11, 7744
27, 290620, Pitch_bend_c, 11, 7904
27, 290631, Pitch_bend_c, 11, 8064
27, 290632, Pitch_bend_c, 11, 8192
27, 290767, Note_on_c, 11, 90, 0
27, 290893, Note_on_c, 11, 67, 108
27, 290901, Note_on_c, 11, 79, 112
27, 291133, Note_on_c, 11, 67, 0
27, 291141, Note_on_c, 11, 79, 0
27, 291360, Program_c, 11, 45
27, 291388, Note_on_c, 11, 79, 105
27, 291628, Note_on_c, 11, 79, 0
27, 292080, Program_c, 11, 48
27, 292096, Note_on_c, 11, 67, 106
27, 292105, Note_on_c, 11, 79, 119
27, 292336, Note_on_c, 11, 67, 0
27, 292345, Note_on_c, 11, 79, 0
27, 292560, Program_c, 11, 45
27, 292570, Note_on_c, 11, 79, 110
27, 292810, Note_on_c, 11, 79, 0
27, 293040, Program_c, 11, 48
27, 293285, Note_on_c, 11, 67, 111
27, 293299, Note_on_c, 11, 79, 95
27, 293525, Note_on_c, 11, 67, 0
27, 293539, Note_on_c, 11, 79, 0
27, 293777, Note_on_c, 11, 79, 110
27, 293786, Note_on_c, 11, 67, 94
27, 294017, Note_on_c, 11, 79, 0
27, 294026, Note_on_c, 11, 67, 0
27, 294252, Note_on_c, 11, 67, 103
27, 294268, Note_on_c, 11, 79, 95
27, 294492, Note_on_c, 11, 67, 0
27, 294508, Note_on_c, 11, 79, 0
27, 294729, Note_on_c, 11, 79, 93
27, 294739, Note_on_c, 11, 67, 99
27, 294969, Note_on_c, 11, 79, 0
27, 294979, Note_on_c, 11, 67, 0
27, 295440, Program_c, 11, 48
27, 295458, Note_on_c, 11, 67, 108
27, 295462, Note_on_c, 11, 79, 104
27, 295698, Note_on_c, 11, 67, 0
27, 295702, Note_on_c, 11, 79, 0
27, 295920, Program_c, 11, 45
27, 295935, Note_on_c, 11, 79, 106
27, 296175, Note_on_c, 11, 79, 0
27, 296640, Program_c, 11, 48
27, 296650, Note_on_c, 11, 67, 107
27, 296656, Note_on_c, 11, 79, 104
27, 296890, Note_on_c, 11, 67, 0
27, 296896, Note_on_c, 11, 79, 0
27, 297136, Note_on_c, 11, 79, 102
27, 297145, Note_on_c, 11, 67, 91
27, 297376, Note_on_c, 11, 79, 0
27, 297385, Note_on_c, 11, 67, 0
27, 297600, Program_c, 11, 45
27, 297624, Note_on_c, 11, 79, 111
27, 297864, Note_on_c, 11, 79, 0
27, 298320, Program_c, 11, 48
27, 298336, Note_on_c, 11, 67, 98
27, 298336, Note_on_c, 11, 79, 109
27, 298576, Note_on_c, 11, 67, 0
27, 298576, Note_on_c, 11, 79, 0
27, 298800, Program_c, 11, 45
27, 298819, Note_on_c, 11, 79, 95
27, 299059, Note_on_c, 11, 79, 0
27, 299280, Program_c, 11, 48
27, 299529, Note_on_c, 11, 84, 101
27, 299533, Note_on_c, 11, 78, 94
27, 299542, Note_on_c, 11, 73, 96
27, 299769, Note_on_c, 11, 84, 0
27, 299773, Note_on_c, 11, 78, 0
27, 299782, Note_on_c, 11, 73, 0
27, 300001, Note_on_c, 11, 82, 99
27, 300025, Note_on_c, 11, 71, 99
27, 300027, Note_on_c, 11, 77, 97
27, 300241, Note_on_c, 11, 82, 0
27, 300265, Note_on_c, 11, 71, 0
27, 300267, Note_on_c, 11, 77, 0
27, 300492, Note_on_c, 11, 74, 100
27, 300494, Note_on_c, 11, 69, 92
27, 300495, Note_on_c, 11, 80, 109
27, 300732, Note_on_c, 11, 74, 0
27, 300734, Note_on_c, 11, 69, 0
27, 300735, Note_on_c, 11, 80, 0
27, 300960, Program_c, 11, 48
27, 300960, Note_on_c, 11, 67, 114
27, 300985, Note_on_c, 11, 79, 111
27, 301200, Note_on_c, 11, 67, 0
27, 301225, Note_on_c, 11, 79, 0
27, 301440, Program_c, 11, 45
27, 301461, Note_on_c, 11, 79, 110
27, 301701, Note_on_c, 11, 79, 0
27, 302160, Program_c, 11, 48
27, 302166, Note_on_c, 11, 84, 100
27, 302185, Note_on_c, 11, 78, 102
27, 302185, Note_on_c, 11, 73, 94
27, 302406, Note_on_c, 11, 84, 0
27, 302425, Note_on_c, 11, 78, 0
27, 302425, Note_on_c, 11, 73, 0
27, 302647, Note_on_c, 11, 77, 105
27, 302651, Note_on_c, 11, 71, 108
27, 302662, Note_on_c, 11, 82, 91
27, 302887, Note_on_c, 11, 77, 0
27, 302891, Note_on_c, 11, 71, 0
27, 302902, Note_on_c, 11, 82, 0
27, 303126, Note_on_c, 11, 80, 110
27, 303128, Note_on_c, 11, 69, 91
27, 303142, Note_on_c, 11, 75, 94
27, 303366, Note_on_c, 11, 80, 0
27, 303368, Note_on_c, 11, 69, 0
27, 303382, Note_on_c, 11, 75, 0
27, 303604, Note_on_c, 11, 79, 104
27, 303608, Note_on_c, 11, 73, 106
27, 303609, Note_on_c, 11, 68, 111
27, 303844, Note_on_c, 11, 79, 0
27, 303848, Note_on_c, 11, 73, 0
27, 303849, Note_on_c, 11, 68, 0
27, 304320, Program_c, 11, 48
27, 304331, Note_on_c, 11, 67, 107
27, 304344, Note_on_c, 11, 79, 118
27, 304571, Note_on_c, 11, 67, 0
27, 304584, Note_on_c, 11, 79, 0
27, 304800, Program_c, 11, 45
27, 304820, Note_on_c, 11, 79, 102
27, 305060, Note_on_c, 11, 79, 0
27, 305520, Program_c, 11, 48
27, 305521, Note_on_c, 11, 67, 116
27, 305542, Note_on_c, 11, 79, 118
27, 305761, Note_on_c, 11, 67, 0
27, 305782, Note_on_c, 11, 79, 0
27, 306000, Program_c, 11, 45
27, 306028, Note_on_c, 11, 79, 107
27, 306268, Note_on_c, 11, 79, 0
27, 306720, Program_c, 11, 48
27, 306744, Note_on_c, 11, 67, 114
27, 306747, Note_on_c, 11, 79, 105
27, 306984, Note_on_c, 11, 67, 0
27, 306987, Note_on_c, 11, 79, 0
27, 307208, Note_on_c, 11, 79, 110
27, 307222, Note_on_c, 11, 67, 111
27, 307448, Note_on_c, 11, 79, 0
27, 307462, Note_on_c, 11, 67, 0
27, 307680, Program_c, 11, 45
27, 307708, Note_on_c, 11, 79, 96
27, 307948, Note_on_c, 11, 79, 0
27, 308400, Program_c, 11, 48
27, 308400, Note_on_c, 11, 79, 120
27, 308402, Note_on_c, 11, 67, 101
27, 308640, Note_on_c, 11, 79, 0
27, 308642, Note_on_c, 11, 67, 0
27, 308880, Program_c, 11, 45
27, 308905, Note_on_c, 11, 79, 98
27, 309145, Note_on_c, 11, 79, 0
27, 322320, Program_c, 11, 48
27, 322325, Note_on_c, 11, 88, 95
27, 322335, Note_on_c, 11, 76, 104
27, 322348, Note_on_c, 11, 67, 110
27, 322805, Note_on_c, 11, 88, 0
27, 322815, Note_on_c, 11, 76, 0
27, 322828, Note_on_c, 11, 67, 0
27, 323283, Note_on_c, 11, 76, 100
27, 323304, Note_on_c, 11, 67, 93
27, 323305, Note_on_c, 11, 88, 99
27, 323763, Note_on_c, 11, 76, 0
27, 323784, Note_on_c, 11, 67, 0
27, 323785, Note_on_c, 11, 88, 0
27, 329520, Note_on_c, 11, 60, 40
27, 329525, Note_on_c, 11, 64, 40
27, 329712, Note_on_c, 11, 60, 0
27, 329717, Note_on_c, 11, 64, 0
27, 330007, Note_on_c, 11, 60, 46
27, 330012, Note_on_c, 11, 64, 38
27, 330199, Note_on_c, 11, 60, 0
27, 330204, Note_on_c, 11, 64, 0
27, 330495, Note_on_c, 11, 60, 45
27, 330503, Note_on_c, 11, 64, 36
27, 330687, Note_on_c, 11, 60, 0
27, 330695, Note_on_c, 11, 64, 0
27, 330969, Note_on_c, 11, 64, 34
27, 330977, Note_on_c, 11, 60, 45
27, 331161, Note_on_c, 11, 64, 0
27, 331169, Note_on_c, 11, 60, 0
27, 331457, Note_on_c, 11, 64, 49
27, 331462, Note_on_c, 11, 60, 32
27, 331649, Note_on_c, 11, 64, 0
27, 331654, Note_on_c, 11, 60, 0
27, 331932, Note_on_c, 11, 64, 34
27, 331933, Note_on_c, 11, 60, 50
27, 332124, Note_on_c, 11, 64, 0
27, 332125, Note_on_c, 11, 60, 0
27, 341520, Program_c, 11, 48
27, 341523, Note_on_c, 11, 67, 91
27, 341539, Note_on_c, 11, 88, 92
27, 341542, Note_on_c, 11, 76, 102
27, 342003, Note_on_c, 11, 67, 0
27, 342019, Note_on_c, 11, 88, 0
27, 342022, Note_on_c, 11, 76, 0
27, 342482, Note_on_c, 11, 88, 99
27, 342506, Note_on_c, 11, 67, 107
27, 342507, Note_on_c, 11, 76, 110
27, 342962, Note_on_c, 11, 88, 0
27, 342986, Note_on_c, 11, 67, 0
27, 342987, Note_on_c, 11, 76, 0
27, 346331, Note_on_c, 11, 76, 109
27, 346342, Note_on_c, 11, 67, 111
27, 346344, Note_on_c, 11, 88, 91
27, 346811, Note_on_c, 11, 76, 0
27, 346822, Note_on_c, 11, 67, 0
27, 346824, Note_on_c, 11, 88, 0
27, 347281, Note_on_c, 11, 88, 101
27, 347286, Note_on_c, 11, 76, 106
27, 347306, Note_on_c, 11, 67, 109
27, 347761, Note_on_c, 11, 88, 0
27, 347766, Note_on_c, 11, 76, 0
27, 347786, Note_on_c, 11, 67, 0
27, 349681, Note_on_c, 11, 76, 111
27, 349683, Note_on_c, 11, 88, 107
27, 349699, Note_on_c, 11, 67, 111
27, 350161, Note_on_c, 11, 76, 0
27, 350163, Note_on_c, 11, 88, 0
27, 350179, Note_on_c, 11, 67, 0
27, 350646, Note_on_c, 11, 76, 101
27, 350653, Note_on_c, 11, 67, 97
27, 350664, Note_on_c, 11, 88, 94
27, 351126, Note_on_c, 11, 76, 0
27, 351133, Note_on_c, 11, 67, 0
27, 351144, Note_on_c, 11, 88, 0
27, 352570, Note_on_c, 11, 64, 49
27, 352580, Note_on_c, 11, 60, 49
27, 352762, Note_on_c, 11, 64, 0
27, 352772, Note_on_c, 11, 60, 0
27, 353041, Note_on_c, 11, 60, 48
27, 353065, Note_on_c, 11, 64, 33
27, 353233, Note_on_c, 11, 60, 0
27, 353257, Note_on_c, 11, 64, 0
27, 353520, Note_on_c, 11, 64, 41
27, 353543, Note_on_c, 11, 60, 36
27, 353712, Note_on_c, 11, 64, 0
27, 353735, Note_on_c, 11, 60, 0
27, 354025, Note_on_c, 11, 60, 30
27, 354028, Note_on_c, 11, 64, 34
27, 354217, Note_on_c, 11, 60, 0
27, 354220, Note_on_c, 11, 64, 0
27, 354487, Note_on_c, 11, 60, 39
27, 354493, Note_on_c, 11, 64, 42
27, 354679, Note_on_c, 11, 60, 0
27, 354685, Note_on_c, 11, 64, 0
27, 354982, Note_on_c, 11, 64, 34
27, 354987, Note_on_c, 11, 60, 44
27, 355174, Note_on_c, 11, 64, 0
27, 355179, Note_on_c, 11, 60, 0
27, 383281, Note_on_c, 11, 67, 101
27, 383294, Note_on_c, 11, 76, 99
27, 383303, Note_on_c, 11, 88, 98
27, 383761, Note_on_c, 11, 67, 0
27, 383774, Note_on_c, 11, 76, 0
27, 383783, Note_on_c, 11, 88, 0
27, 384258, Note_on_c, 11, 67, 101
27, 384260, Note_on_c, 11, 88, 107
27, 384264, Note_on_c, 11, 76, 101
27, 384738, Note_on_c, 11, 67, 0
27, 384740, Note_on_c, 11, 88, 0
27, 384744, Note_on_c, 11, 76, 0
27, 385201, Note_on_c, 11, 88, 101
27, 385215, Note_on_c, 11, 76, 108
27, 385229, Note_on_c, 11, 67, 100
27, 385681, Note_on_c, 11, 88, 0
27, 385695, Note_on_c, 11, 76, 0
27, 385709, Note_on_c, 11, 67, 0
27, 391440, Program_c, 11, 45
27, 391457, Note_on_c, 11, 65, 58
27, 391914, Note_on_c, 11, 65, 0
27, 391933, Note_on_c, 11, 65, 50
27, 392380, Note_on_c, 11, 65, 0
27, 392400, Note_on_c, 11, 65, 57
27, 392874, Note_on_c, 11, 65, 0
27, 392893, Note_on_c, 11, 65, 53
27, 393348, Note_on_c, 11, 65, 0
27, 393368, Note_on_c, 11, 65, 51
27, 393831, Note_on_c, 11, 65, 0
27, 393850, Note_on_c, 11, 65, 39
27, 394323, Note_on_c, 11, 65, 0
27, 394342, Note_on_c, 11, 65, 43
27, 394795, Note_on_c, 11, 65, 0
27, 394815, Note_on_c, 11, 65, 43
27, 395268, Note_on_c, 11, 65, 0
27, 395287, Note_on_c, 11, 65, 51
27, 395765, Note_on_c, 11, 65, 0
27, 395784, Note_on_c, 11, 65, 56
27, 396229, Note_on_c, 11, 65, 0
27, 396249, Note_on_c, 11, 65, 44
27, 396720, Note_on_c, 11, 65, 0
27, 396739, Note_on_c, 11, 65, 54
27, 397204, Note_on_c, 11, 65, 0
27, 397224, Note_on_c, 11, 65, 54
27, 397689, Note_on_c, 11, 65, 0
27, 397708, Note_on_c, 11, 65, 49
27, 398155, Note_on_c, 11, 65, 0
27, 398174, Note_on_c, 11, 65, 41
27, 398645, Note_on_c, 11, 65, 0
27, 398664, Note_on_c, 11, 65, 48
27, 399128, Note_on_c, 11, 65, 0
27, 399148, Note_on_c, 11, 65, 42
27, 399596, Note_on_c, 11, 65, 0
27, 399615, Note_on_c, 11, 65, 44
27, 400074, Note_on_c, 11, 65, 0
27, 400093, Note_on_c, 11, 65, 51
27, 400568, Note_on_c, 11, 65, 0
27, 400588, Note_on_c, 11, 65, 45
27, 401032, Note_on_c, 11, 65, 0
27, 401051, Note_on_c, 11, 65, 42
27, 401517, Note_on_c, 11, 65, 0
27, 401536, Note_on_c, 11, 65, 45
27, 401997, Note_on_c, 11, 65, 0
27, 402016, Note_on_c, 11, 65, 51
27, 402484, Note_on_c, 11, 65, 0
27, 402503, Note_on_c, 11, 65, 51
27, 402965, Note_on_c, 11, 65, 0
27, 402985, Note_on_c, 11, 65, 56
27, 403447, Note_on_c, 11, 65, 0
27, 403466, Note_on_c, 11, 65, 48
27, 403904, Note_on_c, 11, 65, 0
27, 403923, Note_on_c, 11, 65, 45
27, 404403, Note_on_c, 11, 65, 0
27, 404423, Note_on_c, 11, 65, 46
27, 404882, Note_on_c, 11, 65, 0
27, 404901, Note_on_c, 11, 65, 54
27, 405350, Note_on_c, 11, 65, 0
27, 405369, Note_on_c, 11, 65, 41
27, 405848, Note_on_c, 11, 65, 0
27, 405868, Note_on_c, 11, 65, 51
27, 406329, Note_on_c, 11, 65, 0
27, 406348, Note_on_c, 11, 65, 40
27, 406802, Note_on_c, 11, 65, 0
27, 406821, Note_on_c, 11, 65, 50
27, 407285, Note_on_c, 11, 65, 0
27, 407304, Note_on_c, 11, 65, 43
27, 407744, Note_on_c, 11, 65, 0
27, 407764, Note_on_c, 11, 65, 57
27, 408222, Note_on_c, 11, 65, 0
27, 408241, Note_on_c, 11, 65, 52
27, 408716, Note_on_c, 11, 65, 0
27, 408736, Note_on_c, 11, 65, 57
27, 409187, Note_on_c, 11, 65, 0
27, 409206, Note_on_c, 11, 65, 46
27, 409667, Note_on_c, 11, 65, 0
27, 409686, Note_on_c, 11, 65, 43
27, 410166, Note_on_c, 11, 65, 0
27, 410186, Note_on_c, 11, 65, 57
27, 410623, Note_on_c, 11, 65, 0
27, 410643, Note_on_c, 11, 65, 51
27, 411123, Note_on_c, 11, 65, 0
27, 411144, Note_on_c, 11, 65, 31
27, 411600, Note_on_c, 11, 65, 0
27, 411619, Note_on_c, 11, 65, 8
27, 412081, Note_on_c, 11, 65, 0
27, 412100, Note_on_c, 11, 65, 7
27, 412580, Note_on_c, 11, 65, 0
27, 429120, Program_c, 11, 45
27, 429122, Note_on_c, 11, 59, 81
27, 429362, Note_on_c, 11, 59, 0
27, 429619, Note_on_c, 11, 59, 68
27, 429859, Note_on_c, 11, 59, 0
27, 430084, Note_on_c, 11, 59, 82
27, 430324, Note_on_c, 11, 59, 0
27, 430567, Note_on_c, 11, 59, 82
27, 430807, Note_on_c, 11, 59, 0
27, 431057, Note_on_c, 11, 59, 73
27, 431297, Note_on_c, 11, 59, 0
27, 431529, Note_on_c, 11, 59, 71
27, 431769, Note_on_c, 11, 59, 0
27, 432024, Note_on_c, 11, 58, 70
27, 432264, Note_on_c, 11, 58, 0
27, 432496, Note_on_c, 11, 58, 76
27, 432718, Program_c, 11, 44
27, 432729, Note_on_c, 11, 83, 75
27, 432736, Note_on_c, 11, 58, 0
27, 432739, Note_on_c, 11, 81, 67
27, 433439, Note_on_c, 11, 81, 0
27, 433449, Note_on_c, 11, 83, 0
27, 433458, Note_on_c, 11, 81, 78
27, 433465, Note_on_c, 11, 84, 72
27, 433669, Note_on_c, 11, 84, 0
27, 433689, Note_on_c, 11, 84, 79
27, 433697, Note_on_c, 11, 80, 68
27, 433698, Note_on_c, 11, 81, 0
27, 433920, Note_on_c, 11, 83, 71
27, 433927, Note_on_c, 11, 80, 0
27, 433929, Note_on_c, 11, 84, 0
27, 433946, Note_on_c, 11, 80, 73
27, 434160, Note_on_c, 11, 83, 0
27, 434168, Note_on_c, 11, 81, 80
27, 434186, Note_on_c, 11, 80, 0
27, 434189, Note_on_c, 11, 83, 74
27, 434402, Note_on_c, 11, 85, 74
27, 434404, Note_on_c, 11, 81, 0
27, 434423, Note_on_c, 11, 81, 80
27, 434429, Note_on_c, 11, 83, 0
27, 434642, Note_on_c, 11, 85, 0
27, 434660, Note_on_c, 11, 77, 76
27, 434663, Note_on_c, 11, 81, 0
27, 434668, Note_on_c, 11, 85, 77
27, 435127, Note_on_c, 11, 83, 78
27, 435140, Note_on_c, 11, 77, 0
27, 435148, Note_on_c, 11, 85, 0
27, 435601, Note_on_c, 11, 83, 0
27, 435617, Note_on_c, 11, 81, 74
27, 435620, Note_on_c, 11, 83, 80
27, 436073, Note_on_c, 11, 83, 0
27, 436092, Note_on_c, 11, 83, 76
27, 436097, Note_on_c, 11, 81, 0
27, 436099, Note_on_c, 11, 80, 67
27, 436303, Note_on_c, 11, 80, 0
27, 436323, Note_on_c, 11, 80, 67
27, 436332, Note_on_c, 11, 83, 0
27, 436340, Note_on_c, 11, 84, 74
27, 436563, Note_on_c, 11, 80, 0
27, 436565, Note_on_c, 11, 84, 0
27, 436572, Note_on_c, 11, 78, 81
27, 436584, Note_on_c, 11, 84, 67
27, 436784, Note_on_c, 11, 78, 0
27, 436803, Note_on_c, 11, 78, 75
27, 436824, Note_on_c, 11, 84, 0
27, 436824, Note_on_c, 11, 83, 76
27, 437034, Note_on_c, 11, 83, 0
27, 437043, Note_on_c, 11, 78, 0
27, 437053, Note_on_c, 11, 83, 78
27, 437062, Note_on_c, 11, 81, 74
27, 437272, Note_on_c, 11, 81, 0
27, 437285, Note_on_c, 11, 85, 80
27, 437291, Note_on_c, 11, 81, 81
27, 437293, Note_on_c, 11, 83, 0
27, 437501, Note_on_c, 11, 85, 0
27, 437520, Note_on_c, 11, 85, 70
27, 437525, Note_on_c, 11, 77, 76
27, 437531, Note_on_c, 11, 81, 0
27, 438000, Note_on_c, 11, 85, 0
27, 438000, Note_on_c, 11, 86, 87
27, 438005, Note_on_c, 11, 77, 0
27, 438039, Note_on_c, 11, 86, 0
27, 438039, Note_on_c, 11, 86, 102
27, 438079, Note_on_c, 11, 86, 0
27, 438080, Note_on_c, 11, 86, 102
27, 438120, Note_on_c, 11, 86, 0
27, 438120, Note_on_c, 11, 86, 102
27, 438159, Note_on_c, 11, 86, 0
27, 438159, Note_on_c, 11, 86, 108
27, 438199, Note_on_c, 11, 86, 0
27, 438200, Note_on_c, 11, 86, 122
27, 438240, Note_on_c, 11, 86, 0
27, 438240, Note_on_c, 11, 88, 125
27, 438279, Note_on_c, 11, 88, 0
27, 438279, Note_on_c, 11, 86, 115
27, 438319, Note_on_c, 11, 86, 0
27, 438320, Note_on_c, 11, 86, 102
27, 438360, Note_on_c, 11, 86, 0
27, 438360, Note_on_c, 11, 86, 100
27, 438399, Note_on_c, 11, 86, 0
27, 438399, Note_on_c, 11, 86, 103
27, 438439, Note_on_c, 11, 86, 0
27, 438440, Note_on_c, 11, 86, 85
27, 438480, Note_on_c, 11, 86, 0
27, 438480, Note_on_c, 11, 86, 91
27, 438519, Note_on_c, 11, 86, 0
27, 438519, Note_on_c, 11, 86, 87
27, 438559, Note_on_c, 11, 86, 0
27, 438560, Note_on_c, 11, 86, 96
27, 438600, Note_on_c, 11, 86, 0
27, 438600, Note_on_c, 11, 86, 116
27, 438639, Note_on_c, 11, 86, 0
27, 438639, Note_on_c, 11, 86, 122
27, 438679, Note_on_c, 11, 86, 0
27, 438680, Note_on_c, 11, 86, 123
27, 438720, Note_on_c, 11, 86, 0
27, 438720, Note_on_c, 11, 88, 127
27, 438759, Note_on_c, 11, 88, 0
27, 438759, Note_on_c, 11, 86, 112
27, 438799, Note_on_c, 11, 86, 0
27, 438800, Note_on_c, 11, 86, 109
27, 438840, Note_on_c, 11, 86, 0
27, 438840, Note_on_c, 11, 86, 95
27, 438879, Note_on_c, 11, 86, 0
27, 438879, Note_on_c, 11, 86, 94
27, 438919, Note_on_c, 11, 86, 0
27, 438920, Note_on_c, 11, 86, 80
27, 438960, Note_on_c, 11, 86, 0
27, 438960, Note_on_c, 11, 88, 94
27, 438999, Note_on_c, 11, 88, 0
27, 438999, Note_on_c, 11, 88, 99
27, 439039, Note_on_c, 11, 88, 0
27, 439040, Note_on_c, 11, 88, 111
27, 439080, Note_on_c, 11, 88, 0
27, 439080, Note_on_c, 11, 88, 103
27, 439119, Note_on_c, 11, 88, 0
27, 439119, Note_on_c, 11, 88, 115
27, 439159, Note_on_c, 11, 88, 0
27, 439160, Note_on_c, 11, 88, 124
27, 439200, Note_on_c, 11, 88, 0
27, 439200, Note_on_c, 11, 89, 118
27, 439239, Note_on_c, 11, 89, 0
27, 439239, Note_on_c, 11, 88, 123
27, 439279, Note_on_c, 11, 88, 0
27, 439280, Note_on_c, 11, 88, 110
27, 439320, Note_on_c, 11, 88, 0
27, 439320, Note_on_c, 11, 88, 106
27, 439359, Note_on_c, 11, 88, 0
27, 439359, Note_on_c, 11, 88, 104
27, 439399, Note_on_c, 11, 88, 0
27, 439400, Note_on_c, 11, 88, 87
27, 439440, Note_on_c, 11, 88, 0
27, 439440, Note_on_c, 11, 88, 79
27, 439479, Note_on_c, 11, 88, 0
27, 439479, Note_on_c, 11, 88, 94
27, 439519, Note_on_c, 11, 88, 0
27, 439520, Note_on_c, 11, 88, 105
27, 439560, Note_on_c, 11, 88, 0
27, 439560, Note_on_c, 11, 88, 104
27, 439599, Note_on_c, 11, 88, 0
27, 439599, Note_on_c, 11, 88, 124
27, 439639, Note_on_c, 11, 88, 0
27, 439640, Note_on_c, 11, 88, 119
27, 439680, Note_on_c, 11, 88, 0
27, 439680, Note_on_c, 11, 89, 120
27, 439719, Note_on_c, 11, 89, 0
27, 439719, Note_on_c, 11, 88, 104
27, 439759, Note_on_c, 11, 88, 0
27, 439760, Note_on_c, 11, 88, 105
27, 439800, Note_on_c, 11, 88, 0
27, 439800, Note_on_c, 11, 88, 107
27, 439839, Note_on_c, 11, 88, 0
27, 439839, Note_on_c, 11, 88, 91
27, 439879, Note_on_c, 11, 88, 0
27, 439880, Note_on_c, 11, 88, 85
27, 439920, Note_on_c, 11, 88, 0
27, 439920, Note_on_c, 11, 89, 89
27, 439959, Note_on_c, 11, 89, 0
27, 439959, Note_on_c, 11, 89, 90
27, 439999, Note_on_c, 11, 89, 0
27, 440000, Note_on_c, 11, 89, 108
27, 440040, Note_on_c, 11, 89, 0
27, 440040, Note_on_c, 11, 89, 115
27, 440079, Note_on_c, 11, 89, 0
27, 440079, Note_on_c, 11, 89, 122
27, 440119, Note_on_c, 11, 89, 0
27, 440120, Note_on_c, 11, 89, 112
27, 440160, Note_on_c, 11, 89, 0
27, 440160, Note_on_c, 11, 91, 126
27, 440199, Note_on_c, 11, 91, 0
27, 440199, Note_on_c, 11, 89, 120
27, 440239, Note_on_c, 11, 89, 0
27, 440240, Note_on_c, 11, 89, 98
27, 440280, Note_on_c, 11, 89, 0
27, 440280, Note_on_c, 11, 89, 101
27, 440319, Note_on_c, 11, 89, 0
27, 440319, Note_on_c, 11, 89, 88
27, 440359, Note_on_c, 11, 89, 0
27, 440360, Note_on_c, 11, 89, 80
27, 440400, Note_on_c, 11, 89, 0
27, 440400, Note_on_c, 11, 89, 95
27, 440439, Note_on_c, 11, 89, 0
27, 440439, Note_on_c, 11, 89, 93
27, 440479, Note_on_c, 11, 89, 0
27, 440480, Note_on_c, 11, 89, 101
27, 440520, Note_on_c, 11, 89, 0
27, 440520, Note_on_c, 11, 89, 101
27, 440559, Note_on_c, 11, 89, 0
27, 440559, Note_on_c, 11, 89, 115
27, 440599, Note_on_c, 11, 89, 0
27, 440600, Note_on_c, 11, 89, 120
27, 440640, Note_on_c, 11, 89, 0
27, 440640, Note_on_c, 11, 91, 112
27, 440679, Note_on_c, 11, 91, 0
27, 440679, Note_on_c, 11, 89, 118
27, 440719, Note_on_c, 11, 89, 0
27, 440720, Note_on_c, 11, 89, 112
27, 440760, Note_on_c, 11, 89, 0
27, 440760, Note_on_c, 11, 89, 95
27, 440799, Note_on_c, 11, 89, 0
27, 440799, Note_on_c, 11, 89, 91
27, 440839, Note_on_c, 11, 89, 0
27, 440840, Note_on_c, 11, 89, 93
27, 440880, Note_on_c, 11, 89, 0
27, 440880, Note_on_c, 11, 86, 98
27, 440919, Note_on_c, 11, 86, 0
27, 440919, Note_on_c, 11, 86, 90
27, 440959, Note_on_c, 11, 86, 0
27, 440960, Note_on_c, 11, 86, 102
27, 441000, Note_on_c, 11, 86, 0
27, 441000, Note_on_c, 11, 86, 112
27, 441039, Note_on_c, 11, 86, 0
27, 441039, Note_on_c, 11, 86, 108
27, 441079, Note_on_c, 11, 86, 0
27, 441080, Note_on_c, 11, 86, 126
27, 441120, Note_on_c, 11, 86, 0
27, 441120, Note_on_c, 11, 88, 120
27, 441159, Note_on_c, 11, 88, 0
27, 441159, Note_on_c, 11, 86, 115
27, 441199, Note_on_c, 11, 86, 0
27, 441200, Note_on_c, 11, 86, 102
27, 441240, Note_on_c, 11, 86, 0
27, 441240, Note_on_c, 11, 86, 110
27, 441279, Note_on_c, 11, 86, 0
27, 441279, Note_on_c, 11, 86, 102
27, 441319, Note_on_c, 11, 86, 0
27, 441320, Note_on_c, 11, 86, 95
27, 441360, Note_on_c, 11, 86, 0
27, 441360, Note_on_c, 11, 86, 93
27, 441399, Note_on_c, 11, 86, 0
27, 441399, Note_on_c, 11, 86, 90
27, 441439, Note_on_c, 11, 86, 0
27, 441440, Note_on_c, 11, 86, 95
27, 441480, Note_on_c, 11, 86, 0
27, 441480, Note_on_c, 11, 86, 108
27, 441519, Note_on_c, 11, 86, 0
27, 441519, Note_on_c, 11, 86, 114
27, 441559, Note_on_c, 11, 86, 0
27, 441560, Note_on_c, 11, 86, 122
27, 441600, Note_on_c, 11, 86, 0
27, 441600, Note_on_c, 11, 88, 127
27, 441639, Note_on_c, 11, 88, 0
27, 441639, Note_on_c, 11, 86, 114
27, 441679, Note_on_c, 11, 86, 0
27, 441680, Note_on_c, 11, 86, 99
27, 441720, Note_on_c, 11, 86, 0
27, 441720, Note_on_c, 11, 86, 109
27, 441759, Note_on_c, 11, 86, 0
27, 441759, Note_on_c, 11, 86, 97
27, 441799, Note_on_c, 11, 86, 0
27, 441800, Note_on_c, 11, 86, 78
27, 441840, Note_on_c, 11, 86, 0
27, 441840, Note_on_c, 11, 88, 88
27, 441879, Note_on_c, 11, 88, 0
27, 441879, Note_on_c, 11, 88, 85
27, 441919, Note_on_c, 11, 88, 0
27, 441920, Note_on_c, 11, 88, 110
27, 441960, Note_on_c, 11, 88, 0
27, 441960, Note_on_c, 11, 88, 99
27, 441999, Note_on_c, 11, 88, 0
27, 441999, Note_on_c, 11, 88, 108
27, 442039, Note_on_c, 11, 88, 0
27, 442040, Note_on_c, 11, 88, 127
27, 442080, Note_on_c, 11, 88, 0
27, 442080, Note_on_c, 11, 89, 127
27, 442119, Note_on_c, 11, 89, 0
27, 442119, Note_on_c, 11, 88, 115
27, 442159, Note_on_c, 11, 88, 0
27, 442160, Note_on_c, 11, 88, 102
27, 442200, Note_on_c, 11, 88, 0
27, 442200, Note_on_c, 11, 88, 102
27, 442239, Note_on_c, 11, 88, 0
27, 442239, Note_on_c, 11, 88, 104
27, 442279, Note_on_c, 11, 88, 0
27, 442280, Note_on_c, 11, 88, 82
27, 442320, Note_on_c, 11, 88, 0
27, 442320, Note_on_c, 11, 88, 93
27, 442359, Note_on_c, 11, 88, 0
27, 442359, Note_on_c, 11, 88, 95
27, 442399, Note_on_c, 11, 88, 0
27, 442400, Note_on_c, 11, 88, 106
27, 442440, Note_on_c, 11, 88, 0
27, 442440, Note_on_c, 11, 88, 98
27, 442479, Note_on_c, 11, 88, 0
27, 442479, Note_on_c, 11, 88, 117
27, 442519, Note_on_c, 11, 88, 0
27, 442520, Note_on_c, 11, 88, 114
27, 442560, Note_on_c, 11, 88, 0
27, 442560, Note_on_c, 11, 89, 124
27, 442599, Note_on_c, 11, 89, 0
27, 442599, Note_on_c, 11, 88, 110
27, 442639, Note_on_c, 11, 88, 0
27, 442640, Note_on_c, 11, 88, 113
27, 442680, Note_on_c, 11, 88, 0
27, 442680, Note_on_c, 11, 88, 96
27, 442719, Note_on_c, 11, 88, 0
27, 442719, Note_on_c, 11, 88, 104
27, 442759, Note_on_c, 11, 88, 0
27, 442760, Note_on_c, 11, 88, 87
27, 442800, Note_on_c, 11, 88, 0
27, 442800, Note_on_c, 11, 89, 90
27, 442839, Note_on_c, 11, 89, 0
27, 442839, Note_on_c, 11, 89, 98
27, 442879, Note_on_c, 11, 89, 0
27, 442880, Note_on_c, 11, 89, 94
27, 442920, Note_on_c, 11, 89, 0
27, 442920, Note_on_c, 11, 89, 116
27, 442959, Note_on_c, 11, 89, 0
27, 442959, Note_on_c, 11, 89, 109
27, 442999, Note_on_c, 11, 89, 0
27, 443000, Note_on_c, 11, 89, 120
27, 443040, Note_on_c, 11, 89, 0
27, 443040, Note_on_c, 11, 91, 127
27, 443079, Note_on_c, 11, 91, 0
27, 443079, Note_on_c, 11, 89, 111
27, 443119, Note_on_c, 11, 89, 0
27, 443120, Note_on_c, 11, 89, 114
27, 443160, Note_on_c, 11, 89, 0
27, 443160, Note_on_c, 11, 89, 103
27, 443199, Note_on_c, 11, 89, 0
27, 443199, Note_on_c, 11, 89, 100
27, 443239, Note_on_c, 11, 89, 0
27, 443240, Note_on_c, 11, 89, 88
27, 443280, Note_on_c, 11, 89, 0
27, 443280, Note_on_c, 11, 89, 95
27, 443319, Note_on_c, 11, 89, 0
27, 443319, Note_on_c, 11, 89, 93
27, 443359, Note_on_c, 11, 89, 0
27, 443360, Note_on_c, 11, 89, 99
27, 443400, Note_on_c, 11, 89, 0
27, 443400, Note_on_c, 11, 89, 109
27, 443439, Note_on_c, 11, 89, 0
27, 443439, Note_on_c, 11, 89, 120
27, 443479, Note_on_c, 11, 89, 0
27, 443480, Note_on_c, 11, 89, 116
27, 443520, Note_on_c, 11, 89, 0
27, 443520, Note_on_c, 11, 91, 126
27, 443559, Note_on_c, 11, 91, 0
27, 443559, Note_on_c, 11, 89, 108
27, 443599, Note_on_c, 11, 89, 0
27, 443600, Note_on_c, 11, 89, 112
27, 443640, Note_on_c, 11, 89, 0
27, 443640, Note_on_c, 11, 89, 104
27, 443679, Note_on_c, 11, 89, 0
27, 443679, Note_on_c, 11, 91, 90
27, 443719, Note_on_c, 11, 91, 0
27, 443720, Note_on_c, 11, 93, 87
27, 443760, Note_on_c, 11, 93, 0
27, 443774, Note_on_c, 11, 94, 85
27, 443894, Note_on_c, 11, 94, 0
27, 446154, Program_c, 11, 45
27, 446642, Note_on_c, 11, 68, 115
27, 446646, Note_on_c, 11, 76, 117
27, 446882, Note_on_c, 11, 68, 0
27, 446886, Note_on_c, 11, 76, 0
27, 447365, Note_on_c, 11, 58, 117
27, 447388, Note_on_c, 11, 66, 104
27, 447605, Note_on_c, 11, 58, 0
27, 447628, Note_on_c, 11, 66, 0
27, 449008, Program_c, 11, 48
27, 449044, Note_on_c, 11, 64, 102
27, 449056, Note_on_c, 11, 68, 101
27, 449284, Note_on_c, 11, 64, 0
27, 449296, Note_on_c, 11, 68, 0
27, 449304, Note_on_c, 11, 76, 113
27, 449306, Note_on_c, 11, 80, 118
27, 449484, Note_on_c, 11, 76, 0
27, 449486, Note_on_c, 11, 80, 0
27, 449527, Note_on_c, 11, 71, 106
27, 449527, Note_on_c, 11, 79, 116
27, 449626, Note_on_c, 11, 71, 0
27, 449626, Note_on_c, 11, 79, 0
27, 449699, Note_on_c, 11, 76, 108
27, 449700, Note_on_c, 11, 65, 102
27, 449799, Note_on_c, 11, 76, 0
27, 449800, Note_on_c, 11, 65, 0
27, 449854, Note_on_c, 11, 66, 111
27, 449866, Note_on_c, 11, 74, 114
27, 449954, Note_on_c, 11, 66, 0
27, 449966, Note_on_c, 11, 74, 0
27, 452905, Note_on_c, 11, 64, 113
27, 452908, Note_on_c, 11, 68, 111
27, 453135, Note_on_c, 11, 80, 109
27, 453145, Note_on_c, 11, 64, 0
27, 453147, Note_on_c, 11, 76, 109
27, 453148, Note_on_c, 11, 68, 0
27, 453315, Note_on_c, 11, 80, 0
27, 453327, Note_on_c, 11, 76, 0
27, 453362, Note_on_c, 11, 71, 102
27, 453365, Note_on_c, 11, 79, 120
27, 453461, Note_on_c, 11, 71, 0
27, 453464, Note_on_c, 11, 79, 0
27, 453536, Note_on_c, 11, 65, 102
27, 453547, Note_on_c, 11, 76, 111
27, 453636, Note_on_c, 11, 65, 0
27, 453647, Note_on_c, 11, 76, 0
27, 453697, Note_on_c, 11, 66, 103
27, 453705, Note_on_c, 11, 74, 102
27, 453797, Note_on_c, 11, 66, 0
27, 453805, Note_on_c, 11, 74, 0
27, 454815, Note_on_c, 11, 64, 120
27, 454826, Note_on_c, 11, 68, 115
27, 455055, Note_on_c, 11, 64, 0
27, 455056, Note_on_c, 11, 80, 106
27, 455058, Note_on_c, 11, 76, 103
27, 455066, Note_on_c, 11, 68, 0
27, 455236, Note_on_c, 11, 80, 0
27, 455238, Note_on_c, 11, 76, 0
27, 455293, Note_on_c, 11, 79, 102
27, 455302, Note_on_c, 11, 71, 114
27, 455392, Note_on_c, 11, 79, 0
27, 455401, Note_on_c, 11, 71, 0
27, 455443, Note_on_c, 11, 65, 108
27, 455465, Note_on_c, 11, 76, 119
27, 455543, Note_on_c, 11, 65, 0
27, 455565, Note_on_c, 11, 76, 0
27, 455602, Note_on_c, 11, 66, 112
27, 455610, Note_on_c, 11, 74, 106
27, 455702, Note_on_c, 11, 66, 0
27, 455710, Note_on_c, 11, 74, 0
27, 457457, Note_on_c, 11, 74, 109
27, 457481, Note_on_c, 11, 75, 116
27, 457487, Note_on_c, 11, 74, 0
27, 457508, Note_on_c, 11, 76, 109
27, 457511, Note_on_c, 11, 75, 0
27, 457538, Note_on_c, 11, 76, 0
27, 457548, Note_on_c, 11, 78, 120
27, 457578, Note_on_c, 11, 78, 0
27, 457578, Note_on_c, 11, 79, 109
27, 457607, Note_on_c, 11, 80, 101
27, 457608, Note_on_c, 11, 79, 0
27, 457637, Note_on_c, 11, 80, 0
27, 457642, Note_on_c, 11, 81, 115
27, 457663, Note_on_c, 11, 83, 117
27, 457672, Note_on_c, 11, 81, 0
27, 457680, Program_c, 11, 44
27, 457693, Note_on_c, 11, 83, 0
27, 457698, Note_on_c, 11, 72, 116
27, 457708, Note_on_c, 11, 85, 114
27, 458088, Note_on_c, 11, 72, 0
27, 458094, Note_on_c, 11, 88, 119
27, 458098, Note_on_c, 11, 85, 0
27, 458108, Note_on_c, 11, 74, 119
27, 458112, Note_on_c, 11, 87, 110
27, 458124, Note_on_c, 11, 88, 0
27, 458138, Note_on_c, 11, 74, 0
27, 458142, Note_on_c, 11, 87, 0
27, 458144, Note_on_c, 11, 73, 115
27, 458152, Note_on_c, 11, 86, 108
27, 458161, Note_on_c, 11, 72, 111
27, 458165, Note_on_c, 11, 85, 110
27, 458174, Note_on_c, 11, 73, 0
27, 458182, Note_on_c, 11, 86, 0
27, 458551, Note_on_c, 11, 72, 0
27, 458554, Note_on_c, 11, 88, 115
27, 458555, Note_on_c, 11, 85, 0
27, 458581, Note_on_c, 11, 74, 106
27, 458584, Note_on_c, 11, 88, 0
27, 458603, Note_on_c, 11, 87, 104
27, 458611, Note_on_c, 11, 74, 0
27, 458628, Note_on_c, 11, 73, 104
27, 458633, Note_on_c, 11, 87, 0
27, 458636, Note_on_c, 11, 86, 105
27, 458643, Note_on_c, 11, 85, 114
27, 458655, Note_on_c, 11, 72, 115
27, 458658, Note_on_c, 11, 73, 0
27, 458666, Note_on_c, 11, 86, 0
27, 459033, Note_on_c, 11, 85, 0
27, 459045, Note_on_c, 11, 72, 0
27, 459048, Note_on_c, 11, 88, 118
27, 459078, Note_on_c, 11, 88, 0
27, 459078, Note_on_c, 11, 74, 117
27, 459087, Note_on_c, 11, 87, 101
27, 459100, Note_on_c, 11, 73, 116
27, 459108, Note_on_c, 11, 74, 0
27, 459117, Note_on_c, 11, 87, 0
27, 459118, Note_on_c, 11, 86, 107
27, 459124, Note_on_c, 11, 85, 118
27, 459125, Note_on_c, 11, 72, 119
27, 459130, Note_on_c, 11, 73, 0
27, 459148, Note_on_c, 11, 86, 0
27, 459514, Note_on_c, 11, 85, 0
27, 459515, Note_on_c, 11, 72, 0
27, 459534, Note_on_c, 11, 88, 102
27, 459543, Note_on_c, 11, 74, 108
27, 459555, Note_on_c, 11, 87, 105
27, 459564, Note_on_c, 11, 88, 0
27, 459571, Note_on_c, 11, 73, 118
27, 459573, Note_on_c, 11, 74, 0
27, 459579, Note_on_c, 11, 86, 115
27, 459585, Note_on_c, 11, 87, 0
27, 459601, Note_on_c, 11, 73, 0
27, 459601, Note_on_c, 11, 72, 114
27, 459609, Note_on_c, 11, 86, 0
27, 459626, Note_on_c, 11, 85, 116
27, 459991, Note_on_c, 11, 72, 0
27, 460016, Note_on_c, 11, 85, 0
27, 460088, Note_on_c, 11, 73, 118
27, 460093, Note_on_c, 11, 86, 109
27, 460568, Note_on_c, 11, 73, 0
27, 460573, Note_on_c, 11, 86, 0
27, 460582, Note_on_c, 11, 74, 116
27, 460588, Note_on_c, 11, 88, 105
27, 461049, Note_on_c, 11, 89, 104
27, 461062, Note_on_c, 11, 74, 0
27, 461062, Note_on_c, 11, 76, 107
27, 461068, Note_on_c, 11, 88, 0
27, 461409, Note_on_c, 11, 89, 0
27, 461422, Note_on_c, 11, 76, 0
27, 461436, Note_on_c, 11, 89, 113
27, 461452, Note_on_c, 11, 76, 118
27, 461466, Note_on_c, 11, 89, 0
27, 461466, Note_on_c, 11, 74, 108
27, 461482, Note_on_c, 11, 76, 0
27, 461484, Note_on_c, 11, 88, 109
27, 461496, Note_on_c, 11, 74, 0
27, 461498, Note_on_c, 11, 73, 113
27, 461509, Note_on_c, 11, 86, 100
27, 461514, Note_on_c, 11, 88, 0
27, 461522, Note_on_c, 11, 85, 117
27, 461522, Note_on_c, 11, 72, 116
27, 461528, Note_on_c, 11, 73, 0
27, 461539, Note_on_c, 11, 86, 0
27, 461912, Note_on_c, 11, 85, 0
27, 461912, Note_on_c, 11, 72, 0
27, 462012, Note_on_c, 11, 86, 114
27, 462027, Note_on_c, 11, 73, 102
27, 462492, Note_on_c, 11, 86, 0
27, 462492, Note_on_c, 11, 74, 120
27, 462494, Note_on_c, 11, 88, 114
27, 462507, Note_on_c, 11, 73, 0
27, 462972, Note_on_c, 11, 74, 0
27, 462973, Note_on_c, 11, 89, 119
27, 462974, Note_on_c, 11, 88, 0
27, 462986, Note_on_c, 11, 76, 111
27, 463333, Note_on_c, 11, 89, 0
27, 463346, Note_on_c, 11, 76, 0
27, 463361, Note_on_c, 11, 76, 112
27, 463366, Note_on_c, 11, 89, 109
27, 463383, Note_on_c, 11, 88, 111
27, 463389, Note_on_c, 11, 74, 100
27, 463391, Note_on_c, 11, 76, 0
27, 463396, Note_on_c, 11, 89, 0
27, 463413, Note_on_c, 11, 88, 0
27, 463416, Note_on_c, 11, 86, 119
27, 463419, Note_on_c, 11, 74, 0
27, 463437, Note_on_c, 11, 73, 109
27, 463445, Note_on_c, 11, 72, 107
27, 463446, Note_on_c, 11, 86, 0
27, 463458, Note_on_c, 11, 85, 110
27, 463467, Note_on_c, 11, 73, 0
27, 463835, Note_on_c, 11, 72, 0
27, 463848, Note_on_c, 11, 85, 0
27, 463935, Note_on_c, 11, 73, 104
27, 463940, Note_on_c, 11, 86, 118
27, 464415, Note_on_c, 11, 73, 0
27, 464420, Note_on_c, 11, 86, 0
27, 464422, Note_on_c, 11, 74, 111
27, 464423, Note_on_c, 11, 88, 110
27, 464898, Note_on_c, 11, 89, 113
27, 464902, Note_on_c, 11, 74, 0
27, 464903, Note_on_c, 11, 88, 0
27, 464907, Note_on_c, 11, 76, 110
27, 465258, Note_on_c, 11, 89, 0
27, 465267, Note_on_c, 11, 76, 0
27, 465277, Note_on_c, 11, 89, 112
27, 465287, Note_on_c, 11, 76, 115
27, 465306, Note_on_c, 11, 88, 105
27, 465307, Note_on_c, 11, 89, 0
27, 465317, Note_on_c, 11, 76, 0
27, 465326, Note_on_c, 11, 74, 111
27, 465336, Note_on_c, 11, 88, 0
27, 465341, Note_on_c, 11, 86, 108
27, 465343, Note_on_c, 11, 73, 117
27, 465356, Note_on_c, 11, 74, 0
27, 465369, Note_on_c, 11, 72, 101
27, 465371, Note_on_c, 11, 86, 0
27, 465372, Note_on_c, 11, 85, 108
27, 465373, Note_on_c, 11, 73, 0
27, 465759, Note_on_c, 11, 72, 0
27, 465762, Note_on_c, 11, 85, 0
27, 465853, Note_on_c, 11, 86, 110
27, 465863, Note_on_c, 11, 73, 116
27, 466321, Note_on_c, 11, 74, 102
27, 466332, Note_on_c, 11, 88, 120
27, 466333, Note_on_c, 11, 86, 0
27, 466343, Note_on_c, 11, 73, 0
27, 466801, Note_on_c, 11, 74, 0
27, 466801, Note_on_c, 11, 89, 107
27, 466802, Note_on_c, 11, 76, 113
27, 466812, Note_on_c, 11, 88, 0
27, 467161, Note_on_c, 11, 89, 0
27, 467162, Note_on_c, 11, 76, 0
27, 468720, Program_c, 11, 45
27, 468744, Note_on_c, 11, 65, 51
27, 469198, Note_on_c, 11, 65, 0
27, 469217, Note_on_c, 11, 65, 44
27, 469677, Note_on_c, 11, 65, 0
27, 469697, Note_on_c, 11, 65, 42
27, 470158, Note_on_c, 11, 65, 0
27, 470177, Note_on_c, 11, 65, 40
27, 470623, Note_on_c, 11, 65, 0
27, 470642, Note_on_c, 11, 65, 45
27, 471111, Note_on_c, 11, 65, 0
27, 471130, Note_on_c, 11, 65, 58
27, 471606, Note_on_c, 11, 65, 0
27, 471625, Note_on_c, 11, 65, 43
27, 472082, Note_on_c, 11, 65, 0
27, 472101, Note_on_c, 11, 65, 52
27, 472556, Note_on_c, 11, 65, 0
27, 472576, Note_on_c, 11, 65, 56
27, 473038, Note_on_c, 11, 65, 0
27, 473057, Note_on_c, 11, 65, 42
27, 473515, Note_on_c, 11, 65, 0
27, 473535, Note_on_c, 11, 65, 47
27, 473989, Note_on_c, 11, 65, 0
27, 474008, Note_on_c, 11, 65, 50
27, 474473, Note_on_c, 11, 65, 0
27, 474492, Note_on_c, 11, 65, 40
27, 474968, Note_on_c, 11, 65, 0
27, 474987, Note_on_c, 11, 65, 41
27, 475445, Note_on_c, 11, 65, 0
27, 475465, Note_on_c, 11, 65, 57
27, 475905, Note_on_c, 11, 65, 0
27, 475924, Note_on_c, 11, 65, 48
27, 476400, Note_on_c, 11, 65, 0
27, 476419, Note_on_c, 11, 65, 50
27, 476867, Note_on_c, 11, 65, 0
27, 476887, Note_on_c, 11, 65, 56
27, 477358, Note_on_c, 11, 65, 0
27, 477377, Note_on_c, 11, 65, 48
27, 477857, Note_on_c, 11, 65, 0
27, 489840, Control_c, 11, 7, 92
27, 489840, Control_c, 11, 11, 127
27, 490798, Program_c, 11, 48
27, 490929, Note_on_c, 11, 62, 78
27, 490934, Note_on_c, 11, 66, 93
27, 490943, Note_on_c, 11, 74, 93
27, 490982, Note_on_c, 11, 62, 0
27, 490987, Note_on_c, 11, 66, 0
27, 490996, Note_on_c, 11, 74, 0
27, 491282, Note_on_c, 11, 74, 79
27, 491287, Note_on_c, 11, 62, 89
27, 491303, Note_on_c, 11, 66, 79
27, 491335, Note_on_c, 11, 74, 0
27, 491340, Note_on_c, 11, 62, 0
27, 491356, Note_on_c, 11, 66, 0
27, 491523, Note_on_c, 11, 66, 88
27, 491531, Note_on_c, 11, 62, 94
27, 491547, Note_on_c, 11, 74, 90
27, 491630, Note_on_c, 11, 66, 0
27, 491638, Note_on_c, 11, 62, 0
27, 491654, Note_on_c, 11, 74, 0
27, 491885, Note_on_c, 11, 74, 91
27, 491886, Note_on_c, 11, 66, 85
27, 491886, Note_on_c, 11, 62, 92
27, 491992, Note_on_c, 11, 74, 0
27, 491993, Note_on_c, 11, 66, 0
27, 491993, Note_on_c, 11, 62, 0
27, 492260, Note_on_c, 11, 76, 80
27, 492268, Note_on_c, 11, 72, 95
27, 492313, Note_on_c, 11, 76, 0
27, 492321, Note_on_c, 11, 72, 0
27, 492364, Note_on_c, 11, 73, 81
27, 492384, Note_on_c, 11, 71, 83
27, 492417, Note_on_c, 11, 73, 0
27, 492437, Note_on_c, 11, 71, 0
27, 492488, Note_on_c, 11, 72, 93
27, 492500, Note_on_c, 11, 69, 85
27, 492541, Note_on_c, 11, 72, 0
27, 492553, Note_on_c, 11, 69, 0
27, 492723, Note_on_c, 11, 62, 83
27, 492726, Note_on_c, 11, 74, 81
27, 492739, Note_on_c, 11, 66, 78
27, 492776, Note_on_c, 11, 62, 0
27, 492779, Note_on_c, 11, 74, 0
27, 492792, Note_on_c, 11, 66, 0
27, 492966, Note_on_c, 11, 74, 82
27, 492970, Note_on_c, 11, 62, 86
27, 492978, Note_on_c, 11, 66, 86
27, 493073, Note_on_c, 11, 74, 0
27, 493077, Note_on_c, 11, 62, 0
27, 493085, Note_on_c, 11, 66, 0
27, 493327, Note_on_c, 11, 74, 85
27, 493330, Note_on_c, 11, 66, 89
27, 493341, Note_on_c, 11, 62, 93
27, 493434, Note_on_c, 11, 74, 0
27, 493437, Note_on_c, 11, 66, 0
27, 493448, Note_on_c, 11, 62, 0
27, 493706, Note_on_c, 11, 76, 79
27, 493706, Note_on_c, 11, 72, 82
27, 493759, Note_on_c, 11, 76, 0
27, 493759, Note_on_c, 11, 72, 0
27, 493802, Note_on_c, 11, 73, 94
27, 493804, Note_on_c, 11, 71, 90
27, 493855, Note_on_c, 11, 73, 0
27, 493857, Note_on_c, 11, 71, 0
27, 493922, Note_on_c, 11, 69, 96
27, 493923, Note_on_c, 11, 72, 81
27, 493975, Note_on_c, 11, 69, 0
27, 493976, Note_on_c, 11, 72, 0
27, 494163, Note_on_c, 11, 62, 83
27, 494172, Note_on_c, 11, 66, 88
27, 494173, Note_on_c, 11, 74, 87
27, 494270, Note_on_c, 11, 62, 0
27, 494279, Note_on_c, 11, 66, 0
27, 494280, Note_on_c, 11, 74, 0
27, 494529, Note_on_c, 11, 75, 93
27, 494547, Note_on_c, 11, 77, 108
27, 494672, Note_on_c, 11, 75, 0
27, 494690, Note_on_c, 11, 77, 0
27, 494767, Note_on_c, 11, 77, 101
27, 494788, Note_on_c, 11, 75, 99
27, 494910, Note_on_c, 11, 77, 0
27, 494931, Note_on_c, 11, 75, 0
27, 495004, Note_on_c, 11, 77, 92
27, 495013, Note_on_c, 11, 75, 97
27, 495057, Note_on_c, 11, 77, 0
27, 495066, Note_on_c, 11, 75, 0
27, 495128, Note_on_c, 11, 77, 101
27, 495147, Note_on_c, 11, 75, 111
27, 495181, Note_on_c, 11, 77, 0
27, 495200, Note_on_c, 11, 75, 0
27, 495251, Note_on_c, 11, 77, 105
27, 495254, Note_on_c, 11, 75, 101
27, 495304, Note_on_c, 11, 77, 0
27, 495307, Note_on_c, 11, 75, 0
27, 495490, Note_on_c, 11, 62, 81
27, 495493, Note_on_c, 11, 74, 86
27, 495496, Note_on_c, 11, 66, 93
27, 495543, Note_on_c, 11, 62, 0
27, 495546, Note_on_c, 11, 74, 0
27, 495549, Note_on_c, 11, 66, 0
27, 495723, Note_on_c, 11, 62, 93
27, 495737, Note_on_c, 11, 74, 97
27, 495742, Note_on_c, 11, 66, 88
27, 495776, Note_on_c, 11, 62, 0
27, 495790, Note_on_c, 11, 74, 0
27, 495795, Note_on_c, 11, 66, 0
27, 495975, Note_on_c, 11, 74, 93
27, 495977, Note_on_c, 11, 66, 83
27, 495986, Note_on_c, 11, 62, 81
27, 496082, Note_on_c, 11, 74, 0
27, 496084, Note_on_c, 11, 66, 0
27, 496093, Note_on_c, 11, 62, 0
27, 496340, Note_on_c, 11, 72, 97
27, 496346, Note_on_c, 11, 76, 80
27, 496393, Note_on_c, 11, 72, 0
27, 496399, Note_on_c, 11, 76, 0
27, 496452, Note_on_c, 11, 73, 96
27, 496455, Note_on_c, 11, 71, 83
27, 496505, Note_on_c, 11, 73, 0
27, 496508, Note_on_c, 11, 71, 0
27, 496568, Note_on_c, 11, 69, 93
27, 496582, Note_on_c, 11, 72, 80
27, 496621, Note_on_c, 11, 69, 0
27, 496635, Note_on_c, 11, 72, 0
27, 496684, Note_on_c, 11, 77, 105
27, 496708, Note_on_c, 11, 75, 99
27, 496756, Note_on_c, 11, 77, 0
27, 496780, Note_on_c, 11, 75, 0
27, 496803, Note_on_c, 11, 77, 110
27, 496820, Note_on_c, 11, 75, 108
27, 496875, Note_on_c, 11, 77, 0
27, 496892, Note_on_c, 11, 75, 0
27, 496944, Note_on_c, 11, 75, 98
27, 496947, Note_on_c, 11, 77, 107
27, 497016, Note_on_c, 11, 75, 0
27, 497019, Note_on_c, 11, 77, 0
27, 497174, Note_on_c, 11, 75, 107
27, 497186, Note_on_c, 11, 77, 99
27, 497221, Note_on_c, 11, 75, 0
27, 497233, Note_on_c, 11, 77, 0
27, 497283, Note_on_c, 11, 74, 107
27, 497298, Note_on_c, 11, 66, 102
27, 497305, Note_on_c, 11, 62, 109
27, 497426, Note_on_c, 11, 74, 0
27, 497441, Note_on_c, 11, 66, 0
27, 497448, Note_on_c, 11, 62, 0
27, 497525, Note_on_c, 11, 62, 95
27, 497541, Note_on_c, 11, 74, 108
27, 497546, Note_on_c, 11, 66, 109
27, 497668, Note_on_c, 11, 62, 0
27, 497684, Note_on_c, 11, 74, 0
27, 497689, Note_on_c, 11, 66, 0
27, 497764, Note_on_c, 11, 62, 100
27, 497779, Note_on_c, 11, 66, 98
27, 497785, Note_on_c, 11, 74, 107
27, 497811, Note_on_c, 11, 62, 0
27, 497826, Note_on_c, 11, 66, 0
27, 497832, Note_on_c, 11, 74, 0
27, 498007, Note_on_c, 11, 74, 92
27, 498008, Note_on_c, 11, 66, 91
27, 498015, Note_on_c, 11, 62, 95
27, 498060, Note_on_c, 11, 74, 0
27, 498061, Note_on_c, 11, 66, 0
27, 498068, Note_on_c, 11, 62, 0
27, 498244, Note_on_c, 11, 66, 96
27, 498253, Note_on_c, 11, 62, 95
27, 498264, Note_on_c, 11, 74, 111
27, 498297, Note_on_c, 11, 66, 0
27, 498306, Note_on_c, 11, 62, 0
27, 498317, Note_on_c, 11, 74, 0
27, 498482, Note_on_c, 11, 74, 93
27, 498490, Note_on_c, 11, 62, 107
27, 498493, Note_on_c, 11, 66, 109
27, 498589, Note_on_c, 11, 74, 0
27, 498597, Note_on_c, 11, 62, 0
27, 498600, Note_on_c, 11, 66, 0
27, 498843, Note_on_c, 11, 76, 97
27, 498854, Note_on_c, 11, 72, 95
27, 498896, Note_on_c, 11, 76, 0
27, 498907, Note_on_c, 11, 72, 0
27, 498982, Note_on_c, 11, 71, 92
27, 498983, Note_on_c, 11, 73, 94
27, 499035, Note_on_c, 11, 71, 0
27, 499036, Note_on_c, 11, 73, 0
27, 499098, Note_on_c, 11, 72, 107
27, 499106, Note_on_c, 11, 69, 94
27, 499151, Note_on_c, 11, 72, 0
27, 499159, Note_on_c, 11, 69, 0
27, 499321, Note_on_c, 11, 62, 93
27, 499324, Note_on_c, 11, 74, 107
27, 499349, Note_on_c, 11, 66, 93
27, 499428, Note_on_c, 11, 62, 0
27, 499431, Note_on_c, 11, 74, 0
27, 499456, Note_on_c, 11, 66, 0
27, 499695, Note_on_c, 11, 62, 97
27, 499703, Note_on_c, 11, 66, 98
27, 499706, Note_on_c, 11, 74, 106
27, 499748, Note_on_c, 11, 62, 0
27, 499756, Note_on_c, 11, 66, 0
27, 499759, Note_on_c, 11, 74, 0
27, 499923, Note_on_c, 11, 66, 108
27, 499938, Note_on_c, 11, 74, 98
27, 499943, Note_on_c, 11, 62, 110
27, 500030, Note_on_c, 11, 66, 0
27, 500045, Note_on_c, 11, 74, 0
27, 500050, Note_on_c, 11, 62, 0
27, 500290, Note_on_c, 11, 76, 102
27, 500290, Note_on_c, 11, 72, 104
27, 500343, Note_on_c, 11, 76, 0
27, 500343, Note_on_c, 11, 72, 0
27, 500401, Note_on_c, 11, 71, 100
27, 500403, Note_on_c, 11, 73, 108
27, 500454, Note_on_c, 11, 71, 0
27, 500456, Note_on_c, 11, 73, 0
27, 500540, Note_on_c, 11, 72, 109
27, 500549, Note_on_c, 11, 69, 101
27, 500593, Note_on_c, 11, 72, 0
27, 500602, Note_on_c, 11, 69, 0
27, 500762, Note_on_c, 11, 66, 102
27, 500764, Note_on_c, 11, 62, 95
27, 500785, Note_on_c, 11, 74, 93
27, 500815, Note_on_c, 11, 66, 0
27, 500817, Note_on_c, 11, 62, 0
27, 500838, Note_on_c, 11, 74, 0
27, 501001, Note_on_c, 11, 76, 95
27, 501014, Note_on_c, 11, 72, 108
27, 501054, Note_on_c, 11, 76, 0
27, 501067, Note_on_c, 11, 72, 0
27, 501123, Note_on_c, 11, 71, 99
27, 501130, Note_on_c, 11, 73, 91
27, 501176, Note_on_c, 11, 71, 0
27, 501183, Note_on_c, 11, 73, 0
27, 501243, Note_on_c, 11, 69, 91
27, 501260, Note_on_c, 11, 72, 111
27, 501296, Note_on_c, 11, 69, 0
27, 501313, Note_on_c, 11, 72, 0
27, 501486, Note_on_c, 11, 62, 95
27, 501503, Note_on_c, 11, 74, 107
27, 501508, Note_on_c, 11, 66, 100
27, 501593, Note_on_c, 11, 62, 0
27, 501610, Note_on_c, 11, 74, 0
27, 501615, Note_on_c, 11, 66, 0
27, 501846, Note_on_c, 11, 74, 98
27, 501850, Note_on_c, 11, 66, 101
27, 501854, Note_on_c, 11, 62, 97
27, 501899, Note_on_c, 11, 74, 0
27, 501903, Note_on_c, 11, 66, 0
27, 501907, Note_on_c, 11, 62, 0
27, 502098, Note_on_c, 11, 74, 105
27, 502102, Note_on_c, 11, 62, 105
27, 502104, Note_on_c, 11, 66, 91
27, 502205, Note_on_c, 11, 74, 0
27, 502209, Note_on_c, 11, 62, 0
27, 502211, Note_on_c, 11, 66, 0
27, 502443, Note_on_c, 11, 72, 100
27, 502455, Note_on_c, 11, 76, 109
27, 502496, Note_on_c, 11, 72, 0
27, 502508, Note_on_c, 11, 76, 0
27, 502574, Note_on_c, 11, 71, 103
27, 502583, Note_on_c, 11, 73, 96
27, 502627, Note_on_c, 11, 71, 0
27, 502636, Note_on_c, 11, 73, 0
27, 502686, Note_on_c, 11, 72, 100
27, 502700, Note_on_c, 11, 69, 104
27, 502739, Note_on_c, 11, 72, 0
27, 502753, Note_on_c, 11, 69, 0
27, 503287, Note_on_c, 11, 69, 96
27, 503296, Note_on_c, 11, 63, 110
27, 503302, Note_on_c, 11, 81, 106
27, 503302, Note_on_c, 11, 59, 101
27, 503340, Note_on_c, 11, 69, 0
27, 503349, Note_on_c, 11, 63, 0
27, 503355, Note_on_c, 11, 81, 0
27, 503355, Note_on_c, 11, 59, 0
27, 504120, Note_on_c, 11, 69, 98
27, 504127, Note_on_c, 11, 81, 105
27, 504129, Note_on_c, 11, 63, 97
27, 504134, Note_on_c, 11, 59, 102
27, 504173, Note_on_c, 11, 69, 0
27, 504180, Note_on_c, 11, 81, 0
27, 504182, Note_on_c, 11, 63, 0
27, 504187, Note_on_c, 11, 59, 0
27, 513413, Note_on_c, 11, 71, 81
27, 513430, Note_on_c, 11, 72, 94
27, 513439, Note_on_c, 11, 71, 0
27, 513457, Note_on_c, 11, 72, 0
27, 513463, Note_on_c, 11, 74, 89
27, 513473, Note_on_c, 11, 76, 90
27, 513489, Note_on_c, 11, 74, 0
27, 513499, Note_on_c, 11, 76, 0
27, 513520, Note_on_c, 11, 77, 84
27, 513544, Note_on_c, 11, 79, 85
27, 513546, Note_on_c, 11, 77, 0
27, 513567, Note_on_c, 11, 81, 98
27, 513571, Note_on_c, 11, 79, 0
27, 513593, Note_on_c, 11, 81, 0
27, 513600, Note_on_c, 11, 83, 91
27, 513627, Note_on_c, 11, 83, 0
27, 513628, Note_on_c, 11, 84, 92
27, 513748, Note_on_c, 11, 84, 0
27, 514103, Note_on_c, 11, 82, 48
27, 514107, Note_on_c, 11, 70, 51
27, 514110, Note_on_c, 11, 71, 44
27, 514126, Note_on_c, 11, 82, 0
27, 514132, Note_on_c, 11, 70, 0
27, 514136, Note_on_c, 11, 81, 53
27, 514140, Note_on_c, 11, 71, 0
27, 514145, Note_on_c, 11, 82, 39
27, 514151, Note_on_c, 11, 70, 57
27, 514152, Note_on_c, 11, 81, 0
27, 514171, Note_on_c, 11, 81, 42
27, 514172, Note_on_c, 11, 71, 58
27, 514175, Note_on_c, 11, 82, 0
27, 514181, Note_on_c, 11, 70, 0
27, 514200, Note_on_c, 11, 70, 53
27, 514201, Note_on_c, 11, 81, 0
27, 514202, Note_on_c, 11, 71, 0
27, 514210, Note_on_c, 11, 82, 39
27, 514230, Note_on_c, 11, 70, 0
27, 514235, Note_on_c, 11, 71, 52
27, 514240, Note_on_c, 11, 82, 0
27, 514252, Note_on_c, 11, 81, 49
27, 514260, Note_on_c, 11, 82, 59
27, 514265, Note_on_c, 11, 71, 0
27, 514282, Note_on_c, 11, 81, 0
27, 514286, Note_on_c, 11, 70, 51
27, 514290, Note_on_c, 11, 82, 0
27, 514311, Note_on_c, 11, 71, 42
27, 514316, Note_on_c, 11, 70, 0
27, 514318, Note_on_c, 11, 81, 47
27, 514333, Note_on_c, 11, 82, 52
27, 514338, Note_on_c, 11, 70, 46
27, 514341, Note_on_c, 11, 71, 0
27, 514342, Note_on_c, 11, 81, 0
27, 514360, Note_on_c, 11, 71, 44
27, 514361, Note_on_c, 11, 81, 41
27, 514363, Note_on_c, 11, 82, 0
27, 514368, Note_on_c, 11, 70, 0
27, 514390, Note_on_c, 11, 71, 0
27, 514391, Note_on_c, 11, 81, 0
27, 514401, Note_on_c, 11, 70, 57
27, 514401, Note_on_c, 11, 82, 57
27, 514410, Note_on_c, 11, 81, 40
27, 514417, Note_on_c, 11, 71, 50
27, 514431, Note_on_c, 11, 70, 0
27, 514431, Note_on_c, 11, 82, 0
27, 514440, Note_on_c, 11, 81, 0
27, 514447, Note_on_c, 11, 71, 0
27, 514449, Note_on_c, 11, 70, 47
27, 514455, Note_on_c, 11, 82, 39
27, 514479, Note_on_c, 11, 70, 0
27, 514485, Note_on_c, 11, 82, 0
27, 514489, Note_on_c, 11, 81, 47
27, 514493, Note_on_c, 11, 71, 47
27, 514507, Note_on_c, 11, 82, 47
27, 514515, Note_on_c, 11, 70, 58
27, 514517, Note_on_c, 11, 81, 0
27, 514523, Note_on_c, 11, 71, 0
27, 514536, Note_on_c, 11, 81, 57
27, 514537, Note_on_c, 11, 82, 0
27, 514545, Note_on_c, 11, 70, 0
27, 514553, Note_on_c, 11, 71, 44
27, 514564, Note_on_c, 11, 82, 58
27, 514566, Note_on_c, 11, 81, 0
27, 514583, Note_on_c, 11, 71, 0
27, 514586, Note_on_c, 11, 70, 49
27, 514594, Note_on_c, 11, 82, 0
27, 514598, Note_on_c, 11, 71, 49
27, 514616, Note_on_c, 11, 70, 0
27, 514617, Note_on_c, 11, 81, 42
27, 514627, Note_on_c, 11, 70, 59
27, 514628, Note_on_c, 11, 71, 0
27, 514632, Note_on_c, 11, 81, 0
27, 514640, Note_on_c, 11, 82, 47
27, 514651, Note_on_c, 11, 81, 44
27, 514657, Note_on_c, 11, 70, 0
27, 514670, Note_on_c, 11, 82, 0
27, 514675, Note_on_c, 11, 71, 43
27, 514681, Note_on_c, 11, 81, 0
27, 514695, Note_on_c, 11, 70, 43
27, 514698, Note_on_c, 11, 82, 44
27, 514705, Note_on_c, 11, 71, 0
27, 514714, Note_on_c, 11, 81, 53
27, 514725, Note_on_c, 11, 70, 0
27, 514725, Note_on_c, 11, 82, 0
27, 514737, Note_on_c, 11, 71, 47
27, 514744, Note_on_c, 11, 81, 0
27, 514744, Note_on_c, 11, 82, 44
27, 514754, Note_on_c, 11, 71, 0
27, 514766, Note_on_c, 11, 70, 53
27, 514773, Note_on_c, 11, 71, 41
27, 514774, Note_on_c, 11, 82, 0
27, 514781, Note_on_c, 11, 81, 47
27, 514795, Note_on_c, 11, 70, 0
27, 514803, Note_on_c, 11, 71, 0
27, 514811, Note_on_c, 11, 81, 0
27, 514812, Note_on_c, 11, 82, 41
27, 514814, Note_on_c, 11, 70, 51
27, 514842, Note_on_c, 11, 82, 0
27, 514844, Note_on_c, 11, 70, 0
27, 514849, Note_on_c, 11, 71, 57
27, 514855, Note_on_c, 11, 81, 42
27, 514863, Note_on_c, 11, 70, 50
27, 514879, Note_on_c, 11, 71, 0
27, 514881, Note_on_c, 11, 82, 49
27, 514885, Note_on_c, 11, 81, 0
27, 514893, Note_on_c, 11, 70, 0
27, 514893, Note_on_c, 11, 71, 43
27, 514911, Note_on_c, 11, 82, 0
27, 514914, Note_on_c, 11, 81, 57
27, 514923, Note_on_c, 11, 71, 0
27, 514933, Note_on_c, 11, 70, 45
27, 514944, Note_on_c, 11, 81, 0
27, 514944, Note_on_c, 11, 82, 52
27, 514955, Note_on_c, 11, 71, 41
27, 514963, Note_on_c, 11, 70, 0
27, 514974, Note_on_c, 11, 82, 0
27, 514978, Note_on_c, 11, 81, 41
27, 514985, Note_on_c, 11, 71, 0
27, 514985, Note_on_c, 11, 70, 44
27, 514999, Note_on_c, 11, 82, 55
27, 515007, Note_on_c, 11, 81, 0
27, 515015, Note_on_c, 11, 70, 0
27, 515023, Note_on_c, 11, 71, 49
27, 515026, Note_on_c, 11, 81, 49
27, 515029, Note_on_c, 11, 82, 0
27, 515047, Note_on_c, 11, 70, 43
27, 515053, Note_on_c, 11, 71, 0
27, 515056, Note_on_c, 11, 81, 0
27, 515068, Note_on_c, 11, 82, 40
27, 515077, Note_on_c, 11, 70, 0
27, 515078, Note_on_c, 11, 71, 39
27, 515083, Note_on_c, 11, 81, 43
27, 515096, Note_on_c, 11, 82, 0
27, 515108, Note_on_c, 11, 71, 0
27, 515113, Note_on_c, 11, 81, 0
27, 515115, Note_on_c, 11, 82, 51
27, 515117, Note_on_c, 11, 70, 40
27, 515145, Note_on_c, 11, 82, 0
27, 515147, Note_on_c, 11, 70, 0
27, 515150, Note_on_c, 11, 71, 59
27, 515156, Note_on_c, 11, 81, 41
27, 515173, Note_on_c, 11, 81, 0
27, 515174, Note_on_c, 11, 70, 44
27, 515177, Note_on_c, 11, 71, 0
27, 515184, Note_on_c, 11, 82, 42
27, 515192, Note_on_c, 11, 81, 43
27, 515196, Note_on_c, 11, 71, 49
27, 515203, Note_on_c, 11, 82, 0
27, 515204, Note_on_c, 11, 70, 0
27, 515222, Note_on_c, 11, 81, 0
27, 515222, Note_on_c, 11, 82, 47
27, 515226, Note_on_c, 11, 71, 0
27, 515228, Note_on_c, 11, 70, 39
27, 515252, Note_on_c, 11, 82, 0
27, 515253, Note_on_c, 11, 71, 44
27, 515258, Note_on_c, 11, 70, 0
27, 515275, Note_on_c, 11, 81, 40
27, 515280, Pitch_bend_c, 11, 1
27, 515283, Note_on_c, 11, 71, 0
27, 515284, Pitch_bend_c, 11, 161
27, 515286, Note_on_c, 11, 93, 107
27, 515289, Pitch_bend_c, 11, 321
27, 515294, Pitch_bend_c, 11, 481
27, 515298, Pitch_bend_c, 11, 641
27, 515303, Pitch_bend_c, 11, 801
27, 515305, Note_on_c, 11, 81, 0
27, 515308, Pitch_bend_c, 11, 961
27, 515312, Pitch_bend_c, 11, 1121
27, 515317, Pitch_bend_c, 11, 1281
27, 515322, Pitch_bend_c, 11, 1441
27, 515326, Pitch_bend_c, 11, 1601
27, 515331, Pitch_bend_c, 11, 1761
27, 515336, Pitch_bend_c, 11, 1921
27, 515340, Pitch_bend_c, 11, 2081
27, 515345, Pitch_bend_c, 11, 2241
27, 515350, Pitch_bend_c, 11, 2401
27, 515355, Pitch_bend_c, 11, 2561
27, 515359, Pitch_bend_c, 11, 2721
27, 515364, Pitch_bend_c, 11, 2881
27, 515369, Pitch_bend_c, 11, 3041
27, 515373, Pitch_bend_c, 11, 3201
27, 515378, Pitch_bend_c, 11, 3361
27, 515383, Pitch_bend_c, 11, 3521
27, 515387, Pitch_bend_c, 11, 3681
27, 515392, Pitch_bend_c, 11, 3841
27, 515397, Pitch_bend_c, 11, 4001
27, 515401, Pitch_bend_c, 11, 4161
27, 515406, Pitch_bend_c, 11, 4321
27, 515411, Pitch_bend_c, 11, 4481
27, 515415, Pitch_bend_c, 11, 4641
27, 515420, Pitch_bend_c, 11, 4801
27, 515425, Pitch_bend_c, 11, 4961
27, 515430, Pitch_bend_c, 11, 5121
27, 515434, Pitch_bend_c, 11, 5281
27, 515439, Pitch_bend_c, 11, 5441
27, 515444, Pitch_bend_c, 11, 5601
27, 515448, Pitch_bend_c, 11, 5761
27, 515453, Pitch_bend_c, 11, 5921
27, 515458, Pitch_bend_c, 11, 6081
27, 515462, Pitch_bend_c, 11, 6241
27, 515467, Pitch_bend_c, 11, 6401
27, 515472, Pitch_bend_c, 11, 6561
27, 515476, Pitch_bend_c, 11, 6721
27, 515481, Pitch_bend_c, 11, 6881
27, 515486, Pitch_bend_c, 11, 7041
27, 515490, Pitch_bend_c, 11, 7201
27, 515495, Pitch_bend_c, 11, 7361
27, 515500, Pitch_bend_c, 11, 7521
27, 515505, Pitch_bend_c, 11, 7681
27, 515509, Pitch_bend_c, 11, 7841
27, 515514, Pitch_bend_c, 11, 8001
27, 515516, Pitch_bend_c, 11, 8192
27, 515519, Pitch_bend_c, 11, 8161
27, 515646, Note_on_c, 11, 93, 0
27, 520341, Note_on_c, 11, 81, 103
27, 520342, Note_on_c, 11, 69, 115
27, 520364, Note_on_c, 11, 81, 0
27, 520365, Note_on_c, 11, 69, 0
27, 520385, Note_on_c, 11, 81, 109
27, 520406, Note_on_c, 11, 69, 114
27, 520408, Note_on_c, 11, 81, 0
27, 520429, Note_on_c, 11, 69, 0
27, 520800, Note_on_c, 11, 81, 114
27, 520823, Note_on_c, 11, 81, 0
27, 520828, Note_on_c, 11, 69, 111
27, 520851, Note_on_c, 11, 69, 0
27, 520873, Note_on_c, 11, 81, 113
27, 520886, Note_on_c, 11, 69, 118
27, 520896, Note_on_c, 11, 81, 0
27, 520909, Note_on_c, 11, 69, 0
27, 521291, Note_on_c, 11, 69, 102
27, 521302, Note_on_c, 11, 81, 120
27, 521314, Note_on_c, 11, 69, 0
27, 521325, Note_on_c, 11, 81, 0
27, 521351, Note_on_c, 11, 69, 117
27, 521367, Note_on_c, 11, 81, 111
27, 521374, Note_on_c, 11, 69, 0
27, 521390, Note_on_c, 11, 81, 0
27, 521522, Note_on_c, 11, 81, 106
27, 521538, Note_on_c, 11, 69, 115
27, 521545, Note_on_c, 11, 81, 0
27, 521561, Note_on_c, 11, 69, 0
27, 521590, Note_on_c, 11, 69, 104
27, 521599, Note_on_c, 11, 81, 106
27, 521613, Note_on_c, 11, 69, 0
27, 521622, Note_on_c, 11, 81, 0
27, 522006, Note_on_c, 11, 81, 102
27, 522009, Note_on_c, 11, 69, 110
27, 522029, Note_on_c, 11, 81, 0
27, 522032, Note_on_c, 11, 69, 0
27, 522071, Note_on_c, 11, 69, 114
27, 522086, Note_on_c, 11, 81, 120
27, 522094, Note_on_c, 11, 69, 0
27, 522109, Note_on_c, 11, 81, 0
27, 522480, Note_on_c, 11, 81, 112
27, 522489, Note_on_c, 11, 69, 110
27, 522503, Note_on_c, 11, 81, 0
27, 522512, Note_on_c, 11, 69, 0
27, 522559, Note_on_c, 11, 69, 109
27, 522567, Note_on_c, 11, 81, 104
27, 522582, Note_on_c, 11, 69, 0
27, 522590, Note_on_c, 11, 81, 0
27, 522975, Note_on_c, 11, 81, 108
27, 522985, Note_on_c, 11, 69, 103
27, 522998, Note_on_c, 11, 81, 0
27, 523003, Note_on_c, 11, 69, 0
27, 523022, Note_on_c, 11, 69, 102
27, 523045, Note_on_c, 11, 69, 0
27, 523045, Note_on_c, 11, 81, 120
27, 523068, Note_on_c, 11, 81, 0
27, 523442, Note_on_c, 11, 69, 113
27, 523465, Note_on_c, 11, 69, 0
27, 523467, Note_on_c, 11, 81, 103
27, 523490, Note_on_c, 11, 81, 0
27, 523508, Note_on_c, 11, 81, 109
27, 523511, Note_on_c, 11, 69, 112
27, 523531, Note_on_c, 11, 81, 0
27, 523534, Note_on_c, 11, 69, 0
27, 523921, Note_on_c, 11, 69, 108
27, 523939, Note_on_c, 11, 81, 102
27, 523944, Note_on_c, 11, 69, 0
27, 523962, Note_on_c, 11, 81, 0
27, 523981, Note_on_c, 11, 69, 115
27, 524004, Note_on_c, 11, 69, 0
27, 524009, Note_on_c, 11, 81, 108
27, 524032, Note_on_c, 11, 81, 0
27, 524176, Note_on_c, 11, 81, 100
27, 524181, Note_on_c, 11, 69, 107
27, 524199, Note_on_c, 11, 81, 0
27, 524204, Note_on_c, 11, 69, 0
27, 524234, Note_on_c, 11, 69, 110
27, 524248, Note_on_c, 11, 81, 102
27, 524257, Note_on_c, 11, 69, 0
27, 524271, Note_on_c, 11, 81, 0
27, 524414, Note_on_c, 11, 69, 113
27, 524414, Note_on_c, 11, 81, 102
27, 524437, Note_on_c, 11, 69, 0
27, 524437, Note_on_c, 11, 81, 0
27, 524468, Note_on_c, 11, 69, 100
27, 524480, Note_on_c, 11, 81, 109
27, 524491, Note_on_c, 11, 69, 0
27, 524503, Note_on_c, 11, 81, 0
27, 524885, Note_on_c, 11, 81, 101
27, 524887, Note_on_c, 11, 69, 109
27, 524908, Note_on_c, 11, 81, 0
27, 524910, Note_on_c, 11, 69, 0
27, 524944, Note_on_c, 11, 69, 104
27, 524948, Note_on_c, 11, 81, 104
27, 524967, Note_on_c, 11, 69, 0
27, 524971, Note_on_c, 11, 81, 0
27, 525382, Note_on_c, 11, 81, 104
27, 525386, Note_on_c, 11, 69, 105
27, 525405, Note_on_c, 11, 81, 0
27, 525406, Note_on_c, 11, 69, 0
27, 525420, Note_on_c, 11, 81, 104
27, 525425, Note_on_c, 11, 69, 116
27, 525443, Note_on_c, 11, 81, 0
27, 525448, Note_on_c, 11, 69, 0
27, 525847, Note_on_c, 11, 69, 113
27, 525860, Note_on_c, 11, 81, 118
27, 525870, Note_on_c, 11, 69, 0
27, 525883, Note_on_c, 11, 81, 0
27, 525905, Note_on_c, 11, 81, 116
27, 525923, Note_on_c, 11, 69, 104
27, 525928, Note_on_c, 11, 81, 0
27, 525946, Note_on_c, 11, 69, 0
27, 526088, Note_on_c, 11, 79, 112
27, 526096, Note_on_c, 11, 71, 109
27, 526111, Note_on_c, 11, 79, 0
27, 526119, Note_on_c, 11, 71, 0
27, 526147, Note_on_c, 11, 79, 102
27, 526165, Note_on_c, 11, 71, 103
27, 526170, Note_on_c, 11, 79, 0
27, 526188, Note_on_c, 11, 71, 0
27, 526337, Note_on_c, 11, 81, 117
27, 526344, Note_on_c, 11, 69, 119
27, 526360, Note_on_c, 11, 81, 0
27, 526367, Note_on_c, 11, 69, 0
27, 526395, Note_on_c, 11, 69, 118
27, 526407, Note_on_c, 11, 81, 107
27, 526418, Note_on_c, 11, 69, 0
27, 526430, Note_on_c, 11, 81, 0
27, 526563, Note_on_c, 11, 81, 117
27, 526565, Note_on_c, 11, 69, 114
27, 526586, Note_on_c, 11, 81, 0
27, 526588, Note_on_c, 11, 69, 0
27, 526626, Note_on_c, 11, 69, 106
27, 526630, Note_on_c, 11, 81, 113
27, 526649, Note_on_c, 11, 69, 0
27, 526653, Note_on_c, 11, 81, 0
27, 527053, Note_on_c, 11, 79, 107
27, 527055, Note_on_c, 11, 71, 104
27, 527076, Note_on_c, 11, 79, 0
27, 527078, Note_on_c, 11, 71, 0
27, 527100, Note_on_c, 11, 79, 114
27, 527123, Note_on_c, 11, 79, 0
27, 527128, Note_on_c, 11, 71, 108
27, 527151, Note_on_c, 11, 71, 0
27, 527284, Note_on_c, 11, 86, 102
27, 527290, Note_on_c, 11, 75, 108
27, 527307, Note_on_c, 11, 86, 0
27, 527308, Note_on_c, 11, 80, 105
27, 527313, Note_on_c, 11, 75, 0
27, 527331, Note_on_c, 11, 80, 0
27, 527350, Note_on_c, 11, 75, 106
27, 527352, Note_on_c, 11, 80, 99
27, 527362, Note_on_c, 11, 86, 97
27, 527373, Note_on_c, 11, 75, 0
27, 527375, Note_on_c, 11, 80, 0
27, 527385, Note_on_c, 11, 86, 0
27, 527761, Note_on_c, 11, 85, 97
27, 527780, Note_on_c, 11, 80, 106
27, 527784, Note_on_c, 11, 85, 0
27, 527785, Note_on_c, 11, 74, 92
27, 527803, Note_on_c, 11, 80, 0
27, 527808, Note_on_c, 11, 74, 0
27, 527823, Note_on_c, 11, 85, 102
27, 527838, Note_on_c, 11, 80, 102
27, 527846, Note_on_c, 11, 85, 0
27, 527848, Note_on_c, 11, 74, 101
27, 527861, Note_on_c, 11, 80, 0
27, 527871, Note_on_c, 11, 74, 0
27, 528003, Note_on_c, 11, 74, 109
27, 528003, Note_on_c, 11, 85, 93
27, 528008, Note_on_c, 11, 80, 91
27, 528026, Note_on_c, 11, 74, 0
27, 528026, Note_on_c, 11, 85, 0
27, 528031, Note_on_c, 11, 80, 0
27, 528063, Note_on_c, 11, 80, 98
27, 528067, Note_on_c, 11, 74, 94
27, 528080, Note_on_c, 11, 85, 93
27, 528086, Note_on_c, 11, 80, 0
27, 528090, Note_on_c, 11, 74, 0
27, 528103, Note_on_c, 11, 85, 0
27, 528242, Note_on_c, 11, 76, 94
27, 528247, Note_on_c, 11, 74, 95
27, 528250, Note_on_c, 11, 83, 109
27, 528256, Note_on_c, 11, 80, 110
27, 528265, Note_on_c, 11, 76, 0
27, 528270, Note_on_c, 11, 74, 0
27, 528273, Note_on_c, 11, 83, 0
27, 528279, Note_on_c, 11, 80, 0
27, 528305, Note_on_c, 11, 76, 95
27, 528308, Note_on_c, 11, 74, 99
27, 528314, Note_on_c, 11, 83, 102
27, 528323, Note_on_c, 11, 80, 93
27, 528328, Note_on_c, 11, 76, 0
27, 528331, Note_on_c, 11, 74, 0
27, 528337, Note_on_c, 11, 83, 0
27, 528346, Note_on_c, 11, 80, 0
27, 528723, Note_on_c, 11, 80, 111
27, 528739, Note_on_c, 11, 74, 93
27, 528744, Note_on_c, 11, 83, 95
27, 528744, Note_on_c, 11, 76, 101
27, 528746, Note_on_c, 11, 80, 0
27, 528762, Note_on_c, 11, 74, 0
27, 528767, Note_on_c, 11, 83, 0
27, 528767, Note_on_c, 11, 76, 0
27, 528785, Note_on_c, 11, 80, 99
27, 528794, Note_on_c, 11, 76, 98
27, 528801, Note_on_c, 11, 74, 107
27, 528808, Note_on_c, 11, 80, 0
27, 528808, Note_on_c, 11, 83, 100
27, 528817, Note_on_c, 11, 76, 0
27, 528824, Note_on_c, 11, 74, 0
27, 528831, Note_on_c, 11, 83, 0
27, 528980, Note_on_c, 11, 83, 93
27, 528981, Note_on_c, 11, 80, 106
27, 528982, Note_on_c, 11, 74, 106
27, 528986, Note_on_c, 11, 76, 101
27, 529003, Note_on_c, 11, 83, 0
27, 529004, Note_on_c, 11, 80, 0
27, 529005, Note_on_c, 11, 74, 0
27, 529009, Note_on_c, 11, 76, 0
27, 529026, Note_on_c, 11, 74, 92
27, 529038, Note_on_c, 11, 80, 106
27, 529043, Note_on_c, 11, 83, 96
27, 529047, Note_on_c, 11, 76, 111
27, 529049, Note_on_c, 11, 74, 0
27, 529061, Note_on_c, 11, 80, 0
27, 529066, Note_on_c, 11, 83, 0
27, 529070, Note_on_c, 11, 76, 0
27, 529447, Note_on_c, 11, 86, 103
27, 529451, Note_on_c, 11, 75, 106
27, 529462, Note_on_c, 11, 81, 101
27, 529470, Note_on_c, 11, 86, 0
27, 529474, Note_on_c, 11, 75, 0
27, 529485, Note_on_c, 11, 81, 0
27, 529516, Note_on_c, 11, 81, 91
27, 529518, Note_on_c, 11, 86, 107
27, 529519, Note_on_c, 11, 75, 91
27, 529539, Note_on_c, 11, 81, 0
27, 529541, Note_on_c, 11, 86, 0
27, 529542, Note_on_c, 11, 75, 0
27, 529921, Note_on_c, 11, 74, 105
27, 529944, Note_on_c, 11, 74, 0
27, 529944, Note_on_c, 11, 85, 91
27, 529945, Note_on_c, 11, 80, 109
27, 529967, Note_on_c, 11, 85, 0
27, 529968, Note_on_c, 11, 80, 0
27, 529980, Note_on_c, 11, 74, 111
27, 529991, Note_on_c, 11, 80, 109
27, 530003, Note_on_c, 11, 74, 0
27, 530008, Note_on_c, 11, 85, 100
27, 530014, Note_on_c, 11, 80, 0
27, 530031, Note_on_c, 11, 85, 0
27, 530166, Note_on_c, 11, 80, 96
27, 530173, Note_on_c, 11, 74, 111
27, 530176, Note_on_c, 11, 83, 95
27, 530182, Note_on_c, 11, 76, 108
27, 530189, Note_on_c, 11, 80, 0
27, 530196, Note_on_c, 11, 74, 0
27, 530199, Note_on_c, 11, 83, 0
27, 530205, Note_on_c, 11, 76, 0
27, 530229, Note_on_c, 11, 80, 101
27, 530235, Note_on_c, 11, 76, 95
27, 530235, Note_on_c, 11, 83, 111
27, 530236, Note_on_c, 11, 74, 96
27, 530252, Note_on_c, 11, 80, 0
27, 530258, Note_on_c, 11, 76, 0
27, 530258, Note_on_c, 11, 83, 0
27, 530259, Note_on_c, 11, 74, 0
27, 530650, Note_on_c, 11, 74, 97
27, 530659, Note_on_c, 11, 83, 106
27, 530664, Note_on_c, 11, 76, 98
27, 530668, Note_on_c, 11, 80, 99
27, 530673, Note_on_c, 11, 74, 0
27, 530682, Note_on_c, 11, 83, 0
27, 530687, Note_on_c, 11, 76, 0
27, 530691, Note_on_c, 11, 80, 0
27, 530701, Note_on_c, 11, 83, 106
27, 530707, Note_on_c, 11, 74, 103
27, 530719, Note_on_c, 11, 76, 104
27, 530724, Note_on_c, 11, 83, 0
27, 530725, Note_on_c, 11, 80, 107
27, 530730, Note_on_c, 11, 74, 0
27, 530742, Note_on_c, 11, 76, 0
27, 530748, Note_on_c, 11, 80, 0
27, 531125, Note_on_c, 11, 80, 110
27, 531125, Note_on_c, 11, 74, 99
27, 531128, Note_on_c, 11, 83, 108
27, 531146, Note_on_c, 11, 76, 92
27, 531148, Note_on_c, 11, 80, 0
27, 531148, Note_on_c, 11, 74, 0
27, 531151, Note_on_c, 11, 83, 0
27, 531169, Note_on_c, 11, 76, 0
27, 531190, Note_on_c, 11, 74, 101
27, 531190, Note_on_c, 11, 76, 110
27, 531195, Note_on_c, 11, 80, 99
27, 531199, Note_on_c, 11, 83, 94
27, 531213, Note_on_c, 11, 74, 0
27, 531213, Note_on_c, 11, 76, 0
27, 531218, Note_on_c, 11, 80, 0
27, 531222, Note_on_c, 11, 83, 0
27, 531378, Note_on_c, 11, 81, 98
27, 531382, Note_on_c, 11, 69, 92
27, 531498, Note_on_c, 11, 81, 0
27, 531502, Note_on_c, 11, 69, 0
27, 531608, Note_on_c, 11, 69, 110
27, 531616, Note_on_c, 11, 81, 100
27, 531728, Note_on_c, 11, 69, 0
27, 531736, Note_on_c, 11, 81, 0
27, 531846, Note_on_c, 11, 69, 94
27, 531860, Note_on_c, 11, 81, 102
27, 531966, Note_on_c, 11, 69, 0
27, 531980, Note_on_c, 11, 81, 0
27, 532322, Note_on_c, 11, 69, 103
27, 532344, Note_on_c, 11, 81, 109
27, 532442, Note_on_c, 11, 69, 0
27, 532464, Note_on_c, 11, 81, 0
27, 532565, Note_on_c, 11, 69, 105
27, 532585, Note_on_c, 11, 81, 97
27, 532685, Note_on_c, 11, 69, 0
27, 532705, Note_on_c, 11, 81, 0
27, 532812, Note_on_c, 11, 69, 93
27, 532825, Note_on_c, 11, 81, 102
27, 532932, Note_on_c, 11, 69, 0
27, 532945, Note_on_c, 11, 81, 0
27, 533049, Note_on_c, 11, 81, 108
27, 533068, Note_on_c, 11, 69, 108
27, 533169, Note_on_c, 11, 81, 0
27, 533188, Note_on_c, 11, 69, 0
27, 533284, Note_on_c, 11, 81, 111
27, 533285, Note_on_c, 11, 69, 103
27, 533404, Note_on_c, 11, 81, 0
27, 533405, Note_on_c, 11, 69, 0
27, 533779, Note_on_c, 11, 81, 98
27, 533784, Note_on_c, 11, 69, 91
27, 533899, Note_on_c, 11, 81, 0
27, 533904, Note_on_c, 11, 69, 0
27, 534246, Note_on_c, 11, 69, 103
27, 534268, Note_on_c, 11, 81, 107
27, 534366, Note_on_c, 11, 69, 0
27, 534388, Note_on_c, 11, 81, 0
27, 534481, Note_on_c, 11, 79, 102
27, 534501, Note_on_c, 11, 74, 95
27, 534601, Note_on_c, 11, 79, 0
27, 534621, Note_on_c, 11, 74, 0
27, 534726, Note_on_c, 11, 81, 93
27, 534737, Note_on_c, 11, 69, 93
27, 534846, Note_on_c, 11, 81, 0
27, 534857, Note_on_c, 11, 69, 0
27, 535200, Note_on_c, 11, 69, 91
27, 535224, Note_on_c, 11, 81, 101
27, 535320, Note_on_c, 11, 69, 0
27, 535344, Note_on_c, 11, 81, 0
27, 535703, Note_on_c, 11, 69, 109
27, 535705, Note_on_c, 11, 81, 95
27, 535823, Note_on_c, 11, 69, 0
27, 535825, Note_on_c, 11, 81, 0
27, 535920, Note_on_c, 11, 69, 118
27, 535939, Note_on_c, 11, 69, 0
27, 535984, Note_on_c, 11, 69, 108
27, 535985, Note_on_c, 11, 69, 0
27, 536002, Note_on_c, 11, 69, 116
27, 536021, Note_on_c, 11, 69, 0
27, 536046, Note_on_c, 11, 69, 119
27, 536065, Note_on_c, 11, 69, 0
27, 536086, Note_on_c, 11, 69, 118
27, 536106, Note_on_c, 11, 69, 0
27, 536137, Note_on_c, 11, 69, 113
27, 536156, Note_on_c, 11, 69, 0
27, 536160, Note_on_c, 11, 79, 121
27, 536179, Note_on_c, 11, 79, 0
27, 536215, Note_on_c, 11, 79, 122
27, 536226, Note_on_c, 11, 79, 0
27, 536245, Note_on_c, 11, 79, 120
27, 536264, Note_on_c, 11, 79, 0
27, 536288, Note_on_c, 11, 79, 116
27, 536307, Note_on_c, 11, 79, 0
27, 536340, Note_on_c, 11, 79, 120
27, 536346, Note_on_c, 11, 79, 0
27, 536365, Note_on_c, 11, 79, 111
27, 536384, Note_on_c, 11, 79, 0
27, 536425, Note_on_c, 11, 78, 105
27, 536439, Note_on_c, 11, 78, 0
27, 536459, Note_on_c, 11, 78, 106
27, 536463, Note_on_c, 11, 78, 0
27, 536482, Note_on_c, 11, 78, 123
27, 536501, Note_on_c, 11, 78, 0
27, 536543, Note_on_c, 11, 78, 111
27, 536562, Note_on_c, 11, 78, 0
27, 536582, Note_on_c, 11, 78, 106
27, 536602, Note_on_c, 11, 78, 0
27, 536624, Note_on_c, 11, 78, 108
27, 536643, Note_on_c, 11, 78, 0
27, 536667, Note_on_c, 11, 95, 122
27, 536714, Note_on_c, 11, 95, 0
27, 536750, Note_on_c, 11, 95, 115
27, 536797, Note_on_c, 11, 95, 0
27, 536836, Note_on_c, 11, 94, 112
27, 536883, Note_on_c, 11, 94, 0
27, 536928, Note_on_c, 11, 94, 104
27, 536975, Note_on_c, 11, 94, 0
27, 537025, Note_on_c, 11, 93, 106
27, 537072, Note_on_c, 11, 93, 0
27, 537137, Note_on_c, 11, 93, 111
27, 537197, Note_on_c, 11, 93, 0
27, 537369, Note_on_c, 11, 67, 113
27, 537388, Note_on_c, 11, 67, 0
27, 537420, Note_on_c, 11, 67, 118
27, 537440, Note_on_c, 11, 67, 0
27, 537467, Note_on_c, 11, 67, 117
27, 537485, Note_on_c, 11, 67, 0
27, 537505, Note_on_c, 11, 67, 111
27, 537517, Note_on_c, 11, 67, 0
27, 537536, Note_on_c, 11, 67, 120
27, 537556, Note_on_c, 11, 67, 0
27, 537581, Note_on_c, 11, 67, 119
27, 537600, Note_on_c, 11, 67, 0
27, 546001, Note_on_c, 11, 80, 118
27, 546048, Note_on_c, 11, 80, 0
27, 546048, Note_on_c, 11, 81, 109
27, 546096, Note_on_c, 11, 81, 0
27, 546116, Note_on_c, 11, 80, 122
27, 546163, Note_on_c, 11, 80, 0
27, 546169, Note_on_c, 11, 79, 112
27, 546195, Note_on_c, 11, 80, 107
27, 546217, Note_on_c, 11, 79, 0
27, 546241, Note_on_c, 11, 80, 0
27, 546260, Note_on_c, 11, 80, 115
27, 546306, Note_on_c, 11, 81, 110
27, 546307, Note_on_c, 11, 80, 0
27, 546354, Note_on_c, 11, 81, 0
27, 546354, Note_on_c, 11, 80, 114
27, 546386, Note_on_c, 11, 79, 121
27, 546401, Note_on_c, 11, 80, 0
27, 546434, Note_on_c, 11, 79, 0
27, 546443, Note_on_c, 11, 80, 111
27, 546464, Note_on_c, 11, 80, 0
27, 546483, Note_on_c, 11, 80, 111
27, 546530, Note_on_c, 11, 80, 0
27, 546543, Note_on_c, 11, 81, 120
27, 546582, Note_on_c, 11, 80, 117
27, 546591, Note_on_c, 11, 81, 0
27, 546629, Note_on_c, 11, 80, 0
27, 546651, Note_on_c, 11, 79, 120
27, 546682, Note_on_c, 11, 80, 105
27, 546699, Note_on_c, 11, 79, 0
27, 546722, Note_on_c, 11, 80, 0
27, 546742, Note_on_c, 11, 80, 112
27, 546789, Note_on_c, 11, 80, 0
27, 546793, Note_on_c, 11, 81, 110
27, 546839, Note_on_c, 11, 80, 110
27, 546841, Note_on_c, 11, 81, 0
27, 546886, Note_on_c, 11, 80, 0
27, 546889, Note_on_c, 11, 79, 113
27, 546923, Note_on_c, 11, 80, 112
27, 546937, Note_on_c, 11, 79, 0
27, 546952, Note_on_c, 11, 80, 0
27, 546971, Note_on_c, 11, 80, 117
27, 547007, Note_on_c, 11, 81, 119
27, 547018, Note_on_c, 11, 80, 0
27, 547055, Note_on_c, 11, 81, 0
27, 547066, Note_on_c, 11, 80, 120
27, 547104, Note_on_c, 11, 79, 120
27, 547113, Note_on_c, 11, 80, 0
27, 547152, Note_on_c, 11, 79, 0
27, 547153, Note_on_c, 11, 80, 111
27, 547201, Note_on_c, 11, 80, 0
27, 547226, Note_on_c, 11, 80, 113
27, 547269, Note_on_c, 11, 81, 114
27, 547273, Note_on_c, 11, 80, 0
27, 547300, Note_on_c, 11, 80, 120
27, 547317, Note_on_c, 11, 81, 0
27, 547347, Note_on_c, 11, 80, 0
27, 547349, Note_on_c, 11, 79, 107
27, 547395, Note_on_c, 11, 80, 117
27, 547397, Note_on_c, 11, 79, 0
27, 547443, Note_on_c, 11, 80, 0
27, 547467, Note_on_c, 11, 81, 118
27, 547501, Note_on_c, 11, 83, 106
27, 547514, Note_on_c, 11, 81, 0
27, 547546, Note_on_c, 11, 81, 113
27, 547549, Note_on_c, 11, 83, 0
27, 547593, Note_on_c, 11, 81, 0
27, 547597, Note_on_c, 11, 80, 124
27, 547633, Note_on_c, 11, 81, 104
27, 547645, Note_on_c, 11, 80, 0
27, 547681, Note_on_c, 11, 81, 0
27, 547697, Note_on_c, 11, 80, 121
27, 547741, Note_on_c, 11, 81, 113
27, 547744, Note_on_c, 11, 80, 0
27, 547778, Note_on_c, 11, 80, 122
27, 547789, Note_on_c, 11, 81, 0
27, 547825, Note_on_c, 11, 80, 0
27, 547830, Note_on_c, 11, 79, 104
27, 547878, Note_on_c, 11, 79, 0
27, 547889, Note_on_c, 11, 80, 115
27, 547928, Note_on_c, 11, 80, 0
27, 547947, Note_on_c, 11, 80, 113
27, 547971, Note_on_c, 11, 81, 108
27, 547994, Note_on_c, 11, 80, 0
27, 548019, Note_on_c, 11, 81, 0
27, 548041, Note_on_c, 11, 80, 104
27, 548086, Note_on_c, 11, 79, 107
27, 548088, Note_on_c, 11, 80, 0
27, 548134, Note_on_c, 11, 79, 0
27, 548138, Note_on_c, 11, 80, 124
27, 548167, Note_on_c, 11, 80, 0
27, 548186, Note_on_c, 11, 80, 113
27, 548221, Note_on_c, 11, 81, 116
27, 548233, Note_on_c, 11, 80, 0
27, 548269, Note_on_c, 11, 81, 0
27, 548277, Note_on_c, 11, 80, 116
27, 548324, Note_on_c, 11, 80, 0
27, 548331, Note_on_c, 11, 79, 124
27, 548377, Note_on_c, 11, 80, 110
27, 548379, Note_on_c, 11, 79, 0
27, 548407, Note_on_c, 11, 80, 0
27, 548427, Note_on_c, 11, 80, 114
27, 548473, Note_on_c, 11, 81, 116
27, 548474, Note_on_c, 11, 80, 0
27, 548501, Note_on_c, 11, 80, 111
27, 548521, Note_on_c, 11, 81, 0
27, 548548, Note_on_c, 11, 80, 0
27, 548559, Note_on_c, 11, 79, 119
27, 548601, Note_on_c, 11, 80, 120
27, 548607, Note_on_c, 11, 79, 0
27, 548638, Note_on_c, 11, 80, 0
27, 548657, Note_on_c, 11, 80, 105
27, 548703, Note_on_c, 11, 81, 114
27, 548704, Note_on_c, 11, 80, 0
27, 548751, Note_on_c, 11, 81, 0
27, 548754, Note_on_c, 11, 80, 119
27, 548801, Note_on_c, 11, 80, 0
27, 548802, Note_on_c, 11, 79, 115
27, 548850, Note_on_c, 11, 79, 0
27, 548851, Note_on_c, 11, 80, 113
27, 548877, Note_on_c, 11, 80, 0
27, 548897, Note_on_c, 11, 80, 111
27, 548944, Note_on_c, 11, 80, 0
27, 548955, Note_on_c, 11, 81, 113
27, 548996, Note_on_c, 11, 80, 111
27, 549003, Note_on_c, 11, 81, 0
27, 549043, Note_on_c, 11, 80, 0
27, 549050, Note_on_c, 11, 79, 119
27, 549073, Note_on_c, 11, 80, 124
27, 549098, Note_on_c, 11, 79, 0
27, 549121, Note_on_c, 11, 80, 0
27, 549146, Note_on_c, 11, 80, 107
27, 549193, Note_on_c, 11, 80, 0
27, 549196, Note_on_c, 11, 81, 111
27, 549235, Note_on_c, 11, 80, 115
27, 549244, Note_on_c, 11, 81, 0
27, 549282, Note_on_c, 11, 80, 0
27, 549289, Note_on_c, 11, 79, 117
27, 549314, Note_on_c, 11, 80, 111
27, 549337, Note_on_c, 11, 79, 0
27, 549362, Note_on_c, 11, 80, 0
27, 549365, Note_on_c, 11, 81, 121
27, 549412, Note_on_c, 11, 81, 0
27, 549424, Note_on_c, 11, 83, 104
27, 549461, Note_on_c, 11, 81, 117
27, 549472, Note_on_c, 11, 83, 0
27, 549504, Note_on_c, 11, 80, 104
27, 549508, Note_on_c, 11, 81, 0
27, 549552, Note_on_c, 11, 80, 0
27, 549573, Note_on_c, 11, 81, 114
27, 549602, Note_on_c, 11, 81, 0
27, 549621, Note_on_c, 11, 81, 108
27, 549661, Note_on_c, 11, 83, 116
27, 549668, Note_on_c, 11, 81, 0
27, 549709, Note_on_c, 11, 83, 0
27, 549721, Note_on_c, 11, 81, 105
27, 549748, Note_on_c, 11, 80, 108
27, 549768, Note_on_c, 11, 81, 0
27, 549796, Note_on_c, 11, 80, 0
27, 549796, Note_on_c, 11, 81, 108
27, 549834, Note_on_c, 11, 81, 0
27, 549853, Note_on_c, 11, 81, 113
27, 549894, Note_on_c, 11, 83, 123
27, 549900, Note_on_c, 11, 81, 0
27, 549942, Note_on_c, 11, 83, 0
27, 549942, Note_on_c, 11, 81, 119
27, 549989, Note_on_c, 11, 81, 0
27, 550008, Note_on_c, 11, 80, 109
27, 550048, Note_on_c, 11, 81, 105
27, 550056, Note_on_c, 11, 80, 0
27, 550084, Note_on_c, 11, 81, 0
27, 550103, Note_on_c, 11, 81, 106
27, 550144, Note_on_c, 11, 83, 109
27, 550150, Note_on_c, 11, 81, 0
27, 550182, Note_on_c, 11, 81, 112
27, 550192, Note_on_c, 11, 83, 0
27, 550228, Note_on_c, 11, 80, 116
27, 550229, Note_on_c, 11, 81, 0
27, 550276, Note_on_c, 11, 80, 0
27, 550286, Note_on_c, 11, 81, 104
27, 550327, Note_on_c, 11, 81, 0
27, 550346, Note_on_c, 11, 81, 119
27, 550386, Note_on_c, 11, 83, 110
27, 550393, Note_on_c, 11, 81, 0
27, 550427, Note_on_c, 11, 81, 123
27, 550434, Note_on_c, 11, 83, 0
27, 550474, Note_on_c, 11, 81, 0
27, 550482, Note_on_c, 11, 80, 117
27, 550530, Note_on_c, 11, 80, 0
27, 550539, Note_on_c, 11, 81, 124
27, 550557, Note_on_c, 11, 81, 0
27, 550577, Note_on_c, 11, 81, 81
27, 550607, Note_on_c, 11, 82, 88
27, 550616, Note_on_c, 11, 81, 0
27, 550647, Note_on_c, 11, 82, 0
27, 550650, Note_on_c, 11, 83, 80
27, 550683, Note_on_c, 11, 85, 100
27, 550690, Note_on_c, 11, 83, 0
27, 550722, Note_on_c, 11, 85, 0
27, 550739, Note_on_c, 11, 87, 100
27, 550763, Note_on_c, 11, 89, 92
27, 550779, Note_on_c, 11, 87, 0
27, 550803, Note_on_c, 11, 89, 0
27, 550826, Note_on_c, 11, 90, 90
27, 550946, Note_on_c, 11, 90, 0
27, 551160, Note_on_c, 11, 65, 89
27, 551166, Note_on_c, 11, 61, 93
27, 551173, Note_on_c, 11, 73, 88
27, 551213, Note_on_c, 11, 65, 0
27, 551219, Note_on_c, 11, 61, 0
27, 551226, Note_on_c, 11, 73, 0
27, 551528, Note_on_c, 11, 61, 78
27, 551536, Note_on_c, 11, 65, 98
27, 551537, Note_on_c, 11, 73, 84
27, 551581, Note_on_c, 11, 61, 0
27, 551589, Note_on_c, 11, 65, 0
27, 551590, Note_on_c, 11, 73, 0
27, 551769, Note_on_c, 11, 61, 97
27, 551779, Note_on_c, 11, 73, 97
27, 551780, Note_on_c, 11, 65, 84
27, 551876, Note_on_c, 11, 61, 0
27, 551886, Note_on_c, 11, 73, 0
27, 551887, Note_on_c, 11, 65, 0
27, 552127, Note_on_c, 11, 61, 88
27, 552131, Note_on_c, 11, 65, 78
27, 552140, Note_on_c, 11, 73, 83
27, 552234, Note_on_c, 11, 61, 0
27, 552238, Note_on_c, 11, 65, 0
27, 552247, Note_on_c, 11, 73, 0
27, 552482, Note_on_c, 11, 71, 90
27, 552487, Note_on_c, 11, 75, 79
27, 552535, Note_on_c, 11, 71, 0
27, 552540, Note_on_c, 11, 75, 0
27, 552604, Note_on_c, 11, 72, 88
27, 552606, Note_on_c, 11, 70, 82
27, 552657, Note_on_c, 11, 72, 0
27, 552659, Note_on_c, 11, 70, 0
27, 552735, Note_on_c, 11, 71, 94
27, 552741, Note_on_c, 11, 68, 98
27, 552788, Note_on_c, 11, 71, 0
27, 552794, Note_on_c, 11, 68, 0
27, 552972, Note_on_c, 11, 65, 80
27, 552986, Note_on_c, 11, 61, 78
27, 552986, Note_on_c, 11, 73, 94
27, 553025, Note_on_c, 11, 65, 0
27, 553039, Note_on_c, 11, 61, 0
27, 553039, Note_on_c, 11, 73, 0
27, 553212, Note_on_c, 11, 73, 90
27, 553218, Note_on_c, 11, 65, 90
27, 553227, Note_on_c, 11, 61, 81
27, 553319, Note_on_c, 11, 73, 0
27, 553325, Note_on_c, 11, 65, 0
27, 553334, Note_on_c, 11, 61, 0
27, 553560, Note_on_c, 11, 73, 85
27, 553564, Note_on_c, 11, 65, 90
27, 553584, Note_on_c, 11, 61, 97
27, 553667, Note_on_c, 11, 73, 0
27, 553671, Note_on_c, 11, 65, 0
27, 553691, Note_on_c, 11, 61, 0
27, 553924, Note_on_c, 11, 71, 97
27, 553928, Note_on_c, 11, 75, 81
27, 553977, Note_on_c, 11, 71, 0
27, 553981, Note_on_c, 11, 75, 0
27, 554058, Note_on_c, 11, 70, 90
27, 554063, Note_on_c, 11, 72, 78
27, 554111, Note_on_c, 11, 70, 0
27, 554116, Note_on_c, 11, 72, 0
27, 554176, Note_on_c, 11, 71, 80
27, 554183, Note_on_c, 11, 68, 89
27, 554229, Note_on_c, 11, 71, 0
27, 554236, Note_on_c, 11, 68, 0
27, 554411, Note_on_c, 11, 61, 80
27, 554427, Note_on_c, 11, 65, 81
27, 554427, Note_on_c, 11, 73, 98
27, 554518, Note_on_c, 11, 61, 0
27, 554534, Note_on_c, 11, 65, 0
27, 554534, Note_on_c, 11, 73, 0
27, 554767, Note_on_c, 11, 76, 97
27, 554778, Note_on_c, 11, 74, 107
27, 554910, Note_on_c, 11, 76, 0
27, 554921, Note_on_c, 11, 74, 0
27, 555019, Note_on_c, 11, 76, 99
27, 555023, Note_on_c, 11, 74, 99
27, 555162, Note_on_c, 11, 76, 0
27, 555166, Note_on_c, 11, 74, 0
27, 555260, Note_on_c, 11, 76, 108
27, 555261, Note_on_c, 11, 74, 105
27, 555313, Note_on_c, 11, 76, 0
27, 555314, Note_on_c, 11, 74, 0
27, 555367, Note_on_c, 11, 76, 97
27, 555369, Note_on_c, 11, 74, 109
27, 555420, Note_on_c, 11, 76, 0
27, 555422, Note_on_c, 11, 74, 0
27, 555486, Note_on_c, 11, 76, 95
27, 555494, Note_on_c, 11, 74, 96
27, 555539, Note_on_c, 11, 76, 0
27, 555547, Note_on_c, 11, 74, 0
27, 555726, Note_on_c, 11, 65, 95
27, 555735, Note_on_c, 11, 73, 84
27, 555739, Note_on_c, 11, 61, 95
27, 555779, Note_on_c, 11, 65, 0
27, 555788, Note_on_c, 11, 73, 0
27, 555792, Note_on_c, 11, 61, 0
27, 555964, Note_on_c, 11, 65, 89
27, 555965, Note_on_c, 11, 73, 88
27, 555988, Note_on_c, 11, 61, 80
27, 556017, Note_on_c, 11, 65, 0
27, 556018, Note_on_c, 11, 73, 0
27, 556041, Note_on_c, 11, 61, 0
27, 556212, Note_on_c, 11, 61, 87
27, 556224, Note_on_c, 11, 73, 81
27, 556225, Note_on_c, 11, 65, 88
27, 556319, Note_on_c, 11, 61, 0
27, 556331, Note_on_c, 11, 73, 0
27, 556332, Note_on_c, 11, 65, 0
27, 556560, Note_on_c, 11, 75, 90
27, 556571, Note_on_c, 11, 71, 96
27, 556613, Note_on_c, 11, 75, 0
27, 556624, Note_on_c, 11, 71, 0
27, 556680, Note_on_c, 11, 72, 94
27, 556708, Note_on_c, 11, 70, 84
27, 556733, Note_on_c, 11, 72, 0
27, 556761, Note_on_c, 11, 70, 0
27, 556814, Note_on_c, 11, 71, 88
27, 556814, Note_on_c, 11, 68, 98
27, 556867, Note_on_c, 11, 71, 0
27, 556867, Note_on_c, 11, 68, 0
27, 556936, Note_on_c, 11, 76, 101
27, 556941, Note_on_c, 11, 74, 101
27, 557008, Note_on_c, 11, 76, 0
27, 557013, Note_on_c, 11, 74, 0
27, 557052, Note_on_c, 11, 76, 111
27, 557068, Note_on_c, 11, 74, 97
27, 557124, Note_on_c, 11, 76, 0
27, 557140, Note_on_c, 11, 74, 0
27, 557166, Note_on_c, 11, 76, 91
27, 557182, Note_on_c, 11, 74, 103
27, 557238, Note_on_c, 11, 76, 0
27, 557254, Note_on_c, 11, 74, 0
27, 557401, Note_on_c, 11, 76, 98
27, 557415, Note_on_c, 11, 74, 94
27, 557448, Note_on_c, 11, 76, 0
27, 557462, Note_on_c, 11, 74, 0
27, 557533, Note_on_c, 11, 73, 104
27, 557535, Note_on_c, 11, 65, 91
27, 557540, Note_on_c, 11, 61, 95
27, 557676, Note_on_c, 11, 73, 0
27, 557678, Note_on_c, 11, 65, 0
27, 557683, Note_on_c, 11, 61, 0
27, 557784, Note_on_c, 11, 65, 94
27, 557789, Note_on_c, 11, 73, 103
27, 557789, Note_on_c, 11, 61, 97
27, 557927, Note_on_c, 11, 65, 0
27, 557932, Note_on_c, 11, 73, 0
27, 557932, Note_on_c, 11, 61, 0
27, 558013, Note_on_c, 11, 65, 91
27, 558021, Note_on_c, 11, 61, 92
27, 558024, Note_on_c, 11, 73, 111
27, 558060, Note_on_c, 11, 65, 0
27, 558068, Note_on_c, 11, 61, 0
27, 558071, Note_on_c, 11, 73, 0
27, 558242, Note_on_c, 11, 73, 91
27, 558245, Note_on_c, 11, 61, 107
27, 558265, Note_on_c, 11, 65, 102
27, 558295, Note_on_c, 11, 73, 0
27, 558298, Note_on_c, 11, 61, 0
27, 558318, Note_on_c, 11, 65, 0
27, 558487, Note_on_c, 11, 61, 93
27, 558492, Note_on_c, 11, 73, 106
27, 558499, Note_on_c, 11, 65, 106
27, 558540, Note_on_c, 11, 61, 0
27, 558545, Note_on_c, 11, 73, 0
27, 558552, Note_on_c, 11, 65, 0
27, 558729, Note_on_c, 11, 65, 92
27, 558732, Note_on_c, 11, 73, 97
27, 558747, Note_on_c, 11, 61, 103
27, 558836, Note_on_c, 11, 65, 0
27, 558839, Note_on_c, 11, 73, 0
27, 558854, Note_on_c, 11, 61, 0
27, 559096, Note_on_c, 11, 75, 111
27, 559098, Note_on_c, 11, 71, 110
27, 559149, Note_on_c, 11, 75, 0
27, 559151, Note_on_c, 11, 71, 0
27, 559210, Note_on_c, 11, 72, 94
27, 559219, Note_on_c, 11, 70, 106
27, 559263, Note_on_c, 11, 72, 0
27, 559272, Note_on_c, 11, 70, 0
27, 559336, Note_on_c, 11, 68, 110
27, 559347, Note_on_c, 11, 71, 108
27, 559389, Note_on_c, 11, 68, 0
27, 559400, Note_on_c, 11, 71, 0
27, 559569, Note_on_c, 11, 65, 106
27, 559570, Note_on_c, 11, 73, 94
27, 559581, Note_on_c, 11, 61, 102
27, 559676, Note_on_c, 11, 65, 0
27, 559677, Note_on_c, 11, 73, 0
27, 559688, Note_on_c, 11, 61, 0
27, 559926, Note_on_c, 11, 73, 104
27, 559926, Note_on_c, 11, 61, 103
27, 559928, Note_on_c, 11, 65, 103
27, 559979, Note_on_c, 11, 73, 0
27, 559979, Note_on_c, 11, 61, 0
27, 559981, Note_on_c, 11, 65, 0
27, 560164, Note_on_c, 11, 61, 97
27, 560176, Note_on_c, 11, 73, 104
27, 560183, Note_on_c, 11, 65, 110
27, 560271, Note_on_c, 11, 61, 0
27, 560283, Note_on_c, 11, 73, 0
27, 560290, Note_on_c, 11, 65, 0
27, 560532, Note_on_c, 11, 75, 108
27, 560547, Note_on_c, 11, 71, 109
27, 560585, Note_on_c, 11, 75, 0
27, 560600, Note_on_c, 11, 71, 0
27, 560647, Note_on_c, 11, 70, 93
27, 560659, Note_on_c, 11, 72, 106
27, 560700, Note_on_c, 11, 70, 0
27, 560712, Note_on_c, 11, 72, 0
27, 560766, Note_on_c, 11, 71, 107
27, 560779, Note_on_c, 11, 68, 102
27, 560819, Note_on_c, 11, 71, 0
27, 560832, Note_on_c, 11, 68, 0
27, 561002, Note_on_c, 11, 61, 108
27, 561011, Note_on_c, 11, 73, 102
27, 561018, Note_on_c, 11, 65, 110
27, 561055, Note_on_c, 11, 61, 0
27, 561064, Note_on_c, 11, 73, 0
27, 561071, Note_on_c, 11, 65, 0
27, 561244, Note_on_c, 11, 75, 91
27, 561256, Note_on_c, 11, 71, 102
27, 561297, Note_on_c, 11, 75, 0
27, 561309, Note_on_c, 11, 71, 0
27, 561377, Note_on_c, 11, 72, 105
27, 561383, Note_on_c, 11, 70, 91
27, 561430, Note_on_c, 11, 72, 0
27, 561436, Note_on_c, 11, 70, 0
27, 561487, Note_on_c, 11, 68, 108
27, 561488, Note_on_c, 11, 71, 92
27, 561540, Note_on_c, 11, 68, 0
27, 561541, Note_on_c, 11, 71, 0
27, 561731, Note_on_c, 11, 65, 104
27, 561735, Note_on_c, 11, 73, 93
27, 561738, Note_on_c, 11, 61, 98
27, 561838, Note_on_c, 11, 65, 0
27, 561842, Note_on_c, 11, 73, 0
27, 561845, Note_on_c, 11, 61, 0
27, 562080, Note_on_c, 11, 73, 95
27, 562089, Note_on_c, 11, 65, 110
27, 562100, Note_on_c, 11, 61, 98
27, 562133, Note_on_c, 11, 73, 0
27, 562142, Note_on_c, 11, 65, 0
27, 562153, Note_on_c, 11, 61, 0
27, 562323, Note_on_c, 11, 61, 94
27, 562330, Note_on_c, 11, 73, 96
27, 562348, Note_on_c, 11, 65, 101
27, 562430, Note_on_c, 11, 61, 0
27, 562437, Note_on_c, 11, 73, 0
27, 562455, Note_on_c, 11, 65, 0
27, 562688, Note_on_c, 11, 71, 94
27, 562688, Note_on_c, 11, 75, 97
27, 562741, Note_on_c, 11, 71, 0
27, 562741, Note_on_c, 11, 75, 0
27, 562803, Note_on_c, 11, 70, 93
27, 562828, Note_on_c, 11, 72, 95
27, 562856, Note_on_c, 11, 70, 0
27, 562881, Note_on_c, 11, 72, 0
27, 562933, Note_on_c, 11, 68, 108
27, 562944, Note_on_c, 11, 71, 95
27, 562986, Note_on_c, 11, 68, 0
27, 562997, Note_on_c, 11, 71, 0
27, 563521, Note_on_c, 11, 68, 107
27, 563541, Note_on_c, 11, 80, 109
27, 563545, Note_on_c, 11, 76, 110
27, 563574, Note_on_c, 11, 68, 0
27, 563594, Note_on_c, 11, 80, 0
27, 563598, Note_on_c, 11, 76, 0
27, 564364, Note_on_c, 11, 68, 102
27, 564382, Note_on_c, 11, 76, 100
27, 564385, Note_on_c, 11, 80, 91
27, 564417, Note_on_c, 11, 68, 0
27, 564435, Note_on_c, 11, 76, 0
27, 564438, Note_on_c, 11, 80, 0
27, 576262, Note_on_c, 11, 74, 97
27, 577460, Note_on_c, 11, 72, 85
27, 577462, Note_on_c, 11, 74, 0
27, 577580, Note_on_c, 11, 72, 0
27, 577688, Note_on_c, 11, 70, 78
27, 577808, Note_on_c, 11, 70, 0
27, 577947, Note_on_c, 11, 68, 84
27, 578067, Note_on_c, 11, 68, 0
27, 578163, Note_on_c, 11, 72, 83
27, 578283, Note_on_c, 11, 72, 0
27, 578422, Note_on_c, 11, 74, 86
27, 578542, Note_on_c, 11, 74, 0
27, 580080, Note_on_c, 11, 79, 108
27, 580104, Note_on_c, 11, 91, 110
27, 580187, Note_on_c, 11, 79, 0
27, 580211, Note_on_c, 11, 91, 0
27, 581280, Program_c, 11, 45
27, 581292, Note_on_c, 11, 73, 102
27, 581292, Note_on_c, 11, 76, 97
27, 581532, Note_on_c, 11, 73, 0
27, 581532, Note_on_c, 11, 76, 0
27, 581539, Note_on_c, 11, 72, 103
27, 581544, Note_on_c, 11, 75, 109
27, 581772, Note_on_c, 11, 73, 94
27, 581779, Note_on_c, 11, 72, 0
27, 581783, Note_on_c, 11, 70, 102
27, 581784, Note_on_c, 11, 75, 0
27, 581983, Note_on_c, 11, 73, 0
27, 582002, Note_on_c, 11, 73, 100
27, 582009, Note_on_c, 11, 76, 104
27, 582023, Note_on_c, 11, 70, 0
27, 582242, Note_on_c, 11, 73, 0
27, 582249, Note_on_c, 11, 76, 0
27, 582258, Note_on_c, 11, 72, 103
27, 582266, Note_on_c, 11, 79, 98
27, 582498, Note_on_c, 11, 72, 0
27, 582506, Note_on_c, 11, 79, 0
27, 584880, Program_c, 11, 48
27, 584883, Note_on_c, 11, 79, 109
27, 584899, Note_on_c, 11, 91, 100
27, 584990, Note_on_c, 11, 79, 0
27, 585006, Note_on_c, 11, 91, 0
27, 586080, Program_c, 11, 45
27, 586086, Note_on_c, 11, 73, 95
27, 586108, Note_on_c, 11, 76, 101
27, 586326, Note_on_c, 11, 73, 0
27, 586326, Note_on_c, 11, 75, 102
27, 586339, Note_on_c, 11, 72, 92
27, 586348, Note_on_c, 11, 76, 0
27, 586566, Note_on_c, 11, 75, 0
27, 586579, Note_on_c, 11, 72, 0
27, 586584, Note_on_c, 11, 70, 94
27, 586587, Note_on_c, 11, 73, 93
27, 586792, Note_on_c, 11, 73, 0
27, 586811, Note_on_c, 11, 73, 105
27, 586824, Note_on_c, 11, 70, 0
27, 586827, Note_on_c, 11, 76, 104
27, 587042, Note_on_c, 11, 79, 109
27, 587051, Note_on_c, 11, 73, 0
27, 587056, Note_on_c, 11, 72, 97
27, 587067, Note_on_c, 11, 76, 0
27, 587282, Note_on_c, 11, 79, 0
27, 587296, Note_on_c, 11, 72, 0
27, 588480, Program_c, 11, 48
27, 588505, Note_on_c, 11, 74, 108
27, 588508, Note_on_c, 11, 62, 111
27, 589225, Note_on_c, 11, 74, 0
27, 589228, Note_on_c, 11, 62, 0
27, 589458, Note_on_c, 11, 74, 92
27, 589466, Note_on_c, 11, 62, 92
27, 590178, Note_on_c, 11, 74, 0
27, 590186, Note_on_c, 11, 62, 0
27, 590417, Note_on_c, 11, 74, 107
27, 590419, Note_on_c, 11, 62, 106
27, 591137, Note_on_c, 11, 74, 0
27, 591139, Note_on_c, 11, 62, 0
27, 591366, Note_on_c, 11, 62, 109
27, 591367, Note_on_c, 11, 74, 94
27, 592086, Note_on_c, 11, 62, 0
27, 592087, Note_on_c, 11, 74, 0
27, 592331, Note_on_c, 11, 74, 105
27, 592337, Note_on_c, 11, 62, 98
27, 593051, Note_on_c, 11, 74, 0
27, 593057, Note_on_c, 11, 62, 0
27, 593283, Note_on_c, 11, 62, 98
27, 593307, Note_on_c, 11, 74, 95
27, 594003, Note_on_c, 11, 62, 0
27, 594027, Note_on_c, 11, 74, 0
27, 594241, Note_on_c, 11, 74, 92
27, 594242, Note_on_c, 11, 62, 99
27, 594961, Note_on_c, 11, 74, 0
27, 594962, Note_on_c, 11, 62, 0
27, 595200, Note_on_c, 11, 74, 109
27, 595215, Note_on_c, 11, 62, 108
27, 595920, Note_on_c, 11, 74, 0
27, 595935, Note_on_c, 11, 62, 0
27, 596179, Note_on_c, 11, 62, 97
27, 596180, Note_on_c, 11, 74, 109
27, 596899, Note_on_c, 11, 62, 0
27, 596900, Note_on_c, 11, 74, 0
27, 597131, Note_on_c, 11, 62, 103
27, 597138, Note_on_c, 11, 74, 103
27, 597146, Note_on_c, 11, 86, 92
27, 597371, Note_on_c, 11, 62, 0
27, 597858, Note_on_c, 11, 74, 0
27, 597866, Note_on_c, 11, 86, 0
27, 598084, Note_on_c, 11, 74, 109
27, 598085, Note_on_c, 11, 62, 111
27, 598107, Note_on_c, 11, 86, 97
27, 598325, Note_on_c, 11, 62, 0
27, 598804, Note_on_c, 11, 74, 0
27, 598827, Note_on_c, 11, 86, 0
27, 599041, Note_on_c, 11, 86, 91
27, 599059, Note_on_c, 11, 74, 101
27, 599060, Note_on_c, 11, 62, 100
27, 599300, Note_on_c, 11, 62, 0
27, 599761, Note_on_c, 11, 86, 0
27, 599779, Note_on_c, 11, 74, 0
27, 600003, Note_on_c, 11, 62, 116
27, 600014, Note_on_c, 11, 74, 124
27, 600023, Note_on_c, 11, 86, 121
27, 600243, Note_on_c, 11, 62, 0
27, 600492, Note_on_c, 11, 84, 120
27, 600494, Note_on_c, 11, 74, 0
27, 600503, Note_on_c, 11, 86, 0
27, 600635, Note_on_c, 11, 84, 0
27, 600737, Note_on_c, 11, 82, 113
27, 600880, Note_on_c, 11, 82, 0
27, 600983, Note_on_c, 11, 80, 115
27, 601126, Note_on_c, 11, 80, 0
27, 601208, Note_on_c, 11, 84, 124
27, 601442, Note_on_c, 11, 62, 113
27, 601448, Note_on_c, 11, 84, 0
27, 601451, Note_on_c, 11, 86, 110
27, 601457, Note_on_c, 11, 74, 104
27, 601562, Note_on_c, 11, 62, 0
27, 601571, Note_on_c, 11, 86, 0
27, 601577, Note_on_c, 11, 74, 0
27, 601693, Note_on_c, 11, 62, 123
27, 601704, Note_on_c, 11, 74, 110
27, 601705, Note_on_c, 11, 66, 110
27, 601746, Note_on_c, 11, 62, 0
27, 601757, Note_on_c, 11, 74, 0
27, 601758, Note_on_c, 11, 66, 0
27, 602161, Note_on_c, 11, 74, 117
27, 602162, Note_on_c, 11, 66, 115
27, 602188, Note_on_c, 11, 62, 105
27, 602214, Note_on_c, 11, 74, 0
27, 602215, Note_on_c, 11, 66, 0
27, 602241, Note_on_c, 11, 62, 0
27, 602405, Note_on_c, 11, 66, 113
27, 602419, Note_on_c, 11, 74, 117
27, 602428, Note_on_c, 11, 62, 105
27, 602458, Note_on_c, 11, 66, 0
27, 602472, Note_on_c, 11, 74, 0
27, 602481, Note_on_c, 11, 62, 0
27, 602763, Note_on_c, 11, 74, 108
27, 602767, Note_on_c, 11, 66, 118
27, 602786, Note_on_c, 11, 62, 104
27, 602816, Note_on_c, 11, 74, 0
27, 602820, Note_on_c, 11, 66, 0
27, 602839, Note_on_c, 11, 62, 0
27, 603136, Note_on_c, 11, 72, 118
27, 603138, Note_on_c, 11, 76, 111
27, 603189, Note_on_c, 11, 72, 0
27, 603191, Note_on_c, 11, 76, 0
27, 603242, Note_on_c, 11, 74, 119
27, 603257, Note_on_c, 11, 73, 113
27, 603295, Note_on_c, 11, 74, 0
27, 603310, Note_on_c, 11, 73, 0
27, 603368, Note_on_c, 11, 69, 112
27, 603376, Note_on_c, 11, 73, 114
27, 603421, Note_on_c, 11, 69, 0
27, 603429, Note_on_c, 11, 73, 0
27, 603606, Note_on_c, 11, 74, 115
27, 603626, Note_on_c, 11, 66, 113
27, 603627, Note_on_c, 11, 62, 116
27, 603659, Note_on_c, 11, 74, 0
27, 603679, Note_on_c, 11, 66, 0
27, 603680, Note_on_c, 11, 62, 0
27, 603843, Note_on_c, 11, 76, 111
27, 603861, Note_on_c, 11, 72, 114
27, 603896, Note_on_c, 11, 76, 0
27, 603914, Note_on_c, 11, 72, 0
27, 603967, Note_on_c, 11, 73, 104
27, 603980, Note_on_c, 11, 74, 114
27, 604020, Note_on_c, 11, 73, 0
27, 604033, Note_on_c, 11, 74, 0
27, 604106, Note_on_c, 11, 73, 113
27, 604106, Note_on_c, 11, 69, 119
27, 604159, Note_on_c, 11, 73, 0
27, 604159, Note_on_c, 11, 69, 0
27, 604686, Note_on_c, 11, 86, 110
27, 604701, Note_on_c, 11, 74, 119
27, 604706, Note_on_c, 11, 62, 116
27, 604926, Note_on_c, 11, 86, 0
27, 604941, Note_on_c, 11, 74, 0
27, 604946, Note_on_c, 11, 62, 0
27, 605164, Note_on_c, 11, 62, 106
27, 605167, Note_on_c, 11, 74, 112
27, 605170, Note_on_c, 11, 86, 119
27, 605404, Note_on_c, 11, 62, 0
27, 605887, Note_on_c, 11, 74, 0
27, 605890, Note_on_c, 11, 86, 0
27, 606125, Note_on_c, 11, 86, 120
27, 606136, Note_on_c, 11, 74, 109
27, 606138, Note_on_c, 11, 62, 110
27, 606378, Note_on_c, 11, 62, 0
27, 606845, Note_on_c, 11, 86, 0
27, 606856, Note_on_c, 11, 74, 0
27, 607091, Note_on_c, 11, 86, 123
27, 607091, Note_on_c, 11, 62, 112
27, 607094, Note_on_c, 11, 74, 106
27, 607331, Note_on_c, 11, 62, 0
27, 607811, Note_on_c, 11, 86, 0
27, 607814, Note_on_c, 11, 74, 0
27, 608041, Note_on_c, 11, 74, 111
27, 608043, Note_on_c, 11, 62, 121
27, 608049, Note_on_c, 11, 86, 124
27, 608283, Note_on_c, 11, 62, 0
27, 608761, Note_on_c, 11, 74, 0
27, 608769, Note_on_c, 11, 86, 0
27, 609006, Note_on_c, 11, 84, 117
27, 609126, Note_on_c, 11, 84, 0
27, 609244, Note_on_c, 11, 82, 109
27, 609364, Note_on_c, 11, 82, 0
27, 609497, Note_on_c, 11, 80, 124
27, 609617, Note_on_c, 11, 80, 0
27, 609732, Note_on_c, 11, 84, 112
27, 609852, Note_on_c, 11, 84, 0
27, 609960, Note_on_c, 11, 86, 123
27, 610680, Note_on_c, 11, 86, 0
27, 610934, Note_on_c, 11, 74, 116
27, 610939, Note_on_c, 11, 62, 113
27, 610946, Note_on_c, 11, 86, 108
27, 611179, Note_on_c, 11, 62, 0
27, 611666, Note_on_c, 11, 86, 0
27, 611894, Note_on_c, 11, 74, 0
27, 611901, Note_on_c, 11, 84, 105
27, 612021, Note_on_c, 11, 84, 0
27, 612126, Note_on_c, 11, 82, 113
27, 612246, Note_on_c, 11, 82, 0
27, 612377, Note_on_c, 11, 80, 106
27, 612497, Note_on_c, 11, 80, 0
27, 612624, Note_on_c, 11, 84, 119
27, 612744, Note_on_c, 11, 84, 0
27, 612868, Note_on_c, 11, 86, 106
27, 613588, Note_on_c, 11, 86, 0
27, 613806, Note_on_c, 11, 62, 107
27, 613807, Note_on_c, 11, 74, 111
27, 613820, Note_on_c, 11, 86, 120
27, 614046, Note_on_c, 11, 62, 0
27, 614047, Note_on_c, 11, 74, 0
27, 614060, Note_on_c, 11, 86, 0
27, 614281, Note_on_c, 11, 84, 109
27, 614401, Note_on_c, 11, 84, 0
27, 614543, Note_on_c, 11, 82, 119
27, 614663, Note_on_c, 11, 82, 0
27, 614787, Note_on_c, 11, 80, 122
27, 614907, Note_on_c, 11, 80, 0
27, 615024, Note_on_c, 11, 84, 113
27, 615144, Note_on_c, 11, 84, 0
27, 615251, Note_on_c, 11, 86, 108
27, 615491, Note_on_c, 11, 86, 0
27, 615722, Note_on_c, 11, 86, 110
27, 615740, Note_on_c, 11, 74, 113
27, 615749, Note_on_c, 11, 62, 110
27, 615989, Note_on_c, 11, 62, 0
27, 616442, Note_on_c, 11, 86, 0
27, 616460, Note_on_c, 11, 74, 0
27, 616704, Note_on_c, 11, 88, 109
27, 616824, Note_on_c, 11, 88, 0
27, 616921, Note_on_c, 11, 86, 109
27, 617041, Note_on_c, 11, 86, 0
27, 617181, Note_on_c, 11, 88, 121
27, 617421, Note_on_c, 11, 88, 0
27, 617662, Note_on_c, 11, 90, 120
27, 617902, Note_on_c, 11, 90, 0
27, 618120, Note_on_c, 11, 91, 109
27, 618360, Note_on_c, 11, 91, 0
27, 618602, Note_on_c, 11, 91, 118
27, 618842, Note_on_c, 11, 91, 0
27, 619100, Note_on_c, 11, 91, 111
27, 619340, Note_on_c, 11, 91, 0
27, 619580, Note_on_c, 11, 89, 120
27, 619700, Note_on_c, 11, 89, 0
27, 619810, Note_on_c, 11, 87, 111
27, 619930, Note_on_c, 11, 87, 0
27, 620051, Note_on_c, 11, 85, 114
27, 620171, Note_on_c, 11, 85, 0
27, 620304, Note_on_c, 11, 89, 119
27, 620424, Note_on_c, 11, 89, 0
27, 620539, Note_on_c, 11, 91, 110
27, 620779, Note_on_c, 11, 91, 0
27, 621019, Note_on_c, 11, 91, 123
27, 621259, Note_on_c, 11, 91, 0
27, 621480, Note_on_c, 11, 91, 115
27, 621720, Note_on_c, 11, 91, 0
27, 621975, Note_on_c, 11, 91, 106
27, 622215, Note_on_c, 11, 91, 0
27, 622451, Note_on_c, 11, 89, 114
27, 622571, Note_on_c, 11, 89, 0
27, 622682, Note_on_c, 11, 87, 117
27, 622802, Note_on_c, 11, 87, 0
27, 622938, Note_on_c, 11, 85, 107
27, 623058, Note_on_c, 11, 85, 0
27, 623188, Note_on_c, 11, 89, 116
27, 623308, Note_on_c, 11, 89, 0
27, 623421, Note_on_c, 11, 91, 117
27, 623661, Note_on_c, 11, 91, 0
27, 623906, Note_on_c, 11, 91, 114
27, 624146, Note_on_c, 11, 91, 0
27, 624365, Note_on_c, 11, 89, 115
27, 624485, Note_on_c, 11, 89, 0
27, 624621, Note_on_c, 11, 87, 114
27, 624741, Note_on_c, 11, 87, 0
27, 624864, Note_on_c, 11, 85, 123
27, 624984, Note_on_c, 11, 85, 0
27, 625081, Note_on_c, 11, 89, 119
27, 625201, Note_on_c, 11, 89, 0
27, 625326, Note_on_c, 11, 91, 120
27, 625566, Note_on_c, 11, 91, 0
27, 625829, Note_on_c, 11, 91, 105
27, 626069, Note_on_c, 11, 91, 0
27, 626305, Note_on_c, 11, 91, 119
27, 626545, Note_on_c, 11, 91, 0
27, 626779, Note_on_c, 11, 89, 121
27, 626899, Note_on_c, 11, 89, 0
27, 627004, Note_on_c, 11, 87, 113
27, 627124, Note_on_c, 11, 87, 0
27, 627249, Note_on_c, 11, 85, 106
27, 627369, Note_on_c, 11, 85, 0
27, 627495, Note_on_c, 11, 89, 109
27, 627615, Note_on_c, 11, 89, 0
27, 627748, Note_on_c, 11, 91, 111
27, 627868, Note_on_c, 11, 91, 0
27, 628451, Note_on_c, 11, 55, 83
27, 628511, Note_on_c, 11, 55, 0
27, 628580, Note_on_c, 11, 56, 97
27, 628640, Note_on_c, 11, 56, 0
27, 629187, Note_on_c, 11, 55, 94
27, 629247, Note_on_c, 11, 55, 0
27, 629292, Note_on_c, 11, 56, 97
27, 629352, Note_on_c, 11, 56, 0
27, 630240, Note_on_c, 11, 55, 89
27, 630300, Note_on_c, 11, 55, 0
27, 630378, Note_on_c, 11, 56, 95
27, 630438, Note_on_c, 11, 56, 0
27, 631339, Note_on_c, 11, 55, 92
27, 631399, Note_on_c, 11, 55, 0
27, 631451, Note_on_c, 11, 56, 78
27, 631511, Note_on_c, 11, 56, 0
27, 632065, Note_on_c, 11, 55, 92
27, 632125, Note_on_c, 11, 55, 0
27, 632180, Note_on_c, 11, 56, 88
27, 632240, Note_on_c, 11, 56, 0
27, 633129, Note_on_c, 11, 69, 90
27, 633142, Note_on_c, 11, 67, 88
27, 633147, Note_on_c, 11, 57, 94
27, 633189, Note_on_c, 11, 69, 0
27, 633202, Note_on_c, 11, 67, 0
27, 633207, Note_on_c, 11, 57, 0
27, 633379, Note_on_c, 11, 69, 89
27, 633387, Note_on_c, 11, 67, 80
27, 633387, Note_on_c, 11, 57, 81
27, 633439, Note_on_c, 11, 69, 0
27, 633447, Note_on_c, 11, 67, 0
27, 633447, Note_on_c, 11, 57, 0
27, 633724, Note_on_c, 11, 67, 80
27, 633724, Note_on_c, 11, 71, 92
27, 633784, Note_on_c, 11, 67, 0
27, 633784, Note_on_c, 11, 71, 0
27, 633862, Note_on_c, 11, 56, 92
27, 633867, Note_on_c, 11, 68, 94
27, 633922, Note_on_c, 11, 56, 0
27, 633927, Note_on_c, 11, 68, 0
27, 633960, Note_on_c, 11, 67, 84
27, 633968, Note_on_c, 11, 57, 95
27, 634020, Note_on_c, 11, 67, 0
27, 634028, Note_on_c, 11, 57, 0
27, 634810, Note_on_c, 11, 67, 83
27, 634817, Note_on_c, 11, 57, 88
27, 634818, Note_on_c, 11, 69, 95
27, 634870, Note_on_c, 11, 67, 0
27, 634877, Note_on_c, 11, 57, 0
27, 634878, Note_on_c, 11, 69, 0
27, 635060, Note_on_c, 11, 67, 94
27, 635062, Note_on_c, 11, 69, 92
27, 635067, Note_on_c, 11, 57, 92
27, 635120, Note_on_c, 11, 67, 0
27, 635122, Note_on_c, 11, 69, 0
27, 635127, Note_on_c, 11, 57, 0
27, 636005, Note_on_c, 11, 73, 82
27, 636020, Note_on_c, 11, 64, 92
27, 636024, Note_on_c, 11, 81, 94
27, 636065, Note_on_c, 11, 73, 0
27, 636080, Note_on_c, 11, 64, 0
27, 636084, Note_on_c, 11, 81, 0
27, 636246, Note_on_c, 11, 64, 79
27, 636252, Note_on_c, 11, 81, 81
27, 636255, Note_on_c, 11, 73, 96
27, 636306, Note_on_c, 11, 64, 0
27, 636312, Note_on_c, 11, 81, 0
27, 636315, Note_on_c, 11, 73, 0
27, 636620, Note_on_c, 11, 83, 87
27, 636673, Note_on_c, 11, 83, 0
27, 636733, Note_on_c, 11, 80, 89
27, 636786, Note_on_c, 11, 80, 0
27, 636845, Note_on_c, 11, 79, 89
27, 636898, Note_on_c, 11, 79, 0
27, 637083, Note_on_c, 11, 81, 80
27, 637085, Note_on_c, 11, 73, 90
27, 637100, Note_on_c, 11, 64, 85
27, 637143, Note_on_c, 11, 81, 0
27, 637145, Note_on_c, 11, 73, 0
27, 637160, Note_on_c, 11, 64, 0
27, 637335, Note_on_c, 11, 81, 79
27, 637339, Note_on_c, 11, 73, 95
27, 637341, Note_on_c, 11, 64, 96
27, 637395, Note_on_c, 11, 81, 0
27, 637399, Note_on_c, 11, 73, 0
27, 637401, Note_on_c, 11, 64, 0
27, 637697, Note_on_c, 11, 83, 82
27, 637750, Note_on_c, 11, 83, 0
27, 637815, Note_on_c, 11, 80, 79
27, 637868, Note_on_c, 11, 80, 0
27, 637925, Note_on_c, 11, 79, 96
27, 637978, Note_on_c, 11, 79, 0
27, 638164, Note_on_c, 11, 64, 82
27, 638169, Note_on_c, 11, 73, 93
27, 638179, Note_on_c, 11, 81, 87
27, 638224, Note_on_c, 11, 64, 0
27, 638229, Note_on_c, 11, 73, 0
27, 638239, Note_on_c, 11, 81, 0
27, 638401, Note_on_c, 11, 73, 96
27, 638415, Note_on_c, 11, 64, 81
27, 638415, Note_on_c, 11, 81, 84
27, 638461, Note_on_c, 11, 73, 0
27, 638475, Note_on_c, 11, 64, 0
27, 638475, Note_on_c, 11, 81, 0
27, 638768, Note_on_c, 11, 83, 81
27, 638821, Note_on_c, 11, 83, 0
27, 638893, Note_on_c, 11, 80, 78
27, 638946, Note_on_c, 11, 80, 0
27, 639027, Note_on_c, 11, 79, 82
27, 639080, Note_on_c, 11, 79, 0
27, 639248, Note_on_c, 11, 64, 79
27, 639254, Note_on_c, 11, 73, 82
27, 639258, Note_on_c, 11, 81, 80
27, 639308, Note_on_c, 11, 64, 0
27, 639314, Note_on_c, 11, 73, 0
27, 639318, Note_on_c, 11, 81, 0
27, 639504, Note_on_c, 11, 83, 94
27, 639557, Note_on_c, 11, 83, 0
27, 639622, Note_on_c, 11, 80, 92
27, 639675, Note_on_c, 11, 80, 0
27, 639726, Note_on_c, 11, 79, 92
27, 639779, Note_on_c, 11, 79, 0
27, 639982, Note_on_c, 11, 77, 96
27, 639982, Note_on_c, 11, 84, 110
27, 639987, Note_on_c, 11, 70, 92
27, 640042, Note_on_c, 11, 77, 0
27, 640042, Note_on_c, 11, 84, 0
27, 640047, Note_on_c, 11, 70, 0
27, 640096, Note_on_c, 11, 88, 107
27, 640106, Note_on_c, 11, 73, 110
27, 640107, Note_on_c, 11, 82, 95
27, 640156, Note_on_c, 11, 88, 0
27, 640166, Note_on_c, 11, 73, 0
27, 640167, Note_on_c, 11, 82, 0
27, 640339, Note_on_c, 11, 73, 98
27, 640342, Note_on_c, 11, 64, 86
27, 640345, Note_on_c, 11, 76, 86
27, 640399, Note_on_c, 11, 73, 0
27, 640402, Note_on_c, 11, 64, 0
27, 640405, Note_on_c, 11, 76, 0
27, 641165, Note_on_c, 11, 79, 111
27, 641167, Note_on_c, 11, 65, 102
27, 641180, Note_on_c, 11, 73, 99
27, 641225, Note_on_c, 11, 79, 0
27, 641227, Note_on_c, 11, 65, 0
27, 641240, Note_on_c, 11, 73, 0
27, 641281, Note_on_c, 11, 84, 101
27, 641291, Note_on_c, 11, 77, 96
27, 641295, Note_on_c, 11, 70, 107
27, 641341, Note_on_c, 11, 84, 0
27, 641351, Note_on_c, 11, 77, 0
27, 641355, Note_on_c, 11, 70, 0
27, 641406, Note_on_c, 11, 73, 98
27, 641412, Note_on_c, 11, 82, 92
27, 641428, Note_on_c, 11, 88, 97
27, 641466, Note_on_c, 11, 73, 0
27, 641472, Note_on_c, 11, 82, 0
27, 641488, Note_on_c, 11, 88, 0
27, 641646, Note_on_c, 11, 64, 81
27, 641655, Note_on_c, 11, 73, 87
27, 641662, Note_on_c, 11, 76, 83
27, 641706, Note_on_c, 11, 64, 0
27, 641715, Note_on_c, 11, 73, 0
27, 641722, Note_on_c, 11, 76, 0
27, 645363, Note_on_c, 11, 70, 103
27, 645366, Note_on_c, 11, 77, 108
27, 645385, Note_on_c, 11, 84, 94
27, 645423, Note_on_c, 11, 70, 0
27, 645426, Note_on_c, 11, 77, 0
27, 645445, Note_on_c, 11, 84, 0
27, 645481, Note_on_c, 11, 73, 102
27, 645485, Note_on_c, 11, 88, 97
27, 645490, Note_on_c, 11, 82, 94
27, 645541, Note_on_c, 11, 73, 0
27, 645545, Note_on_c, 11, 88, 0
27, 645550, Note_on_c, 11, 82, 0
27, 645733, Note_on_c, 11, 76, 92
27, 645738, Note_on_c, 11, 73, 82
27, 645745, Note_on_c, 11, 64, 78
27, 645793, Note_on_c, 11, 76, 0
27, 645798, Note_on_c, 11, 73, 0
27, 645805, Note_on_c, 11, 64, 0
27, 646682, Note_on_c, 11, 84, 94
27, 646689, Note_on_c, 11, 70, 93
27, 646692, Note_on_c, 11, 77, 99
27, 646742, Note_on_c, 11, 84, 0
27, 646749, Note_on_c, 11, 70, 0
27, 646752, Note_on_c, 11, 77, 0
27, 646802, Note_on_c, 11, 88, 101
27, 646819, Note_on_c, 11, 73, 107
27, 646823, Note_on_c, 11, 82, 105
27, 646862, Note_on_c, 11, 88, 0
27, 646879, Note_on_c, 11, 73, 0
27, 646883, Note_on_c, 11, 82, 0
27, 647051, Note_on_c, 11, 73, 79
27, 647063, Note_on_c, 11, 64, 82
27, 647065, Note_on_c, 11, 76, 87
27, 647111, Note_on_c, 11, 73, 0
27, 647123, Note_on_c, 11, 64, 0
27, 647125, Note_on_c, 11, 76, 0
27, 647289, Note_on_c, 11, 65, 108
27, 647301, Note_on_c, 11, 79, 97
27, 647308, Note_on_c, 11, 73, 110
27, 647349, Note_on_c, 11, 65, 0
27, 647361, Note_on_c, 11, 79, 0
27, 647368, Note_on_c, 11, 73, 0
27, 647420, Note_on_c, 11, 77, 91
27, 647421, Note_on_c, 11, 84, 91
27, 647427, Note_on_c, 11, 70, 101
27, 647480, Note_on_c, 11, 77, 0
27, 647481, Note_on_c, 11, 84, 0
27, 647487, Note_on_c, 11, 70, 0
27, 647523, Note_on_c, 11, 82, 92
27, 647525, Note_on_c, 11, 73, 99
27, 647545, Note_on_c, 11, 88, 104
27, 647583, Note_on_c, 11, 82, 0
27, 647585, Note_on_c, 11, 73, 0
27, 647605, Note_on_c, 11, 88, 0
27, 647770, Note_on_c, 11, 64, 98
27, 647773, Note_on_c, 11, 76, 85
27, 647789, Note_on_c, 11, 73, 96
27, 647830, Note_on_c, 11, 64, 0
27, 647833, Note_on_c, 11, 76, 0
27, 647849, Note_on_c, 11, 73, 0
27, 648007, Note_on_c, 11, 70, 94
27, 648011, Note_on_c, 11, 84, 96
27, 648014, Note_on_c, 11, 77, 105
27, 648067, Note_on_c, 11, 70, 0
27, 648071, Note_on_c, 11, 84, 0
27, 648074, Note_on_c, 11, 77, 0
27, 648132, Note_on_c, 11, 82, 108
27, 648138, Note_on_c, 11, 73, 108
27, 648146, Note_on_c, 11, 88, 92
27, 648192, Note_on_c, 11, 82, 0
27, 648198, Note_on_c, 11, 73, 0
27, 648206, Note_on_c, 11, 88, 0
27, 648363, Note_on_c, 11, 89, 111
27, 648375, Note_on_c, 11, 82, 99
27, 648381, Note_on_c, 11, 84, 97
27, 648423, Note_on_c, 11, 89, 0
27, 648435, Note_on_c, 11, 82, 0
27, 648441, Note_on_c, 11, 84, 0
27, 648603, Note_on_c, 11, 64, 89
27, 648609, Note_on_c, 11, 73, 96
27, 648612, Note_on_c, 11, 76, 89
27, 648663, Note_on_c, 11, 64, 0
27, 648669, Note_on_c, 11, 73, 0
27, 648672, Note_on_c, 11, 76, 0
27, 648843, Note_on_c, 11, 65, 106
27, 648851, Note_on_c, 11, 73, 106
27, 648854, Note_on_c, 11, 79, 110
27, 648903, Note_on_c, 11, 65, 0
27, 648911, Note_on_c, 11, 73, 0
27, 648914, Note_on_c, 11, 79, 0
27, 648971, Note_on_c, 11, 84, 94
27, 648972, Note_on_c, 11, 70, 99
27, 648973, Note_on_c, 11, 77, 101
27, 649031, Note_on_c, 11, 84, 0
27, 649032, Note_on_c, 11, 70, 0
27, 649033, Note_on_c, 11, 77, 0
27, 649081, Note_on_c, 11, 82, 101
27, 649085, Note_on_c, 11, 88, 97
27, 649104, Note_on_c, 11, 73, 93
27, 649141, Note_on_c, 11, 82, 0
27, 649145, Note_on_c, 11, 88, 0
27, 649164, Note_on_c, 11, 73, 0
27, 649336, Note_on_c, 11, 84, 95
27, 649339, Note_on_c, 11, 89, 100
27, 649343, Note_on_c, 11, 82, 107
27, 649396, Note_on_c, 11, 84, 0
27, 649399, Note_on_c, 11, 89, 0
27, 649403, Note_on_c, 11, 82, 0
27, 649564, Note_on_c, 11, 64, 97
27, 649573, Note_on_c, 11, 76, 92
27, 649581, Note_on_c, 11, 73, 89
27, 649624, Note_on_c, 11, 64, 0
27, 649633, Note_on_c, 11, 76, 0
27, 649641, Note_on_c, 11, 73, 0
27, 649810, Note_on_c, 11, 84, 93
27, 649811, Note_on_c, 11, 70, 109
27, 649823, Note_on_c, 11, 77, 94
27, 649870, Note_on_c, 11, 84, 0
27, 649871, Note_on_c, 11, 70, 0
27, 649883, Note_on_c, 11, 77, 0
27, 649925, Note_on_c, 11, 88, 104
27, 649938, Note_on_c, 11, 82, 110
27, 649940, Note_on_c, 11, 73, 98
27, 649985, Note_on_c, 11, 88, 0
27, 649998, Note_on_c, 11, 82, 0
27, 650000, Note_on_c, 11, 73, 0
27, 650165, Note_on_c, 11, 64, 87
27, 650176, Note_on_c, 11, 76, 95
27, 650182, Note_on_c, 11, 73, 90
27, 650225, Note_on_c, 11, 64, 0
27, 650236, Note_on_c, 11, 76, 0
27, 650242, Note_on_c, 11, 73, 0
27, 650403, Note_on_c, 11, 65, 101
27, 650421, Note_on_c, 11, 79, 95
27, 650423, Note_on_c, 11, 73, 95
27, 650463, Note_on_c, 11, 65, 0
27, 650481, Note_on_c, 11, 79, 0
27, 650483, Note_on_c, 11, 73, 0
27, 650522, Note_on_c, 11, 77, 92
27, 650538, Note_on_c, 11, 84, 98
27, 650542, Note_on_c, 11, 70, 96
27, 650582, Note_on_c, 11, 77, 0
27, 650598, Note_on_c, 11, 84, 0
27, 650602, Note_on_c, 11, 70, 0
27, 650643, Note_on_c, 11, 82, 97
27, 650655, Note_on_c, 11, 73, 95
27, 650656, Note_on_c, 11, 88, 94
27, 650703, Note_on_c, 11, 82, 0
27, 650715, Note_on_c, 11, 73, 0
27, 650716, Note_on_c, 11, 88, 0
27, 650895, Note_on_c, 11, 84, 111
27, 650896, Note_on_c, 11, 82, 91
27, 650897, Note_on_c, 11, 89, 106
27, 650955, Note_on_c, 11, 84, 0
27, 650956, Note_on_c, 11, 82, 0
27, 650957, Note_on_c, 11, 89, 0
27, 651122, Note_on_c, 11, 76, 93
27, 651133, Note_on_c, 11, 73, 96
27, 651147, Note_on_c, 11, 64, 88
27, 651182, Note_on_c, 11, 76, 0
27, 651193, Note_on_c, 11, 73, 0
27, 651207, Note_on_c, 11, 64, 0
27, 651372, Note_on_c, 11, 65, 107
27, 651375, Note_on_c, 11, 79, 96
27, 651382, Note_on_c, 11, 73, 107
27, 651432, Note_on_c, 11, 65, 0
27, 651435, Note_on_c, 11, 79, 0
27, 651442, Note_on_c, 11, 73, 0
27, 651485, Note_on_c, 11, 77, 99
27, 651491, Note_on_c, 11, 70, 111
27, 651492, Note_on_c, 11, 84, 93
27, 651545, Note_on_c, 11, 77, 0
27, 651551, Note_on_c, 11, 70, 0
27, 651552, Note_on_c, 11, 84, 0
27, 651603, Note_on_c, 11, 88, 102
27, 651622, Note_on_c, 11, 82, 110
27, 651624, Note_on_c, 11, 73, 104
27, 651663, Note_on_c, 11, 88, 0
27, 651682, Note_on_c, 11, 82, 0
27, 651684, Note_on_c, 11, 73, 0
27, 651842, Note_on_c, 11, 89, 104
27, 651851, Note_on_c, 11, 84, 92
27, 651857, Note_on_c, 11, 82, 106
27, 651902, Note_on_c, 11, 89, 0
27, 651911, Note_on_c, 11, 84, 0
27, 651917, Note_on_c, 11, 82, 0
27, 652084, Note_on_c, 11, 65, 106
27, 652097, Note_on_c, 11, 73, 111
27, 652102, Note_on_c, 11, 79, 109
27, 652144, Note_on_c, 11, 65, 0
27, 652157, Note_on_c, 11, 73, 0
27, 652162, Note_on_c, 11, 79, 0
27, 652205, Note_on_c, 11, 84, 110
27, 652212, Note_on_c, 11, 77, 95
27, 652225, Note_on_c, 11, 70, 98
27, 652265, Note_on_c, 11, 84, 0
27, 652272, Note_on_c, 11, 77, 0
27, 652285, Note_on_c, 11, 70, 0
27, 652323, Note_on_c, 11, 73, 109
27, 652344, Note_on_c, 11, 88, 102
27, 652348, Note_on_c, 11, 82, 111
27, 652383, Note_on_c, 11, 73, 0
27, 652404, Note_on_c, 11, 88, 0
27, 652408, Note_on_c, 11, 82, 0
27, 652564, Note_on_c, 11, 89, 93
27, 652580, Note_on_c, 11, 82, 94
27, 652585, Note_on_c, 11, 84, 98
27, 652624, Note_on_c, 11, 89, 0
27, 652640, Note_on_c, 11, 82, 0
27, 652645, Note_on_c, 11, 84, 0
27, 652801, Note_on_c, 11, 64, 94
27, 652819, Note_on_c, 11, 76, 87
27, 652820, Note_on_c, 11, 73, 93
27, 652861, Note_on_c, 11, 64, 0
27, 652879, Note_on_c, 11, 76, 0
27, 652880, Note_on_c, 11, 73, 0
27, 653050, Note_on_c, 11, 79, 94
27, 653051, Note_on_c, 11, 65, 110
27, 653052, Note_on_c, 11, 73, 110
27, 653110, Note_on_c, 11, 79, 0
27, 653111, Note_on_c, 11, 65, 0
27, 653112, Note_on_c, 11, 73, 0
27, 653167, Note_on_c, 11, 77, 111
27, 653180, Note_on_c, 11, 84, 109
27, 653183, Note_on_c, 11, 70, 108
27, 653227, Note_on_c, 11, 77, 0
27, 653240, Note_on_c, 11, 84, 0
27, 653243, Note_on_c, 11, 70, 0
27, 653285, Note_on_c, 11, 88, 106
27, 653294, Note_on_c, 11, 82, 97
27, 653303, Note_on_c, 11, 73, 100
27, 653345, Note_on_c, 11, 88, 0
27, 653354, Note_on_c, 11, 82, 0
27, 653363, Note_on_c, 11, 73, 0
27, 653530, Note_on_c, 11, 89, 100
27, 653532, Note_on_c, 11, 84, 99
27, 653542, Note_on_c, 11, 82, 95
27, 653590, Note_on_c, 11, 89, 0
27, 653592, Note_on_c, 11, 84, 0
27, 653602, Note_on_c, 11, 82, 0
27, 653774, Note_on_c, 11, 65, 99
27, 653780, Note_on_c, 11, 79, 95
27, 653789, Note_on_c, 11, 73, 100
27, 653834, Note_on_c, 11, 65, 0
27, 653840, Note_on_c, 11, 79, 0
27, 653849, Note_on_c, 11, 73, 0
27, 653886, Note_on_c, 11, 77, 98
27, 653890, Note_on_c, 11, 84, 97
27, 653899, Note_on_c, 11, 70, 97
27, 653946, Note_on_c, 11, 77, 0
27, 653950, Note_on_c, 11, 84, 0
27, 653959, Note_on_c, 11, 70, 0
27, 654006, Note_on_c, 11, 82, 98
27, 654011, Note_on_c, 11, 88, 92
27, 654023, Note_on_c, 11, 73, 103
27, 654066, Note_on_c, 11, 82, 0
27, 654071, Note_on_c, 11, 88, 0
27, 654083, Note_on_c, 11, 73, 0
27, 654244, Note_on_c, 11, 84, 96
27, 654246, Note_on_c, 11, 82, 91
27, 654268, Note_on_c, 11, 89, 99
27, 654304, Note_on_c, 11, 84, 0
27, 654306, Note_on_c, 11, 82, 0
27, 654328, Note_on_c, 11, 89, 0
27, 654480, Note_on_c, 11, 76, 88
27, 654480, Note_on_c, 11, 64, 89
27, 654498, Note_on_c, 11, 73, 86
27, 654540, Note_on_c, 11, 76, 0
27, 654540, Note_on_c, 11, 64, 0
27, 654558, Note_on_c, 11, 73, 0
27, 654721, Note_on_c, 11, 73, 91
27, 654737, Note_on_c, 11, 79, 91
27, 654747, Note_on_c, 11, 65, 111
27, 654781, Note_on_c, 11, 73, 0
27, 654797, Note_on_c, 11, 79, 0
27, 654807, Note_on_c, 11, 65, 0
27, 654840, Note_on_c, 11, 84, 104
27, 654843, Note_on_c, 11, 70, 110
27, 654853, Note_on_c, 11, 77, 93
27, 654900, Note_on_c, 11, 84, 0
27, 654903, Note_on_c, 11, 70, 0
27, 654913, Note_on_c, 11, 77, 0
27, 654963, Note_on_c, 11, 82, 92
27, 654973, Note_on_c, 11, 88, 100
27, 654986, Note_on_c, 11, 73, 92
27, 655023, Note_on_c, 11, 82, 0
27, 655033, Note_on_c, 11, 88, 0
27, 655046, Note_on_c, 11, 73, 0
27, 655098, Note_on_c, 11, 84, 95
27, 655100, Note_on_c, 11, 82, 104
27, 655106, Note_on_c, 11, 89, 102
27, 655158, Note_on_c, 11, 84, 0
27, 655160, Note_on_c, 11, 82, 0
27, 655166, Note_on_c, 11, 89, 0
27, 655320, Program_c, 11, 44
27, 655333, Note_on_c, 11, 90, 50
27, 655345, Note_on_c, 11, 79, 42
27, 656173, Note_on_c, 11, 90, 0
27, 656185, Note_on_c, 11, 79, 0
27, 657600, Program_c, 11, 48
27, 657890, Note_on_c, 11, 55, 121
27, 657903, Note_on_c, 11, 62, 120
27, 657920, Note_on_c, 11, 55, 0
27, 657933, Note_on_c, 11, 62, 0
27, 657950, Note_on_c, 11, 69, 121
27, 657967, Note_on_c, 11, 93, 122
27, 657980, Note_on_c, 11, 69, 0
27, 658027, Note_on_c, 11, 93, 0
27, 658027, End_track
28, 0, Start_track
28, 0, Title_t, "Violini Ib"
28, 0, MIDI_port, 0
28, 0, Program_c, 11, 48
28, 0, Control_c, 11, 11, 127
28, 8659, Note_on_c, 11, 69, 63
28, 9124, Note_on_c, 11, 77, 62
28, 9127, Note_on_c, 11, 70, 61
28, 9139, Note_on_c, 11, 69, 0
28, 9171, Note_on_c, 11, 77, 0
28, 9174, Note_on_c, 11, 70, 0
28, 9610, Note_on_c, 11, 69, 72
28, 10090, Note_on_c, 11, 69, 0
28, 10094, Note_on_c, 11, 82, 68
28, 10099, Note_on_c, 11, 70, 66
28, 10141, Note_on_c, 11, 82, 0
28, 10146, Note_on_c, 11, 70, 0
28, 10587, Note_on_c, 11, 82, 72
28, 10823, Note_on_c, 11, 83, 60
28, 10827, Note_on_c, 11, 82, 0
28, 11063, Note_on_c, 11, 83, 0
28, 11066, Note_on_c, 11, 80, 56
28, 11306, Note_on_c, 11, 80, 0
28, 11306, Note_on_c, 11, 78, 64
28, 11544, Note_on_c, 11, 82, 62
28, 11546, Note_on_c, 11, 78, 0
28, 11767, Note_on_c, 11, 81, 38
28, 11784, Note_on_c, 11, 82, 0
28, 12007, Note_on_c, 11, 81, 0
28, 15377, Note_on_c, 11, 82, 72
28, 15617, Note_on_c, 11, 82, 0
28, 15617, Note_on_c, 11, 83, 78
28, 15857, Note_on_c, 11, 83, 0
28, 15861, Note_on_c, 11, 80, 79
28, 16093, Note_on_c, 11, 78, 68
28, 16101, Note_on_c, 11, 80, 0
28, 16333, Note_on_c, 11, 78, 0
28, 16336, Note_on_c, 11, 82, 82
28, 16563, Note_on_c, 11, 81, 65
28, 16576, Note_on_c, 11, 82, 0
28, 16803, Note_on_c, 11, 81, 0
28, 19686, Note_on_c, 11, 82, 70
28, 19926, Note_on_c, 11, 82, 0
28, 19946, Note_on_c, 11, 84, 67
28, 20185, Note_on_c, 11, 80, 74
28, 20186, Note_on_c, 11, 84, 0
28, 20403, Note_on_c, 11, 78, 71
28, 20425, Note_on_c, 11, 80, 0
28, 20641, Note_on_c, 11, 83, 78
28, 20643, Note_on_c, 11, 78, 0
28, 20881, Note_on_c, 11, 83, 0
28, 20881, Note_on_c, 11, 81, 77
28, 21120, Control_c, 11, 11, 64
28, 21121, Note_on_c, 11, 81, 0
28, 21122, Note_on_c, 11, 93, 48
28, 21135, Control_c, 11, 11, 65
28, 21150, Control_c, 11, 11, 66
28, 21165, Control_c, 11, 11, 67
28, 21180, Control_c, 11, 11, 68
28, 21196, Control_c, 11, 11, 69
28, 21211, Control_c, 11, 11, 70
28, 21226, Control_c, 11, 11, 71
28, 21241, Control_c, 11, 11, 72
28, 21257, Control_c, 11, 11, 73
28, 21272, Control_c, 11, 11, 74
28, 21287, Control_c, 11, 11, 75
28, 21302, Control_c, 11, 11, 76
28, 21318, Control_c, 11, 11, 77
28, 21333, Control_c, 11, 11, 78
28, 21348, Control_c, 11, 11, 79
28, 21363, Control_c, 11, 11, 80
28, 21379, Control_c, 11, 11, 81
28, 21394, Control_c, 11, 11, 82
28, 21409, Control_c, 11, 11, 83
28, 21424, Control_c, 11, 11, 84
28, 21440, Control_c, 11, 11, 85
28, 21455, Control_c, 11, 11, 86
28, 21470, Control_c, 11, 11, 87
28, 21485, Control_c, 11, 11, 88
28, 21500, Control_c, 11, 11, 89
28, 21516, Control_c, 11, 11, 90
28, 21531, Control_c, 11, 11, 91
28, 21546, Control_c, 11, 11, 92
28, 21561, Control_c, 11, 11, 93
28, 21577, Control_c, 11, 11, 94
28, 21592, Control_c, 11, 11, 95
28, 21607, Control_c, 11, 11, 96
28, 21622, Control_c, 11, 11, 97
28, 21638, Control_c, 11, 11, 98
28, 21653, Control_c, 11, 11, 99
28, 21668, Control_c, 11, 11, 100
28, 21683, Control_c, 11, 11, 101
28, 21699, Control_c, 11, 11, 102
28, 21714, Control_c, 11, 11, 103
28, 21729, Control_c, 11, 11, 104
28, 21744, Control_c, 11, 11, 105
28, 21760, Control_c, 11, 11, 106
28, 21775, Control_c, 11, 11, 107
28, 21790, Control_c, 11, 11, 108
28, 21805, Control_c, 11, 11, 109
28, 21820, Control_c, 11, 11, 110
28, 21836, Control_c, 11, 11, 111
28, 21851, Control_c, 11, 11, 112
28, 21866, Control_c, 11, 11, 113
28, 21881, Control_c, 11, 11, 114
28, 21897, Control_c, 11, 11, 115
28, 21912, Control_c, 11, 11, 116
28, 21927, Control_c, 11, 11, 117
28, 21942, Control_c, 11, 11, 118
28, 21958, Control_c, 11, 11, 119
28, 21973, Control_c, 11, 11, 120
28, 21988, Control_c, 11, 11, 121
28, 22003, Control_c, 11, 11, 122
28, 22019, Control_c, 11, 11, 123
28, 22034, Control_c, 11, 11, 124
28, 22049, Control_c, 11, 11, 125
28, 22064, Control_c, 11, 11, 126
28, 22080, Control_c, 11, 11, 127
28, 22559, Note_on_c, 11, 93, 0
28, 22582, Note_on_c, 11, 91, 57
28, 23999, Note_on_c, 11, 91, 0
28, 24001, Note_on_c, 11, 89, 42
28, 25439, Note_on_c, 11, 89, 0
28, 25445, Note_on_c, 11, 88, 45
28, 26879, Note_on_c, 11, 88, 0
28, 26902, Note_on_c, 11, 86, 45
28, 28198, Note_on_c, 11, 86, 0
28, 64154, Control_c, 10, 7, 92
28, 64301, Control_c, 10, 91, 127
28, 65520, Program_c, 10, 45
28, 65523, Note_on_c, 10, 60, 45
28, 65603, Note_on_c, 10, 60, 0
28, 65609, Note_on_c, 10, 64, 50
28, 65688, Note_on_c, 10, 64, 0
28, 65695, Note_on_c, 10, 72, 50
28, 65772, Note_on_c, 10, 79, 55
28, 65775, Note_on_c, 10, 72, 0
28, 65892, Note_on_c, 10, 79, 0
28, 67928, Note_on_c, 10, 60, 52
28, 68008, Note_on_c, 10, 60, 0
28, 68008, Note_on_c, 10, 64, 54
28, 68087, Note_on_c, 10, 64, 0
28, 68088, Note_on_c, 10, 72, 47
28, 68168, Note_on_c, 10, 72, 0
28, 68184, Note_on_c, 10, 79, 39
28, 68304, Note_on_c, 10, 79, 0
28, 69362, Note_on_c, 10, 60, 55
28, 69442, Note_on_c, 10, 60, 0
28, 69465, Note_on_c, 10, 64, 39
28, 69539, Note_on_c, 10, 72, 42
28, 69544, Note_on_c, 10, 64, 0
28, 69618, Note_on_c, 10, 79, 45
28, 69619, Note_on_c, 10, 72, 0
28, 69738, Note_on_c, 10, 79, 0
28, 72255, Note_on_c, 10, 60, 48
28, 72323, Note_on_c, 10, 64, 40
28, 72335, Note_on_c, 10, 60, 0
28, 72402, Note_on_c, 10, 64, 0
28, 72421, Note_on_c, 10, 72, 47
28, 72499, Note_on_c, 10, 79, 47
28, 72501, Note_on_c, 10, 72, 0
28, 72619, Note_on_c, 10, 79, 0
28, 73701, Note_on_c, 10, 60, 52
28, 73769, Note_on_c, 10, 64, 51
28, 73781, Note_on_c, 10, 60, 0
28, 73848, Note_on_c, 10, 64, 0
28, 73867, Note_on_c, 10, 72, 41
28, 73947, Note_on_c, 10, 72, 0
28, 73948, Note_on_c, 10, 79, 41
28, 74068, Note_on_c, 10, 79, 0
28, 76588, Note_on_c, 10, 60, 47
28, 76658, Note_on_c, 10, 64, 51
28, 76668, Note_on_c, 10, 60, 0
28, 76737, Note_on_c, 10, 64, 0
28, 76744, Note_on_c, 10, 72, 49
28, 76810, Note_on_c, 10, 79, 40
28, 76824, Note_on_c, 10, 72, 0
28, 76930, Note_on_c, 10, 79, 0
28, 78019, Note_on_c, 10, 60, 41
28, 78099, Note_on_c, 10, 60, 0
28, 78108, Note_on_c, 10, 64, 42
28, 78184, Note_on_c, 10, 72, 55
28, 78187, Note_on_c, 10, 64, 0
28, 78242, Note_on_c, 10, 79, 39
28, 78264, Note_on_c, 10, 72, 0
28, 78362, Note_on_c, 10, 79, 0
28, 80908, Note_on_c, 10, 60, 59
28, 80970, Note_on_c, 10, 64, 59
28, 80988, Note_on_c, 10, 60, 0
28, 81049, Note_on_c, 10, 64, 0
28, 81059, Note_on_c, 10, 72, 42
28, 81126, Note_on_c, 10, 79, 40
28, 81139, Note_on_c, 10, 72, 0
28, 81246, Note_on_c, 10, 79, 0
28, 82327, Note_on_c, 10, 60, 48
28, 82407, Note_on_c, 10, 60, 0
28, 82412, Note_on_c, 10, 64, 48
28, 82487, Note_on_c, 10, 72, 40
28, 82491, Note_on_c, 10, 64, 0
28, 82567, Note_on_c, 10, 72, 0
28, 82584, Note_on_c, 10, 79, 53
28, 82704, Note_on_c, 10, 79, 0
28, 112800, Control_c, 10, 7, 75
28, 115200, Program_c, 10, 48
28, 115225, Note_on_c, 10, 68, 46
28, 115283, Note_on_c, 10, 70, 40
28, 115305, Note_on_c, 10, 68, 0
28, 115324, Note_on_c, 10, 68, 35
28, 115368, Note_on_c, 10, 70, 0
28, 115388, Note_on_c, 10, 70, 36
28, 115414, Note_on_c, 10, 68, 0
28, 115458, Note_on_c, 10, 68, 40
28, 115478, Note_on_c, 10, 70, 0
28, 115507, Note_on_c, 10, 70, 44
28, 115548, Note_on_c, 10, 68, 0
28, 115584, Note_on_c, 10, 68, 35
28, 115597, Note_on_c, 10, 70, 0
28, 115633, Note_on_c, 10, 70, 34
28, 115674, Note_on_c, 10, 68, 0
28, 115695, Note_on_c, 10, 69, 41
28, 115723, Note_on_c, 10, 70, 0
28, 115743, Note_on_c, 10, 71, 47
28, 115781, Note_on_c, 10, 69, 0
28, 115800, Note_on_c, 10, 69, 39
28, 115833, Note_on_c, 10, 71, 0
28, 115868, Note_on_c, 10, 71, 43
28, 115890, Note_on_c, 10, 69, 0
28, 115933, Note_on_c, 10, 69, 49
28, 115958, Note_on_c, 10, 71, 0
28, 115990, Note_on_c, 10, 71, 38
28, 116023, Note_on_c, 10, 69, 0
28, 116049, Note_on_c, 10, 69, 39
28, 116080, Note_on_c, 10, 71, 0
28, 116105, Note_on_c, 10, 71, 35
28, 116139, Note_on_c, 10, 69, 0
28, 116180, Note_on_c, 10, 70, 30
28, 116195, Note_on_c, 10, 71, 0
28, 116229, Note_on_c, 10, 72, 45
28, 116270, Note_on_c, 10, 70, 0
28, 116302, Note_on_c, 10, 70, 39
28, 116319, Note_on_c, 10, 72, 0
28, 116353, Note_on_c, 10, 72, 33
28, 116392, Note_on_c, 10, 70, 0
28, 116412, Note_on_c, 10, 70, 47
28, 116443, Note_on_c, 10, 72, 0
28, 116462, Note_on_c, 10, 72, 46
28, 116502, Note_on_c, 10, 70, 0
28, 116523, Note_on_c, 10, 70, 44
28, 116552, Note_on_c, 10, 72, 0
28, 116608, Note_on_c, 10, 72, 35
28, 116613, Note_on_c, 10, 70, 0
28, 116648, Note_on_c, 10, 68, 42
28, 116698, Note_on_c, 10, 72, 0
28, 116709, Note_on_c, 10, 70, 31
28, 116738, Note_on_c, 10, 68, 0
28, 116762, Note_on_c, 10, 68, 47
28, 116799, Note_on_c, 10, 70, 0
28, 116824, Note_on_c, 10, 70, 33
28, 116852, Note_on_c, 10, 68, 0
28, 116880, Note_on_c, 10, 68, 34
28, 116914, Note_on_c, 10, 70, 0
28, 116943, Note_on_c, 10, 70, 49
28, 116970, Note_on_c, 10, 68, 0
28, 117012, Note_on_c, 10, 68, 47
28, 117033, Note_on_c, 10, 70, 0
28, 117065, Note_on_c, 10, 70, 41
28, 117102, Note_on_c, 10, 68, 0
28, 117130, Note_on_c, 10, 69, 39
28, 117155, Note_on_c, 10, 70, 0
28, 117209, Note_on_c, 10, 71, 46
28, 117220, Note_on_c, 10, 69, 0
28, 117247, Note_on_c, 10, 69, 36
28, 117299, Note_on_c, 10, 71, 0
28, 117318, Note_on_c, 10, 71, 45
28, 117337, Note_on_c, 10, 69, 0
28, 117379, Note_on_c, 10, 69, 47
28, 117407, Note_on_c, 10, 71, 0
28, 117426, Note_on_c, 10, 71, 33
28, 117469, Note_on_c, 10, 69, 0
28, 117508, Note_on_c, 10, 69, 44
28, 117516, Note_on_c, 10, 71, 0
28, 117562, Note_on_c, 10, 71, 36
28, 117598, Note_on_c, 10, 69, 0
28, 117611, Note_on_c, 10, 70, 45
28, 117652, Note_on_c, 10, 71, 0
28, 117686, Note_on_c, 10, 72, 41
28, 117701, Note_on_c, 10, 70, 0
28, 117725, Note_on_c, 10, 70, 47
28, 117776, Note_on_c, 10, 72, 0
28, 117808, Note_on_c, 10, 72, 41
28, 117815, Note_on_c, 10, 70, 0
28, 117867, Note_on_c, 10, 70, 49
28, 117898, Note_on_c, 10, 72, 0
28, 117927, Note_on_c, 10, 72, 46
28, 117947, Note_on_c, 10, 70, 0
28, 117966, Note_on_c, 10, 70, 43
28, 118016, Note_on_c, 10, 72, 0
28, 118036, Note_on_c, 10, 72, 49
28, 118056, Note_on_c, 10, 70, 0
28, 118091, Note_on_c, 10, 68, 38
28, 118126, Note_on_c, 10, 72, 0
28, 118167, Note_on_c, 10, 70, 33
28, 118181, Note_on_c, 10, 68, 0
28, 118202, Note_on_c, 10, 68, 31
28, 118243, Note_on_c, 10, 70, 0
28, 118262, Note_on_c, 10, 70, 41
28, 118292, Note_on_c, 10, 68, 0
28, 118344, Note_on_c, 10, 68, 32
28, 118352, Note_on_c, 10, 70, 0
28, 118405, Note_on_c, 10, 70, 50
28, 118420, Note_on_c, 10, 68, 0
28, 118440, Note_on_c, 10, 68, 43
28, 118495, Note_on_c, 10, 70, 0
28, 118529, Note_on_c, 10, 70, 36
28, 118530, Note_on_c, 10, 68, 0
28, 118588, Note_on_c, 10, 69, 41
28, 118619, Note_on_c, 10, 70, 0
28, 118621, Note_on_c, 10, 71, 40
28, 118678, Note_on_c, 10, 69, 0
28, 118708, Note_on_c, 10, 69, 50
28, 118711, Note_on_c, 10, 71, 0
28, 118752, Note_on_c, 10, 71, 35
28, 118786, Note_on_c, 10, 69, 0
28, 118805, Note_on_c, 10, 69, 45
28, 118842, Note_on_c, 10, 71, 0
28, 118888, Note_on_c, 10, 71, 42
28, 118895, Note_on_c, 10, 69, 0
28, 118935, Note_on_c, 10, 69, 35
28, 118978, Note_on_c, 10, 71, 0
28, 118999, Note_on_c, 10, 71, 44
28, 119025, Note_on_c, 10, 69, 0
28, 119062, Note_on_c, 10, 70, 44
28, 119089, Note_on_c, 10, 71, 0
28, 119123, Note_on_c, 10, 72, 33
28, 119147, Note_on_c, 10, 70, 0
28, 119166, Note_on_c, 10, 70, 48
28, 119204, Note_on_c, 10, 72, 0
28, 119224, Note_on_c, 10, 72, 37
28, 119256, Note_on_c, 10, 70, 0
28, 119282, Note_on_c, 10, 70, 32
28, 119314, Note_on_c, 10, 72, 0
28, 119346, Note_on_c, 10, 72, 31
28, 119372, Note_on_c, 10, 70, 0
28, 119406, Note_on_c, 10, 70, 43
28, 119436, Note_on_c, 10, 72, 0
28, 119470, Note_on_c, 10, 72, 45
28, 119496, Note_on_c, 10, 70, 0
28, 119547, Note_on_c, 10, 68, 41
28, 119560, Note_on_c, 10, 72, 0
28, 119588, Note_on_c, 10, 70, 42
28, 119622, Note_on_c, 10, 68, 0
28, 119641, Note_on_c, 10, 68, 47
28, 119678, Note_on_c, 10, 70, 0
28, 119727, Note_on_c, 10, 70, 50
28, 119731, Note_on_c, 10, 68, 0
28, 119768, Note_on_c, 10, 68, 30
28, 119817, Note_on_c, 10, 70, 0
28, 119839, Note_on_c, 10, 70, 43
28, 119858, Note_on_c, 10, 68, 0
28, 119889, Note_on_c, 10, 68, 46
28, 119929, Note_on_c, 10, 70, 0
28, 119962, Note_on_c, 10, 70, 31
28, 119979, Note_on_c, 10, 68, 0
28, 120004, Note_on_c, 10, 69, 49
28, 120052, Note_on_c, 10, 70, 0
28, 120081, Note_on_c, 10, 71, 49
28, 120094, Note_on_c, 10, 69, 0
28, 120139, Note_on_c, 10, 69, 45
28, 120165, Note_on_c, 10, 71, 0
28, 120184, Note_on_c, 10, 71, 31
28, 120224, Note_on_c, 10, 69, 0
28, 120243, Note_on_c, 10, 69, 48
28, 120274, Note_on_c, 10, 71, 0
28, 120303, Note_on_c, 10, 71, 50
28, 120333, Note_on_c, 10, 69, 0
28, 120361, Note_on_c, 10, 69, 30
28, 120393, Note_on_c, 10, 71, 0
28, 120446, Note_on_c, 10, 71, 37
28, 120451, Note_on_c, 10, 69, 0
28, 120503, Note_on_c, 10, 70, 35
28, 120536, Note_on_c, 10, 71, 0
28, 120543, Note_on_c, 10, 72, 47
28, 120593, Note_on_c, 10, 70, 0
28, 120613, Note_on_c, 10, 70, 39
28, 120633, Note_on_c, 10, 72, 0
28, 120686, Note_on_c, 10, 72, 39
28, 120703, Note_on_c, 10, 70, 0
28, 120745, Note_on_c, 10, 70, 38
28, 120761, Note_on_c, 10, 72, 0
28, 120780, Note_on_c, 10, 72, 35
28, 120835, Note_on_c, 10, 70, 0
28, 120862, Note_on_c, 10, 70, 33
28, 120870, Note_on_c, 10, 72, 0
28, 120906, Note_on_c, 10, 72, 37
28, 120952, Note_on_c, 10, 70, 0
28, 120964, Note_on_c, 10, 68, 33
28, 120996, Note_on_c, 10, 72, 0
28, 121037, Note_on_c, 10, 70, 44
28, 121054, Note_on_c, 10, 68, 0
28, 121084, Note_on_c, 10, 68, 37
28, 121127, Note_on_c, 10, 70, 0
28, 121156, Note_on_c, 10, 70, 34
28, 121174, Note_on_c, 10, 68, 0
28, 121222, Note_on_c, 10, 68, 35
28, 121246, Note_on_c, 10, 70, 0
28, 121280, Note_on_c, 10, 70, 50
28, 121312, Note_on_c, 10, 68, 0
28, 121348, Note_on_c, 10, 68, 49
28, 121370, Note_on_c, 10, 70, 0
28, 121389, Note_on_c, 10, 70, 40
28, 121438, Note_on_c, 10, 68, 0
28, 121460, Note_on_c, 10, 69, 45
28, 121479, Note_on_c, 10, 70, 0
28, 121501, Note_on_c, 10, 71, 33
28, 121548, Note_on_c, 10, 69, 0
28, 121567, Note_on_c, 10, 69, 30
28, 121591, Note_on_c, 10, 71, 0
28, 121634, Note_on_c, 10, 71, 35
28, 121657, Note_on_c, 10, 69, 0
28, 121706, Note_on_c, 10, 69, 37
28, 121724, Note_on_c, 10, 71, 0
28, 121755, Note_on_c, 10, 71, 34
28, 121792, Note_on_c, 10, 69, 0
28, 121811, Note_on_c, 10, 69, 45
28, 121841, Note_on_c, 10, 71, 0
28, 121860, Note_on_c, 10, 71, 32
28, 121901, Note_on_c, 10, 69, 0
28, 121933, Note_on_c, 10, 70, 39
28, 121950, Note_on_c, 10, 71, 0
28, 122007, Note_on_c, 10, 72, 45
28, 122023, Note_on_c, 10, 70, 0
28, 122060, Note_on_c, 10, 70, 37
28, 122097, Note_on_c, 10, 72, 0
28, 122120, Note_on_c, 10, 72, 32
28, 122150, Note_on_c, 10, 70, 0
28, 122184, Note_on_c, 10, 70, 33
28, 122210, Note_on_c, 10, 72, 0
28, 122246, Note_on_c, 10, 72, 32
28, 122274, Note_on_c, 10, 70, 0
28, 122302, Note_on_c, 10, 70, 47
28, 122336, Note_on_c, 10, 72, 0
28, 122360, Note_on_c, 10, 72, 31
28, 122392, Note_on_c, 10, 70, 0
28, 122414, Note_on_c, 10, 68, 37
28, 122450, Note_on_c, 10, 72, 0
28, 122481, Note_on_c, 10, 70, 39
28, 122504, Note_on_c, 10, 68, 0
28, 122525, Note_on_c, 10, 68, 46
28, 122563, Note_on_c, 10, 70, 0
28, 122583, Note_on_c, 10, 70, 40
28, 122615, Note_on_c, 10, 68, 0
28, 122664, Note_on_c, 10, 68, 43
28, 122673, Note_on_c, 10, 70, 0
28, 122724, Note_on_c, 10, 70, 39
28, 122754, Note_on_c, 10, 68, 0
28, 122783, Note_on_c, 10, 68, 48
28, 122806, Note_on_c, 10, 70, 0
28, 122825, Note_on_c, 10, 70, 34
28, 122873, Note_on_c, 10, 68, 0
28, 122908, Note_on_c, 10, 69, 43
28, 122915, Note_on_c, 10, 70, 0
28, 122949, Note_on_c, 10, 71, 48
28, 122998, Note_on_c, 10, 69, 0
28, 123020, Note_on_c, 10, 69, 47
28, 123039, Note_on_c, 10, 71, 0
28, 123074, Note_on_c, 10, 71, 34
28, 123110, Note_on_c, 10, 69, 0
28, 123148, Note_on_c, 10, 69, 38
28, 123164, Note_on_c, 10, 71, 0
28, 123193, Note_on_c, 10, 71, 36
28, 123238, Note_on_c, 10, 69, 0
28, 123258, Note_on_c, 10, 69, 45
28, 123283, Note_on_c, 10, 71, 0
28, 123322, Note_on_c, 10, 71, 50
28, 123348, Note_on_c, 10, 69, 0
28, 123388, Note_on_c, 10, 70, 46
28, 123412, Note_on_c, 10, 71, 0
28, 123438, Note_on_c, 10, 72, 33
28, 123478, Note_on_c, 10, 70, 0
28, 123501, Note_on_c, 10, 70, 38
28, 123528, Note_on_c, 10, 72, 0
28, 123563, Note_on_c, 10, 72, 35
28, 123591, Note_on_c, 10, 70, 0
28, 123616, Note_on_c, 10, 70, 32
28, 123648, Note_on_c, 10, 72, 0
28, 123668, Note_on_c, 10, 72, 39
28, 123706, Note_on_c, 10, 70, 0
28, 123735, Note_on_c, 10, 70, 39
28, 123758, Note_on_c, 10, 72, 0
28, 123806, Note_on_c, 10, 72, 45
28, 123825, Note_on_c, 10, 70, 0
28, 123863, Note_on_c, 10, 68, 38
28, 123896, Note_on_c, 10, 72, 0
28, 123915, Note_on_c, 10, 70, 36
28, 123948, Note_on_c, 10, 68, 0
28, 123968, Note_on_c, 10, 68, 46
28, 124005, Note_on_c, 10, 70, 0
28, 124037, Note_on_c, 10, 70, 35
28, 124058, Note_on_c, 10, 68, 0
28, 124082, Note_on_c, 10, 68, 49
28, 124121, Note_on_c, 10, 70, 0
28, 124141, Note_on_c, 10, 70, 33
28, 124172, Note_on_c, 10, 68, 0
28, 124215, Note_on_c, 10, 68, 31
28, 124231, Note_on_c, 10, 70, 0
28, 124271, Note_on_c, 10, 70, 45
28, 124305, Note_on_c, 10, 68, 0
28, 124332, Note_on_c, 10, 69, 50
28, 124361, Note_on_c, 10, 70, 0
28, 124406, Note_on_c, 10, 71, 33
28, 124422, Note_on_c, 10, 69, 0
28, 124453, Note_on_c, 10, 69, 49
28, 124493, Note_on_c, 10, 71, 0
28, 124512, Note_on_c, 10, 71, 40
28, 124543, Note_on_c, 10, 69, 0
28, 124579, Note_on_c, 10, 69, 30
28, 124602, Note_on_c, 10, 71, 0
28, 124644, Note_on_c, 10, 71, 43
28, 124669, Note_on_c, 10, 69, 0
28, 124691, Note_on_c, 10, 69, 42
28, 124729, Note_on_c, 10, 71, 0
28, 124748, Note_on_c, 10, 71, 34
28, 124781, Note_on_c, 10, 69, 0
28, 124819, Note_on_c, 10, 70, 39
28, 124838, Note_on_c, 10, 71, 0
28, 124870, Note_on_c, 10, 72, 49
28, 124909, Note_on_c, 10, 70, 0
28, 124935, Note_on_c, 10, 70, 41
28, 124960, Note_on_c, 10, 72, 0
28, 124996, Note_on_c, 10, 72, 44
28, 125025, Note_on_c, 10, 70, 0
28, 125059, Note_on_c, 10, 70, 40
28, 125086, Note_on_c, 10, 72, 0
28, 125122, Note_on_c, 10, 72, 33
28, 125146, Note_on_c, 10, 70, 0
28, 125165, Note_on_c, 10, 70, 50
28, 125212, Note_on_c, 10, 72, 0
28, 125231, Note_on_c, 10, 72, 32
28, 125255, Note_on_c, 10, 70, 0
28, 125307, Note_on_c, 10, 68, 38
28, 125321, Note_on_c, 10, 72, 0
28, 125354, Note_on_c, 10, 70, 36
28, 125397, Note_on_c, 10, 68, 0
28, 125417, Note_on_c, 10, 68, 41
28, 125444, Note_on_c, 10, 70, 0
28, 125465, Note_on_c, 10, 70, 48
28, 125501, Note_on_c, 10, 68, 0
28, 125520, Note_on_c, 10, 68, 32
28, 125555, Note_on_c, 10, 70, 0
28, 125585, Note_on_c, 10, 70, 30
28, 125610, Note_on_c, 10, 68, 0
28, 125657, Note_on_c, 10, 68, 34
28, 125675, Note_on_c, 10, 70, 0
28, 125703, Note_on_c, 10, 70, 45
28, 125747, Note_on_c, 10, 68, 0
28, 125773, Note_on_c, 10, 69, 41
28, 125793, Note_on_c, 10, 70, 0
28, 125844, Note_on_c, 10, 71, 33
28, 125863, Note_on_c, 10, 69, 0
28, 125887, Note_on_c, 10, 69, 39
28, 125934, Note_on_c, 10, 71, 0
28, 125954, Note_on_c, 10, 71, 32
28, 125977, Note_on_c, 10, 69, 0
28, 126012, Note_on_c, 10, 69, 36
28, 126044, Note_on_c, 10, 71, 0
28, 126067, Note_on_c, 10, 71, 39
28, 126102, Note_on_c, 10, 69, 0
28, 126139, Note_on_c, 10, 69, 35
28, 126157, Note_on_c, 10, 71, 0
28, 126186, Note_on_c, 10, 71, 45
28, 126229, Note_on_c, 10, 69, 0
28, 126245, Note_on_c, 10, 70, 49
28, 126276, Note_on_c, 10, 71, 0
28, 126320, Note_on_c, 10, 72, 47
28, 126335, Note_on_c, 10, 70, 0
28, 126360, Note_on_c, 10, 70, 39
28, 126405, Note_on_c, 10, 72, 0
28, 126425, Note_on_c, 10, 72, 47
28, 126450, Note_on_c, 10, 70, 0
28, 126486, Note_on_c, 10, 70, 41
28, 126515, Note_on_c, 10, 72, 0
28, 126557, Note_on_c, 10, 72, 36
28, 126576, Note_on_c, 10, 70, 0
28, 126606, Note_on_c, 10, 70, 30
28, 126647, Note_on_c, 10, 72, 0
28, 126673, Note_on_c, 10, 72, 30
28, 126696, Note_on_c, 10, 70, 0
28, 126726, Note_on_c, 10, 68, 48
28, 126763, Note_on_c, 10, 72, 0
28, 126785, Note_on_c, 10, 70, 35
28, 126816, Note_on_c, 10, 68, 0
28, 126866, Note_on_c, 10, 68, 45
28, 126875, Note_on_c, 10, 70, 0
28, 126928, Note_on_c, 10, 70, 35
28, 126956, Note_on_c, 10, 68, 0
28, 126984, Note_on_c, 10, 68, 45
28, 127018, Note_on_c, 10, 70, 0
28, 127045, Note_on_c, 10, 70, 35
28, 127068, Note_on_c, 10, 68, 0
28, 127087, Note_on_c, 10, 68, 36
28, 127131, Note_on_c, 10, 70, 0
28, 127150, Note_on_c, 10, 70, 40
28, 127177, Note_on_c, 10, 68, 0
28, 127225, Note_on_c, 10, 69, 43
28, 127240, Note_on_c, 10, 70, 0
28, 127284, Note_on_c, 10, 71, 30
28, 127312, Note_on_c, 10, 69, 0
28, 127331, Note_on_c, 10, 69, 37
28, 127371, Note_on_c, 10, 71, 0
28, 127390, Note_on_c, 10, 71, 39
28, 127421, Note_on_c, 10, 69, 0
28, 127466, Note_on_c, 10, 69, 47
28, 127480, Note_on_c, 10, 71, 0
28, 127523, Note_on_c, 10, 71, 37
28, 127556, Note_on_c, 10, 69, 0
28, 127583, Note_on_c, 10, 69, 39
28, 127613, Note_on_c, 10, 71, 0
28, 127645, Note_on_c, 10, 71, 38
28, 127673, Note_on_c, 10, 69, 0
28, 127735, Note_on_c, 10, 71, 0
28, 135378, Note_on_c, 11, 75, 70
28, 135387, Note_on_c, 11, 76, 79
28, 135843, Note_on_c, 11, 70, 74
28, 135849, Note_on_c, 11, 71, 73
28, 135858, Note_on_c, 11, 75, 0
28, 135867, Note_on_c, 11, 76, 0
28, 136323, Note_on_c, 11, 70, 0
28, 136329, Note_on_c, 11, 71, 0
28, 136340, Note_on_c, 11, 77, 42
28, 136345, Note_on_c, 11, 78, 49
28, 136800, Note_on_c, 11, 72, 58
28, 136820, Note_on_c, 11, 77, 0
28, 136823, Note_on_c, 11, 73, 51
28, 136825, Note_on_c, 11, 78, 0
28, 137280, Note_on_c, 11, 72, 0
28, 137284, Note_on_c, 11, 75, 46
28, 137285, Note_on_c, 11, 77, 44
28, 137303, Note_on_c, 11, 73, 0
28, 137764, Note_on_c, 11, 75, 0
28, 137765, Note_on_c, 11, 77, 0
28, 137787, Note_on_c, 11, 71, 45
28, 137787, Note_on_c, 11, 70, 54
28, 138248, Note_on_c, 11, 75, 41
28, 138257, Note_on_c, 11, 76, 56
28, 138267, Note_on_c, 11, 71, 0
28, 138267, Note_on_c, 11, 70, 0
28, 138728, Note_on_c, 11, 75, 0
28, 138733, Note_on_c, 11, 72, 57
28, 138736, Note_on_c, 11, 73, 50
28, 138737, Note_on_c, 11, 76, 0
28, 139208, Note_on_c, 11, 78, 43
28, 139213, Note_on_c, 11, 72, 0
28, 139216, Note_on_c, 11, 73, 0
28, 139218, Note_on_c, 11, 77, 51
28, 139688, Note_on_c, 11, 78, 0
28, 139697, Note_on_c, 11, 72, 44
28, 139698, Note_on_c, 11, 77, 0
28, 139708, Note_on_c, 11, 73, 44
28, 140165, Note_on_c, 11, 77, 56
28, 140174, Note_on_c, 11, 75, 41
28, 140177, Note_on_c, 11, 72, 0
28, 140188, Note_on_c, 11, 73, 0
28, 140642, Note_on_c, 11, 71, 55
28, 140645, Note_on_c, 11, 77, 0
28, 140650, Note_on_c, 11, 70, 56
28, 140654, Note_on_c, 11, 75, 0
28, 141122, Note_on_c, 11, 71, 0
28, 141129, Note_on_c, 11, 76, 42
28, 141130, Note_on_c, 11, 70, 0
28, 141132, Note_on_c, 11, 75, 50
28, 141609, Note_on_c, 11, 76, 0
28, 141612, Note_on_c, 11, 75, 0
28, 141612, Note_on_c, 11, 72, 58
28, 141629, Note_on_c, 11, 73, 48
28, 142085, Note_on_c, 11, 77, 52
28, 142087, Note_on_c, 11, 78, 49
28, 142092, Note_on_c, 11, 72, 0
28, 142109, Note_on_c, 11, 73, 0
28, 142565, Note_on_c, 11, 77, 0
28, 142567, Note_on_c, 11, 78, 0
28, 142575, Note_on_c, 11, 72, 57
28, 142577, Note_on_c, 11, 73, 44
28, 143050, Note_on_c, 11, 75, 42
28, 143050, Note_on_c, 11, 77, 50
28, 143055, Note_on_c, 11, 72, 0
28, 143057, Note_on_c, 11, 73, 0
28, 143524, Note_on_c, 11, 70, 54
28, 143530, Note_on_c, 11, 75, 0
28, 143530, Note_on_c, 11, 77, 0
28, 143530, Note_on_c, 11, 71, 53
28, 144004, Note_on_c, 11, 70, 0
28, 144010, Note_on_c, 11, 71, 0
28, 144010, Note_on_c, 11, 76, 40
28, 144020, Note_on_c, 11, 75, 51
28, 144487, Note_on_c, 11, 72, 50
28, 144490, Note_on_c, 11, 76, 0
28, 144495, Note_on_c, 11, 73, 48
28, 144500, Note_on_c, 11, 75, 0
28, 144963, Note_on_c, 11, 77, 52
28, 144967, Note_on_c, 11, 72, 0
28, 144967, Note_on_c, 11, 78, 56
28, 144975, Note_on_c, 11, 73, 0
28, 145443, Note_on_c, 11, 77, 0
28, 145444, Note_on_c, 11, 72, 49
28, 145447, Note_on_c, 11, 78, 0
28, 145449, Note_on_c, 11, 73, 52
28, 145924, Note_on_c, 11, 72, 0
28, 145929, Note_on_c, 11, 73, 0
28, 145946, Note_on_c, 11, 77, 56
28, 145948, Note_on_c, 11, 75, 40
28, 146407, Note_on_c, 11, 70, 52
28, 146409, Note_on_c, 11, 71, 58
28, 146426, Note_on_c, 11, 77, 0
28, 146428, Note_on_c, 11, 75, 0
28, 146887, Note_on_c, 11, 70, 0
28, 146889, Note_on_c, 11, 71, 0
28, 146894, Note_on_c, 11, 75, 53
28, 146906, Note_on_c, 11, 76, 47
28, 147372, Note_on_c, 11, 72, 57
28, 147374, Note_on_c, 11, 75, 0
28, 147382, Note_on_c, 11, 73, 54
28, 147386, Note_on_c, 11, 76, 0
28, 147852, Note_on_c, 11, 72, 0
28, 147862, Note_on_c, 11, 73, 0
28, 192014, Note_on_c, 11, 84, 41
28, 192022, Note_on_c, 11, 95, 45
28, 192485, Note_on_c, 11, 79, 32
28, 192492, Note_on_c, 11, 90, 38
28, 192965, Note_on_c, 11, 79, 0
28, 192972, Note_on_c, 11, 90, 0
28, 193454, Note_on_c, 11, 84, 0
28, 193462, Note_on_c, 11, 95, 0
28, 193931, Note_on_c, 11, 84, 45
28, 193940, Note_on_c, 11, 95, 39
28, 194387, Note_on_c, 11, 95, 0
28, 194404, Note_on_c, 11, 84, 0
28, 194406, Note_on_c, 11, 95, 37
28, 194422, Note_on_c, 11, 90, 42
28, 194423, Note_on_c, 11, 84, 30
28, 194428, Note_on_c, 11, 79, 30
28, 194902, Note_on_c, 11, 90, 0
28, 194908, Note_on_c, 11, 79, 0
28, 195366, Note_on_c, 11, 95, 0
28, 195383, Note_on_c, 11, 84, 0
28, 195845, Note_on_c, 11, 84, 50
28, 195859, Note_on_c, 11, 95, 44
28, 196306, Note_on_c, 11, 84, 0
28, 196320, Note_on_c, 11, 79, 44
28, 196325, Note_on_c, 11, 84, 35
28, 196326, Note_on_c, 11, 95, 0
28, 196333, Note_on_c, 11, 90, 38
28, 196345, Note_on_c, 11, 95, 35
28, 196800, Note_on_c, 11, 79, 0
28, 196813, Note_on_c, 11, 90, 0
28, 197285, Note_on_c, 11, 84, 0
28, 197305, Note_on_c, 11, 95, 0
28, 197769, Note_on_c, 11, 84, 30
28, 197788, Note_on_c, 11, 95, 43
28, 198256, Note_on_c, 11, 79, 45
28, 198262, Note_on_c, 11, 90, 33
28, 198729, Note_on_c, 11, 84, 0
28, 198736, Note_on_c, 11, 79, 0
28, 198742, Note_on_c, 11, 90, 0
28, 198748, Note_on_c, 11, 95, 0
28, 199206, Note_on_c, 11, 95, 38
28, 199227, Note_on_c, 11, 84, 47
28, 199703, Note_on_c, 11, 90, 42
28, 200166, Note_on_c, 11, 95, 0
28, 200183, Note_on_c, 11, 90, 0
28, 200187, Note_on_c, 11, 84, 0
28, 209286, Note_on_c, 11, 79, 66
28, 209345, Note_on_c, 11, 80, 56
28, 209346, Note_on_c, 11, 79, 0
28, 209405, Note_on_c, 11, 80, 0
28, 209423, Note_on_c, 11, 79, 73
28, 209483, Note_on_c, 11, 79, 0
28, 209485, Note_on_c, 11, 80, 67
28, 209542, Note_on_c, 11, 79, 77
28, 209545, Note_on_c, 11, 80, 0
28, 209602, Note_on_c, 11, 79, 0
28, 209609, Note_on_c, 11, 80, 75
28, 209648, Note_on_c, 11, 79, 80
28, 209669, Note_on_c, 11, 80, 0
28, 209708, Note_on_c, 11, 79, 0
28, 209716, Note_on_c, 11, 80, 81
28, 209761, Note_on_c, 11, 79, 89
28, 209776, Note_on_c, 11, 80, 0
28, 209797, Note_on_c, 11, 79, 0
28, 209846, Note_on_c, 11, 78, 89
28, 209882, Note_on_c, 11, 78, 0
28, 209933, Note_on_c, 11, 77, 81
28, 209969, Note_on_c, 11, 77, 0
28, 210016, Note_on_c, 11, 76, 84
28, 210052, Note_on_c, 11, 76, 0
28, 210103, Note_on_c, 11, 75, 93
28, 210139, Note_on_c, 11, 75, 0
28, 210182, Note_on_c, 11, 74, 92
28, 210218, Note_on_c, 11, 74, 0
28, 210260, Note_on_c, 11, 73, 102
28, 210313, Note_on_c, 11, 73, 0
28, 220573, Program_c, 10, 48
28, 223448, Control_c, 10, 101, 0
28, 223449, Control_c, 10, 100, 0
28, 223449, Control_c, 10, 6, 24
28, 223450, Control_c, 10, 38, 0
28, 224069, Control_c, 10, 101, 0
28, 224070, Control_c, 10, 100, 0
28, 224070, Control_c, 10, 6, 24
28, 224071, Control_c, 10, 38, 24
28, 224630, Pitch_bend_c, 10, 2048
28, 224643, Pitch_bend_c, 10, 2208
28, 224655, Note_on_c, 10, 90, 96
28, 224655, Pitch_bend_c, 10, 2368
28, 224669, Pitch_bend_c, 10, 2528
28, 224681, Pitch_bend_c, 10, 2688
28, 224694, Pitch_bend_c, 10, 2848
28, 224707, Pitch_bend_c, 10, 3008
28, 224719, Pitch_bend_c, 10, 3168
28, 224732, Pitch_bend_c, 10, 3328
28, 224745, Pitch_bend_c, 10, 3488
28, 224758, Pitch_bend_c, 10, 3648
28, 224770, Pitch_bend_c, 10, 3808
28, 224783, Pitch_bend_c, 10, 3968
28, 224796, Pitch_bend_c, 10, 4128
28, 224809, Pitch_bend_c, 10, 4288
28, 224821, Pitch_bend_c, 10, 4448
28, 224834, Pitch_bend_c, 10, 4608
28, 224847, Pitch_bend_c, 10, 4768
28, 224859, Pitch_bend_c, 10, 4928
28, 224872, Pitch_bend_c, 10, 5088
28, 224885, Pitch_bend_c, 10, 5248
28, 224898, Pitch_bend_c, 10, 5408
28, 224910, Pitch_bend_c, 10, 5568
28, 224923, Pitch_bend_c, 10, 5728
28, 224936, Pitch_bend_c, 10, 5888
28, 224949, Pitch_bend_c, 10, 6048
28, 224962, Pitch_bend_c, 10, 6208
28, 224974, Pitch_bend_c, 10, 6368
28, 224987, Pitch_bend_c, 10, 6528
28, 225000, Pitch_bend_c, 10, 6688
28, 225013, Pitch_bend_c, 10, 6848
28, 225025, Pitch_bend_c, 10, 7008
28, 225038, Pitch_bend_c, 10, 7168
28, 225051, Pitch_bend_c, 10, 7328
28, 225063, Pitch_bend_c, 10, 7488
28, 225076, Pitch_bend_c, 10, 7648
28, 225089, Pitch_bend_c, 10, 7808
28, 225102, Pitch_bend_c, 10, 7968
28, 225114, Pitch_bend_c, 10, 8128
28, 225255, Note_on_c, 10, 90, 0
28, 225324, Pitch_bend_c, 10, 8192
28, 229448, Note_on_c, 10, 90, 91
28, 229923, Note_on_c, 10, 90, 0
28, 229942, Note_on_c, 10, 90, 107
28, 230062, Note_on_c, 10, 90, 0
28, 230124, Pitch_bend_c, 10, 8192
28, 233288, Control_c, 10, 101, 0
28, 233289, Control_c, 10, 100, 0
28, 233289, Control_c, 10, 6, 24
28, 233290, Control_c, 10, 38, 0
28, 233909, Control_c, 10, 101, 0
28, 233910, Control_c, 10, 100, 0
28, 233910, Control_c, 10, 6, 24
28, 233911, Control_c, 10, 38, 24
28, 234470, Pitch_bend_c, 10, 2048
28, 234483, Pitch_bend_c, 10, 2208
28, 234483, Note_on_c, 10, 90, 93
28, 234495, Pitch_bend_c, 10, 2368
28, 234509, Pitch_bend_c, 10, 2528
28, 234521, Pitch_bend_c, 10, 2688
28, 234534, Pitch_bend_c, 10, 2848
28, 234547, Pitch_bend_c, 10, 3008
28, 234559, Pitch_bend_c, 10, 3168
28, 234572, Pitch_bend_c, 10, 3328
28, 234585, Pitch_bend_c, 10, 3488
28, 234598, Pitch_bend_c, 10, 3648
28, 234610, Pitch_bend_c, 10, 3808
28, 234623, Pitch_bend_c, 10, 3968
28, 234636, Pitch_bend_c, 10, 4128
28, 234649, Pitch_bend_c, 10, 4288
28, 234661, Pitch_bend_c, 10, 4448
28, 234674, Pitch_bend_c, 10, 4608
28, 234687, Pitch_bend_c, 10, 4768
28, 234699, Pitch_bend_c, 10, 4928
28, 234712, Pitch_bend_c, 10, 5088
28, 234725, Pitch_bend_c, 10, 5248
28, 234738, Pitch_bend_c, 10, 5408
28, 234750, Pitch_bend_c, 10, 5568
28, 234763, Pitch_bend_c, 10, 5728
28, 234776, Pitch_bend_c, 10, 5888
28, 234789, Pitch_bend_c, 10, 6048
28, 234802, Pitch_bend_c, 10, 6208
28, 234814, Pitch_bend_c, 10, 6368
28, 234827, Pitch_bend_c, 10, 6528
28, 234840, Pitch_bend_c, 10, 6688
28, 234853, Pitch_bend_c, 10, 6848
28, 234865, Pitch_bend_c, 10, 7008
28, 234878, Pitch_bend_c, 10, 7168
28, 234891, Pitch_bend_c, 10, 7328
28, 234903, Pitch_bend_c, 10, 7488
28, 234916, Pitch_bend_c, 10, 7648
28, 234929, Pitch_bend_c, 10, 7808
28, 234942, Pitch_bend_c, 10, 7968
28, 234954, Pitch_bend_c, 10, 8128
28, 235083, Note_on_c, 10, 90, 0
28, 235164, Pitch_bend_c, 10, 8192
28, 243124, Control_c, 11, 101, 0
28, 243124, Control_c, 11, 100, 0
28, 243125, Control_c, 11, 6, 24
28, 243125, Control_c, 11, 38, 0
28, 244343, Control_c, 11, 101, 0
28, 244344, Control_c, 11, 100, 0
28, 244344, Control_c, 11, 6, 24
28, 244345, Control_c, 11, 38, 24
28, 270024, Note_on_c, 11, 70, 69
28, 270264, Note_on_c, 11, 70, 0
28, 270508, Note_on_c, 11, 72, 74
28, 270748, Note_on_c, 11, 72, 0
28, 270987, Note_on_c, 11, 73, 67
28, 271227, Note_on_c, 11, 73, 0
28, 271446, Note_on_c, 11, 70, 73
28, 271686, Note_on_c, 11, 70, 0
28, 271926, Note_on_c, 11, 73, 80
28, 272166, Note_on_c, 11, 73, 0
28, 272428, Note_on_c, 11, 70, 67
28, 272668, Note_on_c, 11, 70, 0
28, 272885, Note_on_c, 11, 72, 75
28, 273125, Note_on_c, 11, 72, 0
28, 273378, Note_on_c, 11, 73, 75
28, 273618, Note_on_c, 11, 73, 0
28, 273849, Note_on_c, 11, 70, 70
28, 274089, Note_on_c, 11, 70, 0
28, 274322, Note_on_c, 11, 73, 69
28, 274562, Note_on_c, 11, 73, 0
28, 274803, Note_on_c, 11, 72, 73
28, 275043, Note_on_c, 11, 72, 0
28, 275296, Note_on_c, 11, 70, 65
28, 275536, Note_on_c, 11, 70, 0
28, 275776, Note_on_c, 11, 72, 74
28, 276016, Note_on_c, 11, 72, 0
28, 276268, Note_on_c, 11, 73, 78
28, 276508, Note_on_c, 11, 73, 0
28, 276721, Note_on_c, 11, 70, 84
28, 276961, Note_on_c, 11, 70, 0
28, 277226, Note_on_c, 11, 73, 72
28, 277466, Note_on_c, 11, 73, 0
28, 277691, Note_on_c, 11, 70, 80
28, 277931, Note_on_c, 11, 70, 0
28, 278188, Note_on_c, 11, 72, 75
28, 278428, Note_on_c, 11, 72, 0
28, 278661, Note_on_c, 11, 73, 69
28, 278901, Note_on_c, 11, 73, 0
28, 279126, Note_on_c, 11, 70, 77
28, 279366, Note_on_c, 11, 70, 0
28, 279610, Note_on_c, 11, 73, 76
28, 279840, Program_c, 11, 48
28, 279841, Note_on_c, 11, 87, 108
28, 279850, Note_on_c, 11, 73, 0
28, 279909, Note_on_c, 11, 87, 0
28, 279935, Note_on_c, 11, 85, 91
28, 279995, Note_on_c, 11, 84, 91
28, 280004, Note_on_c, 11, 85, 0
28, 280063, Note_on_c, 11, 84, 0
28, 280067, Note_on_c, 11, 82, 91
28, 280127, Note_on_c, 11, 80, 98
28, 280135, Note_on_c, 11, 82, 0
28, 280190, Note_on_c, 11, 78, 107
28, 280195, Note_on_c, 11, 80, 0
28, 280254, Note_on_c, 11, 77, 103
28, 280259, Note_on_c, 11, 78, 0
28, 280322, Note_on_c, 11, 77, 0
28, 280327, Note_on_c, 11, 75, 97
28, 280395, Note_on_c, 11, 75, 0
28, 280408, Note_on_c, 11, 77, 99
28, 280477, Note_on_c, 11, 77, 0
28, 280484, Note_on_c, 11, 78, 108
28, 280548, Note_on_c, 11, 80, 91
28, 280552, Note_on_c, 11, 78, 0
28, 280606, Note_on_c, 11, 82, 110
28, 280616, Note_on_c, 11, 80, 0
28, 280672, Note_on_c, 11, 84, 110
28, 280674, Note_on_c, 11, 82, 0
28, 280741, Note_on_c, 11, 84, 0
28, 280759, Note_on_c, 11, 85, 91
28, 280822, Note_on_c, 11, 87, 105
28, 280827, Note_on_c, 11, 85, 0
28, 280942, Note_on_c, 11, 87, 0
28, 281540, Note_on_c, 11, 70, 68
28, 281780, Note_on_c, 11, 70, 0
28, 282014, Note_on_c, 11, 72, 69
28, 282254, Note_on_c, 11, 72, 0
28, 282492, Note_on_c, 11, 73, 73
28, 282732, Note_on_c, 11, 73, 0
28, 282980, Note_on_c, 11, 70, 78
28, 283220, Note_on_c, 11, 70, 0
28, 283465, Note_on_c, 11, 73, 73
28, 283705, Note_on_c, 11, 73, 0
28, 283943, Note_on_c, 11, 72, 85
28, 284160, Program_c, 11, 48
28, 284164, Note_on_c, 11, 87, 92
28, 284183, Note_on_c, 11, 72, 0
28, 284230, Note_on_c, 11, 85, 98
28, 284232, Note_on_c, 11, 87, 0
28, 284299, Note_on_c, 11, 85, 0
28, 284300, Note_on_c, 11, 84, 105
28, 284368, Note_on_c, 11, 84, 0
28, 284370, Note_on_c, 11, 82, 96
28, 284438, Note_on_c, 11, 82, 0
28, 284446, Note_on_c, 11, 80, 93
28, 284514, Note_on_c, 11, 80, 0
28, 284515, Note_on_c, 11, 78, 109
28, 284584, Note_on_c, 11, 78, 0
28, 284587, Note_on_c, 11, 77, 111
28, 284655, Note_on_c, 11, 77, 0
28, 284657, Note_on_c, 11, 75, 97
28, 284725, Note_on_c, 11, 75, 0
28, 284729, Note_on_c, 11, 77, 96
28, 284781, Note_on_c, 11, 78, 106
28, 284798, Note_on_c, 11, 77, 0
28, 284849, Note_on_c, 11, 78, 0
28, 284849, Note_on_c, 11, 80, 96
28, 284915, Note_on_c, 11, 82, 95
28, 284917, Note_on_c, 11, 80, 0
28, 284983, Note_on_c, 11, 82, 0
28, 284997, Note_on_c, 11, 84, 106
28, 285066, Note_on_c, 11, 84, 0
28, 285078, Note_on_c, 11, 85, 108
28, 285146, Note_on_c, 11, 85, 0
28, 285384, Note_on_c, 11, 70, 78
28, 285624, Note_on_c, 11, 70, 0
28, 285853, Note_on_c, 11, 72, 84
28, 286093, Note_on_c, 11, 72, 0
28, 286347, Note_on_c, 11, 73, 67
28, 286560, Program_c, 11, 48
28, 286562, Note_on_c, 11, 87, 107
28, 286587, Note_on_c, 11, 73, 0
28, 286630, Note_on_c, 11, 87, 0
28, 286652, Note_on_c, 11, 85, 99
28, 286706, Note_on_c, 11, 84, 108
28, 286721, Note_on_c, 11, 85, 0
28, 286774, Note_on_c, 11, 84, 0
28, 286777, Note_on_c, 11, 82, 96
28, 286845, Note_on_c, 11, 82, 0
28, 286847, Note_on_c, 11, 80, 97
28, 286915, Note_on_c, 11, 80, 0
28, 286930, Note_on_c, 11, 78, 111
28, 286994, Note_on_c, 11, 77, 106
28, 286999, Note_on_c, 11, 78, 0
28, 287047, Note_on_c, 11, 75, 95
28, 287062, Note_on_c, 11, 77, 0
28, 287108, Note_on_c, 11, 77, 93
28, 287115, Note_on_c, 11, 75, 0
28, 287177, Note_on_c, 11, 77, 0
28, 287184, Note_on_c, 11, 78, 109
28, 287252, Note_on_c, 11, 78, 0
28, 287265, Note_on_c, 11, 80, 93
28, 287323, Note_on_c, 11, 82, 98
28, 287333, Note_on_c, 11, 80, 0
28, 287391, Note_on_c, 11, 82, 0
28, 287392, Note_on_c, 11, 84, 102
28, 287461, Note_on_c, 11, 84, 0
28, 287461, Note_on_c, 11, 85, 103
28, 287529, Note_on_c, 11, 85, 0
28, 287536, Note_on_c, 11, 87, 99
28, 287648, Note_on_c, 11, 75, 99
28, 287656, Note_on_c, 11, 87, 0
28, 287708, Note_on_c, 11, 75, 0
28, 287720, Note_on_c, 11, 77, 101
28, 287780, Note_on_c, 11, 77, 0
28, 287783, Note_on_c, 11, 75, 96
28, 287828, Note_on_c, 11, 77, 104
28, 287843, Note_on_c, 11, 75, 0
28, 287886, Note_on_c, 11, 75, 105
28, 287888, Note_on_c, 11, 77, 0
28, 287946, Note_on_c, 11, 75, 0
28, 287953, Note_on_c, 11, 77, 103
28, 288013, Note_on_c, 11, 77, 0
28, 288019, Note_on_c, 11, 75, 92
28, 288139, Note_on_c, 11, 75, 0
28, 288956, Control_c, 10, 101, 0
28, 288956, Control_c, 10, 100, 0
28, 288957, Control_c, 10, 6, 24
28, 288957, Control_c, 10, 38, 24
28, 289648, Pitch_bend_c, 10, 4779
28, 290168, Note_on_c, 10, 79, 100
28, 290188, Pitch_bend_c, 10, 4939
28, 290210, Pitch_bend_c, 10, 5099
28, 290232, Pitch_bend_c, 10, 5259
28, 290255, Pitch_bend_c, 10, 5419
28, 290277, Pitch_bend_c, 10, 5579
28, 290299, Pitch_bend_c, 10, 5739
28, 290321, Pitch_bend_c, 10, 5899
28, 290343, Pitch_bend_c, 10, 6059
28, 290366, Pitch_bend_c, 10, 6219
28, 290388, Pitch_bend_c, 10, 6379
28, 290410, Pitch_bend_c, 10, 6539
28, 290432, Pitch_bend_c, 10, 6699
28, 290454, Pitch_bend_c, 10, 6859
28, 290477, Pitch_bend_c, 10, 7019
28, 290499, Pitch_bend_c, 10, 7179
28, 290521, Pitch_bend_c, 10, 7339
28, 290543, Pitch_bend_c, 10, 7499
28, 290565, Pitch_bend_c, 10, 7659
28, 290588, Pitch_bend_c, 10, 7819
28, 290610, Pitch_bend_c, 10, 7979
28, 290632, Pitch_bend_c, 10, 8139
28, 290632, Pitch_bend_c, 10, 8192
28, 290768, Note_on_c, 10, 79, 0
28, 535942, Note_on_c, 10, 81, 113
28, 535961, Note_on_c, 10, 81, 0
28, 535986, Note_on_c, 10, 81, 108
28, 536000, Note_on_c, 10, 81, 0
28, 536020, Note_on_c, 10, 81, 113
28, 536039, Note_on_c, 10, 81, 0
28, 536064, Note_on_c, 10, 81, 106
28, 536065, Note_on_c, 10, 81, 0
28, 536084, Note_on_c, 10, 81, 115
28, 536102, Note_on_c, 10, 81, 0
28, 536121, Note_on_c, 10, 81, 109
28, 536140, Note_on_c, 10, 81, 0
28, 536162, Note_on_c, 10, 65, 124
28, 536181, Note_on_c, 10, 65, 0
28, 536223, Note_on_c, 10, 65, 109
28, 536225, Note_on_c, 10, 65, 0
28, 536244, Note_on_c, 10, 65, 118
28, 536263, Note_on_c, 10, 65, 0
28, 536304, Note_on_c, 10, 65, 110
28, 536316, Note_on_c, 10, 65, 0
28, 536336, Note_on_c, 10, 65, 111
28, 536346, Note_on_c, 10, 65, 0
28, 536365, Note_on_c, 10, 65, 118
28, 536384, Note_on_c, 10, 65, 0
28, 536413, Note_on_c, 10, 70, 107
28, 536432, Note_on_c, 10, 70, 0
28, 536467, Note_on_c, 10, 70, 121
28, 536469, Note_on_c, 10, 70, 0
28, 536488, Note_on_c, 10, 70, 106
28, 536505, Note_on_c, 10, 70, 0
28, 536524, Note_on_c, 10, 70, 121
28, 536543, Note_on_c, 10, 70, 0
28, 536581, Note_on_c, 10, 70, 107
28, 536589, Note_on_c, 10, 70, 0
28, 536609, Note_on_c, 10, 70, 119
28, 536628, Note_on_c, 10, 70, 0
28, 536649, Note_on_c, 10, 62, 115
28, 536650, Note_on_c, 10, 76, 120
28, 536668, Note_on_c, 10, 62, 0
28, 536669, Note_on_c, 10, 76, 0
28, 536697, Note_on_c, 10, 76, 104
28, 536705, Note_on_c, 10, 62, 110
28, 536706, Note_on_c, 10, 62, 0
28, 536708, Note_on_c, 10, 76, 0
28, 536722, Note_on_c, 10, 62, 124
28, 536727, Note_on_c, 10, 76, 108
28, 536741, Note_on_c, 10, 62, 0
28, 536746, Note_on_c, 10, 76, 0
28, 536769, Note_on_c, 10, 76, 122
28, 536771, Note_on_c, 10, 62, 108
28, 536788, Note_on_c, 10, 76, 0
28, 536789, Note_on_c, 10, 62, 0
28, 536808, Note_on_c, 10, 62, 120
28, 536811, Note_on_c, 10, 76, 104
28, 536820, Note_on_c, 10, 76, 0
28, 536821, Note_on_c, 10, 62, 0
28, 536840, Note_on_c, 10, 76, 115
28, 536840, Note_on_c, 10, 62, 108
28, 536859, Note_on_c, 10, 76, 0
28, 536859, Note_on_c, 10, 62, 0
28, 536899, Note_on_c, 10, 74, 104
28, 536918, Note_on_c, 10, 74, 0
28, 536943, Note_on_c, 10, 74, 114
28, 536961, Note_on_c, 10, 74, 0
28, 536981, Note_on_c, 10, 74, 107
28, 536996, Note_on_c, 10, 74, 0
28, 537015, Note_on_c, 10, 74, 121
28, 537023, Note_on_c, 10, 74, 0
28, 537042, Note_on_c, 10, 74, 123
28, 537061, Note_on_c, 10, 74, 0
28, 537081, Note_on_c, 10, 74, 107
28, 537100, Note_on_c, 10, 74, 0
28, 537136, Note_on_c, 10, 72, 105
28, 537151, Note_on_c, 10, 72, 0
28, 537171, Note_on_c, 10, 72, 124
28, 537191, Note_on_c, 10, 72, 0
28, 537221, Note_on_c, 10, 72, 119
28, 537240, Note_on_c, 10, 72, 0
28, 537259, Note_on_c, 10, 72, 109
28, 537266, Note_on_c, 10, 72, 0
28, 537285, Note_on_c, 10, 72, 111
28, 537305, Note_on_c, 10, 72, 0
28, 537341, Note_on_c, 10, 72, 119
28, 537360, Note_on_c, 10, 72, 0
28, 537383, Note_on_c, 10, 62, 122
28, 537385, Note_on_c, 10, 71, 117
28, 537386, Note_on_c, 10, 71, 0
28, 537394, Note_on_c, 10, 62, 0
28, 537402, Note_on_c, 10, 71, 107
28, 537413, Note_on_c, 10, 62, 117
28, 537422, Note_on_c, 10, 71, 0
28, 537433, Note_on_c, 10, 62, 0
28, 537454, Note_on_c, 10, 62, 119
28, 537460, Note_on_c, 10, 71, 107
28, 537466, Note_on_c, 10, 62, 0
28, 537479, Note_on_c, 10, 71, 0
28, 537486, Note_on_c, 10, 62, 118
28, 537501, Note_on_c, 10, 71, 123
28, 537502, Note_on_c, 10, 62, 0
28, 537517, Note_on_c, 10, 71, 0
28, 537521, Note_on_c, 10, 62, 122
28, 537536, Note_on_c, 10, 71, 104
28, 537541, Note_on_c, 10, 62, 0
28, 537550, Note_on_c, 10, 71, 0
28, 537567, Note_on_c, 10, 62, 115
28, 537569, Note_on_c, 10, 71, 118
28, 537586, Note_on_c, 10, 62, 0
28, 537588, Note_on_c, 10, 71, 0
28, 544080, Control_c, 10, 11, 64
28, 544560, Program_c, 10, 44
28, 544560, Control_c, 10, 11, 64
28, 544570, Note_on_c, 10, 68, 95
28, 544579, Control_c, 10, 11, 65
28, 544597, Control_c, 10, 11, 66
28, 544617, Control_c, 10, 11, 67
28, 544636, Control_c, 10, 11, 68
28, 544655, Control_c, 10, 11, 69
28, 544674, Control_c, 10, 11, 70
28, 544693, Control_c, 10, 11, 71
28, 544712, Control_c, 10, 11, 72
28, 544731, Control_c, 10, 11, 73
28, 544750, Control_c, 10, 11, 74
28, 544769, Control_c, 10, 11, 75
28, 544788, Control_c, 10, 11, 76
28, 544807, Control_c, 10, 11, 77
28, 544826, Control_c, 10, 11, 78
28, 544845, Control_c, 10, 11, 79
28, 544864, Control_c, 10, 11, 80
28, 544883, Control_c, 10, 11, 81
28, 544902, Control_c, 10, 11, 82
28, 544921, Control_c, 10, 11, 83
28, 544941, Control_c, 10, 11, 84
28, 544959, Control_c, 10, 11, 85
28, 544979, Control_c, 10, 11, 86
28, 544998, Control_c, 10, 11, 87
28, 545017, Control_c, 10, 11, 88
28, 545036, Control_c, 10, 11, 89
28, 545055, Control_c, 10, 11, 90
28, 545074, Control_c, 10, 11, 91
28, 545093, Control_c, 10, 11, 92
28, 545112, Control_c, 10, 11, 93
28, 545131, Control_c, 10, 11, 94
28, 545150, Control_c, 10, 11, 95
28, 545169, Control_c, 10, 11, 96
28, 545188, Control_c, 10, 11, 97
28, 545207, Control_c, 10, 11, 98
28, 545226, Control_c, 10, 11, 99
28, 545245, Control_c, 10, 11, 100
28, 545264, Control_c, 10, 11, 101
28, 545283, Control_c, 10, 11, 102
28, 545302, Control_c, 10, 11, 103
28, 545321, Control_c, 10, 11, 104
28, 545340, Control_c, 10, 11, 105
28, 545360, Control_c, 10, 11, 106
28, 545378, Control_c, 10, 11, 107
28, 545398, Control_c, 10, 11, 108
28, 545417, Control_c, 10, 11, 109
28, 545436, Control_c, 10, 11, 110
28, 545455, Control_c, 10, 11, 111
28, 545474, Control_c, 10, 11, 112
28, 545493, Control_c, 10, 11, 113
28, 545512, Control_c, 10, 11, 114
28, 545531, Control_c, 10, 11, 115
28, 545550, Control_c, 10, 11, 116
28, 545569, Control_c, 10, 11, 117
28, 545588, Control_c, 10, 11, 118
28, 545607, Control_c, 10, 11, 119
28, 545626, Control_c, 10, 11, 120
28, 545645, Control_c, 10, 11, 121
28, 545664, Control_c, 10, 11, 122
28, 545683, Control_c, 10, 11, 123
28, 545702, Control_c, 10, 11, 124
28, 545722, Control_c, 10, 11, 125
28, 545740, Note_on_c, 10, 68, 0
28, 545740, Control_c, 10, 11, 126
28, 545760, Program_c, 10, 48
28, 545760, Control_c, 10, 11, 127
28, 545760, Note_on_c, 10, 68, 90
28, 545794, Note_on_c, 10, 68, 0
28, 545818, Note_on_c, 10, 70, 85
28, 545844, Note_on_c, 10, 72, 86
28, 545852, Note_on_c, 10, 70, 0
28, 545878, Note_on_c, 10, 72, 0
28, 545882, Note_on_c, 10, 74, 98
28, 545909, Note_on_c, 10, 75, 97
28, 545916, Note_on_c, 10, 74, 0
28, 545943, Note_on_c, 10, 75, 0
28, 545950, Note_on_c, 10, 77, 88
28, 545984, Note_on_c, 10, 77, 0
28, 545993, Note_on_c, 10, 79, 95
28, 546027, Note_on_c, 10, 79, 0
28, 636000, Program_c, 11, 48
28, 636003, Note_on_c, 11, 69, 90
28, 636005, Note_on_c, 11, 70, 83
28, 636026, Note_on_c, 11, 79, 80
28, 636063, Note_on_c, 11, 69, 0
28, 636065, Note_on_c, 11, 70, 0
28, 636086, Note_on_c, 11, 79, 0
28, 636240, Note_on_c, 11, 69, 95
28, 636252, Note_on_c, 11, 70, 89
28, 636257, Note_on_c, 11, 79, 82
28, 636300, Note_on_c, 11, 69, 0
28, 636312, Note_on_c, 11, 70, 0
28, 636317, Note_on_c, 11, 79, 0
28, 636618, Note_on_c, 11, 79, 89
28, 636671, Note_on_c, 11, 79, 0
28, 636735, Note_on_c, 11, 78, 97
28, 636788, Note_on_c, 11, 78, 0
28, 636868, Note_on_c, 11, 76, 83
28, 636921, Note_on_c, 11, 76, 0
28, 637094, Note_on_c, 11, 79, 87
28, 637096, Note_on_c, 11, 70, 90
28, 637099, Note_on_c, 11, 69, 91
28, 637154, Note_on_c, 11, 79, 0
28, 637156, Note_on_c, 11, 70, 0
28, 637159, Note_on_c, 11, 69, 0
28, 637342, Note_on_c, 11, 70, 92
28, 637344, Note_on_c, 11, 79, 98
28, 637347, Note_on_c, 11, 69, 96
28, 637402, Note_on_c, 11, 70, 0
28, 637404, Note_on_c, 11, 79, 0
28, 637407, Note_on_c, 11, 69, 0
28, 637697, Note_on_c, 11, 79, 82
28, 637750, Note_on_c, 11, 79, 0
28, 637801, Note_on_c, 11, 78, 81
28, 637854, Note_on_c, 11, 78, 0
28, 637926, Note_on_c, 11, 76, 94
28, 637979, Note_on_c, 11, 76, 0
28, 638177, Note_on_c, 11, 70, 91
28, 638185, Note_on_c, 11, 69, 85
28, 638187, Note_on_c, 11, 79, 97
28, 638237, Note_on_c, 11, 70, 0
28, 638245, Note_on_c, 11, 69, 0
28, 638247, Note_on_c, 11, 79, 0
28, 638410, Note_on_c, 11, 70, 85
28, 638426, Note_on_c, 11, 79, 98
28, 638427, Note_on_c, 11, 69, 81
28, 638470, Note_on_c, 11, 70, 0
28, 638486, Note_on_c, 11, 79, 0
28, 638487, Note_on_c, 11, 69, 0
28, 638772, Note_on_c, 11, 79, 84
28, 638825, Note_on_c, 11, 79, 0
28, 638907, Note_on_c, 11, 78, 79
28, 638960, Note_on_c, 11, 78, 0
28, 639008, Note_on_c, 11, 76, 93
28, 639061, Note_on_c, 11, 76, 0
28, 639241, Note_on_c, 11, 70, 85
28, 639248, Note_on_c, 11, 69, 79
28, 639268, Note_on_c, 11, 79, 94
28, 639301, Note_on_c, 11, 70, 0
28, 639308, Note_on_c, 11, 69, 0
28, 639328, Note_on_c, 11, 79, 0
28, 639493, Note_on_c, 11, 79, 87
28, 639546, Note_on_c, 11, 79, 0
28, 639605, Note_on_c, 11, 78, 78
28, 639658, Note_on_c, 11, 78, 0
28, 639748, Note_on_c, 11, 76, 97
28, 639801, Note_on_c, 11, 76, 0
28, 639801, End_track
29, 0, Start_track
29, 0, Title_t, "Violini IIa"
29, 0, MIDI_port, 0
29, 0, Program_c, 12, 48
29, 0, Control_c, 12, 7, 75
29, 0, Control_c, 12, 10, 54
29, 0, Control_c, 12, 91, 96
29, 0, Control_c, 12, 11, 127
29, 1440, Program_c, 12, 49
29, 2410, Note_on_c, 12, 81, 48
29, 2890, Note_on_c, 12, 81, 0
29, 2894, Note_on_c, 12, 85, 46
29, 3134, Note_on_c, 12, 85, 0
29, 4809, Note_on_c, 12, 70, 47
29, 5049, Note_on_c, 12, 70, 0
29, 5065, Note_on_c, 12, 76, 57
29, 5290, Note_on_c, 12, 82, 51
29, 5305, Note_on_c, 12, 76, 0
29, 5530, Note_on_c, 12, 82, 0
29, 5532, Note_on_c, 12, 76, 53
29, 5772, Note_on_c, 12, 76, 0
29, 5783, Note_on_c, 12, 70, 46
29, 6022, Note_on_c, 12, 76, 47
29, 6023, Note_on_c, 12, 70, 0
29, 6247, Note_on_c, 12, 82, 57
29, 6262, Note_on_c, 12, 76, 0
29, 6487, Note_on_c, 12, 82, 0
29, 7683, Note_on_c, 12, 69, 45
29, 8643, Note_on_c, 12, 69, 0
29, 8653, Note_on_c, 12, 81, 30
29, 8667, Note_on_c, 12, 69, 48
29, 9133, Note_on_c, 12, 81, 0
29, 9137, Note_on_c, 12, 77, 43
29, 9138, Note_on_c, 12, 85, 44
29, 9141, Note_on_c, 12, 70, 37
29, 9147, Note_on_c, 12, 69, 0
29, 9257, Note_on_c, 12, 77, 0
29, 9258, Note_on_c, 12, 85, 0
29, 9261, Note_on_c, 12, 70, 0
29, 9603, Note_on_c, 12, 81, 47
29, 9619, Note_on_c, 12, 69, 33
29, 10083, Note_on_c, 12, 81, 0
29, 10083, Note_on_c, 12, 73, 30
29, 10087, Note_on_c, 12, 82, 35
29, 10095, Note_on_c, 12, 89, 32
29, 10099, Note_on_c, 12, 69, 0
29, 10203, Note_on_c, 12, 73, 0
29, 10207, Note_on_c, 12, 82, 0
29, 10215, Note_on_c, 12, 89, 0
29, 10579, Note_on_c, 12, 90, 74
29, 10819, Note_on_c, 12, 90, 0
29, 10824, Note_on_c, 12, 89, 69
29, 11050, Note_on_c, 12, 88, 75
29, 11064, Note_on_c, 12, 89, 0
29, 11284, Note_on_c, 12, 87, 72
29, 11290, Note_on_c, 12, 88, 0
29, 11524, Note_on_c, 12, 87, 0
29, 11540, Note_on_c, 12, 85, 68
29, 11777, Note_on_c, 12, 84, 67
29, 11780, Note_on_c, 12, 85, 0
29, 12001, Note_on_c, 12, 82, 73
29, 12017, Note_on_c, 12, 84, 0
29, 12241, Note_on_c, 12, 82, 0
29, 12241, Note_on_c, 12, 80, 57
29, 12481, Note_on_c, 12, 80, 0
29, 12486, Note_on_c, 12, 78, 58
29, 12726, Note_on_c, 12, 78, 0
29, 12735, Note_on_c, 12, 76, 57
29, 12964, Note_on_c, 12, 75, 55
29, 12975, Note_on_c, 12, 76, 0
29, 13204, Note_on_c, 12, 75, 0
29, 13223, Note_on_c, 12, 72, 58
29, 13459, Note_on_c, 12, 70, 57
29, 13463, Note_on_c, 12, 72, 0
29, 13699, Note_on_c, 12, 70, 0
29, 15374, Note_on_c, 12, 78, 81
29, 15608, Note_on_c, 12, 77, 76
29, 15614, Note_on_c, 12, 78, 0
29, 15847, Note_on_c, 12, 76, 75
29, 15848, Note_on_c, 12, 77, 0
29, 16082, Note_on_c, 12, 75, 66
29, 16087, Note_on_c, 12, 76, 0
29, 16322, Note_on_c, 12, 75, 0
29, 16341, Note_on_c, 12, 73, 56
29, 16581, Note_on_c, 12, 73, 0
29, 16584, Note_on_c, 12, 72, 70
29, 16824, Note_on_c, 12, 72, 0
29, 16827, Note_on_c, 12, 82, 51
29, 17067, Note_on_c, 12, 82, 0
29, 19698, Note_on_c, 12, 90, 68
29, 19928, Note_on_c, 12, 89, 66
29, 19938, Note_on_c, 12, 90, 0
29, 20168, Note_on_c, 12, 89, 0
29, 20177, Note_on_c, 12, 88, 63
29, 20406, Note_on_c, 12, 87, 50
29, 20417, Note_on_c, 12, 88, 0
29, 20646, Note_on_c, 12, 87, 0
29, 20665, Note_on_c, 12, 85, 52
29, 20895, Note_on_c, 12, 84, 46
29, 20905, Note_on_c, 12, 85, 0
29, 21121, Note_on_c, 12, 82, 52
29, 21135, Note_on_c, 12, 84, 0
29, 21361, Note_on_c, 12, 82, 0
29, 21364, Note_on_c, 12, 80, 51
29, 21604, Note_on_c, 12, 80, 0
29, 21610, Note_on_c, 12, 78, 41
29, 21850, Note_on_c, 12, 78, 0
29, 21865, Note_on_c, 12, 76, 41
29, 22084, Note_on_c, 12, 75, 47
29, 22105, Note_on_c, 12, 76, 0
29, 22320, Note_on_c, 12, 73, 51
29, 22324, Note_on_c, 12, 75, 0
29, 22512, Note_on_c, 12, 73, 0
29, 22569, Note_on_c, 12, 73, 49
29, 22809, Note_on_c, 12, 73, 0
29, 22827, Note_on_c, 12, 79, 41
29, 23057, Note_on_c, 12, 77, 55
29, 23067, Note_on_c, 12, 79, 0
29, 23297, Note_on_c, 12, 77, 0
29, 23303, Note_on_c, 12, 83, 39
29, 23538, Note_on_c, 12, 82, 59
29, 23543, Note_on_c, 12, 83, 0
29, 23772, Note_on_c, 12, 88, 59
29, 23778, Note_on_c, 12, 82, 0
29, 23964, Note_on_c, 12, 88, 0
29, 24006, Note_on_c, 12, 87, 42
29, 24246, Note_on_c, 12, 87, 0
29, 24263, Note_on_c, 12, 84, 40
29, 24491, Note_on_c, 12, 79, 48
29, 24503, Note_on_c, 12, 84, 0
29, 24724, Note_on_c, 12, 78, 48
29, 24731, Note_on_c, 12, 79, 0
29, 24961, Note_on_c, 12, 75, 40
29, 24964, Note_on_c, 12, 78, 0
29, 25201, Note_on_c, 12, 75, 0
29, 25216, Note_on_c, 12, 73, 53
29, 25408, Note_on_c, 12, 73, 0
29, 25445, Note_on_c, 12, 70, 55
29, 25681, Note_on_c, 12, 73, 49
29, 25685, Note_on_c, 12, 70, 0
29, 25921, Note_on_c, 12, 73, 0
29, 25937, Note_on_c, 12, 67, 44
29, 26162, Note_on_c, 12, 70, 45
29, 26177, Note_on_c, 12, 67, 0
29, 26402, Note_on_c, 12, 70, 0
29, 26406, Note_on_c, 12, 73, 49
29, 26646, Note_on_c, 12, 73, 0
29, 26650, Note_on_c, 12, 76, 53
29, 26890, Note_on_c, 12, 76, 0
29, 26902, Note_on_c, 12, 74, 44
29, 27142, Note_on_c, 12, 74, 0
29, 27148, Note_on_c, 12, 73, 43
29, 27369, Note_on_c, 12, 79, 50
29, 27388, Note_on_c, 12, 73, 0
29, 27607, Note_on_c, 12, 82, 56
29, 27609, Note_on_c, 12, 79, 0
29, 27847, Note_on_c, 12, 82, 0
29, 27855, Note_on_c, 12, 85, 48
29, 28082, Note_on_c, 12, 88, 52
29, 28095, Note_on_c, 12, 85, 0
29, 28322, Note_on_c, 12, 88, 0
29, 28327, Note_on_c, 12, 61, 58
29, 29766, Note_on_c, 12, 61, 0
29, 29786, Note_on_c, 12, 61, 47
29, 31226, Note_on_c, 12, 61, 0
29, 31226, Note_on_c, 12, 60, 48
29, 31702, Note_on_c, 12, 59, 44
29, 31706, Note_on_c, 12, 60, 0
29, 32662, Note_on_c, 12, 59, 0
29, 32668, Note_on_c, 12, 61, 39
29, 34082, Note_on_c, 12, 66, 54
29, 34562, Note_on_c, 12, 66, 0
29, 34564, Note_on_c, 12, 62, 56
29, 34586, Note_on_c, 12, 66, 48
29, 34588, Note_on_c, 12, 61, 0
29, 35044, Note_on_c, 12, 62, 0
29, 35060, Note_on_c, 12, 63, 55
29, 35498, Note_on_c, 12, 66, 0
29, 35516, Note_on_c, 12, 63, 0
29, 44899, Note_on_c, 12, 65, 27
29, 45128, Note_on_c, 12, 78, 18
29, 45139, Note_on_c, 12, 65, 0
29, 45368, Note_on_c, 12, 78, 0
29, 45376, Note_on_c, 12, 77, 25
29, 45616, Note_on_c, 12, 77, 0
29, 45856, Note_on_c, 12, 65, 14
29, 46082, Note_on_c, 12, 78, 30
29, 46096, Note_on_c, 12, 65, 0
29, 46320, Note_on_c, 12, 65, 16
29, 46322, Note_on_c, 12, 78, 0
29, 46560, Note_on_c, 12, 65, 0
29, 46579, Note_on_c, 12, 66, 17
29, 46819, Note_on_c, 12, 66, 0
29, 47065, Note_on_c, 12, 78, 32
29, 47302, Note_on_c, 12, 65, 30
29, 47305, Note_on_c, 12, 78, 0
29, 47526, Note_on_c, 12, 66, 24
29, 47542, Note_on_c, 12, 65, 0
29, 47766, Note_on_c, 12, 66, 0
29, 62988, Program_c, 12, 48
29, 67200, Note_on_c, 12, 84, 46
29, 67204, Note_on_c, 12, 79, 39
29, 67215, Note_on_c, 12, 91, 36
29, 67231, Note_on_c, 12, 84, 0
29, 67235, Note_on_c, 12, 79, 0
29, 67246, Note_on_c, 12, 91, 0
29, 67282, Note_on_c, 12, 91, 33
29, 67296, Note_on_c, 12, 84, 47
29, 67303, Note_on_c, 12, 79, 45
29, 67314, Note_on_c, 12, 91, 0
29, 67328, Note_on_c, 12, 84, 0
29, 67335, Note_on_c, 12, 79, 0
29, 67378, Note_on_c, 12, 91, 45
29, 67388, Note_on_c, 12, 84, 36
29, 67388, Note_on_c, 12, 79, 44
29, 68178, Note_on_c, 12, 91, 0
29, 68188, Note_on_c, 12, 84, 0
29, 68188, Note_on_c, 12, 79, 0
29, 69120, Note_on_c, 12, 79, 41
29, 69128, Note_on_c, 12, 91, 41
29, 69133, Note_on_c, 12, 84, 47
29, 69151, Note_on_c, 12, 79, 0
29, 69159, Note_on_c, 12, 91, 0
29, 69164, Note_on_c, 12, 84, 0
29, 69218, Note_on_c, 12, 91, 43
29, 69223, Note_on_c, 12, 79, 49
29, 69228, Note_on_c, 12, 84, 46
29, 69250, Note_on_c, 12, 91, 0
29, 69255, Note_on_c, 12, 79, 0
29, 69260, Note_on_c, 12, 84, 0
29, 69299, Note_on_c, 12, 79, 49
29, 69299, Note_on_c, 12, 91, 33
29, 69303, Note_on_c, 12, 84, 38
29, 69859, Note_on_c, 12, 79, 0
29, 69859, Note_on_c, 12, 91, 0
29, 69863, Note_on_c, 12, 84, 0
29, 71531, Note_on_c, 12, 91, 32
29, 71540, Note_on_c, 12, 79, 31
29, 71545, Note_on_c, 12, 84, 41
29, 71562, Note_on_c, 12, 91, 0
29, 71571, Note_on_c, 12, 79, 0
29, 71576, Note_on_c, 12, 84, 0
29, 71601, Note_on_c, 12, 79, 50
29, 71627, Note_on_c, 12, 84, 43
29, 71628, Note_on_c, 12, 91, 36
29, 71633, Note_on_c, 12, 79, 0
29, 71659, Note_on_c, 12, 84, 0
29, 71660, Note_on_c, 12, 91, 0
29, 71684, Note_on_c, 12, 84, 40
29, 71691, Note_on_c, 12, 79, 41
29, 71697, Note_on_c, 12, 91, 50
29, 72484, Note_on_c, 12, 84, 0
29, 72491, Note_on_c, 12, 79, 0
29, 72497, Note_on_c, 12, 91, 0
29, 73447, Note_on_c, 12, 79, 35
29, 73448, Note_on_c, 12, 91, 42
29, 73455, Note_on_c, 12, 84, 45
29, 73478, Note_on_c, 12, 79, 0
29, 73479, Note_on_c, 12, 91, 0
29, 73486, Note_on_c, 12, 84, 0
29, 73530, Note_on_c, 12, 84, 44
29, 73533, Note_on_c, 12, 79, 35
29, 73538, Note_on_c, 12, 91, 44
29, 73562, Note_on_c, 12, 84, 0
29, 73565, Note_on_c, 12, 79, 0
29, 73570, Note_on_c, 12, 91, 0
29, 73609, Note_on_c, 12, 79, 33
29, 73610, Note_on_c, 12, 84, 48
29, 73624, Note_on_c, 12, 91, 37
29, 74169, Note_on_c, 12, 79, 0
29, 74170, Note_on_c, 12, 84, 0
29, 74184, Note_on_c, 12, 91, 0
29, 75845, Note_on_c, 12, 67, 32
29, 75847, Note_on_c, 12, 79, 43
29, 75863, Note_on_c, 12, 72, 31
29, 75876, Note_on_c, 12, 67, 0
29, 75878, Note_on_c, 12, 79, 0
29, 75894, Note_on_c, 12, 72, 0
29, 75928, Note_on_c, 12, 72, 41
29, 75932, Note_on_c, 12, 67, 45
29, 75940, Note_on_c, 12, 79, 42
29, 75960, Note_on_c, 12, 72, 0
29, 75964, Note_on_c, 12, 67, 0
29, 75972, Note_on_c, 12, 79, 0
29, 76002, Note_on_c, 12, 67, 47
29, 76013, Note_on_c, 12, 79, 30
29, 76026, Note_on_c, 12, 72, 50
29, 76802, Note_on_c, 12, 67, 0
29, 76813, Note_on_c, 12, 79, 0
29, 76826, Note_on_c, 12, 72, 0
29, 77772, Note_on_c, 12, 67, 43
29, 77783, Note_on_c, 12, 72, 46
29, 77788, Note_on_c, 12, 79, 31
29, 77803, Note_on_c, 12, 67, 0
29, 77814, Note_on_c, 12, 72, 0
29, 77819, Note_on_c, 12, 79, 0
29, 77855, Note_on_c, 12, 72, 49
29, 77865, Note_on_c, 12, 67, 49
29, 77867, Note_on_c, 12, 79, 45
29, 77887, Note_on_c, 12, 72, 0
29, 77897, Note_on_c, 12, 67, 0
29, 77899, Note_on_c, 12, 79, 0
29, 77923, Note_on_c, 12, 72, 48
29, 77937, Note_on_c, 12, 79, 50
29, 77942, Note_on_c, 12, 67, 31
29, 78483, Note_on_c, 12, 72, 0
29, 78497, Note_on_c, 12, 79, 0
29, 78502, Note_on_c, 12, 67, 0
29, 80168, Note_on_c, 12, 67, 30
29, 80179, Note_on_c, 12, 79, 35
29, 80181, Note_on_c, 12, 72, 37
29, 80199, Note_on_c, 12, 67, 0
29, 80210, Note_on_c, 12, 79, 0
29, 80212, Note_on_c, 12, 72, 0
29, 80244, Note_on_c, 12, 67, 47
29, 80249, Note_on_c, 12, 79, 39
29, 80258, Note_on_c, 12, 72, 39
29, 80276, Note_on_c, 12, 67, 0
29, 80281, Note_on_c, 12, 79, 0
29, 80290, Note_on_c, 12, 72, 0
29, 80323, Note_on_c, 12, 67, 38
29, 80333, Note_on_c, 12, 72, 35
29, 80340, Note_on_c, 12, 79, 33
29, 81123, Note_on_c, 12, 67, 0
29, 81133, Note_on_c, 12, 72, 0
29, 81140, Note_on_c, 12, 79, 0
29, 82084, Note_on_c, 12, 72, 33
29, 82085, Note_on_c, 12, 79, 44
29, 82091, Note_on_c, 12, 67, 37
29, 82115, Note_on_c, 12, 72, 0
29, 82116, Note_on_c, 12, 79, 0
29, 82122, Note_on_c, 12, 67, 0
29, 82178, Note_on_c, 12, 79, 35
29, 82184, Note_on_c, 12, 72, 34
29, 82188, Note_on_c, 12, 67, 37
29, 82210, Note_on_c, 12, 79, 0
29, 82216, Note_on_c, 12, 72, 0
29, 82220, Note_on_c, 12, 67, 0
29, 82246, Note_on_c, 12, 67, 50
29, 82257, Note_on_c, 12, 79, 40
29, 82265, Note_on_c, 12, 72, 49
29, 82566, Note_on_c, 12, 67, 0
29, 82577, Note_on_c, 12, 79, 0
29, 82585, Note_on_c, 12, 72, 0
29, 127670, Program_c, 12, 44
29, 127692, Note_on_c, 12, 72, 54
29, 127707, Note_on_c, 12, 71, 42
29, 128163, Note_on_c, 12, 71, 0
29, 128172, Note_on_c, 12, 72, 0
29, 128176, Note_on_c, 12, 69, 44
29, 128182, Note_on_c, 12, 71, 39
29, 128652, Note_on_c, 12, 70, 46
29, 128656, Note_on_c, 12, 69, 0
29, 128659, Note_on_c, 12, 68, 43
29, 128662, Note_on_c, 12, 71, 0
29, 129121, Note_on_c, 12, 67, 41
29, 129132, Note_on_c, 12, 70, 0
29, 129139, Note_on_c, 12, 68, 0
29, 129148, Note_on_c, 12, 69, 54
29, 129601, Note_on_c, 12, 67, 0
29, 129604, Note_on_c, 12, 68, 54
29, 129625, Note_on_c, 12, 70, 48
29, 129628, Note_on_c, 12, 69, 0
29, 130081, Note_on_c, 12, 69, 41
29, 130082, Note_on_c, 12, 71, 46
29, 130084, Note_on_c, 12, 68, 0
29, 130105, Note_on_c, 12, 70, 0
29, 130559, Program_c, 12, 48
29, 130561, Note_on_c, 12, 69, 0
29, 130562, Note_on_c, 12, 71, 0
29, 130580, Note_on_c, 12, 72, 42
29, 130580, Note_on_c, 12, 70, 41
29, 130700, Note_on_c, 12, 72, 0
29, 130700, Note_on_c, 12, 70, 0
29, 141130, Note_on_c, 12, 71, 82
29, 141146, Note_on_c, 12, 63, 66
29, 141370, Note_on_c, 12, 71, 0
29, 141376, Note_on_c, 12, 73, 72
29, 141386, Note_on_c, 12, 63, 0
29, 141388, Note_on_c, 12, 64, 74
29, 141609, Note_on_c, 12, 66, 75
29, 141609, Note_on_c, 12, 75, 81
29, 141616, Note_on_c, 12, 73, 0
29, 141628, Note_on_c, 12, 64, 0
29, 141847, Note_on_c, 12, 68, 74
29, 141849, Note_on_c, 12, 66, 0
29, 141849, Note_on_c, 12, 75, 0
29, 141859, Note_on_c, 12, 76, 78
29, 142080, Note_on_c, 12, 69, 69
29, 142087, Note_on_c, 12, 68, 0
29, 142093, Note_on_c, 12, 78, 83
29, 142099, Note_on_c, 12, 76, 0
29, 142560, Note_on_c, 12, 69, 0
29, 142573, Note_on_c, 12, 78, 0
29, 142577, Note_on_c, 12, 73, 78
29, 142586, Note_on_c, 12, 64, 83
29, 142802, Note_on_c, 12, 78, 82
29, 142817, Note_on_c, 12, 73, 0
29, 142826, Note_on_c, 12, 64, 0
29, 142827, Note_on_c, 12, 69, 69
29, 143042, Note_on_c, 12, 78, 0
29, 143042, Note_on_c, 12, 68, 71
29, 143063, Note_on_c, 12, 76, 73
29, 143067, Note_on_c, 12, 69, 0
29, 143282, Note_on_c, 12, 68, 0
29, 143283, Note_on_c, 12, 75, 80
29, 143284, Note_on_c, 12, 66, 85
29, 143303, Note_on_c, 12, 76, 0
29, 143523, Note_on_c, 12, 75, 0
29, 143524, Note_on_c, 12, 66, 0
29, 143539, Note_on_c, 12, 64, 68
29, 143547, Note_on_c, 12, 73, 81
29, 144012, Note_on_c, 12, 76, 73
29, 144018, Note_on_c, 12, 68, 70
29, 144019, Note_on_c, 12, 64, 0
29, 144027, Note_on_c, 12, 73, 0
29, 144243, Note_on_c, 12, 70, 74
29, 144249, Note_on_c, 12, 78, 67
29, 144252, Note_on_c, 12, 76, 0
29, 144258, Note_on_c, 12, 68, 0
29, 144483, Note_on_c, 12, 70, 0
29, 144489, Note_on_c, 12, 78, 0
29, 144492, Note_on_c, 12, 73, 74
29, 144503, Note_on_c, 12, 64, 80
29, 144972, Note_on_c, 12, 73, 0
29, 144978, Note_on_c, 12, 78, 73
29, 144983, Note_on_c, 12, 64, 0
29, 144989, Note_on_c, 12, 69, 71
29, 145458, Note_on_c, 12, 78, 0
29, 145466, Note_on_c, 12, 64, 70
29, 145467, Note_on_c, 12, 73, 81
29, 145469, Note_on_c, 12, 69, 0
29, 145683, Note_on_c, 12, 69, 68
29, 145687, Note_on_c, 12, 78, 84
29, 145706, Note_on_c, 12, 64, 0
29, 145707, Note_on_c, 12, 73, 0
29, 145923, Note_on_c, 12, 69, 0
29, 145927, Note_on_c, 12, 78, 0
29, 145927, Note_on_c, 12, 68, 80
29, 145946, Note_on_c, 12, 76, 66
29, 146167, Note_on_c, 12, 68, 0
29, 146167, Note_on_c, 12, 75, 85
29, 146186, Note_on_c, 12, 76, 0
29, 146188, Note_on_c, 12, 66, 68
29, 146407, Note_on_c, 12, 75, 0
29, 146409, Note_on_c, 12, 64, 75
29, 146412, Note_on_c, 12, 73, 84
29, 146428, Note_on_c, 12, 66, 0
29, 146889, Note_on_c, 12, 64, 0
29, 146892, Note_on_c, 12, 73, 0
29, 146900, Note_on_c, 12, 71, 65
29, 146909, Note_on_c, 12, 63, 78
29, 147124, Note_on_c, 12, 73, 77
29, 147140, Note_on_c, 12, 71, 0
29, 147142, Note_on_c, 12, 64, 69
29, 147149, Note_on_c, 12, 63, 0
29, 147363, Note_on_c, 12, 66, 84
29, 147364, Note_on_c, 12, 73, 0
29, 147373, Note_on_c, 12, 75, 74
29, 147382, Note_on_c, 12, 64, 0
29, 147603, Note_on_c, 12, 66, 0
29, 147606, Note_on_c, 12, 68, 79
29, 147607, Note_on_c, 12, 76, 76
29, 147613, Note_on_c, 12, 75, 0
29, 147846, Note_on_c, 12, 68, 0
29, 147847, Note_on_c, 12, 76, 0
29, 169438, Program_c, 12, 44
29, 169440, Control_c, 12, 11, 64
29, 172332, Control_c, 12, 11, 65
29, 172347, Note_on_c, 12, 77, 75
29, 172348, Control_c, 12, 11, 66
29, 172364, Control_c, 12, 11, 67
29, 172380, Control_c, 12, 11, 68
29, 172396, Control_c, 12, 11, 69
29, 172413, Control_c, 12, 11, 70
29, 172429, Control_c, 12, 11, 71
29, 172445, Control_c, 12, 11, 72
29, 172462, Control_c, 12, 11, 73
29, 172478, Control_c, 12, 11, 74
29, 172494, Control_c, 12, 11, 75
29, 172510, Control_c, 12, 11, 76
29, 172527, Control_c, 12, 11, 77
29, 172543, Control_c, 12, 11, 78
29, 172559, Control_c, 12, 11, 79
29, 172575, Control_c, 12, 11, 80
29, 172592, Control_c, 12, 11, 81
29, 172608, Control_c, 12, 11, 82
29, 172624, Control_c, 12, 11, 83
29, 172641, Control_c, 12, 11, 84
29, 172657, Control_c, 12, 11, 85
29, 172673, Control_c, 12, 11, 86
29, 172689, Control_c, 12, 11, 87
29, 172705, Control_c, 12, 11, 88
29, 172722, Control_c, 12, 11, 89
29, 172738, Control_c, 12, 11, 90
29, 172754, Control_c, 12, 11, 91
29, 172770, Control_c, 12, 11, 92
29, 172787, Control_c, 12, 11, 93
29, 172800, Note_on_c, 12, 76, 68
29, 172803, Control_c, 12, 11, 94
29, 172819, Control_c, 12, 11, 95
29, 172827, Note_on_c, 12, 77, 0
29, 172836, Control_c, 12, 11, 96
29, 172852, Control_c, 12, 11, 97
29, 172868, Control_c, 12, 11, 98
29, 172884, Control_c, 12, 11, 99
29, 172901, Control_c, 12, 11, 100
29, 172917, Control_c, 12, 11, 101
29, 172933, Control_c, 12, 11, 102
29, 172950, Control_c, 12, 11, 103
29, 172965, Control_c, 12, 11, 104
29, 172982, Control_c, 12, 11, 105
29, 172998, Control_c, 12, 11, 106
29, 173014, Control_c, 12, 11, 107
29, 173031, Control_c, 12, 11, 108
29, 173047, Control_c, 12, 11, 109
29, 173063, Control_c, 12, 11, 110
29, 173079, Control_c, 12, 11, 111
29, 173096, Control_c, 12, 11, 112
29, 173112, Control_c, 12, 11, 113
29, 173128, Control_c, 12, 11, 114
29, 173145, Control_c, 12, 11, 115
29, 173160, Control_c, 12, 11, 116
29, 173177, Control_c, 12, 11, 117
29, 173193, Control_c, 12, 11, 118
29, 173210, Control_c, 12, 11, 119
29, 173226, Control_c, 12, 11, 120
29, 173242, Control_c, 12, 11, 121
29, 173258, Control_c, 12, 11, 122
29, 173274, Control_c, 12, 11, 123
29, 173280, Note_on_c, 12, 76, 0
29, 173291, Control_c, 12, 11, 124
29, 173302, Note_on_c, 12, 75, 85
29, 173307, Control_c, 12, 11, 125
29, 173323, Control_c, 12, 11, 126
29, 173764, Note_on_c, 12, 74, 67
29, 173782, Note_on_c, 12, 75, 0
29, 174244, Note_on_c, 12, 74, 0
29, 174244, Note_on_c, 12, 73, 73
29, 174724, Note_on_c, 12, 73, 0
29, 174745, Note_on_c, 12, 72, 71
29, 175129, Note_on_c, 12, 72, 0
29, 175202, Note_on_c, 12, 71, 76
29, 175682, Note_on_c, 12, 71, 0
29, 175694, Note_on_c, 12, 70, 83
29, 176174, Note_on_c, 12, 70, 0
29, 176177, Note_on_c, 12, 69, 67
29, 176648, Note_on_c, 12, 68, 65
29, 176657, Note_on_c, 12, 69, 0
29, 177128, Note_on_c, 12, 68, 0
29, 177128, Note_on_c, 12, 67, 69
29, 177606, Note_on_c, 12, 66, 80
29, 177608, Note_on_c, 12, 67, 0
29, 177894, Note_on_c, 12, 66, 0
29, 189593, Program_c, 12, 44
29, 192005, Note_on_c, 12, 84, 41
29, 192006, Note_on_c, 12, 95, 33
29, 193445, Note_on_c, 12, 84, 0
29, 193446, Note_on_c, 12, 95, 0
29, 193932, Note_on_c, 12, 84, 39
29, 193947, Note_on_c, 12, 95, 32
29, 194383, Note_on_c, 12, 95, 0
29, 194401, Note_on_c, 12, 84, 0
29, 194402, Note_on_c, 12, 95, 39
29, 194421, Note_on_c, 12, 84, 36
29, 195362, Note_on_c, 12, 95, 0
29, 195381, Note_on_c, 12, 84, 0
29, 195841, Note_on_c, 12, 84, 35
29, 195846, Note_on_c, 12, 95, 45
29, 196317, Note_on_c, 12, 84, 0
29, 196326, Note_on_c, 12, 95, 0
29, 196337, Note_on_c, 12, 84, 49
29, 196347, Note_on_c, 12, 95, 47
29, 197297, Note_on_c, 12, 84, 0
29, 197307, Note_on_c, 12, 95, 0
29, 197762, Note_on_c, 12, 84, 39
29, 197766, Note_on_c, 12, 95, 47
29, 198722, Note_on_c, 12, 84, 0
29, 198726, Note_on_c, 12, 95, 0
29, 199204, Note_on_c, 12, 84, 41
29, 199217, Note_on_c, 12, 95, 36
29, 200164, Note_on_c, 12, 84, 0
29, 200177, Note_on_c, 12, 95, 0
29, 208308, Program_c, 12, 48
29, 208344, Note_on_c, 12, 68, 51
29, 208382, Note_on_c, 12, 69, 52
29, 208404, Note_on_c, 12, 68, 0
29, 208442, Note_on_c, 12, 69, 0
29, 208453, Note_on_c, 12, 68, 72
29, 208506, Note_on_c, 12, 69, 60
29, 208513, Note_on_c, 12, 68, 0
29, 208566, Note_on_c, 12, 69, 0
29, 208566, Note_on_c, 12, 68, 71
29, 208626, Note_on_c, 12, 68, 0
29, 208634, Note_on_c, 12, 69, 62
29, 208682, Note_on_c, 12, 68, 74
29, 208694, Note_on_c, 12, 69, 0
29, 208742, Note_on_c, 12, 68, 0
29, 208756, Note_on_c, 12, 69, 65
29, 208812, Note_on_c, 12, 68, 67
29, 208816, Note_on_c, 12, 69, 0
29, 208870, Note_on_c, 12, 69, 72
29, 208872, Note_on_c, 12, 68, 0
29, 208930, Note_on_c, 12, 69, 0
29, 208943, Note_on_c, 12, 68, 77
29, 208985, Note_on_c, 12, 69, 65
29, 209003, Note_on_c, 12, 68, 0
29, 209045, Note_on_c, 12, 69, 0
29, 209060, Note_on_c, 12, 68, 73
29, 209100, Note_on_c, 12, 69, 76
29, 209120, Note_on_c, 12, 68, 0
29, 209160, Note_on_c, 12, 69, 0
29, 209178, Note_on_c, 12, 68, 86
29, 209232, Note_on_c, 12, 69, 77
29, 209238, Note_on_c, 12, 68, 0
29, 209291, Note_on_c, 12, 68, 80
29, 209292, Note_on_c, 12, 69, 0
29, 209385, Note_on_c, 12, 69, 81
29, 209387, Note_on_c, 12, 68, 0
29, 209473, Note_on_c, 12, 70, 80
29, 209481, Note_on_c, 12, 69, 0
29, 209568, Note_on_c, 12, 70, 0
29, 209568, Note_on_c, 12, 71, 91
29, 209664, Note_on_c, 12, 71, 0
29, 209690, Note_on_c, 12, 72, 88
29, 209785, Note_on_c, 12, 73, 89
29, 209786, Note_on_c, 12, 72, 0
29, 209848, Note_on_c, 12, 73, 0
29, 209867, Note_on_c, 12, 73, 86
29, 209934, Note_on_c, 12, 75, 94
29, 209946, Note_on_c, 12, 73, 0
29, 209998, Note_on_c, 12, 75, 0
29, 210017, Note_on_c, 12, 75, 105
29, 210084, Note_on_c, 12, 77, 100
29, 210097, Note_on_c, 12, 75, 0
29, 210163, Note_on_c, 12, 77, 0
29, 210185, Note_on_c, 12, 77, 96
29, 210265, Note_on_c, 12, 77, 0
29, 210267, Note_on_c, 12, 79, 96
29, 210387, Note_on_c, 12, 79, 0
29, 210723, Note_on_c, 12, 56, 106
29, 210728, Note_on_c, 12, 62, 97
29, 210963, Note_on_c, 12, 56, 0
29, 210968, Note_on_c, 12, 62, 0
29, 211212, Note_on_c, 12, 56, 93
29, 211226, Note_on_c, 12, 62, 108
29, 211452, Note_on_c, 12, 56, 0
29, 211466, Note_on_c, 12, 62, 0
29, 211680, Note_on_c, 12, 62, 102
29, 211685, Note_on_c, 12, 56, 109
29, 211920, Note_on_c, 12, 62, 0
29, 211925, Note_on_c, 12, 56, 0
29, 212181, Note_on_c, 12, 56, 103
29, 212185, Note_on_c, 12, 62, 95
29, 212421, Note_on_c, 12, 56, 0
29, 212425, Note_on_c, 12, 62, 0
29, 212645, Note_on_c, 12, 62, 96
29, 212660, Note_on_c, 12, 56, 96
29, 212885, Note_on_c, 12, 62, 0
29, 212900, Note_on_c, 12, 56, 0
29, 213129, Note_on_c, 12, 56, 93
29, 213146, Note_on_c, 12, 62, 108
29, 213369, Note_on_c, 12, 56, 0
29, 213386, Note_on_c, 12, 62, 0
29, 213606, Note_on_c, 12, 62, 107
29, 213628, Note_on_c, 12, 56, 108
29, 213846, Note_on_c, 12, 62, 0
29, 213868, Note_on_c, 12, 56, 0
29, 214089, Note_on_c, 12, 56, 102
29, 214102, Note_on_c, 12, 62, 94
29, 214329, Note_on_c, 12, 56, 0
29, 214342, Note_on_c, 12, 62, 0
29, 214574, Note_on_c, 12, 62, 100
29, 214579, Note_on_c, 12, 56, 110
29, 214814, Note_on_c, 12, 62, 0
29, 214819, Note_on_c, 12, 56, 0
29, 215046, Note_on_c, 12, 62, 101
29, 215048, Note_on_c, 12, 56, 104
29, 215286, Note_on_c, 12, 62, 0
29, 215288, Note_on_c, 12, 56, 0
29, 215527, Note_on_c, 12, 56, 109
29, 215530, Note_on_c, 12, 62, 96
29, 215767, Note_on_c, 12, 56, 0
29, 215770, Note_on_c, 12, 62, 0
29, 216240, Note_on_c, 12, 68, 111
29, 216246, Note_on_c, 12, 61, 103
29, 216259, Note_on_c, 12, 73, 115
29, 216480, Note_on_c, 12, 68, 0
29, 216486, Note_on_c, 12, 61, 0
29, 216499, Note_on_c, 12, 73, 0
29, 216557, Note_on_c, 12, 73, 114
29, 216617, Note_on_c, 12, 73, 0
29, 216626, Note_on_c, 12, 75, 112
29, 216669, Note_on_c, 12, 76, 101
29, 216686, Note_on_c, 12, 75, 0
29, 216729, Note_on_c, 12, 76, 0
29, 216734, Note_on_c, 12, 78, 102
29, 216830, Note_on_c, 12, 78, 0
29, 217440, Note_on_c, 12, 68, 113
29, 217456, Note_on_c, 12, 61, 109
29, 217468, Note_on_c, 12, 72, 117
29, 217676, Note_on_c, 12, 72, 0
29, 217680, Note_on_c, 12, 68, 0
29, 217695, Note_on_c, 12, 72, 110
29, 217696, Note_on_c, 12, 61, 0
29, 217755, Note_on_c, 12, 72, 0
29, 217763, Note_on_c, 12, 73, 113
29, 217815, Note_on_c, 12, 75, 101
29, 217823, Note_on_c, 12, 73, 0
29, 217860, Note_on_c, 12, 76, 117
29, 217875, Note_on_c, 12, 75, 0
29, 217920, Note_on_c, 12, 76, 0
29, 217934, Note_on_c, 12, 78, 104
29, 218030, Note_on_c, 12, 78, 0
29, 218657, Note_on_c, 12, 73, 108
29, 218663, Note_on_c, 12, 68, 114
29, 218668, Note_on_c, 12, 61, 119
29, 218897, Note_on_c, 12, 73, 0
29, 218903, Note_on_c, 12, 68, 0
29, 218908, Note_on_c, 12, 61, 0
29, 219128, Note_on_c, 12, 61, 118
29, 219135, Note_on_c, 12, 68, 115
29, 219140, Note_on_c, 12, 73, 111
29, 219368, Note_on_c, 12, 61, 0
29, 219375, Note_on_c, 12, 68, 0
29, 219380, Note_on_c, 12, 73, 0
29, 219605, Note_on_c, 12, 61, 115
29, 219612, Note_on_c, 12, 68, 102
29, 219625, Note_on_c, 12, 73, 108
29, 219845, Note_on_c, 12, 61, 0
29, 219852, Note_on_c, 12, 68, 0
29, 219865, Note_on_c, 12, 73, 0
29, 220084, Note_on_c, 12, 68, 109
29, 220089, Note_on_c, 12, 61, 115
29, 220097, Note_on_c, 12, 73, 100
29, 220324, Note_on_c, 12, 68, 0
29, 220329, Note_on_c, 12, 61, 0
29, 220337, Note_on_c, 12, 73, 0
29, 220804, Note_on_c, 12, 61, 107
29, 220809, Note_on_c, 12, 73, 112
29, 220821, Note_on_c, 12, 68, 100
29, 221044, Note_on_c, 12, 61, 0
29, 221049, Note_on_c, 12, 73, 0
29, 221061, Note_on_c, 12, 68, 0
29, 221102, Note_on_c, 12, 73, 120
29, 221162, Note_on_c, 12, 73, 0
29, 221189, Note_on_c, 12, 75, 114
29, 221239, Note_on_c, 12, 76, 105
29, 221249, Note_on_c, 12, 75, 0
29, 221284, Note_on_c, 12, 78, 96
29, 221299, Note_on_c, 12, 76, 0
29, 221380, Note_on_c, 12, 78, 0
29, 222017, Note_on_c, 12, 73, 100
29, 222021, Note_on_c, 12, 61, 114
29, 222025, Note_on_c, 12, 68, 108
29, 222257, Note_on_c, 12, 73, 0
29, 222261, Note_on_c, 12, 61, 0
29, 222265, Note_on_c, 12, 68, 0
29, 222480, Note_on_c, 12, 61, 113
29, 222481, Note_on_c, 12, 68, 115
29, 222495, Note_on_c, 12, 72, 103
29, 222720, Note_on_c, 12, 61, 0
29, 222721, Note_on_c, 12, 68, 0
29, 222727, Note_on_c, 12, 72, 0
29, 222746, Note_on_c, 12, 72, 117
29, 222795, Note_on_c, 12, 73, 108
29, 222806, Note_on_c, 12, 72, 0
29, 222849, Note_on_c, 12, 75, 112
29, 222855, Note_on_c, 12, 73, 0
29, 222909, Note_on_c, 12, 75, 0
29, 222915, Note_on_c, 12, 76, 115
29, 222975, Note_on_c, 12, 76, 0
29, 222987, Note_on_c, 12, 78, 93
29, 223083, Note_on_c, 12, 78, 0
29, 223682, Note_on_c, 12, 61, 117
29, 223696, Note_on_c, 12, 73, 116
29, 223704, Note_on_c, 12, 68, 108
29, 223922, Note_on_c, 12, 61, 0
29, 223936, Note_on_c, 12, 73, 0
29, 223944, Note_on_c, 12, 68, 0
29, 223982, Note_on_c, 12, 73, 111
29, 224042, Note_on_c, 12, 73, 0
29, 224053, Note_on_c, 12, 75, 114
29, 224109, Note_on_c, 12, 76, 112
29, 224113, Note_on_c, 12, 75, 0
29, 224169, Note_on_c, 12, 76, 0
29, 224179, Note_on_c, 12, 78, 118
29, 224258, Note_on_c, 12, 79, 115
29, 224259, Note_on_c, 12, 78, 0
29, 224337, Note_on_c, 12, 79, 0
29, 224337, Note_on_c, 12, 80, 103
29, 224408, Note_on_c, 12, 81, 103
29, 224417, Note_on_c, 12, 80, 0
29, 224488, Note_on_c, 12, 81, 0
29, 224491, Note_on_c, 12, 82, 109
29, 224565, Note_on_c, 12, 83, 104
29, 224570, Note_on_c, 12, 82, 0
29, 224641, Note_on_c, 12, 79, 111
29, 224645, Note_on_c, 12, 83, 0
29, 224721, Note_on_c, 12, 79, 0
29, 224732, Note_on_c, 12, 78, 105
29, 224801, Note_on_c, 12, 77, 100
29, 224811, Note_on_c, 12, 78, 0
29, 224881, Note_on_c, 12, 77, 0
29, 224892, Note_on_c, 12, 76, 116
29, 224969, Note_on_c, 12, 75, 102
29, 224972, Note_on_c, 12, 76, 0
29, 225048, Note_on_c, 12, 75, 0
29, 225062, Note_on_c, 12, 74, 104
29, 225139, Note_on_c, 12, 73, 109
29, 225142, Note_on_c, 12, 74, 0
29, 225192, Note_on_c, 12, 73, 0
29, 225387, Note_on_c, 12, 56, 80
29, 225494, Note_on_c, 12, 56, 0
29, 225846, Note_on_c, 12, 56, 86
29, 225953, Note_on_c, 12, 56, 0
29, 226337, Note_on_c, 12, 56, 93
29, 226444, Note_on_c, 12, 56, 0
29, 226823, Note_on_c, 12, 56, 80
29, 226930, Note_on_c, 12, 56, 0
29, 227290, Note_on_c, 12, 56, 88
29, 227397, Note_on_c, 12, 56, 0
29, 227768, Note_on_c, 12, 56, 88
29, 227875, Note_on_c, 12, 56, 0
29, 228259, Note_on_c, 12, 56, 83
29, 228366, Note_on_c, 12, 56, 0
29, 228979, Note_on_c, 12, 61, 82
29, 229022, Note_on_c, 12, 62, 86
29, 229039, Note_on_c, 12, 61, 0
29, 229082, Note_on_c, 12, 62, 0
29, 229102, Note_on_c, 12, 61, 78
29, 229145, Note_on_c, 12, 62, 87
29, 229162, Note_on_c, 12, 61, 0
29, 229205, Note_on_c, 12, 62, 0
29, 229220, Note_on_c, 12, 61, 91
29, 229280, Note_on_c, 12, 61, 0
29, 229281, Note_on_c, 12, 62, 97
29, 229321, Note_on_c, 12, 61, 85
29, 229341, Note_on_c, 12, 62, 0
29, 229381, Note_on_c, 12, 61, 0
29, 229386, Note_on_c, 12, 62, 93
29, 229446, Note_on_c, 12, 62, 0
29, 229939, Note_on_c, 12, 73, 88
29, 229992, Note_on_c, 12, 73, 0
29, 230179, Note_on_c, 12, 56, 82
29, 230286, Note_on_c, 12, 56, 0
29, 230646, Note_on_c, 12, 56, 90
29, 230753, Note_on_c, 12, 56, 0
29, 231147, Note_on_c, 12, 56, 89
29, 231254, Note_on_c, 12, 56, 0
29, 231609, Note_on_c, 12, 56, 95
29, 231716, Note_on_c, 12, 56, 0
29, 232098, Note_on_c, 12, 56, 78
29, 232205, Note_on_c, 12, 56, 0
29, 232565, Note_on_c, 12, 56, 78
29, 232672, Note_on_c, 12, 56, 0
29, 233068, Note_on_c, 12, 56, 78
29, 233175, Note_on_c, 12, 56, 0
29, 233532, Note_on_c, 12, 68, 116
29, 233533, Note_on_c, 12, 73, 112
29, 233546, Note_on_c, 12, 61, 107
29, 233772, Note_on_c, 12, 68, 0
29, 233773, Note_on_c, 12, 73, 0
29, 233786, Note_on_c, 12, 61, 0
29, 233833, Note_on_c, 12, 73, 106
29, 233893, Note_on_c, 12, 73, 0
29, 233894, Note_on_c, 12, 75, 108
29, 233949, Note_on_c, 12, 76, 117
29, 233954, Note_on_c, 12, 75, 0
29, 234009, Note_on_c, 12, 76, 0
29, 234013, Note_on_c, 12, 78, 100
29, 234093, Note_on_c, 12, 78, 0
29, 234099, Note_on_c, 12, 79, 119
29, 234167, Note_on_c, 12, 80, 119
29, 234178, Note_on_c, 12, 79, 0
29, 234241, Note_on_c, 12, 81, 100
29, 234247, Note_on_c, 12, 80, 0
29, 234321, Note_on_c, 12, 81, 0
29, 234323, Note_on_c, 12, 82, 114
29, 234402, Note_on_c, 12, 82, 0
29, 234405, Note_on_c, 12, 83, 103
29, 234485, Note_on_c, 12, 83, 0
29, 234491, Note_on_c, 12, 79, 104
29, 234570, Note_on_c, 12, 78, 108
29, 234571, Note_on_c, 12, 79, 0
29, 234649, Note_on_c, 12, 78, 0
29, 234663, Note_on_c, 12, 77, 113
29, 234735, Note_on_c, 12, 76, 108
29, 234743, Note_on_c, 12, 77, 0
29, 234801, Note_on_c, 12, 75, 120
29, 234815, Note_on_c, 12, 76, 0
29, 234880, Note_on_c, 12, 75, 0
29, 234894, Note_on_c, 12, 74, 101
29, 234974, Note_on_c, 12, 74, 0
29, 234985, Note_on_c, 12, 73, 107
29, 235038, Note_on_c, 12, 73, 0
29, 235218, Note_on_c, 12, 56, 92
29, 235266, Note_on_c, 12, 56, 0
29, 235699, Note_on_c, 12, 56, 83
29, 235747, Note_on_c, 12, 56, 0
29, 236172, Note_on_c, 12, 56, 80
29, 236220, Note_on_c, 12, 56, 0
29, 236663, Note_on_c, 12, 56, 96
29, 236711, Note_on_c, 12, 56, 0
29, 237137, Note_on_c, 12, 56, 98
29, 237185, Note_on_c, 12, 56, 0
29, 237610, Note_on_c, 12, 56, 84
29, 237658, Note_on_c, 12, 56, 0
29, 238105, Note_on_c, 12, 56, 83
29, 238153, Note_on_c, 12, 56, 0
29, 238571, Note_on_c, 12, 84, 93
29, 238811, Note_on_c, 12, 84, 0
29, 239062, Note_on_c, 12, 82, 83
29, 239302, Note_on_c, 12, 82, 0
29, 239534, Note_on_c, 12, 80, 82
29, 239774, Note_on_c, 12, 80, 0
29, 240008, Note_on_c, 12, 61, 115
29, 240014, Note_on_c, 12, 68, 117
29, 240024, Note_on_c, 12, 72, 113
29, 240245, Note_on_c, 12, 72, 0
29, 240248, Note_on_c, 12, 61, 0
29, 240254, Note_on_c, 12, 68, 0
29, 240264, Note_on_c, 12, 72, 119
29, 240318, Note_on_c, 12, 73, 102
29, 240324, Note_on_c, 12, 72, 0
29, 240362, Note_on_c, 12, 75, 116
29, 240378, Note_on_c, 12, 73, 0
29, 240422, Note_on_c, 12, 75, 0
29, 240447, Note_on_c, 12, 76, 108
29, 240507, Note_on_c, 12, 76, 0
29, 240508, Note_on_c, 12, 78, 108
29, 240604, Note_on_c, 12, 78, 0
29, 241227, Note_on_c, 12, 84, 96
29, 241467, Note_on_c, 12, 84, 0
29, 241689, Note_on_c, 12, 82, 97
29, 241929, Note_on_c, 12, 82, 0
29, 242164, Note_on_c, 12, 80, 111
29, 242404, Note_on_c, 12, 80, 0
29, 242668, Note_on_c, 12, 79, 106
29, 242908, Note_on_c, 12, 79, 0
29, 243375, Note_on_c, 12, 68, 102
29, 243376, Note_on_c, 12, 72, 118
29, 243379, Note_on_c, 12, 61, 104
29, 243592, Note_on_c, 12, 72, 0
29, 243612, Note_on_c, 12, 72, 102
29, 243615, Note_on_c, 12, 68, 0
29, 243619, Note_on_c, 12, 61, 0
29, 243663, Note_on_c, 12, 73, 107
29, 243672, Note_on_c, 12, 72, 0
29, 243723, Note_on_c, 12, 73, 0
29, 243748, Note_on_c, 12, 75, 111
29, 243792, Note_on_c, 12, 76, 112
29, 243808, Note_on_c, 12, 75, 0
29, 243849, Note_on_c, 12, 78, 99
29, 243852, Note_on_c, 12, 76, 0
29, 243945, Note_on_c, 12, 78, 0
29, 244570, Note_on_c, 12, 61, 108
29, 244573, Note_on_c, 12, 72, 105
29, 244587, Note_on_c, 12, 68, 110
29, 244810, Note_on_c, 12, 61, 0
29, 244813, Note_on_c, 12, 72, 0
29, 244827, Note_on_c, 12, 68, 0
29, 244872, Note_on_c, 12, 73, 113
29, 244925, Note_on_c, 12, 75, 114
29, 244932, Note_on_c, 12, 73, 0
29, 244983, Note_on_c, 12, 76, 112
29, 244985, Note_on_c, 12, 75, 0
29, 245041, Note_on_c, 12, 78, 92
29, 245043, Note_on_c, 12, 76, 0
29, 245137, Note_on_c, 12, 78, 0
29, 245776, Note_on_c, 12, 68, 109
29, 245779, Note_on_c, 12, 61, 109
29, 245781, Note_on_c, 12, 72, 104
29, 246016, Note_on_c, 12, 68, 0
29, 246019, Note_on_c, 12, 61, 0
29, 246021, Note_on_c, 12, 72, 0
29, 246259, Note_on_c, 12, 68, 102
29, 246263, Note_on_c, 12, 61, 109
29, 246265, Note_on_c, 12, 72, 111
29, 246470, Note_on_c, 12, 72, 0
29, 246489, Note_on_c, 12, 72, 105
29, 246499, Note_on_c, 12, 68, 0
29, 246503, Note_on_c, 12, 61, 0
29, 246549, Note_on_c, 12, 72, 0
29, 246558, Note_on_c, 12, 73, 120
29, 246618, Note_on_c, 12, 73, 0
29, 246628, Note_on_c, 12, 75, 105
29, 246668, Note_on_c, 12, 76, 114
29, 246688, Note_on_c, 12, 75, 0
29, 246728, Note_on_c, 12, 76, 0
29, 246742, Note_on_c, 12, 78, 97
29, 246838, Note_on_c, 12, 78, 0
29, 247448, Note_on_c, 12, 68, 114
29, 247465, Note_on_c, 12, 61, 107
29, 247468, Note_on_c, 12, 72, 103
29, 247688, Note_on_c, 12, 68, 0
29, 247705, Note_on_c, 12, 61, 0
29, 247708, Note_on_c, 12, 72, 0
29, 247767, Note_on_c, 12, 73, 117
29, 247811, Note_on_c, 12, 75, 102
29, 247827, Note_on_c, 12, 73, 0
29, 247871, Note_on_c, 12, 75, 0
29, 247875, Note_on_c, 12, 76, 117
29, 247935, Note_on_c, 12, 76, 0
29, 247936, Note_on_c, 12, 78, 94
29, 248032, Note_on_c, 12, 78, 0
29, 248660, Note_on_c, 12, 101, 119
29, 248900, Note_on_c, 12, 101, 0
29, 249292, Note_on_c, 12, 78, 102
29, 249452, Note_on_c, 12, 78, 0
29, 249453, Note_on_c, 12, 73, 107
29, 249613, Note_on_c, 12, 73, 0
29, 249767, Note_on_c, 12, 78, 97
29, 249925, Note_on_c, 12, 69, 91
29, 249927, Note_on_c, 12, 78, 0
29, 250085, Note_on_c, 12, 69, 0
29, 250262, Note_on_c, 12, 75, 111
29, 250417, Note_on_c, 12, 72, 95
29, 250422, Note_on_c, 12, 75, 0
29, 250577, Note_on_c, 12, 72, 0
29, 250804, Note_on_c, 12, 101, 108
29, 251044, Note_on_c, 12, 101, 0
29, 251455, Note_on_c, 12, 78, 109
29, 251615, Note_on_c, 12, 78, 0
29, 251628, Note_on_c, 12, 73, 107
29, 251788, Note_on_c, 12, 73, 0
29, 251937, Note_on_c, 12, 78, 91
29, 252097, Note_on_c, 12, 78, 0
29, 252104, Note_on_c, 12, 70, 95
29, 252264, Note_on_c, 12, 70, 0
29, 252414, Note_on_c, 12, 75, 102
29, 252564, Note_on_c, 12, 72, 91
29, 252574, Note_on_c, 12, 75, 0
29, 252724, Note_on_c, 12, 72, 0
29, 252893, Note_on_c, 12, 75, 101
29, 253046, Note_on_c, 12, 69, 94
29, 253053, Note_on_c, 12, 75, 0
29, 253206, Note_on_c, 12, 69, 0
29, 253461, Note_on_c, 12, 101, 121
29, 253701, Note_on_c, 12, 101, 0
29, 254089, Note_on_c, 12, 78, 123
29, 254248, Note_on_c, 12, 73, 107
29, 254249, Note_on_c, 12, 78, 0
29, 254408, Note_on_c, 12, 73, 0
29, 254564, Note_on_c, 12, 78, 105
29, 254724, Note_on_c, 12, 78, 0
29, 254747, Note_on_c, 12, 69, 124
29, 254907, Note_on_c, 12, 69, 0
29, 255047, Note_on_c, 12, 75, 119
29, 255207, Note_on_c, 12, 75, 0
29, 255228, Note_on_c, 12, 72, 109
29, 255388, Note_on_c, 12, 72, 0
29, 255543, Note_on_c, 12, 78, 111
29, 255691, Note_on_c, 12, 73, 119
29, 255703, Note_on_c, 12, 78, 0
29, 255845, Note_on_c, 12, 78, 122
29, 255851, Note_on_c, 12, 73, 0
29, 255962, Note_on_c, 12, 69, 117
29, 255965, Note_on_c, 12, 78, 0
29, 256082, Note_on_c, 12, 69, 0
29, 256346, Note_on_c, 12, 75, 117
29, 256466, Note_on_c, 12, 75, 0
29, 256467, Note_on_c, 12, 72, 107
29, 256587, Note_on_c, 12, 72, 0
29, 257040, Program_c, 12, 45
29, 257044, Note_on_c, 12, 59, 80
29, 257050, Note_on_c, 12, 70, 79
29, 257065, Note_on_c, 12, 65, 68
29, 257284, Note_on_c, 12, 59, 0
29, 257290, Note_on_c, 12, 70, 0
29, 257305, Note_on_c, 12, 65, 0
29, 257521, Note_on_c, 12, 61, 84
29, 257528, Note_on_c, 12, 72, 65
29, 257543, Note_on_c, 12, 66, 83
29, 257761, Note_on_c, 12, 61, 0
29, 257768, Note_on_c, 12, 72, 0
29, 257783, Note_on_c, 12, 66, 0
29, 258017, Note_on_c, 12, 62, 76
29, 258019, Note_on_c, 12, 68, 79
29, 258026, Note_on_c, 12, 73, 82
29, 258257, Note_on_c, 12, 62, 0
29, 258259, Note_on_c, 12, 68, 0
29, 258266, Note_on_c, 12, 73, 0
29, 258483, Note_on_c, 12, 59, 77
29, 258486, Note_on_c, 12, 64, 72
29, 258499, Note_on_c, 12, 70, 73
29, 258723, Note_on_c, 12, 59, 0
29, 258726, Note_on_c, 12, 64, 0
29, 258739, Note_on_c, 12, 70, 0
29, 258969, Note_on_c, 12, 62, 85
29, 258979, Note_on_c, 12, 73, 75
29, 258984, Note_on_c, 12, 68, 84
29, 259192, Program_c, 12, 48
29, 259209, Note_on_c, 12, 62, 0
29, 259219, Note_on_c, 12, 73, 0
29, 259224, Note_on_c, 12, 68, 0
29, 259365, Note_on_c, 12, 78, 108
29, 259461, Note_on_c, 12, 78, 0
29, 259534, Note_on_c, 12, 73, 103
29, 259597, Note_on_c, 12, 73, 0
29, 259865, Note_on_c, 12, 78, 96
29, 259961, Note_on_c, 12, 78, 0
29, 260018, Note_on_c, 12, 69, 93
29, 260081, Note_on_c, 12, 69, 0
29, 260325, Note_on_c, 12, 75, 108
29, 260421, Note_on_c, 12, 75, 0
29, 260485, Note_on_c, 12, 72, 102
29, 260548, Note_on_c, 12, 72, 0
29, 260822, Note_on_c, 12, 78, 95
29, 260918, Note_on_c, 12, 78, 0
29, 260969, Note_on_c, 12, 73, 102
29, 261032, Note_on_c, 12, 73, 0
29, 261295, Note_on_c, 12, 78, 110
29, 261391, Note_on_c, 12, 78, 0
29, 261450, Note_on_c, 12, 69, 96
29, 261513, Note_on_c, 12, 69, 0
29, 261609, Note_on_c, 12, 75, 104
29, 261729, Note_on_c, 12, 75, 0
29, 261740, Note_on_c, 12, 72, 103
29, 261860, Note_on_c, 12, 72, 0
29, 262241, Note_on_c, 12, 78, 100
29, 262337, Note_on_c, 12, 78, 0
29, 262401, Note_on_c, 12, 73, 109
29, 262561, Note_on_c, 12, 73, 0
29, 262570, Note_on_c, 12, 78, 105
29, 262686, Note_on_c, 12, 69, 111
29, 262690, Note_on_c, 12, 78, 0
29, 262806, Note_on_c, 12, 69, 0
29, 263046, Note_on_c, 12, 75, 95
29, 263163, Note_on_c, 12, 72, 94
29, 263166, Note_on_c, 12, 75, 0
29, 263283, Note_on_c, 12, 72, 0
29, 263510, Program_c, 12, 45
29, 263696, Note_on_c, 12, 56, 107
29, 263776, Note_on_c, 12, 56, 0
29, 263864, Note_on_c, 12, 58, 98
29, 263944, Note_on_c, 12, 58, 0
29, 264023, Note_on_c, 12, 60, 104
29, 264103, Note_on_c, 12, 60, 0
29, 264181, Note_on_c, 12, 61, 110
29, 264261, Note_on_c, 12, 61, 0
29, 264333, Note_on_c, 12, 63, 94
29, 264413, Note_on_c, 12, 63, 0
29, 264733, Note_on_c, 12, 70, 58
29, 264738, Note_on_c, 12, 65, 72
29, 264744, Note_on_c, 12, 59, 59
29, 264973, Note_on_c, 12, 70, 0
29, 264978, Note_on_c, 12, 65, 0
29, 264984, Note_on_c, 12, 59, 0
29, 265204, Note_on_c, 12, 66, 67
29, 265208, Note_on_c, 12, 72, 53
29, 265224, Note_on_c, 12, 61, 53
29, 265444, Note_on_c, 12, 66, 0
29, 265448, Note_on_c, 12, 72, 0
29, 265464, Note_on_c, 12, 61, 0
29, 265690, Note_on_c, 12, 68, 68
29, 265692, Note_on_c, 12, 62, 59
29, 265699, Note_on_c, 12, 73, 61
29, 265930, Note_on_c, 12, 68, 0
29, 265932, Note_on_c, 12, 62, 0
29, 265939, Note_on_c, 12, 73, 0
29, 266169, Note_on_c, 12, 70, 68
29, 266175, Note_on_c, 12, 64, 71
29, 266181, Note_on_c, 12, 59, 52
29, 266409, Note_on_c, 12, 70, 0
29, 266415, Note_on_c, 12, 64, 0
29, 266421, Note_on_c, 12, 59, 0
29, 266648, Note_on_c, 12, 68, 58
29, 266657, Note_on_c, 12, 62, 60
29, 266662, Note_on_c, 12, 73, 59
29, 266888, Note_on_c, 12, 68, 0
29, 266897, Note_on_c, 12, 62, 0
29, 266902, Note_on_c, 12, 73, 0
29, 267128, Note_on_c, 12, 70, 58
29, 267145, Note_on_c, 12, 59, 56
29, 267145, Note_on_c, 12, 65, 55
29, 267368, Note_on_c, 12, 70, 0
29, 267385, Note_on_c, 12, 59, 0
29, 267385, Note_on_c, 12, 65, 0
29, 267602, Note_on_c, 12, 72, 67
29, 267612, Note_on_c, 12, 66, 71
29, 267620, Note_on_c, 12, 61, 52
29, 267842, Note_on_c, 12, 72, 0
29, 267852, Note_on_c, 12, 66, 0
29, 267860, Note_on_c, 12, 61, 0
29, 268089, Note_on_c, 12, 62, 64
29, 268100, Note_on_c, 12, 73, 54
29, 268108, Note_on_c, 12, 68, 61
29, 268329, Note_on_c, 12, 62, 0
29, 268340, Note_on_c, 12, 73, 0
29, 268348, Note_on_c, 12, 68, 0
29, 268563, Note_on_c, 12, 64, 61
29, 268575, Note_on_c, 12, 70, 68
29, 268579, Note_on_c, 12, 59, 64
29, 268803, Note_on_c, 12, 64, 0
29, 268815, Note_on_c, 12, 70, 0
29, 268819, Note_on_c, 12, 59, 0
29, 269062, Note_on_c, 12, 68, 60
29, 269065, Note_on_c, 12, 62, 72
29, 269068, Note_on_c, 12, 73, 63
29, 269302, Note_on_c, 12, 68, 0
29, 269305, Note_on_c, 12, 62, 0
29, 269308, Note_on_c, 12, 73, 0
29, 269539, Note_on_c, 12, 61, 62
29, 269541, Note_on_c, 12, 66, 72
29, 269543, Note_on_c, 12, 72, 56
29, 269779, Note_on_c, 12, 61, 0
29, 269781, Note_on_c, 12, 66, 0
29, 269783, Note_on_c, 12, 72, 0
29, 270000, Note_on_c, 12, 65, 74
29, 270014, Note_on_c, 12, 63, 65
29, 270240, Note_on_c, 12, 65, 0
29, 270254, Note_on_c, 12, 63, 0
29, 270488, Note_on_c, 12, 63, 85
29, 270497, Note_on_c, 12, 66, 83
29, 270728, Note_on_c, 12, 63, 0
29, 270737, Note_on_c, 12, 66, 0
29, 270962, Note_on_c, 12, 63, 84
29, 270971, Note_on_c, 12, 68, 78
29, 271202, Note_on_c, 12, 63, 0
29, 271211, Note_on_c, 12, 68, 0
29, 271443, Note_on_c, 12, 63, 70
29, 271458, Note_on_c, 12, 64, 77
29, 271683, Note_on_c, 12, 63, 0
29, 271698, Note_on_c, 12, 64, 0
29, 271940, Note_on_c, 12, 63, 80
29, 271941, Note_on_c, 12, 68, 83
29, 272180, Note_on_c, 12, 63, 0
29, 272181, Note_on_c, 12, 68, 0
29, 272401, Note_on_c, 12, 63, 70
29, 272413, Note_on_c, 12, 65, 83
29, 272641, Note_on_c, 12, 63, 0
29, 272653, Note_on_c, 12, 65, 0
29, 272884, Note_on_c, 12, 66, 67
29, 272901, Note_on_c, 12, 63, 78
29, 273124, Note_on_c, 12, 66, 0
29, 273141, Note_on_c, 12, 63, 0
29, 273363, Note_on_c, 12, 68, 75
29, 273364, Note_on_c, 12, 63, 85
29, 273603, Note_on_c, 12, 68, 0
29, 273604, Note_on_c, 12, 63, 0
29, 273859, Note_on_c, 12, 63, 70
29, 273866, Note_on_c, 12, 64, 83
29, 274099, Note_on_c, 12, 63, 0
29, 274106, Note_on_c, 12, 64, 0
29, 274340, Note_on_c, 12, 63, 84
29, 274346, Note_on_c, 12, 68, 76
29, 274580, Note_on_c, 12, 63, 0
29, 274586, Note_on_c, 12, 68, 0
29, 274801, Note_on_c, 12, 63, 85
29, 274802, Note_on_c, 12, 66, 79
29, 275041, Note_on_c, 12, 63, 0
29, 275042, Note_on_c, 12, 66, 0
29, 275287, Note_on_c, 12, 65, 80
29, 275302, Note_on_c, 12, 63, 81
29, 275527, Note_on_c, 12, 65, 0
29, 275542, Note_on_c, 12, 63, 0
29, 275770, Note_on_c, 12, 63, 82
29, 275780, Note_on_c, 12, 66, 84
29, 276010, Note_on_c, 12, 63, 0
29, 276020, Note_on_c, 12, 66, 0
29, 276265, Note_on_c, 12, 68, 72
29, 276266, Note_on_c, 12, 63, 81
29, 276505, Note_on_c, 12, 68, 0
29, 276506, Note_on_c, 12, 63, 0
29, 276727, Note_on_c, 12, 64, 83
29, 276746, Note_on_c, 12, 63, 85
29, 276967, Note_on_c, 12, 64, 0
29, 276986, Note_on_c, 12, 63, 0
29, 277216, Note_on_c, 12, 63, 75
29, 277223, Note_on_c, 12, 68, 77
29, 277456, Note_on_c, 12, 63, 0
29, 277463, Note_on_c, 12, 68, 0
29, 277686, Note_on_c, 12, 64, 84
29, 277696, Note_on_c, 12, 63, 79
29, 277926, Note_on_c, 12, 64, 0
29, 277936, Note_on_c, 12, 63, 0
29, 278176, Note_on_c, 12, 63, 76
29, 278187, Note_on_c, 12, 67, 75
29, 278416, Note_on_c, 12, 63, 0
29, 278427, Note_on_c, 12, 67, 0
29, 278652, Note_on_c, 12, 63, 83
29, 278661, Note_on_c, 12, 68, 75
29, 278892, Note_on_c, 12, 63, 0
29, 278901, Note_on_c, 12, 68, 0
29, 279133, Note_on_c, 12, 63, 68
29, 279142, Note_on_c, 12, 65, 70
29, 279373, Note_on_c, 12, 63, 0
29, 279382, Note_on_c, 12, 65, 0
29, 279603, Note_on_c, 12, 67, 74
29, 279613, Note_on_c, 12, 63, 71
29, 279840, Program_c, 12, 48
29, 279841, Note_on_c, 12, 63, 0
29, 279843, Note_on_c, 12, 67, 0
29, 279860, Note_on_c, 12, 63, 95
29, 279922, Note_on_c, 12, 65, 98
29, 279928, Note_on_c, 12, 63, 0
29, 279984, Note_on_c, 12, 66, 98
29, 279991, Note_on_c, 12, 65, 0
29, 280052, Note_on_c, 12, 66, 0
29, 280060, Note_on_c, 12, 68, 91
29, 280128, Note_on_c, 12, 68, 0
29, 280139, Note_on_c, 12, 70, 94
29, 280183, Note_on_c, 12, 72, 105
29, 280207, Note_on_c, 12, 70, 0
29, 280252, Note_on_c, 12, 72, 0
29, 280279, Note_on_c, 12, 73, 91
29, 280347, Note_on_c, 12, 73, 0
29, 280349, Note_on_c, 12, 75, 97
29, 280415, Note_on_c, 12, 73, 96
29, 280417, Note_on_c, 12, 75, 0
29, 280484, Note_on_c, 12, 73, 0
29, 280484, Note_on_c, 12, 72, 102
29, 280543, Note_on_c, 12, 70, 104
29, 280552, Note_on_c, 12, 72, 0
29, 280611, Note_on_c, 12, 70, 0
29, 280611, Note_on_c, 12, 68, 105
29, 280664, Note_on_c, 12, 66, 111
29, 280679, Note_on_c, 12, 68, 0
29, 280733, Note_on_c, 12, 66, 0
29, 280748, Note_on_c, 12, 65, 104
29, 280804, Note_on_c, 12, 63, 105
29, 280816, Note_on_c, 12, 65, 0
29, 280924, Note_on_c, 12, 63, 0
29, 281525, Note_on_c, 12, 64, 75
29, 281532, Note_on_c, 12, 63, 72
29, 281765, Note_on_c, 12, 64, 0
29, 281772, Note_on_c, 12, 63, 0
29, 282011, Note_on_c, 12, 63, 68
29, 282023, Note_on_c, 12, 67, 75
29, 282251, Note_on_c, 12, 63, 0
29, 282263, Note_on_c, 12, 67, 0
29, 282487, Note_on_c, 12, 68, 83
29, 282499, Note_on_c, 12, 63, 83
29, 282727, Note_on_c, 12, 68, 0
29, 282739, Note_on_c, 12, 63, 0
29, 282978, Note_on_c, 12, 65, 66
29, 282981, Note_on_c, 12, 63, 79
29, 283218, Note_on_c, 12, 65, 0
29, 283221, Note_on_c, 12, 63, 0
29, 283453, Note_on_c, 12, 63, 68
29, 283460, Note_on_c, 12, 68, 79
29, 283693, Note_on_c, 12, 63, 0
29, 283700, Note_on_c, 12, 68, 0
29, 283927, Note_on_c, 12, 63, 82
29, 283927, Note_on_c, 12, 67, 67
29, 284160, Program_c, 12, 48
29, 284166, Note_on_c, 12, 63, 0
29, 284167, Note_on_c, 12, 67, 0
29, 284185, Note_on_c, 12, 63, 91
29, 284248, Note_on_c, 12, 65, 98
29, 284253, Note_on_c, 12, 63, 0
29, 284317, Note_on_c, 12, 65, 0
29, 284322, Note_on_c, 12, 66, 105
29, 284376, Note_on_c, 12, 68, 104
29, 284390, Note_on_c, 12, 66, 0
29, 284434, Note_on_c, 12, 70, 93
29, 284444, Note_on_c, 12, 68, 0
29, 284502, Note_on_c, 12, 70, 0
29, 284529, Note_on_c, 12, 72, 97
29, 284583, Note_on_c, 12, 73, 96
29, 284598, Note_on_c, 12, 72, 0
29, 284647, Note_on_c, 12, 75, 107
29, 284651, Note_on_c, 12, 73, 0
29, 284715, Note_on_c, 12, 75, 0
29, 284724, Note_on_c, 12, 73, 108
29, 284793, Note_on_c, 12, 73, 0
29, 284795, Note_on_c, 12, 72, 105
29, 284863, Note_on_c, 12, 72, 0
29, 284873, Note_on_c, 12, 70, 93
29, 284939, Note_on_c, 12, 68, 91
29, 284941, Note_on_c, 12, 70, 0
29, 284989, Note_on_c, 12, 66, 97
29, 285007, Note_on_c, 12, 68, 0
29, 285058, Note_on_c, 12, 66, 0
29, 285069, Note_on_c, 12, 65, 105
29, 285137, Note_on_c, 12, 65, 0
29, 285369, Note_on_c, 12, 63, 76
29, 285379, Note_on_c, 12, 64, 71
29, 285609, Note_on_c, 12, 63, 0
29, 285619, Note_on_c, 12, 64, 0
29, 285848, Note_on_c, 12, 63, 74
29, 285850, Note_on_c, 12, 67, 73
29, 286088, Note_on_c, 12, 63, 0
29, 286090, Note_on_c, 12, 67, 0
29, 286329, Note_on_c, 12, 68, 79
29, 286337, Note_on_c, 12, 63, 77
29, 286545, Note_on_c, 12, 63, 0
29, 286560, Program_c, 12, 48
29, 286564, Note_on_c, 12, 63, 97
29, 286569, Note_on_c, 12, 68, 0
29, 286632, Note_on_c, 12, 63, 0
29, 286640, Note_on_c, 12, 65, 110
29, 286709, Note_on_c, 12, 65, 0
29, 286711, Note_on_c, 12, 66, 110
29, 286779, Note_on_c, 12, 66, 0
29, 286788, Note_on_c, 12, 68, 111
29, 286856, Note_on_c, 12, 68, 0
29, 286856, Note_on_c, 12, 70, 95
29, 286921, Note_on_c, 12, 72, 94
29, 286924, Note_on_c, 12, 70, 0
29, 286987, Note_on_c, 12, 73, 110
29, 286990, Note_on_c, 12, 72, 0
29, 287045, Note_on_c, 12, 75, 103
29, 287055, Note_on_c, 12, 73, 0
29, 287113, Note_on_c, 12, 75, 0
29, 287133, Note_on_c, 12, 73, 95
29, 287196, Note_on_c, 12, 72, 99
29, 287202, Note_on_c, 12, 73, 0
29, 287258, Note_on_c, 12, 70, 93
29, 287264, Note_on_c, 12, 72, 0
29, 287326, Note_on_c, 12, 70, 0
29, 287341, Note_on_c, 12, 68, 108
29, 287391, Note_on_c, 12, 66, 104
29, 287409, Note_on_c, 12, 68, 0
29, 287457, Note_on_c, 12, 65, 106
29, 287460, Note_on_c, 12, 66, 0
29, 287525, Note_on_c, 12, 65, 0
29, 287536, Note_on_c, 12, 63, 107
29, 287594, Note_on_c, 12, 65, 104
29, 287604, Note_on_c, 12, 63, 0
29, 287663, Note_on_c, 12, 65, 0
29, 287675, Note_on_c, 12, 66, 91
29, 287736, Note_on_c, 12, 68, 102
29, 287743, Note_on_c, 12, 66, 0
29, 287804, Note_on_c, 12, 68, 0
29, 287815, Note_on_c, 12, 70, 111
29, 287883, Note_on_c, 12, 70, 0
29, 287885, Note_on_c, 12, 72, 98
29, 287952, Note_on_c, 12, 73, 109
29, 287954, Note_on_c, 12, 72, 0
29, 288002, Note_on_c, 12, 75, 95
29, 288020, Note_on_c, 12, 73, 0
29, 288122, Note_on_c, 12, 75, 0
29, 289228, Note_on_c, 12, 62, 96
29, 289287, Note_on_c, 12, 62, 0
29, 289306, Note_on_c, 12, 62, 94
29, 289375, Note_on_c, 12, 66, 101
29, 289385, Note_on_c, 12, 62, 0
29, 289421, Note_on_c, 12, 66, 0
29, 289441, Note_on_c, 12, 66, 99
29, 289521, Note_on_c, 12, 66, 0
29, 289537, Note_on_c, 12, 70, 97
29, 289594, Note_on_c, 12, 70, 0
29, 289613, Note_on_c, 12, 70, 99
29, 289693, Note_on_c, 12, 70, 0
29, 289707, Note_on_c, 12, 73, 92
29, 289756, Note_on_c, 12, 73, 0
29, 289775, Note_on_c, 12, 73, 100
29, 289851, Note_on_c, 12, 77, 109
29, 289854, Note_on_c, 12, 73, 0
29, 289905, Note_on_c, 12, 77, 0
29, 289924, Note_on_c, 12, 77, 105
29, 290004, Note_on_c, 12, 77, 0
29, 290010, Note_on_c, 12, 81, 102
29, 290080, Note_on_c, 12, 81, 0
29, 290099, Note_on_c, 12, 81, 110
29, 290177, Note_on_c, 12, 84, 94
29, 290179, Note_on_c, 12, 81, 0
29, 290297, Note_on_c, 12, 84, 0
29, 290880, Note_on_c, 12, 73, 117
29, 290887, Note_on_c, 12, 68, 109
29, 290892, Note_on_c, 12, 61, 111
29, 291120, Note_on_c, 12, 73, 0
29, 291127, Note_on_c, 12, 68, 0
29, 291132, Note_on_c, 12, 61, 0
29, 291196, Note_on_c, 12, 73, 114
29, 291243, Note_on_c, 12, 75, 100
29, 291256, Note_on_c, 12, 73, 0
29, 291303, Note_on_c, 12, 75, 0
29, 291309, Note_on_c, 12, 76, 100
29, 291365, Note_on_c, 12, 78, 94
29, 291369, Note_on_c, 12, 76, 0
29, 291461, Note_on_c, 12, 78, 0
29, 292080, Note_on_c, 12, 61, 119
29, 292095, Note_on_c, 12, 72, 115
29, 292097, Note_on_c, 12, 68, 120
29, 292320, Note_on_c, 12, 61, 0
29, 292335, Note_on_c, 12, 72, 0
29, 292337, Note_on_c, 12, 68, 0
29, 292385, Note_on_c, 12, 73, 113
29, 292445, Note_on_c, 12, 73, 0
29, 292457, Note_on_c, 12, 75, 107
29, 292506, Note_on_c, 12, 76, 118
29, 292517, Note_on_c, 12, 75, 0
29, 292566, Note_on_c, 12, 76, 0
29, 292580, Note_on_c, 12, 78, 102
29, 292676, Note_on_c, 12, 78, 0
29, 293298, Note_on_c, 12, 61, 116
29, 293300, Note_on_c, 12, 73, 116
29, 293301, Note_on_c, 12, 68, 118
29, 293538, Note_on_c, 12, 61, 0
29, 293540, Note_on_c, 12, 73, 0
29, 293541, Note_on_c, 12, 68, 0
29, 293760, Note_on_c, 12, 68, 105
29, 293763, Note_on_c, 12, 73, 111
29, 293783, Note_on_c, 12, 61, 114
29, 294000, Note_on_c, 12, 68, 0
29, 294003, Note_on_c, 12, 73, 0
29, 294023, Note_on_c, 12, 61, 0
29, 294251, Note_on_c, 12, 68, 105
29, 294256, Note_on_c, 12, 61, 110
29, 294259, Note_on_c, 12, 73, 101
29, 294491, Note_on_c, 12, 68, 0
29, 294496, Note_on_c, 12, 61, 0
29, 294499, Note_on_c, 12, 73, 0
29, 294725, Note_on_c, 12, 73, 119
29, 294729, Note_on_c, 12, 61, 120
29, 294741, Note_on_c, 12, 68, 107
29, 294965, Note_on_c, 12, 73, 0
29, 294969, Note_on_c, 12, 61, 0
29, 294981, Note_on_c, 12, 68, 0
29, 295442, Note_on_c, 12, 73, 102
29, 295445, Note_on_c, 12, 61, 113
29, 295461, Note_on_c, 12, 68, 104
29, 295682, Note_on_c, 12, 73, 0
29, 295685, Note_on_c, 12, 61, 0
29, 295701, Note_on_c, 12, 68, 0
29, 295748, Note_on_c, 12, 73, 109
29, 295808, Note_on_c, 12, 73, 0
29, 295818, Note_on_c, 12, 75, 108
29, 295878, Note_on_c, 12, 75, 0
29, 295879, Note_on_c, 12, 76, 110
29, 295935, Note_on_c, 12, 78, 101
29, 295939, Note_on_c, 12, 76, 0
29, 296031, Note_on_c, 12, 78, 0
29, 296640, Note_on_c, 12, 73, 115
29, 296649, Note_on_c, 12, 61, 116
29, 296656, Note_on_c, 12, 68, 108
29, 296880, Note_on_c, 12, 73, 0
29, 296889, Note_on_c, 12, 61, 0
29, 296896, Note_on_c, 12, 68, 0
29, 297123, Note_on_c, 12, 61, 106
29, 297126, Note_on_c, 12, 72, 104
29, 297133, Note_on_c, 12, 68, 115
29, 297344, Note_on_c, 12, 72, 0
29, 297363, Note_on_c, 12, 61, 0
29, 297363, Note_on_c, 12, 72, 102
29, 297373, Note_on_c, 12, 68, 0
29, 297423, Note_on_c, 12, 72, 0
29, 297440, Note_on_c, 12, 73, 119
29, 297493, Note_on_c, 12, 75, 120
29, 297500, Note_on_c, 12, 73, 0
29, 297553, Note_on_c, 12, 75, 0
29, 297567, Note_on_c, 12, 76, 104
29, 297605, Note_on_c, 12, 78, 91
29, 297627, Note_on_c, 12, 76, 0
29, 297701, Note_on_c, 12, 78, 0
29, 298325, Note_on_c, 12, 73, 116
29, 298329, Note_on_c, 12, 61, 111
29, 298347, Note_on_c, 12, 68, 101
29, 298565, Note_on_c, 12, 73, 0
29, 298569, Note_on_c, 12, 61, 0
29, 298587, Note_on_c, 12, 68, 0
29, 298628, Note_on_c, 12, 73, 119
29, 298688, Note_on_c, 12, 73, 0
29, 298688, Note_on_c, 12, 75, 108
29, 298743, Note_on_c, 12, 76, 120
29, 298748, Note_on_c, 12, 75, 0
29, 298803, Note_on_c, 12, 76, 0
29, 298808, Note_on_c, 12, 78, 109
29, 298904, Note_on_c, 12, 78, 0
29, 299548, Note_on_c, 12, 84, 91
29, 299788, Note_on_c, 12, 84, 0
29, 300006, Note_on_c, 12, 82, 109
29, 300246, Note_on_c, 12, 82, 0
29, 300483, Note_on_c, 12, 80, 106
29, 300723, Note_on_c, 12, 80, 0
29, 300961, Note_on_c, 12, 68, 120
29, 300980, Note_on_c, 12, 72, 120
29, 300981, Note_on_c, 12, 61, 110
29, 301201, Note_on_c, 12, 68, 0
29, 301201, Note_on_c, 12, 72, 0
29, 301221, Note_on_c, 12, 61, 0
29, 301221, Note_on_c, 12, 72, 116
29, 301281, Note_on_c, 12, 72, 0
29, 301284, Note_on_c, 12, 73, 106
29, 301330, Note_on_c, 12, 75, 110
29, 301344, Note_on_c, 12, 73, 0
29, 301390, Note_on_c, 12, 75, 0
29, 301404, Note_on_c, 12, 76, 103
29, 301464, Note_on_c, 12, 76, 0
29, 301465, Note_on_c, 12, 78, 110
29, 301561, Note_on_c, 12, 78, 0
29, 302188, Note_on_c, 12, 84, 110
29, 302428, Note_on_c, 12, 84, 0
29, 302660, Note_on_c, 12, 82, 109
29, 302900, Note_on_c, 12, 82, 0
29, 303140, Note_on_c, 12, 80, 94
29, 303380, Note_on_c, 12, 80, 0
29, 303627, Note_on_c, 12, 79, 97
29, 303867, Note_on_c, 12, 79, 0
29, 304342, Note_on_c, 12, 72, 104
29, 304343, Note_on_c, 12, 68, 100
29, 304344, Note_on_c, 12, 61, 111
29, 304568, Note_on_c, 12, 72, 0
29, 304583, Note_on_c, 12, 68, 0
29, 304584, Note_on_c, 12, 61, 0
29, 304587, Note_on_c, 12, 72, 109
29, 304633, Note_on_c, 12, 73, 112
29, 304647, Note_on_c, 12, 72, 0
29, 304683, Note_on_c, 12, 75, 114
29, 304693, Note_on_c, 12, 73, 0
29, 304742, Note_on_c, 12, 76, 104
29, 304743, Note_on_c, 12, 75, 0
29, 304802, Note_on_c, 12, 76, 0
29, 304827, Note_on_c, 12, 78, 101
29, 304923, Note_on_c, 12, 78, 0
29, 305525, Note_on_c, 12, 68, 107
29, 305531, Note_on_c, 12, 72, 110
29, 305541, Note_on_c, 12, 61, 108
29, 305752, Note_on_c, 12, 72, 0
29, 305765, Note_on_c, 12, 68, 0
29, 305771, Note_on_c, 12, 72, 110
29, 305781, Note_on_c, 12, 61, 0
29, 305831, Note_on_c, 12, 72, 0
29, 305831, Note_on_c, 12, 73, 116
29, 305891, Note_on_c, 12, 73, 0
29, 305891, Note_on_c, 12, 75, 109
29, 305951, Note_on_c, 12, 75, 0
29, 305961, Note_on_c, 12, 76, 117
29, 306006, Note_on_c, 12, 78, 101
29, 306021, Note_on_c, 12, 76, 0
29, 306102, Note_on_c, 12, 78, 0
29, 306729, Note_on_c, 12, 61, 119
29, 306735, Note_on_c, 12, 73, 118
29, 306746, Note_on_c, 12, 68, 111
29, 306969, Note_on_c, 12, 61, 0
29, 306975, Note_on_c, 12, 73, 0
29, 306986, Note_on_c, 12, 68, 0
29, 307207, Note_on_c, 12, 72, 100
29, 307211, Note_on_c, 12, 61, 114
29, 307215, Note_on_c, 12, 68, 112
29, 307424, Note_on_c, 12, 72, 0
29, 307443, Note_on_c, 12, 72, 104
29, 307451, Note_on_c, 12, 61, 0
29, 307455, Note_on_c, 12, 68, 0
29, 307502, Note_on_c, 12, 73, 104
29, 307503, Note_on_c, 12, 72, 0
29, 307562, Note_on_c, 12, 73, 0
29, 307571, Note_on_c, 12, 75, 112
29, 307631, Note_on_c, 12, 75, 0
29, 307643, Note_on_c, 12, 76, 117
29, 307703, Note_on_c, 12, 76, 0
29, 307705, Note_on_c, 12, 78, 96
29, 307801, Note_on_c, 12, 78, 0
29, 308403, Note_on_c, 12, 68, 115
29, 308408, Note_on_c, 12, 72, 110
29, 308416, Note_on_c, 12, 61, 115
29, 308633, Note_on_c, 12, 72, 0
29, 308643, Note_on_c, 12, 68, 0
29, 308652, Note_on_c, 12, 72, 102
29, 308656, Note_on_c, 12, 61, 0
29, 308702, Note_on_c, 12, 73, 109
29, 308712, Note_on_c, 12, 72, 0
29, 308762, Note_on_c, 12, 73, 0
29, 308772, Note_on_c, 12, 75, 103
29, 308832, Note_on_c, 12, 75, 0
29, 308839, Note_on_c, 12, 76, 105
29, 308899, Note_on_c, 12, 76, 0
29, 308904, Note_on_c, 12, 78, 103
29, 309000, Note_on_c, 12, 78, 0
29, 322320, Program_c, 12, 48
29, 322337, Note_on_c, 12, 69, 94
29, 322342, Note_on_c, 12, 84, 97
29, 322344, Note_on_c, 12, 64, 97
29, 322817, Note_on_c, 12, 69, 0
29, 322822, Note_on_c, 12, 84, 0
29, 322824, Note_on_c, 12, 64, 0
29, 323286, Note_on_c, 12, 69, 103
29, 323291, Note_on_c, 12, 84, 108
29, 323292, Note_on_c, 12, 64, 103
29, 323766, Note_on_c, 12, 69, 0
29, 323771, Note_on_c, 12, 84, 0
29, 323772, Note_on_c, 12, 64, 0
29, 329547, Note_on_c, 12, 55, 39
29, 329547, Note_on_c, 12, 60, 36
29, 329739, Note_on_c, 12, 55, 0
29, 329739, Note_on_c, 12, 60, 0
29, 330007, Note_on_c, 12, 55, 37
29, 330015, Note_on_c, 12, 60, 45
29, 330199, Note_on_c, 12, 55, 0
29, 330207, Note_on_c, 12, 60, 0
29, 330486, Note_on_c, 12, 58, 32
29, 330507, Note_on_c, 12, 62, 42
29, 330678, Note_on_c, 12, 58, 0
29, 330699, Note_on_c, 12, 62, 0
29, 330964, Note_on_c, 12, 55, 31
29, 330983, Note_on_c, 12, 60, 41
29, 331156, Note_on_c, 12, 55, 0
29, 331175, Note_on_c, 12, 60, 0
29, 331466, Note_on_c, 12, 62, 48
29, 331467, Note_on_c, 12, 58, 34
29, 331658, Note_on_c, 12, 62, 0
29, 331659, Note_on_c, 12, 58, 0
29, 331931, Note_on_c, 12, 55, 43
29, 331937, Note_on_c, 12, 60, 48
29, 332123, Note_on_c, 12, 55, 0
29, 332129, Note_on_c, 12, 60, 0
29, 341526, Note_on_c, 12, 64, 98
29, 341530, Note_on_c, 12, 84, 109
29, 341545, Note_on_c, 12, 74, 95
29, 342006, Note_on_c, 12, 64, 0
29, 342010, Note_on_c, 12, 84, 0
29, 342025, Note_on_c, 12, 74, 0
29, 342489, Note_on_c, 12, 84, 96
29, 342497, Note_on_c, 12, 74, 101
29, 342501, Note_on_c, 12, 64, 103
29, 342969, Note_on_c, 12, 84, 0
29, 342977, Note_on_c, 12, 74, 0
29, 342981, Note_on_c, 12, 64, 0
29, 346342, Note_on_c, 12, 69, 107
29, 346345, Note_on_c, 12, 84, 94
29, 346347, Note_on_c, 12, 64, 107
29, 346822, Note_on_c, 12, 69, 0
29, 346825, Note_on_c, 12, 84, 0
29, 346827, Note_on_c, 12, 64, 0
29, 347287, Note_on_c, 12, 84, 99
29, 347293, Note_on_c, 12, 64, 108
29, 347301, Note_on_c, 12, 69, 108
29, 347767, Note_on_c, 12, 84, 0
29, 347773, Note_on_c, 12, 64, 0
29, 347781, Note_on_c, 12, 69, 0
29, 349693, Note_on_c, 12, 79, 102
29, 349699, Note_on_c, 12, 72, 96
29, 349705, Note_on_c, 12, 64, 97
29, 350173, Note_on_c, 12, 79, 0
29, 350179, Note_on_c, 12, 72, 0
29, 350185, Note_on_c, 12, 64, 0
29, 350641, Note_on_c, 12, 69, 101
29, 350642, Note_on_c, 12, 64, 93
29, 350664, Note_on_c, 12, 76, 104
29, 351121, Note_on_c, 12, 69, 0
29, 351122, Note_on_c, 12, 64, 0
29, 351144, Note_on_c, 12, 76, 0
29, 352562, Note_on_c, 12, 55, 37
29, 352580, Note_on_c, 12, 60, 33
29, 352638, Note_on_c, 12, 55, 0
29, 352656, Note_on_c, 12, 60, 0
29, 353049, Note_on_c, 12, 60, 38
29, 353066, Note_on_c, 12, 55, 44
29, 353241, Note_on_c, 12, 60, 0
29, 353258, Note_on_c, 12, 55, 0
29, 353545, Note_on_c, 12, 58, 36
29, 353546, Note_on_c, 12, 62, 45
29, 353737, Note_on_c, 12, 58, 0
29, 353738, Note_on_c, 12, 62, 0
29, 354017, Note_on_c, 12, 60, 45
29, 354024, Note_on_c, 12, 55, 39
29, 354209, Note_on_c, 12, 60, 0
29, 354216, Note_on_c, 12, 55, 0
29, 354501, Note_on_c, 12, 58, 39
29, 354506, Note_on_c, 12, 62, 41
29, 354693, Note_on_c, 12, 58, 0
29, 354698, Note_on_c, 12, 62, 0
29, 354962, Note_on_c, 12, 60, 43
29, 354966, Note_on_c, 12, 55, 42
29, 355154, Note_on_c, 12, 60, 0
29, 355158, Note_on_c, 12, 55, 0
29, 383282, Note_on_c, 12, 84, 93
29, 383302, Note_on_c, 12, 69, 106
29, 383307, Note_on_c, 12, 64, 100
29, 383762, Note_on_c, 12, 84, 0
29, 383782, Note_on_c, 12, 69, 0
29, 383787, Note_on_c, 12, 64, 0
29, 384241, Note_on_c, 12, 74, 93
29, 384246, Note_on_c, 12, 64, 102
29, 384246, Note_on_c, 12, 84, 100
29, 384721, Note_on_c, 12, 74, 0
29, 384726, Note_on_c, 12, 64, 0
29, 384726, Note_on_c, 12, 84, 0
29, 385205, Note_on_c, 12, 74, 93
29, 385215, Note_on_c, 12, 64, 107
29, 385220, Note_on_c, 12, 84, 101
29, 385685, Note_on_c, 12, 74, 0
29, 385695, Note_on_c, 12, 64, 0
29, 385700, Note_on_c, 12, 84, 0
29, 391440, Program_c, 12, 45
29, 391461, Note_on_c, 12, 63, 50
29, 391929, Note_on_c, 12, 63, 0
29, 391948, Note_on_c, 12, 63, 48
29, 392405, Note_on_c, 12, 63, 0
29, 392425, Note_on_c, 12, 63, 52
29, 392861, Note_on_c, 12, 63, 0
29, 392880, Note_on_c, 12, 63, 55
29, 393341, Note_on_c, 12, 63, 0
29, 393361, Note_on_c, 12, 63, 54
29, 393841, Note_on_c, 12, 63, 0
29, 393868, Note_on_c, 12, 63, 50
29, 394301, Note_on_c, 12, 63, 0
29, 394320, Note_on_c, 12, 63, 44
29, 394800, Note_on_c, 12, 63, 0
29, 394820, Note_on_c, 12, 63, 48
29, 395269, Note_on_c, 12, 63, 0
29, 395288, Note_on_c, 12, 63, 57
29, 395761, Note_on_c, 12, 63, 0
29, 395780, Note_on_c, 12, 63, 50
29, 396243, Note_on_c, 12, 63, 0
29, 396263, Note_on_c, 12, 63, 44
29, 396719, Note_on_c, 12, 63, 0
29, 396738, Note_on_c, 12, 63, 43
29, 397191, Note_on_c, 12, 63, 0
29, 397211, Note_on_c, 12, 63, 51
29, 397683, Note_on_c, 12, 63, 0
29, 397702, Note_on_c, 12, 63, 54
29, 398143, Note_on_c, 12, 63, 0
29, 398162, Note_on_c, 12, 63, 50
29, 398642, Note_on_c, 12, 63, 0
29, 398665, Note_on_c, 12, 63, 44
29, 399114, Note_on_c, 12, 63, 0
29, 399133, Note_on_c, 12, 63, 48
29, 399609, Note_on_c, 12, 63, 0
29, 399629, Note_on_c, 12, 63, 58
29, 400075, Note_on_c, 12, 63, 0
29, 400094, Note_on_c, 12, 63, 46
29, 400556, Note_on_c, 12, 63, 0
29, 400575, Note_on_c, 12, 63, 52
29, 401047, Note_on_c, 12, 63, 0
29, 401066, Note_on_c, 12, 63, 42
29, 401529, Note_on_c, 12, 63, 0
29, 401549, Note_on_c, 12, 63, 44
29, 401987, Note_on_c, 12, 63, 0
29, 402006, Note_on_c, 12, 63, 58
29, 402486, Note_on_c, 12, 63, 0
29, 402508, Note_on_c, 12, 63, 57
29, 402966, Note_on_c, 12, 63, 0
29, 402985, Note_on_c, 12, 63, 52
29, 403438, Note_on_c, 12, 63, 0
29, 403458, Note_on_c, 12, 63, 57
29, 403903, Note_on_c, 12, 63, 0
29, 403922, Note_on_c, 12, 63, 47
29, 404398, Note_on_c, 12, 63, 0
29, 404418, Note_on_c, 12, 63, 51
29, 404877, Note_on_c, 12, 63, 0
29, 404896, Note_on_c, 12, 63, 43
29, 405341, Note_on_c, 12, 63, 0
29, 405361, Note_on_c, 12, 63, 49
29, 405829, Note_on_c, 12, 63, 0
29, 405848, Note_on_c, 12, 63, 41
29, 406305, Note_on_c, 12, 63, 0
29, 406324, Note_on_c, 12, 63, 55
29, 406781, Note_on_c, 12, 63, 0
29, 406800, Note_on_c, 12, 63, 54
29, 407267, Note_on_c, 12, 63, 0
29, 407286, Note_on_c, 12, 63, 59
29, 407766, Note_on_c, 12, 63, 0
29, 407785, Note_on_c, 12, 63, 45
29, 408238, Note_on_c, 12, 63, 0
29, 408258, Note_on_c, 12, 63, 50
29, 408707, Note_on_c, 12, 63, 0
29, 408726, Note_on_c, 12, 63, 53
29, 409192, Note_on_c, 12, 63, 0
29, 409211, Note_on_c, 12, 63, 47
29, 409687, Note_on_c, 12, 63, 0
29, 409706, Note_on_c, 12, 63, 58
29, 410147, Note_on_c, 12, 63, 0
29, 410167, Note_on_c, 12, 63, 52
29, 410638, Note_on_c, 12, 63, 0
29, 410657, Note_on_c, 12, 63, 54
29, 411117, Note_on_c, 12, 63, 0
29, 411136, Note_on_c, 12, 63, 41
29, 411608, Note_on_c, 12, 63, 0
29, 411628, Note_on_c, 12, 63, 12
29, 412083, Note_on_c, 12, 63, 0
29, 412102, Note_on_c, 12, 63, 1
29, 412582, Note_on_c, 12, 63, 0
29, 428863, Program_c, 12, 49
29, 428905, Note_on_c, 12, 70, 49
29, 428913, Note_on_c, 12, 68, 53
29, 428931, Note_on_c, 12, 70, 0
29, 428943, Note_on_c, 12, 68, 0
29, 428951, Note_on_c, 12, 70, 46
29, 428981, Note_on_c, 12, 70, 0
29, 428998, Note_on_c, 12, 68, 59
29, 429022, Note_on_c, 12, 70, 48
29, 429028, Note_on_c, 12, 68, 0
29, 429052, Note_on_c, 12, 70, 0
29, 429056, Note_on_c, 12, 68, 49
29, 429075, Note_on_c, 12, 70, 39
29, 429085, Note_on_c, 12, 70, 0
29, 429086, Note_on_c, 12, 68, 0
29, 429104, Note_on_c, 12, 70, 47
29, 429121, Note_on_c, 12, 68, 55
29, 429133, Note_on_c, 12, 70, 0
29, 429151, Note_on_c, 12, 68, 0
29, 429152, Note_on_c, 12, 70, 46
29, 429182, Note_on_c, 12, 70, 0
29, 429194, Note_on_c, 12, 68, 46
29, 429224, Note_on_c, 12, 68, 0
29, 429228, Note_on_c, 12, 70, 50
29, 429251, Note_on_c, 12, 68, 45
29, 429258, Note_on_c, 12, 70, 0
29, 429277, Note_on_c, 12, 70, 56
29, 429281, Note_on_c, 12, 68, 0
29, 429285, Note_on_c, 12, 70, 0
29, 429305, Note_on_c, 12, 70, 57
29, 429335, Note_on_c, 12, 70, 0
29, 429351, Note_on_c, 12, 68, 57
29, 429363, Note_on_c, 12, 80, 41
29, 429371, Note_on_c, 12, 82, 55
29, 429381, Note_on_c, 12, 68, 0
29, 429483, Note_on_c, 12, 80, 0
29, 429491, Note_on_c, 12, 82, 0
29, 430826, Note_on_c, 12, 70, 55
29, 430844, Note_on_c, 12, 68, 40
29, 430847, Note_on_c, 12, 70, 0
29, 430866, Note_on_c, 12, 70, 49
29, 430874, Note_on_c, 12, 68, 0
29, 430896, Note_on_c, 12, 70, 0
29, 430901, Note_on_c, 12, 68, 43
29, 430931, Note_on_c, 12, 68, 0
29, 430947, Note_on_c, 12, 70, 41
29, 430952, Note_on_c, 12, 68, 56
29, 430971, Note_on_c, 12, 70, 0
29, 430982, Note_on_c, 12, 68, 0
29, 430991, Note_on_c, 12, 70, 48
29, 430999, Note_on_c, 12, 70, 0
29, 431018, Note_on_c, 12, 70, 49
29, 431048, Note_on_c, 12, 70, 0
29, 431068, Note_on_c, 12, 68, 43
29, 431073, Note_on_c, 12, 70, 50
29, 431086, Note_on_c, 12, 68, 0
29, 431103, Note_on_c, 12, 70, 0
29, 431105, Note_on_c, 12, 68, 49
29, 431135, Note_on_c, 12, 68, 0
29, 431149, Note_on_c, 12, 70, 41
29, 431170, Note_on_c, 12, 68, 53
29, 431177, Note_on_c, 12, 70, 0
29, 431196, Note_on_c, 12, 70, 54
29, 431200, Note_on_c, 12, 68, 0
29, 431214, Note_on_c, 12, 70, 0
29, 431233, Note_on_c, 12, 70, 43
29, 431263, Note_on_c, 12, 70, 0
29, 431271, Note_on_c, 12, 68, 46
29, 431298, Note_on_c, 12, 82, 59
29, 431301, Note_on_c, 12, 68, 0
29, 431301, Note_on_c, 12, 80, 54
29, 431418, Note_on_c, 12, 82, 0
29, 431421, Note_on_c, 12, 80, 0
29, 431774, Note_on_c, 12, 70, 45
29, 431804, Note_on_c, 12, 70, 0
29, 431810, Note_on_c, 12, 68, 50
29, 431839, Note_on_c, 12, 68, 0
29, 431847, Note_on_c, 12, 70, 54
29, 431858, Note_on_c, 12, 68, 43
29, 431877, Note_on_c, 12, 70, 0
29, 431888, Note_on_c, 12, 68, 0
29, 431900, Note_on_c, 12, 70, 55
29, 431930, Note_on_c, 12, 70, 0
29, 431934, Note_on_c, 12, 68, 49
29, 431961, Note_on_c, 12, 70, 50
29, 431964, Note_on_c, 12, 68, 0
29, 431970, Note_on_c, 12, 70, 0
29, 431989, Note_on_c, 12, 70, 44
29, 432014, Note_on_c, 12, 68, 58
29, 432019, Note_on_c, 12, 70, 0
29, 432044, Note_on_c, 12, 68, 0
29, 432048, Note_on_c, 12, 70, 57
29, 432078, Note_on_c, 12, 70, 0
29, 432084, Note_on_c, 12, 68, 56
29, 432107, Note_on_c, 12, 68, 0
29, 432107, Note_on_c, 12, 70, 54
29, 432126, Note_on_c, 12, 68, 45
29, 432137, Note_on_c, 12, 70, 0
29, 432156, Note_on_c, 12, 68, 0
29, 432159, Note_on_c, 12, 70, 43
29, 432180, Note_on_c, 12, 70, 0
29, 432199, Note_on_c, 12, 70, 50
29, 432216, Note_on_c, 12, 68, 49
29, 432229, Note_on_c, 12, 70, 0
29, 432246, Note_on_c, 12, 68, 0
29, 432264, Note_on_c, 12, 80, 51
29, 432264, Note_on_c, 12, 82, 59
29, 432384, Note_on_c, 12, 80, 0
29, 432384, Note_on_c, 12, 82, 0
29, 432718, Program_c, 12, 44
29, 432724, Note_on_c, 12, 69, 49
29, 432726, Note_on_c, 12, 71, 41
29, 433421, Note_on_c, 12, 69, 0
29, 433440, Note_on_c, 12, 69, 57
29, 433446, Note_on_c, 12, 71, 0
29, 433468, Note_on_c, 12, 72, 52
29, 433680, Note_on_c, 12, 69, 0
29, 433681, Note_on_c, 12, 72, 0
29, 433687, Note_on_c, 12, 68, 39
29, 433700, Note_on_c, 12, 72, 49
29, 433908, Note_on_c, 12, 68, 0
29, 433928, Note_on_c, 12, 68, 40
29, 433940, Note_on_c, 12, 72, 0
29, 433946, Note_on_c, 12, 71, 58
29, 434148, Note_on_c, 12, 71, 0
29, 434161, Note_on_c, 12, 69, 41
29, 434167, Note_on_c, 12, 71, 43
29, 434168, Note_on_c, 12, 68, 0
29, 434389, Note_on_c, 12, 69, 0
29, 434404, Note_on_c, 12, 73, 58
29, 434407, Note_on_c, 12, 71, 0
29, 434408, Note_on_c, 12, 69, 59
29, 434632, Note_on_c, 12, 73, 0
29, 434648, Note_on_c, 12, 69, 0
29, 434652, Note_on_c, 12, 73, 44
29, 434656, Note_on_c, 12, 65, 50
29, 435132, Note_on_c, 12, 73, 0
29, 435136, Note_on_c, 12, 65, 0
29, 438000, Program_c, 12, 45
29, 438011, Note_on_c, 12, 74, 89
29, 438131, Note_on_c, 12, 74, 0
29, 438148, Note_on_c, 12, 76, 98
29, 438267, Note_on_c, 12, 74, 82
29, 438268, Note_on_c, 12, 76, 0
29, 438377, Note_on_c, 12, 76, 93
29, 438387, Note_on_c, 12, 74, 0
29, 438497, Note_on_c, 12, 76, 0
29, 438500, Note_on_c, 12, 74, 89
29, 438615, Note_on_c, 12, 76, 93
29, 438620, Note_on_c, 12, 74, 0
29, 438735, Note_on_c, 12, 76, 0
29, 438747, Note_on_c, 12, 74, 79
29, 438861, Note_on_c, 12, 76, 91
29, 438867, Note_on_c, 12, 74, 0
29, 438963, Note_on_c, 12, 76, 0
29, 438982, Note_on_c, 12, 76, 82
29, 439084, Note_on_c, 12, 77, 92
29, 439102, Note_on_c, 12, 76, 0
29, 439204, Note_on_c, 12, 77, 0
29, 439213, Note_on_c, 12, 76, 84
29, 439322, Note_on_c, 12, 77, 94
29, 439333, Note_on_c, 12, 76, 0
29, 439442, Note_on_c, 12, 77, 0
29, 439445, Note_on_c, 12, 76, 83
29, 439565, Note_on_c, 12, 76, 0
29, 439570, Note_on_c, 12, 77, 98
29, 439690, Note_on_c, 12, 77, 0
29, 439708, Note_on_c, 12, 76, 87
29, 439805, Note_on_c, 12, 77, 90
29, 439828, Note_on_c, 12, 76, 0
29, 439920, Note_on_c, 12, 77, 0
29, 439939, Note_on_c, 12, 77, 92
29, 440053, Note_on_c, 12, 79, 81
29, 440059, Note_on_c, 12, 77, 0
29, 440165, Note_on_c, 12, 77, 97
29, 440173, Note_on_c, 12, 79, 0
29, 440285, Note_on_c, 12, 77, 0
29, 440293, Note_on_c, 12, 79, 83
29, 440413, Note_on_c, 12, 79, 0
29, 440420, Note_on_c, 12, 77, 88
29, 440540, Note_on_c, 12, 77, 0
29, 440542, Note_on_c, 12, 79, 95
29, 440661, Note_on_c, 12, 77, 85
29, 440662, Note_on_c, 12, 79, 0
29, 440766, Note_on_c, 12, 76, 95
29, 440781, Note_on_c, 12, 77, 0
29, 440886, Note_on_c, 12, 76, 0
29, 440896, Note_on_c, 12, 74, 90
29, 441007, Note_on_c, 12, 76, 94
29, 441016, Note_on_c, 12, 74, 0
29, 441127, Note_on_c, 12, 76, 0
29, 441130, Note_on_c, 12, 74, 88
29, 441245, Note_on_c, 12, 76, 95
29, 441250, Note_on_c, 12, 74, 0
29, 441365, Note_on_c, 12, 76, 0
29, 441379, Note_on_c, 12, 74, 87
29, 441499, Note_on_c, 12, 74, 0
29, 441505, Note_on_c, 12, 76, 86
29, 441622, Note_on_c, 12, 74, 90
29, 441625, Note_on_c, 12, 76, 0
29, 441735, Note_on_c, 12, 76, 94
29, 441742, Note_on_c, 12, 74, 0
29, 441844, Note_on_c, 12, 76, 0
29, 441864, Note_on_c, 12, 76, 84
29, 441969, Note_on_c, 12, 77, 94
29, 441984, Note_on_c, 12, 76, 0
29, 442089, Note_on_c, 12, 77, 0
29, 442101, Note_on_c, 12, 76, 82
29, 442211, Note_on_c, 12, 77, 93
29, 442221, Note_on_c, 12, 76, 0
29, 442331, Note_on_c, 12, 77, 0
29, 442337, Note_on_c, 12, 76, 91
29, 442457, Note_on_c, 12, 76, 0
29, 442460, Note_on_c, 12, 77, 84
29, 442575, Note_on_c, 12, 76, 87
29, 442580, Note_on_c, 12, 77, 0
29, 442695, Note_on_c, 12, 76, 0
29, 442695, Note_on_c, 12, 77, 85
29, 442780, Note_on_c, 12, 77, 0
29, 442800, Note_on_c, 12, 77, 93
29, 442920, Note_on_c, 12, 77, 0
29, 442936, Note_on_c, 12, 79, 95
29, 443046, Note_on_c, 12, 77, 95
29, 443056, Note_on_c, 12, 79, 0
29, 443163, Note_on_c, 12, 79, 82
29, 443166, Note_on_c, 12, 77, 0
29, 443283, Note_on_c, 12, 79, 0
29, 443304, Note_on_c, 12, 77, 80
29, 443410, Note_on_c, 12, 79, 79
29, 443424, Note_on_c, 12, 77, 0
29, 443530, Note_on_c, 12, 79, 0
29, 443530, Note_on_c, 12, 77, 91
29, 443650, Note_on_c, 12, 77, 0
29, 443655, Note_on_c, 12, 76, 96
29, 443775, Note_on_c, 12, 76, 0
29, 444017, Note_on_c, 12, 66, 116
29, 444019, Note_on_c, 12, 58, 106
29, 444257, Note_on_c, 12, 66, 0
29, 444259, Note_on_c, 12, 58, 0
29, 444720, Program_c, 12, 48
29, 444723, Note_on_c, 12, 61, 41
29, 444735, Note_on_c, 12, 64, 47
29, 444819, Note_on_c, 12, 61, 0
29, 444831, Note_on_c, 12, 64, 0
29, 444965, Note_on_c, 12, 64, 53
29, 444981, Note_on_c, 12, 61, 50
29, 445061, Note_on_c, 12, 64, 0
29, 445077, Note_on_c, 12, 61, 0
29, 445440, Program_c, 12, 45
29, 445446, Note_on_c, 12, 66, 111
29, 445457, Note_on_c, 12, 58, 113
29, 445686, Note_on_c, 12, 66, 0
29, 445697, Note_on_c, 12, 58, 0
29, 446134, Program_c, 12, 48
29, 446178, Note_on_c, 12, 65, 77
29, 446186, Note_on_c, 12, 61, 77
29, 446358, Note_on_c, 12, 65, 0
29, 446366, Note_on_c, 12, 61, 0
29, 446413, Note_on_c, 12, 77, 88
29, 446428, Note_on_c, 12, 73, 70
29, 446593, Note_on_c, 12, 77, 0
29, 446608, Note_on_c, 12, 73, 0
29, 446648, Note_on_c, 12, 68, 84
29, 446665, Note_on_c, 12, 76, 93
29, 446747, Note_on_c, 12, 68, 0
29, 446764, Note_on_c, 12, 76, 0
29, 446808, Note_on_c, 12, 62, 94
29, 446816, Note_on_c, 12, 73, 93
29, 446908, Note_on_c, 12, 62, 0
29, 446916, Note_on_c, 12, 73, 0
29, 446966, Note_on_c, 12, 71, 115
29, 446982, Note_on_c, 12, 63, 120
29, 447082, Note_on_c, 12, 63, 0
29, 447125, Note_on_c, 12, 66, 106
29, 447126, Note_on_c, 12, 71, 0
29, 447129, Note_on_c, 12, 58, 103
29, 447365, Note_on_c, 12, 66, 0
29, 447369, Note_on_c, 12, 58, 0
29, 448076, Program_c, 12, 45
29, 448094, Note_on_c, 12, 57, 114
29, 448105, Note_on_c, 12, 61, 102
29, 448109, Note_on_c, 12, 69, 108
29, 448334, Note_on_c, 12, 57, 0
29, 448345, Note_on_c, 12, 61, 0
29, 448349, Note_on_c, 12, 69, 0
29, 449523, Note_on_c, 12, 71, 112
29, 449526, Note_on_c, 12, 67, 119
29, 449527, Note_on_c, 12, 79, 106
29, 449763, Note_on_c, 12, 71, 0
29, 449766, Note_on_c, 12, 67, 0
29, 449767, Note_on_c, 12, 79, 0
29, 450002, Note_on_c, 12, 57, 109
29, 450008, Note_on_c, 12, 69, 109
29, 450009, Note_on_c, 12, 61, 116
29, 450242, Note_on_c, 12, 57, 0
29, 450248, Note_on_c, 12, 69, 0
29, 450249, Note_on_c, 12, 61, 0
29, 451931, Note_on_c, 12, 57, 120
29, 451932, Note_on_c, 12, 69, 101
29, 451940, Note_on_c, 12, 61, 109
29, 452171, Note_on_c, 12, 57, 0
29, 452172, Note_on_c, 12, 69, 0
29, 452180, Note_on_c, 12, 61, 0
29, 453362, Note_on_c, 12, 67, 115
29, 453373, Note_on_c, 12, 71, 117
29, 453388, Note_on_c, 12, 79, 114
29, 453602, Note_on_c, 12, 67, 0
29, 453613, Note_on_c, 12, 71, 0
29, 453628, Note_on_c, 12, 79, 0
29, 455290, Note_on_c, 12, 67, 116
29, 455299, Note_on_c, 12, 79, 110
29, 455307, Note_on_c, 12, 71, 119
29, 455530, Note_on_c, 12, 67, 0
29, 455539, Note_on_c, 12, 79, 0
29, 455547, Note_on_c, 12, 71, 0
29, 457680, Program_c, 12, 45
29, 457685, Note_on_c, 12, 59, 84
29, 457686, Note_on_c, 12, 70, 80
29, 457688, Note_on_c, 12, 65, 73
29, 457925, Note_on_c, 12, 59, 0
29, 457926, Note_on_c, 12, 70, 0
29, 457928, Note_on_c, 12, 65, 0
29, 458162, Note_on_c, 12, 65, 76
29, 458178, Note_on_c, 12, 59, 75
29, 458183, Note_on_c, 12, 70, 80
29, 458402, Note_on_c, 12, 65, 0
29, 458418, Note_on_c, 12, 59, 0
29, 458423, Note_on_c, 12, 70, 0
29, 458646, Note_on_c, 12, 65, 71
29, 458649, Note_on_c, 12, 70, 70
29, 458656, Note_on_c, 12, 59, 69
29, 458886, Note_on_c, 12, 65, 0
29, 458889, Note_on_c, 12, 70, 0
29, 458896, Note_on_c, 12, 59, 0
29, 459122, Note_on_c, 12, 65, 79
29, 459124, Note_on_c, 12, 70, 80
29, 459134, Note_on_c, 12, 59, 69
29, 459362, Note_on_c, 12, 65, 0
29, 459364, Note_on_c, 12, 70, 0
29, 459374, Note_on_c, 12, 59, 0
29, 459613, Note_on_c, 12, 59, 83
29, 459617, Note_on_c, 12, 65, 66
29, 459619, Note_on_c, 12, 70, 82
29, 459853, Note_on_c, 12, 59, 0
29, 459857, Note_on_c, 12, 65, 0
29, 459859, Note_on_c, 12, 70, 0
29, 460092, Note_on_c, 12, 59, 72
29, 460093, Note_on_c, 12, 70, 83
29, 460095, Note_on_c, 12, 65, 81
29, 460332, Note_on_c, 12, 59, 0
29, 460333, Note_on_c, 12, 70, 0
29, 460335, Note_on_c, 12, 65, 0
29, 460563, Note_on_c, 12, 59, 84
29, 460567, Note_on_c, 12, 65, 67
29, 460573, Note_on_c, 12, 70, 70
29, 460803, Note_on_c, 12, 59, 0
29, 460807, Note_on_c, 12, 65, 0
29, 460813, Note_on_c, 12, 70, 0
29, 461051, Note_on_c, 12, 65, 80
29, 461062, Note_on_c, 12, 59, 73
29, 461063, Note_on_c, 12, 70, 83
29, 461291, Note_on_c, 12, 65, 0
29, 461302, Note_on_c, 12, 59, 0
29, 461303, Note_on_c, 12, 70, 0
29, 461522, Note_on_c, 12, 70, 74
29, 461532, Note_on_c, 12, 65, 79
29, 461541, Note_on_c, 12, 59, 81
29, 461762, Note_on_c, 12, 70, 0
29, 461772, Note_on_c, 12, 65, 0
29, 461781, Note_on_c, 12, 59, 0
29, 462001, Note_on_c, 12, 70, 81
29, 462002, Note_on_c, 12, 59, 83
29, 462020, Note_on_c, 12, 65, 70
29, 462241, Note_on_c, 12, 70, 0
29, 462242, Note_on_c, 12, 59, 0
29, 462260, Note_on_c, 12, 65, 0
29, 462484, Note_on_c, 12, 70, 78
29, 462489, Note_on_c, 12, 65, 72
29, 462500, Note_on_c, 12, 59, 69
29, 462724, Note_on_c, 12, 70, 0
29, 462729, Note_on_c, 12, 65, 0
29, 462740, Note_on_c, 12, 59, 0
29, 462963, Note_on_c, 12, 70, 73
29, 462968, Note_on_c, 12, 65, 74
29, 462969, Note_on_c, 12, 59, 83
29, 463203, Note_on_c, 12, 70, 0
29, 463208, Note_on_c, 12, 65, 0
29, 463209, Note_on_c, 12, 59, 0
29, 463440, Note_on_c, 12, 70, 82
29, 463442, Note_on_c, 12, 65, 78
29, 463455, Note_on_c, 12, 59, 65
29, 463680, Note_on_c, 12, 70, 0
29, 463682, Note_on_c, 12, 65, 0
29, 463695, Note_on_c, 12, 59, 0
29, 463925, Note_on_c, 12, 59, 81
29, 463928, Note_on_c, 12, 65, 79
29, 463936, Note_on_c, 12, 70, 67
29, 464165, Note_on_c, 12, 59, 0
29, 464168, Note_on_c, 12, 65, 0
29, 464176, Note_on_c, 12, 70, 0
29, 464413, Note_on_c, 12, 59, 79
29, 464415, Note_on_c, 12, 65, 85
29, 464427, Note_on_c, 12, 70, 84
29, 464653, Note_on_c, 12, 59, 0
29, 464655, Note_on_c, 12, 65, 0
29, 464667, Note_on_c, 12, 70, 0
29, 464884, Note_on_c, 12, 70, 77
29, 464902, Note_on_c, 12, 65, 74
29, 464909, Note_on_c, 12, 59, 76
29, 465124, Note_on_c, 12, 70, 0
29, 465142, Note_on_c, 12, 65, 0
29, 465149, Note_on_c, 12, 59, 0
29, 465375, Note_on_c, 12, 65, 65
29, 465375, Note_on_c, 12, 70, 84
29, 465378, Note_on_c, 12, 59, 76
29, 465615, Note_on_c, 12, 65, 0
29, 465615, Note_on_c, 12, 70, 0
29, 465618, Note_on_c, 12, 59, 0
29, 465843, Note_on_c, 12, 65, 75
29, 465853, Note_on_c, 12, 59, 74
29, 465866, Note_on_c, 12, 70, 72
29, 466083, Note_on_c, 12, 65, 0
29, 466093, Note_on_c, 12, 59, 0
29, 466106, Note_on_c, 12, 70, 0
29, 466321, Note_on_c, 12, 70, 75
29, 466322, Note_on_c, 12, 59, 83
29, 466346, Note_on_c, 12, 65, 69
29, 466561, Note_on_c, 12, 70, 0
29, 466562, Note_on_c, 12, 59, 0
29, 466586, Note_on_c, 12, 65, 0
29, 466813, Note_on_c, 12, 65, 78
29, 466815, Note_on_c, 12, 59, 76
29, 466825, Note_on_c, 12, 70, 75
29, 467053, Note_on_c, 12, 65, 0
29, 467055, Note_on_c, 12, 59, 0
29, 467065, Note_on_c, 12, 70, 0
29, 467280, Note_on_c, 12, 63, 51
29, 467288, Note_on_c, 12, 65, 54
29, 467756, Note_on_c, 12, 63, 0
29, 467756, Note_on_c, 12, 65, 0
29, 467775, Note_on_c, 12, 63, 44
29, 467776, Note_on_c, 12, 65, 50
29, 468223, Note_on_c, 12, 65, 0
29, 468239, Note_on_c, 12, 63, 0
29, 468242, Note_on_c, 12, 65, 56
29, 468258, Note_on_c, 12, 63, 47
29, 468716, Note_on_c, 12, 63, 0
29, 468722, Note_on_c, 12, 65, 0
29, 468735, Note_on_c, 12, 63, 47
29, 469208, Note_on_c, 12, 63, 0
29, 469228, Note_on_c, 12, 63, 40
29, 469675, Note_on_c, 12, 63, 0
29, 469694, Note_on_c, 12, 63, 49
29, 470161, Note_on_c, 12, 63, 0
29, 470180, Note_on_c, 12, 63, 55
29, 470635, Note_on_c, 12, 63, 0
29, 470654, Note_on_c, 12, 63, 59
29, 471111, Note_on_c, 12, 63, 0
29, 471130, Note_on_c, 12, 63, 41
29, 471609, Note_on_c, 12, 63, 0
29, 471628, Note_on_c, 12, 63, 46
29, 472084, Note_on_c, 12, 63, 0
29, 472103, Note_on_c, 12, 63, 52
29, 472553, Note_on_c, 12, 63, 0
29, 472573, Note_on_c, 12, 63, 51
29, 473026, Note_on_c, 12, 63, 0
29, 473045, Note_on_c, 12, 63, 44
29, 473525, Note_on_c, 12, 63, 0
29, 473548, Note_on_c, 12, 63, 42
29, 474001, Note_on_c, 12, 63, 0
29, 474020, Note_on_c, 12, 63, 40
29, 474488, Note_on_c, 12, 63, 0
29, 474508, Note_on_c, 12, 63, 45
29, 474949, Note_on_c, 12, 63, 0
29, 474968, Note_on_c, 12, 63, 58
29, 475432, Note_on_c, 12, 63, 0
29, 475451, Note_on_c, 12, 63, 43
29, 475919, Note_on_c, 12, 63, 0
29, 475938, Note_on_c, 12, 63, 52
29, 476396, Note_on_c, 12, 63, 0
29, 476415, Note_on_c, 12, 63, 56
29, 476874, Note_on_c, 12, 63, 0
29, 476893, Note_on_c, 12, 63, 42
29, 477347, Note_on_c, 12, 63, 0
29, 477366, Note_on_c, 12, 63, 47
29, 477846, Note_on_c, 12, 63, 0
29, 489840, Control_c, 12, 11, 127
29, 489840, Control_c, 12, 7, 92
29, 490797, Program_c, 12, 48
29, 490924, Note_on_c, 12, 66, 79
29, 490929, Note_on_c, 12, 69, 80
29, 490936, Note_on_c, 12, 62, 89
29, 490977, Note_on_c, 12, 66, 0
29, 490982, Note_on_c, 12, 69, 0
29, 490989, Note_on_c, 12, 62, 0
29, 491283, Note_on_c, 12, 62, 96
29, 491300, Note_on_c, 12, 66, 87
29, 491301, Note_on_c, 12, 69, 89
29, 491336, Note_on_c, 12, 62, 0
29, 491353, Note_on_c, 12, 66, 0
29, 491354, Note_on_c, 12, 69, 0
29, 491521, Note_on_c, 12, 69, 78
29, 491523, Note_on_c, 12, 62, 95
29, 491531, Note_on_c, 12, 66, 87
29, 491628, Note_on_c, 12, 69, 0
29, 491630, Note_on_c, 12, 62, 0
29, 491638, Note_on_c, 12, 66, 0
29, 491887, Note_on_c, 12, 62, 93
29, 491896, Note_on_c, 12, 66, 93
29, 491903, Note_on_c, 12, 69, 89
29, 491994, Note_on_c, 12, 62, 0
29, 492003, Note_on_c, 12, 66, 0
29, 492010, Note_on_c, 12, 69, 0
29, 492258, Note_on_c, 12, 67, 79
29, 492259, Note_on_c, 12, 70, 79
29, 492294, Note_on_c, 12, 67, 0
29, 492295, Note_on_c, 12, 70, 0
29, 492375, Note_on_c, 12, 68, 94
29, 492386, Note_on_c, 12, 65, 88
29, 492411, Note_on_c, 12, 68, 0
29, 492422, Note_on_c, 12, 65, 0
29, 492483, Note_on_c, 12, 63, 90
29, 492484, Note_on_c, 12, 66, 92
29, 492519, Note_on_c, 12, 63, 0
29, 492520, Note_on_c, 12, 66, 0
29, 492733, Note_on_c, 12, 66, 91
29, 492739, Note_on_c, 12, 62, 85
29, 492746, Note_on_c, 12, 69, 95
29, 492786, Note_on_c, 12, 66, 0
29, 492792, Note_on_c, 12, 62, 0
29, 492799, Note_on_c, 12, 69, 0
29, 492966, Note_on_c, 12, 62, 80
29, 492969, Note_on_c, 12, 66, 83
29, 492972, Note_on_c, 12, 69, 81
29, 493073, Note_on_c, 12, 62, 0
29, 493076, Note_on_c, 12, 66, 0
29, 493079, Note_on_c, 12, 69, 0
29, 493320, Note_on_c, 12, 62, 85
29, 493322, Note_on_c, 12, 66, 93
29, 493323, Note_on_c, 12, 69, 83
29, 493427, Note_on_c, 12, 62, 0
29, 493429, Note_on_c, 12, 66, 0
29, 493430, Note_on_c, 12, 69, 0
29, 493697, Note_on_c, 12, 67, 81
29, 493706, Note_on_c, 12, 70, 78
29, 493733, Note_on_c, 12, 67, 0
29, 493742, Note_on_c, 12, 70, 0
29, 493802, Note_on_c, 12, 65, 86
29, 493826, Note_on_c, 12, 68, 86
29, 493838, Note_on_c, 12, 65, 0
29, 493862, Note_on_c, 12, 68, 0
29, 493921, Note_on_c, 12, 66, 93
29, 493933, Note_on_c, 12, 63, 82
29, 493957, Note_on_c, 12, 66, 0
29, 493969, Note_on_c, 12, 63, 0
29, 494167, Note_on_c, 12, 62, 89
29, 494170, Note_on_c, 12, 69, 82
29, 494187, Note_on_c, 12, 66, 85
29, 494274, Note_on_c, 12, 62, 0
29, 494277, Note_on_c, 12, 69, 0
29, 494294, Note_on_c, 12, 66, 0
29, 494542, Note_on_c, 12, 77, 92
29, 494685, Note_on_c, 12, 77, 0
29, 494784, Note_on_c, 12, 77, 103
29, 494927, Note_on_c, 12, 77, 0
29, 495021, Note_on_c, 12, 77, 107
29, 495074, Note_on_c, 12, 77, 0
29, 495132, Note_on_c, 12, 77, 109
29, 495185, Note_on_c, 12, 77, 0
29, 495252, Note_on_c, 12, 77, 94
29, 495305, Note_on_c, 12, 77, 0
29, 495496, Note_on_c, 12, 62, 83
29, 495500, Note_on_c, 12, 69, 87
29, 495504, Note_on_c, 12, 66, 88
29, 495549, Note_on_c, 12, 62, 0
29, 495553, Note_on_c, 12, 69, 0
29, 495557, Note_on_c, 12, 66, 0
29, 495724, Note_on_c, 12, 66, 95
29, 495726, Note_on_c, 12, 69, 86
29, 495732, Note_on_c, 12, 62, 80
29, 495777, Note_on_c, 12, 66, 0
29, 495779, Note_on_c, 12, 69, 0
29, 495785, Note_on_c, 12, 62, 0
29, 495963, Note_on_c, 12, 62, 88
29, 495965, Note_on_c, 12, 66, 84
29, 495980, Note_on_c, 12, 69, 79
29, 496070, Note_on_c, 12, 62, 0
29, 496072, Note_on_c, 12, 66, 0
29, 496087, Note_on_c, 12, 69, 0
29, 496326, Note_on_c, 12, 67, 98
29, 496327, Note_on_c, 12, 70, 88
29, 496379, Note_on_c, 12, 67, 0
29, 496380, Note_on_c, 12, 70, 0
29, 496451, Note_on_c, 12, 65, 88
29, 496454, Note_on_c, 12, 68, 92
29, 496504, Note_on_c, 12, 65, 0
29, 496507, Note_on_c, 12, 68, 0
29, 496561, Note_on_c, 12, 63, 81
29, 496584, Note_on_c, 12, 66, 93
29, 496614, Note_on_c, 12, 63, 0
29, 496637, Note_on_c, 12, 66, 0
29, 496683, Note_on_c, 12, 77, 99
29, 496755, Note_on_c, 12, 77, 0
29, 496826, Note_on_c, 12, 77, 106
29, 496898, Note_on_c, 12, 77, 0
29, 496945, Note_on_c, 12, 77, 101
29, 497017, Note_on_c, 12, 77, 0
29, 497168, Note_on_c, 12, 77, 110
29, 497215, Note_on_c, 12, 77, 0
29, 497298, Note_on_c, 12, 69, 96
29, 497307, Note_on_c, 12, 62, 94
29, 497441, Note_on_c, 12, 69, 0
29, 497450, Note_on_c, 12, 62, 0
29, 497529, Note_on_c, 12, 69, 110
29, 497533, Note_on_c, 12, 62, 106
29, 497672, Note_on_c, 12, 69, 0
29, 497676, Note_on_c, 12, 62, 0
29, 497760, Note_on_c, 12, 69, 96
29, 497771, Note_on_c, 12, 62, 93
29, 497807, Note_on_c, 12, 69, 0
29, 497818, Note_on_c, 12, 62, 0
29, 498013, Note_on_c, 12, 62, 109
29, 498020, Note_on_c, 12, 69, 93
29, 498027, Note_on_c, 12, 66, 106
29, 498066, Note_on_c, 12, 62, 0
29, 498073, Note_on_c, 12, 69, 0
29, 498080, Note_on_c, 12, 66, 0
29, 498259, Note_on_c, 12, 62, 99
29, 498265, Note_on_c, 12, 66, 105
29, 498267, Note_on_c, 12, 69, 108
29, 498312, Note_on_c, 12, 62, 0
29, 498318, Note_on_c, 12, 66, 0
29, 498320, Note_on_c, 12, 69, 0
29, 498486, Note_on_c, 12, 62, 110
29, 498502, Note_on_c, 12, 69, 107
29, 498506, Note_on_c, 12, 66, 98
29, 498593, Note_on_c, 12, 62, 0
29, 498609, Note_on_c, 12, 69, 0
29, 498613, Note_on_c, 12, 66, 0
29, 498841, Note_on_c, 12, 67, 107
29, 498862, Note_on_c, 12, 70, 99
29, 498894, Note_on_c, 12, 67, 0
29, 498915, Note_on_c, 12, 70, 0
29, 498961, Note_on_c, 12, 65, 109
29, 498964, Note_on_c, 12, 68, 102
29, 499014, Note_on_c, 12, 65, 0
29, 499017, Note_on_c, 12, 68, 0
29, 499089, Note_on_c, 12, 63, 107
29, 499095, Note_on_c, 12, 66, 95
29, 499142, Note_on_c, 12, 63, 0
29, 499148, Note_on_c, 12, 66, 0
29, 499336, Note_on_c, 12, 62, 109
29, 499339, Note_on_c, 12, 69, 100
29, 499346, Note_on_c, 12, 66, 108
29, 499443, Note_on_c, 12, 62, 0
29, 499446, Note_on_c, 12, 69, 0
29, 499453, Note_on_c, 12, 66, 0
29, 499692, Note_on_c, 12, 62, 98
29, 499695, Note_on_c, 12, 69, 95
29, 499706, Note_on_c, 12, 66, 107
29, 499745, Note_on_c, 12, 62, 0
29, 499748, Note_on_c, 12, 69, 0
29, 499759, Note_on_c, 12, 66, 0
29, 499930, Note_on_c, 12, 62, 91
29, 499941, Note_on_c, 12, 66, 92
29, 499948, Note_on_c, 12, 69, 95
29, 500037, Note_on_c, 12, 62, 0
29, 500048, Note_on_c, 12, 66, 0
29, 500055, Note_on_c, 12, 69, 0
29, 500302, Note_on_c, 12, 67, 96
29, 500305, Note_on_c, 12, 70, 111
29, 500355, Note_on_c, 12, 67, 0
29, 500358, Note_on_c, 12, 70, 0
29, 500418, Note_on_c, 12, 68, 109
29, 500426, Note_on_c, 12, 65, 107
29, 500471, Note_on_c, 12, 68, 0
29, 500479, Note_on_c, 12, 65, 0
29, 500531, Note_on_c, 12, 66, 95
29, 500540, Note_on_c, 12, 63, 93
29, 500584, Note_on_c, 12, 66, 0
29, 500593, Note_on_c, 12, 63, 0
29, 500760, Note_on_c, 12, 62, 97
29, 500771, Note_on_c, 12, 69, 94
29, 500786, Note_on_c, 12, 66, 92
29, 500813, Note_on_c, 12, 62, 0
29, 500824, Note_on_c, 12, 69, 0
29, 500839, Note_on_c, 12, 66, 0
29, 501006, Note_on_c, 12, 67, 94
29, 501009, Note_on_c, 12, 70, 107
29, 501059, Note_on_c, 12, 67, 0
29, 501062, Note_on_c, 12, 70, 0
29, 501121, Note_on_c, 12, 68, 93
29, 501135, Note_on_c, 12, 65, 93
29, 501174, Note_on_c, 12, 68, 0
29, 501188, Note_on_c, 12, 65, 0
29, 501259, Note_on_c, 12, 63, 107
29, 501263, Note_on_c, 12, 66, 97
29, 501312, Note_on_c, 12, 63, 0
29, 501316, Note_on_c, 12, 66, 0
29, 501481, Note_on_c, 12, 62, 98
29, 501485, Note_on_c, 12, 69, 110
29, 501502, Note_on_c, 12, 66, 106
29, 501588, Note_on_c, 12, 62, 0
29, 501592, Note_on_c, 12, 69, 0
29, 501609, Note_on_c, 12, 66, 0
29, 501849, Note_on_c, 12, 69, 104
29, 501850, Note_on_c, 12, 62, 108
29, 501854, Note_on_c, 12, 66, 98
29, 501902, Note_on_c, 12, 69, 0
29, 501903, Note_on_c, 12, 62, 0
29, 501907, Note_on_c, 12, 66, 0
29, 502083, Note_on_c, 12, 66, 100
29, 502092, Note_on_c, 12, 69, 108
29, 502097, Note_on_c, 12, 62, 102
29, 502190, Note_on_c, 12, 66, 0
29, 502199, Note_on_c, 12, 69, 0
29, 502204, Note_on_c, 12, 62, 0
29, 502451, Note_on_c, 12, 67, 101
29, 502464, Note_on_c, 12, 70, 109
29, 502504, Note_on_c, 12, 67, 0
29, 502517, Note_on_c, 12, 70, 0
29, 502578, Note_on_c, 12, 68, 102
29, 502583, Note_on_c, 12, 65, 95
29, 502631, Note_on_c, 12, 68, 0
29, 502636, Note_on_c, 12, 65, 0
29, 502695, Note_on_c, 12, 66, 108
29, 502705, Note_on_c, 12, 63, 93
29, 502748, Note_on_c, 12, 66, 0
29, 502758, Note_on_c, 12, 63, 0
29, 503281, Note_on_c, 12, 75, 95
29, 503297, Note_on_c, 12, 77, 99
29, 503334, Note_on_c, 12, 75, 0
29, 503350, Note_on_c, 12, 77, 0
29, 504136, Note_on_c, 12, 77, 91
29, 504148, Note_on_c, 12, 75, 91
29, 504189, Note_on_c, 12, 77, 0
29, 504201, Note_on_c, 12, 75, 0
29, 504251, Note_on_c, 12, 64, 59
29, 504298, Note_on_c, 12, 64, 0
29, 504481, Note_on_c, 12, 64, 43
29, 504528, Note_on_c, 12, 64, 0
29, 504983, Note_on_c, 12, 64, 48
29, 505030, Note_on_c, 12, 64, 0
29, 505456, Note_on_c, 12, 64, 55
29, 505503, Note_on_c, 12, 64, 0
29, 505694, Note_on_c, 12, 64, 45
29, 505741, Note_on_c, 12, 64, 0
29, 505941, Note_on_c, 12, 64, 49
29, 505988, Note_on_c, 12, 64, 0
29, 506404, Note_on_c, 12, 64, 46
29, 506451, Note_on_c, 12, 64, 0
29, 506882, Note_on_c, 12, 64, 53
29, 506929, Note_on_c, 12, 64, 0
29, 507369, Note_on_c, 12, 64, 39
29, 507416, Note_on_c, 12, 64, 0
29, 507628, Note_on_c, 12, 64, 53
29, 507675, Note_on_c, 12, 64, 0
29, 508106, Note_on_c, 12, 64, 48
29, 508153, Note_on_c, 12, 64, 0
29, 508342, Note_on_c, 12, 64, 57
29, 508389, Note_on_c, 12, 64, 0
29, 508572, Note_on_c, 12, 64, 51
29, 508619, Note_on_c, 12, 64, 0
29, 509060, Note_on_c, 12, 64, 44
29, 509107, Note_on_c, 12, 64, 0
29, 509523, Note_on_c, 12, 64, 52
29, 509570, Note_on_c, 12, 64, 0
29, 509762, Note_on_c, 12, 64, 48
29, 509809, Note_on_c, 12, 64, 0
29, 510252, Note_on_c, 12, 64, 49
29, 510299, Note_on_c, 12, 64, 0
29, 510737, Note_on_c, 12, 64, 58
29, 510784, Note_on_c, 12, 64, 0
29, 511205, Note_on_c, 12, 64, 44
29, 511252, Note_on_c, 12, 64, 0
29, 511706, Note_on_c, 12, 64, 54
29, 511753, Note_on_c, 12, 64, 0
29, 511930, Note_on_c, 12, 64, 50
29, 511977, Note_on_c, 12, 64, 0
29, 512410, Note_on_c, 12, 64, 45
29, 512457, Note_on_c, 12, 64, 0
29, 512884, Note_on_c, 12, 64, 46
29, 512931, Note_on_c, 12, 64, 0
29, 513363, Note_on_c, 12, 64, 53
29, 513410, Note_on_c, 12, 64, 0
29, 513841, Note_on_c, 12, 64, 42
29, 513888, Note_on_c, 12, 64, 0
29, 514087, Note_on_c, 12, 64, 55
29, 514134, Note_on_c, 12, 64, 0
29, 514348, Note_on_c, 12, 64, 50
29, 514395, Note_on_c, 12, 64, 0
29, 514825, Note_on_c, 12, 64, 51
29, 514872, Note_on_c, 12, 64, 0
29, 515282, Note_on_c, 12, 64, 45
29, 515329, Note_on_c, 12, 64, 0
29, 515529, Note_on_c, 12, 64, 46
29, 515576, Note_on_c, 12, 64, 0
29, 516023, Note_on_c, 12, 64, 59
29, 516070, Note_on_c, 12, 64, 0
29, 516260, Note_on_c, 12, 64, 52
29, 516307, Note_on_c, 12, 64, 0
29, 516729, Note_on_c, 12, 64, 53
29, 516776, Note_on_c, 12, 64, 0
29, 517217, Note_on_c, 12, 64, 48
29, 517264, Note_on_c, 12, 64, 0
29, 517453, Note_on_c, 12, 64, 51
29, 517500, Note_on_c, 12, 64, 0
29, 517706, Note_on_c, 12, 64, 53
29, 517753, Note_on_c, 12, 64, 0
29, 518171, Note_on_c, 12, 64, 44
29, 518218, Note_on_c, 12, 64, 0
29, 518653, Note_on_c, 12, 64, 39
29, 518700, Note_on_c, 12, 64, 0
29, 518882, Note_on_c, 12, 64, 57
29, 518929, Note_on_c, 12, 64, 0
29, 519364, Note_on_c, 12, 64, 42
29, 519411, Note_on_c, 12, 64, 0
29, 519851, Note_on_c, 12, 64, 58
29, 519898, Note_on_c, 12, 64, 0
29, 520345, Note_on_c, 12, 76, 100
29, 520368, Note_on_c, 12, 76, 0
29, 520398, Note_on_c, 12, 76, 114
29, 520421, Note_on_c, 12, 76, 0
29, 520807, Note_on_c, 12, 76, 110
29, 520830, Note_on_c, 12, 76, 0
29, 520886, Note_on_c, 12, 76, 113
29, 520909, Note_on_c, 12, 76, 0
29, 521306, Note_on_c, 12, 76, 120
29, 521329, Note_on_c, 12, 76, 0
29, 521351, Note_on_c, 12, 76, 112
29, 521374, Note_on_c, 12, 76, 0
29, 521533, Note_on_c, 12, 76, 108
29, 521556, Note_on_c, 12, 76, 0
29, 521598, Note_on_c, 12, 76, 103
29, 521621, Note_on_c, 12, 76, 0
29, 522025, Note_on_c, 12, 76, 113
29, 522048, Note_on_c, 12, 76, 0
29, 522073, Note_on_c, 12, 76, 107
29, 522096, Note_on_c, 12, 76, 0
29, 522502, Note_on_c, 12, 76, 102
29, 522525, Note_on_c, 12, 76, 0
29, 522557, Note_on_c, 12, 76, 105
29, 522580, Note_on_c, 12, 76, 0
29, 522977, Note_on_c, 12, 80, 118
29, 522981, Note_on_c, 12, 76, 118
29, 523000, Note_on_c, 12, 80, 0
29, 523004, Note_on_c, 12, 76, 0
29, 523023, Note_on_c, 12, 76, 101
29, 523035, Note_on_c, 12, 80, 111
29, 523046, Note_on_c, 12, 76, 0
29, 523058, Note_on_c, 12, 80, 0
29, 523443, Note_on_c, 12, 75, 100
29, 523446, Note_on_c, 12, 78, 108
29, 523466, Note_on_c, 12, 75, 0
29, 523469, Note_on_c, 12, 78, 0
29, 523506, Note_on_c, 12, 75, 108
29, 523517, Note_on_c, 12, 78, 108
29, 523529, Note_on_c, 12, 75, 0
29, 523540, Note_on_c, 12, 78, 0
29, 523926, Note_on_c, 12, 77, 119
29, 523927, Note_on_c, 12, 74, 108
29, 523949, Note_on_c, 12, 77, 0
29, 523950, Note_on_c, 12, 74, 0
29, 524001, Note_on_c, 12, 74, 118
29, 524007, Note_on_c, 12, 77, 105
29, 524024, Note_on_c, 12, 74, 0
29, 524030, Note_on_c, 12, 77, 0
29, 524176, Note_on_c, 12, 76, 119
29, 524199, Note_on_c, 12, 76, 0
29, 524246, Note_on_c, 12, 76, 110
29, 524269, Note_on_c, 12, 76, 0
29, 524415, Note_on_c, 12, 76, 103
29, 524438, Note_on_c, 12, 76, 0
29, 524469, Note_on_c, 12, 76, 110
29, 524492, Note_on_c, 12, 76, 0
29, 524885, Note_on_c, 12, 76, 108
29, 524908, Note_on_c, 12, 76, 0
29, 524951, Note_on_c, 12, 76, 120
29, 524974, Note_on_c, 12, 76, 0
29, 525371, Note_on_c, 12, 80, 104
29, 525383, Note_on_c, 12, 76, 105
29, 525394, Note_on_c, 12, 80, 0
29, 525406, Note_on_c, 12, 76, 0
29, 525429, Note_on_c, 12, 80, 104
29, 525442, Note_on_c, 12, 76, 105
29, 525452, Note_on_c, 12, 80, 0
29, 525465, Note_on_c, 12, 76, 0
29, 525852, Note_on_c, 12, 78, 108
29, 525868, Note_on_c, 12, 75, 114
29, 525875, Note_on_c, 12, 78, 0
29, 525891, Note_on_c, 12, 75, 0
29, 525909, Note_on_c, 12, 78, 114
29, 525928, Note_on_c, 12, 75, 105
29, 525932, Note_on_c, 12, 78, 0
29, 525951, Note_on_c, 12, 75, 0
29, 526083, Note_on_c, 12, 74, 108
29, 526102, Note_on_c, 12, 77, 102
29, 526106, Note_on_c, 12, 74, 0
29, 526124, Note_on_c, 12, 77, 0
29, 526143, Note_on_c, 12, 74, 102
29, 526143, Note_on_c, 12, 77, 112
29, 526166, Note_on_c, 12, 74, 0
29, 526166, Note_on_c, 12, 77, 0
29, 526342, Note_on_c, 12, 76, 103
29, 526365, Note_on_c, 12, 76, 0
29, 526391, Note_on_c, 12, 76, 118
29, 526414, Note_on_c, 12, 76, 0
29, 526578, Note_on_c, 12, 76, 110
29, 526601, Note_on_c, 12, 76, 0
29, 526633, Note_on_c, 12, 76, 111
29, 526656, Note_on_c, 12, 76, 0
29, 527052, Note_on_c, 12, 74, 118
29, 527063, Note_on_c, 12, 77, 104
29, 527075, Note_on_c, 12, 74, 0
29, 527086, Note_on_c, 12, 77, 0
29, 527114, Note_on_c, 12, 74, 113
29, 527125, Note_on_c, 12, 77, 106
29, 527137, Note_on_c, 12, 74, 0
29, 527148, Note_on_c, 12, 77, 0
29, 527287, Note_on_c, 12, 80, 93
29, 527296, Note_on_c, 12, 86, 93
29, 527310, Note_on_c, 12, 80, 0
29, 527319, Note_on_c, 12, 86, 0
29, 527347, Note_on_c, 12, 80, 107
29, 527367, Note_on_c, 12, 86, 96
29, 527370, Note_on_c, 12, 80, 0
29, 527390, Note_on_c, 12, 86, 0
29, 527764, Note_on_c, 12, 85, 101
29, 527767, Note_on_c, 12, 80, 101
29, 527787, Note_on_c, 12, 85, 0
29, 527790, Note_on_c, 12, 80, 0
29, 527834, Note_on_c, 12, 85, 95
29, 527848, Note_on_c, 12, 80, 92
29, 527857, Note_on_c, 12, 85, 0
29, 527871, Note_on_c, 12, 80, 0
29, 528020, Note_on_c, 12, 80, 95
29, 528022, Note_on_c, 12, 85, 91
29, 528043, Note_on_c, 12, 80, 0
29, 528045, Note_on_c, 12, 85, 0
29, 528067, Note_on_c, 12, 85, 92
29, 528082, Note_on_c, 12, 80, 103
29, 528090, Note_on_c, 12, 85, 0
29, 528105, Note_on_c, 12, 80, 0
29, 528247, Note_on_c, 12, 83, 111
29, 528257, Note_on_c, 12, 80, 93
29, 528270, Note_on_c, 12, 83, 0
29, 528280, Note_on_c, 12, 80, 0
29, 528319, Note_on_c, 12, 80, 94
29, 528322, Note_on_c, 12, 83, 96
29, 528342, Note_on_c, 12, 80, 0
29, 528345, Note_on_c, 12, 83, 0
29, 528730, Note_on_c, 12, 83, 101
29, 528738, Note_on_c, 12, 80, 95
29, 528753, Note_on_c, 12, 83, 0
29, 528761, Note_on_c, 12, 80, 0
29, 528792, Note_on_c, 12, 80, 99
29, 528795, Note_on_c, 12, 83, 91
29, 528815, Note_on_c, 12, 80, 0
29, 528818, Note_on_c, 12, 83, 0
29, 528981, Note_on_c, 12, 83, 96
29, 528985, Note_on_c, 12, 80, 92
29, 529004, Note_on_c, 12, 83, 0
29, 529008, Note_on_c, 12, 80, 0
29, 529033, Note_on_c, 12, 80, 98
29, 529034, Note_on_c, 12, 83, 106
29, 529056, Note_on_c, 12, 80, 0
29, 529057, Note_on_c, 12, 83, 0
29, 529444, Note_on_c, 12, 81, 94
29, 529450, Note_on_c, 12, 86, 105
29, 529467, Note_on_c, 12, 81, 0
29, 529473, Note_on_c, 12, 86, 0
29, 529513, Note_on_c, 12, 86, 102
29, 529521, Note_on_c, 12, 81, 100
29, 529536, Note_on_c, 12, 86, 0
29, 529544, Note_on_c, 12, 81, 0
29, 529925, Note_on_c, 12, 80, 105
29, 529940, Note_on_c, 12, 85, 109
29, 529948, Note_on_c, 12, 80, 0
29, 529963, Note_on_c, 12, 85, 0
29, 529989, Note_on_c, 12, 80, 104
29, 529996, Note_on_c, 12, 85, 93
29, 530012, Note_on_c, 12, 80, 0
29, 530019, Note_on_c, 12, 85, 0
29, 530164, Note_on_c, 12, 80, 111
29, 530183, Note_on_c, 12, 83, 108
29, 530187, Note_on_c, 12, 80, 0
29, 530206, Note_on_c, 12, 83, 0
29, 530221, Note_on_c, 12, 83, 106
29, 530233, Note_on_c, 12, 80, 102
29, 530244, Note_on_c, 12, 83, 0
29, 530256, Note_on_c, 12, 80, 0
29, 530642, Note_on_c, 12, 80, 97
29, 530651, Note_on_c, 12, 83, 95
29, 530665, Note_on_c, 12, 80, 0
29, 530674, Note_on_c, 12, 83, 0
29, 530713, Note_on_c, 12, 83, 101
29, 530726, Note_on_c, 12, 80, 97
29, 530736, Note_on_c, 12, 83, 0
29, 530749, Note_on_c, 12, 80, 0
29, 531129, Note_on_c, 12, 80, 93
29, 531137, Note_on_c, 12, 83, 105
29, 531152, Note_on_c, 12, 80, 0
29, 531160, Note_on_c, 12, 83, 0
29, 531184, Note_on_c, 12, 83, 101
29, 531196, Note_on_c, 12, 80, 111
29, 531207, Note_on_c, 12, 83, 0
29, 531219, Note_on_c, 12, 80, 0
29, 531362, Note_on_c, 12, 78, 100
29, 531380, Note_on_c, 12, 75, 103
29, 531482, Note_on_c, 12, 78, 0
29, 531500, Note_on_c, 12, 75, 0
29, 531613, Note_on_c, 12, 75, 95
29, 531618, Note_on_c, 12, 78, 94
29, 531733, Note_on_c, 12, 75, 0
29, 531738, Note_on_c, 12, 78, 0
29, 531841, Note_on_c, 12, 75, 99
29, 531850, Note_on_c, 12, 78, 93
29, 531961, Note_on_c, 12, 75, 0
29, 531970, Note_on_c, 12, 78, 0
29, 532324, Note_on_c, 12, 78, 104
29, 532347, Note_on_c, 12, 75, 111
29, 532444, Note_on_c, 12, 78, 0
29, 532467, Note_on_c, 12, 75, 0
29, 532585, Note_on_c, 12, 75, 94
29, 532586, Note_on_c, 12, 78, 103
29, 532705, Note_on_c, 12, 75, 0
29, 532706, Note_on_c, 12, 78, 0
29, 532813, Note_on_c, 12, 75, 100
29, 532816, Note_on_c, 12, 78, 99
29, 532933, Note_on_c, 12, 75, 0
29, 532936, Note_on_c, 12, 78, 0
29, 533049, Note_on_c, 12, 75, 93
29, 533051, Note_on_c, 12, 78, 106
29, 533169, Note_on_c, 12, 75, 0
29, 533171, Note_on_c, 12, 78, 0
29, 533280, Note_on_c, 12, 78, 98
29, 533293, Note_on_c, 12, 75, 99
29, 533400, Note_on_c, 12, 78, 0
29, 533413, Note_on_c, 12, 75, 0
29, 533769, Note_on_c, 12, 78, 101
29, 533771, Note_on_c, 12, 75, 91
29, 533889, Note_on_c, 12, 78, 0
29, 533891, Note_on_c, 12, 75, 0
29, 534254, Note_on_c, 12, 75, 93
29, 534255, Note_on_c, 12, 78, 104
29, 534374, Note_on_c, 12, 75, 0
29, 534375, Note_on_c, 12, 78, 0
29, 534499, Note_on_c, 12, 74, 93
29, 534508, Note_on_c, 12, 77, 91
29, 534619, Note_on_c, 12, 74, 0
29, 534628, Note_on_c, 12, 77, 0
29, 534739, Note_on_c, 12, 75, 100
29, 534743, Note_on_c, 12, 78, 100
29, 534859, Note_on_c, 12, 75, 0
29, 534863, Note_on_c, 12, 78, 0
29, 535210, Note_on_c, 12, 75, 92
29, 535221, Note_on_c, 12, 78, 95
29, 535330, Note_on_c, 12, 75, 0
29, 535341, Note_on_c, 12, 78, 0
29, 535691, Note_on_c, 12, 75, 95
29, 535705, Note_on_c, 12, 78, 96
29, 535811, Note_on_c, 12, 75, 0
29, 535825, Note_on_c, 12, 78, 0
29, 535942, Note_on_c, 12, 78, 120
29, 535945, Note_on_c, 12, 75, 108
29, 535956, Note_on_c, 12, 75, 0
29, 535960, Note_on_c, 12, 78, 0
29, 535975, Note_on_c, 12, 75, 108
29, 535979, Note_on_c, 12, 78, 117
29, 535986, Note_on_c, 12, 78, 0
29, 535992, Note_on_c, 12, 75, 0
29, 536005, Note_on_c, 12, 78, 108
29, 536011, Note_on_c, 12, 75, 122
29, 536024, Note_on_c, 12, 78, 0
29, 536030, Note_on_c, 12, 75, 0
29, 536058, Note_on_c, 12, 75, 120
29, 536063, Note_on_c, 12, 78, 113
29, 536065, Note_on_c, 12, 78, 0
29, 536073, Note_on_c, 12, 75, 0
29, 536084, Note_on_c, 12, 78, 107
29, 536093, Note_on_c, 12, 75, 116
29, 536104, Note_on_c, 12, 78, 0
29, 536113, Note_on_c, 12, 75, 0
29, 536140, Note_on_c, 12, 75, 106
29, 536142, Note_on_c, 12, 78, 123
29, 536159, Note_on_c, 12, 75, 0
29, 536161, Note_on_c, 12, 78, 0
29, 536163, Note_on_c, 12, 70, 121
29, 536169, Note_on_c, 12, 73, 122
29, 536182, Note_on_c, 12, 70, 0
29, 536188, Note_on_c, 12, 73, 0
29, 536206, Note_on_c, 12, 73, 118
29, 536213, Note_on_c, 12, 70, 111
29, 536226, Note_on_c, 12, 73, 0
29, 536233, Note_on_c, 12, 70, 0
29, 536240, Note_on_c, 12, 73, 110
29, 536259, Note_on_c, 12, 73, 0
29, 536259, Note_on_c, 12, 70, 121
29, 536275, Note_on_c, 12, 70, 0
29, 536294, Note_on_c, 12, 70, 117
29, 536302, Note_on_c, 12, 73, 108
29, 536313, Note_on_c, 12, 70, 0
29, 536321, Note_on_c, 12, 73, 0
29, 536340, Note_on_c, 12, 70, 111
29, 536344, Note_on_c, 12, 73, 112
29, 536348, Note_on_c, 12, 70, 0
29, 536364, Note_on_c, 12, 73, 0
29, 536367, Note_on_c, 12, 70, 118
29, 536385, Note_on_c, 12, 73, 118
29, 536386, Note_on_c, 12, 70, 0
29, 536404, Note_on_c, 12, 73, 0
29, 536421, Note_on_c, 12, 72, 115
29, 536426, Note_on_c, 12, 75, 121
29, 536433, Note_on_c, 12, 75, 0
29, 536440, Note_on_c, 12, 72, 0
29, 536452, Note_on_c, 12, 75, 110
29, 536464, Note_on_c, 12, 75, 0
29, 536464, Note_on_c, 12, 72, 112
29, 536469, Note_on_c, 12, 72, 0
29, 536483, Note_on_c, 12, 75, 119
29, 536489, Note_on_c, 12, 72, 119
29, 536502, Note_on_c, 12, 75, 0
29, 536508, Note_on_c, 12, 72, 0
29, 536537, Note_on_c, 12, 72, 110
29, 536537, Note_on_c, 12, 75, 105
29, 536556, Note_on_c, 12, 72, 0
29, 536556, Note_on_c, 12, 75, 0
29, 536562, Note_on_c, 12, 75, 115
29, 536582, Note_on_c, 12, 75, 0
29, 536583, Note_on_c, 12, 72, 115
29, 536584, Note_on_c, 12, 72, 0
29, 536603, Note_on_c, 12, 72, 114
29, 536607, Note_on_c, 12, 75, 104
29, 536622, Note_on_c, 12, 72, 0
29, 536626, Note_on_c, 12, 75, 0
29, 536645, Note_on_c, 12, 70, 106
29, 536661, Note_on_c, 12, 73, 122
29, 536664, Note_on_c, 12, 70, 0
29, 536680, Note_on_c, 12, 73, 0
29, 536689, Note_on_c, 12, 70, 111
29, 536705, Note_on_c, 12, 73, 106
29, 536708, Note_on_c, 12, 73, 0
29, 536709, Note_on_c, 12, 70, 0
29, 536727, Note_on_c, 12, 73, 123
29, 536738, Note_on_c, 12, 70, 107
29, 536746, Note_on_c, 12, 73, 0
29, 536757, Note_on_c, 12, 70, 0
29, 536778, Note_on_c, 12, 70, 122
29, 536785, Note_on_c, 12, 73, 108
29, 536791, Note_on_c, 12, 70, 0
29, 536800, Note_on_c, 12, 73, 0
29, 536811, Note_on_c, 12, 70, 107
29, 536819, Note_on_c, 12, 73, 106
29, 536831, Note_on_c, 12, 70, 0
29, 536839, Note_on_c, 12, 73, 0
29, 536853, Note_on_c, 12, 73, 112
29, 536862, Note_on_c, 12, 70, 115
29, 536872, Note_on_c, 12, 73, 0
29, 536881, Note_on_c, 12, 70, 0
29, 536884, Note_on_c, 12, 68, 124
29, 536884, Note_on_c, 12, 63, 108
29, 536903, Note_on_c, 12, 68, 0
29, 536903, Note_on_c, 12, 63, 0
29, 536928, Note_on_c, 12, 63, 108
29, 536930, Note_on_c, 12, 68, 106
29, 536941, Note_on_c, 12, 63, 0
29, 536943, Note_on_c, 12, 68, 0
29, 536960, Note_on_c, 12, 63, 114
29, 536963, Note_on_c, 12, 68, 112
29, 536979, Note_on_c, 12, 63, 0
29, 536982, Note_on_c, 12, 68, 0
29, 537007, Note_on_c, 12, 63, 113
29, 537021, Note_on_c, 12, 68, 120
29, 537026, Note_on_c, 12, 63, 0
29, 537040, Note_on_c, 12, 68, 0
29, 537044, Note_on_c, 12, 68, 119
29, 537064, Note_on_c, 12, 68, 0
29, 537064, Note_on_c, 12, 63, 111
29, 537080, Note_on_c, 12, 68, 119
29, 537084, Note_on_c, 12, 63, 0
29, 537099, Note_on_c, 12, 68, 0
29, 537108, Note_on_c, 12, 63, 106
29, 537121, Note_on_c, 12, 64, 114
29, 537122, Note_on_c, 12, 69, 119
29, 537127, Note_on_c, 12, 63, 0
29, 537140, Note_on_c, 12, 64, 0
29, 537141, Note_on_c, 12, 69, 0
29, 537170, Note_on_c, 12, 64, 109
29, 537171, Note_on_c, 12, 69, 105
29, 537190, Note_on_c, 12, 64, 0
29, 537191, Note_on_c, 12, 69, 0
29, 537214, Note_on_c, 12, 64, 124
29, 537221, Note_on_c, 12, 69, 114
29, 537233, Note_on_c, 12, 64, 0
29, 537240, Note_on_c, 12, 69, 0
29, 537254, Note_on_c, 12, 69, 119
29, 537265, Note_on_c, 12, 64, 116
29, 537266, Note_on_c, 12, 64, 0
29, 537273, Note_on_c, 12, 69, 0
29, 537284, Note_on_c, 12, 64, 104
29, 537298, Note_on_c, 12, 69, 120
29, 537304, Note_on_c, 12, 64, 0
29, 537318, Note_on_c, 12, 69, 0
29, 537325, Note_on_c, 12, 69, 122
29, 537342, Note_on_c, 12, 64, 104
29, 537344, Note_on_c, 12, 69, 0
29, 537361, Note_on_c, 12, 64, 0
29, 537381, Note_on_c, 12, 71, 118
29, 537387, Note_on_c, 12, 67, 104
29, 537390, Note_on_c, 12, 67, 0
29, 537399, Note_on_c, 12, 71, 0
29, 537409, Note_on_c, 12, 67, 122
29, 537419, Note_on_c, 12, 71, 113
29, 537429, Note_on_c, 12, 67, 0
29, 537439, Note_on_c, 12, 71, 0
29, 537446, Note_on_c, 12, 71, 109
29, 537463, Note_on_c, 12, 67, 124
29, 537465, Note_on_c, 12, 71, 0
29, 537477, Note_on_c, 12, 67, 0
29, 537496, Note_on_c, 12, 67, 108
29, 537497, Note_on_c, 12, 71, 124
29, 537503, Note_on_c, 12, 67, 0
29, 537516, Note_on_c, 12, 71, 0
29, 537522, Note_on_c, 12, 67, 121
29, 537542, Note_on_c, 12, 67, 0
29, 537547, Note_on_c, 12, 71, 114
29, 537555, Note_on_c, 12, 71, 0
29, 537563, Note_on_c, 12, 67, 124
29, 537574, Note_on_c, 12, 71, 109
29, 537582, Note_on_c, 12, 67, 0
29, 537593, Note_on_c, 12, 71, 0
29, 537848, Note_on_c, 12, 62, 47
29, 537854, Note_on_c, 12, 55, 43
29, 537895, Note_on_c, 12, 62, 0
29, 537901, Note_on_c, 12, 55, 0
29, 538083, Note_on_c, 12, 55, 54
29, 538096, Note_on_c, 12, 62, 45
29, 538130, Note_on_c, 12, 55, 0
29, 538143, Note_on_c, 12, 62, 0
29, 538576, Note_on_c, 12, 62, 55
29, 538577, Note_on_c, 12, 55, 46
29, 538623, Note_on_c, 12, 62, 0
29, 538624, Note_on_c, 12, 55, 0
29, 539062, Note_on_c, 12, 62, 51
29, 539069, Note_on_c, 12, 55, 54
29, 539109, Note_on_c, 12, 62, 0
29, 539116, Note_on_c, 12, 55, 0
29, 539291, Note_on_c, 12, 55, 52
29, 539292, Note_on_c, 12, 62, 58
29, 539338, Note_on_c, 12, 55, 0
29, 539339, Note_on_c, 12, 62, 0
29, 539525, Note_on_c, 12, 62, 47
29, 539536, Note_on_c, 12, 55, 56
29, 539572, Note_on_c, 12, 62, 0
29, 539583, Note_on_c, 12, 55, 0
29, 540009, Note_on_c, 12, 62, 47
29, 540024, Note_on_c, 12, 55, 40
29, 540056, Note_on_c, 12, 62, 0
29, 540071, Note_on_c, 12, 55, 0
29, 540253, Note_on_c, 12, 62, 49
29, 540258, Note_on_c, 12, 55, 42
29, 540300, Note_on_c, 12, 62, 0
29, 540305, Note_on_c, 12, 55, 0
29, 540722, Note_on_c, 12, 62, 40
29, 540741, Note_on_c, 12, 55, 58
29, 540769, Note_on_c, 12, 62, 0
29, 540788, Note_on_c, 12, 55, 0
29, 541205, Note_on_c, 12, 62, 58
29, 541210, Note_on_c, 12, 55, 46
29, 541252, Note_on_c, 12, 62, 0
29, 541257, Note_on_c, 12, 55, 0
29, 541708, Note_on_c, 12, 55, 48
29, 541709, Note_on_c, 12, 62, 42
29, 541755, Note_on_c, 12, 55, 0
29, 541756, Note_on_c, 12, 62, 0
29, 542161, Note_on_c, 12, 62, 51
29, 542186, Note_on_c, 12, 55, 50
29, 542208, Note_on_c, 12, 62, 0
29, 542233, Note_on_c, 12, 55, 0
29, 542404, Note_on_c, 12, 62, 53
29, 542417, Note_on_c, 12, 55, 57
29, 542451, Note_on_c, 12, 62, 0
29, 542464, Note_on_c, 12, 55, 0
29, 542888, Note_on_c, 12, 55, 45
29, 542908, Note_on_c, 12, 62, 41
29, 542935, Note_on_c, 12, 55, 0
29, 542955, Note_on_c, 12, 62, 0
29, 543365, Note_on_c, 12, 62, 56
29, 543368, Note_on_c, 12, 55, 50
29, 543412, Note_on_c, 12, 62, 0
29, 543415, Note_on_c, 12, 55, 0
29, 543843, Note_on_c, 12, 55, 56
29, 543862, Note_on_c, 12, 62, 51
29, 543890, Note_on_c, 12, 55, 0
29, 543909, Note_on_c, 12, 62, 0
29, 544329, Note_on_c, 12, 62, 39
29, 544341, Note_on_c, 12, 55, 59
29, 544376, Note_on_c, 12, 62, 0
29, 544388, Note_on_c, 12, 55, 0
29, 544567, Note_on_c, 12, 55, 46
29, 544575, Note_on_c, 12, 62, 51
29, 544614, Note_on_c, 12, 55, 0
29, 544622, Note_on_c, 12, 62, 0
29, 544802, Note_on_c, 12, 62, 43
29, 544820, Note_on_c, 12, 55, 55
29, 544849, Note_on_c, 12, 62, 0
29, 544867, Note_on_c, 12, 55, 0
29, 545282, Note_on_c, 12, 62, 41
29, 545285, Note_on_c, 12, 55, 50
29, 545329, Note_on_c, 12, 62, 0
29, 545332, Note_on_c, 12, 55, 0
29, 545765, Note_on_c, 12, 55, 41
29, 545774, Note_on_c, 12, 62, 39
29, 545812, Note_on_c, 12, 55, 0
29, 545821, Note_on_c, 12, 62, 0
29, 546026, Note_on_c, 12, 80, 88
29, 546026, Note_on_c, 12, 85, 96
29, 546052, Note_on_c, 12, 80, 0
29, 546056, Note_on_c, 12, 85, 0
29, 546071, Note_on_c, 12, 80, 82
29, 546084, Note_on_c, 12, 85, 92
29, 546101, Note_on_c, 12, 80, 0
29, 546114, Note_on_c, 12, 85, 0
29, 546249, Note_on_c, 12, 85, 90
29, 546265, Note_on_c, 12, 80, 82
29, 546279, Note_on_c, 12, 85, 0
29, 546295, Note_on_c, 12, 80, 0
29, 546315, Note_on_c, 12, 80, 93
29, 546315, Note_on_c, 12, 85, 92
29, 546345, Note_on_c, 12, 80, 0
29, 546345, Note_on_c, 12, 85, 0
29, 546721, Note_on_c, 12, 85, 95
29, 546730, Note_on_c, 12, 80, 87
29, 546751, Note_on_c, 12, 85, 0
29, 546760, Note_on_c, 12, 80, 0
29, 546792, Note_on_c, 12, 85, 94
29, 546808, Note_on_c, 12, 80, 96
29, 546822, Note_on_c, 12, 85, 0
29, 546838, Note_on_c, 12, 80, 0
29, 547203, Note_on_c, 12, 80, 90
29, 547205, Note_on_c, 12, 85, 94
29, 547233, Note_on_c, 12, 80, 0
29, 547235, Note_on_c, 12, 85, 0
29, 547271, Note_on_c, 12, 80, 85
29, 547278, Note_on_c, 12, 85, 79
29, 547301, Note_on_c, 12, 80, 0
29, 547308, Note_on_c, 12, 85, 0
29, 547445, Note_on_c, 12, 78, 80
29, 547464, Note_on_c, 12, 83, 97
29, 547475, Note_on_c, 12, 78, 0
29, 547494, Note_on_c, 12, 83, 0
29, 547509, Note_on_c, 12, 83, 80
29, 547526, Note_on_c, 12, 78, 85
29, 547539, Note_on_c, 12, 83, 0
29, 547556, Note_on_c, 12, 78, 0
29, 547686, Note_on_c, 12, 80, 82
29, 547688, Note_on_c, 12, 85, 96
29, 547716, Note_on_c, 12, 80, 0
29, 547718, Note_on_c, 12, 85, 0
29, 547763, Note_on_c, 12, 85, 86
29, 547765, Note_on_c, 12, 80, 89
29, 547793, Note_on_c, 12, 85, 0
29, 547795, Note_on_c, 12, 80, 0
29, 548160, Note_on_c, 12, 80, 78
29, 548165, Note_on_c, 12, 85, 80
29, 548190, Note_on_c, 12, 80, 0
29, 548195, Note_on_c, 12, 85, 0
29, 548227, Note_on_c, 12, 80, 85
29, 548244, Note_on_c, 12, 85, 87
29, 548257, Note_on_c, 12, 80, 0
29, 548274, Note_on_c, 12, 85, 0
29, 548645, Note_on_c, 12, 80, 92
29, 548662, Note_on_c, 12, 85, 91
29, 548675, Note_on_c, 12, 80, 0
29, 548692, Note_on_c, 12, 85, 0
29, 548708, Note_on_c, 12, 80, 85
29, 548711, Note_on_c, 12, 85, 94
29, 548738, Note_on_c, 12, 80, 0
29, 548741, Note_on_c, 12, 85, 0
29, 549143, Note_on_c, 12, 80, 93
29, 549144, Note_on_c, 12, 85, 92
29, 549166, Note_on_c, 12, 80, 0
29, 549171, Note_on_c, 12, 85, 0
29, 549186, Note_on_c, 12, 80, 83
29, 549191, Note_on_c, 12, 85, 96
29, 549216, Note_on_c, 12, 80, 0
29, 549221, Note_on_c, 12, 85, 0
29, 549375, Note_on_c, 12, 83, 81
29, 549377, Note_on_c, 12, 78, 86
29, 549405, Note_on_c, 12, 83, 0
29, 549407, Note_on_c, 12, 78, 0
29, 549426, Note_on_c, 12, 83, 84
29, 549442, Note_on_c, 12, 78, 89
29, 549456, Note_on_c, 12, 83, 0
29, 549472, Note_on_c, 12, 78, 0
29, 549845, Note_on_c, 12, 74, 88
29, 549855, Note_on_c, 12, 80, 95
29, 549875, Note_on_c, 12, 74, 0
29, 549885, Note_on_c, 12, 80, 0
29, 549902, Note_on_c, 12, 74, 85
29, 549909, Note_on_c, 12, 80, 85
29, 549932, Note_on_c, 12, 74, 0
29, 549939, Note_on_c, 12, 80, 0
29, 550326, Note_on_c, 12, 74, 94
29, 550327, Note_on_c, 12, 80, 91
29, 550356, Note_on_c, 12, 74, 0
29, 550357, Note_on_c, 12, 80, 0
29, 550390, Note_on_c, 12, 74, 94
29, 550406, Note_on_c, 12, 80, 79
29, 550420, Note_on_c, 12, 74, 0
29, 550436, Note_on_c, 12, 80, 0
29, 550573, Note_on_c, 12, 80, 84
29, 550585, Note_on_c, 12, 74, 86
29, 550628, Note_on_c, 12, 80, 0
29, 550629, Note_on_c, 12, 74, 0
29, 550647, Note_on_c, 12, 80, 87
29, 550648, Note_on_c, 12, 74, 84
29, 550707, Note_on_c, 12, 80, 0
29, 550708, Note_on_c, 12, 74, 0
29, 550800, Program_c, 12, 45
29, 550807, Note_on_c, 12, 75, 108
29, 550809, Note_on_c, 12, 78, 113
29, 550927, Note_on_c, 12, 75, 0
29, 550929, Note_on_c, 12, 78, 0
29, 551040, Program_c, 12, 48
29, 551162, Note_on_c, 12, 61, 93
29, 551165, Note_on_c, 12, 73, 94
29, 551183, Note_on_c, 12, 62, 94
29, 551215, Note_on_c, 12, 61, 0
29, 551218, Note_on_c, 12, 73, 0
29, 551236, Note_on_c, 12, 62, 0
29, 551524, Note_on_c, 12, 62, 87
29, 551531, Note_on_c, 12, 73, 88
29, 551537, Note_on_c, 12, 61, 85
29, 551577, Note_on_c, 12, 62, 0
29, 551584, Note_on_c, 12, 73, 0
29, 551590, Note_on_c, 12, 61, 0
29, 551769, Note_on_c, 12, 62, 81
29, 551782, Note_on_c, 12, 73, 91
29, 551783, Note_on_c, 12, 61, 94
29, 551876, Note_on_c, 12, 62, 0
29, 551889, Note_on_c, 12, 73, 0
29, 551890, Note_on_c, 12, 61, 0
29, 552122, Note_on_c, 12, 73, 87
29, 552129, Note_on_c, 12, 62, 80
29, 552141, Note_on_c, 12, 61, 92
29, 552229, Note_on_c, 12, 73, 0
29, 552236, Note_on_c, 12, 62, 0
29, 552248, Note_on_c, 12, 61, 0
29, 552484, Note_on_c, 12, 69, 95
29, 552489, Note_on_c, 12, 63, 98
29, 552501, Note_on_c, 12, 66, 78
29, 552520, Note_on_c, 12, 69, 0
29, 552525, Note_on_c, 12, 63, 0
29, 552537, Note_on_c, 12, 66, 0
29, 552604, Note_on_c, 12, 64, 96
29, 552605, Note_on_c, 12, 67, 78
29, 552626, Note_on_c, 12, 60, 87
29, 552640, Note_on_c, 12, 64, 0
29, 552641, Note_on_c, 12, 67, 0
29, 552662, Note_on_c, 12, 60, 0
29, 552736, Note_on_c, 12, 59, 89
29, 552744, Note_on_c, 12, 66, 82
29, 552746, Note_on_c, 12, 61, 87
29, 552772, Note_on_c, 12, 59, 0
29, 552780, Note_on_c, 12, 66, 0
29, 552782, Note_on_c, 12, 61, 0
29, 552963, Note_on_c, 12, 61, 78
29, 552968, Note_on_c, 12, 62, 81
29, 552976, Note_on_c, 12, 73, 98
29, 553016, Note_on_c, 12, 61, 0
29, 553021, Note_on_c, 12, 62, 0
29, 553029, Note_on_c, 12, 73, 0
29, 553220, Note_on_c, 12, 61, 87
29, 553222, Note_on_c, 12, 73, 90
29, 553228, Note_on_c, 12, 62, 90
29, 553327, Note_on_c, 12, 61, 0
29, 553329, Note_on_c, 12, 73, 0
29, 553335, Note_on_c, 12, 62, 0
29, 553570, Note_on_c, 12, 62, 84
29, 553578, Note_on_c, 12, 73, 88
29, 553580, Note_on_c, 12, 61, 98
29, 553677, Note_on_c, 12, 62, 0
29, 553685, Note_on_c, 12, 73, 0
29, 553687, Note_on_c, 12, 61, 0
29, 553925, Note_on_c, 12, 66, 85
29, 553926, Note_on_c, 12, 63, 90
29, 553933, Note_on_c, 12, 69, 93
29, 553961, Note_on_c, 12, 66, 0
29, 553962, Note_on_c, 12, 63, 0
29, 553969, Note_on_c, 12, 69, 0
29, 554058, Note_on_c, 12, 60, 94
29, 554060, Note_on_c, 12, 64, 79
29, 554067, Note_on_c, 12, 67, 88
29, 554094, Note_on_c, 12, 60, 0
29, 554096, Note_on_c, 12, 64, 0
29, 554103, Note_on_c, 12, 67, 0
29, 554162, Note_on_c, 12, 61, 89
29, 554184, Note_on_c, 12, 59, 93
29, 554188, Note_on_c, 12, 66, 87
29, 554198, Note_on_c, 12, 61, 0
29, 554220, Note_on_c, 12, 59, 0
29, 554224, Note_on_c, 12, 66, 0
29, 554400, Note_on_c, 12, 73, 85
29, 554411, Note_on_c, 12, 61, 85
29, 554413, Note_on_c, 12, 62, 87
29, 554507, Note_on_c, 12, 73, 0
29, 554518, Note_on_c, 12, 61, 0
29, 554520, Note_on_c, 12, 62, 0
29, 554777, Note_on_c, 12, 74, 106
29, 554777, Note_on_c, 12, 76, 111
29, 554920, Note_on_c, 12, 74, 0
29, 554920, Note_on_c, 12, 76, 0
29, 555018, Note_on_c, 12, 74, 94
29, 555028, Note_on_c, 12, 76, 98
29, 555161, Note_on_c, 12, 74, 0
29, 555171, Note_on_c, 12, 76, 0
29, 555242, Note_on_c, 12, 76, 104
29, 555265, Note_on_c, 12, 74, 102
29, 555295, Note_on_c, 12, 76, 0
29, 555318, Note_on_c, 12, 74, 0
29, 555361, Note_on_c, 12, 74, 98
29, 555377, Note_on_c, 12, 76, 108
29, 555414, Note_on_c, 12, 74, 0
29, 555430, Note_on_c, 12, 76, 0
29, 555493, Note_on_c, 12, 74, 91
29, 555495, Note_on_c, 12, 76, 104
29, 555546, Note_on_c, 12, 74, 0
29, 555548, Note_on_c, 12, 76, 0
29, 555722, Note_on_c, 12, 62, 88
29, 555726, Note_on_c, 12, 73, 82
29, 555734, Note_on_c, 12, 61, 78
29, 555775, Note_on_c, 12, 62, 0
29, 555779, Note_on_c, 12, 73, 0
29, 555787, Note_on_c, 12, 61, 0
29, 555975, Note_on_c, 12, 73, 82
29, 555981, Note_on_c, 12, 61, 90
29, 555987, Note_on_c, 12, 62, 79
29, 556028, Note_on_c, 12, 73, 0
29, 556034, Note_on_c, 12, 61, 0
29, 556040, Note_on_c, 12, 62, 0
29, 556212, Note_on_c, 12, 73, 97
29, 556220, Note_on_c, 12, 62, 87
29, 556224, Note_on_c, 12, 61, 82
29, 556319, Note_on_c, 12, 73, 0
29, 556327, Note_on_c, 12, 62, 0
29, 556331, Note_on_c, 12, 61, 0
29, 556573, Note_on_c, 12, 63, 93
29, 556578, Note_on_c, 12, 66, 83
29, 556583, Note_on_c, 12, 69, 79
29, 556626, Note_on_c, 12, 63, 0
29, 556631, Note_on_c, 12, 66, 0
29, 556636, Note_on_c, 12, 69, 0
29, 556682, Note_on_c, 12, 67, 86
29, 556693, Note_on_c, 12, 64, 83
29, 556699, Note_on_c, 12, 60, 80
29, 556735, Note_on_c, 12, 67, 0
29, 556746, Note_on_c, 12, 64, 0
29, 556752, Note_on_c, 12, 60, 0
29, 556806, Note_on_c, 12, 65, 93
29, 556807, Note_on_c, 12, 61, 78
29, 556821, Note_on_c, 12, 59, 90
29, 556859, Note_on_c, 12, 65, 0
29, 556860, Note_on_c, 12, 61, 0
29, 556874, Note_on_c, 12, 59, 0
29, 556938, Note_on_c, 12, 74, 97
29, 556943, Note_on_c, 12, 76, 110
29, 557010, Note_on_c, 12, 74, 0
29, 557015, Note_on_c, 12, 76, 0
29, 557043, Note_on_c, 12, 76, 111
29, 557044, Note_on_c, 12, 74, 104
29, 557115, Note_on_c, 12, 76, 0
29, 557116, Note_on_c, 12, 74, 0
29, 557167, Note_on_c, 12, 74, 94
29, 557174, Note_on_c, 12, 76, 100
29, 557239, Note_on_c, 12, 74, 0
29, 557246, Note_on_c, 12, 76, 0
29, 557400, Note_on_c, 12, 76, 110
29, 557410, Note_on_c, 12, 74, 91
29, 557447, Note_on_c, 12, 76, 0
29, 557457, Note_on_c, 12, 74, 0
29, 557537, Note_on_c, 12, 71, 100
29, 557548, Note_on_c, 12, 62, 109
29, 557680, Note_on_c, 12, 71, 0
29, 557691, Note_on_c, 12, 62, 0
29, 557774, Note_on_c, 12, 62, 97
29, 557781, Note_on_c, 12, 71, 106
29, 557917, Note_on_c, 12, 62, 0
29, 557924, Note_on_c, 12, 71, 0
29, 558001, Note_on_c, 12, 62, 102
29, 558005, Note_on_c, 12, 71, 101
29, 558048, Note_on_c, 12, 62, 0
29, 558052, Note_on_c, 12, 71, 0
29, 558250, Note_on_c, 12, 61, 91
29, 558251, Note_on_c, 12, 62, 111
29, 558259, Note_on_c, 12, 73, 97
29, 558303, Note_on_c, 12, 61, 0
29, 558304, Note_on_c, 12, 62, 0
29, 558312, Note_on_c, 12, 73, 0
29, 558487, Note_on_c, 12, 73, 110
29, 558494, Note_on_c, 12, 61, 110
29, 558494, Note_on_c, 12, 62, 97
29, 558540, Note_on_c, 12, 73, 0
29, 558547, Note_on_c, 12, 61, 0
29, 558547, Note_on_c, 12, 62, 0
29, 558732, Note_on_c, 12, 73, 96
29, 558737, Note_on_c, 12, 61, 101
29, 558741, Note_on_c, 12, 62, 91
29, 558839, Note_on_c, 12, 73, 0
29, 558844, Note_on_c, 12, 61, 0
29, 558848, Note_on_c, 12, 62, 0
29, 559080, Note_on_c, 12, 63, 103
29, 559087, Note_on_c, 12, 69, 95
29, 559096, Note_on_c, 12, 66, 92
29, 559133, Note_on_c, 12, 63, 0
29, 559140, Note_on_c, 12, 69, 0
29, 559149, Note_on_c, 12, 66, 0
29, 559202, Note_on_c, 12, 64, 111
29, 559218, Note_on_c, 12, 60, 101
29, 559219, Note_on_c, 12, 67, 107
29, 559255, Note_on_c, 12, 64, 0
29, 559271, Note_on_c, 12, 60, 0
29, 559272, Note_on_c, 12, 67, 0
29, 559332, Note_on_c, 12, 59, 91
29, 559334, Note_on_c, 12, 61, 93
29, 559343, Note_on_c, 12, 65, 107
29, 559385, Note_on_c, 12, 59, 0
29, 559387, Note_on_c, 12, 61, 0
29, 559396, Note_on_c, 12, 65, 0
29, 559562, Note_on_c, 12, 61, 94
29, 559562, Note_on_c, 12, 73, 103
29, 559587, Note_on_c, 12, 62, 103
29, 559669, Note_on_c, 12, 61, 0
29, 559669, Note_on_c, 12, 73, 0
29, 559694, Note_on_c, 12, 62, 0
29, 559921, Note_on_c, 12, 61, 110
29, 559924, Note_on_c, 12, 73, 98
29, 559935, Note_on_c, 12, 62, 103
29, 559974, Note_on_c, 12, 61, 0
29, 559977, Note_on_c, 12, 73, 0
29, 559988, Note_on_c, 12, 62, 0
29, 560168, Note_on_c, 12, 61, 110
29, 560188, Note_on_c, 12, 62, 94
29, 560189, Note_on_c, 12, 73, 103
29, 560275, Note_on_c, 12, 61, 0
29, 560295, Note_on_c, 12, 62, 0
29, 560296, Note_on_c, 12, 73, 0
29, 560528, Note_on_c, 12, 69, 93
29, 560534, Note_on_c, 12, 66, 102
29, 560537, Note_on_c, 12, 63, 91
29, 560581, Note_on_c, 12, 69, 0
29, 560587, Note_on_c, 12, 66, 0
29, 560590, Note_on_c, 12, 63, 0
29, 560661, Note_on_c, 12, 67, 111
29, 560662, Note_on_c, 12, 60, 93
29, 560664, Note_on_c, 12, 64, 94
29, 560714, Note_on_c, 12, 67, 0
29, 560715, Note_on_c, 12, 60, 0
29, 560717, Note_on_c, 12, 64, 0
29, 560769, Note_on_c, 12, 65, 99
29, 560770, Note_on_c, 12, 61, 97
29, 560782, Note_on_c, 12, 59, 107
29, 560822, Note_on_c, 12, 65, 0
29, 560823, Note_on_c, 12, 61, 0
29, 560835, Note_on_c, 12, 59, 0
29, 561011, Note_on_c, 12, 73, 108
29, 561018, Note_on_c, 12, 62, 105
29, 561024, Note_on_c, 12, 61, 99
29, 561064, Note_on_c, 12, 73, 0
29, 561071, Note_on_c, 12, 62, 0
29, 561077, Note_on_c, 12, 61, 0
29, 561251, Note_on_c, 12, 63, 109
29, 561252, Note_on_c, 12, 69, 96
29, 561262, Note_on_c, 12, 66, 97
29, 561304, Note_on_c, 12, 63, 0
29, 561305, Note_on_c, 12, 69, 0
29, 561315, Note_on_c, 12, 66, 0
29, 561361, Note_on_c, 12, 64, 108
29, 561380, Note_on_c, 12, 67, 108
29, 561388, Note_on_c, 12, 60, 95
29, 561414, Note_on_c, 12, 64, 0
29, 561433, Note_on_c, 12, 67, 0
29, 561441, Note_on_c, 12, 60, 0
29, 561480, Note_on_c, 12, 65, 102
29, 561499, Note_on_c, 12, 61, 93
29, 561501, Note_on_c, 12, 59, 97
29, 561533, Note_on_c, 12, 65, 0
29, 561552, Note_on_c, 12, 61, 0
29, 561554, Note_on_c, 12, 59, 0
29, 561732, Note_on_c, 12, 62, 100
29, 561736, Note_on_c, 12, 61, 101
29, 561742, Note_on_c, 12, 73, 101
29, 561839, Note_on_c, 12, 62, 0
29, 561843, Note_on_c, 12, 61, 0
29, 561849, Note_on_c, 12, 73, 0
29, 562085, Note_on_c, 12, 73, 103
29, 562089, Note_on_c, 12, 62, 109
29, 562102, Note_on_c, 12, 61, 94
29, 562138, Note_on_c, 12, 73, 0
29, 562142, Note_on_c, 12, 62, 0
29, 562155, Note_on_c, 12, 61, 0
29, 562323, Note_on_c, 12, 62, 107
29, 562328, Note_on_c, 12, 61, 97
29, 562345, Note_on_c, 12, 73, 111
29, 562430, Note_on_c, 12, 62, 0
29, 562435, Note_on_c, 12, 61, 0
29, 562452, Note_on_c, 12, 73, 0
29, 562694, Note_on_c, 12, 69, 101
29, 562695, Note_on_c, 12, 66, 101
29, 562702, Note_on_c, 12, 63, 101
29, 562747, Note_on_c, 12, 69, 0
29, 562748, Note_on_c, 12, 66, 0
29, 562755, Note_on_c, 12, 63, 0
29, 562802, Note_on_c, 12, 64, 111
29, 562811, Note_on_c, 12, 60, 97
29, 562826, Note_on_c, 12, 67, 103
29, 562855, Note_on_c, 12, 64, 0
29, 562864, Note_on_c, 12, 60, 0
29, 562879, Note_on_c, 12, 67, 0
29, 562928, Note_on_c, 12, 59, 91
29, 562930, Note_on_c, 12, 65, 98
29, 562939, Note_on_c, 12, 61, 94
29, 562981, Note_on_c, 12, 59, 0
29, 562983, Note_on_c, 12, 65, 0
29, 562992, Note_on_c, 12, 61, 0
29, 563527, Note_on_c, 12, 62, 95
29, 563539, Note_on_c, 12, 76, 104
29, 563547, Note_on_c, 12, 74, 91
29, 563580, Note_on_c, 12, 62, 0
29, 563592, Note_on_c, 12, 76, 0
29, 563600, Note_on_c, 12, 74, 0
29, 564367, Note_on_c, 12, 76, 103
29, 564370, Note_on_c, 12, 62, 97
29, 564373, Note_on_c, 12, 74, 94
29, 564420, Note_on_c, 12, 76, 0
29, 564423, Note_on_c, 12, 62, 0
29, 564426, Note_on_c, 12, 74, 0
29, 576261, Note_on_c, 12, 74, 79
29, 577448, Note_on_c, 12, 72, 78
29, 577461, Note_on_c, 12, 74, 0
29, 577568, Note_on_c, 12, 72, 0
29, 577707, Note_on_c, 12, 70, 98
29, 577827, Note_on_c, 12, 70, 0
29, 577947, Note_on_c, 12, 68, 94
29, 578067, Note_on_c, 12, 68, 0
29, 578167, Note_on_c, 12, 72, 89
29, 578287, Note_on_c, 12, 72, 0
29, 578428, Note_on_c, 12, 74, 78
29, 578548, Note_on_c, 12, 74, 0
29, 580081, Note_on_c, 12, 79, 106
29, 580087, Note_on_c, 12, 60, 93
29, 580094, Note_on_c, 12, 67, 106
29, 580188, Note_on_c, 12, 79, 0
29, 580194, Note_on_c, 12, 60, 0
29, 580201, Note_on_c, 12, 67, 0
29, 581280, Program_c, 12, 45
29, 581281, Note_on_c, 12, 64, 92
29, 581288, Note_on_c, 12, 61, 103
29, 581521, Note_on_c, 12, 64, 0
29, 581523, Note_on_c, 12, 63, 110
29, 581528, Note_on_c, 12, 61, 0
29, 581547, Note_on_c, 12, 60, 97
29, 581763, Note_on_c, 12, 63, 0
29, 581781, Note_on_c, 12, 58, 111
29, 581785, Note_on_c, 12, 61, 106
29, 581787, Note_on_c, 12, 60, 0
29, 582001, Note_on_c, 12, 61, 0
29, 582002, Note_on_c, 12, 64, 110
29, 582020, Note_on_c, 12, 61, 94
29, 582021, Note_on_c, 12, 58, 0
29, 582242, Note_on_c, 12, 64, 0
29, 582246, Note_on_c, 12, 67, 102
29, 582260, Note_on_c, 12, 61, 0
29, 582267, Note_on_c, 12, 60, 108
29, 582486, Note_on_c, 12, 67, 0
29, 582507, Note_on_c, 12, 60, 0
29, 583200, Program_c, 12, 44
29, 583215, Note_on_c, 12, 67, 106
29, 583681, Note_on_c, 12, 71, 94
29, 583695, Note_on_c, 12, 67, 0
29, 584161, Note_on_c, 12, 71, 0
29, 584182, Note_on_c, 12, 67, 103
29, 584183, Note_on_c, 12, 72, 103
29, 584662, Note_on_c, 12, 67, 0
29, 584663, Note_on_c, 12, 72, 0
29, 584880, Program_c, 12, 48
29, 584886, Note_on_c, 12, 67, 104
29, 584898, Note_on_c, 12, 79, 110
29, 584898, Note_on_c, 12, 72, 97
29, 584993, Note_on_c, 12, 67, 0
29, 585005, Note_on_c, 12, 79, 0
29, 585005, Note_on_c, 12, 72, 0
29, 586080, Program_c, 12, 45
29, 586098, Note_on_c, 12, 64, 109
29, 586099, Note_on_c, 12, 61, 104
29, 586332, Note_on_c, 12, 60, 108
29, 586338, Note_on_c, 12, 64, 0
29, 586339, Note_on_c, 12, 61, 0
29, 586341, Note_on_c, 12, 63, 93
29, 586572, Note_on_c, 12, 60, 0
29, 586574, Note_on_c, 12, 61, 102
29, 586581, Note_on_c, 12, 63, 0
29, 586588, Note_on_c, 12, 58, 106
29, 586807, Note_on_c, 12, 61, 0
29, 586822, Note_on_c, 12, 64, 108
29, 586827, Note_on_c, 12, 61, 107
29, 586828, Note_on_c, 12, 58, 0
29, 587045, Note_on_c, 12, 67, 102
29, 587060, Note_on_c, 12, 60, 110
29, 587062, Note_on_c, 12, 64, 0
29, 587067, Note_on_c, 12, 61, 0
29, 587285, Note_on_c, 12, 67, 0
29, 587300, Note_on_c, 12, 60, 0
29, 588480, Program_c, 12, 48
29, 588485, Note_on_c, 12, 75, 91
29, 588489, Note_on_c, 12, 63, 102
29, 588495, Note_on_c, 12, 70, 91
29, 588965, Note_on_c, 12, 75, 0
29, 588969, Note_on_c, 12, 63, 0
29, 588975, Note_on_c, 12, 70, 0
29, 589454, Note_on_c, 12, 75, 92
29, 589456, Note_on_c, 12, 63, 105
29, 589468, Note_on_c, 12, 70, 108
29, 589934, Note_on_c, 12, 75, 0
29, 589936, Note_on_c, 12, 63, 0
29, 589948, Note_on_c, 12, 70, 0
29, 590401, Note_on_c, 12, 75, 93
29, 590411, Note_on_c, 12, 70, 104
29, 590428, Note_on_c, 12, 63, 98
29, 590881, Note_on_c, 12, 75, 0
29, 590882, Note_on_c, 12, 63, 0
29, 590886, Note_on_c, 12, 71, 98
29, 590891, Note_on_c, 12, 70, 0
29, 590901, Note_on_c, 12, 63, 110
29, 591006, Note_on_c, 12, 71, 0
29, 591021, Note_on_c, 12, 63, 0
29, 591136, Note_on_c, 12, 64, 94
29, 591142, Note_on_c, 12, 70, 95
29, 591256, Note_on_c, 12, 64, 0
29, 591262, Note_on_c, 12, 70, 0
29, 591362, Note_on_c, 12, 68, 101
29, 591362, Note_on_c, 12, 63, 96
29, 591482, Note_on_c, 12, 68, 0
29, 591482, Note_on_c, 12, 63, 0
29, 591623, Note_on_c, 12, 64, 97
29, 591628, Note_on_c, 12, 71, 94
29, 591743, Note_on_c, 12, 64, 0
29, 591748, Note_on_c, 12, 71, 0
29, 591843, Note_on_c, 12, 68, 93
29, 591844, Note_on_c, 12, 73, 95
29, 592323, Note_on_c, 12, 68, 0
29, 592324, Note_on_c, 12, 73, 0
29, 592329, Note_on_c, 12, 75, 107
29, 592333, Note_on_c, 12, 63, 108
29, 592348, Note_on_c, 12, 70, 95
29, 592798, Note_on_c, 12, 63, 0
29, 592809, Note_on_c, 12, 75, 0
29, 592818, Note_on_c, 12, 63, 109
29, 592823, Note_on_c, 12, 71, 110
29, 592828, Note_on_c, 12, 70, 0
29, 592938, Note_on_c, 12, 63, 0
29, 592943, Note_on_c, 12, 71, 0
29, 593055, Note_on_c, 12, 70, 102
29, 593056, Note_on_c, 12, 64, 100
29, 593175, Note_on_c, 12, 70, 0
29, 593176, Note_on_c, 12, 64, 0
29, 593286, Note_on_c, 12, 63, 110
29, 593298, Note_on_c, 12, 68, 91
29, 593406, Note_on_c, 12, 63, 0
29, 593418, Note_on_c, 12, 68, 0
29, 593537, Note_on_c, 12, 64, 91
29, 593545, Note_on_c, 12, 71, 98
29, 593657, Note_on_c, 12, 64, 0
29, 593665, Note_on_c, 12, 71, 0
29, 593771, Note_on_c, 12, 68, 97
29, 593781, Note_on_c, 12, 73, 96
29, 594241, Note_on_c, 12, 63, 99
29, 594241, Note_on_c, 12, 75, 110
29, 594244, Note_on_c, 12, 70, 108
29, 594251, Note_on_c, 12, 68, 0
29, 594261, Note_on_c, 12, 73, 0
29, 594721, Note_on_c, 12, 63, 0
29, 594721, Note_on_c, 12, 75, 0
29, 594724, Note_on_c, 12, 70, 0
29, 595203, Note_on_c, 12, 70, 97
29, 595220, Note_on_c, 12, 63, 102
29, 595225, Note_on_c, 12, 75, 103
29, 595670, Note_on_c, 12, 63, 0
29, 595683, Note_on_c, 12, 70, 0
29, 595690, Note_on_c, 12, 63, 102
29, 595692, Note_on_c, 12, 71, 109
29, 595705, Note_on_c, 12, 75, 0
29, 595810, Note_on_c, 12, 63, 0
29, 595812, Note_on_c, 12, 71, 0
29, 595930, Note_on_c, 12, 64, 100
29, 595948, Note_on_c, 12, 70, 94
29, 596050, Note_on_c, 12, 64, 0
29, 596068, Note_on_c, 12, 70, 0
29, 596161, Note_on_c, 12, 68, 104
29, 596183, Note_on_c, 12, 63, 103
29, 596281, Note_on_c, 12, 68, 0
29, 596303, Note_on_c, 12, 63, 0
29, 596416, Note_on_c, 12, 64, 109
29, 596422, Note_on_c, 12, 71, 98
29, 596536, Note_on_c, 12, 64, 0
29, 596542, Note_on_c, 12, 71, 0
29, 596652, Note_on_c, 12, 73, 95
29, 596661, Note_on_c, 12, 68, 100
29, 597124, Note_on_c, 12, 63, 101
29, 597132, Note_on_c, 12, 73, 0
29, 597140, Note_on_c, 12, 70, 92
29, 597141, Note_on_c, 12, 68, 0
29, 597144, Note_on_c, 12, 75, 102
29, 597602, Note_on_c, 12, 63, 93
29, 597604, Note_on_c, 12, 63, 0
29, 597620, Note_on_c, 12, 70, 0
29, 597624, Note_on_c, 12, 75, 0
29, 597625, Note_on_c, 12, 71, 94
29, 597722, Note_on_c, 12, 63, 0
29, 597745, Note_on_c, 12, 71, 0
29, 597848, Note_on_c, 12, 70, 105
29, 597868, Note_on_c, 12, 64, 104
29, 597968, Note_on_c, 12, 70, 0
29, 597988, Note_on_c, 12, 64, 0
29, 598097, Note_on_c, 12, 68, 97
29, 598099, Note_on_c, 12, 63, 109
29, 598217, Note_on_c, 12, 68, 0
29, 598219, Note_on_c, 12, 63, 0
29, 598346, Note_on_c, 12, 64, 108
29, 598347, Note_on_c, 12, 71, 111
29, 598466, Note_on_c, 12, 64, 0
29, 598467, Note_on_c, 12, 71, 0
29, 598569, Note_on_c, 12, 73, 92
29, 598583, Note_on_c, 12, 68, 92
29, 599047, Note_on_c, 12, 63, 106
29, 599049, Note_on_c, 12, 73, 0
29, 599057, Note_on_c, 12, 75, 109
29, 599059, Note_on_c, 12, 70, 107
29, 599063, Note_on_c, 12, 68, 0
29, 599527, Note_on_c, 12, 63, 0
29, 599537, Note_on_c, 12, 75, 0
29, 599539, Note_on_c, 12, 70, 0
29, 600002, Note_on_c, 12, 63, 107
29, 600011, Note_on_c, 12, 70, 114
29, 600022, Note_on_c, 12, 55, 103
29, 600024, Note_on_c, 12, 75, 107
29, 600242, Note_on_c, 12, 63, 0
29, 600251, Note_on_c, 12, 70, 0
29, 600262, Note_on_c, 12, 55, 0
29, 600264, Note_on_c, 12, 75, 0
29, 600488, Note_on_c, 12, 57, 104
29, 600494, Note_on_c, 12, 69, 101
29, 600500, Note_on_c, 12, 64, 108
29, 600505, Note_on_c, 12, 76, 117
29, 600728, Note_on_c, 12, 57, 0
29, 600734, Note_on_c, 12, 69, 0
29, 600740, Note_on_c, 12, 64, 0
29, 600745, Note_on_c, 12, 76, 0
29, 600962, Note_on_c, 12, 70, 106
29, 600971, Note_on_c, 12, 62, 118
29, 600975, Note_on_c, 12, 77, 118
29, 601202, Note_on_c, 12, 70, 0
29, 601211, Note_on_c, 12, 62, 0
29, 601215, Note_on_c, 12, 77, 0
29, 601457, Note_on_c, 12, 71, 101
29, 601459, Note_on_c, 12, 78, 112
29, 601461, Note_on_c, 12, 63, 112
29, 601577, Note_on_c, 12, 71, 0
29, 601579, Note_on_c, 12, 78, 0
29, 601581, Note_on_c, 12, 63, 0
29, 601691, Note_on_c, 12, 69, 120
29, 601699, Note_on_c, 12, 66, 106
29, 601709, Note_on_c, 12, 62, 118
29, 601811, Note_on_c, 12, 69, 0
29, 601819, Note_on_c, 12, 66, 0
29, 601829, Note_on_c, 12, 62, 0
29, 602167, Note_on_c, 12, 62, 110
29, 602177, Note_on_c, 12, 66, 100
29, 602180, Note_on_c, 12, 69, 109
29, 602220, Note_on_c, 12, 62, 0
29, 602230, Note_on_c, 12, 66, 0
29, 602233, Note_on_c, 12, 69, 0
29, 602407, Note_on_c, 12, 66, 117
29, 602411, Note_on_c, 12, 69, 112
29, 602419, Note_on_c, 12, 62, 120
29, 602460, Note_on_c, 12, 66, 0
29, 602464, Note_on_c, 12, 69, 0
29, 602472, Note_on_c, 12, 62, 0
29, 602767, Note_on_c, 12, 66, 109
29, 602773, Note_on_c, 12, 69, 111
29, 602778, Note_on_c, 12, 62, 116
29, 602820, Note_on_c, 12, 66, 0
29, 602826, Note_on_c, 12, 69, 0
29, 602831, Note_on_c, 12, 62, 0
29, 603124, Note_on_c, 12, 67, 120
29, 603137, Note_on_c, 12, 70, 109
29, 603177, Note_on_c, 12, 67, 0
29, 603190, Note_on_c, 12, 70, 0
29, 603241, Note_on_c, 12, 68, 106
29, 603251, Note_on_c, 12, 65, 100
29, 603294, Note_on_c, 12, 68, 0
29, 603304, Note_on_c, 12, 65, 0
29, 603370, Note_on_c, 12, 66, 106
29, 603376, Note_on_c, 12, 63, 119
29, 603423, Note_on_c, 12, 66, 0
29, 603429, Note_on_c, 12, 63, 0
29, 603600, Note_on_c, 12, 62, 106
29, 603620, Note_on_c, 12, 69, 115
29, 603624, Note_on_c, 12, 66, 105
29, 603653, Note_on_c, 12, 62, 0
29, 603673, Note_on_c, 12, 69, 0
29, 603677, Note_on_c, 12, 66, 0
29, 603851, Note_on_c, 12, 67, 117
29, 603863, Note_on_c, 12, 70, 105
29, 603904, Note_on_c, 12, 67, 0
29, 603916, Note_on_c, 12, 70, 0
29, 603965, Note_on_c, 12, 65, 113
29, 603988, Note_on_c, 12, 68, 117
29, 604018, Note_on_c, 12, 65, 0
29, 604041, Note_on_c, 12, 68, 0
29, 604088, Note_on_c, 12, 63, 104
29, 604095, Note_on_c, 12, 66, 118
29, 604141, Note_on_c, 12, 63, 0
29, 604148, Note_on_c, 12, 66, 0
29, 604699, Note_on_c, 12, 74, 122
29, 604706, Note_on_c, 12, 62, 112
29, 604707, Note_on_c, 12, 86, 115
29, 604939, Note_on_c, 12, 74, 0
29, 604946, Note_on_c, 12, 62, 0
29, 604947, Note_on_c, 12, 86, 0
29, 605162, Note_on_c, 12, 74, 117
29, 605173, Note_on_c, 12, 86, 123
29, 605178, Note_on_c, 12, 62, 116
29, 605418, Note_on_c, 12, 62, 0
29, 605882, Note_on_c, 12, 74, 0
29, 605893, Note_on_c, 12, 86, 0
29, 606131, Note_on_c, 12, 86, 120
29, 606136, Note_on_c, 12, 62, 117
29, 606142, Note_on_c, 12, 74, 118
29, 606376, Note_on_c, 12, 62, 0
29, 606851, Note_on_c, 12, 86, 0
29, 606862, Note_on_c, 12, 74, 0
29, 607094, Note_on_c, 12, 86, 118
29, 607095, Note_on_c, 12, 74, 119
29, 607100, Note_on_c, 12, 62, 115
29, 607340, Note_on_c, 12, 62, 0
29, 607814, Note_on_c, 12, 86, 0
29, 607815, Note_on_c, 12, 74, 0
29, 608045, Note_on_c, 12, 62, 123
29, 608052, Note_on_c, 12, 74, 108
29, 608057, Note_on_c, 12, 86, 118
29, 608285, Note_on_c, 12, 62, 0
29, 608772, Note_on_c, 12, 74, 0
29, 608777, Note_on_c, 12, 86, 0
29, 609009, Note_on_c, 12, 72, 117
29, 609129, Note_on_c, 12, 72, 0
29, 609255, Note_on_c, 12, 70, 116
29, 609375, Note_on_c, 12, 70, 0
29, 609480, Note_on_c, 12, 68, 119
29, 609600, Note_on_c, 12, 68, 0
29, 609733, Note_on_c, 12, 72, 110
29, 609853, Note_on_c, 12, 72, 0
29, 609976, Note_on_c, 12, 74, 112
29, 610696, Note_on_c, 12, 74, 0
29, 610930, Note_on_c, 12, 86, 106
29, 610932, Note_on_c, 12, 62, 109
29, 610944, Note_on_c, 12, 74, 119
29, 611172, Note_on_c, 12, 62, 0
29, 611664, Note_on_c, 12, 74, 0
29, 611884, Note_on_c, 12, 72, 120
29, 611890, Note_on_c, 12, 86, 0
29, 612004, Note_on_c, 12, 72, 0
29, 612126, Note_on_c, 12, 70, 110
29, 612246, Note_on_c, 12, 70, 0
29, 612374, Note_on_c, 12, 68, 106
29, 612494, Note_on_c, 12, 68, 0
29, 612609, Note_on_c, 12, 72, 123
29, 612729, Note_on_c, 12, 72, 0
29, 612851, Note_on_c, 12, 74, 112
29, 613571, Note_on_c, 12, 74, 0
29, 613800, Note_on_c, 12, 62, 111
29, 613802, Note_on_c, 12, 86, 121
29, 613814, Note_on_c, 12, 74, 124
29, 614040, Note_on_c, 12, 62, 0
29, 614042, Note_on_c, 12, 86, 0
29, 614054, Note_on_c, 12, 74, 0
29, 614308, Note_on_c, 12, 72, 117
29, 614428, Note_on_c, 12, 72, 0
29, 614530, Note_on_c, 12, 70, 109
29, 614650, Note_on_c, 12, 70, 0
29, 614767, Note_on_c, 12, 68, 124
29, 614887, Note_on_c, 12, 68, 0
29, 615001, Note_on_c, 12, 72, 112
29, 615121, Note_on_c, 12, 72, 0
29, 615245, Note_on_c, 12, 74, 123
29, 615485, Note_on_c, 12, 74, 0
29, 615739, Note_on_c, 12, 62, 113
29, 615743, Note_on_c, 12, 86, 108
29, 615743, Note_on_c, 12, 74, 116
29, 615979, Note_on_c, 12, 62, 0
29, 616463, Note_on_c, 12, 86, 0
29, 616463, Note_on_c, 12, 74, 0
29, 616699, Note_on_c, 12, 76, 105
29, 616819, Note_on_c, 12, 76, 0
29, 616942, Note_on_c, 12, 74, 113
29, 617062, Note_on_c, 12, 74, 0
29, 617172, Note_on_c, 12, 64, 106
29, 617184, Note_on_c, 12, 76, 119
29, 617412, Note_on_c, 12, 64, 0
29, 617424, Note_on_c, 12, 76, 0
29, 617668, Note_on_c, 12, 78, 106
29, 617908, Note_on_c, 12, 78, 0
29, 618125, Note_on_c, 12, 79, 111
29, 618138, Note_on_c, 12, 67, 107
29, 618365, Note_on_c, 12, 79, 0
29, 618378, Note_on_c, 12, 67, 0
29, 618609, Note_on_c, 12, 79, 109
29, 618611, Note_on_c, 12, 67, 120
29, 618849, Note_on_c, 12, 79, 0
29, 618851, Note_on_c, 12, 67, 0
29, 619090, Note_on_c, 12, 79, 122
29, 619100, Note_on_c, 12, 67, 119
29, 619330, Note_on_c, 12, 79, 0
29, 619340, Note_on_c, 12, 67, 0
29, 619567, Note_on_c, 12, 77, 113
29, 619687, Note_on_c, 12, 77, 0
29, 619815, Note_on_c, 12, 75, 108
29, 619935, Note_on_c, 12, 75, 0
29, 620042, Note_on_c, 12, 73, 113
29, 620162, Note_on_c, 12, 73, 0
29, 620300, Note_on_c, 12, 77, 110
29, 620420, Note_on_c, 12, 77, 0
29, 620531, Note_on_c, 12, 67, 110
29, 620543, Note_on_c, 12, 79, 109
29, 620771, Note_on_c, 12, 67, 0
29, 620783, Note_on_c, 12, 79, 0
29, 621004, Note_on_c, 12, 79, 121
29, 621014, Note_on_c, 12, 67, 109
29, 621244, Note_on_c, 12, 79, 0
29, 621254, Note_on_c, 12, 67, 0
29, 621485, Note_on_c, 12, 79, 109
29, 621488, Note_on_c, 12, 67, 120
29, 621725, Note_on_c, 12, 79, 0
29, 621728, Note_on_c, 12, 67, 0
29, 621970, Note_on_c, 12, 67, 118
29, 621986, Note_on_c, 12, 79, 111
29, 622210, Note_on_c, 12, 67, 0
29, 622226, Note_on_c, 12, 79, 0
29, 622447, Note_on_c, 12, 77, 120
29, 622567, Note_on_c, 12, 77, 0
29, 622685, Note_on_c, 12, 75, 111
29, 622805, Note_on_c, 12, 75, 0
29, 622929, Note_on_c, 12, 73, 114
29, 623049, Note_on_c, 12, 73, 0
29, 623168, Note_on_c, 12, 77, 119
29, 623288, Note_on_c, 12, 77, 0
29, 623411, Note_on_c, 12, 67, 110
29, 623412, Note_on_c, 12, 79, 123
29, 623651, Note_on_c, 12, 67, 0
29, 623652, Note_on_c, 12, 79, 0
29, 623883, Note_on_c, 12, 79, 106
29, 623907, Note_on_c, 12, 67, 115
29, 624123, Note_on_c, 12, 79, 0
29, 624147, Note_on_c, 12, 67, 0
29, 624385, Note_on_c, 12, 77, 114
29, 624505, Note_on_c, 12, 77, 0
29, 624609, Note_on_c, 12, 75, 117
29, 624729, Note_on_c, 12, 75, 0
29, 624848, Note_on_c, 12, 73, 107
29, 624968, Note_on_c, 12, 73, 0
29, 625103, Note_on_c, 12, 77, 116
29, 625223, Note_on_c, 12, 77, 0
29, 625329, Note_on_c, 12, 67, 117
29, 625344, Note_on_c, 12, 79, 114
29, 625569, Note_on_c, 12, 67, 0
29, 625584, Note_on_c, 12, 79, 0
29, 625807, Note_on_c, 12, 67, 115
29, 625808, Note_on_c, 12, 79, 114
29, 626047, Note_on_c, 12, 67, 0
29, 626048, Note_on_c, 12, 79, 0
29, 626283, Note_on_c, 12, 67, 123
29, 626304, Note_on_c, 12, 79, 119
29, 626523, Note_on_c, 12, 67, 0
29, 626544, Note_on_c, 12, 79, 0
29, 626780, Note_on_c, 12, 77, 120
29, 626900, Note_on_c, 12, 77, 0
29, 627721, Note_on_c, 12, 55, 105
29, 627736, Note_on_c, 12, 79, 113
29, 627737, Note_on_c, 12, 64, 119
29, 627747, Note_on_c, 12, 75, 121
29, 627841, Note_on_c, 12, 55, 0
29, 627856, Note_on_c, 12, 79, 0
29, 627857, Note_on_c, 12, 64, 0
29, 627867, Note_on_c, 12, 75, 0
29, 628446, Note_on_c, 12, 59, 80
29, 628506, Note_on_c, 12, 59, 0
29, 628574, Note_on_c, 12, 56, 83
29, 628634, Note_on_c, 12, 56, 0
29, 628704, Note_on_c, 12, 55, 85
29, 628764, Note_on_c, 12, 55, 0
29, 629188, Note_on_c, 12, 59, 83
29, 629248, Note_on_c, 12, 59, 0
29, 629287, Note_on_c, 12, 56, 97
29, 629347, Note_on_c, 12, 56, 0
29, 629403, Note_on_c, 12, 55, 94
29, 629463, Note_on_c, 12, 55, 0
29, 630240, Note_on_c, 12, 59, 97
29, 630300, Note_on_c, 12, 59, 0
29, 630386, Note_on_c, 12, 56, 89
29, 630446, Note_on_c, 12, 56, 0
29, 630489, Note_on_c, 12, 55, 95
29, 630549, Note_on_c, 12, 55, 0
29, 631320, Note_on_c, 12, 59, 92
29, 631380, Note_on_c, 12, 59, 0
29, 631451, Note_on_c, 12, 56, 78
29, 631511, Note_on_c, 12, 56, 0
29, 631579, Note_on_c, 12, 55, 92
29, 631639, Note_on_c, 12, 55, 0
29, 632061, Note_on_c, 12, 59, 88
29, 632121, Note_on_c, 12, 59, 0
29, 632180, Note_on_c, 12, 56, 94
29, 632240, Note_on_c, 12, 56, 0
29, 632280, Note_on_c, 12, 55, 88
29, 632340, Note_on_c, 12, 55, 0
29, 633121, Note_on_c, 12, 67, 81
29, 633122, Note_on_c, 12, 69, 80
29, 633144, Note_on_c, 12, 57, 90
29, 633181, Note_on_c, 12, 67, 0
29, 633182, Note_on_c, 12, 69, 0
29, 633204, Note_on_c, 12, 57, 0
29, 633369, Note_on_c, 12, 67, 80
29, 633382, Note_on_c, 12, 57, 89
29, 633382, Note_on_c, 12, 69, 92
29, 633429, Note_on_c, 12, 67, 0
29, 633442, Note_on_c, 12, 57, 0
29, 633442, Note_on_c, 12, 69, 0
29, 633723, Note_on_c, 12, 59, 92
29, 633731, Note_on_c, 12, 62, 94
29, 633732, Note_on_c, 12, 65, 95
29, 633783, Note_on_c, 12, 59, 0
29, 633791, Note_on_c, 12, 62, 0
29, 633792, Note_on_c, 12, 65, 0
29, 633847, Note_on_c, 12, 60, 84
29, 633856, Note_on_c, 12, 66, 83
29, 633858, Note_on_c, 12, 63, 88
29, 633907, Note_on_c, 12, 60, 0
29, 633916, Note_on_c, 12, 66, 0
29, 633918, Note_on_c, 12, 63, 0
29, 633963, Note_on_c, 12, 67, 94
29, 633964, Note_on_c, 12, 61, 95
29, 633965, Note_on_c, 12, 64, 92
29, 634023, Note_on_c, 12, 67, 0
29, 634024, Note_on_c, 12, 61, 0
29, 634025, Note_on_c, 12, 64, 0
29, 634805, Note_on_c, 12, 69, 82
29, 634816, Note_on_c, 12, 67, 92
29, 634817, Note_on_c, 12, 57, 92
29, 634865, Note_on_c, 12, 69, 0
29, 634876, Note_on_c, 12, 67, 0
29, 634877, Note_on_c, 12, 57, 0
29, 635043, Note_on_c, 12, 57, 94
29, 635049, Note_on_c, 12, 67, 79
29, 635050, Note_on_c, 12, 69, 96
29, 635103, Note_on_c, 12, 57, 0
29, 635109, Note_on_c, 12, 67, 0
29, 635110, Note_on_c, 12, 69, 0
29, 636016, Note_on_c, 12, 69, 87
29, 636022, Note_on_c, 12, 79, 89
29, 636026, Note_on_c, 12, 64, 81
29, 636076, Note_on_c, 12, 69, 0
29, 636082, Note_on_c, 12, 79, 0
29, 636086, Note_on_c, 12, 64, 0
29, 636242, Note_on_c, 12, 79, 90
29, 636251, Note_on_c, 12, 64, 89
29, 636263, Note_on_c, 12, 69, 85
29, 636302, Note_on_c, 12, 79, 0
29, 636311, Note_on_c, 12, 64, 0
29, 636323, Note_on_c, 12, 69, 0
29, 636624, Note_on_c, 12, 74, 80
29, 636677, Note_on_c, 12, 74, 0
29, 636735, Note_on_c, 12, 75, 96
29, 636788, Note_on_c, 12, 75, 0
29, 636850, Note_on_c, 12, 76, 95
29, 636903, Note_on_c, 12, 76, 0
29, 637099, Note_on_c, 12, 79, 79
29, 637100, Note_on_c, 12, 69, 82
29, 637105, Note_on_c, 12, 64, 79
29, 637159, Note_on_c, 12, 79, 0
29, 637160, Note_on_c, 12, 69, 0
29, 637165, Note_on_c, 12, 64, 0
29, 637325, Note_on_c, 12, 64, 96
29, 637335, Note_on_c, 12, 69, 82
29, 637335, Note_on_c, 12, 79, 93
29, 637385, Note_on_c, 12, 64, 0
29, 637395, Note_on_c, 12, 69, 0
29, 637395, Note_on_c, 12, 79, 0
29, 637683, Note_on_c, 12, 74, 87
29, 637736, Note_on_c, 12, 74, 0
29, 637811, Note_on_c, 12, 75, 81
29, 637864, Note_on_c, 12, 75, 0
29, 637931, Note_on_c, 12, 76, 96
29, 637984, Note_on_c, 12, 76, 0
29, 638174, Note_on_c, 12, 69, 81
29, 638176, Note_on_c, 12, 79, 78
29, 638186, Note_on_c, 12, 64, 84
29, 638234, Note_on_c, 12, 69, 0
29, 638236, Note_on_c, 12, 79, 0
29, 638246, Note_on_c, 12, 64, 0
29, 638402, Note_on_c, 12, 64, 82
29, 638419, Note_on_c, 12, 69, 79
29, 638423, Note_on_c, 12, 79, 82
29, 638462, Note_on_c, 12, 64, 0
29, 638479, Note_on_c, 12, 69, 0
29, 638483, Note_on_c, 12, 79, 0
29, 638782, Note_on_c, 12, 74, 80
29, 638835, Note_on_c, 12, 74, 0
29, 638887, Note_on_c, 12, 75, 94
29, 638940, Note_on_c, 12, 75, 0
29, 639024, Note_on_c, 12, 76, 92
29, 639077, Note_on_c, 12, 76, 0
29, 639245, Note_on_c, 12, 69, 79
29, 639248, Note_on_c, 12, 79, 83
29, 639254, Note_on_c, 12, 64, 92
29, 639305, Note_on_c, 12, 69, 0
29, 639308, Note_on_c, 12, 79, 0
29, 639314, Note_on_c, 12, 64, 0
29, 639485, Note_on_c, 12, 74, 97
29, 639538, Note_on_c, 12, 74, 0
29, 639609, Note_on_c, 12, 75, 97
29, 639662, Note_on_c, 12, 75, 0
29, 639726, Note_on_c, 12, 76, 82
29, 639779, Note_on_c, 12, 76, 0
29, 639971, Note_on_c, 12, 77, 99
29, 639977, Note_on_c, 12, 70, 107
29, 639988, Note_on_c, 12, 84, 111
29, 640031, Note_on_c, 12, 77, 0
29, 640037, Note_on_c, 12, 70, 0
29, 640048, Note_on_c, 12, 84, 0
29, 640095, Note_on_c, 12, 82, 102
29, 640097, Note_on_c, 12, 88, 99
29, 640098, Note_on_c, 12, 73, 99
29, 640155, Note_on_c, 12, 82, 0
29, 640157, Note_on_c, 12, 88, 0
29, 640158, Note_on_c, 12, 73, 0
29, 640326, Note_on_c, 12, 76, 83
29, 640334, Note_on_c, 12, 64, 98
29, 640334, Note_on_c, 12, 73, 94
29, 640386, Note_on_c, 12, 76, 0
29, 640394, Note_on_c, 12, 64, 0
29, 640394, Note_on_c, 12, 73, 0
29, 640563, Note_on_c, 12, 58, 64
29, 640623, Note_on_c, 12, 58, 0
29, 640706, Note_on_c, 12, 64, 61
29, 640766, Note_on_c, 12, 64, 0
29, 640932, Note_on_c, 12, 55, 55
29, 640992, Note_on_c, 12, 55, 0
29, 641166, Note_on_c, 12, 65, 97
29, 641166, Note_on_c, 12, 73, 94
29, 641174, Note_on_c, 12, 79, 100
29, 641226, Note_on_c, 12, 65, 0
29, 641226, Note_on_c, 12, 73, 0
29, 641234, Note_on_c, 12, 79, 0
29, 641285, Note_on_c, 12, 77, 103
29, 641298, Note_on_c, 12, 84, 108
29, 641306, Note_on_c, 12, 70, 96
29, 641345, Note_on_c, 12, 77, 0
29, 641358, Note_on_c, 12, 84, 0
29, 641366, Note_on_c, 12, 70, 0
29, 641404, Note_on_c, 12, 73, 94
29, 641404, Note_on_c, 12, 82, 102
29, 641422, Note_on_c, 12, 88, 94
29, 641464, Note_on_c, 12, 73, 0
29, 641464, Note_on_c, 12, 82, 0
29, 641482, Note_on_c, 12, 88, 0
29, 641643, Note_on_c, 12, 64, 84
29, 641649, Note_on_c, 12, 76, 82
29, 641654, Note_on_c, 12, 73, 78
29, 641703, Note_on_c, 12, 64, 0
29, 641709, Note_on_c, 12, 76, 0
29, 641714, Note_on_c, 12, 73, 0
29, 641901, Note_on_c, 12, 58, 68
29, 641961, Note_on_c, 12, 58, 0
29, 642003, Note_on_c, 12, 64, 56
29, 642063, Note_on_c, 12, 64, 0
29, 642247, Note_on_c, 12, 55, 62
29, 642307, Note_on_c, 12, 55, 0
29, 642504, Note_on_c, 12, 58, 57
29, 642564, Note_on_c, 12, 58, 0
29, 642615, Note_on_c, 12, 64, 70
29, 642675, Note_on_c, 12, 64, 0
29, 642850, Note_on_c, 12, 55, 68
29, 642910, Note_on_c, 12, 55, 0
29, 643084, Note_on_c, 12, 67, 64
29, 643144, Note_on_c, 12, 67, 0
29, 643200, Note_on_c, 12, 58, 58
29, 643260, Note_on_c, 12, 58, 0
29, 643322, Note_on_c, 12, 64, 55
29, 643382, Note_on_c, 12, 64, 0
29, 643588, Note_on_c, 12, 55, 63
29, 643648, Note_on_c, 12, 55, 0
29, 643805, Note_on_c, 12, 58, 71
29, 643865, Note_on_c, 12, 58, 0
29, 643935, Note_on_c, 12, 64, 73
29, 643995, Note_on_c, 12, 64, 0
29, 644169, Note_on_c, 12, 55, 60
29, 644229, Note_on_c, 12, 55, 0
29, 644414, Note_on_c, 12, 61, 64
29, 644474, Note_on_c, 12, 61, 0
29, 644536, Note_on_c, 12, 67, 54
29, 644596, Note_on_c, 12, 67, 0
29, 644654, Note_on_c, 12, 58, 54
29, 644714, Note_on_c, 12, 58, 0
29, 644890, Note_on_c, 12, 64, 62
29, 644950, Note_on_c, 12, 64, 0
29, 645126, Note_on_c, 12, 55, 55
29, 645246, Note_on_c, 12, 55, 0
29, 645360, Note_on_c, 12, 77, 111
29, 645372, Note_on_c, 12, 70, 104
29, 645385, Note_on_c, 12, 84, 109
29, 645420, Note_on_c, 12, 77, 0
29, 645432, Note_on_c, 12, 70, 0
29, 645445, Note_on_c, 12, 84, 0
29, 645496, Note_on_c, 12, 88, 105
29, 645501, Note_on_c, 12, 82, 94
29, 645507, Note_on_c, 12, 73, 98
29, 645556, Note_on_c, 12, 88, 0
29, 645561, Note_on_c, 12, 82, 0
29, 645567, Note_on_c, 12, 73, 0
29, 645721, Note_on_c, 12, 73, 95
29, 645728, Note_on_c, 12, 64, 83
29, 645732, Note_on_c, 12, 76, 95
29, 645781, Note_on_c, 12, 73, 0
29, 645788, Note_on_c, 12, 64, 0
29, 645792, Note_on_c, 12, 76, 0
29, 645975, Note_on_c, 12, 67, 79
29, 646035, Note_on_c, 12, 67, 0
29, 646086, Note_on_c, 12, 58, 62
29, 646146, Note_on_c, 12, 58, 0
29, 646202, Note_on_c, 12, 64, 60
29, 646262, Note_on_c, 12, 64, 0
29, 646450, Note_on_c, 12, 55, 74
29, 646570, Note_on_c, 12, 55, 0
29, 646696, Note_on_c, 12, 77, 109
29, 646700, Note_on_c, 12, 84, 102
29, 646706, Note_on_c, 12, 70, 102
29, 646756, Note_on_c, 12, 77, 0
29, 646760, Note_on_c, 12, 84, 0
29, 646766, Note_on_c, 12, 70, 0
29, 646800, Note_on_c, 12, 82, 106
29, 646811, Note_on_c, 12, 88, 110
29, 646827, Note_on_c, 12, 73, 106
29, 646860, Note_on_c, 12, 82, 0
29, 646871, Note_on_c, 12, 88, 0
29, 646887, Note_on_c, 12, 73, 0
29, 647044, Note_on_c, 12, 73, 88
29, 647057, Note_on_c, 12, 76, 81
29, 647063, Note_on_c, 12, 64, 86
29, 647104, Note_on_c, 12, 73, 0
29, 647117, Note_on_c, 12, 76, 0
29, 647123, Note_on_c, 12, 64, 0
29, 647286, Note_on_c, 12, 65, 93
29, 647288, Note_on_c, 12, 79, 97
29, 647301, Note_on_c, 12, 73, 101
29, 647346, Note_on_c, 12, 65, 0
29, 647348, Note_on_c, 12, 79, 0
29, 647361, Note_on_c, 12, 73, 0
29, 647406, Note_on_c, 12, 84, 100
29, 647421, Note_on_c, 12, 70, 107
29, 647428, Note_on_c, 12, 77, 95
29, 647466, Note_on_c, 12, 84, 0
29, 647481, Note_on_c, 12, 70, 0
29, 647488, Note_on_c, 12, 77, 0
29, 647523, Note_on_c, 12, 88, 105
29, 647531, Note_on_c, 12, 82, 102
29, 647536, Note_on_c, 12, 73, 110
29, 647583, Note_on_c, 12, 88, 0
29, 647591, Note_on_c, 12, 82, 0
29, 647596, Note_on_c, 12, 73, 0
29, 647762, Note_on_c, 12, 76, 80
29, 647766, Note_on_c, 12, 64, 96
29, 647782, Note_on_c, 12, 73, 81
29, 647822, Note_on_c, 12, 76, 0
29, 647826, Note_on_c, 12, 64, 0
29, 647842, Note_on_c, 12, 73, 0
29, 648021, Note_on_c, 12, 84, 104
29, 648024, Note_on_c, 12, 70, 98
29, 648028, Note_on_c, 12, 77, 110
29, 648081, Note_on_c, 12, 84, 0
29, 648084, Note_on_c, 12, 70, 0
29, 648088, Note_on_c, 12, 77, 0
29, 648134, Note_on_c, 12, 82, 103
29, 648141, Note_on_c, 12, 88, 108
29, 648147, Note_on_c, 12, 73, 100
29, 648194, Note_on_c, 12, 82, 0
29, 648201, Note_on_c, 12, 88, 0
29, 648207, Note_on_c, 12, 73, 0
29, 648361, Note_on_c, 12, 89, 95
29, 648362, Note_on_c, 12, 82, 101
29, 648383, Note_on_c, 12, 84, 95
29, 648421, Note_on_c, 12, 89, 0
29, 648422, Note_on_c, 12, 82, 0
29, 648443, Note_on_c, 12, 84, 0
29, 648611, Note_on_c, 12, 73, 79
29, 648612, Note_on_c, 12, 64, 83
29, 648627, Note_on_c, 12, 76, 85
29, 648671, Note_on_c, 12, 73, 0
29, 648672, Note_on_c, 12, 64, 0
29, 648687, Note_on_c, 12, 76, 0
29, 648844, Note_on_c, 12, 65, 95
29, 648859, Note_on_c, 12, 79, 94
29, 648867, Note_on_c, 12, 73, 97
29, 648904, Note_on_c, 12, 65, 0
29, 648919, Note_on_c, 12, 79, 0
29, 648927, Note_on_c, 12, 73, 0
29, 648961, Note_on_c, 12, 77, 111
29, 648967, Note_on_c, 12, 84, 106
29, 648974, Note_on_c, 12, 70, 91
29, 649021, Note_on_c, 12, 77, 0
29, 649027, Note_on_c, 12, 84, 0
29, 649034, Note_on_c, 12, 70, 0
29, 649089, Note_on_c, 12, 73, 101
29, 649089, Note_on_c, 12, 88, 106
29, 649092, Note_on_c, 12, 82, 109
29, 649149, Note_on_c, 12, 73, 0
29, 649149, Note_on_c, 12, 88, 0
29, 649152, Note_on_c, 12, 82, 0
29, 649327, Note_on_c, 12, 82, 107
29, 649334, Note_on_c, 12, 89, 96
29, 649342, Note_on_c, 12, 84, 107
29, 649387, Note_on_c, 12, 82, 0
29, 649394, Note_on_c, 12, 89, 0
29, 649402, Note_on_c, 12, 84, 0
29, 649561, Note_on_c, 12, 64, 98
29, 649563, Note_on_c, 12, 73, 86
29, 649587, Note_on_c, 12, 76, 80
29, 649621, Note_on_c, 12, 64, 0
29, 649623, Note_on_c, 12, 73, 0
29, 649647, Note_on_c, 12, 76, 0
29, 649801, Note_on_c, 12, 84, 102
29, 649809, Note_on_c, 12, 77, 110
29, 649821, Note_on_c, 12, 70, 104
29, 649861, Note_on_c, 12, 84, 0
29, 649869, Note_on_c, 12, 77, 0
29, 649881, Note_on_c, 12, 70, 0
29, 649937, Note_on_c, 12, 82, 92
29, 649939, Note_on_c, 12, 73, 106
29, 649942, Note_on_c, 12, 88, 104
29, 649997, Note_on_c, 12, 82, 0
29, 649999, Note_on_c, 12, 73, 0
29, 650002, Note_on_c, 12, 88, 0
29, 650169, Note_on_c, 12, 73, 98
29, 650184, Note_on_c, 12, 64, 93
29, 650186, Note_on_c, 12, 76, 96
29, 650229, Note_on_c, 12, 73, 0
29, 650244, Note_on_c, 12, 64, 0
29, 650246, Note_on_c, 12, 76, 0
29, 650414, Note_on_c, 12, 65, 98
29, 650418, Note_on_c, 12, 73, 95
29, 650421, Note_on_c, 12, 79, 110
29, 650474, Note_on_c, 12, 65, 0
29, 650478, Note_on_c, 12, 73, 0
29, 650481, Note_on_c, 12, 79, 0
29, 650530, Note_on_c, 12, 70, 109
29, 650538, Note_on_c, 12, 84, 102
29, 650544, Note_on_c, 12, 77, 111
29, 650590, Note_on_c, 12, 70, 0
29, 650598, Note_on_c, 12, 84, 0
29, 650604, Note_on_c, 12, 77, 0
29, 650643, Note_on_c, 12, 82, 98
29, 650666, Note_on_c, 12, 88, 93
29, 650667, Note_on_c, 12, 73, 94
29, 650703, Note_on_c, 12, 82, 0
29, 650726, Note_on_c, 12, 88, 0
29, 650727, Note_on_c, 12, 73, 0
29, 650884, Note_on_c, 12, 89, 100
29, 650897, Note_on_c, 12, 84, 106
29, 650908, Note_on_c, 12, 82, 107
29, 650944, Note_on_c, 12, 89, 0
29, 650957, Note_on_c, 12, 84, 0
29, 650968, Note_on_c, 12, 82, 0
29, 651128, Note_on_c, 12, 73, 97
29, 651135, Note_on_c, 12, 64, 97
29, 651135, Note_on_c, 12, 76, 81
29, 651188, Note_on_c, 12, 73, 0
29, 651195, Note_on_c, 12, 64, 0
29, 651195, Note_on_c, 12, 76, 0
29, 651364, Note_on_c, 12, 79, 109
29, 651374, Note_on_c, 12, 73, 111
29, 651375, Note_on_c, 12, 65, 108
29, 651424, Note_on_c, 12, 79, 0
29, 651434, Note_on_c, 12, 73, 0
29, 651435, Note_on_c, 12, 65, 0
29, 651482, Note_on_c, 12, 70, 100
29, 651496, Note_on_c, 12, 77, 97
29, 651506, Note_on_c, 12, 84, 106
29, 651542, Note_on_c, 12, 70, 0
29, 651556, Note_on_c, 12, 77, 0
29, 651566, Note_on_c, 12, 84, 0
29, 651608, Note_on_c, 12, 82, 99
29, 651609, Note_on_c, 12, 73, 95
29, 651611, Note_on_c, 12, 88, 100
29, 651668, Note_on_c, 12, 82, 0
29, 651669, Note_on_c, 12, 73, 0
29, 651671, Note_on_c, 12, 88, 0
29, 651848, Note_on_c, 12, 84, 100
29, 651851, Note_on_c, 12, 89, 95
29, 651867, Note_on_c, 12, 82, 99
29, 651908, Note_on_c, 12, 84, 0
29, 651911, Note_on_c, 12, 89, 0
29, 651927, Note_on_c, 12, 82, 0
29, 652098, Note_on_c, 12, 65, 97
29, 652102, Note_on_c, 12, 73, 98
29, 652102, Note_on_c, 12, 79, 97
29, 652158, Note_on_c, 12, 65, 0
29, 652162, Note_on_c, 12, 73, 0
29, 652162, Note_on_c, 12, 79, 0
29, 652217, Note_on_c, 12, 84, 92
29, 652218, Note_on_c, 12, 77, 98
29, 652228, Note_on_c, 12, 70, 103
29, 652277, Note_on_c, 12, 84, 0
29, 652278, Note_on_c, 12, 77, 0
29, 652288, Note_on_c, 12, 70, 0
29, 652335, Note_on_c, 12, 82, 96
29, 652341, Note_on_c, 12, 88, 99
29, 652347, Note_on_c, 12, 73, 91
29, 652395, Note_on_c, 12, 82, 0
29, 652401, Note_on_c, 12, 88, 0
29, 652407, Note_on_c, 12, 73, 0
29, 652563, Note_on_c, 12, 84, 99
29, 652574, Note_on_c, 12, 89, 101
29, 652580, Note_on_c, 12, 82, 102
29, 652623, Note_on_c, 12, 84, 0
29, 652634, Note_on_c, 12, 89, 0
29, 652640, Note_on_c, 12, 82, 0
29, 652806, Note_on_c, 12, 76, 78
29, 652809, Note_on_c, 12, 73, 78
29, 652814, Note_on_c, 12, 64, 98
29, 652866, Note_on_c, 12, 76, 0
29, 652869, Note_on_c, 12, 73, 0
29, 652874, Note_on_c, 12, 64, 0
29, 653047, Note_on_c, 12, 73, 93
29, 653067, Note_on_c, 12, 65, 110
29, 653068, Note_on_c, 12, 79, 104
29, 653107, Note_on_c, 12, 73, 0
29, 653127, Note_on_c, 12, 65, 0
29, 653128, Note_on_c, 12, 79, 0
29, 653176, Note_on_c, 12, 84, 100
29, 653180, Note_on_c, 12, 77, 92
29, 653182, Note_on_c, 12, 70, 92
29, 653236, Note_on_c, 12, 84, 0
29, 653240, Note_on_c, 12, 77, 0
29, 653242, Note_on_c, 12, 70, 0
29, 653292, Note_on_c, 12, 88, 102
29, 653298, Note_on_c, 12, 73, 104
29, 653299, Note_on_c, 12, 82, 95
29, 653352, Note_on_c, 12, 88, 0
29, 653358, Note_on_c, 12, 73, 0
29, 653359, Note_on_c, 12, 82, 0
29, 653521, Note_on_c, 12, 89, 108
29, 653543, Note_on_c, 12, 82, 94
29, 653545, Note_on_c, 12, 84, 102
29, 653581, Note_on_c, 12, 89, 0
29, 653603, Note_on_c, 12, 82, 0
29, 653605, Note_on_c, 12, 84, 0
29, 653771, Note_on_c, 12, 79, 109
29, 653772, Note_on_c, 12, 65, 107
29, 653784, Note_on_c, 12, 73, 108
29, 653831, Note_on_c, 12, 79, 0
29, 653832, Note_on_c, 12, 65, 0
29, 653844, Note_on_c, 12, 73, 0
29, 653894, Note_on_c, 12, 84, 102
29, 653897, Note_on_c, 12, 70, 106
29, 653900, Note_on_c, 12, 77, 107
29, 653954, Note_on_c, 12, 84, 0
29, 653957, Note_on_c, 12, 70, 0
29, 653960, Note_on_c, 12, 77, 0
29, 654019, Note_on_c, 12, 73, 103
29, 654024, Note_on_c, 12, 82, 109
29, 654026, Note_on_c, 12, 88, 100
29, 654079, Note_on_c, 12, 73, 0
29, 654084, Note_on_c, 12, 82, 0
29, 654086, Note_on_c, 12, 88, 0
29, 654243, Note_on_c, 12, 89, 103
29, 654248, Note_on_c, 12, 82, 102
29, 654249, Note_on_c, 12, 84, 95
29, 654303, Note_on_c, 12, 89, 0
29, 654308, Note_on_c, 12, 82, 0
29, 654309, Note_on_c, 12, 84, 0
29, 654498, Note_on_c, 12, 64, 92
29, 654499, Note_on_c, 12, 76, 96
29, 654502, Note_on_c, 12, 73, 92
29, 654558, Note_on_c, 12, 64, 0
29, 654559, Note_on_c, 12, 76, 0
29, 654562, Note_on_c, 12, 73, 0
29, 654725, Note_on_c, 12, 79, 91
29, 654742, Note_on_c, 12, 73, 108
29, 654746, Note_on_c, 12, 65, 96
29, 654785, Note_on_c, 12, 79, 0
29, 654802, Note_on_c, 12, 73, 0
29, 654806, Note_on_c, 12, 65, 0
29, 654850, Note_on_c, 12, 70, 110
29, 654850, Note_on_c, 12, 77, 100
29, 654859, Note_on_c, 12, 84, 110
29, 654910, Note_on_c, 12, 70, 0
29, 654910, Note_on_c, 12, 77, 0
29, 654919, Note_on_c, 12, 84, 0
29, 654962, Note_on_c, 12, 88, 97
29, 654974, Note_on_c, 12, 82, 94
29, 654981, Note_on_c, 12, 73, 99
29, 655022, Note_on_c, 12, 88, 0
29, 655034, Note_on_c, 12, 82, 0
29, 655041, Note_on_c, 12, 73, 0
29, 655084, Note_on_c, 12, 82, 107
29, 655107, Note_on_c, 12, 84, 108
29, 655108, Note_on_c, 12, 89, 98
29, 655144, Note_on_c, 12, 82, 0
29, 655167, Note_on_c, 12, 84, 0
29, 655168, Note_on_c, 12, 89, 0
29, 655326, Note_on_c, 12, 67, 109
29, 655336, Note_on_c, 12, 79, 120
29, 655340, Note_on_c, 12, 72, 106
29, 655386, Note_on_c, 12, 67, 0
29, 655396, Note_on_c, 12, 79, 0
29, 655400, Note_on_c, 12, 72, 0
29, 657894, Note_on_c, 12, 55, 117
29, 657905, Note_on_c, 12, 62, 105
29, 657924, Note_on_c, 12, 55, 0
29, 657935, Note_on_c, 12, 62, 0
29, 657946, Note_on_c, 12, 69, 111
29, 657965, Note_on_c, 12, 93, 113
29, 657973, Note_on_c, 12, 67, 104
29, 657976, Note_on_c, 12, 69, 0
29, 657986, Note_on_c, 12, 79, 105
29, 657988, Note_on_c, 12, 67, 0
29, 658025, Note_on_c, 12, 93, 0
29, 658046, Note_on_c, 12, 79, 0
29, 658046, End_track
30, 0, Start_track
30, 0, Title_t, "Violini IIb"
30, 0, MIDI_port, 0
30, 0, Program_c, 12, 48
30, 2410, Note_on_c, 12, 81, 46
30, 2411, Note_on_c, 12, 69, 48
30, 2890, Note_on_c, 12, 81, 0
30, 2890, Note_on_c, 12, 77, 57
30, 2891, Note_on_c, 12, 69, 0
30, 2895, Note_on_c, 12, 70, 47
30, 3130, Note_on_c, 12, 77, 0
30, 3135, Note_on_c, 12, 70, 0
30, 4802, Note_on_c, 12, 66, 53
30, 4817, Note_on_c, 12, 63, 51
30, 5042, Note_on_c, 12, 66, 0
30, 5045, Note_on_c, 12, 73, 39
30, 5054, Note_on_c, 12, 68, 46
30, 5057, Note_on_c, 12, 63, 0
30, 5285, Note_on_c, 12, 73, 0
30, 5290, Note_on_c, 12, 78, 54
30, 5294, Note_on_c, 12, 68, 0
30, 5301, Note_on_c, 12, 75, 41
30, 5530, Note_on_c, 12, 78, 0
30, 5538, Note_on_c, 12, 73, 39
30, 5541, Note_on_c, 12, 75, 0
30, 5548, Note_on_c, 12, 68, 57
30, 5766, Note_on_c, 12, 63, 46
30, 5776, Note_on_c, 12, 66, 52
30, 5778, Note_on_c, 12, 73, 0
30, 5788, Note_on_c, 12, 68, 0
30, 6006, Note_on_c, 12, 63, 0
30, 6014, Note_on_c, 12, 73, 50
30, 6015, Note_on_c, 12, 68, 61
30, 6016, Note_on_c, 12, 66, 0
30, 6252, Note_on_c, 12, 78, 55
30, 6253, Note_on_c, 12, 75, 72
30, 6254, Note_on_c, 12, 73, 0
30, 6255, Note_on_c, 12, 68, 0
30, 6492, Note_on_c, 12, 78, 0
30, 6493, Note_on_c, 12, 75, 0
30, 10567, Note_on_c, 12, 75, 70
30, 10807, Note_on_c, 12, 75, 0
30, 10825, Note_on_c, 12, 77, 67
30, 11054, Note_on_c, 12, 73, 74
30, 11065, Note_on_c, 12, 77, 0
30, 11281, Note_on_c, 12, 75, 71
30, 11294, Note_on_c, 12, 73, 0
30, 11521, Note_on_c, 12, 75, 0
30, 11545, Note_on_c, 12, 77, 78
30, 11780, Note_on_c, 12, 76, 77
30, 11785, Note_on_c, 12, 77, 0
30, 12020, Note_on_c, 12, 76, 0
30, 15360, Note_on_c, 12, 75, 74
30, 15600, Note_on_c, 12, 75, 0
30, 15611, Note_on_c, 12, 77, 73
30, 15848, Note_on_c, 12, 73, 78
30, 15851, Note_on_c, 12, 77, 0
30, 16085, Note_on_c, 12, 75, 61
30, 16088, Note_on_c, 12, 73, 0
30, 16325, Note_on_c, 12, 75, 0
30, 16334, Note_on_c, 12, 77, 62
30, 16565, Note_on_c, 12, 76, 60
30, 16574, Note_on_c, 12, 77, 0
30, 16805, Note_on_c, 12, 76, 0
30, 16811, Note_on_c, 12, 78, 57
30, 17051, Note_on_c, 12, 78, 0
30, 19687, Note_on_c, 12, 75, 76
30, 19927, Note_on_c, 12, 75, 0
30, 19946, Note_on_c, 12, 77, 71
30, 20162, Note_on_c, 12, 73, 70
30, 20186, Note_on_c, 12, 77, 0
30, 20402, Note_on_c, 12, 73, 0
30, 20405, Note_on_c, 12, 75, 62
30, 20645, Note_on_c, 12, 75, 0
30, 20660, Note_on_c, 12, 77, 59
30, 20892, Note_on_c, 12, 76, 46
30, 20900, Note_on_c, 12, 77, 0
30, 21132, Note_on_c, 12, 76, 0
30, 21135, Note_on_c, 12, 78, 39
30, 21375, Note_on_c, 12, 78, 0
30, 21389, Note_on_c, 12, 76, 55
30, 21615, Note_on_c, 12, 75, 39
30, 21629, Note_on_c, 12, 76, 0
30, 21855, Note_on_c, 12, 75, 0
30, 21861, Note_on_c, 12, 73, 42
30, 22090, Note_on_c, 12, 70, 45
30, 22101, Note_on_c, 12, 73, 0
30, 22330, Note_on_c, 12, 70, 0
30, 22337, Note_on_c, 12, 68, 48
30, 22529, Note_on_c, 12, 68, 0
30, 22582, Note_on_c, 12, 70, 40
30, 22820, Note_on_c, 12, 76, 47
30, 22822, Note_on_c, 12, 70, 0
30, 23041, Note_on_c, 12, 73, 47
30, 23060, Note_on_c, 12, 76, 0
30, 23281, Note_on_c, 12, 73, 0
30, 23309, Note_on_c, 12, 79, 52
30, 23541, Note_on_c, 12, 77, 41
30, 23549, Note_on_c, 12, 79, 0
30, 23770, Note_on_c, 12, 83, 41
30, 23781, Note_on_c, 12, 77, 0
30, 23962, Note_on_c, 12, 83, 0
30, 24021, Note_on_c, 12, 84, 47
30, 24246, Note_on_c, 12, 81, 51
30, 24261, Note_on_c, 12, 84, 0
30, 24482, Note_on_c, 12, 75, 49
30, 24486, Note_on_c, 12, 81, 0
30, 24722, Note_on_c, 12, 75, 0
30, 24741, Note_on_c, 12, 70, 40
30, 24981, Note_on_c, 12, 70, 0
30, 24986, Note_on_c, 12, 72, 41
30, 25220, Note_on_c, 12, 69, 42
30, 25226, Note_on_c, 12, 72, 0
30, 25412, Note_on_c, 12, 69, 0
30, 25441, Note_on_c, 12, 67, 55
30, 25681, Note_on_c, 12, 67, 0
30, 25689, Note_on_c, 12, 65, 39
30, 25925, Note_on_c, 12, 64, 59
30, 25929, Note_on_c, 12, 65, 0
30, 26165, Note_on_c, 12, 64, 0
30, 26169, Note_on_c, 12, 62, 59
30, 26409, Note_on_c, 12, 62, 0
30, 26418, Note_on_c, 12, 65, 42
30, 26658, Note_on_c, 12, 65, 0
30, 26660, Note_on_c, 12, 67, 40
30, 26899, Note_on_c, 12, 70, 48
30, 26900, Note_on_c, 12, 67, 0
30, 27128, Note_on_c, 12, 77, 48
30, 27139, Note_on_c, 12, 70, 0
30, 27368, Note_on_c, 12, 77, 0
30, 27369, Note_on_c, 12, 76, 40
30, 27609, Note_on_c, 12, 76, 0
30, 27615, Note_on_c, 12, 79, 53
30, 27855, Note_on_c, 12, 79, 0
30, 27858, Note_on_c, 12, 82, 55
30, 28098, Note_on_c, 12, 82, 0
30, 28107, Note_on_c, 12, 83, 49
30, 28347, Note_on_c, 12, 83, 0
30, 32646, Note_on_c, 12, 54, 44
30, 34566, Note_on_c, 12, 54, 0
30, 34583, Note_on_c, 12, 55, 45
30, 35058, Note_on_c, 12, 58, 49
30, 35063, Note_on_c, 12, 55, 0
30, 35514, Note_on_c, 12, 58, 0
30, 36737, Note_on_c, 12, 53, 18
30, 36971, Note_on_c, 12, 66, 17
30, 36977, Note_on_c, 12, 53, 0
30, 37203, Note_on_c, 12, 53, 24
30, 37211, Note_on_c, 12, 66, 0
30, 37443, Note_on_c, 12, 53, 0
30, 37450, Note_on_c, 12, 54, 30
30, 37690, Note_on_c, 12, 54, 0
30, 39144, Note_on_c, 12, 53, 22
30, 39376, Note_on_c, 12, 66, 26
30, 39384, Note_on_c, 12, 53, 0
30, 39616, Note_on_c, 12, 66, 0
30, 65763, Note_on_c, 12, 68, 49
30, 65775, Note_on_c, 12, 62, 35
30, 65782, Note_on_c, 12, 73, 38
30, 65788, Note_on_c, 12, 58, 39
30, 65806, Note_on_c, 12, 62, 0
30, 65819, Note_on_c, 12, 58, 0
30, 65831, Note_on_c, 12, 73, 0
30, 65841, Note_on_c, 12, 68, 0
30, 65842, Note_on_c, 12, 62, 33
30, 65850, Note_on_c, 12, 73, 45
30, 65858, Note_on_c, 12, 58, 39
30, 65860, Note_on_c, 12, 68, 30
30, 65874, Note_on_c, 12, 62, 0
30, 65882, Note_on_c, 12, 73, 0
30, 65890, Note_on_c, 12, 58, 0
30, 65892, Note_on_c, 12, 68, 0
30, 65920, Note_on_c, 12, 58, 44
30, 65922, Note_on_c, 12, 73, 46
30, 65926, Note_on_c, 12, 62, 35
30, 65927, Note_on_c, 12, 68, 47
30, 66461, Note_on_c, 12, 58, 0
30, 66465, Note_on_c, 12, 73, 0
30, 66477, Note_on_c, 12, 68, 0
30, 66478, Note_on_c, 12, 62, 0
30, 66480, Note_on_c, 12, 58, 47
30, 66484, Note_on_c, 12, 73, 31
30, 66496, Note_on_c, 12, 68, 42
30, 66497, Note_on_c, 12, 62, 33
30, 66511, Note_on_c, 12, 58, 0
30, 66515, Note_on_c, 12, 73, 0
30, 66527, Note_on_c, 12, 68, 0
30, 66528, Note_on_c, 12, 62, 0
30, 66565, Note_on_c, 12, 73, 49
30, 66574, Note_on_c, 12, 68, 34
30, 66578, Note_on_c, 12, 62, 41
30, 66587, Note_on_c, 12, 58, 47
30, 66597, Note_on_c, 12, 73, 0
30, 66606, Note_on_c, 12, 68, 0
30, 66610, Note_on_c, 12, 62, 0
30, 66619, Note_on_c, 12, 58, 0
30, 66655, Note_on_c, 12, 73, 46
30, 66662, Note_on_c, 12, 62, 45
30, 66666, Note_on_c, 12, 68, 39
30, 66667, Note_on_c, 12, 58, 36
30, 67209, Note_on_c, 12, 64, 44
30, 67212, Note_on_c, 12, 70, 47
30, 67213, Note_on_c, 12, 75, 33
30, 67215, Note_on_c, 12, 73, 0
30, 67222, Note_on_c, 12, 62, 0
30, 67226, Note_on_c, 12, 68, 0
30, 67276, Note_on_c, 12, 70, 0
30, 67276, Note_on_c, 12, 75, 0
30, 67281, Note_on_c, 12, 64, 0
30, 67286, Note_on_c, 12, 58, 0
30, 67295, Note_on_c, 12, 70, 36
30, 67296, Note_on_c, 12, 75, 45
30, 67301, Note_on_c, 12, 64, 47
30, 67305, Note_on_c, 12, 58, 41
30, 67327, Note_on_c, 12, 70, 0
30, 67328, Note_on_c, 12, 75, 0
30, 67333, Note_on_c, 12, 64, 0
30, 67337, Note_on_c, 12, 58, 0
30, 67361, Note_on_c, 12, 64, 43
30, 67365, Note_on_c, 12, 58, 46
30, 67377, Note_on_c, 12, 70, 41
30, 67381, Note_on_c, 12, 75, 49
30, 67681, Note_on_c, 12, 64, 0
30, 67685, Note_on_c, 12, 58, 0
30, 67687, Note_on_c, 12, 71, 49
30, 67693, Note_on_c, 12, 76, 38
30, 67696, Note_on_c, 12, 59, 33
30, 67697, Note_on_c, 12, 70, 0
30, 67701, Note_on_c, 12, 75, 0
30, 67703, Note_on_c, 12, 65, 31
30, 67879, Note_on_c, 12, 71, 0
30, 67885, Note_on_c, 12, 76, 0
30, 67888, Note_on_c, 12, 59, 0
30, 67895, Note_on_c, 12, 65, 0
30, 68164, Note_on_c, 12, 73, 32
30, 68166, Note_on_c, 12, 68, 41
30, 68168, Note_on_c, 12, 62, 43
30, 68179, Note_on_c, 12, 58, 50
30, 68229, Note_on_c, 12, 73, 0
30, 68229, Note_on_c, 12, 68, 0
30, 68245, Note_on_c, 12, 62, 0
30, 68247, Note_on_c, 12, 58, 0
30, 68248, Note_on_c, 12, 73, 41
30, 68248, Note_on_c, 12, 68, 36
30, 68264, Note_on_c, 12, 62, 50
30, 68266, Note_on_c, 12, 58, 40
30, 68280, Note_on_c, 12, 73, 0
30, 68280, Note_on_c, 12, 68, 0
30, 68296, Note_on_c, 12, 62, 0
30, 68298, Note_on_c, 12, 58, 0
30, 68327, Note_on_c, 12, 68, 35
30, 68340, Note_on_c, 12, 58, 42
30, 68344, Note_on_c, 12, 62, 35
30, 68345, Note_on_c, 12, 73, 45
30, 69106, Note_on_c, 12, 58, 0
30, 69125, Note_on_c, 12, 58, 33
30, 69127, Note_on_c, 12, 68, 0
30, 69130, Note_on_c, 12, 64, 48
30, 69132, Note_on_c, 12, 75, 44
30, 69141, Note_on_c, 12, 70, 44
30, 69144, Note_on_c, 12, 62, 0
30, 69145, Note_on_c, 12, 73, 0
30, 69156, Note_on_c, 12, 58, 0
30, 69161, Note_on_c, 12, 64, 0
30, 69163, Note_on_c, 12, 75, 0
30, 69172, Note_on_c, 12, 70, 0
30, 69203, Note_on_c, 12, 70, 37
30, 69203, Note_on_c, 12, 64, 43
30, 69206, Note_on_c, 12, 75, 32
30, 69217, Note_on_c, 12, 58, 31
30, 69235, Note_on_c, 12, 70, 0
30, 69235, Note_on_c, 12, 64, 0
30, 69238, Note_on_c, 12, 75, 0
30, 69249, Note_on_c, 12, 58, 0
30, 69281, Note_on_c, 12, 64, 47
30, 69286, Note_on_c, 12, 70, 45
30, 69294, Note_on_c, 12, 58, 42
30, 69306, Note_on_c, 12, 75, 41
30, 69841, Note_on_c, 12, 64, 0
30, 69841, Note_on_c, 12, 73, 30
30, 69846, Note_on_c, 12, 70, 0
30, 69848, Note_on_c, 12, 58, 0
30, 69857, Note_on_c, 12, 68, 50
30, 69859, Note_on_c, 12, 62, 46
30, 69866, Note_on_c, 12, 75, 0
30, 69867, Note_on_c, 12, 58, 43
30, 69872, Note_on_c, 12, 73, 0
30, 69888, Note_on_c, 12, 68, 0
30, 69890, Note_on_c, 12, 62, 0
30, 69898, Note_on_c, 12, 58, 0
30, 69921, Note_on_c, 12, 68, 31
30, 69927, Note_on_c, 12, 62, 45
30, 69933, Note_on_c, 12, 58, 49
30, 69943, Note_on_c, 12, 73, 49
30, 69953, Note_on_c, 12, 68, 0
30, 69959, Note_on_c, 12, 62, 0
30, 69965, Note_on_c, 12, 58, 0
30, 69975, Note_on_c, 12, 73, 0
30, 70008, Note_on_c, 12, 62, 30
30, 70017, Note_on_c, 12, 73, 48
30, 70018, Note_on_c, 12, 68, 31
30, 70026, Note_on_c, 12, 58, 50
30, 70784, Note_on_c, 12, 68, 0
30, 70790, Note_on_c, 12, 58, 0
30, 70800, Note_on_c, 12, 73, 0
30, 70803, Note_on_c, 12, 68, 37
30, 70808, Note_on_c, 12, 62, 0
30, 70810, Note_on_c, 12, 58, 47
30, 70820, Note_on_c, 12, 73, 35
30, 70829, Note_on_c, 12, 62, 39
30, 70834, Note_on_c, 12, 68, 0
30, 70841, Note_on_c, 12, 58, 0
30, 70851, Note_on_c, 12, 73, 0
30, 70860, Note_on_c, 12, 62, 0
30, 70890, Note_on_c, 12, 73, 38
30, 70890, Note_on_c, 12, 58, 35
30, 70895, Note_on_c, 12, 68, 39
30, 70897, Note_on_c, 12, 62, 33
30, 70922, Note_on_c, 12, 73, 0
30, 70922, Note_on_c, 12, 58, 0
30, 70927, Note_on_c, 12, 68, 0
30, 70929, Note_on_c, 12, 62, 0
30, 70961, Note_on_c, 12, 62, 37
30, 70967, Note_on_c, 12, 58, 44
30, 70982, Note_on_c, 12, 73, 33
30, 70984, Note_on_c, 12, 68, 37
30, 71520, Note_on_c, 12, 58, 50
30, 71521, Note_on_c, 12, 62, 0
30, 71527, Note_on_c, 12, 58, 0
30, 71535, Note_on_c, 12, 64, 49
30, 71537, Note_on_c, 12, 75, 35
30, 71542, Note_on_c, 12, 73, 0
30, 71544, Note_on_c, 12, 68, 0
30, 71548, Note_on_c, 12, 70, 34
30, 71551, Note_on_c, 12, 58, 0
30, 71566, Note_on_c, 12, 64, 0
30, 71568, Note_on_c, 12, 75, 0
30, 71579, Note_on_c, 12, 70, 0
30, 71608, Note_on_c, 12, 58, 33
30, 71612, Note_on_c, 12, 70, 40
30, 71623, Note_on_c, 12, 75, 45
30, 71628, Note_on_c, 12, 64, 30
30, 71640, Note_on_c, 12, 58, 0
30, 71644, Note_on_c, 12, 70, 0
30, 71655, Note_on_c, 12, 75, 0
30, 71660, Note_on_c, 12, 64, 0
30, 71688, Note_on_c, 12, 58, 34
30, 71689, Note_on_c, 12, 64, 45
30, 71704, Note_on_c, 12, 70, 35
30, 71704, Note_on_c, 12, 75, 37
30, 72478, Note_on_c, 12, 58, 0
30, 72489, Note_on_c, 12, 64, 0
30, 72497, Note_on_c, 12, 58, 45
30, 72499, Note_on_c, 12, 73, 39
30, 72501, Note_on_c, 12, 62, 37
30, 72502, Note_on_c, 12, 68, 32
30, 72504, Note_on_c, 12, 70, 0
30, 72504, Note_on_c, 12, 75, 0
30, 72528, Note_on_c, 12, 58, 0
30, 72530, Note_on_c, 12, 73, 0
30, 72532, Note_on_c, 12, 62, 0
30, 72533, Note_on_c, 12, 68, 0
30, 72570, Note_on_c, 12, 73, 33
30, 72572, Note_on_c, 12, 58, 32
30, 72582, Note_on_c, 12, 68, 32
30, 72582, Note_on_c, 12, 62, 47
30, 72602, Note_on_c, 12, 73, 0
30, 72604, Note_on_c, 12, 58, 0
30, 72614, Note_on_c, 12, 68, 0
30, 72614, Note_on_c, 12, 62, 0
30, 72647, Note_on_c, 12, 62, 46
30, 72649, Note_on_c, 12, 58, 39
30, 72655, Note_on_c, 12, 73, 37
30, 72659, Note_on_c, 12, 68, 31
30, 73439, Note_on_c, 12, 58, 0
30, 73445, Note_on_c, 12, 70, 40
30, 73447, Note_on_c, 12, 62, 0
30, 73449, Note_on_c, 12, 75, 43
30, 73455, Note_on_c, 12, 73, 0
30, 73455, Note_on_c, 12, 64, 48
30, 73458, Note_on_c, 12, 58, 39
30, 73459, Note_on_c, 12, 68, 0
30, 73476, Note_on_c, 12, 70, 0
30, 73480, Note_on_c, 12, 75, 0
30, 73486, Note_on_c, 12, 64, 0
30, 73489, Note_on_c, 12, 58, 0
30, 73521, Note_on_c, 12, 64, 47
30, 73525, Note_on_c, 12, 70, 34
30, 73540, Note_on_c, 12, 75, 43
30, 73542, Note_on_c, 12, 58, 48
30, 73553, Note_on_c, 12, 64, 0
30, 73557, Note_on_c, 12, 70, 0
30, 73572, Note_on_c, 12, 75, 0
30, 73574, Note_on_c, 12, 58, 0
30, 73610, Note_on_c, 12, 75, 38
30, 73611, Note_on_c, 12, 70, 34
30, 73614, Note_on_c, 12, 64, 45
30, 73617, Note_on_c, 12, 58, 36
30, 74161, Note_on_c, 12, 62, 38
30, 74167, Note_on_c, 12, 58, 0
30, 74170, Note_on_c, 12, 75, 0
30, 74171, Note_on_c, 12, 70, 0
30, 74174, Note_on_c, 12, 64, 0
30, 74175, Note_on_c, 12, 68, 50
30, 74186, Note_on_c, 12, 73, 46
30, 74186, Note_on_c, 12, 58, 33
30, 74192, Note_on_c, 12, 62, 0
30, 74206, Note_on_c, 12, 68, 0
30, 74217, Note_on_c, 12, 73, 0
30, 74217, Note_on_c, 12, 58, 0
30, 74249, Note_on_c, 12, 73, 32
30, 74249, Note_on_c, 12, 58, 39
30, 74250, Note_on_c, 12, 68, 35
30, 74266, Note_on_c, 12, 62, 39
30, 74281, Note_on_c, 12, 73, 0
30, 74281, Note_on_c, 12, 58, 0
30, 74282, Note_on_c, 12, 68, 0
30, 74298, Note_on_c, 12, 62, 0
30, 74323, Note_on_c, 12, 68, 45
30, 74323, Note_on_c, 12, 58, 36
30, 74339, Note_on_c, 12, 73, 38
30, 74347, Note_on_c, 12, 62, 46
30, 75123, Note_on_c, 12, 68, 0
30, 75123, Note_on_c, 12, 58, 0
30, 75124, Note_on_c, 12, 73, 0
30, 75125, Note_on_c, 12, 62, 0
30, 75134, Note_on_c, 12, 58, 33
30, 75143, Note_on_c, 12, 73, 49
30, 75145, Note_on_c, 12, 62, 31
30, 75146, Note_on_c, 12, 68, 35
30, 75165, Note_on_c, 12, 58, 0
30, 75174, Note_on_c, 12, 73, 0
30, 75176, Note_on_c, 12, 62, 0
30, 75177, Note_on_c, 12, 68, 0
30, 75204, Note_on_c, 12, 73, 50
30, 75221, Note_on_c, 12, 62, 49
30, 75222, Note_on_c, 12, 58, 33
30, 75227, Note_on_c, 12, 68, 45
30, 75236, Note_on_c, 12, 73, 0
30, 75253, Note_on_c, 12, 62, 0
30, 75254, Note_on_c, 12, 58, 0
30, 75259, Note_on_c, 12, 68, 0
30, 75280, Note_on_c, 12, 68, 40
30, 75281, Note_on_c, 12, 73, 30
30, 75295, Note_on_c, 12, 58, 43
30, 75307, Note_on_c, 12, 62, 42
30, 75840, Note_on_c, 12, 68, 0
30, 75841, Note_on_c, 12, 73, 0
30, 75841, Note_on_c, 12, 70, 34
30, 75842, Note_on_c, 12, 58, 0
30, 75856, Note_on_c, 12, 64, 41
30, 75860, Note_on_c, 12, 75, 39
30, 75862, Note_on_c, 12, 58, 49
30, 75867, Note_on_c, 12, 62, 0
30, 75872, Note_on_c, 12, 70, 0
30, 75887, Note_on_c, 12, 64, 0
30, 75891, Note_on_c, 12, 75, 0
30, 75893, Note_on_c, 12, 58, 0
30, 75931, Note_on_c, 12, 70, 44
30, 75934, Note_on_c, 12, 58, 33
30, 75942, Note_on_c, 12, 75, 40
30, 75947, Note_on_c, 12, 64, 50
30, 75963, Note_on_c, 12, 70, 0
30, 75966, Note_on_c, 12, 58, 0
30, 75974, Note_on_c, 12, 75, 0
30, 75979, Note_on_c, 12, 64, 0
30, 75999, Note_on_c, 12, 64, 41
30, 76001, Note_on_c, 12, 70, 32
30, 76002, Note_on_c, 12, 58, 36
30, 76020, Note_on_c, 12, 75, 38
30, 76799, Note_on_c, 12, 64, 0
30, 76801, Note_on_c, 12, 70, 0
30, 76802, Note_on_c, 12, 58, 0
30, 76802, Note_on_c, 12, 68, 48
30, 76814, Note_on_c, 12, 73, 32
30, 76820, Note_on_c, 12, 75, 0
30, 76821, Note_on_c, 12, 62, 34
30, 76827, Note_on_c, 12, 58, 30
30, 76833, Note_on_c, 12, 68, 0
30, 76845, Note_on_c, 12, 73, 0
30, 76852, Note_on_c, 12, 62, 0
30, 76858, Note_on_c, 12, 58, 0
30, 76885, Note_on_c, 12, 58, 33
30, 76887, Note_on_c, 12, 73, 41
30, 76891, Note_on_c, 12, 68, 45
30, 76900, Note_on_c, 12, 62, 39
30, 76917, Note_on_c, 12, 58, 0
30, 76919, Note_on_c, 12, 73, 0
30, 76923, Note_on_c, 12, 68, 0
30, 76932, Note_on_c, 12, 62, 0
30, 76965, Note_on_c, 12, 62, 35
30, 76975, Note_on_c, 12, 68, 32
30, 76980, Note_on_c, 12, 73, 36
30, 76983, Note_on_c, 12, 58, 39
30, 77743, Note_on_c, 12, 58, 0
30, 77763, Note_on_c, 12, 58, 47
30, 77765, Note_on_c, 12, 62, 0
30, 77771, Note_on_c, 12, 70, 45
30, 77775, Note_on_c, 12, 68, 0
30, 77775, Note_on_c, 12, 75, 49
30, 77780, Note_on_c, 12, 73, 0
30, 77781, Note_on_c, 12, 64, 39
30, 77794, Note_on_c, 12, 58, 0
30, 77802, Note_on_c, 12, 70, 0
30, 77806, Note_on_c, 12, 75, 0
30, 77812, Note_on_c, 12, 64, 0
30, 77845, Note_on_c, 12, 75, 41
30, 77849, Note_on_c, 12, 58, 36
30, 77850, Note_on_c, 12, 64, 30
30, 77867, Note_on_c, 12, 70, 47
30, 77877, Note_on_c, 12, 75, 0
30, 77881, Note_on_c, 12, 58, 0
30, 77882, Note_on_c, 12, 64, 0
30, 77899, Note_on_c, 12, 70, 0
30, 77921, Note_on_c, 12, 58, 35
30, 77927, Note_on_c, 12, 64, 45
30, 77928, Note_on_c, 12, 70, 30
30, 77932, Note_on_c, 12, 75, 48
30, 78470, Note_on_c, 12, 58, 0
30, 78487, Note_on_c, 12, 64, 0
30, 78488, Note_on_c, 12, 70, 0
30, 78489, Note_on_c, 12, 73, 45
30, 78489, Note_on_c, 12, 58, 35
30, 78492, Note_on_c, 12, 75, 0
30, 78493, Note_on_c, 12, 68, 35
30, 78508, Note_on_c, 12, 62, 36
30, 78520, Note_on_c, 12, 73, 0
30, 78520, Note_on_c, 12, 58, 0
30, 78524, Note_on_c, 12, 68, 0
30, 78539, Note_on_c, 12, 62, 0
30, 78565, Note_on_c, 12, 68, 40
30, 78577, Note_on_c, 12, 58, 30
30, 78579, Note_on_c, 12, 62, 37
30, 78581, Note_on_c, 12, 73, 43
30, 78597, Note_on_c, 12, 68, 0
30, 78609, Note_on_c, 12, 58, 0
30, 78611, Note_on_c, 12, 62, 0
30, 78613, Note_on_c, 12, 73, 0
30, 78652, Note_on_c, 12, 73, 47
30, 78658, Note_on_c, 12, 58, 37
30, 78661, Note_on_c, 12, 62, 39
30, 78665, Note_on_c, 12, 68, 39
30, 79181, Note_on_c, 12, 62, 0
30, 79184, Note_on_c, 12, 73, 0
30, 79200, Note_on_c, 12, 62, 39
30, 79203, Note_on_c, 12, 68, 0
30, 79203, Note_on_c, 12, 73, 35
30, 79205, Note_on_c, 12, 58, 0
30, 79222, Note_on_c, 12, 68, 38
30, 79224, Note_on_c, 12, 58, 44
30, 79296, Note_on_c, 12, 62, 0
30, 79299, Note_on_c, 12, 73, 0
30, 79318, Note_on_c, 12, 68, 0
30, 79320, Note_on_c, 12, 58, 0
30, 79442, Note_on_c, 12, 58, 40
30, 79448, Note_on_c, 12, 62, 49
30, 79455, Note_on_c, 12, 73, 33
30, 79467, Note_on_c, 12, 68, 38
30, 79473, Note_on_c, 12, 58, 0
30, 79479, Note_on_c, 12, 62, 0
30, 79486, Note_on_c, 12, 73, 0
30, 79498, Note_on_c, 12, 68, 0
30, 79525, Note_on_c, 12, 58, 35
30, 79526, Note_on_c, 12, 68, 42
30, 79528, Note_on_c, 12, 73, 37
30, 79541, Note_on_c, 12, 62, 45
30, 79557, Note_on_c, 12, 58, 0
30, 79558, Note_on_c, 12, 68, 0
30, 79560, Note_on_c, 12, 73, 0
30, 79573, Note_on_c, 12, 62, 0
30, 79601, Note_on_c, 12, 73, 32
30, 79603, Note_on_c, 12, 62, 48
30, 79610, Note_on_c, 12, 68, 36
30, 79619, Note_on_c, 12, 58, 47
30, 80147, Note_on_c, 12, 58, 0
30, 80160, Note_on_c, 12, 70, 41
30, 80161, Note_on_c, 12, 73, 0
30, 80163, Note_on_c, 12, 62, 0
30, 80166, Note_on_c, 12, 58, 34
30, 80170, Note_on_c, 12, 68, 0
30, 80179, Note_on_c, 12, 64, 35
30, 80185, Note_on_c, 12, 75, 42
30, 80191, Note_on_c, 12, 70, 0
30, 80197, Note_on_c, 12, 58, 0
30, 80210, Note_on_c, 12, 64, 0
30, 80216, Note_on_c, 12, 75, 0
30, 80244, Note_on_c, 12, 70, 35
30, 80255, Note_on_c, 12, 64, 47
30, 80256, Note_on_c, 12, 75, 32
30, 80256, Note_on_c, 12, 58, 47
30, 80276, Note_on_c, 12, 70, 0
30, 80287, Note_on_c, 12, 64, 0
30, 80288, Note_on_c, 12, 75, 0
30, 80288, Note_on_c, 12, 58, 0
30, 80321, Note_on_c, 12, 58, 33
30, 80321, Note_on_c, 12, 64, 49
30, 80329, Note_on_c, 12, 70, 46
30, 80333, Note_on_c, 12, 75, 41
30, 81102, Note_on_c, 12, 58, 0
30, 81121, Note_on_c, 12, 64, 0
30, 81121, Note_on_c, 12, 58, 40
30, 81125, Note_on_c, 12, 73, 43
30, 81129, Note_on_c, 12, 70, 0
30, 81130, Note_on_c, 12, 62, 48
30, 81133, Note_on_c, 12, 75, 0
30, 81140, Note_on_c, 12, 68, 39
30, 81152, Note_on_c, 12, 58, 0
30, 81161, Note_on_c, 12, 62, 0
30, 81187, Note_on_c, 12, 68, 0
30, 81201, Note_on_c, 12, 73, 0
30, 81201, Note_on_c, 12, 62, 45
30, 81207, Note_on_c, 12, 68, 35
30, 81220, Note_on_c, 12, 73, 33
30, 81226, Note_on_c, 12, 58, 41
30, 81233, Note_on_c, 12, 62, 0
30, 81239, Note_on_c, 12, 68, 0
30, 81252, Note_on_c, 12, 73, 0
30, 81258, Note_on_c, 12, 58, 0
30, 81283, Note_on_c, 12, 68, 44
30, 81285, Note_on_c, 12, 62, 41
30, 81294, Note_on_c, 12, 58, 31
30, 81307, Note_on_c, 12, 73, 42
30, 82075, Note_on_c, 12, 58, 0
30, 82083, Note_on_c, 12, 68, 0
30, 82085, Note_on_c, 12, 62, 0
30, 82085, Note_on_c, 12, 64, 40
30, 82090, Note_on_c, 12, 70, 39
30, 82091, Note_on_c, 12, 75, 43
30, 82094, Note_on_c, 12, 58, 47
30, 82107, Note_on_c, 12, 73, 0
30, 82116, Note_on_c, 12, 64, 0
30, 82121, Note_on_c, 12, 70, 0
30, 82122, Note_on_c, 12, 75, 0
30, 82125, Note_on_c, 12, 58, 0
30, 82161, Note_on_c, 12, 75, 31
30, 82166, Note_on_c, 12, 64, 43
30, 82174, Note_on_c, 12, 58, 47
30, 82175, Note_on_c, 12, 70, 43
30, 82193, Note_on_c, 12, 75, 0
30, 82198, Note_on_c, 12, 64, 0
30, 82206, Note_on_c, 12, 58, 0
30, 82207, Note_on_c, 12, 70, 0
30, 82242, Note_on_c, 12, 64, 48
30, 82261, Note_on_c, 12, 58, 38
30, 82263, Note_on_c, 12, 70, 49
30, 82266, Note_on_c, 12, 75, 44
30, 82788, Note_on_c, 12, 58, 0
30, 82802, Note_on_c, 12, 64, 0
30, 82807, Note_on_c, 12, 58, 45
30, 82813, Note_on_c, 12, 62, 32
30, 82818, Note_on_c, 12, 68, 45
30, 82823, Note_on_c, 12, 70, 0
30, 82825, Note_on_c, 12, 73, 41
30, 82826, Note_on_c, 12, 75, 0
30, 82838, Note_on_c, 12, 58, 0
30, 82844, Note_on_c, 12, 62, 0
30, 82849, Note_on_c, 12, 68, 0
30, 82856, Note_on_c, 12, 73, 0
30, 82884, Note_on_c, 12, 68, 38
30, 82891, Note_on_c, 12, 62, 30
30, 82896, Note_on_c, 12, 58, 39
30, 82907, Note_on_c, 12, 73, 45
30, 82916, Note_on_c, 12, 68, 0
30, 82923, Note_on_c, 12, 62, 0
30, 82928, Note_on_c, 12, 58, 0
30, 82939, Note_on_c, 12, 73, 0
30, 82960, Note_on_c, 12, 73, 30
30, 82966, Note_on_c, 12, 68, 37
30, 82972, Note_on_c, 12, 58, 42
30, 82975, Note_on_c, 12, 62, 50
30, 82992, Note_on_c, 12, 73, 0
30, 82998, Note_on_c, 12, 68, 0
30, 83004, Note_on_c, 12, 58, 0
30, 83007, Note_on_c, 12, 62, 0
30, 189593, Program_c, 10, 49
30, 191522, Note_on_c, 10, 90, 44
30, 191762, Note_on_c, 10, 90, 0
30, 191780, Note_on_c, 10, 79, 35
30, 192020, Note_on_c, 10, 79, 0
30, 193461, Note_on_c, 10, 90, 35
30, 193693, Note_on_c, 10, 79, 44
30, 193701, Note_on_c, 10, 90, 0
30, 193933, Note_on_c, 10, 79, 0
30, 195379, Note_on_c, 10, 90, 38
30, 195617, Note_on_c, 10, 79, 30
30, 195619, Note_on_c, 10, 90, 0
30, 195857, Note_on_c, 10, 79, 0
30, 197289, Note_on_c, 10, 90, 43
30, 197529, Note_on_c, 10, 90, 0
30, 197540, Note_on_c, 10, 79, 45
30, 197780, Note_on_c, 10, 79, 0
30, 198737, Note_on_c, 10, 90, 33
30, 198977, Note_on_c, 10, 90, 0
30, 198982, Note_on_c, 10, 79, 47
30, 199222, Note_on_c, 10, 79, 0
30, 200155, Program_c, 10, 45
30, 200176, Note_on_c, 10, 69, 108
30, 200656, Note_on_c, 10, 69, 0
30, 208806, Note_on_c, 12, 75, 63
30, 208866, Note_on_c, 12, 75, 0
30, 208872, Note_on_c, 12, 76, 68
30, 208932, Note_on_c, 12, 76, 0
30, 208938, Note_on_c, 12, 75, 56
30, 208998, Note_on_c, 12, 75, 0
30, 209001, Note_on_c, 12, 76, 73
30, 209061, Note_on_c, 12, 76, 0
30, 209064, Note_on_c, 12, 75, 66
30, 209107, Note_on_c, 12, 76, 75
30, 209124, Note_on_c, 12, 75, 0
30, 209165, Note_on_c, 12, 75, 72
30, 209167, Note_on_c, 12, 76, 0
30, 209225, Note_on_c, 12, 75, 0
30, 209226, Note_on_c, 12, 76, 77
30, 209286, Note_on_c, 12, 76, 0
30, 209303, Note_on_c, 12, 74, 76
30, 209386, Note_on_c, 12, 75, 85
30, 209399, Note_on_c, 12, 74, 0
30, 209482, Note_on_c, 12, 75, 0
30, 209489, Note_on_c, 12, 76, 85
30, 209583, Note_on_c, 12, 77, 75
30, 209584, Note_on_c, 12, 76, 0
30, 209678, Note_on_c, 12, 78, 78
30, 209679, Note_on_c, 12, 77, 0
30, 209772, Note_on_c, 12, 79, 87
30, 209774, Note_on_c, 12, 78, 0
30, 209815, Note_on_c, 12, 79, 0
30, 209830, Note_on_c, 12, 80, 83
30, 209852, Note_on_c, 12, 81, 91
30, 209873, Note_on_c, 12, 80, 0
30, 209895, Note_on_c, 12, 81, 0
30, 209906, Note_on_c, 12, 82, 86
30, 209949, Note_on_c, 12, 82, 0
30, 209956, Note_on_c, 12, 83, 83
30, 209978, Note_on_c, 12, 84, 100
30, 209999, Note_on_c, 12, 83, 0
30, 210022, Note_on_c, 12, 84, 0
30, 210050, Note_on_c, 12, 85, 87
30, 210075, Note_on_c, 12, 86, 90
30, 210093, Note_on_c, 12, 85, 0
30, 210118, Note_on_c, 12, 86, 0
30, 210135, Note_on_c, 12, 87, 96
30, 210159, Note_on_c, 12, 88, 91
30, 210178, Note_on_c, 12, 87, 0
30, 210198, Note_on_c, 12, 89, 98
30, 210202, Note_on_c, 12, 88, 0
30, 210242, Note_on_c, 12, 89, 0
30, 210246, Note_on_c, 12, 90, 106
30, 210366, Note_on_c, 12, 90, 0
30, 223706, Note_on_c, 12, 73, 93
30, 223760, Note_on_c, 12, 74, 101
30, 223766, Note_on_c, 12, 73, 0
30, 223802, Note_on_c, 12, 73, 101
30, 223820, Note_on_c, 12, 74, 0
30, 223862, Note_on_c, 12, 73, 0
30, 223876, Note_on_c, 12, 74, 96
30, 223932, Note_on_c, 12, 73, 95
30, 223936, Note_on_c, 12, 74, 0
30, 223992, Note_on_c, 12, 73, 0
30, 224008, Note_on_c, 12, 74, 99
30, 224060, Note_on_c, 12, 73, 91
30, 224068, Note_on_c, 12, 74, 0
30, 224103, Note_on_c, 12, 74, 100
30, 224120, Note_on_c, 12, 73, 0
30, 224160, Note_on_c, 12, 73, 104
30, 224163, Note_on_c, 12, 74, 0
30, 224220, Note_on_c, 12, 73, 0
30, 224239, Note_on_c, 12, 74, 110
30, 224299, Note_on_c, 12, 74, 0
30, 224306, Note_on_c, 12, 73, 98
30, 224343, Note_on_c, 12, 74, 106
30, 224366, Note_on_c, 12, 73, 0
30, 224403, Note_on_c, 12, 74, 0
30, 224405, Note_on_c, 12, 73, 101
30, 224465, Note_on_c, 12, 73, 0
30, 224477, Note_on_c, 12, 74, 95
30, 224537, Note_on_c, 12, 74, 0
30, 224541, Note_on_c, 12, 73, 103
30, 224588, Note_on_c, 12, 74, 102
30, 224601, Note_on_c, 12, 73, 0
30, 224641, Note_on_c, 12, 73, 108
30, 224648, Note_on_c, 12, 74, 0
30, 224710, Note_on_c, 12, 73, 0
30, 224729, Note_on_c, 12, 73, 91
30, 224808, Note_on_c, 12, 73, 0
30, 224815, Note_on_c, 12, 75, 91
30, 224866, Note_on_c, 12, 75, 0
30, 224885, Note_on_c, 12, 75, 91
30, 224965, Note_on_c, 12, 75, 0
30, 224972, Note_on_c, 12, 77, 98
30, 225043, Note_on_c, 12, 77, 0
30, 225062, Note_on_c, 12, 77, 107
30, 225132, Note_on_c, 12, 78, 103
30, 225142, Note_on_c, 12, 77, 0
30, 225185, Note_on_c, 12, 78, 0
30, 228492, Note_on_c, 12, 61, 97
30, 228528, Note_on_c, 12, 61, 0
30, 228569, Note_on_c, 12, 62, 101
30, 228605, Note_on_c, 12, 62, 0
30, 228656, Note_on_c, 12, 62, 112
30, 228692, Note_on_c, 12, 62, 0
30, 228733, Note_on_c, 12, 64, 96
30, 228769, Note_on_c, 12, 64, 0
30, 228826, Note_on_c, 12, 65, 117
30, 228862, Note_on_c, 12, 65, 0
30, 228905, Note_on_c, 12, 66, 119
30, 228941, Note_on_c, 12, 66, 0
30, 228980, Note_on_c, 12, 67, 102
30, 229016, Note_on_c, 12, 67, 0
30, 229042, Note_on_c, 12, 68, 117
30, 229078, Note_on_c, 12, 68, 0
30, 229147, Note_on_c, 12, 69, 108
30, 229183, Note_on_c, 12, 69, 0
30, 229209, Note_on_c, 12, 70, 111
30, 229245, Note_on_c, 12, 70, 0
30, 229299, Note_on_c, 12, 71, 117
30, 229335, Note_on_c, 12, 71, 0
30, 229366, Note_on_c, 12, 72, 124
30, 229402, Note_on_c, 12, 72, 0
30, 229441, Note_on_c, 12, 73, 120
30, 229477, Note_on_c, 12, 73, 0
30, 229533, Note_on_c, 12, 74, 127
30, 229569, Note_on_c, 12, 74, 0
30, 229613, Note_on_c, 12, 75, 117
30, 229649, Note_on_c, 12, 75, 0
30, 229697, Note_on_c, 12, 76, 124
30, 229733, Note_on_c, 12, 76, 0
30, 229764, Note_on_c, 12, 77, 127
30, 229800, Note_on_c, 12, 77, 0
30, 229844, Note_on_c, 12, 78, 122
30, 229880, Note_on_c, 12, 78, 0
30, 229939, Note_on_c, 12, 78, 93
30, 229992, Note_on_c, 12, 78, 0
30, 233520, Note_on_c, 12, 73, 109
30, 233580, Note_on_c, 12, 73, 0
30, 233600, Note_on_c, 12, 74, 111
30, 233648, Note_on_c, 12, 73, 97
30, 233660, Note_on_c, 12, 74, 0
30, 233702, Note_on_c, 12, 74, 96
30, 233708, Note_on_c, 12, 73, 0
30, 233762, Note_on_c, 12, 74, 0
30, 233771, Note_on_c, 12, 73, 106
30, 233821, Note_on_c, 12, 74, 96
30, 233831, Note_on_c, 12, 73, 0
30, 233881, Note_on_c, 12, 74, 0
30, 233882, Note_on_c, 12, 73, 95
30, 233942, Note_on_c, 12, 73, 0
30, 233951, Note_on_c, 12, 74, 106
30, 234011, Note_on_c, 12, 74, 0
30, 234021, Note_on_c, 12, 73, 108
30, 234081, Note_on_c, 12, 73, 0
30, 234082, Note_on_c, 12, 74, 104
30, 234139, Note_on_c, 12, 73, 110
30, 234142, Note_on_c, 12, 74, 0
30, 234193, Note_on_c, 12, 74, 93
30, 234199, Note_on_c, 12, 73, 0
30, 234253, Note_on_c, 12, 74, 0
30, 234256, Note_on_c, 12, 73, 107
30, 234301, Note_on_c, 12, 74, 99
30, 234316, Note_on_c, 12, 73, 0
30, 234361, Note_on_c, 12, 74, 0
30, 234382, Note_on_c, 12, 73, 108
30, 234442, Note_on_c, 12, 73, 0
30, 234445, Note_on_c, 12, 74, 96
30, 234483, Note_on_c, 12, 73, 97
30, 234505, Note_on_c, 12, 74, 0
30, 234543, Note_on_c, 12, 73, 0
30, 234563, Note_on_c, 12, 73, 111
30, 234642, Note_on_c, 12, 73, 0
30, 234644, Note_on_c, 12, 75, 106
30, 234724, Note_on_c, 12, 75, 0
30, 234748, Note_on_c, 12, 75, 95
30, 234827, Note_on_c, 12, 77, 93
30, 234828, Note_on_c, 12, 75, 0
30, 234861, Note_on_c, 12, 77, 0
30, 234880, Note_on_c, 12, 77, 109
30, 234960, Note_on_c, 12, 77, 0
30, 234974, Note_on_c, 12, 78, 93
30, 235027, Note_on_c, 12, 78, 0
30, 238572, Note_on_c, 12, 78, 102
30, 238584, Note_on_c, 12, 73, 98
30, 238812, Note_on_c, 12, 78, 0
30, 238824, Note_on_c, 12, 73, 0
30, 239061, Note_on_c, 12, 77, 99
30, 239063, Note_on_c, 12, 71, 103
30, 239301, Note_on_c, 12, 77, 0
30, 239303, Note_on_c, 12, 71, 0
30, 239546, Note_on_c, 12, 69, 99
30, 239547, Note_on_c, 12, 74, 101
30, 239786, Note_on_c, 12, 69, 0
30, 239787, Note_on_c, 12, 74, 0
30, 241215, Note_on_c, 12, 73, 96
30, 241225, Note_on_c, 12, 78, 104
30, 241455, Note_on_c, 12, 73, 0
30, 241465, Note_on_c, 12, 78, 0
30, 241694, Note_on_c, 12, 77, 103
30, 241698, Note_on_c, 12, 71, 105
30, 241934, Note_on_c, 12, 77, 0
30, 241938, Note_on_c, 12, 71, 0
30, 242165, Note_on_c, 12, 69, 92
30, 242177, Note_on_c, 12, 74, 100
30, 242405, Note_on_c, 12, 69, 0
30, 242417, Note_on_c, 12, 74, 0
30, 242660, Note_on_c, 12, 78, 95
30, 242668, Note_on_c, 12, 69, 100
30, 242900, Note_on_c, 12, 78, 0
30, 242908, Note_on_c, 12, 69, 0
30, 287276, Control_c, 8, 101, 0
30, 287276, Control_c, 8, 100, 0
30, 287277, Control_c, 8, 6, 24
30, 287277, Control_c, 8, 38, 24
30, 287760, Program_c, 8, 48
30, 289196, Pitch_bend_c, 8, 683
30, 289694, Pitch_bend_c, 8, 843
30, 289704, Pitch_bend_c, 8, 1003
30, 289708, Note_on_c, 8, 84, 100
30, 289715, Pitch_bend_c, 8, 1163
30, 289725, Pitch_bend_c, 8, 1323
30, 289736, Pitch_bend_c, 8, 1483
30, 289746, Pitch_bend_c, 8, 1643
30, 289756, Pitch_bend_c, 8, 1803
30, 289767, Pitch_bend_c, 8, 1963
30, 289777, Pitch_bend_c, 8, 2123
30, 289788, Pitch_bend_c, 8, 2283
30, 289798, Pitch_bend_c, 8, 2443
30, 289808, Pitch_bend_c, 8, 2603
30, 289819, Pitch_bend_c, 8, 2763
30, 289830, Pitch_bend_c, 8, 2923
30, 289840, Pitch_bend_c, 8, 3083
30, 289850, Pitch_bend_c, 8, 3243
30, 289860, Pitch_bend_c, 8, 3403
30, 289871, Pitch_bend_c, 8, 3563
30, 289881, Pitch_bend_c, 8, 3723
30, 289892, Pitch_bend_c, 8, 3883
30, 289902, Pitch_bend_c, 8, 4043
30, 289912, Pitch_bend_c, 8, 4203
30, 289923, Pitch_bend_c, 8, 4363
30, 289933, Pitch_bend_c, 8, 4523
30, 289944, Pitch_bend_c, 8, 4683
30, 289954, Pitch_bend_c, 8, 4843
30, 289965, Pitch_bend_c, 8, 5003
30, 289975, Pitch_bend_c, 8, 5163
30, 289985, Pitch_bend_c, 8, 5323
30, 289995, Pitch_bend_c, 8, 5483
30, 290006, Pitch_bend_c, 8, 5643
30, 290017, Pitch_bend_c, 8, 5803
30, 290027, Pitch_bend_c, 8, 5963
30, 290037, Pitch_bend_c, 8, 6123
30, 290047, Pitch_bend_c, 8, 6283
30, 290058, Pitch_bend_c, 8, 6443
30, 290069, Pitch_bend_c, 8, 6603
30, 290079, Pitch_bend_c, 8, 6763
30, 290089, Pitch_bend_c, 8, 6923
30, 290100, Pitch_bend_c, 8, 7083
30, 290110, Pitch_bend_c, 8, 7243
30, 290121, Pitch_bend_c, 8, 7403
30, 290131, Pitch_bend_c, 8, 7563
30, 290141, Pitch_bend_c, 8, 7723
30, 290152, Pitch_bend_c, 8, 7883
30, 290162, Pitch_bend_c, 8, 8043
30, 290166, Pitch_bend_c, 8, 8192
30, 290308, Note_on_c, 8, 84, 0
30, 299542, Note_on_c, 12, 78, 102
30, 299545, Note_on_c, 12, 73, 93
30, 299782, Note_on_c, 12, 78, 0
30, 299785, Note_on_c, 12, 73, 0
30, 300002, Note_on_c, 12, 71, 96
30, 300028, Note_on_c, 12, 77, 111
30, 300242, Note_on_c, 12, 71, 0
30, 300268, Note_on_c, 12, 77, 0
30, 300486, Note_on_c, 12, 74, 105
30, 300492, Note_on_c, 12, 69, 96
30, 300726, Note_on_c, 12, 74, 0
30, 300732, Note_on_c, 12, 69, 0
30, 302180, Note_on_c, 12, 73, 97
30, 302185, Note_on_c, 12, 78, 98
30, 302420, Note_on_c, 12, 73, 0
30, 302425, Note_on_c, 12, 78, 0
30, 302654, Note_on_c, 12, 71, 105
30, 302658, Note_on_c, 12, 77, 94
30, 302894, Note_on_c, 12, 71, 0
30, 302898, Note_on_c, 12, 77, 0
30, 303126, Note_on_c, 12, 74, 93
30, 303138, Note_on_c, 12, 69, 108
30, 303366, Note_on_c, 12, 74, 0
30, 303378, Note_on_c, 12, 69, 0
30, 303601, Note_on_c, 12, 78, 94
30, 303624, Note_on_c, 12, 69, 108
30, 303841, Note_on_c, 12, 78, 0
30, 303864, Note_on_c, 12, 69, 0
30, 438130, Note_on_c, 12, 64, 93
30, 438250, Note_on_c, 12, 64, 0
30, 438376, Note_on_c, 12, 64, 89
30, 438496, Note_on_c, 12, 64, 0
30, 438604, Note_on_c, 12, 64, 94
30, 438724, Note_on_c, 12, 64, 0
30, 438867, Note_on_c, 12, 64, 84
30, 438987, Note_on_c, 12, 64, 0
30, 439105, Note_on_c, 12, 65, 78
30, 439225, Note_on_c, 12, 65, 0
30, 439346, Note_on_c, 12, 65, 98
30, 439466, Note_on_c, 12, 65, 0
30, 439575, Note_on_c, 12, 65, 82
30, 439695, Note_on_c, 12, 65, 0
30, 439811, Note_on_c, 12, 65, 82
30, 439931, Note_on_c, 12, 65, 0
30, 440068, Note_on_c, 12, 67, 96
30, 440188, Note_on_c, 12, 67, 0
30, 440288, Note_on_c, 12, 67, 94
30, 440408, Note_on_c, 12, 67, 0
30, 440542, Note_on_c, 12, 67, 78
30, 440662, Note_on_c, 12, 67, 0
30, 440784, Note_on_c, 12, 64, 82
30, 440904, Note_on_c, 12, 64, 0
30, 441001, Note_on_c, 12, 64, 89
30, 441121, Note_on_c, 12, 64, 0
30, 441242, Note_on_c, 12, 64, 78
30, 441362, Note_on_c, 12, 64, 0
30, 441496, Note_on_c, 12, 64, 88
30, 441616, Note_on_c, 12, 64, 0
30, 441722, Note_on_c, 12, 64, 81
30, 441842, Note_on_c, 12, 64, 0
30, 441978, Note_on_c, 12, 65, 95
30, 442098, Note_on_c, 12, 65, 0
30, 442226, Note_on_c, 12, 65, 97
30, 442346, Note_on_c, 12, 65, 0
30, 442446, Note_on_c, 12, 65, 81
30, 442566, Note_on_c, 12, 65, 0
30, 442702, Note_on_c, 12, 65, 79
30, 442822, Note_on_c, 12, 65, 0
30, 442936, Note_on_c, 12, 67, 98
30, 443056, Note_on_c, 12, 67, 0
30, 443173, Note_on_c, 12, 67, 93
30, 443293, Note_on_c, 12, 67, 0
30, 443408, Note_on_c, 12, 67, 83
30, 443528, Note_on_c, 12, 67, 0
30, 443652, Note_on_c, 12, 64, 85
30, 443772, Note_on_c, 12, 64, 0
30, 492250, Note_on_c, 12, 61, 93
30, 492263, Note_on_c, 12, 63, 96
30, 492286, Note_on_c, 12, 61, 0
30, 492299, Note_on_c, 12, 63, 0
30, 492365, Note_on_c, 12, 62, 91
30, 492383, Note_on_c, 12, 61, 91
30, 492401, Note_on_c, 12, 62, 0
30, 492419, Note_on_c, 12, 61, 0
30, 492489, Note_on_c, 12, 61, 81
30, 492508, Note_on_c, 12, 62, 93
30, 492525, Note_on_c, 12, 61, 0
30, 492544, Note_on_c, 12, 62, 0
30, 493701, Note_on_c, 12, 63, 92
30, 493705, Note_on_c, 12, 61, 81
30, 493737, Note_on_c, 12, 63, 0
30, 493741, Note_on_c, 12, 61, 0
30, 493813, Note_on_c, 12, 61, 97
30, 493824, Note_on_c, 12, 62, 96
30, 493849, Note_on_c, 12, 61, 0
30, 493860, Note_on_c, 12, 62, 0
30, 493928, Note_on_c, 12, 61, 78
30, 493933, Note_on_c, 12, 62, 89
30, 493964, Note_on_c, 12, 61, 0
30, 493969, Note_on_c, 12, 62, 0
30, 494536, Note_on_c, 12, 75, 105
30, 494679, Note_on_c, 12, 75, 0
30, 494777, Note_on_c, 12, 75, 108
30, 494920, Note_on_c, 12, 75, 0
30, 495017, Note_on_c, 12, 75, 103
30, 495070, Note_on_c, 12, 75, 0
30, 495140, Note_on_c, 12, 75, 98
30, 495193, Note_on_c, 12, 75, 0
30, 495265, Note_on_c, 12, 75, 99
30, 495318, Note_on_c, 12, 75, 0
30, 496328, Note_on_c, 12, 63, 110
30, 496332, Note_on_c, 12, 61, 111
30, 496381, Note_on_c, 12, 63, 0
30, 496385, Note_on_c, 12, 61, 0
30, 496446, Note_on_c, 12, 62, 108
30, 496449, Note_on_c, 12, 61, 101
30, 496499, Note_on_c, 12, 62, 0
30, 496502, Note_on_c, 12, 61, 0
30, 496571, Note_on_c, 12, 62, 96
30, 496576, Note_on_c, 12, 61, 103
30, 496624, Note_on_c, 12, 62, 0
30, 496629, Note_on_c, 12, 61, 0
30, 496689, Note_on_c, 12, 75, 93
30, 496761, Note_on_c, 12, 75, 0
30, 496824, Note_on_c, 12, 75, 108
30, 496896, Note_on_c, 12, 75, 0
30, 496934, Note_on_c, 12, 75, 102
30, 497006, Note_on_c, 12, 75, 0
30, 497189, Note_on_c, 12, 75, 95
30, 497236, Note_on_c, 12, 75, 0
30, 497307, Note_on_c, 12, 66, 102
30, 497450, Note_on_c, 12, 66, 0
30, 497546, Note_on_c, 12, 66, 110
30, 497689, Note_on_c, 12, 66, 0
30, 497769, Note_on_c, 12, 66, 96
30, 497816, Note_on_c, 12, 66, 0
30, 498850, Note_on_c, 12, 63, 103
30, 498855, Note_on_c, 12, 61, 104
30, 498903, Note_on_c, 12, 63, 0
30, 498908, Note_on_c, 12, 61, 0
30, 498982, Note_on_c, 12, 62, 109
30, 498988, Note_on_c, 12, 61, 100
30, 499035, Note_on_c, 12, 62, 0
30, 499041, Note_on_c, 12, 61, 0
30, 499084, Note_on_c, 12, 61, 105
30, 499098, Note_on_c, 12, 62, 111
30, 499137, Note_on_c, 12, 61, 0
30, 499151, Note_on_c, 12, 62, 0
30, 500287, Note_on_c, 12, 63, 94
30, 500301, Note_on_c, 12, 61, 95
30, 500340, Note_on_c, 12, 63, 0
30, 500354, Note_on_c, 12, 61, 0
30, 500419, Note_on_c, 12, 62, 98
30, 500425, Note_on_c, 12, 61, 107
30, 500472, Note_on_c, 12, 62, 0
30, 500478, Note_on_c, 12, 61, 0
30, 500527, Note_on_c, 12, 62, 110
30, 500537, Note_on_c, 12, 61, 104
30, 500580, Note_on_c, 12, 62, 0
30, 500590, Note_on_c, 12, 61, 0
30, 501008, Note_on_c, 12, 61, 94
30, 501023, Note_on_c, 12, 63, 98
30, 501061, Note_on_c, 12, 61, 0
30, 501076, Note_on_c, 12, 63, 0
30, 501130, Note_on_c, 12, 62, 97
30, 501135, Note_on_c, 12, 61, 111
30, 501183, Note_on_c, 12, 62, 0
30, 501188, Note_on_c, 12, 61, 0
30, 501264, Note_on_c, 12, 62, 106
30, 501268, Note_on_c, 12, 61, 92
30, 501317, Note_on_c, 12, 62, 0
30, 501321, Note_on_c, 12, 61, 0
30, 502455, Note_on_c, 12, 63, 98
30, 502467, Note_on_c, 12, 61, 92
30, 502508, Note_on_c, 12, 63, 0
30, 502520, Note_on_c, 12, 61, 0
30, 502585, Note_on_c, 12, 62, 100
30, 502588, Note_on_c, 12, 61, 107
30, 502638, Note_on_c, 12, 62, 0
30, 502641, Note_on_c, 12, 61, 0
30, 502681, Note_on_c, 12, 61, 91
30, 502695, Note_on_c, 12, 62, 110
30, 502734, Note_on_c, 12, 61, 0
30, 502748, Note_on_c, 12, 62, 0
30, 520339, Note_on_c, 12, 70, 116
30, 520362, Note_on_c, 12, 70, 0
30, 520384, Note_on_c, 12, 70, 108
30, 520407, Note_on_c, 12, 70, 0
30, 520813, Note_on_c, 12, 70, 106
30, 520836, Note_on_c, 12, 70, 0
30, 520864, Note_on_c, 12, 70, 107
30, 520887, Note_on_c, 12, 70, 0
30, 521286, Note_on_c, 12, 70, 104
30, 521309, Note_on_c, 12, 70, 0
30, 521342, Note_on_c, 12, 70, 103
30, 521365, Note_on_c, 12, 70, 0
30, 521529, Note_on_c, 12, 70, 106
30, 521552, Note_on_c, 12, 70, 0
30, 521585, Note_on_c, 12, 70, 100
30, 521608, Note_on_c, 12, 70, 0
30, 522005, Note_on_c, 12, 70, 119
30, 522028, Note_on_c, 12, 70, 0
30, 522085, Note_on_c, 12, 70, 115
30, 522108, Note_on_c, 12, 70, 0
30, 522483, Note_on_c, 12, 70, 112
30, 522506, Note_on_c, 12, 70, 0
30, 522549, Note_on_c, 12, 70, 109
30, 522572, Note_on_c, 12, 70, 0
30, 522984, Note_on_c, 12, 70, 102
30, 523007, Note_on_c, 12, 70, 0
30, 523040, Note_on_c, 12, 70, 112
30, 523063, Note_on_c, 12, 70, 0
30, 523469, Note_on_c, 12, 70, 109
30, 523492, Note_on_c, 12, 70, 0
30, 523525, Note_on_c, 12, 70, 116
30, 523548, Note_on_c, 12, 70, 0
30, 523927, Note_on_c, 12, 65, 120
30, 523950, Note_on_c, 12, 65, 0
30, 524005, Note_on_c, 12, 65, 108
30, 524028, Note_on_c, 12, 65, 0
30, 524176, Note_on_c, 12, 70, 111
30, 524199, Note_on_c, 12, 70, 0
30, 524232, Note_on_c, 12, 70, 110
30, 524255, Note_on_c, 12, 70, 0
30, 524405, Note_on_c, 12, 70, 120
30, 524428, Note_on_c, 12, 70, 0
30, 524479, Note_on_c, 12, 70, 104
30, 524502, Note_on_c, 12, 70, 0
30, 524908, Note_on_c, 12, 70, 100
30, 524921, Note_on_c, 12, 70, 0
30, 524941, Note_on_c, 12, 70, 109
30, 524964, Note_on_c, 12, 70, 0
30, 525381, Note_on_c, 12, 70, 120
30, 525404, Note_on_c, 12, 70, 0
30, 525431, Note_on_c, 12, 70, 118
30, 525454, Note_on_c, 12, 70, 0
30, 525861, Note_on_c, 12, 70, 119
30, 525884, Note_on_c, 12, 70, 0
30, 525918, Note_on_c, 12, 70, 113
30, 525941, Note_on_c, 12, 70, 0
30, 526103, Note_on_c, 12, 65, 105
30, 526126, Note_on_c, 12, 65, 0
30, 526166, Note_on_c, 12, 65, 112
30, 526189, Note_on_c, 12, 65, 0
30, 526321, Note_on_c, 12, 70, 115
30, 526344, Note_on_c, 12, 70, 0
30, 526395, Note_on_c, 12, 70, 118
30, 526418, Note_on_c, 12, 70, 0
30, 526564, Note_on_c, 12, 70, 105
30, 526587, Note_on_c, 12, 70, 0
30, 526646, Note_on_c, 12, 70, 118
30, 526669, Note_on_c, 12, 70, 0
30, 527047, Note_on_c, 12, 65, 113
30, 527070, Note_on_c, 12, 65, 0
30, 527119, Note_on_c, 12, 65, 102
30, 527142, Note_on_c, 12, 65, 0
30, 527287, Note_on_c, 12, 75, 120
30, 527310, Note_on_c, 12, 75, 0
30, 527358, Note_on_c, 12, 75, 110
30, 527381, Note_on_c, 12, 75, 0
30, 527774, Note_on_c, 12, 74, 105
30, 527797, Note_on_c, 12, 74, 0
30, 527844, Note_on_c, 12, 74, 118
30, 527867, Note_on_c, 12, 74, 0
30, 528018, Note_on_c, 12, 74, 119
30, 528041, Note_on_c, 12, 74, 0
30, 528077, Note_on_c, 12, 74, 111
30, 528100, Note_on_c, 12, 74, 0
30, 528247, Note_on_c, 12, 74, 120
30, 528255, Note_on_c, 12, 76, 114
30, 528270, Note_on_c, 12, 74, 0
30, 528278, Note_on_c, 12, 76, 0
30, 528302, Note_on_c, 12, 74, 116
30, 528325, Note_on_c, 12, 74, 0
30, 528326, Note_on_c, 12, 76, 115
30, 528349, Note_on_c, 12, 76, 0
30, 528745, Note_on_c, 12, 76, 119
30, 528747, Note_on_c, 12, 74, 117
30, 528768, Note_on_c, 12, 76, 0
30, 528768, Note_on_c, 12, 74, 0
30, 528787, Note_on_c, 12, 74, 116
30, 528798, Note_on_c, 12, 76, 107
30, 528810, Note_on_c, 12, 74, 0
30, 528821, Note_on_c, 12, 76, 0
30, 528963, Note_on_c, 12, 76, 118
30, 528974, Note_on_c, 12, 74, 120
30, 528986, Note_on_c, 12, 76, 0
30, 528997, Note_on_c, 12, 74, 0
30, 529037, Note_on_c, 12, 76, 112
30, 529039, Note_on_c, 12, 74, 110
30, 529060, Note_on_c, 12, 76, 0
30, 529062, Note_on_c, 12, 74, 0
30, 529461, Note_on_c, 12, 75, 114
30, 529484, Note_on_c, 12, 75, 0
30, 529511, Note_on_c, 12, 75, 119
30, 529534, Note_on_c, 12, 75, 0
30, 529929, Note_on_c, 12, 74, 111
30, 529952, Note_on_c, 12, 74, 0
30, 529988, Note_on_c, 12, 74, 110
30, 530011, Note_on_c, 12, 74, 0
30, 530169, Note_on_c, 12, 74, 118
30, 530175, Note_on_c, 12, 76, 110
30, 530192, Note_on_c, 12, 74, 0
30, 530198, Note_on_c, 12, 76, 0
30, 530239, Note_on_c, 12, 76, 105
30, 530242, Note_on_c, 12, 74, 103
30, 530262, Note_on_c, 12, 76, 0
30, 530265, Note_on_c, 12, 74, 0
30, 530648, Note_on_c, 12, 74, 106
30, 530664, Note_on_c, 12, 76, 109
30, 530671, Note_on_c, 12, 74, 0
30, 530687, Note_on_c, 12, 76, 0
30, 530705, Note_on_c, 12, 76, 107
30, 530727, Note_on_c, 12, 74, 104
30, 530728, Note_on_c, 12, 76, 0
30, 530750, Note_on_c, 12, 74, 0
30, 531126, Note_on_c, 12, 74, 107
30, 531136, Note_on_c, 12, 76, 100
30, 531149, Note_on_c, 12, 74, 0
30, 531159, Note_on_c, 12, 76, 0
30, 531180, Note_on_c, 12, 74, 103
30, 531187, Note_on_c, 12, 76, 114
30, 531203, Note_on_c, 12, 74, 0
30, 531210, Note_on_c, 12, 76, 0
30, 531362, Note_on_c, 12, 70, 100
30, 531482, Note_on_c, 12, 70, 0
30, 531605, Note_on_c, 12, 70, 106
30, 531725, Note_on_c, 12, 70, 0
30, 531866, Note_on_c, 12, 70, 105
30, 531986, Note_on_c, 12, 70, 0
30, 532341, Note_on_c, 12, 70, 111
30, 532461, Note_on_c, 12, 70, 0
30, 532571, Note_on_c, 12, 70, 113
30, 532691, Note_on_c, 12, 70, 0
30, 532813, Note_on_c, 12, 70, 114
30, 532933, Note_on_c, 12, 70, 0
30, 533048, Note_on_c, 12, 70, 120
30, 533168, Note_on_c, 12, 70, 0
30, 533296, Note_on_c, 12, 70, 113
30, 533416, Note_on_c, 12, 70, 0
30, 533767, Note_on_c, 12, 70, 114
30, 533887, Note_on_c, 12, 70, 0
30, 534257, Note_on_c, 12, 70, 107
30, 534377, Note_on_c, 12, 70, 0
30, 534504, Note_on_c, 12, 65, 110
30, 534624, Note_on_c, 12, 65, 0
30, 534735, Note_on_c, 12, 70, 103
30, 534855, Note_on_c, 12, 70, 0
30, 535200, Note_on_c, 12, 70, 110
30, 535320, Note_on_c, 12, 70, 0
30, 535692, Note_on_c, 12, 70, 118
30, 535812, Note_on_c, 12, 70, 0
30, 535938, Note_on_c, 12, 70, 122
30, 535949, Note_on_c, 12, 70, 0
30, 535968, Note_on_c, 12, 70, 118
30, 535988, Note_on_c, 12, 70, 0
30, 536024, Note_on_c, 12, 70, 105
30, 536043, Note_on_c, 12, 70, 0
30, 536063, Note_on_c, 12, 70, 107
30, 536076, Note_on_c, 12, 70, 0
30, 536095, Note_on_c, 12, 70, 118
30, 536114, Note_on_c, 12, 70, 0
30, 536133, Note_on_c, 12, 70, 121
30, 536152, Note_on_c, 12, 70, 0
30, 536174, Note_on_c, 12, 68, 106
30, 536193, Note_on_c, 12, 68, 0
30, 536213, Note_on_c, 12, 68, 104
30, 536229, Note_on_c, 12, 68, 0
30, 536248, Note_on_c, 12, 68, 111
30, 536267, Note_on_c, 12, 68, 0
30, 536304, Note_on_c, 12, 68, 118
30, 536309, Note_on_c, 12, 68, 0
30, 536328, Note_on_c, 12, 68, 117
30, 536345, Note_on_c, 12, 68, 0
30, 536365, Note_on_c, 12, 68, 106
30, 536384, Note_on_c, 12, 68, 0
30, 536418, Note_on_c, 12, 67, 110
30, 536429, Note_on_c, 12, 67, 0
30, 536448, Note_on_c, 12, 67, 109
30, 536468, Note_on_c, 12, 67, 0
30, 536487, Note_on_c, 12, 67, 120
30, 536506, Note_on_c, 12, 67, 0
30, 536539, Note_on_c, 12, 67, 121
30, 536558, Note_on_c, 12, 67, 0
30, 536587, Note_on_c, 12, 67, 118
30, 536588, Note_on_c, 12, 67, 0
30, 536605, Note_on_c, 12, 67, 106
30, 536624, Note_on_c, 12, 67, 0
30, 536669, Note_on_c, 12, 65, 104
30, 536684, Note_on_c, 12, 65, 0
30, 536703, Note_on_c, 12, 65, 110
30, 536719, Note_on_c, 12, 65, 0
30, 536738, Note_on_c, 12, 65, 118
30, 536757, Note_on_c, 12, 65, 0
30, 536780, Note_on_c, 12, 65, 115
30, 536797, Note_on_c, 12, 65, 0
30, 536817, Note_on_c, 12, 65, 110
30, 536835, Note_on_c, 12, 65, 0
30, 536854, Note_on_c, 12, 65, 113
30, 536873, Note_on_c, 12, 65, 0
30, 536904, Note_on_c, 12, 60, 112
30, 536917, Note_on_c, 12, 60, 0
30, 536936, Note_on_c, 12, 60, 116
30, 536956, Note_on_c, 12, 60, 0
30, 536983, Note_on_c, 12, 60, 118
30, 536990, Note_on_c, 12, 60, 0
30, 537009, Note_on_c, 12, 60, 110
30, 537028, Note_on_c, 12, 60, 0
30, 537062, Note_on_c, 12, 60, 123
30, 537082, Note_on_c, 12, 60, 0
30, 537108, Note_on_c, 12, 60, 123
30, 537127, Note_on_c, 12, 60, 0
30, 537146, Note_on_c, 12, 61, 124
30, 537165, Note_on_c, 12, 61, 0
30, 537187, Note_on_c, 12, 61, 108
30, 537188, Note_on_c, 12, 61, 0
30, 537204, Note_on_c, 12, 61, 107
30, 537223, Note_on_c, 12, 61, 0
30, 537251, Note_on_c, 12, 61, 123
30, 537270, Note_on_c, 12, 61, 0
30, 537289, Note_on_c, 12, 61, 116
30, 537309, Note_on_c, 12, 61, 0
30, 537343, Note_on_c, 12, 61, 108
30, 537362, Note_on_c, 12, 61, 0
30, 537383, Note_on_c, 12, 62, 112
30, 537402, Note_on_c, 12, 62, 0
30, 537422, Note_on_c, 12, 62, 106
30, 537434, Note_on_c, 12, 62, 0
30, 537454, Note_on_c, 12, 62, 121
30, 537472, Note_on_c, 12, 62, 0
30, 537491, Note_on_c, 12, 62, 117
30, 537502, Note_on_c, 12, 62, 0
30, 537521, Note_on_c, 12, 62, 119
30, 537541, Note_on_c, 12, 62, 0
30, 537579, Note_on_c, 12, 62, 120
30, 537598, Note_on_c, 12, 62, 0
30, 636025, Note_on_c, 12, 76, 91
30, 636085, Note_on_c, 12, 76, 0
30, 636268, Note_on_c, 12, 76, 78
30, 636328, Note_on_c, 12, 76, 0
30, 636624, Note_on_c, 12, 67, 89
30, 636677, Note_on_c, 12, 67, 0
30, 636744, Note_on_c, 12, 68, 98
30, 636797, Note_on_c, 12, 68, 0
30, 636851, Note_on_c, 12, 69, 85
30, 636904, Note_on_c, 12, 69, 0
30, 637085, Note_on_c, 12, 76, 96
30, 637145, Note_on_c, 12, 76, 0
30, 637327, Note_on_c, 12, 76, 82
30, 637387, Note_on_c, 12, 76, 0
30, 637697, Note_on_c, 12, 67, 83
30, 637750, Note_on_c, 12, 67, 0
30, 637801, Note_on_c, 12, 68, 81
30, 637854, Note_on_c, 12, 68, 0
30, 637947, Note_on_c, 12, 69, 88
30, 638000, Note_on_c, 12, 69, 0
30, 638183, Note_on_c, 12, 76, 86
30, 638243, Note_on_c, 12, 76, 0
30, 638423, Note_on_c, 12, 76, 84
30, 638483, Note_on_c, 12, 76, 0
30, 638774, Note_on_c, 12, 67, 86
30, 638827, Note_on_c, 12, 67, 0
30, 638889, Note_on_c, 12, 68, 79
30, 638942, Note_on_c, 12, 68, 0
30, 639022, Note_on_c, 12, 69, 87
30, 639075, Note_on_c, 12, 69, 0
30, 639240, Note_on_c, 12, 76, 96
30, 639300, Note_on_c, 12, 76, 0
30, 639483, Note_on_c, 12, 67, 92
30, 639536, Note_on_c, 12, 67, 0
30, 639601, Note_on_c, 12, 68, 89
30, 639654, Note_on_c, 12, 68, 0
30, 639745, Note_on_c, 12, 69, 97
30, 639798, Note_on_c, 12, 69, 0
30, 639798, End_track
31, 0, Start_track
31, 0, Title_t, "Viole I"
31, 0, MIDI_port, 0
31, 0, Control_c, 13, 10, 64
31, 0, Control_c, 13, 91, 96
31, 0, Control_c, 13, 7, 75
31, 0, Program_c, 13, 48
31, 0, Control_c, 13, 11, 127
31, 1440, Program_c, 13, 41
31, 7687, Note_on_c, 13, 75, 29
31, 7700, Note_on_c, 13, 82, 28
31, 7701, Note_on_c, 13, 78, 27
31, 7926, Note_on_c, 13, 68, 38
31, 7927, Note_on_c, 13, 75, 0
31, 7930, Note_on_c, 13, 73, 32
31, 7940, Note_on_c, 13, 82, 0
31, 7941, Note_on_c, 13, 78, 0
31, 7947, Note_on_c, 13, 76, 34
31, 8166, Note_on_c, 13, 68, 0
31, 8170, Note_on_c, 13, 73, 0
31, 8177, Note_on_c, 13, 66, 20
31, 8178, Note_on_c, 13, 63, 27
31, 8182, Note_on_c, 13, 70, 22
31, 8187, Note_on_c, 13, 76, 0
31, 8411, Note_on_c, 13, 76, 20
31, 8413, Note_on_c, 13, 68, 35
31, 8417, Note_on_c, 13, 66, 0
31, 8418, Note_on_c, 13, 63, 0
31, 8422, Note_on_c, 13, 70, 0
31, 8422, Note_on_c, 13, 73, 38
31, 8649, Note_on_c, 13, 82, 34
31, 8651, Note_on_c, 13, 76, 0
31, 8653, Note_on_c, 13, 68, 0
31, 8653, Note_on_c, 13, 78, 33
31, 8657, Note_on_c, 13, 75, 27
31, 8662, Note_on_c, 13, 73, 0
31, 8889, Note_on_c, 13, 82, 0
31, 8893, Note_on_c, 13, 78, 0
31, 8897, Note_on_c, 13, 75, 0
31, 10560, Program_c, 13, 49
31, 10570, Note_on_c, 13, 70, 68
31, 10806, Note_on_c, 13, 72, 77
31, 10810, Note_on_c, 13, 70, 0
31, 11046, Note_on_c, 13, 72, 0
31, 11059, Note_on_c, 13, 73, 54
31, 11283, Note_on_c, 13, 75, 54
31, 11299, Note_on_c, 13, 73, 0
31, 11523, Note_on_c, 13, 75, 0
31, 11542, Note_on_c, 13, 73, 46
31, 11778, Note_on_c, 13, 72, 47
31, 11782, Note_on_c, 13, 73, 0
31, 12004, Note_on_c, 13, 75, 39
31, 12018, Note_on_c, 13, 72, 0
31, 12244, Note_on_c, 13, 75, 0
31, 13440, Program_c, 13, 49
31, 13445, Note_on_c, 13, 81, 52
31, 14165, Note_on_c, 13, 81, 0
31, 14179, Note_on_c, 13, 79, 51
31, 14419, Note_on_c, 13, 79, 0
31, 14427, Note_on_c, 13, 81, 48
31, 14907, Note_on_c, 13, 81, 0
31, 14907, Note_on_c, 13, 74, 49
31, 15291, Note_on_c, 13, 74, 0
31, 15360, Program_c, 13, 49
31, 15371, Note_on_c, 13, 70, 83
31, 15611, Note_on_c, 13, 70, 0
31, 15616, Note_on_c, 13, 72, 66
31, 15856, Note_on_c, 13, 72, 0
31, 15859, Note_on_c, 13, 73, 66
31, 16099, Note_on_c, 13, 73, 0
31, 16101, Note_on_c, 13, 75, 64
31, 16335, Note_on_c, 13, 73, 62
31, 16341, Note_on_c, 13, 75, 0
31, 16573, Note_on_c, 13, 72, 65
31, 16575, Note_on_c, 13, 73, 0
31, 16811, Note_on_c, 13, 75, 62
31, 16813, Note_on_c, 13, 72, 0
31, 17051, Note_on_c, 13, 75, 0
31, 19680, Program_c, 13, 49
31, 19696, Note_on_c, 13, 70, 81
31, 19921, Note_on_c, 13, 72, 73
31, 19936, Note_on_c, 13, 70, 0
31, 20161, Note_on_c, 13, 72, 0
31, 20173, Note_on_c, 13, 73, 69
31, 20413, Note_on_c, 13, 73, 0
31, 20422, Note_on_c, 13, 75, 57
31, 20658, Note_on_c, 13, 73, 44
31, 20662, Note_on_c, 13, 75, 0
31, 20893, Note_on_c, 13, 72, 54
31, 20898, Note_on_c, 13, 73, 0
31, 21125, Note_on_c, 13, 75, 39
31, 21133, Note_on_c, 13, 72, 0
31, 21365, Note_on_c, 13, 75, 0
31, 21367, Note_on_c, 13, 73, 42
31, 21607, Note_on_c, 13, 73, 0
31, 21625, Note_on_c, 13, 70, 45
31, 21856, Note_on_c, 13, 68, 48
31, 21865, Note_on_c, 13, 70, 0
31, 22080, Note_on_c, 13, 66, 40
31, 22096, Note_on_c, 13, 68, 0
31, 22320, Note_on_c, 13, 66, 0
31, 22323, Note_on_c, 13, 64, 47
31, 22515, Note_on_c, 13, 64, 0
31, 22585, Note_on_c, 13, 65, 47
31, 22800, Note_on_c, 13, 71, 52
31, 22825, Note_on_c, 13, 65, 0
31, 23040, Note_on_c, 13, 71, 0
31, 23054, Note_on_c, 13, 70, 51
31, 23293, Note_on_c, 13, 76, 41
31, 23294, Note_on_c, 13, 70, 0
31, 23533, Note_on_c, 13, 76, 0
31, 23543, Note_on_c, 13, 73, 41
31, 23759, Note_on_c, 13, 73, 0
31, 23781, Note_on_c, 13, 79, 40
31, 23973, Note_on_c, 13, 79, 0
31, 24018, Note_on_c, 13, 79, 41
31, 24258, Note_on_c, 13, 79, 0
31, 24268, Note_on_c, 13, 72, 42
31, 24486, Note_on_c, 13, 67, 55
31, 24508, Note_on_c, 13, 72, 0
31, 24721, Note_on_c, 13, 66, 39
31, 24726, Note_on_c, 13, 67, 0
31, 24961, Note_on_c, 13, 66, 0
31, 24964, Note_on_c, 13, 67, 59
31, 25180, Note_on_c, 13, 67, 0
31, 25217, Note_on_c, 13, 66, 42
31, 25409, Note_on_c, 13, 66, 0
31, 25458, Note_on_c, 13, 62, 40
31, 25689, Note_on_c, 13, 61, 48
31, 25698, Note_on_c, 13, 62, 0
31, 25929, Note_on_c, 13, 61, 0
31, 25934, Note_on_c, 13, 59, 48
31, 26166, Note_on_c, 13, 67, 40
31, 26174, Note_on_c, 13, 59, 0
31, 26404, Note_on_c, 13, 62, 53
31, 26406, Note_on_c, 13, 67, 0
31, 26644, Note_on_c, 13, 62, 0
31, 26657, Note_on_c, 13, 64, 55
31, 26889, Note_on_c, 13, 67, 49
31, 26897, Note_on_c, 13, 64, 0
31, 27129, Note_on_c, 13, 67, 0
31, 27146, Note_on_c, 13, 65, 44
31, 27367, Note_on_c, 13, 67, 45
31, 27386, Note_on_c, 13, 65, 0
31, 27604, Note_on_c, 13, 74, 49
31, 27607, Note_on_c, 13, 67, 0
31, 27844, Note_on_c, 13, 74, 0
31, 27862, Note_on_c, 13, 73, 53
31, 28083, Note_on_c, 13, 79, 44
31, 28102, Note_on_c, 13, 73, 0
31, 28323, Note_on_c, 13, 79, 0
31, 28324, Note_on_c, 13, 54, 43
31, 29761, Note_on_c, 13, 54, 0
31, 29781, Note_on_c, 13, 54, 50
31, 31698, Note_on_c, 13, 53, 56
31, 31701, Note_on_c, 13, 54, 0
31, 32621, Program_c, 13, 41
31, 32658, Note_on_c, 13, 53, 0
31, 34086, Note_on_c, 13, 66, 52
31, 34100, Note_on_c, 13, 71, 48
31, 34321, Note_on_c, 13, 75, 58
31, 34325, Note_on_c, 13, 67, 47
31, 34326, Note_on_c, 13, 66, 0
31, 34340, Note_on_c, 13, 71, 0
31, 34561, Note_on_c, 13, 75, 0
31, 34562, Note_on_c, 13, 69, 44
31, 34565, Note_on_c, 13, 67, 0
31, 34584, Note_on_c, 13, 74, 48
31, 34802, Note_on_c, 13, 69, 0
31, 34813, Note_on_c, 13, 71, 54
31, 34823, Note_on_c, 13, 79, 39
31, 34824, Note_on_c, 13, 74, 0
31, 35044, Note_on_c, 13, 77, 48
31, 35049, Note_on_c, 13, 74, 42
31, 35053, Note_on_c, 13, 71, 0
31, 35063, Note_on_c, 13, 79, 0
31, 35284, Note_on_c, 13, 77, 0
31, 35286, Note_on_c, 13, 83, 56
31, 35289, Note_on_c, 13, 74, 0
31, 35307, Note_on_c, 13, 78, 55
31, 35514, Note_on_c, 13, 83, 0
31, 35529, Note_on_c, 13, 77, 57
31, 35535, Note_on_c, 13, 78, 0
31, 35535, Note_on_c, 13, 82, 66
31, 36249, Note_on_c, 13, 77, 0
31, 36250, Note_on_c, 13, 75, 53
31, 36251, Note_on_c, 13, 80, 64
31, 36255, Note_on_c, 13, 82, 0
31, 36485, Note_on_c, 13, 77, 55
31, 36490, Note_on_c, 13, 75, 0
31, 36491, Note_on_c, 13, 80, 0
31, 36497, Note_on_c, 13, 82, 69
31, 36964, Note_on_c, 13, 73, 71
31, 36965, Note_on_c, 13, 77, 0
31, 36977, Note_on_c, 13, 82, 0
31, 36986, Note_on_c, 13, 78, 56
31, 37204, Note_on_c, 13, 73, 0
31, 37219, Note_on_c, 13, 76, 69
31, 37219, Note_on_c, 13, 74, 63
31, 37226, Note_on_c, 13, 78, 0
31, 37442, Note_on_c, 13, 76, 0
31, 37453, Note_on_c, 13, 81, 61
31, 37459, Note_on_c, 13, 74, 0
31, 37461, Note_on_c, 13, 76, 68
31, 37923, Note_on_c, 13, 78, 58
31, 37933, Note_on_c, 13, 81, 0
31, 37940, Note_on_c, 13, 73, 67
31, 37941, Note_on_c, 13, 76, 0
31, 38379, Note_on_c, 13, 78, 0
31, 38396, Note_on_c, 13, 73, 0
31, 38402, Note_on_c, 13, 82, 69
31, 38410, Note_on_c, 13, 77, 55
31, 39122, Note_on_c, 13, 82, 0
31, 39130, Note_on_c, 13, 77, 0
31, 39142, Note_on_c, 13, 80, 66
31, 39142, Note_on_c, 13, 75, 58
31, 39366, Note_on_c, 13, 77, 63
31, 39379, Note_on_c, 13, 82, 67
31, 39382, Note_on_c, 13, 80, 0
31, 39382, Note_on_c, 13, 75, 0
31, 39606, Note_on_c, 13, 77, 0
31, 39619, Note_on_c, 13, 82, 0
31, 44113, Program_c, 13, 49
31, 44403, Note_on_c, 13, 53, 30
31, 44643, Note_on_c, 13, 53, 0
31, 44660, Note_on_c, 13, 66, 24
31, 44900, Note_on_c, 13, 66, 0
31, 44908, Note_on_c, 13, 64, 32
31, 45123, Note_on_c, 13, 54, 29
31, 45148, Note_on_c, 13, 64, 0
31, 45363, Note_on_c, 13, 54, 0
31, 45368, Note_on_c, 13, 53, 26
31, 45608, Note_on_c, 13, 53, 0
31, 45613, Note_on_c, 13, 66, 32
31, 45853, Note_on_c, 13, 66, 0
31, 45854, Note_on_c, 13, 64, 21
31, 46094, Note_on_c, 13, 64, 0
31, 46586, Note_on_c, 13, 66, 16
31, 46804, Note_on_c, 13, 53, 14
31, 46826, Note_on_c, 13, 66, 0
31, 47044, Note_on_c, 13, 53, 0
31, 47050, Note_on_c, 13, 54, 24
31, 47290, Note_on_c, 13, 54, 0
31, 47524, Note_on_c, 13, 66, 15
31, 47764, Note_on_c, 13, 66, 0
31, 47782, Note_on_c, 13, 53, 33
31, 48022, Note_on_c, 13, 53, 0
31, 53325, Program_c, 13, 48
31, 56168, Note_on_c, 13, 61, 43
31, 56199, Note_on_c, 13, 61, 0
31, 56266, Note_on_c, 13, 61, 36
31, 56298, Note_on_c, 13, 61, 0
31, 56326, Note_on_c, 13, 61, 41
31, 56865, Note_on_c, 13, 61, 0
31, 56884, Note_on_c, 13, 61, 40
31, 56915, Note_on_c, 13, 61, 0
31, 56983, Note_on_c, 13, 61, 50
31, 57015, Note_on_c, 13, 61, 0
31, 57047, Note_on_c, 13, 61, 35
31, 57607, Note_on_c, 13, 61, 0
31, 57617, Note_on_c, 13, 63, 45
31, 57648, Note_on_c, 13, 63, 0
31, 57697, Note_on_c, 13, 63, 42
31, 57729, Note_on_c, 13, 63, 0
31, 57765, Note_on_c, 13, 63, 35
31, 58085, Note_on_c, 13, 63, 0
31, 58108, Note_on_c, 13, 64, 44
31, 58561, Note_on_c, 13, 61, 44
31, 58588, Note_on_c, 13, 64, 0
31, 58592, Note_on_c, 13, 61, 0
31, 58659, Note_on_c, 13, 61, 33
31, 58691, Note_on_c, 13, 61, 0
31, 58723, Note_on_c, 13, 61, 48
31, 59523, Note_on_c, 13, 61, 0
31, 59541, Note_on_c, 13, 63, 37
31, 59572, Note_on_c, 13, 63, 0
31, 59600, Note_on_c, 13, 63, 32
31, 59632, Note_on_c, 13, 63, 0
31, 59699, Note_on_c, 13, 63, 31
31, 60259, Note_on_c, 13, 63, 0
31, 60259, Note_on_c, 13, 61, 43
31, 60290, Note_on_c, 13, 61, 0
31, 60334, Note_on_c, 13, 61, 45
31, 60366, Note_on_c, 13, 61, 0
31, 60417, Note_on_c, 13, 61, 41
31, 60449, Note_on_c, 13, 61, 0
31, 62877, Program_c, 13, 49
31, 65528, Note_on_c, 13, 60, 42
31, 65564, Note_on_c, 13, 67, 47
31, 65567, Note_on_c, 13, 60, 0
31, 65600, Note_on_c, 13, 72, 50
31, 65604, Note_on_c, 13, 67, 0
31, 65640, Note_on_c, 13, 72, 0
31, 65652, Note_on_c, 13, 76, 30
31, 65687, Note_on_c, 13, 79, 43
31, 65691, Note_on_c, 13, 76, 0
31, 65727, Note_on_c, 13, 79, 0
31, 65738, Note_on_c, 13, 82, 46
31, 65777, Note_on_c, 13, 84, 31
31, 65778, Note_on_c, 13, 82, 0
31, 65897, Note_on_c, 13, 84, 0
31, 67939, Note_on_c, 13, 60, 49
31, 67970, Note_on_c, 13, 67, 49
31, 67978, Note_on_c, 13, 60, 0
31, 68004, Note_on_c, 13, 72, 45
31, 68010, Note_on_c, 13, 67, 0
31, 68044, Note_on_c, 13, 72, 0
31, 68067, Note_on_c, 13, 76, 31
31, 68103, Note_on_c, 13, 79, 48
31, 68106, Note_on_c, 13, 76, 0
31, 68121, Note_on_c, 13, 82, 50
31, 68143, Note_on_c, 13, 79, 0
31, 68161, Note_on_c, 13, 82, 0
31, 68173, Note_on_c, 13, 84, 30
31, 68293, Note_on_c, 13, 84, 0
31, 69381, Note_on_c, 13, 60, 37
31, 69420, Note_on_c, 13, 60, 0
31, 69424, Note_on_c, 13, 67, 35
31, 69464, Note_on_c, 13, 67, 0
31, 69464, Note_on_c, 13, 72, 47
31, 69489, Note_on_c, 13, 76, 39
31, 69504, Note_on_c, 13, 72, 0
31, 69528, Note_on_c, 13, 76, 0
31, 69546, Note_on_c, 13, 79, 39
31, 69581, Note_on_c, 13, 82, 38
31, 69586, Note_on_c, 13, 79, 0
31, 69609, Note_on_c, 13, 84, 35
31, 69621, Note_on_c, 13, 82, 0
31, 69729, Note_on_c, 13, 84, 0
31, 72264, Note_on_c, 13, 60, 33
31, 72283, Note_on_c, 13, 67, 37
31, 72303, Note_on_c, 13, 60, 0
31, 72323, Note_on_c, 13, 67, 0
31, 72330, Note_on_c, 13, 72, 33
31, 72361, Note_on_c, 13, 76, 44
31, 72370, Note_on_c, 13, 72, 0
31, 72400, Note_on_c, 13, 76, 0
31, 72417, Note_on_c, 13, 79, 37
31, 72452, Note_on_c, 13, 82, 34
31, 72457, Note_on_c, 13, 79, 0
31, 72487, Note_on_c, 13, 84, 35
31, 72492, Note_on_c, 13, 82, 0
31, 72607, Note_on_c, 13, 84, 0
31, 73701, Note_on_c, 13, 60, 50
31, 73728, Note_on_c, 13, 67, 49
31, 73740, Note_on_c, 13, 60, 0
31, 73768, Note_on_c, 13, 67, 0
31, 73772, Note_on_c, 13, 72, 40
31, 73812, Note_on_c, 13, 72, 0
31, 73812, Note_on_c, 13, 76, 45
31, 73851, Note_on_c, 13, 76, 0
31, 73863, Note_on_c, 13, 79, 33
31, 73903, Note_on_c, 13, 79, 0
31, 73904, Note_on_c, 13, 82, 30
31, 73921, Note_on_c, 13, 84, 35
31, 73944, Note_on_c, 13, 82, 0
31, 74041, Note_on_c, 13, 84, 0
31, 76565, Note_on_c, 13, 60, 37
31, 76604, Note_on_c, 13, 60, 0
31, 76623, Note_on_c, 13, 67, 34
31, 76657, Note_on_c, 13, 72, 45
31, 76663, Note_on_c, 13, 67, 0
31, 76693, Note_on_c, 13, 76, 32
31, 76697, Note_on_c, 13, 72, 0
31, 76725, Note_on_c, 13, 79, 39
31, 76732, Note_on_c, 13, 76, 0
31, 76764, Note_on_c, 13, 82, 45
31, 76765, Note_on_c, 13, 79, 0
31, 76804, Note_on_c, 13, 82, 0
31, 76817, Note_on_c, 13, 84, 37
31, 76937, Note_on_c, 13, 84, 0
31, 78008, Note_on_c, 13, 60, 32
31, 78042, Note_on_c, 13, 67, 33
31, 78047, Note_on_c, 13, 60, 0
31, 78082, Note_on_c, 13, 67, 0
31, 78091, Note_on_c, 13, 72, 32
31, 78131, Note_on_c, 13, 72, 0
31, 78136, Note_on_c, 13, 76, 47
31, 78175, Note_on_c, 13, 76, 0
31, 78185, Note_on_c, 13, 79, 31
31, 78224, Note_on_c, 13, 82, 37
31, 78225, Note_on_c, 13, 79, 0
31, 78260, Note_on_c, 13, 84, 39
31, 78264, Note_on_c, 13, 82, 0
31, 78380, Note_on_c, 13, 84, 0
31, 80884, Note_on_c, 13, 60, 46
31, 80923, Note_on_c, 13, 60, 0
31, 80924, Note_on_c, 13, 67, 40
31, 80964, Note_on_c, 13, 67, 0
31, 80984, Note_on_c, 13, 72, 43
31, 81017, Note_on_c, 13, 76, 39
31, 81024, Note_on_c, 13, 72, 0
31, 81056, Note_on_c, 13, 76, 0
31, 81066, Note_on_c, 13, 79, 48
31, 81102, Note_on_c, 13, 82, 34
31, 81106, Note_on_c, 13, 79, 0
31, 81142, Note_on_c, 13, 82, 0
31, 81147, Note_on_c, 13, 84, 43
31, 81267, Note_on_c, 13, 84, 0
31, 82329, Note_on_c, 13, 60, 48
31, 82368, Note_on_c, 13, 60, 0
31, 82370, Note_on_c, 13, 67, 47
31, 82410, Note_on_c, 13, 67, 0
31, 82425, Note_on_c, 13, 72, 34
31, 82461, Note_on_c, 13, 76, 38
31, 82465, Note_on_c, 13, 72, 0
31, 82497, Note_on_c, 13, 79, 36
31, 82500, Note_on_c, 13, 76, 0
31, 82537, Note_on_c, 13, 79, 0
31, 82543, Note_on_c, 13, 82, 45
31, 82562, Note_on_c, 13, 84, 50
31, 82583, Note_on_c, 13, 82, 0
31, 82682, Note_on_c, 13, 84, 0
31, 99345, Program_c, 13, 41
31, 99360, Control_c, 13, 7, 64
31, 99360, Note_on_c, 13, 71, 38
31, 99379, Note_on_c, 13, 78, 33
31, 99382, Note_on_c, 13, 74, 46
31, 100080, Note_on_c, 13, 71, 0
31, 100099, Note_on_c, 13, 78, 0
31, 100099, Note_on_c, 13, 72, 35
31, 100101, Note_on_c, 13, 76, 32
31, 100102, Note_on_c, 13, 74, 0
31, 100105, Note_on_c, 13, 70, 39
31, 100326, Note_on_c, 13, 71, 38
31, 100331, Note_on_c, 13, 78, 45
31, 100331, Note_on_c, 13, 74, 39
31, 100339, Note_on_c, 13, 72, 0
31, 100341, Note_on_c, 13, 76, 0
31, 100345, Note_on_c, 13, 70, 0
31, 100801, Note_on_c, 13, 67, 35
31, 100806, Note_on_c, 13, 71, 0
31, 100807, Note_on_c, 13, 73, 46
31, 100811, Note_on_c, 13, 78, 0
31, 100811, Note_on_c, 13, 74, 0
31, 100818, Note_on_c, 13, 69, 36
31, 101034, Note_on_c, 13, 67, 0
31, 101046, Note_on_c, 13, 71, 33
31, 101047, Note_on_c, 13, 73, 0
31, 101048, Note_on_c, 13, 64, 31
31, 101053, Note_on_c, 13, 67, 49
31, 101058, Note_on_c, 13, 69, 0
31, 101281, Note_on_c, 13, 70, 33
31, 101283, Note_on_c, 13, 72, 45
31, 101286, Note_on_c, 13, 71, 0
31, 101288, Note_on_c, 13, 64, 0
31, 101293, Note_on_c, 13, 67, 0
31, 101294, Note_on_c, 13, 76, 50
31, 101761, Note_on_c, 13, 70, 0
31, 101763, Note_on_c, 13, 72, 0
31, 101763, Note_on_c, 13, 73, 40
31, 101774, Note_on_c, 13, 76, 0
31, 101776, Note_on_c, 13, 69, 49
31, 101788, Note_on_c, 13, 67, 30
31, 102147, Note_on_c, 13, 73, 0
31, 102160, Note_on_c, 13, 69, 0
31, 102172, Note_on_c, 13, 67, 0
31, 102256, Note_on_c, 13, 78, 42
31, 102262, Note_on_c, 13, 71, 34
31, 102264, Note_on_c, 13, 74, 43
31, 102961, Note_on_c, 13, 70, 41
31, 102967, Note_on_c, 13, 72, 39
31, 102975, Note_on_c, 13, 76, 49
31, 102976, Note_on_c, 13, 78, 0
31, 102982, Note_on_c, 13, 71, 0
31, 102984, Note_on_c, 13, 74, 0
31, 103200, Note_on_c, 13, 71, 33
31, 103201, Note_on_c, 13, 70, 0
31, 103203, Note_on_c, 13, 74, 44
31, 103207, Note_on_c, 13, 72, 0
31, 103215, Note_on_c, 13, 76, 0
31, 103218, Note_on_c, 13, 78, 40
31, 103680, Note_on_c, 13, 71, 0
31, 103680, Note_on_c, 13, 67, 38
31, 103683, Note_on_c, 13, 74, 0
31, 103690, Note_on_c, 13, 73, 32
31, 103698, Note_on_c, 13, 78, 0
31, 103701, Note_on_c, 13, 69, 50
31, 103917, Note_on_c, 13, 67, 0
31, 103921, Note_on_c, 13, 71, 41
31, 103928, Note_on_c, 13, 64, 48
31, 103930, Note_on_c, 13, 73, 0
31, 103937, Note_on_c, 13, 67, 36
31, 103941, Note_on_c, 13, 69, 0
31, 104161, Note_on_c, 13, 71, 0
31, 104168, Note_on_c, 13, 64, 0
31, 104172, Note_on_c, 13, 70, 34
31, 104175, Note_on_c, 13, 72, 32
31, 104177, Note_on_c, 13, 67, 0
31, 104177, Note_on_c, 13, 76, 30
31, 104652, Note_on_c, 13, 70, 0
31, 104655, Note_on_c, 13, 72, 0
31, 104656, Note_on_c, 13, 71, 33
31, 104657, Note_on_c, 13, 76, 0
31, 104665, Note_on_c, 13, 74, 45
31, 104665, Note_on_c, 13, 78, 41
31, 105121, Note_on_c, 13, 67, 36
31, 105130, Note_on_c, 13, 73, 32
31, 105136, Note_on_c, 13, 71, 0
31, 105141, Note_on_c, 13, 69, 39
31, 105145, Note_on_c, 13, 74, 0
31, 105145, Note_on_c, 13, 78, 0
31, 105601, Note_on_c, 13, 67, 0
31, 105604, Note_on_c, 13, 63, 45
31, 105610, Note_on_c, 13, 73, 0
31, 105611, Note_on_c, 13, 68, 39
31, 105620, Note_on_c, 13, 71, 35
31, 105621, Note_on_c, 13, 69, 0
31, 106084, Note_on_c, 13, 63, 0
31, 106091, Note_on_c, 13, 68, 0
31, 106098, Note_on_c, 13, 73, 47
31, 106100, Note_on_c, 13, 71, 0
31, 106102, Note_on_c, 13, 69, 49
31, 106106, Note_on_c, 13, 67, 39
31, 106312, Note_on_c, 13, 67, 0
31, 106331, Note_on_c, 13, 67, 47
31, 106335, Note_on_c, 13, 71, 41
31, 106338, Note_on_c, 13, 73, 0
31, 106342, Note_on_c, 13, 69, 0
31, 106345, Note_on_c, 13, 64, 36
31, 106568, Note_on_c, 13, 70, 48
31, 106571, Note_on_c, 13, 67, 0
31, 106575, Note_on_c, 13, 71, 0
31, 106585, Note_on_c, 13, 64, 0
31, 106586, Note_on_c, 13, 76, 30
31, 106588, Note_on_c, 13, 72, 30
31, 107041, Note_on_c, 13, 73, 45
31, 107044, Note_on_c, 13, 69, 35
31, 107048, Note_on_c, 13, 70, 0
31, 107054, Note_on_c, 13, 67, 35
31, 107066, Note_on_c, 13, 76, 0
31, 107068, Note_on_c, 13, 72, 0
31, 107520, Note_on_c, 13, 71, 35
31, 107521, Note_on_c, 13, 73, 0
31, 107524, Note_on_c, 13, 69, 0
31, 107530, Note_on_c, 13, 68, 45
31, 107533, Note_on_c, 13, 63, 36
31, 107534, Note_on_c, 13, 67, 0
31, 108000, Note_on_c, 13, 71, 0
31, 108010, Note_on_c, 13, 68, 0
31, 108010, Note_on_c, 13, 69, 40
31, 108013, Note_on_c, 13, 63, 0
31, 108019, Note_on_c, 13, 67, 30
31, 108024, Note_on_c, 13, 73, 43
31, 108249, Note_on_c, 13, 67, 0
31, 108249, Note_on_c, 13, 64, 47
31, 108250, Note_on_c, 13, 69, 0
31, 108253, Note_on_c, 13, 71, 39
31, 108264, Note_on_c, 13, 73, 0
31, 108268, Note_on_c, 13, 67, 37
31, 108469, Note_on_c, 13, 71, 0
31, 108488, Note_on_c, 13, 71, 38
31, 108489, Note_on_c, 13, 64, 0
31, 108492, Note_on_c, 13, 74, 37
31, 108500, Note_on_c, 13, 78, 39
31, 108508, Note_on_c, 13, 67, 0
31, 108965, Note_on_c, 13, 76, 44
31, 108968, Note_on_c, 13, 71, 0
31, 108968, Note_on_c, 13, 70, 39
31, 108969, Note_on_c, 13, 72, 35
31, 108972, Note_on_c, 13, 74, 0
31, 108980, Note_on_c, 13, 78, 0
31, 109445, Note_on_c, 13, 76, 0
31, 109448, Note_on_c, 13, 70, 0
31, 109449, Note_on_c, 13, 72, 0
31, 109449, Note_on_c, 13, 73, 33
31, 109459, Note_on_c, 13, 69, 38
31, 109467, Note_on_c, 13, 67, 40
31, 109900, Note_on_c, 13, 67, 0
31, 109920, Note_on_c, 13, 67, 37
31, 109929, Note_on_c, 13, 73, 0
31, 109930, Note_on_c, 13, 68, 49
31, 109931, Note_on_c, 13, 71, 42
31, 109939, Note_on_c, 13, 69, 0
31, 110164, Note_on_c, 13, 73, 45
31, 110170, Note_on_c, 13, 68, 0
31, 110171, Note_on_c, 13, 71, 0
31, 110180, Note_on_c, 13, 69, 35
31, 110400, Note_on_c, 13, 67, 0
31, 110404, Note_on_c, 13, 73, 0
31, 110408, Note_on_c, 13, 68, 47
31, 110408, Note_on_c, 13, 71, 36
31, 110420, Note_on_c, 13, 69, 0
31, 110428, Note_on_c, 13, 75, 32
31, 110888, Note_on_c, 13, 68, 0
31, 110888, Note_on_c, 13, 71, 0
31, 110908, Note_on_c, 13, 75, 0
31, 112800, Control_c, 13, 7, 75
31, 129533, Control_c, 10, 7, 64
31, 130557, Program_c, 10, 41
31, 130577, Note_on_c, 10, 72, 50
31, 130589, Note_on_c, 10, 58, 57
31, 131048, Note_on_c, 10, 71, 43
31, 131057, Note_on_c, 10, 72, 0
31, 131059, Note_on_c, 10, 57, 51
31, 131069, Note_on_c, 10, 58, 0
31, 131528, Note_on_c, 10, 71, 0
31, 131532, Note_on_c, 10, 70, 44
31, 131539, Note_on_c, 10, 57, 0
31, 131549, Note_on_c, 10, 56, 44
31, 132003, Note_on_c, 10, 69, 56
31, 132007, Note_on_c, 10, 55, 41
31, 132012, Note_on_c, 10, 70, 0
31, 132029, Note_on_c, 10, 56, 0
31, 132483, Note_on_c, 10, 69, 0
31, 132487, Note_on_c, 10, 55, 0
31, 132495, Note_on_c, 10, 56, 56
31, 132502, Note_on_c, 10, 70, 55
31, 132975, Note_on_c, 10, 56, 0
31, 132982, Note_on_c, 10, 70, 0
31, 132982, Note_on_c, 10, 71, 42
31, 132983, Note_on_c, 10, 57, 50
31, 133442, Note_on_c, 10, 56, 58
31, 133462, Note_on_c, 10, 71, 0
31, 133462, Note_on_c, 10, 70, 48
31, 133463, Note_on_c, 10, 57, 0
31, 133922, Note_on_c, 10, 56, 0
31, 133938, Note_on_c, 10, 55, 52
31, 133942, Note_on_c, 10, 70, 0
31, 133946, Note_on_c, 10, 69, 49
31, 134406, Note_on_c, 10, 68, 44
31, 134415, Note_on_c, 10, 54, 57
31, 134418, Note_on_c, 10, 55, 0
31, 134426, Note_on_c, 10, 69, 0
31, 134880, Note_on_c, 10, 53, 42
31, 134885, Note_on_c, 10, 67, 50
31, 134886, Note_on_c, 10, 68, 0
31, 134895, Note_on_c, 10, 54, 0
31, 135360, Note_on_c, 10, 53, 0
31, 135365, Note_on_c, 10, 67, 0
31, 135365, Note_on_c, 10, 54, 54
31, 135381, Note_on_c, 10, 68, 53
31, 135845, Note_on_c, 10, 54, 0
31, 135860, Note_on_c, 10, 69, 40
31, 135861, Note_on_c, 10, 68, 0
31, 135862, Note_on_c, 10, 55, 51
31, 136335, Note_on_c, 10, 70, 48
31, 136337, Note_on_c, 10, 56, 50
31, 136340, Note_on_c, 10, 69, 0
31, 136342, Note_on_c, 10, 55, 0
31, 136813, Note_on_c, 10, 55, 52
31, 136815, Note_on_c, 10, 70, 0
31, 136817, Note_on_c, 10, 56, 0
31, 136823, Note_on_c, 10, 69, 56
31, 137285, Note_on_c, 10, 54, 49
31, 137293, Note_on_c, 10, 55, 0
31, 137303, Note_on_c, 10, 69, 0
31, 137305, Note_on_c, 10, 68, 52
31, 137765, Note_on_c, 10, 54, 0
31, 137778, Note_on_c, 10, 67, 56
31, 137785, Note_on_c, 10, 68, 0
31, 137785, Note_on_c, 10, 53, 40
31, 138243, Note_on_c, 10, 68, 58
31, 138254, Note_on_c, 10, 54, 52
31, 138258, Note_on_c, 10, 67, 0
31, 138265, Note_on_c, 10, 53, 0
31, 138723, Note_on_c, 10, 68, 0
31, 138734, Note_on_c, 10, 54, 0
31, 138738, Note_on_c, 10, 55, 53
31, 138741, Note_on_c, 10, 69, 47
31, 139212, Note_on_c, 10, 70, 54
31, 139218, Note_on_c, 10, 55, 0
31, 139221, Note_on_c, 10, 69, 0
31, 139225, Note_on_c, 10, 56, 57
31, 139689, Note_on_c, 10, 69, 54
31, 139692, Note_on_c, 10, 70, 0
31, 139692, Note_on_c, 10, 55, 50
31, 139705, Note_on_c, 10, 56, 0
31, 140164, Note_on_c, 10, 54, 41
31, 140169, Note_on_c, 10, 69, 0
31, 140172, Note_on_c, 10, 55, 0
31, 140186, Note_on_c, 10, 68, 47
31, 140644, Note_on_c, 10, 54, 0
31, 140648, Note_on_c, 10, 67, 48
31, 140654, Note_on_c, 10, 53, 54
31, 140666, Note_on_c, 10, 68, 0
31, 141128, Note_on_c, 10, 67, 0
31, 141129, Note_on_c, 10, 68, 46
31, 141131, Note_on_c, 10, 54, 39
31, 141134, Note_on_c, 10, 53, 0
31, 141606, Note_on_c, 10, 69, 51
31, 141609, Note_on_c, 10, 68, 0
31, 141610, Note_on_c, 10, 55, 39
31, 141611, Note_on_c, 10, 54, 0
31, 142081, Note_on_c, 10, 70, 53
31, 142086, Note_on_c, 10, 69, 0
31, 142090, Note_on_c, 10, 55, 0
31, 142090, Note_on_c, 10, 56, 59
31, 142561, Note_on_c, 10, 70, 0
31, 142570, Note_on_c, 10, 56, 0
31, 142570, Note_on_c, 10, 69, 44
31, 142579, Note_on_c, 10, 55, 44
31, 143041, Note_on_c, 10, 68, 47
31, 143046, Note_on_c, 10, 54, 53
31, 143050, Note_on_c, 10, 69, 0
31, 143059, Note_on_c, 10, 55, 0
31, 143521, Note_on_c, 10, 68, 0
31, 143526, Note_on_c, 10, 54, 0
31, 143544, Note_on_c, 10, 67, 52
31, 143547, Note_on_c, 10, 53, 39
31, 144008, Note_on_c, 10, 68, 42
31, 144020, Note_on_c, 10, 54, 54
31, 144024, Note_on_c, 10, 67, 0
31, 144027, Note_on_c, 10, 53, 0
31, 144481, Note_on_c, 10, 69, 47
31, 144488, Note_on_c, 10, 68, 0
31, 144500, Note_on_c, 10, 54, 0
31, 144503, Note_on_c, 10, 55, 56
31, 144960, Note_on_c, 10, 56, 51
31, 144961, Note_on_c, 10, 69, 0
31, 144962, Note_on_c, 10, 70, 54
31, 144983, Note_on_c, 10, 55, 0
31, 145440, Note_on_c, 10, 56, 0
31, 145442, Note_on_c, 10, 70, 0
31, 145444, Note_on_c, 10, 55, 41
31, 145446, Note_on_c, 10, 69, 56
31, 145924, Note_on_c, 10, 55, 0
31, 145926, Note_on_c, 10, 69, 0
31, 145943, Note_on_c, 10, 54, 47
31, 145946, Note_on_c, 10, 68, 55
31, 146409, Note_on_c, 10, 67, 53
31, 146423, Note_on_c, 10, 54, 0
31, 146426, Note_on_c, 10, 68, 0
31, 146429, Note_on_c, 10, 53, 50
31, 146885, Note_on_c, 10, 54, 51
31, 146886, Note_on_c, 10, 68, 57
31, 146889, Note_on_c, 10, 67, 0
31, 146909, Note_on_c, 10, 53, 0
31, 147365, Note_on_c, 10, 54, 0
31, 147366, Note_on_c, 10, 68, 0
31, 147366, Note_on_c, 10, 69, 42
31, 147367, Note_on_c, 10, 55, 54
31, 147846, Note_on_c, 10, 69, 0
31, 147847, Note_on_c, 10, 55, 0
31, 152171, Note_on_c, 10, 69, 55
31, 152173, Note_on_c, 10, 57, 61
31, 152651, Note_on_c, 10, 69, 0
31, 152653, Note_on_c, 10, 57, 0
31, 152660, Note_on_c, 10, 62, 56
31, 152900, Note_on_c, 10, 62, 0
31, 153134, Note_on_c, 10, 57, 57
31, 153135, Note_on_c, 10, 69, 63
31, 153614, Note_on_c, 10, 57, 0
31, 153615, Note_on_c, 10, 69, 0
31, 153625, Note_on_c, 10, 62, 52
31, 153865, Note_on_c, 10, 62, 0
31, 155528, Note_on_c, 10, 57, 54
31, 155537, Note_on_c, 10, 69, 68
31, 156003, Note_on_c, 10, 62, 56
31, 156008, Note_on_c, 10, 57, 0
31, 156017, Note_on_c, 10, 69, 0
31, 156243, Note_on_c, 10, 62, 0
31, 156488, Note_on_c, 10, 69, 61
31, 156506, Note_on_c, 10, 57, 54
31, 156968, Note_on_c, 10, 69, 0
31, 156969, Note_on_c, 10, 62, 60
31, 156986, Note_on_c, 10, 57, 0
31, 157209, Note_on_c, 10, 62, 0
31, 157465, Note_on_c, 10, 57, 54
31, 157468, Note_on_c, 10, 69, 67
31, 157932, Note_on_c, 10, 62, 62
31, 157945, Note_on_c, 10, 57, 0
31, 157948, Note_on_c, 10, 69, 0
31, 158172, Note_on_c, 10, 62, 0
31, 169440, Control_c, 10, 11, 64
31, 172306, Program_c, 10, 48
31, 172332, Control_c, 10, 11, 65
31, 172338, Note_on_c, 10, 71, 75
31, 172348, Control_c, 10, 11, 66
31, 172364, Control_c, 10, 11, 67
31, 172380, Control_c, 10, 11, 68
31, 172396, Control_c, 10, 11, 69
31, 172413, Control_c, 10, 11, 70
31, 172429, Control_c, 10, 11, 71
31, 172445, Control_c, 10, 11, 72
31, 172462, Control_c, 10, 11, 73
31, 172478, Control_c, 10, 11, 74
31, 172494, Control_c, 10, 11, 75
31, 172510, Control_c, 10, 11, 76
31, 172527, Control_c, 10, 11, 77
31, 172543, Control_c, 10, 11, 78
31, 172559, Control_c, 10, 11, 79
31, 172575, Control_c, 10, 11, 80
31, 172592, Control_c, 10, 11, 81
31, 172608, Control_c, 10, 11, 82
31, 172624, Control_c, 10, 11, 83
31, 172641, Control_c, 10, 11, 84
31, 172657, Control_c, 10, 11, 85
31, 172673, Control_c, 10, 11, 86
31, 172689, Control_c, 10, 11, 87
31, 172705, Control_c, 10, 11, 88
31, 172722, Control_c, 10, 11, 89
31, 172738, Control_c, 10, 11, 90
31, 172754, Control_c, 10, 11, 91
31, 172770, Control_c, 10, 11, 92
31, 172787, Control_c, 10, 11, 93
31, 172803, Control_c, 10, 11, 94
31, 172819, Control_c, 10, 11, 95
31, 172836, Control_c, 10, 11, 96
31, 172852, Control_c, 10, 11, 97
31, 172868, Control_c, 10, 11, 98
31, 172884, Control_c, 10, 11, 99
31, 172901, Control_c, 10, 11, 100
31, 172917, Control_c, 10, 11, 101
31, 172933, Control_c, 10, 11, 102
31, 172950, Control_c, 10, 11, 103
31, 172965, Control_c, 10, 11, 104
31, 172982, Control_c, 10, 11, 105
31, 172998, Control_c, 10, 11, 106
31, 173014, Control_c, 10, 11, 107
31, 173031, Control_c, 10, 11, 108
31, 173047, Control_c, 10, 11, 109
31, 173052, Note_on_c, 10, 69, 70
31, 173058, Note_on_c, 10, 71, 0
31, 173063, Control_c, 10, 11, 110
31, 173079, Control_c, 10, 11, 111
31, 173096, Control_c, 10, 11, 112
31, 173112, Control_c, 10, 11, 113
31, 173128, Control_c, 10, 11, 114
31, 173145, Control_c, 10, 11, 115
31, 173160, Control_c, 10, 11, 116
31, 173177, Control_c, 10, 11, 117
31, 173193, Control_c, 10, 11, 118
31, 173210, Control_c, 10, 11, 119
31, 173226, Control_c, 10, 11, 120
31, 173242, Control_c, 10, 11, 121
31, 173258, Control_c, 10, 11, 122
31, 173274, Control_c, 10, 11, 123
31, 173291, Control_c, 10, 11, 124
31, 173292, Note_on_c, 10, 69, 0
31, 173307, Note_on_c, 10, 71, 69
31, 173307, Control_c, 10, 11, 125
31, 173323, Control_c, 10, 11, 126
31, 173786, Note_on_c, 10, 68, 73
31, 173787, Note_on_c, 10, 71, 0
31, 174026, Note_on_c, 10, 68, 0
31, 174027, Note_on_c, 10, 66, 65
31, 174255, Note_on_c, 10, 69, 74
31, 174267, Note_on_c, 10, 66, 0
31, 174735, Note_on_c, 10, 69, 0
31, 174747, Note_on_c, 10, 66, 78
31, 175131, Note_on_c, 10, 66, 0
31, 175211, Note_on_c, 10, 71, 84
31, 175924, Note_on_c, 10, 69, 72
31, 175931, Note_on_c, 10, 71, 0
31, 176164, Note_on_c, 10, 69, 0
31, 176186, Note_on_c, 10, 71, 80
31, 176644, Note_on_c, 10, 68, 75
31, 176666, Note_on_c, 10, 71, 0
31, 176884, Note_on_c, 10, 68, 0
31, 176885, Note_on_c, 10, 66, 69
31, 177125, Note_on_c, 10, 66, 0
31, 177148, Note_on_c, 10, 69, 77
31, 177604, Note_on_c, 10, 66, 76
31, 177628, Note_on_c, 10, 69, 0
31, 177892, Note_on_c, 10, 66, 0
31, 192480, Program_c, 10, 44
31, 192483, Note_on_c, 10, 79, 47
31, 192495, Note_on_c, 10, 90, 30
31, 192963, Note_on_c, 10, 79, 0
31, 192975, Note_on_c, 10, 90, 0
31, 194414, Note_on_c, 10, 90, 30
31, 194418, Note_on_c, 10, 79, 30
31, 194894, Note_on_c, 10, 90, 0
31, 194898, Note_on_c, 10, 79, 0
31, 196333, Note_on_c, 10, 79, 37
31, 196336, Note_on_c, 10, 90, 46
31, 196813, Note_on_c, 10, 79, 0
31, 196816, Note_on_c, 10, 90, 0
31, 198246, Note_on_c, 10, 79, 42
31, 198258, Note_on_c, 10, 90, 36
31, 198726, Note_on_c, 10, 79, 0
31, 198738, Note_on_c, 10, 90, 0
31, 199693, Note_on_c, 10, 79, 38
31, 199708, Note_on_c, 10, 90, 47
31, 200173, Note_on_c, 10, 79, 0
31, 200188, Note_on_c, 10, 90, 0
31, 208396, Program_c, 13, 48
31, 210243, Note_on_c, 13, 55, 91
31, 210249, Note_on_c, 13, 73, 110
31, 210252, Note_on_c, 13, 66, 110
31, 210363, Note_on_c, 13, 55, 0
31, 210369, Note_on_c, 13, 73, 0
31, 210372, Note_on_c, 13, 66, 0
31, 210722, Note_on_c, 13, 53, 91
31, 210748, Note_on_c, 13, 62, 105
31, 210962, Note_on_c, 13, 53, 0
31, 210988, Note_on_c, 13, 62, 0
31, 211204, Note_on_c, 13, 53, 94
31, 211219, Note_on_c, 13, 62, 95
31, 211444, Note_on_c, 13, 53, 0
31, 211459, Note_on_c, 13, 62, 0
31, 211687, Note_on_c, 13, 53, 99
31, 211690, Note_on_c, 13, 62, 104
31, 211927, Note_on_c, 13, 53, 0
31, 211930, Note_on_c, 13, 62, 0
31, 212165, Note_on_c, 13, 62, 111
31, 212173, Note_on_c, 13, 53, 99
31, 212405, Note_on_c, 13, 62, 0
31, 212413, Note_on_c, 13, 53, 0
31, 212643, Note_on_c, 13, 53, 92
31, 212643, Note_on_c, 13, 62, 98
31, 212883, Note_on_c, 13, 53, 0
31, 212883, Note_on_c, 13, 62, 0
31, 213126, Note_on_c, 13, 62, 96
31, 213129, Note_on_c, 13, 53, 105
31, 213366, Note_on_c, 13, 62, 0
31, 213369, Note_on_c, 13, 53, 0
31, 213600, Note_on_c, 13, 62, 109
31, 213619, Note_on_c, 13, 53, 93
31, 213840, Note_on_c, 13, 62, 0
31, 213859, Note_on_c, 13, 53, 0
31, 214082, Note_on_c, 13, 62, 97
31, 214092, Note_on_c, 13, 53, 111
31, 214322, Note_on_c, 13, 62, 0
31, 214332, Note_on_c, 13, 53, 0
31, 214576, Note_on_c, 13, 62, 106
31, 214586, Note_on_c, 13, 53, 96
31, 214816, Note_on_c, 13, 62, 0
31, 214826, Note_on_c, 13, 53, 0
31, 215064, Note_on_c, 13, 62, 95
31, 215064, Note_on_c, 13, 53, 96
31, 215304, Note_on_c, 13, 62, 0
31, 215304, Note_on_c, 13, 53, 0
31, 215529, Note_on_c, 13, 62, 108
31, 215548, Note_on_c, 13, 53, 106
31, 215769, Note_on_c, 13, 62, 0
31, 215788, Note_on_c, 13, 53, 0
31, 216246, Note_on_c, 13, 61, 113
31, 216259, Note_on_c, 13, 68, 119
31, 216486, Note_on_c, 13, 61, 0
31, 216499, Note_on_c, 13, 68, 0
31, 216720, Program_c, 13, 45
31, 216722, Note_on_c, 13, 55, 93
31, 216736, Note_on_c, 13, 73, 99
31, 216741, Note_on_c, 13, 66, 107
31, 216962, Note_on_c, 13, 55, 0
31, 216976, Note_on_c, 13, 73, 0
31, 216981, Note_on_c, 13, 66, 0
31, 217440, Program_c, 13, 48
31, 217461, Note_on_c, 13, 61, 117
31, 217468, Note_on_c, 13, 68, 105
31, 217701, Note_on_c, 13, 61, 0
31, 217708, Note_on_c, 13, 68, 0
31, 217920, Program_c, 13, 45
31, 217937, Note_on_c, 13, 55, 97
31, 217941, Note_on_c, 13, 66, 111
31, 217946, Note_on_c, 13, 73, 106
31, 218177, Note_on_c, 13, 55, 0
31, 218181, Note_on_c, 13, 66, 0
31, 218186, Note_on_c, 13, 73, 0
31, 218400, Program_c, 13, 48
31, 218653, Note_on_c, 13, 61, 82
31, 218654, Note_on_c, 13, 68, 80
31, 218893, Note_on_c, 13, 61, 0
31, 218894, Note_on_c, 13, 68, 0
31, 219130, Note_on_c, 13, 68, 80
31, 219131, Note_on_c, 13, 61, 96
31, 219370, Note_on_c, 13, 68, 0
31, 219371, Note_on_c, 13, 61, 0
31, 219604, Note_on_c, 13, 61, 85
31, 219618, Note_on_c, 13, 68, 89
31, 219844, Note_on_c, 13, 61, 0
31, 219858, Note_on_c, 13, 68, 0
31, 220094, Note_on_c, 13, 68, 86
31, 220101, Note_on_c, 13, 61, 90
31, 220334, Note_on_c, 13, 68, 0
31, 220341, Note_on_c, 13, 61, 0
31, 220800, Program_c, 13, 48
31, 220811, Note_on_c, 13, 68, 110
31, 220815, Note_on_c, 13, 61, 108
31, 221051, Note_on_c, 13, 68, 0
31, 221055, Note_on_c, 13, 61, 0
31, 221280, Program_c, 13, 45
31, 221281, Note_on_c, 13, 73, 105
31, 221296, Note_on_c, 13, 66, 104
31, 221306, Note_on_c, 13, 55, 96
31, 221521, Note_on_c, 13, 73, 0
31, 221536, Note_on_c, 13, 66, 0
31, 221546, Note_on_c, 13, 55, 0
31, 222000, Program_c, 13, 48
31, 222006, Note_on_c, 13, 61, 112
31, 222007, Note_on_c, 13, 68, 101
31, 222246, Note_on_c, 13, 61, 0
31, 222247, Note_on_c, 13, 68, 0
31, 222481, Note_on_c, 13, 68, 109
31, 222483, Note_on_c, 13, 61, 109
31, 222721, Note_on_c, 13, 68, 0
31, 222723, Note_on_c, 13, 61, 0
31, 222960, Program_c, 13, 45
31, 222976, Note_on_c, 13, 73, 93
31, 222979, Note_on_c, 13, 55, 95
31, 222982, Note_on_c, 13, 66, 100
31, 223216, Note_on_c, 13, 73, 0
31, 223219, Note_on_c, 13, 55, 0
31, 223222, Note_on_c, 13, 66, 0
31, 223680, Program_c, 13, 48
31, 223685, Note_on_c, 13, 68, 105
31, 223697, Note_on_c, 13, 61, 111
31, 223925, Note_on_c, 13, 68, 0
31, 223937, Note_on_c, 13, 61, 0
31, 224160, Program_c, 13, 45
31, 224163, Note_on_c, 13, 55, 111
31, 224171, Note_on_c, 13, 66, 96
31, 224189, Note_on_c, 13, 73, 105
31, 224403, Note_on_c, 13, 55, 0
31, 224411, Note_on_c, 13, 66, 0
31, 224429, Note_on_c, 13, 73, 0
31, 224640, Program_c, 13, 48
31, 224640, Note_on_c, 13, 61, 84
31, 224700, Note_on_c, 13, 61, 0
31, 224714, Note_on_c, 13, 62, 90
31, 224767, Note_on_c, 13, 61, 101
31, 224774, Note_on_c, 13, 62, 0
31, 224827, Note_on_c, 13, 61, 0
31, 224839, Note_on_c, 13, 62, 95
31, 224899, Note_on_c, 13, 62, 0
31, 224907, Note_on_c, 13, 61, 113
31, 224954, Note_on_c, 13, 62, 103
31, 224967, Note_on_c, 13, 61, 0
31, 225014, Note_on_c, 13, 62, 0
31, 225018, Note_on_c, 13, 61, 122
31, 225064, Note_on_c, 13, 62, 113
31, 225078, Note_on_c, 13, 61, 0
31, 225124, Note_on_c, 13, 62, 0
31, 225125, Note_on_c, 13, 55, 93
31, 225131, Note_on_c, 13, 73, 94
31, 225147, Note_on_c, 13, 67, 89
31, 225178, Note_on_c, 13, 55, 0
31, 225184, Note_on_c, 13, 73, 0
31, 225200, Note_on_c, 13, 67, 0
31, 225379, Note_on_c, 13, 51, 84
31, 225486, Note_on_c, 13, 51, 0
31, 225627, Note_on_c, 13, 48, 78
31, 225734, Note_on_c, 13, 48, 0
31, 226080, Note_on_c, 13, 53, 98
31, 226187, Note_on_c, 13, 53, 0
31, 226326, Note_on_c, 13, 51, 82
31, 226433, Note_on_c, 13, 51, 0
31, 226566, Note_on_c, 13, 48, 82
31, 226673, Note_on_c, 13, 48, 0
31, 227063, Note_on_c, 13, 53, 96
31, 227170, Note_on_c, 13, 53, 0
31, 227284, Note_on_c, 13, 51, 94
31, 227391, Note_on_c, 13, 51, 0
31, 227522, Note_on_c, 13, 48, 78
31, 227629, Note_on_c, 13, 48, 0
31, 228026, Note_on_c, 13, 53, 82
31, 228133, Note_on_c, 13, 53, 0
31, 228246, Note_on_c, 13, 51, 89
31, 228353, Note_on_c, 13, 51, 0
31, 228489, Note_on_c, 13, 48, 78
31, 228596, Note_on_c, 13, 48, 0
31, 229442, Note_on_c, 13, 61, 88
31, 229502, Note_on_c, 13, 61, 0
31, 229502, Note_on_c, 13, 62, 86
31, 229562, Note_on_c, 13, 62, 0
31, 229565, Note_on_c, 13, 61, 104
31, 229625, Note_on_c, 13, 61, 0
31, 229636, Note_on_c, 13, 62, 111
31, 229692, Note_on_c, 13, 61, 99
31, 229696, Note_on_c, 13, 62, 0
31, 229751, Note_on_c, 13, 62, 102
31, 229752, Note_on_c, 13, 61, 0
31, 229811, Note_on_c, 13, 62, 0
31, 229822, Note_on_c, 13, 61, 125
31, 229869, Note_on_c, 13, 62, 125
31, 229882, Note_on_c, 13, 61, 0
31, 229929, Note_on_c, 13, 62, 0
31, 229934, Note_on_c, 13, 67, 85
31, 229935, Note_on_c, 13, 73, 93
31, 229938, Note_on_c, 13, 55, 83
31, 229987, Note_on_c, 13, 67, 0
31, 229988, Note_on_c, 13, 73, 0
31, 229991, Note_on_c, 13, 55, 0
31, 230174, Note_on_c, 13, 51, 96
31, 230281, Note_on_c, 13, 51, 0
31, 230428, Note_on_c, 13, 48, 91
31, 230535, Note_on_c, 13, 48, 0
31, 230896, Note_on_c, 13, 53, 91
31, 231003, Note_on_c, 13, 53, 0
31, 231127, Note_on_c, 13, 51, 81
31, 231234, Note_on_c, 13, 51, 0
31, 231366, Note_on_c, 13, 48, 93
31, 231473, Note_on_c, 13, 48, 0
31, 231859, Note_on_c, 13, 53, 81
31, 231966, Note_on_c, 13, 53, 0
31, 232092, Note_on_c, 13, 51, 92
31, 232199, Note_on_c, 13, 51, 0
31, 232344, Note_on_c, 13, 48, 97
31, 232451, Note_on_c, 13, 48, 0
31, 232801, Note_on_c, 13, 53, 96
31, 232908, Note_on_c, 13, 53, 0
31, 233051, Note_on_c, 13, 51, 78
31, 233158, Note_on_c, 13, 51, 0
31, 233520, Program_c, 13, 48
31, 233531, Note_on_c, 13, 61, 111
31, 233533, Note_on_c, 13, 68, 114
31, 233771, Note_on_c, 13, 61, 0
31, 233773, Note_on_c, 13, 68, 0
31, 234000, Program_c, 13, 45
31, 234010, Note_on_c, 13, 55, 108
31, 234022, Note_on_c, 13, 66, 103
31, 234026, Note_on_c, 13, 73, 98
31, 234250, Note_on_c, 13, 55, 0
31, 234262, Note_on_c, 13, 66, 0
31, 234266, Note_on_c, 13, 73, 0
31, 234480, Program_c, 13, 48
31, 234486, Note_on_c, 13, 61, 86
31, 234546, Note_on_c, 13, 61, 0
31, 234547, Note_on_c, 13, 62, 103
31, 234607, Note_on_c, 13, 62, 0
31, 234628, Note_on_c, 13, 61, 106
31, 234678, Note_on_c, 13, 62, 102
31, 234688, Note_on_c, 13, 61, 0
31, 234738, Note_on_c, 13, 62, 0
31, 234741, Note_on_c, 13, 61, 113
31, 234789, Note_on_c, 13, 62, 113
31, 234801, Note_on_c, 13, 61, 0
31, 234849, Note_on_c, 13, 62, 0
31, 234851, Note_on_c, 13, 61, 110
31, 234911, Note_on_c, 13, 61, 0
31, 234914, Note_on_c, 13, 62, 112
31, 234962, Note_on_c, 13, 73, 82
31, 234964, Note_on_c, 13, 67, 89
31, 234974, Note_on_c, 13, 62, 0
31, 234987, Note_on_c, 13, 55, 95
31, 235015, Note_on_c, 13, 73, 0
31, 235017, Note_on_c, 13, 67, 0
31, 235040, Note_on_c, 13, 55, 0
31, 235204, Note_on_c, 13, 51, 89
31, 235311, Note_on_c, 13, 51, 0
31, 235465, Note_on_c, 13, 48, 97
31, 235572, Note_on_c, 13, 48, 0
31, 235939, Note_on_c, 13, 53, 83
31, 236046, Note_on_c, 13, 53, 0
31, 236186, Note_on_c, 13, 51, 91
31, 236293, Note_on_c, 13, 51, 0
31, 236426, Note_on_c, 13, 48, 90
31, 236533, Note_on_c, 13, 48, 0
31, 236886, Note_on_c, 13, 53, 87
31, 236993, Note_on_c, 13, 53, 0
31, 237132, Note_on_c, 13, 51, 96
31, 237239, Note_on_c, 13, 51, 0
31, 237360, Note_on_c, 13, 48, 92
31, 237467, Note_on_c, 13, 48, 0
31, 237854, Note_on_c, 13, 53, 98
31, 237961, Note_on_c, 13, 53, 0
31, 238089, Note_on_c, 13, 51, 82
31, 238196, Note_on_c, 13, 51, 0
31, 238572, Note_on_c, 13, 72, 94
31, 238584, Note_on_c, 13, 63, 81
31, 238812, Note_on_c, 13, 72, 0
31, 238824, Note_on_c, 13, 63, 0
31, 239053, Note_on_c, 13, 70, 91
31, 239057, Note_on_c, 13, 62, 85
31, 239293, Note_on_c, 13, 70, 0
31, 239297, Note_on_c, 13, 62, 0
31, 239520, Note_on_c, 13, 60, 97
31, 239544, Note_on_c, 13, 68, 81
31, 239760, Note_on_c, 13, 60, 0
31, 239784, Note_on_c, 13, 68, 0
31, 240000, Program_c, 13, 48
31, 240000, Note_on_c, 13, 61, 107
31, 240017, Note_on_c, 13, 68, 120
31, 240240, Note_on_c, 13, 61, 0
31, 240257, Note_on_c, 13, 68, 0
31, 240480, Program_c, 13, 45
31, 240488, Note_on_c, 13, 55, 97
31, 240503, Note_on_c, 13, 66, 92
31, 240503, Note_on_c, 13, 73, 106
31, 240728, Note_on_c, 13, 55, 0
31, 240743, Note_on_c, 13, 66, 0
31, 240743, Note_on_c, 13, 73, 0
31, 241200, Program_c, 13, 48
31, 241220, Note_on_c, 13, 72, 85
31, 241222, Note_on_c, 13, 63, 79
31, 241460, Note_on_c, 13, 72, 0
31, 241462, Note_on_c, 13, 63, 0
31, 241681, Note_on_c, 13, 70, 87
31, 241706, Note_on_c, 13, 62, 94
31, 241921, Note_on_c, 13, 70, 0
31, 241946, Note_on_c, 13, 62, 0
31, 242167, Note_on_c, 13, 60, 78
31, 242167, Note_on_c, 13, 68, 97
31, 242407, Note_on_c, 13, 60, 0
31, 242407, Note_on_c, 13, 68, 0
31, 242651, Note_on_c, 13, 59, 94
31, 242653, Note_on_c, 13, 67, 86
31, 242891, Note_on_c, 13, 59, 0
31, 242893, Note_on_c, 13, 67, 0
31, 243360, Program_c, 13, 48
31, 243362, Note_on_c, 13, 61, 106
31, 243382, Note_on_c, 13, 68, 107
31, 243602, Note_on_c, 13, 61, 0
31, 243622, Note_on_c, 13, 68, 0
31, 243840, Program_c, 13, 45
31, 243843, Note_on_c, 13, 73, 97
31, 243853, Note_on_c, 13, 55, 95
31, 243855, Note_on_c, 13, 66, 94
31, 244083, Note_on_c, 13, 73, 0
31, 244093, Note_on_c, 13, 55, 0
31, 244095, Note_on_c, 13, 66, 0
31, 244560, Program_c, 13, 48
31, 244587, Note_on_c, 13, 68, 119
31, 244588, Note_on_c, 13, 61, 100
31, 244827, Note_on_c, 13, 68, 0
31, 244828, Note_on_c, 13, 61, 0
31, 245040, Program_c, 13, 45
31, 245049, Note_on_c, 13, 55, 106
31, 245050, Note_on_c, 13, 66, 103
31, 245053, Note_on_c, 13, 73, 100
31, 245289, Note_on_c, 13, 55, 0
31, 245290, Note_on_c, 13, 66, 0
31, 245293, Note_on_c, 13, 73, 0
31, 245760, Program_c, 13, 48
31, 245777, Note_on_c, 13, 61, 102
31, 245778, Note_on_c, 13, 68, 112
31, 246017, Note_on_c, 13, 61, 0
31, 246018, Note_on_c, 13, 68, 0
31, 246244, Note_on_c, 13, 68, 116
31, 246264, Note_on_c, 13, 61, 109
31, 246484, Note_on_c, 13, 68, 0
31, 246504, Note_on_c, 13, 61, 0
31, 246720, Program_c, 13, 45
31, 246733, Note_on_c, 13, 73, 102
31, 246743, Note_on_c, 13, 66, 99
31, 246749, Note_on_c, 13, 55, 111
31, 246973, Note_on_c, 13, 73, 0
31, 246983, Note_on_c, 13, 66, 0
31, 246989, Note_on_c, 13, 55, 0
31, 247440, Program_c, 13, 48
31, 247460, Note_on_c, 13, 68, 120
31, 247463, Note_on_c, 13, 61, 110
31, 247700, Note_on_c, 13, 68, 0
31, 247703, Note_on_c, 13, 61, 0
31, 247920, Program_c, 13, 45
31, 247923, Note_on_c, 13, 55, 95
31, 247928, Note_on_c, 13, 73, 100
31, 247941, Note_on_c, 13, 66, 91
31, 248163, Note_on_c, 13, 55, 0
31, 248168, Note_on_c, 13, 73, 0
31, 248181, Note_on_c, 13, 66, 0
31, 248617, Pitch_bend_c, 13, 4096
31, 248637, Pitch_bend_c, 13, 4256
31, 248640, Program_c, 13, 48
31, 248643, Note_on_c, 13, 77, 124
31, 248656, Pitch_bend_c, 13, 4416
31, 248676, Pitch_bend_c, 13, 4576
31, 248695, Pitch_bend_c, 13, 4736
31, 248715, Pitch_bend_c, 13, 4896
31, 248734, Pitch_bend_c, 13, 5056
31, 248754, Pitch_bend_c, 13, 5216
31, 248774, Pitch_bend_c, 13, 5376
31, 248793, Pitch_bend_c, 13, 5536
31, 248812, Pitch_bend_c, 13, 5696
31, 248832, Pitch_bend_c, 13, 5856
31, 248851, Pitch_bend_c, 13, 6016
31, 248871, Pitch_bend_c, 13, 6176
31, 248890, Pitch_bend_c, 13, 6336
31, 248910, Pitch_bend_c, 13, 6496
31, 248929, Pitch_bend_c, 13, 6656
31, 248949, Pitch_bend_c, 13, 6816
31, 248968, Pitch_bend_c, 13, 6976
31, 248988, Pitch_bend_c, 13, 7136
31, 249007, Pitch_bend_c, 13, 7296
31, 249027, Pitch_bend_c, 13, 7456
31, 249046, Pitch_bend_c, 13, 7616
31, 249066, Pitch_bend_c, 13, 7776
31, 249085, Pitch_bend_c, 13, 7936
31, 249105, Pitch_bend_c, 13, 8096
31, 249115, Pitch_bend_c, 13, 8192
31, 249186, Note_on_c, 13, 77, 0
31, 249303, Note_on_c, 13, 70, 122
31, 249399, Note_on_c, 13, 70, 0
31, 249452, Note_on_c, 13, 72, 123
31, 249515, Note_on_c, 13, 72, 0
31, 249777, Note_on_c, 13, 70, 117
31, 249873, Note_on_c, 13, 70, 0
31, 249934, Note_on_c, 13, 68, 109
31, 249997, Note_on_c, 13, 68, 0
31, 250240, Note_on_c, 13, 66, 116
31, 250336, Note_on_c, 13, 66, 0
31, 250421, Note_on_c, 13, 68, 119
31, 250484, Note_on_c, 13, 68, 0
31, 250777, Pitch_bend_c, 13, 4096
31, 250797, Pitch_bend_c, 13, 4256
31, 250816, Pitch_bend_c, 13, 4416
31, 250823, Note_on_c, 13, 77, 122
31, 250836, Pitch_bend_c, 13, 4576
31, 250855, Pitch_bend_c, 13, 4736
31, 250875, Pitch_bend_c, 13, 4896
31, 250894, Pitch_bend_c, 13, 5056
31, 250914, Pitch_bend_c, 13, 5216
31, 250934, Pitch_bend_c, 13, 5376
31, 250953, Pitch_bend_c, 13, 5536
31, 250972, Pitch_bend_c, 13, 5696
31, 250992, Pitch_bend_c, 13, 5856
31, 251011, Pitch_bend_c, 13, 6016
31, 251031, Pitch_bend_c, 13, 6176
31, 251050, Pitch_bend_c, 13, 6336
31, 251070, Pitch_bend_c, 13, 6496
31, 251089, Pitch_bend_c, 13, 6656
31, 251109, Pitch_bend_c, 13, 6816
31, 251128, Pitch_bend_c, 13, 6976
31, 251148, Pitch_bend_c, 13, 7136
31, 251167, Pitch_bend_c, 13, 7296
31, 251187, Pitch_bend_c, 13, 7456
31, 251206, Pitch_bend_c, 13, 7616
31, 251226, Pitch_bend_c, 13, 7776
31, 251245, Pitch_bend_c, 13, 7936
31, 251265, Pitch_bend_c, 13, 8096
31, 251366, Note_on_c, 13, 77, 0
31, 251443, Note_on_c, 13, 70, 109
31, 251539, Note_on_c, 13, 70, 0
31, 251621, Note_on_c, 13, 72, 122
31, 251684, Note_on_c, 13, 72, 0
31, 251946, Note_on_c, 13, 70, 117
31, 252042, Note_on_c, 13, 70, 0
31, 252085, Note_on_c, 13, 68, 106
31, 252148, Note_on_c, 13, 68, 0
31, 252416, Note_on_c, 13, 66, 124
31, 252512, Note_on_c, 13, 66, 0
31, 252576, Note_on_c, 13, 68, 114
31, 252639, Note_on_c, 13, 68, 0
31, 252900, Note_on_c, 13, 66, 109
31, 252996, Note_on_c, 13, 66, 0
31, 253051, Note_on_c, 13, 68, 122
31, 253114, Note_on_c, 13, 68, 0
31, 253417, Pitch_bend_c, 13, 4096
31, 253437, Pitch_bend_c, 13, 4256
31, 253444, Note_on_c, 13, 77, 123
31, 253456, Pitch_bend_c, 13, 4416
31, 253476, Pitch_bend_c, 13, 4576
31, 253495, Pitch_bend_c, 13, 4736
31, 253515, Pitch_bend_c, 13, 4896
31, 253534, Pitch_bend_c, 13, 5056
31, 253554, Pitch_bend_c, 13, 5216
31, 253574, Pitch_bend_c, 13, 5376
31, 253593, Pitch_bend_c, 13, 5536
31, 253612, Pitch_bend_c, 13, 5696
31, 253632, Pitch_bend_c, 13, 5856
31, 253651, Pitch_bend_c, 13, 6016
31, 253671, Pitch_bend_c, 13, 6176
31, 253690, Pitch_bend_c, 13, 6336
31, 253710, Pitch_bend_c, 13, 6496
31, 253729, Pitch_bend_c, 13, 6656
31, 253749, Pitch_bend_c, 13, 6816
31, 253768, Pitch_bend_c, 13, 6976
31, 253788, Pitch_bend_c, 13, 7136
31, 253807, Pitch_bend_c, 13, 7296
31, 253827, Pitch_bend_c, 13, 7456
31, 253846, Pitch_bend_c, 13, 7616
31, 253866, Pitch_bend_c, 13, 7776
31, 253885, Pitch_bend_c, 13, 7936
31, 253905, Pitch_bend_c, 13, 8096
31, 253915, Pitch_bend_c, 13, 8192
31, 253987, Note_on_c, 13, 77, 0
31, 254102, Note_on_c, 13, 70, 115
31, 254198, Note_on_c, 13, 70, 0
31, 254264, Note_on_c, 13, 72, 124
31, 254327, Note_on_c, 13, 72, 0
31, 254583, Note_on_c, 13, 70, 118
31, 254679, Note_on_c, 13, 70, 0
31, 254746, Note_on_c, 13, 68, 120
31, 254809, Note_on_c, 13, 68, 0
31, 255064, Note_on_c, 13, 66, 119
31, 255160, Note_on_c, 13, 66, 0
31, 255227, Note_on_c, 13, 68, 121
31, 255290, Note_on_c, 13, 68, 0
31, 255528, Note_on_c, 13, 70, 123
31, 255624, Note_on_c, 13, 70, 0
31, 255690, Note_on_c, 13, 72, 120
31, 255753, Note_on_c, 13, 72, 0
31, 255864, Note_on_c, 13, 70, 111
31, 255984, Note_on_c, 13, 70, 0
31, 255985, Note_on_c, 13, 68, 124
31, 256105, Note_on_c, 13, 68, 0
31, 256342, Note_on_c, 13, 66, 122
31, 256440, Note_on_c, 13, 68, 114
31, 256462, Note_on_c, 13, 66, 0
31, 256560, Note_on_c, 13, 68, 0
31, 256796, Program_c, 13, 45
31, 256824, Note_on_c, 13, 53, 77
31, 257286, Note_on_c, 13, 52, 79
31, 257304, Note_on_c, 13, 53, 0
31, 257766, Note_on_c, 13, 52, 0
31, 257770, Note_on_c, 13, 53, 84
31, 258250, Note_on_c, 13, 53, 0
31, 258268, Note_on_c, 13, 52, 76
31, 258721, Note_on_c, 13, 53, 75
31, 258748, Note_on_c, 13, 52, 0
31, 259186, Program_c, 13, 48
31, 259195, Pitch_bend_c, 13, 8192
31, 259201, Note_on_c, 13, 53, 0
31, 259364, Note_on_c, 13, 70, 109
31, 259460, Note_on_c, 13, 70, 0
31, 259544, Note_on_c, 13, 72, 101
31, 259607, Note_on_c, 13, 72, 0
31, 259848, Note_on_c, 13, 70, 94
31, 259944, Note_on_c, 13, 70, 0
31, 260019, Note_on_c, 13, 68, 96
31, 260082, Note_on_c, 13, 68, 0
31, 260320, Note_on_c, 13, 66, 97
31, 260416, Note_on_c, 13, 66, 0
31, 260483, Note_on_c, 13, 68, 100
31, 260546, Note_on_c, 13, 68, 0
31, 260664, Note_on_c, 13, 77, 95
31, 260727, Note_on_c, 13, 77, 0
31, 260807, Note_on_c, 13, 70, 98
31, 260903, Note_on_c, 13, 70, 0
31, 260980, Note_on_c, 13, 72, 98
31, 261043, Note_on_c, 13, 72, 0
31, 261288, Note_on_c, 13, 70, 91
31, 261384, Note_on_c, 13, 70, 0
31, 261446, Note_on_c, 13, 68, 94
31, 261509, Note_on_c, 13, 68, 0
31, 261603, Note_on_c, 13, 66, 105
31, 261723, Note_on_c, 13, 66, 0
31, 261740, Note_on_c, 13, 68, 91
31, 261860, Note_on_c, 13, 68, 0
31, 262243, Note_on_c, 13, 70, 97
31, 262339, Note_on_c, 13, 70, 0
31, 262412, Note_on_c, 13, 72, 96
31, 262475, Note_on_c, 13, 72, 0
31, 262567, Note_on_c, 13, 70, 102
31, 262687, Note_on_c, 13, 70, 0
31, 262703, Note_on_c, 13, 68, 104
31, 262823, Note_on_c, 13, 68, 0
31, 263059, Note_on_c, 13, 66, 105
31, 263179, Note_on_c, 13, 66, 0
31, 263186, Note_on_c, 13, 68, 111
31, 263306, Note_on_c, 13, 68, 0
31, 263506, Program_c, 13, 45
31, 263680, Note_on_c, 13, 50, 104
31, 263760, Note_on_c, 13, 50, 0
31, 263868, Note_on_c, 13, 52, 105
31, 263948, Note_on_c, 13, 52, 0
31, 264021, Note_on_c, 13, 54, 98
31, 264101, Note_on_c, 13, 54, 0
31, 264163, Note_on_c, 13, 55, 101
31, 264243, Note_on_c, 13, 55, 0
31, 264322, Note_on_c, 13, 57, 94
31, 264402, Note_on_c, 13, 57, 0
31, 264500, Note_on_c, 13, 65, 88
31, 264980, Note_on_c, 13, 65, 0
31, 264987, Note_on_c, 13, 52, 57
31, 265448, Note_on_c, 13, 65, 96
31, 265467, Note_on_c, 13, 52, 0
31, 265928, Note_on_c, 13, 65, 0
31, 265929, Note_on_c, 13, 52, 53
31, 266407, Note_on_c, 13, 65, 79
31, 266409, Note_on_c, 13, 52, 0
31, 266887, Note_on_c, 13, 65, 0
31, 266895, Note_on_c, 13, 52, 42
31, 267371, Note_on_c, 13, 65, 92
31, 267375, Note_on_c, 13, 52, 0
31, 267851, Note_on_c, 13, 65, 0
31, 267867, Note_on_c, 13, 52, 56
31, 268331, Note_on_c, 13, 65, 80
31, 268347, Note_on_c, 13, 52, 0
31, 268802, Note_on_c, 13, 52, 39
31, 268811, Note_on_c, 13, 65, 0
31, 269282, Note_on_c, 13, 52, 0
31, 269296, Note_on_c, 13, 65, 85
31, 269776, Note_on_c, 13, 65, 0
31, 269789, Note_on_c, 13, 52, 53
31, 270262, Note_on_c, 13, 65, 91
31, 270269, Note_on_c, 13, 52, 0
31, 270722, Note_on_c, 13, 52, 41
31, 270742, Note_on_c, 13, 65, 0
31, 271202, Note_on_c, 13, 52, 0
31, 271217, Note_on_c, 13, 65, 84
31, 271689, Note_on_c, 13, 52, 44
31, 271697, Note_on_c, 13, 65, 0
31, 272169, Note_on_c, 13, 52, 0
31, 272172, Note_on_c, 13, 65, 94
31, 272652, Note_on_c, 13, 65, 0
31, 272661, Note_on_c, 13, 52, 56
31, 273128, Note_on_c, 13, 65, 92
31, 273141, Note_on_c, 13, 52, 0
31, 273608, Note_on_c, 13, 65, 0
31, 273614, Note_on_c, 13, 52, 41
31, 274094, Note_on_c, 13, 52, 0
31, 274097, Note_on_c, 13, 65, 78
31, 274577, Note_on_c, 13, 65, 0
31, 274580, Note_on_c, 13, 52, 45
31, 275051, Note_on_c, 13, 65, 92
31, 275060, Note_on_c, 13, 52, 0
31, 275531, Note_on_c, 13, 65, 0
31, 275544, Note_on_c, 13, 52, 50
31, 276024, Note_on_c, 13, 52, 0
31, 276024, Note_on_c, 13, 65, 84
31, 276486, Note_on_c, 13, 52, 48
31, 276504, Note_on_c, 13, 65, 0
31, 276966, Note_on_c, 13, 52, 0
31, 276982, Note_on_c, 13, 65, 86
31, 277456, Note_on_c, 13, 52, 51
31, 277462, Note_on_c, 13, 65, 0
31, 277936, Note_on_c, 13, 52, 0
31, 277942, Note_on_c, 13, 65, 92
31, 278404, Note_on_c, 13, 52, 45
31, 278422, Note_on_c, 13, 65, 0
31, 278884, Note_on_c, 13, 52, 0
31, 278899, Note_on_c, 13, 65, 97
31, 279369, Note_on_c, 13, 52, 58
31, 279379, Note_on_c, 13, 65, 0
31, 279849, Note_on_c, 13, 52, 0
31, 279853, Note_on_c, 13, 65, 98
31, 280333, Note_on_c, 13, 65, 0
31, 280333, Note_on_c, 13, 52, 43
31, 280803, Note_on_c, 13, 65, 81
31, 280813, Note_on_c, 13, 52, 0
31, 281283, Note_on_c, 13, 65, 0
31, 281304, Note_on_c, 13, 52, 58
31, 281784, Note_on_c, 13, 52, 0
31, 281785, Note_on_c, 13, 65, 90
31, 282261, Note_on_c, 13, 52, 43
31, 282265, Note_on_c, 13, 65, 0
31, 282721, Note_on_c, 13, 65, 86
31, 282741, Note_on_c, 13, 52, 0
31, 283201, Note_on_c, 13, 65, 0
31, 283208, Note_on_c, 13, 52, 41
31, 283688, Note_on_c, 13, 52, 0
31, 283700, Note_on_c, 13, 65, 95
31, 284171, Note_on_c, 13, 52, 52
31, 284180, Note_on_c, 13, 65, 0
31, 284651, Note_on_c, 13, 52, 0
31, 284668, Note_on_c, 13, 65, 93
31, 285123, Note_on_c, 13, 52, 55
31, 285148, Note_on_c, 13, 65, 0
31, 285603, Note_on_c, 13, 52, 0
31, 285627, Note_on_c, 13, 65, 91
31, 286098, Note_on_c, 13, 52, 39
31, 286107, Note_on_c, 13, 65, 0
31, 286570, Note_on_c, 13, 65, 89
31, 286578, Note_on_c, 13, 52, 0
31, 287046, Note_on_c, 13, 52, 59
31, 287050, Note_on_c, 13, 65, 0
31, 287526, Note_on_c, 13, 52, 0
31, 287527, Note_on_c, 13, 65, 85
31, 288007, Note_on_c, 13, 65, 0
31, 288240, Program_c, 13, 48
31, 288253, Note_on_c, 13, 52, 109
31, 288481, Note_on_c, 13, 63, 95
31, 288493, Note_on_c, 13, 52, 0
31, 288721, Note_on_c, 13, 63, 0
31, 288727, Note_on_c, 13, 74, 96
31, 288967, Note_on_c, 13, 74, 0
31, 288976, Note_on_c, 13, 63, 94
31, 289216, Note_on_c, 13, 63, 0
31, 289227, Note_on_c, 13, 52, 101
31, 289467, Note_on_c, 13, 52, 0
31, 289681, Note_on_c, 13, 73, 99
31, 289693, Note_on_c, 13, 61, 97
31, 289741, Note_on_c, 13, 73, 0
31, 289743, Note_on_c, 13, 74, 99
31, 289753, Note_on_c, 13, 61, 0
31, 289759, Note_on_c, 13, 62, 92
31, 289803, Note_on_c, 13, 74, 0
31, 289808, Note_on_c, 13, 73, 100
31, 289819, Note_on_c, 13, 62, 0
31, 289825, Note_on_c, 13, 61, 109
31, 289867, Note_on_c, 13, 62, 102
31, 289868, Note_on_c, 13, 73, 0
31, 289884, Note_on_c, 13, 74, 105
31, 289885, Note_on_c, 13, 61, 0
31, 289927, Note_on_c, 13, 62, 0
31, 289927, Note_on_c, 13, 73, 110
31, 289944, Note_on_c, 13, 74, 0
31, 289948, Note_on_c, 13, 61, 94
31, 289987, Note_on_c, 13, 73, 0
31, 289999, Note_on_c, 13, 62, 100
31, 290002, Note_on_c, 13, 74, 102
31, 290008, Note_on_c, 13, 61, 0
31, 290044, Note_on_c, 13, 73, 108
31, 290046, Note_on_c, 13, 61, 105
31, 290059, Note_on_c, 13, 62, 0
31, 290062, Note_on_c, 13, 74, 0
31, 290104, Note_on_c, 13, 73, 0
31, 290106, Note_on_c, 13, 61, 0
31, 290114, Note_on_c, 13, 62, 91
31, 290127, Note_on_c, 13, 74, 91
31, 290169, Note_on_c, 13, 72, 94
31, 290174, Note_on_c, 13, 62, 0
31, 290175, Note_on_c, 13, 61, 110
31, 290187, Note_on_c, 13, 74, 0
31, 290235, Note_on_c, 13, 61, 0
31, 290246, Note_on_c, 13, 73, 106
31, 290248, Note_on_c, 13, 62, 111
31, 290249, Note_on_c, 13, 72, 0
31, 290301, Note_on_c, 13, 61, 104
31, 290308, Note_on_c, 13, 62, 0
31, 290325, Note_on_c, 13, 73, 0
31, 290326, Note_on_c, 13, 74, 98
31, 290349, Note_on_c, 13, 62, 109
31, 290361, Note_on_c, 13, 61, 0
31, 290406, Note_on_c, 13, 74, 0
31, 290408, Note_on_c, 13, 75, 102
31, 290409, Note_on_c, 13, 62, 0
31, 290421, Note_on_c, 13, 61, 107
31, 290481, Note_on_c, 13, 61, 0
31, 290485, Note_on_c, 13, 62, 109
31, 290488, Note_on_c, 13, 75, 0
31, 290504, Note_on_c, 13, 76, 107
31, 290537, Note_on_c, 13, 61, 105
31, 290545, Note_on_c, 13, 62, 0
31, 290570, Note_on_c, 13, 77, 96
31, 290583, Note_on_c, 13, 76, 0
31, 290591, Note_on_c, 13, 62, 102
31, 290597, Note_on_c, 13, 61, 0
31, 290647, Note_on_c, 13, 73, 101
31, 290648, Note_on_c, 13, 78, 96
31, 290650, Note_on_c, 13, 77, 0
31, 290651, Note_on_c, 13, 62, 0
31, 290767, Note_on_c, 13, 73, 0
31, 290768, Note_on_c, 13, 78, 0
31, 290880, Program_c, 13, 48
31, 290883, Note_on_c, 13, 68, 120
31, 290896, Note_on_c, 13, 61, 101
31, 291123, Note_on_c, 13, 68, 0
31, 291136, Note_on_c, 13, 61, 0
31, 291360, Program_c, 13, 45
31, 291363, Note_on_c, 13, 66, 110
31, 291376, Note_on_c, 13, 73, 104
31, 291385, Note_on_c, 13, 55, 98
31, 291603, Note_on_c, 13, 66, 0
31, 291616, Note_on_c, 13, 73, 0
31, 291625, Note_on_c, 13, 55, 0
31, 292080, Program_c, 13, 48
31, 292081, Note_on_c, 13, 61, 104
31, 292081, Note_on_c, 13, 68, 102
31, 292321, Note_on_c, 13, 61, 0
31, 292321, Note_on_c, 13, 68, 0
31, 292560, Program_c, 13, 45
31, 292566, Note_on_c, 13, 66, 99
31, 292567, Note_on_c, 13, 73, 101
31, 292584, Note_on_c, 13, 55, 100
31, 292806, Note_on_c, 13, 66, 0
31, 292807, Note_on_c, 13, 73, 0
31, 292824, Note_on_c, 13, 55, 0
31, 293040, Program_c, 13, 48
31, 293288, Note_on_c, 13, 61, 88
31, 293305, Note_on_c, 13, 68, 94
31, 293528, Note_on_c, 13, 61, 0
31, 293545, Note_on_c, 13, 68, 0
31, 293766, Note_on_c, 13, 61, 86
31, 293774, Note_on_c, 13, 68, 93
31, 294006, Note_on_c, 13, 61, 0
31, 294014, Note_on_c, 13, 68, 0
31, 294244, Note_on_c, 13, 68, 93
31, 294267, Note_on_c, 13, 61, 84
31, 294484, Note_on_c, 13, 68, 0
31, 294507, Note_on_c, 13, 61, 0
31, 294720, Note_on_c, 13, 61, 82
31, 294741, Note_on_c, 13, 68, 80
31, 294960, Note_on_c, 13, 61, 0
31, 294981, Note_on_c, 13, 68, 0
31, 295440, Program_c, 13, 48
31, 295446, Note_on_c, 13, 68, 120
31, 295463, Note_on_c, 13, 61, 119
31, 295686, Note_on_c, 13, 68, 0
31, 295703, Note_on_c, 13, 61, 0
31, 295920, Program_c, 13, 45
31, 295922, Note_on_c, 13, 73, 102
31, 295939, Note_on_c, 13, 55, 95
31, 295940, Note_on_c, 13, 66, 91
31, 296162, Note_on_c, 13, 73, 0
31, 296179, Note_on_c, 13, 55, 0
31, 296180, Note_on_c, 13, 66, 0
31, 296640, Program_c, 13, 48
31, 296645, Note_on_c, 13, 61, 101
31, 296651, Note_on_c, 13, 68, 116
31, 296885, Note_on_c, 13, 61, 0
31, 296891, Note_on_c, 13, 68, 0
31, 297136, Note_on_c, 13, 68, 108
31, 297145, Note_on_c, 13, 61, 119
31, 297376, Note_on_c, 13, 68, 0
31, 297385, Note_on_c, 13, 61, 0
31, 297600, Program_c, 13, 45
31, 297606, Note_on_c, 13, 55, 111
31, 297611, Note_on_c, 13, 73, 91
31, 297620, Note_on_c, 13, 66, 109
31, 297846, Note_on_c, 13, 55, 0
31, 297851, Note_on_c, 13, 73, 0
31, 297860, Note_on_c, 13, 66, 0
31, 298320, Program_c, 13, 48
31, 298335, Note_on_c, 13, 61, 118
31, 298348, Note_on_c, 13, 68, 115
31, 298575, Note_on_c, 13, 61, 0
31, 298588, Note_on_c, 13, 68, 0
31, 298800, Program_c, 13, 45
31, 298801, Note_on_c, 13, 73, 111
31, 298815, Note_on_c, 13, 55, 101
31, 298826, Note_on_c, 13, 66, 111
31, 299041, Note_on_c, 13, 73, 0
31, 299055, Note_on_c, 13, 55, 0
31, 299066, Note_on_c, 13, 66, 0
31, 299520, Program_c, 13, 48
31, 299543, Note_on_c, 13, 63, 107
31, 299546, Note_on_c, 13, 72, 97
31, 299783, Note_on_c, 13, 63, 0
31, 299786, Note_on_c, 13, 72, 0
31, 300005, Note_on_c, 13, 70, 94
31, 300023, Note_on_c, 13, 62, 101
31, 300245, Note_on_c, 13, 70, 0
31, 300263, Note_on_c, 13, 62, 0
31, 300497, Note_on_c, 13, 68, 110
31, 300509, Note_on_c, 13, 60, 110
31, 300737, Note_on_c, 13, 68, 0
31, 300749, Note_on_c, 13, 60, 0
31, 300960, Program_c, 13, 48
31, 300966, Note_on_c, 13, 68, 103
31, 300987, Note_on_c, 13, 61, 118
31, 301206, Note_on_c, 13, 68, 0
31, 301227, Note_on_c, 13, 61, 0
31, 301440, Program_c, 13, 45
31, 301442, Note_on_c, 13, 55, 97
31, 301453, Note_on_c, 13, 66, 102
31, 301455, Note_on_c, 13, 73, 91
31, 301682, Note_on_c, 13, 55, 0
31, 301693, Note_on_c, 13, 66, 0
31, 301695, Note_on_c, 13, 73, 0
31, 302160, Program_c, 13, 48
31, 302180, Note_on_c, 13, 72, 87
31, 302184, Note_on_c, 13, 63, 82
31, 302420, Note_on_c, 13, 72, 0
31, 302424, Note_on_c, 13, 63, 0
31, 302644, Note_on_c, 13, 70, 92
31, 302660, Note_on_c, 13, 62, 90
31, 302884, Note_on_c, 13, 70, 0
31, 302900, Note_on_c, 13, 62, 0
31, 303131, Note_on_c, 13, 68, 88
31, 303137, Note_on_c, 13, 60, 82
31, 303371, Note_on_c, 13, 68, 0
31, 303377, Note_on_c, 13, 60, 0
31, 303618, Note_on_c, 13, 67, 85
31, 303623, Note_on_c, 13, 59, 86
31, 303858, Note_on_c, 13, 67, 0
31, 303863, Note_on_c, 13, 59, 0
31, 304320, Program_c, 13, 48
31, 304326, Note_on_c, 13, 61, 110
31, 304341, Note_on_c, 13, 68, 110
31, 304566, Note_on_c, 13, 61, 0
31, 304581, Note_on_c, 13, 68, 0
31, 304800, Program_c, 13, 45
31, 304814, Note_on_c, 13, 73, 108
31, 304818, Note_on_c, 13, 55, 107
31, 304820, Note_on_c, 13, 66, 100
31, 305054, Note_on_c, 13, 73, 0
31, 305058, Note_on_c, 13, 55, 0
31, 305060, Note_on_c, 13, 66, 0
31, 305520, Program_c, 13, 48
31, 305530, Note_on_c, 13, 61, 110
31, 305548, Note_on_c, 13, 68, 119
31, 305770, Note_on_c, 13, 61, 0
31, 305788, Note_on_c, 13, 68, 0
31, 306000, Program_c, 13, 45
31, 306001, Note_on_c, 13, 55, 102
31, 306020, Note_on_c, 13, 66, 109
31, 306021, Note_on_c, 13, 73, 105
31, 306241, Note_on_c, 13, 55, 0
31, 306260, Note_on_c, 13, 66, 0
31, 306261, Note_on_c, 13, 73, 0
31, 306720, Program_c, 13, 48
31, 306724, Note_on_c, 13, 61, 112
31, 306724, Note_on_c, 13, 68, 100
31, 306964, Note_on_c, 13, 61, 0
31, 306964, Note_on_c, 13, 68, 0
31, 307203, Note_on_c, 13, 68, 104
31, 307218, Note_on_c, 13, 61, 104
31, 307443, Note_on_c, 13, 68, 0
31, 307458, Note_on_c, 13, 61, 0
31, 307680, Program_c, 13, 45
31, 307682, Note_on_c, 13, 73, 96
31, 307708, Note_on_c, 13, 55, 103
31, 307709, Note_on_c, 13, 66, 108
31, 307922, Note_on_c, 13, 73, 0
31, 307948, Note_on_c, 13, 55, 0
31, 307949, Note_on_c, 13, 66, 0
31, 308400, Program_c, 13, 48
31, 308413, Note_on_c, 13, 68, 115
31, 308427, Note_on_c, 13, 61, 115
31, 308653, Note_on_c, 13, 68, 0
31, 308667, Note_on_c, 13, 61, 0
31, 308880, Program_c, 13, 45
31, 308882, Note_on_c, 13, 73, 100
31, 308898, Note_on_c, 13, 55, 101
31, 308904, Note_on_c, 13, 66, 93
31, 309122, Note_on_c, 13, 73, 0
31, 309138, Note_on_c, 13, 55, 0
31, 309144, Note_on_c, 13, 66, 0
31, 322320, Program_c, 13, 48
31, 322331, Note_on_c, 13, 72, 103
31, 322335, Note_on_c, 13, 57, 94
31, 322338, Note_on_c, 13, 67, 96
31, 322811, Note_on_c, 13, 72, 0
31, 322815, Note_on_c, 13, 57, 0
31, 322818, Note_on_c, 13, 67, 0
31, 323287, Note_on_c, 13, 62, 94
31, 323300, Note_on_c, 13, 55, 97
31, 323301, Note_on_c, 13, 70, 97
31, 323767, Note_on_c, 13, 62, 0
31, 323780, Note_on_c, 13, 55, 0
31, 323781, Note_on_c, 13, 70, 0
31, 329535, Note_on_c, 13, 57, 42
31, 329727, Note_on_c, 13, 57, 0
31, 330009, Note_on_c, 13, 57, 42
31, 330201, Note_on_c, 13, 57, 0
31, 330507, Note_on_c, 13, 55, 47
31, 330699, Note_on_c, 13, 55, 0
31, 330966, Note_on_c, 13, 57, 39
31, 331158, Note_on_c, 13, 57, 0
31, 331459, Note_on_c, 13, 55, 36
31, 331651, Note_on_c, 13, 55, 0
31, 331925, Note_on_c, 13, 57, 37
31, 332117, Note_on_c, 13, 57, 0
31, 341520, Note_on_c, 13, 55, 106
31, 341526, Note_on_c, 13, 70, 103
31, 341527, Note_on_c, 13, 65, 93
31, 342000, Note_on_c, 13, 55, 0
31, 342006, Note_on_c, 13, 70, 0
31, 342007, Note_on_c, 13, 65, 0
31, 342485, Note_on_c, 13, 55, 92
31, 342496, Note_on_c, 13, 62, 102
31, 342503, Note_on_c, 13, 70, 95
31, 342965, Note_on_c, 13, 55, 0
31, 342976, Note_on_c, 13, 62, 0
31, 342983, Note_on_c, 13, 70, 0
31, 346330, Note_on_c, 13, 72, 109
31, 346332, Note_on_c, 13, 57, 109
31, 346348, Note_on_c, 13, 67, 104
31, 346810, Note_on_c, 13, 72, 0
31, 346812, Note_on_c, 13, 57, 0
31, 346828, Note_on_c, 13, 67, 0
31, 347293, Note_on_c, 13, 62, 95
31, 347296, Note_on_c, 13, 70, 109
31, 347309, Note_on_c, 13, 55, 98
31, 347773, Note_on_c, 13, 62, 0
31, 347776, Note_on_c, 13, 70, 0
31, 347789, Note_on_c, 13, 55, 0
31, 349691, Note_on_c, 13, 55, 103
31, 349698, Note_on_c, 13, 64, 101
31, 349705, Note_on_c, 13, 72, 96
31, 350171, Note_on_c, 13, 55, 0
31, 350178, Note_on_c, 13, 64, 0
31, 350185, Note_on_c, 13, 72, 0
31, 350641, Note_on_c, 13, 55, 107
31, 350655, Note_on_c, 13, 64, 107
31, 350667, Note_on_c, 13, 72, 94
31, 351121, Note_on_c, 13, 55, 0
31, 351135, Note_on_c, 13, 64, 0
31, 351147, Note_on_c, 13, 72, 0
31, 352568, Note_on_c, 13, 57, 47
31, 352760, Note_on_c, 13, 57, 0
31, 353061, Note_on_c, 13, 57, 47
31, 353253, Note_on_c, 13, 57, 0
31, 353532, Note_on_c, 13, 55, 38
31, 353724, Note_on_c, 13, 55, 0
31, 354003, Note_on_c, 13, 57, 36
31, 354195, Note_on_c, 13, 57, 0
31, 354486, Note_on_c, 13, 55, 35
31, 354678, Note_on_c, 13, 55, 0
31, 354966, Note_on_c, 13, 57, 41
31, 355158, Note_on_c, 13, 57, 0
31, 383283, Note_on_c, 13, 57, 93
31, 383285, Note_on_c, 13, 67, 101
31, 383303, Note_on_c, 13, 72, 104
31, 383763, Note_on_c, 13, 57, 0
31, 383765, Note_on_c, 13, 67, 0
31, 383783, Note_on_c, 13, 72, 0
31, 384254, Note_on_c, 13, 55, 98
31, 384263, Note_on_c, 13, 65, 94
31, 384265, Note_on_c, 13, 70, 105
31, 384734, Note_on_c, 13, 55, 0
31, 384743, Note_on_c, 13, 65, 0
31, 384745, Note_on_c, 13, 70, 0
31, 385209, Note_on_c, 13, 70, 106
31, 385211, Note_on_c, 13, 62, 97
31, 385213, Note_on_c, 13, 55, 99
31, 385689, Note_on_c, 13, 70, 0
31, 385691, Note_on_c, 13, 62, 0
31, 385693, Note_on_c, 13, 55, 0
31, 389520, Program_c, 13, 45
31, 389524, Note_on_c, 13, 54, 48
31, 389999, Note_on_c, 13, 54, 0
31, 390018, Note_on_c, 13, 54, 54
31, 390488, Note_on_c, 13, 54, 0
31, 390508, Note_on_c, 13, 54, 48
31, 390970, Note_on_c, 13, 54, 0
31, 390989, Note_on_c, 13, 54, 50
31, 391448, Note_on_c, 13, 54, 0
31, 391467, Note_on_c, 13, 54, 51
31, 391911, Note_on_c, 13, 54, 0
31, 391930, Note_on_c, 13, 54, 52
31, 392390, Note_on_c, 13, 54, 0
31, 392409, Note_on_c, 13, 54, 48
31, 392861, Note_on_c, 13, 54, 0
31, 392881, Note_on_c, 13, 54, 54
31, 393356, Note_on_c, 13, 54, 0
31, 393375, Note_on_c, 13, 54, 41
31, 393843, Note_on_c, 13, 54, 0
31, 393862, Note_on_c, 13, 54, 50
31, 394305, Note_on_c, 13, 54, 0
31, 394325, Note_on_c, 13, 54, 41
31, 394801, Note_on_c, 13, 54, 0
31, 394820, Note_on_c, 13, 54, 48
31, 395278, Note_on_c, 13, 54, 0
31, 395297, Note_on_c, 13, 54, 55
31, 395759, Note_on_c, 13, 54, 0
31, 395779, Note_on_c, 13, 54, 41
31, 396248, Note_on_c, 13, 54, 0
31, 396267, Note_on_c, 13, 54, 49
31, 396721, Note_on_c, 13, 54, 0
31, 396740, Note_on_c, 13, 54, 50
31, 397189, Note_on_c, 13, 54, 0
31, 397208, Note_on_c, 13, 54, 48
31, 397666, Note_on_c, 13, 54, 0
31, 397686, Note_on_c, 13, 54, 52
31, 398148, Note_on_c, 13, 54, 0
31, 398167, Note_on_c, 13, 54, 55
31, 398647, Note_on_c, 13, 54, 0
31, 398666, Note_on_c, 13, 54, 54
31, 399111, Note_on_c, 13, 54, 0
31, 399130, Note_on_c, 13, 54, 50
31, 399608, Note_on_c, 13, 54, 0
31, 399627, Note_on_c, 13, 54, 44
31, 400088, Note_on_c, 13, 54, 0
31, 400107, Note_on_c, 13, 54, 48
31, 400566, Note_on_c, 13, 54, 0
31, 400585, Note_on_c, 13, 54, 57
31, 401038, Note_on_c, 13, 54, 0
31, 401058, Note_on_c, 13, 54, 50
31, 401514, Note_on_c, 13, 54, 0
31, 401533, Note_on_c, 13, 54, 44
31, 402000, Note_on_c, 13, 54, 0
31, 402019, Note_on_c, 13, 54, 43
31, 402464, Note_on_c, 13, 54, 0
31, 402483, Note_on_c, 13, 54, 51
31, 402955, Note_on_c, 13, 54, 0
31, 402975, Note_on_c, 13, 54, 54
31, 403425, Note_on_c, 13, 54, 0
31, 403444, Note_on_c, 13, 54, 50
31, 403906, Note_on_c, 13, 54, 0
31, 403926, Note_on_c, 13, 54, 44
31, 404406, Note_on_c, 13, 54, 0
31, 404425, Note_on_c, 13, 54, 48
31, 404885, Note_on_c, 13, 54, 0
31, 404904, Note_on_c, 13, 54, 58
31, 405357, Note_on_c, 13, 54, 0
31, 405377, Note_on_c, 13, 54, 46
31, 405829, Note_on_c, 13, 54, 0
31, 405848, Note_on_c, 13, 54, 52
31, 406317, Note_on_c, 13, 54, 0
31, 406337, Note_on_c, 13, 54, 42
31, 406800, Note_on_c, 13, 54, 0
31, 406819, Note_on_c, 13, 54, 44
31, 407284, Note_on_c, 13, 54, 0
31, 407303, Note_on_c, 13, 54, 58
31, 407759, Note_on_c, 13, 54, 0
31, 407778, Note_on_c, 13, 54, 57
31, 408245, Note_on_c, 13, 54, 0
31, 408264, Note_on_c, 13, 54, 52
31, 408702, Note_on_c, 13, 54, 0
31, 408721, Note_on_c, 13, 54, 57
31, 409187, Note_on_c, 13, 54, 0
31, 409207, Note_on_c, 13, 54, 47
31, 409671, Note_on_c, 13, 54, 0
31, 409690, Note_on_c, 13, 54, 51
31, 410155, Note_on_c, 13, 54, 0
31, 410174, Note_on_c, 13, 54, 43
31, 410649, Note_on_c, 13, 54, 0
31, 410668, Note_on_c, 13, 54, 49
31, 411113, Note_on_c, 13, 54, 0
31, 411133, Note_on_c, 13, 54, 23
31, 411604, Note_on_c, 13, 54, 0
31, 411623, Note_on_c, 13, 54, 19
31, 412070, Note_on_c, 13, 54, 0
31, 412090, Note_on_c, 13, 54, 6
31, 412570, Note_on_c, 13, 54, 0
31, 414725, Note_on_c, 13, 58, 85
31, 414965, Note_on_c, 13, 58, 0
31, 415210, Note_on_c, 13, 58, 71
31, 415450, Note_on_c, 13, 58, 0
31, 415706, Note_on_c, 13, 58, 76
31, 415946, Note_on_c, 13, 58, 0
31, 416177, Note_on_c, 13, 58, 79
31, 416417, Note_on_c, 13, 58, 0
31, 416650, Note_on_c, 13, 58, 73
31, 416890, Note_on_c, 13, 58, 0
31, 417138, Note_on_c, 13, 58, 84
31, 417378, Note_on_c, 13, 58, 0
31, 417601, Note_on_c, 13, 58, 78
31, 417841, Note_on_c, 13, 58, 0
31, 418085, Note_on_c, 13, 58, 80
31, 418325, Note_on_c, 13, 58, 0
31, 418571, Note_on_c, 13, 58, 85
31, 418811, Note_on_c, 13, 58, 0
31, 419041, Note_on_c, 13, 58, 74
31, 419281, Note_on_c, 13, 58, 0
31, 419533, Note_on_c, 13, 58, 66
31, 419773, Note_on_c, 13, 58, 0
31, 420019, Note_on_c, 13, 58, 49
31, 420259, Note_on_c, 13, 58, 0
31, 420495, Note_on_c, 13, 58, 79
31, 420735, Note_on_c, 13, 58, 0
31, 420967, Note_on_c, 13, 58, 46
31, 421207, Note_on_c, 13, 58, 0
31, 421447, Note_on_c, 13, 58, 59
31, 421687, Note_on_c, 13, 58, 0
31, 421943, Note_on_c, 13, 58, 48
31, 422183, Note_on_c, 13, 58, 0
31, 422410, Note_on_c, 13, 58, 49
31, 422650, Note_on_c, 13, 58, 0
31, 422881, Note_on_c, 13, 58, 39
31, 423121, Note_on_c, 13, 58, 0
31, 423387, Note_on_c, 13, 58, 47
31, 423627, Note_on_c, 13, 58, 0
31, 423862, Note_on_c, 13, 58, 55
31, 424102, Note_on_c, 13, 58, 0
31, 424344, Note_on_c, 13, 58, 46
31, 424584, Note_on_c, 13, 58, 0
31, 424825, Note_on_c, 13, 58, 46
31, 425065, Note_on_c, 13, 58, 0
31, 425289, Note_on_c, 13, 58, 50
31, 425529, Note_on_c, 13, 58, 0
31, 425781, Note_on_c, 13, 58, 45
31, 426021, Note_on_c, 13, 58, 0
31, 426257, Note_on_c, 13, 58, 56
31, 426497, Note_on_c, 13, 58, 0
31, 426735, Note_on_c, 13, 58, 57
31, 426975, Note_on_c, 13, 58, 0
31, 427208, Note_on_c, 13, 58, 57
31, 427448, Note_on_c, 13, 58, 0
31, 427705, Note_on_c, 13, 58, 41
31, 427945, Note_on_c, 13, 58, 0
31, 428165, Note_on_c, 13, 58, 55
31, 428405, Note_on_c, 13, 58, 0
31, 428640, Note_on_c, 13, 58, 55
31, 428880, Note_on_c, 13, 58, 0
31, 428880, Program_c, 13, 44
31, 429370, Note_on_c, 13, 82, 40
31, 429850, Note_on_c, 13, 82, 0
31, 431287, Note_on_c, 13, 82, 49
31, 431767, Note_on_c, 13, 82, 0
31, 432244, Note_on_c, 13, 82, 43
31, 432724, Note_on_c, 13, 82, 0
31, 435132, Note_on_c, 13, 71, 41
31, 436089, Note_on_c, 13, 71, 0
31, 436108, Note_on_c, 13, 71, 56
31, 436334, Note_on_c, 13, 72, 48
31, 436348, Note_on_c, 13, 71, 0
31, 436561, Note_on_c, 13, 72, 0
31, 436580, Note_on_c, 13, 72, 49
31, 436802, Note_on_c, 13, 71, 43
31, 436820, Note_on_c, 13, 72, 0
31, 437030, Note_on_c, 13, 71, 0
31, 437049, Note_on_c, 13, 71, 50
31, 437289, Note_on_c, 13, 71, 0
31, 437295, Note_on_c, 13, 73, 49
31, 437523, Note_on_c, 13, 73, 0
31, 437542, Note_on_c, 13, 73, 41
31, 438022, Note_on_c, 13, 73, 0
31, 440882, Note_on_c, 13, 74, 92
31, 440921, Note_on_c, 13, 74, 0
31, 440947, Note_on_c, 13, 74, 99
31, 440954, Note_on_c, 13, 74, 0
31, 440974, Note_on_c, 13, 74, 95
31, 441005, Note_on_c, 13, 74, 0
31, 441024, Note_on_c, 13, 74, 104
31, 441030, Note_on_c, 13, 74, 0
31, 441050, Note_on_c, 13, 74, 119
31, 441088, Note_on_c, 13, 74, 0
31, 441107, Note_on_c, 13, 74, 127
31, 441120, Note_on_c, 13, 76, 116
31, 441147, Note_on_c, 13, 74, 0
31, 441159, Note_on_c, 13, 76, 0
31, 441187, Note_on_c, 13, 74, 115
31, 441189, Note_on_c, 13, 74, 0
31, 441209, Note_on_c, 13, 74, 112
31, 441248, Note_on_c, 13, 74, 0
31, 441267, Note_on_c, 13, 74, 95
31, 441284, Note_on_c, 13, 74, 0
31, 441303, Note_on_c, 13, 74, 100
31, 441319, Note_on_c, 13, 74, 0
31, 441338, Note_on_c, 13, 74, 88
31, 441360, Note_on_c, 13, 74, 0
31, 441379, Note_on_c, 13, 74, 89
31, 441388, Note_on_c, 13, 74, 0
31, 441408, Note_on_c, 13, 74, 89
31, 441423, Note_on_c, 13, 74, 0
31, 441442, Note_on_c, 13, 74, 110
31, 441469, Note_on_c, 13, 74, 0
31, 441488, Note_on_c, 13, 74, 115
31, 441507, Note_on_c, 13, 74, 0
31, 441527, Note_on_c, 13, 74, 121
31, 441552, Note_on_c, 13, 74, 0
31, 441571, Note_on_c, 13, 74, 125
31, 441611, Note_on_c, 13, 74, 0
31, 441611, Note_on_c, 13, 76, 116
31, 441641, Note_on_c, 13, 74, 108
31, 441650, Note_on_c, 13, 76, 0
31, 441677, Note_on_c, 13, 74, 0
31, 441697, Note_on_c, 13, 74, 108
31, 441715, Note_on_c, 13, 74, 0
31, 441734, Note_on_c, 13, 74, 101
31, 441758, Note_on_c, 13, 74, 0
31, 441777, Note_on_c, 13, 74, 96
31, 441788, Note_on_c, 13, 74, 0
31, 441807, Note_on_c, 13, 74, 98
31, 441843, Note_on_c, 13, 76, 88
31, 441847, Note_on_c, 13, 74, 0
31, 441863, Note_on_c, 13, 76, 0
31, 441882, Note_on_c, 13, 76, 86
31, 441915, Note_on_c, 13, 76, 0
31, 441934, Note_on_c, 13, 76, 109
31, 441950, Note_on_c, 13, 76, 0
31, 441969, Note_on_c, 13, 76, 110
31, 441999, Note_on_c, 13, 76, 0
31, 442018, Note_on_c, 13, 76, 104
31, 442040, Note_on_c, 13, 76, 0
31, 442059, Note_on_c, 13, 76, 120
31, 442082, Note_on_c, 13, 77, 111
31, 442099, Note_on_c, 13, 76, 0
31, 442121, Note_on_c, 13, 77, 0
31, 442129, Note_on_c, 13, 76, 123
31, 442146, Note_on_c, 13, 76, 0
31, 442165, Note_on_c, 13, 76, 99
31, 442187, Note_on_c, 13, 76, 0
31, 442206, Note_on_c, 13, 76, 95
31, 442229, Note_on_c, 13, 76, 0
31, 442249, Note_on_c, 13, 76, 104
31, 442283, Note_on_c, 13, 76, 0
31, 442302, Note_on_c, 13, 76, 97
31, 442315, Note_on_c, 13, 76, 0
31, 442334, Note_on_c, 13, 76, 89
31, 442350, Note_on_c, 13, 76, 0
31, 442369, Note_on_c, 13, 76, 89
31, 442394, Note_on_c, 13, 76, 0
31, 442413, Note_on_c, 13, 76, 102
31, 442428, Note_on_c, 13, 76, 0
31, 442447, Note_on_c, 13, 76, 117
31, 442486, Note_on_c, 13, 76, 0
31, 442506, Note_on_c, 13, 76, 108
31, 442512, Note_on_c, 13, 76, 0
31, 442532, Note_on_c, 13, 76, 125
31, 442561, Note_on_c, 13, 77, 121
31, 442572, Note_on_c, 13, 76, 0
31, 442600, Note_on_c, 13, 77, 0
31, 442604, Note_on_c, 13, 76, 119
31, 442644, Note_on_c, 13, 76, 0
31, 442664, Note_on_c, 13, 76, 98
31, 442673, Note_on_c, 13, 76, 0
31, 442692, Note_on_c, 13, 76, 104
31, 442723, Note_on_c, 13, 76, 0
31, 442742, Note_on_c, 13, 76, 88
31, 442743, Note_on_c, 13, 76, 0
31, 442760, Note_on_c, 13, 76, 92
31, 442800, Note_on_c, 13, 76, 0
31, 442826, Note_on_c, 13, 77, 84
31, 442838, Note_on_c, 13, 77, 0
31, 442858, Note_on_c, 13, 77, 100
31, 442864, Note_on_c, 13, 77, 0
31, 442883, Note_on_c, 13, 77, 96
31, 442922, Note_on_c, 13, 77, 0
31, 442941, Note_on_c, 13, 77, 117
31, 442966, Note_on_c, 13, 77, 0
31, 442985, Note_on_c, 13, 77, 113
31, 443007, Note_on_c, 13, 77, 0
31, 443027, Note_on_c, 13, 77, 122
31, 443059, Note_on_c, 13, 79, 124
31, 443067, Note_on_c, 13, 77, 0
31, 443091, Note_on_c, 13, 77, 107
31, 443098, Note_on_c, 13, 79, 0
31, 443114, Note_on_c, 13, 77, 0
31, 443133, Note_on_c, 13, 77, 116
31, 443168, Note_on_c, 13, 77, 0
31, 443188, Note_on_c, 13, 77, 96
31, 443189, Note_on_c, 13, 77, 0
31, 443200, Note_on_c, 13, 77, 94
31, 443235, Note_on_c, 13, 77, 0
31, 443254, Note_on_c, 13, 77, 95
31, 443288, Note_on_c, 13, 77, 0
31, 443307, Note_on_c, 13, 77, 85
31, 443325, Note_on_c, 13, 77, 0
31, 443344, Note_on_c, 13, 77, 101
31, 443352, Note_on_c, 13, 77, 0
31, 443371, Note_on_c, 13, 77, 103
31, 443390, Note_on_c, 13, 77, 0
31, 443409, Note_on_c, 13, 77, 113
31, 443440, Note_on_c, 13, 77, 0
31, 443459, Note_on_c, 13, 77, 114
31, 443472, Note_on_c, 13, 77, 0
31, 443491, Note_on_c, 13, 77, 127
31, 443531, Note_on_c, 13, 77, 0
31, 443536, Note_on_c, 13, 79, 119
31, 443563, Note_on_c, 13, 77, 112
31, 443575, Note_on_c, 13, 79, 0
31, 443603, Note_on_c, 13, 77, 0
31, 443622, Note_on_c, 13, 77, 109
31, 443637, Note_on_c, 13, 77, 0
31, 443656, Note_on_c, 13, 77, 107
31, 443694, Note_on_c, 13, 79, 90
31, 443695, Note_on_c, 13, 77, 0
31, 443722, Note_on_c, 13, 81, 94
31, 443734, Note_on_c, 13, 79, 0
31, 443762, Note_on_c, 13, 81, 0
31, 443777, Note_on_c, 13, 82, 82
31, 443897, Note_on_c, 13, 82, 0
31, 446160, Program_c, 13, 45
31, 446651, Note_on_c, 13, 64, 93
31, 446891, Note_on_c, 13, 64, 0
31, 447369, Note_on_c, 13, 54, 113
31, 447609, Note_on_c, 13, 54, 0
31, 449040, Program_c, 13, 48
31, 449060, Note_on_c, 13, 54, 106
31, 449300, Note_on_c, 13, 54, 0
31, 449304, Note_on_c, 13, 68, 109
31, 449484, Note_on_c, 13, 68, 0
31, 449532, Note_on_c, 13, 67, 107
31, 449631, Note_on_c, 13, 67, 0
31, 449686, Note_on_c, 13, 64, 115
31, 449786, Note_on_c, 13, 64, 0
31, 449855, Note_on_c, 13, 62, 117
31, 449955, Note_on_c, 13, 62, 0
31, 450240, Program_c, 13, 45
31, 450269, Note_on_c, 13, 54, 117
31, 450509, Note_on_c, 13, 54, 0
31, 452880, Program_c, 13, 48
31, 452907, Note_on_c, 13, 54, 104
31, 453126, Note_on_c, 13, 68, 102
31, 453147, Note_on_c, 13, 54, 0
31, 453306, Note_on_c, 13, 68, 0
31, 453372, Note_on_c, 13, 67, 101
31, 453471, Note_on_c, 13, 67, 0
31, 453547, Note_on_c, 13, 64, 113
31, 453647, Note_on_c, 13, 64, 0
31, 453685, Note_on_c, 13, 62, 118
31, 453785, Note_on_c, 13, 62, 0
31, 454812, Note_on_c, 13, 54, 106
31, 455052, Note_on_c, 13, 54, 0
31, 455065, Note_on_c, 13, 68, 116
31, 455245, Note_on_c, 13, 68, 0
31, 455293, Note_on_c, 13, 67, 102
31, 455392, Note_on_c, 13, 67, 0
31, 455452, Note_on_c, 13, 64, 108
31, 455552, Note_on_c, 13, 64, 0
31, 455616, Note_on_c, 13, 62, 111
31, 455716, Note_on_c, 13, 62, 0
31, 457680, Program_c, 13, 45
31, 457681, Note_on_c, 13, 50, 118
31, 457682, Note_on_c, 13, 70, 115
31, 457705, Note_on_c, 13, 59, 117
31, 457904, Note_on_c, 13, 50, 0
31, 457922, Note_on_c, 13, 70, 0
31, 457923, Note_on_c, 13, 50, 48
31, 457945, Note_on_c, 13, 59, 0
31, 458159, Note_on_c, 13, 50, 0
31, 458165, Note_on_c, 13, 70, 124
31, 458179, Note_on_c, 13, 50, 113
31, 458182, Note_on_c, 13, 59, 106
31, 458404, Note_on_c, 13, 50, 0
31, 458405, Note_on_c, 13, 70, 0
31, 458422, Note_on_c, 13, 59, 0
31, 458423, Note_on_c, 13, 50, 41
31, 458643, Note_on_c, 13, 50, 0
31, 458650, Note_on_c, 13, 70, 106
31, 458662, Note_on_c, 13, 50, 115
31, 458664, Note_on_c, 13, 59, 107
31, 458887, Note_on_c, 13, 50, 0
31, 458890, Note_on_c, 13, 70, 0
31, 458904, Note_on_c, 13, 59, 0
31, 458906, Note_on_c, 13, 50, 59
31, 459108, Note_on_c, 13, 50, 0
31, 459127, Note_on_c, 13, 50, 119
31, 459131, Note_on_c, 13, 70, 110
31, 459148, Note_on_c, 13, 59, 107
31, 459359, Note_on_c, 13, 50, 0
31, 459371, Note_on_c, 13, 70, 0
31, 459379, Note_on_c, 13, 50, 53
31, 459388, Note_on_c, 13, 59, 0
31, 459588, Note_on_c, 13, 50, 0
31, 459607, Note_on_c, 13, 50, 106
31, 459623, Note_on_c, 13, 70, 123
31, 459625, Note_on_c, 13, 59, 112
31, 459847, Note_on_c, 13, 50, 0
31, 459863, Note_on_c, 13, 70, 0
31, 459865, Note_on_c, 13, 59, 0
31, 459868, Note_on_c, 13, 50, 51
31, 460064, Note_on_c, 13, 50, 0
31, 460083, Note_on_c, 13, 50, 110
31, 460088, Note_on_c, 13, 59, 113
31, 460096, Note_on_c, 13, 70, 120
31, 460323, Note_on_c, 13, 50, 0
31, 460328, Note_on_c, 13, 59, 0
31, 460336, Note_on_c, 13, 70, 0
31, 460345, Note_on_c, 13, 50, 48
31, 460558, Note_on_c, 13, 50, 0
31, 460562, Note_on_c, 13, 70, 105
31, 460577, Note_on_c, 13, 50, 124
31, 460579, Note_on_c, 13, 59, 113
31, 460802, Note_on_c, 13, 70, 0
31, 460802, Note_on_c, 13, 50, 0
31, 460819, Note_on_c, 13, 59, 0
31, 460822, Note_on_c, 13, 50, 54
31, 461039, Note_on_c, 13, 50, 0
31, 461058, Note_on_c, 13, 50, 121
31, 461061, Note_on_c, 13, 59, 118
31, 461062, Note_on_c, 13, 70, 120
31, 461262, Note_on_c, 13, 50, 0
31, 461282, Note_on_c, 13, 50, 58
31, 461301, Note_on_c, 13, 59, 0
31, 461302, Note_on_c, 13, 70, 0
31, 461521, Note_on_c, 13, 70, 112
31, 461522, Note_on_c, 13, 50, 0
31, 461526, Note_on_c, 13, 59, 123
31, 461544, Note_on_c, 13, 50, 114
31, 461750, Note_on_c, 13, 50, 0
31, 461761, Note_on_c, 13, 70, 0
31, 461766, Note_on_c, 13, 59, 0
31, 461770, Note_on_c, 13, 50, 54
31, 462000, Note_on_c, 13, 59, 115
31, 462006, Note_on_c, 13, 70, 119
31, 462008, Note_on_c, 13, 50, 0
31, 462027, Note_on_c, 13, 50, 114
31, 462223, Note_on_c, 13, 50, 0
31, 462240, Note_on_c, 13, 59, 0
31, 462242, Note_on_c, 13, 50, 43
31, 462246, Note_on_c, 13, 70, 0
31, 462481, Note_on_c, 13, 59, 109
31, 462481, Note_on_c, 13, 70, 108
31, 462482, Note_on_c, 13, 50, 0
31, 462501, Note_on_c, 13, 50, 110
31, 462711, Note_on_c, 13, 50, 0
31, 462721, Note_on_c, 13, 59, 0
31, 462721, Note_on_c, 13, 70, 0
31, 462731, Note_on_c, 13, 50, 53
31, 462949, Note_on_c, 13, 50, 0
31, 462964, Note_on_c, 13, 70, 105
31, 462967, Note_on_c, 13, 59, 122
31, 462968, Note_on_c, 13, 50, 119
31, 463189, Note_on_c, 13, 50, 0
31, 463204, Note_on_c, 13, 70, 0
31, 463207, Note_on_c, 13, 59, 0
31, 463208, Note_on_c, 13, 50, 56
31, 463429, Note_on_c, 13, 50, 0
31, 463448, Note_on_c, 13, 50, 111
31, 463452, Note_on_c, 13, 59, 120
31, 463463, Note_on_c, 13, 70, 122
31, 463665, Note_on_c, 13, 50, 0
31, 463685, Note_on_c, 13, 50, 58
31, 463692, Note_on_c, 13, 59, 0
31, 463703, Note_on_c, 13, 70, 0
31, 463922, Note_on_c, 13, 70, 112
31, 463925, Note_on_c, 13, 50, 0
31, 463938, Note_on_c, 13, 59, 109
31, 463945, Note_on_c, 13, 50, 106
31, 464146, Note_on_c, 13, 50, 0
31, 464162, Note_on_c, 13, 70, 0
31, 464165, Note_on_c, 13, 50, 54
31, 464178, Note_on_c, 13, 59, 0
31, 464405, Note_on_c, 13, 50, 0
31, 464410, Note_on_c, 13, 59, 120
31, 464416, Note_on_c, 13, 70, 118
31, 464429, Note_on_c, 13, 50, 122
31, 464648, Note_on_c, 13, 50, 0
31, 464650, Note_on_c, 13, 59, 0
31, 464656, Note_on_c, 13, 70, 0
31, 464667, Note_on_c, 13, 50, 48
31, 464869, Note_on_c, 13, 50, 0
31, 464889, Note_on_c, 13, 50, 122
31, 464890, Note_on_c, 13, 70, 120
31, 464895, Note_on_c, 13, 59, 109
31, 465115, Note_on_c, 13, 50, 0
31, 465130, Note_on_c, 13, 70, 0
31, 465134, Note_on_c, 13, 50, 43
31, 465135, Note_on_c, 13, 59, 0
31, 465362, Note_on_c, 13, 70, 122
31, 465364, Note_on_c, 13, 50, 0
31, 465379, Note_on_c, 13, 59, 117
31, 465383, Note_on_c, 13, 50, 111
31, 465601, Note_on_c, 13, 50, 0
31, 465602, Note_on_c, 13, 70, 0
31, 465619, Note_on_c, 13, 59, 0
31, 465620, Note_on_c, 13, 50, 48
31, 465838, Note_on_c, 13, 50, 0
31, 465841, Note_on_c, 13, 70, 117
31, 465857, Note_on_c, 13, 50, 112
31, 465859, Note_on_c, 13, 59, 104
31, 466081, Note_on_c, 13, 70, 0
31, 466087, Note_on_c, 13, 50, 0
31, 466099, Note_on_c, 13, 59, 0
31, 466106, Note_on_c, 13, 50, 56
31, 466316, Note_on_c, 13, 50, 0
31, 466335, Note_on_c, 13, 50, 120
31, 466335, Note_on_c, 13, 59, 118
31, 466341, Note_on_c, 13, 70, 106
31, 466555, Note_on_c, 13, 50, 0
31, 466574, Note_on_c, 13, 50, 53
31, 466575, Note_on_c, 13, 59, 0
31, 466581, Note_on_c, 13, 70, 0
31, 466790, Note_on_c, 13, 50, 0
31, 466801, Note_on_c, 13, 70, 115
31, 466805, Note_on_c, 13, 59, 123
31, 466810, Note_on_c, 13, 50, 124
31, 467023, Note_on_c, 13, 50, 0
31, 467041, Note_on_c, 13, 70, 0
31, 467042, Note_on_c, 13, 50, 48
31, 467045, Note_on_c, 13, 59, 0
31, 467282, Note_on_c, 13, 50, 0
31, 467302, Note_on_c, 13, 54, 51
31, 467759, Note_on_c, 13, 54, 0
31, 467778, Note_on_c, 13, 54, 50
31, 468240, Note_on_c, 13, 54, 0
31, 468259, Note_on_c, 13, 54, 39
31, 468708, Note_on_c, 13, 54, 0
31, 468728, Note_on_c, 13, 54, 58
31, 469207, Note_on_c, 13, 54, 0
31, 469226, Note_on_c, 13, 54, 48
31, 469684, Note_on_c, 13, 54, 0
31, 469703, Note_on_c, 13, 54, 49
31, 470151, Note_on_c, 13, 54, 0
31, 470171, Note_on_c, 13, 54, 46
31, 470636, Note_on_c, 13, 54, 0
31, 470655, Note_on_c, 13, 54, 57
31, 471122, Note_on_c, 13, 54, 0
31, 471141, Note_on_c, 13, 54, 43
31, 471593, Note_on_c, 13, 54, 0
31, 471613, Note_on_c, 13, 54, 49
31, 472083, Note_on_c, 13, 54, 0
31, 472102, Note_on_c, 13, 54, 50
31, 472567, Note_on_c, 13, 54, 0
31, 472586, Note_on_c, 13, 54, 52
31, 473040, Note_on_c, 13, 54, 0
31, 473060, Note_on_c, 13, 54, 49
31, 473517, Note_on_c, 13, 54, 0
31, 473536, Note_on_c, 13, 54, 51
31, 473988, Note_on_c, 13, 54, 0
31, 474007, Note_on_c, 13, 54, 54
31, 474469, Note_on_c, 13, 54, 0
31, 474488, Note_on_c, 13, 54, 44
31, 474947, Note_on_c, 13, 54, 0
31, 474966, Note_on_c, 13, 54, 50
31, 475436, Note_on_c, 13, 54, 0
31, 475456, Note_on_c, 13, 54, 47
31, 475927, Note_on_c, 13, 54, 0
31, 475946, Note_on_c, 13, 54, 56
31, 476397, Note_on_c, 13, 54, 0
31, 476416, Note_on_c, 13, 54, 47
31, 476876, Note_on_c, 13, 54, 0
31, 476895, Note_on_c, 13, 54, 40
31, 477365, Note_on_c, 13, 54, 0
31, 477384, Note_on_c, 13, 54, 49
31, 477851, Note_on_c, 13, 50, 29
31, 477864, Note_on_c, 13, 54, 0
31, 478310, Note_on_c, 13, 50, 0
31, 478329, Note_on_c, 13, 50, 33
31, 478793, Note_on_c, 13, 50, 0
31, 478812, Note_on_c, 13, 50, 15
31, 479262, Note_on_c, 13, 50, 0
31, 479281, Note_on_c, 13, 50, 20
31, 479759, Note_on_c, 13, 50, 0
31, 479779, Note_on_c, 13, 50, 26
31, 480224, Note_on_c, 13, 50, 0
31, 480243, Note_on_c, 13, 50, 25
31, 480723, Note_on_c, 13, 50, 0
31, 480747, Note_on_c, 13, 50, 18
31, 481210, Note_on_c, 13, 50, 0
31, 481229, Note_on_c, 13, 50, 16
31, 481672, Note_on_c, 13, 50, 0
31, 481691, Note_on_c, 13, 50, 14
31, 482161, Note_on_c, 13, 50, 0
31, 482181, Note_on_c, 13, 50, 19
31, 482648, Note_on_c, 13, 50, 0
31, 482667, Note_on_c, 13, 50, 32
31, 483117, Note_on_c, 13, 50, 0
31, 483136, Note_on_c, 13, 50, 17
31, 483602, Note_on_c, 13, 50, 0
31, 483621, Note_on_c, 13, 50, 26
31, 484080, Note_on_c, 13, 50, 0
31, 484099, Note_on_c, 13, 50, 30
31, 484546, Note_on_c, 13, 50, 0
31, 484565, Note_on_c, 13, 50, 16
31, 485023, Note_on_c, 13, 50, 0
31, 485042, Note_on_c, 13, 50, 21
31, 485510, Note_on_c, 13, 50, 0
31, 485530, Note_on_c, 13, 50, 24
31, 485983, Note_on_c, 13, 50, 0
31, 486002, Note_on_c, 13, 50, 14
31, 486470, Note_on_c, 13, 50, 0
31, 486489, Note_on_c, 13, 50, 15
31, 486969, Note_on_c, 13, 50, 0
31, 488419, Note_on_c, 13, 50, 31
31, 488885, Note_on_c, 13, 50, 0
31, 488904, Note_on_c, 13, 50, 22
31, 489384, Note_on_c, 13, 50, 0
31, 489840, Control_c, 13, 11, 127
31, 489840, Control_c, 13, 7, 92
31, 490797, Program_c, 13, 48
31, 490921, Note_on_c, 13, 62, 89
31, 490932, Note_on_c, 13, 72, 95
31, 490934, Note_on_c, 13, 74, 87
31, 490974, Note_on_c, 13, 62, 0
31, 490985, Note_on_c, 13, 72, 0
31, 490987, Note_on_c, 13, 74, 0
31, 491295, Note_on_c, 13, 72, 93
31, 491295, Note_on_c, 13, 62, 78
31, 491304, Note_on_c, 13, 74, 93
31, 491348, Note_on_c, 13, 72, 0
31, 491348, Note_on_c, 13, 62, 0
31, 491357, Note_on_c, 13, 74, 0
31, 491527, Note_on_c, 13, 63, 89
31, 491529, Note_on_c, 13, 72, 79
31, 491634, Note_on_c, 13, 63, 0
31, 491636, Note_on_c, 13, 72, 0
31, 491890, Note_on_c, 13, 72, 94
31, 491902, Note_on_c, 13, 63, 79
31, 491997, Note_on_c, 13, 72, 0
31, 492009, Note_on_c, 13, 63, 0
31, 492247, Note_on_c, 13, 67, 90
31, 492256, Note_on_c, 13, 70, 88
31, 492283, Note_on_c, 13, 67, 0
31, 492292, Note_on_c, 13, 70, 0
31, 492366, Note_on_c, 13, 65, 85
31, 492383, Note_on_c, 13, 68, 92
31, 492402, Note_on_c, 13, 65, 0
31, 492419, Note_on_c, 13, 68, 0
31, 492482, Note_on_c, 13, 66, 95
31, 492485, Note_on_c, 13, 63, 91
31, 492518, Note_on_c, 13, 66, 0
31, 492521, Note_on_c, 13, 63, 0
31, 492733, Note_on_c, 13, 72, 83
31, 492737, Note_on_c, 13, 62, 80
31, 492743, Note_on_c, 13, 74, 81
31, 492786, Note_on_c, 13, 72, 0
31, 492790, Note_on_c, 13, 62, 0
31, 492796, Note_on_c, 13, 74, 0
31, 492976, Note_on_c, 13, 72, 93
31, 492982, Note_on_c, 13, 63, 85
31, 493083, Note_on_c, 13, 72, 0
31, 493089, Note_on_c, 13, 63, 0
31, 493322, Note_on_c, 13, 63, 83
31, 493343, Note_on_c, 13, 72, 78
31, 493429, Note_on_c, 13, 63, 0
31, 493450, Note_on_c, 13, 72, 0
31, 493693, Note_on_c, 13, 67, 86
31, 493698, Note_on_c, 13, 70, 81
31, 493729, Note_on_c, 13, 67, 0
31, 493734, Note_on_c, 13, 70, 0
31, 493811, Note_on_c, 13, 65, 82
31, 493818, Note_on_c, 13, 68, 86
31, 493847, Note_on_c, 13, 65, 0
31, 493854, Note_on_c, 13, 68, 0
31, 493933, Note_on_c, 13, 66, 89
31, 493943, Note_on_c, 13, 63, 93
31, 493969, Note_on_c, 13, 66, 0
31, 493979, Note_on_c, 13, 63, 0
31, 494162, Note_on_c, 13, 74, 79
31, 494165, Note_on_c, 13, 62, 85
31, 494175, Note_on_c, 13, 72, 82
31, 494269, Note_on_c, 13, 74, 0
31, 494272, Note_on_c, 13, 62, 0
31, 494282, Note_on_c, 13, 72, 0
31, 494524, Note_on_c, 13, 70, 103
31, 494667, Note_on_c, 13, 70, 0
31, 494784, Note_on_c, 13, 70, 107
31, 494927, Note_on_c, 13, 70, 0
31, 495021, Note_on_c, 13, 70, 109
31, 495074, Note_on_c, 13, 70, 0
31, 495136, Note_on_c, 13, 70, 94
31, 495189, Note_on_c, 13, 70, 0
31, 495259, Note_on_c, 13, 70, 96
31, 495312, Note_on_c, 13, 70, 0
31, 495491, Note_on_c, 13, 62, 88
31, 495504, Note_on_c, 13, 72, 87
31, 495544, Note_on_c, 13, 62, 0
31, 495557, Note_on_c, 13, 72, 0
31, 495727, Note_on_c, 13, 63, 80
31, 495740, Note_on_c, 13, 72, 95
31, 495780, Note_on_c, 13, 63, 0
31, 495793, Note_on_c, 13, 72, 0
31, 495969, Note_on_c, 13, 63, 86
31, 495977, Note_on_c, 13, 72, 88
31, 496076, Note_on_c, 13, 63, 0
31, 496084, Note_on_c, 13, 72, 0
31, 496339, Note_on_c, 13, 67, 84
31, 496348, Note_on_c, 13, 70, 79
31, 496392, Note_on_c, 13, 67, 0
31, 496401, Note_on_c, 13, 70, 0
31, 496453, Note_on_c, 13, 68, 88
31, 496459, Note_on_c, 13, 65, 98
31, 496506, Note_on_c, 13, 68, 0
31, 496512, Note_on_c, 13, 65, 0
31, 496569, Note_on_c, 13, 63, 88
31, 496578, Note_on_c, 13, 66, 92
31, 496622, Note_on_c, 13, 63, 0
31, 496631, Note_on_c, 13, 66, 0
31, 496701, Note_on_c, 13, 70, 94
31, 496773, Note_on_c, 13, 70, 0
31, 496818, Note_on_c, 13, 70, 106
31, 496890, Note_on_c, 13, 70, 0
31, 496938, Note_on_c, 13, 70, 99
31, 497010, Note_on_c, 13, 70, 0
31, 497179, Note_on_c, 13, 70, 106
31, 497226, Note_on_c, 13, 70, 0
31, 497298, Note_on_c, 13, 63, 101
31, 497307, Note_on_c, 13, 72, 110
31, 497441, Note_on_c, 13, 63, 0
31, 497450, Note_on_c, 13, 72, 0
31, 497526, Note_on_c, 13, 72, 96
31, 497542, Note_on_c, 13, 63, 94
31, 497669, Note_on_c, 13, 72, 0
31, 497685, Note_on_c, 13, 63, 0
31, 497769, Note_on_c, 13, 72, 110
31, 497777, Note_on_c, 13, 63, 106
31, 497816, Note_on_c, 13, 72, 0
31, 497824, Note_on_c, 13, 63, 0
31, 498009, Note_on_c, 13, 62, 93
31, 498014, Note_on_c, 13, 72, 96
31, 498062, Note_on_c, 13, 62, 0
31, 498067, Note_on_c, 13, 72, 0
31, 498261, Note_on_c, 13, 63, 109
31, 498267, Note_on_c, 13, 72, 106
31, 498314, Note_on_c, 13, 63, 0
31, 498320, Note_on_c, 13, 72, 0
31, 498504, Note_on_c, 13, 63, 93
31, 498505, Note_on_c, 13, 72, 99
31, 498611, Note_on_c, 13, 63, 0
31, 498612, Note_on_c, 13, 72, 0
31, 498847, Note_on_c, 13, 67, 105
31, 498851, Note_on_c, 13, 70, 108
31, 498900, Note_on_c, 13, 67, 0
31, 498904, Note_on_c, 13, 70, 0
31, 498968, Note_on_c, 13, 68, 98
31, 498982, Note_on_c, 13, 65, 110
31, 499021, Note_on_c, 13, 68, 0
31, 499035, Note_on_c, 13, 65, 0
31, 499085, Note_on_c, 13, 66, 107
31, 499092, Note_on_c, 13, 63, 107
31, 499138, Note_on_c, 13, 66, 0
31, 499145, Note_on_c, 13, 63, 0
31, 499344, Note_on_c, 13, 72, 109
31, 499346, Note_on_c, 13, 62, 99
31, 499451, Note_on_c, 13, 72, 0
31, 499453, Note_on_c, 13, 62, 0
31, 499688, Note_on_c, 13, 72, 107
31, 499692, Note_on_c, 13, 63, 102
31, 499741, Note_on_c, 13, 72, 0
31, 499745, Note_on_c, 13, 63, 0
31, 499938, Note_on_c, 13, 72, 109
31, 499942, Note_on_c, 13, 63, 95
31, 500045, Note_on_c, 13, 72, 0
31, 500049, Note_on_c, 13, 63, 0
31, 500285, Note_on_c, 13, 67, 108
31, 500299, Note_on_c, 13, 70, 100
31, 500338, Note_on_c, 13, 67, 0
31, 500352, Note_on_c, 13, 70, 0
31, 500415, Note_on_c, 13, 68, 107
31, 500422, Note_on_c, 13, 65, 98
31, 500468, Note_on_c, 13, 68, 0
31, 500475, Note_on_c, 13, 65, 0
31, 500535, Note_on_c, 13, 63, 95
31, 500544, Note_on_c, 13, 66, 91
31, 500588, Note_on_c, 13, 63, 0
31, 500597, Note_on_c, 13, 66, 0
31, 500763, Note_on_c, 13, 72, 95
31, 500770, Note_on_c, 13, 63, 92
31, 500816, Note_on_c, 13, 72, 0
31, 500823, Note_on_c, 13, 63, 0
31, 501003, Note_on_c, 13, 67, 96
31, 501006, Note_on_c, 13, 70, 111
31, 501056, Note_on_c, 13, 67, 0
31, 501059, Note_on_c, 13, 70, 0
31, 501120, Note_on_c, 13, 68, 109
31, 501144, Note_on_c, 13, 65, 107
31, 501173, Note_on_c, 13, 68, 0
31, 501197, Note_on_c, 13, 65, 0
31, 501242, Note_on_c, 13, 63, 93
31, 501249, Note_on_c, 13, 66, 95
31, 501295, Note_on_c, 13, 63, 0
31, 501302, Note_on_c, 13, 66, 0
31, 501484, Note_on_c, 13, 63, 97
31, 501501, Note_on_c, 13, 72, 92
31, 501591, Note_on_c, 13, 63, 0
31, 501608, Note_on_c, 13, 72, 0
31, 501847, Note_on_c, 13, 72, 94
31, 501860, Note_on_c, 13, 63, 94
31, 501900, Note_on_c, 13, 72, 0
31, 501913, Note_on_c, 13, 63, 0
31, 502099, Note_on_c, 13, 63, 107
31, 502100, Note_on_c, 13, 72, 93
31, 502206, Note_on_c, 13, 63, 0
31, 502207, Note_on_c, 13, 72, 0
31, 502447, Note_on_c, 13, 70, 107
31, 502454, Note_on_c, 13, 67, 93
31, 502500, Note_on_c, 13, 70, 0
31, 502507, Note_on_c, 13, 67, 0
31, 502580, Note_on_c, 13, 65, 97
31, 502587, Note_on_c, 13, 68, 98
31, 502633, Note_on_c, 13, 65, 0
31, 502640, Note_on_c, 13, 68, 0
31, 502680, Note_on_c, 13, 66, 110
31, 502682, Note_on_c, 13, 63, 106
31, 502733, Note_on_c, 13, 66, 0
31, 502735, Note_on_c, 13, 63, 0
31, 503287, Note_on_c, 13, 59, 108
31, 503288, Note_on_c, 13, 70, 104
31, 503296, Note_on_c, 13, 63, 98
31, 503340, Note_on_c, 13, 59, 0
31, 503341, Note_on_c, 13, 70, 0
31, 503349, Note_on_c, 13, 63, 0
31, 504126, Note_on_c, 13, 59, 102
31, 504131, Note_on_c, 13, 63, 100
31, 504147, Note_on_c, 13, 70, 108
31, 504246, Note_on_c, 13, 59, 0
31, 504251, Note_on_c, 13, 63, 0
31, 504251, Note_on_c, 13, 53, 49
31, 504264, Note_on_c, 13, 57, 57
31, 504267, Note_on_c, 13, 70, 0
31, 504298, Note_on_c, 13, 53, 0
31, 504311, Note_on_c, 13, 57, 0
31, 504484, Note_on_c, 13, 53, 43
31, 504508, Note_on_c, 13, 57, 50
31, 504531, Note_on_c, 13, 53, 0
31, 504555, Note_on_c, 13, 57, 0
31, 504970, Note_on_c, 13, 57, 56
31, 504978, Note_on_c, 13, 53, 41
31, 505017, Note_on_c, 13, 57, 0
31, 505025, Note_on_c, 13, 53, 0
31, 505442, Note_on_c, 13, 53, 43
31, 505468, Note_on_c, 13, 57, 47
31, 505489, Note_on_c, 13, 53, 0
31, 505515, Note_on_c, 13, 57, 0
31, 505688, Note_on_c, 13, 57, 39
31, 505692, Note_on_c, 13, 53, 39
31, 505735, Note_on_c, 13, 57, 0
31, 505739, Note_on_c, 13, 53, 0
31, 505924, Note_on_c, 13, 57, 43
31, 505940, Note_on_c, 13, 53, 59
31, 505971, Note_on_c, 13, 57, 0
31, 505987, Note_on_c, 13, 53, 0
31, 506408, Note_on_c, 13, 53, 48
31, 506427, Note_on_c, 13, 57, 55
31, 506455, Note_on_c, 13, 53, 0
31, 506474, Note_on_c, 13, 57, 0
31, 506903, Note_on_c, 13, 53, 45
31, 506906, Note_on_c, 13, 57, 49
31, 506950, Note_on_c, 13, 53, 0
31, 506953, Note_on_c, 13, 57, 0
31, 507388, Note_on_c, 13, 57, 53
31, 507388, Note_on_c, 13, 53, 46
31, 507435, Note_on_c, 13, 57, 0
31, 507435, Note_on_c, 13, 53, 0
31, 507608, Note_on_c, 13, 53, 39
31, 507627, Note_on_c, 13, 57, 53
31, 507655, Note_on_c, 13, 53, 0
31, 507674, Note_on_c, 13, 57, 0
31, 508091, Note_on_c, 13, 57, 57
31, 508102, Note_on_c, 13, 53, 48
31, 508138, Note_on_c, 13, 57, 0
31, 508149, Note_on_c, 13, 53, 0
31, 508343, Note_on_c, 13, 53, 51
31, 508346, Note_on_c, 13, 57, 44
31, 508390, Note_on_c, 13, 53, 0
31, 508393, Note_on_c, 13, 57, 0
31, 508561, Note_on_c, 13, 53, 52
31, 508561, Note_on_c, 13, 57, 48
31, 508608, Note_on_c, 13, 53, 0
31, 508608, Note_on_c, 13, 57, 0
31, 509046, Note_on_c, 13, 53, 49
31, 509046, Note_on_c, 13, 57, 58
31, 509093, Note_on_c, 13, 53, 0
31, 509093, Note_on_c, 13, 57, 0
31, 509521, Note_on_c, 13, 57, 54
31, 509542, Note_on_c, 13, 53, 44
31, 509568, Note_on_c, 13, 57, 0
31, 509589, Note_on_c, 13, 53, 0
31, 509770, Note_on_c, 13, 53, 50
31, 509787, Note_on_c, 13, 57, 45
31, 509817, Note_on_c, 13, 53, 0
31, 509834, Note_on_c, 13, 57, 0
31, 510252, Note_on_c, 13, 57, 53
31, 510267, Note_on_c, 13, 53, 46
31, 510299, Note_on_c, 13, 57, 0
31, 510314, Note_on_c, 13, 53, 0
31, 510721, Note_on_c, 13, 57, 55
31, 510745, Note_on_c, 13, 53, 42
31, 510768, Note_on_c, 13, 57, 0
31, 510792, Note_on_c, 13, 53, 0
31, 511210, Note_on_c, 13, 57, 51
31, 511215, Note_on_c, 13, 53, 50
31, 511257, Note_on_c, 13, 57, 0
31, 511262, Note_on_c, 13, 53, 0
31, 511703, Note_on_c, 13, 57, 46
31, 511708, Note_on_c, 13, 53, 45
31, 511750, Note_on_c, 13, 57, 0
31, 511755, Note_on_c, 13, 53, 0
31, 511923, Note_on_c, 13, 57, 52
31, 511929, Note_on_c, 13, 53, 59
31, 511970, Note_on_c, 13, 57, 0
31, 511976, Note_on_c, 13, 53, 0
31, 512411, Note_on_c, 13, 57, 48
31, 512418, Note_on_c, 13, 53, 53
31, 512458, Note_on_c, 13, 57, 0
31, 512465, Note_on_c, 13, 53, 0
31, 512881, Note_on_c, 13, 57, 53
31, 512896, Note_on_c, 13, 53, 51
31, 512928, Note_on_c, 13, 57, 0
31, 512943, Note_on_c, 13, 53, 0
31, 513360, Note_on_c, 13, 57, 39
31, 513388, Note_on_c, 13, 53, 44
31, 513407, Note_on_c, 13, 57, 0
31, 513435, Note_on_c, 13, 53, 0
31, 513845, Note_on_c, 13, 53, 57
31, 513855, Note_on_c, 13, 57, 42
31, 513892, Note_on_c, 13, 53, 0
31, 513902, Note_on_c, 13, 57, 0
31, 514098, Note_on_c, 13, 57, 39
31, 514107, Note_on_c, 13, 53, 58
31, 514145, Note_on_c, 13, 57, 0
31, 514154, Note_on_c, 13, 53, 0
31, 514325, Note_on_c, 13, 53, 53
31, 514344, Note_on_c, 13, 57, 49
31, 514372, Note_on_c, 13, 53, 0
31, 514391, Note_on_c, 13, 57, 0
31, 514803, Note_on_c, 13, 53, 52
31, 514819, Note_on_c, 13, 57, 59
31, 514850, Note_on_c, 13, 53, 0
31, 514866, Note_on_c, 13, 57, 0
31, 515286, Note_on_c, 13, 53, 51
31, 515286, Note_on_c, 13, 57, 47
31, 515333, Note_on_c, 13, 53, 0
31, 515333, Note_on_c, 13, 57, 0
31, 515520, Note_on_c, 13, 53, 42
31, 515540, Note_on_c, 13, 57, 52
31, 515567, Note_on_c, 13, 53, 0
31, 515587, Note_on_c, 13, 57, 0
31, 516023, Note_on_c, 13, 57, 41
31, 516027, Note_on_c, 13, 53, 46
31, 516070, Note_on_c, 13, 57, 0
31, 516074, Note_on_c, 13, 53, 0
31, 516240, Note_on_c, 13, 53, 44
31, 516257, Note_on_c, 13, 57, 57
31, 516287, Note_on_c, 13, 53, 0
31, 516304, Note_on_c, 13, 57, 0
31, 516729, Note_on_c, 13, 57, 40
31, 516736, Note_on_c, 13, 53, 57
31, 516776, Note_on_c, 13, 57, 0
31, 516783, Note_on_c, 13, 53, 0
31, 517208, Note_on_c, 13, 57, 39
31, 517227, Note_on_c, 13, 53, 50
31, 517255, Note_on_c, 13, 57, 0
31, 517274, Note_on_c, 13, 53, 0
31, 517458, Note_on_c, 13, 57, 47
31, 517463, Note_on_c, 13, 53, 47
31, 517505, Note_on_c, 13, 57, 0
31, 517510, Note_on_c, 13, 53, 0
31, 517681, Note_on_c, 13, 53, 47
31, 517693, Note_on_c, 13, 57, 47
31, 517728, Note_on_c, 13, 53, 0
31, 517740, Note_on_c, 13, 57, 0
31, 518173, Note_on_c, 13, 53, 58
31, 518174, Note_on_c, 13, 57, 57
31, 518220, Note_on_c, 13, 53, 0
31, 518221, Note_on_c, 13, 57, 0
31, 518656, Note_on_c, 13, 57, 58
31, 518664, Note_on_c, 13, 53, 44
31, 518703, Note_on_c, 13, 57, 0
31, 518711, Note_on_c, 13, 53, 0
31, 518893, Note_on_c, 13, 57, 42
31, 518905, Note_on_c, 13, 53, 49
31, 518940, Note_on_c, 13, 57, 0
31, 518952, Note_on_c, 13, 53, 0
31, 519382, Note_on_c, 13, 53, 49
31, 519387, Note_on_c, 13, 57, 47
31, 519429, Note_on_c, 13, 53, 0
31, 519434, Note_on_c, 13, 57, 0
31, 519840, Note_on_c, 13, 57, 44
31, 519865, Note_on_c, 13, 53, 59
31, 519887, Note_on_c, 13, 57, 0
31, 519912, Note_on_c, 13, 53, 0
31, 520335, Note_on_c, 13, 76, 104
31, 520358, Note_on_c, 13, 76, 0
31, 520394, Note_on_c, 13, 76, 105
31, 520417, Note_on_c, 13, 76, 0
31, 520820, Note_on_c, 13, 76, 104
31, 520843, Note_on_c, 13, 76, 0
31, 520863, Note_on_c, 13, 76, 114
31, 520886, Note_on_c, 13, 76, 0
31, 521301, Note_on_c, 13, 76, 108
31, 521324, Note_on_c, 13, 76, 0
31, 521364, Note_on_c, 13, 76, 105
31, 521387, Note_on_c, 13, 76, 0
31, 521539, Note_on_c, 13, 76, 114
31, 521562, Note_on_c, 13, 76, 0
31, 521594, Note_on_c, 13, 76, 108
31, 521617, Note_on_c, 13, 76, 0
31, 522013, Note_on_c, 13, 76, 102
31, 522036, Note_on_c, 13, 76, 0
31, 522070, Note_on_c, 13, 76, 102
31, 522093, Note_on_c, 13, 76, 0
31, 522486, Note_on_c, 13, 76, 112
31, 522509, Note_on_c, 13, 76, 0
31, 522550, Note_on_c, 13, 76, 103
31, 522573, Note_on_c, 13, 76, 0
31, 522961, Note_on_c, 13, 80, 110
31, 522966, Note_on_c, 13, 76, 118
31, 522984, Note_on_c, 13, 80, 0
31, 522989, Note_on_c, 13, 76, 0
31, 523033, Note_on_c, 13, 80, 118
31, 523047, Note_on_c, 13, 76, 111
31, 523056, Note_on_c, 13, 80, 0
31, 523070, Note_on_c, 13, 76, 0
31, 523440, Note_on_c, 13, 75, 104
31, 523446, Note_on_c, 13, 78, 113
31, 523463, Note_on_c, 13, 75, 0
31, 523469, Note_on_c, 13, 78, 0
31, 523518, Note_on_c, 13, 78, 102
31, 523525, Note_on_c, 13, 75, 106
31, 523541, Note_on_c, 13, 78, 0
31, 523548, Note_on_c, 13, 75, 0
31, 523926, Note_on_c, 13, 77, 116
31, 523939, Note_on_c, 13, 74, 102
31, 523949, Note_on_c, 13, 77, 0
31, 523961, Note_on_c, 13, 74, 0
31, 523981, Note_on_c, 13, 74, 105
31, 523991, Note_on_c, 13, 77, 110
31, 524004, Note_on_c, 13, 74, 0
31, 524014, Note_on_c, 13, 77, 0
31, 524174, Note_on_c, 13, 76, 110
31, 524197, Note_on_c, 13, 76, 0
31, 524238, Note_on_c, 13, 76, 101
31, 524261, Note_on_c, 13, 76, 0
31, 524420, Note_on_c, 13, 76, 104
31, 524443, Note_on_c, 13, 76, 0
31, 524481, Note_on_c, 13, 76, 104
31, 524504, Note_on_c, 13, 76, 0
31, 524902, Note_on_c, 13, 76, 100
31, 524925, Note_on_c, 13, 76, 0
31, 524961, Note_on_c, 13, 76, 112
31, 524984, Note_on_c, 13, 76, 0
31, 525383, Note_on_c, 13, 76, 101
31, 525406, Note_on_c, 13, 76, 0
31, 525443, Note_on_c, 13, 76, 102
31, 525466, Note_on_c, 13, 76, 0
31, 525842, Note_on_c, 13, 75, 120
31, 525861, Note_on_c, 13, 78, 103
31, 525865, Note_on_c, 13, 75, 0
31, 525884, Note_on_c, 13, 78, 0
31, 525927, Note_on_c, 13, 75, 105
31, 525927, Note_on_c, 13, 78, 104
31, 525950, Note_on_c, 13, 75, 0
31, 525950, Note_on_c, 13, 78, 0
31, 526080, Note_on_c, 13, 74, 110
31, 526088, Note_on_c, 13, 77, 108
31, 526103, Note_on_c, 13, 74, 0
31, 526111, Note_on_c, 13, 77, 0
31, 526149, Note_on_c, 13, 77, 101
31, 526151, Note_on_c, 13, 74, 100
31, 526172, Note_on_c, 13, 77, 0
31, 526174, Note_on_c, 13, 74, 0
31, 526325, Note_on_c, 13, 76, 105
31, 526348, Note_on_c, 13, 76, 0
31, 526399, Note_on_c, 13, 76, 107
31, 526422, Note_on_c, 13, 76, 0
31, 526569, Note_on_c, 13, 76, 115
31, 526592, Note_on_c, 13, 76, 0
31, 526624, Note_on_c, 13, 76, 103
31, 526647, Note_on_c, 13, 76, 0
31, 527047, Note_on_c, 13, 74, 114
31, 527057, Note_on_c, 13, 77, 109
31, 527070, Note_on_c, 13, 74, 0
31, 527080, Note_on_c, 13, 77, 0
31, 527100, Note_on_c, 13, 74, 111
31, 527103, Note_on_c, 13, 77, 114
31, 527123, Note_on_c, 13, 74, 0
31, 527126, Note_on_c, 13, 77, 0
31, 527294, Note_on_c, 13, 60, 109
31, 527300, Note_on_c, 13, 72, 104
31, 527317, Note_on_c, 13, 60, 0
31, 527323, Note_on_c, 13, 72, 0
31, 527363, Note_on_c, 13, 72, 111
31, 527365, Note_on_c, 13, 60, 93
31, 527386, Note_on_c, 13, 72, 0
31, 527388, Note_on_c, 13, 60, 0
31, 527774, Note_on_c, 13, 71, 102
31, 527780, Note_on_c, 13, 62, 108
31, 527797, Note_on_c, 13, 71, 0
31, 527803, Note_on_c, 13, 62, 0
31, 527821, Note_on_c, 13, 71, 97
31, 527837, Note_on_c, 13, 62, 106
31, 527844, Note_on_c, 13, 71, 0
31, 527860, Note_on_c, 13, 62, 0
31, 528006, Note_on_c, 13, 71, 97
31, 528024, Note_on_c, 13, 62, 95
31, 528029, Note_on_c, 13, 71, 0
31, 528047, Note_on_c, 13, 62, 0
31, 528087, Note_on_c, 13, 71, 93
31, 528089, Note_on_c, 13, 62, 101
31, 528110, Note_on_c, 13, 71, 0
31, 528112, Note_on_c, 13, 62, 0
31, 528240, Note_on_c, 13, 59, 105
31, 528256, Note_on_c, 13, 71, 111
31, 528263, Note_on_c, 13, 59, 0
31, 528279, Note_on_c, 13, 71, 0
31, 528315, Note_on_c, 13, 71, 103
31, 528328, Note_on_c, 13, 59, 101
31, 528338, Note_on_c, 13, 71, 0
31, 528351, Note_on_c, 13, 59, 0
31, 528735, Note_on_c, 13, 59, 100
31, 528749, Note_on_c, 13, 71, 95
31, 528758, Note_on_c, 13, 59, 0
31, 528768, Note_on_c, 13, 71, 0
31, 528787, Note_on_c, 13, 71, 99
31, 528789, Note_on_c, 13, 59, 94
31, 528810, Note_on_c, 13, 71, 0
31, 528812, Note_on_c, 13, 59, 0
31, 528965, Note_on_c, 13, 59, 93
31, 528967, Note_on_c, 13, 71, 111
31, 528988, Note_on_c, 13, 59, 0
31, 528990, Note_on_c, 13, 71, 0
31, 529023, Note_on_c, 13, 71, 94
31, 529039, Note_on_c, 13, 59, 104
31, 529046, Note_on_c, 13, 71, 0
31, 529062, Note_on_c, 13, 59, 0
31, 529448, Note_on_c, 13, 72, 100
31, 529459, Note_on_c, 13, 60, 103
31, 529471, Note_on_c, 13, 72, 0
31, 529482, Note_on_c, 13, 60, 0
31, 529503, Note_on_c, 13, 72, 93
31, 529514, Note_on_c, 13, 60, 99
31, 529526, Note_on_c, 13, 72, 0
31, 529537, Note_on_c, 13, 60, 0
31, 529928, Note_on_c, 13, 62, 106
31, 529947, Note_on_c, 13, 71, 99
31, 529951, Note_on_c, 13, 62, 0
31, 529970, Note_on_c, 13, 71, 0
31, 529991, Note_on_c, 13, 71, 91
31, 530001, Note_on_c, 13, 62, 98
31, 530014, Note_on_c, 13, 71, 0
31, 530024, Note_on_c, 13, 62, 0
31, 530168, Note_on_c, 13, 71, 93
31, 530171, Note_on_c, 13, 62, 101
31, 530191, Note_on_c, 13, 71, 0
31, 530194, Note_on_c, 13, 62, 0
31, 530243, Note_on_c, 13, 62, 104
31, 530244, Note_on_c, 13, 71, 93
31, 530266, Note_on_c, 13, 62, 0
31, 530267, Note_on_c, 13, 71, 0
31, 530641, Note_on_c, 13, 59, 91
31, 530656, Note_on_c, 13, 71, 100
31, 530664, Note_on_c, 13, 59, 0
31, 530679, Note_on_c, 13, 71, 0
31, 530701, Note_on_c, 13, 59, 100
31, 530717, Note_on_c, 13, 71, 92
31, 530724, Note_on_c, 13, 59, 0
31, 530740, Note_on_c, 13, 71, 0
31, 531134, Note_on_c, 13, 71, 95
31, 531147, Note_on_c, 13, 59, 95
31, 531157, Note_on_c, 13, 71, 0
31, 531170, Note_on_c, 13, 59, 0
31, 531193, Note_on_c, 13, 59, 96
31, 531199, Note_on_c, 13, 71, 95
31, 531216, Note_on_c, 13, 59, 0
31, 531222, Note_on_c, 13, 71, 0
31, 531375, Note_on_c, 13, 78, 95
31, 531380, Note_on_c, 13, 75, 107
31, 531495, Note_on_c, 13, 78, 0
31, 531500, Note_on_c, 13, 75, 0
31, 531602, Note_on_c, 13, 75, 104
31, 531609, Note_on_c, 13, 78, 109
31, 531722, Note_on_c, 13, 75, 0
31, 531729, Note_on_c, 13, 78, 0
31, 531845, Note_on_c, 13, 75, 95
31, 531864, Note_on_c, 13, 78, 107
31, 531965, Note_on_c, 13, 75, 0
31, 531984, Note_on_c, 13, 78, 0
31, 532321, Note_on_c, 13, 75, 100
31, 532329, Note_on_c, 13, 78, 103
31, 532441, Note_on_c, 13, 75, 0
31, 532449, Note_on_c, 13, 78, 0
31, 532561, Note_on_c, 13, 78, 93
31, 532570, Note_on_c, 13, 75, 94
31, 532681, Note_on_c, 13, 78, 0
31, 532690, Note_on_c, 13, 75, 0
31, 532801, Note_on_c, 13, 78, 108
31, 532814, Note_on_c, 13, 75, 110
31, 532921, Note_on_c, 13, 78, 0
31, 532934, Note_on_c, 13, 75, 0
31, 533055, Note_on_c, 13, 75, 109
31, 533056, Note_on_c, 13, 78, 98
31, 533175, Note_on_c, 13, 75, 0
31, 533176, Note_on_c, 13, 78, 0
31, 533293, Note_on_c, 13, 75, 105
31, 533302, Note_on_c, 13, 78, 108
31, 533413, Note_on_c, 13, 75, 0
31, 533422, Note_on_c, 13, 78, 0
31, 533764, Note_on_c, 13, 75, 97
31, 533773, Note_on_c, 13, 78, 104
31, 533884, Note_on_c, 13, 75, 0
31, 533893, Note_on_c, 13, 78, 0
31, 534250, Note_on_c, 13, 75, 95
31, 534266, Note_on_c, 13, 78, 98
31, 534370, Note_on_c, 13, 75, 0
31, 534386, Note_on_c, 13, 78, 0
31, 534502, Note_on_c, 13, 77, 105
31, 534507, Note_on_c, 13, 74, 99
31, 534622, Note_on_c, 13, 77, 0
31, 534627, Note_on_c, 13, 74, 0
31, 534733, Note_on_c, 13, 78, 102
31, 534734, Note_on_c, 13, 75, 105
31, 534853, Note_on_c, 13, 78, 0
31, 534854, Note_on_c, 13, 75, 0
31, 535207, Note_on_c, 13, 75, 108
31, 535209, Note_on_c, 13, 78, 99
31, 535327, Note_on_c, 13, 75, 0
31, 535329, Note_on_c, 13, 78, 0
31, 535690, Note_on_c, 13, 78, 106
31, 535690, Note_on_c, 13, 75, 97
31, 535810, Note_on_c, 13, 78, 0
31, 535810, Note_on_c, 13, 75, 0
31, 535920, Note_on_c, 13, 78, 110
31, 535939, Note_on_c, 13, 78, 0
31, 535942, Note_on_c, 13, 75, 119
31, 535959, Note_on_c, 13, 75, 0
31, 535960, Note_on_c, 13, 78, 115
31, 535978, Note_on_c, 13, 75, 105
31, 535980, Note_on_c, 13, 78, 0
31, 535998, Note_on_c, 13, 75, 0
31, 536022, Note_on_c, 13, 75, 115
31, 536029, Note_on_c, 13, 78, 114
31, 536041, Note_on_c, 13, 75, 0
31, 536048, Note_on_c, 13, 78, 0
31, 536063, Note_on_c, 13, 75, 104
31, 536068, Note_on_c, 13, 78, 106
31, 536069, Note_on_c, 13, 78, 0
31, 536070, Note_on_c, 13, 75, 0
31, 536084, Note_on_c, 13, 78, 111
31, 536089, Note_on_c, 13, 75, 122
31, 536104, Note_on_c, 13, 78, 0
31, 536109, Note_on_c, 13, 75, 0
31, 536132, Note_on_c, 13, 78, 107
31, 536147, Note_on_c, 13, 75, 106
31, 536151, Note_on_c, 13, 78, 0
31, 536166, Note_on_c, 13, 75, 0
31, 536182, Note_on_c, 13, 73, 122
31, 536187, Note_on_c, 13, 70, 123
31, 536195, Note_on_c, 13, 73, 0
31, 536201, Note_on_c, 13, 70, 0
31, 536215, Note_on_c, 13, 73, 107
31, 536220, Note_on_c, 13, 70, 108
31, 536235, Note_on_c, 13, 73, 0
31, 536240, Note_on_c, 13, 70, 0
31, 536257, Note_on_c, 13, 73, 115
31, 536267, Note_on_c, 13, 70, 106
31, 536268, Note_on_c, 13, 70, 0
31, 536276, Note_on_c, 13, 73, 0
31, 536283, Note_on_c, 13, 70, 112
31, 536301, Note_on_c, 13, 73, 108
31, 536302, Note_on_c, 13, 70, 0
31, 536317, Note_on_c, 13, 73, 0
31, 536336, Note_on_c, 13, 73, 108
31, 536339, Note_on_c, 13, 70, 124
31, 536355, Note_on_c, 13, 73, 0
31, 536355, Note_on_c, 13, 70, 0
31, 536374, Note_on_c, 13, 70, 106
31, 536374, Note_on_c, 13, 73, 114
31, 536393, Note_on_c, 13, 70, 0
31, 536393, Note_on_c, 13, 73, 0
31, 536420, Note_on_c, 13, 75, 113
31, 536423, Note_on_c, 13, 75, 0
31, 536425, Note_on_c, 13, 72, 112
31, 536439, Note_on_c, 13, 72, 0
31, 536443, Note_on_c, 13, 75, 111
31, 536458, Note_on_c, 13, 72, 120
31, 536462, Note_on_c, 13, 72, 0
31, 536463, Note_on_c, 13, 75, 0
31, 536481, Note_on_c, 13, 72, 119
31, 536484, Note_on_c, 13, 75, 106
31, 536500, Note_on_c, 13, 72, 0
31, 536503, Note_on_c, 13, 75, 0
31, 536525, Note_on_c, 13, 75, 114
31, 536544, Note_on_c, 13, 75, 0
31, 536544, Note_on_c, 13, 72, 119
31, 536562, Note_on_c, 13, 75, 109
31, 536563, Note_on_c, 13, 72, 0
31, 536582, Note_on_c, 13, 75, 0
31, 536587, Note_on_c, 13, 72, 119
31, 536588, Note_on_c, 13, 72, 0
31, 536602, Note_on_c, 13, 72, 105
31, 536621, Note_on_c, 13, 72, 0
31, 536624, Note_on_c, 13, 75, 124
31, 536643, Note_on_c, 13, 75, 0
31, 536665, Note_on_c, 13, 73, 116
31, 536666, Note_on_c, 13, 73, 0
31, 536668, Note_on_c, 13, 70, 114
31, 536669, Note_on_c, 13, 70, 0
31, 536680, Note_on_c, 13, 73, 104
31, 536681, Note_on_c, 13, 70, 119
31, 536700, Note_on_c, 13, 73, 0
31, 536701, Note_on_c, 13, 70, 0
31, 536721, Note_on_c, 13, 70, 120
31, 536727, Note_on_c, 13, 73, 104
31, 536740, Note_on_c, 13, 70, 0
31, 536746, Note_on_c, 13, 73, 0
31, 536776, Note_on_c, 13, 73, 104
31, 536777, Note_on_c, 13, 70, 122
31, 536789, Note_on_c, 13, 70, 0
31, 536795, Note_on_c, 13, 73, 0
31, 536808, Note_on_c, 13, 70, 118
31, 536818, Note_on_c, 13, 73, 122
31, 536828, Note_on_c, 13, 70, 0
31, 536838, Note_on_c, 13, 73, 0
31, 536846, Note_on_c, 13, 73, 124
31, 536860, Note_on_c, 13, 70, 113
31, 536865, Note_on_c, 13, 73, 0
31, 536879, Note_on_c, 13, 70, 0
31, 536894, Note_on_c, 13, 63, 109
31, 536898, Note_on_c, 13, 68, 108
31, 536913, Note_on_c, 13, 63, 0
31, 536917, Note_on_c, 13, 68, 0
31, 536924, Note_on_c, 13, 68, 121
31, 536940, Note_on_c, 13, 63, 124
31, 536944, Note_on_c, 13, 68, 0
31, 536948, Note_on_c, 13, 63, 0
31, 536967, Note_on_c, 13, 63, 114
31, 536981, Note_on_c, 13, 63, 0
31, 536985, Note_on_c, 13, 68, 124
31, 536986, Note_on_c, 13, 68, 0
31, 537001, Note_on_c, 13, 63, 109
31, 537002, Note_on_c, 13, 68, 108
31, 537020, Note_on_c, 13, 63, 0
31, 537021, Note_on_c, 13, 68, 0
31, 537041, Note_on_c, 13, 68, 119
31, 537061, Note_on_c, 13, 68, 0
31, 537061, Note_on_c, 13, 63, 112
31, 537071, Note_on_c, 13, 63, 0
31, 537090, Note_on_c, 13, 63, 110
31, 537106, Note_on_c, 13, 68, 111
31, 537109, Note_on_c, 13, 63, 0
31, 537120, Note_on_c, 13, 64, 120
31, 537125, Note_on_c, 13, 68, 0
31, 537130, Note_on_c, 13, 69, 119
31, 537139, Note_on_c, 13, 64, 0
31, 537149, Note_on_c, 13, 69, 0
31, 537175, Note_on_c, 13, 69, 117
31, 537186, Note_on_c, 13, 64, 116
31, 537187, Note_on_c, 13, 64, 0
31, 537188, Note_on_c, 13, 69, 0
31, 537204, Note_on_c, 13, 64, 123
31, 537207, Note_on_c, 13, 69, 121
31, 537223, Note_on_c, 13, 64, 0
31, 537226, Note_on_c, 13, 69, 0
31, 537248, Note_on_c, 13, 64, 112
31, 537253, Note_on_c, 13, 69, 105
31, 537267, Note_on_c, 13, 64, 0
31, 537267, Note_on_c, 13, 69, 0
31, 537287, Note_on_c, 13, 69, 107
31, 537287, Note_on_c, 13, 64, 112
31, 537307, Note_on_c, 13, 69, 0
31, 537307, Note_on_c, 13, 64, 0
31, 537327, Note_on_c, 13, 69, 123
31, 537340, Note_on_c, 13, 64, 114
31, 537346, Note_on_c, 13, 69, 0
31, 537359, Note_on_c, 13, 64, 0
31, 537369, Note_on_c, 13, 52, 105
31, 537388, Note_on_c, 13, 52, 0
31, 537417, Note_on_c, 13, 52, 111
31, 537437, Note_on_c, 13, 52, 0
31, 537467, Note_on_c, 13, 52, 123
31, 537473, Note_on_c, 13, 52, 0
31, 537493, Note_on_c, 13, 52, 113
31, 537512, Note_on_c, 13, 52, 0
31, 537533, Note_on_c, 13, 52, 107
31, 537553, Note_on_c, 13, 52, 0
31, 537586, Note_on_c, 13, 52, 115
31, 537605, Note_on_c, 13, 52, 0
31, 537853, Note_on_c, 13, 51, 51
31, 537900, Note_on_c, 13, 51, 0
31, 538094, Note_on_c, 13, 51, 57
31, 538141, Note_on_c, 13, 51, 0
31, 538576, Note_on_c, 13, 51, 53
31, 538623, Note_on_c, 13, 51, 0
31, 539055, Note_on_c, 13, 51, 45
31, 539102, Note_on_c, 13, 51, 0
31, 539288, Note_on_c, 13, 51, 41
31, 539335, Note_on_c, 13, 51, 0
31, 539529, Note_on_c, 13, 51, 50
31, 539576, Note_on_c, 13, 51, 0
31, 540017, Note_on_c, 13, 51, 56
31, 540064, Note_on_c, 13, 51, 0
31, 540240, Note_on_c, 13, 51, 56
31, 540287, Note_on_c, 13, 51, 0
31, 540736, Note_on_c, 13, 51, 51
31, 540783, Note_on_c, 13, 51, 0
31, 541222, Note_on_c, 13, 51, 59
31, 541269, Note_on_c, 13, 51, 0
31, 541697, Note_on_c, 13, 51, 39
31, 541744, Note_on_c, 13, 51, 0
31, 542180, Note_on_c, 13, 51, 46
31, 542227, Note_on_c, 13, 51, 0
31, 542418, Note_on_c, 13, 51, 51
31, 542465, Note_on_c, 13, 51, 0
31, 542898, Note_on_c, 13, 51, 55
31, 542945, Note_on_c, 13, 51, 0
31, 543369, Note_on_c, 13, 51, 43
31, 543416, Note_on_c, 13, 51, 0
31, 543864, Note_on_c, 13, 51, 50
31, 543911, Note_on_c, 13, 51, 0
31, 544331, Note_on_c, 13, 51, 41
31, 544378, Note_on_c, 13, 51, 0
31, 544561, Note_on_c, 13, 51, 41
31, 544608, Note_on_c, 13, 51, 0
31, 544805, Note_on_c, 13, 51, 39
31, 544852, Note_on_c, 13, 51, 0
31, 545292, Note_on_c, 13, 51, 49
31, 545339, Note_on_c, 13, 51, 0
31, 545760, Note_on_c, 13, 51, 57
31, 545807, Note_on_c, 13, 51, 0
31, 546015, Note_on_c, 13, 74, 92
31, 546021, Note_on_c, 13, 72, 82
31, 546045, Note_on_c, 13, 74, 0
31, 546051, Note_on_c, 13, 72, 0
31, 546065, Note_on_c, 13, 74, 90
31, 546078, Note_on_c, 13, 72, 82
31, 546095, Note_on_c, 13, 74, 0
31, 546108, Note_on_c, 13, 72, 0
31, 546250, Note_on_c, 13, 74, 92
31, 546253, Note_on_c, 13, 72, 93
31, 546280, Note_on_c, 13, 74, 0
31, 546283, Note_on_c, 13, 72, 0
31, 546303, Note_on_c, 13, 74, 95
31, 546314, Note_on_c, 13, 72, 87
31, 546333, Note_on_c, 13, 74, 0
31, 546344, Note_on_c, 13, 72, 0
31, 546736, Note_on_c, 13, 72, 96
31, 546740, Note_on_c, 13, 74, 94
31, 546766, Note_on_c, 13, 72, 0
31, 546770, Note_on_c, 13, 74, 0
31, 546798, Note_on_c, 13, 72, 90
31, 546799, Note_on_c, 13, 74, 94
31, 546828, Note_on_c, 13, 72, 0
31, 546829, Note_on_c, 13, 74, 0
31, 547203, Note_on_c, 13, 74, 79
31, 547205, Note_on_c, 13, 72, 85
31, 547233, Note_on_c, 13, 74, 0
31, 547235, Note_on_c, 13, 72, 0
31, 547267, Note_on_c, 13, 72, 80
31, 547281, Note_on_c, 13, 74, 97
31, 547297, Note_on_c, 13, 72, 0
31, 547311, Note_on_c, 13, 74, 0
31, 547447, Note_on_c, 13, 62, 85
31, 547457, Note_on_c, 13, 75, 82
31, 547459, Note_on_c, 13, 69, 80
31, 547477, Note_on_c, 13, 62, 0
31, 547487, Note_on_c, 13, 75, 0
31, 547489, Note_on_c, 13, 69, 0
31, 547514, Note_on_c, 13, 69, 89
31, 547520, Note_on_c, 13, 62, 96
31, 547521, Note_on_c, 13, 75, 86
31, 547544, Note_on_c, 13, 69, 0
31, 547550, Note_on_c, 13, 62, 0
31, 547551, Note_on_c, 13, 75, 0
31, 547682, Note_on_c, 13, 72, 78
31, 547703, Note_on_c, 13, 74, 80
31, 547712, Note_on_c, 13, 72, 0
31, 547733, Note_on_c, 13, 74, 0
31, 547761, Note_on_c, 13, 74, 87
31, 547766, Note_on_c, 13, 72, 85
31, 547791, Note_on_c, 13, 74, 0
31, 547796, Note_on_c, 13, 72, 0
31, 548160, Note_on_c, 13, 72, 92
31, 548185, Note_on_c, 13, 74, 91
31, 548190, Note_on_c, 13, 72, 0
31, 548215, Note_on_c, 13, 74, 0
31, 548235, Note_on_c, 13, 74, 94
31, 548236, Note_on_c, 13, 72, 85
31, 548265, Note_on_c, 13, 74, 0
31, 548266, Note_on_c, 13, 72, 0
31, 548647, Note_on_c, 13, 74, 92
31, 548653, Note_on_c, 13, 72, 93
31, 548677, Note_on_c, 13, 74, 0
31, 548683, Note_on_c, 13, 72, 0
31, 548714, Note_on_c, 13, 74, 96
31, 548725, Note_on_c, 13, 72, 83
31, 548744, Note_on_c, 13, 74, 0
31, 548755, Note_on_c, 13, 72, 0
31, 549123, Note_on_c, 13, 74, 81
31, 549143, Note_on_c, 13, 72, 86
31, 549153, Note_on_c, 13, 74, 0
31, 549173, Note_on_c, 13, 72, 0
31, 549180, Note_on_c, 13, 74, 84
31, 549196, Note_on_c, 13, 72, 89
31, 549210, Note_on_c, 13, 74, 0
31, 549226, Note_on_c, 13, 72, 0
31, 549370, Note_on_c, 13, 63, 88
31, 549370, Note_on_c, 13, 75, 85
31, 549383, Note_on_c, 13, 69, 95
31, 549400, Note_on_c, 13, 63, 0
31, 549400, Note_on_c, 13, 75, 0
31, 549406, Note_on_c, 13, 69, 0
31, 549425, Note_on_c, 13, 69, 94
31, 549429, Note_on_c, 13, 63, 85
31, 549445, Note_on_c, 13, 75, 91
31, 549455, Note_on_c, 13, 69, 0
31, 549459, Note_on_c, 13, 63, 0
31, 549475, Note_on_c, 13, 75, 0
31, 549846, Note_on_c, 13, 66, 79
31, 549850, Note_on_c, 13, 69, 86
31, 549867, Note_on_c, 13, 63, 94
31, 549876, Note_on_c, 13, 66, 0
31, 549880, Note_on_c, 13, 69, 0
31, 549891, Note_on_c, 13, 63, 0
31, 549910, Note_on_c, 13, 63, 84
31, 549916, Note_on_c, 13, 66, 84
31, 549925, Note_on_c, 13, 69, 87
31, 549940, Note_on_c, 13, 63, 0
31, 549946, Note_on_c, 13, 66, 0
31, 549955, Note_on_c, 13, 69, 0
31, 550331, Note_on_c, 13, 69, 93
31, 550343, Note_on_c, 13, 66, 91
31, 550345, Note_on_c, 13, 63, 86
31, 550361, Note_on_c, 13, 69, 0
31, 550373, Note_on_c, 13, 66, 0
31, 550375, Note_on_c, 13, 63, 0
31, 550382, Note_on_c, 13, 69, 85
31, 550387, Note_on_c, 13, 66, 94
31, 550395, Note_on_c, 13, 63, 94
31, 550412, Note_on_c, 13, 69, 0
31, 550417, Note_on_c, 13, 66, 0
31, 550425, Note_on_c, 13, 63, 0
31, 550572, Note_on_c, 13, 62, 87
31, 550572, Note_on_c, 13, 66, 88
31, 550576, Note_on_c, 13, 69, 94
31, 550606, Note_on_c, 13, 62, 0
31, 550606, Note_on_c, 13, 69, 0
31, 550613, Note_on_c, 13, 66, 0
31, 550625, Note_on_c, 13, 69, 92
31, 550625, Note_on_c, 13, 62, 81
31, 550632, Note_on_c, 13, 66, 91
31, 550685, Note_on_c, 13, 69, 0
31, 550685, Note_on_c, 13, 62, 0
31, 550692, Note_on_c, 13, 66, 0
31, 550800, Program_c, 13, 45
31, 550806, Note_on_c, 13, 67, 109
31, 550807, Note_on_c, 13, 64, 102
31, 550926, Note_on_c, 13, 67, 0
31, 550927, Note_on_c, 13, 64, 0
31, 551040, Program_c, 13, 48
31, 551166, Note_on_c, 13, 62, 120
31, 551174, Note_on_c, 13, 71, 100
31, 551273, Note_on_c, 13, 62, 0
31, 551281, Note_on_c, 13, 71, 0
31, 551521, Note_on_c, 13, 61, 117
31, 551536, Note_on_c, 13, 71, 109
31, 551539, Note_on_c, 13, 73, 118
31, 551574, Note_on_c, 13, 61, 0
31, 551589, Note_on_c, 13, 71, 0
31, 551592, Note_on_c, 13, 73, 0
31, 551776, Note_on_c, 13, 71, 111
31, 551782, Note_on_c, 13, 62, 100
31, 551883, Note_on_c, 13, 71, 0
31, 551889, Note_on_c, 13, 62, 0
31, 552136, Note_on_c, 13, 62, 109
31, 552145, Note_on_c, 13, 71, 104
31, 552243, Note_on_c, 13, 62, 0
31, 552252, Note_on_c, 13, 71, 0
31, 552484, Note_on_c, 13, 69, 120
31, 552485, Note_on_c, 13, 66, 103
31, 552509, Note_on_c, 13, 63, 100
31, 552537, Note_on_c, 13, 69, 0
31, 552538, Note_on_c, 13, 66, 0
31, 552562, Note_on_c, 13, 63, 0
31, 552612, Note_on_c, 13, 60, 109
31, 552623, Note_on_c, 13, 64, 112
31, 552626, Note_on_c, 13, 67, 112
31, 552665, Note_on_c, 13, 60, 0
31, 552676, Note_on_c, 13, 64, 0
31, 552679, Note_on_c, 13, 67, 0
31, 552733, Note_on_c, 13, 60, 120
31, 552736, Note_on_c, 13, 65, 110
31, 552786, Note_on_c, 13, 60, 0
31, 552789, Note_on_c, 13, 65, 0
31, 552961, Note_on_c, 13, 68, 107
31, 552970, Note_on_c, 13, 61, 112
31, 552974, Note_on_c, 13, 71, 115
31, 553014, Note_on_c, 13, 68, 0
31, 553023, Note_on_c, 13, 61, 0
31, 553027, Note_on_c, 13, 71, 0
31, 553206, Note_on_c, 13, 61, 116
31, 553208, Note_on_c, 13, 71, 110
31, 553224, Note_on_c, 13, 68, 101
31, 553313, Note_on_c, 13, 61, 0
31, 553315, Note_on_c, 13, 71, 0
31, 553331, Note_on_c, 13, 68, 0
31, 553581, Note_on_c, 13, 71, 109
31, 553584, Note_on_c, 13, 61, 115
31, 553588, Note_on_c, 13, 68, 111
31, 553688, Note_on_c, 13, 71, 0
31, 553691, Note_on_c, 13, 61, 0
31, 553695, Note_on_c, 13, 68, 0
31, 553928, Note_on_c, 13, 66, 109
31, 553929, Note_on_c, 13, 63, 107
31, 553943, Note_on_c, 13, 69, 107
31, 553981, Note_on_c, 13, 66, 0
31, 553982, Note_on_c, 13, 63, 0
31, 553996, Note_on_c, 13, 69, 0
31, 554040, Note_on_c, 13, 64, 120
31, 554047, Note_on_c, 13, 60, 115
31, 554049, Note_on_c, 13, 67, 103
31, 554093, Note_on_c, 13, 64, 0
31, 554100, Note_on_c, 13, 60, 0
31, 554102, Note_on_c, 13, 67, 0
31, 554174, Note_on_c, 13, 60, 107
31, 554180, Note_on_c, 13, 65, 113
31, 554227, Note_on_c, 13, 60, 0
31, 554233, Note_on_c, 13, 65, 0
31, 554402, Note_on_c, 13, 71, 100
31, 554403, Note_on_c, 13, 61, 107
31, 554416, Note_on_c, 13, 68, 117
31, 554509, Note_on_c, 13, 71, 0
31, 554510, Note_on_c, 13, 61, 0
31, 554523, Note_on_c, 13, 68, 0
31, 554767, Note_on_c, 13, 65, 104
31, 554773, Note_on_c, 13, 69, 91
31, 554910, Note_on_c, 13, 65, 0
31, 554916, Note_on_c, 13, 69, 0
31, 555026, Note_on_c, 13, 65, 101
31, 555028, Note_on_c, 13, 69, 95
31, 555169, Note_on_c, 13, 65, 0
31, 555171, Note_on_c, 13, 69, 0
31, 555260, Note_on_c, 13, 65, 103
31, 555267, Note_on_c, 13, 69, 92
31, 555313, Note_on_c, 13, 65, 0
31, 555320, Note_on_c, 13, 69, 0
31, 555362, Note_on_c, 13, 65, 95
31, 555375, Note_on_c, 13, 69, 95
31, 555415, Note_on_c, 13, 65, 0
31, 555428, Note_on_c, 13, 69, 0
31, 555481, Note_on_c, 13, 65, 100
31, 555501, Note_on_c, 13, 69, 110
31, 555534, Note_on_c, 13, 65, 0
31, 555554, Note_on_c, 13, 69, 0
31, 555732, Note_on_c, 13, 61, 93
31, 555732, Note_on_c, 13, 71, 79
31, 555743, Note_on_c, 13, 68, 83
31, 555785, Note_on_c, 13, 61, 0
31, 555785, Note_on_c, 13, 71, 0
31, 555796, Note_on_c, 13, 68, 0
31, 555961, Note_on_c, 13, 68, 83
31, 555977, Note_on_c, 13, 71, 86
31, 555984, Note_on_c, 13, 61, 80
31, 556014, Note_on_c, 13, 68, 0
31, 556030, Note_on_c, 13, 71, 0
31, 556037, Note_on_c, 13, 61, 0
31, 556212, Note_on_c, 13, 72, 93
31, 556214, Note_on_c, 13, 61, 90
31, 556218, Note_on_c, 13, 67, 78
31, 556319, Note_on_c, 13, 72, 0
31, 556321, Note_on_c, 13, 61, 0
31, 556325, Note_on_c, 13, 67, 0
31, 556579, Note_on_c, 13, 69, 91
31, 556579, Note_on_c, 13, 63, 84
31, 556588, Note_on_c, 13, 66, 97
31, 556632, Note_on_c, 13, 69, 0
31, 556632, Note_on_c, 13, 63, 0
31, 556641, Note_on_c, 13, 66, 0
31, 556683, Note_on_c, 13, 60, 98
31, 556684, Note_on_c, 13, 67, 87
31, 556699, Note_on_c, 13, 64, 81
31, 556736, Note_on_c, 13, 60, 0
31, 556737, Note_on_c, 13, 67, 0
31, 556752, Note_on_c, 13, 64, 0
31, 556810, Note_on_c, 13, 65, 96
31, 556816, Note_on_c, 13, 61, 97
31, 556826, Note_on_c, 13, 59, 78
31, 556863, Note_on_c, 13, 65, 0
31, 556869, Note_on_c, 13, 61, 0
31, 556879, Note_on_c, 13, 59, 0
31, 556925, Note_on_c, 13, 69, 97
31, 556943, Note_on_c, 13, 65, 100
31, 556997, Note_on_c, 13, 69, 0
31, 557015, Note_on_c, 13, 65, 0
31, 557045, Note_on_c, 13, 65, 106
31, 557049, Note_on_c, 13, 69, 102
31, 557117, Note_on_c, 13, 65, 0
31, 557121, Note_on_c, 13, 69, 0
31, 557163, Note_on_c, 13, 69, 91
31, 557170, Note_on_c, 13, 65, 101
31, 557235, Note_on_c, 13, 69, 0
31, 557242, Note_on_c, 13, 65, 0
31, 557400, Note_on_c, 13, 65, 111
31, 557405, Note_on_c, 13, 69, 97
31, 557447, Note_on_c, 13, 65, 0
31, 557452, Note_on_c, 13, 69, 0
31, 557527, Note_on_c, 13, 68, 110
31, 557540, Note_on_c, 13, 71, 97
31, 557670, Note_on_c, 13, 68, 0
31, 557683, Note_on_c, 13, 71, 0
31, 557774, Note_on_c, 13, 68, 110
31, 557781, Note_on_c, 13, 71, 101
31, 557917, Note_on_c, 13, 68, 0
31, 557924, Note_on_c, 13, 71, 0
31, 558013, Note_on_c, 13, 68, 91
31, 558020, Note_on_c, 13, 71, 96
31, 558060, Note_on_c, 13, 68, 0
31, 558067, Note_on_c, 13, 71, 0
31, 558249, Note_on_c, 13, 61, 103
31, 558263, Note_on_c, 13, 68, 92
31, 558268, Note_on_c, 13, 71, 95
31, 558302, Note_on_c, 13, 61, 0
31, 558316, Note_on_c, 13, 68, 0
31, 558321, Note_on_c, 13, 71, 0
31, 558487, Note_on_c, 13, 61, 101
31, 558494, Note_on_c, 13, 71, 107
31, 558495, Note_on_c, 13, 68, 111
31, 558540, Note_on_c, 13, 61, 0
31, 558547, Note_on_c, 13, 71, 0
31, 558548, Note_on_c, 13, 68, 0
31, 558728, Note_on_c, 13, 61, 91
31, 558739, Note_on_c, 13, 72, 107
31, 558744, Note_on_c, 13, 67, 93
31, 558835, Note_on_c, 13, 61, 0
31, 558846, Note_on_c, 13, 72, 0
31, 558851, Note_on_c, 13, 67, 0
31, 559084, Note_on_c, 13, 69, 103
31, 559089, Note_on_c, 13, 66, 103
31, 559098, Note_on_c, 13, 63, 94
31, 559137, Note_on_c, 13, 69, 0
31, 559142, Note_on_c, 13, 66, 0
31, 559151, Note_on_c, 13, 63, 0
31, 559207, Note_on_c, 13, 67, 98
31, 559211, Note_on_c, 13, 64, 103
31, 559222, Note_on_c, 13, 60, 110
31, 559260, Note_on_c, 13, 67, 0
31, 559264, Note_on_c, 13, 64, 0
31, 559275, Note_on_c, 13, 60, 0
31, 559323, Note_on_c, 13, 65, 103
31, 559327, Note_on_c, 13, 61, 94
31, 559336, Note_on_c, 13, 59, 110
31, 559376, Note_on_c, 13, 65, 0
31, 559380, Note_on_c, 13, 61, 0
31, 559389, Note_on_c, 13, 59, 0
31, 559570, Note_on_c, 13, 68, 102
31, 559578, Note_on_c, 13, 61, 91
31, 559588, Note_on_c, 13, 71, 93
31, 559677, Note_on_c, 13, 68, 0
31, 559685, Note_on_c, 13, 61, 0
31, 559695, Note_on_c, 13, 71, 0
31, 559922, Note_on_c, 13, 68, 94
31, 559925, Note_on_c, 13, 61, 93
31, 559940, Note_on_c, 13, 71, 111
31, 559975, Note_on_c, 13, 68, 0
31, 559978, Note_on_c, 13, 61, 0
31, 559993, Note_on_c, 13, 71, 0
31, 560161, Note_on_c, 13, 61, 107
31, 560165, Note_on_c, 13, 71, 99
31, 560167, Note_on_c, 13, 68, 97
31, 560268, Note_on_c, 13, 61, 0
31, 560272, Note_on_c, 13, 71, 0
31, 560274, Note_on_c, 13, 68, 0
31, 560525, Note_on_c, 13, 69, 108
31, 560527, Note_on_c, 13, 66, 105
31, 560533, Note_on_c, 13, 63, 99
31, 560578, Note_on_c, 13, 69, 0
31, 560580, Note_on_c, 13, 66, 0
31, 560586, Note_on_c, 13, 63, 0
31, 560645, Note_on_c, 13, 60, 109
31, 560650, Note_on_c, 13, 67, 96
31, 560668, Note_on_c, 13, 64, 97
31, 560698, Note_on_c, 13, 60, 0
31, 560703, Note_on_c, 13, 67, 0
31, 560721, Note_on_c, 13, 64, 0
31, 560764, Note_on_c, 13, 59, 95
31, 560768, Note_on_c, 13, 65, 108
31, 560768, Note_on_c, 13, 61, 108
31, 560817, Note_on_c, 13, 59, 0
31, 560821, Note_on_c, 13, 65, 0
31, 560821, Note_on_c, 13, 61, 0
31, 561000, Note_on_c, 13, 68, 93
31, 561003, Note_on_c, 13, 61, 97
31, 561017, Note_on_c, 13, 71, 102
31, 561053, Note_on_c, 13, 68, 0
31, 561056, Note_on_c, 13, 61, 0
31, 561070, Note_on_c, 13, 71, 0
31, 561244, Note_on_c, 13, 69, 101
31, 561252, Note_on_c, 13, 63, 101
31, 561266, Note_on_c, 13, 66, 100
31, 561297, Note_on_c, 13, 69, 0
31, 561305, Note_on_c, 13, 63, 0
31, 561319, Note_on_c, 13, 66, 0
31, 561375, Note_on_c, 13, 60, 94
31, 561380, Note_on_c, 13, 67, 103
31, 561386, Note_on_c, 13, 64, 109
31, 561428, Note_on_c, 13, 60, 0
31, 561433, Note_on_c, 13, 67, 0
31, 561439, Note_on_c, 13, 64, 0
31, 561483, Note_on_c, 13, 65, 111
31, 561485, Note_on_c, 13, 61, 107
31, 561502, Note_on_c, 13, 59, 97
31, 561536, Note_on_c, 13, 65, 0
31, 561538, Note_on_c, 13, 61, 0
31, 561555, Note_on_c, 13, 59, 0
31, 561728, Note_on_c, 13, 61, 101
31, 561736, Note_on_c, 13, 68, 101
31, 561740, Note_on_c, 13, 71, 101
31, 561835, Note_on_c, 13, 61, 0
31, 561843, Note_on_c, 13, 68, 0
31, 561847, Note_on_c, 13, 71, 0
31, 562083, Note_on_c, 13, 61, 97
31, 562097, Note_on_c, 13, 68, 111
31, 562108, Note_on_c, 13, 71, 103
31, 562136, Note_on_c, 13, 61, 0
31, 562150, Note_on_c, 13, 68, 0
31, 562161, Note_on_c, 13, 71, 0
31, 562336, Note_on_c, 13, 61, 91
31, 562336, Note_on_c, 13, 68, 94
31, 562341, Note_on_c, 13, 71, 98
31, 562443, Note_on_c, 13, 61, 0
31, 562443, Note_on_c, 13, 68, 0
31, 562448, Note_on_c, 13, 71, 0
31, 562694, Note_on_c, 13, 69, 104
31, 562697, Note_on_c, 13, 63, 95
31, 562705, Note_on_c, 13, 66, 91
31, 562747, Note_on_c, 13, 69, 0
31, 562750, Note_on_c, 13, 63, 0
31, 562758, Note_on_c, 13, 66, 0
31, 562806, Note_on_c, 13, 60, 97
31, 562812, Note_on_c, 13, 64, 94
31, 562813, Note_on_c, 13, 67, 103
31, 562859, Note_on_c, 13, 60, 0
31, 562865, Note_on_c, 13, 64, 0
31, 562866, Note_on_c, 13, 67, 0
31, 562922, Note_on_c, 13, 59, 92
31, 562924, Note_on_c, 13, 61, 91
31, 562939, Note_on_c, 13, 65, 111
31, 562975, Note_on_c, 13, 59, 0
31, 562977, Note_on_c, 13, 61, 0
31, 562992, Note_on_c, 13, 65, 0
31, 563522, Note_on_c, 13, 58, 107
31, 563525, Note_on_c, 13, 62, 102
31, 563531, Note_on_c, 13, 69, 91
31, 563575, Note_on_c, 13, 58, 0
31, 563578, Note_on_c, 13, 62, 0
31, 563584, Note_on_c, 13, 69, 0
31, 564360, Note_on_c, 13, 62, 106
31, 564366, Note_on_c, 13, 58, 93
31, 564382, Note_on_c, 13, 69, 106
31, 564413, Note_on_c, 13, 62, 0
31, 564419, Note_on_c, 13, 58, 0
31, 564435, Note_on_c, 13, 69, 0
31, 576243, Note_on_c, 13, 62, 90
31, 577443, Note_on_c, 13, 62, 0
31, 577462, Note_on_c, 13, 60, 79
31, 577582, Note_on_c, 13, 60, 0
31, 577680, Note_on_c, 13, 58, 84
31, 577800, Note_on_c, 13, 58, 0
31, 577927, Note_on_c, 13, 56, 97
31, 578047, Note_on_c, 13, 56, 0
31, 578180, Note_on_c, 13, 60, 98
31, 578300, Note_on_c, 13, 60, 0
31, 578413, Note_on_c, 13, 62, 93
31, 578533, Note_on_c, 13, 62, 0
31, 580094, Note_on_c, 13, 60, 94
31, 580103, Note_on_c, 13, 67, 110
31, 580105, Note_on_c, 13, 72, 108
31, 580201, Note_on_c, 13, 60, 0
31, 580210, Note_on_c, 13, 67, 0
31, 580212, Note_on_c, 13, 72, 0
31, 581272, Program_c, 13, 44
31, 582268, Note_on_c, 13, 60, 102
31, 583677, Note_on_c, 13, 60, 0
31, 583696, Note_on_c, 13, 60, 106
31, 584656, Note_on_c, 13, 60, 0
31, 584880, Program_c, 13, 48
31, 584889, Note_on_c, 13, 72, 103
31, 584898, Note_on_c, 13, 67, 103
31, 584908, Note_on_c, 13, 60, 94
31, 584996, Note_on_c, 13, 72, 0
31, 585005, Note_on_c, 13, 67, 0
31, 585015, Note_on_c, 13, 60, 0
31, 588960, Note_on_c, 13, 68, 97
31, 588968, Note_on_c, 13, 73, 110
31, 588973, Note_on_c, 13, 65, 104
31, 589440, Note_on_c, 13, 68, 0
31, 589448, Note_on_c, 13, 73, 0
31, 589453, Note_on_c, 13, 65, 0
31, 589926, Note_on_c, 13, 60, 104
31, 589942, Note_on_c, 13, 67, 109
31, 589945, Note_on_c, 13, 72, 108
31, 590406, Note_on_c, 13, 60, 0
31, 590422, Note_on_c, 13, 67, 0
31, 590425, Note_on_c, 13, 72, 0
31, 590883, Note_on_c, 13, 56, 93
31, 591003, Note_on_c, 13, 56, 0
31, 591142, Note_on_c, 13, 55, 106
31, 591262, Note_on_c, 13, 55, 0
31, 591388, Note_on_c, 13, 53, 102
31, 591508, Note_on_c, 13, 53, 0
31, 591606, Note_on_c, 13, 56, 107
31, 591726, Note_on_c, 13, 56, 0
31, 591866, Note_on_c, 13, 58, 108
31, 592346, Note_on_c, 13, 58, 0
31, 592802, Note_on_c, 13, 56, 110
31, 592922, Note_on_c, 13, 56, 0
31, 593068, Note_on_c, 13, 55, 102
31, 593188, Note_on_c, 13, 55, 0
31, 593292, Note_on_c, 13, 53, 102
31, 593412, Note_on_c, 13, 53, 0
31, 593526, Note_on_c, 13, 56, 91
31, 593646, Note_on_c, 13, 56, 0
31, 593768, Note_on_c, 13, 58, 91
31, 594248, Note_on_c, 13, 58, 0
31, 594727, Note_on_c, 13, 67, 108
31, 594741, Note_on_c, 13, 72, 92
31, 594748, Note_on_c, 13, 60, 105
31, 595207, Note_on_c, 13, 67, 0
31, 595221, Note_on_c, 13, 72, 0
31, 595228, Note_on_c, 13, 60, 0
31, 595701, Note_on_c, 13, 56, 98
31, 595821, Note_on_c, 13, 56, 0
31, 595924, Note_on_c, 13, 55, 104
31, 596044, Note_on_c, 13, 55, 0
31, 596188, Note_on_c, 13, 53, 93
31, 596308, Note_on_c, 13, 53, 0
31, 596413, Note_on_c, 13, 56, 98
31, 596533, Note_on_c, 13, 56, 0
31, 596663, Note_on_c, 13, 58, 110
31, 597143, Note_on_c, 13, 58, 0
31, 597603, Note_on_c, 13, 56, 95
31, 597723, Note_on_c, 13, 56, 0
31, 597848, Note_on_c, 13, 55, 94
31, 597968, Note_on_c, 13, 55, 0
31, 598083, Note_on_c, 13, 53, 101
31, 598203, Note_on_c, 13, 53, 0
31, 598332, Note_on_c, 13, 56, 96
31, 598452, Note_on_c, 13, 56, 0
31, 598567, Note_on_c, 13, 58, 94
31, 599047, Note_on_c, 13, 58, 0
31, 599521, Note_on_c, 13, 72, 95
31, 599547, Note_on_c, 13, 60, 97
31, 599548, Note_on_c, 13, 67, 93
31, 599992, Note_on_c, 13, 67, 0
31, 600001, Note_on_c, 13, 72, 0
31, 600003, Note_on_c, 13, 58, 117
31, 600011, Note_on_c, 13, 67, 104
31, 600023, Note_on_c, 13, 75, 116
31, 600027, Note_on_c, 13, 60, 0
31, 600243, Note_on_c, 13, 58, 0
31, 600251, Note_on_c, 13, 67, 0
31, 600263, Note_on_c, 13, 75, 0
31, 600485, Note_on_c, 13, 73, 118
31, 600504, Note_on_c, 13, 64, 119
31, 600725, Note_on_c, 13, 73, 0
31, 600744, Note_on_c, 13, 64, 0
31, 600972, Note_on_c, 13, 74, 109
31, 600988, Note_on_c, 13, 65, 111
31, 601212, Note_on_c, 13, 74, 0
31, 601228, Note_on_c, 13, 65, 0
31, 601444, Note_on_c, 13, 59, 100
31, 601448, Note_on_c, 13, 75, 107
31, 601450, Note_on_c, 13, 66, 119
31, 601564, Note_on_c, 13, 59, 0
31, 601568, Note_on_c, 13, 75, 0
31, 601570, Note_on_c, 13, 66, 0
31, 601697, Note_on_c, 13, 72, 106
31, 601700, Note_on_c, 13, 63, 100
31, 601817, Note_on_c, 13, 72, 0
31, 601820, Note_on_c, 13, 63, 0
31, 602165, Note_on_c, 13, 72, 108
31, 602186, Note_on_c, 13, 63, 105
31, 602218, Note_on_c, 13, 72, 0
31, 602239, Note_on_c, 13, 63, 0
31, 602423, Note_on_c, 13, 63, 117
31, 602425, Note_on_c, 13, 72, 119
31, 602476, Note_on_c, 13, 63, 0
31, 602478, Note_on_c, 13, 72, 0
31, 602773, Note_on_c, 13, 72, 106
31, 602775, Note_on_c, 13, 63, 111
31, 602826, Note_on_c, 13, 72, 0
31, 602828, Note_on_c, 13, 63, 0
31, 603121, Note_on_c, 13, 61, 112
31, 603131, Note_on_c, 13, 63, 118
31, 603174, Note_on_c, 13, 61, 0
31, 603184, Note_on_c, 13, 63, 0
31, 603256, Note_on_c, 13, 62, 103
31, 603267, Note_on_c, 13, 61, 111
31, 603309, Note_on_c, 13, 62, 0
31, 603320, Note_on_c, 13, 61, 0
31, 603367, Note_on_c, 13, 61, 109
31, 603370, Note_on_c, 13, 62, 113
31, 603420, Note_on_c, 13, 61, 0
31, 603423, Note_on_c, 13, 62, 0
31, 603607, Note_on_c, 13, 63, 112
31, 603625, Note_on_c, 13, 72, 107
31, 603660, Note_on_c, 13, 63, 0
31, 603678, Note_on_c, 13, 72, 0
31, 603846, Note_on_c, 13, 63, 109
31, 603856, Note_on_c, 13, 61, 118
31, 603899, Note_on_c, 13, 63, 0
31, 603909, Note_on_c, 13, 61, 0
31, 603976, Note_on_c, 13, 61, 104
31, 603982, Note_on_c, 13, 62, 110
31, 604029, Note_on_c, 13, 61, 0
31, 604035, Note_on_c, 13, 62, 0
31, 604090, Note_on_c, 13, 62, 111
31, 604105, Note_on_c, 13, 61, 101
31, 604143, Note_on_c, 13, 62, 0
31, 604158, Note_on_c, 13, 61, 0
31, 604687, Note_on_c, 13, 62, 107
31, 604696, Note_on_c, 13, 74, 106
31, 604927, Note_on_c, 13, 62, 0
31, 604936, Note_on_c, 13, 74, 0
31, 605163, Note_on_c, 13, 62, 118
31, 605177, Note_on_c, 13, 74, 117
31, 605883, Note_on_c, 13, 62, 0
31, 605897, Note_on_c, 13, 74, 0
31, 606126, Note_on_c, 13, 62, 110
31, 606135, Note_on_c, 13, 74, 122
31, 606846, Note_on_c, 13, 62, 0
31, 606855, Note_on_c, 13, 74, 0
31, 607082, Note_on_c, 13, 74, 121
31, 607092, Note_on_c, 13, 62, 124
31, 607802, Note_on_c, 13, 74, 0
31, 607812, Note_on_c, 13, 62, 0
31, 608047, Note_on_c, 13, 74, 105
31, 608058, Note_on_c, 13, 62, 105
31, 608767, Note_on_c, 13, 74, 0
31, 608778, Note_on_c, 13, 62, 0
31, 609028, Note_on_c, 13, 60, 119
31, 609148, Note_on_c, 13, 60, 0
31, 609240, Note_on_c, 13, 58, 120
31, 609360, Note_on_c, 13, 58, 0
31, 609480, Note_on_c, 13, 56, 122
31, 609600, Note_on_c, 13, 56, 0
31, 609729, Note_on_c, 13, 60, 107
31, 609849, Note_on_c, 13, 60, 0
31, 609981, Note_on_c, 13, 62, 111
31, 610701, Note_on_c, 13, 62, 0
31, 610936, Note_on_c, 13, 62, 118
31, 610944, Note_on_c, 13, 74, 111
31, 611656, Note_on_c, 13, 62, 0
31, 611894, Note_on_c, 13, 60, 108
31, 611904, Note_on_c, 13, 74, 0
31, 612014, Note_on_c, 13, 60, 0
31, 612130, Note_on_c, 13, 58, 112
31, 612250, Note_on_c, 13, 58, 0
31, 612375, Note_on_c, 13, 56, 105
31, 612495, Note_on_c, 13, 56, 0
31, 612616, Note_on_c, 13, 60, 121
31, 612736, Note_on_c, 13, 60, 0
31, 612866, Note_on_c, 13, 62, 122
31, 613586, Note_on_c, 13, 62, 0
31, 613806, Note_on_c, 13, 62, 110
31, 613809, Note_on_c, 13, 74, 122
31, 614046, Note_on_c, 13, 62, 0
31, 614049, Note_on_c, 13, 74, 0
31, 614296, Note_on_c, 13, 60, 116
31, 614416, Note_on_c, 13, 60, 0
31, 614527, Note_on_c, 13, 58, 105
31, 614647, Note_on_c, 13, 58, 0
31, 614778, Note_on_c, 13, 56, 116
31, 614898, Note_on_c, 13, 56, 0
31, 615023, Note_on_c, 13, 60, 122
31, 615143, Note_on_c, 13, 60, 0
31, 615246, Note_on_c, 13, 62, 110
31, 615486, Note_on_c, 13, 62, 0
31, 615723, Note_on_c, 13, 74, 114
31, 615732, Note_on_c, 13, 62, 124
31, 616441, Note_on_c, 13, 76, 104
31, 616443, Note_on_c, 13, 74, 0
31, 616452, Note_on_c, 13, 62, 0
31, 616501, Note_on_c, 13, 76, 0
31, 616526, Note_on_c, 13, 77, 113
31, 616579, Note_on_c, 13, 79, 124
31, 616586, Note_on_c, 13, 77, 0
31, 616639, Note_on_c, 13, 79, 0
31, 616649, Note_on_c, 13, 80, 121
31, 616690, Note_on_c, 13, 82, 116
31, 616709, Note_on_c, 13, 80, 0
31, 616930, Note_on_c, 13, 82, 0
31, 617163, Note_on_c, 13, 80, 120
31, 617403, Note_on_c, 13, 80, 0
31, 617407, Note_on_c, 13, 76, 113
31, 617467, Note_on_c, 13, 76, 0
31, 617488, Note_on_c, 13, 78, 115
31, 617530, Note_on_c, 13, 79, 124
31, 617548, Note_on_c, 13, 78, 0
31, 617590, Note_on_c, 13, 79, 0
31, 617594, Note_on_c, 13, 80, 113
31, 617642, Note_on_c, 13, 82, 104
31, 617654, Note_on_c, 13, 80, 0
31, 617882, Note_on_c, 13, 82, 0
31, 618143, Note_on_c, 13, 79, 110
31, 618383, Note_on_c, 13, 79, 0
31, 618386, Note_on_c, 13, 76, 123
31, 618435, Note_on_c, 13, 77, 110
31, 618446, Note_on_c, 13, 76, 0
31, 618495, Note_on_c, 13, 77, 0
31, 618504, Note_on_c, 13, 79, 110
31, 618551, Note_on_c, 13, 80, 109
31, 618564, Note_on_c, 13, 79, 0
31, 618602, Note_on_c, 13, 82, 119
31, 618611, Note_on_c, 13, 80, 0
31, 618842, Note_on_c, 13, 82, 0
31, 619090, Note_on_c, 13, 78, 121
31, 619210, Note_on_c, 13, 78, 0
31, 619341, Note_on_c, 13, 77, 109
31, 619461, Note_on_c, 13, 77, 0
31, 619560, Note_on_c, 13, 75, 117
31, 619800, Note_on_c, 13, 75, 0
31, 619812, Note_on_c, 13, 78, 121
31, 620040, Note_on_c, 13, 80, 108
31, 620052, Note_on_c, 13, 78, 0
31, 620288, Note_on_c, 13, 76, 122
31, 620343, Note_on_c, 13, 78, 112
31, 620348, Note_on_c, 13, 76, 0
31, 620402, Note_on_c, 13, 79, 122
31, 620403, Note_on_c, 13, 78, 0
31, 620462, Note_on_c, 13, 79, 0
31, 620467, Note_on_c, 13, 80, 0
31, 620486, Note_on_c, 13, 80, 115
31, 620537, Note_on_c, 13, 82, 117
31, 620546, Note_on_c, 13, 80, 0
31, 620777, Note_on_c, 13, 82, 0
31, 621001, Note_on_c, 13, 80, 123
31, 621264, Note_on_c, 13, 76, 116
31, 621322, Note_on_c, 13, 78, 118
31, 621324, Note_on_c, 13, 76, 0
31, 621381, Note_on_c, 13, 79, 120
31, 621382, Note_on_c, 13, 78, 0
31, 621407, Note_on_c, 13, 80, 0
31, 621426, Note_on_c, 13, 80, 117
31, 621441, Note_on_c, 13, 79, 0
31, 621486, Note_on_c, 13, 80, 0
31, 621491, Note_on_c, 13, 82, 119
31, 621731, Note_on_c, 13, 82, 0
31, 621979, Note_on_c, 13, 79, 118
31, 622226, Note_on_c, 13, 76, 115
31, 622286, Note_on_c, 13, 76, 0
31, 622289, Note_on_c, 13, 78, 108
31, 622310, Note_on_c, 13, 79, 0
31, 622329, Note_on_c, 13, 79, 118
31, 622349, Note_on_c, 13, 78, 0
31, 622406, Note_on_c, 13, 80, 123
31, 622444, Note_on_c, 13, 82, 117
31, 622449, Note_on_c, 13, 79, 0
31, 622466, Note_on_c, 13, 80, 0
31, 622684, Note_on_c, 13, 82, 0
31, 622927, Note_on_c, 13, 78, 116
31, 623155, Note_on_c, 13, 78, 0
31, 623175, Note_on_c, 13, 78, 119
31, 623415, Note_on_c, 13, 78, 0
31, 623427, Note_on_c, 13, 75, 110
31, 623547, Note_on_c, 13, 75, 0
31, 623644, Note_on_c, 13, 78, 112
31, 623764, Note_on_c, 13, 78, 0
31, 623900, Note_on_c, 13, 80, 119
31, 624131, Note_on_c, 13, 76, 106
31, 624191, Note_on_c, 13, 76, 0
31, 624203, Note_on_c, 13, 78, 109
31, 624263, Note_on_c, 13, 78, 0
31, 624264, Note_on_c, 13, 79, 120
31, 624307, Note_on_c, 13, 80, 0
31, 624324, Note_on_c, 13, 79, 0
31, 624327, Note_on_c, 13, 80, 110
31, 624361, Note_on_c, 13, 82, 106
31, 624387, Note_on_c, 13, 80, 0
31, 624601, Note_on_c, 13, 82, 0
31, 624846, Note_on_c, 13, 80, 123
31, 625090, Note_on_c, 13, 76, 112
31, 625150, Note_on_c, 13, 76, 0
31, 625164, Note_on_c, 13, 77, 111
31, 625200, Note_on_c, 13, 78, 124
31, 625224, Note_on_c, 13, 77, 0
31, 625251, Note_on_c, 13, 80, 0
31, 625260, Note_on_c, 13, 78, 0
31, 625270, Note_on_c, 13, 80, 121
31, 625330, Note_on_c, 13, 80, 0
31, 625338, Note_on_c, 13, 82, 117
31, 625578, Note_on_c, 13, 82, 0
31, 625809, Note_on_c, 13, 78, 109
31, 625929, Note_on_c, 13, 78, 0
31, 626066, Note_on_c, 13, 77, 124
31, 626186, Note_on_c, 13, 77, 0
31, 626293, Note_on_c, 13, 75, 112
31, 626413, Note_on_c, 13, 75, 0
31, 626521, Note_on_c, 13, 80, 123
31, 626641, Note_on_c, 13, 80, 0
31, 626784, Note_on_c, 13, 82, 116
31, 626904, Note_on_c, 13, 82, 0
31, 627021, Note_on_c, 13, 75, 108
31, 627141, Note_on_c, 13, 75, 0
31, 627268, Note_on_c, 13, 73, 113
31, 627388, Note_on_c, 13, 73, 0
31, 627488, Note_on_c, 13, 77, 105
31, 627608, Note_on_c, 13, 77, 0
31, 627745, Note_on_c, 13, 79, 106
31, 627745, Note_on_c, 13, 70, 113
31, 627865, Note_on_c, 13, 79, 0
31, 627865, Note_on_c, 13, 70, 0
31, 628467, Note_on_c, 13, 53, 93
31, 628527, Note_on_c, 13, 53, 0
31, 628567, Note_on_c, 13, 54, 80
31, 628627, Note_on_c, 13, 54, 0
31, 628684, Note_on_c, 13, 52, 81
31, 628744, Note_on_c, 13, 52, 0
31, 629179, Note_on_c, 13, 53, 85
31, 629239, Note_on_c, 13, 53, 0
31, 629290, Note_on_c, 13, 54, 94
31, 629350, Note_on_c, 13, 54, 0
31, 629409, Note_on_c, 13, 52, 83
31, 629469, Note_on_c, 13, 52, 0
31, 630244, Note_on_c, 13, 53, 93
31, 630304, Note_on_c, 13, 53, 0
31, 630366, Note_on_c, 13, 54, 96
31, 630426, Note_on_c, 13, 54, 0
31, 630482, Note_on_c, 13, 52, 87
31, 630542, Note_on_c, 13, 52, 0
31, 631343, Note_on_c, 13, 53, 82
31, 631403, Note_on_c, 13, 53, 0
31, 631444, Note_on_c, 13, 54, 87
31, 631504, Note_on_c, 13, 54, 0
31, 631578, Note_on_c, 13, 52, 84
31, 631638, Note_on_c, 13, 52, 0
31, 632051, Note_on_c, 13, 53, 84
31, 632111, Note_on_c, 13, 53, 0
31, 632164, Note_on_c, 13, 54, 83
31, 632224, Note_on_c, 13, 54, 0
31, 632285, Note_on_c, 13, 52, 83
31, 632345, Note_on_c, 13, 52, 0
31, 633124, Note_on_c, 13, 57, 95
31, 633133, Note_on_c, 13, 67, 94
31, 633147, Note_on_c, 13, 69, 83
31, 633184, Note_on_c, 13, 57, 0
31, 633193, Note_on_c, 13, 67, 0
31, 633207, Note_on_c, 13, 69, 0
31, 633361, Note_on_c, 13, 67, 85
31, 633383, Note_on_c, 13, 69, 94
31, 633385, Note_on_c, 13, 57, 92
31, 633421, Note_on_c, 13, 67, 0
31, 633443, Note_on_c, 13, 69, 0
31, 633445, Note_on_c, 13, 57, 0
31, 633740, Note_on_c, 13, 62, 88
31, 633742, Note_on_c, 13, 65, 93
31, 633744, Note_on_c, 13, 59, 85
31, 633800, Note_on_c, 13, 62, 0
31, 633802, Note_on_c, 13, 65, 0
31, 633804, Note_on_c, 13, 59, 0
31, 633845, Note_on_c, 13, 66, 89
31, 633858, Note_on_c, 13, 63, 97
31, 633865, Note_on_c, 13, 60, 84
31, 633905, Note_on_c, 13, 66, 0
31, 633918, Note_on_c, 13, 63, 0
31, 633925, Note_on_c, 13, 60, 0
31, 633966, Note_on_c, 13, 64, 88
31, 633975, Note_on_c, 13, 61, 80
31, 633981, Note_on_c, 13, 67, 91
31, 634026, Note_on_c, 13, 64, 0
31, 634035, Note_on_c, 13, 61, 0
31, 634041, Note_on_c, 13, 67, 0
31, 634807, Note_on_c, 13, 67, 90
31, 634825, Note_on_c, 13, 57, 81
31, 634825, Note_on_c, 13, 69, 91
31, 634867, Note_on_c, 13, 67, 0
31, 634885, Note_on_c, 13, 57, 0
31, 634885, Note_on_c, 13, 69, 0
31, 635053, Note_on_c, 13, 69, 88
31, 635056, Note_on_c, 13, 57, 88
31, 635059, Note_on_c, 13, 67, 89
31, 635113, Note_on_c, 13, 69, 0
31, 635116, Note_on_c, 13, 57, 0
31, 635119, Note_on_c, 13, 67, 0
31, 636004, Note_on_c, 13, 61, 97
31, 636010, Note_on_c, 13, 76, 94
31, 636023, Note_on_c, 13, 64, 93
31, 636064, Note_on_c, 13, 61, 0
31, 636070, Note_on_c, 13, 76, 0
31, 636083, Note_on_c, 13, 64, 0
31, 636249, Note_on_c, 13, 64, 93
31, 636250, Note_on_c, 13, 61, 79
31, 636250, Note_on_c, 13, 76, 95
31, 636309, Note_on_c, 13, 64, 0
31, 636310, Note_on_c, 13, 61, 0
31, 636310, Note_on_c, 13, 76, 0
31, 636612, Note_on_c, 13, 65, 87
31, 636665, Note_on_c, 13, 65, 0
31, 636742, Note_on_c, 13, 66, 80
31, 636795, Note_on_c, 13, 66, 0
31, 636847, Note_on_c, 13, 67, 83
31, 636900, Note_on_c, 13, 67, 0
31, 637096, Note_on_c, 13, 76, 97
31, 637097, Note_on_c, 13, 64, 83
31, 637106, Note_on_c, 13, 61, 85
31, 637156, Note_on_c, 13, 76, 0
31, 637157, Note_on_c, 13, 64, 0
31, 637166, Note_on_c, 13, 61, 0
31, 637323, Note_on_c, 13, 61, 94
31, 637326, Note_on_c, 13, 64, 97
31, 637328, Note_on_c, 13, 76, 89
31, 637383, Note_on_c, 13, 61, 0
31, 637386, Note_on_c, 13, 64, 0
31, 637388, Note_on_c, 13, 76, 0
31, 637704, Note_on_c, 13, 65, 95
31, 637757, Note_on_c, 13, 65, 0
31, 637826, Note_on_c, 13, 66, 92
31, 637879, Note_on_c, 13, 66, 0
31, 637921, Note_on_c, 13, 67, 78
31, 637974, Note_on_c, 13, 67, 0
31, 638163, Note_on_c, 13, 61, 92
31, 638180, Note_on_c, 13, 64, 88
31, 638187, Note_on_c, 13, 76, 94
31, 638223, Note_on_c, 13, 61, 0
31, 638240, Note_on_c, 13, 64, 0
31, 638247, Note_on_c, 13, 76, 0
31, 638404, Note_on_c, 13, 76, 81
31, 638415, Note_on_c, 13, 64, 90
31, 638428, Note_on_c, 13, 61, 88
31, 638464, Note_on_c, 13, 76, 0
31, 638475, Note_on_c, 13, 64, 0
31, 638488, Note_on_c, 13, 61, 0
31, 638787, Note_on_c, 13, 65, 80
31, 638840, Note_on_c, 13, 65, 0
31, 638907, Note_on_c, 13, 66, 89
31, 638960, Note_on_c, 13, 66, 0
31, 639014, Note_on_c, 13, 67, 80
31, 639067, Note_on_c, 13, 67, 0
31, 639254, Note_on_c, 13, 64, 92
31, 639258, Note_on_c, 13, 76, 94
31, 639261, Note_on_c, 13, 61, 92
31, 639314, Note_on_c, 13, 64, 0
31, 639318, Note_on_c, 13, 76, 0
31, 639321, Note_on_c, 13, 61, 0
31, 639494, Note_on_c, 13, 65, 95
31, 639547, Note_on_c, 13, 65, 0
31, 639615, Note_on_c, 13, 66, 84
31, 639668, Note_on_c, 13, 66, 0
31, 639748, Note_on_c, 13, 67, 88
31, 639801, Note_on_c, 13, 67, 0
31, 639980, Note_on_c, 13, 72, 96
31, 640040, Note_on_c, 13, 72, 0
31, 640087, Note_on_c, 13, 76, 108
31, 640147, Note_on_c, 13, 76, 0
31, 640331, Note_on_c, 13, 70, 94
31, 640348, Note_on_c, 13, 65, 92
31, 640391, Note_on_c, 13, 70, 0
31, 640408, Note_on_c, 13, 65, 0
31, 640580, Note_on_c, 13, 58, 68
31, 640640, Note_on_c, 13, 58, 0
31, 640682, Note_on_c, 13, 64, 68
31, 640742, Note_on_c, 13, 64, 0
31, 640948, Note_on_c, 13, 55, 58
31, 641008, Note_on_c, 13, 55, 0
31, 641170, Note_on_c, 13, 67, 107
31, 641230, Note_on_c, 13, 67, 0
31, 641285, Note_on_c, 13, 72, 92
31, 641345, Note_on_c, 13, 72, 0
31, 641421, Note_on_c, 13, 76, 109
31, 641481, Note_on_c, 13, 76, 0
31, 641650, Note_on_c, 13, 70, 87
31, 641653, Note_on_c, 13, 65, 81
31, 641710, Note_on_c, 13, 70, 0
31, 641713, Note_on_c, 13, 65, 0
31, 641898, Note_on_c, 13, 58, 65
31, 641958, Note_on_c, 13, 58, 0
31, 642023, Note_on_c, 13, 64, 65
31, 642083, Note_on_c, 13, 64, 0
31, 642265, Note_on_c, 13, 55, 61
31, 642325, Note_on_c, 13, 55, 0
31, 642488, Note_on_c, 13, 58, 66
31, 642548, Note_on_c, 13, 58, 0
31, 642601, Note_on_c, 13, 64, 56
31, 642661, Note_on_c, 13, 64, 0
31, 642847, Note_on_c, 13, 55, 72
31, 642907, Note_on_c, 13, 55, 0
31, 643095, Note_on_c, 13, 67, 71
31, 643155, Note_on_c, 13, 67, 0
31, 643220, Note_on_c, 13, 58, 55
31, 643280, Note_on_c, 13, 58, 0
31, 643344, Note_on_c, 13, 64, 58
31, 643404, Note_on_c, 13, 64, 0
31, 643565, Note_on_c, 13, 55, 55
31, 643625, Note_on_c, 13, 55, 0
31, 643803, Note_on_c, 13, 58, 72
31, 643863, Note_on_c, 13, 58, 0
31, 643946, Note_on_c, 13, 64, 58
31, 644006, Note_on_c, 13, 64, 0
31, 644175, Note_on_c, 13, 55, 69
31, 644235, Note_on_c, 13, 55, 0
31, 644407, Note_on_c, 13, 61, 63
31, 644467, Note_on_c, 13, 61, 0
31, 644528, Note_on_c, 13, 67, 57
31, 644588, Note_on_c, 13, 67, 0
31, 644644, Note_on_c, 13, 58, 72
31, 644704, Note_on_c, 13, 58, 0
31, 644903, Note_on_c, 13, 64, 60
31, 644963, Note_on_c, 13, 64, 0
31, 645145, Note_on_c, 13, 55, 57
31, 645265, Note_on_c, 13, 55, 0
31, 645361, Note_on_c, 13, 72, 91
31, 645421, Note_on_c, 13, 72, 0
31, 645491, Note_on_c, 13, 76, 95
31, 645551, Note_on_c, 13, 76, 0
31, 645722, Note_on_c, 13, 65, 79
31, 645735, Note_on_c, 13, 70, 82
31, 645782, Note_on_c, 13, 65, 0
31, 645795, Note_on_c, 13, 70, 0
31, 645978, Note_on_c, 13, 67, 80
31, 646038, Note_on_c, 13, 67, 0
31, 646095, Note_on_c, 13, 58, 70
31, 646155, Note_on_c, 13, 58, 0
31, 646228, Note_on_c, 13, 64, 68
31, 646288, Note_on_c, 13, 64, 0
31, 646444, Note_on_c, 13, 55, 68
31, 646564, Note_on_c, 13, 55, 0
31, 646697, Note_on_c, 13, 72, 92
31, 646757, Note_on_c, 13, 72, 0
31, 646815, Note_on_c, 13, 76, 96
31, 646875, Note_on_c, 13, 76, 0
31, 647045, Note_on_c, 13, 70, 97
31, 647063, Note_on_c, 13, 65, 97
31, 647105, Note_on_c, 13, 70, 0
31, 647123, Note_on_c, 13, 65, 0
31, 647304, Note_on_c, 13, 67, 95
31, 647364, Note_on_c, 13, 67, 0
31, 647409, Note_on_c, 13, 72, 107
31, 647469, Note_on_c, 13, 72, 0
31, 647524, Note_on_c, 13, 76, 99
31, 647584, Note_on_c, 13, 76, 0
31, 647774, Note_on_c, 13, 70, 86
31, 647787, Note_on_c, 13, 65, 98
31, 647834, Note_on_c, 13, 70, 0
31, 647847, Note_on_c, 13, 65, 0
31, 648029, Note_on_c, 13, 72, 102
31, 648089, Note_on_c, 13, 72, 0
31, 648136, Note_on_c, 13, 76, 99
31, 648196, Note_on_c, 13, 76, 0
31, 648367, Note_on_c, 13, 77, 111
31, 648427, Note_on_c, 13, 77, 0
31, 648601, Note_on_c, 13, 65, 94
31, 648608, Note_on_c, 13, 70, 83
31, 648661, Note_on_c, 13, 65, 0
31, 648668, Note_on_c, 13, 70, 0
31, 648853, Note_on_c, 13, 67, 101
31, 648913, Note_on_c, 13, 67, 0
31, 648974, Note_on_c, 13, 72, 98
31, 649034, Note_on_c, 13, 72, 0
31, 649092, Note_on_c, 13, 76, 92
31, 649152, Note_on_c, 13, 76, 0
31, 649329, Note_on_c, 13, 77, 97
31, 649389, Note_on_c, 13, 77, 0
31, 649563, Note_on_c, 13, 65, 81
31, 649577, Note_on_c, 13, 70, 87
31, 649623, Note_on_c, 13, 65, 0
31, 649637, Note_on_c, 13, 70, 0
31, 649801, Note_on_c, 13, 72, 96
31, 649861, Note_on_c, 13, 72, 0
31, 649924, Note_on_c, 13, 76, 103
31, 649984, Note_on_c, 13, 76, 0
31, 650166, Note_on_c, 13, 70, 81
31, 650178, Note_on_c, 13, 65, 95
31, 650226, Note_on_c, 13, 70, 0
31, 650238, Note_on_c, 13, 65, 0
31, 650402, Note_on_c, 13, 67, 102
31, 650462, Note_on_c, 13, 67, 0
31, 650525, Note_on_c, 13, 72, 94
31, 650585, Note_on_c, 13, 72, 0
31, 650642, Note_on_c, 13, 76, 97
31, 650702, Note_on_c, 13, 76, 0
31, 650904, Note_on_c, 13, 77, 91
31, 650964, Note_on_c, 13, 77, 0
31, 651126, Note_on_c, 13, 65, 82
31, 651142, Note_on_c, 13, 70, 92
31, 651186, Note_on_c, 13, 65, 0
31, 651202, Note_on_c, 13, 70, 0
31, 651376, Note_on_c, 13, 67, 93
31, 651436, Note_on_c, 13, 67, 0
31, 651496, Note_on_c, 13, 72, 99
31, 651556, Note_on_c, 13, 72, 0
31, 651628, Note_on_c, 13, 76, 94
31, 651688, Note_on_c, 13, 76, 0
31, 651864, Note_on_c, 13, 77, 107
31, 651924, Note_on_c, 13, 77, 0
31, 652084, Note_on_c, 13, 67, 105
31, 652144, Note_on_c, 13, 67, 0
31, 652202, Note_on_c, 13, 72, 101
31, 652262, Note_on_c, 13, 72, 0
31, 652348, Note_on_c, 13, 76, 95
31, 652408, Note_on_c, 13, 76, 0
31, 652572, Note_on_c, 13, 77, 92
31, 652632, Note_on_c, 13, 77, 0
31, 652828, Note_on_c, 13, 65, 87
31, 652828, Note_on_c, 13, 70, 95
31, 652888, Note_on_c, 13, 65, 0
31, 652888, Note_on_c, 13, 70, 0
31, 653063, Note_on_c, 13, 67, 110
31, 653123, Note_on_c, 13, 67, 0
31, 653184, Note_on_c, 13, 72, 97
31, 653244, Note_on_c, 13, 72, 0
31, 653291, Note_on_c, 13, 76, 101
31, 653351, Note_on_c, 13, 76, 0
31, 653525, Note_on_c, 13, 77, 91
31, 653585, Note_on_c, 13, 77, 0
31, 653776, Note_on_c, 13, 67, 91
31, 653836, Note_on_c, 13, 67, 0
31, 653880, Note_on_c, 13, 72, 99
31, 653940, Note_on_c, 13, 72, 0
31, 654023, Note_on_c, 13, 76, 92
31, 654083, Note_on_c, 13, 76, 0
31, 654267, Note_on_c, 13, 77, 104
31, 654327, Note_on_c, 13, 77, 0
31, 654497, Note_on_c, 13, 65, 98
31, 654507, Note_on_c, 13, 70, 96
31, 654557, Note_on_c, 13, 65, 0
31, 654567, Note_on_c, 13, 70, 0
31, 654722, Note_on_c, 13, 67, 98
31, 654782, Note_on_c, 13, 67, 0
31, 654849, Note_on_c, 13, 72, 94
31, 654909, Note_on_c, 13, 72, 0
31, 654967, Note_on_c, 13, 76, 105
31, 655027, Note_on_c, 13, 76, 0
31, 655085, Note_on_c, 13, 77, 96
31, 655145, Note_on_c, 13, 77, 0
31, 655326, Note_on_c, 13, 58, 121
31, 655342, Note_on_c, 13, 76, 105
31, 655346, Note_on_c, 13, 66, 121
31, 655386, Note_on_c, 13, 58, 0
31, 655402, Note_on_c, 13, 76, 0
31, 655406, Note_on_c, 13, 66, 0
31, 657874, Note_on_c, 13, 55, 112
31, 657904, Note_on_c, 13, 55, 0
31, 657912, Note_on_c, 13, 67, 110
31, 657934, Note_on_c, 13, 69, 124
31, 657942, Note_on_c, 13, 67, 0
31, 657964, Note_on_c, 13, 69, 0
31, 657973, Note_on_c, 13, 79, 115
31, 658033, Note_on_c, 13, 79, 0
31, 658033, End_track
32, 0, Start_track
32, 0, Title_t, "Viole II"
32, 0, MIDI_port, 0
32, 0, Program_c, 13, 48
32, 10569, Note_on_c, 13, 63, 74
32, 10809, Note_on_c, 13, 63, 0
32, 10826, Note_on_c, 13, 68, 69
32, 11040, Note_on_c, 13, 61, 68
32, 11066, Note_on_c, 13, 68, 0
32, 11280, Note_on_c, 13, 61, 0
32, 11305, Note_on_c, 13, 70, 75
32, 11524, Note_on_c, 13, 65, 66
32, 11545, Note_on_c, 13, 70, 0
32, 11764, Note_on_c, 13, 65, 0
32, 11770, Note_on_c, 13, 69, 66
32, 12010, Note_on_c, 13, 69, 0
32, 12020, Note_on_c, 13, 70, 56
32, 12251, Note_on_c, 13, 72, 46
32, 12260, Note_on_c, 13, 70, 0
32, 12487, Note_on_c, 13, 70, 46
32, 12491, Note_on_c, 13, 72, 0
32, 12727, Note_on_c, 13, 70, 0
32, 12737, Note_on_c, 13, 68, 56
32, 12977, Note_on_c, 13, 68, 0
32, 12979, Note_on_c, 13, 66, 56
32, 13205, Note_on_c, 13, 68, 36
32, 13219, Note_on_c, 13, 66, 0
32, 13445, Note_on_c, 13, 68, 0
32, 15386, Note_on_c, 13, 63, 72
32, 15624, Note_on_c, 13, 68, 76
32, 15626, Note_on_c, 13, 63, 0
32, 15846, Note_on_c, 13, 61, 74
32, 15864, Note_on_c, 13, 68, 0
32, 16086, Note_on_c, 13, 61, 0
32, 16092, Note_on_c, 13, 70, 61
32, 16331, Note_on_c, 13, 65, 73
32, 16332, Note_on_c, 13, 70, 0
32, 16568, Note_on_c, 13, 69, 54
32, 16571, Note_on_c, 13, 65, 0
32, 16808, Note_on_c, 13, 69, 0
32, 16820, Note_on_c, 13, 70, 56
32, 17060, Note_on_c, 13, 70, 0
32, 19696, Note_on_c, 13, 63, 67
32, 19926, Note_on_c, 13, 68, 69
32, 19936, Note_on_c, 13, 63, 0
32, 20166, Note_on_c, 13, 68, 0
32, 20188, Note_on_c, 13, 61, 60
32, 20422, Note_on_c, 13, 70, 62
32, 20428, Note_on_c, 13, 61, 0
32, 20662, Note_on_c, 13, 70, 0
32, 20665, Note_on_c, 13, 65, 56
32, 20891, Note_on_c, 13, 69, 47
32, 20905, Note_on_c, 13, 65, 0
32, 21131, Note_on_c, 13, 69, 0
32, 21136, Note_on_c, 13, 70, 49
32, 21371, Note_on_c, 13, 68, 57
32, 21376, Note_on_c, 13, 70, 0
32, 21603, Note_on_c, 13, 66, 42
32, 21611, Note_on_c, 13, 68, 0
32, 21843, Note_on_c, 13, 66, 0
32, 21852, Note_on_c, 13, 64, 45
32, 22092, Note_on_c, 13, 64, 0
32, 22101, Note_on_c, 13, 63, 45
32, 22334, Note_on_c, 13, 61, 45
32, 22341, Note_on_c, 13, 63, 0
32, 22526, Note_on_c, 13, 61, 0
32, 22585, Note_on_c, 13, 61, 50
32, 22805, Note_on_c, 13, 67, 55
32, 22825, Note_on_c, 13, 61, 0
32, 23045, Note_on_c, 13, 67, 0
32, 23051, Note_on_c, 13, 65, 52
32, 23288, Note_on_c, 13, 71, 54
32, 23291, Note_on_c, 13, 65, 0
32, 23528, Note_on_c, 13, 71, 0
32, 23543, Note_on_c, 13, 70, 47
32, 23759, Note_on_c, 13, 70, 0
32, 23764, Note_on_c, 13, 76, 39
32, 23956, Note_on_c, 13, 76, 0
32, 24010, Note_on_c, 13, 75, 42
32, 24250, Note_on_c, 13, 75, 0
32, 24251, Note_on_c, 13, 76, 45
32, 24489, Note_on_c, 13, 72, 48
32, 24491, Note_on_c, 13, 76, 0
32, 24729, Note_on_c, 13, 72, 0
32, 24742, Note_on_c, 13, 75, 40
32, 24962, Note_on_c, 13, 63, 47
32, 24982, Note_on_c, 13, 75, 0
32, 25202, Note_on_c, 13, 63, 0
32, 25208, Note_on_c, 13, 61, 47
32, 25400, Note_on_c, 13, 61, 0
32, 25455, Note_on_c, 13, 58, 52
32, 25680, Note_on_c, 13, 70, 51
32, 25695, Note_on_c, 13, 58, 0
32, 25920, Note_on_c, 13, 70, 0
32, 25921, Note_on_c, 13, 71, 41
32, 26161, Note_on_c, 13, 71, 0
32, 26182, Note_on_c, 13, 74, 41
32, 26421, Note_on_c, 13, 70, 47
32, 26422, Note_on_c, 13, 74, 0
32, 26642, Note_on_c, 13, 71, 51
32, 26661, Note_on_c, 13, 70, 0
32, 26882, Note_on_c, 13, 71, 0
32, 26901, Note_on_c, 13, 62, 49
32, 27138, Note_on_c, 13, 70, 40
32, 27141, Note_on_c, 13, 62, 0
32, 27378, Note_on_c, 13, 70, 0
32, 27382, Note_on_c, 13, 71, 41
32, 27603, Note_on_c, 13, 70, 42
32, 27622, Note_on_c, 13, 71, 0
32, 27843, Note_on_c, 13, 70, 0
32, 27852, Note_on_c, 13, 77, 55
32, 28091, Note_on_c, 13, 76, 39
32, 28092, Note_on_c, 13, 77, 0
32, 28331, Note_on_c, 13, 76, 0
32, 34086, Note_on_c, 13, 62, 59
32, 34326, Note_on_c, 13, 62, 0
32, 34333, Note_on_c, 13, 72, 59
32, 34573, Note_on_c, 13, 72, 0
32, 34579, Note_on_c, 13, 65, 42
32, 34812, Note_on_c, 13, 76, 40
32, 34819, Note_on_c, 13, 65, 0
32, 35043, Note_on_c, 13, 69, 48
32, 35052, Note_on_c, 13, 76, 0
32, 35283, Note_on_c, 13, 69, 0
32, 35290, Note_on_c, 13, 74, 48
32, 35518, Note_on_c, 13, 74, 0
32, 35525, Note_on_c, 13, 68, 66
32, 35540, Note_on_c, 13, 74, 53
32, 36245, Note_on_c, 13, 68, 0
32, 36260, Note_on_c, 13, 74, 0
32, 36260, Note_on_c, 13, 69, 62
32, 36268, Note_on_c, 13, 72, 68
32, 36485, Note_on_c, 13, 68, 58
32, 36497, Note_on_c, 13, 74, 57
32, 36500, Note_on_c, 13, 69, 0
32, 36508, Note_on_c, 13, 72, 0
32, 36964, Note_on_c, 13, 67, 66
32, 36965, Note_on_c, 13, 68, 0
32, 36976, Note_on_c, 13, 70, 62
32, 36977, Note_on_c, 13, 74, 0
32, 37204, Note_on_c, 13, 67, 0
32, 37213, Note_on_c, 13, 68, 56
32, 37216, Note_on_c, 13, 70, 0
32, 37226, Note_on_c, 13, 71, 57
32, 37429, Note_on_c, 13, 71, 0
32, 37448, Note_on_c, 13, 71, 69
32, 37451, Note_on_c, 13, 67, 63
32, 37453, Note_on_c, 13, 68, 0
32, 37920, Note_on_c, 13, 70, 65
32, 37928, Note_on_c, 13, 71, 0
32, 38363, Note_on_c, 13, 67, 0
32, 38376, Note_on_c, 13, 70, 0
32, 38403, Note_on_c, 13, 74, 71
32, 38405, Note_on_c, 13, 68, 60
32, 39123, Note_on_c, 13, 74, 0
32, 39124, Note_on_c, 13, 72, 61
32, 39125, Note_on_c, 13, 68, 0
32, 39130, Note_on_c, 13, 69, 57
32, 39362, Note_on_c, 13, 74, 52
32, 39363, Note_on_c, 13, 68, 67
32, 39364, Note_on_c, 13, 72, 0
32, 39370, Note_on_c, 13, 69, 0
32, 39602, Note_on_c, 13, 74, 0
32, 39603, Note_on_c, 13, 68, 0
32, 70073, Program_c, 10, 45
32, 70096, Note_on_c, 10, 58, 61
32, 70576, Note_on_c, 10, 58, 0
32, 70582, Note_on_c, 10, 56, 55
32, 71043, Note_on_c, 10, 53, 69
32, 71062, Note_on_c, 10, 56, 0
32, 71523, Note_on_c, 10, 53, 0
32, 71548, Note_on_c, 10, 56, 68
32, 72004, Note_on_c, 10, 52, 66
32, 72028, Note_on_c, 10, 56, 0
32, 72484, Note_on_c, 10, 52, 0
32, 74416, Note_on_c, 10, 58, 57
32, 74885, Note_on_c, 10, 56, 64
32, 74896, Note_on_c, 10, 58, 0
32, 75365, Note_on_c, 10, 56, 0
32, 75367, Note_on_c, 10, 53, 53
32, 75847, Note_on_c, 10, 53, 0
32, 75868, Note_on_c, 10, 58, 69
32, 76329, Note_on_c, 10, 52, 55
32, 76348, Note_on_c, 10, 58, 0
32, 76809, Note_on_c, 10, 52, 0
32, 77287, Note_on_c, 10, 58, 56
32, 77767, Note_on_c, 10, 58, 0
32, 77778, Note_on_c, 10, 56, 71
32, 78248, Note_on_c, 10, 55, 69
32, 78258, Note_on_c, 10, 56, 0
32, 78720, Note_on_c, 10, 53, 63
32, 78728, Note_on_c, 10, 55, 0
32, 79200, Note_on_c, 10, 53, 0
32, 79218, Note_on_c, 10, 56, 61
32, 79695, Note_on_c, 10, 52, 68
32, 79698, Note_on_c, 10, 56, 0
32, 80163, Note_on_c, 10, 58, 58
32, 80175, Note_on_c, 10, 52, 0
32, 80643, Note_on_c, 10, 58, 0
32, 80664, Note_on_c, 10, 56, 67
32, 81128, Note_on_c, 10, 55, 69
32, 81144, Note_on_c, 10, 56, 0
32, 81608, Note_on_c, 10, 55, 0
32, 81619, Note_on_c, 10, 53, 55
32, 82099, Note_on_c, 10, 53, 0
32, 82104, Note_on_c, 10, 56, 66
32, 82571, Note_on_c, 10, 52, 58
32, 82584, Note_on_c, 10, 56, 0
32, 83051, Note_on_c, 10, 52, 0
32, 99371, Note_on_c, 13, 59, 67
32, 99380, Note_on_c, 13, 63, 63
32, 99381, Note_on_c, 13, 66, 69
32, 100087, Note_on_c, 13, 61, 63
32, 100091, Note_on_c, 13, 59, 0
32, 100100, Note_on_c, 13, 63, 0
32, 100100, Note_on_c, 13, 64, 71
32, 100101, Note_on_c, 13, 66, 0
32, 100106, Note_on_c, 13, 70, 68
32, 100327, Note_on_c, 13, 61, 0
32, 100329, Note_on_c, 13, 62, 71
32, 100337, Note_on_c, 13, 66, 60
32, 100340, Note_on_c, 13, 64, 0
32, 100343, Note_on_c, 13, 60, 65
32, 100346, Note_on_c, 13, 70, 0
32, 100808, Note_on_c, 13, 67, 53
32, 100809, Note_on_c, 13, 62, 0
32, 100809, Note_on_c, 13, 70, 63
32, 100812, Note_on_c, 13, 61, 55
32, 100817, Note_on_c, 13, 66, 0
32, 100823, Note_on_c, 13, 60, 0
32, 101048, Note_on_c, 13, 67, 0
32, 101049, Note_on_c, 13, 70, 0
32, 101049, Note_on_c, 13, 71, 65
32, 101051, Note_on_c, 13, 66, 72
32, 101052, Note_on_c, 13, 61, 0
32, 101060, Note_on_c, 13, 64, 54
32, 101279, Note_on_c, 13, 64, 0
32, 101288, Note_on_c, 13, 68, 62
32, 101289, Note_on_c, 13, 71, 0
32, 101291, Note_on_c, 13, 66, 0
32, 101298, Note_on_c, 13, 64, 63
32, 101302, Note_on_c, 13, 61, 58
32, 101741, Note_on_c, 13, 64, 0
32, 101760, Note_on_c, 13, 64, 72
32, 101768, Note_on_c, 13, 68, 0
32, 101782, Note_on_c, 13, 61, 0
32, 101786, Note_on_c, 13, 67, 57
32, 101788, Note_on_c, 13, 70, 67
32, 102144, Note_on_c, 13, 64, 0
32, 102170, Note_on_c, 13, 67, 0
32, 102172, Note_on_c, 13, 70, 0
32, 102250, Note_on_c, 13, 66, 66
32, 102262, Note_on_c, 13, 60, 64
32, 102264, Note_on_c, 13, 63, 57
32, 102970, Note_on_c, 13, 66, 0
32, 102971, Note_on_c, 13, 70, 70
32, 102982, Note_on_c, 13, 60, 0
32, 102984, Note_on_c, 13, 63, 0
32, 102985, Note_on_c, 13, 61, 66
32, 102988, Note_on_c, 13, 64, 55
32, 103201, Note_on_c, 13, 59, 59
32, 103211, Note_on_c, 13, 70, 0
32, 103211, Note_on_c, 13, 66, 53
32, 103218, Note_on_c, 13, 63, 54
32, 103225, Note_on_c, 13, 61, 0
32, 103228, Note_on_c, 13, 64, 0
32, 103681, Note_on_c, 13, 59, 0
32, 103682, Note_on_c, 13, 67, 67
32, 103691, Note_on_c, 13, 66, 0
32, 103698, Note_on_c, 13, 63, 0
32, 103704, Note_on_c, 13, 70, 63
32, 103706, Note_on_c, 13, 61, 65
32, 103922, Note_on_c, 13, 67, 0
32, 103936, Note_on_c, 13, 64, 64
32, 103943, Note_on_c, 13, 71, 72
32, 103944, Note_on_c, 13, 70, 0
32, 103944, Note_on_c, 13, 66, 69
32, 103946, Note_on_c, 13, 61, 0
32, 104168, Note_on_c, 13, 64, 0
32, 104176, Note_on_c, 13, 70, 68
32, 104182, Note_on_c, 13, 61, 52
32, 104183, Note_on_c, 13, 71, 0
32, 104184, Note_on_c, 13, 66, 0
32, 104187, Note_on_c, 13, 64, 65
32, 104644, Note_on_c, 13, 60, 53
32, 104652, Note_on_c, 13, 63, 71
32, 104656, Note_on_c, 13, 70, 0
32, 104658, Note_on_c, 13, 66, 71
32, 104662, Note_on_c, 13, 61, 0
32, 104667, Note_on_c, 13, 64, 0
32, 105124, Note_on_c, 13, 60, 0
32, 105131, Note_on_c, 13, 70, 70
32, 105132, Note_on_c, 13, 63, 0
32, 105137, Note_on_c, 13, 61, 67
32, 105138, Note_on_c, 13, 66, 0
32, 105146, Note_on_c, 13, 67, 53
32, 105598, Note_on_c, 13, 70, 0
32, 105609, Note_on_c, 13, 66, 52
32, 105609, Note_on_c, 13, 63, 72
32, 105617, Note_on_c, 13, 61, 0
32, 105617, Note_on_c, 13, 70, 59
32, 105626, Note_on_c, 13, 67, 0
32, 106088, Note_on_c, 13, 70, 0
32, 106089, Note_on_c, 13, 66, 0
32, 106089, Note_on_c, 13, 63, 0
32, 106101, Note_on_c, 13, 67, 69
32, 106104, Note_on_c, 13, 61, 57
32, 106107, Note_on_c, 13, 70, 61
32, 106329, Note_on_c, 13, 64, 61
32, 106341, Note_on_c, 13, 67, 0
32, 106344, Note_on_c, 13, 61, 0
32, 106345, Note_on_c, 13, 71, 57
32, 106346, Note_on_c, 13, 66, 60
32, 106347, Note_on_c, 13, 70, 0
32, 106567, Note_on_c, 13, 61, 59
32, 106569, Note_on_c, 13, 64, 0
32, 106574, Note_on_c, 13, 58, 55
32, 106577, Note_on_c, 13, 67, 55
32, 106585, Note_on_c, 13, 71, 0
32, 106586, Note_on_c, 13, 66, 0
32, 107035, Note_on_c, 13, 67, 0
32, 107043, Note_on_c, 13, 61, 0
32, 107043, Note_on_c, 13, 70, 56
32, 107054, Note_on_c, 13, 58, 0
32, 107055, Note_on_c, 13, 67, 59
32, 107062, Note_on_c, 13, 61, 66
32, 107523, Note_on_c, 13, 70, 0
32, 107528, Note_on_c, 13, 63, 57
32, 107535, Note_on_c, 13, 67, 0
32, 107535, Note_on_c, 13, 66, 72
32, 107542, Note_on_c, 13, 61, 0
32, 107545, Note_on_c, 13, 70, 71
32, 107999, Note_on_c, 13, 70, 0
32, 108008, Note_on_c, 13, 63, 0
32, 108014, Note_on_c, 13, 67, 67
32, 108015, Note_on_c, 13, 66, 0
32, 108017, Note_on_c, 13, 61, 62
32, 108019, Note_on_c, 13, 70, 55
32, 108235, Note_on_c, 13, 67, 0
32, 108250, Note_on_c, 13, 71, 59
32, 108254, Note_on_c, 13, 67, 57
32, 108257, Note_on_c, 13, 61, 0
32, 108259, Note_on_c, 13, 70, 0
32, 108267, Note_on_c, 13, 64, 52
32, 108490, Note_on_c, 13, 71, 0
32, 108490, Note_on_c, 13, 66, 54
32, 108492, Note_on_c, 13, 62, 67
32, 108494, Note_on_c, 13, 67, 0
32, 108505, Note_on_c, 13, 60, 56
32, 108507, Note_on_c, 13, 64, 0
32, 108967, Note_on_c, 13, 67, 59
32, 108970, Note_on_c, 13, 66, 0
32, 108972, Note_on_c, 13, 62, 0
32, 108981, Note_on_c, 13, 64, 67
32, 108982, Note_on_c, 13, 61, 61
32, 108985, Note_on_c, 13, 60, 0
32, 109433, Note_on_c, 13, 61, 0
32, 109439, Note_on_c, 13, 67, 0
32, 109452, Note_on_c, 13, 61, 55
32, 109458, Note_on_c, 13, 58, 54
32, 109458, Note_on_c, 13, 67, 54
32, 109461, Note_on_c, 13, 64, 0
32, 109911, Note_on_c, 13, 61, 0
32, 109931, Note_on_c, 13, 61, 69
32, 109932, Note_on_c, 13, 64, 53
32, 109933, Note_on_c, 13, 66, 59
32, 109938, Note_on_c, 13, 58, 0
32, 109938, Note_on_c, 13, 67, 0
32, 110169, Note_on_c, 13, 61, 0
32, 110172, Note_on_c, 13, 64, 0
32, 110173, Note_on_c, 13, 66, 0
32, 110179, Note_on_c, 13, 58, 61
32, 110179, Note_on_c, 13, 67, 62
32, 110188, Note_on_c, 13, 61, 68
32, 110408, Note_on_c, 13, 59, 61
32, 110408, Note_on_c, 13, 57, 65
32, 110413, Note_on_c, 13, 63, 70
32, 110419, Note_on_c, 13, 58, 0
32, 110419, Note_on_c, 13, 67, 0
32, 110428, Note_on_c, 13, 61, 0
32, 110888, Note_on_c, 13, 59, 0
32, 110888, Note_on_c, 13, 57, 0
32, 110893, Note_on_c, 13, 63, 0
32, 130554, Program_c, 13, 44
32, 130560, Note_on_c, 13, 58, 43
32, 130560, Note_on_c, 13, 72, 52
32, 131040, Note_on_c, 13, 58, 0
32, 131040, Note_on_c, 13, 72, 0
32, 131043, Note_on_c, 13, 71, 56
32, 131046, Note_on_c, 13, 57, 57
32, 131521, Note_on_c, 13, 70, 47
32, 131523, Note_on_c, 13, 71, 0
32, 131526, Note_on_c, 13, 57, 0
32, 131541, Note_on_c, 13, 56, 43
32, 132001, Note_on_c, 13, 70, 0
32, 132007, Note_on_c, 13, 69, 54
32, 132021, Note_on_c, 13, 56, 0
32, 132021, Note_on_c, 13, 55, 45
32, 132487, Note_on_c, 13, 69, 0
32, 132501, Note_on_c, 13, 55, 0
32, 132501, Note_on_c, 13, 70, 55
32, 132507, Note_on_c, 13, 56, 59
32, 132967, Note_on_c, 13, 57, 42
32, 132971, Note_on_c, 13, 71, 47
32, 132981, Note_on_c, 13, 70, 0
32, 132987, Note_on_c, 13, 56, 0
32, 133447, Note_on_c, 13, 57, 0
32, 133451, Note_on_c, 13, 71, 0
32, 133456, Note_on_c, 13, 56, 44
32, 133460, Note_on_c, 13, 70, 41
32, 133925, Note_on_c, 13, 69, 48
32, 133936, Note_on_c, 13, 56, 0
32, 133937, Note_on_c, 13, 55, 48
32, 133940, Note_on_c, 13, 70, 0
32, 134402, Note_on_c, 13, 68, 47
32, 134405, Note_on_c, 13, 69, 0
32, 134405, Note_on_c, 13, 54, 54
32, 134417, Note_on_c, 13, 55, 0
32, 134882, Note_on_c, 13, 68, 0
32, 134885, Note_on_c, 13, 54, 0
32, 134885, Note_on_c, 13, 53, 45
32, 134893, Note_on_c, 13, 67, 55
32, 135363, Note_on_c, 13, 54, 44
32, 135365, Note_on_c, 13, 53, 0
32, 135373, Note_on_c, 13, 67, 0
32, 135378, Note_on_c, 13, 68, 58
32, 135843, Note_on_c, 13, 54, 0
32, 135846, Note_on_c, 13, 69, 40
32, 135858, Note_on_c, 13, 68, 0
32, 135865, Note_on_c, 13, 55, 42
32, 136326, Note_on_c, 13, 69, 0
32, 136328, Note_on_c, 13, 56, 54
32, 136337, Note_on_c, 13, 70, 59
32, 136345, Note_on_c, 13, 55, 0
32, 136808, Note_on_c, 13, 56, 0
32, 136809, Note_on_c, 13, 55, 42
32, 136817, Note_on_c, 13, 70, 0
32, 136829, Note_on_c, 13, 69, 58
32, 137289, Note_on_c, 13, 55, 0
32, 137290, Note_on_c, 13, 68, 39
32, 137295, Note_on_c, 13, 54, 49
32, 137309, Note_on_c, 13, 69, 0
32, 137770, Note_on_c, 13, 68, 0
32, 137770, Note_on_c, 13, 53, 52
32, 137775, Note_on_c, 13, 54, 0
32, 137778, Note_on_c, 13, 67, 51
32, 138250, Note_on_c, 13, 53, 0
32, 138253, Note_on_c, 13, 68, 48
32, 138258, Note_on_c, 13, 67, 0
32, 138265, Note_on_c, 13, 54, 43
32, 138728, Note_on_c, 13, 69, 50
32, 138729, Note_on_c, 13, 55, 58
32, 138733, Note_on_c, 13, 68, 0
32, 138745, Note_on_c, 13, 54, 0
32, 139201, Note_on_c, 13, 70, 49
32, 139208, Note_on_c, 13, 69, 0
32, 139209, Note_on_c, 13, 55, 0
32, 139221, Note_on_c, 13, 56, 53
32, 139681, Note_on_c, 13, 70, 0
32, 139691, Note_on_c, 13, 55, 42
32, 139701, Note_on_c, 13, 56, 0
32, 139701, Note_on_c, 13, 69, 59
32, 140171, Note_on_c, 13, 55, 0
32, 140181, Note_on_c, 13, 69, 0
32, 140186, Note_on_c, 13, 68, 47
32, 140187, Note_on_c, 13, 54, 41
32, 140650, Note_on_c, 13, 53, 45
32, 140657, Note_on_c, 13, 67, 50
32, 140666, Note_on_c, 13, 68, 0
32, 140667, Note_on_c, 13, 54, 0
32, 141124, Note_on_c, 13, 68, 41
32, 141130, Note_on_c, 13, 53, 0
32, 141137, Note_on_c, 13, 67, 0
32, 141143, Note_on_c, 13, 54, 57
32, 141604, Note_on_c, 13, 68, 0
32, 141610, Note_on_c, 13, 69, 43
32, 141623, Note_on_c, 13, 54, 0
32, 141627, Note_on_c, 13, 55, 39
32, 142080, Note_on_c, 13, 56, 54
32, 142090, Note_on_c, 13, 69, 0
32, 142102, Note_on_c, 13, 70, 50
32, 142107, Note_on_c, 13, 55, 0
32, 142560, Note_on_c, 13, 56, 0
32, 142564, Note_on_c, 13, 55, 42
32, 142576, Note_on_c, 13, 69, 48
32, 142582, Note_on_c, 13, 70, 0
32, 143041, Note_on_c, 13, 54, 41
32, 143044, Note_on_c, 13, 55, 0
32, 143052, Note_on_c, 13, 68, 45
32, 143056, Note_on_c, 13, 69, 0
32, 143521, Note_on_c, 13, 54, 0
32, 143521, Note_on_c, 13, 53, 48
32, 143532, Note_on_c, 13, 68, 0
32, 143545, Note_on_c, 13, 67, 44
32, 144001, Note_on_c, 13, 53, 0
32, 144003, Note_on_c, 13, 54, 54
32, 144006, Note_on_c, 13, 68, 58
32, 144025, Note_on_c, 13, 67, 0
32, 144483, Note_on_c, 13, 54, 0
32, 144486, Note_on_c, 13, 68, 0
32, 144492, Note_on_c, 13, 55, 56
32, 144494, Note_on_c, 13, 69, 48
32, 144961, Note_on_c, 13, 70, 50
32, 144972, Note_on_c, 13, 55, 0
32, 144974, Note_on_c, 13, 69, 0
32, 144985, Note_on_c, 13, 56, 56
32, 145441, Note_on_c, 13, 70, 0
32, 145451, Note_on_c, 13, 69, 39
32, 145459, Note_on_c, 13, 55, 45
32, 145465, Note_on_c, 13, 56, 0
32, 145931, Note_on_c, 13, 69, 0
32, 145931, Note_on_c, 13, 68, 57
32, 145939, Note_on_c, 13, 55, 0
32, 145948, Note_on_c, 13, 54, 39
32, 146407, Note_on_c, 13, 67, 54
32, 146411, Note_on_c, 13, 68, 0
32, 146412, Note_on_c, 13, 53, 44
32, 146428, Note_on_c, 13, 54, 0
32, 146887, Note_on_c, 13, 67, 0
32, 146892, Note_on_c, 13, 53, 0
32, 146902, Note_on_c, 13, 54, 44
32, 146908, Note_on_c, 13, 68, 54
32, 147367, Note_on_c, 13, 55, 44
32, 147379, Note_on_c, 13, 69, 45
32, 147382, Note_on_c, 13, 54, 0
32, 147388, Note_on_c, 13, 68, 0
32, 147833, Program_c, 13, 45
32, 147847, Note_on_c, 13, 55, 0
32, 147859, Note_on_c, 13, 69, 0
32, 148332, Note_on_c, 13, 49, 49
32, 148376, Note_on_c, 13, 63, 52
32, 148782, Note_on_c, 13, 49, 0
32, 148802, Note_on_c, 13, 49, 39
32, 148826, Note_on_c, 13, 63, 0
32, 148846, Note_on_c, 13, 63, 46
32, 149282, Note_on_c, 13, 49, 0
32, 149296, Note_on_c, 13, 63, 0
32, 149304, Note_on_c, 13, 49, 48
32, 149327, Note_on_c, 13, 63, 56
32, 149749, Note_on_c, 13, 49, 0
32, 149769, Note_on_c, 13, 49, 46
32, 149777, Note_on_c, 13, 63, 0
32, 149815, Note_on_c, 13, 63, 48
32, 150229, Note_on_c, 13, 49, 0
32, 150248, Note_on_c, 13, 49, 47
32, 150265, Note_on_c, 13, 63, 0
32, 150289, Note_on_c, 13, 63, 44
32, 150719, Note_on_c, 13, 49, 0
32, 150738, Note_on_c, 13, 49, 53
32, 150739, Note_on_c, 13, 63, 0
32, 150766, Note_on_c, 13, 63, 48
32, 151186, Note_on_c, 13, 49, 0
32, 151205, Note_on_c, 13, 49, 47
32, 151216, Note_on_c, 13, 63, 0
32, 151253, Note_on_c, 13, 63, 42
32, 151669, Note_on_c, 13, 49, 0
32, 151688, Note_on_c, 13, 49, 49
32, 151703, Note_on_c, 13, 63, 0
32, 151726, Note_on_c, 13, 63, 58
32, 152147, Note_on_c, 13, 49, 0
32, 152166, Note_on_c, 13, 49, 51
32, 152176, Note_on_c, 13, 63, 0
32, 152196, Note_on_c, 13, 63, 46
32, 152642, Note_on_c, 13, 49, 0
32, 152646, Note_on_c, 13, 63, 0
32, 152662, Note_on_c, 13, 49, 44
32, 152676, Note_on_c, 13, 63, 54
32, 153108, Note_on_c, 13, 49, 0
32, 153126, Note_on_c, 13, 63, 0
32, 153127, Note_on_c, 13, 49, 45
32, 153174, Note_on_c, 13, 63, 41
32, 153593, Note_on_c, 13, 49, 0
32, 153612, Note_on_c, 13, 49, 56
32, 153618, Note_on_c, 13, 63, 0
32, 153637, Note_on_c, 13, 63, 57
32, 154071, Note_on_c, 13, 49, 0
32, 154087, Note_on_c, 13, 63, 0
32, 154090, Note_on_c, 13, 49, 50
32, 154114, Note_on_c, 13, 63, 51
32, 154562, Note_on_c, 13, 49, 0
32, 154564, Note_on_c, 13, 63, 0
32, 154581, Note_on_c, 13, 49, 43
32, 154602, Note_on_c, 13, 63, 44
32, 155046, Note_on_c, 13, 49, 0
32, 155052, Note_on_c, 13, 63, 0
32, 155065, Note_on_c, 13, 49, 44
32, 155092, Note_on_c, 13, 63, 41
32, 155501, Note_on_c, 13, 49, 0
32, 155520, Note_on_c, 13, 49, 56
32, 155542, Note_on_c, 13, 63, 0
32, 155573, Note_on_c, 13, 63, 56
32, 155998, Note_on_c, 13, 49, 0
32, 156018, Note_on_c, 13, 49, 55
32, 156023, Note_on_c, 13, 63, 0
32, 156048, Note_on_c, 13, 63, 50
32, 156470, Note_on_c, 13, 49, 0
32, 156489, Note_on_c, 13, 49, 42
32, 156498, Note_on_c, 13, 63, 0
32, 156532, Note_on_c, 13, 63, 58
32, 156950, Note_on_c, 13, 49, 0
32, 156969, Note_on_c, 13, 49, 48
32, 156974, Note_on_c, 13, 63, 0
32, 156994, Note_on_c, 13, 63, 52
32, 157425, Note_on_c, 13, 49, 0
32, 157444, Note_on_c, 13, 63, 0
32, 157445, Note_on_c, 13, 49, 49
32, 157472, Note_on_c, 13, 63, 57
32, 157911, Note_on_c, 13, 49, 0
32, 157922, Note_on_c, 13, 63, 0
32, 157930, Note_on_c, 13, 49, 44
32, 157957, Note_on_c, 13, 63, 42
32, 158383, Note_on_c, 13, 49, 0
32, 158402, Note_on_c, 13, 49, 50
32, 158407, Note_on_c, 13, 63, 0
32, 158453, Note_on_c, 13, 63, 54
32, 158882, Note_on_c, 13, 49, 0
32, 158903, Note_on_c, 13, 63, 0
32, 158905, Note_on_c, 13, 49, 53
32, 158930, Note_on_c, 13, 63, 51
32, 159369, Note_on_c, 13, 49, 0
32, 159380, Note_on_c, 13, 63, 0
32, 159389, Note_on_c, 13, 49, 40
32, 159409, Note_on_c, 13, 63, 50
32, 159859, Note_on_c, 13, 63, 0
32, 159869, Note_on_c, 13, 49, 0
32, 189600, Program_c, 13, 45
32, 189609, Note_on_c, 13, 62, 109
32, 190089, Note_on_c, 13, 62, 0
32, 192007, Note_on_c, 10, 83, 43
32, 192247, Note_on_c, 10, 83, 0
32, 192252, Note_on_c, 10, 72, 47
32, 192492, Note_on_c, 10, 72, 0
32, 192962, Note_on_c, 10, 81, 40
32, 193202, Note_on_c, 10, 81, 0
32, 193227, Note_on_c, 10, 72, 43
32, 193467, Note_on_c, 10, 72, 0
32, 193928, Note_on_c, 10, 81, 31
32, 194168, Note_on_c, 10, 81, 0
32, 194181, Note_on_c, 10, 72, 47
32, 194421, Note_on_c, 10, 72, 0
32, 194895, Note_on_c, 10, 81, 43
32, 195130, Note_on_c, 10, 72, 49
32, 195135, Note_on_c, 10, 81, 0
32, 195370, Note_on_c, 10, 72, 0
32, 195848, Note_on_c, 10, 81, 44
32, 196088, Note_on_c, 10, 81, 0
32, 196091, Note_on_c, 10, 72, 38
32, 196331, Note_on_c, 10, 72, 0
32, 196807, Note_on_c, 10, 81, 48
32, 197047, Note_on_c, 10, 81, 0
32, 197063, Note_on_c, 10, 72, 45
32, 197303, Note_on_c, 10, 72, 0
32, 197780, Note_on_c, 10, 81, 41
32, 198020, Note_on_c, 10, 81, 0
32, 198020, Note_on_c, 10, 72, 45
32, 198260, Note_on_c, 10, 72, 0
32, 199200, Note_on_c, 10, 81, 32
32, 199440, Note_on_c, 10, 81, 0
32, 199445, Note_on_c, 10, 72, 38
32, 199685, Note_on_c, 10, 72, 0
32, 200160, Program_c, 13, 45
32, 200183, Note_on_c, 13, 69, 115
32, 200663, Note_on_c, 13, 69, 0
32, 210721, Note_on_c, 13, 56, 100
32, 210961, Note_on_c, 13, 56, 0
32, 211216, Note_on_c, 13, 56, 91
32, 211456, Note_on_c, 13, 56, 0
32, 211702, Note_on_c, 13, 56, 98
32, 211942, Note_on_c, 13, 56, 0
32, 212165, Note_on_c, 13, 56, 91
32, 212405, Note_on_c, 13, 56, 0
32, 212663, Note_on_c, 13, 56, 103
32, 212903, Note_on_c, 13, 56, 0
32, 213144, Note_on_c, 13, 56, 111
32, 213384, Note_on_c, 13, 56, 0
32, 213622, Note_on_c, 13, 56, 105
32, 213862, Note_on_c, 13, 56, 0
32, 214083, Note_on_c, 13, 56, 96
32, 214323, Note_on_c, 13, 56, 0
32, 214563, Note_on_c, 13, 56, 96
32, 214803, Note_on_c, 13, 56, 0
32, 215050, Note_on_c, 13, 56, 105
32, 215290, Note_on_c, 13, 56, 0
32, 215541, Note_on_c, 13, 56, 99
32, 215781, Note_on_c, 13, 56, 0
32, 429384, Note_on_c, 13, 80, 39
32, 429864, Note_on_c, 13, 80, 0
32, 431300, Note_on_c, 13, 80, 52
32, 431780, Note_on_c, 13, 80, 0
32, 432261, Note_on_c, 13, 80, 54
32, 432741, Note_on_c, 13, 80, 0
32, 435608, Note_on_c, 13, 69, 42
32, 436087, Note_on_c, 13, 68, 56
32, 436088, Note_on_c, 13, 69, 0
32, 436561, Note_on_c, 13, 66, 47
32, 436567, Note_on_c, 13, 68, 0
32, 437041, Note_on_c, 13, 66, 0
32, 437060, Note_on_c, 13, 69, 51
32, 437537, Note_on_c, 13, 65, 54
32, 437540, Note_on_c, 13, 69, 0
32, 438017, Note_on_c, 13, 65, 0
32, 492253, Note_on_c, 13, 63, 95
32, 492254, Note_on_c, 13, 61, 80
32, 492289, Note_on_c, 13, 63, 0
32, 492290, Note_on_c, 13, 61, 0
32, 492361, Note_on_c, 13, 61, 86
32, 492364, Note_on_c, 13, 62, 94
32, 492397, Note_on_c, 13, 61, 0
32, 492400, Note_on_c, 13, 62, 0
32, 492487, Note_on_c, 13, 61, 89
32, 492500, Note_on_c, 13, 62, 92
32, 492523, Note_on_c, 13, 61, 0
32, 492536, Note_on_c, 13, 62, 0
32, 493706, Note_on_c, 13, 61, 90
32, 493706, Note_on_c, 13, 63, 96
32, 493742, Note_on_c, 13, 61, 0
32, 493742, Note_on_c, 13, 63, 0
32, 493812, Note_on_c, 13, 61, 93
32, 493824, Note_on_c, 13, 62, 81
32, 493848, Note_on_c, 13, 61, 0
32, 493860, Note_on_c, 13, 62, 0
32, 493939, Note_on_c, 13, 61, 81
32, 493945, Note_on_c, 13, 62, 87
32, 493975, Note_on_c, 13, 61, 0
32, 493981, Note_on_c, 13, 62, 0
32, 496321, Note_on_c, 13, 63, 89
32, 496328, Note_on_c, 13, 61, 82
32, 496374, Note_on_c, 13, 63, 0
32, 496381, Note_on_c, 13, 61, 0
32, 496447, Note_on_c, 13, 62, 78
32, 496451, Note_on_c, 13, 61, 83
32, 496500, Note_on_c, 13, 62, 0
32, 496504, Note_on_c, 13, 61, 0
32, 496571, Note_on_c, 13, 61, 94
32, 496584, Note_on_c, 13, 62, 80
32, 496624, Note_on_c, 13, 61, 0
32, 496637, Note_on_c, 13, 62, 0
32, 498844, Note_on_c, 13, 61, 82
32, 498851, Note_on_c, 13, 63, 87
32, 498897, Note_on_c, 13, 61, 0
32, 498904, Note_on_c, 13, 63, 0
32, 498973, Note_on_c, 13, 61, 80
32, 498980, Note_on_c, 13, 62, 86
32, 499026, Note_on_c, 13, 61, 0
32, 499033, Note_on_c, 13, 62, 0
32, 499082, Note_on_c, 13, 62, 80
32, 499087, Note_on_c, 13, 61, 93
32, 499135, Note_on_c, 13, 62, 0
32, 499140, Note_on_c, 13, 61, 0
32, 500287, Note_on_c, 13, 63, 88
32, 500293, Note_on_c, 13, 61, 88
32, 500340, Note_on_c, 13, 63, 0
32, 500346, Note_on_c, 13, 61, 0
32, 500423, Note_on_c, 13, 61, 83
32, 500427, Note_on_c, 13, 62, 82
32, 500476, Note_on_c, 13, 61, 0
32, 500480, Note_on_c, 13, 62, 0
32, 500522, Note_on_c, 13, 61, 86
32, 500547, Note_on_c, 13, 62, 78
32, 500575, Note_on_c, 13, 61, 0
32, 500600, Note_on_c, 13, 62, 0
32, 501017, Note_on_c, 13, 63, 91
32, 501022, Note_on_c, 13, 61, 87
32, 501070, Note_on_c, 13, 63, 0
32, 501075, Note_on_c, 13, 61, 0
32, 501125, Note_on_c, 13, 61, 97
32, 501142, Note_on_c, 13, 62, 85
32, 501178, Note_on_c, 13, 61, 0
32, 501195, Note_on_c, 13, 62, 0
32, 501253, Note_on_c, 13, 61, 93
32, 501262, Note_on_c, 13, 62, 88
32, 501306, Note_on_c, 13, 61, 0
32, 501315, Note_on_c, 13, 62, 0
32, 502447, Note_on_c, 13, 63, 90
32, 502455, Note_on_c, 13, 61, 82
32, 502500, Note_on_c, 13, 63, 0
32, 502508, Note_on_c, 13, 61, 0
32, 502562, Note_on_c, 13, 61, 89
32, 502566, Note_on_c, 13, 62, 95
32, 502615, Note_on_c, 13, 61, 0
32, 502619, Note_on_c, 13, 62, 0
32, 502694, Note_on_c, 13, 62, 78
32, 502700, Note_on_c, 13, 61, 78
32, 502747, Note_on_c, 13, 62, 0
32, 502753, Note_on_c, 13, 61, 0
32, 520330, Note_on_c, 13, 70, 100
32, 520353, Note_on_c, 13, 70, 0
32, 520398, Note_on_c, 13, 70, 107
32, 520421, Note_on_c, 13, 70, 0
32, 520804, Note_on_c, 13, 70, 116
32, 520827, Note_on_c, 13, 70, 0
32, 520868, Note_on_c, 13, 70, 112
32, 520891, Note_on_c, 13, 70, 0
32, 521295, Note_on_c, 13, 70, 106
32, 521318, Note_on_c, 13, 70, 0
32, 521359, Note_on_c, 13, 70, 108
32, 521382, Note_on_c, 13, 70, 0
32, 521534, Note_on_c, 13, 70, 117
32, 521557, Note_on_c, 13, 70, 0
32, 521603, Note_on_c, 13, 70, 100
32, 521626, Note_on_c, 13, 70, 0
32, 522018, Note_on_c, 13, 70, 119
32, 522041, Note_on_c, 13, 70, 0
32, 522067, Note_on_c, 13, 70, 119
32, 522090, Note_on_c, 13, 70, 0
32, 522500, Note_on_c, 13, 70, 100
32, 522523, Note_on_c, 13, 70, 0
32, 522546, Note_on_c, 13, 70, 114
32, 522569, Note_on_c, 13, 70, 0
32, 522968, Note_on_c, 13, 70, 103
32, 522991, Note_on_c, 13, 70, 0
32, 523024, Note_on_c, 13, 70, 104
32, 523047, Note_on_c, 13, 70, 0
32, 523466, Note_on_c, 13, 70, 108
32, 523489, Note_on_c, 13, 70, 0
32, 523529, Note_on_c, 13, 70, 113
32, 523552, Note_on_c, 13, 70, 0
32, 523936, Note_on_c, 13, 65, 108
32, 523959, Note_on_c, 13, 65, 0
32, 523992, Note_on_c, 13, 65, 120
32, 524015, Note_on_c, 13, 65, 0
32, 524188, Note_on_c, 13, 70, 101
32, 524211, Note_on_c, 13, 70, 0
32, 524238, Note_on_c, 13, 70, 107
32, 524261, Note_on_c, 13, 70, 0
32, 524428, Note_on_c, 13, 70, 114
32, 524451, Note_on_c, 13, 70, 0
32, 524483, Note_on_c, 13, 70, 105
32, 524506, Note_on_c, 13, 70, 0
32, 524905, Note_on_c, 13, 70, 102
32, 524928, Note_on_c, 13, 70, 0
32, 524949, Note_on_c, 13, 70, 118
32, 524972, Note_on_c, 13, 70, 0
32, 525375, Note_on_c, 13, 70, 120
32, 525398, Note_on_c, 13, 70, 0
32, 525438, Note_on_c, 13, 70, 106
32, 525461, Note_on_c, 13, 70, 0
32, 525856, Note_on_c, 13, 70, 105
32, 525879, Note_on_c, 13, 70, 0
32, 525929, Note_on_c, 13, 70, 115
32, 525952, Note_on_c, 13, 70, 0
32, 526093, Note_on_c, 13, 65, 105
32, 526116, Note_on_c, 13, 65, 0
32, 526146, Note_on_c, 13, 65, 104
32, 526169, Note_on_c, 13, 65, 0
32, 526320, Note_on_c, 13, 70, 115
32, 526343, Note_on_c, 13, 70, 0
32, 526397, Note_on_c, 13, 70, 117
32, 526420, Note_on_c, 13, 70, 0
32, 526583, Note_on_c, 13, 70, 113
32, 526606, Note_on_c, 13, 70, 0
32, 526627, Note_on_c, 13, 70, 119
32, 526650, Note_on_c, 13, 70, 0
32, 527043, Note_on_c, 13, 65, 102
32, 527066, Note_on_c, 13, 65, 0
32, 527107, Note_on_c, 13, 65, 116
32, 527130, Note_on_c, 13, 65, 0
32, 531377, Note_on_c, 13, 70, 108
32, 531497, Note_on_c, 13, 70, 0
32, 531616, Note_on_c, 13, 70, 117
32, 531736, Note_on_c, 13, 70, 0
32, 531842, Note_on_c, 13, 70, 105
32, 531962, Note_on_c, 13, 70, 0
32, 532325, Note_on_c, 13, 70, 106
32, 532445, Note_on_c, 13, 70, 0
32, 532578, Note_on_c, 13, 70, 120
32, 532698, Note_on_c, 13, 70, 0
32, 532824, Note_on_c, 13, 70, 115
32, 532944, Note_on_c, 13, 70, 0
32, 533042, Note_on_c, 13, 70, 104
32, 533162, Note_on_c, 13, 70, 0
32, 533283, Note_on_c, 13, 70, 102
32, 533403, Note_on_c, 13, 70, 0
32, 533760, Note_on_c, 13, 70, 118
32, 533880, Note_on_c, 13, 70, 0
32, 534254, Note_on_c, 13, 70, 102
32, 534374, Note_on_c, 13, 70, 0
32, 534507, Note_on_c, 13, 65, 107
32, 534627, Note_on_c, 13, 65, 0
32, 534746, Note_on_c, 13, 70, 111
32, 534866, Note_on_c, 13, 70, 0
32, 535203, Note_on_c, 13, 70, 112
32, 535323, Note_on_c, 13, 70, 0
32, 535684, Note_on_c, 13, 70, 108
32, 535804, Note_on_c, 13, 70, 0
32, 535948, Note_on_c, 13, 70, 112
32, 535951, Note_on_c, 13, 70, 0
32, 535970, Note_on_c, 13, 70, 114
32, 535990, Note_on_c, 13, 70, 0
32, 536023, Note_on_c, 13, 70, 109
32, 536042, Note_on_c, 13, 70, 0
32, 536067, Note_on_c, 13, 70, 117
32, 536082, Note_on_c, 13, 70, 0
32, 536102, Note_on_c, 13, 70, 118
32, 536122, Note_on_c, 13, 70, 0
32, 536149, Note_on_c, 13, 70, 116
32, 536163, Note_on_c, 13, 68, 105
32, 536168, Note_on_c, 13, 70, 0
32, 536182, Note_on_c, 13, 68, 0
32, 536222, Note_on_c, 13, 68, 113
32, 536235, Note_on_c, 13, 68, 0
32, 536254, Note_on_c, 13, 68, 113
32, 536273, Note_on_c, 13, 68, 0
32, 536292, Note_on_c, 13, 68, 108
32, 536311, Note_on_c, 13, 68, 0
32, 536331, Note_on_c, 13, 68, 113
32, 536345, Note_on_c, 13, 68, 0
32, 536364, Note_on_c, 13, 68, 106
32, 536383, Note_on_c, 13, 68, 0
32, 536408, Note_on_c, 13, 67, 115
32, 536427, Note_on_c, 13, 67, 0
32, 536455, Note_on_c, 13, 67, 109
32, 536461, Note_on_c, 13, 67, 0
32, 536480, Note_on_c, 13, 67, 124
32, 536499, Note_on_c, 13, 67, 0
32, 536541, Note_on_c, 13, 67, 109
32, 536544, Note_on_c, 13, 67, 0
32, 536564, Note_on_c, 13, 67, 118
32, 536584, Note_on_c, 13, 67, 0
32, 536610, Note_on_c, 13, 67, 110
32, 536629, Note_on_c, 13, 67, 0
32, 536665, Note_on_c, 13, 65, 111
32, 536684, Note_on_c, 13, 65, 0
32, 536707, Note_on_c, 13, 65, 118
32, 536717, Note_on_c, 13, 65, 0
32, 536736, Note_on_c, 13, 65, 107
32, 536755, Note_on_c, 13, 65, 0
32, 536785, Note_on_c, 13, 65, 121
32, 536792, Note_on_c, 13, 65, 0
32, 536811, Note_on_c, 13, 65, 106
32, 536824, Note_on_c, 13, 65, 0
32, 536844, Note_on_c, 13, 65, 121
32, 536863, Note_on_c, 13, 65, 0
32, 536901, Note_on_c, 13, 60, 107
32, 536920, Note_on_c, 13, 60, 0
32, 536941, Note_on_c, 13, 60, 119
32, 536945, Note_on_c, 13, 60, 0
32, 536965, Note_on_c, 13, 60, 115
32, 536984, Note_on_c, 13, 60, 0
32, 537005, Note_on_c, 13, 60, 120
32, 537024, Note_on_c, 13, 60, 0
32, 537062, Note_on_c, 13, 60, 110
32, 537072, Note_on_c, 13, 60, 0
32, 537092, Note_on_c, 13, 60, 104
32, 537111, Note_on_c, 13, 60, 0
32, 537137, Note_on_c, 13, 61, 124
32, 537142, Note_on_c, 13, 61, 0
32, 537161, Note_on_c, 13, 61, 108
32, 537181, Note_on_c, 13, 61, 0
32, 537223, Note_on_c, 13, 61, 108
32, 537242, Note_on_c, 13, 61, 0
32, 537261, Note_on_c, 13, 61, 122
32, 537274, Note_on_c, 13, 61, 0
32, 537293, Note_on_c, 13, 61, 120
32, 537305, Note_on_c, 13, 61, 0
32, 537325, Note_on_c, 13, 61, 104
32, 537344, Note_on_c, 13, 61, 0
32, 537375, Note_on_c, 13, 52, 108
32, 537383, Note_on_c, 13, 52, 0
32, 537402, Note_on_c, 13, 52, 115
32, 537422, Note_on_c, 13, 52, 0
32, 537461, Note_on_c, 13, 52, 104
32, 537478, Note_on_c, 13, 52, 0
32, 537497, Note_on_c, 13, 52, 114
32, 537514, Note_on_c, 13, 52, 0
32, 537533, Note_on_c, 13, 52, 107
32, 537553, Note_on_c, 13, 52, 0
32, 537575, Note_on_c, 13, 52, 121
32, 537594, Note_on_c, 13, 52, 0
32, 636006, Note_on_c, 13, 73, 79
32, 636017, Note_on_c, 13, 56, 97
32, 636022, Note_on_c, 13, 69, 81
32, 636066, Note_on_c, 13, 73, 0
32, 636077, Note_on_c, 13, 56, 0
32, 636082, Note_on_c, 13, 69, 0
32, 636257, Note_on_c, 13, 69, 93
32, 636265, Note_on_c, 13, 56, 98
32, 636265, Note_on_c, 13, 73, 83
32, 636317, Note_on_c, 13, 69, 0
32, 636325, Note_on_c, 13, 56, 0
32, 636325, Note_on_c, 13, 73, 0
32, 636625, Note_on_c, 13, 59, 85
32, 636678, Note_on_c, 13, 59, 0
32, 636731, Note_on_c, 13, 60, 93
32, 636784, Note_on_c, 13, 60, 0
32, 636855, Note_on_c, 13, 61, 96
32, 636908, Note_on_c, 13, 61, 0
32, 637088, Note_on_c, 13, 73, 81
32, 637092, Note_on_c, 13, 69, 91
32, 637103, Note_on_c, 13, 56, 91
32, 637148, Note_on_c, 13, 73, 0
32, 637152, Note_on_c, 13, 69, 0
32, 637163, Note_on_c, 13, 56, 0
32, 637322, Note_on_c, 13, 56, 93
32, 637323, Note_on_c, 13, 69, 81
32, 637335, Note_on_c, 13, 73, 92
32, 637382, Note_on_c, 13, 56, 0
32, 637383, Note_on_c, 13, 69, 0
32, 637395, Note_on_c, 13, 73, 0
32, 637698, Note_on_c, 13, 59, 97
32, 637751, Note_on_c, 13, 59, 0
32, 637825, Note_on_c, 13, 60, 96
32, 637878, Note_on_c, 13, 60, 0
32, 637922, Note_on_c, 13, 61, 78
32, 637975, Note_on_c, 13, 61, 0
32, 638166, Note_on_c, 13, 73, 95
32, 638167, Note_on_c, 13, 56, 89
32, 638178, Note_on_c, 13, 69, 92
32, 638226, Note_on_c, 13, 73, 0
32, 638227, Note_on_c, 13, 56, 0
32, 638238, Note_on_c, 13, 69, 0
32, 638413, Note_on_c, 13, 73, 86
32, 638425, Note_on_c, 13, 56, 90
32, 638426, Note_on_c, 13, 69, 85
32, 638473, Note_on_c, 13, 73, 0
32, 638485, Note_on_c, 13, 56, 0
32, 638486, Note_on_c, 13, 69, 0
32, 638760, Note_on_c, 13, 59, 98
32, 638813, Note_on_c, 13, 59, 0
32, 638894, Note_on_c, 13, 60, 97
32, 638947, Note_on_c, 13, 60, 0
32, 639026, Note_on_c, 13, 61, 88
32, 639079, Note_on_c, 13, 61, 0
32, 639246, Note_on_c, 13, 56, 95
32, 639255, Note_on_c, 13, 69, 90
32, 639259, Note_on_c, 13, 73, 83
32, 639306, Note_on_c, 13, 56, 0
32, 639315, Note_on_c, 13, 69, 0
32, 639319, Note_on_c, 13, 73, 0
32, 639500, Note_on_c, 13, 59, 80
32, 639553, Note_on_c, 13, 59, 0
32, 639616, Note_on_c, 13, 60, 95
32, 639669, Note_on_c, 13, 60, 0
32, 639734, Note_on_c, 13, 61, 89
32, 639787, Note_on_c, 13, 61, 0
32, 639787, End_track
33, 0, Start_track
33, 0, Title_t, "Violoncelli I"
33, 0, MIDI_port, 0
33, 0, Control_c, 14, 10, 74
33, 0, Control_c, 14, 7, 75
33, 0, Control_c, 14, 91, 96
33, 0, Program_c, 14, 48
33, 0, Control_c, 14, 11, 127
33, 1440, Program_c, 14, 49
33, 1925, Note_on_c, 14, 53, 48
33, 2885, Note_on_c, 14, 53, 0
33, 2895, Note_on_c, 14, 56, 46
33, 2902, Note_on_c, 14, 62, 47
33, 3135, Note_on_c, 14, 56, 0
33, 3142, Note_on_c, 14, 62, 0
33, 8648, Note_on_c, 14, 45, 57
33, 9127, Note_on_c, 14, 47, 51
33, 9128, Note_on_c, 14, 45, 0
33, 9607, Note_on_c, 14, 47, 0
33, 9611, Note_on_c, 14, 50, 53
33, 10091, Note_on_c, 14, 50, 0
33, 10091, Note_on_c, 14, 52, 46
33, 10475, Note_on_c, 14, 52, 0
33, 10560, Program_c, 14, 49
33, 10588, Note_on_c, 14, 58, 65
33, 10804, Note_on_c, 14, 60, 61
33, 10828, Note_on_c, 14, 58, 0
33, 11044, Note_on_c, 14, 60, 0
33, 11065, Note_on_c, 14, 68, 67
33, 11304, Note_on_c, 14, 63, 64
33, 11305, Note_on_c, 14, 68, 0
33, 11525, Note_on_c, 14, 70, 39
33, 11544, Note_on_c, 14, 63, 0
33, 11765, Note_on_c, 14, 70, 0
33, 11769, Note_on_c, 14, 69, 40
33, 12009, Note_on_c, 14, 69, 0
33, 13462, Note_on_c, 14, 69, 52
33, 14181, Note_on_c, 14, 67, 53
33, 14182, Note_on_c, 14, 69, 0
33, 14421, Note_on_c, 14, 67, 0
33, 14426, Note_on_c, 14, 69, 42
33, 14891, Note_on_c, 14, 62, 56
33, 14906, Note_on_c, 14, 69, 0
33, 15275, Note_on_c, 14, 62, 0
33, 15360, Program_c, 14, 49
33, 15384, Note_on_c, 14, 58, 70
33, 15620, Note_on_c, 14, 60, 62
33, 15624, Note_on_c, 14, 58, 0
33, 15858, Note_on_c, 14, 68, 63
33, 15860, Note_on_c, 14, 60, 0
33, 16098, Note_on_c, 14, 68, 0
33, 16106, Note_on_c, 14, 63, 55
33, 16326, Note_on_c, 14, 70, 57
33, 16346, Note_on_c, 14, 63, 0
33, 16566, Note_on_c, 14, 70, 0
33, 16579, Note_on_c, 14, 69, 50
33, 16798, Note_on_c, 14, 69, 0
33, 16817, Note_on_c, 14, 69, 74
33, 17534, Note_on_c, 14, 67, 75
33, 17537, Note_on_c, 14, 69, 0
33, 17767, Note_on_c, 14, 69, 83
33, 17774, Note_on_c, 14, 67, 0
33, 18247, Note_on_c, 14, 69, 0
33, 18247, Note_on_c, 14, 64, 68
33, 18487, Note_on_c, 14, 64, 0
33, 18500, Note_on_c, 14, 62, 71
33, 18733, Note_on_c, 14, 67, 71
33, 18740, Note_on_c, 14, 62, 0
33, 19203, Note_on_c, 14, 64, 71
33, 19213, Note_on_c, 14, 67, 0
33, 19587, Note_on_c, 14, 64, 0
33, 19680, Program_c, 14, 49
33, 19683, Note_on_c, 14, 58, 76
33, 19923, Note_on_c, 14, 58, 0
33, 19923, Note_on_c, 14, 60, 71
33, 20163, Note_on_c, 14, 60, 0
33, 20163, Note_on_c, 14, 68, 70
33, 20403, Note_on_c, 14, 68, 0
33, 20413, Note_on_c, 14, 63, 62
33, 20648, Note_on_c, 14, 70, 59
33, 20653, Note_on_c, 14, 63, 0
33, 20888, Note_on_c, 14, 70, 0
33, 20888, Note_on_c, 14, 69, 46
33, 21120, Control_c, 14, 11, 64
33, 21120, Program_c, 14, 44
33, 21128, Note_on_c, 14, 69, 0
33, 21135, Control_c, 14, 11, 65
33, 21138, Note_on_c, 14, 81, 39
33, 21150, Control_c, 14, 11, 66
33, 21165, Control_c, 14, 11, 67
33, 21180, Control_c, 14, 11, 68
33, 21196, Control_c, 14, 11, 69
33, 21211, Control_c, 14, 11, 70
33, 21226, Control_c, 14, 11, 71
33, 21241, Control_c, 14, 11, 72
33, 21257, Control_c, 14, 11, 73
33, 21272, Control_c, 14, 11, 74
33, 21287, Control_c, 14, 11, 75
33, 21302, Control_c, 14, 11, 76
33, 21318, Control_c, 14, 11, 77
33, 21333, Control_c, 14, 11, 78
33, 21348, Control_c, 14, 11, 79
33, 21363, Control_c, 14, 11, 80
33, 21379, Control_c, 14, 11, 81
33, 21394, Control_c, 14, 11, 82
33, 21409, Control_c, 14, 11, 83
33, 21424, Control_c, 14, 11, 84
33, 21440, Control_c, 14, 11, 85
33, 21455, Control_c, 14, 11, 86
33, 21470, Control_c, 14, 11, 87
33, 21485, Control_c, 14, 11, 88
33, 21500, Control_c, 14, 11, 89
33, 21516, Control_c, 14, 11, 90
33, 21531, Control_c, 14, 11, 91
33, 21546, Control_c, 14, 11, 92
33, 21561, Control_c, 14, 11, 93
33, 21577, Control_c, 14, 11, 94
33, 21592, Control_c, 14, 11, 95
33, 21607, Control_c, 14, 11, 96
33, 21622, Control_c, 14, 11, 97
33, 21638, Control_c, 14, 11, 98
33, 21653, Control_c, 14, 11, 99
33, 21668, Control_c, 14, 11, 100
33, 21683, Control_c, 14, 11, 101
33, 21699, Control_c, 14, 11, 102
33, 21714, Control_c, 14, 11, 103
33, 21729, Control_c, 14, 11, 104
33, 21744, Control_c, 14, 11, 105
33, 21760, Control_c, 14, 11, 106
33, 21775, Control_c, 14, 11, 107
33, 21790, Control_c, 14, 11, 108
33, 21805, Control_c, 14, 11, 109
33, 21820, Control_c, 14, 11, 110
33, 21836, Control_c, 14, 11, 111
33, 21851, Control_c, 14, 11, 112
33, 21866, Control_c, 14, 11, 113
33, 21881, Control_c, 14, 11, 114
33, 21897, Control_c, 14, 11, 115
33, 21912, Control_c, 14, 11, 116
33, 21927, Control_c, 14, 11, 117
33, 21942, Control_c, 14, 11, 118
33, 21958, Control_c, 14, 11, 119
33, 21973, Control_c, 14, 11, 120
33, 21988, Control_c, 14, 11, 121
33, 22003, Control_c, 14, 11, 122
33, 22019, Control_c, 14, 11, 123
33, 22034, Control_c, 14, 11, 124
33, 22049, Control_c, 14, 11, 125
33, 22064, Control_c, 14, 11, 126
33, 22080, Control_c, 14, 11, 127
33, 22559, Note_on_c, 14, 81, 0
33, 22572, Note_on_c, 14, 79, 55
33, 23999, Note_on_c, 14, 79, 0
33, 24024, Note_on_c, 14, 77, 39
33, 25439, Note_on_c, 14, 77, 0
33, 25441, Note_on_c, 14, 76, 42
33, 26879, Note_on_c, 14, 76, 0
33, 26885, Note_on_c, 14, 74, 45
33, 28319, Note_on_c, 14, 74, 0
33, 28336, Note_on_c, 14, 45, 74
33, 28356, Program_c, 14, 48
33, 29766, Note_on_c, 14, 44, 66
33, 29776, Note_on_c, 14, 45, 0
33, 31686, Note_on_c, 14, 44, 0
33, 31689, Note_on_c, 14, 43, 73
33, 32638, Program_c, 14, 42
33, 32647, Note_on_c, 14, 45, 73
33, 32649, Note_on_c, 14, 43, 0
33, 34567, Note_on_c, 14, 45, 0
33, 34571, Note_on_c, 14, 43, 78
33, 35483, Note_on_c, 14, 43, 0
33, 36266, Note_on_c, 14, 41, 47
33, 36482, Note_on_c, 14, 54, 47
33, 36506, Note_on_c, 14, 41, 0
33, 36722, Note_on_c, 14, 54, 0
33, 36742, Note_on_c, 14, 53, 53
33, 36982, Note_on_c, 14, 53, 0
33, 37453, Note_on_c, 14, 54, 57
33, 37693, Note_on_c, 14, 54, 0
33, 37708, Note_on_c, 14, 41, 55
33, 37931, Note_on_c, 14, 42, 46
33, 37948, Note_on_c, 14, 41, 0
33, 38171, Note_on_c, 14, 42, 0
33, 38647, Note_on_c, 14, 41, 47
33, 38887, Note_on_c, 14, 41, 0
33, 38901, Note_on_c, 14, 54, 48
33, 39128, Note_on_c, 14, 53, 61
33, 39141, Note_on_c, 14, 54, 0
33, 39368, Note_on_c, 14, 53, 0
33, 42962, Note_on_c, 14, 68, 50
33, 42973, Note_on_c, 14, 63, 30
33, 42976, Note_on_c, 14, 66, 50
33, 43197, Control_c, 14, 11, 126
33, 43202, Note_on_c, 14, 68, 0
33, 43207, Control_c, 14, 11, 125
33, 43213, Note_on_c, 14, 63, 0
33, 43214, Note_on_c, 14, 65, 33
33, 43216, Note_on_c, 14, 70, 31
33, 43217, Control_c, 14, 11, 124
33, 43227, Control_c, 14, 11, 123
33, 43237, Control_c, 14, 11, 122
33, 43248, Control_c, 14, 11, 121
33, 43258, Control_c, 14, 11, 120
33, 43268, Control_c, 14, 11, 119
33, 43279, Control_c, 14, 11, 118
33, 43289, Control_c, 14, 11, 117
33, 43299, Control_c, 14, 11, 116
33, 43309, Control_c, 14, 11, 115
33, 43320, Control_c, 14, 11, 114
33, 43330, Control_c, 14, 11, 113
33, 43340, Control_c, 14, 11, 112
33, 43350, Control_c, 14, 11, 111
33, 43360, Control_c, 14, 11, 110
33, 43371, Control_c, 14, 11, 109
33, 43381, Control_c, 14, 11, 108
33, 43391, Control_c, 14, 11, 107
33, 43402, Control_c, 14, 11, 106
33, 43412, Control_c, 14, 11, 105
33, 43422, Control_c, 14, 11, 104
33, 43432, Control_c, 14, 11, 103
33, 43442, Control_c, 14, 11, 102
33, 43453, Control_c, 14, 11, 101
33, 43463, Control_c, 14, 11, 100
33, 43473, Control_c, 14, 11, 99
33, 43484, Control_c, 14, 11, 98
33, 43494, Control_c, 14, 11, 97
33, 43504, Control_c, 14, 11, 96
33, 43514, Control_c, 14, 11, 95
33, 43524, Control_c, 14, 11, 94
33, 43535, Control_c, 14, 11, 93
33, 43545, Control_c, 14, 11, 92
33, 43555, Control_c, 14, 11, 91
33, 43566, Control_c, 14, 11, 90
33, 43575, Control_c, 14, 11, 89
33, 43586, Control_c, 14, 11, 88
33, 43596, Control_c, 14, 11, 87
33, 43606, Control_c, 14, 11, 86
33, 43617, Control_c, 14, 11, 85
33, 43627, Control_c, 14, 11, 84
33, 43637, Control_c, 14, 11, 83
33, 43647, Control_c, 14, 11, 82
33, 43657, Control_c, 14, 11, 81
33, 43668, Control_c, 14, 11, 80
33, 43678, Control_c, 14, 11, 79
33, 43688, Control_c, 14, 11, 78
33, 43699, Control_c, 14, 11, 77
33, 43709, Control_c, 14, 11, 76
33, 43719, Control_c, 14, 11, 75
33, 43729, Control_c, 14, 11, 74
33, 43740, Control_c, 14, 11, 73
33, 43750, Control_c, 14, 11, 72
33, 43760, Control_c, 14, 11, 71
33, 43770, Control_c, 14, 11, 70
33, 43780, Control_c, 14, 11, 69
33, 43791, Control_c, 14, 11, 68
33, 43801, Control_c, 14, 11, 67
33, 43811, Control_c, 14, 11, 66
33, 43822, Control_c, 14, 11, 65
33, 43832, Control_c, 14, 11, 64
33, 43842, Control_c, 14, 11, 63
33, 43852, Control_c, 14, 11, 62
33, 43862, Control_c, 14, 11, 61
33, 43873, Control_c, 14, 11, 60
33, 43883, Control_c, 14, 11, 59
33, 43893, Control_c, 14, 11, 58
33, 43904, Control_c, 14, 11, 57
33, 43914, Control_c, 14, 11, 56
33, 43924, Control_c, 14, 11, 55
33, 43934, Note_on_c, 14, 65, 0
33, 43934, Control_c, 14, 11, 54
33, 43936, Note_on_c, 14, 66, 0
33, 43936, Note_on_c, 14, 70, 0
33, 43944, Control_c, 14, 11, 53
33, 43955, Control_c, 14, 11, 52
33, 43965, Control_c, 14, 11, 51
33, 43975, Control_c, 14, 11, 50
33, 43986, Control_c, 14, 11, 49
33, 43995, Control_c, 14, 11, 48
33, 44006, Control_c, 14, 11, 47
33, 44016, Control_c, 14, 11, 46
33, 44026, Control_c, 14, 11, 45
33, 44037, Control_c, 14, 11, 44
33, 44047, Control_c, 14, 11, 43
33, 44057, Control_c, 14, 11, 42
33, 44067, Control_c, 14, 11, 41
33, 44077, Control_c, 14, 11, 40
33, 44088, Control_c, 14, 11, 39
33, 44098, Control_c, 14, 11, 38
33, 44108, Control_c, 14, 11, 37
33, 44119, Control_c, 14, 11, 36
33, 44129, Control_c, 14, 11, 35
33, 44139, Control_c, 14, 11, 34
33, 44149, Control_c, 14, 11, 33
33, 44153, Control_c, 14, 11, 127
33, 47051, Note_on_c, 14, 54, 22
33, 47291, Note_on_c, 14, 54, 0
33, 47297, Note_on_c, 14, 41, 22
33, 47534, Note_on_c, 14, 42, 14
33, 47537, Note_on_c, 14, 41, 0
33, 47774, Note_on_c, 14, 42, 0
33, 53272, Program_c, 14, 48
33, 56164, Note_on_c, 14, 56, 44
33, 56174, Note_on_c, 14, 50, 46
33, 56195, Note_on_c, 14, 56, 0
33, 56205, Note_on_c, 14, 50, 0
33, 56255, Note_on_c, 14, 56, 40
33, 56268, Note_on_c, 14, 50, 35
33, 56287, Note_on_c, 14, 56, 0
33, 56300, Note_on_c, 14, 50, 0
33, 56333, Note_on_c, 14, 56, 36
33, 56336, Note_on_c, 14, 50, 40
33, 56874, Note_on_c, 14, 50, 0
33, 56888, Note_on_c, 14, 56, 0
33, 56893, Note_on_c, 14, 50, 35
33, 56908, Note_on_c, 14, 56, 44
33, 56924, Note_on_c, 14, 50, 0
33, 56939, Note_on_c, 14, 56, 0
33, 56964, Note_on_c, 14, 56, 34
33, 56968, Note_on_c, 14, 50, 41
33, 56996, Note_on_c, 14, 56, 0
33, 57000, Note_on_c, 14, 50, 0
33, 57059, Note_on_c, 14, 50, 39
33, 57067, Note_on_c, 14, 56, 47
33, 57619, Note_on_c, 14, 50, 0
33, 57619, Note_on_c, 14, 52, 49
33, 57627, Note_on_c, 14, 56, 0
33, 57628, Note_on_c, 14, 58, 43
33, 57650, Note_on_c, 14, 52, 0
33, 57659, Note_on_c, 14, 58, 0
33, 57691, Note_on_c, 14, 52, 39
33, 57697, Note_on_c, 14, 58, 38
33, 57723, Note_on_c, 14, 52, 0
33, 57729, Note_on_c, 14, 58, 0
33, 57779, Note_on_c, 14, 52, 30
33, 57780, Note_on_c, 14, 58, 35
33, 58084, Note_on_c, 14, 59, 45
33, 58100, Note_on_c, 14, 58, 0
33, 58276, Note_on_c, 14, 59, 0
33, 58570, Note_on_c, 14, 56, 39
33, 58570, Note_on_c, 14, 50, 33
33, 58579, Note_on_c, 14, 52, 0
33, 58601, Note_on_c, 14, 56, 0
33, 58601, Note_on_c, 14, 50, 0
33, 58642, Note_on_c, 14, 56, 47
33, 58647, Note_on_c, 14, 50, 46
33, 58674, Note_on_c, 14, 56, 0
33, 58679, Note_on_c, 14, 50, 0
33, 58727, Note_on_c, 14, 50, 35
33, 58738, Note_on_c, 14, 56, 44
33, 59521, Note_on_c, 14, 52, 31
33, 59527, Note_on_c, 14, 50, 0
33, 59538, Note_on_c, 14, 56, 0
33, 59542, Note_on_c, 14, 58, 42
33, 59552, Note_on_c, 14, 52, 0
33, 59573, Note_on_c, 14, 58, 0
33, 59602, Note_on_c, 14, 52, 33
33, 59607, Note_on_c, 14, 58, 47
33, 59634, Note_on_c, 14, 52, 0
33, 59639, Note_on_c, 14, 58, 0
33, 59691, Note_on_c, 14, 52, 49
33, 59697, Note_on_c, 14, 58, 34
33, 60251, Note_on_c, 14, 52, 0
33, 60257, Note_on_c, 14, 58, 0
33, 60260, Note_on_c, 14, 56, 47
33, 60265, Note_on_c, 14, 50, 41
33, 60291, Note_on_c, 14, 56, 0
33, 60296, Note_on_c, 14, 50, 0
33, 60320, Note_on_c, 14, 56, 39
33, 60342, Note_on_c, 14, 50, 46
33, 60352, Note_on_c, 14, 56, 0
33, 60374, Note_on_c, 14, 50, 0
33, 60406, Note_on_c, 14, 56, 36
33, 60412, Note_on_c, 14, 50, 45
33, 60438, Note_on_c, 14, 56, 0
33, 60444, Note_on_c, 14, 50, 0
33, 62937, Program_c, 14, 48
33, 65769, Note_on_c, 14, 46, 47
33, 65773, Note_on_c, 14, 53, 33
33, 65800, Note_on_c, 14, 46, 0
33, 65804, Note_on_c, 14, 53, 0
33, 65864, Note_on_c, 14, 46, 44
33, 65868, Note_on_c, 14, 53, 36
33, 65896, Note_on_c, 14, 46, 0
33, 65900, Note_on_c, 14, 53, 0
33, 65933, Note_on_c, 14, 53, 41
33, 65943, Note_on_c, 14, 46, 45
33, 66472, Note_on_c, 14, 53, 0
33, 66481, Note_on_c, 14, 46, 0
33, 66491, Note_on_c, 14, 53, 41
33, 66501, Note_on_c, 14, 46, 47
33, 66522, Note_on_c, 14, 53, 0
33, 66532, Note_on_c, 14, 46, 0
33, 66563, Note_on_c, 14, 53, 46
33, 66570, Note_on_c, 14, 46, 49
33, 66595, Note_on_c, 14, 53, 0
33, 66602, Note_on_c, 14, 46, 0
33, 66644, Note_on_c, 14, 53, 49
33, 66651, Note_on_c, 14, 46, 43
33, 67204, Note_on_c, 14, 53, 0
33, 67211, Note_on_c, 14, 46, 0
33, 68176, Note_on_c, 14, 53, 33
33, 68188, Note_on_c, 14, 46, 38
33, 68207, Note_on_c, 14, 53, 0
33, 68219, Note_on_c, 14, 46, 0
33, 68254, Note_on_c, 14, 53, 41
33, 68255, Note_on_c, 14, 46, 31
33, 68286, Note_on_c, 14, 53, 0
33, 68287, Note_on_c, 14, 46, 0
33, 68329, Note_on_c, 14, 53, 50
33, 68339, Note_on_c, 14, 46, 32
33, 69129, Note_on_c, 14, 53, 0
33, 69139, Note_on_c, 14, 46, 0
33, 69848, Note_on_c, 14, 46, 43
33, 69849, Note_on_c, 14, 53, 36
33, 69879, Note_on_c, 14, 46, 0
33, 69880, Note_on_c, 14, 53, 0
33, 69927, Note_on_c, 14, 53, 40
33, 69932, Note_on_c, 14, 46, 41
33, 69959, Note_on_c, 14, 53, 0
33, 69964, Note_on_c, 14, 46, 0
33, 70004, Note_on_c, 14, 46, 50
33, 70020, Note_on_c, 14, 53, 35
33, 70799, Note_on_c, 14, 53, 0
33, 70804, Note_on_c, 14, 46, 0
33, 70818, Note_on_c, 14, 53, 42
33, 70826, Note_on_c, 14, 46, 45
33, 70849, Note_on_c, 14, 53, 0
33, 70857, Note_on_c, 14, 46, 0
33, 70882, Note_on_c, 14, 53, 44
33, 70900, Note_on_c, 14, 46, 35
33, 70914, Note_on_c, 14, 53, 0
33, 70932, Note_on_c, 14, 46, 0
33, 70978, Note_on_c, 14, 46, 44
33, 70986, Note_on_c, 14, 53, 33
33, 71538, Note_on_c, 14, 46, 0
33, 71546, Note_on_c, 14, 53, 0
33, 72491, Note_on_c, 14, 53, 37
33, 72493, Note_on_c, 14, 46, 48
33, 72522, Note_on_c, 14, 53, 0
33, 72524, Note_on_c, 14, 46, 0
33, 72564, Note_on_c, 14, 46, 32
33, 72588, Note_on_c, 14, 53, 31
33, 72596, Note_on_c, 14, 46, 0
33, 72620, Note_on_c, 14, 53, 0
33, 72642, Note_on_c, 14, 53, 45
33, 72654, Note_on_c, 14, 46, 43
33, 73442, Note_on_c, 14, 53, 0
33, 73454, Note_on_c, 14, 46, 0
33, 74173, Note_on_c, 14, 53, 42
33, 74183, Note_on_c, 14, 46, 41
33, 74204, Note_on_c, 14, 53, 0
33, 74214, Note_on_c, 14, 46, 0
33, 74258, Note_on_c, 14, 46, 47
33, 74266, Note_on_c, 14, 53, 50
33, 74290, Note_on_c, 14, 46, 0
33, 74298, Note_on_c, 14, 53, 0
33, 74320, Note_on_c, 14, 46, 30
33, 74345, Note_on_c, 14, 53, 43
33, 75120, Note_on_c, 14, 46, 0
33, 75128, Note_on_c, 14, 53, 0
33, 75142, Note_on_c, 14, 46, 46
33, 75147, Note_on_c, 14, 53, 31
33, 75173, Note_on_c, 14, 46, 0
33, 75178, Note_on_c, 14, 53, 0
33, 75221, Note_on_c, 14, 53, 49
33, 75228, Note_on_c, 14, 46, 49
33, 75253, Note_on_c, 14, 53, 0
33, 75260, Note_on_c, 14, 46, 0
33, 75283, Note_on_c, 14, 53, 31
33, 75297, Note_on_c, 14, 46, 45
33, 75843, Note_on_c, 14, 53, 0
33, 75857, Note_on_c, 14, 46, 0
33, 76818, Note_on_c, 14, 46, 48
33, 76819, Note_on_c, 14, 53, 50
33, 76849, Note_on_c, 14, 46, 0
33, 76850, Note_on_c, 14, 53, 0
33, 76903, Note_on_c, 14, 46, 30
33, 76908, Note_on_c, 14, 53, 37
33, 76935, Note_on_c, 14, 46, 0
33, 76940, Note_on_c, 14, 53, 0
33, 76965, Note_on_c, 14, 46, 35
33, 76987, Note_on_c, 14, 53, 47
33, 77765, Note_on_c, 14, 46, 0
33, 77787, Note_on_c, 14, 53, 0
33, 78493, Note_on_c, 14, 53, 39
33, 78500, Note_on_c, 14, 46, 39
33, 78524, Note_on_c, 14, 53, 0
33, 78531, Note_on_c, 14, 46, 0
33, 78564, Note_on_c, 14, 53, 35
33, 78585, Note_on_c, 14, 46, 38
33, 78596, Note_on_c, 14, 53, 0
33, 78617, Note_on_c, 14, 46, 0
33, 78646, Note_on_c, 14, 53, 37
33, 78651, Note_on_c, 14, 46, 33
33, 79428, Note_on_c, 14, 53, 0
33, 79439, Note_on_c, 14, 46, 0
33, 79448, Note_on_c, 14, 53, 44
33, 79458, Note_on_c, 14, 46, 33
33, 79479, Note_on_c, 14, 53, 0
33, 79489, Note_on_c, 14, 46, 0
33, 79528, Note_on_c, 14, 53, 34
33, 79532, Note_on_c, 14, 46, 37
33, 79560, Note_on_c, 14, 53, 0
33, 79564, Note_on_c, 14, 46, 0
33, 79610, Note_on_c, 14, 46, 35
33, 79615, Note_on_c, 14, 53, 50
33, 80170, Note_on_c, 14, 46, 0
33, 80175, Note_on_c, 14, 53, 0
33, 81138, Note_on_c, 14, 53, 40
33, 81141, Note_on_c, 14, 46, 49
33, 81169, Note_on_c, 14, 53, 0
33, 81172, Note_on_c, 14, 46, 0
33, 81204, Note_on_c, 14, 46, 45
33, 81213, Note_on_c, 14, 53, 33
33, 81236, Note_on_c, 14, 46, 0
33, 81245, Note_on_c, 14, 53, 0
33, 81287, Note_on_c, 14, 53, 35
33, 81301, Note_on_c, 14, 46, 30
33, 82087, Note_on_c, 14, 53, 0
33, 82101, Note_on_c, 14, 46, 0
33, 82806, Note_on_c, 14, 53, 34
33, 82808, Note_on_c, 14, 46, 37
33, 82837, Note_on_c, 14, 53, 0
33, 82839, Note_on_c, 14, 46, 0
33, 82881, Note_on_c, 14, 46, 45
33, 82896, Note_on_c, 14, 53, 32
33, 82913, Note_on_c, 14, 46, 0
33, 82928, Note_on_c, 14, 53, 0
33, 82965, Note_on_c, 14, 53, 45
33, 82974, Note_on_c, 14, 46, 39
33, 83045, Note_on_c, 14, 53, 0
33, 83054, Note_on_c, 14, 46, 0
33, 89760, Program_c, 10, 45
33, 89761, Note_on_c, 10, 46, 46
33, 90241, Note_on_c, 10, 46, 0
33, 90246, Note_on_c, 10, 43, 41
33, 90726, Note_on_c, 10, 43, 0
33, 90729, Note_on_c, 10, 46, 42
33, 91209, Note_on_c, 10, 46, 0
33, 91224, Note_on_c, 10, 42, 41
33, 91656, Note_on_c, 10, 42, 0
33, 92166, Note_on_c, 10, 46, 56
33, 92641, Note_on_c, 10, 45, 40
33, 92646, Note_on_c, 10, 46, 0
33, 93121, Note_on_c, 10, 45, 0
33, 93131, Note_on_c, 10, 43, 46
33, 93604, Note_on_c, 10, 46, 48
33, 93611, Note_on_c, 10, 43, 0
33, 94084, Note_on_c, 10, 46, 0
33, 94091, Note_on_c, 10, 42, 55
33, 94523, Note_on_c, 10, 42, 0
33, 95056, Note_on_c, 10, 46, 49
33, 95536, Note_on_c, 10, 46, 0
33, 95542, Note_on_c, 10, 43, 52
33, 96019, Note_on_c, 10, 46, 48
33, 96022, Note_on_c, 10, 43, 0
33, 96499, Note_on_c, 10, 46, 0
33, 97445, Note_on_c, 10, 46, 57
33, 97925, Note_on_c, 10, 46, 0
33, 97943, Note_on_c, 10, 43, 43
33, 98415, Note_on_c, 10, 46, 52
33, 98423, Note_on_c, 10, 43, 0
33, 98891, Note_on_c, 10, 42, 57
33, 98895, Note_on_c, 10, 46, 0
33, 99198, Note_on_c, 10, 42, 0
33, 99257, Program_c, 10, 42
33, 99363, Note_on_c, 14, 64, 56
33, 99615, Note_on_c, 14, 54, 43
33, 100307, Note_on_c, 14, 64, 0
33, 100326, Note_on_c, 14, 64, 47
33, 100335, Note_on_c, 14, 54, 0
33, 100569, Note_on_c, 14, 54, 45
33, 101283, Note_on_c, 14, 64, 0
33, 101289, Note_on_c, 14, 54, 0
33, 101302, Note_on_c, 14, 64, 54
33, 101535, Note_on_c, 14, 54, 59
33, 102249, Note_on_c, 14, 64, 0
33, 102255, Note_on_c, 14, 54, 0
33, 102268, Note_on_c, 14, 64, 55
33, 102495, Note_on_c, 14, 54, 42
33, 103185, Note_on_c, 14, 64, 0
33, 103205, Note_on_c, 14, 64, 47
33, 103215, Note_on_c, 14, 54, 0
33, 103449, Note_on_c, 14, 54, 44
33, 104160, Note_on_c, 14, 64, 0
33, 104169, Note_on_c, 14, 54, 0
33, 104179, Note_on_c, 14, 64, 41
33, 104423, Note_on_c, 14, 54, 48
33, 105107, Note_on_c, 14, 64, 0
33, 105127, Note_on_c, 14, 64, 48
33, 105143, Note_on_c, 14, 54, 0
33, 105385, Note_on_c, 14, 54, 54
33, 105609, Note_on_c, 14, 53, 47
33, 105625, Note_on_c, 14, 54, 0
33, 106089, Note_on_c, 14, 53, 0
33, 106326, Note_on_c, 14, 54, 45
33, 107044, Note_on_c, 14, 64, 0
33, 107046, Note_on_c, 14, 54, 0
33, 107063, Note_on_c, 14, 64, 55
33, 107299, Note_on_c, 14, 54, 44
33, 107539, Note_on_c, 14, 54, 0
33, 107541, Note_on_c, 14, 53, 58
33, 108021, Note_on_c, 14, 53, 0
33, 108247, Note_on_c, 14, 54, 42
33, 108962, Note_on_c, 14, 64, 0
33, 108967, Note_on_c, 14, 54, 0
33, 108981, Note_on_c, 14, 64, 40
33, 109214, Note_on_c, 14, 54, 54
33, 109905, Note_on_c, 14, 64, 0
33, 109925, Note_on_c, 14, 64, 59
33, 109934, Note_on_c, 14, 54, 0
33, 110187, Note_on_c, 14, 54, 42
33, 110880, Control_c, 14, 11, 127
33, 110885, Note_on_c, 14, 64, 0
33, 110900, Control_c, 14, 11, 126
33, 110906, Note_on_c, 14, 64, 58
33, 110907, Note_on_c, 14, 54, 0
33, 110920, Control_c, 14, 11, 125
33, 110940, Control_c, 14, 11, 124
33, 110960, Control_c, 14, 11, 123
33, 110981, Control_c, 14, 11, 122
33, 111001, Control_c, 14, 11, 121
33, 111021, Control_c, 14, 11, 120
33, 111041, Control_c, 14, 11, 119
33, 111061, Control_c, 14, 11, 118
33, 111082, Control_c, 14, 11, 117
33, 111102, Control_c, 14, 11, 116
33, 111122, Control_c, 14, 11, 115
33, 111142, Control_c, 14, 11, 114
33, 111145, Note_on_c, 14, 54, 49
33, 111162, Control_c, 14, 11, 113
33, 111183, Control_c, 14, 11, 112
33, 111203, Control_c, 14, 11, 111
33, 111223, Control_c, 14, 11, 110
33, 111243, Control_c, 14, 11, 109
33, 111264, Control_c, 14, 11, 108
33, 111284, Control_c, 14, 11, 107
33, 111304, Control_c, 14, 11, 106
33, 111324, Control_c, 14, 11, 105
33, 111344, Control_c, 14, 11, 104
33, 111365, Control_c, 14, 11, 103
33, 111385, Control_c, 14, 11, 102
33, 111405, Control_c, 14, 11, 101
33, 111425, Control_c, 14, 11, 100
33, 111445, Control_c, 14, 11, 99
33, 111466, Control_c, 14, 11, 98
33, 111486, Control_c, 14, 11, 97
33, 111506, Control_c, 14, 11, 96
33, 111526, Control_c, 14, 11, 95
33, 111546, Control_c, 14, 11, 94
33, 111567, Control_c, 14, 11, 93
33, 111587, Control_c, 14, 11, 92
33, 111607, Control_c, 14, 11, 91
33, 111627, Control_c, 14, 11, 90
33, 111648, Control_c, 14, 11, 89
33, 111668, Control_c, 14, 11, 88
33, 111688, Control_c, 14, 11, 87
33, 111708, Control_c, 14, 11, 86
33, 111728, Control_c, 14, 11, 85
33, 111749, Control_c, 14, 11, 84
33, 111769, Control_c, 14, 11, 83
33, 111789, Control_c, 14, 11, 82
33, 111809, Control_c, 14, 11, 81
33, 111829, Control_c, 14, 11, 80
33, 111846, Note_on_c, 14, 64, 0
33, 111850, Control_c, 14, 11, 79
33, 111865, Note_on_c, 14, 54, 0
33, 111865, Note_on_c, 14, 64, 39
33, 111870, Control_c, 14, 11, 78
33, 111890, Control_c, 14, 11, 77
33, 111910, Control_c, 14, 11, 76
33, 111930, Control_c, 14, 11, 75
33, 111951, Control_c, 14, 11, 74
33, 111971, Control_c, 14, 11, 73
33, 111991, Control_c, 14, 11, 72
33, 112011, Control_c, 14, 11, 71
33, 112032, Control_c, 14, 11, 70
33, 112052, Control_c, 14, 11, 69
33, 112072, Control_c, 14, 11, 68
33, 112087, Note_on_c, 14, 54, 52
33, 112092, Control_c, 14, 11, 67
33, 112112, Control_c, 14, 11, 66
33, 112133, Control_c, 14, 11, 65
33, 112153, Control_c, 14, 11, 64
33, 112173, Control_c, 14, 11, 63
33, 112193, Control_c, 14, 11, 62
33, 112213, Control_c, 14, 11, 61
33, 112234, Control_c, 14, 11, 60
33, 112254, Control_c, 14, 11, 59
33, 112274, Control_c, 14, 11, 58
33, 112294, Control_c, 14, 11, 57
33, 112314, Control_c, 14, 11, 56
33, 112335, Control_c, 14, 11, 55
33, 112355, Control_c, 14, 11, 54
33, 112375, Control_c, 14, 11, 53
33, 112395, Control_c, 14, 11, 52
33, 112416, Control_c, 14, 11, 51
33, 112436, Control_c, 14, 11, 50
33, 112456, Control_c, 14, 11, 49
33, 112476, Control_c, 14, 11, 48
33, 112496, Control_c, 14, 11, 47
33, 112517, Control_c, 14, 11, 46
33, 112537, Control_c, 14, 11, 45
33, 112557, Control_c, 14, 11, 44
33, 112577, Control_c, 14, 11, 43
33, 112597, Control_c, 14, 11, 42
33, 112618, Control_c, 14, 11, 41
33, 112638, Control_c, 14, 11, 40
33, 112658, Control_c, 14, 11, 39
33, 112678, Control_c, 14, 11, 38
33, 112698, Control_c, 14, 11, 37
33, 112719, Control_c, 14, 11, 36
33, 112739, Control_c, 14, 11, 35
33, 112759, Control_c, 14, 11, 34
33, 112779, Control_c, 14, 11, 33
33, 112800, Control_c, 14, 11, 32
33, 112807, Note_on_c, 14, 54, 0
33, 112825, Note_on_c, 14, 64, 0
33, 113278, Control_c, 14, 11, 127
33, 141148, Note_on_c, 14, 59, 77
33, 141385, Note_on_c, 14, 61, 69
33, 141388, Note_on_c, 14, 59, 0
33, 141615, Note_on_c, 14, 63, 74
33, 141625, Note_on_c, 14, 61, 0
33, 141845, Note_on_c, 14, 64, 84
33, 141855, Note_on_c, 14, 63, 0
33, 142085, Note_on_c, 14, 64, 0
33, 142087, Note_on_c, 14, 66, 76
33, 142567, Note_on_c, 14, 66, 0
33, 142576, Note_on_c, 14, 61, 79
33, 142816, Note_on_c, 14, 61, 0
33, 142818, Note_on_c, 14, 66, 75
33, 143058, Note_on_c, 14, 66, 0
33, 143062, Note_on_c, 14, 64, 68
33, 143302, Note_on_c, 14, 64, 0
33, 143304, Note_on_c, 14, 63, 85
33, 143544, Note_on_c, 14, 63, 0
33, 143544, Note_on_c, 14, 61, 67
33, 144018, Note_on_c, 14, 64, 73
33, 144024, Note_on_c, 14, 61, 0
33, 144251, Note_on_c, 14, 66, 71
33, 144258, Note_on_c, 14, 64, 0
33, 144491, Note_on_c, 14, 66, 0
33, 144498, Note_on_c, 14, 61, 76
33, 144973, Note_on_c, 14, 66, 83
33, 144978, Note_on_c, 14, 61, 0
33, 145441, Note_on_c, 14, 61, 67
33, 145453, Note_on_c, 14, 66, 0
33, 145681, Note_on_c, 14, 61, 0
33, 145689, Note_on_c, 14, 66, 65
33, 145929, Note_on_c, 14, 66, 0
33, 145948, Note_on_c, 14, 64, 69
33, 146174, Note_on_c, 14, 63, 80
33, 146188, Note_on_c, 14, 64, 0
33, 146414, Note_on_c, 14, 63, 0
33, 146425, Note_on_c, 14, 61, 76
33, 146888, Note_on_c, 14, 57, 68
33, 146905, Note_on_c, 14, 61, 0
33, 147122, Note_on_c, 14, 61, 74
33, 147128, Note_on_c, 14, 57, 0
33, 147362, Note_on_c, 14, 61, 0
33, 147385, Note_on_c, 14, 63, 67
33, 147615, Note_on_c, 14, 64, 71
33, 147625, Note_on_c, 14, 63, 0
33, 147833, Program_c, 14, 45
33, 147855, Note_on_c, 14, 64, 0
33, 148577, Note_on_c, 14, 37, 48
33, 148592, Note_on_c, 14, 51, 44
33, 149022, Note_on_c, 14, 37, 0
33, 149041, Note_on_c, 14, 37, 54
33, 149042, Note_on_c, 14, 51, 0
33, 149082, Note_on_c, 14, 51, 58
33, 149519, Note_on_c, 14, 37, 0
33, 149532, Note_on_c, 14, 51, 0
33, 149539, Note_on_c, 14, 37, 56
33, 149567, Note_on_c, 14, 51, 48
33, 149995, Note_on_c, 14, 37, 0
33, 150014, Note_on_c, 14, 37, 56
33, 150017, Note_on_c, 14, 51, 0
33, 150038, Note_on_c, 14, 51, 50
33, 150248, Note_on_c, 14, 51, 0
33, 150254, Note_on_c, 14, 37, 0
33, 150493, Note_on_c, 14, 37, 45
33, 150526, Note_on_c, 14, 51, 39
33, 150954, Note_on_c, 14, 37, 0
33, 150973, Note_on_c, 14, 37, 39
33, 150976, Note_on_c, 14, 51, 0
33, 151008, Note_on_c, 14, 51, 57
33, 151438, Note_on_c, 14, 37, 0
33, 151451, Note_on_c, 14, 51, 0
33, 151457, Note_on_c, 14, 37, 44
33, 151470, Note_on_c, 14, 51, 54
33, 151903, Note_on_c, 14, 37, 0
33, 151920, Note_on_c, 14, 51, 0
33, 151922, Note_on_c, 14, 37, 44
33, 151950, Note_on_c, 14, 51, 54
33, 152160, Note_on_c, 14, 51, 0
33, 152162, Note_on_c, 14, 37, 0
33, 152401, Note_on_c, 14, 37, 44
33, 152447, Note_on_c, 14, 51, 45
33, 152881, Note_on_c, 14, 37, 0
33, 152897, Note_on_c, 14, 51, 0
33, 152907, Note_on_c, 14, 37, 49
33, 152928, Note_on_c, 14, 51, 52
33, 153348, Note_on_c, 14, 37, 0
33, 153368, Note_on_c, 14, 37, 39
33, 153378, Note_on_c, 14, 51, 0
33, 153413, Note_on_c, 14, 51, 46
33, 153843, Note_on_c, 14, 37, 0
33, 153855, Note_on_c, 14, 51, 0
33, 153862, Note_on_c, 14, 37, 48
33, 153875, Note_on_c, 14, 51, 56
33, 154085, Note_on_c, 14, 51, 0
33, 154102, Note_on_c, 14, 37, 0
33, 154337, Note_on_c, 14, 37, 46
33, 154351, Note_on_c, 14, 51, 48
33, 154793, Note_on_c, 14, 37, 0
33, 154801, Note_on_c, 14, 51, 0
33, 154813, Note_on_c, 14, 37, 47
33, 154830, Note_on_c, 14, 51, 44
33, 155275, Note_on_c, 14, 37, 0
33, 155280, Note_on_c, 14, 51, 0
33, 155294, Note_on_c, 14, 37, 53
33, 155338, Note_on_c, 14, 51, 48
33, 155534, Note_on_c, 14, 37, 0
33, 155548, Note_on_c, 14, 51, 0
33, 155764, Note_on_c, 14, 37, 47
33, 155815, Note_on_c, 14, 51, 42
33, 156244, Note_on_c, 14, 37, 0
33, 156263, Note_on_c, 14, 37, 49
33, 156265, Note_on_c, 14, 51, 0
33, 156290, Note_on_c, 14, 51, 58
33, 156716, Note_on_c, 14, 37, 0
33, 156736, Note_on_c, 14, 37, 51
33, 156740, Note_on_c, 14, 51, 0
33, 156774, Note_on_c, 14, 51, 46
33, 157194, Note_on_c, 14, 37, 0
33, 157213, Note_on_c, 14, 37, 44
33, 157219, Note_on_c, 14, 51, 0
33, 157238, Note_on_c, 14, 51, 54
33, 157685, Note_on_c, 14, 37, 0
33, 157688, Note_on_c, 14, 51, 0
33, 157705, Note_on_c, 14, 37, 45
33, 157726, Note_on_c, 14, 51, 41
33, 158150, Note_on_c, 14, 37, 0
33, 158169, Note_on_c, 14, 37, 56
33, 158171, Note_on_c, 14, 51, 0
33, 158190, Note_on_c, 14, 51, 57
33, 158400, Note_on_c, 14, 51, 0
33, 158409, Note_on_c, 14, 37, 0
33, 158660, Note_on_c, 14, 37, 50
33, 158697, Note_on_c, 14, 51, 51
33, 159123, Note_on_c, 14, 37, 0
33, 159143, Note_on_c, 14, 37, 43
33, 159147, Note_on_c, 14, 51, 0
33, 159166, Note_on_c, 14, 51, 44
33, 159584, Note_on_c, 14, 37, 0
33, 159603, Note_on_c, 14, 37, 44
33, 159616, Note_on_c, 14, 51, 0
33, 159651, Note_on_c, 14, 51, 41
33, 159843, Note_on_c, 14, 37, 0
33, 159861, Note_on_c, 14, 51, 0
33, 160346, Note_on_c, 14, 42, 56
33, 160826, Note_on_c, 14, 42, 0
33, 161301, Note_on_c, 14, 42, 42
33, 161781, Note_on_c, 14, 42, 0
33, 162260, Note_on_c, 14, 38, 49
33, 162740, Note_on_c, 14, 38, 0
33, 163217, Note_on_c, 14, 42, 50
33, 163697, Note_on_c, 14, 42, 0
33, 164164, Note_on_c, 14, 42, 40
33, 164644, Note_on_c, 14, 42, 0
33, 165123, Note_on_c, 14, 38, 56
33, 165603, Note_on_c, 14, 38, 0
33, 166093, Note_on_c, 14, 39, 56
33, 166573, Note_on_c, 14, 39, 0
33, 175211, Program_c, 14, 44
33, 178106, Note_on_c, 14, 78, 38
33, 183578, Note_on_c, 14, 78, 0
33, 183829, Control_c, 14, 7, 64
33, 183840, Program_c, 14, 42
33, 183847, Note_on_c, 14, 63, 80
33, 183850, Note_on_c, 14, 66, 76
33, 184567, Note_on_c, 14, 63, 0
33, 184570, Note_on_c, 14, 66, 0
33, 184576, Note_on_c, 14, 64, 80
33, 184587, Note_on_c, 14, 67, 67
33, 184815, Note_on_c, 14, 66, 80
33, 184816, Note_on_c, 14, 64, 0
33, 184824, Note_on_c, 14, 63, 73
33, 184827, Note_on_c, 14, 67, 0
33, 185287, Note_on_c, 14, 70, 65
33, 185290, Note_on_c, 14, 67, 74
33, 185295, Note_on_c, 14, 66, 0
33, 185304, Note_on_c, 14, 63, 0
33, 185521, Note_on_c, 14, 66, 72
33, 185525, Note_on_c, 14, 71, 65
33, 185527, Note_on_c, 14, 70, 0
33, 185530, Note_on_c, 14, 67, 0
33, 185761, Note_on_c, 14, 66, 0
33, 185765, Note_on_c, 14, 71, 0
33, 185765, Note_on_c, 14, 70, 85
33, 185779, Note_on_c, 14, 64, 77
33, 186238, Note_on_c, 14, 70, 0
33, 186253, Note_on_c, 14, 69, 79
33, 186258, Note_on_c, 14, 70, 70
33, 186259, Note_on_c, 14, 64, 0
33, 186637, Note_on_c, 14, 69, 0
33, 186642, Note_on_c, 14, 70, 0
33, 186725, Note_on_c, 14, 59, 79
33, 186729, Note_on_c, 14, 55, 70
33, 187204, Note_on_c, 14, 61, 65
33, 187205, Note_on_c, 14, 59, 0
33, 187209, Note_on_c, 14, 55, 0
33, 187213, Note_on_c, 14, 57, 73
33, 187440, Note_on_c, 14, 55, 78
33, 187444, Note_on_c, 14, 61, 0
33, 187452, Note_on_c, 14, 59, 80
33, 187453, Note_on_c, 14, 57, 0
33, 187680, Note_on_c, 14, 55, 0
33, 187692, Note_on_c, 14, 59, 0
33, 187700, Note_on_c, 14, 62, 68
33, 187706, Note_on_c, 14, 66, 82
33, 188175, Note_on_c, 14, 63, 77
33, 188180, Note_on_c, 14, 62, 0
33, 188181, Note_on_c, 14, 59, 73
33, 188186, Note_on_c, 14, 66, 0
33, 188648, Note_on_c, 14, 60, 80
33, 188655, Note_on_c, 14, 63, 0
33, 188661, Note_on_c, 14, 59, 0
33, 188665, Note_on_c, 14, 64, 67
33, 188881, Note_on_c, 14, 63, 82
33, 188888, Note_on_c, 14, 60, 0
33, 188901, Note_on_c, 14, 66, 73
33, 188905, Note_on_c, 14, 64, 0
33, 189121, Note_on_c, 14, 63, 0
33, 189129, Note_on_c, 14, 57, 81
33, 189137, Note_on_c, 14, 61, 76
33, 189141, Note_on_c, 14, 66, 0
33, 189513, Note_on_c, 14, 57, 0
33, 189521, Note_on_c, 14, 61, 0
33, 191521, Note_on_c, 14, 71, 77
33, 191526, Note_on_c, 14, 66, 79
33, 191532, Note_on_c, 14, 67, 83
33, 192001, Note_on_c, 14, 71, 0
33, 192001, Note_on_c, 14, 61, 68
33, 192002, Note_on_c, 14, 64, 80
33, 192006, Note_on_c, 14, 66, 0
33, 192012, Note_on_c, 14, 67, 0
33, 192024, Note_on_c, 14, 70, 68
33, 192241, Note_on_c, 14, 61, 0
33, 192242, Note_on_c, 14, 64, 0
33, 192249, Note_on_c, 14, 66, 76
33, 192254, Note_on_c, 14, 67, 74
33, 192263, Note_on_c, 14, 71, 69
33, 192264, Note_on_c, 14, 70, 0
33, 192482, Note_on_c, 14, 66, 0
33, 192485, Note_on_c, 14, 59, 81
33, 192494, Note_on_c, 14, 67, 0
33, 192495, Note_on_c, 14, 63, 70
33, 192501, Note_on_c, 14, 66, 65
33, 192503, Note_on_c, 14, 71, 0
33, 192960, Note_on_c, 14, 67, 67
33, 192965, Note_on_c, 14, 59, 0
33, 192975, Note_on_c, 14, 63, 0
33, 192981, Note_on_c, 14, 66, 0
33, 192983, Note_on_c, 14, 61, 74
33, 192989, Note_on_c, 14, 70, 69
33, 193440, Note_on_c, 14, 67, 0
33, 193445, Note_on_c, 14, 60, 80
33, 193451, Note_on_c, 14, 68, 73
33, 193461, Note_on_c, 14, 63, 67
33, 193463, Note_on_c, 14, 61, 0
33, 193469, Note_on_c, 14, 70, 0
33, 193685, Note_on_c, 14, 60, 0
33, 193687, Note_on_c, 14, 63, 0
33, 193691, Note_on_c, 14, 68, 0
33, 193691, Note_on_c, 14, 66, 75
33, 193699, Note_on_c, 14, 59, 75
33, 193706, Note_on_c, 14, 63, 67
33, 193923, Note_on_c, 14, 61, 73
33, 193929, Note_on_c, 14, 64, 70
33, 193931, Note_on_c, 14, 66, 0
33, 193937, Note_on_c, 14, 70, 69
33, 193939, Note_on_c, 14, 59, 0
33, 193946, Note_on_c, 14, 63, 0
33, 194403, Note_on_c, 14, 61, 0
33, 194408, Note_on_c, 14, 63, 78
33, 194409, Note_on_c, 14, 64, 0
33, 194412, Note_on_c, 14, 66, 65
33, 194417, Note_on_c, 14, 70, 0
33, 194417, Note_on_c, 14, 59, 74
33, 194882, Note_on_c, 14, 62, 72
33, 194888, Note_on_c, 14, 63, 0
33, 194897, Note_on_c, 14, 59, 0
33, 194903, Note_on_c, 14, 57, 84
33, 195362, Note_on_c, 14, 62, 0
33, 195365, Note_on_c, 14, 60, 80
33, 195375, Note_on_c, 14, 63, 75
33, 195383, Note_on_c, 14, 57, 0
33, 195843, Note_on_c, 14, 70, 76
33, 195845, Note_on_c, 14, 60, 0
33, 195852, Note_on_c, 14, 66, 0
33, 195853, Note_on_c, 14, 64, 77
33, 195855, Note_on_c, 14, 63, 0
33, 195867, Note_on_c, 14, 61, 69
33, 196075, Note_on_c, 14, 70, 0
33, 196075, Note_on_c, 14, 61, 0
33, 196093, Note_on_c, 14, 64, 0
33, 196094, Note_on_c, 14, 61, 65
33, 196094, Note_on_c, 14, 70, 82
33, 196099, Note_on_c, 14, 67, 65
33, 196329, Note_on_c, 14, 63, 81
33, 196333, Note_on_c, 14, 66, 65
33, 196334, Note_on_c, 14, 61, 0
33, 196334, Note_on_c, 14, 70, 0
33, 196336, Note_on_c, 14, 59, 72
33, 196339, Note_on_c, 14, 67, 0
33, 196800, Note_on_c, 14, 62, 71
33, 196809, Note_on_c, 14, 63, 0
33, 196816, Note_on_c, 14, 59, 0
33, 196817, Note_on_c, 14, 57, 77
33, 197280, Note_on_c, 14, 62, 0
33, 197285, Note_on_c, 14, 60, 73
33, 197286, Note_on_c, 14, 63, 82
33, 197297, Note_on_c, 14, 57, 0
33, 197765, Note_on_c, 14, 60, 0
33, 197765, Note_on_c, 14, 61, 84
33, 197766, Note_on_c, 14, 63, 0
33, 197766, Note_on_c, 14, 67, 65
33, 197773, Note_on_c, 14, 66, 0
33, 197787, Note_on_c, 14, 64, 84
33, 198001, Note_on_c, 14, 60, 79
33, 198005, Note_on_c, 14, 61, 0
33, 198006, Note_on_c, 14, 67, 0
33, 198010, Note_on_c, 14, 66, 65
33, 198027, Note_on_c, 14, 64, 0
33, 198027, Note_on_c, 14, 62, 68
33, 198241, Note_on_c, 14, 60, 0
33, 198242, Note_on_c, 14, 58, 73
33, 198249, Note_on_c, 14, 67, 69
33, 198250, Note_on_c, 14, 66, 0
33, 198265, Note_on_c, 14, 61, 78
33, 198267, Note_on_c, 14, 62, 0
33, 198482, Note_on_c, 14, 58, 0
33, 198483, Note_on_c, 14, 63, 66
33, 198489, Note_on_c, 14, 67, 0
33, 198492, Note_on_c, 14, 60, 85
33, 198499, Note_on_c, 14, 69, 73
33, 198505, Note_on_c, 14, 61, 0
33, 198723, Note_on_c, 14, 63, 0
33, 198732, Note_on_c, 14, 60, 0
33, 198739, Note_on_c, 14, 69, 0
33, 198743, Note_on_c, 14, 61, 79
33, 198747, Note_on_c, 14, 67, 72
33, 198749, Note_on_c, 14, 70, 70
33, 199208, Note_on_c, 14, 71, 85
33, 199213, Note_on_c, 14, 64, 83
33, 199223, Note_on_c, 14, 61, 0
33, 199227, Note_on_c, 14, 67, 0
33, 199228, Note_on_c, 14, 66, 67
33, 199229, Note_on_c, 14, 70, 0
33, 199445, Note_on_c, 14, 70, 80
33, 199448, Note_on_c, 14, 71, 0
33, 199452, Note_on_c, 14, 67, 71
33, 199453, Note_on_c, 14, 64, 0
33, 199453, Note_on_c, 14, 61, 70
33, 199468, Note_on_c, 14, 66, 0
33, 199685, Note_on_c, 14, 70, 0
33, 199692, Note_on_c, 14, 67, 0
33, 199693, Note_on_c, 14, 61, 0
33, 199703, Note_on_c, 14, 63, 80
33, 199705, Note_on_c, 14, 60, 69
33, 199705, Note_on_c, 14, 68, 70
33, 200183, Note_on_c, 14, 63, 0
33, 200185, Note_on_c, 14, 60, 0
33, 200185, Note_on_c, 14, 68, 0
33, 202080, Control_c, 14, 7, 92
33, 204174, Control_c, 14, 101, 0
33, 204175, Control_c, 14, 100, 0
33, 204175, Control_c, 14, 6, 24
33, 204176, Control_c, 14, 38, 0
33, 205914, Control_c, 14, 101, 0
33, 205915, Control_c, 14, 100, 0
33, 205915, Control_c, 14, 6, 24
33, 205916, Control_c, 14, 38, 24
33, 208314, Program_c, 14, 48
33, 208314, Control_c, 14, 101, 0
33, 208314, Control_c, 14, 100, 0
33, 208315, Control_c, 14, 6, 24
33, 208315, Control_c, 14, 38, 0
33, 208593, Control_c, 14, 101, 0
33, 208594, Control_c, 14, 100, 0
33, 208594, Control_c, 14, 6, 0
33, 208595, Control_c, 14, 38, 24
33, 209760, Control_c, 14, 11, 96
33, 209768, Note_on_c, 14, 75, 127
33, 209773, Pitch_bend_c, 14, 2208
33, 209776, Control_c, 14, 11, 97
33, 209785, Pitch_bend_c, 14, 2368
33, 209793, Control_c, 14, 11, 98
33, 209798, Pitch_bend_c, 14, 2528
33, 209810, Control_c, 14, 11, 99
33, 209811, Pitch_bend_c, 14, 2688
33, 209824, Pitch_bend_c, 14, 2848
33, 209826, Control_c, 14, 11, 100
33, 209837, Pitch_bend_c, 14, 3008
33, 209843, Control_c, 14, 11, 101
33, 209850, Pitch_bend_c, 14, 3168
33, 209860, Control_c, 14, 11, 102
33, 209863, Pitch_bend_c, 14, 3328
33, 209876, Pitch_bend_c, 14, 3488
33, 209876, Control_c, 14, 11, 103
33, 209888, Pitch_bend_c, 14, 3648
33, 209893, Control_c, 14, 11, 104
33, 209902, Pitch_bend_c, 14, 3808
33, 209910, Control_c, 14, 11, 105
33, 209914, Pitch_bend_c, 14, 3968
33, 209926, Control_c, 14, 11, 106
33, 209927, Pitch_bend_c, 14, 4128
33, 209940, Pitch_bend_c, 14, 4288
33, 209943, Control_c, 14, 11, 107
33, 209953, Pitch_bend_c, 14, 4448
33, 209960, Control_c, 14, 11, 108
33, 209966, Pitch_bend_c, 14, 4608
33, 209977, Control_c, 14, 11, 109
33, 209979, Pitch_bend_c, 14, 4768
33, 209992, Pitch_bend_c, 14, 4928
33, 209993, Control_c, 14, 11, 110
33, 210005, Pitch_bend_c, 14, 5088
33, 210010, Control_c, 14, 11, 111
33, 210017, Pitch_bend_c, 14, 5248
33, 210027, Control_c, 14, 11, 112
33, 210030, Pitch_bend_c, 14, 5408
33, 210043, Control_c, 14, 11, 113
33, 210043, Pitch_bend_c, 14, 5568
33, 210056, Pitch_bend_c, 14, 5728
33, 210060, Control_c, 14, 11, 114
33, 210069, Pitch_bend_c, 14, 5888
33, 210077, Control_c, 14, 11, 115
33, 210082, Pitch_bend_c, 14, 6048
33, 210093, Control_c, 14, 11, 116
33, 210095, Pitch_bend_c, 14, 6208
33, 210108, Pitch_bend_c, 14, 6368
33, 210110, Control_c, 14, 11, 117
33, 210120, Pitch_bend_c, 14, 6528
33, 210127, Control_c, 14, 11, 118
33, 210134, Pitch_bend_c, 14, 6688
33, 210143, Control_c, 14, 11, 119
33, 210146, Pitch_bend_c, 14, 6848
33, 210159, Pitch_bend_c, 14, 7008
33, 210160, Control_c, 14, 11, 120
33, 210172, Pitch_bend_c, 14, 7168
33, 210177, Control_c, 14, 11, 121
33, 210185, Pitch_bend_c, 14, 7328
33, 210194, Control_c, 14, 11, 122
33, 210198, Pitch_bend_c, 14, 7488
33, 210210, Control_c, 14, 11, 123
33, 210211, Pitch_bend_c, 14, 7648
33, 210224, Pitch_bend_c, 14, 7808
33, 210227, Control_c, 14, 11, 124
33, 210237, Pitch_bend_c, 14, 7968
33, 210244, Control_c, 14, 11, 125
33, 210249, Pitch_bend_c, 14, 8128
33, 210260, Control_c, 14, 11, 126
33, 210368, Note_on_c, 14, 75, 0
33, 210729, Note_on_c, 14, 51, 110
33, 210745, Note_on_c, 14, 48, 104
33, 210969, Note_on_c, 14, 51, 0
33, 210985, Note_on_c, 14, 48, 0
33, 211216, Note_on_c, 14, 51, 107
33, 211217, Note_on_c, 14, 48, 93
33, 211456, Note_on_c, 14, 51, 0
33, 211457, Note_on_c, 14, 48, 0
33, 211680, Note_on_c, 14, 51, 108
33, 211707, Note_on_c, 14, 48, 99
33, 211920, Note_on_c, 14, 51, 0
33, 211947, Note_on_c, 14, 48, 0
33, 212161, Note_on_c, 14, 48, 96
33, 212171, Note_on_c, 14, 51, 97
33, 212401, Note_on_c, 14, 48, 0
33, 212411, Note_on_c, 14, 51, 0
33, 212650, Note_on_c, 14, 48, 111
33, 212657, Note_on_c, 14, 51, 106
33, 212890, Note_on_c, 14, 48, 0
33, 212897, Note_on_c, 14, 51, 0
33, 213120, Note_on_c, 14, 51, 93
33, 213146, Note_on_c, 14, 48, 95
33, 213360, Note_on_c, 14, 51, 0
33, 213386, Note_on_c, 14, 48, 0
33, 213601, Note_on_c, 14, 51, 93
33, 213617, Note_on_c, 14, 48, 109
33, 213841, Note_on_c, 14, 51, 0
33, 213857, Note_on_c, 14, 48, 0
33, 214082, Note_on_c, 14, 51, 102
33, 214091, Note_on_c, 14, 48, 98
33, 214322, Note_on_c, 14, 51, 0
33, 214331, Note_on_c, 14, 48, 0
33, 214564, Note_on_c, 14, 51, 99
33, 214572, Note_on_c, 14, 48, 103
33, 214804, Note_on_c, 14, 51, 0
33, 214812, Note_on_c, 14, 48, 0
33, 215042, Note_on_c, 14, 51, 101
33, 215053, Note_on_c, 14, 48, 99
33, 215282, Note_on_c, 14, 51, 0
33, 215293, Note_on_c, 14, 48, 0
33, 215539, Note_on_c, 14, 51, 104
33, 215543, Note_on_c, 14, 48, 96
33, 215779, Note_on_c, 14, 51, 0
33, 215783, Note_on_c, 14, 48, 0
33, 216027, Note_on_c, 14, 45, 114
33, 216134, Note_on_c, 14, 45, 0
33, 216551, Note_on_c, 14, 61, 112
33, 216611, Note_on_c, 14, 61, 0
33, 216627, Note_on_c, 14, 63, 101
33, 216664, Note_on_c, 14, 64, 109
33, 216687, Note_on_c, 14, 63, 0
33, 216724, Note_on_c, 14, 64, 0
33, 216732, Note_on_c, 14, 66, 100
33, 216843, Note_on_c, 14, 64, 95
33, 216852, Note_on_c, 14, 66, 0
33, 216963, Note_on_c, 14, 64, 0
33, 216973, Note_on_c, 14, 63, 100
33, 217069, Note_on_c, 14, 63, 0
33, 217216, Note_on_c, 14, 45, 102
33, 217323, Note_on_c, 14, 45, 0
33, 217680, Note_on_c, 14, 59, 111
33, 217740, Note_on_c, 14, 59, 0
33, 217758, Note_on_c, 14, 61, 105
33, 217812, Note_on_c, 14, 63, 120
33, 217818, Note_on_c, 14, 61, 0
33, 217870, Note_on_c, 14, 64, 105
33, 217872, Note_on_c, 14, 63, 0
33, 217930, Note_on_c, 14, 64, 0
33, 217930, Note_on_c, 14, 66, 105
33, 218048, Note_on_c, 14, 64, 97
33, 218050, Note_on_c, 14, 66, 0
33, 218168, Note_on_c, 14, 64, 0
33, 218184, Note_on_c, 14, 63, 98
33, 218280, Note_on_c, 14, 63, 0
33, 218403, Note_on_c, 14, 45, 92
33, 218643, Note_on_c, 14, 45, 0
33, 218909, Note_on_c, 14, 45, 81
33, 219149, Note_on_c, 14, 45, 0
33, 219380, Note_on_c, 14, 45, 95
33, 219620, Note_on_c, 14, 45, 0
33, 219842, Note_on_c, 14, 45, 80
33, 220082, Note_on_c, 14, 45, 0
33, 220342, Note_on_c, 14, 45, 95
33, 220561, Note_on_c, 14, 45, 0
33, 220580, Note_on_c, 14, 45, 103
33, 220687, Note_on_c, 14, 45, 0
33, 221113, Note_on_c, 14, 61, 115
33, 221173, Note_on_c, 14, 61, 0
33, 221177, Note_on_c, 14, 63, 111
33, 221222, Note_on_c, 14, 64, 116
33, 221237, Note_on_c, 14, 63, 0
33, 221282, Note_on_c, 14, 64, 0
33, 221302, Note_on_c, 14, 66, 97
33, 221412, Note_on_c, 14, 64, 91
33, 221422, Note_on_c, 14, 66, 0
33, 221530, Note_on_c, 14, 63, 111
33, 221532, Note_on_c, 14, 64, 0
33, 221626, Note_on_c, 14, 63, 0
33, 221768, Note_on_c, 14, 45, 104
33, 221875, Note_on_c, 14, 45, 0
33, 222242, Note_on_c, 14, 45, 104
33, 222349, Note_on_c, 14, 45, 0
33, 222731, Note_on_c, 14, 59, 118
33, 222791, Note_on_c, 14, 59, 0
33, 222798, Note_on_c, 14, 61, 116
33, 222848, Note_on_c, 14, 63, 100
33, 222858, Note_on_c, 14, 61, 0
33, 222908, Note_on_c, 14, 63, 0
33, 222920, Note_on_c, 14, 64, 104
33, 222965, Note_on_c, 14, 66, 102
33, 222980, Note_on_c, 14, 64, 0
33, 223085, Note_on_c, 14, 66, 0
33, 223087, Note_on_c, 14, 64, 91
33, 223203, Note_on_c, 14, 63, 101
33, 223207, Note_on_c, 14, 64, 0
33, 223299, Note_on_c, 14, 63, 0
33, 223456, Note_on_c, 14, 45, 103
33, 223563, Note_on_c, 14, 45, 0
33, 223997, Note_on_c, 14, 61, 117
33, 224057, Note_on_c, 14, 61, 0
33, 224063, Note_on_c, 14, 63, 119
33, 224103, Note_on_c, 14, 64, 103
33, 224123, Note_on_c, 14, 63, 0
33, 224162, Note_on_c, 14, 66, 92
33, 224163, Note_on_c, 14, 64, 0
33, 224282, Note_on_c, 14, 66, 0
33, 224298, Note_on_c, 14, 64, 111
33, 224410, Note_on_c, 14, 63, 106
33, 224418, Note_on_c, 14, 64, 0
33, 224506, Note_on_c, 14, 63, 0
33, 224642, Pitch_bend_c, 14, 2048
33, 224655, Pitch_bend_c, 14, 2208
33, 224655, Note_on_c, 14, 75, 83
33, 224667, Pitch_bend_c, 14, 2368
33, 224679, Pitch_bend_c, 14, 2528
33, 224692, Pitch_bend_c, 14, 2688
33, 224704, Pitch_bend_c, 14, 2848
33, 224716, Pitch_bend_c, 14, 3008
33, 224729, Pitch_bend_c, 14, 3168
33, 224741, Pitch_bend_c, 14, 3328
33, 224754, Pitch_bend_c, 14, 3488
33, 224766, Pitch_bend_c, 14, 3648
33, 224779, Pitch_bend_c, 14, 3808
33, 224791, Pitch_bend_c, 14, 3968
33, 224804, Pitch_bend_c, 14, 4128
33, 224816, Pitch_bend_c, 14, 4288
33, 224828, Pitch_bend_c, 14, 4448
33, 224841, Pitch_bend_c, 14, 4608
33, 224853, Pitch_bend_c, 14, 4768
33, 224866, Pitch_bend_c, 14, 4928
33, 224878, Pitch_bend_c, 14, 5088
33, 224891, Pitch_bend_c, 14, 5248
33, 224903, Pitch_bend_c, 14, 5408
33, 224916, Pitch_bend_c, 14, 5568
33, 224928, Pitch_bend_c, 14, 5728
33, 224940, Pitch_bend_c, 14, 5888
33, 224953, Pitch_bend_c, 14, 6048
33, 224965, Pitch_bend_c, 14, 6208
33, 224977, Pitch_bend_c, 14, 6368
33, 224990, Pitch_bend_c, 14, 6528
33, 225003, Pitch_bend_c, 14, 6688
33, 225015, Pitch_bend_c, 14, 6848
33, 225028, Pitch_bend_c, 14, 7008
33, 225040, Pitch_bend_c, 14, 7168
33, 225052, Pitch_bend_c, 14, 7328
33, 225065, Pitch_bend_c, 14, 7488
33, 225077, Pitch_bend_c, 14, 7648
33, 225090, Pitch_bend_c, 14, 7808
33, 225102, Pitch_bend_c, 14, 7968
33, 225114, Pitch_bend_c, 14, 8128
33, 225255, Note_on_c, 14, 75, 0
33, 225351, Pitch_bend_c, 14, 8192
33, 225606, Note_on_c, 14, 53, 85
33, 225843, Note_on_c, 14, 48, 93
33, 225846, Note_on_c, 14, 53, 0
33, 226083, Note_on_c, 14, 48, 0
33, 226086, Note_on_c, 14, 51, 96
33, 226326, Note_on_c, 14, 51, 0
33, 226584, Note_on_c, 14, 53, 91
33, 226814, Note_on_c, 14, 48, 91
33, 226824, Note_on_c, 14, 53, 0
33, 227054, Note_on_c, 14, 48, 0
33, 227060, Note_on_c, 14, 51, 81
33, 227300, Note_on_c, 14, 51, 0
33, 227536, Note_on_c, 14, 53, 93
33, 227774, Note_on_c, 14, 48, 81
33, 227776, Note_on_c, 14, 53, 0
33, 228014, Note_on_c, 14, 48, 0
33, 228015, Note_on_c, 14, 51, 92
33, 228255, Note_on_c, 14, 51, 0
33, 228491, Note_on_c, 14, 53, 97
33, 228731, Note_on_c, 14, 53, 0
33, 229456, Pitch_bend_c, 14, 2208
33, 229458, Note_on_c, 14, 75, 96
33, 229469, Pitch_bend_c, 14, 2368
33, 229481, Pitch_bend_c, 14, 2528
33, 229494, Pitch_bend_c, 14, 2688
33, 229506, Pitch_bend_c, 14, 2848
33, 229518, Pitch_bend_c, 14, 3008
33, 229531, Pitch_bend_c, 14, 3168
33, 229543, Pitch_bend_c, 14, 3328
33, 229556, Pitch_bend_c, 14, 3488
33, 229568, Pitch_bend_c, 14, 3648
33, 229580, Pitch_bend_c, 14, 3808
33, 229593, Pitch_bend_c, 14, 3968
33, 229605, Pitch_bend_c, 14, 4128
33, 229618, Pitch_bend_c, 14, 4288
33, 229630, Pitch_bend_c, 14, 4448
33, 229642, Pitch_bend_c, 14, 4608
33, 229655, Pitch_bend_c, 14, 4768
33, 229667, Pitch_bend_c, 14, 4928
33, 229680, Pitch_bend_c, 14, 5088
33, 229692, Pitch_bend_c, 14, 5248
33, 229704, Pitch_bend_c, 14, 5408
33, 229717, Pitch_bend_c, 14, 5568
33, 229729, Pitch_bend_c, 14, 5728
33, 229741, Pitch_bend_c, 14, 5888
33, 229754, Pitch_bend_c, 14, 6048
33, 229766, Pitch_bend_c, 14, 6208
33, 229778, Pitch_bend_c, 14, 6368
33, 229791, Pitch_bend_c, 14, 6528
33, 229803, Pitch_bend_c, 14, 6688
33, 229815, Pitch_bend_c, 14, 6848
33, 229828, Pitch_bend_c, 14, 7008
33, 229840, Pitch_bend_c, 14, 7168
33, 229852, Pitch_bend_c, 14, 7328
33, 229865, Pitch_bend_c, 14, 7488
33, 229877, Pitch_bend_c, 14, 7648
33, 229890, Pitch_bend_c, 14, 7808
33, 229902, Pitch_bend_c, 14, 7968
33, 229906, Note_on_c, 14, 75, 0
33, 229914, Pitch_bend_c, 14, 8128
33, 229925, Note_on_c, 14, 75, 78
33, 230045, Note_on_c, 14, 75, 0
33, 230151, Pitch_bend_c, 14, 8192
33, 230428, Note_on_c, 14, 53, 89
33, 230665, Note_on_c, 14, 48, 92
33, 230668, Note_on_c, 14, 53, 0
33, 230890, Note_on_c, 14, 51, 95
33, 230905, Note_on_c, 14, 48, 0
33, 231130, Note_on_c, 14, 51, 0
33, 231370, Note_on_c, 14, 53, 90
33, 231610, Note_on_c, 14, 53, 0
33, 231622, Note_on_c, 14, 48, 85
33, 231850, Note_on_c, 14, 51, 86
33, 231862, Note_on_c, 14, 48, 0
33, 232090, Note_on_c, 14, 51, 0
33, 232328, Note_on_c, 14, 53, 98
33, 232566, Note_on_c, 14, 48, 97
33, 232568, Note_on_c, 14, 53, 0
33, 232806, Note_on_c, 14, 48, 0
33, 232818, Note_on_c, 14, 51, 88
33, 233058, Note_on_c, 14, 51, 0
33, 233282, Note_on_c, 14, 45, 117
33, 233389, Note_on_c, 14, 45, 0
33, 233822, Note_on_c, 14, 61, 112
33, 233882, Note_on_c, 14, 61, 0
33, 233897, Note_on_c, 14, 63, 105
33, 233957, Note_on_c, 14, 63, 0
33, 233967, Note_on_c, 14, 64, 102
33, 234003, Note_on_c, 14, 66, 108
33, 234027, Note_on_c, 14, 64, 0
33, 234123, Note_on_c, 14, 66, 0
33, 234144, Note_on_c, 14, 64, 102
33, 234264, Note_on_c, 14, 64, 0
33, 234269, Note_on_c, 14, 63, 95
33, 234365, Note_on_c, 14, 63, 0
33, 234482, Pitch_bend_c, 14, 2048
33, 234495, Pitch_bend_c, 14, 2208
33, 234507, Note_on_c, 14, 75, 89
33, 234507, Pitch_bend_c, 14, 2368
33, 234519, Pitch_bend_c, 14, 2528
33, 234532, Pitch_bend_c, 14, 2688
33, 234544, Pitch_bend_c, 14, 2848
33, 234556, Pitch_bend_c, 14, 3008
33, 234569, Pitch_bend_c, 14, 3168
33, 234581, Pitch_bend_c, 14, 3328
33, 234594, Pitch_bend_c, 14, 3488
33, 234606, Pitch_bend_c, 14, 3648
33, 234619, Pitch_bend_c, 14, 3808
33, 234631, Pitch_bend_c, 14, 3968
33, 234644, Pitch_bend_c, 14, 4128
33, 234656, Pitch_bend_c, 14, 4288
33, 234668, Pitch_bend_c, 14, 4448
33, 234681, Pitch_bend_c, 14, 4608
33, 234693, Pitch_bend_c, 14, 4768
33, 234706, Pitch_bend_c, 14, 4928
33, 234718, Pitch_bend_c, 14, 5088
33, 234731, Pitch_bend_c, 14, 5248
33, 234743, Pitch_bend_c, 14, 5408
33, 234756, Pitch_bend_c, 14, 5568
33, 234768, Pitch_bend_c, 14, 5728
33, 234780, Pitch_bend_c, 14, 5888
33, 234793, Pitch_bend_c, 14, 6048
33, 234805, Pitch_bend_c, 14, 6208
33, 234817, Pitch_bend_c, 14, 6368
33, 234830, Pitch_bend_c, 14, 6528
33, 234843, Pitch_bend_c, 14, 6688
33, 234855, Pitch_bend_c, 14, 6848
33, 234868, Pitch_bend_c, 14, 7008
33, 234880, Pitch_bend_c, 14, 7168
33, 234892, Pitch_bend_c, 14, 7328
33, 234905, Pitch_bend_c, 14, 7488
33, 234917, Pitch_bend_c, 14, 7648
33, 234930, Pitch_bend_c, 14, 7808
33, 234942, Pitch_bend_c, 14, 7968
33, 234954, Pitch_bend_c, 14, 8128
33, 235107, Note_on_c, 14, 75, 0
33, 235191, Pitch_bend_c, 14, 8192
33, 235465, Note_on_c, 14, 53, 97
33, 235572, Note_on_c, 14, 53, 0
33, 235681, Note_on_c, 14, 48, 83
33, 235788, Note_on_c, 14, 48, 0
33, 235921, Note_on_c, 14, 51, 91
33, 236028, Note_on_c, 14, 51, 0
33, 236411, Note_on_c, 14, 53, 90
33, 236518, Note_on_c, 14, 53, 0
33, 236654, Note_on_c, 14, 48, 87
33, 236761, Note_on_c, 14, 48, 0
33, 236886, Note_on_c, 14, 51, 96
33, 236993, Note_on_c, 14, 51, 0
33, 237381, Note_on_c, 14, 53, 92
33, 237488, Note_on_c, 14, 53, 0
33, 237618, Note_on_c, 14, 48, 98
33, 237725, Note_on_c, 14, 48, 0
33, 237867, Note_on_c, 14, 51, 82
33, 237974, Note_on_c, 14, 51, 0
33, 238321, Note_on_c, 14, 45, 103
33, 238428, Note_on_c, 14, 45, 0
33, 238814, Note_on_c, 14, 45, 116
33, 238921, Note_on_c, 14, 45, 0
33, 239302, Note_on_c, 14, 45, 107
33, 239409, Note_on_c, 14, 45, 0
33, 239784, Note_on_c, 14, 45, 113
33, 239891, Note_on_c, 14, 45, 0
33, 240261, Note_on_c, 14, 59, 119
33, 240321, Note_on_c, 14, 59, 0
33, 240322, Note_on_c, 14, 61, 103
33, 240375, Note_on_c, 14, 63, 107
33, 240382, Note_on_c, 14, 61, 0
33, 240435, Note_on_c, 14, 63, 0
33, 240447, Note_on_c, 14, 64, 120
33, 240502, Note_on_c, 14, 66, 97
33, 240507, Note_on_c, 14, 64, 0
33, 240604, Note_on_c, 14, 64, 92
33, 240622, Note_on_c, 14, 66, 0
33, 240724, Note_on_c, 14, 64, 0
33, 240740, Note_on_c, 14, 63, 106
33, 240836, Note_on_c, 14, 63, 0
33, 240981, Note_on_c, 14, 45, 101
33, 241088, Note_on_c, 14, 45, 0
33, 241469, Note_on_c, 14, 45, 107
33, 241576, Note_on_c, 14, 45, 0
33, 241925, Note_on_c, 14, 45, 116
33, 242032, Note_on_c, 14, 45, 0
33, 242417, Note_on_c, 14, 45, 109
33, 242524, Note_on_c, 14, 45, 0
33, 242889, Note_on_c, 14, 45, 100
33, 242996, Note_on_c, 14, 45, 0
33, 243125, Note_on_c, 14, 45, 119
33, 243232, Note_on_c, 14, 45, 0
33, 243625, Note_on_c, 14, 59, 116
33, 243667, Note_on_c, 14, 61, 108
33, 243685, Note_on_c, 14, 59, 0
33, 243727, Note_on_c, 14, 61, 0
33, 243727, Note_on_c, 14, 63, 106
33, 243786, Note_on_c, 14, 64, 107
33, 243787, Note_on_c, 14, 63, 0
33, 243846, Note_on_c, 14, 64, 0
33, 243864, Note_on_c, 14, 66, 95
33, 243975, Note_on_c, 14, 64, 94
33, 243984, Note_on_c, 14, 66, 0
33, 244095, Note_on_c, 14, 64, 0
33, 244107, Note_on_c, 14, 63, 97
33, 244203, Note_on_c, 14, 63, 0
33, 244321, Note_on_c, 14, 45, 100
33, 244428, Note_on_c, 14, 45, 0
33, 244816, Note_on_c, 14, 59, 119
33, 244868, Note_on_c, 14, 61, 115
33, 244876, Note_on_c, 14, 59, 0
33, 244928, Note_on_c, 14, 61, 0
33, 244934, Note_on_c, 14, 63, 112
33, 244986, Note_on_c, 14, 64, 109
33, 244994, Note_on_c, 14, 63, 0
33, 245046, Note_on_c, 14, 64, 0
33, 245067, Note_on_c, 14, 66, 93
33, 245182, Note_on_c, 14, 64, 103
33, 245187, Note_on_c, 14, 66, 0
33, 245302, Note_on_c, 14, 64, 0
33, 245306, Note_on_c, 14, 63, 100
33, 245402, Note_on_c, 14, 63, 0
33, 245534, Note_on_c, 14, 45, 116
33, 245641, Note_on_c, 14, 45, 0
33, 246016, Note_on_c, 14, 45, 120
33, 246123, Note_on_c, 14, 45, 0
33, 246490, Note_on_c, 14, 59, 108
33, 246548, Note_on_c, 14, 61, 111
33, 246550, Note_on_c, 14, 59, 0
33, 246602, Note_on_c, 14, 63, 110
33, 246608, Note_on_c, 14, 61, 0
33, 246662, Note_on_c, 14, 63, 0
33, 246668, Note_on_c, 14, 64, 120
33, 246728, Note_on_c, 14, 64, 0
33, 246728, Note_on_c, 14, 66, 95
33, 246848, Note_on_c, 14, 66, 0
33, 246854, Note_on_c, 14, 64, 91
33, 246964, Note_on_c, 14, 63, 100
33, 246974, Note_on_c, 14, 64, 0
33, 247060, Note_on_c, 14, 63, 0
33, 247226, Note_on_c, 14, 45, 120
33, 247333, Note_on_c, 14, 45, 0
33, 247706, Note_on_c, 14, 59, 118
33, 247749, Note_on_c, 14, 61, 119
33, 247766, Note_on_c, 14, 59, 0
33, 247804, Note_on_c, 14, 63, 113
33, 247809, Note_on_c, 14, 61, 0
33, 247864, Note_on_c, 14, 63, 0
33, 247888, Note_on_c, 14, 64, 105
33, 247945, Note_on_c, 14, 66, 103
33, 247948, Note_on_c, 14, 64, 0
33, 248043, Note_on_c, 14, 64, 106
33, 248065, Note_on_c, 14, 66, 0
33, 248163, Note_on_c, 14, 64, 0
33, 248181, Note_on_c, 14, 63, 109
33, 248277, Note_on_c, 14, 63, 0
33, 248982, Pitch_bend_c, 14, 5803
33, 248991, Pitch_bend_c, 14, 5963
33, 249000, Pitch_bend_c, 14, 6123
33, 249002, Note_on_c, 14, 65, 109
33, 249009, Pitch_bend_c, 14, 6283
33, 249018, Pitch_bend_c, 14, 6443
33, 249027, Pitch_bend_c, 14, 6603
33, 249036, Pitch_bend_c, 14, 6763
33, 249045, Pitch_bend_c, 14, 6923
33, 249054, Pitch_bend_c, 14, 7083
33, 249063, Pitch_bend_c, 14, 7243
33, 249072, Pitch_bend_c, 14, 7403
33, 249081, Pitch_bend_c, 14, 7563
33, 249090, Pitch_bend_c, 14, 7723
33, 249099, Pitch_bend_c, 14, 7883
33, 249108, Pitch_bend_c, 14, 8043
33, 249114, Pitch_bend_c, 14, 8192
33, 249185, Note_on_c, 14, 65, 0
33, 249296, Note_on_c, 14, 66, 109
33, 249392, Note_on_c, 14, 66, 0
33, 249444, Note_on_c, 14, 61, 104
33, 249507, Note_on_c, 14, 61, 0
33, 249776, Note_on_c, 14, 66, 93
33, 249872, Note_on_c, 14, 66, 0
33, 249932, Note_on_c, 14, 57, 111
33, 249995, Note_on_c, 14, 57, 0
33, 250267, Note_on_c, 14, 63, 101
33, 250363, Note_on_c, 14, 63, 0
33, 250401, Note_on_c, 14, 60, 96
33, 250464, Note_on_c, 14, 60, 0
33, 251142, Pitch_bend_c, 14, 5803
33, 251151, Pitch_bend_c, 14, 5963
33, 251160, Pitch_bend_c, 14, 6123
33, 251169, Pitch_bend_c, 14, 6283
33, 251170, Note_on_c, 14, 65, 122
33, 251178, Pitch_bend_c, 14, 6443
33, 251187, Pitch_bend_c, 14, 6603
33, 251196, Pitch_bend_c, 14, 6763
33, 251205, Pitch_bend_c, 14, 6923
33, 251214, Pitch_bend_c, 14, 7083
33, 251223, Pitch_bend_c, 14, 7243
33, 251232, Pitch_bend_c, 14, 7403
33, 251241, Pitch_bend_c, 14, 7563
33, 251250, Pitch_bend_c, 14, 7723
33, 251259, Pitch_bend_c, 14, 7883
33, 251268, Pitch_bend_c, 14, 8043
33, 251275, Pitch_bend_c, 14, 8192
33, 251353, Note_on_c, 14, 65, 0
33, 251443, Note_on_c, 14, 66, 110
33, 251539, Note_on_c, 14, 66, 0
33, 251621, Note_on_c, 14, 61, 102
33, 251684, Note_on_c, 14, 61, 0
33, 251948, Note_on_c, 14, 66, 111
33, 252044, Note_on_c, 14, 66, 0
33, 252084, Note_on_c, 14, 58, 105
33, 252147, Note_on_c, 14, 58, 0
33, 252427, Note_on_c, 14, 63, 107
33, 252523, Note_on_c, 14, 63, 0
33, 252587, Note_on_c, 14, 60, 106
33, 252650, Note_on_c, 14, 60, 0
33, 252883, Note_on_c, 14, 63, 108
33, 252979, Note_on_c, 14, 63, 0
33, 253066, Note_on_c, 14, 57, 110
33, 253129, Note_on_c, 14, 57, 0
33, 253782, Pitch_bend_c, 14, 5803
33, 253791, Pitch_bend_c, 14, 5963
33, 253800, Pitch_bend_c, 14, 6123
33, 253809, Pitch_bend_c, 14, 6283
33, 253816, Note_on_c, 14, 65, 120
33, 253818, Pitch_bend_c, 14, 6443
33, 253827, Pitch_bend_c, 14, 6603
33, 253836, Pitch_bend_c, 14, 6763
33, 253845, Pitch_bend_c, 14, 6923
33, 253854, Pitch_bend_c, 14, 7083
33, 253863, Pitch_bend_c, 14, 7243
33, 253872, Pitch_bend_c, 14, 7403
33, 253881, Pitch_bend_c, 14, 7563
33, 253890, Pitch_bend_c, 14, 7723
33, 253899, Pitch_bend_c, 14, 7883
33, 253908, Pitch_bend_c, 14, 8043
33, 253914, Pitch_bend_c, 14, 8192
33, 253999, Note_on_c, 14, 65, 0
33, 254107, Note_on_c, 14, 66, 98
33, 254203, Note_on_c, 14, 66, 0
33, 254259, Note_on_c, 14, 61, 111
33, 254322, Note_on_c, 14, 61, 0
33, 254582, Note_on_c, 14, 66, 109
33, 254678, Note_on_c, 14, 66, 0
33, 254731, Note_on_c, 14, 57, 101
33, 254794, Note_on_c, 14, 57, 0
33, 255068, Note_on_c, 14, 63, 103
33, 255164, Note_on_c, 14, 63, 0
33, 255201, Note_on_c, 14, 60, 105
33, 255264, Note_on_c, 14, 60, 0
33, 255539, Note_on_c, 14, 66, 110
33, 255680, Note_on_c, 14, 61, 102
33, 255699, Note_on_c, 14, 66, 0
33, 255840, Note_on_c, 14, 61, 0
33, 255853, Note_on_c, 14, 66, 101
33, 255973, Note_on_c, 14, 66, 0
33, 255979, Note_on_c, 14, 57, 109
33, 256099, Note_on_c, 14, 57, 0
33, 256325, Note_on_c, 14, 63, 101
33, 256445, Note_on_c, 14, 63, 0
33, 256456, Note_on_c, 14, 60, 94
33, 256576, Note_on_c, 14, 60, 0
33, 256800, Program_c, 14, 45
33, 256804, Note_on_c, 14, 41, 70
33, 257041, Note_on_c, 14, 42, 71
33, 257044, Note_on_c, 14, 41, 0
33, 257281, Note_on_c, 14, 42, 0
33, 257287, Note_on_c, 14, 41, 74
33, 257527, Note_on_c, 14, 41, 0
33, 257541, Note_on_c, 14, 42, 69
33, 257769, Note_on_c, 14, 41, 72
33, 257781, Note_on_c, 14, 42, 0
33, 258009, Note_on_c, 14, 41, 0
33, 258027, Note_on_c, 14, 42, 72
33, 258249, Note_on_c, 14, 41, 65
33, 258267, Note_on_c, 14, 42, 0
33, 258481, Note_on_c, 14, 42, 68
33, 258489, Note_on_c, 14, 41, 0
33, 258721, Note_on_c, 14, 42, 0
33, 258734, Note_on_c, 14, 41, 79
33, 258974, Note_on_c, 14, 41, 0
33, 258983, Note_on_c, 14, 42, 65
33, 259194, Program_c, 14, 48
33, 259194, Pitch_bend_c, 14, 8192
33, 259223, Note_on_c, 14, 42, 0
33, 259361, Note_on_c, 14, 66, 97
33, 259457, Note_on_c, 14, 66, 0
33, 259539, Note_on_c, 14, 61, 96
33, 259602, Note_on_c, 14, 61, 0
33, 259840, Note_on_c, 14, 66, 102
33, 259936, Note_on_c, 14, 66, 0
33, 260002, Note_on_c, 14, 57, 104
33, 260065, Note_on_c, 14, 57, 0
33, 260348, Note_on_c, 14, 63, 105
33, 260444, Note_on_c, 14, 63, 0
33, 260480, Note_on_c, 14, 60, 111
33, 260543, Note_on_c, 14, 60, 0
33, 260652, Note_on_c, 14, 65, 104
33, 260715, Note_on_c, 14, 65, 0
33, 260827, Note_on_c, 14, 66, 105
33, 260923, Note_on_c, 14, 66, 0
33, 260972, Note_on_c, 14, 61, 98
33, 261035, Note_on_c, 14, 61, 0
33, 261305, Note_on_c, 14, 66, 101
33, 261401, Note_on_c, 14, 66, 0
33, 261450, Note_on_c, 14, 57, 94
33, 261513, Note_on_c, 14, 57, 0
33, 261622, Note_on_c, 14, 63, 101
33, 261742, Note_on_c, 14, 63, 0
33, 261747, Note_on_c, 14, 60, 109
33, 261867, Note_on_c, 14, 60, 0
33, 262243, Note_on_c, 14, 66, 109
33, 262339, Note_on_c, 14, 66, 0
33, 262410, Note_on_c, 14, 61, 105
33, 262570, Note_on_c, 14, 61, 0
33, 262584, Note_on_c, 14, 66, 92
33, 262689, Note_on_c, 14, 57, 94
33, 262704, Note_on_c, 14, 66, 0
33, 262809, Note_on_c, 14, 57, 0
33, 263051, Note_on_c, 14, 63, 105
33, 263160, Note_on_c, 14, 60, 108
33, 263171, Note_on_c, 14, 63, 0
33, 263280, Note_on_c, 14, 60, 0
33, 264480, Program_c, 14, 45
33, 264483, Note_on_c, 14, 53, 54
33, 264723, Note_on_c, 14, 53, 0
33, 264745, Note_on_c, 14, 42, 52
33, 264985, Note_on_c, 14, 42, 0
33, 264988, Note_on_c, 14, 40, 59
33, 265225, Note_on_c, 14, 41, 66
33, 265228, Note_on_c, 14, 40, 0
33, 265448, Note_on_c, 14, 53, 65
33, 265465, Note_on_c, 14, 41, 0
33, 265687, Note_on_c, 14, 42, 54
33, 265688, Note_on_c, 14, 53, 0
33, 265927, Note_on_c, 14, 42, 0
33, 265936, Note_on_c, 14, 40, 58
33, 266171, Note_on_c, 14, 41, 57
33, 266176, Note_on_c, 14, 40, 0
33, 266405, Note_on_c, 14, 53, 68
33, 266411, Note_on_c, 14, 41, 0
33, 266645, Note_on_c, 14, 53, 0
33, 266667, Note_on_c, 14, 42, 69
33, 266905, Note_on_c, 14, 40, 66
33, 266907, Note_on_c, 14, 42, 0
33, 267141, Note_on_c, 14, 41, 54
33, 267145, Note_on_c, 14, 40, 0
33, 267366, Note_on_c, 14, 53, 52
33, 267381, Note_on_c, 14, 41, 0
33, 267606, Note_on_c, 14, 53, 0
33, 267623, Note_on_c, 14, 42, 58
33, 267860, Note_on_c, 14, 40, 66
33, 267863, Note_on_c, 14, 42, 0
33, 268084, Note_on_c, 14, 41, 63
33, 268100, Note_on_c, 14, 40, 0
33, 268324, Note_on_c, 14, 41, 0
33, 268343, Note_on_c, 14, 53, 58
33, 268564, Note_on_c, 14, 42, 61
33, 268583, Note_on_c, 14, 53, 0
33, 268804, Note_on_c, 14, 42, 0
33, 268820, Note_on_c, 14, 40, 60
33, 269045, Note_on_c, 14, 41, 64
33, 269060, Note_on_c, 14, 40, 0
33, 269285, Note_on_c, 14, 41, 0
33, 269306, Note_on_c, 14, 53, 66
33, 269527, Note_on_c, 14, 42, 58
33, 269546, Note_on_c, 14, 53, 0
33, 269763, Note_on_c, 14, 40, 84
33, 269767, Note_on_c, 14, 42, 0
33, 270003, Note_on_c, 14, 40, 0
33, 270010, Note_on_c, 14, 41, 84
33, 270250, Note_on_c, 14, 41, 0
33, 270256, Note_on_c, 14, 53, 85
33, 270496, Note_on_c, 14, 53, 0
33, 270499, Note_on_c, 14, 42, 69
33, 270739, Note_on_c, 14, 42, 0
33, 270742, Note_on_c, 14, 40, 68
33, 270974, Note_on_c, 14, 41, 84
33, 270982, Note_on_c, 14, 40, 0
33, 271203, Note_on_c, 14, 53, 77
33, 271214, Note_on_c, 14, 41, 0
33, 271443, Note_on_c, 14, 53, 0
33, 271445, Note_on_c, 14, 42, 69
33, 271682, Note_on_c, 14, 40, 73
33, 271685, Note_on_c, 14, 42, 0
33, 271922, Note_on_c, 14, 40, 0
33, 271948, Note_on_c, 14, 41, 67
33, 272187, Note_on_c, 14, 53, 82
33, 272188, Note_on_c, 14, 41, 0
33, 272427, Note_on_c, 14, 53, 0
33, 272428, Note_on_c, 14, 42, 78
33, 272652, Note_on_c, 14, 40, 80
33, 272668, Note_on_c, 14, 42, 0
33, 272892, Note_on_c, 14, 40, 0
33, 272906, Note_on_c, 14, 41, 81
33, 273122, Note_on_c, 14, 53, 78
33, 273146, Note_on_c, 14, 41, 0
33, 273362, Note_on_c, 14, 53, 0
33, 273366, Note_on_c, 14, 42, 65
33, 273606, Note_on_c, 14, 42, 0
33, 273614, Note_on_c, 14, 40, 76
33, 273854, Note_on_c, 14, 40, 0
33, 273856, Note_on_c, 14, 41, 85
33, 274081, Note_on_c, 14, 53, 72
33, 274096, Note_on_c, 14, 41, 0
33, 274321, Note_on_c, 14, 53, 0
33, 274345, Note_on_c, 14, 42, 83
33, 274566, Note_on_c, 14, 40, 69
33, 274585, Note_on_c, 14, 42, 0
33, 274806, Note_on_c, 14, 40, 0
33, 274814, Note_on_c, 14, 41, 70
33, 275051, Note_on_c, 14, 53, 68
33, 275054, Note_on_c, 14, 41, 0
33, 275290, Note_on_c, 14, 42, 75
33, 275291, Note_on_c, 14, 53, 0
33, 275530, Note_on_c, 14, 42, 0
33, 275539, Note_on_c, 14, 40, 73
33, 275778, Note_on_c, 14, 41, 71
33, 275779, Note_on_c, 14, 40, 0
33, 276018, Note_on_c, 14, 41, 0
33, 276025, Note_on_c, 14, 53, 73
33, 276240, Note_on_c, 14, 42, 66
33, 276265, Note_on_c, 14, 53, 0
33, 276480, Note_on_c, 14, 42, 0
33, 276485, Note_on_c, 14, 40, 74
33, 276725, Note_on_c, 14, 40, 0
33, 276732, Note_on_c, 14, 41, 83
33, 276969, Note_on_c, 14, 53, 79
33, 276972, Note_on_c, 14, 41, 0
33, 277209, Note_on_c, 14, 53, 0
33, 277215, Note_on_c, 14, 42, 76
33, 277455, Note_on_c, 14, 42, 0
33, 277462, Note_on_c, 14, 40, 84
33, 277695, Note_on_c, 14, 41, 68
33, 277702, Note_on_c, 14, 40, 0
33, 277933, Note_on_c, 14, 53, 76
33, 277935, Note_on_c, 14, 41, 0
33, 278173, Note_on_c, 14, 53, 0
33, 278176, Note_on_c, 14, 42, 74
33, 278416, Note_on_c, 14, 42, 0
33, 278428, Note_on_c, 14, 40, 82
33, 278646, Note_on_c, 14, 41, 79
33, 278668, Note_on_c, 14, 40, 0
33, 278883, Note_on_c, 14, 53, 65
33, 278886, Note_on_c, 14, 41, 0
33, 279122, Note_on_c, 14, 42, 65
33, 279123, Note_on_c, 14, 53, 0
33, 279362, Note_on_c, 14, 42, 0
33, 279382, Note_on_c, 14, 40, 68
33, 279602, Note_on_c, 14, 41, 84
33, 279622, Note_on_c, 14, 40, 0
33, 279841, Note_on_c, 14, 53, 85
33, 279842, Note_on_c, 14, 41, 0
33, 280081, Note_on_c, 14, 53, 0
33, 280098, Note_on_c, 14, 42, 80
33, 280338, Note_on_c, 14, 42, 0
33, 280339, Note_on_c, 14, 40, 78
33, 280576, Note_on_c, 14, 41, 72
33, 280579, Note_on_c, 14, 40, 0
33, 280803, Note_on_c, 14, 53, 83
33, 280816, Note_on_c, 14, 41, 0
33, 281043, Note_on_c, 14, 53, 0
33, 281044, Note_on_c, 14, 42, 76
33, 281284, Note_on_c, 14, 42, 0
33, 281294, Note_on_c, 14, 40, 81
33, 281530, Note_on_c, 14, 41, 83
33, 281534, Note_on_c, 14, 40, 0
33, 281770, Note_on_c, 14, 41, 0
33, 281772, Note_on_c, 14, 53, 81
33, 282012, Note_on_c, 14, 53, 0
33, 282018, Note_on_c, 14, 42, 79
33, 282258, Note_on_c, 14, 42, 0
33, 282258, Note_on_c, 14, 40, 70
33, 282498, Note_on_c, 14, 40, 0
33, 282500, Note_on_c, 14, 41, 76
33, 282724, Note_on_c, 14, 53, 75
33, 282740, Note_on_c, 14, 41, 0
33, 282964, Note_on_c, 14, 53, 0
33, 282977, Note_on_c, 14, 42, 70
33, 283216, Note_on_c, 14, 40, 66
33, 283217, Note_on_c, 14, 42, 0
33, 283456, Note_on_c, 14, 40, 0
33, 283458, Note_on_c, 14, 41, 85
33, 283698, Note_on_c, 14, 41, 0
33, 283703, Note_on_c, 14, 53, 72
33, 283940, Note_on_c, 14, 42, 84
33, 283943, Note_on_c, 14, 53, 0
33, 284180, Note_on_c, 14, 42, 0
33, 284180, Note_on_c, 14, 40, 78
33, 284411, Note_on_c, 14, 41, 69
33, 284420, Note_on_c, 14, 40, 0
33, 284651, Note_on_c, 14, 41, 0
33, 284667, Note_on_c, 14, 53, 67
33, 284889, Note_on_c, 14, 42, 74
33, 284907, Note_on_c, 14, 53, 0
33, 285129, Note_on_c, 14, 42, 0
33, 285148, Note_on_c, 14, 40, 73
33, 285365, Note_on_c, 14, 41, 75
33, 285388, Note_on_c, 14, 40, 0
33, 285605, Note_on_c, 14, 41, 0
33, 285610, Note_on_c, 14, 53, 75
33, 285846, Note_on_c, 14, 42, 81
33, 285850, Note_on_c, 14, 53, 0
33, 286086, Note_on_c, 14, 42, 0
33, 286095, Note_on_c, 14, 40, 73
33, 286331, Note_on_c, 14, 41, 80
33, 286335, Note_on_c, 14, 40, 0
33, 286571, Note_on_c, 14, 41, 0
33, 286579, Note_on_c, 14, 53, 71
33, 286803, Note_on_c, 14, 42, 80
33, 286819, Note_on_c, 14, 53, 0
33, 287043, Note_on_c, 14, 42, 0
33, 287068, Note_on_c, 14, 40, 69
33, 287288, Note_on_c, 14, 41, 67
33, 287308, Note_on_c, 14, 40, 0
33, 287528, Note_on_c, 14, 41, 0
33, 287531, Note_on_c, 14, 53, 84
33, 287771, Note_on_c, 14, 53, 0
33, 287773, Note_on_c, 14, 42, 85
33, 288013, Note_on_c, 14, 42, 0
33, 288240, Program_c, 14, 48
33, 288244, Note_on_c, 14, 41, 95
33, 288484, Note_on_c, 14, 41, 0
33, 288497, Note_on_c, 14, 52, 91
33, 288722, Note_on_c, 14, 63, 102
33, 288737, Note_on_c, 14, 52, 0
33, 288962, Note_on_c, 14, 63, 0
33, 288973, Note_on_c, 14, 52, 92
33, 289213, Note_on_c, 14, 52, 0
33, 289225, Note_on_c, 14, 61, 107
33, 289263, Note_on_c, 14, 61, 0
33, 289305, Note_on_c, 14, 62, 110
33, 289343, Note_on_c, 14, 62, 0
33, 289409, Note_on_c, 14, 63, 99
33, 289447, Note_on_c, 14, 63, 0
33, 289490, Note_on_c, 14, 64, 111
33, 289528, Note_on_c, 14, 64, 0
33, 289589, Note_on_c, 14, 65, 109
33, 289627, Note_on_c, 14, 65, 0
33, 289702, Note_on_c, 14, 66, 91
33, 289733, Note_on_c, 14, 66, 0
33, 289783, Note_on_c, 14, 67, 109
33, 289815, Note_on_c, 14, 67, 0
33, 289859, Note_on_c, 14, 68, 106
33, 289891, Note_on_c, 14, 68, 0
33, 289936, Note_on_c, 14, 69, 101
33, 289967, Note_on_c, 14, 69, 0
33, 290001, Note_on_c, 14, 70, 111
33, 290033, Note_on_c, 14, 70, 0
33, 290098, Note_on_c, 14, 71, 111
33, 290130, Note_on_c, 14, 71, 0
33, 290184, Note_on_c, 14, 72, 107
33, 290215, Note_on_c, 14, 72, 0
33, 290249, Note_on_c, 14, 72, 97
33, 290281, Note_on_c, 14, 72, 0
33, 290344, Note_on_c, 14, 71, 101
33, 290376, Note_on_c, 14, 71, 0
33, 290409, Note_on_c, 14, 70, 94
33, 290440, Note_on_c, 14, 70, 0
33, 290500, Note_on_c, 14, 69, 110
33, 290532, Note_on_c, 14, 69, 0
33, 290574, Note_on_c, 14, 68, 110
33, 290606, Note_on_c, 14, 68, 0
33, 290655, Note_on_c, 14, 67, 118
33, 290762, Note_on_c, 14, 67, 0
33, 291182, Note_on_c, 14, 61, 103
33, 291242, Note_on_c, 14, 61, 0
33, 291257, Note_on_c, 14, 63, 106
33, 291317, Note_on_c, 14, 63, 0
33, 291324, Note_on_c, 14, 64, 111
33, 291384, Note_on_c, 14, 64, 0
33, 291388, Note_on_c, 14, 66, 91
33, 291480, Note_on_c, 14, 64, 95
33, 291508, Note_on_c, 14, 66, 0
33, 291600, Note_on_c, 14, 64, 0
33, 291603, Note_on_c, 14, 63, 100
33, 291699, Note_on_c, 14, 63, 0
33, 291846, Note_on_c, 14, 45, 112
33, 291953, Note_on_c, 14, 45, 0
33, 292334, Note_on_c, 14, 60, 114
33, 292391, Note_on_c, 14, 61, 104
33, 292394, Note_on_c, 14, 60, 0
33, 292451, Note_on_c, 14, 61, 0
33, 292454, Note_on_c, 14, 63, 110
33, 292514, Note_on_c, 14, 63, 0
33, 292523, Note_on_c, 14, 64, 108
33, 292563, Note_on_c, 14, 66, 98
33, 292583, Note_on_c, 14, 64, 0
33, 292683, Note_on_c, 14, 66, 0
33, 292687, Note_on_c, 14, 64, 101
33, 292801, Note_on_c, 14, 63, 101
33, 292807, Note_on_c, 14, 64, 0
33, 292897, Note_on_c, 14, 63, 0
33, 293049, Note_on_c, 14, 45, 94
33, 293289, Note_on_c, 14, 45, 0
33, 293544, Note_on_c, 14, 45, 87
33, 293784, Note_on_c, 14, 45, 0
33, 294025, Note_on_c, 14, 45, 95
33, 294265, Note_on_c, 14, 45, 0
33, 294494, Note_on_c, 14, 45, 88
33, 294734, Note_on_c, 14, 45, 0
33, 294983, Note_on_c, 14, 45, 97
33, 295198, Note_on_c, 14, 45, 0
33, 295217, Note_on_c, 14, 45, 111
33, 295324, Note_on_c, 14, 45, 0
33, 295740, Note_on_c, 14, 61, 118
33, 295800, Note_on_c, 14, 61, 0
33, 295828, Note_on_c, 14, 63, 114
33, 295870, Note_on_c, 14, 64, 112
33, 295888, Note_on_c, 14, 63, 0
33, 295930, Note_on_c, 14, 64, 0
33, 295947, Note_on_c, 14, 66, 91
33, 296050, Note_on_c, 14, 64, 95
33, 296067, Note_on_c, 14, 66, 0
33, 296170, Note_on_c, 14, 64, 0
33, 296185, Note_on_c, 14, 63, 95
33, 296281, Note_on_c, 14, 63, 0
33, 296403, Note_on_c, 14, 45, 112
33, 296510, Note_on_c, 14, 45, 0
33, 296892, Note_on_c, 14, 45, 117
33, 296999, Note_on_c, 14, 45, 0
33, 297365, Note_on_c, 14, 59, 105
33, 297425, Note_on_c, 14, 59, 0
33, 297426, Note_on_c, 14, 61, 115
33, 297486, Note_on_c, 14, 61, 0
33, 297496, Note_on_c, 14, 63, 115
33, 297555, Note_on_c, 14, 64, 110
33, 297556, Note_on_c, 14, 63, 0
33, 297603, Note_on_c, 14, 66, 93
33, 297615, Note_on_c, 14, 64, 0
33, 297723, Note_on_c, 14, 66, 0
33, 297742, Note_on_c, 14, 64, 100
33, 297860, Note_on_c, 14, 63, 94
33, 297862, Note_on_c, 14, 64, 0
33, 297956, Note_on_c, 14, 63, 0
33, 298087, Note_on_c, 14, 45, 105
33, 298194, Note_on_c, 14, 45, 0
33, 298566, Note_on_c, 14, 60, 112
33, 298626, Note_on_c, 14, 60, 0
33, 298639, Note_on_c, 14, 61, 106
33, 298698, Note_on_c, 14, 63, 103
33, 298699, Note_on_c, 14, 61, 0
33, 298758, Note_on_c, 14, 63, 0
33, 298764, Note_on_c, 14, 64, 106
33, 298816, Note_on_c, 14, 66, 103
33, 298824, Note_on_c, 14, 64, 0
33, 298934, Note_on_c, 14, 64, 103
33, 298936, Note_on_c, 14, 66, 0
33, 299052, Note_on_c, 14, 63, 108
33, 299054, Note_on_c, 14, 64, 0
33, 299148, Note_on_c, 14, 63, 0
33, 299289, Note_on_c, 14, 45, 109
33, 299396, Note_on_c, 14, 45, 0
33, 299760, Note_on_c, 14, 45, 106
33, 299867, Note_on_c, 14, 45, 0
33, 300268, Note_on_c, 14, 45, 107
33, 300375, Note_on_c, 14, 45, 0
33, 300730, Note_on_c, 14, 45, 115
33, 300837, Note_on_c, 14, 45, 0
33, 301221, Note_on_c, 14, 60, 102
33, 301264, Note_on_c, 14, 61, 112
33, 301281, Note_on_c, 14, 60, 0
33, 301324, Note_on_c, 14, 61, 0
33, 301337, Note_on_c, 14, 63, 101
33, 301384, Note_on_c, 14, 64, 111
33, 301397, Note_on_c, 14, 63, 0
33, 301444, Note_on_c, 14, 64, 0
33, 301454, Note_on_c, 14, 66, 95
33, 301573, Note_on_c, 14, 64, 109
33, 301574, Note_on_c, 14, 66, 0
33, 301692, Note_on_c, 14, 63, 104
33, 301693, Note_on_c, 14, 64, 0
33, 301788, Note_on_c, 14, 63, 0
33, 301932, Note_on_c, 14, 45, 118
33, 302039, Note_on_c, 14, 45, 0
33, 302418, Note_on_c, 14, 45, 107
33, 302525, Note_on_c, 14, 45, 0
33, 302880, Note_on_c, 14, 45, 104
33, 302987, Note_on_c, 14, 45, 0
33, 303369, Note_on_c, 14, 45, 118
33, 303476, Note_on_c, 14, 45, 0
33, 303850, Note_on_c, 14, 45, 112
33, 303957, Note_on_c, 14, 45, 0
33, 304103, Note_on_c, 14, 45, 110
33, 304210, Note_on_c, 14, 45, 0
33, 304565, Note_on_c, 14, 60, 105
33, 304625, Note_on_c, 14, 60, 0
33, 304640, Note_on_c, 14, 61, 116
33, 304681, Note_on_c, 14, 63, 116
33, 304700, Note_on_c, 14, 61, 0
33, 304741, Note_on_c, 14, 63, 0
33, 304768, Note_on_c, 14, 64, 103
33, 304814, Note_on_c, 14, 66, 108
33, 304828, Note_on_c, 14, 64, 0
33, 304933, Note_on_c, 14, 64, 108
33, 304934, Note_on_c, 14, 66, 0
33, 305043, Note_on_c, 14, 63, 99
33, 305053, Note_on_c, 14, 64, 0
33, 305139, Note_on_c, 14, 63, 0
33, 305288, Note_on_c, 14, 45, 106
33, 305395, Note_on_c, 14, 45, 0
33, 305760, Note_on_c, 14, 60, 105
33, 305820, Note_on_c, 14, 60, 0
33, 305825, Note_on_c, 14, 61, 111
33, 305885, Note_on_c, 14, 61, 0
33, 305889, Note_on_c, 14, 63, 102
33, 305946, Note_on_c, 14, 64, 110
33, 305949, Note_on_c, 14, 63, 0
33, 306006, Note_on_c, 14, 64, 0
33, 306029, Note_on_c, 14, 66, 104
33, 306138, Note_on_c, 14, 64, 98
33, 306149, Note_on_c, 14, 66, 0
33, 306250, Note_on_c, 14, 63, 94
33, 306258, Note_on_c, 14, 64, 0
33, 306346, Note_on_c, 14, 63, 0
33, 306503, Note_on_c, 14, 45, 105
33, 306610, Note_on_c, 14, 45, 0
33, 306975, Note_on_c, 14, 45, 99
33, 307082, Note_on_c, 14, 45, 0
33, 307459, Note_on_c, 14, 60, 97
33, 307511, Note_on_c, 14, 61, 106
33, 307519, Note_on_c, 14, 60, 0
33, 307571, Note_on_c, 14, 61, 0
33, 307575, Note_on_c, 14, 63, 100
33, 307635, Note_on_c, 14, 63, 0
33, 307639, Note_on_c, 14, 64, 106
33, 307696, Note_on_c, 14, 66, 100
33, 307699, Note_on_c, 14, 64, 0
33, 307816, Note_on_c, 14, 66, 0
33, 307822, Note_on_c, 14, 64, 102
33, 307928, Note_on_c, 14, 63, 103
33, 307942, Note_on_c, 14, 64, 0
33, 308024, Note_on_c, 14, 63, 0
33, 308170, Note_on_c, 14, 45, 113
33, 308277, Note_on_c, 14, 45, 0
33, 308648, Note_on_c, 14, 60, 109
33, 308700, Note_on_c, 14, 61, 115
33, 308708, Note_on_c, 14, 60, 0
33, 308760, Note_on_c, 14, 61, 0
33, 308762, Note_on_c, 14, 63, 102
33, 308822, Note_on_c, 14, 63, 0
33, 308823, Note_on_c, 14, 64, 111
33, 308883, Note_on_c, 14, 64, 0
33, 308889, Note_on_c, 14, 66, 93
33, 309009, Note_on_c, 14, 66, 0
33, 309016, Note_on_c, 14, 64, 100
33, 309136, Note_on_c, 14, 64, 0
33, 309147, Note_on_c, 14, 63, 107
33, 309243, Note_on_c, 14, 63, 0
33, 312233, Control_c, 14, 11, 127
33, 312250, Control_c, 14, 11, 127
33, 312266, Control_c, 14, 11, 126
33, 312266, Note_on_c, 14, 42, 106
33, 312282, Control_c, 14, 11, 125
33, 312298, Control_c, 14, 11, 124
33, 312315, Control_c, 14, 11, 123
33, 312330, Control_c, 14, 11, 122
33, 312347, Control_c, 14, 11, 121
33, 312363, Control_c, 14, 11, 120
33, 312379, Control_c, 14, 11, 119
33, 312396, Control_c, 14, 11, 118
33, 312412, Control_c, 14, 11, 117
33, 312428, Control_c, 14, 11, 116
33, 312444, Control_c, 14, 11, 115
33, 312460, Control_c, 14, 11, 114
33, 312477, Control_c, 14, 11, 113
33, 312493, Control_c, 14, 11, 112
33, 312509, Control_c, 14, 11, 111
33, 312525, Control_c, 14, 11, 110
33, 312541, Control_c, 14, 11, 109
33, 312558, Control_c, 14, 11, 108
33, 312572, Note_on_c, 14, 40, 114
33, 312574, Control_c, 14, 11, 107
33, 312586, Note_on_c, 14, 42, 0
33, 312590, Control_c, 14, 11, 106
33, 312606, Control_c, 14, 11, 105
33, 312622, Control_c, 14, 11, 104
33, 312638, Control_c, 14, 11, 103
33, 312655, Control_c, 14, 11, 102
33, 312671, Control_c, 14, 11, 101
33, 312687, Control_c, 14, 11, 100
33, 312704, Control_c, 14, 11, 99
33, 312720, Control_c, 14, 11, 98
33, 312736, Control_c, 14, 11, 97
33, 312752, Control_c, 14, 11, 96
33, 312768, Control_c, 14, 11, 95
33, 312785, Control_c, 14, 11, 94
33, 312801, Control_c, 14, 11, 93
33, 312817, Control_c, 14, 11, 92
33, 312833, Control_c, 14, 11, 91
33, 312849, Control_c, 14, 11, 90
33, 312866, Control_c, 14, 11, 89
33, 312882, Control_c, 14, 11, 88
33, 312891, Note_on_c, 14, 40, 0
33, 312898, Control_c, 14, 11, 87
33, 312899, Note_on_c, 14, 39, 115
33, 312914, Control_c, 14, 11, 86
33, 312930, Control_c, 14, 11, 85
33, 312946, Control_c, 14, 11, 84
33, 312963, Control_c, 14, 11, 83
33, 312979, Control_c, 14, 11, 82
33, 312995, Control_c, 14, 11, 81
33, 313012, Control_c, 14, 11, 80
33, 313027, Control_c, 14, 11, 79
33, 313044, Control_c, 14, 11, 78
33, 313060, Control_c, 14, 11, 77
33, 313076, Control_c, 14, 11, 76
33, 313093, Control_c, 14, 11, 75
33, 313109, Control_c, 14, 11, 74
33, 313125, Control_c, 14, 11, 73
33, 313141, Control_c, 14, 11, 72
33, 313157, Control_c, 14, 11, 71
33, 313174, Control_c, 14, 11, 70
33, 313190, Control_c, 14, 11, 69
33, 313206, Control_c, 14, 11, 68
33, 313222, Control_c, 14, 11, 67
33, 313238, Control_c, 14, 11, 66
33, 319939, Note_on_c, 14, 39, 0
33, 319940, Note_on_c, 14, 38, 113
33, 322330, Note_on_c, 14, 43, 104
33, 322340, Note_on_c, 14, 38, 0
33, 322794, Control_c, 14, 11, 127
33, 322809, Control_c, 14, 11, 126
33, 322824, Control_c, 14, 11, 125
33, 322840, Control_c, 14, 11, 124
33, 322855, Control_c, 14, 11, 123
33, 322870, Control_c, 14, 11, 122
33, 322886, Control_c, 14, 11, 121
33, 322901, Control_c, 14, 11, 120
33, 322916, Control_c, 14, 11, 119
33, 322932, Control_c, 14, 11, 118
33, 322947, Control_c, 14, 11, 117
33, 322962, Control_c, 14, 11, 116
33, 322978, Control_c, 14, 11, 115
33, 322993, Control_c, 14, 11, 114
33, 323009, Control_c, 14, 11, 113
33, 323024, Control_c, 14, 11, 112
33, 323039, Control_c, 14, 11, 111
33, 323055, Control_c, 14, 11, 110
33, 323070, Control_c, 14, 11, 109
33, 323085, Control_c, 14, 11, 108
33, 323100, Control_c, 14, 11, 107
33, 323115, Control_c, 14, 11, 106
33, 323131, Control_c, 14, 11, 105
33, 323146, Control_c, 14, 11, 104
33, 323162, Control_c, 14, 11, 103
33, 323177, Control_c, 14, 11, 102
33, 323192, Control_c, 14, 11, 101
33, 323208, Control_c, 14, 11, 100
33, 323223, Control_c, 14, 11, 99
33, 323238, Control_c, 14, 11, 98
33, 323254, Control_c, 14, 11, 97
33, 323269, Control_c, 14, 11, 96
33, 323284, Control_c, 14, 11, 95
33, 323290, Note_on_c, 14, 43, 0
33, 323300, Control_c, 14, 11, 94
33, 323304, Note_on_c, 14, 39, 107
33, 323315, Control_c, 14, 11, 93
33, 323330, Control_c, 14, 11, 92
33, 323346, Control_c, 14, 11, 91
33, 323361, Control_c, 14, 11, 90
33, 323376, Control_c, 14, 11, 89
33, 323392, Control_c, 14, 11, 88
33, 323407, Control_c, 14, 11, 87
33, 323422, Control_c, 14, 11, 86
33, 323437, Control_c, 14, 11, 85
33, 323453, Control_c, 14, 11, 84
33, 323468, Control_c, 14, 11, 83
33, 323483, Control_c, 14, 11, 82
33, 323499, Control_c, 14, 11, 81
33, 323514, Control_c, 14, 11, 80
33, 323529, Control_c, 14, 11, 79
33, 323545, Control_c, 14, 11, 78
33, 323560, Control_c, 14, 11, 77
33, 323576, Control_c, 14, 11, 76
33, 323591, Control_c, 14, 11, 75
33, 323606, Control_c, 14, 11, 74
33, 323622, Control_c, 14, 11, 73
33, 323637, Control_c, 14, 11, 72
33, 323652, Control_c, 14, 11, 71
33, 323668, Control_c, 14, 11, 70
33, 323683, Control_c, 14, 11, 69
33, 323698, Control_c, 14, 11, 68
33, 323714, Control_c, 14, 11, 67
33, 323729, Control_c, 14, 11, 66
33, 323744, Control_c, 14, 11, 65
33, 323800, Control_c, 14, 11, 65
33, 323845, Control_c, 14, 11, 66
33, 323890, Control_c, 14, 11, 67
33, 323935, Control_c, 14, 11, 68
33, 323980, Control_c, 14, 11, 69
33, 324025, Control_c, 14, 11, 70
33, 324070, Control_c, 14, 11, 71
33, 324115, Control_c, 14, 11, 72
33, 324160, Control_c, 14, 11, 73
33, 324206, Control_c, 14, 11, 74
33, 324251, Control_c, 14, 11, 75
33, 324296, Control_c, 14, 11, 76
33, 324341, Control_c, 14, 11, 77
33, 324386, Control_c, 14, 11, 78
33, 324431, Control_c, 14, 11, 79
33, 324476, Control_c, 14, 11, 80
33, 324521, Control_c, 14, 11, 81
33, 324566, Control_c, 14, 11, 82
33, 324611, Control_c, 14, 11, 83
33, 324656, Control_c, 14, 11, 84
33, 324701, Control_c, 14, 11, 85
33, 324746, Control_c, 14, 11, 86
33, 324792, Control_c, 14, 11, 87
33, 324837, Control_c, 14, 11, 88
33, 324882, Control_c, 14, 11, 89
33, 324927, Control_c, 14, 11, 90
33, 324972, Control_c, 14, 11, 91
33, 325017, Control_c, 14, 11, 92
33, 325062, Control_c, 14, 11, 93
33, 325107, Control_c, 14, 11, 94
33, 325152, Control_c, 14, 11, 95
33, 325197, Control_c, 14, 11, 96
33, 325242, Control_c, 14, 11, 97
33, 325287, Control_c, 14, 11, 98
33, 325332, Control_c, 14, 11, 99
33, 325378, Control_c, 14, 11, 100
33, 325423, Control_c, 14, 11, 101
33, 325468, Control_c, 14, 11, 102
33, 325513, Control_c, 14, 11, 103
33, 325558, Control_c, 14, 11, 104
33, 325603, Control_c, 14, 11, 105
33, 325648, Control_c, 14, 11, 106
33, 325693, Control_c, 14, 11, 107
33, 325738, Control_c, 14, 11, 108
33, 325783, Control_c, 14, 11, 109
33, 325828, Control_c, 14, 11, 110
33, 325873, Control_c, 14, 11, 111
33, 325919, Control_c, 14, 11, 112
33, 325964, Control_c, 14, 11, 113
33, 326009, Control_c, 14, 11, 114
33, 326054, Control_c, 14, 11, 115
33, 326099, Control_c, 14, 11, 116
33, 326144, Control_c, 14, 11, 117
33, 326189, Control_c, 14, 11, 118
33, 326234, Control_c, 14, 11, 119
33, 326279, Control_c, 14, 11, 120
33, 326324, Control_c, 14, 11, 121
33, 326369, Control_c, 14, 11, 122
33, 326414, Control_c, 14, 11, 123
33, 326459, Control_c, 14, 11, 124
33, 326505, Control_c, 14, 11, 125
33, 326550, Control_c, 14, 11, 126
33, 326595, Control_c, 14, 11, 127
33, 326649, Note_on_c, 14, 42, 119
33, 326664, Note_on_c, 14, 39, 0
33, 326969, Note_on_c, 14, 42, 0
33, 326980, Note_on_c, 14, 40, 115
33, 327284, Note_on_c, 14, 39, 109
33, 327299, Note_on_c, 14, 40, 0
33, 327381, Control_c, 14, 11, 127
33, 327415, Control_c, 14, 11, 126
33, 327449, Control_c, 14, 11, 125
33, 327483, Control_c, 14, 11, 124
33, 327517, Control_c, 14, 11, 123
33, 327551, Control_c, 14, 11, 122
33, 327585, Control_c, 14, 11, 121
33, 327619, Control_c, 14, 11, 120
33, 327653, Control_c, 14, 11, 119
33, 327687, Control_c, 14, 11, 118
33, 327720, Control_c, 14, 11, 117
33, 327755, Control_c, 14, 11, 116
33, 327788, Control_c, 14, 11, 115
33, 327823, Control_c, 14, 11, 114
33, 327856, Control_c, 14, 11, 113
33, 327891, Control_c, 14, 11, 112
33, 327924, Control_c, 14, 11, 111
33, 327958, Control_c, 14, 11, 110
33, 327992, Control_c, 14, 11, 109
33, 328026, Control_c, 14, 11, 108
33, 328060, Control_c, 14, 11, 107
33, 328094, Control_c, 14, 11, 106
33, 328128, Control_c, 14, 11, 105
33, 328162, Control_c, 14, 11, 104
33, 328196, Control_c, 14, 11, 103
33, 328230, Control_c, 14, 11, 102
33, 328264, Control_c, 14, 11, 101
33, 328297, Control_c, 14, 11, 100
33, 328332, Control_c, 14, 11, 99
33, 328365, Control_c, 14, 11, 98
33, 328400, Control_c, 14, 11, 97
33, 328433, Control_c, 14, 11, 96
33, 328467, Control_c, 14, 11, 95
33, 328501, Control_c, 14, 11, 94
33, 328535, Control_c, 14, 11, 93
33, 328569, Control_c, 14, 11, 92
33, 328603, Control_c, 14, 11, 91
33, 328637, Control_c, 14, 11, 90
33, 328671, Control_c, 14, 11, 89
33, 328705, Control_c, 14, 11, 88
33, 328739, Control_c, 14, 11, 87
33, 328773, Control_c, 14, 11, 86
33, 328807, Control_c, 14, 11, 85
33, 328841, Control_c, 14, 11, 84
33, 328875, Control_c, 14, 11, 83
33, 328909, Control_c, 14, 11, 82
33, 328942, Control_c, 14, 11, 81
33, 328977, Control_c, 14, 11, 80
33, 329010, Control_c, 14, 11, 79
33, 329044, Control_c, 14, 11, 78
33, 329078, Control_c, 14, 11, 77
33, 329112, Control_c, 14, 11, 76
33, 329146, Control_c, 14, 11, 75
33, 329180, Control_c, 14, 11, 74
33, 329214, Control_c, 14, 11, 73
33, 329248, Control_c, 14, 11, 72
33, 329282, Control_c, 14, 11, 71
33, 329316, Control_c, 14, 11, 70
33, 329350, Control_c, 14, 11, 69
33, 329384, Control_c, 14, 11, 68
33, 329418, Control_c, 14, 11, 67
33, 329452, Control_c, 14, 11, 66
33, 329486, Control_c, 14, 11, 65
33, 331920, Control_c, 14, 11, 64
33, 331965, Control_c, 14, 11, 65
33, 332010, Control_c, 14, 11, 66
33, 332055, Control_c, 14, 11, 67
33, 332100, Control_c, 14, 11, 68
33, 332145, Control_c, 14, 11, 69
33, 332190, Control_c, 14, 11, 70
33, 332235, Control_c, 14, 11, 71
33, 332280, Control_c, 14, 11, 72
33, 332325, Control_c, 14, 11, 73
33, 332370, Control_c, 14, 11, 74
33, 332415, Control_c, 14, 11, 75
33, 332460, Control_c, 14, 11, 76
33, 332505, Control_c, 14, 11, 77
33, 332550, Control_c, 14, 11, 78
33, 332595, Control_c, 14, 11, 79
33, 332640, Control_c, 14, 11, 80
33, 332685, Control_c, 14, 11, 81
33, 332730, Control_c, 14, 11, 82
33, 332775, Control_c, 14, 11, 83
33, 332820, Control_c, 14, 11, 84
33, 332865, Control_c, 14, 11, 85
33, 332910, Control_c, 14, 11, 86
33, 332955, Control_c, 14, 11, 87
33, 333000, Control_c, 14, 11, 88
33, 333045, Control_c, 14, 11, 89
33, 333090, Control_c, 14, 11, 90
33, 333135, Control_c, 14, 11, 91
33, 333180, Control_c, 14, 11, 92
33, 333225, Control_c, 14, 11, 93
33, 333270, Control_c, 14, 11, 94
33, 333315, Control_c, 14, 11, 95
33, 333360, Control_c, 14, 11, 96
33, 333405, Control_c, 14, 11, 97
33, 333450, Control_c, 14, 11, 98
33, 333495, Control_c, 14, 11, 99
33, 333540, Control_c, 14, 11, 100
33, 333585, Control_c, 14, 11, 101
33, 333630, Control_c, 14, 11, 102
33, 333675, Control_c, 14, 11, 103
33, 333720, Control_c, 14, 11, 104
33, 333765, Control_c, 14, 11, 105
33, 333810, Control_c, 14, 11, 106
33, 333855, Control_c, 14, 11, 107
33, 333900, Control_c, 14, 11, 108
33, 333945, Control_c, 14, 11, 109
33, 333990, Control_c, 14, 11, 110
33, 334035, Control_c, 14, 11, 111
33, 334080, Control_c, 14, 11, 112
33, 334125, Control_c, 14, 11, 113
33, 334170, Control_c, 14, 11, 114
33, 334215, Control_c, 14, 11, 115
33, 334260, Control_c, 14, 11, 116
33, 334305, Control_c, 14, 11, 117
33, 334350, Control_c, 14, 11, 118
33, 334395, Control_c, 14, 11, 119
33, 334440, Control_c, 14, 11, 120
33, 334485, Control_c, 14, 11, 121
33, 334530, Control_c, 14, 11, 122
33, 334575, Control_c, 14, 11, 123
33, 334620, Control_c, 14, 11, 124
33, 334665, Control_c, 14, 11, 125
33, 334710, Control_c, 14, 11, 126
33, 334755, Control_c, 14, 11, 127
33, 334792, Control_c, 14, 11, 127
33, 334804, Note_on_c, 14, 39, 0
33, 334809, Control_c, 14, 11, 127
33, 334816, Note_on_c, 14, 42, 113
33, 334826, Control_c, 14, 11, 126
33, 334843, Control_c, 14, 11, 125
33, 334860, Control_c, 14, 11, 124
33, 334876, Control_c, 14, 11, 123
33, 334893, Control_c, 14, 11, 122
33, 334910, Control_c, 14, 11, 121
33, 334927, Control_c, 14, 11, 120
33, 334943, Control_c, 14, 11, 119
33, 334960, Control_c, 14, 11, 118
33, 334977, Control_c, 14, 11, 117
33, 334994, Control_c, 14, 11, 116
33, 335010, Control_c, 14, 11, 115
33, 335027, Control_c, 14, 11, 114
33, 335044, Control_c, 14, 11, 113
33, 335061, Control_c, 14, 11, 112
33, 335078, Control_c, 14, 11, 111
33, 335094, Control_c, 14, 11, 110
33, 335111, Control_c, 14, 11, 109
33, 335128, Control_c, 14, 11, 108
33, 335136, Note_on_c, 14, 42, 0
33, 335141, Note_on_c, 14, 40, 122
33, 335145, Control_c, 14, 11, 107
33, 335162, Control_c, 14, 11, 106
33, 335178, Control_c, 14, 11, 105
33, 335195, Control_c, 14, 11, 104
33, 335212, Control_c, 14, 11, 103
33, 335229, Control_c, 14, 11, 102
33, 335246, Control_c, 14, 11, 101
33, 335262, Control_c, 14, 11, 100
33, 335279, Control_c, 14, 11, 99
33, 335296, Control_c, 14, 11, 98
33, 335313, Control_c, 14, 11, 97
33, 335330, Control_c, 14, 11, 96
33, 335346, Control_c, 14, 11, 95
33, 335363, Control_c, 14, 11, 94
33, 335380, Control_c, 14, 11, 93
33, 335397, Control_c, 14, 11, 92
33, 335413, Control_c, 14, 11, 91
33, 335430, Control_c, 14, 11, 90
33, 335440, Note_on_c, 14, 39, 115
33, 335447, Control_c, 14, 11, 89
33, 335460, Note_on_c, 14, 40, 0
33, 335464, Control_c, 14, 11, 88
33, 335481, Control_c, 14, 11, 87
33, 335497, Control_c, 14, 11, 86
33, 335514, Control_c, 14, 11, 85
33, 335531, Control_c, 14, 11, 84
33, 335548, Control_c, 14, 11, 83
33, 335565, Control_c, 14, 11, 82
33, 335581, Control_c, 14, 11, 81
33, 335598, Control_c, 14, 11, 80
33, 335615, Control_c, 14, 11, 79
33, 335632, Control_c, 14, 11, 78
33, 335648, Control_c, 14, 11, 77
33, 335665, Control_c, 14, 11, 76
33, 335682, Control_c, 14, 11, 75
33, 335699, Control_c, 14, 11, 74
33, 335715, Control_c, 14, 11, 73
33, 335732, Control_c, 14, 11, 72
33, 335749, Control_c, 14, 11, 71
33, 335766, Control_c, 14, 11, 70
33, 335782, Control_c, 14, 11, 69
33, 335799, Control_c, 14, 11, 68
33, 335816, Control_c, 14, 11, 67
33, 335833, Control_c, 14, 11, 66
33, 341514, Control_c, 14, 11, 127
33, 341520, Note_on_c, 14, 39, 0
33, 341520, Control_c, 14, 11, 127
33, 341526, Note_on_c, 14, 43, 96
33, 341526, Note_on_c, 14, 50, 95
33, 341543, Note_on_c, 14, 58, 103
33, 342006, Note_on_c, 14, 43, 0
33, 342006, Note_on_c, 14, 50, 0
33, 342023, Note_on_c, 14, 58, 0
33, 342483, Note_on_c, 14, 43, 106
33, 342491, Note_on_c, 14, 50, 102
33, 342498, Note_on_c, 14, 58, 96
33, 342963, Note_on_c, 14, 43, 0
33, 342971, Note_on_c, 14, 50, 0
33, 342978, Note_on_c, 14, 58, 0
33, 346323, Note_on_c, 14, 60, 98
33, 346333, Note_on_c, 14, 45, 100
33, 346336, Note_on_c, 14, 52, 110
33, 346803, Note_on_c, 14, 60, 0
33, 346813, Note_on_c, 14, 45, 0
33, 346816, Note_on_c, 14, 52, 0
33, 347281, Note_on_c, 14, 50, 94
33, 347282, Note_on_c, 14, 58, 96
33, 347290, Note_on_c, 14, 43, 104
33, 347761, Note_on_c, 14, 50, 0
33, 347762, Note_on_c, 14, 58, 0
33, 347770, Note_on_c, 14, 43, 0
33, 349680, Note_on_c, 14, 60, 104
33, 349696, Note_on_c, 14, 43, 110
33, 349706, Note_on_c, 14, 52, 109
33, 350160, Note_on_c, 14, 60, 0
33, 350176, Note_on_c, 14, 43, 0
33, 350186, Note_on_c, 14, 52, 0
33, 350657, Note_on_c, 14, 60, 103
33, 350658, Note_on_c, 14, 52, 99
33, 350666, Note_on_c, 14, 43, 109
33, 351137, Note_on_c, 14, 60, 0
33, 351138, Note_on_c, 14, 52, 0
33, 351146, Note_on_c, 14, 43, 0
33, 352560, Control_c, 14, 11, 64
33, 352578, Note_on_c, 14, 39, 95
33, 354960, Control_c, 14, 11, 64
33, 355005, Control_c, 14, 11, 65
33, 355050, Control_c, 14, 11, 66
33, 355095, Control_c, 14, 11, 67
33, 355140, Control_c, 14, 11, 68
33, 355185, Control_c, 14, 11, 69
33, 355230, Control_c, 14, 11, 70
33, 355275, Control_c, 14, 11, 71
33, 355320, Control_c, 14, 11, 72
33, 355365, Control_c, 14, 11, 73
33, 355410, Control_c, 14, 11, 74
33, 355455, Control_c, 14, 11, 75
33, 355500, Control_c, 14, 11, 76
33, 355545, Control_c, 14, 11, 77
33, 355590, Control_c, 14, 11, 78
33, 355635, Control_c, 14, 11, 79
33, 355680, Control_c, 14, 11, 80
33, 355725, Control_c, 14, 11, 81
33, 355770, Control_c, 14, 11, 82
33, 355815, Control_c, 14, 11, 83
33, 355860, Control_c, 14, 11, 84
33, 355905, Control_c, 14, 11, 85
33, 355950, Control_c, 14, 11, 86
33, 355995, Control_c, 14, 11, 87
33, 356040, Control_c, 14, 11, 88
33, 356085, Control_c, 14, 11, 89
33, 356130, Control_c, 14, 11, 90
33, 356175, Control_c, 14, 11, 91
33, 356220, Control_c, 14, 11, 92
33, 356265, Control_c, 14, 11, 93
33, 356310, Control_c, 14, 11, 94
33, 356355, Control_c, 14, 11, 95
33, 356400, Control_c, 14, 11, 96
33, 356445, Control_c, 14, 11, 97
33, 356490, Control_c, 14, 11, 98
33, 356535, Control_c, 14, 11, 99
33, 356580, Control_c, 14, 11, 100
33, 356625, Control_c, 14, 11, 101
33, 356670, Control_c, 14, 11, 102
33, 356715, Control_c, 14, 11, 103
33, 356760, Control_c, 14, 11, 104
33, 356805, Control_c, 14, 11, 105
33, 356850, Control_c, 14, 11, 106
33, 356895, Control_c, 14, 11, 107
33, 356940, Control_c, 14, 11, 108
33, 356985, Control_c, 14, 11, 109
33, 357030, Control_c, 14, 11, 110
33, 357075, Control_c, 14, 11, 111
33, 357120, Control_c, 14, 11, 112
33, 357165, Control_c, 14, 11, 113
33, 357210, Control_c, 14, 11, 114
33, 357255, Control_c, 14, 11, 115
33, 357300, Control_c, 14, 11, 116
33, 357345, Control_c, 14, 11, 117
33, 357390, Control_c, 14, 11, 118
33, 357435, Control_c, 14, 11, 119
33, 357480, Control_c, 14, 11, 120
33, 357525, Control_c, 14, 11, 121
33, 357570, Control_c, 14, 11, 122
33, 357615, Control_c, 14, 11, 123
33, 357660, Control_c, 14, 11, 124
33, 357705, Control_c, 14, 11, 125
33, 357750, Control_c, 14, 11, 126
33, 357795, Control_c, 14, 11, 127
33, 357858, Note_on_c, 14, 39, 0
33, 357865, Note_on_c, 14, 42, 114
33, 358166, Note_on_c, 14, 40, 106
33, 358185, Note_on_c, 14, 42, 0
33, 358485, Note_on_c, 14, 40, 0
33, 358503, Note_on_c, 14, 39, 120
33, 358784, Control_c, 14, 11, 127
33, 358805, Control_c, 14, 11, 126
33, 358825, Control_c, 14, 11, 125
33, 358845, Control_c, 14, 11, 124
33, 358866, Control_c, 14, 11, 123
33, 358886, Control_c, 14, 11, 122
33, 358906, Control_c, 14, 11, 121
33, 358927, Control_c, 14, 11, 120
33, 358947, Control_c, 14, 11, 119
33, 358968, Control_c, 14, 11, 118
33, 358988, Control_c, 14, 11, 117
33, 359009, Control_c, 14, 11, 116
33, 359029, Control_c, 14, 11, 115
33, 359049, Control_c, 14, 11, 114
33, 359070, Control_c, 14, 11, 113
33, 359090, Control_c, 14, 11, 112
33, 359110, Control_c, 14, 11, 111
33, 359130, Control_c, 14, 11, 110
33, 359151, Control_c, 14, 11, 109
33, 359171, Control_c, 14, 11, 108
33, 359192, Control_c, 14, 11, 107
33, 359212, Control_c, 14, 11, 106
33, 359233, Control_c, 14, 11, 105
33, 359253, Control_c, 14, 11, 104
33, 359273, Control_c, 14, 11, 103
33, 359294, Control_c, 14, 11, 102
33, 359314, Control_c, 14, 11, 101
33, 359334, Control_c, 14, 11, 100
33, 359355, Control_c, 14, 11, 99
33, 359375, Control_c, 14, 11, 98
33, 359395, Control_c, 14, 11, 97
33, 359416, Control_c, 14, 11, 96
33, 359436, Control_c, 14, 11, 95
33, 359457, Control_c, 14, 11, 94
33, 359477, Control_c, 14, 11, 93
33, 359497, Control_c, 14, 11, 92
33, 359518, Control_c, 14, 11, 91
33, 359538, Control_c, 14, 11, 90
33, 359558, Control_c, 14, 11, 89
33, 359579, Control_c, 14, 11, 88
33, 359599, Control_c, 14, 11, 87
33, 359619, Control_c, 14, 11, 86
33, 359640, Control_c, 14, 11, 85
33, 359660, Control_c, 14, 11, 84
33, 359681, Control_c, 14, 11, 83
33, 359701, Control_c, 14, 11, 82
33, 359722, Control_c, 14, 11, 81
33, 359742, Control_c, 14, 11, 80
33, 359762, Control_c, 14, 11, 79
33, 359782, Control_c, 14, 11, 78
33, 359803, Control_c, 14, 11, 77
33, 359823, Control_c, 14, 11, 76
33, 359843, Control_c, 14, 11, 75
33, 359864, Control_c, 14, 11, 74
33, 359884, Control_c, 14, 11, 73
33, 359905, Control_c, 14, 11, 72
33, 359925, Control_c, 14, 11, 71
33, 359946, Control_c, 14, 11, 70
33, 359966, Control_c, 14, 11, 69
33, 359986, Control_c, 14, 11, 68
33, 360007, Control_c, 14, 11, 67
33, 360027, Control_c, 14, 11, 66
33, 360047, Control_c, 14, 11, 65
33, 360067, Control_c, 14, 11, 64
33, 360088, Control_c, 14, 11, 63
33, 360108, Control_c, 14, 11, 62
33, 360129, Control_c, 14, 11, 61
33, 360149, Control_c, 14, 11, 60
33, 360170, Control_c, 14, 11, 59
33, 360190, Control_c, 14, 11, 58
33, 360210, Control_c, 14, 11, 57
33, 360231, Control_c, 14, 11, 56
33, 360251, Control_c, 14, 11, 55
33, 360271, Control_c, 14, 11, 54
33, 360292, Control_c, 14, 11, 53
33, 360312, Control_c, 14, 11, 52
33, 360332, Control_c, 14, 11, 51
33, 360353, Control_c, 14, 11, 50
33, 360373, Control_c, 14, 11, 49
33, 360394, Control_c, 14, 11, 48
33, 360414, Control_c, 14, 11, 47
33, 360435, Control_c, 14, 11, 46
33, 360455, Control_c, 14, 11, 45
33, 360475, Control_c, 14, 11, 44
33, 360495, Control_c, 14, 11, 43
33, 360516, Control_c, 14, 11, 42
33, 360536, Control_c, 14, 11, 41
33, 360556, Control_c, 14, 11, 40
33, 360577, Control_c, 14, 11, 39
33, 360597, Control_c, 14, 11, 38
33, 360618, Control_c, 14, 11, 37
33, 360638, Control_c, 14, 11, 36
33, 360659, Control_c, 14, 11, 35
33, 360679, Control_c, 14, 11, 34
33, 360699, Control_c, 14, 11, 33
33, 378515, Control_c, 14, 11, 33
33, 378556, Control_c, 14, 11, 34
33, 378596, Control_c, 14, 11, 35
33, 378637, Control_c, 14, 11, 36
33, 378677, Control_c, 14, 11, 37
33, 378718, Control_c, 14, 11, 38
33, 378758, Control_c, 14, 11, 39
33, 378799, Control_c, 14, 11, 40
33, 378839, Control_c, 14, 11, 41
33, 378880, Control_c, 14, 11, 42
33, 378920, Control_c, 14, 11, 43
33, 378960, Control_c, 14, 11, 44
33, 379001, Control_c, 14, 11, 45
33, 379042, Control_c, 14, 11, 46
33, 379082, Control_c, 14, 11, 47
33, 379123, Control_c, 14, 11, 48
33, 379163, Control_c, 14, 11, 49
33, 379204, Control_c, 14, 11, 50
33, 379244, Control_c, 14, 11, 51
33, 379284, Control_c, 14, 11, 52
33, 379325, Control_c, 14, 11, 53
33, 379365, Control_c, 14, 11, 54
33, 379406, Control_c, 14, 11, 55
33, 379447, Control_c, 14, 11, 56
33, 379487, Control_c, 14, 11, 57
33, 379527, Control_c, 14, 11, 58
33, 379568, Control_c, 14, 11, 59
33, 379608, Control_c, 14, 11, 60
33, 379649, Control_c, 14, 11, 61
33, 379689, Control_c, 14, 11, 62
33, 379730, Control_c, 14, 11, 63
33, 379770, Control_c, 14, 11, 64
33, 379811, Control_c, 14, 11, 65
33, 379851, Control_c, 14, 11, 66
33, 379892, Control_c, 14, 11, 67
33, 379932, Control_c, 14, 11, 68
33, 379972, Control_c, 14, 11, 69
33, 380013, Control_c, 14, 11, 70
33, 380054, Control_c, 14, 11, 71
33, 380094, Control_c, 14, 11, 72
33, 380135, Control_c, 14, 11, 73
33, 380175, Control_c, 14, 11, 74
33, 380216, Control_c, 14, 11, 75
33, 380256, Control_c, 14, 11, 76
33, 380296, Control_c, 14, 11, 77
33, 380337, Control_c, 14, 11, 78
33, 380377, Control_c, 14, 11, 79
33, 380418, Control_c, 14, 11, 80
33, 380459, Control_c, 14, 11, 81
33, 380499, Control_c, 14, 11, 82
33, 380540, Control_c, 14, 11, 83
33, 380580, Control_c, 14, 11, 84
33, 380620, Control_c, 14, 11, 85
33, 380661, Control_c, 14, 11, 86
33, 380701, Control_c, 14, 11, 87
33, 380742, Control_c, 14, 11, 88
33, 380782, Control_c, 14, 11, 89
33, 380823, Control_c, 14, 11, 90
33, 380864, Control_c, 14, 11, 91
33, 380904, Control_c, 14, 11, 92
33, 380944, Control_c, 14, 11, 93
33, 380985, Control_c, 14, 11, 94
33, 381025, Control_c, 14, 11, 95
33, 381066, Control_c, 14, 11, 96
33, 381106, Control_c, 14, 11, 97
33, 381147, Control_c, 14, 11, 98
33, 381187, Control_c, 14, 11, 99
33, 381228, Control_c, 14, 11, 100
33, 381268, Control_c, 14, 11, 101
33, 381309, Control_c, 14, 11, 102
33, 381349, Control_c, 14, 11, 103
33, 381390, Control_c, 14, 11, 104
33, 381430, Control_c, 14, 11, 105
33, 381471, Control_c, 14, 11, 106
33, 381511, Control_c, 14, 11, 107
33, 381552, Control_c, 14, 11, 108
33, 381592, Control_c, 14, 11, 109
33, 381632, Control_c, 14, 11, 110
33, 381673, Control_c, 14, 11, 111
33, 381713, Control_c, 14, 11, 112
33, 381754, Control_c, 14, 11, 113
33, 381795, Control_c, 14, 11, 114
33, 381835, Control_c, 14, 11, 115
33, 381876, Control_c, 14, 11, 116
33, 381916, Control_c, 14, 11, 117
33, 381956, Control_c, 14, 11, 118
33, 381997, Control_c, 14, 11, 119
33, 382037, Control_c, 14, 11, 120
33, 382078, Control_c, 14, 11, 121
33, 382118, Control_c, 14, 11, 122
33, 382159, Control_c, 14, 11, 123
33, 382200, Control_c, 14, 11, 124
33, 382240, Control_c, 14, 11, 125
33, 382280, Control_c, 14, 11, 126
33, 382321, Control_c, 14, 11, 127
33, 382343, Note_on_c, 14, 39, 0
33, 383285, Note_on_c, 14, 52, 111
33, 383291, Note_on_c, 14, 45, 106
33, 383305, Note_on_c, 14, 60, 97
33, 383765, Note_on_c, 14, 52, 0
33, 383771, Note_on_c, 14, 45, 0
33, 383785, Note_on_c, 14, 60, 0
33, 384261, Note_on_c, 14, 50, 105
33, 384264, Note_on_c, 14, 43, 102
33, 384268, Note_on_c, 14, 58, 99
33, 384741, Note_on_c, 14, 50, 0
33, 384744, Note_on_c, 14, 43, 0
33, 384748, Note_on_c, 14, 58, 0
33, 385224, Note_on_c, 14, 43, 110
33, 385227, Note_on_c, 14, 58, 106
33, 385228, Note_on_c, 14, 50, 104
33, 385704, Note_on_c, 14, 43, 0
33, 385707, Note_on_c, 14, 58, 0
33, 385708, Note_on_c, 14, 50, 0
33, 387600, Program_c, 14, 45
33, 387617, Note_on_c, 14, 46, 59
33, 388079, Note_on_c, 14, 46, 0
33, 388098, Note_on_c, 14, 46, 48
33, 388558, Note_on_c, 14, 46, 0
33, 388577, Note_on_c, 14, 46, 40
33, 389034, Note_on_c, 14, 46, 0
33, 389053, Note_on_c, 14, 46, 49
33, 389516, Note_on_c, 14, 46, 0
33, 389536, Note_on_c, 14, 46, 53
33, 390002, Note_on_c, 14, 46, 0
33, 390021, Note_on_c, 14, 46, 46
33, 390472, Note_on_c, 14, 46, 0
33, 390491, Note_on_c, 14, 46, 59
33, 390941, Note_on_c, 14, 46, 0
33, 390960, Note_on_c, 14, 46, 48
33, 391438, Note_on_c, 14, 46, 0
33, 391458, Note_on_c, 14, 46, 49
33, 391910, Note_on_c, 14, 46, 0
33, 391929, Note_on_c, 14, 46, 39
33, 392382, Note_on_c, 14, 46, 0
33, 392401, Note_on_c, 14, 46, 47
33, 392881, Note_on_c, 14, 46, 0
33, 392908, Note_on_c, 14, 46, 55
33, 393359, Note_on_c, 14, 46, 0
33, 393378, Note_on_c, 14, 46, 46
33, 393825, Note_on_c, 14, 46, 0
33, 393844, Note_on_c, 14, 46, 46
33, 394324, Note_on_c, 14, 46, 0
33, 394343, Note_on_c, 14, 46, 50
33, 394792, Note_on_c, 14, 46, 0
33, 394811, Note_on_c, 14, 46, 45
33, 395261, Note_on_c, 14, 46, 0
33, 395281, Note_on_c, 14, 46, 56
33, 395747, Note_on_c, 14, 46, 0
33, 395766, Note_on_c, 14, 46, 57
33, 396227, Note_on_c, 14, 46, 0
33, 396247, Note_on_c, 14, 46, 57
33, 396725, Note_on_c, 14, 46, 0
33, 396744, Note_on_c, 14, 46, 41
33, 397191, Note_on_c, 14, 46, 0
33, 397210, Note_on_c, 14, 46, 55
33, 397663, Note_on_c, 14, 46, 0
33, 397682, Note_on_c, 14, 46, 55
33, 398147, Note_on_c, 14, 46, 0
33, 398166, Note_on_c, 14, 46, 40
33, 398645, Note_on_c, 14, 46, 0
33, 398665, Note_on_c, 14, 46, 49
33, 399114, Note_on_c, 14, 46, 0
33, 399133, Note_on_c, 14, 46, 43
33, 399586, Note_on_c, 14, 46, 0
33, 399605, Note_on_c, 14, 46, 41
33, 400074, Note_on_c, 14, 46, 0
33, 400093, Note_on_c, 14, 46, 56
33, 400555, Note_on_c, 14, 46, 0
33, 400575, Note_on_c, 14, 46, 48
33, 401036, Note_on_c, 14, 46, 0
33, 401055, Note_on_c, 14, 46, 49
33, 401526, Note_on_c, 14, 46, 0
33, 401545, Note_on_c, 14, 46, 43
33, 401992, Note_on_c, 14, 46, 0
33, 402011, Note_on_c, 14, 46, 50
33, 402466, Note_on_c, 14, 46, 0
33, 402485, Note_on_c, 14, 46, 49
33, 402959, Note_on_c, 14, 46, 0
33, 402978, Note_on_c, 14, 46, 41
33, 403435, Note_on_c, 14, 46, 0
33, 403455, Note_on_c, 14, 46, 53
33, 403929, Note_on_c, 14, 46, 0
33, 403948, Note_on_c, 14, 46, 54
33, 404397, Note_on_c, 14, 46, 0
33, 404416, Note_on_c, 14, 46, 43
33, 404874, Note_on_c, 14, 46, 0
33, 404894, Note_on_c, 14, 46, 46
33, 405346, Note_on_c, 14, 46, 0
33, 405365, Note_on_c, 14, 46, 54
33, 405832, Note_on_c, 14, 46, 0
33, 405851, Note_on_c, 14, 46, 59
33, 406304, Note_on_c, 14, 46, 0
33, 406324, Note_on_c, 14, 46, 45
33, 406796, Note_on_c, 14, 46, 0
33, 406815, Note_on_c, 14, 46, 50
33, 407278, Note_on_c, 14, 46, 0
33, 407297, Note_on_c, 14, 46, 54
33, 407756, Note_on_c, 14, 46, 0
33, 407775, Note_on_c, 14, 46, 43
33, 408239, Note_on_c, 14, 46, 0
33, 408258, Note_on_c, 14, 46, 55
33, 408701, Note_on_c, 14, 46, 0
33, 408721, Note_on_c, 14, 46, 49
33, 409201, Note_on_c, 14, 46, 0
33, 409221, Note_on_c, 14, 46, 50
33, 409673, Note_on_c, 14, 46, 0
33, 409692, Note_on_c, 14, 46, 44
33, 410167, Note_on_c, 14, 46, 0
33, 410186, Note_on_c, 14, 46, 58
33, 410638, Note_on_c, 14, 46, 0
33, 410658, Note_on_c, 14, 46, 57
33, 411128, Note_on_c, 14, 46, 0
33, 411147, Note_on_c, 14, 46, 38
33, 411585, Note_on_c, 14, 46, 0
33, 411605, Note_on_c, 14, 46, 18
33, 412071, Note_on_c, 14, 46, 0
33, 412090, Note_on_c, 14, 46, 1
33, 412543, Note_on_c, 14, 46, 0
33, 412562, Note_on_c, 14, 46, 1
33, 413021, Note_on_c, 14, 46, 0
33, 413040, Note_on_c, 14, 46, 2
33, 413520, Note_on_c, 14, 46, 0
33, 413539, Note_on_c, 14, 46, 1
33, 414000, Note_on_c, 14, 46, 0
33, 414020, Note_on_c, 14, 46, 3
33, 414500, Note_on_c, 14, 46, 0
33, 419545, Note_on_c, 14, 50, 85
33, 419785, Note_on_c, 14, 50, 0
33, 420493, Note_on_c, 14, 50, 75
33, 420733, Note_on_c, 14, 50, 0
33, 420960, Note_on_c, 14, 50, 41
33, 421200, Note_on_c, 14, 50, 0
33, 421468, Note_on_c, 14, 50, 57
33, 421708, Note_on_c, 14, 50, 0
33, 421942, Note_on_c, 14, 50, 52
33, 422182, Note_on_c, 14, 50, 0
33, 422414, Note_on_c, 14, 50, 39
33, 422654, Note_on_c, 14, 50, 0
33, 422893, Note_on_c, 14, 50, 49
33, 423133, Note_on_c, 14, 50, 0
33, 423368, Note_on_c, 14, 50, 40
33, 423608, Note_on_c, 14, 50, 0
33, 423850, Note_on_c, 14, 50, 58
33, 424090, Note_on_c, 14, 50, 0
33, 424342, Note_on_c, 14, 50, 41
33, 424582, Note_on_c, 14, 50, 0
33, 424800, Note_on_c, 14, 50, 43
33, 425040, Note_on_c, 14, 50, 0
33, 425280, Note_on_c, 14, 50, 59
33, 425520, Note_on_c, 14, 50, 0
33, 425788, Note_on_c, 14, 50, 58
33, 426028, Note_on_c, 14, 50, 0
33, 426254, Note_on_c, 14, 50, 50
33, 426494, Note_on_c, 14, 50, 0
33, 426726, Note_on_c, 14, 50, 44
33, 426966, Note_on_c, 14, 50, 0
33, 427209, Note_on_c, 14, 50, 50
33, 427449, Note_on_c, 14, 50, 0
33, 427699, Note_on_c, 14, 50, 59
33, 427939, Note_on_c, 14, 50, 0
33, 428168, Note_on_c, 14, 50, 43
33, 428408, Note_on_c, 14, 50, 0
33, 428649, Note_on_c, 14, 50, 54
33, 428889, Note_on_c, 14, 50, 0
33, 429123, Note_on_c, 14, 50, 50
33, 429363, Note_on_c, 14, 50, 0
33, 429619, Note_on_c, 14, 50, 54
33, 429859, Note_on_c, 14, 50, 0
33, 430092, Note_on_c, 14, 50, 40
33, 430332, Note_on_c, 14, 50, 0
33, 430581, Note_on_c, 14, 50, 52
33, 430821, Note_on_c, 14, 50, 0
33, 431046, Note_on_c, 14, 50, 43
33, 431286, Note_on_c, 14, 50, 0
33, 431521, Note_on_c, 14, 50, 53
33, 431761, Note_on_c, 14, 50, 0
33, 432026, Note_on_c, 14, 50, 45
33, 432266, Note_on_c, 14, 50, 0
33, 432507, Note_on_c, 14, 50, 55
33, 432747, Note_on_c, 14, 50, 0
33, 432961, Note_on_c, 14, 58, 59
33, 432985, Note_on_c, 14, 50, 44
33, 433201, Note_on_c, 14, 58, 0
33, 433225, Note_on_c, 14, 50, 0
33, 433465, Note_on_c, 14, 58, 51
33, 433469, Note_on_c, 14, 50, 48
33, 433705, Note_on_c, 14, 58, 0
33, 433709, Note_on_c, 14, 50, 0
33, 433933, Note_on_c, 14, 50, 53
33, 433940, Note_on_c, 14, 58, 42
33, 434173, Note_on_c, 14, 50, 0
33, 434180, Note_on_c, 14, 58, 0
33, 434410, Note_on_c, 14, 50, 58
33, 434421, Note_on_c, 14, 58, 44
33, 434650, Note_on_c, 14, 50, 0
33, 434661, Note_on_c, 14, 58, 0
33, 434892, Note_on_c, 14, 58, 56
33, 434907, Note_on_c, 14, 50, 49
33, 435132, Note_on_c, 14, 58, 0
33, 435147, Note_on_c, 14, 50, 0
33, 435375, Note_on_c, 14, 50, 46
33, 435382, Note_on_c, 14, 58, 56
33, 435615, Note_on_c, 14, 50, 0
33, 435622, Note_on_c, 14, 58, 0
33, 435854, Note_on_c, 14, 50, 51
33, 435855, Note_on_c, 14, 58, 55
33, 436094, Note_on_c, 14, 50, 0
33, 436095, Note_on_c, 14, 58, 0
33, 436331, Note_on_c, 14, 58, 56
33, 436343, Note_on_c, 14, 50, 49
33, 436571, Note_on_c, 14, 58, 0
33, 436583, Note_on_c, 14, 50, 0
33, 436815, Note_on_c, 14, 50, 48
33, 436815, Note_on_c, 14, 58, 47
33, 437055, Note_on_c, 14, 50, 0
33, 437055, Note_on_c, 14, 58, 0
33, 437306, Note_on_c, 14, 50, 51
33, 437306, Note_on_c, 14, 58, 55
33, 437546, Note_on_c, 14, 50, 0
33, 437546, Note_on_c, 14, 58, 0
33, 437762, Note_on_c, 14, 50, 45
33, 437782, Note_on_c, 14, 58, 55
33, 438002, Note_on_c, 14, 50, 0
33, 438017, Note_on_c, 14, 50, 93
33, 438021, Note_on_c, 14, 43, 82
33, 438022, Note_on_c, 14, 58, 0
33, 438026, Note_on_c, 14, 62, 91
33, 438235, Note_on_c, 14, 62, 0
33, 438254, Note_on_c, 14, 62, 84
33, 438257, Note_on_c, 14, 50, 0
33, 438259, Note_on_c, 14, 58, 87
33, 438261, Note_on_c, 14, 43, 0
33, 438462, Note_on_c, 14, 62, 0
33, 438481, Note_on_c, 14, 62, 95
33, 438496, Note_on_c, 14, 50, 93
33, 438499, Note_on_c, 14, 58, 0
33, 438508, Note_on_c, 14, 43, 85
33, 438721, Note_on_c, 14, 62, 0
33, 438722, Note_on_c, 14, 58, 82
33, 438736, Note_on_c, 14, 50, 0
33, 438747, Note_on_c, 14, 62, 95
33, 438748, Note_on_c, 14, 43, 0
33, 438962, Note_on_c, 14, 58, 0
33, 438978, Note_on_c, 14, 64, 91
33, 438980, Note_on_c, 14, 43, 80
33, 438985, Note_on_c, 14, 50, 79
33, 438987, Note_on_c, 14, 62, 0
33, 439194, Note_on_c, 14, 64, 0
33, 439213, Note_on_c, 14, 58, 84
33, 439214, Note_on_c, 14, 64, 96
33, 439220, Note_on_c, 14, 43, 0
33, 439225, Note_on_c, 14, 50, 0
33, 439437, Note_on_c, 14, 64, 0
33, 439443, Note_on_c, 14, 50, 80
33, 439453, Note_on_c, 14, 58, 0
33, 439456, Note_on_c, 14, 64, 86
33, 439461, Note_on_c, 14, 43, 94
33, 439671, Note_on_c, 14, 64, 0
33, 439683, Note_on_c, 14, 50, 0
33, 439684, Note_on_c, 14, 58, 92
33, 439690, Note_on_c, 14, 64, 89
33, 439701, Note_on_c, 14, 43, 0
33, 439924, Note_on_c, 14, 58, 0
33, 439926, Note_on_c, 14, 50, 89
33, 439930, Note_on_c, 14, 64, 0
33, 439931, Note_on_c, 14, 65, 87
33, 439942, Note_on_c, 14, 43, 91
33, 440153, Note_on_c, 14, 65, 0
33, 440166, Note_on_c, 14, 50, 0
33, 440170, Note_on_c, 14, 58, 80
33, 440172, Note_on_c, 14, 65, 87
33, 440182, Note_on_c, 14, 43, 0
33, 440404, Note_on_c, 14, 50, 80
33, 440409, Note_on_c, 14, 65, 0
33, 440410, Note_on_c, 14, 58, 0
33, 440412, Note_on_c, 14, 43, 98
33, 440428, Note_on_c, 14, 65, 89
33, 440627, Note_on_c, 14, 65, 0
33, 440644, Note_on_c, 14, 50, 0
33, 440646, Note_on_c, 14, 65, 81
33, 440652, Note_on_c, 14, 43, 0
33, 440659, Note_on_c, 14, 58, 80
33, 440886, Note_on_c, 14, 65, 0
33, 440888, Note_on_c, 14, 43, 98
33, 440894, Note_on_c, 14, 50, 93
33, 440897, Note_on_c, 14, 62, 81
33, 440899, Note_on_c, 14, 58, 0
33, 441113, Note_on_c, 14, 62, 0
33, 441127, Note_on_c, 14, 58, 92
33, 441128, Note_on_c, 14, 43, 0
33, 441132, Note_on_c, 14, 62, 84
33, 441134, Note_on_c, 14, 50, 0
33, 441341, Note_on_c, 14, 62, 0
33, 441360, Note_on_c, 14, 62, 97
33, 441365, Note_on_c, 14, 50, 86
33, 441367, Note_on_c, 14, 58, 0
33, 441379, Note_on_c, 14, 43, 80
33, 441588, Note_on_c, 14, 62, 0
33, 441605, Note_on_c, 14, 50, 0
33, 441607, Note_on_c, 14, 62, 90
33, 441619, Note_on_c, 14, 43, 0
33, 441624, Note_on_c, 14, 58, 84
33, 441847, Note_on_c, 14, 62, 0
33, 441855, Note_on_c, 14, 50, 94
33, 441864, Note_on_c, 14, 58, 0
33, 441864, Note_on_c, 14, 64, 87
33, 441868, Note_on_c, 14, 43, 87
33, 442088, Note_on_c, 14, 64, 0
33, 442091, Note_on_c, 14, 58, 87
33, 442095, Note_on_c, 14, 50, 0
33, 442107, Note_on_c, 14, 64, 98
33, 442108, Note_on_c, 14, 43, 0
33, 442324, Note_on_c, 14, 64, 0
33, 442324, Note_on_c, 14, 50, 93
33, 442331, Note_on_c, 14, 58, 0
33, 442344, Note_on_c, 14, 43, 79
33, 442344, Note_on_c, 14, 64, 95
33, 442564, Note_on_c, 14, 50, 0
33, 442566, Note_on_c, 14, 64, 0
33, 442576, Note_on_c, 14, 58, 94
33, 442584, Note_on_c, 14, 43, 0
33, 442585, Note_on_c, 14, 64, 92
33, 442801, Note_on_c, 14, 50, 88
33, 442807, Note_on_c, 14, 65, 97
33, 442816, Note_on_c, 14, 58, 0
33, 442825, Note_on_c, 14, 64, 0
33, 442827, Note_on_c, 14, 43, 97
33, 443024, Note_on_c, 14, 65, 0
33, 443040, Note_on_c, 14, 58, 93
33, 443041, Note_on_c, 14, 50, 0
33, 443043, Note_on_c, 14, 65, 86
33, 443067, Note_on_c, 14, 43, 0
33, 443280, Note_on_c, 14, 58, 0
33, 443283, Note_on_c, 14, 65, 0
33, 443298, Note_on_c, 14, 43, 88
33, 443299, Note_on_c, 14, 65, 93
33, 443303, Note_on_c, 14, 50, 89
33, 443508, Note_on_c, 14, 65, 0
33, 443527, Note_on_c, 14, 65, 82
33, 443538, Note_on_c, 14, 43, 0
33, 443543, Note_on_c, 14, 50, 0
33, 443545, Note_on_c, 14, 58, 84
33, 443764, Note_on_c, 14, 38, 105
33, 443767, Note_on_c, 14, 65, 0
33, 443785, Note_on_c, 14, 58, 0
33, 443815, Note_on_c, 14, 45, 104
33, 443827, Note_on_c, 14, 54, 114
33, 444004, Note_on_c, 14, 38, 0
33, 444007, Note_on_c, 14, 54, 0
33, 444025, Note_on_c, 14, 45, 0
33, 444720, Program_c, 14, 48
33, 444720, Note_on_c, 14, 38, 57
33, 444725, Note_on_c, 14, 45, 40
33, 444741, Note_on_c, 14, 53, 54
33, 444816, Note_on_c, 14, 38, 0
33, 444821, Note_on_c, 14, 45, 0
33, 444837, Note_on_c, 14, 53, 0
33, 444970, Note_on_c, 14, 38, 46
33, 444977, Note_on_c, 14, 53, 56
33, 444985, Note_on_c, 14, 45, 55
33, 445066, Note_on_c, 14, 38, 0
33, 445073, Note_on_c, 14, 53, 0
33, 445081, Note_on_c, 14, 45, 0
33, 445440, Program_c, 14, 45
33, 445445, Note_on_c, 14, 45, 58
33, 445459, Note_on_c, 14, 54, 41
33, 445463, Note_on_c, 14, 38, 57
33, 445685, Note_on_c, 14, 45, 0
33, 445699, Note_on_c, 14, 54, 0
33, 445703, Note_on_c, 14, 38, 0
33, 446160, Program_c, 14, 48
33, 446162, Note_on_c, 14, 53, 44
33, 446165, Note_on_c, 14, 38, 47
33, 446342, Note_on_c, 14, 53, 0
33, 446425, Note_on_c, 14, 65, 54
33, 446605, Note_on_c, 14, 65, 0
33, 446661, Note_on_c, 14, 64, 57
33, 446760, Note_on_c, 14, 64, 0
33, 446821, Note_on_c, 14, 61, 55
33, 446885, Note_on_c, 14, 38, 0
33, 446921, Note_on_c, 14, 61, 0
33, 446961, Note_on_c, 14, 59, 53
33, 447061, Note_on_c, 14, 59, 0
33, 447141, Note_on_c, 14, 54, 48
33, 447321, Note_on_c, 14, 54, 0
33, 447360, Program_c, 14, 45
33, 447373, Note_on_c, 14, 54, 116
33, 447377, Note_on_c, 14, 38, 118
33, 447379, Note_on_c, 14, 45, 105
33, 447613, Note_on_c, 14, 54, 0
33, 447617, Note_on_c, 14, 38, 0
33, 447619, Note_on_c, 14, 45, 0
33, 448083, Note_on_c, 14, 57, 113
33, 448091, Note_on_c, 14, 45, 104
33, 448108, Note_on_c, 14, 53, 107
33, 448323, Note_on_c, 14, 57, 0
33, 448331, Note_on_c, 14, 45, 0
33, 448348, Note_on_c, 14, 53, 0
33, 449521, Note_on_c, 14, 41, 118
33, 449522, Note_on_c, 14, 53, 108
33, 449548, Note_on_c, 14, 50, 109
33, 449761, Note_on_c, 14, 41, 0
33, 449762, Note_on_c, 14, 53, 0
33, 449788, Note_on_c, 14, 50, 0
33, 450011, Note_on_c, 14, 45, 100
33, 450018, Note_on_c, 14, 53, 113
33, 450028, Note_on_c, 14, 57, 117
33, 450251, Note_on_c, 14, 45, 0
33, 450258, Note_on_c, 14, 53, 0
33, 450268, Note_on_c, 14, 57, 0
33, 451930, Note_on_c, 14, 53, 114
33, 451946, Note_on_c, 14, 57, 102
33, 451947, Note_on_c, 14, 45, 116
33, 452170, Note_on_c, 14, 53, 0
33, 452186, Note_on_c, 14, 57, 0
33, 452187, Note_on_c, 14, 45, 0
33, 453363, Note_on_c, 14, 50, 120
33, 453366, Note_on_c, 14, 41, 114
33, 453388, Note_on_c, 14, 53, 119
33, 453603, Note_on_c, 14, 50, 0
33, 453606, Note_on_c, 14, 41, 0
33, 453628, Note_on_c, 14, 53, 0
33, 455287, Note_on_c, 14, 41, 111
33, 455296, Note_on_c, 14, 53, 112
33, 455301, Note_on_c, 14, 50, 109
33, 455527, Note_on_c, 14, 41, 0
33, 455536, Note_on_c, 14, 53, 0
33, 455541, Note_on_c, 14, 50, 0
33, 457680, Program_c, 14, 45
33, 457682, Note_on_c, 14, 50, 123
33, 457693, Note_on_c, 14, 59, 113
33, 457696, Note_on_c, 14, 36, 115
33, 457701, Note_on_c, 14, 43, 104
33, 457921, Note_on_c, 14, 58, 49
33, 457922, Note_on_c, 14, 50, 0
33, 457933, Note_on_c, 14, 59, 0
33, 457936, Note_on_c, 14, 36, 0
33, 457941, Note_on_c, 14, 43, 0
33, 458161, Note_on_c, 14, 58, 0
33, 458172, Note_on_c, 14, 43, 122
33, 458174, Note_on_c, 14, 36, 111
33, 458175, Note_on_c, 14, 59, 114
33, 458179, Note_on_c, 14, 50, 108
33, 458412, Note_on_c, 14, 43, 0
33, 458414, Note_on_c, 14, 36, 0
33, 458415, Note_on_c, 14, 59, 0
33, 458419, Note_on_c, 14, 50, 0
33, 458425, Note_on_c, 14, 58, 50
33, 458652, Note_on_c, 14, 50, 116
33, 458660, Note_on_c, 14, 59, 119
33, 458665, Note_on_c, 14, 58, 0
33, 458667, Note_on_c, 14, 36, 117
33, 458669, Note_on_c, 14, 43, 114
33, 458892, Note_on_c, 14, 50, 0
33, 458894, Note_on_c, 14, 58, 44
33, 458900, Note_on_c, 14, 59, 0
33, 458907, Note_on_c, 14, 36, 0
33, 458909, Note_on_c, 14, 43, 0
33, 459131, Note_on_c, 14, 43, 112
33, 459134, Note_on_c, 14, 58, 0
33, 459139, Note_on_c, 14, 36, 115
33, 459139, Note_on_c, 14, 50, 121
33, 459147, Note_on_c, 14, 59, 112
33, 459371, Note_on_c, 14, 43, 0
33, 459379, Note_on_c, 14, 36, 0
33, 459379, Note_on_c, 14, 50, 0
33, 459382, Note_on_c, 14, 58, 40
33, 459387, Note_on_c, 14, 59, 0
33, 459608, Note_on_c, 14, 50, 124
33, 459608, Note_on_c, 14, 59, 106
33, 459618, Note_on_c, 14, 36, 114
33, 459618, Note_on_c, 14, 43, 120
33, 459622, Note_on_c, 14, 58, 0
33, 459848, Note_on_c, 14, 50, 0
33, 459848, Note_on_c, 14, 59, 0
33, 459858, Note_on_c, 14, 36, 0
33, 459858, Note_on_c, 14, 43, 0
33, 459860, Note_on_c, 14, 58, 46
33, 460082, Note_on_c, 14, 59, 107
33, 460085, Note_on_c, 14, 43, 116
33, 460086, Note_on_c, 14, 50, 109
33, 460095, Note_on_c, 14, 36, 117
33, 460100, Note_on_c, 14, 58, 0
33, 460322, Note_on_c, 14, 59, 0
33, 460325, Note_on_c, 14, 43, 0
33, 460326, Note_on_c, 14, 50, 0
33, 460335, Note_on_c, 14, 36, 0
33, 460335, Note_on_c, 14, 58, 40
33, 460560, Note_on_c, 14, 36, 110
33, 460562, Note_on_c, 14, 59, 117
33, 460565, Note_on_c, 14, 50, 108
33, 460571, Note_on_c, 14, 43, 123
33, 460575, Note_on_c, 14, 58, 0
33, 460800, Note_on_c, 14, 36, 0
33, 460802, Note_on_c, 14, 59, 0
33, 460805, Note_on_c, 14, 50, 0
33, 460808, Note_on_c, 14, 58, 56
33, 460811, Note_on_c, 14, 43, 0
33, 461044, Note_on_c, 14, 59, 105
33, 461048, Note_on_c, 14, 58, 0
33, 461048, Note_on_c, 14, 43, 112
33, 461048, Note_on_c, 14, 36, 107
33, 461049, Note_on_c, 14, 50, 115
33, 461284, Note_on_c, 14, 59, 0
33, 461288, Note_on_c, 14, 43, 0
33, 461288, Note_on_c, 14, 36, 0
33, 461289, Note_on_c, 14, 50, 0
33, 461302, Note_on_c, 14, 58, 41
33, 461525, Note_on_c, 14, 36, 122
33, 461537, Note_on_c, 14, 59, 121
33, 461542, Note_on_c, 14, 58, 0
33, 461544, Note_on_c, 14, 50, 115
33, 461545, Note_on_c, 14, 43, 113
33, 461765, Note_on_c, 14, 36, 0
33, 461765, Note_on_c, 14, 58, 48
33, 461777, Note_on_c, 14, 59, 0
33, 461784, Note_on_c, 14, 50, 0
33, 461785, Note_on_c, 14, 43, 0
33, 462002, Note_on_c, 14, 43, 119
33, 462003, Note_on_c, 14, 59, 115
33, 462005, Note_on_c, 14, 58, 0
33, 462015, Note_on_c, 14, 36, 104
33, 462020, Note_on_c, 14, 50, 119
33, 462242, Note_on_c, 14, 43, 0
33, 462243, Note_on_c, 14, 59, 0
33, 462243, Note_on_c, 14, 58, 40
33, 462255, Note_on_c, 14, 36, 0
33, 462260, Note_on_c, 14, 50, 0
33, 462481, Note_on_c, 14, 59, 116
33, 462483, Note_on_c, 14, 58, 0
33, 462483, Note_on_c, 14, 50, 114
33, 462493, Note_on_c, 14, 36, 105
33, 462495, Note_on_c, 14, 43, 120
33, 462721, Note_on_c, 14, 59, 0
33, 462723, Note_on_c, 14, 50, 0
33, 462733, Note_on_c, 14, 36, 0
33, 462735, Note_on_c, 14, 43, 0
33, 462748, Note_on_c, 14, 58, 53
33, 462971, Note_on_c, 14, 36, 111
33, 462971, Note_on_c, 14, 50, 121
33, 462975, Note_on_c, 14, 59, 106
33, 462986, Note_on_c, 14, 43, 117
33, 462988, Note_on_c, 14, 58, 0
33, 463211, Note_on_c, 14, 36, 0
33, 463211, Note_on_c, 14, 50, 0
33, 463215, Note_on_c, 14, 59, 0
33, 463215, Note_on_c, 14, 58, 44
33, 463226, Note_on_c, 14, 43, 0
33, 463440, Note_on_c, 14, 43, 111
33, 463443, Note_on_c, 14, 50, 119
33, 463450, Note_on_c, 14, 59, 109
33, 463455, Note_on_c, 14, 58, 0
33, 463461, Note_on_c, 14, 36, 107
33, 463680, Note_on_c, 14, 43, 0
33, 463683, Note_on_c, 14, 50, 0
33, 463690, Note_on_c, 14, 59, 0
33, 463701, Note_on_c, 14, 36, 0
33, 463701, Note_on_c, 14, 58, 39
33, 463921, Note_on_c, 14, 36, 107
33, 463937, Note_on_c, 14, 43, 112
33, 463941, Note_on_c, 14, 58, 0
33, 463948, Note_on_c, 14, 59, 108
33, 463949, Note_on_c, 14, 50, 112
33, 464161, Note_on_c, 14, 36, 0
33, 464176, Note_on_c, 14, 58, 54
33, 464177, Note_on_c, 14, 43, 0
33, 464188, Note_on_c, 14, 59, 0
33, 464189, Note_on_c, 14, 50, 0
33, 464401, Note_on_c, 14, 36, 115
33, 464413, Note_on_c, 14, 43, 111
33, 464416, Note_on_c, 14, 58, 0
33, 464424, Note_on_c, 14, 50, 108
33, 464426, Note_on_c, 14, 59, 105
33, 464641, Note_on_c, 14, 36, 0
33, 464653, Note_on_c, 14, 43, 0
33, 464664, Note_on_c, 14, 50, 0
33, 464664, Note_on_c, 14, 58, 51
33, 464666, Note_on_c, 14, 59, 0
33, 464883, Note_on_c, 14, 36, 120
33, 464887, Note_on_c, 14, 43, 122
33, 464888, Note_on_c, 14, 50, 107
33, 464898, Note_on_c, 14, 59, 109
33, 464904, Note_on_c, 14, 58, 0
33, 465123, Note_on_c, 14, 36, 0
33, 465127, Note_on_c, 14, 43, 0
33, 465128, Note_on_c, 14, 50, 0
33, 465129, Note_on_c, 14, 58, 49
33, 465138, Note_on_c, 14, 59, 0
33, 465363, Note_on_c, 14, 43, 106
33, 465369, Note_on_c, 14, 58, 0
33, 465372, Note_on_c, 14, 59, 112
33, 465379, Note_on_c, 14, 36, 113
33, 465384, Note_on_c, 14, 50, 121
33, 465603, Note_on_c, 14, 43, 0
33, 465612, Note_on_c, 14, 59, 0
33, 465613, Note_on_c, 14, 58, 49
33, 465619, Note_on_c, 14, 36, 0
33, 465624, Note_on_c, 14, 50, 0
33, 465843, Note_on_c, 14, 50, 124
33, 465851, Note_on_c, 14, 59, 114
33, 465853, Note_on_c, 14, 58, 0
33, 465861, Note_on_c, 14, 43, 105
33, 465865, Note_on_c, 14, 36, 110
33, 466083, Note_on_c, 14, 50, 0
33, 466091, Note_on_c, 14, 59, 0
33, 466101, Note_on_c, 14, 43, 0
33, 466105, Note_on_c, 14, 36, 0
33, 466108, Note_on_c, 14, 58, 49
33, 466326, Note_on_c, 14, 50, 119
33, 466341, Note_on_c, 14, 59, 112
33, 466342, Note_on_c, 14, 36, 118
33, 466345, Note_on_c, 14, 43, 107
33, 466348, Note_on_c, 14, 58, 0
33, 466566, Note_on_c, 14, 50, 0
33, 466581, Note_on_c, 14, 59, 0
33, 466582, Note_on_c, 14, 36, 0
33, 466584, Note_on_c, 14, 58, 54
33, 466585, Note_on_c, 14, 43, 0
33, 466803, Note_on_c, 14, 59, 109
33, 466808, Note_on_c, 14, 43, 123
33, 466824, Note_on_c, 14, 58, 0
33, 466825, Note_on_c, 14, 50, 107
33, 466826, Note_on_c, 14, 36, 114
33, 467043, Note_on_c, 14, 59, 0
33, 467048, Note_on_c, 14, 43, 0
33, 467058, Note_on_c, 14, 58, 54
33, 467065, Note_on_c, 14, 50, 0
33, 467066, Note_on_c, 14, 36, 0
33, 467298, Note_on_c, 14, 58, 0
33, 467303, Note_on_c, 14, 46, 58
33, 467511, Note_on_c, 14, 46, 0
33, 467531, Note_on_c, 14, 46, 32
33, 467762, Note_on_c, 14, 46, 0
33, 467781, Note_on_c, 14, 46, 35
33, 468008, Note_on_c, 14, 46, 0
33, 468027, Note_on_c, 14, 46, 48
33, 468222, Note_on_c, 14, 46, 0
33, 468241, Note_on_c, 14, 46, 45
33, 468468, Note_on_c, 14, 46, 0
33, 468487, Note_on_c, 14, 46, 32
33, 468723, Note_on_c, 14, 46, 0
33, 468743, Note_on_c, 14, 46, 38
33, 468955, Note_on_c, 14, 46, 0
33, 468974, Note_on_c, 14, 46, 44
33, 469208, Note_on_c, 14, 46, 0
33, 469227, Note_on_c, 14, 46, 47
33, 469434, Note_on_c, 14, 46, 0
33, 469453, Note_on_c, 14, 46, 49
33, 469661, Note_on_c, 14, 46, 0
33, 469680, Note_on_c, 14, 46, 37
33, 469903, Note_on_c, 14, 46, 0
33, 469923, Note_on_c, 14, 46, 46
33, 470161, Note_on_c, 14, 46, 0
33, 470180, Note_on_c, 14, 46, 46
33, 470382, Note_on_c, 14, 46, 0
33, 470402, Note_on_c, 14, 46, 38
33, 470629, Note_on_c, 14, 46, 0
33, 470648, Note_on_c, 14, 46, 48
33, 470882, Note_on_c, 14, 46, 0
33, 470901, Note_on_c, 14, 46, 41
33, 471113, Note_on_c, 14, 46, 0
33, 471133, Note_on_c, 14, 46, 46
33, 471357, Note_on_c, 14, 46, 0
33, 471376, Note_on_c, 14, 46, 34
33, 471595, Note_on_c, 14, 46, 0
33, 471614, Note_on_c, 14, 46, 48
33, 471828, Note_on_c, 14, 46, 0
33, 471847, Note_on_c, 14, 46, 47
33, 472076, Note_on_c, 14, 46, 0
33, 472095, Note_on_c, 14, 46, 39
33, 472310, Note_on_c, 14, 46, 0
33, 472329, Note_on_c, 14, 46, 37
33, 472562, Note_on_c, 14, 46, 0
33, 472582, Note_on_c, 14, 46, 46
33, 472802, Note_on_c, 14, 46, 0
33, 472821, Note_on_c, 14, 46, 34
33, 473045, Note_on_c, 14, 46, 0
33, 473065, Note_on_c, 14, 46, 30
33, 473276, Note_on_c, 14, 46, 0
33, 473295, Note_on_c, 14, 46, 31
33, 473521, Note_on_c, 14, 46, 0
33, 473540, Note_on_c, 14, 46, 34
33, 473751, Note_on_c, 14, 46, 0
33, 473770, Note_on_c, 14, 46, 35
33, 473983, Note_on_c, 14, 46, 0
33, 474002, Note_on_c, 14, 46, 50
33, 474242, Note_on_c, 14, 46, 0
33, 474261, Note_on_c, 14, 46, 46
33, 474476, Note_on_c, 14, 46, 0
33, 474495, Note_on_c, 14, 46, 48
33, 474711, Note_on_c, 14, 46, 0
33, 474731, Note_on_c, 14, 46, 32
33, 474957, Note_on_c, 14, 46, 0
33, 474976, Note_on_c, 14, 46, 34
33, 475188, Note_on_c, 14, 46, 0
33, 475207, Note_on_c, 14, 46, 36
33, 475425, Note_on_c, 14, 46, 0
33, 475444, Note_on_c, 14, 46, 31
33, 475671, Note_on_c, 14, 46, 0
33, 475690, Note_on_c, 14, 46, 33
33, 475920, Note_on_c, 14, 46, 0
33, 475939, Note_on_c, 14, 46, 33
33, 476163, Note_on_c, 14, 46, 0
33, 476182, Note_on_c, 14, 46, 46
33, 476395, Note_on_c, 14, 46, 0
33, 476415, Note_on_c, 14, 46, 32
33, 476631, Note_on_c, 14, 46, 0
33, 476650, Note_on_c, 14, 46, 32
33, 476863, Note_on_c, 14, 46, 0
33, 476882, Note_on_c, 14, 46, 46
33, 477106, Note_on_c, 14, 46, 0
33, 477126, Note_on_c, 14, 46, 36
33, 477341, Note_on_c, 14, 46, 0
33, 477360, Note_on_c, 14, 46, 37
33, 477589, Note_on_c, 14, 46, 0
33, 477608, Note_on_c, 14, 46, 45
33, 477844, Note_on_c, 14, 46, 0
33, 477863, Note_on_c, 14, 46, 32
33, 478326, Note_on_c, 14, 46, 0
33, 478346, Note_on_c, 14, 46, 30
33, 478804, Note_on_c, 14, 46, 0
33, 478823, Note_on_c, 14, 46, 20
33, 479285, Note_on_c, 14, 46, 0
33, 479304, Note_on_c, 14, 46, 26
33, 479765, Note_on_c, 14, 46, 0
33, 479784, Note_on_c, 14, 46, 24
33, 480232, Note_on_c, 14, 46, 0
33, 480252, Note_on_c, 14, 46, 22
33, 480723, Note_on_c, 14, 46, 0
33, 480742, Note_on_c, 14, 46, 30
33, 481182, Note_on_c, 14, 46, 0
33, 481201, Note_on_c, 14, 46, 23
33, 481675, Note_on_c, 14, 46, 0
33, 481695, Note_on_c, 14, 46, 31
33, 482164, Note_on_c, 14, 46, 0
33, 482183, Note_on_c, 14, 46, 17
33, 482632, Note_on_c, 14, 46, 0
33, 482651, Note_on_c, 14, 46, 24
33, 483117, Note_on_c, 14, 46, 0
33, 483136, Note_on_c, 14, 46, 15
33, 483603, Note_on_c, 14, 46, 0
33, 483623, Note_on_c, 14, 46, 30
33, 484070, Note_on_c, 14, 46, 0
33, 484089, Note_on_c, 14, 46, 17
33, 484552, Note_on_c, 14, 46, 0
33, 484571, Note_on_c, 14, 46, 21
33, 485043, Note_on_c, 14, 46, 0
33, 485062, Note_on_c, 14, 46, 13
33, 485503, Note_on_c, 14, 46, 0
33, 485522, Note_on_c, 14, 46, 13
33, 486002, Note_on_c, 14, 46, 0
33, 486003, Note_on_c, 14, 47, 33
33, 486483, Note_on_c, 14, 47, 0
33, 486508, Note_on_c, 14, 47, 17
33, 486988, Note_on_c, 14, 47, 0
33, 488410, Note_on_c, 14, 46, 22
33, 488877, Note_on_c, 14, 46, 0
33, 488896, Note_on_c, 14, 46, 29
33, 489376, Note_on_c, 14, 46, 0
33, 489840, Control_c, 14, 11, 127
33, 489840, Control_c, 14, 7, 92
33, 490798, Program_c, 14, 48
33, 490921, Note_on_c, 14, 51, 84
33, 490929, Note_on_c, 14, 58, 88
33, 490974, Note_on_c, 14, 51, 0
33, 490982, Note_on_c, 14, 58, 0
33, 491288, Note_on_c, 14, 51, 85
33, 491308, Note_on_c, 14, 58, 92
33, 491341, Note_on_c, 14, 51, 0
33, 491361, Note_on_c, 14, 58, 0
33, 491548, Note_on_c, 14, 61, 78
33, 491655, Note_on_c, 14, 61, 0
33, 491893, Note_on_c, 14, 61, 92
33, 492000, Note_on_c, 14, 61, 0
33, 492243, Note_on_c, 14, 61, 87
33, 492296, Note_on_c, 14, 61, 0
33, 492381, Note_on_c, 14, 60, 96
33, 492434, Note_on_c, 14, 60, 0
33, 492501, Note_on_c, 14, 60, 90
33, 492554, Note_on_c, 14, 60, 0
33, 492736, Note_on_c, 14, 51, 83
33, 492748, Note_on_c, 14, 58, 91
33, 492789, Note_on_c, 14, 51, 0
33, 492801, Note_on_c, 14, 58, 0
33, 492979, Note_on_c, 14, 61, 87
33, 493086, Note_on_c, 14, 61, 0
33, 493328, Note_on_c, 14, 61, 88
33, 493435, Note_on_c, 14, 61, 0
33, 493689, Note_on_c, 14, 61, 97
33, 493742, Note_on_c, 14, 61, 0
33, 493818, Note_on_c, 14, 60, 83
33, 493871, Note_on_c, 14, 60, 0
33, 493944, Note_on_c, 14, 60, 93
33, 493997, Note_on_c, 14, 60, 0
33, 494176, Note_on_c, 14, 61, 89
33, 494283, Note_on_c, 14, 61, 0
33, 494528, Note_on_c, 14, 66, 97
33, 494671, Note_on_c, 14, 66, 0
33, 494762, Note_on_c, 14, 66, 98
33, 494905, Note_on_c, 14, 66, 0
33, 495017, Note_on_c, 14, 66, 105
33, 495070, Note_on_c, 14, 66, 0
33, 495140, Note_on_c, 14, 66, 94
33, 495193, Note_on_c, 14, 66, 0
33, 495264, Note_on_c, 14, 66, 107
33, 495317, Note_on_c, 14, 66, 0
33, 495491, Note_on_c, 14, 51, 89
33, 495494, Note_on_c, 14, 58, 90
33, 495544, Note_on_c, 14, 51, 0
33, 495547, Note_on_c, 14, 58, 0
33, 495727, Note_on_c, 14, 61, 84
33, 495780, Note_on_c, 14, 61, 0
33, 495961, Note_on_c, 14, 61, 85
33, 496068, Note_on_c, 14, 61, 0
33, 496346, Note_on_c, 14, 61, 98
33, 496399, Note_on_c, 14, 61, 0
33, 496462, Note_on_c, 14, 60, 91
33, 496515, Note_on_c, 14, 60, 0
33, 496569, Note_on_c, 14, 60, 92
33, 496622, Note_on_c, 14, 60, 0
33, 496695, Note_on_c, 14, 66, 100
33, 496767, Note_on_c, 14, 66, 0
33, 496818, Note_on_c, 14, 66, 103
33, 496890, Note_on_c, 14, 66, 0
33, 496940, Note_on_c, 14, 66, 105
33, 497012, Note_on_c, 14, 66, 0
33, 497181, Note_on_c, 14, 66, 96
33, 497228, Note_on_c, 14, 66, 0
33, 497285, Note_on_c, 14, 61, 91
33, 497428, Note_on_c, 14, 61, 0
33, 497532, Note_on_c, 14, 61, 109
33, 497675, Note_on_c, 14, 61, 0
33, 497769, Note_on_c, 14, 61, 94
33, 497816, Note_on_c, 14, 61, 0
33, 498000, Note_on_c, 14, 58, 91
33, 498010, Note_on_c, 14, 51, 110
33, 498053, Note_on_c, 14, 58, 0
33, 498063, Note_on_c, 14, 51, 0
33, 498248, Note_on_c, 14, 61, 105
33, 498301, Note_on_c, 14, 61, 0
33, 498498, Note_on_c, 14, 61, 101
33, 498605, Note_on_c, 14, 61, 0
33, 498853, Note_on_c, 14, 61, 104
33, 498906, Note_on_c, 14, 61, 0
33, 498962, Note_on_c, 14, 60, 111
33, 499015, Note_on_c, 14, 60, 0
33, 499084, Note_on_c, 14, 60, 103
33, 499137, Note_on_c, 14, 60, 0
33, 499327, Note_on_c, 14, 58, 94
33, 499341, Note_on_c, 14, 51, 99
33, 499434, Note_on_c, 14, 58, 0
33, 499448, Note_on_c, 14, 51, 0
33, 499704, Note_on_c, 14, 61, 104
33, 499757, Note_on_c, 14, 61, 0
33, 499948, Note_on_c, 14, 61, 98
33, 500055, Note_on_c, 14, 61, 0
33, 500289, Note_on_c, 14, 61, 93
33, 500342, Note_on_c, 14, 61, 0
33, 500413, Note_on_c, 14, 60, 96
33, 500466, Note_on_c, 14, 60, 0
33, 500533, Note_on_c, 14, 60, 109
33, 500586, Note_on_c, 14, 60, 0
33, 500773, Note_on_c, 14, 61, 109
33, 500826, Note_on_c, 14, 61, 0
33, 501013, Note_on_c, 14, 61, 92
33, 501066, Note_on_c, 14, 61, 0
33, 501121, Note_on_c, 14, 60, 102
33, 501174, Note_on_c, 14, 60, 0
33, 501243, Note_on_c, 14, 60, 91
33, 501296, Note_on_c, 14, 60, 0
33, 501501, Note_on_c, 14, 61, 99
33, 501608, Note_on_c, 14, 61, 0
33, 501840, Note_on_c, 14, 61, 99
33, 501893, Note_on_c, 14, 61, 0
33, 502088, Note_on_c, 14, 61, 99
33, 502195, Note_on_c, 14, 61, 0
33, 502461, Note_on_c, 14, 61, 99
33, 502514, Note_on_c, 14, 61, 0
33, 502574, Note_on_c, 14, 60, 110
33, 502627, Note_on_c, 14, 60, 0
33, 502693, Note_on_c, 14, 60, 109
33, 502746, Note_on_c, 14, 60, 0
33, 503303, Note_on_c, 14, 54, 110
33, 503304, Note_on_c, 14, 47, 96
33, 503308, Note_on_c, 14, 63, 101
33, 503356, Note_on_c, 14, 54, 0
33, 503357, Note_on_c, 14, 47, 0
33, 503361, Note_on_c, 14, 63, 0
33, 504122, Note_on_c, 14, 47, 94
33, 504125, Note_on_c, 14, 54, 101
33, 504147, Note_on_c, 14, 63, 99
33, 504175, Note_on_c, 14, 47, 0
33, 504178, Note_on_c, 14, 54, 0
33, 504200, Note_on_c, 14, 63, 0
33, 504260, Note_on_c, 14, 45, 44
33, 504265, Note_on_c, 14, 38, 59
33, 504307, Note_on_c, 14, 45, 0
33, 504312, Note_on_c, 14, 38, 0
33, 504495, Note_on_c, 14, 38, 43
33, 504503, Note_on_c, 14, 45, 44
33, 504542, Note_on_c, 14, 38, 0
33, 504550, Note_on_c, 14, 45, 0
33, 504969, Note_on_c, 14, 45, 53
33, 504984, Note_on_c, 14, 38, 43
33, 505016, Note_on_c, 14, 45, 0
33, 505031, Note_on_c, 14, 38, 0
33, 505462, Note_on_c, 14, 38, 47
33, 505462, Note_on_c, 14, 45, 44
33, 505509, Note_on_c, 14, 38, 0
33, 505509, Note_on_c, 14, 45, 0
33, 505686, Note_on_c, 14, 45, 47
33, 505701, Note_on_c, 14, 38, 53
33, 505733, Note_on_c, 14, 45, 0
33, 505748, Note_on_c, 14, 38, 0
33, 505936, Note_on_c, 14, 45, 41
33, 505942, Note_on_c, 14, 38, 41
33, 505983, Note_on_c, 14, 45, 0
33, 505989, Note_on_c, 14, 38, 0
33, 506417, Note_on_c, 14, 45, 42
33, 506419, Note_on_c, 14, 38, 51
33, 506464, Note_on_c, 14, 45, 0
33, 506466, Note_on_c, 14, 38, 0
33, 506893, Note_on_c, 14, 45, 49
33, 506900, Note_on_c, 14, 38, 57
33, 506940, Note_on_c, 14, 45, 0
33, 506947, Note_on_c, 14, 38, 0
33, 507366, Note_on_c, 14, 38, 50
33, 507371, Note_on_c, 14, 45, 57
33, 507413, Note_on_c, 14, 38, 0
33, 507418, Note_on_c, 14, 45, 0
33, 507611, Note_on_c, 14, 45, 52
33, 507619, Note_on_c, 14, 38, 43
33, 507658, Note_on_c, 14, 45, 0
33, 507666, Note_on_c, 14, 38, 0
33, 508091, Note_on_c, 14, 38, 45
33, 508097, Note_on_c, 14, 45, 41
33, 508138, Note_on_c, 14, 38, 0
33, 508144, Note_on_c, 14, 45, 0
33, 508337, Note_on_c, 14, 45, 55
33, 508340, Note_on_c, 14, 38, 41
33, 508384, Note_on_c, 14, 45, 0
33, 508387, Note_on_c, 14, 38, 0
33, 508568, Note_on_c, 14, 38, 44
33, 508582, Note_on_c, 14, 45, 49
33, 508615, Note_on_c, 14, 38, 0
33, 508629, Note_on_c, 14, 45, 0
33, 509066, Note_on_c, 14, 45, 40
33, 509067, Note_on_c, 14, 38, 49
33, 509113, Note_on_c, 14, 45, 0
33, 509114, Note_on_c, 14, 38, 0
33, 509538, Note_on_c, 14, 45, 43
33, 509545, Note_on_c, 14, 38, 43
33, 509585, Note_on_c, 14, 45, 0
33, 509592, Note_on_c, 14, 38, 0
33, 509772, Note_on_c, 14, 45, 51
33, 509784, Note_on_c, 14, 38, 39
33, 509819, Note_on_c, 14, 45, 0
33, 509831, Note_on_c, 14, 38, 0
33, 510244, Note_on_c, 14, 45, 41
33, 510262, Note_on_c, 14, 38, 40
33, 510291, Note_on_c, 14, 45, 0
33, 510309, Note_on_c, 14, 38, 0
33, 510720, Note_on_c, 14, 38, 59
33, 510725, Note_on_c, 14, 45, 42
33, 510767, Note_on_c, 14, 38, 0
33, 510772, Note_on_c, 14, 45, 0
33, 511218, Note_on_c, 14, 45, 43
33, 511227, Note_on_c, 14, 38, 44
33, 511265, Note_on_c, 14, 45, 0
33, 511274, Note_on_c, 14, 38, 0
33, 511704, Note_on_c, 14, 38, 49
33, 511705, Note_on_c, 14, 45, 47
33, 511751, Note_on_c, 14, 38, 0
33, 511752, Note_on_c, 14, 45, 0
33, 511931, Note_on_c, 14, 38, 39
33, 511943, Note_on_c, 14, 45, 40
33, 511978, Note_on_c, 14, 38, 0
33, 511990, Note_on_c, 14, 45, 0
33, 512413, Note_on_c, 14, 38, 44
33, 512421, Note_on_c, 14, 45, 46
33, 512460, Note_on_c, 14, 38, 0
33, 512468, Note_on_c, 14, 45, 0
33, 512897, Note_on_c, 14, 38, 54
33, 512899, Note_on_c, 14, 45, 42
33, 512944, Note_on_c, 14, 38, 0
33, 512946, Note_on_c, 14, 45, 0
33, 513363, Note_on_c, 14, 45, 48
33, 513374, Note_on_c, 14, 38, 53
33, 513410, Note_on_c, 14, 45, 0
33, 513421, Note_on_c, 14, 38, 0
33, 513849, Note_on_c, 14, 45, 53
33, 513850, Note_on_c, 14, 38, 50
33, 513896, Note_on_c, 14, 45, 0
33, 513897, Note_on_c, 14, 38, 0
33, 514085, Note_on_c, 14, 38, 57
33, 514093, Note_on_c, 14, 45, 52
33, 514132, Note_on_c, 14, 38, 0
33, 514140, Note_on_c, 14, 45, 0
33, 514332, Note_on_c, 14, 38, 41
33, 514336, Note_on_c, 14, 45, 59
33, 514379, Note_on_c, 14, 38, 0
33, 514383, Note_on_c, 14, 45, 0
33, 514817, Note_on_c, 14, 38, 56
33, 514818, Note_on_c, 14, 45, 50
33, 514864, Note_on_c, 14, 38, 0
33, 514865, Note_on_c, 14, 45, 0
33, 515293, Note_on_c, 14, 45, 45
33, 515298, Note_on_c, 14, 38, 54
33, 515340, Note_on_c, 14, 45, 0
33, 515345, Note_on_c, 14, 38, 0
33, 515536, Note_on_c, 14, 38, 43
33, 515546, Note_on_c, 14, 45, 45
33, 515583, Note_on_c, 14, 38, 0
33, 515593, Note_on_c, 14, 45, 0
33, 516003, Note_on_c, 14, 45, 41
33, 516025, Note_on_c, 14, 38, 49
33, 516050, Note_on_c, 14, 45, 0
33, 516072, Note_on_c, 14, 38, 0
33, 516243, Note_on_c, 14, 38, 53
33, 516253, Note_on_c, 14, 45, 59
33, 516290, Note_on_c, 14, 38, 0
33, 516300, Note_on_c, 14, 45, 0
33, 516729, Note_on_c, 14, 45, 51
33, 516735, Note_on_c, 14, 38, 49
33, 516776, Note_on_c, 14, 45, 0
33, 516782, Note_on_c, 14, 38, 0
33, 517207, Note_on_c, 14, 45, 43
33, 517215, Note_on_c, 14, 38, 48
33, 517254, Note_on_c, 14, 45, 0
33, 517262, Note_on_c, 14, 38, 0
33, 517440, Note_on_c, 14, 45, 47
33, 517463, Note_on_c, 14, 38, 42
33, 517487, Note_on_c, 14, 45, 0
33, 517510, Note_on_c, 14, 38, 0
33, 517687, Note_on_c, 14, 38, 41
33, 517694, Note_on_c, 14, 45, 59
33, 517734, Note_on_c, 14, 38, 0
33, 517741, Note_on_c, 14, 45, 0
33, 518163, Note_on_c, 14, 45, 42
33, 518180, Note_on_c, 14, 38, 52
33, 518210, Note_on_c, 14, 45, 0
33, 518227, Note_on_c, 14, 38, 0
33, 518650, Note_on_c, 14, 38, 51
33, 518661, Note_on_c, 14, 45, 48
33, 518697, Note_on_c, 14, 38, 0
33, 518708, Note_on_c, 14, 45, 0
33, 518899, Note_on_c, 14, 38, 47
33, 518902, Note_on_c, 14, 45, 41
33, 518946, Note_on_c, 14, 38, 0
33, 518949, Note_on_c, 14, 45, 0
33, 519372, Note_on_c, 14, 38, 54
33, 519373, Note_on_c, 14, 45, 47
33, 519419, Note_on_c, 14, 38, 0
33, 519420, Note_on_c, 14, 45, 0
33, 519843, Note_on_c, 14, 38, 46
33, 519866, Note_on_c, 14, 45, 39
33, 519890, Note_on_c, 14, 38, 0
33, 519913, Note_on_c, 14, 45, 0
33, 520327, Note_on_c, 14, 62, 102
33, 520328, Note_on_c, 14, 53, 110
33, 520350, Note_on_c, 14, 62, 0
33, 520351, Note_on_c, 14, 53, 0
33, 520381, Note_on_c, 14, 62, 102
33, 520400, Note_on_c, 14, 53, 113
33, 520404, Note_on_c, 14, 62, 0
33, 520423, Note_on_c, 14, 53, 0
33, 520801, Note_on_c, 14, 53, 100
33, 520816, Note_on_c, 14, 62, 109
33, 520824, Note_on_c, 14, 53, 0
33, 520839, Note_on_c, 14, 62, 0
33, 520871, Note_on_c, 14, 62, 101
33, 520877, Note_on_c, 14, 53, 109
33, 520894, Note_on_c, 14, 62, 0
33, 520900, Note_on_c, 14, 53, 0
33, 521283, Note_on_c, 14, 62, 104
33, 521288, Note_on_c, 14, 53, 104
33, 521306, Note_on_c, 14, 62, 0
33, 521311, Note_on_c, 14, 53, 0
33, 521341, Note_on_c, 14, 53, 105
33, 521344, Note_on_c, 14, 62, 104
33, 521364, Note_on_c, 14, 53, 0
33, 521367, Note_on_c, 14, 62, 0
33, 521537, Note_on_c, 14, 53, 116
33, 521545, Note_on_c, 14, 62, 104
33, 521560, Note_on_c, 14, 53, 0
33, 521568, Note_on_c, 14, 62, 0
33, 521583, Note_on_c, 14, 53, 113
33, 521592, Note_on_c, 14, 62, 118
33, 521606, Note_on_c, 14, 53, 0
33, 521615, Note_on_c, 14, 62, 0
33, 522006, Note_on_c, 14, 53, 104
33, 522020, Note_on_c, 14, 62, 116
33, 522029, Note_on_c, 14, 53, 0
33, 522043, Note_on_c, 14, 62, 0
33, 522061, Note_on_c, 14, 62, 112
33, 522083, Note_on_c, 14, 53, 109
33, 522084, Note_on_c, 14, 62, 0
33, 522106, Note_on_c, 14, 53, 0
33, 522482, Note_on_c, 14, 62, 102
33, 522492, Note_on_c, 14, 53, 103
33, 522505, Note_on_c, 14, 62, 0
33, 522515, Note_on_c, 14, 53, 0
33, 522547, Note_on_c, 14, 62, 117
33, 522566, Note_on_c, 14, 53, 119
33, 522570, Note_on_c, 14, 62, 0
33, 522589, Note_on_c, 14, 53, 0
33, 522962, Note_on_c, 14, 62, 107
33, 522968, Note_on_c, 14, 53, 118
33, 522985, Note_on_c, 14, 62, 0
33, 522991, Note_on_c, 14, 53, 0
33, 523034, Note_on_c, 14, 62, 117
33, 523047, Note_on_c, 14, 53, 114
33, 523057, Note_on_c, 14, 62, 0
33, 523070, Note_on_c, 14, 53, 0
33, 523455, Note_on_c, 14, 53, 106
33, 523459, Note_on_c, 14, 62, 113
33, 523478, Note_on_c, 14, 53, 0
33, 523482, Note_on_c, 14, 62, 0
33, 523510, Note_on_c, 14, 62, 107
33, 523518, Note_on_c, 14, 53, 104
33, 523533, Note_on_c, 14, 62, 0
33, 523541, Note_on_c, 14, 53, 0
33, 523933, Note_on_c, 14, 56, 114
33, 523940, Note_on_c, 14, 47, 108
33, 523956, Note_on_c, 14, 56, 0
33, 523963, Note_on_c, 14, 47, 0
33, 523984, Note_on_c, 14, 56, 111
33, 524003, Note_on_c, 14, 47, 114
33, 524007, Note_on_c, 14, 56, 0
33, 524026, Note_on_c, 14, 47, 0
33, 524161, Note_on_c, 14, 62, 108
33, 524176, Note_on_c, 14, 53, 117
33, 524184, Note_on_c, 14, 62, 0
33, 524199, Note_on_c, 14, 53, 0
33, 524221, Note_on_c, 14, 53, 106
33, 524231, Note_on_c, 14, 62, 115
33, 524244, Note_on_c, 14, 53, 0
33, 524254, Note_on_c, 14, 62, 0
33, 524414, Note_on_c, 14, 53, 115
33, 524417, Note_on_c, 14, 62, 106
33, 524437, Note_on_c, 14, 53, 0
33, 524440, Note_on_c, 14, 62, 0
33, 524471, Note_on_c, 14, 53, 101
33, 524481, Note_on_c, 14, 62, 111
33, 524494, Note_on_c, 14, 53, 0
33, 524504, Note_on_c, 14, 62, 0
33, 524888, Note_on_c, 14, 62, 110
33, 524889, Note_on_c, 14, 53, 111
33, 524911, Note_on_c, 14, 62, 0
33, 524912, Note_on_c, 14, 53, 0
33, 524955, Note_on_c, 14, 53, 100
33, 524956, Note_on_c, 14, 62, 102
33, 524978, Note_on_c, 14, 53, 0
33, 524979, Note_on_c, 14, 62, 0
33, 525365, Note_on_c, 14, 62, 107
33, 525370, Note_on_c, 14, 53, 118
33, 525388, Note_on_c, 14, 62, 0
33, 525393, Note_on_c, 14, 53, 0
33, 525438, Note_on_c, 14, 62, 103
33, 525440, Note_on_c, 14, 53, 102
33, 525461, Note_on_c, 14, 62, 0
33, 525463, Note_on_c, 14, 53, 0
33, 525860, Note_on_c, 14, 62, 118
33, 525864, Note_on_c, 14, 53, 119
33, 525883, Note_on_c, 14, 62, 0
33, 525886, Note_on_c, 14, 53, 0
33, 525905, Note_on_c, 14, 53, 104
33, 525927, Note_on_c, 14, 62, 103
33, 525928, Note_on_c, 14, 53, 0
33, 525950, Note_on_c, 14, 62, 0
33, 526087, Note_on_c, 14, 56, 111
33, 526108, Note_on_c, 14, 47, 102
33, 526110, Note_on_c, 14, 56, 0
33, 526122, Note_on_c, 14, 47, 0
33, 526141, Note_on_c, 14, 47, 108
33, 526164, Note_on_c, 14, 47, 0
33, 526168, Note_on_c, 14, 56, 104
33, 526191, Note_on_c, 14, 56, 0
33, 526335, Note_on_c, 14, 53, 120
33, 526344, Note_on_c, 14, 62, 104
33, 526358, Note_on_c, 14, 53, 0
33, 526367, Note_on_c, 14, 62, 0
33, 526392, Note_on_c, 14, 62, 110
33, 526394, Note_on_c, 14, 53, 102
33, 526415, Note_on_c, 14, 62, 0
33, 526417, Note_on_c, 14, 53, 0
33, 526565, Note_on_c, 14, 62, 109
33, 526565, Note_on_c, 14, 53, 108
33, 526588, Note_on_c, 14, 62, 0
33, 526588, Note_on_c, 14, 53, 0
33, 526630, Note_on_c, 14, 62, 107
33, 526641, Note_on_c, 14, 53, 116
33, 526653, Note_on_c, 14, 62, 0
33, 526664, Note_on_c, 14, 53, 0
33, 527052, Note_on_c, 14, 47, 115
33, 527068, Note_on_c, 14, 56, 102
33, 527075, Note_on_c, 14, 47, 0
33, 527091, Note_on_c, 14, 56, 0
33, 527112, Note_on_c, 14, 56, 110
33, 527120, Note_on_c, 14, 47, 115
33, 527135, Note_on_c, 14, 56, 0
33, 527143, Note_on_c, 14, 47, 0
33, 527281, Note_on_c, 14, 60, 96
33, 527287, Note_on_c, 14, 54, 106
33, 527304, Note_on_c, 14, 60, 0
33, 527310, Note_on_c, 14, 54, 0
33, 527341, Note_on_c, 14, 60, 111
33, 527346, Note_on_c, 14, 54, 92
33, 527364, Note_on_c, 14, 60, 0
33, 527369, Note_on_c, 14, 54, 0
33, 527769, Note_on_c, 14, 56, 101
33, 527778, Note_on_c, 14, 62, 103
33, 527792, Note_on_c, 14, 56, 0
33, 527801, Note_on_c, 14, 62, 0
33, 527843, Note_on_c, 14, 62, 91
33, 527844, Note_on_c, 14, 56, 106
33, 527866, Note_on_c, 14, 62, 0
33, 527867, Note_on_c, 14, 56, 0
33, 528000, Note_on_c, 14, 56, 107
33, 528023, Note_on_c, 14, 56, 0
33, 528023, Note_on_c, 14, 62, 91
33, 528046, Note_on_c, 14, 62, 0
33, 528080, Note_on_c, 14, 56, 109
33, 528085, Note_on_c, 14, 62, 91
33, 528103, Note_on_c, 14, 56, 0
33, 528108, Note_on_c, 14, 62, 0
33, 528251, Note_on_c, 14, 59, 109
33, 528264, Note_on_c, 14, 49, 105
33, 528274, Note_on_c, 14, 59, 0
33, 528285, Note_on_c, 14, 49, 0
33, 528305, Note_on_c, 14, 49, 100
33, 528320, Note_on_c, 14, 59, 111
33, 528328, Note_on_c, 14, 49, 0
33, 528343, Note_on_c, 14, 59, 0
33, 528721, Note_on_c, 14, 59, 95
33, 528738, Note_on_c, 14, 49, 96
33, 528744, Note_on_c, 14, 59, 0
33, 528761, Note_on_c, 14, 49, 0
33, 528793, Note_on_c, 14, 49, 111
33, 528795, Note_on_c, 14, 59, 108
33, 528816, Note_on_c, 14, 49, 0
33, 528818, Note_on_c, 14, 59, 0
33, 528978, Note_on_c, 14, 49, 101
33, 528983, Note_on_c, 14, 59, 111
33, 529001, Note_on_c, 14, 49, 0
33, 529006, Note_on_c, 14, 59, 0
33, 529029, Note_on_c, 14, 49, 96
33, 529029, Note_on_c, 14, 59, 95
33, 529052, Note_on_c, 14, 49, 0
33, 529052, Note_on_c, 14, 59, 0
33, 529441, Note_on_c, 14, 60, 106
33, 529462, Note_on_c, 14, 56, 99
33, 529464, Note_on_c, 14, 60, 0
33, 529485, Note_on_c, 14, 56, 0
33, 529521, Note_on_c, 14, 60, 98
33, 529527, Note_on_c, 14, 56, 97
33, 529544, Note_on_c, 14, 60, 0
33, 529550, Note_on_c, 14, 56, 0
33, 529924, Note_on_c, 14, 56, 107
33, 529927, Note_on_c, 14, 62, 106
33, 529947, Note_on_c, 14, 56, 0
33, 529950, Note_on_c, 14, 62, 0
33, 529981, Note_on_c, 14, 62, 104
33, 530001, Note_on_c, 14, 56, 103
33, 530004, Note_on_c, 14, 62, 0
33, 530024, Note_on_c, 14, 56, 0
33, 530163, Note_on_c, 14, 59, 108
33, 530186, Note_on_c, 14, 59, 0
33, 530187, Note_on_c, 14, 49, 110
33, 530201, Note_on_c, 14, 49, 0
33, 530220, Note_on_c, 14, 49, 99
33, 530222, Note_on_c, 14, 59, 92
33, 530243, Note_on_c, 14, 49, 0
33, 530245, Note_on_c, 14, 59, 0
33, 530656, Note_on_c, 14, 49, 99
33, 530656, Note_on_c, 14, 59, 94
33, 530679, Note_on_c, 14, 49, 0
33, 530679, Note_on_c, 14, 59, 0
33, 530705, Note_on_c, 14, 49, 101
33, 530727, Note_on_c, 14, 59, 110
33, 530728, Note_on_c, 14, 49, 0
33, 530750, Note_on_c, 14, 59, 0
33, 531128, Note_on_c, 14, 49, 92
33, 531135, Note_on_c, 14, 59, 98
33, 531151, Note_on_c, 14, 49, 0
33, 531158, Note_on_c, 14, 59, 0
33, 531188, Note_on_c, 14, 49, 110
33, 531209, Note_on_c, 14, 59, 100
33, 531211, Note_on_c, 14, 49, 0
33, 531232, Note_on_c, 14, 59, 0
33, 531383, Note_on_c, 14, 38, 94
33, 531383, Note_on_c, 14, 53, 103
33, 531387, Note_on_c, 14, 45, 102
33, 531503, Note_on_c, 14, 38, 0
33, 531503, Note_on_c, 14, 53, 0
33, 531507, Note_on_c, 14, 45, 0
33, 531623, Note_on_c, 14, 53, 109
33, 531743, Note_on_c, 14, 53, 0
33, 531853, Note_on_c, 14, 53, 105
33, 531973, Note_on_c, 14, 53, 0
33, 532332, Note_on_c, 14, 53, 97
33, 532452, Note_on_c, 14, 53, 0
33, 532564, Note_on_c, 14, 53, 93
33, 532684, Note_on_c, 14, 53, 0
33, 532813, Note_on_c, 14, 53, 102
33, 532933, Note_on_c, 14, 53, 0
33, 533051, Note_on_c, 14, 53, 108
33, 533171, Note_on_c, 14, 53, 0
33, 533283, Note_on_c, 14, 53, 108
33, 533403, Note_on_c, 14, 53, 0
33, 533766, Note_on_c, 14, 53, 103
33, 533886, Note_on_c, 14, 53, 0
33, 534248, Note_on_c, 14, 53, 111
33, 534368, Note_on_c, 14, 53, 0
33, 534492, Note_on_c, 14, 47, 91
33, 534501, Note_on_c, 14, 56, 98
33, 534612, Note_on_c, 14, 47, 0
33, 534621, Note_on_c, 14, 56, 0
33, 534742, Note_on_c, 14, 53, 103
33, 534862, Note_on_c, 14, 53, 0
33, 535222, Note_on_c, 14, 53, 107
33, 535342, Note_on_c, 14, 53, 0
33, 535687, Note_on_c, 14, 53, 95
33, 535807, Note_on_c, 14, 53, 0
33, 535924, Note_on_c, 14, 50, 115
33, 535943, Note_on_c, 14, 50, 0
33, 535943, Note_on_c, 14, 57, 106
33, 535962, Note_on_c, 14, 57, 0
33, 535984, Note_on_c, 14, 50, 106
33, 535984, Note_on_c, 14, 57, 104
33, 535992, Note_on_c, 14, 50, 0
33, 536001, Note_on_c, 14, 57, 0
33, 536011, Note_on_c, 14, 50, 114
33, 536020, Note_on_c, 14, 57, 122
33, 536030, Note_on_c, 14, 50, 0
33, 536039, Note_on_c, 14, 57, 0
33, 536049, Note_on_c, 14, 50, 108
33, 536067, Note_on_c, 14, 57, 118
33, 536068, Note_on_c, 14, 50, 0
33, 536078, Note_on_c, 14, 57, 0
33, 536092, Note_on_c, 14, 50, 108
33, 536097, Note_on_c, 14, 57, 116
33, 536112, Note_on_c, 14, 50, 0
33, 536117, Note_on_c, 14, 57, 0
33, 536136, Note_on_c, 14, 57, 118
33, 536149, Note_on_c, 14, 50, 119
33, 536155, Note_on_c, 14, 57, 0
33, 536164, Note_on_c, 14, 50, 0
33, 536181, Note_on_c, 14, 59, 121
33, 536183, Note_on_c, 14, 50, 113
33, 536200, Note_on_c, 14, 59, 0
33, 536201, Note_on_c, 14, 50, 0
33, 536206, Note_on_c, 14, 59, 120
33, 536220, Note_on_c, 14, 50, 122
33, 536226, Note_on_c, 14, 59, 0
33, 536240, Note_on_c, 14, 50, 0
33, 536253, Note_on_c, 14, 59, 120
33, 536267, Note_on_c, 14, 50, 116
33, 536272, Note_on_c, 14, 59, 0
33, 536281, Note_on_c, 14, 50, 0
33, 536285, Note_on_c, 14, 59, 105
33, 536300, Note_on_c, 14, 50, 111
33, 536304, Note_on_c, 14, 59, 0
33, 536313, Note_on_c, 14, 50, 0
33, 536332, Note_on_c, 14, 50, 106
33, 536338, Note_on_c, 14, 59, 123
33, 536352, Note_on_c, 14, 50, 0
33, 536355, Note_on_c, 14, 59, 0
33, 536371, Note_on_c, 14, 50, 111
33, 536374, Note_on_c, 14, 59, 106
33, 536390, Note_on_c, 14, 50, 0
33, 536393, Note_on_c, 14, 59, 0
33, 536414, Note_on_c, 14, 58, 108
33, 536426, Note_on_c, 14, 58, 0
33, 536429, Note_on_c, 14, 61, 122
33, 536430, Note_on_c, 14, 61, 0
33, 536445, Note_on_c, 14, 58, 115
33, 536445, Note_on_c, 14, 61, 112
33, 536465, Note_on_c, 14, 58, 0
33, 536465, Note_on_c, 14, 61, 0
33, 536490, Note_on_c, 14, 58, 104
33, 536496, Note_on_c, 14, 61, 106
33, 536509, Note_on_c, 14, 58, 0
33, 536513, Note_on_c, 14, 61, 0
33, 536532, Note_on_c, 14, 61, 113
33, 536534, Note_on_c, 14, 58, 111
33, 536551, Note_on_c, 14, 61, 0
33, 536553, Note_on_c, 14, 58, 0
33, 536564, Note_on_c, 14, 61, 117
33, 536575, Note_on_c, 14, 58, 118
33, 536584, Note_on_c, 14, 61, 0
33, 536594, Note_on_c, 14, 58, 0
33, 536613, Note_on_c, 14, 58, 111
33, 536623, Note_on_c, 14, 61, 120
33, 536632, Note_on_c, 14, 58, 0
33, 536642, Note_on_c, 14, 61, 0
33, 536643, Note_on_c, 14, 54, 119
33, 536662, Note_on_c, 14, 54, 0
33, 536668, Note_on_c, 14, 59, 118
33, 536686, Note_on_c, 14, 59, 0
33, 536690, Note_on_c, 14, 54, 109
33, 536705, Note_on_c, 14, 59, 122
33, 536706, Note_on_c, 14, 59, 0
33, 536710, Note_on_c, 14, 54, 0
33, 536721, Note_on_c, 14, 59, 107
33, 536740, Note_on_c, 14, 59, 0
33, 536744, Note_on_c, 14, 54, 112
33, 536756, Note_on_c, 14, 54, 0
33, 536775, Note_on_c, 14, 54, 115
33, 536786, Note_on_c, 14, 59, 110
33, 536794, Note_on_c, 14, 54, 0
33, 536801, Note_on_c, 14, 59, 121
33, 536805, Note_on_c, 14, 59, 0
33, 536821, Note_on_c, 14, 59, 0
33, 536828, Note_on_c, 14, 54, 114
33, 536829, Note_on_c, 14, 54, 0
33, 536841, Note_on_c, 14, 54, 111
33, 536860, Note_on_c, 14, 54, 0
33, 536864, Note_on_c, 14, 59, 111
33, 536883, Note_on_c, 14, 59, 0
33, 536897, Note_on_c, 14, 54, 120
33, 536906, Note_on_c, 14, 54, 0
33, 536925, Note_on_c, 14, 54, 117
33, 536945, Note_on_c, 14, 54, 0
33, 536977, Note_on_c, 14, 54, 120
33, 536991, Note_on_c, 14, 54, 0
33, 537011, Note_on_c, 14, 54, 105
33, 537030, Note_on_c, 14, 54, 0
33, 537055, Note_on_c, 14, 54, 112
33, 537062, Note_on_c, 14, 54, 0
33, 537081, Note_on_c, 14, 54, 110
33, 537100, Note_on_c, 14, 54, 0
33, 537142, Note_on_c, 14, 55, 110
33, 537154, Note_on_c, 14, 55, 0
33, 537173, Note_on_c, 14, 55, 113
33, 537187, Note_on_c, 14, 55, 0
33, 537206, Note_on_c, 14, 55, 112
33, 537225, Note_on_c, 14, 55, 0
33, 537245, Note_on_c, 14, 55, 117
33, 537264, Note_on_c, 14, 55, 0
33, 537298, Note_on_c, 14, 55, 119
33, 537310, Note_on_c, 14, 55, 0
33, 537329, Note_on_c, 14, 55, 120
33, 537348, Note_on_c, 14, 55, 0
33, 537373, Note_on_c, 14, 56, 120
33, 537392, Note_on_c, 14, 56, 0
33, 537420, Note_on_c, 14, 56, 111
33, 537440, Note_on_c, 14, 56, 0
33, 537461, Note_on_c, 14, 56, 113
33, 537476, Note_on_c, 14, 56, 0
33, 537495, Note_on_c, 14, 56, 114
33, 537504, Note_on_c, 14, 56, 0
33, 537523, Note_on_c, 14, 56, 120
33, 537543, Note_on_c, 14, 56, 0
33, 537570, Note_on_c, 14, 56, 107
33, 537589, Note_on_c, 14, 56, 0
33, 537858, Note_on_c, 14, 43, 53
33, 537863, Note_on_c, 14, 36, 52
33, 537905, Note_on_c, 14, 43, 0
33, 537910, Note_on_c, 14, 36, 0
33, 538096, Note_on_c, 14, 36, 41
33, 538102, Note_on_c, 14, 43, 48
33, 538143, Note_on_c, 14, 36, 0
33, 538149, Note_on_c, 14, 43, 0
33, 538574, Note_on_c, 14, 43, 39
33, 538576, Note_on_c, 14, 36, 59
33, 538621, Note_on_c, 14, 43, 0
33, 538623, Note_on_c, 14, 36, 0
33, 539044, Note_on_c, 14, 36, 56
33, 539055, Note_on_c, 14, 43, 48
33, 539091, Note_on_c, 14, 36, 0
33, 539102, Note_on_c, 14, 43, 0
33, 539298, Note_on_c, 14, 43, 39
33, 539305, Note_on_c, 14, 36, 57
33, 539345, Note_on_c, 14, 43, 0
33, 539352, Note_on_c, 14, 36, 0
33, 539529, Note_on_c, 14, 36, 50
33, 539532, Note_on_c, 14, 43, 48
33, 539576, Note_on_c, 14, 36, 0
33, 539579, Note_on_c, 14, 43, 0
33, 540003, Note_on_c, 14, 36, 43
33, 540028, Note_on_c, 14, 43, 39
33, 540050, Note_on_c, 14, 36, 0
33, 540075, Note_on_c, 14, 43, 0
33, 540250, Note_on_c, 14, 36, 42
33, 540256, Note_on_c, 14, 43, 59
33, 540297, Note_on_c, 14, 36, 0
33, 540303, Note_on_c, 14, 43, 0
33, 540722, Note_on_c, 14, 43, 51
33, 540736, Note_on_c, 14, 36, 48
33, 540769, Note_on_c, 14, 43, 0
33, 540783, Note_on_c, 14, 36, 0
33, 541203, Note_on_c, 14, 43, 59
33, 541217, Note_on_c, 14, 36, 51
33, 541250, Note_on_c, 14, 43, 0
33, 541264, Note_on_c, 14, 36, 0
33, 541697, Note_on_c, 14, 36, 45
33, 541700, Note_on_c, 14, 43, 49
33, 541744, Note_on_c, 14, 36, 0
33, 541747, Note_on_c, 14, 43, 0
33, 542173, Note_on_c, 14, 43, 46
33, 542187, Note_on_c, 14, 36, 51
33, 542220, Note_on_c, 14, 43, 0
33, 542234, Note_on_c, 14, 36, 0
33, 542421, Note_on_c, 14, 43, 55
33, 542427, Note_on_c, 14, 36, 54
33, 542468, Note_on_c, 14, 43, 0
33, 542474, Note_on_c, 14, 36, 0
33, 542891, Note_on_c, 14, 36, 40
33, 542905, Note_on_c, 14, 43, 49
33, 542938, Note_on_c, 14, 36, 0
33, 542952, Note_on_c, 14, 43, 0
33, 543365, Note_on_c, 14, 43, 50
33, 543388, Note_on_c, 14, 36, 54
33, 543412, Note_on_c, 14, 43, 0
33, 543435, Note_on_c, 14, 36, 0
33, 543845, Note_on_c, 14, 36, 48
33, 543864, Note_on_c, 14, 43, 46
33, 543892, Note_on_c, 14, 36, 0
33, 543911, Note_on_c, 14, 43, 0
33, 544322, Note_on_c, 14, 36, 48
33, 544342, Note_on_c, 14, 43, 46
33, 544369, Note_on_c, 14, 36, 0
33, 544389, Note_on_c, 14, 43, 0
33, 544570, Note_on_c, 14, 36, 54
33, 544587, Note_on_c, 14, 43, 59
33, 544617, Note_on_c, 14, 36, 0
33, 544634, Note_on_c, 14, 43, 0
33, 544807, Note_on_c, 14, 36, 42
33, 544823, Note_on_c, 14, 43, 46
33, 544854, Note_on_c, 14, 36, 0
33, 544870, Note_on_c, 14, 43, 0
33, 545292, Note_on_c, 14, 43, 52
33, 545293, Note_on_c, 14, 36, 50
33, 545339, Note_on_c, 14, 43, 0
33, 545340, Note_on_c, 14, 36, 0
33, 545780, Note_on_c, 14, 43, 56
33, 545788, Note_on_c, 14, 36, 46
33, 545827, Note_on_c, 14, 43, 0
33, 545835, Note_on_c, 14, 36, 0
33, 546008, Note_on_c, 14, 54, 91
33, 546011, Note_on_c, 14, 61, 78
33, 546029, Note_on_c, 14, 57, 78
33, 546038, Note_on_c, 14, 54, 0
33, 546041, Note_on_c, 14, 61, 0
33, 546059, Note_on_c, 14, 57, 0
33, 546065, Note_on_c, 14, 57, 90
33, 546068, Note_on_c, 14, 61, 88
33, 546081, Note_on_c, 14, 54, 82
33, 546095, Note_on_c, 14, 57, 0
33, 546098, Note_on_c, 14, 61, 0
33, 546111, Note_on_c, 14, 54, 0
33, 546242, Note_on_c, 14, 57, 82
33, 546266, Note_on_c, 14, 54, 82
33, 546267, Note_on_c, 14, 61, 79
33, 546272, Note_on_c, 14, 57, 0
33, 546284, Note_on_c, 14, 54, 0
33, 546291, Note_on_c, 14, 61, 0
33, 546303, Note_on_c, 14, 54, 97
33, 546305, Note_on_c, 14, 57, 93
33, 546310, Note_on_c, 14, 61, 87
33, 546333, Note_on_c, 14, 54, 0
33, 546335, Note_on_c, 14, 57, 0
33, 546340, Note_on_c, 14, 61, 0
33, 546732, Note_on_c, 14, 54, 79
33, 546743, Note_on_c, 14, 61, 83
33, 546748, Note_on_c, 14, 57, 80
33, 546762, Note_on_c, 14, 54, 0
33, 546764, Note_on_c, 14, 61, 0
33, 546778, Note_on_c, 14, 57, 0
33, 546784, Note_on_c, 14, 61, 83
33, 546791, Note_on_c, 14, 57, 90
33, 546798, Note_on_c, 14, 54, 86
33, 546814, Note_on_c, 14, 61, 0
33, 546821, Note_on_c, 14, 57, 0
33, 546828, Note_on_c, 14, 54, 0
33, 547206, Note_on_c, 14, 57, 84
33, 547225, Note_on_c, 14, 54, 93
33, 547226, Note_on_c, 14, 61, 78
33, 547236, Note_on_c, 14, 57, 0
33, 547251, Note_on_c, 14, 54, 0
33, 547251, Note_on_c, 14, 61, 0
33, 547270, Note_on_c, 14, 61, 97
33, 547271, Note_on_c, 14, 54, 91
33, 547285, Note_on_c, 14, 57, 98
33, 547300, Note_on_c, 14, 61, 0
33, 547301, Note_on_c, 14, 54, 0
33, 547315, Note_on_c, 14, 57, 0
33, 547458, Note_on_c, 14, 60, 81
33, 547462, Note_on_c, 14, 54, 87
33, 547482, Note_on_c, 14, 60, 0
33, 547492, Note_on_c, 14, 54, 0
33, 547501, Note_on_c, 14, 60, 78
33, 547517, Note_on_c, 14, 54, 97
33, 547531, Note_on_c, 14, 60, 0
33, 547547, Note_on_c, 14, 54, 0
33, 547682, Note_on_c, 14, 57, 84
33, 547697, Note_on_c, 14, 54, 87
33, 547698, Note_on_c, 14, 61, 96
33, 547712, Note_on_c, 14, 57, 0
33, 547727, Note_on_c, 14, 54, 0
33, 547727, Note_on_c, 14, 61, 0
33, 547746, Note_on_c, 14, 61, 93
33, 547760, Note_on_c, 14, 54, 89
33, 547768, Note_on_c, 14, 57, 88
33, 547776, Note_on_c, 14, 61, 0
33, 547790, Note_on_c, 14, 54, 0
33, 547798, Note_on_c, 14, 57, 0
33, 548164, Note_on_c, 14, 61, 78
33, 548167, Note_on_c, 14, 54, 98
33, 548187, Note_on_c, 14, 57, 84
33, 548194, Note_on_c, 14, 61, 0
33, 548197, Note_on_c, 14, 54, 0
33, 548217, Note_on_c, 14, 57, 0
33, 548229, Note_on_c, 14, 57, 97
33, 548236, Note_on_c, 14, 54, 84
33, 548248, Note_on_c, 14, 61, 97
33, 548259, Note_on_c, 14, 57, 0
33, 548266, Note_on_c, 14, 54, 0
33, 548278, Note_on_c, 14, 61, 0
33, 548642, Note_on_c, 14, 57, 83
33, 548643, Note_on_c, 14, 54, 78
33, 548649, Note_on_c, 14, 61, 88
33, 548672, Note_on_c, 14, 57, 0
33, 548673, Note_on_c, 14, 54, 0
33, 548679, Note_on_c, 14, 61, 0
33, 548706, Note_on_c, 14, 54, 79
33, 548709, Note_on_c, 14, 61, 90
33, 548728, Note_on_c, 14, 57, 82
33, 548736, Note_on_c, 14, 54, 0
33, 548739, Note_on_c, 14, 61, 0
33, 548758, Note_on_c, 14, 57, 0
33, 549135, Note_on_c, 14, 57, 94
33, 549138, Note_on_c, 14, 54, 98
33, 549138, Note_on_c, 14, 61, 88
33, 549165, Note_on_c, 14, 57, 0
33, 549168, Note_on_c, 14, 54, 0
33, 549168, Note_on_c, 14, 61, 0
33, 549195, Note_on_c, 14, 54, 80
33, 549200, Note_on_c, 14, 61, 78
33, 549207, Note_on_c, 14, 57, 94
33, 549225, Note_on_c, 14, 54, 0
33, 549230, Note_on_c, 14, 61, 0
33, 549237, Note_on_c, 14, 57, 0
33, 549365, Note_on_c, 14, 60, 81
33, 549379, Note_on_c, 14, 54, 90
33, 549395, Note_on_c, 14, 60, 0
33, 549408, Note_on_c, 14, 54, 0
33, 549422, Note_on_c, 14, 60, 90
33, 549427, Note_on_c, 14, 54, 97
33, 549452, Note_on_c, 14, 60, 0
33, 549457, Note_on_c, 14, 54, 0
33, 549859, Note_on_c, 14, 57, 90
33, 549866, Note_on_c, 14, 54, 85
33, 549889, Note_on_c, 14, 57, 0
33, 549896, Note_on_c, 14, 54, 0
33, 549908, Note_on_c, 14, 54, 81
33, 549918, Note_on_c, 14, 57, 97
33, 549938, Note_on_c, 14, 54, 0
33, 549948, Note_on_c, 14, 57, 0
33, 550324, Note_on_c, 14, 54, 78
33, 550347, Note_on_c, 14, 57, 90
33, 550354, Note_on_c, 14, 54, 0
33, 550374, Note_on_c, 14, 57, 0
33, 550393, Note_on_c, 14, 57, 89
33, 550396, Note_on_c, 14, 54, 80
33, 550423, Note_on_c, 14, 57, 0
33, 550426, Note_on_c, 14, 54, 0
33, 550570, Note_on_c, 14, 57, 80
33, 550573, Note_on_c, 14, 54, 81
33, 550602, Note_on_c, 14, 57, 0
33, 550609, Note_on_c, 14, 54, 0
33, 550621, Note_on_c, 14, 57, 98
33, 550628, Note_on_c, 14, 54, 94
33, 550681, Note_on_c, 14, 57, 0
33, 550688, Note_on_c, 14, 54, 0
33, 550800, Program_c, 14, 45
33, 550807, Note_on_c, 14, 58, 84
33, 550829, Note_on_c, 14, 55, 86
33, 550927, Note_on_c, 14, 58, 0
33, 550949, Note_on_c, 14, 55, 0
33, 551040, Program_c, 14, 48
33, 551165, Note_on_c, 14, 57, 92
33, 551169, Note_on_c, 14, 50, 86
33, 551218, Note_on_c, 14, 57, 0
33, 551222, Note_on_c, 14, 50, 0
33, 551540, Note_on_c, 14, 50, 95
33, 551546, Note_on_c, 14, 57, 96
33, 551593, Note_on_c, 14, 50, 0
33, 551599, Note_on_c, 14, 57, 0
33, 551766, Note_on_c, 14, 62, 84
33, 551767, Note_on_c, 14, 60, 83
33, 551838, Note_on_c, 14, 62, 0
33, 551839, Note_on_c, 14, 60, 0
33, 552121, Note_on_c, 14, 60, 95
33, 552126, Note_on_c, 14, 62, 82
33, 552193, Note_on_c, 14, 60, 0
33, 552198, Note_on_c, 14, 62, 0
33, 552495, Note_on_c, 14, 60, 95
33, 552495, Note_on_c, 14, 62, 84
33, 552548, Note_on_c, 14, 60, 0
33, 552548, Note_on_c, 14, 62, 0
33, 552616, Note_on_c, 14, 59, 80
33, 552625, Note_on_c, 14, 61, 89
33, 552669, Note_on_c, 14, 59, 0
33, 552678, Note_on_c, 14, 61, 0
33, 552731, Note_on_c, 14, 60, 88
33, 552741, Note_on_c, 14, 62, 87
33, 552784, Note_on_c, 14, 60, 0
33, 552794, Note_on_c, 14, 62, 0
33, 552965, Note_on_c, 14, 57, 81
33, 552967, Note_on_c, 14, 50, 88
33, 553018, Note_on_c, 14, 57, 0
33, 553020, Note_on_c, 14, 50, 0
33, 553206, Note_on_c, 14, 62, 96
33, 553211, Note_on_c, 14, 60, 90
33, 553278, Note_on_c, 14, 62, 0
33, 553283, Note_on_c, 14, 60, 0
33, 553568, Note_on_c, 14, 62, 84
33, 553570, Note_on_c, 14, 60, 94
33, 553640, Note_on_c, 14, 62, 0
33, 553642, Note_on_c, 14, 60, 0
33, 553923, Note_on_c, 14, 62, 88
33, 553944, Note_on_c, 14, 60, 98
33, 553976, Note_on_c, 14, 62, 0
33, 553997, Note_on_c, 14, 60, 0
33, 554047, Note_on_c, 14, 61, 88
33, 554058, Note_on_c, 14, 59, 88
33, 554100, Note_on_c, 14, 61, 0
33, 554111, Note_on_c, 14, 59, 0
33, 554175, Note_on_c, 14, 62, 98
33, 554180, Note_on_c, 14, 60, 84
33, 554228, Note_on_c, 14, 62, 0
33, 554233, Note_on_c, 14, 60, 0
33, 554415, Note_on_c, 14, 57, 78
33, 554425, Note_on_c, 14, 50, 90
33, 554522, Note_on_c, 14, 57, 0
33, 554532, Note_on_c, 14, 50, 0
33, 554761, Note_on_c, 14, 65, 94
33, 554785, Note_on_c, 14, 69, 98
33, 554904, Note_on_c, 14, 65, 0
33, 554928, Note_on_c, 14, 69, 0
33, 555006, Note_on_c, 14, 69, 91
33, 555012, Note_on_c, 14, 65, 95
33, 555149, Note_on_c, 14, 69, 0
33, 555155, Note_on_c, 14, 65, 0
33, 555256, Note_on_c, 14, 65, 104
33, 555256, Note_on_c, 14, 69, 97
33, 555309, Note_on_c, 14, 65, 0
33, 555309, Note_on_c, 14, 69, 0
33, 555360, Note_on_c, 14, 65, 94
33, 555372, Note_on_c, 14, 69, 103
33, 555413, Note_on_c, 14, 65, 0
33, 555425, Note_on_c, 14, 69, 0
33, 555483, Note_on_c, 14, 65, 92
33, 555484, Note_on_c, 14, 69, 91
33, 555536, Note_on_c, 14, 65, 0
33, 555537, Note_on_c, 14, 69, 0
33, 555739, Note_on_c, 14, 50, 98
33, 555747, Note_on_c, 14, 57, 94
33, 555792, Note_on_c, 14, 50, 0
33, 555800, Note_on_c, 14, 57, 0
33, 555980, Note_on_c, 14, 62, 78
33, 555986, Note_on_c, 14, 60, 89
33, 556033, Note_on_c, 14, 62, 0
33, 556039, Note_on_c, 14, 60, 0
33, 556215, Note_on_c, 14, 60, 80
33, 556224, Note_on_c, 14, 62, 93
33, 556322, Note_on_c, 14, 60, 0
33, 556331, Note_on_c, 14, 62, 0
33, 556569, Note_on_c, 14, 62, 90
33, 556589, Note_on_c, 14, 60, 93
33, 556622, Note_on_c, 14, 62, 0
33, 556642, Note_on_c, 14, 60, 0
33, 556682, Note_on_c, 14, 61, 84
33, 556703, Note_on_c, 14, 59, 79
33, 556735, Note_on_c, 14, 61, 0
33, 556756, Note_on_c, 14, 59, 0
33, 556816, Note_on_c, 14, 62, 98
33, 556825, Note_on_c, 14, 60, 97
33, 556869, Note_on_c, 14, 62, 0
33, 556878, Note_on_c, 14, 60, 0
33, 556921, Note_on_c, 14, 69, 94
33, 556933, Note_on_c, 14, 65, 106
33, 556993, Note_on_c, 14, 69, 0
33, 557005, Note_on_c, 14, 65, 0
33, 557048, Note_on_c, 14, 69, 108
33, 557064, Note_on_c, 14, 65, 110
33, 557120, Note_on_c, 14, 69, 0
33, 557136, Note_on_c, 14, 65, 0
33, 557168, Note_on_c, 14, 65, 102
33, 557169, Note_on_c, 14, 69, 106
33, 557240, Note_on_c, 14, 65, 0
33, 557241, Note_on_c, 14, 69, 0
33, 557401, Note_on_c, 14, 69, 103
33, 557424, Note_on_c, 14, 65, 94
33, 557448, Note_on_c, 14, 69, 0
33, 557471, Note_on_c, 14, 65, 0
33, 557521, Note_on_c, 14, 60, 103
33, 557533, Note_on_c, 14, 62, 104
33, 557664, Note_on_c, 14, 60, 0
33, 557676, Note_on_c, 14, 62, 0
33, 557762, Note_on_c, 14, 62, 110
33, 557788, Note_on_c, 14, 60, 97
33, 557905, Note_on_c, 14, 62, 0
33, 557931, Note_on_c, 14, 60, 0
33, 558002, Note_on_c, 14, 60, 104
33, 558008, Note_on_c, 14, 62, 109
33, 558049, Note_on_c, 14, 60, 0
33, 558055, Note_on_c, 14, 62, 0
33, 558247, Note_on_c, 14, 50, 108
33, 558258, Note_on_c, 14, 57, 93
33, 558300, Note_on_c, 14, 50, 0
33, 558311, Note_on_c, 14, 57, 0
33, 558491, Note_on_c, 14, 60, 106
33, 558492, Note_on_c, 14, 62, 102
33, 558544, Note_on_c, 14, 60, 0
33, 558545, Note_on_c, 14, 62, 0
33, 558729, Note_on_c, 14, 62, 108
33, 558744, Note_on_c, 14, 60, 107
33, 558836, Note_on_c, 14, 62, 0
33, 558851, Note_on_c, 14, 60, 0
33, 559098, Note_on_c, 14, 62, 102
33, 559107, Note_on_c, 14, 60, 110
33, 559151, Note_on_c, 14, 62, 0
33, 559160, Note_on_c, 14, 60, 0
33, 559223, Note_on_c, 14, 61, 91
33, 559227, Note_on_c, 14, 59, 102
33, 559276, Note_on_c, 14, 61, 0
33, 559280, Note_on_c, 14, 59, 0
33, 559336, Note_on_c, 14, 62, 105
33, 559345, Note_on_c, 14, 60, 91
33, 559389, Note_on_c, 14, 62, 0
33, 559398, Note_on_c, 14, 60, 0
33, 559561, Note_on_c, 14, 50, 108
33, 559567, Note_on_c, 14, 57, 92
33, 559668, Note_on_c, 14, 50, 0
33, 559674, Note_on_c, 14, 57, 0
33, 559923, Note_on_c, 14, 60, 98
33, 559944, Note_on_c, 14, 62, 104
33, 559976, Note_on_c, 14, 60, 0
33, 559997, Note_on_c, 14, 62, 0
33, 560168, Note_on_c, 14, 62, 98
33, 560175, Note_on_c, 14, 60, 93
33, 560275, Note_on_c, 14, 62, 0
33, 560282, Note_on_c, 14, 60, 0
33, 560525, Note_on_c, 14, 60, 110
33, 560526, Note_on_c, 14, 62, 95
33, 560578, Note_on_c, 14, 60, 0
33, 560579, Note_on_c, 14, 62, 0
33, 560646, Note_on_c, 14, 61, 101
33, 560653, Note_on_c, 14, 59, 94
33, 560699, Note_on_c, 14, 61, 0
33, 560706, Note_on_c, 14, 59, 0
33, 560763, Note_on_c, 14, 62, 94
33, 560767, Note_on_c, 14, 60, 96
33, 560816, Note_on_c, 14, 62, 0
33, 560820, Note_on_c, 14, 60, 0
33, 561006, Note_on_c, 14, 62, 93
33, 561028, Note_on_c, 14, 60, 97
33, 561059, Note_on_c, 14, 62, 0
33, 561081, Note_on_c, 14, 60, 0
33, 561245, Note_on_c, 14, 62, 108
33, 561263, Note_on_c, 14, 60, 95
33, 561298, Note_on_c, 14, 62, 0
33, 561316, Note_on_c, 14, 60, 0
33, 561362, Note_on_c, 14, 59, 95
33, 561383, Note_on_c, 14, 61, 107
33, 561415, Note_on_c, 14, 59, 0
33, 561436, Note_on_c, 14, 61, 0
33, 561488, Note_on_c, 14, 60, 110
33, 561506, Note_on_c, 14, 62, 109
33, 561541, Note_on_c, 14, 60, 0
33, 561559, Note_on_c, 14, 62, 0
33, 561726, Note_on_c, 14, 60, 102
33, 561729, Note_on_c, 14, 62, 100
33, 561833, Note_on_c, 14, 60, 0
33, 561836, Note_on_c, 14, 62, 0
33, 562089, Note_on_c, 14, 62, 110
33, 562106, Note_on_c, 14, 60, 91
33, 562142, Note_on_c, 14, 62, 0
33, 562159, Note_on_c, 14, 60, 0
33, 562321, Note_on_c, 14, 62, 91
33, 562341, Note_on_c, 14, 60, 98
33, 562428, Note_on_c, 14, 62, 0
33, 562448, Note_on_c, 14, 60, 0
33, 562693, Note_on_c, 14, 60, 97
33, 562707, Note_on_c, 14, 62, 96
33, 562746, Note_on_c, 14, 60, 0
33, 562760, Note_on_c, 14, 62, 0
33, 562803, Note_on_c, 14, 59, 99
33, 562827, Note_on_c, 14, 61, 108
33, 562856, Note_on_c, 14, 59, 0
33, 562880, Note_on_c, 14, 61, 0
33, 562930, Note_on_c, 14, 62, 102
33, 562942, Note_on_c, 14, 60, 110
33, 562983, Note_on_c, 14, 62, 0
33, 562995, Note_on_c, 14, 60, 0
33, 563524, Note_on_c, 14, 62, 109
33, 563532, Note_on_c, 14, 53, 103
33, 563547, Note_on_c, 14, 46, 97
33, 563577, Note_on_c, 14, 62, 0
33, 563585, Note_on_c, 14, 53, 0
33, 563600, Note_on_c, 14, 46, 0
33, 564267, Note_on_c, 14, 47, 102
33, 564304, Note_on_c, 14, 48, 94
33, 564327, Note_on_c, 14, 47, 0
33, 564364, Note_on_c, 14, 48, 0
33, 564364, Note_on_c, 14, 49, 98
33, 564366, Note_on_c, 14, 53, 104
33, 564372, Note_on_c, 14, 62, 103
33, 564376, Note_on_c, 14, 46, 100
33, 564424, Note_on_c, 14, 49, 0
33, 564445, Note_on_c, 14, 50, 96
33, 564486, Note_on_c, 14, 53, 0
33, 564492, Note_on_c, 14, 62, 0
33, 564495, Note_on_c, 14, 51, 87
33, 564496, Note_on_c, 14, 46, 0
33, 564505, Note_on_c, 14, 50, 0
33, 564731, Note_on_c, 14, 40, 82
33, 564735, Note_on_c, 14, 51, 0
33, 564838, Note_on_c, 14, 40, 0
33, 564964, Note_on_c, 14, 46, 88
33, 565204, Note_on_c, 14, 46, 0
33, 566666, Note_on_c, 14, 47, 79
33, 566725, Note_on_c, 14, 48, 89
33, 566726, Note_on_c, 14, 47, 0
33, 566761, Note_on_c, 14, 49, 81
33, 566785, Note_on_c, 14, 48, 0
33, 566821, Note_on_c, 14, 49, 0
33, 566833, Note_on_c, 14, 50, 80
33, 566884, Note_on_c, 14, 51, 92
33, 566893, Note_on_c, 14, 50, 0
33, 567124, Note_on_c, 14, 51, 0
33, 567145, Note_on_c, 14, 40, 91
33, 567252, Note_on_c, 14, 40, 0
33, 567371, Note_on_c, 14, 46, 84
33, 567611, Note_on_c, 14, 46, 0
33, 568106, Note_on_c, 14, 47, 96
33, 568140, Note_on_c, 14, 48, 98
33, 568166, Note_on_c, 14, 47, 0
33, 568200, Note_on_c, 14, 48, 0
33, 568223, Note_on_c, 14, 49, 95
33, 568275, Note_on_c, 14, 50, 79
33, 568283, Note_on_c, 14, 49, 0
33, 568332, Note_on_c, 14, 51, 79
33, 568335, Note_on_c, 14, 50, 0
33, 568572, Note_on_c, 14, 51, 0
33, 568578, Note_on_c, 14, 40, 93
33, 568685, Note_on_c, 14, 40, 0
33, 568805, Note_on_c, 14, 46, 94
33, 569045, Note_on_c, 14, 46, 0
33, 570505, Note_on_c, 14, 47, 96
33, 570545, Note_on_c, 14, 48, 81
33, 570565, Note_on_c, 14, 47, 0
33, 570605, Note_on_c, 14, 48, 0
33, 570623, Note_on_c, 14, 49, 85
33, 570683, Note_on_c, 14, 49, 0
33, 570688, Note_on_c, 14, 50, 92
33, 570731, Note_on_c, 14, 51, 85
33, 570748, Note_on_c, 14, 50, 0
33, 570971, Note_on_c, 14, 51, 0
33, 570972, Note_on_c, 14, 40, 82
33, 571079, Note_on_c, 14, 40, 0
33, 571200, Note_on_c, 14, 46, 86
33, 571440, Note_on_c, 14, 46, 0
33, 571923, Note_on_c, 14, 47, 79
33, 571983, Note_on_c, 14, 47, 0
33, 571989, Note_on_c, 14, 48, 95
33, 572049, Note_on_c, 14, 48, 0
33, 572057, Note_on_c, 14, 49, 96
33, 572117, Note_on_c, 14, 49, 0
33, 572118, Note_on_c, 14, 50, 84
33, 572178, Note_on_c, 14, 50, 0
33, 572183, Note_on_c, 14, 51, 96
33, 572412, Note_on_c, 14, 40, 90
33, 572423, Note_on_c, 14, 51, 0
33, 572519, Note_on_c, 14, 40, 0
33, 572644, Note_on_c, 14, 46, 79
33, 572884, Note_on_c, 14, 46, 0
33, 574334, Note_on_c, 14, 47, 90
33, 574391, Note_on_c, 14, 48, 96
33, 574394, Note_on_c, 14, 47, 0
33, 574449, Note_on_c, 14, 49, 84
33, 574451, Note_on_c, 14, 48, 0
33, 574509, Note_on_c, 14, 49, 0
33, 574521, Note_on_c, 14, 50, 98
33, 574580, Note_on_c, 14, 51, 88
33, 574581, Note_on_c, 14, 50, 0
33, 574820, Note_on_c, 14, 51, 0
33, 574822, Note_on_c, 14, 40, 78
33, 574929, Note_on_c, 14, 40, 0
33, 575057, Note_on_c, 14, 46, 87
33, 575297, Note_on_c, 14, 46, 0
33, 576242, Note_on_c, 14, 47, 98
33, 576302, Note_on_c, 14, 47, 0
33, 576318, Note_on_c, 14, 48, 95
33, 576378, Note_on_c, 14, 48, 0
33, 576384, Note_on_c, 14, 49, 90
33, 576428, Note_on_c, 14, 50, 94
33, 576444, Note_on_c, 14, 49, 0
33, 576487, Note_on_c, 14, 51, 87
33, 576488, Note_on_c, 14, 50, 0
33, 576720, Note_on_c, 14, 40, 89
33, 576727, Note_on_c, 14, 51, 0
33, 576827, Note_on_c, 14, 40, 0
33, 576984, Note_on_c, 14, 46, 98
33, 577224, Note_on_c, 14, 46, 0
33, 578656, Note_on_c, 14, 47, 87
33, 578711, Note_on_c, 14, 48, 78
33, 578716, Note_on_c, 14, 47, 0
33, 578771, Note_on_c, 14, 48, 0
33, 578786, Note_on_c, 14, 49, 84
33, 578841, Note_on_c, 14, 50, 97
33, 578846, Note_on_c, 14, 49, 0
33, 578882, Note_on_c, 14, 51, 84
33, 578901, Note_on_c, 14, 50, 0
33, 579120, Note_on_c, 14, 40, 84
33, 579122, Note_on_c, 14, 51, 0
33, 579227, Note_on_c, 14, 40, 0
33, 579376, Note_on_c, 14, 46, 83
33, 579616, Note_on_c, 14, 46, 0
33, 580100, Note_on_c, 14, 60, 106
33, 580207, Note_on_c, 14, 60, 0
33, 581066, Note_on_c, 14, 47, 108
33, 581126, Note_on_c, 14, 47, 0
33, 581128, Note_on_c, 14, 48, 96
33, 581180, Note_on_c, 14, 49, 104
33, 581188, Note_on_c, 14, 48, 0
33, 581236, Note_on_c, 14, 50, 108
33, 581240, Note_on_c, 14, 49, 0
33, 581296, Note_on_c, 14, 50, 0
33, 581301, Note_on_c, 14, 51, 95
33, 581535, Note_on_c, 14, 40, 109
33, 581541, Note_on_c, 14, 51, 0
33, 581642, Note_on_c, 14, 40, 0
33, 581784, Note_on_c, 14, 46, 99
33, 582024, Note_on_c, 14, 46, 0
33, 582981, Note_on_c, 14, 47, 109
33, 583041, Note_on_c, 14, 47, 0
33, 583041, Note_on_c, 14, 48, 102
33, 583101, Note_on_c, 14, 48, 0
33, 583103, Note_on_c, 14, 49, 104
33, 583163, Note_on_c, 14, 49, 0
33, 583165, Note_on_c, 14, 50, 110
33, 583214, Note_on_c, 14, 51, 103
33, 583225, Note_on_c, 14, 50, 0
33, 583442, Note_on_c, 14, 40, 105
33, 583454, Note_on_c, 14, 51, 0
33, 583549, Note_on_c, 14, 40, 0
33, 583691, Note_on_c, 14, 46, 107
33, 583931, Note_on_c, 14, 46, 0
33, 584887, Note_on_c, 14, 47, 104
33, 584944, Note_on_c, 14, 48, 106
33, 584947, Note_on_c, 14, 47, 0
33, 585004, Note_on_c, 14, 48, 0
33, 585004, Note_on_c, 14, 49, 105
33, 585064, Note_on_c, 14, 49, 0
33, 585082, Note_on_c, 14, 50, 102
33, 585137, Note_on_c, 14, 51, 95
33, 585142, Note_on_c, 14, 50, 0
33, 585366, Note_on_c, 14, 40, 105
33, 585377, Note_on_c, 14, 51, 0
33, 585473, Note_on_c, 14, 40, 0
33, 585602, Note_on_c, 14, 46, 110
33, 585842, Note_on_c, 14, 46, 0
33, 586107, Note_on_c, 14, 46, 104
33, 586347, Note_on_c, 14, 46, 0
33, 586808, Note_on_c, 14, 47, 103
33, 586862, Note_on_c, 14, 48, 106
33, 586868, Note_on_c, 14, 47, 0
33, 586921, Note_on_c, 14, 49, 97
33, 586922, Note_on_c, 14, 48, 0
33, 586981, Note_on_c, 14, 49, 0
33, 586990, Note_on_c, 14, 50, 99
33, 587050, Note_on_c, 14, 50, 0
33, 587063, Note_on_c, 14, 51, 106
33, 587298, Note_on_c, 14, 40, 93
33, 587303, Note_on_c, 14, 51, 0
33, 587405, Note_on_c, 14, 40, 0
33, 587540, Note_on_c, 14, 46, 96
33, 587780, Note_on_c, 14, 46, 0
33, 588256, Note_on_c, 14, 47, 107
33, 588301, Note_on_c, 14, 48, 97
33, 588316, Note_on_c, 14, 47, 0
33, 588361, Note_on_c, 14, 48, 0
33, 588366, Note_on_c, 14, 49, 93
33, 588426, Note_on_c, 14, 49, 0
33, 588437, Note_on_c, 14, 50, 110
33, 588490, Note_on_c, 14, 51, 99
33, 588497, Note_on_c, 14, 50, 0
33, 588730, Note_on_c, 14, 51, 0
33, 588732, Note_on_c, 14, 40, 98
33, 588839, Note_on_c, 14, 40, 0
33, 588960, Note_on_c, 14, 46, 111
33, 589200, Note_on_c, 14, 46, 0
33, 590642, Note_on_c, 14, 47, 108
33, 590702, Note_on_c, 14, 47, 0
33, 590717, Note_on_c, 14, 48, 104
33, 590777, Note_on_c, 14, 48, 0
33, 590781, Note_on_c, 14, 49, 96
33, 590841, Note_on_c, 14, 49, 0
33, 590845, Note_on_c, 14, 50, 111
33, 590905, Note_on_c, 14, 50, 0
33, 590906, Note_on_c, 14, 51, 99
33, 591134, Note_on_c, 14, 40, 110
33, 591146, Note_on_c, 14, 51, 0
33, 591241, Note_on_c, 14, 40, 0
33, 591378, Note_on_c, 14, 46, 103
33, 591618, Note_on_c, 14, 46, 0
33, 592103, Note_on_c, 14, 47, 95
33, 592142, Note_on_c, 14, 48, 100
33, 592163, Note_on_c, 14, 47, 0
33, 592202, Note_on_c, 14, 48, 0
33, 592206, Note_on_c, 14, 49, 92
33, 592266, Note_on_c, 14, 49, 0
33, 592268, Note_on_c, 14, 50, 100
33, 592320, Note_on_c, 14, 51, 93
33, 592328, Note_on_c, 14, 50, 0
33, 592560, Note_on_c, 14, 51, 0
33, 592562, Note_on_c, 14, 40, 106
33, 592669, Note_on_c, 14, 40, 0
33, 592800, Note_on_c, 14, 46, 93
33, 593040, Note_on_c, 14, 46, 0
33, 593529, Note_on_c, 14, 47, 94
33, 593589, Note_on_c, 14, 47, 0
33, 593590, Note_on_c, 14, 48, 98
33, 593650, Note_on_c, 14, 48, 0
33, 593650, Note_on_c, 14, 49, 107
33, 593710, Note_on_c, 14, 49, 0
33, 593728, Note_on_c, 14, 50, 96
33, 593782, Note_on_c, 14, 51, 106
33, 593788, Note_on_c, 14, 50, 0
33, 594005, Note_on_c, 14, 40, 109
33, 594022, Note_on_c, 14, 51, 0
33, 594112, Note_on_c, 14, 40, 0
33, 594264, Note_on_c, 14, 46, 100
33, 594504, Note_on_c, 14, 46, 0
33, 595946, Note_on_c, 14, 47, 95
33, 595982, Note_on_c, 14, 48, 100
33, 596006, Note_on_c, 14, 47, 0
33, 596042, Note_on_c, 14, 48, 0
33, 596042, Note_on_c, 14, 49, 97
33, 596102, Note_on_c, 14, 49, 0
33, 596102, Note_on_c, 14, 50, 97
33, 596161, Note_on_c, 14, 51, 96
33, 596162, Note_on_c, 14, 50, 0
33, 596401, Note_on_c, 14, 51, 0
33, 596405, Note_on_c, 14, 40, 96
33, 596512, Note_on_c, 14, 40, 0
33, 596645, Note_on_c, 14, 46, 108
33, 596885, Note_on_c, 14, 46, 0
33, 597845, Note_on_c, 14, 47, 107
33, 597901, Note_on_c, 14, 48, 96
33, 597905, Note_on_c, 14, 47, 0
33, 597961, Note_on_c, 14, 48, 0
33, 597985, Note_on_c, 14, 49, 105
33, 598020, Note_on_c, 14, 50, 98
33, 598045, Note_on_c, 14, 49, 0
33, 598080, Note_on_c, 14, 50, 0
33, 598090, Note_on_c, 14, 51, 107
33, 598322, Note_on_c, 14, 40, 98
33, 598330, Note_on_c, 14, 51, 0
33, 598429, Note_on_c, 14, 40, 0
33, 598574, Note_on_c, 14, 46, 101
33, 598814, Note_on_c, 14, 46, 0
33, 600258, Note_on_c, 14, 47, 106
33, 600306, Note_on_c, 14, 48, 97
33, 600318, Note_on_c, 14, 47, 0
33, 600366, Note_on_c, 14, 48, 0
33, 600388, Note_on_c, 14, 49, 110
33, 600444, Note_on_c, 14, 50, 102
33, 600448, Note_on_c, 14, 49, 0
33, 600485, Note_on_c, 14, 51, 93
33, 600504, Note_on_c, 14, 50, 0
33, 600725, Note_on_c, 14, 51, 0
33, 600735, Note_on_c, 14, 40, 101
33, 600842, Note_on_c, 14, 40, 0
33, 600965, Note_on_c, 14, 46, 104
33, 601205, Note_on_c, 14, 46, 0
33, 601451, Note_on_c, 14, 45, 94
33, 601452, Note_on_c, 14, 59, 104
33, 601459, Note_on_c, 14, 54, 103
33, 601571, Note_on_c, 14, 45, 0
33, 601572, Note_on_c, 14, 59, 0
33, 601579, Note_on_c, 14, 54, 0
33, 601695, Note_on_c, 14, 61, 101
33, 601815, Note_on_c, 14, 61, 0
33, 602166, Note_on_c, 14, 61, 111
33, 602219, Note_on_c, 14, 61, 0
33, 602410, Note_on_c, 14, 61, 110
33, 602463, Note_on_c, 14, 61, 0
33, 602773, Note_on_c, 14, 61, 119
33, 602826, Note_on_c, 14, 61, 0
33, 603145, Note_on_c, 14, 64, 115
33, 603198, Note_on_c, 14, 64, 0
33, 603260, Note_on_c, 14, 60, 116
33, 603313, Note_on_c, 14, 60, 0
33, 603371, Note_on_c, 14, 60, 101
33, 603424, Note_on_c, 14, 60, 0
33, 603607, Note_on_c, 14, 61, 115
33, 603660, Note_on_c, 14, 61, 0
33, 603843, Note_on_c, 14, 64, 117
33, 603896, Note_on_c, 14, 64, 0
33, 603984, Note_on_c, 14, 60, 109
33, 604037, Note_on_c, 14, 60, 0
33, 604096, Note_on_c, 14, 60, 102
33, 604149, Note_on_c, 14, 60, 0
33, 604447, Note_on_c, 14, 47, 105
33, 604507, Note_on_c, 14, 47, 0
33, 604513, Note_on_c, 14, 48, 107
33, 604573, Note_on_c, 14, 48, 0
33, 604588, Note_on_c, 14, 49, 105
33, 604643, Note_on_c, 14, 50, 110
33, 604648, Note_on_c, 14, 49, 0
33, 604687, Note_on_c, 14, 51, 107
33, 604703, Note_on_c, 14, 50, 0
33, 604927, Note_on_c, 14, 51, 0
33, 606853, Note_on_c, 14, 47, 110
33, 606913, Note_on_c, 14, 47, 0
33, 606915, Note_on_c, 14, 48, 102
33, 606970, Note_on_c, 14, 49, 108
33, 606975, Note_on_c, 14, 48, 0
33, 607029, Note_on_c, 14, 50, 105
33, 607030, Note_on_c, 14, 49, 0
33, 607089, Note_on_c, 14, 50, 0
33, 607104, Note_on_c, 14, 51, 91
33, 607344, Note_on_c, 14, 51, 0
33, 609264, Note_on_c, 14, 47, 105
33, 609309, Note_on_c, 14, 48, 101
33, 609324, Note_on_c, 14, 47, 0
33, 609364, Note_on_c, 14, 49, 107
33, 609369, Note_on_c, 14, 48, 0
33, 609424, Note_on_c, 14, 49, 0
33, 609442, Note_on_c, 14, 50, 101
33, 609502, Note_on_c, 14, 50, 0
33, 609504, Note_on_c, 14, 51, 103
33, 609744, Note_on_c, 14, 51, 0
33, 611660, Note_on_c, 14, 47, 94
33, 611703, Note_on_c, 14, 48, 93
33, 611720, Note_on_c, 14, 47, 0
33, 611763, Note_on_c, 14, 48, 0
33, 611776, Note_on_c, 14, 49, 102
33, 611836, Note_on_c, 14, 49, 0
33, 611841, Note_on_c, 14, 50, 93
33, 611888, Note_on_c, 14, 51, 105
33, 611901, Note_on_c, 14, 50, 0
33, 612128, Note_on_c, 14, 51, 0
33, 614057, Note_on_c, 14, 47, 105
33, 614115, Note_on_c, 14, 48, 107
33, 614117, Note_on_c, 14, 47, 0
33, 614175, Note_on_c, 14, 48, 0
33, 614183, Note_on_c, 14, 49, 108
33, 614234, Note_on_c, 14, 50, 97
33, 614243, Note_on_c, 14, 49, 0
33, 614294, Note_on_c, 14, 50, 0
33, 614304, Note_on_c, 14, 51, 101
33, 614544, Note_on_c, 14, 51, 0
33, 616440, Note_on_c, 14, 47, 96
33, 616500, Note_on_c, 14, 47, 0
33, 616517, Note_on_c, 14, 48, 108
33, 616576, Note_on_c, 14, 49, 105
33, 616577, Note_on_c, 14, 48, 0
33, 616636, Note_on_c, 14, 49, 0
33, 616636, Note_on_c, 14, 50, 107
33, 616696, Note_on_c, 14, 50, 0
33, 616708, Note_on_c, 14, 51, 105
33, 616828, Note_on_c, 14, 51, 0
33, 616933, Note_on_c, 14, 62, 105
33, 617053, Note_on_c, 14, 62, 0
33, 617177, Note_on_c, 14, 64, 95
33, 617417, Note_on_c, 14, 64, 0
33, 617650, Note_on_c, 14, 66, 107
33, 617890, Note_on_c, 14, 66, 0
33, 618143, Note_on_c, 14, 67, 92
33, 618383, Note_on_c, 14, 67, 0
33, 618841, Note_on_c, 14, 47, 109
33, 618901, Note_on_c, 14, 47, 0
33, 618912, Note_on_c, 14, 48, 94
33, 618972, Note_on_c, 14, 48, 0
33, 618987, Note_on_c, 14, 49, 100
33, 619044, Note_on_c, 14, 50, 102
33, 619047, Note_on_c, 14, 49, 0
33, 619092, Note_on_c, 14, 51, 102
33, 619104, Note_on_c, 14, 50, 0
33, 619332, Note_on_c, 14, 51, 0
33, 619576, Note_on_c, 14, 65, 98
33, 619696, Note_on_c, 14, 65, 0
33, 619826, Note_on_c, 14, 63, 103
33, 619946, Note_on_c, 14, 63, 0
33, 620066, Note_on_c, 14, 61, 93
33, 620186, Note_on_c, 14, 61, 0
33, 620303, Note_on_c, 14, 65, 109
33, 620423, Note_on_c, 14, 65, 0
33, 620522, Note_on_c, 14, 67, 108
33, 620762, Note_on_c, 14, 67, 0
33, 621263, Note_on_c, 14, 47, 92
33, 621320, Note_on_c, 14, 48, 95
33, 621323, Note_on_c, 14, 47, 0
33, 621361, Note_on_c, 14, 49, 92
33, 621380, Note_on_c, 14, 48, 0
33, 621421, Note_on_c, 14, 49, 0
33, 621441, Note_on_c, 14, 50, 109
33, 621499, Note_on_c, 14, 51, 95
33, 621501, Note_on_c, 14, 50, 0
33, 621739, Note_on_c, 14, 51, 0
33, 621973, Note_on_c, 14, 67, 106
33, 622213, Note_on_c, 14, 67, 0
33, 622452, Note_on_c, 14, 65, 100
33, 622572, Note_on_c, 14, 65, 0
33, 622705, Note_on_c, 14, 63, 94
33, 622825, Note_on_c, 14, 63, 0
33, 622928, Note_on_c, 14, 61, 109
33, 623048, Note_on_c, 14, 61, 0
33, 623187, Note_on_c, 14, 65, 97
33, 623307, Note_on_c, 14, 65, 0
33, 623407, Note_on_c, 14, 67, 94
33, 623422, Note_on_c, 14, 67, 0
33, 623642, Note_on_c, 14, 47, 91
33, 623702, Note_on_c, 14, 47, 0
33, 623723, Note_on_c, 14, 48, 95
33, 623775, Note_on_c, 14, 49, 92
33, 623783, Note_on_c, 14, 48, 0
33, 623830, Note_on_c, 14, 50, 95
33, 623835, Note_on_c, 14, 49, 0
33, 623890, Note_on_c, 14, 50, 0
33, 623891, Note_on_c, 14, 51, 93
33, 624131, Note_on_c, 14, 51, 0
33, 624367, Note_on_c, 14, 65, 107
33, 624487, Note_on_c, 14, 65, 0
33, 624608, Note_on_c, 14, 63, 105
33, 624728, Note_on_c, 14, 63, 0
33, 624858, Note_on_c, 14, 61, 105
33, 624978, Note_on_c, 14, 61, 0
33, 625086, Note_on_c, 14, 65, 92
33, 625206, Note_on_c, 14, 65, 0
33, 625320, Note_on_c, 14, 67, 96
33, 625560, Note_on_c, 14, 67, 0
33, 625566, Note_on_c, 14, 47, 110
33, 625626, Note_on_c, 14, 47, 0
33, 625637, Note_on_c, 14, 48, 110
33, 625689, Note_on_c, 14, 49, 95
33, 625697, Note_on_c, 14, 48, 0
33, 625749, Note_on_c, 14, 49, 0
33, 625750, Note_on_c, 14, 50, 107
33, 625810, Note_on_c, 14, 50, 0
33, 625810, Note_on_c, 14, 51, 99
33, 626050, Note_on_c, 14, 51, 0
33, 626785, Note_on_c, 14, 65, 111
33, 626905, Note_on_c, 14, 65, 0
33, 627020, Note_on_c, 14, 63, 99
33, 627140, Note_on_c, 14, 63, 0
33, 627250, Note_on_c, 14, 61, 102
33, 627370, Note_on_c, 14, 61, 0
33, 627496, Note_on_c, 14, 65, 99
33, 627616, Note_on_c, 14, 65, 0
33, 627730, Note_on_c, 14, 45, 124
33, 627731, Note_on_c, 14, 61, 109
33, 627733, Note_on_c, 14, 55, 120
33, 627850, Note_on_c, 14, 45, 0
33, 627851, Note_on_c, 14, 61, 0
33, 627853, Note_on_c, 14, 55, 0
33, 628324, Note_on_c, 14, 36, 114
33, 628384, Note_on_c, 14, 36, 0
33, 628448, Note_on_c, 14, 47, 111
33, 628459, Note_on_c, 14, 50, 105
33, 628508, Note_on_c, 14, 47, 0
33, 628519, Note_on_c, 14, 50, 0
33, 628577, Note_on_c, 14, 50, 107
33, 628584, Note_on_c, 14, 48, 110
33, 628637, Note_on_c, 14, 50, 0
33, 628644, Note_on_c, 14, 48, 0
33, 628681, Note_on_c, 14, 49, 109
33, 628699, Note_on_c, 14, 45, 113
33, 628741, Note_on_c, 14, 49, 0
33, 628759, Note_on_c, 14, 45, 0
33, 629047, Note_on_c, 14, 36, 116
33, 629107, Note_on_c, 14, 36, 0
33, 629164, Note_on_c, 14, 50, 107
33, 629167, Note_on_c, 14, 47, 121
33, 629224, Note_on_c, 14, 50, 0
33, 629227, Note_on_c, 14, 47, 0
33, 629295, Note_on_c, 14, 50, 107
33, 629308, Note_on_c, 14, 48, 115
33, 629355, Note_on_c, 14, 50, 0
33, 629368, Note_on_c, 14, 48, 0
33, 629403, Note_on_c, 14, 45, 110
33, 629420, Note_on_c, 14, 49, 104
33, 629463, Note_on_c, 14, 45, 0
33, 629480, Note_on_c, 14, 49, 0
33, 630134, Note_on_c, 14, 36, 108
33, 630194, Note_on_c, 14, 36, 0
33, 630241, Note_on_c, 14, 47, 118
33, 630261, Note_on_c, 14, 50, 106
33, 630301, Note_on_c, 14, 47, 0
33, 630321, Note_on_c, 14, 50, 0
33, 630362, Note_on_c, 14, 48, 112
33, 630380, Note_on_c, 14, 50, 107
33, 630422, Note_on_c, 14, 48, 0
33, 630440, Note_on_c, 14, 50, 0
33, 630482, Note_on_c, 14, 45, 120
33, 630505, Note_on_c, 14, 49, 118
33, 630542, Note_on_c, 14, 45, 0
33, 630565, Note_on_c, 14, 49, 0
33, 631228, Note_on_c, 14, 36, 114
33, 631288, Note_on_c, 14, 36, 0
33, 631341, Note_on_c, 14, 50, 105
33, 631348, Note_on_c, 14, 47, 108
33, 631401, Note_on_c, 14, 50, 0
33, 631408, Note_on_c, 14, 47, 0
33, 631462, Note_on_c, 14, 48, 113
33, 631466, Note_on_c, 14, 50, 121
33, 631522, Note_on_c, 14, 48, 0
33, 631526, Note_on_c, 14, 50, 0
33, 631561, Note_on_c, 14, 45, 123
33, 631578, Note_on_c, 14, 49, 110
33, 631621, Note_on_c, 14, 45, 0
33, 631638, Note_on_c, 14, 49, 0
33, 631933, Note_on_c, 14, 36, 114
33, 631993, Note_on_c, 14, 36, 0
33, 632049, Note_on_c, 14, 50, 104
33, 632062, Note_on_c, 14, 47, 104
33, 632109, Note_on_c, 14, 50, 0
33, 632122, Note_on_c, 14, 47, 0
33, 632171, Note_on_c, 14, 50, 105
33, 632188, Note_on_c, 14, 48, 112
33, 632231, Note_on_c, 14, 50, 0
33, 632248, Note_on_c, 14, 48, 0
33, 632284, Note_on_c, 14, 45, 117
33, 632298, Note_on_c, 14, 49, 124
33, 632344, Note_on_c, 14, 45, 0
33, 632358, Note_on_c, 14, 49, 0
33, 632530, Note_on_c, 14, 48, 111
33, 632537, Note_on_c, 14, 36, 122
33, 632770, Note_on_c, 14, 48, 0
33, 632777, Note_on_c, 14, 36, 0
33, 632788, Note_on_c, 14, 45, 107
33, 632908, Note_on_c, 14, 45, 0
33, 633263, Note_on_c, 14, 36, 118
33, 633269, Note_on_c, 14, 48, 109
33, 633498, Note_on_c, 14, 45, 121
33, 633503, Note_on_c, 14, 36, 0
33, 633509, Note_on_c, 14, 48, 0
33, 633618, Note_on_c, 14, 45, 0
33, 633737, Note_on_c, 14, 56, 121
33, 633745, Note_on_c, 14, 58, 105
33, 633797, Note_on_c, 14, 56, 0
33, 633805, Note_on_c, 14, 58, 0
33, 633844, Note_on_c, 14, 55, 112
33, 633852, Note_on_c, 14, 57, 110
33, 633904, Note_on_c, 14, 55, 0
33, 633912, Note_on_c, 14, 57, 0
33, 633963, Note_on_c, 14, 57, 115
33, 633974, Note_on_c, 14, 56, 124
33, 634023, Note_on_c, 14, 57, 0
33, 634034, Note_on_c, 14, 56, 0
33, 636608, Note_on_c, 14, 56, 96
33, 636617, Note_on_c, 14, 58, 89
33, 636661, Note_on_c, 14, 56, 0
33, 636670, Note_on_c, 14, 58, 0
33, 636732, Note_on_c, 14, 55, 93
33, 636737, Note_on_c, 14, 57, 93
33, 636785, Note_on_c, 14, 55, 0
33, 636790, Note_on_c, 14, 57, 0
33, 636848, Note_on_c, 14, 56, 97
33, 636864, Note_on_c, 14, 58, 86
33, 636901, Note_on_c, 14, 56, 0
33, 636917, Note_on_c, 14, 58, 0
33, 637689, Note_on_c, 14, 58, 81
33, 637705, Note_on_c, 14, 56, 88
33, 637742, Note_on_c, 14, 58, 0
33, 637758, Note_on_c, 14, 56, 0
33, 637817, Note_on_c, 14, 57, 88
33, 637822, Note_on_c, 14, 55, 80
33, 637870, Note_on_c, 14, 57, 0
33, 637875, Note_on_c, 14, 55, 0
33, 637925, Note_on_c, 14, 56, 84
33, 637928, Note_on_c, 14, 58, 94
33, 637978, Note_on_c, 14, 56, 0
33, 637981, Note_on_c, 14, 58, 0
33, 638763, Note_on_c, 14, 56, 82
33, 638774, Note_on_c, 14, 58, 87
33, 638816, Note_on_c, 14, 56, 0
33, 638827, Note_on_c, 14, 58, 0
33, 638884, Note_on_c, 14, 57, 89
33, 638900, Note_on_c, 14, 55, 97
33, 638937, Note_on_c, 14, 57, 0
33, 638953, Note_on_c, 14, 55, 0
33, 639012, Note_on_c, 14, 58, 96
33, 639017, Note_on_c, 14, 56, 92
33, 639065, Note_on_c, 14, 58, 0
33, 639070, Note_on_c, 14, 56, 0
33, 639492, Note_on_c, 14, 58, 80
33, 639509, Note_on_c, 14, 56, 81
33, 639545, Note_on_c, 14, 58, 0
33, 639562, Note_on_c, 14, 56, 0
33, 639606, Note_on_c, 14, 55, 85
33, 639623, Note_on_c, 14, 57, 97
33, 639659, Note_on_c, 14, 55, 0
33, 639676, Note_on_c, 14, 57, 0
33, 639722, Note_on_c, 14, 56, 91
33, 639737, Note_on_c, 14, 58, 87
33, 639775, Note_on_c, 14, 56, 0
33, 639790, Note_on_c, 14, 58, 0
33, 639981, Note_on_c, 14, 61, 103
33, 640041, Note_on_c, 14, 61, 0
33, 640100, Note_on_c, 14, 65, 108
33, 640160, Note_on_c, 14, 65, 0
33, 640320, Note_on_c, 14, 58, 82
33, 640326, Note_on_c, 14, 42, 88
33, 640331, Note_on_c, 14, 49, 82
33, 640380, Note_on_c, 14, 58, 0
33, 640386, Note_on_c, 14, 42, 0
33, 640391, Note_on_c, 14, 49, 0
33, 641160, Note_on_c, 14, 58, 96
33, 641220, Note_on_c, 14, 58, 0
33, 641307, Note_on_c, 14, 61, 92
33, 641367, Note_on_c, 14, 61, 0
33, 641428, Note_on_c, 14, 65, 98
33, 641488, Note_on_c, 14, 65, 0
33, 641645, Note_on_c, 14, 58, 81
33, 641649, Note_on_c, 14, 49, 84
33, 641666, Note_on_c, 14, 42, 82
33, 641705, Note_on_c, 14, 58, 0
33, 641709, Note_on_c, 14, 49, 0
33, 641726, Note_on_c, 14, 42, 0
33, 645376, Note_on_c, 14, 61, 91
33, 645436, Note_on_c, 14, 61, 0
33, 645498, Note_on_c, 14, 65, 111
33, 645558, Note_on_c, 14, 65, 0
33, 645733, Note_on_c, 14, 49, 88
33, 645746, Note_on_c, 14, 42, 93
33, 645747, Note_on_c, 14, 58, 96
33, 645793, Note_on_c, 14, 49, 0
33, 645806, Note_on_c, 14, 42, 0
33, 645807, Note_on_c, 14, 58, 0
33, 646683, Note_on_c, 14, 61, 106
33, 646743, Note_on_c, 14, 61, 0
33, 646821, Note_on_c, 14, 65, 107
33, 646881, Note_on_c, 14, 65, 0
33, 647046, Note_on_c, 14, 42, 94
33, 647048, Note_on_c, 14, 49, 83
33, 647067, Note_on_c, 14, 58, 98
33, 647106, Note_on_c, 14, 42, 0
33, 647108, Note_on_c, 14, 49, 0
33, 647127, Note_on_c, 14, 58, 0
33, 647283, Note_on_c, 14, 58, 99
33, 647343, Note_on_c, 14, 58, 0
33, 647405, Note_on_c, 14, 61, 93
33, 647465, Note_on_c, 14, 61, 0
33, 647530, Note_on_c, 14, 65, 104
33, 647590, Note_on_c, 14, 65, 0
33, 647766, Note_on_c, 14, 42, 97
33, 647769, Note_on_c, 14, 49, 89
33, 647785, Note_on_c, 14, 58, 93
33, 647826, Note_on_c, 14, 42, 0
33, 647829, Note_on_c, 14, 49, 0
33, 647845, Note_on_c, 14, 58, 0
33, 648026, Note_on_c, 14, 61, 92
33, 648086, Note_on_c, 14, 61, 0
33, 648134, Note_on_c, 14, 65, 104
33, 648194, Note_on_c, 14, 65, 0
33, 648371, Note_on_c, 14, 73, 106
33, 648431, Note_on_c, 14, 73, 0
33, 648619, Note_on_c, 14, 58, 85
33, 648620, Note_on_c, 14, 49, 96
33, 648620, Note_on_c, 14, 42, 98
33, 648679, Note_on_c, 14, 58, 0
33, 648680, Note_on_c, 14, 49, 0
33, 648680, Note_on_c, 14, 42, 0
33, 648846, Note_on_c, 14, 58, 95
33, 648906, Note_on_c, 14, 58, 0
33, 648973, Note_on_c, 14, 61, 110
33, 649033, Note_on_c, 14, 61, 0
33, 649101, Note_on_c, 14, 65, 109
33, 649161, Note_on_c, 14, 65, 0
33, 649343, Note_on_c, 14, 73, 111
33, 649403, Note_on_c, 14, 73, 0
33, 649568, Note_on_c, 14, 49, 81
33, 649571, Note_on_c, 14, 42, 89
33, 649588, Note_on_c, 14, 58, 85
33, 649628, Note_on_c, 14, 49, 0
33, 649631, Note_on_c, 14, 42, 0
33, 649648, Note_on_c, 14, 58, 0
33, 649811, Note_on_c, 14, 61, 93
33, 649871, Note_on_c, 14, 61, 0
33, 649935, Note_on_c, 14, 65, 107
33, 649995, Note_on_c, 14, 65, 0
33, 650166, Note_on_c, 14, 58, 97
33, 650176, Note_on_c, 14, 42, 93
33, 650186, Note_on_c, 14, 49, 87
33, 650226, Note_on_c, 14, 58, 0
33, 650236, Note_on_c, 14, 42, 0
33, 650246, Note_on_c, 14, 49, 0
33, 650412, Note_on_c, 14, 58, 110
33, 650472, Note_on_c, 14, 58, 0
33, 650531, Note_on_c, 14, 61, 94
33, 650591, Note_on_c, 14, 61, 0
33, 650653, Note_on_c, 14, 65, 108
33, 650713, Note_on_c, 14, 65, 0
33, 650905, Note_on_c, 14, 73, 111
33, 650965, Note_on_c, 14, 73, 0
33, 651122, Note_on_c, 14, 58, 84
33, 651136, Note_on_c, 14, 42, 96
33, 651148, Note_on_c, 14, 49, 87
33, 651182, Note_on_c, 14, 58, 0
33, 651196, Note_on_c, 14, 42, 0
33, 651208, Note_on_c, 14, 49, 0
33, 651361, Note_on_c, 14, 58, 106
33, 651421, Note_on_c, 14, 58, 0
33, 651501, Note_on_c, 14, 61, 95
33, 651561, Note_on_c, 14, 61, 0
33, 651614, Note_on_c, 14, 65, 99
33, 651674, Note_on_c, 14, 65, 0
33, 651856, Note_on_c, 14, 73, 100
33, 651916, Note_on_c, 14, 73, 0
33, 652107, Note_on_c, 14, 58, 99
33, 652167, Note_on_c, 14, 58, 0
33, 652216, Note_on_c, 14, 61, 100
33, 652276, Note_on_c, 14, 61, 0
33, 652344, Note_on_c, 14, 65, 95
33, 652404, Note_on_c, 14, 65, 0
33, 652563, Note_on_c, 14, 73, 97
33, 652623, Note_on_c, 14, 73, 0
33, 652801, Note_on_c, 14, 58, 90
33, 652824, Note_on_c, 14, 42, 85
33, 652829, Note_on_c, 14, 49, 84
33, 652861, Note_on_c, 14, 58, 0
33, 652884, Note_on_c, 14, 42, 0
33, 652889, Note_on_c, 14, 49, 0
33, 653055, Note_on_c, 14, 58, 98
33, 653115, Note_on_c, 14, 58, 0
33, 653185, Note_on_c, 14, 61, 92
33, 653245, Note_on_c, 14, 61, 0
33, 653306, Note_on_c, 14, 65, 91
33, 653366, Note_on_c, 14, 65, 0
33, 653535, Note_on_c, 14, 73, 96
33, 653595, Note_on_c, 14, 73, 0
33, 653777, Note_on_c, 14, 58, 99
33, 653837, Note_on_c, 14, 58, 0
33, 653895, Note_on_c, 14, 61, 102
33, 653955, Note_on_c, 14, 61, 0
33, 654022, Note_on_c, 14, 65, 99
33, 654082, Note_on_c, 14, 65, 0
33, 654263, Note_on_c, 14, 73, 101
33, 654323, Note_on_c, 14, 73, 0
33, 654491, Note_on_c, 14, 58, 78
33, 654502, Note_on_c, 14, 49, 78
33, 654508, Note_on_c, 14, 42, 98
33, 654551, Note_on_c, 14, 58, 0
33, 654562, Note_on_c, 14, 49, 0
33, 654568, Note_on_c, 14, 42, 0
33, 654725, Note_on_c, 14, 58, 110
33, 654785, Note_on_c, 14, 58, 0
33, 654853, Note_on_c, 14, 61, 93
33, 654913, Note_on_c, 14, 61, 0
33, 654984, Note_on_c, 14, 65, 104
33, 655044, Note_on_c, 14, 65, 0
33, 655103, Note_on_c, 14, 73, 92
33, 655163, Note_on_c, 14, 73, 0
33, 655327, Note_on_c, 14, 53, 105
33, 655336, Note_on_c, 14, 61, 113
33, 655387, Note_on_c, 14, 53, 0
33, 655396, Note_on_c, 14, 61, 0
33, 658089, Note_on_c, 14, 50, 115
33, 658093, Note_on_c, 14, 38, 117
33, 658101, Note_on_c, 14, 56, 107
33, 658108, Note_on_c, 14, 45, 108
33, 658142, Note_on_c, 14, 50, 0
33, 658146, Note_on_c, 14, 38, 0
33, 658154, Note_on_c, 14, 56, 0
33, 658161, Note_on_c, 14, 45, 0
33, 658161, End_track
34, 0, Start_track
34, 0, Title_t, "Violoncelli II"
34, 0, MIDI_port, 0
34, 0, Program_c, 14, 48
34, 10570, Note_on_c, 14, 53, 72
34, 10572, Note_on_c, 14, 81, 74
34, 12732, Note_on_c, 14, 81, 0
34, 13450, Note_on_c, 14, 53, 0
34, 15360, Control_c, 14, 11, 127
34, 15370, Note_on_c, 14, 53, 83
34, 15370, Note_on_c, 14, 81, 73
34, 15375, Control_c, 14, 11, 126
34, 15390, Control_c, 14, 11, 125
34, 15405, Control_c, 14, 11, 124
34, 15420, Control_c, 14, 11, 123
34, 15435, Control_c, 14, 11, 122
34, 15450, Control_c, 14, 11, 121
34, 15465, Control_c, 14, 11, 120
34, 15481, Control_c, 14, 11, 119
34, 15496, Control_c, 14, 11, 118
34, 15511, Control_c, 14, 11, 117
34, 15526, Control_c, 14, 11, 116
34, 15541, Control_c, 14, 11, 115
34, 15556, Control_c, 14, 11, 114
34, 15572, Control_c, 14, 11, 113
34, 15587, Control_c, 14, 11, 112
34, 15602, Control_c, 14, 11, 111
34, 15617, Control_c, 14, 11, 110
34, 15632, Control_c, 14, 11, 109
34, 15647, Control_c, 14, 11, 108
34, 15663, Control_c, 14, 11, 107
34, 15678, Control_c, 14, 11, 106
34, 15693, Control_c, 14, 11, 105
34, 15708, Control_c, 14, 11, 104
34, 15723, Control_c, 14, 11, 103
34, 15738, Control_c, 14, 11, 102
34, 15754, Control_c, 14, 11, 101
34, 15769, Control_c, 14, 11, 100
34, 15784, Control_c, 14, 11, 99
34, 15799, Control_c, 14, 11, 98
34, 15814, Control_c, 14, 11, 97
34, 15829, Control_c, 14, 11, 96
34, 15845, Control_c, 14, 11, 95
34, 15860, Control_c, 14, 11, 94
34, 15875, Control_c, 14, 11, 93
34, 15890, Control_c, 14, 11, 92
34, 15905, Control_c, 14, 11, 91
34, 15920, Control_c, 14, 11, 90
34, 15936, Control_c, 14, 11, 89
34, 15951, Control_c, 14, 11, 88
34, 15966, Control_c, 14, 11, 87
34, 15981, Control_c, 14, 11, 86
34, 15996, Control_c, 14, 11, 85
34, 16011, Control_c, 14, 11, 84
34, 16027, Control_c, 14, 11, 83
34, 16042, Control_c, 14, 11, 82
34, 16057, Control_c, 14, 11, 81
34, 16072, Control_c, 14, 11, 80
34, 16087, Control_c, 14, 11, 79
34, 16102, Control_c, 14, 11, 78
34, 16117, Control_c, 14, 11, 77
34, 16132, Control_c, 14, 11, 76
34, 16148, Control_c, 14, 11, 75
34, 16163, Control_c, 14, 11, 74
34, 16178, Control_c, 14, 11, 73
34, 16193, Control_c, 14, 11, 72
34, 16208, Control_c, 14, 11, 71
34, 16223, Control_c, 14, 11, 70
34, 16239, Control_c, 14, 11, 69
34, 16254, Control_c, 14, 11, 68
34, 16269, Control_c, 14, 11, 67
34, 16284, Control_c, 14, 11, 66
34, 16299, Control_c, 14, 11, 65
34, 16314, Control_c, 14, 11, 64
34, 16330, Control_c, 14, 11, 63
34, 16345, Control_c, 14, 11, 62
34, 16360, Control_c, 14, 11, 61
34, 16375, Control_c, 14, 11, 60
34, 16390, Control_c, 14, 11, 59
34, 16405, Control_c, 14, 11, 58
34, 16421, Control_c, 14, 11, 57
34, 16436, Control_c, 14, 11, 56
34, 16451, Control_c, 14, 11, 55
34, 16466, Control_c, 14, 11, 54
34, 16481, Control_c, 14, 11, 53
34, 16496, Control_c, 14, 11, 52
34, 16512, Control_c, 14, 11, 51
34, 16527, Control_c, 14, 11, 50
34, 16542, Control_c, 14, 11, 49
34, 16557, Control_c, 14, 11, 48
34, 16572, Control_c, 14, 11, 47
34, 16587, Control_c, 14, 11, 46
34, 16603, Control_c, 14, 11, 45
34, 16618, Control_c, 14, 11, 44
34, 16633, Control_c, 14, 11, 43
34, 16648, Control_c, 14, 11, 42
34, 16663, Control_c, 14, 11, 41
34, 16678, Control_c, 14, 11, 40
34, 16694, Control_c, 14, 11, 39
34, 16709, Control_c, 14, 11, 38
34, 16724, Control_c, 14, 11, 37
34, 16739, Control_c, 14, 11, 36
34, 16754, Control_c, 14, 11, 35
34, 16769, Control_c, 14, 11, 34
34, 16785, Control_c, 14, 11, 33
34, 16810, Note_on_c, 14, 81, 0
34, 17050, Note_on_c, 14, 53, 0
34, 19680, Control_c, 14, 11, 127
34, 19693, Note_on_c, 14, 81, 79
34, 19694, Note_on_c, 14, 53, 77
34, 19702, Control_c, 14, 11, 126
34, 19725, Control_c, 14, 11, 125
34, 19748, Control_c, 14, 11, 124
34, 19771, Control_c, 14, 11, 123
34, 19794, Control_c, 14, 11, 122
34, 19817, Control_c, 14, 11, 121
34, 19839, Control_c, 14, 11, 120
34, 19862, Control_c, 14, 11, 119
34, 19885, Control_c, 14, 11, 118
34, 19908, Control_c, 14, 11, 117
34, 19931, Control_c, 14, 11, 116
34, 19954, Control_c, 14, 11, 115
34, 19977, Control_c, 14, 11, 114
34, 20000, Control_c, 14, 11, 113
34, 20022, Control_c, 14, 11, 112
34, 20045, Control_c, 14, 11, 111
34, 20068, Control_c, 14, 11, 110
34, 20091, Control_c, 14, 11, 109
34, 20114, Control_c, 14, 11, 108
34, 20137, Control_c, 14, 11, 107
34, 20160, Control_c, 14, 11, 106
34, 20182, Control_c, 14, 11, 105
34, 20205, Control_c, 14, 11, 104
34, 20228, Control_c, 14, 11, 103
34, 20251, Control_c, 14, 11, 102
34, 20274, Control_c, 14, 11, 101
34, 20297, Control_c, 14, 11, 100
34, 20319, Control_c, 14, 11, 99
34, 20342, Control_c, 14, 11, 98
34, 20365, Control_c, 14, 11, 97
34, 20388, Control_c, 14, 11, 96
34, 20411, Control_c, 14, 11, 95
34, 20434, Control_c, 14, 11, 94
34, 20457, Control_c, 14, 11, 93
34, 20480, Control_c, 14, 11, 92
34, 20502, Control_c, 14, 11, 91
34, 20525, Control_c, 14, 11, 90
34, 20548, Control_c, 14, 11, 89
34, 20571, Control_c, 14, 11, 88
34, 20594, Control_c, 14, 11, 87
34, 20617, Control_c, 14, 11, 86
34, 20640, Control_c, 14, 11, 85
34, 20662, Control_c, 14, 11, 84
34, 20685, Control_c, 14, 11, 83
34, 20708, Control_c, 14, 11, 82
34, 20731, Control_c, 14, 11, 81
34, 20754, Control_c, 14, 11, 80
34, 20777, Control_c, 14, 11, 79
34, 20799, Control_c, 14, 11, 78
34, 20822, Control_c, 14, 11, 77
34, 20845, Control_c, 14, 11, 76
34, 20868, Control_c, 14, 11, 75
34, 20891, Control_c, 14, 11, 74
34, 20914, Control_c, 14, 11, 73
34, 20937, Control_c, 14, 11, 72
34, 20960, Control_c, 14, 11, 71
34, 20982, Control_c, 14, 11, 70
34, 21005, Control_c, 14, 11, 69
34, 21028, Control_c, 14, 11, 68
34, 21051, Control_c, 14, 11, 67
34, 21074, Control_c, 14, 11, 66
34, 21097, Control_c, 14, 11, 65
34, 21111, Control_c, 14, 11, 127
34, 21133, Note_on_c, 14, 81, 0
34, 21134, Note_on_c, 14, 53, 0
34, 32653, Note_on_c, 15, 45, 72
34, 34573, Note_on_c, 15, 45, 0
34, 34588, Note_on_c, 15, 43, 65
34, 35548, Note_on_c, 15, 43, 0
34, 36247, Note_on_c, 15, 41, 47
34, 36487, Note_on_c, 15, 41, 0
34, 36496, Note_on_c, 15, 54, 60
34, 36736, Note_on_c, 15, 54, 0
34, 36738, Note_on_c, 15, 53, 63
34, 36978, Note_on_c, 15, 53, 0
34, 37459, Note_on_c, 15, 54, 45
34, 37699, Note_on_c, 15, 54, 0
34, 37705, Note_on_c, 15, 41, 52
34, 37923, Note_on_c, 15, 42, 58
34, 37945, Note_on_c, 15, 41, 0
34, 38163, Note_on_c, 15, 42, 0
34, 38662, Note_on_c, 15, 41, 59
34, 38902, Note_on_c, 15, 41, 0
34, 38902, Note_on_c, 15, 54, 48
34, 39140, Note_on_c, 15, 53, 62
34, 39142, Note_on_c, 15, 54, 0
34, 39380, Note_on_c, 15, 53, 0
34, 42967, Note_on_c, 14, 60, 35
34, 42983, Note_on_c, 14, 57, 30
34, 43207, Note_on_c, 14, 60, 0
34, 43213, Note_on_c, 14, 56, 32
34, 43223, Note_on_c, 14, 57, 0
34, 43225, Note_on_c, 14, 62, 39
34, 43933, Note_on_c, 14, 56, 0
34, 43945, Note_on_c, 14, 62, 0
34, 44903, Note_on_c, 15, 41, 19
34, 45125, Note_on_c, 15, 54, 26
34, 45143, Note_on_c, 15, 41, 0
34, 45365, Note_on_c, 15, 54, 0
34, 45388, Note_on_c, 15, 53, 25
34, 45628, Note_on_c, 15, 53, 0
34, 47040, Note_on_c, 15, 54, 22
34, 47280, Note_on_c, 15, 54, 0
34, 47299, Note_on_c, 15, 41, 23
34, 47536, Note_on_c, 15, 42, 31
34, 47539, Note_on_c, 15, 41, 0
34, 47776, Note_on_c, 15, 42, 0
34, 56640, Program_c, 15, 45
34, 56664, Note_on_c, 15, 46, 16
34, 57129, Note_on_c, 15, 40, 19
34, 57144, Note_on_c, 15, 46, 0
34, 57609, Note_on_c, 15, 40, 0
34, 58081, Note_on_c, 15, 44, 19
34, 58321, Note_on_c, 15, 44, 0
34, 58346, Note_on_c, 15, 39, 19
34, 58586, Note_on_c, 15, 39, 0
34, 58821, Note_on_c, 15, 47, 24
34, 59046, Note_on_c, 15, 40, 24
34, 59061, Note_on_c, 15, 47, 0
34, 59286, Note_on_c, 15, 40, 0
34, 59291, Note_on_c, 15, 44, 29
34, 59531, Note_on_c, 15, 44, 0
34, 59779, Note_on_c, 15, 39, 26
34, 60019, Note_on_c, 15, 39, 0
34, 60019, Note_on_c, 15, 47, 28
34, 60499, Note_on_c, 15, 47, 0
34, 66217, Program_c, 10, 45
34, 66251, Note_on_c, 10, 46, 38
34, 66731, Note_on_c, 10, 46, 0
34, 66747, Note_on_c, 10, 40, 30
34, 67227, Note_on_c, 10, 40, 0
34, 67699, Note_on_c, 10, 44, 46
34, 67939, Note_on_c, 10, 44, 0
34, 67948, Note_on_c, 10, 39, 30
34, 68188, Note_on_c, 10, 39, 0
34, 68407, Note_on_c, 10, 46, 33
34, 68647, Note_on_c, 10, 46, 0
34, 68668, Note_on_c, 10, 40, 36
34, 68897, Note_on_c, 10, 44, 39
34, 68908, Note_on_c, 10, 40, 0
34, 69137, Note_on_c, 10, 44, 0
34, 69364, Note_on_c, 10, 39, 31
34, 69600, Note_on_c, 10, 46, 38
34, 69604, Note_on_c, 10, 39, 0
34, 70080, Note_on_c, 10, 46, 0
34, 70577, Note_on_c, 10, 46, 38
34, 71052, Note_on_c, 10, 40, 43
34, 71057, Note_on_c, 10, 46, 0
34, 71532, Note_on_c, 10, 40, 0
34, 72014, Note_on_c, 10, 44, 42
34, 72241, Note_on_c, 10, 39, 32
34, 72254, Note_on_c, 10, 44, 0
34, 72481, Note_on_c, 10, 39, 0
34, 72728, Note_on_c, 10, 46, 32
34, 72967, Note_on_c, 10, 40, 38
34, 72968, Note_on_c, 10, 46, 0
34, 73207, Note_on_c, 10, 40, 0
34, 73210, Note_on_c, 10, 44, 42
34, 73450, Note_on_c, 10, 44, 0
34, 73694, Note_on_c, 10, 39, 40
34, 73934, Note_on_c, 10, 39, 0
34, 73937, Note_on_c, 10, 46, 31
34, 74417, Note_on_c, 10, 46, 0
34, 74891, Note_on_c, 10, 46, 32
34, 75371, Note_on_c, 10, 46, 0
34, 75375, Note_on_c, 10, 40, 33
34, 75855, Note_on_c, 10, 40, 0
34, 76339, Note_on_c, 10, 44, 46
34, 76579, Note_on_c, 10, 44, 0
34, 76587, Note_on_c, 10, 39, 30
34, 76827, Note_on_c, 10, 39, 0
34, 77048, Note_on_c, 10, 46, 50
34, 77288, Note_on_c, 10, 46, 0
34, 77298, Note_on_c, 10, 40, 50
34, 77538, Note_on_c, 10, 40, 0
34, 77543, Note_on_c, 10, 44, 33
34, 77783, Note_on_c, 10, 44, 0
34, 78024, Note_on_c, 10, 39, 31
34, 78258, Note_on_c, 10, 46, 39
34, 78264, Note_on_c, 10, 39, 0
34, 78738, Note_on_c, 10, 46, 0
34, 79225, Note_on_c, 10, 46, 39
34, 79692, Note_on_c, 10, 40, 31
34, 79705, Note_on_c, 10, 46, 0
34, 80172, Note_on_c, 10, 40, 0
34, 80646, Note_on_c, 10, 44, 44
34, 80885, Note_on_c, 10, 39, 46
34, 80886, Note_on_c, 10, 44, 0
34, 81125, Note_on_c, 10, 39, 0
34, 81380, Note_on_c, 10, 46, 40
34, 81601, Note_on_c, 10, 40, 35
34, 81620, Note_on_c, 10, 46, 0
34, 81841, Note_on_c, 10, 40, 0
34, 81855, Note_on_c, 10, 44, 36
34, 82095, Note_on_c, 10, 44, 0
34, 82339, Note_on_c, 10, 39, 40
34, 82579, Note_on_c, 10, 39, 0
34, 82587, Note_on_c, 10, 46, 44
34, 83067, Note_on_c, 10, 46, 0
34, 89760, Program_c, 14, 48
34, 89760, Note_on_c, 14, 46, 44
34, 90240, Note_on_c, 14, 46, 0
34, 90250, Note_on_c, 14, 43, 43
34, 90730, Note_on_c, 14, 43, 0
34, 90736, Note_on_c, 14, 46, 50
34, 91200, Note_on_c, 14, 42, 56
34, 91216, Note_on_c, 14, 46, 0
34, 91632, Note_on_c, 14, 42, 0
34, 92163, Note_on_c, 14, 46, 48
34, 92643, Note_on_c, 14, 46, 0
34, 92645, Note_on_c, 14, 45, 52
34, 93123, Note_on_c, 14, 43, 58
34, 93125, Note_on_c, 14, 45, 0
34, 93603, Note_on_c, 14, 43, 0
34, 93627, Note_on_c, 14, 46, 47
34, 94085, Note_on_c, 14, 42, 48
34, 94107, Note_on_c, 14, 46, 0
34, 94517, Note_on_c, 14, 42, 0
34, 95051, Note_on_c, 14, 46, 44
34, 95531, Note_on_c, 14, 46, 0
34, 95534, Note_on_c, 14, 43, 39
34, 96004, Note_on_c, 14, 46, 54
34, 96014, Note_on_c, 14, 43, 0
34, 96484, Note_on_c, 14, 46, 0
34, 97444, Note_on_c, 14, 46, 48
34, 97924, Note_on_c, 14, 46, 0
34, 97935, Note_on_c, 14, 43, 42
34, 98403, Note_on_c, 14, 46, 56
34, 98415, Note_on_c, 14, 43, 0
34, 98883, Note_on_c, 14, 46, 0
34, 98898, Note_on_c, 14, 42, 55
34, 99205, Note_on_c, 14, 42, 0
34, 99360, Program_c, 10, 45
34, 99360, Note_on_c, 10, 42, 53
34, 99381, Note_on_c, 10, 64, 44
34, 99600, Note_on_c, 10, 42, 0
34, 99606, Note_on_c, 10, 54, 51
34, 99621, Note_on_c, 10, 64, 0
34, 99846, Note_on_c, 10, 54, 0
34, 99868, Note_on_c, 10, 61, 40
34, 100104, Note_on_c, 10, 47, 56
34, 100108, Note_on_c, 10, 61, 0
34, 100322, Note_on_c, 10, 64, 42
34, 100344, Note_on_c, 10, 47, 0
34, 100562, Note_on_c, 10, 64, 0
34, 100570, Note_on_c, 10, 54, 43
34, 100806, Note_on_c, 10, 61, 58
34, 100810, Note_on_c, 10, 54, 0
34, 101046, Note_on_c, 10, 61, 0
34, 101066, Note_on_c, 10, 47, 56
34, 101300, Note_on_c, 10, 64, 50
34, 101306, Note_on_c, 10, 47, 0
34, 101523, Note_on_c, 10, 54, 48
34, 101540, Note_on_c, 10, 64, 0
34, 101763, Note_on_c, 10, 54, 0
34, 101787, Note_on_c, 10, 61, 55
34, 101979, Note_on_c, 10, 61, 0
34, 102020, Note_on_c, 10, 47, 45
34, 102247, Note_on_c, 10, 64, 54
34, 102260, Note_on_c, 10, 47, 0
34, 102484, Note_on_c, 10, 54, 56
34, 102487, Note_on_c, 10, 64, 0
34, 102724, Note_on_c, 10, 54, 0
34, 102725, Note_on_c, 10, 61, 42
34, 102963, Note_on_c, 10, 47, 53
34, 102965, Note_on_c, 10, 61, 0
34, 103203, Note_on_c, 10, 47, 0
34, 103215, Note_on_c, 10, 64, 45
34, 103455, Note_on_c, 10, 64, 0
34, 103460, Note_on_c, 10, 54, 54
34, 103699, Note_on_c, 10, 61, 50
34, 103700, Note_on_c, 10, 54, 0
34, 103938, Note_on_c, 10, 47, 56
34, 103939, Note_on_c, 10, 61, 0
34, 104169, Note_on_c, 10, 64, 50
34, 104178, Note_on_c, 10, 47, 0
34, 104409, Note_on_c, 10, 64, 0
34, 104416, Note_on_c, 10, 54, 58
34, 104656, Note_on_c, 10, 54, 0
34, 104667, Note_on_c, 10, 61, 55
34, 104884, Note_on_c, 10, 47, 52
34, 104907, Note_on_c, 10, 61, 0
34, 105124, Note_on_c, 10, 47, 0
34, 105128, Note_on_c, 10, 64, 58
34, 105363, Note_on_c, 10, 54, 47
34, 105368, Note_on_c, 10, 64, 0
34, 105603, Note_on_c, 10, 54, 0
34, 105615, Note_on_c, 10, 61, 42
34, 105855, Note_on_c, 10, 61, 0
34, 105863, Note_on_c, 10, 47, 40
34, 106087, Note_on_c, 10, 64, 50
34, 106103, Note_on_c, 10, 47, 0
34, 106327, Note_on_c, 10, 64, 0
34, 106333, Note_on_c, 10, 54, 41
34, 106573, Note_on_c, 10, 54, 0
34, 106581, Note_on_c, 10, 61, 59
34, 106813, Note_on_c, 10, 47, 52
34, 106821, Note_on_c, 10, 61, 0
34, 107053, Note_on_c, 10, 47, 0
34, 107061, Note_on_c, 10, 64, 45
34, 107287, Note_on_c, 10, 54, 50
34, 107301, Note_on_c, 10, 64, 0
34, 107525, Note_on_c, 10, 61, 49
34, 107527, Note_on_c, 10, 54, 0
34, 107761, Note_on_c, 10, 47, 59
34, 107765, Note_on_c, 10, 61, 0
34, 108000, Note_on_c, 10, 64, 44
34, 108001, Note_on_c, 10, 47, 0
34, 108240, Note_on_c, 10, 64, 0
34, 108247, Note_on_c, 10, 54, 54
34, 108487, Note_on_c, 10, 54, 0
34, 108487, Note_on_c, 10, 61, 51
34, 108727, Note_on_c, 10, 61, 0
34, 108748, Note_on_c, 10, 47, 44
34, 108972, Note_on_c, 10, 64, 53
34, 108988, Note_on_c, 10, 47, 0
34, 109202, Note_on_c, 10, 54, 53
34, 109212, Note_on_c, 10, 64, 0
34, 109440, Note_on_c, 10, 61, 42
34, 109442, Note_on_c, 10, 54, 0
34, 109680, Note_on_c, 10, 61, 0
34, 109682, Note_on_c, 10, 47, 57
34, 109922, Note_on_c, 10, 47, 0
34, 109941, Note_on_c, 10, 64, 46
34, 110172, Note_on_c, 10, 54, 41
34, 110181, Note_on_c, 10, 64, 0
34, 110410, Note_on_c, 10, 61, 40
34, 110412, Note_on_c, 10, 54, 0
34, 110642, Note_on_c, 10, 47, 52
34, 110650, Note_on_c, 10, 61, 0
34, 110882, Note_on_c, 10, 47, 0
34, 110904, Note_on_c, 10, 64, 54
34, 111142, Note_on_c, 10, 54, 50
34, 111144, Note_on_c, 10, 64, 0
34, 111382, Note_on_c, 10, 54, 0
34, 111384, Note_on_c, 10, 61, 51
34, 111614, Note_on_c, 10, 47, 56
34, 111624, Note_on_c, 10, 61, 0
34, 111854, Note_on_c, 10, 47, 0
34, 111861, Note_on_c, 10, 64, 59
34, 112086, Note_on_c, 10, 54, 39
34, 112101, Note_on_c, 10, 64, 0
34, 112326, Note_on_c, 10, 54, 0
34, 112347, Note_on_c, 10, 61, 52
34, 112586, Note_on_c, 10, 47, 55
34, 112587, Note_on_c, 10, 61, 0
34, 112826, Note_on_c, 10, 47, 0
34, 135368, Note_on_c, 14, 64, 66
34, 135848, Note_on_c, 14, 64, 0
34, 135853, Note_on_c, 14, 59, 84
34, 136331, Note_on_c, 14, 66, 58
34, 136333, Note_on_c, 14, 59, 0
34, 136803, Note_on_c, 14, 61, 54
34, 136811, Note_on_c, 14, 66, 0
34, 137283, Note_on_c, 14, 61, 0
34, 137292, Note_on_c, 14, 64, 40
34, 137772, Note_on_c, 14, 64, 0
34, 137784, Note_on_c, 14, 59, 57
34, 138243, Note_on_c, 14, 64, 59
34, 138264, Note_on_c, 14, 59, 0
34, 138723, Note_on_c, 14, 64, 0
34, 138732, Note_on_c, 14, 61, 39
34, 139203, Note_on_c, 14, 66, 46
34, 139212, Note_on_c, 14, 61, 0
34, 139683, Note_on_c, 14, 66, 0
34, 139703, Note_on_c, 14, 61, 44
34, 140183, Note_on_c, 14, 61, 0
34, 140186, Note_on_c, 14, 64, 56
34, 140648, Note_on_c, 14, 59, 48
34, 140666, Note_on_c, 14, 64, 0
34, 141128, Note_on_c, 14, 59, 0
34, 141136, Note_on_c, 14, 64, 48
34, 141610, Note_on_c, 14, 61, 47
34, 141616, Note_on_c, 14, 64, 0
34, 142080, Note_on_c, 14, 66, 44
34, 142090, Note_on_c, 14, 61, 0
34, 142560, Note_on_c, 14, 66, 0
34, 142565, Note_on_c, 14, 61, 42
34, 143045, Note_on_c, 14, 61, 0
34, 143053, Note_on_c, 14, 64, 46
34, 143528, Note_on_c, 14, 59, 42
34, 143533, Note_on_c, 14, 64, 0
34, 144008, Note_on_c, 14, 59, 0
34, 144013, Note_on_c, 14, 64, 53
34, 144493, Note_on_c, 14, 64, 0
34, 144508, Note_on_c, 14, 61, 46
34, 144966, Note_on_c, 14, 66, 43
34, 144988, Note_on_c, 14, 61, 0
34, 145445, Note_on_c, 14, 61, 44
34, 145446, Note_on_c, 14, 66, 0
34, 145925, Note_on_c, 14, 61, 0
34, 145938, Note_on_c, 14, 64, 59
34, 146418, Note_on_c, 14, 64, 0
34, 146425, Note_on_c, 14, 59, 58
34, 146885, Note_on_c, 14, 64, 49
34, 146905, Note_on_c, 14, 59, 0
34, 147365, Note_on_c, 14, 64, 0
34, 178106, Note_on_c, 14, 67, 45
34, 183578, Note_on_c, 14, 67, 0
34, 183842, Note_on_c, 14, 59, 68
34, 184562, Note_on_c, 14, 59, 0
34, 184574, Note_on_c, 14, 58, 65
34, 184803, Note_on_c, 14, 59, 70
34, 184814, Note_on_c, 14, 58, 0
34, 185283, Note_on_c, 14, 59, 0
34, 185294, Note_on_c, 14, 60, 72
34, 185520, Note_on_c, 14, 67, 69
34, 185534, Note_on_c, 14, 60, 0
34, 185760, Note_on_c, 14, 67, 0
34, 185769, Note_on_c, 14, 60, 80
34, 186249, Note_on_c, 14, 60, 0
34, 186250, Note_on_c, 14, 66, 67
34, 186634, Note_on_c, 14, 66, 0
34, 186724, Note_on_c, 14, 67, 74
34, 187204, Note_on_c, 14, 67, 0
34, 187218, Note_on_c, 14, 61, 80
34, 187448, Note_on_c, 14, 66, 72
34, 187458, Note_on_c, 14, 61, 0
34, 187688, Note_on_c, 14, 66, 0
34, 187699, Note_on_c, 14, 59, 67
34, 188160, Note_on_c, 14, 63, 68
34, 188179, Note_on_c, 14, 59, 0
34, 188640, Note_on_c, 14, 63, 0
34, 188657, Note_on_c, 14, 61, 67
34, 188897, Note_on_c, 14, 61, 0
34, 188908, Note_on_c, 14, 60, 82
34, 189145, Note_on_c, 14, 61, 66
34, 189148, Note_on_c, 14, 60, 0
34, 189529, Note_on_c, 14, 61, 0
34, 192493, Note_on_c, 10, 78, 37
34, 192724, Note_on_c, 10, 67, 39
34, 192733, Note_on_c, 10, 78, 0
34, 192964, Note_on_c, 10, 67, 0
34, 194405, Note_on_c, 10, 78, 46
34, 194645, Note_on_c, 10, 78, 0
34, 194657, Note_on_c, 10, 67, 40
34, 194897, Note_on_c, 10, 67, 0
34, 196330, Note_on_c, 10, 78, 43
34, 196570, Note_on_c, 10, 78, 0
34, 196583, Note_on_c, 10, 67, 39
34, 196823, Note_on_c, 10, 67, 0
34, 198248, Note_on_c, 10, 78, 48
34, 198488, Note_on_c, 10, 78, 0
34, 198503, Note_on_c, 10, 67, 34
34, 198743, Note_on_c, 10, 67, 0
34, 199703, Note_on_c, 10, 78, 43
34, 199943, Note_on_c, 10, 78, 0
34, 199947, Note_on_c, 10, 67, 48
34, 200187, Note_on_c, 10, 67, 0
34, 287276, Control_c, 2, 101, 0
34, 287276, Control_c, 2, 100, 0
34, 287277, Control_c, 2, 6, 24
34, 287277, Control_c, 2, 38, 24
34, 287760, Program_c, 2, 48
34, 289219, Note_on_c, 2, 61, 108
34, 289279, Note_on_c, 2, 61, 0
34, 289284, Note_on_c, 2, 62, 95
34, 289327, Note_on_c, 2, 61, 99
34, 289344, Note_on_c, 2, 62, 0
34, 289387, Note_on_c, 2, 61, 0
34, 289401, Note_on_c, 2, 62, 97
34, 289458, Note_on_c, 2, 61, 106
34, 289461, Note_on_c, 2, 62, 0
34, 289507, Note_on_c, 2, 62, 111
34, 289518, Note_on_c, 2, 61, 0
34, 289567, Note_on_c, 2, 62, 0
34, 289567, Note_on_c, 2, 61, 107
34, 289627, Note_on_c, 2, 61, 0
34, 289640, Note_on_c, 2, 62, 94
34, 289700, Note_on_c, 2, 62, 0
34, 289707, Note_on_c, 2, 61, 99
34, 289757, Note_on_c, 2, 62, 96
34, 289767, Note_on_c, 2, 61, 0
34, 289817, Note_on_c, 2, 62, 0
34, 289827, Note_on_c, 2, 61, 93
34, 289880, Note_on_c, 2, 62, 100
34, 289887, Note_on_c, 2, 61, 0
34, 289937, Note_on_c, 2, 61, 100
34, 289940, Note_on_c, 2, 62, 0
34, 289997, Note_on_c, 2, 61, 0
34, 290003, Note_on_c, 2, 62, 106
34, 290045, Note_on_c, 2, 61, 99
34, 290063, Note_on_c, 2, 62, 0
34, 290105, Note_on_c, 2, 61, 0
34, 290110, Note_on_c, 2, 62, 97
34, 290170, Note_on_c, 2, 62, 0
34, 290172, Pitch_bend_c, 2, 2208
34, 290184, Pitch_bend_c, 2, 2368
34, 290188, Note_on_c, 2, 75, 107
34, 290197, Pitch_bend_c, 2, 2528
34, 290210, Pitch_bend_c, 2, 2688
34, 290222, Pitch_bend_c, 2, 2848
34, 290235, Pitch_bend_c, 2, 3008
34, 290247, Pitch_bend_c, 2, 3168
34, 290259, Pitch_bend_c, 2, 3328
34, 290272, Pitch_bend_c, 2, 3488
34, 290285, Pitch_bend_c, 2, 3648
34, 290297, Pitch_bend_c, 2, 3808
34, 290310, Pitch_bend_c, 2, 3968
34, 290322, Pitch_bend_c, 2, 4128
34, 290334, Pitch_bend_c, 2, 4288
34, 290347, Pitch_bend_c, 2, 4448
34, 290360, Pitch_bend_c, 2, 4608
34, 290372, Pitch_bend_c, 2, 4768
34, 290385, Pitch_bend_c, 2, 4928
34, 290397, Pitch_bend_c, 2, 5088
34, 290409, Pitch_bend_c, 2, 5248
34, 290422, Pitch_bend_c, 2, 5408
34, 290435, Pitch_bend_c, 2, 5568
34, 290447, Pitch_bend_c, 2, 5728
34, 290460, Pitch_bend_c, 2, 5888
34, 290472, Pitch_bend_c, 2, 6048
34, 290484, Pitch_bend_c, 2, 6208
34, 290497, Pitch_bend_c, 2, 6368
34, 290510, Pitch_bend_c, 2, 6528
34, 290522, Pitch_bend_c, 2, 6688
34, 290535, Pitch_bend_c, 2, 6848
34, 290547, Pitch_bend_c, 2, 7008
34, 290559, Pitch_bend_c, 2, 7168
34, 290572, Pitch_bend_c, 2, 7328
34, 290585, Pitch_bend_c, 2, 7488
34, 290597, Pitch_bend_c, 2, 7648
34, 290610, Pitch_bend_c, 2, 7808
34, 290622, Pitch_bend_c, 2, 7968
34, 290632, Pitch_bend_c, 2, 8192
34, 290634, Pitch_bend_c, 2, 8128
34, 290788, Note_on_c, 2, 75, 0
34, 535947, Note_on_c, 14, 53, 109
34, 535962, Note_on_c, 14, 53, 0
34, 535981, Note_on_c, 14, 53, 123
34, 535982, Note_on_c, 14, 53, 0
34, 536002, Note_on_c, 14, 53, 107
34, 536021, Note_on_c, 14, 53, 0
34, 536060, Note_on_c, 14, 53, 105
34, 536075, Note_on_c, 14, 53, 0
34, 536094, Note_on_c, 14, 53, 119
34, 536111, Note_on_c, 14, 53, 0
34, 536130, Note_on_c, 14, 53, 124
34, 536149, Note_on_c, 14, 53, 0
34, 536189, Note_on_c, 14, 56, 107
34, 536200, Note_on_c, 14, 56, 0
34, 536219, Note_on_c, 14, 56, 123
34, 536234, Note_on_c, 14, 56, 0
34, 536253, Note_on_c, 14, 56, 114
34, 536264, Note_on_c, 14, 56, 0
34, 536284, Note_on_c, 14, 56, 104
34, 536303, Note_on_c, 14, 56, 0
34, 536327, Note_on_c, 14, 56, 117
34, 536343, Note_on_c, 14, 56, 0
34, 536362, Note_on_c, 14, 56, 116
34, 536381, Note_on_c, 14, 56, 0
34, 536417, Note_on_c, 14, 52, 108
34, 536433, Note_on_c, 14, 52, 0
34, 536453, Note_on_c, 14, 52, 113
34, 536473, Note_on_c, 14, 52, 0
34, 536494, Note_on_c, 14, 52, 123
34, 536513, Note_on_c, 14, 52, 0
34, 536543, Note_on_c, 14, 52, 115
34, 536560, Note_on_c, 14, 52, 0
34, 536579, Note_on_c, 14, 52, 118
34, 536581, Note_on_c, 14, 52, 0
34, 536600, Note_on_c, 14, 52, 114
34, 536619, Note_on_c, 14, 52, 0
34, 536619, End_track
35, 0, Start_track
35, 0, Title_t, "Contrabbassi I"
35, 0, MIDI_port, 0
35, 0, Control_c, 15, 7, 75
35, 0, Control_c, 15, 10, 84
35, 0, Control_c, 15, 91, 96
35, 0, Program_c, 15, 48
35, 0, Control_c, 15, 11, 127
35, 1440, Program_c, 15, 49
35, 2428, Note_on_c, 15, 45, 48
35, 2881, Note_on_c, 15, 47, 47
35, 2890, Note_on_c, 15, 40, 46
35, 2908, Note_on_c, 15, 45, 0
35, 3121, Note_on_c, 15, 47, 0
35, 3130, Note_on_c, 15, 40, 0
35, 8644, Note_on_c, 15, 38, 57
35, 9124, Note_on_c, 15, 38, 0
35, 9128, Note_on_c, 15, 40, 51
35, 9608, Note_on_c, 15, 40, 0
35, 9618, Note_on_c, 15, 41, 53
35, 10089, Note_on_c, 15, 43, 46
35, 10098, Note_on_c, 15, 41, 0
35, 10473, Note_on_c, 15, 43, 0
35, 10580, Note_on_c, 15, 45, 67
35, 10586, Note_on_c, 15, 38, 65
35, 13700, Note_on_c, 15, 45, 0
35, 13706, Note_on_c, 15, 38, 0
35, 15360, Control_c, 15, 11, 127
35, 15374, Note_on_c, 15, 38, 80
35, 15375, Control_c, 15, 11, 126
35, 15380, Note_on_c, 15, 45, 83
35, 15390, Control_c, 15, 11, 125
35, 15405, Control_c, 15, 11, 124
35, 15420, Control_c, 15, 11, 123
35, 15435, Control_c, 15, 11, 122
35, 15450, Control_c, 15, 11, 121
35, 15465, Control_c, 15, 11, 120
35, 15481, Control_c, 15, 11, 119
35, 15496, Control_c, 15, 11, 118
35, 15511, Control_c, 15, 11, 117
35, 15526, Control_c, 15, 11, 116
35, 15541, Control_c, 15, 11, 115
35, 15556, Control_c, 15, 11, 114
35, 15572, Control_c, 15, 11, 113
35, 15587, Control_c, 15, 11, 112
35, 15602, Control_c, 15, 11, 111
35, 15617, Control_c, 15, 11, 110
35, 15632, Control_c, 15, 11, 109
35, 15647, Control_c, 15, 11, 108
35, 15663, Control_c, 15, 11, 107
35, 15678, Control_c, 15, 11, 106
35, 15693, Control_c, 15, 11, 105
35, 15708, Control_c, 15, 11, 104
35, 15723, Control_c, 15, 11, 103
35, 15738, Control_c, 15, 11, 102
35, 15754, Control_c, 15, 11, 101
35, 15769, Control_c, 15, 11, 100
35, 15784, Control_c, 15, 11, 99
35, 15799, Control_c, 15, 11, 98
35, 15814, Control_c, 15, 11, 97
35, 15829, Control_c, 15, 11, 96
35, 15845, Control_c, 15, 11, 95
35, 15860, Control_c, 15, 11, 94
35, 15875, Control_c, 15, 11, 93
35, 15890, Control_c, 15, 11, 92
35, 15905, Control_c, 15, 11, 91
35, 15920, Control_c, 15, 11, 90
35, 15936, Control_c, 15, 11, 89
35, 15951, Control_c, 15, 11, 88
35, 15966, Control_c, 15, 11, 87
35, 15981, Control_c, 15, 11, 86
35, 15996, Control_c, 15, 11, 85
35, 16011, Control_c, 15, 11, 84
35, 16027, Control_c, 15, 11, 83
35, 16042, Control_c, 15, 11, 82
35, 16057, Control_c, 15, 11, 81
35, 16072, Control_c, 15, 11, 80
35, 16087, Control_c, 15, 11, 79
35, 16102, Control_c, 15, 11, 78
35, 16117, Control_c, 15, 11, 77
35, 16132, Control_c, 15, 11, 76
35, 16148, Control_c, 15, 11, 75
35, 16163, Control_c, 15, 11, 74
35, 16178, Control_c, 15, 11, 73
35, 16193, Control_c, 15, 11, 72
35, 16208, Control_c, 15, 11, 71
35, 16223, Control_c, 15, 11, 70
35, 16239, Control_c, 15, 11, 69
35, 16254, Control_c, 15, 11, 68
35, 16269, Control_c, 15, 11, 67
35, 16284, Control_c, 15, 11, 66
35, 16299, Control_c, 15, 11, 65
35, 16314, Control_c, 15, 11, 64
35, 16330, Control_c, 15, 11, 63
35, 16345, Control_c, 15, 11, 62
35, 16360, Control_c, 15, 11, 61
35, 16375, Control_c, 15, 11, 60
35, 16390, Control_c, 15, 11, 59
35, 16405, Control_c, 15, 11, 58
35, 16421, Control_c, 15, 11, 57
35, 16436, Control_c, 15, 11, 56
35, 16451, Control_c, 15, 11, 55
35, 16466, Control_c, 15, 11, 54
35, 16481, Control_c, 15, 11, 53
35, 16496, Control_c, 15, 11, 52
35, 16512, Control_c, 15, 11, 51
35, 16527, Control_c, 15, 11, 50
35, 16542, Control_c, 15, 11, 49
35, 16557, Control_c, 15, 11, 48
35, 16572, Control_c, 15, 11, 47
35, 16587, Control_c, 15, 11, 46
35, 16603, Control_c, 15, 11, 45
35, 16618, Control_c, 15, 11, 44
35, 16633, Control_c, 15, 11, 43
35, 16648, Control_c, 15, 11, 42
35, 16663, Control_c, 15, 11, 41
35, 16678, Control_c, 15, 11, 40
35, 16694, Control_c, 15, 11, 39
35, 16709, Control_c, 15, 11, 38
35, 16724, Control_c, 15, 11, 37
35, 16739, Control_c, 15, 11, 36
35, 16754, Control_c, 15, 11, 35
35, 16769, Control_c, 15, 11, 34
35, 16785, Control_c, 15, 11, 33
35, 17054, Note_on_c, 15, 38, 0
35, 17060, Note_on_c, 15, 45, 0
35, 19680, Control_c, 15, 11, 127
35, 19680, Control_c, 15, 11, 127
35, 19695, Control_c, 15, 11, 126
35, 19699, Note_on_c, 15, 38, 65
35, 19702, Control_c, 15, 11, 126
35, 19707, Note_on_c, 15, 45, 72
35, 19710, Control_c, 15, 11, 125
35, 19725, Control_c, 15, 11, 124
35, 19725, Control_c, 15, 11, 125
35, 19740, Control_c, 15, 11, 123
35, 19748, Control_c, 15, 11, 124
35, 19755, Control_c, 15, 11, 122
35, 19770, Control_c, 15, 11, 121
35, 19771, Control_c, 15, 11, 123
35, 19785, Control_c, 15, 11, 120
35, 19794, Control_c, 15, 11, 122
35, 19801, Control_c, 15, 11, 119
35, 19816, Control_c, 15, 11, 118
35, 19817, Control_c, 15, 11, 121
35, 19831, Control_c, 15, 11, 117
35, 19839, Control_c, 15, 11, 120
35, 19846, Control_c, 15, 11, 116
35, 19861, Control_c, 15, 11, 115
35, 19862, Control_c, 15, 11, 119
35, 19876, Control_c, 15, 11, 114
35, 19885, Control_c, 15, 11, 118
35, 19892, Control_c, 15, 11, 113
35, 19907, Control_c, 15, 11, 112
35, 19908, Control_c, 15, 11, 117
35, 19922, Control_c, 15, 11, 111
35, 19931, Control_c, 15, 11, 116
35, 19937, Control_c, 15, 11, 110
35, 19952, Control_c, 15, 11, 109
35, 19954, Control_c, 15, 11, 115
35, 19967, Control_c, 15, 11, 108
35, 19977, Control_c, 15, 11, 114
35, 19983, Control_c, 15, 11, 107
35, 19998, Control_c, 15, 11, 106
35, 20000, Control_c, 15, 11, 113
35, 20013, Control_c, 15, 11, 105
35, 20022, Control_c, 15, 11, 112
35, 20028, Control_c, 15, 11, 104
35, 20043, Control_c, 15, 11, 103
35, 20045, Control_c, 15, 11, 111
35, 20058, Control_c, 15, 11, 102
35, 20068, Control_c, 15, 11, 110
35, 20074, Control_c, 15, 11, 101
35, 20089, Control_c, 15, 11, 100
35, 20091, Control_c, 15, 11, 109
35, 20104, Control_c, 15, 11, 99
35, 20114, Control_c, 15, 11, 108
35, 20119, Control_c, 15, 11, 98
35, 20134, Control_c, 15, 11, 97
35, 20137, Control_c, 15, 11, 107
35, 20149, Control_c, 15, 11, 96
35, 20160, Control_c, 15, 11, 106
35, 20165, Control_c, 15, 11, 95
35, 20180, Control_c, 15, 11, 94
35, 20182, Control_c, 15, 11, 105
35, 20195, Control_c, 15, 11, 93
35, 20205, Control_c, 15, 11, 104
35, 20210, Control_c, 15, 11, 92
35, 20225, Control_c, 15, 11, 91
35, 20228, Control_c, 15, 11, 103
35, 20240, Control_c, 15, 11, 90
35, 20251, Control_c, 15, 11, 102
35, 20256, Control_c, 15, 11, 89
35, 20271, Control_c, 15, 11, 88
35, 20274, Control_c, 15, 11, 101
35, 20286, Control_c, 15, 11, 87
35, 20297, Control_c, 15, 11, 100
35, 20301, Control_c, 15, 11, 86
35, 20316, Control_c, 15, 11, 85
35, 20319, Control_c, 15, 11, 99
35, 20331, Control_c, 15, 11, 84
35, 20342, Control_c, 15, 11, 98
35, 20347, Control_c, 15, 11, 83
35, 20362, Control_c, 15, 11, 82
35, 20365, Control_c, 15, 11, 97
35, 20377, Control_c, 15, 11, 81
35, 20388, Control_c, 15, 11, 96
35, 20392, Control_c, 15, 11, 80
35, 20407, Control_c, 15, 11, 79
35, 20411, Control_c, 15, 11, 95
35, 20422, Control_c, 15, 11, 78
35, 20434, Control_c, 15, 11, 94
35, 20437, Control_c, 15, 11, 77
35, 20452, Control_c, 15, 11, 76
35, 20457, Control_c, 15, 11, 93
35, 20468, Control_c, 15, 11, 75
35, 20480, Control_c, 15, 11, 92
35, 20483, Control_c, 15, 11, 74
35, 20498, Control_c, 15, 11, 73
35, 20502, Control_c, 15, 11, 91
35, 20513, Control_c, 15, 11, 72
35, 20525, Control_c, 15, 11, 90
35, 20528, Control_c, 15, 11, 71
35, 20543, Control_c, 15, 11, 70
35, 20548, Control_c, 15, 11, 89
35, 20559, Control_c, 15, 11, 69
35, 20571, Control_c, 15, 11, 88
35, 20574, Control_c, 15, 11, 68
35, 20589, Control_c, 15, 11, 67
35, 20594, Control_c, 15, 11, 87
35, 20604, Control_c, 15, 11, 66
35, 20617, Control_c, 15, 11, 86
35, 20619, Control_c, 15, 11, 65
35, 20634, Control_c, 15, 11, 64
35, 20640, Control_c, 15, 11, 85
35, 20650, Control_c, 15, 11, 63
35, 20662, Control_c, 15, 11, 84
35, 20665, Control_c, 15, 11, 62
35, 20680, Control_c, 15, 11, 61
35, 20685, Control_c, 15, 11, 83
35, 20695, Control_c, 15, 11, 60
35, 20708, Control_c, 15, 11, 82
35, 20710, Control_c, 15, 11, 59
35, 20725, Control_c, 15, 11, 58
35, 20731, Control_c, 15, 11, 81
35, 20741, Control_c, 15, 11, 57
35, 20754, Control_c, 15, 11, 80
35, 20756, Control_c, 15, 11, 56
35, 20771, Control_c, 15, 11, 55
35, 20777, Control_c, 15, 11, 79
35, 20786, Control_c, 15, 11, 54
35, 20799, Control_c, 15, 11, 78
35, 20801, Control_c, 15, 11, 53
35, 20816, Control_c, 15, 11, 52
35, 20822, Control_c, 15, 11, 77
35, 20832, Control_c, 15, 11, 51
35, 20845, Control_c, 15, 11, 76
35, 20847, Control_c, 15, 11, 50
35, 20862, Control_c, 15, 11, 49
35, 20868, Control_c, 15, 11, 75
35, 20877, Control_c, 15, 11, 48
35, 20891, Control_c, 15, 11, 74
35, 20892, Control_c, 15, 11, 47
35, 20907, Control_c, 15, 11, 46
35, 20914, Control_c, 15, 11, 73
35, 20923, Control_c, 15, 11, 45
35, 20937, Control_c, 15, 11, 72
35, 20938, Control_c, 15, 11, 44
35, 20953, Control_c, 15, 11, 43
35, 20960, Control_c, 15, 11, 71
35, 20968, Control_c, 15, 11, 42
35, 20982, Control_c, 15, 11, 70
35, 20983, Control_c, 15, 11, 41
35, 20998, Control_c, 15, 11, 40
35, 21005, Control_c, 15, 11, 69
35, 21014, Control_c, 15, 11, 39
35, 21028, Control_c, 15, 11, 68
35, 21029, Control_c, 15, 11, 38
35, 21044, Control_c, 15, 11, 37
35, 21051, Control_c, 15, 11, 67
35, 21059, Control_c, 15, 11, 36
35, 21074, Control_c, 15, 11, 66
35, 21074, Control_c, 15, 11, 35
35, 21089, Control_c, 15, 11, 34
35, 21097, Control_c, 15, 11, 65
35, 21105, Control_c, 15, 11, 33
35, 21379, Note_on_c, 15, 38, 0
35, 21387, Note_on_c, 15, 45, 0
35, 22550, Control_c, 15, 11, 127
35, 31745, Program_c, 15, 48
35, 35774, Note_on_c, 15, 29, 58
35, 36014, Note_on_c, 15, 29, 0
35, 36017, Note_on_c, 15, 42, 59
35, 36257, Note_on_c, 15, 42, 0
35, 36267, Note_on_c, 15, 41, 48
35, 36507, Note_on_c, 15, 41, 0
35, 37930, Note_on_c, 15, 42, 62
35, 38170, Note_on_c, 15, 42, 0
35, 38182, Note_on_c, 15, 29, 45
35, 38422, Note_on_c, 15, 29, 0
35, 44139, Program_c, 15, 49
35, 44412, Note_on_c, 15, 29, 18
35, 44647, Note_on_c, 15, 42, 15
35, 44652, Note_on_c, 15, 29, 0
35, 44887, Note_on_c, 15, 42, 0
35, 44906, Note_on_c, 15, 41, 22
35, 45146, Note_on_c, 15, 41, 0
35, 47524, Note_on_c, 15, 42, 19
35, 47764, Note_on_c, 15, 42, 0
35, 47767, Note_on_c, 15, 29, 26
35, 48007, Note_on_c, 15, 29, 0
35, 62879, Program_c, 15, 43
35, 65761, Note_on_c, 15, 61, 40
35, 65769, Note_on_c, 15, 53, 39
35, 65769, Note_on_c, 15, 50, 42
35, 83041, Note_on_c, 15, 61, 0
35, 83049, Note_on_c, 15, 53, 0
35, 83049, Note_on_c, 15, 50, 0
35, 89760, Control_c, 10, 11, 127
35, 89760, Control_c, 10, 10, 64
35, 89760, Control_c, 10, 7, 127
35, 89760, Program_c, 10, 45
35, 89762, Note_on_c, 10, 39, 57
35, 90242, Note_on_c, 10, 39, 0
35, 90266, Note_on_c, 10, 36, 42
35, 90727, Note_on_c, 10, 39, 45
35, 90746, Note_on_c, 10, 36, 0
35, 91206, Note_on_c, 10, 35, 45
35, 91207, Note_on_c, 10, 39, 0
35, 91638, Note_on_c, 10, 35, 0
35, 92186, Note_on_c, 10, 39, 45
35, 92666, Note_on_c, 10, 39, 0
35, 92668, Note_on_c, 10, 38, 50
35, 93144, Note_on_c, 10, 36, 50
35, 93148, Note_on_c, 10, 38, 0
35, 93604, Note_on_c, 10, 39, 55
35, 93624, Note_on_c, 10, 36, 0
35, 94084, Note_on_c, 10, 39, 0
35, 94098, Note_on_c, 10, 35, 52
35, 94530, Note_on_c, 10, 35, 0
35, 95063, Note_on_c, 10, 39, 54
35, 95543, Note_on_c, 10, 39, 0
35, 95548, Note_on_c, 10, 36, 47
35, 96028, Note_on_c, 10, 36, 0
35, 96028, Note_on_c, 10, 39, 39
35, 96507, Note_on_c, 10, 35, 55
35, 96508, Note_on_c, 10, 39, 0
35, 96939, Note_on_c, 10, 35, 0
35, 97457, Note_on_c, 10, 39, 39
35, 97937, Note_on_c, 10, 39, 0
35, 97945, Note_on_c, 10, 36, 42
35, 98419, Note_on_c, 10, 39, 45
35, 98425, Note_on_c, 10, 36, 0
35, 98899, Note_on_c, 10, 39, 0
35, 98906, Note_on_c, 10, 35, 48
35, 99213, Note_on_c, 10, 35, 0
35, 99840, Program_c, 15, 49
35, 99840, Note_on_c, 15, 61, 47
35, 100320, Note_on_c, 15, 61, 0
35, 100819, Note_on_c, 15, 61, 47
35, 101299, Note_on_c, 15, 61, 0
35, 101788, Note_on_c, 15, 61, 52
35, 102172, Note_on_c, 15, 61, 0
35, 102731, Note_on_c, 15, 61, 51
35, 103211, Note_on_c, 15, 61, 0
35, 103702, Note_on_c, 15, 61, 41
35, 104182, Note_on_c, 15, 61, 0
35, 104657, Note_on_c, 15, 61, 41
35, 105137, Note_on_c, 15, 61, 0
35, 105627, Note_on_c, 15, 61, 47
35, 106107, Note_on_c, 15, 61, 0
35, 106571, Note_on_c, 15, 61, 51
35, 107051, Note_on_c, 15, 61, 0
35, 107546, Note_on_c, 15, 61, 49
35, 108026, Note_on_c, 15, 61, 0
35, 108494, Note_on_c, 15, 61, 40
35, 108974, Note_on_c, 15, 61, 0
35, 109462, Note_on_c, 15, 61, 41
35, 109942, Note_on_c, 15, 61, 0
35, 110410, Note_on_c, 15, 61, 42
35, 110890, Note_on_c, 15, 61, 0
35, 111364, Note_on_c, 15, 61, 55
35, 111844, Note_on_c, 15, 61, 0
35, 112325, Note_on_c, 15, 61, 39
35, 112805, Note_on_c, 15, 61, 0
35, 160332, Note_on_c, 15, 30, 59
35, 160812, Note_on_c, 15, 30, 0
35, 161306, Note_on_c, 15, 30, 48
35, 161786, Note_on_c, 15, 30, 0
35, 162240, Note_on_c, 15, 26, 55
35, 162720, Note_on_c, 15, 26, 0
35, 163215, Note_on_c, 15, 30, 49
35, 163695, Note_on_c, 15, 30, 0
35, 164188, Note_on_c, 15, 30, 50
35, 164668, Note_on_c, 15, 30, 0
35, 165144, Note_on_c, 15, 26, 58
35, 165624, Note_on_c, 15, 26, 0
35, 166106, Note_on_c, 15, 27, 39
35, 166586, Note_on_c, 15, 27, 0
35, 210240, Program_c, 15, 45
35, 210256, Note_on_c, 15, 43, 108
35, 210376, Note_on_c, 15, 43, 0
35, 210720, Program_c, 15, 48
35, 210739, Note_on_c, 15, 42, 107
35, 210979, Note_on_c, 15, 42, 0
35, 211200, Note_on_c, 15, 42, 105
35, 211440, Note_on_c, 15, 42, 0
35, 211683, Note_on_c, 15, 42, 96
35, 211923, Note_on_c, 15, 42, 0
35, 212178, Note_on_c, 15, 42, 103
35, 212418, Note_on_c, 15, 42, 0
35, 212656, Note_on_c, 15, 42, 92
35, 212896, Note_on_c, 15, 42, 0
35, 213142, Note_on_c, 15, 42, 108
35, 213382, Note_on_c, 15, 42, 0
35, 213605, Note_on_c, 15, 42, 94
35, 213845, Note_on_c, 15, 42, 0
35, 214089, Note_on_c, 15, 42, 95
35, 214329, Note_on_c, 15, 42, 0
35, 214585, Note_on_c, 15, 42, 110
35, 214825, Note_on_c, 15, 42, 0
35, 215041, Note_on_c, 15, 42, 108
35, 215281, Note_on_c, 15, 42, 0
35, 215538, Note_on_c, 15, 42, 102
35, 215778, Note_on_c, 15, 42, 0
35, 216002, Note_on_c, 15, 33, 109
35, 216026, Note_on_c, 15, 45, 116
35, 216109, Note_on_c, 15, 33, 0
35, 216133, Note_on_c, 15, 45, 0
35, 216487, Note_on_c, 15, 45, 106
35, 216594, Note_on_c, 15, 45, 0
35, 217218, Note_on_c, 15, 45, 117
35, 217221, Note_on_c, 15, 33, 115
35, 217325, Note_on_c, 15, 45, 0
35, 217328, Note_on_c, 15, 33, 0
35, 217681, Note_on_c, 15, 45, 103
35, 217788, Note_on_c, 15, 45, 0
35, 218422, Note_on_c, 15, 45, 84
35, 218424, Note_on_c, 15, 33, 92
35, 218662, Note_on_c, 15, 45, 0
35, 218664, Note_on_c, 15, 33, 0
35, 218880, Note_on_c, 15, 45, 93
35, 219120, Note_on_c, 15, 45, 0
35, 219378, Note_on_c, 15, 45, 89
35, 219618, Note_on_c, 15, 45, 0
35, 219860, Note_on_c, 15, 45, 95
35, 220100, Note_on_c, 15, 45, 0
35, 220335, Note_on_c, 15, 45, 89
35, 220550, Note_on_c, 15, 45, 0
35, 220564, Note_on_c, 15, 33, 119
35, 220569, Note_on_c, 15, 45, 116
35, 220671, Note_on_c, 15, 33, 0
35, 220676, Note_on_c, 15, 45, 0
35, 221067, Note_on_c, 15, 45, 113
35, 221174, Note_on_c, 15, 45, 0
35, 221771, Note_on_c, 15, 33, 119
35, 221778, Note_on_c, 15, 45, 108
35, 221878, Note_on_c, 15, 33, 0
35, 221885, Note_on_c, 15, 45, 0
35, 222266, Note_on_c, 15, 33, 103
35, 222268, Note_on_c, 15, 45, 101
35, 222373, Note_on_c, 15, 33, 0
35, 222375, Note_on_c, 15, 45, 0
35, 222741, Note_on_c, 15, 45, 111
35, 222848, Note_on_c, 15, 45, 0
35, 223448, Note_on_c, 15, 33, 102
35, 223462, Note_on_c, 15, 45, 120
35, 223555, Note_on_c, 15, 33, 0
35, 223569, Note_on_c, 15, 45, 0
35, 223937, Note_on_c, 15, 45, 113
35, 224044, Note_on_c, 15, 45, 0
35, 225625, Note_on_c, 15, 42, 84
35, 225732, Note_on_c, 15, 42, 0
35, 226095, Note_on_c, 15, 42, 89
35, 226202, Note_on_c, 15, 42, 0
35, 226564, Note_on_c, 15, 42, 88
35, 226671, Note_on_c, 15, 42, 0
35, 227061, Note_on_c, 15, 42, 98
35, 227168, Note_on_c, 15, 42, 0
35, 227541, Note_on_c, 15, 42, 83
35, 227648, Note_on_c, 15, 42, 0
35, 228018, Note_on_c, 15, 42, 93
35, 228125, Note_on_c, 15, 42, 0
35, 228485, Note_on_c, 15, 42, 90
35, 228592, Note_on_c, 15, 42, 0
35, 230417, Note_on_c, 15, 42, 83
35, 230524, Note_on_c, 15, 42, 0
35, 230903, Note_on_c, 15, 42, 92
35, 231010, Note_on_c, 15, 42, 0
35, 231388, Note_on_c, 15, 42, 92
35, 231495, Note_on_c, 15, 42, 0
35, 231849, Note_on_c, 15, 42, 81
35, 231956, Note_on_c, 15, 42, 0
35, 232337, Note_on_c, 15, 42, 96
35, 232444, Note_on_c, 15, 42, 0
35, 232807, Note_on_c, 15, 42, 85
35, 232914, Note_on_c, 15, 42, 0
35, 233299, Note_on_c, 15, 33, 102
35, 233306, Note_on_c, 15, 45, 101
35, 233406, Note_on_c, 15, 33, 0
35, 233413, Note_on_c, 15, 45, 0
35, 233782, Note_on_c, 15, 45, 113
35, 233889, Note_on_c, 15, 45, 0
35, 235456, Note_on_c, 15, 42, 93
35, 235563, Note_on_c, 15, 42, 0
35, 235922, Note_on_c, 15, 42, 89
35, 236029, Note_on_c, 15, 42, 0
35, 236425, Note_on_c, 15, 42, 90
35, 236532, Note_on_c, 15, 42, 0
35, 236905, Note_on_c, 15, 42, 95
35, 237012, Note_on_c, 15, 42, 0
35, 237362, Note_on_c, 15, 42, 98
35, 237469, Note_on_c, 15, 42, 0
35, 237860, Note_on_c, 15, 42, 78
35, 237967, Note_on_c, 15, 42, 0
35, 238332, Note_on_c, 15, 33, 113
35, 238439, Note_on_c, 15, 33, 0
35, 238826, Note_on_c, 15, 33, 116
35, 238933, Note_on_c, 15, 33, 0
35, 239280, Note_on_c, 15, 33, 101
35, 239387, Note_on_c, 15, 33, 0
35, 239775, Note_on_c, 15, 33, 119
35, 239775, Note_on_c, 15, 45, 119
35, 239882, Note_on_c, 15, 33, 0
35, 239882, Note_on_c, 15, 45, 0
35, 240240, Note_on_c, 15, 45, 115
35, 240347, Note_on_c, 15, 45, 0
35, 240962, Note_on_c, 15, 33, 101
35, 241069, Note_on_c, 15, 33, 0
35, 241463, Note_on_c, 15, 33, 118
35, 241570, Note_on_c, 15, 33, 0
35, 241936, Note_on_c, 15, 33, 120
35, 242043, Note_on_c, 15, 33, 0
35, 242416, Note_on_c, 15, 33, 100
35, 242523, Note_on_c, 15, 33, 0
35, 242893, Note_on_c, 15, 33, 107
35, 243000, Note_on_c, 15, 33, 0
35, 243132, Note_on_c, 15, 45, 117
35, 243147, Note_on_c, 15, 33, 105
35, 243239, Note_on_c, 15, 45, 0
35, 243254, Note_on_c, 15, 33, 0
35, 243603, Note_on_c, 15, 45, 109
35, 243710, Note_on_c, 15, 45, 0
35, 244322, Note_on_c, 15, 33, 109
35, 244327, Note_on_c, 15, 45, 108
35, 244429, Note_on_c, 15, 33, 0
35, 244434, Note_on_c, 15, 45, 0
35, 244822, Note_on_c, 15, 45, 105
35, 244929, Note_on_c, 15, 45, 0
35, 245521, Note_on_c, 15, 45, 107
35, 245541, Note_on_c, 15, 33, 103
35, 245628, Note_on_c, 15, 45, 0
35, 245648, Note_on_c, 15, 33, 0
35, 246002, Note_on_c, 15, 33, 103
35, 246024, Note_on_c, 15, 45, 114
35, 246109, Note_on_c, 15, 33, 0
35, 246131, Note_on_c, 15, 45, 0
35, 246499, Note_on_c, 15, 45, 107
35, 246606, Note_on_c, 15, 45, 0
35, 247207, Note_on_c, 15, 45, 105
35, 247215, Note_on_c, 15, 33, 104
35, 247314, Note_on_c, 15, 45, 0
35, 247322, Note_on_c, 15, 33, 0
35, 247697, Note_on_c, 15, 45, 120
35, 247804, Note_on_c, 15, 45, 0
35, 256796, Program_c, 15, 45
35, 257053, Note_on_c, 15, 30, 84
35, 257293, Note_on_c, 15, 30, 0
35, 257530, Note_on_c, 15, 29, 75
35, 257770, Note_on_c, 15, 29, 0
35, 258015, Note_on_c, 15, 30, 80
35, 258255, Note_on_c, 15, 30, 0
35, 258503, Note_on_c, 15, 29, 68
35, 258743, Note_on_c, 15, 29, 0
35, 258987, Note_on_c, 15, 30, 65
35, 259227, Note_on_c, 15, 30, 0
35, 264739, Note_on_c, 15, 30, 57
35, 264979, Note_on_c, 15, 30, 0
35, 265216, Note_on_c, 15, 29, 59
35, 265456, Note_on_c, 15, 29, 0
35, 265693, Note_on_c, 15, 30, 56
35, 265933, Note_on_c, 15, 30, 0
35, 266186, Note_on_c, 15, 29, 67
35, 266426, Note_on_c, 15, 29, 0
35, 266653, Note_on_c, 15, 30, 54
35, 266893, Note_on_c, 15, 30, 0
35, 267139, Note_on_c, 15, 29, 61
35, 267379, Note_on_c, 15, 29, 0
35, 267624, Note_on_c, 15, 30, 67
35, 267864, Note_on_c, 15, 30, 0
35, 268094, Note_on_c, 15, 29, 59
35, 268334, Note_on_c, 15, 29, 0
35, 268562, Note_on_c, 15, 30, 54
35, 268802, Note_on_c, 15, 30, 0
35, 269057, Note_on_c, 15, 29, 55
35, 269297, Note_on_c, 15, 29, 0
35, 269527, Note_on_c, 15, 30, 54
35, 269767, Note_on_c, 15, 30, 0
35, 270000, Note_on_c, 15, 29, 82
35, 270240, Note_on_c, 15, 29, 0
35, 270482, Note_on_c, 15, 30, 66
35, 270722, Note_on_c, 15, 30, 0
35, 270971, Note_on_c, 15, 29, 72
35, 271211, Note_on_c, 15, 29, 0
35, 271463, Note_on_c, 15, 30, 74
35, 271703, Note_on_c, 15, 30, 0
35, 271930, Note_on_c, 15, 29, 81
35, 272170, Note_on_c, 15, 29, 0
35, 272411, Note_on_c, 15, 30, 75
35, 272651, Note_on_c, 15, 30, 0
35, 272900, Note_on_c, 15, 29, 78
35, 273140, Note_on_c, 15, 29, 0
35, 273378, Note_on_c, 15, 30, 74
35, 273618, Note_on_c, 15, 30, 0
35, 273863, Note_on_c, 15, 29, 83
35, 274103, Note_on_c, 15, 29, 0
35, 274341, Note_on_c, 15, 30, 69
35, 274581, Note_on_c, 15, 30, 0
35, 274811, Note_on_c, 15, 29, 78
35, 275051, Note_on_c, 15, 29, 0
35, 275284, Note_on_c, 15, 30, 83
35, 275524, Note_on_c, 15, 30, 0
35, 275771, Note_on_c, 15, 29, 82
35, 276011, Note_on_c, 15, 29, 0
35, 276243, Note_on_c, 15, 30, 69
35, 276483, Note_on_c, 15, 30, 0
35, 276745, Note_on_c, 15, 29, 73
35, 276985, Note_on_c, 15, 29, 0
35, 277210, Note_on_c, 15, 30, 71
35, 277450, Note_on_c, 15, 30, 0
35, 277704, Note_on_c, 15, 30, 80
35, 277944, Note_on_c, 15, 30, 0
35, 278174, Note_on_c, 15, 29, 85
35, 278414, Note_on_c, 15, 29, 0
35, 278662, Note_on_c, 15, 30, 81
35, 278902, Note_on_c, 15, 30, 0
35, 279142, Note_on_c, 15, 29, 68
35, 279382, Note_on_c, 15, 29, 0
35, 279610, Note_on_c, 15, 30, 73
35, 279850, Note_on_c, 15, 30, 0
35, 280091, Note_on_c, 15, 30, 70
35, 280331, Note_on_c, 15, 30, 0
35, 280585, Note_on_c, 15, 29, 67
35, 280825, Note_on_c, 15, 29, 0
35, 281067, Note_on_c, 15, 30, 74
35, 281307, Note_on_c, 15, 30, 0
35, 281536, Note_on_c, 15, 29, 74
35, 281776, Note_on_c, 15, 29, 0
35, 282017, Note_on_c, 15, 30, 80
35, 282257, Note_on_c, 15, 30, 0
35, 282507, Note_on_c, 15, 29, 73
35, 282747, Note_on_c, 15, 29, 0
35, 282983, Note_on_c, 15, 30, 71
35, 283223, Note_on_c, 15, 30, 0
35, 283452, Note_on_c, 15, 29, 81
35, 283692, Note_on_c, 15, 29, 0
35, 283941, Note_on_c, 15, 30, 70
35, 284181, Note_on_c, 15, 30, 0
35, 284412, Note_on_c, 15, 29, 84
35, 284652, Note_on_c, 15, 29, 0
35, 284893, Note_on_c, 15, 30, 68
35, 285133, Note_on_c, 15, 30, 0
35, 285368, Note_on_c, 15, 29, 66
35, 285608, Note_on_c, 15, 29, 0
35, 285859, Note_on_c, 15, 30, 80
35, 286099, Note_on_c, 15, 30, 0
35, 286343, Note_on_c, 15, 29, 85
35, 286583, Note_on_c, 15, 29, 0
35, 286826, Note_on_c, 15, 30, 68
35, 287066, Note_on_c, 15, 30, 0
35, 287281, Note_on_c, 15, 29, 84
35, 287521, Note_on_c, 15, 29, 0
35, 287779, Note_on_c, 15, 30, 75
35, 288019, Note_on_c, 15, 30, 0
35, 289200, Program_c, 15, 48
35, 289216, Note_on_c, 15, 41, 100
35, 289456, Note_on_c, 15, 41, 0
35, 290640, Note_on_c, 15, 33, 113
35, 290650, Note_on_c, 15, 45, 112
35, 290747, Note_on_c, 15, 33, 0
35, 290757, Note_on_c, 15, 45, 0
35, 291137, Note_on_c, 15, 45, 104
35, 291244, Note_on_c, 15, 45, 0
35, 291845, Note_on_c, 15, 45, 119
35, 291849, Note_on_c, 15, 33, 109
35, 291952, Note_on_c, 15, 45, 0
35, 291956, Note_on_c, 15, 33, 0
35, 292335, Note_on_c, 15, 45, 111
35, 292442, Note_on_c, 15, 45, 0
35, 293051, Note_on_c, 15, 33, 92
35, 293052, Note_on_c, 15, 45, 88
35, 293291, Note_on_c, 15, 33, 0
35, 293292, Note_on_c, 15, 45, 0
35, 293534, Note_on_c, 15, 45, 81
35, 293774, Note_on_c, 15, 45, 0
35, 294005, Note_on_c, 15, 45, 98
35, 294245, Note_on_c, 15, 45, 0
35, 294506, Note_on_c, 15, 45, 80
35, 294746, Note_on_c, 15, 45, 0
35, 294965, Note_on_c, 15, 45, 86
35, 295205, Note_on_c, 15, 45, 0
35, 295219, Note_on_c, 15, 33, 106
35, 295227, Note_on_c, 15, 45, 111
35, 295326, Note_on_c, 15, 33, 0
35, 295334, Note_on_c, 15, 45, 0
35, 295702, Note_on_c, 15, 45, 118
35, 295809, Note_on_c, 15, 45, 0
35, 296412, Note_on_c, 15, 45, 100
35, 296421, Note_on_c, 15, 33, 102
35, 296519, Note_on_c, 15, 45, 0
35, 296528, Note_on_c, 15, 33, 0
35, 296883, Note_on_c, 15, 45, 115
35, 296898, Note_on_c, 15, 33, 104
35, 296990, Note_on_c, 15, 45, 0
35, 297005, Note_on_c, 15, 33, 0
35, 297384, Note_on_c, 15, 45, 111
35, 297491, Note_on_c, 15, 45, 0
35, 298093, Note_on_c, 15, 33, 103
35, 298103, Note_on_c, 15, 45, 109
35, 298200, Note_on_c, 15, 33, 0
35, 298210, Note_on_c, 15, 45, 0
35, 298563, Note_on_c, 15, 45, 102
35, 298670, Note_on_c, 15, 45, 0
35, 299298, Note_on_c, 15, 33, 106
35, 299405, Note_on_c, 15, 33, 0
35, 299785, Note_on_c, 15, 33, 109
35, 299892, Note_on_c, 15, 33, 0
35, 300244, Note_on_c, 15, 33, 105
35, 300351, Note_on_c, 15, 33, 0
35, 300722, Note_on_c, 15, 45, 119
35, 300725, Note_on_c, 15, 33, 115
35, 300829, Note_on_c, 15, 45, 0
35, 300832, Note_on_c, 15, 33, 0
35, 301211, Note_on_c, 15, 45, 117
35, 301318, Note_on_c, 15, 45, 0
35, 301936, Note_on_c, 15, 33, 109
35, 302043, Note_on_c, 15, 33, 0
35, 302422, Note_on_c, 15, 33, 117
35, 302529, Note_on_c, 15, 33, 0
35, 302889, Note_on_c, 15, 33, 111
35, 302996, Note_on_c, 15, 33, 0
35, 303363, Note_on_c, 15, 33, 106
35, 303470, Note_on_c, 15, 33, 0
35, 303845, Note_on_c, 15, 33, 100
35, 303952, Note_on_c, 15, 33, 0
35, 304092, Note_on_c, 15, 33, 100
35, 304105, Note_on_c, 15, 45, 118
35, 304199, Note_on_c, 15, 33, 0
35, 304212, Note_on_c, 15, 45, 0
35, 304579, Note_on_c, 15, 45, 105
35, 304686, Note_on_c, 15, 45, 0
35, 305289, Note_on_c, 15, 45, 105
35, 305293, Note_on_c, 15, 33, 115
35, 305396, Note_on_c, 15, 45, 0
35, 305400, Note_on_c, 15, 33, 0
35, 305764, Note_on_c, 15, 45, 115
35, 305871, Note_on_c, 15, 45, 0
35, 306499, Note_on_c, 15, 45, 106
35, 306508, Note_on_c, 15, 33, 105
35, 306606, Note_on_c, 15, 45, 0
35, 306615, Note_on_c, 15, 33, 0
35, 306969, Note_on_c, 15, 45, 113
35, 306983, Note_on_c, 15, 33, 110
35, 307076, Note_on_c, 15, 45, 0
35, 307090, Note_on_c, 15, 33, 0
35, 307444, Note_on_c, 15, 45, 100
35, 307551, Note_on_c, 15, 45, 0
35, 308160, Note_on_c, 15, 45, 109
35, 308161, Note_on_c, 15, 33, 107
35, 308267, Note_on_c, 15, 45, 0
35, 308268, Note_on_c, 15, 33, 0
35, 308667, Note_on_c, 15, 45, 117
35, 308774, Note_on_c, 15, 45, 0
35, 312233, Control_c, 15, 11, 127
35, 312250, Control_c, 15, 11, 127
35, 312262, Note_on_c, 15, 30, 111
35, 312266, Control_c, 15, 11, 126
35, 312282, Control_c, 15, 11, 125
35, 312298, Control_c, 15, 11, 124
35, 312315, Control_c, 15, 11, 123
35, 312330, Control_c, 15, 11, 122
35, 312347, Control_c, 15, 11, 121
35, 312363, Control_c, 15, 11, 120
35, 312379, Control_c, 15, 11, 119
35, 312396, Control_c, 15, 11, 118
35, 312412, Control_c, 15, 11, 117
35, 312428, Control_c, 15, 11, 116
35, 312444, Control_c, 15, 11, 115
35, 312460, Control_c, 15, 11, 114
35, 312477, Control_c, 15, 11, 113
35, 312493, Control_c, 15, 11, 112
35, 312509, Control_c, 15, 11, 111
35, 312525, Control_c, 15, 11, 110
35, 312541, Control_c, 15, 11, 109
35, 312558, Control_c, 15, 11, 108
35, 312574, Control_c, 15, 11, 107
35, 312576, Note_on_c, 15, 28, 113
35, 312582, Note_on_c, 15, 30, 0
35, 312590, Control_c, 15, 11, 106
35, 312606, Control_c, 15, 11, 105
35, 312622, Control_c, 15, 11, 104
35, 312638, Control_c, 15, 11, 103
35, 312655, Control_c, 15, 11, 102
35, 312671, Control_c, 15, 11, 101
35, 312687, Control_c, 15, 11, 100
35, 312704, Control_c, 15, 11, 99
35, 312720, Control_c, 15, 11, 98
35, 312736, Control_c, 15, 11, 97
35, 312752, Control_c, 15, 11, 96
35, 312768, Control_c, 15, 11, 95
35, 312785, Control_c, 15, 11, 94
35, 312801, Control_c, 15, 11, 93
35, 312817, Control_c, 15, 11, 92
35, 312833, Control_c, 15, 11, 91
35, 312849, Control_c, 15, 11, 90
35, 312866, Control_c, 15, 11, 89
35, 312882, Control_c, 15, 11, 88
35, 312895, Note_on_c, 15, 28, 0
35, 312898, Control_c, 15, 11, 87
35, 312908, Note_on_c, 15, 27, 112
35, 312914, Control_c, 15, 11, 86
35, 312930, Control_c, 15, 11, 85
35, 312946, Control_c, 15, 11, 84
35, 312963, Control_c, 15, 11, 83
35, 312979, Control_c, 15, 11, 82
35, 312995, Control_c, 15, 11, 81
35, 313012, Control_c, 15, 11, 80
35, 313027, Control_c, 15, 11, 79
35, 313044, Control_c, 15, 11, 78
35, 313060, Control_c, 15, 11, 77
35, 313076, Control_c, 15, 11, 76
35, 313093, Control_c, 15, 11, 75
35, 313109, Control_c, 15, 11, 74
35, 313125, Control_c, 15, 11, 73
35, 313141, Control_c, 15, 11, 72
35, 313157, Control_c, 15, 11, 71
35, 313174, Control_c, 15, 11, 70
35, 313190, Control_c, 15, 11, 69
35, 313206, Control_c, 15, 11, 68
35, 313222, Control_c, 15, 11, 67
35, 313238, Control_c, 15, 11, 66
35, 319930, Note_on_c, 15, 26, 109
35, 319948, Note_on_c, 15, 27, 0
35, 322330, Note_on_c, 15, 26, 0
35, 322338, Note_on_c, 15, 31, 105
35, 322794, Control_c, 15, 11, 127
35, 322809, Control_c, 15, 11, 126
35, 322824, Control_c, 15, 11, 125
35, 322840, Control_c, 15, 11, 124
35, 322855, Control_c, 15, 11, 123
35, 322870, Control_c, 15, 11, 122
35, 322886, Control_c, 15, 11, 121
35, 322901, Control_c, 15, 11, 120
35, 322916, Control_c, 15, 11, 119
35, 322932, Control_c, 15, 11, 118
35, 322947, Control_c, 15, 11, 117
35, 322962, Control_c, 15, 11, 116
35, 322978, Control_c, 15, 11, 115
35, 322993, Control_c, 15, 11, 114
35, 323009, Control_c, 15, 11, 113
35, 323024, Control_c, 15, 11, 112
35, 323039, Control_c, 15, 11, 111
35, 323055, Control_c, 15, 11, 110
35, 323070, Control_c, 15, 11, 109
35, 323085, Control_c, 15, 11, 108
35, 323100, Control_c, 15, 11, 107
35, 323115, Control_c, 15, 11, 106
35, 323131, Control_c, 15, 11, 105
35, 323146, Control_c, 15, 11, 104
35, 323162, Control_c, 15, 11, 103
35, 323177, Control_c, 15, 11, 102
35, 323192, Control_c, 15, 11, 101
35, 323208, Control_c, 15, 11, 100
35, 323223, Control_c, 15, 11, 99
35, 323238, Control_c, 15, 11, 98
35, 323254, Control_c, 15, 11, 97
35, 323269, Control_c, 15, 11, 96
35, 323284, Control_c, 15, 11, 95
35, 323287, Note_on_c, 15, 27, 100
35, 323298, Note_on_c, 15, 31, 0
35, 323300, Control_c, 15, 11, 94
35, 323315, Control_c, 15, 11, 93
35, 323330, Control_c, 15, 11, 92
35, 323346, Control_c, 15, 11, 91
35, 323361, Control_c, 15, 11, 90
35, 323376, Control_c, 15, 11, 89
35, 323392, Control_c, 15, 11, 88
35, 323407, Control_c, 15, 11, 87
35, 323422, Control_c, 15, 11, 86
35, 323437, Control_c, 15, 11, 85
35, 323453, Control_c, 15, 11, 84
35, 323468, Control_c, 15, 11, 83
35, 323483, Control_c, 15, 11, 82
35, 323499, Control_c, 15, 11, 81
35, 323514, Control_c, 15, 11, 80
35, 323529, Control_c, 15, 11, 79
35, 323545, Control_c, 15, 11, 78
35, 323560, Control_c, 15, 11, 77
35, 323576, Control_c, 15, 11, 76
35, 323591, Control_c, 15, 11, 75
35, 323606, Control_c, 15, 11, 74
35, 323622, Control_c, 15, 11, 73
35, 323637, Control_c, 15, 11, 72
35, 323652, Control_c, 15, 11, 71
35, 323668, Control_c, 15, 11, 70
35, 323683, Control_c, 15, 11, 69
35, 323698, Control_c, 15, 11, 68
35, 323714, Control_c, 15, 11, 67
35, 323729, Control_c, 15, 11, 66
35, 323744, Control_c, 15, 11, 65
35, 323800, Control_c, 15, 11, 65
35, 323845, Control_c, 15, 11, 66
35, 323890, Control_c, 15, 11, 67
35, 323935, Control_c, 15, 11, 68
35, 323980, Control_c, 15, 11, 69
35, 324025, Control_c, 15, 11, 70
35, 324070, Control_c, 15, 11, 71
35, 324115, Control_c, 15, 11, 72
35, 324160, Control_c, 15, 11, 73
35, 324206, Control_c, 15, 11, 74
35, 324251, Control_c, 15, 11, 75
35, 324296, Control_c, 15, 11, 76
35, 324341, Control_c, 15, 11, 77
35, 324386, Control_c, 15, 11, 78
35, 324431, Control_c, 15, 11, 79
35, 324476, Control_c, 15, 11, 80
35, 324521, Control_c, 15, 11, 81
35, 324566, Control_c, 15, 11, 82
35, 324611, Control_c, 15, 11, 83
35, 324656, Control_c, 15, 11, 84
35, 324701, Control_c, 15, 11, 85
35, 324746, Control_c, 15, 11, 86
35, 324792, Control_c, 15, 11, 87
35, 324837, Control_c, 15, 11, 88
35, 324882, Control_c, 15, 11, 89
35, 324927, Control_c, 15, 11, 90
35, 324972, Control_c, 15, 11, 91
35, 325017, Control_c, 15, 11, 92
35, 325062, Control_c, 15, 11, 93
35, 325107, Control_c, 15, 11, 94
35, 325152, Control_c, 15, 11, 95
35, 325197, Control_c, 15, 11, 96
35, 325242, Control_c, 15, 11, 97
35, 325287, Control_c, 15, 11, 98
35, 325332, Control_c, 15, 11, 99
35, 325378, Control_c, 15, 11, 100
35, 325423, Control_c, 15, 11, 101
35, 325468, Control_c, 15, 11, 102
35, 325513, Control_c, 15, 11, 103
35, 325558, Control_c, 15, 11, 104
35, 325603, Control_c, 15, 11, 105
35, 325648, Control_c, 15, 11, 106
35, 325693, Control_c, 15, 11, 107
35, 325738, Control_c, 15, 11, 108
35, 325783, Control_c, 15, 11, 109
35, 325828, Control_c, 15, 11, 110
35, 325873, Control_c, 15, 11, 111
35, 325919, Control_c, 15, 11, 112
35, 325964, Control_c, 15, 11, 113
35, 326009, Control_c, 15, 11, 114
35, 326054, Control_c, 15, 11, 115
35, 326099, Control_c, 15, 11, 116
35, 326144, Control_c, 15, 11, 117
35, 326189, Control_c, 15, 11, 118
35, 326234, Control_c, 15, 11, 119
35, 326279, Control_c, 15, 11, 120
35, 326324, Control_c, 15, 11, 121
35, 326369, Control_c, 15, 11, 122
35, 326414, Control_c, 15, 11, 123
35, 326459, Control_c, 15, 11, 124
35, 326505, Control_c, 15, 11, 125
35, 326550, Control_c, 15, 11, 126
35, 326595, Control_c, 15, 11, 127
35, 326647, Note_on_c, 15, 27, 0
35, 326647, Note_on_c, 15, 30, 112
35, 326967, Note_on_c, 15, 30, 0
35, 326974, Note_on_c, 15, 28, 107
35, 327293, Note_on_c, 15, 28, 0
35, 327306, Note_on_c, 15, 27, 114
35, 327381, Control_c, 15, 11, 127
35, 327415, Control_c, 15, 11, 126
35, 327449, Control_c, 15, 11, 125
35, 327483, Control_c, 15, 11, 124
35, 327517, Control_c, 15, 11, 123
35, 327551, Control_c, 15, 11, 122
35, 327585, Control_c, 15, 11, 121
35, 327619, Control_c, 15, 11, 120
35, 327653, Control_c, 15, 11, 119
35, 327687, Control_c, 15, 11, 118
35, 327720, Control_c, 15, 11, 117
35, 327755, Control_c, 15, 11, 116
35, 327788, Control_c, 15, 11, 115
35, 327823, Control_c, 15, 11, 114
35, 327856, Control_c, 15, 11, 113
35, 327891, Control_c, 15, 11, 112
35, 327924, Control_c, 15, 11, 111
35, 327958, Control_c, 15, 11, 110
35, 327992, Control_c, 15, 11, 109
35, 328026, Control_c, 15, 11, 108
35, 328060, Control_c, 15, 11, 107
35, 328094, Control_c, 15, 11, 106
35, 328128, Control_c, 15, 11, 105
35, 328162, Control_c, 15, 11, 104
35, 328196, Control_c, 15, 11, 103
35, 328230, Control_c, 15, 11, 102
35, 328264, Control_c, 15, 11, 101
35, 328297, Control_c, 15, 11, 100
35, 328332, Control_c, 15, 11, 99
35, 328365, Control_c, 15, 11, 98
35, 328400, Control_c, 15, 11, 97
35, 328433, Control_c, 15, 11, 96
35, 328467, Control_c, 15, 11, 95
35, 328501, Control_c, 15, 11, 94
35, 328535, Control_c, 15, 11, 93
35, 328569, Control_c, 15, 11, 92
35, 328603, Control_c, 15, 11, 91
35, 328637, Control_c, 15, 11, 90
35, 328671, Control_c, 15, 11, 89
35, 328705, Control_c, 15, 11, 88
35, 328739, Control_c, 15, 11, 87
35, 328773, Control_c, 15, 11, 86
35, 328807, Control_c, 15, 11, 85
35, 328841, Control_c, 15, 11, 84
35, 328875, Control_c, 15, 11, 83
35, 328909, Control_c, 15, 11, 82
35, 328942, Control_c, 15, 11, 81
35, 328977, Control_c, 15, 11, 80
35, 329010, Control_c, 15, 11, 79
35, 329044, Control_c, 15, 11, 78
35, 329078, Control_c, 15, 11, 77
35, 329112, Control_c, 15, 11, 76
35, 329146, Control_c, 15, 11, 75
35, 329180, Control_c, 15, 11, 74
35, 329214, Control_c, 15, 11, 73
35, 329248, Control_c, 15, 11, 72
35, 329282, Control_c, 15, 11, 71
35, 329316, Control_c, 15, 11, 70
35, 329350, Control_c, 15, 11, 69
35, 329384, Control_c, 15, 11, 68
35, 329418, Control_c, 15, 11, 67
35, 329452, Control_c, 15, 11, 66
35, 329486, Control_c, 15, 11, 65
35, 331920, Control_c, 15, 11, 64
35, 331965, Control_c, 15, 11, 65
35, 332010, Control_c, 15, 11, 66
35, 332055, Control_c, 15, 11, 67
35, 332100, Control_c, 15, 11, 68
35, 332145, Control_c, 15, 11, 69
35, 332190, Control_c, 15, 11, 70
35, 332235, Control_c, 15, 11, 71
35, 332280, Control_c, 15, 11, 72
35, 332325, Control_c, 15, 11, 73
35, 332370, Control_c, 15, 11, 74
35, 332415, Control_c, 15, 11, 75
35, 332460, Control_c, 15, 11, 76
35, 332505, Control_c, 15, 11, 77
35, 332550, Control_c, 15, 11, 78
35, 332595, Control_c, 15, 11, 79
35, 332640, Control_c, 15, 11, 80
35, 332685, Control_c, 15, 11, 81
35, 332730, Control_c, 15, 11, 82
35, 332775, Control_c, 15, 11, 83
35, 332820, Control_c, 15, 11, 84
35, 332865, Control_c, 15, 11, 85
35, 332910, Control_c, 15, 11, 86
35, 332955, Control_c, 15, 11, 87
35, 333000, Control_c, 15, 11, 88
35, 333045, Control_c, 15, 11, 89
35, 333090, Control_c, 15, 11, 90
35, 333135, Control_c, 15, 11, 91
35, 333180, Control_c, 15, 11, 92
35, 333225, Control_c, 15, 11, 93
35, 333270, Control_c, 15, 11, 94
35, 333315, Control_c, 15, 11, 95
35, 333360, Control_c, 15, 11, 96
35, 333405, Control_c, 15, 11, 97
35, 333450, Control_c, 15, 11, 98
35, 333495, Control_c, 15, 11, 99
35, 333540, Control_c, 15, 11, 100
35, 333585, Control_c, 15, 11, 101
35, 333630, Control_c, 15, 11, 102
35, 333675, Control_c, 15, 11, 103
35, 333720, Control_c, 15, 11, 104
35, 333765, Control_c, 15, 11, 105
35, 333810, Control_c, 15, 11, 106
35, 333855, Control_c, 15, 11, 107
35, 333900, Control_c, 15, 11, 108
35, 333945, Control_c, 15, 11, 109
35, 333990, Control_c, 15, 11, 110
35, 334035, Control_c, 15, 11, 111
35, 334080, Control_c, 15, 11, 112
35, 334125, Control_c, 15, 11, 113
35, 334170, Control_c, 15, 11, 114
35, 334215, Control_c, 15, 11, 115
35, 334260, Control_c, 15, 11, 116
35, 334305, Control_c, 15, 11, 117
35, 334350, Control_c, 15, 11, 118
35, 334395, Control_c, 15, 11, 119
35, 334440, Control_c, 15, 11, 120
35, 334485, Control_c, 15, 11, 121
35, 334530, Control_c, 15, 11, 122
35, 334575, Control_c, 15, 11, 123
35, 334620, Control_c, 15, 11, 124
35, 334665, Control_c, 15, 11, 125
35, 334710, Control_c, 15, 11, 126
35, 334755, Control_c, 15, 11, 127
35, 334809, Control_c, 15, 11, 127
35, 334816, Note_on_c, 15, 30, 123
35, 334826, Note_on_c, 15, 27, 0
35, 334826, Control_c, 15, 11, 126
35, 334843, Control_c, 15, 11, 125
35, 334860, Control_c, 15, 11, 124
35, 334876, Control_c, 15, 11, 123
35, 334893, Control_c, 15, 11, 122
35, 334910, Control_c, 15, 11, 121
35, 334927, Control_c, 15, 11, 120
35, 334943, Control_c, 15, 11, 119
35, 334960, Control_c, 15, 11, 118
35, 334977, Control_c, 15, 11, 117
35, 334994, Control_c, 15, 11, 116
35, 335010, Control_c, 15, 11, 115
35, 335027, Control_c, 15, 11, 114
35, 335044, Control_c, 15, 11, 113
35, 335061, Control_c, 15, 11, 112
35, 335078, Control_c, 15, 11, 111
35, 335094, Control_c, 15, 11, 110
35, 335111, Control_c, 15, 11, 109
35, 335128, Control_c, 15, 11, 108
35, 335134, Note_on_c, 15, 28, 116
35, 335136, Note_on_c, 15, 30, 0
35, 335145, Control_c, 15, 11, 107
35, 335162, Control_c, 15, 11, 106
35, 335178, Control_c, 15, 11, 105
35, 335195, Control_c, 15, 11, 104
35, 335212, Control_c, 15, 11, 103
35, 335229, Control_c, 15, 11, 102
35, 335246, Control_c, 15, 11, 101
35, 335262, Control_c, 15, 11, 100
35, 335279, Control_c, 15, 11, 99
35, 335296, Control_c, 15, 11, 98
35, 335313, Control_c, 15, 11, 97
35, 335330, Control_c, 15, 11, 96
35, 335346, Control_c, 15, 11, 95
35, 335363, Control_c, 15, 11, 94
35, 335380, Control_c, 15, 11, 93
35, 335397, Control_c, 15, 11, 92
35, 335413, Control_c, 15, 11, 91
35, 335430, Control_c, 15, 11, 90
35, 335442, Note_on_c, 15, 27, 111
35, 335447, Control_c, 15, 11, 89
35, 335453, Note_on_c, 15, 28, 0
35, 335464, Control_c, 15, 11, 88
35, 335481, Control_c, 15, 11, 87
35, 335497, Control_c, 15, 11, 86
35, 335514, Control_c, 15, 11, 85
35, 335531, Control_c, 15, 11, 84
35, 335548, Control_c, 15, 11, 83
35, 335565, Control_c, 15, 11, 82
35, 335581, Control_c, 15, 11, 81
35, 335598, Control_c, 15, 11, 80
35, 335615, Control_c, 15, 11, 79
35, 335632, Control_c, 15, 11, 78
35, 335648, Control_c, 15, 11, 77
35, 335665, Control_c, 15, 11, 76
35, 335682, Control_c, 15, 11, 75
35, 335699, Control_c, 15, 11, 74
35, 335715, Control_c, 15, 11, 73
35, 335732, Control_c, 15, 11, 72
35, 335749, Control_c, 15, 11, 71
35, 335766, Control_c, 15, 11, 70
35, 335782, Control_c, 15, 11, 69
35, 335799, Control_c, 15, 11, 68
35, 335816, Control_c, 15, 11, 67
35, 335833, Control_c, 15, 11, 66
35, 341514, Control_c, 15, 11, 127
35, 341520, Control_c, 15, 11, 127
35, 341522, Note_on_c, 15, 27, 0
35, 341542, Note_on_c, 15, 31, 96
35, 342497, Note_on_c, 15, 27, 106
35, 342502, Note_on_c, 15, 31, 0
35, 346337, Note_on_c, 15, 27, 0
35, 346346, Note_on_c, 15, 31, 97
35, 347298, Note_on_c, 15, 27, 93
35, 347306, Note_on_c, 15, 31, 0
35, 349698, Note_on_c, 15, 27, 0
35, 349700, Note_on_c, 15, 31, 108
35, 350646, Note_on_c, 15, 27, 109
35, 350660, Note_on_c, 15, 31, 0
35, 351120, Control_c, 15, 11, 127
35, 351142, Control_c, 15, 11, 127
35, 351165, Control_c, 15, 11, 126
35, 351187, Control_c, 15, 11, 125
35, 351210, Control_c, 15, 11, 124
35, 351232, Control_c, 15, 11, 123
35, 351255, Control_c, 15, 11, 122
35, 351277, Control_c, 15, 11, 121
35, 351300, Control_c, 15, 11, 120
35, 351322, Control_c, 15, 11, 119
35, 351345, Control_c, 15, 11, 118
35, 351367, Control_c, 15, 11, 117
35, 351390, Control_c, 15, 11, 116
35, 351412, Control_c, 15, 11, 115
35, 351435, Control_c, 15, 11, 114
35, 351457, Control_c, 15, 11, 113
35, 351480, Control_c, 15, 11, 112
35, 351502, Control_c, 15, 11, 111
35, 351525, Control_c, 15, 11, 110
35, 351547, Control_c, 15, 11, 109
35, 351570, Control_c, 15, 11, 108
35, 351592, Control_c, 15, 11, 107
35, 351615, Control_c, 15, 11, 106
35, 351637, Control_c, 15, 11, 105
35, 351660, Control_c, 15, 11, 104
35, 351682, Control_c, 15, 11, 103
35, 351705, Control_c, 15, 11, 102
35, 351727, Control_c, 15, 11, 101
35, 351750, Control_c, 15, 11, 100
35, 351772, Control_c, 15, 11, 99
35, 351795, Control_c, 15, 11, 98
35, 351817, Control_c, 15, 11, 97
35, 351840, Control_c, 15, 11, 96
35, 351862, Control_c, 15, 11, 95
35, 351885, Control_c, 15, 11, 94
35, 351907, Control_c, 15, 11, 93
35, 351930, Control_c, 15, 11, 92
35, 351952, Control_c, 15, 11, 91
35, 351975, Control_c, 15, 11, 90
35, 351997, Control_c, 15, 11, 89
35, 352020, Control_c, 15, 11, 88
35, 352042, Control_c, 15, 11, 87
35, 352065, Control_c, 15, 11, 86
35, 352087, Control_c, 15, 11, 85
35, 352110, Control_c, 15, 11, 84
35, 352132, Control_c, 15, 11, 83
35, 352155, Control_c, 15, 11, 82
35, 352177, Control_c, 15, 11, 81
35, 352200, Control_c, 15, 11, 80
35, 352222, Control_c, 15, 11, 79
35, 352245, Control_c, 15, 11, 78
35, 352267, Control_c, 15, 11, 77
35, 352290, Control_c, 15, 11, 76
35, 352312, Control_c, 15, 11, 75
35, 352335, Control_c, 15, 11, 74
35, 352357, Control_c, 15, 11, 73
35, 352380, Control_c, 15, 11, 72
35, 352402, Control_c, 15, 11, 71
35, 352425, Control_c, 15, 11, 70
35, 352447, Control_c, 15, 11, 69
35, 352470, Control_c, 15, 11, 68
35, 352492, Control_c, 15, 11, 67
35, 352515, Control_c, 15, 11, 66
35, 352537, Control_c, 15, 11, 65
35, 354960, Control_c, 15, 11, 64
35, 355005, Control_c, 15, 11, 65
35, 355050, Control_c, 15, 11, 66
35, 355095, Control_c, 15, 11, 67
35, 355140, Control_c, 15, 11, 68
35, 355185, Control_c, 15, 11, 69
35, 355230, Control_c, 15, 11, 70
35, 355275, Control_c, 15, 11, 71
35, 355320, Control_c, 15, 11, 72
35, 355365, Control_c, 15, 11, 73
35, 355410, Control_c, 15, 11, 74
35, 355455, Control_c, 15, 11, 75
35, 355500, Control_c, 15, 11, 76
35, 355545, Control_c, 15, 11, 77
35, 355590, Control_c, 15, 11, 78
35, 355635, Control_c, 15, 11, 79
35, 355680, Control_c, 15, 11, 80
35, 355725, Control_c, 15, 11, 81
35, 355770, Control_c, 15, 11, 82
35, 355815, Control_c, 15, 11, 83
35, 355860, Control_c, 15, 11, 84
35, 355905, Control_c, 15, 11, 85
35, 355950, Control_c, 15, 11, 86
35, 355995, Control_c, 15, 11, 87
35, 356040, Control_c, 15, 11, 88
35, 356085, Control_c, 15, 11, 89
35, 356130, Control_c, 15, 11, 90
35, 356175, Control_c, 15, 11, 91
35, 356220, Control_c, 15, 11, 92
35, 356265, Control_c, 15, 11, 93
35, 356310, Control_c, 15, 11, 94
35, 356355, Control_c, 15, 11, 95
35, 356400, Control_c, 15, 11, 96
35, 356445, Control_c, 15, 11, 97
35, 356490, Control_c, 15, 11, 98
35, 356535, Control_c, 15, 11, 99
35, 356580, Control_c, 15, 11, 100
35, 356625, Control_c, 15, 11, 101
35, 356670, Control_c, 15, 11, 102
35, 356715, Control_c, 15, 11, 103
35, 356760, Control_c, 15, 11, 104
35, 356805, Control_c, 15, 11, 105
35, 356850, Control_c, 15, 11, 106
35, 356895, Control_c, 15, 11, 107
35, 356940, Control_c, 15, 11, 108
35, 356985, Control_c, 15, 11, 109
35, 357030, Control_c, 15, 11, 110
35, 357075, Control_c, 15, 11, 111
35, 357120, Control_c, 15, 11, 112
35, 357165, Control_c, 15, 11, 113
35, 357210, Control_c, 15, 11, 114
35, 357255, Control_c, 15, 11, 115
35, 357300, Control_c, 15, 11, 116
35, 357345, Control_c, 15, 11, 117
35, 357390, Control_c, 15, 11, 118
35, 357435, Control_c, 15, 11, 119
35, 357480, Control_c, 15, 11, 120
35, 357525, Control_c, 15, 11, 121
35, 357570, Control_c, 15, 11, 122
35, 357615, Control_c, 15, 11, 123
35, 357660, Control_c, 15, 11, 124
35, 357705, Control_c, 15, 11, 125
35, 357750, Control_c, 15, 11, 126
35, 357795, Control_c, 15, 11, 127
35, 357840, Note_on_c, 15, 30, 115
35, 357846, Note_on_c, 15, 27, 0
35, 358160, Note_on_c, 15, 30, 0
35, 358173, Note_on_c, 15, 28, 116
35, 358486, Note_on_c, 15, 27, 108
35, 358492, Note_on_c, 15, 28, 0
35, 358784, Control_c, 15, 11, 127
35, 358805, Control_c, 15, 11, 126
35, 358825, Control_c, 15, 11, 125
35, 358845, Control_c, 15, 11, 124
35, 358866, Control_c, 15, 11, 123
35, 358886, Control_c, 15, 11, 122
35, 358906, Control_c, 15, 11, 121
35, 358927, Control_c, 15, 11, 120
35, 358947, Control_c, 15, 11, 119
35, 358968, Control_c, 15, 11, 118
35, 358988, Control_c, 15, 11, 117
35, 359009, Control_c, 15, 11, 116
35, 359029, Control_c, 15, 11, 115
35, 359049, Control_c, 15, 11, 114
35, 359070, Control_c, 15, 11, 113
35, 359090, Control_c, 15, 11, 112
35, 359110, Control_c, 15, 11, 111
35, 359130, Control_c, 15, 11, 110
35, 359151, Control_c, 15, 11, 109
35, 359171, Control_c, 15, 11, 108
35, 359192, Control_c, 15, 11, 107
35, 359212, Control_c, 15, 11, 106
35, 359233, Control_c, 15, 11, 105
35, 359253, Control_c, 15, 11, 104
35, 359273, Control_c, 15, 11, 103
35, 359294, Control_c, 15, 11, 102
35, 359314, Control_c, 15, 11, 101
35, 359334, Control_c, 15, 11, 100
35, 359355, Control_c, 15, 11, 99
35, 359375, Control_c, 15, 11, 98
35, 359395, Control_c, 15, 11, 97
35, 359416, Control_c, 15, 11, 96
35, 359436, Control_c, 15, 11, 95
35, 359457, Control_c, 15, 11, 94
35, 359477, Control_c, 15, 11, 93
35, 359497, Control_c, 15, 11, 92
35, 359518, Control_c, 15, 11, 91
35, 359538, Control_c, 15, 11, 90
35, 359558, Control_c, 15, 11, 89
35, 359579, Control_c, 15, 11, 88
35, 359599, Control_c, 15, 11, 87
35, 359619, Control_c, 15, 11, 86
35, 359640, Control_c, 15, 11, 85
35, 359660, Control_c, 15, 11, 84
35, 359681, Control_c, 15, 11, 83
35, 359701, Control_c, 15, 11, 82
35, 359722, Control_c, 15, 11, 81
35, 359742, Control_c, 15, 11, 80
35, 359762, Control_c, 15, 11, 79
35, 359782, Control_c, 15, 11, 78
35, 359803, Control_c, 15, 11, 77
35, 359823, Control_c, 15, 11, 76
35, 359843, Control_c, 15, 11, 75
35, 359864, Control_c, 15, 11, 74
35, 359884, Control_c, 15, 11, 73
35, 359905, Control_c, 15, 11, 72
35, 359925, Control_c, 15, 11, 71
35, 359946, Control_c, 15, 11, 70
35, 359966, Control_c, 15, 11, 69
35, 359986, Control_c, 15, 11, 68
35, 360007, Control_c, 15, 11, 67
35, 360027, Control_c, 15, 11, 66
35, 360047, Control_c, 15, 11, 65
35, 360067, Control_c, 15, 11, 64
35, 360088, Control_c, 15, 11, 63
35, 360108, Control_c, 15, 11, 62
35, 360129, Control_c, 15, 11, 61
35, 360149, Control_c, 15, 11, 60
35, 360170, Control_c, 15, 11, 59
35, 360190, Control_c, 15, 11, 58
35, 360210, Control_c, 15, 11, 57
35, 360231, Control_c, 15, 11, 56
35, 360251, Control_c, 15, 11, 55
35, 360271, Control_c, 15, 11, 54
35, 360292, Control_c, 15, 11, 53
35, 360312, Control_c, 15, 11, 52
35, 360332, Control_c, 15, 11, 51
35, 360353, Control_c, 15, 11, 50
35, 360373, Control_c, 15, 11, 49
35, 360394, Control_c, 15, 11, 48
35, 360414, Control_c, 15, 11, 47
35, 360435, Control_c, 15, 11, 46
35, 360455, Control_c, 15, 11, 45
35, 360475, Control_c, 15, 11, 44
35, 360495, Control_c, 15, 11, 43
35, 360516, Control_c, 15, 11, 42
35, 360536, Control_c, 15, 11, 41
35, 360556, Control_c, 15, 11, 40
35, 360577, Control_c, 15, 11, 39
35, 360597, Control_c, 15, 11, 38
35, 360618, Control_c, 15, 11, 37
35, 360638, Control_c, 15, 11, 36
35, 360659, Control_c, 15, 11, 35
35, 360679, Control_c, 15, 11, 34
35, 360699, Control_c, 15, 11, 33
35, 362646, Note_on_c, 15, 27, 0
35, 362650, Note_on_c, 15, 26, 109
35, 364090, Note_on_c, 15, 26, 0
35, 364106, Note_on_c, 15, 27, 109
35, 378515, Control_c, 15, 11, 33
35, 378556, Control_c, 15, 11, 34
35, 378596, Control_c, 15, 11, 35
35, 378637, Control_c, 15, 11, 36
35, 378677, Control_c, 15, 11, 37
35, 378718, Control_c, 15, 11, 38
35, 378758, Control_c, 15, 11, 39
35, 378799, Control_c, 15, 11, 40
35, 378839, Control_c, 15, 11, 41
35, 378880, Control_c, 15, 11, 42
35, 378920, Control_c, 15, 11, 43
35, 378960, Control_c, 15, 11, 44
35, 379001, Control_c, 15, 11, 45
35, 379042, Control_c, 15, 11, 46
35, 379082, Control_c, 15, 11, 47
35, 379123, Control_c, 15, 11, 48
35, 379163, Control_c, 15, 11, 49
35, 379204, Control_c, 15, 11, 50
35, 379244, Control_c, 15, 11, 51
35, 379284, Control_c, 15, 11, 52
35, 379325, Control_c, 15, 11, 53
35, 379365, Control_c, 15, 11, 54
35, 379406, Control_c, 15, 11, 55
35, 379447, Control_c, 15, 11, 56
35, 379487, Control_c, 15, 11, 57
35, 379527, Control_c, 15, 11, 58
35, 379568, Control_c, 15, 11, 59
35, 379608, Control_c, 15, 11, 60
35, 379649, Control_c, 15, 11, 61
35, 379689, Control_c, 15, 11, 62
35, 379730, Control_c, 15, 11, 63
35, 379770, Control_c, 15, 11, 64
35, 379811, Control_c, 15, 11, 65
35, 379851, Control_c, 15, 11, 66
35, 379892, Control_c, 15, 11, 67
35, 379932, Control_c, 15, 11, 68
35, 379972, Control_c, 15, 11, 69
35, 380013, Control_c, 15, 11, 70
35, 380054, Control_c, 15, 11, 71
35, 380094, Control_c, 15, 11, 72
35, 380135, Control_c, 15, 11, 73
35, 380175, Control_c, 15, 11, 74
35, 380216, Control_c, 15, 11, 75
35, 380256, Control_c, 15, 11, 76
35, 380296, Control_c, 15, 11, 77
35, 380337, Control_c, 15, 11, 78
35, 380377, Control_c, 15, 11, 79
35, 380418, Control_c, 15, 11, 80
35, 380459, Control_c, 15, 11, 81
35, 380499, Control_c, 15, 11, 82
35, 380540, Control_c, 15, 11, 83
35, 380580, Control_c, 15, 11, 84
35, 380620, Control_c, 15, 11, 85
35, 380661, Control_c, 15, 11, 86
35, 380701, Control_c, 15, 11, 87
35, 380742, Control_c, 15, 11, 88
35, 380782, Control_c, 15, 11, 89
35, 380823, Control_c, 15, 11, 90
35, 380864, Control_c, 15, 11, 91
35, 380904, Control_c, 15, 11, 92
35, 380944, Control_c, 15, 11, 93
35, 380985, Control_c, 15, 11, 94
35, 381025, Control_c, 15, 11, 95
35, 381066, Control_c, 15, 11, 96
35, 381106, Control_c, 15, 11, 97
35, 381147, Control_c, 15, 11, 98
35, 381187, Control_c, 15, 11, 99
35, 381228, Control_c, 15, 11, 100
35, 381268, Control_c, 15, 11, 101
35, 381309, Control_c, 15, 11, 102
35, 381349, Control_c, 15, 11, 103
35, 381390, Control_c, 15, 11, 104
35, 381430, Control_c, 15, 11, 105
35, 381471, Control_c, 15, 11, 106
35, 381511, Control_c, 15, 11, 107
35, 381552, Control_c, 15, 11, 108
35, 381592, Control_c, 15, 11, 109
35, 381632, Control_c, 15, 11, 110
35, 381673, Control_c, 15, 11, 111
35, 381713, Control_c, 15, 11, 112
35, 381754, Control_c, 15, 11, 113
35, 381795, Control_c, 15, 11, 114
35, 381835, Control_c, 15, 11, 115
35, 381876, Control_c, 15, 11, 116
35, 381916, Control_c, 15, 11, 117
35, 381956, Control_c, 15, 11, 118
35, 381997, Control_c, 15, 11, 119
35, 382037, Control_c, 15, 11, 120
35, 382078, Control_c, 15, 11, 121
35, 382118, Control_c, 15, 11, 122
35, 382159, Control_c, 15, 11, 123
35, 382200, Control_c, 15, 11, 124
35, 382240, Control_c, 15, 11, 125
35, 382280, Control_c, 15, 11, 126
35, 382321, Control_c, 15, 11, 127
35, 382327, Note_on_c, 15, 30, 106
35, 382346, Note_on_c, 15, 27, 0
35, 382647, Note_on_c, 15, 30, 0
35, 382658, Note_on_c, 15, 28, 121
35, 382977, Note_on_c, 15, 28, 0
35, 382987, Note_on_c, 15, 27, 121
35, 385701, Note_on_c, 15, 26, 120
35, 385707, Note_on_c, 15, 27, 0
35, 386181, Note_on_c, 15, 26, 0
35, 387600, Program_c, 15, 45
35, 387602, Note_on_c, 15, 26, 50
35, 387609, Note_on_c, 15, 38, 42
35, 388078, Note_on_c, 15, 26, 0
35, 388084, Note_on_c, 15, 38, 0
35, 388097, Note_on_c, 15, 26, 58
35, 388103, Note_on_c, 15, 38, 48
35, 388544, Note_on_c, 15, 26, 0
35, 388562, Note_on_c, 15, 38, 0
35, 388564, Note_on_c, 15, 26, 52
35, 388582, Note_on_c, 15, 38, 49
35, 389023, Note_on_c, 15, 26, 0
35, 389034, Note_on_c, 15, 38, 0
35, 389042, Note_on_c, 15, 26, 57
35, 389053, Note_on_c, 15, 38, 44
35, 389504, Note_on_c, 15, 38, 0
35, 389522, Note_on_c, 15, 26, 0
35, 389523, Note_on_c, 15, 38, 50
35, 389547, Note_on_c, 15, 26, 42
35, 389989, Note_on_c, 15, 26, 0
35, 390002, Note_on_c, 15, 38, 0
35, 390008, Note_on_c, 15, 26, 54
35, 390021, Note_on_c, 15, 38, 53
35, 390464, Note_on_c, 15, 26, 0
35, 390470, Note_on_c, 15, 38, 0
35, 390483, Note_on_c, 15, 26, 51
35, 390490, Note_on_c, 15, 38, 40
35, 390955, Note_on_c, 15, 38, 0
35, 390963, Note_on_c, 15, 26, 0
35, 390974, Note_on_c, 15, 38, 48
35, 390986, Note_on_c, 15, 26, 50
35, 391432, Note_on_c, 15, 26, 0
35, 391447, Note_on_c, 15, 38, 0
35, 391451, Note_on_c, 15, 26, 52
35, 391466, Note_on_c, 15, 38, 56
35, 391908, Note_on_c, 15, 26, 0
35, 391908, Note_on_c, 15, 38, 0
35, 391928, Note_on_c, 15, 26, 49
35, 391928, Note_on_c, 15, 38, 52
35, 392388, Note_on_c, 15, 26, 0
35, 392394, Note_on_c, 15, 38, 0
35, 392407, Note_on_c, 15, 26, 40
35, 392413, Note_on_c, 15, 38, 56
35, 392864, Note_on_c, 15, 26, 0
35, 392865, Note_on_c, 15, 38, 0
35, 392883, Note_on_c, 15, 26, 52
35, 392884, Note_on_c, 15, 38, 58
35, 393359, Note_on_c, 15, 26, 0
35, 393361, Note_on_c, 15, 38, 0
35, 393378, Note_on_c, 15, 26, 53
35, 393381, Note_on_c, 15, 38, 47
35, 393825, Note_on_c, 15, 26, 0
35, 393844, Note_on_c, 15, 26, 57
35, 393846, Note_on_c, 15, 38, 0
35, 393865, Note_on_c, 15, 38, 54
35, 394302, Note_on_c, 15, 38, 0
35, 394310, Note_on_c, 15, 26, 0
35, 394321, Note_on_c, 15, 38, 54
35, 394329, Note_on_c, 15, 26, 50
35, 394788, Note_on_c, 15, 26, 0
35, 394794, Note_on_c, 15, 38, 0
35, 394807, Note_on_c, 15, 26, 41
35, 394814, Note_on_c, 15, 38, 47
35, 395260, Note_on_c, 15, 26, 0
35, 395264, Note_on_c, 15, 38, 0
35, 395280, Note_on_c, 15, 26, 54
35, 395283, Note_on_c, 15, 38, 48
35, 395744, Note_on_c, 15, 38, 0
35, 395760, Note_on_c, 15, 26, 0
35, 395764, Note_on_c, 15, 38, 46
35, 395779, Note_on_c, 15, 26, 39
35, 396229, Note_on_c, 15, 38, 0
35, 396232, Note_on_c, 15, 26, 0
35, 396248, Note_on_c, 15, 38, 51
35, 396251, Note_on_c, 15, 26, 39
35, 396714, Note_on_c, 15, 38, 0
35, 396720, Note_on_c, 15, 26, 0
35, 396734, Note_on_c, 15, 38, 53
35, 396740, Note_on_c, 15, 26, 59
35, 397190, Note_on_c, 15, 26, 0
35, 397207, Note_on_c, 15, 38, 0
35, 397209, Note_on_c, 15, 26, 44
35, 397226, Note_on_c, 15, 38, 44
35, 397687, Note_on_c, 15, 38, 0
35, 397689, Note_on_c, 15, 26, 0
35, 397706, Note_on_c, 15, 38, 47
35, 397709, Note_on_c, 15, 26, 53
35, 398142, Note_on_c, 15, 26, 0
35, 398159, Note_on_c, 15, 38, 0
35, 398161, Note_on_c, 15, 26, 39
35, 398178, Note_on_c, 15, 38, 52
35, 398637, Note_on_c, 15, 38, 0
35, 398640, Note_on_c, 15, 26, 0
35, 398656, Note_on_c, 15, 38, 42
35, 398659, Note_on_c, 15, 26, 54
35, 399119, Note_on_c, 15, 38, 0
35, 399122, Note_on_c, 15, 26, 0
35, 399139, Note_on_c, 15, 38, 47
35, 399142, Note_on_c, 15, 26, 56
35, 399606, Note_on_c, 15, 26, 0
35, 399608, Note_on_c, 15, 38, 0
35, 399625, Note_on_c, 15, 26, 51
35, 399627, Note_on_c, 15, 38, 54
35, 400073, Note_on_c, 15, 26, 0
35, 400087, Note_on_c, 15, 38, 0
35, 400092, Note_on_c, 15, 26, 41
35, 400106, Note_on_c, 15, 38, 56
35, 400541, Note_on_c, 15, 38, 0
35, 400560, Note_on_c, 15, 38, 55
35, 400564, Note_on_c, 15, 26, 0
35, 400583, Note_on_c, 15, 26, 47
35, 401040, Note_on_c, 15, 38, 0
35, 401046, Note_on_c, 15, 26, 0
35, 401048, Note_on_c, 15, 38, 53
35, 401066, Note_on_c, 15, 26, 50
35, 401518, Note_on_c, 15, 26, 0
35, 401527, Note_on_c, 15, 38, 0
35, 401537, Note_on_c, 15, 26, 51
35, 401546, Note_on_c, 15, 38, 57
35, 401998, Note_on_c, 15, 38, 0
35, 402008, Note_on_c, 15, 26, 0
35, 402017, Note_on_c, 15, 38, 42
35, 402027, Note_on_c, 15, 26, 54
35, 402463, Note_on_c, 15, 26, 0
35, 402472, Note_on_c, 15, 38, 0
35, 402483, Note_on_c, 15, 26, 42
35, 402492, Note_on_c, 15, 38, 48
35, 402963, Note_on_c, 15, 26, 0
35, 402964, Note_on_c, 15, 38, 0
35, 402983, Note_on_c, 15, 38, 50
35, 402988, Note_on_c, 15, 26, 43
35, 403423, Note_on_c, 15, 26, 0
35, 403432, Note_on_c, 15, 38, 0
35, 403442, Note_on_c, 15, 26, 44
35, 403452, Note_on_c, 15, 38, 39
35, 403908, Note_on_c, 15, 26, 0
35, 403912, Note_on_c, 15, 38, 0
35, 403927, Note_on_c, 15, 26, 55
35, 403931, Note_on_c, 15, 38, 41
35, 404386, Note_on_c, 15, 38, 0
35, 404397, Note_on_c, 15, 26, 0
35, 404406, Note_on_c, 15, 38, 48
35, 404417, Note_on_c, 15, 26, 43
35, 404876, Note_on_c, 15, 38, 0
35, 404883, Note_on_c, 15, 26, 0
35, 404895, Note_on_c, 15, 38, 47
35, 404902, Note_on_c, 15, 26, 41
35, 405351, Note_on_c, 15, 38, 0
35, 405353, Note_on_c, 15, 26, 0
35, 405370, Note_on_c, 15, 38, 41
35, 405372, Note_on_c, 15, 26, 54
35, 405826, Note_on_c, 15, 38, 0
35, 405836, Note_on_c, 15, 26, 0
35, 405846, Note_on_c, 15, 38, 49
35, 405855, Note_on_c, 15, 26, 49
35, 406302, Note_on_c, 15, 26, 0
35, 406311, Note_on_c, 15, 38, 0
35, 406321, Note_on_c, 15, 26, 44
35, 406330, Note_on_c, 15, 38, 43
35, 406791, Note_on_c, 15, 26, 0
35, 406802, Note_on_c, 15, 38, 0
35, 406811, Note_on_c, 15, 26, 47
35, 406821, Note_on_c, 15, 38, 39
35, 407276, Note_on_c, 15, 26, 0
35, 407277, Note_on_c, 15, 38, 0
35, 407295, Note_on_c, 15, 26, 48
35, 407296, Note_on_c, 15, 38, 52
35, 407747, Note_on_c, 15, 26, 0
35, 407763, Note_on_c, 15, 38, 0
35, 407766, Note_on_c, 15, 26, 58
35, 407782, Note_on_c, 15, 38, 46
35, 408236, Note_on_c, 15, 38, 0
35, 408242, Note_on_c, 15, 26, 0
35, 408256, Note_on_c, 15, 38, 49
35, 408262, Note_on_c, 15, 26, 54
35, 408705, Note_on_c, 15, 26, 0
35, 408708, Note_on_c, 15, 38, 0
35, 408724, Note_on_c, 15, 26, 43
35, 408727, Note_on_c, 15, 38, 51
35, 409186, Note_on_c, 15, 26, 0
35, 409205, Note_on_c, 15, 26, 50
35, 409207, Note_on_c, 15, 38, 0
35, 409227, Note_on_c, 15, 38, 56
35, 409664, Note_on_c, 15, 38, 0
35, 409681, Note_on_c, 15, 26, 0
35, 409684, Note_on_c, 15, 38, 39
35, 409700, Note_on_c, 15, 26, 39
35, 410164, Note_on_c, 15, 38, 0
35, 410165, Note_on_c, 15, 26, 0
35, 410185, Note_on_c, 15, 26, 39
35, 410187, Note_on_c, 15, 38, 46
35, 410633, Note_on_c, 15, 38, 0
35, 410635, Note_on_c, 15, 26, 0
35, 410652, Note_on_c, 15, 38, 51
35, 410654, Note_on_c, 15, 26, 55
35, 411109, Note_on_c, 15, 38, 0
35, 411128, Note_on_c, 15, 26, 0
35, 411128, Note_on_c, 15, 38, 29
35, 411147, Note_on_c, 15, 26, 27
35, 411591, Note_on_c, 15, 26, 0
35, 411605, Note_on_c, 15, 38, 0
35, 411611, Note_on_c, 15, 26, 20
35, 411624, Note_on_c, 15, 38, 3
35, 412061, Note_on_c, 15, 26, 0
35, 412080, Note_on_c, 15, 26, 10
35, 412081, Note_on_c, 15, 38, 0
35, 412101, Note_on_c, 15, 38, 10
35, 412558, Note_on_c, 15, 26, 0
35, 412560, Note_on_c, 15, 38, 0
35, 412578, Note_on_c, 15, 26, 1
35, 412579, Note_on_c, 15, 38, 5
35, 413022, Note_on_c, 15, 38, 0
35, 413031, Note_on_c, 15, 26, 0
35, 413042, Note_on_c, 15, 38, 1
35, 413050, Note_on_c, 15, 26, 1
35, 413522, Note_on_c, 15, 38, 0
35, 413529, Note_on_c, 15, 26, 0
35, 413546, Note_on_c, 15, 38, 4
35, 413548, Note_on_c, 15, 26, 1
35, 413989, Note_on_c, 15, 26, 0
35, 414002, Note_on_c, 15, 38, 0
35, 414008, Note_on_c, 15, 26, 1
35, 414021, Note_on_c, 15, 38, 11
35, 414488, Note_on_c, 15, 26, 0
35, 414501, Note_on_c, 15, 38, 0
35, 438000, Program_c, 15, 45
35, 438002, Note_on_c, 15, 37, 79
35, 438242, Note_on_c, 15, 37, 0
35, 438482, Note_on_c, 15, 37, 85
35, 438722, Note_on_c, 15, 37, 0
35, 438969, Note_on_c, 15, 37, 92
35, 439209, Note_on_c, 15, 37, 0
35, 439457, Note_on_c, 15, 37, 83
35, 439697, Note_on_c, 15, 37, 0
35, 439921, Note_on_c, 15, 37, 80
35, 440161, Note_on_c, 15, 37, 0
35, 440419, Note_on_c, 15, 37, 96
35, 440659, Note_on_c, 15, 37, 0
35, 440891, Note_on_c, 15, 37, 98
35, 441131, Note_on_c, 15, 37, 0
35, 441377, Note_on_c, 15, 37, 84
35, 441617, Note_on_c, 15, 37, 0
35, 441856, Note_on_c, 15, 37, 83
35, 442096, Note_on_c, 15, 37, 0
35, 442326, Note_on_c, 15, 37, 93
35, 442566, Note_on_c, 15, 37, 0
35, 442825, Note_on_c, 15, 37, 83
35, 443065, Note_on_c, 15, 37, 0
35, 443308, Note_on_c, 15, 37, 82
35, 443548, Note_on_c, 15, 37, 0
35, 444007, Note_on_c, 15, 45, 117
35, 444019, Note_on_c, 15, 38, 115
35, 444247, Note_on_c, 15, 45, 0
35, 444259, Note_on_c, 15, 38, 0
35, 445440, Note_on_c, 15, 38, 113
35, 445452, Note_on_c, 15, 45, 119
35, 445680, Note_on_c, 15, 38, 0
35, 445692, Note_on_c, 15, 45, 0
35, 446653, Note_on_c, 15, 38, 102
35, 446666, Note_on_c, 15, 45, 116
35, 446893, Note_on_c, 15, 38, 0
35, 446906, Note_on_c, 15, 45, 0
35, 447375, Note_on_c, 15, 38, 108
35, 447377, Note_on_c, 15, 45, 117
35, 447615, Note_on_c, 15, 38, 0
35, 447617, Note_on_c, 15, 45, 0
35, 448328, Note_on_c, 15, 45, 105
35, 448568, Note_on_c, 15, 45, 0
35, 449040, Program_c, 15, 48
35, 449042, Note_on_c, 15, 41, 106
35, 449762, Note_on_c, 15, 41, 0
35, 450240, Program_c, 15, 45
35, 450242, Note_on_c, 15, 45, 120
35, 450482, Note_on_c, 15, 45, 0
35, 452176, Note_on_c, 15, 45, 115
35, 452416, Note_on_c, 15, 45, 0
35, 452880, Program_c, 15, 48
35, 452884, Note_on_c, 15, 41, 104
35, 453604, Note_on_c, 15, 41, 0
35, 454800, Program_c, 15, 48
35, 454810, Note_on_c, 15, 41, 102
35, 455530, Note_on_c, 15, 41, 0
35, 457680, Program_c, 15, 45
35, 457689, Note_on_c, 15, 36, 122
35, 457691, Note_on_c, 15, 24, 106
35, 457926, Note_on_c, 15, 36, 0
35, 457931, Note_on_c, 15, 24, 0
35, 457943, Note_on_c, 15, 43, 46
35, 457945, Note_on_c, 15, 36, 50
35, 458155, Note_on_c, 15, 36, 0
35, 458174, Note_on_c, 15, 36, 116
35, 458180, Note_on_c, 15, 24, 112
35, 458183, Note_on_c, 15, 43, 0
35, 458399, Note_on_c, 15, 36, 0
35, 458401, Note_on_c, 15, 43, 47
35, 458418, Note_on_c, 15, 36, 49
35, 458420, Note_on_c, 15, 24, 0
35, 458633, Note_on_c, 15, 36, 0
35, 458641, Note_on_c, 15, 43, 0
35, 458652, Note_on_c, 15, 36, 109
35, 458668, Note_on_c, 15, 24, 117
35, 458884, Note_on_c, 15, 36, 0
35, 458891, Note_on_c, 15, 43, 53
35, 458903, Note_on_c, 15, 36, 51
35, 458908, Note_on_c, 15, 24, 0
35, 459118, Note_on_c, 15, 36, 0
35, 459131, Note_on_c, 15, 43, 0
35, 459138, Note_on_c, 15, 36, 105
35, 459140, Note_on_c, 15, 24, 113
35, 459362, Note_on_c, 15, 43, 48
35, 459366, Note_on_c, 15, 36, 0
35, 459380, Note_on_c, 15, 24, 0
35, 459385, Note_on_c, 15, 36, 43
35, 459598, Note_on_c, 15, 36, 0
35, 459602, Note_on_c, 15, 43, 0
35, 459617, Note_on_c, 15, 36, 113
35, 459625, Note_on_c, 15, 24, 106
35, 459847, Note_on_c, 15, 36, 0
35, 459860, Note_on_c, 15, 43, 50
35, 459865, Note_on_c, 15, 24, 0
35, 459867, Note_on_c, 15, 36, 44
35, 460065, Note_on_c, 15, 36, 0
35, 460084, Note_on_c, 15, 36, 124
35, 460100, Note_on_c, 15, 43, 0
35, 460105, Note_on_c, 15, 24, 109
35, 460324, Note_on_c, 15, 36, 0
35, 460341, Note_on_c, 15, 43, 53
35, 460345, Note_on_c, 15, 24, 0
35, 460348, Note_on_c, 15, 36, 45
35, 460565, Note_on_c, 15, 24, 118
35, 460569, Note_on_c, 15, 36, 0
35, 460581, Note_on_c, 15, 43, 0
35, 460588, Note_on_c, 15, 36, 111
35, 460781, Note_on_c, 15, 36, 0
35, 460801, Note_on_c, 15, 36, 56
35, 460805, Note_on_c, 15, 24, 0
35, 460823, Note_on_c, 15, 43, 42
35, 461026, Note_on_c, 15, 36, 0
35, 461043, Note_on_c, 15, 24, 121
35, 461045, Note_on_c, 15, 36, 106
35, 461063, Note_on_c, 15, 43, 0
35, 461280, Note_on_c, 15, 36, 0
35, 461282, Note_on_c, 15, 43, 42
35, 461283, Note_on_c, 15, 24, 0
35, 461300, Note_on_c, 15, 36, 54
35, 461510, Note_on_c, 15, 36, 0
35, 461522, Note_on_c, 15, 43, 0
35, 461526, Note_on_c, 15, 24, 120
35, 461529, Note_on_c, 15, 36, 115
35, 461766, Note_on_c, 15, 24, 0
35, 461769, Note_on_c, 15, 36, 0
35, 461774, Note_on_c, 15, 36, 39
35, 461788, Note_on_c, 15, 43, 45
35, 461987, Note_on_c, 15, 36, 0
35, 462006, Note_on_c, 15, 36, 124
35, 462027, Note_on_c, 15, 24, 108
35, 462028, Note_on_c, 15, 43, 0
35, 462227, Note_on_c, 15, 36, 0
35, 462247, Note_on_c, 15, 36, 57
35, 462255, Note_on_c, 15, 43, 43
35, 462267, Note_on_c, 15, 24, 0
35, 462475, Note_on_c, 15, 36, 0
35, 462494, Note_on_c, 15, 36, 120
35, 462494, Note_on_c, 15, 24, 104
35, 462495, Note_on_c, 15, 43, 0
35, 462716, Note_on_c, 15, 36, 0
35, 462734, Note_on_c, 15, 24, 0
35, 462735, Note_on_c, 15, 36, 50
35, 462748, Note_on_c, 15, 43, 43
35, 462956, Note_on_c, 15, 36, 0
35, 462962, Note_on_c, 15, 24, 114
35, 462976, Note_on_c, 15, 36, 104
35, 462988, Note_on_c, 15, 43, 0
35, 463187, Note_on_c, 15, 36, 0
35, 463202, Note_on_c, 15, 24, 0
35, 463206, Note_on_c, 15, 36, 56
35, 463228, Note_on_c, 15, 43, 42
35, 463429, Note_on_c, 15, 36, 0
35, 463448, Note_on_c, 15, 36, 123
35, 463465, Note_on_c, 15, 24, 107
35, 463468, Note_on_c, 15, 43, 0
35, 463664, Note_on_c, 15, 36, 0
35, 463683, Note_on_c, 15, 36, 59
35, 463695, Note_on_c, 15, 43, 40
35, 463705, Note_on_c, 15, 24, 0
35, 463912, Note_on_c, 15, 36, 0
35, 463932, Note_on_c, 15, 36, 119
35, 463932, Note_on_c, 15, 24, 109
35, 463935, Note_on_c, 15, 43, 0
35, 464155, Note_on_c, 15, 36, 0
35, 464172, Note_on_c, 15, 24, 0
35, 464174, Note_on_c, 15, 36, 54
35, 464177, Note_on_c, 15, 43, 46
35, 464399, Note_on_c, 15, 36, 0
35, 464417, Note_on_c, 15, 43, 0
35, 464419, Note_on_c, 15, 36, 122
35, 464420, Note_on_c, 15, 24, 117
35, 464636, Note_on_c, 15, 36, 0
35, 464645, Note_on_c, 15, 43, 52
35, 464655, Note_on_c, 15, 36, 42
35, 464660, Note_on_c, 15, 24, 0
35, 464884, Note_on_c, 15, 36, 0
35, 464885, Note_on_c, 15, 43, 0
35, 464896, Note_on_c, 15, 24, 107
35, 464903, Note_on_c, 15, 36, 119
35, 465112, Note_on_c, 15, 36, 0
35, 465123, Note_on_c, 15, 43, 53
35, 465132, Note_on_c, 15, 36, 58
35, 465136, Note_on_c, 15, 24, 0
35, 465363, Note_on_c, 15, 43, 0
35, 465364, Note_on_c, 15, 36, 0
35, 465383, Note_on_c, 15, 36, 122
35, 465387, Note_on_c, 15, 24, 104
35, 465585, Note_on_c, 15, 36, 0
35, 465604, Note_on_c, 15, 43, 50
35, 465604, Note_on_c, 15, 36, 53
35, 465627, Note_on_c, 15, 24, 0
35, 465844, Note_on_c, 15, 43, 0
35, 465844, Note_on_c, 15, 36, 0
35, 465867, Note_on_c, 15, 36, 121
35, 465867, Note_on_c, 15, 24, 116
35, 466067, Note_on_c, 15, 36, 0
35, 466086, Note_on_c, 15, 36, 47
35, 466088, Note_on_c, 15, 43, 46
35, 466107, Note_on_c, 15, 24, 0
35, 466320, Note_on_c, 15, 36, 0
35, 466328, Note_on_c, 15, 43, 0
35, 466339, Note_on_c, 15, 36, 124
35, 466348, Note_on_c, 15, 24, 123
35, 466542, Note_on_c, 15, 36, 0
35, 466561, Note_on_c, 15, 36, 56
35, 466588, Note_on_c, 15, 24, 0
35, 466588, Note_on_c, 15, 43, 49
35, 466795, Note_on_c, 15, 36, 0
35, 466802, Note_on_c, 15, 24, 109
35, 466814, Note_on_c, 15, 36, 116
35, 466828, Note_on_c, 15, 43, 0
35, 467038, Note_on_c, 15, 36, 0
35, 467042, Note_on_c, 15, 24, 0
35, 467057, Note_on_c, 15, 43, 41
35, 467057, Note_on_c, 15, 36, 56
35, 467280, Note_on_c, 15, 26, 50
35, 467290, Note_on_c, 15, 38, 43
35, 467297, Note_on_c, 15, 43, 0
35, 467297, Note_on_c, 15, 36, 0
35, 467756, Note_on_c, 15, 38, 0
35, 467760, Note_on_c, 15, 26, 0
35, 467776, Note_on_c, 15, 38, 58
35, 467781, Note_on_c, 15, 26, 50
35, 468235, Note_on_c, 15, 38, 0
35, 468238, Note_on_c, 15, 26, 0
35, 468254, Note_on_c, 15, 38, 52
35, 468257, Note_on_c, 15, 26, 44
35, 468701, Note_on_c, 15, 26, 0
35, 468702, Note_on_c, 15, 38, 0
35, 468721, Note_on_c, 15, 26, 51
35, 468721, Note_on_c, 15, 38, 48
35, 469201, Note_on_c, 15, 26, 0
35, 469201, Note_on_c, 15, 38, 0
35, 469220, Note_on_c, 15, 38, 53
35, 469221, Note_on_c, 15, 26, 57
35, 469671, Note_on_c, 15, 38, 0
35, 469684, Note_on_c, 15, 26, 0
35, 469691, Note_on_c, 15, 38, 43
35, 469703, Note_on_c, 15, 26, 59
35, 470168, Note_on_c, 15, 38, 0
35, 470168, Note_on_c, 15, 26, 0
35, 470187, Note_on_c, 15, 26, 42
35, 470187, Note_on_c, 15, 38, 55
35, 470633, Note_on_c, 15, 38, 0
35, 470642, Note_on_c, 15, 26, 0
35, 470653, Note_on_c, 15, 38, 52
35, 470662, Note_on_c, 15, 26, 46
35, 471104, Note_on_c, 15, 38, 0
35, 471122, Note_on_c, 15, 26, 0
35, 471123, Note_on_c, 15, 38, 42
35, 471141, Note_on_c, 15, 26, 58
35, 471589, Note_on_c, 15, 38, 0
35, 471601, Note_on_c, 15, 26, 0
35, 471609, Note_on_c, 15, 38, 59
35, 471620, Note_on_c, 15, 26, 46
35, 472062, Note_on_c, 15, 38, 0
35, 472081, Note_on_c, 15, 26, 0
35, 472081, Note_on_c, 15, 38, 40
35, 472100, Note_on_c, 15, 26, 45
35, 472545, Note_on_c, 15, 26, 0
35, 472561, Note_on_c, 15, 38, 0
35, 472565, Note_on_c, 15, 26, 54
35, 472588, Note_on_c, 15, 38, 40
35, 473025, Note_on_c, 15, 26, 0
35, 473025, Note_on_c, 15, 38, 0
35, 473044, Note_on_c, 15, 26, 46
35, 473044, Note_on_c, 15, 38, 55
35, 473502, Note_on_c, 15, 26, 0
35, 473506, Note_on_c, 15, 38, 0
35, 473521, Note_on_c, 15, 26, 48
35, 473525, Note_on_c, 15, 38, 39
35, 473982, Note_on_c, 15, 26, 0
35, 473993, Note_on_c, 15, 38, 0
35, 474002, Note_on_c, 15, 26, 58
35, 474012, Note_on_c, 15, 38, 55
35, 474473, Note_on_c, 15, 38, 0
35, 474475, Note_on_c, 15, 26, 0
35, 474493, Note_on_c, 15, 38, 45
35, 474494, Note_on_c, 15, 26, 47
35, 474942, Note_on_c, 15, 38, 0
35, 474947, Note_on_c, 15, 26, 0
35, 474961, Note_on_c, 15, 38, 43
35, 474966, Note_on_c, 15, 26, 46
35, 475434, Note_on_c, 15, 26, 0
35, 475436, Note_on_c, 15, 38, 0
35, 475454, Note_on_c, 15, 26, 42
35, 475456, Note_on_c, 15, 38, 45
35, 475914, Note_on_c, 15, 26, 0
35, 475926, Note_on_c, 15, 38, 0
35, 475933, Note_on_c, 15, 26, 39
35, 475945, Note_on_c, 15, 38, 58
35, 476391, Note_on_c, 15, 38, 0
35, 476401, Note_on_c, 15, 26, 0
35, 476411, Note_on_c, 15, 38, 51
35, 476421, Note_on_c, 15, 26, 54
35, 476869, Note_on_c, 15, 38, 0
35, 476870, Note_on_c, 15, 26, 0
35, 476888, Note_on_c, 15, 38, 41
35, 476889, Note_on_c, 15, 26, 48
35, 477355, Note_on_c, 15, 38, 0
35, 477362, Note_on_c, 15, 26, 0
35, 477375, Note_on_c, 15, 38, 48
35, 477381, Note_on_c, 15, 26, 51
35, 477828, Note_on_c, 15, 38, 0
35, 477840, Note_on_c, 15, 26, 0
35, 477847, Note_on_c, 15, 38, 33
35, 477860, Note_on_c, 15, 26, 29
35, 478305, Note_on_c, 15, 26, 0
35, 478322, Note_on_c, 15, 38, 0
35, 478324, Note_on_c, 15, 26, 21
35, 478341, Note_on_c, 15, 38, 24
35, 478794, Note_on_c, 15, 26, 0
35, 478809, Note_on_c, 15, 38, 0
35, 478814, Note_on_c, 15, 26, 23
35, 478828, Note_on_c, 15, 38, 33
35, 479263, Note_on_c, 15, 38, 0
35, 479278, Note_on_c, 15, 26, 0
35, 479282, Note_on_c, 15, 38, 13
35, 479297, Note_on_c, 15, 26, 17
35, 479762, Note_on_c, 15, 38, 0
35, 479764, Note_on_c, 15, 26, 0
35, 479784, Note_on_c, 15, 26, 22
35, 479788, Note_on_c, 15, 38, 33
35, 480246, Note_on_c, 15, 38, 0
35, 480248, Note_on_c, 15, 26, 0
35, 480265, Note_on_c, 15, 38, 32
35, 480267, Note_on_c, 15, 26, 31
35, 480700, Note_on_c, 15, 38, 0
35, 480702, Note_on_c, 15, 26, 0
35, 480720, Note_on_c, 15, 38, 18
35, 480721, Note_on_c, 15, 26, 26
35, 481200, Note_on_c, 15, 38, 0
35, 481201, Note_on_c, 15, 26, 0
35, 481223, Note_on_c, 15, 38, 28
35, 481228, Note_on_c, 15, 26, 25
35, 481671, Note_on_c, 15, 26, 0
35, 481685, Note_on_c, 15, 38, 0
35, 481690, Note_on_c, 15, 26, 31
35, 481704, Note_on_c, 15, 38, 18
35, 482148, Note_on_c, 15, 38, 0
35, 482157, Note_on_c, 15, 26, 0
35, 482167, Note_on_c, 15, 38, 26
35, 482176, Note_on_c, 15, 26, 31
35, 482641, Note_on_c, 15, 26, 0
35, 482645, Note_on_c, 15, 38, 0
35, 482661, Note_on_c, 15, 26, 15
35, 482664, Note_on_c, 15, 38, 33
35, 483111, Note_on_c, 15, 38, 0
35, 483127, Note_on_c, 15, 26, 0
35, 483130, Note_on_c, 15, 38, 18
35, 483146, Note_on_c, 15, 26, 23
35, 483587, Note_on_c, 15, 26, 0
35, 483595, Note_on_c, 15, 38, 0
35, 483607, Note_on_c, 15, 26, 31
35, 483615, Note_on_c, 15, 38, 32
35, 484073, Note_on_c, 15, 38, 0
35, 484075, Note_on_c, 15, 26, 0
35, 484092, Note_on_c, 15, 38, 33
35, 484094, Note_on_c, 15, 26, 24
35, 484558, Note_on_c, 15, 26, 0
35, 484566, Note_on_c, 15, 38, 0
35, 484577, Note_on_c, 15, 26, 27
35, 484585, Note_on_c, 15, 38, 29
35, 485037, Note_on_c, 15, 26, 0
35, 485040, Note_on_c, 15, 38, 0
35, 485056, Note_on_c, 15, 26, 28
35, 485059, Note_on_c, 15, 38, 30
35, 485506, Note_on_c, 15, 26, 0
35, 485526, Note_on_c, 15, 26, 32
35, 485527, Note_on_c, 15, 38, 0
35, 485546, Note_on_c, 15, 38, 29
35, 485989, Note_on_c, 15, 26, 0
35, 486000, Note_on_c, 15, 38, 0
35, 486008, Note_on_c, 15, 26, 20
35, 486020, Note_on_c, 15, 38, 33
35, 486473, Note_on_c, 15, 26, 0
35, 486473, Note_on_c, 15, 38, 0
35, 486492, Note_on_c, 15, 26, 31
35, 486492, Note_on_c, 15, 38, 23
35, 486972, Note_on_c, 15, 26, 0
35, 486972, Note_on_c, 15, 38, 0
35, 488405, Note_on_c, 15, 26, 25
35, 488417, Note_on_c, 15, 38, 27
35, 488866, Note_on_c, 15, 38, 0
35, 488875, Note_on_c, 15, 26, 0
35, 488885, Note_on_c, 15, 38, 24
35, 488894, Note_on_c, 15, 26, 32
35, 489365, Note_on_c, 15, 38, 0
35, 489374, Note_on_c, 15, 26, 0
35, 489840, Control_c, 15, 11, 127
35, 489840, Control_c, 15, 7, 92
35, 491160, Program_c, 15, 48
35, 491289, Note_on_c, 15, 38, 118
35, 491292, Note_on_c, 15, 26, 110
35, 491342, Note_on_c, 15, 38, 0
35, 491345, Note_on_c, 15, 26, 0
35, 492723, Note_on_c, 15, 38, 103
35, 492733, Note_on_c, 15, 26, 110
35, 492776, Note_on_c, 15, 38, 0
35, 492786, Note_on_c, 15, 26, 0
35, 494180, Note_on_c, 15, 26, 105
35, 494188, Note_on_c, 15, 38, 106
35, 494287, Note_on_c, 15, 26, 0
35, 494295, Note_on_c, 15, 38, 0
35, 494408, Note_on_c, 15, 26, 109
35, 494412, Note_on_c, 15, 38, 104
35, 494461, Note_on_c, 15, 26, 0
35, 494465, Note_on_c, 15, 38, 0
35, 495367, Note_on_c, 15, 38, 107
35, 495384, Note_on_c, 15, 26, 107
35, 495420, Note_on_c, 15, 38, 0
35, 495437, Note_on_c, 15, 26, 0
35, 495842, Note_on_c, 15, 38, 103
35, 495860, Note_on_c, 15, 26, 100
35, 495895, Note_on_c, 15, 38, 0
35, 495913, Note_on_c, 15, 26, 0
35, 497887, Note_on_c, 15, 38, 100
35, 497897, Note_on_c, 15, 26, 114
35, 497940, Note_on_c, 15, 38, 0
35, 497950, Note_on_c, 15, 26, 0
35, 498372, Note_on_c, 15, 26, 106
35, 498385, Note_on_c, 15, 38, 105
35, 498425, Note_on_c, 15, 26, 0
35, 498438, Note_on_c, 15, 38, 0
35, 499575, Note_on_c, 15, 38, 113
35, 499584, Note_on_c, 15, 26, 111
35, 499682, Note_on_c, 15, 38, 0
35, 499691, Note_on_c, 15, 26, 0
35, 499818, Note_on_c, 15, 41, 114
35, 500058, Note_on_c, 15, 41, 0
35, 500067, Note_on_c, 15, 38, 120
35, 500179, Note_on_c, 15, 41, 113
35, 500187, Note_on_c, 15, 38, 0
35, 500322, Note_on_c, 15, 41, 0
35, 500655, Note_on_c, 15, 38, 107
35, 500665, Note_on_c, 15, 26, 114
35, 500762, Note_on_c, 15, 38, 0
35, 500772, Note_on_c, 15, 26, 0
35, 500894, Note_on_c, 15, 41, 110
35, 501001, Note_on_c, 15, 41, 0
35, 501361, Note_on_c, 15, 38, 110
35, 501386, Note_on_c, 15, 26, 103
35, 501414, Note_on_c, 15, 38, 0
35, 501439, Note_on_c, 15, 26, 0
35, 501720, Note_on_c, 15, 26, 118
35, 501725, Note_on_c, 15, 38, 118
35, 501827, Note_on_c, 15, 26, 0
35, 501832, Note_on_c, 15, 38, 0
35, 501962, Note_on_c, 15, 41, 114
35, 502202, Note_on_c, 15, 41, 0
35, 502216, Note_on_c, 15, 38, 101
35, 502263, Note_on_c, 15, 38, 0
35, 502323, Note_on_c, 15, 41, 103
35, 502430, Note_on_c, 15, 41, 0
35, 502808, Note_on_c, 15, 38, 117
35, 502825, Note_on_c, 15, 26, 114
35, 502861, Note_on_c, 15, 38, 0
35, 502878, Note_on_c, 15, 26, 0
35, 503419, Note_on_c, 15, 38, 100
35, 503429, Note_on_c, 15, 26, 102
35, 503472, Note_on_c, 15, 38, 0
35, 503482, Note_on_c, 15, 26, 0
35, 504244, Note_on_c, 15, 31, 46
35, 504291, Note_on_c, 15, 31, 0
35, 504499, Note_on_c, 15, 31, 53
35, 504546, Note_on_c, 15, 31, 0
35, 504968, Note_on_c, 15, 31, 52
35, 505015, Note_on_c, 15, 31, 0
35, 505458, Note_on_c, 15, 31, 41
35, 505505, Note_on_c, 15, 31, 0
35, 505686, Note_on_c, 15, 31, 45
35, 505733, Note_on_c, 15, 31, 0
35, 505946, Note_on_c, 15, 31, 44
35, 505993, Note_on_c, 15, 31, 0
35, 506410, Note_on_c, 15, 31, 55
35, 506457, Note_on_c, 15, 31, 0
35, 506897, Note_on_c, 15, 31, 56
35, 506944, Note_on_c, 15, 31, 0
35, 507379, Note_on_c, 15, 31, 53
35, 507426, Note_on_c, 15, 31, 0
35, 507608, Note_on_c, 15, 31, 41
35, 507655, Note_on_c, 15, 31, 0
35, 508080, Note_on_c, 15, 31, 39
35, 508127, Note_on_c, 15, 31, 0
35, 508338, Note_on_c, 15, 31, 45
35, 508385, Note_on_c, 15, 31, 0
35, 508577, Note_on_c, 15, 31, 53
35, 508624, Note_on_c, 15, 31, 0
35, 509042, Note_on_c, 15, 31, 50
35, 509089, Note_on_c, 15, 31, 0
35, 509529, Note_on_c, 15, 31, 45
35, 509576, Note_on_c, 15, 31, 0
35, 509778, Note_on_c, 15, 31, 48
35, 509825, Note_on_c, 15, 31, 0
35, 510260, Note_on_c, 15, 31, 47
35, 510307, Note_on_c, 15, 31, 0
35, 510740, Note_on_c, 15, 31, 51
35, 510787, Note_on_c, 15, 31, 0
35, 511208, Note_on_c, 15, 31, 53
35, 511255, Note_on_c, 15, 31, 0
35, 511697, Note_on_c, 15, 31, 45
35, 511744, Note_on_c, 15, 31, 0
35, 511946, Note_on_c, 15, 31, 58
35, 511993, Note_on_c, 15, 31, 0
35, 512425, Note_on_c, 15, 31, 58
35, 512472, Note_on_c, 15, 31, 0
35, 512894, Note_on_c, 15, 31, 59
35, 512941, Note_on_c, 15, 31, 0
35, 513366, Note_on_c, 15, 31, 43
35, 513413, Note_on_c, 15, 31, 0
35, 513859, Note_on_c, 15, 31, 42
35, 513906, Note_on_c, 15, 31, 0
35, 514093, Note_on_c, 15, 31, 58
35, 514140, Note_on_c, 15, 31, 0
35, 514347, Note_on_c, 15, 31, 51
35, 514394, Note_on_c, 15, 31, 0
35, 514819, Note_on_c, 15, 31, 43
35, 514866, Note_on_c, 15, 31, 0
35, 515286, Note_on_c, 15, 31, 47
35, 515333, Note_on_c, 15, 31, 0
35, 515534, Note_on_c, 15, 31, 41
35, 515581, Note_on_c, 15, 31, 0
35, 516000, Note_on_c, 15, 31, 56
35, 516047, Note_on_c, 15, 31, 0
35, 516265, Note_on_c, 15, 31, 52
35, 516312, Note_on_c, 15, 31, 0
35, 516720, Note_on_c, 15, 31, 54
35, 516767, Note_on_c, 15, 31, 0
35, 517212, Note_on_c, 15, 31, 55
35, 517259, Note_on_c, 15, 31, 0
35, 517466, Note_on_c, 15, 31, 52
35, 517513, Note_on_c, 15, 31, 0
35, 517681, Note_on_c, 15, 31, 39
35, 517728, Note_on_c, 15, 31, 0
35, 518171, Note_on_c, 15, 31, 50
35, 518218, Note_on_c, 15, 31, 0
35, 518647, Note_on_c, 15, 31, 59
35, 518694, Note_on_c, 15, 31, 0
35, 518903, Note_on_c, 15, 31, 46
35, 518950, Note_on_c, 15, 31, 0
35, 519388, Note_on_c, 15, 31, 57
35, 519435, Note_on_c, 15, 31, 0
35, 519842, Note_on_c, 15, 31, 43
35, 519889, Note_on_c, 15, 31, 0
35, 520322, Note_on_c, 15, 38, 105
35, 520335, Note_on_c, 15, 45, 103
35, 520345, Note_on_c, 15, 38, 0
35, 520358, Note_on_c, 15, 45, 0
35, 520384, Note_on_c, 15, 38, 110
35, 520390, Note_on_c, 15, 45, 108
35, 520407, Note_on_c, 15, 38, 0
35, 520413, Note_on_c, 15, 45, 0
35, 520805, Note_on_c, 15, 38, 106
35, 520815, Note_on_c, 15, 45, 108
35, 520828, Note_on_c, 15, 38, 0
35, 520838, Note_on_c, 15, 45, 0
35, 520873, Note_on_c, 15, 38, 101
35, 520875, Note_on_c, 15, 45, 109
35, 520896, Note_on_c, 15, 38, 0
35, 520898, Note_on_c, 15, 45, 0
35, 521287, Note_on_c, 15, 38, 118
35, 521290, Note_on_c, 15, 45, 114
35, 521310, Note_on_c, 15, 38, 0
35, 521313, Note_on_c, 15, 45, 0
35, 521345, Note_on_c, 15, 45, 119
35, 521368, Note_on_c, 15, 45, 0
35, 521369, Note_on_c, 15, 38, 111
35, 521392, Note_on_c, 15, 38, 0
35, 521546, Note_on_c, 15, 38, 103
35, 521546, Note_on_c, 15, 45, 111
35, 521561, Note_on_c, 15, 38, 0
35, 521569, Note_on_c, 15, 45, 0
35, 521580, Note_on_c, 15, 38, 109
35, 521589, Note_on_c, 15, 45, 117
35, 521603, Note_on_c, 15, 38, 0
35, 521612, Note_on_c, 15, 45, 0
35, 522005, Note_on_c, 15, 38, 114
35, 522017, Note_on_c, 15, 45, 100
35, 522028, Note_on_c, 15, 38, 0
35, 522040, Note_on_c, 15, 45, 0
35, 522064, Note_on_c, 15, 45, 103
35, 522087, Note_on_c, 15, 45, 0
35, 522087, Note_on_c, 15, 38, 100
35, 522110, Note_on_c, 15, 38, 0
35, 522484, Note_on_c, 15, 38, 119
35, 522489, Note_on_c, 15, 45, 120
35, 522507, Note_on_c, 15, 38, 0
35, 522512, Note_on_c, 15, 45, 0
35, 522559, Note_on_c, 15, 38, 115
35, 522567, Note_on_c, 15, 45, 113
35, 522582, Note_on_c, 15, 38, 0
35, 522590, Note_on_c, 15, 45, 0
35, 522966, Note_on_c, 15, 45, 118
35, 522980, Note_on_c, 15, 38, 107
35, 522989, Note_on_c, 15, 45, 0
35, 523003, Note_on_c, 15, 38, 0
35, 523025, Note_on_c, 15, 38, 111
35, 523045, Note_on_c, 15, 45, 116
35, 523048, Note_on_c, 15, 38, 0
35, 523068, Note_on_c, 15, 45, 0
35, 523441, Note_on_c, 15, 38, 118
35, 523464, Note_on_c, 15, 38, 0
35, 523466, Note_on_c, 15, 45, 116
35, 523489, Note_on_c, 15, 45, 0
35, 523503, Note_on_c, 15, 45, 105
35, 523519, Note_on_c, 15, 38, 114
35, 523526, Note_on_c, 15, 45, 0
35, 523542, Note_on_c, 15, 38, 0
35, 523942, Note_on_c, 15, 40, 111
35, 523965, Note_on_c, 15, 40, 0
35, 524003, Note_on_c, 15, 40, 110
35, 524026, Note_on_c, 15, 40, 0
35, 524172, Note_on_c, 15, 45, 101
35, 524184, Note_on_c, 15, 38, 105
35, 524195, Note_on_c, 15, 45, 0
35, 524206, Note_on_c, 15, 38, 0
35, 524225, Note_on_c, 15, 38, 120
35, 524235, Note_on_c, 15, 45, 107
35, 524248, Note_on_c, 15, 38, 0
35, 524258, Note_on_c, 15, 45, 0
35, 524405, Note_on_c, 15, 45, 113
35, 524418, Note_on_c, 15, 38, 119
35, 524428, Note_on_c, 15, 45, 0
35, 524441, Note_on_c, 15, 38, 0
35, 524464, Note_on_c, 15, 38, 104
35, 524485, Note_on_c, 15, 45, 102
35, 524487, Note_on_c, 15, 38, 0
35, 524508, Note_on_c, 15, 45, 0
35, 524881, Note_on_c, 15, 38, 109
35, 524884, Note_on_c, 15, 45, 108
35, 524904, Note_on_c, 15, 38, 0
35, 524907, Note_on_c, 15, 45, 0
35, 524942, Note_on_c, 15, 38, 110
35, 524942, Note_on_c, 15, 45, 110
35, 524965, Note_on_c, 15, 38, 0
35, 524965, Note_on_c, 15, 45, 0
35, 525363, Note_on_c, 15, 45, 108
35, 525386, Note_on_c, 15, 45, 0
35, 525386, Note_on_c, 15, 38, 116
35, 525409, Note_on_c, 15, 38, 0
35, 525435, Note_on_c, 15, 38, 115
35, 525446, Note_on_c, 15, 45, 106
35, 525458, Note_on_c, 15, 38, 0
35, 525469, Note_on_c, 15, 45, 0
35, 525840, Note_on_c, 15, 38, 115
35, 525841, Note_on_c, 15, 45, 104
35, 525863, Note_on_c, 15, 38, 0
35, 525864, Note_on_c, 15, 45, 0
35, 525900, Note_on_c, 15, 38, 102
35, 525911, Note_on_c, 15, 45, 119
35, 525923, Note_on_c, 15, 38, 0
35, 525934, Note_on_c, 15, 45, 0
35, 526108, Note_on_c, 15, 40, 120
35, 526131, Note_on_c, 15, 40, 0
35, 526150, Note_on_c, 15, 40, 104
35, 526173, Note_on_c, 15, 40, 0
35, 526327, Note_on_c, 15, 38, 100
35, 526333, Note_on_c, 15, 45, 111
35, 526350, Note_on_c, 15, 38, 0
35, 526356, Note_on_c, 15, 45, 0
35, 526399, Note_on_c, 15, 45, 116
35, 526405, Note_on_c, 15, 38, 101
35, 526422, Note_on_c, 15, 45, 0
35, 526428, Note_on_c, 15, 38, 0
35, 526570, Note_on_c, 15, 38, 119
35, 526576, Note_on_c, 15, 45, 108
35, 526593, Note_on_c, 15, 38, 0
35, 526599, Note_on_c, 15, 45, 0
35, 526635, Note_on_c, 15, 38, 120
35, 526642, Note_on_c, 15, 45, 118
35, 526658, Note_on_c, 15, 38, 0
35, 526665, Note_on_c, 15, 45, 0
35, 527044, Note_on_c, 15, 40, 100
35, 527067, Note_on_c, 15, 40, 0
35, 527111, Note_on_c, 15, 40, 118
35, 527134, Note_on_c, 15, 40, 0
35, 527283, Note_on_c, 15, 42, 106
35, 527306, Note_on_c, 15, 42, 0
35, 527366, Note_on_c, 15, 42, 101
35, 527389, Note_on_c, 15, 42, 0
35, 527763, Note_on_c, 15, 46, 111
35, 527786, Note_on_c, 15, 46, 0
35, 527831, Note_on_c, 15, 46, 111
35, 527854, Note_on_c, 15, 46, 0
35, 528020, Note_on_c, 15, 46, 107
35, 528043, Note_on_c, 15, 46, 0
35, 528080, Note_on_c, 15, 46, 97
35, 528103, Note_on_c, 15, 46, 0
35, 528263, Note_on_c, 15, 37, 101
35, 528286, Note_on_c, 15, 37, 0
35, 528309, Note_on_c, 15, 37, 94
35, 528332, Note_on_c, 15, 37, 0
35, 528745, Note_on_c, 15, 37, 110
35, 528768, Note_on_c, 15, 37, 0
35, 528799, Note_on_c, 15, 37, 110
35, 528822, Note_on_c, 15, 37, 0
35, 528972, Note_on_c, 15, 37, 109
35, 528995, Note_on_c, 15, 37, 0
35, 529029, Note_on_c, 15, 37, 94
35, 529052, Note_on_c, 15, 37, 0
35, 529465, Note_on_c, 15, 44, 97
35, 529488, Note_on_c, 15, 44, 0
35, 529508, Note_on_c, 15, 44, 102
35, 529531, Note_on_c, 15, 44, 0
35, 529937, Note_on_c, 15, 46, 91
35, 529960, Note_on_c, 15, 46, 0
35, 529995, Note_on_c, 15, 46, 95
35, 530018, Note_on_c, 15, 46, 0
35, 530184, Note_on_c, 15, 37, 100
35, 530207, Note_on_c, 15, 37, 0
35, 530245, Note_on_c, 15, 37, 103
35, 530268, Note_on_c, 15, 37, 0
35, 530666, Note_on_c, 15, 37, 105
35, 530689, Note_on_c, 15, 37, 0
35, 530726, Note_on_c, 15, 37, 95
35, 530749, Note_on_c, 15, 37, 0
35, 531131, Note_on_c, 15, 37, 101
35, 531154, Note_on_c, 15, 37, 0
35, 531181, Note_on_c, 15, 37, 99
35, 531204, Note_on_c, 15, 37, 0
35, 531384, Note_on_c, 15, 38, 98
35, 531504, Note_on_c, 15, 38, 0
35, 531622, Note_on_c, 15, 45, 101
35, 531627, Note_on_c, 15, 38, 101
35, 531742, Note_on_c, 15, 45, 0
35, 531747, Note_on_c, 15, 38, 0
35, 531841, Note_on_c, 15, 38, 107
35, 531868, Note_on_c, 15, 45, 100
35, 531961, Note_on_c, 15, 38, 0
35, 531988, Note_on_c, 15, 45, 0
35, 532342, Note_on_c, 15, 38, 108
35, 532345, Note_on_c, 15, 45, 101
35, 532462, Note_on_c, 15, 38, 0
35, 532465, Note_on_c, 15, 45, 0
35, 532564, Note_on_c, 15, 45, 102
35, 532581, Note_on_c, 15, 38, 110
35, 532684, Note_on_c, 15, 45, 0
35, 532701, Note_on_c, 15, 38, 0
35, 532806, Note_on_c, 15, 38, 109
35, 532822, Note_on_c, 15, 45, 105
35, 532926, Note_on_c, 15, 38, 0
35, 532942, Note_on_c, 15, 45, 0
35, 533041, Note_on_c, 15, 38, 103
35, 533052, Note_on_c, 15, 45, 91
35, 533161, Note_on_c, 15, 38, 0
35, 533172, Note_on_c, 15, 45, 0
35, 533286, Note_on_c, 15, 45, 95
35, 533294, Note_on_c, 15, 38, 95
35, 533406, Note_on_c, 15, 45, 0
35, 533414, Note_on_c, 15, 38, 0
35, 533768, Note_on_c, 15, 45, 108
35, 533777, Note_on_c, 15, 38, 103
35, 533888, Note_on_c, 15, 45, 0
35, 533897, Note_on_c, 15, 38, 0
35, 534248, Note_on_c, 15, 45, 106
35, 534267, Note_on_c, 15, 38, 96
35, 534368, Note_on_c, 15, 45, 0
35, 534387, Note_on_c, 15, 38, 0
35, 534480, Note_on_c, 15, 40, 106
35, 534600, Note_on_c, 15, 40, 0
35, 534722, Note_on_c, 15, 38, 101
35, 534731, Note_on_c, 15, 45, 93
35, 534842, Note_on_c, 15, 38, 0
35, 534851, Note_on_c, 15, 45, 0
35, 535201, Note_on_c, 15, 45, 94
35, 535208, Note_on_c, 15, 38, 100
35, 535321, Note_on_c, 15, 45, 0
35, 535328, Note_on_c, 15, 38, 0
35, 535689, Note_on_c, 15, 45, 103
35, 535702, Note_on_c, 15, 38, 96
35, 535809, Note_on_c, 15, 45, 0
35, 535822, Note_on_c, 15, 38, 0
35, 535932, Note_on_c, 15, 38, 110
35, 535945, Note_on_c, 15, 38, 0
35, 535964, Note_on_c, 15, 38, 107
35, 535984, Note_on_c, 15, 38, 0
35, 536009, Note_on_c, 15, 38, 110
35, 536028, Note_on_c, 15, 38, 0
35, 536048, Note_on_c, 15, 38, 116
35, 536065, Note_on_c, 15, 38, 0
35, 536084, Note_on_c, 15, 38, 116
35, 536101, Note_on_c, 15, 38, 0
35, 536121, Note_on_c, 15, 38, 121
35, 536140, Note_on_c, 15, 38, 0
35, 536163, Note_on_c, 15, 40, 113
35, 536182, Note_on_c, 15, 40, 0
35, 536212, Note_on_c, 15, 40, 110
35, 536227, Note_on_c, 15, 40, 0
35, 536246, Note_on_c, 15, 40, 111
35, 536262, Note_on_c, 15, 40, 0
35, 536282, Note_on_c, 15, 40, 119
35, 536301, Note_on_c, 15, 40, 0
35, 536347, Note_on_c, 15, 40, 106
35, 536360, Note_on_c, 15, 40, 0
35, 536379, Note_on_c, 15, 40, 116
35, 536398, Note_on_c, 15, 40, 0
35, 536415, Note_on_c, 15, 42, 105
35, 536434, Note_on_c, 15, 42, 0
35, 536461, Note_on_c, 15, 42, 115
35, 536465, Note_on_c, 15, 42, 0
35, 536484, Note_on_c, 15, 42, 108
35, 536503, Note_on_c, 15, 42, 0
35, 536534, Note_on_c, 15, 42, 122
35, 536545, Note_on_c, 15, 42, 0
35, 536565, Note_on_c, 15, 42, 117
35, 536585, Note_on_c, 15, 42, 0
35, 536626, Note_on_c, 15, 42, 122
35, 536645, Note_on_c, 15, 42, 0
35, 536663, Note_on_c, 15, 43, 111
35, 536675, Note_on_c, 15, 43, 0
35, 536695, Note_on_c, 15, 43, 108
35, 536715, Note_on_c, 15, 43, 0
35, 536745, Note_on_c, 15, 43, 122
35, 536746, Note_on_c, 15, 43, 0
35, 536764, Note_on_c, 15, 43, 116
35, 536783, Note_on_c, 15, 43, 0
35, 536828, Note_on_c, 15, 43, 114
35, 536846, Note_on_c, 15, 43, 0
35, 536866, Note_on_c, 15, 43, 109
35, 536885, Note_on_c, 15, 43, 0
35, 536898, Note_on_c, 15, 45, 120
35, 536917, Note_on_c, 15, 45, 0
35, 536939, Note_on_c, 15, 45, 120
35, 536959, Note_on_c, 15, 45, 0
35, 536988, Note_on_c, 15, 45, 107
35, 537002, Note_on_c, 15, 45, 0
35, 537021, Note_on_c, 15, 45, 121
35, 537022, Note_on_c, 15, 45, 0
35, 537041, Note_on_c, 15, 45, 121
35, 537061, Note_on_c, 15, 45, 0
35, 537095, Note_on_c, 15, 45, 112
35, 537114, Note_on_c, 15, 45, 0
35, 537125, Note_on_c, 15, 46, 110
35, 537144, Note_on_c, 15, 46, 0
35, 537181, Note_on_c, 15, 46, 109
35, 537199, Note_on_c, 15, 46, 0
35, 537219, Note_on_c, 15, 46, 115
35, 537238, Note_on_c, 15, 46, 0
35, 537268, Note_on_c, 15, 46, 106
35, 537284, Note_on_c, 15, 46, 0
35, 537303, Note_on_c, 15, 46, 114
35, 537318, Note_on_c, 15, 46, 0
35, 537338, Note_on_c, 15, 46, 117
35, 537357, Note_on_c, 15, 46, 0
35, 537363, Note_on_c, 15, 47, 111
35, 537382, Note_on_c, 15, 47, 0
35, 537417, Note_on_c, 15, 47, 107
35, 537437, Note_on_c, 15, 47, 0
35, 537463, Note_on_c, 15, 47, 118
35, 537470, Note_on_c, 15, 47, 0
35, 537489, Note_on_c, 15, 47, 112
35, 537508, Note_on_c, 15, 47, 0
35, 537540, Note_on_c, 15, 47, 110
35, 537560, Note_on_c, 15, 47, 0
35, 537581, Note_on_c, 15, 47, 119
35, 537600, Note_on_c, 15, 47, 0
35, 537862, Note_on_c, 15, 29, 48
35, 537909, Note_on_c, 15, 29, 0
35, 538096, Note_on_c, 15, 29, 54
35, 538143, Note_on_c, 15, 29, 0
35, 538588, Note_on_c, 15, 29, 48
35, 538635, Note_on_c, 15, 29, 0
35, 539048, Note_on_c, 15, 29, 50
35, 539095, Note_on_c, 15, 29, 0
35, 539303, Note_on_c, 15, 29, 51
35, 539350, Note_on_c, 15, 29, 0
35, 539540, Note_on_c, 15, 29, 52
35, 539587, Note_on_c, 15, 29, 0
35, 540009, Note_on_c, 15, 29, 48
35, 540056, Note_on_c, 15, 29, 0
35, 540242, Note_on_c, 15, 29, 54
35, 540289, Note_on_c, 15, 29, 0
35, 540742, Note_on_c, 15, 29, 41
35, 540789, Note_on_c, 15, 29, 0
35, 541207, Note_on_c, 15, 29, 50
35, 541254, Note_on_c, 15, 29, 0
35, 541681, Note_on_c, 15, 29, 41
35, 541728, Note_on_c, 15, 29, 0
35, 542170, Note_on_c, 15, 29, 48
35, 542217, Note_on_c, 15, 29, 0
35, 542419, Note_on_c, 15, 29, 55
35, 542466, Note_on_c, 15, 29, 0
35, 542896, Note_on_c, 15, 29, 41
35, 542943, Note_on_c, 15, 29, 0
35, 543364, Note_on_c, 15, 29, 49
35, 543411, Note_on_c, 15, 29, 0
35, 543853, Note_on_c, 15, 29, 50
35, 543900, Note_on_c, 15, 29, 0
35, 544341, Note_on_c, 15, 29, 48
35, 544388, Note_on_c, 15, 29, 0
35, 544574, Note_on_c, 15, 29, 52
35, 544621, Note_on_c, 15, 29, 0
35, 544803, Note_on_c, 15, 29, 55
35, 544850, Note_on_c, 15, 29, 0
35, 545307, Note_on_c, 15, 29, 54
35, 545354, Note_on_c, 15, 29, 0
35, 545764, Note_on_c, 15, 29, 50
35, 545811, Note_on_c, 15, 29, 0
35, 546006, Note_on_c, 15, 42, 83
35, 546036, Note_on_c, 15, 42, 0
35, 546060, Note_on_c, 15, 42, 87
35, 546090, Note_on_c, 15, 42, 0
35, 546254, Note_on_c, 15, 42, 96
35, 546283, Note_on_c, 15, 42, 0
35, 546302, Note_on_c, 15, 42, 89
35, 546332, Note_on_c, 15, 42, 0
35, 546733, Note_on_c, 15, 42, 83
35, 546763, Note_on_c, 15, 42, 0
35, 546790, Note_on_c, 15, 42, 82
35, 546820, Note_on_c, 15, 42, 0
35, 547207, Note_on_c, 15, 42, 90
35, 547237, Note_on_c, 15, 42, 0
35, 547269, Note_on_c, 15, 42, 93
35, 547299, Note_on_c, 15, 42, 0
35, 547449, Note_on_c, 15, 44, 89
35, 547479, Note_on_c, 15, 44, 0
35, 547504, Note_on_c, 15, 44, 83
35, 547534, Note_on_c, 15, 44, 0
35, 547683, Note_on_c, 15, 42, 87
35, 547713, Note_on_c, 15, 42, 0
35, 547761, Note_on_c, 15, 42, 97
35, 547791, Note_on_c, 15, 42, 0
35, 548168, Note_on_c, 15, 42, 85
35, 548198, Note_on_c, 15, 42, 0
35, 548244, Note_on_c, 15, 42, 91
35, 548274, Note_on_c, 15, 42, 0
35, 548668, Note_on_c, 15, 42, 81
35, 548685, Note_on_c, 15, 42, 0
35, 548705, Note_on_c, 15, 42, 83
35, 548735, Note_on_c, 15, 42, 0
35, 549120, Note_on_c, 15, 42, 97
35, 549150, Note_on_c, 15, 42, 0
35, 549189, Note_on_c, 15, 42, 96
35, 549219, Note_on_c, 15, 42, 0
35, 549366, Note_on_c, 15, 44, 91
35, 549396, Note_on_c, 15, 44, 0
35, 549430, Note_on_c, 15, 44, 96
35, 549460, Note_on_c, 15, 44, 0
35, 549841, Note_on_c, 15, 47, 86
35, 549871, Note_on_c, 15, 47, 0
35, 549925, Note_on_c, 15, 47, 90
35, 549955, Note_on_c, 15, 47, 0
35, 550325, Note_on_c, 15, 47, 82
35, 550355, Note_on_c, 15, 47, 0
35, 550393, Note_on_c, 15, 47, 88
35, 550423, Note_on_c, 15, 47, 0
35, 550573, Note_on_c, 15, 47, 80
35, 550616, Note_on_c, 15, 47, 0
35, 550635, Note_on_c, 15, 47, 94
35, 550695, Note_on_c, 15, 47, 0
35, 550800, Program_c, 15, 45
35, 550820, Note_on_c, 15, 48, 115
35, 550940, Note_on_c, 15, 48, 0
35, 551032, Program_c, 15, 48
35, 551425, Note_on_c, 15, 37, 120
35, 551478, Note_on_c, 15, 37, 0
35, 552851, Note_on_c, 15, 37, 106
35, 552904, Note_on_c, 15, 37, 0
35, 554404, Note_on_c, 15, 37, 111
35, 554511, Note_on_c, 15, 37, 0
35, 554641, Note_on_c, 15, 37, 114
35, 554694, Note_on_c, 15, 37, 0
35, 555613, Note_on_c, 15, 37, 108
35, 555666, Note_on_c, 15, 37, 0
35, 556103, Note_on_c, 15, 37, 119
35, 556156, Note_on_c, 15, 37, 0
35, 558147, Note_on_c, 15, 37, 113
35, 558200, Note_on_c, 15, 37, 0
35, 558620, Note_on_c, 15, 37, 115
35, 558673, Note_on_c, 15, 37, 0
35, 559806, Note_on_c, 15, 37, 120
35, 559949, Note_on_c, 15, 37, 0
35, 560062, Note_on_c, 15, 40, 109
35, 560205, Note_on_c, 15, 40, 0
35, 560293, Note_on_c, 15, 37, 101
35, 560340, Note_on_c, 15, 37, 0
35, 560427, Note_on_c, 15, 40, 110
35, 560534, Note_on_c, 15, 40, 0
35, 560906, Note_on_c, 15, 37, 114
35, 561013, Note_on_c, 15, 37, 0
35, 561135, Note_on_c, 15, 40, 107
35, 561242, Note_on_c, 15, 40, 0
35, 561628, Note_on_c, 15, 37, 120
35, 561681, Note_on_c, 15, 37, 0
35, 561967, Note_on_c, 15, 37, 109
35, 562110, Note_on_c, 15, 37, 0
35, 562217, Note_on_c, 15, 40, 110
35, 562360, Note_on_c, 15, 40, 0
35, 562454, Note_on_c, 15, 37, 100
35, 562501, Note_on_c, 15, 37, 0
35, 562586, Note_on_c, 15, 40, 108
35, 562693, Note_on_c, 15, 40, 0
35, 563058, Note_on_c, 15, 37, 116
35, 563178, Note_on_c, 15, 37, 0
35, 563649, Note_on_c, 15, 37, 107
35, 563769, Note_on_c, 15, 37, 0
35, 564240, Note_on_c, 15, 35, 107
35, 564300, Note_on_c, 15, 35, 0
35, 564324, Note_on_c, 15, 36, 111
35, 564384, Note_on_c, 15, 36, 0
35, 564385, Note_on_c, 15, 37, 106
35, 564445, Note_on_c, 15, 37, 0
35, 564446, Note_on_c, 15, 38, 95
35, 564499, Note_on_c, 15, 39, 96
35, 564506, Note_on_c, 15, 38, 0
35, 564737, Note_on_c, 15, 28, 96
35, 564739, Note_on_c, 15, 39, 0
35, 564844, Note_on_c, 15, 28, 0
35, 564966, Note_on_c, 15, 34, 80
35, 565206, Note_on_c, 15, 34, 0
35, 565210, Note_on_c, 15, 29, 94
35, 565270, Note_on_c, 15, 29, 0
35, 565280, Note_on_c, 15, 30, 94
35, 565335, Note_on_c, 15, 31, 79
35, 565340, Note_on_c, 15, 30, 0
35, 565385, Note_on_c, 15, 32, 88
35, 565395, Note_on_c, 15, 31, 0
35, 565445, Note_on_c, 15, 32, 0
35, 565454, Note_on_c, 15, 33, 82
35, 565694, Note_on_c, 15, 33, 0
35, 566655, Note_on_c, 15, 35, 80
35, 566709, Note_on_c, 15, 36, 95
35, 566715, Note_on_c, 15, 35, 0
35, 566769, Note_on_c, 15, 36, 0
35, 566771, Note_on_c, 15, 37, 87
35, 566831, Note_on_c, 15, 37, 0
35, 566831, Note_on_c, 15, 38, 88
35, 566891, Note_on_c, 15, 38, 0
35, 566892, Note_on_c, 15, 39, 82
35, 567132, Note_on_c, 15, 39, 0
35, 567144, Note_on_c, 15, 28, 89
35, 567251, Note_on_c, 15, 28, 0
35, 567377, Note_on_c, 15, 34, 88
35, 567615, Note_on_c, 15, 29, 80
35, 567617, Note_on_c, 15, 34, 0
35, 567673, Note_on_c, 15, 30, 92
35, 567675, Note_on_c, 15, 29, 0
35, 567733, Note_on_c, 15, 30, 0
35, 567742, Note_on_c, 15, 31, 93
35, 567793, Note_on_c, 15, 32, 82
35, 567802, Note_on_c, 15, 31, 0
35, 567853, Note_on_c, 15, 32, 0
35, 567861, Note_on_c, 15, 33, 85
35, 568083, Note_on_c, 15, 35, 93
35, 568101, Note_on_c, 15, 33, 0
35, 568143, Note_on_c, 15, 35, 0
35, 568150, Note_on_c, 15, 36, 98
35, 568210, Note_on_c, 15, 36, 0
35, 568215, Note_on_c, 15, 37, 84
35, 568275, Note_on_c, 15, 37, 0
35, 568275, Note_on_c, 15, 38, 89
35, 568335, Note_on_c, 15, 38, 0
35, 568337, Note_on_c, 15, 39, 93
35, 568560, Note_on_c, 15, 28, 82
35, 568577, Note_on_c, 15, 39, 0
35, 568667, Note_on_c, 15, 28, 0
35, 568800, Note_on_c, 15, 34, 94
35, 569040, Note_on_c, 15, 34, 0
35, 569049, Note_on_c, 15, 29, 88
35, 569103, Note_on_c, 15, 30, 89
35, 569109, Note_on_c, 15, 29, 0
35, 569162, Note_on_c, 15, 31, 83
35, 569163, Note_on_c, 15, 30, 0
35, 569222, Note_on_c, 15, 31, 0
35, 569246, Note_on_c, 15, 32, 97
35, 569306, Note_on_c, 15, 32, 0
35, 569307, Note_on_c, 15, 33, 96
35, 569547, Note_on_c, 15, 33, 0
35, 570498, Note_on_c, 15, 35, 95
35, 570552, Note_on_c, 15, 36, 93
35, 570558, Note_on_c, 15, 35, 0
35, 570604, Note_on_c, 15, 37, 84
35, 570612, Note_on_c, 15, 36, 0
35, 570664, Note_on_c, 15, 37, 0
35, 570685, Note_on_c, 15, 38, 82
35, 570732, Note_on_c, 15, 39, 89
35, 570745, Note_on_c, 15, 38, 0
35, 570972, Note_on_c, 15, 39, 0
35, 570985, Note_on_c, 15, 28, 88
35, 571092, Note_on_c, 15, 28, 0
35, 571209, Note_on_c, 15, 34, 90
35, 571449, Note_on_c, 15, 34, 0
35, 571466, Note_on_c, 15, 29, 98
35, 571504, Note_on_c, 15, 30, 88
35, 571526, Note_on_c, 15, 29, 0
35, 571564, Note_on_c, 15, 30, 0
35, 571585, Note_on_c, 15, 31, 80
35, 571622, Note_on_c, 15, 32, 96
35, 571645, Note_on_c, 15, 31, 0
35, 571680, Note_on_c, 15, 33, 91
35, 571682, Note_on_c, 15, 32, 0
35, 571920, Note_on_c, 15, 33, 0
35, 571941, Note_on_c, 15, 35, 78
35, 571995, Note_on_c, 15, 36, 88
35, 572001, Note_on_c, 15, 35, 0
35, 572052, Note_on_c, 15, 37, 79
35, 572055, Note_on_c, 15, 36, 0
35, 572109, Note_on_c, 15, 38, 97
35, 572112, Note_on_c, 15, 37, 0
35, 572169, Note_on_c, 15, 38, 0
35, 572172, Note_on_c, 15, 39, 80
35, 572401, Note_on_c, 15, 28, 82
35, 572412, Note_on_c, 15, 39, 0
35, 572508, Note_on_c, 15, 28, 0
35, 572656, Note_on_c, 15, 34, 98
35, 572887, Note_on_c, 15, 29, 97
35, 572896, Note_on_c, 15, 34, 0
35, 572947, Note_on_c, 15, 29, 0
35, 572965, Note_on_c, 15, 30, 89
35, 573001, Note_on_c, 15, 31, 83
35, 573025, Note_on_c, 15, 30, 0
35, 573061, Note_on_c, 15, 31, 0
35, 573063, Note_on_c, 15, 32, 89
35, 573123, Note_on_c, 15, 32, 0
35, 573142, Note_on_c, 15, 33, 98
35, 573382, Note_on_c, 15, 33, 0
35, 574328, Note_on_c, 15, 35, 82
35, 574386, Note_on_c, 15, 36, 93
35, 574388, Note_on_c, 15, 35, 0
35, 574446, Note_on_c, 15, 36, 0
35, 574467, Note_on_c, 15, 37, 89
35, 574508, Note_on_c, 15, 38, 93
35, 574527, Note_on_c, 15, 37, 0
35, 574568, Note_on_c, 15, 38, 0
35, 574577, Note_on_c, 15, 39, 79
35, 574817, Note_on_c, 15, 39, 0
35, 574827, Note_on_c, 15, 28, 91
35, 574934, Note_on_c, 15, 28, 0
35, 575065, Note_on_c, 15, 34, 82
35, 575304, Note_on_c, 15, 29, 92
35, 575305, Note_on_c, 15, 34, 0
35, 575347, Note_on_c, 15, 30, 84
35, 575364, Note_on_c, 15, 29, 0
35, 575407, Note_on_c, 15, 30, 0
35, 575428, Note_on_c, 15, 31, 94
35, 575476, Note_on_c, 15, 32, 83
35, 575488, Note_on_c, 15, 31, 0
35, 575530, Note_on_c, 15, 33, 98
35, 575536, Note_on_c, 15, 32, 0
35, 575770, Note_on_c, 15, 33, 0
35, 576262, Note_on_c, 15, 35, 87
35, 576320, Note_on_c, 15, 36, 90
35, 576322, Note_on_c, 15, 35, 0
35, 576380, Note_on_c, 15, 36, 0
35, 576383, Note_on_c, 15, 37, 92
35, 576443, Note_on_c, 15, 37, 0
35, 576445, Note_on_c, 15, 38, 81
35, 576505, Note_on_c, 15, 38, 0
35, 576505, Note_on_c, 15, 39, 97
35, 576743, Note_on_c, 15, 28, 83
35, 576745, Note_on_c, 15, 39, 0
35, 576850, Note_on_c, 15, 28, 0
35, 576979, Note_on_c, 15, 34, 88
35, 577219, Note_on_c, 15, 34, 0
35, 577227, Note_on_c, 15, 29, 95
35, 577274, Note_on_c, 15, 30, 85
35, 577287, Note_on_c, 15, 29, 0
35, 577334, Note_on_c, 15, 30, 0
35, 577347, Note_on_c, 15, 31, 95
35, 577381, Note_on_c, 15, 32, 90
35, 577407, Note_on_c, 15, 31, 0
35, 577441, Note_on_c, 15, 32, 0
35, 577458, Note_on_c, 15, 33, 94
35, 577698, Note_on_c, 15, 33, 0
35, 578654, Note_on_c, 15, 35, 88
35, 578714, Note_on_c, 15, 35, 0
35, 578722, Note_on_c, 15, 36, 95
35, 578776, Note_on_c, 15, 37, 87
35, 578782, Note_on_c, 15, 36, 0
35, 578836, Note_on_c, 15, 37, 0
35, 578844, Note_on_c, 15, 38, 86
35, 578880, Note_on_c, 15, 39, 90
35, 578904, Note_on_c, 15, 38, 0
35, 579120, Note_on_c, 15, 39, 0
35, 579128, Note_on_c, 15, 28, 94
35, 579235, Note_on_c, 15, 28, 0
35, 579376, Note_on_c, 15, 34, 84
35, 579607, Note_on_c, 15, 29, 94
35, 579616, Note_on_c, 15, 34, 0
35, 579667, Note_on_c, 15, 29, 0
35, 579688, Note_on_c, 15, 30, 82
35, 579740, Note_on_c, 15, 31, 93
35, 579748, Note_on_c, 15, 30, 0
35, 579788, Note_on_c, 15, 32, 91
35, 579800, Note_on_c, 15, 31, 0
35, 579848, Note_on_c, 15, 32, 0
35, 579854, Note_on_c, 15, 33, 84
35, 580094, Note_on_c, 15, 33, 0
35, 581061, Note_on_c, 15, 35, 87
35, 581121, Note_on_c, 15, 35, 0
35, 581124, Note_on_c, 15, 36, 85
35, 581173, Note_on_c, 15, 37, 93
35, 581184, Note_on_c, 15, 36, 0
35, 581226, Note_on_c, 15, 38, 95
35, 581233, Note_on_c, 15, 37, 0
35, 581286, Note_on_c, 15, 38, 0
35, 581301, Note_on_c, 15, 39, 95
35, 581534, Note_on_c, 15, 28, 82
35, 581541, Note_on_c, 15, 39, 0
35, 581641, Note_on_c, 15, 28, 0
35, 581768, Note_on_c, 15, 34, 80
35, 582001, Note_on_c, 15, 29, 79
35, 582008, Note_on_c, 15, 34, 0
35, 582061, Note_on_c, 15, 29, 0
35, 582063, Note_on_c, 15, 30, 91
35, 582123, Note_on_c, 15, 30, 0
35, 582127, Note_on_c, 15, 31, 96
35, 582187, Note_on_c, 15, 31, 0
35, 582187, Note_on_c, 15, 32, 84
35, 582243, Note_on_c, 15, 33, 94
35, 582247, Note_on_c, 15, 32, 0
35, 582483, Note_on_c, 15, 33, 0
35, 582988, Note_on_c, 15, 35, 80
35, 583028, Note_on_c, 15, 36, 86
35, 583048, Note_on_c, 15, 35, 0
35, 583084, Note_on_c, 15, 37, 89
35, 583088, Note_on_c, 15, 36, 0
35, 583144, Note_on_c, 15, 37, 0
35, 583147, Note_on_c, 15, 38, 92
35, 583203, Note_on_c, 15, 39, 91
35, 583207, Note_on_c, 15, 38, 0
35, 583441, Note_on_c, 15, 28, 89
35, 583443, Note_on_c, 15, 39, 0
35, 583548, Note_on_c, 15, 28, 0
35, 583689, Note_on_c, 15, 34, 87
35, 583929, Note_on_c, 15, 34, 0
35, 583933, Note_on_c, 15, 29, 87
35, 583988, Note_on_c, 15, 30, 80
35, 583993, Note_on_c, 15, 29, 0
35, 584048, Note_on_c, 15, 30, 0
35, 584059, Note_on_c, 15, 31, 98
35, 584107, Note_on_c, 15, 32, 80
35, 584119, Note_on_c, 15, 31, 0
35, 584167, Note_on_c, 15, 32, 0
35, 584172, Note_on_c, 15, 33, 89
35, 584412, Note_on_c, 15, 33, 0
35, 584891, Note_on_c, 15, 35, 81
35, 584951, Note_on_c, 15, 35, 0
35, 584967, Note_on_c, 15, 36, 80
35, 585003, Note_on_c, 15, 37, 98
35, 585027, Note_on_c, 15, 36, 0
35, 585061, Note_on_c, 15, 38, 93
35, 585063, Note_on_c, 15, 37, 0
35, 585121, Note_on_c, 15, 38, 0
35, 585121, Note_on_c, 15, 39, 81
35, 585361, Note_on_c, 15, 39, 0
35, 585378, Note_on_c, 15, 28, 84
35, 585485, Note_on_c, 15, 28, 0
35, 585626, Note_on_c, 15, 34, 92
35, 585866, Note_on_c, 15, 34, 0
35, 586088, Note_on_c, 15, 34, 80
35, 586328, Note_on_c, 15, 34, 0
35, 586826, Note_on_c, 15, 35, 86
35, 586877, Note_on_c, 15, 36, 97
35, 586886, Note_on_c, 15, 35, 0
35, 586937, Note_on_c, 15, 36, 0
35, 586940, Note_on_c, 15, 37, 90
35, 586988, Note_on_c, 15, 38, 84
35, 587000, Note_on_c, 15, 37, 0
35, 587046, Note_on_c, 15, 39, 87
35, 587048, Note_on_c, 15, 38, 0
35, 587286, Note_on_c, 15, 39, 0
35, 587293, Note_on_c, 15, 28, 94
35, 587400, Note_on_c, 15, 28, 0
35, 587534, Note_on_c, 15, 34, 87
35, 587768, Note_on_c, 15, 29, 98
35, 587774, Note_on_c, 15, 34, 0
35, 587828, Note_on_c, 15, 29, 0
35, 587829, Note_on_c, 15, 30, 87
35, 587889, Note_on_c, 15, 30, 0
35, 587904, Note_on_c, 15, 31, 79
35, 587955, Note_on_c, 15, 32, 93
35, 587964, Note_on_c, 15, 31, 0
35, 588015, Note_on_c, 15, 32, 0
35, 588016, Note_on_c, 15, 33, 95
35, 588247, Note_on_c, 15, 35, 92
35, 588256, Note_on_c, 15, 33, 0
35, 588307, Note_on_c, 15, 35, 0
35, 588308, Note_on_c, 15, 36, 94
35, 588368, Note_on_c, 15, 36, 0
35, 588384, Note_on_c, 15, 37, 97
35, 588423, Note_on_c, 15, 38, 88
35, 588444, Note_on_c, 15, 37, 0
35, 588483, Note_on_c, 15, 38, 0
35, 588496, Note_on_c, 15, 39, 97
35, 588733, Note_on_c, 15, 28, 86
35, 588736, Note_on_c, 15, 39, 0
35, 588840, Note_on_c, 15, 28, 0
35, 588968, Note_on_c, 15, 34, 93
35, 589208, Note_on_c, 15, 34, 0
35, 590646, Note_on_c, 15, 35, 88
35, 590706, Note_on_c, 15, 35, 0
35, 590707, Note_on_c, 15, 36, 89
35, 590767, Note_on_c, 15, 36, 0
35, 590773, Note_on_c, 15, 37, 93
35, 590833, Note_on_c, 15, 37, 0
35, 590845, Note_on_c, 15, 38, 82
35, 590896, Note_on_c, 15, 39, 84
35, 590905, Note_on_c, 15, 38, 0
35, 591136, Note_on_c, 15, 39, 0
35, 591139, Note_on_c, 15, 28, 83
35, 591246, Note_on_c, 15, 28, 0
35, 591361, Note_on_c, 15, 34, 82
35, 591601, Note_on_c, 15, 34, 0
35, 591605, Note_on_c, 15, 29, 92
35, 591665, Note_on_c, 15, 29, 0
35, 591686, Note_on_c, 15, 30, 93
35, 591742, Note_on_c, 15, 31, 96
35, 591746, Note_on_c, 15, 30, 0
35, 591789, Note_on_c, 15, 32, 79
35, 591802, Note_on_c, 15, 31, 0
35, 591849, Note_on_c, 15, 32, 0
35, 591864, Note_on_c, 15, 33, 95
35, 592101, Note_on_c, 15, 35, 85
35, 592104, Note_on_c, 15, 33, 0
35, 592155, Note_on_c, 15, 36, 94
35, 592161, Note_on_c, 15, 35, 0
35, 592201, Note_on_c, 15, 37, 96
35, 592215, Note_on_c, 15, 36, 0
35, 592261, Note_on_c, 15, 37, 0
35, 592288, Note_on_c, 15, 38, 97
35, 592341, Note_on_c, 15, 39, 80
35, 592348, Note_on_c, 15, 38, 0
35, 592572, Note_on_c, 15, 28, 83
35, 592581, Note_on_c, 15, 39, 0
35, 592679, Note_on_c, 15, 28, 0
35, 592827, Note_on_c, 15, 34, 86
35, 593061, Note_on_c, 15, 29, 93
35, 593067, Note_on_c, 15, 34, 0
35, 593121, Note_on_c, 15, 29, 0
35, 593127, Note_on_c, 15, 30, 96
35, 593170, Note_on_c, 15, 31, 94
35, 593187, Note_on_c, 15, 30, 0
35, 593221, Note_on_c, 15, 32, 92
35, 593230, Note_on_c, 15, 31, 0
35, 593281, Note_on_c, 15, 32, 0
35, 593289, Note_on_c, 15, 33, 87
35, 593529, Note_on_c, 15, 33, 0
35, 593544, Note_on_c, 15, 35, 96
35, 593583, Note_on_c, 15, 36, 83
35, 593604, Note_on_c, 15, 35, 0
35, 593641, Note_on_c, 15, 37, 94
35, 593643, Note_on_c, 15, 36, 0
35, 593701, Note_on_c, 15, 37, 0
35, 593702, Note_on_c, 15, 38, 82
35, 593762, Note_on_c, 15, 38, 0
35, 593769, Note_on_c, 15, 39, 85
35, 594004, Note_on_c, 15, 28, 91
35, 594009, Note_on_c, 15, 39, 0
35, 594111, Note_on_c, 15, 28, 0
35, 594241, Note_on_c, 15, 34, 96
35, 594481, Note_on_c, 15, 34, 0
35, 594481, Note_on_c, 15, 29, 87
35, 594541, Note_on_c, 15, 29, 0
35, 594559, Note_on_c, 15, 30, 86
35, 594604, Note_on_c, 15, 31, 78
35, 594619, Note_on_c, 15, 30, 0
35, 594664, Note_on_c, 15, 31, 0
35, 594683, Note_on_c, 15, 32, 91
35, 594742, Note_on_c, 15, 33, 95
35, 594743, Note_on_c, 15, 32, 0
35, 594982, Note_on_c, 15, 33, 0
35, 595936, Note_on_c, 15, 35, 94
35, 595996, Note_on_c, 15, 35, 0
35, 596008, Note_on_c, 15, 36, 92
35, 596042, Note_on_c, 15, 37, 80
35, 596068, Note_on_c, 15, 36, 0
35, 596102, Note_on_c, 15, 37, 0
35, 596129, Note_on_c, 15, 38, 92
35, 596170, Note_on_c, 15, 39, 98
35, 596189, Note_on_c, 15, 38, 0
35, 596410, Note_on_c, 15, 39, 0
35, 596412, Note_on_c, 15, 28, 97
35, 596519, Note_on_c, 15, 28, 0
35, 596642, Note_on_c, 15, 34, 89
35, 596882, Note_on_c, 15, 34, 0
35, 596892, Note_on_c, 15, 29, 87
35, 596946, Note_on_c, 15, 30, 90
35, 596952, Note_on_c, 15, 29, 0
35, 597006, Note_on_c, 15, 30, 0
35, 597024, Note_on_c, 15, 31, 89
35, 597072, Note_on_c, 15, 32, 78
35, 597084, Note_on_c, 15, 31, 0
35, 597132, Note_on_c, 15, 32, 0
35, 597148, Note_on_c, 15, 33, 97
35, 597388, Note_on_c, 15, 33, 0
35, 597852, Note_on_c, 15, 35, 87
35, 597910, Note_on_c, 15, 36, 88
35, 597912, Note_on_c, 15, 35, 0
35, 597966, Note_on_c, 15, 37, 85
35, 597970, Note_on_c, 15, 36, 0
35, 598026, Note_on_c, 15, 37, 0
35, 598043, Note_on_c, 15, 38, 96
35, 598103, Note_on_c, 15, 38, 0
35, 598103, Note_on_c, 15, 39, 82
35, 598320, Note_on_c, 15, 28, 88
35, 598343, Note_on_c, 15, 39, 0
35, 598427, Note_on_c, 15, 28, 0
35, 598560, Note_on_c, 15, 34, 89
35, 598800, Note_on_c, 15, 34, 0
35, 598817, Note_on_c, 15, 29, 91
35, 598863, Note_on_c, 15, 30, 88
35, 598877, Note_on_c, 15, 29, 0
35, 598923, Note_on_c, 15, 30, 0
35, 598926, Note_on_c, 15, 31, 90
35, 598986, Note_on_c, 15, 31, 0
35, 599004, Note_on_c, 15, 32, 93
35, 599053, Note_on_c, 15, 33, 83
35, 599064, Note_on_c, 15, 32, 0
35, 599293, Note_on_c, 15, 33, 0
35, 600258, Note_on_c, 15, 35, 89
35, 600318, Note_on_c, 15, 35, 0
35, 600328, Note_on_c, 15, 36, 86
35, 600371, Note_on_c, 15, 37, 95
35, 600388, Note_on_c, 15, 36, 0
35, 600423, Note_on_c, 15, 38, 86
35, 600431, Note_on_c, 15, 37, 0
35, 600483, Note_on_c, 15, 38, 0
35, 600487, Note_on_c, 15, 39, 79
35, 600727, Note_on_c, 15, 39, 0
35, 600727, Note_on_c, 15, 28, 88
35, 600834, Note_on_c, 15, 28, 0
35, 600987, Note_on_c, 15, 34, 94
35, 601227, Note_on_c, 15, 34, 0
35, 601463, Note_on_c, 15, 33, 98
35, 601583, Note_on_c, 15, 33, 0
35, 602041, Note_on_c, 15, 26, 102
35, 602058, Note_on_c, 15, 38, 107
35, 602113, Note_on_c, 15, 26, 0
35, 602130, Note_on_c, 15, 38, 0
35, 602308, Note_on_c, 15, 38, 113
35, 602380, Note_on_c, 15, 38, 0
35, 603480, Note_on_c, 15, 38, 105
35, 603497, Note_on_c, 15, 26, 112
35, 603552, Note_on_c, 15, 38, 0
35, 603569, Note_on_c, 15, 26, 0
35, 603723, Note_on_c, 15, 29, 103
35, 603795, Note_on_c, 15, 29, 0
35, 604458, Note_on_c, 15, 35, 101
35, 604518, Note_on_c, 15, 35, 0
35, 604522, Note_on_c, 15, 36, 106
35, 604580, Note_on_c, 15, 37, 119
35, 604582, Note_on_c, 15, 36, 0
35, 604640, Note_on_c, 15, 37, 0
35, 604643, Note_on_c, 15, 38, 95
35, 604686, Note_on_c, 15, 39, 104
35, 604703, Note_on_c, 15, 38, 0
35, 604926, Note_on_c, 15, 39, 0
35, 604947, Note_on_c, 15, 28, 108
35, 605054, Note_on_c, 15, 28, 0
35, 605187, Note_on_c, 15, 34, 94
35, 605425, Note_on_c, 15, 29, 99
35, 605427, Note_on_c, 15, 34, 0
35, 605473, Note_on_c, 15, 30, 102
35, 605485, Note_on_c, 15, 29, 0
35, 605520, Note_on_c, 15, 31, 92
35, 605533, Note_on_c, 15, 30, 0
35, 605580, Note_on_c, 15, 31, 0
35, 605591, Note_on_c, 15, 32, 93
35, 605643, Note_on_c, 15, 33, 109
35, 605651, Note_on_c, 15, 32, 0
35, 605883, Note_on_c, 15, 33, 0
35, 606843, Note_on_c, 15, 35, 100
35, 606903, Note_on_c, 15, 35, 0
35, 606926, Note_on_c, 15, 36, 102
35, 606977, Note_on_c, 15, 37, 108
35, 606986, Note_on_c, 15, 36, 0
35, 607033, Note_on_c, 15, 38, 100
35, 607037, Note_on_c, 15, 37, 0
35, 607087, Note_on_c, 15, 39, 91
35, 607093, Note_on_c, 15, 38, 0
35, 607327, Note_on_c, 15, 39, 0
35, 607347, Note_on_c, 15, 28, 106
35, 607454, Note_on_c, 15, 28, 0
35, 607569, Note_on_c, 15, 34, 106
35, 607809, Note_on_c, 15, 34, 0
35, 607810, Note_on_c, 15, 29, 102
35, 607870, Note_on_c, 15, 29, 0
35, 607872, Note_on_c, 15, 30, 92
35, 607932, Note_on_c, 15, 30, 0
35, 607939, Note_on_c, 15, 31, 92
35, 607989, Note_on_c, 15, 32, 107
35, 607999, Note_on_c, 15, 31, 0
35, 608047, Note_on_c, 15, 33, 101
35, 608049, Note_on_c, 15, 32, 0
35, 608287, Note_on_c, 15, 33, 0
35, 609248, Note_on_c, 15, 35, 103
35, 609308, Note_on_c, 15, 35, 0
35, 609325, Note_on_c, 15, 36, 105
35, 609370, Note_on_c, 15, 37, 98
35, 609385, Note_on_c, 15, 36, 0
35, 609430, Note_on_c, 15, 37, 0
35, 609444, Note_on_c, 15, 38, 104
35, 609481, Note_on_c, 15, 39, 108
35, 609504, Note_on_c, 15, 38, 0
35, 609721, Note_on_c, 15, 39, 0
35, 609731, Note_on_c, 15, 28, 93
35, 609838, Note_on_c, 15, 28, 0
35, 609967, Note_on_c, 15, 34, 96
35, 610207, Note_on_c, 15, 34, 0
35, 610226, Note_on_c, 15, 29, 94
35, 610261, Note_on_c, 15, 30, 98
35, 610286, Note_on_c, 15, 29, 0
35, 610321, Note_on_c, 15, 30, 0
35, 610334, Note_on_c, 15, 31, 106
35, 610382, Note_on_c, 15, 32, 96
35, 610394, Note_on_c, 15, 31, 0
35, 610442, Note_on_c, 15, 32, 0
35, 610448, Note_on_c, 15, 33, 91
35, 610688, Note_on_c, 15, 33, 0
35, 611661, Note_on_c, 15, 35, 94
35, 611721, Note_on_c, 15, 35, 0
35, 611727, Note_on_c, 15, 36, 99
35, 611787, Note_on_c, 15, 36, 0
35, 611787, Note_on_c, 15, 37, 99
35, 611840, Note_on_c, 15, 38, 95
35, 611847, Note_on_c, 15, 37, 0
35, 611900, Note_on_c, 15, 38, 0
35, 611902, Note_on_c, 15, 39, 106
35, 612121, Note_on_c, 15, 28, 102
35, 612142, Note_on_c, 15, 39, 0
35, 612228, Note_on_c, 15, 28, 0
35, 612389, Note_on_c, 15, 34, 98
35, 612607, Note_on_c, 15, 29, 95
35, 612629, Note_on_c, 15, 34, 0
35, 612667, Note_on_c, 15, 29, 0
35, 612679, Note_on_c, 15, 30, 92
35, 612732, Note_on_c, 15, 31, 103
35, 612739, Note_on_c, 15, 30, 0
35, 612788, Note_on_c, 15, 32, 107
35, 612792, Note_on_c, 15, 31, 0
35, 612848, Note_on_c, 15, 32, 0
35, 612857, Note_on_c, 15, 33, 109
35, 613097, Note_on_c, 15, 33, 0
35, 614063, Note_on_c, 15, 35, 94
35, 614123, Note_on_c, 15, 35, 0
35, 614123, Note_on_c, 15, 36, 96
35, 614169, Note_on_c, 15, 37, 101
35, 614183, Note_on_c, 15, 36, 0
35, 614229, Note_on_c, 15, 37, 0
35, 614233, Note_on_c, 15, 38, 100
35, 614286, Note_on_c, 15, 39, 93
35, 614293, Note_on_c, 15, 38, 0
35, 614526, Note_on_c, 15, 39, 0
35, 614536, Note_on_c, 15, 28, 108
35, 614643, Note_on_c, 15, 28, 0
35, 614787, Note_on_c, 15, 34, 99
35, 615014, Note_on_c, 15, 29, 101
35, 615027, Note_on_c, 15, 34, 0
35, 615070, Note_on_c, 15, 30, 97
35, 615074, Note_on_c, 15, 29, 0
35, 615126, Note_on_c, 15, 31, 92
35, 615130, Note_on_c, 15, 30, 0
35, 615181, Note_on_c, 15, 32, 111
35, 615186, Note_on_c, 15, 31, 0
35, 615241, Note_on_c, 15, 32, 0
35, 615260, Note_on_c, 15, 33, 101
35, 615500, Note_on_c, 15, 33, 0
35, 616447, Note_on_c, 15, 35, 101
35, 616507, Note_on_c, 15, 35, 0
35, 616527, Note_on_c, 15, 36, 105
35, 616570, Note_on_c, 15, 37, 94
35, 616587, Note_on_c, 15, 36, 0
35, 616622, Note_on_c, 15, 38, 106
35, 616630, Note_on_c, 15, 37, 0
35, 616682, Note_on_c, 15, 38, 0
35, 616694, Note_on_c, 15, 39, 99
35, 616920, Note_on_c, 15, 28, 106
35, 616934, Note_on_c, 15, 39, 0
35, 617027, Note_on_c, 15, 28, 0
35, 617186, Note_on_c, 15, 34, 101
35, 617426, Note_on_c, 15, 34, 0
35, 617426, Note_on_c, 15, 29, 110
35, 617483, Note_on_c, 15, 30, 94
35, 617486, Note_on_c, 15, 29, 0
35, 617543, Note_on_c, 15, 30, 0
35, 617544, Note_on_c, 15, 31, 96
35, 617581, Note_on_c, 15, 32, 106
35, 617604, Note_on_c, 15, 31, 0
35, 617641, Note_on_c, 15, 32, 0
35, 617643, Note_on_c, 15, 33, 110
35, 617883, Note_on_c, 15, 33, 0
35, 618855, Note_on_c, 15, 35, 93
35, 618909, Note_on_c, 15, 36, 96
35, 618915, Note_on_c, 15, 35, 0
35, 618964, Note_on_c, 15, 37, 109
35, 618969, Note_on_c, 15, 36, 0
35, 619024, Note_on_c, 15, 37, 0
35, 619024, Note_on_c, 15, 38, 106
35, 619084, Note_on_c, 15, 38, 0
35, 619101, Note_on_c, 15, 39, 93
35, 619328, Note_on_c, 15, 28, 99
35, 619341, Note_on_c, 15, 39, 0
35, 619435, Note_on_c, 15, 28, 0
35, 619582, Note_on_c, 15, 34, 105
35, 619806, Note_on_c, 15, 29, 108
35, 619822, Note_on_c, 15, 34, 0
35, 619866, Note_on_c, 15, 29, 0
35, 619882, Note_on_c, 15, 30, 110
35, 619922, Note_on_c, 15, 31, 98
35, 619942, Note_on_c, 15, 30, 0
35, 619982, Note_on_c, 15, 31, 0
35, 619991, Note_on_c, 15, 32, 107
35, 620051, Note_on_c, 15, 32, 0
35, 620067, Note_on_c, 15, 33, 107
35, 620307, Note_on_c, 15, 33, 0
35, 621241, Note_on_c, 15, 35, 99
35, 621301, Note_on_c, 15, 35, 0
35, 621317, Note_on_c, 15, 36, 109
35, 621377, Note_on_c, 15, 36, 0
35, 621383, Note_on_c, 15, 37, 102
35, 621430, Note_on_c, 15, 38, 107
35, 621443, Note_on_c, 15, 37, 0
35, 621490, Note_on_c, 15, 38, 0
35, 621490, Note_on_c, 15, 39, 95
35, 621730, Note_on_c, 15, 39, 0
35, 621733, Note_on_c, 15, 28, 109
35, 621840, Note_on_c, 15, 28, 0
35, 621964, Note_on_c, 15, 34, 108
35, 622204, Note_on_c, 15, 34, 0
35, 622690, Note_on_c, 15, 29, 100
35, 622748, Note_on_c, 15, 30, 98
35, 622750, Note_on_c, 15, 29, 0
35, 622808, Note_on_c, 15, 30, 0
35, 622827, Note_on_c, 15, 31, 107
35, 622869, Note_on_c, 15, 32, 95
35, 622887, Note_on_c, 15, 31, 0
35, 622929, Note_on_c, 15, 32, 0
35, 622938, Note_on_c, 15, 33, 91
35, 623178, Note_on_c, 15, 33, 0
35, 623660, Note_on_c, 15, 35, 92
35, 623706, Note_on_c, 15, 36, 95
35, 623720, Note_on_c, 15, 35, 0
35, 623766, Note_on_c, 15, 36, 0
35, 623789, Note_on_c, 15, 37, 96
35, 623839, Note_on_c, 15, 38, 111
35, 623849, Note_on_c, 15, 37, 0
35, 623899, Note_on_c, 15, 38, 0
35, 623900, Note_on_c, 15, 39, 107
35, 624132, Note_on_c, 15, 28, 109
35, 624140, Note_on_c, 15, 39, 0
35, 624239, Note_on_c, 15, 28, 0
35, 624375, Note_on_c, 15, 34, 93
35, 624614, Note_on_c, 15, 29, 95
35, 624615, Note_on_c, 15, 34, 0
35, 624666, Note_on_c, 15, 30, 97
35, 624674, Note_on_c, 15, 29, 0
35, 624726, Note_on_c, 15, 30, 0
35, 624736, Note_on_c, 15, 31, 92
35, 624796, Note_on_c, 15, 31, 0
35, 624802, Note_on_c, 15, 32, 94
35, 624855, Note_on_c, 15, 33, 94
35, 624862, Note_on_c, 15, 32, 0
35, 625095, Note_on_c, 15, 33, 0
35, 626048, Note_on_c, 15, 35, 107
35, 626108, Note_on_c, 15, 35, 0
35, 626124, Note_on_c, 15, 36, 93
35, 626178, Note_on_c, 15, 37, 93
35, 626184, Note_on_c, 15, 36, 0
35, 626226, Note_on_c, 15, 38, 107
35, 626238, Note_on_c, 15, 37, 0
35, 626286, Note_on_c, 15, 38, 0
35, 626286, Note_on_c, 15, 39, 97
35, 626526, Note_on_c, 15, 39, 0
35, 626535, Note_on_c, 15, 28, 98
35, 626642, Note_on_c, 15, 28, 0
35, 626774, Note_on_c, 15, 34, 106
35, 627000, Note_on_c, 15, 29, 110
35, 627014, Note_on_c, 15, 34, 0
35, 627060, Note_on_c, 15, 29, 0
35, 627088, Note_on_c, 15, 30, 108
35, 627122, Note_on_c, 15, 31, 98
35, 627148, Note_on_c, 15, 30, 0
35, 627181, Note_on_c, 15, 32, 104
35, 627182, Note_on_c, 15, 31, 0
35, 627241, Note_on_c, 15, 32, 0
35, 627257, Note_on_c, 15, 33, 102
35, 627497, Note_on_c, 15, 33, 0
35, 627724, Note_on_c, 15, 45, 108
35, 627729, Note_on_c, 15, 33, 100
35, 627844, Note_on_c, 15, 45, 0
35, 627849, Note_on_c, 15, 33, 0
35, 627975, Note_on_c, 15, 36, 101
35, 628203, Note_on_c, 15, 33, 109
35, 628215, Note_on_c, 15, 36, 0
35, 628323, Note_on_c, 15, 33, 0
35, 628345, Note_on_c, 15, 36, 95
35, 628405, Note_on_c, 15, 36, 0
35, 628804, Note_on_c, 15, 33, 102
35, 628864, Note_on_c, 15, 33, 0
35, 629049, Note_on_c, 15, 36, 93
35, 629109, Note_on_c, 15, 36, 0
35, 629530, Note_on_c, 15, 33, 108
35, 629710, Note_on_c, 15, 33, 0
35, 629782, Note_on_c, 15, 36, 95
35, 629962, Note_on_c, 15, 36, 0
35, 630017, Note_on_c, 15, 33, 99
35, 630077, Note_on_c, 15, 33, 0
35, 630124, Note_on_c, 15, 36, 91
35, 630184, Note_on_c, 15, 36, 0
35, 630609, Note_on_c, 15, 33, 91
35, 630789, Note_on_c, 15, 33, 0
35, 630841, Note_on_c, 15, 36, 111
35, 631021, Note_on_c, 15, 36, 0
35, 631096, Note_on_c, 15, 33, 95
35, 631156, Note_on_c, 15, 33, 0
35, 631205, Note_on_c, 15, 36, 100
35, 631265, Note_on_c, 15, 36, 0
35, 631704, Note_on_c, 15, 33, 107
35, 631824, Note_on_c, 15, 33, 0
35, 631942, Note_on_c, 15, 36, 97
35, 632002, Note_on_c, 15, 36, 0
35, 632401, Note_on_c, 15, 33, 101
35, 632641, Note_on_c, 15, 33, 0
35, 632665, Note_on_c, 15, 36, 98
35, 632884, Note_on_c, 15, 33, 105
35, 632905, Note_on_c, 15, 36, 0
35, 632989, Note_on_c, 15, 33, 0
35, 633008, Note_on_c, 15, 33, 91
35, 633248, Note_on_c, 15, 33, 0
35, 633262, Note_on_c, 15, 36, 105
35, 633502, Note_on_c, 15, 36, 0
35, 633502, Note_on_c, 15, 33, 100
35, 633622, Note_on_c, 15, 33, 0
35, 633627, Note_on_c, 15, 36, 109
35, 633747, Note_on_c, 15, 36, 0
35, 634702, Note_on_c, 15, 33, 103
35, 634942, Note_on_c, 15, 33, 0
35, 634943, Note_on_c, 15, 36, 96
35, 635182, Note_on_c, 15, 33, 104
35, 635183, Note_on_c, 15, 36, 0
35, 635302, Note_on_c, 15, 33, 0
35, 635897, Note_on_c, 15, 33, 87
35, 635944, Note_on_c, 15, 33, 0
35, 636137, Note_on_c, 15, 36, 88
35, 636233, Note_on_c, 15, 36, 0
35, 636379, Note_on_c, 15, 33, 97
35, 636494, Note_on_c, 15, 36, 83
35, 636499, Note_on_c, 15, 33, 0
35, 636614, Note_on_c, 15, 36, 0
35, 636971, Note_on_c, 15, 33, 93
35, 637018, Note_on_c, 15, 33, 0
35, 637217, Note_on_c, 15, 36, 89
35, 637313, Note_on_c, 15, 36, 0
35, 637455, Note_on_c, 15, 33, 84
35, 637570, Note_on_c, 15, 36, 85
35, 637575, Note_on_c, 15, 33, 0
35, 637690, Note_on_c, 15, 36, 0
35, 638048, Note_on_c, 15, 33, 92
35, 638095, Note_on_c, 15, 33, 0
35, 638284, Note_on_c, 15, 36, 81
35, 638380, Note_on_c, 15, 36, 0
35, 638526, Note_on_c, 15, 33, 94
35, 638646, Note_on_c, 15, 33, 0
35, 638664, Note_on_c, 15, 36, 89
35, 638784, Note_on_c, 15, 36, 0
35, 639139, Note_on_c, 15, 33, 90
35, 639186, Note_on_c, 15, 33, 0
35, 639378, Note_on_c, 15, 36, 84
35, 639498, Note_on_c, 15, 36, 0
35, 639855, Note_on_c, 15, 45, 111
35, 639863, Note_on_c, 15, 33, 98
35, 639915, Note_on_c, 15, 45, 0
35, 639923, Note_on_c, 15, 33, 0
35, 640228, Note_on_c, 15, 36, 91
35, 640288, Note_on_c, 15, 36, 0
35, 640441, Note_on_c, 15, 33, 92
35, 640501, Note_on_c, 15, 33, 0
35, 640811, Note_on_c, 15, 36, 87
35, 640871, Note_on_c, 15, 36, 0
35, 641049, Note_on_c, 15, 45, 105
35, 641052, Note_on_c, 15, 33, 103
35, 641109, Note_on_c, 15, 45, 0
35, 641112, Note_on_c, 15, 33, 0
35, 641545, Note_on_c, 15, 36, 83
35, 641605, Note_on_c, 15, 36, 0
35, 641776, Note_on_c, 15, 33, 91
35, 641836, Note_on_c, 15, 33, 0
35, 642122, Note_on_c, 15, 36, 96
35, 642182, Note_on_c, 15, 36, 0
35, 642379, Note_on_c, 15, 33, 94
35, 642439, Note_on_c, 15, 33, 0
35, 642739, Note_on_c, 15, 36, 97
35, 642799, Note_on_c, 15, 36, 0
35, 642976, Note_on_c, 15, 33, 91
35, 643036, Note_on_c, 15, 33, 0
35, 643445, Note_on_c, 15, 36, 105
35, 643505, Note_on_c, 15, 36, 0
35, 643701, Note_on_c, 15, 33, 101
35, 643761, Note_on_c, 15, 33, 0
35, 644042, Note_on_c, 15, 36, 104
35, 644102, Note_on_c, 15, 36, 0
35, 644296, Note_on_c, 15, 33, 111
35, 644356, Note_on_c, 15, 33, 0
35, 644541, Note_on_c, 15, 36, 103
35, 644601, Note_on_c, 15, 36, 0
35, 644772, Note_on_c, 15, 33, 99
35, 644832, Note_on_c, 15, 33, 0
35, 645018, Note_on_c, 15, 36, 94
35, 645078, Note_on_c, 15, 36, 0
35, 645250, Note_on_c, 15, 33, 104
35, 645263, Note_on_c, 15, 45, 98
35, 645310, Note_on_c, 15, 33, 0
35, 645323, Note_on_c, 15, 45, 0
35, 645610, Note_on_c, 15, 36, 80
35, 645670, Note_on_c, 15, 36, 0
35, 645859, Note_on_c, 15, 33, 83
35, 645919, Note_on_c, 15, 33, 0
35, 646341, Note_on_c, 15, 36, 96
35, 646401, Note_on_c, 15, 36, 0
35, 646581, Note_on_c, 15, 33, 109
35, 646588, Note_on_c, 15, 45, 92
35, 646641, Note_on_c, 15, 33, 0
35, 646648, Note_on_c, 15, 45, 0
35, 646934, Note_on_c, 15, 36, 89
35, 646994, Note_on_c, 15, 36, 0
35, 647171, Note_on_c, 15, 33, 91
35, 647183, Note_on_c, 15, 45, 99
35, 647231, Note_on_c, 15, 33, 0
35, 647243, Note_on_c, 15, 45, 0
35, 647650, Note_on_c, 15, 36, 86
35, 647710, Note_on_c, 15, 36, 0
35, 647895, Note_on_c, 15, 33, 99
35, 647902, Note_on_c, 15, 45, 99
35, 647955, Note_on_c, 15, 33, 0
35, 647962, Note_on_c, 15, 45, 0
35, 648499, Note_on_c, 15, 36, 97
35, 648619, Note_on_c, 15, 36, 0
35, 648732, Note_on_c, 15, 33, 109
35, 648792, Note_on_c, 15, 33, 0
35, 649219, Note_on_c, 15, 33, 96
35, 649279, Note_on_c, 15, 33, 0
35, 649443, Note_on_c, 15, 36, 110
35, 649563, Note_on_c, 15, 36, 0
35, 649688, Note_on_c, 15, 33, 101
35, 649697, Note_on_c, 15, 45, 94
35, 649748, Note_on_c, 15, 33, 0
35, 649757, Note_on_c, 15, 45, 0
35, 650040, Note_on_c, 15, 36, 88
35, 650100, Note_on_c, 15, 36, 0
35, 650287, Note_on_c, 15, 33, 99
35, 650347, Note_on_c, 15, 33, 0
35, 650548, Note_on_c, 15, 36, 111
35, 650668, Note_on_c, 15, 36, 0
35, 650776, Note_on_c, 15, 33, 96
35, 650836, Note_on_c, 15, 33, 0
35, 651029, Note_on_c, 15, 36, 95
35, 651149, Note_on_c, 15, 36, 0
35, 651241, Note_on_c, 15, 33, 96
35, 651301, Note_on_c, 15, 33, 0
35, 651480, Note_on_c, 15, 36, 95
35, 651600, Note_on_c, 15, 36, 0
35, 651734, Note_on_c, 15, 33, 105
35, 651794, Note_on_c, 15, 33, 0
35, 651983, Note_on_c, 15, 36, 99
35, 652103, Note_on_c, 15, 36, 0
35, 652205, Note_on_c, 15, 33, 96
35, 652325, Note_on_c, 15, 33, 0
35, 652454, Note_on_c, 15, 36, 105
35, 652514, Note_on_c, 15, 36, 0
35, 652686, Note_on_c, 15, 33, 99
35, 652806, Note_on_c, 15, 33, 0
35, 652924, Note_on_c, 15, 36, 93
35, 653044, Note_on_c, 15, 36, 0
35, 653166, Note_on_c, 15, 33, 93
35, 653286, Note_on_c, 15, 33, 0
35, 653418, Note_on_c, 15, 36, 103
35, 653538, Note_on_c, 15, 36, 0
35, 653657, Note_on_c, 15, 33, 94
35, 653777, Note_on_c, 15, 33, 0
35, 653897, Note_on_c, 15, 36, 109
35, 654017, Note_on_c, 15, 36, 0
35, 654145, Note_on_c, 15, 33, 101
35, 654265, Note_on_c, 15, 33, 0
35, 654386, Note_on_c, 15, 36, 102
35, 654506, Note_on_c, 15, 36, 0
35, 654601, Note_on_c, 15, 33, 122
35, 654603, Note_on_c, 15, 45, 108
35, 654721, Note_on_c, 15, 33, 0
35, 654723, Note_on_c, 15, 45, 0
35, 658087, Note_on_c, 15, 28, 110
35, 658093, Note_on_c, 15, 38, 106
35, 658098, Note_on_c, 15, 26, 117
35, 658107, Note_on_c, 15, 33, 106
35, 658140, Note_on_c, 15, 28, 0
35, 658146, Note_on_c, 15, 38, 0
35, 658151, Note_on_c, 15, 26, 0
35, 658160, Note_on_c, 15, 33, 0
35, 658160, End_track
36, 0, Start_track
36, 0, Title_t, "Contrabbassi II"
36, 0, MIDI_port, 0
36, 0, Program_c, 15, 48
36, 89760, Program_c, 15, 48
36, 89768, Note_on_c, 15, 39, 48
36, 90248, Note_on_c, 15, 39, 0
36, 90253, Note_on_c, 15, 36, 46
36, 90727, Note_on_c, 15, 39, 47
36, 90733, Note_on_c, 15, 36, 0
36, 91207, Note_on_c, 15, 39, 0
36, 91222, Note_on_c, 15, 35, 57
36, 91654, Note_on_c, 15, 35, 0
36, 92187, Note_on_c, 15, 39, 51
36, 92645, Note_on_c, 15, 38, 53
36, 92667, Note_on_c, 15, 39, 0
36, 93125, Note_on_c, 15, 38, 0
36, 93146, Note_on_c, 15, 36, 46
36, 93622, Note_on_c, 15, 39, 39
36, 93626, Note_on_c, 15, 36, 0
36, 94100, Note_on_c, 15, 35, 41
36, 94102, Note_on_c, 15, 39, 0
36, 94532, Note_on_c, 15, 35, 0
36, 95049, Note_on_c, 15, 39, 54
36, 95529, Note_on_c, 15, 39, 0
36, 95536, Note_on_c, 15, 36, 57
36, 96001, Note_on_c, 15, 39, 39
36, 96016, Note_on_c, 15, 36, 0
36, 96481, Note_on_c, 15, 39, 0
36, 96496, Note_on_c, 15, 35, 46
36, 96928, Note_on_c, 15, 35, 0
36, 97461, Note_on_c, 15, 39, 52
36, 97926, Note_on_c, 15, 36, 53
36, 97941, Note_on_c, 15, 39, 0
36, 98405, Note_on_c, 15, 39, 42
36, 98406, Note_on_c, 15, 36, 0
36, 98885, Note_on_c, 15, 39, 0
36, 98902, Note_on_c, 15, 35, 56
36, 99209, Note_on_c, 15, 35, 0
36, 99384, Note_on_c, 15, 35, 39
36, 99624, Note_on_c, 15, 35, 0
36, 100106, Note_on_c, 15, 47, 44
36, 100346, Note_on_c, 15, 47, 0
36, 101066, Note_on_c, 15, 47, 41
36, 101306, Note_on_c, 15, 47, 0
36, 102021, Note_on_c, 15, 47, 48
36, 102261, Note_on_c, 15, 47, 0
36, 102980, Note_on_c, 15, 47, 45
36, 103220, Note_on_c, 15, 47, 0
36, 103934, Note_on_c, 15, 47, 52
36, 104174, Note_on_c, 15, 47, 0
36, 104889, Note_on_c, 15, 47, 51
36, 105129, Note_on_c, 15, 47, 0
36, 105853, Note_on_c, 15, 47, 48
36, 106093, Note_on_c, 15, 47, 0
36, 106800, Note_on_c, 15, 47, 49
36, 107040, Note_on_c, 15, 47, 0
36, 107783, Note_on_c, 15, 47, 57
36, 108023, Note_on_c, 15, 47, 0
36, 108729, Note_on_c, 15, 47, 42
36, 108969, Note_on_c, 15, 47, 0
36, 109704, Note_on_c, 15, 47, 45
36, 109944, Note_on_c, 15, 47, 0
36, 110651, Note_on_c, 15, 47, 45
36, 110891, Note_on_c, 15, 47, 0
36, 111606, Note_on_c, 15, 47, 45
36, 111846, Note_on_c, 15, 47, 0
36, 112565, Note_on_c, 15, 47, 50
36, 112805, Note_on_c, 15, 47, 0
36, 112805, End_track
37, 0, Start_track
37, 0, Title_t, "by Igor Stravinsky"
37, 0, MIDI_port, 0
37, 0, End_track
38, 0, Start_track
38, 0, Title_t, "© 2008 by Dario Galimberti"
38, 0, MIDI_port, 0
38, 0, End_track
39, 0, Start_track
39, 0, Title_t, "http://dariogalimberti.interfree.it"
39, 0, MIDI_port, 0
39, 0, End_track
0, 0, End_of_file
