0, 0, Header, 1, 19, 480
1, 0, Start_track
1, 0, Title_t, "The Black Page"
1, 0, SMPTE_offset, 96, 0, 3, 0, 0
1, 0, Time_signature, 2, 3, 12, 8
1, 0, Key_signature, 0, "major"
1, 0, Tempo, 1000000
1, 204, Tempo, 998336
1, 408, Tempo, 996678
1, 480, Time_signature, 4, 3, 12, 8
1, 612, Tempo, 995025
1, 816, Tempo, 993377
1, 1020, Tempo, 991736
1, 1224, Tempo, 990099
1, 1428, Tempo, 988468
1, 1632, Tempo, 986842
1, 1836, Tempo, 985222
1, 2040, Tempo, 983607
1, 2244, Tempo, 981997
1, 2448, Tempo, 980392
1, 2652, Tempo, 978793
1, 2856, Tempo, 977199
1, 3060, Tempo, 975610
1, 3264, Tempo, 974026
1, 3468, Tempo, 972447
1, 3672, Tempo, 970874
1, 3876, Tempo, 969305
1, 4080, Tempo, 967742
1, 4284, Tempo, 966184
1, 4488, Tempo, 964630
1, 4692, Tempo, 963082
1, 4896, Tempo, 961538
1, 5100, Tempo, 960000
1, 5304, Tempo, 958466
1, 5508, Tempo, 956938
1, 5712, Tempo, 955414
1, 5916, Tempo, 953895
1, 6120, Tempo, 952381
1, 6324, Tempo, 950872
1, 6528, Tempo, 949367
1, 6732, Tempo, 947867
1, 6936, Tempo, 946372
1, 7140, Tempo, 944882
1, 7344, Tempo, 943396
1, 7548, Tempo, 941915
1, 7752, Tempo, 940439
1, 7956, Tempo, 938967
1, 8160, Tempo, 937500
1, 9043, Tempo, 937354
1, 9926, Tempo, 937207
1, 10809, Tempo, 937061
1, 11692, Tempo, 936914
1, 12576, Tempo, 936768
1, 13459, Tempo, 936622
1, 14342, Tempo, 936476
1, 15225, Tempo, 936330
1, 16108, Tempo, 936183
1, 16992, Tempo, 936037
1, 17875, Tempo, 935891
1, 18758, Tempo, 935745
1, 19641, Tempo, 935600
1, 20524, Tempo, 935454
1, 21408, Tempo, 935308
1, 22291, Tempo, 935162
1, 23174, Tempo, 935016
1, 24057, Tempo, 934871
1, 24940, Tempo, 934725
1, 25824, Tempo, 934579
1, 26707, Tempo, 934434
1, 27590, Tempo, 934288
1, 28473, Tempo, 934143
1, 29356, Tempo, 933998
1, 30240, Tempo, 933852
1, 31123, Tempo, 933707
1, 32006, Tempo, 933562
1, 32889, Tempo, 933416
1, 33772, Tempo, 933271
1, 34656, Tempo, 933126
1, 35539, Tempo, 932981
1, 36422, Tempo, 932836
1, 37305, Tempo, 932691
1, 38188, Tempo, 932546
1, 39072, Tempo, 932401
1, 39955, Tempo, 932256
1, 40838, Tempo, 932111
1, 41721, Tempo, 931966
1, 42604, Tempo, 931822
1, 43488, Tempo, 931677
1, 44371, Tempo, 931532
1, 45254, Tempo, 931388
1, 46137, Tempo, 931243
1, 47020, Tempo, 931099
1, 47904, Tempo, 930954
1, 48787, Tempo, 930810
1, 49670, Tempo, 930665
1, 50553, Tempo, 930521
1, 51436, Tempo, 930377
1, 52320, Tempo, 930233
1, 53203, Tempo, 930088
1, 54086, Tempo, 929944
1, 54969, Tempo, 929800
1, 55852, Tempo, 929656
1, 56736, Tempo, 929512
1, 57619, Tempo, 929368
1, 58502, Tempo, 929224
1, 59385, Tempo, 929080
1, 60268, Tempo, 928936
1, 61152, Tempo, 928793
1, 62035, Tempo, 928649
1, 62918, Tempo, 928505
1, 63801, Tempo, 928361
1, 64684, Tempo, 928218
1, 65568, Tempo, 928074
1, 66451, Tempo, 927931
1, 67334, Tempo, 927787
1, 68217, Tempo, 927644
1, 69100, Tempo, 927500
1, 69984, Tempo, 927357
1, 70867, Tempo, 927214
1, 71750, Tempo, 927070
1, 72633, Tempo, 926927
1, 73516, Tempo, 926784
1, 74400, Tempo, 926641
1, 75283, Tempo, 926498
1, 76166, Tempo, 926355
1, 77049, Tempo, 926212
1, 77932, Tempo, 926069
1, 78816, Tempo, 925926
1, 79699, Tempo, 925783
1, 80582, Tempo, 925640
1, 81465, Tempo, 925497
1, 82348, Tempo, 925355
1, 83232, Tempo, 925212
1, 84115, Tempo, 925069
1, 84998, Tempo, 924927
1, 85881, Tempo, 924784
1, 86764, Tempo, 924642
1, 87648, Tempo, 924499
1, 88531, Tempo, 924357
1, 89414, Tempo, 924214
1, 90297, Tempo, 924072
1, 91180, Tempo, 923930
1, 92064, Tempo, 923788
1, 92947, Tempo, 923645
1, 93830, Tempo, 923503
1, 94713, Tempo, 923361
1, 95596, Tempo, 923219
1, 96480, Tempo, 923077
1, 106080, Tempo, 952381
1, 129120, Tempo, 882353
1, 129120, End_track
2, 0, Start_track
2, 0, MIDI_port, 0
2, 0, Title_t, "FRANK ZAPPA"
2, 0, Program_c, 0, 27
2, 0, Control_c, 0, 7, 127
2, 0, Control_c, 0, 10, 64
2, 240, Note_on_c, 0, 55, 127
2, 245, Note_on_c, 0, 60, 127
2, 250, Note_on_c, 0, 64, 127
2, 411, Note_on_c, 0, 64, 0
2, 438, Note_on_c, 0, 60, 0
2, 442, Note_on_c, 0, 55, 0
2, 480, Note_on_c, 0, 53, 127
2, 485, Note_on_c, 0, 58, 127
2, 490, Note_on_c, 0, 62, 127
2, 516, Note_on_c, 0, 58, 0
2, 520, Note_on_c, 0, 59, 115
2, 520, Note_on_c, 0, 55, 115
2, 521, Note_on_c, 0, 53, 0
2, 628, Note_on_c, 0, 62, 0
2, 638, Note_on_c, 0, 59, 0
2, 638, Note_on_c, 0, 55, 0
2, 2040, Note_on_c, 0, 55, 127
2, 2045, Note_on_c, 0, 64, 127
2, 2050, Note_on_c, 0, 60, 127
2, 2226, Note_on_c, 0, 60, 0
2, 2230, Note_on_c, 0, 64, 0
2, 2231, Note_on_c, 0, 55, 0
2, 2280, Note_on_c, 0, 55, 127
2, 2285, Note_on_c, 0, 60, 127
2, 2290, Note_on_c, 0, 64, 127
2, 2364, Note_on_c, 0, 60, 0
2, 2367, Note_on_c, 0, 55, 0
2, 2372, Note_on_c, 0, 64, 0
2, 2400, Note_on_c, 0, 53, 127
2, 2405, Note_on_c, 0, 58, 127
2, 2410, Note_on_c, 0, 62, 123
2, 2431, Note_on_c, 0, 58, 0
2, 2440, Note_on_c, 0, 59, 119
2, 2440, Note_on_c, 0, 55, 117
2, 2446, Note_on_c, 0, 53, 0
2, 2479, Note_on_c, 0, 62, 0
2, 2504, Note_on_c, 0, 59, 0
2, 2505, Note_on_c, 0, 55, 0
2, 2520, Note_on_c, 0, 55, 127
2, 2525, Note_on_c, 0, 59, 127
2, 2540, Note_on_c, 0, 62, 127
2, 2563, Note_on_c, 0, 55, 0
2, 2571, Note_on_c, 0, 59, 0
2, 2596, Note_on_c, 0, 62, 0
2, 2995, Note_on_c, 0, 43, 89
2, 2995, Note_on_c, 0, 47, 85
2, 2995, Note_on_c, 0, 45, 93
2, 3005, Note_on_c, 0, 48, 39
2, 3012, Note_on_c, 0, 48, 0
2, 3020, Note_on_c, 0, 43, 0
2, 3020, Note_on_c, 0, 47, 0
2, 3020, Note_on_c, 0, 45, 0
2, 3035, Note_on_c, 0, 35, 95
2, 3035, Note_on_c, 0, 39, 127
2, 3035, Note_on_c, 0, 38, 127
2, 3035, Note_on_c, 0, 36, 123
2, 3035, Note_on_c, 0, 41, 127
2, 3035, Note_on_c, 0, 40, 127
2, 3046, Note_on_c, 0, 39, 0
2, 3051, Note_on_c, 0, 35, 0
2, 3055, Note_on_c, 0, 36, 0
2, 3058, Note_on_c, 0, 38, 0
2, 3058, Note_on_c, 0, 40, 0
2, 3058, Note_on_c, 0, 41, 0
2, 3079, Note_on_c, 0, 62, 127
2, 3079, Note_on_c, 0, 61, 127
2, 3081, Note_on_c, 0, 60, 127
2, 3086, Note_on_c, 0, 59, 107
2, 3086, Note_on_c, 0, 57, 107
2, 3097, Note_on_c, 0, 61, 0
2, 3097, Note_on_c, 0, 62, 0
2, 3104, Note_on_c, 0, 55, 97
2, 3106, Note_on_c, 0, 58, 96
2, 3111, Note_on_c, 0, 58, 0
2, 3111, Note_on_c, 0, 60, 0
2, 3117, Note_on_c, 0, 59, 0
2, 3117, Note_on_c, 0, 53, 89
2, 3124, Note_on_c, 0, 57, 0
2, 3124, Note_on_c, 0, 52, 85
2, 3135, Note_on_c, 0, 55, 0
2, 3135, Note_on_c, 0, 50, 78
2, 3135, Note_on_c, 0, 48, 78
2, 3139, Note_on_c, 0, 53, 0
2, 3145, Note_on_c, 0, 47, 72
2, 3149, Note_on_c, 0, 52, 0
2, 3155, Note_on_c, 0, 50, 0
2, 3158, Note_on_c, 0, 45, 64
2, 3162, Note_on_c, 0, 48, 0
2, 3170, Note_on_c, 0, 47, 0
2, 3177, Note_on_c, 0, 45, 0
2, 36480, Control_c, 0, 10, 110
2, 36720, Program_c, 0, 72
2, 36960, Note_on_c, 0, 83, 127
2, 37024, Note_on_c, 0, 83, 0
2, 37080, Note_on_c, 0, 84, 127
2, 37144, Note_on_c, 0, 84, 0
2, 37200, Note_on_c, 0, 84, 127
2, 37264, Note_on_c, 0, 84, 0
2, 37280, Note_on_c, 0, 81, 127
2, 37344, Note_on_c, 0, 81, 0
2, 37360, Note_on_c, 0, 86, 127
2, 37424, Note_on_c, 0, 86, 0
2, 37440, Note_on_c, 0, 87, 127
2, 37504, Note_on_c, 0, 87, 0
2, 37560, Note_on_c, 0, 79, 127
2, 37624, Note_on_c, 0, 79, 0
2, 37680, Note_on_c, 0, 79, 127
2, 37744, Note_on_c, 0, 79, 0
2, 37760, Note_on_c, 0, 81, 127
2, 37824, Note_on_c, 0, 81, 0
2, 37840, Note_on_c, 0, 77, 127
2, 37904, Note_on_c, 0, 77, 0
2, 37920, Note_on_c, 0, 76, 127
2, 38023, Note_on_c, 0, 76, 0
2, 38080, Note_on_c, 0, 79, 127
2, 38183, Note_on_c, 0, 79, 0
2, 38240, Note_on_c, 0, 79, 127
2, 38343, Note_on_c, 0, 79, 0
2, 38400, Note_on_c, 0, 76, 127
2, 38503, Note_on_c, 0, 76, 0
2, 38560, Note_on_c, 0, 76, 127
2, 38663, Note_on_c, 0, 76, 0
2, 38720, Note_on_c, 0, 86, 127
2, 38823, Note_on_c, 0, 86, 0
2, 38880, Note_on_c, 0, 85, 127
2, 41280, Note_on_c, 0, 85, 0
2, 43680, Note_on_c, 0, 83, 127
2, 43980, Note_on_c, 0, 83, 0
2, 43980, Note_on_c, 0, 81, 127
2, 44040, Note_on_c, 0, 81, 0
2, 44040, Note_on_c, 0, 80, 127
2, 44100, Note_on_c, 0, 80, 0
2, 44100, Note_on_c, 0, 86, 127
2, 44160, Note_on_c, 0, 86, 0
2, 44160, Note_on_c, 0, 76, 127
2, 44240, Note_on_c, 0, 76, 0
2, 44240, Note_on_c, 0, 83, 127
2, 44320, Note_on_c, 0, 83, 0
2, 44320, Note_on_c, 0, 81, 127
2, 44400, Note_on_c, 0, 81, 0
2, 44400, Note_on_c, 0, 85, 127
2, 44448, Note_on_c, 0, 85, 0
2, 44448, Note_on_c, 0, 81, 127
2, 44496, Note_on_c, 0, 81, 0
2, 44496, Note_on_c, 0, 81, 127
2, 44544, Note_on_c, 0, 81, 0
2, 44544, Note_on_c, 0, 83, 127
2, 44592, Note_on_c, 0, 83, 0
2, 44592, Note_on_c, 0, 80, 127
2, 44640, Note_on_c, 0, 80, 0
2, 44736, Note_on_c, 0, 85, 127
2, 44832, Note_on_c, 0, 85, 0
2, 44832, Note_on_c, 0, 78, 127
2, 44928, Note_on_c, 0, 78, 0
2, 44928, Note_on_c, 0, 83, 127
2, 45024, Note_on_c, 0, 83, 0
2, 45024, Note_on_c, 0, 80, 127
2, 45120, Note_on_c, 0, 80, 0
2, 45120, Note_on_c, 0, 92, 127
2, 45216, Note_on_c, 0, 92, 0
2, 45216, Note_on_c, 0, 90, 127
2, 45312, Note_on_c, 0, 90, 0
2, 45312, Note_on_c, 0, 85, 127
2, 45408, Note_on_c, 0, 85, 0
2, 45408, Note_on_c, 0, 88, 127
2, 45504, Note_on_c, 0, 88, 0
2, 45504, Note_on_c, 0, 78, 127
2, 45600, Note_on_c, 0, 78, 0
2, 45600, Note_on_c, 0, 92, 127
2, 45696, Note_on_c, 0, 92, 0
2, 45696, Note_on_c, 0, 90, 127
2, 45792, Note_on_c, 0, 90, 0
2, 45792, Note_on_c, 0, 85, 127
2, 45888, Note_on_c, 0, 85, 0
2, 45888, Note_on_c, 0, 88, 127
2, 45984, Note_on_c, 0, 88, 0
2, 45984, Note_on_c, 0, 78, 127
2, 46034, Note_on_c, 0, 78, 0
2, 46080, Note_on_c, 0, 78, 127
2, 47956, Note_on_c, 0, 78, 0
2, 48480, Note_on_c, 0, 92, 127
2, 48540, Note_on_c, 0, 92, 0
2, 48540, Note_on_c, 0, 93, 127
2, 48600, Note_on_c, 0, 93, 0
2, 48600, Note_on_c, 0, 92, 127
2, 48660, Note_on_c, 0, 92, 0
2, 48720, Note_on_c, 0, 92, 127
2, 48780, Note_on_c, 0, 92, 0
2, 48780, Note_on_c, 0, 93, 127
2, 48840, Note_on_c, 0, 93, 0
2, 48840, Note_on_c, 0, 90, 127
2, 48900, Note_on_c, 0, 90, 0
2, 48960, Note_on_c, 0, 92, 127
2, 49020, Note_on_c, 0, 92, 0
2, 49080, Note_on_c, 0, 83, 127
2, 49140, Note_on_c, 0, 83, 0
2, 49140, Note_on_c, 0, 93, 127
2, 49200, Note_on_c, 0, 93, 0
2, 49200, Note_on_c, 0, 90, 127
2, 49260, Note_on_c, 0, 90, 0
2, 49260, Note_on_c, 0, 85, 127
2, 49320, Note_on_c, 0, 85, 0
2, 49320, Note_on_c, 0, 95, 127
2, 49380, Note_on_c, 0, 95, 0
2, 49380, Note_on_c, 0, 90, 127
2, 49440, Note_on_c, 0, 90, 0
2, 49440, Note_on_c, 0, 92, 127
2, 49500, Note_on_c, 0, 92, 0
2, 49500, Note_on_c, 0, 88, 127
2, 49560, Note_on_c, 0, 88, 0
2, 49560, Note_on_c, 0, 88, 127
2, 49620, Note_on_c, 0, 88, 0
2, 49620, Note_on_c, 0, 85, 127
2, 49680, Note_on_c, 0, 85, 0
2, 49680, Note_on_c, 0, 90, 127
2, 49740, Note_on_c, 0, 90, 0
2, 49740, Note_on_c, 0, 92, 127
2, 49800, Note_on_c, 0, 92, 0
2, 49800, Note_on_c, 0, 92, 127
2, 49860, Note_on_c, 0, 92, 0
2, 49860, Note_on_c, 0, 95, 127
2, 49920, Note_on_c, 0, 95, 0
2, 49920, Note_on_c, 0, 93, 127
2, 49980, Note_on_c, 0, 93, 0
2, 49980, Note_on_c, 0, 92, 127
2, 50040, Note_on_c, 0, 92, 0
2, 50040, Note_on_c, 0, 92, 127
2, 50100, Note_on_c, 0, 92, 0
2, 50100, Note_on_c, 0, 95, 127
2, 50160, Note_on_c, 0, 95, 0
2, 50160, Note_on_c, 0, 90, 127
2, 50220, Note_on_c, 0, 90, 0
2, 50220, Note_on_c, 0, 78, 127
2, 50280, Note_on_c, 0, 78, 0
2, 50280, Note_on_c, 0, 78, 127
2, 50340, Note_on_c, 0, 78, 0
2, 50340, Note_on_c, 0, 83, 127
2, 50400, Note_on_c, 0, 83, 0
2, 50400, Note_on_c, 0, 85, 127
2, 50460, Note_on_c, 0, 85, 0
2, 50460, Note_on_c, 0, 81, 127
2, 50520, Note_on_c, 0, 81, 0
2, 50520, Note_on_c, 0, 83, 127
2, 50580, Note_on_c, 0, 83, 0
2, 50580, Note_on_c, 0, 88, 127
2, 50640, Note_on_c, 0, 88, 0
2, 50640, Note_on_c, 0, 92, 127
2, 50700, Note_on_c, 0, 92, 0
2, 50700, Note_on_c, 0, 78, 127
2, 50760, Note_on_c, 0, 78, 0
2, 50760, Note_on_c, 0, 83, 127
2, 50820, Note_on_c, 0, 83, 0
2, 50820, Note_on_c, 0, 85, 127
2, 50880, Note_on_c, 0, 85, 0
2, 50880, Note_on_c, 0, 86, 127
2, 50940, Note_on_c, 0, 86, 0
2, 50940, Note_on_c, 0, 93, 127
2, 51000, Note_on_c, 0, 93, 0
2, 51000, Note_on_c, 0, 90, 127
2, 51060, Note_on_c, 0, 90, 0
2, 51060, Note_on_c, 0, 88, 127
2, 51120, Note_on_c, 0, 88, 0
2, 51120, Note_on_c, 0, 90, 127
2, 51180, Note_on_c, 0, 90, 0
2, 51180, Note_on_c, 0, 92, 127
2, 51240, Note_on_c, 0, 92, 0
2, 51240, Note_on_c, 0, 88, 127
2, 51300, Note_on_c, 0, 88, 0
2, 51300, Note_on_c, 0, 83, 127
2, 51360, Note_on_c, 0, 83, 0
2, 51600, Note_on_c, 0, 90, 127
2, 51660, Note_on_c, 0, 90, 0
2, 51660, Note_on_c, 0, 92, 127
2, 51720, Note_on_c, 0, 92, 0
2, 51720, Note_on_c, 0, 88, 127
2, 51780, Note_on_c, 0, 88, 0
2, 51780, Note_on_c, 0, 83, 127
2, 51840, Note_on_c, 0, 83, 0
2, 52320, Note_on_c, 0, 90, 127
2, 52380, Note_on_c, 0, 90, 0
2, 52380, Note_on_c, 0, 92, 127
2, 52440, Note_on_c, 0, 92, 0
2, 52440, Note_on_c, 0, 88, 127
2, 52500, Note_on_c, 0, 88, 0
2, 52500, Note_on_c, 0, 83, 127
2, 52560, Note_on_c, 0, 83, 0
2, 53040, Note_on_c, 0, 90, 127
2, 53100, Note_on_c, 0, 90, 0
2, 53100, Note_on_c, 0, 92, 127
2, 53160, Note_on_c, 0, 92, 0
2, 53160, Note_on_c, 0, 88, 127
2, 53220, Note_on_c, 0, 88, 0
2, 53220, Note_on_c, 0, 83, 127
2, 53280, Note_on_c, 0, 83, 0
2, 53280, Note_on_c, 0, 93, 127
2, 53600, Note_on_c, 0, 93, 0
2, 53732, Note_on_c, 0, 93, 127
2, 53760, Note_on_c, 0, 92, 127
2, 53762, Note_on_c, 0, 93, 0
2, 53920, Note_on_c, 0, 92, 0
2, 54000, Note_on_c, 0, 90, 127
2, 54160, Note_on_c, 0, 90, 0
2, 54240, Note_on_c, 0, 100, 127
2, 54329, Note_on_c, 0, 100, 0
2, 54360, Note_on_c, 0, 90, 127
2, 54449, Note_on_c, 0, 90, 0
2, 54480, Note_on_c, 0, 90, 127
2, 54545, Note_on_c, 0, 90, 0
2, 54560, Note_on_c, 0, 95, 127
2, 54621, Note_on_c, 0, 95, 0
2, 54640, Note_on_c, 0, 92, 127
2, 54701, Note_on_c, 0, 92, 0
2, 54720, Note_on_c, 0, 97, 127
2, 54800, Note_on_c, 0, 97, 0
2, 54840, Note_on_c, 0, 95, 127
2, 54920, Note_on_c, 0, 95, 0
2, 54960, Note_on_c, 0, 95, 127
2, 55040, Note_on_c, 0, 95, 0
2, 55080, Note_on_c, 0, 93, 127
2, 55160, Note_on_c, 0, 93, 0
2, 55200, Note_on_c, 0, 92, 127
2, 55532, Note_on_c, 0, 95, 127
2, 55556, Note_on_c, 0, 95, 0
2, 55560, Note_on_c, 0, 93, 127
2, 55575, Note_on_c, 0, 92, 0
2, 55624, Note_on_c, 0, 93, 0
2, 55680, Note_on_c, 0, 90, 127
2, 55824, Note_on_c, 0, 90, 0
2, 55840, Note_on_c, 0, 88, 127
2, 55984, Note_on_c, 0, 88, 0
2, 56000, Note_on_c, 0, 88, 127
2, 56144, Note_on_c, 0, 88, 0
2, 56160, Note_on_c, 0, 90, 127
2, 56640, Note_on_c, 0, 90, 0
2, 56640, Note_on_c, 0, 78, 127
2, 56700, Note_on_c, 0, 78, 0
2, 56700, Note_on_c, 0, 83, 127
2, 56760, Note_on_c, 0, 83, 0
2, 56760, Note_on_c, 0, 83, 127
2, 56820, Note_on_c, 0, 83, 0
2, 56820, Note_on_c, 0, 81, 127
2, 56880, Note_on_c, 0, 81, 0
2, 56880, Note_on_c, 0, 83, 127
2, 57180, Note_on_c, 0, 83, 0
2, 57215, Note_on_c, 0, 85, 127
2, 57240, Note_on_c, 0, 83, 127
2, 57253, Note_on_c, 0, 85, 0
2, 57300, Note_on_c, 0, 83, 0
2, 57360, Note_on_c, 0, 78, 127
2, 57720, Note_on_c, 0, 78, 0
2, 57720, Note_on_c, 0, 80, 127
2, 57960, Note_on_c, 0, 80, 0
2, 57960, Note_on_c, 0, 71, 127
2, 58080, Note_on_c, 0, 71, 0
2, 58080, Note_on_c, 0, 72, 127
2, 58240, Note_on_c, 0, 82, 127
2, 58250, Note_on_c, 0, 72, 0
2, 58400, Note_on_c, 0, 77, 127
2, 58410, Note_on_c, 0, 82, 0
2, 58560, Note_on_c, 0, 87, 127
2, 58570, Note_on_c, 0, 77, 0
2, 59030, Note_on_c, 0, 87, 0
2, 59040, Note_on_c, 0, 85, 127
2, 59120, Note_on_c, 0, 85, 0
2, 59200, Note_on_c, 0, 82, 127
2, 59280, Note_on_c, 0, 82, 0
2, 59280, Note_on_c, 0, 84, 127
2, 60000, Note_on_c, 0, 84, 0
2, 60221, Note_on_c, 0, 87, 127
2, 60240, Note_on_c, 0, 80, 127
2, 60247, Note_on_c, 0, 87, 0
2, 60432, Note_on_c, 0, 80, 0
2, 60480, Note_on_c, 0, 85, 127
2, 60640, Note_on_c, 0, 89, 127
2, 60672, Note_on_c, 0, 85, 0
2, 60800, Note_on_c, 0, 82, 127
2, 60832, Note_on_c, 0, 89, 0
2, 60960, Note_on_c, 0, 87, 127
2, 60992, Note_on_c, 0, 82, 0
2, 61045, Note_on_c, 0, 87, 0
2, 61080, Note_on_c, 0, 85, 127
2, 61140, Note_on_c, 0, 85, 0
2, 61140, Note_on_c, 0, 89, 127
2, 61200, Note_on_c, 0, 89, 0
2, 61200, Note_on_c, 0, 84, 127
2, 61910, Note_on_c, 0, 84, 0
2, 79200, Note_on_c, 0, 82, 127
2, 79284, Note_on_c, 0, 82, 0
2, 79320, Note_on_c, 0, 84, 127
2, 79404, Note_on_c, 0, 84, 0
2, 79440, Note_on_c, 0, 84, 127
2, 79504, Note_on_c, 0, 84, 0
2, 79520, Note_on_c, 0, 81, 127
2, 79584, Note_on_c, 0, 81, 0
2, 79600, Note_on_c, 0, 86, 127
2, 79664, Note_on_c, 0, 86, 0
2, 79680, Note_on_c, 0, 87, 127
2, 79764, Note_on_c, 0, 87, 0
2, 79800, Note_on_c, 0, 79, 127
2, 79884, Note_on_c, 0, 79, 0
2, 79920, Note_on_c, 0, 79, 127
2, 79984, Note_on_c, 0, 79, 0
2, 80000, Note_on_c, 0, 81, 127
2, 80064, Note_on_c, 0, 81, 0
2, 80080, Note_on_c, 0, 77, 127
2, 80144, Note_on_c, 0, 77, 0
2, 80160, Note_on_c, 0, 76, 127
2, 80283, Note_on_c, 0, 76, 0
2, 80320, Note_on_c, 0, 79, 127
2, 80443, Note_on_c, 0, 79, 0
2, 80480, Note_on_c, 0, 79, 127
2, 80603, Note_on_c, 0, 79, 0
2, 80640, Note_on_c, 0, 77, 127
2, 80763, Note_on_c, 0, 77, 0
2, 80800, Note_on_c, 0, 77, 127
2, 80923, Note_on_c, 0, 77, 0
2, 80960, Note_on_c, 0, 82, 127
2, 81083, Note_on_c, 0, 82, 0
2, 81120, Note_on_c, 0, 83, 127
2, 83520, Note_on_c, 0, 83, 0
2, 85920, Note_on_c, 0, 81, 127
2, 86220, Note_on_c, 0, 81, 0
2, 86220, Note_on_c, 0, 79, 127
2, 86270, Note_on_c, 0, 79, 0
2, 86280, Note_on_c, 0, 78, 127
2, 86330, Note_on_c, 0, 78, 0
2, 86340, Note_on_c, 0, 84, 127
2, 86390, Note_on_c, 0, 84, 0
2, 86400, Note_on_c, 0, 74, 127
2, 86470, Note_on_c, 0, 74, 0
2, 86480, Note_on_c, 0, 81, 127
2, 86550, Note_on_c, 0, 81, 0
2, 86560, Note_on_c, 0, 79, 127
2, 86630, Note_on_c, 0, 79, 0
2, 86640, Note_on_c, 0, 83, 127
2, 86678, Note_on_c, 0, 83, 0
2, 86688, Note_on_c, 0, 79, 127
2, 86726, Note_on_c, 0, 79, 0
2, 86736, Note_on_c, 0, 79, 127
2, 86774, Note_on_c, 0, 79, 0
2, 86784, Note_on_c, 0, 81, 127
2, 86822, Note_on_c, 0, 81, 0
2, 86832, Note_on_c, 0, 78, 127
2, 86870, Note_on_c, 0, 78, 0
2, 86976, Note_on_c, 0, 83, 127
2, 87052, Note_on_c, 0, 83, 0
2, 87072, Note_on_c, 0, 76, 127
2, 87148, Note_on_c, 0, 76, 0
2, 87168, Note_on_c, 0, 81, 127
2, 87244, Note_on_c, 0, 81, 0
2, 87264, Note_on_c, 0, 78, 127
2, 87340, Note_on_c, 0, 78, 0
2, 87360, Note_on_c, 0, 90, 127
2, 87446, Note_on_c, 0, 90, 0
2, 87456, Note_on_c, 0, 88, 127
2, 87542, Note_on_c, 0, 88, 0
2, 87552, Note_on_c, 0, 83, 127
2, 87638, Note_on_c, 0, 83, 0
2, 87648, Note_on_c, 0, 86, 127
2, 87734, Note_on_c, 0, 86, 0
2, 87744, Note_on_c, 0, 76, 127
2, 87830, Note_on_c, 0, 76, 0
2, 87840, Note_on_c, 0, 90, 127
2, 87926, Note_on_c, 0, 90, 0
2, 87936, Note_on_c, 0, 88, 127
2, 88022, Note_on_c, 0, 88, 0
2, 88032, Note_on_c, 0, 83, 127
2, 88118, Note_on_c, 0, 83, 0
2, 88128, Note_on_c, 0, 86, 127
2, 88214, Note_on_c, 0, 86, 0
2, 88224, Note_on_c, 0, 76, 127
2, 88304, Note_on_c, 0, 76, 0
2, 88320, Note_on_c, 0, 76, 127
2, 89780, Note_on_c, 0, 76, 0
2, 92160, Note_on_c, 0, 93, 127
2, 92203, Note_on_c, 0, 93, 0
2, 92204, Note_on_c, 0, 98, 127
2, 92247, Note_on_c, 0, 98, 0
2, 92248, Note_on_c, 0, 93, 127
2, 92291, Note_on_c, 0, 93, 0
2, 92292, Note_on_c, 0, 95, 127
2, 92335, Note_on_c, 0, 95, 0
2, 92336, Note_on_c, 0, 96, 127
2, 92379, Note_on_c, 0, 96, 0
2, 92380, Note_on_c, 0, 100, 127
2, 92423, Note_on_c, 0, 100, 0
2, 92424, Note_on_c, 0, 95, 127
2, 92467, Note_on_c, 0, 95, 0
2, 92468, Note_on_c, 0, 95, 127
2, 92511, Note_on_c, 0, 95, 0
2, 92512, Note_on_c, 0, 96, 127
2, 92555, Note_on_c, 0, 96, 0
2, 92556, Note_on_c, 0, 86, 127
2, 92599, Note_on_c, 0, 86, 0
2, 92600, Note_on_c, 0, 93, 127
2, 92640, Note_on_c, 0, 95, 127
2, 92643, Note_on_c, 0, 93, 0
2, 92683, Note_on_c, 0, 95, 0
2, 92684, Note_on_c, 0, 88, 127
2, 92727, Note_on_c, 0, 88, 0
2, 92728, Note_on_c, 0, 88, 127
2, 92771, Note_on_c, 0, 88, 0
2, 92772, Note_on_c, 0, 91, 127
2, 92815, Note_on_c, 0, 91, 0
2, 92816, Note_on_c, 0, 91, 127
2, 92859, Note_on_c, 0, 91, 0
2, 92860, Note_on_c, 0, 98, 127
2, 92903, Note_on_c, 0, 98, 0
2, 92904, Note_on_c, 0, 90, 127
2, 92947, Note_on_c, 0, 90, 0
2, 92948, Note_on_c, 0, 90, 127
2, 92991, Note_on_c, 0, 90, 0
2, 92992, Note_on_c, 0, 93, 127
2, 93035, Note_on_c, 0, 93, 0
2, 93036, Note_on_c, 0, 88, 127
2, 93079, Note_on_c, 0, 88, 0
2, 93080, Note_on_c, 0, 83, 127
2, 93120, Note_on_c, 0, 93, 127
2, 93123, Note_on_c, 0, 83, 0
2, 93190, Note_on_c, 0, 93, 0
2, 93280, Note_on_c, 0, 84, 127
2, 93350, Note_on_c, 0, 84, 0
2, 93440, Note_on_c, 0, 84, 127
2, 93510, Note_on_c, 0, 84, 0
2, 93600, Note_on_c, 0, 91, 127
2, 94560, Note_on_c, 0, 91, 0
2, 94800, Note_on_c, 0, 87, 127
2, 94996, Note_on_c, 0, 90, 76
2, 95000, Note_on_c, 0, 87, 0
2, 95019, Note_on_c, 0, 92, 99
2, 95028, Note_on_c, 0, 90, 0
2, 95040, Note_on_c, 0, 94, 127
2, 95049, Note_on_c, 0, 92, 0
2, 95164, Note_on_c, 0, 94, 0
2, 95200, Note_on_c, 0, 92, 127
2, 95324, Note_on_c, 0, 92, 0
2, 95360, Note_on_c, 0, 89, 127
2, 95484, Note_on_c, 0, 89, 0
2, 95520, Note_on_c, 0, 89, 127
2, 95584, Note_on_c, 0, 89, 0
2, 95610, Note_on_c, 0, 91, 127
2, 95674, Note_on_c, 0, 91, 0
2, 95700, Note_on_c, 0, 87, 127
2, 95764, Note_on_c, 0, 87, 0
2, 95790, Note_on_c, 0, 82, 127
2, 95854, Note_on_c, 0, 82, 0
2, 95880, Note_on_c, 0, 92, 127
2, 95944, Note_on_c, 0, 92, 0
2, 95966, Note_on_c, 0, 96, 127
2, 96009, Note_on_c, 0, 96, 0
2, 96080, Note_on_c, 0, 94, 127
2, 96123, Note_on_c, 0, 94, 0
2, 96137, Note_on_c, 0, 94, 127
2, 96180, Note_on_c, 0, 94, 0
2, 96223, Note_on_c, 0, 92, 127
2, 96266, Note_on_c, 0, 92, 0
2, 96309, Note_on_c, 0, 92, 127
2, 96352, Note_on_c, 0, 92, 0
2, 96394, Note_on_c, 0, 89, 127
2, 96437, Note_on_c, 0, 89, 0
2, 96480, Note_on_c, 0, 94, 127
2, 96524, Note_on_c, 0, 94, 0
2, 96567, Note_on_c, 0, 90, 127
2, 96611, Note_on_c, 0, 90, 0
2, 96655, Note_on_c, 0, 90, 127
2, 96699, Note_on_c, 0, 90, 0
2, 96742, Note_on_c, 0, 89, 127
2, 96786, Note_on_c, 0, 89, 0
2, 96830, Note_on_c, 0, 92, 127
2, 96874, Note_on_c, 0, 92, 0
2, 96917, Note_on_c, 0, 85, 127
2, 96961, Note_on_c, 0, 85, 0
2, 97004, Note_on_c, 0, 85, 127
2, 97048, Note_on_c, 0, 85, 0
2, 97092, Note_on_c, 0, 87, 127
2, 97136, Note_on_c, 0, 87, 0
2, 97179, Note_on_c, 0, 83, 127
2, 97223, Note_on_c, 0, 83, 0
2, 97266, Note_on_c, 0, 92, 127
2, 97310, Note_on_c, 0, 92, 0
2, 97353, Note_on_c, 0, 89, 127
2, 97397, Note_on_c, 0, 89, 0
2, 97440, Note_on_c, 0, 89, 127
2, 97484, Note_on_c, 0, 89, 0
2, 97527, Note_on_c, 0, 87, 127
2, 97571, Note_on_c, 0, 87, 0
2, 97615, Note_on_c, 0, 90, 127
2, 97659, Note_on_c, 0, 90, 0
2, 97702, Note_on_c, 0, 85, 127
2, 97746, Note_on_c, 0, 85, 0
2, 97789, Note_on_c, 0, 89, 127
2, 97833, Note_on_c, 0, 89, 0
2, 97877, Note_on_c, 0, 87, 127
2, 97921, Note_on_c, 0, 87, 0
2, 97964, Note_on_c, 0, 92, 127
2, 98008, Note_on_c, 0, 92, 0
2, 98051, Note_on_c, 0, 85, 127
2, 98095, Note_on_c, 0, 85, 0
2, 98139, Note_on_c, 0, 90, 127
2, 98183, Note_on_c, 0, 90, 0
2, 98226, Note_on_c, 0, 77, 127
2, 98270, Note_on_c, 0, 77, 0
2, 98313, Note_on_c, 0, 75, 127
2, 98357, Note_on_c, 0, 75, 0
2, 98400, Note_on_c, 0, 96, 127
2, 100290, Note_on_c, 0, 96, 0
2, 100320, Note_on_c, 0, 94, 127
2, 100364, Note_on_c, 0, 94, 0
2, 100407, Note_on_c, 0, 90, 127
2, 100451, Note_on_c, 0, 90, 0
2, 100495, Note_on_c, 0, 90, 127
2, 100539, Note_on_c, 0, 90, 0
2, 100582, Note_on_c, 0, 89, 127
2, 100626, Note_on_c, 0, 89, 0
2, 100670, Note_on_c, 0, 92, 127
2, 100714, Note_on_c, 0, 92, 0
2, 100757, Note_on_c, 0, 85, 127
2, 100801, Note_on_c, 0, 85, 0
2, 100844, Note_on_c, 0, 85, 127
2, 100888, Note_on_c, 0, 85, 0
2, 100932, Note_on_c, 0, 87, 127
2, 100976, Note_on_c, 0, 87, 0
2, 101019, Note_on_c, 0, 83, 127
2, 101063, Note_on_c, 0, 83, 0
2, 101106, Note_on_c, 0, 92, 127
2, 101150, Note_on_c, 0, 92, 0
2, 101193, Note_on_c, 0, 89, 127
2, 101237, Note_on_c, 0, 89, 0
2, 101280, Note_on_c, 0, 89, 127
2, 101324, Note_on_c, 0, 89, 0
2, 101367, Note_on_c, 0, 87, 127
2, 101411, Note_on_c, 0, 87, 0
2, 101455, Note_on_c, 0, 90, 127
2, 101499, Note_on_c, 0, 90, 0
2, 101542, Note_on_c, 0, 85, 127
2, 101586, Note_on_c, 0, 85, 0
2, 101629, Note_on_c, 0, 89, 127
2, 101673, Note_on_c, 0, 89, 0
2, 101717, Note_on_c, 0, 87, 127
2, 101761, Note_on_c, 0, 87, 0
2, 101804, Note_on_c, 0, 92, 127
2, 101848, Note_on_c, 0, 92, 0
2, 101891, Note_on_c, 0, 85, 127
2, 101935, Note_on_c, 0, 85, 0
2, 101979, Note_on_c, 0, 90, 127
2, 102023, Note_on_c, 0, 90, 0
2, 102066, Note_on_c, 0, 77, 127
2, 102110, Note_on_c, 0, 77, 0
2, 102153, Note_on_c, 0, 75, 127
2, 102197, Note_on_c, 0, 75, 0
2, 102240, Note_on_c, 0, 96, 127
2, 104160, Note_on_c, 0, 96, 0
2, 104160, Note_on_c, 0, 94, 127
2, 104204, Note_on_c, 0, 94, 0
2, 104247, Note_on_c, 0, 90, 127
2, 104291, Note_on_c, 0, 90, 0
2, 104335, Note_on_c, 0, 90, 127
2, 104379, Note_on_c, 0, 90, 0
2, 104422, Note_on_c, 0, 89, 127
2, 104466, Note_on_c, 0, 89, 0
2, 104510, Note_on_c, 0, 92, 127
2, 104554, Note_on_c, 0, 92, 0
2, 104597, Note_on_c, 0, 85, 127
2, 104641, Note_on_c, 0, 85, 0
2, 104684, Note_on_c, 0, 85, 127
2, 104728, Note_on_c, 0, 85, 0
2, 104772, Note_on_c, 0, 87, 127
2, 104816, Note_on_c, 0, 87, 0
2, 104859, Note_on_c, 0, 83, 127
2, 104903, Note_on_c, 0, 83, 0
2, 104946, Note_on_c, 0, 92, 127
2, 104990, Note_on_c, 0, 92, 0
2, 105033, Note_on_c, 0, 89, 127
2, 105077, Note_on_c, 0, 89, 0
2, 105120, Note_on_c, 0, 89, 127
2, 105164, Note_on_c, 0, 89, 0
2, 105207, Note_on_c, 0, 87, 127
2, 105251, Note_on_c, 0, 87, 0
2, 105295, Note_on_c, 0, 90, 127
2, 105339, Note_on_c, 0, 90, 0
2, 105382, Note_on_c, 0, 85, 127
2, 105426, Note_on_c, 0, 85, 0
2, 105469, Note_on_c, 0, 89, 127
2, 105513, Note_on_c, 0, 89, 0
2, 105557, Note_on_c, 0, 87, 127
2, 105601, Note_on_c, 0, 87, 0
2, 105644, Note_on_c, 0, 92, 127
2, 105688, Note_on_c, 0, 92, 0
2, 105731, Note_on_c, 0, 85, 127
2, 105775, Note_on_c, 0, 85, 0
2, 105819, Note_on_c, 0, 90, 127
2, 105863, Note_on_c, 0, 90, 0
2, 105906, Note_on_c, 0, 77, 127
2, 105950, Note_on_c, 0, 77, 0
2, 105993, Note_on_c, 0, 75, 127
2, 106037, Note_on_c, 0, 75, 0
2, 106037, End_track
3, 0, Start_track
3, 0, MIDI_port, 0
3, 0, Title_t, "RAY WHITE"
3, 0, Program_c, 1, 27
3, 0, Control_c, 1, 7, 117
3, 0, Control_c, 1, 10, 107
3, 240, Note_on_c, 1, 55, 127
3, 245, Note_on_c, 1, 60, 127
3, 250, Note_on_c, 1, 64, 127
3, 351, Note_on_c, 1, 64, 0
3, 378, Note_on_c, 1, 60, 0
3, 382, Note_on_c, 1, 55, 0
3, 480, Note_on_c, 1, 53, 127
3, 485, Note_on_c, 1, 58, 127
3, 490, Note_on_c, 1, 62, 127
3, 516, Note_on_c, 1, 58, 0
3, 520, Note_on_c, 1, 59, 115
3, 520, Note_on_c, 1, 55, 115
3, 521, Note_on_c, 1, 53, 0
3, 628, Note_on_c, 1, 62, 0
3, 638, Note_on_c, 1, 59, 0
3, 638, Note_on_c, 1, 55, 0
3, 842, Note_on_c, 1, 55, 111
3, 864, Note_on_c, 1, 55, 0
3, 1445, Note_on_c, 1, 55, 119
3, 1473, Note_on_c, 1, 55, 0
3, 1799, Note_on_c, 1, 55, 115
3, 1832, Note_on_c, 1, 55, 0
3, 2400, Note_on_c, 1, 55, 115
3, 2447, Note_on_c, 1, 55, 0
3, 2762, Note_on_c, 1, 55, 119
3, 2803, Note_on_c, 1, 55, 0
3, 3357, Note_on_c, 1, 55, 119
3, 3396, Note_on_c, 1, 55, 0
3, 3719, Note_on_c, 1, 55, 111
3, 3763, Note_on_c, 1, 55, 0
3, 4327, Note_on_c, 1, 55, 115
3, 4373, Note_on_c, 1, 55, 0
3, 4679, Note_on_c, 1, 55, 115
3, 4719, Note_on_c, 1, 55, 0
3, 5288, Note_on_c, 1, 55, 107
3, 5329, Note_on_c, 1, 55, 0
3, 5634, Note_on_c, 1, 55, 111
3, 5671, Note_on_c, 1, 55, 0
3, 6242, Note_on_c, 1, 55, 115
3, 6260, Note_on_c, 1, 55, 0
3, 6599, Note_on_c, 1, 55, 107
3, 6644, Note_on_c, 1, 55, 0
3, 7208, Note_on_c, 1, 55, 119
3, 7231, Note_on_c, 1, 55, 0
3, 7557, Note_on_c, 1, 55, 115
3, 7575, Note_on_c, 1, 55, 0
3, 63612, Note_on_c, 1, 69, 123
3, 63612, Note_on_c, 1, 72, 127
3, 63719, Note_on_c, 1, 69, 0
3, 63726, Note_on_c, 1, 72, 0
3, 66460, Note_on_c, 1, 69, 123
3, 66460, Note_on_c, 1, 72, 127
3, 66558, Note_on_c, 1, 72, 0
3, 66558, Note_on_c, 1, 69, 0
3, 78960, Note_on_c, 1, 69, 123
3, 78960, Note_on_c, 1, 72, 123
3, 79049, Note_on_c, 1, 69, 0
3, 79053, Note_on_c, 1, 72, 0
3, 125040, Program_c, 1, 70
3, 125040, Control_c, 1, 10, 24
3, 125040, Control_c, 1, 7, 70
3, 125280, Note_on_c, 1, 47, 127
3, 125696, Note_on_c, 1, 47, 0
3, 125760, Note_on_c, 1, 54, 127
3, 125788, Note_on_c, 1, 54, 0
3, 125820, Note_on_c, 1, 54, 127
3, 125856, Note_on_c, 1, 54, 0
3, 125880, Note_on_c, 1, 52, 127
3, 125927, Note_on_c, 1, 52, 0
3, 125940, Note_on_c, 1, 50, 127
3, 126000, Note_on_c, 1, 57, 127
3, 126001, Note_on_c, 1, 50, 0
3, 126197, Note_on_c, 1, 57, 0
3, 126312, Note_on_c, 1, 57, 127
3, 126368, Note_on_c, 1, 55, 127
3, 126376, Note_on_c, 1, 57, 0
3, 126480, Note_on_c, 1, 55, 0
3, 126480, Note_on_c, 1, 52, 127
3, 126624, Note_on_c, 1, 52, 0
3, 126840, Note_on_c, 1, 57, 127
3, 126989, Note_on_c, 1, 57, 0
3, 127080, Note_on_c, 1, 54, 127
3, 127167, Note_on_c, 1, 54, 0
3, 127167, End_track
4, 0, Start_track
4, 0, MIDI_port, 0
4, 0, Title_t, "EDDIE JOBSON"
4, 0, Program_c, 2, 63
4, 0, Control_c, 2, 7, 127
4, 0, Control_c, 2, 10, 64
4, 8160, Note_on_c, 2, 59, 127
4, 9120, Note_on_c, 2, 59, 0
4, 9120, Note_on_c, 2, 66, 127
4, 9170, Note_on_c, 2, 66, 0
4, 9240, Note_on_c, 2, 66, 127
4, 9290, Note_on_c, 2, 66, 0
4, 9360, Note_on_c, 2, 61, 127
4, 9414, Note_on_c, 2, 61, 0
4, 9540, Note_on_c, 2, 59, 127
4, 9590, Note_on_c, 2, 59, 0
4, 9600, Note_on_c, 2, 69, 127
4, 9900, Note_on_c, 2, 72, 127
4, 9906, Note_on_c, 2, 69, 0
4, 9960, Note_on_c, 2, 67, 127
4, 9962, Note_on_c, 2, 72, 0
4, 10080, Note_on_c, 2, 67, 0
4, 10080, Note_on_c, 2, 64, 127
4, 10139, Note_on_c, 2, 64, 0
4, 10140, Note_on_c, 2, 69, 127
4, 10199, Note_on_c, 2, 69, 0
4, 10200, Note_on_c, 2, 69, 127
4, 10900, Note_on_c, 2, 69, 0
4, 11160, Note_on_c, 2, 64, 127
4, 11220, Note_on_c, 2, 69, 127
4, 11224, Note_on_c, 2, 64, 0
4, 11277, Note_on_c, 2, 69, 0
4, 11280, Note_on_c, 2, 69, 127
4, 11805, Note_on_c, 2, 69, 0
4, 11880, Note_on_c, 2, 66, 127
4, 12000, Note_on_c, 2, 66, 0
4, 12000, Note_on_c, 2, 67, 127
4, 12080, Note_on_c, 2, 67, 0
4, 12080, Note_on_c, 2, 72, 127
4, 12160, Note_on_c, 2, 72, 0
4, 12160, Note_on_c, 2, 65, 127
4, 12240, Note_on_c, 2, 65, 0
4, 12240, Note_on_c, 2, 69, 127
4, 12820, Note_on_c, 2, 69, 0
4, 12960, Note_on_c, 2, 64, 127
4, 13040, Note_on_c, 2, 64, 0
4, 13120, Note_on_c, 2, 62, 127
4, 13200, Note_on_c, 2, 62, 0
4, 13200, Note_on_c, 2, 72, 127
4, 14340, Note_on_c, 2, 72, 0
4, 14400, Note_on_c, 2, 72, 127
4, 14420, Note_on_c, 2, 72, 0
4, 14420, Note_on_c, 2, 69, 127
4, 14750, Note_on_c, 2, 69, 0
4, 14760, Note_on_c, 2, 67, 127
4, 15110, Note_on_c, 2, 67, 0
4, 15120, Note_on_c, 2, 65, 127
4, 15470, Note_on_c, 2, 65, 0
4, 15480, Note_on_c, 2, 62, 127
4, 15830, Note_on_c, 2, 62, 0
4, 15840, Note_on_c, 2, 61, 127
4, 16200, Note_on_c, 2, 61, 0
4, 16200, Note_on_c, 2, 62, 127
4, 16260, Note_on_c, 2, 62, 0
4, 16260, Note_on_c, 2, 67, 127
4, 16320, Note_on_c, 2, 67, 0
4, 16320, Note_on_c, 2, 64, 127
4, 17760, Note_on_c, 2, 64, 0
4, 19680, Note_on_c, 2, 60, 127
4, 19740, Note_on_c, 2, 60, 0
4, 19800, Note_on_c, 2, 64, 127
4, 19860, Note_on_c, 2, 64, 0
4, 19920, Note_on_c, 2, 62, 127
4, 19980, Note_on_c, 2, 62, 0
4, 20040, Note_on_c, 2, 65, 127
4, 20100, Note_on_c, 2, 65, 0
4, 20160, Note_on_c, 2, 64, 127
4, 20220, Note_on_c, 2, 64, 0
4, 20280, Note_on_c, 2, 55, 127
4, 20340, Note_on_c, 2, 55, 0
4, 20400, Note_on_c, 2, 65, 127
4, 20460, Note_on_c, 2, 65, 0
4, 20520, Note_on_c, 2, 62, 127
4, 20580, Note_on_c, 2, 62, 0
4, 20640, Note_on_c, 2, 69, 127
4, 20720, Note_on_c, 2, 69, 0
4, 20800, Note_on_c, 2, 72, 127
4, 20880, Note_on_c, 2, 72, 0
4, 20960, Note_on_c, 2, 64, 127
4, 21040, Note_on_c, 2, 64, 0
4, 21120, Note_on_c, 2, 64, 127
4, 21168, Note_on_c, 2, 64, 0
4, 21200, Note_on_c, 2, 65, 127
4, 21248, Note_on_c, 2, 65, 0
4, 21280, Note_on_c, 2, 64, 127
4, 21328, Note_on_c, 2, 64, 0
4, 21360, Note_on_c, 2, 62, 127
4, 21408, Note_on_c, 2, 62, 0
4, 21440, Note_on_c, 2, 57, 127
4, 21488, Note_on_c, 2, 57, 0
4, 21520, Note_on_c, 2, 58, 127
4, 21578, Note_on_c, 2, 58, 0
4, 21600, Note_on_c, 2, 60, 127
4, 21658, Note_on_c, 2, 60, 0
4, 21673, Note_on_c, 2, 60, 127
4, 21731, Note_on_c, 2, 60, 0
4, 21747, Note_on_c, 2, 62, 127
4, 21805, Note_on_c, 2, 62, 0
4, 21820, Note_on_c, 2, 62, 127
4, 21878, Note_on_c, 2, 62, 0
4, 21894, Note_on_c, 2, 64, 127
4, 21952, Note_on_c, 2, 64, 0
4, 21967, Note_on_c, 2, 65, 127
4, 22025, Note_on_c, 2, 65, 0
4, 22045, Note_on_c, 2, 69, 127
4, 22103, Note_on_c, 2, 69, 0
4, 22118, Note_on_c, 2, 55, 127
4, 22176, Note_on_c, 2, 55, 0
4, 22192, Note_on_c, 2, 55, 127
4, 22250, Note_on_c, 2, 55, 0
4, 22265, Note_on_c, 2, 62, 127
4, 22323, Note_on_c, 2, 62, 0
4, 22339, Note_on_c, 2, 53, 127
4, 22397, Note_on_c, 2, 53, 0
4, 22412, Note_on_c, 2, 52, 127
4, 22470, Note_on_c, 2, 52, 0
4, 22486, Note_on_c, 2, 52, 127
4, 22544, Note_on_c, 2, 52, 0
4, 22560, Note_on_c, 2, 67, 127
4, 24460, Note_on_c, 2, 67, 0
4, 24720, Note_on_c, 2, 71, 127
4, 24834, Note_on_c, 2, 71, 0
4, 24840, Note_on_c, 2, 73, 127
4, 24934, Note_on_c, 2, 73, 0
4, 24960, Note_on_c, 2, 73, 127
4, 25094, Note_on_c, 2, 73, 0
4, 25120, Note_on_c, 2, 71, 127
4, 25254, Note_on_c, 2, 71, 0
4, 25280, Note_on_c, 2, 74, 127
4, 25414, Note_on_c, 2, 74, 0
4, 25440, Note_on_c, 2, 77, 127
4, 25574, Note_on_c, 2, 77, 0
4, 25600, Note_on_c, 2, 69, 127
4, 25734, Note_on_c, 2, 69, 0
4, 25760, Note_on_c, 2, 69, 127
4, 25894, Note_on_c, 2, 69, 0
4, 25920, Note_on_c, 2, 70, 127
4, 26260, Note_on_c, 2, 70, 0
4, 26280, Note_on_c, 2, 73, 127
4, 26394, Note_on_c, 2, 73, 0
4, 26400, Note_on_c, 2, 76, 127
4, 26533, Note_on_c, 2, 76, 0
4, 26560, Note_on_c, 2, 81, 127
4, 26693, Note_on_c, 2, 81, 0
4, 26720, Note_on_c, 2, 82, 127
4, 26853, Note_on_c, 2, 82, 0
4, 26880, Note_on_c, 2, 77, 127
4, 27013, Note_on_c, 2, 77, 0
4, 27040, Note_on_c, 2, 72, 127
4, 27173, Note_on_c, 2, 72, 0
4, 27200, Note_on_c, 2, 67, 127
4, 27333, Note_on_c, 2, 67, 0
4, 27360, Note_on_c, 2, 69, 127
4, 28550, Note_on_c, 2, 69, 0
4, 28560, Note_on_c, 2, 81, 127
4, 29750, Note_on_c, 2, 81, 0
4, 29760, Note_on_c, 2, 81, 127
4, 30950, Note_on_c, 2, 81, 0
4, 30960, Note_on_c, 2, 69, 127
4, 31876, Note_on_c, 2, 71, 64
4, 31880, Note_on_c, 2, 69, 0
4, 31917, Note_on_c, 2, 72, 73
4, 31929, Note_on_c, 2, 71, 0
4, 31949, Note_on_c, 2, 74, 80
4, 31960, Note_on_c, 2, 72, 0
4, 31975, Note_on_c, 2, 76, 85
4, 31992, Note_on_c, 2, 74, 0
4, 32018, Note_on_c, 2, 77, 95
4, 32029, Note_on_c, 2, 76, 0
4, 32059, Note_on_c, 2, 79, 104
4, 32071, Note_on_c, 2, 77, 0
4, 32110, Note_on_c, 2, 81, 115
4, 32133, Note_on_c, 2, 79, 0
4, 32160, Note_on_c, 2, 83, 127
4, 32198, Note_on_c, 2, 81, 0
4, 33350, Note_on_c, 2, 83, 0
4, 33360, Note_on_c, 2, 73, 127
4, 34550, Note_on_c, 2, 73, 0
4, 34560, Note_on_c, 2, 76, 127
4, 35750, Note_on_c, 2, 76, 0
4, 35760, Note_on_c, 2, 73, 127
4, 36950, Note_on_c, 2, 73, 0
4, 36960, Note_on_c, 2, 71, 127
4, 37024, Note_on_c, 2, 71, 0
4, 37080, Note_on_c, 2, 72, 127
4, 37144, Note_on_c, 2, 72, 0
4, 37200, Note_on_c, 2, 72, 127
4, 37264, Note_on_c, 2, 72, 0
4, 37280, Note_on_c, 2, 69, 127
4, 37344, Note_on_c, 2, 69, 0
4, 37360, Note_on_c, 2, 74, 127
4, 37424, Note_on_c, 2, 74, 0
4, 37440, Note_on_c, 2, 75, 127
4, 37504, Note_on_c, 2, 75, 0
4, 37560, Note_on_c, 2, 67, 127
4, 37624, Note_on_c, 2, 67, 0
4, 37680, Note_on_c, 2, 67, 127
4, 37744, Note_on_c, 2, 67, 0
4, 37760, Note_on_c, 2, 69, 127
4, 37824, Note_on_c, 2, 69, 0
4, 37840, Note_on_c, 2, 65, 127
4, 37904, Note_on_c, 2, 65, 0
4, 37920, Note_on_c, 2, 64, 127
4, 38023, Note_on_c, 2, 64, 0
4, 38080, Note_on_c, 2, 67, 127
4, 38183, Note_on_c, 2, 67, 0
4, 38240, Note_on_c, 2, 67, 127
4, 38343, Note_on_c, 2, 67, 0
4, 38400, Note_on_c, 2, 64, 127
4, 38503, Note_on_c, 2, 64, 0
4, 38560, Note_on_c, 2, 64, 127
4, 38663, Note_on_c, 2, 64, 0
4, 38720, Note_on_c, 2, 74, 127
4, 38823, Note_on_c, 2, 74, 0
4, 38880, Note_on_c, 2, 73, 127
4, 41280, Note_on_c, 2, 73, 0
4, 43680, Note_on_c, 2, 71, 127
4, 43980, Note_on_c, 2, 71, 0
4, 43980, Note_on_c, 2, 69, 127
4, 44040, Note_on_c, 2, 69, 0
4, 44040, Note_on_c, 2, 68, 127
4, 44100, Note_on_c, 2, 68, 0
4, 44100, Note_on_c, 2, 74, 127
4, 44160, Note_on_c, 2, 74, 0
4, 44160, Note_on_c, 2, 64, 127
4, 44240, Note_on_c, 2, 64, 0
4, 44240, Note_on_c, 2, 71, 127
4, 44320, Note_on_c, 2, 71, 0
4, 44320, Note_on_c, 2, 69, 127
4, 44400, Note_on_c, 2, 69, 0
4, 44400, Note_on_c, 2, 73, 127
4, 44448, Note_on_c, 2, 73, 0
4, 44448, Note_on_c, 2, 69, 127
4, 44496, Note_on_c, 2, 69, 0
4, 44496, Note_on_c, 2, 69, 127
4, 44544, Note_on_c, 2, 69, 0
4, 44544, Note_on_c, 2, 71, 127
4, 44592, Note_on_c, 2, 71, 0
4, 44592, Note_on_c, 2, 68, 127
4, 44640, Note_on_c, 2, 68, 0
4, 44736, Note_on_c, 2, 73, 127
4, 44832, Note_on_c, 2, 73, 0
4, 44832, Note_on_c, 2, 66, 127
4, 44928, Note_on_c, 2, 66, 0
4, 44928, Note_on_c, 2, 71, 127
4, 45024, Note_on_c, 2, 71, 0
4, 45024, Note_on_c, 2, 68, 127
4, 45120, Note_on_c, 2, 68, 0
4, 45120, Note_on_c, 2, 80, 127
4, 45216, Note_on_c, 2, 80, 0
4, 45216, Note_on_c, 2, 78, 127
4, 45312, Note_on_c, 2, 78, 0
4, 45312, Note_on_c, 2, 73, 127
4, 45408, Note_on_c, 2, 73, 0
4, 45408, Note_on_c, 2, 76, 127
4, 45504, Note_on_c, 2, 76, 0
4, 45504, Note_on_c, 2, 66, 127
4, 45600, Note_on_c, 2, 66, 0
4, 45600, Note_on_c, 2, 80, 127
4, 45696, Note_on_c, 2, 80, 0
4, 45696, Note_on_c, 2, 78, 127
4, 45792, Note_on_c, 2, 78, 0
4, 45792, Note_on_c, 2, 73, 127
4, 45888, Note_on_c, 2, 73, 0
4, 45888, Note_on_c, 2, 76, 127
4, 45984, Note_on_c, 2, 76, 0
4, 45984, Note_on_c, 2, 66, 127
4, 46034, Note_on_c, 2, 66, 0
4, 46080, Note_on_c, 2, 66, 127
4, 47956, Note_on_c, 2, 66, 0
4, 48480, Note_on_c, 2, 80, 127
4, 48540, Note_on_c, 2, 80, 0
4, 48540, Note_on_c, 2, 81, 127
4, 48600, Note_on_c, 2, 81, 0
4, 48600, Note_on_c, 2, 80, 127
4, 48660, Note_on_c, 2, 80, 0
4, 48720, Note_on_c, 2, 80, 127
4, 48780, Note_on_c, 2, 80, 0
4, 48780, Note_on_c, 2, 81, 127
4, 48840, Note_on_c, 2, 81, 0
4, 48840, Note_on_c, 2, 78, 127
4, 48900, Note_on_c, 2, 78, 0
4, 48960, Note_on_c, 2, 80, 127
4, 49020, Note_on_c, 2, 80, 0
4, 49080, Note_on_c, 2, 71, 127
4, 49140, Note_on_c, 2, 71, 0
4, 49140, Note_on_c, 2, 81, 127
4, 49200, Note_on_c, 2, 81, 0
4, 49200, Note_on_c, 2, 78, 127
4, 49260, Note_on_c, 2, 78, 0
4, 49260, Note_on_c, 2, 73, 127
4, 49320, Note_on_c, 2, 73, 0
4, 49320, Note_on_c, 2, 83, 127
4, 49380, Note_on_c, 2, 83, 0
4, 49380, Note_on_c, 2, 78, 127
4, 49440, Note_on_c, 2, 78, 0
4, 49440, Note_on_c, 2, 80, 127
4, 49500, Note_on_c, 2, 80, 0
4, 49500, Note_on_c, 2, 76, 127
4, 49560, Note_on_c, 2, 76, 0
4, 49560, Note_on_c, 2, 76, 127
4, 49620, Note_on_c, 2, 76, 0
4, 49620, Note_on_c, 2, 73, 127
4, 49680, Note_on_c, 2, 73, 0
4, 49680, Note_on_c, 2, 78, 127
4, 49740, Note_on_c, 2, 78, 0
4, 49740, Note_on_c, 2, 80, 127
4, 49800, Note_on_c, 2, 80, 0
4, 49800, Note_on_c, 2, 80, 127
4, 49860, Note_on_c, 2, 80, 0
4, 49860, Note_on_c, 2, 83, 127
4, 49920, Note_on_c, 2, 83, 0
4, 49920, Note_on_c, 2, 81, 127
4, 49980, Note_on_c, 2, 81, 0
4, 49980, Note_on_c, 2, 80, 127
4, 50040, Note_on_c, 2, 80, 0
4, 50040, Note_on_c, 2, 80, 127
4, 50100, Note_on_c, 2, 80, 0
4, 50100, Note_on_c, 2, 83, 127
4, 50160, Note_on_c, 2, 83, 0
4, 50160, Note_on_c, 2, 78, 127
4, 50220, Note_on_c, 2, 78, 0
4, 50220, Note_on_c, 2, 66, 127
4, 50280, Note_on_c, 2, 66, 0
4, 50280, Note_on_c, 2, 66, 127
4, 50340, Note_on_c, 2, 66, 0
4, 50340, Note_on_c, 2, 71, 127
4, 50400, Note_on_c, 2, 71, 0
4, 50400, Note_on_c, 2, 73, 127
4, 50460, Note_on_c, 2, 73, 0
4, 50460, Note_on_c, 2, 69, 127
4, 50520, Note_on_c, 2, 69, 0
4, 50520, Note_on_c, 2, 71, 127
4, 50580, Note_on_c, 2, 71, 0
4, 50580, Note_on_c, 2, 76, 127
4, 50640, Note_on_c, 2, 76, 0
4, 50640, Note_on_c, 2, 80, 127
4, 50700, Note_on_c, 2, 80, 0
4, 50700, Note_on_c, 2, 66, 127
4, 50760, Note_on_c, 2, 66, 0
4, 50760, Note_on_c, 2, 71, 127
4, 50820, Note_on_c, 2, 71, 0
4, 50820, Note_on_c, 2, 73, 127
4, 50880, Note_on_c, 2, 73, 0
4, 50880, Note_on_c, 2, 74, 127
4, 50940, Note_on_c, 2, 74, 0
4, 50940, Note_on_c, 2, 81, 127
4, 51000, Note_on_c, 2, 81, 0
4, 51000, Note_on_c, 2, 78, 127
4, 51060, Note_on_c, 2, 78, 0
4, 51060, Note_on_c, 2, 76, 127
4, 51120, Note_on_c, 2, 76, 0
4, 51120, Note_on_c, 2, 78, 127
4, 51180, Note_on_c, 2, 78, 0
4, 51180, Note_on_c, 2, 80, 127
4, 51240, Note_on_c, 2, 80, 0
4, 51240, Note_on_c, 2, 76, 127
4, 51300, Note_on_c, 2, 76, 0
4, 51300, Note_on_c, 2, 71, 127
4, 51360, Note_on_c, 2, 71, 0
4, 51600, Note_on_c, 2, 78, 127
4, 51660, Note_on_c, 2, 78, 0
4, 51660, Note_on_c, 2, 80, 127
4, 51720, Note_on_c, 2, 80, 0
4, 51720, Note_on_c, 2, 76, 127
4, 51780, Note_on_c, 2, 76, 0
4, 51780, Note_on_c, 2, 71, 127
4, 51840, Note_on_c, 2, 71, 0
4, 52320, Note_on_c, 2, 78, 127
4, 52380, Note_on_c, 2, 78, 0
4, 52380, Note_on_c, 2, 80, 127
4, 52440, Note_on_c, 2, 80, 0
4, 52440, Note_on_c, 2, 76, 127
4, 52500, Note_on_c, 2, 76, 0
4, 52500, Note_on_c, 2, 71, 127
4, 52560, Note_on_c, 2, 71, 0
4, 53040, Note_on_c, 2, 78, 127
4, 53100, Note_on_c, 2, 78, 0
4, 53100, Note_on_c, 2, 80, 127
4, 53160, Note_on_c, 2, 80, 0
4, 53160, Note_on_c, 2, 76, 127
4, 53220, Note_on_c, 2, 76, 0
4, 53220, Note_on_c, 2, 71, 127
4, 53280, Note_on_c, 2, 71, 0
4, 53280, Note_on_c, 2, 81, 127
4, 53600, Note_on_c, 2, 81, 0
4, 53732, Note_on_c, 2, 81, 127
4, 53760, Note_on_c, 2, 80, 127
4, 53762, Note_on_c, 2, 81, 0
4, 53920, Note_on_c, 2, 80, 0
4, 54000, Note_on_c, 2, 78, 127
4, 54160, Note_on_c, 2, 78, 0
4, 54240, Note_on_c, 2, 88, 127
4, 54329, Note_on_c, 2, 88, 0
4, 54360, Note_on_c, 2, 78, 127
4, 54449, Note_on_c, 2, 78, 0
4, 54480, Note_on_c, 2, 78, 127
4, 54545, Note_on_c, 2, 78, 0
4, 54560, Note_on_c, 2, 83, 127
4, 54621, Note_on_c, 2, 83, 0
4, 54640, Note_on_c, 2, 80, 127
4, 54701, Note_on_c, 2, 80, 0
4, 54720, Note_on_c, 2, 85, 127
4, 54800, Note_on_c, 2, 85, 0
4, 54840, Note_on_c, 2, 83, 127
4, 54920, Note_on_c, 2, 83, 0
4, 54960, Note_on_c, 2, 83, 127
4, 55040, Note_on_c, 2, 83, 0
4, 55080, Note_on_c, 2, 81, 127
4, 55160, Note_on_c, 2, 81, 0
4, 55200, Note_on_c, 2, 80, 127
4, 55532, Note_on_c, 2, 83, 127
4, 55556, Note_on_c, 2, 83, 0
4, 55560, Note_on_c, 2, 81, 127
4, 55575, Note_on_c, 2, 80, 0
4, 55624, Note_on_c, 2, 81, 0
4, 55680, Note_on_c, 2, 78, 127
4, 55824, Note_on_c, 2, 78, 0
4, 55840, Note_on_c, 2, 76, 127
4, 55984, Note_on_c, 2, 76, 0
4, 56000, Note_on_c, 2, 76, 127
4, 56144, Note_on_c, 2, 76, 0
4, 56160, Note_on_c, 2, 78, 127
4, 56640, Note_on_c, 2, 78, 0
4, 56640, Note_on_c, 2, 66, 127
4, 56700, Note_on_c, 2, 66, 0
4, 56700, Note_on_c, 2, 71, 127
4, 56760, Note_on_c, 2, 71, 0
4, 56760, Note_on_c, 2, 71, 127
4, 56820, Note_on_c, 2, 71, 0
4, 56820, Note_on_c, 2, 69, 127
4, 56880, Note_on_c, 2, 69, 0
4, 56880, Note_on_c, 2, 71, 127
4, 57180, Note_on_c, 2, 71, 0
4, 57215, Note_on_c, 2, 73, 127
4, 57240, Note_on_c, 2, 71, 127
4, 57253, Note_on_c, 2, 73, 0
4, 57300, Note_on_c, 2, 71, 0
4, 57360, Note_on_c, 2, 66, 127
4, 57720, Note_on_c, 2, 66, 0
4, 57720, Note_on_c, 2, 68, 127
4, 57960, Note_on_c, 2, 68, 0
4, 57960, Note_on_c, 2, 59, 127
4, 58080, Note_on_c, 2, 59, 0
4, 58080, Note_on_c, 2, 60, 127
4, 58240, Note_on_c, 2, 70, 127
4, 58250, Note_on_c, 2, 60, 0
4, 58400, Note_on_c, 2, 65, 127
4, 58410, Note_on_c, 2, 70, 0
4, 58560, Note_on_c, 2, 75, 127
4, 58570, Note_on_c, 2, 65, 0
4, 59030, Note_on_c, 2, 75, 0
4, 59040, Note_on_c, 2, 73, 127
4, 59120, Note_on_c, 2, 73, 0
4, 59200, Note_on_c, 2, 70, 127
4, 59280, Note_on_c, 2, 70, 0
4, 59280, Note_on_c, 2, 72, 127
4, 60000, Note_on_c, 2, 72, 0
4, 60221, Note_on_c, 2, 75, 127
4, 60240, Note_on_c, 2, 68, 127
4, 60247, Note_on_c, 2, 75, 0
4, 60432, Note_on_c, 2, 68, 0
4, 60480, Note_on_c, 2, 73, 127
4, 60640, Note_on_c, 2, 77, 127
4, 60672, Note_on_c, 2, 73, 0
4, 60800, Note_on_c, 2, 70, 127
4, 60832, Note_on_c, 2, 77, 0
4, 60960, Note_on_c, 2, 75, 127
4, 60992, Note_on_c, 2, 70, 0
4, 61045, Note_on_c, 2, 75, 0
4, 61080, Note_on_c, 2, 73, 127
4, 61140, Note_on_c, 2, 73, 0
4, 61140, Note_on_c, 2, 77, 127
4, 61200, Note_on_c, 2, 77, 0
4, 61200, Note_on_c, 2, 72, 127
4, 61910, Note_on_c, 2, 72, 0
4, 61920, Note_on_c, 2, 60, 127
4, 61968, Note_on_c, 2, 60, 0
4, 62040, Note_on_c, 2, 64, 127
4, 62100, Note_on_c, 2, 64, 0
4, 62160, Note_on_c, 2, 62, 127
4, 62220, Note_on_c, 2, 62, 0
4, 62280, Note_on_c, 2, 65, 127
4, 62340, Note_on_c, 2, 65, 0
4, 62400, Note_on_c, 2, 64, 127
4, 62460, Note_on_c, 2, 64, 0
4, 62520, Note_on_c, 2, 55, 127
4, 62580, Note_on_c, 2, 55, 0
4, 62640, Note_on_c, 2, 65, 127
4, 62700, Note_on_c, 2, 65, 0
4, 62760, Note_on_c, 2, 62, 127
4, 62820, Note_on_c, 2, 62, 0
4, 62880, Note_on_c, 2, 69, 127
4, 62990, Note_on_c, 2, 69, 0
4, 63040, Note_on_c, 2, 72, 127
4, 63150, Note_on_c, 2, 72, 0
4, 63200, Note_on_c, 2, 64, 127
4, 63310, Note_on_c, 2, 64, 0
4, 63360, Note_on_c, 2, 64, 127
4, 63408, Note_on_c, 2, 64, 0
4, 63440, Note_on_c, 2, 65, 127
4, 63488, Note_on_c, 2, 65, 0
4, 63520, Note_on_c, 2, 64, 127
4, 63568, Note_on_c, 2, 64, 0
4, 63600, Note_on_c, 2, 62, 127
4, 63648, Note_on_c, 2, 62, 0
4, 63680, Note_on_c, 2, 57, 127
4, 63728, Note_on_c, 2, 57, 0
4, 63760, Note_on_c, 2, 58, 127
4, 63828, Note_on_c, 2, 58, 0
4, 63840, Note_on_c, 2, 60, 127
4, 63908, Note_on_c, 2, 60, 0
4, 63913, Note_on_c, 2, 60, 127
4, 63981, Note_on_c, 2, 60, 0
4, 63987, Note_on_c, 2, 62, 127
4, 64055, Note_on_c, 2, 62, 0
4, 64060, Note_on_c, 2, 62, 127
4, 64128, Note_on_c, 2, 62, 0
4, 64134, Note_on_c, 2, 64, 127
4, 64202, Note_on_c, 2, 64, 0
4, 64207, Note_on_c, 2, 65, 127
4, 64275, Note_on_c, 2, 65, 0
4, 64285, Note_on_c, 2, 69, 127
4, 64353, Note_on_c, 2, 69, 0
4, 64358, Note_on_c, 2, 55, 127
4, 64426, Note_on_c, 2, 55, 0
4, 64432, Note_on_c, 2, 55, 127
4, 64500, Note_on_c, 2, 55, 0
4, 64505, Note_on_c, 2, 62, 127
4, 64573, Note_on_c, 2, 62, 0
4, 64579, Note_on_c, 2, 53, 127
4, 64647, Note_on_c, 2, 53, 0
4, 64652, Note_on_c, 2, 53, 127
4, 64720, Note_on_c, 2, 53, 0
4, 64726, Note_on_c, 2, 52, 127
4, 64794, Note_on_c, 2, 52, 0
4, 64800, Note_on_c, 2, 67, 127
4, 66720, Note_on_c, 2, 67, 0
4, 66960, Note_on_c, 2, 71, 127
4, 67064, Note_on_c, 2, 71, 0
4, 67080, Note_on_c, 2, 73, 127
4, 67164, Note_on_c, 2, 73, 0
4, 67200, Note_on_c, 2, 73, 127
4, 67324, Note_on_c, 2, 73, 0
4, 67360, Note_on_c, 2, 71, 127
4, 67484, Note_on_c, 2, 71, 0
4, 67520, Note_on_c, 2, 74, 127
4, 67644, Note_on_c, 2, 74, 0
4, 67680, Note_on_c, 2, 77, 127
4, 67804, Note_on_c, 2, 77, 0
4, 67840, Note_on_c, 2, 69, 127
4, 67964, Note_on_c, 2, 69, 0
4, 68000, Note_on_c, 2, 69, 127
4, 68124, Note_on_c, 2, 69, 0
4, 68160, Note_on_c, 2, 70, 127
4, 68414, Note_on_c, 2, 70, 0
4, 68520, Note_on_c, 2, 73, 127
4, 68584, Note_on_c, 2, 73, 0
4, 68640, Note_on_c, 2, 76, 127
4, 68763, Note_on_c, 2, 76, 0
4, 68800, Note_on_c, 2, 81, 127
4, 68923, Note_on_c, 2, 81, 0
4, 68960, Note_on_c, 2, 82, 127
4, 69083, Note_on_c, 2, 82, 0
4, 69120, Note_on_c, 2, 77, 127
4, 69243, Note_on_c, 2, 77, 0
4, 69280, Note_on_c, 2, 72, 127
4, 69403, Note_on_c, 2, 72, 0
4, 69440, Note_on_c, 2, 67, 127
4, 69563, Note_on_c, 2, 67, 0
4, 69600, Note_on_c, 2, 69, 127
4, 70790, Note_on_c, 2, 69, 0
4, 70800, Note_on_c, 2, 81, 127
4, 71990, Note_on_c, 2, 81, 0
4, 72000, Note_on_c, 2, 81, 127
4, 73190, Note_on_c, 2, 81, 0
4, 73200, Note_on_c, 2, 69, 127
4, 74116, Note_on_c, 2, 71, 64
4, 74120, Note_on_c, 2, 69, 0
4, 74157, Note_on_c, 2, 72, 73
4, 74169, Note_on_c, 2, 71, 0
4, 74189, Note_on_c, 2, 74, 80
4, 74200, Note_on_c, 2, 72, 0
4, 74215, Note_on_c, 2, 76, 85
4, 74232, Note_on_c, 2, 74, 0
4, 74258, Note_on_c, 2, 77, 95
4, 74269, Note_on_c, 2, 76, 0
4, 74299, Note_on_c, 2, 79, 104
4, 74311, Note_on_c, 2, 77, 0
4, 74350, Note_on_c, 2, 81, 115
4, 74373, Note_on_c, 2, 79, 0
4, 74400, Note_on_c, 2, 83, 127
4, 74438, Note_on_c, 2, 81, 0
4, 75590, Note_on_c, 2, 83, 0
4, 75600, Note_on_c, 2, 73, 127
4, 76790, Note_on_c, 2, 73, 0
4, 76800, Note_on_c, 2, 76, 127
4, 77990, Note_on_c, 2, 76, 0
4, 78000, Note_on_c, 2, 73, 127
4, 79190, Note_on_c, 2, 73, 0
4, 79200, Note_on_c, 2, 70, 127
4, 79284, Note_on_c, 2, 70, 0
4, 79320, Note_on_c, 2, 72, 127
4, 79404, Note_on_c, 2, 72, 0
4, 79440, Note_on_c, 2, 72, 127
4, 79504, Note_on_c, 2, 72, 0
4, 79520, Note_on_c, 2, 69, 127
4, 79584, Note_on_c, 2, 69, 0
4, 79600, Note_on_c, 2, 74, 127
4, 79664, Note_on_c, 2, 74, 0
4, 79680, Note_on_c, 2, 75, 127
4, 79764, Note_on_c, 2, 75, 0
4, 79800, Note_on_c, 2, 67, 127
4, 79884, Note_on_c, 2, 67, 0
4, 79920, Note_on_c, 2, 67, 127
4, 79984, Note_on_c, 2, 67, 0
4, 80000, Note_on_c, 2, 69, 127
4, 80064, Note_on_c, 2, 69, 0
4, 80080, Note_on_c, 2, 65, 127
4, 80144, Note_on_c, 2, 65, 0
4, 80160, Note_on_c, 2, 64, 127
4, 80283, Note_on_c, 2, 64, 0
4, 80320, Note_on_c, 2, 67, 127
4, 80443, Note_on_c, 2, 67, 0
4, 80480, Note_on_c, 2, 67, 127
4, 80603, Note_on_c, 2, 67, 0
4, 80640, Note_on_c, 2, 65, 127
4, 80763, Note_on_c, 2, 65, 0
4, 80800, Note_on_c, 2, 65, 127
4, 80923, Note_on_c, 2, 65, 0
4, 80960, Note_on_c, 2, 70, 127
4, 81083, Note_on_c, 2, 70, 0
4, 81120, Note_on_c, 2, 71, 127
4, 83520, Note_on_c, 2, 71, 0
4, 85920, Note_on_c, 2, 69, 127
4, 86220, Note_on_c, 2, 69, 0
4, 86220, Note_on_c, 2, 67, 127
4, 86270, Note_on_c, 2, 67, 0
4, 86280, Note_on_c, 2, 66, 127
4, 86330, Note_on_c, 2, 66, 0
4, 86340, Note_on_c, 2, 72, 127
4, 86390, Note_on_c, 2, 72, 0
4, 86400, Note_on_c, 2, 62, 127
4, 86470, Note_on_c, 2, 62, 0
4, 86480, Note_on_c, 2, 69, 127
4, 86550, Note_on_c, 2, 69, 0
4, 86560, Note_on_c, 2, 67, 127
4, 86630, Note_on_c, 2, 67, 0
4, 86640, Note_on_c, 2, 71, 127
4, 86678, Note_on_c, 2, 71, 0
4, 86688, Note_on_c, 2, 67, 127
4, 86726, Note_on_c, 2, 67, 0
4, 86736, Note_on_c, 2, 67, 127
4, 86774, Note_on_c, 2, 67, 0
4, 86784, Note_on_c, 2, 69, 127
4, 86822, Note_on_c, 2, 69, 0
4, 86832, Note_on_c, 2, 66, 127
4, 86870, Note_on_c, 2, 66, 0
4, 86976, Note_on_c, 2, 71, 127
4, 87052, Note_on_c, 2, 71, 0
4, 87072, Note_on_c, 2, 64, 127
4, 87148, Note_on_c, 2, 64, 0
4, 87168, Note_on_c, 2, 69, 127
4, 87244, Note_on_c, 2, 69, 0
4, 87264, Note_on_c, 2, 66, 127
4, 87340, Note_on_c, 2, 66, 0
4, 87360, Note_on_c, 2, 78, 127
4, 87446, Note_on_c, 2, 78, 0
4, 87456, Note_on_c, 2, 76, 127
4, 87542, Note_on_c, 2, 76, 0
4, 87552, Note_on_c, 2, 71, 127
4, 87638, Note_on_c, 2, 71, 0
4, 87648, Note_on_c, 2, 74, 127
4, 87734, Note_on_c, 2, 74, 0
4, 87744, Note_on_c, 2, 64, 127
4, 87830, Note_on_c, 2, 64, 0
4, 87840, Note_on_c, 2, 78, 127
4, 87926, Note_on_c, 2, 78, 0
4, 87936, Note_on_c, 2, 76, 127
4, 88022, Note_on_c, 2, 76, 0
4, 88032, Note_on_c, 2, 71, 127
4, 88118, Note_on_c, 2, 71, 0
4, 88128, Note_on_c, 2, 74, 127
4, 88214, Note_on_c, 2, 74, 0
4, 88224, Note_on_c, 2, 64, 127
4, 88304, Note_on_c, 2, 64, 0
4, 88320, Note_on_c, 2, 64, 127
4, 89780, Note_on_c, 2, 64, 0
4, 90826, Note_on_c, 2, 66, 127
4, 90924, Note_on_c, 2, 66, 0
4, 90933, Note_on_c, 2, 67, 127
4, 91031, Note_on_c, 2, 67, 0
4, 91039, Note_on_c, 2, 72, 127
4, 91137, Note_on_c, 2, 72, 0
4, 91145, Note_on_c, 2, 71, 127
4, 91243, Note_on_c, 2, 71, 0
4, 91252, Note_on_c, 2, 78, 127
4, 91320, Note_on_c, 2, 78, 0
4, 91323, Note_on_c, 2, 79, 127
4, 91391, Note_on_c, 2, 79, 0
4, 91394, Note_on_c, 2, 76, 127
4, 91462, Note_on_c, 2, 76, 0
4, 91466, Note_on_c, 2, 81, 127
4, 91564, Note_on_c, 2, 81, 0
4, 91573, Note_on_c, 2, 78, 127
4, 91671, Note_on_c, 2, 78, 0
4, 91680, Note_on_c, 2, 79, 127
4, 91780, Note_on_c, 2, 79, 0
4, 91800, Note_on_c, 2, 78, 127
4, 91900, Note_on_c, 2, 78, 0
4, 91920, Note_on_c, 2, 78, 127
4, 92020, Note_on_c, 2, 78, 0
4, 92040, Note_on_c, 2, 76, 127
4, 92140, Note_on_c, 2, 76, 0
4, 92160, Note_on_c, 2, 81, 127
4, 92203, Note_on_c, 2, 81, 0
4, 92204, Note_on_c, 2, 86, 127
4, 92247, Note_on_c, 2, 86, 0
4, 92248, Note_on_c, 2, 81, 127
4, 92291, Note_on_c, 2, 81, 0
4, 92292, Note_on_c, 2, 83, 127
4, 92335, Note_on_c, 2, 83, 0
4, 92336, Note_on_c, 2, 84, 127
4, 92379, Note_on_c, 2, 84, 0
4, 92380, Note_on_c, 2, 88, 127
4, 92423, Note_on_c, 2, 88, 0
4, 92424, Note_on_c, 2, 83, 127
4, 92467, Note_on_c, 2, 83, 0
4, 92468, Note_on_c, 2, 83, 127
4, 92511, Note_on_c, 2, 83, 0
4, 92512, Note_on_c, 2, 84, 127
4, 92555, Note_on_c, 2, 84, 0
4, 92556, Note_on_c, 2, 74, 127
4, 92599, Note_on_c, 2, 74, 0
4, 92600, Note_on_c, 2, 81, 127
4, 92640, Note_on_c, 2, 83, 127
4, 92643, Note_on_c, 2, 81, 0
4, 92683, Note_on_c, 2, 83, 0
4, 92684, Note_on_c, 2, 76, 127
4, 92727, Note_on_c, 2, 76, 0
4, 92728, Note_on_c, 2, 76, 127
4, 92771, Note_on_c, 2, 76, 0
4, 92772, Note_on_c, 2, 79, 127
4, 92815, Note_on_c, 2, 79, 0
4, 92816, Note_on_c, 2, 79, 127
4, 92859, Note_on_c, 2, 79, 0
4, 92860, Note_on_c, 2, 86, 127
4, 92903, Note_on_c, 2, 86, 0
4, 92904, Note_on_c, 2, 78, 127
4, 92947, Note_on_c, 2, 78, 0
4, 92948, Note_on_c, 2, 78, 127
4, 92991, Note_on_c, 2, 78, 0
4, 92992, Note_on_c, 2, 81, 127
4, 93035, Note_on_c, 2, 81, 0
4, 93036, Note_on_c, 2, 76, 127
4, 93079, Note_on_c, 2, 76, 0
4, 93080, Note_on_c, 2, 71, 127
4, 93120, Note_on_c, 2, 81, 127
4, 93123, Note_on_c, 2, 71, 0
4, 93190, Note_on_c, 2, 81, 0
4, 93280, Note_on_c, 2, 72, 127
4, 93350, Note_on_c, 2, 72, 0
4, 93440, Note_on_c, 2, 72, 127
4, 93510, Note_on_c, 2, 72, 0
4, 93600, Note_on_c, 2, 79, 127
4, 94560, Note_on_c, 2, 79, 0
4, 94800, Note_on_c, 2, 75, 127
4, 94996, Note_on_c, 2, 78, 76
4, 95000, Note_on_c, 2, 75, 0
4, 95019, Note_on_c, 2, 80, 99
4, 95028, Note_on_c, 2, 78, 0
4, 95040, Note_on_c, 2, 82, 127
4, 95049, Note_on_c, 2, 80, 0
4, 95164, Note_on_c, 2, 82, 0
4, 95200, Note_on_c, 2, 80, 127
4, 95324, Note_on_c, 2, 80, 0
4, 95360, Note_on_c, 2, 77, 127
4, 95484, Note_on_c, 2, 77, 0
4, 95520, Note_on_c, 2, 77, 127
4, 95584, Note_on_c, 2, 77, 0
4, 95610, Note_on_c, 2, 79, 127
4, 95674, Note_on_c, 2, 79, 0
4, 95700, Note_on_c, 2, 75, 127
4, 95764, Note_on_c, 2, 75, 0
4, 95790, Note_on_c, 2, 70, 127
4, 95854, Note_on_c, 2, 70, 0
4, 95880, Note_on_c, 2, 80, 127
4, 95944, Note_on_c, 2, 80, 0
4, 95966, Note_on_c, 2, 84, 127
4, 96009, Note_on_c, 2, 84, 0
4, 96080, Note_on_c, 2, 82, 127
4, 96123, Note_on_c, 2, 82, 0
4, 96137, Note_on_c, 2, 82, 127
4, 96180, Note_on_c, 2, 82, 0
4, 96223, Note_on_c, 2, 80, 127
4, 96266, Note_on_c, 2, 80, 0
4, 96309, Note_on_c, 2, 80, 127
4, 96352, Note_on_c, 2, 80, 0
4, 96394, Note_on_c, 2, 77, 127
4, 96437, Note_on_c, 2, 77, 0
4, 96480, Note_on_c, 2, 82, 127
4, 96524, Note_on_c, 2, 82, 0
4, 96567, Note_on_c, 2, 78, 127
4, 96611, Note_on_c, 2, 78, 0
4, 96655, Note_on_c, 2, 78, 127
4, 96699, Note_on_c, 2, 78, 0
4, 96742, Note_on_c, 2, 77, 127
4, 96786, Note_on_c, 2, 77, 0
4, 96830, Note_on_c, 2, 80, 127
4, 96874, Note_on_c, 2, 80, 0
4, 96917, Note_on_c, 2, 73, 127
4, 96961, Note_on_c, 2, 73, 0
4, 97004, Note_on_c, 2, 73, 127
4, 97048, Note_on_c, 2, 73, 0
4, 97092, Note_on_c, 2, 75, 127
4, 97136, Note_on_c, 2, 75, 0
4, 97179, Note_on_c, 2, 71, 127
4, 97223, Note_on_c, 2, 71, 0
4, 97266, Note_on_c, 2, 80, 127
4, 97310, Note_on_c, 2, 80, 0
4, 97353, Note_on_c, 2, 77, 127
4, 97397, Note_on_c, 2, 77, 0
4, 97440, Note_on_c, 2, 77, 127
4, 97484, Note_on_c, 2, 77, 0
4, 97527, Note_on_c, 2, 75, 127
4, 97571, Note_on_c, 2, 75, 0
4, 97615, Note_on_c, 2, 78, 127
4, 97659, Note_on_c, 2, 78, 0
4, 97702, Note_on_c, 2, 73, 127
4, 97746, Note_on_c, 2, 73, 0
4, 97789, Note_on_c, 2, 77, 127
4, 97833, Note_on_c, 2, 77, 0
4, 97877, Note_on_c, 2, 75, 127
4, 97921, Note_on_c, 2, 75, 0
4, 97964, Note_on_c, 2, 80, 127
4, 98008, Note_on_c, 2, 80, 0
4, 98051, Note_on_c, 2, 73, 127
4, 98095, Note_on_c, 2, 73, 0
4, 98139, Note_on_c, 2, 78, 127
4, 98183, Note_on_c, 2, 78, 0
4, 98226, Note_on_c, 2, 65, 127
4, 98270, Note_on_c, 2, 65, 0
4, 98313, Note_on_c, 2, 63, 127
4, 98357, Note_on_c, 2, 63, 0
4, 98400, Note_on_c, 2, 72, 127
4, 100290, Note_on_c, 2, 72, 0
4, 100320, Note_on_c, 2, 82, 127
4, 100364, Note_on_c, 2, 82, 0
4, 100407, Note_on_c, 2, 78, 127
4, 100451, Note_on_c, 2, 78, 0
4, 100495, Note_on_c, 2, 78, 127
4, 100539, Note_on_c, 2, 78, 0
4, 100582, Note_on_c, 2, 77, 127
4, 100626, Note_on_c, 2, 77, 0
4, 100670, Note_on_c, 2, 80, 127
4, 100714, Note_on_c, 2, 80, 0
4, 100757, Note_on_c, 2, 73, 127
4, 100801, Note_on_c, 2, 73, 0
4, 100844, Note_on_c, 2, 73, 127
4, 100888, Note_on_c, 2, 73, 0
4, 100932, Note_on_c, 2, 75, 127
4, 100976, Note_on_c, 2, 75, 0
4, 101019, Note_on_c, 2, 71, 127
4, 101063, Note_on_c, 2, 71, 0
4, 101106, Note_on_c, 2, 80, 127
4, 101150, Note_on_c, 2, 80, 0
4, 101193, Note_on_c, 2, 77, 127
4, 101237, Note_on_c, 2, 77, 0
4, 101280, Note_on_c, 2, 77, 127
4, 101324, Note_on_c, 2, 77, 0
4, 101367, Note_on_c, 2, 75, 127
4, 101411, Note_on_c, 2, 75, 0
4, 101455, Note_on_c, 2, 78, 127
4, 101499, Note_on_c, 2, 78, 0
4, 101542, Note_on_c, 2, 73, 127
4, 101586, Note_on_c, 2, 73, 0
4, 101629, Note_on_c, 2, 77, 127
4, 101673, Note_on_c, 2, 77, 0
4, 101717, Note_on_c, 2, 75, 127
4, 101761, Note_on_c, 2, 75, 0
4, 101804, Note_on_c, 2, 80, 127
4, 101848, Note_on_c, 2, 80, 0
4, 101891, Note_on_c, 2, 73, 127
4, 101935, Note_on_c, 2, 73, 0
4, 101979, Note_on_c, 2, 78, 127
4, 102023, Note_on_c, 2, 78, 0
4, 102066, Note_on_c, 2, 65, 127
4, 102110, Note_on_c, 2, 65, 0
4, 102153, Note_on_c, 2, 63, 127
4, 102197, Note_on_c, 2, 63, 0
4, 102240, Note_on_c, 2, 72, 127
4, 104160, Note_on_c, 2, 72, 0
4, 104160, Note_on_c, 2, 82, 127
4, 104204, Note_on_c, 2, 82, 0
4, 104247, Note_on_c, 2, 78, 127
4, 104291, Note_on_c, 2, 78, 0
4, 104335, Note_on_c, 2, 78, 127
4, 104379, Note_on_c, 2, 78, 0
4, 104422, Note_on_c, 2, 77, 127
4, 104466, Note_on_c, 2, 77, 0
4, 104510, Note_on_c, 2, 80, 127
4, 104554, Note_on_c, 2, 80, 0
4, 104597, Note_on_c, 2, 73, 127
4, 104641, Note_on_c, 2, 73, 0
4, 104684, Note_on_c, 2, 73, 127
4, 104728, Note_on_c, 2, 73, 0
4, 104772, Note_on_c, 2, 75, 127
4, 104816, Note_on_c, 2, 75, 0
4, 104859, Note_on_c, 2, 71, 127
4, 104903, Note_on_c, 2, 71, 0
4, 104946, Note_on_c, 2, 80, 127
4, 104990, Note_on_c, 2, 80, 0
4, 105033, Note_on_c, 2, 77, 127
4, 105077, Note_on_c, 2, 77, 0
4, 105120, Note_on_c, 2, 77, 127
4, 105164, Note_on_c, 2, 77, 0
4, 105207, Note_on_c, 2, 75, 127
4, 105251, Note_on_c, 2, 75, 0
4, 105295, Note_on_c, 2, 78, 127
4, 105339, Note_on_c, 2, 78, 0
4, 105382, Note_on_c, 2, 73, 127
4, 105426, Note_on_c, 2, 73, 0
4, 105469, Note_on_c, 2, 77, 127
4, 105513, Note_on_c, 2, 77, 0
4, 105557, Note_on_c, 2, 75, 127
4, 105601, Note_on_c, 2, 75, 0
4, 105644, Note_on_c, 2, 80, 127
4, 105688, Note_on_c, 2, 80, 0
4, 105731, Note_on_c, 2, 73, 127
4, 105775, Note_on_c, 2, 73, 0
4, 105819, Note_on_c, 2, 78, 127
4, 105863, Note_on_c, 2, 78, 0
4, 105906, Note_on_c, 2, 65, 127
4, 105950, Note_on_c, 2, 65, 0
4, 105993, Note_on_c, 2, 63, 127
4, 106037, Note_on_c, 2, 63, 0
4, 106080, Note_on_c, 2, 72, 127
4, 108000, Note_on_c, 2, 72, 0
4, 125040, Control_c, 2, 7, 127
4, 125040, Program_c, 2, 6
4, 125280, Note_on_c, 2, 47, 127
4, 125696, Note_on_c, 2, 47, 0
4, 125760, Note_on_c, 2, 54, 127
4, 125788, Note_on_c, 2, 54, 0
4, 125820, Note_on_c, 2, 54, 127
4, 125856, Note_on_c, 2, 54, 0
4, 125880, Note_on_c, 2, 52, 127
4, 125927, Note_on_c, 2, 52, 0
4, 125940, Note_on_c, 2, 50, 127
4, 126000, Note_on_c, 2, 57, 127
4, 126001, Note_on_c, 2, 50, 0
4, 126197, Note_on_c, 2, 57, 0
4, 126312, Note_on_c, 2, 57, 127
4, 126368, Note_on_c, 2, 55, 127
4, 126376, Note_on_c, 2, 57, 0
4, 126480, Note_on_c, 2, 55, 0
4, 126480, Note_on_c, 2, 52, 127
4, 126624, Note_on_c, 2, 52, 0
4, 126840, Note_on_c, 2, 57, 127
4, 126989, Note_on_c, 2, 57, 0
4, 127080, Note_on_c, 2, 54, 127
4, 127167, Note_on_c, 2, 54, 0
4, 127167, End_track
5, 0, Start_track
5, 0, MIDI_port, 0
5, 0, Title_t, "PATRICK O'HEARN"
5, 0, Program_c, 3, 33
5, 0, Control_c, 3, 7, 127
5, 0, Control_c, 3, 10, 64
5, 400, Note_on_c, 3, 28, 76
5, 440, Note_on_c, 3, 29, 83
5, 455, Note_on_c, 3, 28, 0
5, 480, Note_on_c, 3, 31, 127
5, 498, Note_on_c, 3, 29, 0
5, 584, Note_on_c, 3, 31, 0
5, 840, Note_on_c, 3, 31, 127
5, 943, Note_on_c, 3, 31, 0
5, 1360, Note_on_c, 3, 28, 75
5, 1400, Note_on_c, 3, 29, 84
5, 1413, Note_on_c, 3, 28, 0
5, 1440, Note_on_c, 3, 31, 127
5, 1450, Note_on_c, 3, 29, 0
5, 1548, Note_on_c, 3, 31, 0
5, 1800, Note_on_c, 3, 31, 127
5, 1903, Note_on_c, 3, 31, 0
5, 2400, Note_on_c, 3, 31, 127
5, 2504, Note_on_c, 3, 31, 0
5, 2760, Note_on_c, 3, 31, 127
5, 2863, Note_on_c, 3, 31, 0
5, 3280, Note_on_c, 3, 28, 75
5, 3320, Note_on_c, 3, 29, 84
5, 3333, Note_on_c, 3, 28, 0
5, 3360, Note_on_c, 3, 31, 127
5, 3370, Note_on_c, 3, 29, 0
5, 3468, Note_on_c, 3, 31, 0
5, 3720, Note_on_c, 3, 31, 127
5, 3823, Note_on_c, 3, 31, 0
5, 4320, Note_on_c, 3, 31, 127
5, 4424, Note_on_c, 3, 31, 0
5, 4680, Note_on_c, 3, 31, 127
5, 4783, Note_on_c, 3, 31, 0
5, 5200, Note_on_c, 3, 28, 75
5, 5240, Note_on_c, 3, 29, 84
5, 5253, Note_on_c, 3, 28, 0
5, 5280, Note_on_c, 3, 31, 127
5, 5290, Note_on_c, 3, 29, 0
5, 5388, Note_on_c, 3, 31, 0
5, 5640, Note_on_c, 3, 31, 127
5, 5743, Note_on_c, 3, 31, 0
5, 6240, Note_on_c, 3, 31, 127
5, 6344, Note_on_c, 3, 31, 0
5, 6600, Note_on_c, 3, 31, 127
5, 6703, Note_on_c, 3, 31, 0
5, 7120, Note_on_c, 3, 28, 75
5, 7160, Note_on_c, 3, 29, 84
5, 7173, Note_on_c, 3, 28, 0
5, 7200, Note_on_c, 3, 31, 127
5, 7210, Note_on_c, 3, 29, 0
5, 7308, Note_on_c, 3, 31, 0
5, 7560, Note_on_c, 3, 31, 127
5, 7663, Note_on_c, 3, 31, 0
5, 8160, Note_on_c, 3, 31, 127
5, 8264, Note_on_c, 3, 31, 0
5, 8520, Note_on_c, 3, 31, 127
5, 8623, Note_on_c, 3, 31, 0
5, 9040, Note_on_c, 3, 28, 75
5, 9080, Note_on_c, 3, 29, 84
5, 9093, Note_on_c, 3, 28, 0
5, 9120, Note_on_c, 3, 31, 127
5, 9130, Note_on_c, 3, 29, 0
5, 9228, Note_on_c, 3, 31, 0
5, 9480, Note_on_c, 3, 31, 127
5, 9583, Note_on_c, 3, 31, 0
5, 10000, Note_on_c, 3, 28, 81
5, 10040, Note_on_c, 3, 29, 83
5, 10060, Note_on_c, 3, 28, 0
5, 10080, Note_on_c, 3, 31, 127
5, 10089, Note_on_c, 3, 29, 0
5, 10186, Note_on_c, 3, 31, 0
5, 10440, Note_on_c, 3, 31, 127
5, 10547, Note_on_c, 3, 31, 0
5, 10960, Note_on_c, 3, 28, 79
5, 11000, Note_on_c, 3, 29, 81
5, 11018, Note_on_c, 3, 28, 0
5, 11040, Note_on_c, 3, 31, 127
5, 11049, Note_on_c, 3, 29, 0
5, 11140, Note_on_c, 3, 31, 0
5, 11400, Note_on_c, 3, 31, 127
5, 11507, Note_on_c, 3, 31, 0
5, 11920, Note_on_c, 3, 31, 83
5, 11960, Note_on_c, 3, 33, 86
5, 11973, Note_on_c, 3, 31, 0
5, 12000, Note_on_c, 3, 34, 127
5, 12013, Note_on_c, 3, 33, 0
5, 12107, Note_on_c, 3, 34, 0
5, 12360, Note_on_c, 3, 34, 127
5, 12461, Note_on_c, 3, 34, 0
5, 12840, Note_on_c, 3, 41, 117
5, 12878, Note_on_c, 3, 41, 0
5, 12880, Note_on_c, 3, 43, 127
5, 12917, Note_on_c, 3, 43, 0
5, 12920, Note_on_c, 3, 41, 117
5, 12958, Note_on_c, 3, 41, 0
5, 12960, Note_on_c, 3, 46, 127
5, 13068, Note_on_c, 3, 46, 0
5, 13320, Note_on_c, 3, 46, 127
5, 13429, Note_on_c, 3, 46, 0
5, 13800, Note_on_c, 3, 34, 113
5, 13840, Note_on_c, 3, 46, 127
5, 13854, Note_on_c, 3, 34, 0
5, 13878, Note_on_c, 3, 46, 0
5, 13880, Note_on_c, 3, 34, 117
5, 13920, Note_on_c, 3, 34, 0
5, 13920, Note_on_c, 3, 46, 127
5, 13960, Note_on_c, 3, 34, 117
5, 13967, Note_on_c, 3, 46, 0
5, 13994, Note_on_c, 3, 34, 0
5, 14260, Note_on_c, 3, 46, 127
5, 14280, Note_on_c, 3, 34, 107
5, 14369, Note_on_c, 3, 46, 0
5, 14389, Note_on_c, 3, 34, 0
5, 14800, Note_on_c, 3, 31, 75
5, 14834, Note_on_c, 3, 31, 0
5, 14840, Note_on_c, 3, 33, 81
5, 14878, Note_on_c, 3, 33, 0
5, 14880, Note_on_c, 3, 34, 127
5, 15002, Note_on_c, 3, 34, 0
5, 15240, Note_on_c, 3, 34, 127
5, 15354, Note_on_c, 3, 34, 0
5, 15600, Note_on_c, 3, 28, 127
5, 15720, Note_on_c, 3, 28, 0
5, 15720, Note_on_c, 3, 29, 127
5, 15840, Note_on_c, 3, 29, 0
5, 15840, Note_on_c, 3, 31, 127
5, 15949, Note_on_c, 3, 31, 0
5, 16200, Note_on_c, 3, 31, 127
5, 16306, Note_on_c, 3, 31, 0
5, 16720, Note_on_c, 3, 28, 81
5, 16760, Note_on_c, 3, 29, 83
5, 16772, Note_on_c, 3, 28, 0
5, 16800, Note_on_c, 3, 31, 127
5, 16818, Note_on_c, 3, 29, 0
5, 16902, Note_on_c, 3, 31, 0
5, 17160, Note_on_c, 3, 31, 127
5, 17269, Note_on_c, 3, 31, 0
5, 17680, Note_on_c, 3, 28, 83
5, 17720, Note_on_c, 3, 29, 85
5, 17734, Note_on_c, 3, 28, 0
5, 17760, Note_on_c, 3, 31, 127
5, 17778, Note_on_c, 3, 29, 0
5, 17861, Note_on_c, 3, 31, 0
5, 18120, Note_on_c, 3, 31, 127
5, 18230, Note_on_c, 3, 31, 0
5, 18640, Note_on_c, 3, 28, 79
5, 18680, Note_on_c, 3, 29, 89
5, 18697, Note_on_c, 3, 28, 0
5, 18720, Note_on_c, 3, 31, 127
5, 18726, Note_on_c, 3, 29, 0
5, 18827, Note_on_c, 3, 31, 0
5, 19080, Note_on_c, 3, 31, 127
5, 19187, Note_on_c, 3, 31, 0
5, 19600, Note_on_c, 3, 29, 81
5, 19640, Note_on_c, 3, 31, 83
5, 19658, Note_on_c, 3, 29, 0
5, 19680, Note_on_c, 3, 34, 127
5, 19703, Note_on_c, 3, 31, 0
5, 19780, Note_on_c, 3, 34, 0
5, 20040, Note_on_c, 3, 34, 127
5, 20141, Note_on_c, 3, 34, 0
5, 20480, Note_on_c, 3, 45, 127
5, 20559, Note_on_c, 3, 45, 0
5, 20560, Note_on_c, 3, 46, 127
5, 20640, Note_on_c, 3, 34, 127
5, 20641, Note_on_c, 3, 46, 0
5, 20746, Note_on_c, 3, 34, 0
5, 21000, Note_on_c, 3, 34, 127
5, 21109, Note_on_c, 3, 34, 0
5, 21520, Note_on_c, 3, 31, 77
5, 21560, Note_on_c, 3, 33, 83
5, 21584, Note_on_c, 3, 31, 0
5, 21600, Note_on_c, 3, 34, 127
5, 21603, Note_on_c, 3, 33, 0
5, 21701, Note_on_c, 3, 34, 0
5, 21960, Note_on_c, 3, 34, 127
5, 22061, Note_on_c, 3, 34, 0
5, 22480, Note_on_c, 3, 31, 83
5, 22520, Note_on_c, 3, 33, 91
5, 22541, Note_on_c, 3, 31, 0
5, 22560, Note_on_c, 3, 34, 127
5, 22571, Note_on_c, 3, 33, 0
5, 22663, Note_on_c, 3, 34, 0
5, 22920, Note_on_c, 3, 34, 127
5, 23024, Note_on_c, 3, 34, 0
5, 23160, Note_on_c, 3, 46, 127
5, 23258, Note_on_c, 3, 46, 0
5, 23280, Note_on_c, 3, 45, 99
5, 23336, Note_on_c, 3, 45, 0
5, 23340, Note_on_c, 3, 45, 107
5, 23397, Note_on_c, 3, 45, 0
5, 23400, Note_on_c, 3, 44, 127
5, 23456, Note_on_c, 3, 44, 0
5, 23520, Note_on_c, 3, 43, 127
5, 23580, Note_on_c, 3, 43, 119
5, 23621, Note_on_c, 3, 43, 0
5, 23688, Note_on_c, 3, 43, 0
5, 23880, Note_on_c, 3, 31, 99
5, 23940, Note_on_c, 3, 31, 119
5, 23980, Note_on_c, 3, 31, 0
5, 24044, Note_on_c, 3, 31, 0
5, 24400, Note_on_c, 3, 28, 83
5, 24440, Note_on_c, 3, 29, 86
5, 24451, Note_on_c, 3, 28, 0
5, 24480, Note_on_c, 3, 31, 127
5, 24496, Note_on_c, 3, 29, 0
5, 24584, Note_on_c, 3, 31, 0
5, 24840, Note_on_c, 3, 31, 127
5, 24948, Note_on_c, 3, 31, 0
5, 25360, Note_on_c, 3, 28, 75
5, 25400, Note_on_c, 3, 29, 81
5, 25426, Note_on_c, 3, 28, 0
5, 25440, Note_on_c, 3, 31, 127
5, 25448, Note_on_c, 3, 29, 0
5, 25541, Note_on_c, 3, 31, 0
5, 25800, Note_on_c, 3, 31, 127
5, 25906, Note_on_c, 3, 31, 0
5, 26320, Note_on_c, 3, 28, 79
5, 26360, Note_on_c, 3, 29, 85
5, 26383, Note_on_c, 3, 28, 0
5, 26400, Note_on_c, 3, 31, 127
5, 26415, Note_on_c, 3, 29, 0
5, 26509, Note_on_c, 3, 31, 0
5, 26760, Note_on_c, 3, 31, 127
5, 26867, Note_on_c, 3, 31, 0
5, 27120, Note_on_c, 3, 33, 123
5, 27229, Note_on_c, 3, 33, 0
5, 27240, Note_on_c, 3, 31, 123
5, 27349, Note_on_c, 3, 31, 0
5, 27360, Note_on_c, 3, 34, 127
5, 27471, Note_on_c, 3, 34, 0
5, 27720, Note_on_c, 3, 34, 127
5, 27824, Note_on_c, 3, 34, 0
5, 28066, Pitch_bend_c, 3, 0
5, 28080, Note_on_c, 3, 46, 127
5, 28105, Pitch_bend_c, 3, 1920
5, 28108, Pitch_bend_c, 3, 6016
5, 28114, Pitch_bend_c, 3, 8192
5, 28200, Note_on_c, 3, 41, 111
5, 28206, Note_on_c, 3, 46, 0
5, 28284, Note_on_c, 3, 41, 0
5, 28320, Note_on_c, 3, 34, 127
5, 28392, Note_on_c, 3, 34, 0
5, 28680, Note_on_c, 3, 34, 127
5, 28753, Note_on_c, 3, 34, 0
5, 29200, Note_on_c, 3, 31, 87
5, 29240, Note_on_c, 3, 33, 90
5, 29262, Note_on_c, 3, 31, 0
5, 29280, Note_on_c, 3, 34, 127
5, 29298, Note_on_c, 3, 33, 0
5, 29402, Note_on_c, 3, 34, 0
5, 29640, Note_on_c, 3, 34, 127
5, 29721, Note_on_c, 3, 34, 0
5, 30160, Note_on_c, 3, 31, 83
5, 30200, Note_on_c, 3, 33, 89
5, 30221, Note_on_c, 3, 31, 0
5, 30240, Note_on_c, 3, 34, 127
5, 30244, Note_on_c, 3, 33, 0
5, 30328, Note_on_c, 3, 34, 0
5, 30600, Note_on_c, 3, 33, 127
5, 30661, Note_on_c, 3, 33, 0
5, 30840, Note_on_c, 3, 43, 119
5, 30957, Note_on_c, 3, 43, 0
5, 30960, Note_on_c, 3, 46, 127
5, 31063, Note_on_c, 3, 46, 0
5, 31080, Note_on_c, 3, 45, 127
5, 31182, Note_on_c, 3, 45, 0
5, 31200, Note_on_c, 3, 43, 127
5, 31307, Note_on_c, 3, 43, 0
5, 31560, Note_on_c, 3, 43, 123
5, 31641, Note_on_c, 3, 43, 0
5, 31800, Note_on_c, 3, 31, 111
5, 31905, Note_on_c, 3, 31, 0
5, 31920, Note_on_c, 3, 34, 127
5, 32027, Note_on_c, 3, 34, 0
5, 32040, Note_on_c, 3, 33, 127
5, 32141, Note_on_c, 3, 33, 0
5, 32160, Note_on_c, 3, 31, 127
5, 32249, Note_on_c, 3, 31, 0
5, 32520, Note_on_c, 3, 31, 127
5, 32578, Note_on_c, 3, 31, 0
5, 32760, Note_on_c, 3, 45, 107
5, 32761, Pitch_bend_c, 3, 8448
5, 32764, Pitch_bend_c, 3, 9344
5, 32771, Pitch_bend_c, 3, 10368
5, 32775, Pitch_bend_c, 3, 11136
5, 32778, Pitch_bend_c, 3, 11776
5, 32783, Pitch_bend_c, 3, 12416
5, 32787, Pitch_bend_c, 3, 12928
5, 32791, Pitch_bend_c, 3, 13440
5, 32794, Pitch_bend_c, 3, 13952
5, 32799, Pitch_bend_c, 3, 14208
5, 32820, Pitch_bend_c, 3, 13696
5, 32824, Pitch_bend_c, 3, 13312
5, 32827, Pitch_bend_c, 3, 12800
5, 32831, Pitch_bend_c, 3, 11904
5, 32836, Note_on_c, 3, 45, 0
5, 32836, Pitch_bend_c, 3, 11008
5, 32840, Pitch_bend_c, 3, 9984
5, 32843, Pitch_bend_c, 3, 8832
5, 32849, Pitch_bend_c, 3, 8192
5, 32880, Note_on_c, 3, 45, 127
5, 32898, Pitch_bend_c, 3, 8704
5, 32901, Pitch_bend_c, 3, 9472
5, 32905, Pitch_bend_c, 3, 9984
5, 32908, Pitch_bend_c, 3, 10496
5, 32914, Pitch_bend_c, 3, 11008
5, 32917, Pitch_bend_c, 3, 11264
5, 32922, Pitch_bend_c, 3, 11648
5, 32935, Pitch_bend_c, 3, 10496
5, 32938, Pitch_bend_c, 3, 8192
5, 33000, Note_on_c, 3, 45, 0
5, 33000, Note_on_c, 3, 43, 73
5, 33088, Note_on_c, 3, 43, 0
5, 33120, Note_on_c, 3, 31, 127
5, 33197, Note_on_c, 3, 31, 0
5, 33480, Note_on_c, 3, 31, 127
5, 33554, Note_on_c, 3, 31, 0
5, 34000, Note_on_c, 3, 28, 79
5, 34040, Note_on_c, 3, 29, 91
5, 34055, Note_on_c, 3, 28, 0
5, 34080, Note_on_c, 3, 31, 127
5, 34083, Note_on_c, 3, 29, 0
5, 34175, Note_on_c, 3, 31, 0
5, 34440, Note_on_c, 3, 31, 127
5, 34521, Note_on_c, 3, 31, 0
5, 34960, Note_on_c, 3, 31, 87
5, 35000, Note_on_c, 3, 33, 99
5, 35009, Note_on_c, 3, 31, 0
5, 35040, Note_on_c, 3, 34, 127
5, 35045, Note_on_c, 3, 33, 0
5, 35114, Note_on_c, 3, 34, 0
5, 35400, Note_on_c, 3, 34, 127
5, 35465, Note_on_c, 3, 34, 0
5, 35920, Note_on_c, 3, 31, 95
5, 35960, Note_on_c, 3, 33, 99
5, 35965, Note_on_c, 3, 31, 0
5, 36000, Note_on_c, 3, 34, 127
5, 36008, Note_on_c, 3, 33, 0
5, 36090, Note_on_c, 3, 34, 0
5, 36360, Note_on_c, 3, 34, 127
5, 36446, Note_on_c, 3, 34, 0
5, 36880, Note_on_c, 3, 31, 89
5, 36919, Note_on_c, 3, 31, 0
5, 36920, Note_on_c, 3, 33, 97
5, 36954, Note_on_c, 3, 33, 0
5, 36960, Note_on_c, 3, 34, 127
5, 37046, Note_on_c, 3, 34, 0
5, 37320, Note_on_c, 3, 34, 127
5, 37403, Note_on_c, 3, 34, 0
5, 37840, Note_on_c, 3, 31, 83
5, 37875, Note_on_c, 3, 31, 0
5, 37880, Note_on_c, 3, 33, 97
5, 37914, Note_on_c, 3, 33, 0
5, 37920, Note_on_c, 3, 34, 127
5, 37999, Note_on_c, 3, 34, 0
5, 38079, Pitch_bend_c, 3, 0
5, 38080, Note_on_c, 3, 36, 127
5, 38080, Pitch_bend_c, 3, 21
5, 38082, Pitch_bend_c, 3, 62
5, 38084, Pitch_bend_c, 3, 103
5, 38086, Pitch_bend_c, 3, 144
5, 38088, Pitch_bend_c, 3, 185
5, 38090, Pitch_bend_c, 3, 225
5, 38092, Pitch_bend_c, 3, 266
5, 38094, Pitch_bend_c, 3, 307
5, 38096, Pitch_bend_c, 3, 348
5, 38098, Pitch_bend_c, 3, 389
5, 38100, Pitch_bend_c, 3, 430
5, 38102, Pitch_bend_c, 3, 471
5, 38104, Pitch_bend_c, 3, 512
5, 38106, Pitch_bend_c, 3, 553
5, 38108, Pitch_bend_c, 3, 594
5, 38110, Pitch_bend_c, 3, 635
5, 38112, Pitch_bend_c, 3, 675
5, 38114, Pitch_bend_c, 3, 716
5, 38116, Pitch_bend_c, 3, 757
5, 38118, Pitch_bend_c, 3, 798
5, 38120, Pitch_bend_c, 3, 839
5, 38122, Pitch_bend_c, 3, 880
5, 38124, Pitch_bend_c, 3, 921
5, 38126, Pitch_bend_c, 3, 962
5, 38128, Pitch_bend_c, 3, 1003
5, 38130, Pitch_bend_c, 3, 1044
5, 38132, Pitch_bend_c, 3, 1085
5, 38134, Pitch_bend_c, 3, 1125
5, 38136, Pitch_bend_c, 3, 1166
5, 38138, Pitch_bend_c, 3, 1207
5, 38140, Pitch_bend_c, 3, 1248
5, 38142, Pitch_bend_c, 3, 1289
5, 38144, Pitch_bend_c, 3, 1330
5, 38146, Pitch_bend_c, 3, 1371
5, 38148, Pitch_bend_c, 3, 1412
5, 38150, Pitch_bend_c, 3, 1453
5, 38152, Pitch_bend_c, 3, 1494
5, 38154, Pitch_bend_c, 3, 1534
5, 38156, Pitch_bend_c, 3, 1575
5, 38158, Pitch_bend_c, 3, 1616
5, 38160, Pitch_bend_c, 3, 1657
5, 38162, Pitch_bend_c, 3, 1698
5, 38164, Pitch_bend_c, 3, 1739
5, 38166, Pitch_bend_c, 3, 1780
5, 38168, Pitch_bend_c, 3, 1821
5, 38170, Pitch_bend_c, 3, 1862
5, 38172, Pitch_bend_c, 3, 1903
5, 38174, Pitch_bend_c, 3, 1944
5, 38176, Pitch_bend_c, 3, 1984
5, 38178, Pitch_bend_c, 3, 2025
5, 38180, Pitch_bend_c, 3, 2066
5, 38182, Pitch_bend_c, 3, 2107
5, 38184, Pitch_bend_c, 3, 2148
5, 38186, Pitch_bend_c, 3, 2189
5, 38188, Pitch_bend_c, 3, 2230
5, 38190, Pitch_bend_c, 3, 2271
5, 38192, Pitch_bend_c, 3, 2312
5, 38194, Pitch_bend_c, 3, 2353
5, 38196, Pitch_bend_c, 3, 2394
5, 38198, Pitch_bend_c, 3, 2434
5, 38200, Pitch_bend_c, 3, 2475
5, 38202, Pitch_bend_c, 3, 2516
5, 38204, Pitch_bend_c, 3, 2557
5, 38206, Pitch_bend_c, 3, 2598
5, 38208, Pitch_bend_c, 3, 2639
5, 38210, Pitch_bend_c, 3, 2680
5, 38212, Pitch_bend_c, 3, 2721
5, 38214, Pitch_bend_c, 3, 2762
5, 38216, Pitch_bend_c, 3, 2803
5, 38218, Pitch_bend_c, 3, 2843
5, 38220, Pitch_bend_c, 3, 2884
5, 38222, Pitch_bend_c, 3, 2925
5, 38224, Pitch_bend_c, 3, 2966
5, 38226, Pitch_bend_c, 3, 3007
5, 38228, Pitch_bend_c, 3, 3048
5, 38230, Pitch_bend_c, 3, 3089
5, 38232, Pitch_bend_c, 3, 3130
5, 38234, Pitch_bend_c, 3, 3171
5, 38236, Pitch_bend_c, 3, 3212
5, 38238, Pitch_bend_c, 3, 3253
5, 38240, Pitch_bend_c, 3, 3293
5, 38242, Pitch_bend_c, 3, 3334
5, 38244, Pitch_bend_c, 3, 3375
5, 38246, Pitch_bend_c, 3, 3416
5, 38248, Pitch_bend_c, 3, 3457
5, 38250, Pitch_bend_c, 3, 3498
5, 38252, Pitch_bend_c, 3, 3539
5, 38254, Pitch_bend_c, 3, 3580
5, 38256, Pitch_bend_c, 3, 3621
5, 38258, Pitch_bend_c, 3, 3662
5, 38260, Pitch_bend_c, 3, 3703
5, 38262, Pitch_bend_c, 3, 3743
5, 38264, Pitch_bend_c, 3, 3784
5, 38266, Pitch_bend_c, 3, 3825
5, 38268, Pitch_bend_c, 3, 3866
5, 38270, Pitch_bend_c, 3, 3907
5, 38272, Pitch_bend_c, 3, 3948
5, 38274, Pitch_bend_c, 3, 3989
5, 38276, Pitch_bend_c, 3, 4030
5, 38278, Pitch_bend_c, 3, 4071
5, 38280, Pitch_bend_c, 3, 4112
5, 38282, Pitch_bend_c, 3, 4152
5, 38284, Pitch_bend_c, 3, 4193
5, 38286, Pitch_bend_c, 3, 4234
5, 38288, Pitch_bend_c, 3, 4275
5, 38290, Pitch_bend_c, 3, 4316
5, 38292, Pitch_bend_c, 3, 4357
5, 38294, Pitch_bend_c, 3, 4398
5, 38296, Pitch_bend_c, 3, 4439
5, 38298, Pitch_bend_c, 3, 4480
5, 38300, Pitch_bend_c, 3, 4521
5, 38302, Pitch_bend_c, 3, 4562
5, 38304, Pitch_bend_c, 3, 4602
5, 38306, Pitch_bend_c, 3, 4643
5, 38308, Pitch_bend_c, 3, 4684
5, 38310, Pitch_bend_c, 3, 4725
5, 38312, Pitch_bend_c, 3, 4766
5, 38314, Pitch_bend_c, 3, 4807
5, 38316, Pitch_bend_c, 3, 4848
5, 38318, Pitch_bend_c, 3, 4889
5, 38320, Pitch_bend_c, 3, 4930
5, 38322, Pitch_bend_c, 3, 4971
5, 38324, Pitch_bend_c, 3, 5012
5, 38326, Pitch_bend_c, 3, 5052
5, 38328, Pitch_bend_c, 3, 5093
5, 38330, Pitch_bend_c, 3, 5134
5, 38332, Pitch_bend_c, 3, 5175
5, 38334, Pitch_bend_c, 3, 5216
5, 38336, Pitch_bend_c, 3, 5257
5, 38338, Pitch_bend_c, 3, 5298
5, 38340, Pitch_bend_c, 3, 5339
5, 38342, Pitch_bend_c, 3, 5380
5, 38344, Pitch_bend_c, 3, 5421
5, 38346, Pitch_bend_c, 3, 5461
5, 38348, Pitch_bend_c, 3, 5502
5, 38350, Pitch_bend_c, 3, 5543
5, 38352, Pitch_bend_c, 3, 5584
5, 38354, Pitch_bend_c, 3, 5625
5, 38356, Pitch_bend_c, 3, 5666
5, 38358, Pitch_bend_c, 3, 5707
5, 38360, Pitch_bend_c, 3, 5748
5, 38362, Pitch_bend_c, 3, 5789
5, 38364, Pitch_bend_c, 3, 5830
5, 38366, Pitch_bend_c, 3, 5871
5, 38368, Pitch_bend_c, 3, 5911
5, 38370, Pitch_bend_c, 3, 5952
5, 38372, Pitch_bend_c, 3, 5993
5, 38374, Pitch_bend_c, 3, 6034
5, 38376, Pitch_bend_c, 3, 6075
5, 38378, Pitch_bend_c, 3, 6116
5, 38380, Pitch_bend_c, 3, 6157
5, 38382, Pitch_bend_c, 3, 6198
5, 38384, Pitch_bend_c, 3, 6239
5, 38386, Pitch_bend_c, 3, 6280
5, 38388, Pitch_bend_c, 3, 6321
5, 38390, Pitch_bend_c, 3, 6361
5, 38392, Pitch_bend_c, 3, 6402
5, 38394, Pitch_bend_c, 3, 6443
5, 38396, Pitch_bend_c, 3, 6484
5, 38398, Pitch_bend_c, 3, 6525
5, 38400, Pitch_bend_c, 3, 6566
5, 38402, Pitch_bend_c, 3, 6607
5, 38404, Pitch_bend_c, 3, 6648
5, 38406, Pitch_bend_c, 3, 6689
5, 38408, Pitch_bend_c, 3, 6730
5, 38410, Pitch_bend_c, 3, 6771
5, 38412, Pitch_bend_c, 3, 6811
5, 38414, Pitch_bend_c, 3, 6852
5, 38416, Pitch_bend_c, 3, 6893
5, 38418, Pitch_bend_c, 3, 6934
5, 38420, Pitch_bend_c, 3, 6975
5, 38422, Pitch_bend_c, 3, 7016
5, 38424, Pitch_bend_c, 3, 7057
5, 38426, Pitch_bend_c, 3, 7098
5, 38428, Pitch_bend_c, 3, 7139
5, 38430, Pitch_bend_c, 3, 7180
5, 38432, Pitch_bend_c, 3, 7220
5, 38434, Pitch_bend_c, 3, 7261
5, 38436, Pitch_bend_c, 3, 7302
5, 38438, Pitch_bend_c, 3, 7343
5, 38440, Pitch_bend_c, 3, 7384
5, 38442, Pitch_bend_c, 3, 7425
5, 38444, Pitch_bend_c, 3, 7466
5, 38446, Pitch_bend_c, 3, 7507
5, 38448, Pitch_bend_c, 3, 7548
5, 38450, Pitch_bend_c, 3, 7589
5, 38452, Pitch_bend_c, 3, 7630
5, 38454, Pitch_bend_c, 3, 7670
5, 38456, Pitch_bend_c, 3, 7711
5, 38458, Pitch_bend_c, 3, 7752
5, 38460, Pitch_bend_c, 3, 7793
5, 38462, Pitch_bend_c, 3, 7834
5, 38464, Pitch_bend_c, 3, 7875
5, 38466, Pitch_bend_c, 3, 7916
5, 38468, Pitch_bend_c, 3, 7957
5, 38470, Pitch_bend_c, 3, 7998
5, 38472, Pitch_bend_c, 3, 8039
5, 38474, Pitch_bend_c, 3, 8080
5, 38476, Pitch_bend_c, 3, 8120
5, 38478, Pitch_bend_c, 3, 8161
5, 38480, Pitch_bend_c, 3, 8202
5, 38482, Pitch_bend_c, 3, 8243
5, 38484, Pitch_bend_c, 3, 8284
5, 38486, Pitch_bend_c, 3, 8325
5, 38488, Pitch_bend_c, 3, 8366
5, 38490, Pitch_bend_c, 3, 8407
5, 38492, Pitch_bend_c, 3, 8448
5, 38494, Pitch_bend_c, 3, 8489
5, 38496, Pitch_bend_c, 3, 8529
5, 38498, Pitch_bend_c, 3, 8570
5, 38500, Pitch_bend_c, 3, 8611
5, 38502, Pitch_bend_c, 3, 8652
5, 38504, Pitch_bend_c, 3, 8693
5, 38506, Pitch_bend_c, 3, 8734
5, 38508, Pitch_bend_c, 3, 8775
5, 38510, Pitch_bend_c, 3, 8816
5, 38512, Pitch_bend_c, 3, 8857
5, 38514, Pitch_bend_c, 3, 8898
5, 38516, Pitch_bend_c, 3, 8939
5, 38518, Pitch_bend_c, 3, 8979
5, 38520, Pitch_bend_c, 3, 9020
5, 38522, Pitch_bend_c, 3, 9061
5, 38524, Pitch_bend_c, 3, 9102
5, 38526, Pitch_bend_c, 3, 9143
5, 38528, Pitch_bend_c, 3, 9184
5, 38530, Pitch_bend_c, 3, 9225
5, 38532, Pitch_bend_c, 3, 9266
5, 38534, Pitch_bend_c, 3, 9307
5, 38536, Pitch_bend_c, 3, 9348
5, 38538, Pitch_bend_c, 3, 9389
5, 38540, Pitch_bend_c, 3, 9429
5, 38542, Pitch_bend_c, 3, 9470
5, 38544, Pitch_bend_c, 3, 9511
5, 38546, Pitch_bend_c, 3, 9552
5, 38548, Pitch_bend_c, 3, 9593
5, 38550, Pitch_bend_c, 3, 9634
5, 38552, Pitch_bend_c, 3, 9675
5, 38554, Pitch_bend_c, 3, 9716
5, 38556, Pitch_bend_c, 3, 9757
5, 38558, Pitch_bend_c, 3, 9798
5, 38560, Pitch_bend_c, 3, 9838
5, 38562, Pitch_bend_c, 3, 9879
5, 38564, Pitch_bend_c, 3, 9920
5, 38566, Pitch_bend_c, 3, 9961
5, 38568, Pitch_bend_c, 3, 10002
5, 38570, Pitch_bend_c, 3, 10043
5, 38572, Pitch_bend_c, 3, 10084
5, 38574, Pitch_bend_c, 3, 10125
5, 38576, Pitch_bend_c, 3, 10166
5, 38578, Pitch_bend_c, 3, 10207
5, 38580, Pitch_bend_c, 3, 10248
5, 38582, Pitch_bend_c, 3, 10288
5, 38584, Pitch_bend_c, 3, 10329
5, 38586, Pitch_bend_c, 3, 10370
5, 38588, Pitch_bend_c, 3, 10411
5, 38590, Pitch_bend_c, 3, 10452
5, 38592, Pitch_bend_c, 3, 10493
5, 38594, Pitch_bend_c, 3, 10534
5, 38596, Pitch_bend_c, 3, 10575
5, 38598, Pitch_bend_c, 3, 10616
5, 38600, Pitch_bend_c, 3, 10657
5, 38602, Pitch_bend_c, 3, 10698
5, 38604, Pitch_bend_c, 3, 10738
5, 38606, Pitch_bend_c, 3, 10779
5, 38608, Pitch_bend_c, 3, 10820
5, 38610, Pitch_bend_c, 3, 10861
5, 38612, Pitch_bend_c, 3, 10902
5, 38614, Pitch_bend_c, 3, 10943
5, 38616, Pitch_bend_c, 3, 10984
5, 38618, Pitch_bend_c, 3, 11025
5, 38620, Pitch_bend_c, 3, 11066
5, 38622, Pitch_bend_c, 3, 11107
5, 38624, Pitch_bend_c, 3, 11147
5, 38626, Pitch_bend_c, 3, 11188
5, 38628, Pitch_bend_c, 3, 11229
5, 38630, Pitch_bend_c, 3, 11270
5, 38632, Pitch_bend_c, 3, 11311
5, 38634, Pitch_bend_c, 3, 11352
5, 38636, Pitch_bend_c, 3, 11393
5, 38638, Pitch_bend_c, 3, 11434
5, 38640, Pitch_bend_c, 3, 11475
5, 38642, Pitch_bend_c, 3, 11516
5, 38644, Pitch_bend_c, 3, 11557
5, 38646, Pitch_bend_c, 3, 11597
5, 38648, Pitch_bend_c, 3, 11638
5, 38650, Pitch_bend_c, 3, 11679
5, 38652, Pitch_bend_c, 3, 11720
5, 38654, Pitch_bend_c, 3, 11761
5, 38656, Pitch_bend_c, 3, 11802
5, 38658, Pitch_bend_c, 3, 11843
5, 38660, Pitch_bend_c, 3, 11884
5, 38662, Pitch_bend_c, 3, 11925
5, 38664, Pitch_bend_c, 3, 11966
5, 38666, Pitch_bend_c, 3, 12007
5, 38668, Pitch_bend_c, 3, 12047
5, 38670, Pitch_bend_c, 3, 12088
5, 38672, Pitch_bend_c, 3, 12129
5, 38674, Pitch_bend_c, 3, 12170
5, 38676, Pitch_bend_c, 3, 12211
5, 38678, Pitch_bend_c, 3, 12252
5, 38680, Pitch_bend_c, 3, 12293
5, 38682, Pitch_bend_c, 3, 12334
5, 38684, Pitch_bend_c, 3, 12375
5, 38686, Pitch_bend_c, 3, 12416
5, 38688, Pitch_bend_c, 3, 12456
5, 38690, Pitch_bend_c, 3, 12497
5, 38692, Pitch_bend_c, 3, 12538
5, 38694, Pitch_bend_c, 3, 12579
5, 38696, Pitch_bend_c, 3, 12620
5, 38698, Pitch_bend_c, 3, 12661
5, 38700, Pitch_bend_c, 3, 12702
5, 38702, Pitch_bend_c, 3, 12743
5, 38704, Pitch_bend_c, 3, 12784
5, 38706, Pitch_bend_c, 3, 12825
5, 38708, Pitch_bend_c, 3, 12866
5, 38710, Pitch_bend_c, 3, 12906
5, 38712, Pitch_bend_c, 3, 12947
5, 38714, Pitch_bend_c, 3, 12988
5, 38716, Pitch_bend_c, 3, 13029
5, 38718, Pitch_bend_c, 3, 13070
5, 38720, Pitch_bend_c, 3, 13111
5, 38722, Pitch_bend_c, 3, 13152
5, 38724, Pitch_bend_c, 3, 13193
5, 38726, Pitch_bend_c, 3, 13234
5, 38728, Pitch_bend_c, 3, 13275
5, 38730, Pitch_bend_c, 3, 13316
5, 38732, Pitch_bend_c, 3, 13356
5, 38734, Pitch_bend_c, 3, 13397
5, 38736, Pitch_bend_c, 3, 13438
5, 38738, Pitch_bend_c, 3, 13479
5, 38740, Pitch_bend_c, 3, 13520
5, 38742, Pitch_bend_c, 3, 13561
5, 38744, Pitch_bend_c, 3, 13602
5, 38746, Pitch_bend_c, 3, 13643
5, 38748, Pitch_bend_c, 3, 13684
5, 38750, Pitch_bend_c, 3, 13725
5, 38752, Pitch_bend_c, 3, 13765
5, 38754, Pitch_bend_c, 3, 13806
5, 38756, Pitch_bend_c, 3, 13847
5, 38758, Pitch_bend_c, 3, 13888
5, 38760, Pitch_bend_c, 3, 13929
5, 38762, Pitch_bend_c, 3, 13970
5, 38764, Pitch_bend_c, 3, 14011
5, 38766, Pitch_bend_c, 3, 14052
5, 38768, Pitch_bend_c, 3, 14093
5, 38770, Pitch_bend_c, 3, 14134
5, 38772, Pitch_bend_c, 3, 14175
5, 38774, Pitch_bend_c, 3, 14215
5, 38776, Pitch_bend_c, 3, 14256
5, 38778, Pitch_bend_c, 3, 14297
5, 38780, Pitch_bend_c, 3, 14338
5, 38782, Pitch_bend_c, 3, 14379
5, 38784, Pitch_bend_c, 3, 14420
5, 38786, Pitch_bend_c, 3, 14461
5, 38788, Pitch_bend_c, 3, 14502
5, 38790, Pitch_bend_c, 3, 14543
5, 38792, Pitch_bend_c, 3, 14584
5, 38794, Pitch_bend_c, 3, 14625
5, 38796, Pitch_bend_c, 3, 14665
5, 38798, Pitch_bend_c, 3, 14706
5, 38800, Pitch_bend_c, 3, 14747
5, 38802, Pitch_bend_c, 3, 14788
5, 38804, Pitch_bend_c, 3, 14829
5, 38806, Pitch_bend_c, 3, 14870
5, 38808, Pitch_bend_c, 3, 14911
5, 38810, Pitch_bend_c, 3, 14952
5, 38812, Pitch_bend_c, 3, 14993
5, 38814, Pitch_bend_c, 3, 15034
5, 38816, Pitch_bend_c, 3, 15074
5, 38818, Pitch_bend_c, 3, 15115
5, 38820, Pitch_bend_c, 3, 15156
5, 38822, Pitch_bend_c, 3, 15197
5, 38824, Pitch_bend_c, 3, 15238
5, 38826, Pitch_bend_c, 3, 15279
5, 38828, Pitch_bend_c, 3, 15320
5, 38830, Pitch_bend_c, 3, 15361
5, 38832, Pitch_bend_c, 3, 15402
5, 38834, Pitch_bend_c, 3, 15443
5, 38836, Pitch_bend_c, 3, 15484
5, 38838, Pitch_bend_c, 3, 15524
5, 38840, Pitch_bend_c, 3, 15565
5, 38842, Pitch_bend_c, 3, 15606
5, 38844, Pitch_bend_c, 3, 15647
5, 38846, Pitch_bend_c, 3, 15688
5, 38848, Pitch_bend_c, 3, 15729
5, 38850, Pitch_bend_c, 3, 15770
5, 38852, Pitch_bend_c, 3, 15811
5, 38854, Pitch_bend_c, 3, 15852
5, 38856, Pitch_bend_c, 3, 15893
5, 38858, Pitch_bend_c, 3, 15934
5, 38860, Pitch_bend_c, 3, 15974
5, 38862, Pitch_bend_c, 3, 16015
5, 38864, Pitch_bend_c, 3, 16056
5, 38866, Pitch_bend_c, 3, 16097
5, 38868, Pitch_bend_c, 3, 16138
5, 38870, Pitch_bend_c, 3, 16179
5, 38872, Pitch_bend_c, 3, 16220
5, 38874, Pitch_bend_c, 3, 16261
5, 38876, Pitch_bend_c, 3, 16302
5, 38878, Pitch_bend_c, 3, 16343
5, 38879, Pitch_bend_c, 3, 8192
5, 38880, Note_on_c, 3, 36, 0
5, 38881, Note_on_c, 3, 38, 127
5, 38943, Note_on_c, 3, 38, 0
5, 39240, Note_on_c, 3, 38, 127
5, 39302, Note_on_c, 3, 38, 0
5, 39480, Note_on_c, 3, 48, 107
5, 39538, Note_on_c, 3, 48, 0
5, 39600, Note_on_c, 3, 46, 127
5, 39613, Pitch_bend_c, 3, 8704
5, 39616, Pitch_bend_c, 3, 9856
5, 39620, Pitch_bend_c, 3, 11136
5, 39627, Pitch_bend_c, 3, 12928
5, 39630, Pitch_bend_c, 3, 14208
5, 39634, Pitch_bend_c, 3, 15616
5, 39639, Pitch_bend_c, 3, 16383
5, 39692, Pitch_bend_c, 3, 15744
5, 39695, Pitch_bend_c, 3, 11776
5, 39701, Pitch_bend_c, 3, 8192
5, 39704, Note_on_c, 3, 46, 0
5, 39720, Note_on_c, 3, 45, 111
5, 39778, Note_on_c, 3, 45, 0
5, 39840, Note_on_c, 3, 38, 127
5, 39866, Note_on_c, 3, 38, 0
5, 39880, Note_on_c, 3, 38, 119
5, 39917, Note_on_c, 3, 38, 0
5, 40200, Note_on_c, 3, 38, 123
5, 40224, Note_on_c, 3, 38, 0
5, 40240, Note_on_c, 3, 38, 119
5, 40272, Note_on_c, 3, 38, 0
5, 40710, Note_on_c, 3, 36, 77
5, 40726, Note_on_c, 3, 36, 0
5, 40740, Note_on_c, 3, 35, 99
5, 40740, Note_on_c, 3, 36, 99
5, 40756, Note_on_c, 3, 35, 0
5, 40761, Note_on_c, 3, 36, 0
5, 40800, Note_on_c, 3, 38, 127
5, 40833, Note_on_c, 3, 38, 0
5, 40840, Note_on_c, 3, 38, 127
5, 40884, Note_on_c, 3, 38, 0
5, 41160, Note_on_c, 3, 38, 123
5, 41185, Note_on_c, 3, 38, 0
5, 41200, Note_on_c, 3, 38, 127
5, 41241, Note_on_c, 3, 38, 0
5, 41670, Note_on_c, 3, 35, 103
5, 41670, Note_on_c, 3, 36, 93
5, 41691, Note_on_c, 3, 36, 0
5, 41691, Note_on_c, 3, 35, 0
5, 41700, Note_on_c, 3, 35, 123
5, 41700, Note_on_c, 3, 36, 99
5, 41716, Note_on_c, 3, 36, 0
5, 41721, Note_on_c, 3, 35, 0
5, 41760, Note_on_c, 3, 38, 127
5, 41791, Note_on_c, 3, 38, 0
5, 41800, Note_on_c, 3, 38, 123
5, 41843, Note_on_c, 3, 38, 0
5, 42120, Note_on_c, 3, 38, 115
5, 42148, Note_on_c, 3, 38, 0
5, 42160, Note_on_c, 3, 38, 127
5, 42202, Note_on_c, 3, 38, 0
5, 42630, Note_on_c, 3, 35, 99
5, 42630, Note_on_c, 3, 36, 91
5, 42653, Note_on_c, 3, 36, 0
5, 42653, Note_on_c, 3, 35, 0
5, 42660, Note_on_c, 3, 35, 103
5, 42660, Note_on_c, 3, 36, 123
5, 42674, Note_on_c, 3, 35, 0
5, 42681, Note_on_c, 3, 36, 0
5, 42720, Note_on_c, 3, 38, 127
5, 42754, Note_on_c, 3, 38, 0
5, 42760, Note_on_c, 3, 38, 119
5, 42804, Note_on_c, 3, 38, 0
5, 43080, Note_on_c, 3, 38, 123
5, 43108, Note_on_c, 3, 38, 0
5, 43120, Note_on_c, 3, 38, 127
5, 43160, Note_on_c, 3, 38, 0
5, 43590, Note_on_c, 3, 35, 95
5, 43590, Note_on_c, 3, 36, 79
5, 43608, Note_on_c, 3, 36, 0
5, 43608, Note_on_c, 3, 35, 0
5, 43620, Note_on_c, 3, 36, 127
5, 43620, Note_on_c, 3, 35, 107
5, 43640, Note_on_c, 3, 35, 0
5, 43646, Note_on_c, 3, 36, 0
5, 43680, Note_on_c, 3, 38, 127
5, 43714, Note_on_c, 3, 38, 0
5, 43720, Note_on_c, 3, 38, 119
5, 43764, Note_on_c, 3, 38, 0
5, 44040, Note_on_c, 3, 38, 123
5, 44068, Note_on_c, 3, 38, 0
5, 44080, Note_on_c, 3, 38, 127
5, 44120, Note_on_c, 3, 38, 0
5, 44550, Note_on_c, 3, 35, 95
5, 44550, Note_on_c, 3, 36, 79
5, 44568, Note_on_c, 3, 36, 0
5, 44568, Note_on_c, 3, 35, 0
5, 44580, Note_on_c, 3, 36, 127
5, 44580, Note_on_c, 3, 35, 107
5, 44600, Note_on_c, 3, 35, 0
5, 44606, Note_on_c, 3, 36, 0
5, 44640, Note_on_c, 3, 38, 127
5, 44674, Note_on_c, 3, 38, 0
5, 44680, Note_on_c, 3, 38, 119
5, 44724, Note_on_c, 3, 38, 0
5, 45000, Note_on_c, 3, 38, 123
5, 45028, Note_on_c, 3, 38, 0
5, 45040, Note_on_c, 3, 38, 127
5, 45080, Note_on_c, 3, 38, 0
5, 45510, Note_on_c, 3, 35, 95
5, 45510, Note_on_c, 3, 36, 79
5, 45528, Note_on_c, 3, 36, 0
5, 45528, Note_on_c, 3, 35, 0
5, 45540, Note_on_c, 3, 36, 127
5, 45540, Note_on_c, 3, 35, 107
5, 45560, Note_on_c, 3, 35, 0
5, 45566, Note_on_c, 3, 36, 0
5, 45600, Note_on_c, 3, 38, 127
5, 45634, Note_on_c, 3, 38, 0
5, 45640, Note_on_c, 3, 38, 119
5, 45684, Note_on_c, 3, 38, 0
5, 45960, Note_on_c, 3, 38, 123
5, 45988, Note_on_c, 3, 38, 0
5, 46000, Note_on_c, 3, 38, 127
5, 46040, Note_on_c, 3, 38, 0
5, 46560, Note_on_c, 3, 38, 111
5, 46595, Note_on_c, 3, 38, 0
5, 46600, Note_on_c, 3, 38, 115
5, 46637, Note_on_c, 3, 38, 0
5, 46800, Note_on_c, 3, 38, 127
5, 46829, Note_on_c, 3, 38, 0
5, 47000, Note_on_c, 3, 38, 115
5, 47028, Note_on_c, 3, 38, 0
5, 47040, Note_on_c, 3, 38, 127
5, 47068, Note_on_c, 3, 38, 0
5, 47400, Note_on_c, 3, 38, 127
5, 47428, Note_on_c, 3, 38, 0
5, 47440, Note_on_c, 3, 38, 127
5, 47477, Note_on_c, 3, 38, 0
5, 47960, Note_on_c, 3, 38, 115
5, 47988, Note_on_c, 3, 38, 0
5, 48000, Note_on_c, 3, 38, 127
5, 48028, Note_on_c, 3, 38, 0
5, 48360, Note_on_c, 3, 38, 127
5, 48388, Note_on_c, 3, 38, 0
5, 48400, Note_on_c, 3, 38, 127
5, 48437, Note_on_c, 3, 38, 0
5, 48720, Note_on_c, 3, 38, 127
5, 48757, Note_on_c, 3, 38, 0
5, 49350, Note_on_c, 3, 35, 95
5, 49350, Note_on_c, 3, 36, 79
5, 49368, Note_on_c, 3, 36, 0
5, 49368, Note_on_c, 3, 35, 0
5, 49380, Note_on_c, 3, 36, 127
5, 49380, Note_on_c, 3, 35, 107
5, 49400, Note_on_c, 3, 35, 0
5, 49406, Note_on_c, 3, 36, 0
5, 49440, Note_on_c, 3, 38, 127
5, 49474, Note_on_c, 3, 38, 0
5, 49480, Note_on_c, 3, 38, 119
5, 49524, Note_on_c, 3, 38, 0
5, 49800, Note_on_c, 3, 38, 123
5, 49828, Note_on_c, 3, 38, 0
5, 49840, Note_on_c, 3, 38, 127
5, 49880, Note_on_c, 3, 38, 0
5, 50220, Note_on_c, 3, 45, 111
5, 50269, Note_on_c, 3, 45, 0
5, 50280, Note_on_c, 3, 48, 127
5, 50321, Note_on_c, 3, 48, 0
5, 50340, Note_on_c, 3, 45, 127
5, 50373, Note_on_c, 3, 45, 0
5, 50400, Note_on_c, 3, 38, 127
5, 50434, Note_on_c, 3, 38, 0
5, 50440, Note_on_c, 3, 38, 119
5, 50484, Note_on_c, 3, 38, 0
5, 50760, Note_on_c, 3, 38, 123
5, 50788, Note_on_c, 3, 38, 0
5, 50800, Note_on_c, 3, 38, 127
5, 50840, Note_on_c, 3, 38, 0
5, 51270, Note_on_c, 3, 35, 95
5, 51270, Note_on_c, 3, 36, 79
5, 51288, Note_on_c, 3, 36, 0
5, 51288, Note_on_c, 3, 35, 0
5, 51300, Note_on_c, 3, 36, 127
5, 51300, Note_on_c, 3, 35, 107
5, 51320, Note_on_c, 3, 35, 0
5, 51326, Note_on_c, 3, 36, 0
5, 51360, Note_on_c, 3, 38, 127
5, 51394, Note_on_c, 3, 38, 0
5, 51400, Note_on_c, 3, 38, 119
5, 51444, Note_on_c, 3, 38, 0
5, 51720, Note_on_c, 3, 38, 123
5, 51748, Note_on_c, 3, 38, 0
5, 51760, Note_on_c, 3, 38, 127
5, 51800, Note_on_c, 3, 38, 0
5, 52230, Note_on_c, 3, 35, 95
5, 52230, Note_on_c, 3, 36, 79
5, 52248, Note_on_c, 3, 36, 0
5, 52248, Note_on_c, 3, 35, 0
5, 52260, Note_on_c, 3, 36, 127
5, 52260, Note_on_c, 3, 35, 107
5, 52280, Note_on_c, 3, 35, 0
5, 52286, Note_on_c, 3, 36, 0
5, 52320, Note_on_c, 3, 38, 127
5, 52354, Note_on_c, 3, 38, 0
5, 52360, Note_on_c, 3, 38, 119
5, 52404, Note_on_c, 3, 38, 0
5, 52680, Note_on_c, 3, 38, 123
5, 52708, Note_on_c, 3, 38, 0
5, 52720, Note_on_c, 3, 38, 127
5, 52760, Note_on_c, 3, 38, 0
5, 53190, Note_on_c, 3, 35, 95
5, 53190, Note_on_c, 3, 36, 79
5, 53208, Note_on_c, 3, 36, 0
5, 53208, Note_on_c, 3, 35, 0
5, 53220, Note_on_c, 3, 36, 127
5, 53220, Note_on_c, 3, 35, 107
5, 53240, Note_on_c, 3, 35, 0
5, 53246, Note_on_c, 3, 36, 0
5, 53280, Note_on_c, 3, 38, 127
5, 53314, Note_on_c, 3, 38, 0
5, 53320, Note_on_c, 3, 38, 119
5, 53364, Note_on_c, 3, 38, 0
5, 53640, Note_on_c, 3, 38, 123
5, 53668, Note_on_c, 3, 38, 0
5, 53680, Note_on_c, 3, 38, 127
5, 53720, Note_on_c, 3, 38, 0
5, 54240, Note_on_c, 3, 38, 127
5, 54324, Note_on_c, 3, 38, 0
5, 54600, Note_on_c, 3, 38, 123
5, 54688, Note_on_c, 3, 38, 0
5, 55200, Note_on_c, 3, 38, 127
5, 55284, Note_on_c, 3, 38, 0
5, 55560, Note_on_c, 3, 38, 123
5, 55648, Note_on_c, 3, 38, 0
5, 55920, Note_on_c, 3, 50, 123
5, 55978, Note_on_c, 3, 50, 0
5, 55980, Note_on_c, 3, 50, 127
5, 56037, Note_on_c, 3, 50, 0
5, 56040, Note_on_c, 3, 45, 127
5, 56103, Note_on_c, 3, 45, 0
5, 56160, Note_on_c, 3, 38, 127
5, 56246, Note_on_c, 3, 38, 0
5, 56520, Note_on_c, 3, 38, 119
5, 56582, Note_on_c, 3, 38, 0
5, 56940, Note_on_c, 3, 45, 119
5, 56989, Note_on_c, 3, 45, 0
5, 57000, Note_on_c, 3, 50, 127
5, 57042, Note_on_c, 3, 50, 0
5, 57060, Note_on_c, 3, 45, 117
5, 57100, Note_on_c, 3, 45, 0
5, 57120, Note_on_c, 3, 38, 127
5, 57170, Note_on_c, 3, 38, 0
5, 57480, Note_on_c, 3, 38, 127
5, 57529, Note_on_c, 3, 38, 0
5, 57720, Note_on_c, 3, 45, 127
5, 57720, Note_on_c, 3, 38, 127
5, 57730, Pitch_bend_c, 3, 8192
5, 57731, Pitch_bend_c, 3, 8228
5, 57732, Pitch_bend_c, 3, 8264
5, 57733, Pitch_bend_c, 3, 8300
5, 57734, Pitch_bend_c, 3, 8336
5, 57735, Pitch_bend_c, 3, 8371
5, 57736, Pitch_bend_c, 3, 8407
5, 57737, Pitch_bend_c, 3, 8443
5, 57738, Pitch_bend_c, 3, 8479
5, 57739, Pitch_bend_c, 3, 8514
5, 57740, Pitch_bend_c, 3, 8550
5, 57741, Pitch_bend_c, 3, 8586
5, 57742, Pitch_bend_c, 3, 8622
5, 57743, Pitch_bend_c, 3, 8657
5, 57744, Pitch_bend_c, 3, 8693
5, 57745, Pitch_bend_c, 3, 8729
5, 57746, Pitch_bend_c, 3, 8765
5, 57747, Pitch_bend_c, 3, 8801
5, 57748, Pitch_bend_c, 3, 8836
5, 57749, Pitch_bend_c, 3, 8872
5, 57750, Pitch_bend_c, 3, 8908
5, 57751, Pitch_bend_c, 3, 8944
5, 57752, Pitch_bend_c, 3, 8979
5, 57753, Pitch_bend_c, 3, 9015
5, 57754, Pitch_bend_c, 3, 9051
5, 57755, Pitch_bend_c, 3, 9087
5, 57756, Pitch_bend_c, 3, 9122
5, 57757, Pitch_bend_c, 3, 9158
5, 57758, Pitch_bend_c, 3, 9194
5, 57759, Pitch_bend_c, 3, 9230
5, 57760, Pitch_bend_c, 3, 9266
5, 57761, Pitch_bend_c, 3, 9301
5, 57762, Pitch_bend_c, 3, 9337
5, 57763, Pitch_bend_c, 3, 9373
5, 57764, Pitch_bend_c, 3, 9409
5, 57765, Pitch_bend_c, 3, 9444
5, 57766, Pitch_bend_c, 3, 9480
5, 57767, Pitch_bend_c, 3, 9516
5, 57768, Pitch_bend_c, 3, 9552
5, 57769, Pitch_bend_c, 3, 9587
5, 57770, Pitch_bend_c, 3, 9623
5, 57771, Pitch_bend_c, 3, 9659
5, 57772, Pitch_bend_c, 3, 9695
5, 57773, Pitch_bend_c, 3, 9731
5, 57774, Pitch_bend_c, 3, 9766
5, 57775, Pitch_bend_c, 3, 9802
5, 57776, Pitch_bend_c, 3, 9838
5, 57777, Pitch_bend_c, 3, 9874
5, 57778, Pitch_bend_c, 3, 9909
5, 57779, Pitch_bend_c, 3, 9945
5, 57780, Pitch_bend_c, 3, 9981
5, 57781, Pitch_bend_c, 3, 10017
5, 57782, Pitch_bend_c, 3, 10052
5, 57783, Pitch_bend_c, 3, 10088
5, 57784, Pitch_bend_c, 3, 10124
5, 57785, Pitch_bend_c, 3, 10160
5, 57786, Pitch_bend_c, 3, 10196
5, 57787, Pitch_bend_c, 3, 10231
5, 57788, Pitch_bend_c, 3, 10267
5, 57789, Pitch_bend_c, 3, 10303
5, 57790, Pitch_bend_c, 3, 10339
5, 57791, Pitch_bend_c, 3, 10374
5, 57792, Pitch_bend_c, 3, 10410
5, 57793, Pitch_bend_c, 3, 10446
5, 57794, Pitch_bend_c, 3, 10482
5, 57795, Pitch_bend_c, 3, 10517
5, 57796, Pitch_bend_c, 3, 10553
5, 57797, Pitch_bend_c, 3, 10589
5, 57798, Pitch_bend_c, 3, 10625
5, 57799, Pitch_bend_c, 3, 10661
5, 57800, Pitch_bend_c, 3, 10696
5, 57801, Pitch_bend_c, 3, 10732
5, 57802, Pitch_bend_c, 3, 10768
5, 57803, Pitch_bend_c, 3, 10804
5, 57804, Pitch_bend_c, 3, 10839
5, 57805, Pitch_bend_c, 3, 10875
5, 57806, Pitch_bend_c, 3, 10911
5, 57807, Pitch_bend_c, 3, 10947
5, 57808, Pitch_bend_c, 3, 10982
5, 57809, Pitch_bend_c, 3, 11018
5, 57810, Pitch_bend_c, 3, 11054
5, 57811, Pitch_bend_c, 3, 11090
5, 57812, Pitch_bend_c, 3, 11126
5, 57813, Pitch_bend_c, 3, 11161
5, 57814, Pitch_bend_c, 3, 11197
5, 57815, Pitch_bend_c, 3, 11233
5, 57816, Pitch_bend_c, 3, 11269
5, 57817, Pitch_bend_c, 3, 11304
5, 57818, Pitch_bend_c, 3, 11340
5, 57819, Pitch_bend_c, 3, 11376
5, 57820, Pitch_bend_c, 3, 11412
5, 57821, Pitch_bend_c, 3, 11447
5, 57822, Pitch_bend_c, 3, 11483
5, 57823, Pitch_bend_c, 3, 11519
5, 57824, Pitch_bend_c, 3, 11555
5, 57825, Pitch_bend_c, 3, 11591
5, 57826, Pitch_bend_c, 3, 11626
5, 57827, Pitch_bend_c, 3, 11662
5, 57828, Pitch_bend_c, 3, 11698
5, 57829, Pitch_bend_c, 3, 11734
5, 57830, Pitch_bend_c, 3, 11769
5, 57831, Pitch_bend_c, 3, 11805
5, 57832, Pitch_bend_c, 3, 11841
5, 57833, Pitch_bend_c, 3, 11877
5, 57834, Pitch_bend_c, 3, 11912
5, 57835, Pitch_bend_c, 3, 11948
5, 57836, Pitch_bend_c, 3, 11984
5, 57837, Pitch_bend_c, 3, 12020
5, 57838, Pitch_bend_c, 3, 12056
5, 57839, Pitch_bend_c, 3, 12091
5, 57840, Pitch_bend_c, 3, 12127
5, 57841, Pitch_bend_c, 3, 12163
5, 57842, Pitch_bend_c, 3, 12199
5, 57843, Pitch_bend_c, 3, 12234
5, 57844, Pitch_bend_c, 3, 12270
5, 57845, Pitch_bend_c, 3, 12306
5, 57846, Pitch_bend_c, 3, 12342
5, 57847, Pitch_bend_c, 3, 12377
5, 57848, Pitch_bend_c, 3, 12413
5, 57849, Pitch_bend_c, 3, 12449
5, 57850, Pitch_bend_c, 3, 12485
5, 57851, Pitch_bend_c, 3, 12520
5, 57852, Pitch_bend_c, 3, 12556
5, 57853, Pitch_bend_c, 3, 12592
5, 57854, Pitch_bend_c, 3, 12628
5, 57855, Pitch_bend_c, 3, 12664
5, 57856, Pitch_bend_c, 3, 12699
5, 57857, Pitch_bend_c, 3, 12735
5, 57858, Pitch_bend_c, 3, 12771
5, 57859, Pitch_bend_c, 3, 12807
5, 57860, Pitch_bend_c, 3, 12842
5, 57861, Pitch_bend_c, 3, 12878
5, 57862, Pitch_bend_c, 3, 12914
5, 57863, Pitch_bend_c, 3, 12950
5, 57864, Pitch_bend_c, 3, 12985
5, 57865, Pitch_bend_c, 3, 13021
5, 57866, Pitch_bend_c, 3, 13057
5, 57867, Pitch_bend_c, 3, 13093
5, 57868, Pitch_bend_c, 3, 13129
5, 57869, Pitch_bend_c, 3, 13164
5, 57870, Pitch_bend_c, 3, 13200
5, 57871, Pitch_bend_c, 3, 13236
5, 57872, Pitch_bend_c, 3, 13272
5, 57873, Pitch_bend_c, 3, 13307
5, 57874, Pitch_bend_c, 3, 13343
5, 57875, Pitch_bend_c, 3, 13379
5, 57876, Pitch_bend_c, 3, 13415
5, 57877, Pitch_bend_c, 3, 13450
5, 57878, Pitch_bend_c, 3, 13486
5, 57879, Pitch_bend_c, 3, 13522
5, 57880, Pitch_bend_c, 3, 13558
5, 57881, Pitch_bend_c, 3, 13594
5, 57882, Pitch_bend_c, 3, 13629
5, 57883, Pitch_bend_c, 3, 13665
5, 57884, Pitch_bend_c, 3, 13701
5, 57885, Pitch_bend_c, 3, 13737
5, 57886, Pitch_bend_c, 3, 13772
5, 57887, Pitch_bend_c, 3, 13808
5, 57888, Pitch_bend_c, 3, 13844
5, 57889, Pitch_bend_c, 3, 13880
5, 57890, Pitch_bend_c, 3, 13915
5, 57891, Pitch_bend_c, 3, 13951
5, 57892, Pitch_bend_c, 3, 13987
5, 57893, Pitch_bend_c, 3, 14023
5, 57894, Pitch_bend_c, 3, 14059
5, 57895, Pitch_bend_c, 3, 14094
5, 57896, Pitch_bend_c, 3, 14130
5, 57897, Pitch_bend_c, 3, 14166
5, 57898, Pitch_bend_c, 3, 14202
5, 57899, Pitch_bend_c, 3, 14237
5, 57900, Pitch_bend_c, 3, 14273
5, 57901, Pitch_bend_c, 3, 14309
5, 57902, Pitch_bend_c, 3, 14345
5, 57903, Pitch_bend_c, 3, 14380
5, 57904, Pitch_bend_c, 3, 14416
5, 57905, Pitch_bend_c, 3, 14452
5, 57906, Pitch_bend_c, 3, 14488
5, 57907, Pitch_bend_c, 3, 14524
5, 57908, Pitch_bend_c, 3, 14559
5, 57909, Pitch_bend_c, 3, 14595
5, 57910, Pitch_bend_c, 3, 14631
5, 57911, Pitch_bend_c, 3, 14667
5, 57912, Pitch_bend_c, 3, 14702
5, 57913, Pitch_bend_c, 3, 14738
5, 57914, Pitch_bend_c, 3, 14774
5, 57915, Pitch_bend_c, 3, 14810
5, 57916, Pitch_bend_c, 3, 14845
5, 57917, Pitch_bend_c, 3, 14881
5, 57918, Pitch_bend_c, 3, 14917
5, 57919, Pitch_bend_c, 3, 14953
5, 57920, Pitch_bend_c, 3, 14989
5, 57921, Pitch_bend_c, 3, 15024
5, 57922, Pitch_bend_c, 3, 15060
5, 57923, Pitch_bend_c, 3, 15096
5, 57924, Pitch_bend_c, 3, 15132
5, 57925, Pitch_bend_c, 3, 15167
5, 57926, Pitch_bend_c, 3, 15203
5, 57927, Pitch_bend_c, 3, 15239
5, 57928, Pitch_bend_c, 3, 15275
5, 57929, Pitch_bend_c, 3, 15310
5, 57930, Pitch_bend_c, 3, 15346
5, 57931, Pitch_bend_c, 3, 15382
5, 57932, Pitch_bend_c, 3, 15418
5, 57933, Pitch_bend_c, 3, 15454
5, 57934, Pitch_bend_c, 3, 15489
5, 57935, Pitch_bend_c, 3, 15525
5, 57936, Pitch_bend_c, 3, 15561
5, 57937, Pitch_bend_c, 3, 15597
5, 57938, Pitch_bend_c, 3, 15632
5, 57939, Pitch_bend_c, 3, 15668
5, 57940, Pitch_bend_c, 3, 15704
5, 57941, Pitch_bend_c, 3, 15740
5, 57942, Pitch_bend_c, 3, 15775
5, 57943, Pitch_bend_c, 3, 15811
5, 57944, Pitch_bend_c, 3, 15847
5, 57945, Pitch_bend_c, 3, 15883
5, 57946, Pitch_bend_c, 3, 15919
5, 57947, Pitch_bend_c, 3, 15954
5, 57948, Pitch_bend_c, 3, 15990
5, 57949, Pitch_bend_c, 3, 16026
5, 57950, Pitch_bend_c, 3, 16062
5, 57951, Pitch_bend_c, 3, 16097
5, 57952, Pitch_bend_c, 3, 16133
5, 57953, Note_on_c, 3, 38, 0
5, 57953, Pitch_bend_c, 3, 16169
5, 57954, Pitch_bend_c, 3, 16205
5, 57955, Note_on_c, 3, 45, 0
5, 57955, Pitch_bend_c, 3, 16240
5, 57956, Pitch_bend_c, 3, 16276
5, 57957, Pitch_bend_c, 3, 16312
5, 57958, Pitch_bend_c, 3, 16383
5, 57959, Pitch_bend_c, 3, 8192
5, 57960, Note_on_c, 3, 29, 115
5, 58034, Note_on_c, 3, 29, 0
5, 58080, Note_on_c, 3, 30, 127
5, 58177, Note_on_c, 3, 30, 0
5, 58440, Note_on_c, 3, 30, 127
5, 58498, Note_on_c, 3, 30, 0
5, 59040, Note_on_c, 3, 30, 127
5, 59089, Note_on_c, 3, 30, 0
5, 59400, Note_on_c, 3, 30, 127
5, 59453, Note_on_c, 3, 30, 0
5, 60000, Note_on_c, 3, 30, 127
5, 60053, Note_on_c, 3, 30, 0
5, 60360, Note_on_c, 3, 30, 127
5, 60409, Note_on_c, 3, 30, 0
5, 60960, Note_on_c, 3, 30, 127
5, 60994, Note_on_c, 3, 30, 0
5, 61320, Note_on_c, 3, 30, 127
5, 61375, Note_on_c, 3, 30, 0
5, 61680, Note_on_c, 3, 43, 111
5, 61796, Note_on_c, 3, 43, 0
5, 61800, Note_on_c, 3, 45, 123
5, 61920, Note_on_c, 3, 46, 127
5, 61937, Note_on_c, 3, 45, 0
5, 62025, Note_on_c, 3, 46, 0
5, 62280, Note_on_c, 3, 34, 127
5, 62366, Note_on_c, 3, 34, 0
5, 62880, Note_on_c, 3, 34, 127
5, 62958, Note_on_c, 3, 34, 0
5, 63240, Note_on_c, 3, 34, 127
5, 63322, Note_on_c, 3, 34, 0
5, 63840, Note_on_c, 3, 34, 127
5, 63924, Note_on_c, 3, 34, 0
5, 64200, Note_on_c, 3, 34, 127
5, 64276, Note_on_c, 3, 34, 0
5, 64800, Note_on_c, 3, 34, 127
5, 64883, Note_on_c, 3, 34, 0
5, 65160, Note_on_c, 3, 34, 127
5, 65243, Note_on_c, 3, 34, 0
5, 65400, Note_on_c, 3, 46, 127
5, 65484, Note_on_c, 3, 46, 0
5, 65520, Note_on_c, 3, 45, 127
5, 65601, Note_on_c, 3, 45, 0
5, 65640, Note_on_c, 3, 44, 117
5, 65760, Note_on_c, 3, 43, 127
5, 65762, Note_on_c, 3, 44, 0
5, 65842, Note_on_c, 3, 43, 0
5, 66120, Note_on_c, 3, 43, 123
5, 66214, Note_on_c, 3, 43, 0
5, 66360, Note_on_c, 3, 31, 127
5, 66401, Note_on_c, 3, 31, 0
5, 66420, Note_on_c, 3, 28, 103
5, 66464, Note_on_c, 3, 28, 0
5, 66480, Note_on_c, 3, 34, 127
5, 66563, Note_on_c, 3, 34, 0
5, 66600, Note_on_c, 3, 33, 127
5, 66677, Note_on_c, 3, 33, 0
5, 66720, Note_on_c, 3, 31, 127
5, 66802, Note_on_c, 3, 31, 0
5, 67080, Note_on_c, 3, 31, 127
5, 67133, Note_on_c, 3, 31, 0
5, 67600, Note_on_c, 3, 28, 85
5, 67633, Note_on_c, 3, 28, 0
5, 67640, Note_on_c, 3, 29, 91
5, 67670, Note_on_c, 3, 29, 0
5, 67680, Note_on_c, 3, 31, 127
5, 67760, Note_on_c, 3, 31, 0
5, 68040, Note_on_c, 3, 31, 127
5, 68120, Note_on_c, 3, 31, 0
5, 68640, Note_on_c, 3, 31, 127
5, 68714, Note_on_c, 3, 31, 0
5, 69000, Note_on_c, 3, 31, 127
5, 69065, Note_on_c, 3, 31, 0
5, 69280, Note_on_c, 3, 33, 127
5, 69376, Note_on_c, 3, 33, 0
5, 69440, Note_on_c, 3, 31, 127
5, 69506, Note_on_c, 3, 31, 0
5, 69600, Note_on_c, 3, 34, 127
5, 69685, Note_on_c, 3, 34, 0
5, 69960, Note_on_c, 3, 34, 127
5, 70038, Note_on_c, 3, 34, 0
5, 70200, Note_on_c, 3, 34, 127
5, 70201, Note_on_c, 3, 34, 0
5, 70260, Note_on_c, 3, 34, 127
5, 70261, Note_on_c, 3, 34, 0
5, 70320, Note_on_c, 3, 46, 127
5, 70432, Note_on_c, 3, 46, 0
5, 70440, Note_on_c, 3, 41, 127
5, 70493, Note_on_c, 3, 41, 0
5, 70560, Note_on_c, 3, 34, 127
5, 70610, Note_on_c, 3, 34, 0
5, 70920, Note_on_c, 3, 34, 127
5, 70954, Note_on_c, 3, 34, 0
5, 70980, Note_on_c, 3, 34, 107
5, 71017, Note_on_c, 3, 34, 0
5, 71440, Note_on_c, 3, 31, 87
5, 71480, Note_on_c, 3, 33, 95
5, 71485, Note_on_c, 3, 31, 0
5, 71504, Note_on_c, 3, 33, 0
5, 71520, Note_on_c, 3, 34, 127
5, 71574, Note_on_c, 3, 34, 0
5, 71880, Note_on_c, 3, 34, 127
5, 71910, Note_on_c, 3, 34, 0
5, 71940, Note_on_c, 3, 34, 107
5, 71977, Note_on_c, 3, 34, 0
5, 72400, Note_on_c, 3, 31, 87
5, 72440, Note_on_c, 3, 33, 95
5, 72445, Note_on_c, 3, 31, 0
5, 72464, Note_on_c, 3, 33, 0
5, 72480, Note_on_c, 3, 34, 127
5, 72534, Note_on_c, 3, 34, 0
5, 72840, Note_on_c, 3, 34, 127
5, 72870, Note_on_c, 3, 34, 0
5, 72900, Note_on_c, 3, 34, 107
5, 72937, Note_on_c, 3, 34, 0
5, 73200, Note_on_c, 3, 46, 127
5, 73307, Note_on_c, 3, 46, 0
5, 73320, Note_on_c, 3, 45, 127
5, 73418, Note_on_c, 3, 45, 0
5, 73440, Note_on_c, 3, 43, 127
5, 73499, Note_on_c, 3, 43, 0
5, 73800, Note_on_c, 3, 43, 127
5, 73829, Note_on_c, 3, 43, 0
5, 73860, Note_on_c, 3, 43, 107
5, 73901, Note_on_c, 3, 43, 0
5, 74160, Note_on_c, 3, 38, 123
5, 74195, Pitch_bend_c, 3, 8448
5, 74199, Pitch_bend_c, 3, 9216
5, 74202, Pitch_bend_c, 3, 9984
5, 74208, Pitch_bend_c, 3, 10752
5, 74211, Pitch_bend_c, 3, 11520
5, 74215, Pitch_bend_c, 3, 12288
5, 74220, Pitch_bend_c, 3, 12928
5, 74224, Pitch_bend_c, 3, 13440
5, 74227, Pitch_bend_c, 3, 14080
5, 74231, Pitch_bend_c, 3, 14464
5, 74236, Pitch_bend_c, 3, 14848
5, 74240, Pitch_bend_c, 3, 15104
5, 74259, Pitch_bend_c, 3, 14592
5, 74266, Pitch_bend_c, 3, 13952
5, 74270, Pitch_bend_c, 3, 13312
5, 74275, Pitch_bend_c, 3, 12544
5, 74279, Pitch_bend_c, 3, 11776
5, 74284, Pitch_bend_c, 3, 11008
5, 74288, Pitch_bend_c, 3, 9984
5, 74291, Pitch_bend_c, 3, 9216
5, 74296, Pitch_bend_c, 3, 8320
5, 74300, Pitch_bend_c, 3, 8192
5, 74386, Note_on_c, 3, 38, 0
5, 74400, Note_on_c, 3, 31, 127
5, 74516, Note_on_c, 3, 31, 0
5, 74760, Note_on_c, 3, 31, 127
5, 74876, Note_on_c, 3, 31, 0
5, 75280, Note_on_c, 3, 28, 85
5, 75319, Note_on_c, 3, 28, 0
5, 75320, Note_on_c, 3, 29, 97
5, 75360, Note_on_c, 3, 31, 115
5, 75363, Note_on_c, 3, 29, 0
5, 75460, Note_on_c, 3, 31, 0
5, 75720, Note_on_c, 3, 31, 123
5, 75773, Note_on_c, 3, 31, 0
5, 76240, Note_on_c, 3, 28, 79
5, 76280, Note_on_c, 3, 29, 83
5, 76315, Note_on_c, 3, 28, 0
5, 76320, Note_on_c, 3, 31, 127
5, 76332, Note_on_c, 3, 29, 0
5, 76382, Note_on_c, 3, 31, 0
5, 76680, Note_on_c, 3, 31, 127
5, 76754, Note_on_c, 3, 31, 0
5, 77200, Note_on_c, 3, 31, 79
5, 77240, Note_on_c, 3, 33, 89
5, 77244, Note_on_c, 3, 31, 0
5, 77280, Note_on_c, 3, 34, 127
5, 77284, Note_on_c, 3, 33, 0
5, 77383, Note_on_c, 3, 34, 0
5, 77640, Note_on_c, 3, 34, 127
5, 77712, Note_on_c, 3, 34, 0
5, 78000, Note_on_c, 3, 46, 127
5, 78027, Note_on_c, 3, 46, 0
5, 78060, Note_on_c, 3, 46, 127
5, 78102, Note_on_c, 3, 46, 0
5, 78240, Note_on_c, 3, 34, 127
5, 78343, Note_on_c, 3, 34, 0
5, 78600, Note_on_c, 3, 34, 127
5, 78672, Note_on_c, 3, 34, 0
5, 78840, Note_on_c, 3, 34, 127
5, 78841, Note_on_c, 3, 34, 0
5, 78900, Note_on_c, 3, 34, 127
5, 78901, Note_on_c, 3, 34, 0
5, 78960, Note_on_c, 3, 46, 127
5, 78987, Note_on_c, 3, 46, 0
5, 79020, Note_on_c, 3, 46, 127
5, 79062, Note_on_c, 3, 46, 0
5, 79080, Note_on_c, 3, 41, 127
5, 79122, Note_on_c, 3, 41, 0
5, 79200, Note_on_c, 3, 34, 127
5, 79254, Note_on_c, 3, 34, 0
5, 79560, Note_on_c, 3, 34, 127
5, 79628, Note_on_c, 3, 34, 0
5, 80040, Note_on_c, 3, 46, 127
5, 80152, Note_on_c, 3, 46, 0
5, 80160, Note_on_c, 3, 34, 127
5, 80264, Note_on_c, 3, 34, 0
5, 80320, Note_on_c, 3, 46, 127
5, 80396, Note_on_c, 3, 46, 0
5, 80480, Note_on_c, 3, 34, 127
5, 80602, Note_on_c, 3, 34, 0
5, 80640, Note_on_c, 3, 46, 127
5, 80761, Note_on_c, 3, 46, 0
5, 80800, Note_on_c, 3, 46, 127
5, 80800, Note_on_c, 3, 34, 127
5, 80929, Note_on_c, 3, 34, 0
5, 80929, Note_on_c, 3, 46, 0
5, 81120, Note_on_c, 3, 36, 127
5, 81240, Note_on_c, 3, 48, 127
5, 81252, Note_on_c, 3, 36, 0
5, 81348, Note_on_c, 3, 48, 0
5, 81360, Note_on_c, 3, 33, 127
5, 81468, Note_on_c, 3, 33, 0
5, 81480, Note_on_c, 3, 45, 127
5, 81583, Note_on_c, 3, 45, 0
5, 81600, Note_on_c, 3, 34, 127
5, 81716, Note_on_c, 3, 34, 0
5, 81720, Note_on_c, 3, 46, 127
5, 81840, Note_on_c, 3, 35, 127
5, 81844, Note_on_c, 3, 46, 0
5, 81952, Note_on_c, 3, 35, 0
5, 81960, Note_on_c, 3, 47, 127
5, 82046, Note_on_c, 3, 47, 0
5, 82080, Note_on_c, 3, 48, 127
5, 82165, Note_on_c, 3, 48, 0
5, 82440, Note_on_c, 3, 48, 127
5, 82441, Note_on_c, 3, 48, 0
5, 82500, Note_on_c, 3, 48, 127
5, 82501, Note_on_c, 3, 48, 0
5, 82560, Note_on_c, 3, 48, 127
5, 82614, Note_on_c, 3, 48, 0
5, 82620, Note_on_c, 3, 48, 127
5, 82653, Note_on_c, 3, 48, 0
5, 82920, Note_on_c, 3, 48, 127
5, 82970, Note_on_c, 3, 48, 0
5, 83040, Note_on_c, 3, 36, 127
5, 83077, Note_on_c, 3, 36, 0
5, 83100, Note_on_c, 3, 36, 127
5, 83134, Note_on_c, 3, 36, 0
5, 83400, Note_on_c, 3, 36, 127
5, 83432, Note_on_c, 3, 36, 0
5, 83460, Note_on_c, 3, 36, 127
5, 83501, Note_on_c, 3, 36, 0
5, 83920, Note_on_c, 3, 33, 95
5, 83935, Note_on_c, 3, 33, 0
5, 83960, Note_on_c, 3, 33, 127
5, 83977, Note_on_c, 3, 33, 0
5, 84000, Note_on_c, 3, 36, 127
5, 84049, Note_on_c, 3, 36, 0
5, 84060, Note_on_c, 3, 36, 127
5, 84102, Note_on_c, 3, 36, 0
5, 84360, Note_on_c, 3, 36, 127
5, 84405, Note_on_c, 3, 36, 0
5, 84420, Note_on_c, 3, 36, 127
5, 84457, Note_on_c, 3, 36, 0
5, 84840, Note_on_c, 3, 48, 107
5, 84959, Note_on_c, 3, 48, 0
5, 84960, Note_on_c, 3, 36, 127
5, 85005, Note_on_c, 3, 36, 0
5, 85320, Note_on_c, 3, 36, 127
5, 85350, Note_on_c, 3, 36, 0
5, 85360, Note_on_c, 3, 36, 127
5, 85397, Note_on_c, 3, 36, 0
5, 85920, Note_on_c, 3, 36, 127
5, 86196, Note_on_c, 3, 36, 0
5, 86280, Note_on_c, 3, 36, 127
5, 86834, Note_on_c, 3, 36, 0
5, 86880, Note_on_c, 3, 36, 127
5, 87124, Note_on_c, 3, 36, 0
5, 87180, Note_on_c, 3, 36, 127
5, 87699, Note_on_c, 3, 36, 0
5, 87840, Note_on_c, 3, 36, 127
5, 88060, Note_on_c, 3, 36, 0
5, 88140, Note_on_c, 3, 36, 127
5, 88628, Note_on_c, 3, 36, 0
5, 88800, Note_on_c, 3, 36, 127
5, 88828, Note_on_c, 3, 36, 0
5, 88858, Note_on_c, 3, 36, 127
5, 88896, Note_on_c, 3, 36, 0
5, 89160, Note_on_c, 3, 36, 127
5, 89189, Note_on_c, 3, 36, 0
5, 89220, Note_on_c, 3, 36, 127
5, 89257, Note_on_c, 3, 36, 0
5, 89520, Note_on_c, 3, 46, 127
5, 89626, Note_on_c, 3, 46, 0
5, 89640, Note_on_c, 3, 43, 123
5, 89690, Note_on_c, 3, 43, 0
5, 89760, Note_on_c, 3, 36, 127
5, 89792, Note_on_c, 3, 36, 0
5, 89820, Note_on_c, 3, 36, 119
5, 89863, Note_on_c, 3, 36, 0
5, 90120, Note_on_c, 3, 36, 127
5, 90154, Note_on_c, 3, 36, 0
5, 90176, Note_on_c, 3, 36, 127
5, 90229, Note_on_c, 3, 36, 0
5, 90624, Note_on_c, 3, 34, 123
5, 90639, Note_on_c, 3, 34, 0
5, 90671, Note_on_c, 3, 34, 127
5, 90688, Note_on_c, 3, 34, 0
5, 90720, Note_on_c, 3, 36, 127
5, 90757, Note_on_c, 3, 36, 0
5, 91080, Note_on_c, 3, 36, 127
5, 91112, Note_on_c, 3, 36, 0
5, 91136, Note_on_c, 3, 36, 127
5, 91170, Note_on_c, 3, 36, 0
5, 91680, Note_on_c, 3, 36, 127
5, 91712, Note_on_c, 3, 36, 0
5, 91742, Note_on_c, 3, 36, 127
5, 91783, Note_on_c, 3, 36, 0
5, 92044, Note_on_c, 3, 36, 127
5, 92103, Note_on_c, 3, 36, 0
5, 92400, Note_on_c, 3, 48, 127
5, 92517, Note_on_c, 3, 43, 119
5, 92523, Note_on_c, 3, 48, 0
5, 92573, Note_on_c, 3, 43, 0
5, 92640, Note_on_c, 3, 36, 127
5, 92717, Note_on_c, 3, 36, 0
5, 92999, Note_on_c, 3, 36, 127
5, 93050, Note_on_c, 3, 36, 0
5, 93600, Note_on_c, 3, 36, 127
5, 93636, Note_on_c, 3, 36, 0
5, 93656, Note_on_c, 3, 36, 127
5, 93704, Note_on_c, 3, 36, 0
5, 93966, Note_on_c, 3, 36, 127
5, 94028, Note_on_c, 3, 36, 0
5, 94320, Note_on_c, 3, 48, 127
5, 94430, Note_on_c, 3, 48, 0
5, 94437, Note_on_c, 3, 43, 119
5, 94496, Note_on_c, 3, 43, 0
5, 94560, Note_on_c, 3, 37, 127
5, 94638, Note_on_c, 3, 37, 0
5, 94923, Note_on_c, 3, 37, 127
5, 94973, Note_on_c, 3, 37, 0
5, 95280, Note_on_c, 3, 49, 103
5, 95385, Note_on_c, 3, 49, 0
5, 95399, Note_on_c, 3, 44, 127
5, 95445, Note_on_c, 3, 44, 0
5, 95520, Note_on_c, 3, 37, 127
5, 95588, Note_on_c, 3, 37, 0
5, 95875, Note_on_c, 3, 37, 127
5, 95929, Note_on_c, 3, 37, 0
5, 96256, Note_on_c, 3, 49, 127
5, 96403, Pitch_bend_c, 3, 7936
5, 96406, Pitch_bend_c, 3, 7680
5, 96412, Pitch_bend_c, 3, 7168
5, 96415, Pitch_bend_c, 3, 6784
5, 96419, Pitch_bend_c, 3, 6400
5, 96424, Pitch_bend_c, 3, 6016
5, 96428, Pitch_bend_c, 3, 5376
5, 96431, Pitch_bend_c, 3, 4864
5, 96435, Pitch_bend_c, 3, 4352
5, 96440, Pitch_bend_c, 3, 3584
5, 96444, Pitch_bend_c, 3, 2944
5, 96449, Pitch_bend_c, 3, 2304
5, 96453, Pitch_bend_c, 3, 1792
5, 96456, Pitch_bend_c, 3, 1280
5, 96462, Pitch_bend_c, 3, 512
5, 96465, Pitch_bend_c, 3, 0
5, 96481, Note_on_c, 3, 49, 0
5, 96528, Note_on_c, 3, 49, 127
5, 96610, Note_on_c, 3, 49, 0
5, 96635, Pitch_bend_c, 3, 384
5, 96640, Pitch_bend_c, 3, 896
5, 96644, Pitch_bend_c, 3, 1280
5, 96647, Pitch_bend_c, 3, 1536
5, 96653, Pitch_bend_c, 3, 1920
5, 96656, Pitch_bend_c, 3, 2304
5, 96660, Pitch_bend_c, 3, 2816
5, 96665, Pitch_bend_c, 3, 3200
5, 96669, Pitch_bend_c, 3, 3584
5, 96672, Pitch_bend_c, 3, 3968
5, 96676, Pitch_bend_c, 3, 4480
5, 96681, Pitch_bend_c, 3, 4864
5, 96685, Pitch_bend_c, 3, 5248
5, 96690, Pitch_bend_c, 3, 5504
5, 96694, Pitch_bend_c, 3, 6144
5, 96703, Pitch_bend_c, 3, 6656
5, 96706, Pitch_bend_c, 3, 6912
5, 96710, Pitch_bend_c, 3, 7168
5, 96719, Pitch_bend_c, 3, 7680
5, 96728, Pitch_bend_c, 3, 8064
5, 96735, Pitch_bend_c, 3, 8192
5, 96887, Note_on_c, 3, 35, 127
5, 96892, Note_on_c, 3, 36, 107
5, 96942, Note_on_c, 3, 36, 0
5, 96995, Note_on_c, 3, 35, 0
5, 97486, Note_on_c, 3, 35, 127
5, 97560, Note_on_c, 3, 35, 0
5, 97865, Note_on_c, 3, 35, 119
5, 97949, Note_on_c, 3, 35, 0
5, 98070, Note_on_c, 3, 29, 111
5, 98127, Note_on_c, 3, 29, 0
5, 98277, Note_on_c, 3, 31, 91
5, 98340, Note_on_c, 3, 31, 0
5, 98400, Note_on_c, 3, 34, 127
5, 98841, Note_on_c, 3, 34, 0
5, 98880, Note_on_c, 3, 29, 111
5, 99031, Note_on_c, 3, 31, 91
5, 99085, Note_on_c, 3, 29, 0
5, 99240, Note_on_c, 3, 29, 111
5, 99281, Note_on_c, 3, 31, 0
5, 99360, Note_on_c, 3, 34, 127
5, 99381, Note_on_c, 3, 29, 0
5, 99548, Note_on_c, 3, 34, 0
5, 99600, Note_on_c, 3, 29, 115
5, 99761, Note_on_c, 3, 31, 119
5, 99780, Note_on_c, 3, 29, 0
5, 100011, Note_on_c, 3, 29, 115
5, 100023, Note_on_c, 3, 31, 0
5, 100164, Note_on_c, 3, 29, 0
5, 100200, Note_on_c, 3, 31, 103
5, 100263, Note_on_c, 3, 31, 0
5, 100320, Note_on_c, 3, 37, 111
5, 100591, Note_on_c, 3, 37, 0
5, 100596, Note_on_c, 3, 49, 127
5, 100646, Note_on_c, 3, 49, 0
5, 100800, Note_on_c, 3, 37, 127
5, 100970, Note_on_c, 3, 37, 0
5, 100978, Note_on_c, 3, 49, 127
5, 101133, Note_on_c, 3, 49, 0
5, 101137, Note_on_c, 3, 37, 111
5, 101233, Note_on_c, 3, 37, 0
5, 101280, Note_on_c, 3, 35, 103
5, 101491, Note_on_c, 3, 35, 0
5, 101508, Note_on_c, 3, 47, 119
5, 101646, Note_on_c, 3, 35, 111
5, 101662, Note_on_c, 3, 47, 0
5, 101730, Note_on_c, 3, 35, 0
5, 101771, Note_on_c, 3, 35, 107
5, 101955, Note_on_c, 3, 47, 99
5, 101962, Note_on_c, 3, 35, 0
5, 102120, Note_on_c, 3, 35, 107
5, 102133, Note_on_c, 3, 47, 0
5, 102240, Note_on_c, 3, 34, 127
5, 102279, Note_on_c, 3, 35, 0
5, 102554, Note_on_c, 3, 34, 0
5, 102600, Note_on_c, 3, 29, 111
5, 102856, Note_on_c, 3, 31, 103
5, 102863, Note_on_c, 3, 29, 0
5, 103069, Note_on_c, 3, 29, 115
5, 103076, Note_on_c, 3, 31, 0
5, 103200, Note_on_c, 3, 34, 127
5, 103244, Note_on_c, 3, 29, 0
5, 103586, Note_on_c, 3, 34, 0
5, 103586, Note_on_c, 3, 29, 127
5, 103827, Note_on_c, 3, 31, 115
5, 103836, Note_on_c, 3, 29, 0
5, 104156, Note_on_c, 3, 31, 0
5, 104160, Note_on_c, 3, 37, 103
5, 104323, Note_on_c, 3, 37, 0
5, 104336, Note_on_c, 3, 49, 127
5, 104477, Note_on_c, 3, 49, 0
5, 104493, Note_on_c, 3, 37, 123
5, 104565, Note_on_c, 3, 37, 0
5, 104640, Note_on_c, 3, 37, 127
5, 104822, Note_on_c, 3, 37, 0
5, 104825, Note_on_c, 3, 49, 127
5, 104984, Note_on_c, 3, 37, 127
5, 104993, Note_on_c, 3, 49, 0
5, 105091, Note_on_c, 3, 37, 0
5, 105120, Note_on_c, 3, 35, 103
5, 105324, Note_on_c, 3, 35, 0
5, 105341, Note_on_c, 3, 47, 111
5, 105470, Note_on_c, 3, 35, 95
5, 105502, Note_on_c, 3, 47, 0
5, 105554, Note_on_c, 3, 35, 0
5, 105600, Note_on_c, 3, 35, 123
5, 105806, Note_on_c, 3, 35, 0
5, 105839, Note_on_c, 3, 47, 91
5, 105963, Note_on_c, 3, 35, 87
5, 106011, Note_on_c, 3, 47, 0
5, 106080, Note_on_c, 3, 36, 127
5, 106104, Note_on_c, 3, 35, 0
5, 106928, Note_on_c, 3, 36, 0
5, 106994, Pitch_bend_c, 3, 7936
5, 106997, Pitch_bend_c, 3, 7552
5, 107002, Pitch_bend_c, 3, 6912
5, 107006, Pitch_bend_c, 3, 6528
5, 107010, Pitch_bend_c, 3, 6144
5, 107015, Pitch_bend_c, 3, 5504
5, 107018, Pitch_bend_c, 3, 5120
5, 107022, Pitch_bend_c, 3, 4736
5, 107027, Pitch_bend_c, 3, 4352
5, 107031, Pitch_bend_c, 3, 3968
5, 107038, Note_on_c, 3, 34, 127
5, 107038, Pitch_bend_c, 3, 3712
5, 107060, Pitch_bend_c, 3, 3968
5, 107068, Pitch_bend_c, 3, 4608
5, 107072, Pitch_bend_c, 3, 4864
5, 107077, Pitch_bend_c, 3, 5120
5, 107081, Pitch_bend_c, 3, 5504
5, 107085, Pitch_bend_c, 3, 5888
5, 107090, Pitch_bend_c, 3, 6656
5, 107093, Pitch_bend_c, 3, 8192
5, 107872, Note_on_c, 3, 34, 0
5, 107931, Pitch_bend_c, 3, 7936
5, 107943, Pitch_bend_c, 3, 7680
5, 107972, Note_on_c, 3, 36, 127
5, 107974, Pitch_bend_c, 3, 7296
5, 108009, Pitch_bend_c, 3, 7808
5, 108016, Pitch_bend_c, 3, 8064
5, 108024, Pitch_bend_c, 3, 8192
5, 108846, Note_on_c, 3, 36, 0
5, 108905, Pitch_bend_c, 3, 7936
5, 108909, Pitch_bend_c, 3, 7552
5, 108914, Pitch_bend_c, 3, 7040
5, 108918, Pitch_bend_c, 3, 6784
5, 108921, Pitch_bend_c, 3, 6400
5, 108927, Note_on_c, 3, 30, 123
5, 108930, Pitch_bend_c, 3, 6144
5, 108959, Pitch_bend_c, 3, 6400
5, 108970, Pitch_bend_c, 3, 6912
5, 108979, Pitch_bend_c, 3, 7552
5, 108982, Pitch_bend_c, 3, 7808
5, 108986, Pitch_bend_c, 3, 8064
5, 108991, Pitch_bend_c, 3, 8192
5, 109768, Note_on_c, 3, 30, 0
5, 109880, Pitch_bend_c, 3, 7936
5, 109884, Note_on_c, 3, 36, 99
5, 109884, Pitch_bend_c, 3, 7552
5, 109889, Note_on_c, 3, 37, 85
5, 109889, Pitch_bend_c, 3, 6912
5, 109894, Pitch_bend_c, 3, 6656
5, 109898, Pitch_bend_c, 3, 6400
5, 109912, Pitch_bend_c, 3, 6144
5, 109932, Pitch_bend_c, 3, 6528
5, 109939, Pitch_bend_c, 3, 7040
5, 109944, Pitch_bend_c, 3, 7296
5, 109948, Pitch_bend_c, 3, 7680
5, 109952, Pitch_bend_c, 3, 7936
5, 109957, Note_on_c, 3, 37, 0
5, 109959, Pitch_bend_c, 3, 8192
5, 110782, Note_on_c, 3, 36, 0
5, 110841, Pitch_bend_c, 3, 8064
5, 110849, Pitch_bend_c, 3, 7808
5, 110860, Note_on_c, 3, 30, 115
5, 110887, Pitch_bend_c, 3, 8064
5, 110901, Pitch_bend_c, 3, 8192
5, 111746, Note_on_c, 3, 30, 0
5, 111847, Note_on_c, 3, 36, 111
5, 112295, Note_on_c, 3, 36, 0
5, 112336, Note_on_c, 3, 36, 81
5, 112640, Note_on_c, 3, 36, 0
5, 112769, Pitch_bend_c, 3, 8064
5, 112773, Pitch_bend_c, 3, 7680
5, 112777, Pitch_bend_c, 3, 7168
5, 112782, Pitch_bend_c, 3, 6656
5, 112785, Pitch_bend_c, 3, 6272
5, 112789, Pitch_bend_c, 3, 5888
5, 112794, Note_on_c, 3, 35, 99
5, 112794, Pitch_bend_c, 3, 5376
5, 112798, Pitch_bend_c, 3, 5120
5, 112803, Pitch_bend_c, 3, 4864
5, 112823, Pitch_bend_c, 3, 5120
5, 112827, Pitch_bend_c, 3, 5376
5, 112832, Pitch_bend_c, 3, 5632
5, 112835, Pitch_bend_c, 3, 6016
5, 112839, Pitch_bend_c, 3, 6272
5, 112848, Pitch_bend_c, 3, 6784
5, 112857, Pitch_bend_c, 3, 7168
5, 112864, Pitch_bend_c, 3, 7680
5, 112877, Pitch_bend_c, 3, 7936
5, 112894, Pitch_bend_c, 3, 8192
5, 113278, Pitch_bend_c, 3, 7936
5, 113282, Note_on_c, 3, 33, 111
5, 113301, Note_on_c, 3, 35, 0
5, 113305, Pitch_bend_c, 3, 8192
5, 113464, Pitch_bend_c, 3, 8064
5, 113480, Pitch_bend_c, 3, 7808
5, 113530, Pitch_bend_c, 3, 8064
5, 113542, Pitch_bend_c, 3, 8192
5, 113762, Note_on_c, 3, 33, 0
5, 113782, Note_on_c, 3, 30, 119
5, 114608, Note_on_c, 3, 30, 0
5, 114746, Note_on_c, 3, 38, 123
5, 114746, Pitch_bend_c, 3, 7936
5, 114749, Pitch_bend_c, 3, 7552
5, 114756, Pitch_bend_c, 3, 6784
5, 114760, Pitch_bend_c, 3, 6528
5, 114767, Pitch_bend_c, 3, 6144
5, 114780, Pitch_bend_c, 3, 5632
5, 114799, Pitch_bend_c, 3, 6016
5, 114808, Pitch_bend_c, 3, 6400
5, 114812, Pitch_bend_c, 3, 6656
5, 114815, Pitch_bend_c, 3, 7040
5, 114821, Pitch_bend_c, 3, 7552
5, 114824, Pitch_bend_c, 3, 7936
5, 114828, Pitch_bend_c, 3, 8192
5, 115648, Pitch_bend_c, 3, 7808
5, 115652, Pitch_bend_c, 3, 7552
5, 115660, Pitch_bend_c, 3, 7040
5, 115669, Pitch_bend_c, 3, 6784
5, 115677, Note_on_c, 3, 30, 127
5, 115709, Pitch_bend_c, 3, 7040
5, 115716, Pitch_bend_c, 3, 7552
5, 115721, Pitch_bend_c, 3, 7936
5, 115726, Note_on_c, 3, 38, 0
5, 115730, Pitch_bend_c, 3, 8192
5, 116453, Note_on_c, 3, 30, 0
5, 116639, Pitch_bend_c, 3, 7936
5, 116649, Pitch_bend_c, 3, 7552
5, 116658, Pitch_bend_c, 3, 7040
5, 116662, Note_on_c, 3, 38, 111
5, 116664, Pitch_bend_c, 3, 6784
5, 116667, Pitch_bend_c, 3, 6400
5, 116673, Pitch_bend_c, 3, 6144
5, 116676, Pitch_bend_c, 3, 5888
5, 116689, Pitch_bend_c, 3, 5504
5, 116701, Pitch_bend_c, 3, 5888
5, 116707, Pitch_bend_c, 3, 6144
5, 116710, Pitch_bend_c, 3, 6400
5, 116714, Pitch_bend_c, 3, 6784
5, 116719, Pitch_bend_c, 3, 7040
5, 116723, Pitch_bend_c, 3, 7296
5, 116726, Pitch_bend_c, 3, 7808
5, 116732, Pitch_bend_c, 3, 8064
5, 116735, Pitch_bend_c, 3, 8192
5, 117114, Note_on_c, 3, 38, 0
5, 117117, Note_on_c, 3, 30, 81
5, 117121, Pitch_bend_c, 3, 7936
5, 117126, Pitch_bend_c, 3, 7552
5, 117130, Pitch_bend_c, 3, 7040
5, 117137, Pitch_bend_c, 3, 6528
5, 117140, Pitch_bend_c, 3, 6272
5, 117156, Pitch_bend_c, 3, 6528
5, 117162, Pitch_bend_c, 3, 6784
5, 117165, Pitch_bend_c, 3, 7552
5, 117169, Pitch_bend_c, 3, 8064
5, 117174, Pitch_bend_c, 3, 8192
5, 117594, Pitch_bend_c, 3, 7936
5, 117597, Pitch_bend_c, 3, 7552
5, 117601, Pitch_bend_c, 3, 7040
5, 117608, Pitch_bend_c, 3, 6272
5, 117612, Note_on_c, 3, 30, 0
5, 117612, Pitch_bend_c, 3, 6016
5, 117617, Pitch_bend_c, 3, 5376
5, 117621, Note_on_c, 3, 36, 99
5, 117621, Pitch_bend_c, 3, 4992
5, 117629, Pitch_bend_c, 3, 4608
5, 117646, Pitch_bend_c, 3, 4992
5, 117649, Pitch_bend_c, 3, 5248
5, 117654, Pitch_bend_c, 3, 5504
5, 117658, Pitch_bend_c, 3, 6016
5, 117662, Pitch_bend_c, 3, 6272
5, 117667, Pitch_bend_c, 3, 6656
5, 117671, Pitch_bend_c, 3, 7040
5, 117674, Pitch_bend_c, 3, 7296
5, 117679, Pitch_bend_c, 3, 7808
5, 117683, Pitch_bend_c, 3, 8064
5, 117687, Pitch_bend_c, 3, 8192
5, 118518, Note_on_c, 3, 36, 0
5, 118560, Pitch_bend_c, 3, 7936
5, 118567, Pitch_bend_c, 3, 7552
5, 118570, Note_on_c, 3, 30, 119
5, 118574, Pitch_bend_c, 3, 7040
5, 118595, Pitch_bend_c, 3, 7552
5, 118599, Pitch_bend_c, 3, 7808
5, 118602, Pitch_bend_c, 3, 8064
5, 118608, Pitch_bend_c, 3, 8192
5, 119277, Note_on_c, 3, 30, 0
5, 119497, Note_on_c, 3, 36, 89
5, 120375, Note_on_c, 3, 36, 0
5, 120439, Pitch_bend_c, 3, 7808
5, 120442, Pitch_bend_c, 3, 7552
5, 120447, Pitch_bend_c, 3, 7168
5, 120451, Pitch_bend_c, 3, 6912
5, 120478, Pitch_bend_c, 3, 7296
5, 120489, Note_on_c, 3, 30, 123
5, 120489, Pitch_bend_c, 3, 7936
5, 120494, Pitch_bend_c, 3, 8192
5, 120920, Note_on_c, 3, 30, 0
5, 120992, Note_on_c, 3, 30, 127
5, 121307, Note_on_c, 3, 30, 0
5, 121396, Pitch_bend_c, 3, 7808
5, 121399, Pitch_bend_c, 3, 7168
5, 121404, Pitch_bend_c, 3, 6784
5, 121408, Pitch_bend_c, 3, 6272
5, 121411, Note_on_c, 3, 36, 111
5, 121411, Pitch_bend_c, 3, 5888
5, 121416, Pitch_bend_c, 3, 5376
5, 121444, Pitch_bend_c, 3, 5888
5, 121447, Pitch_bend_c, 3, 6144
5, 121456, Pitch_bend_c, 3, 6528
5, 121460, Pitch_bend_c, 3, 6912
5, 121463, Pitch_bend_c, 3, 7168
5, 121468, Pitch_bend_c, 3, 7552
5, 121472, Pitch_bend_c, 3, 7808
5, 121480, Pitch_bend_c, 3, 8192
5, 122290, Note_on_c, 3, 36, 0
5, 122390, Note_on_c, 3, 30, 111
5, 123188, Note_on_c, 3, 30, 0
5, 123265, Pitch_bend_c, 3, 7936
5, 123272, Pitch_bend_c, 3, 7552
5, 123281, Pitch_bend_c, 3, 7168
5, 123290, Pitch_bend_c, 3, 6784
5, 123297, Pitch_bend_c, 3, 6528
5, 123305, Pitch_bend_c, 3, 6272
5, 123314, Pitch_bend_c, 3, 5888
5, 123321, Pitch_bend_c, 3, 5504
5, 123329, Pitch_bend_c, 3, 5248
5, 123333, Pitch_bend_c, 3, 4992
5, 123342, Pitch_bend_c, 3, 4480
5, 123345, Pitch_bend_c, 3, 3968
5, 123350, Pitch_bend_c, 3, 3712
5, 123354, Note_on_c, 3, 35, 95
5, 123354, Pitch_bend_c, 3, 3456
5, 123388, Pitch_bend_c, 3, 3840
5, 123392, Pitch_bend_c, 3, 4224
5, 123397, Pitch_bend_c, 3, 4480
5, 123400, Pitch_bend_c, 3, 4736
5, 123409, Pitch_bend_c, 3, 5120
5, 123413, Pitch_bend_c, 3, 5376
5, 123419, Pitch_bend_c, 3, 6016
5, 123428, Pitch_bend_c, 3, 6400
5, 123432, Pitch_bend_c, 3, 6656
5, 123437, Pitch_bend_c, 3, 6912
5, 123444, Pitch_bend_c, 3, 7296
5, 123452, Pitch_bend_c, 3, 7680
5, 123485, Pitch_bend_c, 3, 7936
5, 123497, Pitch_bend_c, 3, 8192
5, 124250, Note_on_c, 3, 35, 0
5, 124271, Pitch_bend_c, 3, 7936
5, 124274, Pitch_bend_c, 3, 7680
5, 124278, Pitch_bend_c, 3, 7296
5, 124283, Pitch_bend_c, 3, 6912
5, 124286, Pitch_bend_c, 3, 6528
5, 124290, Pitch_bend_c, 3, 6144
5, 124295, Pitch_bend_c, 3, 5504
5, 124298, Pitch_bend_c, 3, 5248
5, 124302, Pitch_bend_c, 3, 4864
5, 124307, Pitch_bend_c, 3, 4480
5, 124314, Pitch_bend_c, 3, 3968
5, 124340, Note_on_c, 3, 34, 127
5, 124340, Pitch_bend_c, 3, 4352
5, 124345, Pitch_bend_c, 3, 4736
5, 124352, Pitch_bend_c, 3, 5120
5, 124357, Pitch_bend_c, 3, 5376
5, 124361, Pitch_bend_c, 3, 5888
5, 124364, Pitch_bend_c, 3, 6272
5, 124369, Pitch_bend_c, 3, 6784
5, 124373, Pitch_bend_c, 3, 7168
5, 124376, Pitch_bend_c, 3, 7808
5, 124381, Pitch_bend_c, 3, 8192
5, 124722, Note_on_c, 3, 34, 0
5, 124804, Note_on_c, 3, 34, 127
5, 125120, Note_on_c, 3, 34, 0
5, 127137, Pitch_bend_c, 3, 7936
5, 127141, Pitch_bend_c, 3, 7296
5, 127146, Pitch_bend_c, 3, 6784
5, 127150, Pitch_bend_c, 3, 6272
5, 127153, Pitch_bend_c, 3, 5632
5, 127158, Pitch_bend_c, 3, 5248
5, 127160, Pitch_bend_c, 3, 4864
5, 127167, Pitch_bend_c, 3, 4352
5, 127172, Pitch_bend_c, 3, 3840
5, 127184, Pitch_bend_c, 3, 3584
5, 127214, Pitch_bend_c, 3, 3840
5, 127226, Pitch_bend_c, 3, 4224
5, 127234, Note_on_c, 3, 35, 127
5, 127234, Pitch_bend_c, 3, 4864
5, 127238, Pitch_bend_c, 3, 5376
5, 127241, Pitch_bend_c, 3, 6272
5, 127246, Pitch_bend_c, 3, 7040
5, 127250, Pitch_bend_c, 3, 7936
5, 127255, Pitch_bend_c, 3, 8192
5, 127641, Note_on_c, 3, 35, 0
5, 127710, Note_on_c, 3, 35, 123
5, 128049, Note_on_c, 3, 35, 0
5, 128086, Pitch_bend_c, 3, 8064
5, 128089, Pitch_bend_c, 3, 7808
5, 128094, Pitch_bend_c, 3, 7552
5, 128098, Pitch_bend_c, 3, 7168
5, 128103, Pitch_bend_c, 3, 6912
5, 128110, Pitch_bend_c, 3, 6528
5, 128119, Pitch_bend_c, 3, 6144
5, 128122, Pitch_bend_c, 3, 5888
5, 128127, Pitch_bend_c, 3, 5504
5, 128134, Pitch_bend_c, 3, 4992
5, 128143, Pitch_bend_c, 3, 4736
5, 128151, Pitch_bend_c, 3, 4480
5, 128164, Pitch_bend_c, 3, 4224
5, 128170, Note_on_c, 3, 36, 119
5, 128183, Pitch_bend_c, 3, 4480
5, 128191, Pitch_bend_c, 3, 4736
5, 128200, Pitch_bend_c, 3, 5376
5, 128207, Pitch_bend_c, 3, 6016
5, 128210, Pitch_bend_c, 3, 6400
5, 128215, Pitch_bend_c, 3, 6656
5, 128219, Pitch_bend_c, 3, 6912
5, 128222, Pitch_bend_c, 3, 7168
5, 128228, Pitch_bend_c, 3, 7552
5, 128231, Pitch_bend_c, 3, 7808
5, 128240, Pitch_bend_c, 3, 8192
5, 128610, Note_on_c, 3, 36, 0
5, 128683, Note_on_c, 3, 36, 127
5, 129077, Note_on_c, 3, 36, 0
5, 131520, Note_on_c, 3, 32, 127
5, 131693, Note_on_c, 3, 32, 0
5, 131693, End_track
6, 0, Start_track
6, 0, MIDI_port, 0
6, 0, Title_t, "TERRY BOZZIO"
6, 0, Program_c, 9, 0
6, 0, Control_c, 9, 7, 120
6, 280, Note_on_c, 9, 46, 127
6, 339, Note_on_c, 9, 46, 0
6, 480, Note_on_c, 9, 42, 127
6, 539, Note_on_c, 9, 42, 0
6, 720, Note_on_c, 9, 42, 127
6, 779, Note_on_c, 9, 42, 0
6, 960, Note_on_c, 9, 42, 127
6, 1019, Note_on_c, 9, 42, 0
6, 1200, Note_on_c, 9, 46, 127
6, 1259, Note_on_c, 9, 46, 0
6, 1440, Note_on_c, 9, 42, 127
6, 1499, Note_on_c, 9, 42, 0
6, 1680, Note_on_c, 9, 42, 127
6, 1739, Note_on_c, 9, 42, 0
6, 1920, Note_on_c, 9, 42, 127
6, 1979, Note_on_c, 9, 42, 0
6, 2160, Note_on_c, 9, 46, 127
6, 2219, Note_on_c, 9, 46, 0
6, 2400, Note_on_c, 9, 42, 127
6, 2459, Note_on_c, 9, 42, 0
6, 2640, Note_on_c, 9, 42, 127
6, 2699, Note_on_c, 9, 42, 0
6, 2880, Note_on_c, 9, 42, 127
6, 2939, Note_on_c, 9, 42, 0
6, 3120, Note_on_c, 9, 46, 127
6, 3179, Note_on_c, 9, 46, 0
6, 3360, Note_on_c, 9, 42, 127
6, 3419, Note_on_c, 9, 42, 0
6, 3600, Note_on_c, 9, 42, 127
6, 3659, Note_on_c, 9, 42, 0
6, 3840, Note_on_c, 9, 42, 127
6, 3899, Note_on_c, 9, 42, 0
6, 4080, Note_on_c, 9, 46, 127
6, 4139, Note_on_c, 9, 46, 0
6, 4320, Note_on_c, 9, 42, 127
6, 4379, Note_on_c, 9, 42, 0
6, 4560, Note_on_c, 9, 42, 127
6, 4619, Note_on_c, 9, 42, 0
6, 4800, Note_on_c, 9, 42, 127
6, 4859, Note_on_c, 9, 42, 0
6, 5040, Note_on_c, 9, 46, 127
6, 5099, Note_on_c, 9, 46, 0
6, 5280, Note_on_c, 9, 42, 127
6, 5339, Note_on_c, 9, 42, 0
6, 5520, Note_on_c, 9, 42, 127
6, 5579, Note_on_c, 9, 42, 0
6, 5760, Note_on_c, 9, 42, 127
6, 5819, Note_on_c, 9, 42, 0
6, 6000, Note_on_c, 9, 46, 127
6, 6059, Note_on_c, 9, 46, 0
6, 6240, Note_on_c, 9, 42, 127
6, 6299, Note_on_c, 9, 42, 0
6, 6480, Note_on_c, 9, 42, 127
6, 6539, Note_on_c, 9, 42, 0
6, 6720, Note_on_c, 9, 42, 127
6, 6779, Note_on_c, 9, 42, 0
6, 6960, Note_on_c, 9, 46, 127
6, 7019, Note_on_c, 9, 46, 0
6, 7200, Note_on_c, 9, 42, 127
6, 7259, Note_on_c, 9, 42, 0
6, 7440, Note_on_c, 9, 42, 127
6, 7499, Note_on_c, 9, 42, 0
6, 7680, Note_on_c, 9, 42, 127
6, 7739, Note_on_c, 9, 42, 0
6, 7920, Note_on_c, 9, 46, 127
6, 7979, Note_on_c, 9, 46, 0
6, 8160, Note_on_c, 9, 57, 127
6, 8247, Note_on_c, 9, 57, 0
6, 8640, Note_on_c, 9, 46, 127
6, 8744, Note_on_c, 9, 46, 0
6, 9540, Note_on_c, 9, 49, 127
6, 9600, Note_on_c, 9, 57, 127
6, 9601, Note_on_c, 9, 49, 0
6, 9660, Note_on_c, 9, 57, 0
6, 9840, Note_on_c, 9, 46, 97
6, 9897, Note_on_c, 9, 46, 0
6, 10200, Note_on_c, 9, 52, 127
6, 10295, Note_on_c, 9, 52, 0
6, 10560, Note_on_c, 9, 46, 127
6, 10619, Note_on_c, 9, 46, 0
6, 10800, Note_on_c, 9, 44, 127
6, 10854, Note_on_c, 9, 44, 0
6, 11040, Note_on_c, 9, 44, 127
6, 11090, Note_on_c, 9, 44, 0
6, 11280, Note_on_c, 9, 57, 127
6, 11387, Note_on_c, 9, 57, 0
6, 12000, Note_on_c, 9, 46, 127
6, 12091, Note_on_c, 9, 46, 0
6, 12240, Note_on_c, 9, 49, 127
6, 12285, Note_on_c, 9, 49, 0
6, 12360, Note_on_c, 9, 52, 127
6, 12440, Note_on_c, 9, 52, 0
6, 12540, Note_on_c, 9, 57, 127
6, 12654, Note_on_c, 9, 57, 0
6, 12720, Note_on_c, 9, 52, 127
6, 12791, Note_on_c, 9, 52, 0
6, 12960, Note_on_c, 9, 49, 127
6, 13036, Note_on_c, 9, 49, 0
6, 13200, Note_on_c, 9, 57, 127
6, 13291, Note_on_c, 9, 57, 0
6, 14400, Note_on_c, 9, 46, 127
6, 14522, Note_on_c, 9, 46, 0
6, 14760, Note_on_c, 9, 49, 127
6, 14816, Note_on_c, 9, 49, 0
6, 15120, Note_on_c, 9, 57, 127
6, 15227, Note_on_c, 9, 57, 0
6, 15480, Note_on_c, 9, 46, 127
6, 15587, Note_on_c, 9, 46, 0
6, 15840, Note_on_c, 9, 52, 127
6, 15955, Note_on_c, 9, 52, 0
6, 16080, Note_on_c, 9, 46, 127
6, 16164, Note_on_c, 9, 46, 0
6, 16320, Note_on_c, 9, 52, 127
6, 16355, Note_on_c, 9, 52, 0
6, 16560, Note_on_c, 9, 52, 127
6, 16595, Note_on_c, 9, 52, 0
6, 16800, Note_on_c, 9, 46, 97
6, 16849, Note_on_c, 9, 46, 0
6, 17040, Note_on_c, 9, 46, 97
6, 17095, Note_on_c, 9, 46, 0
6, 17280, Note_on_c, 9, 46, 97
6, 17341, Note_on_c, 9, 46, 0
6, 17520, Note_on_c, 9, 46, 97
6, 17578, Note_on_c, 9, 46, 0
6, 17760, Note_on_c, 9, 46, 97
6, 17814, Note_on_c, 9, 46, 0
6, 19680, Note_on_c, 9, 49, 127
6, 19746, Note_on_c, 9, 49, 0
6, 19920, Note_on_c, 9, 46, 107
6, 20014, Note_on_c, 9, 46, 0
6, 20160, Note_on_c, 9, 46, 107
6, 20249, Note_on_c, 9, 46, 0
6, 20640, Note_on_c, 9, 46, 107
6, 20710, Note_on_c, 9, 46, 0
6, 20960, Note_on_c, 9, 46, 107
6, 21007, Note_on_c, 9, 46, 0
6, 22560, Note_on_c, 9, 57, 127
6, 22676, Note_on_c, 9, 57, 0
6, 22800, Note_on_c, 9, 44, 127
6, 22842, Note_on_c, 9, 44, 0
6, 22920, Note_on_c, 9, 46, 127
6, 22974, Note_on_c, 9, 46, 0
6, 23520, Note_on_c, 9, 49, 127
6, 23571, Note_on_c, 9, 49, 0
6, 23880, Note_on_c, 9, 46, 127
6, 23966, Note_on_c, 9, 46, 0
6, 24240, Note_on_c, 9, 46, 127
6, 24318, Note_on_c, 9, 46, 0
6, 24480, Note_on_c, 9, 46, 97
6, 24517, Note_on_c, 9, 46, 0
6, 24600, Note_on_c, 9, 46, 97
6, 24656, Note_on_c, 9, 46, 0
6, 24840, Note_on_c, 9, 46, 97
6, 24887, Note_on_c, 9, 46, 0
6, 24960, Note_on_c, 9, 46, 127
6, 25044, Note_on_c, 9, 46, 0
6, 25120, Note_on_c, 9, 52, 127
6, 25164, Note_on_c, 9, 52, 0
6, 25280, Note_on_c, 9, 52, 127
6, 25324, Note_on_c, 9, 52, 0
6, 25440, Note_on_c, 9, 52, 127
6, 25487, Note_on_c, 9, 52, 0
6, 25600, Note_on_c, 9, 52, 127
6, 25650, Note_on_c, 9, 52, 0
6, 25760, Note_on_c, 9, 52, 127
6, 25805, Note_on_c, 9, 52, 0
6, 25920, Note_on_c, 9, 52, 127
6, 25968, Note_on_c, 9, 52, 0
6, 26160, Note_on_c, 9, 46, 127
6, 26277, Note_on_c, 9, 46, 0
6, 26400, Note_on_c, 9, 57, 127
6, 26458, Note_on_c, 9, 57, 0
6, 26560, Note_on_c, 9, 57, 127
6, 26627, Note_on_c, 9, 57, 0
6, 26720, Note_on_c, 9, 46, 127
6, 26819, Note_on_c, 9, 46, 0
6, 27040, Note_on_c, 9, 46, 127
6, 27172, Note_on_c, 9, 46, 0
6, 27200, Note_on_c, 9, 46, 127
6, 27247, Note_on_c, 9, 46, 0
6, 27360, Note_on_c, 9, 49, 127
6, 27430, Note_on_c, 9, 49, 0
6, 27600, Note_on_c, 9, 46, 127
6, 27656, Note_on_c, 9, 46, 0
6, 27840, Note_on_c, 9, 46, 127
6, 27910, Note_on_c, 9, 46, 0
6, 28080, Note_on_c, 9, 46, 127
6, 28153, Note_on_c, 9, 46, 0
6, 28320, Note_on_c, 9, 46, 127
6, 28320, Note_on_c, 9, 46, 127
6, 28374, Note_on_c, 9, 46, 0
6, 28378, Note_on_c, 9, 46, 0
6, 28560, Note_on_c, 9, 46, 127
6, 28618, Note_on_c, 9, 46, 0
6, 28800, Note_on_c, 9, 46, 127
6, 28849, Note_on_c, 9, 46, 0
6, 29040, Note_on_c, 9, 46, 127
6, 29105, Note_on_c, 9, 46, 0
6, 29280, Note_on_c, 9, 46, 127
6, 29345, Note_on_c, 9, 46, 0
6, 29520, Note_on_c, 9, 46, 127
6, 29564, Note_on_c, 9, 46, 0
6, 29760, Note_on_c, 9, 46, 127
6, 29802, Note_on_c, 9, 46, 0
6, 30000, Note_on_c, 9, 46, 127
6, 30056, Note_on_c, 9, 46, 0
6, 30240, Note_on_c, 9, 46, 127
6, 30293, Note_on_c, 9, 46, 0
6, 30480, Note_on_c, 9, 46, 127
6, 30517, Note_on_c, 9, 46, 0
6, 30720, Note_on_c, 9, 46, 127
6, 30757, Note_on_c, 9, 46, 0
6, 30960, Note_on_c, 9, 49, 127
6, 31000, Note_on_c, 9, 49, 0
6, 31200, Note_on_c, 9, 46, 127
6, 31237, Note_on_c, 9, 46, 0
6, 31440, Note_on_c, 9, 46, 127
6, 31477, Note_on_c, 9, 46, 0
6, 31680, Note_on_c, 9, 46, 127
6, 31717, Note_on_c, 9, 46, 0
6, 31920, Note_on_c, 9, 46, 127
6, 31952, Note_on_c, 9, 46, 0
6, 32160, Note_on_c, 9, 46, 127
6, 32197, Note_on_c, 9, 46, 0
6, 32400, Note_on_c, 9, 46, 127
6, 32437, Note_on_c, 9, 46, 0
6, 32640, Note_on_c, 9, 46, 127
6, 32677, Note_on_c, 9, 46, 0
6, 32880, Note_on_c, 9, 46, 127
6, 32908, Note_on_c, 9, 46, 0
6, 33120, Note_on_c, 9, 46, 127
6, 33152, Note_on_c, 9, 46, 0
6, 33360, Note_on_c, 9, 46, 127
6, 33390, Note_on_c, 9, 46, 0
6, 33600, Note_on_c, 9, 46, 127
6, 33637, Note_on_c, 9, 46, 0
6, 33840, Note_on_c, 9, 46, 127
6, 33874, Note_on_c, 9, 46, 0
6, 34080, Note_on_c, 9, 46, 127
6, 34117, Note_on_c, 9, 46, 0
6, 34560, Note_on_c, 9, 49, 127
6, 34597, Note_on_c, 9, 49, 0
6, 34800, Note_on_c, 9, 46, 127
6, 34831, Note_on_c, 9, 46, 0
6, 35040, Note_on_c, 9, 46, 127
6, 35074, Note_on_c, 9, 46, 0
6, 35280, Note_on_c, 9, 44, 127
6, 35319, Note_on_c, 9, 44, 0
6, 35520, Note_on_c, 9, 44, 127
6, 35552, Note_on_c, 9, 44, 0
6, 35760, Note_on_c, 9, 49, 127
6, 35793, Note_on_c, 9, 49, 0
6, 36000, Note_on_c, 9, 46, 127
6, 36033, Note_on_c, 9, 46, 0
6, 36240, Note_on_c, 9, 46, 127
6, 36276, Note_on_c, 9, 46, 0
6, 36480, Note_on_c, 9, 46, 127
6, 36517, Note_on_c, 9, 46, 0
6, 36720, Note_on_c, 9, 46, 127
6, 36753, Note_on_c, 9, 46, 0
6, 36960, Note_on_c, 9, 46, 127
6, 37040, Note_on_c, 9, 46, 0
6, 37200, Note_on_c, 9, 46, 127
6, 37260, Note_on_c, 9, 46, 0
6, 37440, Note_on_c, 9, 46, 127
6, 37494, Note_on_c, 9, 46, 0
6, 37560, Note_on_c, 9, 46, 127
6, 37597, Note_on_c, 9, 46, 0
6, 37680, Note_on_c, 9, 46, 127
6, 37738, Note_on_c, 9, 46, 0
6, 37920, Note_on_c, 9, 46, 127
6, 37965, Note_on_c, 9, 46, 0
6, 38080, Note_on_c, 9, 46, 127
6, 38130, Note_on_c, 9, 46, 0
6, 38240, Note_on_c, 9, 46, 127
6, 38287, Note_on_c, 9, 46, 0
6, 38400, Note_on_c, 9, 46, 127
6, 38440, Note_on_c, 9, 46, 0
6, 38560, Note_on_c, 9, 46, 127
6, 38596, Note_on_c, 9, 46, 0
6, 38720, Note_on_c, 9, 46, 127
6, 38757, Note_on_c, 9, 46, 0
6, 38880, Note_on_c, 9, 49, 127
6, 38935, Note_on_c, 9, 49, 0
6, 39120, Note_on_c, 9, 46, 127
6, 39161, Note_on_c, 9, 46, 0
6, 39360, Note_on_c, 9, 46, 127
6, 39400, Note_on_c, 9, 46, 0
6, 39600, Note_on_c, 9, 46, 127
6, 39641, Note_on_c, 9, 46, 0
6, 40440, Note_on_c, 9, 49, 127
6, 40473, Note_on_c, 9, 49, 0
6, 40500, Note_on_c, 9, 57, 127
6, 40549, Note_on_c, 9, 57, 0
6, 40560, Note_on_c, 9, 49, 127
6, 40593, Note_on_c, 9, 49, 0
6, 40680, Note_on_c, 9, 52, 127
6, 40725, Note_on_c, 9, 52, 0
6, 40740, Note_on_c, 9, 57, 127
6, 40777, Note_on_c, 9, 57, 0
6, 40800, Note_on_c, 9, 52, 127
6, 40837, Note_on_c, 9, 52, 0
6, 41400, Note_on_c, 9, 49, 127
6, 41482, Note_on_c, 9, 49, 0
6, 41580, Note_on_c, 9, 57, 127
6, 41629, Note_on_c, 9, 57, 0
6, 41760, Note_on_c, 9, 49, 127
6, 41832, Note_on_c, 9, 49, 0
6, 42000, Note_on_c, 9, 52, 127
6, 42037, Note_on_c, 9, 52, 0
6, 42120, Note_on_c, 9, 52, 127
6, 42156, Note_on_c, 9, 52, 0
6, 42240, Note_on_c, 9, 52, 127
6, 42289, Note_on_c, 9, 52, 0
6, 42420, Note_on_c, 9, 46, 127
6, 42450, Note_on_c, 9, 46, 0
6, 42660, Note_on_c, 9, 46, 127
6, 42708, Note_on_c, 9, 46, 0
6, 42720, Note_on_c, 9, 46, 127
6, 42768, Note_on_c, 9, 46, 0
6, 42880, Note_on_c, 9, 55, 127
6, 42917, Note_on_c, 9, 55, 0
6, 43040, Note_on_c, 9, 55, 127
6, 43077, Note_on_c, 9, 55, 0
6, 43680, Note_on_c, 9, 57, 127
6, 43725, Note_on_c, 9, 57, 0
6, 43980, Note_on_c, 9, 46, 127
6, 44007, Note_on_c, 9, 46, 0
6, 44100, Note_on_c, 9, 46, 127
6, 44134, Note_on_c, 9, 46, 0
6, 44240, Note_on_c, 9, 46, 127
6, 44282, Note_on_c, 9, 46, 0
6, 44400, Note_on_c, 9, 46, 127
6, 44437, Note_on_c, 9, 46, 0
6, 44544, Note_on_c, 9, 46, 127
6, 44586, Note_on_c, 9, 46, 0
6, 44832, Note_on_c, 9, 46, 127
6, 44873, Note_on_c, 9, 46, 0
6, 45024, Note_on_c, 9, 46, 127
6, 45082, Note_on_c, 9, 46, 0
6, 45216, Note_on_c, 9, 46, 127
6, 45244, Note_on_c, 9, 46, 0
6, 45312, Note_on_c, 9, 46, 127
6, 45354, Note_on_c, 9, 46, 0
6, 45408, Note_on_c, 9, 46, 127
6, 45461, Note_on_c, 9, 46, 0
6, 45696, Note_on_c, 9, 46, 127
6, 45736, Note_on_c, 9, 46, 0
6, 45792, Note_on_c, 9, 46, 127
6, 45832, Note_on_c, 9, 46, 0
6, 45888, Note_on_c, 9, 46, 127
6, 45946, Note_on_c, 9, 46, 0
6, 46080, Note_on_c, 9, 49, 127
6, 46154, Note_on_c, 9, 49, 0
6, 46320, Note_on_c, 9, 52, 127
6, 46427, Note_on_c, 9, 52, 0
6, 46560, Note_on_c, 9, 46, 127
6, 46593, Note_on_c, 9, 46, 0
6, 46800, Note_on_c, 9, 46, 127
6, 46837, Note_on_c, 9, 46, 0
6, 47040, Note_on_c, 9, 46, 127
6, 47070, Note_on_c, 9, 46, 0
6, 47280, Note_on_c, 9, 46, 127
6, 47311, Note_on_c, 9, 46, 0
6, 47520, Note_on_c, 9, 46, 127
6, 47548, Note_on_c, 9, 46, 0
6, 48480, Note_on_c, 9, 57, 127
6, 48509, Note_on_c, 9, 57, 0
6, 48720, Note_on_c, 9, 46, 127
6, 48761, Note_on_c, 9, 46, 0
6, 48960, Note_on_c, 9, 46, 127
6, 49016, Note_on_c, 9, 46, 0
6, 49080, Note_on_c, 9, 46, 127
6, 49121, Note_on_c, 9, 46, 0
6, 49260, Note_on_c, 9, 46, 127
6, 49297, Note_on_c, 9, 46, 0
6, 49440, Note_on_c, 9, 46, 127
6, 49479, Note_on_c, 9, 46, 0
6, 49560, Note_on_c, 9, 46, 127
6, 49617, Note_on_c, 9, 46, 0
6, 49680, Note_on_c, 9, 46, 127
6, 49715, Note_on_c, 9, 46, 0
6, 49920, Note_on_c, 9, 46, 127
6, 49954, Note_on_c, 9, 46, 0
6, 50100, Note_on_c, 9, 46, 127
6, 50136, Note_on_c, 9, 46, 0
6, 50160, Note_on_c, 9, 46, 127
6, 50197, Note_on_c, 9, 46, 0
6, 50280, Note_on_c, 9, 46, 127
6, 50343, Note_on_c, 9, 46, 0
6, 50400, Note_on_c, 9, 46, 127
6, 50435, Note_on_c, 9, 46, 0
6, 50520, Note_on_c, 9, 46, 127
6, 50561, Note_on_c, 9, 46, 0
6, 50640, Note_on_c, 9, 46, 127
6, 50677, Note_on_c, 9, 46, 0
6, 50880, Note_on_c, 9, 46, 127
6, 50920, Note_on_c, 9, 46, 0
6, 51240, Note_on_c, 9, 46, 127
6, 51275, Note_on_c, 9, 46, 0
6, 51300, Note_on_c, 9, 46, 127
6, 51340, Note_on_c, 9, 46, 0
6, 51720, Note_on_c, 9, 46, 127
6, 51758, Note_on_c, 9, 46, 0
6, 51780, Note_on_c, 9, 46, 127
6, 51815, Note_on_c, 9, 46, 0
6, 52440, Note_on_c, 9, 46, 127
6, 52477, Note_on_c, 9, 46, 0
6, 52500, Note_on_c, 9, 46, 127
6, 52542, Note_on_c, 9, 46, 0
6, 53160, Note_on_c, 9, 46, 127
6, 53197, Note_on_c, 9, 46, 0
6, 53220, Note_on_c, 9, 46, 127
6, 53271, Note_on_c, 9, 46, 0
6, 53280, Note_on_c, 9, 52, 123
6, 53280, Note_on_c, 9, 52, 0
6, 53760, Note_on_c, 9, 46, 127
6, 53817, Note_on_c, 9, 46, 0
6, 54840, Note_on_c, 9, 46, 127
6, 54877, Note_on_c, 9, 46, 0
6, 54960, Note_on_c, 9, 46, 127
6, 54997, Note_on_c, 9, 46, 0
6, 55080, Note_on_c, 9, 46, 127
6, 55108, Note_on_c, 9, 46, 0
6, 55200, Note_on_c, 9, 49, 127
6, 55200, Note_on_c, 9, 49, 0
6, 55680, Note_on_c, 9, 49, 127
6, 55788, Note_on_c, 9, 49, 0
6, 55840, Note_on_c, 9, 57, 127
6, 55992, Note_on_c, 9, 57, 0
6, 56000, Note_on_c, 9, 49, 127
6, 56111, Note_on_c, 9, 49, 0
6, 56160, Note_on_c, 9, 52, 127
6, 56293, Note_on_c, 9, 52, 0
6, 56880, Note_on_c, 9, 57, 127
6, 57031, Note_on_c, 9, 57, 0
6, 57360, Note_on_c, 9, 49, 127
6, 57402, Note_on_c, 9, 49, 0
6, 57720, Note_on_c, 9, 46, 127
6, 57785, Note_on_c, 9, 46, 0
6, 57960, Note_on_c, 9, 46, 127
6, 58018, Note_on_c, 9, 46, 0
6, 58080, Note_on_c, 9, 57, 127
6, 58178, Note_on_c, 9, 57, 0
6, 58240, Note_on_c, 9, 46, 127
6, 58306, Note_on_c, 9, 46, 0
6, 58560, Note_on_c, 9, 52, 127
6, 58635, Note_on_c, 9, 52, 0
6, 59040, Note_on_c, 9, 49, 127
6, 59087, Note_on_c, 9, 49, 0
6, 59280, Note_on_c, 9, 49, 127
6, 59313, Note_on_c, 9, 49, 0
6, 59400, Note_on_c, 9, 49, 127
6, 59433, Note_on_c, 9, 49, 0
6, 60000, Note_on_c, 9, 49, 127
6, 60079, Note_on_c, 9, 49, 0
6, 60240, Note_on_c, 9, 46, 127
6, 60325, Note_on_c, 9, 46, 0
6, 60480, Note_on_c, 9, 52, 127
6, 60594, Note_on_c, 9, 52, 0
6, 60640, Note_on_c, 9, 57, 127
6, 60719, Note_on_c, 9, 57, 0
6, 60800, Note_on_c, 9, 52, 127
6, 60849, Note_on_c, 9, 52, 0
6, 61200, Note_on_c, 9, 46, 127
6, 61243, Note_on_c, 9, 46, 0
6, 61440, Note_on_c, 9, 57, 127
6, 61486, Note_on_c, 9, 57, 0
6, 61920, Note_on_c, 9, 49, 127
6, 61957, Note_on_c, 9, 49, 0
6, 62160, Note_on_c, 9, 51, 127
6, 62198, Note_on_c, 9, 51, 0
6, 62400, Note_on_c, 9, 46, 127
6, 62441, Note_on_c, 9, 46, 0
6, 62640, Note_on_c, 9, 46, 127
6, 62704, Note_on_c, 9, 46, 0
6, 63200, Note_on_c, 9, 49, 97
6, 63259, Note_on_c, 9, 49, 0
6, 63360, Note_on_c, 9, 49, 127
6, 63424, Note_on_c, 9, 49, 0
6, 64800, Note_on_c, 9, 57, 127
6, 64916, Note_on_c, 9, 57, 0
6, 65160, Note_on_c, 9, 46, 127
6, 65200, Note_on_c, 9, 46, 0
6, 65280, Note_on_c, 9, 46, 127
6, 65330, Note_on_c, 9, 46, 0
6, 65760, Note_on_c, 9, 52, 127
6, 65783, Note_on_c, 9, 52, 0
6, 66000, Note_on_c, 9, 46, 127
6, 66035, Note_on_c, 9, 46, 0
6, 66120, Note_on_c, 9, 46, 127
6, 66154, Note_on_c, 9, 46, 0
6, 66360, Note_on_c, 9, 46, 127
6, 66393, Note_on_c, 9, 46, 0
6, 66480, Note_on_c, 9, 46, 127
6, 66511, Note_on_c, 9, 46, 0
6, 66600, Note_on_c, 9, 46, 127
6, 66634, Note_on_c, 9, 46, 0
6, 66720, Note_on_c, 9, 46, 127
6, 66752, Note_on_c, 9, 46, 0
6, 66840, Note_on_c, 9, 46, 127
6, 66881, Note_on_c, 9, 46, 0
6, 67080, Note_on_c, 9, 46, 127
6, 67117, Note_on_c, 9, 46, 0
6, 67200, Note_on_c, 9, 55, 127
6, 67262, Note_on_c, 9, 55, 0
6, 67360, Note_on_c, 9, 46, 107
6, 67394, Note_on_c, 9, 46, 0
6, 67520, Note_on_c, 9, 46, 107
6, 67559, Note_on_c, 9, 46, 0
6, 67680, Note_on_c, 9, 46, 107
6, 67733, Note_on_c, 9, 46, 0
6, 67840, Note_on_c, 9, 52, 127
6, 67929, Note_on_c, 9, 52, 0
6, 68160, Note_on_c, 9, 57, 127
6, 68271, Note_on_c, 9, 57, 0
6, 68520, Note_on_c, 9, 55, 127
6, 68545, Note_on_c, 9, 55, 0
6, 68800, Note_on_c, 9, 52, 127
6, 68920, Note_on_c, 9, 52, 0
6, 69120, Note_on_c, 9, 57, 127
6, 69219, Note_on_c, 9, 57, 0
6, 69600, Note_on_c, 9, 49, 127
6, 69649, Note_on_c, 9, 49, 0
6, 69840, Note_on_c, 9, 51, 127
6, 69873, Note_on_c, 9, 51, 0
6, 69960, Note_on_c, 9, 57, 127
6, 70031, Note_on_c, 9, 57, 0
6, 70320, Note_on_c, 9, 46, 127
6, 70380, Note_on_c, 9, 46, 0
6, 70560, Note_on_c, 9, 46, 107
6, 70597, Note_on_c, 9, 46, 0
6, 70680, Note_on_c, 9, 46, 97
6, 70738, Note_on_c, 9, 46, 0
6, 70800, Note_on_c, 9, 49, 127
6, 70849, Note_on_c, 9, 49, 0
6, 71040, Note_on_c, 9, 46, 107
6, 71090, Note_on_c, 9, 46, 0
6, 71160, Note_on_c, 9, 46, 97
6, 71198, Note_on_c, 9, 46, 0
6, 71280, Note_on_c, 9, 46, 107
6, 71317, Note_on_c, 9, 46, 0
6, 71400, Note_on_c, 9, 46, 97
6, 71434, Note_on_c, 9, 46, 0
6, 71520, Note_on_c, 9, 46, 107
6, 71555, Note_on_c, 9, 46, 0
6, 71640, Note_on_c, 9, 46, 97
6, 71681, Note_on_c, 9, 46, 0
6, 71760, Note_on_c, 9, 52, 127
6, 71819, Note_on_c, 9, 52, 0
6, 72000, Note_on_c, 9, 46, 107
6, 72032, Note_on_c, 9, 46, 0
6, 72120, Note_on_c, 9, 46, 97
6, 72143, Note_on_c, 9, 46, 0
6, 72240, Note_on_c, 9, 46, 107
6, 72270, Note_on_c, 9, 46, 0
6, 72360, Note_on_c, 9, 46, 97
6, 72397, Note_on_c, 9, 46, 0
6, 72480, Note_on_c, 9, 46, 107
6, 72518, Note_on_c, 9, 46, 0
6, 72600, Note_on_c, 9, 46, 97
6, 72625, Note_on_c, 9, 46, 0
6, 72720, Note_on_c, 9, 57, 127
6, 72761, Note_on_c, 9, 57, 0
6, 72840, Note_on_c, 9, 46, 97
6, 72867, Note_on_c, 9, 46, 0
6, 73200, Note_on_c, 9, 49, 127
6, 73237, Note_on_c, 9, 49, 0
6, 73440, Note_on_c, 9, 46, 107
6, 73484, Note_on_c, 9, 46, 0
6, 73560, Note_on_c, 9, 46, 97
6, 73594, Note_on_c, 9, 46, 0
6, 73680, Note_on_c, 9, 57, 127
6, 73717, Note_on_c, 9, 57, 0
6, 73920, Note_on_c, 9, 46, 107
6, 73952, Note_on_c, 9, 46, 0
6, 74040, Note_on_c, 9, 46, 97
6, 74074, Note_on_c, 9, 46, 0
6, 74160, Note_on_c, 9, 46, 107
6, 74197, Note_on_c, 9, 46, 0
6, 74280, Note_on_c, 9, 46, 97
6, 74316, Note_on_c, 9, 46, 0
6, 74400, Note_on_c, 9, 49, 127
6, 74446, Note_on_c, 9, 49, 0
6, 74640, Note_on_c, 9, 46, 107
6, 74685, Note_on_c, 9, 46, 0
6, 74880, Note_on_c, 9, 57, 123
6, 74930, Note_on_c, 9, 57, 0
6, 75120, Note_on_c, 9, 46, 107
6, 75157, Note_on_c, 9, 46, 0
6, 75360, Note_on_c, 9, 46, 107
6, 75397, Note_on_c, 9, 46, 0
6, 75600, Note_on_c, 9, 52, 127
6, 75648, Note_on_c, 9, 52, 0
6, 75840, Note_on_c, 9, 46, 107
6, 75883, Note_on_c, 9, 46, 0
6, 76080, Note_on_c, 9, 46, 107
6, 76121, Note_on_c, 9, 46, 0
6, 76320, Note_on_c, 9, 46, 107
6, 76359, Note_on_c, 9, 46, 0
6, 76560, Note_on_c, 9, 44, 107
6, 76609, Note_on_c, 9, 44, 0
6, 76800, Note_on_c, 9, 49, 127
6, 76857, Note_on_c, 9, 49, 0
6, 77040, Note_on_c, 9, 46, 107
6, 77085, Note_on_c, 9, 46, 0
6, 77280, Note_on_c, 9, 46, 107
6, 77324, Note_on_c, 9, 46, 0
6, 77520, Note_on_c, 9, 44, 127
6, 77560, Note_on_c, 9, 44, 0
6, 77760, Note_on_c, 9, 44, 127
6, 77804, Note_on_c, 9, 44, 0
6, 78000, Note_on_c, 9, 57, 127
6, 78058, Note_on_c, 9, 57, 0
6, 78240, Note_on_c, 9, 46, 107
6, 78274, Note_on_c, 9, 46, 0
6, 78360, Note_on_c, 9, 46, 97
6, 78389, Note_on_c, 9, 46, 0
6, 78480, Note_on_c, 9, 49, 127
6, 78514, Note_on_c, 9, 49, 0
6, 78600, Note_on_c, 9, 46, 97
6, 78631, Note_on_c, 9, 46, 0
6, 78720, Note_on_c, 9, 46, 107
6, 78754, Note_on_c, 9, 46, 0
6, 78840, Note_on_c, 9, 46, 97
6, 78870, Note_on_c, 9, 46, 0
6, 78960, Note_on_c, 9, 46, 107
6, 78996, Note_on_c, 9, 46, 0
6, 79080, Note_on_c, 9, 46, 97
6, 79108, Note_on_c, 9, 46, 0
6, 79200, Note_on_c, 9, 46, 127
6, 79280, Note_on_c, 9, 46, 0
6, 79440, Note_on_c, 9, 46, 127
6, 79500, Note_on_c, 9, 46, 0
6, 79680, Note_on_c, 9, 46, 127
6, 79734, Note_on_c, 9, 46, 0
6, 79800, Note_on_c, 9, 46, 127
6, 79837, Note_on_c, 9, 46, 0
6, 79920, Note_on_c, 9, 46, 127
6, 79978, Note_on_c, 9, 46, 0
6, 80160, Note_on_c, 9, 52, 127
6, 80205, Note_on_c, 9, 52, 0
6, 80320, Note_on_c, 9, 46, 127
6, 80370, Note_on_c, 9, 46, 0
6, 80480, Note_on_c, 9, 52, 127
6, 80527, Note_on_c, 9, 52, 0
6, 80640, Note_on_c, 9, 46, 127
6, 80680, Note_on_c, 9, 46, 0
6, 80800, Note_on_c, 9, 52, 127
6, 80836, Note_on_c, 9, 52, 0
6, 80960, Note_on_c, 9, 46, 127
6, 80997, Note_on_c, 9, 46, 0
6, 81120, Note_on_c, 9, 49, 127
6, 81120, Note_on_c, 9, 49, 0
6, 81360, Note_on_c, 9, 46, 127
6, 81413, Note_on_c, 9, 46, 0
6, 81600, Note_on_c, 9, 46, 127
6, 81662, Note_on_c, 9, 46, 0
6, 81720, Note_on_c, 9, 42, 127
6, 81777, Note_on_c, 9, 42, 0
6, 81840, Note_on_c, 9, 46, 127
6, 81882, Note_on_c, 9, 46, 0
6, 81960, Note_on_c, 9, 42, 127
6, 82002, Note_on_c, 9, 42, 0
6, 82076, Note_on_c, 9, 49, 127
6, 82127, Note_on_c, 9, 49, 0
6, 82327, Note_on_c, 9, 52, 119
6, 82396, Note_on_c, 9, 52, 0
6, 82563, Note_on_c, 9, 38, 111
6, 82569, Note_on_c, 9, 46, 127
6, 82606, Note_on_c, 9, 46, 0
6, 82615, Note_on_c, 9, 38, 0
6, 82681, Note_on_c, 9, 38, 123
6, 82690, Note_on_c, 9, 46, 127
6, 82722, Note_on_c, 9, 38, 0
6, 82727, Note_on_c, 9, 46, 0
6, 82806, Note_on_c, 9, 38, 127
6, 82813, Note_on_c, 9, 46, 127
6, 82863, Note_on_c, 9, 46, 0
6, 82875, Note_on_c, 9, 38, 0
6, 83045, Note_on_c, 9, 49, 127
6, 83093, Note_on_c, 9, 49, 0
6, 83246, Note_on_c, 9, 49, 127
6, 83287, Note_on_c, 9, 49, 0
6, 83760, Note_on_c, 9, 57, 127
6, 83794, Note_on_c, 9, 57, 0
6, 83910, Note_on_c, 9, 57, 127
6, 83963, Note_on_c, 9, 57, 0
6, 84000, Note_on_c, 9, 49, 127
6, 84046, Note_on_c, 9, 49, 0
6, 84323, Note_on_c, 9, 52, 127
6, 84366, Note_on_c, 9, 52, 0
6, 84637, Note_on_c, 9, 57, 127
6, 84694, Note_on_c, 9, 57, 0
6, 84960, Note_on_c, 9, 55, 127
6, 85007, Note_on_c, 9, 55, 0
6, 85200, Note_on_c, 9, 46, 127
6, 85257, Note_on_c, 9, 46, 0
6, 85440, Note_on_c, 9, 49, 127
6, 85499, Note_on_c, 9, 49, 0
6, 85680, Note_on_c, 9, 57, 127
6, 85731, Note_on_c, 9, 57, 0
6, 85738, Note_on_c, 9, 49, 127
6, 85794, Note_on_c, 9, 49, 0
6, 85920, Note_on_c, 9, 57, 127
6, 85977, Note_on_c, 9, 57, 0
6, 86160, Note_on_c, 9, 49, 127
6, 86214, Note_on_c, 9, 49, 0
6, 86400, Note_on_c, 9, 52, 123
6, 86448, Note_on_c, 9, 52, 0
6, 86640, Note_on_c, 9, 46, 127
6, 86692, Note_on_c, 9, 46, 0
6, 86784, Note_on_c, 9, 46, 127
6, 86843, Note_on_c, 9, 46, 0
6, 86965, Note_on_c, 9, 49, 127
6, 87040, Note_on_c, 9, 49, 0
6, 87363, Note_on_c, 9, 57, 127
6, 87442, Note_on_c, 9, 57, 0
6, 87845, Note_on_c, 9, 57, 119
6, 87884, Note_on_c, 9, 57, 0
6, 88027, Note_on_c, 9, 49, 123
6, 88068, Note_on_c, 9, 49, 0
6, 88140, Note_on_c, 9, 49, 127
6, 88179, Note_on_c, 9, 49, 0
6, 88243, Note_on_c, 9, 52, 107
6, 88291, Note_on_c, 9, 52, 0
6, 88346, Note_on_c, 9, 52, 127
6, 88396, Note_on_c, 9, 52, 0
6, 88567, Note_on_c, 9, 49, 127
6, 88654, Note_on_c, 9, 49, 0
6, 88800, Note_on_c, 9, 57, 127
6, 88828, Note_on_c, 9, 57, 0
6, 89040, Note_on_c, 9, 46, 127
6, 89085, Note_on_c, 9, 46, 0
6, 89280, Note_on_c, 9, 46, 127
6, 89327, Note_on_c, 9, 46, 0
6, 89520, Note_on_c, 9, 46, 127
6, 89554, Note_on_c, 9, 46, 0
6, 89760, Note_on_c, 9, 46, 127
6, 89797, Note_on_c, 9, 46, 0
6, 90720, Note_on_c, 9, 49, 127
6, 90720, Note_on_c, 9, 49, 0
6, 90958, Note_on_c, 9, 46, 127
6, 91037, Note_on_c, 9, 46, 0
6, 91183, Note_on_c, 9, 46, 127
6, 91238, Note_on_c, 9, 46, 0
6, 91408, Note_on_c, 9, 46, 127
6, 91445, Note_on_c, 9, 46, 0
6, 91558, Note_on_c, 9, 46, 127
6, 91593, Note_on_c, 9, 46, 0
6, 91816, Note_on_c, 9, 57, 107
6, 91879, Note_on_c, 9, 57, 0
6, 91929, Note_on_c, 9, 49, 127
6, 91993, Note_on_c, 9, 49, 0
6, 93120, Note_on_c, 9, 52, 127
6, 93191, Note_on_c, 9, 52, 0
6, 93446, Note_on_c, 9, 46, 127
6, 93508, Note_on_c, 9, 46, 0
6, 93840, Note_on_c, 9, 46, 127
6, 93890, Note_on_c, 9, 46, 0
6, 94080, Note_on_c, 9, 46, 127
6, 94121, Note_on_c, 9, 46, 0
6, 94320, Note_on_c, 9, 46, 127
6, 94365, Note_on_c, 9, 46, 0
6, 94800, Note_on_c, 9, 57, 127
6, 94889, Note_on_c, 9, 57, 0
6, 95360, Note_on_c, 9, 49, 127
6, 95401, Note_on_c, 9, 49, 0
6, 95520, Note_on_c, 9, 49, 127
6, 95570, Note_on_c, 9, 49, 0
6, 95700, Note_on_c, 9, 49, 127
6, 95750, Note_on_c, 9, 49, 0
6, 95880, Note_on_c, 9, 49, 127
6, 95969, Note_on_c, 9, 49, 0
6, 96567, Note_on_c, 9, 46, 127
6, 96652, Note_on_c, 9, 46, 0
6, 98400, Note_on_c, 9, 49, 127
6, 98453, Note_on_c, 9, 49, 0
6, 98640, Note_on_c, 9, 46, 127
6, 98694, Note_on_c, 9, 46, 0
6, 98880, Note_on_c, 9, 57, 127
6, 98934, Note_on_c, 9, 57, 0
6, 99120, Note_on_c, 9, 46, 127
6, 99186, Note_on_c, 9, 46, 0
6, 99360, Note_on_c, 9, 46, 127
6, 99423, Note_on_c, 9, 46, 0
6, 99600, Note_on_c, 9, 46, 127
6, 99658, Note_on_c, 9, 46, 0
6, 99840, Note_on_c, 9, 52, 127
6, 99894, Note_on_c, 9, 52, 0
6, 100080, Note_on_c, 9, 49, 127
6, 100137, Note_on_c, 9, 49, 0
6, 100844, Note_on_c, 9, 46, 127
6, 100888, Note_on_c, 9, 46, 0
6, 101280, Note_on_c, 9, 46, 127
6, 101324, Note_on_c, 9, 46, 0
6, 102240, Note_on_c, 9, 57, 127
6, 102278, Note_on_c, 9, 57, 0
6, 102480, Note_on_c, 9, 46, 127
6, 102514, Note_on_c, 9, 46, 0
6, 102600, Note_on_c, 9, 46, 107
6, 102630, Note_on_c, 9, 46, 0
6, 102720, Note_on_c, 9, 49, 127
6, 102762, Note_on_c, 9, 49, 0
6, 102960, Note_on_c, 9, 46, 127
6, 102994, Note_on_c, 9, 46, 0
6, 103080, Note_on_c, 9, 46, 107
6, 103108, Note_on_c, 9, 46, 0
6, 103200, Note_on_c, 9, 46, 127
6, 103241, Note_on_c, 9, 46, 0
6, 103440, Note_on_c, 9, 46, 127
6, 103471, Note_on_c, 9, 46, 0
6, 103560, Note_on_c, 9, 46, 107
6, 103591, Note_on_c, 9, 46, 0
6, 103680, Note_on_c, 9, 52, 127
6, 103717, Note_on_c, 9, 52, 0
6, 103920, Note_on_c, 9, 46, 127
6, 103948, Note_on_c, 9, 46, 0
6, 104684, Note_on_c, 9, 46, 127
6, 104728, Note_on_c, 9, 46, 0
6, 105120, Note_on_c, 9, 46, 127
6, 105164, Note_on_c, 9, 46, 0
6, 106080, Note_on_c, 9, 46, 127
6, 106161, Note_on_c, 9, 46, 0
6, 107040, Note_on_c, 9, 46, 127
6, 107108, Note_on_c, 9, 46, 0
6, 108000, Note_on_c, 9, 46, 127
6, 108066, Note_on_c, 9, 46, 0
6, 108960, Note_on_c, 9, 46, 127
6, 109022, Note_on_c, 9, 46, 0
6, 109920, Note_on_c, 9, 46, 127
6, 109983, Note_on_c, 9, 46, 0
6, 110880, Note_on_c, 9, 46, 127
6, 110946, Note_on_c, 9, 46, 0
6, 111840, Note_on_c, 9, 46, 127
6, 111886, Note_on_c, 9, 46, 0
6, 112800, Note_on_c, 9, 46, 127
6, 112841, Note_on_c, 9, 46, 0
6, 113760, Note_on_c, 9, 46, 127
6, 113841, Note_on_c, 9, 46, 0
6, 114720, Note_on_c, 9, 46, 127
6, 114788, Note_on_c, 9, 46, 0
6, 115680, Note_on_c, 9, 46, 127
6, 115746, Note_on_c, 9, 46, 0
6, 116640, Note_on_c, 9, 46, 127
6, 116702, Note_on_c, 9, 46, 0
6, 117600, Note_on_c, 9, 46, 127
6, 117663, Note_on_c, 9, 46, 0
6, 118560, Note_on_c, 9, 46, 127
6, 118626, Note_on_c, 9, 46, 0
6, 119520, Note_on_c, 9, 46, 127
6, 119566, Note_on_c, 9, 46, 0
6, 120000, Note_on_c, 9, 46, 127
6, 120120, Note_on_c, 9, 46, 0
6, 120480, Note_on_c, 9, 46, 127
6, 120480, Note_on_c, 9, 46, 127
6, 120521, Note_on_c, 9, 46, 0
6, 120556, Note_on_c, 9, 46, 0
6, 120960, Note_on_c, 9, 49, 127
6, 121033, Note_on_c, 9, 49, 0
6, 121440, Note_on_c, 9, 46, 127
6, 121521, Note_on_c, 9, 46, 0
6, 122400, Note_on_c, 9, 46, 127
6, 122468, Note_on_c, 9, 46, 0
6, 123360, Note_on_c, 9, 46, 127
6, 123426, Note_on_c, 9, 46, 0
6, 124320, Note_on_c, 9, 46, 127
6, 124382, Note_on_c, 9, 46, 0
6, 124800, Note_on_c, 9, 46, 127
6, 124863, Note_on_c, 9, 46, 0
6, 127200, Note_on_c, 9, 46, 127
6, 127281, Note_on_c, 9, 46, 0
6, 128160, Note_on_c, 9, 46, 127
6, 128228, Note_on_c, 9, 46, 0
6, 131520, Note_on_c, 9, 46, 127
6, 131681, Note_on_c, 9, 46, 0
6, 131681, End_track
7, 0, Start_track
7, 0, MIDI_port, 0
7, 0, Title_t, "BASS & SNARE"
7, 200, Note_on_c, 9, 36, 127
7, 240, Note_on_c, 9, 36, 0
7, 240, Note_on_c, 9, 38, 127
7, 355, Note_on_c, 9, 38, 0
7, 480, Note_on_c, 9, 36, 127
7, 544, Note_on_c, 9, 36, 0
7, 840, Note_on_c, 9, 36, 127
7, 886, Note_on_c, 9, 36, 0
7, 1080, Note_on_c, 9, 36, 105
7, 1104, Note_on_c, 9, 36, 0
7, 1120, Note_on_c, 9, 36, 99
7, 1151, Note_on_c, 9, 36, 0
7, 1200, Note_on_c, 9, 38, 127
7, 1268, Note_on_c, 9, 38, 0
7, 1440, Note_on_c, 9, 36, 127
7, 1496, Note_on_c, 9, 36, 0
7, 1560, Note_on_c, 9, 36, 127
7, 1634, Note_on_c, 9, 36, 0
7, 1800, Note_on_c, 9, 38, 123
7, 1841, Note_on_c, 9, 38, 0
7, 2040, Note_on_c, 9, 36, 127
7, 2070, Note_on_c, 9, 36, 0
7, 2080, Note_on_c, 9, 36, 127
7, 2115, Note_on_c, 9, 36, 0
7, 2160, Note_on_c, 9, 38, 123
7, 2201, Note_on_c, 9, 38, 0
7, 2400, Note_on_c, 9, 36, 127
7, 2461, Note_on_c, 9, 36, 0
7, 2760, Note_on_c, 9, 36, 123
7, 2795, Note_on_c, 9, 36, 0
7, 3120, Note_on_c, 9, 38, 127
7, 3178, Note_on_c, 9, 38, 0
7, 3360, Note_on_c, 9, 36, 119
7, 3393, Note_on_c, 9, 36, 0
7, 3480, Note_on_c, 9, 36, 127
7, 3518, Note_on_c, 9, 36, 0
7, 3720, Note_on_c, 9, 38, 127
7, 3754, Note_on_c, 9, 38, 0
7, 3960, Note_on_c, 9, 36, 123
7, 3983, Note_on_c, 9, 36, 0
7, 4000, Note_on_c, 9, 36, 123
7, 4030, Note_on_c, 9, 36, 0
7, 4080, Note_on_c, 9, 38, 123
7, 4143, Note_on_c, 9, 38, 0
7, 4320, Note_on_c, 9, 36, 127
7, 4381, Note_on_c, 9, 36, 0
7, 4680, Note_on_c, 9, 36, 123
7, 4715, Note_on_c, 9, 36, 0
7, 5040, Note_on_c, 9, 38, 127
7, 5098, Note_on_c, 9, 38, 0
7, 5280, Note_on_c, 9, 36, 119
7, 5313, Note_on_c, 9, 36, 0
7, 5400, Note_on_c, 9, 36, 127
7, 5438, Note_on_c, 9, 36, 0
7, 5640, Note_on_c, 9, 38, 127
7, 5674, Note_on_c, 9, 38, 0
7, 5880, Note_on_c, 9, 36, 123
7, 5903, Note_on_c, 9, 36, 0
7, 5920, Note_on_c, 9, 36, 123
7, 5950, Note_on_c, 9, 36, 0
7, 6000, Note_on_c, 9, 38, 123
7, 6063, Note_on_c, 9, 38, 0
7, 6240, Note_on_c, 9, 36, 127
7, 6301, Note_on_c, 9, 36, 0
7, 6600, Note_on_c, 9, 36, 123
7, 6635, Note_on_c, 9, 36, 0
7, 6960, Note_on_c, 9, 38, 127
7, 7018, Note_on_c, 9, 38, 0
7, 7200, Note_on_c, 9, 36, 119
7, 7233, Note_on_c, 9, 36, 0
7, 7320, Note_on_c, 9, 36, 127
7, 7358, Note_on_c, 9, 36, 0
7, 7560, Note_on_c, 9, 38, 127
7, 7594, Note_on_c, 9, 38, 0
7, 7800, Note_on_c, 9, 36, 123
7, 7823, Note_on_c, 9, 36, 0
7, 7840, Note_on_c, 9, 36, 123
7, 7870, Note_on_c, 9, 36, 0
7, 7920, Note_on_c, 9, 38, 123
7, 7983, Note_on_c, 9, 38, 0
7, 8160, Note_on_c, 9, 36, 127
7, 8214, Note_on_c, 9, 36, 0
7, 8520, Note_on_c, 9, 36, 107
7, 8555, Note_on_c, 9, 36, 0
7, 8560, Note_on_c, 9, 36, 127
7, 8595, Note_on_c, 9, 36, 0
7, 8640, Note_on_c, 9, 38, 123
7, 8703, Note_on_c, 9, 38, 0
7, 9120, Note_on_c, 9, 38, 127
7, 9163, Note_on_c, 9, 38, 0
7, 9240, Note_on_c, 9, 38, 119
7, 9286, Note_on_c, 9, 38, 0
7, 9355, Note_on_c, 9, 40, 107
7, 9360, Note_on_c, 9, 38, 127
7, 9419, Note_on_c, 9, 40, 0
7, 9426, Note_on_c, 9, 38, 0
7, 9540, Note_on_c, 9, 36, 107
7, 9566, Note_on_c, 9, 36, 0
7, 9600, Note_on_c, 9, 36, 127
7, 9635, Note_on_c, 9, 36, 0
7, 9960, Note_on_c, 9, 38, 127
7, 9998, Note_on_c, 9, 38, 0
7, 10080, Note_on_c, 9, 36, 127
7, 10117, Note_on_c, 9, 36, 0
7, 10140, Note_on_c, 9, 36, 127
7, 10191, Note_on_c, 9, 36, 0
7, 10200, Note_on_c, 9, 38, 127
7, 10249, Note_on_c, 9, 38, 0
7, 10440, Note_on_c, 9, 36, 127
7, 10496, Note_on_c, 9, 36, 0
7, 10560, Note_on_c, 9, 38, 127
7, 10652, Note_on_c, 9, 38, 0
7, 11160, Note_on_c, 9, 36, 127
7, 11194, Note_on_c, 9, 36, 0
7, 11220, Note_on_c, 9, 36, 113
7, 11266, Note_on_c, 9, 36, 0
7, 11280, Note_on_c, 9, 38, 127
7, 11367, Note_on_c, 9, 38, 0
7, 11520, Note_on_c, 9, 38, 127
7, 11558, Note_on_c, 9, 38, 0
7, 11580, Note_on_c, 9, 38, 123
7, 11623, Note_on_c, 9, 38, 0
7, 12000, Note_on_c, 9, 36, 127
7, 12043, Note_on_c, 9, 36, 0
7, 12080, Note_on_c, 9, 36, 127
7, 12133, Note_on_c, 9, 36, 0
7, 12160, Note_on_c, 9, 36, 127
7, 12207, Note_on_c, 9, 36, 0
7, 12240, Note_on_c, 9, 38, 123
7, 12307, Note_on_c, 9, 38, 0
7, 12360, Note_on_c, 9, 36, 127
7, 12400, Note_on_c, 9, 36, 0
7, 12540, Note_on_c, 9, 36, 127
7, 12578, Note_on_c, 9, 36, 0
7, 12720, Note_on_c, 9, 36, 127
7, 12763, Note_on_c, 9, 36, 0
7, 12840, Note_on_c, 9, 38, 123
7, 12881, Note_on_c, 9, 38, 0
7, 12960, Note_on_c, 9, 36, 127
7, 13003, Note_on_c, 9, 36, 0
7, 13120, Note_on_c, 9, 36, 127
7, 13153, Note_on_c, 9, 36, 0
7, 13200, Note_on_c, 9, 38, 127
7, 13308, Note_on_c, 9, 38, 0
7, 13910, Note_on_c, 9, 40, 107
7, 13920, Note_on_c, 9, 38, 127
7, 13998, Note_on_c, 9, 40, 0
7, 13999, Note_on_c, 9, 36, 117
7, 14017, Note_on_c, 9, 38, 0
7, 14036, Note_on_c, 9, 36, 0
7, 14065, Note_on_c, 9, 36, 127
7, 14094, Note_on_c, 9, 36, 0
7, 14106, Note_on_c, 9, 36, 117
7, 14137, Note_on_c, 9, 36, 0
7, 14157, Note_on_c, 9, 36, 127
7, 14191, Note_on_c, 9, 36, 0
7, 14203, Note_on_c, 9, 36, 117
7, 14236, Note_on_c, 9, 36, 0
7, 14256, Note_on_c, 9, 36, 127
7, 14290, Note_on_c, 9, 36, 0
7, 14299, Note_on_c, 9, 36, 117
7, 14333, Note_on_c, 9, 36, 0
7, 14348, Note_on_c, 9, 36, 127
7, 14383, Note_on_c, 9, 36, 0
7, 14400, Note_on_c, 9, 38, 127
7, 14523, Note_on_c, 9, 38, 0
7, 14640, Note_on_c, 9, 36, 127
7, 14698, Note_on_c, 9, 36, 0
7, 14760, Note_on_c, 9, 38, 127
7, 14800, Note_on_c, 9, 36, 127
7, 14830, Note_on_c, 9, 36, 0
7, 14840, Note_on_c, 9, 36, 127
7, 14880, Note_on_c, 9, 36, 127
7, 14892, Note_on_c, 9, 38, 0
7, 14934, Note_on_c, 9, 36, 0
7, 14974, Note_on_c, 9, 36, 0
7, 15120, Note_on_c, 9, 36, 127
7, 15120, Note_on_c, 9, 38, 127
7, 15151, Note_on_c, 9, 36, 0
7, 15166, Note_on_c, 9, 36, 127
7, 15204, Note_on_c, 9, 36, 0
7, 15232, Note_on_c, 9, 38, 0
7, 15360, Note_on_c, 9, 36, 127
7, 15399, Note_on_c, 9, 36, 0
7, 15420, Note_on_c, 9, 36, 127
7, 15466, Note_on_c, 9, 36, 0
7, 15480, Note_on_c, 9, 38, 127
7, 15564, Note_on_c, 9, 38, 0
7, 15600, Note_on_c, 9, 36, 119
7, 15651, Note_on_c, 9, 36, 0
7, 15720, Note_on_c, 9, 36, 119
7, 15777, Note_on_c, 9, 36, 0
7, 15840, Note_on_c, 9, 36, 127
7, 15890, Note_on_c, 9, 36, 0
7, 16200, Note_on_c, 9, 36, 127
7, 16233, Note_on_c, 9, 36, 0
7, 16260, Note_on_c, 9, 36, 127
7, 16298, Note_on_c, 9, 36, 0
7, 16320, Note_on_c, 9, 38, 127
7, 16381, Note_on_c, 9, 38, 0
7, 16560, Note_on_c, 9, 38, 127
7, 16633, Note_on_c, 9, 38, 0
7, 16920, Note_on_c, 9, 36, 119
7, 16958, Note_on_c, 9, 36, 0
7, 17040, Note_on_c, 9, 36, 127
7, 17118, Note_on_c, 9, 36, 0
7, 17400, Note_on_c, 9, 36, 123
7, 17469, Note_on_c, 9, 36, 0
7, 17520, Note_on_c, 9, 38, 127
7, 17612, Note_on_c, 9, 38, 0
7, 17940, Note_on_c, 9, 38, 107
7, 17964, Note_on_c, 9, 38, 0
7, 18000, Note_on_c, 9, 38, 127
7, 18024, Note_on_c, 9, 38, 0
7, 18040, Note_on_c, 9, 38, 87
7, 18074, Note_on_c, 9, 38, 0
7, 18080, Note_on_c, 9, 38, 57
7, 18114, Note_on_c, 9, 38, 0
7, 18120, Note_on_c, 9, 38, 127
7, 18180, Note_on_c, 9, 38, 127
7, 18201, Note_on_c, 9, 38, 0
7, 18261, Note_on_c, 9, 38, 0
7, 18300, Note_on_c, 9, 38, 127
7, 18381, Note_on_c, 9, 38, 0
7, 18420, Note_on_c, 9, 38, 127
7, 18478, Note_on_c, 9, 40, 107
7, 18480, Note_on_c, 9, 38, 127
7, 18501, Note_on_c, 9, 38, 0
7, 18527, Note_on_c, 9, 40, 0
7, 18535, Note_on_c, 9, 38, 0
7, 19680, Note_on_c, 9, 36, 127
7, 19764, Note_on_c, 9, 36, 0
7, 20040, Note_on_c, 9, 36, 127
7, 20096, Note_on_c, 9, 36, 0
7, 20144, Note_on_c, 9, 38, 127
7, 20236, Note_on_c, 9, 38, 0
7, 20520, Note_on_c, 9, 36, 127
7, 20592, Note_on_c, 9, 36, 0
7, 20640, Note_on_c, 9, 38, 127
7, 20732, Note_on_c, 9, 38, 0
7, 20800, Note_on_c, 9, 36, 127
7, 20858, Note_on_c, 9, 36, 0
7, 20960, Note_on_c, 9, 38, 127
7, 21032, Note_on_c, 9, 38, 0
7, 21120, Note_on_c, 9, 38, 119
7, 21120, Note_on_c, 9, 36, 127
7, 21170, Note_on_c, 9, 36, 0
7, 21170, Note_on_c, 9, 38, 0
7, 21200, Note_on_c, 9, 38, 119
7, 21265, Note_on_c, 9, 38, 0
7, 21600, Note_on_c, 9, 36, 127
7, 21658, Note_on_c, 9, 36, 0
7, 21673, Note_on_c, 9, 38, 127
7, 21731, Note_on_c, 9, 38, 0
7, 22045, Note_on_c, 9, 38, 127
7, 22103, Note_on_c, 9, 38, 0
7, 22192, Note_on_c, 9, 38, 127
7, 22250, Note_on_c, 9, 38, 0
7, 22560, Note_on_c, 9, 36, 127
7, 22652, Note_on_c, 9, 36, 0
7, 22920, Note_on_c, 9, 36, 127
7, 22974, Note_on_c, 9, 36, 0
7, 23160, Note_on_c, 9, 38, 127
7, 23190, Note_on_c, 9, 38, 0
7, 23220, Note_on_c, 9, 38, 127
7, 23258, Note_on_c, 9, 38, 0
7, 23520, Note_on_c, 9, 36, 127
7, 23597, Note_on_c, 9, 36, 0
7, 23880, Note_on_c, 9, 38, 127
7, 23950, Note_on_c, 9, 38, 0
7, 24120, Note_on_c, 9, 36, 127
7, 24154, Note_on_c, 9, 36, 0
7, 24180, Note_on_c, 9, 36, 127
7, 24221, Note_on_c, 9, 36, 0
7, 24240, Note_on_c, 9, 38, 127
7, 24293, Note_on_c, 9, 38, 0
7, 24710, Note_on_c, 9, 40, 107
7, 24720, Note_on_c, 9, 38, 127
7, 24778, Note_on_c, 9, 40, 0
7, 24780, Note_on_c, 9, 38, 0
7, 24960, Note_on_c, 9, 38, 127
7, 25070, Note_on_c, 9, 38, 0
7, 25120, Note_on_c, 9, 36, 127
7, 25166, Note_on_c, 9, 36, 0
7, 25280, Note_on_c, 9, 36, 127
7, 25332, Note_on_c, 9, 36, 0
7, 25440, Note_on_c, 9, 36, 127
7, 25502, Note_on_c, 9, 36, 0
7, 25600, Note_on_c, 9, 36, 127
7, 25658, Note_on_c, 9, 36, 0
7, 25680, Note_on_c, 9, 38, 111
7, 25727, Note_on_c, 9, 38, 0
7, 25760, Note_on_c, 9, 36, 127
7, 25814, Note_on_c, 9, 36, 0
7, 25920, Note_on_c, 9, 36, 127
7, 25973, Note_on_c, 9, 36, 0
7, 26040, Note_on_c, 9, 36, 127
7, 26073, Note_on_c, 9, 36, 0
7, 26100, Note_on_c, 9, 36, 123
7, 26146, Note_on_c, 9, 36, 0
7, 26160, Note_on_c, 9, 38, 127
7, 26197, Note_on_c, 9, 38, 0
7, 26400, Note_on_c, 9, 36, 127
7, 26449, Note_on_c, 9, 36, 0
7, 26560, Note_on_c, 9, 36, 127
7, 26615, Note_on_c, 9, 36, 0
7, 26720, Note_on_c, 9, 38, 127
7, 26785, Note_on_c, 9, 38, 0
7, 26880, Note_on_c, 9, 36, 127
7, 26929, Note_on_c, 9, 36, 0
7, 27040, Note_on_c, 9, 38, 127
7, 27097, Note_on_c, 9, 38, 0
7, 27200, Note_on_c, 9, 36, 127
7, 27244, Note_on_c, 9, 36, 0
7, 27360, Note_on_c, 9, 36, 127
7, 27445, Note_on_c, 9, 36, 0
7, 27600, Note_on_c, 9, 38, 127
7, 27668, Note_on_c, 9, 38, 0
7, 27960, Note_on_c, 9, 36, 127
7, 27997, Note_on_c, 9, 36, 0
7, 28020, Note_on_c, 9, 36, 127
7, 28066, Note_on_c, 9, 36, 0
7, 28080, Note_on_c, 9, 38, 127
7, 28133, Note_on_c, 9, 38, 0
7, 28800, Note_on_c, 9, 38, 127
7, 28885, Note_on_c, 9, 38, 0
7, 28920, Note_on_c, 9, 36, 127
7, 28966, Note_on_c, 9, 36, 0
7, 29040, Note_on_c, 9, 38, 127
7, 29130, Note_on_c, 9, 38, 0
7, 29400, Note_on_c, 9, 36, 107
7, 29433, Note_on_c, 9, 36, 0
7, 29460, Note_on_c, 9, 36, 127
7, 29503, Note_on_c, 9, 36, 0
7, 29520, Note_on_c, 9, 38, 97
7, 29520, Note_on_c, 9, 36, 127
7, 29565, Note_on_c, 9, 36, 0
7, 29565, Note_on_c, 9, 38, 0
7, 29760, Note_on_c, 9, 38, 127
7, 29814, Note_on_c, 9, 38, 0
7, 30000, Note_on_c, 9, 38, 97
7, 30032, Note_on_c, 9, 38, 0
7, 30360, Note_on_c, 9, 36, 95
7, 30400, Note_on_c, 9, 36, 0
7, 30420, Note_on_c, 9, 36, 107
7, 30461, Note_on_c, 9, 36, 0
7, 30480, Note_on_c, 9, 38, 101
7, 30524, Note_on_c, 9, 38, 0
7, 30540, Note_on_c, 9, 38, 87
7, 30582, Note_on_c, 9, 38, 0
7, 30600, Note_on_c, 9, 36, 93
7, 30640, Note_on_c, 9, 36, 0
7, 30720, Note_on_c, 9, 36, 127
7, 30766, Note_on_c, 9, 36, 0
7, 30960, Note_on_c, 9, 36, 127
7, 31006, Note_on_c, 9, 36, 0
7, 31320, Note_on_c, 9, 36, 119
7, 31357, Note_on_c, 9, 36, 0
7, 31380, Note_on_c, 9, 36, 127
7, 31420, Note_on_c, 9, 36, 0
7, 31440, Note_on_c, 9, 38, 127
7, 31494, Note_on_c, 9, 38, 0
7, 31560, Note_on_c, 9, 36, 99
7, 31606, Note_on_c, 9, 36, 0
7, 31680, Note_on_c, 9, 36, 127
7, 31787, Note_on_c, 9, 36, 0
7, 31920, Note_on_c, 9, 38, 127
7, 31987, Note_on_c, 9, 38, 0
7, 32160, Note_on_c, 9, 36, 127
7, 32214, Note_on_c, 9, 36, 0
7, 32520, Note_on_c, 9, 36, 127
7, 32552, Note_on_c, 9, 36, 0
7, 32730, Note_on_c, 9, 38, 67
7, 32760, Note_on_c, 9, 38, 107
7, 32765, Note_on_c, 9, 38, 0
7, 32793, Note_on_c, 9, 38, 0
7, 32880, Note_on_c, 9, 36, 127
7, 32950, Note_on_c, 9, 36, 0
7, 33120, Note_on_c, 9, 36, 127
7, 33169, Note_on_c, 9, 36, 0
7, 33300, Note_on_c, 9, 36, 111
7, 33337, Note_on_c, 9, 36, 0
7, 33360, Note_on_c, 9, 38, 127
7, 33406, Note_on_c, 9, 38, 0
7, 33720, Note_on_c, 9, 36, 119
7, 33761, Note_on_c, 9, 36, 0
7, 33780, Note_on_c, 9, 36, 127
7, 33826, Note_on_c, 9, 36, 0
7, 33840, Note_on_c, 9, 38, 127
7, 33881, Note_on_c, 9, 38, 0
7, 33900, Note_on_c, 9, 36, 127
7, 33943, Note_on_c, 9, 36, 0
7, 34080, Note_on_c, 9, 36, 127
7, 34129, Note_on_c, 9, 36, 0
7, 34560, Note_on_c, 9, 36, 127
7, 34613, Note_on_c, 9, 36, 0
7, 34740, Note_on_c, 9, 36, 127
7, 34795, Note_on_c, 9, 36, 0
7, 34800, Note_on_c, 9, 38, 127
7, 34846, Note_on_c, 9, 38, 0
7, 35220, Note_on_c, 9, 38, 105
7, 35264, Note_on_c, 9, 38, 0
7, 35280, Note_on_c, 9, 38, 127
7, 35321, Note_on_c, 9, 38, 0
7, 35337, Note_on_c, 9, 38, 107
7, 35379, Note_on_c, 9, 38, 0
7, 35760, Note_on_c, 9, 36, 127
7, 35839, Note_on_c, 9, 36, 0
7, 36120, Note_on_c, 9, 36, 123
7, 36153, Note_on_c, 9, 36, 0
7, 36180, Note_on_c, 9, 36, 127
7, 36229, Note_on_c, 9, 36, 0
7, 36240, Note_on_c, 9, 38, 127
7, 36301, Note_on_c, 9, 38, 0
7, 36600, Note_on_c, 9, 36, 127
7, 36637, Note_on_c, 9, 36, 0
7, 36660, Note_on_c, 9, 36, 127
7, 36713, Note_on_c, 9, 36, 0
7, 36720, Note_on_c, 9, 38, 127
7, 36785, Note_on_c, 9, 38, 0
7, 36960, Note_on_c, 9, 38, 127
7, 37018, Note_on_c, 9, 38, 0
7, 37080, Note_on_c, 9, 36, 115
7, 37146, Note_on_c, 9, 36, 0
7, 37200, Note_on_c, 9, 38, 127
7, 37270, Note_on_c, 9, 38, 0
7, 37320, Note_on_c, 9, 36, 127
7, 37361, Note_on_c, 9, 36, 0
7, 37440, Note_on_c, 9, 36, 127
7, 37514, Note_on_c, 9, 36, 0
7, 37560, Note_on_c, 9, 38, 127
7, 37600, Note_on_c, 9, 38, 0
7, 37680, Note_on_c, 9, 38, 127
7, 37734, Note_on_c, 9, 38, 0
7, 37840, Note_on_c, 9, 36, 119
7, 37877, Note_on_c, 9, 36, 0
7, 37920, Note_on_c, 9, 36, 127
7, 37990, Note_on_c, 9, 36, 0
7, 38080, Note_on_c, 9, 38, 115
7, 38176, Note_on_c, 9, 38, 0
7, 38240, Note_on_c, 9, 36, 127
7, 38351, Note_on_c, 9, 36, 0
7, 38400, Note_on_c, 9, 38, 127
7, 38488, Note_on_c, 9, 38, 0
7, 38560, Note_on_c, 9, 36, 127
7, 38683, Note_on_c, 9, 36, 0
7, 38720, Note_on_c, 9, 38, 127
7, 38767, Note_on_c, 9, 38, 0
7, 38880, Note_on_c, 9, 36, 127
7, 38938, Note_on_c, 9, 36, 0
7, 39120, Note_on_c, 9, 38, 127
7, 39194, Note_on_c, 9, 38, 0
7, 39480, Note_on_c, 9, 36, 123
7, 39517, Note_on_c, 9, 36, 0
7, 39540, Note_on_c, 9, 36, 127
7, 39582, Note_on_c, 9, 36, 0
7, 39600, Note_on_c, 9, 38, 127
7, 39686, Note_on_c, 9, 38, 0
7, 39830, Note_on_c, 9, 40, 111
7, 39840, Note_on_c, 9, 38, 123
7, 39855, Note_on_c, 9, 40, 0
7, 39868, Note_on_c, 9, 38, 0
7, 39890, Note_on_c, 9, 40, 123
7, 39900, Note_on_c, 9, 38, 123
7, 39923, Note_on_c, 9, 40, 0
7, 39932, Note_on_c, 9, 38, 0
7, 40010, Note_on_c, 9, 40, 115
7, 40020, Note_on_c, 9, 38, 123
7, 40033, Note_on_c, 9, 40, 0
7, 40043, Note_on_c, 9, 38, 0
7, 40070, Note_on_c, 9, 40, 115
7, 40080, Note_on_c, 9, 38, 123
7, 40093, Note_on_c, 9, 40, 0
7, 40103, Note_on_c, 9, 38, 0
7, 40190, Note_on_c, 9, 38, 123
7, 40200, Note_on_c, 9, 40, 123
7, 40231, Note_on_c, 9, 38, 0
7, 40237, Note_on_c, 9, 40, 0
7, 40250, Note_on_c, 9, 38, 111
7, 40260, Note_on_c, 9, 40, 107
7, 40271, Note_on_c, 9, 38, 0
7, 40281, Note_on_c, 9, 40, 0
7, 40310, Note_on_c, 9, 38, 127
7, 40320, Note_on_c, 9, 40, 123
7, 40353, Note_on_c, 9, 38, 0
7, 40363, Note_on_c, 9, 40, 0
7, 40440, Note_on_c, 9, 36, 127
7, 40474, Note_on_c, 9, 36, 0
7, 40500, Note_on_c, 9, 36, 127
7, 40542, Note_on_c, 9, 36, 0
7, 40560, Note_on_c, 9, 36, 127
7, 40601, Note_on_c, 9, 36, 0
7, 40680, Note_on_c, 9, 36, 119
7, 40717, Note_on_c, 9, 36, 0
7, 40740, Note_on_c, 9, 36, 127
7, 40786, Note_on_c, 9, 36, 0
7, 40800, Note_on_c, 9, 36, 127
7, 40849, Note_on_c, 9, 36, 0
7, 40980, Note_on_c, 9, 38, 99
7, 41022, Note_on_c, 9, 38, 0
7, 41040, Note_on_c, 9, 38, 117
7, 41068, Note_on_c, 9, 38, 0
7, 41080, Note_on_c, 9, 38, 87
7, 41108, Note_on_c, 9, 38, 0
7, 41120, Note_on_c, 9, 38, 67
7, 41148, Note_on_c, 9, 38, 0
7, 41160, Note_on_c, 9, 38, 127
7, 41191, Note_on_c, 9, 38, 0
7, 41220, Note_on_c, 9, 38, 115
7, 41255, Note_on_c, 9, 38, 0
7, 41280, Note_on_c, 9, 38, 127
7, 41313, Note_on_c, 9, 38, 0
7, 41340, Note_on_c, 9, 38, 127
7, 41373, Note_on_c, 9, 38, 0
7, 41400, Note_on_c, 9, 36, 107
7, 41437, Note_on_c, 9, 36, 0
7, 41445, Note_on_c, 9, 36, 87
7, 41482, Note_on_c, 9, 36, 0
7, 41495, Note_on_c, 9, 36, 107
7, 41532, Note_on_c, 9, 36, 0
7, 41580, Note_on_c, 9, 36, 107
7, 41625, Note_on_c, 9, 36, 87
7, 41626, Note_on_c, 9, 36, 0
7, 41670, Note_on_c, 9, 36, 107
7, 41671, Note_on_c, 9, 36, 0
7, 41716, Note_on_c, 9, 36, 0
7, 41760, Note_on_c, 9, 36, 107
7, 41805, Note_on_c, 9, 36, 87
7, 41809, Note_on_c, 9, 36, 0
7, 41850, Note_on_c, 9, 36, 107
7, 41854, Note_on_c, 9, 36, 0
7, 41899, Note_on_c, 9, 36, 0
7, 42000, Note_on_c, 9, 36, 99
7, 42000, Note_on_c, 9, 38, 127
7, 42017, Note_on_c, 9, 36, 0
7, 42045, Note_on_c, 9, 36, 79
7, 42046, Note_on_c, 9, 38, 0
7, 42062, Note_on_c, 9, 36, 0
7, 42090, Note_on_c, 9, 36, 99
7, 42107, Note_on_c, 9, 36, 0
7, 42120, Note_on_c, 9, 36, 97
7, 42120, Note_on_c, 9, 38, 123
7, 42160, Note_on_c, 9, 36, 0
7, 42161, Note_on_c, 9, 38, 0
7, 42165, Note_on_c, 9, 36, 77
7, 42205, Note_on_c, 9, 36, 0
7, 42210, Note_on_c, 9, 36, 97
7, 42240, Note_on_c, 9, 36, 97
7, 42240, Note_on_c, 9, 38, 127
7, 42250, Note_on_c, 9, 36, 0
7, 42261, Note_on_c, 9, 36, 0
7, 42285, Note_on_c, 9, 36, 77
7, 42306, Note_on_c, 9, 36, 0
7, 42307, Note_on_c, 9, 38, 0
7, 42330, Note_on_c, 9, 36, 97
7, 42351, Note_on_c, 9, 36, 0
7, 42420, Note_on_c, 9, 36, 97
7, 42420, Note_on_c, 9, 38, 127
7, 42441, Note_on_c, 9, 36, 0
7, 42453, Note_on_c, 9, 38, 0
7, 42465, Note_on_c, 9, 36, 77
7, 42486, Note_on_c, 9, 36, 0
7, 42510, Note_on_c, 9, 36, 97
7, 42531, Note_on_c, 9, 36, 0
7, 42720, Note_on_c, 9, 36, 99
7, 42737, Note_on_c, 9, 36, 0
7, 42765, Note_on_c, 9, 36, 79
7, 42782, Note_on_c, 9, 36, 0
7, 42810, Note_on_c, 9, 36, 99
7, 42827, Note_on_c, 9, 36, 0
7, 42900, Note_on_c, 9, 38, 127
7, 42941, Note_on_c, 9, 38, 0
7, 42960, Note_on_c, 9, 36, 99
7, 42960, Note_on_c, 9, 38, 87
7, 42977, Note_on_c, 9, 36, 0
7, 42997, Note_on_c, 9, 38, 0
7, 43005, Note_on_c, 9, 36, 79
7, 43020, Note_on_c, 9, 38, 75
7, 43022, Note_on_c, 9, 36, 0
7, 43050, Note_on_c, 9, 36, 99
7, 43061, Note_on_c, 9, 38, 0
7, 43067, Note_on_c, 9, 36, 0
7, 43080, Note_on_c, 9, 36, 97
7, 43080, Note_on_c, 9, 38, 87
7, 43117, Note_on_c, 9, 38, 0
7, 43120, Note_on_c, 9, 36, 0
7, 43125, Note_on_c, 9, 36, 77
7, 43140, Note_on_c, 9, 38, 73
7, 43165, Note_on_c, 9, 36, 0
7, 43170, Note_on_c, 9, 36, 97
7, 43180, Note_on_c, 9, 38, 0
7, 43190, Note_on_c, 9, 40, 107
7, 43200, Note_on_c, 9, 36, 97
7, 43200, Note_on_c, 9, 38, 123
7, 43210, Note_on_c, 9, 36, 0
7, 43221, Note_on_c, 9, 36, 0
7, 43227, Note_on_c, 9, 40, 0
7, 43240, Note_on_c, 9, 38, 0
7, 43245, Note_on_c, 9, 36, 77
7, 43266, Note_on_c, 9, 36, 0
7, 43290, Note_on_c, 9, 36, 97
7, 43310, Note_on_c, 9, 40, 101
7, 43311, Note_on_c, 9, 36, 0
7, 43320, Note_on_c, 9, 38, 127
7, 43343, Note_on_c, 9, 40, 0
7, 43357, Note_on_c, 9, 38, 0
7, 43380, Note_on_c, 9, 36, 97
7, 43401, Note_on_c, 9, 36, 0
7, 43425, Note_on_c, 9, 36, 77
7, 43430, Note_on_c, 9, 40, 127
7, 43440, Note_on_c, 9, 38, 127
7, 43446, Note_on_c, 9, 36, 0
7, 43470, Note_on_c, 9, 36, 97
7, 43472, Note_on_c, 9, 40, 0
7, 43485, Note_on_c, 9, 38, 0
7, 43491, Note_on_c, 9, 36, 0
7, 43680, Note_on_c, 9, 36, 127
7, 43708, Note_on_c, 9, 36, 0
7, 44040, Note_on_c, 9, 38, 127
7, 44064, Note_on_c, 9, 38, 0
7, 44100, Note_on_c, 9, 36, 127
7, 44140, Note_on_c, 9, 36, 0
7, 44240, Note_on_c, 9, 36, 127
7, 44285, Note_on_c, 9, 36, 0
7, 44340, Note_on_c, 9, 38, 111
7, 44368, Note_on_c, 9, 38, 0
7, 44400, Note_on_c, 9, 36, 127
7, 44442, Note_on_c, 9, 36, 0
7, 44544, Note_on_c, 9, 36, 127
7, 44597, Note_on_c, 9, 36, 0
7, 44736, Note_on_c, 9, 38, 127
7, 44806, Note_on_c, 9, 38, 0
7, 44832, Note_on_c, 9, 36, 119
7, 44877, Note_on_c, 9, 36, 0
7, 44928, Note_on_c, 9, 38, 127
7, 44953, Note_on_c, 9, 38, 0
7, 45024, Note_on_c, 9, 36, 127
7, 45070, Note_on_c, 9, 36, 0
7, 45120, Note_on_c, 9, 38, 127
7, 45164, Note_on_c, 9, 38, 0
7, 45216, Note_on_c, 9, 36, 127
7, 45254, Note_on_c, 9, 36, 0
7, 45312, Note_on_c, 9, 36, 107
7, 45349, Note_on_c, 9, 36, 0
7, 45408, Note_on_c, 9, 38, 127
7, 45463, Note_on_c, 9, 38, 0
7, 45504, Note_on_c, 9, 36, 127
7, 45542, Note_on_c, 9, 36, 0
7, 45600, Note_on_c, 9, 38, 127
7, 45644, Note_on_c, 9, 38, 0
7, 45696, Note_on_c, 9, 36, 127
7, 45733, Note_on_c, 9, 36, 0
7, 45792, Note_on_c, 9, 36, 127
7, 45828, Note_on_c, 9, 36, 0
7, 45888, Note_on_c, 9, 38, 127
7, 45932, Note_on_c, 9, 38, 0
7, 45984, Note_on_c, 9, 36, 127
7, 46021, Note_on_c, 9, 36, 0
7, 46080, Note_on_c, 9, 36, 127
7, 46115, Note_on_c, 9, 36, 0
7, 46320, Note_on_c, 9, 38, 127
7, 46370, Note_on_c, 9, 38, 0
7, 46560, Note_on_c, 9, 36, 127
7, 46601, Note_on_c, 9, 36, 0
7, 46920, Note_on_c, 9, 36, 127
7, 46957, Note_on_c, 9, 36, 0
7, 47160, Note_on_c, 9, 36, 115
7, 47194, Note_on_c, 9, 36, 0
7, 47220, Note_on_c, 9, 36, 127
7, 47264, Note_on_c, 9, 36, 0
7, 47280, Note_on_c, 9, 36, 127
7, 47317, Note_on_c, 9, 36, 0
7, 47640, Note_on_c, 9, 38, 103
7, 47674, Note_on_c, 9, 38, 0
7, 47700, Note_on_c, 9, 38, 103
7, 47739, Note_on_c, 9, 38, 0
7, 47760, Note_on_c, 9, 38, 119
7, 47793, Note_on_c, 9, 38, 0
7, 47820, Note_on_c, 9, 38, 123
7, 47850, Note_on_c, 9, 38, 0
7, 48480, Note_on_c, 9, 36, 127
7, 48516, Note_on_c, 9, 36, 0
7, 48540, Note_on_c, 9, 38, 127
7, 48577, Note_on_c, 9, 38, 0
7, 48600, Note_on_c, 9, 38, 127
7, 48618, Note_on_c, 9, 36, 127
7, 48640, Note_on_c, 9, 38, 0
7, 48664, Note_on_c, 9, 36, 0
7, 48720, Note_on_c, 9, 36, 127
7, 48720, Note_on_c, 9, 38, 127
7, 48760, Note_on_c, 9, 38, 0
7, 48766, Note_on_c, 9, 36, 0
7, 48840, Note_on_c, 9, 36, 127
7, 48882, Note_on_c, 9, 36, 0
7, 48960, Note_on_c, 9, 36, 127
7, 49013, Note_on_c, 9, 36, 0
7, 49020, Note_on_c, 9, 38, 127
7, 49072, Note_on_c, 9, 38, 0
7, 49080, Note_on_c, 9, 36, 127
7, 49133, Note_on_c, 9, 36, 0
7, 49260, Note_on_c, 9, 36, 127
7, 49313, Note_on_c, 9, 36, 0
7, 49440, Note_on_c, 9, 36, 127
7, 49505, Note_on_c, 9, 36, 0
7, 49620, Note_on_c, 9, 36, 127
7, 49685, Note_on_c, 9, 36, 0
7, 49800, Note_on_c, 9, 36, 127
7, 49860, Note_on_c, 9, 36, 0
7, 49980, Note_on_c, 9, 36, 127
7, 50040, Note_on_c, 9, 36, 0
7, 50160, Note_on_c, 9, 36, 127
7, 50220, Note_on_c, 9, 36, 0
7, 50340, Note_on_c, 9, 36, 127
7, 50400, Note_on_c, 9, 36, 0
7, 50520, Note_on_c, 9, 36, 127
7, 50580, Note_on_c, 9, 36, 0
7, 50640, Note_on_c, 9, 38, 127
7, 50700, Note_on_c, 9, 36, 127
7, 50721, Note_on_c, 9, 38, 0
7, 50760, Note_on_c, 9, 36, 0
7, 50880, Note_on_c, 9, 36, 127
7, 50940, Note_on_c, 9, 36, 0
7, 51060, Note_on_c, 9, 36, 127
7, 51120, Note_on_c, 9, 36, 0
7, 51120, Note_on_c, 9, 38, 127
7, 51180, Note_on_c, 9, 38, 0
7, 51180, Note_on_c, 9, 38, 127
7, 51240, Note_on_c, 9, 38, 0
7, 51240, Note_on_c, 9, 36, 127
7, 51300, Note_on_c, 9, 36, 0
7, 51300, Note_on_c, 9, 36, 127
7, 51360, Note_on_c, 9, 36, 0
7, 51600, Note_on_c, 9, 38, 127
7, 51660, Note_on_c, 9, 38, 0
7, 51660, Note_on_c, 9, 38, 127
7, 51720, Note_on_c, 9, 38, 0
7, 51720, Note_on_c, 9, 36, 127
7, 51780, Note_on_c, 9, 36, 0
7, 51780, Note_on_c, 9, 36, 127
7, 51840, Note_on_c, 9, 36, 0
7, 52320, Note_on_c, 9, 38, 127
7, 52380, Note_on_c, 9, 38, 0
7, 52380, Note_on_c, 9, 38, 127
7, 52440, Note_on_c, 9, 38, 0
7, 52440, Note_on_c, 9, 36, 127
7, 52500, Note_on_c, 9, 36, 0
7, 52500, Note_on_c, 9, 36, 127
7, 52560, Note_on_c, 9, 36, 0
7, 53040, Note_on_c, 9, 38, 127
7, 53100, Note_on_c, 9, 38, 0
7, 53100, Note_on_c, 9, 38, 127
7, 53160, Note_on_c, 9, 38, 0
7, 53160, Note_on_c, 9, 36, 127
7, 53220, Note_on_c, 9, 36, 0
7, 53220, Note_on_c, 9, 36, 127
7, 53280, Note_on_c, 9, 36, 0
7, 53280, Note_on_c, 9, 36, 127
7, 53290, Note_on_c, 9, 36, 0
7, 53640, Note_on_c, 9, 36, 127
7, 53675, Note_on_c, 9, 36, 0
7, 53760, Note_on_c, 9, 38, 127
7, 53840, Note_on_c, 9, 38, 0
7, 53990, Note_on_c, 9, 40, 107
7, 54000, Note_on_c, 9, 38, 127
7, 54056, Note_on_c, 9, 40, 0
7, 54067, Note_on_c, 9, 38, 0
7, 54240, Note_on_c, 9, 36, 127
7, 54295, Note_on_c, 9, 36, 0
7, 54360, Note_on_c, 9, 38, 127
7, 54407, Note_on_c, 9, 38, 0
7, 54720, Note_on_c, 9, 36, 127
7, 54766, Note_on_c, 9, 36, 0
7, 54840, Note_on_c, 9, 38, 127
7, 54880, Note_on_c, 9, 38, 0
7, 54960, Note_on_c, 9, 38, 127
7, 55005, Note_on_c, 9, 38, 0
7, 55080, Note_on_c, 9, 38, 127
7, 55124, Note_on_c, 9, 38, 0
7, 55200, Note_on_c, 9, 36, 127
7, 55200, Note_on_c, 9, 36, 0
7, 55540, Note_on_c, 9, 40, 127
7, 55560, Note_on_c, 9, 38, 127
7, 55596, Note_on_c, 9, 40, 0
7, 55609, Note_on_c, 9, 38, 0
7, 55680, Note_on_c, 9, 36, 127
7, 55733, Note_on_c, 9, 36, 0
7, 55840, Note_on_c, 9, 36, 127
7, 55898, Note_on_c, 9, 36, 0
7, 56000, Note_on_c, 9, 36, 127
7, 56053, Note_on_c, 9, 36, 0
7, 56160, Note_on_c, 9, 36, 127
7, 56220, Note_on_c, 9, 36, 0
7, 56400, Note_on_c, 9, 38, 127
7, 56435, Note_on_c, 9, 38, 0
7, 56460, Note_on_c, 9, 38, 103
7, 56504, Note_on_c, 9, 38, 0
7, 56520, Note_on_c, 9, 38, 127
7, 56557, Note_on_c, 9, 38, 0
7, 56580, Note_on_c, 9, 38, 103
7, 56617, Note_on_c, 9, 38, 0
7, 56640, Note_on_c, 9, 36, 127
7, 56665, Note_on_c, 9, 36, 0
7, 56700, Note_on_c, 9, 36, 127
7, 56737, Note_on_c, 9, 36, 0
7, 56760, Note_on_c, 9, 36, 127
7, 56793, Note_on_c, 9, 36, 0
7, 56820, Note_on_c, 9, 36, 127
7, 56857, Note_on_c, 9, 36, 0
7, 56880, Note_on_c, 9, 38, 127
7, 56917, Note_on_c, 9, 38, 0
7, 57215, Note_on_c, 9, 38, 107
7, 57240, Note_on_c, 9, 38, 127
7, 57256, Note_on_c, 9, 38, 0
7, 57281, Note_on_c, 9, 38, 0
7, 57360, Note_on_c, 9, 36, 127
7, 57407, Note_on_c, 9, 36, 0
7, 57585, Note_on_c, 9, 40, 123
7, 57600, Note_on_c, 9, 38, 127
7, 57679, Note_on_c, 9, 40, 0
7, 57681, Note_on_c, 9, 38, 0
7, 57720, Note_on_c, 9, 36, 127
7, 57788, Note_on_c, 9, 36, 0
7, 57960, Note_on_c, 9, 36, 127
7, 58005, Note_on_c, 9, 36, 0
7, 58080, Note_on_c, 9, 36, 127
7, 58133, Note_on_c, 9, 36, 0
7, 58240, Note_on_c, 9, 38, 123
7, 58313, Note_on_c, 9, 38, 0
7, 58400, Note_on_c, 9, 36, 127
7, 58449, Note_on_c, 9, 36, 0
7, 58560, Note_on_c, 9, 38, 127
7, 58632, Note_on_c, 9, 38, 0
7, 58800, Note_on_c, 9, 38, 127
7, 58865, Note_on_c, 9, 38, 0
7, 58960, Note_on_c, 9, 36, 89
7, 59001, Note_on_c, 9, 36, 0
7, 59040, Note_on_c, 9, 36, 123
7, 59089, Note_on_c, 9, 36, 0
7, 59200, Note_on_c, 9, 36, 77
7, 59229, Note_on_c, 9, 36, 0
7, 59280, Note_on_c, 9, 36, 127
7, 59324, Note_on_c, 9, 36, 0
7, 59400, Note_on_c, 9, 36, 127
7, 59449, Note_on_c, 9, 36, 0
7, 59510, Note_on_c, 9, 40, 97
7, 59520, Note_on_c, 9, 38, 127
7, 59554, Note_on_c, 9, 40, 0
7, 59557, Note_on_c, 9, 38, 0
7, 59590, Note_on_c, 9, 40, 99
7, 59600, Note_on_c, 9, 38, 127
7, 59631, Note_on_c, 9, 40, 0
7, 59637, Note_on_c, 9, 38, 0
7, 59760, Note_on_c, 9, 36, 127
7, 59803, Note_on_c, 9, 36, 0
7, 59830, Note_on_c, 9, 40, 95
7, 59840, Note_on_c, 9, 38, 127
7, 59862, Note_on_c, 9, 40, 0
7, 59868, Note_on_c, 9, 38, 0
7, 59880, Note_on_c, 9, 36, 127
7, 59910, Note_on_c, 9, 40, 97
7, 59920, Note_on_c, 9, 38, 127
7, 59925, Note_on_c, 9, 36, 0
7, 59951, Note_on_c, 9, 40, 0
7, 59961, Note_on_c, 9, 38, 0
7, 60000, Note_on_c, 9, 36, 127
7, 60051, Note_on_c, 9, 36, 0
7, 60360, Note_on_c, 9, 36, 127
7, 60389, Note_on_c, 9, 36, 0
7, 60480, Note_on_c, 9, 38, 127
7, 60559, Note_on_c, 9, 38, 0
7, 60640, Note_on_c, 9, 36, 127
7, 60686, Note_on_c, 9, 36, 0
7, 60800, Note_on_c, 9, 36, 127
7, 60846, Note_on_c, 9, 36, 0
7, 61080, Note_on_c, 9, 36, 99
7, 61114, Note_on_c, 9, 36, 0
7, 61140, Note_on_c, 9, 36, 127
7, 61171, Note_on_c, 9, 36, 0
7, 61200, Note_on_c, 9, 36, 127
7, 61229, Note_on_c, 9, 36, 0
7, 61440, Note_on_c, 9, 38, 127
7, 61473, Note_on_c, 9, 38, 0
7, 61560, Note_on_c, 9, 36, 127
7, 61593, Note_on_c, 9, 36, 0
7, 61620, Note_on_c, 9, 36, 127
7, 61654, Note_on_c, 9, 36, 0
7, 61680, Note_on_c, 9, 38, 127
7, 61710, Note_on_c, 9, 38, 0
7, 61920, Note_on_c, 9, 36, 127
7, 61920, Note_on_c, 9, 36, 0
7, 62280, Note_on_c, 9, 36, 119
7, 62319, Note_on_c, 9, 36, 0
7, 62400, Note_on_c, 9, 38, 127
7, 62450, Note_on_c, 9, 38, 0
7, 62520, Note_on_c, 9, 36, 123
7, 62564, Note_on_c, 9, 36, 0
7, 62640, Note_on_c, 9, 36, 123
7, 62704, Note_on_c, 9, 36, 0
7, 62760, Note_on_c, 9, 38, 127
7, 62810, Note_on_c, 9, 38, 0
7, 62880, Note_on_c, 9, 36, 123
7, 62953, Note_on_c, 9, 36, 0
7, 63032, Note_on_c, 9, 40, 101
7, 63040, Note_on_c, 9, 38, 127
7, 63073, Note_on_c, 9, 40, 0
7, 63084, Note_on_c, 9, 38, 0
7, 63200, Note_on_c, 9, 36, 127
7, 63245, Note_on_c, 9, 36, 0
7, 63360, Note_on_c, 9, 38, 119
7, 63360, Note_on_c, 9, 36, 127
7, 63410, Note_on_c, 9, 38, 0
7, 63414, Note_on_c, 9, 36, 0
7, 63440, Note_on_c, 9, 38, 119
7, 63505, Note_on_c, 9, 38, 0
7, 63840, Note_on_c, 9, 36, 127
7, 63898, Note_on_c, 9, 36, 0
7, 63913, Note_on_c, 9, 38, 127
7, 63971, Note_on_c, 9, 38, 0
7, 64285, Note_on_c, 9, 38, 127
7, 64343, Note_on_c, 9, 38, 0
7, 64432, Note_on_c, 9, 38, 127
7, 64490, Note_on_c, 9, 38, 0
7, 64800, Note_on_c, 9, 36, 127
7, 64892, Note_on_c, 9, 36, 0
7, 65160, Note_on_c, 9, 36, 127
7, 65207, Note_on_c, 9, 36, 0
7, 65390, Note_on_c, 9, 40, 93
7, 65400, Note_on_c, 9, 38, 127
7, 65400, Note_on_c, 9, 36, 127
7, 65412, Note_on_c, 9, 38, 0
7, 65434, Note_on_c, 9, 36, 0
7, 65434, Note_on_c, 9, 40, 0
7, 65510, Note_on_c, 9, 40, 99
7, 65520, Note_on_c, 9, 38, 127
7, 65520, Note_on_c, 9, 36, 127
7, 65548, Note_on_c, 9, 38, 0
7, 65553, Note_on_c, 9, 40, 0
7, 65554, Note_on_c, 9, 36, 0
7, 65630, Note_on_c, 9, 40, 95
7, 65640, Note_on_c, 9, 38, 127
7, 65640, Note_on_c, 9, 36, 127
7, 65667, Note_on_c, 9, 40, 0
7, 65668, Note_on_c, 9, 38, 0
7, 65672, Note_on_c, 9, 36, 0
7, 65760, Note_on_c, 9, 36, 127
7, 65804, Note_on_c, 9, 36, 0
7, 66120, Note_on_c, 9, 36, 127
7, 66167, Note_on_c, 9, 36, 0
7, 66360, Note_on_c, 9, 36, 127
7, 66394, Note_on_c, 9, 36, 0
7, 66480, Note_on_c, 9, 38, 127
7, 66517, Note_on_c, 9, 38, 0
7, 66720, Note_on_c, 9, 36, 127
7, 66755, Note_on_c, 9, 36, 0
7, 66950, Note_on_c, 9, 40, 93
7, 66960, Note_on_c, 9, 38, 127
7, 67010, Note_on_c, 9, 38, 0
7, 67016, Note_on_c, 9, 40, 0
7, 67200, Note_on_c, 9, 38, 127
7, 67262, Note_on_c, 9, 38, 0
7, 67360, Note_on_c, 9, 36, 127
7, 67404, Note_on_c, 9, 36, 0
7, 67520, Note_on_c, 9, 36, 127
7, 67567, Note_on_c, 9, 36, 0
7, 67680, Note_on_c, 9, 36, 127
7, 67754, Note_on_c, 9, 36, 0
7, 67840, Note_on_c, 9, 38, 127
7, 67893, Note_on_c, 9, 38, 0
7, 68000, Note_on_c, 9, 36, 127
7, 68050, Note_on_c, 9, 36, 0
7, 68160, Note_on_c, 9, 38, 127
7, 68227, Note_on_c, 9, 38, 0
7, 68520, Note_on_c, 9, 38, 119
7, 68570, Note_on_c, 9, 38, 0
7, 68640, Note_on_c, 9, 36, 127
7, 68727, Note_on_c, 9, 36, 0
7, 68800, Note_on_c, 9, 38, 123
7, 68880, Note_on_c, 9, 38, 0
7, 68960, Note_on_c, 9, 36, 127
7, 69088, Note_on_c, 9, 36, 0
7, 69120, Note_on_c, 9, 38, 127
7, 69216, Note_on_c, 9, 38, 0
7, 69280, Note_on_c, 9, 36, 127
7, 69378, Note_on_c, 9, 36, 0
7, 69440, Note_on_c, 9, 40, 103
7, 69452, Note_on_c, 9, 38, 127
7, 69514, Note_on_c, 9, 38, 0
7, 69518, Note_on_c, 9, 40, 0
7, 69600, Note_on_c, 9, 36, 127
7, 69668, Note_on_c, 9, 36, 0
7, 69960, Note_on_c, 9, 38, 127
7, 69998, Note_on_c, 9, 38, 0
7, 70200, Note_on_c, 9, 36, 127
7, 70269, Note_on_c, 9, 36, 0
7, 70320, Note_on_c, 9, 38, 127
7, 70380, Note_on_c, 9, 38, 0
7, 70560, Note_on_c, 9, 36, 127
7, 70588, Note_on_c, 9, 36, 0
7, 70680, Note_on_c, 9, 36, 127
7, 70713, Note_on_c, 9, 36, 0
7, 70740, Note_on_c, 9, 36, 127
7, 70778, Note_on_c, 9, 36, 0
7, 70800, Note_on_c, 9, 38, 127
7, 70838, Note_on_c, 9, 38, 0
7, 71160, Note_on_c, 9, 36, 127
7, 71194, Note_on_c, 9, 36, 0
7, 71220, Note_on_c, 9, 36, 127
7, 71261, Note_on_c, 9, 36, 0
7, 71280, Note_on_c, 9, 38, 127
7, 71321, Note_on_c, 9, 38, 0
7, 71520, Note_on_c, 9, 36, 123
7, 71552, Note_on_c, 9, 36, 0
7, 71640, Note_on_c, 9, 36, 123
7, 71674, Note_on_c, 9, 36, 0
7, 71700, Note_on_c, 9, 36, 127
7, 71734, Note_on_c, 9, 36, 0
7, 71760, Note_on_c, 9, 38, 127
7, 71802, Note_on_c, 9, 38, 0
7, 71880, Note_on_c, 9, 36, 127
7, 71913, Note_on_c, 9, 36, 0
7, 71940, Note_on_c, 9, 36, 127
7, 71977, Note_on_c, 9, 36, 0
7, 72000, Note_on_c, 9, 36, 127
7, 72037, Note_on_c, 9, 36, 0
7, 72120, Note_on_c, 9, 36, 127
7, 72154, Note_on_c, 9, 36, 0
7, 72180, Note_on_c, 9, 36, 127
7, 72218, Note_on_c, 9, 36, 0
7, 72240, Note_on_c, 9, 38, 127
7, 72281, Note_on_c, 9, 38, 0
7, 72480, Note_on_c, 9, 36, 127
7, 72515, Note_on_c, 9, 36, 0
7, 72600, Note_on_c, 9, 36, 127
7, 72629, Note_on_c, 9, 36, 0
7, 72660, Note_on_c, 9, 36, 115
7, 72689, Note_on_c, 9, 36, 0
7, 72720, Note_on_c, 9, 36, 127
7, 72749, Note_on_c, 9, 36, 0
7, 72780, Note_on_c, 9, 36, 127
7, 72813, Note_on_c, 9, 36, 0
7, 72840, Note_on_c, 9, 36, 127
7, 72874, Note_on_c, 9, 36, 0
7, 72960, Note_on_c, 9, 38, 127
7, 72992, Note_on_c, 9, 38, 0
7, 73020, Note_on_c, 9, 38, 127
7, 73061, Note_on_c, 9, 38, 0
7, 73200, Note_on_c, 9, 36, 127
7, 73298, Note_on_c, 9, 36, 0
7, 73560, Note_on_c, 9, 36, 119
7, 73594, Note_on_c, 9, 36, 0
7, 73620, Note_on_c, 9, 36, 127
7, 73660, Note_on_c, 9, 36, 0
7, 73680, Note_on_c, 9, 38, 127
7, 73749, Note_on_c, 9, 38, 0
7, 73800, Note_on_c, 9, 36, 127
7, 73836, Note_on_c, 9, 36, 0
7, 73920, Note_on_c, 9, 36, 127
7, 73975, Note_on_c, 9, 36, 0
7, 74160, Note_on_c, 9, 36, 127
7, 74199, Note_on_c, 9, 36, 0
7, 74280, Note_on_c, 9, 36, 127
7, 74317, Note_on_c, 9, 36, 0
7, 74400, Note_on_c, 9, 36, 127
7, 74446, Note_on_c, 9, 36, 0
7, 74760, Note_on_c, 9, 36, 111
7, 74807, Note_on_c, 9, 36, 0
7, 74820, Note_on_c, 9, 36, 119
7, 74858, Note_on_c, 9, 36, 0
7, 74880, Note_on_c, 9, 38, 123
7, 74925, Note_on_c, 9, 38, 0
7, 75000, Note_on_c, 9, 36, 119
7, 75037, Note_on_c, 9, 36, 0
7, 75120, Note_on_c, 9, 36, 127
7, 75163, Note_on_c, 9, 36, 0
7, 75360, Note_on_c, 9, 36, 127
7, 75399, Note_on_c, 9, 36, 0
7, 75480, Note_on_c, 9, 36, 127
7, 75508, Note_on_c, 9, 36, 0
7, 75540, Note_on_c, 9, 36, 127
7, 75583, Note_on_c, 9, 36, 0
7, 75600, Note_on_c, 9, 38, 127
7, 75643, Note_on_c, 9, 38, 0
7, 75960, Note_on_c, 9, 36, 123
7, 75994, Note_on_c, 9, 36, 0
7, 76020, Note_on_c, 9, 36, 127
7, 76060, Note_on_c, 9, 36, 0
7, 76080, Note_on_c, 9, 38, 127
7, 76130, Note_on_c, 9, 38, 0
7, 76320, Note_on_c, 9, 36, 127
7, 76374, Note_on_c, 9, 36, 0
7, 76800, Note_on_c, 9, 36, 127
7, 76846, Note_on_c, 9, 36, 0
7, 76980, Note_on_c, 9, 36, 99
7, 77014, Note_on_c, 9, 36, 0
7, 77040, Note_on_c, 9, 38, 127
7, 77077, Note_on_c, 9, 38, 0
7, 77280, Note_on_c, 9, 36, 127
7, 77315, Note_on_c, 9, 36, 0
7, 77520, Note_on_c, 9, 38, 127
7, 77534, Note_on_c, 9, 38, 0
7, 77535, Note_on_c, 9, 40, 77
7, 77549, Note_on_c, 9, 40, 0
7, 77550, Note_on_c, 9, 38, 76
7, 77564, Note_on_c, 9, 38, 0
7, 77565, Note_on_c, 9, 40, 74
7, 77579, Note_on_c, 9, 40, 0
7, 77580, Note_on_c, 9, 38, 72
7, 77594, Note_on_c, 9, 38, 0
7, 77595, Note_on_c, 9, 40, 70
7, 77609, Note_on_c, 9, 40, 0
7, 77610, Note_on_c, 9, 38, 68
7, 77624, Note_on_c, 9, 38, 0
7, 77625, Note_on_c, 9, 40, 66
7, 77639, Note_on_c, 9, 40, 0
7, 77640, Note_on_c, 9, 38, 64
7, 77654, Note_on_c, 9, 38, 0
7, 77655, Note_on_c, 9, 40, 62
7, 77669, Note_on_c, 9, 40, 0
7, 77670, Note_on_c, 9, 38, 60
7, 77684, Note_on_c, 9, 38, 0
7, 77685, Note_on_c, 9, 40, 58
7, 77699, Note_on_c, 9, 40, 0
7, 77700, Note_on_c, 9, 38, 57
7, 77714, Note_on_c, 9, 38, 0
7, 77715, Note_on_c, 9, 40, 55
7, 77729, Note_on_c, 9, 40, 0
7, 77730, Note_on_c, 9, 38, 53
7, 77744, Note_on_c, 9, 38, 0
7, 77745, Note_on_c, 9, 40, 51
7, 77759, Note_on_c, 9, 40, 0
7, 77760, Note_on_c, 9, 38, 49
7, 77774, Note_on_c, 9, 38, 0
7, 77775, Note_on_c, 9, 40, 47
7, 77789, Note_on_c, 9, 40, 0
7, 77790, Note_on_c, 9, 38, 45
7, 77804, Note_on_c, 9, 38, 0
7, 77805, Note_on_c, 9, 40, 43
7, 77819, Note_on_c, 9, 40, 0
7, 77820, Note_on_c, 9, 38, 41
7, 77834, Note_on_c, 9, 38, 0
7, 77835, Note_on_c, 9, 40, 39
7, 77849, Note_on_c, 9, 40, 0
7, 77850, Note_on_c, 9, 38, 38
7, 77864, Note_on_c, 9, 38, 0
7, 77865, Note_on_c, 9, 40, 36
7, 77879, Note_on_c, 9, 40, 0
7, 77880, Note_on_c, 9, 38, 34
7, 77894, Note_on_c, 9, 38, 0
7, 77895, Note_on_c, 9, 40, 32
7, 77909, Note_on_c, 9, 40, 0
7, 77910, Note_on_c, 9, 38, 30
7, 77924, Note_on_c, 9, 38, 0
7, 77925, Note_on_c, 9, 40, 28
7, 77939, Note_on_c, 9, 40, 0
7, 77940, Note_on_c, 9, 38, 26
7, 77954, Note_on_c, 9, 38, 0
7, 77955, Note_on_c, 9, 40, 24
7, 77969, Note_on_c, 9, 40, 0
7, 77970, Note_on_c, 9, 38, 22
7, 77984, Note_on_c, 9, 38, 0
7, 77985, Note_on_c, 9, 40, 20
7, 77999, Note_on_c, 9, 40, 0
7, 78000, Note_on_c, 9, 36, 127
7, 78047, Note_on_c, 9, 36, 0
7, 78360, Note_on_c, 9, 36, 115
7, 78396, Note_on_c, 9, 36, 0
7, 78420, Note_on_c, 9, 36, 119
7, 78457, Note_on_c, 9, 36, 0
7, 78480, Note_on_c, 9, 38, 127
7, 78521, Note_on_c, 9, 38, 0
7, 78600, Note_on_c, 9, 36, 127
7, 78635, Note_on_c, 9, 36, 0
7, 78720, Note_on_c, 9, 36, 119
7, 78757, Note_on_c, 9, 36, 0
7, 78840, Note_on_c, 9, 36, 127
7, 78876, Note_on_c, 9, 36, 0
7, 78900, Note_on_c, 9, 36, 127
7, 78941, Note_on_c, 9, 36, 0
7, 78960, Note_on_c, 9, 38, 127
7, 79003, Note_on_c, 9, 38, 0
7, 79200, Note_on_c, 9, 38, 127
7, 79258, Note_on_c, 9, 38, 0
7, 79320, Note_on_c, 9, 36, 115
7, 79386, Note_on_c, 9, 36, 0
7, 79440, Note_on_c, 9, 38, 127
7, 79510, Note_on_c, 9, 38, 0
7, 79560, Note_on_c, 9, 36, 127
7, 79601, Note_on_c, 9, 36, 0
7, 79680, Note_on_c, 9, 36, 127
7, 79754, Note_on_c, 9, 36, 0
7, 79800, Note_on_c, 9, 38, 127
7, 79840, Note_on_c, 9, 38, 0
7, 79920, Note_on_c, 9, 38, 127
7, 79974, Note_on_c, 9, 38, 0
7, 80080, Note_on_c, 9, 36, 119
7, 80117, Note_on_c, 9, 36, 0
7, 80160, Note_on_c, 9, 36, 127
7, 80230, Note_on_c, 9, 36, 0
7, 80320, Note_on_c, 9, 38, 115
7, 80416, Note_on_c, 9, 38, 0
7, 80480, Note_on_c, 9, 36, 127
7, 80591, Note_on_c, 9, 36, 0
7, 80640, Note_on_c, 9, 38, 127
7, 80728, Note_on_c, 9, 38, 0
7, 80800, Note_on_c, 9, 36, 127
7, 80923, Note_on_c, 9, 36, 0
7, 80960, Note_on_c, 9, 38, 127
7, 81007, Note_on_c, 9, 38, 0
7, 81120, Note_on_c, 9, 36, 127
7, 81157, Note_on_c, 9, 36, 0
7, 81300, Note_on_c, 9, 36, 107
7, 81341, Note_on_c, 9, 36, 0
7, 81360, Note_on_c, 9, 38, 127
7, 81360, Note_on_c, 9, 36, 127
7, 81394, Note_on_c, 9, 36, 0
7, 81400, Note_on_c, 9, 38, 0
7, 81720, Note_on_c, 9, 36, 115
7, 81749, Note_on_c, 9, 36, 0
7, 81780, Note_on_c, 9, 36, 127
7, 81818, Note_on_c, 9, 36, 0
7, 81840, Note_on_c, 9, 38, 127
7, 81840, Note_on_c, 9, 36, 127
7, 81876, Note_on_c, 9, 36, 0
7, 81879, Note_on_c, 9, 38, 0
7, 82080, Note_on_c, 9, 36, 127
7, 82117, Note_on_c, 9, 36, 0
7, 82260, Note_on_c, 9, 38, 107
7, 82301, Note_on_c, 9, 38, 0
7, 82320, Note_on_c, 9, 36, 127
7, 82357, Note_on_c, 9, 36, 0
7, 82500, Note_on_c, 9, 38, 123
7, 82528, Note_on_c, 9, 38, 0
7, 82560, Note_on_c, 9, 36, 127
7, 82605, Note_on_c, 9, 36, 0
7, 82800, Note_on_c, 9, 36, 127
7, 82855, Note_on_c, 9, 36, 0
7, 83040, Note_on_c, 9, 36, 127
7, 83068, Note_on_c, 9, 36, 0
7, 83250, Note_on_c, 9, 36, 127
7, 83278, Note_on_c, 9, 36, 0
7, 83421, Note_on_c, 9, 38, 69
7, 83458, Note_on_c, 9, 38, 0
7, 83474, Note_on_c, 9, 38, 83
7, 83508, Note_on_c, 9, 38, 0
7, 83533, Note_on_c, 9, 38, 123
7, 83565, Note_on_c, 9, 38, 0
7, 83586, Note_on_c, 9, 38, 123
7, 83620, Note_on_c, 9, 38, 0
7, 83670, Note_on_c, 9, 36, 127
7, 83695, Note_on_c, 9, 36, 0
7, 83760, Note_on_c, 9, 38, 127
7, 83801, Note_on_c, 9, 38, 0
7, 83860, Note_on_c, 9, 36, 127
7, 83879, Note_on_c, 9, 36, 0
7, 83910, Note_on_c, 9, 38, 127
7, 83947, Note_on_c, 9, 38, 0
7, 84000, Note_on_c, 9, 36, 127
7, 84051, Note_on_c, 9, 36, 0
7, 84075, Note_on_c, 9, 40, 99
7, 84080, Note_on_c, 9, 38, 127
7, 84113, Note_on_c, 9, 40, 0
7, 84114, Note_on_c, 9, 38, 0
7, 84155, Note_on_c, 9, 40, 89
7, 84160, Note_on_c, 9, 38, 127
7, 84194, Note_on_c, 9, 40, 0
7, 84201, Note_on_c, 9, 38, 0
7, 84235, Note_on_c, 9, 40, 99
7, 84240, Note_on_c, 9, 38, 127
7, 84274, Note_on_c, 9, 40, 0
7, 84279, Note_on_c, 9, 38, 0
7, 84320, Note_on_c, 9, 36, 127
7, 84368, Note_on_c, 9, 36, 0
7, 84422, Note_on_c, 9, 40, 85
7, 84427, Note_on_c, 9, 38, 125
7, 84460, Note_on_c, 9, 40, 0
7, 84465, Note_on_c, 9, 38, 0
7, 84527, Note_on_c, 9, 40, 115
7, 84532, Note_on_c, 9, 38, 115
7, 84565, Note_on_c, 9, 40, 0
7, 84570, Note_on_c, 9, 38, 0
7, 84640, Note_on_c, 9, 36, 127
7, 84690, Note_on_c, 9, 36, 0
7, 84742, Note_on_c, 9, 40, 81
7, 84747, Note_on_c, 9, 38, 127
7, 84785, Note_on_c, 9, 40, 0
7, 84790, Note_on_c, 9, 38, 0
7, 84848, Note_on_c, 9, 40, 93
7, 84853, Note_on_c, 9, 38, 127
7, 84894, Note_on_c, 9, 40, 0
7, 84899, Note_on_c, 9, 38, 0
7, 84960, Note_on_c, 9, 36, 127
7, 85011, Note_on_c, 9, 36, 0
7, 85144, Note_on_c, 9, 36, 89
7, 85176, Note_on_c, 9, 36, 0
7, 85200, Note_on_c, 9, 36, 95
7, 85234, Note_on_c, 9, 36, 0
7, 85384, Note_on_c, 9, 36, 115
7, 85413, Note_on_c, 9, 36, 0
7, 85440, Note_on_c, 9, 36, 115
7, 85477, Note_on_c, 9, 36, 0
7, 85500, Note_on_c, 9, 38, 91
7, 85541, Note_on_c, 9, 38, 0
7, 85560, Note_on_c, 9, 38, 127
7, 85601, Note_on_c, 9, 38, 0
7, 85621, Note_on_c, 9, 38, 119
7, 85662, Note_on_c, 9, 38, 0
7, 85680, Note_on_c, 9, 36, 127
7, 85680, Note_on_c, 9, 38, 127
7, 85710, Note_on_c, 9, 36, 0
7, 85724, Note_on_c, 9, 38, 0
7, 85740, Note_on_c, 9, 36, 127
7, 85772, Note_on_c, 9, 36, 0
7, 85920, Note_on_c, 9, 36, 127
7, 86013, Note_on_c, 9, 36, 0
7, 86160, Note_on_c, 9, 36, 127
7, 86271, Note_on_c, 9, 36, 0
7, 86368, Note_on_c, 9, 36, 119
7, 86400, Note_on_c, 9, 38, 123
7, 86402, Note_on_c, 9, 36, 0
7, 86441, Note_on_c, 9, 38, 0
7, 86536, Note_on_c, 9, 36, 123
7, 86565, Note_on_c, 9, 36, 0
7, 86640, Note_on_c, 9, 38, 127
7, 86678, Note_on_c, 9, 38, 0
7, 86688, Note_on_c, 9, 36, 127
7, 86726, Note_on_c, 9, 36, 0
7, 86784, Note_on_c, 9, 38, 127
7, 86825, Note_on_c, 9, 38, 0
7, 86976, Note_on_c, 9, 36, 127
7, 87021, Note_on_c, 9, 36, 0
7, 87168, Note_on_c, 9, 36, 127
7, 87222, Note_on_c, 9, 36, 0
7, 87360, Note_on_c, 9, 38, 127
7, 87435, Note_on_c, 9, 38, 0
7, 87552, Note_on_c, 9, 36, 107
7, 87590, Note_on_c, 9, 36, 0
7, 87648, Note_on_c, 9, 36, 123
7, 87684, Note_on_c, 9, 36, 0
7, 87840, Note_on_c, 9, 38, 127
7, 87913, Note_on_c, 9, 38, 0
7, 88032, Note_on_c, 9, 36, 123
7, 88064, Note_on_c, 9, 36, 0
7, 88128, Note_on_c, 9, 36, 127
7, 88158, Note_on_c, 9, 36, 0
7, 88224, Note_on_c, 9, 36, 127
7, 88265, Note_on_c, 9, 36, 0
7, 88320, Note_on_c, 9, 36, 127
7, 88379, Note_on_c, 9, 36, 0
7, 88560, Note_on_c, 9, 38, 119
7, 88660, Note_on_c, 9, 38, 0
7, 88800, Note_on_c, 9, 36, 127
7, 88800, Note_on_c, 9, 36, 0
7, 88987, Note_on_c, 9, 36, 111
7, 89028, Note_on_c, 9, 36, 0
7, 89040, Note_on_c, 9, 36, 127
7, 89072, Note_on_c, 9, 36, 0
7, 89094, Note_on_c, 9, 36, 103
7, 89128, Note_on_c, 9, 36, 0
7, 89224, Note_on_c, 9, 36, 91
7, 89259, Note_on_c, 9, 36, 0
7, 89280, Note_on_c, 9, 36, 127
7, 89306, Note_on_c, 9, 36, 0
7, 89331, Note_on_c, 9, 36, 99
7, 89356, Note_on_c, 9, 36, 0
7, 89456, Note_on_c, 9, 36, 99
7, 89488, Note_on_c, 9, 36, 0
7, 89520, Note_on_c, 9, 38, 115
7, 89520, Note_on_c, 9, 36, 127
7, 89549, Note_on_c, 9, 36, 0
7, 89550, Note_on_c, 9, 38, 0
7, 89552, Note_on_c, 9, 36, 99
7, 89563, Note_on_c, 9, 38, 99
7, 89587, Note_on_c, 9, 36, 0
7, 89593, Note_on_c, 9, 38, 0
7, 89605, Note_on_c, 9, 38, 127
7, 89637, Note_on_c, 9, 38, 0
7, 89655, Note_on_c, 9, 38, 119
7, 89684, Note_on_c, 9, 36, 107
7, 89687, Note_on_c, 9, 38, 0
7, 89725, Note_on_c, 9, 36, 0
7, 89760, Note_on_c, 9, 36, 127
7, 89788, Note_on_c, 9, 36, 0
7, 89880, Note_on_c, 9, 36, 127
7, 89914, Note_on_c, 9, 36, 0
7, 89940, Note_on_c, 9, 36, 127
7, 89974, Note_on_c, 9, 36, 0
7, 90125, Note_on_c, 9, 36, 81
7, 90159, Note_on_c, 9, 36, 0
7, 90316, Note_on_c, 9, 36, 123
7, 90344, Note_on_c, 9, 36, 0
7, 90720, Note_on_c, 9, 36, 123
7, 90720, Note_on_c, 9, 36, 0
7, 91185, Note_on_c, 9, 38, 127
7, 91244, Note_on_c, 9, 38, 0
7, 91315, Note_on_c, 9, 36, 127
7, 91342, Note_on_c, 9, 36, 0
7, 91424, Note_on_c, 9, 36, 127
7, 91454, Note_on_c, 9, 36, 0
7, 91474, Note_on_c, 9, 36, 119
7, 91502, Note_on_c, 9, 36, 0
7, 91508, Note_on_c, 9, 36, 127
7, 91533, Note_on_c, 9, 36, 0
7, 91552, Note_on_c, 9, 36, 127
7, 91584, Note_on_c, 9, 36, 0
7, 91695, Note_on_c, 9, 36, 127
7, 91732, Note_on_c, 9, 36, 0
7, 91813, Note_on_c, 9, 38, 127
7, 91850, Note_on_c, 9, 38, 0
7, 91929, Note_on_c, 9, 38, 127
7, 91966, Note_on_c, 9, 38, 0
7, 92160, Note_on_c, 9, 38, 100
7, 92203, Note_on_c, 9, 38, 0
7, 92204, Note_on_c, 9, 38, 100
7, 92247, Note_on_c, 9, 38, 0
7, 92248, Note_on_c, 9, 38, 100
7, 92291, Note_on_c, 9, 38, 0
7, 92292, Note_on_c, 9, 38, 100
7, 92335, Note_on_c, 9, 38, 0
7, 92336, Note_on_c, 9, 38, 100
7, 92379, Note_on_c, 9, 38, 0
7, 92380, Note_on_c, 9, 38, 100
7, 92423, Note_on_c, 9, 38, 0
7, 92424, Note_on_c, 9, 38, 100
7, 92467, Note_on_c, 9, 38, 0
7, 92468, Note_on_c, 9, 38, 100
7, 92511, Note_on_c, 9, 38, 0
7, 92512, Note_on_c, 9, 38, 100
7, 92555, Note_on_c, 9, 38, 0
7, 92556, Note_on_c, 9, 38, 100
7, 92599, Note_on_c, 9, 38, 0
7, 92600, Note_on_c, 9, 38, 100
7, 92640, Note_on_c, 9, 38, 100
7, 92643, Note_on_c, 9, 38, 0
7, 92683, Note_on_c, 9, 38, 0
7, 92684, Note_on_c, 9, 38, 100
7, 92727, Note_on_c, 9, 38, 0
7, 92728, Note_on_c, 9, 38, 100
7, 92771, Note_on_c, 9, 38, 0
7, 92772, Note_on_c, 9, 38, 100
7, 92815, Note_on_c, 9, 38, 0
7, 92816, Note_on_c, 9, 38, 100
7, 92859, Note_on_c, 9, 38, 0
7, 92860, Note_on_c, 9, 38, 100
7, 92903, Note_on_c, 9, 38, 0
7, 92904, Note_on_c, 9, 38, 100
7, 92947, Note_on_c, 9, 38, 0
7, 92948, Note_on_c, 9, 38, 100
7, 92991, Note_on_c, 9, 38, 0
7, 92992, Note_on_c, 9, 38, 100
7, 93035, Note_on_c, 9, 38, 0
7, 93036, Note_on_c, 9, 38, 100
7, 93079, Note_on_c, 9, 38, 0
7, 93080, Note_on_c, 9, 38, 100
7, 93120, Note_on_c, 9, 36, 127
7, 93123, Note_on_c, 9, 38, 0
7, 93190, Note_on_c, 9, 36, 0
7, 93280, Note_on_c, 9, 40, 115
7, 93289, Note_on_c, 9, 38, 127
7, 93367, Note_on_c, 9, 38, 0
7, 93371, Note_on_c, 9, 40, 0
7, 93440, Note_on_c, 9, 36, 103
7, 93503, Note_on_c, 9, 36, 0
7, 93600, Note_on_c, 9, 36, 127
7, 93704, Note_on_c, 9, 36, 0
7, 93960, Note_on_c, 9, 36, 127
7, 93988, Note_on_c, 9, 36, 0
7, 94204, Note_on_c, 9, 36, 127
7, 94233, Note_on_c, 9, 36, 0
7, 94258, Note_on_c, 9, 36, 127
7, 94292, Note_on_c, 9, 36, 0
7, 94320, Note_on_c, 9, 38, 127
7, 94350, Note_on_c, 9, 38, 0
7, 94560, Note_on_c, 9, 36, 123
7, 94614, Note_on_c, 9, 36, 0
7, 94800, Note_on_c, 9, 38, 127
7, 94875, Note_on_c, 9, 38, 0
7, 95040, Note_on_c, 9, 36, 127
7, 95102, Note_on_c, 9, 36, 0
7, 95200, Note_on_c, 9, 38, 127
7, 95323, Note_on_c, 9, 38, 0
7, 95360, Note_on_c, 9, 36, 107
7, 95401, Note_on_c, 9, 36, 0
7, 95520, Note_on_c, 9, 36, 127
7, 95581, Note_on_c, 9, 36, 0
7, 95880, Note_on_c, 9, 38, 127
7, 95921, Note_on_c, 9, 38, 0
7, 96080, Note_on_c, 9, 38, 123
7, 96150, Note_on_c, 9, 38, 0
7, 96480, Note_on_c, 9, 36, 127
7, 96537, Note_on_c, 9, 36, 0
7, 96567, Note_on_c, 9, 36, 127
7, 96652, Note_on_c, 9, 36, 0
7, 97481, Note_on_c, 9, 36, 127
7, 97537, Note_on_c, 9, 36, 0
7, 98400, Note_on_c, 9, 36, 127
7, 98449, Note_on_c, 9, 36, 0
7, 98760, Note_on_c, 9, 36, 127
7, 98810, Note_on_c, 9, 36, 0
7, 98880, Note_on_c, 9, 38, 127
7, 98942, Note_on_c, 9, 38, 0
7, 99240, Note_on_c, 9, 36, 115
7, 99274, Note_on_c, 9, 36, 0
7, 99360, Note_on_c, 9, 36, 127
7, 99415, Note_on_c, 9, 36, 0
7, 99720, Note_on_c, 9, 36, 119
7, 99766, Note_on_c, 9, 36, 0
7, 99840, Note_on_c, 9, 38, 127
7, 99912, Note_on_c, 9, 38, 0
7, 100320, Note_on_c, 9, 36, 127
7, 100321, Note_on_c, 9, 36, 0
7, 100757, Note_on_c, 9, 36, 127
7, 100801, Note_on_c, 9, 36, 0
7, 100844, Note_on_c, 9, 41, 127
7, 100888, Note_on_c, 9, 41, 0
7, 101280, Note_on_c, 9, 36, 127
7, 101324, Note_on_c, 9, 36, 0
7, 101804, Note_on_c, 9, 36, 127
7, 101848, Note_on_c, 9, 36, 0
7, 101979, Note_on_c, 9, 38, 127
7, 101979, Note_on_c, 9, 38, 0
7, 102153, Note_on_c, 9, 38, 127
7, 102194, Note_on_c, 9, 38, 0
7, 102240, Note_on_c, 9, 36, 127
7, 102303, Note_on_c, 9, 36, 0
7, 102600, Note_on_c, 9, 36, 127
7, 102637, Note_on_c, 9, 36, 0
7, 102720, Note_on_c, 9, 38, 127
7, 102788, Note_on_c, 9, 38, 0
7, 103080, Note_on_c, 9, 36, 127
7, 103130, Note_on_c, 9, 36, 0
7, 103200, Note_on_c, 9, 36, 127
7, 103250, Note_on_c, 9, 36, 0
7, 103560, Note_on_c, 9, 36, 127
7, 103594, Note_on_c, 9, 36, 0
7, 103680, Note_on_c, 9, 38, 127
7, 103739, Note_on_c, 9, 38, 0
7, 104160, Note_on_c, 9, 36, 127
7, 104161, Note_on_c, 9, 36, 0
7, 104597, Note_on_c, 9, 36, 127
7, 104641, Note_on_c, 9, 36, 0
7, 104684, Note_on_c, 9, 41, 127
7, 104728, Note_on_c, 9, 41, 0
7, 105120, Note_on_c, 9, 36, 127
7, 105164, Note_on_c, 9, 36, 0
7, 105644, Note_on_c, 9, 36, 127
7, 105688, Note_on_c, 9, 36, 0
7, 105819, Note_on_c, 9, 38, 127
7, 105819, Note_on_c, 9, 38, 0
7, 105993, Note_on_c, 9, 38, 127
7, 106034, Note_on_c, 9, 38, 0
7, 106080, Note_on_c, 9, 36, 127
7, 106130, Note_on_c, 9, 36, 0
7, 106570, Note_on_c, 9, 40, 123
7, 106574, Note_on_c, 9, 38, 127
7, 106654, Note_on_c, 9, 38, 0
7, 106658, Note_on_c, 9, 40, 0
7, 107040, Note_on_c, 9, 36, 127
7, 107086, Note_on_c, 9, 36, 0
7, 107518, Note_on_c, 9, 40, 123
7, 107522, Note_on_c, 9, 38, 127
7, 107577, Note_on_c, 9, 38, 0
7, 107577, Note_on_c, 9, 40, 0
7, 108000, Note_on_c, 9, 36, 127
7, 108046, Note_on_c, 9, 36, 0
7, 108489, Note_on_c, 9, 40, 127
7, 108493, Note_on_c, 9, 38, 127
7, 108572, Note_on_c, 9, 38, 0
7, 108575, Note_on_c, 9, 40, 0
7, 108960, Note_on_c, 9, 36, 127
7, 109005, Note_on_c, 9, 36, 0
7, 109445, Note_on_c, 9, 40, 127
7, 109448, Note_on_c, 9, 38, 127
7, 109507, Note_on_c, 9, 38, 0
7, 109507, Note_on_c, 9, 40, 0
7, 109920, Note_on_c, 9, 36, 127
7, 109970, Note_on_c, 9, 36, 0
7, 110392, Note_on_c, 9, 40, 119
7, 110396, Note_on_c, 9, 38, 127
7, 110462, Note_on_c, 9, 38, 0
7, 110471, Note_on_c, 9, 40, 0
7, 110880, Note_on_c, 9, 36, 127
7, 110926, Note_on_c, 9, 36, 0
7, 111331, Note_on_c, 9, 40, 127
7, 111340, Note_on_c, 9, 38, 127
7, 111381, Note_on_c, 9, 38, 0
7, 111385, Note_on_c, 9, 40, 0
7, 111840, Note_on_c, 9, 36, 127
7, 111897, Note_on_c, 9, 36, 0
7, 112326, Note_on_c, 9, 40, 127
7, 112329, Note_on_c, 9, 38, 127
7, 112383, Note_on_c, 9, 40, 0
7, 112388, Note_on_c, 9, 38, 0
7, 112800, Note_on_c, 9, 36, 127
7, 112850, Note_on_c, 9, 36, 0
7, 113265, Note_on_c, 9, 40, 123
7, 113272, Note_on_c, 9, 38, 127
7, 113340, Note_on_c, 9, 38, 0
7, 113343, Note_on_c, 9, 40, 0
7, 113760, Note_on_c, 9, 36, 127
7, 113810, Note_on_c, 9, 36, 0
7, 114250, Note_on_c, 9, 40, 123
7, 114254, Note_on_c, 9, 38, 127
7, 114334, Note_on_c, 9, 38, 0
7, 114338, Note_on_c, 9, 40, 0
7, 114720, Note_on_c, 9, 36, 127
7, 114766, Note_on_c, 9, 36, 0
7, 115198, Note_on_c, 9, 40, 123
7, 115202, Note_on_c, 9, 38, 127
7, 115257, Note_on_c, 9, 38, 0
7, 115257, Note_on_c, 9, 40, 0
7, 115680, Note_on_c, 9, 36, 127
7, 115726, Note_on_c, 9, 36, 0
7, 116169, Note_on_c, 9, 40, 127
7, 116173, Note_on_c, 9, 38, 127
7, 116252, Note_on_c, 9, 38, 0
7, 116255, Note_on_c, 9, 40, 0
7, 116640, Note_on_c, 9, 36, 127
7, 116685, Note_on_c, 9, 36, 0
7, 117125, Note_on_c, 9, 40, 127
7, 117128, Note_on_c, 9, 38, 127
7, 117187, Note_on_c, 9, 38, 0
7, 117187, Note_on_c, 9, 40, 0
7, 117600, Note_on_c, 9, 36, 127
7, 117650, Note_on_c, 9, 36, 0
7, 118072, Note_on_c, 9, 40, 119
7, 118076, Note_on_c, 9, 38, 127
7, 118142, Note_on_c, 9, 38, 0
7, 118151, Note_on_c, 9, 40, 0
7, 118560, Note_on_c, 9, 36, 127
7, 118606, Note_on_c, 9, 36, 0
7, 119011, Note_on_c, 9, 40, 127
7, 119020, Note_on_c, 9, 38, 127
7, 119061, Note_on_c, 9, 38, 0
7, 119065, Note_on_c, 9, 40, 0
7, 119520, Note_on_c, 9, 36, 127
7, 119577, Note_on_c, 9, 36, 0
7, 120960, Note_on_c, 9, 36, 127
7, 121010, Note_on_c, 9, 36, 0
7, 121440, Note_on_c, 9, 36, 127
7, 121490, Note_on_c, 9, 36, 0
7, 121930, Note_on_c, 9, 40, 123
7, 121934, Note_on_c, 9, 38, 127
7, 122014, Note_on_c, 9, 38, 0
7, 122018, Note_on_c, 9, 40, 0
7, 122400, Note_on_c, 9, 36, 127
7, 122446, Note_on_c, 9, 36, 0
7, 122878, Note_on_c, 9, 40, 123
7, 122882, Note_on_c, 9, 38, 127
7, 122937, Note_on_c, 9, 38, 0
7, 122937, Note_on_c, 9, 40, 0
7, 123360, Note_on_c, 9, 36, 127
7, 123406, Note_on_c, 9, 36, 0
7, 123849, Note_on_c, 9, 40, 127
7, 123853, Note_on_c, 9, 38, 127
7, 123932, Note_on_c, 9, 38, 0
7, 123935, Note_on_c, 9, 40, 0
7, 124320, Note_on_c, 9, 36, 127
7, 124365, Note_on_c, 9, 36, 0
7, 125280, Note_on_c, 9, 36, 127
7, 125316, Note_on_c, 9, 36, 0
7, 125760, Note_on_c, 9, 38, 127
7, 125791, Note_on_c, 9, 38, 0
7, 125820, Note_on_c, 9, 38, 115
7, 125860, Note_on_c, 9, 38, 0
7, 125880, Note_on_c, 9, 38, 127
7, 125911, Note_on_c, 9, 38, 0
7, 125940, Note_on_c, 9, 36, 127
7, 125968, Note_on_c, 9, 36, 0
7, 126000, Note_on_c, 9, 38, 127
7, 126031, Note_on_c, 9, 38, 0
7, 126320, Note_on_c, 9, 38, 123
7, 126353, Note_on_c, 9, 38, 0
7, 126360, Note_on_c, 9, 38, 123
7, 126392, Note_on_c, 9, 38, 0
7, 126480, Note_on_c, 9, 36, 127
7, 126504, Note_on_c, 9, 36, 0
7, 126840, Note_on_c, 9, 38, 127
7, 126871, Note_on_c, 9, 38, 0
7, 127080, Note_on_c, 9, 36, 119
7, 127129, Note_on_c, 9, 36, 0
7, 127200, Note_on_c, 9, 36, 127
7, 127200, Note_on_c, 9, 36, 127
7, 127250, Note_on_c, 9, 36, 0
7, 127266, Note_on_c, 9, 36, 0
7, 127690, Note_on_c, 9, 40, 123
7, 127694, Note_on_c, 9, 38, 127
7, 127774, Note_on_c, 9, 38, 0
7, 127778, Note_on_c, 9, 40, 0
7, 128160, Note_on_c, 9, 36, 127
7, 128206, Note_on_c, 9, 36, 0
7, 128638, Note_on_c, 9, 40, 123
7, 128642, Note_on_c, 9, 38, 127
7, 128697, Note_on_c, 9, 38, 0
7, 128697, Note_on_c, 9, 40, 0
7, 129120, Note_on_c, 9, 36, 127
7, 129165, Note_on_c, 9, 36, 0
7, 129280, Note_on_c, 9, 36, 123
7, 129328, Note_on_c, 9, 36, 0
7, 129440, Note_on_c, 9, 36, 127
7, 129486, Note_on_c, 9, 36, 0
7, 129600, Note_on_c, 9, 36, 127
7, 129672, Note_on_c, 9, 36, 0
7, 129920, Note_on_c, 9, 36, 127
7, 129964, Note_on_c, 9, 36, 0
7, 130080, Note_on_c, 9, 36, 127
7, 130132, Note_on_c, 9, 36, 0
7, 130400, Note_on_c, 9, 36, 127
7, 130440, Note_on_c, 9, 36, 0
7, 130560, Note_on_c, 9, 36, 127
7, 130603, Note_on_c, 9, 36, 0
7, 130720, Note_on_c, 9, 36, 127
7, 130760, Note_on_c, 9, 36, 0
7, 130880, Note_on_c, 9, 36, 123
7, 130920, Note_on_c, 9, 36, 0
7, 131040, Note_on_c, 9, 36, 127
7, 131087, Note_on_c, 9, 36, 0
7, 131520, Note_on_c, 9, 38, 127
7, 131520, Note_on_c, 9, 36, 127
7, 131688, Note_on_c, 9, 38, 0
7, 131693, Note_on_c, 9, 36, 0
7, 131693, End_track
8, 0, Start_track
8, 0, MIDI_port, 0
8, 0, Title_t, "TOMS"
8, 11651, Note_on_c, 9, 48, 123
8, 11662, Note_on_c, 9, 48, 0
8, 11732, Note_on_c, 9, 47, 119
8, 11773, Note_on_c, 9, 47, 0
8, 11809, Note_on_c, 9, 45, 127
8, 11847, Note_on_c, 9, 45, 0
8, 11885, Note_on_c, 9, 43, 123
8, 11924, Note_on_c, 9, 43, 0
8, 13520, Note_on_c, 9, 48, 115
8, 13567, Note_on_c, 9, 48, 0
8, 13600, Note_on_c, 9, 47, 127
8, 13643, Note_on_c, 9, 47, 0
8, 13680, Note_on_c, 9, 45, 127
8, 13718, Note_on_c, 9, 45, 0
8, 13760, Note_on_c, 9, 43, 127
8, 13798, Note_on_c, 9, 43, 0
8, 13840, Note_on_c, 9, 41, 127
8, 13875, Note_on_c, 9, 41, 0
8, 18240, Note_on_c, 9, 48, 127
8, 18287, Note_on_c, 9, 48, 0
8, 18360, Note_on_c, 9, 48, 127
8, 18407, Note_on_c, 9, 48, 0
8, 18660, Note_on_c, 9, 47, 107
8, 18707, Note_on_c, 9, 47, 0
8, 18720, Note_on_c, 9, 45, 127
8, 18720, Note_on_c, 9, 47, 107
8, 18755, Note_on_c, 9, 47, 0
8, 18757, Note_on_c, 9, 45, 0
8, 18780, Note_on_c, 9, 47, 107
8, 18818, Note_on_c, 9, 47, 0
8, 18840, Note_on_c, 9, 45, 127
8, 18878, Note_on_c, 9, 45, 0
8, 18900, Note_on_c, 9, 47, 107
8, 18933, Note_on_c, 9, 47, 0
8, 18960, Note_on_c, 9, 45, 107
8, 18960, Note_on_c, 9, 43, 127
8, 18991, Note_on_c, 9, 45, 0
8, 19003, Note_on_c, 9, 43, 0
8, 19080, Note_on_c, 9, 43, 127
8, 19080, Note_on_c, 9, 45, 107
8, 19110, Note_on_c, 9, 43, 0
8, 19111, Note_on_c, 9, 45, 0
8, 19200, Note_on_c, 9, 43, 127
8, 19200, Note_on_c, 9, 41, 117
8, 19243, Note_on_c, 9, 43, 0
8, 19246, Note_on_c, 9, 41, 0
8, 19320, Note_on_c, 9, 43, 127
8, 19320, Note_on_c, 9, 41, 115
8, 19358, Note_on_c, 9, 41, 0
8, 19359, Note_on_c, 9, 43, 0
8, 19440, Note_on_c, 9, 43, 127
8, 19440, Note_on_c, 9, 41, 117
8, 19491, Note_on_c, 9, 43, 0
8, 19498, Note_on_c, 9, 41, 0
8, 21280, Note_on_c, 9, 47, 127
8, 21334, Note_on_c, 9, 47, 0
8, 21360, Note_on_c, 9, 45, 123
8, 21411, Note_on_c, 9, 45, 0
8, 21440, Note_on_c, 9, 43, 127
8, 21489, Note_on_c, 9, 43, 0
8, 21520, Note_on_c, 9, 41, 127
8, 21563, Note_on_c, 9, 41, 0
8, 21600, Note_on_c, 9, 43, 127
8, 21658, Note_on_c, 9, 43, 0
8, 21747, Note_on_c, 9, 41, 127
8, 21805, Note_on_c, 9, 41, 0
8, 21820, Note_on_c, 9, 43, 127
8, 21878, Note_on_c, 9, 43, 0
8, 21894, Note_on_c, 9, 45, 127
8, 21952, Note_on_c, 9, 45, 0
8, 21967, Note_on_c, 9, 47, 127
8, 22025, Note_on_c, 9, 47, 0
8, 22118, Note_on_c, 9, 48, 127
8, 22176, Note_on_c, 9, 48, 0
8, 22265, Note_on_c, 9, 47, 127
8, 22323, Note_on_c, 9, 47, 0
8, 22339, Note_on_c, 9, 45, 127
8, 22397, Note_on_c, 9, 45, 0
8, 22412, Note_on_c, 9, 43, 127
8, 22470, Note_on_c, 9, 43, 0
8, 22486, Note_on_c, 9, 41, 127
8, 22544, Note_on_c, 9, 41, 0
8, 23280, Note_on_c, 9, 45, 127
8, 23313, Note_on_c, 9, 45, 0
8, 23340, Note_on_c, 9, 45, 123
8, 23377, Note_on_c, 9, 45, 0
8, 23400, Note_on_c, 9, 43, 127
8, 23430, Note_on_c, 9, 43, 0
8, 23460, Note_on_c, 9, 43, 127
8, 23492, Note_on_c, 9, 43, 0
8, 28680, Note_on_c, 9, 47, 123
8, 28722, Note_on_c, 9, 47, 0
8, 28740, Note_on_c, 9, 47, 127
8, 28777, Note_on_c, 9, 47, 0
8, 34320, Note_on_c, 9, 48, 123
8, 34368, Note_on_c, 9, 48, 0
8, 34380, Note_on_c, 9, 47, 127
8, 34429, Note_on_c, 9, 47, 0
8, 34440, Note_on_c, 9, 48, 127
8, 34485, Note_on_c, 9, 48, 0
8, 34500, Note_on_c, 9, 45, 127
8, 34544, Note_on_c, 9, 45, 0
8, 35400, Note_on_c, 9, 50, 123
8, 35442, Note_on_c, 9, 50, 0
8, 35460, Note_on_c, 9, 50, 111
8, 35506, Note_on_c, 9, 50, 0
8, 35520, Note_on_c, 9, 48, 117
8, 35556, Note_on_c, 9, 48, 0
8, 35580, Note_on_c, 9, 48, 107
8, 35617, Note_on_c, 9, 48, 0
8, 35640, Note_on_c, 9, 47, 117
8, 35677, Note_on_c, 9, 47, 0
8, 35700, Note_on_c, 9, 47, 113
8, 35743, Note_on_c, 9, 47, 0
8, 47880, Note_on_c, 9, 45, 123
8, 47921, Note_on_c, 9, 45, 0
8, 47940, Note_on_c, 9, 45, 119
8, 47980, Note_on_c, 9, 45, 0
8, 48000, Note_on_c, 9, 45, 127
8, 48037, Note_on_c, 9, 45, 0
8, 48060, Note_on_c, 9, 45, 127
8, 48095, Note_on_c, 9, 45, 0
8, 48120, Note_on_c, 9, 43, 127
8, 48154, Note_on_c, 9, 43, 0
8, 48180, Note_on_c, 9, 43, 103
8, 48210, Note_on_c, 9, 43, 0
8, 48240, Note_on_c, 9, 41, 127
8, 48273, Note_on_c, 9, 41, 0
8, 48300, Note_on_c, 9, 41, 127
8, 48337, Note_on_c, 9, 41, 0
8, 48360, Note_on_c, 9, 41, 127
8, 48393, Note_on_c, 9, 41, 0
8, 48420, Note_on_c, 9, 41, 111
8, 48448, Note_on_c, 9, 41, 0
8, 54480, Note_on_c, 9, 45, 115
8, 54534, Note_on_c, 9, 45, 0
8, 54560, Note_on_c, 9, 47, 127
8, 54613, Note_on_c, 9, 47, 0
8, 54640, Note_on_c, 9, 43, 127
8, 54686, Note_on_c, 9, 43, 0
8, 58720, Note_on_c, 9, 45, 127
8, 58778, Note_on_c, 9, 45, 0
8, 58880, Note_on_c, 9, 43, 107
8, 58929, Note_on_c, 9, 43, 0
8, 58960, Note_on_c, 9, 41, 127
8, 59005, Note_on_c, 9, 41, 0
8, 63520, Note_on_c, 9, 47, 127
8, 63574, Note_on_c, 9, 47, 0
8, 63600, Note_on_c, 9, 45, 123
8, 63651, Note_on_c, 9, 45, 0
8, 63680, Note_on_c, 9, 43, 127
8, 63729, Note_on_c, 9, 43, 0
8, 63760, Note_on_c, 9, 41, 127
8, 63803, Note_on_c, 9, 41, 0
8, 63840, Note_on_c, 9, 43, 127
8, 63898, Note_on_c, 9, 43, 0
8, 63987, Note_on_c, 9, 41, 127
8, 64045, Note_on_c, 9, 41, 0
8, 64060, Note_on_c, 9, 43, 127
8, 64118, Note_on_c, 9, 43, 0
8, 64134, Note_on_c, 9, 45, 127
8, 64192, Note_on_c, 9, 45, 0
8, 64207, Note_on_c, 9, 47, 127
8, 64265, Note_on_c, 9, 47, 0
8, 64358, Note_on_c, 9, 48, 127
8, 64416, Note_on_c, 9, 48, 0
8, 64505, Note_on_c, 9, 47, 127
8, 64563, Note_on_c, 9, 47, 0
8, 64579, Note_on_c, 9, 45, 127
8, 64637, Note_on_c, 9, 45, 0
8, 64652, Note_on_c, 9, 43, 127
8, 64710, Note_on_c, 9, 43, 0
8, 64726, Note_on_c, 9, 41, 127
8, 64784, Note_on_c, 9, 41, 0
8, 73080, Note_on_c, 9, 43, 127
8, 73105, Note_on_c, 9, 43, 0
8, 73140, Note_on_c, 9, 43, 127
8, 73181, Note_on_c, 9, 43, 0
8, 76500, Note_on_c, 9, 47, 123
8, 76541, Note_on_c, 9, 47, 0
8, 76560, Note_on_c, 9, 45, 127
8, 76597, Note_on_c, 9, 45, 0
8, 76620, Note_on_c, 9, 45, 119
8, 76661, Note_on_c, 9, 45, 0
8, 76680, Note_on_c, 9, 43, 127
8, 76714, Note_on_c, 9, 43, 0
8, 76740, Note_on_c, 9, 43, 119
8, 76781, Note_on_c, 9, 43, 0
8, 90000, Note_on_c, 9, 47, 115
8, 90028, Note_on_c, 9, 47, 0
8, 90060, Note_on_c, 9, 47, 127
8, 90106, Note_on_c, 9, 47, 0
8, 90177, Note_on_c, 9, 45, 127
8, 90202, Note_on_c, 9, 45, 0
8, 90209, Note_on_c, 9, 45, 123
8, 90246, Note_on_c, 9, 45, 0
8, 90343, Note_on_c, 9, 43, 127
8, 90368, Note_on_c, 9, 43, 0
8, 90375, Note_on_c, 9, 43, 127
8, 90405, Note_on_c, 9, 43, 0
8, 90480, Note_on_c, 9, 43, 123
8, 90517, Note_on_c, 9, 43, 0
8, 90519, Note_on_c, 9, 41, 107
8, 90560, Note_on_c, 9, 41, 0
8, 90569, Note_on_c, 9, 43, 99
8, 90601, Note_on_c, 9, 43, 0
8, 90610, Note_on_c, 9, 41, 93
8, 90647, Note_on_c, 9, 41, 0
8, 90652, Note_on_c, 9, 43, 107
8, 90681, Note_on_c, 9, 43, 0
8, 90688, Note_on_c, 9, 41, 111
8, 90729, Note_on_c, 9, 41, 0
8, 96137, Note_on_c, 9, 47, 93
8, 96222, Note_on_c, 9, 47, 0
8, 96223, Note_on_c, 9, 45, 99
8, 96308, Note_on_c, 9, 45, 0
8, 96309, Note_on_c, 9, 43, 91
8, 96394, Note_on_c, 9, 43, 0
8, 96395, Note_on_c, 9, 45, 107
8, 96480, Note_on_c, 9, 45, 0
8, 96481, Note_on_c, 9, 47, 107
8, 96566, Note_on_c, 9, 47, 0
8, 96655, Note_on_c, 9, 48, 115
8, 96741, Note_on_c, 9, 48, 0
8, 96742, Note_on_c, 9, 47, 107
8, 96828, Note_on_c, 9, 47, 0
8, 96829, Note_on_c, 9, 45, 115
8, 96915, Note_on_c, 9, 45, 0
8, 96916, Note_on_c, 9, 43, 119
8, 97002, Note_on_c, 9, 43, 0
8, 97003, Note_on_c, 9, 45, 119
8, 97089, Note_on_c, 9, 45, 0
8, 97090, Note_on_c, 9, 47, 99
8, 97176, Note_on_c, 9, 47, 0
8, 97177, Note_on_c, 9, 45, 95
8, 97263, Note_on_c, 9, 45, 0
8, 97264, Note_on_c, 9, 43, 99
8, 97350, Note_on_c, 9, 43, 0
8, 97351, Note_on_c, 9, 41, 103
8, 97437, Note_on_c, 9, 41, 0
8, 97438, Note_on_c, 9, 43, 99
8, 97524, Note_on_c, 9, 43, 0
8, 97525, Note_on_c, 9, 45, 99
8, 97611, Note_on_c, 9, 45, 0
8, 97612, Note_on_c, 9, 43, 99
8, 97698, Note_on_c, 9, 43, 0
8, 97699, Note_on_c, 9, 47, 111
8, 97785, Note_on_c, 9, 47, 0
8, 97786, Note_on_c, 9, 45, 115
8, 97872, Note_on_c, 9, 45, 0
8, 97873, Note_on_c, 9, 43, 103
8, 97959, Note_on_c, 9, 43, 0
8, 97960, Note_on_c, 9, 41, 111
8, 98046, Note_on_c, 9, 41, 0
8, 98047, Note_on_c, 9, 43, 115
8, 98133, Note_on_c, 9, 43, 0
8, 98134, Note_on_c, 9, 45, 107
8, 98220, Note_on_c, 9, 45, 0
8, 98221, Note_on_c, 9, 43, 111
8, 98307, Note_on_c, 9, 43, 0
8, 98308, Note_on_c, 9, 41, 119
8, 98394, Note_on_c, 9, 41, 0
8, 100407, Note_on_c, 9, 48, 127
8, 100451, Note_on_c, 9, 48, 0
8, 100495, Note_on_c, 9, 47, 127
8, 100539, Note_on_c, 9, 47, 0
8, 100582, Note_on_c, 9, 45, 127
8, 100626, Note_on_c, 9, 45, 0
8, 100670, Note_on_c, 9, 47, 127
8, 100714, Note_on_c, 9, 47, 0
8, 100757, Note_on_c, 9, 45, 127
8, 100801, Note_on_c, 9, 45, 0
8, 100844, Note_on_c, 9, 43, 127
8, 100888, Note_on_c, 9, 43, 0
8, 100932, Note_on_c, 9, 41, 127
8, 100976, Note_on_c, 9, 41, 0
8, 101019, Note_on_c, 9, 43, 127
8, 101063, Note_on_c, 9, 43, 0
8, 101106, Note_on_c, 9, 45, 127
8, 101150, Note_on_c, 9, 45, 0
8, 101193, Note_on_c, 9, 43, 127
8, 101237, Note_on_c, 9, 43, 0
8, 101367, Note_on_c, 9, 47, 127
8, 101411, Note_on_c, 9, 47, 0
8, 101455, Note_on_c, 9, 45, 127
8, 101499, Note_on_c, 9, 45, 0
8, 101542, Note_on_c, 9, 43, 127
8, 101586, Note_on_c, 9, 43, 0
8, 101629, Note_on_c, 9, 41, 127
8, 101673, Note_on_c, 9, 41, 0
8, 101717, Note_on_c, 9, 43, 127
8, 101761, Note_on_c, 9, 43, 0
8, 101891, Note_on_c, 9, 41, 127
8, 101935, Note_on_c, 9, 41, 0
8, 102066, Note_on_c, 9, 41, 127
8, 102066, Note_on_c, 9, 43, 127
8, 102103, Note_on_c, 9, 43, 0
8, 102110, Note_on_c, 9, 41, 0
8, 102153, Note_on_c, 9, 63, 127
8, 102197, Note_on_c, 9, 63, 0
8, 104247, Note_on_c, 9, 48, 127
8, 104291, Note_on_c, 9, 48, 0
8, 104335, Note_on_c, 9, 47, 127
8, 104379, Note_on_c, 9, 47, 0
8, 104422, Note_on_c, 9, 45, 127
8, 104466, Note_on_c, 9, 45, 0
8, 104510, Note_on_c, 9, 47, 127
8, 104554, Note_on_c, 9, 47, 0
8, 104597, Note_on_c, 9, 45, 127
8, 104641, Note_on_c, 9, 45, 0
8, 104684, Note_on_c, 9, 43, 127
8, 104728, Note_on_c, 9, 43, 0
8, 104772, Note_on_c, 9, 41, 127
8, 104816, Note_on_c, 9, 41, 0
8, 104859, Note_on_c, 9, 43, 127
8, 104903, Note_on_c, 9, 43, 0
8, 104946, Note_on_c, 9, 45, 127
8, 104990, Note_on_c, 9, 45, 0
8, 105033, Note_on_c, 9, 43, 127
8, 105077, Note_on_c, 9, 43, 0
8, 105207, Note_on_c, 9, 47, 127
8, 105251, Note_on_c, 9, 47, 0
8, 105295, Note_on_c, 9, 45, 127
8, 105339, Note_on_c, 9, 45, 0
8, 105382, Note_on_c, 9, 43, 127
8, 105426, Note_on_c, 9, 43, 0
8, 105469, Note_on_c, 9, 41, 127
8, 105513, Note_on_c, 9, 41, 0
8, 105557, Note_on_c, 9, 43, 127
8, 105601, Note_on_c, 9, 43, 0
8, 105731, Note_on_c, 9, 41, 127
8, 105775, Note_on_c, 9, 41, 0
8, 105906, Note_on_c, 9, 41, 127
8, 105906, Note_on_c, 9, 43, 127
8, 105943, Note_on_c, 9, 43, 0
8, 105950, Note_on_c, 9, 41, 0
8, 105993, Note_on_c, 9, 63, 127
8, 106037, Note_on_c, 9, 63, 0
8, 106037, End_track
9, 0, Start_track
9, 0, MIDI_port, 0
9, 0, Title_t, "RUTH UNDERWOOD"
9, 0, Program_c, 4, 9
9, 0, Control_c, 4, 7, 107
9, 0, Control_c, 4, 10, 64
9, 8160, Note_on_c, 4, 71, 127
9, 9120, Note_on_c, 4, 71, 0
9, 9120, Note_on_c, 4, 78, 127
9, 9170, Note_on_c, 4, 78, 0
9, 9240, Note_on_c, 4, 78, 127
9, 9290, Note_on_c, 4, 78, 0
9, 9360, Note_on_c, 4, 73, 127
9, 9414, Note_on_c, 4, 73, 0
9, 9540, Note_on_c, 4, 71, 127
9, 9590, Note_on_c, 4, 71, 0
9, 9600, Note_on_c, 4, 81, 127
9, 9900, Note_on_c, 4, 84, 127
9, 9906, Note_on_c, 4, 81, 0
9, 9960, Note_on_c, 4, 79, 127
9, 9962, Note_on_c, 4, 84, 0
9, 10080, Note_on_c, 4, 79, 0
9, 10080, Note_on_c, 4, 76, 127
9, 10139, Note_on_c, 4, 76, 0
9, 10140, Note_on_c, 4, 81, 127
9, 10199, Note_on_c, 4, 81, 0
9, 10200, Note_on_c, 4, 81, 127
9, 10900, Note_on_c, 4, 81, 0
9, 11160, Note_on_c, 4, 76, 127
9, 11220, Note_on_c, 4, 81, 127
9, 11224, Note_on_c, 4, 76, 0
9, 11277, Note_on_c, 4, 81, 0
9, 11280, Note_on_c, 4, 81, 127
9, 11805, Note_on_c, 4, 81, 0
9, 11880, Note_on_c, 4, 78, 127
9, 12000, Note_on_c, 4, 78, 0
9, 12000, Note_on_c, 4, 79, 127
9, 12080, Note_on_c, 4, 79, 0
9, 12080, Note_on_c, 4, 84, 127
9, 12160, Note_on_c, 4, 84, 0
9, 12160, Note_on_c, 4, 77, 127
9, 12240, Note_on_c, 4, 77, 0
9, 12240, Note_on_c, 4, 81, 127
9, 12820, Note_on_c, 4, 81, 0
9, 12960, Note_on_c, 4, 76, 127
9, 13040, Note_on_c, 4, 76, 0
9, 13120, Note_on_c, 4, 74, 127
9, 13200, Note_on_c, 4, 74, 0
9, 13200, Note_on_c, 4, 84, 127
9, 14340, Note_on_c, 4, 84, 0
9, 14400, Note_on_c, 4, 84, 127
9, 14420, Note_on_c, 4, 84, 0
9, 14420, Note_on_c, 4, 81, 127
9, 14750, Note_on_c, 4, 81, 0
9, 14760, Note_on_c, 4, 79, 127
9, 15110, Note_on_c, 4, 79, 0
9, 15120, Note_on_c, 4, 77, 127
9, 15470, Note_on_c, 4, 77, 0
9, 15480, Note_on_c, 4, 74, 127
9, 15830, Note_on_c, 4, 74, 0
9, 15840, Note_on_c, 4, 73, 127
9, 16200, Note_on_c, 4, 73, 0
9, 16200, Note_on_c, 4, 74, 127
9, 16260, Note_on_c, 4, 74, 0
9, 16260, Note_on_c, 4, 79, 127
9, 16320, Note_on_c, 4, 79, 0
9, 16320, Note_on_c, 4, 76, 127
9, 17760, Note_on_c, 4, 76, 0
9, 19680, Note_on_c, 4, 72, 127
9, 19740, Note_on_c, 4, 72, 0
9, 19800, Note_on_c, 4, 76, 127
9, 19860, Note_on_c, 4, 76, 0
9, 19920, Note_on_c, 4, 74, 127
9, 19980, Note_on_c, 4, 74, 0
9, 20040, Note_on_c, 4, 77, 127
9, 20100, Note_on_c, 4, 77, 0
9, 20160, Note_on_c, 4, 76, 127
9, 20220, Note_on_c, 4, 76, 0
9, 20280, Note_on_c, 4, 67, 127
9, 20340, Note_on_c, 4, 67, 0
9, 20400, Note_on_c, 4, 77, 127
9, 20460, Note_on_c, 4, 77, 0
9, 20520, Note_on_c, 4, 74, 127
9, 20580, Note_on_c, 4, 74, 0
9, 20640, Note_on_c, 4, 81, 127
9, 20720, Note_on_c, 4, 81, 0
9, 20800, Note_on_c, 4, 84, 127
9, 20880, Note_on_c, 4, 84, 0
9, 20960, Note_on_c, 4, 76, 127
9, 21040, Note_on_c, 4, 76, 0
9, 21120, Note_on_c, 4, 76, 127
9, 21168, Note_on_c, 4, 76, 0
9, 21200, Note_on_c, 4, 77, 127
9, 21248, Note_on_c, 4, 77, 0
9, 21280, Note_on_c, 4, 76, 127
9, 21328, Note_on_c, 4, 76, 0
9, 21360, Note_on_c, 4, 74, 127
9, 21408, Note_on_c, 4, 74, 0
9, 21440, Note_on_c, 4, 69, 127
9, 21488, Note_on_c, 4, 69, 0
9, 21520, Note_on_c, 4, 70, 127
9, 21578, Note_on_c, 4, 70, 0
9, 21600, Note_on_c, 4, 72, 127
9, 21658, Note_on_c, 4, 72, 0
9, 21673, Note_on_c, 4, 72, 127
9, 21731, Note_on_c, 4, 72, 0
9, 21747, Note_on_c, 4, 74, 127
9, 21805, Note_on_c, 4, 74, 0
9, 21820, Note_on_c, 4, 74, 127
9, 21878, Note_on_c, 4, 74, 0
9, 21894, Note_on_c, 4, 76, 127
9, 21952, Note_on_c, 4, 76, 0
9, 21967, Note_on_c, 4, 77, 127
9, 22025, Note_on_c, 4, 77, 0
9, 22045, Note_on_c, 4, 81, 127
9, 22103, Note_on_c, 4, 81, 0
9, 22118, Note_on_c, 4, 67, 127
9, 22176, Note_on_c, 4, 67, 0
9, 22192, Note_on_c, 4, 67, 127
9, 22250, Note_on_c, 4, 67, 0
9, 22265, Note_on_c, 4, 74, 127
9, 22323, Note_on_c, 4, 74, 0
9, 22339, Note_on_c, 4, 65, 127
9, 22397, Note_on_c, 4, 65, 0
9, 22412, Note_on_c, 4, 64, 127
9, 22470, Note_on_c, 4, 64, 0
9, 22486, Note_on_c, 4, 64, 127
9, 22544, Note_on_c, 4, 64, 0
9, 22560, Note_on_c, 4, 79, 127
9, 24460, Note_on_c, 4, 79, 0
9, 24720, Note_on_c, 4, 83, 127
9, 24834, Note_on_c, 4, 83, 0
9, 24840, Note_on_c, 4, 85, 127
9, 24934, Note_on_c, 4, 85, 0
9, 24960, Note_on_c, 4, 85, 127
9, 25094, Note_on_c, 4, 85, 0
9, 25120, Note_on_c, 4, 83, 127
9, 25254, Note_on_c, 4, 83, 0
9, 25280, Note_on_c, 4, 86, 127
9, 25414, Note_on_c, 4, 86, 0
9, 25440, Note_on_c, 4, 89, 127
9, 25574, Note_on_c, 4, 89, 0
9, 25600, Note_on_c, 4, 81, 127
9, 25734, Note_on_c, 4, 81, 0
9, 25760, Note_on_c, 4, 81, 127
9, 25894, Note_on_c, 4, 81, 0
9, 25920, Note_on_c, 4, 82, 127
9, 26260, Note_on_c, 4, 82, 0
9, 26280, Note_on_c, 4, 85, 127
9, 26394, Note_on_c, 4, 85, 0
9, 26400, Note_on_c, 4, 88, 127
9, 26533, Note_on_c, 4, 88, 0
9, 26560, Note_on_c, 4, 93, 127
9, 26693, Note_on_c, 4, 93, 0
9, 26720, Note_on_c, 4, 94, 127
9, 26853, Note_on_c, 4, 94, 0
9, 26880, Note_on_c, 4, 89, 127
9, 27013, Note_on_c, 4, 89, 0
9, 27040, Note_on_c, 4, 84, 127
9, 27173, Note_on_c, 4, 84, 0
9, 27200, Note_on_c, 4, 79, 127
9, 27333, Note_on_c, 4, 79, 0
9, 27360, Note_on_c, 4, 81, 127
9, 28550, Note_on_c, 4, 81, 0
9, 28560, Note_on_c, 4, 93, 127
9, 29750, Note_on_c, 4, 93, 0
9, 29760, Note_on_c, 4, 93, 127
9, 30950, Note_on_c, 4, 93, 0
9, 30960, Note_on_c, 4, 81, 127
9, 31876, Note_on_c, 4, 83, 64
9, 31880, Note_on_c, 4, 81, 0
9, 31917, Note_on_c, 4, 84, 73
9, 31929, Note_on_c, 4, 83, 0
9, 31949, Note_on_c, 4, 86, 80
9, 31960, Note_on_c, 4, 84, 0
9, 31975, Note_on_c, 4, 88, 85
9, 31992, Note_on_c, 4, 86, 0
9, 32018, Note_on_c, 4, 89, 95
9, 32029, Note_on_c, 4, 88, 0
9, 32059, Note_on_c, 4, 91, 104
9, 32071, Note_on_c, 4, 89, 0
9, 32110, Note_on_c, 4, 93, 115
9, 32133, Note_on_c, 4, 91, 0
9, 32160, Note_on_c, 4, 95, 127
9, 32198, Note_on_c, 4, 93, 0
9, 33350, Note_on_c, 4, 95, 0
9, 33360, Note_on_c, 4, 85, 127
9, 34550, Note_on_c, 4, 85, 0
9, 34560, Note_on_c, 4, 88, 127
9, 35750, Note_on_c, 4, 88, 0
9, 35760, Note_on_c, 4, 85, 127
9, 36950, Note_on_c, 4, 85, 0
9, 36960, Note_on_c, 4, 83, 127
9, 37024, Note_on_c, 4, 83, 0
9, 37080, Note_on_c, 4, 84, 127
9, 37144, Note_on_c, 4, 84, 0
9, 37200, Note_on_c, 4, 84, 127
9, 37264, Note_on_c, 4, 84, 0
9, 37280, Note_on_c, 4, 81, 127
9, 37344, Note_on_c, 4, 81, 0
9, 37360, Note_on_c, 4, 86, 127
9, 37424, Note_on_c, 4, 86, 0
9, 37440, Note_on_c, 4, 87, 127
9, 37504, Note_on_c, 4, 87, 0
9, 37560, Note_on_c, 4, 79, 127
9, 37624, Note_on_c, 4, 79, 0
9, 37680, Note_on_c, 4, 79, 127
9, 37744, Note_on_c, 4, 79, 0
9, 37760, Note_on_c, 4, 81, 127
9, 37824, Note_on_c, 4, 81, 0
9, 37840, Note_on_c, 4, 77, 127
9, 37904, Note_on_c, 4, 77, 0
9, 37920, Note_on_c, 4, 76, 127
9, 38023, Note_on_c, 4, 76, 0
9, 38080, Note_on_c, 4, 79, 127
9, 38183, Note_on_c, 4, 79, 0
9, 38240, Note_on_c, 4, 79, 127
9, 38343, Note_on_c, 4, 79, 0
9, 38400, Note_on_c, 4, 76, 127
9, 38503, Note_on_c, 4, 76, 0
9, 38560, Note_on_c, 4, 76, 127
9, 38663, Note_on_c, 4, 76, 0
9, 38720, Note_on_c, 4, 86, 127
9, 38823, Note_on_c, 4, 86, 0
9, 38880, Note_on_c, 4, 85, 127
9, 41280, Note_on_c, 4, 85, 0
9, 43680, Note_on_c, 4, 83, 127
9, 43980, Note_on_c, 4, 83, 0
9, 43980, Note_on_c, 4, 81, 127
9, 44040, Note_on_c, 4, 81, 0
9, 44040, Note_on_c, 4, 80, 127
9, 44100, Note_on_c, 4, 80, 0
9, 44100, Note_on_c, 4, 86, 127
9, 44160, Note_on_c, 4, 86, 0
9, 44160, Note_on_c, 4, 76, 127
9, 44240, Note_on_c, 4, 76, 0
9, 44240, Note_on_c, 4, 83, 127
9, 44320, Note_on_c, 4, 83, 0
9, 44320, Note_on_c, 4, 81, 127
9, 44400, Note_on_c, 4, 81, 0
9, 44400, Note_on_c, 4, 85, 127
9, 44448, Note_on_c, 4, 85, 0
9, 44448, Note_on_c, 4, 81, 127
9, 44496, Note_on_c, 4, 81, 0
9, 44496, Note_on_c, 4, 81, 127
9, 44544, Note_on_c, 4, 81, 0
9, 44544, Note_on_c, 4, 83, 127
9, 44592, Note_on_c, 4, 83, 0
9, 44592, Note_on_c, 4, 80, 127
9, 44640, Note_on_c, 4, 80, 0
9, 44736, Note_on_c, 4, 85, 127
9, 44832, Note_on_c, 4, 85, 0
9, 44832, Note_on_c, 4, 78, 127
9, 44928, Note_on_c, 4, 78, 0
9, 44928, Note_on_c, 4, 83, 127
9, 45024, Note_on_c, 4, 83, 0
9, 45024, Note_on_c, 4, 80, 127
9, 45120, Note_on_c, 4, 80, 0
9, 45120, Note_on_c, 4, 92, 127
9, 45216, Note_on_c, 4, 92, 0
9, 45216, Note_on_c, 4, 90, 127
9, 45312, Note_on_c, 4, 90, 0
9, 45312, Note_on_c, 4, 85, 127
9, 45408, Note_on_c, 4, 85, 0
9, 45408, Note_on_c, 4, 88, 127
9, 45504, Note_on_c, 4, 88, 0
9, 45504, Note_on_c, 4, 78, 127
9, 45600, Note_on_c, 4, 78, 0
9, 45600, Note_on_c, 4, 92, 127
9, 45696, Note_on_c, 4, 92, 0
9, 45696, Note_on_c, 4, 90, 127
9, 45792, Note_on_c, 4, 90, 0
9, 45792, Note_on_c, 4, 85, 127
9, 45888, Note_on_c, 4, 85, 0
9, 45888, Note_on_c, 4, 88, 127
9, 45984, Note_on_c, 4, 88, 0
9, 45984, Note_on_c, 4, 78, 127
9, 46034, Note_on_c, 4, 78, 0
9, 46080, Note_on_c, 4, 78, 127
9, 47956, Note_on_c, 4, 78, 0
9, 48480, Note_on_c, 4, 92, 127
9, 48540, Note_on_c, 4, 92, 0
9, 48540, Note_on_c, 4, 93, 127
9, 48600, Note_on_c, 4, 93, 0
9, 48600, Note_on_c, 4, 92, 127
9, 48660, Note_on_c, 4, 92, 0
9, 48720, Note_on_c, 4, 92, 127
9, 48780, Note_on_c, 4, 92, 0
9, 48780, Note_on_c, 4, 93, 127
9, 48840, Note_on_c, 4, 93, 0
9, 48840, Note_on_c, 4, 90, 127
9, 48900, Note_on_c, 4, 90, 0
9, 48960, Note_on_c, 4, 92, 127
9, 49020, Note_on_c, 4, 92, 0
9, 49080, Note_on_c, 4, 83, 127
9, 49140, Note_on_c, 4, 83, 0
9, 49140, Note_on_c, 4, 93, 127
9, 49200, Note_on_c, 4, 93, 0
9, 49200, Note_on_c, 4, 90, 127
9, 49260, Note_on_c, 4, 90, 0
9, 49260, Note_on_c, 4, 85, 127
9, 49320, Note_on_c, 4, 85, 0
9, 49320, Note_on_c, 4, 95, 127
9, 49380, Note_on_c, 4, 95, 0
9, 49380, Note_on_c, 4, 90, 127
9, 49440, Note_on_c, 4, 90, 0
9, 49440, Note_on_c, 4, 92, 127
9, 49500, Note_on_c, 4, 92, 0
9, 49500, Note_on_c, 4, 88, 127
9, 49560, Note_on_c, 4, 88, 0
9, 49560, Note_on_c, 4, 88, 127
9, 49620, Note_on_c, 4, 88, 0
9, 49620, Note_on_c, 4, 85, 127
9, 49680, Note_on_c, 4, 85, 0
9, 49680, Note_on_c, 4, 90, 127
9, 49740, Note_on_c, 4, 90, 0
9, 49740, Note_on_c, 4, 92, 127
9, 49800, Note_on_c, 4, 92, 0
9, 49800, Note_on_c, 4, 92, 127
9, 49860, Note_on_c, 4, 92, 0
9, 49860, Note_on_c, 4, 95, 127
9, 49920, Note_on_c, 4, 95, 0
9, 49920, Note_on_c, 4, 93, 127
9, 49980, Note_on_c, 4, 93, 0
9, 49980, Note_on_c, 4, 92, 127
9, 50040, Note_on_c, 4, 92, 0
9, 50040, Note_on_c, 4, 92, 127
9, 50100, Note_on_c, 4, 92, 0
9, 50100, Note_on_c, 4, 95, 127
9, 50160, Note_on_c, 4, 95, 0
9, 50160, Note_on_c, 4, 90, 127
9, 50220, Note_on_c, 4, 90, 0
9, 50220, Note_on_c, 4, 78, 127
9, 50280, Note_on_c, 4, 78, 0
9, 50280, Note_on_c, 4, 78, 127
9, 50340, Note_on_c, 4, 78, 0
9, 50340, Note_on_c, 4, 83, 127
9, 50400, Note_on_c, 4, 83, 0
9, 50400, Note_on_c, 4, 85, 127
9, 50460, Note_on_c, 4, 85, 0
9, 50460, Note_on_c, 4, 81, 127
9, 50520, Note_on_c, 4, 81, 0
9, 50520, Note_on_c, 4, 83, 127
9, 50580, Note_on_c, 4, 83, 0
9, 50580, Note_on_c, 4, 88, 127
9, 50640, Note_on_c, 4, 88, 0
9, 50640, Note_on_c, 4, 92, 127
9, 50700, Note_on_c, 4, 92, 0
9, 50700, Note_on_c, 4, 78, 127
9, 50760, Note_on_c, 4, 78, 0
9, 50760, Note_on_c, 4, 83, 127
9, 50820, Note_on_c, 4, 83, 0
9, 50820, Note_on_c, 4, 85, 127
9, 50880, Note_on_c, 4, 85, 0
9, 50880, Note_on_c, 4, 86, 127
9, 50940, Note_on_c, 4, 86, 0
9, 50940, Note_on_c, 4, 93, 127
9, 51000, Note_on_c, 4, 93, 0
9, 51000, Note_on_c, 4, 90, 127
9, 51060, Note_on_c, 4, 90, 0
9, 51060, Note_on_c, 4, 88, 127
9, 51120, Note_on_c, 4, 88, 0
9, 51120, Note_on_c, 4, 90, 127
9, 51180, Note_on_c, 4, 90, 0
9, 51180, Note_on_c, 4, 92, 127
9, 51240, Note_on_c, 4, 92, 0
9, 51240, Note_on_c, 4, 88, 127
9, 51300, Note_on_c, 4, 88, 0
9, 51300, Note_on_c, 4, 83, 127
9, 51360, Note_on_c, 4, 83, 0
9, 51600, Note_on_c, 4, 90, 127
9, 51660, Note_on_c, 4, 90, 0
9, 51660, Note_on_c, 4, 92, 127
9, 51720, Note_on_c, 4, 92, 0
9, 51720, Note_on_c, 4, 88, 127
9, 51780, Note_on_c, 4, 88, 0
9, 51780, Note_on_c, 4, 83, 127
9, 51840, Note_on_c, 4, 83, 0
9, 52320, Note_on_c, 4, 90, 127
9, 52380, Note_on_c, 4, 90, 0
9, 52380, Note_on_c, 4, 92, 127
9, 52440, Note_on_c, 4, 92, 0
9, 52440, Note_on_c, 4, 88, 127
9, 52500, Note_on_c, 4, 88, 0
9, 52500, Note_on_c, 4, 83, 127
9, 52560, Note_on_c, 4, 83, 0
9, 53040, Note_on_c, 4, 90, 127
9, 53100, Note_on_c, 4, 90, 0
9, 53100, Note_on_c, 4, 92, 127
9, 53160, Note_on_c, 4, 92, 0
9, 53160, Note_on_c, 4, 88, 127
9, 53220, Note_on_c, 4, 88, 0
9, 53220, Note_on_c, 4, 83, 127
9, 53280, Note_on_c, 4, 83, 0
9, 53280, Note_on_c, 4, 93, 127
9, 53600, Note_on_c, 4, 93, 0
9, 53732, Note_on_c, 4, 93, 127
9, 53760, Note_on_c, 4, 92, 127
9, 53762, Note_on_c, 4, 93, 0
9, 53920, Note_on_c, 4, 92, 0
9, 54000, Note_on_c, 4, 90, 127
9, 54160, Note_on_c, 4, 90, 0
9, 54240, Note_on_c, 4, 100, 127
9, 54329, Note_on_c, 4, 100, 0
9, 54360, Note_on_c, 4, 90, 127
9, 54449, Note_on_c, 4, 90, 0
9, 54480, Note_on_c, 4, 90, 127
9, 54545, Note_on_c, 4, 90, 0
9, 54560, Note_on_c, 4, 95, 127
9, 54621, Note_on_c, 4, 95, 0
9, 54640, Note_on_c, 4, 92, 127
9, 54701, Note_on_c, 4, 92, 0
9, 54720, Note_on_c, 4, 97, 127
9, 54800, Note_on_c, 4, 97, 0
9, 54840, Note_on_c, 4, 95, 127
9, 54920, Note_on_c, 4, 95, 0
9, 54960, Note_on_c, 4, 95, 127
9, 55040, Note_on_c, 4, 95, 0
9, 55080, Note_on_c, 4, 93, 127
9, 55160, Note_on_c, 4, 93, 0
9, 55200, Note_on_c, 4, 92, 127
9, 55532, Note_on_c, 4, 95, 127
9, 55556, Note_on_c, 4, 95, 0
9, 55560, Note_on_c, 4, 93, 127
9, 55575, Note_on_c, 4, 92, 0
9, 55624, Note_on_c, 4, 93, 0
9, 55680, Note_on_c, 4, 90, 127
9, 55824, Note_on_c, 4, 90, 0
9, 55840, Note_on_c, 4, 88, 127
9, 55984, Note_on_c, 4, 88, 0
9, 56000, Note_on_c, 4, 88, 127
9, 56144, Note_on_c, 4, 88, 0
9, 56160, Note_on_c, 4, 90, 127
9, 56640, Note_on_c, 4, 90, 0
9, 56640, Note_on_c, 4, 78, 127
9, 56700, Note_on_c, 4, 78, 0
9, 56700, Note_on_c, 4, 83, 127
9, 56760, Note_on_c, 4, 83, 0
9, 56760, Note_on_c, 4, 83, 127
9, 56820, Note_on_c, 4, 83, 0
9, 56820, Note_on_c, 4, 81, 127
9, 56880, Note_on_c, 4, 81, 0
9, 56880, Note_on_c, 4, 83, 127
9, 57180, Note_on_c, 4, 83, 0
9, 57215, Note_on_c, 4, 85, 127
9, 57240, Note_on_c, 4, 83, 127
9, 57253, Note_on_c, 4, 85, 0
9, 57300, Note_on_c, 4, 83, 0
9, 57360, Note_on_c, 4, 78, 127
9, 57720, Note_on_c, 4, 78, 0
9, 57720, Note_on_c, 4, 80, 127
9, 57960, Note_on_c, 4, 80, 0
9, 57960, Note_on_c, 4, 71, 127
9, 58080, Note_on_c, 4, 71, 0
9, 58080, Note_on_c, 4, 72, 127
9, 58240, Note_on_c, 4, 82, 127
9, 58250, Note_on_c, 4, 72, 0
9, 58400, Note_on_c, 4, 77, 127
9, 58410, Note_on_c, 4, 82, 0
9, 58560, Note_on_c, 4, 87, 127
9, 58570, Note_on_c, 4, 77, 0
9, 59030, Note_on_c, 4, 87, 0
9, 59040, Note_on_c, 4, 85, 127
9, 59120, Note_on_c, 4, 85, 0
9, 59200, Note_on_c, 4, 82, 127
9, 59280, Note_on_c, 4, 82, 0
9, 59280, Note_on_c, 4, 84, 127
9, 60000, Note_on_c, 4, 84, 0
9, 60221, Note_on_c, 4, 87, 127
9, 60240, Note_on_c, 4, 80, 127
9, 60247, Note_on_c, 4, 87, 0
9, 60432, Note_on_c, 4, 80, 0
9, 60480, Note_on_c, 4, 85, 127
9, 60640, Note_on_c, 4, 89, 127
9, 60672, Note_on_c, 4, 85, 0
9, 60800, Note_on_c, 4, 82, 127
9, 60832, Note_on_c, 4, 89, 0
9, 60960, Note_on_c, 4, 87, 127
9, 60992, Note_on_c, 4, 82, 0
9, 61045, Note_on_c, 4, 87, 0
9, 61080, Note_on_c, 4, 85, 127
9, 61140, Note_on_c, 4, 85, 0
9, 61140, Note_on_c, 4, 89, 127
9, 61200, Note_on_c, 4, 89, 0
9, 61200, Note_on_c, 4, 84, 127
9, 61910, Note_on_c, 4, 84, 0
9, 61920, Note_on_c, 4, 72, 127
9, 61968, Note_on_c, 4, 72, 0
9, 62040, Note_on_c, 4, 76, 127
9, 62100, Note_on_c, 4, 76, 0
9, 62160, Note_on_c, 4, 74, 127
9, 62220, Note_on_c, 4, 74, 0
9, 62280, Note_on_c, 4, 77, 127
9, 62340, Note_on_c, 4, 77, 0
9, 62400, Note_on_c, 4, 76, 127
9, 62460, Note_on_c, 4, 76, 0
9, 62520, Note_on_c, 4, 67, 127
9, 62580, Note_on_c, 4, 67, 0
9, 62640, Note_on_c, 4, 77, 127
9, 62700, Note_on_c, 4, 77, 0
9, 62760, Note_on_c, 4, 74, 127
9, 62820, Note_on_c, 4, 74, 0
9, 62880, Note_on_c, 4, 81, 127
9, 62990, Note_on_c, 4, 81, 0
9, 63040, Note_on_c, 4, 84, 127
9, 63150, Note_on_c, 4, 84, 0
9, 63200, Note_on_c, 4, 76, 127
9, 63310, Note_on_c, 4, 76, 0
9, 63360, Note_on_c, 4, 76, 127
9, 63408, Note_on_c, 4, 76, 0
9, 63440, Note_on_c, 4, 77, 127
9, 63488, Note_on_c, 4, 77, 0
9, 63520, Note_on_c, 4, 76, 127
9, 63568, Note_on_c, 4, 76, 0
9, 63600, Note_on_c, 4, 74, 127
9, 63648, Note_on_c, 4, 74, 0
9, 63680, Note_on_c, 4, 69, 127
9, 63728, Note_on_c, 4, 69, 0
9, 63760, Note_on_c, 4, 70, 127
9, 63828, Note_on_c, 4, 70, 0
9, 63840, Note_on_c, 4, 72, 127
9, 63908, Note_on_c, 4, 72, 0
9, 63913, Note_on_c, 4, 72, 127
9, 63981, Note_on_c, 4, 72, 0
9, 63987, Note_on_c, 4, 74, 127
9, 64055, Note_on_c, 4, 74, 0
9, 64060, Note_on_c, 4, 74, 127
9, 64128, Note_on_c, 4, 74, 0
9, 64134, Note_on_c, 4, 76, 127
9, 64202, Note_on_c, 4, 76, 0
9, 64207, Note_on_c, 4, 77, 127
9, 64275, Note_on_c, 4, 77, 0
9, 64285, Note_on_c, 4, 81, 127
9, 64353, Note_on_c, 4, 81, 0
9, 64358, Note_on_c, 4, 67, 127
9, 64426, Note_on_c, 4, 67, 0
9, 64432, Note_on_c, 4, 67, 127
9, 64500, Note_on_c, 4, 67, 0
9, 64505, Note_on_c, 4, 74, 127
9, 64573, Note_on_c, 4, 74, 0
9, 64579, Note_on_c, 4, 65, 127
9, 64647, Note_on_c, 4, 65, 0
9, 64652, Note_on_c, 4, 65, 127
9, 64720, Note_on_c, 4, 65, 0
9, 64726, Note_on_c, 4, 64, 127
9, 64794, Note_on_c, 4, 64, 0
9, 64800, Note_on_c, 4, 79, 127
9, 66720, Note_on_c, 4, 79, 0
9, 66960, Note_on_c, 4, 83, 127
9, 67064, Note_on_c, 4, 83, 0
9, 67080, Note_on_c, 4, 85, 127
9, 67164, Note_on_c, 4, 85, 0
9, 67200, Note_on_c, 4, 85, 127
9, 67324, Note_on_c, 4, 85, 0
9, 67360, Note_on_c, 4, 83, 127
9, 67484, Note_on_c, 4, 83, 0
9, 67520, Note_on_c, 4, 86, 127
9, 67644, Note_on_c, 4, 86, 0
9, 67680, Note_on_c, 4, 89, 127
9, 67804, Note_on_c, 4, 89, 0
9, 67840, Note_on_c, 4, 81, 127
9, 67964, Note_on_c, 4, 81, 0
9, 68000, Note_on_c, 4, 81, 127
9, 68124, Note_on_c, 4, 81, 0
9, 68160, Note_on_c, 4, 82, 127
9, 68414, Note_on_c, 4, 82, 0
9, 68520, Note_on_c, 4, 85, 127
9, 68584, Note_on_c, 4, 85, 0
9, 68640, Note_on_c, 4, 88, 127
9, 68763, Note_on_c, 4, 88, 0
9, 68800, Note_on_c, 4, 93, 127
9, 68923, Note_on_c, 4, 93, 0
9, 68960, Note_on_c, 4, 94, 127
9, 69083, Note_on_c, 4, 94, 0
9, 69120, Note_on_c, 4, 89, 127
9, 69243, Note_on_c, 4, 89, 0
9, 69280, Note_on_c, 4, 84, 127
9, 69403, Note_on_c, 4, 84, 0
9, 69440, Note_on_c, 4, 79, 127
9, 69563, Note_on_c, 4, 79, 0
9, 69600, Note_on_c, 4, 81, 127
9, 70790, Note_on_c, 4, 81, 0
9, 70800, Note_on_c, 4, 93, 127
9, 71990, Note_on_c, 4, 93, 0
9, 72000, Note_on_c, 4, 93, 127
9, 73190, Note_on_c, 4, 93, 0
9, 73200, Note_on_c, 4, 81, 127
9, 74116, Note_on_c, 4, 83, 64
9, 74120, Note_on_c, 4, 81, 0
9, 74157, Note_on_c, 4, 84, 73
9, 74169, Note_on_c, 4, 83, 0
9, 74189, Note_on_c, 4, 86, 80
9, 74200, Note_on_c, 4, 84, 0
9, 74215, Note_on_c, 4, 88, 85
9, 74232, Note_on_c, 4, 86, 0
9, 74258, Note_on_c, 4, 89, 95
9, 74269, Note_on_c, 4, 88, 0
9, 74299, Note_on_c, 4, 91, 104
9, 74311, Note_on_c, 4, 89, 0
9, 74350, Note_on_c, 4, 93, 115
9, 74373, Note_on_c, 4, 91, 0
9, 74400, Note_on_c, 4, 95, 127
9, 74438, Note_on_c, 4, 93, 0
9, 75590, Note_on_c, 4, 95, 0
9, 75600, Note_on_c, 4, 85, 127
9, 76790, Note_on_c, 4, 85, 0
9, 76800, Note_on_c, 4, 88, 127
9, 77990, Note_on_c, 4, 88, 0
9, 78000, Note_on_c, 4, 85, 127
9, 79190, Note_on_c, 4, 85, 0
9, 79200, Note_on_c, 4, 82, 127
9, 79284, Note_on_c, 4, 82, 0
9, 79320, Note_on_c, 4, 84, 127
9, 79404, Note_on_c, 4, 84, 0
9, 79440, Note_on_c, 4, 84, 127
9, 79504, Note_on_c, 4, 84, 0
9, 79520, Note_on_c, 4, 81, 127
9, 79584, Note_on_c, 4, 81, 0
9, 79600, Note_on_c, 4, 86, 127
9, 79664, Note_on_c, 4, 86, 0
9, 79680, Note_on_c, 4, 87, 127
9, 79764, Note_on_c, 4, 87, 0
9, 79800, Note_on_c, 4, 79, 127
9, 79884, Note_on_c, 4, 79, 0
9, 79920, Note_on_c, 4, 79, 127
9, 79984, Note_on_c, 4, 79, 0
9, 80000, Note_on_c, 4, 81, 127
9, 80064, Note_on_c, 4, 81, 0
9, 80080, Note_on_c, 4, 77, 127
9, 80144, Note_on_c, 4, 77, 0
9, 80160, Note_on_c, 4, 76, 127
9, 80283, Note_on_c, 4, 76, 0
9, 80320, Note_on_c, 4, 79, 127
9, 80443, Note_on_c, 4, 79, 0
9, 80480, Note_on_c, 4, 79, 127
9, 80603, Note_on_c, 4, 79, 0
9, 80640, Note_on_c, 4, 77, 127
9, 80763, Note_on_c, 4, 77, 0
9, 80800, Note_on_c, 4, 77, 127
9, 80923, Note_on_c, 4, 77, 0
9, 80960, Note_on_c, 4, 82, 127
9, 81083, Note_on_c, 4, 82, 0
9, 81120, Note_on_c, 4, 83, 127
9, 83520, Note_on_c, 4, 83, 0
9, 85680, Control_c, 4, 7, 127
9, 85920, Note_on_c, 4, 81, 127
9, 86220, Note_on_c, 4, 81, 0
9, 86220, Note_on_c, 4, 79, 127
9, 86270, Note_on_c, 4, 79, 0
9, 86280, Note_on_c, 4, 78, 127
9, 86330, Note_on_c, 4, 78, 0
9, 86340, Note_on_c, 4, 84, 127
9, 86390, Note_on_c, 4, 84, 0
9, 86400, Note_on_c, 4, 74, 127
9, 86470, Note_on_c, 4, 74, 0
9, 86480, Note_on_c, 4, 81, 127
9, 86550, Note_on_c, 4, 81, 0
9, 86560, Note_on_c, 4, 79, 127
9, 86630, Note_on_c, 4, 79, 0
9, 86640, Note_on_c, 4, 83, 127
9, 86678, Note_on_c, 4, 83, 0
9, 86688, Note_on_c, 4, 79, 127
9, 86726, Note_on_c, 4, 79, 0
9, 86736, Note_on_c, 4, 79, 127
9, 86774, Note_on_c, 4, 79, 0
9, 86784, Note_on_c, 4, 81, 127
9, 86822, Note_on_c, 4, 81, 0
9, 86832, Note_on_c, 4, 78, 127
9, 86870, Note_on_c, 4, 78, 0
9, 86976, Note_on_c, 4, 83, 127
9, 87052, Note_on_c, 4, 83, 0
9, 87072, Note_on_c, 4, 76, 127
9, 87148, Note_on_c, 4, 76, 0
9, 87168, Note_on_c, 4, 81, 127
9, 87244, Note_on_c, 4, 81, 0
9, 87264, Note_on_c, 4, 78, 127
9, 87340, Note_on_c, 4, 78, 0
9, 87360, Note_on_c, 4, 90, 127
9, 87446, Note_on_c, 4, 90, 0
9, 87456, Note_on_c, 4, 88, 127
9, 87542, Note_on_c, 4, 88, 0
9, 87552, Note_on_c, 4, 83, 127
9, 87638, Note_on_c, 4, 83, 0
9, 87648, Note_on_c, 4, 86, 127
9, 87734, Note_on_c, 4, 86, 0
9, 87744, Note_on_c, 4, 76, 127
9, 87830, Note_on_c, 4, 76, 0
9, 87840, Note_on_c, 4, 90, 127
9, 87926, Note_on_c, 4, 90, 0
9, 87936, Note_on_c, 4, 88, 127
9, 88022, Note_on_c, 4, 88, 0
9, 88032, Note_on_c, 4, 83, 127
9, 88118, Note_on_c, 4, 83, 0
9, 88128, Note_on_c, 4, 86, 127
9, 88214, Note_on_c, 4, 86, 0
9, 88224, Note_on_c, 4, 76, 127
9, 88304, Note_on_c, 4, 76, 0
9, 88320, Note_on_c, 4, 76, 127
9, 89780, Note_on_c, 4, 76, 0
9, 90826, Note_on_c, 4, 78, 127
9, 90924, Note_on_c, 4, 78, 0
9, 90933, Note_on_c, 4, 79, 127
9, 91031, Note_on_c, 4, 79, 0
9, 91039, Note_on_c, 4, 84, 127
9, 91137, Note_on_c, 4, 84, 0
9, 91145, Note_on_c, 4, 83, 127
9, 91243, Note_on_c, 4, 83, 0
9, 91252, Note_on_c, 4, 90, 127
9, 91320, Note_on_c, 4, 90, 0
9, 91323, Note_on_c, 4, 91, 127
9, 91391, Note_on_c, 4, 91, 0
9, 91394, Note_on_c, 4, 88, 127
9, 91462, Note_on_c, 4, 88, 0
9, 91466, Note_on_c, 4, 93, 127
9, 91564, Note_on_c, 4, 93, 0
9, 91573, Note_on_c, 4, 90, 127
9, 91671, Note_on_c, 4, 90, 0
9, 91680, Note_on_c, 4, 91, 127
9, 91780, Note_on_c, 4, 91, 0
9, 91800, Note_on_c, 4, 90, 127
9, 91900, Note_on_c, 4, 90, 0
9, 91920, Note_on_c, 4, 90, 127
9, 92020, Note_on_c, 4, 90, 0
9, 92040, Note_on_c, 4, 88, 127
9, 92140, Note_on_c, 4, 88, 0
9, 92160, Note_on_c, 4, 93, 127
9, 92203, Note_on_c, 4, 93, 0
9, 92204, Note_on_c, 4, 98, 127
9, 92247, Note_on_c, 4, 98, 0
9, 92248, Note_on_c, 4, 93, 127
9, 92291, Note_on_c, 4, 93, 0
9, 92292, Note_on_c, 4, 95, 127
9, 92335, Note_on_c, 4, 95, 0
9, 92336, Note_on_c, 4, 96, 127
9, 92379, Note_on_c, 4, 96, 0
9, 92380, Note_on_c, 4, 100, 127
9, 92423, Note_on_c, 4, 100, 0
9, 92424, Note_on_c, 4, 95, 127
9, 92467, Note_on_c, 4, 95, 0
9, 92468, Note_on_c, 4, 95, 127
9, 92511, Note_on_c, 4, 95, 0
9, 92512, Note_on_c, 4, 96, 127
9, 92555, Note_on_c, 4, 96, 0
9, 92556, Note_on_c, 4, 86, 127
9, 92599, Note_on_c, 4, 86, 0
9, 92600, Note_on_c, 4, 93, 127
9, 92640, Note_on_c, 4, 95, 127
9, 92643, Note_on_c, 4, 93, 0
9, 92683, Note_on_c, 4, 95, 0
9, 92684, Note_on_c, 4, 88, 127
9, 92727, Note_on_c, 4, 88, 0
9, 92728, Note_on_c, 4, 88, 127
9, 92771, Note_on_c, 4, 88, 0
9, 92772, Note_on_c, 4, 91, 127
9, 92815, Note_on_c, 4, 91, 0
9, 92816, Note_on_c, 4, 91, 127
9, 92859, Note_on_c, 4, 91, 0
9, 92860, Note_on_c, 4, 98, 127
9, 92903, Note_on_c, 4, 98, 0
9, 92904, Note_on_c, 4, 90, 127
9, 92947, Note_on_c, 4, 90, 0
9, 92948, Note_on_c, 4, 90, 127
9, 92991, Note_on_c, 4, 90, 0
9, 92992, Note_on_c, 4, 93, 127
9, 93035, Note_on_c, 4, 93, 0
9, 93036, Note_on_c, 4, 88, 127
9, 93079, Note_on_c, 4, 88, 0
9, 93080, Note_on_c, 4, 83, 127
9, 93120, Note_on_c, 4, 93, 127
9, 93123, Note_on_c, 4, 83, 0
9, 93190, Note_on_c, 4, 93, 0
9, 93280, Note_on_c, 4, 84, 127
9, 93350, Note_on_c, 4, 84, 0
9, 93440, Note_on_c, 4, 84, 127
9, 93510, Note_on_c, 4, 84, 0
9, 93600, Note_on_c, 4, 91, 127
9, 93639, Note_on_c, 4, 91, 0
9, 93640, Note_on_c, 4, 91, 127
9, 93679, Note_on_c, 4, 91, 0
9, 93680, Note_on_c, 4, 91, 127
9, 93719, Note_on_c, 4, 91, 0
9, 93720, Note_on_c, 4, 91, 127
9, 93759, Note_on_c, 4, 91, 0
9, 93760, Note_on_c, 4, 91, 127
9, 93799, Note_on_c, 4, 91, 0
9, 93800, Note_on_c, 4, 91, 127
9, 93839, Note_on_c, 4, 91, 0
9, 93840, Note_on_c, 4, 91, 127
9, 93879, Note_on_c, 4, 91, 0
9, 93880, Note_on_c, 4, 91, 127
9, 93919, Note_on_c, 4, 91, 0
9, 93920, Note_on_c, 4, 91, 127
9, 93959, Note_on_c, 4, 91, 0
9, 93960, Note_on_c, 4, 91, 127
9, 93999, Note_on_c, 4, 91, 0
9, 94000, Note_on_c, 4, 91, 127
9, 94039, Note_on_c, 4, 91, 0
9, 94040, Note_on_c, 4, 91, 127
9, 94079, Note_on_c, 4, 91, 0
9, 94080, Note_on_c, 4, 91, 127
9, 94119, Note_on_c, 4, 91, 0
9, 94120, Note_on_c, 4, 91, 127
9, 94159, Note_on_c, 4, 91, 0
9, 94160, Note_on_c, 4, 91, 127
9, 94199, Note_on_c, 4, 91, 0
9, 94200, Note_on_c, 4, 91, 127
9, 94239, Note_on_c, 4, 91, 0
9, 94240, Note_on_c, 4, 91, 127
9, 94279, Note_on_c, 4, 91, 0
9, 94280, Note_on_c, 4, 91, 127
9, 94319, Note_on_c, 4, 91, 0
9, 94320, Note_on_c, 4, 91, 127
9, 94359, Note_on_c, 4, 91, 0
9, 94360, Note_on_c, 4, 91, 127
9, 94399, Note_on_c, 4, 91, 0
9, 94400, Note_on_c, 4, 91, 127
9, 94439, Note_on_c, 4, 91, 0
9, 94440, Note_on_c, 4, 91, 127
9, 94479, Note_on_c, 4, 91, 0
9, 94480, Note_on_c, 4, 91, 127
9, 94519, Note_on_c, 4, 91, 0
9, 94520, Note_on_c, 4, 91, 127
9, 94559, Note_on_c, 4, 91, 0
9, 94800, Note_on_c, 4, 87, 127
9, 94996, Note_on_c, 4, 90, 76
9, 95000, Note_on_c, 4, 87, 0
9, 95019, Note_on_c, 4, 92, 99
9, 95028, Note_on_c, 4, 90, 0
9, 95040, Note_on_c, 4, 94, 127
9, 95049, Note_on_c, 4, 92, 0
9, 95164, Note_on_c, 4, 94, 0
9, 95200, Note_on_c, 4, 92, 127
9, 95324, Note_on_c, 4, 92, 0
9, 95360, Note_on_c, 4, 89, 127
9, 95484, Note_on_c, 4, 89, 0
9, 95520, Note_on_c, 4, 89, 127
9, 95584, Note_on_c, 4, 89, 0
9, 95610, Note_on_c, 4, 91, 127
9, 95674, Note_on_c, 4, 91, 0
9, 95700, Note_on_c, 4, 87, 127
9, 95764, Note_on_c, 4, 87, 0
9, 95790, Note_on_c, 4, 82, 127
9, 95854, Note_on_c, 4, 82, 0
9, 95880, Note_on_c, 4, 92, 127
9, 95944, Note_on_c, 4, 92, 0
9, 95966, Note_on_c, 4, 96, 127
9, 96009, Note_on_c, 4, 96, 0
9, 96052, Note_on_c, 4, 94, 127
9, 96095, Note_on_c, 4, 94, 0
9, 96137, Note_on_c, 4, 94, 127
9, 96180, Note_on_c, 4, 94, 0
9, 96223, Note_on_c, 4, 92, 127
9, 96266, Note_on_c, 4, 92, 0
9, 96309, Note_on_c, 4, 92, 127
9, 96352, Note_on_c, 4, 92, 0
9, 96394, Note_on_c, 4, 89, 127
9, 96437, Note_on_c, 4, 89, 0
9, 96480, Note_on_c, 4, 94, 127
9, 96524, Note_on_c, 4, 94, 0
9, 96567, Note_on_c, 4, 90, 127
9, 96611, Note_on_c, 4, 90, 0
9, 96655, Note_on_c, 4, 90, 127
9, 96699, Note_on_c, 4, 90, 0
9, 96742, Note_on_c, 4, 89, 127
9, 96786, Note_on_c, 4, 89, 0
9, 96830, Note_on_c, 4, 92, 127
9, 96874, Note_on_c, 4, 92, 0
9, 96917, Note_on_c, 4, 85, 127
9, 96961, Note_on_c, 4, 85, 0
9, 97004, Note_on_c, 4, 85, 127
9, 97048, Note_on_c, 4, 85, 0
9, 97092, Note_on_c, 4, 87, 127
9, 97136, Note_on_c, 4, 87, 0
9, 97179, Note_on_c, 4, 83, 127
9, 97223, Note_on_c, 4, 83, 0
9, 97266, Note_on_c, 4, 92, 127
9, 97310, Note_on_c, 4, 92, 0
9, 97353, Note_on_c, 4, 89, 127
9, 97397, Note_on_c, 4, 89, 0
9, 97440, Note_on_c, 4, 89, 127
9, 97484, Note_on_c, 4, 89, 0
9, 97527, Note_on_c, 4, 87, 127
9, 97571, Note_on_c, 4, 87, 0
9, 97615, Note_on_c, 4, 90, 127
9, 97659, Note_on_c, 4, 90, 0
9, 97702, Note_on_c, 4, 85, 127
9, 97746, Note_on_c, 4, 85, 0
9, 97789, Note_on_c, 4, 89, 127
9, 97833, Note_on_c, 4, 89, 0
9, 97877, Note_on_c, 4, 87, 127
9, 97921, Note_on_c, 4, 87, 0
9, 97964, Note_on_c, 4, 92, 127
9, 98008, Note_on_c, 4, 92, 0
9, 98051, Note_on_c, 4, 85, 127
9, 98095, Note_on_c, 4, 85, 0
9, 98139, Note_on_c, 4, 90, 127
9, 98183, Note_on_c, 4, 90, 0
9, 98226, Note_on_c, 4, 77, 127
9, 98270, Note_on_c, 4, 77, 0
9, 98313, Note_on_c, 4, 75, 127
9, 98357, Note_on_c, 4, 75, 0
9, 98400, Note_on_c, 4, 84, 127
9, 100290, Note_on_c, 4, 84, 0
9, 100320, Note_on_c, 4, 94, 127
9, 100364, Note_on_c, 4, 94, 0
9, 100407, Note_on_c, 4, 90, 127
9, 100451, Note_on_c, 4, 90, 0
9, 100495, Note_on_c, 4, 90, 127
9, 100539, Note_on_c, 4, 90, 0
9, 100582, Note_on_c, 4, 89, 127
9, 100626, Note_on_c, 4, 89, 0
9, 100670, Note_on_c, 4, 92, 127
9, 100714, Note_on_c, 4, 92, 0
9, 100757, Note_on_c, 4, 85, 127
9, 100801, Note_on_c, 4, 85, 0
9, 100844, Note_on_c, 4, 85, 127
9, 100888, Note_on_c, 4, 85, 0
9, 100932, Note_on_c, 4, 87, 127
9, 100976, Note_on_c, 4, 87, 0
9, 101019, Note_on_c, 4, 83, 127
9, 101063, Note_on_c, 4, 83, 0
9, 101106, Note_on_c, 4, 92, 127
9, 101150, Note_on_c, 4, 92, 0
9, 101193, Note_on_c, 4, 89, 127
9, 101237, Note_on_c, 4, 89, 0
9, 101280, Note_on_c, 4, 89, 127
9, 101324, Note_on_c, 4, 89, 0
9, 101367, Note_on_c, 4, 87, 127
9, 101411, Note_on_c, 4, 87, 0
9, 101455, Note_on_c, 4, 90, 127
9, 101499, Note_on_c, 4, 90, 0
9, 101542, Note_on_c, 4, 85, 127
9, 101586, Note_on_c, 4, 85, 0
9, 101629, Note_on_c, 4, 89, 127
9, 101673, Note_on_c, 4, 89, 0
9, 101717, Note_on_c, 4, 87, 127
9, 101761, Note_on_c, 4, 87, 0
9, 101804, Note_on_c, 4, 92, 127
9, 101848, Note_on_c, 4, 92, 0
9, 101891, Note_on_c, 4, 85, 127
9, 101935, Note_on_c, 4, 85, 0
9, 101979, Note_on_c, 4, 90, 127
9, 102023, Note_on_c, 4, 90, 0
9, 102066, Note_on_c, 4, 77, 127
9, 102110, Note_on_c, 4, 77, 0
9, 102153, Note_on_c, 4, 75, 127
9, 102197, Note_on_c, 4, 75, 0
9, 102240, Note_on_c, 4, 84, 127
9, 104160, Note_on_c, 4, 84, 0
9, 104160, Note_on_c, 4, 94, 127
9, 104204, Note_on_c, 4, 94, 0
9, 104247, Note_on_c, 4, 90, 127
9, 104291, Note_on_c, 4, 90, 0
9, 104335, Note_on_c, 4, 90, 127
9, 104379, Note_on_c, 4, 90, 0
9, 104422, Note_on_c, 4, 89, 127
9, 104466, Note_on_c, 4, 89, 0
9, 104510, Note_on_c, 4, 92, 127
9, 104554, Note_on_c, 4, 92, 0
9, 104597, Note_on_c, 4, 85, 127
9, 104641, Note_on_c, 4, 85, 0
9, 104684, Note_on_c, 4, 85, 127
9, 104728, Note_on_c, 4, 85, 0
9, 104772, Note_on_c, 4, 87, 127
9, 104816, Note_on_c, 4, 87, 0
9, 104859, Note_on_c, 4, 83, 127
9, 104903, Note_on_c, 4, 83, 0
9, 104946, Note_on_c, 4, 92, 127
9, 104990, Note_on_c, 4, 92, 0
9, 105033, Note_on_c, 4, 89, 127
9, 105077, Note_on_c, 4, 89, 0
9, 105120, Note_on_c, 4, 89, 127
9, 105164, Note_on_c, 4, 89, 0
9, 105207, Note_on_c, 4, 87, 127
9, 105251, Note_on_c, 4, 87, 0
9, 105295, Note_on_c, 4, 90, 127
9, 105339, Note_on_c, 4, 90, 0
9, 105382, Note_on_c, 4, 85, 127
9, 105426, Note_on_c, 4, 85, 0
9, 105469, Note_on_c, 4, 89, 127
9, 105513, Note_on_c, 4, 89, 0
9, 105557, Note_on_c, 4, 87, 127
9, 105601, Note_on_c, 4, 87, 0
9, 105644, Note_on_c, 4, 92, 127
9, 105688, Note_on_c, 4, 92, 0
9, 105731, Note_on_c, 4, 85, 127
9, 105775, Note_on_c, 4, 85, 0
9, 105819, Note_on_c, 4, 90, 127
9, 105863, Note_on_c, 4, 90, 0
9, 105906, Note_on_c, 4, 77, 127
9, 105950, Note_on_c, 4, 77, 0
9, 105993, Note_on_c, 4, 75, 127
9, 106037, Note_on_c, 4, 75, 0
9, 106080, Note_on_c, 4, 84, 127
9, 108000, Note_on_c, 4, 84, 0
9, 125040, Control_c, 4, 7, 127
9, 125280, Note_on_c, 4, 95, 127
9, 125696, Note_on_c, 4, 95, 0
9, 125760, Note_on_c, 4, 102, 127
9, 125788, Note_on_c, 4, 102, 0
9, 125820, Note_on_c, 4, 102, 127
9, 125856, Note_on_c, 4, 102, 0
9, 125880, Note_on_c, 4, 100, 127
9, 125927, Note_on_c, 4, 100, 0
9, 125940, Note_on_c, 4, 98, 127
9, 126000, Note_on_c, 4, 105, 127
9, 126001, Note_on_c, 4, 98, 0
9, 126197, Note_on_c, 4, 105, 0
9, 126312, Note_on_c, 4, 105, 127
9, 126368, Note_on_c, 4, 103, 127
9, 126376, Note_on_c, 4, 105, 0
9, 126480, Note_on_c, 4, 103, 0
9, 126480, Note_on_c, 4, 100, 127
9, 126480, Note_on_c, 4, 100, 127
9, 126519, Note_on_c, 4, 100, 0
9, 126520, Note_on_c, 4, 100, 127
9, 126539, Note_on_c, 4, 100, 0
9, 126559, Note_on_c, 4, 100, 0
9, 126560, Note_on_c, 4, 100, 127
9, 126599, Note_on_c, 4, 100, 0
9, 126600, Note_on_c, 4, 100, 127
9, 126639, Note_on_c, 4, 100, 0
9, 126640, Note_on_c, 4, 100, 127
9, 126679, Note_on_c, 4, 100, 0
9, 126680, Note_on_c, 4, 100, 127
9, 126719, Note_on_c, 4, 100, 0
9, 126720, Note_on_c, 4, 100, 127
9, 126759, Note_on_c, 4, 100, 0
9, 126760, Note_on_c, 4, 100, 127
9, 126799, Note_on_c, 4, 100, 0
9, 126800, Note_on_c, 4, 100, 127
9, 126839, Note_on_c, 4, 100, 0
9, 126840, Note_on_c, 4, 105, 127
9, 126840, Note_on_c, 4, 105, 127
9, 126879, Note_on_c, 4, 105, 0
9, 126880, Note_on_c, 4, 105, 127
9, 126919, Note_on_c, 4, 105, 0
9, 126920, Note_on_c, 4, 105, 127
9, 126959, Note_on_c, 4, 105, 0
9, 126960, Note_on_c, 4, 105, 127
9, 126989, Note_on_c, 4, 105, 0
9, 126999, Note_on_c, 4, 105, 0
9, 127000, Note_on_c, 4, 105, 127
9, 127039, Note_on_c, 4, 105, 0
9, 127040, Note_on_c, 4, 105, 127
9, 127079, Note_on_c, 4, 105, 0
9, 127080, Note_on_c, 4, 102, 127
9, 127080, Note_on_c, 4, 102, 127
9, 127119, Note_on_c, 4, 102, 0
9, 127120, Note_on_c, 4, 102, 127
9, 127159, Note_on_c, 4, 102, 0
9, 127160, Note_on_c, 4, 102, 127
9, 127167, Note_on_c, 4, 102, 0
9, 127199, Note_on_c, 4, 102, 0
9, 127200, Note_on_c, 4, 91, 127
9, 127239, Note_on_c, 4, 91, 0
9, 127239, End_track
10, 0, Start_track
10, 0, MIDI_port, 0
10, 0, Title_t, "DON PARDO"
10, 0, Program_c, 5, 73
10, 0, Control_c, 5, 7, 100
10, 0, Control_c, 5, 10, 34
10, 125280, Note_on_c, 5, 71, 127
10, 125696, Note_on_c, 5, 71, 0
10, 125760, Note_on_c, 5, 78, 127
10, 125788, Note_on_c, 5, 78, 0
10, 125820, Note_on_c, 5, 78, 127
10, 125856, Note_on_c, 5, 78, 0
10, 125880, Note_on_c, 5, 76, 127
10, 125927, Note_on_c, 5, 76, 0
10, 125940, Note_on_c, 5, 74, 127
10, 126000, Note_on_c, 5, 81, 127
10, 126001, Note_on_c, 5, 74, 0
10, 126240, Note_on_c, 5, 81, 0
10, 126312, Note_on_c, 5, 81, 127
10, 126368, Note_on_c, 5, 79, 127
10, 126376, Note_on_c, 5, 81, 0
10, 126480, Note_on_c, 5, 79, 0
10, 126480, Note_on_c, 5, 76, 127
10, 126830, Note_on_c, 5, 76, 0
10, 126840, Note_on_c, 5, 81, 127
10, 126989, Note_on_c, 5, 81, 0
10, 127080, Note_on_c, 5, 78, 127
10, 127199, Note_on_c, 5, 78, 0
10, 127200, Note_on_c, 5, 79, 127
10, 127680, Note_on_c, 5, 79, 0
10, 127680, End_track
11, 0, Start_track
11, 0, MIDI_port, 0
11, 0, Title_t, "DAVID SAMUELS"
11, 0, Program_c, 6, 11
11, 0, Control_c, 6, 7, 107
11, 0, Control_c, 6, 10, 107
11, 8160, Note_on_c, 6, 71, 127
11, 8200, Note_on_c, 6, 83, 107
11, 8239, Note_on_c, 6, 83, 0
11, 8240, Note_on_c, 6, 83, 103
11, 8279, Note_on_c, 6, 83, 0
11, 8280, Note_on_c, 6, 83, 95
11, 8319, Note_on_c, 6, 83, 0
11, 8320, Note_on_c, 6, 83, 95
11, 8359, Note_on_c, 6, 83, 0
11, 8360, Note_on_c, 6, 83, 95
11, 8399, Note_on_c, 6, 83, 0
11, 8400, Note_on_c, 6, 83, 93
11, 8439, Note_on_c, 6, 83, 0
11, 8440, Note_on_c, 6, 83, 99
11, 8479, Note_on_c, 6, 83, 0
11, 8480, Note_on_c, 6, 83, 99
11, 8519, Note_on_c, 6, 83, 0
11, 8520, Note_on_c, 6, 83, 99
11, 8559, Note_on_c, 6, 83, 0
11, 8560, Note_on_c, 6, 83, 95
11, 8599, Note_on_c, 6, 83, 0
11, 8600, Note_on_c, 6, 83, 95
11, 8639, Note_on_c, 6, 83, 0
11, 8640, Note_on_c, 6, 83, 93
11, 8679, Note_on_c, 6, 83, 0
11, 8680, Note_on_c, 6, 83, 99
11, 8719, Note_on_c, 6, 83, 0
11, 8720, Note_on_c, 6, 83, 95
11, 8759, Note_on_c, 6, 83, 0
11, 8760, Note_on_c, 6, 83, 95
11, 8799, Note_on_c, 6, 83, 0
11, 8800, Note_on_c, 6, 83, 87
11, 8839, Note_on_c, 6, 83, 0
11, 8840, Note_on_c, 6, 83, 93
11, 8879, Note_on_c, 6, 83, 0
11, 8880, Note_on_c, 6, 83, 85
11, 8919, Note_on_c, 6, 83, 0
11, 8920, Note_on_c, 6, 83, 89
11, 8959, Note_on_c, 6, 83, 0
11, 8960, Note_on_c, 6, 83, 93
11, 8999, Note_on_c, 6, 83, 0
11, 9000, Note_on_c, 6, 83, 95
11, 9039, Note_on_c, 6, 83, 0
11, 9040, Note_on_c, 6, 83, 93
11, 9079, Note_on_c, 6, 83, 0
11, 9080, Note_on_c, 6, 83, 99
11, 9119, Note_on_c, 6, 83, 0
11, 9120, Note_on_c, 6, 71, 0
11, 9120, Note_on_c, 6, 78, 127
11, 9170, Note_on_c, 6, 78, 0
11, 9240, Note_on_c, 6, 78, 127
11, 9290, Note_on_c, 6, 78, 0
11, 9360, Note_on_c, 6, 73, 127
11, 9414, Note_on_c, 6, 73, 0
11, 9540, Note_on_c, 6, 71, 127
11, 9590, Note_on_c, 6, 71, 0
11, 9600, Note_on_c, 6, 81, 127
11, 9900, Note_on_c, 6, 84, 127
11, 9906, Note_on_c, 6, 81, 0
11, 9960, Note_on_c, 6, 79, 127
11, 9962, Note_on_c, 6, 84, 0
11, 10080, Note_on_c, 6, 79, 0
11, 10080, Note_on_c, 6, 76, 127
11, 10139, Note_on_c, 6, 76, 0
11, 10140, Note_on_c, 6, 81, 127
11, 10199, Note_on_c, 6, 81, 0
11, 10200, Note_on_c, 6, 81, 127
11, 10900, Note_on_c, 6, 81, 0
11, 11160, Note_on_c, 6, 76, 127
11, 11220, Note_on_c, 6, 81, 127
11, 11224, Note_on_c, 6, 76, 0
11, 11277, Note_on_c, 6, 81, 0
11, 11280, Note_on_c, 6, 81, 127
11, 11805, Note_on_c, 6, 81, 0
11, 11880, Note_on_c, 6, 78, 127
11, 12000, Note_on_c, 6, 78, 0
11, 12000, Note_on_c, 6, 79, 127
11, 12080, Note_on_c, 6, 79, 0
11, 12080, Note_on_c, 6, 84, 127
11, 12160, Note_on_c, 6, 84, 0
11, 12160, Note_on_c, 6, 77, 127
11, 12240, Note_on_c, 6, 77, 0
11, 12240, Note_on_c, 6, 81, 127
11, 12820, Note_on_c, 6, 81, 0
11, 12960, Note_on_c, 6, 76, 127
11, 13040, Note_on_c, 6, 76, 0
11, 13120, Note_on_c, 6, 74, 127
11, 13200, Note_on_c, 6, 74, 0
11, 13200, Note_on_c, 6, 84, 127
11, 14340, Note_on_c, 6, 84, 0
11, 14400, Note_on_c, 6, 84, 127
11, 14420, Note_on_c, 6, 84, 0
11, 14420, Note_on_c, 6, 81, 83
11, 14459, Note_on_c, 6, 81, 0
11, 14460, Note_on_c, 6, 81, 93
11, 14499, Note_on_c, 6, 81, 0
11, 14500, Note_on_c, 6, 81, 103
11, 14539, Note_on_c, 6, 81, 0
11, 14540, Note_on_c, 6, 81, 91
11, 14579, Note_on_c, 6, 81, 0
11, 14580, Note_on_c, 6, 81, 103
11, 14619, Note_on_c, 6, 81, 0
11, 14620, Note_on_c, 6, 81, 103
11, 14620, Note_on_c, 6, 81, 95
11, 14659, Note_on_c, 6, 81, 0
11, 14659, Note_on_c, 6, 81, 0
11, 14660, Note_on_c, 6, 81, 107
11, 14699, Note_on_c, 6, 81, 0
11, 14700, Note_on_c, 6, 81, 107
11, 14739, Note_on_c, 6, 81, 0
11, 14740, Note_on_c, 6, 81, 103
11, 14760, Note_on_c, 6, 79, 89
11, 14779, Note_on_c, 6, 81, 0
11, 14799, Note_on_c, 6, 79, 0
11, 14800, Note_on_c, 6, 79, 85
11, 14839, Note_on_c, 6, 79, 0
11, 14840, Note_on_c, 6, 79, 99
11, 14879, Note_on_c, 6, 79, 0
11, 14880, Note_on_c, 6, 79, 95
11, 14919, Note_on_c, 6, 79, 0
11, 14920, Note_on_c, 6, 79, 89
11, 14959, Note_on_c, 6, 79, 0
11, 14960, Note_on_c, 6, 79, 83
11, 14999, Note_on_c, 6, 79, 0
11, 15000, Note_on_c, 6, 79, 85
11, 15039, Note_on_c, 6, 79, 0
11, 15040, Note_on_c, 6, 79, 91
11, 15079, Note_on_c, 6, 79, 0
11, 15080, Note_on_c, 6, 79, 89
11, 15119, Note_on_c, 6, 79, 0
11, 15120, Note_on_c, 6, 77, 115
11, 15159, Note_on_c, 6, 77, 0
11, 15160, Note_on_c, 6, 77, 123
11, 15199, Note_on_c, 6, 77, 0
11, 15200, Note_on_c, 6, 77, 123
11, 15239, Note_on_c, 6, 77, 0
11, 15240, Note_on_c, 6, 77, 115
11, 15279, Note_on_c, 6, 77, 0
11, 15280, Note_on_c, 6, 77, 115
11, 15319, Note_on_c, 6, 77, 0
11, 15320, Note_on_c, 6, 77, 115
11, 15359, Note_on_c, 6, 77, 0
11, 15360, Note_on_c, 6, 77, 115
11, 15399, Note_on_c, 6, 77, 0
11, 15400, Note_on_c, 6, 77, 115
11, 15439, Note_on_c, 6, 77, 0
11, 15440, Note_on_c, 6, 77, 103
11, 15479, Note_on_c, 6, 77, 0
11, 15480, Note_on_c, 6, 74, 99
11, 15519, Note_on_c, 6, 74, 0
11, 15520, Note_on_c, 6, 74, 115
11, 15559, Note_on_c, 6, 74, 0
11, 15560, Note_on_c, 6, 74, 107
11, 15599, Note_on_c, 6, 74, 0
11, 15600, Note_on_c, 6, 74, 111
11, 15639, Note_on_c, 6, 74, 0
11, 15640, Note_on_c, 6, 74, 115
11, 15679, Note_on_c, 6, 74, 0
11, 15680, Note_on_c, 6, 74, 107
11, 15719, Note_on_c, 6, 74, 0
11, 15720, Note_on_c, 6, 74, 111
11, 15759, Note_on_c, 6, 74, 0
11, 15760, Note_on_c, 6, 74, 111
11, 15799, Note_on_c, 6, 74, 0
11, 15800, Note_on_c, 6, 74, 99
11, 15839, Note_on_c, 6, 74, 0
11, 15840, Note_on_c, 6, 73, 127
11, 16200, Note_on_c, 6, 73, 0
11, 16200, Note_on_c, 6, 74, 127
11, 16260, Note_on_c, 6, 74, 0
11, 16260, Note_on_c, 6, 79, 127
11, 16320, Note_on_c, 6, 79, 0
11, 16320, Note_on_c, 6, 76, 77
11, 16359, Note_on_c, 6, 76, 0
11, 16360, Note_on_c, 6, 76, 85
11, 16399, Note_on_c, 6, 76, 0
11, 16400, Note_on_c, 6, 76, 93
11, 16439, Note_on_c, 6, 76, 0
11, 16440, Note_on_c, 6, 76, 99
11, 16479, Note_on_c, 6, 76, 0
11, 16480, Note_on_c, 6, 76, 99
11, 16519, Note_on_c, 6, 76, 0
11, 16520, Note_on_c, 6, 76, 111
11, 16559, Note_on_c, 6, 76, 0
11, 16560, Note_on_c, 6, 76, 107
11, 16599, Note_on_c, 6, 76, 0
11, 16600, Note_on_c, 6, 76, 99
11, 16639, Note_on_c, 6, 76, 0
11, 16640, Note_on_c, 6, 76, 103
11, 16679, Note_on_c, 6, 76, 0
11, 16680, Note_on_c, 6, 76, 107
11, 16719, Note_on_c, 6, 76, 0
11, 16720, Note_on_c, 6, 76, 95
11, 16759, Note_on_c, 6, 76, 0
11, 16760, Note_on_c, 6, 76, 103
11, 16799, Note_on_c, 6, 76, 0
11, 16800, Note_on_c, 6, 76, 99
11, 16839, Note_on_c, 6, 76, 0
11, 16840, Note_on_c, 6, 76, 99
11, 16879, Note_on_c, 6, 76, 0
11, 16880, Note_on_c, 6, 76, 99
11, 16919, Note_on_c, 6, 76, 0
11, 16920, Note_on_c, 6, 76, 99
11, 16959, Note_on_c, 6, 76, 0
11, 16960, Note_on_c, 6, 76, 99
11, 16999, Note_on_c, 6, 76, 0
11, 17000, Note_on_c, 6, 76, 99
11, 17039, Note_on_c, 6, 76, 0
11, 17040, Note_on_c, 6, 76, 95
11, 17079, Note_on_c, 6, 76, 0
11, 17080, Note_on_c, 6, 76, 95
11, 17119, Note_on_c, 6, 76, 0
11, 17120, Note_on_c, 6, 76, 103
11, 17159, Note_on_c, 6, 76, 0
11, 17160, Note_on_c, 6, 76, 103
11, 17199, Note_on_c, 6, 76, 0
11, 17200, Note_on_c, 6, 76, 103
11, 17239, Note_on_c, 6, 76, 0
11, 17240, Note_on_c, 6, 76, 103
11, 17279, Note_on_c, 6, 76, 0
11, 17280, Note_on_c, 6, 76, 99
11, 17319, Note_on_c, 6, 76, 0
11, 17320, Note_on_c, 6, 76, 93
11, 17359, Note_on_c, 6, 76, 0
11, 17360, Note_on_c, 6, 76, 99
11, 17399, Note_on_c, 6, 76, 0
11, 17400, Note_on_c, 6, 76, 103
11, 17439, Note_on_c, 6, 76, 0
11, 17440, Note_on_c, 6, 76, 107
11, 17479, Note_on_c, 6, 76, 0
11, 17480, Note_on_c, 6, 76, 99
11, 17519, Note_on_c, 6, 76, 0
11, 17520, Note_on_c, 6, 76, 111
11, 17559, Note_on_c, 6, 76, 0
11, 17560, Note_on_c, 6, 76, 103
11, 17599, Note_on_c, 6, 76, 0
11, 17600, Note_on_c, 6, 76, 107
11, 17639, Note_on_c, 6, 76, 0
11, 17640, Note_on_c, 6, 76, 115
11, 17679, Note_on_c, 6, 76, 0
11, 17680, Note_on_c, 6, 76, 111
11, 17719, Note_on_c, 6, 76, 0
11, 17720, Note_on_c, 6, 76, 111
11, 17759, Note_on_c, 6, 76, 0
11, 19680, Note_on_c, 6, 72, 127
11, 19740, Note_on_c, 6, 72, 0
11, 19800, Note_on_c, 6, 76, 127
11, 19860, Note_on_c, 6, 76, 0
11, 19920, Note_on_c, 6, 74, 127
11, 19980, Note_on_c, 6, 74, 0
11, 20040, Note_on_c, 6, 77, 127
11, 20100, Note_on_c, 6, 77, 0
11, 20160, Note_on_c, 6, 76, 127
11, 20220, Note_on_c, 6, 76, 0
11, 20280, Note_on_c, 6, 67, 127
11, 20340, Note_on_c, 6, 67, 0
11, 20400, Note_on_c, 6, 77, 127
11, 20460, Note_on_c, 6, 77, 0
11, 20520, Note_on_c, 6, 74, 127
11, 20580, Note_on_c, 6, 74, 0
11, 20640, Note_on_c, 6, 81, 127
11, 20680, Note_on_c, 6, 81, 111
11, 20719, Note_on_c, 6, 81, 0
11, 20720, Note_on_c, 6, 81, 0
11, 20720, Note_on_c, 6, 81, 107
11, 20759, Note_on_c, 6, 81, 0
11, 20760, Note_on_c, 6, 81, 115
11, 20799, Note_on_c, 6, 81, 0
11, 20800, Note_on_c, 6, 84, 127
11, 20880, Note_on_c, 6, 84, 0
11, 20960, Note_on_c, 6, 76, 127
11, 21040, Note_on_c, 6, 76, 0
11, 21120, Note_on_c, 6, 76, 127
11, 21168, Note_on_c, 6, 76, 0
11, 21200, Note_on_c, 6, 77, 127
11, 21248, Note_on_c, 6, 77, 0
11, 21280, Note_on_c, 6, 76, 127
11, 21328, Note_on_c, 6, 76, 0
11, 21360, Note_on_c, 6, 74, 127
11, 21408, Note_on_c, 6, 74, 0
11, 21440, Note_on_c, 6, 69, 127
11, 21488, Note_on_c, 6, 69, 0
11, 21520, Note_on_c, 6, 70, 127
11, 21578, Note_on_c, 6, 70, 0
11, 21600, Note_on_c, 6, 72, 127
11, 21658, Note_on_c, 6, 72, 0
11, 21673, Note_on_c, 6, 72, 127
11, 21731, Note_on_c, 6, 72, 0
11, 21747, Note_on_c, 6, 74, 127
11, 21805, Note_on_c, 6, 74, 0
11, 21820, Note_on_c, 6, 74, 127
11, 21878, Note_on_c, 6, 74, 0
11, 21894, Note_on_c, 6, 76, 127
11, 21952, Note_on_c, 6, 76, 0
11, 21967, Note_on_c, 6, 77, 127
11, 22025, Note_on_c, 6, 77, 0
11, 22045, Note_on_c, 6, 81, 127
11, 22103, Note_on_c, 6, 81, 0
11, 22118, Note_on_c, 6, 67, 127
11, 22176, Note_on_c, 6, 67, 0
11, 22192, Note_on_c, 6, 67, 127
11, 22250, Note_on_c, 6, 67, 0
11, 22265, Note_on_c, 6, 74, 127
11, 22323, Note_on_c, 6, 74, 0
11, 22339, Note_on_c, 6, 65, 127
11, 22397, Note_on_c, 6, 65, 0
11, 22412, Note_on_c, 6, 64, 127
11, 22470, Note_on_c, 6, 64, 0
11, 22486, Note_on_c, 6, 64, 127
11, 22544, Note_on_c, 6, 64, 0
11, 22560, Note_on_c, 6, 79, 127
11, 22599, Note_on_c, 6, 79, 0
11, 22600, Note_on_c, 6, 79, 103
11, 22639, Note_on_c, 6, 79, 0
11, 22640, Note_on_c, 6, 79, 103
11, 22679, Note_on_c, 6, 79, 0
11, 22680, Note_on_c, 6, 79, 99
11, 22719, Note_on_c, 6, 79, 0
11, 22720, Note_on_c, 6, 79, 103
11, 22759, Note_on_c, 6, 79, 0
11, 22760, Note_on_c, 6, 79, 99
11, 22799, Note_on_c, 6, 79, 0
11, 22800, Note_on_c, 6, 79, 99
11, 22839, Note_on_c, 6, 79, 0
11, 22840, Note_on_c, 6, 79, 95
11, 22879, Note_on_c, 6, 79, 0
11, 22880, Note_on_c, 6, 79, 95
11, 22919, Note_on_c, 6, 79, 0
11, 22920, Note_on_c, 6, 79, 93
11, 22959, Note_on_c, 6, 79, 0
11, 22960, Note_on_c, 6, 79, 93
11, 22999, Note_on_c, 6, 79, 0
11, 23000, Note_on_c, 6, 79, 99
11, 23039, Note_on_c, 6, 79, 0
11, 23040, Note_on_c, 6, 79, 99
11, 23079, Note_on_c, 6, 79, 0
11, 23080, Note_on_c, 6, 79, 95
11, 23119, Note_on_c, 6, 79, 0
11, 23120, Note_on_c, 6, 79, 99
11, 23159, Note_on_c, 6, 79, 0
11, 23160, Note_on_c, 6, 79, 99
11, 23199, Note_on_c, 6, 79, 0
11, 23200, Note_on_c, 6, 79, 95
11, 23239, Note_on_c, 6, 79, 0
11, 23240, Note_on_c, 6, 79, 95
11, 23279, Note_on_c, 6, 79, 0
11, 23280, Note_on_c, 6, 79, 95
11, 23319, Note_on_c, 6, 79, 0
11, 23320, Note_on_c, 6, 79, 91
11, 23359, Note_on_c, 6, 79, 0
11, 23360, Note_on_c, 6, 79, 93
11, 23399, Note_on_c, 6, 79, 0
11, 23400, Note_on_c, 6, 79, 89
11, 23439, Note_on_c, 6, 79, 0
11, 23440, Note_on_c, 6, 79, 95
11, 23479, Note_on_c, 6, 79, 0
11, 23480, Note_on_c, 6, 79, 95
11, 23519, Note_on_c, 6, 79, 0
11, 23520, Note_on_c, 6, 79, 95
11, 23559, Note_on_c, 6, 79, 0
11, 23560, Note_on_c, 6, 79, 91
11, 23599, Note_on_c, 6, 79, 0
11, 23600, Note_on_c, 6, 79, 91
11, 23639, Note_on_c, 6, 79, 0
11, 23640, Note_on_c, 6, 79, 91
11, 23679, Note_on_c, 6, 79, 0
11, 23680, Note_on_c, 6, 79, 93
11, 23719, Note_on_c, 6, 79, 0
11, 23720, Note_on_c, 6, 79, 89
11, 23759, Note_on_c, 6, 79, 0
11, 23760, Note_on_c, 6, 79, 93
11, 23799, Note_on_c, 6, 79, 0
11, 23800, Note_on_c, 6, 79, 89
11, 23839, Note_on_c, 6, 79, 0
11, 23840, Note_on_c, 6, 79, 95
11, 23879, Note_on_c, 6, 79, 0
11, 23880, Note_on_c, 6, 79, 93
11, 23919, Note_on_c, 6, 79, 0
11, 23920, Note_on_c, 6, 79, 93
11, 23959, Note_on_c, 6, 79, 0
11, 23960, Note_on_c, 6, 79, 89
11, 23999, Note_on_c, 6, 79, 0
11, 24000, Note_on_c, 6, 79, 93
11, 24039, Note_on_c, 6, 79, 0
11, 24040, Note_on_c, 6, 79, 89
11, 24079, Note_on_c, 6, 79, 0
11, 24080, Note_on_c, 6, 79, 91
11, 24119, Note_on_c, 6, 79, 0
11, 24120, Note_on_c, 6, 79, 89
11, 24159, Note_on_c, 6, 79, 0
11, 24160, Note_on_c, 6, 79, 89
11, 24199, Note_on_c, 6, 79, 0
11, 24200, Note_on_c, 6, 79, 89
11, 24239, Note_on_c, 6, 79, 0
11, 24240, Note_on_c, 6, 79, 91
11, 24279, Note_on_c, 6, 79, 0
11, 24280, Note_on_c, 6, 79, 93
11, 24319, Note_on_c, 6, 79, 0
11, 24320, Note_on_c, 6, 79, 93
11, 24359, Note_on_c, 6, 79, 0
11, 24360, Note_on_c, 6, 79, 89
11, 24399, Note_on_c, 6, 79, 0
11, 24400, Note_on_c, 6, 79, 99
11, 24439, Note_on_c, 6, 79, 0
11, 24440, Note_on_c, 6, 79, 99
11, 24479, Note_on_c, 6, 79, 0
11, 24720, Note_on_c, 6, 83, 127
11, 24834, Note_on_c, 6, 83, 0
11, 24840, Note_on_c, 6, 85, 127
11, 24934, Note_on_c, 6, 85, 0
11, 24960, Note_on_c, 6, 85, 127
11, 25094, Note_on_c, 6, 85, 0
11, 25120, Note_on_c, 6, 83, 127
11, 25254, Note_on_c, 6, 83, 0
11, 25280, Note_on_c, 6, 86, 127
11, 25414, Note_on_c, 6, 86, 0
11, 25440, Note_on_c, 6, 89, 127
11, 25574, Note_on_c, 6, 89, 0
11, 25600, Note_on_c, 6, 81, 127
11, 25734, Note_on_c, 6, 81, 0
11, 25760, Note_on_c, 6, 81, 127
11, 25894, Note_on_c, 6, 81, 0
11, 25920, Note_on_c, 6, 82, 127
11, 26260, Note_on_c, 6, 82, 0
11, 26280, Note_on_c, 6, 85, 127
11, 26394, Note_on_c, 6, 85, 0
11, 26400, Note_on_c, 6, 88, 127
11, 26533, Note_on_c, 6, 88, 0
11, 26560, Note_on_c, 6, 93, 127
11, 26693, Note_on_c, 6, 93, 0
11, 26720, Note_on_c, 6, 94, 127
11, 26853, Note_on_c, 6, 94, 0
11, 26880, Note_on_c, 6, 89, 127
11, 27013, Note_on_c, 6, 89, 0
11, 27040, Note_on_c, 6, 84, 127
11, 27173, Note_on_c, 6, 84, 0
11, 27200, Note_on_c, 6, 79, 127
11, 27333, Note_on_c, 6, 79, 0
11, 27360, Note_on_c, 6, 81, 123
11, 27360, Note_on_c, 6, 81, 127
11, 27397, Note_on_c, 6, 81, 0
11, 27399, Note_on_c, 6, 81, 0
11, 27400, Note_on_c, 6, 81, 127
11, 27439, Note_on_c, 6, 81, 0
11, 27440, Note_on_c, 6, 81, 95
11, 27479, Note_on_c, 6, 81, 0
11, 27480, Note_on_c, 6, 81, 93
11, 27519, Note_on_c, 6, 81, 0
11, 27520, Note_on_c, 6, 81, 89
11, 27559, Note_on_c, 6, 81, 0
11, 27560, Note_on_c, 6, 81, 93
11, 27599, Note_on_c, 6, 81, 0
11, 27600, Note_on_c, 6, 81, 103
11, 27639, Note_on_c, 6, 81, 0
11, 27640, Note_on_c, 6, 81, 107
11, 27679, Note_on_c, 6, 81, 0
11, 27680, Note_on_c, 6, 81, 107
11, 27719, Note_on_c, 6, 81, 0
11, 27720, Note_on_c, 6, 81, 99
11, 27759, Note_on_c, 6, 81, 0
11, 27760, Note_on_c, 6, 81, 95
11, 27799, Note_on_c, 6, 81, 0
11, 27800, Note_on_c, 6, 81, 91
11, 27839, Note_on_c, 6, 81, 0
11, 27840, Note_on_c, 6, 81, 99
11, 27879, Note_on_c, 6, 81, 0
11, 27880, Note_on_c, 6, 81, 99
11, 27919, Note_on_c, 6, 81, 0
11, 27920, Note_on_c, 6, 81, 103
11, 27959, Note_on_c, 6, 81, 0
11, 27960, Note_on_c, 6, 81, 107
11, 27999, Note_on_c, 6, 81, 0
11, 28000, Note_on_c, 6, 81, 95
11, 28039, Note_on_c, 6, 81, 0
11, 28040, Note_on_c, 6, 81, 95
11, 28079, Note_on_c, 6, 81, 0
11, 28080, Note_on_c, 6, 81, 103
11, 28119, Note_on_c, 6, 81, 0
11, 28120, Note_on_c, 6, 81, 103
11, 28159, Note_on_c, 6, 81, 0
11, 28160, Note_on_c, 6, 81, 95
11, 28199, Note_on_c, 6, 81, 0
11, 28200, Note_on_c, 6, 81, 99
11, 28239, Note_on_c, 6, 81, 0
11, 28240, Note_on_c, 6, 81, 99
11, 28279, Note_on_c, 6, 81, 0
11, 28280, Note_on_c, 6, 81, 99
11, 28319, Note_on_c, 6, 81, 0
11, 28320, Note_on_c, 6, 81, 99
11, 28359, Note_on_c, 6, 81, 0
11, 28360, Note_on_c, 6, 81, 95
11, 28399, Note_on_c, 6, 81, 0
11, 28400, Note_on_c, 6, 81, 99
11, 28439, Note_on_c, 6, 81, 0
11, 28440, Note_on_c, 6, 81, 111
11, 28479, Note_on_c, 6, 81, 0
11, 28480, Note_on_c, 6, 81, 99
11, 28519, Note_on_c, 6, 81, 0
11, 28520, Note_on_c, 6, 81, 111
11, 28559, Note_on_c, 6, 81, 0
11, 28560, Note_on_c, 6, 93, 99
11, 28599, Note_on_c, 6, 93, 0
11, 28600, Note_on_c, 6, 93, 107
11, 28639, Note_on_c, 6, 93, 0
11, 28640, Note_on_c, 6, 93, 93
11, 28679, Note_on_c, 6, 93, 0
11, 28680, Note_on_c, 6, 93, 95
11, 28719, Note_on_c, 6, 93, 0
11, 28720, Note_on_c, 6, 93, 85
11, 28759, Note_on_c, 6, 93, 0
11, 28760, Note_on_c, 6, 93, 95
11, 28799, Note_on_c, 6, 93, 0
11, 28800, Note_on_c, 6, 93, 91
11, 28839, Note_on_c, 6, 93, 0
11, 28840, Note_on_c, 6, 93, 93
11, 28879, Note_on_c, 6, 93, 0
11, 28880, Note_on_c, 6, 93, 93
11, 28919, Note_on_c, 6, 93, 0
11, 28920, Note_on_c, 6, 93, 89
11, 28959, Note_on_c, 6, 93, 0
11, 28960, Note_on_c, 6, 93, 95
11, 28999, Note_on_c, 6, 93, 0
11, 29000, Note_on_c, 6, 93, 95
11, 29039, Note_on_c, 6, 93, 0
11, 29040, Note_on_c, 6, 93, 91
11, 29079, Note_on_c, 6, 93, 0
11, 29080, Note_on_c, 6, 93, 95
11, 29119, Note_on_c, 6, 93, 0
11, 29120, Note_on_c, 6, 93, 89
11, 29159, Note_on_c, 6, 93, 0
11, 29160, Note_on_c, 6, 93, 99
11, 29199, Note_on_c, 6, 93, 0
11, 29200, Note_on_c, 6, 93, 91
11, 29239, Note_on_c, 6, 93, 0
11, 29240, Note_on_c, 6, 93, 95
11, 29279, Note_on_c, 6, 93, 0
11, 29280, Note_on_c, 6, 93, 95
11, 29319, Note_on_c, 6, 93, 0
11, 29320, Note_on_c, 6, 93, 95
11, 29359, Note_on_c, 6, 93, 0
11, 29360, Note_on_c, 6, 93, 91
11, 29399, Note_on_c, 6, 93, 0
11, 29400, Note_on_c, 6, 93, 93
11, 29439, Note_on_c, 6, 93, 0
11, 29440, Note_on_c, 6, 93, 99
11, 29479, Note_on_c, 6, 93, 0
11, 29480, Note_on_c, 6, 93, 99
11, 29519, Note_on_c, 6, 93, 0
11, 29520, Note_on_c, 6, 93, 93
11, 29559, Note_on_c, 6, 93, 0
11, 29560, Note_on_c, 6, 93, 95
11, 29599, Note_on_c, 6, 93, 0
11, 29600, Note_on_c, 6, 93, 95
11, 29639, Note_on_c, 6, 93, 0
11, 29640, Note_on_c, 6, 93, 99
11, 29679, Note_on_c, 6, 93, 0
11, 29680, Note_on_c, 6, 93, 93
11, 29719, Note_on_c, 6, 93, 0
11, 29720, Note_on_c, 6, 93, 95
11, 29759, Note_on_c, 6, 93, 0
11, 29760, Note_on_c, 6, 93, 111
11, 29799, Note_on_c, 6, 93, 0
11, 29800, Note_on_c, 6, 93, 99
11, 29839, Note_on_c, 6, 93, 0
11, 29840, Note_on_c, 6, 93, 99
11, 29879, Note_on_c, 6, 93, 0
11, 29880, Note_on_c, 6, 93, 103
11, 29919, Note_on_c, 6, 93, 0
11, 29920, Note_on_c, 6, 93, 99
11, 29959, Note_on_c, 6, 93, 0
11, 29960, Note_on_c, 6, 93, 99
11, 29999, Note_on_c, 6, 93, 0
11, 30000, Note_on_c, 6, 93, 95
11, 30039, Note_on_c, 6, 93, 0
11, 30040, Note_on_c, 6, 93, 93
11, 30079, Note_on_c, 6, 93, 0
11, 30080, Note_on_c, 6, 93, 91
11, 30119, Note_on_c, 6, 93, 0
11, 30120, Note_on_c, 6, 93, 93
11, 30159, Note_on_c, 6, 93, 0
11, 30160, Note_on_c, 6, 93, 87
11, 30199, Note_on_c, 6, 93, 0
11, 30200, Note_on_c, 6, 93, 99
11, 30239, Note_on_c, 6, 93, 0
11, 30240, Note_on_c, 6, 93, 95
11, 30279, Note_on_c, 6, 93, 0
11, 30280, Note_on_c, 6, 93, 95
11, 30319, Note_on_c, 6, 93, 0
11, 30320, Note_on_c, 6, 93, 93
11, 30359, Note_on_c, 6, 93, 0
11, 30360, Note_on_c, 6, 93, 95
11, 30399, Note_on_c, 6, 93, 0
11, 30400, Note_on_c, 6, 93, 89
11, 30439, Note_on_c, 6, 93, 0
11, 30440, Note_on_c, 6, 93, 87
11, 30479, Note_on_c, 6, 93, 0
11, 30480, Note_on_c, 6, 93, 91
11, 30519, Note_on_c, 6, 93, 0
11, 30520, Note_on_c, 6, 93, 85
11, 30559, Note_on_c, 6, 93, 0
11, 30560, Note_on_c, 6, 93, 91
11, 30599, Note_on_c, 6, 93, 0
11, 30600, Note_on_c, 6, 93, 91
11, 30639, Note_on_c, 6, 93, 0
11, 30640, Note_on_c, 6, 93, 87
11, 30679, Note_on_c, 6, 93, 0
11, 30680, Note_on_c, 6, 93, 89
11, 30719, Note_on_c, 6, 93, 0
11, 30720, Note_on_c, 6, 93, 93
11, 30759, Note_on_c, 6, 93, 0
11, 30760, Note_on_c, 6, 93, 95
11, 30799, Note_on_c, 6, 93, 0
11, 30800, Note_on_c, 6, 93, 85
11, 30839, Note_on_c, 6, 93, 0
11, 30840, Note_on_c, 6, 93, 89
11, 30879, Note_on_c, 6, 93, 0
11, 30880, Note_on_c, 6, 93, 79
11, 30919, Note_on_c, 6, 93, 0
11, 30920, Note_on_c, 6, 93, 93
11, 30959, Note_on_c, 6, 93, 0
11, 30960, Note_on_c, 6, 81, 115
11, 30999, Note_on_c, 6, 81, 0
11, 31000, Note_on_c, 6, 81, 115
11, 31039, Note_on_c, 6, 81, 0
11, 31040, Note_on_c, 6, 81, 123
11, 31079, Note_on_c, 6, 81, 0
11, 31080, Note_on_c, 6, 81, 115
11, 31119, Note_on_c, 6, 81, 0
11, 31120, Note_on_c, 6, 81, 115
11, 31159, Note_on_c, 6, 81, 0
11, 31160, Note_on_c, 6, 81, 115
11, 31199, Note_on_c, 6, 81, 0
11, 31200, Note_on_c, 6, 81, 119
11, 31239, Note_on_c, 6, 81, 0
11, 31240, Note_on_c, 6, 81, 115
11, 31279, Note_on_c, 6, 81, 0
11, 31280, Note_on_c, 6, 81, 115
11, 31319, Note_on_c, 6, 81, 0
11, 31320, Note_on_c, 6, 81, 111
11, 31359, Note_on_c, 6, 81, 0
11, 31360, Note_on_c, 6, 81, 111
11, 31399, Note_on_c, 6, 81, 0
11, 31400, Note_on_c, 6, 81, 115
11, 31439, Note_on_c, 6, 81, 0
11, 31440, Note_on_c, 6, 81, 107
11, 31479, Note_on_c, 6, 81, 0
11, 31480, Note_on_c, 6, 81, 107
11, 31519, Note_on_c, 6, 81, 0
11, 31520, Note_on_c, 6, 81, 107
11, 31559, Note_on_c, 6, 81, 0
11, 31560, Note_on_c, 6, 81, 107
11, 31599, Note_on_c, 6, 81, 0
11, 31600, Note_on_c, 6, 81, 103
11, 31639, Note_on_c, 6, 81, 0
11, 31640, Note_on_c, 6, 81, 103
11, 31679, Note_on_c, 6, 81, 0
11, 31680, Note_on_c, 6, 81, 99
11, 31719, Note_on_c, 6, 81, 0
11, 31720, Note_on_c, 6, 81, 103
11, 31759, Note_on_c, 6, 81, 0
11, 31760, Note_on_c, 6, 81, 115
11, 31799, Note_on_c, 6, 81, 0
11, 31800, Note_on_c, 6, 81, 99
11, 31839, Note_on_c, 6, 81, 0
11, 31876, Note_on_c, 6, 83, 64
11, 31917, Note_on_c, 6, 84, 73
11, 31929, Note_on_c, 6, 83, 0
11, 31949, Note_on_c, 6, 86, 80
11, 31960, Note_on_c, 6, 84, 0
11, 31975, Note_on_c, 6, 88, 85
11, 31992, Note_on_c, 6, 86, 0
11, 32018, Note_on_c, 6, 89, 95
11, 32029, Note_on_c, 6, 88, 0
11, 32059, Note_on_c, 6, 91, 104
11, 32071, Note_on_c, 6, 89, 0
11, 32110, Note_on_c, 6, 93, 115
11, 32133, Note_on_c, 6, 91, 0
11, 32160, Note_on_c, 6, 95, 89
11, 32198, Note_on_c, 6, 93, 0
11, 32199, Note_on_c, 6, 95, 0
11, 32200, Note_on_c, 6, 95, 95
11, 32239, Note_on_c, 6, 95, 0
11, 32240, Note_on_c, 6, 95, 99
11, 32279, Note_on_c, 6, 95, 0
11, 32280, Note_on_c, 6, 95, 95
11, 32319, Note_on_c, 6, 95, 0
11, 32320, Note_on_c, 6, 95, 89
11, 32359, Note_on_c, 6, 95, 0
11, 32360, Note_on_c, 6, 95, 87
11, 32399, Note_on_c, 6, 95, 0
11, 32400, Note_on_c, 6, 95, 83
11, 32439, Note_on_c, 6, 95, 0
11, 32440, Note_on_c, 6, 95, 87
11, 32479, Note_on_c, 6, 95, 0
11, 32480, Note_on_c, 6, 95, 85
11, 32519, Note_on_c, 6, 95, 0
11, 32520, Note_on_c, 6, 95, 87
11, 32559, Note_on_c, 6, 95, 0
11, 32560, Note_on_c, 6, 95, 79
11, 32599, Note_on_c, 6, 95, 0
11, 32600, Note_on_c, 6, 95, 85
11, 32639, Note_on_c, 6, 95, 0
11, 32640, Note_on_c, 6, 95, 85
11, 32679, Note_on_c, 6, 95, 0
11, 32680, Note_on_c, 6, 95, 93
11, 32719, Note_on_c, 6, 95, 0
11, 32720, Note_on_c, 6, 95, 87
11, 32759, Note_on_c, 6, 95, 0
11, 32760, Note_on_c, 6, 95, 89
11, 32799, Note_on_c, 6, 95, 0
11, 32800, Note_on_c, 6, 95, 87
11, 32839, Note_on_c, 6, 95, 0
11, 32840, Note_on_c, 6, 95, 85
11, 32879, Note_on_c, 6, 95, 0
11, 32880, Note_on_c, 6, 95, 87
11, 32919, Note_on_c, 6, 95, 0
11, 32920, Note_on_c, 6, 95, 85
11, 32959, Note_on_c, 6, 95, 0
11, 32960, Note_on_c, 6, 95, 91
11, 32999, Note_on_c, 6, 95, 0
11, 33000, Note_on_c, 6, 95, 93
11, 33039, Note_on_c, 6, 95, 0
11, 33040, Note_on_c, 6, 95, 89
11, 33079, Note_on_c, 6, 95, 0
11, 33080, Note_on_c, 6, 95, 91
11, 33119, Note_on_c, 6, 95, 0
11, 33120, Note_on_c, 6, 95, 85
11, 33159, Note_on_c, 6, 95, 0
11, 33160, Note_on_c, 6, 95, 81
11, 33199, Note_on_c, 6, 95, 0
11, 33200, Note_on_c, 6, 95, 89
11, 33239, Note_on_c, 6, 95, 0
11, 33240, Note_on_c, 6, 95, 95
11, 33279, Note_on_c, 6, 95, 0
11, 33280, Note_on_c, 6, 95, 93
11, 33319, Note_on_c, 6, 95, 0
11, 33320, Note_on_c, 6, 95, 93
11, 33359, Note_on_c, 6, 95, 0
11, 33360, Note_on_c, 6, 85, 127
11, 33399, Note_on_c, 6, 85, 0
11, 33400, Note_on_c, 6, 85, 127
11, 33439, Note_on_c, 6, 85, 0
11, 33440, Note_on_c, 6, 85, 127
11, 33479, Note_on_c, 6, 85, 0
11, 33480, Note_on_c, 6, 85, 127
11, 33519, Note_on_c, 6, 85, 0
11, 33520, Note_on_c, 6, 85, 127
11, 33559, Note_on_c, 6, 85, 0
11, 33560, Note_on_c, 6, 85, 127
11, 33599, Note_on_c, 6, 85, 0
11, 33600, Note_on_c, 6, 85, 127
11, 33639, Note_on_c, 6, 85, 0
11, 33640, Note_on_c, 6, 85, 127
11, 33679, Note_on_c, 6, 85, 0
11, 33680, Note_on_c, 6, 85, 127
11, 33719, Note_on_c, 6, 85, 0
11, 33720, Note_on_c, 6, 85, 127
11, 33759, Note_on_c, 6, 85, 0
11, 33760, Note_on_c, 6, 85, 127
11, 33799, Note_on_c, 6, 85, 0
11, 33800, Note_on_c, 6, 85, 127
11, 33839, Note_on_c, 6, 85, 0
11, 33840, Note_on_c, 6, 85, 127
11, 33879, Note_on_c, 6, 85, 0
11, 33880, Note_on_c, 6, 85, 127
11, 33919, Note_on_c, 6, 85, 0
11, 33920, Note_on_c, 6, 85, 123
11, 33959, Note_on_c, 6, 85, 0
11, 33960, Note_on_c, 6, 85, 123
11, 33999, Note_on_c, 6, 85, 0
11, 34000, Note_on_c, 6, 85, 119
11, 34039, Note_on_c, 6, 85, 0
11, 34040, Note_on_c, 6, 85, 119
11, 34079, Note_on_c, 6, 85, 0
11, 34080, Note_on_c, 6, 85, 115
11, 34119, Note_on_c, 6, 85, 0
11, 34120, Note_on_c, 6, 85, 115
11, 34159, Note_on_c, 6, 85, 0
11, 34160, Note_on_c, 6, 85, 115
11, 34199, Note_on_c, 6, 85, 0
11, 34200, Note_on_c, 6, 85, 127
11, 34239, Note_on_c, 6, 85, 0
11, 34240, Note_on_c, 6, 85, 127
11, 34279, Note_on_c, 6, 85, 0
11, 34280, Note_on_c, 6, 85, 123
11, 34319, Note_on_c, 6, 85, 0
11, 34320, Note_on_c, 6, 85, 123
11, 34359, Note_on_c, 6, 85, 0
11, 34360, Note_on_c, 6, 85, 127
11, 34399, Note_on_c, 6, 85, 0
11, 34400, Note_on_c, 6, 85, 127
11, 34439, Note_on_c, 6, 85, 0
11, 34440, Note_on_c, 6, 85, 127
11, 34479, Note_on_c, 6, 85, 0
11, 34480, Note_on_c, 6, 85, 127
11, 34519, Note_on_c, 6, 85, 0
11, 34520, Note_on_c, 6, 85, 127
11, 34559, Note_on_c, 6, 85, 0
11, 34560, Note_on_c, 6, 88, 99
11, 34599, Note_on_c, 6, 88, 0
11, 34600, Note_on_c, 6, 88, 99
11, 34639, Note_on_c, 6, 88, 0
11, 34640, Note_on_c, 6, 88, 107
11, 34679, Note_on_c, 6, 88, 0
11, 34680, Note_on_c, 6, 88, 115
11, 34719, Note_on_c, 6, 88, 0
11, 34720, Note_on_c, 6, 88, 103
11, 34759, Note_on_c, 6, 88, 0
11, 34760, Note_on_c, 6, 88, 99
11, 34799, Note_on_c, 6, 88, 0
11, 34800, Note_on_c, 6, 88, 93
11, 34839, Note_on_c, 6, 88, 0
11, 34840, Note_on_c, 6, 88, 99
11, 34879, Note_on_c, 6, 88, 0
11, 34880, Note_on_c, 6, 88, 93
11, 34919, Note_on_c, 6, 88, 0
11, 34920, Note_on_c, 6, 88, 99
11, 34959, Note_on_c, 6, 88, 0
11, 34960, Note_on_c, 6, 88, 99
11, 34999, Note_on_c, 6, 88, 0
11, 35000, Note_on_c, 6, 88, 93
11, 35039, Note_on_c, 6, 88, 0
11, 35040, Note_on_c, 6, 88, 93
11, 35079, Note_on_c, 6, 88, 0
11, 35080, Note_on_c, 6, 88, 93
11, 35119, Note_on_c, 6, 88, 0
11, 35120, Note_on_c, 6, 88, 91
11, 35159, Note_on_c, 6, 88, 0
11, 35160, Note_on_c, 6, 88, 85
11, 35199, Note_on_c, 6, 88, 0
11, 35200, Note_on_c, 6, 88, 95
11, 35239, Note_on_c, 6, 88, 0
11, 35240, Note_on_c, 6, 88, 91
11, 35279, Note_on_c, 6, 88, 0
11, 35280, Note_on_c, 6, 88, 93
11, 35319, Note_on_c, 6, 88, 0
11, 35320, Note_on_c, 6, 88, 99
11, 35359, Note_on_c, 6, 88, 0
11, 35360, Note_on_c, 6, 88, 93
11, 35399, Note_on_c, 6, 88, 0
11, 35400, Note_on_c, 6, 88, 89
11, 35439, Note_on_c, 6, 88, 0
11, 35440, Note_on_c, 6, 88, 87
11, 35479, Note_on_c, 6, 88, 0
11, 35480, Note_on_c, 6, 88, 91
11, 35519, Note_on_c, 6, 88, 0
11, 35520, Note_on_c, 6, 88, 89
11, 35559, Note_on_c, 6, 88, 0
11, 35560, Note_on_c, 6, 88, 89
11, 35599, Note_on_c, 6, 88, 0
11, 35600, Note_on_c, 6, 88, 85
11, 35639, Note_on_c, 6, 88, 0
11, 35640, Note_on_c, 6, 88, 89
11, 35679, Note_on_c, 6, 88, 0
11, 35680, Note_on_c, 6, 88, 87
11, 35719, Note_on_c, 6, 88, 0
11, 35720, Note_on_c, 6, 88, 91
11, 35759, Note_on_c, 6, 88, 0
11, 35760, Note_on_c, 6, 85, 127
11, 35799, Note_on_c, 6, 85, 0
11, 35800, Note_on_c, 6, 85, 127
11, 35839, Note_on_c, 6, 85, 0
11, 35840, Note_on_c, 6, 85, 127
11, 35879, Note_on_c, 6, 85, 0
11, 35880, Note_on_c, 6, 85, 127
11, 35919, Note_on_c, 6, 85, 0
11, 35920, Note_on_c, 6, 85, 127
11, 35959, Note_on_c, 6, 85, 0
11, 35960, Note_on_c, 6, 85, 127
11, 35999, Note_on_c, 6, 85, 0
11, 36000, Note_on_c, 6, 85, 127
11, 36039, Note_on_c, 6, 85, 0
11, 36040, Note_on_c, 6, 85, 127
11, 36079, Note_on_c, 6, 85, 0
11, 36080, Note_on_c, 6, 85, 127
11, 36119, Note_on_c, 6, 85, 0
11, 36120, Note_on_c, 6, 85, 123
11, 36159, Note_on_c, 6, 85, 0
11, 36160, Note_on_c, 6, 85, 127
11, 36199, Note_on_c, 6, 85, 0
11, 36200, Note_on_c, 6, 85, 127
11, 36239, Note_on_c, 6, 85, 0
11, 36240, Note_on_c, 6, 85, 127
11, 36279, Note_on_c, 6, 85, 0
11, 36280, Note_on_c, 6, 85, 127
11, 36319, Note_on_c, 6, 85, 0
11, 36320, Note_on_c, 6, 85, 127
11, 36359, Note_on_c, 6, 85, 0
11, 36360, Note_on_c, 6, 85, 127
11, 36399, Note_on_c, 6, 85, 0
11, 36400, Note_on_c, 6, 85, 127
11, 36439, Note_on_c, 6, 85, 0
11, 36440, Note_on_c, 6, 85, 123
11, 36479, Note_on_c, 6, 85, 0
11, 36480, Note_on_c, 6, 85, 127
11, 36519, Note_on_c, 6, 85, 0
11, 36520, Note_on_c, 6, 85, 127
11, 36559, Note_on_c, 6, 85, 0
11, 36560, Note_on_c, 6, 85, 127
11, 36599, Note_on_c, 6, 85, 0
11, 36600, Note_on_c, 6, 85, 127
11, 36639, Note_on_c, 6, 85, 0
11, 36640, Note_on_c, 6, 85, 127
11, 36679, Note_on_c, 6, 85, 0
11, 36680, Note_on_c, 6, 85, 123
11, 36719, Note_on_c, 6, 85, 0
11, 36720, Note_on_c, 6, 85, 127
11, 36759, Note_on_c, 6, 85, 0
11, 36760, Note_on_c, 6, 85, 127
11, 36799, Note_on_c, 6, 85, 0
11, 36800, Note_on_c, 6, 85, 127
11, 36839, Note_on_c, 6, 85, 0
11, 36840, Note_on_c, 6, 85, 127
11, 36879, Note_on_c, 6, 85, 0
11, 36880, Note_on_c, 6, 85, 127
11, 36919, Note_on_c, 6, 85, 0
11, 36920, Note_on_c, 6, 85, 127
11, 36959, Note_on_c, 6, 85, 0
11, 36960, Note_on_c, 6, 83, 127
11, 37024, Note_on_c, 6, 83, 0
11, 37080, Note_on_c, 6, 84, 127
11, 37144, Note_on_c, 6, 84, 0
11, 37200, Note_on_c, 6, 84, 127
11, 37264, Note_on_c, 6, 84, 0
11, 37280, Note_on_c, 6, 81, 127
11, 37344, Note_on_c, 6, 81, 0
11, 37360, Note_on_c, 6, 86, 127
11, 37424, Note_on_c, 6, 86, 0
11, 37440, Note_on_c, 6, 87, 127
11, 37504, Note_on_c, 6, 87, 0
11, 37560, Note_on_c, 6, 79, 127
11, 37624, Note_on_c, 6, 79, 0
11, 37680, Note_on_c, 6, 79, 127
11, 37744, Note_on_c, 6, 79, 0
11, 37760, Note_on_c, 6, 81, 127
11, 37824, Note_on_c, 6, 81, 0
11, 37840, Note_on_c, 6, 77, 127
11, 37904, Note_on_c, 6, 77, 0
11, 37920, Note_on_c, 6, 76, 127
11, 38023, Note_on_c, 6, 76, 0
11, 38080, Note_on_c, 6, 79, 127
11, 38183, Note_on_c, 6, 79, 0
11, 38240, Note_on_c, 6, 79, 127
11, 38343, Note_on_c, 6, 79, 0
11, 38400, Note_on_c, 6, 76, 127
11, 38503, Note_on_c, 6, 76, 0
11, 38560, Note_on_c, 6, 76, 127
11, 38663, Note_on_c, 6, 76, 0
11, 38720, Note_on_c, 6, 86, 127
11, 38823, Note_on_c, 6, 86, 0
11, 38880, Note_on_c, 6, 85, 127
11, 38919, Note_on_c, 6, 85, 0
11, 38920, Note_on_c, 6, 85, 127
11, 38959, Note_on_c, 6, 85, 0
11, 38960, Note_on_c, 6, 85, 127
11, 38999, Note_on_c, 6, 85, 0
11, 39000, Note_on_c, 6, 85, 127
11, 39039, Note_on_c, 6, 85, 0
11, 39040, Note_on_c, 6, 85, 127
11, 39079, Note_on_c, 6, 85, 0
11, 39080, Note_on_c, 6, 85, 127
11, 39119, Note_on_c, 6, 85, 0
11, 39120, Note_on_c, 6, 85, 127
11, 39159, Note_on_c, 6, 85, 0
11, 39160, Note_on_c, 6, 85, 127
11, 39199, Note_on_c, 6, 85, 0
11, 39200, Note_on_c, 6, 85, 127
11, 39239, Note_on_c, 6, 85, 0
11, 39240, Note_on_c, 6, 85, 127
11, 39279, Note_on_c, 6, 85, 0
11, 39280, Note_on_c, 6, 85, 127
11, 39319, Note_on_c, 6, 85, 0
11, 39320, Note_on_c, 6, 85, 127
11, 39359, Note_on_c, 6, 85, 0
11, 39360, Note_on_c, 6, 85, 127
11, 39399, Note_on_c, 6, 85, 0
11, 39400, Note_on_c, 6, 85, 127
11, 39439, Note_on_c, 6, 85, 0
11, 39440, Note_on_c, 6, 85, 127
11, 39479, Note_on_c, 6, 85, 0
11, 39480, Note_on_c, 6, 85, 127
11, 39519, Note_on_c, 6, 85, 0
11, 39520, Note_on_c, 6, 85, 127
11, 39559, Note_on_c, 6, 85, 0
11, 39560, Note_on_c, 6, 85, 127
11, 39599, Note_on_c, 6, 85, 0
11, 39600, Note_on_c, 6, 85, 127
11, 39639, Note_on_c, 6, 85, 0
11, 39640, Note_on_c, 6, 85, 127
11, 39679, Note_on_c, 6, 85, 0
11, 39680, Note_on_c, 6, 85, 127
11, 39719, Note_on_c, 6, 85, 0
11, 39720, Note_on_c, 6, 85, 127
11, 39759, Note_on_c, 6, 85, 0
11, 39760, Note_on_c, 6, 85, 127
11, 39799, Note_on_c, 6, 85, 0
11, 39800, Note_on_c, 6, 85, 127
11, 39839, Note_on_c, 6, 85, 0
11, 43680, Note_on_c, 6, 83, 127
11, 43980, Note_on_c, 6, 83, 0
11, 43980, Note_on_c, 6, 81, 127
11, 44040, Note_on_c, 6, 81, 0
11, 44040, Note_on_c, 6, 80, 127
11, 44100, Note_on_c, 6, 80, 0
11, 44100, Note_on_c, 6, 86, 127
11, 44160, Note_on_c, 6, 86, 0
11, 44160, Note_on_c, 6, 76, 127
11, 44240, Note_on_c, 6, 76, 0
11, 44240, Note_on_c, 6, 83, 127
11, 44320, Note_on_c, 6, 83, 0
11, 44320, Note_on_c, 6, 81, 127
11, 44400, Note_on_c, 6, 81, 0
11, 44400, Note_on_c, 6, 85, 127
11, 44448, Note_on_c, 6, 85, 0
11, 44448, Note_on_c, 6, 81, 127
11, 44496, Note_on_c, 6, 81, 0
11, 44496, Note_on_c, 6, 81, 127
11, 44544, Note_on_c, 6, 81, 0
11, 44544, Note_on_c, 6, 83, 127
11, 44592, Note_on_c, 6, 83, 0
11, 44592, Note_on_c, 6, 80, 127
11, 44640, Note_on_c, 6, 80, 0
11, 44736, Note_on_c, 6, 85, 127
11, 44832, Note_on_c, 6, 85, 0
11, 44832, Note_on_c, 6, 78, 127
11, 44928, Note_on_c, 6, 78, 0
11, 44928, Note_on_c, 6, 83, 127
11, 45024, Note_on_c, 6, 83, 0
11, 45024, Note_on_c, 6, 80, 127
11, 45120, Note_on_c, 6, 80, 0
11, 45120, Note_on_c, 6, 92, 127
11, 45216, Note_on_c, 6, 92, 0
11, 45216, Note_on_c, 6, 90, 127
11, 45312, Note_on_c, 6, 90, 0
11, 45312, Note_on_c, 6, 85, 127
11, 45408, Note_on_c, 6, 85, 0
11, 45408, Note_on_c, 6, 88, 127
11, 45504, Note_on_c, 6, 88, 0
11, 45504, Note_on_c, 6, 78, 127
11, 45600, Note_on_c, 6, 78, 0
11, 45600, Note_on_c, 6, 92, 127
11, 45696, Note_on_c, 6, 92, 0
11, 45696, Note_on_c, 6, 90, 127
11, 45792, Note_on_c, 6, 90, 0
11, 45792, Note_on_c, 6, 85, 127
11, 45888, Note_on_c, 6, 85, 0
11, 45888, Note_on_c, 6, 88, 127
11, 45984, Note_on_c, 6, 88, 0
11, 45984, Note_on_c, 6, 78, 127
11, 46034, Note_on_c, 6, 78, 0
11, 46080, Note_on_c, 6, 78, 127
11, 47956, Note_on_c, 6, 78, 0
11, 48480, Note_on_c, 6, 92, 127
11, 48540, Note_on_c, 6, 92, 0
11, 48540, Note_on_c, 6, 93, 127
11, 48600, Note_on_c, 6, 93, 0
11, 48600, Note_on_c, 6, 92, 127
11, 48660, Note_on_c, 6, 92, 0
11, 48720, Note_on_c, 6, 92, 127
11, 48780, Note_on_c, 6, 92, 0
11, 48780, Note_on_c, 6, 93, 127
11, 48840, Note_on_c, 6, 93, 0
11, 48840, Note_on_c, 6, 90, 127
11, 48900, Note_on_c, 6, 90, 0
11, 48960, Note_on_c, 6, 92, 127
11, 49020, Note_on_c, 6, 92, 0
11, 49080, Note_on_c, 6, 83, 127
11, 49140, Note_on_c, 6, 83, 0
11, 49140, Note_on_c, 6, 93, 127
11, 49200, Note_on_c, 6, 93, 0
11, 49200, Note_on_c, 6, 90, 127
11, 49260, Note_on_c, 6, 90, 0
11, 49260, Note_on_c, 6, 85, 127
11, 49320, Note_on_c, 6, 85, 0
11, 49320, Note_on_c, 6, 95, 127
11, 49380, Note_on_c, 6, 95, 0
11, 49380, Note_on_c, 6, 90, 127
11, 49440, Note_on_c, 6, 90, 0
11, 49440, Note_on_c, 6, 92, 127
11, 49500, Note_on_c, 6, 92, 0
11, 49500, Note_on_c, 6, 88, 127
11, 49560, Note_on_c, 6, 88, 0
11, 49560, Note_on_c, 6, 88, 127
11, 49620, Note_on_c, 6, 88, 0
11, 49620, Note_on_c, 6, 85, 127
11, 49680, Note_on_c, 6, 85, 0
11, 49680, Note_on_c, 6, 90, 127
11, 49740, Note_on_c, 6, 90, 0
11, 49740, Note_on_c, 6, 92, 127
11, 49800, Note_on_c, 6, 92, 0
11, 49800, Note_on_c, 6, 92, 127
11, 49860, Note_on_c, 6, 92, 0
11, 49860, Note_on_c, 6, 95, 127
11, 49920, Note_on_c, 6, 95, 0
11, 49920, Note_on_c, 6, 93, 127
11, 49980, Note_on_c, 6, 93, 0
11, 49980, Note_on_c, 6, 92, 127
11, 50040, Note_on_c, 6, 92, 0
11, 50040, Note_on_c, 6, 92, 127
11, 50100, Note_on_c, 6, 92, 0
11, 50100, Note_on_c, 6, 95, 127
11, 50160, Note_on_c, 6, 95, 0
11, 50160, Note_on_c, 6, 90, 127
11, 50220, Note_on_c, 6, 90, 0
11, 50220, Note_on_c, 6, 78, 127
11, 50280, Note_on_c, 6, 78, 0
11, 50280, Note_on_c, 6, 78, 127
11, 50340, Note_on_c, 6, 78, 0
11, 50340, Note_on_c, 6, 83, 127
11, 50400, Note_on_c, 6, 83, 0
11, 50400, Note_on_c, 6, 85, 127
11, 50460, Note_on_c, 6, 85, 0
11, 50460, Note_on_c, 6, 81, 127
11, 50520, Note_on_c, 6, 81, 0
11, 50520, Note_on_c, 6, 83, 127
11, 50580, Note_on_c, 6, 83, 0
11, 50580, Note_on_c, 6, 88, 127
11, 50640, Note_on_c, 6, 88, 0
11, 50640, Note_on_c, 6, 92, 127
11, 50700, Note_on_c, 6, 92, 0
11, 50700, Note_on_c, 6, 78, 127
11, 50760, Note_on_c, 6, 78, 0
11, 50760, Note_on_c, 6, 83, 127
11, 50820, Note_on_c, 6, 83, 0
11, 50820, Note_on_c, 6, 85, 127
11, 50880, Note_on_c, 6, 85, 0
11, 50880, Note_on_c, 6, 86, 127
11, 50940, Note_on_c, 6, 86, 0
11, 50940, Note_on_c, 6, 93, 127
11, 51000, Note_on_c, 6, 93, 0
11, 51000, Note_on_c, 6, 90, 127
11, 51060, Note_on_c, 6, 90, 0
11, 51060, Note_on_c, 6, 88, 127
11, 51120, Note_on_c, 6, 88, 0
11, 51120, Note_on_c, 6, 90, 127
11, 51180, Note_on_c, 6, 90, 0
11, 51180, Note_on_c, 6, 92, 127
11, 51240, Note_on_c, 6, 92, 0
11, 51240, Note_on_c, 6, 88, 127
11, 51300, Note_on_c, 6, 88, 0
11, 51300, Note_on_c, 6, 83, 127
11, 51360, Note_on_c, 6, 83, 0
11, 51600, Note_on_c, 6, 90, 127
11, 51660, Note_on_c, 6, 90, 0
11, 51660, Note_on_c, 6, 92, 127
11, 51720, Note_on_c, 6, 92, 0
11, 51720, Note_on_c, 6, 88, 127
11, 51780, Note_on_c, 6, 88, 0
11, 51780, Note_on_c, 6, 83, 127
11, 51840, Note_on_c, 6, 83, 0
11, 52320, Note_on_c, 6, 90, 127
11, 52380, Note_on_c, 6, 90, 0
11, 52380, Note_on_c, 6, 92, 127
11, 52440, Note_on_c, 6, 92, 0
11, 52440, Note_on_c, 6, 88, 127
11, 52500, Note_on_c, 6, 88, 0
11, 52500, Note_on_c, 6, 83, 127
11, 52560, Note_on_c, 6, 83, 0
11, 53040, Note_on_c, 6, 90, 127
11, 53100, Note_on_c, 6, 90, 0
11, 53100, Note_on_c, 6, 92, 127
11, 53160, Note_on_c, 6, 92, 0
11, 53160, Note_on_c, 6, 88, 127
11, 53220, Note_on_c, 6, 88, 0
11, 53220, Note_on_c, 6, 83, 127
11, 53280, Note_on_c, 6, 83, 0
11, 53280, Note_on_c, 6, 93, 127
11, 53600, Note_on_c, 6, 93, 0
11, 53732, Note_on_c, 6, 93, 127
11, 53760, Note_on_c, 6, 92, 127
11, 53762, Note_on_c, 6, 93, 0
11, 53920, Note_on_c, 6, 92, 0
11, 54000, Note_on_c, 6, 90, 127
11, 54160, Note_on_c, 6, 90, 0
11, 54240, Note_on_c, 6, 100, 127
11, 54329, Note_on_c, 6, 100, 0
11, 54360, Note_on_c, 6, 90, 127
11, 54449, Note_on_c, 6, 90, 0
11, 54480, Note_on_c, 6, 90, 127
11, 54545, Note_on_c, 6, 90, 0
11, 54560, Note_on_c, 6, 95, 127
11, 54621, Note_on_c, 6, 95, 0
11, 54640, Note_on_c, 6, 92, 127
11, 54701, Note_on_c, 6, 92, 0
11, 54720, Note_on_c, 6, 97, 127
11, 54800, Note_on_c, 6, 97, 0
11, 54840, Note_on_c, 6, 95, 127
11, 54920, Note_on_c, 6, 95, 0
11, 54960, Note_on_c, 6, 95, 127
11, 55040, Note_on_c, 6, 95, 0
11, 55080, Note_on_c, 6, 93, 127
11, 55160, Note_on_c, 6, 93, 0
11, 55200, Note_on_c, 6, 92, 127
11, 55532, Note_on_c, 6, 95, 127
11, 55556, Note_on_c, 6, 95, 0
11, 55560, Note_on_c, 6, 93, 127
11, 55575, Note_on_c, 6, 92, 0
11, 55624, Note_on_c, 6, 93, 0
11, 55680, Note_on_c, 6, 90, 127
11, 55824, Note_on_c, 6, 90, 0
11, 55840, Note_on_c, 6, 88, 127
11, 55984, Note_on_c, 6, 88, 0
11, 56000, Note_on_c, 6, 88, 127
11, 56144, Note_on_c, 6, 88, 0
11, 56160, Note_on_c, 6, 90, 127
11, 56640, Note_on_c, 6, 90, 0
11, 56640, Note_on_c, 6, 78, 127
11, 56700, Note_on_c, 6, 78, 0
11, 56700, Note_on_c, 6, 83, 127
11, 56760, Note_on_c, 6, 83, 0
11, 56760, Note_on_c, 6, 83, 127
11, 56820, Note_on_c, 6, 83, 0
11, 56820, Note_on_c, 6, 81, 127
11, 56880, Note_on_c, 6, 81, 0
11, 56880, Note_on_c, 6, 83, 115
11, 56919, Note_on_c, 6, 83, 0
11, 56920, Note_on_c, 6, 83, 111
11, 56959, Note_on_c, 6, 83, 0
11, 56960, Note_on_c, 6, 83, 119
11, 56999, Note_on_c, 6, 83, 0
11, 57000, Note_on_c, 6, 83, 107
11, 57039, Note_on_c, 6, 83, 0
11, 57040, Note_on_c, 6, 83, 107
11, 57079, Note_on_c, 6, 83, 0
11, 57080, Note_on_c, 6, 83, 103
11, 57119, Note_on_c, 6, 83, 0
11, 57120, Note_on_c, 6, 83, 103
11, 57159, Note_on_c, 6, 83, 0
11, 57160, Note_on_c, 6, 83, 115
11, 57199, Note_on_c, 6, 83, 0
11, 57215, Note_on_c, 6, 85, 127
11, 57240, Note_on_c, 6, 83, 127
11, 57253, Note_on_c, 6, 85, 0
11, 57300, Note_on_c, 6, 83, 0
11, 57360, Note_on_c, 6, 78, 127
11, 57399, Note_on_c, 6, 78, 0
11, 57400, Note_on_c, 6, 78, 127
11, 57439, Note_on_c, 6, 78, 0
11, 57440, Note_on_c, 6, 78, 127
11, 57479, Note_on_c, 6, 78, 0
11, 57480, Note_on_c, 6, 78, 127
11, 57519, Note_on_c, 6, 78, 0
11, 57520, Note_on_c, 6, 78, 127
11, 57559, Note_on_c, 6, 78, 0
11, 57560, Note_on_c, 6, 78, 127
11, 57599, Note_on_c, 6, 78, 0
11, 57600, Note_on_c, 6, 78, 127
11, 57639, Note_on_c, 6, 78, 0
11, 57640, Note_on_c, 6, 78, 127
11, 57679, Note_on_c, 6, 78, 0
11, 57680, Note_on_c, 6, 78, 127
11, 57719, Note_on_c, 6, 78, 0
11, 57720, Note_on_c, 6, 80, 127
11, 57960, Note_on_c, 6, 80, 0
11, 57960, Note_on_c, 6, 71, 127
11, 58080, Note_on_c, 6, 71, 0
11, 58080, Note_on_c, 6, 72, 127
11, 58240, Note_on_c, 6, 82, 127
11, 58250, Note_on_c, 6, 72, 0
11, 58400, Note_on_c, 6, 77, 127
11, 58410, Note_on_c, 6, 82, 0
11, 58560, Note_on_c, 6, 87, 127
11, 58570, Note_on_c, 6, 77, 0
11, 59030, Note_on_c, 6, 87, 0
11, 59040, Note_on_c, 6, 85, 127
11, 59120, Note_on_c, 6, 85, 0
11, 59200, Note_on_c, 6, 82, 127
11, 59280, Note_on_c, 6, 82, 0
11, 59280, Note_on_c, 6, 84, 115
11, 59319, Note_on_c, 6, 84, 0
11, 59320, Note_on_c, 6, 84, 115
11, 59359, Note_on_c, 6, 84, 0
11, 59360, Note_on_c, 6, 84, 111
11, 59399, Note_on_c, 6, 84, 0
11, 59400, Note_on_c, 6, 84, 115
11, 59439, Note_on_c, 6, 84, 0
11, 59440, Note_on_c, 6, 84, 115
11, 59479, Note_on_c, 6, 84, 0
11, 59480, Note_on_c, 6, 84, 123
11, 59519, Note_on_c, 6, 84, 0
11, 59520, Note_on_c, 6, 84, 119
11, 59559, Note_on_c, 6, 84, 0
11, 59560, Note_on_c, 6, 84, 119
11, 59599, Note_on_c, 6, 84, 0
11, 59600, Note_on_c, 6, 84, 111
11, 59639, Note_on_c, 6, 84, 0
11, 59640, Note_on_c, 6, 84, 115
11, 59679, Note_on_c, 6, 84, 0
11, 59680, Note_on_c, 6, 84, 111
11, 59719, Note_on_c, 6, 84, 0
11, 59720, Note_on_c, 6, 84, 111
11, 59759, Note_on_c, 6, 84, 0
11, 59760, Note_on_c, 6, 84, 119
11, 59799, Note_on_c, 6, 84, 0
11, 59800, Note_on_c, 6, 84, 107
11, 59839, Note_on_c, 6, 84, 0
11, 59840, Note_on_c, 6, 84, 111
11, 59879, Note_on_c, 6, 84, 0
11, 59880, Note_on_c, 6, 84, 107
11, 59919, Note_on_c, 6, 84, 0
11, 59920, Note_on_c, 6, 84, 107
11, 59959, Note_on_c, 6, 84, 0
11, 59960, Note_on_c, 6, 84, 115
11, 59999, Note_on_c, 6, 84, 0
11, 60000, Note_on_c, 6, 84, 111
11, 60039, Note_on_c, 6, 84, 0
11, 60040, Note_on_c, 6, 84, 115
11, 60079, Note_on_c, 6, 84, 0
11, 60080, Note_on_c, 6, 84, 119
11, 60119, Note_on_c, 6, 84, 0
11, 60120, Note_on_c, 6, 84, 115
11, 60159, Note_on_c, 6, 84, 0
11, 60160, Note_on_c, 6, 84, 127
11, 60199, Note_on_c, 6, 84, 0
11, 60221, Note_on_c, 6, 87, 127
11, 60240, Note_on_c, 6, 80, 127
11, 60247, Note_on_c, 6, 87, 0
11, 60432, Note_on_c, 6, 80, 0
11, 60480, Note_on_c, 6, 85, 127
11, 60640, Note_on_c, 6, 89, 127
11, 60672, Note_on_c, 6, 85, 0
11, 60800, Note_on_c, 6, 82, 127
11, 60832, Note_on_c, 6, 89, 0
11, 60960, Note_on_c, 6, 87, 127
11, 60992, Note_on_c, 6, 82, 0
11, 61045, Note_on_c, 6, 87, 0
11, 61080, Note_on_c, 6, 85, 127
11, 61140, Note_on_c, 6, 85, 0
11, 61140, Note_on_c, 6, 89, 127
11, 61200, Note_on_c, 6, 89, 0
11, 61200, Note_on_c, 6, 84, 91
11, 61239, Note_on_c, 6, 84, 0
11, 61240, Note_on_c, 6, 84, 99
11, 61279, Note_on_c, 6, 84, 0
11, 61280, Note_on_c, 6, 84, 93
11, 61319, Note_on_c, 6, 84, 0
11, 61320, Note_on_c, 6, 84, 91
11, 61359, Note_on_c, 6, 84, 0
11, 61360, Note_on_c, 6, 84, 99
11, 61399, Note_on_c, 6, 84, 0
11, 61400, Note_on_c, 6, 84, 93
11, 61439, Note_on_c, 6, 84, 0
11, 61440, Note_on_c, 6, 84, 91
11, 61479, Note_on_c, 6, 84, 0
11, 61480, Note_on_c, 6, 84, 91
11, 61519, Note_on_c, 6, 84, 0
11, 61520, Note_on_c, 6, 84, 91
11, 61559, Note_on_c, 6, 84, 0
11, 61560, Note_on_c, 6, 84, 93
11, 61599, Note_on_c, 6, 84, 0
11, 61600, Note_on_c, 6, 84, 99
11, 61639, Note_on_c, 6, 84, 0
11, 61640, Note_on_c, 6, 84, 93
11, 61679, Note_on_c, 6, 84, 0
11, 61680, Note_on_c, 6, 84, 91
11, 61719, Note_on_c, 6, 84, 0
11, 61720, Note_on_c, 6, 84, 85
11, 61759, Note_on_c, 6, 84, 0
11, 61760, Note_on_c, 6, 84, 91
11, 61799, Note_on_c, 6, 84, 0
11, 61800, Note_on_c, 6, 84, 91
11, 61839, Note_on_c, 6, 84, 0
11, 61840, Note_on_c, 6, 84, 89
11, 61879, Note_on_c, 6, 84, 0
11, 61880, Note_on_c, 6, 84, 89
11, 61919, Note_on_c, 6, 84, 0
11, 61920, Note_on_c, 6, 72, 127
11, 61968, Note_on_c, 6, 72, 0
11, 62040, Note_on_c, 6, 76, 127
11, 62100, Note_on_c, 6, 76, 0
11, 62160, Note_on_c, 6, 74, 127
11, 62220, Note_on_c, 6, 74, 0
11, 62280, Note_on_c, 6, 77, 127
11, 62340, Note_on_c, 6, 77, 0
11, 62400, Note_on_c, 6, 76, 127
11, 62460, Note_on_c, 6, 76, 0
11, 62520, Note_on_c, 6, 67, 127
11, 62580, Note_on_c, 6, 67, 0
11, 62640, Note_on_c, 6, 77, 127
11, 62700, Note_on_c, 6, 77, 0
11, 62760, Note_on_c, 6, 74, 127
11, 62820, Note_on_c, 6, 74, 0
11, 62880, Note_on_c, 6, 81, 127
11, 62990, Note_on_c, 6, 81, 0
11, 63040, Note_on_c, 6, 84, 127
11, 63150, Note_on_c, 6, 84, 0
11, 63200, Note_on_c, 6, 76, 127
11, 63310, Note_on_c, 6, 76, 0
11, 63360, Note_on_c, 6, 76, 127
11, 63408, Note_on_c, 6, 76, 0
11, 63440, Note_on_c, 6, 77, 127
11, 63488, Note_on_c, 6, 77, 0
11, 63520, Note_on_c, 6, 76, 127
11, 63568, Note_on_c, 6, 76, 0
11, 63600, Note_on_c, 6, 74, 127
11, 63648, Note_on_c, 6, 74, 0
11, 63680, Note_on_c, 6, 69, 127
11, 63728, Note_on_c, 6, 69, 0
11, 63760, Note_on_c, 6, 70, 127
11, 63828, Note_on_c, 6, 70, 0
11, 63840, Note_on_c, 6, 72, 127
11, 63908, Note_on_c, 6, 72, 0
11, 63913, Note_on_c, 6, 72, 127
11, 63981, Note_on_c, 6, 72, 0
11, 63987, Note_on_c, 6, 74, 127
11, 64055, Note_on_c, 6, 74, 0
11, 64060, Note_on_c, 6, 74, 127
11, 64128, Note_on_c, 6, 74, 0
11, 64134, Note_on_c, 6, 76, 127
11, 64202, Note_on_c, 6, 76, 0
11, 64207, Note_on_c, 6, 77, 127
11, 64275, Note_on_c, 6, 77, 0
11, 64285, Note_on_c, 6, 81, 127
11, 64353, Note_on_c, 6, 81, 0
11, 64358, Note_on_c, 6, 67, 127
11, 64426, Note_on_c, 6, 67, 0
11, 64432, Note_on_c, 6, 67, 127
11, 64500, Note_on_c, 6, 67, 0
11, 64505, Note_on_c, 6, 74, 127
11, 64573, Note_on_c, 6, 74, 0
11, 64579, Note_on_c, 6, 65, 127
11, 64647, Note_on_c, 6, 65, 0
11, 64652, Note_on_c, 6, 65, 127
11, 64720, Note_on_c, 6, 65, 0
11, 64726, Note_on_c, 6, 64, 127
11, 64794, Note_on_c, 6, 64, 0
11, 64800, Note_on_c, 6, 79, 127
11, 66720, Note_on_c, 6, 79, 0
11, 66960, Note_on_c, 6, 83, 127
11, 67064, Note_on_c, 6, 83, 0
11, 67080, Note_on_c, 6, 85, 127
11, 67164, Note_on_c, 6, 85, 0
11, 67200, Note_on_c, 6, 85, 127
11, 67324, Note_on_c, 6, 85, 0
11, 67360, Note_on_c, 6, 83, 127
11, 67484, Note_on_c, 6, 83, 0
11, 67520, Note_on_c, 6, 86, 127
11, 67644, Note_on_c, 6, 86, 0
11, 67680, Note_on_c, 6, 89, 127
11, 67804, Note_on_c, 6, 89, 0
11, 67840, Note_on_c, 6, 81, 127
11, 67964, Note_on_c, 6, 81, 0
11, 68000, Note_on_c, 6, 81, 127
11, 68124, Note_on_c, 6, 81, 0
11, 68160, Note_on_c, 6, 82, 127
11, 68414, Note_on_c, 6, 82, 0
11, 68520, Note_on_c, 6, 85, 127
11, 68584, Note_on_c, 6, 85, 0
11, 68640, Note_on_c, 6, 88, 127
11, 68763, Note_on_c, 6, 88, 0
11, 68800, Note_on_c, 6, 93, 127
11, 68923, Note_on_c, 6, 93, 0
11, 68960, Note_on_c, 6, 94, 127
11, 69083, Note_on_c, 6, 94, 0
11, 69120, Note_on_c, 6, 89, 127
11, 69243, Note_on_c, 6, 89, 0
11, 69280, Note_on_c, 6, 84, 127
11, 69403, Note_on_c, 6, 84, 0
11, 69440, Note_on_c, 6, 79, 127
11, 69563, Note_on_c, 6, 79, 0
11, 69600, Note_on_c, 6, 81, 123
11, 69600, Note_on_c, 6, 81, 127
11, 69637, Note_on_c, 6, 81, 0
11, 69639, Note_on_c, 6, 81, 0
11, 69640, Note_on_c, 6, 81, 127
11, 69679, Note_on_c, 6, 81, 0
11, 69680, Note_on_c, 6, 81, 95
11, 69719, Note_on_c, 6, 81, 0
11, 69720, Note_on_c, 6, 81, 93
11, 69759, Note_on_c, 6, 81, 0
11, 69760, Note_on_c, 6, 81, 89
11, 69799, Note_on_c, 6, 81, 0
11, 69800, Note_on_c, 6, 81, 93
11, 69839, Note_on_c, 6, 81, 0
11, 69840, Note_on_c, 6, 81, 103
11, 69879, Note_on_c, 6, 81, 0
11, 69880, Note_on_c, 6, 81, 107
11, 69919, Note_on_c, 6, 81, 0
11, 69920, Note_on_c, 6, 81, 107
11, 69959, Note_on_c, 6, 81, 0
11, 69960, Note_on_c, 6, 81, 99
11, 69999, Note_on_c, 6, 81, 0
11, 70000, Note_on_c, 6, 81, 95
11, 70039, Note_on_c, 6, 81, 0
11, 70040, Note_on_c, 6, 81, 91
11, 70079, Note_on_c, 6, 81, 0
11, 70080, Note_on_c, 6, 81, 99
11, 70119, Note_on_c, 6, 81, 0
11, 70120, Note_on_c, 6, 81, 99
11, 70159, Note_on_c, 6, 81, 0
11, 70160, Note_on_c, 6, 81, 103
11, 70199, Note_on_c, 6, 81, 0
11, 70200, Note_on_c, 6, 81, 107
11, 70239, Note_on_c, 6, 81, 0
11, 70240, Note_on_c, 6, 81, 95
11, 70279, Note_on_c, 6, 81, 0
11, 70280, Note_on_c, 6, 81, 95
11, 70319, Note_on_c, 6, 81, 0
11, 70320, Note_on_c, 6, 81, 103
11, 70359, Note_on_c, 6, 81, 0
11, 70360, Note_on_c, 6, 81, 103
11, 70399, Note_on_c, 6, 81, 0
11, 70400, Note_on_c, 6, 81, 95
11, 70439, Note_on_c, 6, 81, 0
11, 70440, Note_on_c, 6, 81, 99
11, 70479, Note_on_c, 6, 81, 0
11, 70480, Note_on_c, 6, 81, 99
11, 70519, Note_on_c, 6, 81, 0
11, 70520, Note_on_c, 6, 81, 99
11, 70559, Note_on_c, 6, 81, 0
11, 70560, Note_on_c, 6, 81, 99
11, 70599, Note_on_c, 6, 81, 0
11, 70600, Note_on_c, 6, 81, 95
11, 70639, Note_on_c, 6, 81, 0
11, 70640, Note_on_c, 6, 81, 99
11, 70679, Note_on_c, 6, 81, 0
11, 70680, Note_on_c, 6, 81, 111
11, 70719, Note_on_c, 6, 81, 0
11, 70720, Note_on_c, 6, 81, 99
11, 70759, Note_on_c, 6, 81, 0
11, 70760, Note_on_c, 6, 81, 111
11, 70799, Note_on_c, 6, 81, 0
11, 70800, Note_on_c, 6, 93, 99
11, 70839, Note_on_c, 6, 93, 0
11, 70840, Note_on_c, 6, 93, 107
11, 70879, Note_on_c, 6, 93, 0
11, 70880, Note_on_c, 6, 93, 93
11, 70919, Note_on_c, 6, 93, 0
11, 70920, Note_on_c, 6, 93, 95
11, 70959, Note_on_c, 6, 93, 0
11, 70960, Note_on_c, 6, 93, 85
11, 70999, Note_on_c, 6, 93, 0
11, 71000, Note_on_c, 6, 93, 95
11, 71039, Note_on_c, 6, 93, 0
11, 71040, Note_on_c, 6, 93, 91
11, 71079, Note_on_c, 6, 93, 0
11, 71080, Note_on_c, 6, 93, 93
11, 71119, Note_on_c, 6, 93, 0
11, 71120, Note_on_c, 6, 93, 93
11, 71159, Note_on_c, 6, 93, 0
11, 71160, Note_on_c, 6, 93, 89
11, 71199, Note_on_c, 6, 93, 0
11, 71200, Note_on_c, 6, 93, 95
11, 71239, Note_on_c, 6, 93, 0
11, 71240, Note_on_c, 6, 93, 95
11, 71279, Note_on_c, 6, 93, 0
11, 71280, Note_on_c, 6, 93, 91
11, 71319, Note_on_c, 6, 93, 0
11, 71320, Note_on_c, 6, 93, 95
11, 71359, Note_on_c, 6, 93, 0
11, 71360, Note_on_c, 6, 93, 89
11, 71399, Note_on_c, 6, 93, 0
11, 71400, Note_on_c, 6, 93, 99
11, 71439, Note_on_c, 6, 93, 0
11, 71440, Note_on_c, 6, 93, 91
11, 71479, Note_on_c, 6, 93, 0
11, 71480, Note_on_c, 6, 93, 95
11, 71519, Note_on_c, 6, 93, 0
11, 71520, Note_on_c, 6, 93, 95
11, 71559, Note_on_c, 6, 93, 0
11, 71560, Note_on_c, 6, 93, 95
11, 71599, Note_on_c, 6, 93, 0
11, 71600, Note_on_c, 6, 93, 91
11, 71639, Note_on_c, 6, 93, 0
11, 71640, Note_on_c, 6, 93, 93
11, 71679, Note_on_c, 6, 93, 0
11, 71680, Note_on_c, 6, 93, 99
11, 71719, Note_on_c, 6, 93, 0
11, 71720, Note_on_c, 6, 93, 99
11, 71759, Note_on_c, 6, 93, 0
11, 71760, Note_on_c, 6, 93, 93
11, 71799, Note_on_c, 6, 93, 0
11, 71800, Note_on_c, 6, 93, 95
11, 71839, Note_on_c, 6, 93, 0
11, 71840, Note_on_c, 6, 93, 95
11, 71879, Note_on_c, 6, 93, 0
11, 71880, Note_on_c, 6, 93, 99
11, 71919, Note_on_c, 6, 93, 0
11, 71920, Note_on_c, 6, 93, 93
11, 71959, Note_on_c, 6, 93, 0
11, 71960, Note_on_c, 6, 93, 95
11, 71999, Note_on_c, 6, 93, 0
11, 72000, Note_on_c, 6, 93, 111
11, 72039, Note_on_c, 6, 93, 0
11, 72040, Note_on_c, 6, 93, 99
11, 72079, Note_on_c, 6, 93, 0
11, 72080, Note_on_c, 6, 93, 99
11, 72119, Note_on_c, 6, 93, 0
11, 72120, Note_on_c, 6, 93, 103
11, 72159, Note_on_c, 6, 93, 0
11, 72160, Note_on_c, 6, 93, 99
11, 72199, Note_on_c, 6, 93, 0
11, 72200, Note_on_c, 6, 93, 99
11, 72239, Note_on_c, 6, 93, 0
11, 72240, Note_on_c, 6, 93, 95
11, 72279, Note_on_c, 6, 93, 0
11, 72280, Note_on_c, 6, 93, 93
11, 72319, Note_on_c, 6, 93, 0
11, 72320, Note_on_c, 6, 93, 91
11, 72359, Note_on_c, 6, 93, 0
11, 72360, Note_on_c, 6, 93, 93
11, 72399, Note_on_c, 6, 93, 0
11, 72400, Note_on_c, 6, 93, 87
11, 72439, Note_on_c, 6, 93, 0
11, 72440, Note_on_c, 6, 93, 99
11, 72479, Note_on_c, 6, 93, 0
11, 72480, Note_on_c, 6, 93, 95
11, 72519, Note_on_c, 6, 93, 0
11, 72520, Note_on_c, 6, 93, 95
11, 72559, Note_on_c, 6, 93, 0
11, 72560, Note_on_c, 6, 93, 93
11, 72599, Note_on_c, 6, 93, 0
11, 72600, Note_on_c, 6, 93, 95
11, 72639, Note_on_c, 6, 93, 0
11, 72640, Note_on_c, 6, 93, 89
11, 72679, Note_on_c, 6, 93, 0
11, 72680, Note_on_c, 6, 93, 87
11, 72719, Note_on_c, 6, 93, 0
11, 72720, Note_on_c, 6, 93, 91
11, 72759, Note_on_c, 6, 93, 0
11, 72760, Note_on_c, 6, 93, 85
11, 72799, Note_on_c, 6, 93, 0
11, 72800, Note_on_c, 6, 93, 91
11, 72839, Note_on_c, 6, 93, 0
11, 72840, Note_on_c, 6, 93, 91
11, 72879, Note_on_c, 6, 93, 0
11, 72880, Note_on_c, 6, 93, 87
11, 72919, Note_on_c, 6, 93, 0
11, 72920, Note_on_c, 6, 93, 89
11, 72959, Note_on_c, 6, 93, 0
11, 72960, Note_on_c, 6, 93, 93
11, 72999, Note_on_c, 6, 93, 0
11, 73000, Note_on_c, 6, 93, 95
11, 73039, Note_on_c, 6, 93, 0
11, 73040, Note_on_c, 6, 93, 85
11, 73079, Note_on_c, 6, 93, 0
11, 73080, Note_on_c, 6, 93, 89
11, 73119, Note_on_c, 6, 93, 0
11, 73120, Note_on_c, 6, 93, 79
11, 73159, Note_on_c, 6, 93, 0
11, 73160, Note_on_c, 6, 93, 93
11, 73199, Note_on_c, 6, 93, 0
11, 73200, Note_on_c, 6, 81, 115
11, 73239, Note_on_c, 6, 81, 0
11, 73240, Note_on_c, 6, 81, 115
11, 73279, Note_on_c, 6, 81, 0
11, 73280, Note_on_c, 6, 81, 123
11, 73319, Note_on_c, 6, 81, 0
11, 73320, Note_on_c, 6, 81, 115
11, 73359, Note_on_c, 6, 81, 0
11, 73360, Note_on_c, 6, 81, 115
11, 73399, Note_on_c, 6, 81, 0
11, 73400, Note_on_c, 6, 81, 115
11, 73439, Note_on_c, 6, 81, 0
11, 73440, Note_on_c, 6, 81, 119
11, 73479, Note_on_c, 6, 81, 0
11, 73480, Note_on_c, 6, 81, 115
11, 73519, Note_on_c, 6, 81, 0
11, 73520, Note_on_c, 6, 81, 115
11, 73559, Note_on_c, 6, 81, 0
11, 73560, Note_on_c, 6, 81, 111
11, 73599, Note_on_c, 6, 81, 0
11, 73600, Note_on_c, 6, 81, 111
11, 73639, Note_on_c, 6, 81, 0
11, 73640, Note_on_c, 6, 81, 115
11, 73679, Note_on_c, 6, 81, 0
11, 73680, Note_on_c, 6, 81, 107
11, 73719, Note_on_c, 6, 81, 0
11, 73720, Note_on_c, 6, 81, 107
11, 73759, Note_on_c, 6, 81, 0
11, 73760, Note_on_c, 6, 81, 107
11, 73799, Note_on_c, 6, 81, 0
11, 73800, Note_on_c, 6, 81, 107
11, 73839, Note_on_c, 6, 81, 0
11, 73840, Note_on_c, 6, 81, 103
11, 73879, Note_on_c, 6, 81, 0
11, 73880, Note_on_c, 6, 81, 103
11, 73919, Note_on_c, 6, 81, 0
11, 73920, Note_on_c, 6, 81, 99
11, 73959, Note_on_c, 6, 81, 0
11, 73960, Note_on_c, 6, 81, 103
11, 73999, Note_on_c, 6, 81, 0
11, 74000, Note_on_c, 6, 81, 115
11, 74039, Note_on_c, 6, 81, 0
11, 74040, Note_on_c, 6, 81, 99
11, 74079, Note_on_c, 6, 81, 0
11, 74116, Note_on_c, 6, 83, 64
11, 74157, Note_on_c, 6, 84, 73
11, 74169, Note_on_c, 6, 83, 0
11, 74189, Note_on_c, 6, 86, 80
11, 74200, Note_on_c, 6, 84, 0
11, 74215, Note_on_c, 6, 88, 85
11, 74232, Note_on_c, 6, 86, 0
11, 74258, Note_on_c, 6, 89, 95
11, 74269, Note_on_c, 6, 88, 0
11, 74299, Note_on_c, 6, 91, 104
11, 74311, Note_on_c, 6, 89, 0
11, 74350, Note_on_c, 6, 93, 115
11, 74373, Note_on_c, 6, 91, 0
11, 74400, Note_on_c, 6, 95, 89
11, 74438, Note_on_c, 6, 93, 0
11, 74439, Note_on_c, 6, 95, 0
11, 74440, Note_on_c, 6, 95, 95
11, 74479, Note_on_c, 6, 95, 0
11, 74480, Note_on_c, 6, 95, 99
11, 74519, Note_on_c, 6, 95, 0
11, 74520, Note_on_c, 6, 95, 95
11, 74559, Note_on_c, 6, 95, 0
11, 74560, Note_on_c, 6, 95, 89
11, 74599, Note_on_c, 6, 95, 0
11, 74600, Note_on_c, 6, 95, 87
11, 74639, Note_on_c, 6, 95, 0
11, 74640, Note_on_c, 6, 95, 83
11, 74679, Note_on_c, 6, 95, 0
11, 74680, Note_on_c, 6, 95, 87
11, 74719, Note_on_c, 6, 95, 0
11, 74720, Note_on_c, 6, 95, 85
11, 74759, Note_on_c, 6, 95, 0
11, 74760, Note_on_c, 6, 95, 87
11, 74799, Note_on_c, 6, 95, 0
11, 74800, Note_on_c, 6, 95, 79
11, 74839, Note_on_c, 6, 95, 0
11, 74840, Note_on_c, 6, 95, 85
11, 74879, Note_on_c, 6, 95, 0
11, 74880, Note_on_c, 6, 95, 85
11, 74919, Note_on_c, 6, 95, 0
11, 74920, Note_on_c, 6, 95, 93
11, 74959, Note_on_c, 6, 95, 0
11, 74960, Note_on_c, 6, 95, 87
11, 74999, Note_on_c, 6, 95, 0
11, 75000, Note_on_c, 6, 95, 89
11, 75039, Note_on_c, 6, 95, 0
11, 75040, Note_on_c, 6, 95, 87
11, 75079, Note_on_c, 6, 95, 0
11, 75080, Note_on_c, 6, 95, 85
11, 75119, Note_on_c, 6, 95, 0
11, 75120, Note_on_c, 6, 95, 87
11, 75159, Note_on_c, 6, 95, 0
11, 75160, Note_on_c, 6, 95, 85
11, 75199, Note_on_c, 6, 95, 0
11, 75200, Note_on_c, 6, 95, 91
11, 75239, Note_on_c, 6, 95, 0
11, 75240, Note_on_c, 6, 95, 93
11, 75279, Note_on_c, 6, 95, 0
11, 75280, Note_on_c, 6, 95, 89
11, 75319, Note_on_c, 6, 95, 0
11, 75320, Note_on_c, 6, 95, 91
11, 75359, Note_on_c, 6, 95, 0
11, 75360, Note_on_c, 6, 95, 85
11, 75399, Note_on_c, 6, 95, 0
11, 75400, Note_on_c, 6, 95, 81
11, 75439, Note_on_c, 6, 95, 0
11, 75440, Note_on_c, 6, 95, 89
11, 75479, Note_on_c, 6, 95, 0
11, 75480, Note_on_c, 6, 95, 95
11, 75519, Note_on_c, 6, 95, 0
11, 75520, Note_on_c, 6, 95, 93
11, 75559, Note_on_c, 6, 95, 0
11, 75560, Note_on_c, 6, 95, 93
11, 75599, Note_on_c, 6, 95, 0
11, 75600, Note_on_c, 6, 85, 127
11, 75639, Note_on_c, 6, 85, 0
11, 75640, Note_on_c, 6, 85, 127
11, 75679, Note_on_c, 6, 85, 0
11, 75680, Note_on_c, 6, 85, 127
11, 75719, Note_on_c, 6, 85, 0
11, 75720, Note_on_c, 6, 85, 127
11, 75759, Note_on_c, 6, 85, 0
11, 75760, Note_on_c, 6, 85, 127
11, 75799, Note_on_c, 6, 85, 0
11, 75800, Note_on_c, 6, 85, 127
11, 75839, Note_on_c, 6, 85, 0
11, 75840, Note_on_c, 6, 85, 127
11, 75879, Note_on_c, 6, 85, 0
11, 75880, Note_on_c, 6, 85, 127
11, 75919, Note_on_c, 6, 85, 0
11, 75920, Note_on_c, 6, 85, 127
11, 75959, Note_on_c, 6, 85, 0
11, 75960, Note_on_c, 6, 85, 127
11, 75999, Note_on_c, 6, 85, 0
11, 76000, Note_on_c, 6, 85, 127
11, 76039, Note_on_c, 6, 85, 0
11, 76040, Note_on_c, 6, 85, 127
11, 76079, Note_on_c, 6, 85, 0
11, 76080, Note_on_c, 6, 85, 127
11, 76119, Note_on_c, 6, 85, 0
11, 76120, Note_on_c, 6, 85, 127
11, 76159, Note_on_c, 6, 85, 0
11, 76160, Note_on_c, 6, 85, 123
11, 76199, Note_on_c, 6, 85, 0
11, 76200, Note_on_c, 6, 85, 123
11, 76239, Note_on_c, 6, 85, 0
11, 76240, Note_on_c, 6, 85, 119
11, 76279, Note_on_c, 6, 85, 0
11, 76280, Note_on_c, 6, 85, 119
11, 76319, Note_on_c, 6, 85, 0
11, 76320, Note_on_c, 6, 85, 115
11, 76359, Note_on_c, 6, 85, 0
11, 76360, Note_on_c, 6, 85, 115
11, 76399, Note_on_c, 6, 85, 0
11, 76400, Note_on_c, 6, 85, 115
11, 76439, Note_on_c, 6, 85, 0
11, 76440, Note_on_c, 6, 85, 127
11, 76479, Note_on_c, 6, 85, 0
11, 76480, Note_on_c, 6, 85, 127
11, 76519, Note_on_c, 6, 85, 0
11, 76520, Note_on_c, 6, 85, 123
11, 76559, Note_on_c, 6, 85, 0
11, 76560, Note_on_c, 6, 85, 123
11, 76599, Note_on_c, 6, 85, 0
11, 76600, Note_on_c, 6, 85, 127
11, 76639, Note_on_c, 6, 85, 0
11, 76640, Note_on_c, 6, 85, 127
11, 76679, Note_on_c, 6, 85, 0
11, 76680, Note_on_c, 6, 85, 127
11, 76719, Note_on_c, 6, 85, 0
11, 76720, Note_on_c, 6, 85, 127
11, 76759, Note_on_c, 6, 85, 0
11, 76760, Note_on_c, 6, 85, 127
11, 76799, Note_on_c, 6, 85, 0
11, 76800, Note_on_c, 6, 88, 99
11, 76839, Note_on_c, 6, 88, 0
11, 76840, Note_on_c, 6, 88, 99
11, 76879, Note_on_c, 6, 88, 0
11, 76880, Note_on_c, 6, 88, 107
11, 76919, Note_on_c, 6, 88, 0
11, 76920, Note_on_c, 6, 88, 115
11, 76959, Note_on_c, 6, 88, 0
11, 76960, Note_on_c, 6, 88, 103
11, 76999, Note_on_c, 6, 88, 0
11, 77000, Note_on_c, 6, 88, 99
11, 77039, Note_on_c, 6, 88, 0
11, 77040, Note_on_c, 6, 88, 93
11, 77079, Note_on_c, 6, 88, 0
11, 77080, Note_on_c, 6, 88, 99
11, 77119, Note_on_c, 6, 88, 0
11, 77120, Note_on_c, 6, 88, 93
11, 77159, Note_on_c, 6, 88, 0
11, 77160, Note_on_c, 6, 88, 99
11, 77199, Note_on_c, 6, 88, 0
11, 77200, Note_on_c, 6, 88, 99
11, 77239, Note_on_c, 6, 88, 0
11, 77240, Note_on_c, 6, 88, 93
11, 77279, Note_on_c, 6, 88, 0
11, 77280, Note_on_c, 6, 88, 93
11, 77319, Note_on_c, 6, 88, 0
11, 77320, Note_on_c, 6, 88, 93
11, 77359, Note_on_c, 6, 88, 0
11, 77360, Note_on_c, 6, 88, 91
11, 77399, Note_on_c, 6, 88, 0
11, 77400, Note_on_c, 6, 88, 85
11, 77439, Note_on_c, 6, 88, 0
11, 77440, Note_on_c, 6, 88, 95
11, 77479, Note_on_c, 6, 88, 0
11, 77480, Note_on_c, 6, 88, 91
11, 77519, Note_on_c, 6, 88, 0
11, 77520, Note_on_c, 6, 88, 93
11, 77559, Note_on_c, 6, 88, 0
11, 77560, Note_on_c, 6, 88, 99
11, 77599, Note_on_c, 6, 88, 0
11, 77600, Note_on_c, 6, 88, 93
11, 77639, Note_on_c, 6, 88, 0
11, 77640, Note_on_c, 6, 88, 89
11, 77679, Note_on_c, 6, 88, 0
11, 77680, Note_on_c, 6, 88, 87
11, 77719, Note_on_c, 6, 88, 0
11, 77720, Note_on_c, 6, 88, 91
11, 77759, Note_on_c, 6, 88, 0
11, 77760, Note_on_c, 6, 88, 89
11, 77799, Note_on_c, 6, 88, 0
11, 77800, Note_on_c, 6, 88, 89
11, 77839, Note_on_c, 6, 88, 0
11, 77840, Note_on_c, 6, 88, 85
11, 77879, Note_on_c, 6, 88, 0
11, 77880, Note_on_c, 6, 88, 89
11, 77919, Note_on_c, 6, 88, 0
11, 77920, Note_on_c, 6, 88, 87
11, 77959, Note_on_c, 6, 88, 0
11, 77960, Note_on_c, 6, 88, 91
11, 77999, Note_on_c, 6, 88, 0
11, 78000, Note_on_c, 6, 85, 127
11, 78039, Note_on_c, 6, 85, 0
11, 78040, Note_on_c, 6, 85, 127
11, 78079, Note_on_c, 6, 85, 0
11, 78080, Note_on_c, 6, 85, 127
11, 78119, Note_on_c, 6, 85, 0
11, 78120, Note_on_c, 6, 85, 127
11, 78159, Note_on_c, 6, 85, 0
11, 78160, Note_on_c, 6, 85, 127
11, 78199, Note_on_c, 6, 85, 0
11, 78200, Note_on_c, 6, 85, 127
11, 78239, Note_on_c, 6, 85, 0
11, 78240, Note_on_c, 6, 85, 127
11, 78279, Note_on_c, 6, 85, 0
11, 78280, Note_on_c, 6, 85, 127
11, 78319, Note_on_c, 6, 85, 0
11, 78320, Note_on_c, 6, 85, 127
11, 78359, Note_on_c, 6, 85, 0
11, 78360, Note_on_c, 6, 85, 123
11, 78399, Note_on_c, 6, 85, 0
11, 78400, Note_on_c, 6, 85, 127
11, 78439, Note_on_c, 6, 85, 0
11, 78440, Note_on_c, 6, 85, 127
11, 78479, Note_on_c, 6, 85, 0
11, 78480, Note_on_c, 6, 85, 127
11, 78519, Note_on_c, 6, 85, 0
11, 78520, Note_on_c, 6, 85, 127
11, 78559, Note_on_c, 6, 85, 0
11, 78560, Note_on_c, 6, 85, 127
11, 78599, Note_on_c, 6, 85, 0
11, 78600, Note_on_c, 6, 85, 127
11, 78639, Note_on_c, 6, 85, 0
11, 78640, Note_on_c, 6, 85, 127
11, 78679, Note_on_c, 6, 85, 0
11, 78680, Note_on_c, 6, 85, 123
11, 78719, Note_on_c, 6, 85, 0
11, 78720, Note_on_c, 6, 85, 127
11, 78759, Note_on_c, 6, 85, 0
11, 78760, Note_on_c, 6, 85, 127
11, 78799, Note_on_c, 6, 85, 0
11, 78800, Note_on_c, 6, 85, 127
11, 78839, Note_on_c, 6, 85, 0
11, 78840, Note_on_c, 6, 85, 127
11, 78879, Note_on_c, 6, 85, 0
11, 78880, Note_on_c, 6, 85, 127
11, 78919, Note_on_c, 6, 85, 0
11, 78920, Note_on_c, 6, 85, 123
11, 78959, Note_on_c, 6, 85, 0
11, 78960, Note_on_c, 6, 85, 127
11, 78999, Note_on_c, 6, 85, 0
11, 79000, Note_on_c, 6, 85, 127
11, 79039, Note_on_c, 6, 85, 0
11, 79040, Note_on_c, 6, 85, 127
11, 79079, Note_on_c, 6, 85, 0
11, 79080, Note_on_c, 6, 85, 127
11, 79119, Note_on_c, 6, 85, 0
11, 79120, Note_on_c, 6, 85, 127
11, 79159, Note_on_c, 6, 85, 0
11, 79160, Note_on_c, 6, 85, 127
11, 79199, Note_on_c, 6, 85, 0
11, 79200, Note_on_c, 6, 82, 127
11, 79284, Note_on_c, 6, 82, 0
11, 79320, Note_on_c, 6, 84, 127
11, 79404, Note_on_c, 6, 84, 0
11, 79440, Note_on_c, 6, 84, 127
11, 79504, Note_on_c, 6, 84, 0
11, 79520, Note_on_c, 6, 81, 127
11, 79584, Note_on_c, 6, 81, 0
11, 79600, Note_on_c, 6, 86, 127
11, 79664, Note_on_c, 6, 86, 0
11, 79680, Note_on_c, 6, 87, 127
11, 79764, Note_on_c, 6, 87, 0
11, 79800, Note_on_c, 6, 79, 127
11, 79884, Note_on_c, 6, 79, 0
11, 79920, Note_on_c, 6, 79, 127
11, 79984, Note_on_c, 6, 79, 0
11, 80000, Note_on_c, 6, 81, 127
11, 80064, Note_on_c, 6, 81, 0
11, 80080, Note_on_c, 6, 77, 127
11, 80144, Note_on_c, 6, 77, 0
11, 80160, Note_on_c, 6, 76, 127
11, 80283, Note_on_c, 6, 76, 0
11, 80320, Note_on_c, 6, 79, 127
11, 80443, Note_on_c, 6, 79, 0
11, 80480, Note_on_c, 6, 79, 127
11, 80603, Note_on_c, 6, 79, 0
11, 80640, Note_on_c, 6, 77, 127
11, 80763, Note_on_c, 6, 77, 0
11, 80800, Note_on_c, 6, 77, 127
11, 80923, Note_on_c, 6, 77, 0
11, 80960, Note_on_c, 6, 82, 127
11, 81083, Note_on_c, 6, 82, 0
11, 81120, Note_on_c, 6, 83, 127
11, 83520, Note_on_c, 6, 83, 0
11, 85920, Note_on_c, 6, 81, 127
11, 86220, Note_on_c, 6, 81, 0
11, 86220, Note_on_c, 6, 79, 127
11, 86270, Note_on_c, 6, 79, 0
11, 86280, Note_on_c, 6, 78, 127
11, 86330, Note_on_c, 6, 78, 0
11, 86340, Note_on_c, 6, 84, 127
11, 86390, Note_on_c, 6, 84, 0
11, 86400, Note_on_c, 6, 74, 127
11, 86470, Note_on_c, 6, 74, 0
11, 86480, Note_on_c, 6, 81, 127
11, 86550, Note_on_c, 6, 81, 0
11, 86560, Note_on_c, 6, 79, 127
11, 86630, Note_on_c, 6, 79, 0
11, 86640, Note_on_c, 6, 83, 127
11, 86678, Note_on_c, 6, 83, 0
11, 86688, Note_on_c, 6, 79, 127
11, 86726, Note_on_c, 6, 79, 0
11, 86736, Note_on_c, 6, 79, 127
11, 86774, Note_on_c, 6, 79, 0
11, 86784, Note_on_c, 6, 81, 127
11, 86822, Note_on_c, 6, 81, 0
11, 86832, Note_on_c, 6, 78, 127
11, 86870, Note_on_c, 6, 78, 0
11, 86976, Note_on_c, 6, 83, 127
11, 87052, Note_on_c, 6, 83, 0
11, 87072, Note_on_c, 6, 76, 127
11, 87148, Note_on_c, 6, 76, 0
11, 87168, Note_on_c, 6, 81, 127
11, 87244, Note_on_c, 6, 81, 0
11, 87264, Note_on_c, 6, 78, 127
11, 87340, Note_on_c, 6, 78, 0
11, 87360, Note_on_c, 6, 90, 127
11, 87446, Note_on_c, 6, 90, 0
11, 87456, Note_on_c, 6, 88, 127
11, 87542, Note_on_c, 6, 88, 0
11, 87552, Note_on_c, 6, 83, 127
11, 87638, Note_on_c, 6, 83, 0
11, 87648, Note_on_c, 6, 86, 127
11, 87734, Note_on_c, 6, 86, 0
11, 87744, Note_on_c, 6, 76, 127
11, 87830, Note_on_c, 6, 76, 0
11, 87840, Note_on_c, 6, 90, 127
11, 87926, Note_on_c, 6, 90, 0
11, 87936, Note_on_c, 6, 88, 127
11, 88022, Note_on_c, 6, 88, 0
11, 88032, Note_on_c, 6, 83, 127
11, 88118, Note_on_c, 6, 83, 0
11, 88128, Note_on_c, 6, 86, 127
11, 88214, Note_on_c, 6, 86, 0
11, 88224, Note_on_c, 6, 76, 127
11, 88304, Note_on_c, 6, 76, 0
11, 88320, Note_on_c, 6, 76, 127
11, 89780, Note_on_c, 6, 76, 0
11, 90826, Note_on_c, 6, 78, 127
11, 90924, Note_on_c, 6, 78, 0
11, 90933, Note_on_c, 6, 79, 127
11, 91031, Note_on_c, 6, 79, 0
11, 91039, Note_on_c, 6, 84, 127
11, 91137, Note_on_c, 6, 84, 0
11, 91145, Note_on_c, 6, 83, 127
11, 91243, Note_on_c, 6, 83, 0
11, 91252, Note_on_c, 6, 90, 127
11, 91320, Note_on_c, 6, 90, 0
11, 91323, Note_on_c, 6, 91, 127
11, 91391, Note_on_c, 6, 91, 0
11, 91394, Note_on_c, 6, 88, 127
11, 91462, Note_on_c, 6, 88, 0
11, 91466, Note_on_c, 6, 93, 127
11, 91564, Note_on_c, 6, 93, 0
11, 91573, Note_on_c, 6, 90, 127
11, 91671, Note_on_c, 6, 90, 0
11, 91680, Note_on_c, 6, 91, 127
11, 91780, Note_on_c, 6, 91, 0
11, 91800, Note_on_c, 6, 90, 127
11, 91900, Note_on_c, 6, 90, 0
11, 91920, Note_on_c, 6, 90, 127
11, 92020, Note_on_c, 6, 90, 0
11, 92040, Note_on_c, 6, 88, 127
11, 92140, Note_on_c, 6, 88, 0
11, 92160, Note_on_c, 6, 93, 127
11, 92203, Note_on_c, 6, 93, 0
11, 92204, Note_on_c, 6, 98, 127
11, 92247, Note_on_c, 6, 98, 0
11, 92248, Note_on_c, 6, 93, 127
11, 92291, Note_on_c, 6, 93, 0
11, 92292, Note_on_c, 6, 95, 127
11, 92335, Note_on_c, 6, 95, 0
11, 92336, Note_on_c, 6, 96, 127
11, 92379, Note_on_c, 6, 96, 0
11, 92380, Note_on_c, 6, 100, 127
11, 92423, Note_on_c, 6, 100, 0
11, 92424, Note_on_c, 6, 95, 127
11, 92467, Note_on_c, 6, 95, 0
11, 92468, Note_on_c, 6, 95, 127
11, 92511, Note_on_c, 6, 95, 0
11, 92512, Note_on_c, 6, 96, 127
11, 92555, Note_on_c, 6, 96, 0
11, 92556, Note_on_c, 6, 86, 127
11, 92599, Note_on_c, 6, 86, 0
11, 92600, Note_on_c, 6, 93, 127
11, 92640, Note_on_c, 6, 95, 127
11, 92643, Note_on_c, 6, 93, 0
11, 92683, Note_on_c, 6, 95, 0
11, 92684, Note_on_c, 6, 88, 127
11, 92727, Note_on_c, 6, 88, 0
11, 92728, Note_on_c, 6, 88, 127
11, 92771, Note_on_c, 6, 88, 0
11, 92772, Note_on_c, 6, 91, 127
11, 92815, Note_on_c, 6, 91, 0
11, 92816, Note_on_c, 6, 91, 127
11, 92859, Note_on_c, 6, 91, 0
11, 92860, Note_on_c, 6, 98, 127
11, 92903, Note_on_c, 6, 98, 0
11, 92904, Note_on_c, 6, 90, 127
11, 92947, Note_on_c, 6, 90, 0
11, 92948, Note_on_c, 6, 90, 127
11, 92991, Note_on_c, 6, 90, 0
11, 92992, Note_on_c, 6, 93, 127
11, 93035, Note_on_c, 6, 93, 0
11, 93036, Note_on_c, 6, 88, 127
11, 93079, Note_on_c, 6, 88, 0
11, 93080, Note_on_c, 6, 83, 127
11, 93120, Note_on_c, 6, 93, 127
11, 93123, Note_on_c, 6, 83, 0
11, 93190, Note_on_c, 6, 93, 0
11, 93280, Note_on_c, 6, 84, 127
11, 93350, Note_on_c, 6, 84, 0
11, 93440, Note_on_c, 6, 84, 127
11, 93510, Note_on_c, 6, 84, 0
11, 93600, Note_on_c, 6, 91, 127
11, 94560, Note_on_c, 6, 91, 0
11, 94800, Note_on_c, 6, 87, 127
11, 94996, Note_on_c, 6, 90, 76
11, 95000, Note_on_c, 6, 87, 0
11, 95019, Note_on_c, 6, 92, 99
11, 95028, Note_on_c, 6, 90, 0
11, 95040, Note_on_c, 6, 94, 127
11, 95049, Note_on_c, 6, 92, 0
11, 95164, Note_on_c, 6, 94, 0
11, 95200, Note_on_c, 6, 92, 127
11, 95324, Note_on_c, 6, 92, 0
11, 95360, Note_on_c, 6, 89, 127
11, 95484, Note_on_c, 6, 89, 0
11, 95520, Note_on_c, 6, 89, 127
11, 95584, Note_on_c, 6, 89, 0
11, 95610, Note_on_c, 6, 91, 127
11, 95674, Note_on_c, 6, 91, 0
11, 95700, Note_on_c, 6, 87, 127
11, 95764, Note_on_c, 6, 87, 0
11, 95790, Note_on_c, 6, 82, 127
11, 95854, Note_on_c, 6, 82, 0
11, 95880, Note_on_c, 6, 92, 127
11, 95944, Note_on_c, 6, 92, 0
11, 95966, Note_on_c, 6, 96, 127
11, 96009, Note_on_c, 6, 96, 0
11, 96052, Note_on_c, 6, 94, 127
11, 96095, Note_on_c, 6, 94, 0
11, 96137, Note_on_c, 6, 94, 127
11, 96180, Note_on_c, 6, 94, 0
11, 96223, Note_on_c, 6, 92, 127
11, 96266, Note_on_c, 6, 92, 0
11, 96309, Note_on_c, 6, 92, 127
11, 96352, Note_on_c, 6, 92, 0
11, 96394, Note_on_c, 6, 89, 127
11, 96437, Note_on_c, 6, 89, 0
11, 96480, Note_on_c, 6, 94, 127
11, 96524, Note_on_c, 6, 94, 0
11, 96567, Note_on_c, 6, 90, 127
11, 96611, Note_on_c, 6, 90, 0
11, 96655, Note_on_c, 6, 90, 127
11, 96699, Note_on_c, 6, 90, 0
11, 96742, Note_on_c, 6, 89, 127
11, 96786, Note_on_c, 6, 89, 0
11, 96830, Note_on_c, 6, 92, 127
11, 96874, Note_on_c, 6, 92, 0
11, 96917, Note_on_c, 6, 85, 127
11, 96961, Note_on_c, 6, 85, 0
11, 97004, Note_on_c, 6, 85, 127
11, 97048, Note_on_c, 6, 85, 0
11, 97092, Note_on_c, 6, 87, 127
11, 97136, Note_on_c, 6, 87, 0
11, 97179, Note_on_c, 6, 83, 127
11, 97223, Note_on_c, 6, 83, 0
11, 97266, Note_on_c, 6, 92, 127
11, 97310, Note_on_c, 6, 92, 0
11, 97353, Note_on_c, 6, 89, 127
11, 97397, Note_on_c, 6, 89, 0
11, 97440, Note_on_c, 6, 89, 127
11, 97484, Note_on_c, 6, 89, 0
11, 97527, Note_on_c, 6, 87, 127
11, 97571, Note_on_c, 6, 87, 0
11, 97615, Note_on_c, 6, 90, 127
11, 97659, Note_on_c, 6, 90, 0
11, 97702, Note_on_c, 6, 85, 127
11, 97746, Note_on_c, 6, 85, 0
11, 97789, Note_on_c, 6, 89, 127
11, 97833, Note_on_c, 6, 89, 0
11, 97877, Note_on_c, 6, 87, 127
11, 97921, Note_on_c, 6, 87, 0
11, 97964, Note_on_c, 6, 92, 127
11, 98008, Note_on_c, 6, 92, 0
11, 98051, Note_on_c, 6, 85, 127
11, 98095, Note_on_c, 6, 85, 0
11, 98139, Note_on_c, 6, 90, 127
11, 98183, Note_on_c, 6, 90, 0
11, 98226, Note_on_c, 6, 77, 127
11, 98270, Note_on_c, 6, 77, 0
11, 98313, Note_on_c, 6, 75, 127
11, 98357, Note_on_c, 6, 75, 0
11, 98400, Note_on_c, 6, 84, 127
11, 100290, Note_on_c, 6, 84, 0
11, 100320, Note_on_c, 6, 94, 127
11, 100364, Note_on_c, 6, 94, 0
11, 100407, Note_on_c, 6, 90, 127
11, 100451, Note_on_c, 6, 90, 0
11, 100495, Note_on_c, 6, 90, 127
11, 100539, Note_on_c, 6, 90, 0
11, 100582, Note_on_c, 6, 89, 127
11, 100626, Note_on_c, 6, 89, 0
11, 100670, Note_on_c, 6, 92, 127
11, 100714, Note_on_c, 6, 92, 0
11, 100757, Note_on_c, 6, 85, 127
11, 100801, Note_on_c, 6, 85, 0
11, 100844, Note_on_c, 6, 85, 127
11, 100888, Note_on_c, 6, 85, 0
11, 100932, Note_on_c, 6, 87, 127
11, 100976, Note_on_c, 6, 87, 0
11, 101019, Note_on_c, 6, 83, 127
11, 101063, Note_on_c, 6, 83, 0
11, 101106, Note_on_c, 6, 92, 127
11, 101150, Note_on_c, 6, 92, 0
11, 101193, Note_on_c, 6, 89, 127
11, 101237, Note_on_c, 6, 89, 0
11, 101280, Note_on_c, 6, 89, 127
11, 101324, Note_on_c, 6, 89, 0
11, 101367, Note_on_c, 6, 87, 127
11, 101411, Note_on_c, 6, 87, 0
11, 101455, Note_on_c, 6, 90, 127
11, 101499, Note_on_c, 6, 90, 0
11, 101542, Note_on_c, 6, 85, 127
11, 101586, Note_on_c, 6, 85, 0
11, 101629, Note_on_c, 6, 89, 127
11, 101673, Note_on_c, 6, 89, 0
11, 101717, Note_on_c, 6, 87, 127
11, 101761, Note_on_c, 6, 87, 0
11, 101804, Note_on_c, 6, 92, 127
11, 101848, Note_on_c, 6, 92, 0
11, 101891, Note_on_c, 6, 85, 127
11, 101935, Note_on_c, 6, 85, 0
11, 101979, Note_on_c, 6, 90, 127
11, 102023, Note_on_c, 6, 90, 0
11, 102066, Note_on_c, 6, 77, 127
11, 102110, Note_on_c, 6, 77, 0
11, 102153, Note_on_c, 6, 75, 127
11, 102197, Note_on_c, 6, 75, 0
11, 102240, Note_on_c, 6, 84, 127
11, 104160, Note_on_c, 6, 84, 0
11, 104160, Note_on_c, 6, 94, 127
11, 104204, Note_on_c, 6, 94, 0
11, 104247, Note_on_c, 6, 90, 127
11, 104291, Note_on_c, 6, 90, 0
11, 104335, Note_on_c, 6, 90, 127
11, 104379, Note_on_c, 6, 90, 0
11, 104422, Note_on_c, 6, 89, 127
11, 104466, Note_on_c, 6, 89, 0
11, 104510, Note_on_c, 6, 92, 127
11, 104554, Note_on_c, 6, 92, 0
11, 104597, Note_on_c, 6, 85, 127
11, 104641, Note_on_c, 6, 85, 0
11, 104684, Note_on_c, 6, 85, 127
11, 104728, Note_on_c, 6, 85, 0
11, 104772, Note_on_c, 6, 87, 127
11, 104816, Note_on_c, 6, 87, 0
11, 104859, Note_on_c, 6, 83, 127
11, 104903, Note_on_c, 6, 83, 0
11, 104946, Note_on_c, 6, 92, 127
11, 104990, Note_on_c, 6, 92, 0
11, 105033, Note_on_c, 6, 89, 127
11, 105077, Note_on_c, 6, 89, 0
11, 105120, Note_on_c, 6, 89, 127
11, 105164, Note_on_c, 6, 89, 0
11, 105207, Note_on_c, 6, 87, 127
11, 105251, Note_on_c, 6, 87, 0
11, 105295, Note_on_c, 6, 90, 127
11, 105339, Note_on_c, 6, 90, 0
11, 105382, Note_on_c, 6, 85, 127
11, 105426, Note_on_c, 6, 85, 0
11, 105469, Note_on_c, 6, 89, 127
11, 105513, Note_on_c, 6, 89, 0
11, 105557, Note_on_c, 6, 87, 127
11, 105601, Note_on_c, 6, 87, 0
11, 105644, Note_on_c, 6, 92, 127
11, 105688, Note_on_c, 6, 92, 0
11, 105731, Note_on_c, 6, 85, 127
11, 105775, Note_on_c, 6, 85, 0
11, 105819, Note_on_c, 6, 90, 127
11, 105863, Note_on_c, 6, 90, 0
11, 105906, Note_on_c, 6, 77, 127
11, 105950, Note_on_c, 6, 77, 0
11, 105993, Note_on_c, 6, 75, 127
11, 106037, Note_on_c, 6, 75, 0
11, 106080, Note_on_c, 6, 72, 127
11, 108000, Note_on_c, 6, 72, 0
11, 125040, Control_c, 6, 7, 127
11, 125280, Note_on_c, 6, 71, 127
11, 125696, Note_on_c, 6, 71, 0
11, 125760, Note_on_c, 6, 78, 127
11, 125788, Note_on_c, 6, 78, 0
11, 125820, Note_on_c, 6, 78, 127
11, 125856, Note_on_c, 6, 78, 0
11, 125880, Note_on_c, 6, 76, 127
11, 125927, Note_on_c, 6, 76, 0
11, 125940, Note_on_c, 6, 74, 127
11, 126000, Note_on_c, 6, 81, 127
11, 126001, Note_on_c, 6, 74, 0
11, 126197, Note_on_c, 6, 81, 0
11, 126312, Note_on_c, 6, 81, 127
11, 126368, Note_on_c, 6, 79, 127
11, 126376, Note_on_c, 6, 81, 0
11, 126480, Note_on_c, 6, 79, 0
11, 126480, Note_on_c, 6, 76, 127
11, 126480, Note_on_c, 6, 76, 127
11, 126519, Note_on_c, 6, 76, 0
11, 126520, Note_on_c, 6, 76, 127
11, 126539, Note_on_c, 6, 76, 0
11, 126559, Note_on_c, 6, 76, 0
11, 126560, Note_on_c, 6, 76, 127
11, 126599, Note_on_c, 6, 76, 0
11, 126600, Note_on_c, 6, 76, 127
11, 126639, Note_on_c, 6, 76, 0
11, 126640, Note_on_c, 6, 76, 127
11, 126679, Note_on_c, 6, 76, 0
11, 126680, Note_on_c, 6, 76, 127
11, 126719, Note_on_c, 6, 76, 0
11, 126720, Note_on_c, 6, 76, 127
11, 126759, Note_on_c, 6, 76, 0
11, 126760, Note_on_c, 6, 76, 127
11, 126799, Note_on_c, 6, 76, 0
11, 126800, Note_on_c, 6, 76, 127
11, 126839, Note_on_c, 6, 76, 0
11, 126840, Note_on_c, 6, 81, 127
11, 126840, Note_on_c, 6, 81, 127
11, 126879, Note_on_c, 6, 81, 0
11, 126880, Note_on_c, 6, 81, 127
11, 126919, Note_on_c, 6, 81, 0
11, 126920, Note_on_c, 6, 81, 127
11, 126959, Note_on_c, 6, 81, 0
11, 126960, Note_on_c, 6, 81, 127
11, 126989, Note_on_c, 6, 81, 0
11, 126999, Note_on_c, 6, 81, 0
11, 127000, Note_on_c, 6, 81, 127
11, 127039, Note_on_c, 6, 81, 0
11, 127040, Note_on_c, 6, 81, 127
11, 127079, Note_on_c, 6, 81, 0
11, 127080, Note_on_c, 6, 78, 127
11, 127080, Note_on_c, 6, 78, 127
11, 127119, Note_on_c, 6, 78, 0
11, 127120, Note_on_c, 6, 78, 127
11, 127159, Note_on_c, 6, 78, 0
11, 127160, Note_on_c, 6, 78, 127
11, 127167, Note_on_c, 6, 78, 0
11, 127199, Note_on_c, 6, 78, 0
11, 127200, Note_on_c, 6, 79, 127
11, 127239, Note_on_c, 6, 79, 0
11, 127239, End_track
12, 0, Start_track
12, 0, MIDI_port, 0
12, 0, Title_t, "RANDY BRECKER"
12, 0, Program_c, 7, 56
12, 0, Control_c, 7, 7, 117
12, 0, Control_c, 7, 10, 74
12, 107038, Note_on_c, 7, 74, 127
12, 107279, Note_on_c, 7, 65, 127
12, 107297, Note_on_c, 7, 74, 0
12, 108457, Note_on_c, 7, 65, 0
12, 109449, Pitch_bend_c, 7, 3328
12, 109461, Note_on_c, 7, 61, 127
12, 109473, Pitch_bend_c, 7, 3584
12, 109482, Pitch_bend_c, 7, 3968
12, 109484, Pitch_bend_c, 7, 4352
12, 109489, Pitch_bend_c, 7, 4736
12, 109496, Pitch_bend_c, 7, 5248
12, 109501, Pitch_bend_c, 7, 5632
12, 109506, Pitch_bend_c, 7, 6272
12, 109508, Pitch_bend_c, 7, 6528
12, 109513, Pitch_bend_c, 7, 7296
12, 109520, Pitch_bend_c, 7, 7808
12, 109522, Pitch_bend_c, 7, 8064
12, 109527, Pitch_bend_c, 7, 8192
12, 109880, Pitch_bend_c, 7, 8064
12, 109890, Pitch_bend_c, 7, 7552
12, 109896, Pitch_bend_c, 7, 7040
12, 109899, Pitch_bend_c, 7, 6784
12, 109904, Pitch_bend_c, 7, 6400
12, 109911, Pitch_bend_c, 7, 6144
12, 109916, Pitch_bend_c, 7, 5888
12, 109942, Pitch_bend_c, 7, 6144
12, 109951, Pitch_bend_c, 7, 6528
12, 109953, Pitch_bend_c, 7, 6784
12, 109960, Pitch_bend_c, 7, 7296
12, 109965, Pitch_bend_c, 7, 7808
12, 109970, Pitch_bend_c, 7, 8192
12, 110249, Note_on_c, 7, 61, 0
12, 110292, Pitch_bend_c, 7, 7808
12, 110300, Pitch_bend_c, 7, 7552
12, 110309, Pitch_bend_c, 7, 6912
12, 110316, Pitch_bend_c, 7, 6528
12, 110321, Pitch_bend_c, 7, 6272
12, 110325, Pitch_bend_c, 7, 6016
12, 110328, Pitch_bend_c, 7, 5504
12, 110337, Pitch_bend_c, 7, 5120
12, 110345, Pitch_bend_c, 7, 4864
12, 110358, Pitch_bend_c, 7, 5120
12, 110364, Pitch_bend_c, 7, 5504
12, 110370, Note_on_c, 7, 64, 125
12, 110370, Pitch_bend_c, 7, 5888
12, 110373, Pitch_bend_c, 7, 6144
12, 110380, Pitch_bend_c, 7, 6400
12, 110389, Pitch_bend_c, 7, 6784
12, 110397, Pitch_bend_c, 7, 7168
12, 110401, Pitch_bend_c, 7, 7552
12, 110406, Pitch_bend_c, 7, 7808
12, 110413, Pitch_bend_c, 7, 8192
12, 110814, Pitch_bend_c, 7, 8064
12, 110821, Pitch_bend_c, 7, 7680
12, 110830, Pitch_bend_c, 7, 7296
12, 110859, Pitch_bend_c, 7, 7680
12, 110866, Pitch_bend_c, 7, 8064
12, 110875, Pitch_bend_c, 7, 8192
12, 111873, Note_on_c, 7, 64, 0
12, 112328, Pitch_bend_c, 7, 4864
12, 112337, Note_on_c, 7, 57, 127
12, 112337, Pitch_bend_c, 7, 4480
12, 112349, Pitch_bend_c, 7, 4736
12, 112352, Pitch_bend_c, 7, 4992
12, 112356, Pitch_bend_c, 7, 5376
12, 112361, Pitch_bend_c, 7, 5888
12, 112365, Pitch_bend_c, 7, 6400
12, 112370, Pitch_bend_c, 7, 6912
12, 112373, Pitch_bend_c, 7, 7552
12, 112377, Pitch_bend_c, 7, 7936
12, 112380, Pitch_bend_c, 7, 8192
12, 112814, Pitch_bend_c, 7, 8064
12, 112825, Pitch_bend_c, 7, 7808
12, 112865, Pitch_bend_c, 7, 8192
12, 113467, Note_on_c, 7, 57, 0
12, 113780, Pitch_bend_c, 7, 6528
12, 113787, Note_on_c, 7, 64, 121
12, 113806, Pitch_bend_c, 7, 6784
12, 113813, Pitch_bend_c, 7, 7040
12, 113820, Pitch_bend_c, 7, 7552
12, 113827, Pitch_bend_c, 7, 7936
12, 113832, Pitch_bend_c, 7, 8192
12, 115486, Note_on_c, 7, 64, 0
12, 116142, Pitch_bend_c, 7, 3840
12, 116183, Note_on_c, 7, 70, 127
12, 116197, Pitch_bend_c, 7, 4224
12, 116204, Pitch_bend_c, 7, 4480
12, 116207, Pitch_bend_c, 7, 4864
12, 116213, Pitch_bend_c, 7, 5120
12, 116216, Pitch_bend_c, 7, 5504
12, 116221, Pitch_bend_c, 7, 6016
12, 116225, Pitch_bend_c, 7, 6528
12, 116228, Pitch_bend_c, 7, 7040
12, 116233, Pitch_bend_c, 7, 7680
12, 116237, Pitch_bend_c, 7, 8064
12, 116240, Pitch_bend_c, 7, 8192
12, 116604, Pitch_bend_c, 7, 8064
12, 116607, Pitch_bend_c, 7, 7808
12, 116611, Pitch_bend_c, 7, 7552
12, 116616, Pitch_bend_c, 7, 7168
12, 116619, Pitch_bend_c, 7, 6784
12, 116623, Pitch_bend_c, 7, 6528
12, 116628, Pitch_bend_c, 7, 6272
12, 116635, Pitch_bend_c, 7, 6016
12, 116643, Pitch_bend_c, 7, 5632
12, 116668, Pitch_bend_c, 7, 6016
12, 116676, Pitch_bend_c, 7, 6400
12, 116680, Pitch_bend_c, 7, 6656
12, 116683, Pitch_bend_c, 7, 7040
12, 116688, Pitch_bend_c, 7, 7296
12, 116692, Pitch_bend_c, 7, 7808
12, 116695, Pitch_bend_c, 7, 8064
12, 116701, Pitch_bend_c, 7, 8192
12, 117083, Note_on_c, 7, 70, 0
12, 117118, Note_on_c, 7, 64, 125
12, 117564, Pitch_bend_c, 7, 7808
12, 117567, Pitch_bend_c, 7, 7552
12, 117573, Pitch_bend_c, 7, 7168
12, 117576, Pitch_bend_c, 7, 6912
12, 117585, Pitch_bend_c, 7, 6528
12, 117600, Pitch_bend_c, 7, 6272
12, 117616, Pitch_bend_c, 7, 6528
12, 117625, Pitch_bend_c, 7, 6784
12, 117630, Pitch_bend_c, 7, 7168
12, 117635, Pitch_bend_c, 7, 7552
12, 117638, Pitch_bend_c, 7, 7808
12, 117644, Pitch_bend_c, 7, 8064
12, 117647, Pitch_bend_c, 7, 8192
12, 118512, Note_on_c, 7, 64, 0
12, 118567, Pitch_bend_c, 7, 4608
12, 118571, Note_on_c, 7, 66, 127
12, 118571, Pitch_bend_c, 7, 4352
12, 118580, Pitch_bend_c, 7, 3840
12, 118595, Pitch_bend_c, 7, 4352
12, 118599, Pitch_bend_c, 7, 4608
12, 118602, Pitch_bend_c, 7, 4992
12, 118607, Pitch_bend_c, 7, 5376
12, 118611, Pitch_bend_c, 7, 5632
12, 118616, Pitch_bend_c, 7, 6272
12, 118619, Pitch_bend_c, 7, 6528
12, 118623, Pitch_bend_c, 7, 6912
12, 118626, Pitch_bend_c, 7, 7296
12, 118631, Pitch_bend_c, 7, 7680
12, 118640, Pitch_bend_c, 7, 8192
12, 120701, Note_on_c, 7, 66, 0
12, 120978, Pitch_bend_c, 7, 4480
12, 120997, Note_on_c, 7, 65, 119
12, 121011, Pitch_bend_c, 7, 4864
12, 121019, Pitch_bend_c, 7, 5120
12, 121026, Pitch_bend_c, 7, 5376
12, 121033, Pitch_bend_c, 7, 5888
12, 121037, Pitch_bend_c, 7, 6144
12, 121045, Pitch_bend_c, 7, 6400
12, 121052, Pitch_bend_c, 7, 6784
12, 121057, Pitch_bend_c, 7, 7040
12, 121064, Pitch_bend_c, 7, 7552
12, 121073, Pitch_bend_c, 7, 7936
12, 121080, Pitch_bend_c, 7, 8192
12, 121395, Pitch_bend_c, 7, 8064
12, 121403, Pitch_bend_c, 7, 7808
12, 121412, Pitch_bend_c, 7, 7296
12, 121421, Pitch_bend_c, 7, 6784
12, 121428, Pitch_bend_c, 7, 6528
12, 121488, Pitch_bend_c, 7, 6784
12, 121497, Pitch_bend_c, 7, 7296
12, 121500, Pitch_bend_c, 7, 7680
12, 121504, Pitch_bend_c, 7, 7936
12, 121509, Pitch_bend_c, 7, 8192
12, 123360, Note_on_c, 7, 65, 0
12, 123443, Note_on_c, 7, 66, 127
12, 125109, Note_on_c, 7, 66, 0
12, 127231, Pitch_bend_c, 7, 3840
12, 127234, Note_on_c, 7, 61, 111
12, 127267, Pitch_bend_c, 7, 4352
12, 127271, Pitch_bend_c, 7, 4736
12, 127276, Pitch_bend_c, 7, 5120
12, 127279, Pitch_bend_c, 7, 5632
12, 127283, Pitch_bend_c, 7, 6272
12, 127288, Pitch_bend_c, 7, 6784
12, 127291, Pitch_bend_c, 7, 7552
12, 127295, Pitch_bend_c, 7, 8064
12, 127300, Pitch_bend_c, 7, 8192
12, 129122, Note_on_c, 7, 61, 0
12, 131520, Note_on_c, 7, 68, 127
12, 131723, Note_on_c, 7, 68, 0
12, 131723, End_track
13, 0, Start_track
13, 0, MIDI_port, 0
13, 0, Title_t, "MIKE BRECKER"
13, 0, Program_c, 8, 66
13, 0, Control_c, 8, 7, 117
13, 0, Control_c, 8, 10, 54
13, 106080, Note_on_c, 8, 69, 123
13, 109425, Pitch_bend_c, 8, 7936
13, 109429, Pitch_bend_c, 8, 7552
13, 109434, Pitch_bend_c, 8, 6912
13, 109438, Pitch_bend_c, 8, 6400
13, 109441, Pitch_bend_c, 8, 5632
13, 109447, Pitch_bend_c, 8, 4864
13, 109450, Pitch_bend_c, 8, 4224
13, 109454, Pitch_bend_c, 8, 3328
13, 109459, Pitch_bend_c, 8, 2944
13, 109463, Pitch_bend_c, 8, 2560
13, 109466, Note_on_c, 8, 65, 127
13, 109479, Pitch_bend_c, 8, 3200
13, 109484, Pitch_bend_c, 8, 3840
13, 109488, Pitch_bend_c, 8, 4480
13, 109491, Pitch_bend_c, 8, 5248
13, 109495, Pitch_bend_c, 8, 6144
13, 109500, Pitch_bend_c, 8, 6784
13, 109504, Pitch_bend_c, 8, 7552
13, 109508, Pitch_bend_c, 8, 8064
13, 109513, Pitch_bend_c, 8, 8192
13, 109664, Note_on_c, 8, 69, 0
13, 109898, Pitch_bend_c, 8, 7936
13, 109904, Pitch_bend_c, 8, 7552
13, 109907, Pitch_bend_c, 8, 6912
13, 109911, Pitch_bend_c, 8, 6400
13, 109916, Pitch_bend_c, 8, 6016
13, 109920, Pitch_bend_c, 8, 5376
13, 109929, Pitch_bend_c, 8, 4992
13, 109945, Pitch_bend_c, 8, 5504
13, 109952, Pitch_bend_c, 8, 6144
13, 109957, Pitch_bend_c, 8, 6528
13, 109961, Pitch_bend_c, 8, 6912
13, 109965, Pitch_bend_c, 8, 7552
13, 109970, Pitch_bend_c, 8, 7936
13, 109973, Pitch_bend_c, 8, 8192
13, 110380, Note_on_c, 8, 65, 0
13, 110386, Note_on_c, 8, 64, 123
13, 110805, Pitch_bend_c, 8, 7936
13, 110809, Pitch_bend_c, 8, 7552
13, 110814, Pitch_bend_c, 8, 7040
13, 110818, Pitch_bend_c, 8, 6656
13, 110821, Pitch_bend_c, 8, 6400
13, 110825, Pitch_bend_c, 8, 6144
13, 110830, Pitch_bend_c, 8, 5888
13, 110837, Pitch_bend_c, 8, 5504
13, 110859, Pitch_bend_c, 8, 5888
13, 110868, Pitch_bend_c, 8, 6272
13, 110875, Pitch_bend_c, 8, 6656
13, 110884, Pitch_bend_c, 8, 7168
13, 110887, Pitch_bend_c, 8, 7552
13, 110893, Pitch_bend_c, 8, 7808
13, 110900, Pitch_bend_c, 8, 8192
13, 111748, Note_on_c, 8, 64, 0
13, 112243, Pitch_bend_c, 8, 8064
13, 112246, Pitch_bend_c, 8, 7680
13, 112250, Pitch_bend_c, 8, 7296
13, 112255, Pitch_bend_c, 8, 6912
13, 112259, Pitch_bend_c, 8, 6528
13, 112262, Pitch_bend_c, 8, 6272
13, 112268, Pitch_bend_c, 8, 5888
13, 112271, Pitch_bend_c, 8, 5504
13, 112275, Pitch_bend_c, 8, 5120
13, 112279, Pitch_bend_c, 8, 4864
13, 112287, Pitch_bend_c, 8, 4480
13, 112296, Pitch_bend_c, 8, 4224
13, 112321, Note_on_c, 8, 66, 127
13, 112334, Pitch_bend_c, 8, 4480
13, 112337, Pitch_bend_c, 8, 4864
13, 112341, Pitch_bend_c, 8, 5120
13, 112346, Pitch_bend_c, 8, 5504
13, 112350, Pitch_bend_c, 8, 5888
13, 112354, Pitch_bend_c, 8, 6272
13, 112359, Pitch_bend_c, 8, 6528
13, 112362, Pitch_bend_c, 8, 6784
13, 112366, Pitch_bend_c, 8, 7040
13, 112375, Pitch_bend_c, 8, 7552
13, 112384, Pitch_bend_c, 8, 7936
13, 112391, Pitch_bend_c, 8, 8192
13, 112803, Pitch_bend_c, 8, 7808
13, 112807, Pitch_bend_c, 8, 7552
13, 112811, Pitch_bend_c, 8, 7168
13, 112816, Pitch_bend_c, 8, 6912
13, 112825, Pitch_bend_c, 8, 6528
13, 112832, Pitch_bend_c, 8, 6272
13, 112835, Pitch_bend_c, 8, 6016
13, 112841, Pitch_bend_c, 8, 5632
13, 112844, Pitch_bend_c, 8, 5248
13, 112848, Pitch_bend_c, 8, 4992
13, 112853, Pitch_bend_c, 8, 4736
13, 112857, Pitch_bend_c, 8, 4352
13, 112862, Pitch_bend_c, 8, 3968
13, 112885, Pitch_bend_c, 8, 4480
13, 112891, Pitch_bend_c, 8, 4864
13, 112894, Pitch_bend_c, 8, 5120
13, 112898, Pitch_bend_c, 8, 5632
13, 112903, Pitch_bend_c, 8, 6144
13, 112907, Pitch_bend_c, 8, 6528
13, 112910, Pitch_bend_c, 8, 6912
13, 112916, Pitch_bend_c, 8, 7296
13, 112919, Pitch_bend_c, 8, 7680
13, 112928, Pitch_bend_c, 8, 8192
13, 113701, Note_on_c, 8, 66, 0
13, 113739, Pitch_bend_c, 8, 8064
13, 113742, Pitch_bend_c, 8, 7680
13, 113746, Pitch_bend_c, 8, 7040
13, 113751, Pitch_bend_c, 8, 6656
13, 113755, Pitch_bend_c, 8, 6272
13, 113758, Pitch_bend_c, 8, 5888
13, 113764, Pitch_bend_c, 8, 5504
13, 113771, Note_on_c, 8, 69, 99
13, 113771, Pitch_bend_c, 8, 5120
13, 113789, Pitch_bend_c, 8, 5632
13, 113792, Pitch_bend_c, 8, 6144
13, 113796, Pitch_bend_c, 8, 6656
13, 113801, Pitch_bend_c, 8, 7296
13, 113805, Pitch_bend_c, 8, 8064
13, 113808, Pitch_bend_c, 8, 8192
13, 115435, Note_on_c, 8, 69, 0
13, 116069, Pitch_bend_c, 8, 7936
13, 116073, Pitch_bend_c, 8, 7680
13, 116078, Pitch_bend_c, 8, 7296
13, 116081, Pitch_bend_c, 8, 6912
13, 116085, Pitch_bend_c, 8, 6656
13, 116090, Pitch_bend_c, 8, 6400
13, 116097, Pitch_bend_c, 8, 6144
13, 116102, Pitch_bend_c, 8, 5632
13, 116109, Pitch_bend_c, 8, 5376
13, 116121, Pitch_bend_c, 8, 5120
13, 116158, Pitch_bend_c, 8, 5376
13, 116165, Note_on_c, 8, 70, 127
13, 116168, Pitch_bend_c, 8, 6016
13, 116177, Pitch_bend_c, 8, 6400
13, 116185, Pitch_bend_c, 8, 6784
13, 116192, Pitch_bend_c, 8, 7040
13, 116213, Pitch_bend_c, 8, 7296
13, 116229, Pitch_bend_c, 8, 7680
13, 116241, Pitch_bend_c, 8, 7936
13, 116256, Pitch_bend_c, 8, 8192
13, 117061, Note_on_c, 8, 70, 0
13, 117146, Note_on_c, 8, 69, 127
13, 117585, Pitch_bend_c, 8, 7936
13, 117618, Pitch_bend_c, 8, 7680
13, 117684, Pitch_bend_c, 8, 7296
13, 117699, Pitch_bend_c, 8, 7040
13, 117711, Pitch_bend_c, 8, 6784
13, 117720, Pitch_bend_c, 8, 6528
13, 117727, Pitch_bend_c, 8, 6144
13, 117767, Pitch_bend_c, 8, 6400
13, 117775, Pitch_bend_c, 8, 6656
13, 117787, Pitch_bend_c, 8, 6912
13, 117800, Pitch_bend_c, 8, 7296
13, 117808, Pitch_bend_c, 8, 7680
13, 117815, Pitch_bend_c, 8, 7936
13, 117824, Pitch_bend_c, 8, 8192
13, 118947, Note_on_c, 8, 69, 0
13, 118995, Pitch_bend_c, 8, 7936
13, 119000, Pitch_bend_c, 8, 7680
13, 119003, Pitch_bend_c, 8, 7168
13, 119007, Pitch_bend_c, 8, 6784
13, 119012, Pitch_bend_c, 8, 6528
13, 119015, Note_on_c, 8, 70, 97
13, 119015, Pitch_bend_c, 8, 6272
13, 119019, Pitch_bend_c, 8, 5888
13, 119024, Pitch_bend_c, 8, 5504
13, 119027, Pitch_bend_c, 8, 5248
13, 119031, Pitch_bend_c, 8, 4864
13, 119036, Pitch_bend_c, 8, 4608
13, 119040, Pitch_bend_c, 8, 4224
13, 119043, Pitch_bend_c, 8, 3840
13, 119048, Pitch_bend_c, 8, 3456
13, 119055, Pitch_bend_c, 8, 3200
13, 119067, Pitch_bend_c, 8, 3584
13, 119072, Pitch_bend_c, 8, 3840
13, 119076, Pitch_bend_c, 8, 4352
13, 119079, Pitch_bend_c, 8, 4864
13, 119083, Pitch_bend_c, 8, 5376
13, 119088, Pitch_bend_c, 8, 6144
13, 119092, Pitch_bend_c, 8, 6656
13, 119097, Pitch_bend_c, 8, 7168
13, 119100, Pitch_bend_c, 8, 7808
13, 119104, Pitch_bend_c, 8, 8192
13, 120036, Note_on_c, 8, 70, 0
13, 120901, Pitch_bend_c, 8, 8064
13, 120904, Pitch_bend_c, 8, 7808
13, 120909, Pitch_bend_c, 8, 7552
13, 120913, Pitch_bend_c, 8, 7040
13, 120916, Pitch_bend_c, 8, 6656
13, 120920, Pitch_bend_c, 8, 6400
13, 120925, Pitch_bend_c, 8, 6144
13, 120928, Pitch_bend_c, 8, 5632
13, 120933, Pitch_bend_c, 8, 5248
13, 120937, Pitch_bend_c, 8, 4992
13, 120945, Pitch_bend_c, 8, 4608
13, 120952, Pitch_bend_c, 8, 4352
13, 120975, Pitch_bend_c, 8, 4736
13, 120980, Note_on_c, 8, 68, 127
13, 121023, Pitch_bend_c, 8, 4992
13, 121035, Pitch_bend_c, 8, 5248
13, 121044, Pitch_bend_c, 8, 5632
13, 121051, Pitch_bend_c, 8, 6144
13, 121063, Pitch_bend_c, 8, 6400
13, 121080, Pitch_bend_c, 8, 6656
13, 121087, Pitch_bend_c, 8, 6912
13, 121096, Pitch_bend_c, 8, 7296
13, 121108, Pitch_bend_c, 8, 7680
13, 121129, Pitch_bend_c, 8, 7936
13, 121144, Pitch_bend_c, 8, 8192
13, 121362, Pitch_bend_c, 8, 7936
13, 121378, Pitch_bend_c, 8, 7680
13, 121390, Pitch_bend_c, 8, 7296
13, 121414, Pitch_bend_c, 8, 7040
13, 121456, Pitch_bend_c, 8, 6784
13, 121504, Pitch_bend_c, 8, 7040
13, 121537, Pitch_bend_c, 8, 7296
13, 121558, Pitch_bend_c, 8, 7680
13, 121613, Pitch_bend_c, 8, 7936
13, 121641, Pitch_bend_c, 8, 8192
13, 123240, Note_on_c, 8, 68, 0
13, 123288, Pitch_bend_c, 8, 7936
13, 123295, Pitch_bend_c, 8, 7552
13, 123300, Pitch_bend_c, 8, 7168
13, 123307, Pitch_bend_c, 8, 6784
13, 123312, Pitch_bend_c, 8, 6528
13, 123319, Pitch_bend_c, 8, 6144
13, 123325, Pitch_bend_c, 8, 5888
13, 123331, Pitch_bend_c, 8, 5376
13, 123340, Pitch_bend_c, 8, 4992
13, 123349, Pitch_bend_c, 8, 4608
13, 123356, Pitch_bend_c, 8, 4224
13, 123368, Pitch_bend_c, 8, 3840
13, 123380, Note_on_c, 8, 67, 85
13, 123409, Pitch_bend_c, 8, 4224
13, 123416, Pitch_bend_c, 8, 4608
13, 123425, Pitch_bend_c, 8, 4992
13, 123432, Pitch_bend_c, 8, 5248
13, 123440, Pitch_bend_c, 8, 5504
13, 123449, Pitch_bend_c, 8, 5888
13, 123461, Pitch_bend_c, 8, 6272
13, 123468, Pitch_bend_c, 8, 6528
13, 123477, Pitch_bend_c, 8, 6784
13, 123489, Pitch_bend_c, 8, 7168
13, 123505, Pitch_bend_c, 8, 7552
13, 123522, Pitch_bend_c, 8, 7808
13, 123534, Pitch_bend_c, 8, 8192
13, 125197, Note_on_c, 8, 67, 0
13, 127935, Note_on_c, 8, 69, 127
13, 128521, Pitch_bend_c, 8, 7936
13, 128542, Pitch_bend_c, 8, 7680
13, 128566, Pitch_bend_c, 8, 7296
13, 128587, Pitch_bend_c, 8, 7040
13, 128615, Pitch_bend_c, 8, 6784
13, 128636, Pitch_bend_c, 8, 6528
13, 128653, Pitch_bend_c, 8, 6272
13, 128710, Pitch_bend_c, 8, 6016
13, 128753, Pitch_bend_c, 8, 5632
13, 128786, Pitch_bend_c, 8, 5376
13, 128805, Pitch_bend_c, 8, 5120
13, 128831, Pitch_bend_c, 8, 4864
13, 128854, Pitch_bend_c, 8, 4608
13, 128874, Pitch_bend_c, 8, 4352
13, 128899, Pitch_bend_c, 8, 3968
13, 128923, Pitch_bend_c, 8, 3584
13, 128935, Pitch_bend_c, 8, 3328
13, 128950, Pitch_bend_c, 8, 3072
13, 128959, Pitch_bend_c, 8, 2816
13, 128971, Pitch_bend_c, 8, 2560
13, 128983, Pitch_bend_c, 8, 2048
13, 128995, Pitch_bend_c, 8, 1792
13, 129008, Pitch_bend_c, 8, 1536
13, 129020, Pitch_bend_c, 8, 1280
13, 129028, Pitch_bend_c, 8, 1024
13, 129035, Pitch_bend_c, 8, 640
13, 129044, Pitch_bend_c, 8, 384
13, 129056, Pitch_bend_c, 8, 0
13, 129136, Note_on_c, 8, 69, 0
13, 129193, Pitch_bend_c, 8, 1536
13, 129196, Pitch_bend_c, 8, 4480
13, 129201, Pitch_bend_c, 8, 7936
13, 129205, Pitch_bend_c, 8, 8192
13, 131520, Note_on_c, 8, 60, 127
13, 131570, Note_on_c, 8, 60, 0
13, 131570, End_track
14, 0, Start_track
14, 0, MIDI_port, 0
14, 0, Title_t, "LOU MARINI"
14, 0, Program_c, 10, 65
14, 0, Control_c, 10, 7, 117
14, 0, Control_c, 10, 10, 64
14, 106080, Note_on_c, 10, 72, 127
14, 109401, Pitch_bend_c, 10, 7936
14, 109406, Pitch_bend_c, 10, 7552
14, 109410, Pitch_bend_c, 10, 7040
14, 109415, Pitch_bend_c, 10, 6656
14, 109419, Pitch_bend_c, 10, 6272
14, 109422, Pitch_bend_c, 10, 5888
14, 109429, Pitch_bend_c, 10, 5248
14, 109433, Pitch_bend_c, 10, 4992
14, 109437, Pitch_bend_c, 10, 4736
14, 109440, Pitch_bend_c, 10, 4480
14, 109447, Pitch_bend_c, 10, 3968
14, 109454, Pitch_bend_c, 10, 3712
14, 109462, Pitch_bend_c, 10, 3328
14, 109474, Note_on_c, 10, 70, 127
14, 109493, Note_on_c, 10, 72, 0
14, 109499, Pitch_bend_c, 10, 3584
14, 109508, Pitch_bend_c, 10, 3968
14, 109513, Pitch_bend_c, 10, 4480
14, 109519, Pitch_bend_c, 10, 4864
14, 109522, Pitch_bend_c, 10, 5120
14, 109526, Pitch_bend_c, 10, 5504
14, 109531, Pitch_bend_c, 10, 6016
14, 109535, Pitch_bend_c, 10, 6400
14, 109538, Pitch_bend_c, 10, 6784
14, 109544, Pitch_bend_c, 10, 7168
14, 109547, Pitch_bend_c, 10, 7680
14, 109551, Pitch_bend_c, 10, 7936
14, 109556, Pitch_bend_c, 10, 8192
14, 109917, Pitch_bend_c, 10, 7936
14, 109920, Pitch_bend_c, 10, 7680
14, 109927, Pitch_bend_c, 10, 7040
14, 109935, Pitch_bend_c, 10, 6784
14, 109944, Pitch_bend_c, 10, 6400
14, 109977, Pitch_bend_c, 10, 6656
14, 109985, Pitch_bend_c, 10, 7168
14, 109990, Pitch_bend_c, 10, 7552
14, 109994, Pitch_bend_c, 10, 7936
14, 109999, Pitch_bend_c, 10, 8192
14, 110359, Note_on_c, 10, 70, 0
14, 110409, Pitch_bend_c, 10, 7808
14, 110413, Pitch_bend_c, 10, 7168
14, 110418, Note_on_c, 10, 74, 93
14, 110418, Pitch_bend_c, 10, 6656
14, 110422, Pitch_bend_c, 10, 6144
14, 110426, Pitch_bend_c, 10, 5376
14, 110431, Pitch_bend_c, 10, 4864
14, 110434, Pitch_bend_c, 10, 4352
14, 110438, Pitch_bend_c, 10, 3712
14, 110443, Pitch_bend_c, 10, 3328
14, 110447, Pitch_bend_c, 10, 2944
14, 110456, Pitch_bend_c, 10, 2688
14, 110463, Pitch_bend_c, 10, 2944
14, 110468, Pitch_bend_c, 10, 3200
14, 110472, Pitch_bend_c, 10, 3712
14, 110476, Pitch_bend_c, 10, 4352
14, 110481, Pitch_bend_c, 10, 4864
14, 110484, Pitch_bend_c, 10, 5504
14, 110488, Pitch_bend_c, 10, 6272
14, 110492, Pitch_bend_c, 10, 7040
14, 110497, Pitch_bend_c, 10, 7808
14, 110501, Pitch_bend_c, 10, 8192
14, 111832, Note_on_c, 10, 74, 0
14, 112247, Pitch_bend_c, 10, 7680
14, 112251, Pitch_bend_c, 10, 7296
14, 112256, Pitch_bend_c, 10, 6912
14, 112260, Pitch_bend_c, 10, 6528
14, 112265, Pitch_bend_c, 10, 6272
14, 112272, Pitch_bend_c, 10, 5632
14, 112276, Pitch_bend_c, 10, 5376
14, 112285, Pitch_bend_c, 10, 4992
14, 112294, Pitch_bend_c, 10, 4480
14, 112303, Pitch_bend_c, 10, 4224
14, 112306, Note_on_c, 10, 70, 127
14, 112310, Pitch_bend_c, 10, 3840
14, 112344, Pitch_bend_c, 10, 4224
14, 112351, Pitch_bend_c, 10, 4608
14, 112356, Pitch_bend_c, 10, 4864
14, 112365, Pitch_bend_c, 10, 5376
14, 112369, Pitch_bend_c, 10, 5632
14, 112372, Pitch_bend_c, 10, 6144
14, 112381, Pitch_bend_c, 10, 6656
14, 112385, Pitch_bend_c, 10, 6912
14, 112390, Pitch_bend_c, 10, 7296
14, 112397, Pitch_bend_c, 10, 7936
14, 112406, Pitch_bend_c, 10, 8192
14, 112763, Pitch_bend_c, 10, 7936
14, 112772, Pitch_bend_c, 10, 7680
14, 112776, Pitch_bend_c, 10, 7296
14, 112779, Pitch_bend_c, 10, 7040
14, 112788, Pitch_bend_c, 10, 6656
14, 112801, Pitch_bend_c, 10, 6400
14, 112815, Pitch_bend_c, 10, 6656
14, 112824, Pitch_bend_c, 10, 6912
14, 112833, Pitch_bend_c, 10, 7296
14, 112840, Pitch_bend_c, 10, 7808
14, 112849, Pitch_bend_c, 10, 8192
14, 113559, Note_on_c, 10, 70, 0
14, 113700, Pitch_bend_c, 10, 8064
14, 113709, Pitch_bend_c, 10, 7680
14, 113713, Pitch_bend_c, 10, 7296
14, 113722, Pitch_bend_c, 10, 6912
14, 113729, Pitch_bend_c, 10, 6656
14, 113738, Pitch_bend_c, 10, 6400
14, 113750, Note_on_c, 10, 74, 103
14, 113756, Pitch_bend_c, 10, 6144
14, 113770, Pitch_bend_c, 10, 5888
14, 113790, Pitch_bend_c, 10, 6144
14, 113799, Pitch_bend_c, 10, 6400
14, 113806, Pitch_bend_c, 10, 6656
14, 113811, Pitch_bend_c, 10, 6912
14, 113820, Pitch_bend_c, 10, 7296
14, 113827, Pitch_bend_c, 10, 7808
14, 113836, Pitch_bend_c, 10, 8064
14, 113849, Pitch_bend_c, 10, 8192
14, 114152, Pitch_bend_c, 10, 8064
14, 114177, Pitch_bend_c, 10, 7808
14, 114247, Pitch_bend_c, 10, 7552
14, 114268, Pitch_bend_c, 10, 7168
14, 114381, Pitch_bend_c, 10, 6912
14, 114397, Pitch_bend_c, 10, 6656
14, 114438, Pitch_bend_c, 10, 6912
14, 114456, Pitch_bend_c, 10, 7168
14, 114500, Pitch_bend_c, 10, 7552
14, 114518, Pitch_bend_c, 10, 7808
14, 114534, Pitch_bend_c, 10, 8064
14, 114616, Pitch_bend_c, 10, 8192
14, 114786, Pitch_bend_c, 10, 8064
14, 114823, Pitch_bend_c, 10, 7808
14, 114836, Pitch_bend_c, 10, 7552
14, 114843, Pitch_bend_c, 10, 7168
14, 114855, Pitch_bend_c, 10, 6912
14, 115014, Pitch_bend_c, 10, 7168
14, 115105, Pitch_bend_c, 10, 7552
14, 115121, Pitch_bend_c, 10, 7808
14, 115239, Pitch_bend_c, 10, 8064
14, 115293, Pitch_bend_c, 10, 8192
14, 115412, Pitch_bend_c, 10, 8064
14, 115555, Pitch_bend_c, 10, 8192
14, 115559, Note_on_c, 10, 74, 0
14, 116164, Note_on_c, 10, 72, 127
14, 117038, Note_on_c, 10, 72, 0
14, 117062, Pitch_bend_c, 10, 8064
14, 117069, Pitch_bend_c, 10, 7808
14, 117078, Pitch_bend_c, 10, 7552
14, 117084, Pitch_bend_c, 10, 7168
14, 117093, Note_on_c, 10, 74, 115
14, 117098, Pitch_bend_c, 10, 6912
14, 117112, Pitch_bend_c, 10, 7168
14, 117117, Pitch_bend_c, 10, 7552
14, 117126, Pitch_bend_c, 10, 7936
14, 117135, Pitch_bend_c, 10, 8192
14, 117610, Pitch_bend_c, 10, 8064
14, 117688, Pitch_bend_c, 10, 8192
14, 118498, Note_on_c, 10, 73, 107
14, 118510, Note_on_c, 10, 74, 0
14, 119289, Pitch_bend_c, 10, 8064
14, 119341, Pitch_bend_c, 10, 8192
14, 119474, Note_on_c, 10, 73, 0
14, 120897, Pitch_bend_c, 10, 7680
14, 120901, Pitch_bend_c, 10, 6912
14, 120904, Pitch_bend_c, 10, 6272
14, 120909, Pitch_bend_c, 10, 5632
14, 120913, Pitch_bend_c, 10, 4992
14, 120916, Pitch_bend_c, 10, 4480
14, 120920, Pitch_bend_c, 10, 3840
14, 120925, Pitch_bend_c, 10, 3328
14, 120928, Pitch_bend_c, 10, 2944
14, 120933, Pitch_bend_c, 10, 2688
14, 120940, Pitch_bend_c, 10, 2176
14, 120961, Pitch_bend_c, 10, 2688
14, 120968, Pitch_bend_c, 10, 3072
14, 120971, Note_on_c, 10, 74, 119
14, 120975, Pitch_bend_c, 10, 3456
14, 120980, Pitch_bend_c, 10, 3840
14, 120987, Pitch_bend_c, 10, 4352
14, 120996, Pitch_bend_c, 10, 4736
14, 121011, Pitch_bend_c, 10, 4992
14, 121023, Pitch_bend_c, 10, 5248
14, 121035, Pitch_bend_c, 10, 5504
14, 121044, Pitch_bend_c, 10, 6016
14, 121051, Pitch_bend_c, 10, 6272
14, 121060, Pitch_bend_c, 10, 6528
14, 121068, Pitch_bend_c, 10, 6784
14, 121075, Pitch_bend_c, 10, 7040
14, 121084, Pitch_bend_c, 10, 7296
14, 121093, Pitch_bend_c, 10, 7680
14, 121105, Pitch_bend_c, 10, 7936
14, 121120, Pitch_bend_c, 10, 8192
14, 123203, Note_on_c, 10, 74, 0
14, 123292, Pitch_bend_c, 10, 7936
14, 123300, Pitch_bend_c, 10, 7552
14, 123307, Pitch_bend_c, 10, 6912
14, 123312, Pitch_bend_c, 10, 6656
14, 123316, Pitch_bend_c, 10, 6400
14, 123325, Pitch_bend_c, 10, 5888
14, 123328, Pitch_bend_c, 10, 5504
14, 123331, Pitch_bend_c, 10, 5248
14, 123340, Pitch_bend_c, 10, 4864
14, 123361, Pitch_bend_c, 10, 4608
14, 123375, Note_on_c, 10, 74, 103
14, 123378, Pitch_bend_c, 10, 4352
14, 123387, Pitch_bend_c, 10, 3968
14, 123394, Pitch_bend_c, 10, 3584
14, 123427, Pitch_bend_c, 10, 3840
14, 123435, Pitch_bend_c, 10, 4224
14, 123442, Pitch_bend_c, 10, 4608
14, 123447, Pitch_bend_c, 10, 4864
14, 123454, Pitch_bend_c, 10, 5248
14, 123463, Pitch_bend_c, 10, 5632
14, 123466, Pitch_bend_c, 10, 6016
14, 123472, Pitch_bend_c, 10, 6272
14, 123479, Pitch_bend_c, 10, 6528
14, 123484, Pitch_bend_c, 10, 6784
14, 123491, Pitch_bend_c, 10, 7168
14, 123499, Pitch_bend_c, 10, 7552
14, 123508, Pitch_bend_c, 10, 7808
14, 123518, Pitch_bend_c, 10, 8064
14, 123532, Pitch_bend_c, 10, 8192
14, 125153, Note_on_c, 10, 74, 0
14, 127940, Note_on_c, 10, 72, 123
14, 128577, Pitch_bend_c, 10, 7936
14, 128625, Pitch_bend_c, 10, 7680
14, 128698, Pitch_bend_c, 10, 7296
14, 128717, Pitch_bend_c, 10, 7040
14, 128738, Pitch_bend_c, 10, 6784
14, 128781, Pitch_bend_c, 10, 6528
14, 128805, Pitch_bend_c, 10, 6272
14, 128826, Pitch_bend_c, 10, 6016
14, 128838, Pitch_bend_c, 10, 5632
14, 128859, Pitch_bend_c, 10, 5376
14, 128878, Pitch_bend_c, 10, 5120
14, 128906, Pitch_bend_c, 10, 4864
14, 128935, Pitch_bend_c, 10, 4608
14, 128956, Pitch_bend_c, 10, 4352
14, 128968, Pitch_bend_c, 10, 3968
14, 128980, Pitch_bend_c, 10, 3584
14, 128990, Pitch_bend_c, 10, 3328
14, 129002, Pitch_bend_c, 10, 2944
14, 129015, Pitch_bend_c, 10, 2688
14, 129028, Pitch_bend_c, 10, 2304
14, 129039, Pitch_bend_c, 10, 2048
14, 129051, Pitch_bend_c, 10, 1792
14, 129059, Pitch_bend_c, 10, 1536
14, 129068, Pitch_bend_c, 10, 1280
14, 129080, Pitch_bend_c, 10, 1024
14, 129087, Pitch_bend_c, 10, 640
14, 129096, Pitch_bend_c, 10, 384
14, 129104, Pitch_bend_c, 10, 128
14, 129117, Pitch_bend_c, 10, 0
14, 129141, Note_on_c, 10, 72, 0
14, 129238, Pitch_bend_c, 10, 128
14, 129241, Pitch_bend_c, 10, 384
14, 129245, Pitch_bend_c, 10, 896
14, 129250, Pitch_bend_c, 10, 1152
14, 129253, Pitch_bend_c, 10, 1536
14, 129257, Pitch_bend_c, 10, 1792
14, 129260, Pitch_bend_c, 10, 2176
14, 129265, Pitch_bend_c, 10, 2688
14, 129269, Pitch_bend_c, 10, 3072
14, 129272, Pitch_bend_c, 10, 3584
14, 129278, Pitch_bend_c, 10, 4224
14, 129281, Pitch_bend_c, 10, 4608
14, 129286, Pitch_bend_c, 10, 5248
14, 129290, Pitch_bend_c, 10, 5888
14, 129293, Pitch_bend_c, 10, 6400
14, 129298, Pitch_bend_c, 10, 7040
14, 129302, Pitch_bend_c, 10, 7552
14, 129305, Pitch_bend_c, 10, 8064
14, 129309, Pitch_bend_c, 10, 8192
14, 131520, Note_on_c, 10, 75, 127
14, 131653, Note_on_c, 10, 75, 0
14, 131653, End_track
15, 0, Start_track
15, 0, MIDI_port, 0
15, 0, Title_t, "RONNIE CUBER"
15, 0, Program_c, 11, 67
15, 0, Control_c, 11, 7, 127
15, 0, Control_c, 11, 10, 44
15, 108447, Pitch_bend_c, 11, 6144
15, 108450, Note_on_c, 11, 67, 127
15, 108456, Pitch_bend_c, 11, 5888
15, 108484, Pitch_bend_c, 11, 6272
15, 108488, Pitch_bend_c, 11, 6528
15, 108493, Pitch_bend_c, 11, 6912
15, 108498, Pitch_bend_c, 11, 7680
15, 108500, Pitch_bend_c, 11, 8064
15, 108506, Pitch_bend_c, 11, 8192
15, 108675, Note_on_c, 11, 69, 127
15, 108684, Note_on_c, 11, 67, 0
15, 108859, Note_on_c, 11, 67, 127
15, 108875, Note_on_c, 11, 69, 0
15, 109021, Note_on_c, 11, 69, 127
15, 109038, Note_on_c, 11, 67, 0
15, 109478, Pitch_bend_c, 11, 8064
15, 109498, Pitch_bend_c, 11, 7808
15, 109520, Pitch_bend_c, 11, 7552
15, 109532, Pitch_bend_c, 11, 7168
15, 109544, Pitch_bend_c, 11, 6912
15, 109566, Pitch_bend_c, 11, 6528
15, 109582, Pitch_bend_c, 11, 6272
15, 109619, Pitch_bend_c, 11, 6016
15, 109627, Pitch_bend_c, 11, 5632
15, 109636, Pitch_bend_c, 11, 5376
15, 109644, Pitch_bend_c, 11, 5120
15, 109652, Pitch_bend_c, 11, 4864
15, 109669, Pitch_bend_c, 11, 4608
15, 109686, Pitch_bend_c, 11, 4352
15, 109694, Pitch_bend_c, 11, 3968
15, 109703, Pitch_bend_c, 11, 3584
15, 109711, Pitch_bend_c, 11, 3328
15, 109732, Pitch_bend_c, 11, 3072
15, 109744, Pitch_bend_c, 11, 2688
15, 109752, Pitch_bend_c, 11, 2304
15, 109755, Pitch_bend_c, 11, 2048
15, 109764, Pitch_bend_c, 11, 1664
15, 109773, Pitch_bend_c, 11, 1408
15, 109782, Pitch_bend_c, 11, 1024
15, 109794, Pitch_bend_c, 11, 640
15, 109807, Pitch_bend_c, 11, 384
15, 109819, Pitch_bend_c, 11, 128
15, 109827, Pitch_bend_c, 11, 0
15, 109843, Note_on_c, 11, 69, 0
15, 109935, Pitch_bend_c, 11, 128
15, 109939, Pitch_bend_c, 11, 1024
15, 109943, Pitch_bend_c, 11, 1920
15, 109948, Pitch_bend_c, 11, 2944
15, 109952, Pitch_bend_c, 11, 3712
15, 109955, Pitch_bend_c, 11, 4352
15, 109960, Pitch_bend_c, 11, 4992
15, 109964, Pitch_bend_c, 11, 5376
15, 109968, Pitch_bend_c, 11, 6016
15, 109971, Pitch_bend_c, 11, 6400
15, 109977, Pitch_bend_c, 11, 6784
15, 109980, Pitch_bend_c, 11, 7296
15, 109984, Pitch_bend_c, 11, 7808
15, 109989, Pitch_bend_c, 11, 8064
15, 109993, Pitch_bend_c, 11, 8192
15, 119529, Note_on_c, 11, 48, 113
15, 119906, Note_on_c, 11, 48, 0
15, 120015, Note_on_c, 11, 48, 119
15, 120394, Note_on_c, 11, 48, 0
15, 120503, Note_on_c, 11, 42, 119
15, 120844, Note_on_c, 11, 42, 0
15, 121019, Note_on_c, 11, 48, 117
15, 123105, Note_on_c, 11, 48, 0
15, 123299, Pitch_bend_c, 11, 7936
15, 123311, Pitch_bend_c, 11, 7680
15, 123327, Pitch_bend_c, 11, 7168
15, 123335, Pitch_bend_c, 11, 6784
15, 123342, Pitch_bend_c, 11, 6528
15, 123351, Pitch_bend_c, 11, 6272
15, 123387, Note_on_c, 11, 59, 95
15, 123387, Pitch_bend_c, 11, 6528
15, 123394, Pitch_bend_c, 11, 6784
15, 123398, Pitch_bend_c, 11, 7040
15, 123403, Pitch_bend_c, 11, 7552
15, 123406, Pitch_bend_c, 11, 7808
15, 123415, Pitch_bend_c, 11, 8192
15, 125221, Note_on_c, 11, 59, 0
15, 127172, Pitch_bend_c, 11, 8064
15, 127183, Pitch_bend_c, 11, 7680
15, 127191, Pitch_bend_c, 11, 7296
15, 127202, Pitch_bend_c, 11, 6912
15, 127217, Pitch_bend_c, 11, 6656
15, 127250, Note_on_c, 11, 58, 127
15, 127295, Pitch_bend_c, 11, 6912
15, 127311, Pitch_bend_c, 11, 7296
15, 127323, Pitch_bend_c, 11, 7680
15, 127335, Pitch_bend_c, 11, 7936
15, 127344, Pitch_bend_c, 11, 8192
15, 128403, Pitch_bend_c, 11, 7936
15, 128427, Pitch_bend_c, 11, 7680
15, 128439, Pitch_bend_c, 11, 7168
15, 128451, Pitch_bend_c, 11, 6912
15, 128463, Pitch_bend_c, 11, 6656
15, 128475, Pitch_bend_c, 11, 6400
15, 128494, Pitch_bend_c, 11, 6144
15, 128515, Pitch_bend_c, 11, 5888
15, 128543, Pitch_bend_c, 11, 5504
15, 128567, Pitch_bend_c, 11, 5248
15, 128584, Pitch_bend_c, 11, 4992
15, 128600, Pitch_bend_c, 11, 4736
15, 128608, Pitch_bend_c, 11, 4480
15, 128627, Pitch_bend_c, 11, 4224
15, 128648, Pitch_bend_c, 11, 3840
15, 128669, Pitch_bend_c, 11, 3584
15, 128681, Pitch_bend_c, 11, 3328
15, 128692, Pitch_bend_c, 11, 2944
15, 128700, Pitch_bend_c, 11, 2688
15, 128709, Pitch_bend_c, 11, 2304
15, 128717, Pitch_bend_c, 11, 1920
15, 128728, Pitch_bend_c, 11, 1664
15, 128737, Pitch_bend_c, 11, 1408
15, 128745, Pitch_bend_c, 11, 1152
15, 128752, Pitch_bend_c, 11, 896
15, 128761, Pitch_bend_c, 11, 384
15, 128769, Pitch_bend_c, 11, 0
15, 128785, Note_on_c, 11, 58, 0
15, 128918, Pitch_bend_c, 11, 384
15, 128922, Pitch_bend_c, 11, 640
15, 128927, Pitch_bend_c, 11, 1024
15, 128930, Pitch_bend_c, 11, 1408
15, 128934, Pitch_bend_c, 11, 1664
15, 128937, Pitch_bend_c, 11, 2048
15, 128942, Pitch_bend_c, 11, 2304
15, 128946, Pitch_bend_c, 11, 2816
15, 128951, Pitch_bend_c, 11, 3200
15, 128955, Pitch_bend_c, 11, 3584
15, 128958, Pitch_bend_c, 11, 3968
15, 128961, Pitch_bend_c, 11, 4480
15, 128967, Pitch_bend_c, 11, 4864
15, 128970, Pitch_bend_c, 11, 5120
15, 128974, Pitch_bend_c, 11, 5504
15, 128979, Pitch_bend_c, 11, 6016
15, 128982, Pitch_bend_c, 11, 6272
15, 128987, Pitch_bend_c, 11, 6656
15, 128991, Pitch_bend_c, 11, 6912
15, 128994, Pitch_bend_c, 11, 7296
15, 128998, Pitch_bend_c, 11, 7680
15, 129003, Pitch_bend_c, 11, 7936
15, 129006, Pitch_bend_c, 11, 8192
15, 131520, Note_on_c, 11, 44, 127
15, 131626, Note_on_c, 11, 44, 0
15, 131626, End_track
16, 0, Start_track
16, 0, MIDI_port, 0
16, 0, Title_t, "TOM MALONE"
16, 0, Program_c, 12, 57
16, 0, Control_c, 12, 7, 127
16, 0, Control_c, 12, 10, 84
16, 107513, Note_on_c, 12, 57, 119
16, 107720, Note_on_c, 12, 57, 0
16, 107736, Note_on_c, 12, 58, 127
16, 107804, Note_on_c, 12, 58, 0
16, 107908, Pitch_bend_c, 12, 4992
16, 107977, Note_on_c, 12, 65, 107
16, 107977, Pitch_bend_c, 12, 5248
16, 107986, Pitch_bend_c, 12, 5632
16, 107991, Pitch_bend_c, 12, 6016
16, 107999, Pitch_bend_c, 12, 6528
16, 108002, Pitch_bend_c, 12, 6784
16, 108009, Pitch_bend_c, 12, 7296
16, 108013, Pitch_bend_c, 12, 7680
16, 108018, Pitch_bend_c, 12, 7936
16, 108022, Pitch_bend_c, 12, 8192
16, 108468, Pitch_bend_c, 12, 7936
16, 108497, Pitch_bend_c, 12, 7680
16, 108523, Pitch_bend_c, 12, 7296
16, 108547, Pitch_bend_c, 12, 7040
16, 108568, Pitch_bend_c, 12, 6784
16, 108589, Pitch_bend_c, 12, 6528
16, 108602, Pitch_bend_c, 12, 6272
16, 108622, Pitch_bend_c, 12, 5888
16, 108639, Pitch_bend_c, 12, 5504
16, 108659, Pitch_bend_c, 12, 5248
16, 108684, Pitch_bend_c, 12, 4992
16, 108714, Pitch_bend_c, 12, 4736
16, 108727, Pitch_bend_c, 12, 4480
16, 108743, Pitch_bend_c, 12, 4224
16, 108755, Pitch_bend_c, 12, 3840
16, 108763, Pitch_bend_c, 12, 3584
16, 108772, Pitch_bend_c, 12, 3328
16, 108784, Pitch_bend_c, 12, 2944
16, 108793, Pitch_bend_c, 12, 2560
16, 108805, Pitch_bend_c, 12, 2176
16, 108813, Note_on_c, 12, 65, 0
16, 108818, Pitch_bend_c, 12, 1920
16, 108830, Pitch_bend_c, 12, 1664
16, 108846, Pitch_bend_c, 12, 1280
16, 108855, Pitch_bend_c, 12, 1024
16, 108863, Pitch_bend_c, 12, 640
16, 108871, Pitch_bend_c, 12, 384
16, 108880, Pitch_bend_c, 12, 0
16, 109413, Pitch_bend_c, 12, 3200
16, 109418, Note_on_c, 12, 61, 127
16, 109425, Pitch_bend_c, 12, 2944
16, 109459, Pitch_bend_c, 12, 3200
16, 109466, Pitch_bend_c, 12, 3712
16, 109474, Pitch_bend_c, 12, 3968
16, 109479, Pitch_bend_c, 12, 4608
16, 109484, Pitch_bend_c, 12, 4992
16, 109488, Pitch_bend_c, 12, 5248
16, 109491, Pitch_bend_c, 12, 5632
16, 109497, Pitch_bend_c, 12, 6144
16, 109504, Pitch_bend_c, 12, 6656
16, 109508, Pitch_bend_c, 12, 6912
16, 109513, Pitch_bend_c, 12, 7168
16, 109522, Pitch_bend_c, 12, 7552
16, 109531, Pitch_bend_c, 12, 7808
16, 109543, Pitch_bend_c, 12, 8064
16, 109566, Pitch_bend_c, 12, 8192
16, 109936, Pitch_bend_c, 12, 8064
16, 109943, Pitch_bend_c, 12, 7680
16, 109952, Pitch_bend_c, 12, 7296
16, 109993, Pitch_bend_c, 12, 7808
16, 110006, Pitch_bend_c, 12, 8064
16, 110018, Pitch_bend_c, 12, 8192
16, 110430, Note_on_c, 12, 61, 0
16, 111484, Note_on_c, 12, 62, 127
16, 111484, Pitch_bend_c, 12, 8064
16, 111500, Pitch_bend_c, 12, 7680
16, 111509, Pitch_bend_c, 12, 7168
16, 111516, Pitch_bend_c, 12, 6912
16, 111587, Pitch_bend_c, 12, 7168
16, 111594, Pitch_bend_c, 12, 7680
16, 111600, Pitch_bend_c, 12, 7936
16, 111603, Note_on_c, 12, 63, 127
16, 111603, Pitch_bend_c, 12, 8192
16, 111610, Note_on_c, 12, 62, 0
16, 111730, Note_on_c, 12, 62, 127
16, 111746, Note_on_c, 12, 63, 0
16, 111869, Note_on_c, 12, 62, 0
16, 111869, Note_on_c, 12, 65, 127
16, 111869, Pitch_bend_c, 12, 7808
16, 111876, Pitch_bend_c, 12, 7040
16, 111880, Pitch_bend_c, 12, 6528
16, 111884, Pitch_bend_c, 12, 6272
16, 111893, Pitch_bend_c, 12, 5888
16, 111930, Pitch_bend_c, 12, 6144
16, 111937, Pitch_bend_c, 12, 6400
16, 111946, Pitch_bend_c, 12, 6656
16, 111975, Pitch_bend_c, 12, 6272
16, 111984, Pitch_bend_c, 12, 6016
16, 112005, Note_on_c, 12, 64, 123
16, 112021, Note_on_c, 12, 65, 0
16, 112087, Note_on_c, 12, 64, 0
16, 112137, Note_on_c, 12, 63, 127
16, 112162, Pitch_bend_c, 12, 6272
16, 112171, Pitch_bend_c, 12, 6528
16, 112178, Pitch_bend_c, 12, 6784
16, 112208, Pitch_bend_c, 12, 7040
16, 112242, Pitch_bend_c, 12, 7552
16, 112250, Note_on_c, 12, 63, 0
16, 112250, Note_on_c, 12, 62, 125
16, 112250, Pitch_bend_c, 12, 7808
16, 112260, Pitch_bend_c, 12, 8064
16, 112276, Pitch_bend_c, 12, 8192
16, 112380, Note_on_c, 12, 62, 0
16, 112380, Note_on_c, 12, 65, 127
16, 112392, Pitch_bend_c, 12, 8064
16, 112398, Pitch_bend_c, 12, 7808
16, 112401, Pitch_bend_c, 12, 7296
16, 112405, Pitch_bend_c, 12, 6784
16, 112410, Pitch_bend_c, 12, 6400
16, 112414, Pitch_bend_c, 12, 6144
16, 112423, Pitch_bend_c, 12, 5632
16, 112473, Pitch_bend_c, 12, 5376
16, 112535, Note_on_c, 12, 65, 0
16, 112542, Pitch_bend_c, 12, 7040
16, 112548, Note_on_c, 12, 58, 123
16, 112548, Pitch_bend_c, 12, 7552
16, 112551, Pitch_bend_c, 12, 7936
16, 112555, Pitch_bend_c, 12, 8192
16, 112751, Pitch_bend_c, 12, 7936
16, 112755, Pitch_bend_c, 12, 7680
16, 112758, Pitch_bend_c, 12, 7296
16, 112764, Pitch_bend_c, 12, 7040
16, 112767, Pitch_bend_c, 12, 6784
16, 112810, Pitch_bend_c, 12, 7168
16, 112819, Pitch_bend_c, 12, 7808
16, 112828, Pitch_bend_c, 12, 8192
16, 112844, Pitch_bend_c, 12, 7680
16, 112848, Pitch_bend_c, 12, 6912
16, 112851, Pitch_bend_c, 12, 6144
16, 112857, Pitch_bend_c, 12, 5248
16, 112860, Pitch_bend_c, 12, 4864
16, 112865, Pitch_bend_c, 12, 4480
16, 112890, Pitch_bend_c, 12, 4736
16, 112898, Pitch_bend_c, 12, 5248
16, 112903, Pitch_bend_c, 12, 5632
16, 112906, Pitch_bend_c, 12, 6144
16, 112910, Pitch_bend_c, 12, 6656
16, 112915, Pitch_bend_c, 12, 7040
16, 112919, Pitch_bend_c, 12, 7296
16, 112944, Pitch_bend_c, 12, 7040
16, 112973, Pitch_bend_c, 12, 7296
16, 112981, Pitch_bend_c, 12, 7808
16, 112990, Pitch_bend_c, 12, 8064
16, 113355, Note_on_c, 12, 58, 0
16, 114421, Pitch_bend_c, 12, 7168
16, 114428, Note_on_c, 12, 67, 113
16, 114437, Pitch_bend_c, 12, 6912
16, 114465, Pitch_bend_c, 12, 7296
16, 114469, Pitch_bend_c, 12, 7936
16, 114474, Pitch_bend_c, 12, 8192
16, 114594, Note_on_c, 12, 69, 127
16, 114599, Note_on_c, 12, 67, 0
16, 114724, Pitch_bend_c, 12, 8064
16, 114730, Pitch_bend_c, 12, 7808
16, 114733, Pitch_bend_c, 12, 7552
16, 114739, Pitch_bend_c, 12, 7168
16, 114742, Note_on_c, 12, 69, 0
16, 114742, Pitch_bend_c, 12, 6912
16, 114748, Pitch_bend_c, 12, 6528
16, 114755, Note_on_c, 12, 67, 117
16, 114821, Pitch_bend_c, 12, 6272
16, 114912, Note_on_c, 12, 72, 127
16, 114924, Note_on_c, 12, 67, 0
16, 114937, Pitch_bend_c, 12, 6528
16, 114946, Pitch_bend_c, 12, 7040
16, 114949, Pitch_bend_c, 12, 7296
16, 114955, Pitch_bend_c, 12, 7808
16, 114958, Pitch_bend_c, 12, 8064
16, 114964, Pitch_bend_c, 12, 8192
16, 115092, Note_on_c, 12, 72, 0
16, 115108, Pitch_bend_c, 12, 7936
16, 115146, Note_on_c, 12, 72, 127
16, 115165, Pitch_bend_c, 12, 8192
16, 115274, Pitch_bend_c, 12, 7936
16, 115283, Pitch_bend_c, 12, 7680
16, 115290, Pitch_bend_c, 12, 7168
16, 115299, Pitch_bend_c, 12, 6784
16, 115312, Pitch_bend_c, 12, 6528
16, 115328, Pitch_bend_c, 12, 6272
16, 115340, Pitch_bend_c, 12, 5888
16, 115349, Pitch_bend_c, 12, 5504
16, 115356, Pitch_bend_c, 12, 5248
16, 115365, Pitch_bend_c, 12, 4992
16, 115403, Pitch_bend_c, 12, 5248
16, 115412, Pitch_bend_c, 12, 5504
16, 115419, Note_on_c, 12, 72, 0
16, 115419, Pitch_bend_c, 12, 6016
16, 115424, Pitch_bend_c, 12, 6272
16, 115428, Pitch_bend_c, 12, 6528
16, 115431, Pitch_bend_c, 12, 6912
16, 115437, Pitch_bend_c, 12, 7552
16, 115440, Pitch_bend_c, 12, 8192
16, 115446, Note_on_c, 12, 67, 117
16, 115553, Note_on_c, 12, 67, 0
16, 115569, Note_on_c, 12, 69, 123
16, 115695, Note_on_c, 12, 69, 0
16, 115704, Note_on_c, 12, 70, 127
16, 115908, Note_on_c, 12, 62, 127
16, 115929, Note_on_c, 12, 70, 0
16, 115954, Pitch_bend_c, 12, 7936
16, 115967, Pitch_bend_c, 12, 7680
16, 116017, Pitch_bend_c, 12, 7936
16, 116024, Pitch_bend_c, 12, 8192
16, 116261, Pitch_bend_c, 12, 7936
16, 116270, Pitch_bend_c, 12, 7680
16, 116290, Pitch_bend_c, 12, 7296
16, 116299, Pitch_bend_c, 12, 6912
16, 116308, Pitch_bend_c, 12, 6400
16, 116320, Pitch_bend_c, 12, 6144
16, 116411, Pitch_bend_c, 12, 6656
16, 116415, Pitch_bend_c, 12, 7040
16, 116418, Pitch_bend_c, 12, 7552
16, 116424, Pitch_bend_c, 12, 7808
16, 116427, Pitch_bend_c, 12, 8064
16, 116436, Pitch_bend_c, 12, 8192
16, 116468, Pitch_bend_c, 12, 8064
16, 116477, Pitch_bend_c, 12, 7808
16, 116486, Pitch_bend_c, 12, 7296
16, 116493, Pitch_bend_c, 12, 7040
16, 116524, Pitch_bend_c, 12, 7296
16, 116531, Pitch_bend_c, 12, 7808
16, 116540, Pitch_bend_c, 12, 8192
16, 116672, Note_on_c, 12, 62, 0
16, 119440, Pitch_bend_c, 12, 8064
16, 119443, Pitch_bend_c, 12, 7680
16, 119448, Pitch_bend_c, 12, 7296
16, 119452, Pitch_bend_c, 12, 6912
16, 119457, Pitch_bend_c, 12, 6656
16, 119460, Pitch_bend_c, 12, 6400
16, 119464, Pitch_bend_c, 12, 6144
16, 119467, Pitch_bend_c, 12, 5888
16, 119472, Pitch_bend_c, 12, 5504
16, 119479, Pitch_bend_c, 12, 4992
16, 119488, Pitch_bend_c, 12, 4608
16, 119491, Pitch_bend_c, 12, 4352
16, 119500, Pitch_bend_c, 12, 3840
16, 119504, Pitch_bend_c, 12, 3584
16, 119509, Pitch_bend_c, 12, 3328
16, 119516, Pitch_bend_c, 12, 2944
16, 119521, Note_on_c, 12, 72, 111
16, 119543, Pitch_bend_c, 12, 3328
16, 119547, Pitch_bend_c, 12, 3840
16, 119550, Pitch_bend_c, 12, 4224
16, 119554, Pitch_bend_c, 12, 4480
16, 119559, Pitch_bend_c, 12, 4992
16, 119562, Pitch_bend_c, 12, 5376
16, 119566, Pitch_bend_c, 12, 6016
16, 119571, Pitch_bend_c, 12, 6528
16, 119575, Pitch_bend_c, 12, 7040
16, 119578, Pitch_bend_c, 12, 7680
16, 119583, Pitch_bend_c, 12, 8064
16, 119587, Pitch_bend_c, 12, 8192
16, 119708, Note_on_c, 12, 69, 115
16, 119720, Note_on_c, 12, 72, 0
16, 119796, Pitch_bend_c, 12, 8064
16, 119801, Pitch_bend_c, 12, 7808
16, 119805, Pitch_bend_c, 12, 7552
16, 119812, Pitch_bend_c, 12, 6912
16, 119820, Pitch_bend_c, 12, 6656
16, 119829, Pitch_bend_c, 12, 6400
16, 119841, Pitch_bend_c, 12, 6144
16, 119869, Note_on_c, 12, 69, 0
16, 119869, Note_on_c, 12, 70, 127
16, 119881, Pitch_bend_c, 12, 6400
16, 119889, Pitch_bend_c, 12, 6656
16, 119896, Pitch_bend_c, 12, 6912
16, 119905, Pitch_bend_c, 12, 7168
16, 119914, Pitch_bend_c, 12, 7552
16, 119938, Pitch_bend_c, 12, 7808
16, 120005, Pitch_bend_c, 12, 8064
16, 120021, Pitch_bend_c, 12, 8192
16, 120178, Pitch_bend_c, 12, 8064
16, 120184, Pitch_bend_c, 12, 7808
16, 120187, Pitch_bend_c, 12, 7552
16, 120190, Pitch_bend_c, 12, 7168
16, 120196, Pitch_bend_c, 12, 6784
16, 120203, Pitch_bend_c, 12, 6528
16, 120227, Note_on_c, 12, 70, 0
16, 120232, Note_on_c, 12, 72, 119
16, 120232, Pitch_bend_c, 12, 6784
16, 120239, Pitch_bend_c, 12, 7168
16, 120248, Pitch_bend_c, 12, 7680
16, 120256, Pitch_bend_c, 12, 8064
16, 120263, Pitch_bend_c, 12, 8192
16, 120436, Note_on_c, 12, 72, 0
16, 120440, Note_on_c, 12, 69, 113
16, 120547, Pitch_bend_c, 12, 8064
16, 120556, Pitch_bend_c, 12, 7680
16, 120559, Pitch_bend_c, 12, 7296
16, 120564, Pitch_bend_c, 12, 7040
16, 120568, Pitch_bend_c, 12, 6784
16, 120571, Note_on_c, 12, 69, 0
16, 120576, Pitch_bend_c, 12, 6272
16, 120580, Note_on_c, 12, 70, 127
16, 120585, Pitch_bend_c, 12, 6016
16, 120592, Pitch_bend_c, 12, 5632
16, 120644, Pitch_bend_c, 12, 6016
16, 120661, Pitch_bend_c, 12, 6272
16, 120673, Pitch_bend_c, 12, 6528
16, 120685, Pitch_bend_c, 12, 6784
16, 120696, Pitch_bend_c, 12, 7040
16, 120710, Pitch_bend_c, 12, 7552
16, 120716, Pitch_bend_c, 12, 7808
16, 120729, Pitch_bend_c, 12, 8064
16, 120744, Pitch_bend_c, 12, 8192
16, 121097, Note_on_c, 12, 70, 0
16, 122540, Note_on_c, 12, 62, 127
16, 122559, Pitch_bend_c, 12, 7936
16, 122564, Pitch_bend_c, 12, 7680
16, 122571, Pitch_bend_c, 12, 7296
16, 122613, Pitch_bend_c, 12, 7680
16, 122628, Pitch_bend_c, 12, 7936
16, 122641, Pitch_bend_c, 12, 8192
16, 122672, Note_on_c, 12, 62, 0
16, 122677, Note_on_c, 12, 64, 123
16, 122808, Note_on_c, 12, 62, 127
16, 122826, Note_on_c, 12, 64, 0
16, 122853, Pitch_bend_c, 12, 7936
16, 122862, Pitch_bend_c, 12, 7552
16, 122874, Pitch_bend_c, 12, 7168
16, 122950, Pitch_bend_c, 12, 7552
16, 122954, Note_on_c, 12, 64, 117
16, 122959, Pitch_bend_c, 12, 8064
16, 122962, Note_on_c, 12, 62, 0
16, 122966, Pitch_bend_c, 12, 8192
16, 123103, Note_on_c, 12, 62, 127
16, 123120, Note_on_c, 12, 64, 0
16, 123203, Pitch_bend_c, 12, 8064
16, 123212, Pitch_bend_c, 12, 7680
16, 123217, Pitch_bend_c, 12, 7296
16, 123220, Pitch_bend_c, 12, 7040
16, 123227, Pitch_bend_c, 12, 6656
16, 123244, Pitch_bend_c, 12, 6400
16, 123260, Note_on_c, 12, 62, 0
16, 123272, Note_on_c, 12, 67, 123
16, 123284, Pitch_bend_c, 12, 6784
16, 123288, Pitch_bend_c, 12, 7040
16, 123293, Pitch_bend_c, 12, 7296
16, 123296, Pitch_bend_c, 12, 7808
16, 123300, Pitch_bend_c, 12, 8192
16, 123381, Note_on_c, 12, 67, 0
16, 123414, Pitch_bend_c, 12, 7808
16, 123417, Pitch_bend_c, 12, 7552
16, 123423, Pitch_bend_c, 12, 6912
16, 123440, Note_on_c, 12, 67, 127
16, 123485, Pitch_bend_c, 12, 7168
16, 123488, Pitch_bend_c, 12, 7680
16, 123492, Pitch_bend_c, 12, 8064
16, 123497, Pitch_bend_c, 12, 8192
16, 124848, Note_on_c, 12, 67, 0
16, 127790, Pitch_bend_c, 12, 8064
16, 127793, Note_on_c, 12, 67, 115
16, 127802, Pitch_bend_c, 12, 7808
16, 127809, Pitch_bend_c, 12, 7552
16, 127817, Pitch_bend_c, 12, 7168
16, 127826, Pitch_bend_c, 12, 6912
16, 127894, Note_on_c, 12, 67, 0
16, 127930, Note_on_c, 12, 69, 123
16, 127930, Pitch_bend_c, 12, 7168
16, 127942, Pitch_bend_c, 12, 7552
16, 127951, Pitch_bend_c, 12, 7808
16, 127963, Pitch_bend_c, 12, 8064
16, 128006, Note_on_c, 12, 69, 0
16, 128015, Pitch_bend_c, 12, 8192
16, 128048, Note_on_c, 12, 67, 127
16, 128136, Note_on_c, 12, 67, 0
16, 128174, Pitch_bend_c, 12, 8064
16, 128177, Pitch_bend_c, 12, 7808
16, 128181, Pitch_bend_c, 12, 7296
16, 128186, Pitch_bend_c, 12, 6912
16, 128189, Pitch_bend_c, 12, 6528
16, 128195, Note_on_c, 12, 74, 127
16, 128195, Pitch_bend_c, 12, 6272
16, 128198, Pitch_bend_c, 12, 5888
16, 128202, Pitch_bend_c, 12, 5376
16, 128210, Pitch_bend_c, 12, 5120
16, 128234, Pitch_bend_c, 12, 5376
16, 128286, Pitch_bend_c, 12, 5632
16, 128295, Pitch_bend_c, 12, 6144
16, 128304, Pitch_bend_c, 12, 6528
16, 128307, Note_on_c, 12, 74, 0
16, 128307, Pitch_bend_c, 12, 6784
16, 128316, Pitch_bend_c, 12, 7168
16, 128323, Pitch_bend_c, 12, 7680
16, 128331, Pitch_bend_c, 12, 8064
16, 128338, Pitch_bend_c, 12, 8192
16, 128362, Note_on_c, 12, 74, 127
16, 128399, Pitch_bend_c, 12, 8064
16, 128407, Pitch_bend_c, 12, 7680
16, 128416, Pitch_bend_c, 12, 7296
16, 128439, Pitch_bend_c, 12, 7680
16, 128492, Note_on_c, 12, 74, 0
16, 128501, Pitch_bend_c, 12, 7936
16, 128513, Pitch_bend_c, 12, 8192
16, 128525, Note_on_c, 12, 72, 127
16, 128605, Note_on_c, 12, 72, 0
16, 128665, Note_on_c, 12, 71, 127
16, 128790, Note_on_c, 12, 71, 0
16, 128847, Note_on_c, 12, 69, 127
16, 129081, Pitch_bend_c, 12, 8064
16, 129093, Pitch_bend_c, 12, 7680
16, 129101, Pitch_bend_c, 12, 7296
16, 129117, Pitch_bend_c, 12, 7040
16, 129138, Pitch_bend_c, 12, 7296
16, 129148, Pitch_bend_c, 12, 7680
16, 129165, Pitch_bend_c, 12, 7936
16, 129181, Pitch_bend_c, 12, 8192
16, 129217, Note_on_c, 12, 69, 0
16, 131520, Note_on_c, 12, 60, 127
16, 131690, Note_on_c, 12, 60, 0
16, 131690, End_track
17, 0, Start_track
17, 0, MIDI_port, 0
17, 0, Title_t, "Overdub"
17, 0, Program_c, 13, 61
17, 0, Control_c, 13, 7, 80
17, 0, Control_c, 13, 10, 35
17, 8160, Note_on_c, 13, 59, 127
17, 9120, Note_on_c, 13, 59, 0
17, 9120, Note_on_c, 13, 66, 127
17, 9170, Note_on_c, 13, 66, 0
17, 9240, Note_on_c, 13, 66, 127
17, 9290, Note_on_c, 13, 66, 0
17, 9360, Note_on_c, 13, 61, 127
17, 9414, Note_on_c, 13, 61, 0
17, 9540, Note_on_c, 13, 59, 127
17, 9590, Note_on_c, 13, 59, 0
17, 9600, Note_on_c, 13, 69, 127
17, 9900, Note_on_c, 13, 72, 127
17, 9906, Note_on_c, 13, 69, 0
17, 9960, Note_on_c, 13, 67, 127
17, 9962, Note_on_c, 13, 72, 0
17, 10080, Note_on_c, 13, 67, 0
17, 10080, Note_on_c, 13, 64, 127
17, 10139, Note_on_c, 13, 64, 0
17, 10140, Note_on_c, 13, 69, 127
17, 10199, Note_on_c, 13, 69, 0
17, 10200, Note_on_c, 13, 69, 127
17, 10900, Note_on_c, 13, 69, 0
17, 11160, Note_on_c, 13, 64, 127
17, 11220, Note_on_c, 13, 69, 127
17, 11224, Note_on_c, 13, 64, 0
17, 11277, Note_on_c, 13, 69, 0
17, 11280, Note_on_c, 13, 69, 127
17, 11805, Note_on_c, 13, 69, 0
17, 11880, Note_on_c, 13, 66, 127
17, 12000, Note_on_c, 13, 66, 0
17, 12000, Note_on_c, 13, 67, 127
17, 12080, Note_on_c, 13, 67, 0
17, 12080, Note_on_c, 13, 72, 127
17, 12160, Note_on_c, 13, 72, 0
17, 12160, Note_on_c, 13, 65, 127
17, 12240, Note_on_c, 13, 65, 0
17, 12240, Note_on_c, 13, 69, 127
17, 12820, Note_on_c, 13, 69, 0
17, 12960, Note_on_c, 13, 64, 127
17, 13040, Note_on_c, 13, 64, 0
17, 13120, Note_on_c, 13, 62, 127
17, 13200, Note_on_c, 13, 62, 0
17, 13200, Note_on_c, 13, 72, 127
17, 14340, Note_on_c, 13, 72, 0
17, 14400, Note_on_c, 13, 72, 127
17, 14420, Note_on_c, 13, 72, 0
17, 14420, Note_on_c, 13, 69, 127
17, 14750, Note_on_c, 13, 69, 0
17, 14760, Note_on_c, 13, 67, 127
17, 15110, Note_on_c, 13, 67, 0
17, 15120, Note_on_c, 13, 65, 127
17, 15470, Note_on_c, 13, 65, 0
17, 15480, Note_on_c, 13, 62, 127
17, 15830, Note_on_c, 13, 62, 0
17, 15840, Note_on_c, 13, 61, 127
17, 16200, Note_on_c, 13, 61, 0
17, 16200, Note_on_c, 13, 62, 127
17, 16260, Note_on_c, 13, 62, 0
17, 16260, Note_on_c, 13, 67, 127
17, 16320, Note_on_c, 13, 67, 0
17, 16320, Note_on_c, 13, 64, 127
17, 17760, Note_on_c, 13, 64, 0
17, 19680, Note_on_c, 13, 60, 127
17, 19740, Note_on_c, 13, 60, 0
17, 19800, Note_on_c, 13, 64, 127
17, 19860, Note_on_c, 13, 64, 0
17, 19920, Note_on_c, 13, 62, 127
17, 19980, Note_on_c, 13, 62, 0
17, 20040, Note_on_c, 13, 65, 127
17, 20100, Note_on_c, 13, 65, 0
17, 20160, Note_on_c, 13, 64, 127
17, 20220, Note_on_c, 13, 64, 0
17, 20280, Note_on_c, 13, 55, 127
17, 20340, Note_on_c, 13, 55, 0
17, 20400, Note_on_c, 13, 65, 127
17, 20460, Note_on_c, 13, 65, 0
17, 20520, Note_on_c, 13, 62, 127
17, 20580, Note_on_c, 13, 62, 0
17, 20640, Note_on_c, 13, 69, 127
17, 20720, Note_on_c, 13, 69, 0
17, 20800, Note_on_c, 13, 72, 127
17, 20880, Note_on_c, 13, 72, 0
17, 20960, Note_on_c, 13, 64, 127
17, 21040, Note_on_c, 13, 64, 0
17, 21120, Note_on_c, 13, 64, 127
17, 21168, Note_on_c, 13, 64, 0
17, 21200, Note_on_c, 13, 65, 127
17, 21248, Note_on_c, 13, 65, 0
17, 21280, Note_on_c, 13, 64, 127
17, 21328, Note_on_c, 13, 64, 0
17, 21360, Note_on_c, 13, 62, 127
17, 21408, Note_on_c, 13, 62, 0
17, 21440, Note_on_c, 13, 57, 127
17, 21488, Note_on_c, 13, 57, 0
17, 21520, Note_on_c, 13, 58, 127
17, 21578, Note_on_c, 13, 58, 0
17, 21600, Note_on_c, 13, 60, 127
17, 21658, Note_on_c, 13, 60, 0
17, 21673, Note_on_c, 13, 60, 127
17, 21731, Note_on_c, 13, 60, 0
17, 21747, Note_on_c, 13, 62, 127
17, 21805, Note_on_c, 13, 62, 0
17, 21820, Note_on_c, 13, 62, 127
17, 21878, Note_on_c, 13, 62, 0
17, 21894, Note_on_c, 13, 64, 127
17, 21952, Note_on_c, 13, 64, 0
17, 21967, Note_on_c, 13, 65, 127
17, 22025, Note_on_c, 13, 65, 0
17, 22045, Note_on_c, 13, 69, 127
17, 22103, Note_on_c, 13, 69, 0
17, 22118, Note_on_c, 13, 55, 127
17, 22176, Note_on_c, 13, 55, 0
17, 22192, Note_on_c, 13, 55, 127
17, 22250, Note_on_c, 13, 55, 0
17, 22265, Note_on_c, 13, 62, 127
17, 22323, Note_on_c, 13, 62, 0
17, 22339, Note_on_c, 13, 53, 127
17, 22397, Note_on_c, 13, 53, 0
17, 22412, Note_on_c, 13, 52, 127
17, 22470, Note_on_c, 13, 52, 0
17, 22486, Note_on_c, 13, 52, 127
17, 22544, Note_on_c, 13, 52, 0
17, 22560, Note_on_c, 13, 67, 127
17, 24460, Note_on_c, 13, 67, 0
17, 24720, Note_on_c, 13, 71, 127
17, 24834, Note_on_c, 13, 71, 0
17, 24840, Note_on_c, 13, 73, 127
17, 24934, Note_on_c, 13, 73, 0
17, 24960, Note_on_c, 13, 73, 127
17, 25094, Note_on_c, 13, 73, 0
17, 25120, Note_on_c, 13, 71, 127
17, 25254, Note_on_c, 13, 71, 0
17, 25280, Note_on_c, 13, 74, 127
17, 25414, Note_on_c, 13, 74, 0
17, 25440, Note_on_c, 13, 77, 127
17, 25574, Note_on_c, 13, 77, 0
17, 25600, Note_on_c, 13, 69, 127
17, 25734, Note_on_c, 13, 69, 0
17, 25760, Note_on_c, 13, 69, 127
17, 25894, Note_on_c, 13, 69, 0
17, 25920, Note_on_c, 13, 70, 127
17, 26260, Note_on_c, 13, 70, 0
17, 26280, Note_on_c, 13, 73, 127
17, 26394, Note_on_c, 13, 73, 0
17, 26400, Note_on_c, 13, 76, 127
17, 26533, Note_on_c, 13, 76, 0
17, 26560, Note_on_c, 13, 81, 127
17, 26693, Note_on_c, 13, 81, 0
17, 26720, Note_on_c, 13, 82, 127
17, 26853, Note_on_c, 13, 82, 0
17, 26880, Note_on_c, 13, 77, 127
17, 27013, Note_on_c, 13, 77, 0
17, 27040, Note_on_c, 13, 72, 127
17, 27173, Note_on_c, 13, 72, 0
17, 27200, Note_on_c, 13, 67, 127
17, 27333, Note_on_c, 13, 67, 0
17, 27360, Note_on_c, 13, 69, 127
17, 28550, Note_on_c, 13, 69, 0
17, 28560, Note_on_c, 13, 81, 127
17, 29750, Note_on_c, 13, 81, 0
17, 29760, Note_on_c, 13, 81, 127
17, 30950, Note_on_c, 13, 81, 0
17, 30960, Note_on_c, 13, 69, 127
17, 31876, Note_on_c, 13, 71, 64
17, 31880, Note_on_c, 13, 69, 0
17, 31917, Note_on_c, 13, 72, 73
17, 31929, Note_on_c, 13, 71, 0
17, 31949, Note_on_c, 13, 74, 80
17, 31960, Note_on_c, 13, 72, 0
17, 31975, Note_on_c, 13, 76, 85
17, 31992, Note_on_c, 13, 74, 0
17, 32018, Note_on_c, 13, 77, 95
17, 32029, Note_on_c, 13, 76, 0
17, 32059, Note_on_c, 13, 79, 104
17, 32071, Note_on_c, 13, 77, 0
17, 32110, Note_on_c, 13, 81, 115
17, 32133, Note_on_c, 13, 79, 0
17, 32160, Note_on_c, 13, 83, 127
17, 32198, Note_on_c, 13, 81, 0
17, 33350, Note_on_c, 13, 83, 0
17, 33360, Note_on_c, 13, 73, 127
17, 34550, Note_on_c, 13, 73, 0
17, 34560, Note_on_c, 13, 76, 127
17, 35750, Note_on_c, 13, 76, 0
17, 35760, Note_on_c, 13, 73, 127
17, 36950, Note_on_c, 13, 73, 0
17, 36960, Note_on_c, 13, 71, 127
17, 37024, Note_on_c, 13, 71, 0
17, 37080, Note_on_c, 13, 72, 127
17, 37144, Note_on_c, 13, 72, 0
17, 37200, Note_on_c, 13, 72, 127
17, 37264, Note_on_c, 13, 72, 0
17, 37280, Note_on_c, 13, 69, 127
17, 37344, Note_on_c, 13, 69, 0
17, 37360, Note_on_c, 13, 74, 127
17, 37424, Note_on_c, 13, 74, 0
17, 37440, Note_on_c, 13, 75, 127
17, 37504, Note_on_c, 13, 75, 0
17, 37560, Note_on_c, 13, 67, 127
17, 37624, Note_on_c, 13, 67, 0
17, 37680, Note_on_c, 13, 67, 127
17, 37744, Note_on_c, 13, 67, 0
17, 37760, Note_on_c, 13, 69, 127
17, 37824, Note_on_c, 13, 69, 0
17, 37840, Note_on_c, 13, 65, 127
17, 37904, Note_on_c, 13, 65, 0
17, 37920, Note_on_c, 13, 64, 127
17, 38023, Note_on_c, 13, 64, 0
17, 38080, Note_on_c, 13, 67, 127
17, 38183, Note_on_c, 13, 67, 0
17, 38240, Note_on_c, 13, 67, 127
17, 38343, Note_on_c, 13, 67, 0
17, 38400, Note_on_c, 13, 64, 127
17, 38503, Note_on_c, 13, 64, 0
17, 38560, Note_on_c, 13, 64, 127
17, 38663, Note_on_c, 13, 64, 0
17, 38720, Note_on_c, 13, 74, 127
17, 38823, Note_on_c, 13, 74, 0
17, 38880, Note_on_c, 13, 73, 127
17, 41280, Note_on_c, 13, 73, 0
17, 43680, Note_on_c, 13, 71, 127
17, 43980, Note_on_c, 13, 71, 0
17, 43980, Note_on_c, 13, 69, 127
17, 44040, Note_on_c, 13, 69, 0
17, 44040, Note_on_c, 13, 68, 127
17, 44100, Note_on_c, 13, 68, 0
17, 44100, Note_on_c, 13, 74, 127
17, 44160, Note_on_c, 13, 74, 0
17, 44160, Note_on_c, 13, 64, 127
17, 44240, Note_on_c, 13, 64, 0
17, 44240, Note_on_c, 13, 71, 127
17, 44320, Note_on_c, 13, 71, 0
17, 44320, Note_on_c, 13, 69, 127
17, 44400, Note_on_c, 13, 69, 0
17, 44400, Note_on_c, 13, 73, 127
17, 44448, Note_on_c, 13, 73, 0
17, 44448, Note_on_c, 13, 69, 127
17, 44496, Note_on_c, 13, 69, 0
17, 44496, Note_on_c, 13, 69, 127
17, 44544, Note_on_c, 13, 69, 0
17, 44544, Note_on_c, 13, 71, 127
17, 44592, Note_on_c, 13, 71, 0
17, 44592, Note_on_c, 13, 68, 127
17, 44640, Note_on_c, 13, 68, 0
17, 44736, Note_on_c, 13, 73, 127
17, 44832, Note_on_c, 13, 73, 0
17, 44832, Note_on_c, 13, 66, 127
17, 44928, Note_on_c, 13, 66, 0
17, 44928, Note_on_c, 13, 71, 127
17, 45024, Note_on_c, 13, 71, 0
17, 45024, Note_on_c, 13, 68, 127
17, 45120, Note_on_c, 13, 68, 0
17, 45120, Note_on_c, 13, 80, 127
17, 45216, Note_on_c, 13, 80, 0
17, 45216, Note_on_c, 13, 78, 127
17, 45312, Note_on_c, 13, 78, 0
17, 45312, Note_on_c, 13, 73, 127
17, 45408, Note_on_c, 13, 73, 0
17, 45408, Note_on_c, 13, 76, 127
17, 45504, Note_on_c, 13, 76, 0
17, 45504, Note_on_c, 13, 66, 127
17, 45600, Note_on_c, 13, 66, 0
17, 45600, Note_on_c, 13, 80, 127
17, 45696, Note_on_c, 13, 80, 0
17, 45696, Note_on_c, 13, 78, 127
17, 45792, Note_on_c, 13, 78, 0
17, 45792, Note_on_c, 13, 73, 127
17, 45888, Note_on_c, 13, 73, 0
17, 45888, Note_on_c, 13, 76, 127
17, 45984, Note_on_c, 13, 76, 0
17, 45984, Note_on_c, 13, 66, 127
17, 46034, Note_on_c, 13, 66, 0
17, 46080, Note_on_c, 13, 66, 127
17, 47956, Note_on_c, 13, 66, 0
17, 48480, Note_on_c, 13, 80, 127
17, 48540, Note_on_c, 13, 80, 0
17, 48540, Note_on_c, 13, 81, 127
17, 48600, Note_on_c, 13, 81, 0
17, 48600, Note_on_c, 13, 80, 127
17, 48660, Note_on_c, 13, 80, 0
17, 48720, Note_on_c, 13, 80, 127
17, 48780, Note_on_c, 13, 80, 0
17, 48780, Note_on_c, 13, 81, 127
17, 48840, Note_on_c, 13, 81, 0
17, 48840, Note_on_c, 13, 78, 127
17, 48900, Note_on_c, 13, 78, 0
17, 48960, Note_on_c, 13, 80, 127
17, 49020, Note_on_c, 13, 80, 0
17, 49080, Note_on_c, 13, 71, 127
17, 49140, Note_on_c, 13, 71, 0
17, 49140, Note_on_c, 13, 81, 127
17, 49200, Note_on_c, 13, 81, 0
17, 49200, Note_on_c, 13, 78, 127
17, 49260, Note_on_c, 13, 78, 0
17, 49260, Note_on_c, 13, 73, 127
17, 49320, Note_on_c, 13, 73, 0
17, 49320, Note_on_c, 13, 83, 127
17, 49380, Note_on_c, 13, 83, 0
17, 49380, Note_on_c, 13, 78, 127
17, 49440, Note_on_c, 13, 78, 0
17, 49440, Note_on_c, 13, 80, 127
17, 49500, Note_on_c, 13, 80, 0
17, 49500, Note_on_c, 13, 76, 127
17, 49560, Note_on_c, 13, 76, 0
17, 49560, Note_on_c, 13, 76, 127
17, 49620, Note_on_c, 13, 76, 0
17, 49620, Note_on_c, 13, 73, 127
17, 49680, Note_on_c, 13, 73, 0
17, 49680, Note_on_c, 13, 78, 127
17, 49740, Note_on_c, 13, 78, 0
17, 49740, Note_on_c, 13, 80, 127
17, 49800, Note_on_c, 13, 80, 0
17, 49800, Note_on_c, 13, 80, 127
17, 49860, Note_on_c, 13, 80, 0
17, 49860, Note_on_c, 13, 83, 127
17, 49920, Note_on_c, 13, 83, 0
17, 49920, Note_on_c, 13, 81, 127
17, 49980, Note_on_c, 13, 81, 0
17, 49980, Note_on_c, 13, 80, 127
17, 50040, Note_on_c, 13, 80, 0
17, 50040, Note_on_c, 13, 80, 127
17, 50100, Note_on_c, 13, 80, 0
17, 50100, Note_on_c, 13, 83, 127
17, 50160, Note_on_c, 13, 83, 0
17, 50160, Note_on_c, 13, 78, 127
17, 50220, Note_on_c, 13, 78, 0
17, 50220, Note_on_c, 13, 66, 127
17, 50280, Note_on_c, 13, 66, 0
17, 50280, Note_on_c, 13, 66, 127
17, 50340, Note_on_c, 13, 66, 0
17, 50340, Note_on_c, 13, 71, 127
17, 50400, Note_on_c, 13, 71, 0
17, 50400, Note_on_c, 13, 73, 127
17, 50460, Note_on_c, 13, 73, 0
17, 50460, Note_on_c, 13, 69, 127
17, 50520, Note_on_c, 13, 69, 0
17, 50520, Note_on_c, 13, 71, 127
17, 50580, Note_on_c, 13, 71, 0
17, 50580, Note_on_c, 13, 76, 127
17, 50640, Note_on_c, 13, 76, 0
17, 50640, Note_on_c, 13, 80, 127
17, 50700, Note_on_c, 13, 80, 0
17, 50700, Note_on_c, 13, 66, 127
17, 50760, Note_on_c, 13, 66, 0
17, 50760, Note_on_c, 13, 71, 127
17, 50820, Note_on_c, 13, 71, 0
17, 50820, Note_on_c, 13, 73, 127
17, 50880, Note_on_c, 13, 73, 0
17, 50880, Note_on_c, 13, 74, 127
17, 50940, Note_on_c, 13, 74, 0
17, 50940, Note_on_c, 13, 81, 127
17, 51000, Note_on_c, 13, 81, 0
17, 51000, Note_on_c, 13, 78, 127
17, 51060, Note_on_c, 13, 78, 0
17, 51060, Note_on_c, 13, 76, 127
17, 51120, Note_on_c, 13, 76, 0
17, 51120, Note_on_c, 13, 78, 127
17, 51180, Note_on_c, 13, 78, 0
17, 51180, Note_on_c, 13, 80, 127
17, 51240, Note_on_c, 13, 80, 0
17, 51240, Note_on_c, 13, 76, 127
17, 51300, Note_on_c, 13, 76, 0
17, 51300, Note_on_c, 13, 71, 127
17, 51360, Note_on_c, 13, 71, 0
17, 51600, Note_on_c, 13, 78, 127
17, 51660, Note_on_c, 13, 78, 0
17, 51660, Note_on_c, 13, 80, 127
17, 51720, Note_on_c, 13, 80, 0
17, 51720, Note_on_c, 13, 76, 127
17, 51780, Note_on_c, 13, 76, 0
17, 51780, Note_on_c, 13, 71, 127
17, 51840, Note_on_c, 13, 71, 0
17, 52320, Note_on_c, 13, 78, 127
17, 52380, Note_on_c, 13, 78, 0
17, 52380, Note_on_c, 13, 80, 127
17, 52440, Note_on_c, 13, 80, 0
17, 52440, Note_on_c, 13, 76, 127
17, 52500, Note_on_c, 13, 76, 0
17, 52500, Note_on_c, 13, 71, 127
17, 52560, Note_on_c, 13, 71, 0
17, 53040, Note_on_c, 13, 78, 127
17, 53100, Note_on_c, 13, 78, 0
17, 53100, Note_on_c, 13, 80, 127
17, 53160, Note_on_c, 13, 80, 0
17, 53160, Note_on_c, 13, 76, 127
17, 53220, Note_on_c, 13, 76, 0
17, 53220, Note_on_c, 13, 71, 127
17, 53280, Note_on_c, 13, 71, 0
17, 53280, Note_on_c, 13, 81, 127
17, 53600, Note_on_c, 13, 81, 0
17, 53732, Note_on_c, 13, 81, 127
17, 53760, Note_on_c, 13, 80, 127
17, 53762, Note_on_c, 13, 81, 0
17, 53920, Note_on_c, 13, 80, 0
17, 54000, Note_on_c, 13, 78, 127
17, 54160, Note_on_c, 13, 78, 0
17, 54240, Note_on_c, 13, 88, 127
17, 54329, Note_on_c, 13, 88, 0
17, 54360, Note_on_c, 13, 78, 127
17, 54449, Note_on_c, 13, 78, 0
17, 54480, Note_on_c, 13, 78, 127
17, 54545, Note_on_c, 13, 78, 0
17, 54560, Note_on_c, 13, 83, 127
17, 54621, Note_on_c, 13, 83, 0
17, 54640, Note_on_c, 13, 80, 127
17, 54701, Note_on_c, 13, 80, 0
17, 54720, Note_on_c, 13, 85, 127
17, 54800, Note_on_c, 13, 85, 0
17, 54840, Note_on_c, 13, 83, 127
17, 54920, Note_on_c, 13, 83, 0
17, 54960, Note_on_c, 13, 83, 127
17, 55040, Note_on_c, 13, 83, 0
17, 55080, Note_on_c, 13, 81, 127
17, 55160, Note_on_c, 13, 81, 0
17, 55200, Note_on_c, 13, 80, 127
17, 55532, Note_on_c, 13, 83, 127
17, 55556, Note_on_c, 13, 83, 0
17, 55560, Note_on_c, 13, 81, 127
17, 55575, Note_on_c, 13, 80, 0
17, 55624, Note_on_c, 13, 81, 0
17, 55680, Note_on_c, 13, 78, 127
17, 55824, Note_on_c, 13, 78, 0
17, 55840, Note_on_c, 13, 76, 127
17, 55984, Note_on_c, 13, 76, 0
17, 56000, Note_on_c, 13, 76, 127
17, 56144, Note_on_c, 13, 76, 0
17, 56160, Note_on_c, 13, 78, 127
17, 56640, Note_on_c, 13, 78, 0
17, 56640, Note_on_c, 13, 66, 127
17, 56700, Note_on_c, 13, 66, 0
17, 56700, Note_on_c, 13, 71, 127
17, 56760, Note_on_c, 13, 71, 0
17, 56760, Note_on_c, 13, 71, 127
17, 56820, Note_on_c, 13, 71, 0
17, 56820, Note_on_c, 13, 69, 127
17, 56880, Note_on_c, 13, 69, 0
17, 56880, Note_on_c, 13, 71, 127
17, 57180, Note_on_c, 13, 71, 0
17, 57215, Note_on_c, 13, 73, 127
17, 57240, Note_on_c, 13, 71, 127
17, 57253, Note_on_c, 13, 73, 0
17, 57300, Note_on_c, 13, 71, 0
17, 57360, Note_on_c, 13, 66, 127
17, 57720, Note_on_c, 13, 66, 0
17, 57720, Note_on_c, 13, 68, 127
17, 57960, Note_on_c, 13, 68, 0
17, 57960, Note_on_c, 13, 59, 127
17, 58080, Note_on_c, 13, 59, 0
17, 58080, Note_on_c, 13, 60, 127
17, 58240, Note_on_c, 13, 70, 127
17, 58250, Note_on_c, 13, 60, 0
17, 58400, Note_on_c, 13, 65, 127
17, 58410, Note_on_c, 13, 70, 0
17, 58560, Note_on_c, 13, 75, 127
17, 58570, Note_on_c, 13, 65, 0
17, 59030, Note_on_c, 13, 75, 0
17, 59040, Note_on_c, 13, 73, 127
17, 59120, Note_on_c, 13, 73, 0
17, 59200, Note_on_c, 13, 70, 127
17, 59280, Note_on_c, 13, 70, 0
17, 59280, Note_on_c, 13, 72, 127
17, 60000, Note_on_c, 13, 72, 0
17, 60221, Note_on_c, 13, 75, 127
17, 60240, Note_on_c, 13, 68, 127
17, 60247, Note_on_c, 13, 75, 0
17, 60432, Note_on_c, 13, 68, 0
17, 60480, Note_on_c, 13, 73, 127
17, 60640, Note_on_c, 13, 77, 127
17, 60672, Note_on_c, 13, 73, 0
17, 60800, Note_on_c, 13, 70, 127
17, 60832, Note_on_c, 13, 77, 0
17, 60960, Note_on_c, 13, 75, 127
17, 60992, Note_on_c, 13, 70, 0
17, 61045, Note_on_c, 13, 75, 0
17, 61080, Note_on_c, 13, 73, 127
17, 61140, Note_on_c, 13, 73, 0
17, 61140, Note_on_c, 13, 77, 127
17, 61200, Note_on_c, 13, 77, 0
17, 61200, Note_on_c, 13, 72, 127
17, 61910, Note_on_c, 13, 72, 0
17, 61920, Note_on_c, 13, 60, 127
17, 61968, Note_on_c, 13, 60, 0
17, 62040, Note_on_c, 13, 64, 127
17, 62100, Note_on_c, 13, 64, 0
17, 62160, Note_on_c, 13, 62, 127
17, 62220, Note_on_c, 13, 62, 0
17, 62280, Note_on_c, 13, 65, 127
17, 62340, Note_on_c, 13, 65, 0
17, 62400, Note_on_c, 13, 64, 127
17, 62460, Note_on_c, 13, 64, 0
17, 62520, Note_on_c, 13, 55, 127
17, 62580, Note_on_c, 13, 55, 0
17, 62640, Note_on_c, 13, 65, 127
17, 62700, Note_on_c, 13, 65, 0
17, 62760, Note_on_c, 13, 62, 127
17, 62820, Note_on_c, 13, 62, 0
17, 62880, Note_on_c, 13, 69, 127
17, 62990, Note_on_c, 13, 69, 0
17, 63040, Note_on_c, 13, 72, 127
17, 63150, Note_on_c, 13, 72, 0
17, 63200, Note_on_c, 13, 64, 127
17, 63310, Note_on_c, 13, 64, 0
17, 63360, Note_on_c, 13, 64, 127
17, 63408, Note_on_c, 13, 64, 0
17, 63440, Note_on_c, 13, 65, 127
17, 63488, Note_on_c, 13, 65, 0
17, 63520, Note_on_c, 13, 64, 127
17, 63568, Note_on_c, 13, 64, 0
17, 63600, Note_on_c, 13, 62, 127
17, 63648, Note_on_c, 13, 62, 0
17, 63680, Note_on_c, 13, 57, 127
17, 63728, Note_on_c, 13, 57, 0
17, 63760, Note_on_c, 13, 58, 127
17, 63828, Note_on_c, 13, 58, 0
17, 63840, Note_on_c, 13, 60, 127
17, 63908, Note_on_c, 13, 60, 0
17, 63913, Note_on_c, 13, 60, 127
17, 63981, Note_on_c, 13, 60, 0
17, 63987, Note_on_c, 13, 62, 127
17, 64055, Note_on_c, 13, 62, 0
17, 64060, Note_on_c, 13, 62, 127
17, 64128, Note_on_c, 13, 62, 0
17, 64134, Note_on_c, 13, 64, 127
17, 64202, Note_on_c, 13, 64, 0
17, 64207, Note_on_c, 13, 65, 127
17, 64275, Note_on_c, 13, 65, 0
17, 64285, Note_on_c, 13, 69, 127
17, 64353, Note_on_c, 13, 69, 0
17, 64358, Note_on_c, 13, 55, 127
17, 64426, Note_on_c, 13, 55, 0
17, 64432, Note_on_c, 13, 55, 127
17, 64500, Note_on_c, 13, 55, 0
17, 64505, Note_on_c, 13, 62, 127
17, 64573, Note_on_c, 13, 62, 0
17, 64579, Note_on_c, 13, 53, 127
17, 64647, Note_on_c, 13, 53, 0
17, 64652, Note_on_c, 13, 53, 127
17, 64720, Note_on_c, 13, 53, 0
17, 64726, Note_on_c, 13, 52, 127
17, 64794, Note_on_c, 13, 52, 0
17, 64800, Note_on_c, 13, 67, 127
17, 66720, Note_on_c, 13, 67, 0
17, 66960, Note_on_c, 13, 71, 127
17, 67064, Note_on_c, 13, 71, 0
17, 67080, Note_on_c, 13, 73, 127
17, 67164, Note_on_c, 13, 73, 0
17, 67200, Note_on_c, 13, 73, 127
17, 67324, Note_on_c, 13, 73, 0
17, 67360, Note_on_c, 13, 71, 127
17, 67484, Note_on_c, 13, 71, 0
17, 67520, Note_on_c, 13, 74, 127
17, 67644, Note_on_c, 13, 74, 0
17, 67680, Note_on_c, 13, 77, 127
17, 67804, Note_on_c, 13, 77, 0
17, 67840, Note_on_c, 13, 69, 127
17, 67964, Note_on_c, 13, 69, 0
17, 68000, Note_on_c, 13, 69, 127
17, 68124, Note_on_c, 13, 69, 0
17, 68160, Note_on_c, 13, 70, 127
17, 68414, Note_on_c, 13, 70, 0
17, 68520, Note_on_c, 13, 73, 127
17, 68584, Note_on_c, 13, 73, 0
17, 68640, Note_on_c, 13, 76, 127
17, 68763, Note_on_c, 13, 76, 0
17, 68800, Note_on_c, 13, 81, 127
17, 68923, Note_on_c, 13, 81, 0
17, 68960, Note_on_c, 13, 82, 127
17, 69083, Note_on_c, 13, 82, 0
17, 69120, Note_on_c, 13, 77, 127
17, 69243, Note_on_c, 13, 77, 0
17, 69280, Note_on_c, 13, 72, 127
17, 69403, Note_on_c, 13, 72, 0
17, 69440, Note_on_c, 13, 67, 127
17, 69563, Note_on_c, 13, 67, 0
17, 69600, Note_on_c, 13, 69, 127
17, 70790, Note_on_c, 13, 69, 0
17, 70800, Note_on_c, 13, 81, 127
17, 71990, Note_on_c, 13, 81, 0
17, 72000, Note_on_c, 13, 81, 127
17, 73190, Note_on_c, 13, 81, 0
17, 73200, Note_on_c, 13, 69, 127
17, 74116, Note_on_c, 13, 71, 64
17, 74120, Note_on_c, 13, 69, 0
17, 74157, Note_on_c, 13, 72, 73
17, 74169, Note_on_c, 13, 71, 0
17, 74189, Note_on_c, 13, 74, 80
17, 74200, Note_on_c, 13, 72, 0
17, 74215, Note_on_c, 13, 76, 85
17, 74232, Note_on_c, 13, 74, 0
17, 74258, Note_on_c, 13, 77, 95
17, 74269, Note_on_c, 13, 76, 0
17, 74299, Note_on_c, 13, 79, 104
17, 74311, Note_on_c, 13, 77, 0
17, 74350, Note_on_c, 13, 81, 115
17, 74373, Note_on_c, 13, 79, 0
17, 74400, Note_on_c, 13, 83, 127
17, 74438, Note_on_c, 13, 81, 0
17, 75590, Note_on_c, 13, 83, 0
17, 75600, Note_on_c, 13, 73, 127
17, 76790, Note_on_c, 13, 73, 0
17, 76800, Note_on_c, 13, 76, 127
17, 77990, Note_on_c, 13, 76, 0
17, 78000, Note_on_c, 13, 73, 127
17, 79190, Note_on_c, 13, 73, 0
17, 79200, Note_on_c, 13, 70, 127
17, 79284, Note_on_c, 13, 70, 0
17, 79320, Note_on_c, 13, 72, 127
17, 79404, Note_on_c, 13, 72, 0
17, 79440, Note_on_c, 13, 72, 127
17, 79504, Note_on_c, 13, 72, 0
17, 79520, Note_on_c, 13, 69, 127
17, 79584, Note_on_c, 13, 69, 0
17, 79600, Note_on_c, 13, 74, 127
17, 79664, Note_on_c, 13, 74, 0
17, 79680, Note_on_c, 13, 75, 127
17, 79764, Note_on_c, 13, 75, 0
17, 79800, Note_on_c, 13, 67, 127
17, 79884, Note_on_c, 13, 67, 0
17, 79920, Note_on_c, 13, 67, 127
17, 79984, Note_on_c, 13, 67, 0
17, 80000, Note_on_c, 13, 69, 127
17, 80064, Note_on_c, 13, 69, 0
17, 80080, Note_on_c, 13, 65, 127
17, 80144, Note_on_c, 13, 65, 0
17, 80160, Note_on_c, 13, 64, 127
17, 80283, Note_on_c, 13, 64, 0
17, 80320, Note_on_c, 13, 67, 127
17, 80443, Note_on_c, 13, 67, 0
17, 80480, Note_on_c, 13, 67, 127
17, 80603, Note_on_c, 13, 67, 0
17, 80640, Note_on_c, 13, 65, 127
17, 80763, Note_on_c, 13, 65, 0
17, 80800, Note_on_c, 13, 65, 127
17, 80923, Note_on_c, 13, 65, 0
17, 80960, Note_on_c, 13, 70, 127
17, 81083, Note_on_c, 13, 70, 0
17, 81120, Note_on_c, 13, 71, 127
17, 83520, Note_on_c, 13, 71, 0
17, 85920, Note_on_c, 13, 69, 127
17, 86220, Note_on_c, 13, 69, 0
17, 86220, Note_on_c, 13, 67, 127
17, 86270, Note_on_c, 13, 67, 0
17, 86280, Note_on_c, 13, 66, 127
17, 86330, Note_on_c, 13, 66, 0
17, 86340, Note_on_c, 13, 72, 127
17, 86390, Note_on_c, 13, 72, 0
17, 86400, Note_on_c, 13, 62, 127
17, 86470, Note_on_c, 13, 62, 0
17, 86480, Note_on_c, 13, 69, 127
17, 86550, Note_on_c, 13, 69, 0
17, 86560, Note_on_c, 13, 67, 127
17, 86630, Note_on_c, 13, 67, 0
17, 86640, Note_on_c, 13, 71, 127
17, 86678, Note_on_c, 13, 71, 0
17, 86688, Note_on_c, 13, 67, 127
17, 86726, Note_on_c, 13, 67, 0
17, 86736, Note_on_c, 13, 67, 127
17, 86774, Note_on_c, 13, 67, 0
17, 86784, Note_on_c, 13, 69, 127
17, 86822, Note_on_c, 13, 69, 0
17, 86832, Note_on_c, 13, 66, 127
17, 86870, Note_on_c, 13, 66, 0
17, 86976, Note_on_c, 13, 71, 127
17, 87052, Note_on_c, 13, 71, 0
17, 87072, Note_on_c, 13, 64, 127
17, 87148, Note_on_c, 13, 64, 0
17, 87168, Note_on_c, 13, 69, 127
17, 87244, Note_on_c, 13, 69, 0
17, 87264, Note_on_c, 13, 66, 127
17, 87340, Note_on_c, 13, 66, 0
17, 87360, Note_on_c, 13, 78, 127
17, 87446, Note_on_c, 13, 78, 0
17, 87456, Note_on_c, 13, 76, 127
17, 87542, Note_on_c, 13, 76, 0
17, 87552, Note_on_c, 13, 71, 127
17, 87638, Note_on_c, 13, 71, 0
17, 87648, Note_on_c, 13, 74, 127
17, 87734, Note_on_c, 13, 74, 0
17, 87744, Note_on_c, 13, 64, 127
17, 87830, Note_on_c, 13, 64, 0
17, 87840, Note_on_c, 13, 78, 127
17, 87926, Note_on_c, 13, 78, 0
17, 87936, Note_on_c, 13, 76, 127
17, 88022, Note_on_c, 13, 76, 0
17, 88032, Note_on_c, 13, 71, 127
17, 88118, Note_on_c, 13, 71, 0
17, 88128, Note_on_c, 13, 74, 127
17, 88214, Note_on_c, 13, 74, 0
17, 88224, Note_on_c, 13, 64, 127
17, 88304, Note_on_c, 13, 64, 0
17, 88320, Note_on_c, 13, 64, 127
17, 89780, Note_on_c, 13, 64, 0
17, 90826, Note_on_c, 13, 66, 127
17, 90924, Note_on_c, 13, 66, 0
17, 90933, Note_on_c, 13, 67, 127
17, 91031, Note_on_c, 13, 67, 0
17, 91039, Note_on_c, 13, 72, 127
17, 91137, Note_on_c, 13, 72, 0
17, 91145, Note_on_c, 13, 71, 127
17, 91243, Note_on_c, 13, 71, 0
17, 91252, Note_on_c, 13, 78, 127
17, 91320, Note_on_c, 13, 78, 0
17, 91323, Note_on_c, 13, 79, 127
17, 91391, Note_on_c, 13, 79, 0
17, 91394, Note_on_c, 13, 76, 127
17, 91462, Note_on_c, 13, 76, 0
17, 91466, Note_on_c, 13, 81, 127
17, 91564, Note_on_c, 13, 81, 0
17, 91573, Note_on_c, 13, 78, 127
17, 91671, Note_on_c, 13, 78, 0
17, 91680, Note_on_c, 13, 79, 127
17, 91780, Note_on_c, 13, 79, 0
17, 91800, Note_on_c, 13, 78, 127
17, 91900, Note_on_c, 13, 78, 0
17, 91920, Note_on_c, 13, 78, 127
17, 92020, Note_on_c, 13, 78, 0
17, 92040, Note_on_c, 13, 76, 127
17, 92140, Note_on_c, 13, 76, 0
17, 92160, Note_on_c, 13, 81, 127
17, 92203, Note_on_c, 13, 81, 0
17, 92204, Note_on_c, 13, 86, 127
17, 92247, Note_on_c, 13, 86, 0
17, 92248, Note_on_c, 13, 81, 127
17, 92291, Note_on_c, 13, 81, 0
17, 92292, Note_on_c, 13, 83, 127
17, 92335, Note_on_c, 13, 83, 0
17, 92336, Note_on_c, 13, 84, 127
17, 92379, Note_on_c, 13, 84, 0
17, 92380, Note_on_c, 13, 88, 127
17, 92423, Note_on_c, 13, 88, 0
17, 92424, Note_on_c, 13, 83, 127
17, 92467, Note_on_c, 13, 83, 0
17, 92468, Note_on_c, 13, 83, 127
17, 92511, Note_on_c, 13, 83, 0
17, 92512, Note_on_c, 13, 84, 127
17, 92555, Note_on_c, 13, 84, 0
17, 92556, Note_on_c, 13, 74, 127
17, 92599, Note_on_c, 13, 74, 0
17, 92600, Note_on_c, 13, 81, 127
17, 92640, Note_on_c, 13, 83, 127
17, 92643, Note_on_c, 13, 81, 0
17, 92683, Note_on_c, 13, 83, 0
17, 92684, Note_on_c, 13, 76, 127
17, 92727, Note_on_c, 13, 76, 0
17, 92728, Note_on_c, 13, 76, 127
17, 92771, Note_on_c, 13, 76, 0
17, 92772, Note_on_c, 13, 79, 127
17, 92815, Note_on_c, 13, 79, 0
17, 92816, Note_on_c, 13, 79, 127
17, 92859, Note_on_c, 13, 79, 0
17, 92860, Note_on_c, 13, 86, 127
17, 92903, Note_on_c, 13, 86, 0
17, 92904, Note_on_c, 13, 78, 127
17, 92947, Note_on_c, 13, 78, 0
17, 92948, Note_on_c, 13, 78, 127
17, 92991, Note_on_c, 13, 78, 0
17, 92992, Note_on_c, 13, 81, 127
17, 93035, Note_on_c, 13, 81, 0
17, 93036, Note_on_c, 13, 76, 127
17, 93079, Note_on_c, 13, 76, 0
17, 93080, Note_on_c, 13, 71, 127
17, 93120, Note_on_c, 13, 81, 127
17, 93123, Note_on_c, 13, 71, 0
17, 93190, Note_on_c, 13, 81, 0
17, 93280, Note_on_c, 13, 72, 127
17, 93350, Note_on_c, 13, 72, 0
17, 93440, Note_on_c, 13, 72, 127
17, 93510, Note_on_c, 13, 72, 0
17, 93600, Note_on_c, 13, 79, 127
17, 94560, Note_on_c, 13, 79, 0
17, 94800, Note_on_c, 13, 75, 127
17, 94996, Note_on_c, 13, 78, 76
17, 95000, Note_on_c, 13, 75, 0
17, 95019, Note_on_c, 13, 80, 99
17, 95028, Note_on_c, 13, 78, 0
17, 95040, Note_on_c, 13, 82, 127
17, 95049, Note_on_c, 13, 80, 0
17, 95164, Note_on_c, 13, 82, 0
17, 95200, Note_on_c, 13, 80, 127
17, 95324, Note_on_c, 13, 80, 0
17, 95360, Note_on_c, 13, 77, 127
17, 95484, Note_on_c, 13, 77, 0
17, 95520, Note_on_c, 13, 77, 127
17, 95584, Note_on_c, 13, 77, 0
17, 95610, Note_on_c, 13, 79, 127
17, 95674, Note_on_c, 13, 79, 0
17, 95700, Note_on_c, 13, 75, 127
17, 95764, Note_on_c, 13, 75, 0
17, 95790, Note_on_c, 13, 70, 127
17, 95854, Note_on_c, 13, 70, 0
17, 95880, Note_on_c, 13, 80, 127
17, 95944, Note_on_c, 13, 80, 0
17, 95966, Note_on_c, 13, 84, 127
17, 96009, Note_on_c, 13, 84, 0
17, 96052, Note_on_c, 13, 82, 127
17, 96095, Note_on_c, 13, 82, 0
17, 96137, Note_on_c, 13, 82, 127
17, 96180, Note_on_c, 13, 82, 0
17, 96223, Note_on_c, 13, 80, 127
17, 96266, Note_on_c, 13, 80, 0
17, 96309, Note_on_c, 13, 80, 127
17, 96352, Note_on_c, 13, 80, 0
17, 96394, Note_on_c, 13, 77, 127
17, 96437, Note_on_c, 13, 77, 0
17, 96480, Note_on_c, 13, 82, 127
17, 96524, Note_on_c, 13, 82, 0
17, 96567, Note_on_c, 13, 78, 127
17, 96611, Note_on_c, 13, 78, 0
17, 96655, Note_on_c, 13, 78, 127
17, 96699, Note_on_c, 13, 78, 0
17, 96742, Note_on_c, 13, 77, 127
17, 96786, Note_on_c, 13, 77, 0
17, 96830, Note_on_c, 13, 80, 127
17, 96874, Note_on_c, 13, 80, 0
17, 96917, Note_on_c, 13, 73, 127
17, 96961, Note_on_c, 13, 73, 0
17, 97004, Note_on_c, 13, 73, 127
17, 97048, Note_on_c, 13, 73, 0
17, 97092, Note_on_c, 13, 75, 127
17, 97136, Note_on_c, 13, 75, 0
17, 97179, Note_on_c, 13, 71, 127
17, 97223, Note_on_c, 13, 71, 0
17, 97266, Note_on_c, 13, 80, 127
17, 97310, Note_on_c, 13, 80, 0
17, 97353, Note_on_c, 13, 77, 127
17, 97397, Note_on_c, 13, 77, 0
17, 97440, Note_on_c, 13, 77, 127
17, 97484, Note_on_c, 13, 77, 0
17, 97527, Note_on_c, 13, 75, 127
17, 97571, Note_on_c, 13, 75, 0
17, 97615, Note_on_c, 13, 78, 127
17, 97659, Note_on_c, 13, 78, 0
17, 97702, Note_on_c, 13, 73, 127
17, 97746, Note_on_c, 13, 73, 0
17, 97789, Note_on_c, 13, 77, 127
17, 97833, Note_on_c, 13, 77, 0
17, 97877, Note_on_c, 13, 75, 127
17, 97921, Note_on_c, 13, 75, 0
17, 97964, Note_on_c, 13, 80, 127
17, 98008, Note_on_c, 13, 80, 0
17, 98051, Note_on_c, 13, 73, 127
17, 98095, Note_on_c, 13, 73, 0
17, 98139, Note_on_c, 13, 78, 127
17, 98183, Note_on_c, 13, 78, 0
17, 98226, Note_on_c, 13, 65, 127
17, 98270, Note_on_c, 13, 65, 0
17, 98313, Note_on_c, 13, 63, 127
17, 98357, Note_on_c, 13, 63, 0
17, 98400, Note_on_c, 13, 72, 127
17, 100290, Note_on_c, 13, 72, 0
17, 100320, Note_on_c, 13, 82, 127
17, 100364, Note_on_c, 13, 82, 0
17, 100407, Note_on_c, 13, 78, 127
17, 100451, Note_on_c, 13, 78, 0
17, 100495, Note_on_c, 13, 78, 127
17, 100539, Note_on_c, 13, 78, 0
17, 100582, Note_on_c, 13, 77, 127
17, 100626, Note_on_c, 13, 77, 0
17, 100670, Note_on_c, 13, 80, 127
17, 100714, Note_on_c, 13, 80, 0
17, 100757, Note_on_c, 13, 73, 127
17, 100801, Note_on_c, 13, 73, 0
17, 100844, Note_on_c, 13, 73, 127
17, 100888, Note_on_c, 13, 73, 0
17, 100932, Note_on_c, 13, 75, 127
17, 100976, Note_on_c, 13, 75, 0
17, 101019, Note_on_c, 13, 71, 127
17, 101063, Note_on_c, 13, 71, 0
17, 101106, Note_on_c, 13, 80, 127
17, 101150, Note_on_c, 13, 80, 0
17, 101193, Note_on_c, 13, 77, 127
17, 101237, Note_on_c, 13, 77, 0
17, 101280, Note_on_c, 13, 77, 127
17, 101324, Note_on_c, 13, 77, 0
17, 101367, Note_on_c, 13, 75, 127
17, 101411, Note_on_c, 13, 75, 0
17, 101455, Note_on_c, 13, 78, 127
17, 101499, Note_on_c, 13, 78, 0
17, 101542, Note_on_c, 13, 73, 127
17, 101586, Note_on_c, 13, 73, 0
17, 101629, Note_on_c, 13, 77, 127
17, 101673, Note_on_c, 13, 77, 0
17, 101717, Note_on_c, 13, 75, 127
17, 101761, Note_on_c, 13, 75, 0
17, 101804, Note_on_c, 13, 80, 127
17, 101848, Note_on_c, 13, 80, 0
17, 101891, Note_on_c, 13, 73, 127
17, 101935, Note_on_c, 13, 73, 0
17, 101979, Note_on_c, 13, 78, 127
17, 102023, Note_on_c, 13, 78, 0
17, 102066, Note_on_c, 13, 65, 127
17, 102110, Note_on_c, 13, 65, 0
17, 102153, Note_on_c, 13, 63, 127
17, 102197, Note_on_c, 13, 63, 0
17, 102240, Note_on_c, 13, 72, 127
17, 104160, Note_on_c, 13, 72, 0
17, 104160, Note_on_c, 13, 82, 127
17, 104204, Note_on_c, 13, 82, 0
17, 104247, Note_on_c, 13, 78, 127
17, 104291, Note_on_c, 13, 78, 0
17, 104335, Note_on_c, 13, 78, 127
17, 104379, Note_on_c, 13, 78, 0
17, 104422, Note_on_c, 13, 77, 127
17, 104466, Note_on_c, 13, 77, 0
17, 104510, Note_on_c, 13, 80, 127
17, 104554, Note_on_c, 13, 80, 0
17, 104597, Note_on_c, 13, 73, 127
17, 104641, Note_on_c, 13, 73, 0
17, 104684, Note_on_c, 13, 73, 127
17, 104728, Note_on_c, 13, 73, 0
17, 104772, Note_on_c, 13, 75, 127
17, 104816, Note_on_c, 13, 75, 0
17, 104859, Note_on_c, 13, 71, 127
17, 104903, Note_on_c, 13, 71, 0
17, 104946, Note_on_c, 13, 80, 127
17, 104990, Note_on_c, 13, 80, 0
17, 105033, Note_on_c, 13, 77, 127
17, 105077, Note_on_c, 13, 77, 0
17, 105120, Note_on_c, 13, 77, 127
17, 105164, Note_on_c, 13, 77, 0
17, 105207, Note_on_c, 13, 75, 127
17, 105251, Note_on_c, 13, 75, 0
17, 105295, Note_on_c, 13, 78, 127
17, 105339, Note_on_c, 13, 78, 0
17, 105382, Note_on_c, 13, 73, 127
17, 105426, Note_on_c, 13, 73, 0
17, 105469, Note_on_c, 13, 77, 127
17, 105513, Note_on_c, 13, 77, 0
17, 105557, Note_on_c, 13, 75, 127
17, 105601, Note_on_c, 13, 75, 0
17, 105644, Note_on_c, 13, 80, 127
17, 105688, Note_on_c, 13, 80, 0
17, 105731, Note_on_c, 13, 73, 127
17, 105775, Note_on_c, 13, 73, 0
17, 105819, Note_on_c, 13, 78, 127
17, 105863, Note_on_c, 13, 78, 0
17, 105906, Note_on_c, 13, 65, 127
17, 105950, Note_on_c, 13, 65, 0
17, 105993, Note_on_c, 13, 63, 127
17, 106037, Note_on_c, 13, 63, 0
17, 106037, End_track
18, 0, Start_track
18, 0, MIDI_port, 0
18, 0, Title_t, "Overdub"
18, 0, Program_c, 14, 29
18, 0, Control_c, 14, 7, 77
18, 0, Control_c, 14, 10, 22
18, 8175, Note_on_c, 14, 55, 95
18, 8189, Note_on_c, 14, 50, 89
18, 11758, Note_on_c, 14, 50, 0
18, 11778, Note_on_c, 14, 55, 0
18, 11975, Note_on_c, 14, 53, 99
18, 11975, Note_on_c, 14, 58, 119
18, 15646, Note_on_c, 14, 58, 0
18, 15668, Note_on_c, 14, 53, 0
18, 15845, Note_on_c, 14, 50, 93
18, 15845, Note_on_c, 14, 55, 95
18, 19497, Note_on_c, 14, 50, 0
18, 19516, Note_on_c, 14, 55, 0
18, 19694, Note_on_c, 14, 58, 119
18, 19697, Note_on_c, 14, 53, 103
18, 23349, Note_on_c, 14, 58, 0
18, 23355, Note_on_c, 14, 53, 0
18, 23510, Note_on_c, 14, 55, 91
18, 23515, Note_on_c, 14, 50, 89
18, 27101, Note_on_c, 14, 50, 0
18, 27131, Note_on_c, 14, 55, 0
18, 27342, Note_on_c, 14, 53, 87
18, 27342, Note_on_c, 14, 58, 87
18, 30983, Note_on_c, 14, 58, 0
18, 30983, Note_on_c, 14, 53, 0
18, 31199, Note_on_c, 14, 55, 93
18, 31202, Note_on_c, 14, 50, 85
18, 34766, Note_on_c, 14, 50, 0
18, 34807, Note_on_c, 14, 55, 0
18, 35040, Note_on_c, 14, 53, 87
18, 35040, Note_on_c, 14, 58, 99
18, 37889, Note_on_c, 14, 58, 0
18, 37895, Note_on_c, 14, 53, 0
18, 58097, Note_on_c, 14, 49, 127
18, 58097, Note_on_c, 14, 54, 127
18, 61673, Note_on_c, 14, 49, 0
18, 61696, Note_on_c, 14, 54, 0
18, 61911, Note_on_c, 14, 53, 127
18, 61911, Note_on_c, 14, 58, 127
18, 65574, Note_on_c, 14, 58, 0
18, 65577, Note_on_c, 14, 53, 0
18, 65741, Note_on_c, 14, 50, 119
18, 65741, Note_on_c, 14, 55, 115
18, 65744, Note_on_c, 14, 52, 103
18, 65751, Note_on_c, 14, 52, 0
18, 69321, Note_on_c, 14, 50, 0
18, 69343, Note_on_c, 14, 55, 0
18, 69588, Note_on_c, 14, 53, 119
18, 69590, Note_on_c, 14, 58, 127
18, 73267, Note_on_c, 14, 58, 0
18, 73276, Note_on_c, 14, 53, 0
18, 73437, Note_on_c, 14, 55, 111
18, 73441, Note_on_c, 14, 50, 93
18, 73441, Note_on_c, 14, 52, 85
18, 73452, Note_on_c, 14, 52, 0
18, 76987, Note_on_c, 14, 50, 0
18, 77017, Note_on_c, 14, 55, 0
18, 77277, Note_on_c, 14, 53, 127
18, 77277, Note_on_c, 14, 58, 127
18, 80144, Note_on_c, 14, 58, 0
18, 80144, Note_on_c, 14, 53, 0
18, 80144, End_track
19, 0, Start_track
19, 0, MIDI_port, 0
19, 0, Title_t, "Piano"
19, 0, Program_c, 15, 0
19, 0, Control_c, 15, 7, 87
19, 0, Control_c, 15, 10, 84
19, 27824, Note_on_c, 15, 65, 119
19, 27828, Note_on_c, 15, 62, 103
19, 27828, Note_on_c, 15, 69, 115
19, 28357, Note_on_c, 15, 62, 0
19, 28361, Note_on_c, 15, 65, 0
19, 28375, Note_on_c, 15, 69, 0
19, 28553, Note_on_c, 15, 74, 103
19, 28553, Note_on_c, 15, 77, 127
19, 28553, Note_on_c, 15, 81, 123
19, 29599, Note_on_c, 15, 77, 0
19, 29602, Note_on_c, 15, 81, 0
19, 29602, Note_on_c, 15, 74, 0
19, 29752, Note_on_c, 15, 74, 103
19, 29752, Note_on_c, 15, 77, 127
19, 29756, Note_on_c, 15, 81, 119
19, 30504, Note_on_c, 15, 81, 0
19, 30504, Note_on_c, 15, 77, 0
19, 30513, Note_on_c, 15, 74, 0
19, 30735, Note_on_c, 15, 65, 127
19, 30740, Note_on_c, 15, 62, 99
19, 30740, Note_on_c, 15, 69, 115
19, 31078, Note_on_c, 15, 65, 0
19, 31085, Note_on_c, 15, 69, 0
19, 31085, Note_on_c, 15, 62, 0
19, 32013, Note_on_c, 15, 60, 37
19, 32041, Note_on_c, 15, 62, 28
19, 32071, Note_on_c, 15, 60, 0
19, 32073, Note_on_c, 15, 64, 36
19, 32092, Note_on_c, 15, 65, 64
19, 32096, Note_on_c, 15, 62, 0
19, 32106, Note_on_c, 15, 64, 0
19, 32106, Note_on_c, 15, 67, 79
19, 32121, Note_on_c, 15, 65, 0
19, 32121, Note_on_c, 15, 69, 93
19, 32140, Note_on_c, 15, 67, 0
19, 32140, Note_on_c, 15, 71, 95
19, 32140, Note_on_c, 15, 72, 99
19, 32143, Note_on_c, 15, 69, 0
19, 32152, Note_on_c, 15, 71, 0
19, 32152, Note_on_c, 15, 74, 99
19, 32159, Note_on_c, 15, 72, 0
19, 32159, Note_on_c, 15, 76, 95
19, 32195, Note_on_c, 15, 76, 0
19, 32195, Note_on_c, 15, 74, 0
19, 32195, Note_on_c, 15, 79, 95
19, 32195, Note_on_c, 15, 81, 99
19, 32209, Note_on_c, 15, 79, 0
19, 32211, Note_on_c, 15, 83, 83
19, 32226, Note_on_c, 15, 81, 0
19, 32572, Note_on_c, 15, 83, 0
19, 34557, Note_on_c, 15, 76, 127
19, 34664, Note_on_c, 15, 76, 0
19, 35401, Note_on_c, 15, 53, 79
19, 35440, Note_on_c, 15, 58, 91
19, 35473, Note_on_c, 15, 61, 111
19, 36305, Note_on_c, 15, 53, 0
19, 36314, Note_on_c, 15, 58, 0
19, 36321, Note_on_c, 15, 61, 0
19, 36379, Note_on_c, 15, 53, 91
19, 36420, Note_on_c, 15, 58, 81
19, 36457, Note_on_c, 15, 61, 81
19, 37625, Note_on_c, 15, 58, 0
19, 37632, Note_on_c, 15, 61, 0
19, 37635, Note_on_c, 15, 53, 0
19, 38241, Note_on_c, 15, 58, 119
19, 38259, Note_on_c, 15, 53, 93
19, 38259, Note_on_c, 15, 61, 99
19, 38414, Note_on_c, 15, 61, 0
19, 38414, Note_on_c, 15, 58, 0
19, 38434, Note_on_c, 15, 53, 0
19, 38877, Note_on_c, 15, 61, 119
19, 38877, Note_on_c, 15, 64, 99
19, 38879, Note_on_c, 15, 57, 83
19, 39208, Note_on_c, 15, 57, 0
19, 39208, Note_on_c, 15, 61, 0
19, 39229, Note_on_c, 15, 64, 0
19, 39270, Note_on_c, 15, 57, 87
19, 39314, Note_on_c, 15, 61, 91
19, 39351, Note_on_c, 15, 64, 93
19, 39757, Note_on_c, 15, 61, 0
19, 39770, Note_on_c, 15, 64, 0
19, 39770, Note_on_c, 15, 57, 0
19, 39848, Note_on_c, 15, 57, 103
19, 39848, Note_on_c, 15, 61, 127
19, 39849, Note_on_c, 15, 64, 119
19, 40777, Note_on_c, 15, 61, 0
19, 40790, Note_on_c, 15, 64, 0
19, 40790, Note_on_c, 15, 57, 0
19, 43697, Note_on_c, 15, 57, 119
19, 43699, Note_on_c, 15, 62, 123
19, 43702, Note_on_c, 15, 61, 127
19, 43704, Note_on_c, 15, 64, 115
19, 44511, Note_on_c, 15, 61, 0
19, 44523, Note_on_c, 15, 64, 0
19, 44527, Note_on_c, 15, 57, 0
19, 44532, Note_on_c, 15, 62, 0
19, 44617, Note_on_c, 15, 57, 107
19, 44617, Note_on_c, 15, 62, 111
19, 44629, Note_on_c, 15, 61, 127
19, 44629, Note_on_c, 15, 64, 111
19, 45459, Note_on_c, 15, 61, 0
19, 45471, Note_on_c, 15, 64, 0
19, 45486, Note_on_c, 15, 57, 0
19, 45489, Note_on_c, 15, 62, 0
19, 45555, Note_on_c, 15, 61, 127
19, 45555, Note_on_c, 15, 64, 111
19, 45595, Note_on_c, 15, 57, 99
19, 45599, Note_on_c, 15, 62, 107
19, 46416, Note_on_c, 15, 62, 0
19, 46416, Note_on_c, 15, 57, 0
19, 46423, Note_on_c, 15, 61, 0
19, 46439, Note_on_c, 15, 64, 0
19, 46535, Note_on_c, 15, 61, 127
19, 46535, Note_on_c, 15, 64, 115
19, 46537, Note_on_c, 15, 57, 99
19, 46544, Note_on_c, 15, 62, 107
19, 47117, Note_on_c, 15, 62, 0
19, 47129, Note_on_c, 15, 57, 0
19, 47372, Note_on_c, 15, 61, 0
19, 47391, Note_on_c, 15, 64, 0
19, 47503, Note_on_c, 15, 57, 93
19, 47508, Note_on_c, 15, 61, 127
19, 47664, Note_on_c, 15, 57, 0
19, 47667, Note_on_c, 15, 61, 0
19, 47751, Note_on_c, 15, 61, 127
19, 47754, Note_on_c, 15, 64, 115
19, 48037, Note_on_c, 15, 61, 0
19, 48053, Note_on_c, 15, 64, 0
19, 48135, Note_on_c, 15, 66, 127
19, 48140, Note_on_c, 15, 62, 127
19, 48320, Note_on_c, 15, 62, 0
19, 48329, Note_on_c, 15, 66, 0
19, 48492, Note_on_c, 15, 61, 127
19, 48492, Note_on_c, 15, 64, 119
19, 48494, Note_on_c, 15, 57, 115
19, 48494, Note_on_c, 15, 62, 115
19, 49317, Note_on_c, 15, 61, 0
19, 49333, Note_on_c, 15, 64, 0
19, 49361, Note_on_c, 15, 57, 0
19, 49361, Note_on_c, 15, 62, 0
19, 49441, Note_on_c, 15, 57, 99
19, 49441, Note_on_c, 15, 62, 107
19, 49466, Note_on_c, 15, 61, 127
19, 49466, Note_on_c, 15, 64, 119
19, 50262, Note_on_c, 15, 61, 0
19, 50275, Note_on_c, 15, 64, 0
19, 50280, Note_on_c, 15, 57, 0
19, 50305, Note_on_c, 15, 62, 0
19, 50384, Note_on_c, 15, 61, 127
19, 50384, Note_on_c, 15, 64, 111
19, 50395, Note_on_c, 15, 57, 95
19, 50401, Note_on_c, 15, 62, 99
19, 51205, Note_on_c, 15, 57, 0
19, 51217, Note_on_c, 15, 62, 0
19, 51240, Note_on_c, 15, 61, 0
19, 51265, Note_on_c, 15, 64, 0
19, 51352, Note_on_c, 15, 57, 99
19, 51352, Note_on_c, 15, 62, 103
19, 51353, Note_on_c, 15, 61, 127
19, 51353, Note_on_c, 15, 64, 111
19, 52203, Note_on_c, 15, 61, 0
19, 52216, Note_on_c, 15, 64, 0
19, 52294, Note_on_c, 15, 62, 0
19, 52294, Note_on_c, 15, 57, 0
19, 52296, Note_on_c, 15, 57, 107
19, 52296, Note_on_c, 15, 62, 111
19, 52320, Note_on_c, 15, 61, 127
19, 52320, Note_on_c, 15, 64, 115
19, 53117, Note_on_c, 15, 62, 0
19, 53117, Note_on_c, 15, 57, 0
19, 53193, Note_on_c, 15, 61, 0
19, 53208, Note_on_c, 15, 64, 0
19, 53278, Note_on_c, 15, 57, 119
19, 53278, Note_on_c, 15, 62, 119
19, 53307, Note_on_c, 15, 61, 127
19, 53307, Note_on_c, 15, 64, 115
19, 54077, Note_on_c, 15, 57, 0
19, 54080, Note_on_c, 15, 62, 0
19, 54111, Note_on_c, 15, 61, 0
19, 54124, Note_on_c, 15, 64, 0
19, 54230, Note_on_c, 15, 61, 127
19, 54230, Note_on_c, 15, 64, 119
19, 54233, Note_on_c, 15, 57, 119
19, 54233, Note_on_c, 15, 62, 123
19, 55179, Note_on_c, 15, 62, 0
19, 55181, Note_on_c, 15, 57, 0
19, 55965, Note_on_c, 15, 61, 0
19, 56000, Note_on_c, 15, 64, 0
19, 56151, Note_on_c, 15, 61, 127
19, 56151, Note_on_c, 15, 64, 119
19, 56161, Note_on_c, 15, 57, 107
19, 56161, Note_on_c, 15, 62, 115
19, 57242, Note_on_c, 15, 62, 0
19, 57242, Note_on_c, 15, 57, 0
19, 57635, Note_on_c, 15, 61, 0
19, 57647, Note_on_c, 15, 64, 0
19, 58103, Note_on_c, 15, 63, 127
19, 58103, Note_on_c, 15, 66, 127
19, 59977, Note_on_c, 15, 66, 0
19, 59977, Note_on_c, 15, 63, 0
19, 59977, End_track
0, 0, End_of_file
