0, 0, Header, 1, 12, 120
1, 0, Start_track
1, 0, Time_signature, 4, 2, 24, 8
1, 0, Key_signature, 0, "major"
1, 0, Tempo, 722892
1, 12960, Marker_t, "Guitar solo"
1, 12960, End_track
2, 0, Start_track
2, 0, MIDI_port, 2
2, 0, Title_t, "Bass"
2, 0, Program_c, 0, 35
2, 0, Control_c, 0, 7, 85
2, 0, Control_c, 0, 10, 64
2, 120, Control_c, 0, 11, 127
2, 120, Control_c, 0, 91, 30
2, 120, Control_c, 0, 93, 40
2, 478, Note_on_c, 0, 26, 87
2, 556, Note_on_c, 0, 26, 0
2, 572, Note_on_c, 0, 26, 75
2, 596, Note_on_c, 0, 26, 0
2, 601, Note_on_c, 0, 29, 84
2, 659, Note_on_c, 0, 29, 0
2, 661, Note_on_c, 0, 31, 87
2, 798, Channel_aftertouch_c, 0, 3
2, 799, Channel_aftertouch_c, 0, 4
2, 802, Channel_aftertouch_c, 0, 6
2, 803, Channel_aftertouch_c, 0, 7
2, 805, Channel_aftertouch_c, 0, 10
2, 806, Channel_aftertouch_c, 0, 12
2, 807, Channel_aftertouch_c, 0, 13
2, 809, Channel_aftertouch_c, 0, 15
2, 810, Channel_aftertouch_c, 0, 16
2, 812, Channel_aftertouch_c, 0, 18
2, 816, Channel_aftertouch_c, 0, 19
2, 822, Channel_aftertouch_c, 0, 18
2, 823, Channel_aftertouch_c, 0, 16
2, 824, Channel_aftertouch_c, 0, 15
2, 824, Channel_aftertouch_c, 0, 12
2, 825, Channel_aftertouch_c, 0, 9
2, 826, Channel_aftertouch_c, 0, 5
2, 826, Channel_aftertouch_c, 0, 1
2, 827, Channel_aftertouch_c, 0, 0
2, 958, Note_on_c, 0, 31, 0
2, 961, Note_on_c, 0, 26, 94
2, 1027, Note_on_c, 0, 26, 0
2, 1052, Note_on_c, 0, 26, 87
2, 1075, Note_on_c, 0, 26, 0
2, 1081, Note_on_c, 0, 29, 84
2, 1141, Note_on_c, 0, 31, 84
2, 1146, Note_on_c, 0, 29, 0
2, 1277, Channel_aftertouch_c, 0, 1
2, 1278, Channel_aftertouch_c, 0, 4
2, 1280, Channel_aftertouch_c, 0, 7
2, 1281, Channel_aftertouch_c, 0, 9
2, 1283, Channel_aftertouch_c, 0, 12
2, 1284, Channel_aftertouch_c, 0, 13
2, 1286, Channel_aftertouch_c, 0, 15
2, 1290, Channel_aftertouch_c, 0, 16
2, 1292, Channel_aftertouch_c, 0, 18
2, 1295, Channel_aftertouch_c, 0, 19
2, 1298, Channel_aftertouch_c, 0, 22
2, 1306, Channel_aftertouch_c, 0, 24
2, 1309, Channel_aftertouch_c, 0, 21
2, 1311, Channel_aftertouch_c, 0, 19
2, 1312, Channel_aftertouch_c, 0, 18
2, 1314, Channel_aftertouch_c, 0, 15
2, 1315, Channel_aftertouch_c, 0, 13
2, 1316, Channel_aftertouch_c, 0, 12
2, 1316, Channel_aftertouch_c, 0, 9
2, 1317, Channel_aftertouch_c, 0, 6
2, 1318, Channel_aftertouch_c, 0, 4
2, 1319, Channel_aftertouch_c, 0, 1
2, 1319, Channel_aftertouch_c, 0, 0
2, 1434, Note_on_c, 0, 31, 0
2, 1439, Note_on_c, 0, 26, 94
2, 1515, Note_on_c, 0, 26, 0
2, 1532, Note_on_c, 0, 26, 75
2, 1555, Note_on_c, 0, 26, 0
2, 1561, Note_on_c, 0, 29, 87
2, 1621, Note_on_c, 0, 31, 79
2, 1622, Note_on_c, 0, 29, 0
2, 1758, Channel_aftertouch_c, 0, 1
2, 1759, Channel_aftertouch_c, 0, 4
2, 1759, Channel_aftertouch_c, 0, 7
2, 1760, Channel_aftertouch_c, 0, 9
2, 1761, Channel_aftertouch_c, 0, 10
2, 1762, Channel_aftertouch_c, 0, 13
2, 1762, Channel_aftertouch_c, 0, 15
2, 1763, Channel_aftertouch_c, 0, 16
2, 1764, Channel_aftertouch_c, 0, 18
2, 1764, Channel_aftertouch_c, 0, 19
2, 1766, Channel_aftertouch_c, 0, 22
2, 1767, Channel_aftertouch_c, 0, 24
2, 1768, Channel_aftertouch_c, 0, 25
2, 1769, Channel_aftertouch_c, 0, 28
2, 1771, Channel_aftertouch_c, 0, 31
2, 1771, Channel_aftertouch_c, 0, 33
2, 1772, Channel_aftertouch_c, 0, 36
2, 1773, Channel_aftertouch_c, 0, 39
2, 1773, Channel_aftertouch_c, 0, 40
2, 1774, Channel_aftertouch_c, 0, 42
2, 1775, Channel_aftertouch_c, 0, 43
2, 1776, Channel_aftertouch_c, 0, 46
2, 1778, Channel_aftertouch_c, 0, 49
2, 1779, Channel_aftertouch_c, 0, 51
2, 1780, Channel_aftertouch_c, 0, 52
2, 1782, Channel_aftertouch_c, 0, 54
2, 1789, Channel_aftertouch_c, 0, 55
2, 1802, Channel_aftertouch_c, 0, 54
2, 1804, Channel_aftertouch_c, 0, 51
2, 1806, Channel_aftertouch_c, 0, 49
2, 1807, Channel_aftertouch_c, 0, 46
2, 1808, Channel_aftertouch_c, 0, 45
2, 1809, Channel_aftertouch_c, 0, 43
2, 1810, Channel_aftertouch_c, 0, 42
2, 1811, Channel_aftertouch_c, 0, 39
2, 1812, Channel_aftertouch_c, 0, 37
2, 1813, Channel_aftertouch_c, 0, 36
2, 1813, Channel_aftertouch_c, 0, 34
2, 1815, Channel_aftertouch_c, 0, 31
2, 1816, Channel_aftertouch_c, 0, 27
2, 1817, Channel_aftertouch_c, 0, 24
2, 1818, Channel_aftertouch_c, 0, 21
2, 1819, Channel_aftertouch_c, 0, 18
2, 1819, Channel_aftertouch_c, 0, 15
2, 1820, Channel_aftertouch_c, 0, 11
2, 1821, Channel_aftertouch_c, 0, 7
2, 1822, Channel_aftertouch_c, 0, 4
2, 1822, Channel_aftertouch_c, 0, 0
2, 1916, Note_on_c, 0, 31, 0
2, 1921, Note_on_c, 0, 26, 94
2, 1989, Note_on_c, 0, 26, 0
2, 2011, Note_on_c, 0, 26, 84
2, 2036, Note_on_c, 0, 26, 0
2, 2041, Note_on_c, 0, 29, 84
2, 2100, Note_on_c, 0, 31, 94
2, 2106, Note_on_c, 0, 29, 0
2, 2324, Note_on_c, 0, 31, 0
2, 2338, Note_on_c, 0, 33, 69
2, 2340, Channel_aftertouch_c, 0, 1
2, 2341, Channel_aftertouch_c, 0, 0
2, 2343, Channel_aftertouch_c, 0, 1
2, 2343, Channel_aftertouch_c, 0, 3
2, 2345, Channel_aftertouch_c, 0, 0
2, 2369, Channel_aftertouch_c, 0, 1
2, 2371, Channel_aftertouch_c, 0, 4
2, 2374, Channel_aftertouch_c, 0, 0
2, 2399, Note_on_c, 0, 33, 0
2, 2400, Note_on_c, 0, 38, 72
2, 2460, Note_on_c, 0, 53, 51
2, 2491, Note_on_c, 0, 53, 0
2, 2491, Note_on_c, 0, 52, 42
2, 2519, Note_on_c, 0, 52, 0
2, 2521, Note_on_c, 0, 53, 63
2, 2546, Channel_aftertouch_c, 0, 4
2, 2546, Channel_aftertouch_c, 0, 7
2, 2547, Channel_aftertouch_c, 0, 11
2, 2548, Channel_aftertouch_c, 0, 15
2, 2549, Channel_aftertouch_c, 0, 19
2, 2550, Channel_aftertouch_c, 0, 23
2, 2550, Channel_aftertouch_c, 0, 27
2, 2551, Channel_aftertouch_c, 0, 31
2, 2552, Channel_aftertouch_c, 0, 35
2, 2552, Channel_aftertouch_c, 0, 39
2, 2553, Channel_aftertouch_c, 0, 43
2, 2554, Channel_aftertouch_c, 0, 46
2, 2555, Channel_aftertouch_c, 0, 49
2, 2555, Channel_aftertouch_c, 0, 52
2, 2556, Channel_aftertouch_c, 0, 55
2, 2557, Channel_aftertouch_c, 0, 57
2, 2557, Channel_aftertouch_c, 0, 60
2, 2558, Channel_aftertouch_c, 0, 61
2, 2559, Channel_aftertouch_c, 0, 63
2, 2560, Channel_aftertouch_c, 0, 66
2, 2560, Channel_aftertouch_c, 0, 67
2, 2561, Channel_aftertouch_c, 0, 69
2, 2562, Channel_aftertouch_c, 0, 70
2, 2563, Channel_aftertouch_c, 0, 72
2, 2568, Channel_aftertouch_c, 0, 73
2, 2571, Channel_aftertouch_c, 0, 76
2, 2573, Channel_aftertouch_c, 0, 78
2, 2580, Channel_aftertouch_c, 0, 74
2, 2580, Channel_aftertouch_c, 0, 72
2, 2581, Channel_aftertouch_c, 0, 69
2, 2582, Channel_aftertouch_c, 0, 66
2, 2582, Channel_aftertouch_c, 0, 62
2, 2583, Channel_aftertouch_c, 0, 58
2, 2584, Channel_aftertouch_c, 0, 55
2, 2585, Channel_aftertouch_c, 0, 52
2, 2586, Channel_aftertouch_c, 0, 48
2, 2586, Channel_aftertouch_c, 0, 44
2, 2587, Channel_aftertouch_c, 0, 40
2, 2588, Channel_aftertouch_c, 0, 36
2, 2589, Channel_aftertouch_c, 0, 32
2, 2589, Channel_aftertouch_c, 0, 28
2, 2590, Channel_aftertouch_c, 0, 24
2, 2591, Channel_aftertouch_c, 0, 20
2, 2592, Channel_aftertouch_c, 0, 16
2, 2592, Channel_aftertouch_c, 0, 12
2, 2593, Channel_aftertouch_c, 0, 8
2, 2594, Channel_aftertouch_c, 0, 4
2, 2594, Channel_aftertouch_c, 0, 0
2, 2616, Note_on_c, 0, 53, 0
2, 2641, Note_on_c, 0, 53, 65
2, 2671, Note_on_c, 0, 52, 54
2, 2672, Note_on_c, 0, 53, 0
2, 2696, Note_on_c, 0, 52, 0
2, 2703, Note_on_c, 0, 53, 69
2, 2784, Channel_aftertouch_c, 0, 3
2, 2784, Channel_aftertouch_c, 0, 4
2, 2785, Channel_aftertouch_c, 0, 6
2, 2786, Channel_aftertouch_c, 0, 9
2, 2787, Channel_aftertouch_c, 0, 12
2, 2788, Channel_aftertouch_c, 0, 13
2, 2788, Channel_aftertouch_c, 0, 16
2, 2789, Channel_aftertouch_c, 0, 18
2, 2790, Channel_aftertouch_c, 0, 21
2, 2790, Channel_aftertouch_c, 0, 22
2, 2791, Channel_aftertouch_c, 0, 24
2, 2792, Channel_aftertouch_c, 0, 25
2, 2793, Channel_aftertouch_c, 0, 28
2, 2795, Channel_aftertouch_c, 0, 30
2, 2796, Channel_aftertouch_c, 0, 31
2, 2798, Channel_aftertouch_c, 0, 33
2, 2799, Channel_aftertouch_c, 0, 34
2, 2801, Channel_aftertouch_c, 0, 36
2, 2803, Channel_aftertouch_c, 0, 39
2, 2807, Channel_aftertouch_c, 0, 40
2, 2816, Note_on_c, 0, 38, 0
2, 2816, Channel_aftertouch_c, 0, 39
2, 2817, Channel_aftertouch_c, 0, 37
2, 2819, Note_on_c, 0, 33, 74
2, 2819, Channel_aftertouch_c, 0, 34
2, 2820, Channel_aftertouch_c, 0, 33
2, 2822, Channel_aftertouch_c, 0, 31
2, 2824, Channel_aftertouch_c, 0, 33
2, 2826, Channel_aftertouch_c, 0, 31
2, 2827, Channel_aftertouch_c, 0, 28
2, 2827, Channel_aftertouch_c, 0, 25
2, 2828, Channel_aftertouch_c, 0, 22
2, 2829, Channel_aftertouch_c, 0, 21
2, 2829, Channel_aftertouch_c, 0, 18
2, 2835, Channel_aftertouch_c, 0, 16
2, 2839, Channel_aftertouch_c, 0, 15
2, 2841, Channel_aftertouch_c, 0, 13
2, 2841, Channel_aftertouch_c, 0, 10
2, 2842, Channel_aftertouch_c, 0, 9
2, 2843, Channel_aftertouch_c, 0, 6
2, 2843, Channel_aftertouch_c, 0, 4
2, 2844, Channel_aftertouch_c, 0, 1
2, 2845, Channel_aftertouch_c, 0, 0
2, 2874, Note_on_c, 0, 33, 0
2, 2880, Note_on_c, 0, 38, 79
2, 2884, Channel_aftertouch_c, 0, 4
2, 2885, Channel_aftertouch_c, 0, 8
2, 2886, Channel_aftertouch_c, 0, 12
2, 2886, Channel_aftertouch_c, 0, 16
2, 2887, Channel_aftertouch_c, 0, 20
2, 2888, Channel_aftertouch_c, 0, 24
2, 2889, Channel_aftertouch_c, 0, 28
2, 2890, Channel_aftertouch_c, 0, 32
2, 2890, Channel_aftertouch_c, 0, 36
2, 2891, Channel_aftertouch_c, 0, 40
2, 2892, Channel_aftertouch_c, 0, 44
2, 2892, Channel_aftertouch_c, 0, 48
2, 2893, Channel_aftertouch_c, 0, 52
2, 2894, Channel_aftertouch_c, 0, 56
2, 2895, Channel_aftertouch_c, 0, 60
2, 2895, Channel_aftertouch_c, 0, 58
2, 2897, Channel_aftertouch_c, 0, 57
2, 2898, Channel_aftertouch_c, 0, 54
2, 2899, Channel_aftertouch_c, 0, 52
2, 2903, Channel_aftertouch_c, 0, 54
2, 2904, Channel_aftertouch_c, 0, 57
2, 2905, Channel_aftertouch_c, 0, 60
2, 2906, Note_on_c, 0, 53, 0
2, 2907, Channel_aftertouch_c, 0, 63
2, 2909, Channel_aftertouch_c, 0, 66
2, 2911, Channel_aftertouch_c, 0, 67
2, 2912, Channel_aftertouch_c, 0, 69
2, 2914, Channel_aftertouch_c, 0, 70
2, 2916, Channel_aftertouch_c, 0, 69
2, 2917, Channel_aftertouch_c, 0, 67
2, 2917, Channel_aftertouch_c, 0, 66
2, 2918, Channel_aftertouch_c, 0, 64
2, 2919, Channel_aftertouch_c, 0, 61
2, 2921, Channel_aftertouch_c, 0, 60
2, 2925, Channel_aftertouch_c, 0, 58
2, 2936, Channel_aftertouch_c, 0, 57
2, 2937, Channel_aftertouch_c, 0, 55
2, 2939, Channel_aftertouch_c, 0, 52
2, 2939, Channel_aftertouch_c, 0, 51
2, 2940, Channel_aftertouch_c, 0, 49
2, 2940, Note_on_c, 0, 53, 65
2, 2941, Channel_aftertouch_c, 0, 46
2, 2942, Channel_aftertouch_c, 0, 43
2, 2942, Channel_aftertouch_c, 0, 40
2, 2943, Channel_aftertouch_c, 0, 37
2, 2944, Channel_aftertouch_c, 0, 34
2, 2945, Channel_aftertouch_c, 0, 30
2, 2945, Channel_aftertouch_c, 0, 26
2, 2946, Channel_aftertouch_c, 0, 22
2, 2947, Channel_aftertouch_c, 0, 18
2, 2947, Channel_aftertouch_c, 0, 14
2, 2948, Channel_aftertouch_c, 0, 10
2, 2949, Channel_aftertouch_c, 0, 6
2, 2950, Channel_aftertouch_c, 0, 2
2, 2950, Channel_aftertouch_c, 0, 0
2, 2970, Note_on_c, 0, 52, 44
2, 2972, Note_on_c, 0, 53, 0
2, 2994, Note_on_c, 0, 52, 0
2, 3001, Note_on_c, 0, 53, 63
2, 3020, Channel_aftertouch_c, 0, 4
2, 3020, Channel_aftertouch_c, 0, 7
2, 3021, Channel_aftertouch_c, 0, 10
2, 3022, Channel_aftertouch_c, 0, 14
2, 3023, Channel_aftertouch_c, 0, 18
2, 3023, Channel_aftertouch_c, 0, 22
2, 3024, Channel_aftertouch_c, 0, 25
2, 3025, Channel_aftertouch_c, 0, 29
2, 3026, Channel_aftertouch_c, 0, 33
2, 3027, Channel_aftertouch_c, 0, 36
2, 3027, Channel_aftertouch_c, 0, 39
2, 3028, Channel_aftertouch_c, 0, 42
2, 3029, Channel_aftertouch_c, 0, 45
2, 3029, Channel_aftertouch_c, 0, 48
2, 3030, Channel_aftertouch_c, 0, 49
2, 3031, Channel_aftertouch_c, 0, 51
2, 3032, Channel_aftertouch_c, 0, 54
2, 3032, Channel_aftertouch_c, 0, 55
2, 3034, Channel_aftertouch_c, 0, 57
2, 3035, Channel_aftertouch_c, 0, 60
2, 3037, Channel_aftertouch_c, 0, 61
2, 3038, Channel_aftertouch_c, 0, 63
2, 3041, Channel_aftertouch_c, 0, 66
2, 3042, Channel_aftertouch_c, 0, 67
2, 3045, Channel_aftertouch_c, 0, 69
2, 3049, Channel_aftertouch_c, 0, 70
2, 3052, Channel_aftertouch_c, 0, 69
2, 3054, Channel_aftertouch_c, 0, 66
2, 3054, Channel_aftertouch_c, 0, 63
2, 3055, Channel_aftertouch_c, 0, 61
2, 3056, Channel_aftertouch_c, 0, 60
2, 3057, Channel_aftertouch_c, 0, 57
2, 3057, Channel_aftertouch_c, 0, 55
2, 3058, Channel_aftertouch_c, 0, 52
2, 3059, Channel_aftertouch_c, 0, 51
2, 3060, Channel_aftertouch_c, 0, 48
2, 3061, Channel_aftertouch_c, 0, 46
2, 3061, Channel_aftertouch_c, 0, 45
2, 3062, Channel_aftertouch_c, 0, 42
2, 3063, Channel_aftertouch_c, 0, 38
2, 3064, Channel_aftertouch_c, 0, 34
2, 3064, Channel_aftertouch_c, 0, 31
2, 3065, Channel_aftertouch_c, 0, 27
2, 3066, Channel_aftertouch_c, 0, 23
2, 3066, Channel_aftertouch_c, 0, 19
2, 3067, Channel_aftertouch_c, 0, 15
2, 3068, Channel_aftertouch_c, 0, 11
2, 3069, Channel_aftertouch_c, 0, 7
2, 3069, Channel_aftertouch_c, 0, 3
2, 3070, Channel_aftertouch_c, 0, 0
2, 3096, Note_on_c, 0, 53, 0
2, 3119, Note_on_c, 0, 53, 59
2, 3150, Note_on_c, 0, 52, 58
2, 3153, Note_on_c, 0, 53, 0
2, 3178, Note_on_c, 0, 52, 0
2, 3181, Note_on_c, 0, 53, 59
2, 3207, Channel_aftertouch_c, 0, 3
2, 3208, Channel_aftertouch_c, 0, 6
2, 3208, Channel_aftertouch_c, 0, 9
2, 3209, Channel_aftertouch_c, 0, 12
2, 3210, Channel_aftertouch_c, 0, 15
2, 3211, Channel_aftertouch_c, 0, 18
2, 3211, Channel_aftertouch_c, 0, 21
2, 3212, Channel_aftertouch_c, 0, 25
2, 3213, Channel_aftertouch_c, 0, 28
2, 3214, Channel_aftertouch_c, 0, 30
2, 3215, Channel_aftertouch_c, 0, 33
2, 3215, Channel_aftertouch_c, 0, 36
2, 3216, Channel_aftertouch_c, 0, 37
2, 3217, Channel_aftertouch_c, 0, 40
2, 3217, Channel_aftertouch_c, 0, 42
2, 3218, Channel_aftertouch_c, 0, 43
2, 3219, Channel_aftertouch_c, 0, 45
2, 3220, Channel_aftertouch_c, 0, 48
2, 3220, Channel_aftertouch_c, 0, 49
2, 3222, Channel_aftertouch_c, 0, 52
2, 3222, Channel_aftertouch_c, 0, 54
2, 3223, Channel_aftertouch_c, 0, 55
2, 3224, Channel_aftertouch_c, 0, 57
2, 3225, Channel_aftertouch_c, 0, 58
2, 3227, Channel_aftertouch_c, 0, 61
2, 3229, Channel_aftertouch_c, 0, 63
2, 3232, Channel_aftertouch_c, 0, 64
2, 3235, Channel_aftertouch_c, 0, 66
2, 3240, Channel_aftertouch_c, 0, 67
2, 3246, Channel_aftertouch_c, 0, 69
2, 3250, Channel_aftertouch_c, 0, 70
2, 3262, Channel_aftertouch_c, 0, 69
2, 3264, Channel_aftertouch_c, 0, 66
2, 3264, Channel_aftertouch_c, 0, 64
2, 3265, Channel_aftertouch_c, 0, 61
2, 3266, Channel_aftertouch_c, 0, 60
2, 3267, Channel_aftertouch_c, 0, 58
2, 3268, Channel_aftertouch_c, 0, 57
2, 3272, Channel_aftertouch_c, 0, 55
2, 3274, Channel_aftertouch_c, 0, 54
2, 3274, Channel_aftertouch_c, 0, 52
2, 3275, Channel_aftertouch_c, 0, 49
2, 3276, Channel_aftertouch_c, 0, 46
2, 3276, Channel_aftertouch_c, 0, 43
2, 3277, Channel_aftertouch_c, 0, 42
2, 3278, Channel_aftertouch_c, 0, 39
2, 3279, Channel_aftertouch_c, 0, 36
2, 3279, Channel_aftertouch_c, 0, 33
2, 3280, Channel_aftertouch_c, 0, 29
2, 3281, Channel_aftertouch_c, 0, 25
2, 3282, Channel_aftertouch_c, 0, 21
2, 3282, Channel_aftertouch_c, 0, 17
2, 3283, Channel_aftertouch_c, 0, 13
2, 3284, Channel_aftertouch_c, 0, 10
2, 3285, Channel_aftertouch_c, 0, 9
2, 3287, Channel_aftertouch_c, 0, 7
2, 3289, Channel_aftertouch_c, 0, 4
2, 3290, Channel_aftertouch_c, 0, 1
2, 3290, Channel_aftertouch_c, 0, 0
2, 3301, Note_on_c, 0, 53, 0
2, 3301, Note_on_c, 0, 38, 0
2, 3301, Note_on_c, 0, 33, 87
2, 3360, Note_on_c, 0, 38, 79
2, 3362, Note_on_c, 0, 33, 0
2, 3365, Channel_aftertouch_c, 0, 3
2, 3366, Channel_aftertouch_c, 0, 7
2, 3366, Channel_aftertouch_c, 0, 11
2, 3367, Channel_aftertouch_c, 0, 15
2, 3368, Channel_aftertouch_c, 0, 19
2, 3369, Channel_aftertouch_c, 0, 23
2, 3369, Channel_aftertouch_c, 0, 27
2, 3370, Channel_aftertouch_c, 0, 31
2, 3371, Channel_aftertouch_c, 0, 35
2, 3371, Channel_aftertouch_c, 0, 39
2, 3372, Channel_aftertouch_c, 0, 43
2, 3373, Channel_aftertouch_c, 0, 47
2, 3374, Channel_aftertouch_c, 0, 51
2, 3374, Channel_aftertouch_c, 0, 55
2, 3375, Channel_aftertouch_c, 0, 59
2, 3376, Channel_aftertouch_c, 0, 63
2, 3378, Channel_aftertouch_c, 0, 59
2, 3378, Channel_aftertouch_c, 0, 57
2, 3379, Channel_aftertouch_c, 0, 54
2, 3380, Channel_aftertouch_c, 0, 51
2, 3381, Channel_aftertouch_c, 0, 48
2, 3381, Channel_aftertouch_c, 0, 44
2, 3382, Channel_aftertouch_c, 0, 42
2, 3383, Channel_aftertouch_c, 0, 39
2, 3385, Channel_aftertouch_c, 0, 37
2, 3386, Channel_aftertouch_c, 0, 40
2, 3387, Channel_aftertouch_c, 0, 42
2, 3388, Channel_aftertouch_c, 0, 45
2, 3388, Channel_aftertouch_c, 0, 48
2, 3389, Channel_aftertouch_c, 0, 51
2, 3390, Channel_aftertouch_c, 0, 54
2, 3390, Channel_aftertouch_c, 0, 55
2, 3391, Channel_aftertouch_c, 0, 57
2, 3392, Channel_aftertouch_c, 0, 60
2, 3393, Channel_aftertouch_c, 0, 61
2, 3395, Channel_aftertouch_c, 0, 64
2, 3396, Channel_aftertouch_c, 0, 66
2, 3398, Channel_aftertouch_c, 0, 67
2, 3400, Channel_aftertouch_c, 0, 69
2, 3402, Channel_aftertouch_c, 0, 70
2, 3404, Channel_aftertouch_c, 0, 72
2, 3409, Channel_aftertouch_c, 0, 70
2, 3410, Channel_aftertouch_c, 0, 69
2, 3412, Channel_aftertouch_c, 0, 66
2, 3413, Channel_aftertouch_c, 0, 63
2, 3414, Channel_aftertouch_c, 0, 60
2, 3415, Channel_aftertouch_c, 0, 57
2, 3415, Channel_aftertouch_c, 0, 54
2, 3416, Channel_aftertouch_c, 0, 51
2, 3417, Channel_aftertouch_c, 0, 48
2, 3418, Channel_aftertouch_c, 0, 45
2, 3418, Channel_aftertouch_c, 0, 42
2, 3419, Channel_aftertouch_c, 0, 40
2, 3420, Channel_aftertouch_c, 0, 37
2, 3421, Note_on_c, 0, 53, 59
2, 3421, Channel_aftertouch_c, 0, 36
2, 3421, Channel_aftertouch_c, 0, 34
2, 3422, Channel_aftertouch_c, 0, 31
2, 3424, Channel_aftertouch_c, 0, 30
2, 3432, Channel_aftertouch_c, 0, 28
2, 3433, Channel_aftertouch_c, 0, 25
2, 3434, Channel_aftertouch_c, 0, 24
2, 3435, Channel_aftertouch_c, 0, 22
2, 3435, Channel_aftertouch_c, 0, 21
2, 3436, Channel_aftertouch_c, 0, 18
2, 3437, Channel_aftertouch_c, 0, 16
2, 3437, Channel_aftertouch_c, 0, 15
2, 3438, Channel_aftertouch_c, 0, 12
2, 3439, Channel_aftertouch_c, 0, 9
2, 3440, Channel_aftertouch_c, 0, 7
2, 3440, Channel_aftertouch_c, 0, 4
2, 3441, Channel_aftertouch_c, 0, 3
2, 3442, Channel_aftertouch_c, 0, 0
2, 3449, Note_on_c, 0, 52, 52
2, 3453, Channel_aftertouch_c, 0, 3
2, 3454, Note_on_c, 0, 53, 0
2, 3455, Channel_aftertouch_c, 0, 6
2, 3457, Channel_aftertouch_c, 0, 7
2, 3459, Channel_aftertouch_c, 0, 9
2, 3464, Channel_aftertouch_c, 0, 7
2, 3465, Channel_aftertouch_c, 0, 4
2, 3466, Channel_aftertouch_c, 0, 3
2, 3467, Channel_aftertouch_c, 0, 1
2, 3468, Channel_aftertouch_c, 0, 0
2, 3481, Note_on_c, 0, 52, 0
2, 3481, Note_on_c, 0, 53, 64
2, 3485, Channel_aftertouch_c, 0, 3
2, 3485, Channel_aftertouch_c, 0, 7
2, 3486, Channel_aftertouch_c, 0, 11
2, 3487, Channel_aftertouch_c, 0, 15
2, 3487, Channel_aftertouch_c, 0, 19
2, 3488, Channel_aftertouch_c, 0, 23
2, 3489, Channel_aftertouch_c, 0, 27
2, 3489, Channel_aftertouch_c, 0, 31
2, 3490, Channel_aftertouch_c, 0, 35
2, 3491, Channel_aftertouch_c, 0, 39
2, 3492, Channel_aftertouch_c, 0, 43
2, 3492, Channel_aftertouch_c, 0, 47
2, 3493, Channel_aftertouch_c, 0, 51
2, 3494, Channel_aftertouch_c, 0, 55
2, 3494, Channel_aftertouch_c, 0, 59
2, 3495, Channel_aftertouch_c, 0, 63
2, 3496, Channel_aftertouch_c, 0, 67
2, 3496, Channel_aftertouch_c, 0, 69
2, 3499, Channel_aftertouch_c, 0, 70
2, 3500, Channel_aftertouch_c, 0, 72
2, 3501, Channel_aftertouch_c, 0, 75
2, 3503, Channel_aftertouch_c, 0, 76
2, 3505, Channel_aftertouch_c, 0, 78
2, 3507, Channel_aftertouch_c, 0, 79
2, 3509, Channel_aftertouch_c, 0, 81
2, 3511, Channel_aftertouch_c, 0, 84
2, 3512, Channel_aftertouch_c, 0, 85
2, 3513, Channel_aftertouch_c, 0, 87
2, 3515, Channel_aftertouch_c, 0, 88
2, 3517, Channel_aftertouch_c, 0, 90
2, 3521, Channel_aftertouch_c, 0, 91
2, 3526, Channel_aftertouch_c, 0, 94
2, 3530, Channel_aftertouch_c, 0, 91
2, 3531, Channel_aftertouch_c, 0, 90
2, 3533, Channel_aftertouch_c, 0, 88
2, 3536, Channel_aftertouch_c, 0, 87
2, 3538, Channel_aftertouch_c, 0, 85
2, 3539, Channel_aftertouch_c, 0, 82
2, 3540, Channel_aftertouch_c, 0, 81
2, 3541, Channel_aftertouch_c, 0, 79
2, 3542, Channel_aftertouch_c, 0, 76
2, 3542, Channel_aftertouch_c, 0, 73
2, 3543, Channel_aftertouch_c, 0, 69
2, 3544, Channel_aftertouch_c, 0, 65
2, 3544, Channel_aftertouch_c, 0, 61
2, 3545, Channel_aftertouch_c, 0, 57
2, 3546, Channel_aftertouch_c, 0, 53
2, 3546, Channel_aftertouch_c, 0, 49
2, 3547, Channel_aftertouch_c, 0, 45
2, 3548, Channel_aftertouch_c, 0, 41
2, 3549, Channel_aftertouch_c, 0, 37
2, 3549, Channel_aftertouch_c, 0, 33
2, 3550, Channel_aftertouch_c, 0, 29
2, 3551, Channel_aftertouch_c, 0, 25
2, 3551, Channel_aftertouch_c, 0, 21
2, 3552, Channel_aftertouch_c, 0, 17
2, 3553, Channel_aftertouch_c, 0, 13
2, 3554, Channel_aftertouch_c, 0, 9
2, 3555, Channel_aftertouch_c, 0, 5
2, 3555, Channel_aftertouch_c, 0, 1
2, 3556, Channel_aftertouch_c, 0, 0
2, 3579, Note_on_c, 0, 53, 0
2, 3600, Note_on_c, 0, 53, 61
2, 3629, Note_on_c, 0, 52, 47
2, 3633, Note_on_c, 0, 53, 0
2, 3660, Note_on_c, 0, 52, 0
2, 3661, Note_on_c, 0, 53, 72
2, 3703, Channel_aftertouch_c, 0, 1
2, 3704, Channel_aftertouch_c, 0, 3
2, 3706, Channel_aftertouch_c, 0, 6
2, 3708, Channel_aftertouch_c, 0, 7
2, 3710, Channel_aftertouch_c, 0, 6
2, 3711, Channel_aftertouch_c, 0, 3
2, 3712, Channel_aftertouch_c, 0, 1
2, 3712, Channel_aftertouch_c, 0, 0
2, 3716, Channel_aftertouch_c, 0, 1
2, 3717, Channel_aftertouch_c, 0, 4
2, 3717, Channel_aftertouch_c, 0, 6
2, 3718, Channel_aftertouch_c, 0, 7
2, 3720, Channel_aftertouch_c, 0, 10
2, 3721, Channel_aftertouch_c, 0, 12
2, 3724, Channel_aftertouch_c, 0, 8
2, 3725, Channel_aftertouch_c, 0, 4
2, 3726, Channel_aftertouch_c, 0, 3
2, 3726, Channel_aftertouch_c, 0, 0
2, 3734, Channel_aftertouch_c, 0, 1
2, 3735, Channel_aftertouch_c, 0, 3
2, 3736, Channel_aftertouch_c, 0, 4
2, 3737, Channel_aftertouch_c, 0, 7
2, 3739, Channel_aftertouch_c, 0, 9
2, 3741, Channel_aftertouch_c, 0, 10
2, 3742, Channel_aftertouch_c, 0, 13
2, 3744, Channel_aftertouch_c, 0, 12
2, 3745, Channel_aftertouch_c, 0, 9
2, 3746, Channel_aftertouch_c, 0, 6
2, 3746, Channel_aftertouch_c, 0, 2
2, 3747, Channel_aftertouch_c, 0, 0
2, 3779, Note_on_c, 0, 38, 0
2, 3781, Note_on_c, 0, 33, 79
2, 3786, Channel_aftertouch_c, 0, 3
2, 3787, Channel_aftertouch_c, 0, 7
2, 3787, Channel_aftertouch_c, 0, 11
2, 3788, Channel_aftertouch_c, 0, 13
2, 3789, Channel_aftertouch_c, 0, 16
2, 3791, Channel_aftertouch_c, 0, 13
2, 3791, Channel_aftertouch_c, 0, 12
2, 3792, Channel_aftertouch_c, 0, 9
2, 3793, Channel_aftertouch_c, 0, 7
2, 3794, Channel_aftertouch_c, 0, 3
2, 3794, Channel_aftertouch_c, 0, 0
2, 3812, Note_on_c, 0, 53, 0
2, 3838, Note_on_c, 0, 33, 0
2, 3838, Note_on_c, 0, 38, 75
2, 3842, Channel_aftertouch_c, 0, 4
2, 3843, Channel_aftertouch_c, 0, 8
2, 3843, Channel_aftertouch_c, 0, 12
2, 3844, Channel_aftertouch_c, 0, 16
2, 3845, Channel_aftertouch_c, 0, 20
2, 3845, Channel_aftertouch_c, 0, 24
2, 3846, Channel_aftertouch_c, 0, 28
2, 3847, Channel_aftertouch_c, 0, 32
2, 3848, Channel_aftertouch_c, 0, 33
2, 3848, Channel_aftertouch_c, 0, 30
2, 3849, Channel_aftertouch_c, 0, 26
2, 3850, Channel_aftertouch_c, 0, 22
2, 3850, Channel_aftertouch_c, 0, 21
2, 3853, Channel_aftertouch_c, 0, 22
2, 3855, Channel_aftertouch_c, 0, 25
2, 3856, Channel_aftertouch_c, 0, 27
2, 3857, Channel_aftertouch_c, 0, 28
2, 3859, Channel_aftertouch_c, 0, 30
2, 3862, Channel_aftertouch_c, 0, 31
2, 3863, Channel_aftertouch_c, 0, 34
2, 3864, Channel_aftertouch_c, 0, 36
2, 3864, Channel_aftertouch_c, 0, 39
2, 3865, Channel_aftertouch_c, 0, 40
2, 3866, Channel_aftertouch_c, 0, 42
2, 3866, Channel_aftertouch_c, 0, 43
2, 3867, Channel_aftertouch_c, 0, 45
2, 3868, Channel_aftertouch_c, 0, 48
2, 3870, Channel_aftertouch_c, 0, 51
2, 3871, Channel_aftertouch_c, 0, 52
2, 3874, Channel_aftertouch_c, 0, 51
2, 3874, Channel_aftertouch_c, 0, 49
2, 3875, Channel_aftertouch_c, 0, 48
2, 3877, Channel_aftertouch_c, 0, 45
2, 3878, Channel_aftertouch_c, 0, 43
2, 3880, Channel_aftertouch_c, 0, 42
2, 3881, Channel_aftertouch_c, 0, 39
2, 3881, Channel_aftertouch_c, 0, 36
2, 3882, Channel_aftertouch_c, 0, 33
2, 3882, Channel_aftertouch_c, 0, 30
2, 3883, Channel_aftertouch_c, 0, 27
2, 3884, Channel_aftertouch_c, 0, 23
2, 3884, Channel_aftertouch_c, 0, 19
2, 3885, Channel_aftertouch_c, 0, 16
2, 3886, Channel_aftertouch_c, 0, 13
2, 3887, Channel_aftertouch_c, 0, 12
2, 3893, Channel_aftertouch_c, 0, 10
2, 3894, Channel_aftertouch_c, 0, 7
2, 3895, Channel_aftertouch_c, 0, 4
2, 3896, Channel_aftertouch_c, 0, 3
2, 3896, Channel_aftertouch_c, 0, 1
2, 3899, Note_on_c, 0, 53, 61
2, 3911, Channel_aftertouch_c, 0, 3
2, 3911, Channel_aftertouch_c, 0, 4
2, 3912, Channel_aftertouch_c, 0, 7
2, 3912, Channel_aftertouch_c, 0, 10
2, 3913, Channel_aftertouch_c, 0, 12
2, 3914, Channel_aftertouch_c, 0, 15
2, 3915, Channel_aftertouch_c, 0, 18
2, 3915, Channel_aftertouch_c, 0, 21
2, 3916, Channel_aftertouch_c, 0, 22
2, 3917, Channel_aftertouch_c, 0, 25
2, 3918, Channel_aftertouch_c, 0, 27
2, 3918, Channel_aftertouch_c, 0, 30
2, 3919, Channel_aftertouch_c, 0, 31
2, 3920, Channel_aftertouch_c, 0, 34
2, 3921, Channel_aftertouch_c, 0, 36
2, 3923, Channel_aftertouch_c, 0, 37
2, 3924, Channel_aftertouch_c, 0, 36
2, 3925, Channel_aftertouch_c, 0, 33
2, 3925, Channel_aftertouch_c, 0, 30
2, 3927, Channel_aftertouch_c, 0, 27
2, 3928, Note_on_c, 0, 53, 0
2, 3928, Channel_aftertouch_c, 0, 23
2, 3928, Channel_aftertouch_c, 0, 19
2, 3929, Channel_aftertouch_c, 0, 15
2, 3929, Note_on_c, 0, 52, 62
2, 3930, Channel_aftertouch_c, 0, 11
2, 3930, Channel_aftertouch_c, 0, 7
2, 3931, Channel_aftertouch_c, 0, 3
2, 3932, Channel_aftertouch_c, 0, 0
2, 3949, Note_on_c, 0, 52, 0
2, 3959, Note_on_c, 0, 53, 75
2, 3962, Channel_aftertouch_c, 0, 3
2, 3963, Channel_aftertouch_c, 0, 7
2, 3964, Channel_aftertouch_c, 0, 11
2, 3964, Channel_aftertouch_c, 0, 15
2, 3965, Channel_aftertouch_c, 0, 19
2, 3966, Channel_aftertouch_c, 0, 23
2, 3967, Channel_aftertouch_c, 0, 27
2, 3967, Channel_aftertouch_c, 0, 31
2, 3968, Channel_aftertouch_c, 0, 35
2, 3969, Channel_aftertouch_c, 0, 39
2, 3969, Channel_aftertouch_c, 0, 43
2, 3971, Channel_aftertouch_c, 0, 45
2, 3972, Channel_aftertouch_c, 0, 46
2, 3972, Channel_aftertouch_c, 0, 49
2, 3973, Channel_aftertouch_c, 0, 51
2, 3974, Channel_aftertouch_c, 0, 52
2, 3975, Channel_aftertouch_c, 0, 54
2, 3975, Channel_aftertouch_c, 0, 55
2, 3976, Channel_aftertouch_c, 0, 57
2, 3978, Channel_aftertouch_c, 0, 60
2, 3978, Channel_aftertouch_c, 0, 61
2, 3979, Channel_aftertouch_c, 0, 63
2, 3980, Channel_aftertouch_c, 0, 64
2, 3981, Channel_aftertouch_c, 0, 66
2, 3982, Channel_aftertouch_c, 0, 69
2, 3984, Channel_aftertouch_c, 0, 70
2, 3985, Channel_aftertouch_c, 0, 73
2, 3986, Channel_aftertouch_c, 0, 76
2, 3988, Channel_aftertouch_c, 0, 78
2, 3989, Channel_aftertouch_c, 0, 81
2, 3991, Channel_aftertouch_c, 0, 82
2, 3993, Channel_aftertouch_c, 0, 84
2, 3996, Channel_aftertouch_c, 0, 85
2, 3998, Channel_aftertouch_c, 0, 87
2, 4012, Channel_aftertouch_c, 0, 85
2, 4012, Channel_aftertouch_c, 0, 84
2, 4013, Channel_aftertouch_c, 0, 82
2, 4014, Channel_aftertouch_c, 0, 81
2, 4015, Channel_aftertouch_c, 0, 78
2, 4015, Channel_aftertouch_c, 0, 75
2, 4016, Channel_aftertouch_c, 0, 73
2, 4017, Channel_aftertouch_c, 0, 69
2, 4017, Channel_aftertouch_c, 0, 66
2, 4018, Channel_aftertouch_c, 0, 62
2, 4019, Channel_aftertouch_c, 0, 58
2, 4020, Channel_aftertouch_c, 0, 55
2, 4020, Channel_aftertouch_c, 0, 52
2, 4021, Channel_aftertouch_c, 0, 49
2, 4022, Channel_aftertouch_c, 0, 46
2, 4022, Channel_aftertouch_c, 0, 43
2, 4023, Channel_aftertouch_c, 0, 42
2, 4024, Channel_aftertouch_c, 0, 40
2, 4025, Channel_aftertouch_c, 0, 37
2, 4027, Channel_aftertouch_c, 0, 36
2, 4027, Channel_aftertouch_c, 0, 33
2, 4029, Channel_aftertouch_c, 0, 30
2, 4029, Channel_aftertouch_c, 0, 26
2, 4030, Channel_aftertouch_c, 0, 22
2, 4031, Channel_aftertouch_c, 0, 18
2, 4031, Channel_aftertouch_c, 0, 14
2, 4032, Channel_aftertouch_c, 0, 10
2, 4033, Channel_aftertouch_c, 0, 6
2, 4034, Channel_aftertouch_c, 0, 2
2, 4034, Channel_aftertouch_c, 0, 0
2, 4054, Note_on_c, 0, 53, 0
2, 4079, Note_on_c, 0, 53, 60
2, 4109, Note_on_c, 0, 52, 58
2, 4114, Note_on_c, 0, 53, 0
2, 4135, Note_on_c, 0, 52, 0
2, 4142, Note_on_c, 0, 53, 67
2, 4171, Channel_aftertouch_c, 0, 1
2, 4172, Channel_aftertouch_c, 0, 4
2, 4173, Channel_aftertouch_c, 0, 8
2, 4173, Channel_aftertouch_c, 0, 12
2, 4174, Channel_aftertouch_c, 0, 16
2, 4175, Channel_aftertouch_c, 0, 20
2, 4176, Channel_aftertouch_c, 0, 24
2, 4177, Channel_aftertouch_c, 0, 28
2, 4177, Channel_aftertouch_c, 0, 32
2, 4178, Channel_aftertouch_c, 0, 36
2, 4179, Channel_aftertouch_c, 0, 39
2, 4179, Channel_aftertouch_c, 0, 42
2, 4180, Channel_aftertouch_c, 0, 45
2, 4181, Channel_aftertouch_c, 0, 48
2, 4182, Channel_aftertouch_c, 0, 49
2, 4183, Channel_aftertouch_c, 0, 51
2, 4184, Channel_aftertouch_c, 0, 54
2, 4186, Channel_aftertouch_c, 0, 55
2, 4188, Channel_aftertouch_c, 0, 58
2, 4190, Channel_aftertouch_c, 0, 60
2, 4192, Channel_aftertouch_c, 0, 61
2, 4195, Channel_aftertouch_c, 0, 63
2, 4197, Channel_aftertouch_c, 0, 64
2, 4201, Channel_aftertouch_c, 0, 66
2, 4203, Channel_aftertouch_c, 0, 67
2, 4207, Channel_aftertouch_c, 0, 69
2, 4213, Channel_aftertouch_c, 0, 67
2, 4214, Channel_aftertouch_c, 0, 66
2, 4216, Channel_aftertouch_c, 0, 64
2, 4218, Channel_aftertouch_c, 0, 61
2, 4219, Channel_aftertouch_c, 0, 60
2, 4221, Channel_aftertouch_c, 0, 57
2, 4221, Channel_aftertouch_c, 0, 55
2, 4223, Channel_aftertouch_c, 0, 52
2, 4224, Channel_aftertouch_c, 0, 51
2, 4227, Channel_aftertouch_c, 0, 49
2, 4228, Channel_aftertouch_c, 0, 48
2, 4230, Channel_aftertouch_c, 0, 45
2, 4232, Channel_aftertouch_c, 0, 42
2, 4233, Channel_aftertouch_c, 0, 40
2, 4234, Channel_aftertouch_c, 0, 37
2, 4234, Channel_aftertouch_c, 0, 34
2, 4235, Channel_aftertouch_c, 0, 31
2, 4236, Channel_aftertouch_c, 0, 28
2, 4237, Channel_aftertouch_c, 0, 25
2, 4237, Channel_aftertouch_c, 0, 24
2, 4238, Channel_aftertouch_c, 0, 22
2, 4239, Channel_aftertouch_c, 0, 21
2, 4239, Channel_aftertouch_c, 0, 18
2, 4240, Channel_aftertouch_c, 0, 15
2, 4241, Channel_aftertouch_c, 0, 13
2, 4242, Channel_aftertouch_c, 0, 9
2, 4242, Channel_aftertouch_c, 0, 5
2, 4243, Channel_aftertouch_c, 0, 1
2, 4244, Channel_aftertouch_c, 0, 0
2, 4256, Note_on_c, 0, 53, 0
2, 4262, Note_on_c, 0, 33, 94
2, 4270, Note_on_c, 0, 38, 0
2, 4322, Note_on_c, 0, 38, 87
2, 4324, Note_on_c, 0, 33, 0
2, 4330, Channel_aftertouch_c, 0, 3
2, 4330, Channel_aftertouch_c, 0, 7
2, 4331, Channel_aftertouch_c, 0, 11
2, 4332, Channel_aftertouch_c, 0, 15
2, 4333, Channel_aftertouch_c, 0, 19
2, 4333, Channel_aftertouch_c, 0, 23
2, 4334, Channel_aftertouch_c, 0, 27
2, 4335, Channel_aftertouch_c, 0, 31
2, 4336, Channel_aftertouch_c, 0, 35
2, 4336, Channel_aftertouch_c, 0, 39
2, 4339, Channel_aftertouch_c, 0, 36
2, 4341, Channel_aftertouch_c, 0, 33
2, 4341, Channel_aftertouch_c, 0, 31
2, 4342, Channel_aftertouch_c, 0, 30
2, 4343, Channel_aftertouch_c, 0, 27
2, 4344, Channel_aftertouch_c, 0, 23
2, 4344, Channel_aftertouch_c, 0, 19
2, 4345, Channel_aftertouch_c, 0, 15
2, 4346, Channel_aftertouch_c, 0, 11
2, 4347, Channel_aftertouch_c, 0, 7
2, 4347, Channel_aftertouch_c, 0, 3
2, 4348, Channel_aftertouch_c, 0, 0
2, 4366, Channel_aftertouch_c, 0, 3
2, 4368, Channel_aftertouch_c, 0, 0
2, 4381, Note_on_c, 0, 53, 50
2, 4411, Note_on_c, 0, 52, 48
2, 4415, Note_on_c, 0, 53, 0
2, 4443, Note_on_c, 0, 53, 62
2, 4445, Note_on_c, 0, 52, 0
2, 4487, Channel_aftertouch_c, 0, 1
2, 4488, Channel_aftertouch_c, 0, 4
2, 4489, Channel_aftertouch_c, 0, 6
2, 4489, Channel_aftertouch_c, 0, 9
2, 4490, Channel_aftertouch_c, 0, 12
2, 4491, Channel_aftertouch_c, 0, 13
2, 4492, Channel_aftertouch_c, 0, 15
2, 4492, Channel_aftertouch_c, 0, 16
2, 4493, Channel_aftertouch_c, 0, 19
2, 4494, Channel_aftertouch_c, 0, 21
2, 4494, Channel_aftertouch_c, 0, 22
2, 4495, Channel_aftertouch_c, 0, 24
2, 4496, Channel_aftertouch_c, 0, 27
2, 4497, Channel_aftertouch_c, 0, 28
2, 4497, Channel_aftertouch_c, 0, 30
2, 4499, Channel_aftertouch_c, 0, 31
2, 4500, Channel_aftertouch_c, 0, 34
2, 4502, Channel_aftertouch_c, 0, 36
2, 4505, Channel_aftertouch_c, 0, 33
2, 4506, Channel_aftertouch_c, 0, 30
2, 4506, Channel_aftertouch_c, 0, 26
2, 4507, Channel_aftertouch_c, 0, 22
2, 4508, Channel_aftertouch_c, 0, 18
2, 4509, Channel_aftertouch_c, 0, 14
2, 4509, Channel_aftertouch_c, 0, 10
2, 4510, Channel_aftertouch_c, 0, 6
2, 4511, Channel_aftertouch_c, 0, 2
2, 4512, Channel_aftertouch_c, 0, 0
2, 4523, Note_on_c, 0, 53, 0
2, 4558, Note_on_c, 0, 53, 54
2, 4587, Note_on_c, 0, 52, 49
2, 4590, Note_on_c, 0, 53, 0
2, 4621, Note_on_c, 0, 53, 62
2, 4623, Note_on_c, 0, 52, 0
2, 4652, Channel_aftertouch_c, 0, 1
2, 4653, Channel_aftertouch_c, 0, 3
2, 4653, Channel_aftertouch_c, 0, 6
2, 4654, Channel_aftertouch_c, 0, 7
2, 4655, Channel_aftertouch_c, 0, 9
2, 4656, Channel_aftertouch_c, 0, 10
2, 4656, Channel_aftertouch_c, 0, 13
2, 4657, Channel_aftertouch_c, 0, 15
2, 4658, Channel_aftertouch_c, 0, 16
2, 4659, Channel_aftertouch_c, 0, 19
2, 4660, Channel_aftertouch_c, 0, 21
2, 4660, Channel_aftertouch_c, 0, 24
2, 4661, Channel_aftertouch_c, 0, 25
2, 4662, Channel_aftertouch_c, 0, 27
2, 4662, Channel_aftertouch_c, 0, 30
2, 4664, Channel_aftertouch_c, 0, 31
2, 4665, Channel_aftertouch_c, 0, 34
2, 4667, Channel_aftertouch_c, 0, 37
2, 4668, Channel_aftertouch_c, 0, 39
2, 4670, Channel_aftertouch_c, 0, 40
2, 4672, Channel_aftertouch_c, 0, 42
2, 4676, Channel_aftertouch_c, 0, 43
2, 4679, Channel_aftertouch_c, 0, 45
2, 4685, Channel_aftertouch_c, 0, 46
2, 4693, Channel_aftertouch_c, 0, 48
2, 4695, Channel_aftertouch_c, 0, 49
2, 4698, Channel_aftertouch_c, 0, 48
2, 4699, Channel_aftertouch_c, 0, 45
2, 4700, Channel_aftertouch_c, 0, 43
2, 4700, Channel_aftertouch_c, 0, 40
2, 4701, Channel_aftertouch_c, 0, 37
2, 4702, Channel_aftertouch_c, 0, 36
2, 4703, Channel_aftertouch_c, 0, 33
2, 4703, Channel_aftertouch_c, 0, 31
2, 4705, Channel_aftertouch_c, 0, 30
2, 4707, Channel_aftertouch_c, 0, 31
2, 4708, Channel_aftertouch_c, 0, 33
2, 4709, Channel_aftertouch_c, 0, 34
2, 4710, Channel_aftertouch_c, 0, 38
2, 4711, Channel_aftertouch_c, 0, 40
2, 4712, Channel_aftertouch_c, 0, 42
2, 4712, Channel_aftertouch_c, 0, 43
2, 4714, Channel_aftertouch_c, 0, 45
2, 4716, Channel_aftertouch_c, 0, 41
2, 4717, Channel_aftertouch_c, 0, 37
2, 4718, Channel_aftertouch_c, 0, 34
2, 4718, Channel_aftertouch_c, 0, 30
2, 4719, Channel_aftertouch_c, 0, 27
2, 4720, Channel_aftertouch_c, 0, 24
2, 4720, Channel_aftertouch_c, 0, 21
2, 4721, Channel_aftertouch_c, 0, 18
2, 4722, Channel_aftertouch_c, 0, 15
2, 4723, Channel_aftertouch_c, 0, 12
2, 4723, Channel_aftertouch_c, 0, 8
2, 4724, Channel_aftertouch_c, 0, 4
2, 4725, Channel_aftertouch_c, 0, 0
2, 4739, Note_on_c, 0, 53, 0
2, 4739, Note_on_c, 0, 38, 0
2, 4742, Note_on_c, 0, 33, 79
2, 4798, Note_on_c, 0, 33, 0
2, 4801, Note_on_c, 0, 38, 87
2, 4807, Channel_aftertouch_c, 0, 3
2, 4808, Channel_aftertouch_c, 0, 7
2, 4809, Channel_aftertouch_c, 0, 11
2, 4809, Channel_aftertouch_c, 0, 15
2, 4810, Channel_aftertouch_c, 0, 19
2, 4811, Channel_aftertouch_c, 0, 23
2, 4812, Channel_aftertouch_c, 0, 27
2, 4812, Channel_aftertouch_c, 0, 31
2, 4813, Channel_aftertouch_c, 0, 35
2, 4814, Channel_aftertouch_c, 0, 36
2, 4815, Channel_aftertouch_c, 0, 34
2, 4815, Channel_aftertouch_c, 0, 33
2, 4816, Channel_aftertouch_c, 0, 30
2, 4817, Channel_aftertouch_c, 0, 27
2, 4817, Channel_aftertouch_c, 0, 23
2, 4818, Channel_aftertouch_c, 0, 19
2, 4819, Channel_aftertouch_c, 0, 15
2, 4819, Channel_aftertouch_c, 0, 11
2, 4820, Channel_aftertouch_c, 0, 7
2, 4821, Channel_aftertouch_c, 0, 3
2, 4822, Channel_aftertouch_c, 0, 0
2, 4832, Channel_aftertouch_c, 0, 3
2, 4832, Channel_aftertouch_c, 0, 6
2, 4833, Channel_aftertouch_c, 0, 9
2, 4834, Channel_aftertouch_c, 0, 12
2, 4835, Channel_aftertouch_c, 0, 13
2, 4835, Channel_aftertouch_c, 0, 16
2, 4836, Channel_aftertouch_c, 0, 19
2, 4837, Channel_aftertouch_c, 0, 22
2, 4838, Channel_aftertouch_c, 0, 24
2, 4838, Channel_aftertouch_c, 0, 27
2, 4839, Channel_aftertouch_c, 0, 28
2, 4840, Channel_aftertouch_c, 0, 31
2, 4840, Channel_aftertouch_c, 0, 33
2, 4841, Channel_aftertouch_c, 0, 34
2, 4843, Channel_aftertouch_c, 0, 37
2, 4844, Channel_aftertouch_c, 0, 40
2, 4846, Channel_aftertouch_c, 0, 42
2, 4849, Channel_aftertouch_c, 0, 39
2, 4850, Channel_aftertouch_c, 0, 37
2, 4851, Channel_aftertouch_c, 0, 34
2, 4852, Channel_aftertouch_c, 0, 31
2, 4852, Channel_aftertouch_c, 0, 27
2, 4853, Channel_aftertouch_c, 0, 24
2, 4854, Channel_aftertouch_c, 0, 21
2, 4855, Channel_aftertouch_c, 0, 18
2, 4855, Channel_aftertouch_c, 0, 15
2, 4856, Channel_aftertouch_c, 0, 13
2, 4857, Channel_aftertouch_c, 0, 12
2, 4858, Channel_aftertouch_c, 0, 10
2, 4858, Channel_aftertouch_c, 0, 9
2, 4859, Channel_aftertouch_c, 0, 6
2, 4860, Note_on_c, 0, 53, 54
2, 4861, Channel_aftertouch_c, 0, 4
2, 4861, Channel_aftertouch_c, 0, 3
2, 4862, Channel_aftertouch_c, 0, 1
2, 4866, Channel_aftertouch_c, 0, 4
2, 4871, Channel_aftertouch_c, 0, 1
2, 4872, Channel_aftertouch_c, 0, 0
2, 4889, Note_on_c, 0, 52, 46
2, 4895, Note_on_c, 0, 53, 0
2, 4922, Note_on_c, 0, 53, 63
2, 4924, Note_on_c, 0, 52, 0
2, 4932, Channel_aftertouch_c, 0, 1
2, 4932, Channel_aftertouch_c, 0, 3
2, 4933, Channel_aftertouch_c, 0, 6
2, 4934, Channel_aftertouch_c, 0, 9
2, 4935, Channel_aftertouch_c, 0, 10
2, 4935, Channel_aftertouch_c, 0, 13
2, 4936, Channel_aftertouch_c, 0, 17
2, 4937, Channel_aftertouch_c, 0, 19
2, 4938, Channel_aftertouch_c, 0, 22
2, 4938, Channel_aftertouch_c, 0, 24
2, 4940, Channel_aftertouch_c, 0, 25
2, 4943, Channel_aftertouch_c, 0, 24
2, 4945, Channel_aftertouch_c, 0, 22
2, 4949, Channel_aftertouch_c, 0, 25
2, 4949, Channel_aftertouch_c, 0, 27
2, 4951, Channel_aftertouch_c, 0, 28
2, 4957, Channel_aftertouch_c, 0, 27
2, 4959, Channel_aftertouch_c, 0, 28
2, 4965, Channel_aftertouch_c, 0, 27
2, 4968, Channel_aftertouch_c, 0, 25
2, 4969, Channel_aftertouch_c, 0, 24
2, 4970, Channel_aftertouch_c, 0, 21
2, 4970, Channel_aftertouch_c, 0, 19
2, 4971, Channel_aftertouch_c, 0, 16
2, 4972, Channel_aftertouch_c, 0, 12
2, 4973, Channel_aftertouch_c, 0, 9
2, 4973, Channel_aftertouch_c, 0, 6
2, 4974, Channel_aftertouch_c, 0, 2
2, 4975, Channel_aftertouch_c, 0, 0
2, 5008, Note_on_c, 0, 53, 0
2, 5039, Note_on_c, 0, 53, 59
2, 5070, Note_on_c, 0, 52, 52
2, 5076, Note_on_c, 0, 53, 0
2, 5102, Note_on_c, 0, 52, 0
2, 5102, Note_on_c, 0, 53, 67
2, 5111, Channel_aftertouch_c, 0, 4
2, 5112, Channel_aftertouch_c, 0, 8
2, 5113, Channel_aftertouch_c, 0, 12
2, 5113, Channel_aftertouch_c, 0, 16
2, 5114, Channel_aftertouch_c, 0, 20
2, 5115, Channel_aftertouch_c, 0, 24
2, 5116, Channel_aftertouch_c, 0, 28
2, 5117, Channel_aftertouch_c, 0, 32
2, 5118, Channel_aftertouch_c, 0, 36
2, 5118, Channel_aftertouch_c, 0, 40
2, 5119, Channel_aftertouch_c, 0, 44
2, 5120, Channel_aftertouch_c, 0, 48
2, 5120, Channel_aftertouch_c, 0, 52
2, 5121, Channel_aftertouch_c, 0, 55
2, 5122, Channel_aftertouch_c, 0, 57
2, 5124, Channel_aftertouch_c, 0, 58
2, 5126, Channel_aftertouch_c, 0, 61
2, 5127, Channel_aftertouch_c, 0, 63
2, 5129, Channel_aftertouch_c, 0, 64
2, 5134, Channel_aftertouch_c, 0, 67
2, 5135, Channel_aftertouch_c, 0, 69
2, 5137, Channel_aftertouch_c, 0, 70
2, 5138, Channel_aftertouch_c, 0, 72
2, 5139, Channel_aftertouch_c, 0, 73
2, 5141, Channel_aftertouch_c, 0, 75
2, 5143, Channel_aftertouch_c, 0, 76
2, 5144, Channel_aftertouch_c, 0, 79
2, 5146, Channel_aftertouch_c, 0, 81
2, 5148, Channel_aftertouch_c, 0, 82
2, 5150, Channel_aftertouch_c, 0, 84
2, 5153, Channel_aftertouch_c, 0, 85
2, 5158, Channel_aftertouch_c, 0, 87
2, 5166, Channel_aftertouch_c, 0, 85
2, 5168, Channel_aftertouch_c, 0, 84
2, 5169, Channel_aftertouch_c, 0, 82
2, 5171, Channel_aftertouch_c, 0, 81
2, 5171, Channel_aftertouch_c, 0, 79
2, 5174, Channel_aftertouch_c, 0, 76
2, 5179, Channel_aftertouch_c, 0, 73
2, 5180, Channel_aftertouch_c, 0, 70
2, 5181, Channel_aftertouch_c, 0, 67
2, 5182, Channel_aftertouch_c, 0, 63
2, 5182, Channel_aftertouch_c, 0, 59
2, 5183, Channel_aftertouch_c, 0, 55
2, 5184, Channel_aftertouch_c, 0, 51
2, 5185, Channel_aftertouch_c, 0, 47
2, 5185, Channel_aftertouch_c, 0, 43
2, 5186, Channel_aftertouch_c, 0, 39
2, 5187, Channel_aftertouch_c, 0, 35
2, 5188, Channel_aftertouch_c, 0, 31
2, 5188, Channel_aftertouch_c, 0, 27
2, 5189, Channel_aftertouch_c, 0, 23
2, 5190, Channel_aftertouch_c, 0, 19
2, 5191, Channel_aftertouch_c, 0, 15
2, 5191, Channel_aftertouch_c, 0, 11
2, 5192, Channel_aftertouch_c, 0, 7
2, 5193, Channel_aftertouch_c, 0, 3
2, 5193, Channel_aftertouch_c, 0, 0
2, 5209, Note_on_c, 0, 53, 0
2, 5220, Note_on_c, 0, 33, 74
2, 5221, Note_on_c, 0, 38, 0
2, 5279, Note_on_c, 0, 33, 0
2, 5279, Note_on_c, 0, 38, 79
2, 5283, Channel_aftertouch_c, 0, 3
2, 5284, Channel_aftertouch_c, 0, 7
2, 5284, Channel_aftertouch_c, 0, 11
2, 5285, Channel_aftertouch_c, 0, 15
2, 5286, Channel_aftertouch_c, 0, 19
2, 5287, Channel_aftertouch_c, 0, 23
2, 5288, Channel_aftertouch_c, 0, 27
2, 5288, Channel_aftertouch_c, 0, 31
2, 5289, Channel_aftertouch_c, 0, 35
2, 5290, Channel_aftertouch_c, 0, 39
2, 5291, Channel_aftertouch_c, 0, 43
2, 5291, Channel_aftertouch_c, 0, 47
2, 5292, Channel_aftertouch_c, 0, 51
2, 5293, Channel_aftertouch_c, 0, 55
2, 5293, Channel_aftertouch_c, 0, 58
2, 5298, Channel_aftertouch_c, 0, 57
2, 5299, Channel_aftertouch_c, 0, 55
2, 5299, Channel_aftertouch_c, 0, 54
2, 5300, Channel_aftertouch_c, 0, 52
2, 5301, Channel_aftertouch_c, 0, 49
2, 5301, Channel_aftertouch_c, 0, 48
2, 5306, Channel_aftertouch_c, 0, 51
2, 5307, Channel_aftertouch_c, 0, 52
2, 5309, Channel_aftertouch_c, 0, 54
2, 5312, Channel_aftertouch_c, 0, 52
2, 5312, Channel_aftertouch_c, 0, 49
2, 5313, Channel_aftertouch_c, 0, 46
2, 5314, Channel_aftertouch_c, 0, 42
2, 5315, Channel_aftertouch_c, 0, 39
2, 5317, Channel_aftertouch_c, 0, 42
2, 5317, Channel_aftertouch_c, 0, 45
2, 5318, Channel_aftertouch_c, 0, 48
2, 5319, Channel_aftertouch_c, 0, 51
2, 5320, Channel_aftertouch_c, 0, 54
2, 5321, Channel_aftertouch_c, 0, 55
2, 5321, Channel_aftertouch_c, 0, 57
2, 5323, Channel_aftertouch_c, 0, 58
2, 5325, Channel_aftertouch_c, 0, 55
2, 5325, Channel_aftertouch_c, 0, 52
2, 5326, Channel_aftertouch_c, 0, 48
2, 5327, Channel_aftertouch_c, 0, 44
2, 5328, Channel_aftertouch_c, 0, 40
2, 5329, Channel_aftertouch_c, 0, 36
2, 5329, Channel_aftertouch_c, 0, 32
2, 5330, Channel_aftertouch_c, 0, 28
2, 5331, Channel_aftertouch_c, 0, 24
2, 5331, Channel_aftertouch_c, 0, 20
2, 5332, Channel_aftertouch_c, 0, 16
2, 5333, Channel_aftertouch_c, 0, 12
2, 5333, Channel_aftertouch_c, 0, 8
2, 5334, Channel_aftertouch_c, 0, 4
2, 5335, Channel_aftertouch_c, 0, 0
2, 5339, Note_on_c, 0, 53, 53
2, 5367, Note_on_c, 0, 52, 55
2, 5371, Note_on_c, 0, 53, 0
2, 5399, Note_on_c, 0, 53, 67
2, 5401, Note_on_c, 0, 52, 0
2, 5405, Channel_aftertouch_c, 0, 1
2, 5405, Channel_aftertouch_c, 0, 5
2, 5406, Channel_aftertouch_c, 0, 9
2, 5407, Channel_aftertouch_c, 0, 13
2, 5408, Channel_aftertouch_c, 0, 17
2, 5408, Channel_aftertouch_c, 0, 21
2, 5409, Channel_aftertouch_c, 0, 25
2, 5410, Channel_aftertouch_c, 0, 29
2, 5410, Channel_aftertouch_c, 0, 33
2, 5411, Channel_aftertouch_c, 0, 34
2, 5412, Channel_aftertouch_c, 0, 33
2, 5413, Channel_aftertouch_c, 0, 29
2, 5413, Channel_aftertouch_c, 0, 25
2, 5414, Channel_aftertouch_c, 0, 21
2, 5415, Channel_aftertouch_c, 0, 17
2, 5415, Channel_aftertouch_c, 0, 13
2, 5416, Channel_aftertouch_c, 0, 9
2, 5417, Channel_aftertouch_c, 0, 5
2, 5418, Channel_aftertouch_c, 0, 1
2, 5418, Channel_aftertouch_c, 0, 0
2, 5423, Channel_aftertouch_c, 0, 1
2, 5423, Channel_aftertouch_c, 0, 4
2, 5424, Channel_aftertouch_c, 0, 7
2, 5425, Channel_aftertouch_c, 0, 10
2, 5425, Channel_aftertouch_c, 0, 13
2, 5426, Channel_aftertouch_c, 0, 15
2, 5427, Channel_aftertouch_c, 0, 18
2, 5428, Channel_aftertouch_c, 0, 21
2, 5428, Channel_aftertouch_c, 0, 24
2, 5429, Channel_aftertouch_c, 0, 25
2, 5430, Channel_aftertouch_c, 0, 28
2, 5431, Channel_aftertouch_c, 0, 31
2, 5431, Channel_aftertouch_c, 0, 34
2, 5432, Channel_aftertouch_c, 0, 36
2, 5433, Channel_aftertouch_c, 0, 39
2, 5433, Channel_aftertouch_c, 0, 40
2, 5434, Channel_aftertouch_c, 0, 43
2, 5435, Channel_aftertouch_c, 0, 45
2, 5436, Channel_aftertouch_c, 0, 48
2, 5436, Channel_aftertouch_c, 0, 49
2, 5438, Channel_aftertouch_c, 0, 51
2, 5440, Channel_aftertouch_c, 0, 54
2, 5441, Channel_aftertouch_c, 0, 55
2, 5448, Channel_aftertouch_c, 0, 57
2, 5450, Channel_aftertouch_c, 0, 58
2, 5455, Channel_aftertouch_c, 0, 54
2, 5455, Channel_aftertouch_c, 0, 51
2, 5456, Channel_aftertouch_c, 0, 48
2, 5457, Channel_aftertouch_c, 0, 44
2, 5458, Channel_aftertouch_c, 0, 40
2, 5459, Channel_aftertouch_c, 0, 36
2, 5459, Channel_aftertouch_c, 0, 33
2, 5460, Channel_aftertouch_c, 0, 29
2, 5461, Channel_aftertouch_c, 0, 25
2, 5462, Channel_aftertouch_c, 0, 21
2, 5462, Channel_aftertouch_c, 0, 17
2, 5463, Channel_aftertouch_c, 0, 13
2, 5464, Channel_aftertouch_c, 0, 10
2, 5465, Channel_aftertouch_c, 0, 7
2, 5465, Channel_aftertouch_c, 0, 3
2, 5466, Channel_aftertouch_c, 0, 0
2, 5497, Note_on_c, 0, 53, 0
2, 5519, Note_on_c, 0, 53, 67
2, 5550, Note_on_c, 0, 52, 46
2, 5553, Note_on_c, 0, 53, 0
2, 5581, Note_on_c, 0, 53, 62
2, 5583, Note_on_c, 0, 52, 0
2, 5592, Channel_aftertouch_c, 0, 3
2, 5593, Channel_aftertouch_c, 0, 6
2, 5594, Channel_aftertouch_c, 0, 7
2, 5594, Channel_aftertouch_c, 0, 10
2, 5595, Channel_aftertouch_c, 0, 12
2, 5596, Channel_aftertouch_c, 0, 13
2, 5598, Channel_aftertouch_c, 0, 12
2, 5599, Channel_aftertouch_c, 0, 10
2, 5599, Channel_aftertouch_c, 0, 7
2, 5600, Channel_aftertouch_c, 0, 4
2, 5601, Channel_aftertouch_c, 0, 3
2, 5602, Channel_aftertouch_c, 0, 4
2, 5603, Channel_aftertouch_c, 0, 8
2, 5604, Channel_aftertouch_c, 0, 12
2, 5604, Channel_aftertouch_c, 0, 15
2, 5605, Channel_aftertouch_c, 0, 16
2, 5606, Channel_aftertouch_c, 0, 19
2, 5608, Channel_aftertouch_c, 0, 22
2, 5610, Channel_aftertouch_c, 0, 25
2, 5610, Channel_aftertouch_c, 0, 27
2, 5611, Channel_aftertouch_c, 0, 28
2, 5612, Channel_aftertouch_c, 0, 30
2, 5613, Channel_aftertouch_c, 0, 31
2, 5613, Channel_aftertouch_c, 0, 33
2, 5614, Channel_aftertouch_c, 0, 34
2, 5615, Channel_aftertouch_c, 0, 36
2, 5616, Channel_aftertouch_c, 0, 39
2, 5616, Channel_aftertouch_c, 0, 40
2, 5617, Channel_aftertouch_c, 0, 42
2, 5618, Channel_aftertouch_c, 0, 43
2, 5618, Channel_aftertouch_c, 0, 45
2, 5620, Channel_aftertouch_c, 0, 46
2, 5621, Channel_aftertouch_c, 0, 49
2, 5623, Channel_aftertouch_c, 0, 51
2, 5624, Channel_aftertouch_c, 0, 54
2, 5627, Channel_aftertouch_c, 0, 55
2, 5629, Channel_aftertouch_c, 0, 57
2, 5631, Channel_aftertouch_c, 0, 60
2, 5633, Channel_aftertouch_c, 0, 61
2, 5638, Channel_aftertouch_c, 0, 58
2, 5640, Channel_aftertouch_c, 0, 57
2, 5646, Channel_aftertouch_c, 0, 55
2, 5647, Channel_aftertouch_c, 0, 52
2, 5648, Channel_aftertouch_c, 0, 51
2, 5649, Channel_aftertouch_c, 0, 48
2, 5649, Channel_aftertouch_c, 0, 46
2, 5650, Channel_aftertouch_c, 0, 43
2, 5651, Channel_aftertouch_c, 0, 40
2, 5651, Channel_aftertouch_c, 0, 37
2, 5652, Channel_aftertouch_c, 0, 34
2, 5653, Channel_aftertouch_c, 0, 30
2, 5654, Channel_aftertouch_c, 0, 27
2, 5654, Channel_aftertouch_c, 0, 23
2, 5655, Channel_aftertouch_c, 0, 19
2, 5656, Channel_aftertouch_c, 0, 15
2, 5656, Channel_aftertouch_c, 0, 11
2, 5657, Channel_aftertouch_c, 0, 7
2, 5658, Channel_aftertouch_c, 0, 3
2, 5659, Channel_aftertouch_c, 0, 0
2, 5692, Note_on_c, 0, 53, 0
2, 5701, Note_on_c, 0, 33, 75
2, 5705, Note_on_c, 0, 38, 0
2, 5760, Note_on_c, 0, 38, 94
2, 5763, Note_on_c, 0, 33, 0
2, 5764, Channel_aftertouch_c, 0, 4
2, 5765, Channel_aftertouch_c, 0, 8
2, 5765, Channel_aftertouch_c, 0, 12
2, 5766, Channel_aftertouch_c, 0, 16
2, 5767, Channel_aftertouch_c, 0, 20
2, 5767, Channel_aftertouch_c, 0, 24
2, 5768, Channel_aftertouch_c, 0, 28
2, 5769, Channel_aftertouch_c, 0, 32
2, 5770, Channel_aftertouch_c, 0, 36
2, 5770, Channel_aftertouch_c, 0, 40
2, 5771, Channel_aftertouch_c, 0, 44
2, 5772, Channel_aftertouch_c, 0, 48
2, 5772, Channel_aftertouch_c, 0, 52
2, 5773, Channel_aftertouch_c, 0, 56
2, 5774, Channel_aftertouch_c, 0, 58
2, 5774, Channel_aftertouch_c, 0, 55
2, 5775, Channel_aftertouch_c, 0, 52
2, 5776, Channel_aftertouch_c, 0, 49
2, 5777, Channel_aftertouch_c, 0, 48
2, 5778, Channel_aftertouch_c, 0, 45
2, 5778, Channel_aftertouch_c, 0, 42
2, 5779, Channel_aftertouch_c, 0, 39
2, 5780, Channel_aftertouch_c, 0, 36
2, 5781, Channel_aftertouch_c, 0, 32
2, 5781, Channel_aftertouch_c, 0, 28
2, 5782, Channel_aftertouch_c, 0, 24
2, 5783, Channel_aftertouch_c, 0, 20
2, 5783, Channel_aftertouch_c, 0, 16
2, 5784, Channel_aftertouch_c, 0, 12
2, 5785, Channel_aftertouch_c, 0, 8
2, 5786, Channel_aftertouch_c, 0, 4
2, 5786, Channel_aftertouch_c, 0, 0
2, 5803, Channel_aftertouch_c, 0, 1
2, 5804, Channel_aftertouch_c, 0, 4
2, 5804, Channel_aftertouch_c, 0, 6
2, 5805, Channel_aftertouch_c, 0, 9
2, 5806, Channel_aftertouch_c, 0, 10
2, 5808, Channel_aftertouch_c, 0, 6
2, 5809, Channel_aftertouch_c, 0, 2
2, 5809, Channel_aftertouch_c, 0, 1
2, 5821, Note_on_c, 0, 53, 61
2, 5849, Note_on_c, 0, 52, 58
2, 5850, Note_on_c, 0, 53, 0
2, 5883, Note_on_c, 0, 53, 67
2, 5885, Note_on_c, 0, 52, 0
2, 5925, Channel_aftertouch_c, 0, 3
2, 5925, Channel_aftertouch_c, 0, 4
2, 5926, Channel_aftertouch_c, 0, 6
2, 5927, Channel_aftertouch_c, 0, 9
2, 5928, Channel_aftertouch_c, 0, 12
2, 5928, Channel_aftertouch_c, 0, 13
2, 5929, Channel_aftertouch_c, 0, 15
2, 5930, Channel_aftertouch_c, 0, 16
2, 5930, Channel_aftertouch_c, 0, 18
2, 5932, Channel_aftertouch_c, 0, 21
2, 5934, Channel_aftertouch_c, 0, 22
2, 5939, Channel_aftertouch_c, 0, 25
2, 5941, Channel_aftertouch_c, 0, 27
2, 5943, Channel_aftertouch_c, 0, 28
2, 5946, Channel_aftertouch_c, 0, 30
2, 5948, Channel_aftertouch_c, 0, 33
2, 5950, Channel_aftertouch_c, 0, 34
2, 5951, Channel_aftertouch_c, 0, 36
2, 5952, Channel_aftertouch_c, 0, 37
2, 5956, Channel_aftertouch_c, 0, 34
2, 5957, Channel_aftertouch_c, 0, 30
2, 5957, Channel_aftertouch_c, 0, 26
2, 5958, Channel_aftertouch_c, 0, 22
2, 5959, Channel_aftertouch_c, 0, 18
2, 5960, Channel_aftertouch_c, 0, 14
2, 5960, Channel_aftertouch_c, 0, 10
2, 5961, Channel_aftertouch_c, 0, 6
2, 5962, Channel_aftertouch_c, 0, 2
2, 5962, Channel_aftertouch_c, 0, 0
2, 5971, Note_on_c, 0, 53, 0
2, 5999, Note_on_c, 0, 53, 61
2, 6031, Note_on_c, 0, 52, 50
2, 6043, Note_on_c, 0, 53, 0
2, 6059, Note_on_c, 0, 52, 0
2, 6061, Note_on_c, 0, 53, 61
2, 6101, Channel_aftertouch_c, 0, 1
2, 6102, Channel_aftertouch_c, 0, 4
2, 6104, Channel_aftertouch_c, 0, 7
2, 6105, Channel_aftertouch_c, 0, 9
2, 6105, Channel_aftertouch_c, 0, 10
2, 6106, Channel_aftertouch_c, 0, 12
2, 6107, Channel_aftertouch_c, 0, 13
2, 6107, Channel_aftertouch_c, 0, 15
2, 6108, Channel_aftertouch_c, 0, 18
2, 6110, Channel_aftertouch_c, 0, 19
2, 6110, Channel_aftertouch_c, 0, 21
2, 6111, Channel_aftertouch_c, 0, 22
2, 6112, Channel_aftertouch_c, 0, 24
2, 6113, Channel_aftertouch_c, 0, 27
2, 6114, Channel_aftertouch_c, 0, 28
2, 6116, Channel_aftertouch_c, 0, 30
2, 6117, Channel_aftertouch_c, 0, 31
2, 6121, Channel_aftertouch_c, 0, 30
2, 6122, Channel_aftertouch_c, 0, 28
2, 6124, Channel_aftertouch_c, 0, 27
2, 6129, Channel_aftertouch_c, 0, 28
2, 6131, Channel_aftertouch_c, 0, 30
2, 6135, Channel_aftertouch_c, 0, 31
2, 6137, Channel_aftertouch_c, 0, 34
2, 6139, Channel_aftertouch_c, 0, 36
2, 6139, Channel_aftertouch_c, 0, 37
2, 6140, Channel_aftertouch_c, 0, 39
2, 6142, Channel_aftertouch_c, 0, 42
2, 6143, Channel_aftertouch_c, 0, 45
2, 6145, Channel_aftertouch_c, 0, 46
2, 6149, Channel_aftertouch_c, 0, 45
2, 6150, Channel_aftertouch_c, 0, 42
2, 6152, Channel_aftertouch_c, 0, 40
2, 6153, Channel_aftertouch_c, 0, 39
2, 6155, Channel_aftertouch_c, 0, 36
2, 6156, Channel_aftertouch_c, 0, 33
2, 6157, Channel_aftertouch_c, 0, 31
2, 6158, Channel_aftertouch_c, 0, 30
2, 6158, Channel_aftertouch_c, 0, 27
2, 6159, Channel_aftertouch_c, 0, 23
2, 6160, Channel_aftertouch_c, 0, 19
2, 6161, Channel_aftertouch_c, 0, 15
2, 6161, Channel_aftertouch_c, 0, 11
2, 6162, Channel_aftertouch_c, 0, 7
2, 6163, Channel_aftertouch_c, 0, 3
2, 6164, Channel_aftertouch_c, 0, 0
2, 6175, Note_on_c, 0, 53, 0
2, 6181, Note_on_c, 0, 33, 75
2, 6182, Note_on_c, 0, 38, 0
2, 6239, Note_on_c, 0, 33, 0
2, 6239, Note_on_c, 0, 38, 79
2, 6243, Channel_aftertouch_c, 0, 4
2, 6244, Channel_aftertouch_c, 0, 8
2, 6245, Channel_aftertouch_c, 0, 12
2, 6245, Channel_aftertouch_c, 0, 16
2, 6246, Channel_aftertouch_c, 0, 20
2, 6247, Channel_aftertouch_c, 0, 24
2, 6248, Channel_aftertouch_c, 0, 28
2, 6248, Channel_aftertouch_c, 0, 32
2, 6249, Channel_aftertouch_c, 0, 36
2, 6250, Channel_aftertouch_c, 0, 39
2, 6251, Channel_aftertouch_c, 0, 36
2, 6251, Channel_aftertouch_c, 0, 34
2, 6252, Channel_aftertouch_c, 0, 31
2, 6253, Channel_aftertouch_c, 0, 30
2, 6253, Channel_aftertouch_c, 0, 27
2, 6255, Channel_aftertouch_c, 0, 24
2, 6256, Channel_aftertouch_c, 0, 22
2, 6257, Channel_aftertouch_c, 0, 19
2, 6257, Channel_aftertouch_c, 0, 16
2, 6258, Channel_aftertouch_c, 0, 12
2, 6259, Channel_aftertouch_c, 0, 8
2, 6260, Channel_aftertouch_c, 0, 4
2, 6260, Channel_aftertouch_c, 0, 0
2, 6270, Channel_aftertouch_c, 0, 3
2, 6270, Channel_aftertouch_c, 0, 4
2, 6271, Channel_aftertouch_c, 0, 6
2, 6272, Channel_aftertouch_c, 0, 7
2, 6274, Channel_aftertouch_c, 0, 3
2, 6275, Channel_aftertouch_c, 0, 0
2, 6299, Note_on_c, 0, 53, 59
2, 6326, Note_on_c, 0, 53, 0
2, 6328, Note_on_c, 0, 52, 52
2, 6358, Note_on_c, 0, 53, 67
2, 6360, Note_on_c, 0, 52, 0
2, 6367, Channel_aftertouch_c, 0, 3
2, 6368, Channel_aftertouch_c, 0, 4
2, 6374, Channel_aftertouch_c, 0, 7
2, 6377, Channel_aftertouch_c, 0, 9
2, 6378, Channel_aftertouch_c, 0, 10
2, 6380, Channel_aftertouch_c, 0, 12
2, 6381, Channel_aftertouch_c, 0, 13
2, 6383, Channel_aftertouch_c, 0, 16
2, 6383, Channel_aftertouch_c, 0, 18
2, 6385, Channel_aftertouch_c, 0, 19
2, 6387, Channel_aftertouch_c, 0, 22
2, 6388, Channel_aftertouch_c, 0, 24
2, 6390, Channel_aftertouch_c, 0, 25
2, 6390, Channel_aftertouch_c, 0, 27
2, 6391, Channel_aftertouch_c, 0, 28
2, 6392, Channel_aftertouch_c, 0, 31
2, 6393, Channel_aftertouch_c, 0, 33
2, 6394, Channel_aftertouch_c, 0, 36
2, 6395, Channel_aftertouch_c, 0, 39
2, 6395, Channel_aftertouch_c, 0, 42
2, 6396, Channel_aftertouch_c, 0, 45
2, 6397, Channel_aftertouch_c, 0, 48
2, 6397, Channel_aftertouch_c, 0, 51
2, 6398, Channel_aftertouch_c, 0, 52
2, 6399, Channel_aftertouch_c, 0, 55
2, 6399, Channel_aftertouch_c, 0, 57
2, 6400, Channel_aftertouch_c, 0, 58
2, 6401, Channel_aftertouch_c, 0, 61
2, 6402, Channel_aftertouch_c, 0, 63
2, 6404, Channel_aftertouch_c, 0, 66
2, 6405, Channel_aftertouch_c, 0, 67
2, 6407, Channel_aftertouch_c, 0, 69
2, 6411, Channel_aftertouch_c, 0, 70
2, 6413, Channel_aftertouch_c, 0, 72
2, 6419, Channel_aftertouch_c, 0, 70
2, 6421, Channel_aftertouch_c, 0, 67
2, 6421, Channel_aftertouch_c, 0, 66
2, 6422, Channel_aftertouch_c, 0, 63
2, 6423, Channel_aftertouch_c, 0, 59
2, 6424, Channel_aftertouch_c, 0, 55
2, 6425, Channel_aftertouch_c, 0, 51
2, 6425, Channel_aftertouch_c, 0, 47
2, 6426, Channel_aftertouch_c, 0, 43
2, 6427, Channel_aftertouch_c, 0, 39
2, 6428, Channel_aftertouch_c, 0, 35
2, 6428, Channel_aftertouch_c, 0, 31
2, 6429, Channel_aftertouch_c, 0, 27
2, 6430, Channel_aftertouch_c, 0, 23
2, 6431, Channel_aftertouch_c, 0, 19
2, 6431, Channel_aftertouch_c, 0, 15
2, 6432, Channel_aftertouch_c, 0, 11
2, 6433, Channel_aftertouch_c, 0, 7
2, 6434, Channel_aftertouch_c, 0, 3
2, 6434, Channel_aftertouch_c, 0, 0
2, 6445, Note_on_c, 0, 53, 0
2, 6477, Note_on_c, 0, 53, 63
2, 6507, Note_on_c, 0, 52, 56
2, 6512, Note_on_c, 0, 53, 0
2, 6540, Note_on_c, 0, 53, 62
2, 6543, Note_on_c, 0, 52, 0
2, 6574, Channel_aftertouch_c, 0, 3
2, 6574, Channel_aftertouch_c, 0, 6
2, 6575, Channel_aftertouch_c, 0, 9
2, 6576, Channel_aftertouch_c, 0, 13
2, 6577, Channel_aftertouch_c, 0, 16
2, 6577, Channel_aftertouch_c, 0, 19
2, 6578, Channel_aftertouch_c, 0, 23
2, 6579, Channel_aftertouch_c, 0, 27
2, 6580, Channel_aftertouch_c, 0, 30
2, 6580, Channel_aftertouch_c, 0, 31
2, 6581, Channel_aftertouch_c, 0, 34
2, 6582, Channel_aftertouch_c, 0, 38
2, 6583, Channel_aftertouch_c, 0, 40
2, 6584, Channel_aftertouch_c, 0, 42
2, 6584, Channel_aftertouch_c, 0, 45
2, 6585, Channel_aftertouch_c, 0, 46
2, 6586, Channel_aftertouch_c, 0, 49
2, 6586, Channel_aftertouch_c, 0, 51
2, 6587, Channel_aftertouch_c, 0, 52
2, 6588, Channel_aftertouch_c, 0, 54
2, 6589, Channel_aftertouch_c, 0, 57
2, 6590, Channel_aftertouch_c, 0, 60
2, 6592, Channel_aftertouch_c, 0, 61
2, 6593, Channel_aftertouch_c, 0, 64
2, 6595, Channel_aftertouch_c, 0, 66
2, 6596, Channel_aftertouch_c, 0, 69
2, 6599, Channel_aftertouch_c, 0, 70
2, 6601, Channel_aftertouch_c, 0, 72
2, 6609, Channel_aftertouch_c, 0, 70
2, 6611, Channel_aftertouch_c, 0, 69
2, 6613, Channel_aftertouch_c, 0, 66
2, 6615, Channel_aftertouch_c, 0, 64
2, 6619, Channel_aftertouch_c, 0, 63
2, 6620, Channel_aftertouch_c, 0, 61
2, 6621, Channel_aftertouch_c, 0, 60
2, 6622, Channel_aftertouch_c, 0, 57
2, 6623, Channel_aftertouch_c, 0, 55
2, 6624, Channel_aftertouch_c, 0, 52
2, 6624, Channel_aftertouch_c, 0, 49
2, 6625, Channel_aftertouch_c, 0, 48
2, 6626, Channel_aftertouch_c, 0, 45
2, 6627, Channel_aftertouch_c, 0, 42
2, 6627, Channel_aftertouch_c, 0, 40
2, 6628, Channel_aftertouch_c, 0, 37
2, 6629, Channel_aftertouch_c, 0, 36
2, 6630, Channel_aftertouch_c, 0, 34
2, 6631, Channel_aftertouch_c, 0, 31
2, 6633, Channel_aftertouch_c, 0, 28
2, 6634, Channel_aftertouch_c, 0, 25
2, 6635, Channel_aftertouch_c, 0, 24
2, 6635, Channel_aftertouch_c, 0, 21
2, 6636, Channel_aftertouch_c, 0, 17
2, 6637, Channel_aftertouch_c, 0, 13
2, 6637, Channel_aftertouch_c, 0, 9
2, 6638, Channel_aftertouch_c, 0, 5
2, 6639, Channel_aftertouch_c, 0, 1
2, 6640, Channel_aftertouch_c, 0, 0
2, 6653, Note_on_c, 0, 53, 0
2, 6662, Note_on_c, 0, 33, 72
2, 6664, Note_on_c, 0, 38, 0
2, 6719, Note_on_c, 0, 38, 84
2, 6720, Note_on_c, 0, 33, 0
2, 6726, Channel_aftertouch_c, 0, 4
2, 6726, Channel_aftertouch_c, 0, 8
2, 6727, Channel_aftertouch_c, 0, 12
2, 6728, Channel_aftertouch_c, 0, 16
2, 6728, Channel_aftertouch_c, 0, 20
2, 6729, Channel_aftertouch_c, 0, 21
2, 6730, Channel_aftertouch_c, 0, 17
2, 6731, Channel_aftertouch_c, 0, 13
2, 6732, Channel_aftertouch_c, 0, 9
2, 6732, Channel_aftertouch_c, 0, 5
2, 6733, Channel_aftertouch_c, 0, 1
2, 6734, Channel_aftertouch_c, 0, 0
2, 6778, Note_on_c, 0, 53, 50
2, 6808, Note_on_c, 0, 52, 54
2, 6810, Note_on_c, 0, 53, 0
2, 6841, Note_on_c, 0, 53, 67
2, 6845, Note_on_c, 0, 52, 0
2, 6854, Channel_aftertouch_c, 0, 1
2, 6855, Channel_aftertouch_c, 0, 4
2, 6856, Channel_aftertouch_c, 0, 6
2, 6860, Channel_aftertouch_c, 0, 4
2, 6865, Channel_aftertouch_c, 0, 6
2, 6868, Channel_aftertouch_c, 0, 9
2, 6869, Channel_aftertouch_c, 0, 10
2, 6870, Channel_aftertouch_c, 0, 13
2, 6871, Channel_aftertouch_c, 0, 16
2, 6871, Channel_aftertouch_c, 0, 18
2, 6872, Channel_aftertouch_c, 0, 21
2, 6873, Channel_aftertouch_c, 0, 22
2, 6874, Channel_aftertouch_c, 0, 24
2, 6875, Channel_aftertouch_c, 0, 27
2, 6876, Channel_aftertouch_c, 0, 28
2, 6878, Channel_aftertouch_c, 0, 30
2, 6880, Channel_aftertouch_c, 0, 31
2, 6881, Channel_aftertouch_c, 0, 34
2, 6883, Channel_aftertouch_c, 0, 36
2, 6885, Channel_aftertouch_c, 0, 37
2, 6886, Channel_aftertouch_c, 0, 40
2, 6888, Channel_aftertouch_c, 0, 42
2, 6894, Channel_aftertouch_c, 0, 39
2, 6896, Channel_aftertouch_c, 0, 37
2, 6897, Channel_aftertouch_c, 0, 36
2, 6897, Channel_aftertouch_c, 0, 33
2, 6899, Channel_aftertouch_c, 0, 30
2, 6900, Channel_aftertouch_c, 0, 28
2, 6906, Channel_aftertouch_c, 0, 27
2, 6907, Channel_aftertouch_c, 0, 24
2, 6908, Channel_aftertouch_c, 0, 20
2, 6908, Channel_aftertouch_c, 0, 16
2, 6909, Channel_aftertouch_c, 0, 12
2, 6910, Channel_aftertouch_c, 0, 8
2, 6911, Channel_aftertouch_c, 0, 4
2, 6911, Channel_aftertouch_c, 0, 0
2, 6933, Note_on_c, 0, 53, 0
2, 6958, Note_on_c, 0, 38, 0
2, 6960, Note_on_c, 0, 36, 79
2, 7030, Channel_aftertouch_c, 0, 1
2, 7031, Channel_aftertouch_c, 0, 3
2, 7032, Channel_aftertouch_c, 0, 6
2, 7032, Channel_aftertouch_c, 0, 9
2, 7033, Channel_aftertouch_c, 0, 12
2, 7034, Channel_aftertouch_c, 0, 15
2, 7035, Channel_aftertouch_c, 0, 16
2, 7036, Channel_aftertouch_c, 0, 18
2, 7038, Channel_aftertouch_c, 0, 15
2, 7039, Channel_aftertouch_c, 0, 12
2, 7040, Channel_aftertouch_c, 0, 9
2, 7041, Channel_aftertouch_c, 0, 5
2, 7041, Channel_aftertouch_c, 0, 1
2, 7042, Channel_aftertouch_c, 0, 0
2, 7048, Channel_aftertouch_c, 0, 1
2, 7049, Channel_aftertouch_c, 0, 4
2, 7049, Channel_aftertouch_c, 0, 8
2, 7050, Channel_aftertouch_c, 0, 10
2, 7051, Channel_aftertouch_c, 0, 13
2, 7051, Channel_aftertouch_c, 0, 15
2, 7052, Channel_aftertouch_c, 0, 18
2, 7053, Channel_aftertouch_c, 0, 19
2, 7054, Channel_aftertouch_c, 0, 22
2, 7055, Channel_aftertouch_c, 0, 24
2, 7056, Channel_aftertouch_c, 0, 27
2, 7056, Channel_aftertouch_c, 0, 28
2, 7057, Channel_aftertouch_c, 0, 30
2, 7058, Channel_aftertouch_c, 0, 33
2, 7058, Channel_aftertouch_c, 0, 34
2, 7059, Channel_aftertouch_c, 0, 36
2, 7060, Channel_aftertouch_c, 0, 39
2, 7060, Channel_aftertouch_c, 0, 40
2, 7061, Channel_aftertouch_c, 0, 42
2, 7062, Channel_aftertouch_c, 0, 45
2, 7063, Channel_aftertouch_c, 0, 46
2, 7063, Channel_aftertouch_c, 0, 48
2, 7064, Channel_aftertouch_c, 0, 49
2, 7065, Channel_aftertouch_c, 0, 52
2, 7066, Channel_aftertouch_c, 0, 54
2, 7066, Channel_aftertouch_c, 0, 55
2, 7068, Channel_aftertouch_c, 0, 57
2, 7069, Channel_aftertouch_c, 0, 58
2, 7071, Channel_aftertouch_c, 0, 60
2, 7073, Channel_aftertouch_c, 0, 63
2, 7075, Channel_aftertouch_c, 0, 64
2, 7079, Channel_aftertouch_c, 0, 61
2, 7080, Channel_aftertouch_c, 0, 58
2, 7081, Channel_aftertouch_c, 0, 57
2, 7082, Channel_aftertouch_c, 0, 55
2, 7083, Channel_aftertouch_c, 0, 52
2, 7083, Channel_aftertouch_c, 0, 51
2, 7084, Channel_aftertouch_c, 0, 49
2, 7085, Channel_aftertouch_c, 0, 46
2, 7086, Channel_aftertouch_c, 0, 45
2, 7089, Channel_aftertouch_c, 0, 46
2, 7090, Channel_aftertouch_c, 0, 48
2, 7090, Channel_aftertouch_c, 0, 51
2, 7091, Channel_aftertouch_c, 0, 52
2, 7092, Channel_aftertouch_c, 0, 54
2, 7092, Channel_aftertouch_c, 0, 57
2, 7094, Channel_aftertouch_c, 0, 58
2, 7096, Channel_aftertouch_c, 0, 60
2, 7098, Channel_aftertouch_c, 0, 58
2, 7099, Channel_aftertouch_c, 0, 57
2, 7100, Channel_aftertouch_c, 0, 55
2, 7100, Channel_aftertouch_c, 0, 52
2, 7101, Channel_aftertouch_c, 0, 51
2, 7102, Channel_aftertouch_c, 0, 48
2, 7102, Channel_aftertouch_c, 0, 45
2, 7103, Channel_aftertouch_c, 0, 42
2, 7104, Channel_aftertouch_c, 0, 40
2, 7104, Channel_aftertouch_c, 0, 39
2, 7105, Channel_aftertouch_c, 0, 36
2, 7106, Channel_aftertouch_c, 0, 34
2, 7107, Channel_aftertouch_c, 0, 33
2, 7107, Channel_aftertouch_c, 0, 30
2, 7108, Channel_aftertouch_c, 0, 27
2, 7109, Channel_aftertouch_c, 0, 23
2, 7110, Channel_aftertouch_c, 0, 19
2, 7111, Channel_aftertouch_c, 0, 15
2, 7111, Channel_aftertouch_c, 0, 11
2, 7112, Channel_aftertouch_c, 0, 7
2, 7113, Channel_aftertouch_c, 0, 3
2, 7113, Channel_aftertouch_c, 0, 0
2, 7199, Note_on_c, 0, 36, 0
2, 7202, Note_on_c, 0, 31, 110
2, 7221, Note_on_c, 0, 31, 0
2, 7233, Note_on_c, 0, 31, 72
2, 7247, Note_on_c, 0, 31, 0
2, 7262, Note_on_c, 0, 31, 75
2, 7275, Note_on_c, 0, 31, 0
2, 7292, Note_on_c, 0, 31, 75
2, 7303, Note_on_c, 0, 31, 0
2, 7322, Note_on_c, 0, 31, 100
2, 7328, Channel_aftertouch_c, 0, 3
2, 7328, Channel_aftertouch_c, 0, 6
2, 7329, Channel_aftertouch_c, 0, 3
2, 7330, Channel_aftertouch_c, 0, 7
2, 7331, Channel_aftertouch_c, 0, 11
2, 7332, Channel_aftertouch_c, 0, 15
2, 7333, Channel_aftertouch_c, 0, 11
2, 7333, Channel_aftertouch_c, 0, 7
2, 7334, Channel_aftertouch_c, 0, 3
2, 7335, Channel_aftertouch_c, 0, 0
2, 7352, Channel_aftertouch_c, 0, 3
2, 7353, Channel_aftertouch_c, 0, 6
2, 7353, Channel_aftertouch_c, 0, 9
2, 7354, Channel_aftertouch_c, 0, 12
2, 7355, Channel_aftertouch_c, 0, 15
2, 7355, Channel_aftertouch_c, 0, 18
2, 7356, Channel_aftertouch_c, 0, 21
2, 7357, Channel_aftertouch_c, 0, 22
2, 7358, Channel_aftertouch_c, 0, 25
2, 7358, Channel_aftertouch_c, 0, 27
2, 7358, Channel_aftertouch_c, 0, 30
2, 7360, Channel_aftertouch_c, 0, 31
2, 7360, Channel_aftertouch_c, 0, 34
2, 7361, Channel_aftertouch_c, 0, 36
2, 7362, Channel_aftertouch_c, 0, 39
2, 7363, Channel_aftertouch_c, 0, 40
2, 7363, Channel_aftertouch_c, 0, 43
2, 7364, Channel_aftertouch_c, 0, 45
2, 7365, Channel_aftertouch_c, 0, 46
2, 7366, Channel_aftertouch_c, 0, 48
2, 7367, Channel_aftertouch_c, 0, 51
2, 7367, Channel_aftertouch_c, 0, 52
2, 7368, Channel_aftertouch_c, 0, 54
2, 7369, Channel_aftertouch_c, 0, 55
2, 7370, Channel_aftertouch_c, 0, 58
2, 7371, Channel_aftertouch_c, 0, 60
2, 7373, Channel_aftertouch_c, 0, 63
2, 7374, Channel_aftertouch_c, 0, 64
2, 7376, Channel_aftertouch_c, 0, 66
2, 7377, Channel_aftertouch_c, 0, 67
2, 7379, Channel_aftertouch_c, 0, 69
2, 7384, Channel_aftertouch_c, 0, 70
2, 7389, Channel_aftertouch_c, 0, 72
2, 7393, Channel_aftertouch_c, 0, 73
2, 7396, Channel_aftertouch_c, 0, 75
2, 7399, Channel_aftertouch_c, 0, 76
2, 7402, Channel_aftertouch_c, 0, 79
2, 7405, Channel_aftertouch_c, 0, 81
2, 7409, Channel_aftertouch_c, 0, 82
2, 7413, Channel_aftertouch_c, 0, 84
2, 7421, Channel_aftertouch_c, 0, 85
2, 7427, Channel_aftertouch_c, 0, 87
2, 7444, Channel_aftertouch_c, 0, 84
2, 7445, Channel_aftertouch_c, 0, 82
2, 7447, Channel_aftertouch_c, 0, 79
2, 7448, Channel_aftertouch_c, 0, 78
2, 7450, Channel_aftertouch_c, 0, 76
2, 7452, Channel_aftertouch_c, 0, 75
2, 7462, Channel_aftertouch_c, 0, 76
2, 7464, Channel_aftertouch_c, 0, 78
2, 7466, Channel_aftertouch_c, 0, 79
2, 7470, Channel_aftertouch_c, 0, 81
2, 7473, Channel_aftertouch_c, 0, 82
2, 7477, Channel_aftertouch_c, 0, 85
2, 7484, Channel_aftertouch_c, 0, 87
2, 7492, Channel_aftertouch_c, 0, 84
2, 7495, Channel_aftertouch_c, 0, 82
2, 7497, Channel_aftertouch_c, 0, 81
2, 7498, Channel_aftertouch_c, 0, 78
2, 7499, Channel_aftertouch_c, 0, 76
2, 7500, Channel_aftertouch_c, 0, 73
2, 7501, Channel_aftertouch_c, 0, 72
2, 7502, Channel_aftertouch_c, 0, 69
2, 7502, Channel_aftertouch_c, 0, 66
2, 7503, Channel_aftertouch_c, 0, 63
2, 7504, Channel_aftertouch_c, 0, 59
2, 7505, Channel_aftertouch_c, 0, 55
2, 7505, Channel_aftertouch_c, 0, 51
2, 7506, Channel_aftertouch_c, 0, 47
2, 7507, Channel_aftertouch_c, 0, 43
2, 7508, Channel_aftertouch_c, 0, 39
2, 7508, Channel_aftertouch_c, 0, 35
2, 7509, Channel_aftertouch_c, 0, 31
2, 7510, Channel_aftertouch_c, 0, 27
2, 7510, Channel_aftertouch_c, 0, 23
2, 7511, Channel_aftertouch_c, 0, 19
2, 7512, Channel_aftertouch_c, 0, 15
2, 7512, Channel_aftertouch_c, 0, 11
2, 7513, Channel_aftertouch_c, 0, 7
2, 7514, Channel_aftertouch_c, 0, 3
2, 7514, Channel_aftertouch_c, 0, 0
2, 7536, Pitch_bend_c, 0, 8064
2, 7536, Pitch_bend_c, 0, 7936
2, 7537, Pitch_bend_c, 0, 7808
2, 7539, Pitch_bend_c, 0, 7552
2, 7540, Pitch_bend_c, 0, 7424
2, 7541, Pitch_bend_c, 0, 7168
2, 7543, Pitch_bend_c, 0, 7040
2, 7544, Pitch_bend_c, 0, 6784
2, 7546, Pitch_bend_c, 0, 6528
2, 7547, Pitch_bend_c, 0, 6400
2, 7548, Pitch_bend_c, 0, 6272
2, 7549, Pitch_bend_c, 0, 6016
2, 7551, Pitch_bend_c, 0, 5760
2, 7551, Pitch_bend_c, 0, 5632
2, 7553, Pitch_bend_c, 0, 5376
2, 7553, Pitch_bend_c, 0, 5120
2, 7554, Pitch_bend_c, 0, 4992
2, 7555, Pitch_bend_c, 0, 4864
2, 7555, Pitch_bend_c, 0, 4736
2, 7556, Pitch_bend_c, 0, 4480
2, 7557, Pitch_bend_c, 0, 4352
2, 7557, Pitch_bend_c, 0, 4224
2, 7558, Pitch_bend_c, 0, 4096
2, 7559, Pitch_bend_c, 0, 3840
2, 7560, Pitch_bend_c, 0, 3712
2, 7560, Pitch_bend_c, 0, 3584
2, 7561, Pitch_bend_c, 0, 3456
2, 7561, Pitch_bend_c, 0, 3328
2, 7562, Pitch_bend_c, 0, 3072
2, 7563, Pitch_bend_c, 0, 2944
2, 7564, Pitch_bend_c, 0, 2816
2, 7564, Pitch_bend_c, 0, 2688
2, 7565, Pitch_bend_c, 0, 2432
2, 7566, Pitch_bend_c, 0, 2304
2, 7566, Pitch_bend_c, 0, 2176
2, 7567, Pitch_bend_c, 0, 1920
2, 7568, Pitch_bend_c, 0, 1792
2, 7569, Pitch_bend_c, 0, 1536
2, 7570, Pitch_bend_c, 0, 1408
2, 7570, Pitch_bend_c, 0, 1152
2, 7571, Pitch_bend_c, 0, 1024
2, 7572, Pitch_bend_c, 0, 768
2, 7573, Pitch_bend_c, 0, 640
2, 7573, Pitch_bend_c, 0, 384
2, 7574, Note_on_c, 0, 31, 0
2, 7574, Pitch_bend_c, 0, 128
2, 7575, Pitch_bend_c, 0, 0
2, 7606, Pitch_bend_c, 0, 256
2, 7607, Pitch_bend_c, 0, 1408
2, 7607, Pitch_bend_c, 0, 2816
2, 7608, Pitch_bend_c, 0, 4736
2, 7609, Pitch_bend_c, 0, 7680
2, 7609, Pitch_bend_c, 0, 8192
2, 7610, Pitch_bend_c, 0, 8712
2, 7611, Pitch_bend_c, 0, 9622
2, 7612, Pitch_bend_c, 0, 8582
2, 7613, Pitch_bend_c, 0, 8192
2, 7614, Pitch_bend_c, 0, 6656
2, 7615, Pitch_bend_c, 0, 5760
2, 7616, Pitch_bend_c, 0, 6144
2, 7617, Pitch_bend_c, 0, 7168
2, 7617, Pitch_bend_c, 0, 8192
2, 7684, Note_on_c, 0, 29, 114
2, 7690, Pitch_bend_c, 0, 8452
2, 7691, Pitch_bend_c, 0, 8842
2, 7692, Pitch_bend_c, 0, 9232
2, 7692, Pitch_bend_c, 0, 9622
2, 7693, Pitch_bend_c, 0, 10012
2, 7694, Pitch_bend_c, 0, 10402
2, 7694, Pitch_bend_c, 0, 10792
2, 7695, Pitch_bend_c, 0, 11442
2, 7696, Pitch_bend_c, 0, 11962
2, 7696, Pitch_bend_c, 0, 12352
2, 7697, Pitch_bend_c, 0, 12742
2, 7698, Pitch_bend_c, 0, 13262
2, 7698, Pitch_bend_c, 0, 13782
2, 7699, Pitch_bend_c, 0, 14172
2, 7700, Pitch_bend_c, 0, 14562
2, 7701, Pitch_bend_c, 0, 15082
2, 7701, Pitch_bend_c, 0, 15472
2, 7701, Pitch_bend_c, 0, 15992
2, 7703, Pitch_bend_c, 0, 16382
2, 7704, Note_on_c, 0, 29, 0
2, 7715, Note_on_c, 0, 29, 69
2, 7727, Note_on_c, 0, 29, 0
2, 7743, Note_on_c, 0, 29, 67
2, 7758, Note_on_c, 0, 29, 0
2, 7772, Note_on_c, 0, 29, 74
2, 7788, Note_on_c, 0, 29, 0
2, 7789, Pitch_bend_c, 0, 16252
2, 7789, Pitch_bend_c, 0, 15992
2, 7790, Pitch_bend_c, 0, 15602
2, 7791, Pitch_bend_c, 0, 15212
2, 7792, Pitch_bend_c, 0, 14822
2, 7793, Pitch_bend_c, 0, 14432
2, 7794, Pitch_bend_c, 0, 14172
2, 7794, Pitch_bend_c, 0, 13782
2, 7795, Pitch_bend_c, 0, 13392
2, 7796, Pitch_bend_c, 0, 13132
2, 7796, Pitch_bend_c, 0, 12742
2, 7797, Pitch_bend_c, 0, 12482
2, 7798, Pitch_bend_c, 0, 12222
2, 7798, Pitch_bend_c, 0, 11962
2, 7799, Pitch_bend_c, 0, 11832
2, 7800, Pitch_bend_c, 0, 11572
2, 7801, Pitch_bend_c, 0, 11442
2, 7801, Note_on_c, 0, 29, 100
2, 7804, Channel_aftertouch_c, 0, 3
2, 7804, Pitch_bend_c, 0, 11702
2, 7804, Channel_aftertouch_c, 0, 0
2, 7805, Pitch_bend_c, 0, 11832
2, 7805, Channel_aftertouch_c, 0, 4
2, 7806, Pitch_bend_c, 0, 12092
2, 7806, Channel_aftertouch_c, 0, 8
2, 7806, Pitch_bend_c, 0, 12352
2, 7807, Channel_aftertouch_c, 0, 12
2, 7808, Pitch_bend_c, 0, 12742
2, 7808, Channel_aftertouch_c, 0, 16
2, 7808, Pitch_bend_c, 0, 13132
2, 7808, Channel_aftertouch_c, 0, 20
2, 7809, Pitch_bend_c, 0, 13522
2, 7809, Channel_aftertouch_c, 0, 24
2, 7810, Pitch_bend_c, 0, 14042
2, 7810, Channel_aftertouch_c, 0, 28
2, 7810, Pitch_bend_c, 0, 14562
2, 7811, Channel_aftertouch_c, 0, 32
2, 7811, Pitch_bend_c, 0, 15082
2, 7811, Channel_aftertouch_c, 0, 36
2, 7811, Pitch_bend_c, 0, 15602
2, 7812, Channel_aftertouch_c, 0, 40
2, 7812, Pitch_bend_c, 0, 16122
2, 7813, Channel_aftertouch_c, 0, 44
2, 7813, Pitch_bend_c, 0, 16382
2, 7813, Channel_aftertouch_c, 0, 48
2, 7814, Channel_aftertouch_c, 0, 52
2, 7815, Channel_aftertouch_c, 0, 56
2, 7815, Channel_aftertouch_c, 0, 60
2, 7816, Channel_aftertouch_c, 0, 64
2, 7817, Channel_aftertouch_c, 0, 67
2, 7818, Channel_aftertouch_c, 0, 66
2, 7822, Channel_aftertouch_c, 0, 67
2, 7823, Channel_aftertouch_c, 0, 69
2, 7823, Channel_aftertouch_c, 0, 70
2, 7824, Channel_aftertouch_c, 0, 72
2, 7826, Channel_aftertouch_c, 0, 75
2, 7827, Channel_aftertouch_c, 0, 76
2, 7830, Channel_aftertouch_c, 0, 78
2, 7832, Channel_aftertouch_c, 0, 79
2, 7834, Channel_aftertouch_c, 0, 81
2, 7838, Channel_aftertouch_c, 0, 82
2, 7846, Channel_aftertouch_c, 0, 84
2, 7852, Channel_aftertouch_c, 0, 87
2, 7897, Channel_aftertouch_c, 0, 88
2, 7926, Channel_aftertouch_c, 0, 90
2, 7948, Channel_aftertouch_c, 0, 91
2, 7996, Channel_aftertouch_c, 0, 90
2, 7999, Channel_aftertouch_c, 0, 88
2, 8002, Channel_aftertouch_c, 0, 87
2, 8006, Channel_aftertouch_c, 0, 85
2, 8009, Channel_aftertouch_c, 0, 84
2, 8010, Pitch_bend_c, 0, 16252
2, 8012, Pitch_bend_c, 0, 16122
2, 8012, Channel_aftertouch_c, 0, 81
2, 8014, Channel_aftertouch_c, 0, 79
2, 8014, Pitch_bend_c, 0, 15862
2, 8015, Pitch_bend_c, 0, 15732
2, 8016, Channel_aftertouch_c, 0, 78
2, 8017, Pitch_bend_c, 0, 15602
2, 8018, Channel_aftertouch_c, 0, 76
2, 8019, Pitch_bend_c, 0, 15342
2, 8019, Channel_aftertouch_c, 0, 73
2, 8020, Pitch_bend_c, 0, 15212
2, 8021, Channel_aftertouch_c, 0, 72
2, 8022, Pitch_bend_c, 0, 15082
2, 8022, Channel_aftertouch_c, 0, 69
2, 8023, Channel_aftertouch_c, 0, 67
2, 8023, Pitch_bend_c, 0, 14952
2, 8023, Channel_aftertouch_c, 0, 66
2, 8024, Channel_aftertouch_c, 0, 64
2, 8025, Pitch_bend_c, 0, 14692
2, 8025, Channel_aftertouch_c, 0, 61
2, 8026, Pitch_bend_c, 0, 14562
2, 8026, Channel_aftertouch_c, 0, 60
2, 8028, Pitch_bend_c, 0, 14432
2, 8028, Channel_aftertouch_c, 0, 58
2, 8029, Pitch_bend_c, 0, 14302
2, 8029, Channel_aftertouch_c, 0, 55
2, 8031, Pitch_bend_c, 0, 14042
2, 8031, Channel_aftertouch_c, 0, 52
2, 8032, Channel_aftertouch_c, 0, 51
2, 8032, Pitch_bend_c, 0, 13912
2, 8032, Channel_aftertouch_c, 0, 49
2, 8033, Channel_aftertouch_c, 0, 46
2, 8034, Pitch_bend_c, 0, 13652
2, 8034, Channel_aftertouch_c, 0, 45
2, 8034, Channel_aftertouch_c, 0, 42
2, 8035, Pitch_bend_c, 0, 13522
2, 8035, Channel_aftertouch_c, 0, 40
2, 8036, Channel_aftertouch_c, 0, 37
2, 8036, Pitch_bend_c, 0, 13262
2, 8037, Channel_aftertouch_c, 0, 34
2, 8037, Channel_aftertouch_c, 0, 30
2, 8038, Pitch_bend_c, 0, 13132
2, 8038, Channel_aftertouch_c, 0, 26
2, 8039, Channel_aftertouch_c, 0, 22
2, 8039, Pitch_bend_c, 0, 12872
2, 8039, Channel_aftertouch_c, 0, 18
2, 8040, Channel_aftertouch_c, 0, 14
2, 8040, Pitch_bend_c, 0, 12742
2, 8041, Channel_aftertouch_c, 0, 10
2, 8041, Channel_aftertouch_c, 0, 6
2, 8042, Pitch_bend_c, 0, 12482
2, 8042, Channel_aftertouch_c, 0, 2
2, 8043, Channel_aftertouch_c, 0, 0
2, 8043, Pitch_bend_c, 0, 12352
2, 8045, Pitch_bend_c, 0, 12092
2, 8046, Pitch_bend_c, 0, 11962
2, 8048, Pitch_bend_c, 0, 11702
2, 8049, Pitch_bend_c, 0, 11572
2, 8049, Pitch_bend_c, 0, 11442
2, 8051, Pitch_bend_c, 0, 11052
2, 8051, Pitch_bend_c, 0, 10922
2, 8052, Pitch_bend_c, 0, 10792
2, 8053, Pitch_bend_c, 0, 10662
2, 8053, Pitch_bend_c, 0, 10532
2, 8054, Pitch_bend_c, 0, 10402
2, 8055, Pitch_bend_c, 0, 10272
2, 8056, Pitch_bend_c, 0, 10012
2, 8057, Pitch_bend_c, 0, 9752
2, 8058, Pitch_bend_c, 0, 9492
2, 8058, Pitch_bend_c, 0, 9362
2, 8059, Pitch_bend_c, 0, 9232
2, 8060, Pitch_bend_c, 0, 8972
2, 8061, Pitch_bend_c, 0, 8712
2, 8061, Pitch_bend_c, 0, 8582
2, 8062, Pitch_bend_c, 0, 8322
2, 8063, Pitch_bend_c, 0, 8192
2, 8064, Note_on_c, 0, 29, 0
2, 8098, Note_on_c, 0, 33, 74
2, 8149, Note_on_c, 0, 33, 0
2, 8159, Note_on_c, 0, 38, 74
2, 8221, Note_on_c, 0, 53, 54
2, 8251, Note_on_c, 0, 52, 51
2, 8253, Note_on_c, 0, 53, 0
2, 8270, Channel_aftertouch_c, 0, 4
2, 8271, Channel_aftertouch_c, 0, 8
2, 8271, Channel_aftertouch_c, 0, 12
2, 8272, Channel_aftertouch_c, 0, 16
2, 8273, Channel_aftertouch_c, 0, 20
2, 8274, Channel_aftertouch_c, 0, 24
2, 8274, Channel_aftertouch_c, 0, 28
2, 8275, Channel_aftertouch_c, 0, 30
2, 8276, Channel_aftertouch_c, 0, 33
2, 8277, Channel_aftertouch_c, 0, 34
2, 8280, Channel_aftertouch_c, 0, 37
2, 8281, Channel_aftertouch_c, 0, 39
2, 8282, Channel_aftertouch_c, 0, 42
2, 8282, Channel_aftertouch_c, 0, 45
2, 8283, Channel_aftertouch_c, 0, 48
2, 8283, Note_on_c, 0, 53, 74
2, 8284, Note_on_c, 0, 52, 0
2, 8284, Channel_aftertouch_c, 0, 51
2, 8285, Channel_aftertouch_c, 0, 54
2, 8286, Channel_aftertouch_c, 0, 55
2, 8286, Channel_aftertouch_c, 0, 58
2, 8287, Channel_aftertouch_c, 0, 60
2, 8289, Channel_aftertouch_c, 0, 63
2, 8290, Channel_aftertouch_c, 0, 64
2, 8291, Channel_aftertouch_c, 0, 66
2, 8292, Channel_aftertouch_c, 0, 67
2, 8294, Channel_aftertouch_c, 0, 70
2, 8295, Channel_aftertouch_c, 0, 72
2, 8297, Channel_aftertouch_c, 0, 73
2, 8307, Channel_aftertouch_c, 0, 72
2, 8309, Channel_aftertouch_c, 0, 70
2, 8310, Channel_aftertouch_c, 0, 67
2, 8312, Channel_aftertouch_c, 0, 66
2, 8313, Channel_aftertouch_c, 0, 64
2, 8315, Channel_aftertouch_c, 0, 61
2, 8315, Channel_aftertouch_c, 0, 60
2, 8316, Channel_aftertouch_c, 0, 58
2, 8317, Channel_aftertouch_c, 0, 57
2, 8318, Channel_aftertouch_c, 0, 55
2, 8319, Channel_aftertouch_c, 0, 52
2, 8319, Channel_aftertouch_c, 0, 51
2, 8320, Channel_aftertouch_c, 0, 49
2, 8321, Channel_aftertouch_c, 0, 46
2, 8322, Channel_aftertouch_c, 0, 45
2, 8322, Channel_aftertouch_c, 0, 42
2, 8323, Channel_aftertouch_c, 0, 39
2, 8324, Channel_aftertouch_c, 0, 37
2, 8324, Channel_aftertouch_c, 0, 34
2, 8325, Channel_aftertouch_c, 0, 31
2, 8326, Channel_aftertouch_c, 0, 28
2, 8327, Channel_aftertouch_c, 0, 25
2, 8327, Channel_aftertouch_c, 0, 24
2, 8328, Channel_aftertouch_c, 0, 21
2, 8329, Channel_aftertouch_c, 0, 18
2, 8329, Channel_aftertouch_c, 0, 16
2, 8330, Channel_aftertouch_c, 0, 13
2, 8332, Channel_aftertouch_c, 0, 12
2, 8333, Channel_aftertouch_c, 0, 9
2, 8334, Channel_aftertouch_c, 0, 5
2, 8335, Channel_aftertouch_c, 0, 1
2, 8383, Note_on_c, 0, 53, 0
2, 8402, Note_on_c, 0, 53, 53
2, 8432, Note_on_c, 0, 52, 51
2, 8434, Note_on_c, 0, 53, 0
2, 8462, Note_on_c, 0, 52, 0
2, 8462, Note_on_c, 0, 53, 60
2, 8581, Note_on_c, 0, 33, 75
2, 8582, Note_on_c, 0, 38, 0
2, 8638, Note_on_c, 0, 33, 0
2, 8641, Note_on_c, 0, 38, 74
2, 8679, Note_on_c, 0, 53, 0
2, 8700, Note_on_c, 0, 53, 64
2, 8729, Note_on_c, 0, 53, 0
2, 8730, Note_on_c, 0, 52, 53
2, 8754, Note_on_c, 0, 52, 0
2, 8759, Note_on_c, 0, 53, 72
2, 8857, Note_on_c, 0, 53, 0
2, 8879, Note_on_c, 0, 53, 69
2, 8909, Note_on_c, 0, 52, 58
2, 8911, Note_on_c, 0, 53, 0
2, 8940, Note_on_c, 0, 52, 0
2, 8940, Note_on_c, 0, 53, 62
2, 9057, Note_on_c, 0, 38, 0
2, 9060, Note_on_c, 0, 33, 67
2, 9100, Note_on_c, 0, 53, 0
2, 9117, Note_on_c, 0, 33, 0
2, 9118, Note_on_c, 0, 38, 72
2, 9178, Note_on_c, 0, 53, 65
2, 9208, Note_on_c, 0, 52, 54
2, 9209, Note_on_c, 0, 53, 0
2, 9234, Note_on_c, 0, 52, 0
2, 9238, Note_on_c, 0, 53, 69
2, 9336, Note_on_c, 0, 53, 0
2, 9362, Note_on_c, 0, 53, 69
2, 9391, Note_on_c, 0, 52, 60
2, 9393, Note_on_c, 0, 53, 0
2, 9416, Note_on_c, 0, 52, 0
2, 9421, Note_on_c, 0, 53, 65
2, 9541, Note_on_c, 0, 38, 0
2, 9541, Note_on_c, 0, 33, 72
2, 9587, Note_on_c, 0, 53, 0
2, 9599, Note_on_c, 0, 38, 69
2, 9602, Note_on_c, 0, 33, 0
2, 9659, Note_on_c, 0, 53, 64
2, 9689, Note_on_c, 0, 52, 56
2, 9690, Note_on_c, 0, 53, 0
2, 9716, Note_on_c, 0, 52, 0
2, 9720, Note_on_c, 0, 53, 72
2, 9823, Note_on_c, 0, 53, 0
2, 9842, Note_on_c, 0, 53, 65
2, 9871, Note_on_c, 0, 52, 51
2, 9873, Note_on_c, 0, 53, 0
2, 9896, Note_on_c, 0, 52, 0
2, 9902, Note_on_c, 0, 53, 59
2, 10017, Note_on_c, 0, 53, 0
2, 10021, Note_on_c, 0, 33, 69
2, 10024, Note_on_c, 0, 38, 0
2, 10077, Note_on_c, 0, 33, 0
2, 10081, Note_on_c, 0, 38, 67
2, 10140, Note_on_c, 0, 53, 58
2, 10169, Note_on_c, 0, 52, 54
2, 10170, Note_on_c, 0, 53, 0
2, 10193, Note_on_c, 0, 52, 0
2, 10201, Note_on_c, 0, 53, 69
2, 10297, Note_on_c, 0, 53, 0
2, 10321, Note_on_c, 0, 53, 59
2, 10350, Note_on_c, 0, 53, 0
2, 10351, Note_on_c, 0, 52, 58
2, 10374, Note_on_c, 0, 52, 0
2, 10381, Note_on_c, 0, 53, 74
2, 10495, Note_on_c, 0, 38, 0
2, 10499, Note_on_c, 0, 33, 63
2, 10515, Note_on_c, 0, 53, 0
2, 10558, Note_on_c, 0, 33, 0
2, 10559, Note_on_c, 0, 38, 67
2, 10619, Note_on_c, 0, 53, 53
2, 10648, Note_on_c, 0, 52, 59
2, 10653, Note_on_c, 0, 53, 0
2, 10669, Note_on_c, 0, 52, 0
2, 10679, Note_on_c, 0, 53, 75
2, 10784, Note_on_c, 0, 38, 0
2, 10800, Note_on_c, 0, 36, 84
2, 10801, Channel_aftertouch_c, 0, 1
2, 10801, Note_on_c, 0, 38, 75
2, 10802, Channel_aftertouch_c, 0, 0
2, 10803, Channel_aftertouch_c, 0, 4
2, 10804, Channel_aftertouch_c, 0, 8
2, 10805, Note_on_c, 0, 53, 0
2, 10805, Channel_aftertouch_c, 0, 12
2, 10806, Channel_aftertouch_c, 0, 16
2, 10806, Channel_aftertouch_c, 0, 20
2, 10807, Channel_aftertouch_c, 0, 24
2, 10808, Channel_aftertouch_c, 0, 28
2, 10808, Channel_aftertouch_c, 0, 32
2, 10809, Channel_aftertouch_c, 0, 36
2, 10810, Channel_aftertouch_c, 0, 40
2, 10811, Channel_aftertouch_c, 0, 44
2, 10811, Channel_aftertouch_c, 0, 48
2, 10812, Channel_aftertouch_c, 0, 51
2, 10813, Channel_aftertouch_c, 0, 47
2, 10813, Channel_aftertouch_c, 0, 43
2, 10814, Channel_aftertouch_c, 0, 39
2, 10815, Channel_aftertouch_c, 0, 35
2, 10816, Channel_aftertouch_c, 0, 31
2, 10816, Channel_aftertouch_c, 0, 27
2, 10817, Channel_aftertouch_c, 0, 23
2, 10818, Channel_aftertouch_c, 0, 19
2, 10818, Channel_aftertouch_c, 0, 15
2, 10819, Note_on_c, 0, 38, 0
2, 10820, Channel_aftertouch_c, 0, 11
2, 10820, Channel_aftertouch_c, 0, 7
2, 10821, Channel_aftertouch_c, 0, 3
2, 10822, Channel_aftertouch_c, 0, 0
2, 11041, Note_on_c, 0, 26, 79
2, 11045, Note_on_c, 0, 36, 0
2, 11118, Note_on_c, 0, 26, 0
2, 11132, Note_on_c, 0, 26, 75
2, 11161, Note_on_c, 0, 29, 100
2, 11162, Note_on_c, 0, 26, 0
2, 11221, Note_on_c, 0, 29, 0
2, 11221, Note_on_c, 0, 31, 114
2, 11446, Pitch_bend_c, 0, 7936
2, 11446, Pitch_bend_c, 0, 7808
2, 11447, Pitch_bend_c, 0, 7680
2, 11448, Pitch_bend_c, 0, 7424
2, 11449, Pitch_bend_c, 0, 7296
2, 11450, Pitch_bend_c, 0, 7168
2, 11451, Pitch_bend_c, 0, 7040
2, 11451, Pitch_bend_c, 0, 6912
2, 11452, Pitch_bend_c, 0, 6784
2, 11453, Pitch_bend_c, 0, 6528
2, 11453, Pitch_bend_c, 0, 6272
2, 11454, Pitch_bend_c, 0, 6144
2, 11455, Pitch_bend_c, 0, 5888
2, 11456, Pitch_bend_c, 0, 5632
2, 11456, Pitch_bend_c, 0, 5376
2, 11457, Pitch_bend_c, 0, 4992
2, 11458, Pitch_bend_c, 0, 4736
2, 11458, Pitch_bend_c, 0, 4480
2, 11459, Pitch_bend_c, 0, 4224
2, 11460, Pitch_bend_c, 0, 3968
2, 11461, Pitch_bend_c, 0, 3712
2, 11461, Pitch_bend_c, 0, 3456
2, 11462, Pitch_bend_c, 0, 3200
2, 11463, Pitch_bend_c, 0, 2944
2, 11463, Pitch_bend_c, 0, 2688
2, 11464, Pitch_bend_c, 0, 2432
2, 11465, Pitch_bend_c, 0, 2176
2, 11465, Pitch_bend_c, 0, 1920
2, 11467, Pitch_bend_c, 0, 1536
2, 11467, Pitch_bend_c, 0, 1280
2, 11468, Pitch_bend_c, 0, 1024
2, 11469, Pitch_bend_c, 0, 640
2, 11469, Pitch_bend_c, 0, 384
2, 11470, Pitch_bend_c, 0, 0
2, 11471, Note_on_c, 0, 31, 0
2, 11481, Pitch_bend_c, 0, 256
2, 11482, Pitch_bend_c, 0, 768
2, 11483, Pitch_bend_c, 0, 1152
2, 11484, Pitch_bend_c, 0, 1792
2, 11485, Pitch_bend_c, 0, 2304
2, 11485, Pitch_bend_c, 0, 2816
2, 11486, Pitch_bend_c, 0, 3584
2, 11487, Pitch_bend_c, 0, 4096
2, 11488, Pitch_bend_c, 0, 4736
2, 11488, Pitch_bend_c, 0, 5376
2, 11489, Pitch_bend_c, 0, 6016
2, 11490, Pitch_bend_c, 0, 6528
2, 11490, Pitch_bend_c, 0, 7040
2, 11491, Pitch_bend_c, 0, 7680
2, 11492, Pitch_bend_c, 0, 8192
2, 11517, Note_on_c, 0, 26, 100
2, 11588, Note_on_c, 0, 26, 0
2, 11611, Note_on_c, 0, 26, 65
2, 11632, Note_on_c, 0, 26, 0
2, 11639, Note_on_c, 0, 29, 79
2, 11683, Note_on_c, 0, 29, 0
2, 11699, Note_on_c, 0, 31, 114
2, 11781, Pitch_bend_c, 0, 8452
2, 11782, Pitch_bend_c, 0, 9102
2, 11783, Pitch_bend_c, 0, 9492
2, 11784, Pitch_bend_c, 0, 10142
2, 11784, Pitch_bend_c, 0, 10662
2, 11785, Pitch_bend_c, 0, 11442
2, 11786, Pitch_bend_c, 0, 11962
2, 11786, Pitch_bend_c, 0, 12612
2, 11787, Pitch_bend_c, 0, 13262
2, 11788, Pitch_bend_c, 0, 13782
2, 11788, Pitch_bend_c, 0, 14432
2, 11789, Pitch_bend_c, 0, 14952
2, 11790, Pitch_bend_c, 0, 15602
2, 11791, Pitch_bend_c, 0, 16122
2, 11792, Pitch_bend_c, 0, 16382
2, 11805, Pitch_bend_c, 0, 16122
2, 11806, Pitch_bend_c, 0, 15602
2, 11807, Pitch_bend_c, 0, 15082
2, 11808, Pitch_bend_c, 0, 14562
2, 11809, Pitch_bend_c, 0, 14042
2, 11809, Pitch_bend_c, 0, 13522
2, 11810, Pitch_bend_c, 0, 12872
2, 11811, Pitch_bend_c, 0, 12352
2, 11811, Pitch_bend_c, 0, 11702
2, 11812, Pitch_bend_c, 0, 11052
2, 11813, Pitch_bend_c, 0, 10402
2, 11814, Pitch_bend_c, 0, 9882
2, 11814, Pitch_bend_c, 0, 9362
2, 11815, Pitch_bend_c, 0, 8712
2, 11816, Pitch_bend_c, 0, 8192
2, 11923, Note_on_c, 0, 31, 0
2, 11939, Note_on_c, 0, 31, 94
2, 11999, Note_on_c, 0, 31, 0
2, 12002, Note_on_c, 0, 26, 100
2, 12007, Channel_aftertouch_c, 0, 4
2, 12008, Channel_aftertouch_c, 0, 0
2, 12012, Channel_aftertouch_c, 0, 1
2, 12012, Channel_aftertouch_c, 0, 3
2, 12013, Channel_aftertouch_c, 0, 6
2, 12014, Channel_aftertouch_c, 0, 3
2, 12014, Channel_aftertouch_c, 0, 0
2, 12060, Note_on_c, 0, 26, 0
2, 12091, Note_on_c, 0, 26, 84
2, 12113, Note_on_c, 0, 26, 0
2, 12120, Note_on_c, 0, 29, 87
2, 12164, Note_on_c, 0, 29, 0
2, 12179, Note_on_c, 0, 31, 114
2, 12301, Pitch_bend_c, 0, 7680
2, 12302, Pitch_bend_c, 0, 7168
2, 12303, Pitch_bend_c, 0, 6656
2, 12304, Pitch_bend_c, 0, 6272
2, 12304, Pitch_bend_c, 0, 5632
2, 12305, Pitch_bend_c, 0, 4992
2, 12306, Pitch_bend_c, 0, 4480
2, 12306, Pitch_bend_c, 0, 4096
2, 12307, Pitch_bend_c, 0, 3712
2, 12308, Pitch_bend_c, 0, 3328
2, 12308, Pitch_bend_c, 0, 2944
2, 12309, Pitch_bend_c, 0, 2688
2, 12310, Pitch_bend_c, 0, 2432
2, 12310, Pitch_bend_c, 0, 2176
2, 12311, Pitch_bend_c, 0, 1920
2, 12312, Pitch_bend_c, 0, 1664
2, 12313, Pitch_bend_c, 0, 1408
2, 12313, Pitch_bend_c, 0, 1280
2, 12315, Pitch_bend_c, 0, 1152
2, 12321, Pitch_bend_c, 0, 1280
2, 12322, Pitch_bend_c, 0, 1536
2, 12323, Pitch_bend_c, 0, 1664
2, 12324, Pitch_bend_c, 0, 1920
2, 12324, Pitch_bend_c, 0, 2048
2, 12325, Pitch_bend_c, 0, 2176
2, 12326, Pitch_bend_c, 0, 2432
2, 12326, Pitch_bend_c, 0, 2688
2, 12327, Pitch_bend_c, 0, 2944
2, 12328, Pitch_bend_c, 0, 3200
2, 12329, Pitch_bend_c, 0, 3456
2, 12329, Pitch_bend_c, 0, 3712
2, 12330, Pitch_bend_c, 0, 3968
2, 12330, Pitch_bend_c, 0, 4096
2, 12331, Pitch_bend_c, 0, 4352
2, 12332, Pitch_bend_c, 0, 4608
2, 12333, Pitch_bend_c, 0, 4736
2, 12334, Pitch_bend_c, 0, 4992
2, 12334, Pitch_bend_c, 0, 5120
2, 12335, Pitch_bend_c, 0, 5376
2, 12336, Pitch_bend_c, 0, 5504
2, 12337, Pitch_bend_c, 0, 5632
2, 12337, Pitch_bend_c, 0, 5888
2, 12339, Pitch_bend_c, 0, 6016
2, 12339, Pitch_bend_c, 0, 6144
2, 12341, Pitch_bend_c, 0, 6272
2, 12343, Pitch_bend_c, 0, 6528
2, 12345, Pitch_bend_c, 0, 6656
2, 12346, Pitch_bend_c, 0, 6784
2, 12349, Pitch_bend_c, 0, 6912
2, 12352, Pitch_bend_c, 0, 7168
2, 12356, Pitch_bend_c, 0, 7296
2, 12358, Pitch_bend_c, 0, 7424
2, 12360, Pitch_bend_c, 0, 7552
2, 12362, Pitch_bend_c, 0, 7680
2, 12364, Pitch_bend_c, 0, 7808
2, 12365, Pitch_bend_c, 0, 8064
2, 12366, Pitch_bend_c, 0, 8192
2, 12403, Note_on_c, 0, 31, 0
2, 12418, Note_on_c, 0, 31, 75
2, 12422, Channel_aftertouch_c, 0, 3
2, 12422, Channel_aftertouch_c, 0, 6
2, 12423, Channel_aftertouch_c, 0, 9
2, 12424, Channel_aftertouch_c, 0, 12
2, 12426, Channel_aftertouch_c, 0, 8
2, 12427, Channel_aftertouch_c, 0, 4
2, 12428, Channel_aftertouch_c, 0, 0
2, 12479, Note_on_c, 0, 26, 79
2, 12481, Note_on_c, 0, 31, 0
2, 12550, Note_on_c, 0, 26, 0
2, 12569, Note_on_c, 0, 26, 79
2, 12598, Note_on_c, 0, 29, 87
2, 12600, Note_on_c, 0, 26, 0
2, 12646, Note_on_c, 0, 29, 0
2, 12659, Note_on_c, 0, 31, 121
2, 12660, Channel_aftertouch_c, 0, 1
2, 12661, Channel_aftertouch_c, 0, 0
2, 12845, Note_on_c, 0, 31, 0
2, 12869, Note_on_c, 0, 31, 84
2, 12893, Note_on_c, 0, 31, 0
2, 12899, Note_on_c, 0, 33, 87
2, 12899, Channel_aftertouch_c, 0, 4
2, 12900, Channel_aftertouch_c, 0, 0
2, 12959, Note_on_c, 0, 33, 0
2, 12962, Note_on_c, 0, 38, 60
2, 13023, Note_on_c, 0, 53, 52
2, 13052, Note_on_c, 0, 52, 53
2, 13054, Note_on_c, 0, 53, 0
2, 13082, Note_on_c, 0, 52, 0
2, 13083, Note_on_c, 0, 53, 58
2, 13162, Note_on_c, 0, 53, 0
2, 13199, Note_on_c, 0, 53, 50
2, 13229, Note_on_c, 0, 52, 50
2, 13234, Note_on_c, 0, 53, 0
2, 13259, Note_on_c, 0, 52, 0
2, 13260, Note_on_c, 0, 53, 59
2, 13370, Note_on_c, 0, 53, 0
2, 13372, Note_on_c, 0, 38, 0
2, 13379, Note_on_c, 0, 33, 67
2, 13439, Note_on_c, 0, 38, 74
2, 13443, Note_on_c, 0, 33, 0
2, 13501, Note_on_c, 0, 53, 56
2, 13531, Note_on_c, 0, 52, 54
2, 13537, Note_on_c, 0, 53, 0
2, 13556, Note_on_c, 0, 52, 0
2, 13562, Note_on_c, 0, 53, 60
2, 13660, Note_on_c, 0, 53, 0
2, 13682, Note_on_c, 0, 53, 53
2, 13711, Note_on_c, 0, 52, 53
2, 13713, Note_on_c, 0, 53, 0
2, 13733, Note_on_c, 0, 52, 0
2, 13740, Note_on_c, 0, 53, 49
2, 13796, Channel_aftertouch_c, 0, 1
2, 13797, Channel_aftertouch_c, 0, 4
2, 13797, Channel_aftertouch_c, 0, 7
2, 13798, Channel_aftertouch_c, 0, 11
2, 13799, Channel_aftertouch_c, 0, 15
2, 13800, Channel_aftertouch_c, 0, 18
2, 13801, Channel_aftertouch_c, 0, 21
2, 13801, Channel_aftertouch_c, 0, 24
2, 13802, Channel_aftertouch_c, 0, 27
2, 13802, Channel_aftertouch_c, 0, 30
2, 13804, Channel_aftertouch_c, 0, 31
2, 13804, Channel_aftertouch_c, 0, 34
2, 13805, Channel_aftertouch_c, 0, 36
2, 13806, Channel_aftertouch_c, 0, 37
2, 13806, Channel_aftertouch_c, 0, 39
2, 13808, Channel_aftertouch_c, 0, 42
2, 13810, Channel_aftertouch_c, 0, 43
2, 13811, Channel_aftertouch_c, 0, 46
2, 13813, Channel_aftertouch_c, 0, 48
2, 13814, Channel_aftertouch_c, 0, 49
2, 13815, Channel_aftertouch_c, 0, 51
2, 13817, Channel_aftertouch_c, 0, 52
2, 13818, Channel_aftertouch_c, 0, 54
2, 13820, Channel_aftertouch_c, 0, 52
2, 13821, Channel_aftertouch_c, 0, 51
2, 13822, Channel_aftertouch_c, 0, 48
2, 13823, Channel_aftertouch_c, 0, 45
2, 13823, Channel_aftertouch_c, 0, 42
2, 13824, Channel_aftertouch_c, 0, 39
2, 13825, Channel_aftertouch_c, 0, 35
2, 13825, Channel_aftertouch_c, 0, 31
2, 13826, Channel_aftertouch_c, 0, 27
2, 13827, Channel_aftertouch_c, 0, 23
2, 13828, Channel_aftertouch_c, 0, 19
2, 13829, Channel_aftertouch_c, 0, 15
2, 13829, Channel_aftertouch_c, 0, 11
2, 13830, Channel_aftertouch_c, 0, 7
2, 13831, Channel_aftertouch_c, 0, 3
2, 13832, Channel_aftertouch_c, 0, 0
2, 13851, Note_on_c, 0, 53, 0
2, 13861, Note_on_c, 0, 38, 0
2, 13862, Note_on_c, 0, 33, 69
2, 13919, Note_on_c, 0, 38, 75
2, 13920, Note_on_c, 0, 33, 0
2, 13927, Channel_aftertouch_c, 0, 4
2, 13929, Channel_aftertouch_c, 0, 1
2, 13930, Channel_aftertouch_c, 0, 0
2, 13979, Note_on_c, 0, 53, 65
2, 14005, Note_on_c, 0, 53, 0
2, 14009, Note_on_c, 0, 52, 58
2, 14031, Note_on_c, 0, 52, 0
2, 14040, Note_on_c, 0, 53, 69
2, 14134, Note_on_c, 0, 53, 0
2, 14161, Note_on_c, 0, 53, 58
2, 14191, Note_on_c, 0, 53, 0
2, 14191, Note_on_c, 0, 52, 34
2, 14218, Note_on_c, 0, 52, 0
2, 14220, Note_on_c, 0, 53, 50
2, 14291, Channel_aftertouch_c, 0, 3
2, 14291, Channel_aftertouch_c, 0, 4
2, 14292, Channel_aftertouch_c, 0, 6
2, 14293, Channel_aftertouch_c, 0, 9
2, 14293, Channel_aftertouch_c, 0, 12
2, 14294, Channel_aftertouch_c, 0, 15
2, 14295, Channel_aftertouch_c, 0, 16
2, 14296, Channel_aftertouch_c, 0, 19
2, 14296, Channel_aftertouch_c, 0, 22
2, 14297, Channel_aftertouch_c, 0, 24
2, 14298, Channel_aftertouch_c, 0, 27
2, 14299, Channel_aftertouch_c, 0, 28
2, 14300, Channel_aftertouch_c, 0, 31
2, 14301, Channel_aftertouch_c, 0, 33
2, 14302, Channel_aftertouch_c, 0, 34
2, 14304, Channel_aftertouch_c, 0, 37
2, 14305, Channel_aftertouch_c, 0, 39
2, 14309, Channel_aftertouch_c, 0, 37
2, 14310, Channel_aftertouch_c, 0, 34
2, 14311, Channel_aftertouch_c, 0, 33
2, 14312, Channel_aftertouch_c, 0, 30
2, 14312, Channel_aftertouch_c, 0, 27
2, 14313, Channel_aftertouch_c, 0, 23
2, 14314, Channel_aftertouch_c, 0, 19
2, 14315, Channel_aftertouch_c, 0, 15
2, 14315, Channel_aftertouch_c, 0, 11
2, 14316, Channel_aftertouch_c, 0, 7
2, 14316, Channel_aftertouch_c, 0, 3
2, 14318, Channel_aftertouch_c, 0, 0
2, 14333, Note_on_c, 0, 53, 0
2, 14341, Note_on_c, 0, 38, 0
2, 14342, Note_on_c, 0, 33, 72
2, 14399, Note_on_c, 0, 33, 0
2, 14401, Note_on_c, 0, 38, 75
2, 14406, Channel_aftertouch_c, 0, 3
2, 14407, Channel_aftertouch_c, 0, 7
2, 14408, Channel_aftertouch_c, 0, 11
2, 14408, Channel_aftertouch_c, 0, 15
2, 14409, Channel_aftertouch_c, 0, 19
2, 14410, Channel_aftertouch_c, 0, 23
2, 14411, Channel_aftertouch_c, 0, 27
2, 14411, Channel_aftertouch_c, 0, 24
2, 14412, Channel_aftertouch_c, 0, 20
2, 14413, Channel_aftertouch_c, 0, 16
2, 14413, Channel_aftertouch_c, 0, 12
2, 14414, Channel_aftertouch_c, 0, 8
2, 14415, Channel_aftertouch_c, 0, 4
2, 14415, Channel_aftertouch_c, 0, 0
2, 14458, Note_on_c, 0, 53, 47
2, 14489, Note_on_c, 0, 52, 48
2, 14490, Note_on_c, 0, 53, 0
2, 14520, Note_on_c, 0, 53, 58
2, 14524, Note_on_c, 0, 52, 0
2, 14618, Note_on_c, 0, 53, 0
2, 14642, Note_on_c, 0, 53, 46
2, 14672, Note_on_c, 0, 53, 0
2, 14672, Note_on_c, 0, 52, 38
2, 14695, Note_on_c, 0, 52, 0
2, 14700, Note_on_c, 0, 53, 46
2, 14805, Note_on_c, 0, 53, 0
2, 14814, Note_on_c, 0, 38, 0
2, 14818, Note_on_c, 0, 33, 64
2, 14879, Note_on_c, 0, 38, 74
2, 14885, Note_on_c, 0, 33, 0
2, 14940, Note_on_c, 0, 53, 49
2, 14967, Note_on_c, 0, 53, 0
2, 14969, Note_on_c, 0, 52, 45
2, 14999, Note_on_c, 0, 52, 0
2, 14999, Note_on_c, 0, 53, 59
2, 15093, Note_on_c, 0, 53, 0
2, 15119, Note_on_c, 0, 53, 50
2, 15149, Note_on_c, 0, 52, 49
2, 15151, Note_on_c, 0, 53, 0
2, 15171, Note_on_c, 0, 52, 0
2, 15179, Note_on_c, 0, 53, 60
2, 15289, Note_on_c, 0, 53, 0
2, 15299, Note_on_c, 0, 33, 72
2, 15300, Note_on_c, 0, 38, 0
2, 15357, Note_on_c, 0, 33, 0
2, 15359, Note_on_c, 0, 38, 63
2, 15418, Note_on_c, 0, 53, 45
2, 15448, Note_on_c, 0, 53, 0
2, 15448, Note_on_c, 0, 52, 46
2, 15470, Note_on_c, 0, 52, 0
2, 15478, Note_on_c, 0, 53, 60
2, 15580, Note_on_c, 0, 53, 0
2, 15602, Note_on_c, 0, 53, 50
2, 15628, Note_on_c, 0, 53, 0
2, 15632, Note_on_c, 0, 52, 45
2, 15653, Note_on_c, 0, 52, 0
2, 15661, Note_on_c, 0, 53, 63
2, 15698, Channel_aftertouch_c, 0, 1
2, 15699, Channel_aftertouch_c, 0, 4
2, 15700, Channel_aftertouch_c, 0, 7
2, 15700, Channel_aftertouch_c, 0, 9
2, 15701, Channel_aftertouch_c, 0, 12
2, 15702, Channel_aftertouch_c, 0, 13
2, 15702, Channel_aftertouch_c, 0, 15
2, 15703, Channel_aftertouch_c, 0, 18
2, 15705, Channel_aftertouch_c, 0, 21
2, 15705, Channel_aftertouch_c, 0, 22
2, 15707, Channel_aftertouch_c, 0, 24
2, 15710, Channel_aftertouch_c, 0, 25
2, 15716, Channel_aftertouch_c, 0, 24
2, 15717, Channel_aftertouch_c, 0, 22
2, 15718, Channel_aftertouch_c, 0, 21
2, 15719, Channel_aftertouch_c, 0, 18
2, 15719, Channel_aftertouch_c, 0, 15
2, 15720, Channel_aftertouch_c, 0, 11
2, 15721, Channel_aftertouch_c, 0, 7
2, 15722, Channel_aftertouch_c, 0, 3
2, 15722, Channel_aftertouch_c, 0, 0
2, 15764, Note_on_c, 0, 53, 0
2, 15780, Note_on_c, 0, 38, 0
2, 15781, Note_on_c, 0, 33, 69
2, 15841, Note_on_c, 0, 38, 75
2, 15844, Note_on_c, 0, 33, 0
2, 15903, Note_on_c, 0, 53, 51
2, 15928, Note_on_c, 0, 53, 0
2, 15932, Note_on_c, 0, 52, 42
2, 15954, Note_on_c, 0, 52, 0
2, 15961, Note_on_c, 0, 53, 58
2, 16056, Note_on_c, 0, 53, 0
2, 16082, Note_on_c, 0, 53, 52
2, 16111, Note_on_c, 0, 53, 0
2, 16112, Note_on_c, 0, 52, 51
2, 16135, Note_on_c, 0, 52, 0
2, 16142, Note_on_c, 0, 55, 69
2, 16157, Channel_aftertouch_c, 0, 3
2, 16157, Channel_aftertouch_c, 0, 7
2, 16158, Channel_aftertouch_c, 0, 11
2, 16159, Channel_aftertouch_c, 0, 15
2, 16159, Channel_aftertouch_c, 0, 19
2, 16160, Channel_aftertouch_c, 0, 23
2, 16161, Channel_aftertouch_c, 0, 27
2, 16162, Channel_aftertouch_c, 0, 31
2, 16162, Channel_aftertouch_c, 0, 35
2, 16163, Channel_aftertouch_c, 0, 39
2, 16164, Channel_aftertouch_c, 0, 43
2, 16165, Channel_aftertouch_c, 0, 47
2, 16165, Channel_aftertouch_c, 0, 51
2, 16166, Channel_aftertouch_c, 0, 55
2, 16167, Channel_aftertouch_c, 0, 59
2, 16168, Channel_aftertouch_c, 0, 63
2, 16168, Channel_aftertouch_c, 0, 67
2, 16169, Channel_aftertouch_c, 0, 70
2, 16170, Channel_aftertouch_c, 0, 73
2, 16170, Channel_aftertouch_c, 0, 75
2, 16171, Channel_aftertouch_c, 0, 78
2, 16172, Channel_aftertouch_c, 0, 79
2, 16173, Channel_aftertouch_c, 0, 82
2, 16174, Channel_aftertouch_c, 0, 84
2, 16174, Channel_aftertouch_c, 0, 85
2, 16175, Channel_aftertouch_c, 0, 87
2, 16177, Channel_aftertouch_c, 0, 90
2, 16178, Channel_aftertouch_c, 0, 93
2, 16179, Channel_aftertouch_c, 0, 94
2, 16182, Channel_aftertouch_c, 0, 96
2, 16184, Channel_aftertouch_c, 0, 97
2, 16187, Channel_aftertouch_c, 0, 99
2, 16192, Channel_aftertouch_c, 0, 100
2, 16197, Channel_aftertouch_c, 0, 102
2, 16211, Channel_aftertouch_c, 0, 100
2, 16212, Channel_aftertouch_c, 0, 99
2, 16214, Channel_aftertouch_c, 0, 96
2, 16215, Channel_aftertouch_c, 0, 94
2, 16216, Channel_aftertouch_c, 0, 91
2, 16217, Channel_aftertouch_c, 0, 90
2, 16217, Channel_aftertouch_c, 0, 88
2, 16218, Channel_aftertouch_c, 0, 87
2, 16219, Channel_aftertouch_c, 0, 84
2, 16219, Channel_aftertouch_c, 0, 82
2, 16220, Channel_aftertouch_c, 0, 81
2, 16221, Channel_aftertouch_c, 0, 78
2, 16222, Channel_aftertouch_c, 0, 76
2, 16222, Channel_aftertouch_c, 0, 75
2, 16223, Channel_aftertouch_c, 0, 72
2, 16224, Channel_aftertouch_c, 0, 69
2, 16225, Channel_aftertouch_c, 0, 65
2, 16226, Channel_aftertouch_c, 0, 61
2, 16226, Channel_aftertouch_c, 0, 57
2, 16227, Channel_aftertouch_c, 0, 53
2, 16228, Channel_aftertouch_c, 0, 49
2, 16229, Channel_aftertouch_c, 0, 45
2, 16229, Channel_aftertouch_c, 0, 41
2, 16230, Channel_aftertouch_c, 0, 37
2, 16231, Channel_aftertouch_c, 0, 33
2, 16231, Channel_aftertouch_c, 0, 29
2, 16232, Channel_aftertouch_c, 0, 25
2, 16233, Channel_aftertouch_c, 0, 21
2, 16234, Channel_aftertouch_c, 0, 17
2, 16234, Channel_aftertouch_c, 0, 13
2, 16235, Channel_aftertouch_c, 0, 9
2, 16236, Channel_aftertouch_c, 0, 5
2, 16236, Channel_aftertouch_c, 0, 1
2, 16237, Channel_aftertouch_c, 0, 0
2, 16251, Note_on_c, 0, 55, 0
2, 16254, Note_on_c, 0, 38, 0
2, 16259, Note_on_c, 0, 33, 62
2, 16319, Note_on_c, 0, 38, 74
2, 16320, Note_on_c, 0, 33, 0
2, 16380, Note_on_c, 0, 53, 53
2, 16405, Note_on_c, 0, 53, 0
2, 16409, Note_on_c, 0, 52, 44
2, 16429, Note_on_c, 0, 52, 0
2, 16438, Note_on_c, 0, 53, 61
2, 16540, Note_on_c, 0, 53, 0
2, 16561, Note_on_c, 0, 53, 55
2, 16591, Note_on_c, 0, 52, 67
2, 16592, Note_on_c, 0, 53, 0
2, 16612, Note_on_c, 0, 52, 0
2, 16615, Note_on_c, 0, 38, 0
2, 16619, Note_on_c, 0, 33, 63
2, 16628, Channel_aftertouch_c, 0, 3
2, 16629, Channel_aftertouch_c, 0, 4
2, 16629, Channel_aftertouch_c, 0, 6
2, 16630, Channel_aftertouch_c, 0, 9
2, 16631, Channel_aftertouch_c, 0, 10
2, 16633, Channel_aftertouch_c, 0, 6
2, 16634, Channel_aftertouch_c, 0, 2
2, 16635, Channel_aftertouch_c, 0, 0
2, 16668, Note_on_c, 0, 33, 0
2, 16679, Note_on_c, 0, 31, 63
2, 16734, Note_on_c, 0, 31, 0
2, 16739, Note_on_c, 0, 33, 84
2, 16742, Channel_aftertouch_c, 0, 1
2, 16742, Channel_aftertouch_c, 0, 5
2, 16743, Channel_aftertouch_c, 0, 9
2, 16744, Channel_aftertouch_c, 0, 13
2, 16744, Channel_aftertouch_c, 0, 17
2, 16745, Channel_aftertouch_c, 0, 21
2, 16746, Channel_aftertouch_c, 0, 24
2, 16749, Channel_aftertouch_c, 0, 21
2, 16751, Channel_aftertouch_c, 0, 18
2, 16751, Channel_aftertouch_c, 0, 14
2, 16752, Channel_aftertouch_c, 0, 10
2, 16753, Channel_aftertouch_c, 0, 6
2, 16753, Channel_aftertouch_c, 0, 2
2, 16754, Channel_aftertouch_c, 0, 0
2, 16758, Channel_aftertouch_c, 0, 1
2, 16760, Channel_aftertouch_c, 0, 0
2, 16801, Note_on_c, 0, 38, 69
2, 16802, Note_on_c, 0, 36, 61
2, 16804, Note_on_c, 0, 33, 0
2, 16806, Note_on_c, 0, 36, 0
2, 16860, Note_on_c, 0, 53, 49
2, 16889, Note_on_c, 0, 52, 53
2, 16891, Note_on_c, 0, 53, 0
2, 16913, Note_on_c, 0, 52, 0
2, 16920, Note_on_c, 0, 53, 67
2, 17020, Note_on_c, 0, 53, 0
2, 17043, Note_on_c, 0, 53, 58
2, 17071, Note_on_c, 0, 53, 0
2, 17072, Note_on_c, 0, 52, 51
2, 17096, Note_on_c, 0, 52, 0
2, 17102, Note_on_c, 0, 53, 63
2, 17208, Note_on_c, 0, 53, 0
2, 17216, Note_on_c, 0, 38, 0
2, 17221, Note_on_c, 0, 33, 65
2, 17280, Note_on_c, 0, 33, 0
2, 17280, Note_on_c, 0, 38, 69
2, 17341, Note_on_c, 0, 53, 47
2, 17371, Note_on_c, 0, 53, 0
2, 17371, Note_on_c, 0, 52, 45
2, 17391, Note_on_c, 0, 52, 0
2, 17401, Note_on_c, 0, 53, 69
2, 17496, Note_on_c, 0, 53, 0
2, 17522, Note_on_c, 0, 53, 54
2, 17549, Note_on_c, 0, 53, 0
2, 17551, Note_on_c, 0, 52, 50
2, 17573, Note_on_c, 0, 52, 0
2, 17582, Note_on_c, 0, 53, 62
2, 17693, Note_on_c, 0, 53, 0
2, 17698, Note_on_c, 0, 38, 0
2, 17701, Note_on_c, 0, 33, 65
2, 17761, Note_on_c, 0, 38, 67
2, 17763, Note_on_c, 0, 33, 0
2, 17767, Channel_aftertouch_c, 0, 3
2, 17768, Channel_aftertouch_c, 0, 6
2, 17770, Channel_aftertouch_c, 0, 2
2, 17771, Channel_aftertouch_c, 0, 0
2, 17822, Note_on_c, 0, 53, 52
2, 17846, Note_on_c, 0, 53, 0
2, 17849, Note_on_c, 0, 52, 44
2, 17870, Note_on_c, 0, 52, 0
2, 17879, Note_on_c, 0, 53, 69
2, 17977, Note_on_c, 0, 53, 0
2, 18001, Note_on_c, 0, 53, 54
2, 18027, Note_on_c, 0, 53, 0
2, 18031, Note_on_c, 0, 52, 46
2, 18053, Note_on_c, 0, 52, 0
2, 18061, Note_on_c, 0, 53, 55
2, 18156, Note_on_c, 0, 53, 0
2, 18174, Note_on_c, 0, 38, 0
2, 18179, Note_on_c, 0, 33, 60
2, 18237, Note_on_c, 0, 33, 0
2, 18239, Note_on_c, 0, 38, 72
2, 18244, Channel_aftertouch_c, 0, 3
2, 18245, Channel_aftertouch_c, 0, 7
2, 18245, Channel_aftertouch_c, 0, 11
2, 18246, Channel_aftertouch_c, 0, 15
2, 18247, Channel_aftertouch_c, 0, 19
2, 18248, Channel_aftertouch_c, 0, 18
2, 18248, Channel_aftertouch_c, 0, 14
2, 18249, Channel_aftertouch_c, 0, 10
2, 18250, Channel_aftertouch_c, 0, 6
2, 18251, Channel_aftertouch_c, 0, 2
2, 18251, Channel_aftertouch_c, 0, 1
2, 18302, Note_on_c, 0, 53, 47
2, 18328, Note_on_c, 0, 52, 51
2, 18329, Note_on_c, 0, 53, 0
2, 18348, Note_on_c, 0, 52, 0
2, 18360, Note_on_c, 0, 53, 67
2, 18434, Note_on_c, 0, 38, 0
2, 18449, Note_on_c, 0, 53, 0
2, 18453, Note_on_c, 0, 38, 60
2, 18453, Note_on_c, 0, 36, 59
2, 18459, Channel_aftertouch_c, 0, 4
2, 18460, Channel_aftertouch_c, 0, 0
2, 18461, Channel_aftertouch_c, 0, 4
2, 18462, Channel_aftertouch_c, 0, 8
2, 18463, Channel_aftertouch_c, 0, 7
2, 18465, Channel_aftertouch_c, 0, 10
2, 18465, Channel_aftertouch_c, 0, 14
2, 18466, Channel_aftertouch_c, 0, 15
2, 18467, Channel_aftertouch_c, 0, 11
2, 18468, Channel_aftertouch_c, 0, 7
2, 18469, Channel_aftertouch_c, 0, 3
2, 18470, Channel_aftertouch_c, 0, 0
2, 18479, Note_on_c, 0, 36, 0
2, 18482, Note_on_c, 0, 41, 75
2, 18488, Note_on_c, 0, 38, 0
2, 18538, Note_on_c, 0, 41, 0
2, 18542, Note_on_c, 0, 43, 60
2, 18560, Note_on_c, 0, 43, 0
2, 18573, Note_on_c, 0, 45, 84
2, 18585, Channel_aftertouch_c, 0, 4
2, 18586, Channel_aftertouch_c, 0, 6
2, 18592, Channel_aftertouch_c, 0, 7
2, 18593, Channel_aftertouch_c, 0, 10
2, 18594, Channel_aftertouch_c, 0, 12
2, 18595, Channel_aftertouch_c, 0, 15
2, 18595, Channel_aftertouch_c, 0, 16
2, 18596, Channel_aftertouch_c, 0, 19
2, 18597, Channel_aftertouch_c, 0, 21
2, 18598, Channel_aftertouch_c, 0, 22
2, 18598, Channel_aftertouch_c, 0, 24
2, 18600, Channel_aftertouch_c, 0, 27
2, 18601, Channel_aftertouch_c, 0, 28
2, 18603, Channel_aftertouch_c, 0, 31
2, 18605, Channel_aftertouch_c, 0, 33
2, 18606, Channel_aftertouch_c, 0, 34
2, 18608, Channel_aftertouch_c, 0, 36
2, 18609, Channel_aftertouch_c, 0, 39
2, 18612, Channel_aftertouch_c, 0, 40
2, 18615, Channel_aftertouch_c, 0, 37
2, 18616, Channel_aftertouch_c, 0, 34
2, 18617, Channel_aftertouch_c, 0, 30
2, 18617, Channel_aftertouch_c, 0, 26
2, 18618, Channel_aftertouch_c, 0, 22
2, 18619, Channel_aftertouch_c, 0, 18
2, 18620, Channel_aftertouch_c, 0, 14
2, 18621, Channel_aftertouch_c, 0, 10
2, 18621, Channel_aftertouch_c, 0, 6
2, 18622, Channel_aftertouch_c, 0, 2
2, 18623, Channel_aftertouch_c, 0, 0
2, 18632, Note_on_c, 0, 43, 64
2, 18635, Note_on_c, 0, 45, 0
2, 18647, Note_on_c, 0, 43, 0
2, 18661, Note_on_c, 0, 41, 84
2, 18667, Channel_aftertouch_c, 0, 4
2, 18667, Channel_aftertouch_c, 0, 8
2, 18668, Channel_aftertouch_c, 0, 12
2, 18669, Channel_aftertouch_c, 0, 16
2, 18669, Channel_aftertouch_c, 0, 20
2, 18670, Channel_aftertouch_c, 0, 24
2, 18671, Channel_aftertouch_c, 0, 28
2, 18672, Channel_aftertouch_c, 0, 32
2, 18673, Channel_aftertouch_c, 0, 36
2, 18673, Channel_aftertouch_c, 0, 40
2, 18674, Channel_aftertouch_c, 0, 44
2, 18675, Channel_aftertouch_c, 0, 48
2, 18675, Channel_aftertouch_c, 0, 52
2, 18676, Channel_aftertouch_c, 0, 56
2, 18677, Channel_aftertouch_c, 0, 60
2, 18677, Channel_aftertouch_c, 0, 56
2, 18678, Channel_aftertouch_c, 0, 52
2, 18679, Channel_aftertouch_c, 0, 49
2, 18680, Channel_aftertouch_c, 0, 46
2, 18680, Channel_aftertouch_c, 0, 43
2, 18681, Channel_aftertouch_c, 0, 40
2, 18682, Channel_aftertouch_c, 0, 37
2, 18683, Channel_aftertouch_c, 0, 34
2, 18683, Channel_aftertouch_c, 0, 33
2, 18684, Channel_aftertouch_c, 0, 31
2, 18685, Channel_aftertouch_c, 0, 28
2, 18691, Channel_aftertouch_c, 0, 27
2, 18692, Channel_aftertouch_c, 0, 23
2, 18692, Channel_aftertouch_c, 0, 19
2, 18693, Channel_aftertouch_c, 0, 15
2, 18694, Channel_aftertouch_c, 0, 11
2, 18694, Channel_aftertouch_c, 0, 7
2, 18695, Channel_aftertouch_c, 0, 3
2, 18696, Channel_aftertouch_c, 0, 0
2, 18718, Note_on_c, 0, 41, 0
2, 18721, Note_on_c, 0, 38, 69
2, 18781, Note_on_c, 0, 53, 48
2, 18808, Note_on_c, 0, 52, 51
2, 18812, Note_on_c, 0, 53, 0
2, 18834, Note_on_c, 0, 52, 0
2, 18840, Note_on_c, 0, 53, 74
2, 18866, Channel_aftertouch_c, 0, 3
2, 18867, Channel_aftertouch_c, 0, 4
2, 18868, Channel_aftertouch_c, 0, 7
2, 18869, Channel_aftertouch_c, 0, 10
2, 18869, Channel_aftertouch_c, 0, 12
2, 18870, Channel_aftertouch_c, 0, 15
2, 18871, Channel_aftertouch_c, 0, 18
2, 18872, Channel_aftertouch_c, 0, 21
2, 18872, Channel_aftertouch_c, 0, 22
2, 18873, Channel_aftertouch_c, 0, 25
2, 18874, Channel_aftertouch_c, 0, 27
2, 18875, Channel_aftertouch_c, 0, 28
2, 18876, Channel_aftertouch_c, 0, 31
2, 18878, Channel_aftertouch_c, 0, 34
2, 18879, Channel_aftertouch_c, 0, 36
2, 18881, Channel_aftertouch_c, 0, 37
2, 18883, Channel_aftertouch_c, 0, 39
2, 18887, Channel_aftertouch_c, 0, 37
2, 18888, Channel_aftertouch_c, 0, 36
2, 18889, Channel_aftertouch_c, 0, 34
2, 18890, Channel_aftertouch_c, 0, 33
2, 18891, Channel_aftertouch_c, 0, 30
2, 18893, Channel_aftertouch_c, 0, 27
2, 18895, Channel_aftertouch_c, 0, 24
2, 18895, Channel_aftertouch_c, 0, 21
2, 18896, Channel_aftertouch_c, 0, 18
2, 18897, Channel_aftertouch_c, 0, 14
2, 18898, Channel_aftertouch_c, 0, 10
2, 18898, Channel_aftertouch_c, 0, 6
2, 18899, Channel_aftertouch_c, 0, 2
2, 18900, Channel_aftertouch_c, 0, 0
2, 18931, Note_on_c, 0, 53, 0
2, 18962, Note_on_c, 0, 53, 53
2, 18990, Note_on_c, 0, 53, 0
2, 18993, Note_on_c, 0, 52, 52
2, 19013, Note_on_c, 0, 52, 0
2, 19022, Note_on_c, 0, 53, 58
2, 19132, Note_on_c, 0, 38, 0
2, 19134, Note_on_c, 0, 53, 0
2, 19141, Note_on_c, 0, 33, 64
2, 19201, Note_on_c, 0, 38, 62
2, 19203, Note_on_c, 0, 33, 0
2, 19261, Note_on_c, 0, 53, 50
2, 19289, Note_on_c, 0, 52, 44
2, 19290, Note_on_c, 0, 53, 0
2, 19314, Note_on_c, 0, 52, 0
2, 19320, Note_on_c, 0, 53, 60
2, 19413, Note_on_c, 0, 53, 0
2, 19441, Note_on_c, 0, 53, 51
2, 19468, Note_on_c, 0, 53, 0
2, 19472, Note_on_c, 0, 52, 47
2, 19492, Note_on_c, 0, 52, 0
2, 19501, Note_on_c, 0, 53, 58
2, 19612, Note_on_c, 0, 53, 0
2, 19618, Note_on_c, 0, 38, 0
2, 19621, Note_on_c, 0, 33, 63
2, 19679, Note_on_c, 0, 33, 0
2, 19679, Note_on_c, 0, 38, 65
2, 19740, Note_on_c, 0, 53, 47
2, 19769, Note_on_c, 0, 52, 48
2, 19771, Note_on_c, 0, 53, 0
2, 19790, Note_on_c, 0, 52, 0
2, 19799, Note_on_c, 0, 53, 64
2, 19896, Note_on_c, 0, 53, 0
2, 19921, Note_on_c, 0, 53, 51
2, 19948, Note_on_c, 0, 53, 0
2, 19949, Note_on_c, 0, 52, 43
2, 19968, Note_on_c, 0, 52, 0
2, 19981, Note_on_c, 0, 53, 64
2, 20093, Note_on_c, 0, 53, 0
2, 20093, Note_on_c, 0, 38, 0
2, 20100, Note_on_c, 0, 33, 63
2, 20154, Note_on_c, 0, 33, 0
2, 20158, Note_on_c, 0, 38, 67
2, 20219, Note_on_c, 0, 53, 48
2, 20249, Note_on_c, 0, 53, 0
2, 20249, Note_on_c, 0, 52, 29
2, 20269, Note_on_c, 0, 52, 0
2, 20280, Note_on_c, 0, 53, 65
2, 20345, Note_on_c, 0, 38, 0
2, 20372, Note_on_c, 0, 38, 61
2, 20375, Note_on_c, 0, 53, 0
2, 20403, Note_on_c, 0, 52, 69
2, 20412, Note_on_c, 0, 38, 0
2, 20462, Note_on_c, 0, 52, 0
2, 20462, Note_on_c, 0, 50, 49
2, 20488, Note_on_c, 0, 50, 0
2, 20492, Note_on_c, 0, 45, 43
2, 20519, Note_on_c, 0, 45, 0
2, 20521, Note_on_c, 0, 43, 60
2, 20552, Note_on_c, 0, 45, 62
2, 20558, Note_on_c, 0, 43, 0
2, 20574, Note_on_c, 0, 45, 0
2, 20582, Note_on_c, 0, 41, 87
2, 20588, Channel_aftertouch_c, 0, 1
2, 20589, Channel_aftertouch_c, 0, 5
2, 20589, Channel_aftertouch_c, 0, 9
2, 20590, Channel_aftertouch_c, 0, 13
2, 20591, Channel_aftertouch_c, 0, 17
2, 20592, Channel_aftertouch_c, 0, 21
2, 20593, Channel_aftertouch_c, 0, 25
2, 20593, Channel_aftertouch_c, 0, 29
2, 20594, Channel_aftertouch_c, 0, 33
2, 20595, Channel_aftertouch_c, 0, 37
2, 20596, Channel_aftertouch_c, 0, 41
2, 20596, Channel_aftertouch_c, 0, 45
2, 20597, Channel_aftertouch_c, 0, 49
2, 20598, Channel_aftertouch_c, 0, 53
2, 20599, Channel_aftertouch_c, 0, 57
2, 20600, Channel_aftertouch_c, 0, 60
2, 20601, Channel_aftertouch_c, 0, 61
2, 20602, Channel_aftertouch_c, 0, 64
2, 20603, Channel_aftertouch_c, 0, 66
2, 20604, Channel_aftertouch_c, 0, 67
2, 20606, Channel_aftertouch_c, 0, 69
2, 20607, Channel_aftertouch_c, 0, 72
2, 20609, Channel_aftertouch_c, 0, 73
2, 20610, Channel_aftertouch_c, 0, 75
2, 20613, Channel_aftertouch_c, 0, 76
2, 20615, Channel_aftertouch_c, 0, 79
2, 20618, Channel_aftertouch_c, 0, 81
2, 20623, Channel_aftertouch_c, 0, 78
2, 20624, Channel_aftertouch_c, 0, 76
2, 20625, Channel_aftertouch_c, 0, 72
2, 20626, Channel_aftertouch_c, 0, 68
2, 20627, Channel_aftertouch_c, 0, 64
2, 20627, Channel_aftertouch_c, 0, 60
2, 20628, Channel_aftertouch_c, 0, 56
2, 20629, Channel_aftertouch_c, 0, 52
2, 20629, Channel_aftertouch_c, 0, 48
2, 20630, Channel_aftertouch_c, 0, 44
2, 20631, Channel_aftertouch_c, 0, 40
2, 20632, Channel_aftertouch_c, 0, 36
2, 20632, Channel_aftertouch_c, 0, 32
2, 20633, Channel_aftertouch_c, 0, 28
2, 20634, Channel_aftertouch_c, 0, 24
2, 20634, Channel_aftertouch_c, 0, 20
2, 20635, Channel_aftertouch_c, 0, 16
2, 20636, Note_on_c, 0, 41, 0
2, 20636, Channel_aftertouch_c, 0, 12
2, 20637, Channel_aftertouch_c, 0, 8
2, 20637, Channel_aftertouch_c, 0, 4
2, 20639, Channel_aftertouch_c, 0, 0
2, 20642, Note_on_c, 0, 38, 79
2, 20646, Channel_aftertouch_c, 0, 4
2, 20646, Channel_aftertouch_c, 0, 0
2, 20647, Channel_aftertouch_c, 0, 4
2, 20648, Channel_aftertouch_c, 0, 8
2, 20648, Channel_aftertouch_c, 0, 12
2, 20649, Channel_aftertouch_c, 0, 16
2, 20650, Channel_aftertouch_c, 0, 20
2, 20650, Channel_aftertouch_c, 0, 24
2, 20651, Channel_aftertouch_c, 0, 28
2, 20652, Channel_aftertouch_c, 0, 32
2, 20653, Channel_aftertouch_c, 0, 36
2, 20653, Channel_aftertouch_c, 0, 40
2, 20654, Channel_aftertouch_c, 0, 44
2, 20655, Channel_aftertouch_c, 0, 40
2, 20656, Channel_aftertouch_c, 0, 36
2, 20656, Channel_aftertouch_c, 0, 32
2, 20657, Channel_aftertouch_c, 0, 28
2, 20658, Channel_aftertouch_c, 0, 24
2, 20658, Channel_aftertouch_c, 0, 20
2, 20659, Channel_aftertouch_c, 0, 16
2, 20660, Channel_aftertouch_c, 0, 12
2, 20661, Channel_aftertouch_c, 0, 8
2, 20662, Channel_aftertouch_c, 0, 4
2, 20662, Channel_aftertouch_c, 0, 0
2, 20702, Note_on_c, 0, 53, 63
2, 20728, Note_on_c, 0, 53, 0
2, 20732, Note_on_c, 0, 52, 54
2, 20745, Note_on_c, 0, 52, 0
2, 20762, Note_on_c, 0, 53, 67
2, 20838, Note_on_c, 0, 38, 0
2, 20852, Note_on_c, 0, 38, 55
2, 20857, Note_on_c, 0, 53, 0
2, 20882, Note_on_c, 0, 53, 63
2, 20912, Note_on_c, 0, 53, 0
2, 20913, Note_on_c, 0, 52, 51
2, 20930, Note_on_c, 0, 52, 0
2, 20943, Note_on_c, 0, 53, 63
2, 21047, Note_on_c, 0, 38, 0
2, 21053, Note_on_c, 0, 53, 0
2, 21059, Note_on_c, 0, 33, 65
2, 21117, Note_on_c, 0, 33, 0
2, 21120, Note_on_c, 0, 38, 72
2, 21125, Channel_aftertouch_c, 0, 3
2, 21126, Channel_aftertouch_c, 0, 7
2, 21127, Channel_aftertouch_c, 0, 11
2, 21128, Channel_aftertouch_c, 0, 15
2, 21129, Channel_aftertouch_c, 0, 11
2, 21130, Channel_aftertouch_c, 0, 7
2, 21130, Channel_aftertouch_c, 0, 3
2, 21131, Channel_aftertouch_c, 0, 0
2, 21181, Note_on_c, 0, 53, 55
2, 21203, Note_on_c, 0, 53, 0
2, 21211, Note_on_c, 0, 52, 46
2, 21226, Note_on_c, 0, 52, 0
2, 21241, Note_on_c, 0, 53, 67
2, 21336, Note_on_c, 0, 53, 0
2, 21361, Note_on_c, 0, 53, 59
2, 21383, Note_on_c, 0, 53, 0
2, 21391, Note_on_c, 0, 52, 47
2, 21407, Note_on_c, 0, 52, 0
2, 21420, Note_on_c, 0, 53, 63
2, 21533, Note_on_c, 0, 38, 0
2, 21541, Note_on_c, 0, 33, 72
2, 21552, Note_on_c, 0, 53, 0
2, 21596, Note_on_c, 0, 33, 0
2, 21599, Note_on_c, 0, 38, 74
2, 21602, Channel_aftertouch_c, 0, 3
2, 21603, Channel_aftertouch_c, 0, 7
2, 21603, Channel_aftertouch_c, 0, 11
2, 21604, Channel_aftertouch_c, 0, 15
2, 21605, Channel_aftertouch_c, 0, 19
2, 21605, Channel_aftertouch_c, 0, 23
2, 21606, Channel_aftertouch_c, 0, 27
2, 21607, Channel_aftertouch_c, 0, 31
2, 21608, Channel_aftertouch_c, 0, 35
2, 21608, Channel_aftertouch_c, 0, 39
2, 21609, Channel_aftertouch_c, 0, 37
2, 21610, Channel_aftertouch_c, 0, 33
2, 21610, Channel_aftertouch_c, 0, 29
2, 21611, Channel_aftertouch_c, 0, 25
2, 21612, Channel_aftertouch_c, 0, 21
2, 21613, Channel_aftertouch_c, 0, 17
2, 21614, Channel_aftertouch_c, 0, 13
2, 21614, Channel_aftertouch_c, 0, 9
2, 21615, Channel_aftertouch_c, 0, 5
2, 21616, Channel_aftertouch_c, 0, 1
2, 21617, Channel_aftertouch_c, 0, 0
2, 21659, Note_on_c, 0, 53, 51
2, 21690, Note_on_c, 0, 52, 44
2, 21692, Note_on_c, 0, 53, 0
2, 21708, Note_on_c, 0, 52, 0
2, 21721, Note_on_c, 0, 53, 62
2, 21811, Note_on_c, 0, 53, 0
2, 21841, Note_on_c, 0, 53, 53
2, 21870, Note_on_c, 0, 53, 0
2, 21870, Note_on_c, 0, 52, 46
2, 21888, Note_on_c, 0, 52, 0
2, 21901, Note_on_c, 0, 53, 61
2, 22018, Note_on_c, 0, 38, 0
2, 22021, Note_on_c, 0, 53, 0
2, 22022, Note_on_c, 0, 33, 79
2, 22076, Note_on_c, 0, 33, 0
2, 22082, Note_on_c, 0, 38, 75
2, 22087, Channel_aftertouch_c, 0, 4
2, 22088, Channel_aftertouch_c, 0, 8
2, 22089, Channel_aftertouch_c, 0, 12
2, 22089, Channel_aftertouch_c, 0, 16
2, 22090, Channel_aftertouch_c, 0, 20
2, 22091, Channel_aftertouch_c, 0, 24
2, 22092, Channel_aftertouch_c, 0, 28
2, 22092, Channel_aftertouch_c, 0, 32
2, 22093, Channel_aftertouch_c, 0, 36
2, 22094, Channel_aftertouch_c, 0, 40
2, 22094, Channel_aftertouch_c, 0, 36
2, 22095, Channel_aftertouch_c, 0, 32
2, 22096, Channel_aftertouch_c, 0, 28
2, 22097, Channel_aftertouch_c, 0, 24
2, 22097, Channel_aftertouch_c, 0, 20
2, 22098, Channel_aftertouch_c, 0, 16
2, 22099, Channel_aftertouch_c, 0, 12
2, 22099, Channel_aftertouch_c, 0, 8
2, 22100, Channel_aftertouch_c, 0, 4
2, 22101, Channel_aftertouch_c, 0, 1
2, 22107, Channel_aftertouch_c, 0, 0
2, 22141, Note_on_c, 0, 53, 55
2, 22166, Note_on_c, 0, 53, 0
2, 22171, Note_on_c, 0, 52, 42
2, 22186, Note_on_c, 0, 52, 0
2, 22200, Note_on_c, 0, 53, 63
2, 22298, Note_on_c, 0, 53, 0
2, 22315, Note_on_c, 0, 38, 0
2, 22320, Note_on_c, 0, 53, 72
2, 22321, Note_on_c, 0, 41, 67
2, 22352, Note_on_c, 0, 52, 62
2, 22352, Note_on_c, 0, 40, 79
2, 22353, Note_on_c, 0, 41, 0
2, 22355, Note_on_c, 0, 53, 0
2, 22371, Note_on_c, 0, 52, 0
2, 22378, Note_on_c, 0, 40, 0
2, 22381, Note_on_c, 0, 53, 72
2, 22382, Note_on_c, 0, 41, 87
2, 22493, Note_on_c, 0, 53, 0
2, 22502, Note_on_c, 0, 52, 84
2, 22503, Note_on_c, 0, 40, 75
2, 22507, Note_on_c, 0, 41, 0
2, 22532, Note_on_c, 0, 53, 65
2, 22534, Note_on_c, 0, 41, 72
2, 22536, Note_on_c, 0, 52, 0
2, 22538, Note_on_c, 0, 40, 0
2, 22549, Note_on_c, 0, 41, 0
2, 22556, Note_on_c, 0, 53, 0
2, 22562, Note_on_c, 0, 38, 87
2, 22569, Channel_aftertouch_c, 0, 1
2, 22570, Channel_aftertouch_c, 0, 5
2, 22571, Channel_aftertouch_c, 0, 9
2, 22572, Channel_aftertouch_c, 0, 13
2, 22572, Channel_aftertouch_c, 0, 17
2, 22573, Channel_aftertouch_c, 0, 21
2, 22574, Channel_aftertouch_c, 0, 25
2, 22574, Channel_aftertouch_c, 0, 29
2, 22575, Channel_aftertouch_c, 0, 33
2, 22576, Channel_aftertouch_c, 0, 37
2, 22576, Channel_aftertouch_c, 0, 34
2, 22577, Channel_aftertouch_c, 0, 30
2, 22578, Channel_aftertouch_c, 0, 26
2, 22579, Channel_aftertouch_c, 0, 22
2, 22579, Channel_aftertouch_c, 0, 18
2, 22580, Channel_aftertouch_c, 0, 14
2, 22581, Channel_aftertouch_c, 0, 10
2, 22582, Channel_aftertouch_c, 0, 6
2, 22583, Channel_aftertouch_c, 0, 2
2, 22583, Channel_aftertouch_c, 0, 0
2, 22623, Note_on_c, 0, 53, 69
2, 22643, Note_on_c, 0, 53, 0
2, 22653, Note_on_c, 0, 52, 58
2, 22668, Note_on_c, 0, 52, 0
2, 22683, Note_on_c, 0, 53, 75
2, 22769, Note_on_c, 0, 53, 0
2, 22800, Note_on_c, 0, 53, 62
2, 22826, Note_on_c, 0, 53, 0
2, 22829, Note_on_c, 0, 52, 54
2, 22846, Note_on_c, 0, 52, 0
2, 22859, Note_on_c, 0, 53, 74
2, 22965, Note_on_c, 0, 38, 0
2, 22980, Note_on_c, 0, 33, 74
2, 22982, Note_on_c, 0, 53, 0
2, 22986, Channel_aftertouch_c, 0, 1
2, 22987, Channel_aftertouch_c, 0, 4
2, 22988, Channel_aftertouch_c, 0, 0
2, 23035, Note_on_c, 0, 33, 0
2, 23041, Note_on_c, 0, 38, 74
2, 23045, Channel_aftertouch_c, 0, 4
2, 23046, Channel_aftertouch_c, 0, 8
2, 23047, Channel_aftertouch_c, 0, 12
2, 23047, Channel_aftertouch_c, 0, 16
2, 23048, Channel_aftertouch_c, 0, 20
2, 23049, Channel_aftertouch_c, 0, 24
2, 23049, Channel_aftertouch_c, 0, 28
2, 23050, Channel_aftertouch_c, 0, 32
2, 23051, Channel_aftertouch_c, 0, 36
2, 23052, Channel_aftertouch_c, 0, 32
2, 23053, Channel_aftertouch_c, 0, 28
2, 23054, Channel_aftertouch_c, 0, 24
2, 23055, Channel_aftertouch_c, 0, 20
2, 23055, Channel_aftertouch_c, 0, 16
2, 23056, Channel_aftertouch_c, 0, 12
2, 23057, Channel_aftertouch_c, 0, 8
2, 23058, Channel_aftertouch_c, 0, 4
2, 23059, Channel_aftertouch_c, 0, 1
2, 23100, Note_on_c, 0, 53, 57
2, 23128, Note_on_c, 0, 52, 46
2, 23132, Note_on_c, 0, 53, 0
2, 23147, Note_on_c, 0, 52, 0
2, 23159, Note_on_c, 0, 53, 75
2, 23252, Note_on_c, 0, 53, 0
2, 23280, Note_on_c, 0, 53, 60
2, 23310, Note_on_c, 0, 52, 52
2, 23311, Note_on_c, 0, 53, 0
2, 23331, Note_on_c, 0, 52, 0
2, 23340, Note_on_c, 0, 53, 59
2, 23386, Channel_aftertouch_c, 0, 3
2, 23388, Channel_aftertouch_c, 0, 0
2, 23442, Note_on_c, 0, 53, 0
2, 23459, Note_on_c, 0, 38, 0
2, 23461, Note_on_c, 0, 33, 64
2, 23521, Note_on_c, 0, 38, 74
2, 23523, Note_on_c, 0, 33, 0
2, 23526, Channel_aftertouch_c, 0, 3
2, 23528, Channel_aftertouch_c, 0, 0
2, 23581, Note_on_c, 0, 53, 52
2, 23609, Note_on_c, 0, 53, 0
2, 23609, Note_on_c, 0, 52, 54
2, 23630, Note_on_c, 0, 52, 0
2, 23640, Note_on_c, 0, 53, 64
2, 23733, Note_on_c, 0, 53, 0
2, 23760, Note_on_c, 0, 53, 56
2, 23791, Note_on_c, 0, 52, 47
2, 23795, Note_on_c, 0, 53, 0
2, 23809, Note_on_c, 0, 52, 0
2, 23819, Note_on_c, 0, 53, 65
2, 23930, Note_on_c, 0, 38, 0
2, 23938, Note_on_c, 0, 53, 0
2, 23940, Note_on_c, 0, 33, 75
2, 23999, Note_on_c, 0, 38, 72
2, 24000, Note_on_c, 0, 33, 0
2, 24059, Note_on_c, 0, 53, 54
2, 24088, Note_on_c, 0, 53, 0
2, 24088, Note_on_c, 0, 52, 43
2, 24111, Note_on_c, 0, 52, 0
2, 24119, Note_on_c, 0, 53, 64
2, 24207, Note_on_c, 0, 53, 0
2, 24239, Note_on_c, 0, 53, 50
2, 24268, Note_on_c, 0, 53, 0
2, 24269, Note_on_c, 0, 52, 59
2, 24291, Note_on_c, 0, 52, 0
2, 24299, Note_on_c, 0, 55, 75
2, 24403, Note_on_c, 0, 38, 0
2, 24418, Note_on_c, 0, 43, 79
2, 24422, Channel_aftertouch_c, 0, 1
2, 24423, Channel_aftertouch_c, 0, 5
2, 24424, Channel_aftertouch_c, 0, 9
2, 24425, Channel_aftertouch_c, 0, 13
2, 24425, Channel_aftertouch_c, 0, 17
2, 24426, Channel_aftertouch_c, 0, 21
2, 24427, Note_on_c, 0, 55, 0
2, 24427, Channel_aftertouch_c, 0, 25
2, 24428, Channel_aftertouch_c, 0, 29
2, 24428, Channel_aftertouch_c, 0, 33
2, 24429, Channel_aftertouch_c, 0, 30
2, 24430, Channel_aftertouch_c, 0, 26
2, 24431, Channel_aftertouch_c, 0, 22
2, 24431, Channel_aftertouch_c, 0, 18
2, 24432, Channel_aftertouch_c, 0, 14
2, 24433, Channel_aftertouch_c, 0, 10
2, 24433, Channel_aftertouch_c, 0, 6
2, 24434, Channel_aftertouch_c, 0, 2
2, 24435, Channel_aftertouch_c, 0, 0
2, 24479, Note_on_c, 0, 38, 72
2, 24481, Note_on_c, 0, 43, 0
2, 24541, Note_on_c, 0, 53, 54
2, 24571, Note_on_c, 0, 52, 55
2, 24572, Note_on_c, 0, 53, 0
2, 24592, Note_on_c, 0, 52, 0
2, 24600, Note_on_c, 0, 53, 72
2, 24695, Note_on_c, 0, 53, 0
2, 24719, Note_on_c, 0, 53, 59
2, 24749, Note_on_c, 0, 52, 51
2, 24750, Note_on_c, 0, 53, 0
2, 24771, Note_on_c, 0, 52, 0
2, 24781, Note_on_c, 0, 53, 65
2, 24892, Note_on_c, 0, 53, 0
2, 24892, Note_on_c, 0, 38, 0
2, 24899, Note_on_c, 0, 33, 75
2, 24951, Note_on_c, 0, 33, 0
2, 24958, Note_on_c, 0, 38, 67
2, 25018, Note_on_c, 0, 53, 57
2, 25047, Note_on_c, 0, 53, 0
2, 25047, Note_on_c, 0, 52, 49
2, 25074, Note_on_c, 0, 52, 0
2, 25077, Note_on_c, 0, 53, 61
2, 25176, Note_on_c, 0, 53, 0
2, 25200, Note_on_c, 0, 53, 58
2, 25229, Note_on_c, 0, 52, 49
2, 25230, Note_on_c, 0, 53, 0
2, 25252, Note_on_c, 0, 52, 0
2, 25259, Note_on_c, 0, 53, 62
2, 25368, Note_on_c, 0, 53, 0
2, 25381, Note_on_c, 0, 38, 0
2, 25381, Note_on_c, 0, 33, 72
2, 25431, Note_on_c, 0, 33, 0
2, 25438, Note_on_c, 0, 38, 72
2, 25441, Channel_aftertouch_c, 0, 1
2, 25442, Channel_aftertouch_c, 0, 0
2, 25502, Note_on_c, 0, 53, 60
2, 25532, Note_on_c, 0, 52, 49
2, 25539, Note_on_c, 0, 53, 0
2, 25550, Note_on_c, 0, 52, 0
2, 25562, Note_on_c, 0, 53, 72
2, 25612, Note_on_c, 0, 38, 0
2, 25621, Note_on_c, 0, 38, 72
2, 25626, Channel_aftertouch_c, 0, 4
2, 25627, Note_on_c, 0, 53, 0
2, 25627, Channel_aftertouch_c, 0, 8
2, 25628, Channel_aftertouch_c, 0, 12
2, 25628, Channel_aftertouch_c, 0, 16
2, 25629, Channel_aftertouch_c, 0, 18
2, 25630, Channel_aftertouch_c, 0, 14
2, 25630, Channel_aftertouch_c, 0, 10
2, 25631, Channel_aftertouch_c, 0, 6
2, 25632, Channel_aftertouch_c, 0, 2
2, 25633, Channel_aftertouch_c, 0, 0
2, 25651, Note_on_c, 0, 53, 72
2, 25710, Note_on_c, 0, 53, 0
2, 25712, Note_on_c, 0, 52, 58
2, 25730, Note_on_c, 0, 52, 0
2, 25741, Note_on_c, 0, 53, 62
2, 25789, Note_on_c, 0, 38, 0
2, 25829, Note_on_c, 0, 53, 0
2, 25829, Note_on_c, 0, 38, 65
2, 25833, Channel_aftertouch_c, 0, 4
2, 25833, Channel_aftertouch_c, 0, 8
2, 25834, Channel_aftertouch_c, 0, 12
2, 25835, Channel_aftertouch_c, 0, 16
2, 25836, Channel_aftertouch_c, 0, 20
2, 25836, Channel_aftertouch_c, 0, 24
2, 25837, Channel_aftertouch_c, 0, 25
2, 25838, Channel_aftertouch_c, 0, 21
2, 25839, Channel_aftertouch_c, 0, 17
2, 25839, Channel_aftertouch_c, 0, 13
2, 25840, Channel_aftertouch_c, 0, 9
2, 25841, Channel_aftertouch_c, 0, 5
2, 25842, Channel_aftertouch_c, 0, 1
2, 25842, Channel_aftertouch_c, 0, 0
2, 25859, Note_on_c, 0, 53, 69
2, 25872, Note_on_c, 0, 38, 0
2, 25888, Note_on_c, 0, 53, 0
2, 25888, Note_on_c, 0, 38, 62
2, 25889, Channel_aftertouch_c, 0, 4
2, 25890, Channel_aftertouch_c, 0, 8
2, 25890, Channel_aftertouch_c, 0, 12
2, 25891, Channel_aftertouch_c, 0, 16
2, 25892, Channel_aftertouch_c, 0, 20
2, 25892, Channel_aftertouch_c, 0, 24
2, 25893, Channel_aftertouch_c, 0, 28
2, 25894, Channel_aftertouch_c, 0, 32
2, 25894, Channel_aftertouch_c, 0, 36
2, 25895, Channel_aftertouch_c, 0, 40
2, 25896, Channel_aftertouch_c, 0, 44
2, 25897, Channel_aftertouch_c, 0, 40
2, 25898, Channel_aftertouch_c, 0, 36
2, 25898, Channel_aftertouch_c, 0, 32
2, 25899, Channel_aftertouch_c, 0, 28
2, 25900, Channel_aftertouch_c, 0, 24
2, 25901, Channel_aftertouch_c, 0, 20
2, 25901, Channel_aftertouch_c, 0, 16
2, 25902, Channel_aftertouch_c, 0, 12
2, 25903, Channel_aftertouch_c, 0, 8
2, 25903, Channel_aftertouch_c, 0, 4
2, 25904, Channel_aftertouch_c, 0, 0
2, 25949, Note_on_c, 0, 52, 61
2, 25966, Note_on_c, 0, 52, 0
2, 25979, Note_on_c, 0, 53, 72
2, 25997, Note_on_c, 0, 38, 0
2, 26009, Note_on_c, 0, 38, 60
2, 26011, Note_on_c, 0, 53, 0
2, 26039, Note_on_c, 0, 40, 75
2, 26044, Note_on_c, 0, 38, 0
2, 26071, Note_on_c, 0, 52, 59
2, 26087, Note_on_c, 0, 52, 0
2, 26102, Note_on_c, 0, 53, 62
2, 26118, Note_on_c, 0, 40, 0
2, 26125, Note_on_c, 0, 53, 0
2, 26132, Note_on_c, 0, 40, 65
2, 26161, Note_on_c, 0, 41, 84
2, 26166, Note_on_c, 0, 40, 0
2, 26193, Note_on_c, 0, 52, 60
2, 26211, Note_on_c, 0, 52, 0
2, 26222, Note_on_c, 0, 53, 72
2, 26229, Note_on_c, 0, 41, 0
2, 26250, Note_on_c, 0, 53, 0
2, 26252, Note_on_c, 0, 41, 69
2, 26282, Note_on_c, 0, 41, 0
2, 26283, Note_on_c, 0, 43, 75
2, 26283, Note_on_c, 0, 55, 79
2, 26329, Note_on_c, 0, 55, 0
2, 26342, Note_on_c, 0, 52, 75
2, 26363, Note_on_c, 0, 52, 0
2, 26370, Note_on_c, 0, 43, 0
2, 26372, Note_on_c, 0, 55, 87
2, 26401, Note_on_c, 0, 38, 94
2, 26403, Note_on_c, 0, 55, 0
2, 26404, Channel_aftertouch_c, 0, 4
2, 26405, Channel_aftertouch_c, 0, 0
2, 26463, Note_on_c, 0, 53, 75
2, 26493, Note_on_c, 0, 52, 59
2, 26494, Note_on_c, 0, 53, 0
2, 26510, Note_on_c, 0, 52, 0
2, 26523, Note_on_c, 0, 53, 79
2, 26607, Note_on_c, 0, 53, 0
2, 26641, Note_on_c, 0, 53, 63
2, 26657, Note_on_c, 0, 53, 0
2, 26671, Note_on_c, 0, 52, 58
2, 26685, Note_on_c, 0, 52, 0
2, 26701, Note_on_c, 0, 53, 75
2, 26789, Note_on_c, 0, 38, 0
2, 26815, Note_on_c, 0, 53, 0
2, 26818, Note_on_c, 0, 33, 75
2, 26879, Note_on_c, 0, 33, 0
2, 26879, Note_on_c, 0, 38, 67
2, 26884, Channel_aftertouch_c, 0, 3
2, 26885, Channel_aftertouch_c, 0, 7
2, 26886, Channel_aftertouch_c, 0, 11
2, 26887, Channel_aftertouch_c, 0, 15
2, 26887, Channel_aftertouch_c, 0, 19
2, 26889, Channel_aftertouch_c, 0, 15
2, 26889, Channel_aftertouch_c, 0, 11
2, 26890, Channel_aftertouch_c, 0, 7
2, 26891, Channel_aftertouch_c, 0, 3
2, 26892, Channel_aftertouch_c, 0, 0
2, 26940, Note_on_c, 0, 53, 61
2, 26957, Note_on_c, 0, 53, 0
2, 26968, Note_on_c, 0, 52, 42
2, 26980, Note_on_c, 0, 52, 0
2, 27001, Note_on_c, 0, 53, 74
2, 27088, Note_on_c, 0, 53, 0
2, 27121, Note_on_c, 0, 53, 59
2, 27142, Note_on_c, 0, 53, 0
2, 27151, Note_on_c, 0, 52, 56
2, 27169, Note_on_c, 0, 52, 0
2, 27181, Note_on_c, 0, 53, 72
2, 27292, Note_on_c, 0, 38, 0
2, 27297, Note_on_c, 0, 53, 0
2, 27301, Note_on_c, 0, 33, 75
2, 27358, Note_on_c, 0, 33, 0
2, 27361, Note_on_c, 0, 38, 67
2, 27367, Channel_aftertouch_c, 0, 3
2, 27367, Channel_aftertouch_c, 0, 7
2, 27368, Channel_aftertouch_c, 0, 11
2, 27369, Channel_aftertouch_c, 0, 15
2, 27369, Channel_aftertouch_c, 0, 19
2, 27370, Channel_aftertouch_c, 0, 21
2, 27371, Channel_aftertouch_c, 0, 17
2, 27372, Channel_aftertouch_c, 0, 13
2, 27372, Channel_aftertouch_c, 0, 9
2, 27373, Channel_aftertouch_c, 0, 5
2, 27374, Channel_aftertouch_c, 0, 1
2, 27374, Channel_aftertouch_c, 0, 0
2, 27423, Note_on_c, 0, 53, 52
2, 27451, Note_on_c, 0, 53, 0
2, 27451, Note_on_c, 0, 52, 59
2, 27472, Note_on_c, 0, 52, 0
2, 27482, Note_on_c, 0, 53, 79
2, 27578, Note_on_c, 0, 53, 0
2, 27602, Note_on_c, 0, 53, 64
2, 27628, Note_on_c, 0, 53, 0
2, 27631, Note_on_c, 0, 52, 58
2, 27649, Note_on_c, 0, 52, 0
2, 27661, Note_on_c, 0, 53, 67
2, 27774, Note_on_c, 0, 53, 0
2, 27774, Note_on_c, 0, 38, 0
2, 27782, Note_on_c, 0, 33, 84
2, 27836, Note_on_c, 0, 33, 0
2, 27841, Note_on_c, 0, 38, 72
2, 27847, Channel_aftertouch_c, 0, 4
2, 27848, Channel_aftertouch_c, 0, 8
2, 27849, Channel_aftertouch_c, 0, 12
2, 27850, Channel_aftertouch_c, 0, 16
2, 27850, Channel_aftertouch_c, 0, 20
2, 27851, Channel_aftertouch_c, 0, 24
2, 27852, Channel_aftertouch_c, 0, 28
2, 27853, Channel_aftertouch_c, 0, 24
2, 27854, Channel_aftertouch_c, 0, 20
2, 27854, Channel_aftertouch_c, 0, 16
2, 27855, Channel_aftertouch_c, 0, 12
2, 27856, Channel_aftertouch_c, 0, 8
2, 27856, Channel_aftertouch_c, 0, 4
2, 27857, Channel_aftertouch_c, 0, 0
2, 27901, Note_on_c, 0, 53, 64
2, 27927, Note_on_c, 0, 52, 52
2, 27930, Note_on_c, 0, 53, 0
2, 27945, Note_on_c, 0, 52, 0
2, 27959, Note_on_c, 0, 53, 79
2, 28033, Note_on_c, 0, 53, 0
2, 28048, Note_on_c, 0, 38, 0
2, 28051, Note_on_c, 0, 53, 67
2, 28069, Note_on_c, 0, 53, 0
2, 28080, Note_on_c, 0, 36, 69
2, 28141, Note_on_c, 0, 41, 72
2, 28148, Note_on_c, 0, 36, 0
2, 28167, Note_on_c, 0, 41, 0
2, 28171, Note_on_c, 0, 33, 87
2, 28232, Note_on_c, 0, 41, 67
2, 28241, Note_on_c, 0, 33, 0
2, 28251, Note_on_c, 0, 41, 0
2, 28261, Note_on_c, 0, 31, 84
2, 28317, Note_on_c, 0, 31, 0
2, 28319, Note_on_c, 0, 38, 87
2, 28381, Note_on_c, 0, 53, 67
2, 28409, Note_on_c, 0, 53, 0
2, 28409, Note_on_c, 0, 52, 59
2, 28431, Note_on_c, 0, 52, 0
2, 28439, Note_on_c, 0, 53, 63
2, 28535, Note_on_c, 0, 53, 0
2, 28558, Note_on_c, 0, 53, 61
2, 28588, Note_on_c, 0, 52, 52
2, 28590, Note_on_c, 0, 53, 0
2, 28608, Note_on_c, 0, 52, 0
2, 28618, Note_on_c, 0, 53, 79
2, 28735, Note_on_c, 0, 38, 0
2, 28741, Note_on_c, 0, 33, 75
2, 28747, Note_on_c, 0, 53, 0
2, 28800, Note_on_c, 0, 33, 0
2, 28802, Note_on_c, 0, 38, 74
2, 28808, Channel_aftertouch_c, 0, 3
2, 28808, Channel_aftertouch_c, 0, 7
2, 28809, Channel_aftertouch_c, 0, 11
2, 28810, Channel_aftertouch_c, 0, 15
2, 28811, Channel_aftertouch_c, 0, 19
2, 28812, Channel_aftertouch_c, 0, 23
2, 28812, Channel_aftertouch_c, 0, 27
2, 28813, Channel_aftertouch_c, 0, 23
2, 28814, Channel_aftertouch_c, 0, 19
2, 28814, Channel_aftertouch_c, 0, 15
2, 28815, Channel_aftertouch_c, 0, 11
2, 28816, Channel_aftertouch_c, 0, 7
2, 28817, Channel_aftertouch_c, 0, 3
2, 28817, Channel_aftertouch_c, 0, 0
2, 28861, Note_on_c, 0, 53, 58
2, 28889, Note_on_c, 0, 53, 0
2, 28889, Note_on_c, 0, 52, 55
2, 28908, Note_on_c, 0, 52, 0
2, 28920, Note_on_c, 0, 53, 74
2, 29016, Note_on_c, 0, 53, 0
2, 29039, Note_on_c, 0, 53, 61
2, 29067, Note_on_c, 0, 53, 0
2, 29069, Note_on_c, 0, 52, 44
2, 29086, Note_on_c, 0, 52, 0
2, 29099, Note_on_c, 0, 53, 74
2, 29208, Note_on_c, 0, 53, 0
2, 29213, Note_on_c, 0, 38, 0
2, 29221, Note_on_c, 0, 33, 72
2, 29275, Note_on_c, 0, 33, 0
2, 29279, Note_on_c, 0, 38, 69
2, 29342, Note_on_c, 0, 53, 59
2, 29369, Note_on_c, 0, 52, 49
2, 29371, Note_on_c, 0, 53, 0
2, 29388, Note_on_c, 0, 52, 0
2, 29401, Note_on_c, 0, 53, 67
2, 29492, Note_on_c, 0, 53, 0
2, 29521, Note_on_c, 0, 53, 58
2, 29540, Note_on_c, 0, 53, 0
2, 29551, Note_on_c, 0, 52, 54
2, 29569, Note_on_c, 0, 52, 0
2, 29579, Note_on_c, 0, 53, 60
2, 29691, Note_on_c, 0, 38, 0
2, 29700, Note_on_c, 0, 53, 0
2, 29702, Note_on_c, 0, 33, 72
2, 29758, Note_on_c, 0, 33, 0
2, 29760, Note_on_c, 0, 38, 74
2, 29819, Note_on_c, 0, 53, 54
2, 29849, Note_on_c, 0, 52, 63
2, 29852, Note_on_c, 0, 53, 0
2, 29865, Note_on_c, 0, 52, 0
2, 29881, Note_on_c, 0, 53, 75
2, 29950, Note_on_c, 0, 38, 0
2, 29963, Note_on_c, 0, 53, 0
2, 29973, Note_on_c, 0, 38, 60
2, 30001, Note_on_c, 0, 48, 72
2, 30002, Note_on_c, 0, 45, 72
2, 30035, Note_on_c, 0, 38, 0
2, 30062, Note_on_c, 0, 38, 62
2, 30064, Note_on_c, 0, 45, 0
2, 30066, Note_on_c, 0, 48, 0
2, 30091, Note_on_c, 0, 38, 0
2, 30091, Note_on_c, 0, 45, 75
2, 30091, Note_on_c, 0, 41, 74
2, 30099, Channel_aftertouch_c, 0, 1
2, 30100, Channel_aftertouch_c, 0, 5
2, 30101, Channel_aftertouch_c, 0, 9
2, 30101, Channel_aftertouch_c, 0, 13
2, 30102, Channel_aftertouch_c, 0, 16
2, 30103, Channel_aftertouch_c, 0, 19
2, 30104, Channel_aftertouch_c, 0, 21
2, 30104, Channel_aftertouch_c, 0, 24
2, 30105, Channel_aftertouch_c, 0, 25
2, 30106, Channel_aftertouch_c, 0, 27
2, 30106, Channel_aftertouch_c, 0, 28
2, 30108, Channel_aftertouch_c, 0, 30
2, 30111, Channel_aftertouch_c, 0, 33
2, 30111, Channel_aftertouch_c, 0, 34
2, 30113, Channel_aftertouch_c, 0, 37
2, 30113, Channel_aftertouch_c, 0, 40
2, 30114, Channel_aftertouch_c, 0, 43
2, 30115, Channel_aftertouch_c, 0, 45
2, 30115, Channel_aftertouch_c, 0, 48
2, 30116, Channel_aftertouch_c, 0, 49
2, 30117, Channel_aftertouch_c, 0, 51
2, 30118, Channel_aftertouch_c, 0, 52
2, 30118, Channel_aftertouch_c, 0, 54
2, 30119, Channel_aftertouch_c, 0, 55
2, 30120, Channel_aftertouch_c, 0, 57
2, 30121, Channel_aftertouch_c, 0, 60
2, 30122, Channel_aftertouch_c, 0, 61
2, 30123, Channel_aftertouch_c, 0, 63
2, 30123, Channel_aftertouch_c, 0, 64
2, 30125, Channel_aftertouch_c, 0, 67
2, 30126, Channel_aftertouch_c, 0, 70
2, 30128, Channel_aftertouch_c, 0, 73
2, 30130, Channel_aftertouch_c, 0, 75
2, 30131, Channel_aftertouch_c, 0, 76
2, 30132, Channel_aftertouch_c, 0, 78
2, 30135, Channel_aftertouch_c, 0, 79
2, 30137, Channel_aftertouch_c, 0, 82
2, 30140, Channel_aftertouch_c, 0, 84
2, 30142, Channel_aftertouch_c, 0, 85
2, 30144, Channel_aftertouch_c, 0, 87
2, 30146, Channel_aftertouch_c, 0, 88
2, 30151, Channel_aftertouch_c, 0, 90
2, 30157, Channel_aftertouch_c, 0, 88
2, 30159, Channel_aftertouch_c, 0, 87
2, 30160, Channel_aftertouch_c, 0, 85
2, 30162, Channel_aftertouch_c, 0, 82
2, 30163, Channel_aftertouch_c, 0, 81
2, 30165, Channel_aftertouch_c, 0, 78
2, 30166, Channel_aftertouch_c, 0, 76
2, 30168, Channel_aftertouch_c, 0, 73
2, 30169, Channel_aftertouch_c, 0, 72
2, 30169, Channel_aftertouch_c, 0, 70
2, 30170, Channel_aftertouch_c, 0, 69
2, 30171, Channel_aftertouch_c, 0, 67
2, 30171, Channel_aftertouch_c, 0, 64
2, 30172, Channel_aftertouch_c, 0, 63
2, 30173, Channel_aftertouch_c, 0, 61
2, 30174, Channel_aftertouch_c, 0, 58
2, 30175, Channel_aftertouch_c, 0, 57
2, 30176, Channel_aftertouch_c, 0, 55
2, 30177, Channel_aftertouch_c, 0, 52
2, 30179, Channel_aftertouch_c, 0, 51
2, 30181, Channel_aftertouch_c, 0, 48
2, 30182, Channel_aftertouch_c, 0, 46
2, 30183, Channel_aftertouch_c, 0, 43
2, 30184, Channel_aftertouch_c, 0, 40
2, 30184, Channel_aftertouch_c, 0, 37
2, 30185, Channel_aftertouch_c, 0, 33
2, 30186, Channel_aftertouch_c, 0, 29
2, 30186, Channel_aftertouch_c, 0, 25
2, 30187, Channel_aftertouch_c, 0, 21
2, 30188, Channel_aftertouch_c, 0, 17
2, 30188, Channel_aftertouch_c, 0, 13
2, 30189, Channel_aftertouch_c, 0, 9
2, 30190, Channel_aftertouch_c, 0, 5
2, 30191, Channel_aftertouch_c, 0, 1
2, 30191, Channel_aftertouch_c, 0, 0
2, 30233, Note_on_c, 0, 41, 0
2, 30238, Note_on_c, 0, 45, 0
2, 30239, Note_on_c, 0, 38, 75
2, 30240, Channel_aftertouch_c, 0, 1
2, 30240, Channel_aftertouch_c, 0, 4
2, 30241, Channel_aftertouch_c, 0, 0
2, 30242, Channel_aftertouch_c, 0, 1
2, 30243, Channel_aftertouch_c, 0, 5
2, 30244, Channel_aftertouch_c, 0, 9
2, 30244, Channel_aftertouch_c, 0, 13
2, 30245, Channel_aftertouch_c, 0, 16
2, 30246, Channel_aftertouch_c, 0, 12
2, 30246, Channel_aftertouch_c, 0, 8
2, 30247, Channel_aftertouch_c, 0, 4
2, 30248, Channel_aftertouch_c, 0, 0
2, 30301, Note_on_c, 0, 53, 58
2, 30330, Note_on_c, 0, 53, 0
2, 30331, Note_on_c, 0, 52, 54
2, 30352, Note_on_c, 0, 52, 0
2, 30361, Note_on_c, 0, 53, 72
2, 30449, Note_on_c, 0, 53, 0
2, 30482, Note_on_c, 0, 53, 58
2, 30511, Note_on_c, 0, 53, 0
2, 30511, Note_on_c, 0, 52, 48
2, 30540, Note_on_c, 0, 52, 0
2, 30541, Note_on_c, 0, 53, 61
2, 30655, Note_on_c, 0, 53, 0
2, 30655, Note_on_c, 0, 38, 0
2, 30661, Note_on_c, 0, 33, 72
2, 30715, Note_on_c, 0, 33, 0
2, 30719, Note_on_c, 0, 38, 72
2, 30724, Channel_aftertouch_c, 0, 3
2, 30725, Channel_aftertouch_c, 0, 4
2, 30726, Channel_aftertouch_c, 0, 6
2, 30726, Channel_aftertouch_c, 0, 4
2, 30727, Channel_aftertouch_c, 0, 0
2, 30780, Note_on_c, 0, 53, 53
2, 30810, Note_on_c, 0, 52, 49
2, 30812, Note_on_c, 0, 53, 0
2, 30839, Note_on_c, 0, 53, 60
2, 30842, Note_on_c, 0, 52, 0
2, 30930, Note_on_c, 0, 53, 0
2, 30959, Note_on_c, 0, 53, 59
2, 30988, Note_on_c, 0, 53, 0
2, 30989, Note_on_c, 0, 52, 48
2, 31012, Note_on_c, 0, 52, 0
2, 31019, Note_on_c, 0, 53, 61
2, 31133, Note_on_c, 0, 38, 0
2, 31137, Note_on_c, 0, 53, 0
2, 31140, Note_on_c, 0, 33, 72
2, 31200, Note_on_c, 0, 33, 0
2, 31201, Note_on_c, 0, 38, 69
2, 31261, Note_on_c, 0, 53, 53
2, 31289, Note_on_c, 0, 52, 59
2, 31295, Note_on_c, 0, 53, 0
2, 31317, Note_on_c, 0, 52, 0
2, 31319, Note_on_c, 0, 53, 58
2, 31418, Note_on_c, 0, 53, 0
2, 31441, Note_on_c, 0, 53, 61
2, 31470, Note_on_c, 0, 52, 49
2, 31471, Note_on_c, 0, 53, 0
2, 31500, Note_on_c, 0, 53, 63
2, 31501, Note_on_c, 0, 52, 0
2, 31607, Note_on_c, 0, 38, 0
2, 31613, Note_on_c, 0, 53, 0
2, 31620, Note_on_c, 0, 33, 84
2, 31677, Note_on_c, 0, 33, 0
2, 31680, Note_on_c, 0, 38, 67
2, 31687, Channel_aftertouch_c, 0, 3
2, 31688, Channel_aftertouch_c, 0, 0
2, 31739, Note_on_c, 0, 53, 46
2, 31768, Note_on_c, 0, 52, 44
2, 31775, Note_on_c, 0, 53, 0
2, 31788, Note_on_c, 0, 52, 0
2, 31799, Note_on_c, 0, 53, 69
2, 31879, Note_on_c, 0, 38, 0
2, 31892, Note_on_c, 0, 38, 59
2, 31903, Note_on_c, 0, 53, 0
2, 31921, Note_on_c, 0, 52, 72
2, 31941, Note_on_c, 0, 38, 0
2, 31948, Note_on_c, 0, 53, 58
2, 31951, Note_on_c, 0, 52, 0
2, 31977, Note_on_c, 0, 53, 0
2, 31978, Note_on_c, 0, 50, 58
2, 32004, Note_on_c, 0, 50, 0
2, 32008, Note_on_c, 0, 48, 59
2, 32035, Note_on_c, 0, 48, 0
2, 32037, Note_on_c, 0, 50, 62
2, 32068, Note_on_c, 0, 45, 49
2, 32070, Note_on_c, 0, 50, 0
2, 32099, Note_on_c, 0, 43, 67
2, 32100, Note_on_c, 0, 45, 0
2, 32131, Note_on_c, 0, 43, 0
2, 32131, Note_on_c, 0, 41, 61
2, 32131, Note_on_c, 0, 40, 64
2, 32150, Note_on_c, 0, 40, 0
2, 32161, Note_on_c, 0, 41, 0
2, 32161, Note_on_c, 0, 38, 75
2, 32165, Channel_aftertouch_c, 0, 1
2, 32166, Channel_aftertouch_c, 0, 5
2, 32167, Channel_aftertouch_c, 0, 9
2, 32168, Channel_aftertouch_c, 0, 13
2, 32168, Channel_aftertouch_c, 0, 17
2, 32169, Channel_aftertouch_c, 0, 21
2, 32170, Channel_aftertouch_c, 0, 25
2, 32171, Channel_aftertouch_c, 0, 29
2, 32172, Channel_aftertouch_c, 0, 33
2, 32172, Channel_aftertouch_c, 0, 37
2, 32173, Channel_aftertouch_c, 0, 41
2, 32174, Channel_aftertouch_c, 0, 45
2, 32175, Channel_aftertouch_c, 0, 41
2, 32176, Channel_aftertouch_c, 0, 37
2, 32177, Channel_aftertouch_c, 0, 33
2, 32178, Channel_aftertouch_c, 0, 29
2, 32178, Channel_aftertouch_c, 0, 25
2, 32179, Channel_aftertouch_c, 0, 21
2, 32180, Channel_aftertouch_c, 0, 17
2, 32180, Channel_aftertouch_c, 0, 13
2, 32181, Channel_aftertouch_c, 0, 9
2, 32182, Channel_aftertouch_c, 0, 5
2, 32183, Channel_aftertouch_c, 0, 1
2, 32183, Channel_aftertouch_c, 0, 0
2, 32221, Note_on_c, 0, 53, 54
2, 32251, Note_on_c, 0, 52, 58
2, 32254, Note_on_c, 0, 53, 0
2, 32272, Note_on_c, 0, 52, 0
2, 32282, Note_on_c, 0, 53, 87
2, 32373, Note_on_c, 0, 53, 0
2, 32399, Note_on_c, 0, 53, 64
2, 32428, Note_on_c, 0, 53, 0
2, 32429, Note_on_c, 0, 52, 59
2, 32448, Note_on_c, 0, 52, 0
2, 32459, Note_on_c, 0, 53, 74
2, 32570, Note_on_c, 0, 53, 0
2, 32570, Note_on_c, 0, 38, 0
2, 32579, Note_on_c, 0, 33, 74
2, 32632, Note_on_c, 0, 33, 0
2, 32639, Note_on_c, 0, 38, 74
2, 32641, Channel_aftertouch_c, 0, 3
2, 32642, Channel_aftertouch_c, 0, 7
2, 32643, Channel_aftertouch_c, 0, 11
2, 32643, Channel_aftertouch_c, 0, 15
2, 32644, Channel_aftertouch_c, 0, 19
2, 32645, Channel_aftertouch_c, 0, 23
2, 32646, Channel_aftertouch_c, 0, 27
2, 32646, Channel_aftertouch_c, 0, 23
2, 32647, Channel_aftertouch_c, 0, 19
2, 32648, Channel_aftertouch_c, 0, 15
2, 32648, Channel_aftertouch_c, 0, 11
2, 32649, Channel_aftertouch_c, 0, 7
2, 32650, Channel_aftertouch_c, 0, 3
2, 32651, Channel_aftertouch_c, 0, 0
2, 32698, Note_on_c, 0, 53, 65
2, 32733, Note_on_c, 0, 52, 51
2, 32739, Note_on_c, 0, 53, 0
2, 32753, Note_on_c, 0, 52, 0
2, 32760, Note_on_c, 0, 53, 75
2, 32841, Note_on_c, 0, 53, 0
2, 32881, Note_on_c, 0, 53, 65
2, 32911, Note_on_c, 0, 52, 59
2, 32912, Note_on_c, 0, 53, 0
2, 32932, Note_on_c, 0, 52, 0
2, 32941, Note_on_c, 0, 53, 64
2, 33035, Note_on_c, 0, 53, 0
2, 33052, Note_on_c, 0, 38, 0
2, 33061, Note_on_c, 0, 33, 84
2, 33117, Note_on_c, 0, 33, 0
2, 33119, Note_on_c, 0, 38, 72
2, 33126, Channel_aftertouch_c, 0, 4
2, 33126, Channel_aftertouch_c, 0, 8
2, 33127, Channel_aftertouch_c, 0, 10
2, 33128, Channel_aftertouch_c, 0, 6
2, 33129, Channel_aftertouch_c, 0, 2
2, 33129, Channel_aftertouch_c, 0, 0
2, 33179, Note_on_c, 0, 53, 64
2, 33213, Note_on_c, 0, 52, 58
2, 33217, Note_on_c, 0, 53, 0
2, 33234, Note_on_c, 0, 52, 0
2, 33241, Note_on_c, 0, 53, 59
2, 33311, Note_on_c, 0, 53, 0
2, 33359, Note_on_c, 0, 53, 61
2, 33389, Note_on_c, 0, 52, 55
2, 33392, Note_on_c, 0, 53, 0
2, 33415, Note_on_c, 0, 52, 0
2, 33419, Note_on_c, 0, 53, 69
2, 33527, Note_on_c, 0, 53, 0
2, 33538, Note_on_c, 0, 38, 0
2, 33542, Note_on_c, 0, 33, 72
2, 33595, Note_on_c, 0, 33, 0
2, 33599, Note_on_c, 0, 38, 74
2, 33603, Channel_aftertouch_c, 0, 4
2, 33603, Channel_aftertouch_c, 0, 8
2, 33604, Channel_aftertouch_c, 0, 12
2, 33605, Channel_aftertouch_c, 0, 16
2, 33606, Channel_aftertouch_c, 0, 20
2, 33606, Channel_aftertouch_c, 0, 24
2, 33607, Channel_aftertouch_c, 0, 28
2, 33608, Channel_aftertouch_c, 0, 27
2, 33608, Channel_aftertouch_c, 0, 23
2, 33609, Channel_aftertouch_c, 0, 19
2, 33610, Channel_aftertouch_c, 0, 15
2, 33611, Channel_aftertouch_c, 0, 11
2, 33612, Channel_aftertouch_c, 0, 7
2, 33612, Channel_aftertouch_c, 0, 3
2, 33613, Channel_aftertouch_c, 0, 0
2, 33659, Note_on_c, 0, 53, 63
2, 33673, Note_on_c, 0, 38, 0
2, 33681, Note_on_c, 0, 53, 0
2, 33691, Note_on_c, 0, 36, 72
2, 33698, Channel_aftertouch_c, 0, 4
2, 33699, Channel_aftertouch_c, 0, 8
2, 33700, Channel_aftertouch_c, 0, 12
2, 33700, Channel_aftertouch_c, 0, 16
2, 33701, Channel_aftertouch_c, 0, 20
2, 33702, Channel_aftertouch_c, 0, 24
2, 33703, Channel_aftertouch_c, 0, 28
2, 33703, Channel_aftertouch_c, 0, 32
2, 33704, Channel_aftertouch_c, 0, 28
2, 33705, Channel_aftertouch_c, 0, 24
2, 33705, Channel_aftertouch_c, 0, 20
2, 33706, Channel_aftertouch_c, 0, 16
2, 33707, Channel_aftertouch_c, 0, 12
2, 33708, Channel_aftertouch_c, 0, 8
2, 33708, Channel_aftertouch_c, 0, 4
2, 33709, Channel_aftertouch_c, 0, 0
2, 33749, Note_on_c, 0, 48, 60
2, 33767, Note_on_c, 0, 36, 0
2, 33770, Note_on_c, 0, 48, 0
2, 33778, Note_on_c, 0, 45, 69
2, 33830, Note_on_c, 0, 45, 0
2, 33837, Note_on_c, 0, 31, 72
2, 33868, Note_on_c, 0, 41, 63
2, 33894, Note_on_c, 0, 31, 0
2, 33895, Note_on_c, 0, 41, 0
2, 33897, Note_on_c, 0, 43, 64
2, 33931, Note_on_c, 0, 29, 60
2, 33932, Note_on_c, 0, 31, 60
2, 33940, Note_on_c, 0, 43, 0
2, 33946, Note_on_c, 0, 29, 0
2, 33952, Note_on_c, 0, 31, 0
2, 33958, Note_on_c, 0, 38, 84
2, 33993, Note_on_c, 0, 26, 57
2, 33993, Note_on_c, 0, 28, 57
2, 34001, Note_on_c, 0, 38, 0
2, 34006, Note_on_c, 0, 28, 0
2, 34007, Note_on_c, 0, 26, 0
2, 34019, Note_on_c, 0, 36, 84
2, 34019, Channel_aftertouch_c, 0, 1
2, 34020, Channel_aftertouch_c, 0, 0
2, 34023, Channel_aftertouch_c, 0, 1
2, 34023, Channel_aftertouch_c, 0, 5
2, 34024, Channel_aftertouch_c, 0, 6
2, 34025, Channel_aftertouch_c, 0, 10
2, 34026, Channel_aftertouch_c, 0, 14
2, 34026, Channel_aftertouch_c, 0, 18
2, 34027, Channel_aftertouch_c, 0, 22
2, 34028, Channel_aftertouch_c, 0, 18
2, 34028, Channel_aftertouch_c, 0, 14
2, 34029, Channel_aftertouch_c, 0, 10
2, 34030, Channel_aftertouch_c, 0, 6
2, 34031, Channel_aftertouch_c, 0, 2
2, 34031, Channel_aftertouch_c, 0, 0
2, 34053, Note_on_c, 0, 38, 63
2, 34066, Note_on_c, 0, 36, 0
2, 34067, Note_on_c, 0, 38, 0
2, 34079, Note_on_c, 0, 38, 87
2, 34082, Channel_aftertouch_c, 0, 4
2, 34083, Channel_aftertouch_c, 0, 7
2, 34084, Channel_aftertouch_c, 0, 10
2, 34085, Channel_aftertouch_c, 0, 14
2, 34085, Channel_aftertouch_c, 0, 15
2, 34086, Channel_aftertouch_c, 0, 12
2, 34088, Channel_aftertouch_c, 0, 15
2, 34089, Channel_aftertouch_c, 0, 13
2, 34090, Channel_aftertouch_c, 0, 9
2, 34091, Channel_aftertouch_c, 0, 5
2, 34091, Channel_aftertouch_c, 0, 1
2, 34092, Channel_aftertouch_c, 0, 0
2, 34139, Note_on_c, 0, 53, 56
2, 34139, Note_on_c, 0, 55, 53
2, 34156, Note_on_c, 0, 55, 0
2, 34171, Note_on_c, 0, 52, 75
2, 34174, Note_on_c, 0, 53, 0
2, 34193, Note_on_c, 0, 52, 0
2, 34200, Note_on_c, 0, 53, 75
2, 34293, Note_on_c, 0, 53, 0
2, 34319, Note_on_c, 0, 53, 60
2, 34347, Note_on_c, 0, 53, 0
2, 34349, Note_on_c, 0, 52, 59
2, 34370, Note_on_c, 0, 52, 0
2, 34379, Note_on_c, 0, 53, 84
2, 34491, Note_on_c, 0, 53, 0
2, 34495, Note_on_c, 0, 38, 0
2, 34501, Note_on_c, 0, 33, 72
2, 34561, Note_on_c, 0, 33, 0
2, 34561, Note_on_c, 0, 38, 69
2, 34568, Channel_aftertouch_c, 0, 4
2, 34569, Channel_aftertouch_c, 0, 7
2, 34569, Channel_aftertouch_c, 0, 9
2, 34571, Channel_aftertouch_c, 0, 5
2, 34571, Channel_aftertouch_c, 0, 1
2, 34572, Channel_aftertouch_c, 0, 0
2, 34619, Note_on_c, 0, 53, 60
2, 34651, Note_on_c, 0, 52, 64
2, 34658, Note_on_c, 0, 53, 0
2, 34675, Note_on_c, 0, 52, 0
2, 34682, Note_on_c, 0, 53, 72
2, 34774, Note_on_c, 0, 53, 0
2, 34800, Note_on_c, 0, 53, 67
2, 34830, Note_on_c, 0, 52, 59
2, 34832, Note_on_c, 0, 53, 0
2, 34852, Note_on_c, 0, 52, 0
2, 34861, Note_on_c, 0, 53, 65
2, 34957, Note_on_c, 0, 53, 0
2, 34973, Note_on_c, 0, 38, 0
2, 34980, Note_on_c, 0, 33, 72
2, 35038, Note_on_c, 0, 33, 0
2, 35041, Note_on_c, 0, 38, 72
2, 35046, Channel_aftertouch_c, 0, 3
2, 35047, Channel_aftertouch_c, 0, 7
2, 35048, Channel_aftertouch_c, 0, 11
2, 35048, Channel_aftertouch_c, 0, 15
2, 35049, Channel_aftertouch_c, 0, 19
2, 35050, Channel_aftertouch_c, 0, 23
2, 35051, Channel_aftertouch_c, 0, 22
2, 35051, Channel_aftertouch_c, 0, 18
2, 35052, Channel_aftertouch_c, 0, 14
2, 35053, Channel_aftertouch_c, 0, 10
2, 35054, Channel_aftertouch_c, 0, 6
2, 35054, Channel_aftertouch_c, 0, 2
2, 35055, Channel_aftertouch_c, 0, 0
2, 35101, Note_on_c, 0, 53, 58
2, 35131, Note_on_c, 0, 52, 58
2, 35134, Note_on_c, 0, 53, 0
2, 35154, Note_on_c, 0, 52, 0
2, 35161, Note_on_c, 0, 53, 69
2, 35254, Note_on_c, 0, 53, 0
2, 35279, Note_on_c, 0, 53, 62
2, 35309, Note_on_c, 0, 53, 0
2, 35309, Note_on_c, 0, 52, 59
2, 35327, Note_on_c, 0, 52, 0
2, 35339, Note_on_c, 0, 53, 84
2, 35453, Note_on_c, 0, 38, 0
2, 35461, Note_on_c, 0, 53, 0
2, 35461, Note_on_c, 0, 33, 59
2, 35514, Note_on_c, 0, 33, 0
2, 35519, Note_on_c, 0, 38, 74
2, 35522, Channel_aftertouch_c, 0, 4
2, 35523, Channel_aftertouch_c, 0, 8
2, 35523, Channel_aftertouch_c, 0, 12
2, 35524, Channel_aftertouch_c, 0, 16
2, 35525, Channel_aftertouch_c, 0, 20
2, 35526, Channel_aftertouch_c, 0, 24
2, 35526, Channel_aftertouch_c, 0, 28
2, 35527, Channel_aftertouch_c, 0, 32
2, 35528, Channel_aftertouch_c, 0, 31
2, 35529, Channel_aftertouch_c, 0, 27
2, 35529, Channel_aftertouch_c, 0, 23
2, 35530, Channel_aftertouch_c, 0, 19
2, 35531, Channel_aftertouch_c, 0, 15
2, 35531, Channel_aftertouch_c, 0, 11
2, 35532, Channel_aftertouch_c, 0, 7
2, 35533, Channel_aftertouch_c, 0, 3
2, 35534, Channel_aftertouch_c, 0, 0
2, 35579, Note_on_c, 0, 53, 53
2, 35608, Note_on_c, 0, 52, 67
2, 35609, Note_on_c, 0, 53, 0
2, 35625, Note_on_c, 0, 52, 0
2, 35639, Note_on_c, 0, 53, 74
2, 35716, Note_on_c, 0, 53, 0
2, 35730, Note_on_c, 0, 53, 61
2, 35743, Note_on_c, 0, 38, 0
2, 35755, Note_on_c, 0, 53, 0
2, 35759, Note_on_c, 0, 38, 87
2, 35761, Channel_aftertouch_c, 0, 4
2, 35762, Channel_aftertouch_c, 0, 8
2, 35763, Channel_aftertouch_c, 0, 12
2, 35763, Channel_aftertouch_c, 0, 16
2, 35764, Channel_aftertouch_c, 0, 20
2, 35765, Channel_aftertouch_c, 0, 24
2, 35766, Channel_aftertouch_c, 0, 28
2, 35766, Channel_aftertouch_c, 0, 32
2, 35767, Channel_aftertouch_c, 0, 28
2, 35768, Channel_aftertouch_c, 0, 24
2, 35768, Channel_aftertouch_c, 0, 20
2, 35769, Channel_aftertouch_c, 0, 16
2, 35770, Channel_aftertouch_c, 0, 12
2, 35771, Channel_aftertouch_c, 0, 8
2, 35771, Channel_aftertouch_c, 0, 4
2, 35772, Channel_aftertouch_c, 0, 1
2, 35811, Note_on_c, 0, 38, 0
2, 35818, Note_on_c, 0, 36, 72
2, 35849, Note_on_c, 0, 36, 0
2, 35849, Note_on_c, 0, 33, 74
2, 35910, Note_on_c, 0, 31, 59
2, 35916, Note_on_c, 0, 33, 0
2, 35933, Note_on_c, 0, 31, 0
2, 35939, Note_on_c, 0, 29, 75
2, 35985, Note_on_c, 0, 29, 0
2, 35993, Channel_aftertouch_c, 0, 0
2, 35997, Note_on_c, 0, 26, 84
2, 36006, Channel_aftertouch_c, 0, 4
2, 36006, Channel_aftertouch_c, 0, 8
2, 36007, Channel_aftertouch_c, 0, 12
2, 36008, Channel_aftertouch_c, 0, 16
2, 36009, Channel_aftertouch_c, 0, 20
2, 36009, Channel_aftertouch_c, 0, 24
2, 36010, Channel_aftertouch_c, 0, 28
2, 36011, Channel_aftertouch_c, 0, 32
2, 36011, Channel_aftertouch_c, 0, 36
2, 36012, Channel_aftertouch_c, 0, 40
2, 36013, Channel_aftertouch_c, 0, 36
2, 36014, Channel_aftertouch_c, 0, 32
2, 36014, Channel_aftertouch_c, 0, 28
2, 36015, Channel_aftertouch_c, 0, 24
2, 36016, Channel_aftertouch_c, 0, 20
2, 36017, Channel_aftertouch_c, 0, 16
2, 36017, Channel_aftertouch_c, 0, 12
2, 36018, Channel_aftertouch_c, 0, 8
2, 36019, Channel_aftertouch_c, 0, 4
2, 36020, Channel_aftertouch_c, 0, 0
2, 36062, Note_on_c, 0, 53, 57
2, 36091, Note_on_c, 0, 53, 0
2, 36091, Note_on_c, 0, 52, 46
2, 36108, Note_on_c, 0, 52, 0
2, 36122, Note_on_c, 0, 53, 75
2, 36221, Note_on_c, 0, 53, 0
2, 36241, Note_on_c, 0, 53, 59
2, 36267, Note_on_c, 0, 53, 0
2, 36268, Note_on_c, 0, 52, 44
2, 36293, Note_on_c, 0, 52, 0
2, 36300, Note_on_c, 0, 53, 84
2, 36306, Channel_aftertouch_c, 0, 1
2, 36307, Channel_aftertouch_c, 0, 4
2, 36308, Channel_aftertouch_c, 0, 1
2, 36309, Channel_aftertouch_c, 0, 0
2, 36421, Note_on_c, 0, 33, 75
2, 36423, Note_on_c, 0, 26, 0
2, 36427, Channel_aftertouch_c, 0, 4
2, 36428, Channel_aftertouch_c, 0, 8
2, 36429, Channel_aftertouch_c, 0, 12
2, 36429, Channel_aftertouch_c, 0, 16
2, 36430, Channel_aftertouch_c, 0, 20
2, 36431, Channel_aftertouch_c, 0, 24
2, 36431, Channel_aftertouch_c, 0, 25
2, 36432, Note_on_c, 0, 53, 0
2, 36432, Channel_aftertouch_c, 0, 24
2, 36433, Channel_aftertouch_c, 0, 20
2, 36433, Channel_aftertouch_c, 0, 16
2, 36434, Channel_aftertouch_c, 0, 12
2, 36435, Channel_aftertouch_c, 0, 8
2, 36436, Channel_aftertouch_c, 0, 4
2, 36436, Channel_aftertouch_c, 0, 0
2, 36478, Note_on_c, 0, 33, 0
2, 36480, Note_on_c, 0, 38, 79
2, 36484, Channel_aftertouch_c, 0, 4
2, 36485, Channel_aftertouch_c, 0, 8
2, 36485, Channel_aftertouch_c, 0, 12
2, 36486, Channel_aftertouch_c, 0, 16
2, 36487, Channel_aftertouch_c, 0, 20
2, 36487, Channel_aftertouch_c, 0, 24
2, 36488, Channel_aftertouch_c, 0, 28
2, 36489, Channel_aftertouch_c, 0, 32
2, 36489, Channel_aftertouch_c, 0, 36
2, 36490, Channel_aftertouch_c, 0, 37
2, 36491, Channel_aftertouch_c, 0, 33
2, 36492, Channel_aftertouch_c, 0, 29
2, 36492, Channel_aftertouch_c, 0, 25
2, 36493, Channel_aftertouch_c, 0, 21
2, 36494, Channel_aftertouch_c, 0, 17
2, 36494, Channel_aftertouch_c, 0, 13
2, 36495, Channel_aftertouch_c, 0, 9
2, 36496, Channel_aftertouch_c, 0, 5
2, 36497, Channel_aftertouch_c, 0, 1
2, 36498, Channel_aftertouch_c, 0, 0
2, 36541, Note_on_c, 0, 53, 61
2, 36569, Note_on_c, 0, 52, 59
2, 36573, Note_on_c, 0, 53, 0
2, 36588, Note_on_c, 0, 52, 0
2, 36599, Note_on_c, 0, 53, 75
2, 36697, Note_on_c, 0, 53, 0
2, 36721, Note_on_c, 0, 53, 60
2, 36751, Note_on_c, 0, 52, 59
2, 36756, Note_on_c, 0, 53, 0
2, 36772, Note_on_c, 0, 52, 0
2, 36781, Note_on_c, 0, 53, 64
2, 36888, Note_on_c, 0, 53, 0
2, 36891, Note_on_c, 0, 38, 0
2, 36902, Note_on_c, 0, 33, 84
2, 36956, Note_on_c, 0, 33, 0
2, 36960, Note_on_c, 0, 38, 72
2, 36964, Channel_aftertouch_c, 0, 4
2, 36965, Channel_aftertouch_c, 0, 8
2, 36965, Channel_aftertouch_c, 0, 12
2, 36966, Channel_aftertouch_c, 0, 16
2, 36967, Channel_aftertouch_c, 0, 20
2, 36967, Channel_aftertouch_c, 0, 24
2, 36968, Channel_aftertouch_c, 0, 28
2, 36970, Channel_aftertouch_c, 0, 24
2, 36970, Channel_aftertouch_c, 0, 20
2, 36971, Channel_aftertouch_c, 0, 16
2, 36972, Channel_aftertouch_c, 0, 12
2, 36973, Channel_aftertouch_c, 0, 8
2, 36974, Channel_aftertouch_c, 0, 4
2, 36974, Channel_aftertouch_c, 0, 0
2, 37022, Note_on_c, 0, 53, 61
2, 37047, Note_on_c, 0, 53, 0
2, 37051, Note_on_c, 0, 52, 58
2, 37068, Note_on_c, 0, 52, 0
2, 37081, Note_on_c, 0, 53, 74
2, 37171, Note_on_c, 0, 53, 0
2, 37202, Note_on_c, 0, 53, 65
2, 37227, Note_on_c, 0, 53, 0
2, 37231, Note_on_c, 0, 52, 61
2, 37249, Note_on_c, 0, 52, 0
2, 37260, Note_on_c, 0, 53, 79
2, 37364, Note_on_c, 0, 53, 0
2, 37375, Note_on_c, 0, 38, 0
2, 37382, Note_on_c, 0, 33, 74
2, 37436, Note_on_c, 0, 33, 0
2, 37440, Note_on_c, 0, 38, 79
2, 37443, Channel_aftertouch_c, 0, 4
2, 37444, Channel_aftertouch_c, 0, 8
2, 37445, Channel_aftertouch_c, 0, 12
2, 37445, Channel_aftertouch_c, 0, 16
2, 37446, Channel_aftertouch_c, 0, 20
2, 37447, Channel_aftertouch_c, 0, 24
2, 37447, Channel_aftertouch_c, 0, 28
2, 37448, Channel_aftertouch_c, 0, 32
2, 37449, Channel_aftertouch_c, 0, 36
2, 37450, Channel_aftertouch_c, 0, 39
2, 37451, Channel_aftertouch_c, 0, 35
2, 37451, Channel_aftertouch_c, 0, 31
2, 37452, Channel_aftertouch_c, 0, 27
2, 37453, Channel_aftertouch_c, 0, 23
2, 37453, Channel_aftertouch_c, 0, 19
2, 37454, Channel_aftertouch_c, 0, 15
2, 37455, Channel_aftertouch_c, 0, 11
2, 37456, Channel_aftertouch_c, 0, 7
2, 37456, Channel_aftertouch_c, 0, 3
2, 37457, Channel_aftertouch_c, 0, 0
2, 37503, Note_on_c, 0, 53, 58
2, 37525, Note_on_c, 0, 53, 0
2, 37529, Note_on_c, 0, 52, 54
2, 37549, Note_on_c, 0, 52, 0
2, 37560, Note_on_c, 0, 53, 74
2, 37645, Note_on_c, 0, 53, 0
2, 37681, Note_on_c, 0, 53, 59
2, 37705, Note_on_c, 0, 53, 0
2, 37711, Note_on_c, 0, 52, 60
2, 37727, Note_on_c, 0, 52, 0
2, 37741, Note_on_c, 0, 53, 72
2, 37851, Note_on_c, 0, 53, 0
2, 37855, Note_on_c, 0, 38, 0
2, 37861, Note_on_c, 0, 33, 75
2, 37916, Note_on_c, 0, 33, 0
2, 37921, Note_on_c, 0, 38, 75
2, 37924, Channel_aftertouch_c, 0, 4
2, 37925, Channel_aftertouch_c, 0, 8
2, 37926, Channel_aftertouch_c, 0, 12
2, 37926, Channel_aftertouch_c, 0, 16
2, 37927, Channel_aftertouch_c, 0, 20
2, 37928, Channel_aftertouch_c, 0, 24
2, 37929, Channel_aftertouch_c, 0, 28
2, 37929, Channel_aftertouch_c, 0, 32
2, 37930, Channel_aftertouch_c, 0, 36
2, 37931, Channel_aftertouch_c, 0, 40
2, 37932, Channel_aftertouch_c, 0, 44
2, 37932, Channel_aftertouch_c, 0, 45
2, 37933, Channel_aftertouch_c, 0, 41
2, 37934, Channel_aftertouch_c, 0, 37
2, 37934, Channel_aftertouch_c, 0, 33
2, 37935, Channel_aftertouch_c, 0, 29
2, 37936, Channel_aftertouch_c, 0, 25
2, 37937, Channel_aftertouch_c, 0, 21
2, 37937, Channel_aftertouch_c, 0, 17
2, 37938, Channel_aftertouch_c, 0, 13
2, 37939, Channel_aftertouch_c, 0, 9
2, 37939, Channel_aftertouch_c, 0, 5
2, 37940, Channel_aftertouch_c, 0, 1
2, 37941, Channel_aftertouch_c, 0, 0
2, 37982, Note_on_c, 0, 53, 58
2, 38011, Note_on_c, 0, 52, 58
2, 38012, Note_on_c, 0, 53, 0
2, 38029, Note_on_c, 0, 52, 0
2, 38040, Note_on_c, 0, 53, 84
2, 38133, Note_on_c, 0, 53, 0
2, 38162, Note_on_c, 0, 53, 60
2, 38186, Note_on_c, 0, 53, 0
2, 38191, Note_on_c, 0, 52, 58
2, 38210, Note_on_c, 0, 52, 0
2, 38221, Note_on_c, 0, 53, 75
2, 38327, Note_on_c, 0, 53, 0
2, 38333, Note_on_c, 0, 38, 0
2, 38341, Note_on_c, 0, 33, 75
2, 38393, Note_on_c, 0, 33, 0
2, 38399, Note_on_c, 0, 38, 72
2, 38401, Channel_aftertouch_c, 0, 3
2, 38402, Channel_aftertouch_c, 0, 7
2, 38403, Channel_aftertouch_c, 0, 11
2, 38403, Channel_aftertouch_c, 0, 15
2, 38404, Channel_aftertouch_c, 0, 19
2, 38405, Channel_aftertouch_c, 0, 23
2, 38405, Channel_aftertouch_c, 0, 27
2, 38406, Channel_aftertouch_c, 0, 31
2, 38407, Channel_aftertouch_c, 0, 35
2, 38408, Channel_aftertouch_c, 0, 31
2, 38408, Channel_aftertouch_c, 0, 27
2, 38409, Channel_aftertouch_c, 0, 23
2, 38410, Channel_aftertouch_c, 0, 19
2, 38410, Channel_aftertouch_c, 0, 15
2, 38411, Channel_aftertouch_c, 0, 11
2, 38412, Channel_aftertouch_c, 0, 7
2, 38412, Channel_aftertouch_c, 0, 3
2, 38413, Channel_aftertouch_c, 0, 0
2, 38459, Note_on_c, 0, 53, 59
2, 38487, Note_on_c, 0, 53, 0
2, 38489, Note_on_c, 0, 52, 50
2, 38503, Note_on_c, 0, 52, 0
2, 38519, Note_on_c, 0, 53, 79
2, 38604, Note_on_c, 0, 53, 0
2, 38641, Note_on_c, 0, 53, 67
2, 38670, Note_on_c, 0, 53, 0
2, 38671, Note_on_c, 0, 52, 64
2, 38687, Note_on_c, 0, 52, 0
2, 38702, Note_on_c, 0, 53, 75
2, 38827, Note_on_c, 0, 53, 0
2, 38853, Note_on_c, 0, 38, 0
2, 38881, Note_on_c, 0, 31, 87
2, 38883, Channel_aftertouch_c, 0, 4
2, 38884, Channel_aftertouch_c, 0, 3
2, 38884, Channel_aftertouch_c, 0, 0
2, 38888, Channel_aftertouch_c, 0, 4
2, 38888, Channel_aftertouch_c, 0, 8
2, 38889, Channel_aftertouch_c, 0, 12
2, 38890, Channel_aftertouch_c, 0, 16
2, 38890, Channel_aftertouch_c, 0, 20
2, 38891, Channel_aftertouch_c, 0, 16
2, 38892, Channel_aftertouch_c, 0, 12
2, 38893, Channel_aftertouch_c, 0, 8
2, 38894, Channel_aftertouch_c, 0, 4
2, 38894, Channel_aftertouch_c, 0, 0
2, 38939, Note_on_c, 0, 31, 0
2, 38944, Note_on_c, 0, 31, 72
2, 38958, Note_on_c, 0, 31, 0
2, 39001, Note_on_c, 0, 31, 94
2, 39005, Channel_aftertouch_c, 0, 4
2, 39005, Channel_aftertouch_c, 0, 8
2, 39006, Channel_aftertouch_c, 0, 4
2, 39007, Channel_aftertouch_c, 0, 8
2, 39007, Channel_aftertouch_c, 0, 12
2, 39008, Channel_aftertouch_c, 0, 16
2, 39009, Channel_aftertouch_c, 0, 20
2, 39009, Channel_aftertouch_c, 0, 24
2, 39010, Channel_aftertouch_c, 0, 28
2, 39011, Channel_aftertouch_c, 0, 32
2, 39012, Channel_aftertouch_c, 0, 36
2, 39013, Channel_aftertouch_c, 0, 32
2, 39014, Channel_aftertouch_c, 0, 28
2, 39014, Channel_aftertouch_c, 0, 24
2, 39015, Channel_aftertouch_c, 0, 20
2, 39016, Channel_aftertouch_c, 0, 16
2, 39016, Channel_aftertouch_c, 0, 12
2, 39017, Channel_aftertouch_c, 0, 8
2, 39018, Channel_aftertouch_c, 0, 4
2, 39018, Channel_aftertouch_c, 0, 0
2, 39173, Channel_aftertouch_c, 0, 3
2, 39174, Channel_aftertouch_c, 0, 4
2, 39175, Channel_aftertouch_c, 0, 6
2, 39175, Channel_aftertouch_c, 0, 7
2, 39176, Channel_aftertouch_c, 0, 10
2, 39177, Channel_aftertouch_c, 0, 12
2, 39178, Channel_aftertouch_c, 0, 13
2, 39178, Channel_aftertouch_c, 0, 15
2, 39179, Channel_aftertouch_c, 0, 16
2, 39181, Channel_aftertouch_c, 0, 19
2, 39182, Channel_aftertouch_c, 0, 21
2, 39184, Channel_aftertouch_c, 0, 22
2, 39186, Channel_aftertouch_c, 0, 24
2, 39189, Channel_aftertouch_c, 0, 22
2, 39190, Channel_aftertouch_c, 0, 21
2, 39191, Channel_aftertouch_c, 0, 18
2, 39193, Channel_aftertouch_c, 0, 15
2, 39193, Channel_aftertouch_c, 0, 13
2, 39194, Channel_aftertouch_c, 0, 12
2, 39195, Channel_aftertouch_c, 0, 9
2, 39196, Channel_aftertouch_c, 0, 7
2, 39196, Channel_aftertouch_c, 0, 4
2, 39197, Channel_aftertouch_c, 0, 1
2, 39271, Note_on_c, 0, 31, 0
2, 39360, Note_on_c, 0, 31, 94
2, 39413, Note_on_c, 0, 31, 0
2, 39421, Note_on_c, 0, 31, 58
2, 39434, Note_on_c, 0, 31, 0
2, 39482, Note_on_c, 0, 31, 100
2, 39486, Channel_aftertouch_c, 0, 0
2, 39486, Channel_aftertouch_c, 0, 4
2, 39487, Channel_aftertouch_c, 0, 1
2, 39488, Channel_aftertouch_c, 0, 0
2, 39757, Note_on_c, 0, 31, 0
2, 39779, Note_on_c, 0, 33, 84
2, 39831, Note_on_c, 0, 33, 0
2, 39839, Note_on_c, 0, 38, 79
2, 39841, Channel_aftertouch_c, 0, 3
2, 39842, Channel_aftertouch_c, 0, 7
2, 39842, Channel_aftertouch_c, 0, 11
2, 39843, Channel_aftertouch_c, 0, 15
2, 39844, Channel_aftertouch_c, 0, 19
2, 39844, Channel_aftertouch_c, 0, 23
2, 39846, Channel_aftertouch_c, 0, 27
2, 39846, Channel_aftertouch_c, 0, 31
2, 39847, Channel_aftertouch_c, 0, 28
2, 39848, Channel_aftertouch_c, 0, 24
2, 39848, Channel_aftertouch_c, 0, 20
2, 39849, Channel_aftertouch_c, 0, 16
2, 39850, Channel_aftertouch_c, 0, 12
2, 39851, Channel_aftertouch_c, 0, 8
2, 39851, Channel_aftertouch_c, 0, 4
2, 39852, Channel_aftertouch_c, 0, 0
2, 39901, Note_on_c, 0, 53, 60
2, 39929, Note_on_c, 0, 52, 58
2, 39933, Note_on_c, 0, 53, 0
2, 39951, Note_on_c, 0, 52, 0
2, 39961, Note_on_c, 0, 53, 72
2, 40056, Note_on_c, 0, 53, 0
2, 40081, Note_on_c, 0, 53, 54
2, 40108, Note_on_c, 0, 53, 0
2, 40112, Note_on_c, 0, 52, 34
2, 40133, Note_on_c, 0, 52, 0
2, 40142, Note_on_c, 0, 53, 60
2, 40254, Note_on_c, 0, 53, 0
2, 40262, Note_on_c, 0, 33, 84
2, 40263, Note_on_c, 0, 38, 0
2, 40275, Channel_aftertouch_c, 0, 1
2, 40276, Channel_aftertouch_c, 0, 4
2, 40278, Channel_aftertouch_c, 0, 1
2, 40279, Channel_aftertouch_c, 0, 0
2, 40313, Note_on_c, 0, 33, 0
2, 40321, Note_on_c, 0, 38, 74
2, 40321, Note_on_c, 0, 40, 67
2, 40334, Note_on_c, 0, 40, 0
2, 40382, Note_on_c, 0, 53, 53
2, 40404, Note_on_c, 0, 53, 0
2, 40412, Note_on_c, 0, 52, 50
2, 40429, Note_on_c, 0, 52, 0
2, 40441, Note_on_c, 0, 53, 60
2, 40538, Note_on_c, 0, 53, 0
2, 40560, Note_on_c, 0, 53, 60
2, 40586, Note_on_c, 0, 53, 0
2, 40590, Note_on_c, 0, 52, 54
2, 40610, Note_on_c, 0, 52, 0
2, 40618, Note_on_c, 0, 53, 61
2, 40720, Note_on_c, 0, 53, 0
2, 40735, Note_on_c, 0, 38, 0
2, 40741, Note_on_c, 0, 33, 79
2, 40750, Channel_aftertouch_c, 0, 4
2, 40751, Channel_aftertouch_c, 0, 8
2, 40752, Channel_aftertouch_c, 0, 12
2, 40752, Channel_aftertouch_c, 0, 16
2, 40753, Channel_aftertouch_c, 0, 20
2, 40754, Channel_aftertouch_c, 0, 24
2, 40755, Channel_aftertouch_c, 0, 21
2, 40755, Channel_aftertouch_c, 0, 17
2, 40756, Channel_aftertouch_c, 0, 13
2, 40757, Channel_aftertouch_c, 0, 9
2, 40758, Channel_aftertouch_c, 0, 5
2, 40758, Channel_aftertouch_c, 0, 1
2, 40759, Channel_aftertouch_c, 0, 0
2, 40799, Note_on_c, 0, 33, 0
2, 40800, Note_on_c, 0, 38, 79
2, 40861, Note_on_c, 0, 53, 54
2, 40889, Note_on_c, 0, 53, 0
2, 40889, Note_on_c, 0, 52, 39
2, 40916, Note_on_c, 0, 52, 0
2, 40921, Note_on_c, 0, 53, 64
2, 41015, Note_on_c, 0, 53, 0
2, 41041, Note_on_c, 0, 53, 63
2, 41071, Note_on_c, 0, 52, 54
2, 41074, Note_on_c, 0, 53, 0
2, 41094, Note_on_c, 0, 52, 0
2, 41101, Note_on_c, 0, 53, 64
2, 41183, Note_on_c, 0, 53, 0
2, 41221, Note_on_c, 0, 38, 0
2, 41222, Note_on_c, 0, 33, 79
2, 41231, Channel_aftertouch_c, 0, 3
2, 41231, Channel_aftertouch_c, 0, 7
2, 41232, Channel_aftertouch_c, 0, 11
2, 41233, Channel_aftertouch_c, 0, 15
2, 41234, Channel_aftertouch_c, 0, 19
2, 41234, Channel_aftertouch_c, 0, 23
2, 41235, Channel_aftertouch_c, 0, 27
2, 41236, Channel_aftertouch_c, 0, 23
2, 41236, Channel_aftertouch_c, 0, 19
2, 41237, Channel_aftertouch_c, 0, 15
2, 41238, Channel_aftertouch_c, 0, 11
2, 41239, Channel_aftertouch_c, 0, 7
2, 41240, Channel_aftertouch_c, 0, 3
2, 41240, Channel_aftertouch_c, 0, 0
2, 41281, Note_on_c, 0, 38, 84
2, 41284, Note_on_c, 0, 33, 0
2, 41288, Channel_aftertouch_c, 0, 4
2, 41288, Channel_aftertouch_c, 0, 8
2, 41289, Channel_aftertouch_c, 0, 12
2, 41289, Channel_aftertouch_c, 0, 16
2, 41290, Channel_aftertouch_c, 0, 20
2, 41291, Channel_aftertouch_c, 0, 24
2, 41292, Channel_aftertouch_c, 0, 21
2, 41293, Channel_aftertouch_c, 0, 17
2, 41293, Channel_aftertouch_c, 0, 13
2, 41294, Channel_aftertouch_c, 0, 9
2, 41295, Channel_aftertouch_c, 0, 5
2, 41296, Channel_aftertouch_c, 0, 1
2, 41296, Channel_aftertouch_c, 0, 0
2, 41342, Note_on_c, 0, 53, 61
2, 41367, Note_on_c, 0, 53, 0
2, 41372, Note_on_c, 0, 52, 64
2, 41390, Note_on_c, 0, 52, 0
2, 41402, Note_on_c, 0, 53, 72
2, 41497, Note_on_c, 0, 53, 0
2, 41522, Note_on_c, 0, 53, 59
2, 41550, Note_on_c, 0, 53, 0
2, 41551, Note_on_c, 0, 52, 56
2, 41569, Note_on_c, 0, 52, 0
2, 41581, Note_on_c, 0, 53, 69
2, 41673, Note_on_c, 0, 53, 0
2, 41697, Note_on_c, 0, 38, 0
2, 41701, Note_on_c, 0, 33, 74
2, 41757, Note_on_c, 0, 33, 0
2, 41760, Note_on_c, 0, 38, 75
2, 41821, Note_on_c, 0, 53, 52
2, 41850, Note_on_c, 0, 52, 56
2, 41857, Note_on_c, 0, 53, 0
2, 41869, Note_on_c, 0, 52, 0
2, 41880, Note_on_c, 0, 53, 65
2, 41970, Note_on_c, 0, 53, 0
2, 42001, Note_on_c, 0, 53, 62
2, 42030, Note_on_c, 0, 52, 58
2, 42036, Note_on_c, 0, 53, 0
2, 42053, Note_on_c, 0, 52, 0
2, 42062, Note_on_c, 0, 53, 72
2, 42173, Note_on_c, 0, 53, 0
2, 42173, Note_on_c, 0, 38, 0
2, 42179, Note_on_c, 0, 33, 67
2, 42237, Note_on_c, 0, 33, 0
2, 42239, Note_on_c, 0, 38, 87
2, 42243, Channel_aftertouch_c, 0, 4
2, 42243, Channel_aftertouch_c, 0, 8
2, 42244, Channel_aftertouch_c, 0, 12
2, 42245, Channel_aftertouch_c, 0, 16
2, 42246, Channel_aftertouch_c, 0, 20
2, 42246, Channel_aftertouch_c, 0, 24
2, 42247, Channel_aftertouch_c, 0, 20
2, 42248, Channel_aftertouch_c, 0, 16
2, 42249, Channel_aftertouch_c, 0, 12
2, 42249, Channel_aftertouch_c, 0, 8
2, 42250, Channel_aftertouch_c, 0, 4
2, 42251, Channel_aftertouch_c, 0, 0
2, 42300, Note_on_c, 0, 53, 54
2, 42328, Note_on_c, 0, 53, 0
2, 42331, Note_on_c, 0, 52, 67
2, 42351, Note_on_c, 0, 52, 0
2, 42361, Note_on_c, 0, 53, 79
2, 42433, Note_on_c, 0, 38, 0
2, 42451, Note_on_c, 0, 38, 64
2, 42465, Note_on_c, 0, 53, 0
2, 42471, Note_on_c, 0, 38, 0
2, 42478, Note_on_c, 0, 48, 65
2, 42478, Note_on_c, 0, 36, 72
2, 42585, Note_on_c, 0, 48, 0
2, 42590, Note_on_c, 0, 36, 0
2, 42598, Note_on_c, 0, 36, 67
2, 42599, Note_on_c, 0, 48, 79
2, 42699, Note_on_c, 0, 36, 0
2, 42719, Note_on_c, 0, 48, 0
2, 42721, Note_on_c, 0, 26, 74
2, 42721, Note_on_c, 0, 28, 65
2, 42723, Note_on_c, 0, 28, 0
2, 42795, Note_on_c, 0, 26, 0
2, 42813, Note_on_c, 0, 26, 79
2, 42838, Note_on_c, 0, 26, 0
2, 42839, Note_on_c, 0, 29, 94
2, 42890, Note_on_c, 0, 29, 0
2, 42902, Note_on_c, 0, 31, 100
2, 43187, Note_on_c, 0, 31, 0
2, 43198, Note_on_c, 0, 26, 100
2, 43289, Note_on_c, 0, 26, 0
2, 43295, Note_on_c, 0, 26, 79
2, 43321, Note_on_c, 0, 26, 0
2, 43322, Note_on_c, 0, 29, 79
2, 43365, Note_on_c, 0, 29, 0
2, 43382, Note_on_c, 0, 31, 87
2, 43665, Note_on_c, 0, 31, 0
2, 43673, Channel_aftertouch_c, 0, 0
2, 43673, Channel_aftertouch_c, 0, 4
2, 43677, Note_on_c, 0, 26, 100
2, 43767, Note_on_c, 0, 26, 0
2, 43774, Note_on_c, 0, 26, 72
2, 43798, Note_on_c, 0, 26, 0
2, 43801, Note_on_c, 0, 29, 84
2, 43850, Note_on_c, 0, 29, 0
2, 43862, Note_on_c, 0, 31, 87
2, 43863, Note_on_c, 0, 29, 58
2, 43870, Note_on_c, 0, 29, 0
2, 44154, Note_on_c, 0, 31, 0
2, 44159, Note_on_c, 0, 26, 94
2, 44238, Note_on_c, 0, 26, 0
2, 44253, Note_on_c, 0, 26, 74
2, 44280, Note_on_c, 0, 26, 0
2, 44282, Note_on_c, 0, 29, 87
2, 44325, Note_on_c, 0, 29, 0
2, 44342, Note_on_c, 0, 31, 110
2, 44513, Note_on_c, 0, 31, 0
2, 44552, Note_on_c, 0, 31, 72
2, 44578, Note_on_c, 0, 31, 0
2, 44581, Note_on_c, 0, 33, 79
2, 44633, Note_on_c, 0, 33, 0
2, 44641, Note_on_c, 0, 38, 74
2, 44643, Channel_aftertouch_c, 0, 1
2, 44644, Channel_aftertouch_c, 0, 0
2, 44645, Channel_aftertouch_c, 0, 1
2, 44646, Channel_aftertouch_c, 0, 5
2, 44646, Channel_aftertouch_c, 0, 9
2, 44647, Channel_aftertouch_c, 0, 7
2, 44648, Channel_aftertouch_c, 0, 3
2, 44649, Channel_aftertouch_c, 0, 0
2, 44702, Note_on_c, 0, 53, 46
2, 44732, Note_on_c, 0, 52, 54
2, 44735, Note_on_c, 0, 53, 0
2, 44755, Note_on_c, 0, 52, 0
2, 44762, Note_on_c, 0, 53, 65
2, 44854, Note_on_c, 0, 53, 0
2, 44881, Note_on_c, 0, 53, 61
2, 44911, Note_on_c, 0, 52, 54
2, 44912, Note_on_c, 0, 53, 0
2, 44940, Note_on_c, 0, 52, 0
2, 44941, Note_on_c, 0, 53, 61
2, 45058, Note_on_c, 0, 38, 0
2, 45061, Note_on_c, 0, 33, 79
2, 45063, Note_on_c, 0, 53, 0
2, 45120, Note_on_c, 0, 38, 69
2, 45121, Note_on_c, 0, 33, 0
2, 45181, Note_on_c, 0, 53, 51
2, 45209, Note_on_c, 0, 52, 51
2, 45211, Note_on_c, 0, 53, 0
2, 45241, Note_on_c, 0, 53, 54
2, 45242, Note_on_c, 0, 52, 0
2, 45331, Note_on_c, 0, 53, 0
2, 45361, Note_on_c, 0, 53, 50
2, 45391, Note_on_c, 0, 53, 0
2, 45392, Note_on_c, 0, 52, 29
2, 45414, Note_on_c, 0, 52, 0
2, 45421, Note_on_c, 0, 53, 54
2, 45536, Note_on_c, 0, 53, 0
2, 45537, Note_on_c, 0, 38, 0
2, 45541, Note_on_c, 0, 33, 63
2, 45541, Note_on_c, 0, 35, 65
2, 45562, Note_on_c, 0, 35, 0
2, 45599, Note_on_c, 0, 38, 79
2, 45601, Note_on_c, 0, 33, 0
2, 45660, Note_on_c, 0, 53, 55
2, 45690, Note_on_c, 0, 53, 0
2, 45690, Note_on_c, 0, 52, 54
2, 45716, Note_on_c, 0, 52, 0
2, 45721, Note_on_c, 0, 53, 79
2, 45813, Note_on_c, 0, 53, 0
2, 45839, Note_on_c, 0, 53, 59
2, 45870, Note_on_c, 0, 52, 54
2, 45876, Note_on_c, 0, 53, 0
2, 45895, Note_on_c, 0, 52, 0
2, 45899, Note_on_c, 0, 53, 58
2, 46010, Note_on_c, 0, 53, 0
2, 46014, Note_on_c, 0, 38, 0
2, 46021, Note_on_c, 0, 33, 69
2, 46081, Note_on_c, 0, 38, 72
2, 46083, Note_on_c, 0, 33, 0
2, 46141, Note_on_c, 0, 53, 52
2, 46170, Note_on_c, 0, 52, 51
2, 46172, Note_on_c, 0, 53, 0
2, 46192, Note_on_c, 0, 52, 0
2, 46200, Note_on_c, 0, 53, 65
2, 46289, Note_on_c, 0, 53, 0
2, 46321, Note_on_c, 0, 53, 51
2, 46349, Note_on_c, 0, 53, 0
2, 46350, Note_on_c, 0, 52, 57
2, 46369, Note_on_c, 0, 52, 0
2, 46380, Note_on_c, 0, 53, 65
2, 46498, Note_on_c, 0, 53, 0
2, 46498, Note_on_c, 0, 38, 0
2, 46501, Note_on_c, 0, 33, 69
2, 46561, Note_on_c, 0, 33, 0
2, 46561, Note_on_c, 0, 38, 72
2, 46622, Note_on_c, 0, 53, 49
2, 46652, Note_on_c, 0, 52, 52
2, 46655, Note_on_c, 0, 53, 0
2, 46668, Note_on_c, 0, 52, 0
2, 46681, Note_on_c, 0, 53, 60
2, 46769, Note_on_c, 0, 53, 0
2, 46798, Note_on_c, 0, 53, 57
2, 46826, Note_on_c, 0, 53, 0
2, 46829, Note_on_c, 0, 52, 53
2, 46848, Note_on_c, 0, 52, 0
2, 46859, Note_on_c, 0, 53, 65
2, 46979, Note_on_c, 0, 53, 0
2, 46982, Note_on_c, 0, 38, 0
2, 46982, Note_on_c, 0, 33, 75
2, 47012, Note_on_c, 0, 38, 84
2, 47017, Note_on_c, 0, 33, 0
2, 47021, Channel_aftertouch_c, 0, 4
2, 47022, Channel_aftertouch_c, 0, 8
2, 47023, Channel_aftertouch_c, 0, 12
2, 47023, Channel_aftertouch_c, 0, 16
2, 47024, Channel_aftertouch_c, 0, 20
2, 47025, Channel_aftertouch_c, 0, 22
2, 47025, Channel_aftertouch_c, 0, 18
2, 47026, Channel_aftertouch_c, 0, 14
2, 47027, Channel_aftertouch_c, 0, 10
2, 47028, Channel_aftertouch_c, 0, 6
2, 47028, Channel_aftertouch_c, 0, 2
2, 47029, Channel_aftertouch_c, 0, 0
2, 47101, Note_on_c, 0, 53, 58
2, 47129, Note_on_c, 0, 52, 53
2, 47131, Note_on_c, 0, 53, 0
2, 47150, Note_on_c, 0, 52, 0
2, 47159, Note_on_c, 0, 53, 60
2, 47254, Note_on_c, 0, 53, 0
2, 47281, Note_on_c, 0, 53, 54
2, 47310, Note_on_c, 0, 52, 47
2, 47312, Note_on_c, 0, 53, 0
2, 47329, Note_on_c, 0, 52, 0
2, 47341, Note_on_c, 0, 53, 63
2, 47436, Note_on_c, 0, 53, 0
2, 47456, Note_on_c, 0, 38, 0
2, 47461, Note_on_c, 0, 33, 74
2, 47491, Note_on_c, 0, 38, 79
2, 47497, Note_on_c, 0, 33, 0
2, 47497, Channel_aftertouch_c, 0, 1
2, 47499, Channel_aftertouch_c, 0, 0
2, 47581, Note_on_c, 0, 53, 55
2, 47609, Note_on_c, 0, 52, 53
2, 47611, Note_on_c, 0, 53, 0
2, 47630, Note_on_c, 0, 52, 0
2, 47639, Note_on_c, 0, 53, 67
2, 47724, Note_on_c, 0, 53, 0
2, 47760, Note_on_c, 0, 53, 57
2, 47789, Note_on_c, 0, 53, 0
2, 47791, Note_on_c, 0, 52, 49
2, 47810, Note_on_c, 0, 52, 0
2, 47821, Note_on_c, 0, 53, 65
2, 47928, Note_on_c, 0, 53, 0
2, 47936, Note_on_c, 0, 38, 0
2, 47941, Note_on_c, 0, 33, 65
2, 47971, Note_on_c, 0, 38, 75
2, 47977, Note_on_c, 0, 33, 0
2, 48062, Note_on_c, 0, 53, 49
2, 48091, Note_on_c, 0, 53, 0
2, 48091, Note_on_c, 0, 52, 52
2, 48115, Note_on_c, 0, 52, 0
2, 48121, Note_on_c, 0, 53, 56
2, 48181, Note_on_c, 0, 53, 0
2, 48239, Note_on_c, 0, 53, 59
2, 48267, Note_on_c, 0, 53, 0
2, 48271, Note_on_c, 0, 52, 59
2, 48292, Note_on_c, 0, 52, 0
2, 48300, Note_on_c, 0, 53, 59
2, 48415, Note_on_c, 0, 38, 0
2, 48418, Note_on_c, 0, 53, 0
2, 48419, Note_on_c, 0, 33, 75
2, 48476, Note_on_c, 0, 33, 0
2, 48479, Note_on_c, 0, 26, 72
2, 48480, Note_on_c, 0, 38, 74
2, 49438, Note_on_c, 0, 38, 0
2, 49438, Note_on_c, 0, 26, 0
2, 49438, End_track
3, 0, Start_track
3, 0, MIDI_port, 2
3, 0, Title_t, "Drums"
3, 0, Program_c, 9, 32
3, 0, Control_c, 9, 7, 65
3, 0, Control_c, 9, 10, 64
3, 120, Control_c, 9, 11, 127
3, 120, Control_c, 9, 91, 40
3, 120, Control_c, 9, 93, 40
3, 481, Note_on_c, 9, 36, 127
3, 482, Note_on_c, 9, 49, 124
3, 515, Note_on_c, 9, 36, 0
3, 541, Note_on_c, 9, 40, 110
3, 550, Note_on_c, 9, 40, 0
3, 571, Note_on_c, 9, 36, 127
3, 583, Note_on_c, 9, 36, 0
3, 601, Note_on_c, 9, 36, 127
3, 601, Note_on_c, 9, 59, 127
3, 602, Note_on_c, 9, 57, 124
3, 625, Note_on_c, 9, 59, 0
3, 628, Note_on_c, 9, 36, 0
3, 655, Note_on_c, 9, 57, 0
3, 661, Note_on_c, 9, 36, 127
3, 662, Note_on_c, 9, 59, 120
3, 662, Note_on_c, 9, 57, 120
3, 677, Note_on_c, 9, 36, 0
3, 685, Note_on_c, 9, 59, 0
3, 723, Note_on_c, 9, 40, 127
3, 740, Note_on_c, 9, 40, 0
3, 760, Note_on_c, 9, 48, 84
3, 771, Note_on_c, 9, 48, 0
3, 778, Note_on_c, 9, 47, 75
3, 787, Note_on_c, 9, 47, 0
3, 799, Note_on_c, 9, 48, 104
3, 820, Note_on_c, 9, 48, 0
3, 820, Note_on_c, 9, 43, 124
3, 836, Note_on_c, 9, 43, 0
3, 838, Note_on_c, 9, 45, 127
3, 852, Note_on_c, 9, 45, 0
3, 861, Note_on_c, 9, 41, 94
3, 869, Note_on_c, 9, 41, 0
3, 881, Note_on_c, 9, 43, 124
3, 897, Note_on_c, 9, 43, 0
3, 902, Note_on_c, 9, 40, 127
3, 917, Note_on_c, 9, 40, 0
3, 939, Note_on_c, 9, 40, 110
3, 945, Note_on_c, 9, 49, 0
3, 948, Note_on_c, 9, 40, 0
3, 961, Note_on_c, 9, 36, 127
3, 962, Note_on_c, 9, 51, 110
3, 962, Note_on_c, 9, 49, 124
3, 962, Note_on_c, 9, 50, 84
3, 965, Note_on_c, 9, 50, 0
3, 973, Note_on_c, 9, 51, 0
3, 1006, Note_on_c, 9, 36, 0
3, 1022, Note_on_c, 9, 40, 127
3, 1034, Note_on_c, 9, 40, 0
3, 1057, Note_on_c, 9, 40, 85
3, 1071, Note_on_c, 9, 40, 0
3, 1075, Note_on_c, 9, 49, 0
3, 1081, Note_on_c, 9, 49, 120
3, 1081, Note_on_c, 9, 51, 110
3, 1082, Note_on_c, 9, 36, 127
3, 1098, Note_on_c, 9, 51, 0
3, 1103, Note_on_c, 9, 36, 0
3, 1138, Note_on_c, 9, 49, 0
3, 1141, Note_on_c, 9, 36, 127
3, 1141, Note_on_c, 9, 51, 120
3, 1142, Note_on_c, 9, 49, 127
3, 1161, Note_on_c, 9, 51, 0
3, 1161, Note_on_c, 9, 36, 0
3, 1185, Note_on_c, 9, 57, 0
3, 1201, Note_on_c, 9, 40, 124
3, 1220, Note_on_c, 9, 40, 0
3, 1220, Note_on_c, 9, 53, 110
3, 1232, Note_on_c, 9, 53, 0
3, 1239, Note_on_c, 9, 40, 104
3, 1251, Note_on_c, 9, 40, 0
3, 1261, Note_on_c, 9, 53, 120
3, 1272, Note_on_c, 9, 53, 0
3, 1281, Note_on_c, 9, 47, 124
3, 1281, Note_on_c, 9, 48, 127
3, 1293, Note_on_c, 9, 48, 0
3, 1297, Note_on_c, 9, 47, 0
3, 1301, Note_on_c, 9, 53, 104
3, 1313, Note_on_c, 9, 53, 0
3, 1322, Note_on_c, 9, 43, 127
3, 1322, Note_on_c, 9, 41, 127
3, 1335, Note_on_c, 9, 41, 0
3, 1338, Note_on_c, 9, 43, 0
3, 1341, Note_on_c, 9, 51, 110
3, 1351, Note_on_c, 9, 51, 0
3, 1360, Note_on_c, 9, 41, 124
3, 1361, Note_on_c, 9, 40, 77
3, 1363, Note_on_c, 9, 40, 0
3, 1368, Note_on_c, 9, 41, 0
3, 1379, Note_on_c, 9, 41, 120
3, 1382, Note_on_c, 9, 51, 124
3, 1393, Note_on_c, 9, 41, 0
3, 1397, Note_on_c, 9, 51, 0
3, 1402, Note_on_c, 9, 41, 110
3, 1402, Note_on_c, 9, 40, 89
3, 1405, Note_on_c, 9, 40, 0
3, 1414, Note_on_c, 9, 41, 0
3, 1422, Note_on_c, 9, 41, 89
3, 1428, Note_on_c, 9, 49, 0
3, 1432, Note_on_c, 9, 41, 0
3, 1441, Note_on_c, 9, 38, 124
3, 1441, Note_on_c, 9, 51, 124
3, 1441, Note_on_c, 9, 36, 124
3, 1443, Note_on_c, 9, 49, 124
3, 1452, Note_on_c, 9, 51, 0
3, 1454, Note_on_c, 9, 36, 0
3, 1457, Note_on_c, 9, 38, 0
3, 1502, Note_on_c, 9, 40, 120
3, 1503, Note_on_c, 9, 41, 127
3, 1511, Note_on_c, 9, 41, 0
3, 1511, Note_on_c, 9, 40, 0
3, 1538, Note_on_c, 9, 40, 104
3, 1538, Note_on_c, 9, 41, 97
3, 1544, Note_on_c, 9, 41, 0
3, 1546, Note_on_c, 9, 40, 0
3, 1560, Note_on_c, 9, 59, 120
3, 1561, Note_on_c, 9, 57, 124
3, 1562, Note_on_c, 9, 36, 127
3, 1578, Note_on_c, 9, 59, 0
3, 1584, Note_on_c, 9, 36, 0
3, 1618, Note_on_c, 9, 57, 0
3, 1618, Note_on_c, 9, 36, 127
3, 1621, Note_on_c, 9, 59, 120
3, 1621, Note_on_c, 9, 57, 124
3, 1635, Note_on_c, 9, 36, 0
3, 1639, Note_on_c, 9, 59, 0
3, 1678, Note_on_c, 9, 57, 0
3, 1678, Note_on_c, 9, 36, 127
3, 1681, Note_on_c, 9, 57, 124
3, 1681, Note_on_c, 9, 59, 124
3, 1688, Note_on_c, 9, 36, 0
3, 1693, Note_on_c, 9, 59, 0
3, 1703, Note_on_c, 9, 40, 124
3, 1717, Note_on_c, 9, 40, 0
3, 1722, Note_on_c, 9, 48, 120
3, 1727, Note_on_c, 9, 47, 104
3, 1734, Note_on_c, 9, 45, 75
3, 1742, Note_on_c, 9, 48, 0
3, 1743, Note_on_c, 9, 47, 0
3, 1744, Note_on_c, 9, 43, 84
3, 1746, Note_on_c, 9, 43, 0
3, 1759, Note_on_c, 9, 45, 0
3, 1769, Note_on_c, 9, 48, 89
3, 1774, Note_on_c, 9, 47, 110
3, 1781, Note_on_c, 9, 45, 77
3, 1784, Note_on_c, 9, 48, 0
3, 1791, Note_on_c, 9, 47, 0
3, 1794, Note_on_c, 9, 45, 0
3, 1796, Note_on_c, 9, 43, 127
3, 1797, Note_on_c, 9, 41, 124
3, 1807, Note_on_c, 9, 41, 0
3, 1808, Note_on_c, 9, 43, 0
3, 1816, Note_on_c, 9, 45, 74
3, 1817, Note_on_c, 9, 47, 71
3, 1822, Note_on_c, 9, 43, 97
3, 1832, Note_on_c, 9, 47, 0
3, 1838, Note_on_c, 9, 45, 0
3, 1840, Note_on_c, 9, 43, 0
3, 1841, Note_on_c, 9, 40, 110
3, 1842, Note_on_c, 9, 41, 104
3, 1850, Note_on_c, 9, 41, 0
3, 1851, Note_on_c, 9, 40, 0
3, 1859, Note_on_c, 9, 43, 74
3, 1860, Note_on_c, 9, 45, 71
3, 1864, Note_on_c, 9, 41, 104
3, 1872, Note_on_c, 9, 40, 84
3, 1875, Note_on_c, 9, 45, 0
3, 1881, Note_on_c, 9, 43, 0
3, 1882, Note_on_c, 9, 41, 0
3, 1883, Note_on_c, 9, 40, 0
3, 1886, Note_on_c, 9, 40, 58
3, 1895, Note_on_c, 9, 40, 0
3, 1900, Note_on_c, 9, 41, 79
3, 1901, Note_on_c, 9, 43, 79
3, 1909, Note_on_c, 9, 40, 77
3, 1912, Note_on_c, 9, 43, 0
3, 1915, Note_on_c, 9, 49, 0
3, 1916, Note_on_c, 9, 40, 0
3, 1916, Note_on_c, 9, 41, 0
3, 1922, Note_on_c, 9, 36, 127
3, 1922, Note_on_c, 9, 51, 77
3, 1923, Note_on_c, 9, 49, 104
3, 1923, Note_on_c, 9, 50, 104
3, 1930, Note_on_c, 9, 51, 0
3, 1935, Note_on_c, 9, 50, 0
3, 1946, Note_on_c, 9, 36, 0
3, 1981, Note_on_c, 9, 40, 124
3, 1992, Note_on_c, 9, 40, 0
3, 2007, Note_on_c, 9, 38, 89
3, 2008, Note_on_c, 9, 40, 94
3, 2018, Note_on_c, 9, 40, 0
3, 2018, Note_on_c, 9, 38, 0
3, 2031, Note_on_c, 9, 49, 0
3, 2039, Note_on_c, 9, 49, 124
3, 2040, Note_on_c, 9, 51, 120
3, 2041, Note_on_c, 9, 36, 127
3, 2045, Note_on_c, 9, 57, 0
3, 2055, Note_on_c, 9, 51, 0
3, 2060, Note_on_c, 9, 36, 0
3, 2098, Note_on_c, 9, 49, 0
3, 2100, Note_on_c, 9, 36, 127
3, 2102, Note_on_c, 9, 49, 124
3, 2102, Note_on_c, 9, 51, 127
3, 2113, Note_on_c, 9, 36, 0
3, 2117, Note_on_c, 9, 51, 0
3, 2161, Note_on_c, 9, 40, 127
3, 2172, Note_on_c, 9, 40, 0
3, 2180, Note_on_c, 9, 40, 94
3, 2189, Note_on_c, 9, 40, 0
3, 2201, Note_on_c, 9, 40, 77
3, 2201, Note_on_c, 9, 38, 79
3, 2205, Note_on_c, 9, 38, 0
3, 2208, Note_on_c, 9, 40, 0
3, 2221, Note_on_c, 9, 48, 97
3, 2233, Note_on_c, 9, 48, 0
3, 2241, Note_on_c, 9, 45, 104
3, 2241, Note_on_c, 9, 47, 110
3, 2250, Note_on_c, 9, 47, 0
3, 2253, Note_on_c, 9, 45, 0
3, 2261, Note_on_c, 9, 47, 120
3, 2275, Note_on_c, 9, 47, 0
3, 2282, Note_on_c, 9, 40, 127
3, 2296, Note_on_c, 9, 40, 0
3, 2304, Note_on_c, 9, 41, 120
3, 2314, Note_on_c, 9, 41, 0
3, 2317, Note_on_c, 9, 40, 74
3, 2327, Note_on_c, 9, 40, 0
3, 2336, Note_on_c, 9, 40, 74
3, 2344, Note_on_c, 9, 40, 0
3, 2348, Note_on_c, 9, 40, 79
3, 2356, Note_on_c, 9, 40, 0
3, 2358, Note_on_c, 9, 40, 97
3, 2368, Note_on_c, 9, 40, 97
3, 2373, Note_on_c, 9, 40, 0
3, 2378, Note_on_c, 9, 40, 97
3, 2385, Note_on_c, 9, 40, 0
3, 2388, Note_on_c, 9, 40, 97
3, 2391, Note_on_c, 9, 49, 0
3, 2395, Note_on_c, 9, 40, 0
3, 2401, Note_on_c, 9, 36, 124
3, 2401, Note_on_c, 9, 51, 124
3, 2402, Note_on_c, 9, 49, 124
3, 2402, Note_on_c, 9, 50, 97
3, 2405, Note_on_c, 9, 40, 0
3, 2408, Note_on_c, 9, 51, 0
3, 2412, Note_on_c, 9, 50, 0
3, 2416, Note_on_c, 9, 36, 0
3, 2462, Note_on_c, 9, 42, 66
3, 2473, Note_on_c, 9, 42, 0
3, 2492, Note_on_c, 9, 42, 74
3, 2503, Note_on_c, 9, 42, 0
3, 2522, Note_on_c, 9, 40, 110
3, 2523, Note_on_c, 9, 42, 97
3, 2537, Note_on_c, 9, 42, 0
3, 2539, Note_on_c, 9, 40, 0
3, 2553, Note_on_c, 9, 42, 61
3, 2563, Note_on_c, 9, 42, 0
3, 2583, Note_on_c, 9, 42, 70
3, 2593, Note_on_c, 9, 42, 0
3, 2613, Note_on_c, 9, 36, 73
3, 2614, Note_on_c, 9, 42, 69
3, 2624, Note_on_c, 9, 36, 0
3, 2625, Note_on_c, 9, 42, 0
3, 2644, Note_on_c, 9, 42, 82
3, 2644, Note_on_c, 9, 36, 75
3, 2653, Note_on_c, 9, 36, 0
3, 2657, Note_on_c, 9, 42, 0
3, 2673, Note_on_c, 9, 42, 66
3, 2685, Note_on_c, 9, 42, 0
3, 2703, Note_on_c, 9, 36, 68
3, 2703, Note_on_c, 9, 42, 72
3, 2717, Note_on_c, 9, 42, 0
3, 2718, Note_on_c, 9, 36, 0
3, 2733, Note_on_c, 9, 42, 63
3, 2744, Note_on_c, 9, 42, 0
3, 2763, Note_on_c, 9, 40, 79
3, 2763, Note_on_c, 9, 42, 84
3, 2779, Note_on_c, 9, 42, 0
3, 2780, Note_on_c, 9, 40, 0
3, 2793, Note_on_c, 9, 42, 62
3, 2806, Note_on_c, 9, 42, 0
3, 2823, Note_on_c, 9, 42, 63
3, 2834, Note_on_c, 9, 42, 0
3, 2853, Note_on_c, 9, 42, 70
3, 2864, Note_on_c, 9, 42, 0
3, 2883, Note_on_c, 9, 42, 79
3, 2884, Note_on_c, 9, 36, 79
3, 2898, Note_on_c, 9, 42, 0
3, 2905, Note_on_c, 9, 36, 0
3, 2913, Note_on_c, 9, 42, 68
3, 2926, Note_on_c, 9, 42, 0
3, 2943, Note_on_c, 9, 42, 68
3, 2955, Note_on_c, 9, 42, 0
3, 2961, Note_on_c, 9, 49, 0
3, 2973, Note_on_c, 9, 42, 63
3, 2983, Note_on_c, 9, 42, 0
3, 3003, Note_on_c, 9, 42, 84
3, 3003, Note_on_c, 9, 40, 97
3, 3020, Note_on_c, 9, 42, 0
3, 3022, Note_on_c, 9, 40, 0
3, 3033, Note_on_c, 9, 42, 61
3, 3047, Note_on_c, 9, 42, 0
3, 3063, Note_on_c, 9, 42, 64
3, 3076, Note_on_c, 9, 42, 0
3, 3093, Note_on_c, 9, 42, 67
3, 3094, Note_on_c, 9, 36, 64
3, 3102, Note_on_c, 9, 36, 0
3, 3105, Note_on_c, 9, 42, 0
3, 3123, Note_on_c, 9, 42, 70
3, 3123, Note_on_c, 9, 36, 74
3, 3138, Note_on_c, 9, 42, 0
3, 3140, Note_on_c, 9, 36, 0
3, 3153, Note_on_c, 9, 42, 69
3, 3166, Note_on_c, 9, 42, 0
3, 3183, Note_on_c, 9, 36, 94
3, 3183, Note_on_c, 9, 42, 75
3, 3199, Note_on_c, 9, 42, 0
3, 3203, Note_on_c, 9, 36, 0
3, 3213, Note_on_c, 9, 42, 64
3, 3224, Note_on_c, 9, 42, 0
3, 3243, Note_on_c, 9, 40, 97
3, 3243, Note_on_c, 9, 42, 94
3, 3260, Note_on_c, 9, 42, 0
3, 3264, Note_on_c, 9, 40, 0
3, 3274, Note_on_c, 9, 42, 63
3, 3286, Note_on_c, 9, 42, 0
3, 3304, Note_on_c, 9, 42, 65
3, 3316, Note_on_c, 9, 42, 0
3, 3333, Note_on_c, 9, 42, 65
3, 3345, Note_on_c, 9, 42, 0
3, 3363, Note_on_c, 9, 36, 97
3, 3363, Note_on_c, 9, 42, 77
3, 3377, Note_on_c, 9, 42, 0
3, 3382, Note_on_c, 9, 36, 0
3, 3393, Note_on_c, 9, 42, 64
3, 3405, Note_on_c, 9, 42, 0
3, 3423, Note_on_c, 9, 42, 65
3, 3435, Note_on_c, 9, 42, 0
3, 3453, Note_on_c, 9, 42, 63
3, 3464, Note_on_c, 9, 42, 0
3, 3483, Note_on_c, 9, 42, 84
3, 3483, Note_on_c, 9, 40, 94
3, 3498, Note_on_c, 9, 42, 0
3, 3503, Note_on_c, 9, 40, 0
3, 3513, Note_on_c, 9, 42, 65
3, 3525, Note_on_c, 9, 42, 0
3, 3544, Note_on_c, 9, 42, 62
3, 3555, Note_on_c, 9, 42, 0
3, 3574, Note_on_c, 9, 42, 68
3, 3574, Note_on_c, 9, 36, 82
3, 3585, Note_on_c, 9, 36, 0
3, 3586, Note_on_c, 9, 42, 0
3, 3604, Note_on_c, 9, 42, 74
3, 3604, Note_on_c, 9, 36, 82
3, 3617, Note_on_c, 9, 42, 0
3, 3622, Note_on_c, 9, 36, 0
3, 3633, Note_on_c, 9, 42, 64
3, 3645, Note_on_c, 9, 42, 0
3, 3663, Note_on_c, 9, 42, 73
3, 3663, Note_on_c, 9, 36, 84
3, 3677, Note_on_c, 9, 42, 0
3, 3682, Note_on_c, 9, 36, 0
3, 3693, Note_on_c, 9, 42, 64
3, 3704, Note_on_c, 9, 42, 0
3, 3723, Note_on_c, 9, 40, 85
3, 3723, Note_on_c, 9, 42, 85
3, 3739, Note_on_c, 9, 42, 0
3, 3744, Note_on_c, 9, 40, 0
3, 3753, Note_on_c, 9, 42, 63
3, 3766, Note_on_c, 9, 42, 0
3, 3783, Note_on_c, 9, 42, 63
3, 3796, Note_on_c, 9, 42, 0
3, 3812, Note_on_c, 9, 42, 68
3, 3824, Note_on_c, 9, 42, 0
3, 3842, Note_on_c, 9, 36, 110
3, 3842, Note_on_c, 9, 42, 77
3, 3858, Note_on_c, 9, 42, 0
3, 3867, Note_on_c, 9, 36, 0
3, 3873, Note_on_c, 9, 42, 64
3, 3886, Note_on_c, 9, 42, 0
3, 3903, Note_on_c, 9, 42, 69
3, 3916, Note_on_c, 9, 42, 0
3, 3933, Note_on_c, 9, 42, 67
3, 3942, Note_on_c, 9, 42, 0
3, 3962, Note_on_c, 9, 40, 79
3, 3962, Note_on_c, 9, 42, 84
3, 3976, Note_on_c, 9, 42, 0
3, 3987, Note_on_c, 9, 40, 0
3, 3992, Note_on_c, 9, 42, 69
3, 4005, Note_on_c, 9, 42, 0
3, 4022, Note_on_c, 9, 42, 70
3, 4035, Note_on_c, 9, 42, 0
3, 4052, Note_on_c, 9, 36, 73
3, 4053, Note_on_c, 9, 42, 69
3, 4062, Note_on_c, 9, 36, 0
3, 4065, Note_on_c, 9, 42, 0
3, 4082, Note_on_c, 9, 36, 104
3, 4082, Note_on_c, 9, 42, 77
3, 4096, Note_on_c, 9, 42, 0
3, 4103, Note_on_c, 9, 36, 0
3, 4112, Note_on_c, 9, 42, 64
3, 4123, Note_on_c, 9, 42, 0
3, 4142, Note_on_c, 9, 36, 104
3, 4143, Note_on_c, 9, 42, 85
3, 4160, Note_on_c, 9, 42, 0
3, 4162, Note_on_c, 9, 36, 0
3, 4173, Note_on_c, 9, 42, 72
3, 4184, Note_on_c, 9, 42, 0
3, 4202, Note_on_c, 9, 40, 120
3, 4203, Note_on_c, 9, 42, 104
3, 4219, Note_on_c, 9, 42, 0
3, 4223, Note_on_c, 9, 40, 0
3, 4233, Note_on_c, 9, 42, 70
3, 4244, Note_on_c, 9, 42, 0
3, 4263, Note_on_c, 9, 36, 124
3, 4263, Note_on_c, 9, 42, 89
3, 4282, Note_on_c, 9, 42, 0
3, 4286, Note_on_c, 9, 36, 0
3, 4293, Note_on_c, 9, 46, 79
3, 4312, Note_on_c, 9, 46, 0
3, 4323, Note_on_c, 9, 36, 124
3, 4323, Note_on_c, 9, 42, 94
3, 4341, Note_on_c, 9, 42, 0
3, 4349, Note_on_c, 9, 36, 0
3, 4353, Note_on_c, 9, 42, 63
3, 4367, Note_on_c, 9, 42, 0
3, 4384, Note_on_c, 9, 42, 68
3, 4397, Note_on_c, 9, 42, 0
3, 4414, Note_on_c, 9, 42, 60
3, 4424, Note_on_c, 9, 42, 0
3, 4444, Note_on_c, 9, 40, 89
3, 4444, Note_on_c, 9, 42, 82
3, 4460, Note_on_c, 9, 42, 0
3, 4468, Note_on_c, 9, 40, 0
3, 4474, Note_on_c, 9, 42, 61
3, 4487, Note_on_c, 9, 42, 0
3, 4504, Note_on_c, 9, 42, 67
3, 4517, Note_on_c, 9, 42, 0
3, 4534, Note_on_c, 9, 36, 74
3, 4535, Note_on_c, 9, 42, 69
3, 4544, Note_on_c, 9, 36, 0
3, 4545, Note_on_c, 9, 42, 0
3, 4564, Note_on_c, 9, 36, 71
3, 4564, Note_on_c, 9, 42, 69
3, 4576, Note_on_c, 9, 42, 0
3, 4583, Note_on_c, 9, 36, 0
3, 4593, Note_on_c, 9, 42, 68
3, 4607, Note_on_c, 9, 42, 0
3, 4623, Note_on_c, 9, 42, 68
3, 4624, Note_on_c, 9, 36, 85
3, 4638, Note_on_c, 9, 42, 0
3, 4643, Note_on_c, 9, 36, 0
3, 4653, Note_on_c, 9, 42, 69
3, 4666, Note_on_c, 9, 42, 0
3, 4683, Note_on_c, 9, 40, 89
3, 4684, Note_on_c, 9, 42, 74
3, 4697, Note_on_c, 9, 42, 0
3, 4701, Note_on_c, 9, 40, 0
3, 4713, Note_on_c, 9, 42, 66
3, 4728, Note_on_c, 9, 42, 0
3, 4744, Note_on_c, 9, 42, 68
3, 4758, Note_on_c, 9, 42, 0
3, 4773, Note_on_c, 9, 42, 64
3, 4785, Note_on_c, 9, 42, 0
3, 4803, Note_on_c, 9, 36, 94
3, 4803, Note_on_c, 9, 42, 71
3, 4818, Note_on_c, 9, 42, 0
3, 4825, Note_on_c, 9, 36, 0
3, 4833, Note_on_c, 9, 42, 64
3, 4847, Note_on_c, 9, 42, 0
3, 4863, Note_on_c, 9, 42, 63
3, 4876, Note_on_c, 9, 42, 0
3, 4893, Note_on_c, 9, 42, 68
3, 4903, Note_on_c, 9, 42, 0
3, 4923, Note_on_c, 9, 42, 74
3, 4923, Note_on_c, 9, 40, 94
3, 4939, Note_on_c, 9, 42, 0
3, 4943, Note_on_c, 9, 40, 0
3, 4953, Note_on_c, 9, 42, 67
3, 4967, Note_on_c, 9, 42, 0
3, 4983, Note_on_c, 9, 42, 69
3, 4998, Note_on_c, 9, 42, 0
3, 5014, Note_on_c, 9, 42, 68
3, 5014, Note_on_c, 9, 36, 82
3, 5026, Note_on_c, 9, 36, 0
3, 5027, Note_on_c, 9, 42, 0
3, 5044, Note_on_c, 9, 36, 75
3, 5044, Note_on_c, 9, 42, 72
3, 5059, Note_on_c, 9, 42, 0
3, 5064, Note_on_c, 9, 36, 0
3, 5074, Note_on_c, 9, 42, 65
3, 5088, Note_on_c, 9, 42, 0
3, 5104, Note_on_c, 9, 42, 74
3, 5105, Note_on_c, 9, 36, 94
3, 5121, Note_on_c, 9, 42, 0
3, 5126, Note_on_c, 9, 36, 0
3, 5134, Note_on_c, 9, 42, 67
3, 5147, Note_on_c, 9, 42, 0
3, 5164, Note_on_c, 9, 40, 89
3, 5165, Note_on_c, 9, 42, 79
3, 5182, Note_on_c, 9, 42, 0
3, 5185, Note_on_c, 9, 40, 0
3, 5192, Note_on_c, 9, 42, 68
3, 5205, Note_on_c, 9, 42, 0
3, 5221, Note_on_c, 9, 42, 65
3, 5236, Note_on_c, 9, 42, 0
3, 5255, Note_on_c, 9, 42, 64
3, 5267, Note_on_c, 9, 42, 0
3, 5283, Note_on_c, 9, 36, 104
3, 5284, Note_on_c, 9, 42, 72
3, 5298, Note_on_c, 9, 42, 0
3, 5308, Note_on_c, 9, 36, 0
3, 5314, Note_on_c, 9, 42, 68
3, 5327, Note_on_c, 9, 42, 0
3, 5343, Note_on_c, 9, 42, 68
3, 5357, Note_on_c, 9, 42, 0
3, 5373, Note_on_c, 9, 42, 67
3, 5387, Note_on_c, 9, 42, 0
3, 5401, Note_on_c, 9, 40, 85
3, 5402, Note_on_c, 9, 42, 75
3, 5419, Note_on_c, 9, 42, 0
3, 5421, Note_on_c, 9, 40, 0
3, 5432, Note_on_c, 9, 42, 68
3, 5448, Note_on_c, 9, 42, 0
3, 5462, Note_on_c, 9, 42, 66
3, 5475, Note_on_c, 9, 42, 0
3, 5493, Note_on_c, 9, 42, 71
3, 5493, Note_on_c, 9, 36, 85
3, 5504, Note_on_c, 9, 36, 0
3, 5505, Note_on_c, 9, 42, 0
3, 5523, Note_on_c, 9, 42, 73
3, 5523, Note_on_c, 9, 36, 85
3, 5537, Note_on_c, 9, 42, 0
3, 5539, Note_on_c, 9, 36, 0
3, 5553, Note_on_c, 9, 42, 69
3, 5563, Note_on_c, 9, 42, 0
3, 5583, Note_on_c, 9, 36, 97
3, 5583, Note_on_c, 9, 42, 75
3, 5598, Note_on_c, 9, 36, 0
3, 5599, Note_on_c, 9, 42, 0
3, 5613, Note_on_c, 9, 42, 69
3, 5625, Note_on_c, 9, 42, 0
3, 5643, Note_on_c, 9, 42, 75
3, 5643, Note_on_c, 9, 40, 89
3, 5658, Note_on_c, 9, 42, 0
3, 5662, Note_on_c, 9, 40, 0
3, 5673, Note_on_c, 9, 42, 68
3, 5687, Note_on_c, 9, 42, 0
3, 5703, Note_on_c, 9, 42, 69
3, 5716, Note_on_c, 9, 42, 0
3, 5732, Note_on_c, 9, 42, 69
3, 5745, Note_on_c, 9, 42, 0
3, 5762, Note_on_c, 9, 36, 94
3, 5762, Note_on_c, 9, 42, 74
3, 5777, Note_on_c, 9, 42, 0
3, 5781, Note_on_c, 9, 36, 0
3, 5793, Note_on_c, 9, 42, 70
3, 5806, Note_on_c, 9, 42, 0
3, 5822, Note_on_c, 9, 42, 67
3, 5835, Note_on_c, 9, 42, 0
3, 5852, Note_on_c, 9, 42, 67
3, 5864, Note_on_c, 9, 42, 0
3, 5882, Note_on_c, 9, 40, 97
3, 5882, Note_on_c, 9, 42, 79
3, 5899, Note_on_c, 9, 42, 0
3, 5902, Note_on_c, 9, 40, 0
3, 5912, Note_on_c, 9, 42, 64
3, 5925, Note_on_c, 9, 42, 0
3, 5942, Note_on_c, 9, 42, 67
3, 5956, Note_on_c, 9, 42, 0
3, 5972, Note_on_c, 9, 42, 67
3, 5973, Note_on_c, 9, 36, 73
3, 5983, Note_on_c, 9, 36, 0
3, 5985, Note_on_c, 9, 42, 0
3, 6003, Note_on_c, 9, 36, 84
3, 6003, Note_on_c, 9, 42, 71
3, 6017, Note_on_c, 9, 42, 0
3, 6027, Note_on_c, 9, 36, 0
3, 6032, Note_on_c, 9, 42, 69
3, 6045, Note_on_c, 9, 42, 0
3, 6062, Note_on_c, 9, 42, 69
3, 6063, Note_on_c, 9, 36, 97
3, 6077, Note_on_c, 9, 42, 0
3, 6079, Note_on_c, 9, 36, 0
3, 6092, Note_on_c, 9, 42, 66
3, 6105, Note_on_c, 9, 42, 0
3, 6123, Note_on_c, 9, 40, 89
3, 6123, Note_on_c, 9, 42, 82
3, 6139, Note_on_c, 9, 40, 0
3, 6141, Note_on_c, 9, 42, 0
3, 6153, Note_on_c, 9, 42, 69
3, 6166, Note_on_c, 9, 42, 0
3, 6183, Note_on_c, 9, 42, 68
3, 6197, Note_on_c, 9, 42, 0
3, 6213, Note_on_c, 9, 42, 68
3, 6225, Note_on_c, 9, 42, 0
3, 6242, Note_on_c, 9, 42, 70
3, 6242, Note_on_c, 9, 36, 85
3, 6258, Note_on_c, 9, 42, 0
3, 6259, Note_on_c, 9, 36, 0
3, 6272, Note_on_c, 9, 42, 68
3, 6287, Note_on_c, 9, 42, 0
3, 6302, Note_on_c, 9, 42, 69
3, 6316, Note_on_c, 9, 42, 0
3, 6333, Note_on_c, 9, 42, 69
3, 6344, Note_on_c, 9, 42, 0
3, 6362, Note_on_c, 9, 40, 94
3, 6362, Note_on_c, 9, 42, 74
3, 6379, Note_on_c, 9, 42, 0
3, 6382, Note_on_c, 9, 40, 0
3, 6393, Note_on_c, 9, 42, 68
3, 6407, Note_on_c, 9, 42, 0
3, 6423, Note_on_c, 9, 42, 64
3, 6438, Note_on_c, 9, 42, 0
3, 6453, Note_on_c, 9, 36, 77
3, 6454, Note_on_c, 9, 42, 70
3, 6464, Note_on_c, 9, 36, 0
3, 6465, Note_on_c, 9, 42, 0
3, 6483, Note_on_c, 9, 42, 69
3, 6483, Note_on_c, 9, 36, 82
3, 6497, Note_on_c, 9, 42, 0
3, 6500, Note_on_c, 9, 36, 0
3, 6513, Note_on_c, 9, 42, 69
3, 6527, Note_on_c, 9, 42, 0
3, 6543, Note_on_c, 9, 42, 69
3, 6543, Note_on_c, 9, 36, 89
3, 6558, Note_on_c, 9, 42, 0
3, 6559, Note_on_c, 9, 36, 0
3, 6572, Note_on_c, 9, 42, 68
3, 6586, Note_on_c, 9, 42, 0
3, 6603, Note_on_c, 9, 40, 89
3, 6603, Note_on_c, 9, 42, 79
3, 6621, Note_on_c, 9, 42, 0
3, 6621, Note_on_c, 9, 40, 0
3, 6633, Note_on_c, 9, 42, 66
3, 6649, Note_on_c, 9, 42, 0
3, 6663, Note_on_c, 9, 42, 64
3, 6679, Note_on_c, 9, 42, 0
3, 6692, Note_on_c, 9, 42, 61
3, 6705, Note_on_c, 9, 42, 0
3, 6722, Note_on_c, 9, 36, 84
3, 6722, Note_on_c, 9, 42, 70
3, 6739, Note_on_c, 9, 42, 0
3, 6744, Note_on_c, 9, 36, 0
3, 6752, Note_on_c, 9, 42, 69
3, 6766, Note_on_c, 9, 42, 0
3, 6782, Note_on_c, 9, 42, 68
3, 6795, Note_on_c, 9, 42, 0
3, 6811, Note_on_c, 9, 42, 69
3, 6823, Note_on_c, 9, 42, 0
3, 6841, Note_on_c, 9, 40, 120
3, 6841, Note_on_c, 9, 42, 79
3, 6857, Note_on_c, 9, 42, 0
3, 6860, Note_on_c, 9, 40, 0
3, 6871, Note_on_c, 9, 42, 69
3, 6884, Note_on_c, 9, 42, 0
3, 6901, Note_on_c, 9, 42, 70
3, 6914, Note_on_c, 9, 42, 0
3, 6932, Note_on_c, 9, 36, 89
3, 6933, Note_on_c, 9, 42, 73
3, 6941, Note_on_c, 9, 36, 0
3, 6942, Note_on_c, 9, 42, 0
3, 6961, Note_on_c, 9, 36, 124
3, 6961, Note_on_c, 9, 42, 89
3, 6975, Note_on_c, 9, 42, 0
3, 6980, Note_on_c, 9, 36, 0
3, 6992, Note_on_c, 9, 42, 77
3, 7001, Note_on_c, 9, 42, 0
3, 7022, Note_on_c, 9, 40, 120
3, 7022, Note_on_c, 9, 46, 110
3, 7038, Note_on_c, 9, 46, 0
3, 7042, Note_on_c, 9, 40, 0
3, 7082, Note_on_c, 9, 40, 120
3, 7083, Note_on_c, 9, 49, 124
3, 7083, Note_on_c, 9, 41, 127
3, 7084, Note_on_c, 9, 51, 110
3, 7092, Note_on_c, 9, 51, 0
3, 7092, Note_on_c, 9, 49, 0
3, 7094, Note_on_c, 9, 40, 0
3, 7097, Note_on_c, 9, 41, 0
3, 7129, Note_on_c, 9, 45, 120
3, 7130, Note_on_c, 9, 47, 124
3, 7142, Note_on_c, 9, 45, 0
3, 7145, Note_on_c, 9, 47, 0
3, 7149, Note_on_c, 9, 48, 104
3, 7160, Note_on_c, 9, 48, 0
3, 7170, Note_on_c, 9, 43, 110
3, 7171, Note_on_c, 9, 45, 120
3, 7180, Note_on_c, 9, 43, 0
3, 7181, Note_on_c, 9, 45, 0
3, 7186, Note_on_c, 9, 48, 77
3, 7191, Note_on_c, 9, 48, 0
3, 7201, Note_on_c, 9, 36, 127
3, 7202, Note_on_c, 9, 59, 124
3, 7202, Note_on_c, 9, 57, 127
3, 7220, Note_on_c, 9, 59, 0
3, 7228, Note_on_c, 9, 36, 0
3, 7261, Note_on_c, 9, 40, 120
3, 7262, Note_on_c, 9, 41, 127
3, 7271, Note_on_c, 9, 41, 0
3, 7271, Note_on_c, 9, 40, 0
3, 7288, Note_on_c, 9, 40, 77
3, 7292, Note_on_c, 9, 41, 79
3, 7298, Note_on_c, 9, 40, 0
3, 7300, Note_on_c, 9, 41, 0
3, 7316, Note_on_c, 9, 57, 0
3, 7321, Note_on_c, 9, 59, 120
3, 7323, Note_on_c, 9, 36, 127
3, 7323, Note_on_c, 9, 57, 127
3, 7337, Note_on_c, 9, 59, 0
3, 7348, Note_on_c, 9, 36, 0
3, 7422, Note_on_c, 9, 40, 124
3, 7428, Note_on_c, 9, 40, 0
3, 7435, Note_on_c, 9, 40, 104
3, 7444, Note_on_c, 9, 40, 0
3, 7456, Note_on_c, 9, 40, 127
3, 7457, Note_on_c, 9, 38, 82
3, 7460, Note_on_c, 9, 38, 0
3, 7474, Note_on_c, 9, 40, 0
3, 7487, Note_on_c, 9, 48, 79
3, 7493, Note_on_c, 9, 48, 0
3, 7508, Note_on_c, 9, 48, 97
3, 7509, Note_on_c, 9, 47, 89
3, 7516, Note_on_c, 9, 47, 0
3, 7517, Note_on_c, 9, 48, 0
3, 7527, Note_on_c, 9, 50, 110
3, 7528, Note_on_c, 9, 48, 77
3, 7536, Note_on_c, 9, 48, 0
3, 7536, Note_on_c, 9, 50, 0
3, 7544, Note_on_c, 9, 45, 120
3, 7544, Note_on_c, 9, 47, 127
3, 7555, Note_on_c, 9, 47, 0
3, 7557, Note_on_c, 9, 45, 0
3, 7566, Note_on_c, 9, 47, 127
3, 7579, Note_on_c, 9, 47, 0
3, 7586, Note_on_c, 9, 41, 124
3, 7595, Note_on_c, 9, 41, 0
3, 7605, Note_on_c, 9, 40, 94
3, 7606, Note_on_c, 9, 41, 82
3, 7608, Note_on_c, 9, 41, 0
3, 7618, Note_on_c, 9, 40, 0
3, 7626, Note_on_c, 9, 40, 127
3, 7638, Note_on_c, 9, 40, 0
3, 7646, Note_on_c, 9, 40, 110
3, 7658, Note_on_c, 9, 40, 0
3, 7662, Note_on_c, 9, 40, 127
3, 7664, Note_on_c, 9, 38, 79
3, 7666, Note_on_c, 9, 38, 0
3, 7671, Note_on_c, 9, 40, 0
3, 7681, Note_on_c, 9, 49, 124
3, 7682, Note_on_c, 9, 51, 124
3, 7682, Note_on_c, 9, 36, 127
3, 7685, Note_on_c, 9, 57, 0
3, 7695, Note_on_c, 9, 51, 0
3, 7699, Note_on_c, 9, 36, 0
3, 7740, Note_on_c, 9, 40, 124
3, 7752, Note_on_c, 9, 40, 0
3, 7798, Note_on_c, 9, 49, 0
3, 7803, Note_on_c, 9, 36, 127
3, 7803, Note_on_c, 9, 51, 120
3, 7804, Note_on_c, 9, 49, 120
3, 7816, Note_on_c, 9, 51, 0
3, 7821, Note_on_c, 9, 36, 0
3, 7858, Note_on_c, 9, 49, 0
3, 7861, Note_on_c, 9, 49, 120
3, 7861, Note_on_c, 9, 36, 127
3, 7861, Note_on_c, 9, 51, 120
3, 7871, Note_on_c, 9, 51, 0
3, 7873, Note_on_c, 9, 36, 0
3, 7911, Note_on_c, 9, 49, 0
3, 7920, Note_on_c, 9, 49, 124
3, 7921, Note_on_c, 9, 51, 120
3, 7925, Note_on_c, 9, 36, 127
3, 7933, Note_on_c, 9, 51, 0
3, 7936, Note_on_c, 9, 36, 0
3, 7977, Note_on_c, 9, 40, 110
3, 7977, Note_on_c, 9, 38, 97
3, 7982, Note_on_c, 9, 38, 0
3, 7982, Note_on_c, 9, 47, 110
3, 7990, Note_on_c, 9, 40, 0
3, 7994, Note_on_c, 9, 47, 0
3, 8000, Note_on_c, 9, 45, 127
3, 8016, Note_on_c, 9, 45, 0
3, 8021, Note_on_c, 9, 48, 124
3, 8038, Note_on_c, 9, 48, 0
3, 8041, Note_on_c, 9, 48, 124
3, 8054, Note_on_c, 9, 48, 0
3, 8054, Note_on_c, 9, 47, 110
3, 8067, Note_on_c, 9, 47, 0
3, 8070, Note_on_c, 9, 48, 110
3, 8084, Note_on_c, 9, 45, 97
3, 8085, Note_on_c, 9, 48, 0
3, 8092, Note_on_c, 9, 45, 0
3, 8102, Note_on_c, 9, 45, 94
3, 8102, Note_on_c, 9, 43, 104
3, 8108, Note_on_c, 9, 45, 0
3, 8113, Note_on_c, 9, 43, 0
3, 8114, Note_on_c, 9, 41, 120
3, 8123, Note_on_c, 9, 41, 0
3, 8130, Note_on_c, 9, 40, 97
3, 8134, Note_on_c, 9, 40, 0
3, 8148, Note_on_c, 9, 49, 0
3, 8148, Note_on_c, 9, 41, 124
3, 8149, Note_on_c, 9, 40, 110
3, 8158, Note_on_c, 9, 40, 0
3, 8159, Note_on_c, 9, 41, 0
3, 8162, Note_on_c, 9, 51, 110
3, 8163, Note_on_c, 9, 49, 124
3, 8164, Note_on_c, 9, 36, 127
3, 8173, Note_on_c, 9, 49, 0
3, 8174, Note_on_c, 9, 51, 0
3, 8183, Note_on_c, 9, 36, 0
3, 8223, Note_on_c, 9, 42, 79
3, 8234, Note_on_c, 9, 42, 0
3, 8253, Note_on_c, 9, 42, 69
3, 8263, Note_on_c, 9, 42, 0
3, 8283, Note_on_c, 9, 40, 104
3, 8283, Note_on_c, 9, 42, 104
3, 8299, Note_on_c, 9, 42, 0
3, 8300, Note_on_c, 9, 40, 0
3, 8313, Note_on_c, 9, 42, 68
3, 8326, Note_on_c, 9, 42, 0
3, 8343, Note_on_c, 9, 42, 67
3, 8354, Note_on_c, 9, 42, 0
3, 8372, Note_on_c, 9, 36, 68
3, 8373, Note_on_c, 9, 42, 72
3, 8383, Note_on_c, 9, 42, 0
3, 8383, Note_on_c, 9, 36, 0
3, 8402, Note_on_c, 9, 36, 82
3, 8403, Note_on_c, 9, 42, 84
3, 8415, Note_on_c, 9, 36, 0
3, 8417, Note_on_c, 9, 42, 0
3, 8432, Note_on_c, 9, 42, 68
3, 8443, Note_on_c, 9, 42, 0
3, 8462, Note_on_c, 9, 36, 84
3, 8463, Note_on_c, 9, 42, 77
3, 8478, Note_on_c, 9, 42, 0
3, 8479, Note_on_c, 9, 36, 0
3, 8492, Note_on_c, 9, 42, 63
3, 8504, Note_on_c, 9, 42, 0
3, 8522, Note_on_c, 9, 40, 85
3, 8523, Note_on_c, 9, 42, 85
3, 8536, Note_on_c, 9, 40, 0
3, 8539, Note_on_c, 9, 42, 0
3, 8553, Note_on_c, 9, 42, 68
3, 8566, Note_on_c, 9, 42, 0
3, 8583, Note_on_c, 9, 42, 70
3, 8597, Note_on_c, 9, 42, 0
3, 8612, Note_on_c, 9, 42, 68
3, 8624, Note_on_c, 9, 42, 0
3, 8642, Note_on_c, 9, 42, 75
3, 8642, Note_on_c, 9, 36, 77
3, 8657, Note_on_c, 9, 36, 0
3, 8657, Note_on_c, 9, 42, 0
3, 8672, Note_on_c, 9, 42, 69
3, 8686, Note_on_c, 9, 42, 0
3, 8702, Note_on_c, 9, 42, 69
3, 8715, Note_on_c, 9, 42, 0
3, 8731, Note_on_c, 9, 42, 68
3, 8743, Note_on_c, 9, 42, 0
3, 8761, Note_on_c, 9, 40, 104
3, 8761, Note_on_c, 9, 42, 85
3, 8776, Note_on_c, 9, 42, 0
3, 8779, Note_on_c, 9, 40, 0
3, 8792, Note_on_c, 9, 42, 70
3, 8806, Note_on_c, 9, 42, 0
3, 8822, Note_on_c, 9, 42, 68
3, 8836, Note_on_c, 9, 42, 0
3, 8853, Note_on_c, 9, 42, 70
3, 8853, Note_on_c, 9, 36, 74
3, 8862, Note_on_c, 9, 36, 0
3, 8864, Note_on_c, 9, 42, 0
3, 8883, Note_on_c, 9, 42, 77
3, 8883, Note_on_c, 9, 36, 82
3, 8896, Note_on_c, 9, 42, 0
3, 8899, Note_on_c, 9, 36, 0
3, 8913, Note_on_c, 9, 42, 70
3, 8926, Note_on_c, 9, 42, 0
3, 8943, Note_on_c, 9, 42, 73
3, 8943, Note_on_c, 9, 36, 97
3, 8957, Note_on_c, 9, 42, 0
3, 8960, Note_on_c, 9, 36, 0
3, 8973, Note_on_c, 9, 42, 69
3, 8985, Note_on_c, 9, 42, 0
3, 9003, Note_on_c, 9, 40, 89
3, 9003, Note_on_c, 9, 42, 85
3, 9018, Note_on_c, 9, 40, 0
3, 9020, Note_on_c, 9, 42, 0
3, 9034, Note_on_c, 9, 42, 68
3, 9048, Note_on_c, 9, 42, 0
3, 9064, Note_on_c, 9, 42, 70
3, 9077, Note_on_c, 9, 42, 0
3, 9093, Note_on_c, 9, 42, 64
3, 9106, Note_on_c, 9, 42, 0
3, 9122, Note_on_c, 9, 36, 94
3, 9123, Note_on_c, 9, 42, 75
3, 9139, Note_on_c, 9, 42, 0
3, 9141, Note_on_c, 9, 36, 0
3, 9153, Note_on_c, 9, 42, 68
3, 9168, Note_on_c, 9, 42, 0
3, 9183, Note_on_c, 9, 42, 69
3, 9197, Note_on_c, 9, 42, 0
3, 9213, Note_on_c, 9, 42, 68
3, 9223, Note_on_c, 9, 42, 0
3, 9242, Note_on_c, 9, 42, 77
3, 9243, Note_on_c, 9, 40, 110
3, 9256, Note_on_c, 9, 42, 0
3, 9260, Note_on_c, 9, 40, 0
3, 9272, Note_on_c, 9, 42, 68
3, 9286, Note_on_c, 9, 42, 0
3, 9302, Note_on_c, 9, 42, 70
3, 9316, Note_on_c, 9, 42, 0
3, 9332, Note_on_c, 9, 36, 72
3, 9332, Note_on_c, 9, 42, 69
3, 9343, Note_on_c, 9, 42, 0
3, 9343, Note_on_c, 9, 36, 0
3, 9362, Note_on_c, 9, 42, 84
3, 9363, Note_on_c, 9, 36, 89
3, 9377, Note_on_c, 9, 42, 0
3, 9384, Note_on_c, 9, 36, 0
3, 9392, Note_on_c, 9, 42, 68
3, 9406, Note_on_c, 9, 42, 0
3, 9423, Note_on_c, 9, 36, 94
3, 9423, Note_on_c, 9, 42, 82
3, 9439, Note_on_c, 9, 42, 0
3, 9443, Note_on_c, 9, 36, 0
3, 9453, Note_on_c, 9, 42, 66
3, 9466, Note_on_c, 9, 42, 0
3, 9483, Note_on_c, 9, 40, 84
3, 9483, Note_on_c, 9, 42, 84
3, 9500, Note_on_c, 9, 42, 0
3, 9503, Note_on_c, 9, 40, 0
3, 9513, Note_on_c, 9, 42, 68
3, 9526, Note_on_c, 9, 42, 0
3, 9543, Note_on_c, 9, 42, 69
3, 9560, Note_on_c, 9, 42, 0
3, 9573, Note_on_c, 9, 42, 68
3, 9585, Note_on_c, 9, 42, 0
3, 9602, Note_on_c, 9, 36, 94
3, 9603, Note_on_c, 9, 42, 75
3, 9619, Note_on_c, 9, 42, 0
3, 9621, Note_on_c, 9, 36, 0
3, 9633, Note_on_c, 9, 42, 69
3, 9647, Note_on_c, 9, 42, 0
3, 9662, Note_on_c, 9, 42, 69
3, 9675, Note_on_c, 9, 42, 0
3, 9692, Note_on_c, 9, 42, 68
3, 9702, Note_on_c, 9, 42, 0
3, 9721, Note_on_c, 9, 40, 104
3, 9722, Note_on_c, 9, 42, 84
3, 9736, Note_on_c, 9, 42, 0
3, 9740, Note_on_c, 9, 40, 0
3, 9752, Note_on_c, 9, 42, 69
3, 9765, Note_on_c, 9, 42, 0
3, 9781, Note_on_c, 9, 42, 68
3, 9795, Note_on_c, 9, 42, 0
3, 9812, Note_on_c, 9, 42, 74
3, 9812, Note_on_c, 9, 36, 74
3, 9821, Note_on_c, 9, 36, 0
3, 9824, Note_on_c, 9, 42, 0
3, 9842, Note_on_c, 9, 42, 77
3, 9842, Note_on_c, 9, 36, 104
3, 9857, Note_on_c, 9, 42, 0
3, 9860, Note_on_c, 9, 36, 0
3, 9872, Note_on_c, 9, 42, 71
3, 9885, Note_on_c, 9, 42, 0
3, 9902, Note_on_c, 9, 36, 97
3, 9903, Note_on_c, 9, 42, 77
3, 9919, Note_on_c, 9, 42, 0
3, 9921, Note_on_c, 9, 36, 0
3, 9933, Note_on_c, 9, 42, 69
3, 9946, Note_on_c, 9, 42, 0
3, 9963, Note_on_c, 9, 40, 94
3, 9963, Note_on_c, 9, 42, 84
3, 9979, Note_on_c, 9, 42, 0
3, 9981, Note_on_c, 9, 40, 0
3, 9994, Note_on_c, 9, 42, 70
3, 10008, Note_on_c, 9, 42, 0
3, 10023, Note_on_c, 9, 42, 69
3, 10037, Note_on_c, 9, 42, 0
3, 10053, Note_on_c, 9, 42, 69
3, 10066, Note_on_c, 9, 42, 0
3, 10082, Note_on_c, 9, 36, 110
3, 10082, Note_on_c, 9, 42, 82
3, 10098, Note_on_c, 9, 42, 0
3, 10107, Note_on_c, 9, 36, 0
3, 10113, Note_on_c, 9, 42, 70
3, 10126, Note_on_c, 9, 42, 0
3, 10143, Note_on_c, 9, 42, 70
3, 10156, Note_on_c, 9, 42, 0
3, 10173, Note_on_c, 9, 42, 70
3, 10184, Note_on_c, 9, 42, 0
3, 10202, Note_on_c, 9, 40, 104
3, 10202, Note_on_c, 9, 42, 77
3, 10217, Note_on_c, 9, 42, 0
3, 10221, Note_on_c, 9, 40, 0
3, 10233, Note_on_c, 9, 42, 73
3, 10247, Note_on_c, 9, 42, 0
3, 10262, Note_on_c, 9, 42, 68
3, 10276, Note_on_c, 9, 42, 0
3, 10293, Note_on_c, 9, 42, 72
3, 10293, Note_on_c, 9, 36, 82
3, 10302, Note_on_c, 9, 36, 0
3, 10304, Note_on_c, 9, 42, 0
3, 10322, Note_on_c, 9, 36, 97
3, 10323, Note_on_c, 9, 42, 79
3, 10338, Note_on_c, 9, 42, 0
3, 10342, Note_on_c, 9, 36, 0
3, 10352, Note_on_c, 9, 42, 70
3, 10368, Note_on_c, 9, 42, 0
3, 10382, Note_on_c, 9, 36, 94
3, 10383, Note_on_c, 9, 42, 77
3, 10399, Note_on_c, 9, 42, 0
3, 10400, Note_on_c, 9, 36, 0
3, 10413, Note_on_c, 9, 42, 70
3, 10425, Note_on_c, 9, 42, 0
3, 10442, Note_on_c, 9, 40, 85
3, 10443, Note_on_c, 9, 42, 82
3, 10460, Note_on_c, 9, 42, 0
3, 10463, Note_on_c, 9, 40, 0
3, 10473, Note_on_c, 9, 42, 69
3, 10486, Note_on_c, 9, 42, 0
3, 10503, Note_on_c, 9, 42, 69
3, 10516, Note_on_c, 9, 42, 0
3, 10532, Note_on_c, 9, 42, 68
3, 10544, Note_on_c, 9, 42, 0
3, 10562, Note_on_c, 9, 36, 110
3, 10563, Note_on_c, 9, 42, 79
3, 10579, Note_on_c, 9, 42, 0
3, 10583, Note_on_c, 9, 36, 0
3, 10593, Note_on_c, 9, 42, 70
3, 10607, Note_on_c, 9, 42, 0
3, 10623, Note_on_c, 9, 42, 69
3, 10635, Note_on_c, 9, 42, 0
3, 10653, Note_on_c, 9, 42, 68
3, 10663, Note_on_c, 9, 42, 0
3, 10682, Note_on_c, 9, 42, 82
3, 10683, Note_on_c, 9, 40, 104
3, 10696, Note_on_c, 9, 42, 0
3, 10703, Note_on_c, 9, 40, 0
3, 10713, Note_on_c, 9, 42, 72
3, 10725, Note_on_c, 9, 42, 0
3, 10743, Note_on_c, 9, 42, 72
3, 10755, Note_on_c, 9, 42, 0
3, 10773, Note_on_c, 9, 42, 75
3, 10773, Note_on_c, 9, 36, 89
3, 10783, Note_on_c, 9, 36, 0
3, 10785, Note_on_c, 9, 42, 0
3, 10802, Note_on_c, 9, 36, 79
3, 10804, Note_on_c, 9, 42, 94
3, 10811, Note_on_c, 9, 36, 0
3, 10817, Note_on_c, 9, 42, 0
3, 10837, Note_on_c, 9, 49, 120
3, 10840, Note_on_c, 9, 40, 127
3, 10856, Note_on_c, 9, 40, 0
3, 10856, Note_on_c, 9, 49, 0
3, 10863, Note_on_c, 9, 36, 120
3, 10884, Note_on_c, 9, 36, 0
3, 10894, Note_on_c, 9, 42, 97
3, 10905, Note_on_c, 9, 42, 0
3, 10926, Note_on_c, 9, 40, 127
3, 10929, Note_on_c, 9, 49, 120
3, 10942, Note_on_c, 9, 40, 0
3, 10945, Note_on_c, 9, 49, 0
3, 10958, Note_on_c, 9, 45, 104
3, 10959, Note_on_c, 9, 43, 94
3, 10962, Note_on_c, 9, 43, 0
3, 10967, Note_on_c, 9, 45, 0
3, 10973, Note_on_c, 9, 47, 104
3, 10986, Note_on_c, 9, 47, 0
3, 10987, Note_on_c, 9, 45, 127
3, 11008, Note_on_c, 9, 45, 0
3, 11017, Note_on_c, 9, 47, 104
3, 11018, Note_on_c, 9, 45, 97
3, 11023, Note_on_c, 9, 45, 0
3, 11027, Note_on_c, 9, 47, 0
3, 11042, Note_on_c, 9, 36, 127
3, 11042, Note_on_c, 9, 59, 124
3, 11042, Note_on_c, 9, 57, 124
3, 11062, Note_on_c, 9, 59, 0
3, 11082, Note_on_c, 9, 36, 0
3, 11102, Note_on_c, 9, 41, 127
3, 11102, Note_on_c, 9, 40, 97
3, 11111, Note_on_c, 9, 40, 0
3, 11112, Note_on_c, 9, 41, 0
3, 11138, Note_on_c, 9, 40, 79
3, 11138, Note_on_c, 9, 41, 94
3, 11146, Note_on_c, 9, 41, 0
3, 11147, Note_on_c, 9, 40, 0
3, 11160, Note_on_c, 9, 57, 0
3, 11161, Note_on_c, 9, 59, 124
3, 11162, Note_on_c, 9, 57, 124
3, 11162, Note_on_c, 9, 36, 127
3, 11179, Note_on_c, 9, 59, 0
3, 11186, Note_on_c, 9, 36, 0
3, 11220, Note_on_c, 9, 57, 0
3, 11222, Note_on_c, 9, 36, 127
3, 11223, Note_on_c, 9, 59, 120
3, 11223, Note_on_c, 9, 57, 127
3, 11240, Note_on_c, 9, 59, 0
3, 11240, Note_on_c, 9, 36, 0
3, 11282, Note_on_c, 9, 40, 127
3, 11282, Note_on_c, 9, 41, 127
3, 11297, Note_on_c, 9, 41, 0
3, 11298, Note_on_c, 9, 40, 0
3, 11301, Note_on_c, 9, 50, 110
3, 11301, Note_on_c, 9, 48, 84
3, 11310, Note_on_c, 9, 48, 0
3, 11312, Note_on_c, 9, 50, 0
3, 11321, Note_on_c, 9, 47, 97
3, 11322, Note_on_c, 9, 45, 77
3, 11325, Note_on_c, 9, 45, 0
3, 11330, Note_on_c, 9, 47, 0
3, 11342, Note_on_c, 9, 47, 120
3, 11354, Note_on_c, 9, 47, 0
3, 11361, Note_on_c, 9, 40, 127
3, 11362, Note_on_c, 9, 41, 124
3, 11373, Note_on_c, 9, 41, 0
3, 11374, Note_on_c, 9, 40, 0
3, 11381, Note_on_c, 9, 40, 110
3, 11381, Note_on_c, 9, 41, 89
3, 11384, Note_on_c, 9, 41, 0
3, 11393, Note_on_c, 9, 40, 0
3, 11402, Note_on_c, 9, 40, 127
3, 11419, Note_on_c, 9, 40, 0
3, 11422, Note_on_c, 9, 49, 110
3, 11422, Note_on_c, 9, 51, 120
3, 11429, Note_on_c, 9, 51, 0
3, 11443, Note_on_c, 9, 40, 127
3, 11455, Note_on_c, 9, 40, 0
3, 11458, Note_on_c, 9, 49, 0
3, 11462, Note_on_c, 9, 49, 120
3, 11463, Note_on_c, 9, 51, 124
3, 11468, Note_on_c, 9, 51, 0
3, 11497, Note_on_c, 9, 40, 124
3, 11505, Note_on_c, 9, 40, 0
3, 11517, Note_on_c, 9, 40, 70
3, 11517, Note_on_c, 9, 41, 70
3, 11518, Note_on_c, 9, 49, 0
3, 11521, Note_on_c, 9, 41, 0
3, 11521, Note_on_c, 9, 49, 124
3, 11522, Note_on_c, 9, 40, 0
3, 11523, Note_on_c, 9, 36, 127
3, 11524, Note_on_c, 9, 51, 124
3, 11532, Note_on_c, 9, 51, 0
3, 11543, Note_on_c, 9, 36, 0
3, 11578, Note_on_c, 9, 57, 0
3, 11581, Note_on_c, 9, 40, 127
3, 11592, Note_on_c, 9, 40, 0
3, 11613, Note_on_c, 9, 40, 120
3, 11623, Note_on_c, 9, 40, 0
3, 11635, Note_on_c, 9, 49, 0
3, 11641, Note_on_c, 9, 49, 124
3, 11642, Note_on_c, 9, 51, 120
3, 11643, Note_on_c, 9, 53, 94
3, 11646, Note_on_c, 9, 36, 127
3, 11654, Note_on_c, 9, 51, 0
3, 11657, Note_on_c, 9, 53, 0
3, 11663, Note_on_c, 9, 36, 0
3, 11698, Note_on_c, 9, 49, 0
3, 11703, Note_on_c, 9, 36, 127
3, 11705, Note_on_c, 9, 53, 110
3, 11705, Note_on_c, 9, 49, 120
3, 11706, Note_on_c, 9, 51, 97
3, 11709, Note_on_c, 9, 51, 0
3, 11716, Note_on_c, 9, 36, 0
3, 11721, Note_on_c, 9, 53, 0
3, 11766, Note_on_c, 9, 40, 127
3, 11779, Note_on_c, 9, 40, 0
3, 11793, Note_on_c, 9, 45, 72
3, 11794, Note_on_c, 9, 43, 70
3, 11800, Note_on_c, 9, 43, 0
3, 11800, Note_on_c, 9, 45, 0
3, 11804, Note_on_c, 9, 41, 82
3, 11816, Note_on_c, 9, 41, 0
3, 11821, Note_on_c, 9, 43, 110
3, 11822, Note_on_c, 9, 45, 120
3, 11828, Note_on_c, 9, 45, 0
3, 11839, Note_on_c, 9, 43, 0
3, 11854, Note_on_c, 9, 40, 127
3, 11855, Note_on_c, 9, 41, 127
3, 11865, Note_on_c, 9, 41, 0
3, 11868, Note_on_c, 9, 40, 0
3, 11883, Note_on_c, 9, 40, 63
3, 11889, Note_on_c, 9, 40, 0
3, 11897, Note_on_c, 9, 40, 94
3, 11905, Note_on_c, 9, 40, 0
3, 11914, Note_on_c, 9, 40, 120
3, 11934, Note_on_c, 9, 40, 0
3, 11942, Note_on_c, 9, 40, 127
3, 11960, Note_on_c, 9, 40, 0
3, 11972, Note_on_c, 9, 40, 127
3, 11990, Note_on_c, 9, 40, 0
3, 12001, Note_on_c, 9, 36, 127
3, 12002, Note_on_c, 9, 57, 127
3, 12002, Note_on_c, 9, 59, 127
3, 12020, Note_on_c, 9, 59, 0
3, 12045, Note_on_c, 9, 49, 0
3, 12045, Note_on_c, 9, 36, 0
3, 12061, Note_on_c, 9, 40, 97
3, 12062, Note_on_c, 9, 41, 110
3, 12067, Note_on_c, 9, 41, 0
3, 12068, Note_on_c, 9, 40, 0
3, 12100, Note_on_c, 9, 40, 89
3, 12101, Note_on_c, 9, 41, 97
3, 12110, Note_on_c, 9, 41, 0
3, 12110, Note_on_c, 9, 40, 0
3, 12111, Note_on_c, 9, 57, 0
3, 12123, Note_on_c, 9, 36, 127
3, 12123, Note_on_c, 9, 59, 120
3, 12123, Note_on_c, 9, 57, 124
3, 12137, Note_on_c, 9, 59, 0
3, 12140, Note_on_c, 9, 36, 0
3, 12181, Note_on_c, 9, 57, 0
3, 12183, Note_on_c, 9, 36, 127
3, 12184, Note_on_c, 9, 57, 120
3, 12184, Note_on_c, 9, 59, 104
3, 12195, Note_on_c, 9, 36, 0
3, 12196, Note_on_c, 9, 59, 0
3, 12247, Note_on_c, 9, 50, 110
3, 12248, Note_on_c, 9, 40, 127
3, 12251, Note_on_c, 9, 48, 120
3, 12251, Note_on_c, 9, 47, 110
3, 12259, Note_on_c, 9, 40, 0
3, 12263, Note_on_c, 9, 50, 0
3, 12264, Note_on_c, 9, 47, 0
3, 12265, Note_on_c, 9, 48, 0
3, 12290, Note_on_c, 9, 45, 124
3, 12291, Note_on_c, 9, 47, 120
3, 12300, Note_on_c, 9, 47, 0
3, 12300, Note_on_c, 9, 45, 0
3, 12310, Note_on_c, 9, 50, 84
3, 12316, Note_on_c, 9, 48, 84
3, 12325, Note_on_c, 9, 50, 0
3, 12329, Note_on_c, 9, 48, 0
3, 12332, Note_on_c, 9, 45, 89
3, 12333, Note_on_c, 9, 47, 85
3, 12343, Note_on_c, 9, 47, 0
3, 12344, Note_on_c, 9, 45, 0
3, 12352, Note_on_c, 9, 50, 72
3, 12353, Note_on_c, 9, 48, 74
3, 12362, Note_on_c, 9, 47, 77
3, 12367, Note_on_c, 9, 50, 0
3, 12372, Note_on_c, 9, 48, 0
3, 12373, Note_on_c, 9, 47, 0
3, 12374, Note_on_c, 9, 43, 127
3, 12386, Note_on_c, 9, 43, 0
3, 12395, Note_on_c, 9, 47, 94
3, 12398, Note_on_c, 9, 45, 104
3, 12403, Note_on_c, 9, 43, 79
3, 12409, Note_on_c, 9, 47, 0
3, 12413, Note_on_c, 9, 45, 0
3, 12414, Note_on_c, 9, 43, 0
3, 12415, Note_on_c, 9, 41, 84
3, 12417, Note_on_c, 9, 41, 0
3, 12436, Note_on_c, 9, 45, 70
3, 12437, Note_on_c, 9, 43, 70
3, 12446, Note_on_c, 9, 41, 77
3, 12452, Note_on_c, 9, 45, 0
3, 12454, Note_on_c, 9, 40, 85
3, 12455, Note_on_c, 9, 43, 0
3, 12464, Note_on_c, 9, 41, 0
3, 12464, Note_on_c, 9, 40, 0
3, 12470, Note_on_c, 9, 43, 85
3, 12475, Note_on_c, 9, 41, 110
3, 12478, Note_on_c, 9, 43, 0
3, 12481, Note_on_c, 9, 41, 0
3, 12481, Note_on_c, 9, 36, 127
3, 12482, Note_on_c, 9, 51, 120
3, 12483, Note_on_c, 9, 49, 120
3, 12497, Note_on_c, 9, 51, 0
3, 12500, Note_on_c, 9, 36, 0
3, 12548, Note_on_c, 9, 36, 124
3, 12558, Note_on_c, 9, 36, 0
3, 12577, Note_on_c, 9, 36, 104
3, 12585, Note_on_c, 9, 36, 0
3, 12601, Note_on_c, 9, 49, 0
3, 12605, Note_on_c, 9, 51, 124
3, 12606, Note_on_c, 9, 49, 127
3, 12607, Note_on_c, 9, 40, 120
3, 12608, Note_on_c, 9, 41, 127
3, 12618, Note_on_c, 9, 51, 0
3, 12622, Note_on_c, 9, 41, 0
3, 12624, Note_on_c, 9, 40, 0
3, 12641, Note_on_c, 9, 57, 0
3, 12665, Note_on_c, 9, 49, 0
3, 12667, Note_on_c, 9, 40, 127
3, 12669, Note_on_c, 9, 49, 127
3, 12670, Note_on_c, 9, 51, 124
3, 12680, Note_on_c, 9, 40, 0
3, 12682, Note_on_c, 9, 51, 0
3, 12722, Note_on_c, 9, 47, 127
3, 12723, Note_on_c, 9, 45, 120
3, 12735, Note_on_c, 9, 45, 0
3, 12737, Note_on_c, 9, 47, 0
3, 12738, Note_on_c, 9, 48, 97
3, 12751, Note_on_c, 9, 48, 0
3, 12762, Note_on_c, 9, 41, 82
3, 12763, Note_on_c, 9, 43, 84
3, 12772, Note_on_c, 9, 43, 0
3, 12774, Note_on_c, 9, 41, 0
3, 12783, Note_on_c, 9, 43, 97
3, 12795, Note_on_c, 9, 43, 0
3, 12805, Note_on_c, 9, 40, 120
3, 12806, Note_on_c, 9, 38, 85
3, 12809, Note_on_c, 9, 38, 0
3, 12813, Note_on_c, 9, 40, 0
3, 12823, Note_on_c, 9, 40, 127
3, 12825, Note_on_c, 9, 38, 74
3, 12831, Note_on_c, 9, 38, 0
3, 12835, Note_on_c, 9, 40, 0
3, 12845, Note_on_c, 9, 40, 127
3, 12858, Note_on_c, 9, 40, 0
3, 12868, Note_on_c, 9, 40, 120
3, 12869, Note_on_c, 9, 41, 89
3, 12873, Note_on_c, 9, 41, 0
3, 12878, Note_on_c, 9, 40, 0
3, 12882, Note_on_c, 9, 40, 120
3, 12882, Note_on_c, 9, 41, 127
3, 12889, Note_on_c, 9, 41, 0
3, 12889, Note_on_c, 9, 40, 0
3, 12904, Note_on_c, 9, 36, 127
3, 12914, Note_on_c, 9, 36, 0
3, 12926, Note_on_c, 9, 40, 124
3, 12926, Note_on_c, 9, 38, 97
3, 12929, Note_on_c, 9, 38, 0
3, 12935, Note_on_c, 9, 40, 0
3, 12944, Note_on_c, 9, 40, 120
3, 12952, Note_on_c, 9, 40, 0
3, 12955, Note_on_c, 9, 49, 0
3, 12960, Note_on_c, 9, 36, 120
3, 12960, Note_on_c, 9, 51, 104
3, 12960, Note_on_c, 9, 49, 110
3, 12983, Note_on_c, 9, 49, 0
3, 12983, Note_on_c, 9, 51, 0
3, 13019, Note_on_c, 9, 46, 79
3, 13026, Note_on_c, 9, 36, 0
3, 13044, Note_on_c, 9, 46, 0
3, 13048, Note_on_c, 9, 36, 70
3, 13062, Note_on_c, 9, 36, 0
3, 13078, Note_on_c, 9, 40, 74
3, 13079, Note_on_c, 9, 46, 104
3, 13102, Note_on_c, 9, 40, 0
3, 13109, Note_on_c, 9, 46, 0
3, 13139, Note_on_c, 9, 46, 70
3, 13167, Note_on_c, 9, 46, 0
3, 13197, Note_on_c, 9, 46, 69
3, 13225, Note_on_c, 9, 46, 0
3, 13229, Note_on_c, 9, 36, 70
3, 13252, Note_on_c, 9, 36, 0
3, 13259, Note_on_c, 9, 46, 65
3, 13279, Note_on_c, 9, 46, 0
3, 13289, Note_on_c, 9, 36, 64
3, 13302, Note_on_c, 9, 36, 0
3, 13319, Note_on_c, 9, 40, 71
3, 13319, Note_on_c, 9, 46, 77
3, 13345, Note_on_c, 9, 40, 0
3, 13346, Note_on_c, 9, 46, 0
3, 13379, Note_on_c, 9, 46, 64
3, 13399, Note_on_c, 9, 46, 0
3, 13438, Note_on_c, 9, 36, 70
3, 13440, Note_on_c, 9, 46, 72
3, 13462, Note_on_c, 9, 46, 0
3, 13465, Note_on_c, 9, 36, 0
3, 13499, Note_on_c, 9, 46, 55
3, 13524, Note_on_c, 9, 46, 0
3, 13559, Note_on_c, 9, 40, 75
3, 13560, Note_on_c, 9, 46, 72
3, 13586, Note_on_c, 9, 46, 0
3, 13586, Note_on_c, 9, 40, 0
3, 13621, Note_on_c, 9, 46, 63
3, 13638, Note_on_c, 9, 46, 0
3, 13681, Note_on_c, 9, 46, 61
3, 13703, Note_on_c, 9, 46, 0
3, 13711, Note_on_c, 9, 36, 65
3, 13734, Note_on_c, 9, 36, 0
3, 13741, Note_on_c, 9, 46, 60
3, 13760, Note_on_c, 9, 46, 0
3, 13771, Note_on_c, 9, 36, 69
3, 13785, Note_on_c, 9, 36, 0
3, 13801, Note_on_c, 9, 46, 82
3, 13802, Note_on_c, 9, 40, 77
3, 13827, Note_on_c, 9, 40, 0
3, 13827, Note_on_c, 9, 46, 0
3, 13861, Note_on_c, 9, 46, 59
3, 13885, Note_on_c, 9, 46, 0
3, 13922, Note_on_c, 9, 36, 79
3, 13922, Note_on_c, 9, 46, 70
3, 13945, Note_on_c, 9, 46, 0
3, 13952, Note_on_c, 9, 36, 0
3, 13982, Note_on_c, 9, 46, 57
3, 14002, Note_on_c, 9, 46, 0
3, 14043, Note_on_c, 9, 46, 74
3, 14043, Note_on_c, 9, 40, 77
3, 14067, Note_on_c, 9, 40, 0
3, 14069, Note_on_c, 9, 46, 0
3, 14102, Note_on_c, 9, 46, 57
3, 14123, Note_on_c, 9, 46, 0
3, 14161, Note_on_c, 9, 46, 60
3, 14186, Note_on_c, 9, 46, 0
3, 14191, Note_on_c, 9, 36, 70
3, 14217, Note_on_c, 9, 36, 0
3, 14219, Note_on_c, 9, 46, 58
3, 14239, Note_on_c, 9, 46, 0
3, 14249, Note_on_c, 9, 36, 65
3, 14266, Note_on_c, 9, 36, 0
3, 14279, Note_on_c, 9, 46, 75
3, 14279, Note_on_c, 9, 40, 79
3, 14310, Note_on_c, 9, 46, 0
3, 14311, Note_on_c, 9, 40, 0
3, 14339, Note_on_c, 9, 46, 66
3, 14371, Note_on_c, 9, 46, 0
3, 14398, Note_on_c, 9, 36, 85
3, 14399, Note_on_c, 9, 46, 71
3, 14425, Note_on_c, 9, 46, 0
3, 14461, Note_on_c, 9, 46, 58
3, 14471, Note_on_c, 9, 36, 0
3, 14480, Note_on_c, 9, 46, 0
3, 14492, Note_on_c, 9, 36, 68
3, 14499, Note_on_c, 9, 36, 0
3, 14522, Note_on_c, 9, 46, 85
3, 14522, Note_on_c, 9, 40, 94
3, 14551, Note_on_c, 9, 46, 0
3, 14562, Note_on_c, 9, 40, 0
3, 14581, Note_on_c, 9, 46, 69
3, 14606, Note_on_c, 9, 46, 0
3, 14639, Note_on_c, 9, 36, 79
3, 14641, Note_on_c, 9, 46, 69
3, 14651, Note_on_c, 9, 36, 0
3, 14662, Note_on_c, 9, 46, 0
3, 14671, Note_on_c, 9, 36, 73
3, 14697, Note_on_c, 9, 36, 0
3, 14699, Note_on_c, 9, 46, 68
3, 14718, Note_on_c, 9, 46, 0
3, 14729, Note_on_c, 9, 36, 74
3, 14741, Note_on_c, 9, 36, 0
3, 14759, Note_on_c, 9, 46, 89
3, 14760, Note_on_c, 9, 40, 85
3, 14788, Note_on_c, 9, 40, 0
3, 14788, Note_on_c, 9, 46, 0
3, 14820, Note_on_c, 9, 46, 79
3, 14820, Note_on_c, 9, 40, 85
3, 14830, Note_on_c, 9, 40, 0
3, 14842, Note_on_c, 9, 46, 0
3, 14850, Note_on_c, 9, 40, 69
3, 14862, Note_on_c, 9, 40, 0
3, 14879, Note_on_c, 9, 36, 120
3, 14880, Note_on_c, 9, 46, 77
3, 14905, Note_on_c, 9, 46, 0
3, 14907, Note_on_c, 9, 36, 0
3, 14941, Note_on_c, 9, 46, 68
3, 14960, Note_on_c, 9, 46, 0
3, 15000, Note_on_c, 9, 40, 84
3, 15001, Note_on_c, 9, 46, 89
3, 15022, Note_on_c, 9, 40, 0
3, 15023, Note_on_c, 9, 46, 0
3, 15061, Note_on_c, 9, 46, 69
3, 15083, Note_on_c, 9, 46, 0
3, 15122, Note_on_c, 9, 46, 68
3, 15142, Note_on_c, 9, 46, 0
3, 15151, Note_on_c, 9, 36, 70
3, 15172, Note_on_c, 9, 36, 0
3, 15180, Note_on_c, 9, 46, 66
3, 15197, Note_on_c, 9, 46, 0
3, 15208, Note_on_c, 9, 36, 63
3, 15220, Note_on_c, 9, 36, 0
3, 15238, Note_on_c, 9, 40, 77
3, 15238, Note_on_c, 9, 46, 84
3, 15264, Note_on_c, 9, 40, 0
3, 15265, Note_on_c, 9, 46, 0
3, 15299, Note_on_c, 9, 46, 60
3, 15320, Note_on_c, 9, 46, 0
3, 15359, Note_on_c, 9, 36, 84
3, 15361, Note_on_c, 9, 46, 68
3, 15383, Note_on_c, 9, 46, 0
3, 15383, Note_on_c, 9, 36, 0
3, 15421, Note_on_c, 9, 46, 61
3, 15442, Note_on_c, 9, 46, 0
3, 15482, Note_on_c, 9, 40, 73
3, 15482, Note_on_c, 9, 46, 84
3, 15503, Note_on_c, 9, 46, 0
3, 15503, Note_on_c, 9, 40, 0
3, 15543, Note_on_c, 9, 46, 64
3, 15564, Note_on_c, 9, 46, 0
3, 15602, Note_on_c, 9, 46, 58
3, 15624, Note_on_c, 9, 46, 0
3, 15632, Note_on_c, 9, 36, 82
3, 15659, Note_on_c, 9, 36, 0
3, 15661, Note_on_c, 9, 46, 68
3, 15681, Note_on_c, 9, 46, 0
3, 15691, Note_on_c, 9, 36, 65
3, 15704, Note_on_c, 9, 36, 0
3, 15721, Note_on_c, 9, 46, 72
3, 15722, Note_on_c, 9, 40, 77
3, 15739, Note_on_c, 9, 40, 0
3, 15748, Note_on_c, 9, 46, 0
3, 15752, Note_on_c, 9, 36, 85
3, 15778, Note_on_c, 9, 36, 0
3, 15783, Note_on_c, 9, 46, 68
3, 15804, Note_on_c, 9, 46, 0
3, 15842, Note_on_c, 9, 36, 71
3, 15843, Note_on_c, 9, 46, 70
3, 15867, Note_on_c, 9, 46, 0
3, 15872, Note_on_c, 9, 36, 0
3, 15902, Note_on_c, 9, 46, 59
3, 15919, Note_on_c, 9, 46, 0
3, 15962, Note_on_c, 9, 40, 75
3, 15962, Note_on_c, 9, 46, 77
3, 15985, Note_on_c, 9, 46, 0
3, 15986, Note_on_c, 9, 40, 0
3, 16023, Note_on_c, 9, 46, 67
3, 16043, Note_on_c, 9, 46, 0
3, 16082, Note_on_c, 9, 46, 61
3, 16103, Note_on_c, 9, 46, 0
3, 16112, Note_on_c, 9, 36, 77
3, 16141, Note_on_c, 9, 36, 0
3, 16141, Note_on_c, 9, 46, 60
3, 16157, Note_on_c, 9, 46, 0
3, 16172, Note_on_c, 9, 36, 67
3, 16184, Note_on_c, 9, 36, 0
3, 16201, Note_on_c, 9, 46, 94
3, 16201, Note_on_c, 9, 40, 77
3, 16229, Note_on_c, 9, 46, 0
3, 16234, Note_on_c, 9, 40, 0
3, 16261, Note_on_c, 9, 46, 68
3, 16285, Note_on_c, 9, 46, 0
3, 16320, Note_on_c, 9, 36, 84
3, 16321, Note_on_c, 9, 46, 77
3, 16345, Note_on_c, 9, 46, 0
3, 16379, Note_on_c, 9, 46, 68
3, 16384, Note_on_c, 9, 36, 0
3, 16396, Note_on_c, 9, 46, 0
3, 16409, Note_on_c, 9, 36, 73
3, 16424, Note_on_c, 9, 36, 0
3, 16439, Note_on_c, 9, 49, 84
3, 16439, Note_on_c, 9, 46, 94
3, 16440, Note_on_c, 9, 40, 77
3, 16461, Note_on_c, 9, 46, 0
3, 16461, Note_on_c, 9, 49, 0
3, 16498, Note_on_c, 9, 40, 0
3, 16500, Note_on_c, 9, 46, 70
3, 16524, Note_on_c, 9, 46, 0
3, 16559, Note_on_c, 9, 36, 89
3, 16560, Note_on_c, 9, 46, 82
3, 16570, Note_on_c, 9, 36, 0
3, 16583, Note_on_c, 9, 46, 0
3, 16591, Note_on_c, 9, 40, 120
3, 16621, Note_on_c, 9, 46, 85
3, 16624, Note_on_c, 9, 40, 0
3, 16641, Note_on_c, 9, 46, 0
3, 16649, Note_on_c, 9, 43, 79
3, 16667, Note_on_c, 9, 43, 0
3, 16679, Note_on_c, 9, 46, 110
3, 16679, Note_on_c, 9, 49, 104
3, 16701, Note_on_c, 9, 49, 0
3, 16701, Note_on_c, 9, 46, 0
3, 16739, Note_on_c, 9, 40, 84
3, 16740, Note_on_c, 9, 41, 85
3, 16741, Note_on_c, 9, 49, 85
3, 16741, Note_on_c, 9, 46, 84
3, 16749, Note_on_c, 9, 41, 0
3, 16749, Note_on_c, 9, 40, 0
3, 16752, Note_on_c, 9, 46, 0
3, 16754, Note_on_c, 9, 49, 0
3, 16769, Note_on_c, 9, 40, 74
3, 16770, Note_on_c, 9, 41, 68
3, 16777, Note_on_c, 9, 41, 0
3, 16779, Note_on_c, 9, 40, 0
3, 16801, Note_on_c, 9, 36, 124
3, 16801, Note_on_c, 9, 57, 85
3, 16801, Note_on_c, 9, 55, 89
3, 16801, Note_on_c, 9, 59, 82
3, 16809, Note_on_c, 9, 55, 0
3, 16811, Note_on_c, 9, 59, 0
3, 16812, Note_on_c, 9, 57, 0
3, 16855, Note_on_c, 9, 36, 0
3, 16859, Note_on_c, 9, 46, 84
3, 16871, Note_on_c, 9, 46, 0
3, 16892, Note_on_c, 9, 36, 75
3, 16905, Note_on_c, 9, 36, 0
3, 16922, Note_on_c, 9, 46, 97
3, 16922, Note_on_c, 9, 40, 84
3, 16942, Note_on_c, 9, 40, 0
3, 16947, Note_on_c, 9, 46, 0
3, 16982, Note_on_c, 9, 46, 79
3, 16996, Note_on_c, 9, 46, 0
3, 17043, Note_on_c, 9, 46, 77
3, 17058, Note_on_c, 9, 46, 0
3, 17073, Note_on_c, 9, 36, 82
3, 17093, Note_on_c, 9, 36, 0
3, 17101, Note_on_c, 9, 46, 71
3, 17114, Note_on_c, 9, 46, 0
3, 17131, Note_on_c, 9, 36, 71
3, 17149, Note_on_c, 9, 36, 0
3, 17161, Note_on_c, 9, 40, 75
3, 17161, Note_on_c, 9, 46, 89
3, 17183, Note_on_c, 9, 46, 0
3, 17187, Note_on_c, 9, 40, 0
3, 17221, Note_on_c, 9, 46, 64
3, 17237, Note_on_c, 9, 46, 0
3, 17281, Note_on_c, 9, 36, 84
3, 17282, Note_on_c, 9, 46, 77
3, 17303, Note_on_c, 9, 46, 0
3, 17305, Note_on_c, 9, 36, 0
3, 17341, Note_on_c, 9, 46, 64
3, 17357, Note_on_c, 9, 46, 0
3, 17402, Note_on_c, 9, 40, 69
3, 17402, Note_on_c, 9, 46, 84
3, 17422, Note_on_c, 9, 46, 0
3, 17425, Note_on_c, 9, 40, 0
3, 17462, Note_on_c, 9, 46, 68
3, 17478, Note_on_c, 9, 46, 0
3, 17522, Note_on_c, 9, 46, 65
3, 17543, Note_on_c, 9, 46, 0
3, 17552, Note_on_c, 9, 36, 75
3, 17576, Note_on_c, 9, 36, 0
3, 17582, Note_on_c, 9, 46, 73
3, 17604, Note_on_c, 9, 46, 0
3, 17609, Note_on_c, 9, 36, 70
3, 17624, Note_on_c, 9, 36, 0
3, 17641, Note_on_c, 9, 46, 75
3, 17642, Note_on_c, 9, 40, 79
3, 17660, Note_on_c, 9, 40, 0
3, 17665, Note_on_c, 9, 46, 0
3, 17701, Note_on_c, 9, 46, 71
3, 17721, Note_on_c, 9, 46, 0
3, 17762, Note_on_c, 9, 36, 89
3, 17762, Note_on_c, 9, 46, 74
3, 17781, Note_on_c, 9, 46, 0
3, 17784, Note_on_c, 9, 36, 0
3, 17821, Note_on_c, 9, 46, 65
3, 17839, Note_on_c, 9, 46, 0
3, 17881, Note_on_c, 9, 40, 79
3, 17882, Note_on_c, 9, 46, 85
3, 17902, Note_on_c, 9, 40, 0
3, 17903, Note_on_c, 9, 46, 0
3, 17942, Note_on_c, 9, 46, 70
3, 17960, Note_on_c, 9, 46, 0
3, 18003, Note_on_c, 9, 46, 70
3, 18025, Note_on_c, 9, 46, 0
3, 18031, Note_on_c, 9, 36, 79
3, 18052, Note_on_c, 9, 36, 0
3, 18062, Note_on_c, 9, 46, 71
3, 18079, Note_on_c, 9, 46, 0
3, 18089, Note_on_c, 9, 36, 77
3, 18100, Note_on_c, 9, 36, 0
3, 18121, Note_on_c, 9, 40, 82
3, 18121, Note_on_c, 9, 46, 89
3, 18144, Note_on_c, 9, 46, 0
3, 18146, Note_on_c, 9, 40, 0
3, 18182, Note_on_c, 9, 46, 68
3, 18206, Note_on_c, 9, 46, 0
3, 18242, Note_on_c, 9, 36, 89
3, 18243, Note_on_c, 9, 46, 79
3, 18265, Note_on_c, 9, 46, 0
3, 18266, Note_on_c, 9, 36, 0
3, 18302, Note_on_c, 9, 46, 63
3, 18321, Note_on_c, 9, 46, 0
3, 18333, Note_on_c, 9, 36, 84
3, 18342, Note_on_c, 9, 36, 0
3, 18364, Note_on_c, 9, 40, 82
3, 18364, Note_on_c, 9, 46, 89
3, 18376, Note_on_c, 9, 40, 0
3, 18386, Note_on_c, 9, 46, 0
3, 18395, Note_on_c, 9, 40, 77
3, 18415, Note_on_c, 9, 40, 0
3, 18423, Note_on_c, 9, 46, 79
3, 18439, Note_on_c, 9, 46, 0
3, 18482, Note_on_c, 9, 36, 97
3, 18482, Note_on_c, 9, 46, 79
3, 18502, Note_on_c, 9, 46, 0
3, 18506, Note_on_c, 9, 36, 0
3, 18540, Note_on_c, 9, 46, 70
3, 18556, Note_on_c, 9, 46, 0
3, 18571, Note_on_c, 9, 36, 84
3, 18582, Note_on_c, 9, 36, 0
3, 18601, Note_on_c, 9, 40, 79
3, 18602, Note_on_c, 9, 46, 94
3, 18614, Note_on_c, 9, 40, 0
3, 18627, Note_on_c, 9, 46, 0
3, 18631, Note_on_c, 9, 40, 74
3, 18647, Note_on_c, 9, 40, 0
3, 18661, Note_on_c, 9, 46, 79
3, 18681, Note_on_c, 9, 46, 0
3, 18692, Note_on_c, 9, 40, 64
3, 18703, Note_on_c, 9, 40, 0
3, 18721, Note_on_c, 9, 49, 62
3, 18721, Note_on_c, 9, 36, 69
3, 18756, Note_on_c, 9, 49, 0
3, 18757, Note_on_c, 9, 36, 0
3, 18781, Note_on_c, 9, 46, 60
3, 18807, Note_on_c, 9, 46, 0
3, 18842, Note_on_c, 9, 46, 74
3, 18843, Note_on_c, 9, 40, 79
3, 18863, Note_on_c, 9, 40, 0
3, 18870, Note_on_c, 9, 46, 0
3, 18902, Note_on_c, 9, 46, 61
3, 18922, Note_on_c, 9, 46, 0
3, 18962, Note_on_c, 9, 46, 66
3, 18984, Note_on_c, 9, 46, 0
3, 18992, Note_on_c, 9, 36, 69
3, 19015, Note_on_c, 9, 36, 0
3, 19021, Note_on_c, 9, 46, 57
3, 19041, Note_on_c, 9, 46, 0
3, 19050, Note_on_c, 9, 36, 60
3, 19067, Note_on_c, 9, 36, 0
3, 19081, Note_on_c, 9, 40, 77
3, 19081, Note_on_c, 9, 46, 72
3, 19107, Note_on_c, 9, 46, 0
3, 19107, Note_on_c, 9, 40, 0
3, 19140, Note_on_c, 9, 46, 61
3, 19160, Note_on_c, 9, 46, 0
3, 19200, Note_on_c, 9, 36, 72
3, 19201, Note_on_c, 9, 46, 70
3, 19221, Note_on_c, 9, 36, 0
3, 19223, Note_on_c, 9, 46, 0
3, 19258, Note_on_c, 9, 46, 55
3, 19278, Note_on_c, 9, 46, 0
3, 19318, Note_on_c, 9, 40, 77
3, 19318, Note_on_c, 9, 46, 82
3, 19340, Note_on_c, 9, 46, 0
3, 19342, Note_on_c, 9, 40, 0
3, 19379, Note_on_c, 9, 46, 64
3, 19397, Note_on_c, 9, 46, 0
3, 19439, Note_on_c, 9, 46, 68
3, 19460, Note_on_c, 9, 46, 0
3, 19470, Note_on_c, 9, 36, 72
3, 19494, Note_on_c, 9, 36, 0
3, 19501, Note_on_c, 9, 46, 67
3, 19521, Note_on_c, 9, 46, 0
3, 19562, Note_on_c, 9, 40, 72
3, 19562, Note_on_c, 9, 46, 77
3, 19583, Note_on_c, 9, 46, 0
3, 19587, Note_on_c, 9, 40, 0
3, 19622, Note_on_c, 9, 46, 60
3, 19642, Note_on_c, 9, 46, 0
3, 19683, Note_on_c, 9, 46, 69
3, 19683, Note_on_c, 9, 36, 89
3, 19706, Note_on_c, 9, 46, 0
3, 19707, Note_on_c, 9, 36, 0
3, 19742, Note_on_c, 9, 46, 55
3, 19758, Note_on_c, 9, 46, 0
3, 19801, Note_on_c, 9, 40, 72
3, 19801, Note_on_c, 9, 46, 72
3, 19822, Note_on_c, 9, 46, 0
3, 19825, Note_on_c, 9, 40, 0
3, 19862, Note_on_c, 9, 46, 57
3, 19877, Note_on_c, 9, 46, 0
3, 19919, Note_on_c, 9, 46, 56
3, 19939, Note_on_c, 9, 46, 0
3, 19950, Note_on_c, 9, 36, 75
3, 19974, Note_on_c, 9, 36, 0
3, 19978, Note_on_c, 9, 46, 64
3, 19994, Note_on_c, 9, 46, 0
3, 20009, Note_on_c, 9, 36, 69
3, 20019, Note_on_c, 9, 36, 0
3, 20040, Note_on_c, 9, 40, 75
3, 20041, Note_on_c, 9, 46, 79
3, 20063, Note_on_c, 9, 46, 0
3, 20064, Note_on_c, 9, 40, 0
3, 20101, Note_on_c, 9, 46, 64
3, 20122, Note_on_c, 9, 46, 0
3, 20161, Note_on_c, 9, 36, 82
3, 20162, Note_on_c, 9, 46, 73
3, 20177, Note_on_c, 9, 36, 0
3, 20181, Note_on_c, 9, 46, 0
3, 20192, Note_on_c, 9, 36, 84
3, 20217, Note_on_c, 9, 36, 0
3, 20221, Note_on_c, 9, 46, 66
3, 20236, Note_on_c, 9, 46, 0
3, 20249, Note_on_c, 9, 36, 65
3, 20264, Note_on_c, 9, 36, 0
3, 20279, Note_on_c, 9, 49, 84
3, 20280, Note_on_c, 9, 46, 84
3, 20281, Note_on_c, 9, 40, 74
3, 20300, Note_on_c, 9, 49, 0
3, 20301, Note_on_c, 9, 46, 0
3, 20320, Note_on_c, 9, 40, 0
3, 20341, Note_on_c, 9, 46, 73
3, 20364, Note_on_c, 9, 46, 0
3, 20373, Note_on_c, 9, 36, 79
3, 20388, Note_on_c, 9, 36, 0
3, 20403, Note_on_c, 9, 46, 73
3, 20425, Note_on_c, 9, 46, 0
3, 20433, Note_on_c, 9, 40, 124
3, 20455, Note_on_c, 9, 40, 0
3, 20463, Note_on_c, 9, 46, 89
3, 20476, Note_on_c, 9, 46, 0
3, 20494, Note_on_c, 9, 43, 89
3, 20504, Note_on_c, 9, 43, 0
3, 20524, Note_on_c, 9, 41, 94
3, 20524, Note_on_c, 9, 57, 97
3, 20524, Note_on_c, 9, 59, 104
3, 20540, Note_on_c, 9, 59, 0
3, 20541, Note_on_c, 9, 57, 0
3, 20543, Note_on_c, 9, 41, 0
3, 20565, Note_on_c, 9, 41, 94
3, 20579, Note_on_c, 9, 41, 0
3, 20597, Note_on_c, 9, 59, 94
3, 20598, Note_on_c, 9, 57, 94
3, 20606, Note_on_c, 9, 41, 84
3, 20609, Note_on_c, 9, 59, 0
3, 20610, Note_on_c, 9, 57, 0
3, 20613, Note_on_c, 9, 41, 0
3, 20641, Note_on_c, 9, 51, 110
3, 20641, Note_on_c, 9, 36, 124
3, 20661, Note_on_c, 9, 51, 0
3, 20669, Note_on_c, 9, 36, 0
3, 20703, Note_on_c, 9, 51, 79
3, 20716, Note_on_c, 9, 51, 0
3, 20733, Note_on_c, 9, 36, 89
3, 20746, Note_on_c, 9, 36, 0
3, 20763, Note_on_c, 9, 40, 79
3, 20763, Note_on_c, 9, 51, 97
3, 20781, Note_on_c, 9, 51, 0
3, 20786, Note_on_c, 9, 40, 0
3, 20794, Note_on_c, 9, 51, 72
3, 20803, Note_on_c, 9, 51, 0
3, 20823, Note_on_c, 9, 51, 73
3, 20837, Note_on_c, 9, 51, 0
3, 20853, Note_on_c, 9, 36, 72
3, 20867, Note_on_c, 9, 36, 0
3, 20883, Note_on_c, 9, 36, 74
3, 20883, Note_on_c, 9, 51, 94
3, 20895, Note_on_c, 9, 36, 0
3, 20897, Note_on_c, 9, 51, 0
3, 20914, Note_on_c, 9, 51, 69
3, 20925, Note_on_c, 9, 51, 0
3, 20942, Note_on_c, 9, 51, 54
3, 20955, Note_on_c, 9, 51, 0
3, 21002, Note_on_c, 9, 40, 75
3, 21003, Note_on_c, 9, 51, 97
3, 21018, Note_on_c, 9, 51, 0
3, 21021, Note_on_c, 9, 40, 0
3, 21062, Note_on_c, 9, 51, 89
3, 21075, Note_on_c, 9, 51, 0
3, 21092, Note_on_c, 9, 51, 73
3, 21105, Note_on_c, 9, 51, 0
3, 21122, Note_on_c, 9, 51, 84
3, 21123, Note_on_c, 9, 36, 89
3, 21139, Note_on_c, 9, 51, 0
3, 21149, Note_on_c, 9, 36, 0
3, 21153, Note_on_c, 9, 51, 73
3, 21167, Note_on_c, 9, 51, 0
3, 21181, Note_on_c, 9, 51, 74
3, 21196, Note_on_c, 9, 51, 0
3, 21211, Note_on_c, 9, 36, 79
3, 21221, Note_on_c, 9, 36, 0
3, 21239, Note_on_c, 9, 40, 82
3, 21240, Note_on_c, 9, 51, 97
3, 21258, Note_on_c, 9, 40, 0
3, 21259, Note_on_c, 9, 51, 0
3, 21301, Note_on_c, 9, 51, 79
3, 21316, Note_on_c, 9, 51, 0
3, 21329, Note_on_c, 9, 51, 79
3, 21344, Note_on_c, 9, 51, 0
3, 21361, Note_on_c, 9, 36, 104
3, 21387, Note_on_c, 9, 36, 0
3, 21391, Note_on_c, 9, 51, 73
3, 21402, Note_on_c, 9, 51, 0
3, 21421, Note_on_c, 9, 51, 84
3, 21439, Note_on_c, 9, 51, 0
3, 21449, Note_on_c, 9, 36, 79
3, 21465, Note_on_c, 9, 36, 0
3, 21481, Note_on_c, 9, 51, 97
3, 21482, Note_on_c, 9, 40, 94
3, 21499, Note_on_c, 9, 51, 0
3, 21504, Note_on_c, 9, 40, 0
3, 21542, Note_on_c, 9, 36, 82
3, 21542, Note_on_c, 9, 51, 79
3, 21552, Note_on_c, 9, 36, 0
3, 21557, Note_on_c, 9, 51, 0
3, 21572, Note_on_c, 9, 51, 62
3, 21583, Note_on_c, 9, 51, 0
3, 21602, Note_on_c, 9, 36, 110
3, 21603, Note_on_c, 9, 51, 84
3, 21621, Note_on_c, 9, 51, 0
3, 21622, Note_on_c, 9, 36, 0
3, 21663, Note_on_c, 9, 51, 77
3, 21679, Note_on_c, 9, 51, 0
3, 21692, Note_on_c, 9, 36, 73
3, 21704, Note_on_c, 9, 36, 0
3, 21722, Note_on_c, 9, 51, 94
3, 21723, Note_on_c, 9, 40, 74
3, 21737, Note_on_c, 9, 51, 0
3, 21745, Note_on_c, 9, 40, 0
3, 21752, Note_on_c, 9, 51, 70
3, 21766, Note_on_c, 9, 51, 0
3, 21782, Note_on_c, 9, 51, 69
3, 21800, Note_on_c, 9, 51, 0
3, 21811, Note_on_c, 9, 36, 69
3, 21825, Note_on_c, 9, 36, 0
3, 21842, Note_on_c, 9, 51, 84
3, 21859, Note_on_c, 9, 51, 0
3, 21872, Note_on_c, 9, 51, 52
3, 21882, Note_on_c, 9, 51, 0
3, 21898, Note_on_c, 9, 51, 64
3, 21915, Note_on_c, 9, 51, 0
3, 21932, Note_on_c, 9, 36, 89
3, 21946, Note_on_c, 9, 36, 0
3, 21962, Note_on_c, 9, 51, 85
3, 21963, Note_on_c, 9, 40, 74
3, 21979, Note_on_c, 9, 51, 0
3, 21984, Note_on_c, 9, 40, 0
3, 21993, Note_on_c, 9, 51, 57
3, 22004, Note_on_c, 9, 51, 0
3, 22023, Note_on_c, 9, 51, 62
3, 22041, Note_on_c, 9, 51, 0
3, 22053, Note_on_c, 9, 36, 82
3, 22063, Note_on_c, 9, 36, 0
3, 22082, Note_on_c, 9, 51, 75
3, 22100, Note_on_c, 9, 51, 0
3, 22112, Note_on_c, 9, 36, 127
3, 22135, Note_on_c, 9, 36, 0
3, 22140, Note_on_c, 9, 51, 68
3, 22151, Note_on_c, 9, 51, 0
3, 22169, Note_on_c, 9, 51, 70
3, 22181, Note_on_c, 9, 51, 0
3, 22198, Note_on_c, 9, 51, 77
3, 22202, Note_on_c, 9, 40, 97
3, 22227, Note_on_c, 9, 40, 0
3, 22227, Note_on_c, 9, 51, 0
3, 22261, Note_on_c, 9, 51, 104
3, 22261, Note_on_c, 9, 49, 94
3, 22263, Note_on_c, 9, 40, 94
3, 22272, Note_on_c, 9, 49, 0
3, 22273, Note_on_c, 9, 40, 0
3, 22278, Note_on_c, 9, 51, 0
3, 22320, Note_on_c, 9, 51, 72
3, 22338, Note_on_c, 9, 51, 0
3, 22352, Note_on_c, 9, 40, 124
3, 22373, Note_on_c, 9, 40, 0
3, 22381, Note_on_c, 9, 51, 77
3, 22382, Note_on_c, 9, 49, 73
3, 22389, Note_on_c, 9, 49, 0
3, 22393, Note_on_c, 9, 51, 0
3, 22414, Note_on_c, 9, 47, 60
3, 22423, Note_on_c, 9, 47, 0
3, 22443, Note_on_c, 9, 51, 120
3, 22444, Note_on_c, 9, 49, 120
3, 22456, Note_on_c, 9, 49, 0
3, 22458, Note_on_c, 9, 51, 0
3, 22473, Note_on_c, 9, 45, 77
3, 22482, Note_on_c, 9, 45, 0
3, 22488, Note_on_c, 9, 47, 82
3, 22504, Note_on_c, 9, 47, 0
3, 22505, Note_on_c, 9, 43, 124
3, 22524, Note_on_c, 9, 43, 0
3, 22533, Note_on_c, 9, 45, 94
3, 22534, Note_on_c, 9, 47, 85
3, 22544, Note_on_c, 9, 45, 0
3, 22546, Note_on_c, 9, 47, 0
3, 22561, Note_on_c, 9, 36, 127
3, 22562, Note_on_c, 9, 57, 104
3, 22562, Note_on_c, 9, 59, 89
3, 22573, Note_on_c, 9, 59, 0
3, 22573, Note_on_c, 9, 57, 0
3, 22586, Note_on_c, 9, 36, 0
3, 22622, Note_on_c, 9, 59, 84
3, 22635, Note_on_c, 9, 59, 0
3, 22681, Note_on_c, 9, 40, 72
3, 22682, Note_on_c, 9, 51, 110
3, 22692, Note_on_c, 9, 40, 0
3, 22698, Note_on_c, 9, 51, 0
3, 22741, Note_on_c, 9, 51, 84
3, 22762, Note_on_c, 9, 51, 0
3, 22772, Note_on_c, 9, 36, 70
3, 22791, Note_on_c, 9, 36, 0
3, 22802, Note_on_c, 9, 51, 77
3, 22820, Note_on_c, 9, 51, 0
3, 22832, Note_on_c, 9, 51, 62
3, 22846, Note_on_c, 9, 51, 0
3, 22862, Note_on_c, 9, 36, 79
3, 22862, Note_on_c, 9, 51, 75
3, 22881, Note_on_c, 9, 51, 0
3, 22884, Note_on_c, 9, 36, 0
3, 22922, Note_on_c, 9, 40, 79
3, 22923, Note_on_c, 9, 51, 94
3, 22941, Note_on_c, 9, 51, 0
3, 22942, Note_on_c, 9, 40, 0
3, 22982, Note_on_c, 9, 51, 70
3, 22993, Note_on_c, 9, 51, 0
3, 23011, Note_on_c, 9, 51, 68
3, 23023, Note_on_c, 9, 51, 0
3, 23043, Note_on_c, 9, 36, 85
3, 23043, Note_on_c, 9, 51, 85
3, 23061, Note_on_c, 9, 51, 0
3, 23066, Note_on_c, 9, 36, 0
3, 23101, Note_on_c, 9, 51, 68
3, 23116, Note_on_c, 9, 51, 0
3, 23161, Note_on_c, 9, 40, 74
3, 23161, Note_on_c, 9, 51, 89
3, 23177, Note_on_c, 9, 51, 0
3, 23182, Note_on_c, 9, 40, 0
3, 23222, Note_on_c, 9, 51, 77
3, 23237, Note_on_c, 9, 51, 0
3, 23282, Note_on_c, 9, 51, 77
3, 23299, Note_on_c, 9, 51, 0
3, 23312, Note_on_c, 9, 36, 77
3, 23332, Note_on_c, 9, 36, 0
3, 23341, Note_on_c, 9, 51, 72
3, 23356, Note_on_c, 9, 51, 0
3, 23371, Note_on_c, 9, 36, 57
3, 23382, Note_on_c, 9, 36, 0
3, 23401, Note_on_c, 9, 40, 77
3, 23402, Note_on_c, 9, 51, 94
3, 23420, Note_on_c, 9, 51, 0
3, 23425, Note_on_c, 9, 40, 0
3, 23462, Note_on_c, 9, 51, 71
3, 23478, Note_on_c, 9, 51, 0
3, 23521, Note_on_c, 9, 36, 84
3, 23522, Note_on_c, 9, 51, 77
3, 23540, Note_on_c, 9, 51, 0
3, 23545, Note_on_c, 9, 36, 0
3, 23583, Note_on_c, 9, 51, 63
3, 23601, Note_on_c, 9, 51, 0
3, 23643, Note_on_c, 9, 40, 73
3, 23643, Note_on_c, 9, 51, 82
3, 23663, Note_on_c, 9, 51, 0
3, 23668, Note_on_c, 9, 40, 0
3, 23702, Note_on_c, 9, 51, 69
3, 23719, Note_on_c, 9, 51, 0
3, 23732, Note_on_c, 9, 36, 73
3, 23755, Note_on_c, 9, 36, 0
3, 23762, Note_on_c, 9, 51, 68
3, 23781, Note_on_c, 9, 51, 0
3, 23818, Note_on_c, 9, 36, 72
3, 23821, Note_on_c, 9, 51, 75
3, 23837, Note_on_c, 9, 51, 0
3, 23839, Note_on_c, 9, 36, 0
3, 23879, Note_on_c, 9, 40, 71
3, 23881, Note_on_c, 9, 51, 89
3, 23901, Note_on_c, 9, 51, 0
3, 23904, Note_on_c, 9, 40, 0
3, 23940, Note_on_c, 9, 51, 82
3, 23958, Note_on_c, 9, 51, 0
3, 23998, Note_on_c, 9, 36, 82
3, 24000, Note_on_c, 9, 51, 85
3, 24019, Note_on_c, 9, 51, 0
3, 24021, Note_on_c, 9, 36, 0
3, 24061, Note_on_c, 9, 51, 72
3, 24075, Note_on_c, 9, 51, 0
3, 24091, Note_on_c, 9, 36, 75
3, 24102, Note_on_c, 9, 36, 0
3, 24120, Note_on_c, 9, 40, 77
3, 24121, Note_on_c, 9, 51, 94
3, 24139, Note_on_c, 9, 51, 0
3, 24141, Note_on_c, 9, 40, 0
3, 24178, Note_on_c, 9, 40, 89
3, 24179, Note_on_c, 9, 51, 89
3, 24179, Note_on_c, 9, 49, 94
3, 24196, Note_on_c, 9, 49, 0
3, 24200, Note_on_c, 9, 51, 0
3, 24203, Note_on_c, 9, 40, 0
3, 24240, Note_on_c, 9, 51, 84
3, 24257, Note_on_c, 9, 51, 0
3, 24272, Note_on_c, 9, 36, 120
3, 24287, Note_on_c, 9, 36, 0
3, 24299, Note_on_c, 9, 51, 84
3, 24314, Note_on_c, 9, 51, 0
3, 24320, Note_on_c, 9, 40, 70
3, 24333, Note_on_c, 9, 40, 0
3, 24338, Note_on_c, 9, 49, 82
3, 24338, Note_on_c, 9, 51, 82
3, 24345, Note_on_c, 9, 49, 0
3, 24347, Note_on_c, 9, 51, 0
3, 24355, Note_on_c, 9, 45, 97
3, 24356, Note_on_c, 9, 47, 104
3, 24367, Note_on_c, 9, 47, 0
3, 24368, Note_on_c, 9, 45, 0
3, 24376, Note_on_c, 9, 48, 75
3, 24376, Note_on_c, 9, 47, 74
3, 24388, Note_on_c, 9, 47, 0
3, 24388, Note_on_c, 9, 48, 0
3, 24394, Note_on_c, 9, 45, 124
3, 24408, Note_on_c, 9, 45, 0
3, 24415, Note_on_c, 9, 45, 104
3, 24416, Note_on_c, 9, 47, 97
3, 24426, Note_on_c, 9, 47, 0
3, 24426, Note_on_c, 9, 45, 0
3, 24438, Note_on_c, 9, 40, 104
3, 24439, Note_on_c, 9, 41, 110
3, 24444, Note_on_c, 9, 41, 0
3, 24445, Note_on_c, 9, 40, 0
3, 24454, Note_on_c, 9, 40, 120
3, 24467, Note_on_c, 9, 40, 0
3, 24475, Note_on_c, 9, 59, 97
3, 24476, Note_on_c, 9, 57, 94
3, 24480, Note_on_c, 9, 36, 124
3, 24488, Note_on_c, 9, 59, 0
3, 24489, Note_on_c, 9, 57, 0
3, 24500, Note_on_c, 9, 36, 0
3, 24538, Note_on_c, 9, 51, 75
3, 24552, Note_on_c, 9, 51, 0
3, 24599, Note_on_c, 9, 51, 97
3, 24600, Note_on_c, 9, 40, 85
3, 24617, Note_on_c, 9, 51, 0
3, 24619, Note_on_c, 9, 40, 0
3, 24659, Note_on_c, 9, 51, 84
3, 24675, Note_on_c, 9, 51, 0
3, 24721, Note_on_c, 9, 51, 85
3, 24739, Note_on_c, 9, 51, 0
3, 24751, Note_on_c, 9, 36, 73
3, 24765, Note_on_c, 9, 36, 0
3, 24780, Note_on_c, 9, 51, 75
3, 24796, Note_on_c, 9, 51, 0
3, 24809, Note_on_c, 9, 36, 73
3, 24818, Note_on_c, 9, 36, 0
3, 24839, Note_on_c, 9, 51, 89
3, 24840, Note_on_c, 9, 40, 79
3, 24860, Note_on_c, 9, 51, 0
3, 24861, Note_on_c, 9, 40, 0
3, 24899, Note_on_c, 9, 51, 77
3, 24914, Note_on_c, 9, 51, 0
3, 24957, Note_on_c, 9, 36, 73
3, 24959, Note_on_c, 9, 51, 85
3, 24976, Note_on_c, 9, 36, 0
3, 24977, Note_on_c, 9, 51, 0
3, 25019, Note_on_c, 9, 51, 64
3, 25039, Note_on_c, 9, 51, 0
3, 25081, Note_on_c, 9, 40, 79
3, 25082, Note_on_c, 9, 51, 89
3, 25100, Note_on_c, 9, 51, 0
3, 25102, Note_on_c, 9, 40, 0
3, 25141, Note_on_c, 9, 51, 74
3, 25158, Note_on_c, 9, 51, 0
3, 25201, Note_on_c, 9, 51, 82
3, 25224, Note_on_c, 9, 51, 0
3, 25231, Note_on_c, 9, 36, 77
3, 25255, Note_on_c, 9, 36, 0
3, 25261, Note_on_c, 9, 51, 70
3, 25281, Note_on_c, 9, 51, 0
3, 25290, Note_on_c, 9, 36, 85
3, 25321, Note_on_c, 9, 36, 0
3, 25321, Note_on_c, 9, 51, 85
3, 25334, Note_on_c, 9, 51, 0
3, 25351, Note_on_c, 9, 36, 74
3, 25363, Note_on_c, 9, 36, 0
3, 25379, Note_on_c, 9, 40, 110
3, 25392, Note_on_c, 9, 40, 0
3, 25410, Note_on_c, 9, 51, 120
3, 25411, Note_on_c, 9, 36, 127
3, 25411, Note_on_c, 9, 49, 110
3, 25411, Note_on_c, 9, 38, 82
3, 25429, Note_on_c, 9, 38, 0
3, 25430, Note_on_c, 9, 49, 0
3, 25435, Note_on_c, 9, 51, 0
3, 25442, Note_on_c, 9, 36, 0
3, 25503, Note_on_c, 9, 51, 89
3, 25522, Note_on_c, 9, 51, 0
3, 25563, Note_on_c, 9, 51, 89
3, 25577, Note_on_c, 9, 51, 0
3, 25592, Note_on_c, 9, 36, 73
3, 25601, Note_on_c, 9, 36, 0
3, 25622, Note_on_c, 9, 40, 89
3, 25633, Note_on_c, 9, 40, 0
3, 25651, Note_on_c, 9, 49, 120
3, 25652, Note_on_c, 9, 51, 110
3, 25652, Note_on_c, 9, 36, 124
3, 25669, Note_on_c, 9, 49, 0
3, 25671, Note_on_c, 9, 51, 0
3, 25680, Note_on_c, 9, 36, 0
3, 25710, Note_on_c, 9, 59, 85
3, 25729, Note_on_c, 9, 59, 0
3, 25739, Note_on_c, 9, 36, 89
3, 25760, Note_on_c, 9, 36, 0
3, 25769, Note_on_c, 9, 59, 68
3, 25779, Note_on_c, 9, 59, 0
3, 25799, Note_on_c, 9, 40, 124
3, 25800, Note_on_c, 9, 59, 79
3, 25801, Note_on_c, 9, 57, 97
3, 25819, Note_on_c, 9, 57, 0
3, 25819, Note_on_c, 9, 59, 0
3, 25824, Note_on_c, 9, 40, 0
3, 25861, Note_on_c, 9, 40, 110
3, 25861, Note_on_c, 9, 59, 104
3, 25862, Note_on_c, 9, 57, 104
3, 25875, Note_on_c, 9, 57, 0
3, 25875, Note_on_c, 9, 59, 0
3, 25880, Note_on_c, 9, 40, 0
3, 25921, Note_on_c, 9, 51, 84
3, 25922, Note_on_c, 9, 36, 120
3, 25936, Note_on_c, 9, 51, 0
3, 25937, Note_on_c, 9, 36, 0
3, 25981, Note_on_c, 9, 36, 94
3, 25990, Note_on_c, 9, 36, 0
3, 26011, Note_on_c, 9, 36, 104
3, 26020, Note_on_c, 9, 36, 0
3, 26041, Note_on_c, 9, 40, 120
3, 26042, Note_on_c, 9, 51, 104
3, 26042, Note_on_c, 9, 49, 110
3, 26054, Note_on_c, 9, 49, 0
3, 26055, Note_on_c, 9, 51, 0
3, 26061, Note_on_c, 9, 40, 0
3, 26102, Note_on_c, 9, 40, 120
3, 26102, Note_on_c, 9, 49, 104
3, 26102, Note_on_c, 9, 51, 94
3, 26113, Note_on_c, 9, 40, 0
3, 26115, Note_on_c, 9, 49, 0
3, 26117, Note_on_c, 9, 51, 0
3, 26135, Note_on_c, 9, 47, 79
3, 26147, Note_on_c, 9, 47, 0
3, 26172, Note_on_c, 9, 47, 75
3, 26173, Note_on_c, 9, 48, 68
3, 26175, Note_on_c, 9, 48, 0
3, 26181, Note_on_c, 9, 47, 0
3, 26193, Note_on_c, 9, 45, 82
3, 26199, Note_on_c, 9, 45, 0
3, 26210, Note_on_c, 9, 45, 89
3, 26211, Note_on_c, 9, 47, 84
3, 26214, Note_on_c, 9, 47, 0
3, 26219, Note_on_c, 9, 45, 0
3, 26226, Note_on_c, 9, 43, 104
3, 26227, Note_on_c, 9, 45, 120
3, 26235, Note_on_c, 9, 45, 0
3, 26235, Note_on_c, 9, 43, 0
3, 26246, Note_on_c, 9, 43, 110
3, 26258, Note_on_c, 9, 43, 0
3, 26261, Note_on_c, 9, 41, 120
3, 26262, Note_on_c, 9, 43, 110
3, 26273, Note_on_c, 9, 43, 0
3, 26274, Note_on_c, 9, 41, 0
3, 26284, Note_on_c, 9, 41, 124
3, 26294, Note_on_c, 9, 41, 0
3, 26302, Note_on_c, 9, 40, 124
3, 26315, Note_on_c, 9, 40, 0
3, 26317, Note_on_c, 9, 49, 120
3, 26318, Note_on_c, 9, 51, 97
3, 26325, Note_on_c, 9, 51, 0
3, 26327, Note_on_c, 9, 49, 0
3, 26342, Note_on_c, 9, 40, 124
3, 26359, Note_on_c, 9, 51, 104
3, 26360, Note_on_c, 9, 40, 0
3, 26360, Note_on_c, 9, 49, 104
3, 26365, Note_on_c, 9, 51, 0
3, 26366, Note_on_c, 9, 49, 0
3, 26382, Note_on_c, 9, 40, 104
3, 26389, Note_on_c, 9, 40, 0
3, 26401, Note_on_c, 9, 36, 120
3, 26402, Note_on_c, 9, 53, 120
3, 26403, Note_on_c, 9, 55, 104
3, 26403, Note_on_c, 9, 52, 124
3, 26414, Note_on_c, 9, 52, 0
3, 26418, Note_on_c, 9, 55, 0
3, 26420, Note_on_c, 9, 53, 0
3, 26424, Note_on_c, 9, 36, 0
3, 26462, Note_on_c, 9, 51, 84
3, 26475, Note_on_c, 9, 51, 0
3, 26521, Note_on_c, 9, 40, 97
3, 26522, Note_on_c, 9, 51, 97
3, 26540, Note_on_c, 9, 51, 0
3, 26541, Note_on_c, 9, 40, 0
3, 26581, Note_on_c, 9, 51, 74
3, 26595, Note_on_c, 9, 51, 0
3, 26640, Note_on_c, 9, 51, 84
3, 26653, Note_on_c, 9, 51, 0
3, 26668, Note_on_c, 9, 51, 68
3, 26680, Note_on_c, 9, 51, 0
3, 26701, Note_on_c, 9, 51, 84
3, 26701, Note_on_c, 9, 36, 110
3, 26719, Note_on_c, 9, 51, 0
3, 26723, Note_on_c, 9, 36, 0
3, 26759, Note_on_c, 9, 40, 85
3, 26761, Note_on_c, 9, 51, 104
3, 26777, Note_on_c, 9, 51, 0
3, 26782, Note_on_c, 9, 40, 0
3, 26821, Note_on_c, 9, 51, 71
3, 26832, Note_on_c, 9, 51, 0
3, 26851, Note_on_c, 9, 51, 60
3, 26862, Note_on_c, 9, 51, 0
3, 26882, Note_on_c, 9, 36, 97
3, 26882, Note_on_c, 9, 51, 84
3, 26899, Note_on_c, 9, 51, 0
3, 26903, Note_on_c, 9, 36, 0
3, 26912, Note_on_c, 9, 51, 64
3, 26925, Note_on_c, 9, 51, 0
3, 26942, Note_on_c, 9, 51, 70
3, 26959, Note_on_c, 9, 51, 0
3, 27001, Note_on_c, 9, 40, 85
3, 27002, Note_on_c, 9, 51, 104
3, 27014, Note_on_c, 9, 40, 0
3, 27024, Note_on_c, 9, 51, 0
3, 27063, Note_on_c, 9, 51, 94
3, 27085, Note_on_c, 9, 51, 0
3, 27123, Note_on_c, 9, 51, 85
3, 27135, Note_on_c, 9, 51, 0
3, 27179, Note_on_c, 9, 51, 94
3, 27195, Note_on_c, 9, 51, 0
3, 27241, Note_on_c, 9, 40, 85
3, 27242, Note_on_c, 9, 51, 89
3, 27254, Note_on_c, 9, 40, 0
3, 27260, Note_on_c, 9, 51, 0
3, 27272, Note_on_c, 9, 36, 127
3, 27297, Note_on_c, 9, 36, 0
3, 27301, Note_on_c, 9, 51, 94
3, 27315, Note_on_c, 9, 51, 0
3, 27331, Note_on_c, 9, 36, 70
3, 27339, Note_on_c, 9, 36, 0
3, 27361, Note_on_c, 9, 36, 124
3, 27362, Note_on_c, 9, 51, 104
3, 27385, Note_on_c, 9, 51, 0
3, 27389, Note_on_c, 9, 36, 0
3, 27419, Note_on_c, 9, 51, 75
3, 27436, Note_on_c, 9, 51, 0
3, 27482, Note_on_c, 9, 40, 97
3, 27482, Note_on_c, 9, 51, 104
3, 27501, Note_on_c, 9, 40, 0
3, 27502, Note_on_c, 9, 51, 0
3, 27543, Note_on_c, 9, 51, 82
3, 27556, Note_on_c, 9, 51, 0
3, 27573, Note_on_c, 9, 51, 63
3, 27586, Note_on_c, 9, 51, 0
3, 27603, Note_on_c, 9, 51, 74
3, 27624, Note_on_c, 9, 51, 0
3, 27632, Note_on_c, 9, 36, 75
3, 27658, Note_on_c, 9, 36, 0
3, 27662, Note_on_c, 9, 51, 85
3, 27679, Note_on_c, 9, 51, 0
3, 27723, Note_on_c, 9, 40, 94
3, 27723, Note_on_c, 9, 51, 97
3, 27744, Note_on_c, 9, 51, 0
3, 27748, Note_on_c, 9, 40, 0
3, 27783, Note_on_c, 9, 51, 74
3, 27798, Note_on_c, 9, 51, 0
3, 27842, Note_on_c, 9, 51, 75
3, 27842, Note_on_c, 9, 36, 110
3, 27863, Note_on_c, 9, 51, 0
3, 27873, Note_on_c, 9, 53, 69
3, 27891, Note_on_c, 9, 53, 0
3, 27900, Note_on_c, 9, 36, 0
3, 27925, Note_on_c, 9, 51, 74
3, 27934, Note_on_c, 9, 36, 68
3, 27942, Note_on_c, 9, 51, 0
3, 27950, Note_on_c, 9, 36, 0
3, 27964, Note_on_c, 9, 51, 70
3, 27978, Note_on_c, 9, 51, 0
3, 27993, Note_on_c, 9, 36, 89
3, 28002, Note_on_c, 9, 36, 0
3, 28023, Note_on_c, 9, 40, 94
3, 28023, Note_on_c, 9, 51, 89
3, 28023, Note_on_c, 9, 53, 84
3, 28041, Note_on_c, 9, 53, 0
3, 28041, Note_on_c, 9, 51, 0
3, 28060, Note_on_c, 9, 40, 0
3, 28082, Note_on_c, 9, 51, 73
3, 28099, Note_on_c, 9, 51, 0
3, 28121, Note_on_c, 9, 36, 127
3, 28136, Note_on_c, 9, 36, 0
3, 28142, Note_on_c, 9, 51, 75
3, 28153, Note_on_c, 9, 51, 0
3, 28160, Note_on_c, 9, 40, 72
3, 28171, Note_on_c, 9, 40, 0
3, 28179, Note_on_c, 9, 46, 84
3, 28189, Note_on_c, 9, 46, 0
3, 28199, Note_on_c, 9, 40, 82
3, 28213, Note_on_c, 9, 40, 0
3, 28219, Note_on_c, 9, 46, 94
3, 28233, Note_on_c, 9, 46, 0
3, 28238, Note_on_c, 9, 44, 104
3, 28252, Note_on_c, 9, 44, 0
3, 28261, Note_on_c, 9, 45, 94
3, 28274, Note_on_c, 9, 45, 0
3, 28280, Note_on_c, 9, 41, 97
3, 28281, Note_on_c, 9, 43, 97
3, 28289, Note_on_c, 9, 43, 0
3, 28289, Note_on_c, 9, 41, 0
3, 28299, Note_on_c, 9, 41, 94
3, 28308, Note_on_c, 9, 41, 0
3, 28320, Note_on_c, 9, 57, 77
3, 28321, Note_on_c, 9, 59, 94
3, 28321, Note_on_c, 9, 36, 89
3, 28337, Note_on_c, 9, 59, 0
3, 28337, Note_on_c, 9, 57, 0
3, 28340, Note_on_c, 9, 36, 0
3, 28380, Note_on_c, 9, 59, 69
3, 28397, Note_on_c, 9, 59, 0
3, 28439, Note_on_c, 9, 40, 79
3, 28440, Note_on_c, 9, 59, 97
3, 28458, Note_on_c, 9, 40, 0
3, 28459, Note_on_c, 9, 59, 0
3, 28500, Note_on_c, 9, 59, 89
3, 28517, Note_on_c, 9, 59, 0
3, 28530, Note_on_c, 9, 59, 62
3, 28544, Note_on_c, 9, 59, 0
3, 28560, Note_on_c, 9, 59, 63
3, 28575, Note_on_c, 9, 59, 0
3, 28588, Note_on_c, 9, 59, 58
3, 28599, Note_on_c, 9, 59, 0
3, 28619, Note_on_c, 9, 36, 85
3, 28619, Note_on_c, 9, 59, 72
3, 28639, Note_on_c, 9, 59, 0
3, 28644, Note_on_c, 9, 36, 0
3, 28679, Note_on_c, 9, 40, 84
3, 28679, Note_on_c, 9, 59, 104
3, 28703, Note_on_c, 9, 59, 0
3, 28704, Note_on_c, 9, 40, 0
3, 28741, Note_on_c, 9, 59, 69
3, 28760, Note_on_c, 9, 59, 0
3, 28770, Note_on_c, 9, 59, 58
3, 28785, Note_on_c, 9, 59, 0
3, 28800, Note_on_c, 9, 59, 72
3, 28801, Note_on_c, 9, 36, 94
3, 28824, Note_on_c, 9, 36, 0
3, 28825, Note_on_c, 9, 59, 0
3, 28859, Note_on_c, 9, 59, 70
3, 28876, Note_on_c, 9, 59, 0
3, 28921, Note_on_c, 9, 40, 84
3, 28922, Note_on_c, 9, 59, 94
3, 28942, Note_on_c, 9, 59, 0
3, 28943, Note_on_c, 9, 40, 0
3, 28982, Note_on_c, 9, 59, 67
3, 28997, Note_on_c, 9, 59, 0
3, 29012, Note_on_c, 9, 59, 58
3, 29026, Note_on_c, 9, 59, 0
3, 29042, Note_on_c, 9, 59, 61
3, 29063, Note_on_c, 9, 59, 0
3, 29071, Note_on_c, 9, 36, 75
3, 29094, Note_on_c, 9, 36, 0
3, 29101, Note_on_c, 9, 59, 69
3, 29120, Note_on_c, 9, 59, 0
3, 29131, Note_on_c, 9, 36, 71
3, 29137, Note_on_c, 9, 36, 0
3, 29159, Note_on_c, 9, 40, 84
3, 29159, Note_on_c, 9, 59, 82
3, 29187, Note_on_c, 9, 59, 0
3, 29190, Note_on_c, 9, 40, 0
3, 29220, Note_on_c, 9, 59, 73
3, 29236, Note_on_c, 9, 59, 0
3, 29251, Note_on_c, 9, 59, 60
3, 29263, Note_on_c, 9, 59, 0
3, 29281, Note_on_c, 9, 36, 89
3, 29281, Note_on_c, 9, 59, 70
3, 29304, Note_on_c, 9, 59, 0
3, 29311, Note_on_c, 9, 36, 0
3, 29339, Note_on_c, 9, 59, 70
3, 29358, Note_on_c, 9, 59, 0
3, 29400, Note_on_c, 9, 40, 82
3, 29401, Note_on_c, 9, 59, 85
3, 29422, Note_on_c, 9, 59, 0
3, 29423, Note_on_c, 9, 40, 0
3, 29459, Note_on_c, 9, 59, 68
3, 29474, Note_on_c, 9, 59, 0
3, 29489, Note_on_c, 9, 59, 59
3, 29504, Note_on_c, 9, 59, 0
3, 29519, Note_on_c, 9, 59, 68
3, 29546, Note_on_c, 9, 59, 0
3, 29549, Note_on_c, 9, 36, 94
3, 29572, Note_on_c, 9, 36, 0
3, 29579, Note_on_c, 9, 59, 68
3, 29596, Note_on_c, 9, 59, 0
3, 29639, Note_on_c, 9, 40, 89
3, 29640, Note_on_c, 9, 59, 79
3, 29663, Note_on_c, 9, 59, 0
3, 29663, Note_on_c, 9, 40, 0
3, 29701, Note_on_c, 9, 59, 61
3, 29720, Note_on_c, 9, 59, 0
3, 29731, Note_on_c, 9, 36, 70
3, 29740, Note_on_c, 9, 36, 0
3, 29761, Note_on_c, 9, 36, 94
3, 29761, Note_on_c, 9, 59, 77
3, 29785, Note_on_c, 9, 59, 0
3, 29792, Note_on_c, 9, 36, 0
3, 29821, Note_on_c, 9, 59, 68
3, 29842, Note_on_c, 9, 59, 0
3, 29850, Note_on_c, 9, 36, 73
3, 29861, Note_on_c, 9, 36, 0
3, 29881, Note_on_c, 9, 59, 74
3, 29881, Note_on_c, 9, 40, 89
3, 29900, Note_on_c, 9, 59, 0
3, 29901, Note_on_c, 9, 40, 0
3, 29941, Note_on_c, 9, 41, 110
3, 29941, Note_on_c, 9, 59, 89
3, 29941, Note_on_c, 9, 57, 97
3, 29953, Note_on_c, 9, 57, 0
3, 29961, Note_on_c, 9, 59, 0
3, 29962, Note_on_c, 9, 41, 0
3, 29999, Note_on_c, 9, 59, 69
3, 30014, Note_on_c, 9, 59, 0
3, 30015, Note_on_c, 9, 40, 85
3, 30026, Note_on_c, 9, 40, 0
3, 30037, Note_on_c, 9, 59, 79
3, 30039, Note_on_c, 9, 57, 72
3, 30048, Note_on_c, 9, 57, 0
3, 30051, Note_on_c, 9, 59, 0
3, 30057, Note_on_c, 9, 45, 124
3, 30069, Note_on_c, 9, 45, 0
3, 30077, Note_on_c, 9, 59, 72
3, 30078, Note_on_c, 9, 57, 70
3, 30087, Note_on_c, 9, 57, 0
3, 30088, Note_on_c, 9, 59, 0
3, 30098, Note_on_c, 9, 47, 104
3, 30099, Note_on_c, 9, 48, 82
3, 30105, Note_on_c, 9, 48, 0
3, 30108, Note_on_c, 9, 47, 0
3, 30120, Note_on_c, 9, 50, 77
3, 30130, Note_on_c, 9, 50, 0
3, 30141, Note_on_c, 9, 45, 94
3, 30142, Note_on_c, 9, 47, 79
3, 30146, Note_on_c, 9, 47, 0
3, 30148, Note_on_c, 9, 45, 0
3, 30161, Note_on_c, 9, 47, 104
3, 30173, Note_on_c, 9, 47, 0
3, 30181, Note_on_c, 9, 41, 127
3, 30182, Note_on_c, 9, 40, 120
3, 30191, Note_on_c, 9, 40, 0
3, 30194, Note_on_c, 9, 41, 0
3, 30202, Note_on_c, 9, 41, 97
3, 30203, Note_on_c, 9, 40, 79
3, 30210, Note_on_c, 9, 40, 0
3, 30210, Note_on_c, 9, 41, 0
3, 30225, Note_on_c, 9, 40, 110
3, 30226, Note_on_c, 9, 38, 104
3, 30229, Note_on_c, 9, 38, 0
3, 30232, Note_on_c, 9, 40, 0
3, 30242, Note_on_c, 9, 36, 127
3, 30243, Note_on_c, 9, 51, 110
3, 30243, Note_on_c, 9, 49, 124
3, 30254, Note_on_c, 9, 49, 0
3, 30256, Note_on_c, 9, 51, 0
3, 30264, Note_on_c, 9, 36, 0
3, 30302, Note_on_c, 9, 51, 79
3, 30317, Note_on_c, 9, 51, 0
3, 30363, Note_on_c, 9, 40, 104
3, 30364, Note_on_c, 9, 51, 104
3, 30381, Note_on_c, 9, 40, 0
3, 30385, Note_on_c, 9, 51, 0
3, 30422, Note_on_c, 9, 51, 67
3, 30438, Note_on_c, 9, 51, 0
3, 30453, Note_on_c, 9, 51, 68
3, 30464, Note_on_c, 9, 51, 0
3, 30482, Note_on_c, 9, 51, 82
3, 30498, Note_on_c, 9, 51, 0
3, 30512, Note_on_c, 9, 36, 61
3, 30536, Note_on_c, 9, 36, 0
3, 30541, Note_on_c, 9, 51, 89
3, 30556, Note_on_c, 9, 51, 0
3, 30601, Note_on_c, 9, 40, 94
3, 30602, Note_on_c, 9, 51, 110
3, 30624, Note_on_c, 9, 51, 0
3, 30625, Note_on_c, 9, 40, 0
3, 30663, Note_on_c, 9, 51, 77
3, 30678, Note_on_c, 9, 51, 0
3, 30693, Note_on_c, 9, 53, 69
3, 30708, Note_on_c, 9, 53, 0
3, 30722, Note_on_c, 9, 36, 94
3, 30752, Note_on_c, 9, 51, 62
3, 30762, Note_on_c, 9, 36, 0
3, 30763, Note_on_c, 9, 51, 0
3, 30782, Note_on_c, 9, 51, 68
3, 30803, Note_on_c, 9, 51, 0
3, 30811, Note_on_c, 9, 36, 85
3, 30823, Note_on_c, 9, 36, 0
3, 30841, Note_on_c, 9, 51, 97
3, 30842, Note_on_c, 9, 40, 84
3, 30863, Note_on_c, 9, 51, 0
3, 30864, Note_on_c, 9, 40, 0
3, 30901, Note_on_c, 9, 51, 73
3, 30914, Note_on_c, 9, 51, 0
3, 30931, Note_on_c, 9, 51, 58
3, 30944, Note_on_c, 9, 51, 0
3, 30962, Note_on_c, 9, 51, 68
3, 30981, Note_on_c, 9, 51, 0
3, 30991, Note_on_c, 9, 36, 77
3, 31014, Note_on_c, 9, 36, 0
3, 31022, Note_on_c, 9, 51, 71
3, 31037, Note_on_c, 9, 51, 0
3, 31050, Note_on_c, 9, 51, 63
3, 31063, Note_on_c, 9, 51, 0
3, 31080, Note_on_c, 9, 40, 89
3, 31082, Note_on_c, 9, 51, 84
3, 31107, Note_on_c, 9, 51, 0
3, 31108, Note_on_c, 9, 40, 0
3, 31141, Note_on_c, 9, 51, 89
3, 31160, Note_on_c, 9, 51, 0
3, 31171, Note_on_c, 9, 51, 63
3, 31185, Note_on_c, 9, 51, 0
3, 31201, Note_on_c, 9, 36, 82
3, 31202, Note_on_c, 9, 51, 69
3, 31223, Note_on_c, 9, 51, 0
3, 31224, Note_on_c, 9, 36, 0
3, 31260, Note_on_c, 9, 51, 70
3, 31274, Note_on_c, 9, 51, 0
3, 31322, Note_on_c, 9, 40, 94
3, 31322, Note_on_c, 9, 51, 104
3, 31341, Note_on_c, 9, 51, 0
3, 31344, Note_on_c, 9, 40, 0
3, 31382, Note_on_c, 9, 51, 79
3, 31394, Note_on_c, 9, 51, 0
3, 31412, Note_on_c, 9, 51, 56
3, 31423, Note_on_c, 9, 51, 0
3, 31441, Note_on_c, 9, 51, 74
3, 31462, Note_on_c, 9, 51, 0
3, 31472, Note_on_c, 9, 36, 82
3, 31496, Note_on_c, 9, 36, 0
3, 31502, Note_on_c, 9, 51, 61
3, 31510, Note_on_c, 9, 51, 0
3, 31562, Note_on_c, 9, 40, 89
3, 31562, Note_on_c, 9, 51, 104
3, 31581, Note_on_c, 9, 51, 0
3, 31590, Note_on_c, 9, 40, 0
3, 31623, Note_on_c, 9, 51, 65
3, 31633, Note_on_c, 9, 51, 0
3, 31651, Note_on_c, 9, 51, 65
3, 31663, Note_on_c, 9, 51, 0
3, 31681, Note_on_c, 9, 36, 85
3, 31682, Note_on_c, 9, 51, 69
3, 31695, Note_on_c, 9, 51, 0
3, 31701, Note_on_c, 9, 36, 0
3, 31740, Note_on_c, 9, 36, 85
3, 31741, Note_on_c, 9, 51, 79
3, 31751, Note_on_c, 9, 51, 0
3, 31755, Note_on_c, 9, 36, 0
3, 31798, Note_on_c, 9, 40, 94
3, 31799, Note_on_c, 9, 51, 89
3, 31813, Note_on_c, 9, 51, 0
3, 31813, Note_on_c, 9, 40, 0
3, 31857, Note_on_c, 9, 40, 124
3, 31858, Note_on_c, 9, 51, 104
3, 31871, Note_on_c, 9, 40, 0
3, 31877, Note_on_c, 9, 51, 0
3, 31891, Note_on_c, 9, 40, 82
3, 31903, Note_on_c, 9, 40, 0
3, 31912, Note_on_c, 9, 51, 68
3, 31921, Note_on_c, 9, 51, 0
3, 31935, Note_on_c, 9, 40, 97
3, 31944, Note_on_c, 9, 40, 0
3, 31954, Note_on_c, 9, 51, 73
3, 31963, Note_on_c, 9, 51, 0
3, 31975, Note_on_c, 9, 45, 127
3, 31977, Note_on_c, 9, 43, 77
3, 31979, Note_on_c, 9, 43, 0
3, 31990, Note_on_c, 9, 45, 0
3, 31997, Note_on_c, 9, 47, 82
3, 32008, Note_on_c, 9, 47, 0
3, 32017, Note_on_c, 9, 43, 70
3, 32028, Note_on_c, 9, 43, 0
3, 32040, Note_on_c, 9, 45, 94
3, 32052, Note_on_c, 9, 45, 0
3, 32058, Note_on_c, 9, 41, 79
3, 32066, Note_on_c, 9, 41, 0
3, 32078, Note_on_c, 9, 41, 104
3, 32091, Note_on_c, 9, 41, 0
3, 32100, Note_on_c, 9, 40, 127
3, 32117, Note_on_c, 9, 40, 0
3, 32122, Note_on_c, 9, 40, 124
3, 32134, Note_on_c, 9, 40, 0
3, 32143, Note_on_c, 9, 36, 127
3, 32160, Note_on_c, 9, 36, 0
3, 32162, Note_on_c, 9, 36, 85
3, 32162, Note_on_c, 9, 57, 94
3, 32163, Note_on_c, 9, 55, 97
3, 32163, Note_on_c, 9, 59, 85
3, 32173, Note_on_c, 9, 55, 0
3, 32175, Note_on_c, 9, 36, 0
3, 32175, Note_on_c, 9, 57, 0
3, 32175, Note_on_c, 9, 59, 0
3, 32223, Note_on_c, 9, 59, 69
3, 32234, Note_on_c, 9, 59, 0
3, 32259, Note_on_c, 9, 36, 104
3, 32269, Note_on_c, 9, 36, 0
3, 32281, Note_on_c, 9, 40, 73
3, 32282, Note_on_c, 9, 59, 104
3, 32305, Note_on_c, 9, 40, 0
3, 32308, Note_on_c, 9, 59, 0
3, 32342, Note_on_c, 9, 59, 70
3, 32357, Note_on_c, 9, 59, 0
3, 32379, Note_on_c, 9, 59, 58
3, 32390, Note_on_c, 9, 59, 0
3, 32402, Note_on_c, 9, 59, 62
3, 32422, Note_on_c, 9, 59, 0
3, 32438, Note_on_c, 9, 36, 85
3, 32455, Note_on_c, 9, 36, 0
3, 32461, Note_on_c, 9, 59, 64
3, 32474, Note_on_c, 9, 59, 0
3, 32521, Note_on_c, 9, 40, 77
3, 32521, Note_on_c, 9, 59, 85
3, 32541, Note_on_c, 9, 59, 0
3, 32541, Note_on_c, 9, 40, 0
3, 32581, Note_on_c, 9, 59, 72
3, 32599, Note_on_c, 9, 59, 0
3, 32641, Note_on_c, 9, 36, 74
3, 32642, Note_on_c, 9, 59, 73
3, 32662, Note_on_c, 9, 59, 0
3, 32664, Note_on_c, 9, 36, 0
3, 32701, Note_on_c, 9, 59, 65
3, 32721, Note_on_c, 9, 59, 0
3, 32762, Note_on_c, 9, 59, 79
3, 32762, Note_on_c, 9, 40, 89
3, 32780, Note_on_c, 9, 40, 0
3, 32785, Note_on_c, 9, 59, 0
3, 32821, Note_on_c, 9, 59, 58
3, 32839, Note_on_c, 9, 59, 0
3, 32859, Note_on_c, 9, 59, 55
3, 32872, Note_on_c, 9, 59, 0
3, 32881, Note_on_c, 9, 59, 68
3, 32905, Note_on_c, 9, 59, 0
3, 32940, Note_on_c, 9, 36, 94
3, 32941, Note_on_c, 9, 59, 73
3, 32964, Note_on_c, 9, 59, 0
3, 32968, Note_on_c, 9, 36, 0
3, 33001, Note_on_c, 9, 40, 82
3, 33001, Note_on_c, 9, 59, 79
3, 33023, Note_on_c, 9, 59, 0
3, 33025, Note_on_c, 9, 40, 0
3, 33062, Note_on_c, 9, 59, 67
3, 33076, Note_on_c, 9, 59, 0
3, 33097, Note_on_c, 9, 59, 56
3, 33110, Note_on_c, 9, 59, 0
3, 33122, Note_on_c, 9, 59, 72
3, 33122, Note_on_c, 9, 36, 85
3, 33146, Note_on_c, 9, 59, 0
3, 33150, Note_on_c, 9, 36, 0
3, 33180, Note_on_c, 9, 59, 64
3, 33199, Note_on_c, 9, 59, 0
3, 33242, Note_on_c, 9, 40, 85
3, 33242, Note_on_c, 9, 59, 79
3, 33264, Note_on_c, 9, 59, 0
3, 33265, Note_on_c, 9, 40, 0
3, 33301, Note_on_c, 9, 59, 69
3, 33318, Note_on_c, 9, 59, 0
3, 33341, Note_on_c, 9, 59, 54
3, 33347, Note_on_c, 9, 59, 0
3, 33360, Note_on_c, 9, 59, 70
3, 33380, Note_on_c, 9, 59, 0
3, 33420, Note_on_c, 9, 59, 75
3, 33421, Note_on_c, 9, 36, 89
3, 33442, Note_on_c, 9, 59, 0
3, 33448, Note_on_c, 9, 36, 0
3, 33481, Note_on_c, 9, 59, 89
3, 33504, Note_on_c, 9, 59, 0
3, 33540, Note_on_c, 9, 40, 97
3, 33541, Note_on_c, 9, 59, 94
3, 33559, Note_on_c, 9, 40, 0
3, 33561, Note_on_c, 9, 59, 0
3, 33601, Note_on_c, 9, 59, 89
3, 33601, Note_on_c, 9, 36, 110
3, 33601, Note_on_c, 9, 57, 89
3, 33610, Note_on_c, 9, 57, 0
3, 33614, Note_on_c, 9, 36, 0
3, 33621, Note_on_c, 9, 59, 0
3, 33641, Note_on_c, 9, 36, 97
3, 33655, Note_on_c, 9, 36, 0
3, 33661, Note_on_c, 9, 59, 89
3, 33676, Note_on_c, 9, 59, 0
3, 33681, Note_on_c, 9, 40, 73
3, 33689, Note_on_c, 9, 40, 0
3, 33701, Note_on_c, 9, 59, 75
3, 33701, Note_on_c, 9, 57, 82
3, 33711, Note_on_c, 9, 57, 0
3, 33713, Note_on_c, 9, 59, 0
3, 33721, Note_on_c, 9, 40, 127
3, 33737, Note_on_c, 9, 40, 0
3, 33740, Note_on_c, 9, 59, 85
3, 33741, Note_on_c, 9, 57, 77
3, 33751, Note_on_c, 9, 57, 0
3, 33752, Note_on_c, 9, 59, 0
3, 33761, Note_on_c, 9, 45, 74
3, 33771, Note_on_c, 9, 45, 0
3, 33780, Note_on_c, 9, 50, 67
3, 33790, Note_on_c, 9, 50, 0
3, 33801, Note_on_c, 9, 43, 104
3, 33812, Note_on_c, 9, 43, 0
3, 33820, Note_on_c, 9, 45, 84
3, 33821, Note_on_c, 9, 47, 73
3, 33824, Note_on_c, 9, 47, 0
3, 33830, Note_on_c, 9, 45, 0
3, 33839, Note_on_c, 9, 40, 127
3, 33854, Note_on_c, 9, 40, 0
3, 33860, Note_on_c, 9, 40, 75
3, 33867, Note_on_c, 9, 40, 0
3, 33879, Note_on_c, 9, 36, 127
3, 33891, Note_on_c, 9, 36, 0
3, 33898, Note_on_c, 9, 49, 82
3, 33902, Note_on_c, 9, 49, 0
3, 33919, Note_on_c, 9, 36, 120
3, 33930, Note_on_c, 9, 36, 0
3, 33938, Note_on_c, 9, 51, 84
3, 33938, Note_on_c, 9, 49, 82
3, 33944, Note_on_c, 9, 49, 0
3, 33946, Note_on_c, 9, 51, 0
3, 33958, Note_on_c, 9, 40, 124
3, 33975, Note_on_c, 9, 40, 0
3, 33978, Note_on_c, 9, 51, 89
3, 33978, Note_on_c, 9, 49, 97
3, 33989, Note_on_c, 9, 49, 0
3, 33989, Note_on_c, 9, 51, 0
3, 33998, Note_on_c, 9, 45, 79
3, 34009, Note_on_c, 9, 45, 0
3, 34021, Note_on_c, 9, 47, 82
3, 34032, Note_on_c, 9, 47, 0
3, 34057, Note_on_c, 9, 45, 97
3, 34058, Note_on_c, 9, 43, 84
3, 34061, Note_on_c, 9, 43, 0
3, 34067, Note_on_c, 9, 45, 0
3, 34079, Note_on_c, 9, 51, 104
3, 34079, Note_on_c, 9, 49, 110
3, 34079, Note_on_c, 9, 36, 120
3, 34091, Note_on_c, 9, 49, 0
3, 34094, Note_on_c, 9, 51, 0
3, 34097, Note_on_c, 9, 36, 0
3, 34138, Note_on_c, 9, 51, 70
3, 34150, Note_on_c, 9, 51, 0
3, 34198, Note_on_c, 9, 40, 77
3, 34198, Note_on_c, 9, 51, 104
3, 34211, Note_on_c, 9, 51, 0
3, 34213, Note_on_c, 9, 40, 0
3, 34261, Note_on_c, 9, 51, 70
3, 34274, Note_on_c, 9, 51, 0
3, 34319, Note_on_c, 9, 51, 71
3, 34331, Note_on_c, 9, 51, 0
3, 34349, Note_on_c, 9, 36, 70
3, 34363, Note_on_c, 9, 36, 0
3, 34378, Note_on_c, 9, 36, 72
3, 34381, Note_on_c, 9, 51, 84
3, 34397, Note_on_c, 9, 36, 0
3, 34399, Note_on_c, 9, 51, 0
3, 34441, Note_on_c, 9, 51, 94
3, 34442, Note_on_c, 9, 40, 74
3, 34459, Note_on_c, 9, 51, 0
3, 34461, Note_on_c, 9, 40, 0
3, 34501, Note_on_c, 9, 51, 68
3, 34516, Note_on_c, 9, 51, 0
3, 34532, Note_on_c, 9, 51, 56
3, 34542, Note_on_c, 9, 51, 0
3, 34562, Note_on_c, 9, 36, 94
3, 34562, Note_on_c, 9, 51, 73
3, 34583, Note_on_c, 9, 51, 0
3, 34587, Note_on_c, 9, 36, 0
3, 34621, Note_on_c, 9, 51, 69
3, 34634, Note_on_c, 9, 51, 0
3, 34683, Note_on_c, 9, 51, 89
3, 34683, Note_on_c, 9, 40, 75
3, 34699, Note_on_c, 9, 51, 0
3, 34700, Note_on_c, 9, 40, 0
3, 34742, Note_on_c, 9, 51, 62
3, 34752, Note_on_c, 9, 51, 0
3, 34772, Note_on_c, 9, 51, 55
3, 34783, Note_on_c, 9, 51, 0
3, 34801, Note_on_c, 9, 51, 68
3, 34821, Note_on_c, 9, 51, 0
3, 34859, Note_on_c, 9, 36, 94
3, 34860, Note_on_c, 9, 51, 79
3, 34876, Note_on_c, 9, 51, 0
3, 34883, Note_on_c, 9, 36, 0
3, 34921, Note_on_c, 9, 40, 79
3, 34921, Note_on_c, 9, 51, 94
3, 34940, Note_on_c, 9, 40, 0
3, 34942, Note_on_c, 9, 51, 0
3, 34980, Note_on_c, 9, 51, 77
3, 34996, Note_on_c, 9, 51, 0
3, 35041, Note_on_c, 9, 36, 89
3, 35042, Note_on_c, 9, 51, 85
3, 35061, Note_on_c, 9, 51, 0
3, 35062, Note_on_c, 9, 36, 0
3, 35102, Note_on_c, 9, 51, 60
3, 35114, Note_on_c, 9, 51, 0
3, 35162, Note_on_c, 9, 40, 73
3, 35162, Note_on_c, 9, 51, 85
3, 35181, Note_on_c, 9, 51, 0
3, 35184, Note_on_c, 9, 40, 0
3, 35223, Note_on_c, 9, 51, 64
3, 35236, Note_on_c, 9, 51, 0
3, 35253, Note_on_c, 9, 51, 54
3, 35265, Note_on_c, 9, 51, 0
3, 35281, Note_on_c, 9, 51, 61
3, 35299, Note_on_c, 9, 51, 0
3, 35340, Note_on_c, 9, 36, 82
3, 35341, Note_on_c, 9, 51, 77
3, 35357, Note_on_c, 9, 51, 0
3, 35361, Note_on_c, 9, 36, 0
3, 35400, Note_on_c, 9, 40, 72
3, 35402, Note_on_c, 9, 51, 85
3, 35421, Note_on_c, 9, 51, 0
3, 35421, Note_on_c, 9, 40, 0
3, 35462, Note_on_c, 9, 51, 59
3, 35474, Note_on_c, 9, 51, 0
3, 35491, Note_on_c, 9, 51, 53
3, 35503, Note_on_c, 9, 51, 0
3, 35522, Note_on_c, 9, 36, 82
3, 35522, Note_on_c, 9, 51, 66
3, 35543, Note_on_c, 9, 51, 0
3, 35544, Note_on_c, 9, 36, 0
3, 35579, Note_on_c, 9, 51, 61
3, 35595, Note_on_c, 9, 51, 0
3, 35641, Note_on_c, 9, 40, 73
3, 35641, Note_on_c, 9, 51, 84
3, 35663, Note_on_c, 9, 51, 0
3, 35664, Note_on_c, 9, 40, 0
3, 35701, Note_on_c, 9, 51, 56
3, 35712, Note_on_c, 9, 51, 0
3, 35732, Note_on_c, 9, 51, 68
3, 35745, Note_on_c, 9, 51, 0
3, 35761, Note_on_c, 9, 51, 69
3, 35783, Note_on_c, 9, 51, 0
3, 35791, Note_on_c, 9, 36, 104
3, 35808, Note_on_c, 9, 36, 0
3, 35819, Note_on_c, 9, 51, 72
3, 35833, Note_on_c, 9, 51, 0
3, 35849, Note_on_c, 9, 43, 82
3, 35849, Note_on_c, 9, 41, 82
3, 35868, Note_on_c, 9, 41, 0
3, 35870, Note_on_c, 9, 43, 0
3, 35878, Note_on_c, 9, 51, 69
3, 35891, Note_on_c, 9, 51, 0
3, 35909, Note_on_c, 9, 41, 85
3, 35909, Note_on_c, 9, 43, 79
3, 35910, Note_on_c, 9, 45, 84
3, 35923, Note_on_c, 9, 41, 0
3, 35924, Note_on_c, 9, 45, 0
3, 35925, Note_on_c, 9, 43, 0
3, 35939, Note_on_c, 9, 51, 70
3, 35955, Note_on_c, 9, 51, 0
3, 35969, Note_on_c, 9, 43, 82
3, 35969, Note_on_c, 9, 45, 71
3, 35969, Note_on_c, 9, 47, 64
3, 35971, Note_on_c, 9, 47, 0
3, 35975, Note_on_c, 9, 45, 0
3, 35977, Note_on_c, 9, 43, 0
3, 35999, Note_on_c, 9, 51, 85
3, 35999, Note_on_c, 9, 49, 85
3, 35999, Note_on_c, 9, 36, 127
3, 36001, Note_on_c, 9, 51, 85
3, 36002, Note_on_c, 9, 36, 127
3, 36011, Note_on_c, 9, 49, 0
3, 36012, Note_on_c, 9, 36, 0
3, 36017, Note_on_c, 9, 51, 0
3, 36020, Note_on_c, 9, 51, 0
3, 36031, Note_on_c, 9, 36, 0
3, 36061, Note_on_c, 9, 51, 67
3, 36076, Note_on_c, 9, 51, 0
3, 36121, Note_on_c, 9, 40, 89
3, 36122, Note_on_c, 9, 51, 97
3, 36135, Note_on_c, 9, 51, 0
3, 36137, Note_on_c, 9, 40, 0
3, 36182, Note_on_c, 9, 51, 69
3, 36192, Note_on_c, 9, 51, 0
3, 36211, Note_on_c, 9, 51, 56
3, 36223, Note_on_c, 9, 51, 0
3, 36241, Note_on_c, 9, 51, 69
3, 36259, Note_on_c, 9, 51, 0
3, 36271, Note_on_c, 9, 36, 89
3, 36293, Note_on_c, 9, 36, 0
3, 36301, Note_on_c, 9, 51, 72
3, 36316, Note_on_c, 9, 51, 0
3, 36361, Note_on_c, 9, 40, 77
3, 36362, Note_on_c, 9, 51, 94
3, 36382, Note_on_c, 9, 51, 0
3, 36388, Note_on_c, 9, 40, 0
3, 36422, Note_on_c, 9, 51, 70
3, 36436, Note_on_c, 9, 51, 0
3, 36481, Note_on_c, 9, 36, 72
3, 36481, Note_on_c, 9, 51, 84
3, 36500, Note_on_c, 9, 36, 0
3, 36501, Note_on_c, 9, 51, 0
3, 36541, Note_on_c, 9, 51, 69
3, 36556, Note_on_c, 9, 51, 0
3, 36601, Note_on_c, 9, 40, 77
3, 36601, Note_on_c, 9, 51, 85
3, 36622, Note_on_c, 9, 51, 0
3, 36632, Note_on_c, 9, 40, 0
3, 36632, Note_on_c, 9, 51, 61
3, 36646, Note_on_c, 9, 51, 0
3, 36692, Note_on_c, 9, 51, 61
3, 36706, Note_on_c, 9, 51, 0
3, 36719, Note_on_c, 9, 51, 69
3, 36737, Note_on_c, 9, 51, 0
3, 36748, Note_on_c, 9, 51, 62
3, 36762, Note_on_c, 9, 51, 0
3, 36779, Note_on_c, 9, 51, 74
3, 36779, Note_on_c, 9, 36, 104
3, 36799, Note_on_c, 9, 51, 0
3, 36805, Note_on_c, 9, 36, 0
3, 36839, Note_on_c, 9, 40, 79
3, 36840, Note_on_c, 9, 51, 104
3, 36859, Note_on_c, 9, 51, 0
3, 36862, Note_on_c, 9, 40, 0
3, 36902, Note_on_c, 9, 51, 73
3, 36918, Note_on_c, 9, 51, 0
3, 36961, Note_on_c, 9, 36, 97
3, 36962, Note_on_c, 9, 51, 89
3, 36980, Note_on_c, 9, 51, 0
3, 36982, Note_on_c, 9, 36, 0
3, 37021, Note_on_c, 9, 51, 68
3, 37034, Note_on_c, 9, 51, 0
3, 37081, Note_on_c, 9, 40, 79
3, 37082, Note_on_c, 9, 51, 89
3, 37100, Note_on_c, 9, 40, 0
3, 37101, Note_on_c, 9, 51, 0
3, 37142, Note_on_c, 9, 51, 58
3, 37152, Note_on_c, 9, 51, 0
3, 37172, Note_on_c, 9, 51, 57
3, 37184, Note_on_c, 9, 51, 0
3, 37201, Note_on_c, 9, 51, 72
3, 37222, Note_on_c, 9, 51, 0
3, 37261, Note_on_c, 9, 36, 94
3, 37261, Note_on_c, 9, 51, 74
3, 37275, Note_on_c, 9, 51, 0
3, 37284, Note_on_c, 9, 36, 0
3, 37322, Note_on_c, 9, 40, 79
3, 37322, Note_on_c, 9, 51, 84
3, 37342, Note_on_c, 9, 40, 0
3, 37344, Note_on_c, 9, 51, 0
3, 37382, Note_on_c, 9, 51, 47
3, 37389, Note_on_c, 9, 51, 0
3, 37442, Note_on_c, 9, 51, 68
3, 37443, Note_on_c, 9, 36, 110
3, 37463, Note_on_c, 9, 51, 0
3, 37470, Note_on_c, 9, 36, 0
3, 37500, Note_on_c, 9, 51, 63
3, 37514, Note_on_c, 9, 51, 0
3, 37561, Note_on_c, 9, 51, 89
3, 37562, Note_on_c, 9, 40, 77
3, 37584, Note_on_c, 9, 51, 0
3, 37585, Note_on_c, 9, 40, 0
3, 37622, Note_on_c, 9, 51, 56
3, 37636, Note_on_c, 9, 51, 0
3, 37652, Note_on_c, 9, 51, 58
3, 37665, Note_on_c, 9, 51, 0
3, 37682, Note_on_c, 9, 51, 64
3, 37702, Note_on_c, 9, 51, 0
3, 37739, Note_on_c, 9, 36, 97
3, 37741, Note_on_c, 9, 51, 77
3, 37758, Note_on_c, 9, 51, 0
3, 37766, Note_on_c, 9, 36, 0
3, 37800, Note_on_c, 9, 40, 82
3, 37802, Note_on_c, 9, 51, 89
3, 37823, Note_on_c, 9, 51, 0
3, 37827, Note_on_c, 9, 40, 0
3, 37862, Note_on_c, 9, 51, 64
3, 37880, Note_on_c, 9, 51, 0
3, 37923, Note_on_c, 9, 36, 94
3, 37923, Note_on_c, 9, 51, 79
3, 37945, Note_on_c, 9, 51, 0
3, 37945, Note_on_c, 9, 36, 0
3, 37981, Note_on_c, 9, 51, 56
3, 37996, Note_on_c, 9, 51, 0
3, 38041, Note_on_c, 9, 40, 77
3, 38042, Note_on_c, 9, 51, 79
3, 38068, Note_on_c, 9, 51, 0
3, 38070, Note_on_c, 9, 40, 0
3, 38101, Note_on_c, 9, 51, 59
3, 38114, Note_on_c, 9, 51, 0
3, 38131, Note_on_c, 9, 51, 58
3, 38145, Note_on_c, 9, 51, 0
3, 38160, Note_on_c, 9, 51, 67
3, 38179, Note_on_c, 9, 51, 0
3, 38219, Note_on_c, 9, 36, 94
3, 38220, Note_on_c, 9, 51, 73
3, 38238, Note_on_c, 9, 51, 0
3, 38249, Note_on_c, 9, 36, 0
3, 38279, Note_on_c, 9, 40, 89
3, 38280, Note_on_c, 9, 51, 79
3, 38304, Note_on_c, 9, 51, 0
3, 38306, Note_on_c, 9, 40, 0
3, 38341, Note_on_c, 9, 51, 64
3, 38359, Note_on_c, 9, 51, 0
3, 38402, Note_on_c, 9, 36, 97
3, 38403, Note_on_c, 9, 51, 77
3, 38422, Note_on_c, 9, 51, 0
3, 38427, Note_on_c, 9, 36, 0
3, 38462, Note_on_c, 9, 51, 65
3, 38478, Note_on_c, 9, 51, 0
3, 38521, Note_on_c, 9, 40, 82
3, 38522, Note_on_c, 9, 51, 89
3, 38544, Note_on_c, 9, 40, 0
3, 38545, Note_on_c, 9, 51, 0
3, 38582, Note_on_c, 9, 51, 59
3, 38595, Note_on_c, 9, 51, 0
3, 38620, Note_on_c, 9, 36, 82
3, 38627, Note_on_c, 9, 36, 0
3, 38642, Note_on_c, 9, 36, 110
3, 38643, Note_on_c, 9, 51, 94
3, 38658, Note_on_c, 9, 36, 0
3, 38662, Note_on_c, 9, 51, 0
3, 38701, Note_on_c, 9, 36, 110
3, 38701, Note_on_c, 9, 51, 89
3, 38712, Note_on_c, 9, 36, 0
3, 38716, Note_on_c, 9, 51, 0
3, 38759, Note_on_c, 9, 40, 120
3, 38760, Note_on_c, 9, 51, 94
3, 38761, Note_on_c, 9, 49, 94
3, 38771, Note_on_c, 9, 40, 0
3, 38772, Note_on_c, 9, 49, 0
3, 38773, Note_on_c, 9, 51, 0
3, 38801, Note_on_c, 9, 47, 77
3, 38802, Note_on_c, 9, 48, 79
3, 38809, Note_on_c, 9, 48, 0
3, 38810, Note_on_c, 9, 47, 0
3, 38822, Note_on_c, 9, 48, 94
3, 38834, Note_on_c, 9, 48, 0
3, 38842, Note_on_c, 9, 45, 70
3, 38845, Note_on_c, 9, 45, 0
3, 38857, Note_on_c, 9, 45, 104
3, 38858, Note_on_c, 9, 47, 124
3, 38866, Note_on_c, 9, 47, 0
3, 38868, Note_on_c, 9, 45, 0
3, 38880, Note_on_c, 9, 59, 120
3, 38881, Note_on_c, 9, 57, 124
3, 38882, Note_on_c, 9, 36, 127
3, 38894, Note_on_c, 9, 59, 0
3, 38902, Note_on_c, 9, 36, 0
3, 38940, Note_on_c, 9, 40, 104
3, 38948, Note_on_c, 9, 40, 0
3, 38970, Note_on_c, 9, 40, 82
3, 38982, Note_on_c, 9, 40, 0
3, 38991, Note_on_c, 9, 57, 0
3, 38998, Note_on_c, 9, 36, 127
3, 38998, Note_on_c, 9, 57, 120
3, 39003, Note_on_c, 9, 59, 124
3, 39018, Note_on_c, 9, 36, 0
3, 39022, Note_on_c, 9, 59, 0
3, 39095, Note_on_c, 9, 47, 79
3, 39102, Note_on_c, 9, 47, 0
3, 39106, Note_on_c, 9, 48, 89
3, 39118, Note_on_c, 9, 48, 0
3, 39125, Note_on_c, 9, 45, 120
3, 39126, Note_on_c, 9, 47, 127
3, 39142, Note_on_c, 9, 45, 0
3, 39143, Note_on_c, 9, 47, 0
3, 39162, Note_on_c, 9, 47, 85
3, 39163, Note_on_c, 9, 45, 82
3, 39171, Note_on_c, 9, 47, 0
3, 39173, Note_on_c, 9, 45, 0
3, 39182, Note_on_c, 9, 40, 124
3, 39186, Note_on_c, 9, 40, 0
3, 39202, Note_on_c, 9, 40, 94
3, 39203, Note_on_c, 9, 41, 79
3, 39204, Note_on_c, 9, 41, 0
3, 39211, Note_on_c, 9, 40, 0
3, 39222, Note_on_c, 9, 40, 127
3, 39232, Note_on_c, 9, 40, 0
3, 39242, Note_on_c, 9, 45, 97
3, 39250, Note_on_c, 9, 45, 0
3, 39258, Note_on_c, 9, 43, 104
3, 39269, Note_on_c, 9, 43, 0
3, 39277, Note_on_c, 9, 48, 97
3, 39278, Note_on_c, 9, 47, 89
3, 39287, Note_on_c, 9, 47, 0
3, 39288, Note_on_c, 9, 48, 0
3, 39298, Note_on_c, 9, 41, 127
3, 39299, Note_on_c, 9, 43, 120
3, 39312, Note_on_c, 9, 43, 0
3, 39313, Note_on_c, 9, 41, 0
3, 39317, Note_on_c, 9, 49, 120
3, 39318, Note_on_c, 9, 51, 110
3, 39329, Note_on_c, 9, 51, 0
3, 39342, Note_on_c, 9, 36, 120
3, 39349, Note_on_c, 9, 36, 0
3, 39358, Note_on_c, 9, 49, 0
3, 39361, Note_on_c, 9, 36, 127
3, 39367, Note_on_c, 9, 51, 120
3, 39367, Note_on_c, 9, 49, 120
3, 39377, Note_on_c, 9, 51, 0
3, 39381, Note_on_c, 9, 36, 0
3, 39388, Note_on_c, 9, 57, 0
3, 39424, Note_on_c, 9, 36, 124
3, 39434, Note_on_c, 9, 36, 0
3, 39451, Note_on_c, 9, 36, 120
3, 39464, Note_on_c, 9, 36, 0
3, 39475, Note_on_c, 9, 49, 0
3, 39482, Note_on_c, 9, 36, 127
3, 39484, Note_on_c, 9, 51, 120
3, 39485, Note_on_c, 9, 49, 120
3, 39497, Note_on_c, 9, 51, 0
3, 39501, Note_on_c, 9, 36, 0
3, 39538, Note_on_c, 9, 49, 0
3, 39544, Note_on_c, 9, 36, 127
3, 39545, Note_on_c, 9, 51, 124
3, 39546, Note_on_c, 9, 49, 124
3, 39557, Note_on_c, 9, 36, 0
3, 39560, Note_on_c, 9, 51, 0
3, 39604, Note_on_c, 9, 40, 124
3, 39605, Note_on_c, 9, 55, 124
3, 39605, Note_on_c, 9, 38, 94
3, 39607, Note_on_c, 9, 38, 0
3, 39621, Note_on_c, 9, 55, 0
3, 39621, Note_on_c, 9, 40, 0
3, 39660, Note_on_c, 9, 47, 104
3, 39679, Note_on_c, 9, 47, 0
3, 39690, Note_on_c, 9, 48, 84
3, 39697, Note_on_c, 9, 48, 0
3, 39700, Note_on_c, 9, 45, 85
3, 39702, Note_on_c, 9, 43, 72
3, 39710, Note_on_c, 9, 43, 0
3, 39712, Note_on_c, 9, 45, 0
3, 39720, Note_on_c, 9, 47, 120
3, 39721, Note_on_c, 9, 45, 110
3, 39731, Note_on_c, 9, 47, 0
3, 39733, Note_on_c, 9, 45, 0
3, 39751, Note_on_c, 9, 40, 127
3, 39764, Note_on_c, 9, 40, 0
3, 39780, Note_on_c, 9, 40, 104
3, 39788, Note_on_c, 9, 40, 0
3, 39810, Note_on_c, 9, 40, 94
3, 39811, Note_on_c, 9, 41, 97
3, 39817, Note_on_c, 9, 41, 0
3, 39818, Note_on_c, 9, 40, 0
3, 39828, Note_on_c, 9, 49, 0
3, 39838, Note_on_c, 9, 36, 127
3, 39839, Note_on_c, 9, 55, 94
3, 39840, Note_on_c, 9, 53, 89
3, 39853, Note_on_c, 9, 53, 0
3, 39854, Note_on_c, 9, 55, 0
3, 39861, Note_on_c, 9, 36, 0
3, 39902, Note_on_c, 9, 51, 77
3, 39912, Note_on_c, 9, 51, 0
3, 39963, Note_on_c, 9, 51, 104
3, 39963, Note_on_c, 9, 40, 64
3, 39972, Note_on_c, 9, 40, 0
3, 39978, Note_on_c, 9, 51, 0
3, 40022, Note_on_c, 9, 51, 77
3, 40033, Note_on_c, 9, 51, 0
3, 40052, Note_on_c, 9, 36, 68
3, 40065, Note_on_c, 9, 36, 0
3, 40082, Note_on_c, 9, 51, 77
3, 40084, Note_on_c, 9, 36, 68
3, 40091, Note_on_c, 9, 36, 0
3, 40096, Note_on_c, 9, 51, 0
3, 40141, Note_on_c, 9, 36, 77
3, 40142, Note_on_c, 9, 51, 77
3, 40156, Note_on_c, 9, 51, 0
3, 40166, Note_on_c, 9, 36, 0
3, 40201, Note_on_c, 9, 40, 74
3, 40202, Note_on_c, 9, 51, 97
3, 40221, Note_on_c, 9, 40, 0
3, 40222, Note_on_c, 9, 51, 0
3, 40263, Note_on_c, 9, 51, 74
3, 40279, Note_on_c, 9, 51, 0
3, 40323, Note_on_c, 9, 36, 97
3, 40324, Note_on_c, 9, 51, 89
3, 40340, Note_on_c, 9, 51, 0
3, 40343, Note_on_c, 9, 36, 0
3, 40383, Note_on_c, 9, 51, 68
3, 40395, Note_on_c, 9, 51, 0
3, 40442, Note_on_c, 9, 40, 79
3, 40442, Note_on_c, 9, 51, 104
3, 40460, Note_on_c, 9, 40, 0
3, 40461, Note_on_c, 9, 51, 0
3, 40502, Note_on_c, 9, 51, 68
3, 40518, Note_on_c, 9, 51, 0
3, 40533, Note_on_c, 9, 36, 73
3, 40545, Note_on_c, 9, 36, 0
3, 40562, Note_on_c, 9, 36, 74
3, 40562, Note_on_c, 9, 51, 73
3, 40579, Note_on_c, 9, 51, 0
3, 40579, Note_on_c, 9, 36, 0
3, 40621, Note_on_c, 9, 36, 84
3, 40622, Note_on_c, 9, 51, 82
3, 40639, Note_on_c, 9, 51, 0
3, 40642, Note_on_c, 9, 36, 0
3, 40681, Note_on_c, 9, 40, 84
3, 40681, Note_on_c, 9, 51, 94
3, 40702, Note_on_c, 9, 40, 0
3, 40703, Note_on_c, 9, 51, 0
3, 40741, Note_on_c, 9, 51, 82
3, 40755, Note_on_c, 9, 51, 0
3, 40802, Note_on_c, 9, 36, 94
3, 40802, Note_on_c, 9, 51, 84
3, 40821, Note_on_c, 9, 36, 0
3, 40822, Note_on_c, 9, 51, 0
3, 40861, Note_on_c, 9, 51, 61
3, 40880, Note_on_c, 9, 51, 0
3, 40921, Note_on_c, 9, 40, 77
3, 40922, Note_on_c, 9, 51, 89
3, 40943, Note_on_c, 9, 51, 0
3, 40948, Note_on_c, 9, 40, 0
3, 40982, Note_on_c, 9, 51, 68
3, 40993, Note_on_c, 9, 51, 0
3, 41013, Note_on_c, 9, 51, 55
3, 41025, Note_on_c, 9, 51, 0
3, 41043, Note_on_c, 9, 51, 60
3, 41057, Note_on_c, 9, 51, 0
3, 41074, Note_on_c, 9, 36, 71
3, 41093, Note_on_c, 9, 36, 0
3, 41101, Note_on_c, 9, 51, 84
3, 41118, Note_on_c, 9, 51, 0
3, 41161, Note_on_c, 9, 40, 74
3, 41161, Note_on_c, 9, 51, 97
3, 41181, Note_on_c, 9, 51, 0
3, 41186, Note_on_c, 9, 40, 0
3, 41221, Note_on_c, 9, 51, 74
3, 41238, Note_on_c, 9, 51, 0
3, 41281, Note_on_c, 9, 36, 94
3, 41282, Note_on_c, 9, 51, 77
3, 41299, Note_on_c, 9, 51, 0
3, 41306, Note_on_c, 9, 36, 0
3, 41342, Note_on_c, 9, 51, 69
3, 41360, Note_on_c, 9, 51, 0
3, 41402, Note_on_c, 9, 40, 79
3, 41403, Note_on_c, 9, 51, 84
3, 41423, Note_on_c, 9, 51, 0
3, 41423, Note_on_c, 9, 40, 0
3, 41463, Note_on_c, 9, 51, 69
3, 41475, Note_on_c, 9, 51, 0
3, 41491, Note_on_c, 9, 36, 59
3, 41514, Note_on_c, 9, 36, 0
3, 41522, Note_on_c, 9, 51, 73
3, 41541, Note_on_c, 9, 51, 0
3, 41551, Note_on_c, 9, 36, 84
3, 41573, Note_on_c, 9, 36, 0
3, 41581, Note_on_c, 9, 51, 68
3, 41593, Note_on_c, 9, 51, 0
3, 41611, Note_on_c, 9, 51, 57
3, 41621, Note_on_c, 9, 51, 0
3, 41641, Note_on_c, 9, 40, 84
3, 41641, Note_on_c, 9, 51, 71
3, 41657, Note_on_c, 9, 51, 0
3, 41659, Note_on_c, 9, 40, 0
3, 41672, Note_on_c, 9, 51, 63
3, 41687, Note_on_c, 9, 51, 0
3, 41702, Note_on_c, 9, 53, 69
3, 41720, Note_on_c, 9, 53, 0
3, 41732, Note_on_c, 9, 51, 58
3, 41741, Note_on_c, 9, 51, 0
3, 41761, Note_on_c, 9, 36, 82
3, 41762, Note_on_c, 9, 51, 72
3, 41783, Note_on_c, 9, 51, 0
3, 41789, Note_on_c, 9, 36, 0
3, 41820, Note_on_c, 9, 51, 71
3, 41835, Note_on_c, 9, 51, 0
3, 41882, Note_on_c, 9, 40, 82
3, 41882, Note_on_c, 9, 51, 85
3, 41902, Note_on_c, 9, 51, 0
3, 41903, Note_on_c, 9, 40, 0
3, 41942, Note_on_c, 9, 51, 71
3, 41959, Note_on_c, 9, 51, 0
3, 41971, Note_on_c, 9, 36, 68
3, 41982, Note_on_c, 9, 36, 0
3, 42002, Note_on_c, 9, 36, 89
3, 42002, Note_on_c, 9, 53, 74
3, 42022, Note_on_c, 9, 53, 0
3, 42028, Note_on_c, 9, 36, 0
3, 42060, Note_on_c, 9, 51, 64
3, 42078, Note_on_c, 9, 51, 0
3, 42121, Note_on_c, 9, 51, 69
3, 42121, Note_on_c, 9, 40, 72
3, 42135, Note_on_c, 9, 40, 0
3, 42144, Note_on_c, 9, 51, 0
3, 42182, Note_on_c, 9, 51, 68
3, 42200, Note_on_c, 9, 51, 0
3, 42212, Note_on_c, 9, 36, 68
3, 42220, Note_on_c, 9, 36, 0
3, 42242, Note_on_c, 9, 53, 79
3, 42242, Note_on_c, 9, 36, 85
3, 42263, Note_on_c, 9, 36, 0
3, 42264, Note_on_c, 9, 53, 0
3, 42301, Note_on_c, 9, 51, 55
3, 42324, Note_on_c, 9, 51, 0
3, 42360, Note_on_c, 9, 40, 75
3, 42361, Note_on_c, 9, 51, 84
3, 42384, Note_on_c, 9, 51, 0
3, 42386, Note_on_c, 9, 40, 0
3, 42422, Note_on_c, 9, 51, 63
3, 42436, Note_on_c, 9, 51, 0
3, 42454, Note_on_c, 9, 36, 75
3, 42464, Note_on_c, 9, 36, 0
3, 42482, Note_on_c, 9, 53, 85
3, 42483, Note_on_c, 9, 36, 97
3, 42501, Note_on_c, 9, 53, 0
3, 42502, Note_on_c, 9, 36, 0
3, 42542, Note_on_c, 9, 51, 89
3, 42559, Note_on_c, 9, 51, 0
3, 42602, Note_on_c, 9, 40, 120
3, 42603, Note_on_c, 9, 51, 110
3, 42623, Note_on_c, 9, 40, 0
3, 42625, Note_on_c, 9, 51, 0
3, 42663, Note_on_c, 9, 40, 104
3, 42664, Note_on_c, 9, 51, 89
3, 42677, Note_on_c, 9, 51, 0
3, 42677, Note_on_c, 9, 40, 0
3, 42722, Note_on_c, 9, 51, 110
3, 42722, Note_on_c, 9, 49, 104
3, 42722, Note_on_c, 9, 36, 127
3, 42744, Note_on_c, 9, 51, 0
3, 42757, Note_on_c, 9, 36, 0
3, 42784, Note_on_c, 9, 51, 70
3, 42794, Note_on_c, 9, 51, 0
3, 42809, Note_on_c, 9, 40, 64
3, 42816, Note_on_c, 9, 40, 0
3, 42831, Note_on_c, 9, 40, 77
3, 42844, Note_on_c, 9, 40, 0
3, 42846, Note_on_c, 9, 57, 97
3, 42847, Note_on_c, 9, 59, 89
3, 42856, Note_on_c, 9, 59, 0
3, 42903, Note_on_c, 9, 57, 0
3, 42907, Note_on_c, 9, 40, 127
3, 42908, Note_on_c, 9, 59, 120
3, 42909, Note_on_c, 9, 57, 120
3, 42927, Note_on_c, 9, 59, 0
3, 42935, Note_on_c, 9, 40, 0
3, 42976, Note_on_c, 9, 47, 82
3, 42987, Note_on_c, 9, 47, 0
3, 42992, Note_on_c, 9, 50, 63
3, 42993, Note_on_c, 9, 48, 62
3, 42999, Note_on_c, 9, 48, 0
3, 43000, Note_on_c, 9, 50, 0
3, 43012, Note_on_c, 9, 47, 74
3, 43019, Note_on_c, 9, 47, 0
3, 43028, Note_on_c, 9, 48, 82
3, 43041, Note_on_c, 9, 48, 0
3, 43048, Note_on_c, 9, 43, 124
3, 43061, Note_on_c, 9, 43, 0
3, 43066, Note_on_c, 9, 45, 120
3, 43067, Note_on_c, 9, 43, 89
3, 43076, Note_on_c, 9, 45, 0
3, 43077, Note_on_c, 9, 43, 0
3, 43086, Note_on_c, 9, 49, 0
3, 43086, Note_on_c, 9, 40, 124
3, 43096, Note_on_c, 9, 40, 0
3, 43106, Note_on_c, 9, 40, 94
3, 43107, Note_on_c, 9, 41, 85
3, 43115, Note_on_c, 9, 41, 0
3, 43116, Note_on_c, 9, 40, 0
3, 43124, Note_on_c, 9, 41, 110
3, 43125, Note_on_c, 9, 40, 69
3, 43127, Note_on_c, 9, 40, 0
3, 43136, Note_on_c, 9, 41, 0
3, 43144, Note_on_c, 9, 47, 127
3, 43156, Note_on_c, 9, 47, 0
3, 43165, Note_on_c, 9, 41, 120
3, 43166, Note_on_c, 9, 43, 104
3, 43172, Note_on_c, 9, 43, 0
3, 43172, Note_on_c, 9, 41, 0
3, 43183, Note_on_c, 9, 41, 104
3, 43194, Note_on_c, 9, 41, 0
3, 43203, Note_on_c, 9, 51, 110
3, 43204, Note_on_c, 9, 49, 104
3, 43206, Note_on_c, 9, 36, 120
3, 43215, Note_on_c, 9, 51, 0
3, 43225, Note_on_c, 9, 36, 0
3, 43266, Note_on_c, 9, 51, 85
3, 43276, Note_on_c, 9, 51, 0
3, 43298, Note_on_c, 9, 40, 89
3, 43306, Note_on_c, 9, 40, 0
3, 43321, Note_on_c, 9, 49, 0
3, 43321, Note_on_c, 9, 57, 0
3, 43326, Note_on_c, 9, 36, 124
3, 43328, Note_on_c, 9, 51, 110
3, 43329, Note_on_c, 9, 49, 110
3, 43340, Note_on_c, 9, 51, 0
3, 43343, Note_on_c, 9, 36, 0
3, 43381, Note_on_c, 9, 49, 0
3, 43383, Note_on_c, 9, 36, 127
3, 43386, Note_on_c, 9, 51, 110
3, 43387, Note_on_c, 9, 49, 104
3, 43397, Note_on_c, 9, 51, 0
3, 43397, Note_on_c, 9, 36, 0
3, 43441, Note_on_c, 9, 49, 0
3, 43444, Note_on_c, 9, 36, 127
3, 43445, Note_on_c, 9, 49, 120
3, 43446, Note_on_c, 9, 51, 120
3, 43458, Note_on_c, 9, 51, 0
3, 43460, Note_on_c, 9, 36, 0
3, 43501, Note_on_c, 9, 40, 127
3, 43514, Note_on_c, 9, 40, 0
3, 43519, Note_on_c, 9, 50, 75
3, 43530, Note_on_c, 9, 48, 24
3, 43542, Note_on_c, 9, 47, 69
3, 43544, Note_on_c, 9, 50, 0
3, 43553, Note_on_c, 9, 48, 0
3, 43556, Note_on_c, 9, 47, 0
3, 43558, Note_on_c, 9, 45, 124
3, 43559, Note_on_c, 9, 47, 104
3, 43565, Note_on_c, 9, 47, 0
3, 43571, Note_on_c, 9, 45, 0
3, 43580, Note_on_c, 9, 48, 74
3, 43589, Note_on_c, 9, 47, 77
3, 43597, Note_on_c, 9, 45, 71
3, 43604, Note_on_c, 9, 48, 0
3, 43609, Note_on_c, 9, 47, 0
3, 43612, Note_on_c, 9, 45, 0
3, 43617, Note_on_c, 9, 43, 120
3, 43625, Note_on_c, 9, 43, 0
3, 43640, Note_on_c, 9, 45, 82
3, 43650, Note_on_c, 9, 43, 77
3, 43660, Note_on_c, 9, 41, 73
3, 43664, Note_on_c, 9, 45, 0
3, 43667, Note_on_c, 9, 41, 0
3, 43668, Note_on_c, 9, 43, 0
3, 43675, Note_on_c, 9, 49, 0
3, 43682, Note_on_c, 9, 36, 127
3, 43683, Note_on_c, 9, 51, 94
3, 43684, Note_on_c, 9, 49, 94
3, 43696, Note_on_c, 9, 51, 0
3, 43701, Note_on_c, 9, 36, 0
3, 43742, Note_on_c, 9, 40, 105
3, 43748, Note_on_c, 9, 40, 0
3, 43769, Note_on_c, 9, 40, 105
3, 43779, Note_on_c, 9, 40, 0
3, 43803, Note_on_c, 9, 59, 120
3, 43804, Note_on_c, 9, 57, 124
3, 43805, Note_on_c, 9, 36, 127
3, 43821, Note_on_c, 9, 59, 0
3, 43827, Note_on_c, 9, 36, 0
3, 43865, Note_on_c, 9, 57, 0
3, 43865, Note_on_c, 9, 36, 127
3, 43868, Note_on_c, 9, 59, 110
3, 43869, Note_on_c, 9, 57, 97
3, 43884, Note_on_c, 9, 59, 0
3, 43885, Note_on_c, 9, 36, 0
3, 43928, Note_on_c, 9, 40, 127
3, 43930, Note_on_c, 9, 50, 104
3, 43932, Note_on_c, 9, 48, 110
3, 43933, Note_on_c, 9, 47, 104
3, 43940, Note_on_c, 9, 47, 0
3, 43942, Note_on_c, 9, 40, 0
3, 43944, Note_on_c, 9, 48, 0
3, 43945, Note_on_c, 9, 50, 0
3, 43985, Note_on_c, 9, 41, 85
3, 43995, Note_on_c, 9, 41, 0
3, 44018, Note_on_c, 9, 40, 52
3, 44025, Note_on_c, 9, 40, 0
3, 44028, Note_on_c, 9, 40, 82
3, 44037, Note_on_c, 9, 40, 0
3, 44041, Note_on_c, 9, 49, 0
3, 44045, Note_on_c, 9, 40, 120
3, 44057, Note_on_c, 9, 40, 0
3, 44079, Note_on_c, 9, 40, 127
3, 44093, Note_on_c, 9, 40, 0
3, 44103, Note_on_c, 9, 49, 89
3, 44104, Note_on_c, 9, 51, 89
3, 44109, Note_on_c, 9, 51, 0
3, 44132, Note_on_c, 9, 36, 124
3, 44139, Note_on_c, 9, 36, 0
3, 44158, Note_on_c, 9, 49, 0
3, 44158, Note_on_c, 9, 36, 120
3, 44162, Note_on_c, 9, 51, 110
3, 44164, Note_on_c, 9, 49, 120
3, 44179, Note_on_c, 9, 51, 0
3, 44180, Note_on_c, 9, 36, 0
3, 44228, Note_on_c, 9, 38, 79
3, 44229, Note_on_c, 9, 40, 77
3, 44231, Note_on_c, 9, 38, 0
3, 44236, Note_on_c, 9, 40, 0
3, 44258, Note_on_c, 9, 40, 74
3, 44271, Note_on_c, 9, 40, 0
3, 44271, Note_on_c, 9, 57, 0
3, 44286, Note_on_c, 9, 59, 82
3, 44287, Note_on_c, 9, 57, 104
3, 44289, Note_on_c, 9, 36, 104
3, 44300, Note_on_c, 9, 59, 0
3, 44307, Note_on_c, 9, 36, 0
3, 44338, Note_on_c, 9, 57, 0
3, 44344, Note_on_c, 9, 36, 127
3, 44345, Note_on_c, 9, 59, 104
3, 44346, Note_on_c, 9, 57, 110
3, 44357, Note_on_c, 9, 59, 0
3, 44357, Note_on_c, 9, 36, 0
3, 44402, Note_on_c, 9, 36, 127
3, 44403, Note_on_c, 9, 55, 124
3, 44421, Note_on_c, 9, 36, 0
3, 44455, Note_on_c, 9, 55, 0
3, 44460, Note_on_c, 9, 36, 127
3, 44461, Note_on_c, 9, 55, 120
3, 44481, Note_on_c, 9, 36, 0
3, 44515, Note_on_c, 9, 55, 0
3, 44523, Note_on_c, 9, 55, 124
3, 44524, Note_on_c, 9, 36, 127
3, 44534, Note_on_c, 9, 36, 0
3, 44551, Note_on_c, 9, 40, 82
3, 44564, Note_on_c, 9, 40, 0
3, 44579, Note_on_c, 9, 36, 127
3, 44581, Note_on_c, 9, 55, 0
3, 44582, Note_on_c, 9, 55, 127
3, 44596, Note_on_c, 9, 36, 0
3, 44615, Note_on_c, 9, 36, 97
3, 44621, Note_on_c, 9, 36, 0
3, 44621, Note_on_c, 9, 49, 0
3, 44640, Note_on_c, 9, 36, 124
3, 44641, Note_on_c, 9, 51, 124
3, 44658, Note_on_c, 9, 51, 0
3, 44700, Note_on_c, 9, 51, 89
3, 44707, Note_on_c, 9, 36, 0
3, 44710, Note_on_c, 9, 51, 0
3, 44731, Note_on_c, 9, 36, 77
3, 44742, Note_on_c, 9, 36, 0
3, 44762, Note_on_c, 9, 40, 89
3, 44762, Note_on_c, 9, 51, 110
3, 44781, Note_on_c, 9, 40, 0
3, 44783, Note_on_c, 9, 51, 0
3, 44808, Note_on_c, 9, 57, 0
3, 44823, Note_on_c, 9, 51, 75
3, 44840, Note_on_c, 9, 51, 0
3, 44883, Note_on_c, 9, 51, 75
3, 44907, Note_on_c, 9, 51, 0
3, 44912, Note_on_c, 9, 36, 65
3, 44917, Note_on_c, 9, 55, 0
3, 44936, Note_on_c, 9, 36, 0
3, 44942, Note_on_c, 9, 51, 68
3, 44960, Note_on_c, 9, 51, 0
3, 45002, Note_on_c, 9, 40, 74
3, 45003, Note_on_c, 9, 51, 85
3, 45024, Note_on_c, 9, 51, 0
3, 45029, Note_on_c, 9, 40, 0
3, 45061, Note_on_c, 9, 51, 58
3, 45074, Note_on_c, 9, 51, 0
3, 45091, Note_on_c, 9, 51, 55
3, 45103, Note_on_c, 9, 51, 0
3, 45122, Note_on_c, 9, 36, 79
3, 45122, Note_on_c, 9, 51, 70
3, 45144, Note_on_c, 9, 51, 0
3, 45148, Note_on_c, 9, 36, 0
3, 45181, Note_on_c, 9, 51, 63
3, 45199, Note_on_c, 9, 51, 0
3, 45242, Note_on_c, 9, 40, 71
3, 45242, Note_on_c, 9, 51, 84
3, 45259, Note_on_c, 9, 51, 0
3, 45259, Note_on_c, 9, 40, 0
3, 45302, Note_on_c, 9, 51, 61
3, 45319, Note_on_c, 9, 51, 0
3, 45362, Note_on_c, 9, 51, 71
3, 45380, Note_on_c, 9, 51, 0
3, 45391, Note_on_c, 9, 36, 69
3, 45416, Note_on_c, 9, 36, 0
3, 45421, Note_on_c, 9, 51, 68
3, 45440, Note_on_c, 9, 51, 0
3, 45451, Note_on_c, 9, 36, 66
3, 45467, Note_on_c, 9, 36, 0
3, 45481, Note_on_c, 9, 40, 75
3, 45482, Note_on_c, 9, 51, 79
3, 45507, Note_on_c, 9, 51, 0
3, 45513, Note_on_c, 9, 40, 0
3, 45541, Note_on_c, 9, 51, 56
3, 45563, Note_on_c, 9, 51, 0
3, 45601, Note_on_c, 9, 36, 70
3, 45602, Note_on_c, 9, 51, 73
3, 45626, Note_on_c, 9, 51, 0
3, 45630, Note_on_c, 9, 36, 0
3, 45662, Note_on_c, 9, 51, 57
3, 45684, Note_on_c, 9, 51, 0
3, 45721, Note_on_c, 9, 40, 73
3, 45723, Note_on_c, 9, 51, 77
3, 45746, Note_on_c, 9, 51, 0
3, 45750, Note_on_c, 9, 40, 0
3, 45782, Note_on_c, 9, 51, 62
3, 45799, Note_on_c, 9, 51, 0
3, 45842, Note_on_c, 9, 51, 67
3, 45856, Note_on_c, 9, 51, 0
3, 45871, Note_on_c, 9, 36, 68
3, 45902, Note_on_c, 9, 51, 57
3, 45904, Note_on_c, 9, 36, 0
3, 45920, Note_on_c, 9, 51, 0
3, 45960, Note_on_c, 9, 40, 70
3, 45962, Note_on_c, 9, 51, 70
3, 45984, Note_on_c, 9, 51, 0
3, 45997, Note_on_c, 9, 40, 0
3, 46022, Note_on_c, 9, 51, 59
3, 46044, Note_on_c, 9, 51, 0
3, 46081, Note_on_c, 9, 36, 77
3, 46082, Note_on_c, 9, 51, 69
3, 46101, Note_on_c, 9, 51, 0
3, 46107, Note_on_c, 9, 36, 0
3, 46141, Note_on_c, 9, 51, 65
3, 46158, Note_on_c, 9, 51, 0
3, 46201, Note_on_c, 9, 40, 72
3, 46202, Note_on_c, 9, 51, 84
3, 46223, Note_on_c, 9, 51, 0
3, 46227, Note_on_c, 9, 40, 0
3, 46262, Note_on_c, 9, 51, 63
3, 46281, Note_on_c, 9, 51, 0
3, 46292, Note_on_c, 9, 36, 69
3, 46310, Note_on_c, 9, 36, 0
3, 46322, Note_on_c, 9, 51, 53
3, 46335, Note_on_c, 9, 51, 0
3, 46379, Note_on_c, 9, 36, 84
3, 46382, Note_on_c, 9, 51, 82
3, 46396, Note_on_c, 9, 51, 0
3, 46401, Note_on_c, 9, 36, 0
3, 46440, Note_on_c, 9, 51, 85
3, 46441, Note_on_c, 9, 40, 120
3, 46458, Note_on_c, 9, 51, 0
3, 46460, Note_on_c, 9, 40, 0
3, 46473, Note_on_c, 9, 36, 77
3, 46490, Note_on_c, 9, 36, 0
3, 46502, Note_on_c, 9, 51, 72
3, 46520, Note_on_c, 9, 51, 0
3, 46531, Note_on_c, 9, 36, 120
3, 46532, Note_on_c, 9, 51, 84
3, 46533, Note_on_c, 9, 49, 94
3, 46548, Note_on_c, 9, 49, 0
3, 46550, Note_on_c, 9, 51, 0
3, 46560, Note_on_c, 9, 36, 0
3, 46621, Note_on_c, 9, 51, 77
3, 46634, Note_on_c, 9, 51, 0
3, 46683, Note_on_c, 9, 40, 89
3, 46684, Note_on_c, 9, 51, 89
3, 46702, Note_on_c, 9, 40, 0
3, 46704, Note_on_c, 9, 51, 0
3, 46745, Note_on_c, 9, 51, 70
3, 46761, Note_on_c, 9, 51, 0
3, 46801, Note_on_c, 9, 51, 82
3, 46820, Note_on_c, 9, 51, 0
3, 46861, Note_on_c, 9, 51, 77
3, 46863, Note_on_c, 9, 36, 84
3, 46876, Note_on_c, 9, 51, 0
3, 46884, Note_on_c, 9, 36, 0
3, 46922, Note_on_c, 9, 40, 74
3, 46923, Note_on_c, 9, 51, 75
3, 46936, Note_on_c, 9, 40, 0
3, 46953, Note_on_c, 9, 51, 0
3, 46953, Note_on_c, 9, 36, 94
3, 46978, Note_on_c, 9, 36, 0
3, 46979, Note_on_c, 9, 51, 74
3, 46993, Note_on_c, 9, 51, 0
3, 47009, Note_on_c, 9, 36, 104
3, 47011, Note_on_c, 9, 51, 94
3, 47012, Note_on_c, 9, 49, 97
3, 47030, Note_on_c, 9, 49, 0
3, 47033, Note_on_c, 9, 51, 0
3, 47042, Note_on_c, 9, 36, 0
3, 47101, Note_on_c, 9, 51, 84
3, 47118, Note_on_c, 9, 51, 0
3, 47162, Note_on_c, 9, 40, 74
3, 47163, Note_on_c, 9, 51, 94
3, 47183, Note_on_c, 9, 51, 0
3, 47183, Note_on_c, 9, 40, 0
3, 47223, Note_on_c, 9, 51, 75
3, 47238, Note_on_c, 9, 51, 0
3, 47281, Note_on_c, 9, 51, 73
3, 47299, Note_on_c, 9, 51, 0
3, 47341, Note_on_c, 9, 36, 94
3, 47341, Note_on_c, 9, 51, 89
3, 47362, Note_on_c, 9, 51, 0
3, 47364, Note_on_c, 9, 36, 0
3, 47398, Note_on_c, 9, 40, 74
3, 47399, Note_on_c, 9, 51, 89
3, 47414, Note_on_c, 9, 40, 0
3, 47428, Note_on_c, 9, 51, 0
3, 47431, Note_on_c, 9, 36, 120
3, 47454, Note_on_c, 9, 36, 0
3, 47458, Note_on_c, 9, 51, 85
3, 47475, Note_on_c, 9, 51, 0
3, 47489, Note_on_c, 9, 36, 110
3, 47491, Note_on_c, 9, 51, 104
3, 47491, Note_on_c, 9, 49, 97
3, 47507, Note_on_c, 9, 49, 0
3, 47515, Note_on_c, 9, 51, 0
3, 47523, Note_on_c, 9, 36, 0
3, 47581, Note_on_c, 9, 51, 84
3, 47604, Note_on_c, 9, 51, 0
3, 47642, Note_on_c, 9, 40, 73
3, 47643, Note_on_c, 9, 51, 84
3, 47663, Note_on_c, 9, 51, 0
3, 47669, Note_on_c, 9, 40, 0
3, 47702, Note_on_c, 9, 51, 73
3, 47717, Note_on_c, 9, 51, 0
3, 47762, Note_on_c, 9, 51, 89
3, 47787, Note_on_c, 9, 51, 0
3, 47792, Note_on_c, 9, 36, 89
3, 47821, Note_on_c, 9, 51, 79
3, 47822, Note_on_c, 9, 36, 0
3, 47841, Note_on_c, 9, 51, 0
3, 47879, Note_on_c, 9, 40, 70
3, 47881, Note_on_c, 9, 51, 85
3, 47893, Note_on_c, 9, 40, 0
3, 47908, Note_on_c, 9, 51, 0
3, 47911, Note_on_c, 9, 36, 104
3, 47928, Note_on_c, 9, 36, 0
3, 47939, Note_on_c, 9, 51, 74
3, 47951, Note_on_c, 9, 51, 0
3, 47968, Note_on_c, 9, 36, 124
3, 47968, Note_on_c, 9, 51, 97
3, 47969, Note_on_c, 9, 49, 97
3, 47985, Note_on_c, 9, 49, 0
3, 47986, Note_on_c, 9, 51, 0
3, 48007, Note_on_c, 9, 36, 0
3, 48060, Note_on_c, 9, 51, 79
3, 48079, Note_on_c, 9, 51, 0
3, 48119, Note_on_c, 9, 40, 84
3, 48121, Note_on_c, 9, 51, 94
3, 48147, Note_on_c, 9, 51, 0
3, 48167, Note_on_c, 9, 40, 0
3, 48180, Note_on_c, 9, 51, 84
3, 48198, Note_on_c, 9, 51, 0
3, 48239, Note_on_c, 9, 51, 89
3, 48259, Note_on_c, 9, 51, 0
3, 48268, Note_on_c, 9, 40, 72
3, 48287, Note_on_c, 9, 40, 0
3, 48299, Note_on_c, 9, 51, 85
3, 48315, Note_on_c, 9, 51, 0
3, 48358, Note_on_c, 9, 51, 79
3, 48359, Note_on_c, 9, 45, 94
3, 48359, Note_on_c, 9, 47, 82
3, 48369, Note_on_c, 9, 47, 0
3, 48370, Note_on_c, 9, 45, 0
3, 48372, Note_on_c, 9, 51, 0
3, 48419, Note_on_c, 9, 41, 94
3, 48420, Note_on_c, 9, 51, 82
3, 48421, Note_on_c, 9, 47, 75
3, 48427, Note_on_c, 9, 41, 0
3, 48431, Note_on_c, 9, 47, 0
3, 48435, Note_on_c, 9, 51, 0
3, 48448, Note_on_c, 9, 41, 72
3, 48457, Note_on_c, 9, 41, 0
3, 48478, Note_on_c, 9, 49, 77
3, 48479, Note_on_c, 9, 57, 77
3, 48479, Note_on_c, 9, 36, 120
3, 48557, Note_on_c, 9, 57, 0
3, 48560, Note_on_c, 9, 49, 0
3, 48577, Note_on_c, 9, 36, 0
3, 48577, End_track
4, 0, Start_track
4, 0, MIDI_port, 2
4, 0, Title_t, "SynthBrass"
4, 0, Program_c, 1, 62
4, 0, Control_c, 1, 7, 70
4, 0, Control_c, 1, 10, 30
4, 120, Control_c, 1, 11, 127
4, 120, Control_c, 1, 91, 60
4, 120, Control_c, 1, 93, 40
4, 480, Note_on_c, 1, 50, 114
4, 481, Note_on_c, 1, 57, 120
4, 483, Channel_aftertouch_c, 1, 4
4, 484, Channel_aftertouch_c, 1, 8
4, 484, Channel_aftertouch_c, 1, 12
4, 485, Channel_aftertouch_c, 1, 16
4, 486, Channel_aftertouch_c, 1, 20
4, 486, Channel_aftertouch_c, 1, 24
4, 487, Channel_aftertouch_c, 1, 28
4, 488, Channel_aftertouch_c, 1, 32
4, 489, Channel_aftertouch_c, 1, 36
4, 489, Channel_aftertouch_c, 1, 40
4, 490, Channel_aftertouch_c, 1, 36
4, 491, Channel_aftertouch_c, 1, 32
4, 492, Channel_aftertouch_c, 1, 28
4, 492, Channel_aftertouch_c, 1, 24
4, 493, Channel_aftertouch_c, 1, 20
4, 494, Channel_aftertouch_c, 1, 16
4, 495, Channel_aftertouch_c, 1, 12
4, 495, Channel_aftertouch_c, 1, 8
4, 496, Channel_aftertouch_c, 1, 4
4, 497, Channel_aftertouch_c, 1, 0
4, 557, Note_on_c, 1, 57, 0
4, 558, Note_on_c, 1, 50, 0
4, 572, Note_on_c, 1, 57, 99
4, 572, Note_on_c, 1, 50, 92
4, 580, Note_on_c, 1, 50, 0
4, 582, Note_on_c, 1, 57, 0
4, 599, Note_on_c, 1, 53, 107
4, 600, Note_on_c, 1, 60, 120
4, 602, Channel_aftertouch_c, 1, 4
4, 602, Channel_aftertouch_c, 1, 8
4, 603, Channel_aftertouch_c, 1, 12
4, 604, Channel_aftertouch_c, 1, 16
4, 604, Channel_aftertouch_c, 1, 20
4, 605, Channel_aftertouch_c, 1, 24
4, 606, Channel_aftertouch_c, 1, 28
4, 607, Channel_aftertouch_c, 1, 32
4, 607, Channel_aftertouch_c, 1, 36
4, 608, Channel_aftertouch_c, 1, 40
4, 609, Channel_aftertouch_c, 1, 36
4, 610, Channel_aftertouch_c, 1, 32
4, 610, Channel_aftertouch_c, 1, 28
4, 611, Channel_aftertouch_c, 1, 24
4, 612, Channel_aftertouch_c, 1, 20
4, 613, Channel_aftertouch_c, 1, 16
4, 613, Channel_aftertouch_c, 1, 12
4, 614, Channel_aftertouch_c, 1, 8
4, 615, Channel_aftertouch_c, 1, 4
4, 615, Channel_aftertouch_c, 1, 0
4, 644, Note_on_c, 1, 53, 0
4, 648, Note_on_c, 1, 60, 0
4, 662, Note_on_c, 1, 55, 127
4, 663, Note_on_c, 1, 62, 127
4, 668, Channel_aftertouch_c, 1, 4
4, 669, Channel_aftertouch_c, 1, 8
4, 670, Channel_aftertouch_c, 1, 12
4, 670, Channel_aftertouch_c, 1, 16
4, 671, Channel_aftertouch_c, 1, 20
4, 672, Channel_aftertouch_c, 1, 24
4, 673, Channel_aftertouch_c, 1, 28
4, 673, Channel_aftertouch_c, 1, 32
4, 674, Channel_aftertouch_c, 1, 36
4, 675, Channel_aftertouch_c, 1, 40
4, 675, Channel_aftertouch_c, 1, 44
4, 676, Channel_aftertouch_c, 1, 46
4, 677, Channel_aftertouch_c, 1, 42
4, 677, Channel_aftertouch_c, 1, 38
4, 678, Channel_aftertouch_c, 1, 34
4, 679, Channel_aftertouch_c, 1, 30
4, 680, Channel_aftertouch_c, 1, 26
4, 681, Channel_aftertouch_c, 1, 22
4, 681, Channel_aftertouch_c, 1, 18
4, 682, Channel_aftertouch_c, 1, 14
4, 683, Channel_aftertouch_c, 1, 10
4, 684, Channel_aftertouch_c, 1, 6
4, 684, Channel_aftertouch_c, 1, 2
4, 685, Channel_aftertouch_c, 1, 1
4, 686, Channel_aftertouch_c, 1, 4
4, 686, Channel_aftertouch_c, 1, 7
4, 687, Channel_aftertouch_c, 1, 10
4, 688, Channel_aftertouch_c, 1, 13
4, 689, Channel_aftertouch_c, 1, 17
4, 689, Channel_aftertouch_c, 1, 19
4, 690, Channel_aftertouch_c, 1, 22
4, 691, Channel_aftertouch_c, 1, 26
4, 691, Channel_aftertouch_c, 1, 30
4, 692, Channel_aftertouch_c, 1, 33
4, 693, Channel_aftertouch_c, 1, 36
4, 694, Channel_aftertouch_c, 1, 39
4, 694, Channel_aftertouch_c, 1, 40
4, 695, Channel_aftertouch_c, 1, 43
4, 696, Channel_aftertouch_c, 1, 45
4, 697, Channel_aftertouch_c, 1, 48
4, 698, Channel_aftertouch_c, 1, 49
4, 698, Channel_aftertouch_c, 1, 51
4, 699, Channel_aftertouch_c, 1, 54
4, 701, Channel_aftertouch_c, 1, 55
4, 702, Channel_aftertouch_c, 1, 57
4, 706, Channel_aftertouch_c, 1, 58
4, 711, Channel_aftertouch_c, 1, 60
4, 715, Channel_aftertouch_c, 1, 61
4, 717, Channel_aftertouch_c, 1, 64
4, 718, Channel_aftertouch_c, 1, 66
4, 720, Channel_aftertouch_c, 1, 67
4, 722, Channel_aftertouch_c, 1, 69
4, 724, Channel_aftertouch_c, 1, 72
4, 726, Channel_aftertouch_c, 1, 73
4, 733, Channel_aftertouch_c, 1, 75
4, 736, Channel_aftertouch_c, 1, 76
4, 738, Channel_aftertouch_c, 1, 78
4, 740, Channel_aftertouch_c, 1, 79
4, 744, Channel_aftertouch_c, 1, 81
4, 751, Channel_aftertouch_c, 1, 82
4, 760, Channel_aftertouch_c, 1, 81
4, 762, Channel_aftertouch_c, 1, 79
4, 766, Channel_aftertouch_c, 1, 78
4, 773, Channel_aftertouch_c, 1, 79
4, 775, Channel_aftertouch_c, 1, 81
4, 778, Channel_aftertouch_c, 1, 84
4, 780, Channel_aftertouch_c, 1, 85
4, 784, Channel_aftertouch_c, 1, 87
4, 790, Channel_aftertouch_c, 1, 88
4, 799, Channel_aftertouch_c, 1, 90
4, 804, Channel_aftertouch_c, 1, 91
4, 808, Channel_aftertouch_c, 1, 93
4, 812, Channel_aftertouch_c, 1, 94
4, 831, Channel_aftertouch_c, 1, 97
4, 835, Channel_aftertouch_c, 1, 99
4, 846, Channel_aftertouch_c, 1, 97
4, 848, Channel_aftertouch_c, 1, 94
4, 850, Channel_aftertouch_c, 1, 91
4, 851, Channel_aftertouch_c, 1, 88
4, 852, Channel_aftertouch_c, 1, 87
4, 852, Channel_aftertouch_c, 1, 85
4, 853, Channel_aftertouch_c, 1, 84
4, 854, Channel_aftertouch_c, 1, 82
4, 855, Channel_aftertouch_c, 1, 78
4, 857, Channel_aftertouch_c, 1, 76
4, 857, Channel_aftertouch_c, 1, 75
4, 858, Channel_aftertouch_c, 1, 72
4, 859, Channel_aftertouch_c, 1, 70
4, 860, Channel_aftertouch_c, 1, 67
4, 860, Channel_aftertouch_c, 1, 64
4, 861, Channel_aftertouch_c, 1, 61
4, 862, Channel_aftertouch_c, 1, 58
4, 862, Channel_aftertouch_c, 1, 54
4, 863, Channel_aftertouch_c, 1, 51
4, 864, Channel_aftertouch_c, 1, 48
4, 865, Channel_aftertouch_c, 1, 44
4, 865, Channel_aftertouch_c, 1, 40
4, 866, Channel_aftertouch_c, 1, 36
4, 867, Channel_aftertouch_c, 1, 33
4, 868, Channel_aftertouch_c, 1, 29
4, 868, Channel_aftertouch_c, 1, 25
4, 869, Channel_aftertouch_c, 1, 21
4, 870, Channel_aftertouch_c, 1, 17
4, 871, Channel_aftertouch_c, 1, 13
4, 871, Channel_aftertouch_c, 1, 9
4, 872, Channel_aftertouch_c, 1, 5
4, 873, Channel_aftertouch_c, 1, 1
4, 874, Channel_aftertouch_c, 1, 0
4, 930, Note_on_c, 1, 55, 0
4, 931, Note_on_c, 1, 62, 0
4, 957, Channel_aftertouch_c, 1, 3
4, 958, Channel_aftertouch_c, 1, 7
4, 958, Note_on_c, 1, 57, 127
4, 959, Note_on_c, 1, 50, 114
4, 959, Channel_aftertouch_c, 1, 11
4, 960, Channel_aftertouch_c, 1, 15
4, 960, Channel_aftertouch_c, 1, 19
4, 961, Channel_aftertouch_c, 1, 23
4, 962, Channel_aftertouch_c, 1, 27
4, 963, Channel_aftertouch_c, 1, 31
4, 963, Channel_aftertouch_c, 1, 35
4, 964, Channel_aftertouch_c, 1, 39
4, 965, Channel_aftertouch_c, 1, 43
4, 966, Channel_aftertouch_c, 1, 47
4, 966, Channel_aftertouch_c, 1, 45
4, 967, Channel_aftertouch_c, 1, 41
4, 968, Channel_aftertouch_c, 1, 37
4, 969, Channel_aftertouch_c, 1, 33
4, 970, Channel_aftertouch_c, 1, 29
4, 970, Channel_aftertouch_c, 1, 25
4, 971, Channel_aftertouch_c, 1, 21
4, 972, Channel_aftertouch_c, 1, 17
4, 972, Channel_aftertouch_c, 1, 13
4, 973, Channel_aftertouch_c, 1, 9
4, 974, Channel_aftertouch_c, 1, 5
4, 974, Channel_aftertouch_c, 1, 1
4, 975, Channel_aftertouch_c, 1, 0
4, 1035, Note_on_c, 1, 50, 0
4, 1036, Note_on_c, 1, 57, 0
4, 1052, Note_on_c, 1, 50, 95
4, 1052, Note_on_c, 1, 57, 107
4, 1061, Note_on_c, 1, 57, 0
4, 1061, Note_on_c, 1, 50, 0
4, 1080, Note_on_c, 1, 53, 114
4, 1081, Note_on_c, 1, 60, 107
4, 1084, Channel_aftertouch_c, 1, 3
4, 1084, Channel_aftertouch_c, 1, 7
4, 1085, Channel_aftertouch_c, 1, 11
4, 1086, Channel_aftertouch_c, 1, 15
4, 1087, Channel_aftertouch_c, 1, 19
4, 1087, Channel_aftertouch_c, 1, 23
4, 1088, Channel_aftertouch_c, 1, 27
4, 1089, Channel_aftertouch_c, 1, 31
4, 1090, Channel_aftertouch_c, 1, 27
4, 1091, Channel_aftertouch_c, 1, 23
4, 1092, Channel_aftertouch_c, 1, 19
4, 1093, Channel_aftertouch_c, 1, 15
4, 1093, Channel_aftertouch_c, 1, 11
4, 1094, Channel_aftertouch_c, 1, 7
4, 1094, Channel_aftertouch_c, 1, 3
4, 1095, Channel_aftertouch_c, 1, 0
4, 1124, Note_on_c, 1, 60, 0
4, 1124, Note_on_c, 1, 53, 0
4, 1142, Note_on_c, 1, 55, 120
4, 1142, Note_on_c, 1, 62, 127
4, 1147, Channel_aftertouch_c, 1, 4
4, 1148, Channel_aftertouch_c, 1, 8
4, 1148, Channel_aftertouch_c, 1, 12
4, 1149, Channel_aftertouch_c, 1, 16
4, 1150, Channel_aftertouch_c, 1, 20
4, 1151, Channel_aftertouch_c, 1, 24
4, 1151, Channel_aftertouch_c, 1, 28
4, 1152, Channel_aftertouch_c, 1, 32
4, 1153, Channel_aftertouch_c, 1, 36
4, 1154, Channel_aftertouch_c, 1, 40
4, 1154, Channel_aftertouch_c, 1, 39
4, 1155, Channel_aftertouch_c, 1, 35
4, 1156, Channel_aftertouch_c, 1, 31
4, 1157, Channel_aftertouch_c, 1, 27
4, 1158, Channel_aftertouch_c, 1, 23
4, 1158, Channel_aftertouch_c, 1, 19
4, 1159, Channel_aftertouch_c, 1, 15
4, 1160, Channel_aftertouch_c, 1, 11
4, 1160, Channel_aftertouch_c, 1, 7
4, 1161, Channel_aftertouch_c, 1, 3
4, 1162, Channel_aftertouch_c, 1, 0
4, 1188, Channel_aftertouch_c, 1, 3
4, 1189, Channel_aftertouch_c, 1, 4
4, 1191, Channel_aftertouch_c, 1, 7
4, 1191, Channel_aftertouch_c, 1, 9
4, 1192, Channel_aftertouch_c, 1, 10
4, 1193, Channel_aftertouch_c, 1, 12
4, 1194, Channel_aftertouch_c, 1, 15
4, 1195, Channel_aftertouch_c, 1, 16
4, 1196, Channel_aftertouch_c, 1, 18
4, 1197, Channel_aftertouch_c, 1, 21
4, 1199, Channel_aftertouch_c, 1, 24
4, 1200, Channel_aftertouch_c, 1, 25
4, 1201, Channel_aftertouch_c, 1, 27
4, 1203, Channel_aftertouch_c, 1, 28
4, 1204, Channel_aftertouch_c, 1, 30
4, 1206, Channel_aftertouch_c, 1, 31
4, 1209, Channel_aftertouch_c, 1, 33
4, 1212, Channel_aftertouch_c, 1, 34
4, 1215, Channel_aftertouch_c, 1, 31
4, 1215, Channel_aftertouch_c, 1, 30
4, 1216, Channel_aftertouch_c, 1, 28
4, 1217, Channel_aftertouch_c, 1, 25
4, 1218, Channel_aftertouch_c, 1, 24
4, 1218, Channel_aftertouch_c, 1, 21
4, 1219, Channel_aftertouch_c, 1, 19
4, 1220, Channel_aftertouch_c, 1, 18
4, 1223, Channel_aftertouch_c, 1, 16
4, 1226, Channel_aftertouch_c, 1, 15
4, 1227, Channel_aftertouch_c, 1, 11
4, 1228, Channel_aftertouch_c, 1, 9
4, 1230, Channel_aftertouch_c, 1, 12
4, 1231, Channel_aftertouch_c, 1, 13
4, 1232, Channel_aftertouch_c, 1, 16
4, 1232, Channel_aftertouch_c, 1, 19
4, 1233, Channel_aftertouch_c, 1, 21
4, 1234, Channel_aftertouch_c, 1, 22
4, 1235, Channel_aftertouch_c, 1, 25
4, 1235, Channel_aftertouch_c, 1, 27
4, 1236, Channel_aftertouch_c, 1, 28
4, 1237, Channel_aftertouch_c, 1, 30
4, 1238, Channel_aftertouch_c, 1, 33
4, 1238, Channel_aftertouch_c, 1, 34
4, 1240, Channel_aftertouch_c, 1, 36
4, 1243, Channel_aftertouch_c, 1, 37
4, 1245, Channel_aftertouch_c, 1, 39
4, 1247, Channel_aftertouch_c, 1, 40
4, 1248, Channel_aftertouch_c, 1, 42
4, 1249, Channel_aftertouch_c, 1, 43
4, 1251, Channel_aftertouch_c, 1, 46
4, 1253, Channel_aftertouch_c, 1, 48
4, 1263, Channel_aftertouch_c, 1, 46
4, 1264, Channel_aftertouch_c, 1, 45
4, 1266, Channel_aftertouch_c, 1, 42
4, 1268, Channel_aftertouch_c, 1, 40
4, 1269, Channel_aftertouch_c, 1, 39
4, 1270, Channel_aftertouch_c, 1, 37
4, 1271, Channel_aftertouch_c, 1, 34
4, 1271, Channel_aftertouch_c, 1, 33
4, 1272, Channel_aftertouch_c, 1, 31
4, 1274, Channel_aftertouch_c, 1, 30
4, 1283, Channel_aftertouch_c, 1, 27
4, 1283, Channel_aftertouch_c, 1, 24
4, 1284, Channel_aftertouch_c, 1, 22
4, 1285, Channel_aftertouch_c, 1, 19
4, 1285, Channel_aftertouch_c, 1, 16
4, 1286, Channel_aftertouch_c, 1, 13
4, 1287, Channel_aftertouch_c, 1, 10
4, 1288, Channel_aftertouch_c, 1, 9
4, 1288, Channel_aftertouch_c, 1, 6
4, 1289, Channel_aftertouch_c, 1, 4
4, 1290, Channel_aftertouch_c, 1, 3
4, 1291, Channel_aftertouch_c, 1, 1
4, 1292, Channel_aftertouch_c, 1, 0
4, 1296, Channel_aftertouch_c, 1, 3
4, 1296, Channel_aftertouch_c, 1, 6
4, 1297, Channel_aftertouch_c, 1, 7
4, 1298, Channel_aftertouch_c, 1, 9
4, 1299, Channel_aftertouch_c, 1, 12
4, 1299, Channel_aftertouch_c, 1, 15
4, 1300, Channel_aftertouch_c, 1, 16
4, 1301, Channel_aftertouch_c, 1, 18
4, 1302, Channel_aftertouch_c, 1, 21
4, 1302, Channel_aftertouch_c, 1, 22
4, 1304, Channel_aftertouch_c, 1, 24
4, 1304, Channel_aftertouch_c, 1, 27
4, 1309, Channel_aftertouch_c, 1, 24
4, 1310, Channel_aftertouch_c, 1, 22
4, 1312, Channel_aftertouch_c, 1, 21
4, 1321, Channel_aftertouch_c, 1, 19
4, 1327, Channel_aftertouch_c, 1, 18
4, 1333, Channel_aftertouch_c, 1, 21
4, 1334, Channel_aftertouch_c, 1, 22
4, 1335, Channel_aftertouch_c, 1, 24
4, 1335, Channel_aftertouch_c, 1, 27
4, 1336, Channel_aftertouch_c, 1, 28
4, 1338, Channel_aftertouch_c, 1, 30
4, 1340, Channel_aftertouch_c, 1, 31
4, 1342, Channel_aftertouch_c, 1, 33
4, 1344, Channel_aftertouch_c, 1, 34
4, 1350, Channel_aftertouch_c, 1, 33
4, 1351, Channel_aftertouch_c, 1, 30
4, 1352, Channel_aftertouch_c, 1, 28
4, 1352, Channel_aftertouch_c, 1, 27
4, 1353, Channel_aftertouch_c, 1, 25
4, 1355, Channel_aftertouch_c, 1, 24
4, 1358, Channel_aftertouch_c, 1, 22
4, 1361, Channel_aftertouch_c, 1, 21
4, 1362, Channel_aftertouch_c, 1, 18
4, 1363, Channel_aftertouch_c, 1, 16
4, 1364, Channel_aftertouch_c, 1, 15
4, 1364, Channel_aftertouch_c, 1, 13
4, 1366, Channel_aftertouch_c, 1, 10
4, 1367, Channel_aftertouch_c, 1, 9
4, 1367, Channel_aftertouch_c, 1, 7
4, 1368, Channel_aftertouch_c, 1, 6
4, 1369, Channel_aftertouch_c, 1, 3
4, 1369, Channel_aftertouch_c, 1, 0
4, 1406, Note_on_c, 1, 55, 0
4, 1407, Note_on_c, 1, 62, 0
4, 1437, Channel_aftertouch_c, 1, 4
4, 1437, Channel_aftertouch_c, 1, 8
4, 1438, Note_on_c, 1, 57, 127
4, 1438, Note_on_c, 1, 50, 114
4, 1438, Channel_aftertouch_c, 1, 12
4, 1439, Channel_aftertouch_c, 1, 16
4, 1440, Channel_aftertouch_c, 1, 20
4, 1440, Channel_aftertouch_c, 1, 24
4, 1441, Channel_aftertouch_c, 1, 28
4, 1442, Channel_aftertouch_c, 1, 32
4, 1442, Channel_aftertouch_c, 1, 36
4, 1443, Channel_aftertouch_c, 1, 40
4, 1444, Channel_aftertouch_c, 1, 36
4, 1445, Channel_aftertouch_c, 1, 32
4, 1446, Channel_aftertouch_c, 1, 28
4, 1446, Channel_aftertouch_c, 1, 24
4, 1447, Channel_aftertouch_c, 1, 20
4, 1448, Channel_aftertouch_c, 1, 16
4, 1449, Channel_aftertouch_c, 1, 12
4, 1449, Channel_aftertouch_c, 1, 8
4, 1450, Channel_aftertouch_c, 1, 4
4, 1451, Channel_aftertouch_c, 1, 0
4, 1514, Note_on_c, 1, 57, 0
4, 1515, Note_on_c, 1, 50, 0
4, 1531, Note_on_c, 1, 50, 89
4, 1531, Note_on_c, 1, 57, 107
4, 1540, Note_on_c, 1, 57, 0
4, 1540, Note_on_c, 1, 50, 0
4, 1559, Note_on_c, 1, 53, 104
4, 1561, Note_on_c, 1, 60, 114
4, 1563, Channel_aftertouch_c, 1, 4
4, 1564, Channel_aftertouch_c, 1, 8
4, 1565, Channel_aftertouch_c, 1, 12
4, 1566, Channel_aftertouch_c, 1, 16
4, 1566, Channel_aftertouch_c, 1, 20
4, 1567, Channel_aftertouch_c, 1, 24
4, 1568, Channel_aftertouch_c, 1, 28
4, 1568, Channel_aftertouch_c, 1, 32
4, 1569, Channel_aftertouch_c, 1, 31
4, 1570, Channel_aftertouch_c, 1, 27
4, 1571, Channel_aftertouch_c, 1, 23
4, 1571, Channel_aftertouch_c, 1, 19
4, 1572, Channel_aftertouch_c, 1, 15
4, 1573, Channel_aftertouch_c, 1, 11
4, 1573, Channel_aftertouch_c, 1, 7
4, 1574, Channel_aftertouch_c, 1, 3
4, 1575, Channel_aftertouch_c, 1, 0
4, 1607, Note_on_c, 1, 53, 0
4, 1610, Note_on_c, 1, 60, 0
4, 1623, Note_on_c, 1, 55, 114
4, 1623, Note_on_c, 1, 62, 120
4, 1632, Channel_aftertouch_c, 1, 4
4, 1633, Channel_aftertouch_c, 1, 8
4, 1633, Channel_aftertouch_c, 1, 12
4, 1634, Channel_aftertouch_c, 1, 16
4, 1635, Channel_aftertouch_c, 1, 20
4, 1636, Channel_aftertouch_c, 1, 24
4, 1636, Channel_aftertouch_c, 1, 28
4, 1637, Channel_aftertouch_c, 1, 27
4, 1638, Channel_aftertouch_c, 1, 23
4, 1638, Channel_aftertouch_c, 1, 19
4, 1639, Channel_aftertouch_c, 1, 15
4, 1640, Channel_aftertouch_c, 1, 11
4, 1640, Channel_aftertouch_c, 1, 7
4, 1641, Channel_aftertouch_c, 1, 3
4, 1642, Channel_aftertouch_c, 1, 0
4, 1683, Channel_aftertouch_c, 1, 3
4, 1685, Channel_aftertouch_c, 1, 4
4, 1687, Channel_aftertouch_c, 1, 6
4, 1688, Channel_aftertouch_c, 1, 9
4, 1691, Channel_aftertouch_c, 1, 10
4, 1696, Channel_aftertouch_c, 1, 12
4, 1697, Channel_aftertouch_c, 1, 13
4, 1699, Channel_aftertouch_c, 1, 16
4, 1700, Channel_aftertouch_c, 1, 18
4, 1702, Channel_aftertouch_c, 1, 19
4, 1704, Channel_aftertouch_c, 1, 22
4, 1706, Channel_aftertouch_c, 1, 24
4, 1709, Channel_aftertouch_c, 1, 25
4, 1720, Channel_aftertouch_c, 1, 24
4, 1721, Channel_aftertouch_c, 1, 21
4, 1721, Channel_aftertouch_c, 1, 19
4, 1722, Channel_aftertouch_c, 1, 16
4, 1723, Channel_aftertouch_c, 1, 13
4, 1724, Channel_aftertouch_c, 1, 12
4, 1724, Channel_aftertouch_c, 1, 9
4, 1725, Channel_aftertouch_c, 1, 7
4, 1726, Channel_aftertouch_c, 1, 4
4, 1727, Channel_aftertouch_c, 1, 1
4, 1729, Channel_aftertouch_c, 1, 4
4, 1730, Channel_aftertouch_c, 1, 6
4, 1730, Channel_aftertouch_c, 1, 7
4, 1732, Channel_aftertouch_c, 1, 10
4, 1733, Channel_aftertouch_c, 1, 12
4, 1734, Channel_aftertouch_c, 1, 15
4, 1734, Channel_aftertouch_c, 1, 16
4, 1735, Channel_aftertouch_c, 1, 19
4, 1736, Channel_aftertouch_c, 1, 21
4, 1737, Channel_aftertouch_c, 1, 22
4, 1737, Channel_aftertouch_c, 1, 25
4, 1738, Channel_aftertouch_c, 1, 27
4, 1739, Channel_aftertouch_c, 1, 30
4, 1741, Channel_aftertouch_c, 1, 31
4, 1744, Channel_aftertouch_c, 1, 30
4, 1745, Channel_aftertouch_c, 1, 28
4, 1746, Channel_aftertouch_c, 1, 25
4, 1748, Channel_aftertouch_c, 1, 22
4, 1753, Channel_aftertouch_c, 1, 25
4, 1754, Channel_aftertouch_c, 1, 27
4, 1755, Channel_aftertouch_c, 1, 28
4, 1755, Channel_aftertouch_c, 1, 30
4, 1756, Channel_aftertouch_c, 1, 33
4, 1757, Channel_aftertouch_c, 1, 34
4, 1758, Channel_aftertouch_c, 1, 36
4, 1760, Channel_aftertouch_c, 1, 37
4, 1763, Channel_aftertouch_c, 1, 39
4, 1765, Channel_aftertouch_c, 1, 40
4, 1769, Channel_aftertouch_c, 1, 42
4, 1771, Channel_aftertouch_c, 1, 43
4, 1776, Channel_aftertouch_c, 1, 45
4, 1782, Channel_aftertouch_c, 1, 48
4, 1783, Channel_aftertouch_c, 1, 49
4, 1784, Channel_aftertouch_c, 1, 51
4, 1785, Channel_aftertouch_c, 1, 54
4, 1786, Channel_aftertouch_c, 1, 55
4, 1786, Channel_aftertouch_c, 1, 57
4, 1787, Channel_aftertouch_c, 1, 60
4, 1788, Channel_aftertouch_c, 1, 61
4, 1789, Channel_aftertouch_c, 1, 63
4, 1789, Channel_aftertouch_c, 1, 64
4, 1790, Channel_aftertouch_c, 1, 66
4, 1791, Channel_aftertouch_c, 1, 69
4, 1792, Channel_aftertouch_c, 1, 70
4, 1793, Channel_aftertouch_c, 1, 72
4, 1794, Channel_aftertouch_c, 1, 75
4, 1796, Channel_aftertouch_c, 1, 76
4, 1797, Channel_aftertouch_c, 1, 78
4, 1799, Channel_aftertouch_c, 1, 79
4, 1802, Channel_aftertouch_c, 1, 81
4, 1805, Channel_aftertouch_c, 1, 82
4, 1807, Channel_aftertouch_c, 1, 84
4, 1811, Channel_aftertouch_c, 1, 85
4, 1815, Channel_aftertouch_c, 1, 87
4, 1830, Channel_aftertouch_c, 1, 85
4, 1832, Channel_aftertouch_c, 1, 84
4, 1833, Channel_aftertouch_c, 1, 81
4, 1835, Channel_aftertouch_c, 1, 79
4, 1836, Channel_aftertouch_c, 1, 76
4, 1838, Channel_aftertouch_c, 1, 73
4, 1839, Channel_aftertouch_c, 1, 70
4, 1840, Channel_aftertouch_c, 1, 69
4, 1841, Channel_aftertouch_c, 1, 67
4, 1841, Channel_aftertouch_c, 1, 66
4, 1842, Channel_aftertouch_c, 1, 64
4, 1843, Channel_aftertouch_c, 1, 63
4, 1844, Channel_aftertouch_c, 1, 61
4, 1844, Channel_aftertouch_c, 1, 60
4, 1846, Channel_aftertouch_c, 1, 57
4, 1847, Channel_aftertouch_c, 1, 54
4, 1849, Channel_aftertouch_c, 1, 52
4, 1850, Channel_aftertouch_c, 1, 49
4, 1851, Channel_aftertouch_c, 1, 48
4, 1852, Channel_aftertouch_c, 1, 46
4, 1853, Channel_aftertouch_c, 1, 43
4, 1853, Channel_aftertouch_c, 1, 42
4, 1854, Channel_aftertouch_c, 1, 40
4, 1855, Channel_aftertouch_c, 1, 39
4, 1855, Channel_aftertouch_c, 1, 37
4, 1856, Channel_aftertouch_c, 1, 36
4, 1857, Channel_aftertouch_c, 1, 33
4, 1858, Channel_aftertouch_c, 1, 31
4, 1859, Channel_aftertouch_c, 1, 28
4, 1860, Channel_aftertouch_c, 1, 25
4, 1860, Channel_aftertouch_c, 1, 24
4, 1861, Channel_aftertouch_c, 1, 22
4, 1863, Channel_aftertouch_c, 1, 19
4, 1865, Channel_aftertouch_c, 1, 18
4, 1877, Channel_aftertouch_c, 1, 15
4, 1877, Channel_aftertouch_c, 1, 11
4, 1878, Channel_aftertouch_c, 1, 7
4, 1879, Channel_aftertouch_c, 1, 3
4, 1879, Channel_aftertouch_c, 1, 0
4, 1887, Note_on_c, 1, 62, 0
4, 1888, Note_on_c, 1, 55, 0
4, 1917, Channel_aftertouch_c, 1, 4
4, 1918, Note_on_c, 1, 50, 107
4, 1918, Note_on_c, 1, 57, 127
4, 1918, Channel_aftertouch_c, 1, 8
4, 1918, Channel_aftertouch_c, 1, 12
4, 1919, Channel_aftertouch_c, 1, 16
4, 1920, Channel_aftertouch_c, 1, 20
4, 1921, Channel_aftertouch_c, 1, 24
4, 1922, Channel_aftertouch_c, 1, 28
4, 1922, Channel_aftertouch_c, 1, 32
4, 1923, Channel_aftertouch_c, 1, 36
4, 1924, Channel_aftertouch_c, 1, 40
4, 1924, Channel_aftertouch_c, 1, 36
4, 1925, Channel_aftertouch_c, 1, 32
4, 1926, Channel_aftertouch_c, 1, 28
4, 1927, Channel_aftertouch_c, 1, 24
4, 1927, Channel_aftertouch_c, 1, 20
4, 1928, Channel_aftertouch_c, 1, 16
4, 1929, Channel_aftertouch_c, 1, 12
4, 1929, Channel_aftertouch_c, 1, 8
4, 1930, Channel_aftertouch_c, 1, 4
4, 1931, Channel_aftertouch_c, 1, 0
4, 1999, Note_on_c, 1, 57, 0
4, 1999, Note_on_c, 1, 50, 0
4, 2012, Note_on_c, 1, 50, 89
4, 2012, Note_on_c, 1, 57, 104
4, 2023, Note_on_c, 1, 57, 0
4, 2023, Note_on_c, 1, 50, 0
4, 2041, Note_on_c, 1, 60, 127
4, 2041, Note_on_c, 1, 53, 107
4, 2044, Channel_aftertouch_c, 1, 3
4, 2045, Channel_aftertouch_c, 1, 7
4, 2045, Channel_aftertouch_c, 1, 11
4, 2046, Channel_aftertouch_c, 1, 15
4, 2047, Channel_aftertouch_c, 1, 19
4, 2048, Channel_aftertouch_c, 1, 23
4, 2048, Channel_aftertouch_c, 1, 27
4, 2049, Channel_aftertouch_c, 1, 31
4, 2050, Channel_aftertouch_c, 1, 35
4, 2050, Channel_aftertouch_c, 1, 39
4, 2051, Channel_aftertouch_c, 1, 35
4, 2052, Channel_aftertouch_c, 1, 31
4, 2053, Channel_aftertouch_c, 1, 27
4, 2053, Channel_aftertouch_c, 1, 23
4, 2054, Channel_aftertouch_c, 1, 19
4, 2055, Channel_aftertouch_c, 1, 15
4, 2055, Channel_aftertouch_c, 1, 11
4, 2057, Channel_aftertouch_c, 1, 7
4, 2057, Channel_aftertouch_c, 1, 3
4, 2058, Channel_aftertouch_c, 1, 0
4, 2082, Note_on_c, 1, 53, 0
4, 2087, Note_on_c, 1, 60, 0
4, 2102, Note_on_c, 1, 55, 127
4, 2102, Note_on_c, 1, 62, 120
4, 2107, Channel_aftertouch_c, 1, 4
4, 2107, Channel_aftertouch_c, 1, 0
4, 2108, Channel_aftertouch_c, 1, 4
4, 2108, Channel_aftertouch_c, 1, 8
4, 2109, Channel_aftertouch_c, 1, 12
4, 2110, Channel_aftertouch_c, 1, 16
4, 2110, Channel_aftertouch_c, 1, 20
4, 2111, Channel_aftertouch_c, 1, 24
4, 2112, Channel_aftertouch_c, 1, 28
4, 2113, Channel_aftertouch_c, 1, 32
4, 2113, Channel_aftertouch_c, 1, 36
4, 2114, Channel_aftertouch_c, 1, 40
4, 2115, Channel_aftertouch_c, 1, 44
4, 2116, Channel_aftertouch_c, 1, 40
4, 2116, Channel_aftertouch_c, 1, 36
4, 2117, Channel_aftertouch_c, 1, 32
4, 2118, Channel_aftertouch_c, 1, 28
4, 2118, Channel_aftertouch_c, 1, 24
4, 2119, Channel_aftertouch_c, 1, 20
4, 2120, Channel_aftertouch_c, 1, 16
4, 2121, Channel_aftertouch_c, 1, 12
4, 2121, Channel_aftertouch_c, 1, 8
4, 2122, Channel_aftertouch_c, 1, 4
4, 2123, Channel_aftertouch_c, 1, 0
4, 2126, Channel_aftertouch_c, 1, 1
4, 2127, Channel_aftertouch_c, 1, 3
4, 2129, Channel_aftertouch_c, 1, 6
4, 2132, Channel_aftertouch_c, 1, 7
4, 2139, Channel_aftertouch_c, 1, 4
4, 2140, Channel_aftertouch_c, 1, 1
4, 2141, Channel_aftertouch_c, 1, 0
4, 2152, Channel_aftertouch_c, 1, 3
4, 2152, Channel_aftertouch_c, 1, 4
4, 2153, Channel_aftertouch_c, 1, 7
4, 2154, Channel_aftertouch_c, 1, 10
4, 2154, Channel_aftertouch_c, 1, 12
4, 2155, Channel_aftertouch_c, 1, 15
4, 2156, Channel_aftertouch_c, 1, 18
4, 2156, Channel_aftertouch_c, 1, 19
4, 2157, Channel_aftertouch_c, 1, 21
4, 2158, Channel_aftertouch_c, 1, 24
4, 2160, Channel_aftertouch_c, 1, 25
4, 2163, Channel_aftertouch_c, 1, 27
4, 2169, Channel_aftertouch_c, 1, 25
4, 2173, Channel_aftertouch_c, 1, 27
4, 2175, Channel_aftertouch_c, 1, 28
4, 2180, Channel_aftertouch_c, 1, 27
4, 2183, Channel_aftertouch_c, 1, 25
4, 2185, Channel_aftertouch_c, 1, 28
4, 2187, Channel_aftertouch_c, 1, 30
4, 2189, Channel_aftertouch_c, 1, 31
4, 2190, Channel_aftertouch_c, 1, 33
4, 2193, Channel_aftertouch_c, 1, 34
4, 2197, Channel_aftertouch_c, 1, 36
4, 2201, Channel_aftertouch_c, 1, 37
4, 2205, Channel_aftertouch_c, 1, 39
4, 2210, Channel_aftertouch_c, 1, 40
4, 2216, Channel_aftertouch_c, 1, 43
4, 2224, Channel_aftertouch_c, 1, 40
4, 2225, Channel_aftertouch_c, 1, 37
4, 2227, Channel_aftertouch_c, 1, 36
4, 2228, Channel_aftertouch_c, 1, 33
4, 2228, Channel_aftertouch_c, 1, 31
4, 2229, Channel_aftertouch_c, 1, 30
4, 2230, Channel_aftertouch_c, 1, 27
4, 2230, Channel_aftertouch_c, 1, 25
4, 2232, Channel_aftertouch_c, 1, 24
4, 2233, Channel_aftertouch_c, 1, 21
4, 2233, Channel_aftertouch_c, 1, 17
4, 2234, Channel_aftertouch_c, 1, 13
4, 2235, Channel_aftertouch_c, 1, 10
4, 2236, Channel_aftertouch_c, 1, 9
4, 2238, Channel_aftertouch_c, 1, 7
4, 2244, Channel_aftertouch_c, 1, 9
4, 2245, Channel_aftertouch_c, 1, 12
4, 2246, Channel_aftertouch_c, 1, 13
4, 2246, Channel_aftertouch_c, 1, 16
4, 2247, Channel_aftertouch_c, 1, 19
4, 2248, Channel_aftertouch_c, 1, 22
4, 2249, Channel_aftertouch_c, 1, 25
4, 2249, Channel_aftertouch_c, 1, 28
4, 2250, Channel_aftertouch_c, 1, 31
4, 2251, Channel_aftertouch_c, 1, 33
4, 2251, Channel_aftertouch_c, 1, 34
4, 2253, Channel_aftertouch_c, 1, 37
4, 2254, Channel_aftertouch_c, 1, 40
4, 2255, Channel_aftertouch_c, 1, 42
4, 2256, Channel_aftertouch_c, 1, 45
4, 2257, Channel_aftertouch_c, 1, 46
4, 2258, Channel_aftertouch_c, 1, 49
4, 2260, Channel_aftertouch_c, 1, 52
4, 2261, Channel_aftertouch_c, 1, 54
4, 2262, Channel_aftertouch_c, 1, 57
4, 2263, Channel_aftertouch_c, 1, 58
4, 2265, Channel_aftertouch_c, 1, 60
4, 2266, Channel_aftertouch_c, 1, 61
4, 2267, Channel_aftertouch_c, 1, 63
4, 2270, Channel_aftertouch_c, 1, 64
4, 2273, Channel_aftertouch_c, 1, 67
4, 2278, Channel_aftertouch_c, 1, 69
4, 2283, Channel_aftertouch_c, 1, 70
4, 2286, Channel_aftertouch_c, 1, 72
4, 2289, Channel_aftertouch_c, 1, 73
4, 2292, Channel_aftertouch_c, 1, 75
4, 2295, Channel_aftertouch_c, 1, 76
4, 2298, Channel_aftertouch_c, 1, 78
4, 2320, Channel_aftertouch_c, 1, 75
4, 2320, Channel_aftertouch_c, 1, 73
4, 2321, Channel_aftertouch_c, 1, 72
4, 2322, Channel_aftertouch_c, 1, 69
4, 2323, Channel_aftertouch_c, 1, 67
4, 2324, Channel_aftertouch_c, 1, 64
4, 2325, Channel_aftertouch_c, 1, 61
4, 2325, Channel_aftertouch_c, 1, 60
4, 2326, Channel_aftertouch_c, 1, 57
4, 2327, Channel_aftertouch_c, 1, 53
4, 2328, Channel_aftertouch_c, 1, 49
4, 2328, Channel_aftertouch_c, 1, 46
4, 2329, Channel_aftertouch_c, 1, 42
4, 2330, Channel_aftertouch_c, 1, 38
4, 2331, Channel_aftertouch_c, 1, 34
4, 2332, Channel_aftertouch_c, 1, 30
4, 2332, Channel_aftertouch_c, 1, 26
4, 2333, Channel_aftertouch_c, 1, 22
4, 2334, Channel_aftertouch_c, 1, 18
4, 2335, Channel_aftertouch_c, 1, 14
4, 2335, Channel_aftertouch_c, 1, 10
4, 2336, Channel_aftertouch_c, 1, 6
4, 2336, Channel_aftertouch_c, 1, 2
4, 2337, Channel_aftertouch_c, 1, 0
4, 2369, Note_on_c, 1, 62, 0
4, 2370, Note_on_c, 1, 55, 0
4, 7201, Note_on_c, 1, 55, 104
4, 7201, Note_on_c, 1, 62, 107
4, 7221, Note_on_c, 1, 62, 0
4, 7224, Note_on_c, 1, 55, 0
4, 7231, Note_on_c, 1, 55, 87
4, 7231, Note_on_c, 1, 62, 89
4, 7247, Note_on_c, 1, 62, 0
4, 7251, Note_on_c, 1, 55, 0
4, 7259, Note_on_c, 1, 62, 87
4, 7259, Note_on_c, 1, 55, 83
4, 7275, Note_on_c, 1, 55, 0
4, 7279, Note_on_c, 1, 62, 0
4, 7289, Note_on_c, 1, 55, 89
4, 7290, Note_on_c, 1, 62, 92
4, 7306, Note_on_c, 1, 62, 0
4, 7311, Note_on_c, 1, 55, 0
4, 7321, Note_on_c, 1, 55, 104
4, 7321, Note_on_c, 1, 62, 114
4, 7325, Channel_aftertouch_c, 1, 1
4, 7325, Channel_aftertouch_c, 1, 5
4, 7326, Channel_aftertouch_c, 1, 9
4, 7327, Channel_aftertouch_c, 1, 13
4, 7327, Channel_aftertouch_c, 1, 17
4, 7328, Channel_aftertouch_c, 1, 21
4, 7329, Channel_aftertouch_c, 1, 25
4, 7329, Channel_aftertouch_c, 1, 29
4, 7330, Channel_aftertouch_c, 1, 33
4, 7331, Channel_aftertouch_c, 1, 34
4, 7332, Channel_aftertouch_c, 1, 30
4, 7332, Channel_aftertouch_c, 1, 26
4, 7333, Channel_aftertouch_c, 1, 22
4, 7334, Channel_aftertouch_c, 1, 18
4, 7335, Channel_aftertouch_c, 1, 14
4, 7335, Channel_aftertouch_c, 1, 10
4, 7336, Channel_aftertouch_c, 1, 6
4, 7337, Channel_aftertouch_c, 1, 2
4, 7338, Channel_aftertouch_c, 1, 0
4, 7543, Pitch_bend_c, 1, 8064
4, 7543, Pitch_bend_c, 1, 7936
4, 7544, Pitch_bend_c, 1, 7808
4, 7546, Pitch_bend_c, 1, 7552
4, 7547, Pitch_bend_c, 1, 7424
4, 7549, Pitch_bend_c, 1, 7296
4, 7550, Pitch_bend_c, 1, 7040
4, 7551, Pitch_bend_c, 1, 6912
4, 7553, Pitch_bend_c, 1, 6656
4, 7554, Pitch_bend_c, 1, 6528
4, 7555, Pitch_bend_c, 1, 6400
4, 7557, Pitch_bend_c, 1, 6144
4, 7557, Pitch_bend_c, 1, 6016
4, 7558, Pitch_bend_c, 1, 5888
4, 7559, Pitch_bend_c, 1, 5760
4, 7561, Pitch_bend_c, 1, 5504
4, 7562, Pitch_bend_c, 1, 5376
4, 7562, Pitch_bend_c, 1, 5120
4, 7563, Pitch_bend_c, 1, 4992
4, 7564, Pitch_bend_c, 1, 4864
4, 7564, Pitch_bend_c, 1, 4736
4, 7566, Pitch_bend_c, 1, 4480
4, 7566, Pitch_bend_c, 1, 4352
4, 7567, Pitch_bend_c, 1, 4224
4, 7567, Pitch_bend_c, 1, 4096
4, 7568, Pitch_bend_c, 1, 3840
4, 7569, Pitch_bend_c, 1, 3584
4, 7569, Pitch_bend_c, 1, 3456
4, 7570, Pitch_bend_c, 1, 3328
4, 7571, Pitch_bend_c, 1, 3072
4, 7572, Pitch_bend_c, 1, 2816
4, 7572, Pitch_bend_c, 1, 2560
4, 7573, Pitch_bend_c, 1, 2304
4, 7574, Pitch_bend_c, 1, 2048
4, 7575, Pitch_bend_c, 1, 1792
4, 7575, Pitch_bend_c, 1, 1536
4, 7576, Pitch_bend_c, 1, 1152
4, 7577, Pitch_bend_c, 1, 896
4, 7578, Pitch_bend_c, 1, 640
4, 7578, Pitch_bend_c, 1, 256
4, 7579, Pitch_bend_c, 1, 0
4, 7598, Pitch_bend_c, 1, 128
4, 7598, Pitch_bend_c, 1, 2560
4, 7599, Pitch_bend_c, 1, 5632
4, 7600, Pitch_bend_c, 1, 8192
4, 7600, Pitch_bend_c, 1, 8452
4, 7601, Pitch_bend_c, 1, 10012
4, 7602, Pitch_bend_c, 1, 10402
4, 7602, Pitch_bend_c, 1, 9882
4, 7603, Pitch_bend_c, 1, 8452
4, 7604, Pitch_bend_c, 1, 8192
4, 7605, Pitch_bend_c, 1, 6656
4, 7606, Pitch_bend_c, 1, 6144
4, 7607, Pitch_bend_c, 1, 6528
4, 7607, Pitch_bend_c, 1, 7552
4, 7608, Pitch_bend_c, 1, 8192
4, 7634, Pitch_bend_c, 1, 8452
4, 7634, Pitch_bend_c, 1, 8972
4, 7635, Pitch_bend_c, 1, 9362
4, 7636, Pitch_bend_c, 1, 9752
4, 7637, Pitch_bend_c, 1, 10272
4, 7637, Pitch_bend_c, 1, 10792
4, 7638, Pitch_bend_c, 1, 11442
4, 7639, Pitch_bend_c, 1, 11962
4, 7639, Pitch_bend_c, 1, 12612
4, 7640, Pitch_bend_c, 1, 13262
4, 7641, Pitch_bend_c, 1, 13912
4, 7641, Pitch_bend_c, 1, 14562
4, 7642, Pitch_bend_c, 1, 15212
4, 7643, Pitch_bend_c, 1, 15862
4, 7644, Pitch_bend_c, 1, 16382
4, 7656, Note_on_c, 1, 62, 0
4, 7660, Note_on_c, 1, 55, 0
4, 7681, Note_on_c, 1, 72, 99
4, 7681, Note_on_c, 1, 65, 95
4, 7701, Note_on_c, 1, 65, 0
4, 7704, Note_on_c, 1, 72, 0
4, 7711, Note_on_c, 1, 72, 99
4, 7712, Note_on_c, 1, 65, 99
4, 7727, Note_on_c, 1, 72, 0
4, 7732, Note_on_c, 1, 65, 0
4, 7741, Note_on_c, 1, 65, 87
4, 7742, Note_on_c, 1, 72, 92
4, 7760, Note_on_c, 1, 72, 0
4, 7761, Note_on_c, 1, 65, 0
4, 7772, Note_on_c, 1, 65, 92
4, 7773, Note_on_c, 1, 72, 94
4, 7787, Note_on_c, 1, 72, 0
4, 7792, Note_on_c, 1, 65, 0
4, 7803, Note_on_c, 1, 65, 107
4, 7803, Note_on_c, 1, 72, 107
4, 7809, Channel_aftertouch_c, 1, 4
4, 7810, Channel_aftertouch_c, 1, 8
4, 7810, Channel_aftertouch_c, 1, 12
4, 7811, Channel_aftertouch_c, 1, 16
4, 7812, Channel_aftertouch_c, 1, 20
4, 7813, Channel_aftertouch_c, 1, 24
4, 7813, Channel_aftertouch_c, 1, 20
4, 7814, Channel_aftertouch_c, 1, 16
4, 7815, Channel_aftertouch_c, 1, 12
4, 7816, Channel_aftertouch_c, 1, 8
4, 7817, Channel_aftertouch_c, 1, 4
4, 7818, Channel_aftertouch_c, 1, 0
4, 7975, Pitch_bend_c, 1, 16252
4, 7975, Pitch_bend_c, 1, 16122
4, 7977, Pitch_bend_c, 1, 15862
4, 7978, Pitch_bend_c, 1, 15732
4, 7979, Pitch_bend_c, 1, 15602
4, 7980, Pitch_bend_c, 1, 15472
4, 7982, Pitch_bend_c, 1, 15212
4, 7983, Pitch_bend_c, 1, 14952
4, 7984, Pitch_bend_c, 1, 14692
4, 7986, Pitch_bend_c, 1, 14562
4, 7987, Pitch_bend_c, 1, 14302
4, 7989, Pitch_bend_c, 1, 14042
4, 7990, Pitch_bend_c, 1, 13912
4, 7991, Pitch_bend_c, 1, 13652
4, 7993, Pitch_bend_c, 1, 13392
4, 7995, Pitch_bend_c, 1, 13262
4, 7996, Pitch_bend_c, 1, 13002
4, 7998, Pitch_bend_c, 1, 12872
4, 7998, Pitch_bend_c, 1, 12742
4, 8000, Pitch_bend_c, 1, 12482
4, 8001, Pitch_bend_c, 1, 12352
4, 8003, Pitch_bend_c, 1, 12092
4, 8004, Pitch_bend_c, 1, 11962
4, 8005, Pitch_bend_c, 1, 11702
4, 8007, Pitch_bend_c, 1, 11442
4, 8008, Pitch_bend_c, 1, 11312
4, 8010, Pitch_bend_c, 1, 10922
4, 8012, Pitch_bend_c, 1, 10662
4, 8013, Pitch_bend_c, 1, 10532
4, 8013, Pitch_bend_c, 1, 10402
4, 8015, Pitch_bend_c, 1, 10142
4, 8016, Pitch_bend_c, 1, 9882
4, 8017, Pitch_bend_c, 1, 9752
4, 8018, Pitch_bend_c, 1, 9492
4, 8019, Pitch_bend_c, 1, 9362
4, 8021, Pitch_bend_c, 1, 9232
4, 8021, Pitch_bend_c, 1, 9102
4, 8023, Pitch_bend_c, 1, 8842
4, 8024, Pitch_bend_c, 1, 8712
4, 8025, Pitch_bend_c, 1, 8452
4, 8026, Pitch_bend_c, 1, 8322
4, 8026, Pitch_bend_c, 1, 8192
4, 8052, Pitch_bend_c, 1, 8064
4, 8052, Pitch_bend_c, 1, 7808
4, 8053, Pitch_bend_c, 1, 7680
4, 8054, Pitch_bend_c, 1, 7424
4, 8056, Pitch_bend_c, 1, 7168
4, 8057, Pitch_bend_c, 1, 6912
4, 8060, Pitch_bend_c, 1, 6784
4, 8060, Pitch_bend_c, 1, 6528
4, 8062, Pitch_bend_c, 1, 6400
4, 8064, Pitch_bend_c, 1, 6272
4, 8066, Pitch_bend_c, 1, 6144
4, 8067, Pitch_bend_c, 1, 6016
4, 8069, Pitch_bend_c, 1, 5760
4, 8070, Pitch_bend_c, 1, 5632
4, 8073, Pitch_bend_c, 1, 5504
4, 8075, Pitch_bend_c, 1, 5120
4, 8077, Pitch_bend_c, 1, 4992
4, 8080, Pitch_bend_c, 1, 4864
4, 8082, Pitch_bend_c, 1, 4736
4, 8084, Pitch_bend_c, 1, 4608
4, 8085, Pitch_bend_c, 1, 4480
4, 8087, Pitch_bend_c, 1, 4352
4, 8088, Pitch_bend_c, 1, 4224
4, 8089, Pitch_bend_c, 1, 4096
4, 8091, Pitch_bend_c, 1, 3840
4, 8092, Pitch_bend_c, 1, 3712
4, 8094, Pitch_bend_c, 1, 3584
4, 8095, Pitch_bend_c, 1, 3456
4, 8097, Pitch_bend_c, 1, 3328
4, 8098, Pitch_bend_c, 1, 3200
4, 8100, Pitch_bend_c, 1, 3072
4, 8101, Pitch_bend_c, 1, 2816
4, 8102, Pitch_bend_c, 1, 2688
4, 8104, Pitch_bend_c, 1, 2432
4, 8105, Pitch_bend_c, 1, 2304
4, 8107, Pitch_bend_c, 1, 2176
4, 8108, Pitch_bend_c, 1, 1920
4, 8110, Pitch_bend_c, 1, 1664
4, 8110, Pitch_bend_c, 1, 1536
4, 8112, Pitch_bend_c, 1, 1408
4, 8112, Pitch_bend_c, 1, 1280
4, 8114, Pitch_bend_c, 1, 1024
4, 8115, Pitch_bend_c, 1, 896
4, 8116, Pitch_bend_c, 1, 768
4, 8118, Pitch_bend_c, 1, 512
4, 8118, Pitch_bend_c, 1, 384
4, 8119, Pitch_bend_c, 1, 256
4, 8120, Pitch_bend_c, 1, 0
4, 8121, Note_on_c, 1, 72, 0
4, 8123, Note_on_c, 1, 65, 0
4, 8179, Pitch_bend_c, 1, 384
4, 8180, Pitch_bend_c, 1, 640
4, 8181, Pitch_bend_c, 1, 768
4, 8182, Pitch_bend_c, 1, 1024
4, 8183, Pitch_bend_c, 1, 1280
4, 8183, Pitch_bend_c, 1, 1408
4, 8184, Pitch_bend_c, 1, 1664
4, 8185, Pitch_bend_c, 1, 1920
4, 8186, Pitch_bend_c, 1, 2048
4, 8186, Pitch_bend_c, 1, 2304
4, 8187, Pitch_bend_c, 1, 2432
4, 8188, Pitch_bend_c, 1, 2688
4, 8188, Pitch_bend_c, 1, 2816
4, 8189, Pitch_bend_c, 1, 2944
4, 8190, Pitch_bend_c, 1, 3072
4, 8190, Pitch_bend_c, 1, 3200
4, 8191, Pitch_bend_c, 1, 3328
4, 8192, Pitch_bend_c, 1, 3456
4, 8192, Pitch_bend_c, 1, 3584
4, 8193, Pitch_bend_c, 1, 3712
4, 8194, Pitch_bend_c, 1, 3968
4, 8195, Pitch_bend_c, 1, 4096
4, 8195, Pitch_bend_c, 1, 4224
4, 8196, Pitch_bend_c, 1, 4352
4, 8197, Pitch_bend_c, 1, 4480
4, 8197, Pitch_bend_c, 1, 4608
4, 8198, Pitch_bend_c, 1, 4736
4, 8199, Pitch_bend_c, 1, 4992
4, 8200, Pitch_bend_c, 1, 5120
4, 8201, Pitch_bend_c, 1, 5376
4, 8201, Pitch_bend_c, 1, 5632
4, 8202, Pitch_bend_c, 1, 5760
4, 8203, Pitch_bend_c, 1, 6016
4, 8203, Pitch_bend_c, 1, 6144
4, 8204, Pitch_bend_c, 1, 6400
4, 8205, Pitch_bend_c, 1, 6528
4, 8205, Pitch_bend_c, 1, 6784
4, 8206, Pitch_bend_c, 1, 6912
4, 8207, Pitch_bend_c, 1, 7168
4, 8208, Pitch_bend_c, 1, 7296
4, 8208, Pitch_bend_c, 1, 7424
4, 8209, Pitch_bend_c, 1, 7680
4, 8209, Pitch_bend_c, 1, 7936
4, 8210, Pitch_bend_c, 1, 8192
4, 11042, Note_on_c, 1, 62, 99
4, 11043, Note_on_c, 1, 69, 107
4, 11049, Channel_aftertouch_c, 1, 3
4, 11050, Channel_aftertouch_c, 1, 0
4, 11113, Note_on_c, 1, 62, 0
4, 11114, Note_on_c, 1, 69, 0
4, 11132, Note_on_c, 1, 69, 87
4, 11132, Note_on_c, 1, 62, 81
4, 11141, Note_on_c, 1, 62, 0
4, 11144, Note_on_c, 1, 69, 0
4, 11161, Note_on_c, 1, 72, 99
4, 11161, Note_on_c, 1, 65, 104
4, 11164, Channel_aftertouch_c, 1, 3
4, 11165, Channel_aftertouch_c, 1, 7
4, 11165, Channel_aftertouch_c, 1, 11
4, 11166, Channel_aftertouch_c, 1, 15
4, 11167, Channel_aftertouch_c, 1, 19
4, 11168, Channel_aftertouch_c, 1, 23
4, 11168, Channel_aftertouch_c, 1, 27
4, 11169, Channel_aftertouch_c, 1, 23
4, 11170, Channel_aftertouch_c, 1, 19
4, 11170, Channel_aftertouch_c, 1, 15
4, 11172, Channel_aftertouch_c, 1, 11
4, 11172, Channel_aftertouch_c, 1, 7
4, 11173, Channel_aftertouch_c, 1, 3
4, 11174, Channel_aftertouch_c, 1, 0
4, 11203, Note_on_c, 1, 65, 0
4, 11210, Note_on_c, 1, 72, 0
4, 11223, Note_on_c, 1, 67, 104
4, 11223, Note_on_c, 1, 74, 114
4, 11230, Channel_aftertouch_c, 1, 3
4, 11231, Channel_aftertouch_c, 1, 7
4, 11231, Channel_aftertouch_c, 1, 11
4, 11232, Channel_aftertouch_c, 1, 15
4, 11233, Channel_aftertouch_c, 1, 19
4, 11233, Channel_aftertouch_c, 1, 23
4, 11234, Channel_aftertouch_c, 1, 27
4, 11235, Channel_aftertouch_c, 1, 31
4, 11235, Channel_aftertouch_c, 1, 27
4, 11236, Channel_aftertouch_c, 1, 23
4, 11237, Channel_aftertouch_c, 1, 19
4, 11238, Channel_aftertouch_c, 1, 15
4, 11238, Channel_aftertouch_c, 1, 11
4, 11239, Channel_aftertouch_c, 1, 7
4, 11240, Channel_aftertouch_c, 1, 3
4, 11241, Channel_aftertouch_c, 1, 0
4, 11503, Note_on_c, 1, 74, 0
4, 11505, Note_on_c, 1, 67, 0
4, 11522, Note_on_c, 1, 69, 107
4, 11522, Note_on_c, 1, 62, 104
4, 11593, Note_on_c, 1, 62, 0
4, 11596, Note_on_c, 1, 69, 0
4, 11612, Note_on_c, 1, 69, 94
4, 11612, Note_on_c, 1, 62, 89
4, 11622, Note_on_c, 1, 62, 0
4, 11623, Note_on_c, 1, 69, 0
4, 11641, Note_on_c, 1, 65, 95
4, 11641, Note_on_c, 1, 72, 95
4, 11679, Note_on_c, 1, 65, 0
4, 11682, Note_on_c, 1, 72, 0
4, 11699, Note_on_c, 1, 67, 95
4, 11700, Note_on_c, 1, 74, 107
4, 11702, Channel_aftertouch_c, 1, 3
4, 11702, Channel_aftertouch_c, 1, 0
4, 11704, Channel_aftertouch_c, 1, 1
4, 11705, Channel_aftertouch_c, 1, 5
4, 11706, Channel_aftertouch_c, 1, 6
4, 11706, Channel_aftertouch_c, 1, 2
4, 11707, Channel_aftertouch_c, 1, 0
4, 11980, Note_on_c, 1, 74, 0
4, 11981, Note_on_c, 1, 67, 0
4, 12000, Note_on_c, 1, 62, 104
4, 12001, Note_on_c, 1, 69, 104
4, 12079, Note_on_c, 1, 62, 0
4, 12081, Note_on_c, 1, 69, 0
4, 12093, Note_on_c, 1, 69, 95
4, 12093, Note_on_c, 1, 62, 84
4, 12104, Note_on_c, 1, 62, 0
4, 12106, Note_on_c, 1, 69, 0
4, 12122, Note_on_c, 1, 65, 89
4, 12122, Note_on_c, 1, 72, 94
4, 12161, Note_on_c, 1, 65, 0
4, 12164, Note_on_c, 1, 72, 0
4, 12182, Note_on_c, 1, 67, 99
4, 12182, Note_on_c, 1, 74, 104
4, 12187, Channel_aftertouch_c, 1, 3
4, 12188, Channel_aftertouch_c, 1, 7
4, 12189, Channel_aftertouch_c, 1, 11
4, 12189, Channel_aftertouch_c, 1, 15
4, 12190, Channel_aftertouch_c, 1, 19
4, 12191, Channel_aftertouch_c, 1, 23
4, 12192, Channel_aftertouch_c, 1, 19
4, 12192, Channel_aftertouch_c, 1, 15
4, 12193, Channel_aftertouch_c, 1, 11
4, 12194, Channel_aftertouch_c, 1, 7
4, 12195, Channel_aftertouch_c, 1, 3
4, 12195, Channel_aftertouch_c, 1, 0
4, 12459, Note_on_c, 1, 74, 0
4, 12462, Note_on_c, 1, 67, 0
4, 12481, Note_on_c, 1, 69, 114
4, 12481, Note_on_c, 1, 62, 99
4, 12553, Note_on_c, 1, 62, 0
4, 12556, Note_on_c, 1, 69, 0
4, 12571, Note_on_c, 1, 69, 99
4, 12571, Note_on_c, 1, 62, 85
4, 12582, Note_on_c, 1, 62, 0
4, 12584, Note_on_c, 1, 69, 0
4, 12600, Note_on_c, 1, 65, 94
4, 12601, Note_on_c, 1, 72, 104
4, 12643, Note_on_c, 1, 65, 0
4, 12647, Note_on_c, 1, 72, 0
4, 12661, Note_on_c, 1, 67, 104
4, 12661, Note_on_c, 1, 74, 104
4, 12664, Channel_aftertouch_c, 1, 4
4, 12664, Channel_aftertouch_c, 1, 0
4, 12666, Channel_aftertouch_c, 1, 4
4, 12666, Channel_aftertouch_c, 1, 8
4, 12667, Channel_aftertouch_c, 1, 12
4, 12668, Channel_aftertouch_c, 1, 16
4, 12669, Channel_aftertouch_c, 1, 20
4, 12669, Channel_aftertouch_c, 1, 24
4, 12670, Channel_aftertouch_c, 1, 22
4, 12671, Channel_aftertouch_c, 1, 18
4, 12672, Channel_aftertouch_c, 1, 14
4, 12672, Channel_aftertouch_c, 1, 10
4, 12673, Channel_aftertouch_c, 1, 6
4, 12674, Channel_aftertouch_c, 1, 2
4, 12674, Channel_aftertouch_c, 1, 1
4, 12828, Pitch_bend_c, 1, 7936
4, 12829, Pitch_bend_c, 1, 7808
4, 12830, Pitch_bend_c, 1, 7552
4, 12832, Pitch_bend_c, 1, 7424
4, 12833, Pitch_bend_c, 1, 7296
4, 12834, Pitch_bend_c, 1, 7168
4, 12837, Pitch_bend_c, 1, 7040
4, 12839, Pitch_bend_c, 1, 6784
4, 12841, Pitch_bend_c, 1, 6656
4, 12843, Pitch_bend_c, 1, 6528
4, 12846, Pitch_bend_c, 1, 6272
4, 12849, Pitch_bend_c, 1, 6144
4, 12851, Pitch_bend_c, 1, 6016
4, 12853, Pitch_bend_c, 1, 5888
4, 12855, Pitch_bend_c, 1, 5760
4, 12857, Pitch_bend_c, 1, 5632
4, 12859, Pitch_bend_c, 1, 5376
4, 12861, Pitch_bend_c, 1, 5120
4, 12863, Pitch_bend_c, 1, 4992
4, 12865, Pitch_bend_c, 1, 4864
4, 12867, Pitch_bend_c, 1, 4736
4, 12869, Pitch_bend_c, 1, 4608
4, 12871, Pitch_bend_c, 1, 4352
4, 12873, Pitch_bend_c, 1, 4224
4, 12876, Pitch_bend_c, 1, 4096
4, 12879, Pitch_bend_c, 1, 3968
4, 12882, Pitch_bend_c, 1, 3840
4, 12885, Pitch_bend_c, 1, 3712
4, 12889, Pitch_bend_c, 1, 3584
4, 12891, Pitch_bend_c, 1, 3456
4, 12895, Pitch_bend_c, 1, 3328
4, 12898, Pitch_bend_c, 1, 3200
4, 12902, Pitch_bend_c, 1, 3072
4, 12905, Pitch_bend_c, 1, 2816
4, 12908, Pitch_bend_c, 1, 2688
4, 12911, Pitch_bend_c, 1, 2560
4, 12914, Pitch_bend_c, 1, 2432
4, 12916, Pitch_bend_c, 1, 2304
4, 12919, Pitch_bend_c, 1, 2176
4, 12923, Pitch_bend_c, 1, 2048
4, 12925, Pitch_bend_c, 1, 1920
4, 12927, Pitch_bend_c, 1, 1792
4, 12929, Pitch_bend_c, 1, 1664
4, 12931, Pitch_bend_c, 1, 1536
4, 12934, Pitch_bend_c, 1, 1280
4, 12936, Pitch_bend_c, 1, 1152
4, 12937, Pitch_bend_c, 1, 1024
4, 12939, Pitch_bend_c, 1, 896
4, 12941, Pitch_bend_c, 1, 768
4, 12942, Pitch_bend_c, 1, 512
4, 12944, Pitch_bend_c, 1, 384
4, 12945, Pitch_bend_c, 1, 128
4, 12946, Pitch_bend_c, 1, 0
4, 12952, Note_on_c, 1, 67, 0
4, 12953, Note_on_c, 1, 74, 0
4, 13022, Pitch_bend_c, 1, 128
4, 13023, Pitch_bend_c, 1, 384
4, 13023, Pitch_bend_c, 1, 512
4, 13024, Pitch_bend_c, 1, 640
4, 13025, Pitch_bend_c, 1, 768
4, 13026, Pitch_bend_c, 1, 896
4, 13027, Pitch_bend_c, 1, 1024
4, 13027, Pitch_bend_c, 1, 1280
4, 13028, Pitch_bend_c, 1, 1408
4, 13029, Pitch_bend_c, 1, 1536
4, 13029, Pitch_bend_c, 1, 1664
4, 13030, Pitch_bend_c, 1, 1792
4, 13031, Pitch_bend_c, 1, 2048
4, 13032, Pitch_bend_c, 1, 2176
4, 13032, Pitch_bend_c, 1, 2304
4, 13033, Pitch_bend_c, 1, 2560
4, 13034, Pitch_bend_c, 1, 2688
4, 13034, Pitch_bend_c, 1, 2944
4, 13035, Pitch_bend_c, 1, 3072
4, 13036, Pitch_bend_c, 1, 3328
4, 13036, Pitch_bend_c, 1, 3584
4, 13037, Pitch_bend_c, 1, 3840
4, 13038, Pitch_bend_c, 1, 4096
4, 13038, Pitch_bend_c, 1, 4352
4, 13039, Pitch_bend_c, 1, 4608
4, 13040, Pitch_bend_c, 1, 4864
4, 13041, Pitch_bend_c, 1, 5120
4, 13042, Pitch_bend_c, 1, 5632
4, 13042, Pitch_bend_c, 1, 5888
4, 13043, Pitch_bend_c, 1, 6144
4, 13044, Pitch_bend_c, 1, 6400
4, 13044, Pitch_bend_c, 1, 6784
4, 13045, Pitch_bend_c, 1, 6912
4, 13046, Pitch_bend_c, 1, 7168
4, 13047, Pitch_bend_c, 1, 7296
4, 13051, Pitch_bend_c, 1, 7424
4, 13056, Pitch_bend_c, 1, 7552
4, 13062, Pitch_bend_c, 1, 7680
4, 13065, Pitch_bend_c, 1, 7808
4, 13067, Pitch_bend_c, 1, 8064
4, 13068, Pitch_bend_c, 1, 8192
4, 13068, End_track
5, 0, Start_track
5, 0, MIDI_port, 2
5, 0, Title_t, "BrassSect"
5, 0, Program_c, 2, 61
5, 0, Control_c, 2, 7, 70
5, 0, Control_c, 2, 10, 94
5, 120, Control_c, 2, 11, 127
5, 120, Control_c, 2, 91, 60
5, 120, Control_c, 2, 93, 40
5, 479, Note_on_c, 2, 62, 120
5, 480, Note_on_c, 2, 69, 127
5, 481, Channel_aftertouch_c, 2, 4
5, 482, Channel_aftertouch_c, 2, 8
5, 482, Channel_aftertouch_c, 2, 12
5, 483, Channel_aftertouch_c, 2, 16
5, 484, Channel_aftertouch_c, 2, 20
5, 484, Channel_aftertouch_c, 2, 24
5, 485, Channel_aftertouch_c, 2, 28
5, 486, Channel_aftertouch_c, 2, 32
5, 487, Channel_aftertouch_c, 2, 36
5, 487, Channel_aftertouch_c, 2, 34
5, 488, Channel_aftertouch_c, 2, 30
5, 489, Channel_aftertouch_c, 2, 26
5, 489, Channel_aftertouch_c, 2, 22
5, 490, Channel_aftertouch_c, 2, 18
5, 491, Channel_aftertouch_c, 2, 14
5, 492, Channel_aftertouch_c, 2, 10
5, 493, Channel_aftertouch_c, 2, 6
5, 493, Channel_aftertouch_c, 2, 2
5, 494, Channel_aftertouch_c, 2, 0
5, 555, Note_on_c, 2, 62, 0
5, 556, Note_on_c, 2, 69, 0
5, 572, Note_on_c, 2, 69, 107
5, 572, Note_on_c, 2, 62, 87
5, 580, Note_on_c, 2, 62, 0
5, 582, Note_on_c, 2, 69, 0
5, 601, Note_on_c, 2, 65, 120
5, 601, Note_on_c, 2, 72, 120
5, 603, Channel_aftertouch_c, 2, 4
5, 603, Channel_aftertouch_c, 2, 8
5, 604, Channel_aftertouch_c, 2, 12
5, 604, Channel_aftertouch_c, 2, 16
5, 605, Channel_aftertouch_c, 2, 20
5, 606, Channel_aftertouch_c, 2, 24
5, 607, Channel_aftertouch_c, 2, 28
5, 607, Channel_aftertouch_c, 2, 32
5, 608, Channel_aftertouch_c, 2, 36
5, 609, Channel_aftertouch_c, 2, 40
5, 609, Channel_aftertouch_c, 2, 44
5, 610, Channel_aftertouch_c, 2, 40
5, 611, Channel_aftertouch_c, 2, 36
5, 612, Channel_aftertouch_c, 2, 32
5, 613, Channel_aftertouch_c, 2, 28
5, 613, Channel_aftertouch_c, 2, 24
5, 614, Channel_aftertouch_c, 2, 20
5, 615, Channel_aftertouch_c, 2, 16
5, 615, Channel_aftertouch_c, 2, 12
5, 616, Channel_aftertouch_c, 2, 8
5, 617, Channel_aftertouch_c, 2, 4
5, 617, Channel_aftertouch_c, 2, 0
5, 646, Note_on_c, 2, 65, 0
5, 647, Note_on_c, 2, 72, 0
5, 663, Note_on_c, 2, 67, 127
5, 663, Note_on_c, 2, 74, 127
5, 670, Channel_aftertouch_c, 2, 4
5, 670, Channel_aftertouch_c, 2, 8
5, 670, Channel_aftertouch_c, 2, 12
5, 671, Channel_aftertouch_c, 2, 16
5, 672, Channel_aftertouch_c, 2, 20
5, 672, Channel_aftertouch_c, 2, 24
5, 673, Channel_aftertouch_c, 2, 28
5, 674, Channel_aftertouch_c, 2, 32
5, 675, Channel_aftertouch_c, 2, 36
5, 676, Channel_aftertouch_c, 2, 40
5, 676, Channel_aftertouch_c, 2, 44
5, 677, Channel_aftertouch_c, 2, 48
5, 678, Channel_aftertouch_c, 2, 52
5, 679, Channel_aftertouch_c, 2, 48
5, 680, Channel_aftertouch_c, 2, 44
5, 681, Channel_aftertouch_c, 2, 40
5, 682, Channel_aftertouch_c, 2, 36
5, 682, Channel_aftertouch_c, 2, 32
5, 683, Channel_aftertouch_c, 2, 28
5, 684, Channel_aftertouch_c, 2, 24
5, 684, Channel_aftertouch_c, 2, 20
5, 685, Channel_aftertouch_c, 2, 16
5, 686, Channel_aftertouch_c, 2, 12
5, 687, Channel_aftertouch_c, 2, 10
5, 687, Channel_aftertouch_c, 2, 14
5, 688, Channel_aftertouch_c, 2, 18
5, 689, Channel_aftertouch_c, 2, 22
5, 689, Channel_aftertouch_c, 2, 26
5, 690, Channel_aftertouch_c, 2, 30
5, 691, Channel_aftertouch_c, 2, 34
5, 692, Channel_aftertouch_c, 2, 37
5, 692, Channel_aftertouch_c, 2, 40
5, 693, Channel_aftertouch_c, 2, 42
5, 694, Channel_aftertouch_c, 2, 45
5, 694, Channel_aftertouch_c, 2, 46
5, 695, Channel_aftertouch_c, 2, 48
5, 696, Channel_aftertouch_c, 2, 49
5, 698, Channel_aftertouch_c, 2, 52
5, 699, Channel_aftertouch_c, 2, 55
5, 701, Channel_aftertouch_c, 2, 57
5, 703, Channel_aftertouch_c, 2, 58
5, 709, Channel_aftertouch_c, 2, 60
5, 715, Channel_aftertouch_c, 2, 58
5, 716, Channel_aftertouch_c, 2, 57
5, 717, Channel_aftertouch_c, 2, 54
5, 719, Channel_aftertouch_c, 2, 51
5, 720, Channel_aftertouch_c, 2, 49
5, 721, Channel_aftertouch_c, 2, 48
5, 723, Channel_aftertouch_c, 2, 49
5, 723, Channel_aftertouch_c, 2, 51
5, 724, Channel_aftertouch_c, 2, 54
5, 725, Channel_aftertouch_c, 2, 55
5, 730, Channel_aftertouch_c, 2, 54
5, 732, Channel_aftertouch_c, 2, 51
5, 739, Channel_aftertouch_c, 2, 52
5, 743, Channel_aftertouch_c, 2, 51
5, 744, Channel_aftertouch_c, 2, 49
5, 749, Channel_aftertouch_c, 2, 48
5, 751, Channel_aftertouch_c, 2, 46
5, 757, Channel_aftertouch_c, 2, 45
5, 759, Channel_aftertouch_c, 2, 43
5, 771, Channel_aftertouch_c, 2, 42
5, 773, Channel_aftertouch_c, 2, 40
5, 774, Channel_aftertouch_c, 2, 37
5, 775, Channel_aftertouch_c, 2, 36
5, 776, Channel_aftertouch_c, 2, 34
5, 776, Channel_aftertouch_c, 2, 33
5, 778, Channel_aftertouch_c, 2, 30
5, 779, Channel_aftertouch_c, 2, 28
5, 782, Channel_aftertouch_c, 2, 27
5, 784, Channel_aftertouch_c, 2, 25
5, 785, Channel_aftertouch_c, 2, 24
5, 790, Channel_aftertouch_c, 2, 22
5, 793, Channel_aftertouch_c, 2, 21
5, 803, Channel_aftertouch_c, 2, 22
5, 806, Channel_aftertouch_c, 2, 24
5, 807, Channel_aftertouch_c, 2, 25
5, 810, Channel_aftertouch_c, 2, 27
5, 812, Channel_aftertouch_c, 2, 28
5, 814, Channel_aftertouch_c, 2, 30
5, 816, Channel_aftertouch_c, 2, 33
5, 818, Channel_aftertouch_c, 2, 34
5, 819, Channel_aftertouch_c, 2, 36
5, 821, Channel_aftertouch_c, 2, 39
5, 822, Channel_aftertouch_c, 2, 40
5, 824, Channel_aftertouch_c, 2, 42
5, 825, Channel_aftertouch_c, 2, 45
5, 826, Channel_aftertouch_c, 2, 46
5, 828, Channel_aftertouch_c, 2, 48
5, 830, Channel_aftertouch_c, 2, 51
5, 834, Channel_aftertouch_c, 2, 52
5, 848, Channel_aftertouch_c, 2, 49
5, 850, Channel_aftertouch_c, 2, 46
5, 851, Channel_aftertouch_c, 2, 43
5, 851, Channel_aftertouch_c, 2, 40
5, 852, Channel_aftertouch_c, 2, 37
5, 853, Channel_aftertouch_c, 2, 34
5, 854, Channel_aftertouch_c, 2, 31
5, 854, Channel_aftertouch_c, 2, 27
5, 855, Channel_aftertouch_c, 2, 24
5, 856, Channel_aftertouch_c, 2, 21
5, 857, Channel_aftertouch_c, 2, 18
5, 857, Channel_aftertouch_c, 2, 16
5, 858, Channel_aftertouch_c, 2, 15
5, 859, Channel_aftertouch_c, 2, 12
5, 861, Channel_aftertouch_c, 2, 10
5, 863, Channel_aftertouch_c, 2, 9
5, 872, Channel_aftertouch_c, 2, 12
5, 873, Channel_aftertouch_c, 2, 15
5, 874, Channel_aftertouch_c, 2, 18
5, 876, Channel_aftertouch_c, 2, 19
5, 878, Channel_aftertouch_c, 2, 21
5, 880, Channel_aftertouch_c, 2, 19
5, 883, Channel_aftertouch_c, 2, 18
5, 886, Channel_aftertouch_c, 2, 16
5, 891, Channel_aftertouch_c, 2, 13
5, 891, Channel_aftertouch_c, 2, 12
5, 892, Channel_aftertouch_c, 2, 10
5, 894, Channel_aftertouch_c, 2, 9
5, 895, Channel_aftertouch_c, 2, 7
5, 897, Channel_aftertouch_c, 2, 6
5, 901, Channel_aftertouch_c, 2, 9
5, 902, Channel_aftertouch_c, 2, 12
5, 903, Channel_aftertouch_c, 2, 13
5, 905, Channel_aftertouch_c, 2, 12
5, 905, Channel_aftertouch_c, 2, 9
5, 906, Channel_aftertouch_c, 2, 6
5, 907, Channel_aftertouch_c, 2, 3
5, 907, Channel_aftertouch_c, 2, 0
5, 921, Note_on_c, 2, 74, 0
5, 922, Note_on_c, 2, 67, 0
5, 952, Channel_aftertouch_c, 2, 4
5, 953, Channel_aftertouch_c, 2, 8
5, 953, Channel_aftertouch_c, 2, 12
5, 954, Channel_aftertouch_c, 2, 16
5, 955, Channel_aftertouch_c, 2, 20
5, 956, Note_on_c, 2, 62, 114
5, 956, Channel_aftertouch_c, 2, 28
5, 956, Channel_aftertouch_c, 2, 24
5, 957, Note_on_c, 2, 69, 120
5, 957, Channel_aftertouch_c, 2, 32
5, 958, Channel_aftertouch_c, 2, 36
5, 958, Channel_aftertouch_c, 2, 32
5, 959, Channel_aftertouch_c, 2, 28
5, 960, Channel_aftertouch_c, 2, 24
5, 961, Channel_aftertouch_c, 2, 20
5, 961, Channel_aftertouch_c, 2, 16
5, 962, Channel_aftertouch_c, 2, 12
5, 963, Channel_aftertouch_c, 2, 8
5, 963, Channel_aftertouch_c, 2, 4
5, 964, Channel_aftertouch_c, 2, 0
5, 1039, Note_on_c, 2, 62, 0
5, 1040, Note_on_c, 2, 69, 0
5, 1051, Note_on_c, 2, 69, 99
5, 1052, Note_on_c, 2, 62, 87
5, 1059, Note_on_c, 2, 62, 0
5, 1061, Note_on_c, 2, 69, 0
5, 1079, Note_on_c, 2, 65, 120
5, 1079, Note_on_c, 2, 72, 99
5, 1081, Channel_aftertouch_c, 2, 3
5, 1081, Channel_aftertouch_c, 2, 0
5, 1081, Channel_aftertouch_c, 2, 4
5, 1082, Channel_aftertouch_c, 2, 8
5, 1083, Channel_aftertouch_c, 2, 12
5, 1083, Channel_aftertouch_c, 2, 16
5, 1084, Channel_aftertouch_c, 2, 20
5, 1085, Channel_aftertouch_c, 2, 24
5, 1085, Channel_aftertouch_c, 2, 21
5, 1086, Channel_aftertouch_c, 2, 17
5, 1087, Channel_aftertouch_c, 2, 13
5, 1088, Channel_aftertouch_c, 2, 9
5, 1089, Channel_aftertouch_c, 2, 5
5, 1089, Channel_aftertouch_c, 2, 1
5, 1090, Channel_aftertouch_c, 2, 0
5, 1125, Note_on_c, 2, 65, 0
5, 1126, Note_on_c, 2, 72, 0
5, 1141, Note_on_c, 2, 74, 127
5, 1142, Note_on_c, 2, 67, 120
5, 1146, Channel_aftertouch_c, 2, 4
5, 1147, Channel_aftertouch_c, 2, 8
5, 1147, Channel_aftertouch_c, 2, 12
5, 1148, Channel_aftertouch_c, 2, 16
5, 1149, Channel_aftertouch_c, 2, 20
5, 1149, Channel_aftertouch_c, 2, 24
5, 1150, Channel_aftertouch_c, 2, 28
5, 1151, Channel_aftertouch_c, 2, 32
5, 1152, Channel_aftertouch_c, 2, 36
5, 1152, Channel_aftertouch_c, 2, 40
5, 1153, Channel_aftertouch_c, 2, 44
5, 1154, Channel_aftertouch_c, 2, 45
5, 1155, Channel_aftertouch_c, 2, 41
5, 1156, Channel_aftertouch_c, 2, 37
5, 1156, Channel_aftertouch_c, 2, 33
5, 1157, Channel_aftertouch_c, 2, 29
5, 1158, Channel_aftertouch_c, 2, 25
5, 1158, Channel_aftertouch_c, 2, 21
5, 1159, Channel_aftertouch_c, 2, 17
5, 1160, Channel_aftertouch_c, 2, 13
5, 1161, Channel_aftertouch_c, 2, 9
5, 1161, Channel_aftertouch_c, 2, 5
5, 1162, Channel_aftertouch_c, 2, 1
5, 1163, Channel_aftertouch_c, 2, 0
5, 1192, Channel_aftertouch_c, 2, 1
5, 1194, Channel_aftertouch_c, 2, 3
5, 1196, Channel_aftertouch_c, 2, 6
5, 1197, Channel_aftertouch_c, 2, 7
5, 1199, Channel_aftertouch_c, 2, 9
5, 1201, Channel_aftertouch_c, 2, 10
5, 1203, Channel_aftertouch_c, 2, 12
5, 1206, Channel_aftertouch_c, 2, 13
5, 1210, Channel_aftertouch_c, 2, 15
5, 1213, Channel_aftertouch_c, 2, 16
5, 1218, Channel_aftertouch_c, 2, 15
5, 1221, Channel_aftertouch_c, 2, 13
5, 1223, Channel_aftertouch_c, 2, 12
5, 1228, Channel_aftertouch_c, 2, 10
5, 1233, Channel_aftertouch_c, 2, 12
5, 1235, Channel_aftertouch_c, 2, 13
5, 1237, Channel_aftertouch_c, 2, 15
5, 1238, Channel_aftertouch_c, 2, 16
5, 1240, Channel_aftertouch_c, 2, 18
5, 1242, Channel_aftertouch_c, 2, 19
5, 1247, Channel_aftertouch_c, 2, 22
5, 1252, Channel_aftertouch_c, 2, 24
5, 1255, Channel_aftertouch_c, 2, 25
5, 1259, Channel_aftertouch_c, 2, 27
5, 1263, Channel_aftertouch_c, 2, 28
5, 1269, Channel_aftertouch_c, 2, 27
5, 1272, Channel_aftertouch_c, 2, 25
5, 1275, Channel_aftertouch_c, 2, 22
5, 1278, Channel_aftertouch_c, 2, 21
5, 1281, Channel_aftertouch_c, 2, 19
5, 1296, Channel_aftertouch_c, 2, 16
5, 1298, Channel_aftertouch_c, 2, 15
5, 1300, Channel_aftertouch_c, 2, 13
5, 1305, Channel_aftertouch_c, 2, 15
5, 1307, Channel_aftertouch_c, 2, 16
5, 1309, Channel_aftertouch_c, 2, 18
5, 1311, Channel_aftertouch_c, 2, 19
5, 1318, Channel_aftertouch_c, 2, 21
5, 1319, Channel_aftertouch_c, 2, 22
5, 1320, Channel_aftertouch_c, 2, 25
5, 1322, Channel_aftertouch_c, 2, 28
5, 1323, Channel_aftertouch_c, 2, 30
5, 1325, Channel_aftertouch_c, 2, 31
5, 1329, Channel_aftertouch_c, 2, 30
5, 1330, Channel_aftertouch_c, 2, 28
5, 1332, Channel_aftertouch_c, 2, 25
5, 1332, Channel_aftertouch_c, 2, 22
5, 1333, Channel_aftertouch_c, 2, 19
5, 1334, Channel_aftertouch_c, 2, 15
5, 1335, Channel_aftertouch_c, 2, 11
5, 1336, Channel_aftertouch_c, 2, 7
5, 1336, Channel_aftertouch_c, 2, 3
5, 1337, Channel_aftertouch_c, 2, 0
5, 1402, Note_on_c, 2, 74, 0
5, 1403, Note_on_c, 2, 67, 0
5, 1436, Channel_aftertouch_c, 2, 4
5, 1436, Channel_aftertouch_c, 2, 0
5, 1437, Channel_aftertouch_c, 2, 4
5, 1438, Note_on_c, 2, 69, 127
5, 1438, Note_on_c, 2, 62, 114
5, 1438, Channel_aftertouch_c, 2, 8
5, 1439, Channel_aftertouch_c, 2, 12
5, 1440, Channel_aftertouch_c, 2, 16
5, 1440, Channel_aftertouch_c, 2, 20
5, 1441, Channel_aftertouch_c, 2, 24
5, 1442, Channel_aftertouch_c, 2, 28
5, 1443, Channel_aftertouch_c, 2, 32
5, 1443, Channel_aftertouch_c, 2, 28
5, 1444, Channel_aftertouch_c, 2, 24
5, 1445, Channel_aftertouch_c, 2, 20
5, 1446, Channel_aftertouch_c, 2, 16
5, 1446, Channel_aftertouch_c, 2, 12
5, 1447, Channel_aftertouch_c, 2, 8
5, 1448, Channel_aftertouch_c, 2, 4
5, 1449, Channel_aftertouch_c, 2, 0
5, 1508, Note_on_c, 2, 62, 0
5, 1509, Note_on_c, 2, 69, 0
5, 1528, Note_on_c, 2, 62, 94
5, 1529, Note_on_c, 2, 69, 104
5, 1537, Note_on_c, 2, 62, 0
5, 1538, Note_on_c, 2, 69, 0
5, 1557, Note_on_c, 2, 65, 107
5, 1557, Channel_aftertouch_c, 2, 4
5, 1558, Note_on_c, 2, 72, 114
5, 1558, Channel_aftertouch_c, 2, 7
5, 1559, Channel_aftertouch_c, 2, 9
5, 1559, Channel_aftertouch_c, 2, 6
5, 1560, Channel_aftertouch_c, 2, 4
5, 1561, Channel_aftertouch_c, 2, 0
5, 1599, Note_on_c, 2, 65, 0
5, 1604, Note_on_c, 2, 72, 0
5, 1621, Note_on_c, 2, 67, 107
5, 1622, Note_on_c, 2, 74, 127
5, 1625, Channel_aftertouch_c, 2, 4
5, 1625, Channel_aftertouch_c, 2, 0
5, 1626, Channel_aftertouch_c, 2, 3
5, 1627, Channel_aftertouch_c, 2, 7
5, 1628, Channel_aftertouch_c, 2, 11
5, 1628, Channel_aftertouch_c, 2, 15
5, 1629, Channel_aftertouch_c, 2, 19
5, 1630, Channel_aftertouch_c, 2, 23
5, 1631, Channel_aftertouch_c, 2, 27
5, 1632, Channel_aftertouch_c, 2, 31
5, 1632, Channel_aftertouch_c, 2, 35
5, 1633, Channel_aftertouch_c, 2, 31
5, 1634, Channel_aftertouch_c, 2, 27
5, 1635, Channel_aftertouch_c, 2, 23
5, 1635, Channel_aftertouch_c, 2, 19
5, 1636, Channel_aftertouch_c, 2, 15
5, 1637, Channel_aftertouch_c, 2, 11
5, 1637, Channel_aftertouch_c, 2, 7
5, 1638, Channel_aftertouch_c, 2, 3
5, 1639, Channel_aftertouch_c, 2, 0
5, 1793, Channel_aftertouch_c, 2, 3
5, 1794, Channel_aftertouch_c, 2, 7
5, 1794, Channel_aftertouch_c, 2, 11
5, 1795, Channel_aftertouch_c, 2, 15
5, 1796, Channel_aftertouch_c, 2, 19
5, 1797, Channel_aftertouch_c, 2, 23
5, 1798, Channel_aftertouch_c, 2, 27
5, 1798, Channel_aftertouch_c, 2, 31
5, 1799, Channel_aftertouch_c, 2, 35
5, 1800, Channel_aftertouch_c, 2, 39
5, 1800, Channel_aftertouch_c, 2, 43
5, 1801, Channel_aftertouch_c, 2, 47
5, 1802, Channel_aftertouch_c, 2, 51
5, 1803, Channel_aftertouch_c, 2, 55
5, 1804, Channel_aftertouch_c, 2, 59
5, 1804, Channel_aftertouch_c, 2, 63
5, 1805, Channel_aftertouch_c, 2, 67
5, 1806, Channel_aftertouch_c, 2, 71
5, 1806, Channel_aftertouch_c, 2, 75
5, 1807, Channel_aftertouch_c, 2, 76
5, 1809, Channel_aftertouch_c, 2, 78
5, 1813, Channel_aftertouch_c, 2, 79
5, 1816, Channel_aftertouch_c, 2, 81
5, 1826, Channel_aftertouch_c, 2, 82
5, 1830, Channel_aftertouch_c, 2, 84
5, 1865, Channel_aftertouch_c, 2, 82
5, 1867, Channel_aftertouch_c, 2, 81
5, 1868, Channel_aftertouch_c, 2, 78
5, 1870, Channel_aftertouch_c, 2, 76
5, 1871, Channel_aftertouch_c, 2, 73
5, 1872, Channel_aftertouch_c, 2, 72
5, 1874, Channel_aftertouch_c, 2, 69
5, 1875, Channel_aftertouch_c, 2, 67
5, 1877, Channel_aftertouch_c, 2, 64
5, 1879, Channel_aftertouch_c, 2, 63
5, 1880, Channel_aftertouch_c, 2, 61
5, 1881, Channel_aftertouch_c, 2, 60
5, 1882, Channel_aftertouch_c, 2, 57
5, 1883, Channel_aftertouch_c, 2, 55
5, 1884, Channel_aftertouch_c, 2, 51
5, 1884, Channel_aftertouch_c, 2, 47
5, 1885, Channel_aftertouch_c, 2, 43
5, 1886, Channel_aftertouch_c, 2, 39
5, 1887, Channel_aftertouch_c, 2, 35
5, 1887, Channel_aftertouch_c, 2, 31
5, 1888, Channel_aftertouch_c, 2, 27
5, 1889, Channel_aftertouch_c, 2, 23
5, 1890, Channel_aftertouch_c, 2, 19
5, 1890, Channel_aftertouch_c, 2, 15
5, 1891, Channel_aftertouch_c, 2, 11
5, 1892, Channel_aftertouch_c, 2, 7
5, 1892, Channel_aftertouch_c, 2, 3
5, 1893, Note_on_c, 2, 74, 0
5, 1893, Note_on_c, 2, 67, 0
5, 1893, Channel_aftertouch_c, 2, 0
5, 1915, Channel_aftertouch_c, 2, 4
5, 1915, Channel_aftertouch_c, 2, 6
5, 1916, Channel_aftertouch_c, 2, 10
5, 1917, Channel_aftertouch_c, 2, 18
5, 1917, Note_on_c, 2, 69, 120
5, 1917, Channel_aftertouch_c, 2, 14
5, 1918, Note_on_c, 2, 62, 114
5, 1918, Channel_aftertouch_c, 2, 22
5, 1919, Channel_aftertouch_c, 2, 26
5, 1919, Channel_aftertouch_c, 2, 30
5, 1920, Channel_aftertouch_c, 2, 34
5, 1921, Channel_aftertouch_c, 2, 38
5, 1922, Channel_aftertouch_c, 2, 42
5, 1922, Channel_aftertouch_c, 2, 38
5, 1923, Channel_aftertouch_c, 2, 34
5, 1924, Channel_aftertouch_c, 2, 30
5, 1924, Channel_aftertouch_c, 2, 26
5, 1925, Channel_aftertouch_c, 2, 22
5, 1926, Channel_aftertouch_c, 2, 18
5, 1927, Channel_aftertouch_c, 2, 14
5, 1927, Channel_aftertouch_c, 2, 10
5, 1928, Channel_aftertouch_c, 2, 6
5, 1929, Channel_aftertouch_c, 2, 2
5, 1929, Channel_aftertouch_c, 2, 0
5, 1997, Note_on_c, 2, 69, 0
5, 1998, Note_on_c, 2, 62, 0
5, 2010, Note_on_c, 2, 62, 94
5, 2011, Note_on_c, 2, 69, 107
5, 2020, Note_on_c, 2, 69, 0
5, 2020, Note_on_c, 2, 62, 0
5, 2038, Note_on_c, 2, 65, 104
5, 2038, Channel_aftertouch_c, 2, 0
5, 2038, Channel_aftertouch_c, 2, 3
5, 2039, Note_on_c, 2, 72, 107
5, 2040, Channel_aftertouch_c, 2, 4
5, 2040, Channel_aftertouch_c, 2, 8
5, 2041, Channel_aftertouch_c, 2, 12
5, 2042, Channel_aftertouch_c, 2, 16
5, 2043, Channel_aftertouch_c, 2, 20
5, 2043, Channel_aftertouch_c, 2, 22
5, 2044, Channel_aftertouch_c, 2, 18
5, 2045, Channel_aftertouch_c, 2, 14
5, 2045, Channel_aftertouch_c, 2, 10
5, 2046, Channel_aftertouch_c, 2, 6
5, 2047, Channel_aftertouch_c, 2, 2
5, 2048, Channel_aftertouch_c, 2, 0
5, 2081, Note_on_c, 2, 65, 0
5, 2086, Note_on_c, 2, 72, 0
5, 2101, Note_on_c, 2, 67, 120
5, 2101, Note_on_c, 2, 74, 127
5, 2104, Channel_aftertouch_c, 2, 4
5, 2104, Channel_aftertouch_c, 2, 8
5, 2105, Channel_aftertouch_c, 2, 12
5, 2105, Channel_aftertouch_c, 2, 16
5, 2106, Channel_aftertouch_c, 2, 20
5, 2107, Channel_aftertouch_c, 2, 24
5, 2108, Channel_aftertouch_c, 2, 28
5, 2108, Channel_aftertouch_c, 2, 32
5, 2109, Channel_aftertouch_c, 2, 36
5, 2110, Channel_aftertouch_c, 2, 40
5, 2111, Channel_aftertouch_c, 2, 44
5, 2111, Channel_aftertouch_c, 2, 48
5, 2112, Channel_aftertouch_c, 2, 52
5, 2113, Channel_aftertouch_c, 2, 56
5, 2114, Channel_aftertouch_c, 2, 60
5, 2114, Channel_aftertouch_c, 2, 61
5, 2115, Channel_aftertouch_c, 2, 57
5, 2116, Channel_aftertouch_c, 2, 53
5, 2116, Channel_aftertouch_c, 2, 49
5, 2117, Channel_aftertouch_c, 2, 45
5, 2118, Channel_aftertouch_c, 2, 41
5, 2118, Channel_aftertouch_c, 2, 37
5, 2119, Channel_aftertouch_c, 2, 33
5, 2120, Channel_aftertouch_c, 2, 29
5, 2121, Channel_aftertouch_c, 2, 25
5, 2121, Channel_aftertouch_c, 2, 21
5, 2122, Channel_aftertouch_c, 2, 17
5, 2123, Channel_aftertouch_c, 2, 13
5, 2123, Channel_aftertouch_c, 2, 10
5, 2125, Channel_aftertouch_c, 2, 7
5, 2127, Channel_aftertouch_c, 2, 9
5, 2128, Channel_aftertouch_c, 2, 12
5, 2129, Channel_aftertouch_c, 2, 15
5, 2129, Channel_aftertouch_c, 2, 18
5, 2130, Channel_aftertouch_c, 2, 21
5, 2131, Channel_aftertouch_c, 2, 22
5, 2132, Channel_aftertouch_c, 2, 25
5, 2132, Channel_aftertouch_c, 2, 28
5, 2133, Channel_aftertouch_c, 2, 30
5, 2134, Channel_aftertouch_c, 2, 33
5, 2135, Channel_aftertouch_c, 2, 36
5, 2135, Channel_aftertouch_c, 2, 37
5, 2136, Channel_aftertouch_c, 2, 40
5, 2137, Channel_aftertouch_c, 2, 43
5, 2137, Channel_aftertouch_c, 2, 45
5, 2138, Channel_aftertouch_c, 2, 48
5, 2139, Channel_aftertouch_c, 2, 49
5, 2140, Channel_aftertouch_c, 2, 51
5, 2141, Channel_aftertouch_c, 2, 52
5, 2142, Channel_aftertouch_c, 2, 54
5, 2142, Channel_aftertouch_c, 2, 55
5, 2144, Channel_aftertouch_c, 2, 58
5, 2145, Channel_aftertouch_c, 2, 61
5, 2147, Channel_aftertouch_c, 2, 63
5, 2148, Channel_aftertouch_c, 2, 66
5, 2149, Channel_aftertouch_c, 2, 67
5, 2152, Channel_aftertouch_c, 2, 69
5, 2154, Channel_aftertouch_c, 2, 70
5, 2156, Channel_aftertouch_c, 2, 72
5, 2162, Channel_aftertouch_c, 2, 73
5, 2166, Channel_aftertouch_c, 2, 75
5, 2173, Channel_aftertouch_c, 2, 72
5, 2175, Channel_aftertouch_c, 2, 70
5, 2178, Channel_aftertouch_c, 2, 69
5, 2180, Channel_aftertouch_c, 2, 67
5, 2181, Channel_aftertouch_c, 2, 64
5, 2183, Channel_aftertouch_c, 2, 63
5, 2184, Channel_aftertouch_c, 2, 60
5, 2185, Channel_aftertouch_c, 2, 58
5, 2187, Channel_aftertouch_c, 2, 57
5, 2190, Channel_aftertouch_c, 2, 55
5, 2196, Channel_aftertouch_c, 2, 57
5, 2201, Channel_aftertouch_c, 2, 55
5, 2207, Channel_aftertouch_c, 2, 54
5, 2211, Channel_aftertouch_c, 2, 52
5, 2213, Channel_aftertouch_c, 2, 51
5, 2215, Channel_aftertouch_c, 2, 49
5, 2217, Channel_aftertouch_c, 2, 46
5, 2219, Channel_aftertouch_c, 2, 45
5, 2225, Channel_aftertouch_c, 2, 43
5, 2227, Channel_aftertouch_c, 2, 42
5, 2228, Channel_aftertouch_c, 2, 39
5, 2228, Channel_aftertouch_c, 2, 35
5, 2229, Channel_aftertouch_c, 2, 31
5, 2230, Channel_aftertouch_c, 2, 27
5, 2230, Channel_aftertouch_c, 2, 23
5, 2231, Channel_aftertouch_c, 2, 19
5, 2232, Channel_aftertouch_c, 2, 15
5, 2233, Channel_aftertouch_c, 2, 12
5, 2234, Channel_aftertouch_c, 2, 8
5, 2234, Channel_aftertouch_c, 2, 6
5, 2238, Channel_aftertouch_c, 2, 9
5, 2239, Channel_aftertouch_c, 2, 10
5, 2241, Channel_aftertouch_c, 2, 12
5, 2242, Channel_aftertouch_c, 2, 15
5, 2244, Channel_aftertouch_c, 2, 16
5, 2245, Channel_aftertouch_c, 2, 18
5, 2252, Channel_aftertouch_c, 2, 16
5, 2253, Channel_aftertouch_c, 2, 15
5, 2255, Channel_aftertouch_c, 2, 12
5, 2256, Channel_aftertouch_c, 2, 10
5, 2258, Channel_aftertouch_c, 2, 9
5, 2260, Channel_aftertouch_c, 2, 7
5, 2261, Channel_aftertouch_c, 2, 6
5, 2263, Channel_aftertouch_c, 2, 4
5, 2264, Channel_aftertouch_c, 2, 3
5, 2274, Channel_aftertouch_c, 2, 0
5, 2343, Pitch_bend_c, 2, 8452
5, 2344, Pitch_bend_c, 2, 8582
5, 2346, Pitch_bend_c, 2, 8712
5, 2348, Pitch_bend_c, 2, 8842
5, 2349, Pitch_bend_c, 2, 8972
5, 2351, Pitch_bend_c, 2, 9102
5, 2352, Pitch_bend_c, 2, 9232
5, 2353, Pitch_bend_c, 2, 9362
5, 2355, Pitch_bend_c, 2, 9492
5, 2356, Pitch_bend_c, 2, 9622
5, 2357, Pitch_bend_c, 2, 9882
5, 2359, Pitch_bend_c, 2, 10012
5, 2360, Pitch_bend_c, 2, 10142
5, 2362, Pitch_bend_c, 2, 10272
5, 2363, Pitch_bend_c, 2, 10532
5, 2365, Pitch_bend_c, 2, 10662
5, 2366, Pitch_bend_c, 2, 10792
5, 2368, Pitch_bend_c, 2, 10922
5, 2369, Pitch_bend_c, 2, 11312
5, 2370, Pitch_bend_c, 2, 11442
5, 2372, Pitch_bend_c, 2, 11572
5, 2373, Pitch_bend_c, 2, 11832
5, 2375, Pitch_bend_c, 2, 11962
5, 2376, Pitch_bend_c, 2, 12222
5, 2377, Pitch_bend_c, 2, 12352
5, 2379, Pitch_bend_c, 2, 12482
5, 2381, Pitch_bend_c, 2, 12742
5, 2382, Pitch_bend_c, 2, 12872
5, 2384, Pitch_bend_c, 2, 13132
5, 2385, Pitch_bend_c, 2, 13262
5, 2387, Pitch_bend_c, 2, 13392
5, 2388, Pitch_bend_c, 2, 13652
5, 2388, Pitch_bend_c, 2, 13782
5, 2390, Note_on_c, 2, 67, 0
5, 2390, Pitch_bend_c, 2, 13912
5, 2392, Note_on_c, 2, 74, 0
5, 2392, Pitch_bend_c, 2, 14172
5, 2393, Pitch_bend_c, 2, 14432
5, 2394, Pitch_bend_c, 2, 14562
5, 2394, Pitch_bend_c, 2, 14692
5, 2396, Pitch_bend_c, 2, 14952
5, 2397, Pitch_bend_c, 2, 15082
5, 2397, Pitch_bend_c, 2, 15212
5, 2398, Pitch_bend_c, 2, 15342
5, 2399, Pitch_bend_c, 2, 15602
5, 2400, Pitch_bend_c, 2, 15732
5, 2400, Pitch_bend_c, 2, 15862
5, 2401, Pitch_bend_c, 2, 16122
5, 2402, Pitch_bend_c, 2, 16252
5, 2402, Pitch_bend_c, 2, 16382
5, 2510, Pitch_bend_c, 2, 16122
5, 2511, Pitch_bend_c, 2, 15992
5, 2512, Pitch_bend_c, 2, 15862
5, 2512, Pitch_bend_c, 2, 15602
5, 2513, Pitch_bend_c, 2, 15472
5, 2514, Pitch_bend_c, 2, 15212
5, 2514, Pitch_bend_c, 2, 15082
5, 2515, Pitch_bend_c, 2, 14822
5, 2516, Pitch_bend_c, 2, 14692
5, 2517, Pitch_bend_c, 2, 14562
5, 2518, Pitch_bend_c, 2, 14302
5, 2518, Pitch_bend_c, 2, 14172
5, 2519, Pitch_bend_c, 2, 14042
5, 2520, Pitch_bend_c, 2, 13912
5, 2520, Pitch_bend_c, 2, 13652
5, 2521, Pitch_bend_c, 2, 13522
5, 2522, Pitch_bend_c, 2, 13392
5, 2523, Pitch_bend_c, 2, 13262
5, 2523, Pitch_bend_c, 2, 13132
5, 2524, Pitch_bend_c, 2, 13002
5, 2525, Pitch_bend_c, 2, 12742
5, 2525, Pitch_bend_c, 2, 12612
5, 2526, Pitch_bend_c, 2, 12482
5, 2527, Pitch_bend_c, 2, 12352
5, 2527, Pitch_bend_c, 2, 12222
5, 2528, Pitch_bend_c, 2, 11962
5, 2529, Pitch_bend_c, 2, 11832
5, 2529, Pitch_bend_c, 2, 11702
5, 2530, Pitch_bend_c, 2, 11442
5, 2531, Pitch_bend_c, 2, 11312
5, 2532, Pitch_bend_c, 2, 10922
5, 2533, Pitch_bend_c, 2, 10792
5, 2533, Pitch_bend_c, 2, 10532
5, 2534, Pitch_bend_c, 2, 10402
5, 2535, Pitch_bend_c, 2, 10142
5, 2535, Pitch_bend_c, 2, 9882
5, 2536, Pitch_bend_c, 2, 9752
5, 2537, Pitch_bend_c, 2, 9492
5, 2538, Pitch_bend_c, 2, 9362
5, 2538, Pitch_bend_c, 2, 9102
5, 2539, Pitch_bend_c, 2, 8972
5, 2540, Pitch_bend_c, 2, 8712
5, 2540, Pitch_bend_c, 2, 8582
5, 2541, Pitch_bend_c, 2, 8322
5, 2542, Pitch_bend_c, 2, 8192
5, 7203, Note_on_c, 2, 67, 94
5, 7203, Note_on_c, 2, 71, 99
5, 7203, Note_on_c, 2, 74, 114
5, 7221, Note_on_c, 2, 71, 0
5, 7225, Note_on_c, 2, 74, 0
5, 7228, Note_on_c, 2, 67, 0
5, 7233, Note_on_c, 2, 67, 85
5, 7233, Note_on_c, 2, 74, 94
5, 7234, Note_on_c, 2, 71, 89
5, 7248, Note_on_c, 2, 71, 0
5, 7251, Note_on_c, 2, 74, 0
5, 7255, Note_on_c, 2, 67, 0
5, 7263, Note_on_c, 2, 67, 89
5, 7263, Note_on_c, 2, 71, 89
5, 7263, Note_on_c, 2, 74, 89
5, 7279, Note_on_c, 2, 74, 0
5, 7281, Note_on_c, 2, 71, 0
5, 7285, Note_on_c, 2, 67, 0
5, 7293, Note_on_c, 2, 67, 89
5, 7293, Note_on_c, 2, 71, 94
5, 7293, Note_on_c, 2, 74, 94
5, 7311, Note_on_c, 2, 74, 0
5, 7313, Note_on_c, 2, 71, 0
5, 7315, Note_on_c, 2, 67, 0
5, 7323, Note_on_c, 2, 67, 114
5, 7324, Note_on_c, 2, 74, 120
5, 7324, Note_on_c, 2, 71, 114
5, 7333, Channel_aftertouch_c, 2, 4
5, 7333, Channel_aftertouch_c, 2, 8
5, 7333, Channel_aftertouch_c, 2, 12
5, 7334, Channel_aftertouch_c, 2, 16
5, 7335, Channel_aftertouch_c, 2, 20
5, 7336, Channel_aftertouch_c, 2, 24
5, 7336, Channel_aftertouch_c, 2, 28
5, 7337, Channel_aftertouch_c, 2, 32
5, 7337, Channel_aftertouch_c, 2, 36
5, 7339, Channel_aftertouch_c, 2, 32
5, 7339, Channel_aftertouch_c, 2, 28
5, 7340, Channel_aftertouch_c, 2, 24
5, 7341, Channel_aftertouch_c, 2, 20
5, 7341, Channel_aftertouch_c, 2, 16
5, 7342, Channel_aftertouch_c, 2, 12
5, 7343, Channel_aftertouch_c, 2, 8
5, 7344, Channel_aftertouch_c, 2, 4
5, 7344, Channel_aftertouch_c, 2, 0
5, 7358, Channel_aftertouch_c, 2, 3
5, 7359, Channel_aftertouch_c, 2, 4
5, 7361, Channel_aftertouch_c, 2, 1
5, 7361, Channel_aftertouch_c, 2, 0
5, 7367, Channel_aftertouch_c, 2, 1
5, 7368, Channel_aftertouch_c, 2, 3
5, 7369, Channel_aftertouch_c, 2, 4
5, 7369, Channel_aftertouch_c, 2, 6
5, 7370, Channel_aftertouch_c, 2, 9
5, 7372, Channel_aftertouch_c, 2, 10
5, 7373, Channel_aftertouch_c, 2, 13
5, 7375, Channel_aftertouch_c, 2, 16
5, 7376, Channel_aftertouch_c, 2, 18
5, 7377, Channel_aftertouch_c, 2, 19
5, 7379, Channel_aftertouch_c, 2, 18
5, 7380, Channel_aftertouch_c, 2, 16
5, 7380, Channel_aftertouch_c, 2, 13
5, 7380, Channel_aftertouch_c, 2, 10
5, 7382, Channel_aftertouch_c, 2, 7
5, 7383, Channel_aftertouch_c, 2, 6
5, 7384, Channel_aftertouch_c, 2, 3
5, 7384, Channel_aftertouch_c, 2, 1
5, 7412, Channel_aftertouch_c, 2, 3
5, 7414, Channel_aftertouch_c, 2, 4
5, 7418, Channel_aftertouch_c, 2, 6
5, 7420, Channel_aftertouch_c, 2, 4
5, 7421, Channel_aftertouch_c, 2, 3
5, 7422, Channel_aftertouch_c, 2, 1
5, 7425, Channel_aftertouch_c, 2, 0
5, 7429, Channel_aftertouch_c, 2, 1
5, 7434, Channel_aftertouch_c, 2, 3
5, 7439, Channel_aftertouch_c, 2, 1
5, 7442, Channel_aftertouch_c, 2, 0
5, 7623, Note_on_c, 2, 74, 0
5, 7626, Note_on_c, 2, 71, 0
5, 7630, Note_on_c, 2, 67, 0
5, 7677, Channel_aftertouch_c, 2, 0
5, 7677, Channel_aftertouch_c, 2, 4
5, 7679, Note_on_c, 2, 67, 114
5, 7679, Note_on_c, 2, 74, 120
5, 7679, Note_on_c, 2, 71, 107
5, 7693, Note_on_c, 2, 71, 0
5, 7695, Note_on_c, 2, 67, 0
5, 7697, Note_on_c, 2, 74, 0
5, 7711, Note_on_c, 2, 67, 99
5, 7711, Note_on_c, 2, 71, 99
5, 7711, Note_on_c, 2, 74, 99
5, 7727, Note_on_c, 2, 71, 0
5, 7729, Note_on_c, 2, 74, 0
5, 7733, Note_on_c, 2, 67, 0
5, 7741, Note_on_c, 2, 67, 99
5, 7741, Note_on_c, 2, 71, 99
5, 7741, Note_on_c, 2, 74, 99
5, 7761, Note_on_c, 2, 71, 0
5, 7764, Note_on_c, 2, 74, 0
5, 7764, Note_on_c, 2, 67, 0
5, 7771, Note_on_c, 2, 67, 98
5, 7771, Note_on_c, 2, 71, 98
5, 7771, Note_on_c, 2, 74, 98
5, 7794, Note_on_c, 2, 74, 0
5, 7794, Note_on_c, 2, 71, 0
5, 7796, Note_on_c, 2, 67, 0
5, 7801, Note_on_c, 2, 71, 120
5, 7801, Note_on_c, 2, 74, 120
5, 7801, Note_on_c, 2, 67, 104
5, 7974, Channel_aftertouch_c, 2, 1
5, 7976, Channel_aftertouch_c, 2, 4
5, 7977, Channel_aftertouch_c, 2, 6
5, 7977, Channel_aftertouch_c, 2, 9
5, 7978, Channel_aftertouch_c, 2, 10
5, 7979, Channel_aftertouch_c, 2, 12
5, 7980, Channel_aftertouch_c, 2, 13
5, 7981, Channel_aftertouch_c, 2, 15
5, 7982, Channel_aftertouch_c, 2, 18
5, 7983, Channel_aftertouch_c, 2, 19
5, 7984, Channel_aftertouch_c, 2, 22
5, 7986, Channel_aftertouch_c, 2, 24
5, 7987, Channel_aftertouch_c, 2, 27
5, 7989, Channel_aftertouch_c, 2, 30
5, 7990, Channel_aftertouch_c, 2, 33
5, 7991, Channel_aftertouch_c, 2, 34
5, 7993, Channel_aftertouch_c, 2, 36
5, 7996, Channel_aftertouch_c, 2, 37
5, 7998, Channel_aftertouch_c, 2, 40
5, 8001, Channel_aftertouch_c, 2, 42
5, 8010, Channel_aftertouch_c, 2, 43
5, 8013, Channel_aftertouch_c, 2, 45
5, 8017, Channel_aftertouch_c, 2, 43
5, 8017, Channel_aftertouch_c, 2, 40
5, 8018, Channel_aftertouch_c, 2, 37
5, 8019, Channel_aftertouch_c, 2, 33
5, 8020, Channel_aftertouch_c, 2, 29
5, 8020, Channel_aftertouch_c, 2, 25
5, 8021, Channel_aftertouch_c, 2, 21
5, 8022, Channel_aftertouch_c, 2, 17
5, 8022, Channel_aftertouch_c, 2, 13
5, 8023, Channel_aftertouch_c, 2, 9
5, 8024, Channel_aftertouch_c, 2, 5
5, 8025, Channel_aftertouch_c, 2, 1
5, 8116, Note_on_c, 2, 67, 0
5, 8116, Note_on_c, 2, 74, 0
5, 8116, Note_on_c, 2, 71, 0
5, 11041, Note_on_c, 2, 50, 107
5, 11041, Note_on_c, 2, 57, 127
5, 11044, Channel_aftertouch_c, 2, 4
5, 11044, Channel_aftertouch_c, 2, 8
5, 11045, Channel_aftertouch_c, 2, 12
5, 11046, Channel_aftertouch_c, 2, 16
5, 11046, Channel_aftertouch_c, 2, 20
5, 11047, Channel_aftertouch_c, 2, 24
5, 11048, Channel_aftertouch_c, 2, 28
5, 11049, Channel_aftertouch_c, 2, 32
5, 11049, Channel_aftertouch_c, 2, 36
5, 11050, Channel_aftertouch_c, 2, 40
5, 11051, Channel_aftertouch_c, 2, 44
5, 11051, Channel_aftertouch_c, 2, 48
5, 11052, Channel_aftertouch_c, 2, 52
5, 11053, Channel_aftertouch_c, 2, 56
5, 11054, Channel_aftertouch_c, 2, 60
5, 11055, Channel_aftertouch_c, 2, 64
5, 11055, Channel_aftertouch_c, 2, 63
5, 11056, Channel_aftertouch_c, 2, 59
5, 11057, Channel_aftertouch_c, 2, 55
5, 11057, Channel_aftertouch_c, 2, 51
5, 11058, Channel_aftertouch_c, 2, 47
5, 11059, Channel_aftertouch_c, 2, 43
5, 11059, Channel_aftertouch_c, 2, 39
5, 11060, Channel_aftertouch_c, 2, 35
5, 11061, Channel_aftertouch_c, 2, 31
5, 11062, Channel_aftertouch_c, 2, 27
5, 11062, Channel_aftertouch_c, 2, 23
5, 11063, Channel_aftertouch_c, 2, 19
5, 11064, Channel_aftertouch_c, 2, 15
5, 11065, Channel_aftertouch_c, 2, 11
5, 11065, Channel_aftertouch_c, 2, 7
5, 11066, Channel_aftertouch_c, 2, 3
5, 11067, Channel_aftertouch_c, 2, 0
5, 11069, Channel_aftertouch_c, 2, 3
5, 11070, Channel_aftertouch_c, 2, 6
5, 11071, Channel_aftertouch_c, 2, 9
5, 11071, Channel_aftertouch_c, 2, 13
5, 11072, Channel_aftertouch_c, 2, 16
5, 11073, Channel_aftertouch_c, 2, 20
5, 11073, Channel_aftertouch_c, 2, 22
5, 11074, Channel_aftertouch_c, 2, 25
5, 11075, Channel_aftertouch_c, 2, 27
5, 11076, Channel_aftertouch_c, 2, 30
5, 11076, Channel_aftertouch_c, 2, 31
5, 11078, Channel_aftertouch_c, 2, 30
5, 11078, Channel_aftertouch_c, 2, 26
5, 11079, Channel_aftertouch_c, 2, 22
5, 11080, Channel_aftertouch_c, 2, 18
5, 11081, Channel_aftertouch_c, 2, 14
5, 11081, Channel_aftertouch_c, 2, 10
5, 11082, Channel_aftertouch_c, 2, 6
5, 11083, Channel_aftertouch_c, 2, 2
5, 11084, Channel_aftertouch_c, 2, 0
5, 11109, Note_on_c, 2, 57, 0
5, 11112, Note_on_c, 2, 50, 0
5, 11131, Note_on_c, 2, 50, 89
5, 11133, Note_on_c, 2, 57, 114
5, 11142, Note_on_c, 2, 50, 0
5, 11145, Note_on_c, 2, 57, 0
5, 11161, Note_on_c, 2, 60, 120
5, 11161, Note_on_c, 2, 53, 120
5, 11163, Channel_aftertouch_c, 2, 4
5, 11164, Channel_aftertouch_c, 2, 8
5, 11165, Channel_aftertouch_c, 2, 12
5, 11166, Channel_aftertouch_c, 2, 16
5, 11166, Channel_aftertouch_c, 2, 20
5, 11167, Channel_aftertouch_c, 2, 24
5, 11168, Channel_aftertouch_c, 2, 28
5, 11168, Channel_aftertouch_c, 2, 32
5, 11169, Channel_aftertouch_c, 2, 36
5, 11170, Channel_aftertouch_c, 2, 40
5, 11170, Channel_aftertouch_c, 2, 44
5, 11171, Channel_aftertouch_c, 2, 48
5, 11172, Channel_aftertouch_c, 2, 51
5, 11173, Channel_aftertouch_c, 2, 47
5, 11174, Channel_aftertouch_c, 2, 43
5, 11174, Channel_aftertouch_c, 2, 39
5, 11175, Channel_aftertouch_c, 2, 35
5, 11176, Channel_aftertouch_c, 2, 31
5, 11176, Channel_aftertouch_c, 2, 27
5, 11177, Channel_aftertouch_c, 2, 23
5, 11178, Channel_aftertouch_c, 2, 19
5, 11179, Channel_aftertouch_c, 2, 15
5, 11179, Channel_aftertouch_c, 2, 11
5, 11180, Channel_aftertouch_c, 2, 7
5, 11181, Channel_aftertouch_c, 2, 3
5, 11181, Channel_aftertouch_c, 2, 6
5, 11182, Channel_aftertouch_c, 2, 9
5, 11183, Channel_aftertouch_c, 2, 12
5, 11184, Channel_aftertouch_c, 2, 15
5, 11185, Channel_aftertouch_c, 2, 16
5, 11186, Channel_aftertouch_c, 2, 13
5, 11186, Channel_aftertouch_c, 2, 9
5, 11187, Channel_aftertouch_c, 2, 5
5, 11188, Channel_aftertouch_c, 2, 1
5, 11189, Channel_aftertouch_c, 2, 0
5, 11207, Note_on_c, 2, 60, 0
5, 11208, Note_on_c, 2, 53, 0
5, 11222, Note_on_c, 2, 62, 127
5, 11222, Note_on_c, 2, 55, 120
5, 11227, Channel_aftertouch_c, 2, 4
5, 11227, Channel_aftertouch_c, 2, 8
5, 11228, Channel_aftertouch_c, 2, 12
5, 11229, Channel_aftertouch_c, 2, 16
5, 11230, Channel_aftertouch_c, 2, 20
5, 11230, Channel_aftertouch_c, 2, 24
5, 11231, Channel_aftertouch_c, 2, 28
5, 11232, Channel_aftertouch_c, 2, 32
5, 11233, Channel_aftertouch_c, 2, 36
5, 11233, Channel_aftertouch_c, 2, 40
5, 11234, Channel_aftertouch_c, 2, 44
5, 11234, Channel_aftertouch_c, 2, 48
5, 11235, Channel_aftertouch_c, 2, 52
5, 11236, Channel_aftertouch_c, 2, 56
5, 11237, Channel_aftertouch_c, 2, 52
5, 11238, Channel_aftertouch_c, 2, 48
5, 11238, Channel_aftertouch_c, 2, 44
5, 11239, Channel_aftertouch_c, 2, 40
5, 11240, Channel_aftertouch_c, 2, 36
5, 11241, Channel_aftertouch_c, 2, 32
5, 11242, Channel_aftertouch_c, 2, 28
5, 11242, Channel_aftertouch_c, 2, 24
5, 11243, Channel_aftertouch_c, 2, 20
5, 11244, Channel_aftertouch_c, 2, 16
5, 11244, Channel_aftertouch_c, 2, 12
5, 11246, Channel_aftertouch_c, 2, 15
5, 11246, Channel_aftertouch_c, 2, 16
5, 11247, Channel_aftertouch_c, 2, 19
5, 11248, Channel_aftertouch_c, 2, 21
5, 11248, Channel_aftertouch_c, 2, 24
5, 11249, Channel_aftertouch_c, 2, 25
5, 11250, Channel_aftertouch_c, 2, 27
5, 11251, Channel_aftertouch_c, 2, 30
5, 11251, Channel_aftertouch_c, 2, 31
5, 11252, Channel_aftertouch_c, 2, 33
5, 11253, Channel_aftertouch_c, 2, 36
5, 11254, Channel_aftertouch_c, 2, 37
5, 11255, Channel_aftertouch_c, 2, 39
5, 11257, Channel_aftertouch_c, 2, 40
5, 11258, Channel_aftertouch_c, 2, 43
5, 11260, Channel_aftertouch_c, 2, 45
5, 11262, Channel_aftertouch_c, 2, 46
5, 11265, Channel_aftertouch_c, 2, 43
5, 11268, Channel_aftertouch_c, 2, 47
5, 11269, Channel_aftertouch_c, 2, 49
5, 11270, Channel_aftertouch_c, 2, 51
5, 11273, Channel_aftertouch_c, 2, 52
5, 11275, Channel_aftertouch_c, 2, 54
5, 11277, Channel_aftertouch_c, 2, 55
5, 11277, Channel_aftertouch_c, 2, 58
5, 11280, Channel_aftertouch_c, 2, 60
5, 11281, Channel_aftertouch_c, 2, 61
5, 11285, Channel_aftertouch_c, 2, 63
5, 11287, Channel_aftertouch_c, 2, 60
5, 11287, Channel_aftertouch_c, 2, 58
5, 11288, Channel_aftertouch_c, 2, 57
5, 11289, Channel_aftertouch_c, 2, 53
5, 11290, Channel_aftertouch_c, 2, 49
5, 11291, Channel_aftertouch_c, 2, 45
5, 11291, Channel_aftertouch_c, 2, 41
5, 11292, Channel_aftertouch_c, 2, 37
5, 11293, Channel_aftertouch_c, 2, 33
5, 11294, Channel_aftertouch_c, 2, 29
5, 11294, Channel_aftertouch_c, 2, 25
5, 11295, Channel_aftertouch_c, 2, 21
5, 11296, Channel_aftertouch_c, 2, 17
5, 11296, Channel_aftertouch_c, 2, 13
5, 11297, Channel_aftertouch_c, 2, 9
5, 11298, Channel_aftertouch_c, 2, 5
5, 11299, Channel_aftertouch_c, 2, 1
5, 11299, Channel_aftertouch_c, 2, 0
5, 11341, Channel_aftertouch_c, 2, 1
5, 11342, Channel_aftertouch_c, 2, 3
5, 11342, Channel_aftertouch_c, 2, 4
5, 11344, Channel_aftertouch_c, 2, 7
5, 11345, Channel_aftertouch_c, 2, 10
5, 11347, Channel_aftertouch_c, 2, 12
5, 11348, Channel_aftertouch_c, 2, 13
5, 11354, Channel_aftertouch_c, 2, 15
5, 11357, Channel_aftertouch_c, 2, 16
5, 11360, Channel_aftertouch_c, 2, 18
5, 11365, Channel_aftertouch_c, 2, 16
5, 11366, Channel_aftertouch_c, 2, 15
5, 11367, Channel_aftertouch_c, 2, 13
5, 11368, Channel_aftertouch_c, 2, 10
5, 11369, Channel_aftertouch_c, 2, 9
5, 11371, Channel_aftertouch_c, 2, 6
5, 11371, Channel_aftertouch_c, 2, 4
5, 11372, Channel_aftertouch_c, 2, 3
5, 11373, Channel_aftertouch_c, 2, 1
5, 11373, Channel_aftertouch_c, 2, 0
5, 11427, Note_on_c, 2, 55, 0
5, 11431, Note_on_c, 2, 62, 0
5, 11459, Note_on_c, 2, 55, 114
5, 11459, Note_on_c, 2, 62, 120
5, 11463, Channel_aftertouch_c, 2, 3
5, 11464, Channel_aftertouch_c, 2, 6
5, 11466, Channel_aftertouch_c, 2, 2
5, 11466, Channel_aftertouch_c, 2, 0
5, 11503, Note_on_c, 2, 55, 0
5, 11504, Note_on_c, 2, 62, 0
5, 11519, Note_on_c, 2, 57, 127
5, 11519, Note_on_c, 2, 50, 114
5, 11519, Channel_aftertouch_c, 2, 4
5, 11520, Channel_aftertouch_c, 2, 8
5, 11521, Channel_aftertouch_c, 2, 12
5, 11521, Channel_aftertouch_c, 2, 16
5, 11522, Channel_aftertouch_c, 2, 20
5, 11523, Channel_aftertouch_c, 2, 24
5, 11523, Channel_aftertouch_c, 2, 28
5, 11524, Channel_aftertouch_c, 2, 32
5, 11525, Channel_aftertouch_c, 2, 36
5, 11526, Channel_aftertouch_c, 2, 40
5, 11526, Channel_aftertouch_c, 2, 44
5, 11527, Channel_aftertouch_c, 2, 48
5, 11528, Channel_aftertouch_c, 2, 52
5, 11529, Channel_aftertouch_c, 2, 56
5, 11530, Channel_aftertouch_c, 2, 60
5, 11530, Channel_aftertouch_c, 2, 56
5, 11531, Channel_aftertouch_c, 2, 52
5, 11532, Channel_aftertouch_c, 2, 48
5, 11532, Channel_aftertouch_c, 2, 44
5, 11533, Channel_aftertouch_c, 2, 40
5, 11534, Channel_aftertouch_c, 2, 36
5, 11534, Channel_aftertouch_c, 2, 32
5, 11535, Channel_aftertouch_c, 2, 28
5, 11536, Channel_aftertouch_c, 2, 24
5, 11537, Channel_aftertouch_c, 2, 20
5, 11538, Channel_aftertouch_c, 2, 19
5, 11538, Channel_aftertouch_c, 2, 23
5, 11539, Channel_aftertouch_c, 2, 27
5, 11540, Channel_aftertouch_c, 2, 31
5, 11542, Channel_aftertouch_c, 2, 28
5, 11543, Channel_aftertouch_c, 2, 24
5, 11543, Channel_aftertouch_c, 2, 21
5, 11544, Channel_aftertouch_c, 2, 18
5, 11545, Channel_aftertouch_c, 2, 16
5, 11550, Channel_aftertouch_c, 2, 13
5, 11551, Channel_aftertouch_c, 2, 10
5, 11552, Channel_aftertouch_c, 2, 6
5, 11552, Channel_aftertouch_c, 2, 2
5, 11553, Channel_aftertouch_c, 2, 0
5, 11584, Note_on_c, 2, 50, 0
5, 11591, Note_on_c, 2, 57, 0
5, 11609, Note_on_c, 2, 50, 94
5, 11609, Channel_aftertouch_c, 2, 4
5, 11609, Channel_aftertouch_c, 2, 0
5, 11612, Note_on_c, 2, 57, 107
5, 11619, Note_on_c, 2, 50, 0
5, 11623, Note_on_c, 2, 57, 0
5, 11637, Channel_aftertouch_c, 2, 3
5, 11638, Note_on_c, 2, 53, 107
5, 11638, Note_on_c, 2, 60, 127
5, 11638, Channel_aftertouch_c, 2, 7
5, 11639, Channel_aftertouch_c, 2, 11
5, 11640, Channel_aftertouch_c, 2, 15
5, 11640, Channel_aftertouch_c, 2, 19
5, 11641, Channel_aftertouch_c, 2, 23
5, 11642, Channel_aftertouch_c, 2, 27
5, 11642, Channel_aftertouch_c, 2, 31
5, 11643, Channel_aftertouch_c, 2, 35
5, 11644, Channel_aftertouch_c, 2, 39
5, 11645, Channel_aftertouch_c, 2, 43
5, 11645, Channel_aftertouch_c, 2, 42
5, 11646, Channel_aftertouch_c, 2, 38
5, 11647, Channel_aftertouch_c, 2, 34
5, 11648, Channel_aftertouch_c, 2, 30
5, 11648, Channel_aftertouch_c, 2, 26
5, 11649, Channel_aftertouch_c, 2, 22
5, 11650, Channel_aftertouch_c, 2, 18
5, 11651, Channel_aftertouch_c, 2, 14
5, 11651, Channel_aftertouch_c, 2, 10
5, 11652, Channel_aftertouch_c, 2, 6
5, 11653, Channel_aftertouch_c, 2, 2
5, 11653, Channel_aftertouch_c, 2, 0
5, 11684, Note_on_c, 2, 60, 0
5, 11684, Note_on_c, 2, 53, 0
5, 11699, Note_on_c, 2, 62, 120
5, 11700, Note_on_c, 2, 55, 120
5, 11701, Channel_aftertouch_c, 2, 3
5, 11702, Channel_aftertouch_c, 2, 7
5, 11702, Channel_aftertouch_c, 2, 11
5, 11703, Channel_aftertouch_c, 2, 15
5, 11704, Channel_aftertouch_c, 2, 19
5, 11705, Channel_aftertouch_c, 2, 23
5, 11705, Channel_aftertouch_c, 2, 27
5, 11706, Channel_aftertouch_c, 2, 31
5, 11706, Channel_aftertouch_c, 2, 35
5, 11707, Channel_aftertouch_c, 2, 39
5, 11708, Channel_aftertouch_c, 2, 43
5, 11709, Channel_aftertouch_c, 2, 47
5, 11709, Channel_aftertouch_c, 2, 51
5, 11710, Channel_aftertouch_c, 2, 55
5, 11711, Channel_aftertouch_c, 2, 59
5, 11711, Channel_aftertouch_c, 2, 63
5, 11712, Channel_aftertouch_c, 2, 60
5, 11713, Channel_aftertouch_c, 2, 56
5, 11714, Channel_aftertouch_c, 2, 52
5, 11714, Channel_aftertouch_c, 2, 48
5, 11715, Channel_aftertouch_c, 2, 44
5, 11716, Channel_aftertouch_c, 2, 40
5, 11717, Channel_aftertouch_c, 2, 36
5, 11718, Channel_aftertouch_c, 2, 32
5, 11718, Channel_aftertouch_c, 2, 28
5, 11719, Channel_aftertouch_c, 2, 24
5, 11720, Channel_aftertouch_c, 2, 20
5, 11721, Channel_aftertouch_c, 2, 16
5, 11721, Channel_aftertouch_c, 2, 12
5, 11722, Channel_aftertouch_c, 2, 8
5, 11723, Channel_aftertouch_c, 2, 4
5, 11723, Channel_aftertouch_c, 2, 0
5, 11729, Channel_aftertouch_c, 2, 1
5, 11732, Channel_aftertouch_c, 2, 0
5, 11889, Note_on_c, 2, 55, 0
5, 11890, Note_on_c, 2, 62, 0
5, 11908, Note_on_c, 2, 55, 107
5, 11908, Note_on_c, 2, 62, 120
5, 11910, Channel_aftertouch_c, 2, 4
5, 11910, Channel_aftertouch_c, 2, 8
5, 11911, Channel_aftertouch_c, 2, 12
5, 11912, Channel_aftertouch_c, 2, 16
5, 11913, Channel_aftertouch_c, 2, 20
5, 11913, Channel_aftertouch_c, 2, 24
5, 11914, Channel_aftertouch_c, 2, 27
5, 11915, Channel_aftertouch_c, 2, 23
5, 11915, Channel_aftertouch_c, 2, 19
5, 11916, Channel_aftertouch_c, 2, 15
5, 11917, Channel_aftertouch_c, 2, 11
5, 11917, Channel_aftertouch_c, 2, 7
5, 11918, Channel_aftertouch_c, 2, 3
5, 11919, Channel_aftertouch_c, 2, 0
5, 11974, Note_on_c, 2, 55, 0
5, 11976, Note_on_c, 2, 62, 0
5, 11995, Channel_aftertouch_c, 2, 4
5, 11995, Channel_aftertouch_c, 2, 8
5, 11996, Channel_aftertouch_c, 2, 12
5, 11997, Channel_aftertouch_c, 2, 16
5, 11997, Note_on_c, 2, 50, 107
5, 11998, Note_on_c, 2, 57, 120
5, 11998, Channel_aftertouch_c, 2, 20
5, 11999, Channel_aftertouch_c, 2, 24
5, 11999, Channel_aftertouch_c, 2, 28
5, 12000, Channel_aftertouch_c, 2, 32
5, 12001, Channel_aftertouch_c, 2, 36
5, 12001, Channel_aftertouch_c, 2, 40
5, 12002, Channel_aftertouch_c, 2, 44
5, 12003, Channel_aftertouch_c, 2, 48
5, 12004, Channel_aftertouch_c, 2, 52
5, 12005, Channel_aftertouch_c, 2, 56
5, 12005, Channel_aftertouch_c, 2, 52
5, 12006, Channel_aftertouch_c, 2, 48
5, 12008, Channel_aftertouch_c, 2, 44
5, 12008, Channel_aftertouch_c, 2, 40
5, 12008, Channel_aftertouch_c, 2, 36
5, 12009, Channel_aftertouch_c, 2, 32
5, 12010, Channel_aftertouch_c, 2, 28
5, 12010, Channel_aftertouch_c, 2, 24
5, 12011, Channel_aftertouch_c, 2, 20
5, 12012, Channel_aftertouch_c, 2, 16
5, 12013, Channel_aftertouch_c, 2, 12
5, 12013, Channel_aftertouch_c, 2, 8
5, 12014, Channel_aftertouch_c, 2, 4
5, 12015, Channel_aftertouch_c, 2, 0
5, 12020, Channel_aftertouch_c, 2, 3
5, 12022, Channel_aftertouch_c, 2, 6
5, 12022, Channel_aftertouch_c, 2, 9
5, 12023, Channel_aftertouch_c, 2, 10
5, 12024, Channel_aftertouch_c, 2, 12
5, 12025, Channel_aftertouch_c, 2, 15
5, 12027, Channel_aftertouch_c, 2, 11
5, 12028, Channel_aftertouch_c, 2, 7
5, 12029, Channel_aftertouch_c, 2, 3
5, 12030, Channel_aftertouch_c, 2, 0
5, 12063, Note_on_c, 2, 50, 0
5, 12064, Note_on_c, 2, 57, 0
5, 12087, Note_on_c, 2, 50, 92
5, 12089, Note_on_c, 2, 57, 107
5, 12100, Note_on_c, 2, 50, 0
5, 12101, Note_on_c, 2, 57, 0
5, 12116, Channel_aftertouch_c, 2, 4
5, 12116, Channel_aftertouch_c, 2, 8
5, 12116, Channel_aftertouch_c, 2, 12
5, 12117, Channel_aftertouch_c, 2, 16
5, 12118, Note_on_c, 2, 60, 114
5, 12118, Note_on_c, 2, 53, 104
5, 12118, Channel_aftertouch_c, 2, 20
5, 12119, Channel_aftertouch_c, 2, 24
5, 12119, Channel_aftertouch_c, 2, 28
5, 12120, Channel_aftertouch_c, 2, 32
5, 12121, Channel_aftertouch_c, 2, 36
5, 12122, Channel_aftertouch_c, 2, 40
5, 12122, Channel_aftertouch_c, 2, 44
5, 12123, Channel_aftertouch_c, 2, 48
5, 12124, Channel_aftertouch_c, 2, 52
5, 12125, Channel_aftertouch_c, 2, 48
5, 12125, Channel_aftertouch_c, 2, 44
5, 12126, Channel_aftertouch_c, 2, 40
5, 12127, Channel_aftertouch_c, 2, 36
5, 12128, Channel_aftertouch_c, 2, 32
5, 12128, Channel_aftertouch_c, 2, 28
5, 12129, Channel_aftertouch_c, 2, 24
5, 12130, Channel_aftertouch_c, 2, 20
5, 12130, Channel_aftertouch_c, 2, 16
5, 12131, Channel_aftertouch_c, 2, 12
5, 12132, Channel_aftertouch_c, 2, 8
5, 12133, Channel_aftertouch_c, 2, 4
5, 12133, Channel_aftertouch_c, 2, 0
5, 12167, Note_on_c, 2, 53, 0
5, 12167, Note_on_c, 2, 60, 0
5, 12181, Note_on_c, 2, 62, 127
5, 12181, Note_on_c, 2, 55, 120
5, 12183, Channel_aftertouch_c, 2, 4
5, 12184, Channel_aftertouch_c, 2, 8
5, 12184, Channel_aftertouch_c, 2, 12
5, 12185, Channel_aftertouch_c, 2, 16
5, 12186, Channel_aftertouch_c, 2, 20
5, 12187, Channel_aftertouch_c, 2, 24
5, 12187, Channel_aftertouch_c, 2, 28
5, 12188, Channel_aftertouch_c, 2, 32
5, 12189, Channel_aftertouch_c, 2, 36
5, 12189, Channel_aftertouch_c, 2, 40
5, 12190, Channel_aftertouch_c, 2, 44
5, 12191, Channel_aftertouch_c, 2, 48
5, 12192, Channel_aftertouch_c, 2, 52
5, 12193, Channel_aftertouch_c, 2, 56
5, 12193, Channel_aftertouch_c, 2, 60
5, 12194, Channel_aftertouch_c, 2, 56
5, 12195, Channel_aftertouch_c, 2, 52
5, 12195, Channel_aftertouch_c, 2, 48
5, 12196, Channel_aftertouch_c, 2, 44
5, 12197, Channel_aftertouch_c, 2, 40
5, 12197, Channel_aftertouch_c, 2, 36
5, 12198, Channel_aftertouch_c, 2, 32
5, 12199, Channel_aftertouch_c, 2, 28
5, 12200, Channel_aftertouch_c, 2, 24
5, 12201, Channel_aftertouch_c, 2, 20
5, 12201, Channel_aftertouch_c, 2, 16
5, 12202, Channel_aftertouch_c, 2, 12
5, 12203, Channel_aftertouch_c, 2, 8
5, 12203, Channel_aftertouch_c, 2, 4
5, 12204, Channel_aftertouch_c, 2, 0
5, 12464, Note_on_c, 2, 55, 0
5, 12467, Note_on_c, 2, 62, 0
5, 12481, Note_on_c, 2, 50, 127
5, 12481, Note_on_c, 2, 57, 120
5, 12484, Channel_aftertouch_c, 2, 4
5, 12485, Channel_aftertouch_c, 2, 8
5, 12485, Channel_aftertouch_c, 2, 12
5, 12486, Channel_aftertouch_c, 2, 16
5, 12486, Channel_aftertouch_c, 2, 20
5, 12487, Channel_aftertouch_c, 2, 24
5, 12487, Channel_aftertouch_c, 2, 28
5, 12488, Channel_aftertouch_c, 2, 32
5, 12489, Channel_aftertouch_c, 2, 36
5, 12490, Channel_aftertouch_c, 2, 40
5, 12490, Channel_aftertouch_c, 2, 44
5, 12491, Channel_aftertouch_c, 2, 48
5, 12492, Channel_aftertouch_c, 2, 52
5, 12493, Channel_aftertouch_c, 2, 56
5, 12493, Channel_aftertouch_c, 2, 52
5, 12494, Channel_aftertouch_c, 2, 48
5, 12495, Channel_aftertouch_c, 2, 44
5, 12496, Channel_aftertouch_c, 2, 40
5, 12496, Channel_aftertouch_c, 2, 36
5, 12497, Channel_aftertouch_c, 2, 32
5, 12498, Channel_aftertouch_c, 2, 28
5, 12499, Channel_aftertouch_c, 2, 24
5, 12499, Channel_aftertouch_c, 2, 20
5, 12500, Channel_aftertouch_c, 2, 16
5, 12501, Channel_aftertouch_c, 2, 12
5, 12502, Channel_aftertouch_c, 2, 8
5, 12502, Channel_aftertouch_c, 2, 4
5, 12503, Channel_aftertouch_c, 2, 0
5, 12553, Note_on_c, 2, 57, 0
5, 12553, Note_on_c, 2, 50, 0
5, 12571, Note_on_c, 2, 50, 87
5, 12573, Note_on_c, 2, 57, 120
5, 12582, Note_on_c, 2, 50, 0
5, 12586, Note_on_c, 2, 57, 0
5, 12601, Note_on_c, 2, 60, 114
5, 12601, Note_on_c, 2, 53, 114
5, 12603, Channel_aftertouch_c, 2, 4
5, 12603, Channel_aftertouch_c, 2, 8
5, 12604, Channel_aftertouch_c, 2, 12
5, 12604, Channel_aftertouch_c, 2, 16
5, 12605, Channel_aftertouch_c, 2, 20
5, 12605, Channel_aftertouch_c, 2, 24
5, 12606, Channel_aftertouch_c, 2, 28
5, 12607, Channel_aftertouch_c, 2, 32
5, 12607, Channel_aftertouch_c, 2, 36
5, 12608, Channel_aftertouch_c, 2, 40
5, 12609, Channel_aftertouch_c, 2, 44
5, 12610, Channel_aftertouch_c, 2, 45
5, 12610, Channel_aftertouch_c, 2, 41
5, 12611, Channel_aftertouch_c, 2, 37
5, 12612, Channel_aftertouch_c, 2, 33
5, 12612, Channel_aftertouch_c, 2, 29
5, 12613, Channel_aftertouch_c, 2, 25
5, 12614, Channel_aftertouch_c, 2, 21
5, 12615, Channel_aftertouch_c, 2, 17
5, 12616, Channel_aftertouch_c, 2, 13
5, 12617, Channel_aftertouch_c, 2, 9
5, 12617, Channel_aftertouch_c, 2, 5
5, 12618, Channel_aftertouch_c, 2, 1
5, 12619, Channel_aftertouch_c, 2, 0
5, 12642, Note_on_c, 2, 53, 0
5, 12642, Note_on_c, 2, 60, 0
5, 12661, Note_on_c, 2, 55, 120
5, 12661, Note_on_c, 2, 62, 107
5, 12664, Channel_aftertouch_c, 2, 4
5, 12664, Channel_aftertouch_c, 2, 8
5, 12664, Channel_aftertouch_c, 2, 12
5, 12665, Channel_aftertouch_c, 2, 16
5, 12666, Channel_aftertouch_c, 2, 20
5, 12668, Channel_aftertouch_c, 2, 24
5, 12668, Channel_aftertouch_c, 2, 28
5, 12669, Channel_aftertouch_c, 2, 32
5, 12669, Channel_aftertouch_c, 2, 36
5, 12670, Channel_aftertouch_c, 2, 40
5, 12671, Channel_aftertouch_c, 2, 44
5, 12671, Channel_aftertouch_c, 2, 48
5, 12672, Channel_aftertouch_c, 2, 52
5, 12673, Channel_aftertouch_c, 2, 51
5, 12673, Channel_aftertouch_c, 2, 47
5, 12674, Channel_aftertouch_c, 2, 43
5, 12675, Channel_aftertouch_c, 2, 39
5, 12676, Channel_aftertouch_c, 2, 35
5, 12676, Channel_aftertouch_c, 2, 31
5, 12677, Channel_aftertouch_c, 2, 27
5, 12678, Channel_aftertouch_c, 2, 23
5, 12678, Channel_aftertouch_c, 2, 19
5, 12679, Channel_aftertouch_c, 2, 15
5, 12680, Channel_aftertouch_c, 2, 11
5, 12681, Channel_aftertouch_c, 2, 7
5, 12681, Channel_aftertouch_c, 2, 3
5, 12682, Channel_aftertouch_c, 2, 0
5, 12688, Channel_aftertouch_c, 2, 1
5, 12689, Channel_aftertouch_c, 2, 3
5, 12689, Channel_aftertouch_c, 2, 4
5, 12690, Channel_aftertouch_c, 2, 7
5, 12690, Channel_aftertouch_c, 2, 10
5, 12691, Channel_aftertouch_c, 2, 12
5, 12693, Channel_aftertouch_c, 2, 13
5, 12695, Channel_aftertouch_c, 2, 15
5, 12696, Channel_aftertouch_c, 2, 16
5, 12699, Channel_aftertouch_c, 2, 19
5, 12700, Channel_aftertouch_c, 2, 21
5, 12702, Channel_aftertouch_c, 2, 24
5, 12703, Channel_aftertouch_c, 2, 25
5, 12704, Channel_aftertouch_c, 2, 28
5, 12705, Channel_aftertouch_c, 2, 30
5, 12707, Channel_aftertouch_c, 2, 33
5, 12708, Channel_aftertouch_c, 2, 34
5, 12710, Channel_aftertouch_c, 2, 36
5, 12713, Channel_aftertouch_c, 2, 34
5, 12714, Channel_aftertouch_c, 2, 33
5, 12714, Channel_aftertouch_c, 2, 31
5, 12715, Channel_aftertouch_c, 2, 30
5, 12716, Channel_aftertouch_c, 2, 28
5, 12717, Channel_aftertouch_c, 2, 25
5, 12717, Channel_aftertouch_c, 2, 22
5, 12719, Channel_aftertouch_c, 2, 18
5, 12719, Channel_aftertouch_c, 2, 14
5, 12720, Channel_aftertouch_c, 2, 10
5, 12721, Channel_aftertouch_c, 2, 6
5, 12722, Channel_aftertouch_c, 2, 2
5, 12722, Channel_aftertouch_c, 2, 0
5, 12818, Note_on_c, 2, 55, 0
5, 12819, Note_on_c, 2, 62, 0
5, 12836, Channel_aftertouch_c, 2, 4
5, 12837, Channel_aftertouch_c, 2, 8
5, 12837, Note_on_c, 2, 55, 114
5, 12838, Note_on_c, 2, 62, 120
5, 12838, Channel_aftertouch_c, 2, 12
5, 12838, Channel_aftertouch_c, 2, 16
5, 12839, Channel_aftertouch_c, 2, 20
5, 12840, Channel_aftertouch_c, 2, 24
5, 12841, Channel_aftertouch_c, 2, 28
5, 12841, Channel_aftertouch_c, 2, 32
5, 12842, Channel_aftertouch_c, 2, 36
5, 12843, Channel_aftertouch_c, 2, 40
5, 12844, Channel_aftertouch_c, 2, 36
5, 12845, Channel_aftertouch_c, 2, 32
5, 12846, Channel_aftertouch_c, 2, 28
5, 12846, Channel_aftertouch_c, 2, 24
5, 12847, Channel_aftertouch_c, 2, 20
5, 12848, Channel_aftertouch_c, 2, 16
5, 12849, Channel_aftertouch_c, 2, 12
5, 12849, Channel_aftertouch_c, 2, 8
5, 12850, Channel_aftertouch_c, 2, 4
5, 12851, Channel_aftertouch_c, 2, 0
5, 12887, Pitch_bend_c, 2, 8064
5, 12889, Pitch_bend_c, 2, 7936
5, 12891, Pitch_bend_c, 2, 7680
5, 12893, Pitch_bend_c, 2, 7552
5, 12895, Pitch_bend_c, 2, 7424
5, 12897, Pitch_bend_c, 2, 7296
5, 12900, Pitch_bend_c, 2, 7168
5, 12902, Pitch_bend_c, 2, 7040
5, 12903, Pitch_bend_c, 2, 6912
5, 12905, Pitch_bend_c, 2, 6784
5, 12906, Pitch_bend_c, 2, 6656
5, 12908, Pitch_bend_c, 2, 6528
5, 12909, Pitch_bend_c, 2, 6400
5, 12911, Pitch_bend_c, 2, 6272
5, 12912, Pitch_bend_c, 2, 6016
5, 12914, Pitch_bend_c, 2, 5888
5, 12914, Pitch_bend_c, 2, 5760
5, 12916, Pitch_bend_c, 2, 5632
5, 12917, Pitch_bend_c, 2, 5376
5, 12919, Pitch_bend_c, 2, 5120
5, 12920, Pitch_bend_c, 2, 4864
5, 12921, Pitch_bend_c, 2, 4608
5, 12924, Pitch_bend_c, 2, 4480
5, 12924, Pitch_bend_c, 2, 4224
5, 12925, Pitch_bend_c, 2, 4096
5, 12926, Pitch_bend_c, 2, 3968
5, 12927, Pitch_bend_c, 2, 3712
5, 12928, Pitch_bend_c, 2, 3584
5, 12929, Pitch_bend_c, 2, 3456
5, 12929, Pitch_bend_c, 2, 3328
5, 12931, Pitch_bend_c, 2, 3072
5, 12931, Pitch_bend_c, 2, 2944
5, 12932, Pitch_bend_c, 2, 2816
5, 12933, Pitch_bend_c, 2, 2688
5, 12934, Pitch_bend_c, 2, 2432
5, 12934, Pitch_bend_c, 2, 2304
5, 12935, Pitch_bend_c, 2, 2176
5, 12936, Pitch_bend_c, 2, 2048
5, 12937, Pitch_bend_c, 2, 1920
5, 12937, Pitch_bend_c, 2, 1792
5, 12938, Pitch_bend_c, 2, 1536
5, 12939, Pitch_bend_c, 2, 1408
5, 12940, Pitch_bend_c, 2, 1280
5, 12940, Pitch_bend_c, 2, 1024
5, 12941, Pitch_bend_c, 2, 896
5, 12942, Pitch_bend_c, 2, 768
5, 12942, Pitch_bend_c, 2, 512
5, 12943, Pitch_bend_c, 2, 256
5, 12944, Pitch_bend_c, 2, 0
5, 12960, Note_on_c, 2, 55, 0
5, 12962, Note_on_c, 2, 62, 0
5, 12981, Pitch_bend_c, 2, 512
5, 12982, Pitch_bend_c, 2, 1024
5, 12982, Pitch_bend_c, 2, 1408
5, 12983, Pitch_bend_c, 2, 1920
5, 12984, Pitch_bend_c, 2, 2304
5, 12985, Pitch_bend_c, 2, 2816
5, 12985, Pitch_bend_c, 2, 3328
5, 12986, Pitch_bend_c, 2, 3712
5, 12987, Pitch_bend_c, 2, 4224
5, 12988, Pitch_bend_c, 2, 4608
5, 12988, Pitch_bend_c, 2, 5120
5, 12989, Pitch_bend_c, 2, 5760
5, 12990, Pitch_bend_c, 2, 6272
5, 12991, Pitch_bend_c, 2, 6400
5, 12996, Pitch_bend_c, 2, 6528
5, 12999, Pitch_bend_c, 2, 6656
5, 13005, Pitch_bend_c, 2, 6784
5, 13019, Pitch_bend_c, 2, 6912
5, 13023, Pitch_bend_c, 2, 7040
5, 13025, Pitch_bend_c, 2, 7168
5, 13028, Pitch_bend_c, 2, 7296
5, 13029, Pitch_bend_c, 2, 7680
5, 13029, Pitch_bend_c, 2, 8192
5, 13029, End_track
6, 0, Start_track
6, 0, MIDI_port, 2
6, 0, Title_t, "Sweep"
6, 0, Program_c, 3, 95
6, 0, Control_c, 3, 7, 80
6, 0, Control_c, 3, 10, 64
6, 120, Control_c, 3, 11, 127
6, 120, Control_c, 3, 91, 60
6, 120, Control_c, 3, 93, 40
6, 2518, Note_on_c, 3, 62, 59
6, 2972, Note_on_c, 3, 50, 75
6, 3326, Note_on_c, 3, 38, 94
6, 3337, Note_on_c, 3, 62, 0
6, 3613, Note_on_c, 3, 50, 0
6, 4301, Note_on_c, 3, 38, 0
6, 7202, Note_on_c, 3, 55, 114
6, 7207, Channel_aftertouch_c, 3, 4
6, 7208, Channel_aftertouch_c, 3, 8
6, 7208, Channel_aftertouch_c, 3, 12
6, 7209, Channel_aftertouch_c, 3, 16
6, 7210, Channel_aftertouch_c, 3, 20
6, 7210, Channel_aftertouch_c, 3, 24
6, 7211, Channel_aftertouch_c, 3, 28
6, 7212, Channel_aftertouch_c, 3, 32
6, 7213, Channel_aftertouch_c, 3, 36
6, 7214, Channel_aftertouch_c, 3, 39
6, 7214, Channel_aftertouch_c, 3, 36
6, 7215, Channel_aftertouch_c, 3, 33
6, 7216, Channel_aftertouch_c, 3, 30
6, 7217, Channel_aftertouch_c, 3, 26
6, 7217, Channel_aftertouch_c, 3, 22
6, 7218, Channel_aftertouch_c, 3, 18
6, 7219, Channel_aftertouch_c, 3, 14
6, 7220, Channel_aftertouch_c, 3, 10
6, 7220, Channel_aftertouch_c, 3, 6
6, 7221, Channel_aftertouch_c, 3, 2
6, 7222, Channel_aftertouch_c, 3, 0
6, 7231, Channel_aftertouch_c, 3, 1
6, 7232, Channel_aftertouch_c, 3, 3
6, 7233, Channel_aftertouch_c, 3, 4
6, 7234, Channel_aftertouch_c, 3, 7
6, 7234, Channel_aftertouch_c, 3, 9
6, 7236, Channel_aftertouch_c, 3, 10
6, 7237, Channel_aftertouch_c, 3, 7
6, 7238, Channel_aftertouch_c, 3, 4
6, 7239, Channel_aftertouch_c, 3, 1
6, 7239, Channel_aftertouch_c, 3, 0
6, 7671, Channel_aftertouch_c, 3, 1
6, 7672, Channel_aftertouch_c, 3, 5
6, 7672, Channel_aftertouch_c, 3, 9
6, 7673, Channel_aftertouch_c, 3, 13
6, 7674, Channel_aftertouch_c, 3, 17
6, 7675, Channel_aftertouch_c, 3, 21
6, 7675, Channel_aftertouch_c, 3, 25
6, 7676, Channel_aftertouch_c, 3, 29
6, 7677, Note_on_c, 3, 43, 100
6, 7677, Channel_aftertouch_c, 3, 33
6, 7677, Channel_aftertouch_c, 3, 37
6, 7678, Note_on_c, 3, 55, 0
6, 7678, Channel_aftertouch_c, 3, 41
6, 7679, Channel_aftertouch_c, 3, 45
6, 7680, Channel_aftertouch_c, 3, 49
6, 7680, Channel_aftertouch_c, 3, 51
6, 7681, Channel_aftertouch_c, 3, 47
6, 7682, Channel_aftertouch_c, 3, 43
6, 7682, Channel_aftertouch_c, 3, 39
6, 7683, Channel_aftertouch_c, 3, 35
6, 7684, Channel_aftertouch_c, 3, 31
6, 7685, Channel_aftertouch_c, 3, 27
6, 7685, Channel_aftertouch_c, 3, 23
6, 7686, Channel_aftertouch_c, 3, 19
6, 7687, Channel_aftertouch_c, 3, 15
6, 7687, Channel_aftertouch_c, 3, 11
6, 7689, Channel_aftertouch_c, 3, 7
6, 7689, Channel_aftertouch_c, 3, 10
6, 7690, Channel_aftertouch_c, 3, 14
6, 7691, Channel_aftertouch_c, 3, 18
6, 7692, Channel_aftertouch_c, 3, 22
6, 7692, Channel_aftertouch_c, 3, 25
6, 7693, Channel_aftertouch_c, 3, 28
6, 7694, Channel_aftertouch_c, 3, 30
6, 7695, Channel_aftertouch_c, 3, 31
6, 7698, Channel_aftertouch_c, 3, 28
6, 7699, Channel_aftertouch_c, 3, 25
6, 7699, Channel_aftertouch_c, 3, 21
6, 7700, Channel_aftertouch_c, 3, 17
6, 7701, Channel_aftertouch_c, 3, 13
6, 7701, Channel_aftertouch_c, 3, 9
6, 7702, Channel_aftertouch_c, 3, 5
6, 7703, Channel_aftertouch_c, 3, 1
6, 7703, Channel_aftertouch_c, 3, 0
6, 8167, Note_on_c, 3, 43, 0
6, 44646, Note_on_c, 3, 62, 79
6, 45303, Note_on_c, 3, 50, 75
6, 45306, Channel_aftertouch_c, 3, 4
6, 45307, Channel_aftertouch_c, 3, 7
6, 45308, Channel_aftertouch_c, 3, 11
6, 45309, Channel_aftertouch_c, 3, 15
6, 45309, Channel_aftertouch_c, 3, 11
6, 45310, Channel_aftertouch_c, 3, 7
6, 45311, Channel_aftertouch_c, 3, 3
6, 45311, Channel_aftertouch_c, 3, 0
6, 45899, Note_on_c, 3, 38, 79
6, 45900, Note_on_c, 3, 62, 0
6, 46382, Note_on_c, 3, 50, 0
6, 48496, Note_on_c, 3, 38, 0
6, 48496, End_track
7, 0, Start_track
7, 0, MIDI_port, 2
7, 0, Title_t, "Charang"
7, 0, Program_c, 4, 84
7, 0, Control_c, 4, 7, 70
7, 0, Control_c, 4, 10, 64
7, 120, Control_c, 4, 11, 127
7, 120, Control_c, 4, 91, 60
7, 120, Control_c, 4, 93, 40
7, 479, Note_on_c, 4, 50, 114
7, 481, Note_on_c, 4, 62, 127
7, 481, Channel_aftertouch_c, 4, 4
7, 481, Channel_aftertouch_c, 4, 8
7, 482, Channel_aftertouch_c, 4, 12
7, 483, Channel_aftertouch_c, 4, 16
7, 483, Channel_aftertouch_c, 4, 20
7, 484, Channel_aftertouch_c, 4, 24
7, 486, Channel_aftertouch_c, 4, 28
7, 486, Channel_aftertouch_c, 4, 32
7, 486, Channel_aftertouch_c, 4, 28
7, 487, Channel_aftertouch_c, 4, 24
7, 488, Channel_aftertouch_c, 4, 20
7, 488, Channel_aftertouch_c, 4, 16
7, 489, Channel_aftertouch_c, 4, 12
7, 490, Channel_aftertouch_c, 4, 8
7, 490, Channel_aftertouch_c, 4, 4
7, 491, Channel_aftertouch_c, 4, 0
7, 561, Note_on_c, 4, 50, 0
7, 564, Note_on_c, 4, 62, 0
7, 573, Note_on_c, 4, 62, 81
7, 573, Note_on_c, 4, 50, 81
7, 579, Note_on_c, 4, 50, 0
7, 582, Note_on_c, 4, 62, 0
7, 601, Note_on_c, 4, 53, 95
7, 602, Note_on_c, 4, 65, 120
7, 607, Channel_aftertouch_c, 4, 4
7, 608, Channel_aftertouch_c, 4, 8
7, 608, Channel_aftertouch_c, 4, 12
7, 609, Channel_aftertouch_c, 4, 16
7, 610, Channel_aftertouch_c, 4, 20
7, 610, Channel_aftertouch_c, 4, 24
7, 611, Channel_aftertouch_c, 4, 20
7, 612, Channel_aftertouch_c, 4, 16
7, 613, Channel_aftertouch_c, 4, 12
7, 613, Channel_aftertouch_c, 4, 8
7, 614, Channel_aftertouch_c, 4, 4
7, 615, Channel_aftertouch_c, 4, 0
7, 644, Note_on_c, 4, 53, 0
7, 645, Note_on_c, 4, 65, 0
7, 662, Note_on_c, 4, 55, 114
7, 663, Note_on_c, 4, 67, 127
7, 669, Channel_aftertouch_c, 4, 4
7, 669, Channel_aftertouch_c, 4, 8
7, 670, Channel_aftertouch_c, 4, 12
7, 671, Channel_aftertouch_c, 4, 16
7, 671, Channel_aftertouch_c, 4, 20
7, 672, Channel_aftertouch_c, 4, 24
7, 673, Channel_aftertouch_c, 4, 28
7, 673, Channel_aftertouch_c, 4, 32
7, 674, Channel_aftertouch_c, 4, 36
7, 675, Channel_aftertouch_c, 4, 40
7, 675, Channel_aftertouch_c, 4, 36
7, 676, Channel_aftertouch_c, 4, 32
7, 677, Channel_aftertouch_c, 4, 28
7, 677, Channel_aftertouch_c, 4, 24
7, 678, Channel_aftertouch_c, 4, 20
7, 679, Channel_aftertouch_c, 4, 16
7, 680, Channel_aftertouch_c, 4, 12
7, 681, Channel_aftertouch_c, 4, 8
7, 681, Channel_aftertouch_c, 4, 4
7, 682, Channel_aftertouch_c, 4, 0
7, 733, Channel_aftertouch_c, 4, 1
7, 734, Channel_aftertouch_c, 4, 4
7, 735, Channel_aftertouch_c, 4, 6
7, 736, Channel_aftertouch_c, 4, 9
7, 738, Channel_aftertouch_c, 4, 12
7, 738, Channel_aftertouch_c, 4, 13
7, 739, Channel_aftertouch_c, 4, 15
7, 741, Channel_aftertouch_c, 4, 16
7, 742, Channel_aftertouch_c, 4, 19
7, 744, Channel_aftertouch_c, 4, 21
7, 745, Channel_aftertouch_c, 4, 22
7, 746, Channel_aftertouch_c, 4, 24
7, 748, Channel_aftertouch_c, 4, 27
7, 750, Channel_aftertouch_c, 4, 28
7, 751, Channel_aftertouch_c, 4, 30
7, 753, Channel_aftertouch_c, 4, 33
7, 754, Channel_aftertouch_c, 4, 34
7, 762, Channel_aftertouch_c, 4, 37
7, 763, Channel_aftertouch_c, 4, 40
7, 764, Channel_aftertouch_c, 4, 42
7, 766, Channel_aftertouch_c, 4, 45
7, 767, Channel_aftertouch_c, 4, 46
7, 769, Channel_aftertouch_c, 4, 48
7, 771, Channel_aftertouch_c, 4, 49
7, 773, Channel_aftertouch_c, 4, 51
7, 775, Channel_aftertouch_c, 4, 54
7, 777, Channel_aftertouch_c, 4, 55
7, 780, Channel_aftertouch_c, 4, 57
7, 783, Channel_aftertouch_c, 4, 58
7, 785, Channel_aftertouch_c, 4, 61
7, 787, Channel_aftertouch_c, 4, 63
7, 789, Channel_aftertouch_c, 4, 64
7, 792, Channel_aftertouch_c, 4, 66
7, 795, Channel_aftertouch_c, 4, 67
7, 798, Channel_aftertouch_c, 4, 69
7, 801, Channel_aftertouch_c, 4, 70
7, 804, Channel_aftertouch_c, 4, 72
7, 808, Channel_aftertouch_c, 4, 75
7, 812, Channel_aftertouch_c, 4, 76
7, 824, Channel_aftertouch_c, 4, 75
7, 827, Channel_aftertouch_c, 4, 73
7, 829, Channel_aftertouch_c, 4, 72
7, 838, Channel_aftertouch_c, 4, 70
7, 840, Channel_aftertouch_c, 4, 67
7, 841, Channel_aftertouch_c, 4, 66
7, 843, Channel_aftertouch_c, 4, 63
7, 844, Channel_aftertouch_c, 4, 61
7, 845, Channel_aftertouch_c, 4, 58
7, 845, Channel_aftertouch_c, 4, 57
7, 846, Channel_aftertouch_c, 4, 54
7, 847, Channel_aftertouch_c, 4, 51
7, 847, Channel_aftertouch_c, 4, 48
7, 848, Channel_aftertouch_c, 4, 46
7, 849, Channel_aftertouch_c, 4, 42
7, 850, Channel_aftertouch_c, 4, 39
7, 851, Channel_aftertouch_c, 4, 36
7, 851, Channel_aftertouch_c, 4, 33
7, 852, Channel_aftertouch_c, 4, 29
7, 853, Channel_aftertouch_c, 4, 25
7, 854, Channel_aftertouch_c, 4, 21
7, 854, Channel_aftertouch_c, 4, 17
7, 855, Channel_aftertouch_c, 4, 13
7, 856, Channel_aftertouch_c, 4, 9
7, 856, Channel_aftertouch_c, 4, 5
7, 857, Channel_aftertouch_c, 4, 1
7, 858, Channel_aftertouch_c, 4, 0
7, 925, Note_on_c, 4, 67, 0
7, 928, Note_on_c, 4, 55, 0
7, 957, Note_on_c, 4, 50, 104
7, 957, Channel_aftertouch_c, 4, 4
7, 957, Channel_aftertouch_c, 4, 0
7, 957, Channel_aftertouch_c, 4, 3
7, 958, Note_on_c, 4, 62, 114
7, 958, Channel_aftertouch_c, 4, 8
7, 958, Channel_aftertouch_c, 4, 12
7, 958, Channel_aftertouch_c, 4, 16
7, 958, Channel_aftertouch_c, 4, 20
7, 959, Channel_aftertouch_c, 4, 24
7, 960, Channel_aftertouch_c, 4, 20
7, 960, Channel_aftertouch_c, 4, 16
7, 961, Channel_aftertouch_c, 4, 12
7, 962, Channel_aftertouch_c, 4, 8
7, 963, Channel_aftertouch_c, 4, 4
7, 963, Channel_aftertouch_c, 4, 0
7, 1039, Note_on_c, 4, 50, 0
7, 1040, Note_on_c, 4, 62, 0
7, 1053, Note_on_c, 4, 62, 83
7, 1054, Note_on_c, 4, 50, 89
7, 1055, Note_on_c, 4, 50, 0
7, 1061, Note_on_c, 4, 62, 0
7, 1080, Note_on_c, 4, 53, 114
7, 1081, Note_on_c, 4, 65, 120
7, 1084, Channel_aftertouch_c, 4, 4
7, 1084, Channel_aftertouch_c, 4, 8
7, 1084, Channel_aftertouch_c, 4, 12
7, 1085, Channel_aftertouch_c, 4, 16
7, 1086, Channel_aftertouch_c, 4, 20
7, 1087, Channel_aftertouch_c, 4, 24
7, 1088, Channel_aftertouch_c, 4, 20
7, 1088, Channel_aftertouch_c, 4, 16
7, 1089, Channel_aftertouch_c, 4, 12
7, 1090, Channel_aftertouch_c, 4, 8
7, 1090, Channel_aftertouch_c, 4, 4
7, 1091, Channel_aftertouch_c, 4, 0
7, 1122, Note_on_c, 4, 53, 0
7, 1126, Note_on_c, 4, 65, 0
7, 1142, Note_on_c, 4, 55, 114
7, 1142, Note_on_c, 4, 67, 107
7, 1147, Channel_aftertouch_c, 4, 3
7, 1147, Channel_aftertouch_c, 4, 7
7, 1148, Channel_aftertouch_c, 4, 11
7, 1148, Channel_aftertouch_c, 4, 15
7, 1149, Channel_aftertouch_c, 4, 19
7, 1149, Channel_aftertouch_c, 4, 23
7, 1150, Channel_aftertouch_c, 4, 25
7, 1151, Channel_aftertouch_c, 4, 21
7, 1151, Channel_aftertouch_c, 4, 17
7, 1152, Channel_aftertouch_c, 4, 13
7, 1153, Channel_aftertouch_c, 4, 9
7, 1153, Channel_aftertouch_c, 4, 5
7, 1154, Channel_aftertouch_c, 4, 1
7, 1155, Channel_aftertouch_c, 4, 0
7, 1337, Channel_aftertouch_c, 4, 3
7, 1338, Channel_aftertouch_c, 4, 7
7, 1339, Channel_aftertouch_c, 4, 11
7, 1339, Channel_aftertouch_c, 4, 15
7, 1340, Channel_aftertouch_c, 4, 19
7, 1341, Channel_aftertouch_c, 4, 22
7, 1342, Channel_aftertouch_c, 4, 25
7, 1343, Channel_aftertouch_c, 4, 27
7, 1343, Channel_aftertouch_c, 4, 30
7, 1344, Channel_aftertouch_c, 4, 31
7, 1345, Channel_aftertouch_c, 4, 33
7, 1346, Channel_aftertouch_c, 4, 36
7, 1348, Channel_aftertouch_c, 4, 37
7, 1350, Channel_aftertouch_c, 4, 39
7, 1352, Channel_aftertouch_c, 4, 40
7, 1354, Channel_aftertouch_c, 4, 42
7, 1355, Channel_aftertouch_c, 4, 43
7, 1357, Channel_aftertouch_c, 4, 45
7, 1358, Channel_aftertouch_c, 4, 46
7, 1360, Channel_aftertouch_c, 4, 49
7, 1365, Channel_aftertouch_c, 4, 46
7, 1366, Channel_aftertouch_c, 4, 45
7, 1367, Channel_aftertouch_c, 4, 42
7, 1367, Channel_aftertouch_c, 4, 40
7, 1368, Channel_aftertouch_c, 4, 37
7, 1369, Channel_aftertouch_c, 4, 33
7, 1370, Channel_aftertouch_c, 4, 30
7, 1370, Channel_aftertouch_c, 4, 26
7, 1371, Channel_aftertouch_c, 4, 22
7, 1372, Channel_aftertouch_c, 4, 18
7, 1372, Channel_aftertouch_c, 4, 14
7, 1373, Channel_aftertouch_c, 4, 10
7, 1374, Channel_aftertouch_c, 4, 6
7, 1375, Channel_aftertouch_c, 4, 2
7, 1375, Channel_aftertouch_c, 4, 0
7, 1405, Note_on_c, 4, 67, 0
7, 1408, Note_on_c, 4, 55, 0
7, 1437, Note_on_c, 4, 50, 104
7, 1438, Note_on_c, 4, 62, 99
7, 1517, Note_on_c, 4, 62, 0
7, 1519, Note_on_c, 4, 50, 0
7, 1532, Note_on_c, 4, 62, 89
7, 1532, Note_on_c, 4, 50, 84
7, 1538, Note_on_c, 4, 50, 0
7, 1541, Note_on_c, 4, 62, 0
7, 1559, Note_on_c, 4, 53, 99
7, 1561, Note_on_c, 4, 65, 99
7, 1562, Channel_aftertouch_c, 4, 4
7, 1563, Channel_aftertouch_c, 4, 8
7, 1564, Channel_aftertouch_c, 4, 12
7, 1564, Channel_aftertouch_c, 4, 16
7, 1565, Channel_aftertouch_c, 4, 20
7, 1566, Channel_aftertouch_c, 4, 24
7, 1567, Channel_aftertouch_c, 4, 28
7, 1567, Channel_aftertouch_c, 4, 24
7, 1568, Channel_aftertouch_c, 4, 20
7, 1569, Channel_aftertouch_c, 4, 16
7, 1569, Channel_aftertouch_c, 4, 12
7, 1570, Channel_aftertouch_c, 4, 8
7, 1571, Channel_aftertouch_c, 4, 4
7, 1571, Channel_aftertouch_c, 4, 0
7, 1600, Note_on_c, 4, 53, 0
7, 1604, Note_on_c, 4, 65, 0
7, 1622, Note_on_c, 4, 55, 107
7, 1622, Note_on_c, 4, 67, 127
7, 1626, Channel_aftertouch_c, 4, 4
7, 1628, Channel_aftertouch_c, 4, 8
7, 1628, Channel_aftertouch_c, 4, 12
7, 1628, Channel_aftertouch_c, 4, 16
7, 1629, Channel_aftertouch_c, 4, 20
7, 1629, Channel_aftertouch_c, 4, 24
7, 1630, Channel_aftertouch_c, 4, 28
7, 1631, Channel_aftertouch_c, 4, 24
7, 1632, Channel_aftertouch_c, 4, 20
7, 1633, Channel_aftertouch_c, 4, 16
7, 1633, Channel_aftertouch_c, 4, 12
7, 1634, Channel_aftertouch_c, 4, 8
7, 1635, Channel_aftertouch_c, 4, 4
7, 1636, Channel_aftertouch_c, 4, 0
7, 1752, Channel_aftertouch_c, 4, 1
7, 1756, Channel_aftertouch_c, 4, 3
7, 1758, Channel_aftertouch_c, 4, 6
7, 1759, Channel_aftertouch_c, 4, 7
7, 1761, Channel_aftertouch_c, 4, 10
7, 1762, Channel_aftertouch_c, 4, 12
7, 1763, Channel_aftertouch_c, 4, 13
7, 1763, Channel_aftertouch_c, 4, 15
7, 1764, Channel_aftertouch_c, 4, 18
7, 1765, Channel_aftertouch_c, 4, 19
7, 1765, Channel_aftertouch_c, 4, 21
7, 1766, Channel_aftertouch_c, 4, 24
7, 1767, Channel_aftertouch_c, 4, 25
7, 1768, Channel_aftertouch_c, 4, 28
7, 1769, Channel_aftertouch_c, 4, 30
7, 1769, Channel_aftertouch_c, 4, 31
7, 1770, Channel_aftertouch_c, 4, 33
7, 1771, Channel_aftertouch_c, 4, 36
7, 1773, Channel_aftertouch_c, 4, 39
7, 1774, Channel_aftertouch_c, 4, 40
7, 1776, Channel_aftertouch_c, 4, 42
7, 1777, Channel_aftertouch_c, 4, 43
7, 1779, Channel_aftertouch_c, 4, 45
7, 1782, Channel_aftertouch_c, 4, 48
7, 1784, Channel_aftertouch_c, 4, 49
7, 1786, Channel_aftertouch_c, 4, 51
7, 1788, Channel_aftertouch_c, 4, 52
7, 1790, Channel_aftertouch_c, 4, 55
7, 1793, Channel_aftertouch_c, 4, 57
7, 1794, Channel_aftertouch_c, 4, 58
7, 1795, Channel_aftertouch_c, 4, 60
7, 1797, Channel_aftertouch_c, 4, 63
7, 1798, Channel_aftertouch_c, 4, 64
7, 1800, Channel_aftertouch_c, 4, 66
7, 1802, Channel_aftertouch_c, 4, 69
7, 1803, Channel_aftertouch_c, 4, 70
7, 1805, Channel_aftertouch_c, 4, 72
7, 1806, Channel_aftertouch_c, 4, 73
7, 1807, Channel_aftertouch_c, 4, 76
7, 1809, Channel_aftertouch_c, 4, 78
7, 1812, Channel_aftertouch_c, 4, 79
7, 1815, Channel_aftertouch_c, 4, 81
7, 1819, Channel_aftertouch_c, 4, 82
7, 1825, Channel_aftertouch_c, 4, 84
7, 1834, Channel_aftertouch_c, 4, 82
7, 1836, Channel_aftertouch_c, 4, 81
7, 1838, Channel_aftertouch_c, 4, 79
7, 1839, Channel_aftertouch_c, 4, 78
7, 1841, Channel_aftertouch_c, 4, 75
7, 1841, Channel_aftertouch_c, 4, 73
7, 1842, Channel_aftertouch_c, 4, 70
7, 1843, Channel_aftertouch_c, 4, 69
7, 1843, Channel_aftertouch_c, 4, 66
7, 1844, Channel_aftertouch_c, 4, 63
7, 1845, Channel_aftertouch_c, 4, 61
7, 1846, Channel_aftertouch_c, 4, 60
7, 1846, Channel_aftertouch_c, 4, 58
7, 1847, Channel_aftertouch_c, 4, 57
7, 1848, Channel_aftertouch_c, 4, 55
7, 1849, Channel_aftertouch_c, 4, 54
7, 1849, Channel_aftertouch_c, 4, 52
7, 1850, Channel_aftertouch_c, 4, 51
7, 1851, Channel_aftertouch_c, 4, 48
7, 1852, Channel_aftertouch_c, 4, 46
7, 1853, Channel_aftertouch_c, 4, 45
7, 1854, Channel_aftertouch_c, 4, 42
7, 1855, Channel_aftertouch_c, 4, 39
7, 1855, Channel_aftertouch_c, 4, 37
7, 1856, Channel_aftertouch_c, 4, 33
7, 1857, Channel_aftertouch_c, 4, 31
7, 1857, Channel_aftertouch_c, 4, 27
7, 1858, Channel_aftertouch_c, 4, 24
7, 1859, Channel_aftertouch_c, 4, 21
7, 1860, Channel_aftertouch_c, 4, 17
7, 1860, Channel_aftertouch_c, 4, 13
7, 1861, Channel_aftertouch_c, 4, 9
7, 1862, Channel_aftertouch_c, 4, 5
7, 1862, Channel_aftertouch_c, 4, 1
7, 1863, Channel_aftertouch_c, 4, 0
7, 1887, Note_on_c, 4, 67, 0
7, 1888, Note_on_c, 4, 55, 0
7, 1916, Channel_aftertouch_c, 4, 6
7, 1916, Channel_aftertouch_c, 4, 4
7, 1917, Channel_aftertouch_c, 4, 14
7, 1917, Channel_aftertouch_c, 4, 10
7, 1917, Note_on_c, 4, 50, 120
7, 1917, Channel_aftertouch_c, 4, 18
7, 1918, Note_on_c, 4, 62, 120
7, 1918, Channel_aftertouch_c, 4, 22
7, 1919, Channel_aftertouch_c, 4, 26
7, 1919, Channel_aftertouch_c, 4, 22
7, 1920, Channel_aftertouch_c, 4, 18
7, 1921, Channel_aftertouch_c, 4, 14
7, 1922, Channel_aftertouch_c, 4, 10
7, 1922, Channel_aftertouch_c, 4, 6
7, 1923, Channel_aftertouch_c, 4, 2
7, 1924, Channel_aftertouch_c, 4, 0
7, 1989, Note_on_c, 4, 50, 0
7, 1990, Note_on_c, 4, 62, 0
7, 2011, Note_on_c, 4, 50, 95
7, 2011, Note_on_c, 4, 62, 104
7, 2019, Note_on_c, 4, 50, 0
7, 2021, Note_on_c, 4, 62, 0
7, 2039, Note_on_c, 4, 53, 107
7, 2041, Note_on_c, 4, 65, 127
7, 2041, Channel_aftertouch_c, 4, 3
7, 2041, Channel_aftertouch_c, 4, 1
7, 2043, Channel_aftertouch_c, 4, 5
7, 2043, Channel_aftertouch_c, 4, 9
7, 2043, Channel_aftertouch_c, 4, 13
7, 2044, Channel_aftertouch_c, 4, 17
7, 2045, Channel_aftertouch_c, 4, 21
7, 2045, Channel_aftertouch_c, 4, 25
7, 2046, Channel_aftertouch_c, 4, 29
7, 2046, Channel_aftertouch_c, 4, 25
7, 2047, Channel_aftertouch_c, 4, 21
7, 2048, Channel_aftertouch_c, 4, 17
7, 2049, Channel_aftertouch_c, 4, 13
7, 2049, Channel_aftertouch_c, 4, 9
7, 2050, Channel_aftertouch_c, 4, 5
7, 2051, Channel_aftertouch_c, 4, 1
7, 2051, Channel_aftertouch_c, 4, 0
7, 2082, Note_on_c, 4, 53, 0
7, 2086, Note_on_c, 4, 65, 0
7, 2101, Note_on_c, 4, 55, 114
7, 2102, Note_on_c, 4, 67, 114
7, 2105, Channel_aftertouch_c, 4, 3
7, 2105, Channel_aftertouch_c, 4, 1
7, 2105, Channel_aftertouch_c, 4, 5
7, 2106, Channel_aftertouch_c, 4, 9
7, 2106, Channel_aftertouch_c, 4, 13
7, 2108, Channel_aftertouch_c, 4, 17
7, 2108, Channel_aftertouch_c, 4, 21
7, 2109, Channel_aftertouch_c, 4, 25
7, 2110, Channel_aftertouch_c, 4, 29
7, 2111, Channel_aftertouch_c, 4, 33
7, 2111, Channel_aftertouch_c, 4, 29
7, 2112, Channel_aftertouch_c, 4, 25
7, 2113, Channel_aftertouch_c, 4, 21
7, 2113, Channel_aftertouch_c, 4, 17
7, 2114, Channel_aftertouch_c, 4, 13
7, 2115, Channel_aftertouch_c, 4, 9
7, 2115, Channel_aftertouch_c, 4, 5
7, 2116, Channel_aftertouch_c, 4, 1
7, 2117, Channel_aftertouch_c, 4, 0
7, 2171, Channel_aftertouch_c, 4, 3
7, 2172, Channel_aftertouch_c, 4, 4
7, 2173, Channel_aftertouch_c, 4, 6
7, 2177, Channel_aftertouch_c, 4, 3
7, 2178, Channel_aftertouch_c, 4, 0
7, 2212, Channel_aftertouch_c, 4, 1
7, 2214, Channel_aftertouch_c, 4, 3
7, 2215, Channel_aftertouch_c, 4, 6
7, 2219, Channel_aftertouch_c, 4, 7
7, 2221, Channel_aftertouch_c, 4, 4
7, 2223, Channel_aftertouch_c, 4, 1
7, 2224, Channel_aftertouch_c, 4, 0
7, 2339, Pitch_bend_c, 4, 7936
7, 2340, Pitch_bend_c, 4, 7808
7, 2341, Pitch_bend_c, 4, 7680
7, 2344, Pitch_bend_c, 4, 7552
7, 2346, Pitch_bend_c, 4, 7296
7, 2348, Pitch_bend_c, 4, 7168
7, 2350, Pitch_bend_c, 4, 7040
7, 2351, Pitch_bend_c, 4, 6912
7, 2353, Pitch_bend_c, 4, 6656
7, 2353, Pitch_bend_c, 4, 6528
7, 2355, Pitch_bend_c, 4, 6400
7, 2356, Pitch_bend_c, 4, 6272
7, 2358, Pitch_bend_c, 4, 6144
7, 2359, Pitch_bend_c, 4, 6016
7, 2360, Pitch_bend_c, 4, 5760
7, 2362, Pitch_bend_c, 4, 5632
7, 2364, Pitch_bend_c, 4, 5376
7, 2364, Pitch_bend_c, 4, 5120
7, 2366, Pitch_bend_c, 4, 4864
7, 2367, Pitch_bend_c, 4, 4736
7, 2368, Pitch_bend_c, 4, 4608
7, 2369, Pitch_bend_c, 4, 4352
7, 2370, Pitch_bend_c, 4, 4224
7, 2371, Pitch_bend_c, 4, 4096
7, 2372, Pitch_bend_c, 4, 3840
7, 2373, Pitch_bend_c, 4, 3712
7, 2374, Pitch_bend_c, 4, 3456
7, 2374, Pitch_bend_c, 4, 3328
7, 2375, Pitch_bend_c, 4, 3200
7, 2376, Pitch_bend_c, 4, 3072
7, 2376, Pitch_bend_c, 4, 2944
7, 2377, Pitch_bend_c, 4, 2816
7, 2378, Pitch_bend_c, 4, 2688
7, 2379, Pitch_bend_c, 4, 2432
7, 2380, Pitch_bend_c, 4, 2304
7, 2380, Pitch_bend_c, 4, 2176
7, 2381, Pitch_bend_c, 4, 2048
7, 2382, Pitch_bend_c, 4, 1792
7, 2382, Pitch_bend_c, 4, 1664
7, 2383, Pitch_bend_c, 4, 1536
7, 2384, Pitch_bend_c, 4, 1408
7, 2385, Pitch_bend_c, 4, 1152
7, 2385, Pitch_bend_c, 4, 1024
7, 2386, Pitch_bend_c, 4, 896
7, 2387, Pitch_bend_c, 4, 768
7, 2387, Pitch_bend_c, 4, 512
7, 2388, Pitch_bend_c, 4, 384
7, 2389, Pitch_bend_c, 4, 128
7, 2390, Pitch_bend_c, 4, 0
7, 2396, Note_on_c, 4, 67, 0
7, 2396, Note_on_c, 4, 55, 0
7, 2465, Pitch_bend_c, 4, 256
7, 2465, Pitch_bend_c, 4, 384
7, 2466, Pitch_bend_c, 4, 512
7, 2466, Pitch_bend_c, 4, 768
7, 2467, Pitch_bend_c, 4, 896
7, 2469, Pitch_bend_c, 4, 1152
7, 2469, Pitch_bend_c, 4, 1280
7, 2471, Pitch_bend_c, 4, 1408
7, 2472, Pitch_bend_c, 4, 1664
7, 2474, Pitch_bend_c, 4, 1920
7, 2475, Pitch_bend_c, 4, 2048
7, 2476, Pitch_bend_c, 4, 2176
7, 2478, Pitch_bend_c, 4, 2432
7, 2479, Pitch_bend_c, 4, 2560
7, 2481, Pitch_bend_c, 4, 2688
7, 2483, Pitch_bend_c, 4, 2944
7, 2484, Pitch_bend_c, 4, 3072
7, 2485, Pitch_bend_c, 4, 3328
7, 2487, Pitch_bend_c, 4, 3456
7, 2488, Pitch_bend_c, 4, 3712
7, 2490, Pitch_bend_c, 4, 3968
7, 2491, Pitch_bend_c, 4, 4224
7, 2492, Pitch_bend_c, 4, 4480
7, 2493, Pitch_bend_c, 4, 4608
7, 2494, Pitch_bend_c, 4, 4736
7, 2495, Pitch_bend_c, 4, 4992
7, 2497, Pitch_bend_c, 4, 5120
7, 2499, Pitch_bend_c, 4, 5504
7, 2499, Pitch_bend_c, 4, 5632
7, 2500, Pitch_bend_c, 4, 5760
7, 2501, Pitch_bend_c, 4, 5888
7, 2502, Pitch_bend_c, 4, 6144
7, 2503, Pitch_bend_c, 4, 6272
7, 2504, Pitch_bend_c, 4, 6400
7, 2504, Pitch_bend_c, 4, 6656
7, 2505, Pitch_bend_c, 4, 6784
7, 2506, Pitch_bend_c, 4, 6912
7, 2506, Pitch_bend_c, 4, 7040
7, 2507, Pitch_bend_c, 4, 7168
7, 2508, Pitch_bend_c, 4, 7296
7, 2508, Pitch_bend_c, 4, 7552
7, 2509, Pitch_bend_c, 4, 7680
7, 2510, Pitch_bend_c, 4, 7936
7, 2511, Pitch_bend_c, 4, 8192
7, 7203, Note_on_c, 4, 55, 114
7, 7204, Note_on_c, 4, 67, 127
7, 7212, Channel_aftertouch_c, 4, 4
7, 7213, Channel_aftertouch_c, 4, 0
7, 7213, Channel_aftertouch_c, 4, 4
7, 7214, Channel_aftertouch_c, 4, 8
7, 7215, Channel_aftertouch_c, 4, 4
7, 7216, Channel_aftertouch_c, 4, 6
7, 7216, Channel_aftertouch_c, 4, 2
7, 7217, Channel_aftertouch_c, 4, 0
7, 7231, Note_on_c, 4, 67, 0
7, 7232, Note_on_c, 4, 55, 0
7, 7233, Note_on_c, 4, 67, 89
7, 7234, Note_on_c, 4, 55, 87
7, 7256, Note_on_c, 4, 55, 0
7, 7256, Note_on_c, 4, 67, 0
7, 7263, Note_on_c, 4, 67, 92
7, 7263, Note_on_c, 4, 55, 84
7, 7281, Note_on_c, 4, 55, 0
7, 7285, Note_on_c, 4, 67, 0
7, 7291, Note_on_c, 4, 55, 85
7, 7292, Note_on_c, 4, 67, 92
7, 7314, Note_on_c, 4, 67, 0
7, 7314, Note_on_c, 4, 55, 0
7, 7322, Note_on_c, 4, 55, 120
7, 7322, Note_on_c, 4, 67, 127
7, 7326, Channel_aftertouch_c, 4, 4
7, 7326, Channel_aftertouch_c, 4, 6
7, 7328, Channel_aftertouch_c, 4, 10
7, 7329, Channel_aftertouch_c, 4, 14
7, 7329, Channel_aftertouch_c, 4, 18
7, 7330, Channel_aftertouch_c, 4, 22
7, 7331, Channel_aftertouch_c, 4, 26
7, 7332, Channel_aftertouch_c, 4, 30
7, 7332, Channel_aftertouch_c, 4, 34
7, 7333, Channel_aftertouch_c, 4, 38
7, 7334, Channel_aftertouch_c, 4, 42
7, 7335, Channel_aftertouch_c, 4, 46
7, 7335, Channel_aftertouch_c, 4, 50
7, 7336, Channel_aftertouch_c, 4, 54
7, 7337, Channel_aftertouch_c, 4, 55
7, 7337, Channel_aftertouch_c, 4, 52
7, 7338, Channel_aftertouch_c, 4, 49
7, 7339, Channel_aftertouch_c, 4, 45
7, 7340, Channel_aftertouch_c, 4, 41
7, 7340, Channel_aftertouch_c, 4, 37
7, 7341, Channel_aftertouch_c, 4, 33
7, 7342, Channel_aftertouch_c, 4, 29
7, 7342, Channel_aftertouch_c, 4, 25
7, 7343, Channel_aftertouch_c, 4, 21
7, 7344, Channel_aftertouch_c, 4, 17
7, 7345, Channel_aftertouch_c, 4, 13
7, 7345, Channel_aftertouch_c, 4, 9
7, 7346, Channel_aftertouch_c, 4, 5
7, 7347, Channel_aftertouch_c, 4, 1
7, 7348, Channel_aftertouch_c, 4, 0
7, 7351, Channel_aftertouch_c, 4, 3
7, 7352, Channel_aftertouch_c, 4, 7
7, 7352, Channel_aftertouch_c, 4, 10
7, 7353, Channel_aftertouch_c, 4, 14
7, 7354, Channel_aftertouch_c, 4, 18
7, 7354, Channel_aftertouch_c, 4, 21
7, 7355, Channel_aftertouch_c, 4, 24
7, 7356, Channel_aftertouch_c, 4, 27
7, 7357, Channel_aftertouch_c, 4, 30
7, 7357, Channel_aftertouch_c, 4, 31
7, 7358, Channel_aftertouch_c, 4, 34
7, 7359, Channel_aftertouch_c, 4, 36
7, 7359, Channel_aftertouch_c, 4, 39
7, 7360, Channel_aftertouch_c, 4, 40
7, 7362, Channel_aftertouch_c, 4, 43
7, 7363, Channel_aftertouch_c, 4, 45
7, 7368, Channel_aftertouch_c, 4, 46
7, 7370, Channel_aftertouch_c, 4, 45
7, 7371, Channel_aftertouch_c, 4, 42
7, 7371, Channel_aftertouch_c, 4, 39
7, 7372, Channel_aftertouch_c, 4, 35
7, 7373, Channel_aftertouch_c, 4, 31
7, 7373, Channel_aftertouch_c, 4, 28
7, 7374, Channel_aftertouch_c, 4, 25
7, 7375, Channel_aftertouch_c, 4, 22
7, 7375, Channel_aftertouch_c, 4, 21
7, 7376, Channel_aftertouch_c, 4, 18
7, 7377, Channel_aftertouch_c, 4, 15
7, 7378, Channel_aftertouch_c, 4, 13
7, 7378, Channel_aftertouch_c, 4, 10
7, 7379, Channel_aftertouch_c, 4, 7
7, 7380, Channel_aftertouch_c, 4, 4
7, 7381, Channel_aftertouch_c, 4, 1
7, 7381, Channel_aftertouch_c, 4, 0
7, 7417, Channel_aftertouch_c, 4, 1
7, 7418, Channel_aftertouch_c, 4, 3
7, 7418, Channel_aftertouch_c, 4, 6
7, 7419, Channel_aftertouch_c, 4, 7
7, 7421, Channel_aftertouch_c, 4, 10
7, 7422, Channel_aftertouch_c, 4, 12
7, 7427, Channel_aftertouch_c, 4, 13
7, 7429, Channel_aftertouch_c, 4, 15
7, 7429, Channel_aftertouch_c, 4, 18
7, 7430, Channel_aftertouch_c, 4, 19
7, 7431, Channel_aftertouch_c, 4, 21
7, 7432, Channel_aftertouch_c, 4, 22
7, 7432, Channel_aftertouch_c, 4, 24
7, 7434, Channel_aftertouch_c, 4, 27
7, 7436, Channel_aftertouch_c, 4, 30
7, 7436, Channel_aftertouch_c, 4, 31
7, 7437, Channel_aftertouch_c, 4, 33
7, 7438, Channel_aftertouch_c, 4, 34
7, 7439, Channel_aftertouch_c, 4, 36
7, 7439, Channel_aftertouch_c, 4, 37
7, 7441, Channel_aftertouch_c, 4, 40
7, 7442, Channel_aftertouch_c, 4, 42
7, 7443, Channel_aftertouch_c, 4, 43
7, 7444, Channel_aftertouch_c, 4, 46
7, 7445, Channel_aftertouch_c, 4, 48
7, 7446, Channel_aftertouch_c, 4, 49
7, 7447, Channel_aftertouch_c, 4, 51
7, 7450, Channel_aftertouch_c, 4, 54
7, 7452, Channel_aftertouch_c, 4, 55
7, 7457, Channel_aftertouch_c, 4, 57
7, 7466, Channel_aftertouch_c, 4, 58
7, 7470, Channel_aftertouch_c, 4, 60
7, 7477, Channel_aftertouch_c, 4, 61
7, 7482, Channel_aftertouch_c, 4, 63
7, 7486, Channel_aftertouch_c, 4, 64
7, 7489, Channel_aftertouch_c, 4, 66
7, 7491, Channel_aftertouch_c, 4, 67
7, 7495, Channel_aftertouch_c, 4, 69
7, 7500, Channel_aftertouch_c, 4, 70
7, 7505, Channel_aftertouch_c, 4, 73
7, 7512, Channel_aftertouch_c, 4, 70
7, 7514, Channel_aftertouch_c, 4, 69
7, 7514, Channel_aftertouch_c, 4, 67
7, 7515, Channel_aftertouch_c, 4, 66
7, 7516, Channel_aftertouch_c, 4, 63
7, 7516, Channel_aftertouch_c, 4, 60
7, 7517, Channel_aftertouch_c, 4, 58
7, 7518, Channel_aftertouch_c, 4, 55
7, 7519, Channel_aftertouch_c, 4, 51
7, 7519, Channel_aftertouch_c, 4, 47
7, 7520, Channel_aftertouch_c, 4, 43
7, 7521, Channel_aftertouch_c, 4, 39
7, 7522, Channel_aftertouch_c, 4, 35
7, 7523, Channel_aftertouch_c, 4, 31
7, 7523, Channel_aftertouch_c, 4, 27
7, 7524, Channel_aftertouch_c, 4, 23
7, 7525, Channel_aftertouch_c, 4, 19
7, 7526, Channel_aftertouch_c, 4, 15
7, 7526, Channel_aftertouch_c, 4, 11
7, 7527, Channel_aftertouch_c, 4, 7
7, 7528, Channel_aftertouch_c, 4, 3
7, 7528, Channel_aftertouch_c, 4, 0
7, 7594, Channel_aftertouch_c, 4, 1
7, 7594, Channel_aftertouch_c, 4, 4
7, 7595, Channel_aftertouch_c, 4, 6
7, 7596, Channel_aftertouch_c, 4, 9
7, 7596, Channel_aftertouch_c, 4, 12
7, 7597, Channel_aftertouch_c, 4, 13
7, 7598, Channel_aftertouch_c, 4, 15
7, 7599, Channel_aftertouch_c, 4, 18
7, 7600, Channel_aftertouch_c, 4, 19
7, 7600, Channel_aftertouch_c, 4, 21
7, 7602, Channel_aftertouch_c, 4, 24
7, 7603, Channel_aftertouch_c, 4, 27
7, 7605, Channel_aftertouch_c, 4, 28
7, 7614, Channel_aftertouch_c, 4, 27
7, 7615, Channel_aftertouch_c, 4, 24
7, 7617, Channel_aftertouch_c, 4, 22
7, 7619, Channel_aftertouch_c, 4, 21
7, 7621, Channel_aftertouch_c, 4, 18
7, 7621, Channel_aftertouch_c, 4, 16
7, 7622, Channel_aftertouch_c, 4, 15
7, 7623, Channel_aftertouch_c, 4, 13
7, 7623, Channel_aftertouch_c, 4, 12
7, 7624, Channel_aftertouch_c, 4, 9
7, 7625, Channel_aftertouch_c, 4, 6
7, 7626, Channel_aftertouch_c, 4, 3
7, 7626, Channel_aftertouch_c, 4, 0
7, 7657, Note_on_c, 4, 67, 0
7, 7664, Note_on_c, 4, 55, 0
7, 7683, Note_on_c, 4, 55, 104
7, 7684, Note_on_c, 4, 67, 120
7, 7693, Channel_aftertouch_c, 4, 1
7, 7695, Channel_aftertouch_c, 4, 4
7, 7695, Channel_aftertouch_c, 4, 0
7, 7706, Note_on_c, 4, 67, 0
7, 7710, Note_on_c, 4, 55, 0
7, 7712, Note_on_c, 4, 67, 85
7, 7712, Note_on_c, 4, 55, 83
7, 7734, Note_on_c, 4, 55, 0
7, 7739, Note_on_c, 4, 67, 0
7, 7741, Note_on_c, 4, 55, 87
7, 7742, Note_on_c, 4, 67, 85
7, 7763, Note_on_c, 4, 55, 0
7, 7765, Note_on_c, 4, 67, 0
7, 7771, Note_on_c, 4, 55, 89
7, 7772, Note_on_c, 4, 67, 99
7, 7792, Note_on_c, 4, 67, 0
7, 7793, Note_on_c, 4, 55, 0
7, 7801, Note_on_c, 4, 55, 99
7, 7802, Note_on_c, 4, 67, 114
7, 7805, Channel_aftertouch_c, 4, 1
7, 7806, Channel_aftertouch_c, 4, 5
7, 7806, Channel_aftertouch_c, 4, 1
7, 7807, Channel_aftertouch_c, 4, 0
7, 7936, Channel_aftertouch_c, 4, 1
7, 7938, Channel_aftertouch_c, 4, 3
7, 7941, Channel_aftertouch_c, 4, 4
7, 7945, Channel_aftertouch_c, 4, 6
7, 7954, Channel_aftertouch_c, 4, 7
7, 7955, Channel_aftertouch_c, 4, 9
7, 7956, Channel_aftertouch_c, 4, 12
7, 7958, Channel_aftertouch_c, 4, 13
7, 7960, Channel_aftertouch_c, 4, 15
7, 7962, Channel_aftertouch_c, 4, 18
7, 7964, Channel_aftertouch_c, 4, 19
7, 7966, Channel_aftertouch_c, 4, 21
7, 7973, Channel_aftertouch_c, 4, 19
7, 7978, Channel_aftertouch_c, 4, 21
7, 7981, Channel_aftertouch_c, 4, 24
7, 7982, Channel_aftertouch_c, 4, 25
7, 7984, Channel_aftertouch_c, 4, 27
7, 7986, Channel_aftertouch_c, 4, 28
7, 7988, Channel_aftertouch_c, 4, 31
7, 7990, Channel_aftertouch_c, 4, 33
7, 7997, Channel_aftertouch_c, 4, 34
7, 8006, Channel_aftertouch_c, 4, 36
7, 8007, Channel_aftertouch_c, 4, 37
7, 8012, Channel_aftertouch_c, 4, 40
7, 8025, Channel_aftertouch_c, 4, 39
7, 8029, Channel_aftertouch_c, 4, 37
7, 8031, Channel_aftertouch_c, 4, 36
7, 8039, Channel_aftertouch_c, 4, 33
7, 8042, Channel_aftertouch_c, 4, 31
7, 8043, Channel_aftertouch_c, 4, 30
7, 8044, Channel_aftertouch_c, 4, 28
7, 8044, Channel_aftertouch_c, 4, 25
7, 8045, Channel_aftertouch_c, 4, 22
7, 8046, Channel_aftertouch_c, 4, 21
7, 8047, Channel_aftertouch_c, 4, 17
7, 8047, Channel_aftertouch_c, 4, 13
7, 8048, Channel_aftertouch_c, 4, 10
7, 8049, Channel_aftertouch_c, 4, 6
7, 8050, Channel_aftertouch_c, 4, 2
7, 8050, Channel_aftertouch_c, 4, 0
7, 8139, Note_on_c, 4, 67, 0
7, 8146, Note_on_c, 4, 55, 0
7, 11041, Note_on_c, 4, 50, 104
7, 11042, Note_on_c, 4, 62, 127
7, 11050, Channel_aftertouch_c, 4, 3
7, 11050, Channel_aftertouch_c, 4, 7
7, 11051, Channel_aftertouch_c, 4, 10
7, 11052, Channel_aftertouch_c, 4, 13
7, 11053, Channel_aftertouch_c, 4, 17
7, 11054, Channel_aftertouch_c, 4, 21
7, 11054, Channel_aftertouch_c, 4, 25
7, 11056, Channel_aftertouch_c, 4, 24
7, 11056, Channel_aftertouch_c, 4, 20
7, 11057, Channel_aftertouch_c, 4, 16
7, 11058, Channel_aftertouch_c, 4, 12
7, 11059, Channel_aftertouch_c, 4, 8
7, 11059, Channel_aftertouch_c, 4, 4
7, 11060, Channel_aftertouch_c, 4, 0
7, 11110, Note_on_c, 4, 62, 0
7, 11112, Note_on_c, 4, 50, 0
7, 11131, Note_on_c, 4, 50, 85
7, 11133, Note_on_c, 4, 62, 104
7, 11143, Note_on_c, 4, 50, 0
7, 11148, Note_on_c, 4, 62, 0
7, 11161, Note_on_c, 4, 65, 107
7, 11161, Note_on_c, 4, 53, 104
7, 11166, Channel_aftertouch_c, 4, 4
7, 11166, Channel_aftertouch_c, 4, 8
7, 11167, Channel_aftertouch_c, 4, 12
7, 11168, Channel_aftertouch_c, 4, 16
7, 11169, Channel_aftertouch_c, 4, 20
7, 11169, Channel_aftertouch_c, 4, 24
7, 11170, Channel_aftertouch_c, 4, 28
7, 11171, Channel_aftertouch_c, 4, 32
7, 11172, Channel_aftertouch_c, 4, 36
7, 11173, Channel_aftertouch_c, 4, 40
7, 11173, Channel_aftertouch_c, 4, 44
7, 11174, Channel_aftertouch_c, 4, 40
7, 11175, Channel_aftertouch_c, 4, 36
7, 11176, Channel_aftertouch_c, 4, 32
7, 11176, Channel_aftertouch_c, 4, 28
7, 11177, Channel_aftertouch_c, 4, 24
7, 11178, Channel_aftertouch_c, 4, 20
7, 11178, Channel_aftertouch_c, 4, 16
7, 11179, Channel_aftertouch_c, 4, 12
7, 11180, Channel_aftertouch_c, 4, 8
7, 11181, Channel_aftertouch_c, 4, 4
7, 11181, Channel_aftertouch_c, 4, 0
7, 11206, Note_on_c, 4, 53, 0
7, 11206, Note_on_c, 4, 65, 0
7, 11221, Note_on_c, 4, 67, 127
7, 11221, Note_on_c, 4, 55, 114
7, 11224, Channel_aftertouch_c, 4, 1
7, 11225, Channel_aftertouch_c, 4, 0
7, 11226, Channel_aftertouch_c, 4, 3
7, 11227, Channel_aftertouch_c, 4, 7
7, 11227, Channel_aftertouch_c, 4, 11
7, 11228, Channel_aftertouch_c, 4, 15
7, 11229, Channel_aftertouch_c, 4, 19
7, 11229, Channel_aftertouch_c, 4, 23
7, 11230, Channel_aftertouch_c, 4, 27
7, 11231, Channel_aftertouch_c, 4, 31
7, 11231, Channel_aftertouch_c, 4, 35
7, 11232, Channel_aftertouch_c, 4, 39
7, 11233, Channel_aftertouch_c, 4, 43
7, 11233, Channel_aftertouch_c, 4, 47
7, 11234, Channel_aftertouch_c, 4, 45
7, 11235, Channel_aftertouch_c, 4, 41
7, 11236, Channel_aftertouch_c, 4, 37
7, 11236, Channel_aftertouch_c, 4, 33
7, 11237, Channel_aftertouch_c, 4, 29
7, 11238, Channel_aftertouch_c, 4, 25
7, 11239, Channel_aftertouch_c, 4, 21
7, 11240, Channel_aftertouch_c, 4, 17
7, 11240, Channel_aftertouch_c, 4, 13
7, 11241, Channel_aftertouch_c, 4, 9
7, 11242, Channel_aftertouch_c, 4, 5
7, 11243, Channel_aftertouch_c, 4, 1
7, 11243, Channel_aftertouch_c, 4, 0
7, 11494, Note_on_c, 4, 67, 0
7, 11495, Note_on_c, 4, 55, 0
7, 11519, Note_on_c, 4, 50, 95
7, 11519, Note_on_c, 4, 62, 120
7, 11523, Channel_aftertouch_c, 4, 1
7, 11524, Channel_aftertouch_c, 4, 5
7, 11525, Channel_aftertouch_c, 4, 9
7, 11525, Channel_aftertouch_c, 4, 13
7, 11526, Channel_aftertouch_c, 4, 17
7, 11527, Channel_aftertouch_c, 4, 21
7, 11527, Channel_aftertouch_c, 4, 25
7, 11529, Channel_aftertouch_c, 4, 29
7, 11529, Channel_aftertouch_c, 4, 33
7, 11530, Channel_aftertouch_c, 4, 37
7, 11531, Channel_aftertouch_c, 4, 41
7, 11531, Channel_aftertouch_c, 4, 42
7, 11532, Channel_aftertouch_c, 4, 38
7, 11533, Channel_aftertouch_c, 4, 34
7, 11533, Channel_aftertouch_c, 4, 30
7, 11534, Channel_aftertouch_c, 4, 26
7, 11535, Channel_aftertouch_c, 4, 22
7, 11535, Channel_aftertouch_c, 4, 18
7, 11536, Channel_aftertouch_c, 4, 14
7, 11537, Channel_aftertouch_c, 4, 10
7, 11538, Channel_aftertouch_c, 4, 6
7, 11538, Channel_aftertouch_c, 4, 2
7, 11539, Channel_aftertouch_c, 4, 0
7, 11591, Note_on_c, 4, 62, 0
7, 11595, Note_on_c, 4, 50, 0
7, 11609, Note_on_c, 4, 50, 95
7, 11611, Note_on_c, 4, 62, 99
7, 11620, Note_on_c, 4, 50, 0
7, 11627, Note_on_c, 4, 62, 0
7, 11638, Note_on_c, 4, 65, 120
7, 11638, Note_on_c, 4, 53, 120
7, 11638, Channel_aftertouch_c, 4, 4
7, 11638, Channel_aftertouch_c, 4, 8
7, 11639, Channel_aftertouch_c, 4, 12
7, 11640, Channel_aftertouch_c, 4, 16
7, 11641, Channel_aftertouch_c, 4, 20
7, 11641, Channel_aftertouch_c, 4, 24
7, 11642, Channel_aftertouch_c, 4, 28
7, 11643, Channel_aftertouch_c, 4, 32
7, 11643, Channel_aftertouch_c, 4, 36
7, 11644, Channel_aftertouch_c, 4, 40
7, 11645, Channel_aftertouch_c, 4, 44
7, 11646, Channel_aftertouch_c, 4, 48
7, 11646, Channel_aftertouch_c, 4, 52
7, 11647, Channel_aftertouch_c, 4, 49
7, 11648, Channel_aftertouch_c, 4, 45
7, 11649, Channel_aftertouch_c, 4, 41
7, 11650, Channel_aftertouch_c, 4, 37
7, 11650, Channel_aftertouch_c, 4, 33
7, 11651, Channel_aftertouch_c, 4, 29
7, 11652, Channel_aftertouch_c, 4, 25
7, 11652, Channel_aftertouch_c, 4, 21
7, 11653, Channel_aftertouch_c, 4, 17
7, 11654, Channel_aftertouch_c, 4, 13
7, 11654, Channel_aftertouch_c, 4, 9
7, 11655, Channel_aftertouch_c, 4, 5
7, 11656, Channel_aftertouch_c, 4, 1
7, 11656, Channel_aftertouch_c, 4, 0
7, 11684, Note_on_c, 4, 53, 0
7, 11686, Note_on_c, 4, 65, 0
7, 11701, Note_on_c, 4, 67, 120
7, 11701, Note_on_c, 4, 55, 107
7, 11704, Channel_aftertouch_c, 4, 4
7, 11705, Channel_aftertouch_c, 4, 8
7, 11706, Channel_aftertouch_c, 4, 12
7, 11707, Channel_aftertouch_c, 4, 16
7, 11707, Channel_aftertouch_c, 4, 20
7, 11708, Channel_aftertouch_c, 4, 24
7, 11709, Channel_aftertouch_c, 4, 28
7, 11709, Channel_aftertouch_c, 4, 32
7, 11710, Channel_aftertouch_c, 4, 36
7, 11711, Channel_aftertouch_c, 4, 32
7, 11712, Channel_aftertouch_c, 4, 28
7, 11713, Channel_aftertouch_c, 4, 24
7, 11714, Channel_aftertouch_c, 4, 20
7, 11714, Channel_aftertouch_c, 4, 16
7, 11715, Channel_aftertouch_c, 4, 12
7, 11716, Channel_aftertouch_c, 4, 8
7, 11717, Channel_aftertouch_c, 4, 4
7, 11717, Channel_aftertouch_c, 4, 0
7, 11984, Note_on_c, 4, 55, 0
7, 11993, Note_on_c, 4, 67, 0
7, 12001, Note_on_c, 4, 50, 114
7, 12001, Note_on_c, 4, 62, 127
7, 12007, Channel_aftertouch_c, 4, 3
7, 12007, Channel_aftertouch_c, 4, 7
7, 12008, Channel_aftertouch_c, 4, 11
7, 12009, Channel_aftertouch_c, 4, 15
7, 12009, Channel_aftertouch_c, 4, 19
7, 12010, Channel_aftertouch_c, 4, 23
7, 12011, Channel_aftertouch_c, 4, 27
7, 12011, Channel_aftertouch_c, 4, 31
7, 12012, Channel_aftertouch_c, 4, 35
7, 12013, Channel_aftertouch_c, 4, 39
7, 12014, Channel_aftertouch_c, 4, 43
7, 12014, Channel_aftertouch_c, 4, 47
7, 12015, Channel_aftertouch_c, 4, 51
7, 12016, Channel_aftertouch_c, 4, 47
7, 12016, Channel_aftertouch_c, 4, 43
7, 12017, Channel_aftertouch_c, 4, 39
7, 12018, Channel_aftertouch_c, 4, 35
7, 12019, Channel_aftertouch_c, 4, 31
7, 12019, Channel_aftertouch_c, 4, 27
7, 12020, Channel_aftertouch_c, 4, 23
7, 12021, Channel_aftertouch_c, 4, 19
7, 12022, Channel_aftertouch_c, 4, 15
7, 12023, Channel_aftertouch_c, 4, 11
7, 12023, Channel_aftertouch_c, 4, 7
7, 12024, Channel_aftertouch_c, 4, 3
7, 12025, Channel_aftertouch_c, 4, 0
7, 12068, Note_on_c, 4, 50, 0
7, 12071, Note_on_c, 4, 62, 0
7, 12089, Note_on_c, 4, 50, 85
7, 12091, Note_on_c, 4, 62, 99
7, 12101, Note_on_c, 4, 50, 0
7, 12106, Note_on_c, 4, 62, 0
7, 12117, Channel_aftertouch_c, 4, 1
7, 12117, Channel_aftertouch_c, 4, 5
7, 12118, Note_on_c, 4, 65, 114
7, 12118, Note_on_c, 4, 53, 120
7, 12118, Channel_aftertouch_c, 4, 9
7, 12119, Channel_aftertouch_c, 4, 13
7, 12119, Channel_aftertouch_c, 4, 17
7, 12120, Channel_aftertouch_c, 4, 21
7, 12121, Channel_aftertouch_c, 4, 25
7, 12122, Channel_aftertouch_c, 4, 29
7, 12122, Channel_aftertouch_c, 4, 33
7, 12123, Channel_aftertouch_c, 4, 37
7, 12124, Channel_aftertouch_c, 4, 41
7, 12125, Channel_aftertouch_c, 4, 45
7, 12126, Channel_aftertouch_c, 4, 49
7, 12126, Channel_aftertouch_c, 4, 53
7, 12127, Channel_aftertouch_c, 4, 55
7, 12128, Channel_aftertouch_c, 4, 51
7, 12128, Channel_aftertouch_c, 4, 47
7, 12129, Channel_aftertouch_c, 4, 43
7, 12130, Channel_aftertouch_c, 4, 39
7, 12131, Channel_aftertouch_c, 4, 35
7, 12131, Channel_aftertouch_c, 4, 31
7, 12132, Channel_aftertouch_c, 4, 27
7, 12133, Channel_aftertouch_c, 4, 23
7, 12134, Channel_aftertouch_c, 4, 19
7, 12134, Channel_aftertouch_c, 4, 15
7, 12135, Channel_aftertouch_c, 4, 11
7, 12135, Channel_aftertouch_c, 4, 7
7, 12136, Channel_aftertouch_c, 4, 3
7, 12137, Channel_aftertouch_c, 4, 0
7, 12163, Note_on_c, 4, 53, 0
7, 12163, Note_on_c, 4, 65, 0
7, 12179, Note_on_c, 4, 67, 120
7, 12180, Note_on_c, 4, 55, 99
7, 12181, Channel_aftertouch_c, 4, 1
7, 12182, Channel_aftertouch_c, 4, 0
7, 12183, Channel_aftertouch_c, 4, 4
7, 12184, Channel_aftertouch_c, 4, 8
7, 12184, Channel_aftertouch_c, 4, 12
7, 12185, Channel_aftertouch_c, 4, 16
7, 12186, Channel_aftertouch_c, 4, 20
7, 12187, Channel_aftertouch_c, 4, 24
7, 12187, Channel_aftertouch_c, 4, 28
7, 12188, Channel_aftertouch_c, 4, 32
7, 12189, Channel_aftertouch_c, 4, 36
7, 12190, Channel_aftertouch_c, 4, 37
7, 12190, Channel_aftertouch_c, 4, 33
7, 12191, Channel_aftertouch_c, 4, 29
7, 12192, Channel_aftertouch_c, 4, 25
7, 12193, Channel_aftertouch_c, 4, 21
7, 12194, Channel_aftertouch_c, 4, 17
7, 12194, Channel_aftertouch_c, 4, 13
7, 12195, Channel_aftertouch_c, 4, 9
7, 12196, Channel_aftertouch_c, 4, 5
7, 12197, Channel_aftertouch_c, 4, 1
7, 12197, Channel_aftertouch_c, 4, 0
7, 12471, Note_on_c, 4, 55, 0
7, 12476, Note_on_c, 4, 67, 0
7, 12481, Note_on_c, 4, 50, 120
7, 12481, Note_on_c, 4, 62, 127
7, 12485, Channel_aftertouch_c, 4, 3
7, 12486, Channel_aftertouch_c, 4, 7
7, 12486, Channel_aftertouch_c, 4, 11
7, 12487, Channel_aftertouch_c, 4, 15
7, 12488, Channel_aftertouch_c, 4, 19
7, 12488, Channel_aftertouch_c, 4, 23
7, 12489, Channel_aftertouch_c, 4, 27
7, 12490, Channel_aftertouch_c, 4, 31
7, 12491, Channel_aftertouch_c, 4, 35
7, 12491, Channel_aftertouch_c, 4, 39
7, 12492, Channel_aftertouch_c, 4, 43
7, 12493, Channel_aftertouch_c, 4, 47
7, 12494, Channel_aftertouch_c, 4, 51
7, 12494, Channel_aftertouch_c, 4, 55
7, 12495, Channel_aftertouch_c, 4, 59
7, 12496, Channel_aftertouch_c, 4, 55
7, 12497, Channel_aftertouch_c, 4, 51
7, 12497, Channel_aftertouch_c, 4, 47
7, 12498, Channel_aftertouch_c, 4, 43
7, 12499, Channel_aftertouch_c, 4, 39
7, 12500, Channel_aftertouch_c, 4, 35
7, 12500, Channel_aftertouch_c, 4, 31
7, 12501, Channel_aftertouch_c, 4, 27
7, 12502, Channel_aftertouch_c, 4, 23
7, 12502, Channel_aftertouch_c, 4, 19
7, 12503, Channel_aftertouch_c, 4, 15
7, 12504, Channel_aftertouch_c, 4, 11
7, 12505, Channel_aftertouch_c, 4, 7
7, 12505, Channel_aftertouch_c, 4, 3
7, 12506, Channel_aftertouch_c, 4, 1
7, 12547, Note_on_c, 4, 50, 0
7, 12549, Note_on_c, 4, 62, 0
7, 12568, Note_on_c, 4, 50, 94
7, 12572, Note_on_c, 4, 62, 107
7, 12580, Note_on_c, 4, 50, 0
7, 12587, Note_on_c, 4, 62, 0
7, 12597, Channel_aftertouch_c, 4, 5
7, 12598, Channel_aftertouch_c, 4, 9
7, 12598, Note_on_c, 4, 53, 127
7, 12598, Channel_aftertouch_c, 4, 13
7, 12599, Note_on_c, 4, 65, 104
7, 12599, Channel_aftertouch_c, 4, 17
7, 12600, Channel_aftertouch_c, 4, 21
7, 12601, Channel_aftertouch_c, 4, 25
7, 12601, Channel_aftertouch_c, 4, 29
7, 12602, Channel_aftertouch_c, 4, 33
7, 12603, Channel_aftertouch_c, 4, 37
7, 12604, Channel_aftertouch_c, 4, 41
7, 12604, Channel_aftertouch_c, 4, 45
7, 12605, Channel_aftertouch_c, 4, 49
7, 12606, Channel_aftertouch_c, 4, 53
7, 12606, Channel_aftertouch_c, 4, 57
7, 12607, Channel_aftertouch_c, 4, 61
7, 12608, Channel_aftertouch_c, 4, 65
7, 12608, Channel_aftertouch_c, 4, 61
7, 12609, Channel_aftertouch_c, 4, 57
7, 12610, Channel_aftertouch_c, 4, 53
7, 12611, Channel_aftertouch_c, 4, 49
7, 12611, Channel_aftertouch_c, 4, 45
7, 12612, Channel_aftertouch_c, 4, 41
7, 12613, Channel_aftertouch_c, 4, 37
7, 12614, Channel_aftertouch_c, 4, 33
7, 12614, Channel_aftertouch_c, 4, 29
7, 12615, Channel_aftertouch_c, 4, 25
7, 12616, Channel_aftertouch_c, 4, 21
7, 12617, Channel_aftertouch_c, 4, 17
7, 12617, Channel_aftertouch_c, 4, 13
7, 12618, Channel_aftertouch_c, 4, 9
7, 12619, Channel_aftertouch_c, 4, 5
7, 12620, Channel_aftertouch_c, 4, 1
7, 12620, Channel_aftertouch_c, 4, 0
7, 12643, Note_on_c, 4, 53, 0
7, 12644, Note_on_c, 4, 65, 0
7, 12659, Note_on_c, 4, 55, 114
7, 12659, Note_on_c, 4, 67, 114
7, 12661, Channel_aftertouch_c, 4, 4
7, 12661, Channel_aftertouch_c, 4, 8
7, 12661, Channel_aftertouch_c, 4, 12
7, 12661, Channel_aftertouch_c, 4, 16
7, 12662, Channel_aftertouch_c, 4, 20
7, 12663, Channel_aftertouch_c, 4, 24
7, 12663, Channel_aftertouch_c, 4, 28
7, 12664, Channel_aftertouch_c, 4, 32
7, 12665, Channel_aftertouch_c, 4, 36
7, 12665, Channel_aftertouch_c, 4, 40
7, 12666, Channel_aftertouch_c, 4, 44
7, 12667, Channel_aftertouch_c, 4, 48
7, 12668, Channel_aftertouch_c, 4, 52
7, 12669, Channel_aftertouch_c, 4, 56
7, 12670, Channel_aftertouch_c, 4, 52
7, 12670, Channel_aftertouch_c, 4, 48
7, 12671, Channel_aftertouch_c, 4, 44
7, 12672, Channel_aftertouch_c, 4, 40
7, 12672, Channel_aftertouch_c, 4, 36
7, 12673, Channel_aftertouch_c, 4, 32
7, 12674, Channel_aftertouch_c, 4, 28
7, 12674, Channel_aftertouch_c, 4, 24
7, 12675, Channel_aftertouch_c, 4, 20
7, 12676, Channel_aftertouch_c, 4, 16
7, 12677, Channel_aftertouch_c, 4, 12
7, 12678, Channel_aftertouch_c, 4, 8
7, 12678, Channel_aftertouch_c, 4, 4
7, 12679, Channel_aftertouch_c, 4, 0
7, 12853, Channel_aftertouch_c, 4, 1
7, 12855, Channel_aftertouch_c, 4, 3
7, 12856, Channel_aftertouch_c, 4, 6
7, 12857, Channel_aftertouch_c, 4, 7
7, 12857, Channel_aftertouch_c, 4, 9
7, 12858, Channel_aftertouch_c, 4, 12
7, 12859, Channel_aftertouch_c, 4, 15
7, 12859, Channel_aftertouch_c, 4, 16
7, 12860, Channel_aftertouch_c, 4, 19
7, 12861, Channel_aftertouch_c, 4, 22
7, 12862, Channel_aftertouch_c, 4, 25
7, 12862, Channel_aftertouch_c, 4, 28
7, 12863, Channel_aftertouch_c, 4, 31
7, 12864, Channel_aftertouch_c, 4, 34
7, 12865, Channel_aftertouch_c, 4, 37
7, 12865, Channel_aftertouch_c, 4, 39
7, 12866, Channel_aftertouch_c, 4, 40
7, 12867, Channel_aftertouch_c, 4, 43
7, 12868, Channel_aftertouch_c, 4, 45
7, 12869, Channel_aftertouch_c, 4, 48
7, 12870, Channel_aftertouch_c, 4, 49
7, 12872, Channel_aftertouch_c, 4, 51
7, 12873, Channel_aftertouch_c, 4, 54
7, 12874, Channel_aftertouch_c, 4, 55
7, 12875, Channel_aftertouch_c, 4, 57
7, 12876, Channel_aftertouch_c, 4, 60
7, 12878, Channel_aftertouch_c, 4, 61
7, 12879, Channel_aftertouch_c, 4, 63
7, 12881, Channel_aftertouch_c, 4, 64
7, 12882, Channel_aftertouch_c, 4, 67
7, 12884, Channel_aftertouch_c, 4, 69
7, 12884, Channel_aftertouch_c, 4, 70
7, 12886, Channel_aftertouch_c, 4, 73
7, 12886, Channel_aftertouch_c, 4, 75
7, 12887, Channel_aftertouch_c, 4, 76
7, 12888, Channel_aftertouch_c, 4, 78
7, 12889, Channel_aftertouch_c, 4, 79
7, 12890, Channel_aftertouch_c, 4, 82
7, 12892, Channel_aftertouch_c, 4, 84
7, 12893, Channel_aftertouch_c, 4, 85
7, 12895, Channel_aftertouch_c, 4, 88
7, 12897, Channel_aftertouch_c, 4, 90
7, 12900, Channel_aftertouch_c, 4, 91
7, 12911, Channel_aftertouch_c, 4, 93
7, 12916, Channel_aftertouch_c, 4, 91
7, 12917, Channel_aftertouch_c, 4, 90
7, 12918, Channel_aftertouch_c, 4, 87
7, 12919, Channel_aftertouch_c, 4, 85
7, 12920, Channel_aftertouch_c, 4, 82
7, 12921, Channel_aftertouch_c, 4, 81
7, 12922, Channel_aftertouch_c, 4, 78
7, 12923, Channel_aftertouch_c, 4, 76
7, 12924, Channel_aftertouch_c, 4, 73
7, 12925, Channel_aftertouch_c, 4, 69
7, 12925, Channel_aftertouch_c, 4, 66
7, 12926, Channel_aftertouch_c, 4, 62
7, 12927, Channel_aftertouch_c, 4, 58
7, 12927, Channel_aftertouch_c, 4, 54
7, 12928, Channel_aftertouch_c, 4, 50
7, 12929, Channel_aftertouch_c, 4, 46
7, 12930, Channel_aftertouch_c, 4, 42
7, 12930, Channel_aftertouch_c, 4, 38
7, 12931, Channel_aftertouch_c, 4, 34
7, 12932, Channel_aftertouch_c, 4, 30
7, 12933, Channel_aftertouch_c, 4, 26
7, 12933, Channel_aftertouch_c, 4, 22
7, 12934, Channel_aftertouch_c, 4, 18
7, 12935, Channel_aftertouch_c, 4, 14
7, 12935, Channel_aftertouch_c, 4, 10
7, 12936, Channel_aftertouch_c, 4, 6
7, 12937, Channel_aftertouch_c, 4, 2
7, 12938, Channel_aftertouch_c, 4, 0
7, 12968, Note_on_c, 4, 55, 0
7, 12969, Note_on_c, 4, 67, 0
7, 38880, Note_on_c, 4, 67, 107
7, 38909, Note_on_c, 4, 67, 0
7, 38911, Note_on_c, 4, 67, 89
7, 38940, Note_on_c, 4, 67, 0
7, 38940, Note_on_c, 4, 67, 85
7, 38969, Note_on_c, 4, 67, 0
7, 38969, Note_on_c, 4, 67, 84
7, 38998, Note_on_c, 4, 67, 0
7, 38999, Note_on_c, 4, 67, 95
7, 39328, Note_on_c, 4, 67, 0
7, 39362, Note_on_c, 4, 55, 92
7, 39362, Note_on_c, 4, 67, 95
7, 39391, Note_on_c, 4, 67, 0
7, 39391, Note_on_c, 4, 55, 0
7, 39392, Note_on_c, 4, 67, 80
7, 39392, Note_on_c, 4, 55, 81
7, 39421, Note_on_c, 4, 55, 0
7, 39421, Note_on_c, 4, 67, 0
7, 39422, Note_on_c, 4, 67, 83
7, 39422, Note_on_c, 4, 55, 81
7, 39451, Note_on_c, 4, 55, 0
7, 39451, Note_on_c, 4, 67, 0
7, 39452, Note_on_c, 4, 67, 79
7, 39453, Note_on_c, 4, 55, 80
7, 39481, Note_on_c, 4, 67, 0
7, 39482, Note_on_c, 4, 55, 0
7, 39482, Note_on_c, 4, 67, 92
7, 39482, Note_on_c, 4, 55, 87
7, 39811, Note_on_c, 4, 55, 0
7, 39811, Note_on_c, 4, 67, 0
7, 42724, Note_on_c, 4, 62, 120
7, 42724, Note_on_c, 4, 50, 92
7, 42725, Channel_aftertouch_c, 4, 4
7, 42725, Channel_aftertouch_c, 4, 0
7, 42727, Channel_aftertouch_c, 4, 4
7, 42727, Channel_aftertouch_c, 4, 8
7, 42728, Channel_aftertouch_c, 4, 12
7, 42729, Channel_aftertouch_c, 4, 16
7, 42730, Channel_aftertouch_c, 4, 20
7, 42731, Channel_aftertouch_c, 4, 24
7, 42731, Channel_aftertouch_c, 4, 28
7, 42732, Channel_aftertouch_c, 4, 30
7, 42733, Channel_aftertouch_c, 4, 26
7, 42733, Channel_aftertouch_c, 4, 22
7, 42734, Channel_aftertouch_c, 4, 18
7, 42735, Channel_aftertouch_c, 4, 14
7, 42735, Channel_aftertouch_c, 4, 10
7, 42736, Channel_aftertouch_c, 4, 6
7, 42737, Channel_aftertouch_c, 4, 2
7, 42738, Channel_aftertouch_c, 4, 0
7, 42799, Note_on_c, 4, 50, 0
7, 42800, Note_on_c, 4, 62, 0
7, 42817, Note_on_c, 4, 50, 83
7, 42822, Note_on_c, 4, 62, 95
7, 42828, Note_on_c, 4, 50, 0
7, 42835, Note_on_c, 4, 62, 0
7, 42847, Note_on_c, 4, 65, 107
7, 42848, Note_on_c, 4, 53, 95
7, 42850, Channel_aftertouch_c, 4, 1
7, 42851, Channel_aftertouch_c, 4, 5
7, 42851, Channel_aftertouch_c, 4, 6
7, 42853, Channel_aftertouch_c, 4, 2
7, 42853, Channel_aftertouch_c, 4, 3
7, 42854, Channel_aftertouch_c, 4, 1
7, 42855, Channel_aftertouch_c, 4, 0
7, 42888, Note_on_c, 4, 53, 0
7, 42888, Note_on_c, 4, 65, 0
7, 42909, Note_on_c, 4, 67, 114
7, 42910, Note_on_c, 4, 55, 104
7, 42915, Channel_aftertouch_c, 4, 3
7, 42916, Channel_aftertouch_c, 4, 7
7, 42917, Channel_aftertouch_c, 4, 9
7, 42918, Channel_aftertouch_c, 4, 12
7, 42919, Channel_aftertouch_c, 4, 10
7, 42920, Channel_aftertouch_c, 4, 6
7, 42921, Channel_aftertouch_c, 4, 2
7, 42922, Channel_aftertouch_c, 4, 0
7, 43175, Note_on_c, 4, 55, 0
7, 43183, Note_on_c, 4, 67, 0
7, 43205, Note_on_c, 4, 62, 99
7, 43206, Note_on_c, 4, 50, 95
7, 43209, Channel_aftertouch_c, 4, 4
7, 43210, Channel_aftertouch_c, 4, 8
7, 43210, Channel_aftertouch_c, 4, 12
7, 43211, Channel_aftertouch_c, 4, 16
7, 43212, Channel_aftertouch_c, 4, 20
7, 43213, Channel_aftertouch_c, 4, 24
7, 43213, Channel_aftertouch_c, 4, 28
7, 43214, Channel_aftertouch_c, 4, 31
7, 43215, Channel_aftertouch_c, 4, 27
7, 43216, Channel_aftertouch_c, 4, 23
7, 43216, Channel_aftertouch_c, 4, 19
7, 43217, Channel_aftertouch_c, 4, 15
7, 43218, Channel_aftertouch_c, 4, 11
7, 43218, Channel_aftertouch_c, 4, 7
7, 43219, Channel_aftertouch_c, 4, 3
7, 43220, Channel_aftertouch_c, 4, 0
7, 43279, Note_on_c, 4, 50, 0
7, 43285, Note_on_c, 4, 62, 0
7, 43300, Note_on_c, 4, 50, 84
7, 43305, Note_on_c, 4, 62, 99
7, 43310, Note_on_c, 4, 50, 0
7, 43318, Note_on_c, 4, 62, 0
7, 43328, Note_on_c, 4, 65, 95
7, 43329, Note_on_c, 4, 53, 95
7, 43333, Channel_aftertouch_c, 4, 3
7, 43334, Channel_aftertouch_c, 4, 7
7, 43334, Channel_aftertouch_c, 4, 10
7, 43335, Channel_aftertouch_c, 4, 14
7, 43336, Channel_aftertouch_c, 4, 15
7, 43336, Channel_aftertouch_c, 4, 11
7, 43337, Channel_aftertouch_c, 4, 7
7, 43338, Channel_aftertouch_c, 4, 3
7, 43338, Channel_aftertouch_c, 4, 0
7, 43366, Note_on_c, 4, 65, 0
7, 43368, Note_on_c, 4, 53, 0
7, 43389, Note_on_c, 4, 67, 107
7, 43390, Note_on_c, 4, 55, 99
7, 43654, Note_on_c, 4, 55, 0
7, 43661, Note_on_c, 4, 67, 0
7, 43678, Note_on_c, 4, 62, 104
7, 43679, Channel_aftertouch_c, 4, 1
7, 43680, Note_on_c, 4, 50, 104
7, 43680, Channel_aftertouch_c, 4, 0
7, 43681, Note_on_c, 4, 48, 85
7, 43682, Channel_aftertouch_c, 4, 4
7, 43682, Channel_aftertouch_c, 4, 8
7, 43683, Note_on_c, 4, 48, 0
7, 43683, Channel_aftertouch_c, 4, 12
7, 43683, Channel_aftertouch_c, 4, 16
7, 43684, Channel_aftertouch_c, 4, 20
7, 43685, Channel_aftertouch_c, 4, 24
7, 43686, Channel_aftertouch_c, 4, 28
7, 43686, Channel_aftertouch_c, 4, 32
7, 43687, Channel_aftertouch_c, 4, 36
7, 43687, Channel_aftertouch_c, 4, 32
7, 43689, Channel_aftertouch_c, 4, 28
7, 43690, Channel_aftertouch_c, 4, 24
7, 43690, Channel_aftertouch_c, 4, 20
7, 43691, Channel_aftertouch_c, 4, 16
7, 43692, Channel_aftertouch_c, 4, 12
7, 43692, Channel_aftertouch_c, 4, 8
7, 43693, Channel_aftertouch_c, 4, 4
7, 43694, Channel_aftertouch_c, 4, 0
7, 43753, Note_on_c, 4, 50, 0
7, 43755, Note_on_c, 4, 62, 0
7, 43772, Note_on_c, 4, 50, 87
7, 43776, Note_on_c, 4, 62, 89
7, 43783, Note_on_c, 4, 50, 0
7, 43787, Note_on_c, 4, 62, 0
7, 43800, Note_on_c, 4, 65, 107
7, 43803, Note_on_c, 4, 53, 95
7, 43806, Channel_aftertouch_c, 4, 4
7, 43807, Channel_aftertouch_c, 4, 8
7, 43808, Channel_aftertouch_c, 4, 9
7, 43809, Channel_aftertouch_c, 4, 5
7, 43809, Channel_aftertouch_c, 4, 1
7, 43810, Channel_aftertouch_c, 4, 0
7, 43811, Channel_aftertouch_c, 4, 4
7, 43812, Channel_aftertouch_c, 4, 8
7, 43812, Channel_aftertouch_c, 4, 4
7, 43813, Channel_aftertouch_c, 4, 0
7, 43847, Note_on_c, 4, 53, 0
7, 43848, Note_on_c, 4, 65, 0
7, 43865, Note_on_c, 4, 67, 114
7, 43866, Note_on_c, 4, 55, 107
7, 43870, Channel_aftertouch_c, 4, 4
7, 43871, Channel_aftertouch_c, 4, 8
7, 43872, Channel_aftertouch_c, 4, 12
7, 43873, Channel_aftertouch_c, 4, 16
7, 43873, Channel_aftertouch_c, 4, 20
7, 43874, Channel_aftertouch_c, 4, 18
7, 43875, Channel_aftertouch_c, 4, 14
7, 43876, Channel_aftertouch_c, 4, 10
7, 43876, Channel_aftertouch_c, 4, 6
7, 43877, Channel_aftertouch_c, 4, 2
7, 43878, Channel_aftertouch_c, 4, 0
7, 44125, Note_on_c, 4, 55, 0
7, 44135, Note_on_c, 4, 67, 0
7, 44158, Note_on_c, 4, 62, 107
7, 44159, Note_on_c, 4, 50, 95
7, 44161, Channel_aftertouch_c, 4, 4
7, 44161, Channel_aftertouch_c, 4, 8
7, 44162, Channel_aftertouch_c, 4, 12
7, 44163, Channel_aftertouch_c, 4, 16
7, 44164, Channel_aftertouch_c, 4, 20
7, 44165, Channel_aftertouch_c, 4, 24
7, 44165, Channel_aftertouch_c, 4, 28
7, 44166, Channel_aftertouch_c, 4, 32
7, 44167, Channel_aftertouch_c, 4, 31
7, 44167, Channel_aftertouch_c, 4, 27
7, 44168, Channel_aftertouch_c, 4, 23
7, 44169, Channel_aftertouch_c, 4, 19
7, 44169, Channel_aftertouch_c, 4, 15
7, 44170, Channel_aftertouch_c, 4, 11
7, 44171, Channel_aftertouch_c, 4, 7
7, 44172, Channel_aftertouch_c, 4, 3
7, 44172, Channel_aftertouch_c, 4, 0
7, 44221, Note_on_c, 4, 50, 0
7, 44226, Note_on_c, 4, 62, 0
7, 44250, Note_on_c, 4, 50, 84
7, 44254, Note_on_c, 4, 62, 92
7, 44261, Note_on_c, 4, 50, 0
7, 44265, Note_on_c, 4, 62, 0
7, 44281, Note_on_c, 4, 65, 94
7, 44283, Note_on_c, 4, 64, 79
7, 44284, Note_on_c, 4, 53, 99
7, 44288, Note_on_c, 4, 64, 0
7, 44324, Note_on_c, 4, 53, 0
7, 44324, Note_on_c, 4, 65, 0
7, 44349, Note_on_c, 4, 67, 107
7, 44350, Note_on_c, 4, 55, 114
7, 44351, Channel_aftertouch_c, 4, 3
7, 44352, Channel_aftertouch_c, 4, 0
7, 44353, Channel_aftertouch_c, 4, 1
7, 44354, Channel_aftertouch_c, 4, 5
7, 44355, Channel_aftertouch_c, 4, 9
7, 44355, Channel_aftertouch_c, 4, 13
7, 44356, Channel_aftertouch_c, 4, 12
7, 44357, Channel_aftertouch_c, 4, 13
7, 44359, Channel_aftertouch_c, 4, 9
7, 44359, Channel_aftertouch_c, 4, 5
7, 44360, Channel_aftertouch_c, 4, 1
7, 44361, Channel_aftertouch_c, 4, 0
7, 44702, Note_on_c, 4, 67, 0
7, 44713, Note_on_c, 4, 55, 0
7, 44713, End_track
8, 0, Start_track
8, 0, MIDI_port, 2
8, 0, Title_t, "Halo"
8, 0, Program_c, 5, 94
8, 0, Control_c, 5, 7, 60
8, 0, Control_c, 5, 10, 64
8, 120, Control_c, 5, 11, 127
8, 120, Control_c, 5, 91, 90
8, 120, Control_c, 5, 93, 40
8, 4317, Note_on_c, 5, 62, 41
8, 4318, Note_on_c, 5, 69, 43
8, 6929, Note_on_c, 5, 69, 0
8, 6930, Note_on_c, 5, 62, 0
8, 6965, Note_on_c, 5, 67, 43
8, 6965, Note_on_c, 5, 60, 43
8, 7205, Note_on_c, 5, 60, 0
8, 7205, Note_on_c, 5, 67, 0
8, 8152, Note_on_c, 5, 69, 58
8, 8153, Note_on_c, 5, 62, 58
8, 10776, Note_on_c, 5, 62, 0
8, 10794, Note_on_c, 5, 67, 58
8, 10797, Note_on_c, 5, 60, 42
8, 10798, Note_on_c, 5, 69, 0
8, 11037, Note_on_c, 5, 60, 0
8, 11037, Note_on_c, 5, 67, 0
8, 36000, Note_on_c, 5, 62, 53
8, 36001, Note_on_c, 5, 69, 58
8, 38614, Note_on_c, 5, 62, 0
8, 38620, Note_on_c, 5, 69, 0
8, 38636, Note_on_c, 5, 60, 53
8, 38637, Note_on_c, 5, 64, 51
8, 38874, Note_on_c, 5, 64, 0
8, 38877, Note_on_c, 5, 60, 0
8, 39833, Note_on_c, 5, 62, 39
8, 39834, Note_on_c, 5, 69, 47
8, 42447, Note_on_c, 5, 62, 0
8, 42471, Note_on_c, 5, 67, 45
8, 42474, Note_on_c, 5, 60, 43
8, 42475, Note_on_c, 5, 69, 0
8, 42729, Note_on_c, 5, 60, 0
8, 42729, Note_on_c, 5, 67, 0
8, 44641, Note_on_c, 5, 62, 45
8, 44642, Note_on_c, 5, 69, 45
8, 48471, Note_on_c, 5, 69, 0
8, 49451, Note_on_c, 5, 62, 0
8, 49451, End_track
9, 0, Start_track
9, 0, MIDI_port, 2
9, 0, Title_t, "Glockenspiel"
9, 0, Program_c, 6, 9
9, 0, Control_c, 6, 7, 100
9, 0, Control_c, 6, 10, 64
9, 120, Control_c, 6, 11, 127
9, 120, Control_c, 6, 91, 90
9, 120, Control_c, 6, 93, 40
9, 2460, Note_on_c, 6, 89, 45
9, 2491, Note_on_c, 6, 88, 41
9, 2493, Note_on_c, 6, 89, 0
9, 2524, Note_on_c, 6, 89, 56
9, 2529, Note_on_c, 6, 88, 0
9, 2618, Note_on_c, 6, 89, 0
9, 2640, Note_on_c, 6, 89, 46
9, 2670, Note_on_c, 6, 88, 38
9, 2671, Note_on_c, 6, 89, 0
9, 2702, Note_on_c, 6, 89, 54
9, 2703, Note_on_c, 6, 88, 0
9, 2893, Note_on_c, 6, 89, 0
9, 2946, Note_on_c, 6, 89, 42
9, 2975, Note_on_c, 6, 89, 0
9, 2975, Note_on_c, 6, 88, 37
9, 3004, Note_on_c, 6, 88, 0
9, 3005, Note_on_c, 6, 89, 56
9, 3099, Note_on_c, 6, 89, 0
9, 3120, Note_on_c, 6, 89, 43
9, 3151, Note_on_c, 6, 88, 47
9, 3152, Note_on_c, 6, 89, 0
9, 3185, Note_on_c, 6, 88, 0
9, 3185, Note_on_c, 6, 89, 58
9, 3378, Note_on_c, 6, 89, 0
9, 3424, Note_on_c, 6, 89, 47
9, 3454, Note_on_c, 6, 89, 0
9, 3455, Note_on_c, 6, 88, 20
9, 3481, Note_on_c, 6, 88, 0
9, 3483, Note_on_c, 6, 89, 58
9, 3585, Note_on_c, 6, 89, 0
9, 3600, Note_on_c, 6, 89, 46
9, 3630, Note_on_c, 6, 89, 0
9, 3631, Note_on_c, 6, 88, 47
9, 3664, Note_on_c, 6, 89, 52
9, 3665, Note_on_c, 6, 88, 0
9, 3871, Note_on_c, 6, 89, 0
9, 3904, Note_on_c, 6, 89, 41
9, 3933, Note_on_c, 6, 88, 38
9, 3935, Note_on_c, 6, 89, 0
9, 3958, Note_on_c, 6, 88, 0
9, 3962, Note_on_c, 6, 89, 51
9, 4055, Note_on_c, 6, 89, 0
9, 4079, Note_on_c, 6, 89, 43
9, 4112, Note_on_c, 6, 89, 0
9, 4112, Note_on_c, 6, 88, 34
9, 4139, Note_on_c, 6, 89, 54
9, 4140, Note_on_c, 6, 88, 0
9, 4265, Note_on_c, 6, 89, 0
9, 4323, Note_on_c, 6, 88, 59
9, 4560, Note_on_c, 6, 88, 0
9, 4565, Note_on_c, 6, 86, 58
9, 4932, Note_on_c, 6, 86, 0
9, 5281, Note_on_c, 6, 88, 59
9, 5460, Note_on_c, 6, 88, 0
9, 5460, Note_on_c, 6, 89, 50
9, 5488, Note_on_c, 6, 88, 51
9, 5489, Note_on_c, 6, 89, 0
9, 5520, Note_on_c, 6, 86, 57
9, 5522, Note_on_c, 6, 88, 0
9, 5844, Note_on_c, 6, 86, 0
9, 6237, Note_on_c, 6, 88, 58
9, 6480, Note_on_c, 6, 88, 0
9, 6481, Note_on_c, 6, 89, 58
9, 6719, Note_on_c, 6, 88, 58
9, 6725, Note_on_c, 6, 89, 0
9, 6962, Note_on_c, 6, 88, 0
9, 6963, Note_on_c, 6, 83, 63
9, 7151, Note_on_c, 6, 83, 0
9, 8154, Note_on_c, 6, 88, 58
9, 8400, Note_on_c, 6, 88, 0
9, 8400, Note_on_c, 6, 86, 52
9, 8697, Note_on_c, 6, 86, 0
9, 9120, Note_on_c, 6, 88, 57
9, 9302, Note_on_c, 6, 89, 54
9, 9303, Note_on_c, 6, 88, 0
9, 9331, Note_on_c, 6, 88, 46
9, 9332, Note_on_c, 6, 89, 0
9, 9362, Note_on_c, 6, 86, 58
9, 9364, Note_on_c, 6, 88, 0
9, 9747, Note_on_c, 6, 86, 0
9, 10079, Note_on_c, 6, 88, 60
9, 10317, Note_on_c, 6, 88, 0
9, 10319, Note_on_c, 6, 89, 60
9, 10557, Note_on_c, 6, 88, 58
9, 10561, Note_on_c, 6, 89, 0
9, 10800, Note_on_c, 6, 84, 64
9, 10802, Note_on_c, 6, 88, 0
9, 11039, Note_on_c, 6, 84, 0
9, 11042, Note_on_c, 6, 74, 94
9, 11109, Note_on_c, 6, 74, 0
9, 11140, Note_on_c, 6, 74, 74
9, 11158, Note_on_c, 6, 74, 0
9, 11161, Note_on_c, 6, 77, 72
9, 11162, Note_on_c, 6, 79, 61
9, 11174, Note_on_c, 6, 79, 0
9, 11198, Note_on_c, 6, 77, 0
9, 11224, Note_on_c, 6, 79, 100
9, 11474, Note_on_c, 6, 79, 0
9, 11520, Note_on_c, 6, 74, 94
9, 11586, Note_on_c, 6, 74, 0
9, 11616, Note_on_c, 6, 74, 69
9, 11640, Note_on_c, 6, 74, 0
9, 11641, Note_on_c, 6, 77, 79
9, 11701, Note_on_c, 6, 77, 0
9, 11703, Note_on_c, 6, 79, 84
9, 11972, Note_on_c, 6, 79, 0
9, 12003, Note_on_c, 6, 74, 100
9, 12068, Note_on_c, 6, 74, 0
9, 12094, Note_on_c, 6, 74, 74
9, 12116, Note_on_c, 6, 74, 0
9, 12120, Note_on_c, 6, 77, 79
9, 12174, Note_on_c, 6, 77, 0
9, 12180, Note_on_c, 6, 79, 87
9, 12478, Note_on_c, 6, 79, 0
9, 12482, Note_on_c, 6, 74, 87
9, 12549, Note_on_c, 6, 74, 0
9, 12577, Note_on_c, 6, 74, 69
9, 12600, Note_on_c, 6, 74, 0
9, 12603, Note_on_c, 6, 77, 87
9, 12647, Note_on_c, 6, 77, 0
9, 12658, Note_on_c, 6, 79, 94
9, 12883, Note_on_c, 6, 79, 0
9, 20708, Note_on_c, 6, 89, 53
9, 20735, Note_on_c, 6, 88, 51
9, 20740, Note_on_c, 6, 89, 0
9, 20774, Note_on_c, 6, 89, 54
9, 20780, Note_on_c, 6, 88, 0
9, 20865, Note_on_c, 6, 89, 0
9, 20890, Note_on_c, 6, 89, 46
9, 20919, Note_on_c, 6, 89, 0
9, 20920, Note_on_c, 6, 88, 42
9, 20949, Note_on_c, 6, 89, 52
9, 20951, Note_on_c, 6, 88, 0
9, 21125, Note_on_c, 6, 89, 0
9, 21185, Note_on_c, 6, 89, 42
9, 21216, Note_on_c, 6, 88, 24
9, 21217, Note_on_c, 6, 89, 0
9, 21245, Note_on_c, 6, 89, 53
9, 21246, Note_on_c, 6, 88, 0
9, 21338, Note_on_c, 6, 89, 0
9, 21366, Note_on_c, 6, 89, 49
9, 21395, Note_on_c, 6, 88, 45
9, 21397, Note_on_c, 6, 89, 0
9, 21423, Note_on_c, 6, 89, 58
9, 21425, Note_on_c, 6, 88, 0
9, 21611, Note_on_c, 6, 89, 0
9, 21661, Note_on_c, 6, 89, 46
9, 21689, Note_on_c, 6, 88, 45
9, 21690, Note_on_c, 6, 89, 0
9, 21719, Note_on_c, 6, 88, 0
9, 21720, Note_on_c, 6, 89, 55
9, 21815, Note_on_c, 6, 89, 0
9, 21841, Note_on_c, 6, 89, 49
9, 21872, Note_on_c, 6, 88, 50
9, 21873, Note_on_c, 6, 89, 0
9, 21905, Note_on_c, 6, 89, 50
9, 21907, Note_on_c, 6, 88, 0
9, 22075, Note_on_c, 6, 89, 0
9, 22138, Note_on_c, 6, 89, 45
9, 22166, Note_on_c, 6, 88, 42
9, 22167, Note_on_c, 6, 89, 0
9, 22198, Note_on_c, 6, 89, 54
9, 22199, Note_on_c, 6, 88, 0
9, 22296, Note_on_c, 6, 89, 0
9, 22323, Note_on_c, 6, 89, 49
9, 22357, Note_on_c, 6, 89, 0
9, 22357, Note_on_c, 6, 88, 43
9, 22385, Note_on_c, 6, 89, 55
9, 22387, Note_on_c, 6, 88, 0
9, 22560, Note_on_c, 6, 89, 0
9, 22629, Note_on_c, 6, 89, 50
9, 22656, Note_on_c, 6, 88, 37
9, 22660, Note_on_c, 6, 89, 0
9, 22688, Note_on_c, 6, 89, 56
9, 22691, Note_on_c, 6, 88, 0
9, 22789, Note_on_c, 6, 89, 0
9, 22811, Note_on_c, 6, 89, 51
9, 22841, Note_on_c, 6, 88, 47
9, 22844, Note_on_c, 6, 89, 0
9, 22867, Note_on_c, 6, 89, 52
9, 22868, Note_on_c, 6, 88, 0
9, 23056, Note_on_c, 6, 89, 0
9, 23099, Note_on_c, 6, 89, 46
9, 23128, Note_on_c, 6, 88, 43
9, 23131, Note_on_c, 6, 89, 0
9, 23162, Note_on_c, 6, 89, 56
9, 23163, Note_on_c, 6, 88, 0
9, 23268, Note_on_c, 6, 89, 0
9, 23289, Note_on_c, 6, 89, 50
9, 23317, Note_on_c, 6, 88, 48
9, 23319, Note_on_c, 6, 89, 0
9, 23340, Note_on_c, 6, 88, 0
9, 23341, Note_on_c, 6, 89, 53
9, 23530, Note_on_c, 6, 89, 0
9, 23589, Note_on_c, 6, 89, 46
9, 23621, Note_on_c, 6, 88, 48
9, 23623, Note_on_c, 6, 89, 0
9, 23645, Note_on_c, 6, 88, 0
9, 23645, Note_on_c, 6, 89, 53
9, 23762, Note_on_c, 6, 89, 0
9, 23820, Note_on_c, 6, 89, 50
9, 23849, Note_on_c, 6, 88, 33
9, 23851, Note_on_c, 6, 89, 0
9, 23879, Note_on_c, 6, 89, 54
9, 23881, Note_on_c, 6, 88, 0
9, 24002, Note_on_c, 6, 89, 0
9, 24062, Note_on_c, 6, 89, 48
9, 24092, Note_on_c, 6, 88, 52
9, 24093, Note_on_c, 6, 89, 0
9, 24117, Note_on_c, 6, 88, 0
9, 24121, Note_on_c, 6, 89, 58
9, 24218, Note_on_c, 6, 89, 0
9, 24248, Note_on_c, 6, 89, 51
9, 24265, Note_on_c, 6, 89, 0
9, 24282, Note_on_c, 6, 89, 51
9, 24305, Note_on_c, 6, 89, 0
9, 24307, Note_on_c, 6, 88, 50
9, 24329, Note_on_c, 6, 88, 0
9, 24340, Note_on_c, 6, 89, 57
9, 24390, Note_on_c, 6, 89, 0
9, 24401, Note_on_c, 6, 88, 48
9, 24427, Note_on_c, 6, 88, 0
9, 24429, Note_on_c, 6, 86, 57
9, 24518, Note_on_c, 6, 86, 0
9, 24550, Note_on_c, 6, 89, 46
9, 24580, Note_on_c, 6, 88, 33
9, 24583, Note_on_c, 6, 89, 0
9, 24610, Note_on_c, 6, 88, 0
9, 24612, Note_on_c, 6, 89, 59
9, 24702, Note_on_c, 6, 89, 0
9, 24729, Note_on_c, 6, 89, 52
9, 24759, Note_on_c, 6, 88, 50
9, 24760, Note_on_c, 6, 89, 0
9, 24782, Note_on_c, 6, 88, 0
9, 24784, Note_on_c, 6, 89, 58
9, 24960, Note_on_c, 6, 89, 0
9, 25024, Note_on_c, 6, 89, 52
9, 25049, Note_on_c, 6, 88, 47
9, 25052, Note_on_c, 6, 89, 0
9, 25082, Note_on_c, 6, 89, 59
9, 25083, Note_on_c, 6, 88, 0
9, 25179, Note_on_c, 6, 89, 0
9, 25205, Note_on_c, 6, 89, 52
9, 25235, Note_on_c, 6, 88, 46
9, 25240, Note_on_c, 6, 89, 0
9, 25262, Note_on_c, 6, 89, 55
9, 25265, Note_on_c, 6, 88, 0
9, 25438, Note_on_c, 6, 89, 0
9, 25503, Note_on_c, 6, 89, 51
9, 25534, Note_on_c, 6, 88, 51
9, 25536, Note_on_c, 6, 89, 0
9, 25557, Note_on_c, 6, 88, 0
9, 25558, Note_on_c, 6, 89, 53
9, 25664, Note_on_c, 6, 89, 0
9, 25680, Note_on_c, 6, 89, 47
9, 25713, Note_on_c, 6, 88, 49
9, 25719, Note_on_c, 6, 89, 0
9, 25743, Note_on_c, 6, 89, 57
9, 25744, Note_on_c, 6, 88, 0
9, 25927, Note_on_c, 6, 89, 0
9, 25979, Note_on_c, 6, 89, 47
9, 26006, Note_on_c, 6, 88, 35
9, 26013, Note_on_c, 6, 89, 0
9, 26035, Note_on_c, 6, 88, 0
9, 26038, Note_on_c, 6, 89, 53
9, 26122, Note_on_c, 6, 89, 0
9, 26167, Note_on_c, 6, 88, 53
9, 26196, Note_on_c, 6, 89, 51
9, 26202, Note_on_c, 6, 88, 0
9, 26227, Note_on_c, 6, 88, 45
9, 26228, Note_on_c, 6, 89, 0
9, 26253, Note_on_c, 6, 88, 0
9, 26256, Note_on_c, 6, 86, 46
9, 26316, Note_on_c, 6, 88, 56
9, 26318, Note_on_c, 6, 86, 0
9, 26343, Note_on_c, 6, 89, 54
9, 26347, Note_on_c, 6, 88, 0
9, 26376, Note_on_c, 6, 89, 0
9, 26378, Note_on_c, 6, 86, 53
9, 26459, Note_on_c, 6, 86, 0
9, 26469, Note_on_c, 6, 89, 52
9, 26498, Note_on_c, 6, 88, 42
9, 26502, Note_on_c, 6, 89, 0
9, 26528, Note_on_c, 6, 89, 53
9, 26529, Note_on_c, 6, 88, 0
9, 26626, Note_on_c, 6, 89, 0
9, 26648, Note_on_c, 6, 89, 52
9, 26678, Note_on_c, 6, 88, 46
9, 26679, Note_on_c, 6, 89, 0
9, 26704, Note_on_c, 6, 88, 0
9, 26705, Note_on_c, 6, 89, 53
9, 26887, Note_on_c, 6, 89, 0
9, 26941, Note_on_c, 6, 89, 50
9, 26971, Note_on_c, 6, 88, 43
9, 26972, Note_on_c, 6, 89, 0
9, 27001, Note_on_c, 6, 89, 58
9, 27003, Note_on_c, 6, 88, 0
9, 27087, Note_on_c, 6, 89, 0
9, 27122, Note_on_c, 6, 89, 47
9, 27151, Note_on_c, 6, 88, 33
9, 27154, Note_on_c, 6, 89, 0
9, 27183, Note_on_c, 6, 89, 57
9, 27185, Note_on_c, 6, 88, 0
9, 27354, Note_on_c, 6, 89, 0
9, 27422, Note_on_c, 6, 89, 49
9, 27453, Note_on_c, 6, 88, 18
9, 27455, Note_on_c, 6, 89, 0
9, 27482, Note_on_c, 6, 88, 0
9, 27484, Note_on_c, 6, 89, 53
9, 27579, Note_on_c, 6, 89, 0
9, 27603, Note_on_c, 6, 89, 51
9, 27632, Note_on_c, 6, 89, 0
9, 27633, Note_on_c, 6, 88, 33
9, 27664, Note_on_c, 6, 89, 53
9, 27665, Note_on_c, 6, 88, 0
9, 27841, Note_on_c, 6, 89, 0
9, 27901, Note_on_c, 6, 89, 50
9, 27930, Note_on_c, 6, 89, 0
9, 27931, Note_on_c, 6, 88, 46
9, 27955, Note_on_c, 6, 88, 0
9, 27959, Note_on_c, 6, 89, 52
9, 28063, Note_on_c, 6, 89, 0
9, 28086, Note_on_c, 6, 89, 47
9, 28117, Note_on_c, 6, 89, 0
9, 28118, Note_on_c, 6, 88, 48
9, 28144, Note_on_c, 6, 88, 0
9, 28147, Note_on_c, 6, 89, 51
9, 28318, Note_on_c, 6, 89, 0
9, 28388, Note_on_c, 6, 89, 46
9, 28418, Note_on_c, 6, 89, 0
9, 28418, Note_on_c, 6, 88, 46
9, 28452, Note_on_c, 6, 88, 0
9, 28452, Note_on_c, 6, 89, 55
9, 28549, Note_on_c, 6, 89, 0
9, 28569, Note_on_c, 6, 89, 52
9, 28600, Note_on_c, 6, 88, 51
9, 28603, Note_on_c, 6, 89, 0
9, 28629, Note_on_c, 6, 88, 0
9, 28631, Note_on_c, 6, 89, 56
9, 28818, Note_on_c, 6, 89, 0
9, 28865, Note_on_c, 6, 89, 52
9, 28892, Note_on_c, 6, 89, 0
9, 28892, Note_on_c, 6, 88, 41
9, 28921, Note_on_c, 6, 89, 53
9, 28922, Note_on_c, 6, 88, 0
9, 29013, Note_on_c, 6, 89, 0
9, 29043, Note_on_c, 6, 89, 48
9, 29077, Note_on_c, 6, 88, 46
9, 29079, Note_on_c, 6, 89, 0
9, 29105, Note_on_c, 6, 89, 54
9, 29107, Note_on_c, 6, 88, 0
9, 29286, Note_on_c, 6, 89, 0
9, 29341, Note_on_c, 6, 89, 52
9, 29370, Note_on_c, 6, 88, 52
9, 29373, Note_on_c, 6, 89, 0
9, 29401, Note_on_c, 6, 89, 58
9, 29404, Note_on_c, 6, 88, 0
9, 29497, Note_on_c, 6, 89, 0
9, 29519, Note_on_c, 6, 89, 51
9, 29553, Note_on_c, 6, 88, 48
9, 29554, Note_on_c, 6, 89, 0
9, 29583, Note_on_c, 6, 89, 55
9, 29585, Note_on_c, 6, 88, 0
9, 29764, Note_on_c, 6, 89, 0
9, 29822, Note_on_c, 6, 89, 51
9, 29848, Note_on_c, 6, 88, 42
9, 29849, Note_on_c, 6, 89, 0
9, 29878, Note_on_c, 6, 89, 60
9, 29879, Note_on_c, 6, 88, 0
9, 29979, Note_on_c, 6, 89, 0
9, 30005, Note_on_c, 6, 89, 51
9, 30036, Note_on_c, 6, 88, 42
9, 30041, Note_on_c, 6, 89, 0
9, 30069, Note_on_c, 6, 89, 58
9, 30070, Note_on_c, 6, 88, 0
9, 30249, Note_on_c, 6, 89, 0
9, 30302, Note_on_c, 6, 89, 50
9, 30332, Note_on_c, 6, 88, 48
9, 30334, Note_on_c, 6, 89, 0
9, 30362, Note_on_c, 6, 88, 0
9, 30363, Note_on_c, 6, 89, 60
9, 30453, Note_on_c, 6, 89, 0
9, 30486, Note_on_c, 6, 89, 48
9, 30518, Note_on_c, 6, 88, 48
9, 30519, Note_on_c, 6, 89, 0
9, 30545, Note_on_c, 6, 89, 50
9, 30546, Note_on_c, 6, 88, 0
9, 30721, Note_on_c, 6, 89, 0
9, 30783, Note_on_c, 6, 89, 47
9, 30812, Note_on_c, 6, 88, 50
9, 30814, Note_on_c, 6, 89, 0
9, 30841, Note_on_c, 6, 88, 0
9, 30842, Note_on_c, 6, 89, 54
9, 30940, Note_on_c, 6, 89, 0
9, 30964, Note_on_c, 6, 89, 53
9, 30994, Note_on_c, 6, 88, 49
9, 30995, Note_on_c, 6, 89, 0
9, 31021, Note_on_c, 6, 89, 56
9, 31024, Note_on_c, 6, 88, 0
9, 31205, Note_on_c, 6, 89, 0
9, 31262, Note_on_c, 6, 89, 50
9, 31291, Note_on_c, 6, 88, 47
9, 31292, Note_on_c, 6, 89, 0
9, 31319, Note_on_c, 6, 88, 0
9, 31320, Note_on_c, 6, 89, 59
9, 31445, Note_on_c, 6, 89, 0
9, 31740, Note_on_c, 6, 89, 53
9, 31769, Note_on_c, 6, 89, 0
9, 31769, Note_on_c, 6, 88, 54
9, 31791, Note_on_c, 6, 88, 0
9, 31797, Note_on_c, 6, 89, 60
9, 31922, Note_on_c, 6, 89, 0
9, 31954, Note_on_c, 6, 86, 59
9, 32037, Note_on_c, 6, 86, 0
9, 32046, Note_on_c, 6, 81, 60
9, 32177, Note_on_c, 6, 81, 0
9, 32230, Note_on_c, 6, 89, 53
9, 32257, Note_on_c, 6, 89, 0
9, 32260, Note_on_c, 6, 88, 55
9, 32283, Note_on_c, 6, 88, 0
9, 32290, Note_on_c, 6, 89, 60
9, 32379, Note_on_c, 6, 89, 0
9, 32408, Note_on_c, 6, 89, 58
9, 32434, Note_on_c, 6, 89, 0
9, 32438, Note_on_c, 6, 88, 50
9, 32464, Note_on_c, 6, 89, 51
9, 32465, Note_on_c, 6, 88, 0
9, 32650, Note_on_c, 6, 89, 0
9, 32702, Note_on_c, 6, 89, 55
9, 32731, Note_on_c, 6, 88, 49
9, 32739, Note_on_c, 6, 89, 0
9, 32765, Note_on_c, 6, 89, 59
9, 32766, Note_on_c, 6, 88, 0
9, 32863, Note_on_c, 6, 89, 0
9, 32886, Note_on_c, 6, 89, 56
9, 32915, Note_on_c, 6, 89, 0
9, 32915, Note_on_c, 6, 88, 51
9, 32945, Note_on_c, 6, 89, 59
9, 32948, Note_on_c, 6, 88, 0
9, 33138, Note_on_c, 6, 89, 0
9, 33180, Note_on_c, 6, 89, 54
9, 33211, Note_on_c, 6, 88, 55
9, 33212, Note_on_c, 6, 89, 0
9, 33242, Note_on_c, 6, 89, 60
9, 33245, Note_on_c, 6, 88, 0
9, 33350, Note_on_c, 6, 89, 0
9, 33364, Note_on_c, 6, 89, 59
9, 33392, Note_on_c, 6, 88, 51
9, 33395, Note_on_c, 6, 89, 0
9, 33425, Note_on_c, 6, 89, 59
9, 33426, Note_on_c, 6, 88, 0
9, 33607, Note_on_c, 6, 89, 0
9, 33658, Note_on_c, 6, 89, 57
9, 33687, Note_on_c, 6, 88, 55
9, 33692, Note_on_c, 6, 89, 0
9, 33718, Note_on_c, 6, 88, 0
9, 33722, Note_on_c, 6, 89, 54
9, 33814, Note_on_c, 6, 89, 0
9, 33846, Note_on_c, 6, 89, 54
9, 33876, Note_on_c, 6, 88, 54
9, 33877, Note_on_c, 6, 89, 0
9, 33904, Note_on_c, 6, 88, 0
9, 33906, Note_on_c, 6, 89, 53
9, 34022, Note_on_c, 6, 89, 0
9, 34028, Note_on_c, 6, 81, 56
9, 34089, Note_on_c, 6, 86, 58
9, 34091, Note_on_c, 6, 81, 0
9, 34150, Note_on_c, 6, 89, 47
9, 34153, Note_on_c, 6, 86, 0
9, 34179, Note_on_c, 6, 88, 53
9, 34182, Note_on_c, 6, 89, 0
9, 34210, Note_on_c, 6, 88, 0
9, 34212, Note_on_c, 6, 89, 57
9, 34279, Note_on_c, 6, 89, 0
9, 34328, Note_on_c, 6, 89, 49
9, 34358, Note_on_c, 6, 88, 57
9, 34362, Note_on_c, 6, 89, 0
9, 34386, Note_on_c, 6, 88, 0
9, 34390, Note_on_c, 6, 89, 56
9, 34507, Note_on_c, 6, 89, 0
9, 34507, Note_on_c, 6, 81, 53
9, 34563, Note_on_c, 6, 81, 0
9, 34566, Note_on_c, 6, 86, 50
9, 34627, Note_on_c, 6, 89, 53
9, 34631, Note_on_c, 6, 86, 0
9, 34657, Note_on_c, 6, 88, 54
9, 34663, Note_on_c, 6, 89, 0
9, 34687, Note_on_c, 6, 88, 0
9, 34689, Note_on_c, 6, 89, 58
9, 34777, Note_on_c, 6, 89, 0
9, 34810, Note_on_c, 6, 89, 56
9, 34839, Note_on_c, 6, 88, 53
9, 34843, Note_on_c, 6, 89, 0
9, 34865, Note_on_c, 6, 88, 0
9, 34870, Note_on_c, 6, 89, 53
9, 34984, Note_on_c, 6, 89, 0
9, 34987, Note_on_c, 6, 81, 53
9, 35039, Note_on_c, 6, 81, 0
9, 35041, Note_on_c, 6, 86, 59
9, 35106, Note_on_c, 6, 89, 49
9, 35108, Note_on_c, 6, 86, 0
9, 35138, Note_on_c, 6, 88, 57
9, 35142, Note_on_c, 6, 89, 0
9, 35164, Note_on_c, 6, 88, 0
9, 35168, Note_on_c, 6, 89, 54
9, 35244, Note_on_c, 6, 89, 0
9, 35280, Note_on_c, 6, 89, 56
9, 35312, Note_on_c, 6, 88, 49
9, 35314, Note_on_c, 6, 89, 0
9, 35340, Note_on_c, 6, 88, 0
9, 35343, Note_on_c, 6, 89, 58
9, 35461, Note_on_c, 6, 89, 0
9, 35462, Note_on_c, 6, 81, 55
9, 35514, Note_on_c, 6, 81, 0
9, 35518, Note_on_c, 6, 86, 52
9, 35582, Note_on_c, 6, 89, 50
9, 35584, Note_on_c, 6, 86, 0
9, 35613, Note_on_c, 6, 88, 48
9, 35617, Note_on_c, 6, 89, 0
9, 35642, Note_on_c, 6, 88, 0
9, 35644, Note_on_c, 6, 89, 54
9, 35740, Note_on_c, 6, 89, 0
9, 35765, Note_on_c, 6, 89, 52
9, 35798, Note_on_c, 6, 88, 54
9, 35801, Note_on_c, 6, 89, 0
9, 35825, Note_on_c, 6, 88, 0
9, 35830, Note_on_c, 6, 89, 58
9, 35938, Note_on_c, 6, 89, 0
9, 35943, Note_on_c, 6, 81, 53
9, 36003, Note_on_c, 6, 81, 0
9, 36010, Note_on_c, 6, 89, 69
9, 36245, Note_on_c, 6, 89, 0
9, 36251, Note_on_c, 6, 88, 59
9, 36659, Note_on_c, 6, 88, 0
9, 36963, Note_on_c, 6, 88, 60
9, 37142, Note_on_c, 6, 88, 0
9, 37143, Note_on_c, 6, 89, 53
9, 37171, Note_on_c, 6, 88, 52
9, 37176, Note_on_c, 6, 89, 0
9, 37202, Note_on_c, 6, 86, 59
9, 37203, Note_on_c, 6, 88, 0
9, 37637, Note_on_c, 6, 86, 0
9, 37918, Note_on_c, 6, 88, 58
9, 38153, Note_on_c, 6, 88, 0
9, 38155, Note_on_c, 6, 89, 58
9, 38398, Note_on_c, 6, 88, 59
9, 38400, Note_on_c, 6, 89, 0
9, 38638, Note_on_c, 6, 88, 0
9, 38638, Note_on_c, 6, 84, 64
9, 38890, Note_on_c, 6, 84, 0
9, 38892, Note_on_c, 6, 79, 64
9, 38951, Note_on_c, 6, 79, 0
9, 39008, Note_on_c, 6, 79, 72
9, 39228, Note_on_c, 6, 79, 0
9, 39360, Note_on_c, 6, 91, 62
9, 39465, Note_on_c, 6, 91, 0
9, 39487, Note_on_c, 6, 91, 59
9, 39731, Note_on_c, 6, 91, 0
9, 39840, Note_on_c, 6, 88, 62
9, 40080, Note_on_c, 6, 88, 0
9, 40082, Note_on_c, 6, 86, 59
9, 40692, Note_on_c, 6, 86, 0
9, 40802, Note_on_c, 6, 88, 59
9, 40983, Note_on_c, 6, 89, 49
9, 40984, Note_on_c, 6, 88, 0
9, 41013, Note_on_c, 6, 88, 48
9, 41017, Note_on_c, 6, 89, 0
9, 41044, Note_on_c, 6, 88, 0
9, 41046, Note_on_c, 6, 86, 51
9, 41074, Note_on_c, 6, 88, 48
9, 41080, Note_on_c, 6, 86, 0
9, 41105, Note_on_c, 6, 88, 0
9, 41106, Note_on_c, 6, 86, 43
9, 41519, Note_on_c, 6, 86, 0
9, 41762, Note_on_c, 6, 88, 61
9, 41996, Note_on_c, 6, 88, 0
9, 42000, Note_on_c, 6, 89, 61
9, 42239, Note_on_c, 6, 88, 60
9, 42244, Note_on_c, 6, 89, 0
9, 42479, Note_on_c, 6, 84, 62
9, 42480, Note_on_c, 6, 88, 0
9, 42702, Note_on_c, 6, 84, 0
9, 42727, Note_on_c, 6, 74, 74
9, 42796, Note_on_c, 6, 74, 0
9, 42823, Note_on_c, 6, 74, 65
9, 42839, Note_on_c, 6, 74, 0
9, 42844, Note_on_c, 6, 77, 54
9, 42845, Note_on_c, 6, 79, 56
9, 42868, Note_on_c, 6, 79, 0
9, 42885, Note_on_c, 6, 77, 0
9, 42914, Note_on_c, 6, 79, 75
9, 43149, Note_on_c, 6, 79, 0
9, 43206, Note_on_c, 6, 74, 75
9, 43275, Note_on_c, 6, 74, 0
9, 43305, Note_on_c, 6, 74, 62
9, 43323, Note_on_c, 6, 74, 0
9, 43325, Note_on_c, 6, 77, 63
9, 43368, Note_on_c, 6, 77, 0
9, 43389, Note_on_c, 6, 79, 72
9, 43628, Note_on_c, 6, 79, 0
9, 43680, Note_on_c, 6, 86, 75
9, 43752, Note_on_c, 6, 86, 0
9, 43784, Note_on_c, 6, 86, 60
9, 43803, Note_on_c, 6, 86, 0
9, 43806, Note_on_c, 6, 89, 67
9, 43845, Note_on_c, 6, 89, 0
9, 43871, Note_on_c, 6, 91, 69
9, 44159, Note_on_c, 6, 91, 0
9, 44161, Note_on_c, 6, 86, 74
9, 44233, Note_on_c, 6, 86, 0
9, 44263, Note_on_c, 6, 86, 60
9, 44282, Note_on_c, 6, 86, 0
9, 44287, Note_on_c, 6, 89, 67
9, 44324, Note_on_c, 6, 89, 0
9, 44350, Note_on_c, 6, 91, 72
9, 44584, Note_on_c, 6, 91, 0
9, 44585, Note_on_c, 6, 84, 58
9, 44645, Note_on_c, 6, 86, 54
9, 44646, Note_on_c, 6, 84, 0
9, 44929, Note_on_c, 6, 86, 0
9, 44929, End_track
10, 0, Start_track
10, 0, MIDI_port, 2
10, 0, Title_t, "Piano"
10, 0, Program_c, 7, 4
10, 0, Control_c, 7, 7, 85
10, 0, Control_c, 7, 10, 64
10, 120, Control_c, 7, 11, 127
10, 120, Control_c, 7, 91, 60
10, 120, Control_c, 7, 93, 40
10, 2500, Note_on_c, 7, 50, 43
10, 2516, Note_on_c, 7, 53, 38
10, 2526, Note_on_c, 7, 57, 58
10, 2696, Note_on_c, 7, 50, 0
10, 2779, Note_on_c, 7, 57, 0
10, 2784, Note_on_c, 7, 53, 0
10, 2789, Note_on_c, 7, 50, 42
10, 2822, Note_on_c, 7, 59, 34
10, 2823, Note_on_c, 7, 55, 42
10, 2865, Note_on_c, 7, 59, 0
10, 2868, Note_on_c, 7, 55, 0
10, 2883, Note_on_c, 7, 53, 46
10, 2884, Note_on_c, 7, 57, 49
10, 3101, Note_on_c, 7, 50, 0
10, 3152, Note_on_c, 7, 50, 41
10, 3154, Note_on_c, 7, 57, 0
10, 3155, Note_on_c, 7, 53, 0
10, 3181, Note_on_c, 7, 60, 51
10, 3183, Note_on_c, 7, 57, 39
10, 3288, Note_on_c, 7, 50, 0
10, 3343, Note_on_c, 7, 50, 42
10, 3344, Note_on_c, 7, 60, 0
10, 3351, Note_on_c, 7, 57, 0
10, 3370, Note_on_c, 7, 53, 46
10, 3371, Note_on_c, 7, 57, 53
10, 3641, Note_on_c, 7, 50, 0
10, 3661, Note_on_c, 7, 50, 47
10, 3727, Note_on_c, 7, 50, 0
10, 3755, Note_on_c, 7, 53, 0
10, 3756, Note_on_c, 7, 50, 46
10, 3767, Note_on_c, 7, 57, 0
10, 3782, Note_on_c, 7, 59, 57
10, 3784, Note_on_c, 7, 55, 53
10, 3837, Note_on_c, 7, 59, 0
10, 3840, Note_on_c, 7, 55, 0
10, 3848, Note_on_c, 7, 53, 51
10, 3849, Note_on_c, 7, 57, 54
10, 4021, Note_on_c, 7, 50, 0
10, 4054, Note_on_c, 7, 50, 42
10, 4155, Note_on_c, 7, 50, 0
10, 4165, Note_on_c, 7, 57, 0
10, 4171, Note_on_c, 7, 53, 0
10, 4173, Note_on_c, 7, 50, 47
10, 4230, Note_on_c, 7, 60, 53
10, 4231, Note_on_c, 7, 57, 54
10, 4233, Note_on_c, 7, 53, 52
10, 4289, Note_on_c, 7, 50, 0
10, 4320, Note_on_c, 7, 50, 54
10, 4359, Note_on_c, 7, 60, 0
10, 4369, Note_on_c, 7, 53, 0
10, 4374, Note_on_c, 7, 57, 0
10, 4447, Note_on_c, 7, 57, 57
10, 4448, Note_on_c, 7, 53, 56
10, 4601, Note_on_c, 7, 50, 0
10, 4618, Note_on_c, 7, 50, 52
10, 4731, Note_on_c, 7, 50, 0
10, 4739, Note_on_c, 7, 48, 46
10, 4790, Note_on_c, 7, 48, 0
10, 4803, Note_on_c, 7, 50, 43
10, 4838, Note_on_c, 7, 53, 0
10, 4847, Note_on_c, 7, 57, 0
10, 4884, Note_on_c, 7, 50, 0
10, 4896, Note_on_c, 7, 50, 55
10, 4929, Note_on_c, 7, 60, 50
10, 4930, Note_on_c, 7, 57, 55
10, 4931, Note_on_c, 7, 53, 52
10, 5066, Note_on_c, 7, 50, 0
10, 5082, Note_on_c, 7, 52, 45
10, 5144, Note_on_c, 7, 52, 0
10, 5146, Note_on_c, 7, 53, 0
10, 5165, Note_on_c, 7, 52, 53
10, 5196, Note_on_c, 7, 53, 53
10, 5208, Note_on_c, 7, 52, 0
10, 5224, Note_on_c, 7, 50, 49
10, 5263, Note_on_c, 7, 50, 0
10, 5281, Note_on_c, 7, 50, 59
10, 5294, Note_on_c, 7, 53, 0
10, 5297, Note_on_c, 7, 60, 0
10, 5311, Note_on_c, 7, 57, 0
10, 5403, Note_on_c, 7, 53, 57
10, 5403, Note_on_c, 7, 57, 54
10, 5526, Note_on_c, 7, 50, 0
10, 5553, Note_on_c, 7, 50, 44
10, 5561, Note_on_c, 7, 53, 0
10, 5562, Note_on_c, 7, 57, 0
10, 5583, Note_on_c, 7, 57, 60
10, 5585, Note_on_c, 7, 53, 48
10, 5649, Note_on_c, 7, 53, 0
10, 5661, Note_on_c, 7, 57, 0
10, 5679, Note_on_c, 7, 59, 52
10, 5680, Note_on_c, 7, 55, 53
10, 5702, Note_on_c, 7, 55, 0
10, 5704, Note_on_c, 7, 59, 0
10, 5705, Note_on_c, 7, 57, 50
10, 5711, Note_on_c, 7, 53, 48
10, 5755, Note_on_c, 7, 50, 0
10, 5767, Note_on_c, 7, 50, 55
10, 5837, Note_on_c, 7, 50, 0
10, 5854, Note_on_c, 7, 50, 50
10, 5859, Note_on_c, 7, 53, 0
10, 5862, Note_on_c, 7, 57, 0
10, 5887, Note_on_c, 7, 53, 53
10, 5888, Note_on_c, 7, 57, 59
10, 5982, Note_on_c, 7, 50, 0
10, 6027, Note_on_c, 7, 50, 41
10, 6028, Note_on_c, 7, 53, 0
10, 6035, Note_on_c, 7, 57, 0
10, 6059, Note_on_c, 7, 57, 54
10, 6060, Note_on_c, 7, 60, 54
10, 6125, Note_on_c, 7, 60, 0
10, 6130, Note_on_c, 7, 57, 0
10, 6153, Note_on_c, 7, 60, 56
10, 6155, Note_on_c, 7, 57, 50
10, 6172, Note_on_c, 7, 60, 0
10, 6181, Note_on_c, 7, 53, 56
10, 6274, Note_on_c, 7, 50, 0
10, 6334, Note_on_c, 7, 50, 54
10, 6337, Note_on_c, 7, 53, 0
10, 6339, Note_on_c, 7, 57, 0
10, 6363, Note_on_c, 7, 53, 59
10, 6363, Note_on_c, 7, 57, 63
10, 6498, Note_on_c, 7, 50, 0
10, 6515, Note_on_c, 7, 50, 50
10, 6519, Note_on_c, 7, 53, 0
10, 6521, Note_on_c, 7, 57, 0
10, 6541, Note_on_c, 7, 57, 57
10, 6544, Note_on_c, 7, 53, 54
10, 6576, Note_on_c, 7, 53, 0
10, 6578, Note_on_c, 7, 57, 0
10, 6604, Note_on_c, 7, 57, 51
10, 6604, Note_on_c, 7, 53, 51
10, 6631, Note_on_c, 7, 53, 0
10, 6637, Note_on_c, 7, 57, 0
10, 6639, Note_on_c, 7, 59, 37
10, 6640, Note_on_c, 7, 55, 51
10, 6664, Note_on_c, 7, 57, 58
10, 6666, Note_on_c, 7, 55, 0
10, 6667, Note_on_c, 7, 53, 53
10, 6668, Note_on_c, 7, 59, 0
10, 6767, Note_on_c, 7, 50, 0
10, 6811, Note_on_c, 7, 50, 52
10, 6817, Note_on_c, 7, 57, 0
10, 6817, Note_on_c, 7, 53, 0
10, 6840, Note_on_c, 7, 53, 60
10, 6841, Note_on_c, 7, 57, 69
10, 6877, Note_on_c, 7, 50, 0
10, 6932, Note_on_c, 7, 50, 54
10, 6943, Note_on_c, 7, 50, 0
10, 6944, Note_on_c, 7, 53, 0
10, 6948, Note_on_c, 7, 57, 0
10, 6962, Note_on_c, 7, 60, 60
10, 6963, Note_on_c, 7, 55, 60
10, 6963, Note_on_c, 7, 48, 65
10, 7055, Note_on_c, 7, 48, 0
10, 7059, Note_on_c, 7, 60, 0
10, 7060, Note_on_c, 7, 55, 0
10, 7081, Note_on_c, 7, 48, 74
10, 7084, Note_on_c, 7, 60, 87
10, 7085, Note_on_c, 7, 55, 69
10, 7142, Note_on_c, 7, 48, 0
10, 7176, Note_on_c, 7, 48, 64
10, 7182, Note_on_c, 7, 55, 0
10, 7183, Note_on_c, 7, 60, 0
10, 7184, Note_on_c, 7, 48, 0
10, 7202, Note_on_c, 7, 62, 67
10, 7203, Note_on_c, 7, 55, 67
10, 7204, Note_on_c, 7, 59, 79
10, 7205, Note_on_c, 7, 43, 75
10, 7214, Note_on_c, 7, 59, 0
10, 7217, Note_on_c, 7, 55, 0
10, 7218, Note_on_c, 7, 43, 0
10, 7219, Note_on_c, 7, 62, 0
10, 7231, Note_on_c, 7, 43, 61
10, 7232, Note_on_c, 7, 62, 59
10, 7233, Note_on_c, 7, 59, 65
10, 7234, Note_on_c, 7, 55, 58
10, 7243, Note_on_c, 7, 59, 0
10, 7245, Note_on_c, 7, 43, 0
10, 7246, Note_on_c, 7, 55, 0
10, 7247, Note_on_c, 7, 62, 0
10, 7261, Note_on_c, 7, 43, 63
10, 7262, Note_on_c, 7, 59, 65
10, 7263, Note_on_c, 7, 55, 59
10, 7265, Note_on_c, 7, 62, 57
10, 7272, Note_on_c, 7, 43, 0
10, 7273, Note_on_c, 7, 59, 0
10, 7274, Note_on_c, 7, 62, 0
10, 7275, Note_on_c, 7, 55, 0
10, 7290, Note_on_c, 7, 43, 64
10, 7293, Note_on_c, 7, 62, 64
10, 7294, Note_on_c, 7, 59, 61
10, 7295, Note_on_c, 7, 55, 56
10, 7300, Note_on_c, 7, 59, 0
10, 7301, Note_on_c, 7, 55, 0
10, 7302, Note_on_c, 7, 62, 0
10, 7302, Note_on_c, 7, 43, 0
10, 7321, Note_on_c, 7, 43, 100
10, 7322, Note_on_c, 7, 62, 87
10, 7323, Note_on_c, 7, 55, 79
10, 7323, Note_on_c, 7, 59, 94
10, 7530, Note_on_c, 7, 59, 0
10, 7539, Note_on_c, 7, 55, 0
10, 7547, Note_on_c, 7, 60, 42
10, 7549, Note_on_c, 7, 59, 39
10, 7558, Note_on_c, 7, 57, 60
10, 7559, Note_on_c, 7, 62, 0
10, 7568, Note_on_c, 7, 55, 63
10, 7569, Note_on_c, 7, 60, 0
10, 7572, Note_on_c, 7, 59, 0
10, 7573, Note_on_c, 7, 57, 0
10, 7576, Note_on_c, 7, 43, 0
10, 7582, Note_on_c, 7, 55, 0
10, 7688, Note_on_c, 7, 43, 84
10, 7689, Note_on_c, 7, 62, 87
10, 7690, Note_on_c, 7, 55, 75
10, 7691, Note_on_c, 7, 59, 84
10, 7698, Note_on_c, 7, 59, 0
10, 7701, Note_on_c, 7, 62, 0
10, 7702, Note_on_c, 7, 55, 0
10, 7703, Note_on_c, 7, 43, 0
10, 7718, Note_on_c, 7, 59, 60
10, 7718, Note_on_c, 7, 62, 65
10, 7719, Note_on_c, 7, 43, 62
10, 7720, Note_on_c, 7, 55, 58
10, 7726, Note_on_c, 7, 59, 0
10, 7727, Note_on_c, 7, 55, 0
10, 7728, Note_on_c, 7, 43, 0
10, 7728, Note_on_c, 7, 62, 0
10, 7743, Note_on_c, 7, 43, 62
10, 7744, Note_on_c, 7, 62, 62
10, 7745, Note_on_c, 7, 59, 60
10, 7746, Note_on_c, 7, 55, 51
10, 7752, Note_on_c, 7, 59, 0
10, 7753, Note_on_c, 7, 55, 0
10, 7755, Note_on_c, 7, 43, 0
10, 7756, Note_on_c, 7, 62, 0
10, 7769, Note_on_c, 7, 62, 62
10, 7770, Note_on_c, 7, 59, 63
10, 7771, Note_on_c, 7, 43, 64
10, 7777, Note_on_c, 7, 59, 0
10, 7778, Note_on_c, 7, 62, 0
10, 7781, Note_on_c, 7, 43, 0
10, 7798, Note_on_c, 7, 43, 100
10, 7799, Note_on_c, 7, 55, 84
10, 7800, Note_on_c, 7, 62, 94
10, 7802, Note_on_c, 7, 59, 100
10, 7946, Note_on_c, 7, 60, 45
10, 7947, Note_on_c, 7, 55, 0
10, 7951, Note_on_c, 7, 59, 0
10, 7955, Note_on_c, 7, 60, 0
10, 7955, Note_on_c, 7, 64, 29
10, 7963, Note_on_c, 7, 65, 44
10, 7965, Note_on_c, 7, 62, 0
10, 7967, Note_on_c, 7, 67, 61
10, 7969, Note_on_c, 7, 64, 0
10, 7970, Note_on_c, 7, 69, 67
10, 7972, Note_on_c, 7, 65, 0
10, 7973, Note_on_c, 7, 71, 58
10, 7975, Note_on_c, 7, 67, 0
10, 7976, Note_on_c, 7, 72, 60
10, 7977, Note_on_c, 7, 69, 0
10, 7980, Note_on_c, 7, 74, 61
10, 7981, Note_on_c, 7, 71, 0
10, 7983, Note_on_c, 7, 76, 87
10, 7984, Note_on_c, 7, 72, 0
10, 7985, Note_on_c, 7, 74, 0
10, 7989, Note_on_c, 7, 76, 0
10, 7998, Note_on_c, 7, 76, 58
10, 7999, Note_on_c, 7, 72, 65
10, 7999, Note_on_c, 7, 74, 39
10, 8001, Note_on_c, 7, 76, 0
10, 8002, Note_on_c, 7, 71, 60
10, 8003, Note_on_c, 7, 69, 45
10, 8006, Note_on_c, 7, 74, 0
10, 8011, Note_on_c, 7, 67, 51
10, 8012, Note_on_c, 7, 72, 0
10, 8019, Note_on_c, 7, 65, 44
10, 8020, Note_on_c, 7, 71, 0
10, 8027, Note_on_c, 7, 69, 0
10, 8027, Note_on_c, 7, 64, 46
10, 8033, Note_on_c, 7, 67, 0
10, 8033, Note_on_c, 7, 62, 51
10, 8039, Note_on_c, 7, 65, 0
10, 8041, Note_on_c, 7, 60, 51
10, 8046, Note_on_c, 7, 64, 0
10, 8048, Note_on_c, 7, 59, 50
10, 8054, Note_on_c, 7, 62, 0
10, 8055, Note_on_c, 7, 57, 51
10, 8070, Note_on_c, 7, 60, 0
10, 8071, Note_on_c, 7, 55, 39
10, 8077, Note_on_c, 7, 55, 0
10, 8078, Note_on_c, 7, 43, 0
10, 8086, Note_on_c, 7, 55, 31
10, 8087, Note_on_c, 7, 59, 0
10, 8088, Note_on_c, 7, 53, 38
10, 8092, Note_on_c, 7, 53, 0
10, 8097, Note_on_c, 7, 53, 42
10, 8098, Note_on_c, 7, 52, 50
10, 8099, Note_on_c, 7, 57, 0
10, 8102, Note_on_c, 7, 52, 0
10, 8105, Note_on_c, 7, 55, 0
10, 8109, Note_on_c, 7, 52, 30
10, 8117, Note_on_c, 7, 53, 0
10, 8119, Note_on_c, 7, 52, 0
10, 8129, Note_on_c, 7, 50, 51
10, 8143, Note_on_c, 7, 50, 0
10, 8159, Note_on_c, 7, 50, 75
10, 8160, Note_on_c, 7, 48, 60
10, 8162, Note_on_c, 7, 48, 0
10, 8222, Note_on_c, 7, 53, 50
10, 8223, Note_on_c, 7, 57, 54
10, 8246, Note_on_c, 7, 57, 0
10, 8247, Note_on_c, 7, 53, 0
10, 8282, Note_on_c, 7, 53, 65
10, 8283, Note_on_c, 7, 57, 79
10, 8357, Note_on_c, 7, 50, 0
10, 8373, Note_on_c, 7, 50, 48
10, 8383, Note_on_c, 7, 53, 0
10, 8387, Note_on_c, 7, 57, 0
10, 8402, Note_on_c, 7, 57, 58
10, 8403, Note_on_c, 7, 53, 45
10, 8418, Note_on_c, 7, 53, 0
10, 8419, Note_on_c, 7, 57, 0
10, 8462, Note_on_c, 7, 53, 52
10, 8463, Note_on_c, 7, 57, 62
10, 8516, Note_on_c, 7, 50, 0
10, 8546, Note_on_c, 7, 50, 49
10, 8563, Note_on_c, 7, 53, 0
10, 8571, Note_on_c, 7, 57, 0
10, 8578, Note_on_c, 7, 59, 59
10, 8579, Note_on_c, 7, 55, 60
10, 8622, Note_on_c, 7, 50, 0
10, 8640, Note_on_c, 7, 50, 57
10, 8696, Note_on_c, 7, 55, 0
10, 8697, Note_on_c, 7, 59, 0
10, 8701, Note_on_c, 7, 53, 46
10, 8702, Note_on_c, 7, 57, 49
10, 8715, Note_on_c, 7, 57, 0
10, 8716, Note_on_c, 7, 53, 0
10, 8757, Note_on_c, 7, 53, 49
10, 8758, Note_on_c, 7, 57, 58
10, 8833, Note_on_c, 7, 50, 0
10, 8853, Note_on_c, 7, 50, 51
10, 8868, Note_on_c, 7, 57, 0
10, 8869, Note_on_c, 7, 53, 0
10, 8883, Note_on_c, 7, 57, 58
10, 8884, Note_on_c, 7, 53, 51
10, 8962, Note_on_c, 7, 50, 0
10, 8974, Note_on_c, 7, 50, 52
10, 8998, Note_on_c, 7, 50, 0
10, 9037, Note_on_c, 7, 50, 60
10, 9042, Note_on_c, 7, 53, 0
10, 9046, Note_on_c, 7, 57, 0
10, 9062, Note_on_c, 7, 60, 60
10, 9062, Note_on_c, 7, 57, 69
10, 9110, Note_on_c, 7, 60, 0
10, 9112, Note_on_c, 7, 57, 0
10, 9119, Note_on_c, 7, 53, 54
10, 9120, Note_on_c, 7, 57, 59
10, 9161, Note_on_c, 7, 50, 0
10, 9179, Note_on_c, 7, 50, 53
10, 9203, Note_on_c, 7, 53, 0
10, 9204, Note_on_c, 7, 57, 0
10, 9240, Note_on_c, 7, 53, 62
10, 9242, Note_on_c, 7, 57, 69
10, 9308, Note_on_c, 7, 50, 0
10, 9334, Note_on_c, 7, 50, 48
10, 9344, Note_on_c, 7, 53, 0
10, 9347, Note_on_c, 7, 57, 0
10, 9361, Note_on_c, 7, 53, 46
10, 9363, Note_on_c, 7, 57, 51
10, 9376, Note_on_c, 7, 57, 0
10, 9376, Note_on_c, 7, 53, 0
10, 9421, Note_on_c, 7, 57, 56
10, 9421, Note_on_c, 7, 53, 50
10, 9471, Note_on_c, 7, 50, 0
10, 9514, Note_on_c, 7, 50, 51
10, 9519, Note_on_c, 7, 53, 0
10, 9523, Note_on_c, 7, 57, 0
10, 9536, Note_on_c, 7, 55, 56
10, 9537, Note_on_c, 7, 59, 52
10, 9577, Note_on_c, 7, 55, 0
10, 9580, Note_on_c, 7, 59, 0
10, 9594, Note_on_c, 7, 57, 53
10, 9595, Note_on_c, 7, 53, 50
10, 9647, Note_on_c, 7, 50, 0
10, 9663, Note_on_c, 7, 50, 47
10, 9672, Note_on_c, 7, 50, 0
10, 9718, Note_on_c, 7, 50, 65
10, 9764, Note_on_c, 7, 53, 0
10, 9766, Note_on_c, 7, 57, 0
10, 9778, Note_on_c, 7, 53, 59
10, 9779, Note_on_c, 7, 57, 64
10, 9840, Note_on_c, 7, 50, 0
10, 9854, Note_on_c, 7, 53, 0
10, 9856, Note_on_c, 7, 57, 0
10, 9872, Note_on_c, 7, 53, 57
10, 9873, Note_on_c, 7, 57, 62
10, 9932, Note_on_c, 7, 53, 0
10, 9938, Note_on_c, 7, 50, 50
10, 9939, Note_on_c, 7, 57, 0
10, 9958, Note_on_c, 7, 57, 55
10, 9958, Note_on_c, 7, 53, 50
10, 9972, Note_on_c, 7, 50, 0
10, 9996, Note_on_c, 7, 50, 49
10, 10003, Note_on_c, 7, 53, 0
10, 10004, Note_on_c, 7, 57, 0
10, 10019, Note_on_c, 7, 57, 59
10, 10020, Note_on_c, 7, 60, 61
10, 10060, Note_on_c, 7, 60, 0
10, 10069, Note_on_c, 7, 57, 0
10, 10080, Note_on_c, 7, 53, 52
10, 10080, Note_on_c, 7, 57, 59
10, 10124, Note_on_c, 7, 50, 0
10, 10142, Note_on_c, 7, 50, 57
10, 10175, Note_on_c, 7, 53, 0
10, 10177, Note_on_c, 7, 57, 0
10, 10202, Note_on_c, 7, 53, 60
10, 10203, Note_on_c, 7, 57, 65
10, 10276, Note_on_c, 7, 50, 0
10, 10293, Note_on_c, 7, 50, 46
10, 10297, Note_on_c, 7, 57, 0
10, 10299, Note_on_c, 7, 53, 0
10, 10316, Note_on_c, 7, 53, 48
10, 10317, Note_on_c, 7, 57, 55
10, 10331, Note_on_c, 7, 53, 0
10, 10334, Note_on_c, 7, 57, 0
10, 10376, Note_on_c, 7, 53, 59
10, 10377, Note_on_c, 7, 57, 67
10, 10416, Note_on_c, 7, 50, 0
10, 10438, Note_on_c, 7, 50, 49
10, 10468, Note_on_c, 7, 53, 0
10, 10471, Note_on_c, 7, 57, 0
10, 10482, Note_on_c, 7, 55, 39
10, 10489, Note_on_c, 7, 55, 0
10, 10501, Note_on_c, 7, 55, 62
10, 10502, Note_on_c, 7, 59, 62
10, 10539, Note_on_c, 7, 59, 0
10, 10540, Note_on_c, 7, 55, 0
10, 10559, Note_on_c, 7, 57, 67
10, 10560, Note_on_c, 7, 53, 59
10, 10638, Note_on_c, 7, 50, 0
10, 10656, Note_on_c, 7, 50, 54
10, 10659, Note_on_c, 7, 53, 0
10, 10661, Note_on_c, 7, 57, 0
10, 10681, Note_on_c, 7, 53, 58
10, 10682, Note_on_c, 7, 57, 63
10, 10703, Note_on_c, 7, 53, 0
10, 10704, Note_on_c, 7, 57, 0
10, 10740, Note_on_c, 7, 53, 59
10, 10741, Note_on_c, 7, 57, 67
10, 10799, Note_on_c, 7, 50, 0
10, 10839, Note_on_c, 7, 50, 58
10, 10849, Note_on_c, 7, 53, 0
10, 10851, Note_on_c, 7, 57, 0
10, 10862, Note_on_c, 7, 57, 59
10, 10863, Note_on_c, 7, 53, 56
10, 10888, Note_on_c, 7, 53, 0
10, 10891, Note_on_c, 7, 57, 0
10, 10918, Note_on_c, 7, 57, 69
10, 10919, Note_on_c, 7, 53, 60
10, 10946, Note_on_c, 7, 53, 0
10, 10947, Note_on_c, 7, 57, 0
10, 10952, Note_on_c, 7, 59, 53
10, 10954, Note_on_c, 7, 55, 53
10, 10970, Note_on_c, 7, 55, 0
10, 10970, Note_on_c, 7, 59, 0
10, 10979, Note_on_c, 7, 57, 75
10, 10980, Note_on_c, 7, 53, 63
10, 11009, Note_on_c, 7, 53, 0
10, 11009, Note_on_c, 7, 50, 0
10, 11010, Note_on_c, 7, 57, 0
10, 12962, Note_on_c, 7, 60, 56
10, 13054, Note_on_c, 7, 65, 60
10, 13054, Note_on_c, 7, 69, 59
10, 13311, Note_on_c, 7, 60, 0
10, 13337, Note_on_c, 7, 69, 0
10, 13340, Note_on_c, 7, 65, 0
10, 13348, Note_on_c, 7, 60, 51
10, 13380, Note_on_c, 7, 67, 57
10, 13381, Note_on_c, 7, 64, 56
10, 13404, Note_on_c, 7, 64, 0
10, 13405, Note_on_c, 7, 67, 0
10, 13412, Note_on_c, 7, 65, 61
10, 13412, Note_on_c, 7, 69, 67
10, 13622, Note_on_c, 7, 53, 59
10, 13637, Note_on_c, 7, 69, 0
10, 13638, Note_on_c, 7, 65, 0
10, 13639, Note_on_c, 7, 60, 0
10, 13652, Note_on_c, 7, 57, 55
10, 13713, Note_on_c, 7, 64, 65
10, 13713, Note_on_c, 7, 60, 58
10, 13728, Note_on_c, 7, 57, 0
10, 13825, Note_on_c, 7, 53, 0
10, 13833, Note_on_c, 7, 53, 52
10, 13840, Note_on_c, 7, 60, 0
10, 13843, Note_on_c, 7, 64, 0
10, 13862, Note_on_c, 7, 59, 51
10, 13862, Note_on_c, 7, 62, 53
10, 13890, Note_on_c, 7, 59, 0
10, 13892, Note_on_c, 7, 60, 50
10, 13893, Note_on_c, 7, 64, 50
10, 13895, Note_on_c, 7, 62, 0
10, 13922, Note_on_c, 7, 64, 0
10, 13922, Note_on_c, 7, 60, 0
10, 13923, Note_on_c, 7, 62, 57
10, 13923, Note_on_c, 7, 59, 60
10, 13951, Note_on_c, 7, 59, 0
10, 13952, Note_on_c, 7, 64, 60
10, 13953, Note_on_c, 7, 60, 57
10, 13958, Note_on_c, 7, 62, 0
10, 13975, Note_on_c, 7, 60, 0
10, 13976, Note_on_c, 7, 64, 0
10, 14013, Note_on_c, 7, 62, 59
10, 14013, Note_on_c, 7, 65, 50
10, 14166, Note_on_c, 7, 53, 0
10, 14192, Note_on_c, 7, 53, 31
10, 14237, Note_on_c, 7, 53, 0
10, 14311, Note_on_c, 7, 53, 50
10, 14450, Note_on_c, 7, 53, 0
10, 14519, Note_on_c, 7, 53, 58
10, 14550, Note_on_c, 7, 53, 0
10, 14551, Note_on_c, 7, 55, 51
10, 14579, Note_on_c, 7, 55, 0
10, 14582, Note_on_c, 7, 50, 59
10, 14757, Note_on_c, 7, 65, 0
10, 14765, Note_on_c, 7, 62, 0
10, 14769, Note_on_c, 7, 50, 0
10, 14791, Note_on_c, 7, 50, 58
10, 14792, Note_on_c, 7, 57, 67
10, 14792, Note_on_c, 7, 59, 69
10, 15037, Note_on_c, 7, 50, 0
10, 15051, Note_on_c, 7, 59, 0
10, 15065, Note_on_c, 7, 57, 0
10, 15065, Note_on_c, 7, 50, 58
10, 15116, Note_on_c, 7, 57, 60
10, 15152, Note_on_c, 7, 69, 62
10, 15153, Note_on_c, 7, 71, 61
10, 15289, Note_on_c, 7, 50, 0
10, 15328, Note_on_c, 7, 57, 0
10, 15535, Note_on_c, 7, 69, 0
10, 15537, Note_on_c, 7, 71, 0
10, 15566, Note_on_c, 7, 50, 25
10, 15572, Note_on_c, 7, 67, 63
10, 15572, Note_on_c, 7, 65, 60
10, 15573, Note_on_c, 7, 71, 58
10, 15717, Note_on_c, 7, 50, 0
10, 15790, Note_on_c, 7, 65, 0
10, 15791, Note_on_c, 7, 67, 0
10, 15791, Note_on_c, 7, 71, 0
10, 15811, Note_on_c, 7, 62, 49
10, 15811, Note_on_c, 7, 65, 59
10, 15812, Note_on_c, 7, 57, 52
10, 15812, Note_on_c, 7, 67, 62
10, 15901, Note_on_c, 7, 57, 0
10, 15905, Note_on_c, 7, 65, 0
10, 15907, Note_on_c, 7, 67, 0
10, 15908, Note_on_c, 7, 62, 0
10, 15930, Note_on_c, 7, 62, 54
10, 15931, Note_on_c, 7, 65, 60
10, 15931, Note_on_c, 7, 67, 59
10, 15931, Note_on_c, 7, 57, 58
10, 15949, Note_on_c, 7, 57, 0
10, 15955, Note_on_c, 7, 62, 0
10, 15957, Note_on_c, 7, 67, 0
10, 15957, Note_on_c, 7, 65, 0
10, 15991, Note_on_c, 7, 65, 60
10, 15991, Note_on_c, 7, 69, 64
10, 16008, Note_on_c, 7, 65, 0
10, 16009, Note_on_c, 7, 69, 0
10, 16227, Note_on_c, 7, 57, 57
10, 16229, Note_on_c, 7, 62, 58
10, 16260, Note_on_c, 7, 64, 54
10, 16273, Note_on_c, 7, 57, 0
10, 16274, Note_on_c, 7, 62, 0
10, 16286, Note_on_c, 7, 64, 0
10, 16288, Note_on_c, 7, 65, 51
10, 16318, Note_on_c, 7, 67, 50
10, 16322, Note_on_c, 7, 65, 0
10, 16347, Note_on_c, 7, 69, 46
10, 16349, Note_on_c, 7, 67, 0
10, 16379, Note_on_c, 7, 65, 45
10, 16407, Note_on_c, 7, 62, 48
10, 16438, Note_on_c, 7, 55, 52
10, 16438, Note_on_c, 7, 53, 50
10, 16465, Note_on_c, 7, 53, 0
10, 16469, Note_on_c, 7, 62, 0
10, 16533, Note_on_c, 7, 60, 61
10, 16543, Note_on_c, 7, 65, 0
10, 16578, Note_on_c, 7, 69, 0
10, 16711, Note_on_c, 7, 69, 50
10, 16739, Note_on_c, 7, 72, 53
10, 16769, Note_on_c, 7, 77, 69
10, 16898, Note_on_c, 7, 77, 0
10, 16904, Note_on_c, 7, 72, 0
10, 16917, Note_on_c, 7, 69, 0
10, 16924, Note_on_c, 7, 76, 62
10, 16925, Note_on_c, 7, 69, 50
10, 16955, Note_on_c, 7, 76, 0
10, 16955, Note_on_c, 7, 77, 61
10, 16982, Note_on_c, 7, 77, 0
10, 16983, Note_on_c, 7, 76, 57
10, 17008, Note_on_c, 7, 76, 0
10, 17013, Note_on_c, 7, 74, 58
10, 17056, Note_on_c, 7, 69, 0
10, 17060, Note_on_c, 7, 74, 0
10, 17072, Note_on_c, 7, 72, 54
10, 17072, Note_on_c, 7, 69, 50
10, 17271, Note_on_c, 7, 55, 0
10, 17273, Note_on_c, 7, 60, 0
10, 17374, Note_on_c, 7, 72, 0
10, 17378, Note_on_c, 7, 69, 0
10, 17431, Note_on_c, 7, 64, 58
10, 17432, Note_on_c, 7, 67, 59
10, 17432, Note_on_c, 7, 69, 59
10, 17478, Note_on_c, 7, 64, 0
10, 17480, Note_on_c, 7, 69, 0
10, 17480, Note_on_c, 7, 67, 0
10, 17492, Note_on_c, 7, 64, 61
10, 17492, Note_on_c, 7, 67, 65
10, 17493, Note_on_c, 7, 69, 62
10, 17641, Note_on_c, 7, 67, 0
10, 17642, Note_on_c, 7, 69, 0
10, 17646, Note_on_c, 7, 64, 0
10, 17672, Note_on_c, 7, 59, 55
10, 17672, Note_on_c, 7, 62, 51
10, 17673, Note_on_c, 7, 64, 53
10, 17688, Note_on_c, 7, 62, 0
10, 17690, Note_on_c, 7, 64, 0
10, 17690, Note_on_c, 7, 59, 0
10, 17732, Note_on_c, 7, 59, 55
10, 17732, Note_on_c, 7, 62, 51
10, 17733, Note_on_c, 7, 64, 53
10, 18050, Note_on_c, 7, 62, 0
10, 18052, Note_on_c, 7, 64, 0
10, 18058, Note_on_c, 7, 59, 0
10, 18088, Note_on_c, 7, 57, 60
10, 18089, Note_on_c, 7, 59, 61
10, 18089, Note_on_c, 7, 65, 60
10, 18282, Note_on_c, 7, 65, 0
10, 18282, Note_on_c, 7, 57, 0
10, 18286, Note_on_c, 7, 59, 0
10, 18300, Note_on_c, 7, 57, 61
10, 18301, Note_on_c, 7, 59, 65
10, 18301, Note_on_c, 7, 65, 69
10, 18416, Note_on_c, 7, 65, 0
10, 18420, Note_on_c, 7, 57, 0
10, 18422, Note_on_c, 7, 59, 0
10, 18449, Note_on_c, 7, 64, 64
10, 18449, Note_on_c, 7, 59, 59
10, 18449, Note_on_c, 7, 57, 55
10, 18505, Note_on_c, 7, 64, 0
10, 18509, Note_on_c, 7, 65, 55
10, 18541, Note_on_c, 7, 65, 0
10, 18548, Note_on_c, 7, 57, 0
10, 18554, Note_on_c, 7, 59, 0
10, 18572, Note_on_c, 7, 59, 53
10, 18572, Note_on_c, 7, 64, 57
10, 18573, Note_on_c, 7, 57, 51
10, 18583, Note_on_c, 7, 57, 0
10, 18599, Note_on_c, 7, 55, 3
10, 18647, Note_on_c, 7, 64, 0
10, 18647, Note_on_c, 7, 59, 0
10, 18649, Note_on_c, 7, 55, 0
10, 18663, Note_on_c, 7, 64, 74
10, 18663, Note_on_c, 7, 55, 60
10, 18664, Note_on_c, 7, 59, 59
10, 18664, Note_on_c, 7, 60, 59
10, 18690, Note_on_c, 7, 60, 0
10, 18751, Note_on_c, 7, 59, 0
10, 18759, Note_on_c, 7, 55, 0
10, 18768, Note_on_c, 7, 64, 0
10, 18783, Note_on_c, 7, 62, 59
10, 18783, Note_on_c, 7, 57, 59
10, 18799, Note_on_c, 7, 62, 0
10, 18800, Note_on_c, 7, 57, 0
10, 18843, Note_on_c, 7, 57, 60
10, 18844, Note_on_c, 7, 62, 52
10, 18844, Note_on_c, 7, 53, 58
10, 18904, Note_on_c, 7, 50, 54
10, 18905, Note_on_c, 7, 53, 0
10, 18908, Note_on_c, 7, 57, 0
10, 18910, Note_on_c, 7, 62, 0
10, 18935, Note_on_c, 7, 55, 57
10, 18947, Note_on_c, 7, 50, 0
10, 18955, Note_on_c, 7, 59, 60
10, 18955, Note_on_c, 7, 62, 58
10, 18959, Note_on_c, 7, 55, 0
10, 18986, Note_on_c, 7, 59, 0
10, 18989, Note_on_c, 7, 62, 0
10, 18994, Note_on_c, 7, 53, 57
10, 18994, Note_on_c, 7, 57, 59
10, 18994, Note_on_c, 7, 62, 46
10, 19012, Note_on_c, 7, 62, 0
10, 19012, Note_on_c, 7, 57, 0
10, 19012, Note_on_c, 7, 53, 0
10, 19231, Note_on_c, 7, 50, 51
10, 19233, Note_on_c, 7, 59, 45
10, 19233, Note_on_c, 7, 55, 58
10, 19378, Note_on_c, 7, 62, 52
10, 19409, Note_on_c, 7, 67, 52
10, 19440, Note_on_c, 7, 71, 42
10, 19471, Note_on_c, 7, 74, 69
10, 19497, Note_on_c, 7, 71, 0
10, 19515, Note_on_c, 7, 67, 0
10, 19516, Note_on_c, 7, 74, 0
10, 19523, Note_on_c, 7, 62, 0
10, 19532, Note_on_c, 7, 69, 58
10, 19532, Note_on_c, 7, 72, 54
10, 19532, Note_on_c, 7, 62, 51
10, 19622, Note_on_c, 7, 69, 0
10, 19624, Note_on_c, 7, 72, 0
10, 19626, Note_on_c, 7, 55, 0
10, 19627, Note_on_c, 7, 62, 0
10, 19635, Note_on_c, 7, 50, 0
10, 19635, Note_on_c, 7, 59, 0
10, 19650, Note_on_c, 7, 67, 51
10, 19651, Note_on_c, 7, 71, 54
10, 19651, Note_on_c, 7, 62, 56
10, 19699, Note_on_c, 7, 62, 0
10, 19712, Note_on_c, 7, 67, 0
10, 19737, Note_on_c, 7, 71, 0
10, 20039, Note_on_c, 7, 67, 53
10, 20039, Note_on_c, 7, 71, 45
10, 20056, Note_on_c, 7, 71, 0
10, 20067, Note_on_c, 7, 69, 53
10, 20068, Note_on_c, 7, 72, 59
10, 20075, Note_on_c, 7, 67, 0
10, 20094, Note_on_c, 7, 72, 0
10, 20100, Note_on_c, 7, 69, 0
10, 20128, Note_on_c, 7, 67, 60
10, 20128, Note_on_c, 7, 64, 59
10, 20175, Note_on_c, 7, 67, 0
10, 20177, Note_on_c, 7, 64, 0
10, 20221, Note_on_c, 7, 62, 54
10, 20221, Note_on_c, 7, 65, 58
10, 20248, Note_on_c, 7, 62, 0
10, 20250, Note_on_c, 7, 65, 0
10, 20281, Note_on_c, 7, 64, 55
10, 20281, Note_on_c, 7, 67, 55
10, 20311, Note_on_c, 7, 67, 0
10, 20313, Note_on_c, 7, 64, 0
10, 20343, Note_on_c, 7, 62, 39
10, 20353, Note_on_c, 7, 62, 0
10, 20373, Note_on_c, 7, 69, 60
10, 20373, Note_on_c, 7, 65, 62
10, 20389, Note_on_c, 7, 69, 0
10, 20390, Note_on_c, 7, 65, 0
10, 20433, Note_on_c, 7, 69, 72
10, 20433, Note_on_c, 7, 65, 75
10, 20548, Note_on_c, 7, 65, 0
10, 20548, Note_on_c, 7, 69, 0
10, 20588, Note_on_c, 7, 59, 47
10, 20588, Note_on_c, 7, 62, 41
10, 20598, Note_on_c, 7, 62, 0
10, 20598, Note_on_c, 7, 59, 0
10, 20617, Note_on_c, 7, 59, 60
10, 20618, Note_on_c, 7, 62, 59
10, 20620, Note_on_c, 7, 64, 63
10, 20693, Note_on_c, 7, 62, 0
10, 20694, Note_on_c, 7, 59, 0
10, 20695, Note_on_c, 7, 64, 0
10, 20703, Note_on_c, 7, 64, 54
10, 20704, Note_on_c, 7, 62, 50
10, 20704, Note_on_c, 7, 59, 51
10, 20719, Note_on_c, 7, 64, 0
10, 20724, Note_on_c, 7, 59, 0
10, 20727, Note_on_c, 7, 62, 0
10, 20763, Note_on_c, 7, 64, 58
10, 20764, Note_on_c, 7, 62, 56
10, 20764, Note_on_c, 7, 59, 54
10, 20829, Note_on_c, 7, 59, 0
10, 20829, Note_on_c, 7, 62, 0
10, 20830, Note_on_c, 7, 64, 0
10, 20854, Note_on_c, 7, 64, 57
10, 20870, Note_on_c, 7, 64, 0
10, 20875, Note_on_c, 7, 62, 53
10, 20875, Note_on_c, 7, 59, 53
10, 20887, Note_on_c, 7, 59, 0
10, 20888, Note_on_c, 7, 62, 0
10, 20943, Note_on_c, 7, 65, 58
10, 20943, Note_on_c, 7, 62, 44
10, 20943, Note_on_c, 7, 59, 50
10, 21106, Note_on_c, 7, 59, 0
10, 21149, Note_on_c, 7, 62, 0
10, 21149, Note_on_c, 7, 65, 0
10, 21179, Note_on_c, 7, 59, 48
10, 21191, Note_on_c, 7, 59, 0
10, 21209, Note_on_c, 7, 59, 59
10, 21210, Note_on_c, 7, 64, 59
10, 21211, Note_on_c, 7, 62, 56
10, 21286, Note_on_c, 7, 62, 0
10, 21287, Note_on_c, 7, 64, 0
10, 21290, Note_on_c, 7, 59, 0
10, 21301, Note_on_c, 7, 59, 51
10, 21302, Note_on_c, 7, 62, 50
10, 21302, Note_on_c, 7, 64, 53
10, 21311, Note_on_c, 7, 64, 0
10, 21312, Note_on_c, 7, 59, 0
10, 21313, Note_on_c, 7, 62, 0
10, 21332, Note_on_c, 7, 59, 62
10, 21333, Note_on_c, 7, 64, 69
10, 21333, Note_on_c, 7, 62, 61
10, 21380, Note_on_c, 7, 62, 0
10, 21380, Note_on_c, 7, 64, 0
10, 21383, Note_on_c, 7, 59, 0
10, 21395, Note_on_c, 7, 59, 62
10, 21415, Note_on_c, 7, 62, 60
10, 21415, Note_on_c, 7, 65, 69
10, 21418, Note_on_c, 7, 59, 0
10, 21433, Note_on_c, 7, 62, 0
10, 21436, Note_on_c, 7, 65, 0
10, 21454, Note_on_c, 7, 59, 59
10, 21454, Note_on_c, 7, 64, 60
10, 21454, Note_on_c, 7, 62, 54
10, 21527, Note_on_c, 7, 64, 0
10, 21528, Note_on_c, 7, 62, 0
10, 21528, Note_on_c, 7, 59, 0
10, 21542, Note_on_c, 7, 59, 58
10, 21543, Note_on_c, 7, 65, 62
10, 21543, Note_on_c, 7, 62, 54
10, 21695, Note_on_c, 7, 59, 0
10, 21721, Note_on_c, 7, 59, 49
10, 21725, Note_on_c, 7, 62, 0
10, 21726, Note_on_c, 7, 65, 0
10, 21752, Note_on_c, 7, 62, 54
10, 21780, Note_on_c, 7, 64, 45
10, 21795, Note_on_c, 7, 62, 0
10, 21798, Note_on_c, 7, 64, 0
10, 21812, Note_on_c, 7, 64, 67
10, 21812, Note_on_c, 7, 62, 61
10, 21876, Note_on_c, 7, 59, 0
10, 21899, Note_on_c, 7, 59, 53
10, 21906, Note_on_c, 7, 62, 0
10, 21908, Note_on_c, 7, 64, 0
10, 21931, Note_on_c, 7, 62, 60
10, 21931, Note_on_c, 7, 65, 67
10, 22004, Note_on_c, 7, 62, 0
10, 22004, Note_on_c, 7, 59, 0
10, 22005, Note_on_c, 7, 65, 0
10, 22019, Note_on_c, 7, 59, 58
10, 22021, Note_on_c, 7, 62, 55
10, 22022, Note_on_c, 7, 67, 60
10, 22034, Note_on_c, 7, 62, 0
10, 22036, Note_on_c, 7, 67, 0
10, 22080, Note_on_c, 7, 67, 60
10, 22081, Note_on_c, 7, 62, 56
10, 22120, Note_on_c, 7, 59, 0
10, 22140, Note_on_c, 7, 59, 46
10, 22156, Note_on_c, 7, 67, 0
10, 22158, Note_on_c, 7, 62, 0
10, 22171, Note_on_c, 7, 65, 58
10, 22171, Note_on_c, 7, 62, 54
10, 22245, Note_on_c, 7, 62, 0
10, 22246, Note_on_c, 7, 65, 0
10, 22261, Note_on_c, 7, 67, 53
10, 22262, Note_on_c, 7, 62, 53
10, 22336, Note_on_c, 7, 67, 0
10, 22339, Note_on_c, 7, 62, 0
10, 22349, Note_on_c, 7, 62, 42
10, 22349, Note_on_c, 7, 69, 49
10, 22444, Note_on_c, 7, 59, 0
10, 22515, Note_on_c, 7, 62, 0
10, 22519, Note_on_c, 7, 69, 0
10, 22533, Note_on_c, 7, 55, 55
10, 22563, Note_on_c, 7, 60, 58
10, 22593, Note_on_c, 7, 64, 54
10, 22624, Note_on_c, 7, 67, 53
10, 22654, Note_on_c, 7, 72, 58
10, 22654, Note_on_c, 7, 74, 63
10, 22690, Note_on_c, 7, 72, 0
10, 22751, Note_on_c, 7, 55, 0
10, 22759, Note_on_c, 7, 74, 0
10, 22762, Note_on_c, 7, 67, 0
10, 22764, Note_on_c, 7, 64, 0
10, 22773, Note_on_c, 7, 55, 41
10, 22775, Note_on_c, 7, 67, 63
10, 22795, Note_on_c, 7, 72, 63
10, 22795, Note_on_c, 7, 64, 58
10, 22815, Note_on_c, 7, 55, 0
10, 22821, Note_on_c, 7, 67, 0
10, 22831, Note_on_c, 7, 60, 0
10, 22834, Note_on_c, 7, 71, 56
10, 22834, Note_on_c, 7, 67, 54
10, 22844, Note_on_c, 7, 64, 0
10, 22845, Note_on_c, 7, 72, 0
10, 22855, Note_on_c, 7, 64, 45
10, 22859, Note_on_c, 7, 67, 0
10, 22860, Note_on_c, 7, 71, 0
10, 22879, Note_on_c, 7, 64, 0
10, 22893, Note_on_c, 7, 67, 53
10, 22893, Note_on_c, 7, 69, 52
10, 22894, Note_on_c, 7, 64, 42
10, 22965, Note_on_c, 7, 64, 0
10, 22966, Note_on_c, 7, 67, 0
10, 22967, Note_on_c, 7, 69, 0
10, 22983, Note_on_c, 7, 71, 54
10, 22983, Note_on_c, 7, 64, 47
10, 22984, Note_on_c, 7, 67, 48
10, 23057, Note_on_c, 7, 67, 0
10, 23060, Note_on_c, 7, 64, 0
10, 23065, Note_on_c, 7, 71, 0
10, 23073, Note_on_c, 7, 55, 49
10, 23101, Note_on_c, 7, 60, 52
10, 23133, Note_on_c, 7, 64, 52
10, 23162, Note_on_c, 7, 67, 54
10, 23176, Note_on_c, 7, 64, 0
10, 23180, Note_on_c, 7, 67, 0
10, 23193, Note_on_c, 7, 74, 65
10, 23193, Note_on_c, 7, 67, 64
10, 23193, Note_on_c, 7, 64, 60
10, 23249, Note_on_c, 7, 64, 0
10, 23256, Note_on_c, 7, 67, 0
10, 23262, Note_on_c, 7, 74, 0
10, 23283, Note_on_c, 7, 67, 53
10, 23283, Note_on_c, 7, 72, 52
10, 23283, Note_on_c, 7, 64, 50
10, 23341, Note_on_c, 7, 64, 0
10, 23343, Note_on_c, 7, 72, 0
10, 23351, Note_on_c, 7, 67, 0
10, 23372, Note_on_c, 7, 67, 51
10, 23373, Note_on_c, 7, 71, 53
10, 23373, Note_on_c, 7, 64, 46
10, 23437, Note_on_c, 7, 64, 0
10, 23446, Note_on_c, 7, 67, 0
10, 23446, Note_on_c, 7, 71, 0
10, 23462, Note_on_c, 7, 72, 51
10, 23463, Note_on_c, 7, 67, 47
10, 23464, Note_on_c, 7, 55, 0
10, 23476, Note_on_c, 7, 67, 0
10, 23481, Note_on_c, 7, 72, 0
10, 23485, Note_on_c, 7, 60, 0
10, 23494, Note_on_c, 7, 67, 57
10, 23494, Note_on_c, 7, 69, 58
10, 23495, Note_on_c, 7, 64, 48
10, 23519, Note_on_c, 7, 67, 0
10, 23520, Note_on_c, 7, 64, 0
10, 23520, Note_on_c, 7, 69, 0
10, 23554, Note_on_c, 7, 55, 44
10, 23583, Note_on_c, 7, 60, 42
10, 23613, Note_on_c, 7, 64, 51
10, 23643, Note_on_c, 7, 67, 57
10, 23646, Note_on_c, 7, 64, 0
10, 23673, Note_on_c, 7, 67, 0
10, 23673, Note_on_c, 7, 69, 50
10, 23696, Note_on_c, 7, 69, 0
10, 23702, Note_on_c, 7, 70, 74
10, 23724, Note_on_c, 7, 70, 0
10, 23732, Note_on_c, 7, 72, 60
10, 23758, Note_on_c, 7, 72, 0
10, 23761, Note_on_c, 7, 69, 54
10, 23804, Note_on_c, 7, 69, 0
10, 23815, Note_on_c, 7, 65, 43
10, 23823, Note_on_c, 7, 67, 46
10, 23837, Note_on_c, 7, 65, 0
10, 23851, Note_on_c, 7, 67, 0
10, 23853, Note_on_c, 7, 64, 50
10, 23878, Note_on_c, 7, 64, 0
10, 23882, Note_on_c, 7, 65, 53
10, 23907, Note_on_c, 7, 55, 0
10, 23909, Note_on_c, 7, 65, 0
10, 23910, Note_on_c, 7, 60, 0
10, 23912, Note_on_c, 7, 62, 58
10, 23913, Note_on_c, 7, 65, 53
10, 23927, Note_on_c, 7, 65, 0
10, 23936, Note_on_c, 7, 62, 0
10, 23971, Note_on_c, 7, 62, 59
10, 23971, Note_on_c, 7, 65, 59
10, 24018, Note_on_c, 7, 62, 0
10, 24022, Note_on_c, 7, 65, 0
10, 24031, Note_on_c, 7, 64, 59
10, 24031, Note_on_c, 7, 60, 58
10, 24058, Note_on_c, 7, 60, 0
10, 24061, Note_on_c, 7, 64, 0
10, 24092, Note_on_c, 7, 62, 58
10, 24092, Note_on_c, 7, 59, 54
10, 24132, Note_on_c, 7, 59, 0
10, 24146, Note_on_c, 7, 62, 0
10, 24153, Note_on_c, 7, 64, 57
10, 24153, Note_on_c, 7, 60, 59
10, 24175, Note_on_c, 7, 60, 0
10, 24175, Note_on_c, 7, 64, 0
10, 24392, Note_on_c, 7, 53, 54
10, 24392, Note_on_c, 7, 59, 58
10, 24392, Note_on_c, 7, 62, 64
10, 24411, Note_on_c, 7, 62, 0
10, 24413, Note_on_c, 7, 53, 0
10, 24414, Note_on_c, 7, 59, 0
10, 24542, Note_on_c, 7, 50, 54
10, 24542, Note_on_c, 7, 52, 57
10, 24543, Note_on_c, 7, 60, 60
10, 24543, Note_on_c, 7, 57, 52
10, 24556, Note_on_c, 7, 50, 0
10, 24640, Note_on_c, 7, 52, 0
10, 24646, Note_on_c, 7, 57, 0
10, 24654, Note_on_c, 7, 60, 0
10, 24663, Note_on_c, 7, 53, 58
10, 24664, Note_on_c, 7, 59, 58
10, 24664, Note_on_c, 7, 62, 64
10, 24685, Note_on_c, 7, 62, 0
10, 24686, Note_on_c, 7, 59, 0
10, 24686, Note_on_c, 7, 53, 0
10, 24814, Note_on_c, 7, 55, 56
10, 24814, Note_on_c, 7, 64, 64
10, 24815, Note_on_c, 7, 60, 56
10, 24832, Note_on_c, 7, 60, 0
10, 24833, Note_on_c, 7, 64, 0
10, 24833, Note_on_c, 7, 55, 0
10, 24991, Note_on_c, 7, 56, 48
10, 24992, Note_on_c, 7, 68, 69
10, 24992, Note_on_c, 7, 63, 58
10, 25014, Note_on_c, 7, 63, 0
10, 25019, Note_on_c, 7, 68, 0
10, 25020, Note_on_c, 7, 56, 0
10, 25020, Note_on_c, 7, 62, 57
10, 25021, Note_on_c, 7, 67, 64
10, 25022, Note_on_c, 7, 55, 58
10, 25051, Note_on_c, 7, 55, 0
10, 25052, Note_on_c, 7, 65, 51
10, 25054, Note_on_c, 7, 67, 0
10, 25057, Note_on_c, 7, 62, 0
10, 25073, Note_on_c, 7, 65, 0
10, 25081, Note_on_c, 7, 64, 54
10, 25104, Note_on_c, 7, 64, 0
10, 25111, Note_on_c, 7, 65, 51
10, 25135, Note_on_c, 7, 65, 0
10, 25140, Note_on_c, 7, 62, 57
10, 25159, Note_on_c, 7, 62, 0
10, 25170, Note_on_c, 7, 71, 61
10, 25171, Note_on_c, 7, 67, 59
10, 25195, Note_on_c, 7, 71, 0
10, 25198, Note_on_c, 7, 67, 0
10, 25199, Note_on_c, 7, 53, 58
10, 25201, Note_on_c, 7, 60, 64
10, 25224, Note_on_c, 7, 53, 0
10, 25226, Note_on_c, 7, 60, 0
10, 25382, Note_on_c, 7, 68, 69
10, 25382, Note_on_c, 7, 63, 63
10, 25383, Note_on_c, 7, 54, 50
10, 25383, Note_on_c, 7, 61, 54
10, 25411, Note_on_c, 7, 61, 0
10, 25413, Note_on_c, 7, 62, 62
10, 25413, Note_on_c, 7, 69, 67
10, 25414, Note_on_c, 7, 64, 69
10, 25414, Note_on_c, 7, 55, 53
10, 25417, Note_on_c, 7, 68, 0
10, 25417, Note_on_c, 7, 54, 0
10, 25417, Note_on_c, 7, 63, 0
10, 25542, Note_on_c, 7, 69, 0
10, 25545, Note_on_c, 7, 64, 0
10, 25563, Note_on_c, 7, 64, 59
10, 25563, Note_on_c, 7, 69, 67
10, 25563, Note_on_c, 7, 71, 60
10, 25577, Note_on_c, 7, 55, 0
10, 25580, Note_on_c, 7, 71, 0
10, 25582, Note_on_c, 7, 69, 0
10, 25583, Note_on_c, 7, 64, 0
10, 25586, Note_on_c, 7, 62, 0
10, 25652, Note_on_c, 7, 64, 59
10, 25653, Note_on_c, 7, 71, 59
10, 25653, Note_on_c, 7, 69, 59
10, 25664, Note_on_c, 7, 69, 0
10, 25667, Note_on_c, 7, 71, 0
10, 25667, Note_on_c, 7, 64, 0
10, 25742, Note_on_c, 7, 64, 59
10, 25743, Note_on_c, 7, 71, 59
10, 25743, Note_on_c, 7, 69, 59
10, 25753, Note_on_c, 7, 69, 0
10, 25756, Note_on_c, 7, 71, 0
10, 25756, Note_on_c, 7, 64, 0
10, 25861, Note_on_c, 7, 68, 79
10, 25861, Note_on_c, 7, 54, 49
10, 25862, Note_on_c, 7, 61, 53
10, 25891, Note_on_c, 7, 61, 0
10, 25891, Note_on_c, 7, 69, 72
10, 25891, Note_on_c, 7, 62, 67
10, 25892, Note_on_c, 7, 68, 0
10, 25893, Note_on_c, 7, 55, 56
10, 25894, Note_on_c, 7, 54, 0
10, 25945, Note_on_c, 7, 55, 0
10, 25945, Note_on_c, 7, 69, 0
10, 25947, Note_on_c, 7, 62, 0
10, 25951, Note_on_c, 7, 64, 60
10, 25952, Note_on_c, 7, 71, 60
10, 25952, Note_on_c, 7, 69, 60
10, 25968, Note_on_c, 7, 69, 0
10, 25969, Note_on_c, 7, 64, 0
10, 25970, Note_on_c, 7, 71, 0
10, 26012, Note_on_c, 7, 71, 67
10, 26013, Note_on_c, 7, 64, 63
10, 26013, Note_on_c, 7, 69, 63
10, 26081, Note_on_c, 7, 71, 0
10, 26082, Note_on_c, 7, 69, 0
10, 26082, Note_on_c, 7, 64, 0
10, 26102, Note_on_c, 7, 64, 58
10, 26102, Note_on_c, 7, 71, 59
10, 26103, Note_on_c, 7, 69, 56
10, 26125, Note_on_c, 7, 69, 0
10, 26131, Note_on_c, 7, 64, 0
10, 26139, Note_on_c, 7, 71, 0
10, 26159, Note_on_c, 7, 56, 50
10, 26161, Note_on_c, 7, 70, 64
10, 26161, Note_on_c, 7, 63, 53
10, 26192, Note_on_c, 7, 64, 62
10, 26193, Note_on_c, 7, 63, 0
10, 26194, Note_on_c, 7, 71, 75
10, 26195, Note_on_c, 7, 57, 48
10, 26201, Note_on_c, 7, 56, 0
10, 26202, Note_on_c, 7, 70, 0
10, 26222, Note_on_c, 7, 57, 0
10, 26224, Note_on_c, 7, 71, 0
10, 26226, Note_on_c, 7, 64, 0
10, 26254, Note_on_c, 7, 69, 56
10, 26254, Note_on_c, 7, 72, 51
10, 26274, Note_on_c, 7, 72, 0
10, 26275, Note_on_c, 7, 74, 53
10, 26275, Note_on_c, 7, 71, 59
10, 26286, Note_on_c, 7, 71, 0
10, 26286, Note_on_c, 7, 69, 0
10, 26292, Note_on_c, 7, 74, 0
10, 26313, Note_on_c, 7, 72, 69
10, 26313, Note_on_c, 7, 69, 59
10, 26314, Note_on_c, 7, 76, 67
10, 26337, Note_on_c, 7, 69, 0
10, 26338, Note_on_c, 7, 76, 0
10, 26339, Note_on_c, 7, 72, 0
10, 26374, Note_on_c, 7, 76, 61
10, 26374, Note_on_c, 7, 69, 62
10, 26375, Note_on_c, 7, 72, 65
10, 26490, Note_on_c, 7, 69, 0
10, 26502, Note_on_c, 7, 76, 0
10, 26503, Note_on_c, 7, 72, 0
10, 26523, Note_on_c, 7, 69, 58
10, 26524, Note_on_c, 7, 76, 65
10, 26524, Note_on_c, 7, 72, 67
10, 26725, Note_on_c, 7, 72, 0
10, 26726, Note_on_c, 7, 69, 0
10, 26727, Note_on_c, 7, 76, 0
10, 26733, Note_on_c, 7, 62, 54
10, 26761, Note_on_c, 7, 67, 62
10, 26761, Note_on_c, 7, 71, 60
10, 26779, Note_on_c, 7, 71, 0
10, 26781, Note_on_c, 7, 67, 0
10, 26793, Note_on_c, 7, 65, 59
10, 26793, Note_on_c, 7, 69, 54
10, 26793, Note_on_c, 7, 71, 53
10, 26797, Note_on_c, 7, 71, 0
10, 26808, Note_on_c, 7, 69, 0
10, 26810, Note_on_c, 7, 65, 0
10, 26852, Note_on_c, 7, 65, 54
10, 26852, Note_on_c, 7, 69, 53
10, 26931, Note_on_c, 7, 65, 0
10, 26936, Note_on_c, 7, 69, 0
10, 26942, Note_on_c, 7, 71, 56
10, 26943, Note_on_c, 7, 67, 52
10, 26960, Note_on_c, 7, 71, 0
10, 26962, Note_on_c, 7, 67, 0
10, 26973, Note_on_c, 7, 65, 57
10, 26973, Note_on_c, 7, 69, 58
10, 27101, Note_on_c, 7, 65, 0
10, 27103, Note_on_c, 7, 69, 0
10, 27123, Note_on_c, 7, 64, 50
10, 27125, Note_on_c, 7, 67, 50
10, 27144, Note_on_c, 7, 64, 0
10, 27154, Note_on_c, 7, 65, 53
10, 27155, Note_on_c, 7, 67, 0
10, 27175, Note_on_c, 7, 69, 53
10, 27176, Note_on_c, 7, 65, 0
10, 27183, Note_on_c, 7, 67, 59
10, 27184, Note_on_c, 7, 64, 67
10, 27193, Note_on_c, 7, 69, 0
10, 27213, Note_on_c, 7, 64, 0
10, 27213, Note_on_c, 7, 67, 0
10, 27218, Note_on_c, 7, 62, 0
10, 27393, Note_on_c, 7, 50, 62
10, 27421, Note_on_c, 7, 57, 59
10, 27439, Note_on_c, 7, 57, 0
10, 27449, Note_on_c, 7, 59, 57
10, 27463, Note_on_c, 7, 59, 0
10, 27481, Note_on_c, 7, 64, 65
10, 27481, Note_on_c, 7, 59, 67
10, 27482, Note_on_c, 7, 55, 67
10, 27483, Note_on_c, 7, 57, 67
10, 27488, Note_on_c, 7, 57, 0
10, 27504, Note_on_c, 7, 50, 0
10, 27533, Note_on_c, 7, 55, 0
10, 27538, Note_on_c, 7, 59, 0
10, 27539, Note_on_c, 7, 64, 0
10, 27572, Note_on_c, 7, 57, 63
10, 27572, Note_on_c, 7, 59, 65
10, 27572, Note_on_c, 7, 64, 60
10, 27583, Note_on_c, 7, 59, 0
10, 27584, Note_on_c, 7, 64, 0
10, 27586, Note_on_c, 7, 57, 0
10, 27631, Note_on_c, 7, 64, 59
10, 27631, Note_on_c, 7, 59, 59
10, 27631, Note_on_c, 7, 55, 59
10, 27642, Note_on_c, 7, 59, 0
10, 27643, Note_on_c, 7, 55, 0
10, 27647, Note_on_c, 7, 64, 0
10, 27747, Note_on_c, 7, 50, 59
10, 27778, Note_on_c, 7, 67, 58
10, 27800, Note_on_c, 7, 67, 0
10, 27809, Note_on_c, 7, 69, 43
10, 27822, Note_on_c, 7, 69, 0
10, 27995, Note_on_c, 7, 69, 67
10, 27996, Note_on_c, 7, 76, 64
10, 27997, Note_on_c, 7, 71, 69
10, 28015, Note_on_c, 7, 71, 0
10, 28018, Note_on_c, 7, 69, 0
10, 28022, Note_on_c, 7, 76, 0
10, 28052, Note_on_c, 7, 67, 64
10, 28053, Note_on_c, 7, 74, 65
10, 28054, Note_on_c, 7, 71, 61
10, 28055, Note_on_c, 7, 69, 60
10, 28062, Note_on_c, 7, 71, 0
10, 28063, Note_on_c, 7, 69, 0
10, 28065, Note_on_c, 7, 67, 0
10, 28067, Note_on_c, 7, 74, 0
10, 28088, Note_on_c, 7, 74, 61
10, 28089, Note_on_c, 7, 69, 65
10, 28090, Note_on_c, 7, 67, 59
10, 28107, Note_on_c, 7, 67, 0
10, 28107, Note_on_c, 7, 69, 0
10, 28108, Note_on_c, 7, 74, 0
10, 28132, Note_on_c, 7, 67, 59
10, 28133, Note_on_c, 7, 74, 69
10, 28134, Note_on_c, 7, 69, 69
10, 28152, Note_on_c, 7, 69, 0
10, 28153, Note_on_c, 7, 74, 0
10, 28154, Note_on_c, 7, 67, 0
10, 28173, Note_on_c, 7, 69, 59
10, 28174, Note_on_c, 7, 76, 69
10, 28175, Note_on_c, 7, 71, 69
10, 28184, Note_on_c, 7, 71, 0
10, 28186, Note_on_c, 7, 69, 0
10, 28187, Note_on_c, 7, 76, 0
10, 28213, Note_on_c, 7, 67, 63
10, 28213, Note_on_c, 7, 69, 72
10, 28214, Note_on_c, 7, 74, 74
10, 28257, Note_on_c, 7, 69, 0
10, 28257, Note_on_c, 7, 67, 0
10, 28259, Note_on_c, 7, 74, 0
10, 28275, Note_on_c, 7, 71, 53
10, 28281, Note_on_c, 7, 71, 0
10, 28292, Note_on_c, 7, 69, 62
10, 28293, Note_on_c, 7, 76, 67
10, 28293, Note_on_c, 7, 72, 72
10, 28399, Note_on_c, 7, 69, 0
10, 28400, Note_on_c, 7, 72, 0
10, 28400, Note_on_c, 7, 76, 0
10, 28423, Note_on_c, 7, 69, 59
10, 28425, Note_on_c, 7, 72, 64
10, 28425, Note_on_c, 7, 76, 60
10, 28517, Note_on_c, 7, 69, 0
10, 28519, Note_on_c, 7, 76, 0
10, 28520, Note_on_c, 7, 72, 0
10, 28541, Note_on_c, 7, 77, 67
10, 28541, Note_on_c, 7, 69, 57
10, 28656, Note_on_c, 7, 50, 0
10, 28756, Note_on_c, 7, 69, 0
10, 28762, Note_on_c, 7, 77, 0
10, 28771, Note_on_c, 7, 62, 62
10, 28773, Note_on_c, 7, 67, 64
10, 28889, Note_on_c, 7, 71, 49
10, 28899, Note_on_c, 7, 72, 52
10, 28902, Note_on_c, 7, 71, 0
10, 28916, Note_on_c, 7, 74, 57
10, 28922, Note_on_c, 7, 72, 0
10, 28939, Note_on_c, 7, 74, 0
10, 28951, Note_on_c, 7, 76, 72
10, 28968, Note_on_c, 7, 76, 0
10, 28978, Note_on_c, 7, 74, 61
10, 29001, Note_on_c, 7, 74, 0
10, 29009, Note_on_c, 7, 72, 52
10, 29028, Note_on_c, 7, 72, 0
10, 29042, Note_on_c, 7, 71, 55
10, 29064, Note_on_c, 7, 71, 0
10, 29076, Note_on_c, 7, 72, 46
10, 29099, Note_on_c, 7, 72, 0
10, 29106, Note_on_c, 7, 69, 51
10, 29121, Note_on_c, 7, 69, 0
10, 29137, Note_on_c, 7, 71, 47
10, 29155, Note_on_c, 7, 71, 0
10, 29171, Note_on_c, 7, 74, 55
10, 29172, Note_on_c, 7, 71, 52
10, 29189, Note_on_c, 7, 62, 0
10, 29204, Note_on_c, 7, 67, 0
10, 29207, Note_on_c, 7, 71, 0
10, 29209, Note_on_c, 7, 74, 0
10, 29216, Note_on_c, 7, 65, 53
10, 29217, Note_on_c, 7, 74, 50
10, 29218, Note_on_c, 7, 71, 56
10, 29219, Note_on_c, 7, 67, 54
10, 29235, Note_on_c, 7, 67, 0
10, 29237, Note_on_c, 7, 65, 0
10, 29249, Note_on_c, 7, 74, 0
10, 29251, Note_on_c, 7, 71, 0
10, 29255, Note_on_c, 7, 65, 49
10, 29258, Note_on_c, 7, 71, 42
10, 29259, Note_on_c, 7, 74, 42
10, 29277, Note_on_c, 7, 65, 0
10, 29282, Note_on_c, 7, 74, 0
10, 29284, Note_on_c, 7, 71, 0
10, 29297, Note_on_c, 7, 65, 57
10, 29298, Note_on_c, 7, 74, 59
10, 29299, Note_on_c, 7, 71, 58
10, 29326, Note_on_c, 7, 65, 0
10, 29332, Note_on_c, 7, 74, 0
10, 29334, Note_on_c, 7, 71, 0
10, 29343, Note_on_c, 7, 67, 57
10, 29344, Note_on_c, 7, 71, 51
10, 29345, Note_on_c, 7, 74, 47
10, 29363, Note_on_c, 7, 74, 0
10, 29364, Note_on_c, 7, 67, 0
10, 29366, Note_on_c, 7, 71, 0
10, 29380, Note_on_c, 7, 65, 50
10, 29380, Note_on_c, 7, 71, 47
10, 29381, Note_on_c, 7, 74, 48
10, 29423, Note_on_c, 7, 74, 0
10, 29424, Note_on_c, 7, 65, 0
10, 29425, Note_on_c, 7, 71, 0
10, 29438, Note_on_c, 7, 65, 54
10, 29441, Note_on_c, 7, 71, 59
10, 29443, Note_on_c, 7, 74, 56
10, 29464, Note_on_c, 7, 65, 0
10, 29470, Note_on_c, 7, 67, 57
10, 29489, Note_on_c, 7, 67, 0
10, 29490, Note_on_c, 7, 74, 0
10, 29490, Note_on_c, 7, 71, 0
10, 29501, Note_on_c, 7, 65, 59
10, 29502, Note_on_c, 7, 74, 56
10, 29503, Note_on_c, 7, 71, 59
10, 29546, Note_on_c, 7, 65, 0
10, 29547, Note_on_c, 7, 74, 0
10, 29549, Note_on_c, 7, 71, 0
10, 29559, Note_on_c, 7, 65, 61
10, 29560, Note_on_c, 7, 74, 59
10, 29561, Note_on_c, 7, 71, 63
10, 29678, Note_on_c, 7, 65, 0
10, 29685, Note_on_c, 7, 74, 0
10, 29687, Note_on_c, 7, 71, 0
10, 29702, Note_on_c, 7, 67, 57
10, 29704, Note_on_c, 7, 71, 58
10, 29706, Note_on_c, 7, 74, 50
10, 29718, Note_on_c, 7, 67, 0
10, 29719, Note_on_c, 7, 74, 0
10, 29720, Note_on_c, 7, 71, 0
10, 29733, Note_on_c, 7, 74, 46
10, 29734, Note_on_c, 7, 71, 54
10, 29734, Note_on_c, 7, 65, 57
10, 29936, Note_on_c, 7, 74, 0
10, 29937, Note_on_c, 7, 65, 0
10, 29944, Note_on_c, 7, 71, 0
10, 29947, Note_on_c, 7, 59, 50
10, 29975, Note_on_c, 7, 64, 60
10, 29979, Note_on_c, 7, 69, 72
10, 30096, Note_on_c, 7, 59, 0
10, 30187, Note_on_c, 7, 69, 0
10, 30189, Note_on_c, 7, 64, 0
10, 30194, Note_on_c, 7, 59, 31
10, 30200, Note_on_c, 7, 59, 0
10, 30236, Note_on_c, 7, 59, 63
10, 30239, Note_on_c, 7, 67, 62
10, 30245, Note_on_c, 7, 60, 58
10, 30315, Note_on_c, 7, 59, 0
10, 30316, Note_on_c, 7, 60, 0
10, 30317, Note_on_c, 7, 67, 0
10, 30334, Note_on_c, 7, 59, 57
10, 30335, Note_on_c, 7, 60, 56
10, 30338, Note_on_c, 7, 67, 63
10, 30411, Note_on_c, 7, 60, 0
10, 30411, Note_on_c, 7, 59, 0
10, 30413, Note_on_c, 7, 67, 0
10, 30429, Note_on_c, 7, 59, 59
10, 30430, Note_on_c, 7, 60, 58
10, 30433, Note_on_c, 7, 67, 67
10, 30504, Note_on_c, 7, 67, 0
10, 30505, Note_on_c, 7, 60, 0
10, 30505, Note_on_c, 7, 59, 0
10, 30523, Note_on_c, 7, 60, 58
10, 30524, Note_on_c, 7, 59, 60
10, 30525, Note_on_c, 7, 67, 72
10, 30589, Note_on_c, 7, 67, 0
10, 30591, Note_on_c, 7, 59, 0
10, 30592, Note_on_c, 7, 60, 0
10, 30609, Note_on_c, 7, 67, 72
10, 30610, Note_on_c, 7, 59, 65
10, 30611, Note_on_c, 7, 60, 62
10, 30638, Note_on_c, 7, 69, 52
10, 30666, Note_on_c, 7, 67, 0
10, 30668, Note_on_c, 7, 69, 0
10, 30677, Note_on_c, 7, 60, 0
10, 30678, Note_on_c, 7, 59, 0
10, 30695, Note_on_c, 7, 60, 58
10, 30696, Note_on_c, 7, 59, 60
10, 30697, Note_on_c, 7, 67, 65
10, 30766, Note_on_c, 7, 59, 0
10, 30767, Note_on_c, 7, 67, 0
10, 30768, Note_on_c, 7, 60, 0
10, 30781, Note_on_c, 7, 64, 54
10, 30782, Note_on_c, 7, 65, 59
10, 30783, Note_on_c, 7, 69, 54
10, 30847, Note_on_c, 7, 65, 0
10, 30848, Note_on_c, 7, 64, 0
10, 30849, Note_on_c, 7, 69, 0
10, 30871, Note_on_c, 7, 64, 63
10, 30872, Note_on_c, 7, 65, 72
10, 30873, Note_on_c, 7, 69, 63
10, 30937, Note_on_c, 7, 65, 0
10, 30937, Note_on_c, 7, 64, 0
10, 30938, Note_on_c, 7, 69, 0
10, 30963, Note_on_c, 7, 65, 74
10, 30964, Note_on_c, 7, 64, 65
10, 30965, Note_on_c, 7, 69, 69
10, 31024, Note_on_c, 7, 64, 0
10, 31028, Note_on_c, 7, 65, 0
10, 31033, Note_on_c, 7, 69, 0
10, 31054, Note_on_c, 7, 59, 65
10, 31055, Note_on_c, 7, 60, 60
10, 31056, Note_on_c, 7, 67, 67
10, 31114, Note_on_c, 7, 59, 0
10, 31116, Note_on_c, 7, 60, 0
10, 31118, Note_on_c, 7, 67, 0
10, 31145, Note_on_c, 7, 65, 61
10, 31145, Note_on_c, 7, 72, 59
10, 31146, Note_on_c, 7, 71, 65
10, 31246, Note_on_c, 7, 65, 0
10, 31248, Note_on_c, 7, 71, 0
10, 31250, Note_on_c, 7, 72, 0
10, 31266, Note_on_c, 7, 65, 57
10, 31266, Note_on_c, 7, 72, 58
10, 31267, Note_on_c, 7, 69, 62
10, 31585, Note_on_c, 7, 69, 0
10, 31587, Note_on_c, 7, 72, 0
10, 31590, Note_on_c, 7, 65, 0
10, 31614, Note_on_c, 7, 55, 54
10, 31615, Note_on_c, 7, 59, 60
10, 31615, Note_on_c, 7, 62, 58
10, 31616, Note_on_c, 7, 65, 79
10, 31748, Note_on_c, 7, 62, 0
10, 31752, Note_on_c, 7, 55, 0
10, 31754, Note_on_c, 7, 59, 0
10, 31792, Note_on_c, 7, 65, 0
10, 31796, Note_on_c, 7, 64, 69
10, 31798, Note_on_c, 7, 53, 59
10, 31799, Note_on_c, 7, 60, 59
10, 31843, Note_on_c, 7, 64, 0
10, 31844, Note_on_c, 7, 62, 59
10, 31863, Note_on_c, 7, 64, 48
10, 31864, Note_on_c, 7, 62, 0
10, 31868, Note_on_c, 7, 53, 0
10, 31878, Note_on_c, 7, 60, 0
10, 31890, Note_on_c, 7, 65, 54
10, 31894, Note_on_c, 7, 64, 0
10, 31909, Note_on_c, 7, 65, 0
10, 31912, Note_on_c, 7, 55, 54
10, 31913, Note_on_c, 7, 62, 51
10, 31916, Note_on_c, 7, 67, 59
10, 31937, Note_on_c, 7, 65, 54
10, 31943, Note_on_c, 7, 67, 0
10, 31950, Note_on_c, 7, 64, 51
10, 31954, Note_on_c, 7, 65, 0
10, 31970, Note_on_c, 7, 67, 63
10, 31971, Note_on_c, 7, 55, 0
10, 31973, Note_on_c, 7, 64, 0
10, 31977, Note_on_c, 7, 62, 0
10, 31988, Note_on_c, 7, 57, 58
10, 31989, Note_on_c, 7, 64, 61
10, 31990, Note_on_c, 7, 62, 61
10, 31994, Note_on_c, 7, 67, 0
10, 32013, Note_on_c, 7, 65, 59
10, 32026, Note_on_c, 7, 62, 0
10, 32027, Note_on_c, 7, 64, 0
10, 32028, Note_on_c, 7, 57, 0
10, 32029, Note_on_c, 7, 67, 50
10, 32030, Note_on_c, 7, 65, 0
10, 32041, Note_on_c, 7, 70, 50
10, 32048, Note_on_c, 7, 69, 55
10, 32051, Note_on_c, 7, 67, 0
10, 32061, Note_on_c, 7, 70, 0
10, 32062, Note_on_c, 7, 69, 0
10, 32073, Note_on_c, 7, 65, 58
10, 32077, Note_on_c, 7, 56, 62
10, 32078, Note_on_c, 7, 63, 59
10, 32080, Note_on_c, 7, 70, 74
10, 32081, Note_on_c, 7, 69, 67
10, 32083, Note_on_c, 7, 61, 59
10, 32088, Note_on_c, 7, 61, 0
10, 32089, Note_on_c, 7, 65, 0
10, 32098, Note_on_c, 7, 68, 38
10, 32104, Note_on_c, 7, 69, 0
10, 32107, Note_on_c, 7, 70, 0
10, 32116, Note_on_c, 7, 67, 46
10, 32117, Note_on_c, 7, 62, 60
10, 32118, Note_on_c, 7, 63, 0
10, 32118, Note_on_c, 7, 64, 65
10, 32120, Note_on_c, 7, 55, 67
10, 32121, Note_on_c, 7, 64, 0
10, 32121, Note_on_c, 7, 56, 0
10, 32127, Note_on_c, 7, 68, 0
10, 32135, Note_on_c, 7, 67, 0
10, 32136, Note_on_c, 7, 65, 60
10, 32141, Note_on_c, 7, 62, 0
10, 32156, Note_on_c, 7, 55, 0
10, 32165, Note_on_c, 7, 64, 58
10, 32166, Note_on_c, 7, 62, 51
10, 32172, Note_on_c, 7, 60, 65
10, 32175, Note_on_c, 7, 65, 0
10, 32180, Note_on_c, 7, 64, 0
10, 32188, Note_on_c, 7, 62, 0
10, 32190, Note_on_c, 7, 59, 59
10, 32195, Note_on_c, 7, 60, 0
10, 32210, Note_on_c, 7, 59, 0
10, 32212, Note_on_c, 7, 61, 67
10, 32215, Note_on_c, 7, 61, 0
10, 32218, Note_on_c, 7, 60, 56
10, 32219, Note_on_c, 7, 59, 72
10, 32230, Note_on_c, 7, 57, 61
10, 32235, Note_on_c, 7, 60, 0
10, 32239, Note_on_c, 7, 59, 0
10, 32248, Note_on_c, 7, 55, 72
10, 32252, Note_on_c, 7, 57, 0
10, 32263, Note_on_c, 7, 50, 64
10, 32265, Note_on_c, 7, 55, 0
10, 32283, Note_on_c, 7, 62, 69
10, 32283, Note_on_c, 7, 57, 72
10, 32284, Note_on_c, 7, 53, 65
10, 32319, Note_on_c, 7, 53, 0
10, 32327, Note_on_c, 7, 57, 0
10, 32331, Note_on_c, 7, 59, 57
10, 32332, Note_on_c, 7, 55, 58
10, 32352, Note_on_c, 7, 55, 0
10, 32357, Note_on_c, 7, 62, 0
10, 32359, Note_on_c, 7, 59, 0
10, 32360, Note_on_c, 7, 50, 0
10, 32370, Note_on_c, 7, 62, 58
10, 32371, Note_on_c, 7, 57, 67
10, 32372, Note_on_c, 7, 53, 65
10, 32430, Note_on_c, 7, 53, 0
10, 32445, Note_on_c, 7, 57, 0
10, 32452, Note_on_c, 7, 62, 0
10, 32453, Note_on_c, 7, 50, 59
10, 32498, Note_on_c, 7, 57, 65
10, 32499, Note_on_c, 7, 59, 59
10, 32500, Note_on_c, 7, 64, 54
10, 32501, Note_on_c, 7, 65, 56
10, 32509, Note_on_c, 7, 65, 0
10, 32660, Note_on_c, 7, 50, 0
10, 32674, Note_on_c, 7, 59, 0
10, 32676, Note_on_c, 7, 57, 0
10, 32677, Note_on_c, 7, 64, 0
10, 32687, Note_on_c, 7, 50, 55
10, 32696, Note_on_c, 7, 64, 69
10, 32697, Note_on_c, 7, 59, 69
10, 32706, Note_on_c, 7, 57, 65
10, 32735, Note_on_c, 7, 57, 0
10, 32751, Note_on_c, 7, 59, 0
10, 32753, Note_on_c, 7, 64, 0
10, 32760, Note_on_c, 7, 57, 79
10, 32764, Note_on_c, 7, 59, 69
10, 32765, Note_on_c, 7, 64, 72
10, 32793, Note_on_c, 7, 57, 0
10, 32826, Note_on_c, 7, 50, 0
10, 32833, Note_on_c, 7, 50, 58
10, 32842, Note_on_c, 7, 59, 0
10, 32842, Note_on_c, 7, 64, 0
10, 32855, Note_on_c, 7, 59, 65
10, 32856, Note_on_c, 7, 64, 74
10, 32889, Note_on_c, 7, 59, 0
10, 32891, Note_on_c, 7, 64, 0
10, 32915, Note_on_c, 7, 59, 69
10, 32916, Note_on_c, 7, 64, 72
10, 32917, Note_on_c, 7, 57, 64
10, 32952, Note_on_c, 7, 57, 0
10, 32957, Note_on_c, 7, 59, 0
10, 32958, Note_on_c, 7, 64, 0
10, 32978, Note_on_c, 7, 57, 39
10, 32979, Note_on_c, 7, 64, 67
10, 32980, Note_on_c, 7, 59, 67
10, 33006, Note_on_c, 7, 57, 0
10, 33036, Note_on_c, 7, 57, 67
10, 33043, Note_on_c, 7, 59, 0
10, 33045, Note_on_c, 7, 64, 0
10, 33061, Note_on_c, 7, 57, 0
10, 33066, Note_on_c, 7, 64, 65
10, 33067, Note_on_c, 7, 59, 64
10, 33092, Note_on_c, 7, 57, 79
10, 33106, Note_on_c, 7, 50, 0
10, 33121, Note_on_c, 7, 57, 0
10, 33127, Note_on_c, 7, 50, 62
10, 33153, Note_on_c, 7, 57, 63
10, 33165, Note_on_c, 7, 59, 0
10, 33168, Note_on_c, 7, 64, 0
10, 33183, Note_on_c, 7, 59, 59
10, 33184, Note_on_c, 7, 64, 62
10, 33187, Note_on_c, 7, 57, 0
10, 33200, Note_on_c, 7, 59, 0
10, 33202, Note_on_c, 7, 64, 0
10, 33204, Note_on_c, 7, 57, 57
10, 33223, Note_on_c, 7, 57, 0
10, 33238, Note_on_c, 7, 64, 67
10, 33239, Note_on_c, 7, 59, 63
10, 33272, Note_on_c, 7, 57, 60
10, 33289, Note_on_c, 7, 57, 0
10, 33317, Note_on_c, 7, 59, 0
10, 33319, Note_on_c, 7, 64, 0
10, 33330, Note_on_c, 7, 64, 63
10, 33331, Note_on_c, 7, 59, 62
10, 33358, Note_on_c, 7, 59, 0
10, 33360, Note_on_c, 7, 64, 0
10, 33390, Note_on_c, 7, 64, 63
10, 33391, Note_on_c, 7, 59, 63
10, 33421, Note_on_c, 7, 57, 64
10, 33443, Note_on_c, 7, 59, 0
10, 33447, Note_on_c, 7, 64, 0
10, 33480, Note_on_c, 7, 64, 67
10, 33481, Note_on_c, 7, 59, 67
10, 33491, Note_on_c, 7, 57, 0
10, 33546, Note_on_c, 7, 57, 74
10, 33553, Note_on_c, 7, 59, 0
10, 33556, Note_on_c, 7, 64, 0
10, 33569, Note_on_c, 7, 64, 58
10, 33570, Note_on_c, 7, 59, 58
10, 33577, Note_on_c, 7, 50, 0
10, 33589, Note_on_c, 7, 57, 0
10, 33599, Note_on_c, 7, 50, 64
10, 33629, Note_on_c, 7, 59, 0
10, 33631, Note_on_c, 7, 57, 64
10, 33633, Note_on_c, 7, 64, 0
10, 33662, Note_on_c, 7, 59, 60
10, 33671, Note_on_c, 7, 57, 0
10, 33681, Note_on_c, 7, 59, 0
10, 33693, Note_on_c, 7, 57, 67
10, 33720, Note_on_c, 7, 64, 75
10, 33721, Note_on_c, 7, 59, 67
10, 33740, Note_on_c, 7, 57, 0
10, 33788, Note_on_c, 7, 57, 14
10, 33799, Note_on_c, 7, 59, 0
10, 33802, Note_on_c, 7, 64, 0
10, 33817, Note_on_c, 7, 57, 0
10, 33821, Note_on_c, 7, 64, 63
10, 33822, Note_on_c, 7, 59, 62
10, 33834, Note_on_c, 7, 59, 0
10, 33835, Note_on_c, 7, 64, 0
10, 33879, Note_on_c, 7, 64, 59
10, 33879, Note_on_c, 7, 59, 59
10, 33907, Note_on_c, 7, 57, 62
10, 33937, Note_on_c, 7, 59, 0
10, 33941, Note_on_c, 7, 64, 0
10, 33942, Note_on_c, 7, 57, 0
10, 33964, Note_on_c, 7, 59, 60
10, 33965, Note_on_c, 7, 64, 63
10, 33967, Note_on_c, 7, 57, 58
10, 33994, Note_on_c, 7, 57, 0
10, 34031, Note_on_c, 7, 57, 60
10, 34040, Note_on_c, 7, 59, 0
10, 34041, Note_on_c, 7, 64, 0
10, 34053, Note_on_c, 7, 50, 0
10, 34057, Note_on_c, 7, 64, 52
10, 34058, Note_on_c, 7, 59, 55
10, 34076, Note_on_c, 7, 57, 0
10, 34083, Note_on_c, 7, 50, 59
10, 34122, Note_on_c, 7, 57, 63
10, 34129, Note_on_c, 7, 59, 0
10, 34132, Note_on_c, 7, 64, 0
10, 34150, Note_on_c, 7, 59, 58
10, 34151, Note_on_c, 7, 64, 58
10, 34156, Note_on_c, 7, 57, 0
10, 34164, Note_on_c, 7, 64, 0
10, 34165, Note_on_c, 7, 59, 0
10, 34173, Note_on_c, 7, 57, 52
10, 34191, Note_on_c, 7, 57, 0
10, 34204, Note_on_c, 7, 64, 64
10, 34204, Note_on_c, 7, 59, 67
10, 34265, Note_on_c, 7, 57, 47
10, 34275, Note_on_c, 7, 59, 0
10, 34278, Note_on_c, 7, 64, 0
10, 34284, Note_on_c, 7, 57, 0
10, 34294, Note_on_c, 7, 64, 59
10, 34295, Note_on_c, 7, 59, 60
10, 34311, Note_on_c, 7, 59, 0
10, 34312, Note_on_c, 7, 64, 0
10, 34375, Note_on_c, 7, 57, 62
10, 34381, Note_on_c, 7, 64, 61
10, 34382, Note_on_c, 7, 59, 62
10, 34395, Note_on_c, 7, 57, 0
10, 34447, Note_on_c, 7, 57, 60
10, 34457, Note_on_c, 7, 59, 0
10, 34460, Note_on_c, 7, 64, 0
10, 34471, Note_on_c, 7, 57, 0
10, 34476, Note_on_c, 7, 64, 58
10, 34478, Note_on_c, 7, 59, 60
10, 34516, Note_on_c, 7, 57, 59
10, 34526, Note_on_c, 7, 59, 0
10, 34528, Note_on_c, 7, 64, 0
10, 34539, Note_on_c, 7, 64, 58
10, 34540, Note_on_c, 7, 59, 59
10, 34541, Note_on_c, 7, 50, 0
10, 34553, Note_on_c, 7, 57, 0
10, 34559, Note_on_c, 7, 50, 61
10, 34593, Note_on_c, 7, 57, 58
10, 34594, Note_on_c, 7, 59, 0
10, 34599, Note_on_c, 7, 64, 0
10, 34622, Note_on_c, 7, 59, 60
10, 34624, Note_on_c, 7, 64, 59
10, 34625, Note_on_c, 7, 57, 0
10, 34641, Note_on_c, 7, 59, 0
10, 34644, Note_on_c, 7, 64, 0
10, 34653, Note_on_c, 7, 57, 60
10, 34680, Note_on_c, 7, 64, 67
10, 34681, Note_on_c, 7, 59, 67
10, 34682, Note_on_c, 7, 57, 0
10, 34748, Note_on_c, 7, 57, 60
10, 34755, Note_on_c, 7, 59, 0
10, 34757, Note_on_c, 7, 64, 0
10, 34772, Note_on_c, 7, 57, 0
10, 34778, Note_on_c, 7, 59, 63
10, 34779, Note_on_c, 7, 64, 60
10, 34797, Note_on_c, 7, 59, 0
10, 34799, Note_on_c, 7, 64, 0
10, 34838, Note_on_c, 7, 64, 67
10, 34838, Note_on_c, 7, 59, 65
10, 34862, Note_on_c, 7, 57, 63
10, 34887, Note_on_c, 7, 57, 0
10, 34899, Note_on_c, 7, 59, 0
10, 34902, Note_on_c, 7, 64, 0
10, 34924, Note_on_c, 7, 64, 64
10, 34924, Note_on_c, 7, 59, 64
10, 34985, Note_on_c, 7, 59, 0
10, 34987, Note_on_c, 7, 64, 0
10, 34988, Note_on_c, 7, 57, 69
10, 35014, Note_on_c, 7, 64, 63
10, 35015, Note_on_c, 7, 59, 64
10, 35020, Note_on_c, 7, 50, 0
10, 35026, Note_on_c, 7, 57, 0
10, 35043, Note_on_c, 7, 50, 60
10, 35071, Note_on_c, 7, 59, 0
10, 35072, Note_on_c, 7, 64, 0
10, 35074, Note_on_c, 7, 57, 63
10, 35101, Note_on_c, 7, 59, 61
10, 35102, Note_on_c, 7, 64, 59
10, 35109, Note_on_c, 7, 57, 0
10, 35124, Note_on_c, 7, 59, 0
10, 35125, Note_on_c, 7, 64, 0
10, 35132, Note_on_c, 7, 57, 59
10, 35162, Note_on_c, 7, 64, 69
10, 35163, Note_on_c, 7, 57, 0
10, 35163, Note_on_c, 7, 59, 67
10, 35223, Note_on_c, 7, 57, 58
10, 35233, Note_on_c, 7, 59, 0
10, 35235, Note_on_c, 7, 64, 0
10, 35237, Note_on_c, 7, 57, 0
10, 35258, Note_on_c, 7, 59, 65
10, 35258, Note_on_c, 7, 64, 63
10, 35274, Note_on_c, 7, 59, 0
10, 35277, Note_on_c, 7, 64, 0
10, 35315, Note_on_c, 7, 64, 65
10, 35316, Note_on_c, 7, 59, 65
10, 35341, Note_on_c, 7, 57, 56
10, 35371, Note_on_c, 7, 57, 0
10, 35388, Note_on_c, 7, 59, 0
10, 35389, Note_on_c, 7, 64, 0
10, 35405, Note_on_c, 7, 64, 67
10, 35406, Note_on_c, 7, 59, 69
10, 35462, Note_on_c, 7, 57, 62
10, 35468, Note_on_c, 7, 59, 0
10, 35472, Note_on_c, 7, 64, 0
10, 35490, Note_on_c, 7, 59, 67
10, 35491, Note_on_c, 7, 64, 69
10, 35496, Note_on_c, 7, 50, 0
10, 35504, Note_on_c, 7, 57, 0
10, 35517, Note_on_c, 7, 50, 59
10, 35548, Note_on_c, 7, 59, 0
10, 35549, Note_on_c, 7, 64, 0
10, 35554, Note_on_c, 7, 57, 61
10, 35581, Note_on_c, 7, 65, 63
10, 35582, Note_on_c, 7, 62, 69
10, 35603, Note_on_c, 7, 62, 0
10, 35604, Note_on_c, 7, 65, 0
10, 35641, Note_on_c, 7, 62, 72
10, 35641, Note_on_c, 7, 65, 72
10, 35678, Note_on_c, 7, 50, 0
10, 35689, Note_on_c, 7, 57, 0
10, 35701, Note_on_c, 7, 50, 61
10, 35736, Note_on_c, 7, 57, 79
10, 35749, Note_on_c, 7, 62, 0
10, 35751, Note_on_c, 7, 65, 0
10, 35766, Note_on_c, 7, 62, 59
10, 35767, Note_on_c, 7, 65, 61
10, 35778, Note_on_c, 7, 57, 0
10, 35793, Note_on_c, 7, 62, 0
10, 35795, Note_on_c, 7, 65, 0
10, 35795, Note_on_c, 7, 57, 51
10, 35810, Note_on_c, 7, 57, 0
10, 35827, Note_on_c, 7, 65, 79
10, 35828, Note_on_c, 7, 62, 74
10, 35915, Note_on_c, 7, 62, 0
10, 35915, Note_on_c, 7, 65, 0
10, 35931, Note_on_c, 7, 65, 58
10, 35932, Note_on_c, 7, 62, 57
10, 35943, Note_on_c, 7, 65, 0
10, 35944, Note_on_c, 7, 62, 0
10, 35984, Note_on_c, 7, 62, 69
10, 35985, Note_on_c, 7, 65, 75
10, 35993, Note_on_c, 7, 50, 0
10, 35993, Note_on_c, 7, 57, 59
10, 36007, Note_on_c, 7, 57, 0
10, 36007, Note_on_c, 7, 50, 62
10, 36034, Note_on_c, 7, 65, 0
10, 36037, Note_on_c, 7, 62, 0
10, 36038, Note_on_c, 7, 57, 72
10, 36065, Note_on_c, 7, 62, 58
10, 36066, Note_on_c, 7, 65, 60
10, 36080, Note_on_c, 7, 62, 0
10, 36081, Note_on_c, 7, 65, 0
10, 36088, Note_on_c, 7, 57, 0
10, 36097, Note_on_c, 7, 57, 53
10, 36124, Note_on_c, 7, 65, 87
10, 36124, Note_on_c, 7, 62, 79
10, 36130, Note_on_c, 7, 57, 0
10, 36187, Note_on_c, 7, 57, 72
10, 36191, Note_on_c, 7, 62, 0
10, 36197, Note_on_c, 7, 65, 0
10, 36216, Note_on_c, 7, 62, 63
10, 36217, Note_on_c, 7, 65, 64
10, 36218, Note_on_c, 7, 64, 65
10, 36225, Note_on_c, 7, 57, 0
10, 36227, Note_on_c, 7, 64, 0
10, 36245, Note_on_c, 7, 65, 0
10, 36246, Note_on_c, 7, 62, 0
10, 36247, Note_on_c, 7, 57, 63
10, 36272, Note_on_c, 7, 65, 63
10, 36274, Note_on_c, 7, 62, 54
10, 36284, Note_on_c, 7, 62, 0
10, 36285, Note_on_c, 7, 65, 0
10, 36303, Note_on_c, 7, 65, 75
10, 36304, Note_on_c, 7, 62, 63
10, 36305, Note_on_c, 7, 69, 79
10, 36307, Note_on_c, 7, 57, 0
10, 36329, Note_on_c, 7, 57, 59
10, 36333, Note_on_c, 7, 69, 0
10, 36334, Note_on_c, 7, 65, 0
10, 36335, Note_on_c, 7, 62, 0
10, 36344, Note_on_c, 7, 57, 0
10, 36362, Note_on_c, 7, 69, 84
10, 36363, Note_on_c, 7, 62, 69
10, 36364, Note_on_c, 7, 65, 79
10, 36397, Note_on_c, 7, 57, 64
10, 36411, Note_on_c, 7, 57, 0
10, 36415, Note_on_c, 7, 62, 0
10, 36416, Note_on_c, 7, 65, 0
10, 36417, Note_on_c, 7, 69, 0
10, 36427, Note_on_c, 7, 57, 74
10, 36452, Note_on_c, 7, 69, 84
10, 36453, Note_on_c, 7, 65, 79
10, 36453, Note_on_c, 7, 62, 67
10, 36454, Note_on_c, 7, 50, 0
10, 36463, Note_on_c, 7, 57, 0
10, 36479, Note_on_c, 7, 50, 69
10, 36492, Note_on_c, 7, 65, 0
10, 36493, Note_on_c, 7, 62, 0
10, 36500, Note_on_c, 7, 69, 0
10, 36515, Note_on_c, 7, 62, 79
10, 36537, Note_on_c, 7, 62, 0
10, 36543, Note_on_c, 7, 57, 79
10, 36571, Note_on_c, 7, 62, 64
10, 36572, Note_on_c, 7, 65, 65
10, 36582, Note_on_c, 7, 65, 0
10, 36584, Note_on_c, 7, 62, 0
10, 36601, Note_on_c, 7, 65, 75
10, 36602, Note_on_c, 7, 62, 65
10, 36603, Note_on_c, 7, 69, 94
10, 36629, Note_on_c, 7, 57, 0
10, 36663, Note_on_c, 7, 57, 74
10, 36672, Note_on_c, 7, 62, 0
10, 36673, Note_on_c, 7, 69, 0
10, 36674, Note_on_c, 7, 65, 0
10, 36697, Note_on_c, 7, 62, 75
10, 36698, Note_on_c, 7, 65, 84
10, 36699, Note_on_c, 7, 69, 79
10, 36702, Note_on_c, 7, 57, 0
10, 36718, Note_on_c, 7, 57, 67
10, 36735, Note_on_c, 7, 62, 0
10, 36738, Note_on_c, 7, 69, 0
10, 36739, Note_on_c, 7, 65, 0
10, 36760, Note_on_c, 7, 71, 67
10, 36761, Note_on_c, 7, 65, 65
10, 36762, Note_on_c, 7, 62, 62
10, 36771, Note_on_c, 7, 57, 0
10, 36773, Note_on_c, 7, 65, 0
10, 36774, Note_on_c, 7, 62, 0
10, 36776, Note_on_c, 7, 71, 0
10, 36788, Note_on_c, 7, 62, 60
10, 36789, Note_on_c, 7, 65, 72
10, 36790, Note_on_c, 7, 69, 74
10, 36814, Note_on_c, 7, 57, 57
10, 36821, Note_on_c, 7, 65, 0
10, 36821, Note_on_c, 7, 62, 0
10, 36822, Note_on_c, 7, 69, 0
10, 36840, Note_on_c, 7, 57, 0
10, 36843, Note_on_c, 7, 62, 75
10, 36844, Note_on_c, 7, 69, 94
10, 36844, Note_on_c, 7, 65, 94
10, 36873, Note_on_c, 7, 57, 65
10, 36893, Note_on_c, 7, 62, 0
10, 36897, Note_on_c, 7, 65, 0
10, 36897, Note_on_c, 7, 69, 0
10, 36904, Note_on_c, 7, 62, 63
10, 36934, Note_on_c, 7, 69, 84
10, 36934, Note_on_c, 7, 65, 72
10, 36940, Note_on_c, 7, 50, 0
10, 36948, Note_on_c, 7, 57, 0
10, 36962, Note_on_c, 7, 50, 65
10, 36976, Note_on_c, 7, 62, 0
10, 36988, Note_on_c, 7, 65, 0
10, 36988, Note_on_c, 7, 69, 0
10, 36994, Note_on_c, 7, 57, 62
10, 37023, Note_on_c, 7, 65, 64
10, 37023, Note_on_c, 7, 62, 64
10, 37031, Note_on_c, 7, 57, 0
10, 37044, Note_on_c, 7, 62, 0
10, 37046, Note_on_c, 7, 65, 0
10, 37054, Note_on_c, 7, 57, 67
10, 37083, Note_on_c, 7, 62, 79
10, 37083, Note_on_c, 7, 65, 87
10, 37125, Note_on_c, 7, 57, 0
10, 37143, Note_on_c, 7, 57, 58
10, 37164, Note_on_c, 7, 62, 0
10, 37165, Note_on_c, 7, 65, 0
10, 37191, Note_on_c, 7, 57, 0
10, 37195, Note_on_c, 7, 62, 69
10, 37195, Note_on_c, 7, 65, 69
10, 37226, Note_on_c, 7, 57, 62
10, 37237, Note_on_c, 7, 62, 0
10, 37239, Note_on_c, 7, 65, 0
10, 37255, Note_on_c, 7, 57, 0
10, 37255, Note_on_c, 7, 60, 63
10, 37256, Note_on_c, 7, 65, 54
10, 37264, Note_on_c, 7, 62, 74
10, 37264, Note_on_c, 7, 65, 60
10, 37267, Note_on_c, 7, 65, 0
10, 37272, Note_on_c, 7, 60, 0
10, 37302, Note_on_c, 7, 65, 0
10, 37304, Note_on_c, 7, 62, 0
10, 37323, Note_on_c, 7, 62, 75
10, 37323, Note_on_c, 7, 65, 67
10, 37323, Note_on_c, 7, 57, 74
10, 37366, Note_on_c, 7, 57, 0
10, 37374, Note_on_c, 7, 62, 0
10, 37383, Note_on_c, 7, 57, 60
10, 37383, Note_on_c, 7, 60, 63
10, 37396, Note_on_c, 7, 65, 0
10, 37403, Note_on_c, 7, 60, 0
10, 37413, Note_on_c, 7, 65, 59
10, 37413, Note_on_c, 7, 62, 60
10, 37418, Note_on_c, 7, 50, 0
10, 37430, Note_on_c, 7, 57, 0
10, 37442, Note_on_c, 7, 50, 65
10, 37455, Note_on_c, 7, 62, 0
10, 37461, Note_on_c, 7, 65, 0
10, 37473, Note_on_c, 7, 57, 64
10, 37502, Note_on_c, 7, 62, 62
10, 37502, Note_on_c, 7, 65, 65
10, 37516, Note_on_c, 7, 57, 0
10, 37520, Note_on_c, 7, 65, 0
10, 37520, Note_on_c, 7, 62, 0
10, 37533, Note_on_c, 7, 57, 55
10, 37562, Note_on_c, 7, 65, 84
10, 37562, Note_on_c, 7, 62, 84
10, 37591, Note_on_c, 7, 57, 0
10, 37623, Note_on_c, 7, 57, 60
10, 37636, Note_on_c, 7, 62, 0
10, 37636, Note_on_c, 7, 65, 0
10, 37653, Note_on_c, 7, 62, 69
10, 37654, Note_on_c, 7, 65, 72
10, 37655, Note_on_c, 7, 57, 0
10, 37683, Note_on_c, 7, 57, 56
10, 37690, Note_on_c, 7, 62, 0
10, 37691, Note_on_c, 7, 65, 0
10, 37695, Note_on_c, 7, 57, 0
10, 37712, Note_on_c, 7, 65, 60
10, 37713, Note_on_c, 7, 62, 59
10, 37730, Note_on_c, 7, 62, 0
10, 37731, Note_on_c, 7, 65, 0
10, 37742, Note_on_c, 7, 60, 63
10, 37742, Note_on_c, 7, 65, 57
10, 37758, Note_on_c, 7, 65, 0
10, 37763, Note_on_c, 7, 60, 0
10, 37769, Note_on_c, 7, 57, 62
10, 37798, Note_on_c, 7, 57, 0
10, 37801, Note_on_c, 7, 65, 69
10, 37801, Note_on_c, 7, 62, 74
10, 37859, Note_on_c, 7, 62, 0
10, 37859, Note_on_c, 7, 65, 0
10, 37861, Note_on_c, 7, 57, 65
10, 37863, Note_on_c, 7, 60, 72
10, 37863, Note_on_c, 7, 65, 56
10, 37884, Note_on_c, 7, 65, 0
10, 37884, Note_on_c, 7, 60, 0
10, 37892, Note_on_c, 7, 65, 47
10, 37893, Note_on_c, 7, 62, 59
10, 37906, Note_on_c, 7, 50, 0
10, 37916, Note_on_c, 7, 57, 0
10, 37922, Note_on_c, 7, 50, 59
10, 37933, Note_on_c, 7, 65, 0
10, 37933, Note_on_c, 7, 62, 0
10, 37953, Note_on_c, 7, 57, 59
10, 37983, Note_on_c, 7, 65, 72
10, 37983, Note_on_c, 7, 62, 67
10, 37995, Note_on_c, 7, 57, 0
10, 38001, Note_on_c, 7, 62, 0
10, 38005, Note_on_c, 7, 65, 0
10, 38013, Note_on_c, 7, 57, 58
10, 38032, Note_on_c, 7, 57, 0
10, 38042, Note_on_c, 7, 62, 94
10, 38043, Note_on_c, 7, 65, 75
10, 38043, Note_on_c, 7, 64, 64
10, 38046, Note_on_c, 7, 64, 0
10, 38099, Note_on_c, 7, 57, 59
10, 38114, Note_on_c, 7, 65, 0
10, 38115, Note_on_c, 7, 62, 0
10, 38129, Note_on_c, 7, 57, 0
10, 38132, Note_on_c, 7, 65, 60
10, 38132, Note_on_c, 7, 62, 60
10, 38161, Note_on_c, 7, 57, 59
10, 38169, Note_on_c, 7, 62, 0
10, 38169, Note_on_c, 7, 65, 0
10, 38176, Note_on_c, 7, 57, 0
10, 38192, Note_on_c, 7, 62, 67
10, 38192, Note_on_c, 7, 65, 60
10, 38212, Note_on_c, 7, 62, 0
10, 38222, Note_on_c, 7, 60, 60
10, 38243, Note_on_c, 7, 65, 0
10, 38245, Note_on_c, 7, 60, 0
10, 38251, Note_on_c, 7, 57, 64
10, 38281, Note_on_c, 7, 62, 75
10, 38281, Note_on_c, 7, 65, 79
10, 38286, Note_on_c, 7, 57, 0
10, 38311, Note_on_c, 7, 57, 63
10, 38335, Note_on_c, 7, 65, 0
10, 38335, Note_on_c, 7, 62, 0
10, 38342, Note_on_c, 7, 60, 62
10, 38342, Note_on_c, 7, 65, 57
10, 38346, Note_on_c, 7, 57, 0
10, 38362, Note_on_c, 7, 65, 0
10, 38362, Note_on_c, 7, 60, 0
10, 38371, Note_on_c, 7, 62, 58
10, 38372, Note_on_c, 7, 65, 55
10, 38385, Note_on_c, 7, 50, 0
10, 38401, Note_on_c, 7, 50, 63
10, 38423, Note_on_c, 7, 62, 0
10, 38425, Note_on_c, 7, 65, 0
10, 38433, Note_on_c, 7, 57, 72
10, 38461, Note_on_c, 7, 62, 65
10, 38462, Note_on_c, 7, 65, 65
10, 38467, Note_on_c, 7, 57, 0
10, 38482, Note_on_c, 7, 62, 0
10, 38487, Note_on_c, 7, 65, 0
10, 38492, Note_on_c, 7, 57, 59
10, 38511, Note_on_c, 7, 57, 0
10, 38521, Note_on_c, 7, 65, 75
10, 38521, Note_on_c, 7, 62, 75
10, 38583, Note_on_c, 7, 57, 72
10, 38594, Note_on_c, 7, 62, 0
10, 38594, Note_on_c, 7, 65, 0
10, 38614, Note_on_c, 7, 65, 67
10, 38614, Note_on_c, 7, 62, 75
10, 38630, Note_on_c, 7, 50, 0
10, 38631, Note_on_c, 7, 57, 0
10, 38643, Note_on_c, 7, 48, 65
10, 38662, Note_on_c, 7, 62, 0
10, 38671, Note_on_c, 7, 65, 0
10, 38696, Note_on_c, 7, 60, 69
10, 38703, Note_on_c, 7, 55, 69
10, 38729, Note_on_c, 7, 55, 0
10, 38730, Note_on_c, 7, 60, 0
10, 38756, Note_on_c, 7, 55, 59
10, 38767, Note_on_c, 7, 60, 69
10, 38768, Note_on_c, 7, 67, 72
10, 38769, Note_on_c, 7, 65, 87
10, 38771, Note_on_c, 7, 55, 0
10, 38825, Note_on_c, 7, 55, 75
10, 38834, Note_on_c, 7, 65, 0
10, 38835, Note_on_c, 7, 67, 0
10, 38835, Note_on_c, 7, 60, 0
10, 38850, Note_on_c, 7, 55, 0
10, 38856, Note_on_c, 7, 48, 0
10, 38856, Note_on_c, 7, 67, 62
10, 38857, Note_on_c, 7, 60, 54
10, 38858, Note_on_c, 7, 65, 62
10, 38864, Note_on_c, 7, 65, 0
10, 38865, Note_on_c, 7, 60, 0
10, 38868, Note_on_c, 7, 67, 0
10, 38882, Note_on_c, 7, 43, 69
10, 38883, Note_on_c, 7, 67, 59
10, 38884, Note_on_c, 7, 71, 61
10, 38884, Note_on_c, 7, 74, 62
10, 38894, Note_on_c, 7, 74, 0
10, 38897, Note_on_c, 7, 67, 0
10, 38898, Note_on_c, 7, 71, 0
10, 38904, Note_on_c, 7, 43, 0
10, 38912, Note_on_c, 7, 43, 59
10, 38913, Note_on_c, 7, 67, 54
10, 38913, Note_on_c, 7, 74, 57
10, 38913, Note_on_c, 7, 71, 57
10, 38926, Note_on_c, 7, 71, 0
10, 38926, Note_on_c, 7, 74, 0
10, 38928, Note_on_c, 7, 43, 0
10, 38931, Note_on_c, 7, 67, 0
10, 38943, Note_on_c, 7, 43, 64
10, 38943, Note_on_c, 7, 67, 59
10, 38944, Note_on_c, 7, 71, 64
10, 38944, Note_on_c, 7, 74, 59
10, 38956, Note_on_c, 7, 43, 0
10, 38957, Note_on_c, 7, 74, 0
10, 38957, Note_on_c, 7, 71, 0
10, 38958, Note_on_c, 7, 67, 0
10, 38973, Note_on_c, 7, 43, 64
10, 38974, Note_on_c, 7, 67, 61
10, 38975, Note_on_c, 7, 71, 61
10, 38975, Note_on_c, 7, 74, 59
10, 38985, Note_on_c, 7, 71, 0
10, 38987, Note_on_c, 7, 74, 0
10, 38987, Note_on_c, 7, 67, 0
10, 38988, Note_on_c, 7, 43, 0
10, 38999, Note_on_c, 7, 71, 79
10, 39004, Note_on_c, 7, 43, 100
10, 39004, Note_on_c, 7, 74, 75
10, 39005, Note_on_c, 7, 67, 74
10, 39185, Note_on_c, 7, 43, 0
10, 39191, Note_on_c, 7, 71, 0
10, 39194, Note_on_c, 7, 74, 0
10, 39198, Note_on_c, 7, 67, 0
10, 39219, Note_on_c, 7, 43, 72
10, 39246, Note_on_c, 7, 71, 61
10, 39250, Note_on_c, 7, 60, 37
10, 39253, Note_on_c, 7, 69, 29
10, 39255, Note_on_c, 7, 60, 0
10, 39257, Note_on_c, 7, 67, 38
10, 39258, Note_on_c, 7, 65, 57
10, 39259, Note_on_c, 7, 71, 0
10, 39261, Note_on_c, 7, 64, 57
10, 39262, Note_on_c, 7, 69, 0
10, 39265, Note_on_c, 7, 67, 0
10, 39268, Note_on_c, 7, 62, 34
10, 39269, Note_on_c, 7, 65, 0
10, 39269, Note_on_c, 7, 43, 0
10, 39271, Note_on_c, 7, 64, 0
10, 39271, Note_on_c, 7, 60, 42
10, 39274, Note_on_c, 7, 59, 41
10, 39275, Note_on_c, 7, 62, 0
10, 39278, Note_on_c, 7, 57, 35
10, 39279, Note_on_c, 7, 60, 0
10, 39282, Note_on_c, 7, 55, 33
10, 39283, Note_on_c, 7, 59, 0
10, 39288, Note_on_c, 7, 53, 28
10, 39289, Note_on_c, 7, 57, 0
10, 39295, Note_on_c, 7, 52, 21
10, 39296, Note_on_c, 7, 55, 0
10, 39305, Note_on_c, 7, 53, 0
10, 39306, Note_on_c, 7, 50, 34
10, 39326, Note_on_c, 7, 52, 0
10, 39327, Note_on_c, 7, 50, 0
10, 39347, Note_on_c, 7, 43, 62
10, 39356, Note_on_c, 7, 43, 0
10, 39363, Note_on_c, 7, 43, 59
10, 39364, Note_on_c, 7, 55, 75
10, 39364, Note_on_c, 7, 62, 75
10, 39364, Note_on_c, 7, 59, 75
10, 39373, Note_on_c, 7, 59, 0
10, 39376, Note_on_c, 7, 62, 0
10, 39377, Note_on_c, 7, 55, 0
10, 39378, Note_on_c, 7, 43, 0
10, 39393, Note_on_c, 7, 59, 64
10, 39394, Note_on_c, 7, 43, 60
10, 39394, Note_on_c, 7, 62, 61
10, 39394, Note_on_c, 7, 55, 57
10, 39402, Note_on_c, 7, 55, 0
10, 39404, Note_on_c, 7, 62, 0
10, 39405, Note_on_c, 7, 59, 0
10, 39406, Note_on_c, 7, 43, 0
10, 39422, Note_on_c, 7, 62, 62
10, 39423, Note_on_c, 7, 59, 63
10, 39423, Note_on_c, 7, 43, 59
10, 39423, Note_on_c, 7, 55, 58
10, 39432, Note_on_c, 7, 55, 0
10, 39433, Note_on_c, 7, 59, 0
10, 39434, Note_on_c, 7, 43, 0
10, 39434, Note_on_c, 7, 62, 0
10, 39452, Note_on_c, 7, 55, 57
10, 39452, Note_on_c, 7, 43, 63
10, 39453, Note_on_c, 7, 62, 60
10, 39453, Note_on_c, 7, 59, 60
10, 39459, Note_on_c, 7, 59, 0
10, 39462, Note_on_c, 7, 62, 0
10, 39463, Note_on_c, 7, 43, 0
10, 39463, Note_on_c, 7, 55, 0
10, 39482, Note_on_c, 7, 43, 79
10, 39482, Note_on_c, 7, 55, 72
10, 39482, Note_on_c, 7, 62, 87
10, 39483, Note_on_c, 7, 59, 84
10, 39662, Note_on_c, 7, 43, 0
10, 39667, Note_on_c, 7, 59, 0
10, 39668, Note_on_c, 7, 62, 0
10, 39674, Note_on_c, 7, 55, 0
10, 39692, Note_on_c, 7, 43, 79
10, 39710, Note_on_c, 7, 52, 60
10, 39711, Note_on_c, 7, 53, 60
10, 39713, Note_on_c, 7, 55, 57
10, 39715, Note_on_c, 7, 52, 0
10, 39717, Note_on_c, 7, 57, 42
10, 39720, Note_on_c, 7, 53, 0
10, 39720, Note_on_c, 7, 59, 48
10, 39722, Note_on_c, 7, 60, 59
10, 39724, Note_on_c, 7, 55, 0
10, 39726, Note_on_c, 7, 43, 0
10, 39727, Note_on_c, 7, 62, 51
10, 39728, Note_on_c, 7, 57, 0
10, 39729, Note_on_c, 7, 64, 52
10, 39730, Note_on_c, 7, 59, 0
10, 39731, Note_on_c, 7, 65, 74
10, 39733, Note_on_c, 7, 60, 0
10, 39734, Note_on_c, 7, 67, 65
10, 39736, Note_on_c, 7, 62, 0
10, 39737, Note_on_c, 7, 69, 63
10, 39739, Note_on_c, 7, 64, 0
10, 39741, Note_on_c, 7, 71, 46
10, 39742, Note_on_c, 7, 65, 0
10, 39744, Note_on_c, 7, 67, 0
10, 39744, Note_on_c, 7, 72, 50
10, 39747, Note_on_c, 7, 69, 0
10, 39747, Note_on_c, 7, 74, 48
10, 39750, Note_on_c, 7, 71, 0
10, 39750, Note_on_c, 7, 76, 63
10, 39752, Note_on_c, 7, 72, 0
10, 39754, Note_on_c, 7, 77, 59
10, 39755, Note_on_c, 7, 74, 0
10, 39757, Note_on_c, 7, 79, 63
10, 39758, Note_on_c, 7, 76, 0
10, 39759, Note_on_c, 7, 77, 0
10, 39760, Note_on_c, 7, 81, 84
10, 39762, Note_on_c, 7, 79, 0
10, 39775, Note_on_c, 7, 79, 26
10, 39776, Note_on_c, 7, 77, 59
10, 39778, Note_on_c, 7, 81, 0
10, 39779, Note_on_c, 7, 76, 60
10, 39783, Note_on_c, 7, 79, 0
10, 39784, Note_on_c, 7, 74, 62
10, 39789, Note_on_c, 7, 77, 0
10, 39790, Note_on_c, 7, 72, 52
10, 39795, Note_on_c, 7, 76, 0
10, 39796, Note_on_c, 7, 71, 49
10, 39800, Note_on_c, 7, 74, 0
10, 39801, Note_on_c, 7, 69, 46
10, 39806, Note_on_c, 7, 72, 0
10, 39806, Note_on_c, 7, 67, 47
10, 39811, Note_on_c, 7, 71, 0
10, 39812, Note_on_c, 7, 65, 52
10, 39817, Note_on_c, 7, 69, 0
10, 39817, Note_on_c, 7, 64, 45
10, 39823, Note_on_c, 7, 62, 47
10, 39824, Note_on_c, 7, 67, 0
10, 39829, Note_on_c, 7, 65, 0
10, 39830, Note_on_c, 7, 60, 46
10, 39837, Note_on_c, 7, 64, 0
10, 39841, Note_on_c, 7, 50, 64
10, 39848, Note_on_c, 7, 62, 0
10, 39856, Note_on_c, 7, 60, 0
10, 39902, Note_on_c, 7, 62, 46
10, 39902, Note_on_c, 7, 67, 47
10, 39903, Note_on_c, 7, 65, 50
10, 39915, Note_on_c, 7, 65, 0
10, 39915, Note_on_c, 7, 67, 0
10, 39918, Note_on_c, 7, 62, 0
10, 39962, Note_on_c, 7, 62, 60
10, 39963, Note_on_c, 7, 65, 65
10, 39963, Note_on_c, 7, 67, 60
10, 40007, Note_on_c, 7, 50, 0
10, 40023, Note_on_c, 7, 50, 54
10, 40034, Note_on_c, 7, 67, 0
10, 40036, Note_on_c, 7, 65, 0
10, 40038, Note_on_c, 7, 62, 0
10, 40054, Note_on_c, 7, 65, 52
10, 40054, Note_on_c, 7, 62, 50
10, 40055, Note_on_c, 7, 67, 51
10, 40071, Note_on_c, 7, 62, 0
10, 40072, Note_on_c, 7, 67, 0
10, 40072, Note_on_c, 7, 65, 0
10, 40112, Note_on_c, 7, 64, 54
10, 40112, Note_on_c, 7, 62, 50
10, 40113, Note_on_c, 7, 67, 47
10, 40131, Note_on_c, 7, 64, 0
10, 40132, Note_on_c, 7, 67, 0
10, 40132, Note_on_c, 7, 62, 0
10, 40201, Note_on_c, 7, 64, 59
10, 40202, Note_on_c, 7, 62, 51
10, 40202, Note_on_c, 7, 67, 50
10, 40256, Note_on_c, 7, 64, 0
10, 40262, Note_on_c, 7, 65, 45
10, 40278, Note_on_c, 7, 65, 0
10, 40280, Note_on_c, 7, 67, 0
10, 40280, Note_on_c, 7, 62, 0
10, 40292, Note_on_c, 7, 67, 50
10, 40292, Note_on_c, 7, 64, 56
10, 40292, Note_on_c, 7, 62, 50
10, 40436, Note_on_c, 7, 50, 0
10, 40463, Note_on_c, 7, 64, 0
10, 40466, Note_on_c, 7, 62, 0
10, 40470, Note_on_c, 7, 67, 0
10, 40473, Note_on_c, 7, 50, 47
10, 40533, Note_on_c, 7, 64, 61
10, 40533, Note_on_c, 7, 60, 53
10, 40533, Note_on_c, 7, 67, 58
10, 40583, Note_on_c, 7, 67, 0
10, 40596, Note_on_c, 7, 60, 0
10, 40596, Note_on_c, 7, 64, 0
10, 40622, Note_on_c, 7, 60, 49
10, 40622, Note_on_c, 7, 64, 53
10, 40622, Note_on_c, 7, 67, 49
10, 40640, Note_on_c, 7, 67, 0
10, 40641, Note_on_c, 7, 60, 0
10, 40642, Note_on_c, 7, 64, 0
10, 40679, Note_on_c, 7, 62, 51
10, 40679, Note_on_c, 7, 59, 44
10, 40680, Note_on_c, 7, 67, 44
10, 40695, Note_on_c, 7, 59, 0
10, 40704, Note_on_c, 7, 67, 0
10, 40704, Note_on_c, 7, 62, 0
10, 40712, Note_on_c, 7, 67, 44
10, 40712, Note_on_c, 7, 64, 55
10, 40713, Note_on_c, 7, 60, 51
10, 40729, Note_on_c, 7, 60, 0
10, 40729, Note_on_c, 7, 64, 0
10, 40733, Note_on_c, 7, 67, 0
10, 40771, Note_on_c, 7, 67, 43
10, 40771, Note_on_c, 7, 57, 43
10, 40772, Note_on_c, 7, 62, 42
10, 40772, Note_on_c, 7, 60, 44
10, 40778, Note_on_c, 7, 62, 0
10, 40911, Note_on_c, 7, 50, 0
10, 40979, Note_on_c, 7, 60, 0
10, 40979, Note_on_c, 7, 50, 47
10, 40982, Note_on_c, 7, 57, 0
10, 40982, Note_on_c, 7, 67, 0
10, 41099, Note_on_c, 7, 62, 54
10, 41100, Note_on_c, 7, 71, 53
10, 41101, Note_on_c, 7, 67, 54
10, 41112, Note_on_c, 7, 67, 0
10, 41115, Note_on_c, 7, 71, 0
10, 41116, Note_on_c, 7, 62, 0
10, 41191, Note_on_c, 7, 69, 55
10, 41192, Note_on_c, 7, 65, 54
10, 41192, Note_on_c, 7, 62, 53
10, 41200, Note_on_c, 7, 65, 0
10, 41203, Note_on_c, 7, 69, 0
10, 41204, Note_on_c, 7, 62, 0
10, 41279, Note_on_c, 7, 71, 44
10, 41280, Note_on_c, 7, 67, 48
10, 41281, Note_on_c, 7, 62, 47
10, 41399, Note_on_c, 7, 50, 0
10, 41432, Note_on_c, 7, 50, 47
10, 41445, Note_on_c, 7, 67, 0
10, 41446, Note_on_c, 7, 71, 0
10, 41447, Note_on_c, 7, 62, 0
10, 41461, Note_on_c, 7, 62, 54
10, 41461, Note_on_c, 7, 67, 51
10, 41461, Note_on_c, 7, 71, 41
10, 41473, Note_on_c, 7, 71, 0
10, 41474, Note_on_c, 7, 67, 0
10, 41478, Note_on_c, 7, 62, 0
10, 41519, Note_on_c, 7, 71, 51
10, 41520, Note_on_c, 7, 65, 52
10, 41521, Note_on_c, 7, 62, 47
10, 41541, Note_on_c, 7, 62, 0
10, 41541, Note_on_c, 7, 65, 0
10, 41542, Note_on_c, 7, 71, 0
10, 41578, Note_on_c, 7, 71, 45
10, 41579, Note_on_c, 7, 65, 46
10, 41579, Note_on_c, 7, 62, 39
10, 41662, Note_on_c, 7, 65, 0
10, 41664, Note_on_c, 7, 62, 0
10, 41664, Note_on_c, 7, 71, 0
10, 41672, Note_on_c, 7, 71, 50
10, 41673, Note_on_c, 7, 65, 52
10, 41673, Note_on_c, 7, 62, 48
10, 41722, Note_on_c, 7, 50, 0
10, 41725, Note_on_c, 7, 65, 0
10, 41732, Note_on_c, 7, 71, 0
10, 41735, Note_on_c, 7, 62, 0
10, 41735, Note_on_c, 7, 50, 54
10, 41760, Note_on_c, 7, 69, 54
10, 41761, Note_on_c, 7, 64, 51
10, 41761, Note_on_c, 7, 62, 47
10, 41858, Note_on_c, 7, 64, 0
10, 41860, Note_on_c, 7, 69, 0
10, 41864, Note_on_c, 7, 62, 0
10, 41881, Note_on_c, 7, 65, 50
10, 41881, Note_on_c, 7, 62, 49
10, 41881, Note_on_c, 7, 69, 49
10, 41937, Note_on_c, 7, 65, 0
10, 41939, Note_on_c, 7, 69, 0
10, 41941, Note_on_c, 7, 62, 0
10, 41969, Note_on_c, 7, 64, 51
10, 41969, Note_on_c, 7, 69, 49
10, 41969, Note_on_c, 7, 62, 49
10, 41991, Note_on_c, 7, 62, 0
10, 41991, Note_on_c, 7, 69, 0
10, 41992, Note_on_c, 7, 64, 0
10, 42030, Note_on_c, 7, 69, 50
10, 42031, Note_on_c, 7, 62, 51
10, 42031, Note_on_c, 7, 65, 42
10, 42122, Note_on_c, 7, 50, 0
10, 42181, Note_on_c, 7, 50, 53
10, 42193, Note_on_c, 7, 62, 0
10, 42198, Note_on_c, 7, 65, 0
10, 42198, Note_on_c, 7, 69, 0
10, 42211, Note_on_c, 7, 50, 0
10, 42241, Note_on_c, 7, 50, 57
10, 42299, Note_on_c, 7, 57, 59
10, 42299, Note_on_c, 7, 60, 59
10, 42429, Note_on_c, 7, 57, 0
10, 42431, Note_on_c, 7, 60, 0
10, 42452, Note_on_c, 7, 60, 50
10, 42465, Note_on_c, 7, 60, 0
10, 42479, Note_on_c, 7, 57, 48
10, 42479, Note_on_c, 7, 62, 56
10, 42501, Note_on_c, 7, 62, 0
10, 42501, Note_on_c, 7, 57, 0
10, 42542, Note_on_c, 7, 62, 58
10, 42543, Note_on_c, 7, 57, 56
10, 42563, Note_on_c, 7, 50, 0
10, 42601, Note_on_c, 7, 50, 53
10, 42631, Note_on_c, 7, 57, 0
10, 42641, Note_on_c, 7, 62, 0
10, 42661, Note_on_c, 7, 57, 59
10, 42689, Note_on_c, 7, 57, 0
10, 42700, Note_on_c, 7, 50, 0
10, 42722, Note_on_c, 7, 50, 61
10, 42723, Note_on_c, 7, 53, 63
10, 42723, Note_on_c, 7, 57, 69
10, 42787, Note_on_c, 7, 53, 0
10, 42790, Note_on_c, 7, 57, 0
10, 42792, Note_on_c, 7, 50, 0
10, 42813, Note_on_c, 7, 53, 54
10, 42813, Note_on_c, 7, 50, 56
10, 42813, Note_on_c, 7, 57, 48
10, 42822, Note_on_c, 7, 57, 0
10, 42822, Note_on_c, 7, 53, 0
10, 42824, Note_on_c, 7, 50, 0
10, 42843, Note_on_c, 7, 60, 62
10, 42843, Note_on_c, 7, 57, 64
10, 42844, Note_on_c, 7, 53, 67
10, 42874, Note_on_c, 7, 57, 0
10, 42880, Note_on_c, 7, 60, 0
10, 42883, Note_on_c, 7, 53, 0
10, 42904, Note_on_c, 7, 55, 84
10, 42904, Note_on_c, 7, 62, 79
10, 42905, Note_on_c, 7, 59, 84
10, 43149, Note_on_c, 7, 59, 0
10, 43152, Note_on_c, 7, 55, 0
10, 43154, Note_on_c, 7, 62, 0
10, 43199, Note_on_c, 7, 50, 67
10, 43201, Note_on_c, 7, 62, 69
10, 43202, Note_on_c, 7, 69, 74
10, 43202, Note_on_c, 7, 65, 72
10, 43273, Note_on_c, 7, 50, 0
10, 43276, Note_on_c, 7, 65, 0
10, 43277, Note_on_c, 7, 62, 0
10, 43278, Note_on_c, 7, 69, 0
10, 43293, Note_on_c, 7, 50, 52
10, 43294, Note_on_c, 7, 65, 56
10, 43294, Note_on_c, 7, 69, 56
10, 43295, Note_on_c, 7, 62, 45
10, 43299, Note_on_c, 7, 62, 0
10, 43302, Note_on_c, 7, 65, 0
10, 43303, Note_on_c, 7, 69, 0
10, 43305, Note_on_c, 7, 50, 0
10, 43323, Note_on_c, 7, 72, 58
10, 43323, Note_on_c, 7, 74, 65
10, 43323, Note_on_c, 7, 65, 57
10, 43323, Note_on_c, 7, 53, 64
10, 43324, Note_on_c, 7, 67, 59
10, 43324, Note_on_c, 7, 71, 59
10, 43324, Note_on_c, 7, 69, 59
10, 43344, Note_on_c, 7, 71, 0
10, 43344, Note_on_c, 7, 74, 0
10, 43346, Note_on_c, 7, 67, 0
10, 43364, Note_on_c, 7, 65, 0
10, 43364, Note_on_c, 7, 69, 0
10, 43368, Note_on_c, 7, 53, 0
10, 43370, Note_on_c, 7, 72, 0
10, 43384, Note_on_c, 7, 67, 62
10, 43384, Note_on_c, 7, 74, 74
10, 43385, Note_on_c, 7, 55, 74
10, 43405, Note_on_c, 7, 71, 79
10, 43607, Note_on_c, 7, 55, 0
10, 43648, Note_on_c, 7, 67, 0
10, 43651, Note_on_c, 7, 74, 0
10, 43668, Note_on_c, 7, 71, 0
10, 43678, Note_on_c, 7, 50, 74
10, 43678, Note_on_c, 7, 69, 74
10, 43679, Note_on_c, 7, 65, 67
10, 43679, Note_on_c, 7, 62, 67
10, 43762, Note_on_c, 7, 50, 0
10, 43763, Note_on_c, 7, 62, 0
10, 43763, Note_on_c, 7, 65, 0
10, 43764, Note_on_c, 7, 69, 0
10, 43773, Note_on_c, 7, 50, 60
10, 43774, Note_on_c, 7, 65, 58
10, 43774, Note_on_c, 7, 69, 58
10, 43784, Note_on_c, 7, 65, 0
10, 43785, Note_on_c, 7, 50, 0
10, 43786, Note_on_c, 7, 69, 0
10, 43802, Note_on_c, 7, 72, 59
10, 43802, Note_on_c, 7, 69, 64
10, 43803, Note_on_c, 7, 65, 62
10, 43803, Note_on_c, 7, 53, 72
10, 43845, Note_on_c, 7, 65, 0
10, 43846, Note_on_c, 7, 69, 0
10, 43848, Note_on_c, 7, 53, 0
10, 43849, Note_on_c, 7, 72, 0
10, 43864, Note_on_c, 7, 67, 63
10, 43864, Note_on_c, 7, 55, 74
10, 43864, Note_on_c, 7, 74, 67
10, 43865, Note_on_c, 7, 71, 69
10, 44114, Note_on_c, 7, 55, 0
10, 44136, Note_on_c, 7, 67, 0
10, 44136, Note_on_c, 7, 71, 0
10, 44137, Note_on_c, 7, 74, 0
10, 44162, Note_on_c, 7, 50, 87
10, 44162, Note_on_c, 7, 62, 72
10, 44163, Note_on_c, 7, 69, 75
10, 44163, Note_on_c, 7, 65, 75
10, 44236, Note_on_c, 7, 65, 0
10, 44236, Note_on_c, 7, 62, 0
10, 44237, Note_on_c, 7, 69, 0
10, 44238, Note_on_c, 7, 50, 0
10, 44252, Note_on_c, 7, 50, 64
10, 44253, Note_on_c, 7, 65, 64
10, 44253, Note_on_c, 7, 69, 65
10, 44253, Note_on_c, 7, 62, 53
10, 44259, Note_on_c, 7, 62, 0
10, 44264, Note_on_c, 7, 69, 0
10, 44264, Note_on_c, 7, 65, 0
10, 44265, Note_on_c, 7, 50, 0
10, 44282, Note_on_c, 7, 65, 60
10, 44283, Note_on_c, 7, 53, 72
10, 44283, Note_on_c, 7, 69, 74
10, 44283, Note_on_c, 7, 71, 59
10, 44319, Note_on_c, 7, 71, 0
10, 44319, Note_on_c, 7, 69, 0
10, 44320, Note_on_c, 7, 65, 0
10, 44326, Note_on_c, 7, 53, 0
10, 44343, Note_on_c, 7, 55, 72
10, 44343, Note_on_c, 7, 67, 65
10, 44344, Note_on_c, 7, 71, 79
10, 44344, Note_on_c, 7, 74, 79
10, 44573, Note_on_c, 7, 55, 0
10, 44615, Note_on_c, 7, 74, 0
10, 44619, Note_on_c, 7, 67, 0
10, 44622, Note_on_c, 7, 71, 0
10, 44640, Note_on_c, 7, 50, 60
10, 44642, Note_on_c, 7, 67, 61
10, 44642, Note_on_c, 7, 69, 67
10, 44643, Note_on_c, 7, 62, 67
10, 45521, Note_on_c, 7, 69, 0
10, 45524, Note_on_c, 7, 62, 0
10, 45524, Note_on_c, 7, 67, 0
10, 45555, Note_on_c, 7, 50, 0
10, 45555, End_track
11, 0, Start_track
11, 0, MIDI_port, 2
11, 0, Title_t, "Synthbrass2"
11, 0, Program_c, 8, 63
11, 0, Control_c, 8, 7, 70
11, 0, Control_c, 8, 10, 64
11, 120, Control_c, 8, 11, 127
11, 120, Control_c, 8, 91, 60
11, 120, Control_c, 8, 93, 40
11, 482, Note_on_c, 8, 62, 94
11, 483, Note_on_c, 8, 69, 120
11, 483, Note_on_c, 8, 65, 127
11, 488, Channel_aftertouch_c, 8, 1
11, 489, Channel_aftertouch_c, 8, 5
11, 490, Channel_aftertouch_c, 8, 9
11, 491, Channel_aftertouch_c, 8, 13
11, 491, Channel_aftertouch_c, 8, 17
11, 492, Channel_aftertouch_c, 8, 21
11, 493, Channel_aftertouch_c, 8, 17
11, 494, Channel_aftertouch_c, 8, 13
11, 495, Channel_aftertouch_c, 8, 9
11, 495, Channel_aftertouch_c, 8, 5
11, 496, Channel_aftertouch_c, 8, 1
11, 497, Channel_aftertouch_c, 8, 0
11, 554, Note_on_c, 8, 65, 0
11, 555, Note_on_c, 8, 62, 0
11, 556, Note_on_c, 8, 69, 0
11, 573, Note_on_c, 8, 62, 94
11, 573, Note_on_c, 8, 65, 104
11, 573, Note_on_c, 8, 69, 104
11, 581, Note_on_c, 8, 65, 0
11, 582, Note_on_c, 8, 69, 0
11, 583, Note_on_c, 8, 62, 0
11, 602, Note_on_c, 8, 72, 120
11, 602, Note_on_c, 8, 65, 107
11, 602, Note_on_c, 8, 69, 127
11, 607, Channel_aftertouch_c, 8, 3
11, 607, Channel_aftertouch_c, 8, 7
11, 607, Channel_aftertouch_c, 8, 11
11, 608, Channel_aftertouch_c, 8, 15
11, 608, Channel_aftertouch_c, 8, 19
11, 609, Channel_aftertouch_c, 8, 23
11, 610, Channel_aftertouch_c, 8, 27
11, 611, Channel_aftertouch_c, 8, 30
11, 612, Channel_aftertouch_c, 8, 26
11, 612, Channel_aftertouch_c, 8, 22
11, 613, Channel_aftertouch_c, 8, 18
11, 614, Channel_aftertouch_c, 8, 14
11, 615, Channel_aftertouch_c, 8, 10
11, 615, Channel_aftertouch_c, 8, 6
11, 616, Channel_aftertouch_c, 8, 2
11, 617, Channel_aftertouch_c, 8, 0
11, 644, Note_on_c, 8, 69, 0
11, 644, Note_on_c, 8, 65, 0
11, 650, Note_on_c, 8, 72, 0
11, 663, Note_on_c, 8, 67, 114
11, 664, Note_on_c, 8, 71, 127
11, 664, Note_on_c, 8, 74, 127
11, 672, Channel_aftertouch_c, 8, 4
11, 672, Channel_aftertouch_c, 8, 8
11, 672, Channel_aftertouch_c, 8, 12
11, 673, Channel_aftertouch_c, 8, 16
11, 674, Channel_aftertouch_c, 8, 20
11, 675, Channel_aftertouch_c, 8, 24
11, 675, Channel_aftertouch_c, 8, 28
11, 676, Channel_aftertouch_c, 8, 32
11, 677, Channel_aftertouch_c, 8, 36
11, 678, Channel_aftertouch_c, 8, 32
11, 679, Channel_aftertouch_c, 8, 28
11, 679, Channel_aftertouch_c, 8, 24
11, 680, Channel_aftertouch_c, 8, 20
11, 681, Channel_aftertouch_c, 8, 16
11, 682, Channel_aftertouch_c, 8, 12
11, 682, Channel_aftertouch_c, 8, 8
11, 683, Channel_aftertouch_c, 8, 4
11, 684, Channel_aftertouch_c, 8, 0
11, 698, Channel_aftertouch_c, 8, 3
11, 700, Channel_aftertouch_c, 8, 4
11, 701, Channel_aftertouch_c, 8, 6
11, 703, Channel_aftertouch_c, 8, 9
11, 705, Channel_aftertouch_c, 8, 10
11, 710, Channel_aftertouch_c, 8, 9
11, 716, Channel_aftertouch_c, 8, 10
11, 718, Channel_aftertouch_c, 8, 12
11, 719, Channel_aftertouch_c, 8, 13
11, 722, Channel_aftertouch_c, 8, 15
11, 726, Channel_aftertouch_c, 8, 16
11, 728, Channel_aftertouch_c, 8, 19
11, 731, Channel_aftertouch_c, 8, 21
11, 739, Channel_aftertouch_c, 8, 22
11, 740, Channel_aftertouch_c, 8, 24
11, 742, Channel_aftertouch_c, 8, 25
11, 743, Channel_aftertouch_c, 8, 28
11, 745, Channel_aftertouch_c, 8, 30
11, 746, Channel_aftertouch_c, 8, 33
11, 747, Channel_aftertouch_c, 8, 34
11, 749, Channel_aftertouch_c, 8, 36
11, 754, Channel_aftertouch_c, 8, 37
11, 755, Channel_aftertouch_c, 8, 39
11, 756, Channel_aftertouch_c, 8, 40
11, 757, Channel_aftertouch_c, 8, 42
11, 758, Channel_aftertouch_c, 8, 43
11, 759, Channel_aftertouch_c, 8, 45
11, 759, Channel_aftertouch_c, 8, 48
11, 760, Channel_aftertouch_c, 8, 49
11, 762, Channel_aftertouch_c, 8, 52
11, 763, Channel_aftertouch_c, 8, 54
11, 765, Channel_aftertouch_c, 8, 57
11, 766, Channel_aftertouch_c, 8, 58
11, 767, Channel_aftertouch_c, 8, 60
11, 768, Channel_aftertouch_c, 8, 61
11, 768, Channel_aftertouch_c, 8, 63
11, 769, Channel_aftertouch_c, 8, 64
11, 770, Channel_aftertouch_c, 8, 66
11, 771, Channel_aftertouch_c, 8, 67
11, 772, Channel_aftertouch_c, 8, 70
11, 773, Channel_aftertouch_c, 8, 72
11, 775, Channel_aftertouch_c, 8, 75
11, 776, Channel_aftertouch_c, 8, 76
11, 778, Channel_aftertouch_c, 8, 78
11, 780, Channel_aftertouch_c, 8, 79
11, 783, Channel_aftertouch_c, 8, 81
11, 785, Channel_aftertouch_c, 8, 82
11, 787, Channel_aftertouch_c, 8, 85
11, 788, Channel_aftertouch_c, 8, 87
11, 790, Channel_aftertouch_c, 8, 90
11, 791, Channel_aftertouch_c, 8, 91
11, 793, Channel_aftertouch_c, 8, 93
11, 796, Channel_aftertouch_c, 8, 94
11, 803, Channel_aftertouch_c, 8, 96
11, 811, Channel_aftertouch_c, 8, 97
11, 818, Channel_aftertouch_c, 8, 99
11, 828, Channel_aftertouch_c, 8, 100
11, 847, Channel_aftertouch_c, 8, 99
11, 849, Channel_aftertouch_c, 8, 97
11, 851, Channel_aftertouch_c, 8, 94
11, 851, Channel_aftertouch_c, 8, 93
11, 852, Channel_aftertouch_c, 8, 91
11, 854, Channel_aftertouch_c, 8, 88
11, 854, Channel_aftertouch_c, 8, 87
11, 855, Channel_aftertouch_c, 8, 85
11, 856, Channel_aftertouch_c, 8, 82
11, 858, Channel_aftertouch_c, 8, 81
11, 863, Channel_aftertouch_c, 8, 79
11, 864, Channel_aftertouch_c, 8, 78
11, 865, Channel_aftertouch_c, 8, 75
11, 865, Channel_aftertouch_c, 8, 72
11, 866, Channel_aftertouch_c, 8, 68
11, 867, Channel_aftertouch_c, 8, 64
11, 868, Channel_aftertouch_c, 8, 60
11, 868, Channel_aftertouch_c, 8, 56
11, 869, Channel_aftertouch_c, 8, 52
11, 870, Channel_aftertouch_c, 8, 48
11, 871, Channel_aftertouch_c, 8, 44
11, 871, Channel_aftertouch_c, 8, 40
11, 872, Channel_aftertouch_c, 8, 36
11, 873, Channel_aftertouch_c, 8, 32
11, 874, Channel_aftertouch_c, 8, 28
11, 874, Channel_aftertouch_c, 8, 24
11, 875, Channel_aftertouch_c, 8, 20
11, 876, Channel_aftertouch_c, 8, 16
11, 877, Channel_aftertouch_c, 8, 12
11, 877, Channel_aftertouch_c, 8, 8
11, 878, Channel_aftertouch_c, 8, 4
11, 879, Channel_aftertouch_c, 8, 1
11, 879, Channel_aftertouch_c, 8, 0
11, 935, Note_on_c, 8, 71, 0
11, 935, Note_on_c, 8, 67, 0
11, 936, Note_on_c, 8, 74, 0
11, 962, Note_on_c, 8, 69, 120
11, 963, Note_on_c, 8, 65, 120
11, 963, Note_on_c, 8, 62, 94
11, 969, Channel_aftertouch_c, 8, 1
11, 971, Channel_aftertouch_c, 8, 0
11, 971, Channel_aftertouch_c, 8, 3
11, 972, Channel_aftertouch_c, 8, 7
11, 972, Channel_aftertouch_c, 8, 9
11, 972, Channel_aftertouch_c, 8, 5
11, 973, Channel_aftertouch_c, 8, 1
11, 973, Channel_aftertouch_c, 8, 0
11, 1024, Note_on_c, 8, 62, 0
11, 1027, Note_on_c, 8, 65, 0
11, 1029, Note_on_c, 8, 69, 0
11, 1051, Note_on_c, 8, 62, 87
11, 1051, Note_on_c, 8, 65, 95
11, 1052, Note_on_c, 8, 69, 104
11, 1059, Note_on_c, 8, 65, 0
11, 1061, Note_on_c, 8, 69, 0
11, 1061, Note_on_c, 8, 62, 0
11, 1079, Note_on_c, 8, 65, 99
11, 1079, Note_on_c, 8, 72, 107
11, 1080, Note_on_c, 8, 69, 114
11, 1082, Channel_aftertouch_c, 8, 3
11, 1082, Channel_aftertouch_c, 8, 0
11, 1083, Channel_aftertouch_c, 8, 1
11, 1087, Channel_aftertouch_c, 8, 0
11, 1124, Note_on_c, 8, 65, 0
11, 1125, Note_on_c, 8, 69, 0
11, 1128, Note_on_c, 8, 72, 0
11, 1142, Note_on_c, 8, 67, 114
11, 1142, Note_on_c, 8, 74, 120
11, 1143, Note_on_c, 8, 71, 120
11, 1148, Channel_aftertouch_c, 8, 1
11, 1148, Channel_aftertouch_c, 8, 0
11, 1148, Channel_aftertouch_c, 8, 4
11, 1149, Channel_aftertouch_c, 8, 8
11, 1150, Channel_aftertouch_c, 8, 12
11, 1150, Channel_aftertouch_c, 8, 16
11, 1151, Channel_aftertouch_c, 8, 20
11, 1152, Channel_aftertouch_c, 8, 24
11, 1152, Channel_aftertouch_c, 8, 27
11, 1153, Channel_aftertouch_c, 8, 23
11, 1154, Channel_aftertouch_c, 8, 19
11, 1155, Channel_aftertouch_c, 8, 15
11, 1156, Channel_aftertouch_c, 8, 11
11, 1156, Channel_aftertouch_c, 8, 7
11, 1157, Channel_aftertouch_c, 8, 3
11, 1158, Channel_aftertouch_c, 8, 0
11, 1228, Channel_aftertouch_c, 8, 1
11, 1228, Channel_aftertouch_c, 8, 3
11, 1229, Channel_aftertouch_c, 8, 6
11, 1230, Channel_aftertouch_c, 8, 7
11, 1230, Channel_aftertouch_c, 8, 9
11, 1231, Channel_aftertouch_c, 8, 10
11, 1232, Channel_aftertouch_c, 8, 13
11, 1233, Channel_aftertouch_c, 8, 15
11, 1234, Channel_aftertouch_c, 8, 16
11, 1236, Channel_aftertouch_c, 8, 18
11, 1238, Channel_aftertouch_c, 8, 21
11, 1239, Channel_aftertouch_c, 8, 22
11, 1244, Channel_aftertouch_c, 8, 24
11, 1245, Channel_aftertouch_c, 8, 25
11, 1247, Channel_aftertouch_c, 8, 28
11, 1247, Channel_aftertouch_c, 8, 30
11, 1248, Channel_aftertouch_c, 8, 33
11, 1249, Channel_aftertouch_c, 8, 34
11, 1250, Channel_aftertouch_c, 8, 36
11, 1250, Channel_aftertouch_c, 8, 37
11, 1251, Channel_aftertouch_c, 8, 39
11, 1252, Channel_aftertouch_c, 8, 42
11, 1253, Channel_aftertouch_c, 8, 43
11, 1255, Channel_aftertouch_c, 8, 46
11, 1256, Channel_aftertouch_c, 8, 48
11, 1258, Channel_aftertouch_c, 8, 51
11, 1260, Channel_aftertouch_c, 8, 52
11, 1262, Channel_aftertouch_c, 8, 54
11, 1263, Channel_aftertouch_c, 8, 55
11, 1265, Channel_aftertouch_c, 8, 58
11, 1266, Channel_aftertouch_c, 8, 60
11, 1268, Channel_aftertouch_c, 8, 61
11, 1270, Channel_aftertouch_c, 8, 63
11, 1273, Channel_aftertouch_c, 8, 66
11, 1276, Channel_aftertouch_c, 8, 67
11, 1280, Channel_aftertouch_c, 8, 69
11, 1284, Channel_aftertouch_c, 8, 70
11, 1287, Channel_aftertouch_c, 8, 72
11, 1291, Channel_aftertouch_c, 8, 73
11, 1295, Channel_aftertouch_c, 8, 75
11, 1298, Channel_aftertouch_c, 8, 76
11, 1302, Channel_aftertouch_c, 8, 78
11, 1306, Channel_aftertouch_c, 8, 79
11, 1314, Channel_aftertouch_c, 8, 81
11, 1316, Channel_aftertouch_c, 8, 84
11, 1318, Channel_aftertouch_c, 8, 85
11, 1318, Channel_aftertouch_c, 8, 87
11, 1320, Channel_aftertouch_c, 8, 88
11, 1321, Channel_aftertouch_c, 8, 91
11, 1323, Channel_aftertouch_c, 8, 93
11, 1324, Channel_aftertouch_c, 8, 94
11, 1326, Channel_aftertouch_c, 8, 97
11, 1329, Channel_aftertouch_c, 8, 99
11, 1335, Channel_aftertouch_c, 8, 100
11, 1350, Channel_aftertouch_c, 8, 99
11, 1354, Channel_aftertouch_c, 8, 97
11, 1357, Channel_aftertouch_c, 8, 94
11, 1360, Channel_aftertouch_c, 8, 93
11, 1361, Channel_aftertouch_c, 8, 90
11, 1362, Channel_aftertouch_c, 8, 88
11, 1363, Channel_aftertouch_c, 8, 87
11, 1363, Channel_aftertouch_c, 8, 85
11, 1364, Channel_aftertouch_c, 8, 84
11, 1365, Channel_aftertouch_c, 8, 81
11, 1366, Channel_aftertouch_c, 8, 78
11, 1366, Channel_aftertouch_c, 8, 75
11, 1367, Channel_aftertouch_c, 8, 72
11, 1368, Channel_aftertouch_c, 8, 69
11, 1368, Channel_aftertouch_c, 8, 66
11, 1369, Channel_aftertouch_c, 8, 63
11, 1370, Channel_aftertouch_c, 8, 60
11, 1371, Channel_aftertouch_c, 8, 57
11, 1371, Channel_aftertouch_c, 8, 54
11, 1372, Channel_aftertouch_c, 8, 51
11, 1373, Channel_aftertouch_c, 8, 47
11, 1374, Channel_aftertouch_c, 8, 43
11, 1374, Channel_aftertouch_c, 8, 42
11, 1376, Channel_aftertouch_c, 8, 39
11, 1378, Channel_aftertouch_c, 8, 37
11, 1378, Channel_aftertouch_c, 8, 36
11, 1379, Channel_aftertouch_c, 8, 33
11, 1380, Channel_aftertouch_c, 8, 30
11, 1380, Channel_aftertouch_c, 8, 26
11, 1381, Channel_aftertouch_c, 8, 22
11, 1382, Channel_aftertouch_c, 8, 18
11, 1382, Channel_aftertouch_c, 8, 14
11, 1383, Channel_aftertouch_c, 8, 10
11, 1384, Channel_aftertouch_c, 8, 6
11, 1385, Channel_aftertouch_c, 8, 2
11, 1385, Channel_aftertouch_c, 8, 0
11, 1407, Note_on_c, 8, 71, 0
11, 1408, Note_on_c, 8, 74, 0
11, 1409, Note_on_c, 8, 67, 0
11, 1437, Note_on_c, 8, 62, 104
11, 1438, Note_on_c, 8, 65, 114
11, 1438, Note_on_c, 8, 69, 127
11, 1509, Note_on_c, 8, 65, 0
11, 1509, Note_on_c, 8, 62, 0
11, 1510, Note_on_c, 8, 69, 0
11, 1528, Note_on_c, 8, 65, 89
11, 1529, Note_on_c, 8, 62, 87
11, 1529, Note_on_c, 8, 69, 89
11, 1538, Note_on_c, 8, 65, 0
11, 1539, Note_on_c, 8, 69, 0
11, 1539, Note_on_c, 8, 62, 0
11, 1557, Note_on_c, 8, 65, 104
11, 1557, Channel_aftertouch_c, 8, 1
11, 1558, Note_on_c, 8, 72, 95
11, 1558, Note_on_c, 8, 69, 95
11, 1558, Channel_aftertouch_c, 8, 0
11, 1559, Channel_aftertouch_c, 8, 1
11, 1559, Channel_aftertouch_c, 8, 0
11, 1607, Note_on_c, 8, 65, 0
11, 1608, Note_on_c, 8, 69, 0
11, 1612, Note_on_c, 8, 72, 0
11, 1621, Note_on_c, 8, 67, 107
11, 1622, Note_on_c, 8, 74, 120
11, 1622, Note_on_c, 8, 71, 127
11, 1625, Channel_aftertouch_c, 8, 4
11, 1625, Channel_aftertouch_c, 8, 0
11, 1626, Channel_aftertouch_c, 8, 1
11, 1626, Channel_aftertouch_c, 8, 5
11, 1627, Channel_aftertouch_c, 8, 9
11, 1628, Channel_aftertouch_c, 8, 13
11, 1628, Channel_aftertouch_c, 8, 17
11, 1629, Channel_aftertouch_c, 8, 21
11, 1630, Channel_aftertouch_c, 8, 25
11, 1631, Channel_aftertouch_c, 8, 29
11, 1632, Channel_aftertouch_c, 8, 31
11, 1632, Channel_aftertouch_c, 8, 27
11, 1633, Channel_aftertouch_c, 8, 23
11, 1634, Channel_aftertouch_c, 8, 19
11, 1634, Channel_aftertouch_c, 8, 15
11, 1635, Channel_aftertouch_c, 8, 11
11, 1636, Channel_aftertouch_c, 8, 7
11, 1637, Channel_aftertouch_c, 8, 3
11, 1637, Channel_aftertouch_c, 8, 0
11, 1687, Channel_aftertouch_c, 8, 3
11, 1688, Channel_aftertouch_c, 8, 7
11, 1688, Channel_aftertouch_c, 8, 10
11, 1689, Channel_aftertouch_c, 8, 14
11, 1690, Channel_aftertouch_c, 8, 18
11, 1690, Channel_aftertouch_c, 8, 22
11, 1691, Channel_aftertouch_c, 8, 26
11, 1692, Channel_aftertouch_c, 8, 30
11, 1693, Channel_aftertouch_c, 8, 34
11, 1693, Channel_aftertouch_c, 8, 36
11, 1694, Channel_aftertouch_c, 8, 39
11, 1695, Channel_aftertouch_c, 8, 40
11, 1695, Channel_aftertouch_c, 8, 42
11, 1697, Channel_aftertouch_c, 8, 45
11, 1701, Channel_aftertouch_c, 8, 46
11, 1703, Channel_aftertouch_c, 8, 48
11, 1704, Channel_aftertouch_c, 8, 49
11, 1710, Channel_aftertouch_c, 8, 48
11, 1713, Channel_aftertouch_c, 8, 46
11, 1715, Channel_aftertouch_c, 8, 43
11, 1715, Channel_aftertouch_c, 8, 42
11, 1716, Channel_aftertouch_c, 8, 40
11, 1718, Channel_aftertouch_c, 8, 39
11, 1722, Channel_aftertouch_c, 8, 40
11, 1723, Channel_aftertouch_c, 8, 42
11, 1725, Channel_aftertouch_c, 8, 45
11, 1726, Channel_aftertouch_c, 8, 46
11, 1728, Channel_aftertouch_c, 8, 48
11, 1731, Channel_aftertouch_c, 8, 49
11, 1735, Channel_aftertouch_c, 8, 51
11, 1737, Channel_aftertouch_c, 8, 52
11, 1739, Channel_aftertouch_c, 8, 55
11, 1740, Channel_aftertouch_c, 8, 57
11, 1749, Channel_aftertouch_c, 8, 58
11, 1752, Channel_aftertouch_c, 8, 60
11, 1755, Channel_aftertouch_c, 8, 61
11, 1757, Channel_aftertouch_c, 8, 63
11, 1760, Channel_aftertouch_c, 8, 66
11, 1762, Channel_aftertouch_c, 8, 67
11, 1765, Channel_aftertouch_c, 8, 69
11, 1767, Channel_aftertouch_c, 8, 72
11, 1769, Channel_aftertouch_c, 8, 73
11, 1771, Channel_aftertouch_c, 8, 75
11, 1773, Channel_aftertouch_c, 8, 76
11, 1775, Channel_aftertouch_c, 8, 79
11, 1777, Channel_aftertouch_c, 8, 81
11, 1779, Channel_aftertouch_c, 8, 82
11, 1780, Channel_aftertouch_c, 8, 84
11, 1782, Channel_aftertouch_c, 8, 85
11, 1785, Channel_aftertouch_c, 8, 88
11, 1787, Channel_aftertouch_c, 8, 90
11, 1792, Channel_aftertouch_c, 8, 91
11, 1797, Channel_aftertouch_c, 8, 93
11, 1807, Channel_aftertouch_c, 8, 94
11, 1821, Channel_aftertouch_c, 8, 96
11, 1827, Channel_aftertouch_c, 8, 94
11, 1829, Channel_aftertouch_c, 8, 93
11, 1831, Channel_aftertouch_c, 8, 91
11, 1832, Channel_aftertouch_c, 8, 90
11, 1834, Channel_aftertouch_c, 8, 88
11, 1836, Channel_aftertouch_c, 8, 85
11, 1837, Channel_aftertouch_c, 8, 82
11, 1838, Channel_aftertouch_c, 8, 81
11, 1838, Channel_aftertouch_c, 8, 79
11, 1839, Channel_aftertouch_c, 8, 76
11, 1840, Channel_aftertouch_c, 8, 75
11, 1841, Channel_aftertouch_c, 8, 73
11, 1842, Channel_aftertouch_c, 8, 72
11, 1843, Channel_aftertouch_c, 8, 70
11, 1844, Channel_aftertouch_c, 8, 67
11, 1846, Channel_aftertouch_c, 8, 66
11, 1847, Channel_aftertouch_c, 8, 63
11, 1849, Channel_aftertouch_c, 8, 61
11, 1849, Channel_aftertouch_c, 8, 60
11, 1850, Channel_aftertouch_c, 8, 58
11, 1851, Channel_aftertouch_c, 8, 55
11, 1851, Channel_aftertouch_c, 8, 52
11, 1853, Channel_aftertouch_c, 8, 49
11, 1853, Channel_aftertouch_c, 8, 45
11, 1854, Channel_aftertouch_c, 8, 41
11, 1854, Channel_aftertouch_c, 8, 37
11, 1855, Channel_aftertouch_c, 8, 33
11, 1856, Channel_aftertouch_c, 8, 29
11, 1857, Channel_aftertouch_c, 8, 25
11, 1857, Channel_aftertouch_c, 8, 21
11, 1858, Channel_aftertouch_c, 8, 17
11, 1859, Channel_aftertouch_c, 8, 13
11, 1860, Channel_aftertouch_c, 8, 9
11, 1860, Channel_aftertouch_c, 8, 5
11, 1861, Channel_aftertouch_c, 8, 1
11, 1862, Channel_aftertouch_c, 8, 0
11, 1891, Note_on_c, 8, 71, 0
11, 1892, Note_on_c, 8, 74, 0
11, 1893, Note_on_c, 8, 67, 0
11, 1918, Note_on_c, 8, 65, 114
11, 1918, Note_on_c, 8, 69, 114
11, 1919, Note_on_c, 8, 62, 104
11, 1997, Note_on_c, 8, 62, 0
11, 1997, Note_on_c, 8, 65, 0
11, 1998, Note_on_c, 8, 69, 0
11, 2011, Note_on_c, 8, 65, 89
11, 2012, Note_on_c, 8, 69, 99
11, 2012, Note_on_c, 8, 62, 84
11, 2019, Note_on_c, 8, 62, 0
11, 2019, Note_on_c, 8, 65, 0
11, 2022, Note_on_c, 8, 69, 0
11, 2039, Note_on_c, 8, 72, 107
11, 2039, Note_on_c, 8, 65, 107
11, 2040, Note_on_c, 8, 69, 104
11, 2085, Note_on_c, 8, 65, 0
11, 2087, Note_on_c, 8, 69, 0
11, 2091, Note_on_c, 8, 72, 0
11, 2102, Note_on_c, 8, 67, 107
11, 2102, Note_on_c, 8, 74, 120
11, 2102, Note_on_c, 8, 71, 127
11, 2107, Channel_aftertouch_c, 8, 3
11, 2107, Channel_aftertouch_c, 8, 0
11, 2107, Channel_aftertouch_c, 8, 4
11, 2108, Channel_aftertouch_c, 8, 8
11, 2109, Channel_aftertouch_c, 8, 12
11, 2110, Channel_aftertouch_c, 8, 16
11, 2110, Channel_aftertouch_c, 8, 20
11, 2111, Channel_aftertouch_c, 8, 24
11, 2112, Channel_aftertouch_c, 8, 28
11, 2112, Channel_aftertouch_c, 8, 32
11, 2113, Channel_aftertouch_c, 8, 28
11, 2114, Channel_aftertouch_c, 8, 24
11, 2115, Channel_aftertouch_c, 8, 20
11, 2115, Channel_aftertouch_c, 8, 16
11, 2116, Channel_aftertouch_c, 8, 12
11, 2117, Channel_aftertouch_c, 8, 8
11, 2118, Channel_aftertouch_c, 8, 4
11, 2118, Channel_aftertouch_c, 8, 0
11, 2315, Pitch_bend_c, 8, 7936
11, 2317, Pitch_bend_c, 8, 7808
11, 2319, Pitch_bend_c, 8, 7552
11, 2321, Pitch_bend_c, 8, 7424
11, 2324, Pitch_bend_c, 8, 7296
11, 2326, Pitch_bend_c, 8, 7168
11, 2328, Pitch_bend_c, 8, 7040
11, 2330, Pitch_bend_c, 8, 6912
11, 2333, Pitch_bend_c, 8, 6784
11, 2334, Pitch_bend_c, 8, 6528
11, 2335, Pitch_bend_c, 8, 6400
11, 2337, Pitch_bend_c, 8, 6272
11, 2339, Pitch_bend_c, 8, 6016
11, 2340, Pitch_bend_c, 8, 5888
11, 2341, Pitch_bend_c, 8, 5760
11, 2343, Pitch_bend_c, 8, 5632
11, 2344, Pitch_bend_c, 8, 5376
11, 2346, Pitch_bend_c, 8, 5120
11, 2347, Pitch_bend_c, 8, 4864
11, 2349, Pitch_bend_c, 8, 4736
11, 2350, Pitch_bend_c, 8, 4608
11, 2351, Pitch_bend_c, 8, 4352
11, 2353, Pitch_bend_c, 8, 4224
11, 2354, Pitch_bend_c, 8, 3968
11, 2356, Pitch_bend_c, 8, 3840
11, 2357, Pitch_bend_c, 8, 3584
11, 2359, Pitch_bend_c, 8, 3456
11, 2360, Pitch_bend_c, 8, 3200
11, 2362, Pitch_bend_c, 8, 3072
11, 2363, Pitch_bend_c, 8, 2816
11, 2365, Pitch_bend_c, 8, 2688
11, 2366, Pitch_bend_c, 8, 2560
11, 2367, Pitch_bend_c, 8, 2432
11, 2369, Pitch_bend_c, 8, 2304
11, 2370, Pitch_bend_c, 8, 2048
11, 2371, Note_on_c, 8, 74, 0
11, 2372, Note_on_c, 8, 71, 0
11, 2372, Pitch_bend_c, 8, 1920
11, 2373, Pitch_bend_c, 8, 1792
11, 2375, Note_on_c, 8, 67, 0
11, 2375, Pitch_bend_c, 8, 1664
11, 2376, Pitch_bend_c, 8, 1408
11, 2378, Pitch_bend_c, 8, 1280
11, 2379, Pitch_bend_c, 8, 1152
11, 2381, Pitch_bend_c, 8, 896
11, 2382, Pitch_bend_c, 8, 768
11, 2384, Pitch_bend_c, 8, 640
11, 2386, Pitch_bend_c, 8, 512
11, 2389, Pitch_bend_c, 8, 384
11, 2400, Pitch_bend_c, 8, 512
11, 2401, Pitch_bend_c, 8, 640
11, 2402, Pitch_bend_c, 8, 896
11, 2404, Pitch_bend_c, 8, 1024
11, 2405, Pitch_bend_c, 8, 1152
11, 2405, Pitch_bend_c, 8, 1280
11, 2406, Pitch_bend_c, 8, 1536
11, 2407, Pitch_bend_c, 8, 1664
11, 2407, Pitch_bend_c, 8, 1792
11, 2408, Pitch_bend_c, 8, 2048
11, 2409, Pitch_bend_c, 8, 2304
11, 2409, Pitch_bend_c, 8, 2432
11, 2410, Pitch_bend_c, 8, 2688
11, 2411, Pitch_bend_c, 8, 2944
11, 2412, Pitch_bend_c, 8, 3200
11, 2412, Pitch_bend_c, 8, 3456
11, 2413, Pitch_bend_c, 8, 3712
11, 2414, Pitch_bend_c, 8, 4096
11, 2415, Pitch_bend_c, 8, 4352
11, 2416, Pitch_bend_c, 8, 4608
11, 2416, Pitch_bend_c, 8, 4864
11, 2417, Pitch_bend_c, 8, 4992
11, 2418, Pitch_bend_c, 8, 5376
11, 2418, Pitch_bend_c, 8, 5632
11, 2419, Pitch_bend_c, 8, 5888
11, 2420, Pitch_bend_c, 8, 6144
11, 2421, Pitch_bend_c, 8, 6272
11, 2421, Pitch_bend_c, 8, 6528
11, 2422, Pitch_bend_c, 8, 6784
11, 2423, Pitch_bend_c, 8, 6912
11, 2423, Pitch_bend_c, 8, 7168
11, 2424, Pitch_bend_c, 8, 7296
11, 2425, Pitch_bend_c, 8, 7552
11, 2426, Pitch_bend_c, 8, 7808
11, 2426, Pitch_bend_c, 8, 8192
11, 11040, Note_on_c, 8, 62, 95
11, 11041, Note_on_c, 8, 69, 104
11, 11041, Note_on_c, 8, 65, 104
11, 11110, Note_on_c, 8, 65, 0
11, 11113, Note_on_c, 8, 69, 0
11, 11113, Note_on_c, 8, 62, 0
11, 11131, Note_on_c, 8, 62, 79
11, 11131, Note_on_c, 8, 65, 80
11, 11132, Note_on_c, 8, 69, 79
11, 11139, Note_on_c, 8, 65, 0
11, 11141, Note_on_c, 8, 69, 0
11, 11141, Note_on_c, 8, 62, 0
11, 11160, Note_on_c, 8, 65, 92
11, 11161, Note_on_c, 8, 72, 95
11, 11161, Note_on_c, 8, 69, 94
11, 11205, Note_on_c, 8, 69, 0
11, 11205, Note_on_c, 8, 65, 0
11, 11208, Note_on_c, 8, 72, 0
11, 11222, Note_on_c, 8, 67, 99
11, 11222, Note_on_c, 8, 74, 107
11, 11222, Note_on_c, 8, 71, 120
11, 11226, Channel_aftertouch_c, 8, 4
11, 11226, Channel_aftertouch_c, 8, 1
11, 11227, Channel_aftertouch_c, 8, 5
11, 11228, Channel_aftertouch_c, 8, 9
11, 11228, Channel_aftertouch_c, 8, 13
11, 11229, Channel_aftertouch_c, 8, 17
11, 11230, Channel_aftertouch_c, 8, 21
11, 11231, Channel_aftertouch_c, 8, 25
11, 11231, Channel_aftertouch_c, 8, 29
11, 11232, Channel_aftertouch_c, 8, 33
11, 11233, Channel_aftertouch_c, 8, 29
11, 11233, Channel_aftertouch_c, 8, 25
11, 11234, Channel_aftertouch_c, 8, 21
11, 11235, Channel_aftertouch_c, 8, 17
11, 11236, Channel_aftertouch_c, 8, 13
11, 11236, Channel_aftertouch_c, 8, 9
11, 11237, Channel_aftertouch_c, 8, 5
11, 11238, Channel_aftertouch_c, 8, 1
11, 11238, Channel_aftertouch_c, 8, 0
11, 11249, Channel_aftertouch_c, 8, 3
11, 11249, Channel_aftertouch_c, 8, 6
11, 11250, Channel_aftertouch_c, 8, 9
11, 11251, Channel_aftertouch_c, 8, 10
11, 11252, Channel_aftertouch_c, 8, 12
11, 11253, Channel_aftertouch_c, 8, 15
11, 11255, Channel_aftertouch_c, 8, 16
11, 11257, Channel_aftertouch_c, 8, 18
11, 11258, Channel_aftertouch_c, 8, 21
11, 11260, Channel_aftertouch_c, 8, 22
11, 11261, Channel_aftertouch_c, 8, 24
11, 11265, Channel_aftertouch_c, 8, 22
11, 11267, Channel_aftertouch_c, 8, 21
11, 11279, Channel_aftertouch_c, 8, 19
11, 11279, Channel_aftertouch_c, 8, 18
11, 11281, Channel_aftertouch_c, 8, 15
11, 11282, Channel_aftertouch_c, 8, 12
11, 11294, Channel_aftertouch_c, 8, 10
11, 11296, Channel_aftertouch_c, 8, 9
11, 11298, Channel_aftertouch_c, 8, 7
11, 11301, Channel_aftertouch_c, 8, 9
11, 11303, Channel_aftertouch_c, 8, 10
11, 11317, Channel_aftertouch_c, 8, 12
11, 11318, Channel_aftertouch_c, 8, 13
11, 11320, Channel_aftertouch_c, 8, 15
11, 11322, Channel_aftertouch_c, 8, 16
11, 11326, Channel_aftertouch_c, 8, 15
11, 11328, Channel_aftertouch_c, 8, 13
11, 11330, Channel_aftertouch_c, 8, 12
11, 11331, Channel_aftertouch_c, 8, 9
11, 11333, Channel_aftertouch_c, 8, 7
11, 11334, Channel_aftertouch_c, 8, 6
11, 11336, Channel_aftertouch_c, 8, 3
11, 11337, Channel_aftertouch_c, 8, 0
11, 11366, Channel_aftertouch_c, 8, 3
11, 11367, Channel_aftertouch_c, 8, 6
11, 11368, Channel_aftertouch_c, 8, 7
11, 11369, Channel_aftertouch_c, 8, 10
11, 11369, Channel_aftertouch_c, 8, 12
11, 11370, Channel_aftertouch_c, 8, 13
11, 11371, Channel_aftertouch_c, 8, 15
11, 11372, Channel_aftertouch_c, 8, 16
11, 11372, Channel_aftertouch_c, 8, 19
11, 11373, Channel_aftertouch_c, 8, 21
11, 11374, Channel_aftertouch_c, 8, 22
11, 11376, Channel_aftertouch_c, 8, 24
11, 11377, Channel_aftertouch_c, 8, 27
11, 11378, Channel_aftertouch_c, 8, 28
11, 11381, Channel_aftertouch_c, 8, 30
11, 11383, Channel_aftertouch_c, 8, 31
11, 11384, Channel_aftertouch_c, 8, 33
11, 11386, Channel_aftertouch_c, 8, 36
11, 11387, Channel_aftertouch_c, 8, 37
11, 11389, Channel_aftertouch_c, 8, 40
11, 11390, Channel_aftertouch_c, 8, 42
11, 11391, Channel_aftertouch_c, 8, 43
11, 11393, Channel_aftertouch_c, 8, 46
11, 11395, Channel_aftertouch_c, 8, 48
11, 11397, Channel_aftertouch_c, 8, 49
11, 11398, Channel_aftertouch_c, 8, 51
11, 11400, Channel_aftertouch_c, 8, 52
11, 11401, Channel_aftertouch_c, 8, 54
11, 11402, Channel_aftertouch_c, 8, 57
11, 11404, Channel_aftertouch_c, 8, 60
11, 11405, Channel_aftertouch_c, 8, 61
11, 11407, Channel_aftertouch_c, 8, 63
11, 11408, Channel_aftertouch_c, 8, 66
11, 11410, Channel_aftertouch_c, 8, 67
11, 11411, Channel_aftertouch_c, 8, 69
11, 11413, Channel_aftertouch_c, 8, 70
11, 11414, Channel_aftertouch_c, 8, 72
11, 11415, Channel_aftertouch_c, 8, 75
11, 11416, Channel_aftertouch_c, 8, 76
11, 11418, Channel_aftertouch_c, 8, 78
11, 11419, Channel_aftertouch_c, 8, 79
11, 11421, Channel_aftertouch_c, 8, 81
11, 11423, Channel_aftertouch_c, 8, 84
11, 11425, Channel_aftertouch_c, 8, 85
11, 11427, Channel_aftertouch_c, 8, 87
11, 11430, Channel_aftertouch_c, 8, 88
11, 11432, Channel_aftertouch_c, 8, 90
11, 11435, Channel_aftertouch_c, 8, 91
11, 11438, Channel_aftertouch_c, 8, 93
11, 11440, Channel_aftertouch_c, 8, 94
11, 11444, Channel_aftertouch_c, 8, 96
11, 11446, Channel_aftertouch_c, 8, 97
11, 11450, Channel_aftertouch_c, 8, 99
11, 11458, Channel_aftertouch_c, 8, 97
11, 11460, Channel_aftertouch_c, 8, 96
11, 11461, Channel_aftertouch_c, 8, 93
11, 11462, Channel_aftertouch_c, 8, 91
11, 11463, Channel_aftertouch_c, 8, 90
11, 11464, Channel_aftertouch_c, 8, 86
11, 11464, Channel_aftertouch_c, 8, 82
11, 11465, Channel_aftertouch_c, 8, 78
11, 11466, Channel_aftertouch_c, 8, 74
11, 11467, Channel_aftertouch_c, 8, 70
11, 11467, Channel_aftertouch_c, 8, 66
11, 11469, Channel_aftertouch_c, 8, 64
11, 11470, Channel_aftertouch_c, 8, 61
11, 11471, Channel_aftertouch_c, 8, 58
11, 11472, Channel_aftertouch_c, 8, 54
11, 11472, Channel_aftertouch_c, 8, 50
11, 11473, Channel_aftertouch_c, 8, 46
11, 11474, Channel_aftertouch_c, 8, 42
11, 11475, Channel_aftertouch_c, 8, 38
11, 11475, Channel_aftertouch_c, 8, 34
11, 11476, Channel_aftertouch_c, 8, 30
11, 11477, Channel_aftertouch_c, 8, 26
11, 11478, Channel_aftertouch_c, 8, 22
11, 11479, Channel_aftertouch_c, 8, 18
11, 11479, Channel_aftertouch_c, 8, 14
11, 11480, Channel_aftertouch_c, 8, 10
11, 11481, Channel_aftertouch_c, 8, 6
11, 11481, Channel_aftertouch_c, 8, 2
11, 11482, Channel_aftertouch_c, 8, 0
11, 11488, Note_on_c, 8, 71, 0
11, 11488, Note_on_c, 8, 74, 0
11, 11490, Note_on_c, 8, 67, 0
11, 11516, Channel_aftertouch_c, 8, 1
11, 11516, Channel_aftertouch_c, 8, 0
11, 11517, Channel_aftertouch_c, 8, 1
11, 11517, Note_on_c, 8, 62, 99
11, 11517, Channel_aftertouch_c, 8, 4
11, 11518, Note_on_c, 8, 65, 120
11, 11518, Note_on_c, 8, 69, 114
11, 11518, Channel_aftertouch_c, 8, 3
11, 11519, Channel_aftertouch_c, 8, 6
11, 11519, Channel_aftertouch_c, 8, 9
11, 11520, Channel_aftertouch_c, 8, 7
11, 11521, Channel_aftertouch_c, 8, 3
11, 11522, Channel_aftertouch_c, 8, 0
11, 11586, Note_on_c, 8, 62, 0
11, 11587, Note_on_c, 8, 65, 0
11, 11590, Note_on_c, 8, 69, 0
11, 11608, Note_on_c, 8, 65, 89
11, 11609, Note_on_c, 8, 62, 87
11, 11609, Note_on_c, 8, 69, 92
11, 11619, Note_on_c, 8, 62, 0
11, 11619, Note_on_c, 8, 65, 0
11, 11620, Note_on_c, 8, 69, 0
11, 11638, Note_on_c, 8, 65, 99
11, 11638, Note_on_c, 8, 72, 99
11, 11639, Note_on_c, 8, 69, 99
11, 11686, Note_on_c, 8, 69, 0
11, 11686, Note_on_c, 8, 65, 0
11, 11688, Note_on_c, 8, 72, 0
11, 11700, Note_on_c, 8, 67, 95
11, 11701, Note_on_c, 8, 74, 107
11, 11701, Note_on_c, 8, 71, 114
11, 11703, Channel_aftertouch_c, 8, 4
11, 11703, Channel_aftertouch_c, 8, 0
11, 11703, Channel_aftertouch_c, 8, 4
11, 11704, Channel_aftertouch_c, 8, 8
11, 11705, Channel_aftertouch_c, 8, 12
11, 11705, Channel_aftertouch_c, 8, 16
11, 11706, Channel_aftertouch_c, 8, 20
11, 11707, Channel_aftertouch_c, 8, 24
11, 11708, Channel_aftertouch_c, 8, 28
11, 11708, Channel_aftertouch_c, 8, 24
11, 11709, Channel_aftertouch_c, 8, 20
11, 11710, Channel_aftertouch_c, 8, 16
11, 11711, Channel_aftertouch_c, 8, 12
11, 11711, Channel_aftertouch_c, 8, 8
11, 11712, Channel_aftertouch_c, 8, 4
11, 11713, Channel_aftertouch_c, 8, 0
11, 11815, Channel_aftertouch_c, 8, 1
11, 11816, Channel_aftertouch_c, 8, 3
11, 11818, Channel_aftertouch_c, 8, 4
11, 11820, Channel_aftertouch_c, 8, 7
11, 11822, Channel_aftertouch_c, 8, 9
11, 11823, Channel_aftertouch_c, 8, 10
11, 11825, Channel_aftertouch_c, 8, 13
11, 11826, Channel_aftertouch_c, 8, 15
11, 11828, Channel_aftertouch_c, 8, 18
11, 11829, Channel_aftertouch_c, 8, 19
11, 11831, Channel_aftertouch_c, 8, 21
11, 11833, Channel_aftertouch_c, 8, 24
11, 11835, Channel_aftertouch_c, 8, 25
11, 11836, Channel_aftertouch_c, 8, 27
11, 11838, Channel_aftertouch_c, 8, 30
11, 11840, Channel_aftertouch_c, 8, 31
11, 11841, Channel_aftertouch_c, 8, 33
11, 11843, Channel_aftertouch_c, 8, 36
11, 11846, Channel_aftertouch_c, 8, 37
11, 11848, Channel_aftertouch_c, 8, 39
11, 11850, Channel_aftertouch_c, 8, 40
11, 11854, Channel_aftertouch_c, 8, 42
11, 11857, Channel_aftertouch_c, 8, 43
11, 11857, Channel_aftertouch_c, 8, 45
11, 11859, Channel_aftertouch_c, 8, 46
11, 11860, Channel_aftertouch_c, 8, 49
11, 11862, Channel_aftertouch_c, 8, 51
11, 11863, Channel_aftertouch_c, 8, 52
11, 11865, Channel_aftertouch_c, 8, 54
11, 11869, Channel_aftertouch_c, 8, 55
11, 11870, Channel_aftertouch_c, 8, 57
11, 11871, Channel_aftertouch_c, 8, 58
11, 11873, Channel_aftertouch_c, 8, 60
11, 11874, Channel_aftertouch_c, 8, 63
11, 11876, Channel_aftertouch_c, 8, 67
11, 11877, Channel_aftertouch_c, 8, 69
11, 11877, Channel_aftertouch_c, 8, 70
11, 11878, Channel_aftertouch_c, 8, 72
11, 11879, Channel_aftertouch_c, 8, 73
11, 11879, Channel_aftertouch_c, 8, 76
11, 11880, Channel_aftertouch_c, 8, 78
11, 11882, Channel_aftertouch_c, 8, 79
11, 11883, Channel_aftertouch_c, 8, 82
11, 11885, Channel_aftertouch_c, 8, 85
11, 11886, Channel_aftertouch_c, 8, 88
11, 11888, Channel_aftertouch_c, 8, 90
11, 11889, Channel_aftertouch_c, 8, 93
11, 11890, Channel_aftertouch_c, 8, 94
11, 11893, Channel_aftertouch_c, 8, 96
11, 11896, Channel_aftertouch_c, 8, 97
11, 11899, Channel_aftertouch_c, 8, 99
11, 11902, Channel_aftertouch_c, 8, 100
11, 11905, Channel_aftertouch_c, 8, 102
11, 11910, Channel_aftertouch_c, 8, 103
11, 11929, Channel_aftertouch_c, 8, 102
11, 11931, Channel_aftertouch_c, 8, 100
11, 11933, Channel_aftertouch_c, 8, 99
11, 11934, Channel_aftertouch_c, 8, 96
11, 11935, Channel_aftertouch_c, 8, 93
11, 11936, Channel_aftertouch_c, 8, 91
11, 11937, Channel_aftertouch_c, 8, 88
11, 11938, Channel_aftertouch_c, 8, 85
11, 11939, Channel_aftertouch_c, 8, 82
11, 11939, Channel_aftertouch_c, 8, 79
11, 11940, Channel_aftertouch_c, 8, 75
11, 11941, Channel_aftertouch_c, 8, 71
11, 11941, Channel_aftertouch_c, 8, 67
11, 11942, Channel_aftertouch_c, 8, 63
11, 11943, Channel_aftertouch_c, 8, 59
11, 11944, Channel_aftertouch_c, 8, 55
11, 11944, Channel_aftertouch_c, 8, 51
11, 11945, Channel_aftertouch_c, 8, 47
11, 11946, Channel_aftertouch_c, 8, 43
11, 11946, Channel_aftertouch_c, 8, 39
11, 11947, Channel_aftertouch_c, 8, 35
11, 11948, Channel_aftertouch_c, 8, 31
11, 11949, Channel_aftertouch_c, 8, 27
11, 11949, Channel_aftertouch_c, 8, 23
11, 11950, Channel_aftertouch_c, 8, 19
11, 11951, Channel_aftertouch_c, 8, 15
11, 11952, Channel_aftertouch_c, 8, 11
11, 11952, Channel_aftertouch_c, 8, 7
11, 11953, Channel_aftertouch_c, 8, 3
11, 11954, Channel_aftertouch_c, 8, 0
11, 11971, Note_on_c, 8, 71, 0
11, 11974, Note_on_c, 8, 74, 0
11, 11975, Note_on_c, 8, 67, 0
11, 11999, Note_on_c, 8, 62, 95
11, 12000, Note_on_c, 8, 65, 107
11, 12001, Note_on_c, 8, 69, 104
11, 12059, Note_on_c, 8, 65, 0
11, 12059, Note_on_c, 8, 62, 0
11, 12062, Note_on_c, 8, 69, 0
11, 12090, Note_on_c, 8, 69, 95
11, 12091, Note_on_c, 8, 62, 87
11, 12091, Note_on_c, 8, 65, 89
11, 12097, Note_on_c, 8, 65, 0
11, 12098, Note_on_c, 8, 62, 0
11, 12100, Note_on_c, 8, 69, 0
11, 12119, Note_on_c, 8, 65, 99
11, 12119, Note_on_c, 8, 72, 95
11, 12119, Note_on_c, 8, 69, 99
11, 12156, Note_on_c, 8, 69, 0
11, 12157, Note_on_c, 8, 65, 0
11, 12160, Note_on_c, 8, 72, 0
11, 12180, Note_on_c, 8, 67, 99
11, 12181, Note_on_c, 8, 74, 114
11, 12181, Note_on_c, 8, 71, 120
11, 12182, Channel_aftertouch_c, 8, 3
11, 12182, Channel_aftertouch_c, 8, 0
11, 12183, Channel_aftertouch_c, 8, 4
11, 12184, Channel_aftertouch_c, 8, 8
11, 12185, Channel_aftertouch_c, 8, 12
11, 12185, Channel_aftertouch_c, 8, 16
11, 12186, Channel_aftertouch_c, 8, 20
11, 12187, Channel_aftertouch_c, 8, 24
11, 12188, Channel_aftertouch_c, 8, 20
11, 12188, Channel_aftertouch_c, 8, 16
11, 12189, Channel_aftertouch_c, 8, 12
11, 12190, Channel_aftertouch_c, 8, 8
11, 12191, Channel_aftertouch_c, 8, 4
11, 12192, Channel_aftertouch_c, 8, 0
11, 12387, Channel_aftertouch_c, 8, 3
11, 12387, Channel_aftertouch_c, 8, 6
11, 12388, Channel_aftertouch_c, 8, 9
11, 12388, Channel_aftertouch_c, 8, 12
11, 12389, Channel_aftertouch_c, 8, 15
11, 12390, Channel_aftertouch_c, 8, 18
11, 12391, Channel_aftertouch_c, 8, 22
11, 12391, Channel_aftertouch_c, 8, 24
11, 12392, Channel_aftertouch_c, 8, 27
11, 12393, Channel_aftertouch_c, 8, 28
11, 12393, Channel_aftertouch_c, 8, 31
11, 12394, Channel_aftertouch_c, 8, 33
11, 12396, Channel_aftertouch_c, 8, 36
11, 12397, Channel_aftertouch_c, 8, 39
11, 12398, Channel_aftertouch_c, 8, 40
11, 12400, Channel_aftertouch_c, 8, 42
11, 12402, Channel_aftertouch_c, 8, 43
11, 12404, Channel_aftertouch_c, 8, 46
11, 12408, Channel_aftertouch_c, 8, 48
11, 12411, Channel_aftertouch_c, 8, 45
11, 12411, Channel_aftertouch_c, 8, 43
11, 12412, Channel_aftertouch_c, 8, 42
11, 12413, Channel_aftertouch_c, 8, 40
11, 12415, Channel_aftertouch_c, 8, 39
11, 12423, Channel_aftertouch_c, 8, 36
11, 12425, Channel_aftertouch_c, 8, 34
11, 12426, Channel_aftertouch_c, 8, 31
11, 12426, Channel_aftertouch_c, 8, 30
11, 12427, Channel_aftertouch_c, 8, 28
11, 12428, Channel_aftertouch_c, 8, 27
11, 12428, Channel_aftertouch_c, 8, 25
11, 12429, Channel_aftertouch_c, 8, 24
11, 12431, Channel_aftertouch_c, 8, 22
11, 12433, Channel_aftertouch_c, 8, 19
11, 12437, Channel_aftertouch_c, 8, 21
11, 12439, Channel_aftertouch_c, 8, 22
11, 12440, Channel_aftertouch_c, 8, 25
11, 12442, Channel_aftertouch_c, 8, 21
11, 12443, Channel_aftertouch_c, 8, 17
11, 12443, Channel_aftertouch_c, 8, 13
11, 12444, Channel_aftertouch_c, 8, 9
11, 12445, Channel_aftertouch_c, 8, 5
11, 12445, Channel_aftertouch_c, 8, 1
11, 12446, Channel_aftertouch_c, 8, 0
11, 12457, Note_on_c, 8, 71, 0
11, 12457, Note_on_c, 8, 67, 0
11, 12459, Note_on_c, 8, 74, 0
11, 12479, Note_on_c, 8, 65, 104
11, 12479, Note_on_c, 8, 62, 85
11, 12479, Note_on_c, 8, 69, 104
11, 12549, Note_on_c, 8, 62, 0
11, 12551, Note_on_c, 8, 65, 0
11, 12552, Note_on_c, 8, 69, 0
11, 12572, Note_on_c, 8, 62, 94
11, 12572, Note_on_c, 8, 69, 99
11, 12572, Note_on_c, 8, 65, 99
11, 12580, Note_on_c, 8, 65, 0
11, 12583, Note_on_c, 8, 69, 0
11, 12583, Note_on_c, 8, 62, 0
11, 12602, Note_on_c, 8, 65, 99
11, 12602, Note_on_c, 8, 72, 104
11, 12602, Note_on_c, 8, 69, 95
11, 12642, Note_on_c, 8, 65, 0
11, 12643, Note_on_c, 8, 69, 0
11, 12647, Note_on_c, 8, 72, 0
11, 12662, Note_on_c, 8, 67, 89
11, 12662, Note_on_c, 8, 74, 107
11, 12662, Note_on_c, 8, 71, 114
11, 12667, Channel_aftertouch_c, 8, 1
11, 12667, Channel_aftertouch_c, 8, 0
11, 12668, Channel_aftertouch_c, 8, 4
11, 12669, Channel_aftertouch_c, 8, 8
11, 12669, Channel_aftertouch_c, 8, 12
11, 12670, Channel_aftertouch_c, 8, 16
11, 12671, Channel_aftertouch_c, 8, 20
11, 12671, Channel_aftertouch_c, 8, 24
11, 12672, Channel_aftertouch_c, 8, 28
11, 12673, Channel_aftertouch_c, 8, 32
11, 12674, Channel_aftertouch_c, 8, 36
11, 12674, Channel_aftertouch_c, 8, 32
11, 12675, Channel_aftertouch_c, 8, 28
11, 12676, Channel_aftertouch_c, 8, 24
11, 12677, Channel_aftertouch_c, 8, 20
11, 12677, Channel_aftertouch_c, 8, 16
11, 12678, Channel_aftertouch_c, 8, 12
11, 12679, Channel_aftertouch_c, 8, 8
11, 12679, Channel_aftertouch_c, 8, 4
11, 12680, Channel_aftertouch_c, 8, 0
11, 12796, Channel_aftertouch_c, 8, 1
11, 12797, Channel_aftertouch_c, 8, 3
11, 12798, Channel_aftertouch_c, 8, 4
11, 12799, Channel_aftertouch_c, 8, 7
11, 12800, Channel_aftertouch_c, 8, 9
11, 12801, Channel_aftertouch_c, 8, 10
11, 12803, Channel_aftertouch_c, 8, 13
11, 12805, Channel_aftertouch_c, 8, 15
11, 12807, Channel_aftertouch_c, 8, 16
11, 12808, Channel_aftertouch_c, 8, 19
11, 12810, Channel_aftertouch_c, 8, 21
11, 12812, Channel_aftertouch_c, 8, 22
11, 12814, Channel_aftertouch_c, 8, 24
11, 12816, Channel_aftertouch_c, 8, 27
11, 12817, Channel_aftertouch_c, 8, 28
11, 12820, Channel_aftertouch_c, 8, 30
11, 12822, Channel_aftertouch_c, 8, 33
11, 12824, Channel_aftertouch_c, 8, 34
11, 12827, Channel_aftertouch_c, 8, 36
11, 12835, Channel_aftertouch_c, 8, 34
11, 12839, Channel_aftertouch_c, 8, 33
11, 12842, Channel_aftertouch_c, 8, 31
11, 12843, Channel_aftertouch_c, 8, 30
11, 12844, Channel_aftertouch_c, 8, 28
11, 12845, Channel_aftertouch_c, 8, 24
11, 12846, Channel_aftertouch_c, 8, 22
11, 12847, Channel_aftertouch_c, 8, 21
11, 12847, Channel_aftertouch_c, 8, 19
11, 12848, Channel_aftertouch_c, 8, 16
11, 12849, Channel_aftertouch_c, 8, 15
11, 12850, Channel_aftertouch_c, 8, 12
11, 12852, Channel_aftertouch_c, 8, 9
11, 12853, Channel_aftertouch_c, 8, 7
11, 12855, Channel_aftertouch_c, 8, 6
11, 12855, Channel_aftertouch_c, 8, 3
11, 12856, Channel_aftertouch_c, 8, 1
11, 12857, Channel_aftertouch_c, 8, 0
11, 12921, Pitch_bend_c, 8, 7936
11, 12922, Pitch_bend_c, 8, 7808
11, 12924, Pitch_bend_c, 8, 7552
11, 12925, Pitch_bend_c, 8, 7424
11, 12926, Pitch_bend_c, 8, 7296
11, 12928, Pitch_bend_c, 8, 7040
11, 12929, Pitch_bend_c, 8, 6912
11, 12931, Pitch_bend_c, 8, 6784
11, 12931, Pitch_bend_c, 8, 6528
11, 12933, Pitch_bend_c, 8, 6400
11, 12934, Pitch_bend_c, 8, 6272
11, 12935, Pitch_bend_c, 8, 6144
11, 12936, Pitch_bend_c, 8, 6016
11, 12938, Pitch_bend_c, 8, 5760
11, 12939, Pitch_bend_c, 8, 5632
11, 12941, Pitch_bend_c, 8, 5504
11, 12942, Pitch_bend_c, 8, 5120
11, 12944, Pitch_bend_c, 8, 4992
11, 12945, Pitch_bend_c, 8, 4864
11, 12946, Pitch_bend_c, 8, 4736
11, 12948, Pitch_bend_c, 8, 4480
11, 12949, Pitch_bend_c, 8, 4352
11, 12951, Pitch_bend_c, 8, 4224
11, 12953, Pitch_bend_c, 8, 3968
11, 12954, Note_on_c, 8, 71, 0
11, 12954, Pitch_bend_c, 8, 3840
11, 12956, Note_on_c, 8, 67, 0
11, 12956, Pitch_bend_c, 8, 3712
11, 12957, Note_on_c, 8, 74, 0
11, 12959, Pitch_bend_c, 8, 3584
11, 12962, Pitch_bend_c, 8, 3456
11, 12967, Pitch_bend_c, 8, 3584
11, 12968, Pitch_bend_c, 8, 3712
11, 12970, Pitch_bend_c, 8, 3968
11, 12970, Pitch_bend_c, 8, 4096
11, 12971, Pitch_bend_c, 8, 4224
11, 12972, Pitch_bend_c, 8, 4352
11, 12973, Pitch_bend_c, 8, 4480
11, 12974, Pitch_bend_c, 8, 4608
11, 12974, Pitch_bend_c, 8, 4864
11, 12975, Pitch_bend_c, 8, 4992
11, 12976, Pitch_bend_c, 8, 5120
11, 12976, Pitch_bend_c, 8, 5376
11, 12977, Pitch_bend_c, 8, 5632
11, 12978, Pitch_bend_c, 8, 5760
11, 12979, Pitch_bend_c, 8, 6016
11, 12979, Pitch_bend_c, 8, 6144
11, 12980, Pitch_bend_c, 8, 6272
11, 12981, Pitch_bend_c, 8, 6400
11, 12982, Pitch_bend_c, 8, 6656
11, 12983, Pitch_bend_c, 8, 6784
11, 12984, Pitch_bend_c, 8, 7040
11, 12986, Pitch_bend_c, 8, 7168
11, 12987, Pitch_bend_c, 8, 7296
11, 12989, Pitch_bend_c, 8, 7552
11, 12990, Pitch_bend_c, 8, 7680
11, 12992, Pitch_bend_c, 8, 8064
11, 12993, Pitch_bend_c, 8, 8192
11, 38881, Note_on_c, 8, 67, 107
11, 38881, Note_on_c, 8, 71, 107
11, 38882, Note_on_c, 8, 74, 107
11, 38894, Note_on_c, 8, 71, 0
11, 38896, Note_on_c, 8, 74, 0
11, 38897, Note_on_c, 8, 67, 0
11, 38912, Note_on_c, 8, 67, 107
11, 38912, Note_on_c, 8, 71, 107
11, 38912, Note_on_c, 8, 74, 107
11, 38922, Note_on_c, 8, 71, 0
11, 38923, Note_on_c, 8, 74, 0
11, 38925, Note_on_c, 8, 67, 0
11, 38941, Note_on_c, 8, 67, 107
11, 38941, Note_on_c, 8, 71, 107
11, 38942, Note_on_c, 8, 74, 107
11, 38952, Note_on_c, 8, 71, 0
11, 38954, Note_on_c, 8, 74, 0
11, 38955, Note_on_c, 8, 67, 0
11, 38972, Note_on_c, 8, 67, 107
11, 38972, Note_on_c, 8, 71, 107
11, 38972, Note_on_c, 8, 74, 107
11, 38984, Note_on_c, 8, 74, 0
11, 38984, Note_on_c, 8, 71, 0
11, 38987, Note_on_c, 8, 67, 0
11, 39003, Note_on_c, 8, 67, 107
11, 39003, Note_on_c, 8, 74, 107
11, 39003, Note_on_c, 8, 71, 107
11, 39322, Note_on_c, 8, 71, 0
11, 39324, Note_on_c, 8, 74, 0
11, 39324, Note_on_c, 8, 67, 0
11, 39359, Note_on_c, 8, 67, 110
11, 39360, Note_on_c, 8, 71, 110
11, 39361, Note_on_c, 8, 74, 110
11, 39373, Note_on_c, 8, 71, 0
11, 39374, Note_on_c, 8, 74, 0
11, 39374, Note_on_c, 8, 67, 0
11, 39389, Note_on_c, 8, 71, 110
11, 39389, Note_on_c, 8, 67, 110
11, 39390, Note_on_c, 8, 74, 110
11, 39404, Note_on_c, 8, 74, 0
11, 39404, Note_on_c, 8, 67, 0
11, 39404, Note_on_c, 8, 71, 0
11, 39420, Note_on_c, 8, 67, 111
11, 39421, Note_on_c, 8, 71, 111
11, 39421, Note_on_c, 8, 74, 111
11, 39436, Note_on_c, 8, 71, 0
11, 39437, Note_on_c, 8, 74, 0
11, 39437, Note_on_c, 8, 67, 0
11, 39451, Note_on_c, 8, 74, 111
11, 39451, Note_on_c, 8, 71, 111
11, 39452, Note_on_c, 8, 67, 111
11, 39465, Note_on_c, 8, 71, 0
11, 39467, Note_on_c, 8, 67, 0
11, 39467, Note_on_c, 8, 74, 0
11, 39481, Note_on_c, 8, 67, 111
11, 39481, Note_on_c, 8, 74, 111
11, 39482, Note_on_c, 8, 71, 111
11, 39713, Channel_aftertouch_c, 8, 1
11, 39714, Channel_aftertouch_c, 8, 4
11, 39715, Channel_aftertouch_c, 8, 6
11, 39715, Channel_aftertouch_c, 8, 7
11, 39716, Channel_aftertouch_c, 8, 9
11, 39717, Channel_aftertouch_c, 8, 10
11, 39718, Channel_aftertouch_c, 8, 13
11, 39719, Channel_aftertouch_c, 8, 15
11, 39720, Channel_aftertouch_c, 8, 16
11, 39720, Channel_aftertouch_c, 8, 18
11, 39721, Channel_aftertouch_c, 8, 21
11, 39722, Channel_aftertouch_c, 8, 22
11, 39722, Channel_aftertouch_c, 8, 24
11, 39723, Channel_aftertouch_c, 8, 27
11, 39724, Channel_aftertouch_c, 8, 28
11, 39725, Channel_aftertouch_c, 8, 31
11, 39725, Channel_aftertouch_c, 8, 33
11, 39726, Channel_aftertouch_c, 8, 34
11, 39727, Channel_aftertouch_c, 8, 37
11, 39728, Channel_aftertouch_c, 8, 39
11, 39730, Channel_aftertouch_c, 8, 42
11, 39731, Channel_aftertouch_c, 8, 43
11, 39733, Channel_aftertouch_c, 8, 45
11, 39734, Channel_aftertouch_c, 8, 46
11, 39737, Channel_aftertouch_c, 8, 48
11, 39739, Channel_aftertouch_c, 8, 49
11, 39741, Channel_aftertouch_c, 8, 51
11, 39746, Channel_aftertouch_c, 8, 49
11, 39747, Channel_aftertouch_c, 8, 48
11, 39749, Channel_aftertouch_c, 8, 46
11, 39749, Channel_aftertouch_c, 8, 45
11, 39750, Channel_aftertouch_c, 8, 43
11, 39751, Channel_aftertouch_c, 8, 40
11, 39752, Channel_aftertouch_c, 8, 39
11, 39752, Channel_aftertouch_c, 8, 36
11, 39753, Channel_aftertouch_c, 8, 33
11, 39754, Channel_aftertouch_c, 8, 30
11, 39755, Channel_aftertouch_c, 8, 26
11, 39755, Channel_aftertouch_c, 8, 22
11, 39756, Channel_aftertouch_c, 8, 18
11, 39757, Channel_aftertouch_c, 8, 14
11, 39758, Channel_aftertouch_c, 8, 10
11, 39758, Channel_aftertouch_c, 8, 6
11, 39759, Channel_aftertouch_c, 8, 2
11, 39760, Channel_aftertouch_c, 8, 0
11, 39811, Note_on_c, 8, 74, 0
11, 39812, Note_on_c, 8, 71, 0
11, 39812, Note_on_c, 8, 67, 0
11, 42725, Note_on_c, 8, 62, 95
11, 42726, Note_on_c, 8, 65, 107
11, 42728, Note_on_c, 8, 69, 95
11, 42800, Note_on_c, 8, 65, 0
11, 42801, Note_on_c, 8, 62, 0
11, 42802, Note_on_c, 8, 69, 0
11, 42817, Note_on_c, 8, 65, 81
11, 42818, Note_on_c, 8, 62, 78
11, 42819, Note_on_c, 8, 69, 80
11, 42827, Note_on_c, 8, 62, 0
11, 42828, Note_on_c, 8, 65, 0
11, 42830, Note_on_c, 8, 69, 0
11, 42845, Note_on_c, 8, 72, 94
11, 42846, Note_on_c, 8, 65, 94
11, 42847, Note_on_c, 8, 69, 95
11, 42883, Note_on_c, 8, 69, 0
11, 42883, Note_on_c, 8, 65, 0
11, 42886, Note_on_c, 8, 72, 0
11, 42906, Note_on_c, 8, 74, 94
11, 42907, Note_on_c, 8, 67, 87
11, 42907, Note_on_c, 8, 71, 99
11, 43170, Note_on_c, 8, 71, 0
11, 43172, Note_on_c, 8, 74, 0
11, 43173, Note_on_c, 8, 67, 0
11, 43201, Note_on_c, 8, 65, 114
11, 43202, Note_on_c, 8, 62, 99
11, 43203, Note_on_c, 8, 69, 104
11, 43279, Note_on_c, 8, 62, 0
11, 43279, Note_on_c, 8, 65, 0
11, 43282, Note_on_c, 8, 69, 0
11, 43301, Note_on_c, 8, 69, 83
11, 43302, Note_on_c, 8, 62, 80
11, 43303, Note_on_c, 8, 65, 84
11, 43311, Note_on_c, 8, 65, 0
11, 43311, Note_on_c, 8, 62, 0
11, 43313, Note_on_c, 8, 69, 0
11, 43328, Note_on_c, 8, 65, 92
11, 43329, Note_on_c, 8, 72, 94
11, 43330, Note_on_c, 8, 69, 99
11, 43367, Note_on_c, 8, 69, 0
11, 43367, Note_on_c, 8, 65, 0
11, 43372, Note_on_c, 8, 72, 0
11, 43390, Note_on_c, 8, 67, 94
11, 43391, Note_on_c, 8, 74, 104
11, 43392, Note_on_c, 8, 71, 99
11, 43652, Note_on_c, 8, 71, 0
11, 43653, Note_on_c, 8, 74, 0
11, 43654, Note_on_c, 8, 67, 0
11, 43673, Note_on_c, 8, 69, 95
11, 43674, Note_on_c, 8, 65, 99
11, 43675, Note_on_c, 8, 62, 99
11, 43748, Note_on_c, 8, 65, 0
11, 43749, Note_on_c, 8, 62, 0
11, 43751, Note_on_c, 8, 69, 0
11, 43767, Note_on_c, 8, 62, 79
11, 43768, Note_on_c, 8, 65, 82
11, 43769, Note_on_c, 8, 69, 83
11, 43779, Note_on_c, 8, 65, 0
11, 43779, Note_on_c, 8, 62, 0
11, 43782, Note_on_c, 8, 69, 0
11, 43797, Note_on_c, 8, 65, 94
11, 43799, Note_on_c, 8, 72, 89
11, 43799, Note_on_c, 8, 69, 94
11, 43841, Note_on_c, 8, 65, 0
11, 43842, Note_on_c, 8, 69, 0
11, 43845, Note_on_c, 8, 72, 0
11, 43865, Note_on_c, 8, 67, 89
11, 43866, Note_on_c, 8, 71, 95
11, 43867, Note_on_c, 8, 74, 95
11, 44137, Note_on_c, 8, 71, 0
11, 44138, Note_on_c, 8, 67, 0
11, 44139, Note_on_c, 8, 74, 0
11, 44160, Note_on_c, 8, 65, 99
11, 44160, Note_on_c, 8, 62, 95
11, 44161, Note_on_c, 8, 69, 95
11, 44231, Note_on_c, 8, 65, 0
11, 44232, Note_on_c, 8, 62, 0
11, 44235, Note_on_c, 8, 69, 0
11, 44252, Note_on_c, 8, 62, 78
11, 44253, Note_on_c, 8, 65, 83
11, 44254, Note_on_c, 8, 69, 83
11, 44264, Note_on_c, 8, 65, 0
11, 44264, Note_on_c, 8, 62, 0
11, 44266, Note_on_c, 8, 69, 0
11, 44282, Note_on_c, 8, 65, 89
11, 44283, Note_on_c, 8, 69, 95
11, 44284, Note_on_c, 8, 72, 92
11, 44323, Note_on_c, 8, 65, 0
11, 44324, Note_on_c, 8, 69, 0
11, 44329, Note_on_c, 8, 72, 0
11, 44345, Note_on_c, 8, 67, 92
11, 44346, Note_on_c, 8, 71, 104
11, 44347, Note_on_c, 8, 74, 104
11, 44627, Pitch_bend_c, 8, 8064
11, 44628, Pitch_bend_c, 8, 7936
11, 44630, Pitch_bend_c, 8, 7808
11, 44634, Pitch_bend_c, 8, 7680
11, 44644, Pitch_bend_c, 8, 7424
11, 44647, Pitch_bend_c, 8, 7296
11, 44649, Pitch_bend_c, 8, 7168
11, 44651, Pitch_bend_c, 8, 6912
11, 44653, Pitch_bend_c, 8, 6784
11, 44656, Pitch_bend_c, 8, 6656
11, 44658, Pitch_bend_c, 8, 6400
11, 44660, Pitch_bend_c, 8, 6272
11, 44662, Pitch_bend_c, 8, 6016
11, 44664, Pitch_bend_c, 8, 5760
11, 44666, Pitch_bend_c, 8, 5632
11, 44668, Pitch_bend_c, 8, 5504
11, 44669, Pitch_bend_c, 8, 5120
11, 44670, Pitch_bend_c, 8, 4992
11, 44672, Pitch_bend_c, 8, 4864
11, 44673, Pitch_bend_c, 8, 4608
11, 44675, Pitch_bend_c, 8, 4480
11, 44676, Pitch_bend_c, 8, 4352
11, 44678, Pitch_bend_c, 8, 4224
11, 44680, Pitch_bend_c, 8, 3968
11, 44681, Pitch_bend_c, 8, 3840
11, 44683, Pitch_bend_c, 8, 3712
11, 44684, Pitch_bend_c, 8, 3584
11, 44686, Pitch_bend_c, 8, 3456
11, 44687, Pitch_bend_c, 8, 3328
11, 44689, Pitch_bend_c, 8, 3072
11, 44691, Pitch_bend_c, 8, 2944
11, 44694, Pitch_bend_c, 8, 2816
11, 44698, Pitch_bend_c, 8, 2560
11, 44701, Pitch_bend_c, 8, 2432
11, 44704, Pitch_bend_c, 8, 2304
11, 44707, Pitch_bend_c, 8, 2176
11, 44711, Pitch_bend_c, 8, 2048
11, 44714, Pitch_bend_c, 8, 1920
11, 44717, Pitch_bend_c, 8, 1792
11, 44720, Pitch_bend_c, 8, 1664
11, 44722, Pitch_bend_c, 8, 1536
11, 44724, Pitch_bend_c, 8, 1408
11, 44727, Pitch_bend_c, 8, 1152
11, 44728, Note_on_c, 8, 67, 0
11, 44729, Note_on_c, 8, 71, 0
11, 44730, Pitch_bend_c, 8, 1024
11, 44730, Pitch_bend_c, 8, 896
11, 44731, Note_on_c, 8, 74, 0
11, 44732, Pitch_bend_c, 8, 768
11, 44734, Pitch_bend_c, 8, 512
11, 44735, Pitch_bend_c, 8, 384
11, 44737, Pitch_bend_c, 8, 256
11, 44738, Pitch_bend_c, 8, 128
11, 44739, Pitch_bend_c, 8, 0
11, 44828, Pitch_bend_c, 8, 128
11, 44829, Pitch_bend_c, 8, 384
11, 44829, Pitch_bend_c, 8, 640
11, 44830, Pitch_bend_c, 8, 896
11, 44831, Pitch_bend_c, 8, 1152
11, 44832, Pitch_bend_c, 8, 1408
11, 44832, Pitch_bend_c, 8, 1664
11, 44833, Pitch_bend_c, 8, 1920
11, 44834, Pitch_bend_c, 8, 2176
11, 44834, Pitch_bend_c, 8, 2432
11, 44835, Pitch_bend_c, 8, 2688
11, 44836, Pitch_bend_c, 8, 2944
11, 44837, Pitch_bend_c, 8, 3200
11, 44837, Pitch_bend_c, 8, 3456
11, 44838, Pitch_bend_c, 8, 3840
11, 44839, Pitch_bend_c, 8, 4096
11, 44840, Pitch_bend_c, 8, 4352
11, 44840, Pitch_bend_c, 8, 4736
11, 44841, Pitch_bend_c, 8, 4992
11, 44842, Pitch_bend_c, 8, 5376
11, 44842, Pitch_bend_c, 8, 5632
11, 44843, Pitch_bend_c, 8, 5888
11, 44844, Pitch_bend_c, 8, 6144
11, 44844, Pitch_bend_c, 8, 6400
11, 44845, Pitch_bend_c, 8, 6528
11, 44846, Pitch_bend_c, 8, 6912
11, 44847, Pitch_bend_c, 8, 7040
11, 44847, Pitch_bend_c, 8, 7296
11, 44848, Pitch_bend_c, 8, 7424
11, 44849, Pitch_bend_c, 8, 7680
11, 44849, Pitch_bend_c, 8, 7936
11, 44850, Pitch_bend_c, 8, 8192
11, 44850, End_track
12, 0, Start_track
12, 0, MIDI_port, 2
12, 0, Title_t, "Flute"
12, 0, Program_c, 10, 73
12, 0, Control_c, 10, 7, 125
12, 0, Control_c, 10, 10, 64
12, 120, Control_c, 10, 11, 127
12, 120, Control_c, 10, 91, 90
12, 120, Control_c, 10, 93, 40
12, 4327, Note_on_c, 10, 74, 62
12, 4328, Pitch_bend_c, 10, 8972
12, 4328, Channel_aftertouch_c, 10, 0
12, 4329, Pitch_bend_c, 10, 9622
12, 4329, Pitch_bend_c, 10, 10142
12, 4330, Pitch_bend_c, 10, 10792
12, 4331, Pitch_bend_c, 10, 11442
12, 4331, Pitch_bend_c, 10, 11962
12, 4332, Pitch_bend_c, 10, 12352
12, 4333, Pitch_bend_c, 10, 12872
12, 4333, Pitch_bend_c, 10, 13262
12, 4334, Pitch_bend_c, 10, 13652
12, 4335, Pitch_bend_c, 10, 14042
12, 4335, Pitch_bend_c, 10, 14302
12, 4336, Pitch_bend_c, 10, 14692
12, 4337, Pitch_bend_c, 10, 14952
12, 4338, Pitch_bend_c, 10, 15212
12, 4339, Pitch_bend_c, 10, 15472
12, 4339, Pitch_bend_c, 10, 15732
12, 4340, Pitch_bend_c, 10, 15992
12, 4341, Pitch_bend_c, 10, 16252
12, 4342, Pitch_bend_c, 10, 16382
12, 4371, Channel_aftertouch_c, 10, 1
12, 4372, Channel_aftertouch_c, 10, 3
12, 4373, Channel_aftertouch_c, 10, 7
12, 4374, Channel_aftertouch_c, 10, 10
12, 4374, Channel_aftertouch_c, 10, 14
12, 4375, Channel_aftertouch_c, 10, 18
12, 4376, Channel_aftertouch_c, 10, 22
12, 4376, Channel_aftertouch_c, 10, 26
12, 4377, Channel_aftertouch_c, 10, 30
12, 4378, Channel_aftertouch_c, 10, 34
12, 4378, Channel_aftertouch_c, 10, 38
12, 4379, Channel_aftertouch_c, 10, 42
12, 4380, Channel_aftertouch_c, 10, 45
12, 4381, Channel_aftertouch_c, 10, 48
12, 4381, Channel_aftertouch_c, 10, 51
12, 4382, Channel_aftertouch_c, 10, 54
12, 4383, Channel_aftertouch_c, 10, 57
12, 4384, Channel_aftertouch_c, 10, 58
12, 4384, Channel_aftertouch_c, 10, 60
12, 4385, Channel_aftertouch_c, 10, 63
12, 4386, Channel_aftertouch_c, 10, 64
12, 4386, Channel_aftertouch_c, 10, 66
12, 4388, Channel_aftertouch_c, 10, 67
12, 4390, Channel_aftertouch_c, 10, 70
12, 4391, Channel_aftertouch_c, 10, 72
12, 4393, Channel_aftertouch_c, 10, 73
12, 4394, Channel_aftertouch_c, 10, 76
12, 4395, Channel_aftertouch_c, 10, 78
12, 4396, Channel_aftertouch_c, 10, 81
12, 4397, Channel_aftertouch_c, 10, 82
12, 4398, Channel_aftertouch_c, 10, 84
12, 4400, Channel_aftertouch_c, 10, 85
12, 4401, Channel_aftertouch_c, 10, 87
12, 4403, Channel_aftertouch_c, 10, 90
12, 4407, Channel_aftertouch_c, 10, 91
12, 4409, Channel_aftertouch_c, 10, 93
12, 4412, Channel_aftertouch_c, 10, 94
12, 4416, Channel_aftertouch_c, 10, 96
12, 4420, Channel_aftertouch_c, 10, 97
12, 4424, Channel_aftertouch_c, 10, 99
12, 4432, Channel_aftertouch_c, 10, 100
12, 4446, Channel_aftertouch_c, 10, 102
12, 4454, Channel_aftertouch_c, 10, 100
12, 4463, Channel_aftertouch_c, 10, 99
12, 4466, Channel_aftertouch_c, 10, 97
12, 4468, Channel_aftertouch_c, 10, 96
12, 4471, Channel_aftertouch_c, 10, 94
12, 4476, Channel_aftertouch_c, 10, 93
12, 4480, Channel_aftertouch_c, 10, 91
12, 4484, Channel_aftertouch_c, 10, 88
12, 4485, Channel_aftertouch_c, 10, 87
12, 4486, Channel_aftertouch_c, 10, 84
12, 4487, Channel_aftertouch_c, 10, 82
12, 4487, Channel_aftertouch_c, 10, 81
12, 4488, Channel_aftertouch_c, 10, 78
12, 4489, Channel_aftertouch_c, 10, 75
12, 4490, Channel_aftertouch_c, 10, 73
12, 4491, Channel_aftertouch_c, 10, 69
12, 4491, Channel_aftertouch_c, 10, 66
12, 4492, Channel_aftertouch_c, 10, 62
12, 4493, Channel_aftertouch_c, 10, 58
12, 4494, Channel_aftertouch_c, 10, 54
12, 4494, Channel_aftertouch_c, 10, 50
12, 4495, Channel_aftertouch_c, 10, 46
12, 4496, Channel_aftertouch_c, 10, 43
12, 4497, Channel_aftertouch_c, 10, 42
12, 4502, Channel_aftertouch_c, 10, 39
12, 4503, Channel_aftertouch_c, 10, 37
12, 4507, Channel_aftertouch_c, 10, 36
12, 4508, Channel_aftertouch_c, 10, 34
12, 4509, Channel_aftertouch_c, 10, 31
12, 4509, Channel_aftertouch_c, 10, 28
12, 4510, Channel_aftertouch_c, 10, 24
12, 4511, Channel_aftertouch_c, 10, 20
12, 4511, Channel_aftertouch_c, 10, 16
12, 4512, Channel_aftertouch_c, 10, 12
12, 4513, Channel_aftertouch_c, 10, 8
12, 4514, Channel_aftertouch_c, 10, 4
12, 4514, Channel_aftertouch_c, 10, 0
12, 4536, Pitch_bend_c, 10, 16252
12, 4537, Pitch_bend_c, 10, 16122
12, 4539, Pitch_bend_c, 10, 15992
12, 4540, Pitch_bend_c, 10, 15732
12, 4542, Pitch_bend_c, 10, 15472
12, 4543, Pitch_bend_c, 10, 15212
12, 4544, Pitch_bend_c, 10, 15082
12, 4545, Note_on_c, 10, 74, 0
12, 4545, Pitch_bend_c, 10, 14952
12, 4546, Pitch_bend_c, 10, 14692
12, 4546, Pitch_bend_c, 10, 14562
12, 4547, Pitch_bend_c, 10, 14302
12, 4548, Pitch_bend_c, 10, 14172
12, 4548, Pitch_bend_c, 10, 13912
12, 4549, Pitch_bend_c, 10, 13652
12, 4550, Pitch_bend_c, 10, 13392
12, 4550, Pitch_bend_c, 10, 13132
12, 4551, Pitch_bend_c, 10, 12872
12, 4552, Pitch_bend_c, 10, 12612
12, 4553, Pitch_bend_c, 10, 12222
12, 4553, Pitch_bend_c, 10, 11962
12, 4554, Pitch_bend_c, 10, 11702
12, 4555, Pitch_bend_c, 10, 11442
12, 4556, Pitch_bend_c, 10, 10922
12, 4556, Pitch_bend_c, 10, 10662
12, 4557, Pitch_bend_c, 10, 10402
12, 4557, Note_on_c, 10, 74, 55
12, 4559, Pitch_bend_c, 10, 10012
12, 4559, Pitch_bend_c, 10, 9752
12, 4560, Pitch_bend_c, 10, 9492
12, 4560, Pitch_bend_c, 10, 9232
12, 4561, Pitch_bend_c, 10, 8842
12, 4562, Pitch_bend_c, 10, 8712
12, 4563, Pitch_bend_c, 10, 8452
12, 4563, Pitch_bend_c, 10, 8192
12, 4622, Channel_aftertouch_c, 10, 3
12, 4623, Channel_aftertouch_c, 10, 4
12, 4624, Channel_aftertouch_c, 10, 6
12, 4625, Channel_aftertouch_c, 10, 9
12, 4625, Channel_aftertouch_c, 10, 10
12, 4626, Channel_aftertouch_c, 10, 13
12, 4627, Channel_aftertouch_c, 10, 15
12, 4628, Channel_aftertouch_c, 10, 18
12, 4629, Channel_aftertouch_c, 10, 21
12, 4629, Channel_aftertouch_c, 10, 24
12, 4630, Channel_aftertouch_c, 10, 27
12, 4631, Channel_aftertouch_c, 10, 28
12, 4632, Channel_aftertouch_c, 10, 31
12, 4632, Channel_aftertouch_c, 10, 33
12, 4633, Channel_aftertouch_c, 10, 34
12, 4634, Channel_aftertouch_c, 10, 37
12, 4634, Channel_aftertouch_c, 10, 39
12, 4635, Channel_aftertouch_c, 10, 40
12, 4636, Channel_aftertouch_c, 10, 42
12, 4637, Channel_aftertouch_c, 10, 45
12, 4638, Channel_aftertouch_c, 10, 46
12, 4640, Channel_aftertouch_c, 10, 48
12, 4640, Channel_aftertouch_c, 10, 49
12, 4642, Channel_aftertouch_c, 10, 52
12, 4644, Channel_aftertouch_c, 10, 54
12, 4645, Channel_aftertouch_c, 10, 57
12, 4647, Channel_aftertouch_c, 10, 58
12, 4649, Channel_aftertouch_c, 10, 60
12, 4650, Channel_aftertouch_c, 10, 61
12, 4651, Channel_aftertouch_c, 10, 63
12, 4654, Channel_aftertouch_c, 10, 64
12, 4655, Channel_aftertouch_c, 10, 66
12, 4657, Channel_aftertouch_c, 10, 69
12, 4660, Channel_aftertouch_c, 10, 70
12, 4662, Channel_aftertouch_c, 10, 72
12, 4664, Channel_aftertouch_c, 10, 73
12, 4667, Channel_aftertouch_c, 10, 75
12, 4671, Channel_aftertouch_c, 10, 76
12, 4675, Channel_aftertouch_c, 10, 78
12, 4677, Channel_aftertouch_c, 10, 79
12, 4681, Channel_aftertouch_c, 10, 81
12, 4685, Channel_aftertouch_c, 10, 82
12, 4690, Channel_aftertouch_c, 10, 84
12, 4701, Channel_aftertouch_c, 10, 85
12, 4708, Channel_aftertouch_c, 10, 87
12, 4716, Channel_aftertouch_c, 10, 88
12, 4742, Channel_aftertouch_c, 10, 90
12, 4752, Channel_aftertouch_c, 10, 91
12, 4764, Channel_aftertouch_c, 10, 93
12, 4770, Channel_aftertouch_c, 10, 96
12, 4777, Channel_aftertouch_c, 10, 97
12, 4784, Channel_aftertouch_c, 10, 99
12, 4796, Channel_aftertouch_c, 10, 100
12, 4819, Channel_aftertouch_c, 10, 102
12, 4830, Channel_aftertouch_c, 10, 103
12, 4853, Channel_aftertouch_c, 10, 105
12, 4916, Channel_aftertouch_c, 10, 103
12, 4920, Channel_aftertouch_c, 10, 102
12, 4926, Channel_aftertouch_c, 10, 99
12, 4928, Channel_aftertouch_c, 10, 97
12, 4929, Channel_aftertouch_c, 10, 96
12, 4931, Channel_aftertouch_c, 10, 94
12, 4933, Channel_aftertouch_c, 10, 93
12, 4934, Channel_aftertouch_c, 10, 91
12, 4935, Channel_aftertouch_c, 10, 90
12, 4937, Channel_aftertouch_c, 10, 88
12, 4939, Channel_aftertouch_c, 10, 85
12, 4940, Channel_aftertouch_c, 10, 84
12, 4942, Channel_aftertouch_c, 10, 82
12, 4943, Channel_aftertouch_c, 10, 79
12, 4945, Channel_aftertouch_c, 10, 78
12, 4945, Channel_aftertouch_c, 10, 76
12, 4946, Channel_aftertouch_c, 10, 73
12, 4947, Channel_aftertouch_c, 10, 72
12, 4948, Channel_aftertouch_c, 10, 69
12, 4949, Channel_aftertouch_c, 10, 66
12, 4950, Channel_aftertouch_c, 10, 63
12, 4950, Channel_aftertouch_c, 10, 61
12, 4951, Channel_aftertouch_c, 10, 58
12, 4952, Channel_aftertouch_c, 10, 55
12, 4952, Channel_aftertouch_c, 10, 54
12, 4953, Channel_aftertouch_c, 10, 50
12, 4954, Channel_aftertouch_c, 10, 46
12, 4955, Channel_aftertouch_c, 10, 42
12, 4955, Channel_aftertouch_c, 10, 38
12, 4956, Channel_aftertouch_c, 10, 34
12, 4957, Channel_aftertouch_c, 10, 30
12, 4957, Channel_aftertouch_c, 10, 26
12, 4958, Channel_aftertouch_c, 10, 22
12, 4959, Channel_aftertouch_c, 10, 18
12, 4959, Channel_aftertouch_c, 10, 14
12, 4960, Channel_aftertouch_c, 10, 10
12, 4961, Channel_aftertouch_c, 10, 6
12, 4962, Channel_aftertouch_c, 10, 2
12, 4962, Channel_aftertouch_c, 10, 0
12, 5203, Channel_aftertouch_c, 10, 1
12, 5205, Channel_aftertouch_c, 10, 4
12, 5207, Channel_aftertouch_c, 10, 6
12, 5208, Channel_aftertouch_c, 10, 9
12, 5210, Channel_aftertouch_c, 10, 12
12, 5210, Channel_aftertouch_c, 10, 13
12, 5211, Channel_aftertouch_c, 10, 15
12, 5212, Channel_aftertouch_c, 10, 16
12, 5213, Channel_aftertouch_c, 10, 19
12, 5213, Channel_aftertouch_c, 10, 21
12, 5214, Channel_aftertouch_c, 10, 24
12, 5215, Channel_aftertouch_c, 10, 25
12, 5215, Channel_aftertouch_c, 10, 28
12, 5216, Channel_aftertouch_c, 10, 30
12, 5217, Channel_aftertouch_c, 10, 31
12, 5218, Channel_aftertouch_c, 10, 34
12, 5218, Channel_aftertouch_c, 10, 36
12, 5219, Channel_aftertouch_c, 10, 37
12, 5220, Channel_aftertouch_c, 10, 39
12, 5221, Channel_aftertouch_c, 10, 42
12, 5223, Channel_aftertouch_c, 10, 43
12, 5224, Channel_aftertouch_c, 10, 45
12, 5226, Channel_aftertouch_c, 10, 46
12, 5227, Channel_aftertouch_c, 10, 48
12, 5231, Channel_aftertouch_c, 10, 46
12, 5231, Channel_aftertouch_c, 10, 43
12, 5232, Channel_aftertouch_c, 10, 39
12, 5233, Channel_aftertouch_c, 10, 35
12, 5234, Channel_aftertouch_c, 10, 31
12, 5234, Channel_aftertouch_c, 10, 27
12, 5235, Channel_aftertouch_c, 10, 23
12, 5236, Channel_aftertouch_c, 10, 19
12, 5236, Channel_aftertouch_c, 10, 15
12, 5237, Channel_aftertouch_c, 10, 11
12, 5238, Channel_aftertouch_c, 10, 7
12, 5239, Channel_aftertouch_c, 10, 3
12, 5240, Channel_aftertouch_c, 10, 0
12, 5250, Note_on_c, 10, 74, 0
12, 5280, Pitch_bend_c, 10, 8582
12, 5280, Pitch_bend_c, 10, 9102
12, 5281, Pitch_bend_c, 10, 9492
12, 5282, Pitch_bend_c, 10, 10012
12, 5283, Pitch_bend_c, 10, 10532
12, 5283, Pitch_bend_c, 10, 10922
12, 5284, Pitch_bend_c, 10, 11572
12, 5285, Pitch_bend_c, 10, 11962
12, 5286, Pitch_bend_c, 10, 12352
12, 5286, Note_on_c, 10, 74, 63
12, 5287, Pitch_bend_c, 10, 12872
12, 5287, Pitch_bend_c, 10, 13262
12, 5288, Pitch_bend_c, 10, 13652
12, 5288, Pitch_bend_c, 10, 14042
12, 5289, Pitch_bend_c, 10, 14302
12, 5290, Pitch_bend_c, 10, 14692
12, 5291, Pitch_bend_c, 10, 14952
12, 5292, Pitch_bend_c, 10, 15342
12, 5292, Pitch_bend_c, 10, 15602
12, 5293, Pitch_bend_c, 10, 15992
12, 5294, Pitch_bend_c, 10, 16252
12, 5294, Pitch_bend_c, 10, 16382
12, 5344, Channel_aftertouch_c, 10, 1
12, 5345, Channel_aftertouch_c, 10, 4
12, 5346, Channel_aftertouch_c, 10, 7
12, 5347, Channel_aftertouch_c, 10, 11
12, 5347, Channel_aftertouch_c, 10, 15
12, 5348, Channel_aftertouch_c, 10, 19
12, 5349, Channel_aftertouch_c, 10, 23
12, 5349, Channel_aftertouch_c, 10, 27
12, 5350, Channel_aftertouch_c, 10, 31
12, 5351, Channel_aftertouch_c, 10, 34
12, 5352, Channel_aftertouch_c, 10, 37
12, 5352, Channel_aftertouch_c, 10, 39
12, 5353, Channel_aftertouch_c, 10, 42
12, 5354, Channel_aftertouch_c, 10, 45
12, 5355, Channel_aftertouch_c, 10, 48
12, 5355, Channel_aftertouch_c, 10, 51
12, 5356, Channel_aftertouch_c, 10, 54
12, 5357, Channel_aftertouch_c, 10, 55
12, 5358, Channel_aftertouch_c, 10, 58
12, 5359, Channel_aftertouch_c, 10, 61
12, 5359, Channel_aftertouch_c, 10, 63
12, 5360, Channel_aftertouch_c, 10, 64
12, 5361, Channel_aftertouch_c, 10, 67
12, 5361, Channel_aftertouch_c, 10, 69
12, 5362, Channel_aftertouch_c, 10, 70
12, 5363, Channel_aftertouch_c, 10, 72
12, 5364, Channel_aftertouch_c, 10, 73
12, 5364, Channel_aftertouch_c, 10, 76
12, 5365, Channel_aftertouch_c, 10, 78
12, 5366, Channel_aftertouch_c, 10, 79
12, 5367, Channel_aftertouch_c, 10, 82
12, 5369, Channel_aftertouch_c, 10, 84
12, 5372, Channel_aftertouch_c, 10, 82
12, 5373, Channel_aftertouch_c, 10, 81
12, 5374, Channel_aftertouch_c, 10, 78
12, 5375, Channel_aftertouch_c, 10, 76
12, 5376, Channel_aftertouch_c, 10, 75
12, 5376, Channel_aftertouch_c, 10, 72
12, 5377, Channel_aftertouch_c, 10, 69
12, 5378, Channel_aftertouch_c, 10, 66
12, 5379, Channel_aftertouch_c, 10, 63
12, 5379, Channel_aftertouch_c, 10, 61
12, 5380, Channel_aftertouch_c, 10, 60
12, 5381, Channel_aftertouch_c, 10, 57
12, 5383, Channel_aftertouch_c, 10, 55
12, 5384, Channel_aftertouch_c, 10, 52
12, 5385, Channel_aftertouch_c, 10, 51
12, 5386, Channel_aftertouch_c, 10, 47
12, 5386, Channel_aftertouch_c, 10, 43
12, 5387, Channel_aftertouch_c, 10, 39
12, 5388, Channel_aftertouch_c, 10, 35
12, 5389, Channel_aftertouch_c, 10, 31
12, 5389, Channel_aftertouch_c, 10, 27
12, 5390, Channel_aftertouch_c, 10, 23
12, 5391, Channel_aftertouch_c, 10, 19
12, 5392, Channel_aftertouch_c, 10, 15
12, 5393, Channel_aftertouch_c, 10, 11
12, 5393, Channel_aftertouch_c, 10, 7
12, 5394, Channel_aftertouch_c, 10, 3
12, 5395, Channel_aftertouch_c, 10, 0
12, 5458, Note_on_c, 10, 75, 53
12, 5460, Note_on_c, 10, 74, 0
12, 5486, Note_on_c, 10, 75, 0
12, 5487, Note_on_c, 10, 74, 59
12, 5506, Note_on_c, 10, 74, 0
12, 5511, Pitch_bend_c, 10, 16252
12, 5511, Pitch_bend_c, 10, 15992
12, 5512, Pitch_bend_c, 10, 15862
12, 5513, Pitch_bend_c, 10, 15602
12, 5513, Pitch_bend_c, 10, 15342
12, 5514, Pitch_bend_c, 10, 14952
12, 5515, Pitch_bend_c, 10, 14692
12, 5516, Pitch_bend_c, 10, 14432
12, 5516, Pitch_bend_c, 10, 14042
12, 5517, Pitch_bend_c, 10, 13652
12, 5518, Pitch_bend_c, 10, 13392
12, 5518, Pitch_bend_c, 10, 13002
12, 5519, Pitch_bend_c, 10, 12612
12, 5520, Note_on_c, 10, 74, 59
12, 5520, Pitch_bend_c, 10, 12092
12, 5521, Pitch_bend_c, 10, 11702
12, 5521, Pitch_bend_c, 10, 11312
12, 5522, Pitch_bend_c, 10, 10792
12, 5523, Pitch_bend_c, 10, 10402
12, 5523, Pitch_bend_c, 10, 10012
12, 5524, Pitch_bend_c, 10, 9622
12, 5525, Pitch_bend_c, 10, 9232
12, 5526, Pitch_bend_c, 10, 8712
12, 5526, Pitch_bend_c, 10, 8192
12, 5555, Pitch_bend_c, 10, 8322
12, 5556, Pitch_bend_c, 10, 8842
12, 5556, Pitch_bend_c, 10, 9362
12, 5557, Pitch_bend_c, 10, 9882
12, 5558, Pitch_bend_c, 10, 10402
12, 5559, Pitch_bend_c, 10, 10922
12, 5559, Pitch_bend_c, 10, 11572
12, 5560, Pitch_bend_c, 10, 12092
12, 5561, Pitch_bend_c, 10, 12742
12, 5562, Pitch_bend_c, 10, 13262
12, 5562, Pitch_bend_c, 10, 13782
12, 5563, Pitch_bend_c, 10, 14172
12, 5564, Pitch_bend_c, 10, 14822
12, 5565, Pitch_bend_c, 10, 15212
12, 5565, Pitch_bend_c, 10, 15602
12, 5566, Pitch_bend_c, 10, 16122
12, 5567, Pitch_bend_c, 10, 16382
12, 5581, Pitch_bend_c, 10, 16252
12, 5582, Pitch_bend_c, 10, 15732
12, 5583, Pitch_bend_c, 10, 15212
12, 5584, Pitch_bend_c, 10, 14692
12, 5584, Pitch_bend_c, 10, 14302
12, 5585, Pitch_bend_c, 10, 13782
12, 5586, Pitch_bend_c, 10, 13262
12, 5586, Pitch_bend_c, 10, 12872
12, 5587, Pitch_bend_c, 10, 12482
12, 5588, Pitch_bend_c, 10, 12092
12, 5588, Pitch_bend_c, 10, 11702
12, 5589, Pitch_bend_c, 10, 11312
12, 5590, Pitch_bend_c, 10, 10922
12, 5590, Pitch_bend_c, 10, 10662
12, 5591, Pitch_bend_c, 10, 10402
12, 5592, Pitch_bend_c, 10, 10142
12, 5593, Pitch_bend_c, 10, 9882
12, 5593, Pitch_bend_c, 10, 9752
12, 5594, Pitch_bend_c, 10, 9492
12, 5595, Pitch_bend_c, 10, 9362
12, 5596, Pitch_bend_c, 10, 9102
12, 5597, Pitch_bend_c, 10, 8972
12, 5598, Pitch_bend_c, 10, 8842
12, 5599, Pitch_bend_c, 10, 8712
12, 5599, Pitch_bend_c, 10, 8582
12, 5601, Pitch_bend_c, 10, 8322
12, 5601, Pitch_bend_c, 10, 8192
12, 5633, Channel_aftertouch_c, 10, 4
12, 5634, Channel_aftertouch_c, 10, 7
12, 5634, Channel_aftertouch_c, 10, 10
12, 5635, Channel_aftertouch_c, 10, 14
12, 5636, Channel_aftertouch_c, 10, 18
12, 5637, Channel_aftertouch_c, 10, 22
12, 5638, Channel_aftertouch_c, 10, 25
12, 5638, Channel_aftertouch_c, 10, 29
12, 5639, Channel_aftertouch_c, 10, 33
12, 5640, Channel_aftertouch_c, 10, 36
12, 5640, Channel_aftertouch_c, 10, 39
12, 5641, Channel_aftertouch_c, 10, 42
12, 5642, Channel_aftertouch_c, 10, 45
12, 5642, Channel_aftertouch_c, 10, 46
12, 5643, Channel_aftertouch_c, 10, 49
12, 5644, Channel_aftertouch_c, 10, 52
12, 5645, Channel_aftertouch_c, 10, 54
12, 5645, Channel_aftertouch_c, 10, 55
12, 5646, Channel_aftertouch_c, 10, 58
12, 5647, Channel_aftertouch_c, 10, 60
12, 5648, Channel_aftertouch_c, 10, 61
12, 5649, Channel_aftertouch_c, 10, 63
12, 5649, Channel_aftertouch_c, 10, 64
12, 5651, Channel_aftertouch_c, 10, 67
12, 5652, Channel_aftertouch_c, 10, 69
12, 5654, Channel_aftertouch_c, 10, 70
12, 5655, Channel_aftertouch_c, 10, 73
12, 5656, Channel_aftertouch_c, 10, 75
12, 5659, Channel_aftertouch_c, 10, 76
12, 5662, Channel_aftertouch_c, 10, 78
12, 5664, Channel_aftertouch_c, 10, 79
12, 5665, Channel_aftertouch_c, 10, 81
12, 5667, Channel_aftertouch_c, 10, 82
12, 5669, Channel_aftertouch_c, 10, 84
12, 5672, Channel_aftertouch_c, 10, 85
12, 5676, Channel_aftertouch_c, 10, 87
12, 5682, Channel_aftertouch_c, 10, 88
12, 5699, Channel_aftertouch_c, 10, 90
12, 5708, Channel_aftertouch_c, 10, 91
12, 5715, Channel_aftertouch_c, 10, 93
12, 5720, Channel_aftertouch_c, 10, 94
12, 5726, Channel_aftertouch_c, 10, 96
12, 5731, Channel_aftertouch_c, 10, 97
12, 5737, Channel_aftertouch_c, 10, 99
12, 5748, Channel_aftertouch_c, 10, 100
12, 5759, Channel_aftertouch_c, 10, 102
12, 5777, Channel_aftertouch_c, 10, 103
12, 5805, Channel_aftertouch_c, 10, 105
12, 5841, Channel_aftertouch_c, 10, 103
12, 5845, Channel_aftertouch_c, 10, 102
12, 5848, Channel_aftertouch_c, 10, 100
12, 5850, Channel_aftertouch_c, 10, 99
12, 5852, Channel_aftertouch_c, 10, 97
12, 5854, Channel_aftertouch_c, 10, 96
12, 5856, Channel_aftertouch_c, 10, 94
12, 5858, Channel_aftertouch_c, 10, 93
12, 5874, Channel_aftertouch_c, 10, 90
12, 5876, Channel_aftertouch_c, 10, 88
12, 5877, Channel_aftertouch_c, 10, 87
12, 5879, Channel_aftertouch_c, 10, 84
12, 5880, Channel_aftertouch_c, 10, 82
12, 5883, Channel_aftertouch_c, 10, 81
12, 5885, Channel_aftertouch_c, 10, 79
12, 5887, Channel_aftertouch_c, 10, 78
12, 5889, Channel_aftertouch_c, 10, 76
12, 5890, Channel_aftertouch_c, 10, 73
12, 5892, Channel_aftertouch_c, 10, 70
12, 5892, Channel_aftertouch_c, 10, 69
12, 5894, Channel_aftertouch_c, 10, 66
12, 5895, Channel_aftertouch_c, 10, 63
12, 5895, Channel_aftertouch_c, 10, 61
12, 5896, Channel_aftertouch_c, 10, 58
12, 5897, Channel_aftertouch_c, 10, 55
12, 5897, Channel_aftertouch_c, 10, 51
12, 5898, Channel_aftertouch_c, 10, 48
12, 5899, Channel_aftertouch_c, 10, 44
12, 5899, Channel_aftertouch_c, 10, 40
12, 5900, Channel_aftertouch_c, 10, 36
12, 5901, Channel_aftertouch_c, 10, 32
12, 5902, Channel_aftertouch_c, 10, 28
12, 5903, Channel_aftertouch_c, 10, 24
12, 5903, Channel_aftertouch_c, 10, 20
12, 5904, Channel_aftertouch_c, 10, 16
12, 5905, Channel_aftertouch_c, 10, 12
12, 5906, Channel_aftertouch_c, 10, 8
12, 5906, Channel_aftertouch_c, 10, 4
12, 5907, Channel_aftertouch_c, 10, 0
12, 6121, Channel_aftertouch_c, 10, 3
12, 6121, Channel_aftertouch_c, 10, 6
12, 6122, Channel_aftertouch_c, 10, 10
12, 6123, Channel_aftertouch_c, 10, 13
12, 6124, Channel_aftertouch_c, 10, 16
12, 6124, Channel_aftertouch_c, 10, 19
12, 6125, Channel_aftertouch_c, 10, 23
12, 6126, Channel_aftertouch_c, 10, 27
12, 6127, Channel_aftertouch_c, 10, 30
12, 6127, Channel_aftertouch_c, 10, 34
12, 6128, Channel_aftertouch_c, 10, 37
12, 6129, Channel_aftertouch_c, 10, 39
12, 6129, Channel_aftertouch_c, 10, 42
12, 6130, Channel_aftertouch_c, 10, 43
12, 6131, Channel_aftertouch_c, 10, 46
12, 6132, Channel_aftertouch_c, 10, 48
12, 6132, Channel_aftertouch_c, 10, 51
12, 6133, Channel_aftertouch_c, 10, 52
12, 6134, Channel_aftertouch_c, 10, 54
12, 6134, Channel_aftertouch_c, 10, 55
12, 6135, Channel_aftertouch_c, 10, 57
12, 6137, Channel_aftertouch_c, 10, 58
12, 6138, Channel_aftertouch_c, 10, 61
12, 6140, Channel_aftertouch_c, 10, 63
12, 6143, Channel_aftertouch_c, 10, 64
12, 6145, Channel_aftertouch_c, 10, 66
12, 6148, Channel_aftertouch_c, 10, 69
12, 6151, Channel_aftertouch_c, 10, 70
12, 6153, Channel_aftertouch_c, 10, 72
12, 6156, Channel_aftertouch_c, 10, 73
12, 6160, Channel_aftertouch_c, 10, 70
12, 6161, Channel_aftertouch_c, 10, 67
12, 6162, Channel_aftertouch_c, 10, 66
12, 6163, Channel_aftertouch_c, 10, 64
12, 6165, Channel_aftertouch_c, 10, 63
12, 6165, Channel_aftertouch_c, 10, 61
12, 6166, Channel_aftertouch_c, 10, 60
12, 6167, Channel_aftertouch_c, 10, 58
12, 6167, Channel_aftertouch_c, 10, 55
12, 6168, Channel_aftertouch_c, 10, 52
12, 6169, Channel_aftertouch_c, 10, 49
12, 6170, Channel_aftertouch_c, 10, 45
12, 6170, Channel_aftertouch_c, 10, 41
12, 6171, Channel_aftertouch_c, 10, 37
12, 6172, Channel_aftertouch_c, 10, 33
12, 6173, Channel_aftertouch_c, 10, 29
12, 6173, Channel_aftertouch_c, 10, 25
12, 6174, Channel_aftertouch_c, 10, 21
12, 6175, Channel_aftertouch_c, 10, 17
12, 6176, Channel_aftertouch_c, 10, 13
12, 6176, Channel_aftertouch_c, 10, 9
12, 6177, Channel_aftertouch_c, 10, 5
12, 6178, Channel_aftertouch_c, 10, 1
12, 6178, Channel_aftertouch_c, 10, 0
12, 6200, Note_on_c, 10, 74, 0
12, 6240, Note_on_c, 10, 76, 60
12, 6265, Channel_aftertouch_c, 10, 4
12, 6266, Channel_aftertouch_c, 10, 8
12, 6266, Channel_aftertouch_c, 10, 12
12, 6267, Channel_aftertouch_c, 10, 16
12, 6268, Channel_aftertouch_c, 10, 20
12, 6268, Channel_aftertouch_c, 10, 24
12, 6269, Channel_aftertouch_c, 10, 28
12, 6270, Channel_aftertouch_c, 10, 32
12, 6271, Channel_aftertouch_c, 10, 36
12, 6271, Channel_aftertouch_c, 10, 40
12, 6272, Channel_aftertouch_c, 10, 44
12, 6273, Channel_aftertouch_c, 10, 48
12, 6274, Channel_aftertouch_c, 10, 52
12, 6274, Channel_aftertouch_c, 10, 55
12, 6275, Channel_aftertouch_c, 10, 58
12, 6276, Channel_aftertouch_c, 10, 60
12, 6277, Channel_aftertouch_c, 10, 61
12, 6277, Channel_aftertouch_c, 10, 63
12, 6279, Channel_aftertouch_c, 10, 66
12, 6279, Channel_aftertouch_c, 10, 67
12, 6281, Channel_aftertouch_c, 10, 70
12, 6282, Channel_aftertouch_c, 10, 72
12, 6284, Channel_aftertouch_c, 10, 73
12, 6285, Channel_aftertouch_c, 10, 75
12, 6287, Channel_aftertouch_c, 10, 78
12, 6288, Channel_aftertouch_c, 10, 79
12, 6290, Channel_aftertouch_c, 10, 81
12, 6291, Channel_aftertouch_c, 10, 82
12, 6293, Channel_aftertouch_c, 10, 85
12, 6296, Channel_aftertouch_c, 10, 87
12, 6299, Channel_aftertouch_c, 10, 88
12, 6302, Channel_aftertouch_c, 10, 90
12, 6304, Channel_aftertouch_c, 10, 93
12, 6306, Channel_aftertouch_c, 10, 94
12, 6311, Channel_aftertouch_c, 10, 96
12, 6316, Channel_aftertouch_c, 10, 97
12, 6320, Channel_aftertouch_c, 10, 99
12, 6327, Channel_aftertouch_c, 10, 100
12, 6334, Channel_aftertouch_c, 10, 102
12, 6348, Channel_aftertouch_c, 10, 100
12, 6350, Channel_aftertouch_c, 10, 97
12, 6351, Channel_aftertouch_c, 10, 96
12, 6353, Channel_aftertouch_c, 10, 93
12, 6354, Channel_aftertouch_c, 10, 91
12, 6354, Channel_aftertouch_c, 10, 90
12, 6355, Channel_aftertouch_c, 10, 88
12, 6356, Channel_aftertouch_c, 10, 85
12, 6357, Channel_aftertouch_c, 10, 84
12, 6357, Channel_aftertouch_c, 10, 82
12, 6358, Channel_aftertouch_c, 10, 81
12, 6359, Channel_aftertouch_c, 10, 79
12, 6360, Channel_aftertouch_c, 10, 78
12, 6361, Channel_aftertouch_c, 10, 76
12, 6361, Channel_aftertouch_c, 10, 75
12, 6362, Channel_aftertouch_c, 10, 73
12, 6364, Channel_aftertouch_c, 10, 69
12, 6364, Channel_aftertouch_c, 10, 66
12, 6365, Channel_aftertouch_c, 10, 64
12, 6366, Channel_aftertouch_c, 10, 60
12, 6366, Channel_aftertouch_c, 10, 56
12, 6367, Channel_aftertouch_c, 10, 52
12, 6368, Channel_aftertouch_c, 10, 48
12, 6368, Channel_aftertouch_c, 10, 44
12, 6369, Channel_aftertouch_c, 10, 40
12, 6370, Channel_aftertouch_c, 10, 36
12, 6371, Channel_aftertouch_c, 10, 32
12, 6371, Channel_aftertouch_c, 10, 28
12, 6372, Channel_aftertouch_c, 10, 24
12, 6373, Channel_aftertouch_c, 10, 20
12, 6373, Channel_aftertouch_c, 10, 16
12, 6374, Channel_aftertouch_c, 10, 12
12, 6375, Channel_aftertouch_c, 10, 8
12, 6376, Channel_aftertouch_c, 10, 7
12, 6376, Channel_aftertouch_c, 10, 9
12, 6378, Channel_aftertouch_c, 10, 10
12, 6380, Channel_aftertouch_c, 10, 7
12, 6381, Channel_aftertouch_c, 10, 3
12, 6382, Channel_aftertouch_c, 10, 0
12, 6468, Note_on_c, 10, 76, 0
12, 6476, Note_on_c, 10, 77, 53
12, 6525, Channel_aftertouch_c, 10, 1
12, 6527, Channel_aftertouch_c, 10, 4
12, 6531, Channel_aftertouch_c, 10, 6
12, 6533, Channel_aftertouch_c, 10, 9
12, 6534, Channel_aftertouch_c, 10, 10
12, 6534, Channel_aftertouch_c, 10, 13
12, 6535, Channel_aftertouch_c, 10, 16
12, 6536, Channel_aftertouch_c, 10, 19
12, 6537, Channel_aftertouch_c, 10, 22
12, 6537, Channel_aftertouch_c, 10, 24
12, 6538, Channel_aftertouch_c, 10, 27
12, 6539, Channel_aftertouch_c, 10, 30
12, 6539, Channel_aftertouch_c, 10, 33
12, 6540, Channel_aftertouch_c, 10, 34
12, 6541, Channel_aftertouch_c, 10, 37
12, 6542, Channel_aftertouch_c, 10, 39
12, 6542, Channel_aftertouch_c, 10, 42
12, 6543, Channel_aftertouch_c, 10, 43
12, 6544, Channel_aftertouch_c, 10, 45
12, 6545, Channel_aftertouch_c, 10, 46
12, 6547, Channel_aftertouch_c, 10, 49
12, 6549, Channel_aftertouch_c, 10, 51
12, 6552, Channel_aftertouch_c, 10, 52
12, 6554, Channel_aftertouch_c, 10, 54
12, 6555, Channel_aftertouch_c, 10, 55
12, 6559, Channel_aftertouch_c, 10, 52
12, 6560, Channel_aftertouch_c, 10, 49
12, 6561, Channel_aftertouch_c, 10, 46
12, 6561, Channel_aftertouch_c, 10, 42
12, 6562, Channel_aftertouch_c, 10, 38
12, 6563, Channel_aftertouch_c, 10, 34
12, 6564, Channel_aftertouch_c, 10, 30
12, 6565, Channel_aftertouch_c, 10, 26
12, 6565, Channel_aftertouch_c, 10, 22
12, 6566, Channel_aftertouch_c, 10, 18
12, 6567, Channel_aftertouch_c, 10, 14
12, 6568, Channel_aftertouch_c, 10, 10
12, 6568, Channel_aftertouch_c, 10, 6
12, 6569, Channel_aftertouch_c, 10, 2
12, 6570, Channel_aftertouch_c, 10, 0
12, 6576, Channel_aftertouch_c, 10, 1
12, 6577, Channel_aftertouch_c, 10, 4
12, 6578, Channel_aftertouch_c, 10, 6
12, 6578, Channel_aftertouch_c, 10, 7
12, 6580, Channel_aftertouch_c, 10, 10
12, 6582, Channel_aftertouch_c, 10, 12
12, 6582, Channel_aftertouch_c, 10, 13
12, 6583, Channel_aftertouch_c, 10, 15
12, 6584, Channel_aftertouch_c, 10, 16
12, 6587, Channel_aftertouch_c, 10, 15
12, 6590, Channel_aftertouch_c, 10, 13
12, 6592, Channel_aftertouch_c, 10, 12
12, 6593, Channel_aftertouch_c, 10, 10
12, 6595, Channel_aftertouch_c, 10, 9
12, 6599, Channel_aftertouch_c, 10, 10
12, 6601, Channel_aftertouch_c, 10, 13
12, 6601, Channel_aftertouch_c, 10, 15
12, 6602, Channel_aftertouch_c, 10, 16
12, 6604, Channel_aftertouch_c, 10, 19
12, 6605, Channel_aftertouch_c, 10, 21
12, 6611, Channel_aftertouch_c, 10, 22
12, 6612, Channel_aftertouch_c, 10, 24
12, 6613, Channel_aftertouch_c, 10, 25
12, 6615, Channel_aftertouch_c, 10, 28
12, 6616, Channel_aftertouch_c, 10, 30
12, 6617, Channel_aftertouch_c, 10, 31
12, 6617, Channel_aftertouch_c, 10, 33
12, 6618, Channel_aftertouch_c, 10, 34
12, 6619, Channel_aftertouch_c, 10, 36
12, 6620, Channel_aftertouch_c, 10, 37
12, 6620, Channel_aftertouch_c, 10, 39
12, 6621, Channel_aftertouch_c, 10, 40
12, 6622, Channel_aftertouch_c, 10, 42
12, 6623, Channel_aftertouch_c, 10, 45
12, 6625, Channel_aftertouch_c, 10, 46
12, 6627, Channel_aftertouch_c, 10, 48
12, 6631, Channel_aftertouch_c, 10, 46
12, 6633, Channel_aftertouch_c, 10, 43
12, 6638, Channel_aftertouch_c, 10, 42
12, 6641, Channel_aftertouch_c, 10, 40
12, 6643, Channel_aftertouch_c, 10, 39
12, 6644, Channel_aftertouch_c, 10, 37
12, 6646, Channel_aftertouch_c, 10, 36
12, 6648, Channel_aftertouch_c, 10, 33
12, 6648, Channel_aftertouch_c, 10, 30
12, 6650, Channel_aftertouch_c, 10, 27
12, 6650, Channel_aftertouch_c, 10, 24
12, 6651, Channel_aftertouch_c, 10, 22
12, 6652, Channel_aftertouch_c, 10, 19
12, 6654, Channel_aftertouch_c, 10, 18
12, 6655, Channel_aftertouch_c, 10, 16
12, 6656, Channel_aftertouch_c, 10, 15
12, 6657, Channel_aftertouch_c, 10, 11
12, 6658, Channel_aftertouch_c, 10, 9
12, 6659, Channel_aftertouch_c, 10, 7
12, 6660, Channel_aftertouch_c, 10, 4
12, 6660, Channel_aftertouch_c, 10, 3
12, 6661, Channel_aftertouch_c, 10, 0
12, 6703, Note_on_c, 10, 77, 0
12, 6714, Note_on_c, 10, 76, 42
12, 6776, Channel_aftertouch_c, 10, 4
12, 6777, Channel_aftertouch_c, 10, 8
12, 6777, Channel_aftertouch_c, 10, 12
12, 6778, Channel_aftertouch_c, 10, 16
12, 6779, Channel_aftertouch_c, 10, 20
12, 6780, Channel_aftertouch_c, 10, 24
12, 6780, Channel_aftertouch_c, 10, 28
12, 6781, Channel_aftertouch_c, 10, 30
12, 6782, Channel_aftertouch_c, 10, 31
12, 6783, Channel_aftertouch_c, 10, 33
12, 6783, Channel_aftertouch_c, 10, 34
12, 6785, Channel_aftertouch_c, 10, 37
12, 6786, Channel_aftertouch_c, 10, 39
12, 6787, Channel_aftertouch_c, 10, 42
12, 6789, Channel_aftertouch_c, 10, 45
12, 6791, Channel_aftertouch_c, 10, 46
12, 6793, Channel_aftertouch_c, 10, 48
12, 6795, Channel_aftertouch_c, 10, 49
12, 6797, Channel_aftertouch_c, 10, 51
12, 6799, Channel_aftertouch_c, 10, 52
12, 6801, Channel_aftertouch_c, 10, 55
12, 6804, Channel_aftertouch_c, 10, 57
12, 6809, Channel_aftertouch_c, 10, 58
12, 6817, Channel_aftertouch_c, 10, 57
12, 6818, Channel_aftertouch_c, 10, 54
12, 6820, Channel_aftertouch_c, 10, 51
12, 6821, Channel_aftertouch_c, 10, 49
12, 6822, Channel_aftertouch_c, 10, 46
12, 6822, Channel_aftertouch_c, 10, 43
12, 6823, Channel_aftertouch_c, 10, 40
12, 6824, Channel_aftertouch_c, 10, 37
12, 6824, Channel_aftertouch_c, 10, 34
12, 6825, Channel_aftertouch_c, 10, 33
12, 6826, Channel_aftertouch_c, 10, 31
12, 6826, Channel_aftertouch_c, 10, 28
12, 6828, Channel_aftertouch_c, 10, 27
12, 6830, Channel_aftertouch_c, 10, 23
12, 6830, Channel_aftertouch_c, 10, 21
12, 6831, Channel_aftertouch_c, 10, 19
12, 6832, Channel_aftertouch_c, 10, 16
12, 6832, Channel_aftertouch_c, 10, 15
12, 6833, Channel_aftertouch_c, 10, 12
12, 6834, Channel_aftertouch_c, 10, 9
12, 6835, Channel_aftertouch_c, 10, 6
12, 6835, Channel_aftertouch_c, 10, 3
12, 6836, Channel_aftertouch_c, 10, 0
12, 6953, Note_on_c, 10, 76, 0
12, 6955, Note_on_c, 10, 72, 54
12, 7049, Channel_aftertouch_c, 10, 3
12, 7049, Channel_aftertouch_c, 10, 4
12, 7050, Channel_aftertouch_c, 10, 7
12, 7051, Channel_aftertouch_c, 10, 9
12, 7051, Channel_aftertouch_c, 10, 12
12, 7052, Channel_aftertouch_c, 10, 15
12, 7053, Channel_aftertouch_c, 10, 16
12, 7053, Channel_aftertouch_c, 10, 19
12, 7054, Channel_aftertouch_c, 10, 21
12, 7055, Channel_aftertouch_c, 10, 24
12, 7056, Channel_aftertouch_c, 10, 27
12, 7056, Channel_aftertouch_c, 10, 30
12, 7057, Channel_aftertouch_c, 10, 33
12, 7058, Channel_aftertouch_c, 10, 36
12, 7059, Channel_aftertouch_c, 10, 39
12, 7059, Channel_aftertouch_c, 10, 42
12, 7060, Channel_aftertouch_c, 10, 45
12, 7061, Channel_aftertouch_c, 10, 48
12, 7062, Channel_aftertouch_c, 10, 51
12, 7063, Channel_aftertouch_c, 10, 54
12, 7063, Channel_aftertouch_c, 10, 55
12, 7064, Channel_aftertouch_c, 10, 58
12, 7065, Channel_aftertouch_c, 10, 60
12, 7065, Channel_aftertouch_c, 10, 63
12, 7066, Channel_aftertouch_c, 10, 64
12, 7067, Channel_aftertouch_c, 10, 66
12, 7068, Channel_aftertouch_c, 10, 67
12, 7069, Channel_aftertouch_c, 10, 70
12, 7071, Channel_aftertouch_c, 10, 72
12, 7072, Channel_aftertouch_c, 10, 73
12, 7074, Channel_aftertouch_c, 10, 75
12, 7075, Channel_aftertouch_c, 10, 76
12, 7077, Channel_aftertouch_c, 10, 78
12, 7078, Channel_aftertouch_c, 10, 79
12, 7080, Channel_aftertouch_c, 10, 82
12, 7082, Channel_aftertouch_c, 10, 84
12, 7085, Channel_aftertouch_c, 10, 85
12, 7087, Channel_aftertouch_c, 10, 87
12, 7090, Channel_aftertouch_c, 10, 88
12, 7093, Channel_aftertouch_c, 10, 90
12, 7098, Channel_aftertouch_c, 10, 91
12, 7102, Channel_aftertouch_c, 10, 93
12, 7109, Channel_aftertouch_c, 10, 96
12, 7118, Channel_aftertouch_c, 10, 97
12, 7129, Channel_aftertouch_c, 10, 99
12, 7134, Channel_aftertouch_c, 10, 100
12, 7141, Channel_aftertouch_c, 10, 102
12, 7150, Channel_aftertouch_c, 10, 100
12, 7152, Channel_aftertouch_c, 10, 99
12, 7155, Channel_aftertouch_c, 10, 97
12, 7158, Channel_aftertouch_c, 10, 94
12, 7162, Channel_aftertouch_c, 10, 93
12, 7164, Channel_aftertouch_c, 10, 91
12, 7165, Channel_aftertouch_c, 10, 88
12, 7166, Channel_aftertouch_c, 10, 87
12, 7167, Channel_aftertouch_c, 10, 85
12, 7167, Channel_aftertouch_c, 10, 82
12, 7168, Channel_aftertouch_c, 10, 79
12, 7169, Channel_aftertouch_c, 10, 75
12, 7169, Channel_aftertouch_c, 10, 71
12, 7170, Channel_aftertouch_c, 10, 67
12, 7171, Channel_aftertouch_c, 10, 63
12, 7172, Channel_aftertouch_c, 10, 59
12, 7172, Channel_aftertouch_c, 10, 55
12, 7173, Channel_aftertouch_c, 10, 51
12, 7174, Channel_aftertouch_c, 10, 47
12, 7174, Channel_aftertouch_c, 10, 43
12, 7175, Channel_aftertouch_c, 10, 39
12, 7176, Channel_aftertouch_c, 10, 35
12, 7177, Channel_aftertouch_c, 10, 31
12, 7178, Channel_aftertouch_c, 10, 27
12, 7178, Channel_aftertouch_c, 10, 23
12, 7179, Channel_aftertouch_c, 10, 19
12, 7180, Channel_aftertouch_c, 10, 15
12, 7180, Channel_aftertouch_c, 10, 11
12, 7181, Note_on_c, 10, 72, 0
12, 7182, Channel_aftertouch_c, 10, 7
12, 7182, Channel_aftertouch_c, 10, 3
12, 7183, Channel_aftertouch_c, 10, 0
12, 8158, Note_on_c, 10, 76, 62
12, 8200, Channel_aftertouch_c, 10, 4
12, 8201, Channel_aftertouch_c, 10, 7
12, 8201, Channel_aftertouch_c, 10, 11
12, 8202, Channel_aftertouch_c, 10, 15
12, 8203, Channel_aftertouch_c, 10, 18
12, 8204, Channel_aftertouch_c, 10, 21
12, 8204, Channel_aftertouch_c, 10, 24
12, 8205, Channel_aftertouch_c, 10, 27
12, 8206, Channel_aftertouch_c, 10, 30
12, 8207, Channel_aftertouch_c, 10, 31
12, 8207, Channel_aftertouch_c, 10, 34
12, 8208, Channel_aftertouch_c, 10, 36
12, 8209, Channel_aftertouch_c, 10, 39
12, 8210, Channel_aftertouch_c, 10, 40
12, 8210, Channel_aftertouch_c, 10, 42
12, 8211, Channel_aftertouch_c, 10, 43
12, 8212, Channel_aftertouch_c, 10, 45
12, 8213, Channel_aftertouch_c, 10, 48
12, 8215, Channel_aftertouch_c, 10, 51
12, 8216, Channel_aftertouch_c, 10, 52
12, 8217, Channel_aftertouch_c, 10, 55
12, 8219, Channel_aftertouch_c, 10, 57
12, 8220, Channel_aftertouch_c, 10, 60
12, 8222, Channel_aftertouch_c, 10, 61
12, 8223, Channel_aftertouch_c, 10, 63
12, 8225, Channel_aftertouch_c, 10, 64
12, 8227, Channel_aftertouch_c, 10, 66
12, 8229, Channel_aftertouch_c, 10, 67
12, 8231, Channel_aftertouch_c, 10, 69
12, 8232, Channel_aftertouch_c, 10, 70
12, 8235, Channel_aftertouch_c, 10, 73
12, 8237, Channel_aftertouch_c, 10, 75
12, 8240, Channel_aftertouch_c, 10, 76
12, 8242, Channel_aftertouch_c, 10, 78
12, 8243, Channel_aftertouch_c, 10, 79
12, 8245, Channel_aftertouch_c, 10, 81
12, 8246, Channel_aftertouch_c, 10, 82
12, 8250, Channel_aftertouch_c, 10, 85
12, 8254, Channel_aftertouch_c, 10, 87
12, 8256, Channel_aftertouch_c, 10, 88
12, 8259, Channel_aftertouch_c, 10, 90
12, 8263, Channel_aftertouch_c, 10, 91
12, 8267, Channel_aftertouch_c, 10, 93
12, 8274, Channel_aftertouch_c, 10, 94
12, 8281, Channel_aftertouch_c, 10, 91
12, 8283, Channel_aftertouch_c, 10, 90
12, 8284, Channel_aftertouch_c, 10, 87
12, 8285, Channel_aftertouch_c, 10, 84
12, 8287, Channel_aftertouch_c, 10, 82
12, 8288, Channel_aftertouch_c, 10, 81
12, 8290, Channel_aftertouch_c, 10, 78
12, 8290, Channel_aftertouch_c, 10, 75
12, 8291, Channel_aftertouch_c, 10, 73
12, 8292, Channel_aftertouch_c, 10, 72
12, 8293, Channel_aftertouch_c, 10, 69
12, 8293, Channel_aftertouch_c, 10, 66
12, 8294, Channel_aftertouch_c, 10, 63
12, 8295, Channel_aftertouch_c, 10, 60
12, 8296, Channel_aftertouch_c, 10, 58
12, 8296, Channel_aftertouch_c, 10, 55
12, 8297, Channel_aftertouch_c, 10, 52
12, 8298, Channel_aftertouch_c, 10, 49
12, 8299, Channel_aftertouch_c, 10, 45
12, 8300, Channel_aftertouch_c, 10, 42
12, 8300, Channel_aftertouch_c, 10, 40
12, 8303, Channel_aftertouch_c, 10, 42
12, 8304, Channel_aftertouch_c, 10, 43
12, 8307, Channel_aftertouch_c, 10, 42
12, 8307, Channel_aftertouch_c, 10, 38
12, 8308, Channel_aftertouch_c, 10, 34
12, 8309, Channel_aftertouch_c, 10, 30
12, 8309, Channel_aftertouch_c, 10, 26
12, 8310, Channel_aftertouch_c, 10, 22
12, 8311, Channel_aftertouch_c, 10, 18
12, 8312, Channel_aftertouch_c, 10, 14
12, 8313, Channel_aftertouch_c, 10, 10
12, 8313, Channel_aftertouch_c, 10, 6
12, 8314, Channel_aftertouch_c, 10, 3
12, 8316, Channel_aftertouch_c, 10, 1
12, 8317, Channel_aftertouch_c, 10, 0
12, 8400, Note_on_c, 10, 74, 48
12, 8401, Note_on_c, 10, 76, 0
12, 8584, Channel_aftertouch_c, 10, 3
12, 8585, Channel_aftertouch_c, 10, 4
12, 8586, Channel_aftertouch_c, 10, 8
12, 8587, Channel_aftertouch_c, 10, 12
12, 8587, Channel_aftertouch_c, 10, 15
12, 8588, Channel_aftertouch_c, 10, 19
12, 8589, Channel_aftertouch_c, 10, 23
12, 8589, Channel_aftertouch_c, 10, 27
12, 8590, Channel_aftertouch_c, 10, 31
12, 8591, Channel_aftertouch_c, 10, 35
12, 8592, Channel_aftertouch_c, 10, 39
12, 8592, Channel_aftertouch_c, 10, 43
12, 8593, Channel_aftertouch_c, 10, 47
12, 8594, Channel_aftertouch_c, 10, 51
12, 8594, Channel_aftertouch_c, 10, 54
12, 8595, Channel_aftertouch_c, 10, 57
12, 8596, Channel_aftertouch_c, 10, 60
12, 8597, Channel_aftertouch_c, 10, 63
12, 8597, Channel_aftertouch_c, 10, 66
12, 8598, Channel_aftertouch_c, 10, 69
12, 8599, Channel_aftertouch_c, 10, 70
12, 8600, Channel_aftertouch_c, 10, 73
12, 8600, Channel_aftertouch_c, 10, 75
12, 8601, Channel_aftertouch_c, 10, 76
12, 8602, Channel_aftertouch_c, 10, 79
12, 8603, Channel_aftertouch_c, 10, 81
12, 8605, Channel_aftertouch_c, 10, 84
12, 8606, Channel_aftertouch_c, 10, 85
12, 8608, Channel_aftertouch_c, 10, 87
12, 8610, Channel_aftertouch_c, 10, 88
12, 8614, Channel_aftertouch_c, 10, 91
12, 8618, Channel_aftertouch_c, 10, 93
12, 8623, Channel_aftertouch_c, 10, 94
12, 8630, Channel_aftertouch_c, 10, 96
12, 8646, Channel_aftertouch_c, 10, 97
12, 8654, Channel_aftertouch_c, 10, 99
12, 8664, Channel_aftertouch_c, 10, 96
12, 8667, Channel_aftertouch_c, 10, 94
12, 8668, Channel_aftertouch_c, 10, 93
12, 8670, Channel_aftertouch_c, 10, 90
12, 8672, Channel_aftertouch_c, 10, 87
12, 8672, Channel_aftertouch_c, 10, 85
12, 8673, Channel_aftertouch_c, 10, 84
12, 8674, Channel_aftertouch_c, 10, 82
12, 8674, Channel_aftertouch_c, 10, 79
12, 8675, Channel_aftertouch_c, 10, 78
12, 8682, Channel_aftertouch_c, 10, 75
12, 8686, Channel_aftertouch_c, 10, 73
12, 8693, Channel_aftertouch_c, 10, 70
12, 8694, Channel_aftertouch_c, 10, 67
12, 8694, Channel_aftertouch_c, 10, 64
12, 8695, Channel_aftertouch_c, 10, 61
12, 8696, Channel_aftertouch_c, 10, 57
12, 8696, Channel_aftertouch_c, 10, 53
12, 8697, Channel_aftertouch_c, 10, 49
12, 8698, Channel_aftertouch_c, 10, 46
12, 8699, Channel_aftertouch_c, 10, 45
12, 8699, Channel_aftertouch_c, 10, 43
12, 8700, Channel_aftertouch_c, 10, 40
12, 8702, Channel_aftertouch_c, 10, 39
12, 8703, Channel_aftertouch_c, 10, 37
12, 8706, Channel_aftertouch_c, 10, 36
12, 8708, Channel_aftertouch_c, 10, 33
12, 8709, Channel_aftertouch_c, 10, 31
12, 8713, Channel_aftertouch_c, 10, 33
12, 8715, Channel_aftertouch_c, 10, 36
12, 8716, Channel_aftertouch_c, 10, 37
12, 8720, Channel_aftertouch_c, 10, 36
12, 8720, Channel_aftertouch_c, 10, 33
12, 8721, Channel_aftertouch_c, 10, 31
12, 8722, Channel_aftertouch_c, 10, 28
12, 8722, Channel_aftertouch_c, 10, 27
12, 8724, Channel_aftertouch_c, 10, 25
12, 8729, Channel_aftertouch_c, 10, 24
12, 8730, Channel_aftertouch_c, 10, 21
12, 8731, Channel_aftertouch_c, 10, 18
12, 8732, Channel_aftertouch_c, 10, 15
12, 8732, Channel_aftertouch_c, 10, 12
12, 8733, Channel_aftertouch_c, 10, 8
12, 8734, Channel_aftertouch_c, 10, 4
12, 8734, Channel_aftertouch_c, 10, 0
12, 8926, Channel_aftertouch_c, 10, 3
12, 8926, Channel_aftertouch_c, 10, 6
12, 8927, Channel_aftertouch_c, 10, 9
12, 8928, Channel_aftertouch_c, 10, 13
12, 8928, Channel_aftertouch_c, 10, 17
12, 8929, Channel_aftertouch_c, 10, 21
12, 8930, Channel_aftertouch_c, 10, 24
12, 8930, Channel_aftertouch_c, 10, 27
12, 8931, Channel_aftertouch_c, 10, 30
12, 8932, Channel_aftertouch_c, 10, 33
12, 8933, Channel_aftertouch_c, 10, 34
12, 8933, Channel_aftertouch_c, 10, 37
12, 8934, Channel_aftertouch_c, 10, 39
12, 8935, Channel_aftertouch_c, 10, 40
12, 8935, Channel_aftertouch_c, 10, 42
12, 8937, Channel_aftertouch_c, 10, 45
12, 8938, Channel_aftertouch_c, 10, 48
12, 8940, Channel_aftertouch_c, 10, 49
12, 8941, Channel_aftertouch_c, 10, 52
12, 8943, Channel_aftertouch_c, 10, 55
12, 8944, Channel_aftertouch_c, 10, 58
12, 8946, Channel_aftertouch_c, 10, 60
12, 8946, Channel_aftertouch_c, 10, 61
12, 8948, Channel_aftertouch_c, 10, 64
12, 8949, Channel_aftertouch_c, 10, 66
12, 8950, Channel_aftertouch_c, 10, 67
12, 8952, Channel_aftertouch_c, 10, 69
12, 8954, Channel_aftertouch_c, 10, 72
12, 8956, Channel_aftertouch_c, 10, 73
12, 8960, Channel_aftertouch_c, 10, 75
12, 8964, Channel_aftertouch_c, 10, 76
12, 8967, Channel_aftertouch_c, 10, 78
12, 8974, Channel_aftertouch_c, 10, 79
12, 8979, Channel_aftertouch_c, 10, 81
12, 8981, Channel_aftertouch_c, 10, 82
12, 8983, Channel_aftertouch_c, 10, 84
12, 8988, Channel_aftertouch_c, 10, 87
12, 9010, Channel_aftertouch_c, 10, 88
12, 9019, Channel_aftertouch_c, 10, 90
12, 9026, Channel_aftertouch_c, 10, 88
12, 9029, Channel_aftertouch_c, 10, 87
12, 9032, Channel_aftertouch_c, 10, 84
12, 9034, Channel_aftertouch_c, 10, 82
12, 9035, Channel_aftertouch_c, 10, 81
12, 9037, Channel_aftertouch_c, 10, 78
12, 9037, Channel_aftertouch_c, 10, 76
12, 9038, Channel_aftertouch_c, 10, 73
12, 9039, Channel_aftertouch_c, 10, 72
12, 9039, Channel_aftertouch_c, 10, 69
12, 9040, Channel_aftertouch_c, 10, 67
12, 9041, Channel_aftertouch_c, 10, 66
12, 9042, Channel_aftertouch_c, 10, 63
12, 9043, Channel_aftertouch_c, 10, 60
12, 9044, Channel_aftertouch_c, 10, 57
12, 9044, Channel_aftertouch_c, 10, 53
12, 9045, Channel_aftertouch_c, 10, 49
12, 9046, Channel_aftertouch_c, 10, 45
12, 9047, Channel_aftertouch_c, 10, 41
12, 9047, Channel_aftertouch_c, 10, 37
12, 9048, Channel_aftertouch_c, 10, 33
12, 9049, Channel_aftertouch_c, 10, 29
12, 9049, Channel_aftertouch_c, 10, 25
12, 9050, Channel_aftertouch_c, 10, 21
12, 9051, Channel_aftertouch_c, 10, 17
12, 9052, Channel_aftertouch_c, 10, 13
12, 9052, Channel_aftertouch_c, 10, 9
12, 9053, Channel_aftertouch_c, 10, 5
12, 9054, Channel_aftertouch_c, 10, 1
12, 9055, Channel_aftertouch_c, 10, 0
12, 9075, Note_on_c, 10, 74, 0
12, 9122, Note_on_c, 10, 76, 64
12, 9156, Channel_aftertouch_c, 10, 1
12, 9156, Channel_aftertouch_c, 10, 5
12, 9156, Channel_aftertouch_c, 10, 9
12, 9157, Channel_aftertouch_c, 10, 13
12, 9158, Channel_aftertouch_c, 10, 17
12, 9159, Channel_aftertouch_c, 10, 21
12, 9160, Channel_aftertouch_c, 10, 25
12, 9160, Channel_aftertouch_c, 10, 29
12, 9161, Channel_aftertouch_c, 10, 33
12, 9162, Channel_aftertouch_c, 10, 37
12, 9163, Channel_aftertouch_c, 10, 40
12, 9164, Channel_aftertouch_c, 10, 42
12, 9164, Channel_aftertouch_c, 10, 43
12, 9165, Channel_aftertouch_c, 10, 45
12, 9166, Channel_aftertouch_c, 10, 48
12, 9167, Channel_aftertouch_c, 10, 49
12, 9168, Channel_aftertouch_c, 10, 52
12, 9169, Channel_aftertouch_c, 10, 54
12, 9173, Channel_aftertouch_c, 10, 52
12, 9174, Channel_aftertouch_c, 10, 51
12, 9175, Channel_aftertouch_c, 10, 52
12, 9176, Channel_aftertouch_c, 10, 54
12, 9177, Channel_aftertouch_c, 10, 55
12, 9184, Channel_aftertouch_c, 10, 58
12, 9186, Channel_aftertouch_c, 10, 60
12, 9189, Channel_aftertouch_c, 10, 61
12, 9195, Channel_aftertouch_c, 10, 63
12, 9196, Channel_aftertouch_c, 10, 66
12, 9203, Channel_aftertouch_c, 10, 67
12, 9208, Channel_aftertouch_c, 10, 69
12, 9218, Channel_aftertouch_c, 10, 67
12, 9219, Channel_aftertouch_c, 10, 64
12, 9220, Channel_aftertouch_c, 10, 61
12, 9220, Channel_aftertouch_c, 10, 60
12, 9221, Channel_aftertouch_c, 10, 56
12, 9222, Channel_aftertouch_c, 10, 52
12, 9223, Channel_aftertouch_c, 10, 48
12, 9224, Channel_aftertouch_c, 10, 44
12, 9224, Channel_aftertouch_c, 10, 40
12, 9225, Channel_aftertouch_c, 10, 36
12, 9226, Channel_aftertouch_c, 10, 32
12, 9226, Channel_aftertouch_c, 10, 28
12, 9227, Channel_aftertouch_c, 10, 24
12, 9228, Channel_aftertouch_c, 10, 20
12, 9228, Channel_aftertouch_c, 10, 16
12, 9230, Channel_aftertouch_c, 10, 12
12, 9230, Channel_aftertouch_c, 10, 8
12, 9231, Channel_aftertouch_c, 10, 4
12, 9232, Channel_aftertouch_c, 10, 0
12, 9304, Note_on_c, 10, 77, 67
12, 9305, Note_on_c, 10, 76, 0
12, 9332, Note_on_c, 10, 76, 59
12, 9333, Note_on_c, 10, 77, 0
12, 9359, Note_on_c, 10, 76, 0
12, 9361, Note_on_c, 10, 74, 61
12, 9384, Channel_aftertouch_c, 10, 4
12, 9384, Channel_aftertouch_c, 10, 8
12, 9385, Channel_aftertouch_c, 10, 12
12, 9386, Channel_aftertouch_c, 10, 16
12, 9387, Channel_aftertouch_c, 10, 20
12, 9387, Channel_aftertouch_c, 10, 24
12, 9388, Channel_aftertouch_c, 10, 28
12, 9389, Channel_aftertouch_c, 10, 32
12, 9389, Channel_aftertouch_c, 10, 36
12, 9390, Channel_aftertouch_c, 10, 40
12, 9391, Channel_aftertouch_c, 10, 44
12, 9391, Channel_aftertouch_c, 10, 48
12, 9392, Channel_aftertouch_c, 10, 52
12, 9393, Channel_aftertouch_c, 10, 56
12, 9394, Channel_aftertouch_c, 10, 60
12, 9394, Channel_aftertouch_c, 10, 64
12, 9395, Channel_aftertouch_c, 10, 68
12, 9396, Channel_aftertouch_c, 10, 72
12, 9397, Channel_aftertouch_c, 10, 76
12, 9397, Channel_aftertouch_c, 10, 80
12, 9398, Channel_aftertouch_c, 10, 84
12, 9399, Channel_aftertouch_c, 10, 88
12, 9401, Channel_aftertouch_c, 10, 90
12, 9406, Channel_aftertouch_c, 10, 91
12, 9409, Channel_aftertouch_c, 10, 93
12, 9416, Channel_aftertouch_c, 10, 94
12, 9438, Channel_aftertouch_c, 10, 96
12, 9444, Channel_aftertouch_c, 10, 97
12, 9457, Channel_aftertouch_c, 10, 99
12, 9481, Channel_aftertouch_c, 10, 100
12, 9494, Channel_aftertouch_c, 10, 99
12, 9497, Channel_aftertouch_c, 10, 97
12, 9499, Channel_aftertouch_c, 10, 94
12, 9500, Channel_aftertouch_c, 10, 93
12, 9502, Channel_aftertouch_c, 10, 91
12, 9505, Channel_aftertouch_c, 10, 90
12, 9509, Channel_aftertouch_c, 10, 87
12, 9511, Channel_aftertouch_c, 10, 85
12, 9512, Channel_aftertouch_c, 10, 81
12, 9513, Channel_aftertouch_c, 10, 79
12, 9514, Channel_aftertouch_c, 10, 78
12, 9514, Channel_aftertouch_c, 10, 75
12, 9515, Channel_aftertouch_c, 10, 72
12, 9516, Channel_aftertouch_c, 10, 70
12, 9516, Channel_aftertouch_c, 10, 67
12, 9522, Channel_aftertouch_c, 10, 66
12, 9524, Channel_aftertouch_c, 10, 64
12, 9526, Channel_aftertouch_c, 10, 60
12, 9526, Channel_aftertouch_c, 10, 56
12, 9527, Channel_aftertouch_c, 10, 52
12, 9528, Channel_aftertouch_c, 10, 48
12, 9529, Channel_aftertouch_c, 10, 44
12, 9529, Channel_aftertouch_c, 10, 40
12, 9530, Channel_aftertouch_c, 10, 36
12, 9531, Channel_aftertouch_c, 10, 32
12, 9531, Channel_aftertouch_c, 10, 28
12, 9532, Channel_aftertouch_c, 10, 24
12, 9533, Channel_aftertouch_c, 10, 20
12, 9534, Channel_aftertouch_c, 10, 16
12, 9534, Channel_aftertouch_c, 10, 12
12, 9535, Channel_aftertouch_c, 10, 8
12, 9536, Channel_aftertouch_c, 10, 4
12, 9537, Channel_aftertouch_c, 10, 1
12, 9855, Channel_aftertouch_c, 10, 3
12, 9855, Channel_aftertouch_c, 10, 6
12, 9856, Channel_aftertouch_c, 10, 7
12, 9857, Channel_aftertouch_c, 10, 9
12, 9857, Channel_aftertouch_c, 10, 10
12, 9858, Channel_aftertouch_c, 10, 12
12, 9859, Channel_aftertouch_c, 10, 13
12, 9860, Channel_aftertouch_c, 10, 16
12, 9861, Channel_aftertouch_c, 10, 18
12, 9861, Channel_aftertouch_c, 10, 19
12, 9863, Channel_aftertouch_c, 10, 22
12, 9864, Channel_aftertouch_c, 10, 24
12, 9865, Channel_aftertouch_c, 10, 27
12, 9866, Channel_aftertouch_c, 10, 28
12, 9866, Channel_aftertouch_c, 10, 30
12, 9867, Channel_aftertouch_c, 10, 31
12, 9868, Channel_aftertouch_c, 10, 34
12, 9869, Channel_aftertouch_c, 10, 36
12, 9869, Channel_aftertouch_c, 10, 37
12, 9870, Channel_aftertouch_c, 10, 39
12, 9871, Channel_aftertouch_c, 10, 40
12, 9871, Channel_aftertouch_c, 10, 42
12, 9872, Channel_aftertouch_c, 10, 43
12, 9873, Channel_aftertouch_c, 10, 46
12, 9873, Channel_aftertouch_c, 10, 48
12, 9874, Channel_aftertouch_c, 10, 49
12, 9876, Channel_aftertouch_c, 10, 51
12, 9877, Channel_aftertouch_c, 10, 52
12, 9878, Channel_aftertouch_c, 10, 55
12, 9880, Channel_aftertouch_c, 10, 57
12, 9881, Channel_aftertouch_c, 10, 58
12, 9882, Channel_aftertouch_c, 10, 60
12, 9884, Channel_aftertouch_c, 10, 61
12, 9885, Channel_aftertouch_c, 10, 64
12, 9887, Channel_aftertouch_c, 10, 66
12, 9889, Channel_aftertouch_c, 10, 67
12, 9891, Channel_aftertouch_c, 10, 69
12, 9893, Channel_aftertouch_c, 10, 70
12, 9896, Channel_aftertouch_c, 10, 72
12, 9898, Channel_aftertouch_c, 10, 73
12, 9900, Channel_aftertouch_c, 10, 75
12, 9902, Channel_aftertouch_c, 10, 76
12, 9905, Channel_aftertouch_c, 10, 79
12, 9908, Channel_aftertouch_c, 10, 81
12, 9923, Channel_aftertouch_c, 10, 82
12, 9938, Channel_aftertouch_c, 10, 84
12, 9941, Channel_aftertouch_c, 10, 85
12, 9951, Channel_aftertouch_c, 10, 87
12, 9962, Channel_aftertouch_c, 10, 84
12, 9963, Channel_aftertouch_c, 10, 82
12, 9965, Channel_aftertouch_c, 10, 81
12, 9967, Channel_aftertouch_c, 10, 79
12, 9968, Channel_aftertouch_c, 10, 78
12, 9970, Channel_aftertouch_c, 10, 75
12, 9972, Channel_aftertouch_c, 10, 73
12, 9974, Channel_aftertouch_c, 10, 72
12, 9975, Channel_aftertouch_c, 10, 69
12, 9976, Channel_aftertouch_c, 10, 67
12, 9976, Channel_aftertouch_c, 10, 66
12, 9977, Channel_aftertouch_c, 10, 63
12, 9978, Channel_aftertouch_c, 10, 60
12, 9979, Channel_aftertouch_c, 10, 57
12, 9980, Channel_aftertouch_c, 10, 53
12, 9980, Channel_aftertouch_c, 10, 49
12, 9981, Channel_aftertouch_c, 10, 45
12, 9982, Channel_aftertouch_c, 10, 41
12, 9983, Channel_aftertouch_c, 10, 37
12, 9983, Channel_aftertouch_c, 10, 33
12, 9984, Channel_aftertouch_c, 10, 29
12, 9985, Channel_aftertouch_c, 10, 25
12, 9985, Channel_aftertouch_c, 10, 21
12, 9986, Channel_aftertouch_c, 10, 17
12, 9987, Channel_aftertouch_c, 10, 13
12, 9988, Channel_aftertouch_c, 10, 9
12, 9988, Channel_aftertouch_c, 10, 5
12, 9989, Channel_aftertouch_c, 10, 1
12, 9990, Channel_aftertouch_c, 10, 0
12, 10022, Note_on_c, 10, 74, 0
12, 10083, Note_on_c, 10, 76, 72
12, 10114, Channel_aftertouch_c, 10, 1
12, 10115, Channel_aftertouch_c, 10, 4
12, 10116, Channel_aftertouch_c, 10, 6
12, 10117, Channel_aftertouch_c, 10, 9
12, 10118, Channel_aftertouch_c, 10, 12
12, 10118, Channel_aftertouch_c, 10, 15
12, 10119, Channel_aftertouch_c, 10, 16
12, 10120, Channel_aftertouch_c, 10, 19
12, 10120, Channel_aftertouch_c, 10, 21
12, 10121, Channel_aftertouch_c, 10, 22
12, 10123, Channel_aftertouch_c, 10, 25
12, 10123, Channel_aftertouch_c, 10, 27
12, 10125, Channel_aftertouch_c, 10, 30
12, 10125, Channel_aftertouch_c, 10, 31
12, 10127, Channel_aftertouch_c, 10, 33
12, 10128, Channel_aftertouch_c, 10, 34
12, 10130, Channel_aftertouch_c, 10, 37
12, 10131, Channel_aftertouch_c, 10, 39
12, 10132, Channel_aftertouch_c, 10, 40
12, 10133, Channel_aftertouch_c, 10, 42
12, 10134, Channel_aftertouch_c, 10, 45
12, 10135, Channel_aftertouch_c, 10, 48
12, 10136, Channel_aftertouch_c, 10, 49
12, 10137, Channel_aftertouch_c, 10, 51
12, 10137, Channel_aftertouch_c, 10, 52
12, 10138, Channel_aftertouch_c, 10, 54
12, 10139, Channel_aftertouch_c, 10, 55
12, 10140, Channel_aftertouch_c, 10, 57
12, 10142, Channel_aftertouch_c, 10, 60
12, 10143, Channel_aftertouch_c, 10, 61
12, 10144, Channel_aftertouch_c, 10, 63
12, 10147, Channel_aftertouch_c, 10, 64
12, 10148, Channel_aftertouch_c, 10, 66
12, 10150, Channel_aftertouch_c, 10, 67
12, 10152, Channel_aftertouch_c, 10, 69
12, 10154, Channel_aftertouch_c, 10, 70
12, 10156, Channel_aftertouch_c, 10, 72
12, 10159, Channel_aftertouch_c, 10, 75
12, 10161, Channel_aftertouch_c, 10, 76
12, 10164, Channel_aftertouch_c, 10, 78
12, 10167, Channel_aftertouch_c, 10, 79
12, 10173, Channel_aftertouch_c, 10, 81
12, 10178, Channel_aftertouch_c, 10, 82
12, 10183, Channel_aftertouch_c, 10, 84
12, 10186, Channel_aftertouch_c, 10, 85
12, 10189, Channel_aftertouch_c, 10, 87
12, 10194, Channel_aftertouch_c, 10, 88
12, 10203, Channel_aftertouch_c, 10, 90
12, 10210, Channel_aftertouch_c, 10, 91
12, 10222, Channel_aftertouch_c, 10, 93
12, 10233, Channel_aftertouch_c, 10, 91
12, 10236, Channel_aftertouch_c, 10, 90
12, 10244, Channel_aftertouch_c, 10, 88
12, 10246, Channel_aftertouch_c, 10, 87
12, 10247, Channel_aftertouch_c, 10, 85
12, 10249, Channel_aftertouch_c, 10, 84
12, 10250, Channel_aftertouch_c, 10, 81
12, 10252, Channel_aftertouch_c, 10, 78
12, 10252, Channel_aftertouch_c, 10, 76
12, 10254, Channel_aftertouch_c, 10, 73
12, 10258, Channel_aftertouch_c, 10, 75
12, 10260, Channel_aftertouch_c, 10, 76
12, 10263, Channel_aftertouch_c, 10, 75
12, 10265, Channel_aftertouch_c, 10, 72
12, 10266, Channel_aftertouch_c, 10, 69
12, 10267, Channel_aftertouch_c, 10, 66
12, 10267, Channel_aftertouch_c, 10, 62
12, 10268, Channel_aftertouch_c, 10, 58
12, 10269, Channel_aftertouch_c, 10, 54
12, 10270, Channel_aftertouch_c, 10, 51
12, 10270, Channel_aftertouch_c, 10, 47
12, 10271, Channel_aftertouch_c, 10, 43
12, 10272, Channel_aftertouch_c, 10, 39
12, 10272, Channel_aftertouch_c, 10, 35
12, 10273, Channel_aftertouch_c, 10, 31
12, 10274, Channel_aftertouch_c, 10, 27
12, 10274, Channel_aftertouch_c, 10, 23
12, 10275, Channel_aftertouch_c, 10, 19
12, 10276, Channel_aftertouch_c, 10, 15
12, 10277, Channel_aftertouch_c, 10, 11
12, 10277, Channel_aftertouch_c, 10, 7
12, 10278, Channel_aftertouch_c, 10, 3
12, 10279, Channel_aftertouch_c, 10, 0
12, 10315, Note_on_c, 10, 77, 59
12, 10316, Note_on_c, 10, 76, 0
12, 10429, Channel_aftertouch_c, 10, 1
12, 10430, Channel_aftertouch_c, 10, 3
12, 10430, Channel_aftertouch_c, 10, 6
12, 10431, Channel_aftertouch_c, 10, 7
12, 10432, Channel_aftertouch_c, 10, 10
12, 10433, Channel_aftertouch_c, 10, 12
12, 10433, Channel_aftertouch_c, 10, 15
12, 10434, Channel_aftertouch_c, 10, 16
12, 10435, Channel_aftertouch_c, 10, 19
12, 10436, Channel_aftertouch_c, 10, 22
12, 10437, Channel_aftertouch_c, 10, 24
12, 10437, Channel_aftertouch_c, 10, 27
12, 10438, Channel_aftertouch_c, 10, 30
12, 10439, Channel_aftertouch_c, 10, 31
12, 10439, Channel_aftertouch_c, 10, 33
12, 10440, Channel_aftertouch_c, 10, 36
12, 10441, Channel_aftertouch_c, 10, 37
12, 10442, Channel_aftertouch_c, 10, 39
12, 10443, Channel_aftertouch_c, 10, 40
12, 10445, Channel_aftertouch_c, 10, 43
12, 10446, Channel_aftertouch_c, 10, 45
12, 10447, Channel_aftertouch_c, 10, 46
12, 10450, Channel_aftertouch_c, 10, 48
12, 10452, Channel_aftertouch_c, 10, 49
12, 10454, Channel_aftertouch_c, 10, 52
12, 10457, Channel_aftertouch_c, 10, 54
12, 10460, Channel_aftertouch_c, 10, 55
12, 10462, Channel_aftertouch_c, 10, 57
12, 10464, Channel_aftertouch_c, 10, 58
12, 10467, Channel_aftertouch_c, 10, 61
12, 10469, Channel_aftertouch_c, 10, 63
12, 10482, Channel_aftertouch_c, 10, 60
12, 10483, Channel_aftertouch_c, 10, 58
12, 10485, Channel_aftertouch_c, 10, 57
12, 10487, Channel_aftertouch_c, 10, 55
12, 10490, Channel_aftertouch_c, 10, 54
12, 10493, Channel_aftertouch_c, 10, 52
12, 10495, Channel_aftertouch_c, 10, 51
12, 10497, Channel_aftertouch_c, 10, 48
12, 10499, Channel_aftertouch_c, 10, 46
12, 10501, Channel_aftertouch_c, 10, 45
12, 10513, Channel_aftertouch_c, 10, 42
12, 10513, Channel_aftertouch_c, 10, 40
12, 10514, Channel_aftertouch_c, 10, 37
12, 10515, Channel_aftertouch_c, 10, 34
12, 10515, Channel_aftertouch_c, 10, 31
12, 10516, Channel_aftertouch_c, 10, 27
12, 10517, Channel_aftertouch_c, 10, 23
12, 10518, Channel_aftertouch_c, 10, 19
12, 10518, Channel_aftertouch_c, 10, 15
12, 10519, Channel_aftertouch_c, 10, 11
12, 10520, Channel_aftertouch_c, 10, 7
12, 10520, Channel_aftertouch_c, 10, 3
12, 10522, Channel_aftertouch_c, 10, 0
12, 10558, Note_on_c, 10, 76, 62
12, 10562, Note_on_c, 10, 77, 0
12, 10652, Channel_aftertouch_c, 10, 1
12, 10653, Channel_aftertouch_c, 10, 3
12, 10654, Channel_aftertouch_c, 10, 4
12, 10654, Channel_aftertouch_c, 10, 7
12, 10655, Channel_aftertouch_c, 10, 9
12, 10657, Channel_aftertouch_c, 10, 10
12, 10658, Channel_aftertouch_c, 10, 12
12, 10663, Channel_aftertouch_c, 10, 10
12, 10664, Channel_aftertouch_c, 10, 9
12, 10664, Channel_aftertouch_c, 10, 7
12, 10665, Channel_aftertouch_c, 10, 6
12, 10666, Channel_aftertouch_c, 10, 4
12, 10666, Channel_aftertouch_c, 10, 3
12, 10668, Channel_aftertouch_c, 10, 1
12, 10671, Channel_aftertouch_c, 10, 3
12, 10673, Channel_aftertouch_c, 10, 6
12, 10675, Channel_aftertouch_c, 10, 7
12, 10676, Channel_aftertouch_c, 10, 9
12, 10676, Channel_aftertouch_c, 10, 10
12, 10678, Channel_aftertouch_c, 10, 13
12, 10680, Channel_aftertouch_c, 10, 15
12, 10681, Channel_aftertouch_c, 10, 16
12, 10684, Channel_aftertouch_c, 10, 19
12, 10686, Channel_aftertouch_c, 10, 21
12, 10689, Channel_aftertouch_c, 10, 22
12, 10693, Channel_aftertouch_c, 10, 24
12, 10697, Channel_aftertouch_c, 10, 25
12, 10702, Channel_aftertouch_c, 10, 27
12, 10705, Channel_aftertouch_c, 10, 28
12, 10714, Channel_aftertouch_c, 10, 27
12, 10717, Channel_aftertouch_c, 10, 25
12, 10731, Channel_aftertouch_c, 10, 27
12, 10735, Channel_aftertouch_c, 10, 28
12, 10738, Channel_aftertouch_c, 10, 30
12, 10747, Channel_aftertouch_c, 10, 31
12, 10751, Channel_aftertouch_c, 10, 30
12, 10752, Channel_aftertouch_c, 10, 28
12, 10753, Channel_aftertouch_c, 10, 25
12, 10755, Channel_aftertouch_c, 10, 24
12, 10758, Channel_aftertouch_c, 10, 22
12, 10759, Channel_aftertouch_c, 10, 21
12, 10761, Channel_aftertouch_c, 10, 19
12, 10762, Channel_aftertouch_c, 10, 18
12, 10762, Channel_aftertouch_c, 10, 15
12, 10763, Channel_aftertouch_c, 10, 13
12, 10764, Channel_aftertouch_c, 10, 10
12, 10764, Channel_aftertouch_c, 10, 6
12, 10765, Channel_aftertouch_c, 10, 3
12, 10766, Channel_aftertouch_c, 10, 0
12, 10797, Note_on_c, 10, 72, 61
12, 10801, Note_on_c, 10, 76, 0
12, 10866, Channel_aftertouch_c, 10, 3
12, 10867, Channel_aftertouch_c, 10, 6
12, 10868, Channel_aftertouch_c, 10, 10
12, 10868, Channel_aftertouch_c, 10, 14
12, 10869, Channel_aftertouch_c, 10, 18
12, 10870, Channel_aftertouch_c, 10, 22
12, 10871, Channel_aftertouch_c, 10, 24
12, 10871, Channel_aftertouch_c, 10, 25
12, 10872, Channel_aftertouch_c, 10, 28
12, 10873, Channel_aftertouch_c, 10, 30
12, 10873, Channel_aftertouch_c, 10, 33
12, 10874, Channel_aftertouch_c, 10, 34
12, 10875, Channel_aftertouch_c, 10, 36
12, 10876, Channel_aftertouch_c, 10, 39
12, 10876, Channel_aftertouch_c, 10, 40
12, 10877, Channel_aftertouch_c, 10, 42
12, 10884, Channel_aftertouch_c, 10, 45
12, 10885, Channel_aftertouch_c, 10, 46
12, 10886, Channel_aftertouch_c, 10, 48
12, 10886, Channel_aftertouch_c, 10, 49
12, 10887, Channel_aftertouch_c, 10, 51
12, 10888, Channel_aftertouch_c, 10, 52
12, 10888, Channel_aftertouch_c, 10, 54
12, 10889, Channel_aftertouch_c, 10, 55
12, 10891, Channel_aftertouch_c, 10, 58
12, 10892, Channel_aftertouch_c, 10, 60
12, 10893, Channel_aftertouch_c, 10, 61
12, 10895, Channel_aftertouch_c, 10, 64
12, 10897, Channel_aftertouch_c, 10, 66
12, 10899, Channel_aftertouch_c, 10, 67
12, 10901, Channel_aftertouch_c, 10, 69
12, 10904, Channel_aftertouch_c, 10, 70
12, 10907, Channel_aftertouch_c, 10, 72
12, 10910, Channel_aftertouch_c, 10, 73
12, 10912, Channel_aftertouch_c, 10, 75
12, 10914, Channel_aftertouch_c, 10, 78
12, 10917, Channel_aftertouch_c, 10, 79
12, 10919, Channel_aftertouch_c, 10, 81
12, 10921, Channel_aftertouch_c, 10, 82
12, 10924, Channel_aftertouch_c, 10, 84
12, 10927, Channel_aftertouch_c, 10, 85
12, 10932, Channel_aftertouch_c, 10, 87
12, 10937, Channel_aftertouch_c, 10, 88
12, 10940, Channel_aftertouch_c, 10, 90
12, 10945, Channel_aftertouch_c, 10, 91
12, 10950, Channel_aftertouch_c, 10, 93
12, 10962, Channel_aftertouch_c, 10, 96
12, 10967, Channel_aftertouch_c, 10, 97
12, 10973, Channel_aftertouch_c, 10, 99
12, 10978, Channel_aftertouch_c, 10, 100
12, 10992, Channel_aftertouch_c, 10, 99
12, 10993, Channel_aftertouch_c, 10, 97
12, 10995, Channel_aftertouch_c, 10, 94
12, 10998, Channel_aftertouch_c, 10, 93
12, 11005, Channel_aftertouch_c, 10, 91
12, 11006, Channel_aftertouch_c, 10, 88
12, 11007, Channel_aftertouch_c, 10, 85
12, 11008, Channel_aftertouch_c, 10, 82
12, 11008, Channel_aftertouch_c, 10, 78
12, 11009, Channel_aftertouch_c, 10, 74
12, 11010, Channel_aftertouch_c, 10, 70
12, 11011, Channel_aftertouch_c, 10, 66
12, 11012, Channel_aftertouch_c, 10, 62
12, 11012, Channel_aftertouch_c, 10, 58
12, 11013, Channel_aftertouch_c, 10, 54
12, 11014, Channel_aftertouch_c, 10, 50
12, 11015, Channel_aftertouch_c, 10, 46
12, 11016, Channel_aftertouch_c, 10, 42
12, 11016, Channel_aftertouch_c, 10, 38
12, 11017, Channel_aftertouch_c, 10, 34
12, 11018, Channel_aftertouch_c, 10, 30
12, 11018, Channel_aftertouch_c, 10, 26
12, 11019, Channel_aftertouch_c, 10, 22
12, 11020, Channel_aftertouch_c, 10, 18
12, 11021, Channel_aftertouch_c, 10, 14
12, 11021, Channel_aftertouch_c, 10, 10
12, 11022, Channel_aftertouch_c, 10, 6
12, 11023, Channel_aftertouch_c, 10, 2
12, 11023, Channel_aftertouch_c, 10, 0
12, 11032, Note_on_c, 10, 72, 0
12, 36001, Note_on_c, 10, 76, 60
12, 36076, Channel_aftertouch_c, 10, 1
12, 36077, Channel_aftertouch_c, 10, 3
12, 36078, Channel_aftertouch_c, 10, 6
12, 36079, Channel_aftertouch_c, 10, 7
12, 36079, Channel_aftertouch_c, 10, 10
12, 36080, Channel_aftertouch_c, 10, 13
12, 36081, Channel_aftertouch_c, 10, 16
12, 36082, Channel_aftertouch_c, 10, 19
12, 36082, Channel_aftertouch_c, 10, 21
12, 36083, Channel_aftertouch_c, 10, 24
12, 36084, Channel_aftertouch_c, 10, 25
12, 36085, Channel_aftertouch_c, 10, 28
12, 36085, Channel_aftertouch_c, 10, 31
12, 36086, Channel_aftertouch_c, 10, 34
12, 36087, Channel_aftertouch_c, 10, 36
12, 36088, Channel_aftertouch_c, 10, 39
12, 36088, Channel_aftertouch_c, 10, 42
12, 36089, Channel_aftertouch_c, 10, 45
12, 36090, Channel_aftertouch_c, 10, 46
12, 36091, Channel_aftertouch_c, 10, 49
12, 36091, Channel_aftertouch_c, 10, 51
12, 36092, Channel_aftertouch_c, 10, 54
12, 36093, Channel_aftertouch_c, 10, 55
12, 36093, Channel_aftertouch_c, 10, 57
12, 36095, Channel_aftertouch_c, 10, 60
12, 36095, Channel_aftertouch_c, 10, 61
12, 36097, Channel_aftertouch_c, 10, 64
12, 36099, Channel_aftertouch_c, 10, 67
12, 36100, Channel_aftertouch_c, 10, 69
12, 36102, Channel_aftertouch_c, 10, 72
12, 36103, Channel_aftertouch_c, 10, 73
12, 36105, Channel_aftertouch_c, 10, 76
12, 36106, Channel_aftertouch_c, 10, 78
12, 36107, Channel_aftertouch_c, 10, 79
12, 36109, Channel_aftertouch_c, 10, 82
12, 36110, Channel_aftertouch_c, 10, 84
12, 36112, Channel_aftertouch_c, 10, 85
12, 36115, Channel_aftertouch_c, 10, 87
12, 36119, Channel_aftertouch_c, 10, 88
12, 36129, Channel_aftertouch_c, 10, 90
12, 36133, Channel_aftertouch_c, 10, 91
12, 36135, Channel_aftertouch_c, 10, 93
12, 36140, Channel_aftertouch_c, 10, 94
12, 36147, Channel_aftertouch_c, 10, 96
12, 36152, Channel_aftertouch_c, 10, 97
12, 36156, Channel_aftertouch_c, 10, 99
12, 36160, Channel_aftertouch_c, 10, 100
12, 36165, Channel_aftertouch_c, 10, 102
12, 36175, Channel_aftertouch_c, 10, 103
12, 36181, Channel_aftertouch_c, 10, 102
12, 36184, Channel_aftertouch_c, 10, 100
12, 36185, Channel_aftertouch_c, 10, 99
12, 36187, Channel_aftertouch_c, 10, 97
12, 36188, Channel_aftertouch_c, 10, 94
12, 36190, Channel_aftertouch_c, 10, 91
12, 36190, Channel_aftertouch_c, 10, 90
12, 36191, Channel_aftertouch_c, 10, 88
12, 36193, Channel_aftertouch_c, 10, 85
12, 36193, Channel_aftertouch_c, 10, 82
12, 36195, Channel_aftertouch_c, 10, 81
12, 36196, Channel_aftertouch_c, 10, 79
12, 36197, Channel_aftertouch_c, 10, 78
12, 36199, Channel_aftertouch_c, 10, 74
12, 36200, Channel_aftertouch_c, 10, 72
12, 36201, Channel_aftertouch_c, 10, 69
12, 36201, Channel_aftertouch_c, 10, 66
12, 36202, Channel_aftertouch_c, 10, 62
12, 36203, Channel_aftertouch_c, 10, 58
12, 36203, Channel_aftertouch_c, 10, 54
12, 36204, Channel_aftertouch_c, 10, 50
12, 36205, Channel_aftertouch_c, 10, 46
12, 36205, Channel_aftertouch_c, 10, 42
12, 36206, Channel_aftertouch_c, 10, 38
12, 36207, Channel_aftertouch_c, 10, 34
12, 36208, Channel_aftertouch_c, 10, 30
12, 36208, Channel_aftertouch_c, 10, 26
12, 36209, Channel_aftertouch_c, 10, 22
12, 36210, Channel_aftertouch_c, 10, 18
12, 36211, Channel_aftertouch_c, 10, 14
12, 36211, Channel_aftertouch_c, 10, 10
12, 36212, Channel_aftertouch_c, 10, 6
12, 36213, Channel_aftertouch_c, 10, 2
12, 36213, Channel_aftertouch_c, 10, 0
12, 36240, Note_on_c, 10, 74, 60
12, 36241, Note_on_c, 10, 76, 0
12, 36461, Channel_aftertouch_c, 10, 1
12, 36463, Channel_aftertouch_c, 10, 3
12, 36464, Channel_aftertouch_c, 10, 4
12, 36465, Channel_aftertouch_c, 10, 6
12, 36467, Channel_aftertouch_c, 10, 9
12, 36468, Channel_aftertouch_c, 10, 10
12, 36470, Channel_aftertouch_c, 10, 12
12, 36470, Channel_aftertouch_c, 10, 13
12, 36473, Channel_aftertouch_c, 10, 16
12, 36474, Channel_aftertouch_c, 10, 18
12, 36474, Channel_aftertouch_c, 10, 21
12, 36476, Channel_aftertouch_c, 10, 22
12, 36476, Channel_aftertouch_c, 10, 25
12, 36478, Channel_aftertouch_c, 10, 27
12, 36479, Channel_aftertouch_c, 10, 30
12, 36481, Channel_aftertouch_c, 10, 31
12, 36482, Channel_aftertouch_c, 10, 33
12, 36484, Channel_aftertouch_c, 10, 34
12, 36486, Channel_aftertouch_c, 10, 36
12, 36488, Channel_aftertouch_c, 10, 39
12, 36490, Channel_aftertouch_c, 10, 40
12, 36493, Channel_aftertouch_c, 10, 42
12, 36495, Channel_aftertouch_c, 10, 43
12, 36498, Channel_aftertouch_c, 10, 45
12, 36500, Channel_aftertouch_c, 10, 46
12, 36502, Channel_aftertouch_c, 10, 48
12, 36505, Channel_aftertouch_c, 10, 49
12, 36507, Channel_aftertouch_c, 10, 51
12, 36510, Channel_aftertouch_c, 10, 54
12, 36513, Channel_aftertouch_c, 10, 55
12, 36516, Channel_aftertouch_c, 10, 57
12, 36520, Channel_aftertouch_c, 10, 58
12, 36524, Channel_aftertouch_c, 10, 60
12, 36528, Channel_aftertouch_c, 10, 61
12, 36535, Channel_aftertouch_c, 10, 63
12, 36541, Channel_aftertouch_c, 10, 64
12, 36546, Channel_aftertouch_c, 10, 63
12, 36547, Channel_aftertouch_c, 10, 61
12, 36548, Channel_aftertouch_c, 10, 60
12, 36549, Channel_aftertouch_c, 10, 58
12, 36552, Channel_aftertouch_c, 10, 60
12, 36554, Channel_aftertouch_c, 10, 63
12, 36556, Channel_aftertouch_c, 10, 64
12, 36560, Channel_aftertouch_c, 10, 66
12, 36565, Channel_aftertouch_c, 10, 67
12, 36570, Channel_aftertouch_c, 10, 66
12, 36571, Channel_aftertouch_c, 10, 63
12, 36572, Channel_aftertouch_c, 10, 60
12, 36573, Channel_aftertouch_c, 10, 58
12, 36574, Channel_aftertouch_c, 10, 60
12, 36577, Channel_aftertouch_c, 10, 58
12, 36579, Channel_aftertouch_c, 10, 60
12, 36580, Channel_aftertouch_c, 10, 61
12, 36580, Channel_aftertouch_c, 10, 63
12, 36582, Channel_aftertouch_c, 10, 64
12, 36584, Channel_aftertouch_c, 10, 66
12, 36589, Channel_aftertouch_c, 10, 69
12, 36592, Channel_aftertouch_c, 10, 70
12, 36599, Channel_aftertouch_c, 10, 67
12, 36600, Channel_aftertouch_c, 10, 64
12, 36602, Channel_aftertouch_c, 10, 63
12, 36606, Channel_aftertouch_c, 10, 64
12, 36609, Channel_aftertouch_c, 10, 63
12, 36612, Channel_aftertouch_c, 10, 61
12, 36615, Channel_aftertouch_c, 10, 63
12, 36616, Channel_aftertouch_c, 10, 66
12, 36617, Channel_aftertouch_c, 10, 67
12, 36619, Channel_aftertouch_c, 10, 70
12, 36621, Channel_aftertouch_c, 10, 72
12, 36623, Channel_aftertouch_c, 10, 75
12, 36629, Channel_aftertouch_c, 10, 73
12, 36636, Channel_aftertouch_c, 10, 75
12, 36639, Channel_aftertouch_c, 10, 76
12, 36641, Channel_aftertouch_c, 10, 75
12, 36643, Channel_aftertouch_c, 10, 73
12, 36646, Channel_aftertouch_c, 10, 70
12, 36649, Channel_aftertouch_c, 10, 69
12, 36657, Channel_aftertouch_c, 10, 70
12, 36660, Channel_aftertouch_c, 10, 73
12, 36661, Channel_aftertouch_c, 10, 75
12, 36663, Channel_aftertouch_c, 10, 76
12, 36665, Channel_aftertouch_c, 10, 78
12, 36669, Channel_aftertouch_c, 10, 79
12, 36673, Channel_aftertouch_c, 10, 78
12, 36674, Channel_aftertouch_c, 10, 75
12, 36674, Channel_aftertouch_c, 10, 72
12, 36675, Channel_aftertouch_c, 10, 68
12, 36676, Channel_aftertouch_c, 10, 64
12, 36677, Channel_aftertouch_c, 10, 60
12, 36678, Channel_aftertouch_c, 10, 56
12, 36678, Channel_aftertouch_c, 10, 52
12, 36679, Channel_aftertouch_c, 10, 48
12, 36680, Channel_aftertouch_c, 10, 44
12, 36680, Channel_aftertouch_c, 10, 40
12, 36681, Channel_aftertouch_c, 10, 36
12, 36682, Channel_aftertouch_c, 10, 32
12, 36682, Channel_aftertouch_c, 10, 28
12, 36683, Channel_aftertouch_c, 10, 24
12, 36684, Channel_aftertouch_c, 10, 20
12, 36685, Channel_aftertouch_c, 10, 16
12, 36685, Channel_aftertouch_c, 10, 12
12, 36686, Channel_aftertouch_c, 10, 8
12, 36687, Channel_aftertouch_c, 10, 4
12, 36688, Channel_aftertouch_c, 10, 0
12, 36761, Channel_aftertouch_c, 10, 1
12, 36762, Channel_aftertouch_c, 10, 4
12, 36764, Channel_aftertouch_c, 10, 6
12, 36764, Channel_aftertouch_c, 10, 7
12, 36765, Channel_aftertouch_c, 10, 9
12, 36767, Channel_aftertouch_c, 10, 12
12, 36768, Channel_aftertouch_c, 10, 15
12, 36769, Channel_aftertouch_c, 10, 16
12, 36772, Channel_aftertouch_c, 10, 18
12, 36775, Channel_aftertouch_c, 10, 19
12, 36777, Channel_aftertouch_c, 10, 21
12, 36779, Channel_aftertouch_c, 10, 22
12, 36781, Channel_aftertouch_c, 10, 24
12, 36783, Channel_aftertouch_c, 10, 27
12, 36786, Channel_aftertouch_c, 10, 28
12, 36788, Channel_aftertouch_c, 10, 30
12, 36795, Channel_aftertouch_c, 10, 31
12, 36797, Channel_aftertouch_c, 10, 33
12, 36803, Channel_aftertouch_c, 10, 34
12, 36806, Channel_aftertouch_c, 10, 36
12, 36808, Channel_aftertouch_c, 10, 39
12, 36809, Channel_aftertouch_c, 10, 40
12, 36810, Channel_aftertouch_c, 10, 42
12, 36810, Channel_aftertouch_c, 10, 45
12, 36811, Channel_aftertouch_c, 10, 49
12, 36812, Channel_aftertouch_c, 10, 52
12, 36813, Channel_aftertouch_c, 10, 56
12, 36814, Channel_aftertouch_c, 10, 60
12, 36814, Channel_aftertouch_c, 10, 64
12, 36815, Channel_aftertouch_c, 10, 67
12, 36816, Channel_aftertouch_c, 10, 70
12, 36816, Channel_aftertouch_c, 10, 73
12, 36817, Channel_aftertouch_c, 10, 75
12, 36818, Channel_aftertouch_c, 10, 76
12, 36819, Channel_aftertouch_c, 10, 78
12, 36819, Channel_aftertouch_c, 10, 79
12, 36821, Channel_aftertouch_c, 10, 82
12, 36825, Channel_aftertouch_c, 10, 84
12, 36827, Channel_aftertouch_c, 10, 85
12, 36829, Channel_aftertouch_c, 10, 87
12, 36831, Channel_aftertouch_c, 10, 90
12, 36831, Channel_aftertouch_c, 10, 93
12, 36833, Channel_aftertouch_c, 10, 94
12, 36834, Channel_aftertouch_c, 10, 96
12, 36836, Channel_aftertouch_c, 10, 97
12, 36838, Channel_aftertouch_c, 10, 100
12, 36840, Channel_aftertouch_c, 10, 102
12, 36848, Channel_aftertouch_c, 10, 103
12, 36862, Channel_aftertouch_c, 10, 102
12, 36865, Channel_aftertouch_c, 10, 99
12, 36867, Channel_aftertouch_c, 10, 97
12, 36868, Channel_aftertouch_c, 10, 96
12, 36870, Channel_aftertouch_c, 10, 93
12, 36871, Channel_aftertouch_c, 10, 91
12, 36872, Channel_aftertouch_c, 10, 88
12, 36874, Channel_aftertouch_c, 10, 85
12, 36874, Channel_aftertouch_c, 10, 84
12, 36875, Channel_aftertouch_c, 10, 82
12, 36876, Channel_aftertouch_c, 10, 81
12, 36877, Channel_aftertouch_c, 10, 79
12, 36877, Channel_aftertouch_c, 10, 76
12, 36878, Channel_aftertouch_c, 10, 75
12, 36879, Channel_aftertouch_c, 10, 71
12, 36879, Channel_aftertouch_c, 10, 67
12, 36881, Channel_aftertouch_c, 10, 63
12, 36881, Channel_aftertouch_c, 10, 59
12, 36882, Channel_aftertouch_c, 10, 55
12, 36883, Channel_aftertouch_c, 10, 51
12, 36884, Channel_aftertouch_c, 10, 47
12, 36884, Channel_aftertouch_c, 10, 43
12, 36885, Channel_aftertouch_c, 10, 39
12, 36886, Channel_aftertouch_c, 10, 35
12, 36886, Channel_aftertouch_c, 10, 31
12, 36887, Channel_aftertouch_c, 10, 27
12, 36888, Channel_aftertouch_c, 10, 23
12, 36888, Channel_aftertouch_c, 10, 19
12, 36889, Channel_aftertouch_c, 10, 15
12, 36890, Channel_aftertouch_c, 10, 11
12, 36890, Channel_aftertouch_c, 10, 7
12, 36891, Channel_aftertouch_c, 10, 3
12, 36892, Channel_aftertouch_c, 10, 0
12, 36916, Note_on_c, 10, 74, 0
12, 36961, Note_on_c, 10, 76, 67
12, 37022, Channel_aftertouch_c, 10, 1
12, 37023, Channel_aftertouch_c, 10, 4
12, 37024, Channel_aftertouch_c, 10, 6
12, 37025, Channel_aftertouch_c, 10, 7
12, 37025, Channel_aftertouch_c, 10, 10
12, 37026, Channel_aftertouch_c, 10, 12
12, 37027, Channel_aftertouch_c, 10, 15
12, 37028, Channel_aftertouch_c, 10, 16
12, 37028, Channel_aftertouch_c, 10, 19
12, 37029, Channel_aftertouch_c, 10, 21
12, 37030, Channel_aftertouch_c, 10, 24
12, 37030, Channel_aftertouch_c, 10, 25
12, 37031, Channel_aftertouch_c, 10, 28
12, 37032, Channel_aftertouch_c, 10, 31
12, 37033, Channel_aftertouch_c, 10, 33
12, 37034, Channel_aftertouch_c, 10, 36
12, 37034, Channel_aftertouch_c, 10, 40
12, 37035, Channel_aftertouch_c, 10, 43
12, 37036, Channel_aftertouch_c, 10, 46
12, 37036, Channel_aftertouch_c, 10, 50
12, 37037, Channel_aftertouch_c, 10, 54
12, 37038, Channel_aftertouch_c, 10, 57
12, 37039, Channel_aftertouch_c, 10, 60
12, 37039, Channel_aftertouch_c, 10, 63
12, 37040, Channel_aftertouch_c, 10, 66
12, 37041, Channel_aftertouch_c, 10, 67
12, 37041, Channel_aftertouch_c, 10, 70
12, 37042, Channel_aftertouch_c, 10, 72
12, 37043, Channel_aftertouch_c, 10, 73
12, 37044, Channel_aftertouch_c, 10, 76
12, 37045, Channel_aftertouch_c, 10, 78
12, 37047, Channel_aftertouch_c, 10, 79
12, 37049, Channel_aftertouch_c, 10, 81
12, 37052, Channel_aftertouch_c, 10, 82
12, 37054, Channel_aftertouch_c, 10, 84
12, 37056, Channel_aftertouch_c, 10, 85
12, 37060, Channel_aftertouch_c, 10, 87
12, 37065, Channel_aftertouch_c, 10, 90
12, 37073, Channel_aftertouch_c, 10, 91
12, 37081, Channel_aftertouch_c, 10, 90
12, 37089, Channel_aftertouch_c, 10, 87
12, 37091, Channel_aftertouch_c, 10, 85
12, 37092, Channel_aftertouch_c, 10, 84
12, 37094, Channel_aftertouch_c, 10, 80
12, 37095, Channel_aftertouch_c, 10, 78
12, 37095, Channel_aftertouch_c, 10, 75
12, 37096, Channel_aftertouch_c, 10, 72
12, 37097, Channel_aftertouch_c, 10, 69
12, 37098, Channel_aftertouch_c, 10, 66
12, 37098, Channel_aftertouch_c, 10, 63
12, 37099, Channel_aftertouch_c, 10, 59
12, 37100, Channel_aftertouch_c, 10, 55
12, 37100, Channel_aftertouch_c, 10, 52
12, 37102, Channel_aftertouch_c, 10, 48
12, 37102, Channel_aftertouch_c, 10, 45
12, 37103, Channel_aftertouch_c, 10, 41
12, 37104, Channel_aftertouch_c, 10, 37
12, 37104, Channel_aftertouch_c, 10, 33
12, 37105, Channel_aftertouch_c, 10, 29
12, 37106, Channel_aftertouch_c, 10, 25
12, 37107, Channel_aftertouch_c, 10, 21
12, 37107, Channel_aftertouch_c, 10, 17
12, 37108, Channel_aftertouch_c, 10, 13
12, 37109, Channel_aftertouch_c, 10, 9
12, 37109, Channel_aftertouch_c, 10, 5
12, 37110, Channel_aftertouch_c, 10, 1
12, 37111, Channel_aftertouch_c, 10, 0
12, 37147, Note_on_c, 10, 77, 57
12, 37149, Note_on_c, 10, 76, 0
12, 37178, Note_on_c, 10, 76, 52
12, 37184, Note_on_c, 10, 77, 0
12, 37208, Note_on_c, 10, 74, 58
12, 37211, Note_on_c, 10, 76, 0
12, 37243, Channel_aftertouch_c, 10, 4
12, 37243, Channel_aftertouch_c, 10, 8
12, 37244, Channel_aftertouch_c, 10, 12
12, 37245, Channel_aftertouch_c, 10, 16
12, 37245, Channel_aftertouch_c, 10, 20
12, 37246, Channel_aftertouch_c, 10, 24
12, 37247, Channel_aftertouch_c, 10, 25
12, 37248, Channel_aftertouch_c, 10, 28
12, 37248, Channel_aftertouch_c, 10, 31
12, 37249, Channel_aftertouch_c, 10, 33
12, 37251, Channel_aftertouch_c, 10, 34
12, 37252, Channel_aftertouch_c, 10, 36
12, 37254, Channel_aftertouch_c, 10, 37
12, 37256, Channel_aftertouch_c, 10, 39
12, 37257, Channel_aftertouch_c, 10, 40
12, 37263, Channel_aftertouch_c, 10, 39
12, 37264, Channel_aftertouch_c, 10, 37
12, 37264, Channel_aftertouch_c, 10, 36
12, 37266, Channel_aftertouch_c, 10, 33
12, 37267, Channel_aftertouch_c, 10, 31
12, 37267, Channel_aftertouch_c, 10, 30
12, 37268, Channel_aftertouch_c, 10, 28
12, 37269, Channel_aftertouch_c, 10, 25
12, 37270, Channel_aftertouch_c, 10, 24
12, 37270, Channel_aftertouch_c, 10, 21
12, 37271, Channel_aftertouch_c, 10, 17
12, 37272, Channel_aftertouch_c, 10, 15
12, 37273, Channel_aftertouch_c, 10, 16
12, 37274, Channel_aftertouch_c, 10, 19
12, 37275, Channel_aftertouch_c, 10, 22
12, 37276, Channel_aftertouch_c, 10, 25
12, 37279, Channel_aftertouch_c, 10, 28
12, 37281, Channel_aftertouch_c, 10, 30
12, 37283, Channel_aftertouch_c, 10, 31
12, 37287, Channel_aftertouch_c, 10, 28
12, 37287, Channel_aftertouch_c, 10, 25
12, 37288, Channel_aftertouch_c, 10, 24
12, 37289, Channel_aftertouch_c, 10, 21
12, 37290, Channel_aftertouch_c, 10, 19
12, 37291, Channel_aftertouch_c, 10, 18
12, 37293, Channel_aftertouch_c, 10, 16
12, 37295, Channel_aftertouch_c, 10, 13
12, 37295, Channel_aftertouch_c, 10, 12
12, 37296, Channel_aftertouch_c, 10, 10
12, 37297, Channel_aftertouch_c, 10, 9
12, 37299, Channel_aftertouch_c, 10, 13
12, 37300, Channel_aftertouch_c, 10, 17
12, 37300, Channel_aftertouch_c, 10, 21
12, 37301, Channel_aftertouch_c, 10, 25
12, 37302, Channel_aftertouch_c, 10, 28
12, 37302, Channel_aftertouch_c, 10, 31
12, 37303, Channel_aftertouch_c, 10, 33
12, 37304, Channel_aftertouch_c, 10, 36
12, 37305, Channel_aftertouch_c, 10, 37
12, 37306, Channel_aftertouch_c, 10, 39
12, 37306, Channel_aftertouch_c, 10, 42
12, 37308, Channel_aftertouch_c, 10, 43
12, 37311, Channel_aftertouch_c, 10, 45
12, 37313, Channel_aftertouch_c, 10, 46
12, 37315, Channel_aftertouch_c, 10, 48
12, 37316, Channel_aftertouch_c, 10, 49
12, 37319, Channel_aftertouch_c, 10, 52
12, 37320, Channel_aftertouch_c, 10, 54
12, 37323, Channel_aftertouch_c, 10, 55
12, 37326, Channel_aftertouch_c, 10, 57
12, 37330, Channel_aftertouch_c, 10, 60
12, 37332, Channel_aftertouch_c, 10, 61
12, 37334, Channel_aftertouch_c, 10, 63
12, 37337, Channel_aftertouch_c, 10, 64
12, 37344, Channel_aftertouch_c, 10, 66
12, 37350, Channel_aftertouch_c, 10, 67
12, 37354, Channel_aftertouch_c, 10, 69
12, 37361, Channel_aftertouch_c, 10, 70
12, 37370, Channel_aftertouch_c, 10, 72
12, 37378, Channel_aftertouch_c, 10, 73
12, 37387, Channel_aftertouch_c, 10, 75
12, 37395, Channel_aftertouch_c, 10, 76
12, 37401, Channel_aftertouch_c, 10, 78
12, 37412, Channel_aftertouch_c, 10, 79
12, 37423, Channel_aftertouch_c, 10, 81
12, 37434, Channel_aftertouch_c, 10, 82
12, 37441, Channel_aftertouch_c, 10, 84
12, 37451, Channel_aftertouch_c, 10, 85
12, 37469, Channel_aftertouch_c, 10, 87
12, 37475, Channel_aftertouch_c, 10, 85
12, 37477, Channel_aftertouch_c, 10, 84
12, 37477, Channel_aftertouch_c, 10, 81
12, 37478, Channel_aftertouch_c, 10, 79
12, 37481, Channel_aftertouch_c, 10, 76
12, 37484, Channel_aftertouch_c, 10, 75
12, 37486, Channel_aftertouch_c, 10, 73
12, 37486, Channel_aftertouch_c, 10, 72
12, 37487, Channel_aftertouch_c, 10, 70
12, 37488, Channel_aftertouch_c, 10, 67
12, 37488, Channel_aftertouch_c, 10, 66
12, 37489, Channel_aftertouch_c, 10, 64
12, 37490, Channel_aftertouch_c, 10, 61
12, 37491, Channel_aftertouch_c, 10, 60
12, 37492, Channel_aftertouch_c, 10, 57
12, 37494, Channel_aftertouch_c, 10, 55
12, 37496, Channel_aftertouch_c, 10, 54
12, 37498, Channel_aftertouch_c, 10, 51
12, 37498, Channel_aftertouch_c, 10, 49
12, 37499, Channel_aftertouch_c, 10, 48
12, 37500, Channel_aftertouch_c, 10, 44
12, 37500, Channel_aftertouch_c, 10, 40
12, 37501, Channel_aftertouch_c, 10, 36
12, 37502, Channel_aftertouch_c, 10, 32
12, 37503, Channel_aftertouch_c, 10, 28
12, 37503, Channel_aftertouch_c, 10, 24
12, 37504, Channel_aftertouch_c, 10, 20
12, 37505, Channel_aftertouch_c, 10, 16
12, 37505, Channel_aftertouch_c, 10, 12
12, 37506, Channel_aftertouch_c, 10, 8
12, 37507, Channel_aftertouch_c, 10, 4
12, 37507, Channel_aftertouch_c, 10, 0
12, 37586, Channel_aftertouch_c, 10, 1
12, 37587, Channel_aftertouch_c, 10, 3
12, 37588, Channel_aftertouch_c, 10, 4
12, 37589, Channel_aftertouch_c, 10, 6
12, 37590, Channel_aftertouch_c, 10, 9
12, 37591, Channel_aftertouch_c, 10, 12
12, 37592, Channel_aftertouch_c, 10, 13
12, 37593, Channel_aftertouch_c, 10, 15
12, 37593, Channel_aftertouch_c, 10, 16
12, 37595, Channel_aftertouch_c, 10, 19
12, 37595, Channel_aftertouch_c, 10, 21
12, 37596, Channel_aftertouch_c, 10, 24
12, 37597, Channel_aftertouch_c, 10, 27
12, 37598, Channel_aftertouch_c, 10, 30
12, 37598, Channel_aftertouch_c, 10, 31
12, 37599, Channel_aftertouch_c, 10, 34
12, 37600, Channel_aftertouch_c, 10, 36
12, 37600, Channel_aftertouch_c, 10, 37
12, 37602, Channel_aftertouch_c, 10, 40
12, 37603, Channel_aftertouch_c, 10, 42
12, 37605, Channel_aftertouch_c, 10, 43
12, 37606, Channel_aftertouch_c, 10, 45
12, 37608, Channel_aftertouch_c, 10, 46
12, 37610, Channel_aftertouch_c, 10, 49
12, 37612, Channel_aftertouch_c, 10, 51
12, 37614, Channel_aftertouch_c, 10, 52
12, 37615, Channel_aftertouch_c, 10, 54
12, 37617, Channel_aftertouch_c, 10, 55
12, 37618, Channel_aftertouch_c, 10, 57
12, 37620, Channel_aftertouch_c, 10, 58
12, 37621, Channel_aftertouch_c, 10, 61
12, 37623, Channel_aftertouch_c, 10, 63
12, 37624, Channel_aftertouch_c, 10, 64
12, 37627, Channel_aftertouch_c, 10, 66
12, 37629, Channel_aftertouch_c, 10, 67
12, 37634, Channel_aftertouch_c, 10, 69
12, 37638, Channel_aftertouch_c, 10, 72
12, 37641, Channel_aftertouch_c, 10, 73
12, 37644, Channel_aftertouch_c, 10, 75
12, 37648, Channel_aftertouch_c, 10, 76
12, 37651, Channel_aftertouch_c, 10, 78
12, 37655, Channel_aftertouch_c, 10, 79
12, 37661, Channel_aftertouch_c, 10, 81
12, 37665, Channel_aftertouch_c, 10, 82
12, 37675, Channel_aftertouch_c, 10, 84
12, 37679, Channel_aftertouch_c, 10, 85
12, 37682, Channel_aftertouch_c, 10, 88
12, 37684, Channel_aftertouch_c, 10, 90
12, 37686, Channel_aftertouch_c, 10, 91
12, 37688, Channel_aftertouch_c, 10, 93
12, 37691, Channel_aftertouch_c, 10, 94
12, 37693, Channel_aftertouch_c, 10, 96
12, 37697, Channel_aftertouch_c, 10, 97
12, 37700, Channel_aftertouch_c, 10, 99
12, 37706, Channel_aftertouch_c, 10, 100
12, 37712, Channel_aftertouch_c, 10, 102
12, 37720, Channel_aftertouch_c, 10, 103
12, 37733, Channel_aftertouch_c, 10, 105
12, 37739, Channel_aftertouch_c, 10, 103
12, 37741, Channel_aftertouch_c, 10, 102
12, 37742, Channel_aftertouch_c, 10, 100
12, 37744, Channel_aftertouch_c, 10, 99
12, 37745, Channel_aftertouch_c, 10, 97
12, 37747, Channel_aftertouch_c, 10, 94
12, 37749, Channel_aftertouch_c, 10, 93
12, 37750, Channel_aftertouch_c, 10, 91
12, 37752, Channel_aftertouch_c, 10, 88
12, 37753, Channel_aftertouch_c, 10, 85
12, 37754, Channel_aftertouch_c, 10, 82
12, 37755, Channel_aftertouch_c, 10, 81
12, 37756, Channel_aftertouch_c, 10, 79
12, 37756, Channel_aftertouch_c, 10, 78
12, 37757, Channel_aftertouch_c, 10, 75
12, 37758, Channel_aftertouch_c, 10, 72
12, 37759, Channel_aftertouch_c, 10, 68
12, 37759, Channel_aftertouch_c, 10, 64
12, 37760, Channel_aftertouch_c, 10, 60
12, 37761, Channel_aftertouch_c, 10, 56
12, 37762, Channel_aftertouch_c, 10, 52
12, 37762, Channel_aftertouch_c, 10, 48
12, 37763, Channel_aftertouch_c, 10, 44
12, 37764, Channel_aftertouch_c, 10, 40
12, 37765, Channel_aftertouch_c, 10, 36
12, 37766, Channel_aftertouch_c, 10, 32
12, 37766, Channel_aftertouch_c, 10, 28
12, 37767, Channel_aftertouch_c, 10, 24
12, 37768, Channel_aftertouch_c, 10, 20
12, 37769, Channel_aftertouch_c, 10, 16
12, 37769, Channel_aftertouch_c, 10, 12
12, 37770, Channel_aftertouch_c, 10, 8
12, 37771, Channel_aftertouch_c, 10, 4
12, 37771, Channel_aftertouch_c, 10, 0
12, 37873, Note_on_c, 10, 74, 0
12, 37919, Note_on_c, 10, 76, 59
12, 38159, Note_on_c, 10, 77, 60
12, 38162, Note_on_c, 10, 76, 0
12, 38398, Note_on_c, 10, 76, 58
12, 38402, Note_on_c, 10, 77, 0
12, 38494, Channel_aftertouch_c, 10, 1
12, 38495, Channel_aftertouch_c, 10, 3
12, 38497, Channel_aftertouch_c, 10, 6
12, 38498, Channel_aftertouch_c, 10, 7
12, 38499, Channel_aftertouch_c, 10, 11
12, 38500, Channel_aftertouch_c, 10, 12
12, 38500, Channel_aftertouch_c, 10, 13
12, 38501, Channel_aftertouch_c, 10, 15
12, 38503, Channel_aftertouch_c, 10, 16
12, 38504, Channel_aftertouch_c, 10, 19
12, 38505, Channel_aftertouch_c, 10, 21
12, 38506, Channel_aftertouch_c, 10, 22
12, 38508, Channel_aftertouch_c, 10, 25
12, 38509, Channel_aftertouch_c, 10, 27
12, 38510, Channel_aftertouch_c, 10, 28
12, 38512, Channel_aftertouch_c, 10, 31
12, 38514, Channel_aftertouch_c, 10, 33
12, 38516, Channel_aftertouch_c, 10, 34
12, 38518, Channel_aftertouch_c, 10, 36
12, 38519, Channel_aftertouch_c, 10, 37
12, 38522, Channel_aftertouch_c, 10, 39
12, 38532, Channel_aftertouch_c, 10, 37
12, 38536, Channel_aftertouch_c, 10, 36
12, 38539, Channel_aftertouch_c, 10, 37
12, 38568, Channel_aftertouch_c, 10, 39
12, 38573, Channel_aftertouch_c, 10, 37
12, 38575, Channel_aftertouch_c, 10, 34
12, 38575, Channel_aftertouch_c, 10, 33
12, 38576, Channel_aftertouch_c, 10, 31
12, 38578, Channel_aftertouch_c, 10, 28
12, 38579, Channel_aftertouch_c, 10, 27
12, 38581, Channel_aftertouch_c, 10, 24
12, 38582, Channel_aftertouch_c, 10, 22
12, 38582, Channel_aftertouch_c, 10, 19
12, 38583, Channel_aftertouch_c, 10, 18
12, 38584, Channel_aftertouch_c, 10, 15
12, 38585, Channel_aftertouch_c, 10, 12
12, 38585, Channel_aftertouch_c, 10, 9
12, 38586, Channel_aftertouch_c, 10, 7
12, 38587, Channel_aftertouch_c, 10, 4
12, 38588, Channel_aftertouch_c, 10, 3
12, 38588, Channel_aftertouch_c, 10, 0
12, 38641, Note_on_c, 10, 72, 55
12, 38650, Note_on_c, 10, 76, 0
12, 38888, Note_on_c, 10, 72, 0
12, 39359, Note_on_c, 10, 67, 58
12, 39378, Note_on_c, 10, 67, 0
12, 39393, Note_on_c, 10, 67, 51
12, 39408, Note_on_c, 10, 67, 0
12, 39419, Note_on_c, 10, 67, 51
12, 39434, Note_on_c, 10, 67, 0
12, 39452, Note_on_c, 10, 67, 39
12, 39462, Note_on_c, 10, 67, 0
12, 39481, Note_on_c, 10, 67, 47
12, 39669, Channel_aftertouch_c, 10, 3
12, 39669, Channel_aftertouch_c, 10, 4
12, 39670, Channel_aftertouch_c, 10, 6
12, 39671, Channel_aftertouch_c, 10, 9
12, 39671, Channel_aftertouch_c, 10, 12
12, 39672, Channel_aftertouch_c, 10, 13
12, 39673, Channel_aftertouch_c, 10, 16
12, 39674, Channel_aftertouch_c, 10, 19
12, 39674, Channel_aftertouch_c, 10, 21
12, 39675, Channel_aftertouch_c, 10, 24
12, 39676, Channel_aftertouch_c, 10, 25
12, 39676, Channel_aftertouch_c, 10, 28
12, 39677, Channel_aftertouch_c, 10, 30
12, 39678, Channel_aftertouch_c, 10, 31
12, 39679, Channel_aftertouch_c, 10, 34
12, 39679, Channel_aftertouch_c, 10, 36
12, 39680, Channel_aftertouch_c, 10, 37
12, 39681, Channel_aftertouch_c, 10, 39
12, 39682, Channel_aftertouch_c, 10, 40
12, 39684, Channel_aftertouch_c, 10, 43
12, 39685, Channel_aftertouch_c, 10, 46
12, 39686, Channel_aftertouch_c, 10, 48
12, 39688, Channel_aftertouch_c, 10, 51
12, 39689, Channel_aftertouch_c, 10, 52
12, 39691, Channel_aftertouch_c, 10, 55
12, 39692, Channel_aftertouch_c, 10, 57
12, 39694, Channel_aftertouch_c, 10, 58
12, 39696, Channel_aftertouch_c, 10, 61
12, 39698, Channel_aftertouch_c, 10, 63
12, 39700, Channel_aftertouch_c, 10, 64
12, 39710, Channel_aftertouch_c, 10, 63
12, 39712, Channel_aftertouch_c, 10, 60
12, 39713, Channel_aftertouch_c, 10, 58
12, 39715, Channel_aftertouch_c, 10, 55
12, 39715, Channel_aftertouch_c, 10, 54
12, 39716, Channel_aftertouch_c, 10, 52
12, 39717, Channel_aftertouch_c, 10, 49
12, 39717, Channel_aftertouch_c, 10, 48
12, 39718, Channel_aftertouch_c, 10, 45
12, 39719, Channel_aftertouch_c, 10, 43
12, 39720, Channel_aftertouch_c, 10, 40
12, 39721, Channel_aftertouch_c, 10, 36
12, 39721, Channel_aftertouch_c, 10, 32
12, 39722, Channel_aftertouch_c, 10, 28
12, 39723, Channel_aftertouch_c, 10, 24
12, 39724, Channel_aftertouch_c, 10, 20
12, 39724, Channel_aftertouch_c, 10, 16
12, 39725, Channel_aftertouch_c, 10, 12
12, 39726, Channel_aftertouch_c, 10, 8
12, 39726, Channel_aftertouch_c, 10, 4
12, 39727, Channel_aftertouch_c, 10, 0
12, 39800, Note_on_c, 10, 67, 0
12, 39841, Note_on_c, 10, 74, 62
12, 39846, Pitch_bend_c, 10, 8712
12, 39846, Pitch_bend_c, 10, 9102
12, 39847, Pitch_bend_c, 10, 9622
12, 39848, Pitch_bend_c, 10, 10142
12, 39848, Pitch_bend_c, 10, 10662
12, 39849, Pitch_bend_c, 10, 11312
12, 39849, Pitch_bend_c, 10, 11832
12, 39851, Pitch_bend_c, 10, 12352
12, 39851, Pitch_bend_c, 10, 12872
12, 39852, Pitch_bend_c, 10, 13392
12, 39853, Pitch_bend_c, 10, 13912
12, 39854, Pitch_bend_c, 10, 14302
12, 39854, Pitch_bend_c, 10, 14822
12, 39855, Pitch_bend_c, 10, 15342
12, 39856, Pitch_bend_c, 10, 15732
12, 39857, Pitch_bend_c, 10, 16252
12, 39857, Pitch_bend_c, 10, 16382
12, 39950, Channel_aftertouch_c, 10, 1
12, 39951, Channel_aftertouch_c, 10, 3
12, 39954, Channel_aftertouch_c, 10, 6
12, 39955, Channel_aftertouch_c, 10, 7
12, 39957, Channel_aftertouch_c, 10, 10
12, 39959, Channel_aftertouch_c, 10, 12
12, 39960, Channel_aftertouch_c, 10, 13
12, 39962, Channel_aftertouch_c, 10, 15
12, 39963, Channel_aftertouch_c, 10, 18
12, 39964, Channel_aftertouch_c, 10, 19
12, 39966, Channel_aftertouch_c, 10, 21
12, 39967, Channel_aftertouch_c, 10, 22
12, 39969, Channel_aftertouch_c, 10, 24
12, 39970, Channel_aftertouch_c, 10, 27
12, 39972, Channel_aftertouch_c, 10, 28
12, 39973, Channel_aftertouch_c, 10, 30
12, 39975, Channel_aftertouch_c, 10, 33
12, 39976, Channel_aftertouch_c, 10, 34
12, 39978, Channel_aftertouch_c, 10, 37
12, 39978, Channel_aftertouch_c, 10, 39
12, 39980, Channel_aftertouch_c, 10, 42
12, 39981, Channel_aftertouch_c, 10, 43
12, 39983, Channel_aftertouch_c, 10, 46
12, 39984, Channel_aftertouch_c, 10, 48
12, 39986, Channel_aftertouch_c, 10, 49
12, 39988, Channel_aftertouch_c, 10, 51
12, 39989, Channel_aftertouch_c, 10, 52
12, 39990, Channel_aftertouch_c, 10, 54
12, 39992, Channel_aftertouch_c, 10, 57
12, 39994, Channel_aftertouch_c, 10, 58
12, 39995, Channel_aftertouch_c, 10, 60
12, 39997, Channel_aftertouch_c, 10, 63
12, 39998, Channel_aftertouch_c, 10, 64
12, 39999, Channel_aftertouch_c, 10, 67
12, 40001, Channel_aftertouch_c, 10, 69
12, 40002, Channel_aftertouch_c, 10, 70
12, 40004, Channel_aftertouch_c, 10, 72
12, 40005, Channel_aftertouch_c, 10, 73
12, 40007, Channel_aftertouch_c, 10, 75
12, 40010, Channel_aftertouch_c, 10, 76
12, 40014, Channel_aftertouch_c, 10, 78
12, 40027, Channel_aftertouch_c, 10, 76
12, 40028, Channel_aftertouch_c, 10, 75
12, 40030, Channel_aftertouch_c, 10, 72
12, 40032, Channel_aftertouch_c, 10, 70
12, 40033, Channel_aftertouch_c, 10, 69
12, 40035, Channel_aftertouch_c, 10, 67
12, 40037, Channel_aftertouch_c, 10, 66
12, 40038, Channel_aftertouch_c, 10, 63
12, 40039, Channel_aftertouch_c, 10, 60
12, 40040, Channel_aftertouch_c, 10, 58
12, 40040, Channel_aftertouch_c, 10, 55
12, 40041, Channel_aftertouch_c, 10, 54
12, 40042, Channel_aftertouch_c, 10, 51
12, 40043, Channel_aftertouch_c, 10, 48
12, 40043, Channel_aftertouch_c, 10, 46
12, 40044, Channel_aftertouch_c, 10, 43
12, 40045, Channel_aftertouch_c, 10, 40
12, 40049, Channel_aftertouch_c, 10, 43
12, 40049, Channel_aftertouch_c, 10, 45
12, 40051, Channel_aftertouch_c, 10, 48
12, 40054, Channel_aftertouch_c, 10, 44
12, 40055, Channel_aftertouch_c, 10, 40
12, 40056, Channel_aftertouch_c, 10, 36
12, 40057, Channel_aftertouch_c, 10, 32
12, 40057, Channel_aftertouch_c, 10, 28
12, 40058, Channel_aftertouch_c, 10, 24
12, 40059, Channel_aftertouch_c, 10, 20
12, 40060, Channel_aftertouch_c, 10, 16
12, 40060, Channel_aftertouch_c, 10, 12
12, 40061, Channel_aftertouch_c, 10, 8
12, 40062, Channel_aftertouch_c, 10, 4
12, 40063, Channel_aftertouch_c, 10, 0
12, 40068, Pitch_bend_c, 10, 16252
12, 40069, Pitch_bend_c, 10, 16122
12, 40070, Pitch_bend_c, 10, 15992
12, 40070, Pitch_bend_c, 10, 15732
12, 40071, Pitch_bend_c, 10, 15602
12, 40072, Pitch_bend_c, 10, 15342
12, 40072, Pitch_bend_c, 10, 15212
12, 40073, Pitch_bend_c, 10, 15082
12, 40074, Pitch_bend_c, 10, 14822
12, 40075, Pitch_bend_c, 10, 14692
12, 40075, Pitch_bend_c, 10, 14432
12, 40076, Pitch_bend_c, 10, 14172
12, 40077, Pitch_bend_c, 10, 14042
12, 40078, Pitch_bend_c, 10, 13782
12, 40078, Pitch_bend_c, 10, 13522
12, 40079, Pitch_bend_c, 10, 13262
12, 40080, Pitch_bend_c, 10, 13002
12, 40080, Pitch_bend_c, 10, 12742
12, 40081, Pitch_bend_c, 10, 12482
12, 40082, Pitch_bend_c, 10, 12222
12, 40083, Pitch_bend_c, 10, 11962
12, 40083, Pitch_bend_c, 10, 11702
12, 40084, Pitch_bend_c, 10, 11312
12, 40085, Pitch_bend_c, 10, 10922
12, 40085, Pitch_bend_c, 10, 10662
12, 40086, Pitch_bend_c, 10, 10402
12, 40087, Pitch_bend_c, 10, 10142
12, 40088, Pitch_bend_c, 10, 9882
12, 40088, Pitch_bend_c, 10, 9492
12, 40089, Pitch_bend_c, 10, 9362
12, 40090, Pitch_bend_c, 10, 8972
12, 40091, Pitch_bend_c, 10, 8712
12, 40091, Pitch_bend_c, 10, 8452
12, 40092, Pitch_bend_c, 10, 8192
12, 40202, Channel_aftertouch_c, 10, 1
12, 40204, Channel_aftertouch_c, 10, 3
12, 40205, Channel_aftertouch_c, 10, 4
12, 40207, Channel_aftertouch_c, 10, 7
12, 40208, Channel_aftertouch_c, 10, 10
12, 40209, Channel_aftertouch_c, 10, 12
12, 40210, Channel_aftertouch_c, 10, 13
12, 40211, Channel_aftertouch_c, 10, 16
12, 40212, Channel_aftertouch_c, 10, 18
12, 40213, Channel_aftertouch_c, 10, 19
12, 40213, Channel_aftertouch_c, 10, 22
12, 40214, Channel_aftertouch_c, 10, 24
12, 40216, Channel_aftertouch_c, 10, 27
12, 40216, Channel_aftertouch_c, 10, 28
12, 40217, Channel_aftertouch_c, 10, 30
12, 40218, Channel_aftertouch_c, 10, 31
12, 40219, Channel_aftertouch_c, 10, 33
12, 40219, Channel_aftertouch_c, 10, 34
12, 40221, Channel_aftertouch_c, 10, 37
12, 40222, Channel_aftertouch_c, 10, 40
12, 40223, Channel_aftertouch_c, 10, 42
12, 40224, Channel_aftertouch_c, 10, 43
12, 40224, Channel_aftertouch_c, 10, 45
12, 40226, Channel_aftertouch_c, 10, 48
12, 40227, Channel_aftertouch_c, 10, 49
12, 40228, Channel_aftertouch_c, 10, 52
12, 40230, Channel_aftertouch_c, 10, 54
12, 40231, Channel_aftertouch_c, 10, 57
12, 40233, Channel_aftertouch_c, 10, 58
12, 40234, Channel_aftertouch_c, 10, 60
12, 40236, Channel_aftertouch_c, 10, 63
12, 40237, Channel_aftertouch_c, 10, 64
12, 40239, Channel_aftertouch_c, 10, 66
12, 40242, Channel_aftertouch_c, 10, 67
12, 40244, Channel_aftertouch_c, 10, 69
12, 40250, Channel_aftertouch_c, 10, 70
12, 40258, Channel_aftertouch_c, 10, 72
12, 40262, Channel_aftertouch_c, 10, 73
12, 40267, Channel_aftertouch_c, 10, 75
12, 40272, Channel_aftertouch_c, 10, 76
12, 40278, Channel_aftertouch_c, 10, 78
12, 40286, Channel_aftertouch_c, 10, 79
12, 40298, Channel_aftertouch_c, 10, 76
12, 40299, Channel_aftertouch_c, 10, 75
12, 40301, Channel_aftertouch_c, 10, 73
12, 40302, Channel_aftertouch_c, 10, 70
12, 40303, Channel_aftertouch_c, 10, 69
12, 40305, Channel_aftertouch_c, 10, 66
12, 40305, Channel_aftertouch_c, 10, 64
12, 40306, Channel_aftertouch_c, 10, 63
12, 40307, Channel_aftertouch_c, 10, 60
12, 40307, Channel_aftertouch_c, 10, 58
12, 40308, Channel_aftertouch_c, 10, 55
12, 40309, Channel_aftertouch_c, 10, 52
12, 40310, Channel_aftertouch_c, 10, 48
12, 40310, Channel_aftertouch_c, 10, 45
12, 40311, Channel_aftertouch_c, 10, 41
12, 40312, Channel_aftertouch_c, 10, 37
12, 40312, Channel_aftertouch_c, 10, 34
12, 40313, Channel_aftertouch_c, 10, 33
12, 40314, Channel_aftertouch_c, 10, 29
12, 40315, Channel_aftertouch_c, 10, 25
12, 40316, Channel_aftertouch_c, 10, 22
12, 40317, Channel_aftertouch_c, 10, 19
12, 40317, Channel_aftertouch_c, 10, 16
12, 40318, Channel_aftertouch_c, 10, 13
12, 40319, Channel_aftertouch_c, 10, 10
12, 40319, Channel_aftertouch_c, 10, 6
12, 40320, Channel_aftertouch_c, 10, 2
12, 40321, Channel_aftertouch_c, 10, 0
12, 40447, Channel_aftertouch_c, 10, 1
12, 40449, Channel_aftertouch_c, 10, 3
12, 40450, Channel_aftertouch_c, 10, 6
12, 40452, Channel_aftertouch_c, 10, 9
12, 40453, Channel_aftertouch_c, 10, 12
12, 40454, Channel_aftertouch_c, 10, 13
12, 40455, Channel_aftertouch_c, 10, 15
12, 40455, Channel_aftertouch_c, 10, 18
12, 40456, Channel_aftertouch_c, 10, 19
12, 40458, Channel_aftertouch_c, 10, 22
12, 40459, Channel_aftertouch_c, 10, 24
12, 40459, Channel_aftertouch_c, 10, 25
12, 40460, Channel_aftertouch_c, 10, 27
12, 40461, Channel_aftertouch_c, 10, 28
12, 40462, Channel_aftertouch_c, 10, 31
12, 40463, Channel_aftertouch_c, 10, 33
12, 40463, Channel_aftertouch_c, 10, 34
12, 40464, Channel_aftertouch_c, 10, 37
12, 40465, Channel_aftertouch_c, 10, 39
12, 40466, Channel_aftertouch_c, 10, 40
12, 40466, Channel_aftertouch_c, 10, 43
12, 40468, Channel_aftertouch_c, 10, 46
12, 40469, Channel_aftertouch_c, 10, 48
12, 40470, Channel_aftertouch_c, 10, 49
12, 40471, Channel_aftertouch_c, 10, 52
12, 40472, Channel_aftertouch_c, 10, 54
12, 40473, Channel_aftertouch_c, 10, 57
12, 40475, Channel_aftertouch_c, 10, 58
12, 40476, Channel_aftertouch_c, 10, 61
12, 40478, Channel_aftertouch_c, 10, 63
12, 40479, Channel_aftertouch_c, 10, 64
12, 40481, Channel_aftertouch_c, 10, 67
12, 40482, Channel_aftertouch_c, 10, 70
12, 40483, Channel_aftertouch_c, 10, 72
12, 40485, Channel_aftertouch_c, 10, 73
12, 40487, Channel_aftertouch_c, 10, 76
12, 40488, Channel_aftertouch_c, 10, 78
12, 40489, Channel_aftertouch_c, 10, 79
12, 40491, Channel_aftertouch_c, 10, 81
12, 40493, Channel_aftertouch_c, 10, 82
12, 40495, Channel_aftertouch_c, 10, 84
12, 40498, Channel_aftertouch_c, 10, 85
12, 40504, Channel_aftertouch_c, 10, 87
12, 40512, Channel_aftertouch_c, 10, 88
12, 40515, Channel_aftertouch_c, 10, 91
12, 40518, Channel_aftertouch_c, 10, 93
12, 40521, Channel_aftertouch_c, 10, 94
12, 40527, Channel_aftertouch_c, 10, 96
12, 40532, Channel_aftertouch_c, 10, 97
12, 40538, Channel_aftertouch_c, 10, 99
12, 40548, Channel_aftertouch_c, 10, 100
12, 40556, Channel_aftertouch_c, 10, 102
12, 40570, Channel_aftertouch_c, 10, 103
12, 40581, Channel_aftertouch_c, 10, 105
12, 40594, Channel_aftertouch_c, 10, 106
12, 40610, Channel_aftertouch_c, 10, 108
12, 40630, Channel_aftertouch_c, 10, 106
12, 40632, Channel_aftertouch_c, 10, 105
12, 40634, Channel_aftertouch_c, 10, 103
12, 40635, Channel_aftertouch_c, 10, 100
12, 40637, Channel_aftertouch_c, 10, 99
12, 40638, Channel_aftertouch_c, 10, 95
12, 40639, Channel_aftertouch_c, 10, 93
12, 40640, Channel_aftertouch_c, 10, 91
12, 40641, Channel_aftertouch_c, 10, 88
12, 40641, Channel_aftertouch_c, 10, 87
12, 40642, Channel_aftertouch_c, 10, 84
12, 40643, Channel_aftertouch_c, 10, 81
12, 40644, Channel_aftertouch_c, 10, 78
12, 40644, Channel_aftertouch_c, 10, 75
12, 40645, Channel_aftertouch_c, 10, 72
12, 40646, Channel_aftertouch_c, 10, 68
12, 40646, Channel_aftertouch_c, 10, 64
12, 40647, Channel_aftertouch_c, 10, 60
12, 40648, Channel_aftertouch_c, 10, 56
12, 40649, Channel_aftertouch_c, 10, 52
12, 40649, Channel_aftertouch_c, 10, 48
12, 40650, Channel_aftertouch_c, 10, 45
12, 40651, Channel_aftertouch_c, 10, 42
12, 40651, Channel_aftertouch_c, 10, 39
12, 40652, Channel_aftertouch_c, 10, 37
12, 40653, Channel_aftertouch_c, 10, 36
12, 40654, Channel_aftertouch_c, 10, 33
12, 40655, Channel_aftertouch_c, 10, 31
12, 40655, Channel_aftertouch_c, 10, 28
12, 40656, Channel_aftertouch_c, 10, 27
12, 40657, Channel_aftertouch_c, 10, 24
12, 40657, Channel_aftertouch_c, 10, 22
12, 40658, Channel_aftertouch_c, 10, 19
12, 40659, Channel_aftertouch_c, 10, 16
12, 40660, Channel_aftertouch_c, 10, 12
12, 40660, Channel_aftertouch_c, 10, 9
12, 40661, Channel_aftertouch_c, 10, 6
12, 40662, Channel_aftertouch_c, 10, 3
12, 40662, Channel_aftertouch_c, 10, 0
12, 40750, Note_on_c, 10, 74, 0
12, 40805, Note_on_c, 10, 76, 72
12, 40844, Channel_aftertouch_c, 10, 3
12, 40845, Channel_aftertouch_c, 10, 6
12, 40846, Channel_aftertouch_c, 10, 10
12, 40847, Channel_aftertouch_c, 10, 13
12, 40847, Channel_aftertouch_c, 10, 17
12, 40848, Channel_aftertouch_c, 10, 21
12, 40849, Channel_aftertouch_c, 10, 24
12, 40849, Channel_aftertouch_c, 10, 27
12, 40850, Channel_aftertouch_c, 10, 30
12, 40851, Channel_aftertouch_c, 10, 33
12, 40852, Channel_aftertouch_c, 10, 36
12, 40852, Channel_aftertouch_c, 10, 39
12, 40853, Channel_aftertouch_c, 10, 42
12, 40854, Channel_aftertouch_c, 10, 43
12, 40855, Channel_aftertouch_c, 10, 46
12, 40855, Channel_aftertouch_c, 10, 49
12, 40856, Channel_aftertouch_c, 10, 51
12, 40857, Channel_aftertouch_c, 10, 54
12, 40857, Channel_aftertouch_c, 10, 55
12, 40858, Channel_aftertouch_c, 10, 57
12, 40859, Channel_aftertouch_c, 10, 58
12, 40860, Channel_aftertouch_c, 10, 61
12, 40861, Channel_aftertouch_c, 10, 63
12, 40861, Channel_aftertouch_c, 10, 64
12, 40862, Channel_aftertouch_c, 10, 66
12, 40863, Channel_aftertouch_c, 10, 67
12, 40864, Channel_aftertouch_c, 10, 70
12, 40866, Channel_aftertouch_c, 10, 72
12, 40867, Channel_aftertouch_c, 10, 73
12, 40869, Channel_aftertouch_c, 10, 75
12, 40870, Channel_aftertouch_c, 10, 76
12, 40872, Channel_aftertouch_c, 10, 78
12, 40874, Channel_aftertouch_c, 10, 79
12, 40877, Channel_aftertouch_c, 10, 81
12, 40880, Channel_aftertouch_c, 10, 84
12, 40885, Channel_aftertouch_c, 10, 85
12, 40889, Channel_aftertouch_c, 10, 84
12, 40891, Channel_aftertouch_c, 10, 81
12, 40892, Channel_aftertouch_c, 10, 79
12, 40894, Channel_aftertouch_c, 10, 76
12, 40895, Channel_aftertouch_c, 10, 75
12, 40895, Channel_aftertouch_c, 10, 72
12, 40896, Channel_aftertouch_c, 10, 70
12, 40897, Channel_aftertouch_c, 10, 67
12, 40898, Channel_aftertouch_c, 10, 66
12, 40899, Channel_aftertouch_c, 10, 63
12, 40899, Channel_aftertouch_c, 10, 60
12, 40900, Channel_aftertouch_c, 10, 57
12, 40901, Channel_aftertouch_c, 10, 54
12, 40902, Channel_aftertouch_c, 10, 51
12, 40902, Channel_aftertouch_c, 10, 48
12, 40903, Channel_aftertouch_c, 10, 45
12, 40904, Channel_aftertouch_c, 10, 42
12, 40904, Channel_aftertouch_c, 10, 39
12, 40905, Channel_aftertouch_c, 10, 36
12, 40906, Channel_aftertouch_c, 10, 33
12, 40907, Channel_aftertouch_c, 10, 31
12, 40907, Channel_aftertouch_c, 10, 28
12, 40908, Channel_aftertouch_c, 10, 27
12, 40909, Channel_aftertouch_c, 10, 24
12, 40910, Channel_aftertouch_c, 10, 22
12, 40911, Channel_aftertouch_c, 10, 19
12, 40911, Channel_aftertouch_c, 10, 16
12, 40912, Channel_aftertouch_c, 10, 12
12, 40913, Channel_aftertouch_c, 10, 8
12, 40913, Channel_aftertouch_c, 10, 4
12, 40914, Channel_aftertouch_c, 10, 1
12, 40915, Channel_aftertouch_c, 10, 0
12, 40989, Note_on_c, 10, 77, 55
12, 40992, Note_on_c, 10, 76, 0
12, 41020, Note_on_c, 10, 76, 52
12, 41026, Note_on_c, 10, 77, 0
12, 41049, Note_on_c, 10, 76, 0
12, 41050, Note_on_c, 10, 74, 53
12, 41075, Note_on_c, 10, 76, 47
12, 41082, Note_on_c, 10, 74, 0
12, 41106, Note_on_c, 10, 74, 44
12, 41112, Note_on_c, 10, 76, 0
12, 41328, Channel_aftertouch_c, 10, 1
12, 41331, Channel_aftertouch_c, 10, 3
12, 41334, Channel_aftertouch_c, 10, 4
12, 41337, Channel_aftertouch_c, 10, 7
12, 41339, Channel_aftertouch_c, 10, 9
12, 41343, Channel_aftertouch_c, 10, 10
12, 41347, Channel_aftertouch_c, 10, 12
12, 41352, Channel_aftertouch_c, 10, 13
12, 41356, Channel_aftertouch_c, 10, 15
12, 41362, Channel_aftertouch_c, 10, 13
12, 41364, Channel_aftertouch_c, 10, 16
12, 41365, Channel_aftertouch_c, 10, 19
12, 41366, Channel_aftertouch_c, 10, 21
12, 41366, Channel_aftertouch_c, 10, 22
12, 41367, Channel_aftertouch_c, 10, 25
12, 41368, Channel_aftertouch_c, 10, 27
12, 41369, Channel_aftertouch_c, 10, 30
12, 41370, Channel_aftertouch_c, 10, 31
12, 41370, Channel_aftertouch_c, 10, 33
12, 41371, Channel_aftertouch_c, 10, 36
12, 41372, Channel_aftertouch_c, 10, 37
12, 41373, Channel_aftertouch_c, 10, 39
12, 41373, Channel_aftertouch_c, 10, 42
12, 41374, Channel_aftertouch_c, 10, 43
12, 41375, Channel_aftertouch_c, 10, 45
12, 41376, Channel_aftertouch_c, 10, 48
12, 41378, Channel_aftertouch_c, 10, 49
12, 41379, Channel_aftertouch_c, 10, 52
12, 41381, Channel_aftertouch_c, 10, 55
12, 41382, Channel_aftertouch_c, 10, 57
12, 41383, Channel_aftertouch_c, 10, 60
12, 41385, Channel_aftertouch_c, 10, 61
12, 41387, Channel_aftertouch_c, 10, 63
12, 41390, Channel_aftertouch_c, 10, 64
12, 41392, Channel_aftertouch_c, 10, 66
12, 41393, Channel_aftertouch_c, 10, 67
12, 41395, Channel_aftertouch_c, 10, 70
12, 41396, Channel_aftertouch_c, 10, 73
12, 41397, Channel_aftertouch_c, 10, 75
12, 41399, Channel_aftertouch_c, 10, 76
12, 41400, Channel_aftertouch_c, 10, 78
12, 41403, Channel_aftertouch_c, 10, 79
12, 41405, Channel_aftertouch_c, 10, 81
12, 41407, Channel_aftertouch_c, 10, 84
12, 41410, Channel_aftertouch_c, 10, 85
12, 41414, Channel_aftertouch_c, 10, 87
12, 41419, Channel_aftertouch_c, 10, 88
12, 41424, Channel_aftertouch_c, 10, 90
12, 41427, Channel_aftertouch_c, 10, 91
12, 41435, Channel_aftertouch_c, 10, 93
12, 41445, Channel_aftertouch_c, 10, 94
12, 41448, Channel_aftertouch_c, 10, 93
12, 41451, Channel_aftertouch_c, 10, 91
12, 41453, Channel_aftertouch_c, 10, 90
12, 41456, Channel_aftertouch_c, 10, 88
12, 41460, Channel_aftertouch_c, 10, 90
12, 41464, Channel_aftertouch_c, 10, 91
12, 41466, Channel_aftertouch_c, 10, 90
12, 41467, Channel_aftertouch_c, 10, 88
12, 41470, Channel_aftertouch_c, 10, 87
12, 41471, Channel_aftertouch_c, 10, 85
12, 41489, Channel_aftertouch_c, 10, 82
12, 41490, Channel_aftertouch_c, 10, 81
12, 41491, Channel_aftertouch_c, 10, 79
12, 41491, Channel_aftertouch_c, 10, 78
12, 41492, Channel_aftertouch_c, 10, 76
12, 41493, Channel_aftertouch_c, 10, 73
12, 41494, Channel_aftertouch_c, 10, 70
12, 41494, Channel_aftertouch_c, 10, 67
12, 41495, Channel_aftertouch_c, 10, 63
12, 41496, Channel_aftertouch_c, 10, 59
12, 41496, Channel_aftertouch_c, 10, 55
12, 41497, Channel_aftertouch_c, 10, 51
12, 41498, Channel_aftertouch_c, 10, 47
12, 41499, Channel_aftertouch_c, 10, 43
12, 41499, Channel_aftertouch_c, 10, 39
12, 41500, Channel_aftertouch_c, 10, 37
12, 41501, Channel_aftertouch_c, 10, 40
12, 41502, Channel_aftertouch_c, 10, 42
12, 41503, Channel_aftertouch_c, 10, 43
12, 41505, Channel_aftertouch_c, 10, 40
12, 41505, Channel_aftertouch_c, 10, 37
12, 41506, Channel_aftertouch_c, 10, 33
12, 41507, Channel_aftertouch_c, 10, 29
12, 41507, Channel_aftertouch_c, 10, 25
12, 41508, Channel_aftertouch_c, 10, 21
12, 41509, Channel_aftertouch_c, 10, 17
12, 41510, Channel_aftertouch_c, 10, 13
12, 41510, Channel_aftertouch_c, 10, 9
12, 41511, Channel_aftertouch_c, 10, 5
12, 41512, Channel_aftertouch_c, 10, 1
12, 41513, Channel_aftertouch_c, 10, 5
12, 41513, Channel_aftertouch_c, 10, 9
12, 41514, Channel_aftertouch_c, 10, 13
12, 41515, Channel_aftertouch_c, 10, 16
12, 41516, Channel_aftertouch_c, 10, 19
12, 41516, Channel_aftertouch_c, 10, 22
12, 41517, Channel_aftertouch_c, 10, 25
12, 41518, Channel_aftertouch_c, 10, 27
12, 41521, Channel_aftertouch_c, 10, 24
12, 41522, Channel_aftertouch_c, 10, 22
12, 41523, Channel_aftertouch_c, 10, 19
12, 41524, Channel_aftertouch_c, 10, 16
12, 41524, Channel_aftertouch_c, 10, 13
12, 41525, Channel_aftertouch_c, 10, 9
12, 41526, Channel_aftertouch_c, 10, 5
12, 41527, Channel_aftertouch_c, 10, 1
12, 41527, Channel_aftertouch_c, 10, 0
12, 41588, Channel_aftertouch_c, 10, 3
12, 41589, Channel_aftertouch_c, 10, 7
12, 41590, Channel_aftertouch_c, 10, 11
12, 41591, Channel_aftertouch_c, 10, 15
12, 41591, Channel_aftertouch_c, 10, 19
12, 41592, Channel_aftertouch_c, 10, 23
12, 41593, Channel_aftertouch_c, 10, 27
12, 41594, Channel_aftertouch_c, 10, 31
12, 41594, Channel_aftertouch_c, 10, 35
12, 41595, Channel_aftertouch_c, 10, 39
12, 41596, Channel_aftertouch_c, 10, 43
12, 41597, Channel_aftertouch_c, 10, 47
12, 41597, Channel_aftertouch_c, 10, 51
12, 41598, Channel_aftertouch_c, 10, 54
12, 41599, Channel_aftertouch_c, 10, 55
12, 41600, Channel_aftertouch_c, 10, 58
12, 41602, Channel_aftertouch_c, 10, 61
12, 41603, Channel_aftertouch_c, 10, 63
12, 41604, Channel_aftertouch_c, 10, 64
12, 41606, Channel_aftertouch_c, 10, 66
12, 41607, Channel_aftertouch_c, 10, 67
12, 41609, Channel_aftertouch_c, 10, 70
12, 41610, Channel_aftertouch_c, 10, 72
12, 41613, Channel_aftertouch_c, 10, 73
12, 41615, Channel_aftertouch_c, 10, 75
12, 41618, Channel_aftertouch_c, 10, 76
12, 41621, Channel_aftertouch_c, 10, 78
12, 41624, Channel_aftertouch_c, 10, 81
12, 41626, Channel_aftertouch_c, 10, 82
12, 41629, Channel_aftertouch_c, 10, 84
12, 41631, Channel_aftertouch_c, 10, 85
12, 41634, Channel_aftertouch_c, 10, 87
12, 41641, Channel_aftertouch_c, 10, 88
12, 41644, Channel_aftertouch_c, 10, 87
12, 41646, Channel_aftertouch_c, 10, 84
12, 41646, Channel_aftertouch_c, 10, 82
12, 41647, Channel_aftertouch_c, 10, 79
12, 41648, Channel_aftertouch_c, 10, 78
12, 41649, Channel_aftertouch_c, 10, 76
12, 41650, Channel_aftertouch_c, 10, 75
12, 41652, Channel_aftertouch_c, 10, 73
12, 41655, Channel_aftertouch_c, 10, 75
12, 41656, Channel_aftertouch_c, 10, 78
12, 41660, Channel_aftertouch_c, 10, 76
12, 41661, Channel_aftertouch_c, 10, 75
12, 41661, Channel_aftertouch_c, 10, 72
12, 41662, Channel_aftertouch_c, 10, 68
12, 41663, Channel_aftertouch_c, 10, 64
12, 41664, Channel_aftertouch_c, 10, 60
12, 41664, Channel_aftertouch_c, 10, 56
12, 41665, Channel_aftertouch_c, 10, 52
12, 41666, Channel_aftertouch_c, 10, 48
12, 41667, Channel_aftertouch_c, 10, 44
12, 41667, Channel_aftertouch_c, 10, 40
12, 41668, Channel_aftertouch_c, 10, 36
12, 41669, Channel_aftertouch_c, 10, 32
12, 41669, Channel_aftertouch_c, 10, 28
12, 41670, Channel_aftertouch_c, 10, 24
12, 41671, Channel_aftertouch_c, 10, 20
12, 41672, Channel_aftertouch_c, 10, 16
12, 41672, Channel_aftertouch_c, 10, 12
12, 41673, Channel_aftertouch_c, 10, 8
12, 41674, Channel_aftertouch_c, 10, 4
12, 41675, Channel_aftertouch_c, 10, 0
12, 41709, Note_on_c, 10, 74, 0
12, 41763, Note_on_c, 10, 76, 63
12, 41888, Channel_aftertouch_c, 10, 4
12, 41889, Channel_aftertouch_c, 10, 8
12, 41890, Channel_aftertouch_c, 10, 12
12, 41891, Channel_aftertouch_c, 10, 16
12, 41891, Channel_aftertouch_c, 10, 20
12, 41892, Channel_aftertouch_c, 10, 24
12, 41893, Channel_aftertouch_c, 10, 28
12, 41894, Channel_aftertouch_c, 10, 32
12, 41894, Channel_aftertouch_c, 10, 36
12, 41895, Channel_aftertouch_c, 10, 40
12, 41896, Channel_aftertouch_c, 10, 44
12, 41897, Channel_aftertouch_c, 10, 48
12, 41897, Channel_aftertouch_c, 10, 51
12, 41898, Channel_aftertouch_c, 10, 52
12, 41899, Channel_aftertouch_c, 10, 55
12, 41900, Channel_aftertouch_c, 10, 57
12, 41901, Channel_aftertouch_c, 10, 60
12, 41902, Channel_aftertouch_c, 10, 61
12, 41904, Channel_aftertouch_c, 10, 63
12, 41906, Channel_aftertouch_c, 10, 66
12, 41908, Channel_aftertouch_c, 10, 67
12, 41910, Channel_aftertouch_c, 10, 69
12, 41912, Channel_aftertouch_c, 10, 70
12, 41915, Channel_aftertouch_c, 10, 72
12, 41917, Channel_aftertouch_c, 10, 75
12, 41920, Channel_aftertouch_c, 10, 76
12, 41925, Channel_aftertouch_c, 10, 78
12, 41938, Channel_aftertouch_c, 10, 76
12, 41940, Channel_aftertouch_c, 10, 75
12, 41941, Channel_aftertouch_c, 10, 73
12, 41942, Channel_aftertouch_c, 10, 72
12, 41943, Channel_aftertouch_c, 10, 70
12, 41944, Channel_aftertouch_c, 10, 69
12, 41944, Channel_aftertouch_c, 10, 66
12, 41945, Channel_aftertouch_c, 10, 64
12, 41946, Channel_aftertouch_c, 10, 61
12, 41947, Channel_aftertouch_c, 10, 60
12, 41948, Channel_aftertouch_c, 10, 57
12, 41948, Channel_aftertouch_c, 10, 54
12, 41949, Channel_aftertouch_c, 10, 51
12, 41950, Channel_aftertouch_c, 10, 48
12, 41950, Channel_aftertouch_c, 10, 45
12, 41951, Channel_aftertouch_c, 10, 42
12, 41952, Channel_aftertouch_c, 10, 39
12, 41953, Channel_aftertouch_c, 10, 36
12, 41953, Channel_aftertouch_c, 10, 33
12, 41954, Channel_aftertouch_c, 10, 31
12, 41955, Channel_aftertouch_c, 10, 28
12, 41955, Channel_aftertouch_c, 10, 25
12, 41956, Channel_aftertouch_c, 10, 22
12, 41957, Channel_aftertouch_c, 10, 18
12, 41958, Channel_aftertouch_c, 10, 15
12, 41958, Channel_aftertouch_c, 10, 12
12, 41959, Channel_aftertouch_c, 10, 8
12, 41960, Channel_aftertouch_c, 10, 4
12, 41961, Channel_aftertouch_c, 10, 0
12, 42001, Note_on_c, 10, 76, 0
12, 42001, Note_on_c, 10, 77, 59
12, 42224, Note_on_c, 10, 76, 55
12, 42231, Note_on_c, 10, 77, 0
12, 42486, Note_on_c, 10, 72, 58
12, 42492, Note_on_c, 10, 76, 0
12, 42720, Note_on_c, 10, 72, 0
12, 42723, Note_on_c, 10, 62, 69
12, 42797, Note_on_c, 10, 62, 0
12, 42819, Note_on_c, 10, 62, 59
12, 42842, Note_on_c, 10, 65, 60
12, 42844, Note_on_c, 10, 62, 0
12, 42907, Note_on_c, 10, 67, 67
12, 42912, Note_on_c, 10, 65, 0
12, 42995, Channel_aftertouch_c, 10, 1
12, 42996, Channel_aftertouch_c, 10, 3
12, 42997, Channel_aftertouch_c, 10, 4
12, 43002, Channel_aftertouch_c, 10, 1
12, 43003, Channel_aftertouch_c, 10, 0
12, 43038, Channel_aftertouch_c, 10, 1
12, 43039, Channel_aftertouch_c, 10, 0
12, 43076, Channel_aftertouch_c, 10, 1
12, 43077, Channel_aftertouch_c, 10, 3
12, 43079, Channel_aftertouch_c, 10, 6
12, 43079, Channel_aftertouch_c, 10, 7
12, 43080, Channel_aftertouch_c, 10, 9
12, 43081, Channel_aftertouch_c, 10, 10
12, 43082, Channel_aftertouch_c, 10, 12
12, 43083, Channel_aftertouch_c, 10, 15
12, 43084, Channel_aftertouch_c, 10, 18
12, 43086, Channel_aftertouch_c, 10, 19
12, 43087, Channel_aftertouch_c, 10, 21
12, 43089, Channel_aftertouch_c, 10, 22
12, 43092, Channel_aftertouch_c, 10, 24
12, 43096, Channel_aftertouch_c, 10, 27
12, 43099, Channel_aftertouch_c, 10, 28
12, 43101, Channel_aftertouch_c, 10, 30
12, 43104, Channel_aftertouch_c, 10, 31
12, 43107, Channel_aftertouch_c, 10, 33
12, 43109, Channel_aftertouch_c, 10, 34
12, 43112, Channel_aftertouch_c, 10, 36
12, 43118, Channel_aftertouch_c, 10, 34
12, 43120, Channel_aftertouch_c, 10, 31
12, 43121, Channel_aftertouch_c, 10, 30
12, 43122, Channel_aftertouch_c, 10, 27
12, 43122, Channel_aftertouch_c, 10, 23
12, 43123, Channel_aftertouch_c, 10, 19
12, 43124, Channel_aftertouch_c, 10, 16
12, 43125, Channel_aftertouch_c, 10, 15
12, 43130, Channel_aftertouch_c, 10, 13
12, 43131, Channel_aftertouch_c, 10, 12
12, 43132, Channel_aftertouch_c, 10, 10
12, 43132, Channel_aftertouch_c, 10, 9
12, 43134, Channel_aftertouch_c, 10, 6
12, 43135, Channel_aftertouch_c, 10, 4
12, 43136, Channel_aftertouch_c, 10, 1
12, 43138, Channel_aftertouch_c, 10, 0
12, 43196, Note_on_c, 10, 67, 0
12, 43202, Note_on_c, 10, 62, 65
12, 43281, Note_on_c, 10, 62, 0
12, 43297, Note_on_c, 10, 62, 62
12, 43321, Note_on_c, 10, 65, 60
12, 43322, Note_on_c, 10, 62, 0
12, 43382, Note_on_c, 10, 67, 65
12, 43385, Note_on_c, 10, 65, 0
12, 43526, Channel_aftertouch_c, 10, 1
12, 43528, Channel_aftertouch_c, 10, 4
12, 43529, Channel_aftertouch_c, 10, 6
12, 43531, Channel_aftertouch_c, 10, 7
12, 43532, Channel_aftertouch_c, 10, 9
12, 43534, Channel_aftertouch_c, 10, 12
12, 43536, Channel_aftertouch_c, 10, 13
12, 43537, Channel_aftertouch_c, 10, 15
12, 43539, Channel_aftertouch_c, 10, 16
12, 43541, Channel_aftertouch_c, 10, 19
12, 43542, Channel_aftertouch_c, 10, 21
12, 43544, Channel_aftertouch_c, 10, 22
12, 43545, Channel_aftertouch_c, 10, 25
12, 43547, Channel_aftertouch_c, 10, 27
12, 43548, Channel_aftertouch_c, 10, 30
12, 43550, Channel_aftertouch_c, 10, 31
12, 43552, Channel_aftertouch_c, 10, 33
12, 43554, Channel_aftertouch_c, 10, 36
12, 43556, Channel_aftertouch_c, 10, 37
12, 43558, Channel_aftertouch_c, 10, 39
12, 43560, Channel_aftertouch_c, 10, 40
12, 43563, Channel_aftertouch_c, 10, 42
12, 43565, Channel_aftertouch_c, 10, 43
12, 43567, Channel_aftertouch_c, 10, 46
12, 43569, Channel_aftertouch_c, 10, 48
12, 43571, Channel_aftertouch_c, 10, 49
12, 43574, Channel_aftertouch_c, 10, 51
12, 43577, Channel_aftertouch_c, 10, 49
12, 43579, Channel_aftertouch_c, 10, 45
12, 43579, Channel_aftertouch_c, 10, 41
12, 43580, Channel_aftertouch_c, 10, 37
12, 43581, Channel_aftertouch_c, 10, 33
12, 43582, Channel_aftertouch_c, 10, 29
12, 43582, Channel_aftertouch_c, 10, 25
12, 43583, Channel_aftertouch_c, 10, 21
12, 43584, Channel_aftertouch_c, 10, 17
12, 43584, Channel_aftertouch_c, 10, 13
12, 43585, Channel_aftertouch_c, 10, 9
12, 43586, Channel_aftertouch_c, 10, 5
12, 43587, Channel_aftertouch_c, 10, 1
12, 43587, Channel_aftertouch_c, 10, 0
12, 43661, Note_on_c, 10, 67, 0
12, 43675, Note_on_c, 10, 62, 72
12, 43743, Note_on_c, 10, 62, 0
12, 43769, Note_on_c, 10, 62, 58
12, 43796, Note_on_c, 10, 62, 0
12, 43798, Note_on_c, 10, 65, 53
12, 43862, Note_on_c, 10, 67, 58
12, 43864, Note_on_c, 10, 65, 0
12, 44029, Channel_aftertouch_c, 10, 3
12, 44030, Channel_aftertouch_c, 10, 4
12, 44031, Channel_aftertouch_c, 10, 7
12, 44031, Channel_aftertouch_c, 10, 9
12, 44032, Channel_aftertouch_c, 10, 12
12, 44033, Channel_aftertouch_c, 10, 13
12, 44033, Channel_aftertouch_c, 10, 16
12, 44034, Channel_aftertouch_c, 10, 18
12, 44035, Channel_aftertouch_c, 10, 21
12, 44036, Channel_aftertouch_c, 10, 22
12, 44036, Channel_aftertouch_c, 10, 25
12, 44037, Channel_aftertouch_c, 10, 27
12, 44038, Channel_aftertouch_c, 10, 30
12, 44039, Channel_aftertouch_c, 10, 33
12, 44040, Channel_aftertouch_c, 10, 34
12, 44040, Channel_aftertouch_c, 10, 37
12, 44041, Channel_aftertouch_c, 10, 40
12, 44042, Channel_aftertouch_c, 10, 42
12, 44042, Channel_aftertouch_c, 10, 45
12, 44043, Channel_aftertouch_c, 10, 46
12, 44044, Channel_aftertouch_c, 10, 48
12, 44045, Channel_aftertouch_c, 10, 49
12, 44046, Channel_aftertouch_c, 10, 52
12, 44047, Channel_aftertouch_c, 10, 54
12, 44048, Channel_aftertouch_c, 10, 55
12, 44050, Channel_aftertouch_c, 10, 57
12, 44051, Channel_aftertouch_c, 10, 58
12, 44053, Channel_aftertouch_c, 10, 61
12, 44055, Channel_aftertouch_c, 10, 63
12, 44057, Channel_aftertouch_c, 10, 64
12, 44059, Channel_aftertouch_c, 10, 66
12, 44062, Channel_aftertouch_c, 10, 67
12, 44065, Channel_aftertouch_c, 10, 70
12, 44067, Channel_aftertouch_c, 10, 72
12, 44069, Channel_aftertouch_c, 10, 73
12, 44074, Channel_aftertouch_c, 10, 75
12, 44080, Channel_aftertouch_c, 10, 76
12, 44092, Channel_aftertouch_c, 10, 75
12, 44094, Channel_aftertouch_c, 10, 73
12, 44096, Channel_aftertouch_c, 10, 72
12, 44097, Channel_aftertouch_c, 10, 70
12, 44099, Channel_aftertouch_c, 10, 67
12, 44100, Channel_aftertouch_c, 10, 64
12, 44100, Channel_aftertouch_c, 10, 60
12, 44101, Channel_aftertouch_c, 10, 56
12, 44102, Channel_aftertouch_c, 10, 52
12, 44102, Channel_aftertouch_c, 10, 48
12, 44103, Channel_aftertouch_c, 10, 44
12, 44103, Channel_aftertouch_c, 10, 40
12, 44105, Channel_aftertouch_c, 10, 36
12, 44106, Channel_aftertouch_c, 10, 32
12, 44106, Channel_aftertouch_c, 10, 28
12, 44107, Channel_aftertouch_c, 10, 24
12, 44108, Channel_aftertouch_c, 10, 20
12, 44109, Channel_aftertouch_c, 10, 16
12, 44109, Channel_aftertouch_c, 10, 12
12, 44110, Channel_aftertouch_c, 10, 8
12, 44111, Channel_aftertouch_c, 10, 4
12, 44112, Channel_aftertouch_c, 10, 0
12, 44142, Note_on_c, 10, 67, 0
12, 44157, Note_on_c, 10, 62, 72
12, 44223, Note_on_c, 10, 62, 0
12, 44247, Note_on_c, 10, 62, 59
12, 44272, Note_on_c, 10, 65, 58
12, 44274, Note_on_c, 10, 62, 0
12, 44334, Note_on_c, 10, 67, 60
12, 44339, Note_on_c, 10, 65, 0
12, 44459, Channel_aftertouch_c, 10, 1
12, 44459, Channel_aftertouch_c, 10, 4
12, 44460, Channel_aftertouch_c, 10, 7
12, 44461, Channel_aftertouch_c, 10, 9
12, 44462, Channel_aftertouch_c, 10, 12
12, 44463, Channel_aftertouch_c, 10, 15
12, 44464, Channel_aftertouch_c, 10, 16
12, 44464, Channel_aftertouch_c, 10, 19
12, 44465, Channel_aftertouch_c, 10, 21
12, 44466, Channel_aftertouch_c, 10, 24
12, 44466, Channel_aftertouch_c, 10, 25
12, 44467, Channel_aftertouch_c, 10, 28
12, 44468, Channel_aftertouch_c, 10, 30
12, 44468, Channel_aftertouch_c, 10, 33
12, 44469, Channel_aftertouch_c, 10, 34
12, 44470, Channel_aftertouch_c, 10, 36
12, 44471, Channel_aftertouch_c, 10, 37
12, 44472, Channel_aftertouch_c, 10, 40
12, 44473, Channel_aftertouch_c, 10, 43
12, 44475, Channel_aftertouch_c, 10, 45
12, 44476, Channel_aftertouch_c, 10, 46
12, 44479, Channel_aftertouch_c, 10, 48
12, 44484, Channel_aftertouch_c, 10, 49
12, 44489, Channel_aftertouch_c, 10, 51
12, 44491, Channel_aftertouch_c, 10, 52
12, 44495, Channel_aftertouch_c, 10, 51
12, 44497, Channel_aftertouch_c, 10, 48
12, 44497, Channel_aftertouch_c, 10, 46
12, 44498, Channel_aftertouch_c, 10, 43
12, 44499, Channel_aftertouch_c, 10, 42
12, 44499, Channel_aftertouch_c, 10, 38
12, 44500, Channel_aftertouch_c, 10, 34
12, 44501, Channel_aftertouch_c, 10, 30
12, 44502, Channel_aftertouch_c, 10, 26
12, 44502, Channel_aftertouch_c, 10, 22
12, 44503, Channel_aftertouch_c, 10, 18
12, 44504, Channel_aftertouch_c, 10, 14
12, 44505, Channel_aftertouch_c, 10, 10
12, 44505, Channel_aftertouch_c, 10, 6
12, 44506, Channel_aftertouch_c, 10, 2
12, 44507, Channel_aftertouch_c, 10, 0
12, 44614, Note_on_c, 10, 69, 29
12, 44617, Note_on_c, 10, 67, 0
12, 44645, Note_on_c, 10, 74, 27
12, 44648, Note_on_c, 10, 69, 0
12, 44873, Channel_aftertouch_c, 10, 1
12, 44874, Channel_aftertouch_c, 10, 3
12, 44874, Channel_aftertouch_c, 10, 6
12, 44875, Channel_aftertouch_c, 10, 7
12, 44876, Channel_aftertouch_c, 10, 10
12, 44876, Channel_aftertouch_c, 10, 12
12, 44877, Channel_aftertouch_c, 10, 15
12, 44878, Channel_aftertouch_c, 10, 16
12, 44879, Channel_aftertouch_c, 10, 19
12, 44879, Channel_aftertouch_c, 10, 21
12, 44880, Channel_aftertouch_c, 10, 24
12, 44881, Channel_aftertouch_c, 10, 25
12, 44881, Channel_aftertouch_c, 10, 28
12, 44882, Channel_aftertouch_c, 10, 30
12, 44883, Channel_aftertouch_c, 10, 33
12, 44884, Channel_aftertouch_c, 10, 34
12, 44884, Channel_aftertouch_c, 10, 37
12, 44885, Channel_aftertouch_c, 10, 40
12, 44886, Channel_aftertouch_c, 10, 42
12, 44887, Channel_aftertouch_c, 10, 45
12, 44888, Channel_aftertouch_c, 10, 46
12, 44888, Channel_aftertouch_c, 10, 48
12, 44889, Channel_aftertouch_c, 10, 51
12, 44890, Channel_aftertouch_c, 10, 52
12, 44891, Channel_aftertouch_c, 10, 54
12, 44893, Channel_aftertouch_c, 10, 57
12, 44894, Channel_aftertouch_c, 10, 58
12, 44897, Channel_aftertouch_c, 10, 61
12, 44900, Channel_aftertouch_c, 10, 63
12, 44903, Channel_aftertouch_c, 10, 64
12, 44907, Channel_aftertouch_c, 10, 66
12, 44912, Channel_aftertouch_c, 10, 67
12, 44917, Channel_aftertouch_c, 10, 69
12, 44923, Channel_aftertouch_c, 10, 70
12, 44928, Channel_aftertouch_c, 10, 72
12, 44933, Channel_aftertouch_c, 10, 73
12, 44950, Channel_aftertouch_c, 10, 75
12, 44960, Channel_aftertouch_c, 10, 73
12, 44964, Channel_aftertouch_c, 10, 72
12, 44967, Channel_aftertouch_c, 10, 70
12, 44970, Channel_aftertouch_c, 10, 69
12, 44973, Channel_aftertouch_c, 10, 67
12, 44975, Channel_aftertouch_c, 10, 66
12, 44976, Channel_aftertouch_c, 10, 63
12, 44979, Channel_aftertouch_c, 10, 61
12, 44979, Channel_aftertouch_c, 10, 60
12, 44980, Channel_aftertouch_c, 10, 58
12, 44982, Channel_aftertouch_c, 10, 55
12, 44983, Channel_aftertouch_c, 10, 52
12, 44988, Channel_aftertouch_c, 10, 54
12, 44997, Channel_aftertouch_c, 10, 51
12, 44998, Channel_aftertouch_c, 10, 49
12, 45001, Channel_aftertouch_c, 10, 48
12, 45003, Channel_aftertouch_c, 10, 46
12, 45004, Channel_aftertouch_c, 10, 43
12, 45006, Channel_aftertouch_c, 10, 40
12, 45007, Channel_aftertouch_c, 10, 39
12, 45007, Channel_aftertouch_c, 10, 37
12, 45008, Channel_aftertouch_c, 10, 34
12, 45009, Channel_aftertouch_c, 10, 31
12, 45010, Channel_aftertouch_c, 10, 28
12, 45010, Channel_aftertouch_c, 10, 25
12, 45011, Channel_aftertouch_c, 10, 22
12, 45012, Channel_aftertouch_c, 10, 21
12, 45012, Channel_aftertouch_c, 10, 18
12, 45013, Channel_aftertouch_c, 10, 15
12, 45014, Channel_aftertouch_c, 10, 12
12, 45014, Channel_aftertouch_c, 10, 10
12, 45015, Channel_aftertouch_c, 10, 7
12, 45016, Channel_aftertouch_c, 10, 4
12, 45017, Channel_aftertouch_c, 10, 3
12, 45017, Channel_aftertouch_c, 10, 0
12, 45275, Pitch_bend_c, 10, 8064
12, 45279, Pitch_bend_c, 10, 7936
12, 45290, Pitch_bend_c, 10, 7808
12, 45297, Pitch_bend_c, 10, 7680
12, 45306, Pitch_bend_c, 10, 7552
12, 45315, Pitch_bend_c, 10, 7424
12, 45321, Pitch_bend_c, 10, 7296
12, 45327, Pitch_bend_c, 10, 7168
12, 45332, Pitch_bend_c, 10, 7040
12, 45339, Pitch_bend_c, 10, 6912
12, 45351, Pitch_bend_c, 10, 6784
12, 45361, Pitch_bend_c, 10, 6656
12, 45370, Pitch_bend_c, 10, 6400
12, 45378, Pitch_bend_c, 10, 6272
12, 45383, Pitch_bend_c, 10, 6144
12, 45388, Pitch_bend_c, 10, 6016
12, 45394, Pitch_bend_c, 10, 5888
12, 45396, Pitch_bend_c, 10, 5760
12, 45402, Pitch_bend_c, 10, 5632
12, 45409, Pitch_bend_c, 10, 5504
12, 45422, Channel_aftertouch_c, 10, 3
12, 45423, Pitch_bend_c, 10, 5376
12, 45424, Channel_aftertouch_c, 10, 4
12, 45425, Channel_aftertouch_c, 10, 7
12, 45427, Channel_aftertouch_c, 10, 9
12, 45428, Channel_aftertouch_c, 10, 10
12, 45430, Channel_aftertouch_c, 10, 13
12, 45431, Channel_aftertouch_c, 10, 15
12, 45433, Channel_aftertouch_c, 10, 16
12, 45434, Channel_aftertouch_c, 10, 19
12, 45435, Pitch_bend_c, 10, 5120
12, 45436, Channel_aftertouch_c, 10, 21
12, 45438, Channel_aftertouch_c, 10, 22
12, 45440, Channel_aftertouch_c, 10, 24
12, 45441, Pitch_bend_c, 10, 4992
12, 45443, Channel_aftertouch_c, 10, 27
12, 45445, Channel_aftertouch_c, 10, 28
12, 45446, Pitch_bend_c, 10, 4864
12, 45447, Channel_aftertouch_c, 10, 30
12, 45450, Channel_aftertouch_c, 10, 31
12, 45451, Pitch_bend_c, 10, 4736
12, 45453, Channel_aftertouch_c, 10, 33
12, 45454, Pitch_bend_c, 10, 4608
12, 45457, Channel_aftertouch_c, 10, 34
12, 45459, Pitch_bend_c, 10, 4480
12, 45462, Channel_aftertouch_c, 10, 36
12, 45463, Pitch_bend_c, 10, 4352
12, 45470, Pitch_bend_c, 10, 4224
12, 45472, Channel_aftertouch_c, 10, 37
12, 45477, Pitch_bend_c, 10, 4096
12, 45483, Pitch_bend_c, 10, 3968
12, 45489, Pitch_bend_c, 10, 3712
12, 45495, Pitch_bend_c, 10, 3584
12, 45500, Pitch_bend_c, 10, 3456
12, 45504, Pitch_bend_c, 10, 3328
12, 45508, Pitch_bend_c, 10, 3200
12, 45508, Channel_aftertouch_c, 10, 36
12, 45510, Channel_aftertouch_c, 10, 33
12, 45511, Channel_aftertouch_c, 10, 31
12, 45511, Pitch_bend_c, 10, 3072
12, 45513, Channel_aftertouch_c, 10, 30
12, 45514, Channel_aftertouch_c, 10, 27
12, 45515, Channel_aftertouch_c, 10, 25
12, 45516, Pitch_bend_c, 10, 2944
12, 45523, Pitch_bend_c, 10, 2816
12, 45527, Pitch_bend_c, 10, 2688
12, 45529, Channel_aftertouch_c, 10, 27
12, 45530, Pitch_bend_c, 10, 2560
12, 45531, Channel_aftertouch_c, 10, 30
12, 45532, Channel_aftertouch_c, 10, 31
12, 45534, Channel_aftertouch_c, 10, 33
12, 45534, Pitch_bend_c, 10, 2432
12, 45535, Channel_aftertouch_c, 10, 34
12, 45537, Channel_aftertouch_c, 10, 36
12, 45539, Pitch_bend_c, 10, 2304
12, 45543, Channel_aftertouch_c, 10, 37
12, 45545, Pitch_bend_c, 10, 2176
12, 45546, Channel_aftertouch_c, 10, 39
12, 45550, Pitch_bend_c, 10, 2048
12, 45553, Channel_aftertouch_c, 10, 36
12, 45553, Channel_aftertouch_c, 10, 34
12, 45554, Channel_aftertouch_c, 10, 31
12, 45555, Channel_aftertouch_c, 10, 28
12, 45555, Pitch_bend_c, 10, 1920
12, 45555, Channel_aftertouch_c, 10, 25
12, 45556, Channel_aftertouch_c, 10, 22
12, 45557, Channel_aftertouch_c, 10, 19
12, 45558, Channel_aftertouch_c, 10, 16
12, 45559, Channel_aftertouch_c, 10, 12
12, 45559, Channel_aftertouch_c, 10, 8
12, 45560, Channel_aftertouch_c, 10, 4
12, 45561, Channel_aftertouch_c, 10, 0
12, 45561, Pitch_bend_c, 10, 1664
12, 45565, Pitch_bend_c, 10, 1536
12, 45569, Pitch_bend_c, 10, 1408
12, 45573, Pitch_bend_c, 10, 1280
12, 45577, Pitch_bend_c, 10, 1152
12, 45581, Pitch_bend_c, 10, 1024
12, 45584, Pitch_bend_c, 10, 896
12, 45588, Pitch_bend_c, 10, 768
12, 45593, Pitch_bend_c, 10, 640
12, 45601, Pitch_bend_c, 10, 512
12, 45610, Pitch_bend_c, 10, 384
12, 45624, Pitch_bend_c, 10, 256
12, 45629, Pitch_bend_c, 10, 128
12, 45632, Pitch_bend_c, 10, 0
12, 45755, Channel_aftertouch_c, 10, 1
12, 45756, Channel_aftertouch_c, 10, 3
12, 45757, Channel_aftertouch_c, 10, 4
12, 45758, Channel_aftertouch_c, 10, 7
12, 45758, Channel_aftertouch_c, 10, 9
12, 45759, Channel_aftertouch_c, 10, 12
12, 45760, Channel_aftertouch_c, 10, 15
12, 45760, Channel_aftertouch_c, 10, 16
12, 45761, Channel_aftertouch_c, 10, 19
12, 45762, Channel_aftertouch_c, 10, 22
12, 45763, Channel_aftertouch_c, 10, 24
12, 45763, Channel_aftertouch_c, 10, 27
12, 45764, Channel_aftertouch_c, 10, 28
12, 45765, Channel_aftertouch_c, 10, 30
12, 45765, Channel_aftertouch_c, 10, 31
12, 45766, Channel_aftertouch_c, 10, 33
12, 45767, Channel_aftertouch_c, 10, 34
12, 45769, Channel_aftertouch_c, 10, 37
12, 45771, Channel_aftertouch_c, 10, 39
12, 45774, Channel_aftertouch_c, 10, 42
12, 45777, Channel_aftertouch_c, 10, 43
12, 45780, Channel_aftertouch_c, 10, 45
12, 45788, Channel_aftertouch_c, 10, 42
12, 45790, Channel_aftertouch_c, 10, 39
12, 45791, Channel_aftertouch_c, 10, 37
12, 45791, Channel_aftertouch_c, 10, 34
12, 45792, Channel_aftertouch_c, 10, 33
12, 45793, Channel_aftertouch_c, 10, 30
12, 45794, Channel_aftertouch_c, 10, 27
12, 45794, Channel_aftertouch_c, 10, 25
12, 45795, Channel_aftertouch_c, 10, 21
12, 45796, Channel_aftertouch_c, 10, 17
12, 45796, Channel_aftertouch_c, 10, 13
12, 45797, Channel_aftertouch_c, 10, 9
12, 45798, Channel_aftertouch_c, 10, 5
12, 45798, Channel_aftertouch_c, 10, 1
12, 45799, Channel_aftertouch_c, 10, 0
12, 45907, Channel_aftertouch_c, 10, 1
12, 45912, Channel_aftertouch_c, 10, 3
12, 45914, Channel_aftertouch_c, 10, 4
12, 45921, Channel_aftertouch_c, 10, 3
12, 45926, Channel_aftertouch_c, 10, 4
12, 45928, Channel_aftertouch_c, 10, 7
12, 45931, Channel_aftertouch_c, 10, 9
12, 45934, Channel_aftertouch_c, 10, 10
12, 45938, Channel_aftertouch_c, 10, 12
12, 45940, Channel_aftertouch_c, 10, 8
12, 45941, Channel_aftertouch_c, 10, 4
12, 45942, Channel_aftertouch_c, 10, 0
12, 45951, Channel_aftertouch_c, 10, 1
12, 45953, Channel_aftertouch_c, 10, 4
12, 45956, Channel_aftertouch_c, 10, 6
12, 45970, Channel_aftertouch_c, 10, 7
12, 45972, Channel_aftertouch_c, 10, 9
12, 45975, Channel_aftertouch_c, 10, 10
12, 45979, Channel_aftertouch_c, 10, 12
12, 45981, Channel_aftertouch_c, 10, 13
12, 45983, Channel_aftertouch_c, 10, 15
12, 45986, Channel_aftertouch_c, 10, 18
12, 45990, Channel_aftertouch_c, 10, 19
12, 45994, Channel_aftertouch_c, 10, 21
12, 45997, Channel_aftertouch_c, 10, 22
12, 45999, Channel_aftertouch_c, 10, 24
12, 46004, Channel_aftertouch_c, 10, 25
12, 46010, Channel_aftertouch_c, 10, 27
12, 46014, Channel_aftertouch_c, 10, 28
12, 46023, Channel_aftertouch_c, 10, 30
12, 46031, Channel_aftertouch_c, 10, 28
12, 46033, Channel_aftertouch_c, 10, 27
12, 46035, Channel_aftertouch_c, 10, 24
12, 46036, Channel_aftertouch_c, 10, 22
12, 46037, Channel_aftertouch_c, 10, 21
12, 46038, Channel_aftertouch_c, 10, 17
12, 46039, Channel_aftertouch_c, 10, 15
12, 46040, Channel_aftertouch_c, 10, 12
12, 46040, Channel_aftertouch_c, 10, 9
12, 46041, Channel_aftertouch_c, 10, 6
12, 46042, Channel_aftertouch_c, 10, 3
12, 46043, Channel_aftertouch_c, 10, 0
12, 46140, Note_on_c, 10, 73, 27
12, 46144, Note_on_c, 10, 74, 0
12, 46167, Note_on_c, 10, 74, 26
12, 46175, Note_on_c, 10, 73, 0
12, 46198, Note_on_c, 10, 73, 26
12, 46202, Note_on_c, 10, 74, 0
12, 46421, Channel_aftertouch_c, 10, 3
12, 46423, Channel_aftertouch_c, 10, 6
12, 46423, Channel_aftertouch_c, 10, 7
12, 46424, Channel_aftertouch_c, 10, 9
12, 46425, Channel_aftertouch_c, 10, 10
12, 46426, Channel_aftertouch_c, 10, 12
12, 46426, Channel_aftertouch_c, 10, 15
12, 46428, Channel_aftertouch_c, 10, 18
12, 46429, Channel_aftertouch_c, 10, 19
12, 46431, Channel_aftertouch_c, 10, 22
12, 46432, Channel_aftertouch_c, 10, 25
12, 46434, Channel_aftertouch_c, 10, 27
12, 46435, Channel_aftertouch_c, 10, 28
12, 46438, Channel_aftertouch_c, 10, 30
12, 46440, Channel_aftertouch_c, 10, 31
12, 46442, Channel_aftertouch_c, 10, 33
12, 46444, Channel_aftertouch_c, 10, 34
12, 46446, Channel_aftertouch_c, 10, 36
12, 46448, Channel_aftertouch_c, 10, 37
12, 46450, Channel_aftertouch_c, 10, 39
12, 46453, Channel_aftertouch_c, 10, 42
12, 46454, Channel_aftertouch_c, 10, 43
12, 46456, Channel_aftertouch_c, 10, 45
12, 46457, Channel_aftertouch_c, 10, 46
12, 46459, Channel_aftertouch_c, 10, 48
12, 46460, Channel_aftertouch_c, 10, 49
12, 46461, Channel_aftertouch_c, 10, 52
12, 46464, Channel_aftertouch_c, 10, 54
12, 46466, Channel_aftertouch_c, 10, 55
12, 46468, Channel_aftertouch_c, 10, 57
12, 46470, Channel_aftertouch_c, 10, 58
12, 46471, Channel_aftertouch_c, 10, 60
12, 46473, Channel_aftertouch_c, 10, 63
12, 46476, Channel_aftertouch_c, 10, 64
12, 46478, Channel_aftertouch_c, 10, 66
12, 46480, Channel_aftertouch_c, 10, 67
12, 46483, Channel_aftertouch_c, 10, 69
12, 46485, Channel_aftertouch_c, 10, 72
12, 46487, Channel_aftertouch_c, 10, 73
12, 46489, Channel_aftertouch_c, 10, 76
12, 46490, Channel_aftertouch_c, 10, 78
12, 46492, Channel_aftertouch_c, 10, 79
12, 46493, Channel_aftertouch_c, 10, 81
12, 46495, Channel_aftertouch_c, 10, 82
12, 46497, Channel_aftertouch_c, 10, 85
12, 46499, Channel_aftertouch_c, 10, 87
12, 46502, Channel_aftertouch_c, 10, 88
12, 46504, Channel_aftertouch_c, 10, 90
12, 46508, Channel_aftertouch_c, 10, 91
12, 46517, Channel_aftertouch_c, 10, 93
12, 46526, Channel_aftertouch_c, 10, 94
12, 46532, Channel_aftertouch_c, 10, 96
12, 46542, Channel_aftertouch_c, 10, 97
12, 46551, Channel_aftertouch_c, 10, 96
12, 46552, Channel_aftertouch_c, 10, 94
12, 46554, Channel_aftertouch_c, 10, 91
12, 46555, Channel_aftertouch_c, 10, 88
12, 46556, Channel_aftertouch_c, 10, 87
12, 46557, Channel_aftertouch_c, 10, 85
12, 46557, Channel_aftertouch_c, 10, 84
12, 46558, Channel_aftertouch_c, 10, 82
12, 46559, Channel_aftertouch_c, 10, 81
12, 46559, Channel_aftertouch_c, 10, 78
12, 46560, Channel_aftertouch_c, 10, 76
12, 46561, Channel_aftertouch_c, 10, 75
12, 46562, Channel_aftertouch_c, 10, 73
12, 46562, Channel_aftertouch_c, 10, 70
12, 46563, Channel_aftertouch_c, 10, 69
12, 46564, Channel_aftertouch_c, 10, 66
12, 46565, Channel_aftertouch_c, 10, 64
12, 46565, Channel_aftertouch_c, 10, 61
12, 46566, Channel_aftertouch_c, 10, 58
12, 46567, Channel_aftertouch_c, 10, 55
12, 46567, Channel_aftertouch_c, 10, 52
12, 46568, Channel_aftertouch_c, 10, 49
12, 46569, Channel_aftertouch_c, 10, 46
12, 46570, Channel_aftertouch_c, 10, 42
12, 46571, Channel_aftertouch_c, 10, 38
12, 46572, Channel_aftertouch_c, 10, 34
12, 46572, Channel_aftertouch_c, 10, 30
12, 46573, Channel_aftertouch_c, 10, 26
12, 46574, Channel_aftertouch_c, 10, 22
12, 46574, Channel_aftertouch_c, 10, 18
12, 46575, Channel_aftertouch_c, 10, 14
12, 46576, Channel_aftertouch_c, 10, 10
12, 46576, Channel_aftertouch_c, 10, 6
12, 46577, Channel_aftertouch_c, 10, 2
12, 46578, Channel_aftertouch_c, 10, 0
12, 46718, Channel_aftertouch_c, 10, 1
12, 46720, Channel_aftertouch_c, 10, 3
12, 46722, Channel_aftertouch_c, 10, 4
12, 46724, Channel_aftertouch_c, 10, 6
12, 46726, Channel_aftertouch_c, 10, 7
12, 46728, Channel_aftertouch_c, 10, 10
12, 46730, Channel_aftertouch_c, 10, 12
12, 46732, Channel_aftertouch_c, 10, 13
12, 46735, Channel_aftertouch_c, 10, 16
12, 46737, Channel_aftertouch_c, 10, 18
12, 46739, Channel_aftertouch_c, 10, 19
12, 46742, Channel_aftertouch_c, 10, 22
12, 46743, Channel_aftertouch_c, 10, 24
12, 46745, Channel_aftertouch_c, 10, 25
12, 46747, Channel_aftertouch_c, 10, 27
12, 46748, Channel_aftertouch_c, 10, 28
12, 46750, Channel_aftertouch_c, 10, 31
12, 46753, Channel_aftertouch_c, 10, 33
12, 46755, Channel_aftertouch_c, 10, 34
12, 46757, Channel_aftertouch_c, 10, 36
12, 46760, Channel_aftertouch_c, 10, 39
12, 46762, Channel_aftertouch_c, 10, 40
12, 46764, Channel_aftertouch_c, 10, 42
12, 46766, Channel_aftertouch_c, 10, 43
12, 46769, Channel_aftertouch_c, 10, 46
12, 46772, Channel_aftertouch_c, 10, 48
12, 46774, Channel_aftertouch_c, 10, 49
12, 46777, Channel_aftertouch_c, 10, 51
12, 46780, Channel_aftertouch_c, 10, 52
12, 46784, Channel_aftertouch_c, 10, 54
12, 46788, Channel_aftertouch_c, 10, 55
12, 46792, Channel_aftertouch_c, 10, 57
12, 46796, Channel_aftertouch_c, 10, 58
12, 46800, Channel_aftertouch_c, 10, 60
12, 46805, Channel_aftertouch_c, 10, 61
12, 46809, Channel_aftertouch_c, 10, 63
12, 46812, Channel_aftertouch_c, 10, 64
12, 46817, Channel_aftertouch_c, 10, 66
12, 46820, Channel_aftertouch_c, 10, 67
12, 46823, Channel_aftertouch_c, 10, 69
12, 46827, Channel_aftertouch_c, 10, 70
12, 46832, Channel_aftertouch_c, 10, 72
12, 46835, Channel_aftertouch_c, 10, 73
12, 46838, Channel_aftertouch_c, 10, 75
12, 46840, Channel_aftertouch_c, 10, 76
12, 46846, Channel_aftertouch_c, 10, 78
12, 46850, Channel_aftertouch_c, 10, 79
12, 46853, Channel_aftertouch_c, 10, 81
12, 46856, Channel_aftertouch_c, 10, 84
12, 46861, Channel_aftertouch_c, 10, 85
12, 46869, Channel_aftertouch_c, 10, 87
12, 46877, Channel_aftertouch_c, 10, 88
12, 46885, Channel_aftertouch_c, 10, 90
12, 46892, Channel_aftertouch_c, 10, 91
12, 46903, Channel_aftertouch_c, 10, 93
12, 46916, Channel_aftertouch_c, 10, 94
12, 46928, Channel_aftertouch_c, 10, 96
12, 46936, Channel_aftertouch_c, 10, 97
12, 46941, Channel_aftertouch_c, 10, 99
12, 46951, Channel_aftertouch_c, 10, 97
12, 46957, Channel_aftertouch_c, 10, 96
12, 46962, Channel_aftertouch_c, 10, 97
12, 46964, Channel_aftertouch_c, 10, 99
12, 46966, Channel_aftertouch_c, 10, 100
12, 46971, Channel_aftertouch_c, 10, 102
12, 46999, Channel_aftertouch_c, 10, 105
12, 47016, Channel_aftertouch_c, 10, 103
12, 47018, Channel_aftertouch_c, 10, 99
12, 47019, Channel_aftertouch_c, 10, 96
12, 47020, Channel_aftertouch_c, 10, 92
12, 47020, Channel_aftertouch_c, 10, 88
12, 47021, Channel_aftertouch_c, 10, 84
12, 47022, Channel_aftertouch_c, 10, 80
12, 47022, Channel_aftertouch_c, 10, 76
12, 47023, Channel_aftertouch_c, 10, 72
12, 47024, Channel_aftertouch_c, 10, 68
12, 47025, Channel_aftertouch_c, 10, 64
12, 47025, Channel_aftertouch_c, 10, 60
12, 47026, Note_on_c, 10, 73, 0
12, 47026, Channel_aftertouch_c, 10, 56
12, 47027, Channel_aftertouch_c, 10, 52
12, 47027, Channel_aftertouch_c, 10, 48
12, 47028, Channel_aftertouch_c, 10, 44
12, 47029, Channel_aftertouch_c, 10, 40
12, 47030, Channel_aftertouch_c, 10, 36
12, 47031, Channel_aftertouch_c, 10, 32
12, 47032, Channel_aftertouch_c, 10, 28
12, 47032, Channel_aftertouch_c, 10, 24
12, 47033, Channel_aftertouch_c, 10, 20
12, 47034, Channel_aftertouch_c, 10, 16
12, 47034, Channel_aftertouch_c, 10, 12
12, 47035, Channel_aftertouch_c, 10, 8
12, 47036, Channel_aftertouch_c, 10, 4
12, 47037, Channel_aftertouch_c, 10, 0
12, 47157, Pitch_bend_c, 10, 384
12, 47158, Pitch_bend_c, 10, 640
12, 47158, Pitch_bend_c, 10, 896
12, 47159, Pitch_bend_c, 10, 1152
12, 47160, Pitch_bend_c, 10, 1280
12, 47161, Pitch_bend_c, 10, 1408
12, 47161, Pitch_bend_c, 10, 1536
12, 47162, Pitch_bend_c, 10, 1792
12, 47162, Pitch_bend_c, 10, 1920
12, 47163, Pitch_bend_c, 10, 2048
12, 47164, Pitch_bend_c, 10, 2176
12, 47166, Pitch_bend_c, 10, 2432
12, 47167, Pitch_bend_c, 10, 2560
12, 47167, Pitch_bend_c, 10, 2688
12, 47168, Pitch_bend_c, 10, 2816
12, 47169, Pitch_bend_c, 10, 3072
12, 47171, Pitch_bend_c, 10, 3200
12, 47172, Pitch_bend_c, 10, 3456
12, 47174, Pitch_bend_c, 10, 3584
12, 47175, Pitch_bend_c, 10, 3840
12, 47176, Pitch_bend_c, 10, 3968
12, 47177, Pitch_bend_c, 10, 4096
12, 47177, Pitch_bend_c, 10, 4224
12, 47178, Pitch_bend_c, 10, 4480
12, 47179, Pitch_bend_c, 10, 4736
12, 47179, Pitch_bend_c, 10, 4864
12, 47181, Pitch_bend_c, 10, 4992
12, 47182, Pitch_bend_c, 10, 5376
12, 47184, Pitch_bend_c, 10, 5504
12, 47185, Pitch_bend_c, 10, 5760
12, 47187, Pitch_bend_c, 10, 5888
12, 47187, Pitch_bend_c, 10, 6016
12, 47188, Pitch_bend_c, 10, 6272
12, 47190, Pitch_bend_c, 10, 6400
12, 47190, Pitch_bend_c, 10, 6528
12, 47191, Pitch_bend_c, 10, 6656
12, 47192, Pitch_bend_c, 10, 6784
12, 47192, Pitch_bend_c, 10, 7040
12, 47193, Pitch_bend_c, 10, 7168
12, 47194, Pitch_bend_c, 10, 7296
12, 47194, Pitch_bend_c, 10, 7424
12, 47195, Pitch_bend_c, 10, 7552
12, 47196, Pitch_bend_c, 10, 7808
12, 47197, Pitch_bend_c, 10, 7936
12, 47197, Pitch_bend_c, 10, 8192
12, 47197, End_track
0, 0, End_of_file
