0, 0, Header, 1, 18, 384
1, 0, Start_track
1, 0, Time_signature, 3, 2, 96, 8
1, 0, Sequencer_specific, 3, 0, 0, 65
1, 0, Tempo, 666666
1, 0, End_track
2, 0, Start_track
2, 0, Title_t, "Melody"
2, 0, Control_c, 0, 0, 0
2, 0, Program_c, 0, 37
2, 0, Control_c, 0, 91, 127
2, 0, Control_c, 0, 93, 127
2, 0, Note_on_c, 0, 63, 100
2, 128, Note_off_c, 0, 63, 100
2, 192, Note_on_c, 0, 64, 100
2, 320, Note_off_c, 0, 64, 100
2, 384, Note_on_c, 0, 71, 100
2, 768, Note_off_c, 0, 71, 100
2, 960, Note_on_c, 0, 66, 100
2, 1024, Note_off_c, 0, 66, 100
2, 1056, Note_on_c, 0, 67, 100
2, 1120, Note_off_c, 0, 67, 100
2, 1152, Note_on_c, 0, 66, 100
2, 1664, Note_off_c, 0, 66, 100
2, 1920, Note_on_c, 0, 69, 100
2, 2048, Note_off_c, 0, 69, 100
2, 2112, Note_on_c, 0, 64, 100
2, 2240, Note_off_c, 0, 64, 100
2, 2304, Note_on_c, 0, 65, 100
2, 2432, Note_off_c, 0, 65, 100
2, 2496, Note_on_c, 0, 69, 100
2, 2624, Note_off_c, 0, 69, 100
2, 2688, Note_on_c, 0, 72, 100
2, 2816, Note_off_c, 0, 72, 100
2, 2880, Note_on_c, 0, 76, 100
2, 3008, Note_off_c, 0, 76, 100
2, 3072, Note_on_c, 0, 79, 100
2, 3200, Note_off_c, 0, 79, 100
2, 3264, Note_on_c, 0, 83, 100
2, 3392, Note_off_c, 0, 83, 100
2, 3456, Note_on_c, 0, 86, 100
2, 4484, Note_off_c, 0, 86, 100
2, 5568, Note_on_c, 0, 69, 100
2, 5760, Note_off_c, 0, 69, 100
2, 5760, Note_on_c, 0, 70, 100
2, 5952, Note_off_c, 0, 70, 100
2, 5952, Note_on_c, 0, 67, 100
2, 6080, Note_off_c, 0, 67, 100
2, 6144, Note_on_c, 0, 74, 100
2, 6272, Note_off_c, 0, 74, 100
2, 6336, Note_on_c, 0, 70, 100
2, 6464, Note_off_c, 0, 70, 100
2, 6528, Note_on_c, 0, 67, 100
2, 6656, Note_off_c, 0, 67, 100
2, 6720, Note_on_c, 0, 62, 100
2, 6848, Note_off_c, 0, 62, 100
2, 6912, Note_on_c, 0, 64, 100
2, 7940, Note_off_c, 0, 64, 100
2, 8640, Note_on_c, 0, 67, 100
2, 8768, Note_off_c, 0, 67, 100
2, 8832, Note_on_c, 0, 66, 100
2, 8960, Note_off_c, 0, 66, 100
2, 9024, Note_on_c, 0, 67, 100
2, 9152, Note_off_c, 0, 67, 100
2, 9216, Note_on_c, 0, 69, 100
2, 9344, Note_off_c, 0, 69, 100
2, 9408, Note_on_c, 0, 64, 100
2, 9536, Note_off_c, 0, 64, 100
2, 9600, Note_on_c, 0, 69, 100
2, 9728, Note_off_c, 0, 69, 100
2, 9792, Note_on_c, 0, 73, 100
2, 9920, Note_off_c, 0, 73, 100
2, 9984, Note_on_c, 0, 71, 100
2, 10048, Note_off_c, 0, 71, 100
2, 10080, Note_on_c, 0, 69, 100
2, 10144, Note_off_c, 0, 69, 100
2, 10176, Note_on_c, 0, 67, 100
2, 10304, Note_off_c, 0, 67, 100
2, 10368, Note_on_c, 0, 69, 100
2, 10496, Note_off_c, 0, 69, 100
2, 10560, Note_on_c, 0, 64, 100
2, 10688, Note_off_c, 0, 64, 100
2, 10752, Note_on_c, 0, 69, 100
2, 10880, Note_off_c, 0, 69, 100
2, 10944, Note_on_c, 0, 73, 100
2, 11072, Note_off_c, 0, 73, 100
2, 11136, Note_on_c, 0, 71, 100
2, 11200, Note_off_c, 0, 71, 100
2, 11232, Note_on_c, 0, 69, 100
2, 11296, Note_off_c, 0, 69, 100
2, 11328, Note_on_c, 0, 67, 100
2, 11456, Note_off_c, 0, 67, 100
2, 11520, Note_on_c, 0, 69, 100
2, 11648, Note_off_c, 0, 69, 100
2, 11712, Note_on_c, 0, 64, 100
2, 11840, Note_off_c, 0, 64, 100
2, 11904, Note_on_c, 0, 69, 100
2, 12032, Note_off_c, 0, 69, 100
2, 12096, Note_on_c, 0, 73, 100
2, 12224, Note_off_c, 0, 73, 100
2, 12288, Note_on_c, 0, 71, 100
2, 12352, Note_off_c, 0, 71, 100
2, 12384, Note_on_c, 0, 69, 100
2, 12448, Note_off_c, 0, 69, 100
2, 12480, Note_on_c, 0, 67, 100
2, 12608, Note_off_c, 0, 67, 100
2, 12672, Note_on_c, 0, 69, 100
2, 14212, Note_off_c, 0, 69, 100
2, 15552, Note_on_c, 0, 69, 100
2, 15680, Note_off_c, 0, 69, 100
2, 15744, Note_on_c, 0, 68, 100
2, 15872, Note_off_c, 0, 68, 100
2, 15936, Note_on_c, 0, 67, 100
2, 16064, Note_off_c, 0, 67, 100
2, 16128, Note_on_c, 0, 65, 100
2, 16512, Note_on_c, 0, 65, 100
2, 16576, Note_off_c, 0, 65, 100
2, 16608, Note_on_c, 0, 69, 100
2, 16672, Note_off_c, 0, 69, 100
2, 16704, Note_on_c, 0, 72, 100
2, 16768, Note_off_c, 0, 72, 100
2, 16800, Note_on_c, 0, 69, 100
2, 17056, Note_off_c, 0, 69, 100
2, 17156, Note_off_c, 0, 65, 100
2, 17664, Note_on_c, 0, 68, 100
2, 17728, Note_off_c, 0, 68, 100
2, 17760, Note_on_c, 0, 65, 100
2, 17824, Note_off_c, 0, 65, 100
2, 17856, Note_on_c, 0, 68, 100
2, 17920, Note_off_c, 0, 68, 100
2, 17952, Note_on_c, 0, 65, 100
2, 18016, Note_off_c, 0, 65, 100
2, 18048, Note_on_c, 0, 61, 100
2, 18304, Note_off_c, 0, 61, 100
2, 18816, Note_on_c, 0, 65, 100
2, 18880, Note_off_c, 0, 65, 100
2, 18912, Note_on_c, 0, 69, 100
2, 18976, Note_off_c, 0, 69, 100
2, 19008, Note_on_c, 0, 72, 100
2, 19072, Note_off_c, 0, 72, 100
2, 19104, Note_on_c, 0, 69, 100
2, 19360, Note_off_c, 0, 69, 100
2, 19968, Note_on_c, 0, 68, 100
2, 20032, Note_off_c, 0, 68, 100
2, 20064, Note_on_c, 0, 65, 100
2, 20128, Note_off_c, 0, 65, 100
2, 20160, Note_on_c, 0, 68, 100
2, 20224, Note_off_c, 0, 68, 100
2, 20256, Note_on_c, 0, 65, 100
2, 20320, Note_off_c, 0, 65, 100
2, 20352, Note_on_c, 0, 68, 100
2, 20608, Note_off_c, 0, 68, 100
2, 20736, Note_on_c, 0, 66, 100
2, 20864, Note_off_c, 0, 66, 100
2, 20928, Note_on_c, 0, 68, 100
2, 21056, Note_off_c, 0, 68, 100
2, 21120, Note_on_c, 0, 69, 100
2, 21248, Note_off_c, 0, 69, 100
2, 21504, Note_on_c, 0, 71, 100
2, 21760, Note_off_c, 0, 71, 100
2, 21888, Note_on_c, 0, 66, 100
2, 21888, Note_on_c, 0, 69, 100
2, 21888, Note_on_c, 0, 73, 100
2, 23428, Note_off_c, 0, 69, 100
2, 23428, Note_off_c, 0, 66, 100
2, 23428, Note_off_c, 0, 73, 100
2, 24192, Note_on_c, 0, 74, 100
2, 24704, Note_off_c, 0, 74, 100
2, 24768, Note_on_c, 0, 76, 100
2, 24896, Note_off_c, 0, 76, 100
2, 24960, Note_on_c, 0, 74, 100
2, 25216, Note_off_c, 0, 74, 100
2, 25344, Note_on_c, 0, 70, 100
2, 25600, Note_off_c, 0, 70, 100
2, 25728, Note_on_c, 0, 74, 100
2, 25984, Note_off_c, 0, 74, 100
2, 26112, Note_on_c, 0, 77, 100
2, 26368, Note_off_c, 0, 77, 100
2, 26496, Note_on_c, 0, 81, 100
2, 26752, Note_off_c, 0, 81, 100
2, 26880, Note_on_c, 0, 77, 100
2, 27136, Note_off_c, 0, 77, 100
2, 27264, Note_on_c, 0, 72, 100
2, 27520, Note_off_c, 0, 72, 100
2, 27648, Note_on_c, 0, 75, 100
2, 28676, Note_off_c, 0, 75, 100
2, 28800, Note_on_c, 0, 74, 100
2, 29312, Note_off_c, 0, 74, 100
2, 29376, Note_on_c, 0, 73, 100
2, 29504, Note_off_c, 0, 73, 100
2, 29568, Note_on_c, 0, 72, 100
2, 29696, Note_off_c, 0, 72, 100
2, 29760, Note_on_c, 0, 71, 100
2, 29888, Note_off_c, 0, 71, 100
2, 29952, Note_on_c, 0, 70, 100
2, 30080, Note_off_c, 0, 70, 100
2, 30144, Note_on_c, 0, 72, 100
2, 30272, Note_off_c, 0, 72, 100
2, 30336, Note_on_c, 0, 69, 100
2, 30848, Note_off_c, 0, 69, 100
2, 31104, Note_on_c, 0, 72, 100
2, 31360, Note_off_c, 0, 72, 100
2, 31488, Note_on_c, 0, 76, 100
2, 31744, Note_off_c, 0, 76, 100
2, 31872, Note_on_c, 0, 69, 100
2, 32128, Note_off_c, 0, 69, 100
2, 32256, Note_on_c, 0, 71, 100
2, 32768, Note_off_c, 0, 71, 100
2, 33024, Note_on_c, 0, 67, 100
2, 33152, Note_off_c, 0, 67, 100
2, 33216, Note_on_c, 0, 66, 100
2, 33280, Note_off_c, 0, 66, 100
2, 33312, Note_on_c, 0, 65, 100
2, 33376, Note_off_c, 0, 65, 100
2, 33408, Note_on_c, 0, 63, 100
2, 34436, Note_off_c, 0, 63, 100
2, 34436, End_track
3, 0, Start_track
3, 0, Control_c, 2, 0, 0
3, 0, Program_c, 2, 1
3, 0, Control_c, 2, 91, 124
3, 0, Control_c, 2, 93, 123
3, 0, Note_on_c, 2, 39, 100
3, 128, Note_off_c, 2, 39, 100
3, 192, Note_on_c, 2, 40, 100
3, 320, Note_off_c, 2, 40, 100
3, 384, Note_on_c, 2, 40, 100
3, 384, Note_on_c, 2, 43, 100
3, 384, Note_on_c, 2, 47, 100
3, 1412, Note_off_c, 2, 40, 100
3, 1412, Note_off_c, 2, 43, 100
3, 1412, Note_off_c, 2, 47, 100
3, 2112, Note_on_c, 2, 40, 100
3, 2240, Note_off_c, 2, 40, 100
3, 2304, Note_on_c, 2, 41, 100
3, 2432, Note_off_c, 2, 41, 100
3, 2496, Note_on_c, 2, 45, 100
3, 2624, Note_off_c, 2, 45, 100
3, 2688, Note_on_c, 2, 48, 100
3, 2816, Note_off_c, 2, 48, 100
3, 2880, Note_on_c, 2, 52, 100
3, 3008, Note_off_c, 2, 52, 100
3, 3072, Note_on_c, 2, 55, 100
3, 3200, Note_off_c, 2, 55, 100
3, 3264, Note_on_c, 2, 59, 100
3, 3392, Note_off_c, 2, 59, 100
3, 3456, Note_on_c, 2, 42, 100
3, 3456, Note_on_c, 2, 45, 100
3, 3456, Note_on_c, 2, 50, 100
3, 4224, Note_off_c, 2, 42, 100
3, 4224, Note_off_c, 2, 45, 100
3, 4224, Note_off_c, 2, 50, 100
3, 4608, Note_on_c, 2, 45, 100
3, 4608, Note_on_c, 2, 42, 100
3, 5568, Note_on_c, 2, 41, 100
3, 5636, Note_off_c, 2, 45, 100
3, 5636, Note_off_c, 2, 42, 100
3, 5696, Note_off_c, 2, 41, 100
3, 5760, Note_on_c, 2, 43, 100
3, 5888, Note_off_c, 2, 43, 100
3, 5952, Note_on_c, 2, 38, 100
3, 6080, Note_off_c, 2, 38, 100
3, 6144, Note_on_c, 2, 46, 100
3, 6336, Note_off_c, 2, 46, 100
3, 6336, Note_on_c, 2, 37, 100
3, 6464, Note_off_c, 2, 37, 100
3, 6528, Note_on_c, 2, 38, 100
3, 6656, Note_off_c, 2, 38, 100
3, 6720, Note_on_c, 2, 39, 100
3, 6848, Note_off_c, 2, 39, 100
3, 6912, Note_on_c, 2, 40, 100
3, 7872, Note_on_c, 2, 52, 100
3, 8000, Note_off_c, 2, 52, 100
3, 8064, Note_on_c, 2, 55, 100
3, 8064, Note_on_c, 2, 52, 100
3, 8452, Note_off_c, 2, 40, 100
3, 8576, Note_off_c, 2, 55, 100
3, 8576, Note_off_c, 2, 52, 100
3, 8832, Note_on_c, 2, 55, 100
3, 8832, Note_on_c, 2, 52, 100
3, 8832, Note_on_c, 2, 47, 100
3, 9088, Note_off_c, 2, 55, 100
3, 9088, Note_off_c, 2, 52, 100
3, 9088, Note_off_c, 2, 47, 100
3, 9216, Note_on_c, 2, 57, 100
3, 9216, Note_on_c, 2, 52, 100
3, 9216, Note_on_c, 2, 49, 100
3, 9984, Note_on_c, 2, 43, 100
3, 9984, Note_on_c, 2, 47, 100
3, 10240, Note_off_c, 2, 43, 100
3, 10240, Note_off_c, 2, 47, 100
3, 10244, Note_off_c, 2, 57, 100
3, 10244, Note_off_c, 2, 52, 100
3, 10244, Note_off_c, 2, 49, 100
3, 10368, Note_on_c, 2, 57, 100
3, 10368, Note_on_c, 2, 52, 100
3, 10368, Note_on_c, 2, 49, 100
3, 10880, Note_off_c, 2, 57, 100
3, 10880, Note_off_c, 2, 52, 100
3, 10880, Note_off_c, 2, 49, 100
3, 11136, Note_on_c, 2, 47, 100
3, 11136, Note_on_c, 2, 59, 100
3, 11136, Note_on_c, 2, 55, 100
3, 11392, Note_off_c, 2, 47, 100
3, 11392, Note_off_c, 2, 59, 100
3, 11392, Note_off_c, 2, 55, 100
3, 11520, Note_on_c, 2, 57, 100
3, 11520, Note_on_c, 2, 52, 100
3, 11520, Note_on_c, 2, 49, 100
3, 12032, Note_off_c, 2, 57, 100
3, 12032, Note_off_c, 2, 52, 100
3, 12032, Note_off_c, 2, 49, 100
3, 12288, Note_on_c, 2, 43, 100
3, 12288, Note_on_c, 2, 47, 100
3, 12544, Note_off_c, 2, 43, 100
3, 12544, Note_off_c, 2, 47, 100
3, 12672, Note_on_c, 2, 57, 100
3, 12672, Note_on_c, 2, 52, 100
3, 12672, Note_on_c, 2, 49, 100
3, 13700, Note_off_c, 2, 57, 100
3, 13700, Note_off_c, 2, 52, 100
3, 13700, Note_off_c, 2, 49, 100
3, 16128, Note_on_c, 2, 41, 100
3, 16128, Note_on_c, 2, 48, 100
3, 16128, Note_on_c, 2, 44, 100
3, 16384, Note_off_c, 2, 44, 100
3, 16800, Note_on_c, 2, 47, 100
3, 16816, Note_off_c, 2, 47, 100
3, 16896, Note_on_c, 2, 48, 100
3, 17152, Note_off_c, 2, 48, 100
3, 17156, Note_off_c, 2, 41, 100
3, 17156, Note_off_c, 2, 48, 100
3, 17280, Note_on_c, 2, 37, 100
3, 17280, Note_on_c, 2, 44, 100
3, 17280, Note_on_c, 2, 49, 100
3, 17536, Note_off_c, 2, 49, 100
3, 17952, Note_on_c, 2, 43, 100
3, 17968, Note_off_c, 2, 43, 100
3, 18048, Note_on_c, 2, 44, 100
3, 18304, Note_off_c, 2, 44, 100
3, 18308, Note_off_c, 2, 37, 100
3, 18308, Note_off_c, 2, 44, 100
3, 18432, Note_on_c, 2, 41, 100
3, 18432, Note_on_c, 2, 48, 100
3, 19104, Note_on_c, 2, 47, 100
3, 19120, Note_off_c, 2, 47, 100
3, 19200, Note_on_c, 2, 48, 100
3, 19456, Note_off_c, 2, 48, 100
3, 19460, Note_off_c, 2, 41, 100
3, 19460, Note_off_c, 2, 48, 100
3, 19584, Note_on_c, 2, 37, 100
3, 19584, Note_on_c, 2, 44, 100
3, 19584, Note_on_c, 2, 49, 100
3, 19840, Note_off_c, 2, 49, 100
3, 20256, Note_on_c, 2, 43, 100
3, 20272, Note_off_c, 2, 43, 100
3, 20352, Note_on_c, 2, 44, 100
3, 20608, Note_off_c, 2, 44, 100
3, 20612, Note_off_c, 2, 37, 100
3, 20612, Note_off_c, 2, 44, 100
3, 20736, Note_on_c, 2, 37, 100
3, 20864, Note_off_c, 2, 37, 100
3, 20928, Note_on_c, 2, 39, 100
3, 21056, Note_off_c, 2, 39, 100
3, 21120, Note_on_c, 2, 40, 100
3, 21248, Note_off_c, 2, 40, 100
3, 21504, Note_on_c, 2, 42, 100
3, 21760, Note_off_c, 2, 42, 100
3, 21888, Note_on_c, 2, 43, 100
3, 21888, Note_on_c, 2, 49, 100
3, 23428, Note_off_c, 2, 43, 100
3, 23428, Note_off_c, 2, 49, 100
3, 24192, Note_on_c, 2, 46, 100
3, 24192, Note_on_c, 2, 43, 100
3, 25220, Note_off_c, 2, 46, 100
3, 25220, Note_off_c, 2, 43, 100
3, 25344, Note_on_c, 2, 43, 100
3, 25344, Note_on_c, 2, 36, 100
3, 25344, Note_on_c, 2, 48, 100
3, 26372, Note_off_c, 2, 43, 100
3, 26372, Note_off_c, 2, 36, 100
3, 26372, Note_off_c, 2, 48, 100
3, 26496, Note_on_c, 2, 53, 100
3, 26496, Note_on_c, 2, 48, 100
3, 26496, Note_on_c, 2, 45, 100
3, 27524, Note_off_c, 2, 53, 100
3, 27524, Note_off_c, 2, 48, 100
3, 27524, Note_off_c, 2, 45, 100
3, 27648, Note_on_c, 2, 43, 100
3, 27648, Note_on_c, 2, 46, 100
3, 27648, Note_on_c, 2, 51, 100
3, 27648, Note_on_c, 2, 48, 100
3, 28676, Note_off_c, 2, 43, 100
3, 28676, Note_off_c, 2, 46, 100
3, 28676, Note_off_c, 2, 51, 100
3, 28676, Note_off_c, 2, 48, 100
3, 28800, Note_on_c, 2, 51, 100
3, 28800, Note_on_c, 2, 46, 100
3, 28800, Note_on_c, 2, 50, 100
3, 29828, Note_off_c, 2, 51, 100
3, 29828, Note_off_c, 2, 46, 100
3, 29828, Note_off_c, 2, 50, 100
3, 29952, Note_on_c, 2, 43, 100
3, 29952, Note_on_c, 2, 50, 100
3, 30208, Note_off_c, 2, 43, 100
3, 30208, Note_off_c, 2, 50, 100
3, 30336, Note_on_c, 2, 41, 100
3, 30336, Note_on_c, 2, 48, 100
3, 30848, Note_off_c, 2, 41, 100
3, 30848, Note_off_c, 2, 48, 100
3, 31104, Note_on_c, 2, 45, 100
3, 31104, Note_on_c, 2, 50, 100
3, 32132, Note_off_c, 2, 45, 100
3, 32132, Note_off_c, 2, 50, 100
3, 32256, Note_on_c, 2, 52, 100
3, 32256, Note_on_c, 2, 47, 100
3, 32256, Note_on_c, 2, 59, 100
3, 33284, Note_off_c, 2, 52, 100
3, 33284, Note_off_c, 2, 47, 100
3, 33284, Note_off_c, 2, 59, 100
3, 33284, End_track
4, 0, Start_track
4, 0, Title_t, "Drums"
4, 0, Control_c, 9, 0, 0
4, 0, Program_c, 9, 0
4, 384, Note_on_c, 9, 59, 100
4, 640, Note_off_c, 9, 59, 100
4, 768, Note_on_c, 9, 59, 100
4, 1024, Note_off_c, 9, 59, 100
4, 1056, Note_on_c, 9, 54, 100
4, 1072, Note_off_c, 9, 54, 100
4, 1152, Note_on_c, 9, 59, 100
4, 1408, Note_off_c, 9, 59, 100
4, 1536, Note_on_c, 9, 59, 100
4, 1792, Note_off_c, 9, 59, 100
4, 1920, Note_on_c, 9, 59, 100
4, 2176, Note_off_c, 9, 59, 100
4, 2208, Note_on_c, 9, 54, 100
4, 2224, Note_off_c, 9, 54, 100
4, 2304, Note_on_c, 9, 59, 100
4, 2560, Note_off_c, 9, 59, 100
4, 2688, Note_on_c, 9, 59, 100
4, 2944, Note_off_c, 9, 59, 100
4, 3072, Note_on_c, 9, 59, 100
4, 3328, Note_off_c, 9, 59, 100
4, 3456, Note_on_c, 9, 49, 100
4, 3840, Note_on_c, 9, 59, 100
4, 3968, Note_off_c, 9, 49, 100
4, 4096, Note_off_c, 9, 59, 100
4, 4224, Note_on_c, 9, 59, 100
4, 4480, Note_off_c, 9, 59, 100
4, 4608, Note_on_c, 9, 59, 100
4, 4608, Note_on_c, 9, 49, 100
4, 4864, Note_off_c, 9, 59, 100
4, 4992, Note_on_c, 9, 59, 100
4, 5120, Note_off_c, 9, 49, 100
4, 5248, Note_off_c, 9, 59, 100
4, 5376, Note_on_c, 9, 59, 100
4, 5632, Note_off_c, 9, 59, 100
4, 5760, Note_on_c, 9, 59, 100
4, 5760, Note_on_c, 9, 49, 100
4, 6016, Note_off_c, 9, 59, 100
4, 6016, Note_off_c, 9, 49, 100
4, 6144, Note_on_c, 9, 59, 100
4, 6400, Note_off_c, 9, 59, 100
4, 6528, Note_on_c, 9, 59, 100
4, 6528, Note_on_c, 9, 56, 100
4, 6656, Note_off_c, 9, 56, 100
4, 6720, Note_on_c, 9, 56, 100
4, 6784, Note_off_c, 9, 59, 100
4, 6848, Note_off_c, 9, 56, 100
4, 6912, Note_on_c, 9, 59, 100
4, 6912, Note_on_c, 9, 49, 100
4, 6912, Note_on_c, 9, 52, 100
4, 7168, Note_off_c, 9, 59, 100
4, 7296, Note_on_c, 9, 59, 100
4, 7424, Note_off_c, 9, 49, 100
4, 7424, Note_off_c, 9, 52, 100
4, 7552, Note_off_c, 9, 59, 100
4, 7680, Note_on_c, 9, 59, 100
4, 7936, Note_off_c, 9, 59, 100
4, 8064, Note_on_c, 9, 59, 100
4, 8064, Note_on_c, 9, 49, 100
4, 8320, Note_off_c, 9, 59, 100
4, 8448, Note_on_c, 9, 59, 100
4, 8576, Note_off_c, 9, 49, 100
4, 8704, Note_off_c, 9, 59, 100
4, 8832, Note_on_c, 9, 59, 100
4, 9088, Note_off_c, 9, 59, 100
4, 9216, Note_on_c, 9, 59, 100
4, 9472, Note_off_c, 9, 59, 100
4, 9600, Note_on_c, 9, 59, 100
4, 9856, Note_off_c, 9, 59, 100
4, 9984, Note_on_c, 9, 59, 100
4, 9984, Note_on_c, 9, 67, 100
4, 9984, Note_on_c, 9, 67, 100
4, 10240, Note_off_c, 9, 59, 100
4, 10240, Note_off_c, 9, 67, 100
4, 10240, Note_off_c, 9, 67, 100
4, 10368, Note_on_c, 9, 59, 100
4, 10368, Note_on_c, 9, 49, 100
4, 10368, Note_on_c, 9, 56, 100
4, 10432, Note_off_c, 9, 56, 100
4, 10560, Note_on_c, 9, 56, 100
4, 10624, Note_off_c, 9, 59, 100
4, 10688, Note_off_c, 9, 56, 100
4, 10752, Note_on_c, 9, 61, 100
4, 10752, Note_on_c, 9, 56, 100
4, 10816, Note_off_c, 9, 56, 100
4, 10880, Note_off_c, 9, 49, 100
4, 11008, Note_off_c, 9, 61, 100
4, 11136, Note_on_c, 9, 59, 100
4, 11136, Note_on_c, 9, 47, 100
4, 11392, Note_off_c, 9, 59, 100
4, 11392, Note_off_c, 9, 47, 100
4, 11520, Note_on_c, 9, 59, 100
4, 11520, Note_on_c, 9, 49, 100
4, 11520, Note_on_c, 9, 56, 100
4, 11648, Note_off_c, 9, 56, 100
4, 11712, Note_on_c, 9, 56, 100
4, 11776, Note_off_c, 9, 59, 100
4, 11776, Note_off_c, 9, 49, 100
4, 11840, Note_off_c, 9, 56, 100
4, 11904, Note_on_c, 9, 59, 100
4, 11904, Note_on_c, 9, 56, 100
4, 12032, Note_off_c, 9, 56, 100
4, 12160, Note_off_c, 9, 59, 100
4, 12288, Note_on_c, 9, 59, 100
4, 12288, Note_on_c, 9, 50, 100
4, 12416, Note_off_c, 9, 50, 100
4, 12480, Note_on_c, 9, 50, 100
4, 12544, Note_off_c, 9, 59, 100
4, 12608, Note_off_c, 9, 50, 100
4, 12672, Note_on_c, 9, 59, 100
4, 12672, Note_on_c, 9, 49, 100
4, 12672, Note_on_c, 9, 50, 100
4, 12672, Note_on_c, 9, 56, 100
4, 12800, Note_off_c, 9, 56, 100
4, 12864, Note_on_c, 9, 56, 100
4, 12928, Note_off_c, 9, 59, 100
4, 12928, Note_off_c, 9, 49, 100
4, 12992, Note_off_c, 9, 56, 100
4, 13056, Note_on_c, 9, 59, 100
4, 13056, Note_on_c, 9, 56, 100
4, 13184, Note_off_c, 9, 50, 100
4, 13184, Note_off_c, 9, 56, 100
4, 13312, Note_off_c, 9, 59, 100
4, 13440, Note_on_c, 9, 59, 100
4, 13696, Note_off_c, 9, 59, 100
4, 13824, Note_on_c, 9, 59, 100
4, 13824, Note_on_c, 9, 56, 100
4, 13952, Note_off_c, 9, 56, 100
4, 14016, Note_on_c, 9, 56, 100
4, 14080, Note_off_c, 9, 59, 100
4, 14144, Note_off_c, 9, 56, 100
4, 14208, Note_on_c, 9, 59, 100
4, 14208, Note_on_c, 9, 56, 100
4, 14336, Note_off_c, 9, 56, 100
4, 14464, Note_off_c, 9, 59, 100
4, 14592, Note_on_c, 9, 59, 100
4, 14848, Note_off_c, 9, 59, 100
4, 14976, Note_on_c, 9, 59, 100
4, 15232, Note_off_c, 9, 59, 100
4, 15360, Note_on_c, 9, 59, 100
4, 15552, Note_on_c, 9, 48, 100
4, 15568, Note_off_c, 9, 48, 100
4, 15616, Note_off_c, 9, 59, 100
4, 15648, Note_on_c, 9, 48, 100
4, 15664, Note_off_c, 9, 48, 100
4, 15744, Note_on_c, 9, 59, 100
4, 15744, Note_on_c, 9, 47, 100
4, 15776, Note_off_c, 9, 47, 100
4, 15936, Note_on_c, 9, 45, 100
4, 15968, Note_off_c, 9, 45, 100
4, 16000, Note_off_c, 9, 59, 100
4, 16128, Note_on_c, 9, 59, 100
4, 16128, Note_on_c, 9, 49, 100
4, 16128, Note_on_c, 9, 55, 100
4, 16128, Note_on_c, 9, 41, 100
4, 16384, Note_off_c, 9, 59, 100
4, 16384, Note_off_c, 9, 55, 100
4, 16384, Note_off_c, 9, 41, 100
4, 16512, Note_on_c, 9, 59, 100
4, 16640, Note_off_c, 9, 49, 100
4, 16768, Note_off_c, 9, 59, 100
4, 16896, Note_on_c, 9, 59, 100
4, 16896, Note_on_c, 9, 55, 100
4, 16896, Note_on_c, 9, 41, 100
4, 17152, Note_off_c, 9, 59, 100
4, 17152, Note_off_c, 9, 55, 100
4, 17152, Note_off_c, 9, 41, 100
4, 17280, Note_on_c, 9, 59, 100
4, 17280, Note_on_c, 9, 49, 100
4, 17536, Note_off_c, 9, 59, 100
4, 17536, Note_off_c, 9, 49, 100
4, 17664, Note_on_c, 9, 59, 100
4, 17920, Note_off_c, 9, 59, 100
4, 18048, Note_on_c, 9, 59, 100
4, 18048, Note_on_c, 9, 52, 100
4, 18176, Note_off_c, 9, 52, 100
4, 18240, Note_on_c, 9, 52, 100
4, 18304, Note_off_c, 9, 59, 100
4, 18368, Note_off_c, 9, 52, 100
4, 18432, Note_on_c, 9, 59, 100
4, 18432, Note_on_c, 9, 49, 100
4, 18688, Note_off_c, 9, 59, 100
4, 18816, Note_on_c, 9, 59, 100
4, 18944, Note_off_c, 9, 49, 100
4, 19072, Note_off_c, 9, 59, 100
4, 19200, Note_on_c, 9, 59, 100
4, 19200, Note_on_c, 9, 48, 100
4, 19328, Note_off_c, 9, 48, 100
4, 19392, Note_on_c, 9, 45, 100
4, 19456, Note_off_c, 9, 59, 100
4, 19520, Note_off_c, 9, 45, 100
4, 19584, Note_on_c, 9, 59, 100
4, 19584, Note_on_c, 9, 49, 100
4, 19840, Note_off_c, 9, 59, 100
4, 19968, Note_on_c, 9, 59, 100
4, 20096, Note_off_c, 9, 49, 100
4, 20224, Note_off_c, 9, 59, 100
4, 20352, Note_on_c, 9, 59, 100
4, 20352, Note_on_c, 9, 48, 100
4, 20480, Note_off_c, 9, 48, 100
4, 20544, Note_on_c, 9, 47, 100
4, 20608, Note_off_c, 9, 59, 100
4, 20672, Note_off_c, 9, 47, 100
4, 20736, Note_on_c, 9, 59, 100
4, 20736, Note_on_c, 9, 49, 100
4, 20736, Note_on_c, 9, 57, 100
4, 20992, Note_off_c, 9, 59, 100
4, 21120, Note_on_c, 9, 59, 100
4, 21248, Note_off_c, 9, 49, 100
4, 21376, Note_off_c, 9, 59, 100
4, 21504, Note_on_c, 9, 59, 100
4, 21504, Note_on_c, 9, 43, 100
4, 21568, Note_off_c, 9, 43, 100
4, 21600, Note_on_c, 9, 45, 100
4, 21664, Note_off_c, 9, 45, 100
4, 21696, Note_on_c, 9, 47, 100
4, 21760, Note_off_c, 9, 59, 100
4, 21760, Note_off_c, 9, 47, 100
4, 21764, Note_off_c, 9, 57, 100
4, 21792, Note_on_c, 9, 48, 100
4, 21856, Note_off_c, 9, 48, 100
4, 21888, Note_on_c, 9, 59, 100
4, 21888, Note_on_c, 9, 49, 100
4, 21888, Note_on_c, 9, 48, 100
4, 22144, Note_off_c, 9, 59, 100
4, 22272, Note_on_c, 9, 59, 100
4, 22400, Note_off_c, 9, 48, 100
4, 22528, Note_off_c, 9, 59, 100
4, 22656, Note_on_c, 9, 59, 100
4, 22912, Note_off_c, 9, 59, 100
4, 22916, Note_off_c, 9, 49, 100
4, 23040, Note_on_c, 9, 59, 100
4, 23040, Note_on_c, 9, 48, 100
4, 23296, Note_off_c, 9, 59, 100
4, 23424, Note_on_c, 9, 59, 100
4, 23552, Note_off_c, 9, 48, 100
4, 23680, Note_off_c, 9, 59, 100
4, 23808, Note_on_c, 9, 59, 100
4, 24064, Note_off_c, 9, 59, 100
4, 24192, Note_on_c, 9, 59, 100
4, 24192, Note_on_c, 9, 48, 100
4, 24448, Note_off_c, 9, 59, 100
4, 24576, Note_on_c, 9, 59, 100
4, 24576, Note_on_c, 9, 48, 100
4, 24592, Note_off_c, 9, 48, 100
4, 24672, Note_on_c, 9, 47, 100
4, 24688, Note_off_c, 9, 47, 100
4, 24704, Note_off_c, 9, 48, 100
4, 24768, Note_on_c, 9, 45, 100
4, 24784, Note_off_c, 9, 45, 100
4, 24832, Note_off_c, 9, 59, 100
4, 24864, Note_on_c, 9, 43, 100
4, 24880, Note_off_c, 9, 43, 100
4, 24960, Note_on_c, 9, 59, 100
4, 24960, Note_on_c, 9, 41, 100
4, 25152, Note_on_c, 9, 40, 100
4, 25216, Note_off_c, 9, 59, 100
4, 25216, Note_off_c, 9, 41, 100
4, 25280, Note_off_c, 9, 40, 100
4, 25344, Note_on_c, 9, 59, 100
4, 25344, Note_on_c, 9, 41, 100
4, 25344, Note_on_c, 9, 43, 100
4, 25472, Note_off_c, 9, 41, 100
4, 25600, Note_off_c, 9, 59, 100
4, 25728, Note_on_c, 9, 59, 100
4, 25856, Note_off_c, 9, 43, 100
4, 25984, Note_off_c, 9, 59, 100
4, 26112, Note_on_c, 9, 59, 100
4, 26368, Note_off_c, 9, 59, 100
4, 26496, Note_on_c, 9, 59, 100
4, 26496, Note_on_c, 9, 52, 100
4, 26752, Note_off_c, 9, 59, 100
4, 26752, Note_off_c, 9, 52, 100
4, 26880, Note_on_c, 9, 59, 100
4, 27136, Note_off_c, 9, 59, 100
4, 27264, Note_on_c, 9, 59, 100
4, 27264, Note_on_c, 9, 52, 100
4, 27520, Note_off_c, 9, 59, 100
4, 27520, Note_off_c, 9, 52, 100
4, 27648, Note_on_c, 9, 59, 100
4, 27648, Note_on_c, 9, 50, 100
4, 27648, Note_on_c, 9, 53, 100
4, 27904, Note_off_c, 9, 59, 100
4, 27904, Note_off_c, 9, 50, 100
4, 27904, Note_off_c, 9, 53, 100
4, 28032, Note_on_c, 9, 59, 100
4, 28288, Note_off_c, 9, 59, 100
4, 28416, Note_on_c, 9, 59, 100
4, 28672, Note_off_c, 9, 59, 100
4, 28800, Note_on_c, 9, 59, 100
4, 29056, Note_off_c, 9, 59, 100
4, 29184, Note_on_c, 9, 59, 100
4, 29440, Note_off_c, 9, 59, 100
4, 29568, Note_on_c, 9, 59, 100
4, 29568, Note_on_c, 9, 55, 100
4, 29696, Note_off_c, 9, 55, 100
4, 29760, Note_on_c, 9, 55, 100
4, 29824, Note_off_c, 9, 59, 100
4, 29888, Note_off_c, 9, 55, 100
4, 29952, Note_on_c, 9, 59, 100
4, 29952, Note_on_c, 9, 49, 100
4, 30080, Note_off_c, 9, 49, 100
4, 30208, Note_off_c, 9, 59, 100
4, 30336, Note_on_c, 9, 59, 100
4, 30336, Note_on_c, 9, 49, 100
4, 30592, Note_off_c, 9, 59, 100
4, 30592, Note_off_c, 9, 49, 100
4, 30720, Note_on_c, 9, 59, 100
4, 30976, Note_off_c, 9, 59, 100
4, 31104, Note_on_c, 9, 59, 100
4, 31104, Note_on_c, 9, 52, 100
4, 31360, Note_off_c, 9, 59, 100
4, 31488, Note_on_c, 9, 59, 100
4, 31616, Note_off_c, 9, 52, 100
4, 31744, Note_off_c, 9, 59, 100
4, 31872, Note_on_c, 9, 59, 100
4, 32128, Note_off_c, 9, 59, 100
4, 32256, Note_on_c, 9, 59, 100
4, 32256, Note_on_c, 9, 52, 100
4, 32256, Note_on_c, 9, 49, 100
4, 32512, Note_off_c, 9, 59, 100
4, 32640, Note_on_c, 9, 59, 100
4, 32768, Note_off_c, 9, 52, 100
4, 32768, Note_off_c, 9, 49, 100
4, 32896, Note_off_c, 9, 59, 100
4, 33024, Note_on_c, 9, 59, 100
4, 33280, Note_off_c, 9, 59, 100
4, 33280, End_track
5, 0, Start_track
5, 0, Title_t, "Background"
5, 0, Control_c, 3, 0, 0
5, 0, Program_c, 3, 49
5, 0, Control_c, 3, 10, 68
5, 0, Control_c, 3, 91, 123
5, 0, Control_c, 3, 93, 120
5, 0, Note_on_c, 3, 63, 103
5, 128, Note_off_c, 3, 63, 103
5, 192, Note_on_c, 3, 64, 103
5, 320, Note_off_c, 3, 64, 103
5, 384, Note_on_c, 3, 71, 103
5, 1924, Note_off_c, 3, 71, 103
5, 2304, Note_on_c, 3, 65, 103
5, 2304, Note_on_c, 3, 76, 103
5, 2432, Note_off_c, 3, 76, 103
5, 2496, Note_on_c, 3, 72, 103
5, 2624, Note_off_c, 3, 72, 103
5, 2688, Note_on_c, 3, 69, 103
5, 2816, Note_off_c, 3, 69, 103
5, 2880, Note_on_c, 3, 65, 103
5, 3008, Note_off_c, 3, 65, 103
5, 3332, Note_off_c, 3, 65, 103
5, 3456, Note_on_c, 3, 66, 103
5, 4608, Note_on_c, 3, 76, 103
5, 4996, Note_off_c, 3, 66, 103
5, 5636, Note_off_c, 3, 76, 103
5, 5760, Note_on_c, 3, 67, 103
5, 5760, Note_on_c, 3, 84, 103
5, 5952, Note_on_c, 3, 83, 103
5, 6080, Note_off_c, 3, 83, 103
5, 6788, Note_off_c, 3, 67, 103
5, 6788, Note_off_c, 3, 84, 103
5, 6912, Note_on_c, 3, 68, 103
5, 8448, Note_on_c, 3, 83, 103
5, 8452, Note_off_c, 3, 68, 103
5, 8960, Note_off_c, 3, 83, 103
5, 9216, Note_on_c, 3, 69, 103
5, 9216, Note_on_c, 3, 85, 103
5, 9728, Note_off_c, 3, 85, 103
5, 9984, Note_on_c, 3, 76, 103
5, 10240, Note_off_c, 3, 76, 103
5, 10244, Note_off_c, 3, 69, 103
5, 10368, Note_on_c, 3, 69, 103
5, 10368, Note_on_c, 3, 85, 103
5, 11136, Note_on_c, 3, 73, 103
5, 11392, Note_off_c, 3, 73, 103
5, 11396, Note_off_c, 3, 69, 103
5, 11396, Note_off_c, 3, 85, 103
5, 11520, Note_on_c, 3, 69, 103
5, 11520, Note_on_c, 3, 85, 103
5, 12288, Note_on_c, 3, 73, 103
5, 12544, Note_off_c, 3, 73, 103
5, 12548, Note_off_c, 3, 69, 103
5, 12548, Note_off_c, 3, 85, 103
5, 12672, Note_on_c, 3, 69, 103
5, 12672, Note_on_c, 3, 85, 103
5, 13700, Note_off_c, 3, 85, 103
5, 13824, Note_on_c, 3, 57, 103
5, 14212, Note_off_c, 3, 69, 103
5, 14852, Note_off_c, 3, 57, 103
5, 14976, Note_on_c, 3, 76, 103
5, 15744, Note_on_c, 3, 81, 103
5, 16000, Note_off_c, 3, 81, 103
5, 16004, Note_off_c, 3, 76, 103
5, 16128, Note_on_c, 3, 65, 103
5, 16128, Note_on_c, 3, 77, 103
5, 17156, Note_off_c, 3, 65, 103
5, 17156, Note_off_c, 3, 77, 103
5, 17280, Note_on_c, 3, 61, 103
5, 17280, Note_on_c, 3, 65, 103
5, 18308, Note_off_c, 3, 61, 103
5, 18308, Note_off_c, 3, 65, 103
5, 18432, Note_on_c, 3, 65, 103
5, 18432, Note_on_c, 3, 77, 103
5, 19460, Note_off_c, 3, 65, 103
5, 19460, Note_off_c, 3, 77, 103
5, 19584, Note_on_c, 3, 61, 103
5, 19584, Note_on_c, 3, 65, 103
5, 20612, Note_off_c, 3, 61, 103
5, 20612, Note_off_c, 3, 65, 103
5, 20736, Note_on_c, 3, 62, 103
5, 20736, Note_on_c, 3, 74, 103
5, 21764, Note_off_c, 3, 62, 103
5, 21764, Note_off_c, 3, 74, 103
5, 21888, Note_on_c, 3, 64, 103
5, 21888, Note_on_c, 3, 76, 103
5, 23040, Note_on_c, 3, 73, 103
5, 23428, Note_off_c, 3, 64, 103
5, 23428, Note_off_c, 3, 76, 103
5, 24192, Note_on_c, 3, 65, 103
5, 24580, Note_off_c, 3, 73, 103
5, 25220, Note_off_c, 3, 65, 103
5, 25344, Note_on_c, 3, 62, 103
5, 25344, Note_on_c, 3, 67, 103
5, 26372, Note_off_c, 3, 62, 103
5, 26496, Note_on_c, 3, 60, 103
5, 26884, Note_off_c, 3, 67, 103
5, 27524, Note_off_c, 3, 60, 103
5, 27648, Note_on_c, 3, 63, 103
5, 27648, Note_on_c, 3, 70, 103
5, 28676, Note_off_c, 3, 63, 103
5, 28800, Note_on_c, 3, 64, 103
5, 29188, Note_off_c, 3, 70, 103
5, 29828, Note_off_c, 3, 64, 103
5, 29952, Note_on_c, 3, 60, 103
5, 30336, Note_on_c, 3, 57, 103
5, 30848, Note_off_c, 3, 57, 103
5, 30980, Note_off_c, 3, 60, 103
5, 31104, Note_on_c, 3, 67, 103
5, 31104, Note_on_c, 3, 60, 103
5, 31488, Note_on_c, 3, 64, 103
5, 32000, Note_off_c, 3, 64, 103
5, 32132, Note_off_c, 3, 67, 103
5, 32132, Note_off_c, 3, 60, 103
5, 32256, Note_on_c, 3, 69, 103
5, 32256, Note_on_c, 3, 71, 103
5, 32256, Note_on_c, 3, 64, 103
5, 32256, Note_on_c, 3, 59, 103
5, 33284, Note_off_c, 3, 69, 103
5, 33284, Note_off_c, 3, 71, 103
5, 33284, Note_off_c, 3, 64, 103
5, 33284, Note_off_c, 3, 59, 103
5, 33408, Note_on_c, 3, 59, 103
5, 33408, Note_on_c, 3, 69, 103
5, 33408, Note_on_c, 3, 66, 103
5, 33408, Note_on_c, 3, 55, 103
5, 33408, Note_on_c, 3, 86, 103
5, 33408, Note_on_c, 3, 83, 103
5, 33408, Note_on_c, 3, 75, 103
5, 34436, Note_off_c, 3, 59, 103
5, 34436, Note_off_c, 3, 69, 103
5, 34436, Note_off_c, 3, 66, 103
5, 34436, Note_off_c, 3, 55, 103
5, 34436, Note_off_c, 3, 86, 103
5, 34436, Note_off_c, 3, 83, 103
5, 34436, Note_off_c, 3, 75, 103
5, 34436, End_track
6, 0, Start_track
6, 0, Title_t, "Guitar"
6, 0, Control_c, 4, 0, 0
6, 0, Program_c, 4, 27
6, 0, Note_on_c, 4, 63, 100
6, 128, Note_off_c, 4, 63, 100
6, 192, Note_on_c, 4, 64, 100
6, 320, Note_off_c, 4, 64, 100
6, 384, Note_on_c, 4, 71, 100
6, 768, Note_off_c, 4, 71, 100
6, 960, Note_on_c, 4, 66, 100
6, 1024, Note_off_c, 4, 66, 100
6, 1056, Note_on_c, 4, 67, 100
6, 1120, Note_off_c, 4, 67, 100
6, 1152, Note_on_c, 4, 66, 100
6, 1664, Note_off_c, 4, 66, 100
6, 1920, Note_on_c, 4, 69, 100
6, 2048, Note_off_c, 4, 69, 100
6, 2112, Note_on_c, 4, 64, 100
6, 2240, Note_off_c, 4, 64, 100
6, 2304, Note_on_c, 4, 65, 100
6, 2432, Note_off_c, 4, 65, 100
6, 2496, Note_on_c, 4, 69, 100
6, 2624, Note_off_c, 4, 69, 100
6, 2688, Note_on_c, 4, 72, 100
6, 2816, Note_off_c, 4, 72, 100
6, 2880, Note_on_c, 4, 76, 100
6, 3008, Note_off_c, 4, 76, 100
6, 3072, Note_on_c, 4, 79, 100
6, 3200, Note_off_c, 4, 79, 100
6, 3264, Note_on_c, 4, 83, 100
6, 3392, Note_off_c, 4, 83, 100
6, 3456, Note_on_c, 4, 86, 100
6, 4484, Note_off_c, 4, 86, 100
6, 5568, Note_on_c, 4, 69, 100
6, 5760, Note_off_c, 4, 69, 100
6, 5760, Note_on_c, 4, 70, 100
6, 5952, Note_off_c, 4, 70, 100
6, 5952, Note_on_c, 4, 67, 100
6, 6080, Note_off_c, 4, 67, 100
6, 6144, Note_on_c, 4, 74, 100
6, 6272, Note_off_c, 4, 74, 100
6, 6336, Note_on_c, 4, 70, 100
6, 6464, Note_off_c, 4, 70, 100
6, 6528, Note_on_c, 4, 67, 100
6, 6656, Note_off_c, 4, 67, 100
6, 6720, Note_on_c, 4, 62, 100
6, 6848, Note_off_c, 4, 62, 100
6, 6912, Note_on_c, 4, 64, 100
6, 7940, Note_off_c, 4, 64, 100
6, 8640, Note_on_c, 4, 67, 100
6, 8768, Note_off_c, 4, 67, 100
6, 8832, Note_on_c, 4, 66, 100
6, 8960, Note_off_c, 4, 66, 100
6, 9024, Note_on_c, 4, 67, 100
6, 9152, Note_off_c, 4, 67, 100
6, 9216, Note_on_c, 4, 69, 100
6, 9344, Note_off_c, 4, 69, 100
6, 9408, Note_on_c, 4, 64, 100
6, 9536, Note_off_c, 4, 64, 100
6, 9600, Note_on_c, 4, 69, 100
6, 9728, Note_off_c, 4, 69, 100
6, 9792, Note_on_c, 4, 73, 100
6, 9920, Note_off_c, 4, 73, 100
6, 9984, Note_on_c, 4, 71, 100
6, 10048, Note_off_c, 4, 71, 100
6, 10080, Note_on_c, 4, 69, 100
6, 10144, Note_off_c, 4, 69, 100
6, 10176, Note_on_c, 4, 67, 100
6, 10304, Note_off_c, 4, 67, 100
6, 10368, Note_on_c, 4, 69, 100
6, 10496, Note_off_c, 4, 69, 100
6, 10560, Note_on_c, 4, 64, 100
6, 10688, Note_off_c, 4, 64, 100
6, 10752, Note_on_c, 4, 69, 100
6, 10880, Note_off_c, 4, 69, 100
6, 10944, Note_on_c, 4, 73, 100
6, 11072, Note_off_c, 4, 73, 100
6, 11136, Note_on_c, 4, 71, 100
6, 11200, Note_off_c, 4, 71, 100
6, 11232, Note_on_c, 4, 69, 100
6, 11296, Note_off_c, 4, 69, 100
6, 11328, Note_on_c, 4, 67, 100
6, 11456, Note_off_c, 4, 67, 100
6, 11520, Note_on_c, 4, 69, 100
6, 11648, Note_off_c, 4, 69, 100
6, 11712, Note_on_c, 4, 64, 100
6, 11840, Note_off_c, 4, 64, 100
6, 11904, Note_on_c, 4, 69, 100
6, 12032, Note_off_c, 4, 69, 100
6, 12096, Note_on_c, 4, 73, 100
6, 12224, Note_off_c, 4, 73, 100
6, 12288, Note_on_c, 4, 71, 100
6, 12352, Note_off_c, 4, 71, 100
6, 12384, Note_on_c, 4, 69, 100
6, 12448, Note_off_c, 4, 69, 100
6, 12480, Note_on_c, 4, 67, 100
6, 12608, Note_off_c, 4, 67, 100
6, 12672, Note_on_c, 4, 69, 100
6, 14212, Note_off_c, 4, 69, 100
6, 15552, Note_on_c, 4, 69, 100
6, 15680, Note_off_c, 4, 69, 100
6, 15744, Note_on_c, 4, 68, 100
6, 15872, Note_off_c, 4, 68, 100
6, 15936, Note_on_c, 4, 67, 100
6, 16064, Note_off_c, 4, 67, 100
6, 16128, Note_on_c, 4, 65, 100
6, 16512, Note_on_c, 4, 65, 100
6, 16576, Note_off_c, 4, 65, 100
6, 16608, Note_on_c, 4, 69, 100
6, 16672, Note_off_c, 4, 69, 100
6, 16704, Note_on_c, 4, 72, 100
6, 16768, Note_off_c, 4, 72, 100
6, 16800, Note_on_c, 4, 69, 100
6, 17056, Note_off_c, 4, 69, 100
6, 17156, Note_off_c, 4, 65, 100
6, 17664, Note_on_c, 4, 68, 100
6, 17728, Note_off_c, 4, 68, 100
6, 17760, Note_on_c, 4, 65, 100
6, 17824, Note_off_c, 4, 65, 100
6, 17856, Note_on_c, 4, 68, 100
6, 17920, Note_off_c, 4, 68, 100
6, 17952, Note_on_c, 4, 65, 100
6, 18016, Note_off_c, 4, 65, 100
6, 18048, Note_on_c, 4, 61, 100
6, 18304, Note_off_c, 4, 61, 100
6, 18816, Note_on_c, 4, 65, 100
6, 18880, Note_off_c, 4, 65, 100
6, 18912, Note_on_c, 4, 69, 100
6, 18976, Note_off_c, 4, 69, 100
6, 19008, Note_on_c, 4, 72, 100
6, 19072, Note_off_c, 4, 72, 100
6, 19104, Note_on_c, 4, 69, 100
6, 19360, Note_off_c, 4, 69, 100
6, 19968, Note_on_c, 4, 68, 100
6, 20032, Note_off_c, 4, 68, 100
6, 20064, Note_on_c, 4, 65, 100
6, 20128, Note_off_c, 4, 65, 100
6, 20160, Note_on_c, 4, 68, 100
6, 20224, Note_off_c, 4, 68, 100
6, 20256, Note_on_c, 4, 65, 100
6, 20320, Note_off_c, 4, 65, 100
6, 20352, Note_on_c, 4, 68, 100
6, 20608, Note_off_c, 4, 68, 100
6, 20736, Note_on_c, 4, 66, 100
6, 20864, Note_off_c, 4, 66, 100
6, 20928, Note_on_c, 4, 68, 100
6, 21056, Note_off_c, 4, 68, 100
6, 21120, Note_on_c, 4, 69, 100
6, 21248, Note_off_c, 4, 69, 100
6, 21504, Note_on_c, 4, 71, 100
6, 21760, Note_off_c, 4, 71, 100
6, 21888, Note_on_c, 4, 66, 100
6, 21888, Note_on_c, 4, 69, 100
6, 21888, Note_on_c, 4, 73, 100
6, 23428, Note_off_c, 4, 69, 100
6, 23428, Note_off_c, 4, 66, 100
6, 23428, Note_off_c, 4, 73, 100
6, 24192, Note_on_c, 4, 74, 100
6, 24704, Note_off_c, 4, 74, 100
6, 24768, Note_on_c, 4, 76, 100
6, 24896, Note_off_c, 4, 76, 100
6, 24960, Note_on_c, 4, 74, 100
6, 25216, Note_off_c, 4, 74, 100
6, 25344, Note_on_c, 4, 70, 100
6, 25600, Note_off_c, 4, 70, 100
6, 25728, Note_on_c, 4, 74, 100
6, 25984, Note_off_c, 4, 74, 100
6, 26112, Note_on_c, 4, 77, 100
6, 26368, Note_off_c, 4, 77, 100
6, 26496, Note_on_c, 4, 81, 100
6, 26752, Note_off_c, 4, 81, 100
6, 26880, Note_on_c, 4, 77, 100
6, 27136, Note_off_c, 4, 77, 100
6, 27264, Note_on_c, 4, 72, 100
6, 27520, Note_off_c, 4, 72, 100
6, 27648, Note_on_c, 4, 75, 100
6, 28676, Note_off_c, 4, 75, 100
6, 28800, Note_on_c, 4, 74, 100
6, 29312, Note_off_c, 4, 74, 100
6, 29376, Note_on_c, 4, 73, 100
6, 29504, Note_off_c, 4, 73, 100
6, 29568, Note_on_c, 4, 72, 100
6, 29696, Note_off_c, 4, 72, 100
6, 29760, Note_on_c, 4, 71, 100
6, 29888, Note_off_c, 4, 71, 100
6, 29952, Note_on_c, 4, 70, 100
6, 30080, Note_off_c, 4, 70, 100
6, 30144, Note_on_c, 4, 72, 100
6, 30272, Note_off_c, 4, 72, 100
6, 30336, Note_on_c, 4, 69, 100
6, 30848, Note_off_c, 4, 69, 100
6, 31104, Note_on_c, 4, 72, 100
6, 31360, Note_off_c, 4, 72, 100
6, 31488, Note_on_c, 4, 76, 100
6, 31744, Note_off_c, 4, 76, 100
6, 31872, Note_on_c, 4, 69, 100
6, 32128, Note_off_c, 4, 69, 100
6, 32256, Note_on_c, 4, 71, 100
6, 32768, Note_off_c, 4, 71, 100
6, 33024, Note_on_c, 4, 67, 100
6, 33152, Note_off_c, 4, 67, 100
6, 33216, Note_on_c, 4, 66, 100
6, 33280, Note_off_c, 4, 66, 100
6, 33312, Note_on_c, 4, 65, 100
6, 33376, Note_off_c, 4, 65, 100
6, 33376, End_track
7, 0, Start_track
7, 0, End_track
8, 0, Start_track
8, 0, End_track
9, 0, Start_track
9, 0, End_track
10, 0, Start_track
10, 0, End_track
11, 0, Start_track
11, 0, End_track
12, 0, Start_track
12, 0, Control_c, 9, 0, 0
12, 0, Program_c, 9, 0
12, 0, End_track
13, 0, Start_track
13, 0, End_track
14, 0, Start_track
14, 0, End_track
15, 0, Start_track
15, 0, End_track
16, 0, Start_track
16, 0, End_track
17, 0, Start_track
17, 0, End_track
18, 0, Start_track
18, 0, End_track
0, 0, End_of_file
