0, 0, Header, 1, 26, 192
1, 0, Start_track
1, 0, Sequencer_specific, 10, 0, 0, 91, 35, 2, 0, 3, 0, 51, 0
1, 0, Title_t, "La Mer: 2. Jeux de vagues"
1, 0, MIDI_port, 0
1, 0, Tempo, 550458
1, 0, Copyright_t, "Copyright © 2005 by Dario Galimberti"
1, 0, Time_signature, 3, 2, 24, 8
1, 0, Key_signature, 4, "major"
1, 576, Text_t, "La Mer: 2. Jeux de vagues"
1, 576, Text_t, "by Claude Debussy (1862-1918)"
1, 2880, Tempo, 526315
1, 4032, Tempo, 500000
1, 4608, Tempo, 550458
1, 5184, Tempo, 526315
1, 5760, Tempo, 618556
1, 5760, Key_signature, 0, "major"
1, 5760, Time_signature, 3, 3, 36, 8
1, 6336, Tempo, 759493
1, 8352, Tempo, 810810
1, 8352, Key_signature, 7, "major"
1, 10944, Tempo, 750000
1, 11232, Key_signature, 0, "major"
1, 12672, Tempo, 800000
1, 12768, Tempo, 833333
1, 12864, Tempo, 869565
1, 12960, Tempo, 909090
1, 13056, Tempo, 952380
1, 13152, Tempo, 1000000
1, 13248, Tempo, 1052631
1, 13344, Tempo, 1176470
1, 13440, Tempo, 1714285
1, 13536, Tempo, 431654
1, 13536, Key_signature, 4, "major"
1, 13536, Time_signature, 3, 2, 24, 8
1, 18144, Tempo, 465116
1, 19296, Tempo, 444444
1, 19488, Tempo, 428571
1, 19680, Tempo, 408163
1, 21600, Tempo, 504201
1, 22752, Tempo, 408163
1, 23904, Tempo, 526315
1, 25632, Tempo, 560747
1, 26208, Tempo, 606060
1, 28512, Tempo, 571428
1, 30240, Tempo, 606060
1, 30432, Tempo, 652173
1, 30624, Tempo, 600000
1, 30816, Tempo, 618556
1, 31392, Tempo, 576923
1, 31968, Tempo, 545454
1, 32544, Tempo, 521739
1, 33120, Tempo, 550458
1, 34272, Tempo, 582524
1, 34272, Key_signature, 0, "major"
1, 34848, Tempo, 560747
1, 35424, Tempo, 600000
1, 36000, Tempo, 631578
1, 38304, Tempo, 594059
1, 38880, Tempo, 555555
1, 39456, Tempo, 526315
1, 39648, Tempo, 550458
1, 39840, Tempo, 571428
1, 40032, Tempo, 659340
1, 40608, Tempo, 618556
1, 41760, Tempo, 600000
1, 42336, Tempo, 571428
1, 45408, Tempo, 594059
1, 45600, Tempo, 618556
1, 45792, Tempo, 571428
1, 45792, Key_signature, 3, "major"
1, 46944, Tempo, 594059
1, 47136, Tempo, 625000
1, 47328, Tempo, 645161
1, 48672, Tempo, 606060
1, 50208, Tempo, 659340
1, 50400, Tempo, 705882
1, 50976, Tempo, 666666
1, 51552, Tempo, 606060
1, 52128, Tempo, 659340
1, 52512, Tempo, 681818
1, 52704, Tempo, 566037
1, 53856, Tempo, 594059
1, 54432, Tempo, 625000
1, 57312, Tempo, 600000
1, 64800, Tempo, 582524
1, 67680, Tempo, 550458
1, 78624, Tempo, 500000
1, 86688, Tempo, 400000
1, 86688, Key_signature, 4, "major"
1, 91296, Tempo, 422535
1, 94176, Tempo, 410958
1, 94752, Tempo, 400000
1, 95328, Tempo, 387096
1, 95904, Tempo, 413793
1, 100512, Tempo, 387096
1, 107424, Tempo, 408163
1, 108000, Tempo, 400000
1, 108576, Tempo, 387096
1, 112032, Tempo, 419580
1, 112608, Tempo, 394736
1, 113184, Tempo, 382165
1, 116640, Tempo, 394736
1, 120096, Tempo, 410958
1, 120672, Tempo, 422535
1, 121248, Tempo, 447761
1, 121824, Tempo, 472440
1, 125856, Tempo, 512820
1, 129312, Tempo, 468750
1, 135072, Tempo, 504201
1, 136224, Tempo, 458015
1, 136416, Tempo, 468750
1, 136608, Tempo, 476190
1, 136800, Tempo, 495867
1, 139104, Tempo, 483870
1, 139680, Tempo, 461538
1, 140256, Tempo, 444444
1, 140832, Tempo, 571428
1, 141408, Tempo, 600000
1, 141408, End_track
2, 0, Start_track
2, 0, Title_t, "Flauti I - II"
2, 0, MIDI_port, 0
2, 2880, Control_c, 0, 11, 64
2, 2880, Note_on_c, 0, 81, 62
2, 2880, Note_on_c, 0, 85, 59
2, 2889, Control_c, 0, 11, 65
2, 2898, Control_c, 0, 11, 66
2, 2907, Control_c, 0, 11, 67
2, 2916, Control_c, 0, 11, 68
2, 2925, Control_c, 0, 11, 69
2, 2934, Control_c, 0, 11, 70
2, 2944, Control_c, 0, 11, 71
2, 2953, Control_c, 0, 11, 72
2, 2962, Control_c, 0, 11, 73
2, 2971, Control_c, 0, 11, 74
2, 2980, Control_c, 0, 11, 75
2, 2989, Control_c, 0, 11, 76
2, 2998, Control_c, 0, 11, 77
2, 3008, Control_c, 0, 11, 78
2, 3017, Control_c, 0, 11, 79
2, 3026, Control_c, 0, 11, 80
2, 3035, Control_c, 0, 11, 81
2, 3044, Control_c, 0, 11, 82
2, 3053, Control_c, 0, 11, 83
2, 3062, Control_c, 0, 11, 84
2, 3072, Control_c, 0, 11, 85
2, 3081, Control_c, 0, 11, 86
2, 3090, Control_c, 0, 11, 87
2, 3099, Control_c, 0, 11, 88
2, 3108, Control_c, 0, 11, 89
2, 3117, Control_c, 0, 11, 90
2, 3126, Control_c, 0, 11, 91
2, 3136, Control_c, 0, 11, 92
2, 3145, Control_c, 0, 11, 93
2, 3154, Control_c, 0, 11, 94
2, 3163, Control_c, 0, 11, 95
2, 3172, Control_c, 0, 11, 96
2, 3181, Control_c, 0, 11, 97
2, 3190, Control_c, 0, 11, 98
2, 3200, Control_c, 0, 11, 99
2, 3209, Control_c, 0, 11, 100
2, 3218, Control_c, 0, 11, 101
2, 3227, Control_c, 0, 11, 102
2, 3236, Control_c, 0, 11, 103
2, 3245, Control_c, 0, 11, 104
2, 3254, Control_c, 0, 11, 105
2, 3264, Control_c, 0, 11, 106
2, 3273, Control_c, 0, 11, 107
2, 3282, Control_c, 0, 11, 108
2, 3291, Control_c, 0, 11, 109
2, 3300, Control_c, 0, 11, 110
2, 3309, Control_c, 0, 11, 111
2, 3318, Control_c, 0, 11, 112
2, 3328, Control_c, 0, 11, 113
2, 3337, Control_c, 0, 11, 114
2, 3346, Control_c, 0, 11, 115
2, 3355, Control_c, 0, 11, 116
2, 3364, Control_c, 0, 11, 117
2, 3373, Control_c, 0, 11, 118
2, 3382, Control_c, 0, 11, 119
2, 3392, Control_c, 0, 11, 120
2, 3401, Control_c, 0, 11, 121
2, 3410, Control_c, 0, 11, 122
2, 3419, Control_c, 0, 11, 123
2, 3428, Control_c, 0, 11, 124
2, 3437, Control_c, 0, 11, 125
2, 3446, Control_c, 0, 11, 126
2, 3456, Control_c, 0, 11, 127
2, 3696, Note_on_c, 0, 81, 0
2, 3696, Note_on_c, 0, 85, 0
2, 3696, Note_on_c, 0, 80, 56
2, 3696, Note_on_c, 0, 84, 62
2, 3744, Note_on_c, 0, 80, 0
2, 3744, Note_on_c, 0, 84, 0
2, 3744, Note_on_c, 0, 79, 56
2, 3744, Note_on_c, 0, 83, 64
2, 3776, Note_on_c, 0, 79, 0
2, 3776, Note_on_c, 0, 83, 0
2, 3776, Note_on_c, 0, 78, 55
2, 3776, Note_on_c, 0, 82, 61
2, 3808, Note_on_c, 0, 78, 0
2, 3808, Note_on_c, 0, 82, 0
2, 3808, Note_on_c, 0, 77, 56
2, 3808, Note_on_c, 0, 81, 59
2, 3840, Note_on_c, 0, 77, 0
2, 3840, Note_on_c, 0, 81, 0
2, 3840, Control_c, 0, 11, 127
2, 3840, Note_on_c, 0, 75, 64
2, 3840, Note_on_c, 0, 77, 61
2, 3845, Control_c, 0, 11, 126
2, 3850, Control_c, 0, 11, 125
2, 3856, Control_c, 0, 11, 124
2, 3861, Control_c, 0, 11, 123
2, 3867, Control_c, 0, 11, 122
2, 3872, Control_c, 0, 11, 121
2, 3878, Control_c, 0, 11, 120
2, 3883, Control_c, 0, 11, 119
2, 3888, Note_on_c, 0, 75, 0
2, 3888, Note_on_c, 0, 77, 0
2, 3888, Note_on_c, 0, 73, 61
2, 3888, Note_on_c, 0, 77, 59
2, 3889, Control_c, 0, 11, 118
2, 3894, Control_c, 0, 11, 117
2, 3900, Control_c, 0, 11, 116
2, 3905, Control_c, 0, 11, 115
2, 3911, Control_c, 0, 11, 114
2, 3916, Control_c, 0, 11, 113
2, 3922, Control_c, 0, 11, 112
2, 3927, Control_c, 0, 11, 111
2, 3933, Control_c, 0, 11, 110
2, 3936, Note_on_c, 0, 73, 0
2, 3936, Note_on_c, 0, 77, 0
2, 3936, Note_on_c, 0, 72, 64
2, 3936, Note_on_c, 0, 76, 55
2, 3938, Control_c, 0, 11, 109
2, 3944, Control_c, 0, 11, 108
2, 3949, Control_c, 0, 11, 107
2, 3955, Control_c, 0, 11, 106
2, 3960, Control_c, 0, 11, 105
2, 3966, Control_c, 0, 11, 104
2, 3968, Note_on_c, 0, 72, 0
2, 3968, Note_on_c, 0, 76, 0
2, 3968, Note_on_c, 0, 69, 61
2, 3968, Note_on_c, 0, 72, 64
2, 3971, Control_c, 0, 11, 103
2, 3977, Control_c, 0, 11, 102
2, 3982, Control_c, 0, 11, 101
2, 3988, Control_c, 0, 11, 100
2, 3993, Control_c, 0, 11, 99
2, 3999, Control_c, 0, 11, 98
2, 4000, Note_on_c, 0, 69, 0
2, 4000, Note_on_c, 0, 72, 0
2, 4000, Note_on_c, 0, 66, 63
2, 4000, Note_on_c, 0, 69, 61
2, 4004, Control_c, 0, 11, 97
2, 4010, Control_c, 0, 11, 96
2, 4015, Control_c, 0, 11, 95
2, 4021, Control_c, 0, 11, 94
2, 4026, Control_c, 0, 11, 93
2, 4032, Note_on_c, 0, 66, 0
2, 4032, Note_on_c, 0, 69, 0
2, 4032, Control_c, 0, 11, 92
2, 4032, Note_on_c, 0, 62, 62
2, 4032, Note_on_c, 0, 66, 65
2, 4126, Note_on_c, 0, 62, 0
2, 4126, Note_on_c, 0, 66, 0
2, 4608, Note_on_c, 0, 62, 44
2, 4608, Note_on_c, 0, 66, 41
2, 4630, Note_on_c, 0, 62, 0
2, 4630, Note_on_c, 0, 66, 0
2, 4632, Note_on_c, 0, 64, 43
2, 4632, Note_on_c, 0, 68, 40
2, 4654, Note_on_c, 0, 64, 0
2, 4654, Note_on_c, 0, 68, 0
2, 4656, Note_on_c, 0, 62, 44
2, 4656, Note_on_c, 0, 66, 45
2, 4678, Note_on_c, 0, 62, 0
2, 4678, Note_on_c, 0, 66, 0
2, 4680, Note_on_c, 0, 64, 44
2, 4680, Note_on_c, 0, 68, 43
2, 4702, Note_on_c, 0, 64, 0
2, 4702, Note_on_c, 0, 68, 0
2, 4704, Note_on_c, 0, 62, 44
2, 4704, Note_on_c, 0, 66, 44
2, 4726, Note_on_c, 0, 62, 0
2, 4726, Note_on_c, 0, 66, 0
2, 4728, Note_on_c, 0, 64, 45
2, 4728, Note_on_c, 0, 68, 48
2, 4750, Note_on_c, 0, 64, 0
2, 4750, Note_on_c, 0, 68, 0
2, 4752, Note_on_c, 0, 62, 54
2, 4752, Note_on_c, 0, 66, 48
2, 4774, Note_on_c, 0, 62, 0
2, 4774, Note_on_c, 0, 66, 0
2, 4776, Note_on_c, 0, 64, 50
2, 4776, Note_on_c, 0, 68, 47
2, 4798, Note_on_c, 0, 64, 0
2, 4798, Note_on_c, 0, 68, 0
2, 4800, Note_on_c, 0, 62, 50
2, 4800, Note_on_c, 0, 66, 52
2, 4822, Note_on_c, 0, 62, 0
2, 4822, Note_on_c, 0, 66, 0
2, 4824, Note_on_c, 0, 64, 57
2, 4824, Note_on_c, 0, 68, 58
2, 4846, Note_on_c, 0, 64, 0
2, 4846, Note_on_c, 0, 68, 0
2, 4848, Note_on_c, 0, 62, 57
2, 4848, Note_on_c, 0, 66, 56
2, 4870, Note_on_c, 0, 62, 0
2, 4870, Note_on_c, 0, 66, 0
2, 4872, Note_on_c, 0, 64, 52
2, 4872, Note_on_c, 0, 68, 55
2, 4894, Note_on_c, 0, 64, 0
2, 4894, Note_on_c, 0, 68, 0
2, 4896, Note_on_c, 0, 62, 52
2, 4896, Note_on_c, 0, 66, 53
2, 4918, Note_on_c, 0, 62, 0
2, 4918, Note_on_c, 0, 66, 0
2, 4920, Note_on_c, 0, 64, 59
2, 4920, Note_on_c, 0, 68, 55
2, 4942, Note_on_c, 0, 64, 0
2, 4942, Note_on_c, 0, 68, 0
2, 4944, Note_on_c, 0, 62, 59
2, 4944, Note_on_c, 0, 66, 59
2, 4966, Note_on_c, 0, 62, 0
2, 4966, Note_on_c, 0, 66, 0
2, 4968, Note_on_c, 0, 64, 62
2, 4968, Note_on_c, 0, 68, 55
2, 4990, Note_on_c, 0, 64, 0
2, 4990, Note_on_c, 0, 68, 0
2, 4992, Note_on_c, 0, 62, 44
2, 4992, Note_on_c, 0, 66, 40
2, 5014, Note_on_c, 0, 62, 0
2, 5014, Note_on_c, 0, 66, 0
2, 5016, Note_on_c, 0, 64, 48
2, 5016, Note_on_c, 0, 68, 50
2, 5038, Note_on_c, 0, 64, 0
2, 5038, Note_on_c, 0, 68, 0
2, 5040, Note_on_c, 0, 62, 48
2, 5040, Note_on_c, 0, 66, 42
2, 5062, Note_on_c, 0, 62, 0
2, 5062, Note_on_c, 0, 66, 0
2, 5064, Note_on_c, 0, 64, 41
2, 5064, Note_on_c, 0, 68, 43
2, 5086, Note_on_c, 0, 64, 0
2, 5086, Note_on_c, 0, 68, 0
2, 5088, Note_on_c, 0, 62, 40
2, 5088, Note_on_c, 0, 66, 34
2, 5110, Note_on_c, 0, 62, 0
2, 5110, Note_on_c, 0, 66, 0
2, 5112, Note_on_c, 0, 64, 36
2, 5112, Note_on_c, 0, 68, 33
2, 5134, Note_on_c, 0, 64, 0
2, 5134, Note_on_c, 0, 68, 0
2, 5136, Note_on_c, 0, 62, 36
2, 5136, Note_on_c, 0, 66, 39
2, 5158, Note_on_c, 0, 62, 0
2, 5158, Note_on_c, 0, 66, 0
2, 5160, Note_on_c, 0, 64, 31
2, 5160, Note_on_c, 0, 68, 34
2, 5182, Note_on_c, 0, 64, 0
2, 5182, Note_on_c, 0, 68, 0
2, 5184, Note_on_c, 0, 63, 33
2, 5184, Note_on_c, 0, 66, 34
2, 5216, Note_on_c, 0, 63, 0
2, 5216, Note_on_c, 0, 66, 0
2, 7488, Control_c, 0, 11, 92
2, 7776, Note_on_c, 0, 74, 61
2, 7797, Note_on_c, 0, 74, 0
2, 7808, Note_on_c, 0, 72, 62
2, 7829, Note_on_c, 0, 72, 0
2, 7840, Note_on_c, 0, 72, 60
2, 7861, Note_on_c, 0, 72, 0
2, 7872, Note_on_c, 0, 72, 65
2, 7893, Note_on_c, 0, 72, 0
2, 7904, Note_on_c, 0, 74, 61
2, 7925, Note_on_c, 0, 74, 0
2, 7936, Note_on_c, 0, 76, 57
2, 7957, Note_on_c, 0, 76, 0
2, 7968, Note_on_c, 0, 76, 61
2, 7973, Note_on_c, 0, 76, 0
2, 7976, Note_on_c, 0, 74, 58
2, 7992, Note_on_c, 0, 74, 0
2, 8000, Note_on_c, 0, 72, 60
2, 8021, Note_on_c, 0, 72, 0
2, 8032, Note_on_c, 0, 72, 56
2, 8053, Note_on_c, 0, 72, 0
2, 8064, Control_c, 0, 11, 92
2, 8064, Note_on_c, 0, 72, 57
2, 8072, Control_c, 0, 11, 93
2, 8080, Control_c, 0, 11, 94
2, 8085, Note_on_c, 0, 72, 0
2, 8088, Control_c, 0, 11, 95
2, 8096, Control_c, 0, 11, 96
2, 8096, Note_on_c, 0, 74, 64
2, 8105, Control_c, 0, 11, 97
2, 8113, Control_c, 0, 11, 98
2, 8117, Note_on_c, 0, 74, 0
2, 8121, Control_c, 0, 11, 99
2, 8128, Note_on_c, 0, 76, 63
2, 8129, Control_c, 0, 11, 100
2, 8138, Control_c, 0, 11, 101
2, 8146, Control_c, 0, 11, 102
2, 8149, Note_on_c, 0, 76, 0
2, 8154, Control_c, 0, 11, 103
2, 8160, Note_on_c, 0, 76, 55
2, 8162, Control_c, 0, 11, 104
2, 8165, Note_on_c, 0, 76, 0
2, 8168, Note_on_c, 0, 74, 60
2, 8170, Control_c, 0, 11, 105
2, 8179, Control_c, 0, 11, 106
2, 8184, Note_on_c, 0, 74, 0
2, 8187, Control_c, 0, 11, 107
2, 8192, Note_on_c, 0, 72, 56
2, 8195, Control_c, 0, 11, 108
2, 8203, Control_c, 0, 11, 109
2, 8212, Control_c, 0, 11, 110
2, 8213, Note_on_c, 0, 72, 0
2, 8220, Control_c, 0, 11, 111
2, 8224, Note_on_c, 0, 72, 61
2, 8228, Control_c, 0, 11, 112
2, 8236, Control_c, 0, 11, 113
2, 8245, Note_on_c, 0, 72, 0
2, 8245, Control_c, 0, 11, 114
2, 8253, Control_c, 0, 11, 115
2, 8256, Note_on_c, 0, 72, 64
2, 8261, Control_c, 0, 11, 116
2, 8269, Control_c, 0, 11, 117
2, 8277, Note_on_c, 0, 72, 0
2, 8277, Control_c, 0, 11, 118
2, 8286, Control_c, 0, 11, 119
2, 8288, Note_on_c, 0, 74, 58
2, 8294, Control_c, 0, 11, 120
2, 8302, Control_c, 0, 11, 121
2, 8309, Note_on_c, 0, 74, 0
2, 8310, Control_c, 0, 11, 122
2, 8319, Control_c, 0, 11, 123
2, 8320, Note_on_c, 0, 76, 57
2, 8327, Control_c, 0, 11, 124
2, 8335, Control_c, 0, 11, 125
2, 8343, Control_c, 0, 11, 126
2, 8350, Note_on_c, 0, 76, 0
2, 8352, Control_c, 0, 11, 127
2, 10944, Control_c, 0, 7, 92
2, 11232, Control_c, 0, 11, 127
2, 11520, Note_on_c, 0, 84, 97
2, 11520, Note_on_c, 0, 92, 87
2, 11566, Note_on_c, 0, 84, 0
2, 11566, Note_on_c, 0, 92, 0
2, 11568, Note_on_c, 0, 80, 95
2, 11568, Note_on_c, 0, 89, 97
2, 11578, Note_on_c, 0, 80, 0
2, 11578, Note_on_c, 0, 89, 0
2, 11584, Note_on_c, 0, 77, 97
2, 11584, Note_on_c, 0, 86, 96
2, 11605, Note_on_c, 0, 77, 0
2, 11605, Note_on_c, 0, 86, 0
2, 11616, Note_on_c, 0, 72, 97
2, 11616, Note_on_c, 0, 80, 102
2, 11637, Note_on_c, 0, 72, 0
2, 11637, Note_on_c, 0, 80, 0
2, 11648, Note_on_c, 0, 68, 108
2, 11648, Note_on_c, 0, 77, 104
2, 11669, Note_on_c, 0, 68, 0
2, 11669, Note_on_c, 0, 77, 0
2, 11680, Note_on_c, 0, 65, 110
2, 11680, Note_on_c, 0, 74, 110
2, 11701, Note_on_c, 0, 65, 0
2, 11701, Note_on_c, 0, 74, 0
2, 12096, Note_on_c, 0, 84, 94
2, 12096, Note_on_c, 0, 92, 94
2, 12142, Note_on_c, 0, 84, 0
2, 12142, Note_on_c, 0, 92, 0
2, 12144, Note_on_c, 0, 80, 93
2, 12144, Note_on_c, 0, 89, 91
2, 12154, Note_on_c, 0, 80, 0
2, 12154, Note_on_c, 0, 89, 0
2, 12160, Note_on_c, 0, 77, 93
2, 12160, Note_on_c, 0, 86, 96
2, 12181, Note_on_c, 0, 77, 0
2, 12181, Note_on_c, 0, 86, 0
2, 12192, Note_on_c, 0, 72, 98
2, 12192, Note_on_c, 0, 80, 98
2, 12213, Note_on_c, 0, 72, 0
2, 12213, Note_on_c, 0, 80, 0
2, 12224, Note_on_c, 0, 68, 99
2, 12224, Note_on_c, 0, 77, 107
2, 12245, Note_on_c, 0, 68, 0
2, 12245, Note_on_c, 0, 77, 0
2, 12256, Note_on_c, 0, 65, 110
2, 12256, Note_on_c, 0, 74, 112
2, 12277, Note_on_c, 0, 65, 0
2, 12277, Note_on_c, 0, 74, 0
2, 13536, Control_c, 0, 11, 92
2, 13536, Note_on_c, 0, 72, 64
2, 13536, Note_on_c, 0, 84, 59
2, 13541, Control_c, 0, 11, 93
2, 13546, Control_c, 0, 11, 94
2, 13552, Control_c, 0, 11, 95
2, 13557, Control_c, 0, 11, 96
2, 13563, Control_c, 0, 11, 97
2, 13568, Control_c, 0, 11, 98
2, 13574, Control_c, 0, 11, 99
2, 13579, Control_c, 0, 11, 100
2, 13585, Control_c, 0, 11, 101
2, 13590, Control_c, 0, 11, 102
2, 13596, Control_c, 0, 11, 103
2, 13601, Control_c, 0, 11, 104
2, 13607, Control_c, 0, 11, 105
2, 13612, Control_c, 0, 11, 106
2, 13618, Control_c, 0, 11, 107
2, 13623, Control_c, 0, 11, 108
2, 13629, Control_c, 0, 11, 109
2, 13634, Control_c, 0, 11, 110
2, 13640, Control_c, 0, 11, 111
2, 13645, Control_c, 0, 11, 112
2, 13651, Control_c, 0, 11, 113
2, 13656, Control_c, 0, 11, 114
2, 13662, Control_c, 0, 11, 115
2, 13667, Control_c, 0, 11, 116
2, 13673, Control_c, 0, 11, 117
2, 13678, Control_c, 0, 11, 118
2, 13684, Control_c, 0, 11, 119
2, 13689, Control_c, 0, 11, 120
2, 13695, Control_c, 0, 11, 121
2, 13700, Control_c, 0, 11, 122
2, 13706, Control_c, 0, 11, 123
2, 13711, Control_c, 0, 11, 124
2, 13717, Control_c, 0, 11, 125
2, 13722, Control_c, 0, 11, 126
2, 13728, Control_c, 0, 11, 127
2, 14064, Note_on_c, 0, 72, 0
2, 14064, Note_on_c, 0, 84, 0
2, 14112, Control_c, 0, 11, 92
2, 14112, Note_on_c, 0, 72, 58
2, 14112, Note_on_c, 0, 84, 65
2, 14117, Control_c, 0, 11, 93
2, 14122, Control_c, 0, 11, 94
2, 14128, Control_c, 0, 11, 95
2, 14133, Control_c, 0, 11, 96
2, 14139, Control_c, 0, 11, 97
2, 14144, Control_c, 0, 11, 98
2, 14150, Control_c, 0, 11, 99
2, 14155, Control_c, 0, 11, 100
2, 14161, Control_c, 0, 11, 101
2, 14166, Control_c, 0, 11, 102
2, 14172, Control_c, 0, 11, 103
2, 14177, Control_c, 0, 11, 104
2, 14183, Control_c, 0, 11, 105
2, 14188, Control_c, 0, 11, 106
2, 14194, Control_c, 0, 11, 107
2, 14199, Control_c, 0, 11, 108
2, 14205, Control_c, 0, 11, 109
2, 14210, Control_c, 0, 11, 110
2, 14216, Control_c, 0, 11, 111
2, 14221, Control_c, 0, 11, 112
2, 14227, Control_c, 0, 11, 113
2, 14232, Control_c, 0, 11, 114
2, 14238, Control_c, 0, 11, 115
2, 14243, Control_c, 0, 11, 116
2, 14249, Control_c, 0, 11, 117
2, 14254, Control_c, 0, 11, 118
2, 14260, Control_c, 0, 11, 119
2, 14265, Control_c, 0, 11, 120
2, 14271, Control_c, 0, 11, 121
2, 14276, Control_c, 0, 11, 122
2, 14282, Control_c, 0, 11, 123
2, 14287, Control_c, 0, 11, 124
2, 14293, Control_c, 0, 11, 125
2, 14298, Control_c, 0, 11, 126
2, 14304, Control_c, 0, 11, 127
2, 14640, Note_on_c, 0, 72, 0
2, 14640, Note_on_c, 0, 84, 0
2, 14688, Note_on_c, 0, 84, 49
2, 14880, Note_on_c, 0, 84, 0
2, 14880, Note_on_c, 0, 83, 47
2, 15072, Note_on_c, 0, 83, 0
2, 15072, Note_on_c, 0, 80, 40
2, 15264, Note_on_c, 0, 80, 0
2, 15264, Note_on_c, 0, 79, 45
2, 15456, Note_on_c, 0, 79, 0
2, 15456, Note_on_c, 0, 80, 45
2, 15648, Note_on_c, 0, 80, 0
2, 15648, Note_on_c, 0, 83, 49
2, 15808, Note_on_c, 0, 83, 0
2, 15840, Control_c, 0, 11, 92
2, 15840, Note_on_c, 0, 84, 62
2, 15845, Control_c, 0, 11, 93
2, 15850, Control_c, 0, 11, 94
2, 15856, Control_c, 0, 11, 95
2, 15861, Control_c, 0, 11, 96
2, 15867, Control_c, 0, 11, 97
2, 15872, Control_c, 0, 11, 98
2, 15878, Control_c, 0, 11, 99
2, 15883, Control_c, 0, 11, 100
2, 15889, Control_c, 0, 11, 101
2, 15894, Control_c, 0, 11, 102
2, 15900, Control_c, 0, 11, 103
2, 15905, Control_c, 0, 11, 104
2, 15911, Control_c, 0, 11, 105
2, 15916, Control_c, 0, 11, 106
2, 15922, Control_c, 0, 11, 107
2, 15927, Control_c, 0, 11, 108
2, 15933, Control_c, 0, 11, 109
2, 15938, Control_c, 0, 11, 110
2, 15944, Control_c, 0, 11, 111
2, 15949, Control_c, 0, 11, 112
2, 15955, Control_c, 0, 11, 113
2, 15960, Control_c, 0, 11, 114
2, 15966, Control_c, 0, 11, 115
2, 15971, Control_c, 0, 11, 116
2, 15977, Control_c, 0, 11, 117
2, 15982, Control_c, 0, 11, 118
2, 15988, Control_c, 0, 11, 119
2, 15993, Control_c, 0, 11, 120
2, 15999, Control_c, 0, 11, 121
2, 16004, Control_c, 0, 11, 122
2, 16010, Control_c, 0, 11, 123
2, 16015, Control_c, 0, 11, 124
2, 16021, Control_c, 0, 11, 125
2, 16026, Control_c, 0, 11, 126
2, 16032, Control_c, 0, 11, 127
2, 16368, Note_on_c, 0, 84, 0
2, 16416, Control_c, 0, 11, 92
2, 16416, Note_on_c, 0, 84, 58
2, 16421, Control_c, 0, 11, 93
2, 16426, Control_c, 0, 11, 94
2, 16432, Control_c, 0, 11, 95
2, 16437, Control_c, 0, 11, 96
2, 16443, Control_c, 0, 11, 97
2, 16448, Control_c, 0, 11, 98
2, 16454, Control_c, 0, 11, 99
2, 16459, Control_c, 0, 11, 100
2, 16465, Control_c, 0, 11, 101
2, 16470, Control_c, 0, 11, 102
2, 16476, Control_c, 0, 11, 103
2, 16481, Control_c, 0, 11, 104
2, 16487, Control_c, 0, 11, 105
2, 16492, Control_c, 0, 11, 106
2, 16498, Control_c, 0, 11, 107
2, 16503, Control_c, 0, 11, 108
2, 16509, Control_c, 0, 11, 109
2, 16514, Control_c, 0, 11, 110
2, 16520, Control_c, 0, 11, 111
2, 16525, Control_c, 0, 11, 112
2, 16531, Control_c, 0, 11, 113
2, 16536, Control_c, 0, 11, 114
2, 16542, Control_c, 0, 11, 115
2, 16547, Control_c, 0, 11, 116
2, 16553, Control_c, 0, 11, 117
2, 16558, Control_c, 0, 11, 118
2, 16564, Control_c, 0, 11, 119
2, 16569, Control_c, 0, 11, 120
2, 16575, Control_c, 0, 11, 121
2, 16580, Control_c, 0, 11, 122
2, 16586, Control_c, 0, 11, 123
2, 16591, Control_c, 0, 11, 124
2, 16597, Control_c, 0, 11, 125
2, 16602, Control_c, 0, 11, 126
2, 16608, Control_c, 0, 11, 127
2, 16944, Note_on_c, 0, 84, 0
2, 16992, Note_on_c, 0, 84, 46
2, 17184, Note_on_c, 0, 84, 0
2, 17184, Note_on_c, 0, 83, 41
2, 17376, Note_on_c, 0, 83, 0
2, 17376, Note_on_c, 0, 80, 49
2, 17568, Note_on_c, 0, 80, 0
2, 17568, Note_on_c, 0, 79, 44
2, 17760, Note_on_c, 0, 79, 0
2, 17760, Note_on_c, 0, 80, 49
2, 17952, Note_on_c, 0, 80, 0
2, 17952, Note_on_c, 0, 83, 45
2, 18112, Note_on_c, 0, 83, 0
2, 18144, Control_c, 0, 7, 127
2, 18144, Note_on_c, 0, 80, 42
2, 18186, Note_on_c, 0, 80, 0
2, 18208, Note_on_c, 0, 83, 40
2, 18250, Note_on_c, 0, 83, 0
2, 18272, Note_on_c, 0, 82, 47
2, 18314, Note_on_c, 0, 82, 0
2, 18336, Note_on_c, 0, 82, 53
2, 18378, Note_on_c, 0, 82, 0
2, 18400, Note_on_c, 0, 80, 47
2, 18442, Note_on_c, 0, 80, 0
2, 18464, Note_on_c, 0, 80, 55
2, 18506, Note_on_c, 0, 80, 0
2, 18528, Note_on_c, 0, 80, 58
2, 18570, Note_on_c, 0, 80, 0
2, 18592, Note_on_c, 0, 85, 65
2, 18634, Note_on_c, 0, 85, 0
2, 18656, Note_on_c, 0, 83, 66
2, 18698, Note_on_c, 0, 83, 0
2, 18720, Note_on_c, 0, 83, 68
2, 18730, Note_on_c, 0, 83, 0
2, 18736, Note_on_c, 0, 82, 69
2, 18768, Note_on_c, 0, 82, 0
2, 18784, Note_on_c, 0, 80, 72
2, 18826, Note_on_c, 0, 80, 0
2, 18848, Note_on_c, 0, 80, 66
2, 18890, Note_on_c, 0, 80, 0
2, 18912, Note_on_c, 0, 80, 75
2, 18954, Note_on_c, 0, 80, 0
2, 18976, Note_on_c, 0, 83, 80
2, 19018, Note_on_c, 0, 83, 0
2, 19040, Note_on_c, 0, 82, 71
2, 19082, Note_on_c, 0, 82, 0
2, 19104, Note_on_c, 0, 80, 64
2, 19146, Note_on_c, 0, 80, 0
2, 19168, Note_on_c, 0, 82, 54
2, 19210, Note_on_c, 0, 82, 0
2, 19232, Note_on_c, 0, 83, 46
2, 19274, Note_on_c, 0, 83, 0
2, 19296, Note_on_c, 0, 80, 40
2, 19338, Note_on_c, 0, 80, 0
2, 19360, Note_on_c, 0, 83, 46
2, 19402, Note_on_c, 0, 83, 0
2, 19424, Note_on_c, 0, 82, 51
2, 19466, Note_on_c, 0, 82, 0
2, 19488, Note_on_c, 0, 82, 51
2, 19530, Note_on_c, 0, 82, 0
2, 19552, Note_on_c, 0, 80, 54
2, 19594, Note_on_c, 0, 80, 0
2, 19616, Note_on_c, 0, 80, 51
2, 19658, Note_on_c, 0, 80, 0
2, 19680, Note_on_c, 0, 80, 54
2, 19722, Note_on_c, 0, 80, 0
2, 19744, Note_on_c, 0, 85, 58
2, 19786, Note_on_c, 0, 85, 0
2, 19808, Note_on_c, 0, 83, 58
2, 19850, Note_on_c, 0, 83, 0
2, 19872, Note_on_c, 0, 83, 64
2, 19882, Note_on_c, 0, 83, 0
2, 19888, Note_on_c, 0, 82, 56
2, 19920, Note_on_c, 0, 82, 0
2, 19936, Note_on_c, 0, 80, 60
2, 19978, Note_on_c, 0, 80, 0
2, 20000, Note_on_c, 0, 80, 59
2, 20042, Note_on_c, 0, 80, 0
2, 20064, Note_on_c, 0, 80, 64
2, 20106, Note_on_c, 0, 80, 0
2, 20128, Note_on_c, 0, 83, 64
2, 20170, Note_on_c, 0, 83, 0
2, 20192, Note_on_c, 0, 80, 63
2, 20234, Note_on_c, 0, 80, 0
2, 20256, Note_on_c, 0, 78, 65
2, 20298, Note_on_c, 0, 78, 0
2, 20320, Note_on_c, 0, 77, 74
2, 20362, Note_on_c, 0, 77, 0
2, 20384, Note_on_c, 0, 74, 80
2, 20426, Note_on_c, 0, 74, 0
2, 25056, Note_on_c, 0, 83, 41
2, 25150, Note_on_c, 0, 83, 0
2, 25152, Note_on_c, 0, 85, 46
2, 25182, Note_on_c, 0, 85, 0
2, 25184, Note_on_c, 0, 83, 46
2, 25214, Note_on_c, 0, 83, 0
2, 25216, Note_on_c, 0, 85, 41
2, 25246, Note_on_c, 0, 85, 0
2, 25248, Note_on_c, 0, 83, 43
2, 25278, Note_on_c, 0, 83, 0
2, 25280, Note_on_c, 0, 85, 49
2, 25310, Note_on_c, 0, 85, 0
2, 25312, Note_on_c, 0, 83, 44
2, 25342, Note_on_c, 0, 83, 0
2, 25344, Note_on_c, 0, 85, 42
2, 25374, Note_on_c, 0, 85, 0
2, 25376, Note_on_c, 0, 83, 41
2, 25406, Note_on_c, 0, 83, 0
2, 25408, Note_on_c, 0, 85, 50
2, 25438, Note_on_c, 0, 85, 0
2, 25440, Note_on_c, 0, 83, 40
2, 25470, Note_on_c, 0, 83, 0
2, 25472, Note_on_c, 0, 85, 49
2, 25502, Note_on_c, 0, 85, 0
2, 25504, Note_on_c, 0, 83, 47
2, 25534, Note_on_c, 0, 83, 0
2, 25536, Note_on_c, 0, 85, 49
2, 25566, Note_on_c, 0, 85, 0
2, 25568, Note_on_c, 0, 83, 47
2, 25598, Note_on_c, 0, 83, 0
2, 25600, Note_on_c, 0, 85, 43
2, 25630, Note_on_c, 0, 85, 0
2, 25632, Note_on_c, 0, 83, 46
2, 25662, Note_on_c, 0, 83, 0
2, 25664, Note_on_c, 0, 85, 50
2, 25694, Note_on_c, 0, 85, 0
2, 25696, Note_on_c, 0, 83, 46
2, 25726, Note_on_c, 0, 83, 0
2, 25728, Note_on_c, 0, 85, 52
2, 25758, Note_on_c, 0, 85, 0
2, 25760, Note_on_c, 0, 83, 56
2, 25790, Note_on_c, 0, 83, 0
2, 25792, Note_on_c, 0, 85, 54
2, 25822, Note_on_c, 0, 85, 0
2, 25824, Note_on_c, 0, 83, 50
2, 25854, Note_on_c, 0, 83, 0
2, 25856, Note_on_c, 0, 85, 57
2, 25886, Note_on_c, 0, 85, 0
2, 25888, Note_on_c, 0, 83, 58
2, 25918, Note_on_c, 0, 83, 0
2, 25920, Note_on_c, 0, 85, 52
2, 25950, Note_on_c, 0, 85, 0
2, 25952, Note_on_c, 0, 83, 61
2, 25982, Note_on_c, 0, 83, 0
2, 25984, Note_on_c, 0, 85, 62
2, 26014, Note_on_c, 0, 85, 0
2, 26016, Note_on_c, 0, 81, 55
2, 26046, Note_on_c, 0, 81, 0
2, 26048, Note_on_c, 0, 83, 62
2, 26078, Note_on_c, 0, 83, 0
2, 26080, Note_on_c, 0, 81, 52
2, 26110, Note_on_c, 0, 81, 0
2, 26112, Note_on_c, 0, 78, 50
2, 26142, Note_on_c, 0, 78, 0
2, 26144, Note_on_c, 0, 80, 47
2, 26174, Note_on_c, 0, 80, 0
2, 26176, Note_on_c, 0, 78, 49
2, 26206, Note_on_c, 0, 78, 0
2, 26208, Note_on_c, 0, 75, 50
2, 26302, Note_on_c, 0, 75, 0
2, 26784, Control_c, 0, 11, 127
2, 27360, Note_on_c, 0, 82, 50
2, 27360, Note_on_c, 0, 85, 42
2, 27392, Note_on_c, 0, 82, 0
2, 27392, Note_on_c, 0, 85, 0
2, 27456, Note_on_c, 0, 82, 49
2, 27456, Note_on_c, 0, 85, 48
2, 27477, Note_on_c, 0, 82, 0
2, 27477, Note_on_c, 0, 85, 0
2, 27488, Note_on_c, 0, 82, 50
2, 27488, Note_on_c, 0, 85, 41
2, 27509, Note_on_c, 0, 82, 0
2, 27509, Note_on_c, 0, 85, 0
2, 27520, Note_on_c, 0, 82, 47
2, 27520, Note_on_c, 0, 85, 42
2, 27541, Note_on_c, 0, 82, 0
2, 27541, Note_on_c, 0, 85, 0
2, 27552, Note_on_c, 0, 82, 46
2, 27552, Note_on_c, 0, 85, 47
2, 27584, Note_on_c, 0, 82, 0
2, 27584, Note_on_c, 0, 85, 0
2, 27648, Note_on_c, 0, 82, 46
2, 27648, Note_on_c, 0, 85, 42
2, 27669, Note_on_c, 0, 82, 0
2, 27669, Note_on_c, 0, 85, 0
2, 27680, Note_on_c, 0, 82, 42
2, 27680, Note_on_c, 0, 85, 42
2, 27701, Note_on_c, 0, 82, 0
2, 27701, Note_on_c, 0, 85, 0
2, 27712, Note_on_c, 0, 82, 45
2, 27712, Note_on_c, 0, 85, 47
2, 27733, Note_on_c, 0, 82, 0
2, 27733, Note_on_c, 0, 85, 0
2, 27744, Note_on_c, 0, 82, 41
2, 27744, Note_on_c, 0, 85, 43
2, 27765, Note_on_c, 0, 82, 0
2, 27765, Note_on_c, 0, 85, 0
2, 27776, Note_on_c, 0, 82, 40
2, 27776, Note_on_c, 0, 85, 43
2, 27797, Note_on_c, 0, 82, 0
2, 27797, Note_on_c, 0, 85, 0
2, 27808, Note_on_c, 0, 82, 44
2, 27808, Note_on_c, 0, 85, 48
2, 27829, Note_on_c, 0, 82, 0
2, 27829, Note_on_c, 0, 85, 0
2, 27840, Note_on_c, 0, 82, 43
2, 27840, Note_on_c, 0, 85, 50
2, 27861, Note_on_c, 0, 82, 0
2, 27861, Note_on_c, 0, 85, 0
2, 27872, Note_on_c, 0, 82, 49
2, 27872, Note_on_c, 0, 85, 49
2, 27893, Note_on_c, 0, 82, 0
2, 27893, Note_on_c, 0, 85, 0
2, 27904, Note_on_c, 0, 82, 44
2, 27904, Note_on_c, 0, 85, 47
2, 27925, Note_on_c, 0, 82, 0
2, 27925, Note_on_c, 0, 85, 0
2, 27936, Note_on_c, 0, 82, 47
2, 27936, Note_on_c, 0, 85, 43
2, 27968, Note_on_c, 0, 82, 0
2, 27968, Note_on_c, 0, 85, 0
2, 28032, Note_on_c, 0, 82, 40
2, 28032, Note_on_c, 0, 85, 48
2, 28053, Note_on_c, 0, 82, 0
2, 28053, Note_on_c, 0, 85, 0
2, 28064, Note_on_c, 0, 82, 48
2, 28064, Note_on_c, 0, 85, 47
2, 28085, Note_on_c, 0, 82, 0
2, 28085, Note_on_c, 0, 85, 0
2, 28096, Note_on_c, 0, 82, 47
2, 28096, Note_on_c, 0, 85, 48
2, 28117, Note_on_c, 0, 82, 0
2, 28117, Note_on_c, 0, 85, 0
2, 28128, Note_on_c, 0, 82, 48
2, 28128, Note_on_c, 0, 85, 43
2, 28160, Note_on_c, 0, 82, 0
2, 28160, Note_on_c, 0, 85, 0
2, 28224, Note_on_c, 0, 82, 44
2, 28224, Note_on_c, 0, 85, 47
2, 28245, Note_on_c, 0, 82, 0
2, 28245, Note_on_c, 0, 85, 0
2, 28256, Note_on_c, 0, 82, 44
2, 28256, Note_on_c, 0, 85, 50
2, 28277, Note_on_c, 0, 82, 0
2, 28277, Note_on_c, 0, 85, 0
2, 28288, Note_on_c, 0, 82, 46
2, 28288, Note_on_c, 0, 85, 42
2, 28309, Note_on_c, 0, 82, 0
2, 28309, Note_on_c, 0, 85, 0
2, 28320, Note_on_c, 0, 82, 50
2, 28320, Note_on_c, 0, 85, 42
2, 28341, Note_on_c, 0, 82, 0
2, 28341, Note_on_c, 0, 85, 0
2, 28352, Note_on_c, 0, 82, 44
2, 28352, Note_on_c, 0, 85, 50
2, 28373, Note_on_c, 0, 82, 0
2, 28373, Note_on_c, 0, 85, 0
2, 28384, Note_on_c, 0, 82, 40
2, 28384, Note_on_c, 0, 85, 43
2, 28405, Note_on_c, 0, 82, 0
2, 28405, Note_on_c, 0, 85, 0
2, 28416, Note_on_c, 0, 82, 50
2, 28416, Note_on_c, 0, 85, 40
2, 28437, Note_on_c, 0, 82, 0
2, 28437, Note_on_c, 0, 85, 0
2, 28448, Note_on_c, 0, 82, 42
2, 28448, Note_on_c, 0, 85, 48
2, 28469, Note_on_c, 0, 82, 0
2, 28469, Note_on_c, 0, 85, 0
2, 28480, Note_on_c, 0, 82, 41
2, 28480, Note_on_c, 0, 85, 43
2, 28501, Note_on_c, 0, 82, 0
2, 28501, Note_on_c, 0, 85, 0
2, 28512, Note_on_c, 0, 82, 40
2, 28512, Note_on_c, 0, 85, 47
2, 28544, Note_on_c, 0, 82, 0
2, 28544, Note_on_c, 0, 85, 0
2, 28608, Note_on_c, 0, 82, 42
2, 28608, Note_on_c, 0, 85, 47
2, 28629, Note_on_c, 0, 82, 0
2, 28629, Note_on_c, 0, 85, 0
2, 28640, Note_on_c, 0, 82, 45
2, 28640, Note_on_c, 0, 85, 44
2, 28661, Note_on_c, 0, 82, 0
2, 28661, Note_on_c, 0, 85, 0
2, 28672, Note_on_c, 0, 82, 48
2, 28672, Note_on_c, 0, 85, 49
2, 28693, Note_on_c, 0, 82, 0
2, 28693, Note_on_c, 0, 85, 0
2, 28704, Note_on_c, 0, 82, 45
2, 28704, Note_on_c, 0, 85, 48
2, 28736, Note_on_c, 0, 82, 0
2, 28736, Note_on_c, 0, 85, 0
2, 28800, Note_on_c, 0, 82, 44
2, 28800, Note_on_c, 0, 85, 47
2, 28821, Note_on_c, 0, 82, 0
2, 28821, Note_on_c, 0, 85, 0
2, 28832, Note_on_c, 0, 82, 46
2, 28832, Note_on_c, 0, 85, 49
2, 28853, Note_on_c, 0, 82, 0
2, 28853, Note_on_c, 0, 85, 0
2, 28864, Note_on_c, 0, 82, 44
2, 28864, Note_on_c, 0, 85, 50
2, 28885, Note_on_c, 0, 82, 0
2, 28885, Note_on_c, 0, 85, 0
2, 28896, Note_on_c, 0, 82, 46
2, 28896, Note_on_c, 0, 85, 50
2, 28917, Note_on_c, 0, 82, 0
2, 28917, Note_on_c, 0, 85, 0
2, 28928, Note_on_c, 0, 82, 50
2, 28928, Note_on_c, 0, 85, 48
2, 28949, Note_on_c, 0, 82, 0
2, 28949, Note_on_c, 0, 85, 0
2, 28960, Note_on_c, 0, 82, 46
2, 28960, Note_on_c, 0, 85, 41
2, 28981, Note_on_c, 0, 82, 0
2, 28981, Note_on_c, 0, 85, 0
2, 28992, Note_on_c, 0, 82, 48
2, 28992, Note_on_c, 0, 85, 40
2, 29013, Note_on_c, 0, 82, 0
2, 29013, Note_on_c, 0, 85, 0
2, 29024, Note_on_c, 0, 82, 43
2, 29024, Note_on_c, 0, 85, 46
2, 29045, Note_on_c, 0, 82, 0
2, 29045, Note_on_c, 0, 85, 0
2, 29056, Note_on_c, 0, 82, 50
2, 29056, Note_on_c, 0, 85, 41
2, 29077, Note_on_c, 0, 82, 0
2, 29077, Note_on_c, 0, 85, 0
2, 29088, Note_on_c, 0, 82, 40
2, 29088, Note_on_c, 0, 85, 43
2, 29120, Note_on_c, 0, 82, 0
2, 29120, Note_on_c, 0, 85, 0
2, 29184, Note_on_c, 0, 82, 47
2, 29184, Note_on_c, 0, 85, 49
2, 29205, Note_on_c, 0, 82, 0
2, 29205, Note_on_c, 0, 85, 0
2, 29216, Note_on_c, 0, 82, 41
2, 29216, Note_on_c, 0, 85, 45
2, 29237, Note_on_c, 0, 82, 0
2, 29237, Note_on_c, 0, 85, 0
2, 29248, Note_on_c, 0, 82, 45
2, 29248, Note_on_c, 0, 85, 42
2, 29269, Note_on_c, 0, 82, 0
2, 29269, Note_on_c, 0, 85, 0
2, 29280, Note_on_c, 0, 82, 42
2, 29280, Note_on_c, 0, 85, 42
2, 29312, Note_on_c, 0, 82, 0
2, 29312, Note_on_c, 0, 85, 0
2, 29376, Note_on_c, 0, 82, 47
2, 29376, Note_on_c, 0, 85, 43
2, 29397, Note_on_c, 0, 82, 0
2, 29397, Note_on_c, 0, 85, 0
2, 29408, Note_on_c, 0, 82, 43
2, 29408, Note_on_c, 0, 85, 50
2, 29429, Note_on_c, 0, 82, 0
2, 29429, Note_on_c, 0, 85, 0
2, 29440, Note_on_c, 0, 82, 47
2, 29440, Note_on_c, 0, 85, 41
2, 29461, Note_on_c, 0, 82, 0
2, 29461, Note_on_c, 0, 85, 0
2, 29472, Note_on_c, 0, 82, 46
2, 29472, Note_on_c, 0, 85, 46
2, 29493, Note_on_c, 0, 82, 0
2, 29493, Note_on_c, 0, 85, 0
2, 29504, Note_on_c, 0, 82, 50
2, 29504, Note_on_c, 0, 85, 47
2, 29525, Note_on_c, 0, 82, 0
2, 29525, Note_on_c, 0, 85, 0
2, 29536, Note_on_c, 0, 82, 41
2, 29536, Note_on_c, 0, 85, 50
2, 29557, Note_on_c, 0, 82, 0
2, 29557, Note_on_c, 0, 85, 0
2, 29568, Note_on_c, 0, 82, 49
2, 29568, Note_on_c, 0, 85, 44
2, 29589, Note_on_c, 0, 82, 0
2, 29589, Note_on_c, 0, 85, 0
2, 29600, Note_on_c, 0, 82, 40
2, 29600, Note_on_c, 0, 85, 40
2, 29621, Note_on_c, 0, 82, 0
2, 29621, Note_on_c, 0, 85, 0
2, 29632, Note_on_c, 0, 82, 50
2, 29632, Note_on_c, 0, 85, 48
2, 29653, Note_on_c, 0, 82, 0
2, 29653, Note_on_c, 0, 85, 0
2, 29664, Note_on_c, 0, 82, 40
2, 29664, Note_on_c, 0, 85, 49
2, 29696, Note_on_c, 0, 82, 0
2, 29696, Note_on_c, 0, 85, 0
2, 29760, Note_on_c, 0, 82, 50
2, 29760, Note_on_c, 0, 85, 40
2, 29781, Note_on_c, 0, 82, 0
2, 29781, Note_on_c, 0, 85, 0
2, 29792, Note_on_c, 0, 82, 45
2, 29792, Note_on_c, 0, 85, 41
2, 29813, Note_on_c, 0, 82, 0
2, 29813, Note_on_c, 0, 85, 0
2, 29824, Note_on_c, 0, 82, 45
2, 29824, Note_on_c, 0, 85, 45
2, 29845, Note_on_c, 0, 82, 0
2, 29845, Note_on_c, 0, 85, 0
2, 29856, Note_on_c, 0, 82, 48
2, 29856, Note_on_c, 0, 85, 49
2, 29888, Note_on_c, 0, 82, 0
2, 29888, Note_on_c, 0, 85, 0
2, 29952, Note_on_c, 0, 82, 40
2, 29952, Note_on_c, 0, 85, 43
2, 29973, Note_on_c, 0, 82, 0
2, 29973, Note_on_c, 0, 85, 0
2, 29984, Note_on_c, 0, 82, 40
2, 29984, Note_on_c, 0, 85, 40
2, 30005, Note_on_c, 0, 82, 0
2, 30005, Note_on_c, 0, 85, 0
2, 30016, Note_on_c, 0, 82, 49
2, 30016, Note_on_c, 0, 85, 40
2, 30037, Note_on_c, 0, 82, 0
2, 30037, Note_on_c, 0, 85, 0
2, 30048, Note_on_c, 0, 82, 42
2, 30048, Note_on_c, 0, 85, 49
2, 30069, Note_on_c, 0, 82, 0
2, 30069, Note_on_c, 0, 85, 0
2, 30080, Note_on_c, 0, 82, 40
2, 30080, Note_on_c, 0, 85, 40
2, 30101, Note_on_c, 0, 82, 0
2, 30101, Note_on_c, 0, 85, 0
2, 30112, Note_on_c, 0, 82, 40
2, 30112, Note_on_c, 0, 85, 41
2, 30133, Note_on_c, 0, 82, 0
2, 30133, Note_on_c, 0, 85, 0
2, 30144, Note_on_c, 0, 82, 48
2, 30144, Note_on_c, 0, 85, 44
2, 30165, Note_on_c, 0, 82, 0
2, 30165, Note_on_c, 0, 85, 0
2, 30176, Note_on_c, 0, 82, 42
2, 30176, Note_on_c, 0, 85, 50
2, 30197, Note_on_c, 0, 82, 0
2, 30197, Note_on_c, 0, 85, 0
2, 30208, Note_on_c, 0, 82, 40
2, 30208, Note_on_c, 0, 85, 43
2, 30229, Note_on_c, 0, 82, 0
2, 30229, Note_on_c, 0, 85, 0
2, 30240, Note_on_c, 0, 82, 48
2, 30240, Note_on_c, 0, 85, 50
2, 30272, Note_on_c, 0, 82, 0
2, 30272, Note_on_c, 0, 85, 0
2, 30336, Note_on_c, 0, 82, 42
2, 30336, Note_on_c, 0, 85, 49
2, 30357, Note_on_c, 0, 82, 0
2, 30357, Note_on_c, 0, 85, 0
2, 30368, Note_on_c, 0, 82, 42
2, 30368, Note_on_c, 0, 85, 40
2, 30389, Note_on_c, 0, 82, 0
2, 30389, Note_on_c, 0, 85, 0
2, 30400, Note_on_c, 0, 82, 41
2, 30400, Note_on_c, 0, 85, 43
2, 30421, Note_on_c, 0, 82, 0
2, 30421, Note_on_c, 0, 85, 0
2, 30432, Note_on_c, 0, 82, 50
2, 30432, Note_on_c, 0, 85, 40
2, 30464, Note_on_c, 0, 82, 0
2, 30464, Note_on_c, 0, 85, 0
2, 30528, Note_on_c, 0, 82, 44
2, 30528, Note_on_c, 0, 85, 43
2, 30549, Note_on_c, 0, 82, 0
2, 30549, Note_on_c, 0, 85, 0
2, 30560, Note_on_c, 0, 82, 47
2, 30560, Note_on_c, 0, 85, 49
2, 30581, Note_on_c, 0, 82, 0
2, 30581, Note_on_c, 0, 85, 0
2, 30592, Note_on_c, 0, 82, 48
2, 30592, Note_on_c, 0, 85, 42
2, 30613, Note_on_c, 0, 82, 0
2, 30613, Note_on_c, 0, 85, 0
2, 30624, Note_on_c, 0, 82, 49
2, 30624, Note_on_c, 0, 85, 40
2, 30645, Note_on_c, 0, 82, 0
2, 30645, Note_on_c, 0, 85, 0
2, 30656, Note_on_c, 0, 82, 42
2, 30656, Note_on_c, 0, 85, 48
2, 30677, Note_on_c, 0, 82, 0
2, 30677, Note_on_c, 0, 85, 0
2, 30688, Note_on_c, 0, 82, 45
2, 30688, Note_on_c, 0, 85, 46
2, 30709, Note_on_c, 0, 82, 0
2, 30709, Note_on_c, 0, 85, 0
2, 30720, Note_on_c, 0, 82, 40
2, 30720, Note_on_c, 0, 85, 43
2, 30741, Note_on_c, 0, 82, 0
2, 30741, Note_on_c, 0, 85, 0
2, 30752, Note_on_c, 0, 82, 50
2, 30752, Note_on_c, 0, 85, 49
2, 30773, Note_on_c, 0, 82, 0
2, 30773, Note_on_c, 0, 85, 0
2, 30784, Note_on_c, 0, 82, 41
2, 30784, Note_on_c, 0, 85, 43
2, 30805, Note_on_c, 0, 82, 0
2, 30805, Note_on_c, 0, 85, 0
2, 30816, Note_on_c, 0, 82, 44
2, 30816, Note_on_c, 0, 85, 46
2, 30848, Note_on_c, 0, 82, 0
2, 30848, Note_on_c, 0, 85, 0
2, 30912, Note_on_c, 0, 82, 45
2, 30912, Note_on_c, 0, 85, 50
2, 30933, Note_on_c, 0, 82, 0
2, 30933, Note_on_c, 0, 85, 0
2, 30944, Note_on_c, 0, 82, 50
2, 30944, Note_on_c, 0, 85, 48
2, 30965, Note_on_c, 0, 82, 0
2, 30965, Note_on_c, 0, 85, 0
2, 30976, Note_on_c, 0, 82, 48
2, 30976, Note_on_c, 0, 85, 44
2, 30997, Note_on_c, 0, 82, 0
2, 30997, Note_on_c, 0, 85, 0
2, 31008, Note_on_c, 0, 82, 44
2, 31008, Note_on_c, 0, 85, 44
2, 31040, Note_on_c, 0, 82, 0
2, 31040, Note_on_c, 0, 85, 0
2, 31104, Note_on_c, 0, 82, 41
2, 31104, Note_on_c, 0, 85, 45
2, 31125, Note_on_c, 0, 82, 0
2, 31125, Note_on_c, 0, 85, 0
2, 31136, Note_on_c, 0, 82, 43
2, 31136, Note_on_c, 0, 85, 43
2, 31157, Note_on_c, 0, 82, 0
2, 31157, Note_on_c, 0, 85, 0
2, 31168, Note_on_c, 0, 82, 50
2, 31168, Note_on_c, 0, 85, 42
2, 31189, Note_on_c, 0, 82, 0
2, 31189, Note_on_c, 0, 85, 0
2, 31200, Note_on_c, 0, 82, 48
2, 31200, Note_on_c, 0, 85, 49
2, 31221, Note_on_c, 0, 82, 0
2, 31221, Note_on_c, 0, 85, 0
2, 31232, Note_on_c, 0, 82, 43
2, 31232, Note_on_c, 0, 85, 47
2, 31253, Note_on_c, 0, 82, 0
2, 31253, Note_on_c, 0, 85, 0
2, 31264, Note_on_c, 0, 82, 49
2, 31264, Note_on_c, 0, 85, 50
2, 31285, Note_on_c, 0, 82, 0
2, 31285, Note_on_c, 0, 85, 0
2, 31296, Note_on_c, 0, 82, 45
2, 31296, Note_on_c, 0, 85, 42
2, 31317, Note_on_c, 0, 82, 0
2, 31317, Note_on_c, 0, 85, 0
2, 31328, Note_on_c, 0, 82, 43
2, 31328, Note_on_c, 0, 85, 49
2, 31349, Note_on_c, 0, 82, 0
2, 31349, Note_on_c, 0, 85, 0
2, 31360, Note_on_c, 0, 82, 46
2, 31360, Note_on_c, 0, 85, 46
2, 31381, Note_on_c, 0, 82, 0
2, 31381, Note_on_c, 0, 85, 0
2, 31392, Note_on_c, 0, 82, 42
2, 31392, Note_on_c, 0, 85, 46
2, 31424, Note_on_c, 0, 82, 0
2, 31424, Note_on_c, 0, 85, 0
2, 31488, Note_on_c, 0, 82, 42
2, 31488, Note_on_c, 0, 85, 42
2, 31509, Note_on_c, 0, 82, 0
2, 31509, Note_on_c, 0, 85, 0
2, 31520, Note_on_c, 0, 82, 41
2, 31520, Note_on_c, 0, 85, 41
2, 31541, Note_on_c, 0, 82, 0
2, 31541, Note_on_c, 0, 85, 0
2, 31552, Note_on_c, 0, 82, 46
2, 31552, Note_on_c, 0, 85, 44
2, 31573, Note_on_c, 0, 82, 0
2, 31573, Note_on_c, 0, 85, 0
2, 31584, Note_on_c, 0, 82, 41
2, 31584, Note_on_c, 0, 85, 49
2, 31616, Note_on_c, 0, 82, 0
2, 31616, Note_on_c, 0, 85, 0
2, 31680, Note_on_c, 0, 82, 40
2, 31680, Note_on_c, 0, 85, 50
2, 31701, Note_on_c, 0, 82, 0
2, 31701, Note_on_c, 0, 85, 0
2, 31712, Note_on_c, 0, 82, 47
2, 31712, Note_on_c, 0, 85, 46
2, 31733, Note_on_c, 0, 82, 0
2, 31733, Note_on_c, 0, 85, 0
2, 31744, Note_on_c, 0, 82, 48
2, 31744, Note_on_c, 0, 85, 44
2, 31765, Note_on_c, 0, 82, 0
2, 31765, Note_on_c, 0, 85, 0
2, 31776, Note_on_c, 0, 82, 49
2, 31776, Note_on_c, 0, 85, 43
2, 31806, Note_on_c, 0, 82, 0
2, 31806, Note_on_c, 0, 85, 0
2, 31808, Note_on_c, 0, 84, 47
2, 31808, Note_on_c, 0, 87, 42
2, 31838, Note_on_c, 0, 84, 0
2, 31838, Note_on_c, 0, 87, 0
2, 31840, Note_on_c, 0, 82, 46
2, 31840, Note_on_c, 0, 85, 49
2, 31870, Note_on_c, 0, 82, 0
2, 31870, Note_on_c, 0, 85, 0
2, 31872, Note_on_c, 0, 81, 46
2, 31872, Note_on_c, 0, 84, 46
2, 31902, Note_on_c, 0, 81, 0
2, 31902, Note_on_c, 0, 84, 0
2, 31904, Note_on_c, 0, 83, 51
2, 31904, Note_on_c, 0, 86, 55
2, 31934, Note_on_c, 0, 83, 0
2, 31934, Note_on_c, 0, 86, 0
2, 31936, Note_on_c, 0, 81, 54
2, 31936, Note_on_c, 0, 84, 56
2, 31966, Note_on_c, 0, 81, 0
2, 31966, Note_on_c, 0, 84, 0
2, 31968, Note_on_c, 0, 80, 58
2, 31968, Note_on_c, 0, 83, 57
2, 32000, Note_on_c, 0, 80, 0
2, 32000, Note_on_c, 0, 83, 0
2, 33696, Control_c, 0, 7, 92
2, 34272, Note_on_c, 0, 83, 88
2, 34294, Note_on_c, 0, 83, 0
2, 34296, Note_on_c, 0, 81, 93
2, 34318, Note_on_c, 0, 81, 0
2, 34320, Note_on_c, 0, 79, 87
2, 34342, Note_on_c, 0, 79, 0
2, 34344, Note_on_c, 0, 77, 91
2, 34366, Note_on_c, 0, 77, 0
2, 34368, Note_on_c, 0, 83, 97
2, 34390, Note_on_c, 0, 83, 0
2, 34392, Note_on_c, 0, 81, 89
2, 34414, Note_on_c, 0, 81, 0
2, 34416, Note_on_c, 0, 79, 96
2, 34438, Note_on_c, 0, 79, 0
2, 34440, Note_on_c, 0, 77, 96
2, 34462, Note_on_c, 0, 77, 0
2, 34464, Note_on_c, 0, 83, 94
2, 34486, Note_on_c, 0, 83, 0
2, 34488, Note_on_c, 0, 81, 88
2, 34510, Note_on_c, 0, 81, 0
2, 34512, Note_on_c, 0, 79, 95
2, 34534, Note_on_c, 0, 79, 0
2, 34536, Note_on_c, 0, 77, 90
2, 34558, Note_on_c, 0, 77, 0
2, 34560, Note_on_c, 0, 83, 90
2, 34582, Note_on_c, 0, 83, 0
2, 34584, Note_on_c, 0, 81, 92
2, 34606, Note_on_c, 0, 81, 0
2, 34608, Note_on_c, 0, 79, 94
2, 34630, Note_on_c, 0, 79, 0
2, 34632, Note_on_c, 0, 77, 96
2, 34654, Note_on_c, 0, 77, 0
2, 34656, Note_on_c, 0, 83, 91
2, 34678, Note_on_c, 0, 83, 0
2, 34680, Note_on_c, 0, 81, 83
2, 34702, Note_on_c, 0, 81, 0
2, 34704, Note_on_c, 0, 79, 87
2, 34726, Note_on_c, 0, 79, 0
2, 34728, Note_on_c, 0, 77, 82
2, 34750, Note_on_c, 0, 77, 0
2, 34752, Note_on_c, 0, 83, 72
2, 34774, Note_on_c, 0, 83, 0
2, 34776, Note_on_c, 0, 81, 76
2, 34798, Note_on_c, 0, 81, 0
2, 34800, Note_on_c, 0, 79, 72
2, 34822, Note_on_c, 0, 79, 0
2, 34824, Note_on_c, 0, 77, 59
2, 34846, Note_on_c, 0, 77, 0
2, 34848, Note_on_c, 0, 83, 92
2, 34870, Note_on_c, 0, 83, 0
2, 34872, Note_on_c, 0, 81, 97
2, 34894, Note_on_c, 0, 81, 0
2, 34896, Note_on_c, 0, 79, 91
2, 34918, Note_on_c, 0, 79, 0
2, 34920, Note_on_c, 0, 77, 97
2, 34942, Note_on_c, 0, 77, 0
2, 34944, Note_on_c, 0, 83, 97
2, 34966, Note_on_c, 0, 83, 0
2, 34968, Note_on_c, 0, 81, 97
2, 34990, Note_on_c, 0, 81, 0
2, 34992, Note_on_c, 0, 79, 94
2, 35014, Note_on_c, 0, 79, 0
2, 35016, Note_on_c, 0, 77, 88
2, 35038, Note_on_c, 0, 77, 0
2, 35040, Note_on_c, 0, 83, 90
2, 35062, Note_on_c, 0, 83, 0
2, 35064, Note_on_c, 0, 81, 89
2, 35086, Note_on_c, 0, 81, 0
2, 35088, Note_on_c, 0, 79, 87
2, 35110, Note_on_c, 0, 79, 0
2, 35112, Note_on_c, 0, 77, 90
2, 35134, Note_on_c, 0, 77, 0
2, 35136, Note_on_c, 0, 83, 92
2, 35158, Note_on_c, 0, 83, 0
2, 35160, Note_on_c, 0, 81, 95
2, 35182, Note_on_c, 0, 81, 0
2, 35184, Note_on_c, 0, 79, 88
2, 35206, Note_on_c, 0, 79, 0
2, 35208, Note_on_c, 0, 77, 91
2, 35230, Note_on_c, 0, 77, 0
2, 35232, Note_on_c, 0, 83, 89
2, 35254, Note_on_c, 0, 83, 0
2, 35256, Note_on_c, 0, 81, 83
2, 35278, Note_on_c, 0, 81, 0
2, 35280, Note_on_c, 0, 79, 86
2, 35302, Note_on_c, 0, 79, 0
2, 35304, Note_on_c, 0, 77, 76
2, 35326, Note_on_c, 0, 77, 0
2, 35328, Note_on_c, 0, 83, 80
2, 35350, Note_on_c, 0, 83, 0
2, 35352, Note_on_c, 0, 81, 72
2, 35374, Note_on_c, 0, 81, 0
2, 35376, Note_on_c, 0, 79, 71
2, 35398, Note_on_c, 0, 79, 0
2, 35400, Note_on_c, 0, 77, 65
2, 35422, Note_on_c, 0, 77, 0
2, 35808, Note_on_c, 0, 84, 75
2, 35830, Note_on_c, 0, 84, 0
2, 35832, Note_on_c, 0, 82, 73
2, 35854, Note_on_c, 0, 82, 0
2, 35856, Note_on_c, 0, 80, 72
2, 35878, Note_on_c, 0, 80, 0
2, 35880, Note_on_c, 0, 78, 63
2, 35902, Note_on_c, 0, 78, 0
2, 35904, Note_on_c, 0, 84, 59
2, 35926, Note_on_c, 0, 84, 0
2, 35928, Note_on_c, 0, 82, 58
2, 35950, Note_on_c, 0, 82, 0
2, 35952, Note_on_c, 0, 80, 51
2, 35974, Note_on_c, 0, 80, 0
2, 35976, Note_on_c, 0, 78, 45
2, 35998, Note_on_c, 0, 78, 0
2, 36000, Control_c, 0, 7, 127
2, 36384, Note_on_c, 0, 84, 48
2, 36406, Note_on_c, 0, 84, 0
2, 36408, Note_on_c, 0, 82, 46
2, 36430, Note_on_c, 0, 82, 0
2, 36432, Note_on_c, 0, 80, 46
2, 36454, Note_on_c, 0, 80, 0
2, 36456, Note_on_c, 0, 78, 42
2, 36478, Note_on_c, 0, 78, 0
2, 36480, Note_on_c, 0, 72, 47
2, 36502, Note_on_c, 0, 72, 0
2, 36504, Note_on_c, 0, 70, 46
2, 36526, Note_on_c, 0, 70, 0
2, 36528, Note_on_c, 0, 68, 42
2, 36550, Note_on_c, 0, 68, 0
2, 36552, Note_on_c, 0, 66, 43
2, 36574, Note_on_c, 0, 66, 0
2, 38880, Note_on_c, 0, 86, 26
2, 38902, Note_on_c, 0, 86, 0
2, 38904, Note_on_c, 0, 84, 34
2, 38926, Note_on_c, 0, 84, 0
2, 38928, Note_on_c, 0, 82, 37
2, 38950, Note_on_c, 0, 82, 0
2, 38952, Note_on_c, 0, 80, 38
2, 38974, Note_on_c, 0, 80, 0
2, 38976, Note_on_c, 0, 74, 34
2, 38998, Note_on_c, 0, 74, 0
2, 39000, Note_on_c, 0, 72, 35
2, 39022, Note_on_c, 0, 72, 0
2, 39024, Note_on_c, 0, 70, 44
2, 39046, Note_on_c, 0, 70, 0
2, 39048, Note_on_c, 0, 68, 44
2, 39070, Note_on_c, 0, 68, 0
2, 39072, Note_on_c, 0, 62, 43
2, 39104, Note_on_c, 0, 62, 0
2, 39264, Note_on_c, 0, 62, 47
2, 39286, Note_on_c, 0, 62, 0
2, 39288, Note_on_c, 0, 68, 41
2, 39310, Note_on_c, 0, 68, 0
2, 39312, Note_on_c, 0, 70, 46
2, 39334, Note_on_c, 0, 70, 0
2, 39336, Note_on_c, 0, 72, 37
2, 39358, Note_on_c, 0, 72, 0
2, 39360, Note_on_c, 0, 74, 43
2, 39382, Note_on_c, 0, 74, 0
2, 39384, Note_on_c, 0, 80, 38
2, 39406, Note_on_c, 0, 80, 0
2, 39408, Note_on_c, 0, 82, 34
2, 39430, Note_on_c, 0, 82, 0
2, 39432, Note_on_c, 0, 84, 28
2, 39454, Note_on_c, 0, 84, 0
2, 39456, Note_on_c, 0, 86, 27
2, 39488, Note_on_c, 0, 86, 0
2, 42912, Control_c, 0, 11, 127
2, 43488, Note_on_c, 0, 78, 48
2, 43488, Note_on_c, 0, 82, 48
2, 43520, Note_on_c, 0, 78, 0
2, 43520, Note_on_c, 0, 82, 0
2, 43584, Note_on_c, 0, 76, 40
2, 43584, Note_on_c, 0, 80, 44
2, 43614, Note_on_c, 0, 76, 0
2, 43614, Note_on_c, 0, 80, 0
2, 43616, Note_on_c, 0, 78, 41
2, 43616, Note_on_c, 0, 82, 50
2, 43646, Note_on_c, 0, 78, 0
2, 43646, Note_on_c, 0, 82, 0
2, 43648, Note_on_c, 0, 76, 49
2, 43648, Note_on_c, 0, 80, 47
2, 43678, Note_on_c, 0, 76, 0
2, 43678, Note_on_c, 0, 80, 0
2, 43680, Note_on_c, 0, 74, 46
2, 43680, Note_on_c, 0, 78, 50
2, 43712, Note_on_c, 0, 74, 0
2, 43712, Note_on_c, 0, 78, 0
2, 43776, Note_on_c, 0, 72, 49
2, 43776, Note_on_c, 0, 76, 40
2, 43806, Note_on_c, 0, 72, 0
2, 43806, Note_on_c, 0, 76, 0
2, 43808, Note_on_c, 0, 74, 46
2, 43808, Note_on_c, 0, 78, 48
2, 43838, Note_on_c, 0, 74, 0
2, 43838, Note_on_c, 0, 78, 0
2, 43840, Note_on_c, 0, 72, 40
2, 43840, Note_on_c, 0, 76, 46
2, 43870, Note_on_c, 0, 72, 0
2, 43870, Note_on_c, 0, 76, 0
2, 43872, Note_on_c, 0, 70, 46
2, 43872, Note_on_c, 0, 74, 48
2, 43966, Note_on_c, 0, 70, 0
2, 43966, Note_on_c, 0, 74, 0
2, 44064, Note_on_c, 0, 80, 41
2, 44064, Note_on_c, 0, 84, 49
2, 44096, Note_on_c, 0, 80, 0
2, 44096, Note_on_c, 0, 84, 0
2, 44160, Note_on_c, 0, 78, 49
2, 44160, Note_on_c, 0, 82, 46
2, 44190, Note_on_c, 0, 78, 0
2, 44190, Note_on_c, 0, 82, 0
2, 44192, Note_on_c, 0, 80, 48
2, 44192, Note_on_c, 0, 84, 49
2, 44222, Note_on_c, 0, 80, 0
2, 44222, Note_on_c, 0, 84, 0
2, 44224, Note_on_c, 0, 78, 45
2, 44224, Note_on_c, 0, 82, 50
2, 44254, Note_on_c, 0, 78, 0
2, 44254, Note_on_c, 0, 82, 0
2, 44256, Note_on_c, 0, 76, 46
2, 44256, Note_on_c, 0, 80, 43
2, 44288, Note_on_c, 0, 76, 0
2, 44288, Note_on_c, 0, 80, 0
2, 44352, Note_on_c, 0, 74, 41
2, 44352, Note_on_c, 0, 78, 40
2, 44382, Note_on_c, 0, 74, 0
2, 44382, Note_on_c, 0, 78, 0
2, 44384, Note_on_c, 0, 76, 45
2, 44384, Note_on_c, 0, 80, 47
2, 44414, Note_on_c, 0, 76, 0
2, 44414, Note_on_c, 0, 80, 0
2, 44416, Note_on_c, 0, 74, 50
2, 44416, Note_on_c, 0, 78, 49
2, 44446, Note_on_c, 0, 74, 0
2, 44446, Note_on_c, 0, 78, 0
2, 44448, Note_on_c, 0, 72, 49
2, 44448, Note_on_c, 0, 76, 49
2, 44480, Note_on_c, 0, 72, 0
2, 44480, Note_on_c, 0, 76, 0
2, 45024, Note_on_c, 0, 69, 43
2, 45024, Note_on_c, 0, 71, 49
2, 45045, Note_on_c, 0, 69, 0
2, 45045, Note_on_c, 0, 71, 0
2, 45056, Note_on_c, 0, 69, 47
2, 45056, Note_on_c, 0, 71, 44
2, 45077, Note_on_c, 0, 69, 0
2, 45077, Note_on_c, 0, 71, 0
2, 45088, Note_on_c, 0, 69, 53
2, 45088, Note_on_c, 0, 71, 54
2, 45109, Note_on_c, 0, 69, 0
2, 45109, Note_on_c, 0, 71, 0
2, 45120, Note_on_c, 0, 71, 52
2, 45120, Note_on_c, 0, 74, 62
2, 45141, Note_on_c, 0, 71, 0
2, 45141, Note_on_c, 0, 74, 0
2, 45152, Note_on_c, 0, 71, 62
2, 45152, Note_on_c, 0, 74, 66
2, 45173, Note_on_c, 0, 71, 0
2, 45173, Note_on_c, 0, 74, 0
2, 45184, Note_on_c, 0, 71, 69
2, 45184, Note_on_c, 0, 74, 71
2, 45205, Note_on_c, 0, 71, 0
2, 45205, Note_on_c, 0, 74, 0
2, 45216, Note_on_c, 0, 74, 77
2, 45216, Note_on_c, 0, 77, 78
2, 45237, Note_on_c, 0, 74, 0
2, 45237, Note_on_c, 0, 77, 0
2, 45248, Note_on_c, 0, 74, 72
2, 45248, Note_on_c, 0, 77, 71
2, 45269, Note_on_c, 0, 74, 0
2, 45269, Note_on_c, 0, 77, 0
2, 45280, Note_on_c, 0, 74, 81
2, 45280, Note_on_c, 0, 77, 73
2, 45301, Note_on_c, 0, 74, 0
2, 45301, Note_on_c, 0, 77, 0
2, 45312, Note_on_c, 0, 77, 76
2, 45312, Note_on_c, 0, 80, 82
2, 45333, Note_on_c, 0, 77, 0
2, 45333, Note_on_c, 0, 80, 0
2, 45344, Note_on_c, 0, 77, 75
2, 45344, Note_on_c, 0, 80, 73
2, 45365, Note_on_c, 0, 77, 0
2, 45365, Note_on_c, 0, 80, 0
2, 45376, Note_on_c, 0, 77, 76
2, 45376, Note_on_c, 0, 80, 79
2, 45397, Note_on_c, 0, 77, 0
2, 45397, Note_on_c, 0, 80, 0
2, 45408, Note_on_c, 0, 77, 85
2, 45408, Note_on_c, 0, 82, 82
2, 45429, Note_on_c, 0, 77, 0
2, 45429, Note_on_c, 0, 82, 0
2, 45440, Note_on_c, 0, 77, 79
2, 45440, Note_on_c, 0, 82, 80
2, 45461, Note_on_c, 0, 77, 0
2, 45461, Note_on_c, 0, 82, 0
2, 45472, Note_on_c, 0, 77, 83
2, 45472, Note_on_c, 0, 82, 86
2, 45493, Note_on_c, 0, 77, 0
2, 45493, Note_on_c, 0, 82, 0
2, 45504, Note_on_c, 0, 82, 78
2, 45504, Note_on_c, 0, 86, 82
2, 45525, Note_on_c, 0, 82, 0
2, 45525, Note_on_c, 0, 86, 0
2, 45536, Note_on_c, 0, 82, 81
2, 45536, Note_on_c, 0, 86, 88
2, 45557, Note_on_c, 0, 82, 0
2, 45557, Note_on_c, 0, 86, 0
2, 45568, Note_on_c, 0, 82, 90
2, 45568, Note_on_c, 0, 86, 82
2, 45589, Note_on_c, 0, 82, 0
2, 45589, Note_on_c, 0, 86, 0
2, 45600, Note_on_c, 0, 83, 90
2, 45600, Note_on_c, 0, 86, 88
2, 45621, Note_on_c, 0, 83, 0
2, 45621, Note_on_c, 0, 86, 0
2, 45632, Note_on_c, 0, 83, 86
2, 45632, Note_on_c, 0, 86, 92
2, 45653, Note_on_c, 0, 83, 0
2, 45653, Note_on_c, 0, 86, 0
2, 45664, Note_on_c, 0, 83, 90
2, 45664, Note_on_c, 0, 86, 87
2, 45685, Note_on_c, 0, 83, 0
2, 45685, Note_on_c, 0, 86, 0
2, 45696, Note_on_c, 0, 86, 94
2, 45696, Note_on_c, 0, 89, 93
2, 45717, Note_on_c, 0, 86, 0
2, 45717, Note_on_c, 0, 89, 0
2, 45728, Note_on_c, 0, 86, 89
2, 45728, Note_on_c, 0, 89, 95
2, 45749, Note_on_c, 0, 86, 0
2, 45749, Note_on_c, 0, 89, 0
2, 45760, Note_on_c, 0, 86, 87
2, 45760, Note_on_c, 0, 89, 97
2, 45781, Note_on_c, 0, 86, 0
2, 45781, Note_on_c, 0, 89, 0
2, 45792, Note_on_c, 0, 85, 42
2, 45792, Note_on_c, 0, 88, 43
2, 45886, Note_on_c, 0, 85, 0
2, 45886, Note_on_c, 0, 88, 0
2, 47520, Note_on_c, 0, 85, 50
2, 48256, Note_on_c, 0, 85, 0
2, 51168, Note_on_c, 0, 76, 49
2, 51214, Note_on_c, 0, 76, 0
2, 51216, Note_on_c, 0, 73, 46
2, 51262, Note_on_c, 0, 73, 0
2, 51264, Note_on_c, 0, 68, 44
2, 51310, Note_on_c, 0, 68, 0
2, 51312, Note_on_c, 0, 73, 49
2, 51358, Note_on_c, 0, 73, 0
2, 51360, Note_on_c, 0, 76, 49
2, 51454, Note_on_c, 0, 76, 0
2, 52320, Note_on_c, 0, 76, 40
2, 52366, Note_on_c, 0, 76, 0
2, 52368, Note_on_c, 0, 71, 43
2, 52414, Note_on_c, 0, 71, 0
2, 52416, Note_on_c, 0, 69, 44
2, 52462, Note_on_c, 0, 69, 0
2, 52464, Note_on_c, 0, 71, 43
2, 52510, Note_on_c, 0, 71, 0
2, 52512, Note_on_c, 0, 76, 48
2, 52606, Note_on_c, 0, 76, 0
2, 53280, Control_c, 0, 11, 127
2, 54048, Note_on_c, 0, 79, 29
2, 54048, Note_on_c, 0, 82, 27
2, 54080, Note_on_c, 0, 79, 0
2, 54080, Note_on_c, 0, 82, 0
2, 54144, Note_on_c, 0, 79, 33
2, 54144, Note_on_c, 0, 82, 27
2, 54165, Note_on_c, 0, 79, 0
2, 54165, Note_on_c, 0, 82, 0
2, 54176, Note_on_c, 0, 79, 25
2, 54176, Note_on_c, 0, 82, 26
2, 54197, Note_on_c, 0, 79, 0
2, 54197, Note_on_c, 0, 82, 0
2, 54208, Note_on_c, 0, 79, 28
2, 54208, Note_on_c, 0, 82, 32
2, 54229, Note_on_c, 0, 79, 0
2, 54229, Note_on_c, 0, 82, 0
2, 54240, Note_on_c, 0, 79, 32
2, 54240, Note_on_c, 0, 82, 28
2, 54272, Note_on_c, 0, 79, 0
2, 54272, Note_on_c, 0, 82, 0
2, 54624, Note_on_c, 0, 79, 31
2, 54624, Note_on_c, 0, 82, 29
2, 54656, Note_on_c, 0, 79, 0
2, 54656, Note_on_c, 0, 82, 0
2, 54720, Note_on_c, 0, 79, 32
2, 54720, Note_on_c, 0, 82, 29
2, 54741, Note_on_c, 0, 79, 0
2, 54741, Note_on_c, 0, 82, 0
2, 54752, Note_on_c, 0, 79, 32
2, 54752, Note_on_c, 0, 82, 32
2, 54773, Note_on_c, 0, 79, 0
2, 54773, Note_on_c, 0, 82, 0
2, 54784, Note_on_c, 0, 79, 32
2, 54784, Note_on_c, 0, 82, 29
2, 54805, Note_on_c, 0, 79, 0
2, 54805, Note_on_c, 0, 82, 0
2, 54816, Note_on_c, 0, 79, 34
2, 54816, Note_on_c, 0, 82, 33
2, 54848, Note_on_c, 0, 79, 0
2, 54848, Note_on_c, 0, 82, 0
2, 55200, Note_on_c, 0, 79, 29
2, 55200, Note_on_c, 0, 82, 33
2, 55232, Note_on_c, 0, 79, 0
2, 55232, Note_on_c, 0, 82, 0
2, 55296, Note_on_c, 0, 79, 33
2, 55296, Note_on_c, 0, 82, 30
2, 55317, Note_on_c, 0, 79, 0
2, 55317, Note_on_c, 0, 82, 0
2, 55328, Note_on_c, 0, 79, 28
2, 55328, Note_on_c, 0, 82, 33
2, 55349, Note_on_c, 0, 79, 0
2, 55349, Note_on_c, 0, 82, 0
2, 55360, Note_on_c, 0, 79, 25
2, 55360, Note_on_c, 0, 82, 29
2, 55381, Note_on_c, 0, 79, 0
2, 55381, Note_on_c, 0, 82, 0
2, 55392, Note_on_c, 0, 79, 34
2, 55392, Note_on_c, 0, 82, 28
2, 55424, Note_on_c, 0, 79, 0
2, 55424, Note_on_c, 0, 82, 0
2, 55776, Note_on_c, 0, 79, 26
2, 55776, Note_on_c, 0, 82, 35
2, 55808, Note_on_c, 0, 79, 0
2, 55808, Note_on_c, 0, 82, 0
2, 55872, Note_on_c, 0, 79, 30
2, 55872, Note_on_c, 0, 82, 28
2, 55893, Note_on_c, 0, 79, 0
2, 55893, Note_on_c, 0, 82, 0
2, 55904, Note_on_c, 0, 79, 32
2, 55904, Note_on_c, 0, 82, 26
2, 55925, Note_on_c, 0, 79, 0
2, 55925, Note_on_c, 0, 82, 0
2, 55936, Note_on_c, 0, 79, 27
2, 55936, Note_on_c, 0, 82, 33
2, 55957, Note_on_c, 0, 79, 0
2, 55957, Note_on_c, 0, 82, 0
2, 55968, Note_on_c, 0, 79, 26
2, 55968, Note_on_c, 0, 82, 27
2, 56000, Note_on_c, 0, 79, 0
2, 56000, Note_on_c, 0, 82, 0
2, 56352, Note_on_c, 0, 79, 27
2, 56352, Note_on_c, 0, 82, 28
2, 56384, Note_on_c, 0, 79, 0
2, 56384, Note_on_c, 0, 82, 0
2, 56448, Note_on_c, 0, 79, 29
2, 56448, Note_on_c, 0, 82, 30
2, 56469, Note_on_c, 0, 79, 0
2, 56469, Note_on_c, 0, 82, 0
2, 56480, Note_on_c, 0, 79, 25
2, 56480, Note_on_c, 0, 82, 35
2, 56501, Note_on_c, 0, 79, 0
2, 56501, Note_on_c, 0, 82, 0
2, 56512, Note_on_c, 0, 79, 32
2, 56512, Note_on_c, 0, 82, 34
2, 56533, Note_on_c, 0, 79, 0
2, 56533, Note_on_c, 0, 82, 0
2, 56544, Note_on_c, 0, 79, 29
2, 56544, Note_on_c, 0, 82, 30
2, 56576, Note_on_c, 0, 79, 0
2, 56576, Note_on_c, 0, 82, 0
2, 56928, Note_on_c, 0, 79, 33
2, 56928, Note_on_c, 0, 82, 33
2, 56960, Note_on_c, 0, 79, 0
2, 56960, Note_on_c, 0, 82, 0
2, 57024, Note_on_c, 0, 79, 28
2, 57024, Note_on_c, 0, 82, 29
2, 57045, Note_on_c, 0, 79, 0
2, 57045, Note_on_c, 0, 82, 0
2, 57056, Note_on_c, 0, 79, 31
2, 57056, Note_on_c, 0, 82, 27
2, 57077, Note_on_c, 0, 79, 0
2, 57077, Note_on_c, 0, 82, 0
2, 57088, Note_on_c, 0, 79, 35
2, 57088, Note_on_c, 0, 82, 35
2, 57109, Note_on_c, 0, 79, 0
2, 57109, Note_on_c, 0, 82, 0
2, 57120, Note_on_c, 0, 79, 31
2, 57120, Note_on_c, 0, 82, 26
2, 57152, Note_on_c, 0, 79, 0
2, 57152, Note_on_c, 0, 82, 0
2, 57312, Note_on_c, 0, 80, 46
2, 57312, Note_on_c, 0, 83, 45
2, 57344, Note_on_c, 0, 80, 0
2, 57344, Note_on_c, 0, 83, 0
2, 57408, Note_on_c, 0, 80, 48
2, 57408, Note_on_c, 0, 83, 46
2, 57429, Note_on_c, 0, 80, 0
2, 57429, Note_on_c, 0, 83, 0
2, 57440, Note_on_c, 0, 80, 41
2, 57440, Note_on_c, 0, 83, 48
2, 57461, Note_on_c, 0, 80, 0
2, 57461, Note_on_c, 0, 83, 0
2, 57472, Note_on_c, 0, 80, 48
2, 57472, Note_on_c, 0, 83, 46
2, 57493, Note_on_c, 0, 80, 0
2, 57493, Note_on_c, 0, 83, 0
2, 57504, Note_on_c, 0, 80, 48
2, 57504, Note_on_c, 0, 83, 41
2, 57536, Note_on_c, 0, 80, 0
2, 57536, Note_on_c, 0, 83, 0
2, 57600, Note_on_c, 0, 78, 50
2, 57600, Note_on_c, 0, 81, 45
2, 57621, Note_on_c, 0, 78, 0
2, 57621, Note_on_c, 0, 81, 0
2, 57632, Note_on_c, 0, 78, 51
2, 57632, Note_on_c, 0, 81, 50
2, 57653, Note_on_c, 0, 78, 0
2, 57653, Note_on_c, 0, 81, 0
2, 57664, Note_on_c, 0, 78, 46
2, 57664, Note_on_c, 0, 81, 47
2, 57685, Note_on_c, 0, 78, 0
2, 57685, Note_on_c, 0, 81, 0
2, 57696, Note_on_c, 0, 76, 54
2, 57696, Note_on_c, 0, 80, 47
2, 57717, Note_on_c, 0, 76, 0
2, 57717, Note_on_c, 0, 80, 0
2, 57728, Note_on_c, 0, 76, 48
2, 57728, Note_on_c, 0, 80, 54
2, 57749, Note_on_c, 0, 76, 0
2, 57749, Note_on_c, 0, 80, 0
2, 57760, Note_on_c, 0, 76, 56
2, 57760, Note_on_c, 0, 80, 55
2, 57781, Note_on_c, 0, 76, 0
2, 57781, Note_on_c, 0, 80, 0
2, 57792, Note_on_c, 0, 74, 47
2, 57792, Note_on_c, 0, 78, 53
2, 57813, Note_on_c, 0, 74, 0
2, 57813, Note_on_c, 0, 78, 0
2, 57824, Note_on_c, 0, 74, 50
2, 57824, Note_on_c, 0, 78, 56
2, 57845, Note_on_c, 0, 74, 0
2, 57845, Note_on_c, 0, 78, 0
2, 57856, Note_on_c, 0, 74, 54
2, 57856, Note_on_c, 0, 78, 59
2, 57877, Note_on_c, 0, 74, 0
2, 57877, Note_on_c, 0, 78, 0
2, 57888, Note_on_c, 0, 80, 51
2, 57888, Note_on_c, 0, 83, 53
2, 57909, Note_on_c, 0, 80, 0
2, 57909, Note_on_c, 0, 83, 0
2, 57920, Note_on_c, 0, 80, 51
2, 57920, Note_on_c, 0, 83, 56
2, 57941, Note_on_c, 0, 80, 0
2, 57941, Note_on_c, 0, 83, 0
2, 57952, Note_on_c, 0, 80, 59
2, 57952, Note_on_c, 0, 83, 52
2, 57973, Note_on_c, 0, 80, 0
2, 57973, Note_on_c, 0, 83, 0
2, 57984, Note_on_c, 0, 78, 62
2, 57984, Note_on_c, 0, 81, 55
2, 58005, Note_on_c, 0, 78, 0
2, 58005, Note_on_c, 0, 81, 0
2, 58016, Note_on_c, 0, 78, 63
2, 58016, Note_on_c, 0, 81, 58
2, 58037, Note_on_c, 0, 78, 0
2, 58037, Note_on_c, 0, 81, 0
2, 58048, Note_on_c, 0, 78, 64
2, 58048, Note_on_c, 0, 81, 61
2, 58069, Note_on_c, 0, 78, 0
2, 58069, Note_on_c, 0, 81, 0
2, 58080, Note_on_c, 0, 76, 57
2, 58080, Note_on_c, 0, 80, 57
2, 58101, Note_on_c, 0, 76, 0
2, 58101, Note_on_c, 0, 80, 0
2, 58112, Note_on_c, 0, 76, 63
2, 58112, Note_on_c, 0, 80, 59
2, 58133, Note_on_c, 0, 76, 0
2, 58133, Note_on_c, 0, 80, 0
2, 58144, Note_on_c, 0, 76, 59
2, 58144, Note_on_c, 0, 80, 67
2, 58165, Note_on_c, 0, 76, 0
2, 58165, Note_on_c, 0, 80, 0
2, 58176, Note_on_c, 0, 74, 59
2, 58176, Note_on_c, 0, 78, 68
2, 58197, Note_on_c, 0, 74, 0
2, 58197, Note_on_c, 0, 78, 0
2, 58208, Note_on_c, 0, 74, 62
2, 58208, Note_on_c, 0, 78, 62
2, 58229, Note_on_c, 0, 74, 0
2, 58229, Note_on_c, 0, 78, 0
2, 58240, Note_on_c, 0, 74, 62
2, 58240, Note_on_c, 0, 78, 64
2, 58261, Note_on_c, 0, 74, 0
2, 58261, Note_on_c, 0, 78, 0
2, 58272, Note_on_c, 0, 80, 65
2, 58272, Note_on_c, 0, 83, 66
2, 58293, Note_on_c, 0, 80, 0
2, 58293, Note_on_c, 0, 83, 0
2, 58304, Note_on_c, 0, 80, 71
2, 58304, Note_on_c, 0, 83, 68
2, 58325, Note_on_c, 0, 80, 0
2, 58325, Note_on_c, 0, 83, 0
2, 58336, Note_on_c, 0, 80, 70
2, 58336, Note_on_c, 0, 83, 74
2, 58357, Note_on_c, 0, 80, 0
2, 58357, Note_on_c, 0, 83, 0
2, 58368, Note_on_c, 0, 78, 66
2, 58368, Note_on_c, 0, 81, 69
2, 58389, Note_on_c, 0, 78, 0
2, 58389, Note_on_c, 0, 81, 0
2, 58400, Note_on_c, 0, 78, 74
2, 58400, Note_on_c, 0, 81, 67
2, 58421, Note_on_c, 0, 78, 0
2, 58421, Note_on_c, 0, 81, 0
2, 58432, Note_on_c, 0, 78, 77
2, 58432, Note_on_c, 0, 81, 73
2, 58453, Note_on_c, 0, 78, 0
2, 58453, Note_on_c, 0, 81, 0
2, 58464, Note_on_c, 0, 76, 68
2, 58464, Note_on_c, 0, 80, 70
2, 58485, Note_on_c, 0, 76, 0
2, 58485, Note_on_c, 0, 80, 0
2, 58496, Note_on_c, 0, 76, 70
2, 58496, Note_on_c, 0, 80, 73
2, 58517, Note_on_c, 0, 76, 0
2, 58517, Note_on_c, 0, 80, 0
2, 58528, Note_on_c, 0, 76, 70
2, 58528, Note_on_c, 0, 80, 70
2, 58549, Note_on_c, 0, 76, 0
2, 58549, Note_on_c, 0, 80, 0
2, 58560, Note_on_c, 0, 74, 73
2, 58560, Note_on_c, 0, 78, 80
2, 58581, Note_on_c, 0, 74, 0
2, 58581, Note_on_c, 0, 78, 0
2, 58592, Note_on_c, 0, 74, 73
2, 58592, Note_on_c, 0, 78, 81
2, 58613, Note_on_c, 0, 74, 0
2, 58613, Note_on_c, 0, 78, 0
2, 58624, Note_on_c, 0, 74, 80
2, 58624, Note_on_c, 0, 78, 81
2, 58645, Note_on_c, 0, 74, 0
2, 58645, Note_on_c, 0, 78, 0
2, 58656, Note_on_c, 0, 80, 77
2, 58656, Note_on_c, 0, 83, 78
2, 58677, Note_on_c, 0, 80, 0
2, 58677, Note_on_c, 0, 83, 0
2, 58688, Note_on_c, 0, 80, 83
2, 58688, Note_on_c, 0, 83, 80
2, 58709, Note_on_c, 0, 80, 0
2, 58709, Note_on_c, 0, 83, 0
2, 58720, Note_on_c, 0, 80, 85
2, 58720, Note_on_c, 0, 83, 78
2, 58741, Note_on_c, 0, 80, 0
2, 58741, Note_on_c, 0, 83, 0
2, 58752, Note_on_c, 0, 78, 81
2, 58752, Note_on_c, 0, 81, 83
2, 58773, Note_on_c, 0, 78, 0
2, 58773, Note_on_c, 0, 81, 0
2, 58784, Note_on_c, 0, 78, 82
2, 58784, Note_on_c, 0, 81, 81
2, 58805, Note_on_c, 0, 78, 0
2, 58805, Note_on_c, 0, 81, 0
2, 58816, Note_on_c, 0, 78, 88
2, 58816, Note_on_c, 0, 81, 89
2, 58837, Note_on_c, 0, 78, 0
2, 58837, Note_on_c, 0, 81, 0
2, 58848, Note_on_c, 0, 76, 86
2, 58848, Note_on_c, 0, 80, 80
2, 58869, Note_on_c, 0, 76, 0
2, 58869, Note_on_c, 0, 80, 0
2, 58880, Note_on_c, 0, 76, 89
2, 58880, Note_on_c, 0, 80, 85
2, 58901, Note_on_c, 0, 76, 0
2, 58901, Note_on_c, 0, 80, 0
2, 58912, Note_on_c, 0, 76, 91
2, 58912, Note_on_c, 0, 80, 88
2, 58933, Note_on_c, 0, 76, 0
2, 58933, Note_on_c, 0, 80, 0
2, 58944, Note_on_c, 0, 74, 89
2, 58944, Note_on_c, 0, 78, 84
2, 58965, Note_on_c, 0, 74, 0
2, 58965, Note_on_c, 0, 78, 0
2, 58976, Note_on_c, 0, 74, 87
2, 58976, Note_on_c, 0, 78, 94
2, 58997, Note_on_c, 0, 74, 0
2, 58997, Note_on_c, 0, 78, 0
2, 59008, Note_on_c, 0, 74, 87
2, 59008, Note_on_c, 0, 78, 86
2, 59029, Note_on_c, 0, 74, 0
2, 59029, Note_on_c, 0, 78, 0
2, 59040, Note_on_c, 0, 80, 94
2, 59040, Note_on_c, 0, 83, 89
2, 59061, Note_on_c, 0, 80, 0
2, 59061, Note_on_c, 0, 83, 0
2, 59072, Note_on_c, 0, 80, 94
2, 59072, Note_on_c, 0, 83, 94
2, 59093, Note_on_c, 0, 80, 0
2, 59093, Note_on_c, 0, 83, 0
2, 59104, Note_on_c, 0, 80, 92
2, 59104, Note_on_c, 0, 83, 87
2, 59125, Note_on_c, 0, 80, 0
2, 59125, Note_on_c, 0, 83, 0
2, 59136, Note_on_c, 0, 78, 90
2, 59136, Note_on_c, 0, 81, 94
2, 59157, Note_on_c, 0, 78, 0
2, 59157, Note_on_c, 0, 81, 0
2, 59168, Note_on_c, 0, 78, 92
2, 59168, Note_on_c, 0, 81, 93
2, 59189, Note_on_c, 0, 78, 0
2, 59189, Note_on_c, 0, 81, 0
2, 59200, Note_on_c, 0, 78, 95
2, 59200, Note_on_c, 0, 81, 96
2, 59221, Note_on_c, 0, 78, 0
2, 59221, Note_on_c, 0, 81, 0
2, 59232, Note_on_c, 0, 76, 88
2, 59232, Note_on_c, 0, 80, 94
2, 59253, Note_on_c, 0, 76, 0
2, 59253, Note_on_c, 0, 80, 0
2, 59264, Note_on_c, 0, 76, 96
2, 59264, Note_on_c, 0, 80, 88
2, 59285, Note_on_c, 0, 76, 0
2, 59285, Note_on_c, 0, 80, 0
2, 59296, Note_on_c, 0, 76, 97
2, 59296, Note_on_c, 0, 80, 89
2, 59317, Note_on_c, 0, 76, 0
2, 59317, Note_on_c, 0, 80, 0
2, 59328, Note_on_c, 0, 74, 93
2, 59328, Note_on_c, 0, 78, 96
2, 59349, Note_on_c, 0, 74, 0
2, 59349, Note_on_c, 0, 78, 0
2, 59360, Note_on_c, 0, 74, 93
2, 59360, Note_on_c, 0, 78, 90
2, 59381, Note_on_c, 0, 74, 0
2, 59381, Note_on_c, 0, 78, 0
2, 59392, Note_on_c, 0, 74, 87
2, 59392, Note_on_c, 0, 78, 88
2, 59413, Note_on_c, 0, 74, 0
2, 59413, Note_on_c, 0, 78, 0
2, 59424, Note_on_c, 0, 80, 96
2, 59424, Note_on_c, 0, 83, 94
2, 59445, Note_on_c, 0, 80, 0
2, 59445, Note_on_c, 0, 83, 0
2, 59456, Note_on_c, 0, 80, 93
2, 59456, Note_on_c, 0, 83, 90
2, 59477, Note_on_c, 0, 80, 0
2, 59477, Note_on_c, 0, 83, 0
2, 59488, Note_on_c, 0, 80, 95
2, 59488, Note_on_c, 0, 83, 97
2, 59509, Note_on_c, 0, 80, 0
2, 59509, Note_on_c, 0, 83, 0
2, 59520, Note_on_c, 0, 78, 94
2, 59520, Note_on_c, 0, 81, 97
2, 59541, Note_on_c, 0, 78, 0
2, 59541, Note_on_c, 0, 81, 0
2, 59552, Note_on_c, 0, 78, 93
2, 59552, Note_on_c, 0, 81, 93
2, 59573, Note_on_c, 0, 78, 0
2, 59573, Note_on_c, 0, 81, 0
2, 59584, Note_on_c, 0, 78, 94
2, 59584, Note_on_c, 0, 81, 97
2, 59605, Note_on_c, 0, 78, 0
2, 59605, Note_on_c, 0, 81, 0
2, 62496, Control_c, 0, 11, 127
2, 63072, Note_on_c, 0, 79, 43
2, 63093, Note_on_c, 0, 79, 0
2, 63104, Note_on_c, 0, 78, 43
2, 63125, Note_on_c, 0, 78, 0
2, 63136, Note_on_c, 0, 78, 45
2, 63157, Note_on_c, 0, 78, 0
2, 63168, Note_on_c, 0, 78, 50
2, 63189, Note_on_c, 0, 78, 0
2, 63200, Note_on_c, 0, 76, 42
2, 63221, Note_on_c, 0, 76, 0
2, 63232, Note_on_c, 0, 76, 48
2, 63253, Note_on_c, 0, 76, 0
2, 63264, Note_on_c, 0, 76, 42
2, 63285, Note_on_c, 0, 76, 0
2, 63296, Note_on_c, 0, 75, 43
2, 63317, Note_on_c, 0, 75, 0
2, 63328, Note_on_c, 0, 75, 43
2, 63349, Note_on_c, 0, 75, 0
2, 63360, Note_on_c, 0, 75, 48
2, 63381, Note_on_c, 0, 75, 0
2, 63392, Note_on_c, 0, 73, 45
2, 63413, Note_on_c, 0, 73, 0
2, 63424, Note_on_c, 0, 73, 48
2, 63445, Note_on_c, 0, 73, 0
2, 63456, Note_on_c, 0, 73, 43
2, 63488, Note_on_c, 0, 73, 0
2, 63488, Note_on_c, 0, 71, 53
2, 63520, Note_on_c, 0, 71, 0
2, 63520, Note_on_c, 0, 73, 54
2, 63552, Note_on_c, 0, 73, 0
2, 63552, Note_on_c, 0, 75, 54
2, 63584, Note_on_c, 0, 75, 0
2, 63584, Note_on_c, 0, 76, 62
2, 63616, Note_on_c, 0, 76, 0
2, 63616, Note_on_c, 0, 78, 62
2, 63646, Note_on_c, 0, 78, 0
2, 63648, Note_on_c, 0, 79, 40
2, 63669, Note_on_c, 0, 79, 0
2, 63680, Note_on_c, 0, 78, 49
2, 63701, Note_on_c, 0, 78, 0
2, 63712, Note_on_c, 0, 78, 42
2, 63733, Note_on_c, 0, 78, 0
2, 63744, Note_on_c, 0, 78, 43
2, 63765, Note_on_c, 0, 78, 0
2, 63776, Note_on_c, 0, 76, 43
2, 63797, Note_on_c, 0, 76, 0
2, 63808, Note_on_c, 0, 76, 47
2, 63829, Note_on_c, 0, 76, 0
2, 63840, Note_on_c, 0, 76, 45
2, 63861, Note_on_c, 0, 76, 0
2, 63872, Note_on_c, 0, 75, 49
2, 63893, Note_on_c, 0, 75, 0
2, 63904, Note_on_c, 0, 75, 44
2, 63925, Note_on_c, 0, 75, 0
2, 63936, Note_on_c, 0, 75, 50
2, 63957, Note_on_c, 0, 75, 0
2, 63968, Note_on_c, 0, 73, 40
2, 63989, Note_on_c, 0, 73, 0
2, 64000, Note_on_c, 0, 73, 43
2, 64021, Note_on_c, 0, 73, 0
2, 64032, Note_on_c, 0, 73, 48
2, 64062, Note_on_c, 0, 73, 0
2, 64064, Note_on_c, 0, 71, 52
2, 64094, Note_on_c, 0, 71, 0
2, 64096, Note_on_c, 0, 73, 44
2, 64126, Note_on_c, 0, 73, 0
2, 64128, Note_on_c, 0, 75, 47
2, 64158, Note_on_c, 0, 75, 0
2, 64160, Note_on_c, 0, 76, 55
2, 64190, Note_on_c, 0, 76, 0
2, 64192, Note_on_c, 0, 78, 54
2, 64222, Note_on_c, 0, 78, 0
2, 64224, Note_on_c, 0, 79, 55
2, 64318, Note_on_c, 0, 79, 0
2, 64800, Control_c, 0, 7, 92
2, 67680, Control_c, 0, 11, 127
2, 68256, Control_c, 0, 7, 127
2, 69984, Control_c, 0, 11, 127
2, 70368, Note_on_c, 0, 60, 48
2, 70390, Note_on_c, 0, 60, 0
2, 70392, Note_on_c, 0, 62, 47
2, 70414, Note_on_c, 0, 62, 0
2, 70416, Note_on_c, 0, 64, 45
2, 70438, Note_on_c, 0, 64, 0
2, 70440, Note_on_c, 0, 66, 43
2, 70462, Note_on_c, 0, 66, 0
2, 70464, Note_on_c, 0, 68, 45
2, 70486, Note_on_c, 0, 68, 0
2, 70488, Note_on_c, 0, 70, 49
2, 70510, Note_on_c, 0, 70, 0
2, 70512, Note_on_c, 0, 72, 40
2, 70534, Note_on_c, 0, 72, 0
2, 70536, Note_on_c, 0, 74, 46
2, 70558, Note_on_c, 0, 74, 0
2, 70944, Note_on_c, 0, 60, 48
2, 70966, Note_on_c, 0, 60, 0
2, 70968, Note_on_c, 0, 62, 46
2, 70990, Note_on_c, 0, 62, 0
2, 70992, Note_on_c, 0, 64, 49
2, 71014, Note_on_c, 0, 64, 0
2, 71016, Note_on_c, 0, 66, 41
2, 71038, Note_on_c, 0, 66, 0
2, 71040, Note_on_c, 0, 68, 43
2, 71062, Note_on_c, 0, 68, 0
2, 71064, Note_on_c, 0, 70, 43
2, 71086, Note_on_c, 0, 70, 0
2, 71088, Note_on_c, 0, 72, 46
2, 71110, Note_on_c, 0, 72, 0
2, 71112, Note_on_c, 0, 74, 48
2, 71134, Note_on_c, 0, 74, 0
2, 73824, Note_on_c, 0, 60, 40
2, 73846, Note_on_c, 0, 60, 0
2, 73848, Note_on_c, 0, 62, 50
2, 73870, Note_on_c, 0, 62, 0
2, 73872, Note_on_c, 0, 64, 41
2, 73894, Note_on_c, 0, 64, 0
2, 73896, Note_on_c, 0, 66, 40
2, 73918, Note_on_c, 0, 66, 0
2, 73920, Note_on_c, 0, 68, 43
2, 73942, Note_on_c, 0, 68, 0
2, 73944, Note_on_c, 0, 70, 46
2, 73966, Note_on_c, 0, 70, 0
2, 73968, Note_on_c, 0, 72, 40
2, 73990, Note_on_c, 0, 72, 0
2, 73992, Note_on_c, 0, 74, 45
2, 74014, Note_on_c, 0, 74, 0
2, 74400, Note_on_c, 0, 60, 47
2, 74422, Note_on_c, 0, 60, 0
2, 74424, Note_on_c, 0, 62, 44
2, 74446, Note_on_c, 0, 62, 0
2, 74448, Note_on_c, 0, 64, 41
2, 74470, Note_on_c, 0, 64, 0
2, 74472, Note_on_c, 0, 66, 44
2, 74494, Note_on_c, 0, 66, 0
2, 74496, Note_on_c, 0, 68, 47
2, 74518, Note_on_c, 0, 68, 0
2, 74520, Note_on_c, 0, 70, 41
2, 74542, Note_on_c, 0, 70, 0
2, 74544, Note_on_c, 0, 72, 48
2, 74566, Note_on_c, 0, 72, 0
2, 74568, Note_on_c, 0, 74, 49
2, 74590, Note_on_c, 0, 74, 0
2, 74592, Control_c, 0, 11, 127
2, 75168, Note_on_c, 0, 81, 33
2, 75168, Note_on_c, 0, 85, 30
2, 75200, Note_on_c, 0, 81, 0
2, 75200, Note_on_c, 0, 85, 0
2, 75264, Note_on_c, 0, 80, 26
2, 75264, Note_on_c, 0, 84, 31
2, 75294, Note_on_c, 0, 80, 0
2, 75294, Note_on_c, 0, 84, 0
2, 75296, Note_on_c, 0, 79, 34
2, 75296, Note_on_c, 0, 83, 27
2, 75326, Note_on_c, 0, 79, 0
2, 75326, Note_on_c, 0, 83, 0
2, 75328, Note_on_c, 0, 82, 33
2, 75328, Note_on_c, 0, 86, 31
2, 75358, Note_on_c, 0, 82, 0
2, 75358, Note_on_c, 0, 86, 0
2, 75360, Note_on_c, 0, 81, 27
2, 75360, Note_on_c, 0, 85, 35
2, 75392, Note_on_c, 0, 81, 0
2, 75392, Note_on_c, 0, 85, 0
2, 75456, Note_on_c, 0, 80, 39
2, 75456, Note_on_c, 0, 84, 38
2, 75486, Note_on_c, 0, 80, 0
2, 75486, Note_on_c, 0, 84, 0
2, 75488, Note_on_c, 0, 79, 40
2, 75488, Note_on_c, 0, 83, 44
2, 75518, Note_on_c, 0, 79, 0
2, 75518, Note_on_c, 0, 83, 0
2, 75520, Note_on_c, 0, 82, 46
2, 75520, Note_on_c, 0, 86, 42
2, 75550, Note_on_c, 0, 82, 0
2, 75550, Note_on_c, 0, 86, 0
2, 75552, Note_on_c, 0, 81, 48
2, 75552, Note_on_c, 0, 85, 50
2, 75584, Note_on_c, 0, 81, 0
2, 75584, Note_on_c, 0, 85, 0
2, 75648, Note_on_c, 0, 85, 42
2, 75648, Note_on_c, 0, 89, 42
2, 75680, Note_on_c, 0, 85, 0
2, 75680, Note_on_c, 0, 89, 0
2, 76320, Note_on_c, 0, 77, 44
2, 76320, Note_on_c, 0, 81, 42
2, 76352, Note_on_c, 0, 77, 0
2, 76352, Note_on_c, 0, 81, 0
2, 76416, Note_on_c, 0, 76, 45
2, 76416, Note_on_c, 0, 80, 46
2, 76446, Note_on_c, 0, 76, 0
2, 76446, Note_on_c, 0, 80, 0
2, 76448, Note_on_c, 0, 75, 47
2, 76448, Note_on_c, 0, 79, 51
2, 76478, Note_on_c, 0, 75, 0
2, 76478, Note_on_c, 0, 79, 0
2, 76480, Note_on_c, 0, 78, 51
2, 76480, Note_on_c, 0, 82, 51
2, 76510, Note_on_c, 0, 78, 0
2, 76510, Note_on_c, 0, 82, 0
2, 76512, Note_on_c, 0, 77, 49
2, 76512, Note_on_c, 0, 81, 54
2, 76544, Note_on_c, 0, 77, 0
2, 76544, Note_on_c, 0, 81, 0
2, 76608, Note_on_c, 0, 76, 59
2, 76608, Note_on_c, 0, 80, 59
2, 76638, Note_on_c, 0, 76, 0
2, 76638, Note_on_c, 0, 80, 0
2, 76640, Note_on_c, 0, 75, 55
2, 76640, Note_on_c, 0, 79, 63
2, 76670, Note_on_c, 0, 75, 0
2, 76670, Note_on_c, 0, 79, 0
2, 76672, Note_on_c, 0, 77, 55
2, 76672, Note_on_c, 0, 82, 62
2, 76702, Note_on_c, 0, 77, 0
2, 76702, Note_on_c, 0, 82, 0
2, 76704, Note_on_c, 0, 76, 46
2, 76704, Note_on_c, 0, 80, 50
2, 76734, Note_on_c, 0, 76, 0
2, 76734, Note_on_c, 0, 80, 0
2, 76736, Note_on_c, 0, 72, 50
2, 76736, Note_on_c, 0, 76, 46
2, 76766, Note_on_c, 0, 72, 0
2, 76766, Note_on_c, 0, 76, 0
2, 76768, Note_on_c, 0, 76, 48
2, 76768, Note_on_c, 0, 80, 52
2, 76798, Note_on_c, 0, 76, 0
2, 76798, Note_on_c, 0, 80, 0
2, 76800, Note_on_c, 0, 72, 47
2, 76800, Note_on_c, 0, 76, 48
2, 76830, Note_on_c, 0, 72, 0
2, 76830, Note_on_c, 0, 76, 0
2, 76832, Note_on_c, 0, 68, 56
2, 76832, Note_on_c, 0, 72, 56
2, 76862, Note_on_c, 0, 68, 0
2, 76862, Note_on_c, 0, 72, 0
2, 76864, Note_on_c, 0, 72, 55
2, 76864, Note_on_c, 0, 76, 59
2, 76894, Note_on_c, 0, 72, 0
2, 76894, Note_on_c, 0, 76, 0
2, 77088, Note_on_c, 0, 76, 43
2, 77088, Note_on_c, 0, 80, 48
2, 77118, Note_on_c, 0, 76, 0
2, 77118, Note_on_c, 0, 80, 0
2, 77120, Note_on_c, 0, 72, 49
2, 77120, Note_on_c, 0, 76, 41
2, 77150, Note_on_c, 0, 72, 0
2, 77150, Note_on_c, 0, 76, 0
2, 77152, Note_on_c, 0, 76, 48
2, 77152, Note_on_c, 0, 80, 47
2, 77182, Note_on_c, 0, 76, 0
2, 77182, Note_on_c, 0, 80, 0
2, 77184, Note_on_c, 0, 72, 49
2, 77184, Note_on_c, 0, 76, 50
2, 77214, Note_on_c, 0, 72, 0
2, 77214, Note_on_c, 0, 76, 0
2, 77216, Note_on_c, 0, 68, 52
2, 77216, Note_on_c, 0, 72, 51
2, 77246, Note_on_c, 0, 68, 0
2, 77246, Note_on_c, 0, 72, 0
2, 77248, Note_on_c, 0, 72, 58
2, 77248, Note_on_c, 0, 76, 60
2, 77278, Note_on_c, 0, 72, 0
2, 77278, Note_on_c, 0, 76, 0
2, 79008, Note_on_c, 0, 79, 41
2, 79038, Note_on_c, 0, 79, 0
2, 79040, Note_on_c, 0, 82, 41
2, 79070, Note_on_c, 0, 82, 0
2, 79072, Note_on_c, 0, 84, 48
2, 79102, Note_on_c, 0, 84, 0
2, 79104, Note_on_c, 0, 85, 52
2, 79134, Note_on_c, 0, 85, 0
2, 79136, Note_on_c, 0, 87, 67
2, 79166, Note_on_c, 0, 87, 0
2, 79168, Note_on_c, 0, 89, 66
2, 79198, Note_on_c, 0, 89, 0
2, 79200, Note_on_c, 0, 91, 70
2, 79232, Note_on_c, 0, 91, 0
2, 79584, Note_on_c, 0, 79, 46
2, 79614, Note_on_c, 0, 79, 0
2, 79616, Note_on_c, 0, 82, 42
2, 79646, Note_on_c, 0, 82, 0
2, 79648, Note_on_c, 0, 84, 47
2, 79678, Note_on_c, 0, 84, 0
2, 79680, Note_on_c, 0, 85, 60
2, 79710, Note_on_c, 0, 85, 0
2, 79712, Note_on_c, 0, 87, 64
2, 79742, Note_on_c, 0, 87, 0
2, 79744, Note_on_c, 0, 89, 75
2, 79774, Note_on_c, 0, 89, 0
2, 79776, Note_on_c, 0, 91, 50
2, 79808, Note_on_c, 0, 91, 0
2, 80160, Note_on_c, 0, 79, 49
2, 80190, Note_on_c, 0, 79, 0
2, 80192, Note_on_c, 0, 82, 42
2, 80222, Note_on_c, 0, 82, 0
2, 80224, Note_on_c, 0, 84, 51
2, 80254, Note_on_c, 0, 84, 0
2, 80256, Note_on_c, 0, 85, 44
2, 80286, Note_on_c, 0, 85, 0
2, 80288, Note_on_c, 0, 87, 53
2, 80318, Note_on_c, 0, 87, 0
2, 80320, Note_on_c, 0, 89, 49
2, 80350, Note_on_c, 0, 89, 0
2, 80352, Note_on_c, 0, 91, 56
2, 80384, Note_on_c, 0, 91, 0
2, 80544, Control_c, 0, 7, 92
2, 80736, Note_on_c, 0, 79, 79
2, 80766, Note_on_c, 0, 79, 0
2, 80768, Note_on_c, 0, 82, 78
2, 80798, Note_on_c, 0, 82, 0
2, 80800, Note_on_c, 0, 84, 84
2, 80830, Note_on_c, 0, 84, 0
2, 80832, Note_on_c, 0, 85, 85
2, 80862, Note_on_c, 0, 85, 0
2, 80864, Note_on_c, 0, 87, 94
2, 80894, Note_on_c, 0, 87, 0
2, 80896, Note_on_c, 0, 89, 97
2, 80926, Note_on_c, 0, 89, 0
2, 81120, Control_c, 0, 11, 92
2, 81120, Note_on_c, 0, 86, 110
2, 81120, Note_on_c, 0, 90, 111
2, 81144, Note_on_c, 0, 86, 0
2, 81144, Note_on_c, 0, 90, 0
2, 81144, Note_on_c, 0, 84, 112
2, 81144, Note_on_c, 0, 88, 108
2, 81504, Control_c, 0, 11, 92
2, 81525, Control_c, 0, 11, 93
2, 81547, Control_c, 0, 11, 94
2, 81569, Control_c, 0, 11, 95
2, 81591, Control_c, 0, 11, 96
2, 81613, Control_c, 0, 11, 97
2, 81635, Control_c, 0, 11, 98
2, 81657, Control_c, 0, 11, 99
2, 81679, Control_c, 0, 11, 100
2, 81701, Control_c, 0, 11, 101
2, 81723, Control_c, 0, 11, 102
2, 81745, Control_c, 0, 11, 103
2, 81767, Control_c, 0, 11, 104
2, 81789, Control_c, 0, 11, 105
2, 81811, Control_c, 0, 11, 106
2, 81833, Control_c, 0, 11, 107
2, 81855, Control_c, 0, 11, 108
2, 81877, Control_c, 0, 11, 109
2, 81898, Control_c, 0, 11, 110
2, 81920, Control_c, 0, 11, 111
2, 81942, Control_c, 0, 11, 112
2, 81964, Control_c, 0, 11, 113
2, 81986, Control_c, 0, 11, 114
2, 82008, Control_c, 0, 11, 115
2, 82030, Control_c, 0, 11, 116
2, 82032, Note_on_c, 0, 84, 0
2, 82032, Note_on_c, 0, 88, 0
2, 82052, Control_c, 0, 11, 117
2, 82074, Control_c, 0, 11, 118
2, 82080, Note_on_c, 0, 82, 109
2, 82080, Note_on_c, 0, 86, 109
2, 82096, Control_c, 0, 11, 119
2, 82104, Note_on_c, 0, 82, 0
2, 82104, Note_on_c, 0, 86, 0
2, 82104, Note_on_c, 0, 80, 107
2, 82104, Note_on_c, 0, 84, 109
2, 82118, Control_c, 0, 11, 120
2, 82140, Control_c, 0, 11, 121
2, 82162, Control_c, 0, 11, 122
2, 82184, Control_c, 0, 11, 123
2, 82206, Control_c, 0, 11, 124
2, 82228, Control_c, 0, 11, 125
2, 82250, Control_c, 0, 11, 126
2, 82272, Control_c, 0, 11, 127
2, 82992, Note_on_c, 0, 80, 0
2, 82992, Note_on_c, 0, 84, 0
2, 83424, Control_c, 0, 11, 92
2, 83424, Note_on_c, 0, 86, 105
2, 83424, Note_on_c, 0, 90, 113
2, 83448, Note_on_c, 0, 86, 0
2, 83448, Note_on_c, 0, 90, 0
2, 83448, Note_on_c, 0, 84, 112
2, 83448, Note_on_c, 0, 88, 105
2, 83808, Control_c, 0, 11, 92
2, 83829, Control_c, 0, 11, 93
2, 83851, Control_c, 0, 11, 94
2, 83873, Control_c, 0, 11, 95
2, 83895, Control_c, 0, 11, 96
2, 83917, Control_c, 0, 11, 97
2, 83939, Control_c, 0, 11, 98
2, 83961, Control_c, 0, 11, 99
2, 83983, Control_c, 0, 11, 100
2, 84005, Control_c, 0, 11, 101
2, 84027, Control_c, 0, 11, 102
2, 84049, Control_c, 0, 11, 103
2, 84071, Control_c, 0, 11, 104
2, 84093, Control_c, 0, 11, 105
2, 84115, Control_c, 0, 11, 106
2, 84137, Control_c, 0, 11, 107
2, 84159, Control_c, 0, 11, 108
2, 84181, Control_c, 0, 11, 109
2, 84202, Control_c, 0, 11, 110
2, 84224, Control_c, 0, 11, 111
2, 84246, Control_c, 0, 11, 112
2, 84268, Control_c, 0, 11, 113
2, 84290, Control_c, 0, 11, 114
2, 84312, Control_c, 0, 11, 115
2, 84334, Control_c, 0, 11, 116
2, 84336, Note_on_c, 0, 84, 0
2, 84336, Note_on_c, 0, 88, 0
2, 84356, Control_c, 0, 11, 117
2, 84378, Control_c, 0, 11, 118
2, 84384, Note_on_c, 0, 82, 113
2, 84384, Note_on_c, 0, 86, 105
2, 84400, Control_c, 0, 11, 119
2, 84408, Note_on_c, 0, 82, 0
2, 84408, Note_on_c, 0, 86, 0
2, 84408, Note_on_c, 0, 80, 103
2, 84408, Note_on_c, 0, 84, 111
2, 84422, Control_c, 0, 11, 120
2, 84444, Control_c, 0, 11, 121
2, 84466, Control_c, 0, 11, 122
2, 84488, Control_c, 0, 11, 123
2, 84510, Control_c, 0, 11, 124
2, 84532, Control_c, 0, 11, 125
2, 84554, Control_c, 0, 11, 126
2, 84576, Control_c, 0, 11, 127
2, 84960, Control_c, 0, 11, 127
2, 84969, Control_c, 0, 11, 126
2, 84978, Control_c, 0, 11, 125
2, 84988, Control_c, 0, 11, 124
2, 84997, Control_c, 0, 11, 123
2, 85006, Control_c, 0, 11, 122
2, 85016, Control_c, 0, 11, 121
2, 85025, Control_c, 0, 11, 120
2, 85034, Control_c, 0, 11, 119
2, 85044, Control_c, 0, 11, 118
2, 85053, Control_c, 0, 11, 117
2, 85063, Control_c, 0, 11, 116
2, 85072, Control_c, 0, 11, 115
2, 85081, Control_c, 0, 11, 114
2, 85091, Control_c, 0, 11, 113
2, 85100, Control_c, 0, 11, 112
2, 85109, Control_c, 0, 11, 111
2, 85119, Control_c, 0, 11, 110
2, 85128, Control_c, 0, 11, 109
2, 85137, Control_c, 0, 11, 108
2, 85147, Control_c, 0, 11, 107
2, 85156, Control_c, 0, 11, 106
2, 85166, Control_c, 0, 11, 105
2, 85175, Control_c, 0, 11, 104
2, 85184, Control_c, 0, 11, 103
2, 85194, Control_c, 0, 11, 102
2, 85203, Control_c, 0, 11, 101
2, 85212, Control_c, 0, 11, 100
2, 85222, Control_c, 0, 11, 99
2, 85231, Control_c, 0, 11, 98
2, 85240, Control_c, 0, 11, 97
2, 85250, Control_c, 0, 11, 96
2, 85259, Control_c, 0, 11, 95
2, 85269, Control_c, 0, 11, 94
2, 85278, Control_c, 0, 11, 93
2, 85287, Control_c, 0, 11, 92
2, 85297, Control_c, 0, 11, 91
2, 85306, Control_c, 0, 11, 90
2, 85315, Control_c, 0, 11, 89
2, 85325, Control_c, 0, 11, 88
2, 85334, Control_c, 0, 11, 87
2, 85343, Control_c, 0, 11, 86
2, 85353, Control_c, 0, 11, 85
2, 85362, Control_c, 0, 11, 84
2, 85372, Control_c, 0, 11, 83
2, 85381, Control_c, 0, 11, 82
2, 85390, Control_c, 0, 11, 81
2, 85400, Control_c, 0, 11, 80
2, 85409, Control_c, 0, 11, 79
2, 85418, Control_c, 0, 11, 78
2, 85428, Control_c, 0, 11, 77
2, 85437, Control_c, 0, 11, 76
2, 85447, Control_c, 0, 11, 75
2, 85456, Control_c, 0, 11, 74
2, 85465, Control_c, 0, 11, 73
2, 85475, Control_c, 0, 11, 72
2, 85484, Control_c, 0, 11, 71
2, 85493, Control_c, 0, 11, 70
2, 85503, Control_c, 0, 11, 69
2, 85512, Control_c, 0, 11, 68
2, 85521, Control_c, 0, 11, 67
2, 85531, Control_c, 0, 11, 66
2, 85540, Control_c, 0, 11, 65
2, 85550, Control_c, 0, 11, 64
2, 85559, Control_c, 0, 11, 63
2, 85568, Control_c, 0, 11, 62
2, 85578, Control_c, 0, 11, 61
2, 85587, Control_c, 0, 11, 60
2, 85596, Control_c, 0, 11, 59
2, 85606, Control_c, 0, 11, 58
2, 85615, Control_c, 0, 11, 57
2, 85624, Control_c, 0, 11, 56
2, 85634, Control_c, 0, 11, 55
2, 85643, Control_c, 0, 11, 54
2, 85653, Control_c, 0, 11, 53
2, 85662, Control_c, 0, 11, 52
2, 85671, Control_c, 0, 11, 51
2, 85681, Control_c, 0, 11, 50
2, 85690, Control_c, 0, 11, 49
2, 85696, Note_on_c, 0, 80, 0
2, 85696, Note_on_c, 0, 84, 0
2, 85699, Control_c, 0, 11, 48
2, 85709, Control_c, 0, 11, 47
2, 85718, Control_c, 0, 11, 46
2, 85728, Control_c, 0, 11, 45
2, 86112, Control_c, 0, 11, 127
2, 86688, Note_on_c, 0, 75, 71
2, 86718, Note_on_c, 0, 75, 0
2, 86720, Note_on_c, 0, 76, 71
2, 86750, Note_on_c, 0, 76, 0
2, 86752, Note_on_c, 0, 75, 75
2, 86782, Note_on_c, 0, 75, 0
2, 86784, Note_on_c, 0, 76, 73
2, 86814, Note_on_c, 0, 76, 0
2, 86816, Note_on_c, 0, 75, 73
2, 86846, Note_on_c, 0, 75, 0
2, 86848, Note_on_c, 0, 76, 77
2, 86878, Note_on_c, 0, 76, 0
2, 86880, Note_on_c, 0, 75, 78
2, 86910, Note_on_c, 0, 75, 0
2, 86912, Note_on_c, 0, 76, 71
2, 86942, Note_on_c, 0, 76, 0
2, 86944, Note_on_c, 0, 75, 73
2, 86974, Note_on_c, 0, 75, 0
2, 86976, Note_on_c, 0, 76, 72
2, 87022, Note_on_c, 0, 76, 0
2, 87024, Note_on_c, 0, 74, 71
2, 87070, Note_on_c, 0, 74, 0
2, 87072, Note_on_c, 0, 75, 96
2, 87120, Note_on_c, 0, 75, 0
2, 87264, Note_on_c, 0, 75, 70
2, 87294, Note_on_c, 0, 75, 0
2, 87296, Note_on_c, 0, 76, 70
2, 87326, Note_on_c, 0, 76, 0
2, 87328, Note_on_c, 0, 75, 79
2, 87358, Note_on_c, 0, 75, 0
2, 87360, Note_on_c, 0, 76, 78
2, 87390, Note_on_c, 0, 76, 0
2, 87392, Note_on_c, 0, 75, 80
2, 87422, Note_on_c, 0, 75, 0
2, 87424, Note_on_c, 0, 76, 72
2, 87454, Note_on_c, 0, 76, 0
2, 87456, Note_on_c, 0, 75, 80
2, 87486, Note_on_c, 0, 75, 0
2, 87488, Note_on_c, 0, 76, 80
2, 87518, Note_on_c, 0, 76, 0
2, 87520, Note_on_c, 0, 75, 78
2, 87550, Note_on_c, 0, 75, 0
2, 87552, Note_on_c, 0, 76, 76
2, 87598, Note_on_c, 0, 76, 0
2, 87600, Note_on_c, 0, 74, 73
2, 87646, Note_on_c, 0, 74, 0
2, 87648, Note_on_c, 0, 75, 90
2, 87696, Note_on_c, 0, 75, 0
2, 87840, Note_on_c, 0, 75, 71
2, 88094, Note_on_c, 0, 75, 0
2, 88096, Note_on_c, 0, 76, 70
2, 88138, Note_on_c, 0, 76, 0
2, 88160, Note_on_c, 0, 78, 78
2, 88202, Note_on_c, 0, 78, 0
2, 88224, Note_on_c, 0, 78, 76
2, 88266, Note_on_c, 0, 78, 0
2, 88288, Note_on_c, 0, 76, 75
2, 88330, Note_on_c, 0, 76, 0
2, 88352, Note_on_c, 0, 75, 79
2, 88384, Note_on_c, 0, 75, 0
2, 88400, Note_on_c, 0, 75, 79
2, 88414, Note_on_c, 0, 75, 0
2, 88416, Note_on_c, 0, 73, 76
2, 88458, Note_on_c, 0, 73, 0
2, 88480, Note_on_c, 0, 71, 72
2, 88522, Note_on_c, 0, 71, 0
2, 88544, Note_on_c, 0, 71, 73
2, 88586, Note_on_c, 0, 71, 0
2, 88608, Note_on_c, 0, 71, 80
2, 88670, Note_on_c, 0, 71, 0
2, 88672, Note_on_c, 0, 70, 80
2, 88714, Note_on_c, 0, 70, 0
2, 88736, Note_on_c, 0, 70, 79
2, 88768, Note_on_c, 0, 70, 0
2, 88784, Note_on_c, 0, 68, 82
2, 88798, Note_on_c, 0, 68, 0
2, 88800, Note_on_c, 0, 70, 88
2, 88862, Note_on_c, 0, 70, 0
2, 88864, Note_on_c, 0, 71, 88
2, 88926, Note_on_c, 0, 71, 0
2, 88928, Note_on_c, 0, 73, 94
2, 88990, Note_on_c, 0, 73, 0
2, 92448, Note_on_c, 0, 80, 45
2, 92510, Note_on_c, 0, 80, 0
2, 92512, Note_on_c, 0, 83, 43
2, 92554, Note_on_c, 0, 83, 0
2, 92576, Note_on_c, 0, 82, 44
2, 92618, Note_on_c, 0, 82, 0
2, 92640, Note_on_c, 0, 82, 45
2, 92702, Note_on_c, 0, 82, 0
2, 92704, Note_on_c, 0, 80, 46
2, 92746, Note_on_c, 0, 80, 0
2, 92768, Note_on_c, 0, 80, 48
2, 92810, Note_on_c, 0, 80, 0
2, 92832, Note_on_c, 0, 80, 51
2, 92894, Note_on_c, 0, 80, 0
2, 92896, Note_on_c, 0, 85, 58
2, 92958, Note_on_c, 0, 85, 0
2, 92960, Note_on_c, 0, 83, 59
2, 93022, Note_on_c, 0, 83, 0
2, 93024, Note_on_c, 0, 83, 59
2, 93038, Note_on_c, 0, 83, 0
2, 93040, Note_on_c, 0, 82, 58
2, 93086, Note_on_c, 0, 82, 0
2, 93088, Note_on_c, 0, 80, 58
2, 93130, Note_on_c, 0, 80, 0
2, 93152, Note_on_c, 0, 80, 64
2, 93194, Note_on_c, 0, 80, 0
2, 93216, Note_on_c, 0, 80, 69
2, 93258, Note_on_c, 0, 80, 0
2, 93280, Note_on_c, 0, 83, 70
2, 93342, Note_on_c, 0, 83, 0
2, 93344, Note_on_c, 0, 82, 69
2, 93406, Note_on_c, 0, 82, 0
2, 93408, Note_on_c, 0, 80, 73
2, 93470, Note_on_c, 0, 80, 0
2, 93472, Note_on_c, 0, 82, 70
2, 93534, Note_on_c, 0, 82, 0
2, 93536, Note_on_c, 0, 83, 75
2, 93598, Note_on_c, 0, 83, 0
2, 94752, Note_on_c, 0, 74, 42
2, 94814, Note_on_c, 0, 74, 0
2, 94816, Note_on_c, 0, 78, 41
2, 94858, Note_on_c, 0, 78, 0
2, 94880, Note_on_c, 0, 76, 49
2, 94922, Note_on_c, 0, 76, 0
2, 94944, Note_on_c, 0, 78, 44
2, 94958, Note_on_c, 0, 78, 0
2, 94960, Note_on_c, 0, 76, 47
2, 95006, Note_on_c, 0, 76, 0
2, 95008, Note_on_c, 0, 75, 43
2, 95050, Note_on_c, 0, 75, 0
2, 95072, Note_on_c, 0, 75, 43
2, 95114, Note_on_c, 0, 75, 0
2, 95136, Note_on_c, 0, 75, 43
2, 95198, Note_on_c, 0, 75, 0
2, 95200, Note_on_c, 0, 80, 42
2, 95242, Note_on_c, 0, 80, 0
2, 95264, Note_on_c, 0, 78, 46
2, 95306, Note_on_c, 0, 78, 0
2, 95328, Note_on_c, 0, 74, 46
2, 95390, Note_on_c, 0, 74, 0
2, 95392, Note_on_c, 0, 78, 44
2, 95434, Note_on_c, 0, 78, 0
2, 95456, Note_on_c, 0, 76, 45
2, 95498, Note_on_c, 0, 76, 0
2, 95520, Note_on_c, 0, 78, 48
2, 95534, Note_on_c, 0, 78, 0
2, 95536, Note_on_c, 0, 76, 40
2, 95582, Note_on_c, 0, 76, 0
2, 95584, Note_on_c, 0, 75, 46
2, 95626, Note_on_c, 0, 75, 0
2, 95648, Note_on_c, 0, 75, 41
2, 95690, Note_on_c, 0, 75, 0
2, 95712, Note_on_c, 0, 75, 42
2, 95774, Note_on_c, 0, 75, 0
2, 95776, Note_on_c, 0, 80, 48
2, 95818, Note_on_c, 0, 80, 0
2, 95840, Note_on_c, 0, 78, 49
2, 95882, Note_on_c, 0, 78, 0
2, 98208, Note_on_c, 0, 82, 56
2, 98250, Note_on_c, 0, 82, 0
2, 98272, Note_on_c, 0, 79, 55
2, 98314, Note_on_c, 0, 79, 0
2, 98336, Note_on_c, 0, 76, 55
2, 98378, Note_on_c, 0, 76, 0
2, 98400, Note_on_c, 0, 82, 57
2, 98400, Note_on_c, 0, 87, 52
2, 98442, Note_on_c, 0, 82, 0
2, 98442, Note_on_c, 0, 87, 0
2, 98464, Note_on_c, 0, 79, 50
2, 98464, Note_on_c, 0, 82, 48
2, 98506, Note_on_c, 0, 79, 0
2, 98506, Note_on_c, 0, 82, 0
2, 98528, Note_on_c, 0, 76, 58
2, 98528, Note_on_c, 0, 79, 58
2, 98570, Note_on_c, 0, 76, 0
2, 98570, Note_on_c, 0, 79, 0
2, 98784, Note_on_c, 0, 82, 54
2, 98826, Note_on_c, 0, 82, 0
2, 98848, Note_on_c, 0, 79, 54
2, 98890, Note_on_c, 0, 79, 0
2, 98912, Note_on_c, 0, 76, 58
2, 98954, Note_on_c, 0, 76, 0
2, 98976, Note_on_c, 0, 82, 49
2, 98976, Note_on_c, 0, 87, 49
2, 99018, Note_on_c, 0, 82, 0
2, 99018, Note_on_c, 0, 87, 0
2, 99040, Note_on_c, 0, 79, 58
2, 99040, Note_on_c, 0, 82, 54
2, 99082, Note_on_c, 0, 79, 0
2, 99082, Note_on_c, 0, 82, 0
2, 99104, Note_on_c, 0, 76, 57
2, 99104, Note_on_c, 0, 79, 56
2, 99146, Note_on_c, 0, 76, 0
2, 99146, Note_on_c, 0, 79, 0
2, 99360, Note_on_c, 0, 83, 52
2, 99402, Note_on_c, 0, 83, 0
2, 99424, Note_on_c, 0, 80, 54
2, 99466, Note_on_c, 0, 80, 0
2, 99488, Note_on_c, 0, 76, 53
2, 99530, Note_on_c, 0, 76, 0
2, 99552, Note_on_c, 0, 83, 53
2, 99552, Note_on_c, 0, 87, 58
2, 99594, Note_on_c, 0, 83, 0
2, 99594, Note_on_c, 0, 87, 0
2, 99616, Note_on_c, 0, 80, 58
2, 99616, Note_on_c, 0, 83, 58
2, 99658, Note_on_c, 0, 80, 0
2, 99658, Note_on_c, 0, 83, 0
2, 99680, Note_on_c, 0, 76, 59
2, 99680, Note_on_c, 0, 80, 54
2, 99722, Note_on_c, 0, 76, 0
2, 99722, Note_on_c, 0, 80, 0
2, 99936, Note_on_c, 0, 83, 51
2, 99978, Note_on_c, 0, 83, 0
2, 100000, Note_on_c, 0, 80, 54
2, 100042, Note_on_c, 0, 80, 0
2, 100064, Note_on_c, 0, 76, 57
2, 100106, Note_on_c, 0, 76, 0
2, 100128, Note_on_c, 0, 83, 52
2, 100128, Note_on_c, 0, 87, 55
2, 100170, Note_on_c, 0, 83, 0
2, 100170, Note_on_c, 0, 87, 0
2, 100192, Note_on_c, 0, 80, 60
2, 100192, Note_on_c, 0, 83, 60
2, 100234, Note_on_c, 0, 80, 0
2, 100234, Note_on_c, 0, 83, 0
2, 100256, Note_on_c, 0, 76, 60
2, 100256, Note_on_c, 0, 80, 51
2, 100298, Note_on_c, 0, 76, 0
2, 100298, Note_on_c, 0, 80, 0
2, 101088, Control_c, 0, 11, 127
2, 103008, Control_c, 0, 11, 64
2, 103008, Note_on_c, 0, 74, 79
2, 103023, Control_c, 0, 11, 65
2, 103038, Control_c, 0, 11, 66
2, 103053, Control_c, 0, 11, 67
2, 103068, Control_c, 0, 11, 68
2, 103070, Note_on_c, 0, 74, 0
2, 103072, Note_on_c, 0, 76, 74
2, 103084, Control_c, 0, 11, 69
2, 103099, Control_c, 0, 11, 70
2, 103114, Control_c, 0, 11, 71
2, 103129, Control_c, 0, 11, 72
2, 103134, Note_on_c, 0, 76, 0
2, 103136, Note_on_c, 0, 78, 77
2, 103145, Control_c, 0, 11, 73
2, 103160, Control_c, 0, 11, 74
2, 103175, Control_c, 0, 11, 75
2, 103190, Control_c, 0, 11, 76
2, 103198, Note_on_c, 0, 78, 0
2, 103200, Note_on_c, 0, 80, 70
2, 103206, Control_c, 0, 11, 77
2, 103221, Control_c, 0, 11, 78
2, 103236, Control_c, 0, 11, 79
2, 103251, Control_c, 0, 11, 80
2, 103267, Control_c, 0, 11, 81
2, 103282, Control_c, 0, 11, 82
2, 103297, Control_c, 0, 11, 83
2, 103312, Control_c, 0, 11, 84
2, 103328, Control_c, 0, 11, 85
2, 103343, Control_c, 0, 11, 86
2, 103358, Control_c, 0, 11, 87
2, 103373, Control_c, 0, 11, 88
2, 103388, Control_c, 0, 11, 89
2, 103404, Control_c, 0, 11, 90
2, 103419, Control_c, 0, 11, 91
2, 103434, Control_c, 0, 11, 92
2, 103449, Control_c, 0, 11, 93
2, 103454, Note_on_c, 0, 80, 0
2, 103456, Note_on_c, 0, 81, 75
2, 103465, Control_c, 0, 11, 94
2, 103480, Control_c, 0, 11, 95
2, 103495, Control_c, 0, 11, 96
2, 103510, Control_c, 0, 11, 97
2, 103518, Note_on_c, 0, 81, 0
2, 103520, Note_on_c, 0, 83, 80
2, 103526, Control_c, 0, 11, 98
2, 103541, Control_c, 0, 11, 99
2, 103556, Control_c, 0, 11, 100
2, 103571, Control_c, 0, 11, 101
2, 103582, Note_on_c, 0, 83, 0
2, 103584, Note_on_c, 0, 81, 77
2, 103587, Control_c, 0, 11, 102
2, 103602, Control_c, 0, 11, 103
2, 103617, Control_c, 0, 11, 104
2, 103632, Control_c, 0, 11, 105
2, 103648, Control_c, 0, 11, 106
2, 103663, Control_c, 0, 11, 107
2, 103678, Note_on_c, 0, 81, 0
2, 103678, Control_c, 0, 11, 108
2, 103680, Note_on_c, 0, 80, 74
2, 103693, Control_c, 0, 11, 109
2, 103708, Control_c, 0, 11, 110
2, 103724, Control_c, 0, 11, 111
2, 103739, Control_c, 0, 11, 112
2, 103754, Control_c, 0, 11, 113
2, 103769, Control_c, 0, 11, 114
2, 103785, Control_c, 0, 11, 115
2, 103800, Control_c, 0, 11, 116
2, 103815, Control_c, 0, 11, 117
2, 103830, Control_c, 0, 11, 118
2, 103838, Note_on_c, 0, 80, 0
2, 103840, Note_on_c, 0, 78, 80
2, 103846, Control_c, 0, 11, 119
2, 103861, Control_c, 0, 11, 120
2, 103876, Control_c, 0, 11, 121
2, 103891, Control_c, 0, 11, 122
2, 103902, Note_on_c, 0, 78, 0
2, 103904, Note_on_c, 0, 76, 77
2, 103907, Control_c, 0, 11, 123
2, 103922, Control_c, 0, 11, 124
2, 103937, Control_c, 0, 11, 125
2, 103952, Control_c, 0, 11, 126
2, 103966, Note_on_c, 0, 76, 0
2, 103968, Control_c, 0, 11, 127
2, 103968, Note_on_c, 0, 74, 75
2, 104062, Note_on_c, 0, 74, 0
2, 105312, Control_c, 0, 11, 64
2, 105312, Note_on_c, 0, 74, 77
2, 105327, Control_c, 0, 11, 65
2, 105342, Control_c, 0, 11, 66
2, 105357, Control_c, 0, 11, 67
2, 105372, Control_c, 0, 11, 68
2, 105374, Note_on_c, 0, 74, 0
2, 105376, Note_on_c, 0, 76, 73
2, 105388, Control_c, 0, 11, 69
2, 105403, Control_c, 0, 11, 70
2, 105418, Control_c, 0, 11, 71
2, 105433, Control_c, 0, 11, 72
2, 105438, Note_on_c, 0, 76, 0
2, 105440, Note_on_c, 0, 78, 77
2, 105449, Control_c, 0, 11, 73
2, 105464, Control_c, 0, 11, 74
2, 105479, Control_c, 0, 11, 75
2, 105494, Control_c, 0, 11, 76
2, 105502, Note_on_c, 0, 78, 0
2, 105504, Note_on_c, 0, 80, 78
2, 105510, Control_c, 0, 11, 77
2, 105525, Control_c, 0, 11, 78
2, 105540, Control_c, 0, 11, 79
2, 105555, Control_c, 0, 11, 80
2, 105571, Control_c, 0, 11, 81
2, 105586, Control_c, 0, 11, 82
2, 105601, Control_c, 0, 11, 83
2, 105616, Control_c, 0, 11, 84
2, 105632, Control_c, 0, 11, 85
2, 105647, Control_c, 0, 11, 86
2, 105662, Control_c, 0, 11, 87
2, 105677, Control_c, 0, 11, 88
2, 105692, Control_c, 0, 11, 89
2, 105708, Control_c, 0, 11, 90
2, 105723, Control_c, 0, 11, 91
2, 105738, Control_c, 0, 11, 92
2, 105753, Control_c, 0, 11, 93
2, 105758, Note_on_c, 0, 80, 0
2, 105760, Note_on_c, 0, 81, 80
2, 105769, Control_c, 0, 11, 94
2, 105784, Control_c, 0, 11, 95
2, 105799, Control_c, 0, 11, 96
2, 105814, Control_c, 0, 11, 97
2, 105822, Note_on_c, 0, 81, 0
2, 105824, Note_on_c, 0, 83, 80
2, 105830, Control_c, 0, 11, 98
2, 105845, Control_c, 0, 11, 99
2, 105860, Control_c, 0, 11, 100
2, 105875, Control_c, 0, 11, 101
2, 105886, Note_on_c, 0, 83, 0
2, 105888, Note_on_c, 0, 81, 70
2, 105891, Control_c, 0, 11, 102
2, 105906, Control_c, 0, 11, 103
2, 105921, Control_c, 0, 11, 104
2, 105936, Control_c, 0, 11, 105
2, 105952, Control_c, 0, 11, 106
2, 105967, Control_c, 0, 11, 107
2, 105982, Note_on_c, 0, 81, 0
2, 105982, Control_c, 0, 11, 108
2, 105984, Note_on_c, 0, 80, 70
2, 105997, Control_c, 0, 11, 109
2, 106012, Control_c, 0, 11, 110
2, 106028, Control_c, 0, 11, 111
2, 106043, Control_c, 0, 11, 112
2, 106058, Control_c, 0, 11, 113
2, 106073, Control_c, 0, 11, 114
2, 106089, Control_c, 0, 11, 115
2, 106104, Control_c, 0, 11, 116
2, 106119, Control_c, 0, 11, 117
2, 106134, Control_c, 0, 11, 118
2, 106142, Note_on_c, 0, 80, 0
2, 106144, Note_on_c, 0, 78, 77
2, 106150, Control_c, 0, 11, 119
2, 106165, Control_c, 0, 11, 120
2, 106180, Control_c, 0, 11, 121
2, 106195, Control_c, 0, 11, 122
2, 106206, Note_on_c, 0, 78, 0
2, 106208, Note_on_c, 0, 76, 73
2, 106211, Control_c, 0, 11, 123
2, 106226, Control_c, 0, 11, 124
2, 106241, Control_c, 0, 11, 125
2, 106256, Control_c, 0, 11, 126
2, 106270, Note_on_c, 0, 76, 0
2, 106272, Control_c, 0, 11, 127
2, 106272, Note_on_c, 0, 74, 74
2, 106366, Note_on_c, 0, 74, 0
2, 107424, Control_c, 0, 11, 92
2, 107424, Note_on_c, 0, 75, 62
2, 107424, Note_on_c, 0, 78, 59
2, 107429, Control_c, 0, 11, 93
2, 107434, Control_c, 0, 11, 94
2, 107440, Control_c, 0, 11, 95
2, 107445, Control_c, 0, 11, 96
2, 107451, Control_c, 0, 11, 97
2, 107456, Control_c, 0, 11, 98
2, 107462, Control_c, 0, 11, 99
2, 107467, Control_c, 0, 11, 100
2, 107473, Control_c, 0, 11, 101
2, 107478, Control_c, 0, 11, 102
2, 107484, Control_c, 0, 11, 103
2, 107489, Control_c, 0, 11, 104
2, 107495, Control_c, 0, 11, 105
2, 107500, Control_c, 0, 11, 106
2, 107506, Control_c, 0, 11, 107
2, 107511, Control_c, 0, 11, 108
2, 107517, Control_c, 0, 11, 109
2, 107522, Control_c, 0, 11, 110
2, 107528, Control_c, 0, 11, 111
2, 107533, Control_c, 0, 11, 112
2, 107539, Control_c, 0, 11, 113
2, 107544, Control_c, 0, 11, 114
2, 107550, Control_c, 0, 11, 115
2, 107555, Control_c, 0, 11, 116
2, 107561, Control_c, 0, 11, 117
2, 107566, Control_c, 0, 11, 118
2, 107572, Control_c, 0, 11, 119
2, 107577, Control_c, 0, 11, 120
2, 107583, Control_c, 0, 11, 121
2, 107588, Control_c, 0, 11, 122
2, 107594, Control_c, 0, 11, 123
2, 107599, Control_c, 0, 11, 124
2, 107605, Control_c, 0, 11, 125
2, 107610, Control_c, 0, 11, 126
2, 107616, Note_on_c, 0, 75, 0
2, 107616, Note_on_c, 0, 78, 0
2, 107616, Control_c, 0, 11, 127
2, 107616, Note_on_c, 0, 80, 61
2, 107616, Note_on_c, 0, 84, 63
2, 107872, Note_on_c, 0, 80, 0
2, 107872, Note_on_c, 0, 84, 0
2, 107904, Note_on_c, 0, 77, 64
2, 107904, Note_on_c, 0, 80, 63
2, 107998, Note_on_c, 0, 77, 0
2, 107998, Note_on_c, 0, 80, 0
2, 108000, Note_on_c, 0, 75, 62
2, 108000, Note_on_c, 0, 78, 63
2, 108160, Note_on_c, 0, 75, 0
2, 108160, Note_on_c, 0, 78, 0
2, 109408, Note_on_c, 0, 80, 75
2, 109408, Note_on_c, 0, 84, 73
2, 109472, Note_on_c, 0, 80, 0
2, 109472, Note_on_c, 0, 84, 0
2, 109472, Note_on_c, 0, 82, 73
2, 109472, Note_on_c, 0, 85, 74
2, 109536, Note_on_c, 0, 82, 0
2, 109536, Note_on_c, 0, 85, 0
2, 109536, Note_on_c, 0, 85, 78
2, 109536, Note_on_c, 0, 89, 75
2, 109578, Note_on_c, 0, 85, 0
2, 109578, Note_on_c, 0, 89, 0
2, 109600, Note_on_c, 0, 85, 87
2, 109600, Note_on_c, 0, 89, 84
2, 109664, Note_on_c, 0, 85, 0
2, 109664, Note_on_c, 0, 89, 0
2, 109664, Note_on_c, 0, 87, 90
2, 109664, Note_on_c, 0, 90, 88
2, 109728, Note_on_c, 0, 87, 0
2, 109728, Note_on_c, 0, 90, 0
2, 109728, Note_on_c, 0, 89, 96
2, 109728, Note_on_c, 0, 92, 91
2, 109760, Note_on_c, 0, 89, 0
2, 109760, Note_on_c, 0, 92, 0
2, 109920, Control_c, 0, 7, 92
2, 110112, Note_on_c, 0, 86, 90
2, 110112, Note_on_c, 0, 92, 88
2, 110154, Note_on_c, 0, 86, 0
2, 110154, Note_on_c, 0, 92, 0
2, 110176, Note_on_c, 0, 86, 97
2, 110176, Note_on_c, 0, 92, 93
2, 110218, Note_on_c, 0, 86, 0
2, 110218, Note_on_c, 0, 92, 0
2, 110240, Note_on_c, 0, 86, 92
2, 110240, Note_on_c, 0, 92, 90
2, 110282, Note_on_c, 0, 86, 0
2, 110282, Note_on_c, 0, 92, 0
2, 110304, Note_on_c, 0, 86, 102
2, 110304, Note_on_c, 0, 92, 98
2, 110346, Note_on_c, 0, 86, 0
2, 110346, Note_on_c, 0, 92, 0
2, 110368, Note_on_c, 0, 86, 105
2, 110368, Note_on_c, 0, 92, 97
2, 110410, Note_on_c, 0, 86, 0
2, 110410, Note_on_c, 0, 92, 0
2, 110432, Note_on_c, 0, 86, 105
2, 110432, Note_on_c, 0, 92, 105
2, 110474, Note_on_c, 0, 86, 0
2, 110474, Note_on_c, 0, 92, 0
2, 110496, Note_on_c, 0, 83, 110
2, 110496, Note_on_c, 0, 89, 110
2, 110528, Note_on_c, 0, 83, 0
2, 110528, Note_on_c, 0, 89, 0
2, 111264, Note_on_c, 0, 86, 87
2, 111264, Note_on_c, 0, 92, 92
2, 111306, Note_on_c, 0, 86, 0
2, 111306, Note_on_c, 0, 92, 0
2, 111328, Note_on_c, 0, 86, 97
2, 111328, Note_on_c, 0, 92, 94
2, 111370, Note_on_c, 0, 86, 0
2, 111370, Note_on_c, 0, 92, 0
2, 111392, Note_on_c, 0, 86, 90
2, 111392, Note_on_c, 0, 92, 94
2, 111434, Note_on_c, 0, 86, 0
2, 111434, Note_on_c, 0, 92, 0
2, 111456, Note_on_c, 0, 86, 95
2, 111456, Note_on_c, 0, 89, 95
2, 111498, Note_on_c, 0, 86, 0
2, 111498, Note_on_c, 0, 89, 0
2, 111520, Note_on_c, 0, 86, 100
2, 111520, Note_on_c, 0, 89, 100
2, 111562, Note_on_c, 0, 86, 0
2, 111562, Note_on_c, 0, 89, 0
2, 111584, Note_on_c, 0, 86, 93
2, 111584, Note_on_c, 0, 89, 91
2, 111626, Note_on_c, 0, 86, 0
2, 111626, Note_on_c, 0, 89, 0
2, 111648, Note_on_c, 0, 86, 102
2, 111648, Note_on_c, 0, 92, 92
2, 111690, Note_on_c, 0, 86, 0
2, 111690, Note_on_c, 0, 92, 0
2, 111712, Note_on_c, 0, 86, 103
2, 111712, Note_on_c, 0, 92, 99
2, 111754, Note_on_c, 0, 86, 0
2, 111754, Note_on_c, 0, 92, 0
2, 111776, Note_on_c, 0, 86, 97
2, 111776, Note_on_c, 0, 92, 102
2, 111818, Note_on_c, 0, 86, 0
2, 111818, Note_on_c, 0, 92, 0
2, 111840, Note_on_c, 0, 86, 103
2, 111840, Note_on_c, 0, 89, 105
2, 111882, Note_on_c, 0, 86, 0
2, 111882, Note_on_c, 0, 89, 0
2, 111904, Note_on_c, 0, 86, 105
2, 111904, Note_on_c, 0, 89, 109
2, 111946, Note_on_c, 0, 86, 0
2, 111946, Note_on_c, 0, 89, 0
2, 111968, Note_on_c, 0, 86, 108
2, 111968, Note_on_c, 0, 89, 108
2, 112010, Note_on_c, 0, 86, 0
2, 112010, Note_on_c, 0, 89, 0
2, 112032, Note_on_c, 0, 87, 112
2, 112032, Note_on_c, 0, 90, 109
2, 112126, Note_on_c, 0, 87, 0
2, 112126, Note_on_c, 0, 90, 0
2, 112800, Note_on_c, 0, 85, 93
2, 112800, Note_on_c, 0, 89, 89
2, 112920, Note_on_c, 0, 85, 0
2, 112920, Note_on_c, 0, 89, 0
2, 112992, Note_on_c, 0, 82, 94
2, 112992, Note_on_c, 0, 85, 91
2, 113112, Note_on_c, 0, 82, 0
2, 113112, Note_on_c, 0, 85, 0
2, 113184, Note_on_c, 0, 80, 85
2, 113184, Note_on_c, 0, 84, 86
2, 113304, Note_on_c, 0, 80, 0
2, 113304, Note_on_c, 0, 84, 0
2, 113376, Note_on_c, 0, 77, 71
2, 113376, Note_on_c, 0, 80, 74
2, 113496, Note_on_c, 0, 77, 0
2, 113496, Note_on_c, 0, 80, 0
2, 113568, Note_on_c, 0, 75, 63
2, 113568, Note_on_c, 0, 78, 65
2, 113616, Note_on_c, 0, 75, 0
2, 113616, Note_on_c, 0, 78, 0
2, 113824, Note_on_c, 0, 75, 89
2, 113824, Note_on_c, 0, 78, 90
2, 113888, Note_on_c, 0, 75, 0
2, 113888, Note_on_c, 0, 78, 0
2, 113888, Note_on_c, 0, 77, 88
2, 113888, Note_on_c, 0, 80, 90
2, 113952, Note_on_c, 0, 77, 0
2, 113952, Note_on_c, 0, 80, 0
2, 113952, Note_on_c, 0, 80, 99
2, 113952, Note_on_c, 0, 84, 97
2, 113994, Note_on_c, 0, 80, 0
2, 113994, Note_on_c, 0, 84, 0
2, 114016, Note_on_c, 0, 80, 98
2, 114016, Note_on_c, 0, 84, 99
2, 114080, Note_on_c, 0, 80, 0
2, 114080, Note_on_c, 0, 84, 0
2, 114080, Note_on_c, 0, 82, 100
2, 114080, Note_on_c, 0, 85, 99
2, 114144, Note_on_c, 0, 82, 0
2, 114144, Note_on_c, 0, 85, 0
2, 114144, Note_on_c, 0, 85, 96
2, 114144, Note_on_c, 0, 89, 100
2, 114186, Note_on_c, 0, 85, 0
2, 114186, Note_on_c, 0, 89, 0
2, 114208, Note_on_c, 0, 85, 103
2, 114208, Note_on_c, 0, 89, 106
2, 114272, Note_on_c, 0, 85, 0
2, 114272, Note_on_c, 0, 89, 0
2, 114272, Note_on_c, 0, 87, 102
2, 114272, Note_on_c, 0, 90, 100
2, 114336, Note_on_c, 0, 87, 0
2, 114336, Note_on_c, 0, 90, 0
2, 114336, Note_on_c, 0, 89, 109
2, 114336, Note_on_c, 0, 92, 112
2, 114368, Note_on_c, 0, 89, 0
2, 114368, Note_on_c, 0, 92, 0
2, 114912, Note_on_c, 0, 84, 92
2, 114912, Note_on_c, 0, 86, 93
2, 114954, Note_on_c, 0, 84, 0
2, 114954, Note_on_c, 0, 86, 0
2, 114976, Note_on_c, 0, 84, 89
2, 114976, Note_on_c, 0, 86, 97
2, 115018, Note_on_c, 0, 84, 0
2, 115018, Note_on_c, 0, 86, 0
2, 115040, Note_on_c, 0, 84, 89
2, 115040, Note_on_c, 0, 86, 94
2, 115082, Note_on_c, 0, 84, 0
2, 115082, Note_on_c, 0, 86, 0
2, 115104, Note_on_c, 0, 84, 100
2, 115104, Note_on_c, 0, 86, 101
2, 115136, Note_on_c, 0, 84, 0
2, 115136, Note_on_c, 0, 86, 0
2, 115296, Note_on_c, 0, 84, 104
2, 115296, Note_on_c, 0, 86, 100
2, 115338, Note_on_c, 0, 84, 0
2, 115338, Note_on_c, 0, 86, 0
2, 115360, Note_on_c, 0, 84, 107
2, 115360, Note_on_c, 0, 86, 102
2, 115402, Note_on_c, 0, 84, 0
2, 115402, Note_on_c, 0, 86, 0
2, 115424, Note_on_c, 0, 84, 106
2, 115424, Note_on_c, 0, 86, 111
2, 115466, Note_on_c, 0, 84, 0
2, 115466, Note_on_c, 0, 86, 0
2, 115488, Note_on_c, 0, 82, 107
2, 115488, Note_on_c, 0, 86, 103
2, 115520, Note_on_c, 0, 82, 0
2, 115520, Note_on_c, 0, 86, 0
2, 116064, Note_on_c, 0, 84, 93
2, 116064, Note_on_c, 0, 86, 94
2, 116106, Note_on_c, 0, 84, 0
2, 116106, Note_on_c, 0, 86, 0
2, 116128, Note_on_c, 0, 84, 95
2, 116128, Note_on_c, 0, 86, 93
2, 116170, Note_on_c, 0, 84, 0
2, 116170, Note_on_c, 0, 86, 0
2, 116192, Note_on_c, 0, 84, 96
2, 116192, Note_on_c, 0, 86, 92
2, 116234, Note_on_c, 0, 84, 0
2, 116234, Note_on_c, 0, 86, 0
2, 116256, Note_on_c, 0, 84, 97
2, 116256, Note_on_c, 0, 86, 94
2, 116288, Note_on_c, 0, 84, 0
2, 116288, Note_on_c, 0, 86, 0
2, 116448, Note_on_c, 0, 86, 101
2, 116448, Note_on_c, 0, 89, 105
2, 116490, Note_on_c, 0, 86, 0
2, 116490, Note_on_c, 0, 89, 0
2, 116512, Note_on_c, 0, 86, 106
2, 116512, Note_on_c, 0, 89, 102
2, 116554, Note_on_c, 0, 86, 0
2, 116554, Note_on_c, 0, 89, 0
2, 116576, Note_on_c, 0, 86, 103
2, 116576, Note_on_c, 0, 89, 102
2, 116618, Note_on_c, 0, 86, 0
2, 116618, Note_on_c, 0, 89, 0
2, 116640, Note_on_c, 0, 89, 108
2, 116640, Note_on_c, 0, 92, 110
2, 116662, Note_on_c, 0, 89, 0
2, 116662, Note_on_c, 0, 92, 0
2, 116664, Note_on_c, 0, 88, 105
2, 116664, Note_on_c, 0, 91, 110
2, 116686, Note_on_c, 0, 88, 0
2, 116686, Note_on_c, 0, 91, 0
2, 116688, Note_on_c, 0, 89, 103
2, 116688, Note_on_c, 0, 92, 104
2, 116710, Note_on_c, 0, 89, 0
2, 116710, Note_on_c, 0, 92, 0
2, 116712, Note_on_c, 0, 88, 108
2, 116712, Note_on_c, 0, 91, 113
2, 116734, Note_on_c, 0, 88, 0
2, 116734, Note_on_c, 0, 91, 0
2, 116736, Note_on_c, 0, 89, 106
2, 116736, Note_on_c, 0, 92, 104
2, 116758, Note_on_c, 0, 89, 0
2, 116758, Note_on_c, 0, 92, 0
2, 116760, Note_on_c, 0, 88, 110
2, 116760, Note_on_c, 0, 91, 104
2, 116782, Note_on_c, 0, 88, 0
2, 116782, Note_on_c, 0, 91, 0
2, 116784, Note_on_c, 0, 89, 104
2, 116784, Note_on_c, 0, 92, 112
2, 116806, Note_on_c, 0, 89, 0
2, 116806, Note_on_c, 0, 92, 0
2, 116808, Note_on_c, 0, 88, 106
2, 116808, Note_on_c, 0, 91, 106
2, 116830, Note_on_c, 0, 88, 0
2, 116830, Note_on_c, 0, 91, 0
2, 116832, Note_on_c, 0, 89, 103
2, 116832, Note_on_c, 0, 92, 108
2, 116854, Note_on_c, 0, 89, 0
2, 116854, Note_on_c, 0, 92, 0
2, 116856, Note_on_c, 0, 88, 112
2, 116856, Note_on_c, 0, 91, 105
2, 116878, Note_on_c, 0, 88, 0
2, 116878, Note_on_c, 0, 91, 0
2, 116880, Note_on_c, 0, 89, 103
2, 116880, Note_on_c, 0, 92, 112
2, 116902, Note_on_c, 0, 89, 0
2, 116902, Note_on_c, 0, 92, 0
2, 116904, Note_on_c, 0, 88, 112
2, 116904, Note_on_c, 0, 91, 113
2, 116926, Note_on_c, 0, 88, 0
2, 116926, Note_on_c, 0, 91, 0
2, 116928, Note_on_c, 0, 89, 112
2, 116928, Note_on_c, 0, 92, 107
2, 116950, Note_on_c, 0, 89, 0
2, 116950, Note_on_c, 0, 92, 0
2, 116952, Note_on_c, 0, 88, 110
2, 116952, Note_on_c, 0, 91, 106
2, 116974, Note_on_c, 0, 88, 0
2, 116974, Note_on_c, 0, 91, 0
2, 116976, Note_on_c, 0, 89, 108
2, 116976, Note_on_c, 0, 92, 112
2, 116998, Note_on_c, 0, 89, 0
2, 116998, Note_on_c, 0, 92, 0
2, 117000, Note_on_c, 0, 88, 107
2, 117000, Note_on_c, 0, 91, 111
2, 117022, Note_on_c, 0, 88, 0
2, 117022, Note_on_c, 0, 91, 0
2, 117024, Note_on_c, 0, 89, 110
2, 117024, Note_on_c, 0, 92, 105
2, 117046, Note_on_c, 0, 89, 0
2, 117046, Note_on_c, 0, 92, 0
2, 117048, Note_on_c, 0, 88, 111
2, 117048, Note_on_c, 0, 91, 112
2, 117070, Note_on_c, 0, 88, 0
2, 117070, Note_on_c, 0, 91, 0
2, 117072, Note_on_c, 0, 89, 104
2, 117072, Note_on_c, 0, 92, 109
2, 117094, Note_on_c, 0, 89, 0
2, 117094, Note_on_c, 0, 92, 0
2, 117096, Note_on_c, 0, 88, 107
2, 117096, Note_on_c, 0, 91, 106
2, 117118, Note_on_c, 0, 88, 0
2, 117118, Note_on_c, 0, 91, 0
2, 117120, Note_on_c, 0, 89, 111
2, 117120, Note_on_c, 0, 92, 109
2, 117142, Note_on_c, 0, 89, 0
2, 117142, Note_on_c, 0, 92, 0
2, 117144, Note_on_c, 0, 88, 107
2, 117144, Note_on_c, 0, 91, 103
2, 117166, Note_on_c, 0, 88, 0
2, 117166, Note_on_c, 0, 91, 0
2, 117168, Note_on_c, 0, 89, 112
2, 117168, Note_on_c, 0, 92, 110
2, 117190, Note_on_c, 0, 89, 0
2, 117190, Note_on_c, 0, 92, 0
2, 117192, Note_on_c, 0, 88, 109
2, 117192, Note_on_c, 0, 91, 113
2, 117214, Note_on_c, 0, 88, 0
2, 117214, Note_on_c, 0, 91, 0
2, 117216, Note_on_c, 0, 89, 107
2, 117216, Note_on_c, 0, 92, 107
2, 117238, Note_on_c, 0, 89, 0
2, 117238, Note_on_c, 0, 92, 0
2, 117240, Note_on_c, 0, 88, 103
2, 117240, Note_on_c, 0, 91, 106
2, 117262, Note_on_c, 0, 88, 0
2, 117262, Note_on_c, 0, 91, 0
2, 117264, Note_on_c, 0, 89, 113
2, 117264, Note_on_c, 0, 92, 111
2, 117286, Note_on_c, 0, 89, 0
2, 117286, Note_on_c, 0, 92, 0
2, 117288, Note_on_c, 0, 88, 113
2, 117288, Note_on_c, 0, 91, 112
2, 117310, Note_on_c, 0, 88, 0
2, 117310, Note_on_c, 0, 91, 0
2, 117312, Note_on_c, 0, 89, 108
2, 117312, Note_on_c, 0, 92, 107
2, 117334, Note_on_c, 0, 89, 0
2, 117334, Note_on_c, 0, 92, 0
2, 117336, Note_on_c, 0, 88, 103
2, 117336, Note_on_c, 0, 91, 104
2, 117358, Note_on_c, 0, 88, 0
2, 117358, Note_on_c, 0, 91, 0
2, 117360, Note_on_c, 0, 89, 105
2, 117360, Note_on_c, 0, 92, 107
2, 117382, Note_on_c, 0, 89, 0
2, 117382, Note_on_c, 0, 92, 0
2, 117384, Note_on_c, 0, 88, 103
2, 117384, Note_on_c, 0, 91, 104
2, 117406, Note_on_c, 0, 88, 0
2, 117406, Note_on_c, 0, 91, 0
2, 117408, Note_on_c, 0, 89, 108
2, 117408, Note_on_c, 0, 92, 107
2, 117430, Note_on_c, 0, 89, 0
2, 117430, Note_on_c, 0, 92, 0
2, 117432, Note_on_c, 0, 88, 108
2, 117432, Note_on_c, 0, 91, 105
2, 117454, Note_on_c, 0, 88, 0
2, 117454, Note_on_c, 0, 91, 0
2, 117456, Note_on_c, 0, 89, 103
2, 117456, Note_on_c, 0, 92, 106
2, 117478, Note_on_c, 0, 89, 0
2, 117478, Note_on_c, 0, 92, 0
2, 117480, Note_on_c, 0, 88, 103
2, 117480, Note_on_c, 0, 91, 104
2, 117502, Note_on_c, 0, 88, 0
2, 117502, Note_on_c, 0, 91, 0
2, 117504, Note_on_c, 0, 89, 103
2, 117504, Note_on_c, 0, 92, 112
2, 117526, Note_on_c, 0, 89, 0
2, 117526, Note_on_c, 0, 92, 0
2, 117528, Note_on_c, 0, 88, 103
2, 117528, Note_on_c, 0, 91, 103
2, 117550, Note_on_c, 0, 88, 0
2, 117550, Note_on_c, 0, 91, 0
2, 117552, Note_on_c, 0, 89, 109
2, 117552, Note_on_c, 0, 92, 105
2, 117574, Note_on_c, 0, 89, 0
2, 117574, Note_on_c, 0, 92, 0
2, 117576, Note_on_c, 0, 88, 104
2, 117576, Note_on_c, 0, 91, 110
2, 117598, Note_on_c, 0, 88, 0
2, 117598, Note_on_c, 0, 91, 0
2, 117600, Note_on_c, 0, 89, 111
2, 117600, Note_on_c, 0, 92, 103
2, 117622, Note_on_c, 0, 89, 0
2, 117622, Note_on_c, 0, 92, 0
2, 117624, Note_on_c, 0, 88, 105
2, 117624, Note_on_c, 0, 91, 112
2, 117646, Note_on_c, 0, 88, 0
2, 117646, Note_on_c, 0, 91, 0
2, 117648, Note_on_c, 0, 89, 105
2, 117648, Note_on_c, 0, 92, 108
2, 117670, Note_on_c, 0, 89, 0
2, 117670, Note_on_c, 0, 92, 0
2, 117672, Note_on_c, 0, 88, 106
2, 117672, Note_on_c, 0, 91, 109
2, 117694, Note_on_c, 0, 88, 0
2, 117694, Note_on_c, 0, 91, 0
2, 117696, Note_on_c, 0, 89, 105
2, 117696, Note_on_c, 0, 92, 107
2, 117718, Note_on_c, 0, 89, 0
2, 117718, Note_on_c, 0, 92, 0
2, 117720, Note_on_c, 0, 88, 105
2, 117720, Note_on_c, 0, 91, 105
2, 117742, Note_on_c, 0, 88, 0
2, 117742, Note_on_c, 0, 91, 0
2, 117744, Note_on_c, 0, 89, 108
2, 117744, Note_on_c, 0, 92, 110
2, 117766, Note_on_c, 0, 89, 0
2, 117766, Note_on_c, 0, 92, 0
2, 117768, Note_on_c, 0, 88, 109
2, 117768, Note_on_c, 0, 91, 105
2, 117790, Note_on_c, 0, 88, 0
2, 117790, Note_on_c, 0, 91, 0
2, 117792, Note_on_c, 0, 89, 110
2, 117792, Note_on_c, 0, 92, 111
2, 117814, Note_on_c, 0, 89, 0
2, 117814, Note_on_c, 0, 92, 0
2, 117816, Note_on_c, 0, 88, 103
2, 117816, Note_on_c, 0, 91, 113
2, 117838, Note_on_c, 0, 88, 0
2, 117838, Note_on_c, 0, 91, 0
2, 117840, Note_on_c, 0, 89, 103
2, 117840, Note_on_c, 0, 92, 108
2, 117862, Note_on_c, 0, 89, 0
2, 117862, Note_on_c, 0, 92, 0
2, 117864, Note_on_c, 0, 88, 103
2, 117864, Note_on_c, 0, 91, 103
2, 117886, Note_on_c, 0, 88, 0
2, 117886, Note_on_c, 0, 91, 0
2, 117888, Note_on_c, 0, 89, 103
2, 117888, Note_on_c, 0, 92, 105
2, 117910, Note_on_c, 0, 89, 0
2, 117910, Note_on_c, 0, 92, 0
2, 117912, Note_on_c, 0, 88, 106
2, 117912, Note_on_c, 0, 91, 105
2, 117934, Note_on_c, 0, 88, 0
2, 117934, Note_on_c, 0, 91, 0
2, 117936, Note_on_c, 0, 89, 103
2, 117936, Note_on_c, 0, 92, 109
2, 117958, Note_on_c, 0, 89, 0
2, 117958, Note_on_c, 0, 92, 0
2, 117960, Note_on_c, 0, 88, 108
2, 117960, Note_on_c, 0, 91, 105
2, 117982, Note_on_c, 0, 88, 0
2, 117982, Note_on_c, 0, 91, 0
2, 117984, Note_on_c, 0, 89, 105
2, 117984, Note_on_c, 0, 92, 103
2, 118006, Note_on_c, 0, 89, 0
2, 118006, Note_on_c, 0, 92, 0
2, 118008, Note_on_c, 0, 88, 108
2, 118008, Note_on_c, 0, 91, 106
2, 118030, Note_on_c, 0, 88, 0
2, 118030, Note_on_c, 0, 91, 0
2, 118032, Note_on_c, 0, 89, 108
2, 118032, Note_on_c, 0, 92, 112
2, 118054, Note_on_c, 0, 89, 0
2, 118054, Note_on_c, 0, 92, 0
2, 118056, Note_on_c, 0, 88, 103
2, 118056, Note_on_c, 0, 91, 105
2, 118078, Note_on_c, 0, 88, 0
2, 118078, Note_on_c, 0, 91, 0
2, 118080, Note_on_c, 0, 89, 106
2, 118080, Note_on_c, 0, 92, 110
2, 118102, Note_on_c, 0, 89, 0
2, 118102, Note_on_c, 0, 92, 0
2, 118104, Note_on_c, 0, 88, 105
2, 118104, Note_on_c, 0, 91, 109
2, 118126, Note_on_c, 0, 88, 0
2, 118126, Note_on_c, 0, 91, 0
2, 118128, Note_on_c, 0, 89, 110
2, 118128, Note_on_c, 0, 92, 106
2, 118150, Note_on_c, 0, 89, 0
2, 118150, Note_on_c, 0, 92, 0
2, 118152, Note_on_c, 0, 88, 103
2, 118152, Note_on_c, 0, 91, 106
2, 118174, Note_on_c, 0, 88, 0
2, 118174, Note_on_c, 0, 91, 0
2, 118176, Note_on_c, 0, 89, 110
2, 118176, Note_on_c, 0, 92, 113
2, 118198, Note_on_c, 0, 89, 0
2, 118198, Note_on_c, 0, 92, 0
2, 118200, Note_on_c, 0, 88, 110
2, 118200, Note_on_c, 0, 91, 107
2, 118222, Note_on_c, 0, 88, 0
2, 118222, Note_on_c, 0, 91, 0
2, 118224, Note_on_c, 0, 89, 112
2, 118224, Note_on_c, 0, 92, 113
2, 118246, Note_on_c, 0, 89, 0
2, 118246, Note_on_c, 0, 92, 0
2, 118248, Note_on_c, 0, 88, 107
2, 118248, Note_on_c, 0, 91, 110
2, 118270, Note_on_c, 0, 88, 0
2, 118270, Note_on_c, 0, 91, 0
2, 118272, Note_on_c, 0, 89, 106
2, 118272, Note_on_c, 0, 92, 113
2, 118294, Note_on_c, 0, 89, 0
2, 118294, Note_on_c, 0, 92, 0
2, 118296, Note_on_c, 0, 88, 106
2, 118296, Note_on_c, 0, 91, 110
2, 118318, Note_on_c, 0, 88, 0
2, 118318, Note_on_c, 0, 91, 0
2, 118320, Note_on_c, 0, 89, 105
2, 118320, Note_on_c, 0, 92, 109
2, 118342, Note_on_c, 0, 89, 0
2, 118342, Note_on_c, 0, 92, 0
2, 118344, Note_on_c, 0, 88, 105
2, 118344, Note_on_c, 0, 91, 112
2, 118366, Note_on_c, 0, 88, 0
2, 118366, Note_on_c, 0, 91, 0
2, 118368, Note_on_c, 0, 89, 107
2, 118368, Note_on_c, 0, 92, 106
2, 118390, Note_on_c, 0, 89, 0
2, 118390, Note_on_c, 0, 92, 0
2, 118392, Note_on_c, 0, 88, 109
2, 118392, Note_on_c, 0, 91, 109
2, 118414, Note_on_c, 0, 88, 0
2, 118414, Note_on_c, 0, 91, 0
2, 118416, Note_on_c, 0, 89, 105
2, 118416, Note_on_c, 0, 92, 113
2, 118438, Note_on_c, 0, 89, 0
2, 118438, Note_on_c, 0, 92, 0
2, 118440, Note_on_c, 0, 88, 104
2, 118440, Note_on_c, 0, 91, 109
2, 118462, Note_on_c, 0, 88, 0
2, 118462, Note_on_c, 0, 91, 0
2, 118464, Note_on_c, 0, 89, 103
2, 118464, Note_on_c, 0, 92, 110
2, 118486, Note_on_c, 0, 89, 0
2, 118486, Note_on_c, 0, 92, 0
2, 118488, Note_on_c, 0, 88, 111
2, 118488, Note_on_c, 0, 91, 108
2, 118510, Note_on_c, 0, 88, 0
2, 118510, Note_on_c, 0, 91, 0
2, 118512, Note_on_c, 0, 89, 113
2, 118512, Note_on_c, 0, 92, 109
2, 118534, Note_on_c, 0, 89, 0
2, 118534, Note_on_c, 0, 92, 0
2, 118536, Note_on_c, 0, 88, 106
2, 118536, Note_on_c, 0, 91, 110
2, 118558, Note_on_c, 0, 88, 0
2, 118558, Note_on_c, 0, 91, 0
2, 118560, Note_on_c, 0, 89, 104
2, 118560, Note_on_c, 0, 92, 104
2, 118582, Note_on_c, 0, 89, 0
2, 118582, Note_on_c, 0, 92, 0
2, 118584, Note_on_c, 0, 88, 104
2, 118584, Note_on_c, 0, 91, 113
2, 118606, Note_on_c, 0, 88, 0
2, 118606, Note_on_c, 0, 91, 0
2, 118608, Note_on_c, 0, 89, 106
2, 118608, Note_on_c, 0, 92, 108
2, 118630, Note_on_c, 0, 89, 0
2, 118630, Note_on_c, 0, 92, 0
2, 118632, Note_on_c, 0, 88, 111
2, 118632, Note_on_c, 0, 91, 103
2, 118654, Note_on_c, 0, 88, 0
2, 118654, Note_on_c, 0, 91, 0
2, 118656, Note_on_c, 0, 89, 104
2, 118656, Note_on_c, 0, 92, 105
2, 118678, Note_on_c, 0, 89, 0
2, 118678, Note_on_c, 0, 92, 0
2, 118680, Note_on_c, 0, 88, 109
2, 118680, Note_on_c, 0, 91, 111
2, 118702, Note_on_c, 0, 88, 0
2, 118702, Note_on_c, 0, 91, 0
2, 118704, Note_on_c, 0, 89, 107
2, 118704, Note_on_c, 0, 92, 105
2, 118726, Note_on_c, 0, 89, 0
2, 118726, Note_on_c, 0, 92, 0
2, 118728, Note_on_c, 0, 88, 112
2, 118728, Note_on_c, 0, 91, 107
2, 118750, Note_on_c, 0, 88, 0
2, 118750, Note_on_c, 0, 91, 0
2, 118752, Note_on_c, 0, 89, 108
2, 118752, Note_on_c, 0, 92, 105
2, 118774, Note_on_c, 0, 89, 0
2, 118774, Note_on_c, 0, 92, 0
2, 118776, Note_on_c, 0, 88, 109
2, 118776, Note_on_c, 0, 91, 110
2, 118798, Note_on_c, 0, 88, 0
2, 118798, Note_on_c, 0, 91, 0
2, 118800, Note_on_c, 0, 89, 105
2, 118800, Note_on_c, 0, 92, 104
2, 118822, Note_on_c, 0, 89, 0
2, 118822, Note_on_c, 0, 92, 0
2, 118824, Note_on_c, 0, 88, 109
2, 118824, Note_on_c, 0, 91, 104
2, 118846, Note_on_c, 0, 88, 0
2, 118846, Note_on_c, 0, 91, 0
2, 118848, Note_on_c, 0, 89, 103
2, 118848, Note_on_c, 0, 92, 109
2, 118870, Note_on_c, 0, 89, 0
2, 118870, Note_on_c, 0, 92, 0
2, 118872, Note_on_c, 0, 88, 112
2, 118872, Note_on_c, 0, 91, 106
2, 118894, Note_on_c, 0, 88, 0
2, 118894, Note_on_c, 0, 91, 0
2, 118896, Note_on_c, 0, 89, 113
2, 118896, Note_on_c, 0, 92, 112
2, 118918, Note_on_c, 0, 89, 0
2, 118918, Note_on_c, 0, 92, 0
2, 118920, Note_on_c, 0, 88, 104
2, 118920, Note_on_c, 0, 91, 112
2, 118942, Note_on_c, 0, 88, 0
2, 118942, Note_on_c, 0, 91, 0
2, 118944, Note_on_c, 0, 89, 110
2, 118944, Note_on_c, 0, 92, 111
2, 118976, Note_on_c, 0, 89, 0
2, 118976, Note_on_c, 0, 92, 0
2, 119520, Control_c, 0, 7, 127
2, 122976, Control_c, 0, 11, 127
2, 128736, Control_c, 0, 11, 127
2, 129312, Note_on_c, 0, 61, 31
2, 129696, Note_on_c, 0, 61, 0
2, 129696, Note_on_c, 0, 65, 33
2, 130080, Note_on_c, 0, 65, 0
2, 130080, Control_c, 0, 11, 127
2, 130080, Note_on_c, 0, 67, 34
2, 130090, Control_c, 0, 11, 126
2, 130101, Control_c, 0, 11, 125
2, 130112, Control_c, 0, 11, 124
2, 130123, Control_c, 0, 11, 123
2, 130134, Control_c, 0, 11, 122
2, 130145, Control_c, 0, 11, 121
2, 130156, Control_c, 0, 11, 120
2, 130167, Control_c, 0, 11, 119
2, 130178, Control_c, 0, 11, 118
2, 130189, Control_c, 0, 11, 117
2, 130200, Control_c, 0, 11, 116
2, 130211, Control_c, 0, 11, 115
2, 130222, Control_c, 0, 11, 114
2, 130233, Control_c, 0, 11, 113
2, 130244, Control_c, 0, 11, 112
2, 130255, Control_c, 0, 11, 111
2, 130266, Control_c, 0, 11, 110
2, 130277, Control_c, 0, 11, 109
2, 130288, Control_c, 0, 11, 108
2, 130299, Control_c, 0, 11, 107
2, 130310, Control_c, 0, 11, 106
2, 130321, Control_c, 0, 11, 105
2, 130332, Control_c, 0, 11, 104
2, 130343, Control_c, 0, 11, 103
2, 130354, Control_c, 0, 11, 102
2, 130365, Control_c, 0, 11, 101
2, 130376, Control_c, 0, 11, 100
2, 130387, Control_c, 0, 11, 99
2, 130398, Control_c, 0, 11, 98
2, 130409, Control_c, 0, 11, 97
2, 130416, Note_on_c, 0, 67, 0
2, 130420, Control_c, 0, 11, 96
2, 130431, Control_c, 0, 11, 95
2, 130442, Control_c, 0, 11, 94
2, 130453, Control_c, 0, 11, 93
2, 130464, Control_c, 0, 11, 92
2, 130464, Control_c, 0, 11, 127
2, 130464, Note_on_c, 0, 61, 32
2, 130848, Note_on_c, 0, 61, 0
2, 130848, Note_on_c, 0, 65, 27
2, 131232, Note_on_c, 0, 65, 0
2, 131232, Control_c, 0, 11, 127
2, 131232, Note_on_c, 0, 67, 34
2, 131242, Control_c, 0, 11, 126
2, 131253, Control_c, 0, 11, 125
2, 131264, Control_c, 0, 11, 124
2, 131275, Control_c, 0, 11, 123
2, 131286, Control_c, 0, 11, 122
2, 131297, Control_c, 0, 11, 121
2, 131308, Control_c, 0, 11, 120
2, 131319, Control_c, 0, 11, 119
2, 131330, Control_c, 0, 11, 118
2, 131341, Control_c, 0, 11, 117
2, 131352, Control_c, 0, 11, 116
2, 131363, Control_c, 0, 11, 115
2, 131374, Control_c, 0, 11, 114
2, 131385, Control_c, 0, 11, 113
2, 131396, Control_c, 0, 11, 112
2, 131407, Control_c, 0, 11, 111
2, 131418, Control_c, 0, 11, 110
2, 131429, Control_c, 0, 11, 109
2, 131440, Control_c, 0, 11, 108
2, 131451, Control_c, 0, 11, 107
2, 131462, Control_c, 0, 11, 106
2, 131473, Control_c, 0, 11, 105
2, 131484, Control_c, 0, 11, 104
2, 131495, Control_c, 0, 11, 103
2, 131506, Control_c, 0, 11, 102
2, 131517, Control_c, 0, 11, 101
2, 131528, Control_c, 0, 11, 100
2, 131539, Control_c, 0, 11, 99
2, 131550, Control_c, 0, 11, 98
2, 131561, Control_c, 0, 11, 97
2, 131568, Note_on_c, 0, 67, 0
2, 131572, Control_c, 0, 11, 96
2, 131583, Control_c, 0, 11, 95
2, 131594, Control_c, 0, 11, 94
2, 131605, Control_c, 0, 11, 93
2, 131616, Control_c, 0, 11, 92
2, 131616, Control_c, 0, 11, 127
2, 131616, Note_on_c, 0, 61, 26
2, 132000, Note_on_c, 0, 61, 0
2, 132000, Note_on_c, 0, 65, 33
2, 132384, Note_on_c, 0, 65, 0
2, 132384, Control_c, 0, 11, 127
2, 132384, Note_on_c, 0, 67, 25
2, 132394, Control_c, 0, 11, 126
2, 132405, Control_c, 0, 11, 125
2, 132416, Control_c, 0, 11, 124
2, 132427, Control_c, 0, 11, 123
2, 132438, Control_c, 0, 11, 122
2, 132449, Control_c, 0, 11, 121
2, 132460, Control_c, 0, 11, 120
2, 132471, Control_c, 0, 11, 119
2, 132482, Control_c, 0, 11, 118
2, 132493, Control_c, 0, 11, 117
2, 132504, Control_c, 0, 11, 116
2, 132515, Control_c, 0, 11, 115
2, 132526, Control_c, 0, 11, 114
2, 132537, Control_c, 0, 11, 113
2, 132548, Control_c, 0, 11, 112
2, 132559, Control_c, 0, 11, 111
2, 132570, Control_c, 0, 11, 110
2, 132581, Control_c, 0, 11, 109
2, 132592, Control_c, 0, 11, 108
2, 132603, Control_c, 0, 11, 107
2, 132614, Control_c, 0, 11, 106
2, 132625, Control_c, 0, 11, 105
2, 132636, Control_c, 0, 11, 104
2, 132647, Control_c, 0, 11, 103
2, 132658, Control_c, 0, 11, 102
2, 132669, Control_c, 0, 11, 101
2, 132680, Control_c, 0, 11, 100
2, 132691, Control_c, 0, 11, 99
2, 132702, Control_c, 0, 11, 98
2, 132713, Control_c, 0, 11, 97
2, 132720, Note_on_c, 0, 67, 0
2, 132724, Control_c, 0, 11, 96
2, 132735, Control_c, 0, 11, 95
2, 132746, Control_c, 0, 11, 94
2, 132757, Control_c, 0, 11, 93
2, 132768, Control_c, 0, 11, 92
2, 132768, Control_c, 0, 11, 127
2, 132768, Note_on_c, 0, 61, 33
2, 133152, Note_on_c, 0, 61, 0
2, 133152, Note_on_c, 0, 65, 26
2, 133344, Control_c, 0, 11, 127
2, 133360, Control_c, 0, 11, 126
2, 133376, Control_c, 0, 11, 125
2, 133393, Control_c, 0, 11, 124
2, 133409, Control_c, 0, 11, 123
2, 133426, Control_c, 0, 11, 122
2, 133442, Control_c, 0, 11, 121
2, 133459, Control_c, 0, 11, 120
2, 133475, Control_c, 0, 11, 119
2, 133492, Control_c, 0, 11, 118
2, 133508, Control_c, 0, 11, 117
2, 133525, Control_c, 0, 11, 116
2, 133536, Note_on_c, 0, 65, 0
2, 133536, Note_on_c, 0, 67, 26
2, 133541, Control_c, 0, 11, 115
2, 133557, Control_c, 0, 11, 114
2, 133574, Control_c, 0, 11, 113
2, 133590, Control_c, 0, 11, 112
2, 133607, Control_c, 0, 11, 111
2, 133623, Control_c, 0, 11, 110
2, 133640, Control_c, 0, 11, 109
2, 133656, Control_c, 0, 11, 108
2, 133673, Control_c, 0, 11, 107
2, 133689, Control_c, 0, 11, 106
2, 133706, Control_c, 0, 11, 105
2, 133722, Control_c, 0, 11, 104
2, 133738, Control_c, 0, 11, 103
2, 133755, Control_c, 0, 11, 102
2, 133771, Control_c, 0, 11, 101
2, 133788, Control_c, 0, 11, 100
2, 133804, Control_c, 0, 11, 99
2, 133821, Control_c, 0, 11, 98
2, 133837, Control_c, 0, 11, 97
2, 133854, Control_c, 0, 11, 96
2, 133870, Control_c, 0, 11, 95
2, 133887, Control_c, 0, 11, 94
2, 133903, Control_c, 0, 11, 93
2, 133920, Note_on_c, 0, 67, 0
2, 133920, Control_c, 0, 11, 92
2, 133920, Note_on_c, 0, 68, 25
2, 134080, Note_on_c, 0, 68, 0
2, 141120, Control_c, 0, 11, 127
2, 141120, Note_on_c, 0, 61, 28
2, 141128, Control_c, 0, 11, 126
2, 141136, Control_c, 0, 11, 125
2, 141144, Control_c, 0, 11, 124
2, 141152, Control_c, 0, 11, 123
2, 141161, Control_c, 0, 11, 122
2, 141169, Control_c, 0, 11, 121
2, 141177, Control_c, 0, 11, 120
2, 141185, Control_c, 0, 11, 119
2, 141194, Control_c, 0, 11, 118
2, 141202, Control_c, 0, 11, 117
2, 141210, Control_c, 0, 11, 116
2, 141214, Note_on_c, 0, 61, 0
2, 141216, Note_on_c, 0, 63, 25
2, 141218, Control_c, 0, 11, 115
2, 141226, Control_c, 0, 11, 114
2, 141235, Control_c, 0, 11, 113
2, 141243, Control_c, 0, 11, 112
2, 141251, Control_c, 0, 11, 111
2, 141259, Control_c, 0, 11, 110
2, 141268, Control_c, 0, 11, 109
2, 141276, Control_c, 0, 11, 108
2, 141284, Control_c, 0, 11, 107
2, 141292, Control_c, 0, 11, 106
2, 141301, Control_c, 0, 11, 105
2, 141309, Control_c, 0, 11, 104
2, 141310, Note_on_c, 0, 63, 0
2, 141312, Note_on_c, 0, 66, 25
2, 141317, Control_c, 0, 11, 103
2, 141325, Control_c, 0, 11, 102
2, 141333, Control_c, 0, 11, 101
2, 141342, Control_c, 0, 11, 100
2, 141350, Control_c, 0, 11, 99
2, 141358, Control_c, 0, 11, 98
2, 141366, Control_c, 0, 11, 97
2, 141375, Control_c, 0, 11, 96
2, 141383, Control_c, 0, 11, 95
2, 141391, Control_c, 0, 11, 94
2, 141399, Control_c, 0, 11, 93
2, 141406, Note_on_c, 0, 66, 0
2, 141408, Control_c, 0, 11, 92
2, 141408, Note_on_c, 0, 68, 31
2, 141418, Control_c, 0, 11, 91
2, 141428, Control_c, 0, 11, 90
2, 141439, Control_c, 0, 11, 89
2, 141449, Control_c, 0, 11, 88
2, 141460, Control_c, 0, 11, 87
2, 141470, Control_c, 0, 11, 86
2, 141481, Control_c, 0, 11, 85
2, 141491, Control_c, 0, 11, 84
2, 141501, Control_c, 0, 11, 83
2, 141512, Control_c, 0, 11, 82
2, 141522, Control_c, 0, 11, 81
2, 141533, Control_c, 0, 11, 80
2, 141543, Control_c, 0, 11, 79
2, 141554, Control_c, 0, 11, 78
2, 141564, Control_c, 0, 11, 77
2, 141574, Control_c, 0, 11, 76
2, 141585, Control_c, 0, 11, 75
2, 141595, Control_c, 0, 11, 74
2, 141606, Control_c, 0, 11, 73
2, 141616, Control_c, 0, 11, 72
2, 141627, Control_c, 0, 11, 71
2, 141637, Control_c, 0, 11, 70
2, 141648, Control_c, 0, 11, 69
2, 141658, Control_c, 0, 11, 68
2, 141668, Control_c, 0, 11, 67
2, 141679, Control_c, 0, 11, 66
2, 141689, Control_c, 0, 11, 65
2, 141700, Control_c, 0, 11, 64
2, 141710, Control_c, 0, 11, 63
2, 141721, Control_c, 0, 11, 62
2, 141731, Control_c, 0, 11, 61
2, 141741, Control_c, 0, 11, 60
2, 141752, Control_c, 0, 11, 59
2, 141762, Control_c, 0, 11, 58
2, 141773, Control_c, 0, 11, 57
2, 141783, Control_c, 0, 11, 56
2, 141794, Control_c, 0, 11, 55
2, 141804, Control_c, 0, 11, 54
2, 141814, Control_c, 0, 11, 53
2, 141825, Control_c, 0, 11, 52
2, 141835, Control_c, 0, 11, 51
2, 141846, Control_c, 0, 11, 50
2, 141856, Control_c, 0, 11, 49
2, 141867, Control_c, 0, 11, 48
2, 141877, Control_c, 0, 11, 47
2, 141888, Control_c, 0, 11, 46
2, 141898, Control_c, 0, 11, 45
2, 141908, Control_c, 0, 11, 44
2, 141919, Control_c, 0, 11, 43
2, 141929, Control_c, 0, 11, 42
2, 141940, Control_c, 0, 11, 41
2, 141950, Control_c, 0, 11, 40
2, 141961, Control_c, 0, 11, 39
2, 141971, Control_c, 0, 11, 38
2, 141981, Control_c, 0, 11, 37
2, 141992, Control_c, 0, 11, 36
2, 142002, Control_c, 0, 11, 35
2, 142013, Control_c, 0, 11, 34
2, 142023, Control_c, 0, 11, 33
2, 142034, Control_c, 0, 11, 32
2, 142044, Control_c, 0, 11, 31
2, 142054, Control_c, 0, 11, 30
2, 142065, Control_c, 0, 11, 29
2, 142075, Control_c, 0, 11, 28
2, 142086, Control_c, 0, 11, 27
2, 142096, Control_c, 0, 11, 26
2, 142107, Control_c, 0, 11, 25
2, 142117, Control_c, 0, 11, 24
2, 142128, Control_c, 0, 11, 23
2, 142138, Control_c, 0, 11, 22
2, 142148, Control_c, 0, 11, 21
2, 142159, Control_c, 0, 11, 20
2, 142169, Control_c, 0, 11, 19
2, 142180, Control_c, 0, 11, 18
2, 142190, Control_c, 0, 11, 17
2, 142201, Control_c, 0, 11, 16
2, 142211, Control_c, 0, 11, 15
2, 142221, Control_c, 0, 11, 14
2, 142232, Control_c, 0, 11, 13
2, 142242, Control_c, 0, 11, 12
2, 142253, Control_c, 0, 11, 11
2, 142263, Control_c, 0, 11, 10
2, 142274, Control_c, 0, 11, 9
2, 142284, Control_c, 0, 11, 8
2, 142294, Control_c, 0, 11, 7
2, 142305, Control_c, 0, 11, 6
2, 142315, Control_c, 0, 11, 5
2, 142326, Control_c, 0, 11, 4
2, 142336, Control_c, 0, 11, 3
2, 142347, Control_c, 0, 11, 2
2, 142357, Control_c, 0, 11, 1
2, 142368, Control_c, 0, 11, 0
2, 143296, Note_on_c, 0, 68, 0
2, 143296, End_track
3, 0, Start_track
3, 0, Title_t, "Ottavino"
3, 0, MIDI_port, 0
3, 87, Control_c, 0, 0, 0
3, 88, Control_c, 0, 32, 0
3, 89, Program_c, 0, 73
3, 90, Control_c, 0, 7, 127
3, 91, Control_c, 0, 10, 44
3, 92, Control_c, 0, 91, 64
3, 11520, Note_on_c, 0, 96, 87
3, 11566, Note_on_c, 0, 96, 0
3, 11568, Note_on_c, 0, 92, 94
3, 11578, Note_on_c, 0, 92, 0
3, 11584, Note_on_c, 0, 89, 95
3, 11605, Note_on_c, 0, 89, 0
3, 11616, Note_on_c, 0, 84, 101
3, 11637, Note_on_c, 0, 84, 0
3, 11648, Note_on_c, 0, 80, 107
3, 11669, Note_on_c, 0, 80, 0
3, 11680, Note_on_c, 0, 77, 111
3, 11701, Note_on_c, 0, 77, 0
3, 12096, Note_on_c, 0, 96, 94
3, 12142, Note_on_c, 0, 96, 0
3, 12144, Note_on_c, 0, 92, 93
3, 12158, Note_on_c, 0, 92, 0
3, 12160, Note_on_c, 0, 89, 99
3, 12190, Note_on_c, 0, 89, 0
3, 12192, Note_on_c, 0, 84, 102
3, 12222, Note_on_c, 0, 84, 0
3, 12224, Note_on_c, 0, 80, 100
3, 12254, Note_on_c, 0, 80, 0
3, 12256, Note_on_c, 0, 77, 110
3, 12286, Note_on_c, 0, 77, 0
3, 45600, Note_on_c, 0, 89, 70
3, 45621, Note_on_c, 0, 89, 0
3, 45632, Note_on_c, 0, 89, 75
3, 45653, Note_on_c, 0, 89, 0
3, 45664, Note_on_c, 0, 89, 70
3, 45685, Note_on_c, 0, 89, 0
3, 45696, Note_on_c, 0, 92, 70
3, 45717, Note_on_c, 0, 92, 0
3, 45728, Note_on_c, 0, 92, 71
3, 45749, Note_on_c, 0, 92, 0
3, 45760, Note_on_c, 0, 92, 75
3, 45781, Note_on_c, 0, 92, 0
3, 45792, Control_c, 0, 11, 92
3, 45792, Note_on_c, 0, 93, 43
3, 45888, Note_on_c, 0, 93, 0
3, 45888, Note_on_c, 0, 92, 50
3, 45984, Note_on_c, 0, 92, 0
3, 45984, Note_on_c, 0, 91, 41
3, 46176, Note_on_c, 0, 91, 0
3, 46176, Note_on_c, 0, 90, 41
3, 46368, Note_on_c, 0, 90, 0
3, 46368, Note_on_c, 0, 89, 47
3, 46464, Note_on_c, 0, 89, 0
3, 46464, Note_on_c, 0, 90, 49
3, 46656, Note_on_c, 0, 90, 0
3, 46656, Control_c, 0, 11, 92
3, 46656, Note_on_c, 0, 91, 50
3, 46664, Control_c, 0, 11, 93
3, 46672, Control_c, 0, 11, 94
3, 46680, Control_c, 0, 11, 95
3, 46688, Control_c, 0, 11, 96
3, 46697, Control_c, 0, 11, 97
3, 46705, Control_c, 0, 11, 98
3, 46713, Control_c, 0, 11, 99
3, 46721, Control_c, 0, 11, 100
3, 46730, Control_c, 0, 11, 101
3, 46738, Control_c, 0, 11, 102
3, 46746, Control_c, 0, 11, 103
3, 46754, Control_c, 0, 11, 104
3, 46762, Control_c, 0, 11, 105
3, 46771, Control_c, 0, 11, 106
3, 46779, Control_c, 0, 11, 107
3, 46787, Control_c, 0, 11, 108
3, 46795, Control_c, 0, 11, 109
3, 46804, Control_c, 0, 11, 110
3, 46812, Control_c, 0, 11, 111
3, 46820, Control_c, 0, 11, 112
3, 46828, Control_c, 0, 11, 113
3, 46837, Control_c, 0, 11, 114
3, 46845, Control_c, 0, 11, 115
3, 46848, Note_on_c, 0, 91, 0
3, 46848, Note_on_c, 0, 93, 40
3, 46853, Control_c, 0, 11, 116
3, 46861, Control_c, 0, 11, 117
3, 46869, Control_c, 0, 11, 118
3, 46878, Control_c, 0, 11, 119
3, 46886, Control_c, 0, 11, 120
3, 46894, Control_c, 0, 11, 121
3, 46902, Control_c, 0, 11, 122
3, 46911, Control_c, 0, 11, 123
3, 46919, Control_c, 0, 11, 124
3, 46927, Control_c, 0, 11, 125
3, 46935, Control_c, 0, 11, 126
3, 46942, Note_on_c, 0, 93, 0
3, 46944, Control_c, 0, 11, 127
3, 46944, Control_c, 0, 11, 92
3, 46944, Note_on_c, 0, 89, 50
3, 46960, Control_c, 0, 11, 93
3, 46976, Control_c, 0, 11, 94
3, 46993, Control_c, 0, 11, 95
3, 47009, Control_c, 0, 11, 96
3, 47026, Control_c, 0, 11, 97
3, 47040, Note_on_c, 0, 89, 0
3, 47040, Note_on_c, 0, 89, 41
3, 47042, Control_c, 0, 11, 98
3, 47059, Control_c, 0, 11, 99
3, 47075, Control_c, 0, 11, 100
3, 47092, Control_c, 0, 11, 101
3, 47108, Control_c, 0, 11, 102
3, 47125, Control_c, 0, 11, 103
3, 47141, Control_c, 0, 11, 104
3, 47157, Control_c, 0, 11, 105
3, 47174, Control_c, 0, 11, 106
3, 47190, Control_c, 0, 11, 107
3, 47207, Control_c, 0, 11, 108
3, 47223, Control_c, 0, 11, 109
3, 47232, Note_on_c, 0, 89, 0
3, 47232, Note_on_c, 0, 91, 40
3, 47240, Control_c, 0, 11, 110
3, 47256, Control_c, 0, 11, 111
3, 47273, Control_c, 0, 11, 112
3, 47289, Control_c, 0, 11, 113
3, 47306, Control_c, 0, 11, 114
3, 47322, Control_c, 0, 11, 115
3, 47338, Control_c, 0, 11, 116
3, 47355, Control_c, 0, 11, 117
3, 47371, Control_c, 0, 11, 118
3, 47388, Control_c, 0, 11, 119
3, 47404, Control_c, 0, 11, 120
3, 47421, Control_c, 0, 11, 121
3, 47424, Note_on_c, 0, 91, 0
3, 47424, Note_on_c, 0, 93, 41
3, 47437, Control_c, 0, 11, 122
3, 47454, Control_c, 0, 11, 123
3, 47470, Control_c, 0, 11, 124
3, 47487, Control_c, 0, 11, 125
3, 47503, Control_c, 0, 11, 126
3, 47520, Note_on_c, 0, 93, 0
3, 47520, Control_c, 0, 11, 127
3, 47520, Note_on_c, 0, 91, 47
3, 48048, Note_on_c, 0, 91, 0
3, 50592, Control_c, 0, 11, 64
3, 50592, Note_on_c, 0, 88, 52
3, 50601, Control_c, 0, 11, 65
3, 50610, Control_c, 0, 11, 66
3, 50619, Control_c, 0, 11, 67
3, 50628, Control_c, 0, 11, 68
3, 50637, Control_c, 0, 11, 69
3, 50646, Control_c, 0, 11, 70
3, 50656, Control_c, 0, 11, 71
3, 50665, Control_c, 0, 11, 72
3, 50674, Control_c, 0, 11, 73
3, 50683, Control_c, 0, 11, 74
3, 50692, Control_c, 0, 11, 75
3, 50701, Control_c, 0, 11, 76
3, 50710, Control_c, 0, 11, 77
3, 50720, Control_c, 0, 11, 78
3, 50729, Control_c, 0, 11, 79
3, 50738, Control_c, 0, 11, 80
3, 50747, Control_c, 0, 11, 81
3, 50756, Control_c, 0, 11, 82
3, 50765, Control_c, 0, 11, 83
3, 50774, Control_c, 0, 11, 84
3, 50784, Control_c, 0, 11, 85
3, 50793, Control_c, 0, 11, 86
3, 50802, Control_c, 0, 11, 87
3, 50811, Control_c, 0, 11, 88
3, 50820, Control_c, 0, 11, 89
3, 50829, Control_c, 0, 11, 90
3, 50838, Control_c, 0, 11, 91
3, 50848, Control_c, 0, 11, 92
3, 50857, Control_c, 0, 11, 93
3, 50866, Control_c, 0, 11, 94
3, 50875, Control_c, 0, 11, 95
3, 50884, Control_c, 0, 11, 96
3, 50893, Control_c, 0, 11, 97
3, 50902, Control_c, 0, 11, 98
3, 50912, Control_c, 0, 11, 99
3, 50921, Control_c, 0, 11, 100
3, 50930, Control_c, 0, 11, 101
3, 50939, Control_c, 0, 11, 102
3, 50948, Control_c, 0, 11, 103
3, 50957, Control_c, 0, 11, 104
3, 50966, Control_c, 0, 11, 105
3, 50976, Control_c, 0, 11, 106
3, 50985, Control_c, 0, 11, 107
3, 50994, Control_c, 0, 11, 108
3, 51003, Control_c, 0, 11, 109
3, 51012, Control_c, 0, 11, 110
3, 51021, Control_c, 0, 11, 111
3, 51022, Note_on_c, 0, 88, 0
3, 51024, Note_on_c, 0, 85, 47
3, 51030, Control_c, 0, 11, 112
3, 51040, Control_c, 0, 11, 113
3, 51049, Control_c, 0, 11, 114
3, 51058, Control_c, 0, 11, 115
3, 51067, Control_c, 0, 11, 116
3, 51070, Note_on_c, 0, 85, 0
3, 51072, Note_on_c, 0, 80, 53
3, 51076, Control_c, 0, 11, 117
3, 51085, Control_c, 0, 11, 118
3, 51094, Control_c, 0, 11, 119
3, 51104, Control_c, 0, 11, 120
3, 51113, Control_c, 0, 11, 121
3, 51118, Note_on_c, 0, 80, 0
3, 51120, Note_on_c, 0, 78, 54
3, 51122, Control_c, 0, 11, 122
3, 51131, Control_c, 0, 11, 123
3, 51140, Control_c, 0, 11, 124
3, 51149, Control_c, 0, 11, 125
3, 51158, Control_c, 0, 11, 126
3, 51166, Note_on_c, 0, 78, 0
3, 51168, Control_c, 0, 11, 127
3, 51168, Note_on_c, 0, 76, 45
3, 51171, Control_c, 0, 11, 126
3, 51174, Control_c, 0, 11, 125
3, 51177, Control_c, 0, 11, 124
3, 51180, Control_c, 0, 11, 123
3, 51183, Control_c, 0, 11, 122
3, 51186, Control_c, 0, 11, 121
3, 51189, Control_c, 0, 11, 120
3, 51192, Control_c, 0, 11, 119
3, 51195, Control_c, 0, 11, 118
3, 51198, Control_c, 0, 11, 117
3, 51201, Control_c, 0, 11, 116
3, 51204, Control_c, 0, 11, 115
3, 51207, Control_c, 0, 11, 114
3, 51210, Control_c, 0, 11, 113
3, 51213, Control_c, 0, 11, 112
3, 51216, Control_c, 0, 11, 111
3, 51219, Control_c, 0, 11, 110
3, 51222, Control_c, 0, 11, 109
3, 51225, Control_c, 0, 11, 108
3, 51228, Control_c, 0, 11, 107
3, 51232, Control_c, 0, 11, 106
3, 51235, Control_c, 0, 11, 105
3, 51238, Control_c, 0, 11, 104
3, 51241, Control_c, 0, 11, 103
3, 51244, Control_c, 0, 11, 102
3, 51247, Control_c, 0, 11, 101
3, 51250, Control_c, 0, 11, 100
3, 51253, Control_c, 0, 11, 99
3, 51256, Control_c, 0, 11, 98
3, 51259, Control_c, 0, 11, 97
3, 51262, Note_on_c, 0, 76, 0
3, 51262, Control_c, 0, 11, 96
3, 51265, Control_c, 0, 11, 95
3, 51268, Control_c, 0, 11, 94
3, 51271, Control_c, 0, 11, 93
3, 51274, Control_c, 0, 11, 92
3, 51277, Control_c, 0, 11, 91
3, 51280, Control_c, 0, 11, 90
3, 51283, Control_c, 0, 11, 89
3, 51286, Control_c, 0, 11, 88
3, 51289, Control_c, 0, 11, 87
3, 51292, Control_c, 0, 11, 86
3, 51296, Control_c, 0, 11, 85
3, 51299, Control_c, 0, 11, 84
3, 51302, Control_c, 0, 11, 83
3, 51305, Control_c, 0, 11, 82
3, 51308, Control_c, 0, 11, 81
3, 51311, Control_c, 0, 11, 80
3, 51314, Control_c, 0, 11, 79
3, 51317, Control_c, 0, 11, 78
3, 51320, Control_c, 0, 11, 77
3, 51323, Control_c, 0, 11, 76
3, 51326, Control_c, 0, 11, 75
3, 51329, Control_c, 0, 11, 74
3, 51332, Control_c, 0, 11, 73
3, 51335, Control_c, 0, 11, 72
3, 51338, Control_c, 0, 11, 71
3, 51341, Control_c, 0, 11, 70
3, 51344, Control_c, 0, 11, 69
3, 51347, Control_c, 0, 11, 68
3, 51350, Control_c, 0, 11, 67
3, 51353, Control_c, 0, 11, 66
3, 51356, Control_c, 0, 11, 65
3, 51360, Control_c, 0, 11, 64
3, 51360, Note_on_c, 0, 76, 51
3, 51406, Note_on_c, 0, 76, 0
3, 51408, Note_on_c, 0, 78, 49
3, 51454, Note_on_c, 0, 78, 0
3, 51456, Note_on_c, 0, 80, 51
3, 51502, Note_on_c, 0, 80, 0
3, 51504, Note_on_c, 0, 85, 54
3, 51550, Note_on_c, 0, 85, 0
3, 51744, Control_c, 0, 11, 64
3, 51744, Note_on_c, 0, 88, 53
3, 51753, Control_c, 0, 11, 65
3, 51762, Control_c, 0, 11, 66
3, 51771, Control_c, 0, 11, 67
3, 51780, Control_c, 0, 11, 68
3, 51789, Control_c, 0, 11, 69
3, 51798, Control_c, 0, 11, 70
3, 51808, Control_c, 0, 11, 71
3, 51817, Control_c, 0, 11, 72
3, 51826, Control_c, 0, 11, 73
3, 51835, Control_c, 0, 11, 74
3, 51844, Control_c, 0, 11, 75
3, 51853, Control_c, 0, 11, 76
3, 51862, Control_c, 0, 11, 77
3, 51872, Control_c, 0, 11, 78
3, 51881, Control_c, 0, 11, 79
3, 51890, Control_c, 0, 11, 80
3, 51899, Control_c, 0, 11, 81
3, 51908, Control_c, 0, 11, 82
3, 51917, Control_c, 0, 11, 83
3, 51926, Control_c, 0, 11, 84
3, 51936, Control_c, 0, 11, 85
3, 51945, Control_c, 0, 11, 86
3, 51954, Control_c, 0, 11, 87
3, 51963, Control_c, 0, 11, 88
3, 51972, Control_c, 0, 11, 89
3, 51981, Control_c, 0, 11, 90
3, 51990, Control_c, 0, 11, 91
3, 52000, Control_c, 0, 11, 92
3, 52009, Control_c, 0, 11, 93
3, 52018, Control_c, 0, 11, 94
3, 52027, Control_c, 0, 11, 95
3, 52036, Control_c, 0, 11, 96
3, 52045, Control_c, 0, 11, 97
3, 52054, Control_c, 0, 11, 98
3, 52064, Control_c, 0, 11, 99
3, 52073, Control_c, 0, 11, 100
3, 52082, Control_c, 0, 11, 101
3, 52091, Control_c, 0, 11, 102
3, 52100, Control_c, 0, 11, 103
3, 52109, Control_c, 0, 11, 104
3, 52118, Control_c, 0, 11, 105
3, 52128, Control_c, 0, 11, 106
3, 52137, Control_c, 0, 11, 107
3, 52146, Control_c, 0, 11, 108
3, 52155, Control_c, 0, 11, 109
3, 52164, Control_c, 0, 11, 110
3, 52173, Control_c, 0, 11, 111
3, 52174, Note_on_c, 0, 88, 0
3, 52176, Note_on_c, 0, 83, 55
3, 52182, Control_c, 0, 11, 112
3, 52192, Control_c, 0, 11, 113
3, 52201, Control_c, 0, 11, 114
3, 52210, Control_c, 0, 11, 115
3, 52219, Control_c, 0, 11, 116
3, 52222, Note_on_c, 0, 83, 0
3, 52224, Note_on_c, 0, 81, 47
3, 52228, Control_c, 0, 11, 117
3, 52237, Control_c, 0, 11, 118
3, 52246, Control_c, 0, 11, 119
3, 52256, Control_c, 0, 11, 120
3, 52265, Control_c, 0, 11, 121
3, 52270, Note_on_c, 0, 81, 0
3, 52272, Note_on_c, 0, 76, 47
3, 52274, Control_c, 0, 11, 122
3, 52283, Control_c, 0, 11, 123
3, 52292, Control_c, 0, 11, 124
3, 52301, Control_c, 0, 11, 125
3, 52310, Control_c, 0, 11, 126
3, 52318, Note_on_c, 0, 76, 0
3, 52320, Control_c, 0, 11, 127
3, 52323, Control_c, 0, 11, 126
3, 52326, Control_c, 0, 11, 125
3, 52329, Control_c, 0, 11, 124
3, 52332, Control_c, 0, 11, 123
3, 52335, Control_c, 0, 11, 122
3, 52338, Control_c, 0, 11, 121
3, 52341, Control_c, 0, 11, 120
3, 52344, Control_c, 0, 11, 119
3, 52347, Control_c, 0, 11, 118
3, 52350, Control_c, 0, 11, 117
3, 52353, Control_c, 0, 11, 116
3, 52356, Control_c, 0, 11, 115
3, 52359, Control_c, 0, 11, 114
3, 52362, Control_c, 0, 11, 113
3, 52365, Control_c, 0, 11, 112
3, 52368, Control_c, 0, 11, 111
3, 52371, Control_c, 0, 11, 110
3, 52374, Control_c, 0, 11, 109
3, 52377, Control_c, 0, 11, 108
3, 52380, Control_c, 0, 11, 107
3, 52384, Control_c, 0, 11, 106
3, 52387, Control_c, 0, 11, 105
3, 52390, Control_c, 0, 11, 104
3, 52393, Control_c, 0, 11, 103
3, 52396, Control_c, 0, 11, 102
3, 52399, Control_c, 0, 11, 101
3, 52402, Control_c, 0, 11, 100
3, 52405, Control_c, 0, 11, 99
3, 52408, Control_c, 0, 11, 98
3, 52411, Control_c, 0, 11, 97
3, 52414, Control_c, 0, 11, 96
3, 52417, Control_c, 0, 11, 95
3, 52420, Control_c, 0, 11, 94
3, 52423, Control_c, 0, 11, 93
3, 52426, Control_c, 0, 11, 92
3, 52429, Control_c, 0, 11, 91
3, 52432, Control_c, 0, 11, 90
3, 52435, Control_c, 0, 11, 89
3, 52438, Control_c, 0, 11, 88
3, 52441, Control_c, 0, 11, 87
3, 52444, Control_c, 0, 11, 86
3, 52448, Control_c, 0, 11, 85
3, 52451, Control_c, 0, 11, 84
3, 52454, Control_c, 0, 11, 83
3, 52457, Control_c, 0, 11, 82
3, 52460, Control_c, 0, 11, 81
3, 52463, Control_c, 0, 11, 80
3, 52466, Control_c, 0, 11, 79
3, 52469, Control_c, 0, 11, 78
3, 52472, Control_c, 0, 11, 77
3, 52475, Control_c, 0, 11, 76
3, 52478, Control_c, 0, 11, 75
3, 52481, Control_c, 0, 11, 74
3, 52484, Control_c, 0, 11, 73
3, 52487, Control_c, 0, 11, 72
3, 52490, Control_c, 0, 11, 71
3, 52493, Control_c, 0, 11, 70
3, 52496, Control_c, 0, 11, 69
3, 52499, Control_c, 0, 11, 68
3, 52502, Control_c, 0, 11, 67
3, 52505, Control_c, 0, 11, 66
3, 52508, Control_c, 0, 11, 65
3, 52512, Control_c, 0, 11, 64
3, 52512, Note_on_c, 0, 76, 51
3, 52558, Note_on_c, 0, 76, 0
3, 52560, Note_on_c, 0, 81, 54
3, 52606, Note_on_c, 0, 81, 0
3, 52608, Note_on_c, 0, 83, 52
3, 52654, Note_on_c, 0, 83, 0
3, 52656, Note_on_c, 0, 88, 51
3, 52702, Note_on_c, 0, 88, 0
3, 52704, Note_on_c, 0, 91, 45
3, 52798, Note_on_c, 0, 91, 0
3, 63072, Note_on_c, 0, 91, 44
3, 63093, Note_on_c, 0, 91, 0
3, 63104, Note_on_c, 0, 90, 44
3, 63125, Note_on_c, 0, 90, 0
3, 63136, Note_on_c, 0, 90, 45
3, 63157, Note_on_c, 0, 90, 0
3, 63168, Note_on_c, 0, 90, 43
3, 63189, Note_on_c, 0, 90, 0
3, 63200, Note_on_c, 0, 88, 46
3, 63221, Note_on_c, 0, 88, 0
3, 63232, Note_on_c, 0, 88, 50
3, 63253, Note_on_c, 0, 88, 0
3, 63264, Note_on_c, 0, 88, 40
3, 63285, Note_on_c, 0, 88, 0
3, 63296, Note_on_c, 0, 87, 47
3, 63317, Note_on_c, 0, 87, 0
3, 63328, Note_on_c, 0, 87, 40
3, 63349, Note_on_c, 0, 87, 0
3, 63360, Note_on_c, 0, 87, 43
3, 63381, Note_on_c, 0, 87, 0
3, 63392, Note_on_c, 0, 85, 43
3, 63413, Note_on_c, 0, 85, 0
3, 63424, Note_on_c, 0, 85, 49
3, 63445, Note_on_c, 0, 85, 0
3, 63456, Note_on_c, 0, 85, 48
3, 63488, Note_on_c, 0, 85, 0
3, 63488, Note_on_c, 0, 83, 49
3, 63520, Note_on_c, 0, 83, 0
3, 63520, Note_on_c, 0, 85, 46
3, 63552, Note_on_c, 0, 85, 0
3, 63552, Note_on_c, 0, 86, 55
3, 63584, Note_on_c, 0, 86, 0
3, 63584, Note_on_c, 0, 88, 61
3, 63616, Note_on_c, 0, 88, 0
3, 63616, Note_on_c, 0, 90, 59
3, 63646, Note_on_c, 0, 90, 0
3, 63648, Note_on_c, 0, 91, 49
3, 63669, Note_on_c, 0, 91, 0
3, 63680, Note_on_c, 0, 90, 47
3, 63701, Note_on_c, 0, 90, 0
3, 63712, Note_on_c, 0, 90, 49
3, 63733, Note_on_c, 0, 90, 0
3, 63744, Note_on_c, 0, 90, 42
3, 63765, Note_on_c, 0, 90, 0
3, 63776, Note_on_c, 0, 88, 40
3, 63797, Note_on_c, 0, 88, 0
3, 63808, Note_on_c, 0, 88, 44
3, 63829, Note_on_c, 0, 88, 0
3, 63840, Note_on_c, 0, 88, 43
3, 63861, Note_on_c, 0, 88, 0
3, 63872, Note_on_c, 0, 87, 47
3, 63893, Note_on_c, 0, 87, 0
3, 63904, Note_on_c, 0, 87, 44
3, 63925, Note_on_c, 0, 87, 0
3, 63936, Note_on_c, 0, 87, 46
3, 63957, Note_on_c, 0, 87, 0
3, 63968, Note_on_c, 0, 85, 50
3, 63989, Note_on_c, 0, 85, 0
3, 64000, Note_on_c, 0, 85, 49
3, 64021, Note_on_c, 0, 85, 0
3, 64032, Note_on_c, 0, 85, 45
3, 64062, Note_on_c, 0, 85, 0
3, 64064, Note_on_c, 0, 83, 45
3, 64094, Note_on_c, 0, 83, 0
3, 64096, Note_on_c, 0, 85, 48
3, 64126, Note_on_c, 0, 85, 0
3, 64128, Note_on_c, 0, 86, 51
3, 64158, Note_on_c, 0, 86, 0
3, 64160, Note_on_c, 0, 88, 57
3, 64190, Note_on_c, 0, 88, 0
3, 64192, Note_on_c, 0, 90, 58
3, 64222, Note_on_c, 0, 90, 0
3, 64224, Note_on_c, 0, 91, 55
3, 64318, Note_on_c, 0, 91, 0
3, 65568, Control_c, 0, 11, 75
3, 65568, Note_on_c, 0, 94, 105
3, 65571, Control_c, 0, 11, 76
3, 65575, Control_c, 0, 11, 77
3, 65579, Control_c, 0, 11, 78
3, 65582, Control_c, 0, 11, 79
3, 65586, Control_c, 0, 11, 80
3, 65590, Control_c, 0, 11, 81
3, 65593, Control_c, 0, 11, 82
3, 65597, Control_c, 0, 11, 83
3, 65601, Control_c, 0, 11, 84
3, 65604, Control_c, 0, 11, 85
3, 65608, Control_c, 0, 11, 86
3, 65612, Control_c, 0, 11, 87
3, 65616, Control_c, 0, 11, 88
3, 65619, Control_c, 0, 11, 89
3, 65623, Control_c, 0, 11, 90
3, 65627, Control_c, 0, 11, 91
3, 65630, Control_c, 0, 11, 92
3, 65634, Control_c, 0, 11, 93
3, 65638, Control_c, 0, 11, 94
3, 65641, Control_c, 0, 11, 95
3, 65645, Control_c, 0, 11, 96
3, 65649, Control_c, 0, 11, 97
3, 65652, Control_c, 0, 11, 98
3, 65656, Control_c, 0, 11, 99
3, 65660, Control_c, 0, 11, 100
3, 65664, Control_c, 0, 11, 101
3, 65667, Control_c, 0, 11, 102
3, 65671, Control_c, 0, 11, 103
3, 65675, Control_c, 0, 11, 104
3, 65678, Control_c, 0, 11, 105
3, 65682, Control_c, 0, 11, 106
3, 65686, Control_c, 0, 11, 107
3, 65689, Control_c, 0, 11, 108
3, 65693, Control_c, 0, 11, 109
3, 65697, Control_c, 0, 11, 110
3, 65700, Control_c, 0, 11, 111
3, 65704, Control_c, 0, 11, 112
3, 65708, Control_c, 0, 11, 113
3, 65712, Control_c, 0, 11, 114
3, 65715, Control_c, 0, 11, 115
3, 65719, Control_c, 0, 11, 116
3, 65723, Control_c, 0, 11, 117
3, 65726, Control_c, 0, 11, 118
3, 65730, Control_c, 0, 11, 119
3, 65734, Control_c, 0, 11, 120
3, 65737, Control_c, 0, 11, 121
3, 65741, Control_c, 0, 11, 122
3, 65745, Control_c, 0, 11, 123
3, 65748, Control_c, 0, 11, 124
3, 65752, Control_c, 0, 11, 125
3, 65756, Control_c, 0, 11, 126
3, 65760, Control_c, 0, 11, 127
3, 65952, Control_c, 0, 11, 127
3, 65962, Control_c, 0, 11, 126
3, 65973, Control_c, 0, 11, 125
3, 65984, Control_c, 0, 11, 124
3, 65995, Control_c, 0, 11, 123
3, 66005, Control_c, 0, 11, 122
3, 66016, Control_c, 0, 11, 121
3, 66027, Control_c, 0, 11, 120
3, 66038, Control_c, 0, 11, 119
3, 66048, Control_c, 0, 11, 118
3, 66059, Control_c, 0, 11, 117
3, 66070, Control_c, 0, 11, 116
3, 66081, Control_c, 0, 11, 115
3, 66091, Control_c, 0, 11, 114
3, 66102, Control_c, 0, 11, 113
3, 66113, Control_c, 0, 11, 112
3, 66124, Control_c, 0, 11, 111
3, 66135, Control_c, 0, 11, 110
3, 66145, Control_c, 0, 11, 109
3, 66156, Control_c, 0, 11, 108
3, 66167, Control_c, 0, 11, 107
3, 66178, Control_c, 0, 11, 106
3, 66188, Control_c, 0, 11, 105
3, 66199, Control_c, 0, 11, 104
3, 66210, Control_c, 0, 11, 103
3, 66221, Control_c, 0, 11, 102
3, 66231, Control_c, 0, 11, 101
3, 66242, Control_c, 0, 11, 100
3, 66253, Control_c, 0, 11, 99
3, 66264, Control_c, 0, 11, 98
3, 66274, Control_c, 0, 11, 97
3, 66285, Control_c, 0, 11, 96
3, 66296, Control_c, 0, 11, 95
3, 66307, Control_c, 0, 11, 94
3, 66318, Control_c, 0, 11, 93
3, 66328, Control_c, 0, 11, 92
3, 66339, Control_c, 0, 11, 91
3, 66350, Control_c, 0, 11, 90
3, 66361, Control_c, 0, 11, 89
3, 66371, Control_c, 0, 11, 88
3, 66382, Control_c, 0, 11, 87
3, 66393, Control_c, 0, 11, 86
3, 66404, Control_c, 0, 11, 85
3, 66414, Control_c, 0, 11, 84
3, 66425, Control_c, 0, 11, 83
3, 66436, Control_c, 0, 11, 82
3, 66447, Control_c, 0, 11, 81
3, 66458, Control_c, 0, 11, 80
3, 66468, Control_c, 0, 11, 79
3, 66479, Control_c, 0, 11, 78
3, 66490, Control_c, 0, 11, 77
3, 66501, Control_c, 0, 11, 76
3, 66511, Control_c, 0, 11, 75
3, 66522, Control_c, 0, 11, 74
3, 66533, Control_c, 0, 11, 73
3, 66544, Control_c, 0, 11, 72
3, 66554, Control_c, 0, 11, 71
3, 66565, Control_c, 0, 11, 70
3, 66576, Control_c, 0, 11, 69
3, 66587, Control_c, 0, 11, 68
3, 66597, Control_c, 0, 11, 67
3, 66608, Control_c, 0, 11, 66
3, 66619, Control_c, 0, 11, 65
3, 66630, Control_c, 0, 11, 64
3, 66641, Control_c, 0, 11, 63
3, 66651, Control_c, 0, 11, 62
3, 66662, Control_c, 0, 11, 61
3, 66673, Control_c, 0, 11, 60
3, 66684, Control_c, 0, 11, 59
3, 66694, Control_c, 0, 11, 58
3, 66705, Control_c, 0, 11, 57
3, 66716, Control_c, 0, 11, 56
3, 66727, Control_c, 0, 11, 55
3, 66737, Control_c, 0, 11, 54
3, 66748, Control_c, 0, 11, 53
3, 66759, Control_c, 0, 11, 52
3, 66770, Control_c, 0, 11, 51
3, 66781, Control_c, 0, 11, 50
3, 66791, Control_c, 0, 11, 49
3, 66802, Control_c, 0, 11, 48
3, 66813, Control_c, 0, 11, 47
3, 66824, Control_c, 0, 11, 46
3, 66834, Control_c, 0, 11, 45
3, 66845, Control_c, 0, 11, 44
3, 66856, Control_c, 0, 11, 43
3, 66867, Control_c, 0, 11, 42
3, 66877, Control_c, 0, 11, 41
3, 66888, Control_c, 0, 11, 40
3, 66899, Control_c, 0, 11, 39
3, 66910, Control_c, 0, 11, 38
3, 66920, Control_c, 0, 11, 37
3, 66931, Control_c, 0, 11, 36
3, 66942, Control_c, 0, 11, 35
3, 66953, Control_c, 0, 11, 34
3, 66964, Control_c, 0, 11, 33
3, 66974, Control_c, 0, 11, 32
3, 66985, Control_c, 0, 11, 31
3, 66996, Control_c, 0, 11, 30
3, 67007, Control_c, 0, 11, 29
3, 67017, Control_c, 0, 11, 28
3, 67028, Control_c, 0, 11, 27
3, 67039, Control_c, 0, 11, 26
3, 67050, Control_c, 0, 11, 25
3, 67060, Control_c, 0, 11, 24
3, 67071, Control_c, 0, 11, 23
3, 67082, Control_c, 0, 11, 22
3, 67093, Control_c, 0, 11, 21
3, 67104, Control_c, 0, 11, 20
3, 67264, Note_on_c, 0, 94, 0
3, 76320, Note_on_c, 0, 85, 44
3, 76352, Note_on_c, 0, 85, 0
3, 76416, Note_on_c, 0, 84, 48
3, 76446, Note_on_c, 0, 84, 0
3, 76448, Note_on_c, 0, 83, 50
3, 76478, Note_on_c, 0, 83, 0
3, 76480, Note_on_c, 0, 86, 49
3, 76510, Note_on_c, 0, 86, 0
3, 76512, Note_on_c, 0, 85, 52
3, 76544, Note_on_c, 0, 85, 0
3, 76608, Note_on_c, 0, 84, 54
3, 76638, Note_on_c, 0, 84, 0
3, 76640, Note_on_c, 0, 83, 54
3, 76670, Note_on_c, 0, 83, 0
3, 76672, Note_on_c, 0, 86, 59
3, 76702, Note_on_c, 0, 86, 0
3, 76704, Note_on_c, 0, 80, 62
3, 76736, Note_on_c, 0, 80, 0
3, 82080, Note_on_c, 0, 92, 111
3, 82102, Note_on_c, 0, 92, 0
3, 82104, Note_on_c, 0, 94, 111
3, 82126, Note_on_c, 0, 94, 0
3, 82128, Note_on_c, 0, 92, 108
3, 82150, Note_on_c, 0, 92, 0
3, 82152, Note_on_c, 0, 94, 111
3, 82174, Note_on_c, 0, 94, 0
3, 82176, Note_on_c, 0, 92, 107
3, 82198, Note_on_c, 0, 92, 0
3, 82200, Note_on_c, 0, 94, 104
3, 82222, Note_on_c, 0, 94, 0
3, 82224, Note_on_c, 0, 92, 106
3, 82246, Note_on_c, 0, 92, 0
3, 82248, Note_on_c, 0, 94, 110
3, 82270, Note_on_c, 0, 94, 0
3, 82272, Note_on_c, 0, 92, 105
3, 82294, Note_on_c, 0, 92, 0
3, 82296, Note_on_c, 0, 94, 108
3, 82318, Note_on_c, 0, 94, 0
3, 82320, Note_on_c, 0, 92, 107
3, 82342, Note_on_c, 0, 92, 0
3, 82344, Note_on_c, 0, 94, 110
3, 82366, Note_on_c, 0, 94, 0
3, 82368, Note_on_c, 0, 92, 107
3, 82390, Note_on_c, 0, 92, 0
3, 82392, Note_on_c, 0, 94, 106
3, 82414, Note_on_c, 0, 94, 0
3, 82416, Note_on_c, 0, 92, 110
3, 82438, Note_on_c, 0, 92, 0
3, 82440, Note_on_c, 0, 94, 109
3, 82462, Note_on_c, 0, 94, 0
3, 82464, Note_on_c, 0, 92, 113
3, 82486, Note_on_c, 0, 92, 0
3, 82488, Note_on_c, 0, 94, 103
3, 82510, Note_on_c, 0, 94, 0
3, 82512, Note_on_c, 0, 92, 105
3, 82534, Note_on_c, 0, 92, 0
3, 82536, Note_on_c, 0, 94, 107
3, 82558, Note_on_c, 0, 94, 0
3, 82560, Note_on_c, 0, 92, 106
3, 82582, Note_on_c, 0, 92, 0
3, 82584, Note_on_c, 0, 94, 107
3, 82606, Note_on_c, 0, 94, 0
3, 82608, Note_on_c, 0, 92, 112
3, 82630, Note_on_c, 0, 92, 0
3, 82632, Note_on_c, 0, 94, 105
3, 82654, Note_on_c, 0, 94, 0
3, 82656, Note_on_c, 0, 92, 108
3, 82678, Note_on_c, 0, 92, 0
3, 82680, Note_on_c, 0, 94, 105
3, 82702, Note_on_c, 0, 94, 0
3, 82704, Note_on_c, 0, 92, 108
3, 82726, Note_on_c, 0, 92, 0
3, 82728, Note_on_c, 0, 94, 105
3, 82750, Note_on_c, 0, 94, 0
3, 82752, Note_on_c, 0, 92, 113
3, 82774, Note_on_c, 0, 92, 0
3, 82776, Note_on_c, 0, 94, 105
3, 82798, Note_on_c, 0, 94, 0
3, 82800, Note_on_c, 0, 92, 105
3, 82822, Note_on_c, 0, 92, 0
3, 82824, Note_on_c, 0, 94, 110
3, 82846, Note_on_c, 0, 94, 0
3, 82848, Note_on_c, 0, 92, 105
3, 82870, Note_on_c, 0, 92, 0
3, 82872, Note_on_c, 0, 94, 113
3, 82894, Note_on_c, 0, 94, 0
3, 82896, Note_on_c, 0, 92, 105
3, 82918, Note_on_c, 0, 92, 0
3, 82920, Note_on_c, 0, 94, 112
3, 82942, Note_on_c, 0, 94, 0
3, 82944, Note_on_c, 0, 92, 103
3, 82966, Note_on_c, 0, 92, 0
3, 82968, Note_on_c, 0, 94, 111
3, 82990, Note_on_c, 0, 94, 0
3, 82992, Note_on_c, 0, 92, 112
3, 83014, Note_on_c, 0, 92, 0
3, 83016, Note_on_c, 0, 94, 106
3, 83038, Note_on_c, 0, 94, 0
3, 83040, Note_on_c, 0, 92, 109
3, 83062, Note_on_c, 0, 92, 0
3, 83064, Note_on_c, 0, 94, 110
3, 83086, Note_on_c, 0, 94, 0
3, 83088, Note_on_c, 0, 92, 106
3, 83110, Note_on_c, 0, 92, 0
3, 83112, Note_on_c, 0, 94, 112
3, 83134, Note_on_c, 0, 94, 0
3, 83136, Note_on_c, 0, 92, 111
3, 83158, Note_on_c, 0, 92, 0
3, 83160, Note_on_c, 0, 94, 111
3, 83182, Note_on_c, 0, 94, 0
3, 83184, Note_on_c, 0, 92, 103
3, 83206, Note_on_c, 0, 92, 0
3, 83208, Note_on_c, 0, 94, 106
3, 83230, Note_on_c, 0, 94, 0
3, 84384, Note_on_c, 0, 92, 109
3, 84406, Note_on_c, 0, 92, 0
3, 84408, Note_on_c, 0, 94, 103
3, 84430, Note_on_c, 0, 94, 0
3, 84432, Note_on_c, 0, 92, 111
3, 84454, Note_on_c, 0, 92, 0
3, 84456, Note_on_c, 0, 94, 112
3, 84478, Note_on_c, 0, 94, 0
3, 84480, Note_on_c, 0, 92, 113
3, 84502, Note_on_c, 0, 92, 0
3, 84504, Note_on_c, 0, 94, 110
3, 84526, Note_on_c, 0, 94, 0
3, 84528, Note_on_c, 0, 92, 104
3, 84550, Note_on_c, 0, 92, 0
3, 84552, Note_on_c, 0, 94, 105
3, 84574, Note_on_c, 0, 94, 0
3, 84576, Note_on_c, 0, 92, 104
3, 84598, Note_on_c, 0, 92, 0
3, 84600, Note_on_c, 0, 94, 112
3, 84622, Note_on_c, 0, 94, 0
3, 84624, Note_on_c, 0, 92, 108
3, 84646, Note_on_c, 0, 92, 0
3, 84648, Note_on_c, 0, 94, 111
3, 84670, Note_on_c, 0, 94, 0
3, 84672, Note_on_c, 0, 92, 110
3, 84694, Note_on_c, 0, 92, 0
3, 84696, Note_on_c, 0, 94, 112
3, 84718, Note_on_c, 0, 94, 0
3, 84720, Note_on_c, 0, 92, 113
3, 84742, Note_on_c, 0, 92, 0
3, 84744, Note_on_c, 0, 94, 104
3, 84766, Note_on_c, 0, 94, 0
3, 84768, Note_on_c, 0, 92, 103
3, 84790, Note_on_c, 0, 92, 0
3, 84792, Note_on_c, 0, 94, 103
3, 84814, Note_on_c, 0, 94, 0
3, 84816, Note_on_c, 0, 92, 112
3, 84838, Note_on_c, 0, 92, 0
3, 84840, Note_on_c, 0, 94, 111
3, 84862, Note_on_c, 0, 94, 0
3, 84864, Note_on_c, 0, 92, 107
3, 84886, Note_on_c, 0, 92, 0
3, 84888, Note_on_c, 0, 94, 109
3, 84910, Note_on_c, 0, 94, 0
3, 84912, Note_on_c, 0, 92, 108
3, 84934, Note_on_c, 0, 92, 0
3, 84936, Note_on_c, 0, 94, 107
3, 84958, Note_on_c, 0, 94, 0
3, 84960, Note_on_c, 0, 92, 105
3, 84982, Note_on_c, 0, 92, 0
3, 84984, Note_on_c, 0, 94, 112
3, 85006, Note_on_c, 0, 94, 0
3, 85008, Note_on_c, 0, 92, 105
3, 85030, Note_on_c, 0, 92, 0
3, 85032, Note_on_c, 0, 94, 108
3, 85054, Note_on_c, 0, 94, 0
3, 85056, Note_on_c, 0, 92, 107
3, 85078, Note_on_c, 0, 92, 0
3, 85080, Note_on_c, 0, 94, 110
3, 85102, Note_on_c, 0, 94, 0
3, 85104, Note_on_c, 0, 92, 104
3, 85126, Note_on_c, 0, 92, 0
3, 85128, Note_on_c, 0, 94, 108
3, 85150, Note_on_c, 0, 94, 0
3, 85152, Note_on_c, 0, 92, 111
3, 85174, Note_on_c, 0, 92, 0
3, 85176, Note_on_c, 0, 94, 109
3, 85198, Note_on_c, 0, 94, 0
3, 85200, Note_on_c, 0, 92, 111
3, 85222, Note_on_c, 0, 92, 0
3, 85224, Note_on_c, 0, 94, 104
3, 85246, Note_on_c, 0, 94, 0
3, 85248, Note_on_c, 0, 92, 107
3, 85270, Note_on_c, 0, 92, 0
3, 85272, Note_on_c, 0, 94, 106
3, 85294, Note_on_c, 0, 94, 0
3, 85296, Note_on_c, 0, 92, 108
3, 85318, Note_on_c, 0, 92, 0
3, 85320, Note_on_c, 0, 94, 103
3, 85342, Note_on_c, 0, 94, 0
3, 85344, Note_on_c, 0, 92, 106
3, 85366, Note_on_c, 0, 92, 0
3, 85368, Note_on_c, 0, 94, 106
3, 85390, Note_on_c, 0, 94, 0
3, 85392, Note_on_c, 0, 92, 104
3, 85414, Note_on_c, 0, 92, 0
3, 85416, Note_on_c, 0, 94, 103
3, 85438, Note_on_c, 0, 94, 0
3, 85440, Note_on_c, 0, 92, 111
3, 85462, Note_on_c, 0, 92, 0
3, 85464, Note_on_c, 0, 94, 108
3, 85486, Note_on_c, 0, 94, 0
3, 85488, Note_on_c, 0, 92, 106
3, 85510, Note_on_c, 0, 92, 0
3, 85512, Note_on_c, 0, 94, 109
3, 85534, Note_on_c, 0, 94, 0
3, 85536, Note_on_c, 0, 92, 50
3, 85822, Note_on_c, 0, 92, 0
3, 85920, Control_c, 0, 7, 127
3, 92448, Note_on_c, 0, 92, 42
3, 92510, Note_on_c, 0, 92, 0
3, 92512, Note_on_c, 0, 95, 43
3, 92554, Note_on_c, 0, 95, 0
3, 92576, Note_on_c, 0, 94, 49
3, 92618, Note_on_c, 0, 94, 0
3, 92640, Note_on_c, 0, 94, 46
3, 92702, Note_on_c, 0, 94, 0
3, 92704, Note_on_c, 0, 92, 50
3, 92746, Note_on_c, 0, 92, 0
3, 92768, Note_on_c, 0, 92, 52
3, 92810, Note_on_c, 0, 92, 0
3, 92832, Note_on_c, 0, 92, 56
3, 92894, Note_on_c, 0, 92, 0
3, 92896, Note_on_c, 0, 97, 60
3, 92958, Note_on_c, 0, 97, 0
3, 92960, Note_on_c, 0, 95, 61
3, 93022, Note_on_c, 0, 95, 0
3, 93024, Note_on_c, 0, 95, 64
3, 93038, Note_on_c, 0, 95, 0
3, 93040, Note_on_c, 0, 94, 57
3, 93086, Note_on_c, 0, 94, 0
3, 93088, Note_on_c, 0, 92, 59
3, 93130, Note_on_c, 0, 92, 0
3, 93152, Note_on_c, 0, 92, 63
3, 93194, Note_on_c, 0, 92, 0
3, 93216, Note_on_c, 0, 92, 66
3, 93258, Note_on_c, 0, 92, 0
3, 93280, Note_on_c, 0, 95, 61
3, 93342, Note_on_c, 0, 95, 0
3, 93344, Note_on_c, 0, 94, 69
3, 93406, Note_on_c, 0, 94, 0
3, 93408, Note_on_c, 0, 92, 66
3, 93470, Note_on_c, 0, 92, 0
3, 93472, Note_on_c, 0, 94, 68
3, 93534, Note_on_c, 0, 94, 0
3, 93536, Note_on_c, 0, 95, 78
3, 93598, Note_on_c, 0, 95, 0
3, 94752, Note_on_c, 0, 86, 45
3, 94814, Note_on_c, 0, 86, 0
3, 94816, Note_on_c, 0, 90, 42
3, 94858, Note_on_c, 0, 90, 0
3, 94880, Note_on_c, 0, 88, 44
3, 94922, Note_on_c, 0, 88, 0
3, 94944, Note_on_c, 0, 90, 42
3, 94958, Note_on_c, 0, 90, 0
3, 94960, Note_on_c, 0, 88, 45
3, 95006, Note_on_c, 0, 88, 0
3, 95008, Note_on_c, 0, 87, 48
3, 95050, Note_on_c, 0, 87, 0
3, 95072, Note_on_c, 0, 87, 42
3, 95114, Note_on_c, 0, 87, 0
3, 95136, Note_on_c, 0, 87, 46
3, 95198, Note_on_c, 0, 87, 0
3, 95200, Note_on_c, 0, 92, 43
3, 95242, Note_on_c, 0, 92, 0
3, 95264, Note_on_c, 0, 90, 40
3, 95306, Note_on_c, 0, 90, 0
3, 95328, Note_on_c, 0, 86, 48
3, 95390, Note_on_c, 0, 86, 0
3, 95392, Note_on_c, 0, 90, 43
3, 95434, Note_on_c, 0, 90, 0
3, 95456, Note_on_c, 0, 88, 45
3, 95498, Note_on_c, 0, 88, 0
3, 95520, Note_on_c, 0, 90, 49
3, 95534, Note_on_c, 0, 90, 0
3, 95536, Note_on_c, 0, 88, 46
3, 95582, Note_on_c, 0, 88, 0
3, 95584, Note_on_c, 0, 87, 50
3, 95626, Note_on_c, 0, 87, 0
3, 95648, Note_on_c, 0, 87, 50
3, 95690, Note_on_c, 0, 87, 0
3, 95712, Note_on_c, 0, 87, 45
3, 95774, Note_on_c, 0, 87, 0
3, 95776, Note_on_c, 0, 92, 43
3, 95818, Note_on_c, 0, 92, 0
3, 95840, Note_on_c, 0, 90, 42
3, 95882, Note_on_c, 0, 90, 0
3, 98208, Note_on_c, 0, 87, 56
3, 98250, Note_on_c, 0, 87, 0
3, 98272, Note_on_c, 0, 82, 55
3, 98314, Note_on_c, 0, 82, 0
3, 98336, Note_on_c, 0, 79, 49
3, 98378, Note_on_c, 0, 79, 0
3, 98784, Note_on_c, 0, 87, 55
3, 98826, Note_on_c, 0, 87, 0
3, 98848, Note_on_c, 0, 82, 50
3, 98890, Note_on_c, 0, 82, 0
3, 98912, Note_on_c, 0, 79, 54
3, 98954, Note_on_c, 0, 79, 0
3, 99360, Note_on_c, 0, 87, 60
3, 99402, Note_on_c, 0, 87, 0
3, 99424, Note_on_c, 0, 82, 61
3, 99466, Note_on_c, 0, 82, 0
3, 99488, Note_on_c, 0, 80, 51
3, 99530, Note_on_c, 0, 80, 0
3, 99936, Note_on_c, 0, 87, 59
3, 99978, Note_on_c, 0, 87, 0
3, 100000, Note_on_c, 0, 82, 58
3, 100042, Note_on_c, 0, 82, 0
3, 100064, Note_on_c, 0, 80, 53
3, 100106, Note_on_c, 0, 80, 0
3, 103008, Note_on_c, 0, 86, 75
3, 103070, Note_on_c, 0, 86, 0
3, 103072, Note_on_c, 0, 88, 74
3, 103134, Note_on_c, 0, 88, 0
3, 103136, Note_on_c, 0, 90, 80
3, 103198, Note_on_c, 0, 90, 0
3, 103200, Note_on_c, 0, 92, 79
3, 103454, Note_on_c, 0, 92, 0
3, 103456, Note_on_c, 0, 93, 80
3, 103518, Note_on_c, 0, 93, 0
3, 103520, Note_on_c, 0, 95, 75
3, 103582, Note_on_c, 0, 95, 0
3, 103584, Note_on_c, 0, 93, 79
3, 103678, Note_on_c, 0, 93, 0
3, 103680, Note_on_c, 0, 92, 72
3, 103838, Note_on_c, 0, 92, 0
3, 103840, Note_on_c, 0, 90, 78
3, 103902, Note_on_c, 0, 90, 0
3, 103904, Note_on_c, 0, 88, 75
3, 103966, Note_on_c, 0, 88, 0
3, 103968, Note_on_c, 0, 86, 77
3, 104062, Note_on_c, 0, 86, 0
3, 105312, Note_on_c, 0, 86, 79
3, 105374, Note_on_c, 0, 86, 0
3, 105376, Note_on_c, 0, 88, 80
3, 105438, Note_on_c, 0, 88, 0
3, 105440, Note_on_c, 0, 90, 78
3, 105502, Note_on_c, 0, 90, 0
3, 105504, Note_on_c, 0, 92, 78
3, 105758, Note_on_c, 0, 92, 0
3, 105760, Note_on_c, 0, 93, 76
3, 105822, Note_on_c, 0, 93, 0
3, 105824, Note_on_c, 0, 95, 75
3, 105886, Note_on_c, 0, 95, 0
3, 105888, Note_on_c, 0, 93, 79
3, 105982, Note_on_c, 0, 93, 0
3, 105984, Note_on_c, 0, 92, 71
3, 106142, Note_on_c, 0, 92, 0
3, 106144, Note_on_c, 0, 90, 76
3, 106206, Note_on_c, 0, 90, 0
3, 106208, Note_on_c, 0, 88, 70
3, 106270, Note_on_c, 0, 88, 0
3, 106272, Note_on_c, 0, 86, 75
3, 106366, Note_on_c, 0, 86, 0
3, 116640, Note_on_c, 0, 96, 112
3, 116800, Note_on_c, 0, 96, 0
3, 116832, Note_on_c, 0, 95, 113
3, 116992, Note_on_c, 0, 95, 0
3, 117024, Note_on_c, 0, 94, 112
3, 117056, Note_on_c, 0, 94, 0
3, 117120, Note_on_c, 0, 98, 110
3, 117152, Note_on_c, 0, 98, 0
3, 117216, Note_on_c, 0, 96, 108
3, 117376, Note_on_c, 0, 96, 0
3, 117408, Note_on_c, 0, 95, 104
3, 117568, Note_on_c, 0, 95, 0
3, 117600, Note_on_c, 0, 94, 111
3, 117632, Note_on_c, 0, 94, 0
3, 117696, Note_on_c, 0, 98, 112
3, 117728, Note_on_c, 0, 98, 0
3, 134112, Control_c, 0, 11, 127
3, 134112, Note_on_c, 0, 87, 48
3, 134176, Note_on_c, 0, 87, 0
3, 134176, Note_on_c, 0, 88, 46
3, 134240, Note_on_c, 0, 88, 0
3, 134240, Note_on_c, 0, 90, 48
3, 134304, Note_on_c, 0, 90, 0
3, 134304, Control_c, 0, 11, 127
3, 134304, Note_on_c, 0, 92, 46
3, 134314, Control_c, 0, 11, 126
3, 134325, Control_c, 0, 11, 125
3, 134336, Control_c, 0, 11, 124
3, 134347, Control_c, 0, 11, 123
3, 134358, Control_c, 0, 11, 122
3, 134369, Control_c, 0, 11, 121
3, 134380, Control_c, 0, 11, 120
3, 134391, Control_c, 0, 11, 119
3, 134402, Control_c, 0, 11, 118
3, 134413, Control_c, 0, 11, 117
3, 134424, Control_c, 0, 11, 116
3, 134435, Control_c, 0, 11, 115
3, 134446, Control_c, 0, 11, 114
3, 134457, Control_c, 0, 11, 113
3, 134468, Control_c, 0, 11, 112
3, 134479, Control_c, 0, 11, 111
3, 134490, Control_c, 0, 11, 110
3, 134501, Control_c, 0, 11, 109
3, 134512, Control_c, 0, 11, 108
3, 134523, Control_c, 0, 11, 107
3, 134534, Control_c, 0, 11, 106
3, 134545, Control_c, 0, 11, 105
3, 134556, Control_c, 0, 11, 104
3, 134567, Control_c, 0, 11, 103
3, 134578, Control_c, 0, 11, 102
3, 134589, Control_c, 0, 11, 101
3, 134600, Control_c, 0, 11, 100
3, 134611, Control_c, 0, 11, 99
3, 134622, Control_c, 0, 11, 98
3, 134633, Control_c, 0, 11, 97
3, 134644, Control_c, 0, 11, 96
3, 134655, Control_c, 0, 11, 95
3, 134666, Control_c, 0, 11, 94
3, 134677, Control_c, 0, 11, 93
3, 134688, Note_on_c, 0, 92, 0
3, 134688, Control_c, 0, 11, 92
3, 134688, Note_on_c, 0, 94, 45
3, 135024, Note_on_c, 0, 94, 0
3, 136224, Control_c, 0, 11, 127
3, 136416, Note_on_c, 0, 87, 49
3, 136480, Note_on_c, 0, 87, 0
3, 136480, Note_on_c, 0, 88, 45
3, 136544, Note_on_c, 0, 88, 0
3, 136544, Note_on_c, 0, 90, 43
3, 136608, Note_on_c, 0, 90, 0
3, 136608, Control_c, 0, 11, 127
3, 136608, Note_on_c, 0, 92, 40
3, 136618, Control_c, 0, 11, 126
3, 136629, Control_c, 0, 11, 125
3, 136640, Control_c, 0, 11, 124
3, 136651, Control_c, 0, 11, 123
3, 136662, Control_c, 0, 11, 122
3, 136673, Control_c, 0, 11, 121
3, 136684, Control_c, 0, 11, 120
3, 136695, Control_c, 0, 11, 119
3, 136706, Control_c, 0, 11, 118
3, 136717, Control_c, 0, 11, 117
3, 136728, Control_c, 0, 11, 116
3, 136739, Control_c, 0, 11, 115
3, 136750, Control_c, 0, 11, 114
3, 136761, Control_c, 0, 11, 113
3, 136772, Control_c, 0, 11, 112
3, 136783, Control_c, 0, 11, 111
3, 136794, Control_c, 0, 11, 110
3, 136805, Control_c, 0, 11, 109
3, 136816, Control_c, 0, 11, 108
3, 136827, Control_c, 0, 11, 107
3, 136838, Control_c, 0, 11, 106
3, 136849, Control_c, 0, 11, 105
3, 136860, Control_c, 0, 11, 104
3, 136871, Control_c, 0, 11, 103
3, 136882, Control_c, 0, 11, 102
3, 136893, Control_c, 0, 11, 101
3, 136904, Control_c, 0, 11, 100
3, 136915, Control_c, 0, 11, 99
3, 136926, Control_c, 0, 11, 98
3, 136937, Control_c, 0, 11, 97
3, 136948, Control_c, 0, 11, 96
3, 136959, Control_c, 0, 11, 95
3, 136970, Control_c, 0, 11, 94
3, 136981, Control_c, 0, 11, 93
3, 136992, Note_on_c, 0, 92, 0
3, 136992, Control_c, 0, 11, 92
3, 136992, Note_on_c, 0, 94, 46
3, 137328, Note_on_c, 0, 94, 0
3, 137328, End_track
4, 0, Start_track
4, 0, Title_t, "Oboi I - II"
4, 0, MIDI_port, 0
4, 94, Control_c, 1, 0, 0
4, 95, Control_c, 1, 32, 0
4, 96, Program_c, 1, 68
4, 97, Control_c, 1, 7, 127
4, 98, Control_c, 1, 10, 54
4, 99, Control_c, 1, 91, 64
4, 8448, Control_c, 1, 11, 92
4, 8448, Note_on_c, 1, 78, 64
4, 8453, Control_c, 1, 11, 93
4, 8458, Control_c, 1, 11, 94
4, 8464, Control_c, 1, 11, 95
4, 8469, Control_c, 1, 11, 96
4, 8475, Control_c, 1, 11, 97
4, 8478, Note_on_c, 1, 78, 0
4, 8480, Control_c, 1, 11, 98
4, 8480, Note_on_c, 1, 80, 55
4, 8486, Control_c, 1, 11, 99
4, 8491, Control_c, 1, 11, 100
4, 8497, Control_c, 1, 11, 101
4, 8502, Control_c, 1, 11, 102
4, 8508, Control_c, 1, 11, 103
4, 8510, Note_on_c, 1, 80, 0
4, 8512, Note_on_c, 1, 82, 59
4, 8513, Control_c, 1, 11, 104
4, 8519, Control_c, 1, 11, 105
4, 8524, Control_c, 1, 11, 106
4, 8530, Control_c, 1, 11, 107
4, 8535, Control_c, 1, 11, 108
4, 8541, Control_c, 1, 11, 109
4, 8542, Note_on_c, 1, 82, 0
4, 8544, Note_on_c, 1, 84, 57
4, 8546, Control_c, 1, 11, 110
4, 8552, Control_c, 1, 11, 111
4, 8557, Control_c, 1, 11, 112
4, 8563, Control_c, 1, 11, 113
4, 8568, Control_c, 1, 11, 114
4, 8574, Control_c, 1, 11, 115
4, 8579, Control_c, 1, 11, 116
4, 8585, Control_c, 1, 11, 117
4, 8590, Control_c, 1, 11, 118
4, 8596, Control_c, 1, 11, 119
4, 8601, Control_c, 1, 11, 120
4, 8607, Control_c, 1, 11, 121
4, 8612, Control_c, 1, 11, 122
4, 8618, Control_c, 1, 11, 123
4, 8623, Control_c, 1, 11, 124
4, 8629, Control_c, 1, 11, 125
4, 8634, Control_c, 1, 11, 126
4, 8640, Control_c, 1, 11, 127
4, 8644, Control_c, 1, 11, 126
4, 8649, Control_c, 1, 11, 125
4, 8653, Control_c, 1, 11, 124
4, 8658, Control_c, 1, 11, 123
4, 8662, Control_c, 1, 11, 122
4, 8667, Control_c, 1, 11, 121
4, 8672, Control_c, 1, 11, 120
4, 8676, Control_c, 1, 11, 119
4, 8681, Control_c, 1, 11, 118
4, 8685, Control_c, 1, 11, 117
4, 8690, Control_c, 1, 11, 116
4, 8694, Control_c, 1, 11, 115
4, 8699, Control_c, 1, 11, 114
4, 8704, Control_c, 1, 11, 113
4, 8708, Control_c, 1, 11, 112
4, 8713, Control_c, 1, 11, 111
4, 8717, Control_c, 1, 11, 110
4, 8722, Control_c, 1, 11, 109
4, 8726, Control_c, 1, 11, 108
4, 8731, Control_c, 1, 11, 107
4, 8736, Control_c, 1, 11, 106
4, 8740, Control_c, 1, 11, 105
4, 8745, Control_c, 1, 11, 104
4, 8749, Control_c, 1, 11, 103
4, 8754, Control_c, 1, 11, 102
4, 8758, Control_c, 1, 11, 101
4, 8763, Control_c, 1, 11, 100
4, 8768, Control_c, 1, 11, 99
4, 8772, Control_c, 1, 11, 98
4, 8777, Control_c, 1, 11, 97
4, 8781, Control_c, 1, 11, 96
4, 8786, Control_c, 1, 11, 95
4, 8790, Control_c, 1, 11, 94
4, 8795, Control_c, 1, 11, 93
4, 8800, Control_c, 1, 11, 92
4, 8804, Control_c, 1, 11, 91
4, 8809, Control_c, 1, 11, 90
4, 8813, Control_c, 1, 11, 89
4, 8818, Control_c, 1, 11, 88
4, 8822, Control_c, 1, 11, 87
4, 8827, Control_c, 1, 11, 86
4, 8832, Control_c, 1, 11, 85
4, 8836, Control_c, 1, 11, 84
4, 8841, Control_c, 1, 11, 83
4, 8845, Control_c, 1, 11, 82
4, 8850, Control_c, 1, 11, 81
4, 8854, Control_c, 1, 11, 80
4, 8859, Control_c, 1, 11, 79
4, 8864, Control_c, 1, 11, 78
4, 8868, Control_c, 1, 11, 77
4, 8873, Control_c, 1, 11, 76
4, 8877, Control_c, 1, 11, 75
4, 8882, Control_c, 1, 11, 74
4, 8886, Control_c, 1, 11, 73
4, 8891, Control_c, 1, 11, 72
4, 8896, Note_on_c, 1, 84, 0
4, 8896, Control_c, 1, 11, 71
4, 8900, Control_c, 1, 11, 70
4, 8905, Control_c, 1, 11, 69
4, 8909, Control_c, 1, 11, 68
4, 8914, Control_c, 1, 11, 67
4, 8918, Control_c, 1, 11, 66
4, 8923, Control_c, 1, 11, 65
4, 8928, Control_c, 1, 11, 64
4, 9024, Control_c, 1, 11, 92
4, 9024, Note_on_c, 1, 78, 55
4, 9029, Control_c, 1, 11, 93
4, 9034, Control_c, 1, 11, 94
4, 9040, Control_c, 1, 11, 95
4, 9045, Control_c, 1, 11, 96
4, 9051, Control_c, 1, 11, 97
4, 9054, Note_on_c, 1, 78, 0
4, 9056, Control_c, 1, 11, 98
4, 9056, Note_on_c, 1, 80, 63
4, 9062, Control_c, 1, 11, 99
4, 9067, Control_c, 1, 11, 100
4, 9073, Control_c, 1, 11, 101
4, 9078, Control_c, 1, 11, 102
4, 9084, Control_c, 1, 11, 103
4, 9086, Note_on_c, 1, 80, 0
4, 9088, Note_on_c, 1, 82, 64
4, 9089, Control_c, 1, 11, 104
4, 9095, Control_c, 1, 11, 105
4, 9100, Control_c, 1, 11, 106
4, 9106, Control_c, 1, 11, 107
4, 9111, Control_c, 1, 11, 108
4, 9117, Control_c, 1, 11, 109
4, 9118, Note_on_c, 1, 82, 0
4, 9120, Note_on_c, 1, 84, 56
4, 9122, Control_c, 1, 11, 110
4, 9128, Control_c, 1, 11, 111
4, 9133, Control_c, 1, 11, 112
4, 9139, Control_c, 1, 11, 113
4, 9144, Control_c, 1, 11, 114
4, 9150, Control_c, 1, 11, 115
4, 9155, Control_c, 1, 11, 116
4, 9161, Control_c, 1, 11, 117
4, 9166, Control_c, 1, 11, 118
4, 9172, Control_c, 1, 11, 119
4, 9177, Control_c, 1, 11, 120
4, 9183, Control_c, 1, 11, 121
4, 9188, Control_c, 1, 11, 122
4, 9194, Control_c, 1, 11, 123
4, 9199, Control_c, 1, 11, 124
4, 9205, Control_c, 1, 11, 125
4, 9210, Control_c, 1, 11, 126
4, 9216, Control_c, 1, 11, 127
4, 9220, Control_c, 1, 11, 126
4, 9225, Control_c, 1, 11, 125
4, 9229, Control_c, 1, 11, 124
4, 9234, Control_c, 1, 11, 123
4, 9238, Control_c, 1, 11, 122
4, 9243, Control_c, 1, 11, 121
4, 9248, Control_c, 1, 11, 120
4, 9252, Control_c, 1, 11, 119
4, 9257, Control_c, 1, 11, 118
4, 9261, Control_c, 1, 11, 117
4, 9266, Control_c, 1, 11, 116
4, 9270, Control_c, 1, 11, 115
4, 9275, Control_c, 1, 11, 114
4, 9280, Control_c, 1, 11, 113
4, 9284, Control_c, 1, 11, 112
4, 9289, Control_c, 1, 11, 111
4, 9293, Control_c, 1, 11, 110
4, 9298, Control_c, 1, 11, 109
4, 9302, Control_c, 1, 11, 108
4, 9307, Control_c, 1, 11, 107
4, 9312, Control_c, 1, 11, 106
4, 9316, Control_c, 1, 11, 105
4, 9321, Control_c, 1, 11, 104
4, 9325, Control_c, 1, 11, 103
4, 9330, Control_c, 1, 11, 102
4, 9334, Control_c, 1, 11, 101
4, 9339, Control_c, 1, 11, 100
4, 9344, Control_c, 1, 11, 99
4, 9348, Control_c, 1, 11, 98
4, 9353, Control_c, 1, 11, 97
4, 9357, Control_c, 1, 11, 96
4, 9362, Control_c, 1, 11, 95
4, 9366, Control_c, 1, 11, 94
4, 9371, Control_c, 1, 11, 93
4, 9376, Control_c, 1, 11, 92
4, 9380, Control_c, 1, 11, 91
4, 9385, Control_c, 1, 11, 90
4, 9389, Control_c, 1, 11, 89
4, 9394, Control_c, 1, 11, 88
4, 9398, Control_c, 1, 11, 87
4, 9403, Control_c, 1, 11, 86
4, 9408, Control_c, 1, 11, 85
4, 9412, Control_c, 1, 11, 84
4, 9417, Control_c, 1, 11, 83
4, 9421, Control_c, 1, 11, 82
4, 9426, Control_c, 1, 11, 81
4, 9430, Control_c, 1, 11, 80
4, 9435, Control_c, 1, 11, 79
4, 9440, Control_c, 1, 11, 78
4, 9444, Control_c, 1, 11, 77
4, 9449, Control_c, 1, 11, 76
4, 9453, Control_c, 1, 11, 75
4, 9458, Control_c, 1, 11, 74
4, 9462, Control_c, 1, 11, 73
4, 9467, Control_c, 1, 11, 72
4, 9472, Control_c, 1, 11, 71
4, 9476, Control_c, 1, 11, 70
4, 9481, Control_c, 1, 11, 69
4, 9485, Control_c, 1, 11, 68
4, 9490, Control_c, 1, 11, 67
4, 9494, Control_c, 1, 11, 66
4, 9499, Control_c, 1, 11, 65
4, 9504, Control_c, 1, 11, 64
4, 9534, Note_on_c, 1, 84, 0
4, 9536, Control_c, 1, 11, 127
4, 9536, Note_on_c, 1, 84, 46
4, 9566, Note_on_c, 1, 84, 0
4, 9568, Note_on_c, 1, 87, 47
4, 9598, Note_on_c, 1, 87, 0
4, 9600, Note_on_c, 1, 87, 43
4, 9610, Note_on_c, 1, 87, 0
4, 9612, Note_on_c, 1, 85, 48
4, 9646, Note_on_c, 1, 85, 0
4, 9648, Note_on_c, 1, 84, 47
4, 9726, Note_on_c, 1, 84, 0
4, 9728, Note_on_c, 1, 85, 51
4, 9758, Note_on_c, 1, 85, 0
4, 9760, Note_on_c, 1, 87, 47
4, 9790, Note_on_c, 1, 87, 0
4, 9792, Note_on_c, 1, 85, 59
4, 9838, Note_on_c, 1, 85, 0
4, 9840, Note_on_c, 1, 84, 61
4, 9918, Note_on_c, 1, 84, 0
4, 9920, Note_on_c, 1, 85, 57
4, 9950, Note_on_c, 1, 85, 0
4, 9952, Note_on_c, 1, 87, 57
4, 9982, Note_on_c, 1, 87, 0
4, 9984, Note_on_c, 1, 85, 52
4, 10014, Note_on_c, 1, 85, 0
4, 10016, Note_on_c, 1, 84, 55
4, 10046, Note_on_c, 1, 84, 0
4, 10048, Note_on_c, 1, 82, 48
4, 10078, Note_on_c, 1, 82, 0
4, 10080, Note_on_c, 1, 82, 46
4, 10110, Note_on_c, 1, 82, 0
4, 10112, Note_on_c, 1, 80, 50
4, 10133, Note_on_c, 1, 80, 0
4, 10144, Note_on_c, 1, 80, 47
4, 10165, Note_on_c, 1, 80, 0
4, 10176, Note_on_c, 1, 80, 45
4, 10197, Note_on_c, 1, 80, 0
4, 10208, Note_on_c, 1, 78, 41
4, 10229, Note_on_c, 1, 78, 0
4, 10240, Note_on_c, 1, 78, 48
4, 10261, Note_on_c, 1, 78, 0
4, 10272, Note_on_c, 1, 78, 41
4, 10302, Note_on_c, 1, 78, 0
4, 10304, Note_on_c, 1, 80, 41
4, 10334, Note_on_c, 1, 80, 0
4, 10336, Note_on_c, 1, 82, 44
4, 10366, Note_on_c, 1, 82, 0
4, 10368, Note_on_c, 1, 78, 43
4, 10398, Note_on_c, 1, 78, 0
4, 10400, Note_on_c, 1, 77, 41
4, 10421, Note_on_c, 1, 77, 0
4, 10432, Note_on_c, 1, 77, 42
4, 10453, Note_on_c, 1, 77, 0
4, 10464, Note_on_c, 1, 77, 47
4, 10485, Note_on_c, 1, 77, 0
4, 10496, Note_on_c, 1, 75, 54
4, 10517, Note_on_c, 1, 75, 0
4, 10528, Note_on_c, 1, 75, 48
4, 10549, Note_on_c, 1, 75, 0
4, 10560, Note_on_c, 1, 75, 52
4, 10590, Note_on_c, 1, 75, 0
4, 10592, Note_on_c, 1, 77, 57
4, 10622, Note_on_c, 1, 77, 0
4, 10624, Note_on_c, 1, 78, 56
4, 10654, Note_on_c, 1, 78, 0
4, 10656, Note_on_c, 1, 82, 43
4, 10686, Note_on_c, 1, 82, 0
4, 10688, Note_on_c, 1, 80, 44
4, 10709, Note_on_c, 1, 80, 0
4, 10720, Note_on_c, 1, 80, 41
4, 10741, Note_on_c, 1, 80, 0
4, 10752, Note_on_c, 1, 80, 42
4, 10773, Note_on_c, 1, 80, 0
4, 10784, Note_on_c, 1, 78, 54
4, 10805, Note_on_c, 1, 78, 0
4, 10816, Note_on_c, 1, 78, 47
4, 10837, Note_on_c, 1, 78, 0
4, 10848, Note_on_c, 1, 78, 52
4, 10878, Note_on_c, 1, 78, 0
4, 10880, Note_on_c, 1, 80, 60
4, 10910, Note_on_c, 1, 80, 0
4, 10912, Note_on_c, 1, 82, 62
4, 10942, Note_on_c, 1, 82, 0
4, 10944, Note_on_c, 1, 78, 63
4, 10974, Note_on_c, 1, 78, 0
4, 10976, Note_on_c, 1, 77, 61
4, 10997, Note_on_c, 1, 77, 0
4, 11008, Note_on_c, 1, 77, 64
4, 11029, Note_on_c, 1, 77, 0
4, 11040, Note_on_c, 1, 77, 70
4, 11061, Note_on_c, 1, 77, 0
4, 11072, Note_on_c, 1, 75, 70
4, 11093, Note_on_c, 1, 75, 0
4, 11104, Note_on_c, 1, 75, 66
4, 11125, Note_on_c, 1, 75, 0
4, 11136, Note_on_c, 1, 75, 66
4, 11166, Note_on_c, 1, 75, 0
4, 11168, Note_on_c, 1, 77, 75
4, 11198, Note_on_c, 1, 77, 0
4, 11200, Note_on_c, 1, 78, 70
4, 11230, Note_on_c, 1, 78, 0
4, 11232, Control_c, 1, 7, 92
4, 11520, Note_on_c, 1, 74, 88
4, 11520, Note_on_c, 1, 86, 96
4, 11566, Note_on_c, 1, 74, 0
4, 11566, Note_on_c, 1, 86, 0
4, 11568, Note_on_c, 1, 73, 88
4, 11568, Note_on_c, 1, 85, 94
4, 11578, Note_on_c, 1, 73, 0
4, 11578, Note_on_c, 1, 85, 0
4, 11584, Note_on_c, 1, 72, 95
4, 11584, Note_on_c, 1, 84, 89
4, 11605, Note_on_c, 1, 72, 0
4, 11605, Note_on_c, 1, 84, 0
4, 11616, Note_on_c, 1, 71, 97
4, 11616, Note_on_c, 1, 83, 103
4, 11637, Note_on_c, 1, 71, 0
4, 11637, Note_on_c, 1, 83, 0
4, 11648, Note_on_c, 1, 70, 108
4, 11648, Note_on_c, 1, 82, 108
4, 11669, Note_on_c, 1, 70, 0
4, 11669, Note_on_c, 1, 82, 0
4, 11680, Note_on_c, 1, 69, 113
4, 11680, Note_on_c, 1, 81, 105
4, 11701, Note_on_c, 1, 69, 0
4, 11701, Note_on_c, 1, 81, 0
4, 12096, Note_on_c, 1, 74, 87
4, 12096, Note_on_c, 1, 86, 92
4, 12142, Note_on_c, 1, 74, 0
4, 12142, Note_on_c, 1, 86, 0
4, 12144, Note_on_c, 1, 73, 87
4, 12144, Note_on_c, 1, 85, 92
4, 12158, Note_on_c, 1, 73, 0
4, 12158, Note_on_c, 1, 85, 0
4, 12160, Note_on_c, 1, 72, 95
4, 12160, Note_on_c, 1, 84, 96
4, 12190, Note_on_c, 1, 72, 0
4, 12190, Note_on_c, 1, 84, 0
4, 12192, Note_on_c, 1, 71, 99
4, 12192, Note_on_c, 1, 83, 94
4, 12222, Note_on_c, 1, 71, 0
4, 12222, Note_on_c, 1, 83, 0
4, 12224, Note_on_c, 1, 70, 100
4, 12224, Note_on_c, 1, 82, 102
4, 12254, Note_on_c, 1, 70, 0
4, 12254, Note_on_c, 1, 82, 0
4, 12256, Note_on_c, 1, 69, 107
4, 12256, Note_on_c, 1, 81, 105
4, 12286, Note_on_c, 1, 69, 0
4, 12286, Note_on_c, 1, 81, 0
4, 13536, Control_c, 1, 11, 92
4, 13536, Note_on_c, 1, 80, 58
4, 13541, Control_c, 1, 11, 93
4, 13546, Control_c, 1, 11, 94
4, 13552, Control_c, 1, 11, 95
4, 13557, Control_c, 1, 11, 96
4, 13563, Control_c, 1, 11, 97
4, 13568, Control_c, 1, 11, 98
4, 13574, Control_c, 1, 11, 99
4, 13579, Control_c, 1, 11, 100
4, 13585, Control_c, 1, 11, 101
4, 13590, Control_c, 1, 11, 102
4, 13596, Control_c, 1, 11, 103
4, 13601, Control_c, 1, 11, 104
4, 13607, Control_c, 1, 11, 105
4, 13612, Control_c, 1, 11, 106
4, 13618, Control_c, 1, 11, 107
4, 13623, Control_c, 1, 11, 108
4, 13629, Control_c, 1, 11, 109
4, 13634, Control_c, 1, 11, 110
4, 13640, Control_c, 1, 11, 111
4, 13645, Control_c, 1, 11, 112
4, 13651, Control_c, 1, 11, 113
4, 13656, Control_c, 1, 11, 114
4, 13662, Control_c, 1, 11, 115
4, 13667, Control_c, 1, 11, 116
4, 13673, Control_c, 1, 11, 117
4, 13678, Note_on_c, 1, 80, 0
4, 13678, Control_c, 1, 11, 118
4, 13680, Note_on_c, 1, 79, 64
4, 13684, Control_c, 1, 11, 119
4, 13689, Control_c, 1, 11, 120
4, 13695, Control_c, 1, 11, 121
4, 13700, Control_c, 1, 11, 122
4, 13706, Control_c, 1, 11, 123
4, 13711, Control_c, 1, 11, 124
4, 13717, Control_c, 1, 11, 125
4, 13722, Control_c, 1, 11, 126
4, 13726, Note_on_c, 1, 79, 0
4, 13728, Control_c, 1, 11, 127
4, 13728, Note_on_c, 1, 80, 57
4, 14064, Note_on_c, 1, 80, 0
4, 14112, Control_c, 1, 11, 92
4, 14112, Note_on_c, 1, 80, 60
4, 14117, Control_c, 1, 11, 93
4, 14122, Control_c, 1, 11, 94
4, 14128, Control_c, 1, 11, 95
4, 14133, Control_c, 1, 11, 96
4, 14139, Control_c, 1, 11, 97
4, 14144, Control_c, 1, 11, 98
4, 14150, Control_c, 1, 11, 99
4, 14155, Control_c, 1, 11, 100
4, 14161, Control_c, 1, 11, 101
4, 14166, Control_c, 1, 11, 102
4, 14172, Control_c, 1, 11, 103
4, 14177, Control_c, 1, 11, 104
4, 14183, Control_c, 1, 11, 105
4, 14188, Control_c, 1, 11, 106
4, 14194, Control_c, 1, 11, 107
4, 14199, Control_c, 1, 11, 108
4, 14205, Control_c, 1, 11, 109
4, 14210, Control_c, 1, 11, 110
4, 14216, Control_c, 1, 11, 111
4, 14221, Control_c, 1, 11, 112
4, 14227, Control_c, 1, 11, 113
4, 14232, Control_c, 1, 11, 114
4, 14238, Control_c, 1, 11, 115
4, 14243, Control_c, 1, 11, 116
4, 14249, Control_c, 1, 11, 117
4, 14254, Note_on_c, 1, 80, 0
4, 14254, Control_c, 1, 11, 118
4, 14256, Note_on_c, 1, 79, 65
4, 14260, Control_c, 1, 11, 119
4, 14265, Control_c, 1, 11, 120
4, 14271, Control_c, 1, 11, 121
4, 14276, Control_c, 1, 11, 122
4, 14282, Control_c, 1, 11, 123
4, 14287, Control_c, 1, 11, 124
4, 14293, Control_c, 1, 11, 125
4, 14298, Control_c, 1, 11, 126
4, 14302, Note_on_c, 1, 79, 0
4, 14304, Control_c, 1, 11, 127
4, 14304, Note_on_c, 1, 80, 63
4, 14640, Note_on_c, 1, 80, 0
4, 14688, Note_on_c, 1, 72, 41
4, 14688, Note_on_c, 1, 80, 44
4, 14880, Note_on_c, 1, 72, 0
4, 14880, Note_on_c, 1, 71, 50
4, 15024, Note_on_c, 1, 80, 0
4, 15072, Note_on_c, 1, 71, 0
4, 15072, Note_on_c, 1, 68, 40
4, 15072, Note_on_c, 1, 76, 48
4, 15232, Note_on_c, 1, 76, 0
4, 15264, Note_on_c, 1, 68, 0
4, 15264, Note_on_c, 1, 67, 47
4, 15264, Note_on_c, 1, 71, 47
4, 15424, Note_on_c, 1, 67, 0
4, 15456, Note_on_c, 1, 71, 0
4, 15456, Note_on_c, 1, 68, 43
4, 15648, Note_on_c, 1, 68, 0
4, 15648, Note_on_c, 1, 71, 43
4, 15648, Note_on_c, 1, 76, 47
4, 15808, Note_on_c, 1, 71, 0
4, 15808, Note_on_c, 1, 76, 0
4, 15840, Control_c, 1, 11, 92
4, 15840, Note_on_c, 1, 72, 55
4, 15840, Note_on_c, 1, 80, 59
4, 15845, Control_c, 1, 11, 93
4, 15850, Control_c, 1, 11, 94
4, 15856, Control_c, 1, 11, 95
4, 15861, Control_c, 1, 11, 96
4, 15867, Control_c, 1, 11, 97
4, 15872, Control_c, 1, 11, 98
4, 15878, Control_c, 1, 11, 99
4, 15883, Control_c, 1, 11, 100
4, 15889, Control_c, 1, 11, 101
4, 15894, Control_c, 1, 11, 102
4, 15900, Control_c, 1, 11, 103
4, 15905, Control_c, 1, 11, 104
4, 15911, Control_c, 1, 11, 105
4, 15916, Control_c, 1, 11, 106
4, 15922, Control_c, 1, 11, 107
4, 15927, Control_c, 1, 11, 108
4, 15933, Control_c, 1, 11, 109
4, 15938, Control_c, 1, 11, 110
4, 15944, Control_c, 1, 11, 111
4, 15949, Control_c, 1, 11, 112
4, 15955, Control_c, 1, 11, 113
4, 15960, Control_c, 1, 11, 114
4, 15966, Control_c, 1, 11, 115
4, 15971, Control_c, 1, 11, 116
4, 15977, Control_c, 1, 11, 117
4, 15982, Note_on_c, 1, 80, 0
4, 15982, Control_c, 1, 11, 118
4, 15984, Note_on_c, 1, 79, 56
4, 15988, Control_c, 1, 11, 119
4, 15993, Control_c, 1, 11, 120
4, 15999, Control_c, 1, 11, 121
4, 16004, Control_c, 1, 11, 122
4, 16010, Control_c, 1, 11, 123
4, 16015, Control_c, 1, 11, 124
4, 16021, Control_c, 1, 11, 125
4, 16026, Control_c, 1, 11, 126
4, 16030, Note_on_c, 1, 79, 0
4, 16032, Control_c, 1, 11, 127
4, 16032, Note_on_c, 1, 80, 64
4, 16368, Note_on_c, 1, 72, 0
4, 16368, Note_on_c, 1, 80, 0
4, 16416, Control_c, 1, 11, 92
4, 16416, Note_on_c, 1, 72, 65
4, 16416, Note_on_c, 1, 80, 61
4, 16421, Control_c, 1, 11, 93
4, 16426, Control_c, 1, 11, 94
4, 16432, Control_c, 1, 11, 95
4, 16437, Control_c, 1, 11, 96
4, 16443, Control_c, 1, 11, 97
4, 16448, Control_c, 1, 11, 98
4, 16454, Control_c, 1, 11, 99
4, 16459, Control_c, 1, 11, 100
4, 16465, Control_c, 1, 11, 101
4, 16470, Control_c, 1, 11, 102
4, 16476, Control_c, 1, 11, 103
4, 16481, Control_c, 1, 11, 104
4, 16487, Control_c, 1, 11, 105
4, 16492, Control_c, 1, 11, 106
4, 16498, Control_c, 1, 11, 107
4, 16503, Control_c, 1, 11, 108
4, 16509, Control_c, 1, 11, 109
4, 16514, Control_c, 1, 11, 110
4, 16520, Control_c, 1, 11, 111
4, 16525, Control_c, 1, 11, 112
4, 16531, Control_c, 1, 11, 113
4, 16536, Control_c, 1, 11, 114
4, 16542, Control_c, 1, 11, 115
4, 16547, Control_c, 1, 11, 116
4, 16553, Control_c, 1, 11, 117
4, 16558, Note_on_c, 1, 80, 0
4, 16558, Control_c, 1, 11, 118
4, 16560, Note_on_c, 1, 79, 65
4, 16564, Control_c, 1, 11, 119
4, 16569, Control_c, 1, 11, 120
4, 16575, Control_c, 1, 11, 121
4, 16580, Control_c, 1, 11, 122
4, 16586, Control_c, 1, 11, 123
4, 16591, Control_c, 1, 11, 124
4, 16597, Control_c, 1, 11, 125
4, 16602, Control_c, 1, 11, 126
4, 16606, Note_on_c, 1, 79, 0
4, 16608, Control_c, 1, 11, 127
4, 16608, Note_on_c, 1, 80, 56
4, 16944, Note_on_c, 1, 72, 0
4, 16944, Note_on_c, 1, 80, 0
4, 16992, Note_on_c, 1, 72, 40
4, 16992, Note_on_c, 1, 80, 40
4, 17184, Note_on_c, 1, 72, 0
4, 17184, Note_on_c, 1, 71, 50
4, 17328, Note_on_c, 1, 80, 0
4, 17376, Note_on_c, 1, 71, 0
4, 17376, Note_on_c, 1, 68, 45
4, 17376, Note_on_c, 1, 76, 46
4, 17536, Note_on_c, 1, 76, 0
4, 17568, Note_on_c, 1, 68, 0
4, 17568, Note_on_c, 1, 67, 40
4, 17568, Note_on_c, 1, 71, 45
4, 17728, Note_on_c, 1, 67, 0
4, 17760, Note_on_c, 1, 71, 0
4, 17760, Note_on_c, 1, 68, 44
4, 17952, Note_on_c, 1, 68, 0
4, 17952, Note_on_c, 1, 71, 44
4, 17952, Note_on_c, 1, 76, 42
4, 18112, Note_on_c, 1, 71, 0
4, 18112, Note_on_c, 1, 76, 0
4, 18144, Control_c, 1, 7, 127
4, 19296, Note_on_c, 1, 80, 40
4, 19338, Note_on_c, 1, 80, 0
4, 19360, Note_on_c, 1, 83, 50
4, 19402, Note_on_c, 1, 83, 0
4, 19424, Note_on_c, 1, 82, 42
4, 19466, Note_on_c, 1, 82, 0
4, 19488, Note_on_c, 1, 82, 43
4, 19530, Note_on_c, 1, 82, 0
4, 19552, Note_on_c, 1, 80, 51
4, 19594, Note_on_c, 1, 80, 0
4, 19616, Note_on_c, 1, 80, 50
4, 19658, Note_on_c, 1, 80, 0
4, 19680, Note_on_c, 1, 80, 55
4, 19722, Note_on_c, 1, 80, 0
4, 19744, Note_on_c, 1, 85, 59
4, 19786, Note_on_c, 1, 85, 0
4, 19808, Note_on_c, 1, 83, 54
4, 19850, Note_on_c, 1, 83, 0
4, 19872, Note_on_c, 1, 83, 60
4, 19882, Note_on_c, 1, 83, 0
4, 19888, Note_on_c, 1, 82, 58
4, 19920, Note_on_c, 1, 82, 0
4, 19936, Note_on_c, 1, 80, 60
4, 19978, Note_on_c, 1, 80, 0
4, 20000, Note_on_c, 1, 80, 61
4, 20042, Note_on_c, 1, 80, 0
4, 20064, Note_on_c, 1, 80, 64
4, 20106, Note_on_c, 1, 80, 0
4, 20128, Note_on_c, 1, 83, 61
4, 20170, Note_on_c, 1, 83, 0
4, 20192, Note_on_c, 1, 80, 70
4, 20234, Note_on_c, 1, 80, 0
4, 20256, Note_on_c, 1, 78, 70
4, 20298, Note_on_c, 1, 78, 0
4, 20320, Note_on_c, 1, 77, 68
4, 20362, Note_on_c, 1, 77, 0
4, 20384, Note_on_c, 1, 74, 70
4, 20426, Note_on_c, 1, 74, 0
4, 33696, Control_c, 1, 7, 92
4, 34272, Note_on_c, 1, 71, 88
4, 34294, Note_on_c, 1, 71, 0
4, 34296, Note_on_c, 1, 69, 87
4, 34318, Note_on_c, 1, 69, 0
4, 34320, Note_on_c, 1, 67, 95
4, 34342, Note_on_c, 1, 67, 0
4, 34344, Note_on_c, 1, 65, 89
4, 34366, Note_on_c, 1, 65, 0
4, 34368, Note_on_c, 1, 71, 94
4, 34390, Note_on_c, 1, 71, 0
4, 34392, Note_on_c, 1, 69, 88
4, 34414, Note_on_c, 1, 69, 0
4, 34416, Note_on_c, 1, 67, 91
4, 34438, Note_on_c, 1, 67, 0
4, 34440, Note_on_c, 1, 65, 97
4, 34462, Note_on_c, 1, 65, 0
4, 34464, Note_on_c, 1, 71, 97
4, 34486, Note_on_c, 1, 71, 0
4, 34488, Note_on_c, 1, 69, 94
4, 34510, Note_on_c, 1, 69, 0
4, 34512, Note_on_c, 1, 67, 87
4, 34534, Note_on_c, 1, 67, 0
4, 34536, Note_on_c, 1, 65, 97
4, 34558, Note_on_c, 1, 65, 0
4, 34560, Note_on_c, 1, 71, 94
4, 34582, Note_on_c, 1, 71, 0
4, 34584, Note_on_c, 1, 69, 97
4, 34606, Note_on_c, 1, 69, 0
4, 34608, Note_on_c, 1, 67, 94
4, 34630, Note_on_c, 1, 67, 0
4, 34632, Note_on_c, 1, 65, 97
4, 34654, Note_on_c, 1, 65, 0
4, 34656, Note_on_c, 1, 71, 94
4, 34678, Note_on_c, 1, 71, 0
4, 34680, Note_on_c, 1, 69, 84
4, 34702, Note_on_c, 1, 69, 0
4, 34704, Note_on_c, 1, 67, 84
4, 34726, Note_on_c, 1, 67, 0
4, 34728, Note_on_c, 1, 65, 81
4, 34750, Note_on_c, 1, 65, 0
4, 34752, Note_on_c, 1, 71, 80
4, 34774, Note_on_c, 1, 71, 0
4, 34776, Note_on_c, 1, 69, 75
4, 34798, Note_on_c, 1, 69, 0
4, 34800, Note_on_c, 1, 67, 73
4, 34822, Note_on_c, 1, 67, 0
4, 34824, Note_on_c, 1, 65, 61
4, 34846, Note_on_c, 1, 65, 0
4, 34848, Note_on_c, 1, 71, 91
4, 34870, Note_on_c, 1, 71, 0
4, 34872, Note_on_c, 1, 69, 96
4, 34894, Note_on_c, 1, 69, 0
4, 34896, Note_on_c, 1, 67, 90
4, 34918, Note_on_c, 1, 67, 0
4, 34920, Note_on_c, 1, 65, 96
4, 34942, Note_on_c, 1, 65, 0
4, 34944, Note_on_c, 1, 71, 92
4, 34966, Note_on_c, 1, 71, 0
4, 34968, Note_on_c, 1, 69, 91
4, 34990, Note_on_c, 1, 69, 0
4, 34992, Note_on_c, 1, 67, 97
4, 35014, Note_on_c, 1, 67, 0
4, 35016, Note_on_c, 1, 65, 92
4, 35038, Note_on_c, 1, 65, 0
4, 35040, Note_on_c, 1, 71, 96
4, 35062, Note_on_c, 1, 71, 0
4, 35064, Note_on_c, 1, 69, 88
4, 35086, Note_on_c, 1, 69, 0
4, 35088, Note_on_c, 1, 67, 91
4, 35110, Note_on_c, 1, 67, 0
4, 35112, Note_on_c, 1, 65, 91
4, 35134, Note_on_c, 1, 65, 0
4, 35136, Note_on_c, 1, 71, 89
4, 35158, Note_on_c, 1, 71, 0
4, 35160, Note_on_c, 1, 69, 89
4, 35182, Note_on_c, 1, 69, 0
4, 35184, Note_on_c, 1, 67, 94
4, 35206, Note_on_c, 1, 67, 0
4, 35208, Note_on_c, 1, 65, 90
4, 35230, Note_on_c, 1, 65, 0
4, 35232, Note_on_c, 1, 71, 96
4, 35254, Note_on_c, 1, 71, 0
4, 35256, Note_on_c, 1, 69, 88
4, 35278, Note_on_c, 1, 69, 0
4, 35280, Note_on_c, 1, 67, 87
4, 35302, Note_on_c, 1, 67, 0
4, 35304, Note_on_c, 1, 65, 75
4, 35326, Note_on_c, 1, 65, 0
4, 35328, Note_on_c, 1, 71, 77
4, 35350, Note_on_c, 1, 71, 0
4, 35352, Note_on_c, 1, 69, 75
4, 35374, Note_on_c, 1, 69, 0
4, 35376, Note_on_c, 1, 67, 70
4, 35398, Note_on_c, 1, 67, 0
4, 35400, Note_on_c, 1, 65, 67
4, 35422, Note_on_c, 1, 65, 0
4, 35808, Note_on_c, 1, 72, 80
4, 35830, Note_on_c, 1, 72, 0
4, 35832, Note_on_c, 1, 70, 75
4, 35854, Note_on_c, 1, 70, 0
4, 35856, Note_on_c, 1, 68, 67
4, 35878, Note_on_c, 1, 68, 0
4, 35880, Note_on_c, 1, 66, 66
4, 35902, Note_on_c, 1, 66, 0
4, 35904, Note_on_c, 1, 72, 64
4, 35926, Note_on_c, 1, 72, 0
4, 35928, Note_on_c, 1, 70, 54
4, 35950, Note_on_c, 1, 70, 0
4, 35952, Note_on_c, 1, 68, 51
4, 35974, Note_on_c, 1, 68, 0
4, 35976, Note_on_c, 1, 66, 53
4, 35998, Note_on_c, 1, 66, 0
4, 36576, Control_c, 1, 7, 127
4, 40608, Note_on_c, 1, 76, 31
4, 40704, Note_on_c, 1, 76, 0
4, 40704, Note_on_c, 1, 78, 34
4, 40736, Note_on_c, 1, 78, 0
4, 40736, Note_on_c, 1, 76, 35
4, 40768, Note_on_c, 1, 76, 0
4, 40768, Note_on_c, 1, 75, 26
4, 40800, Note_on_c, 1, 75, 0
4, 40800, Note_on_c, 1, 74, 32
4, 40824, Note_on_c, 1, 74, 0
4, 40824, Note_on_c, 1, 75, 30
4, 40848, Note_on_c, 1, 75, 0
4, 40848, Note_on_c, 1, 74, 34
4, 40872, Note_on_c, 1, 74, 0
4, 40872, Note_on_c, 1, 73, 26
4, 40896, Note_on_c, 1, 73, 0
4, 40896, Note_on_c, 1, 72, 26
4, 40928, Note_on_c, 1, 72, 0
4, 40928, Note_on_c, 1, 71, 27
4, 40960, Note_on_c, 1, 71, 0
4, 40960, Note_on_c, 1, 70, 25
4, 40992, Note_on_c, 1, 70, 0
4, 40992, Note_on_c, 1, 69, 24
4, 41024, Note_on_c, 1, 69, 0
4, 41376, Note_on_c, 1, 74, 42
4, 41400, Note_on_c, 1, 74, 0
4, 41400, Note_on_c, 1, 76, 48
4, 41424, Note_on_c, 1, 76, 0
4, 41424, Note_on_c, 1, 74, 40
4, 41448, Note_on_c, 1, 74, 0
4, 41448, Note_on_c, 1, 73, 44
4, 41472, Note_on_c, 1, 73, 0
4, 41472, Note_on_c, 1, 72, 40
4, 41496, Note_on_c, 1, 72, 0
4, 41496, Note_on_c, 1, 71, 49
4, 41520, Note_on_c, 1, 71, 0
4, 41520, Note_on_c, 1, 70, 50
4, 41544, Note_on_c, 1, 70, 0
4, 41544, Note_on_c, 1, 69, 50
4, 41568, Note_on_c, 1, 69, 0
4, 41568, Note_on_c, 1, 68, 74
4, 41662, Note_on_c, 1, 68, 0
4, 42336, Note_on_c, 1, 77, 43
4, 42366, Note_on_c, 1, 77, 0
4, 42368, Note_on_c, 1, 80, 44
4, 42398, Note_on_c, 1, 80, 0
4, 42400, Note_on_c, 1, 77, 48
4, 42430, Note_on_c, 1, 77, 0
4, 42432, Note_on_c, 1, 80, 44
4, 42462, Note_on_c, 1, 80, 0
4, 42464, Note_on_c, 1, 77, 40
4, 42494, Note_on_c, 1, 77, 0
4, 42496, Note_on_c, 1, 80, 42
4, 42526, Note_on_c, 1, 80, 0
4, 42528, Note_on_c, 1, 77, 43
4, 42558, Note_on_c, 1, 77, 0
4, 42560, Note_on_c, 1, 80, 50
4, 42590, Note_on_c, 1, 80, 0
4, 42592, Note_on_c, 1, 77, 50
4, 42622, Note_on_c, 1, 77, 0
4, 42624, Note_on_c, 1, 80, 46
4, 42654, Note_on_c, 1, 80, 0
4, 42656, Note_on_c, 1, 77, 46
4, 42686, Note_on_c, 1, 77, 0
4, 42688, Note_on_c, 1, 80, 47
4, 42718, Note_on_c, 1, 80, 0
4, 42720, Note_on_c, 1, 77, 56
4, 42750, Note_on_c, 1, 77, 0
4, 42752, Note_on_c, 1, 80, 57
4, 42782, Note_on_c, 1, 80, 0
4, 42784, Note_on_c, 1, 77, 53
4, 42814, Note_on_c, 1, 77, 0
4, 42816, Note_on_c, 1, 80, 50
4, 42846, Note_on_c, 1, 80, 0
4, 42848, Note_on_c, 1, 77, 59
4, 42878, Note_on_c, 1, 77, 0
4, 42880, Note_on_c, 1, 80, 55
4, 42910, Note_on_c, 1, 80, 0
4, 42912, Note_on_c, 1, 77, 53
4, 42942, Note_on_c, 1, 77, 0
4, 42944, Note_on_c, 1, 80, 58
4, 42974, Note_on_c, 1, 80, 0
4, 42976, Note_on_c, 1, 77, 57
4, 43006, Note_on_c, 1, 77, 0
4, 43008, Note_on_c, 1, 80, 55
4, 43038, Note_on_c, 1, 80, 0
4, 43040, Note_on_c, 1, 77, 61
4, 43070, Note_on_c, 1, 77, 0
4, 43072, Note_on_c, 1, 80, 63
4, 43102, Note_on_c, 1, 80, 0
4, 43104, Note_on_c, 1, 77, 61
4, 43134, Note_on_c, 1, 77, 0
4, 43136, Note_on_c, 1, 80, 62
4, 43166, Note_on_c, 1, 80, 0
4, 43168, Note_on_c, 1, 77, 68
4, 43198, Note_on_c, 1, 77, 0
4, 43200, Note_on_c, 1, 80, 64
4, 43230, Note_on_c, 1, 80, 0
4, 43232, Note_on_c, 1, 77, 71
4, 43262, Note_on_c, 1, 77, 0
4, 43264, Note_on_c, 1, 80, 64
4, 43294, Note_on_c, 1, 80, 0
4, 43296, Note_on_c, 1, 77, 71
4, 43326, Note_on_c, 1, 77, 0
4, 43328, Note_on_c, 1, 80, 69
4, 43358, Note_on_c, 1, 80, 0
4, 43360, Note_on_c, 1, 77, 76
4, 43390, Note_on_c, 1, 77, 0
4, 43392, Note_on_c, 1, 80, 72
4, 43422, Note_on_c, 1, 80, 0
4, 43424, Note_on_c, 1, 77, 71
4, 43454, Note_on_c, 1, 77, 0
4, 43456, Note_on_c, 1, 80, 77
4, 43486, Note_on_c, 1, 80, 0
4, 43488, Note_on_c, 1, 78, 44
4, 43582, Note_on_c, 1, 78, 0
4, 45792, Control_c, 1, 11, 92
4, 45888, Note_on_c, 1, 69, 70
4, 45918, Note_on_c, 1, 69, 0
4, 45920, Note_on_c, 1, 71, 70
4, 45950, Note_on_c, 1, 71, 0
4, 45952, Note_on_c, 1, 73, 77
4, 45982, Note_on_c, 1, 73, 0
4, 45984, Note_on_c, 1, 75, 70
4, 46398, Note_on_c, 1, 75, 0
4, 46400, Note_on_c, 1, 76, 74
4, 46430, Note_on_c, 1, 76, 0
4, 46432, Note_on_c, 1, 78, 73
4, 46454, Note_on_c, 1, 78, 0
4, 46456, Note_on_c, 1, 78, 80
4, 46462, Note_on_c, 1, 78, 0
4, 46464, Note_on_c, 1, 76, 77
4, 46510, Note_on_c, 1, 76, 0
4, 46512, Note_on_c, 1, 75, 79
4, 46558, Note_on_c, 1, 75, 0
4, 46560, Control_c, 1, 11, 92
4, 46560, Note_on_c, 1, 75, 74
4, 46570, Control_c, 1, 11, 93
4, 46581, Control_c, 1, 11, 94
4, 46592, Control_c, 1, 11, 95
4, 46603, Control_c, 1, 11, 96
4, 46614, Control_c, 1, 11, 97
4, 46625, Control_c, 1, 11, 98
4, 46636, Control_c, 1, 11, 99
4, 46647, Control_c, 1, 11, 100
4, 46658, Control_c, 1, 11, 101
4, 46669, Control_c, 1, 11, 102
4, 46680, Control_c, 1, 11, 103
4, 46691, Control_c, 1, 11, 104
4, 46702, Control_c, 1, 11, 105
4, 46713, Control_c, 1, 11, 106
4, 46724, Control_c, 1, 11, 107
4, 46735, Control_c, 1, 11, 108
4, 46746, Control_c, 1, 11, 109
4, 46757, Control_c, 1, 11, 110
4, 46768, Control_c, 1, 11, 111
4, 46779, Control_c, 1, 11, 112
4, 46790, Control_c, 1, 11, 113
4, 46801, Control_c, 1, 11, 114
4, 46812, Control_c, 1, 11, 115
4, 46823, Control_c, 1, 11, 116
4, 46834, Control_c, 1, 11, 117
4, 46845, Control_c, 1, 11, 118
4, 46856, Control_c, 1, 11, 119
4, 46867, Control_c, 1, 11, 120
4, 46878, Control_c, 1, 11, 121
4, 46889, Control_c, 1, 11, 122
4, 46900, Control_c, 1, 11, 123
4, 46911, Control_c, 1, 11, 124
4, 46922, Control_c, 1, 11, 125
4, 46933, Control_c, 1, 11, 126
4, 46944, Control_c, 1, 11, 127
4, 46944, Control_c, 1, 11, 92
4, 46974, Note_on_c, 1, 75, 0
4, 46976, Note_on_c, 1, 76, 79
4, 47006, Note_on_c, 1, 76, 0
4, 47008, Note_on_c, 1, 78, 71
4, 47030, Note_on_c, 1, 78, 0
4, 47032, Note_on_c, 1, 78, 70
4, 47038, Note_on_c, 1, 78, 0
4, 47040, Note_on_c, 1, 76, 72
4, 47086, Note_on_c, 1, 76, 0
4, 47088, Note_on_c, 1, 75, 73
4, 47134, Note_on_c, 1, 75, 0
4, 47136, Control_c, 1, 11, 92
4, 47136, Note_on_c, 1, 75, 73
4, 47146, Control_c, 1, 11, 93
4, 47157, Control_c, 1, 11, 94
4, 47168, Control_c, 1, 11, 95
4, 47179, Control_c, 1, 11, 96
4, 47190, Control_c, 1, 11, 97
4, 47201, Control_c, 1, 11, 98
4, 47212, Control_c, 1, 11, 99
4, 47223, Control_c, 1, 11, 100
4, 47234, Control_c, 1, 11, 101
4, 47245, Control_c, 1, 11, 102
4, 47256, Control_c, 1, 11, 103
4, 47267, Control_c, 1, 11, 104
4, 47278, Control_c, 1, 11, 105
4, 47289, Control_c, 1, 11, 106
4, 47300, Control_c, 1, 11, 107
4, 47311, Control_c, 1, 11, 108
4, 47322, Control_c, 1, 11, 109
4, 47333, Control_c, 1, 11, 110
4, 47344, Control_c, 1, 11, 111
4, 47355, Control_c, 1, 11, 112
4, 47366, Control_c, 1, 11, 113
4, 47377, Control_c, 1, 11, 114
4, 47388, Control_c, 1, 11, 115
4, 47390, Note_on_c, 1, 75, 0
4, 47392, Note_on_c, 1, 76, 74
4, 47399, Control_c, 1, 11, 116
4, 47410, Control_c, 1, 11, 117
4, 47421, Control_c, 1, 11, 118
4, 47432, Control_c, 1, 11, 119
4, 47443, Control_c, 1, 11, 120
4, 47454, Note_on_c, 1, 76, 0
4, 47454, Control_c, 1, 11, 121
4, 47456, Note_on_c, 1, 78, 73
4, 47465, Control_c, 1, 11, 122
4, 47476, Control_c, 1, 11, 123
4, 47487, Control_c, 1, 11, 124
4, 47498, Control_c, 1, 11, 125
4, 47509, Control_c, 1, 11, 126
4, 47518, Note_on_c, 1, 78, 0
4, 47520, Control_c, 1, 11, 127
4, 47520, Note_on_c, 1, 79, 72
4, 47550, Note_on_c, 1, 79, 0
4, 47552, Note_on_c, 1, 78, 76
4, 47573, Note_on_c, 1, 78, 0
4, 47584, Note_on_c, 1, 78, 77
4, 47605, Note_on_c, 1, 78, 0
4, 47616, Note_on_c, 1, 78, 72
4, 47637, Note_on_c, 1, 78, 0
4, 47648, Note_on_c, 1, 76, 74
4, 47669, Note_on_c, 1, 76, 0
4, 47680, Note_on_c, 1, 76, 77
4, 47701, Note_on_c, 1, 76, 0
4, 47712, Note_on_c, 1, 76, 71
4, 47733, Note_on_c, 1, 76, 0
4, 47744, Note_on_c, 1, 75, 72
4, 47765, Note_on_c, 1, 75, 0
4, 47776, Note_on_c, 1, 75, 71
4, 47797, Note_on_c, 1, 75, 0
4, 47808, Note_on_c, 1, 75, 78
4, 47829, Note_on_c, 1, 75, 0
4, 47840, Note_on_c, 1, 73, 80
4, 47861, Note_on_c, 1, 73, 0
4, 47872, Note_on_c, 1, 73, 73
4, 47893, Note_on_c, 1, 73, 0
4, 47904, Note_on_c, 1, 73, 78
4, 47936, Note_on_c, 1, 73, 0
4, 47936, Note_on_c, 1, 71, 72
4, 47968, Note_on_c, 1, 71, 0
4, 47968, Note_on_c, 1, 73, 71
4, 48000, Note_on_c, 1, 73, 0
4, 48000, Note_on_c, 1, 75, 80
4, 48032, Note_on_c, 1, 75, 0
4, 48032, Note_on_c, 1, 76, 77
4, 48064, Note_on_c, 1, 76, 0
4, 48064, Note_on_c, 1, 78, 79
4, 48096, Note_on_c, 1, 78, 0
4, 48096, Note_on_c, 1, 79, 75
4, 48117, Note_on_c, 1, 79, 0
4, 48128, Note_on_c, 1, 78, 72
4, 48149, Note_on_c, 1, 78, 0
4, 48160, Note_on_c, 1, 78, 70
4, 48181, Note_on_c, 1, 78, 0
4, 48192, Note_on_c, 1, 78, 70
4, 48213, Note_on_c, 1, 78, 0
4, 48224, Note_on_c, 1, 76, 79
4, 48245, Note_on_c, 1, 76, 0
4, 48256, Note_on_c, 1, 76, 75
4, 48277, Note_on_c, 1, 76, 0
4, 48288, Note_on_c, 1, 76, 79
4, 48309, Note_on_c, 1, 76, 0
4, 48320, Note_on_c, 1, 75, 80
4, 48341, Note_on_c, 1, 75, 0
4, 48352, Note_on_c, 1, 75, 78
4, 48373, Note_on_c, 1, 75, 0
4, 48384, Note_on_c, 1, 75, 75
4, 48405, Note_on_c, 1, 75, 0
4, 48416, Note_on_c, 1, 73, 70
4, 48437, Note_on_c, 1, 73, 0
4, 48448, Note_on_c, 1, 73, 74
4, 48469, Note_on_c, 1, 73, 0
4, 48480, Note_on_c, 1, 73, 79
4, 48512, Note_on_c, 1, 73, 0
4, 48512, Note_on_c, 1, 71, 80
4, 48544, Note_on_c, 1, 71, 0
4, 48544, Note_on_c, 1, 73, 79
4, 48576, Note_on_c, 1, 73, 0
4, 48576, Note_on_c, 1, 75, 79
4, 48608, Note_on_c, 1, 75, 0
4, 48608, Note_on_c, 1, 76, 76
4, 48640, Note_on_c, 1, 76, 0
4, 48640, Note_on_c, 1, 78, 74
4, 48672, Note_on_c, 1, 78, 0
4, 48672, Note_on_c, 1, 80, 70
4, 48766, Note_on_c, 1, 80, 0
4, 50400, Control_c, 1, 11, 127
4, 55584, Control_c, 1, 11, 127
4, 57312, Note_on_c, 1, 80, 49
4, 57312, Note_on_c, 1, 83, 43
4, 57344, Note_on_c, 1, 80, 0
4, 57344, Note_on_c, 1, 83, 0
4, 57408, Note_on_c, 1, 80, 49
4, 57408, Note_on_c, 1, 83, 43
4, 57429, Note_on_c, 1, 80, 0
4, 57429, Note_on_c, 1, 83, 0
4, 57440, Note_on_c, 1, 80, 49
4, 57440, Note_on_c, 1, 83, 42
4, 57461, Note_on_c, 1, 80, 0
4, 57461, Note_on_c, 1, 83, 0
4, 57472, Note_on_c, 1, 80, 40
4, 57472, Note_on_c, 1, 83, 41
4, 57493, Note_on_c, 1, 80, 0
4, 57493, Note_on_c, 1, 83, 0
4, 57504, Note_on_c, 1, 80, 44
4, 57504, Note_on_c, 1, 83, 46
4, 57536, Note_on_c, 1, 80, 0
4, 57536, Note_on_c, 1, 83, 0
4, 57600, Note_on_c, 1, 78, 48
4, 57600, Note_on_c, 1, 81, 52
4, 57621, Note_on_c, 1, 78, 0
4, 57621, Note_on_c, 1, 81, 0
4, 57632, Note_on_c, 1, 78, 53
4, 57632, Note_on_c, 1, 81, 44
4, 57653, Note_on_c, 1, 78, 0
4, 57653, Note_on_c, 1, 81, 0
4, 57664, Note_on_c, 1, 78, 50
4, 57664, Note_on_c, 1, 81, 47
4, 57685, Note_on_c, 1, 78, 0
4, 57685, Note_on_c, 1, 81, 0
4, 57696, Note_on_c, 1, 76, 44
4, 57696, Note_on_c, 1, 80, 47
4, 57717, Note_on_c, 1, 76, 0
4, 57717, Note_on_c, 1, 80, 0
4, 57728, Note_on_c, 1, 76, 49
4, 57728, Note_on_c, 1, 80, 49
4, 57749, Note_on_c, 1, 76, 0
4, 57749, Note_on_c, 1, 80, 0
4, 57760, Note_on_c, 1, 76, 50
4, 57760, Note_on_c, 1, 80, 56
4, 57781, Note_on_c, 1, 76, 0
4, 57781, Note_on_c, 1, 80, 0
4, 57792, Note_on_c, 1, 74, 52
4, 57792, Note_on_c, 1, 78, 53
4, 57813, Note_on_c, 1, 74, 0
4, 57813, Note_on_c, 1, 78, 0
4, 57824, Note_on_c, 1, 74, 55
4, 57824, Note_on_c, 1, 78, 57
4, 57845, Note_on_c, 1, 74, 0
4, 57845, Note_on_c, 1, 78, 0
4, 57856, Note_on_c, 1, 74, 50
4, 57856, Note_on_c, 1, 78, 59
4, 57877, Note_on_c, 1, 74, 0
4, 57877, Note_on_c, 1, 78, 0
4, 57888, Note_on_c, 1, 80, 55
4, 57888, Note_on_c, 1, 83, 52
4, 57909, Note_on_c, 1, 80, 0
4, 57909, Note_on_c, 1, 83, 0
4, 57920, Note_on_c, 1, 80, 58
4, 57920, Note_on_c, 1, 83, 52
4, 57941, Note_on_c, 1, 80, 0
4, 57941, Note_on_c, 1, 83, 0
4, 57952, Note_on_c, 1, 80, 54
4, 57952, Note_on_c, 1, 83, 53
4, 57973, Note_on_c, 1, 80, 0
4, 57973, Note_on_c, 1, 83, 0
4, 57984, Note_on_c, 1, 78, 56
4, 57984, Note_on_c, 1, 81, 58
4, 58005, Note_on_c, 1, 78, 0
4, 58005, Note_on_c, 1, 81, 0
4, 58016, Note_on_c, 1, 78, 61
4, 58016, Note_on_c, 1, 81, 64
4, 58037, Note_on_c, 1, 78, 0
4, 58037, Note_on_c, 1, 81, 0
4, 58048, Note_on_c, 1, 78, 59
4, 58048, Note_on_c, 1, 81, 56
4, 58069, Note_on_c, 1, 78, 0
4, 58069, Note_on_c, 1, 81, 0
4, 58080, Note_on_c, 1, 76, 57
4, 58080, Note_on_c, 1, 80, 62
4, 58101, Note_on_c, 1, 76, 0
4, 58101, Note_on_c, 1, 80, 0
4, 58112, Note_on_c, 1, 76, 67
4, 58112, Note_on_c, 1, 80, 64
4, 58133, Note_on_c, 1, 76, 0
4, 58133, Note_on_c, 1, 80, 0
4, 58144, Note_on_c, 1, 76, 65
4, 58144, Note_on_c, 1, 80, 67
4, 58165, Note_on_c, 1, 76, 0
4, 58165, Note_on_c, 1, 80, 0
4, 58176, Note_on_c, 1, 74, 63
4, 58176, Note_on_c, 1, 78, 63
4, 58197, Note_on_c, 1, 74, 0
4, 58197, Note_on_c, 1, 78, 0
4, 58208, Note_on_c, 1, 74, 62
4, 58208, Note_on_c, 1, 78, 60
4, 58229, Note_on_c, 1, 74, 0
4, 58229, Note_on_c, 1, 78, 0
4, 58240, Note_on_c, 1, 74, 65
4, 58240, Note_on_c, 1, 78, 67
4, 58261, Note_on_c, 1, 74, 0
4, 58261, Note_on_c, 1, 78, 0
4, 58272, Note_on_c, 1, 80, 68
4, 58272, Note_on_c, 1, 83, 63
4, 58293, Note_on_c, 1, 80, 0
4, 58293, Note_on_c, 1, 83, 0
4, 58304, Note_on_c, 1, 80, 67
4, 58304, Note_on_c, 1, 83, 66
4, 58325, Note_on_c, 1, 80, 0
4, 58325, Note_on_c, 1, 83, 0
4, 58336, Note_on_c, 1, 80, 64
4, 58336, Note_on_c, 1, 83, 69
4, 58357, Note_on_c, 1, 80, 0
4, 58357, Note_on_c, 1, 83, 0
4, 58368, Note_on_c, 1, 78, 65
4, 58368, Note_on_c, 1, 81, 69
4, 58389, Note_on_c, 1, 78, 0
4, 58389, Note_on_c, 1, 81, 0
4, 58400, Note_on_c, 1, 78, 73
4, 58400, Note_on_c, 1, 81, 69
4, 58421, Note_on_c, 1, 78, 0
4, 58421, Note_on_c, 1, 81, 0
4, 58432, Note_on_c, 1, 78, 67
4, 58432, Note_on_c, 1, 81, 76
4, 58453, Note_on_c, 1, 78, 0
4, 58453, Note_on_c, 1, 81, 0
4, 58464, Note_on_c, 1, 76, 74
4, 58464, Note_on_c, 1, 80, 74
4, 58485, Note_on_c, 1, 76, 0
4, 58485, Note_on_c, 1, 80, 0
4, 58496, Note_on_c, 1, 76, 77
4, 58496, Note_on_c, 1, 80, 75
4, 58517, Note_on_c, 1, 76, 0
4, 58517, Note_on_c, 1, 80, 0
4, 58528, Note_on_c, 1, 76, 75
4, 58528, Note_on_c, 1, 80, 71
4, 58549, Note_on_c, 1, 76, 0
4, 58549, Note_on_c, 1, 80, 0
4, 58560, Note_on_c, 1, 74, 80
4, 58560, Note_on_c, 1, 78, 77
4, 58581, Note_on_c, 1, 74, 0
4, 58581, Note_on_c, 1, 78, 0
4, 58592, Note_on_c, 1, 74, 81
4, 58592, Note_on_c, 1, 78, 80
4, 58613, Note_on_c, 1, 74, 0
4, 58613, Note_on_c, 1, 78, 0
4, 58624, Note_on_c, 1, 74, 73
4, 58624, Note_on_c, 1, 78, 75
4, 58645, Note_on_c, 1, 74, 0
4, 58645, Note_on_c, 1, 78, 0
4, 58656, Note_on_c, 1, 80, 74
4, 58656, Note_on_c, 1, 83, 75
4, 58677, Note_on_c, 1, 80, 0
4, 58677, Note_on_c, 1, 83, 0
4, 58688, Note_on_c, 1, 80, 78
4, 58688, Note_on_c, 1, 83, 77
4, 58709, Note_on_c, 1, 80, 0
4, 58709, Note_on_c, 1, 83, 0
4, 58720, Note_on_c, 1, 80, 86
4, 58720, Note_on_c, 1, 83, 76
4, 58741, Note_on_c, 1, 80, 0
4, 58741, Note_on_c, 1, 83, 0
4, 58752, Note_on_c, 1, 78, 87
4, 58752, Note_on_c, 1, 81, 87
4, 58773, Note_on_c, 1, 78, 0
4, 58773, Note_on_c, 1, 81, 0
4, 58784, Note_on_c, 1, 78, 79
4, 58784, Note_on_c, 1, 81, 80
4, 58805, Note_on_c, 1, 78, 0
4, 58805, Note_on_c, 1, 81, 0
4, 58816, Note_on_c, 1, 78, 88
4, 58816, Note_on_c, 1, 81, 83
4, 58837, Note_on_c, 1, 78, 0
4, 58837, Note_on_c, 1, 81, 0
4, 58848, Note_on_c, 1, 76, 83
4, 58848, Note_on_c, 1, 80, 80
4, 58869, Note_on_c, 1, 76, 0
4, 58869, Note_on_c, 1, 80, 0
4, 58880, Note_on_c, 1, 76, 83
4, 58880, Note_on_c, 1, 80, 86
4, 58901, Note_on_c, 1, 76, 0
4, 58901, Note_on_c, 1, 80, 0
4, 58912, Note_on_c, 1, 76, 86
4, 58912, Note_on_c, 1, 80, 91
4, 58933, Note_on_c, 1, 76, 0
4, 58933, Note_on_c, 1, 80, 0
4, 58944, Note_on_c, 1, 74, 89
4, 58944, Note_on_c, 1, 78, 85
4, 58965, Note_on_c, 1, 74, 0
4, 58965, Note_on_c, 1, 78, 0
4, 58976, Note_on_c, 1, 74, 86
4, 58976, Note_on_c, 1, 78, 93
4, 58997, Note_on_c, 1, 74, 0
4, 58997, Note_on_c, 1, 78, 0
4, 59008, Note_on_c, 1, 74, 85
4, 59008, Note_on_c, 1, 78, 91
4, 59029, Note_on_c, 1, 74, 0
4, 59029, Note_on_c, 1, 78, 0
4, 59040, Note_on_c, 1, 80, 91
4, 59040, Note_on_c, 1, 83, 90
4, 59061, Note_on_c, 1, 80, 0
4, 59061, Note_on_c, 1, 83, 0
4, 59072, Note_on_c, 1, 80, 97
4, 59072, Note_on_c, 1, 83, 94
4, 59093, Note_on_c, 1, 80, 0
4, 59093, Note_on_c, 1, 83, 0
4, 59104, Note_on_c, 1, 80, 97
4, 59104, Note_on_c, 1, 83, 87
4, 59125, Note_on_c, 1, 80, 0
4, 59125, Note_on_c, 1, 83, 0
4, 59136, Note_on_c, 1, 78, 91
4, 59136, Note_on_c, 1, 81, 93
4, 59157, Note_on_c, 1, 78, 0
4, 59157, Note_on_c, 1, 81, 0
4, 59168, Note_on_c, 1, 78, 88
4, 59168, Note_on_c, 1, 81, 89
4, 59189, Note_on_c, 1, 78, 0
4, 59189, Note_on_c, 1, 81, 0
4, 59200, Note_on_c, 1, 78, 91
4, 59200, Note_on_c, 1, 81, 92
4, 59221, Note_on_c, 1, 78, 0
4, 59221, Note_on_c, 1, 81, 0
4, 59232, Note_on_c, 1, 76, 88
4, 59232, Note_on_c, 1, 80, 96
4, 59253, Note_on_c, 1, 76, 0
4, 59253, Note_on_c, 1, 80, 0
4, 59264, Note_on_c, 1, 76, 95
4, 59264, Note_on_c, 1, 80, 97
4, 59285, Note_on_c, 1, 76, 0
4, 59285, Note_on_c, 1, 80, 0
4, 59296, Note_on_c, 1, 76, 93
4, 59296, Note_on_c, 1, 80, 96
4, 59317, Note_on_c, 1, 76, 0
4, 59317, Note_on_c, 1, 80, 0
4, 59328, Note_on_c, 1, 74, 94
4, 59328, Note_on_c, 1, 78, 93
4, 59349, Note_on_c, 1, 74, 0
4, 59349, Note_on_c, 1, 78, 0
4, 59360, Note_on_c, 1, 74, 88
4, 59360, Note_on_c, 1, 78, 89
4, 59381, Note_on_c, 1, 74, 0
4, 59381, Note_on_c, 1, 78, 0
4, 59392, Note_on_c, 1, 74, 93
4, 59392, Note_on_c, 1, 78, 94
4, 59413, Note_on_c, 1, 74, 0
4, 59413, Note_on_c, 1, 78, 0
4, 59424, Note_on_c, 1, 80, 91
4, 59424, Note_on_c, 1, 83, 92
4, 59445, Note_on_c, 1, 80, 0
4, 59445, Note_on_c, 1, 83, 0
4, 59456, Note_on_c, 1, 80, 89
4, 59456, Note_on_c, 1, 83, 93
4, 59477, Note_on_c, 1, 80, 0
4, 59477, Note_on_c, 1, 83, 0
4, 59488, Note_on_c, 1, 80, 91
4, 59488, Note_on_c, 1, 83, 93
4, 59509, Note_on_c, 1, 80, 0
4, 59509, Note_on_c, 1, 83, 0
4, 59520, Note_on_c, 1, 78, 89
4, 59520, Note_on_c, 1, 81, 91
4, 59541, Note_on_c, 1, 78, 0
4, 59541, Note_on_c, 1, 81, 0
4, 59552, Note_on_c, 1, 78, 89
4, 59552, Note_on_c, 1, 81, 88
4, 59573, Note_on_c, 1, 78, 0
4, 59573, Note_on_c, 1, 81, 0
4, 59584, Note_on_c, 1, 78, 89
4, 59584, Note_on_c, 1, 81, 93
4, 59605, Note_on_c, 1, 78, 0
4, 59605, Note_on_c, 1, 81, 0
4, 60768, Control_c, 1, 11, 92
4, 60864, Note_on_c, 1, 69, 59
4, 60896, Note_on_c, 1, 69, 0
4, 60896, Note_on_c, 1, 71, 55
4, 60928, Note_on_c, 1, 71, 0
4, 60928, Note_on_c, 1, 73, 65
4, 60960, Note_on_c, 1, 73, 0
4, 60960, Note_on_c, 1, 75, 59
4, 61344, Control_c, 1, 11, 92
4, 61349, Control_c, 1, 11, 93
4, 61354, Control_c, 1, 11, 94
4, 61360, Control_c, 1, 11, 95
4, 61365, Control_c, 1, 11, 96
4, 61371, Control_c, 1, 11, 97
4, 61376, Note_on_c, 1, 75, 0
4, 61376, Control_c, 1, 11, 98
4, 61376, Note_on_c, 1, 76, 58
4, 61382, Control_c, 1, 11, 99
4, 61387, Control_c, 1, 11, 100
4, 61393, Control_c, 1, 11, 101
4, 61398, Control_c, 1, 11, 102
4, 61404, Control_c, 1, 11, 103
4, 61408, Note_on_c, 1, 76, 0
4, 61408, Note_on_c, 1, 78, 56
4, 61409, Control_c, 1, 11, 104
4, 61415, Control_c, 1, 11, 105
4, 61420, Control_c, 1, 11, 106
4, 61426, Control_c, 1, 11, 107
4, 61431, Control_c, 1, 11, 108
4, 61432, Note_on_c, 1, 78, 0
4, 61432, Note_on_c, 1, 78, 55
4, 61437, Control_c, 1, 11, 109
4, 61440, Note_on_c, 1, 78, 0
4, 61440, Note_on_c, 1, 76, 60
4, 61442, Control_c, 1, 11, 110
4, 61448, Control_c, 1, 11, 111
4, 61453, Control_c, 1, 11, 112
4, 61459, Control_c, 1, 11, 113
4, 61464, Control_c, 1, 11, 114
4, 61470, Control_c, 1, 11, 115
4, 61475, Control_c, 1, 11, 116
4, 61481, Control_c, 1, 11, 117
4, 61486, Control_c, 1, 11, 118
4, 61488, Note_on_c, 1, 76, 0
4, 61488, Note_on_c, 1, 75, 60
4, 61492, Control_c, 1, 11, 119
4, 61497, Control_c, 1, 11, 120
4, 61503, Control_c, 1, 11, 121
4, 61508, Control_c, 1, 11, 122
4, 61514, Control_c, 1, 11, 123
4, 61519, Control_c, 1, 11, 124
4, 61525, Control_c, 1, 11, 125
4, 61530, Control_c, 1, 11, 126
4, 61536, Note_on_c, 1, 75, 0
4, 61536, Control_c, 1, 11, 127
4, 61536, Note_on_c, 1, 75, 57
4, 61546, Control_c, 1, 11, 126
4, 61557, Control_c, 1, 11, 125
4, 61568, Control_c, 1, 11, 124
4, 61579, Control_c, 1, 11, 123
4, 61590, Control_c, 1, 11, 122
4, 61601, Control_c, 1, 11, 121
4, 61612, Control_c, 1, 11, 120
4, 61623, Control_c, 1, 11, 119
4, 61634, Control_c, 1, 11, 118
4, 61645, Control_c, 1, 11, 117
4, 61656, Control_c, 1, 11, 116
4, 61667, Control_c, 1, 11, 115
4, 61678, Control_c, 1, 11, 114
4, 61689, Control_c, 1, 11, 113
4, 61700, Control_c, 1, 11, 112
4, 61711, Control_c, 1, 11, 111
4, 61722, Control_c, 1, 11, 110
4, 61733, Control_c, 1, 11, 109
4, 61744, Control_c, 1, 11, 108
4, 61755, Control_c, 1, 11, 107
4, 61766, Control_c, 1, 11, 106
4, 61777, Control_c, 1, 11, 105
4, 61788, Control_c, 1, 11, 104
4, 61799, Control_c, 1, 11, 103
4, 61810, Control_c, 1, 11, 102
4, 61821, Control_c, 1, 11, 101
4, 61832, Control_c, 1, 11, 100
4, 61843, Control_c, 1, 11, 99
4, 61854, Control_c, 1, 11, 98
4, 61865, Control_c, 1, 11, 97
4, 61876, Control_c, 1, 11, 96
4, 61887, Control_c, 1, 11, 95
4, 61898, Control_c, 1, 11, 94
4, 61909, Control_c, 1, 11, 93
4, 61920, Control_c, 1, 11, 92
4, 61952, Note_on_c, 1, 75, 0
4, 61952, Note_on_c, 1, 76, 56
4, 61984, Note_on_c, 1, 76, 0
4, 61984, Note_on_c, 1, 78, 64
4, 62008, Note_on_c, 1, 78, 0
4, 62008, Note_on_c, 1, 78, 62
4, 62016, Note_on_c, 1, 78, 0
4, 62016, Note_on_c, 1, 76, 57
4, 62064, Note_on_c, 1, 76, 0
4, 62064, Note_on_c, 1, 75, 61
4, 62112, Note_on_c, 1, 75, 0
4, 62112, Note_on_c, 1, 75, 55
4, 62688, Note_on_c, 1, 75, 0
4, 62688, Note_on_c, 1, 76, 58
4, 62880, Note_on_c, 1, 76, 0
4, 62880, Note_on_c, 1, 78, 63
4, 63040, Note_on_c, 1, 78, 0
4, 63072, Control_c, 1, 11, 127
4, 63456, Note_on_c, 1, 73, 49
4, 63488, Note_on_c, 1, 73, 0
4, 63488, Note_on_c, 1, 71, 43
4, 63520, Note_on_c, 1, 71, 0
4, 63520, Note_on_c, 1, 73, 44
4, 63552, Note_on_c, 1, 73, 0
4, 63552, Note_on_c, 1, 75, 53
4, 63584, Note_on_c, 1, 75, 0
4, 63584, Note_on_c, 1, 76, 51
4, 63616, Note_on_c, 1, 76, 0
4, 63616, Note_on_c, 1, 78, 62
4, 63648, Note_on_c, 1, 78, 0
4, 63648, Note_on_c, 1, 79, 63
4, 63742, Note_on_c, 1, 79, 0
4, 64032, Note_on_c, 1, 73, 49
4, 64062, Note_on_c, 1, 73, 0
4, 64064, Note_on_c, 1, 71, 40
4, 64094, Note_on_c, 1, 71, 0
4, 64096, Note_on_c, 1, 73, 44
4, 64126, Note_on_c, 1, 73, 0
4, 64128, Note_on_c, 1, 75, 49
4, 64158, Note_on_c, 1, 75, 0
4, 64160, Note_on_c, 1, 76, 58
4, 64190, Note_on_c, 1, 76, 0
4, 64192, Note_on_c, 1, 78, 54
4, 64222, Note_on_c, 1, 78, 0
4, 64224, Note_on_c, 1, 79, 62
4, 64318, Note_on_c, 1, 79, 0
4, 64800, Control_c, 1, 11, 75
4, 64800, Note_on_c, 1, 76, 89
4, 64800, Note_on_c, 1, 80, 87
4, 64807, Control_c, 1, 11, 76
4, 64814, Control_c, 1, 11, 77
4, 64822, Control_c, 1, 11, 78
4, 64829, Control_c, 1, 11, 79
4, 64836, Control_c, 1, 11, 80
4, 64844, Control_c, 1, 11, 81
4, 64851, Control_c, 1, 11, 82
4, 64859, Control_c, 1, 11, 83
4, 64866, Control_c, 1, 11, 84
4, 64873, Control_c, 1, 11, 85
4, 64881, Control_c, 1, 11, 86
4, 64888, Control_c, 1, 11, 87
4, 64896, Control_c, 1, 11, 88
4, 64903, Control_c, 1, 11, 89
4, 64910, Control_c, 1, 11, 90
4, 64918, Control_c, 1, 11, 91
4, 64925, Control_c, 1, 11, 92
4, 64932, Control_c, 1, 11, 93
4, 64940, Control_c, 1, 11, 94
4, 64947, Control_c, 1, 11, 95
4, 64955, Control_c, 1, 11, 96
4, 64962, Control_c, 1, 11, 97
4, 64969, Control_c, 1, 11, 98
4, 64977, Control_c, 1, 11, 99
4, 64984, Control_c, 1, 11, 100
4, 64992, Control_c, 1, 11, 101
4, 64999, Control_c, 1, 11, 102
4, 65006, Control_c, 1, 11, 103
4, 65014, Control_c, 1, 11, 104
4, 65021, Control_c, 1, 11, 105
4, 65028, Control_c, 1, 11, 106
4, 65036, Control_c, 1, 11, 107
4, 65043, Control_c, 1, 11, 108
4, 65051, Control_c, 1, 11, 109
4, 65058, Control_c, 1, 11, 110
4, 65065, Control_c, 1, 11, 111
4, 65073, Control_c, 1, 11, 112
4, 65080, Control_c, 1, 11, 113
4, 65088, Control_c, 1, 11, 114
4, 65095, Control_c, 1, 11, 115
4, 65102, Control_c, 1, 11, 116
4, 65110, Control_c, 1, 11, 117
4, 65117, Control_c, 1, 11, 118
4, 65124, Control_c, 1, 11, 119
4, 65132, Control_c, 1, 11, 120
4, 65139, Control_c, 1, 11, 121
4, 65147, Control_c, 1, 11, 122
4, 65154, Control_c, 1, 11, 123
4, 65161, Control_c, 1, 11, 124
4, 65169, Control_c, 1, 11, 125
4, 65176, Control_c, 1, 11, 126
4, 65184, Note_on_c, 1, 76, 0
4, 65184, Note_on_c, 1, 80, 0
4, 65184, Control_c, 1, 11, 127
4, 65184, Note_on_c, 1, 79, 93
4, 65184, Note_on_c, 1, 82, 88
4, 65216, Note_on_c, 1, 79, 0
4, 65216, Note_on_c, 1, 82, 0
4, 65280, Control_c, 1, 7, 92
4, 65376, Note_on_c, 1, 80, 96
4, 65376, Note_on_c, 1, 83, 96
4, 65470, Note_on_c, 1, 80, 0
4, 65470, Note_on_c, 1, 83, 0
4, 65544, Control_c, 1, 11, 75
4, 65544, Note_on_c, 1, 78, 105
4, 65547, Control_c, 1, 11, 76
4, 65551, Control_c, 1, 11, 77
4, 65555, Control_c, 1, 11, 78
4, 65558, Control_c, 1, 11, 79
4, 65562, Control_c, 1, 11, 80
4, 65566, Note_on_c, 1, 78, 0
4, 65566, Control_c, 1, 11, 81
4, 65568, Note_on_c, 1, 77, 113
4, 65569, Control_c, 1, 11, 82
4, 65573, Control_c, 1, 11, 83
4, 65577, Control_c, 1, 11, 84
4, 65580, Control_c, 1, 11, 85
4, 65584, Control_c, 1, 11, 86
4, 65588, Control_c, 1, 11, 87
4, 65592, Control_c, 1, 11, 88
4, 65595, Control_c, 1, 11, 89
4, 65599, Control_c, 1, 11, 90
4, 65603, Control_c, 1, 11, 91
4, 65606, Control_c, 1, 11, 92
4, 65610, Control_c, 1, 11, 93
4, 65614, Control_c, 1, 11, 94
4, 65617, Control_c, 1, 11, 95
4, 65621, Control_c, 1, 11, 96
4, 65625, Control_c, 1, 11, 97
4, 65628, Control_c, 1, 11, 98
4, 65632, Control_c, 1, 11, 99
4, 65636, Control_c, 1, 11, 100
4, 65640, Control_c, 1, 11, 101
4, 65643, Control_c, 1, 11, 102
4, 65647, Control_c, 1, 11, 103
4, 65651, Control_c, 1, 11, 104
4, 65654, Control_c, 1, 11, 105
4, 65658, Control_c, 1, 11, 106
4, 65662, Control_c, 1, 11, 107
4, 65665, Control_c, 1, 11, 108
4, 65669, Control_c, 1, 11, 109
4, 65673, Control_c, 1, 11, 110
4, 65676, Control_c, 1, 11, 111
4, 65680, Control_c, 1, 11, 112
4, 65684, Control_c, 1, 11, 113
4, 65688, Control_c, 1, 11, 114
4, 65691, Control_c, 1, 11, 115
4, 65695, Control_c, 1, 11, 116
4, 65699, Control_c, 1, 11, 117
4, 65702, Control_c, 1, 11, 118
4, 65706, Control_c, 1, 11, 119
4, 65710, Control_c, 1, 11, 120
4, 65713, Control_c, 1, 11, 121
4, 65717, Control_c, 1, 11, 122
4, 65721, Control_c, 1, 11, 123
4, 65724, Control_c, 1, 11, 124
4, 65728, Control_c, 1, 11, 125
4, 65732, Control_c, 1, 11, 126
4, 65736, Control_c, 1, 11, 127
4, 65952, Control_c, 1, 11, 127
4, 65962, Control_c, 1, 11, 126
4, 65973, Control_c, 1, 11, 125
4, 65984, Control_c, 1, 11, 124
4, 65995, Control_c, 1, 11, 123
4, 66005, Control_c, 1, 11, 122
4, 66016, Control_c, 1, 11, 121
4, 66027, Control_c, 1, 11, 120
4, 66038, Control_c, 1, 11, 119
4, 66048, Control_c, 1, 11, 118
4, 66059, Control_c, 1, 11, 117
4, 66070, Control_c, 1, 11, 116
4, 66081, Control_c, 1, 11, 115
4, 66091, Control_c, 1, 11, 114
4, 66102, Control_c, 1, 11, 113
4, 66113, Control_c, 1, 11, 112
4, 66124, Control_c, 1, 11, 111
4, 66135, Control_c, 1, 11, 110
4, 66145, Control_c, 1, 11, 109
4, 66156, Control_c, 1, 11, 108
4, 66167, Control_c, 1, 11, 107
4, 66178, Control_c, 1, 11, 106
4, 66188, Control_c, 1, 11, 105
4, 66199, Control_c, 1, 11, 104
4, 66210, Control_c, 1, 11, 103
4, 66221, Control_c, 1, 11, 102
4, 66231, Control_c, 1, 11, 101
4, 66242, Control_c, 1, 11, 100
4, 66253, Control_c, 1, 11, 99
4, 66264, Control_c, 1, 11, 98
4, 66274, Control_c, 1, 11, 97
4, 66285, Control_c, 1, 11, 96
4, 66296, Control_c, 1, 11, 95
4, 66307, Control_c, 1, 11, 94
4, 66318, Control_c, 1, 11, 93
4, 66328, Control_c, 1, 11, 92
4, 66339, Control_c, 1, 11, 91
4, 66350, Control_c, 1, 11, 90
4, 66361, Control_c, 1, 11, 89
4, 66371, Control_c, 1, 11, 88
4, 66382, Control_c, 1, 11, 87
4, 66393, Control_c, 1, 11, 86
4, 66404, Control_c, 1, 11, 85
4, 66414, Control_c, 1, 11, 84
4, 66425, Control_c, 1, 11, 83
4, 66436, Control_c, 1, 11, 82
4, 66447, Control_c, 1, 11, 81
4, 66458, Control_c, 1, 11, 80
4, 66468, Control_c, 1, 11, 79
4, 66479, Control_c, 1, 11, 78
4, 66490, Control_c, 1, 11, 77
4, 66501, Control_c, 1, 11, 76
4, 66511, Control_c, 1, 11, 75
4, 66522, Control_c, 1, 11, 74
4, 66533, Control_c, 1, 11, 73
4, 66544, Control_c, 1, 11, 72
4, 66554, Control_c, 1, 11, 71
4, 66565, Control_c, 1, 11, 70
4, 66576, Control_c, 1, 11, 69
4, 66587, Control_c, 1, 11, 68
4, 66597, Control_c, 1, 11, 67
4, 66608, Control_c, 1, 11, 66
4, 66619, Control_c, 1, 11, 65
4, 66630, Control_c, 1, 11, 64
4, 66641, Control_c, 1, 11, 63
4, 66651, Control_c, 1, 11, 62
4, 66662, Control_c, 1, 11, 61
4, 66673, Control_c, 1, 11, 60
4, 66684, Control_c, 1, 11, 59
4, 66694, Control_c, 1, 11, 58
4, 66705, Control_c, 1, 11, 57
4, 66716, Control_c, 1, 11, 56
4, 66727, Control_c, 1, 11, 55
4, 66737, Control_c, 1, 11, 54
4, 66748, Control_c, 1, 11, 53
4, 66759, Control_c, 1, 11, 52
4, 66770, Control_c, 1, 11, 51
4, 66781, Control_c, 1, 11, 50
4, 66791, Control_c, 1, 11, 49
4, 66802, Control_c, 1, 11, 48
4, 66813, Control_c, 1, 11, 47
4, 66824, Control_c, 1, 11, 46
4, 66834, Control_c, 1, 11, 45
4, 66845, Control_c, 1, 11, 44
4, 66856, Control_c, 1, 11, 43
4, 66867, Control_c, 1, 11, 42
4, 66877, Control_c, 1, 11, 41
4, 66888, Control_c, 1, 11, 40
4, 66899, Control_c, 1, 11, 39
4, 66910, Control_c, 1, 11, 38
4, 66920, Control_c, 1, 11, 37
4, 66931, Control_c, 1, 11, 36
4, 66942, Control_c, 1, 11, 35
4, 66953, Control_c, 1, 11, 34
4, 66964, Control_c, 1, 11, 33
4, 66974, Control_c, 1, 11, 32
4, 66985, Control_c, 1, 11, 31
4, 66996, Control_c, 1, 11, 30
4, 67007, Control_c, 1, 11, 29
4, 67017, Control_c, 1, 11, 28
4, 67028, Control_c, 1, 11, 27
4, 67039, Control_c, 1, 11, 26
4, 67050, Control_c, 1, 11, 25
4, 67060, Control_c, 1, 11, 24
4, 67071, Control_c, 1, 11, 23
4, 67082, Control_c, 1, 11, 22
4, 67093, Control_c, 1, 11, 21
4, 67104, Control_c, 1, 11, 20
4, 67264, Note_on_c, 1, 77, 0
4, 67680, Control_c, 1, 7, 127
4, 67680, Control_c, 1, 11, 92
4, 67680, Note_on_c, 1, 65, 60
4, 67680, Note_on_c, 1, 70, 57
4, 67685, Control_c, 1, 11, 93
4, 67690, Control_c, 1, 11, 94
4, 67696, Control_c, 1, 11, 95
4, 67701, Control_c, 1, 11, 96
4, 67707, Control_c, 1, 11, 97
4, 67712, Control_c, 1, 11, 98
4, 67718, Control_c, 1, 11, 99
4, 67723, Control_c, 1, 11, 100
4, 67726, Note_on_c, 1, 65, 0
4, 67726, Note_on_c, 1, 70, 0
4, 67728, Note_on_c, 1, 62, 57
4, 67728, Note_on_c, 1, 67, 62
4, 67729, Control_c, 1, 11, 101
4, 67734, Control_c, 1, 11, 102
4, 67740, Control_c, 1, 11, 103
4, 67745, Control_c, 1, 11, 104
4, 67751, Control_c, 1, 11, 105
4, 67756, Control_c, 1, 11, 106
4, 67762, Note_on_c, 1, 62, 0
4, 67762, Note_on_c, 1, 67, 0
4, 67762, Control_c, 1, 11, 107
4, 67764, Note_on_c, 1, 65, 61
4, 67764, Note_on_c, 1, 70, 64
4, 67767, Control_c, 1, 11, 108
4, 67773, Control_c, 1, 11, 109
4, 67778, Control_c, 1, 11, 110
4, 67784, Control_c, 1, 11, 111
4, 67789, Control_c, 1, 11, 112
4, 67795, Control_c, 1, 11, 113
4, 67798, Note_on_c, 1, 65, 0
4, 67798, Note_on_c, 1, 70, 0
4, 67800, Control_c, 1, 11, 114
4, 67800, Note_on_c, 1, 67, 58
4, 67800, Note_on_c, 1, 72, 64
4, 67806, Control_c, 1, 11, 115
4, 67811, Control_c, 1, 11, 116
4, 67817, Control_c, 1, 11, 117
4, 67822, Control_c, 1, 11, 118
4, 67828, Control_c, 1, 11, 119
4, 67833, Control_c, 1, 11, 120
4, 67834, Note_on_c, 1, 67, 0
4, 67834, Note_on_c, 1, 72, 0
4, 67836, Note_on_c, 1, 69, 56
4, 67836, Note_on_c, 1, 74, 58
4, 67839, Control_c, 1, 11, 121
4, 67844, Control_c, 1, 11, 122
4, 67850, Control_c, 1, 11, 123
4, 67855, Control_c, 1, 11, 124
4, 67861, Control_c, 1, 11, 125
4, 67866, Control_c, 1, 11, 126
4, 67870, Note_on_c, 1, 69, 0
4, 67870, Note_on_c, 1, 74, 0
4, 67872, Control_c, 1, 11, 127
4, 67872, Note_on_c, 1, 70, 64
4, 67872, Note_on_c, 1, 76, 65
4, 67882, Control_c, 1, 11, 126
4, 67893, Control_c, 1, 11, 125
4, 67904, Control_c, 1, 11, 124
4, 67915, Control_c, 1, 11, 123
4, 67926, Control_c, 1, 11, 122
4, 67937, Control_c, 1, 11, 121
4, 67948, Control_c, 1, 11, 120
4, 67959, Control_c, 1, 11, 119
4, 67970, Control_c, 1, 11, 118
4, 67981, Control_c, 1, 11, 117
4, 67992, Control_c, 1, 11, 116
4, 68003, Control_c, 1, 11, 115
4, 68014, Control_c, 1, 11, 114
4, 68025, Control_c, 1, 11, 113
4, 68036, Control_c, 1, 11, 112
4, 68047, Control_c, 1, 11, 111
4, 68058, Control_c, 1, 11, 110
4, 68069, Control_c, 1, 11, 109
4, 68080, Control_c, 1, 11, 108
4, 68091, Control_c, 1, 11, 107
4, 68102, Control_c, 1, 11, 106
4, 68113, Control_c, 1, 11, 105
4, 68124, Control_c, 1, 11, 104
4, 68135, Control_c, 1, 11, 103
4, 68146, Control_c, 1, 11, 102
4, 68157, Control_c, 1, 11, 101
4, 68168, Control_c, 1, 11, 100
4, 68179, Control_c, 1, 11, 99
4, 68190, Control_c, 1, 11, 98
4, 68201, Control_c, 1, 11, 97
4, 68212, Control_c, 1, 11, 96
4, 68223, Control_c, 1, 11, 95
4, 68234, Control_c, 1, 11, 94
4, 68245, Control_c, 1, 11, 93
4, 68256, Control_c, 1, 11, 92
4, 68270, Control_c, 1, 11, 91
4, 68284, Control_c, 1, 11, 90
4, 68298, Control_c, 1, 11, 89
4, 68312, Control_c, 1, 11, 88
4, 68326, Control_c, 1, 11, 87
4, 68340, Control_c, 1, 11, 86
4, 68354, Control_c, 1, 11, 85
4, 68368, Control_c, 1, 11, 84
4, 68382, Control_c, 1, 11, 83
4, 68396, Control_c, 1, 11, 82
4, 68410, Control_c, 1, 11, 81
4, 68424, Control_c, 1, 11, 80
4, 68438, Control_c, 1, 11, 79
4, 68452, Control_c, 1, 11, 78
4, 68466, Control_c, 1, 11, 77
4, 68480, Control_c, 1, 11, 76
4, 68494, Control_c, 1, 11, 75
4, 68508, Control_c, 1, 11, 74
4, 68522, Control_c, 1, 11, 73
4, 68536, Control_c, 1, 11, 72
4, 68551, Control_c, 1, 11, 71
4, 68565, Control_c, 1, 11, 70
4, 68579, Control_c, 1, 11, 69
4, 68593, Control_c, 1, 11, 68
4, 68607, Control_c, 1, 11, 67
4, 68621, Control_c, 1, 11, 66
4, 68635, Control_c, 1, 11, 65
4, 68649, Control_c, 1, 11, 64
4, 68663, Control_c, 1, 11, 63
4, 68677, Control_c, 1, 11, 62
4, 68691, Control_c, 1, 11, 61
4, 68705, Control_c, 1, 11, 60
4, 68719, Control_c, 1, 11, 59
4, 68733, Control_c, 1, 11, 58
4, 68747, Control_c, 1, 11, 57
4, 68761, Control_c, 1, 11, 56
4, 68775, Control_c, 1, 11, 55
4, 68789, Control_c, 1, 11, 54
4, 68803, Control_c, 1, 11, 53
4, 68817, Control_c, 1, 11, 52
4, 68831, Control_c, 1, 11, 51
4, 68846, Control_c, 1, 11, 50
4, 68860, Control_c, 1, 11, 49
4, 68874, Control_c, 1, 11, 48
4, 68888, Control_c, 1, 11, 47
4, 68902, Control_c, 1, 11, 46
4, 68916, Control_c, 1, 11, 45
4, 68930, Control_c, 1, 11, 44
4, 68944, Control_c, 1, 11, 43
4, 68958, Control_c, 1, 11, 42
4, 68972, Control_c, 1, 11, 41
4, 68986, Control_c, 1, 11, 40
4, 69000, Control_c, 1, 11, 39
4, 69014, Control_c, 1, 11, 38
4, 69028, Control_c, 1, 11, 37
4, 69042, Control_c, 1, 11, 36
4, 69056, Control_c, 1, 11, 35
4, 69070, Control_c, 1, 11, 34
4, 69084, Control_c, 1, 11, 33
4, 69098, Control_c, 1, 11, 32
4, 69112, Control_c, 1, 11, 31
4, 69127, Control_c, 1, 11, 30
4, 69141, Control_c, 1, 11, 29
4, 69155, Control_c, 1, 11, 28
4, 69169, Control_c, 1, 11, 27
4, 69183, Control_c, 1, 11, 26
4, 69197, Control_c, 1, 11, 25
4, 69211, Control_c, 1, 11, 24
4, 69225, Control_c, 1, 11, 23
4, 69239, Control_c, 1, 11, 22
4, 69253, Control_c, 1, 11, 21
4, 69267, Control_c, 1, 11, 20
4, 69281, Control_c, 1, 11, 19
4, 69295, Control_c, 1, 11, 18
4, 69309, Control_c, 1, 11, 17
4, 69323, Control_c, 1, 11, 16
4, 69337, Control_c, 1, 11, 15
4, 69351, Control_c, 1, 11, 14
4, 69365, Control_c, 1, 11, 13
4, 69379, Control_c, 1, 11, 12
4, 69393, Control_c, 1, 11, 11
4, 69408, Control_c, 1, 11, 10
4, 69936, Note_on_c, 1, 70, 0
4, 69936, Note_on_c, 1, 76, 0
4, 70560, Control_c, 1, 11, 127
4, 72288, Note_on_c, 1, 70, 32
4, 72288, Note_on_c, 1, 76, 34
4, 73392, Note_on_c, 1, 70, 0
4, 73392, Note_on_c, 1, 76, 0
4, 74592, Control_c, 1, 11, 127
4, 75168, Note_on_c, 1, 73, 26
4, 75168, Note_on_c, 1, 77, 26
4, 75200, Note_on_c, 1, 73, 0
4, 75200, Note_on_c, 1, 77, 0
4, 75264, Note_on_c, 1, 76, 26
4, 75294, Note_on_c, 1, 76, 0
4, 75296, Note_on_c, 1, 75, 34
4, 75326, Note_on_c, 1, 75, 0
4, 75328, Note_on_c, 1, 74, 30
4, 75328, Note_on_c, 1, 78, 34
4, 75358, Note_on_c, 1, 74, 0
4, 75358, Note_on_c, 1, 78, 0
4, 75360, Note_on_c, 1, 73, 34
4, 75360, Note_on_c, 1, 77, 32
4, 75392, Note_on_c, 1, 73, 0
4, 75392, Note_on_c, 1, 77, 0
4, 75456, Note_on_c, 1, 76, 33
4, 75486, Note_on_c, 1, 76, 0
4, 75488, Note_on_c, 1, 75, 38
4, 75518, Note_on_c, 1, 75, 0
4, 75520, Note_on_c, 1, 74, 43
4, 75520, Note_on_c, 1, 78, 39
4, 75550, Note_on_c, 1, 74, 0
4, 75550, Note_on_c, 1, 78, 0
4, 75552, Note_on_c, 1, 73, 48
4, 75552, Note_on_c, 1, 77, 42
4, 75584, Note_on_c, 1, 73, 0
4, 75584, Note_on_c, 1, 77, 0
4, 75648, Note_on_c, 1, 77, 50
4, 75648, Note_on_c, 1, 81, 40
4, 75680, Note_on_c, 1, 77, 0
4, 75680, Note_on_c, 1, 81, 0
4, 76320, Note_on_c, 1, 73, 45
4, 76352, Note_on_c, 1, 73, 0
4, 76416, Note_on_c, 1, 72, 45
4, 76446, Note_on_c, 1, 72, 0
4, 76448, Note_on_c, 1, 71, 47
4, 76478, Note_on_c, 1, 71, 0
4, 76480, Note_on_c, 1, 74, 47
4, 76510, Note_on_c, 1, 74, 0
4, 76512, Note_on_c, 1, 73, 51
4, 76544, Note_on_c, 1, 73, 0
4, 76608, Note_on_c, 1, 72, 60
4, 76638, Note_on_c, 1, 72, 0
4, 76640, Note_on_c, 1, 71, 60
4, 76670, Note_on_c, 1, 71, 0
4, 76672, Note_on_c, 1, 74, 62
4, 76702, Note_on_c, 1, 74, 0
4, 76704, Note_on_c, 1, 68, 43
4, 76704, Note_on_c, 1, 72, 41
4, 76734, Note_on_c, 1, 68, 0
4, 76734, Note_on_c, 1, 72, 0
4, 76736, Note_on_c, 1, 64, 48
4, 76736, Note_on_c, 1, 68, 43
4, 76766, Note_on_c, 1, 64, 0
4, 76766, Note_on_c, 1, 68, 0
4, 76768, Note_on_c, 1, 68, 46
4, 76768, Note_on_c, 1, 72, 45
4, 76798, Note_on_c, 1, 68, 0
4, 76798, Note_on_c, 1, 72, 0
4, 76800, Note_on_c, 1, 64, 56
4, 76800, Note_on_c, 1, 68, 49
4, 76830, Note_on_c, 1, 64, 0
4, 76830, Note_on_c, 1, 68, 0
4, 76832, Note_on_c, 1, 60, 52
4, 76832, Note_on_c, 1, 64, 52
4, 76862, Note_on_c, 1, 60, 0
4, 76862, Note_on_c, 1, 64, 0
4, 76864, Note_on_c, 1, 64, 60
4, 76864, Note_on_c, 1, 68, 56
4, 76894, Note_on_c, 1, 64, 0
4, 76894, Note_on_c, 1, 68, 0
4, 77088, Note_on_c, 1, 68, 42
4, 77088, Note_on_c, 1, 72, 40
4, 77118, Note_on_c, 1, 68, 0
4, 77118, Note_on_c, 1, 72, 0
4, 77120, Note_on_c, 1, 64, 49
4, 77120, Note_on_c, 1, 68, 47
4, 77150, Note_on_c, 1, 64, 0
4, 77150, Note_on_c, 1, 68, 0
4, 77152, Note_on_c, 1, 68, 49
4, 77152, Note_on_c, 1, 72, 45
4, 77182, Note_on_c, 1, 68, 0
4, 77182, Note_on_c, 1, 72, 0
4, 77184, Note_on_c, 1, 64, 57
4, 77184, Note_on_c, 1, 68, 47
4, 77214, Note_on_c, 1, 64, 0
4, 77214, Note_on_c, 1, 68, 0
4, 77216, Note_on_c, 1, 60, 54
4, 77216, Note_on_c, 1, 64, 55
4, 77246, Note_on_c, 1, 60, 0
4, 77246, Note_on_c, 1, 64, 0
4, 77248, Note_on_c, 1, 64, 65
4, 77248, Note_on_c, 1, 68, 60
4, 77278, Note_on_c, 1, 64, 0
4, 77278, Note_on_c, 1, 68, 0
4, 79008, Note_on_c, 1, 70, 46
4, 79008, Note_on_c, 1, 73, 40
4, 79038, Note_on_c, 1, 70, 0
4, 79038, Note_on_c, 1, 73, 0
4, 79040, Note_on_c, 1, 73, 43
4, 79040, Note_on_c, 1, 77, 44
4, 79070, Note_on_c, 1, 73, 0
4, 79070, Note_on_c, 1, 77, 0
4, 79072, Note_on_c, 1, 75, 51
4, 79072, Note_on_c, 1, 79, 50
4, 79102, Note_on_c, 1, 75, 0
4, 79102, Note_on_c, 1, 79, 0
4, 79104, Note_on_c, 1, 77, 55
4, 79104, Note_on_c, 1, 80, 60
4, 79134, Note_on_c, 1, 77, 0
4, 79134, Note_on_c, 1, 80, 0
4, 79136, Note_on_c, 1, 79, 65
4, 79136, Note_on_c, 1, 82, 61
4, 79166, Note_on_c, 1, 79, 0
4, 79166, Note_on_c, 1, 82, 0
4, 79168, Note_on_c, 1, 80, 73
4, 79168, Note_on_c, 1, 84, 64
4, 79198, Note_on_c, 1, 80, 0
4, 79198, Note_on_c, 1, 84, 0
4, 79200, Note_on_c, 1, 82, 77
4, 79200, Note_on_c, 1, 86, 79
4, 79232, Note_on_c, 1, 82, 0
4, 79232, Note_on_c, 1, 86, 0
4, 79584, Note_on_c, 1, 70, 42
4, 79584, Note_on_c, 1, 73, 46
4, 79614, Note_on_c, 1, 70, 0
4, 79614, Note_on_c, 1, 73, 0
4, 79616, Note_on_c, 1, 73, 50
4, 79616, Note_on_c, 1, 77, 49
4, 79646, Note_on_c, 1, 73, 0
4, 79646, Note_on_c, 1, 77, 0
4, 79648, Note_on_c, 1, 75, 49
4, 79648, Note_on_c, 1, 79, 56
4, 79678, Note_on_c, 1, 75, 0
4, 79678, Note_on_c, 1, 79, 0
4, 79680, Note_on_c, 1, 77, 55
4, 79680, Note_on_c, 1, 80, 54
4, 79710, Note_on_c, 1, 77, 0
4, 79710, Note_on_c, 1, 80, 0
4, 79712, Note_on_c, 1, 79, 71
4, 79712, Note_on_c, 1, 82, 68
4, 79742, Note_on_c, 1, 79, 0
4, 79742, Note_on_c, 1, 82, 0
4, 79744, Note_on_c, 1, 80, 80
4, 79744, Note_on_c, 1, 84, 77
4, 79774, Note_on_c, 1, 80, 0
4, 79774, Note_on_c, 1, 84, 0
4, 79776, Note_on_c, 1, 82, 41
4, 79776, Note_on_c, 1, 86, 40
4, 79808, Note_on_c, 1, 82, 0
4, 79808, Note_on_c, 1, 86, 0
4, 80160, Note_on_c, 1, 70, 49
4, 80160, Note_on_c, 1, 73, 45
4, 80190, Note_on_c, 1, 70, 0
4, 80190, Note_on_c, 1, 73, 0
4, 80192, Note_on_c, 1, 73, 47
4, 80192, Note_on_c, 1, 77, 45
4, 80222, Note_on_c, 1, 73, 0
4, 80222, Note_on_c, 1, 77, 0
4, 80224, Note_on_c, 1, 75, 42
4, 80224, Note_on_c, 1, 79, 44
4, 80254, Note_on_c, 1, 75, 0
4, 80254, Note_on_c, 1, 79, 0
4, 80256, Note_on_c, 1, 77, 47
4, 80256, Note_on_c, 1, 80, 51
4, 80286, Note_on_c, 1, 77, 0
4, 80286, Note_on_c, 1, 80, 0
4, 80288, Note_on_c, 1, 79, 48
4, 80288, Note_on_c, 1, 82, 48
4, 80318, Note_on_c, 1, 79, 0
4, 80318, Note_on_c, 1, 82, 0
4, 80320, Note_on_c, 1, 80, 52
4, 80320, Note_on_c, 1, 84, 56
4, 80350, Note_on_c, 1, 80, 0
4, 80350, Note_on_c, 1, 84, 0
4, 80352, Note_on_c, 1, 82, 56
4, 80352, Note_on_c, 1, 86, 57
4, 80384, Note_on_c, 1, 82, 0
4, 80384, Note_on_c, 1, 86, 0
4, 80544, Control_c, 1, 7, 92
4, 80736, Note_on_c, 1, 70, 79
4, 80736, Note_on_c, 1, 73, 81
4, 80766, Note_on_c, 1, 70, 0
4, 80766, Note_on_c, 1, 73, 0
4, 80768, Note_on_c, 1, 73, 85
4, 80768, Note_on_c, 1, 77, 85
4, 80798, Note_on_c, 1, 73, 0
4, 80798, Note_on_c, 1, 77, 0
4, 80800, Note_on_c, 1, 75, 81
4, 80800, Note_on_c, 1, 79, 80
4, 80830, Note_on_c, 1, 75, 0
4, 80830, Note_on_c, 1, 79, 0
4, 80832, Note_on_c, 1, 77, 89
4, 80832, Note_on_c, 1, 80, 89
4, 80862, Note_on_c, 1, 77, 0
4, 80862, Note_on_c, 1, 80, 0
4, 80864, Note_on_c, 1, 79, 90
4, 80864, Note_on_c, 1, 82, 85
4, 80894, Note_on_c, 1, 79, 0
4, 80894, Note_on_c, 1, 82, 0
4, 80896, Note_on_c, 1, 80, 95
4, 80896, Note_on_c, 1, 84, 87
4, 80926, Note_on_c, 1, 80, 0
4, 80926, Note_on_c, 1, 84, 0
4, 81120, Control_c, 1, 11, 92
4, 81120, Note_on_c, 1, 84, 106
4, 81120, Note_on_c, 1, 88, 105
4, 81504, Control_c, 1, 11, 92
4, 81525, Control_c, 1, 11, 93
4, 81547, Control_c, 1, 11, 94
4, 81569, Control_c, 1, 11, 95
4, 81591, Control_c, 1, 11, 96
4, 81613, Control_c, 1, 11, 97
4, 81635, Control_c, 1, 11, 98
4, 81657, Control_c, 1, 11, 99
4, 81679, Control_c, 1, 11, 100
4, 81701, Control_c, 1, 11, 101
4, 81723, Control_c, 1, 11, 102
4, 81745, Control_c, 1, 11, 103
4, 81767, Control_c, 1, 11, 104
4, 81789, Control_c, 1, 11, 105
4, 81811, Control_c, 1, 11, 106
4, 81833, Control_c, 1, 11, 107
4, 81855, Control_c, 1, 11, 108
4, 81877, Control_c, 1, 11, 109
4, 81898, Control_c, 1, 11, 110
4, 81920, Control_c, 1, 11, 111
4, 81942, Control_c, 1, 11, 112
4, 81964, Control_c, 1, 11, 113
4, 81986, Control_c, 1, 11, 114
4, 82008, Control_c, 1, 11, 115
4, 82030, Control_c, 1, 11, 116
4, 82032, Note_on_c, 1, 84, 0
4, 82032, Note_on_c, 1, 88, 0
4, 82052, Control_c, 1, 11, 117
4, 82074, Control_c, 1, 11, 118
4, 82080, Note_on_c, 1, 82, 108
4, 82080, Note_on_c, 1, 86, 110
4, 82096, Control_c, 1, 11, 119
4, 82104, Note_on_c, 1, 82, 0
4, 82104, Note_on_c, 1, 86, 0
4, 82104, Note_on_c, 1, 80, 113
4, 82104, Note_on_c, 1, 84, 105
4, 82118, Control_c, 1, 11, 120
4, 82140, Control_c, 1, 11, 121
4, 82162, Control_c, 1, 11, 122
4, 82184, Control_c, 1, 11, 123
4, 82206, Control_c, 1, 11, 124
4, 82228, Control_c, 1, 11, 125
4, 82250, Control_c, 1, 11, 126
4, 82272, Control_c, 1, 11, 127
4, 82992, Note_on_c, 1, 80, 0
4, 82992, Note_on_c, 1, 84, 0
4, 83424, Control_c, 1, 11, 92
4, 83424, Note_on_c, 1, 84, 113
4, 83424, Note_on_c, 1, 88, 107
4, 83808, Control_c, 1, 11, 92
4, 83829, Control_c, 1, 11, 93
4, 83851, Control_c, 1, 11, 94
4, 83873, Control_c, 1, 11, 95
4, 83895, Control_c, 1, 11, 96
4, 83917, Control_c, 1, 11, 97
4, 83939, Control_c, 1, 11, 98
4, 83961, Control_c, 1, 11, 99
4, 83983, Control_c, 1, 11, 100
4, 84005, Control_c, 1, 11, 101
4, 84027, Control_c, 1, 11, 102
4, 84049, Control_c, 1, 11, 103
4, 84071, Control_c, 1, 11, 104
4, 84093, Control_c, 1, 11, 105
4, 84115, Control_c, 1, 11, 106
4, 84137, Control_c, 1, 11, 107
4, 84159, Control_c, 1, 11, 108
4, 84181, Control_c, 1, 11, 109
4, 84202, Control_c, 1, 11, 110
4, 84224, Control_c, 1, 11, 111
4, 84246, Control_c, 1, 11, 112
4, 84268, Control_c, 1, 11, 113
4, 84290, Control_c, 1, 11, 114
4, 84312, Control_c, 1, 11, 115
4, 84334, Control_c, 1, 11, 116
4, 84336, Note_on_c, 1, 84, 0
4, 84336, Note_on_c, 1, 88, 0
4, 84356, Control_c, 1, 11, 117
4, 84378, Control_c, 1, 11, 118
4, 84384, Note_on_c, 1, 82, 103
4, 84384, Note_on_c, 1, 86, 108
4, 84400, Control_c, 1, 11, 119
4, 84408, Note_on_c, 1, 82, 0
4, 84408, Note_on_c, 1, 86, 0
4, 84408, Note_on_c, 1, 80, 109
4, 84408, Note_on_c, 1, 84, 106
4, 84422, Control_c, 1, 11, 120
4, 84444, Control_c, 1, 11, 121
4, 84466, Control_c, 1, 11, 122
4, 84488, Control_c, 1, 11, 123
4, 84510, Control_c, 1, 11, 124
4, 84532, Control_c, 1, 11, 125
4, 84554, Control_c, 1, 11, 126
4, 84576, Control_c, 1, 11, 127
4, 84960, Control_c, 1, 11, 127
4, 84969, Control_c, 1, 11, 126
4, 84978, Control_c, 1, 11, 125
4, 84988, Control_c, 1, 11, 124
4, 84997, Control_c, 1, 11, 123
4, 85006, Control_c, 1, 11, 122
4, 85016, Control_c, 1, 11, 121
4, 85025, Control_c, 1, 11, 120
4, 85034, Control_c, 1, 11, 119
4, 85044, Control_c, 1, 11, 118
4, 85053, Control_c, 1, 11, 117
4, 85063, Control_c, 1, 11, 116
4, 85072, Control_c, 1, 11, 115
4, 85081, Control_c, 1, 11, 114
4, 85091, Control_c, 1, 11, 113
4, 85100, Control_c, 1, 11, 112
4, 85109, Control_c, 1, 11, 111
4, 85119, Control_c, 1, 11, 110
4, 85128, Control_c, 1, 11, 109
4, 85137, Control_c, 1, 11, 108
4, 85147, Control_c, 1, 11, 107
4, 85156, Control_c, 1, 11, 106
4, 85166, Control_c, 1, 11, 105
4, 85175, Control_c, 1, 11, 104
4, 85184, Control_c, 1, 11, 103
4, 85194, Control_c, 1, 11, 102
4, 85203, Control_c, 1, 11, 101
4, 85212, Control_c, 1, 11, 100
4, 85222, Control_c, 1, 11, 99
4, 85231, Control_c, 1, 11, 98
4, 85240, Control_c, 1, 11, 97
4, 85250, Control_c, 1, 11, 96
4, 85259, Control_c, 1, 11, 95
4, 85269, Control_c, 1, 11, 94
4, 85278, Control_c, 1, 11, 93
4, 85287, Control_c, 1, 11, 92
4, 85297, Control_c, 1, 11, 91
4, 85306, Control_c, 1, 11, 90
4, 85315, Control_c, 1, 11, 89
4, 85325, Control_c, 1, 11, 88
4, 85334, Control_c, 1, 11, 87
4, 85343, Control_c, 1, 11, 86
4, 85353, Control_c, 1, 11, 85
4, 85362, Control_c, 1, 11, 84
4, 85372, Control_c, 1, 11, 83
4, 85381, Control_c, 1, 11, 82
4, 85390, Control_c, 1, 11, 81
4, 85400, Control_c, 1, 11, 80
4, 85409, Control_c, 1, 11, 79
4, 85418, Control_c, 1, 11, 78
4, 85428, Control_c, 1, 11, 77
4, 85437, Control_c, 1, 11, 76
4, 85447, Control_c, 1, 11, 75
4, 85456, Control_c, 1, 11, 74
4, 85465, Control_c, 1, 11, 73
4, 85475, Control_c, 1, 11, 72
4, 85484, Control_c, 1, 11, 71
4, 85493, Control_c, 1, 11, 70
4, 85503, Control_c, 1, 11, 69
4, 85512, Control_c, 1, 11, 68
4, 85521, Control_c, 1, 11, 67
4, 85531, Control_c, 1, 11, 66
4, 85540, Control_c, 1, 11, 65
4, 85550, Control_c, 1, 11, 64
4, 85559, Control_c, 1, 11, 63
4, 85568, Control_c, 1, 11, 62
4, 85578, Control_c, 1, 11, 61
4, 85587, Control_c, 1, 11, 60
4, 85596, Control_c, 1, 11, 59
4, 85606, Control_c, 1, 11, 58
4, 85615, Control_c, 1, 11, 57
4, 85624, Control_c, 1, 11, 56
4, 85634, Control_c, 1, 11, 55
4, 85643, Control_c, 1, 11, 54
4, 85653, Control_c, 1, 11, 53
4, 85662, Control_c, 1, 11, 52
4, 85671, Control_c, 1, 11, 51
4, 85681, Control_c, 1, 11, 50
4, 85690, Control_c, 1, 11, 49
4, 85696, Note_on_c, 1, 80, 0
4, 85696, Note_on_c, 1, 84, 0
4, 85699, Control_c, 1, 11, 48
4, 85709, Control_c, 1, 11, 47
4, 85718, Control_c, 1, 11, 46
4, 85728, Control_c, 1, 11, 45
4, 86112, Control_c, 1, 7, 127
4, 86112, Control_c, 1, 11, 127
4, 88992, Note_on_c, 1, 75, 41
4, 89022, Note_on_c, 1, 75, 0
4, 89024, Note_on_c, 1, 76, 45
4, 89054, Note_on_c, 1, 76, 0
4, 89056, Note_on_c, 1, 75, 49
4, 89086, Note_on_c, 1, 75, 0
4, 89088, Note_on_c, 1, 76, 42
4, 89118, Note_on_c, 1, 76, 0
4, 89120, Note_on_c, 1, 75, 47
4, 89150, Note_on_c, 1, 75, 0
4, 89152, Note_on_c, 1, 76, 45
4, 89182, Note_on_c, 1, 76, 0
4, 89184, Note_on_c, 1, 75, 50
4, 89214, Note_on_c, 1, 75, 0
4, 89216, Note_on_c, 1, 76, 48
4, 89246, Note_on_c, 1, 76, 0
4, 89248, Note_on_c, 1, 75, 41
4, 89278, Note_on_c, 1, 75, 0
4, 89280, Note_on_c, 1, 76, 50
4, 89326, Note_on_c, 1, 76, 0
4, 89328, Note_on_c, 1, 74, 42
4, 89374, Note_on_c, 1, 74, 0
4, 89376, Note_on_c, 1, 75, 77
4, 89424, Note_on_c, 1, 75, 0
4, 89568, Note_on_c, 1, 75, 49
4, 89598, Note_on_c, 1, 75, 0
4, 89600, Note_on_c, 1, 76, 44
4, 89630, Note_on_c, 1, 76, 0
4, 89632, Note_on_c, 1, 75, 40
4, 89662, Note_on_c, 1, 75, 0
4, 89664, Note_on_c, 1, 76, 50
4, 89694, Note_on_c, 1, 76, 0
4, 89696, Note_on_c, 1, 75, 46
4, 89726, Note_on_c, 1, 75, 0
4, 89728, Note_on_c, 1, 76, 41
4, 89758, Note_on_c, 1, 76, 0
4, 89760, Note_on_c, 1, 75, 44
4, 89790, Note_on_c, 1, 75, 0
4, 89792, Note_on_c, 1, 76, 41
4, 89822, Note_on_c, 1, 76, 0
4, 89824, Note_on_c, 1, 75, 42
4, 89854, Note_on_c, 1, 75, 0
4, 89856, Note_on_c, 1, 76, 41
4, 89902, Note_on_c, 1, 76, 0
4, 89904, Note_on_c, 1, 74, 45
4, 89950, Note_on_c, 1, 74, 0
4, 89952, Note_on_c, 1, 75, 79
4, 90000, Note_on_c, 1, 75, 0
4, 90144, Note_on_c, 1, 75, 75
4, 90398, Note_on_c, 1, 75, 0
4, 90400, Note_on_c, 1, 76, 71
4, 90442, Note_on_c, 1, 76, 0
4, 90464, Note_on_c, 1, 78, 74
4, 90506, Note_on_c, 1, 78, 0
4, 90528, Note_on_c, 1, 78, 80
4, 90570, Note_on_c, 1, 78, 0
4, 90592, Note_on_c, 1, 76, 80
4, 90634, Note_on_c, 1, 76, 0
4, 90656, Note_on_c, 1, 75, 75
4, 90688, Note_on_c, 1, 75, 0
4, 90704, Note_on_c, 1, 75, 75
4, 90718, Note_on_c, 1, 75, 0
4, 90720, Note_on_c, 1, 73, 70
4, 90762, Note_on_c, 1, 73, 0
4, 90784, Note_on_c, 1, 71, 78
4, 90826, Note_on_c, 1, 71, 0
4, 90848, Note_on_c, 1, 71, 78
4, 90890, Note_on_c, 1, 71, 0
4, 90912, Note_on_c, 1, 71, 79
4, 90974, Note_on_c, 1, 71, 0
4, 90976, Note_on_c, 1, 70, 79
4, 91018, Note_on_c, 1, 70, 0
4, 91040, Note_on_c, 1, 70, 82
4, 91072, Note_on_c, 1, 70, 0
4, 91088, Note_on_c, 1, 68, 80
4, 91102, Note_on_c, 1, 68, 0
4, 91104, Note_on_c, 1, 70, 80
4, 91166, Note_on_c, 1, 70, 0
4, 91168, Note_on_c, 1, 71, 86
4, 91230, Note_on_c, 1, 71, 0
4, 91232, Note_on_c, 1, 73, 91
4, 91294, Note_on_c, 1, 73, 0
4, 91296, Note_on_c, 1, 63, 97
4, 91328, Note_on_c, 1, 63, 0
4, 95904, Note_on_c, 1, 75, 46
4, 95934, Note_on_c, 1, 75, 0
4, 95936, Note_on_c, 1, 76, 47
4, 95966, Note_on_c, 1, 76, 0
4, 95968, Note_on_c, 1, 75, 46
4, 95998, Note_on_c, 1, 75, 0
4, 96000, Note_on_c, 1, 76, 50
4, 96030, Note_on_c, 1, 76, 0
4, 96032, Note_on_c, 1, 75, 48
4, 96062, Note_on_c, 1, 75, 0
4, 96064, Note_on_c, 1, 76, 50
4, 96094, Note_on_c, 1, 76, 0
4, 96096, Note_on_c, 1, 75, 50
4, 96126, Note_on_c, 1, 75, 0
4, 96128, Note_on_c, 1, 76, 42
4, 96158, Note_on_c, 1, 76, 0
4, 96160, Note_on_c, 1, 75, 42
4, 96190, Note_on_c, 1, 75, 0
4, 96192, Note_on_c, 1, 76, 45
4, 96222, Note_on_c, 1, 76, 0
4, 96224, Note_on_c, 1, 75, 49
4, 96254, Note_on_c, 1, 75, 0
4, 96256, Note_on_c, 1, 76, 59
4, 96286, Note_on_c, 1, 76, 0
4, 96288, Note_on_c, 1, 74, 64
4, 96334, Note_on_c, 1, 74, 0
4, 96336, Note_on_c, 1, 75, 72
4, 96384, Note_on_c, 1, 75, 0
4, 96480, Note_on_c, 1, 75, 42
4, 96510, Note_on_c, 1, 75, 0
4, 96512, Note_on_c, 1, 76, 45
4, 96542, Note_on_c, 1, 76, 0
4, 96544, Note_on_c, 1, 75, 47
4, 96574, Note_on_c, 1, 75, 0
4, 96576, Note_on_c, 1, 76, 44
4, 96606, Note_on_c, 1, 76, 0
4, 96608, Note_on_c, 1, 75, 40
4, 96638, Note_on_c, 1, 75, 0
4, 96640, Note_on_c, 1, 76, 47
4, 96670, Note_on_c, 1, 76, 0
4, 96672, Note_on_c, 1, 75, 48
4, 96702, Note_on_c, 1, 75, 0
4, 96704, Note_on_c, 1, 76, 49
4, 96734, Note_on_c, 1, 76, 0
4, 96736, Note_on_c, 1, 75, 48
4, 96766, Note_on_c, 1, 75, 0
4, 96768, Note_on_c, 1, 76, 48
4, 96798, Note_on_c, 1, 76, 0
4, 96800, Note_on_c, 1, 75, 48
4, 96830, Note_on_c, 1, 75, 0
4, 96832, Note_on_c, 1, 76, 57
4, 96862, Note_on_c, 1, 76, 0
4, 96864, Note_on_c, 1, 74, 62
4, 96910, Note_on_c, 1, 74, 0
4, 96912, Note_on_c, 1, 75, 76
4, 96960, Note_on_c, 1, 75, 0
4, 97056, Note_on_c, 1, 75, 48
4, 97310, Note_on_c, 1, 75, 0
4, 97312, Note_on_c, 1, 76, 49
4, 97374, Note_on_c, 1, 76, 0
4, 97376, Note_on_c, 1, 78, 51
4, 97418, Note_on_c, 1, 78, 0
4, 97440, Note_on_c, 1, 78, 47
4, 97482, Note_on_c, 1, 78, 0
4, 97504, Note_on_c, 1, 76, 52
4, 97566, Note_on_c, 1, 76, 0
4, 97568, Note_on_c, 1, 75, 50
4, 97630, Note_on_c, 1, 75, 0
4, 97632, Note_on_c, 1, 75, 53
4, 97646, Note_on_c, 1, 75, 0
4, 97648, Note_on_c, 1, 73, 55
4, 97694, Note_on_c, 1, 73, 0
4, 97696, Note_on_c, 1, 71, 59
4, 97738, Note_on_c, 1, 71, 0
4, 97760, Note_on_c, 1, 71, 55
4, 97802, Note_on_c, 1, 71, 0
4, 97824, Note_on_c, 1, 71, 64
4, 97886, Note_on_c, 1, 71, 0
4, 97888, Note_on_c, 1, 70, 60
4, 97930, Note_on_c, 1, 70, 0
4, 97952, Note_on_c, 1, 70, 61
4, 97994, Note_on_c, 1, 70, 0
4, 98016, Note_on_c, 1, 68, 65
4, 98030, Note_on_c, 1, 68, 0
4, 98032, Note_on_c, 1, 70, 64
4, 98078, Note_on_c, 1, 70, 0
4, 98080, Note_on_c, 1, 71, 67
4, 98142, Note_on_c, 1, 71, 0
4, 98144, Note_on_c, 1, 73, 75
4, 98206, Note_on_c, 1, 73, 0
4, 98208, Note_on_c, 1, 75, 45
4, 98238, Note_on_c, 1, 75, 0
4, 98240, Note_on_c, 1, 76, 46
4, 98270, Note_on_c, 1, 76, 0
4, 98272, Note_on_c, 1, 75, 41
4, 98302, Note_on_c, 1, 75, 0
4, 98304, Note_on_c, 1, 76, 41
4, 98334, Note_on_c, 1, 76, 0
4, 98336, Note_on_c, 1, 75, 47
4, 98366, Note_on_c, 1, 75, 0
4, 98368, Note_on_c, 1, 76, 47
4, 98398, Note_on_c, 1, 76, 0
4, 98400, Note_on_c, 1, 75, 46
4, 98430, Note_on_c, 1, 75, 0
4, 98432, Note_on_c, 1, 76, 45
4, 98462, Note_on_c, 1, 76, 0
4, 98464, Note_on_c, 1, 75, 49
4, 98494, Note_on_c, 1, 75, 0
4, 98496, Note_on_c, 1, 76, 50
4, 98526, Note_on_c, 1, 76, 0
4, 98528, Note_on_c, 1, 75, 55
4, 98558, Note_on_c, 1, 75, 0
4, 98560, Note_on_c, 1, 76, 54
4, 98590, Note_on_c, 1, 76, 0
4, 98592, Note_on_c, 1, 74, 62
4, 98638, Note_on_c, 1, 74, 0
4, 98640, Note_on_c, 1, 75, 76
4, 98688, Note_on_c, 1, 75, 0
4, 98784, Note_on_c, 1, 75, 44
4, 98814, Note_on_c, 1, 75, 0
4, 98816, Note_on_c, 1, 76, 41
4, 98846, Note_on_c, 1, 76, 0
4, 98848, Note_on_c, 1, 75, 50
4, 98878, Note_on_c, 1, 75, 0
4, 98880, Note_on_c, 1, 76, 46
4, 98910, Note_on_c, 1, 76, 0
4, 98912, Note_on_c, 1, 75, 40
4, 98942, Note_on_c, 1, 75, 0
4, 98944, Note_on_c, 1, 76, 41
4, 98974, Note_on_c, 1, 76, 0
4, 98976, Note_on_c, 1, 75, 48
4, 99006, Note_on_c, 1, 75, 0
4, 99008, Note_on_c, 1, 76, 46
4, 99038, Note_on_c, 1, 76, 0
4, 99040, Note_on_c, 1, 75, 47
4, 99070, Note_on_c, 1, 75, 0
4, 99072, Note_on_c, 1, 76, 43
4, 99102, Note_on_c, 1, 76, 0
4, 99104, Note_on_c, 1, 75, 56
4, 99134, Note_on_c, 1, 75, 0
4, 99136, Note_on_c, 1, 76, 55
4, 99166, Note_on_c, 1, 76, 0
4, 99168, Note_on_c, 1, 74, 64
4, 99214, Note_on_c, 1, 74, 0
4, 99216, Note_on_c, 1, 75, 75
4, 99264, Note_on_c, 1, 75, 0
4, 99360, Note_on_c, 1, 75, 48
4, 99614, Note_on_c, 1, 75, 0
4, 99616, Note_on_c, 1, 76, 51
4, 99678, Note_on_c, 1, 76, 0
4, 99680, Note_on_c, 1, 78, 52
4, 99722, Note_on_c, 1, 78, 0
4, 99744, Note_on_c, 1, 78, 55
4, 99786, Note_on_c, 1, 78, 0
4, 99808, Note_on_c, 1, 76, 48
4, 99870, Note_on_c, 1, 76, 0
4, 99872, Note_on_c, 1, 75, 53
4, 99934, Note_on_c, 1, 75, 0
4, 99936, Note_on_c, 1, 75, 60
4, 99950, Note_on_c, 1, 75, 0
4, 99952, Note_on_c, 1, 73, 58
4, 99998, Note_on_c, 1, 73, 0
4, 100000, Note_on_c, 1, 71, 54
4, 100042, Note_on_c, 1, 71, 0
4, 100064, Note_on_c, 1, 71, 62
4, 100106, Note_on_c, 1, 71, 0
4, 100128, Note_on_c, 1, 71, 59
4, 100190, Note_on_c, 1, 71, 0
4, 100192, Note_on_c, 1, 70, 62
4, 100234, Note_on_c, 1, 70, 0
4, 100256, Note_on_c, 1, 70, 66
4, 100298, Note_on_c, 1, 70, 0
4, 100320, Note_on_c, 1, 68, 67
4, 100334, Note_on_c, 1, 68, 0
4, 100336, Note_on_c, 1, 70, 64
4, 100382, Note_on_c, 1, 70, 0
4, 100384, Note_on_c, 1, 71, 76
4, 100446, Note_on_c, 1, 71, 0
4, 100448, Note_on_c, 1, 73, 73
4, 100510, Note_on_c, 1, 73, 0
4, 101088, Control_c, 1, 11, 127
4, 101664, Note_on_c, 1, 75, 41
4, 101726, Note_on_c, 1, 75, 0
4, 101728, Note_on_c, 1, 76, 59
4, 101790, Note_on_c, 1, 76, 0
4, 101792, Note_on_c, 1, 78, 60
4, 101854, Note_on_c, 1, 78, 0
4, 101856, Note_on_c, 1, 83, 80
4, 101888, Note_on_c, 1, 83, 0
4, 102240, Note_on_c, 1, 78, 40
4, 102302, Note_on_c, 1, 78, 0
4, 102304, Note_on_c, 1, 80, 51
4, 102366, Note_on_c, 1, 80, 0
4, 102368, Note_on_c, 1, 81, 63
4, 102430, Note_on_c, 1, 81, 0
4, 102432, Note_on_c, 1, 87, 71
4, 102464, Note_on_c, 1, 87, 0
4, 104544, Note_on_c, 1, 78, 48
4, 104544, Note_on_c, 1, 81, 41
4, 104586, Note_on_c, 1, 78, 0
4, 104586, Note_on_c, 1, 81, 0
4, 104608, Note_on_c, 1, 76, 46
4, 104608, Note_on_c, 1, 80, 49
4, 104650, Note_on_c, 1, 76, 0
4, 104650, Note_on_c, 1, 80, 0
4, 104672, Note_on_c, 1, 74, 47
4, 104672, Note_on_c, 1, 78, 47
4, 104714, Note_on_c, 1, 74, 0
4, 104714, Note_on_c, 1, 78, 0
4, 104736, Note_on_c, 1, 73, 48
4, 104736, Note_on_c, 1, 76, 49
4, 104778, Note_on_c, 1, 73, 0
4, 104778, Note_on_c, 1, 76, 0
4, 104800, Note_on_c, 1, 71, 54
4, 104800, Note_on_c, 1, 74, 52
4, 104842, Note_on_c, 1, 71, 0
4, 104842, Note_on_c, 1, 74, 0
4, 104864, Note_on_c, 1, 69, 60
4, 104864, Note_on_c, 1, 73, 62
4, 104906, Note_on_c, 1, 69, 0
4, 104906, Note_on_c, 1, 73, 0
4, 104928, Note_on_c, 1, 68, 63
4, 104928, Note_on_c, 1, 71, 68
4, 104970, Note_on_c, 1, 68, 0
4, 104970, Note_on_c, 1, 71, 0
4, 104992, Note_on_c, 1, 66, 65
4, 104992, Note_on_c, 1, 69, 63
4, 105034, Note_on_c, 1, 66, 0
4, 105034, Note_on_c, 1, 69, 0
4, 105056, Note_on_c, 1, 64, 76
4, 105056, Note_on_c, 1, 68, 75
4, 105098, Note_on_c, 1, 64, 0
4, 105098, Note_on_c, 1, 68, 0
4, 105120, Note_on_c, 1, 62, 76
4, 105120, Note_on_c, 1, 66, 70
4, 105152, Note_on_c, 1, 62, 0
4, 105152, Note_on_c, 1, 66, 0
4, 106848, Note_on_c, 1, 78, 50
4, 106848, Note_on_c, 1, 81, 44
4, 106890, Note_on_c, 1, 78, 0
4, 106890, Note_on_c, 1, 81, 0
4, 106912, Note_on_c, 1, 76, 43
4, 106912, Note_on_c, 1, 80, 40
4, 106954, Note_on_c, 1, 76, 0
4, 106954, Note_on_c, 1, 80, 0
4, 106976, Note_on_c, 1, 74, 43
4, 106976, Note_on_c, 1, 78, 52
4, 107018, Note_on_c, 1, 74, 0
4, 107018, Note_on_c, 1, 78, 0
4, 107040, Note_on_c, 1, 73, 52
4, 107040, Note_on_c, 1, 76, 51
4, 107082, Note_on_c, 1, 73, 0
4, 107082, Note_on_c, 1, 76, 0
4, 107104, Note_on_c, 1, 71, 51
4, 107104, Note_on_c, 1, 74, 54
4, 107146, Note_on_c, 1, 71, 0
4, 107146, Note_on_c, 1, 74, 0
4, 107168, Note_on_c, 1, 69, 59
4, 107168, Note_on_c, 1, 73, 60
4, 107210, Note_on_c, 1, 69, 0
4, 107210, Note_on_c, 1, 73, 0
4, 107232, Note_on_c, 1, 68, 60
4, 107232, Note_on_c, 1, 71, 65
4, 107274, Note_on_c, 1, 68, 0
4, 107274, Note_on_c, 1, 71, 0
4, 107296, Note_on_c, 1, 66, 65
4, 107296, Note_on_c, 1, 69, 64
4, 107338, Note_on_c, 1, 66, 0
4, 107338, Note_on_c, 1, 69, 0
4, 107360, Note_on_c, 1, 64, 73
4, 107360, Note_on_c, 1, 68, 66
4, 107402, Note_on_c, 1, 64, 0
4, 107402, Note_on_c, 1, 68, 0
4, 107424, Note_on_c, 1, 63, 78
4, 107424, Note_on_c, 1, 66, 70
4, 107456, Note_on_c, 1, 63, 0
4, 107456, Note_on_c, 1, 66, 0
4, 108192, Note_on_c, 1, 73, 76
4, 108192, Note_on_c, 1, 77, 74
4, 108312, Note_on_c, 1, 73, 0
4, 108312, Note_on_c, 1, 77, 0
4, 108384, Note_on_c, 1, 70, 71
4, 108384, Note_on_c, 1, 73, 73
4, 108504, Note_on_c, 1, 70, 0
4, 108504, Note_on_c, 1, 73, 0
4, 108576, Note_on_c, 1, 68, 63
4, 108576, Note_on_c, 1, 72, 70
4, 108696, Note_on_c, 1, 68, 0
4, 108696, Note_on_c, 1, 72, 0
4, 108768, Note_on_c, 1, 65, 57
4, 108768, Note_on_c, 1, 68, 50
4, 108888, Note_on_c, 1, 65, 0
4, 108888, Note_on_c, 1, 68, 0
4, 108960, Note_on_c, 1, 63, 49
4, 108960, Note_on_c, 1, 66, 50
4, 109008, Note_on_c, 1, 63, 0
4, 109008, Note_on_c, 1, 66, 0
4, 109216, Note_on_c, 1, 63, 79
4, 109216, Note_on_c, 1, 66, 73
4, 109280, Note_on_c, 1, 63, 0
4, 109280, Note_on_c, 1, 66, 0
4, 109280, Note_on_c, 1, 65, 71
4, 109280, Note_on_c, 1, 68, 79
4, 109344, Note_on_c, 1, 65, 0
4, 109344, Note_on_c, 1, 68, 0
4, 109344, Note_on_c, 1, 68, 80
4, 109344, Note_on_c, 1, 72, 72
4, 109386, Note_on_c, 1, 68, 0
4, 109386, Note_on_c, 1, 72, 0
4, 109408, Note_on_c, 1, 68, 79
4, 109408, Note_on_c, 1, 72, 84
4, 109472, Note_on_c, 1, 68, 0
4, 109472, Note_on_c, 1, 72, 0
4, 109472, Note_on_c, 1, 70, 80
4, 109472, Note_on_c, 1, 73, 83
4, 109536, Note_on_c, 1, 70, 0
4, 109536, Note_on_c, 1, 73, 0
4, 109536, Note_on_c, 1, 73, 79
4, 109536, Note_on_c, 1, 77, 88
4, 109578, Note_on_c, 1, 73, 0
4, 109578, Note_on_c, 1, 77, 0
4, 109600, Note_on_c, 1, 73, 89
4, 109600, Note_on_c, 1, 77, 88
4, 109664, Note_on_c, 1, 73, 0
4, 109664, Note_on_c, 1, 77, 0
4, 109664, Note_on_c, 1, 75, 89
4, 109664, Note_on_c, 1, 78, 84
4, 109728, Note_on_c, 1, 75, 0
4, 109728, Note_on_c, 1, 78, 0
4, 109728, Note_on_c, 1, 77, 95
4, 109728, Note_on_c, 1, 80, 90
4, 109760, Note_on_c, 1, 77, 0
4, 109760, Note_on_c, 1, 80, 0
4, 109920, Control_c, 1, 7, 92
4, 110112, Note_on_c, 1, 80, 88
4, 110112, Note_on_c, 1, 83, 92
4, 110174, Note_on_c, 1, 80, 0
4, 110174, Note_on_c, 1, 83, 0
4, 110176, Note_on_c, 1, 80, 95
4, 110176, Note_on_c, 1, 83, 94
4, 110238, Note_on_c, 1, 80, 0
4, 110238, Note_on_c, 1, 83, 0
4, 110240, Note_on_c, 1, 80, 97
4, 110240, Note_on_c, 1, 83, 100
4, 110302, Note_on_c, 1, 80, 0
4, 110302, Note_on_c, 1, 83, 0
4, 110304, Note_on_c, 1, 80, 96
4, 110304, Note_on_c, 1, 83, 99
4, 110346, Note_on_c, 1, 80, 0
4, 110346, Note_on_c, 1, 83, 0
4, 110368, Note_on_c, 1, 80, 98
4, 110368, Note_on_c, 1, 83, 97
4, 110410, Note_on_c, 1, 80, 0
4, 110410, Note_on_c, 1, 83, 0
4, 110432, Note_on_c, 1, 80, 101
4, 110432, Note_on_c, 1, 83, 103
4, 110474, Note_on_c, 1, 80, 0
4, 110474, Note_on_c, 1, 83, 0
4, 110496, Note_on_c, 1, 77, 111
4, 110496, Note_on_c, 1, 80, 110
4, 110528, Note_on_c, 1, 77, 0
4, 110528, Note_on_c, 1, 80, 0
4, 111264, Note_on_c, 1, 80, 90
4, 111264, Note_on_c, 1, 84, 92
4, 111306, Note_on_c, 1, 80, 0
4, 111306, Note_on_c, 1, 84, 0
4, 111328, Note_on_c, 1, 80, 95
4, 111328, Note_on_c, 1, 84, 96
4, 111370, Note_on_c, 1, 80, 0
4, 111370, Note_on_c, 1, 84, 0
4, 111392, Note_on_c, 1, 80, 98
4, 111392, Note_on_c, 1, 84, 89
4, 111434, Note_on_c, 1, 80, 0
4, 111434, Note_on_c, 1, 84, 0
4, 111456, Note_on_c, 1, 77, 92
4, 111456, Note_on_c, 1, 83, 98
4, 111498, Note_on_c, 1, 77, 0
4, 111498, Note_on_c, 1, 83, 0
4, 111520, Note_on_c, 1, 77, 96
4, 111520, Note_on_c, 1, 83, 98
4, 111562, Note_on_c, 1, 77, 0
4, 111562, Note_on_c, 1, 83, 0
4, 111584, Note_on_c, 1, 77, 98
4, 111584, Note_on_c, 1, 83, 98
4, 111626, Note_on_c, 1, 77, 0
4, 111626, Note_on_c, 1, 83, 0
4, 111648, Note_on_c, 1, 80, 102
4, 111648, Note_on_c, 1, 83, 101
4, 111690, Note_on_c, 1, 80, 0
4, 111690, Note_on_c, 1, 83, 0
4, 111712, Note_on_c, 1, 80, 98
4, 111712, Note_on_c, 1, 83, 102
4, 111754, Note_on_c, 1, 80, 0
4, 111754, Note_on_c, 1, 83, 0
4, 111776, Note_on_c, 1, 80, 104
4, 111776, Note_on_c, 1, 83, 99
4, 111818, Note_on_c, 1, 80, 0
4, 111818, Note_on_c, 1, 83, 0
4, 111840, Note_on_c, 1, 77, 97
4, 111840, Note_on_c, 1, 83, 104
4, 111882, Note_on_c, 1, 77, 0
4, 111882, Note_on_c, 1, 83, 0
4, 111904, Note_on_c, 1, 77, 105
4, 111904, Note_on_c, 1, 83, 107
4, 111946, Note_on_c, 1, 77, 0
4, 111946, Note_on_c, 1, 83, 0
4, 111968, Note_on_c, 1, 77, 109
4, 111968, Note_on_c, 1, 83, 104
4, 112010, Note_on_c, 1, 77, 0
4, 112010, Note_on_c, 1, 83, 0
4, 112032, Note_on_c, 1, 78, 109
4, 112032, Note_on_c, 1, 82, 107
4, 112064, Note_on_c, 1, 78, 0
4, 112064, Note_on_c, 1, 82, 0
4, 112224, Note_on_c, 1, 80, 97
4, 112224, Note_on_c, 1, 84, 89
4, 112480, Note_on_c, 1, 80, 0
4, 112480, Note_on_c, 1, 84, 0
4, 112512, Note_on_c, 1, 77, 91
4, 112512, Note_on_c, 1, 80, 96
4, 112606, Note_on_c, 1, 77, 0
4, 112606, Note_on_c, 1, 80, 0
4, 112608, Note_on_c, 1, 75, 90
4, 112608, Note_on_c, 1, 78, 90
4, 112728, Note_on_c, 1, 75, 0
4, 112728, Note_on_c, 1, 78, 0
4, 112800, Note_on_c, 1, 77, 91
4, 112800, Note_on_c, 1, 80, 96
4, 112920, Note_on_c, 1, 77, 0
4, 112920, Note_on_c, 1, 80, 0
4, 112992, Note_on_c, 1, 73, 90
4, 112992, Note_on_c, 1, 77, 96
4, 113112, Note_on_c, 1, 73, 0
4, 113112, Note_on_c, 1, 77, 0
4, 113184, Note_on_c, 1, 72, 87
4, 113184, Note_on_c, 1, 75, 86
4, 113304, Note_on_c, 1, 72, 0
4, 113304, Note_on_c, 1, 75, 0
4, 113376, Note_on_c, 1, 68, 73
4, 113376, Note_on_c, 1, 72, 75
4, 113496, Note_on_c, 1, 68, 0
4, 113496, Note_on_c, 1, 72, 0
4, 113568, Note_on_c, 1, 66, 64
4, 113568, Note_on_c, 1, 70, 64
4, 113616, Note_on_c, 1, 66, 0
4, 113616, Note_on_c, 1, 70, 0
4, 113824, Note_on_c, 1, 63, 93
4, 113824, Note_on_c, 1, 66, 90
4, 113888, Note_on_c, 1, 63, 0
4, 113888, Note_on_c, 1, 66, 0
4, 113888, Note_on_c, 1, 65, 89
4, 113888, Note_on_c, 1, 68, 95
4, 113952, Note_on_c, 1, 65, 0
4, 113952, Note_on_c, 1, 68, 0
4, 113952, Note_on_c, 1, 68, 99
4, 113952, Note_on_c, 1, 72, 95
4, 113994, Note_on_c, 1, 68, 0
4, 113994, Note_on_c, 1, 72, 0
4, 114016, Note_on_c, 1, 68, 101
4, 114016, Note_on_c, 1, 72, 92
4, 114080, Note_on_c, 1, 68, 0
4, 114080, Note_on_c, 1, 72, 0
4, 114080, Note_on_c, 1, 70, 101
4, 114080, Note_on_c, 1, 73, 101
4, 114144, Note_on_c, 1, 70, 0
4, 114144, Note_on_c, 1, 73, 0
4, 114144, Note_on_c, 1, 73, 102
4, 114144, Note_on_c, 1, 77, 100
4, 114186, Note_on_c, 1, 73, 0
4, 114186, Note_on_c, 1, 77, 0
4, 114208, Note_on_c, 1, 73, 104
4, 114208, Note_on_c, 1, 77, 105
4, 114272, Note_on_c, 1, 73, 0
4, 114272, Note_on_c, 1, 77, 0
4, 114272, Note_on_c, 1, 75, 107
4, 114272, Note_on_c, 1, 78, 110
4, 114336, Note_on_c, 1, 75, 0
4, 114336, Note_on_c, 1, 78, 0
4, 114336, Note_on_c, 1, 80, 105
4, 114336, Note_on_c, 1, 84, 108
4, 114368, Note_on_c, 1, 80, 0
4, 114368, Note_on_c, 1, 84, 0
4, 114912, Note_on_c, 1, 74, 91
4, 114912, Note_on_c, 1, 84, 88
4, 114954, Note_on_c, 1, 74, 0
4, 114954, Note_on_c, 1, 84, 0
4, 114976, Note_on_c, 1, 74, 90
4, 114976, Note_on_c, 1, 84, 91
4, 115018, Note_on_c, 1, 74, 0
4, 115018, Note_on_c, 1, 84, 0
4, 115040, Note_on_c, 1, 74, 92
4, 115040, Note_on_c, 1, 84, 97
4, 115082, Note_on_c, 1, 74, 0
4, 115082, Note_on_c, 1, 84, 0
4, 115104, Note_on_c, 1, 74, 92
4, 115104, Note_on_c, 1, 84, 96
4, 115136, Note_on_c, 1, 74, 0
4, 115136, Note_on_c, 1, 84, 0
4, 115296, Note_on_c, 1, 74, 107
4, 115296, Note_on_c, 1, 84, 100
4, 115338, Note_on_c, 1, 74, 0
4, 115338, Note_on_c, 1, 84, 0
4, 115360, Note_on_c, 1, 74, 99
4, 115360, Note_on_c, 1, 84, 101
4, 115402, Note_on_c, 1, 74, 0
4, 115402, Note_on_c, 1, 84, 0
4, 115424, Note_on_c, 1, 74, 102
4, 115424, Note_on_c, 1, 84, 106
4, 115466, Note_on_c, 1, 74, 0
4, 115466, Note_on_c, 1, 84, 0
4, 115488, Note_on_c, 1, 74, 109
4, 115488, Note_on_c, 1, 82, 107
4, 115520, Note_on_c, 1, 74, 0
4, 115520, Note_on_c, 1, 82, 0
4, 116064, Note_on_c, 1, 72, 96
4, 116064, Note_on_c, 1, 74, 90
4, 116106, Note_on_c, 1, 72, 0
4, 116106, Note_on_c, 1, 74, 0
4, 116128, Note_on_c, 1, 72, 91
4, 116128, Note_on_c, 1, 74, 94
4, 116170, Note_on_c, 1, 72, 0
4, 116170, Note_on_c, 1, 74, 0
4, 116192, Note_on_c, 1, 72, 98
4, 116192, Note_on_c, 1, 74, 89
4, 116234, Note_on_c, 1, 72, 0
4, 116234, Note_on_c, 1, 74, 0
4, 116256, Note_on_c, 1, 72, 91
4, 116256, Note_on_c, 1, 74, 101
4, 116288, Note_on_c, 1, 72, 0
4, 116288, Note_on_c, 1, 74, 0
4, 116448, Note_on_c, 1, 74, 103
4, 116448, Note_on_c, 1, 77, 101
4, 116490, Note_on_c, 1, 74, 0
4, 116490, Note_on_c, 1, 77, 0
4, 116512, Note_on_c, 1, 74, 109
4, 116512, Note_on_c, 1, 77, 105
4, 116554, Note_on_c, 1, 74, 0
4, 116554, Note_on_c, 1, 77, 0
4, 116576, Note_on_c, 1, 74, 110
4, 116576, Note_on_c, 1, 77, 104
4, 116618, Note_on_c, 1, 74, 0
4, 116618, Note_on_c, 1, 77, 0
4, 116640, Note_on_c, 1, 77, 105
4, 116640, Note_on_c, 1, 80, 106
4, 116662, Note_on_c, 1, 77, 0
4, 116662, Note_on_c, 1, 80, 0
4, 116664, Note_on_c, 1, 76, 108
4, 116664, Note_on_c, 1, 79, 112
4, 116686, Note_on_c, 1, 76, 0
4, 116686, Note_on_c, 1, 79, 0
4, 116688, Note_on_c, 1, 77, 103
4, 116688, Note_on_c, 1, 80, 112
4, 116710, Note_on_c, 1, 77, 0
4, 116710, Note_on_c, 1, 80, 0
4, 116712, Note_on_c, 1, 76, 111
4, 116712, Note_on_c, 1, 79, 108
4, 116734, Note_on_c, 1, 76, 0
4, 116734, Note_on_c, 1, 79, 0
4, 116736, Note_on_c, 1, 77, 108
4, 116736, Note_on_c, 1, 80, 110
4, 116758, Note_on_c, 1, 77, 0
4, 116758, Note_on_c, 1, 80, 0
4, 116760, Note_on_c, 1, 76, 109
4, 116760, Note_on_c, 1, 79, 105
4, 116782, Note_on_c, 1, 76, 0
4, 116782, Note_on_c, 1, 79, 0
4, 116784, Note_on_c, 1, 77, 104
4, 116784, Note_on_c, 1, 80, 103
4, 116806, Note_on_c, 1, 77, 0
4, 116806, Note_on_c, 1, 80, 0
4, 116808, Note_on_c, 1, 76, 103
4, 116808, Note_on_c, 1, 79, 113
4, 116830, Note_on_c, 1, 76, 0
4, 116830, Note_on_c, 1, 79, 0
4, 116832, Note_on_c, 1, 77, 104
4, 116832, Note_on_c, 1, 80, 105
4, 116854, Note_on_c, 1, 77, 0
4, 116854, Note_on_c, 1, 80, 0
4, 116856, Note_on_c, 1, 76, 105
4, 116856, Note_on_c, 1, 79, 105
4, 116878, Note_on_c, 1, 76, 0
4, 116878, Note_on_c, 1, 79, 0
4, 116880, Note_on_c, 1, 77, 113
4, 116880, Note_on_c, 1, 80, 103
4, 116902, Note_on_c, 1, 77, 0
4, 116902, Note_on_c, 1, 80, 0
4, 116904, Note_on_c, 1, 76, 110
4, 116904, Note_on_c, 1, 79, 113
4, 116926, Note_on_c, 1, 76, 0
4, 116926, Note_on_c, 1, 79, 0
4, 116928, Note_on_c, 1, 77, 111
4, 116928, Note_on_c, 1, 80, 104
4, 116950, Note_on_c, 1, 77, 0
4, 116950, Note_on_c, 1, 80, 0
4, 116952, Note_on_c, 1, 76, 111
4, 116952, Note_on_c, 1, 79, 111
4, 116974, Note_on_c, 1, 76, 0
4, 116974, Note_on_c, 1, 79, 0
4, 116976, Note_on_c, 1, 77, 111
4, 116976, Note_on_c, 1, 80, 110
4, 116998, Note_on_c, 1, 77, 0
4, 116998, Note_on_c, 1, 80, 0
4, 117000, Note_on_c, 1, 76, 113
4, 117000, Note_on_c, 1, 79, 111
4, 117022, Note_on_c, 1, 76, 0
4, 117022, Note_on_c, 1, 79, 0
4, 117024, Note_on_c, 1, 77, 105
4, 117024, Note_on_c, 1, 80, 108
4, 117046, Note_on_c, 1, 77, 0
4, 117046, Note_on_c, 1, 80, 0
4, 117048, Note_on_c, 1, 76, 105
4, 117048, Note_on_c, 1, 79, 105
4, 117070, Note_on_c, 1, 76, 0
4, 117070, Note_on_c, 1, 79, 0
4, 117072, Note_on_c, 1, 77, 108
4, 117072, Note_on_c, 1, 80, 106
4, 117094, Note_on_c, 1, 77, 0
4, 117094, Note_on_c, 1, 80, 0
4, 117096, Note_on_c, 1, 76, 107
4, 117096, Note_on_c, 1, 79, 109
4, 117118, Note_on_c, 1, 76, 0
4, 117118, Note_on_c, 1, 79, 0
4, 117120, Note_on_c, 1, 77, 111
4, 117120, Note_on_c, 1, 80, 111
4, 117142, Note_on_c, 1, 77, 0
4, 117142, Note_on_c, 1, 80, 0
4, 117144, Note_on_c, 1, 76, 113
4, 117144, Note_on_c, 1, 79, 111
4, 117166, Note_on_c, 1, 76, 0
4, 117166, Note_on_c, 1, 79, 0
4, 117168, Note_on_c, 1, 77, 109
4, 117168, Note_on_c, 1, 80, 103
4, 117190, Note_on_c, 1, 77, 0
4, 117190, Note_on_c, 1, 80, 0
4, 117192, Note_on_c, 1, 76, 108
4, 117192, Note_on_c, 1, 79, 112
4, 117214, Note_on_c, 1, 76, 0
4, 117214, Note_on_c, 1, 79, 0
4, 117216, Note_on_c, 1, 77, 108
4, 117216, Note_on_c, 1, 80, 104
4, 117238, Note_on_c, 1, 77, 0
4, 117238, Note_on_c, 1, 80, 0
4, 117240, Note_on_c, 1, 76, 109
4, 117240, Note_on_c, 1, 79, 107
4, 117262, Note_on_c, 1, 76, 0
4, 117262, Note_on_c, 1, 79, 0
4, 117264, Note_on_c, 1, 77, 109
4, 117264, Note_on_c, 1, 80, 113
4, 117286, Note_on_c, 1, 77, 0
4, 117286, Note_on_c, 1, 80, 0
4, 117288, Note_on_c, 1, 76, 105
4, 117288, Note_on_c, 1, 79, 108
4, 117310, Note_on_c, 1, 76, 0
4, 117310, Note_on_c, 1, 79, 0
4, 117312, Note_on_c, 1, 77, 113
4, 117312, Note_on_c, 1, 80, 111
4, 117334, Note_on_c, 1, 77, 0
4, 117334, Note_on_c, 1, 80, 0
4, 117336, Note_on_c, 1, 76, 109
4, 117336, Note_on_c, 1, 79, 106
4, 117358, Note_on_c, 1, 76, 0
4, 117358, Note_on_c, 1, 79, 0
4, 117360, Note_on_c, 1, 77, 105
4, 117360, Note_on_c, 1, 80, 111
4, 117382, Note_on_c, 1, 77, 0
4, 117382, Note_on_c, 1, 80, 0
4, 117384, Note_on_c, 1, 76, 105
4, 117384, Note_on_c, 1, 79, 108
4, 117406, Note_on_c, 1, 76, 0
4, 117406, Note_on_c, 1, 79, 0
4, 117408, Note_on_c, 1, 77, 111
4, 117408, Note_on_c, 1, 80, 106
4, 117430, Note_on_c, 1, 77, 0
4, 117430, Note_on_c, 1, 80, 0
4, 117432, Note_on_c, 1, 76, 109
4, 117432, Note_on_c, 1, 79, 113
4, 117454, Note_on_c, 1, 76, 0
4, 117454, Note_on_c, 1, 79, 0
4, 117456, Note_on_c, 1, 77, 108
4, 117456, Note_on_c, 1, 80, 104
4, 117478, Note_on_c, 1, 77, 0
4, 117478, Note_on_c, 1, 80, 0
4, 117480, Note_on_c, 1, 76, 111
4, 117480, Note_on_c, 1, 79, 109
4, 117502, Note_on_c, 1, 76, 0
4, 117502, Note_on_c, 1, 79, 0
4, 117504, Note_on_c, 1, 77, 109
4, 117504, Note_on_c, 1, 80, 105
4, 117526, Note_on_c, 1, 77, 0
4, 117526, Note_on_c, 1, 80, 0
4, 117528, Note_on_c, 1, 76, 112
4, 117528, Note_on_c, 1, 79, 103
4, 117550, Note_on_c, 1, 76, 0
4, 117550, Note_on_c, 1, 79, 0
4, 117552, Note_on_c, 1, 77, 111
4, 117552, Note_on_c, 1, 80, 106
4, 117574, Note_on_c, 1, 77, 0
4, 117574, Note_on_c, 1, 80, 0
4, 117576, Note_on_c, 1, 76, 113
4, 117576, Note_on_c, 1, 79, 109
4, 117598, Note_on_c, 1, 76, 0
4, 117598, Note_on_c, 1, 79, 0
4, 117600, Note_on_c, 1, 77, 107
4, 117600, Note_on_c, 1, 80, 104
4, 117622, Note_on_c, 1, 77, 0
4, 117622, Note_on_c, 1, 80, 0
4, 117624, Note_on_c, 1, 76, 104
4, 117624, Note_on_c, 1, 79, 103
4, 117646, Note_on_c, 1, 76, 0
4, 117646, Note_on_c, 1, 79, 0
4, 117648, Note_on_c, 1, 77, 103
4, 117648, Note_on_c, 1, 80, 103
4, 117670, Note_on_c, 1, 77, 0
4, 117670, Note_on_c, 1, 80, 0
4, 117672, Note_on_c, 1, 76, 111
4, 117672, Note_on_c, 1, 79, 111
4, 117694, Note_on_c, 1, 76, 0
4, 117694, Note_on_c, 1, 79, 0
4, 117696, Note_on_c, 1, 77, 103
4, 117696, Note_on_c, 1, 80, 109
4, 117718, Note_on_c, 1, 77, 0
4, 117718, Note_on_c, 1, 80, 0
4, 117720, Note_on_c, 1, 76, 107
4, 117720, Note_on_c, 1, 79, 110
4, 117742, Note_on_c, 1, 76, 0
4, 117742, Note_on_c, 1, 79, 0
4, 117744, Note_on_c, 1, 77, 113
4, 117744, Note_on_c, 1, 80, 111
4, 117766, Note_on_c, 1, 77, 0
4, 117766, Note_on_c, 1, 80, 0
4, 117768, Note_on_c, 1, 76, 104
4, 117768, Note_on_c, 1, 79, 103
4, 117790, Note_on_c, 1, 76, 0
4, 117790, Note_on_c, 1, 79, 0
4, 117792, Note_on_c, 1, 77, 109
4, 117792, Note_on_c, 1, 80, 104
4, 117814, Note_on_c, 1, 77, 0
4, 117814, Note_on_c, 1, 80, 0
4, 117816, Note_on_c, 1, 76, 113
4, 117816, Note_on_c, 1, 79, 106
4, 117838, Note_on_c, 1, 76, 0
4, 117838, Note_on_c, 1, 79, 0
4, 117840, Note_on_c, 1, 77, 110
4, 117840, Note_on_c, 1, 80, 109
4, 117862, Note_on_c, 1, 77, 0
4, 117862, Note_on_c, 1, 80, 0
4, 117864, Note_on_c, 1, 76, 113
4, 117864, Note_on_c, 1, 79, 107
4, 117886, Note_on_c, 1, 76, 0
4, 117886, Note_on_c, 1, 79, 0
4, 117888, Note_on_c, 1, 77, 103
4, 117888, Note_on_c, 1, 80, 103
4, 117910, Note_on_c, 1, 77, 0
4, 117910, Note_on_c, 1, 80, 0
4, 117912, Note_on_c, 1, 76, 104
4, 117912, Note_on_c, 1, 79, 105
4, 117934, Note_on_c, 1, 76, 0
4, 117934, Note_on_c, 1, 79, 0
4, 117936, Note_on_c, 1, 77, 109
4, 117936, Note_on_c, 1, 80, 105
4, 117958, Note_on_c, 1, 77, 0
4, 117958, Note_on_c, 1, 80, 0
4, 117960, Note_on_c, 1, 76, 106
4, 117960, Note_on_c, 1, 79, 104
4, 117982, Note_on_c, 1, 76, 0
4, 117982, Note_on_c, 1, 79, 0
4, 117984, Note_on_c, 1, 77, 110
4, 117984, Note_on_c, 1, 80, 107
4, 118006, Note_on_c, 1, 77, 0
4, 118006, Note_on_c, 1, 80, 0
4, 118008, Note_on_c, 1, 76, 104
4, 118008, Note_on_c, 1, 79, 105
4, 118030, Note_on_c, 1, 76, 0
4, 118030, Note_on_c, 1, 79, 0
4, 118032, Note_on_c, 1, 77, 107
4, 118032, Note_on_c, 1, 80, 104
4, 118054, Note_on_c, 1, 77, 0
4, 118054, Note_on_c, 1, 80, 0
4, 118056, Note_on_c, 1, 76, 103
4, 118056, Note_on_c, 1, 79, 109
4, 118078, Note_on_c, 1, 76, 0
4, 118078, Note_on_c, 1, 79, 0
4, 118080, Note_on_c, 1, 77, 108
4, 118080, Note_on_c, 1, 80, 112
4, 118102, Note_on_c, 1, 77, 0
4, 118102, Note_on_c, 1, 80, 0
4, 118104, Note_on_c, 1, 76, 108
4, 118104, Note_on_c, 1, 79, 110
4, 118126, Note_on_c, 1, 76, 0
4, 118126, Note_on_c, 1, 79, 0
4, 118128, Note_on_c, 1, 77, 105
4, 118128, Note_on_c, 1, 80, 104
4, 118150, Note_on_c, 1, 77, 0
4, 118150, Note_on_c, 1, 80, 0
4, 118152, Note_on_c, 1, 76, 104
4, 118152, Note_on_c, 1, 79, 113
4, 118174, Note_on_c, 1, 76, 0
4, 118174, Note_on_c, 1, 79, 0
4, 118176, Note_on_c, 1, 77, 109
4, 118176, Note_on_c, 1, 80, 113
4, 118198, Note_on_c, 1, 77, 0
4, 118198, Note_on_c, 1, 80, 0
4, 118200, Note_on_c, 1, 76, 107
4, 118200, Note_on_c, 1, 79, 107
4, 118222, Note_on_c, 1, 76, 0
4, 118222, Note_on_c, 1, 79, 0
4, 118224, Note_on_c, 1, 77, 103
4, 118224, Note_on_c, 1, 80, 111
4, 118246, Note_on_c, 1, 77, 0
4, 118246, Note_on_c, 1, 80, 0
4, 118248, Note_on_c, 1, 76, 106
4, 118248, Note_on_c, 1, 79, 109
4, 118270, Note_on_c, 1, 76, 0
4, 118270, Note_on_c, 1, 79, 0
4, 118272, Note_on_c, 1, 77, 105
4, 118272, Note_on_c, 1, 80, 110
4, 118294, Note_on_c, 1, 77, 0
4, 118294, Note_on_c, 1, 80, 0
4, 118296, Note_on_c, 1, 76, 109
4, 118296, Note_on_c, 1, 79, 112
4, 118318, Note_on_c, 1, 76, 0
4, 118318, Note_on_c, 1, 79, 0
4, 118320, Note_on_c, 1, 77, 104
4, 118320, Note_on_c, 1, 80, 106
4, 118342, Note_on_c, 1, 77, 0
4, 118342, Note_on_c, 1, 80, 0
4, 118344, Note_on_c, 1, 76, 103
4, 118344, Note_on_c, 1, 79, 105
4, 118366, Note_on_c, 1, 76, 0
4, 118366, Note_on_c, 1, 79, 0
4, 118368, Note_on_c, 1, 77, 108
4, 118368, Note_on_c, 1, 80, 107
4, 118390, Note_on_c, 1, 77, 0
4, 118390, Note_on_c, 1, 80, 0
4, 118392, Note_on_c, 1, 76, 111
4, 118392, Note_on_c, 1, 79, 104
4, 118414, Note_on_c, 1, 76, 0
4, 118414, Note_on_c, 1, 79, 0
4, 118416, Note_on_c, 1, 77, 112
4, 118416, Note_on_c, 1, 80, 111
4, 118438, Note_on_c, 1, 77, 0
4, 118438, Note_on_c, 1, 80, 0
4, 118440, Note_on_c, 1, 76, 103
4, 118440, Note_on_c, 1, 79, 105
4, 118462, Note_on_c, 1, 76, 0
4, 118462, Note_on_c, 1, 79, 0
4, 118464, Note_on_c, 1, 77, 103
4, 118464, Note_on_c, 1, 80, 103
4, 118486, Note_on_c, 1, 77, 0
4, 118486, Note_on_c, 1, 80, 0
4, 118488, Note_on_c, 1, 76, 103
4, 118488, Note_on_c, 1, 79, 104
4, 118510, Note_on_c, 1, 76, 0
4, 118510, Note_on_c, 1, 79, 0
4, 118512, Note_on_c, 1, 77, 108
4, 118512, Note_on_c, 1, 80, 104
4, 118534, Note_on_c, 1, 77, 0
4, 118534, Note_on_c, 1, 80, 0
4, 118536, Note_on_c, 1, 76, 110
4, 118536, Note_on_c, 1, 79, 111
4, 118558, Note_on_c, 1, 76, 0
4, 118558, Note_on_c, 1, 79, 0
4, 118560, Note_on_c, 1, 77, 104
4, 118560, Note_on_c, 1, 80, 112
4, 118582, Note_on_c, 1, 77, 0
4, 118582, Note_on_c, 1, 80, 0
4, 118584, Note_on_c, 1, 76, 105
4, 118584, Note_on_c, 1, 79, 109
4, 118606, Note_on_c, 1, 76, 0
4, 118606, Note_on_c, 1, 79, 0
4, 118608, Note_on_c, 1, 77, 108
4, 118608, Note_on_c, 1, 80, 111
4, 118630, Note_on_c, 1, 77, 0
4, 118630, Note_on_c, 1, 80, 0
4, 118632, Note_on_c, 1, 76, 110
4, 118632, Note_on_c, 1, 79, 105
4, 118654, Note_on_c, 1, 76, 0
4, 118654, Note_on_c, 1, 79, 0
4, 118656, Note_on_c, 1, 77, 107
4, 118656, Note_on_c, 1, 80, 109
4, 118678, Note_on_c, 1, 77, 0
4, 118678, Note_on_c, 1, 80, 0
4, 118680, Note_on_c, 1, 76, 113
4, 118680, Note_on_c, 1, 79, 104
4, 118702, Note_on_c, 1, 76, 0
4, 118702, Note_on_c, 1, 79, 0
4, 118704, Note_on_c, 1, 77, 107
4, 118704, Note_on_c, 1, 80, 113
4, 118726, Note_on_c, 1, 77, 0
4, 118726, Note_on_c, 1, 80, 0
4, 118728, Note_on_c, 1, 76, 103
4, 118728, Note_on_c, 1, 79, 111
4, 118750, Note_on_c, 1, 76, 0
4, 118750, Note_on_c, 1, 79, 0
4, 118752, Note_on_c, 1, 77, 113
4, 118752, Note_on_c, 1, 80, 113
4, 118774, Note_on_c, 1, 77, 0
4, 118774, Note_on_c, 1, 80, 0
4, 118776, Note_on_c, 1, 76, 103
4, 118776, Note_on_c, 1, 79, 104
4, 118798, Note_on_c, 1, 76, 0
4, 118798, Note_on_c, 1, 79, 0
4, 118800, Note_on_c, 1, 77, 107
4, 118800, Note_on_c, 1, 80, 105
4, 118822, Note_on_c, 1, 77, 0
4, 118822, Note_on_c, 1, 80, 0
4, 118824, Note_on_c, 1, 76, 107
4, 118824, Note_on_c, 1, 79, 109
4, 118846, Note_on_c, 1, 76, 0
4, 118846, Note_on_c, 1, 79, 0
4, 118848, Note_on_c, 1, 77, 110
4, 118848, Note_on_c, 1, 80, 113
4, 118870, Note_on_c, 1, 77, 0
4, 118870, Note_on_c, 1, 80, 0
4, 118872, Note_on_c, 1, 76, 108
4, 118872, Note_on_c, 1, 79, 104
4, 118894, Note_on_c, 1, 76, 0
4, 118894, Note_on_c, 1, 79, 0
4, 118896, Note_on_c, 1, 77, 105
4, 118896, Note_on_c, 1, 80, 103
4, 118918, Note_on_c, 1, 77, 0
4, 118918, Note_on_c, 1, 80, 0
4, 118920, Note_on_c, 1, 76, 113
4, 118920, Note_on_c, 1, 79, 113
4, 118942, Note_on_c, 1, 76, 0
4, 118942, Note_on_c, 1, 79, 0
4, 118944, Note_on_c, 1, 77, 108
4, 118944, Note_on_c, 1, 80, 108
4, 118976, Note_on_c, 1, 77, 0
4, 118976, Note_on_c, 1, 80, 0
4, 119520, Control_c, 1, 7, 127
4, 122976, Control_c, 1, 11, 127
4, 129312, Control_c, 1, 11, 127
4, 132960, Control_c, 1, 11, 127
4, 132960, Note_on_c, 1, 77, 60
4, 132976, Control_c, 1, 11, 126
4, 132992, Control_c, 1, 11, 125
4, 133009, Control_c, 1, 11, 124
4, 133024, Note_on_c, 1, 77, 0
4, 133024, Note_on_c, 1, 79, 55
4, 133025, Control_c, 1, 11, 123
4, 133042, Control_c, 1, 11, 122
4, 133058, Control_c, 1, 11, 121
4, 133075, Control_c, 1, 11, 120
4, 133088, Note_on_c, 1, 79, 0
4, 133088, Note_on_c, 1, 81, 65
4, 133091, Control_c, 1, 11, 119
4, 133108, Control_c, 1, 11, 118
4, 133124, Control_c, 1, 11, 117
4, 133141, Control_c, 1, 11, 116
4, 133152, Note_on_c, 1, 81, 0
4, 133152, Note_on_c, 1, 83, 56
4, 133157, Control_c, 1, 11, 115
4, 133173, Control_c, 1, 11, 114
4, 133190, Control_c, 1, 11, 113
4, 133206, Control_c, 1, 11, 112
4, 133223, Control_c, 1, 11, 111
4, 133239, Control_c, 1, 11, 110
4, 133256, Control_c, 1, 11, 109
4, 133272, Control_c, 1, 11, 108
4, 133289, Control_c, 1, 11, 107
4, 133305, Control_c, 1, 11, 106
4, 133322, Control_c, 1, 11, 105
4, 133338, Control_c, 1, 11, 104
4, 133354, Control_c, 1, 11, 103
4, 133371, Control_c, 1, 11, 102
4, 133387, Control_c, 1, 11, 101
4, 133404, Control_c, 1, 11, 100
4, 133420, Control_c, 1, 11, 99
4, 133437, Control_c, 1, 11, 98
4, 133453, Control_c, 1, 11, 97
4, 133470, Control_c, 1, 11, 96
4, 133486, Control_c, 1, 11, 95
4, 133503, Control_c, 1, 11, 94
4, 133519, Control_c, 1, 11, 93
4, 133536, Note_on_c, 1, 83, 0
4, 133536, Control_c, 1, 11, 92
4, 133536, Note_on_c, 1, 85, 59
4, 134080, Note_on_c, 1, 85, 0
4, 134080, End_track
5, 0, Start_track
5, 0, Title_t, "Corno inglese"
5, 0, MIDI_port, 0
5, 101, Control_c, 2, 0, 0
5, 102, Control_c, 2, 32, 0
5, 103, Program_c, 2, 69
5, 104, Control_c, 2, 7, 127
5, 105, Control_c, 2, 91, 64
5, 1152, Control_c, 2, 11, 64
5, 1152, Note_on_c, 2, 68, 41
5, 1161, Control_c, 2, 11, 65
5, 1170, Control_c, 2, 11, 66
5, 1179, Control_c, 2, 11, 67
5, 1188, Control_c, 2, 11, 68
5, 1197, Control_c, 2, 11, 69
5, 1206, Control_c, 2, 11, 70
5, 1216, Control_c, 2, 11, 71
5, 1225, Control_c, 2, 11, 72
5, 1234, Control_c, 2, 11, 73
5, 1243, Control_c, 2, 11, 74
5, 1252, Control_c, 2, 11, 75
5, 1261, Control_c, 2, 11, 76
5, 1270, Control_c, 2, 11, 77
5, 1280, Control_c, 2, 11, 78
5, 1289, Control_c, 2, 11, 79
5, 1298, Control_c, 2, 11, 80
5, 1307, Control_c, 2, 11, 81
5, 1316, Control_c, 2, 11, 82
5, 1325, Control_c, 2, 11, 83
5, 1334, Control_c, 2, 11, 84
5, 1344, Control_c, 2, 11, 85
5, 1353, Control_c, 2, 11, 86
5, 1362, Control_c, 2, 11, 87
5, 1371, Control_c, 2, 11, 88
5, 1380, Control_c, 2, 11, 89
5, 1389, Control_c, 2, 11, 90
5, 1398, Control_c, 2, 11, 91
5, 1408, Control_c, 2, 11, 92
5, 1417, Control_c, 2, 11, 93
5, 1426, Control_c, 2, 11, 94
5, 1435, Control_c, 2, 11, 95
5, 1444, Control_c, 2, 11, 96
5, 1453, Control_c, 2, 11, 97
5, 1462, Control_c, 2, 11, 98
5, 1472, Control_c, 2, 11, 99
5, 1481, Control_c, 2, 11, 100
5, 1490, Control_c, 2, 11, 101
5, 1499, Control_c, 2, 11, 102
5, 1508, Control_c, 2, 11, 103
5, 1517, Control_c, 2, 11, 104
5, 1526, Control_c, 2, 11, 105
5, 1536, Control_c, 2, 11, 106
5, 1545, Control_c, 2, 11, 107
5, 1554, Control_c, 2, 11, 108
5, 1563, Control_c, 2, 11, 109
5, 1572, Control_c, 2, 11, 110
5, 1581, Control_c, 2, 11, 111
5, 1590, Control_c, 2, 11, 112
5, 1600, Control_c, 2, 11, 113
5, 1609, Control_c, 2, 11, 114
5, 1618, Control_c, 2, 11, 115
5, 1627, Control_c, 2, 11, 116
5, 1636, Control_c, 2, 11, 117
5, 1645, Control_c, 2, 11, 118
5, 1654, Control_c, 2, 11, 119
5, 1664, Control_c, 2, 11, 120
5, 1673, Control_c, 2, 11, 121
5, 1682, Control_c, 2, 11, 122
5, 1691, Control_c, 2, 11, 123
5, 1700, Control_c, 2, 11, 124
5, 1709, Control_c, 2, 11, 125
5, 1718, Control_c, 2, 11, 126
5, 1728, Control_c, 2, 11, 127
5, 1888, Note_on_c, 2, 68, 0
5, 2304, Control_c, 2, 11, 64
5, 2304, Note_on_c, 2, 68, 42
5, 2313, Control_c, 2, 11, 65
5, 2322, Control_c, 2, 11, 66
5, 2331, Control_c, 2, 11, 67
5, 2340, Control_c, 2, 11, 68
5, 2349, Control_c, 2, 11, 69
5, 2358, Control_c, 2, 11, 70
5, 2368, Control_c, 2, 11, 71
5, 2377, Control_c, 2, 11, 72
5, 2386, Control_c, 2, 11, 73
5, 2395, Control_c, 2, 11, 74
5, 2404, Control_c, 2, 11, 75
5, 2413, Control_c, 2, 11, 76
5, 2422, Control_c, 2, 11, 77
5, 2432, Control_c, 2, 11, 78
5, 2441, Control_c, 2, 11, 79
5, 2450, Control_c, 2, 11, 80
5, 2459, Control_c, 2, 11, 81
5, 2468, Control_c, 2, 11, 82
5, 2477, Control_c, 2, 11, 83
5, 2486, Control_c, 2, 11, 84
5, 2496, Control_c, 2, 11, 85
5, 2505, Control_c, 2, 11, 86
5, 2514, Control_c, 2, 11, 87
5, 2523, Control_c, 2, 11, 88
5, 2532, Control_c, 2, 11, 89
5, 2541, Control_c, 2, 11, 90
5, 2550, Control_c, 2, 11, 91
5, 2560, Control_c, 2, 11, 92
5, 2569, Control_c, 2, 11, 93
5, 2578, Control_c, 2, 11, 94
5, 2587, Control_c, 2, 11, 95
5, 2596, Control_c, 2, 11, 96
5, 2605, Control_c, 2, 11, 97
5, 2614, Control_c, 2, 11, 98
5, 2624, Control_c, 2, 11, 99
5, 2633, Control_c, 2, 11, 100
5, 2642, Control_c, 2, 11, 101
5, 2651, Control_c, 2, 11, 102
5, 2660, Control_c, 2, 11, 103
5, 2669, Control_c, 2, 11, 104
5, 2678, Control_c, 2, 11, 105
5, 2688, Control_c, 2, 11, 106
5, 2697, Control_c, 2, 11, 107
5, 2706, Control_c, 2, 11, 108
5, 2715, Control_c, 2, 11, 109
5, 2724, Control_c, 2, 11, 110
5, 2733, Control_c, 2, 11, 111
5, 2742, Control_c, 2, 11, 112
5, 2752, Control_c, 2, 11, 113
5, 2761, Control_c, 2, 11, 114
5, 2770, Control_c, 2, 11, 115
5, 2779, Control_c, 2, 11, 116
5, 2788, Control_c, 2, 11, 117
5, 2797, Control_c, 2, 11, 118
5, 2806, Control_c, 2, 11, 119
5, 2816, Control_c, 2, 11, 120
5, 2825, Control_c, 2, 11, 121
5, 2834, Control_c, 2, 11, 122
5, 2843, Control_c, 2, 11, 123
5, 2852, Control_c, 2, 11, 124
5, 2861, Control_c, 2, 11, 125
5, 2870, Control_c, 2, 11, 126
5, 2880, Control_c, 2, 11, 127
5, 3040, Note_on_c, 2, 68, 0
5, 5856, Control_c, 2, 11, 92
5, 5856, Note_on_c, 2, 60, 60
5, 5861, Control_c, 2, 11, 93
5, 5866, Control_c, 2, 11, 94
5, 5872, Control_c, 2, 11, 95
5, 5877, Control_c, 2, 11, 96
5, 5883, Control_c, 2, 11, 97
5, 5886, Note_on_c, 2, 60, 0
5, 5888, Control_c, 2, 11, 98
5, 5888, Note_on_c, 2, 62, 64
5, 5894, Control_c, 2, 11, 99
5, 5899, Control_c, 2, 11, 100
5, 5905, Control_c, 2, 11, 101
5, 5910, Control_c, 2, 11, 102
5, 5916, Control_c, 2, 11, 103
5, 5918, Note_on_c, 2, 62, 0
5, 5920, Note_on_c, 2, 64, 62
5, 5921, Control_c, 2, 11, 104
5, 5927, Control_c, 2, 11, 105
5, 5932, Control_c, 2, 11, 106
5, 5938, Control_c, 2, 11, 107
5, 5943, Control_c, 2, 11, 108
5, 5949, Control_c, 2, 11, 109
5, 5950, Note_on_c, 2, 64, 0
5, 5952, Note_on_c, 2, 66, 64
5, 5954, Control_c, 2, 11, 110
5, 5960, Control_c, 2, 11, 111
5, 5965, Control_c, 2, 11, 112
5, 5971, Control_c, 2, 11, 113
5, 5976, Control_c, 2, 11, 114
5, 5982, Control_c, 2, 11, 115
5, 5987, Control_c, 2, 11, 116
5, 5993, Control_c, 2, 11, 117
5, 5998, Control_c, 2, 11, 118
5, 6004, Control_c, 2, 11, 119
5, 6009, Control_c, 2, 11, 120
5, 6015, Control_c, 2, 11, 121
5, 6020, Control_c, 2, 11, 122
5, 6026, Control_c, 2, 11, 123
5, 6031, Control_c, 2, 11, 124
5, 6037, Control_c, 2, 11, 125
5, 6042, Control_c, 2, 11, 126
5, 6048, Control_c, 2, 11, 127
5, 6051, Control_c, 2, 11, 126
5, 6054, Control_c, 2, 11, 125
5, 6057, Control_c, 2, 11, 124
5, 6060, Control_c, 2, 11, 123
5, 6063, Control_c, 2, 11, 122
5, 6066, Control_c, 2, 11, 121
5, 6069, Control_c, 2, 11, 120
5, 6072, Control_c, 2, 11, 119
5, 6075, Control_c, 2, 11, 118
5, 6078, Control_c, 2, 11, 117
5, 6081, Control_c, 2, 11, 116
5, 6084, Control_c, 2, 11, 115
5, 6087, Control_c, 2, 11, 114
5, 6090, Control_c, 2, 11, 113
5, 6093, Control_c, 2, 11, 112
5, 6096, Control_c, 2, 11, 111
5, 6099, Control_c, 2, 11, 110
5, 6102, Control_c, 2, 11, 109
5, 6105, Control_c, 2, 11, 108
5, 6108, Control_c, 2, 11, 107
5, 6112, Control_c, 2, 11, 106
5, 6115, Control_c, 2, 11, 105
5, 6118, Control_c, 2, 11, 104
5, 6121, Control_c, 2, 11, 103
5, 6124, Control_c, 2, 11, 102
5, 6127, Control_c, 2, 11, 101
5, 6130, Control_c, 2, 11, 100
5, 6133, Control_c, 2, 11, 99
5, 6136, Control_c, 2, 11, 98
5, 6139, Control_c, 2, 11, 97
5, 6142, Control_c, 2, 11, 96
5, 6145, Control_c, 2, 11, 95
5, 6148, Control_c, 2, 11, 94
5, 6151, Control_c, 2, 11, 93
5, 6154, Control_c, 2, 11, 92
5, 6157, Control_c, 2, 11, 91
5, 6160, Control_c, 2, 11, 90
5, 6163, Control_c, 2, 11, 89
5, 6166, Control_c, 2, 11, 88
5, 6169, Control_c, 2, 11, 87
5, 6172, Control_c, 2, 11, 86
5, 6176, Control_c, 2, 11, 85
5, 6179, Control_c, 2, 11, 84
5, 6182, Control_c, 2, 11, 83
5, 6185, Control_c, 2, 11, 82
5, 6188, Control_c, 2, 11, 81
5, 6191, Control_c, 2, 11, 80
5, 6194, Control_c, 2, 11, 79
5, 6197, Control_c, 2, 11, 78
5, 6200, Control_c, 2, 11, 77
5, 6203, Control_c, 2, 11, 76
5, 6206, Control_c, 2, 11, 75
5, 6209, Control_c, 2, 11, 74
5, 6212, Control_c, 2, 11, 73
5, 6215, Control_c, 2, 11, 72
5, 6218, Control_c, 2, 11, 71
5, 6221, Control_c, 2, 11, 70
5, 6224, Control_c, 2, 11, 69
5, 6227, Control_c, 2, 11, 68
5, 6230, Control_c, 2, 11, 67
5, 6233, Control_c, 2, 11, 66
5, 6236, Control_c, 2, 11, 65
5, 6240, Control_c, 2, 11, 64
5, 6304, Note_on_c, 2, 66, 0
5, 6432, Control_c, 2, 11, 92
5, 6432, Note_on_c, 2, 60, 64
5, 6434, Control_c, 2, 11, 93
5, 6437, Control_c, 2, 11, 94
5, 6440, Control_c, 2, 11, 95
5, 6442, Control_c, 2, 11, 96
5, 6445, Control_c, 2, 11, 97
5, 6448, Control_c, 2, 11, 98
5, 6451, Control_c, 2, 11, 99
5, 6453, Control_c, 2, 11, 100
5, 6456, Control_c, 2, 11, 101
5, 6459, Control_c, 2, 11, 102
5, 6462, Note_on_c, 2, 60, 0
5, 6462, Control_c, 2, 11, 103
5, 6464, Control_c, 2, 11, 104
5, 6464, Note_on_c, 2, 62, 55
5, 6467, Control_c, 2, 11, 105
5, 6470, Control_c, 2, 11, 106
5, 6473, Control_c, 2, 11, 107
5, 6475, Control_c, 2, 11, 108
5, 6478, Control_c, 2, 11, 109
5, 6481, Control_c, 2, 11, 110
5, 6484, Control_c, 2, 11, 111
5, 6486, Control_c, 2, 11, 112
5, 6489, Control_c, 2, 11, 113
5, 6492, Control_c, 2, 11, 114
5, 6494, Note_on_c, 2, 62, 0
5, 6495, Control_c, 2, 11, 115
5, 6496, Note_on_c, 2, 64, 62
5, 6497, Control_c, 2, 11, 116
5, 6500, Control_c, 2, 11, 117
5, 6503, Control_c, 2, 11, 118
5, 6506, Control_c, 2, 11, 119
5, 6508, Control_c, 2, 11, 120
5, 6511, Control_c, 2, 11, 121
5, 6514, Control_c, 2, 11, 122
5, 6517, Control_c, 2, 11, 123
5, 6519, Control_c, 2, 11, 124
5, 6522, Control_c, 2, 11, 125
5, 6525, Control_c, 2, 11, 126
5, 6526, Note_on_c, 2, 64, 0
5, 6528, Control_c, 2, 11, 127
5, 6528, Note_on_c, 2, 66, 62
5, 6624, Control_c, 2, 11, 92
5, 6634, Control_c, 2, 11, 93
5, 6645, Control_c, 2, 11, 94
5, 6654, Note_on_c, 2, 66, 0
5, 6656, Control_c, 2, 11, 95
5, 6656, Note_on_c, 2, 67, 62
5, 6667, Control_c, 2, 11, 96
5, 6678, Control_c, 2, 11, 97
5, 6686, Note_on_c, 2, 67, 0
5, 6688, Note_on_c, 2, 69, 62
5, 6689, Control_c, 2, 11, 98
5, 6700, Control_c, 2, 11, 99
5, 6710, Note_on_c, 2, 69, 0
5, 6711, Control_c, 2, 11, 100
5, 6712, Note_on_c, 2, 69, 55
5, 6718, Note_on_c, 2, 69, 0
5, 6720, Note_on_c, 2, 67, 62
5, 6722, Control_c, 2, 11, 101
5, 6733, Control_c, 2, 11, 102
5, 6744, Control_c, 2, 11, 103
5, 6755, Control_c, 2, 11, 104
5, 6766, Note_on_c, 2, 67, 0
5, 6766, Control_c, 2, 11, 105
5, 6768, Note_on_c, 2, 66, 60
5, 6777, Control_c, 2, 11, 106
5, 6788, Control_c, 2, 11, 107
5, 6799, Control_c, 2, 11, 108
5, 6810, Control_c, 2, 11, 109
5, 6821, Control_c, 2, 11, 110
5, 6832, Control_c, 2, 11, 111
5, 6843, Control_c, 2, 11, 112
5, 6846, Note_on_c, 2, 66, 0
5, 6848, Note_on_c, 2, 67, 57
5, 6854, Control_c, 2, 11, 113
5, 6865, Control_c, 2, 11, 114
5, 6876, Control_c, 2, 11, 115
5, 6878, Note_on_c, 2, 67, 0
5, 6880, Note_on_c, 2, 69, 65
5, 6887, Control_c, 2, 11, 116
5, 6898, Control_c, 2, 11, 117
5, 6902, Note_on_c, 2, 69, 0
5, 6904, Note_on_c, 2, 69, 57
5, 6909, Control_c, 2, 11, 118
5, 6910, Note_on_c, 2, 69, 0
5, 6912, Note_on_c, 2, 67, 65
5, 6920, Control_c, 2, 11, 119
5, 6931, Control_c, 2, 11, 120
5, 6942, Control_c, 2, 11, 121
5, 6953, Control_c, 2, 11, 122
5, 6958, Note_on_c, 2, 67, 0
5, 6960, Note_on_c, 2, 66, 64
5, 6964, Control_c, 2, 11, 123
5, 6975, Control_c, 2, 11, 124
5, 6986, Control_c, 2, 11, 125
5, 6997, Control_c, 2, 11, 126
5, 7008, Control_c, 2, 11, 127
5, 7013, Control_c, 2, 11, 126
5, 7018, Control_c, 2, 11, 125
5, 7024, Control_c, 2, 11, 124
5, 7029, Control_c, 2, 11, 123
5, 7035, Control_c, 2, 11, 122
5, 7038, Note_on_c, 2, 66, 0
5, 7040, Control_c, 2, 11, 121
5, 7040, Note_on_c, 2, 67, 63
5, 7046, Control_c, 2, 11, 120
5, 7051, Control_c, 2, 11, 119
5, 7057, Control_c, 2, 11, 118
5, 7062, Control_c, 2, 11, 117
5, 7068, Control_c, 2, 11, 116
5, 7070, Note_on_c, 2, 67, 0
5, 7072, Note_on_c, 2, 69, 65
5, 7073, Control_c, 2, 11, 115
5, 7079, Control_c, 2, 11, 114
5, 7084, Control_c, 2, 11, 113
5, 7090, Control_c, 2, 11, 112
5, 7095, Control_c, 2, 11, 111
5, 7101, Control_c, 2, 11, 110
5, 7102, Note_on_c, 2, 69, 0
5, 7104, Note_on_c, 2, 67, 61
5, 7106, Control_c, 2, 11, 109
5, 7112, Control_c, 2, 11, 108
5, 7117, Control_c, 2, 11, 107
5, 7123, Control_c, 2, 11, 106
5, 7128, Control_c, 2, 11, 105
5, 7134, Note_on_c, 2, 67, 0
5, 7134, Control_c, 2, 11, 104
5, 7136, Note_on_c, 2, 66, 62
5, 7139, Control_c, 2, 11, 103
5, 7145, Control_c, 2, 11, 102
5, 7150, Control_c, 2, 11, 101
5, 7156, Control_c, 2, 11, 100
5, 7161, Control_c, 2, 11, 99
5, 7166, Note_on_c, 2, 66, 0
5, 7167, Control_c, 2, 11, 98
5, 7168, Note_on_c, 2, 64, 57
5, 7172, Control_c, 2, 11, 97
5, 7178, Control_c, 2, 11, 96
5, 7183, Control_c, 2, 11, 95
5, 7189, Control_c, 2, 11, 94
5, 7194, Control_c, 2, 11, 93
5, 7198, Note_on_c, 2, 64, 0
5, 7200, Control_c, 2, 11, 92
5, 7200, Note_on_c, 2, 62, 64
5, 7246, Note_on_c, 2, 62, 0
5, 7248, Note_on_c, 2, 60, 58
5, 7280, Note_on_c, 2, 60, 0
5, 7296, Control_c, 2, 11, 92
5, 7296, Note_on_c, 2, 62, 62
5, 7298, Control_c, 2, 11, 93
5, 7301, Control_c, 2, 11, 94
5, 7304, Control_c, 2, 11, 95
5, 7306, Control_c, 2, 11, 96
5, 7309, Control_c, 2, 11, 97
5, 7312, Control_c, 2, 11, 98
5, 7315, Control_c, 2, 11, 99
5, 7317, Control_c, 2, 11, 100
5, 7320, Control_c, 2, 11, 101
5, 7323, Control_c, 2, 11, 102
5, 7326, Control_c, 2, 11, 103
5, 7328, Note_on_c, 2, 62, 0
5, 7328, Control_c, 2, 11, 104
5, 7331, Control_c, 2, 11, 105
5, 7334, Control_c, 2, 11, 106
5, 7337, Control_c, 2, 11, 107
5, 7339, Control_c, 2, 11, 108
5, 7342, Control_c, 2, 11, 109
5, 7344, Note_on_c, 2, 64, 61
5, 7345, Control_c, 2, 11, 110
5, 7348, Control_c, 2, 11, 111
5, 7350, Control_c, 2, 11, 112
5, 7353, Control_c, 2, 11, 113
5, 7356, Control_c, 2, 11, 114
5, 7359, Control_c, 2, 11, 115
5, 7361, Control_c, 2, 11, 116
5, 7364, Control_c, 2, 11, 117
5, 7367, Control_c, 2, 11, 118
5, 7370, Control_c, 2, 11, 119
5, 7372, Control_c, 2, 11, 120
5, 7375, Control_c, 2, 11, 121
5, 7376, Note_on_c, 2, 64, 0
5, 7378, Control_c, 2, 11, 122
5, 7381, Control_c, 2, 11, 123
5, 7383, Control_c, 2, 11, 124
5, 7386, Control_c, 2, 11, 125
5, 7389, Control_c, 2, 11, 126
5, 7392, Control_c, 2, 11, 127
5, 7392, Note_on_c, 2, 64, 58
5, 7394, Control_c, 2, 11, 126
5, 7397, Control_c, 2, 11, 125
5, 7400, Control_c, 2, 11, 124
5, 7402, Note_on_c, 2, 64, 0
5, 7402, Control_c, 2, 11, 123
5, 7404, Note_on_c, 2, 62, 57
5, 7405, Control_c, 2, 11, 122
5, 7408, Control_c, 2, 11, 121
5, 7411, Control_c, 2, 11, 120
5, 7413, Control_c, 2, 11, 119
5, 7416, Control_c, 2, 11, 118
5, 7419, Control_c, 2, 11, 117
5, 7422, Control_c, 2, 11, 116
5, 7424, Control_c, 2, 11, 115
5, 7427, Control_c, 2, 11, 114
5, 7430, Control_c, 2, 11, 113
5, 7433, Control_c, 2, 11, 112
5, 7435, Control_c, 2, 11, 111
5, 7438, Note_on_c, 2, 62, 0
5, 7438, Control_c, 2, 11, 110
5, 7440, Note_on_c, 2, 60, 65
5, 7441, Control_c, 2, 11, 109
5, 7444, Control_c, 2, 11, 108
5, 7446, Control_c, 2, 11, 107
5, 7449, Control_c, 2, 11, 106
5, 7452, Control_c, 2, 11, 105
5, 7455, Control_c, 2, 11, 104
5, 7457, Control_c, 2, 11, 103
5, 7460, Control_c, 2, 11, 102
5, 7463, Control_c, 2, 11, 101
5, 7466, Control_c, 2, 11, 100
5, 7468, Control_c, 2, 11, 99
5, 7471, Control_c, 2, 11, 98
5, 7474, Control_c, 2, 11, 97
5, 7477, Control_c, 2, 11, 96
5, 7479, Control_c, 2, 11, 95
5, 7482, Control_c, 2, 11, 94
5, 7485, Control_c, 2, 11, 93
5, 7486, Note_on_c, 2, 60, 0
5, 7488, Control_c, 2, 11, 92
5, 7488, Note_on_c, 2, 62, 62
5, 7520, Note_on_c, 2, 62, 0
5, 7536, Note_on_c, 2, 64, 57
5, 7568, Note_on_c, 2, 64, 0
5, 7584, Control_c, 2, 11, 127
5, 7584, Note_on_c, 2, 64, 58
5, 7589, Control_c, 2, 11, 126
5, 7594, Note_on_c, 2, 64, 0
5, 7594, Control_c, 2, 11, 125
5, 7596, Note_on_c, 2, 62, 58
5, 7600, Control_c, 2, 11, 124
5, 7605, Control_c, 2, 11, 123
5, 7611, Control_c, 2, 11, 122
5, 7616, Control_c, 2, 11, 121
5, 7622, Control_c, 2, 11, 120
5, 7627, Control_c, 2, 11, 119
5, 7630, Note_on_c, 2, 62, 0
5, 7632, Note_on_c, 2, 60, 65
5, 7633, Control_c, 2, 11, 118
5, 7638, Control_c, 2, 11, 117
5, 7644, Control_c, 2, 11, 116
5, 7649, Control_c, 2, 11, 115
5, 7655, Control_c, 2, 11, 114
5, 7660, Control_c, 2, 11, 113
5, 7666, Control_c, 2, 11, 112
5, 7671, Control_c, 2, 11, 111
5, 7677, Control_c, 2, 11, 110
5, 7678, Note_on_c, 2, 60, 0
5, 7680, Note_on_c, 2, 62, 55
5, 7682, Control_c, 2, 11, 109
5, 7688, Control_c, 2, 11, 108
5, 7693, Control_c, 2, 11, 107
5, 7699, Control_c, 2, 11, 106
5, 7704, Control_c, 2, 11, 105
5, 7710, Control_c, 2, 11, 104
5, 7712, Note_on_c, 2, 62, 0
5, 7715, Control_c, 2, 11, 103
5, 7721, Control_c, 2, 11, 102
5, 7726, Control_c, 2, 11, 101
5, 7728, Note_on_c, 2, 64, 63
5, 7732, Control_c, 2, 11, 100
5, 7737, Control_c, 2, 11, 99
5, 7743, Control_c, 2, 11, 98
5, 7748, Control_c, 2, 11, 97
5, 7754, Control_c, 2, 11, 96
5, 7759, Control_c, 2, 11, 95
5, 7760, Note_on_c, 2, 64, 0
5, 7765, Control_c, 2, 11, 94
5, 7770, Control_c, 2, 11, 93
5, 7776, Control_c, 2, 11, 92
5, 7776, Note_on_c, 2, 62, 63
5, 7822, Note_on_c, 2, 62, 0
5, 7824, Note_on_c, 2, 60, 65
5, 7856, Note_on_c, 2, 60, 0
5, 7872, Note_on_c, 2, 62, 63
5, 7904, Note_on_c, 2, 62, 0
5, 7920, Note_on_c, 2, 64, 64
5, 7952, Note_on_c, 2, 64, 0
5, 7968, Note_on_c, 2, 64, 61
5, 7978, Note_on_c, 2, 64, 0
5, 7980, Note_on_c, 2, 62, 56
5, 8014, Note_on_c, 2, 62, 0
5, 8016, Note_on_c, 2, 60, 64
5, 8062, Note_on_c, 2, 60, 0
5, 8064, Control_c, 2, 11, 92
5, 8064, Note_on_c, 2, 62, 62
5, 8072, Control_c, 2, 11, 93
5, 8080, Control_c, 2, 11, 94
5, 8088, Control_c, 2, 11, 95
5, 8096, Note_on_c, 2, 62, 0
5, 8096, Control_c, 2, 11, 96
5, 8105, Control_c, 2, 11, 97
5, 8112, Note_on_c, 2, 64, 61
5, 8113, Control_c, 2, 11, 98
5, 8121, Control_c, 2, 11, 99
5, 8129, Control_c, 2, 11, 100
5, 8138, Control_c, 2, 11, 101
5, 8144, Note_on_c, 2, 64, 0
5, 8146, Control_c, 2, 11, 102
5, 8154, Control_c, 2, 11, 103
5, 8160, Note_on_c, 2, 64, 59
5, 8162, Control_c, 2, 11, 104
5, 8170, Note_on_c, 2, 64, 0
5, 8170, Control_c, 2, 11, 105
5, 8172, Note_on_c, 2, 62, 63
5, 8179, Control_c, 2, 11, 106
5, 8187, Control_c, 2, 11, 107
5, 8195, Control_c, 2, 11, 108
5, 8203, Control_c, 2, 11, 109
5, 8206, Note_on_c, 2, 62, 0
5, 8208, Note_on_c, 2, 60, 59
5, 8212, Control_c, 2, 11, 110
5, 8220, Control_c, 2, 11, 111
5, 8228, Control_c, 2, 11, 112
5, 8236, Control_c, 2, 11, 113
5, 8245, Control_c, 2, 11, 114
5, 8253, Control_c, 2, 11, 115
5, 8254, Note_on_c, 2, 60, 0
5, 8256, Note_on_c, 2, 62, 60
5, 8261, Control_c, 2, 11, 116
5, 8269, Control_c, 2, 11, 117
5, 8277, Control_c, 2, 11, 118
5, 8286, Control_c, 2, 11, 119
5, 8288, Note_on_c, 2, 62, 0
5, 8294, Control_c, 2, 11, 120
5, 8302, Control_c, 2, 11, 121
5, 8304, Note_on_c, 2, 64, 55
5, 8310, Control_c, 2, 11, 122
5, 8319, Control_c, 2, 11, 123
5, 8327, Control_c, 2, 11, 124
5, 8335, Control_c, 2, 11, 125
5, 8336, Note_on_c, 2, 64, 0
5, 8343, Control_c, 2, 11, 126
5, 8352, Control_c, 2, 11, 127
5, 10944, Control_c, 2, 7, 92
5, 11328, Note_on_c, 2, 66, 87
5, 11358, Note_on_c, 2, 66, 0
5, 11360, Note_on_c, 2, 68, 94
5, 11390, Note_on_c, 2, 68, 0
5, 11392, Note_on_c, 2, 70, 95
5, 11422, Note_on_c, 2, 70, 0
5, 11424, Note_on_c, 2, 72, 113
5, 11614, Note_on_c, 2, 72, 0
5, 11904, Note_on_c, 2, 66, 90
5, 11934, Note_on_c, 2, 66, 0
5, 11936, Note_on_c, 2, 68, 96
5, 11966, Note_on_c, 2, 68, 0
5, 11968, Note_on_c, 2, 70, 97
5, 11998, Note_on_c, 2, 70, 0
5, 12000, Note_on_c, 2, 72, 106
5, 12190, Note_on_c, 2, 72, 0
5, 13536, Control_c, 2, 11, 92
5, 13536, Note_on_c, 2, 60, 60
5, 13541, Control_c, 2, 11, 93
5, 13546, Control_c, 2, 11, 94
5, 13552, Control_c, 2, 11, 95
5, 13557, Control_c, 2, 11, 96
5, 13563, Control_c, 2, 11, 97
5, 13568, Control_c, 2, 11, 98
5, 13574, Control_c, 2, 11, 99
5, 13579, Control_c, 2, 11, 100
5, 13585, Control_c, 2, 11, 101
5, 13590, Control_c, 2, 11, 102
5, 13596, Control_c, 2, 11, 103
5, 13601, Control_c, 2, 11, 104
5, 13607, Control_c, 2, 11, 105
5, 13612, Control_c, 2, 11, 106
5, 13618, Control_c, 2, 11, 107
5, 13623, Control_c, 2, 11, 108
5, 13629, Control_c, 2, 11, 109
5, 13634, Control_c, 2, 11, 110
5, 13640, Control_c, 2, 11, 111
5, 13645, Control_c, 2, 11, 112
5, 13651, Control_c, 2, 11, 113
5, 13656, Control_c, 2, 11, 114
5, 13662, Control_c, 2, 11, 115
5, 13667, Control_c, 2, 11, 116
5, 13673, Control_c, 2, 11, 117
5, 13678, Control_c, 2, 11, 118
5, 13684, Control_c, 2, 11, 119
5, 13689, Control_c, 2, 11, 120
5, 13695, Control_c, 2, 11, 121
5, 13700, Control_c, 2, 11, 122
5, 13706, Control_c, 2, 11, 123
5, 13711, Control_c, 2, 11, 124
5, 13717, Control_c, 2, 11, 125
5, 13722, Control_c, 2, 11, 126
5, 13728, Control_c, 2, 11, 127
5, 14112, Note_on_c, 2, 60, 0
5, 14112, Control_c, 2, 11, 92
5, 14112, Note_on_c, 2, 60, 63
5, 14117, Control_c, 2, 11, 93
5, 14122, Control_c, 2, 11, 94
5, 14128, Control_c, 2, 11, 95
5, 14133, Control_c, 2, 11, 96
5, 14139, Control_c, 2, 11, 97
5, 14144, Control_c, 2, 11, 98
5, 14150, Control_c, 2, 11, 99
5, 14155, Control_c, 2, 11, 100
5, 14161, Control_c, 2, 11, 101
5, 14166, Control_c, 2, 11, 102
5, 14172, Control_c, 2, 11, 103
5, 14177, Control_c, 2, 11, 104
5, 14183, Control_c, 2, 11, 105
5, 14188, Control_c, 2, 11, 106
5, 14194, Control_c, 2, 11, 107
5, 14199, Control_c, 2, 11, 108
5, 14205, Control_c, 2, 11, 109
5, 14210, Control_c, 2, 11, 110
5, 14216, Control_c, 2, 11, 111
5, 14221, Control_c, 2, 11, 112
5, 14227, Control_c, 2, 11, 113
5, 14232, Control_c, 2, 11, 114
5, 14238, Control_c, 2, 11, 115
5, 14243, Control_c, 2, 11, 116
5, 14249, Control_c, 2, 11, 117
5, 14254, Control_c, 2, 11, 118
5, 14260, Control_c, 2, 11, 119
5, 14265, Control_c, 2, 11, 120
5, 14271, Control_c, 2, 11, 121
5, 14276, Control_c, 2, 11, 122
5, 14282, Control_c, 2, 11, 123
5, 14287, Control_c, 2, 11, 124
5, 14293, Control_c, 2, 11, 125
5, 14298, Control_c, 2, 11, 126
5, 14304, Control_c, 2, 11, 127
5, 14688, Note_on_c, 2, 60, 0
5, 14688, Note_on_c, 2, 60, 43
5, 14880, Note_on_c, 2, 60, 0
5, 14880, Note_on_c, 2, 59, 42
5, 15072, Note_on_c, 2, 59, 0
5, 15072, Note_on_c, 2, 56, 50
5, 15264, Note_on_c, 2, 56, 0
5, 15264, Note_on_c, 2, 55, 43
5, 15456, Note_on_c, 2, 55, 0
5, 15456, Note_on_c, 2, 56, 44
5, 15648, Note_on_c, 2, 56, 0
5, 15648, Note_on_c, 2, 59, 44
5, 15808, Note_on_c, 2, 59, 0
5, 15840, Control_c, 2, 11, 92
5, 15840, Note_on_c, 2, 68, 56
5, 15845, Control_c, 2, 11, 93
5, 15850, Control_c, 2, 11, 94
5, 15856, Control_c, 2, 11, 95
5, 15861, Control_c, 2, 11, 96
5, 15867, Control_c, 2, 11, 97
5, 15872, Control_c, 2, 11, 98
5, 15878, Control_c, 2, 11, 99
5, 15883, Control_c, 2, 11, 100
5, 15889, Control_c, 2, 11, 101
5, 15894, Control_c, 2, 11, 102
5, 15900, Control_c, 2, 11, 103
5, 15905, Control_c, 2, 11, 104
5, 15911, Control_c, 2, 11, 105
5, 15916, Control_c, 2, 11, 106
5, 15922, Control_c, 2, 11, 107
5, 15927, Control_c, 2, 11, 108
5, 15933, Control_c, 2, 11, 109
5, 15938, Control_c, 2, 11, 110
5, 15944, Control_c, 2, 11, 111
5, 15949, Control_c, 2, 11, 112
5, 15955, Control_c, 2, 11, 113
5, 15960, Control_c, 2, 11, 114
5, 15966, Control_c, 2, 11, 115
5, 15971, Control_c, 2, 11, 116
5, 15977, Control_c, 2, 11, 117
5, 15982, Note_on_c, 2, 68, 0
5, 15982, Control_c, 2, 11, 118
5, 15984, Note_on_c, 2, 67, 61
5, 15988, Control_c, 2, 11, 119
5, 15993, Control_c, 2, 11, 120
5, 15999, Control_c, 2, 11, 121
5, 16004, Control_c, 2, 11, 122
5, 16010, Control_c, 2, 11, 123
5, 16015, Control_c, 2, 11, 124
5, 16021, Control_c, 2, 11, 125
5, 16026, Control_c, 2, 11, 126
5, 16030, Note_on_c, 2, 67, 0
5, 16032, Control_c, 2, 11, 127
5, 16032, Note_on_c, 2, 68, 58
5, 16368, Note_on_c, 2, 68, 0
5, 16416, Control_c, 2, 11, 92
5, 16416, Note_on_c, 2, 68, 64
5, 16421, Control_c, 2, 11, 93
5, 16426, Control_c, 2, 11, 94
5, 16432, Control_c, 2, 11, 95
5, 16437, Control_c, 2, 11, 96
5, 16443, Control_c, 2, 11, 97
5, 16448, Control_c, 2, 11, 98
5, 16454, Control_c, 2, 11, 99
5, 16459, Control_c, 2, 11, 100
5, 16465, Control_c, 2, 11, 101
5, 16470, Control_c, 2, 11, 102
5, 16476, Control_c, 2, 11, 103
5, 16481, Control_c, 2, 11, 104
5, 16487, Control_c, 2, 11, 105
5, 16492, Control_c, 2, 11, 106
5, 16498, Control_c, 2, 11, 107
5, 16503, Control_c, 2, 11, 108
5, 16509, Control_c, 2, 11, 109
5, 16514, Control_c, 2, 11, 110
5, 16520, Control_c, 2, 11, 111
5, 16525, Control_c, 2, 11, 112
5, 16531, Control_c, 2, 11, 113
5, 16536, Control_c, 2, 11, 114
5, 16542, Control_c, 2, 11, 115
5, 16547, Control_c, 2, 11, 116
5, 16553, Control_c, 2, 11, 117
5, 16558, Note_on_c, 2, 68, 0
5, 16558, Control_c, 2, 11, 118
5, 16560, Note_on_c, 2, 67, 62
5, 16564, Control_c, 2, 11, 119
5, 16569, Control_c, 2, 11, 120
5, 16575, Control_c, 2, 11, 121
5, 16580, Control_c, 2, 11, 122
5, 16586, Control_c, 2, 11, 123
5, 16591, Control_c, 2, 11, 124
5, 16597, Control_c, 2, 11, 125
5, 16602, Control_c, 2, 11, 126
5, 16606, Note_on_c, 2, 67, 0
5, 16608, Control_c, 2, 11, 127
5, 16608, Note_on_c, 2, 68, 65
5, 16944, Note_on_c, 2, 68, 0
5, 16992, Note_on_c, 2, 60, 49
5, 17184, Note_on_c, 2, 60, 0
5, 17184, Note_on_c, 2, 59, 41
5, 17376, Note_on_c, 2, 59, 0
5, 17376, Note_on_c, 2, 56, 49
5, 17568, Note_on_c, 2, 56, 0
5, 17568, Note_on_c, 2, 55, 41
5, 17760, Note_on_c, 2, 55, 0
5, 17760, Note_on_c, 2, 56, 42
5, 17952, Note_on_c, 2, 56, 0
5, 17952, Note_on_c, 2, 59, 41
5, 18112, Note_on_c, 2, 59, 0
5, 18144, Control_c, 2, 7, 127
5, 18144, Control_c, 2, 11, 92
5, 18144, Note_on_c, 2, 68, 57
5, 18165, Control_c, 2, 11, 93
5, 18187, Control_c, 2, 11, 94
5, 18209, Control_c, 2, 11, 95
5, 18231, Control_c, 2, 11, 96
5, 18253, Control_c, 2, 11, 97
5, 18275, Control_c, 2, 11, 98
5, 18297, Control_c, 2, 11, 99
5, 18319, Control_c, 2, 11, 100
5, 18341, Control_c, 2, 11, 101
5, 18363, Control_c, 2, 11, 102
5, 18385, Control_c, 2, 11, 103
5, 18407, Control_c, 2, 11, 104
5, 18429, Control_c, 2, 11, 105
5, 18451, Control_c, 2, 11, 106
5, 18473, Control_c, 2, 11, 107
5, 18495, Control_c, 2, 11, 108
5, 18517, Control_c, 2, 11, 109
5, 18538, Control_c, 2, 11, 110
5, 18560, Control_c, 2, 11, 111
5, 18582, Control_c, 2, 11, 112
5, 18604, Control_c, 2, 11, 113
5, 18626, Control_c, 2, 11, 114
5, 18648, Control_c, 2, 11, 115
5, 18670, Control_c, 2, 11, 116
5, 18692, Control_c, 2, 11, 117
5, 18714, Control_c, 2, 11, 118
5, 18736, Control_c, 2, 11, 119
5, 18758, Control_c, 2, 11, 120
5, 18780, Control_c, 2, 11, 121
5, 18802, Control_c, 2, 11, 122
5, 18824, Control_c, 2, 11, 123
5, 18846, Control_c, 2, 11, 124
5, 18868, Control_c, 2, 11, 125
5, 18890, Control_c, 2, 11, 126
5, 18912, Control_c, 2, 11, 127
5, 18922, Control_c, 2, 11, 126
5, 18933, Control_c, 2, 11, 125
5, 18944, Control_c, 2, 11, 124
5, 18955, Control_c, 2, 11, 123
5, 18966, Control_c, 2, 11, 122
5, 18977, Control_c, 2, 11, 121
5, 18988, Control_c, 2, 11, 120
5, 18999, Control_c, 2, 11, 119
5, 19010, Control_c, 2, 11, 118
5, 19021, Control_c, 2, 11, 117
5, 19032, Control_c, 2, 11, 116
5, 19043, Control_c, 2, 11, 115
5, 19054, Control_c, 2, 11, 114
5, 19065, Control_c, 2, 11, 113
5, 19076, Control_c, 2, 11, 112
5, 19087, Control_c, 2, 11, 111
5, 19098, Control_c, 2, 11, 110
5, 19109, Control_c, 2, 11, 109
5, 19120, Control_c, 2, 11, 108
5, 19131, Control_c, 2, 11, 107
5, 19142, Control_c, 2, 11, 106
5, 19153, Control_c, 2, 11, 105
5, 19164, Control_c, 2, 11, 104
5, 19175, Control_c, 2, 11, 103
5, 19186, Control_c, 2, 11, 102
5, 19197, Control_c, 2, 11, 101
5, 19208, Control_c, 2, 11, 100
5, 19219, Control_c, 2, 11, 99
5, 19230, Control_c, 2, 11, 98
5, 19241, Control_c, 2, 11, 97
5, 19248, Note_on_c, 2, 68, 0
5, 19252, Control_c, 2, 11, 96
5, 19263, Control_c, 2, 11, 95
5, 19274, Control_c, 2, 11, 94
5, 19285, Control_c, 2, 11, 93
5, 19296, Control_c, 2, 11, 92
5, 19296, Control_c, 2, 11, 92
5, 19296, Note_on_c, 2, 68, 59
5, 19328, Control_c, 2, 11, 93
5, 19361, Control_c, 2, 11, 94
5, 19394, Control_c, 2, 11, 95
5, 19427, Control_c, 2, 11, 96
5, 19460, Control_c, 2, 11, 97
5, 19493, Control_c, 2, 11, 98
5, 19526, Control_c, 2, 11, 99
5, 19559, Control_c, 2, 11, 100
5, 19592, Control_c, 2, 11, 101
5, 19625, Control_c, 2, 11, 102
5, 19658, Control_c, 2, 11, 103
5, 19690, Control_c, 2, 11, 104
5, 19723, Control_c, 2, 11, 105
5, 19756, Control_c, 2, 11, 106
5, 19789, Control_c, 2, 11, 107
5, 19822, Control_c, 2, 11, 108
5, 19855, Control_c, 2, 11, 109
5, 19888, Control_c, 2, 11, 110
5, 19921, Control_c, 2, 11, 111
5, 19954, Control_c, 2, 11, 112
5, 19987, Control_c, 2, 11, 113
5, 20020, Control_c, 2, 11, 114
5, 20053, Control_c, 2, 11, 115
5, 20085, Control_c, 2, 11, 116
5, 20118, Control_c, 2, 11, 117
5, 20151, Control_c, 2, 11, 118
5, 20184, Control_c, 2, 11, 119
5, 20217, Control_c, 2, 11, 120
5, 20250, Control_c, 2, 11, 121
5, 20283, Control_c, 2, 11, 122
5, 20316, Control_c, 2, 11, 123
5, 20349, Control_c, 2, 11, 124
5, 20382, Control_c, 2, 11, 125
5, 20400, Note_on_c, 2, 68, 0
5, 20415, Control_c, 2, 11, 126
5, 20448, Control_c, 2, 11, 127
5, 27936, Control_c, 2, 11, 127
5, 28512, Note_on_c, 2, 70, 56
5, 28800, Note_on_c, 2, 70, 0
5, 28800, Note_on_c, 2, 69, 61
5, 28896, Note_on_c, 2, 69, 0
5, 28896, Note_on_c, 2, 67, 60
5, 28992, Note_on_c, 2, 67, 0
5, 28992, Note_on_c, 2, 65, 60
5, 29088, Note_on_c, 2, 65, 0
5, 29088, Note_on_c, 2, 70, 61
5, 29184, Note_on_c, 2, 70, 0
5, 29184, Note_on_c, 2, 69, 64
5, 29280, Note_on_c, 2, 69, 0
5, 29280, Note_on_c, 2, 67, 59
5, 29472, Note_on_c, 2, 67, 0
5, 29472, Note_on_c, 2, 70, 61
5, 29568, Note_on_c, 2, 70, 0
5, 29568, Note_on_c, 2, 69, 58
5, 29662, Note_on_c, 2, 69, 0
5, 29664, Control_c, 2, 11, 75
5, 29664, Note_on_c, 2, 66, 71
5, 29686, Control_c, 2, 11, 76
5, 29708, Control_c, 2, 11, 77
5, 29730, Control_c, 2, 11, 78
5, 29752, Control_c, 2, 11, 79
5, 29774, Control_c, 2, 11, 80
5, 29796, Control_c, 2, 11, 81
5, 29819, Control_c, 2, 11, 82
5, 29841, Control_c, 2, 11, 83
5, 29863, Control_c, 2, 11, 84
5, 29885, Control_c, 2, 11, 85
5, 29907, Control_c, 2, 11, 86
5, 29929, Control_c, 2, 11, 87
5, 29952, Note_on_c, 2, 66, 0
5, 29952, Control_c, 2, 11, 88
5, 29952, Note_on_c, 2, 64, 79
5, 29974, Control_c, 2, 11, 89
5, 29996, Control_c, 2, 11, 90
5, 30018, Control_c, 2, 11, 91
5, 30040, Control_c, 2, 11, 92
5, 30048, Note_on_c, 2, 64, 0
5, 30048, Note_on_c, 2, 63, 80
5, 30062, Control_c, 2, 11, 93
5, 30084, Control_c, 2, 11, 94
5, 30107, Control_c, 2, 11, 95
5, 30129, Control_c, 2, 11, 96
5, 30144, Note_on_c, 2, 63, 0
5, 30144, Note_on_c, 2, 61, 72
5, 30151, Control_c, 2, 11, 97
5, 30173, Control_c, 2, 11, 98
5, 30195, Control_c, 2, 11, 99
5, 30217, Control_c, 2, 11, 100
5, 30240, Note_on_c, 2, 61, 0
5, 30240, Control_c, 2, 11, 101
5, 30240, Note_on_c, 2, 63, 79
5, 30262, Control_c, 2, 11, 102
5, 30284, Control_c, 2, 11, 103
5, 30306, Control_c, 2, 11, 104
5, 30328, Control_c, 2, 11, 105
5, 30336, Note_on_c, 2, 63, 0
5, 30336, Note_on_c, 2, 64, 77
5, 30350, Control_c, 2, 11, 106
5, 30372, Control_c, 2, 11, 107
5, 30395, Control_c, 2, 11, 108
5, 30417, Control_c, 2, 11, 109
5, 30432, Note_on_c, 2, 64, 0
5, 30432, Note_on_c, 2, 66, 71
5, 30439, Control_c, 2, 11, 110
5, 30461, Control_c, 2, 11, 111
5, 30483, Control_c, 2, 11, 112
5, 30505, Control_c, 2, 11, 113
5, 30528, Control_c, 2, 11, 114
5, 30550, Control_c, 2, 11, 115
5, 30572, Control_c, 2, 11, 116
5, 30594, Control_c, 2, 11, 117
5, 30616, Control_c, 2, 11, 118
5, 30624, Note_on_c, 2, 66, 0
5, 30624, Note_on_c, 2, 68, 78
5, 30638, Control_c, 2, 11, 119
5, 30660, Control_c, 2, 11, 120
5, 30683, Control_c, 2, 11, 121
5, 30705, Control_c, 2, 11, 122
5, 30720, Note_on_c, 2, 68, 0
5, 30720, Note_on_c, 2, 73, 74
5, 30727, Control_c, 2, 11, 123
5, 30749, Control_c, 2, 11, 124
5, 30771, Control_c, 2, 11, 125
5, 30793, Control_c, 2, 11, 126
5, 30814, Note_on_c, 2, 73, 0
5, 30816, Control_c, 2, 11, 127
5, 30816, Control_c, 2, 11, 75
5, 30816, Note_on_c, 2, 70, 88
5, 30838, Control_c, 2, 11, 76
5, 30860, Control_c, 2, 11, 77
5, 30882, Control_c, 2, 11, 78
5, 30904, Control_c, 2, 11, 79
5, 30926, Control_c, 2, 11, 80
5, 30948, Control_c, 2, 11, 81
5, 30971, Control_c, 2, 11, 82
5, 30993, Control_c, 2, 11, 83
5, 31015, Control_c, 2, 11, 84
5, 31037, Control_c, 2, 11, 85
5, 31059, Control_c, 2, 11, 86
5, 31081, Control_c, 2, 11, 87
5, 31104, Note_on_c, 2, 70, 0
5, 31104, Control_c, 2, 11, 88
5, 31104, Note_on_c, 2, 69, 95
5, 31126, Control_c, 2, 11, 89
5, 31148, Control_c, 2, 11, 90
5, 31170, Control_c, 2, 11, 91
5, 31192, Control_c, 2, 11, 92
5, 31200, Note_on_c, 2, 69, 0
5, 31200, Note_on_c, 2, 67, 88
5, 31214, Control_c, 2, 11, 93
5, 31236, Control_c, 2, 11, 94
5, 31259, Control_c, 2, 11, 95
5, 31281, Control_c, 2, 11, 96
5, 31296, Note_on_c, 2, 67, 0
5, 31296, Note_on_c, 2, 65, 88
5, 31303, Control_c, 2, 11, 97
5, 31325, Control_c, 2, 11, 98
5, 31347, Control_c, 2, 11, 99
5, 31369, Control_c, 2, 11, 100
5, 31392, Note_on_c, 2, 65, 0
5, 31392, Control_c, 2, 11, 101
5, 31392, Note_on_c, 2, 70, 87
5, 31414, Control_c, 2, 11, 102
5, 31436, Control_c, 2, 11, 103
5, 31458, Control_c, 2, 11, 104
5, 31480, Control_c, 2, 11, 105
5, 31488, Note_on_c, 2, 70, 0
5, 31488, Note_on_c, 2, 69, 88
5, 31502, Control_c, 2, 11, 106
5, 31524, Control_c, 2, 11, 107
5, 31547, Control_c, 2, 11, 108
5, 31569, Control_c, 2, 11, 109
5, 31584, Note_on_c, 2, 69, 0
5, 31584, Note_on_c, 2, 67, 91
5, 31591, Control_c, 2, 11, 110
5, 31613, Control_c, 2, 11, 111
5, 31635, Control_c, 2, 11, 112
5, 31657, Control_c, 2, 11, 113
5, 31680, Control_c, 2, 11, 114
5, 31702, Control_c, 2, 11, 115
5, 31724, Control_c, 2, 11, 116
5, 31746, Control_c, 2, 11, 117
5, 31768, Control_c, 2, 11, 118
5, 31776, Note_on_c, 2, 67, 0
5, 31776, Note_on_c, 2, 70, 96
5, 31790, Control_c, 2, 11, 119
5, 31812, Control_c, 2, 11, 120
5, 31835, Control_c, 2, 11, 121
5, 31857, Control_c, 2, 11, 122
5, 31872, Note_on_c, 2, 70, 0
5, 31872, Note_on_c, 2, 69, 89
5, 31879, Control_c, 2, 11, 123
5, 31901, Control_c, 2, 11, 124
5, 31923, Control_c, 2, 11, 125
5, 31945, Control_c, 2, 11, 126
5, 31968, Note_on_c, 2, 69, 0
5, 31968, Control_c, 2, 11, 127
5, 31968, Note_on_c, 2, 66, 96
5, 32062, Note_on_c, 2, 66, 0
5, 33696, Control_c, 2, 7, 92
5, 34368, Note_on_c, 2, 62, 94
5, 34400, Note_on_c, 2, 62, 0
5, 34416, Note_on_c, 2, 64, 88
5, 34448, Note_on_c, 2, 64, 0
5, 34464, Note_on_c, 2, 62, 97
5, 34494, Note_on_c, 2, 62, 0
5, 34496, Note_on_c, 2, 64, 110
5, 34526, Note_on_c, 2, 64, 0
5, 34528, Note_on_c, 2, 62, 110
5, 34558, Note_on_c, 2, 62, 0
5, 34560, Note_on_c, 2, 64, 104
5, 34590, Note_on_c, 2, 64, 0
5, 34592, Note_on_c, 2, 62, 103
5, 34622, Note_on_c, 2, 62, 0
5, 34624, Note_on_c, 2, 64, 109
5, 34654, Note_on_c, 2, 64, 0
5, 34656, Note_on_c, 2, 62, 109
5, 34678, Note_on_c, 2, 62, 0
5, 34680, Note_on_c, 2, 64, 92
5, 34702, Note_on_c, 2, 64, 0
5, 34704, Note_on_c, 2, 62, 82
5, 34726, Note_on_c, 2, 62, 0
5, 34728, Note_on_c, 2, 64, 74
5, 34750, Note_on_c, 2, 64, 0
5, 34752, Note_on_c, 2, 62, 65
5, 34784, Note_on_c, 2, 62, 0
5, 34944, Note_on_c, 2, 62, 88
5, 34976, Note_on_c, 2, 62, 0
5, 34992, Note_on_c, 2, 64, 97
5, 35024, Note_on_c, 2, 64, 0
5, 35040, Note_on_c, 2, 62, 97
5, 35070, Note_on_c, 2, 62, 0
5, 35072, Note_on_c, 2, 64, 113
5, 35102, Note_on_c, 2, 64, 0
5, 35104, Note_on_c, 2, 62, 112
5, 35134, Note_on_c, 2, 62, 0
5, 35136, Note_on_c, 2, 64, 110
5, 35166, Note_on_c, 2, 64, 0
5, 35168, Note_on_c, 2, 62, 112
5, 35198, Note_on_c, 2, 62, 0
5, 35200, Note_on_c, 2, 64, 105
5, 35230, Note_on_c, 2, 64, 0
5, 35232, Note_on_c, 2, 62, 111
5, 35254, Note_on_c, 2, 62, 0
5, 35256, Note_on_c, 2, 64, 97
5, 35278, Note_on_c, 2, 64, 0
5, 35280, Note_on_c, 2, 62, 79
5, 35302, Note_on_c, 2, 62, 0
5, 35304, Note_on_c, 2, 64, 76
5, 35326, Note_on_c, 2, 64, 0
5, 35328, Note_on_c, 2, 62, 59
5, 35360, Note_on_c, 2, 62, 0
5, 36000, Control_c, 2, 7, 127
5, 36384, Note_on_c, 2, 61, 63
5, 36406, Note_on_c, 2, 61, 0
5, 36408, Note_on_c, 2, 63, 61
5, 36430, Note_on_c, 2, 63, 0
5, 36432, Note_on_c, 2, 65, 65
5, 36454, Note_on_c, 2, 65, 0
5, 36456, Note_on_c, 2, 66, 60
5, 36478, Note_on_c, 2, 66, 0
5, 36480, Note_on_c, 2, 68, 62
5, 36502, Note_on_c, 2, 68, 0
5, 36504, Note_on_c, 2, 70, 57
5, 36526, Note_on_c, 2, 70, 0
5, 36528, Note_on_c, 2, 72, 61
5, 36550, Note_on_c, 2, 72, 0
5, 36552, Note_on_c, 2, 73, 62
5, 36574, Note_on_c, 2, 73, 0
5, 36576, Note_on_c, 2, 74, 58
5, 36670, Note_on_c, 2, 74, 0
5, 38304, Note_on_c, 2, 65, 35
5, 38346, Note_on_c, 2, 65, 0
5, 38368, Note_on_c, 2, 65, 28
5, 38410, Note_on_c, 2, 65, 0
5, 38432, Note_on_c, 2, 64, 28
5, 38474, Note_on_c, 2, 64, 0
5, 38496, Note_on_c, 2, 63, 27
5, 38832, Note_on_c, 2, 63, 0
5, 42144, Note_on_c, 2, 67, 48
5, 42166, Note_on_c, 2, 67, 0
5, 42168, Note_on_c, 2, 69, 41
5, 42190, Note_on_c, 2, 69, 0
5, 42192, Note_on_c, 2, 67, 41
5, 42214, Note_on_c, 2, 67, 0
5, 42216, Note_on_c, 2, 66, 42
5, 42238, Note_on_c, 2, 66, 0
5, 42240, Note_on_c, 2, 64, 34
5, 42262, Note_on_c, 2, 64, 0
5, 42264, Note_on_c, 2, 63, 32
5, 42286, Note_on_c, 2, 63, 0
5, 42288, Note_on_c, 2, 62, 40
5, 42310, Note_on_c, 2, 62, 0
5, 42312, Note_on_c, 2, 61, 37
5, 42334, Note_on_c, 2, 61, 0
5, 42336, Note_on_c, 2, 60, 32
5, 42430, Note_on_c, 2, 60, 0
5, 43488, Note_on_c, 2, 70, 43
5, 43520, Note_on_c, 2, 70, 0
5, 43584, Note_on_c, 2, 68, 44
5, 43614, Note_on_c, 2, 68, 0
5, 43616, Note_on_c, 2, 71, 47
5, 43646, Note_on_c, 2, 71, 0
5, 43648, Note_on_c, 2, 68, 47
5, 43678, Note_on_c, 2, 68, 0
5, 43680, Note_on_c, 2, 66, 43
5, 43712, Note_on_c, 2, 66, 0
5, 43776, Note_on_c, 2, 64, 49
5, 43806, Note_on_c, 2, 64, 0
5, 43808, Note_on_c, 2, 66, 48
5, 43838, Note_on_c, 2, 66, 0
5, 43840, Note_on_c, 2, 64, 43
5, 43870, Note_on_c, 2, 64, 0
5, 43872, Note_on_c, 2, 62, 42
5, 43966, Note_on_c, 2, 62, 0
5, 44064, Note_on_c, 2, 72, 50
5, 44096, Note_on_c, 2, 72, 0
5, 44160, Note_on_c, 2, 70, 40
5, 44190, Note_on_c, 2, 70, 0
5, 44192, Note_on_c, 2, 72, 41
5, 44222, Note_on_c, 2, 72, 0
5, 44224, Note_on_c, 2, 70, 42
5, 44254, Note_on_c, 2, 70, 0
5, 44256, Note_on_c, 2, 68, 43
5, 44288, Note_on_c, 2, 68, 0
5, 44352, Note_on_c, 2, 66, 44
5, 44382, Note_on_c, 2, 66, 0
5, 44384, Note_on_c, 2, 68, 40
5, 44414, Note_on_c, 2, 68, 0
5, 44416, Note_on_c, 2, 66, 43
5, 44446, Note_on_c, 2, 66, 0
5, 44448, Note_on_c, 2, 64, 40
5, 44480, Note_on_c, 2, 64, 0
5, 45216, Note_on_c, 2, 58, 75
5, 45237, Note_on_c, 2, 58, 0
5, 45248, Note_on_c, 2, 58, 78
5, 45269, Note_on_c, 2, 58, 0
5, 45280, Note_on_c, 2, 58, 79
5, 45301, Note_on_c, 2, 58, 0
5, 45312, Note_on_c, 2, 60, 79
5, 45333, Note_on_c, 2, 60, 0
5, 45344, Note_on_c, 2, 60, 78
5, 45365, Note_on_c, 2, 60, 0
5, 45376, Note_on_c, 2, 60, 77
5, 45397, Note_on_c, 2, 60, 0
5, 45408, Note_on_c, 2, 62, 77
5, 45429, Note_on_c, 2, 62, 0
5, 45440, Note_on_c, 2, 62, 86
5, 45461, Note_on_c, 2, 62, 0
5, 45472, Note_on_c, 2, 62, 81
5, 45493, Note_on_c, 2, 62, 0
5, 45504, Note_on_c, 2, 65, 84
5, 45525, Note_on_c, 2, 65, 0
5, 45536, Note_on_c, 2, 65, 86
5, 45557, Note_on_c, 2, 65, 0
5, 45568, Note_on_c, 2, 65, 87
5, 45589, Note_on_c, 2, 65, 0
5, 45600, Note_on_c, 2, 68, 89
5, 45621, Note_on_c, 2, 68, 0
5, 45632, Note_on_c, 2, 68, 91
5, 45653, Note_on_c, 2, 68, 0
5, 45664, Note_on_c, 2, 68, 90
5, 45685, Note_on_c, 2, 68, 0
5, 45696, Note_on_c, 2, 68, 93
5, 45717, Note_on_c, 2, 68, 0
5, 45728, Note_on_c, 2, 68, 90
5, 45749, Note_on_c, 2, 68, 0
5, 45760, Note_on_c, 2, 68, 92
5, 45781, Note_on_c, 2, 68, 0
5, 45792, Note_on_c, 2, 69, 25
5, 45886, Note_on_c, 2, 69, 0
5, 50400, Control_c, 2, 11, 127
5, 63072, Control_c, 2, 11, 127
5, 63264, Note_on_c, 2, 61, 48
5, 63310, Note_on_c, 2, 61, 0
5, 63312, Note_on_c, 2, 59, 48
5, 63358, Note_on_c, 2, 59, 0
5, 63360, Note_on_c, 2, 61, 40
5, 63406, Note_on_c, 2, 61, 0
5, 63408, Note_on_c, 2, 62, 47
5, 63454, Note_on_c, 2, 62, 0
5, 63456, Note_on_c, 2, 64, 45
5, 63502, Note_on_c, 2, 64, 0
5, 63504, Note_on_c, 2, 66, 45
5, 63550, Note_on_c, 2, 66, 0
5, 63552, Note_on_c, 2, 67, 46
5, 63646, Note_on_c, 2, 67, 0
5, 63840, Note_on_c, 2, 61, 48
5, 63886, Note_on_c, 2, 61, 0
5, 63888, Note_on_c, 2, 59, 45
5, 63934, Note_on_c, 2, 59, 0
5, 63936, Note_on_c, 2, 61, 44
5, 63982, Note_on_c, 2, 61, 0
5, 63984, Note_on_c, 2, 62, 44
5, 64030, Note_on_c, 2, 62, 0
5, 64032, Note_on_c, 2, 64, 43
5, 64078, Note_on_c, 2, 64, 0
5, 64080, Note_on_c, 2, 66, 49
5, 64126, Note_on_c, 2, 66, 0
5, 64128, Note_on_c, 2, 67, 42
5, 64222, Note_on_c, 2, 67, 0
5, 64224, Control_c, 2, 11, 75
5, 64224, Note_on_c, 2, 64, 60
5, 64231, Control_c, 2, 11, 76
5, 64238, Control_c, 2, 11, 77
5, 64246, Control_c, 2, 11, 78
5, 64253, Control_c, 2, 11, 79
5, 64260, Control_c, 2, 11, 80
5, 64268, Control_c, 2, 11, 81
5, 64275, Control_c, 2, 11, 82
5, 64283, Control_c, 2, 11, 83
5, 64290, Control_c, 2, 11, 84
5, 64297, Control_c, 2, 11, 85
5, 64305, Control_c, 2, 11, 86
5, 64312, Control_c, 2, 11, 87
5, 64320, Control_c, 2, 11, 88
5, 64327, Control_c, 2, 11, 89
5, 64334, Control_c, 2, 11, 90
5, 64342, Control_c, 2, 11, 91
5, 64349, Control_c, 2, 11, 92
5, 64356, Control_c, 2, 11, 93
5, 64364, Control_c, 2, 11, 94
5, 64371, Control_c, 2, 11, 95
5, 64379, Control_c, 2, 11, 96
5, 64386, Control_c, 2, 11, 97
5, 64393, Control_c, 2, 11, 98
5, 64401, Control_c, 2, 11, 99
5, 64408, Control_c, 2, 11, 100
5, 64416, Control_c, 2, 11, 101
5, 64423, Control_c, 2, 11, 102
5, 64430, Control_c, 2, 11, 103
5, 64438, Control_c, 2, 11, 104
5, 64445, Control_c, 2, 11, 105
5, 64452, Control_c, 2, 11, 106
5, 64460, Control_c, 2, 11, 107
5, 64467, Control_c, 2, 11, 108
5, 64475, Control_c, 2, 11, 109
5, 64482, Control_c, 2, 11, 110
5, 64489, Control_c, 2, 11, 111
5, 64497, Control_c, 2, 11, 112
5, 64504, Control_c, 2, 11, 113
5, 64512, Control_c, 2, 11, 114
5, 64519, Control_c, 2, 11, 115
5, 64526, Control_c, 2, 11, 116
5, 64534, Control_c, 2, 11, 117
5, 64541, Control_c, 2, 11, 118
5, 64548, Control_c, 2, 11, 119
5, 64556, Control_c, 2, 11, 120
5, 64563, Control_c, 2, 11, 121
5, 64571, Control_c, 2, 11, 122
5, 64578, Control_c, 2, 11, 123
5, 64585, Control_c, 2, 11, 124
5, 64593, Control_c, 2, 11, 125
5, 64600, Control_c, 2, 11, 126
5, 64608, Note_on_c, 2, 64, 0
5, 64608, Control_c, 2, 11, 127
5, 64608, Note_on_c, 2, 65, 55
5, 64768, Note_on_c, 2, 65, 0
5, 64800, Control_c, 2, 11, 75
5, 64800, Note_on_c, 2, 68, 93
5, 64807, Control_c, 2, 11, 76
5, 64814, Control_c, 2, 11, 77
5, 64822, Control_c, 2, 11, 78
5, 64829, Control_c, 2, 11, 79
5, 64836, Control_c, 2, 11, 80
5, 64844, Control_c, 2, 11, 81
5, 64851, Control_c, 2, 11, 82
5, 64859, Control_c, 2, 11, 83
5, 64866, Control_c, 2, 11, 84
5, 64873, Control_c, 2, 11, 85
5, 64881, Control_c, 2, 11, 86
5, 64888, Control_c, 2, 11, 87
5, 64896, Control_c, 2, 11, 88
5, 64903, Control_c, 2, 11, 89
5, 64910, Control_c, 2, 11, 90
5, 64918, Control_c, 2, 11, 91
5, 64925, Control_c, 2, 11, 92
5, 64932, Control_c, 2, 11, 93
5, 64940, Control_c, 2, 11, 94
5, 64947, Control_c, 2, 11, 95
5, 64955, Control_c, 2, 11, 96
5, 64962, Control_c, 2, 11, 97
5, 64969, Control_c, 2, 11, 98
5, 64977, Control_c, 2, 11, 99
5, 64984, Control_c, 2, 11, 100
5, 64992, Control_c, 2, 11, 101
5, 64999, Control_c, 2, 11, 102
5, 65006, Control_c, 2, 11, 103
5, 65014, Control_c, 2, 11, 104
5, 65021, Control_c, 2, 11, 105
5, 65028, Control_c, 2, 11, 106
5, 65036, Control_c, 2, 11, 107
5, 65043, Control_c, 2, 11, 108
5, 65051, Control_c, 2, 11, 109
5, 65058, Control_c, 2, 11, 110
5, 65065, Control_c, 2, 11, 111
5, 65073, Control_c, 2, 11, 112
5, 65080, Control_c, 2, 11, 113
5, 65088, Control_c, 2, 11, 114
5, 65095, Control_c, 2, 11, 115
5, 65102, Control_c, 2, 11, 116
5, 65110, Control_c, 2, 11, 117
5, 65117, Control_c, 2, 11, 118
5, 65124, Control_c, 2, 11, 119
5, 65132, Control_c, 2, 11, 120
5, 65139, Control_c, 2, 11, 121
5, 65147, Control_c, 2, 11, 122
5, 65154, Control_c, 2, 11, 123
5, 65161, Control_c, 2, 11, 124
5, 65169, Control_c, 2, 11, 125
5, 65176, Control_c, 2, 11, 126
5, 65184, Note_on_c, 2, 68, 0
5, 65184, Control_c, 2, 11, 127
5, 65184, Note_on_c, 2, 70, 88
5, 65216, Note_on_c, 2, 70, 0
5, 65280, Control_c, 2, 7, 92
5, 65376, Note_on_c, 2, 63, 95
5, 65470, Note_on_c, 2, 63, 0
5, 65544, Control_c, 2, 11, 75
5, 65544, Note_on_c, 2, 66, 112
5, 65547, Control_c, 2, 11, 76
5, 65551, Control_c, 2, 11, 77
5, 65555, Control_c, 2, 11, 78
5, 65558, Control_c, 2, 11, 79
5, 65562, Control_c, 2, 11, 80
5, 65566, Note_on_c, 2, 66, 0
5, 65566, Control_c, 2, 11, 81
5, 65568, Note_on_c, 2, 65, 107
5, 65569, Control_c, 2, 11, 82
5, 65573, Control_c, 2, 11, 83
5, 65577, Control_c, 2, 11, 84
5, 65580, Control_c, 2, 11, 85
5, 65584, Control_c, 2, 11, 86
5, 65588, Control_c, 2, 11, 87
5, 65592, Control_c, 2, 11, 88
5, 65595, Control_c, 2, 11, 89
5, 65599, Control_c, 2, 11, 90
5, 65603, Control_c, 2, 11, 91
5, 65606, Control_c, 2, 11, 92
5, 65610, Control_c, 2, 11, 93
5, 65614, Control_c, 2, 11, 94
5, 65617, Control_c, 2, 11, 95
5, 65621, Control_c, 2, 11, 96
5, 65625, Control_c, 2, 11, 97
5, 65628, Control_c, 2, 11, 98
5, 65632, Control_c, 2, 11, 99
5, 65636, Control_c, 2, 11, 100
5, 65640, Control_c, 2, 11, 101
5, 65643, Control_c, 2, 11, 102
5, 65647, Control_c, 2, 11, 103
5, 65651, Control_c, 2, 11, 104
5, 65654, Control_c, 2, 11, 105
5, 65658, Control_c, 2, 11, 106
5, 65662, Control_c, 2, 11, 107
5, 65665, Control_c, 2, 11, 108
5, 65669, Control_c, 2, 11, 109
5, 65673, Control_c, 2, 11, 110
5, 65676, Control_c, 2, 11, 111
5, 65680, Control_c, 2, 11, 112
5, 65684, Control_c, 2, 11, 113
5, 65688, Control_c, 2, 11, 114
5, 65691, Control_c, 2, 11, 115
5, 65695, Control_c, 2, 11, 116
5, 65699, Control_c, 2, 11, 117
5, 65702, Control_c, 2, 11, 118
5, 65706, Control_c, 2, 11, 119
5, 65710, Control_c, 2, 11, 120
5, 65713, Control_c, 2, 11, 121
5, 65717, Control_c, 2, 11, 122
5, 65721, Control_c, 2, 11, 123
5, 65724, Control_c, 2, 11, 124
5, 65728, Control_c, 2, 11, 125
5, 65732, Control_c, 2, 11, 126
5, 65736, Control_c, 2, 11, 127
5, 65952, Control_c, 2, 11, 127
5, 65962, Control_c, 2, 11, 126
5, 65973, Control_c, 2, 11, 125
5, 65984, Control_c, 2, 11, 124
5, 65995, Control_c, 2, 11, 123
5, 66005, Control_c, 2, 11, 122
5, 66016, Control_c, 2, 11, 121
5, 66027, Control_c, 2, 11, 120
5, 66038, Control_c, 2, 11, 119
5, 66048, Control_c, 2, 11, 118
5, 66059, Control_c, 2, 11, 117
5, 66070, Control_c, 2, 11, 116
5, 66081, Control_c, 2, 11, 115
5, 66091, Control_c, 2, 11, 114
5, 66102, Control_c, 2, 11, 113
5, 66113, Control_c, 2, 11, 112
5, 66124, Control_c, 2, 11, 111
5, 66135, Control_c, 2, 11, 110
5, 66145, Control_c, 2, 11, 109
5, 66156, Control_c, 2, 11, 108
5, 66167, Control_c, 2, 11, 107
5, 66178, Control_c, 2, 11, 106
5, 66188, Control_c, 2, 11, 105
5, 66199, Control_c, 2, 11, 104
5, 66210, Control_c, 2, 11, 103
5, 66221, Control_c, 2, 11, 102
5, 66231, Control_c, 2, 11, 101
5, 66242, Control_c, 2, 11, 100
5, 66253, Control_c, 2, 11, 99
5, 66264, Control_c, 2, 11, 98
5, 66274, Control_c, 2, 11, 97
5, 66285, Control_c, 2, 11, 96
5, 66296, Control_c, 2, 11, 95
5, 66307, Control_c, 2, 11, 94
5, 66318, Control_c, 2, 11, 93
5, 66328, Control_c, 2, 11, 92
5, 66339, Control_c, 2, 11, 91
5, 66350, Control_c, 2, 11, 90
5, 66361, Control_c, 2, 11, 89
5, 66371, Control_c, 2, 11, 88
5, 66382, Control_c, 2, 11, 87
5, 66393, Control_c, 2, 11, 86
5, 66404, Control_c, 2, 11, 85
5, 66414, Control_c, 2, 11, 84
5, 66425, Control_c, 2, 11, 83
5, 66436, Control_c, 2, 11, 82
5, 66447, Control_c, 2, 11, 81
5, 66458, Control_c, 2, 11, 80
5, 66468, Control_c, 2, 11, 79
5, 66479, Control_c, 2, 11, 78
5, 66490, Control_c, 2, 11, 77
5, 66501, Control_c, 2, 11, 76
5, 66511, Control_c, 2, 11, 75
5, 66522, Control_c, 2, 11, 74
5, 66533, Control_c, 2, 11, 73
5, 66544, Control_c, 2, 11, 72
5, 66554, Control_c, 2, 11, 71
5, 66565, Control_c, 2, 11, 70
5, 66576, Control_c, 2, 11, 69
5, 66587, Control_c, 2, 11, 68
5, 66597, Control_c, 2, 11, 67
5, 66608, Control_c, 2, 11, 66
5, 66619, Control_c, 2, 11, 65
5, 66630, Control_c, 2, 11, 64
5, 66641, Control_c, 2, 11, 63
5, 66651, Control_c, 2, 11, 62
5, 66662, Control_c, 2, 11, 61
5, 66673, Control_c, 2, 11, 60
5, 66684, Control_c, 2, 11, 59
5, 66694, Control_c, 2, 11, 58
5, 66705, Control_c, 2, 11, 57
5, 66716, Control_c, 2, 11, 56
5, 66727, Control_c, 2, 11, 55
5, 66737, Control_c, 2, 11, 54
5, 66748, Control_c, 2, 11, 53
5, 66759, Control_c, 2, 11, 52
5, 66770, Control_c, 2, 11, 51
5, 66781, Control_c, 2, 11, 50
5, 66791, Control_c, 2, 11, 49
5, 66802, Control_c, 2, 11, 48
5, 66813, Control_c, 2, 11, 47
5, 66824, Control_c, 2, 11, 46
5, 66834, Control_c, 2, 11, 45
5, 66845, Control_c, 2, 11, 44
5, 66856, Control_c, 2, 11, 43
5, 66867, Control_c, 2, 11, 42
5, 66877, Control_c, 2, 11, 41
5, 66888, Control_c, 2, 11, 40
5, 66899, Control_c, 2, 11, 39
5, 66910, Control_c, 2, 11, 38
5, 66920, Control_c, 2, 11, 37
5, 66931, Control_c, 2, 11, 36
5, 66942, Control_c, 2, 11, 35
5, 66953, Control_c, 2, 11, 34
5, 66964, Control_c, 2, 11, 33
5, 66974, Control_c, 2, 11, 32
5, 66985, Control_c, 2, 11, 31
5, 66996, Control_c, 2, 11, 30
5, 67007, Control_c, 2, 11, 29
5, 67017, Control_c, 2, 11, 28
5, 67028, Control_c, 2, 11, 27
5, 67039, Control_c, 2, 11, 26
5, 67050, Control_c, 2, 11, 25
5, 67060, Control_c, 2, 11, 24
5, 67071, Control_c, 2, 11, 23
5, 67082, Control_c, 2, 11, 22
5, 67093, Control_c, 2, 11, 21
5, 67104, Control_c, 2, 11, 20
5, 67264, Note_on_c, 2, 65, 0
5, 67680, Control_c, 2, 7, 127
5, 67680, Control_c, 2, 11, 92
5, 67680, Note_on_c, 2, 62, 64
5, 67685, Control_c, 2, 11, 93
5, 67690, Control_c, 2, 11, 94
5, 67696, Control_c, 2, 11, 95
5, 67701, Control_c, 2, 11, 96
5, 67707, Control_c, 2, 11, 97
5, 67712, Control_c, 2, 11, 98
5, 67718, Control_c, 2, 11, 99
5, 67723, Control_c, 2, 11, 100
5, 67726, Note_on_c, 2, 62, 0
5, 67728, Note_on_c, 2, 58, 65
5, 67729, Control_c, 2, 11, 101
5, 67734, Control_c, 2, 11, 102
5, 67740, Control_c, 2, 11, 103
5, 67745, Control_c, 2, 11, 104
5, 67751, Control_c, 2, 11, 105
5, 67756, Control_c, 2, 11, 106
5, 67762, Note_on_c, 2, 58, 0
5, 67762, Control_c, 2, 11, 107
5, 67764, Note_on_c, 2, 62, 60
5, 67767, Control_c, 2, 11, 108
5, 67773, Control_c, 2, 11, 109
5, 67778, Control_c, 2, 11, 110
5, 67784, Control_c, 2, 11, 111
5, 67789, Control_c, 2, 11, 112
5, 67795, Control_c, 2, 11, 113
5, 67798, Note_on_c, 2, 62, 0
5, 67800, Control_c, 2, 11, 114
5, 67800, Note_on_c, 2, 64, 59
5, 67806, Control_c, 2, 11, 115
5, 67811, Control_c, 2, 11, 116
5, 67817, Control_c, 2, 11, 117
5, 67822, Control_c, 2, 11, 118
5, 67828, Control_c, 2, 11, 119
5, 67833, Control_c, 2, 11, 120
5, 67834, Note_on_c, 2, 64, 0
5, 67836, Note_on_c, 2, 65, 63
5, 67839, Control_c, 2, 11, 121
5, 67844, Control_c, 2, 11, 122
5, 67850, Control_c, 2, 11, 123
5, 67855, Control_c, 2, 11, 124
5, 67861, Control_c, 2, 11, 125
5, 67866, Control_c, 2, 11, 126
5, 67870, Note_on_c, 2, 65, 0
5, 67872, Control_c, 2, 11, 127
5, 67872, Note_on_c, 2, 67, 62
5, 67882, Control_c, 2, 11, 126
5, 67893, Control_c, 2, 11, 125
5, 67904, Control_c, 2, 11, 124
5, 67915, Control_c, 2, 11, 123
5, 67926, Control_c, 2, 11, 122
5, 67937, Control_c, 2, 11, 121
5, 67948, Control_c, 2, 11, 120
5, 67959, Control_c, 2, 11, 119
5, 67970, Control_c, 2, 11, 118
5, 67981, Control_c, 2, 11, 117
5, 67992, Control_c, 2, 11, 116
5, 68003, Control_c, 2, 11, 115
5, 68014, Control_c, 2, 11, 114
5, 68025, Control_c, 2, 11, 113
5, 68036, Control_c, 2, 11, 112
5, 68047, Control_c, 2, 11, 111
5, 68058, Control_c, 2, 11, 110
5, 68069, Control_c, 2, 11, 109
5, 68080, Control_c, 2, 11, 108
5, 68091, Control_c, 2, 11, 107
5, 68102, Control_c, 2, 11, 106
5, 68113, Control_c, 2, 11, 105
5, 68124, Control_c, 2, 11, 104
5, 68135, Control_c, 2, 11, 103
5, 68146, Control_c, 2, 11, 102
5, 68157, Control_c, 2, 11, 101
5, 68168, Control_c, 2, 11, 100
5, 68179, Control_c, 2, 11, 99
5, 68190, Control_c, 2, 11, 98
5, 68201, Control_c, 2, 11, 97
5, 68212, Control_c, 2, 11, 96
5, 68223, Control_c, 2, 11, 95
5, 68234, Control_c, 2, 11, 94
5, 68245, Control_c, 2, 11, 93
5, 68256, Control_c, 2, 11, 92
5, 68270, Control_c, 2, 11, 91
5, 68284, Control_c, 2, 11, 90
5, 68298, Control_c, 2, 11, 89
5, 68312, Control_c, 2, 11, 88
5, 68326, Control_c, 2, 11, 87
5, 68340, Control_c, 2, 11, 86
5, 68354, Control_c, 2, 11, 85
5, 68368, Control_c, 2, 11, 84
5, 68382, Control_c, 2, 11, 83
5, 68396, Control_c, 2, 11, 82
5, 68410, Control_c, 2, 11, 81
5, 68424, Control_c, 2, 11, 80
5, 68438, Control_c, 2, 11, 79
5, 68452, Control_c, 2, 11, 78
5, 68466, Control_c, 2, 11, 77
5, 68480, Control_c, 2, 11, 76
5, 68494, Control_c, 2, 11, 75
5, 68508, Control_c, 2, 11, 74
5, 68522, Control_c, 2, 11, 73
5, 68536, Control_c, 2, 11, 72
5, 68551, Control_c, 2, 11, 71
5, 68565, Control_c, 2, 11, 70
5, 68579, Control_c, 2, 11, 69
5, 68593, Control_c, 2, 11, 68
5, 68607, Control_c, 2, 11, 67
5, 68621, Control_c, 2, 11, 66
5, 68635, Control_c, 2, 11, 65
5, 68649, Control_c, 2, 11, 64
5, 68663, Control_c, 2, 11, 63
5, 68677, Control_c, 2, 11, 62
5, 68691, Control_c, 2, 11, 61
5, 68705, Control_c, 2, 11, 60
5, 68719, Control_c, 2, 11, 59
5, 68733, Control_c, 2, 11, 58
5, 68747, Control_c, 2, 11, 57
5, 68761, Control_c, 2, 11, 56
5, 68775, Control_c, 2, 11, 55
5, 68789, Control_c, 2, 11, 54
5, 68803, Control_c, 2, 11, 53
5, 68817, Control_c, 2, 11, 52
5, 68831, Control_c, 2, 11, 51
5, 68846, Control_c, 2, 11, 50
5, 68860, Control_c, 2, 11, 49
5, 68874, Control_c, 2, 11, 48
5, 68888, Control_c, 2, 11, 47
5, 68902, Control_c, 2, 11, 46
5, 68916, Control_c, 2, 11, 45
5, 68930, Control_c, 2, 11, 44
5, 68944, Control_c, 2, 11, 43
5, 68958, Control_c, 2, 11, 42
5, 68972, Control_c, 2, 11, 41
5, 68986, Control_c, 2, 11, 40
5, 69000, Control_c, 2, 11, 39
5, 69014, Control_c, 2, 11, 38
5, 69028, Control_c, 2, 11, 37
5, 69042, Control_c, 2, 11, 36
5, 69056, Control_c, 2, 11, 35
5, 69070, Control_c, 2, 11, 34
5, 69084, Control_c, 2, 11, 33
5, 69098, Control_c, 2, 11, 32
5, 69112, Control_c, 2, 11, 31
5, 69127, Control_c, 2, 11, 30
5, 69141, Control_c, 2, 11, 29
5, 69155, Control_c, 2, 11, 28
5, 69169, Control_c, 2, 11, 27
5, 69183, Control_c, 2, 11, 26
5, 69197, Control_c, 2, 11, 25
5, 69211, Control_c, 2, 11, 24
5, 69225, Control_c, 2, 11, 23
5, 69239, Control_c, 2, 11, 22
5, 69253, Control_c, 2, 11, 21
5, 69267, Control_c, 2, 11, 20
5, 69281, Control_c, 2, 11, 19
5, 69295, Control_c, 2, 11, 18
5, 69309, Control_c, 2, 11, 17
5, 69323, Control_c, 2, 11, 16
5, 69337, Control_c, 2, 11, 15
5, 69351, Control_c, 2, 11, 14
5, 69365, Control_c, 2, 11, 13
5, 69379, Control_c, 2, 11, 12
5, 69393, Control_c, 2, 11, 11
5, 69408, Control_c, 2, 11, 10
5, 69936, Note_on_c, 2, 67, 0
5, 70560, Control_c, 2, 11, 127
5, 72288, Note_on_c, 2, 67, 27
5, 73392, Note_on_c, 2, 67, 0
5, 74592, Control_c, 2, 11, 127
5, 75168, Note_on_c, 2, 65, 34
5, 75200, Note_on_c, 2, 65, 0
5, 75264, Note_on_c, 2, 68, 29
5, 75294, Note_on_c, 2, 68, 0
5, 75296, Note_on_c, 2, 68, 25
5, 75326, Note_on_c, 2, 68, 0
5, 75328, Note_on_c, 2, 66, 32
5, 75358, Note_on_c, 2, 66, 0
5, 75360, Note_on_c, 2, 65, 34
5, 75392, Note_on_c, 2, 65, 0
5, 75456, Note_on_c, 2, 68, 37
5, 75486, Note_on_c, 2, 68, 0
5, 75488, Note_on_c, 2, 67, 44
5, 75518, Note_on_c, 2, 67, 0
5, 75520, Note_on_c, 2, 66, 43
5, 75550, Note_on_c, 2, 66, 0
5, 75552, Note_on_c, 2, 65, 44
5, 75584, Note_on_c, 2, 65, 0
5, 75648, Note_on_c, 2, 69, 44
5, 75680, Note_on_c, 2, 69, 0
5, 76320, Note_on_c, 2, 65, 46
5, 76342, Note_on_c, 2, 65, 0
5, 76344, Note_on_c, 2, 66, 44
5, 76366, Note_on_c, 2, 66, 0
5, 76368, Note_on_c, 2, 65, 43
5, 76390, Note_on_c, 2, 65, 0
5, 76392, Note_on_c, 2, 66, 45
5, 76414, Note_on_c, 2, 66, 0
5, 76416, Note_on_c, 2, 65, 52
5, 76438, Note_on_c, 2, 65, 0
5, 76440, Note_on_c, 2, 66, 54
5, 76462, Note_on_c, 2, 66, 0
5, 76464, Note_on_c, 2, 65, 49
5, 76486, Note_on_c, 2, 65, 0
5, 76488, Note_on_c, 2, 66, 54
5, 76510, Note_on_c, 2, 66, 0
5, 76512, Note_on_c, 2, 65, 51
5, 76544, Note_on_c, 2, 65, 0
5, 76608, Note_on_c, 2, 68, 51
5, 76630, Note_on_c, 2, 68, 0
5, 76632, Note_on_c, 2, 69, 57
5, 76654, Note_on_c, 2, 69, 0
5, 76656, Note_on_c, 2, 71, 63
5, 76678, Note_on_c, 2, 71, 0
5, 76680, Note_on_c, 2, 70, 64
5, 76702, Note_on_c, 2, 70, 0
5, 76704, Note_on_c, 2, 72, 58
5, 76798, Note_on_c, 2, 72, 0
5, 76896, Note_on_c, 2, 64, 46
5, 76917, Note_on_c, 2, 64, 0
5, 76928, Note_on_c, 2, 60, 46
5, 76949, Note_on_c, 2, 60, 0
5, 76960, Note_on_c, 2, 64, 47
5, 76981, Note_on_c, 2, 64, 0
5, 76992, Note_on_c, 2, 60, 45
5, 77013, Note_on_c, 2, 60, 0
5, 77024, Note_on_c, 2, 55, 37
5, 77045, Note_on_c, 2, 55, 0
5, 77056, Note_on_c, 2, 60, 37
5, 77077, Note_on_c, 2, 60, 0
5, 77280, Note_on_c, 2, 64, 49
5, 77301, Note_on_c, 2, 64, 0
5, 77312, Note_on_c, 2, 60, 47
5, 77333, Note_on_c, 2, 60, 0
5, 77344, Note_on_c, 2, 64, 47
5, 77365, Note_on_c, 2, 64, 0
5, 77376, Note_on_c, 2, 60, 40
5, 77397, Note_on_c, 2, 60, 0
5, 77408, Note_on_c, 2, 55, 45
5, 77429, Note_on_c, 2, 55, 0
5, 77440, Note_on_c, 2, 60, 34
5, 77461, Note_on_c, 2, 60, 0
5, 77856, Note_on_c, 2, 58, 44
5, 77886, Note_on_c, 2, 58, 0
5, 77888, Note_on_c, 2, 61, 50
5, 77918, Note_on_c, 2, 61, 0
5, 77920, Note_on_c, 2, 63, 45
5, 77950, Note_on_c, 2, 63, 0
5, 77952, Note_on_c, 2, 65, 56
5, 77982, Note_on_c, 2, 65, 0
5, 77984, Note_on_c, 2, 67, 60
5, 78014, Note_on_c, 2, 67, 0
5, 78016, Note_on_c, 2, 68, 65
5, 78046, Note_on_c, 2, 68, 0
5, 78048, Note_on_c, 2, 70, 32
5, 78080, Note_on_c, 2, 70, 0
5, 78432, Note_on_c, 2, 58, 43
5, 78462, Note_on_c, 2, 58, 0
5, 78464, Note_on_c, 2, 61, 42
5, 78494, Note_on_c, 2, 61, 0
5, 78496, Note_on_c, 2, 63, 50
5, 78526, Note_on_c, 2, 63, 0
5, 78528, Note_on_c, 2, 65, 57
5, 78558, Note_on_c, 2, 65, 0
5, 78560, Note_on_c, 2, 67, 59
5, 78590, Note_on_c, 2, 67, 0
5, 78592, Note_on_c, 2, 68, 59
5, 78622, Note_on_c, 2, 68, 0
5, 78624, Note_on_c, 2, 70, 34
5, 78656, Note_on_c, 2, 70, 0
5, 79008, Note_on_c, 2, 58, 44
5, 79038, Note_on_c, 2, 58, 0
5, 79040, Note_on_c, 2, 61, 45
5, 79070, Note_on_c, 2, 61, 0
5, 79072, Note_on_c, 2, 63, 51
5, 79102, Note_on_c, 2, 63, 0
5, 79104, Note_on_c, 2, 65, 61
5, 79134, Note_on_c, 2, 65, 0
5, 79136, Note_on_c, 2, 67, 61
5, 79166, Note_on_c, 2, 67, 0
5, 79168, Note_on_c, 2, 68, 67
5, 79198, Note_on_c, 2, 68, 0
5, 79200, Note_on_c, 2, 70, 70
5, 79232, Note_on_c, 2, 70, 0
5, 79584, Note_on_c, 2, 58, 42
5, 79614, Note_on_c, 2, 58, 0
5, 79616, Note_on_c, 2, 61, 44
5, 79646, Note_on_c, 2, 61, 0
5, 79648, Note_on_c, 2, 63, 56
5, 79678, Note_on_c, 2, 63, 0
5, 79680, Note_on_c, 2, 65, 57
5, 79710, Note_on_c, 2, 65, 0
5, 79712, Note_on_c, 2, 67, 69
5, 79742, Note_on_c, 2, 67, 0
5, 79744, Note_on_c, 2, 68, 73
5, 79774, Note_on_c, 2, 68, 0
5, 79776, Note_on_c, 2, 70, 42
5, 79808, Note_on_c, 2, 70, 0
5, 80160, Note_on_c, 2, 58, 44
5, 80190, Note_on_c, 2, 58, 0
5, 80192, Note_on_c, 2, 61, 40
5, 80222, Note_on_c, 2, 61, 0
5, 80224, Note_on_c, 2, 63, 50
5, 80254, Note_on_c, 2, 63, 0
5, 80256, Note_on_c, 2, 65, 49
5, 80286, Note_on_c, 2, 65, 0
5, 80288, Note_on_c, 2, 67, 46
5, 80318, Note_on_c, 2, 67, 0
5, 80320, Note_on_c, 2, 68, 53
5, 80350, Note_on_c, 2, 68, 0
5, 80352, Note_on_c, 2, 70, 45
5, 80384, Note_on_c, 2, 70, 0
5, 80544, Control_c, 2, 7, 92
5, 80736, Note_on_c, 2, 58, 65
5, 80766, Note_on_c, 2, 58, 0
5, 80768, Note_on_c, 2, 61, 68
5, 80798, Note_on_c, 2, 61, 0
5, 80800, Note_on_c, 2, 63, 69
5, 80830, Note_on_c, 2, 63, 0
5, 80832, Note_on_c, 2, 65, 60
5, 80862, Note_on_c, 2, 65, 0
5, 80864, Note_on_c, 2, 67, 67
5, 80894, Note_on_c, 2, 67, 0
5, 80896, Note_on_c, 2, 68, 71
5, 80926, Note_on_c, 2, 68, 0
5, 82080, Note_on_c, 2, 74, 107
5, 82104, Note_on_c, 2, 74, 0
5, 82104, Note_on_c, 2, 72, 103
5, 82992, Note_on_c, 2, 72, 0
5, 84384, Note_on_c, 2, 74, 112
5, 84408, Note_on_c, 2, 74, 0
5, 84408, Note_on_c, 2, 72, 110
5, 84960, Control_c, 2, 11, 127
5, 84969, Control_c, 2, 11, 126
5, 84978, Control_c, 2, 11, 125
5, 84988, Control_c, 2, 11, 124
5, 84997, Control_c, 2, 11, 123
5, 85006, Control_c, 2, 11, 122
5, 85016, Control_c, 2, 11, 121
5, 85025, Control_c, 2, 11, 120
5, 85034, Control_c, 2, 11, 119
5, 85044, Control_c, 2, 11, 118
5, 85053, Control_c, 2, 11, 117
5, 85063, Control_c, 2, 11, 116
5, 85072, Control_c, 2, 11, 115
5, 85081, Control_c, 2, 11, 114
5, 85091, Control_c, 2, 11, 113
5, 85100, Control_c, 2, 11, 112
5, 85109, Control_c, 2, 11, 111
5, 85119, Control_c, 2, 11, 110
5, 85128, Control_c, 2, 11, 109
5, 85137, Control_c, 2, 11, 108
5, 85147, Control_c, 2, 11, 107
5, 85156, Control_c, 2, 11, 106
5, 85166, Control_c, 2, 11, 105
5, 85175, Control_c, 2, 11, 104
5, 85184, Control_c, 2, 11, 103
5, 85194, Control_c, 2, 11, 102
5, 85203, Control_c, 2, 11, 101
5, 85212, Control_c, 2, 11, 100
5, 85222, Control_c, 2, 11, 99
5, 85231, Control_c, 2, 11, 98
5, 85240, Control_c, 2, 11, 97
5, 85250, Control_c, 2, 11, 96
5, 85259, Control_c, 2, 11, 95
5, 85269, Control_c, 2, 11, 94
5, 85278, Control_c, 2, 11, 93
5, 85287, Control_c, 2, 11, 92
5, 85297, Control_c, 2, 11, 91
5, 85306, Control_c, 2, 11, 90
5, 85315, Control_c, 2, 11, 89
5, 85325, Control_c, 2, 11, 88
5, 85334, Control_c, 2, 11, 87
5, 85343, Control_c, 2, 11, 86
5, 85353, Control_c, 2, 11, 85
5, 85362, Control_c, 2, 11, 84
5, 85372, Control_c, 2, 11, 83
5, 85381, Control_c, 2, 11, 82
5, 85390, Control_c, 2, 11, 81
5, 85400, Control_c, 2, 11, 80
5, 85409, Control_c, 2, 11, 79
5, 85418, Control_c, 2, 11, 78
5, 85428, Control_c, 2, 11, 77
5, 85437, Control_c, 2, 11, 76
5, 85447, Control_c, 2, 11, 75
5, 85456, Control_c, 2, 11, 74
5, 85465, Control_c, 2, 11, 73
5, 85475, Control_c, 2, 11, 72
5, 85484, Control_c, 2, 11, 71
5, 85493, Control_c, 2, 11, 70
5, 85503, Control_c, 2, 11, 69
5, 85512, Control_c, 2, 11, 68
5, 85521, Control_c, 2, 11, 67
5, 85531, Control_c, 2, 11, 66
5, 85540, Control_c, 2, 11, 65
5, 85550, Control_c, 2, 11, 64
5, 85559, Control_c, 2, 11, 63
5, 85568, Control_c, 2, 11, 62
5, 85578, Control_c, 2, 11, 61
5, 85587, Control_c, 2, 11, 60
5, 85596, Control_c, 2, 11, 59
5, 85606, Control_c, 2, 11, 58
5, 85615, Control_c, 2, 11, 57
5, 85624, Control_c, 2, 11, 56
5, 85634, Control_c, 2, 11, 55
5, 85643, Control_c, 2, 11, 54
5, 85653, Control_c, 2, 11, 53
5, 85662, Control_c, 2, 11, 52
5, 85671, Control_c, 2, 11, 51
5, 85681, Control_c, 2, 11, 50
5, 85690, Control_c, 2, 11, 49
5, 85696, Note_on_c, 2, 72, 0
5, 85699, Control_c, 2, 11, 48
5, 85709, Control_c, 2, 11, 47
5, 85718, Control_c, 2, 11, 46
5, 85728, Control_c, 2, 11, 45
5, 85920, Control_c, 2, 7, 127
5, 86112, Control_c, 2, 11, 127
5, 86880, Control_c, 2, 11, 127
5, 86880, Note_on_c, 2, 64, 27
5, 86883, Control_c, 2, 11, 126
5, 86886, Control_c, 2, 11, 125
5, 86889, Control_c, 2, 11, 124
5, 86892, Control_c, 2, 11, 123
5, 86895, Control_c, 2, 11, 122
5, 86898, Control_c, 2, 11, 121
5, 86901, Control_c, 2, 11, 120
5, 86904, Note_on_c, 2, 64, 0
5, 86904, Control_c, 2, 11, 119
5, 86904, Note_on_c, 2, 68, 29
5, 86907, Control_c, 2, 11, 118
5, 86910, Control_c, 2, 11, 117
5, 86913, Control_c, 2, 11, 116
5, 86916, Control_c, 2, 11, 115
5, 86919, Control_c, 2, 11, 114
5, 86922, Control_c, 2, 11, 113
5, 86925, Control_c, 2, 11, 112
5, 86928, Control_c, 2, 11, 111
5, 86931, Control_c, 2, 11, 110
5, 86934, Control_c, 2, 11, 109
5, 86937, Control_c, 2, 11, 108
5, 86940, Control_c, 2, 11, 107
5, 86944, Control_c, 2, 11, 106
5, 86947, Control_c, 2, 11, 105
5, 86950, Control_c, 2, 11, 104
5, 86953, Control_c, 2, 11, 103
5, 86956, Control_c, 2, 11, 102
5, 86959, Control_c, 2, 11, 101
5, 86962, Control_c, 2, 11, 100
5, 86965, Control_c, 2, 11, 99
5, 86968, Control_c, 2, 11, 98
5, 86971, Control_c, 2, 11, 97
5, 86974, Control_c, 2, 11, 96
5, 86977, Control_c, 2, 11, 95
5, 86980, Control_c, 2, 11, 94
5, 86983, Control_c, 2, 11, 93
5, 86986, Control_c, 2, 11, 92
5, 86989, Control_c, 2, 11, 91
5, 86992, Control_c, 2, 11, 90
5, 86995, Control_c, 2, 11, 89
5, 86998, Control_c, 2, 11, 88
5, 87001, Control_c, 2, 11, 87
5, 87004, Control_c, 2, 11, 86
5, 87008, Control_c, 2, 11, 85
5, 87011, Control_c, 2, 11, 84
5, 87014, Control_c, 2, 11, 83
5, 87017, Control_c, 2, 11, 82
5, 87020, Control_c, 2, 11, 81
5, 87023, Control_c, 2, 11, 80
5, 87026, Control_c, 2, 11, 79
5, 87029, Control_c, 2, 11, 78
5, 87032, Control_c, 2, 11, 77
5, 87035, Control_c, 2, 11, 76
5, 87038, Control_c, 2, 11, 75
5, 87041, Control_c, 2, 11, 74
5, 87044, Control_c, 2, 11, 73
5, 87047, Control_c, 2, 11, 72
5, 87050, Control_c, 2, 11, 71
5, 87053, Control_c, 2, 11, 70
5, 87056, Control_c, 2, 11, 69
5, 87059, Control_c, 2, 11, 68
5, 87062, Control_c, 2, 11, 67
5, 87065, Control_c, 2, 11, 66
5, 87068, Control_c, 2, 11, 65
5, 87072, Control_c, 2, 11, 64
5, 87166, Note_on_c, 2, 68, 0
5, 87456, Control_c, 2, 11, 127
5, 87456, Note_on_c, 2, 64, 29
5, 87459, Control_c, 2, 11, 126
5, 87462, Control_c, 2, 11, 125
5, 87465, Control_c, 2, 11, 124
5, 87468, Control_c, 2, 11, 123
5, 87471, Control_c, 2, 11, 122
5, 87474, Control_c, 2, 11, 121
5, 87477, Control_c, 2, 11, 120
5, 87480, Note_on_c, 2, 64, 0
5, 87480, Control_c, 2, 11, 119
5, 87480, Note_on_c, 2, 68, 25
5, 87483, Control_c, 2, 11, 118
5, 87486, Control_c, 2, 11, 117
5, 87489, Control_c, 2, 11, 116
5, 87492, Control_c, 2, 11, 115
5, 87495, Control_c, 2, 11, 114
5, 87498, Control_c, 2, 11, 113
5, 87501, Control_c, 2, 11, 112
5, 87504, Control_c, 2, 11, 111
5, 87507, Control_c, 2, 11, 110
5, 87510, Control_c, 2, 11, 109
5, 87513, Control_c, 2, 11, 108
5, 87516, Control_c, 2, 11, 107
5, 87520, Control_c, 2, 11, 106
5, 87523, Control_c, 2, 11, 105
5, 87526, Control_c, 2, 11, 104
5, 87529, Control_c, 2, 11, 103
5, 87532, Control_c, 2, 11, 102
5, 87535, Control_c, 2, 11, 101
5, 87538, Control_c, 2, 11, 100
5, 87541, Control_c, 2, 11, 99
5, 87544, Control_c, 2, 11, 98
5, 87547, Control_c, 2, 11, 97
5, 87550, Control_c, 2, 11, 96
5, 87553, Control_c, 2, 11, 95
5, 87556, Control_c, 2, 11, 94
5, 87559, Control_c, 2, 11, 93
5, 87562, Control_c, 2, 11, 92
5, 87565, Control_c, 2, 11, 91
5, 87568, Control_c, 2, 11, 90
5, 87571, Control_c, 2, 11, 89
5, 87574, Control_c, 2, 11, 88
5, 87577, Control_c, 2, 11, 87
5, 87580, Control_c, 2, 11, 86
5, 87584, Control_c, 2, 11, 85
5, 87587, Control_c, 2, 11, 84
5, 87590, Control_c, 2, 11, 83
5, 87593, Control_c, 2, 11, 82
5, 87596, Control_c, 2, 11, 81
5, 87599, Control_c, 2, 11, 80
5, 87602, Control_c, 2, 11, 79
5, 87605, Control_c, 2, 11, 78
5, 87608, Control_c, 2, 11, 77
5, 87611, Control_c, 2, 11, 76
5, 87614, Control_c, 2, 11, 75
5, 87617, Control_c, 2, 11, 74
5, 87620, Control_c, 2, 11, 73
5, 87623, Control_c, 2, 11, 72
5, 87626, Control_c, 2, 11, 71
5, 87629, Control_c, 2, 11, 70
5, 87632, Control_c, 2, 11, 69
5, 87635, Control_c, 2, 11, 68
5, 87638, Control_c, 2, 11, 67
5, 87641, Control_c, 2, 11, 66
5, 87644, Control_c, 2, 11, 65
5, 87648, Control_c, 2, 11, 64
5, 87742, Note_on_c, 2, 68, 0
5, 88032, Control_c, 2, 11, 127
5, 88032, Note_on_c, 2, 64, 35
5, 88035, Control_c, 2, 11, 126
5, 88038, Control_c, 2, 11, 125
5, 88041, Control_c, 2, 11, 124
5, 88044, Control_c, 2, 11, 123
5, 88047, Control_c, 2, 11, 122
5, 88050, Control_c, 2, 11, 121
5, 88053, Control_c, 2, 11, 120
5, 88056, Note_on_c, 2, 64, 0
5, 88056, Control_c, 2, 11, 119
5, 88056, Note_on_c, 2, 68, 28
5, 88059, Control_c, 2, 11, 118
5, 88062, Control_c, 2, 11, 117
5, 88065, Control_c, 2, 11, 116
5, 88068, Control_c, 2, 11, 115
5, 88071, Control_c, 2, 11, 114
5, 88074, Control_c, 2, 11, 113
5, 88077, Control_c, 2, 11, 112
5, 88080, Control_c, 2, 11, 111
5, 88083, Control_c, 2, 11, 110
5, 88086, Control_c, 2, 11, 109
5, 88089, Control_c, 2, 11, 108
5, 88092, Control_c, 2, 11, 107
5, 88096, Control_c, 2, 11, 106
5, 88099, Control_c, 2, 11, 105
5, 88102, Control_c, 2, 11, 104
5, 88105, Control_c, 2, 11, 103
5, 88108, Control_c, 2, 11, 102
5, 88111, Control_c, 2, 11, 101
5, 88114, Control_c, 2, 11, 100
5, 88117, Control_c, 2, 11, 99
5, 88120, Control_c, 2, 11, 98
5, 88123, Control_c, 2, 11, 97
5, 88126, Control_c, 2, 11, 96
5, 88129, Control_c, 2, 11, 95
5, 88132, Control_c, 2, 11, 94
5, 88135, Control_c, 2, 11, 93
5, 88138, Control_c, 2, 11, 92
5, 88141, Control_c, 2, 11, 91
5, 88144, Control_c, 2, 11, 90
5, 88147, Control_c, 2, 11, 89
5, 88150, Control_c, 2, 11, 88
5, 88153, Control_c, 2, 11, 87
5, 88156, Control_c, 2, 11, 86
5, 88160, Control_c, 2, 11, 85
5, 88163, Control_c, 2, 11, 84
5, 88166, Control_c, 2, 11, 83
5, 88169, Control_c, 2, 11, 82
5, 88172, Control_c, 2, 11, 81
5, 88175, Control_c, 2, 11, 80
5, 88178, Control_c, 2, 11, 79
5, 88181, Control_c, 2, 11, 78
5, 88184, Control_c, 2, 11, 77
5, 88187, Control_c, 2, 11, 76
5, 88190, Control_c, 2, 11, 75
5, 88193, Control_c, 2, 11, 74
5, 88196, Control_c, 2, 11, 73
5, 88199, Control_c, 2, 11, 72
5, 88202, Control_c, 2, 11, 71
5, 88205, Control_c, 2, 11, 70
5, 88208, Control_c, 2, 11, 69
5, 88211, Control_c, 2, 11, 68
5, 88214, Control_c, 2, 11, 67
5, 88217, Control_c, 2, 11, 66
5, 88220, Control_c, 2, 11, 65
5, 88224, Control_c, 2, 11, 64
5, 88318, Note_on_c, 2, 68, 0
5, 89184, Control_c, 2, 11, 127
5, 89184, Note_on_c, 2, 64, 35
5, 89187, Control_c, 2, 11, 126
5, 89190, Control_c, 2, 11, 125
5, 89193, Control_c, 2, 11, 124
5, 89196, Control_c, 2, 11, 123
5, 89199, Control_c, 2, 11, 122
5, 89202, Control_c, 2, 11, 121
5, 89205, Control_c, 2, 11, 120
5, 89208, Note_on_c, 2, 64, 0
5, 89208, Control_c, 2, 11, 119
5, 89208, Note_on_c, 2, 68, 33
5, 89211, Control_c, 2, 11, 118
5, 89214, Control_c, 2, 11, 117
5, 89217, Control_c, 2, 11, 116
5, 89220, Control_c, 2, 11, 115
5, 89223, Control_c, 2, 11, 114
5, 89226, Control_c, 2, 11, 113
5, 89229, Control_c, 2, 11, 112
5, 89232, Control_c, 2, 11, 111
5, 89235, Control_c, 2, 11, 110
5, 89238, Control_c, 2, 11, 109
5, 89241, Control_c, 2, 11, 108
5, 89244, Control_c, 2, 11, 107
5, 89248, Control_c, 2, 11, 106
5, 89251, Control_c, 2, 11, 105
5, 89254, Control_c, 2, 11, 104
5, 89257, Control_c, 2, 11, 103
5, 89260, Control_c, 2, 11, 102
5, 89263, Control_c, 2, 11, 101
5, 89266, Control_c, 2, 11, 100
5, 89269, Control_c, 2, 11, 99
5, 89272, Control_c, 2, 11, 98
5, 89275, Control_c, 2, 11, 97
5, 89278, Control_c, 2, 11, 96
5, 89281, Control_c, 2, 11, 95
5, 89284, Control_c, 2, 11, 94
5, 89287, Control_c, 2, 11, 93
5, 89290, Control_c, 2, 11, 92
5, 89293, Control_c, 2, 11, 91
5, 89296, Control_c, 2, 11, 90
5, 89299, Control_c, 2, 11, 89
5, 89302, Control_c, 2, 11, 88
5, 89305, Control_c, 2, 11, 87
5, 89308, Control_c, 2, 11, 86
5, 89312, Control_c, 2, 11, 85
5, 89315, Control_c, 2, 11, 84
5, 89318, Control_c, 2, 11, 83
5, 89321, Control_c, 2, 11, 82
5, 89324, Control_c, 2, 11, 81
5, 89327, Control_c, 2, 11, 80
5, 89330, Control_c, 2, 11, 79
5, 89333, Control_c, 2, 11, 78
5, 89336, Control_c, 2, 11, 77
5, 89339, Control_c, 2, 11, 76
5, 89342, Control_c, 2, 11, 75
5, 89345, Control_c, 2, 11, 74
5, 89348, Control_c, 2, 11, 73
5, 89351, Control_c, 2, 11, 72
5, 89354, Control_c, 2, 11, 71
5, 89357, Control_c, 2, 11, 70
5, 89360, Control_c, 2, 11, 69
5, 89363, Control_c, 2, 11, 68
5, 89366, Control_c, 2, 11, 67
5, 89369, Control_c, 2, 11, 66
5, 89372, Control_c, 2, 11, 65
5, 89376, Control_c, 2, 11, 64
5, 89470, Note_on_c, 2, 68, 0
5, 89760, Control_c, 2, 11, 127
5, 89760, Note_on_c, 2, 64, 32
5, 89763, Control_c, 2, 11, 126
5, 89766, Control_c, 2, 11, 125
5, 89769, Control_c, 2, 11, 124
5, 89772, Control_c, 2, 11, 123
5, 89775, Control_c, 2, 11, 122
5, 89778, Control_c, 2, 11, 121
5, 89781, Control_c, 2, 11, 120
5, 89784, Note_on_c, 2, 64, 0
5, 89784, Control_c, 2, 11, 119
5, 89784, Note_on_c, 2, 68, 26
5, 89787, Control_c, 2, 11, 118
5, 89790, Control_c, 2, 11, 117
5, 89793, Control_c, 2, 11, 116
5, 89796, Control_c, 2, 11, 115
5, 89799, Control_c, 2, 11, 114
5, 89802, Control_c, 2, 11, 113
5, 89805, Control_c, 2, 11, 112
5, 89808, Control_c, 2, 11, 111
5, 89811, Control_c, 2, 11, 110
5, 89814, Control_c, 2, 11, 109
5, 89817, Control_c, 2, 11, 108
5, 89820, Control_c, 2, 11, 107
5, 89824, Control_c, 2, 11, 106
5, 89827, Control_c, 2, 11, 105
5, 89830, Control_c, 2, 11, 104
5, 89833, Control_c, 2, 11, 103
5, 89836, Control_c, 2, 11, 102
5, 89839, Control_c, 2, 11, 101
5, 89842, Control_c, 2, 11, 100
5, 89845, Control_c, 2, 11, 99
5, 89848, Control_c, 2, 11, 98
5, 89851, Control_c, 2, 11, 97
5, 89854, Control_c, 2, 11, 96
5, 89857, Control_c, 2, 11, 95
5, 89860, Control_c, 2, 11, 94
5, 89863, Control_c, 2, 11, 93
5, 89866, Control_c, 2, 11, 92
5, 89869, Control_c, 2, 11, 91
5, 89872, Control_c, 2, 11, 90
5, 89875, Control_c, 2, 11, 89
5, 89878, Control_c, 2, 11, 88
5, 89881, Control_c, 2, 11, 87
5, 89884, Control_c, 2, 11, 86
5, 89888, Control_c, 2, 11, 85
5, 89891, Control_c, 2, 11, 84
5, 89894, Control_c, 2, 11, 83
5, 89897, Control_c, 2, 11, 82
5, 89900, Control_c, 2, 11, 81
5, 89903, Control_c, 2, 11, 80
5, 89906, Control_c, 2, 11, 79
5, 89909, Control_c, 2, 11, 78
5, 89912, Control_c, 2, 11, 77
5, 89915, Control_c, 2, 11, 76
5, 89918, Control_c, 2, 11, 75
5, 89921, Control_c, 2, 11, 74
5, 89924, Control_c, 2, 11, 73
5, 89927, Control_c, 2, 11, 72
5, 89930, Control_c, 2, 11, 71
5, 89933, Control_c, 2, 11, 70
5, 89936, Control_c, 2, 11, 69
5, 89939, Control_c, 2, 11, 68
5, 89942, Control_c, 2, 11, 67
5, 89945, Control_c, 2, 11, 66
5, 89948, Control_c, 2, 11, 65
5, 89952, Control_c, 2, 11, 64
5, 90046, Note_on_c, 2, 68, 0
5, 90336, Control_c, 2, 11, 127
5, 90336, Note_on_c, 2, 64, 35
5, 90339, Control_c, 2, 11, 126
5, 90342, Control_c, 2, 11, 125
5, 90345, Control_c, 2, 11, 124
5, 90348, Control_c, 2, 11, 123
5, 90351, Control_c, 2, 11, 122
5, 90354, Control_c, 2, 11, 121
5, 90357, Control_c, 2, 11, 120
5, 90360, Note_on_c, 2, 64, 0
5, 90360, Control_c, 2, 11, 119
5, 90360, Note_on_c, 2, 68, 26
5, 90363, Control_c, 2, 11, 118
5, 90366, Control_c, 2, 11, 117
5, 90369, Control_c, 2, 11, 116
5, 90372, Control_c, 2, 11, 115
5, 90375, Control_c, 2, 11, 114
5, 90378, Control_c, 2, 11, 113
5, 90381, Control_c, 2, 11, 112
5, 90384, Control_c, 2, 11, 111
5, 90387, Control_c, 2, 11, 110
5, 90390, Control_c, 2, 11, 109
5, 90393, Control_c, 2, 11, 108
5, 90396, Control_c, 2, 11, 107
5, 90400, Control_c, 2, 11, 106
5, 90403, Control_c, 2, 11, 105
5, 90406, Control_c, 2, 11, 104
5, 90409, Control_c, 2, 11, 103
5, 90412, Control_c, 2, 11, 102
5, 90415, Control_c, 2, 11, 101
5, 90418, Control_c, 2, 11, 100
5, 90421, Control_c, 2, 11, 99
5, 90424, Control_c, 2, 11, 98
5, 90427, Control_c, 2, 11, 97
5, 90430, Control_c, 2, 11, 96
5, 90433, Control_c, 2, 11, 95
5, 90436, Control_c, 2, 11, 94
5, 90439, Control_c, 2, 11, 93
5, 90442, Control_c, 2, 11, 92
5, 90445, Control_c, 2, 11, 91
5, 90448, Control_c, 2, 11, 90
5, 90451, Control_c, 2, 11, 89
5, 90454, Control_c, 2, 11, 88
5, 90457, Control_c, 2, 11, 87
5, 90460, Control_c, 2, 11, 86
5, 90464, Control_c, 2, 11, 85
5, 90467, Control_c, 2, 11, 84
5, 90470, Control_c, 2, 11, 83
5, 90473, Control_c, 2, 11, 82
5, 90476, Control_c, 2, 11, 81
5, 90479, Control_c, 2, 11, 80
5, 90482, Control_c, 2, 11, 79
5, 90485, Control_c, 2, 11, 78
5, 90488, Control_c, 2, 11, 77
5, 90491, Control_c, 2, 11, 76
5, 90494, Control_c, 2, 11, 75
5, 90497, Control_c, 2, 11, 74
5, 90500, Control_c, 2, 11, 73
5, 90503, Control_c, 2, 11, 72
5, 90506, Control_c, 2, 11, 71
5, 90509, Control_c, 2, 11, 70
5, 90512, Control_c, 2, 11, 69
5, 90515, Control_c, 2, 11, 68
5, 90518, Control_c, 2, 11, 67
5, 90521, Control_c, 2, 11, 66
5, 90524, Control_c, 2, 11, 65
5, 90528, Control_c, 2, 11, 64
5, 90622, Note_on_c, 2, 68, 0
5, 90720, Control_c, 2, 11, 127
5, 90912, Note_on_c, 2, 71, 44
5, 90954, Note_on_c, 2, 71, 0
5, 90976, Note_on_c, 2, 70, 46
5, 91018, Note_on_c, 2, 70, 0
5, 91040, Note_on_c, 2, 70, 42
5, 91082, Note_on_c, 2, 70, 0
5, 91104, Note_on_c, 2, 68, 45
5, 91166, Note_on_c, 2, 68, 0
5, 91168, Note_on_c, 2, 66, 46
5, 91230, Note_on_c, 2, 66, 0
5, 91232, Note_on_c, 2, 64, 60
5, 91294, Note_on_c, 2, 64, 0
5, 91296, Note_on_c, 2, 62, 56
5, 91328, Note_on_c, 2, 62, 0
5, 92448, Note_on_c, 2, 68, 63
5, 92510, Note_on_c, 2, 68, 0
5, 92512, Note_on_c, 2, 71, 62
5, 92554, Note_on_c, 2, 71, 0
5, 92576, Note_on_c, 2, 70, 60
5, 92618, Note_on_c, 2, 70, 0
5, 92640, Note_on_c, 2, 70, 63
5, 92702, Note_on_c, 2, 70, 0
5, 92704, Note_on_c, 2, 68, 58
5, 92746, Note_on_c, 2, 68, 0
5, 92768, Note_on_c, 2, 68, 63
5, 92810, Note_on_c, 2, 68, 0
5, 92832, Note_on_c, 2, 68, 64
5, 92894, Note_on_c, 2, 68, 0
5, 92896, Note_on_c, 2, 73, 59
5, 92958, Note_on_c, 2, 73, 0
5, 92960, Note_on_c, 2, 71, 64
5, 93022, Note_on_c, 2, 71, 0
5, 93024, Note_on_c, 2, 71, 60
5, 93038, Note_on_c, 2, 71, 0
5, 93040, Note_on_c, 2, 70, 62
5, 93086, Note_on_c, 2, 70, 0
5, 93088, Note_on_c, 2, 68, 64
5, 93130, Note_on_c, 2, 68, 0
5, 93152, Note_on_c, 2, 68, 64
5, 93194, Note_on_c, 2, 68, 0
5, 93216, Note_on_c, 2, 68, 56
5, 93258, Note_on_c, 2, 68, 0
5, 93280, Note_on_c, 2, 71, 59
5, 93342, Note_on_c, 2, 71, 0
5, 93344, Note_on_c, 2, 70, 58
5, 93406, Note_on_c, 2, 70, 0
5, 93408, Note_on_c, 2, 68, 59
5, 93470, Note_on_c, 2, 68, 0
5, 93472, Note_on_c, 2, 70, 59
5, 93534, Note_on_c, 2, 70, 0
5, 93536, Note_on_c, 2, 71, 80
5, 93598, Note_on_c, 2, 71, 0
5, 94752, Note_on_c, 2, 62, 41
5, 94814, Note_on_c, 2, 62, 0
5, 94816, Note_on_c, 2, 66, 47
5, 94858, Note_on_c, 2, 66, 0
5, 94880, Note_on_c, 2, 64, 42
5, 94922, Note_on_c, 2, 64, 0
5, 94944, Note_on_c, 2, 66, 49
5, 94958, Note_on_c, 2, 66, 0
5, 94960, Note_on_c, 2, 64, 45
5, 95006, Note_on_c, 2, 64, 0
5, 95008, Note_on_c, 2, 63, 40
5, 95050, Note_on_c, 2, 63, 0
5, 95072, Note_on_c, 2, 63, 48
5, 95114, Note_on_c, 2, 63, 0
5, 95136, Note_on_c, 2, 63, 48
5, 95198, Note_on_c, 2, 63, 0
5, 95200, Note_on_c, 2, 68, 50
5, 95242, Note_on_c, 2, 68, 0
5, 95264, Note_on_c, 2, 66, 48
5, 95306, Note_on_c, 2, 66, 0
5, 95328, Note_on_c, 2, 62, 48
5, 95390, Note_on_c, 2, 62, 0
5, 95392, Note_on_c, 2, 66, 44
5, 95434, Note_on_c, 2, 66, 0
5, 95456, Note_on_c, 2, 64, 48
5, 95498, Note_on_c, 2, 64, 0
5, 95520, Note_on_c, 2, 66, 49
5, 95534, Note_on_c, 2, 66, 0
5, 95536, Note_on_c, 2, 64, 45
5, 95582, Note_on_c, 2, 64, 0
5, 95584, Note_on_c, 2, 63, 45
5, 95626, Note_on_c, 2, 63, 0
5, 95648, Note_on_c, 2, 63, 42
5, 95690, Note_on_c, 2, 63, 0
5, 95712, Note_on_c, 2, 63, 43
5, 95774, Note_on_c, 2, 63, 0
5, 95776, Note_on_c, 2, 68, 50
5, 95818, Note_on_c, 2, 68, 0
5, 95840, Note_on_c, 2, 66, 42
5, 95882, Note_on_c, 2, 66, 0
5, 96096, Note_on_c, 2, 67, 46
5, 96120, Note_on_c, 2, 67, 0
5, 96120, Note_on_c, 2, 64, 48
5, 96382, Note_on_c, 2, 64, 0
5, 96672, Note_on_c, 2, 67, 43
5, 96696, Note_on_c, 2, 67, 0
5, 96696, Note_on_c, 2, 64, 43
5, 96958, Note_on_c, 2, 64, 0
5, 97248, Control_c, 2, 11, 92
5, 97248, Note_on_c, 2, 67, 64
5, 97253, Control_c, 2, 11, 93
5, 97258, Control_c, 2, 11, 94
5, 97264, Control_c, 2, 11, 95
5, 97269, Control_c, 2, 11, 96
5, 97272, Note_on_c, 2, 67, 0
5, 97272, Note_on_c, 2, 64, 64
5, 97275, Control_c, 2, 11, 97
5, 97280, Control_c, 2, 11, 98
5, 97286, Control_c, 2, 11, 99
5, 97291, Control_c, 2, 11, 100
5, 97297, Control_c, 2, 11, 101
5, 97302, Control_c, 2, 11, 102
5, 97308, Control_c, 2, 11, 103
5, 97313, Control_c, 2, 11, 104
5, 97319, Control_c, 2, 11, 105
5, 97324, Control_c, 2, 11, 106
5, 97330, Control_c, 2, 11, 107
5, 97335, Control_c, 2, 11, 108
5, 97341, Control_c, 2, 11, 109
5, 97346, Control_c, 2, 11, 110
5, 97352, Control_c, 2, 11, 111
5, 97357, Control_c, 2, 11, 112
5, 97363, Control_c, 2, 11, 113
5, 97368, Control_c, 2, 11, 114
5, 97374, Control_c, 2, 11, 115
5, 97379, Control_c, 2, 11, 116
5, 97385, Control_c, 2, 11, 117
5, 97390, Control_c, 2, 11, 118
5, 97396, Control_c, 2, 11, 119
5, 97401, Control_c, 2, 11, 120
5, 97407, Control_c, 2, 11, 121
5, 97412, Control_c, 2, 11, 122
5, 97418, Control_c, 2, 11, 123
5, 97423, Control_c, 2, 11, 124
5, 97429, Control_c, 2, 11, 125
5, 97434, Control_c, 2, 11, 126
5, 97440, Control_c, 2, 11, 127
5, 97534, Note_on_c, 2, 64, 0
5, 97632, Note_on_c, 2, 75, 62
5, 97646, Note_on_c, 2, 75, 0
5, 97648, Note_on_c, 2, 73, 61
5, 97694, Note_on_c, 2, 73, 0
5, 97696, Note_on_c, 2, 71, 59
5, 97738, Note_on_c, 2, 71, 0
5, 97760, Note_on_c, 2, 71, 61
5, 97802, Note_on_c, 2, 71, 0
5, 97824, Note_on_c, 2, 71, 69
5, 97886, Note_on_c, 2, 71, 0
5, 97888, Note_on_c, 2, 70, 67
5, 97930, Note_on_c, 2, 70, 0
5, 97952, Note_on_c, 2, 70, 72
5, 97994, Note_on_c, 2, 70, 0
5, 98016, Note_on_c, 2, 68, 75
5, 98030, Note_on_c, 2, 68, 0
5, 98032, Note_on_c, 2, 70, 66
5, 98078, Note_on_c, 2, 70, 0
5, 98080, Note_on_c, 2, 71, 75
5, 98142, Note_on_c, 2, 71, 0
5, 98144, Note_on_c, 2, 73, 75
5, 98206, Note_on_c, 2, 73, 0
5, 98400, Note_on_c, 2, 67, 47
5, 98424, Note_on_c, 2, 67, 0
5, 98424, Note_on_c, 2, 64, 42
5, 98686, Note_on_c, 2, 64, 0
5, 98976, Note_on_c, 2, 67, 46
5, 99000, Note_on_c, 2, 67, 0
5, 99000, Note_on_c, 2, 64, 47
5, 99262, Note_on_c, 2, 64, 0
5, 99552, Control_c, 2, 11, 92
5, 99552, Note_on_c, 2, 67, 58
5, 99557, Control_c, 2, 11, 93
5, 99562, Control_c, 2, 11, 94
5, 99568, Control_c, 2, 11, 95
5, 99573, Control_c, 2, 11, 96
5, 99576, Note_on_c, 2, 67, 0
5, 99576, Note_on_c, 2, 64, 63
5, 99579, Control_c, 2, 11, 97
5, 99584, Control_c, 2, 11, 98
5, 99590, Control_c, 2, 11, 99
5, 99595, Control_c, 2, 11, 100
5, 99601, Control_c, 2, 11, 101
5, 99606, Control_c, 2, 11, 102
5, 99612, Control_c, 2, 11, 103
5, 99617, Control_c, 2, 11, 104
5, 99623, Control_c, 2, 11, 105
5, 99628, Control_c, 2, 11, 106
5, 99634, Control_c, 2, 11, 107
5, 99639, Control_c, 2, 11, 108
5, 99645, Control_c, 2, 11, 109
5, 99650, Control_c, 2, 11, 110
5, 99656, Control_c, 2, 11, 111
5, 99661, Control_c, 2, 11, 112
5, 99667, Control_c, 2, 11, 113
5, 99672, Control_c, 2, 11, 114
5, 99678, Control_c, 2, 11, 115
5, 99683, Control_c, 2, 11, 116
5, 99689, Control_c, 2, 11, 117
5, 99694, Control_c, 2, 11, 118
5, 99700, Control_c, 2, 11, 119
5, 99705, Control_c, 2, 11, 120
5, 99711, Control_c, 2, 11, 121
5, 99716, Control_c, 2, 11, 122
5, 99722, Control_c, 2, 11, 123
5, 99727, Control_c, 2, 11, 124
5, 99733, Control_c, 2, 11, 125
5, 99738, Control_c, 2, 11, 126
5, 99744, Control_c, 2, 11, 127
5, 99838, Note_on_c, 2, 64, 0
5, 99936, Note_on_c, 2, 75, 56
5, 99950, Note_on_c, 2, 75, 0
5, 99952, Note_on_c, 2, 73, 59
5, 99998, Note_on_c, 2, 73, 0
5, 100000, Note_on_c, 2, 71, 66
5, 100042, Note_on_c, 2, 71, 0
5, 100064, Note_on_c, 2, 71, 61
5, 100106, Note_on_c, 2, 71, 0
5, 100128, Note_on_c, 2, 71, 65
5, 100190, Note_on_c, 2, 71, 0
5, 100192, Note_on_c, 2, 70, 68
5, 100234, Note_on_c, 2, 70, 0
5, 100256, Note_on_c, 2, 70, 71
5, 100298, Note_on_c, 2, 70, 0
5, 100320, Note_on_c, 2, 68, 68
5, 100334, Note_on_c, 2, 68, 0
5, 100336, Note_on_c, 2, 70, 74
5, 100382, Note_on_c, 2, 70, 0
5, 100384, Note_on_c, 2, 71, 69
5, 100446, Note_on_c, 2, 71, 0
5, 100448, Note_on_c, 2, 73, 78
5, 100510, Note_on_c, 2, 73, 0
5, 101088, Control_c, 2, 11, 127
5, 101664, Note_on_c, 2, 63, 45
5, 101726, Note_on_c, 2, 63, 0
5, 101728, Note_on_c, 2, 64, 54
5, 101790, Note_on_c, 2, 64, 0
5, 101792, Note_on_c, 2, 66, 70
5, 101854, Note_on_c, 2, 66, 0
5, 101856, Note_on_c, 2, 71, 78
5, 101888, Note_on_c, 2, 71, 0
5, 102240, Note_on_c, 2, 66, 47
5, 102302, Note_on_c, 2, 66, 0
5, 102304, Note_on_c, 2, 68, 58
5, 102366, Note_on_c, 2, 68, 0
5, 102368, Note_on_c, 2, 69, 67
5, 102430, Note_on_c, 2, 69, 0
5, 102432, Note_on_c, 2, 75, 70
5, 102464, Note_on_c, 2, 75, 0
5, 104544, Note_on_c, 2, 59, 49
5, 104586, Note_on_c, 2, 59, 0
5, 104608, Note_on_c, 2, 61, 45
5, 104650, Note_on_c, 2, 61, 0
5, 104672, Note_on_c, 2, 62, 51
5, 104714, Note_on_c, 2, 62, 0
5, 104736, Note_on_c, 2, 64, 50
5, 104778, Note_on_c, 2, 64, 0
5, 104800, Note_on_c, 2, 66, 58
5, 104842, Note_on_c, 2, 66, 0
5, 104864, Note_on_c, 2, 68, 58
5, 104906, Note_on_c, 2, 68, 0
5, 104928, Note_on_c, 2, 69, 63
5, 104970, Note_on_c, 2, 69, 0
5, 104992, Note_on_c, 2, 71, 66
5, 105034, Note_on_c, 2, 71, 0
5, 105056, Note_on_c, 2, 73, 71
5, 105098, Note_on_c, 2, 73, 0
5, 105120, Note_on_c, 2, 74, 78
5, 105152, Note_on_c, 2, 74, 0
5, 106848, Note_on_c, 2, 59, 47
5, 106890, Note_on_c, 2, 59, 0
5, 106912, Note_on_c, 2, 61, 41
5, 106954, Note_on_c, 2, 61, 0
5, 106976, Note_on_c, 2, 62, 52
5, 107018, Note_on_c, 2, 62, 0
5, 107040, Note_on_c, 2, 64, 48
5, 107082, Note_on_c, 2, 64, 0
5, 107104, Note_on_c, 2, 66, 51
5, 107146, Note_on_c, 2, 66, 0
5, 107168, Note_on_c, 2, 68, 57
5, 107210, Note_on_c, 2, 68, 0
5, 107232, Note_on_c, 2, 69, 62
5, 107274, Note_on_c, 2, 69, 0
5, 107296, Note_on_c, 2, 71, 66
5, 107338, Note_on_c, 2, 71, 0
5, 107360, Note_on_c, 2, 73, 68
5, 107402, Note_on_c, 2, 73, 0
5, 107424, Note_on_c, 2, 74, 71
5, 107456, Note_on_c, 2, 74, 0
5, 109728, Note_on_c, 2, 74, 91
5, 109760, Note_on_c, 2, 74, 0
5, 109920, Control_c, 2, 7, 92
5, 110112, Note_on_c, 2, 74, 91
5, 110154, Note_on_c, 2, 74, 0
5, 110176, Note_on_c, 2, 74, 87
5, 110218, Note_on_c, 2, 74, 0
5, 110240, Note_on_c, 2, 74, 94
5, 110282, Note_on_c, 2, 74, 0
5, 110304, Note_on_c, 2, 74, 99
5, 110346, Note_on_c, 2, 74, 0
5, 110368, Note_on_c, 2, 74, 101
5, 110410, Note_on_c, 2, 74, 0
5, 110432, Note_on_c, 2, 74, 106
5, 110474, Note_on_c, 2, 74, 0
5, 110496, Note_on_c, 2, 71, 109
5, 110528, Note_on_c, 2, 71, 0
5, 111264, Note_on_c, 2, 68, 93
5, 111306, Note_on_c, 2, 68, 0
5, 111328, Note_on_c, 2, 68, 96
5, 111370, Note_on_c, 2, 68, 0
5, 111392, Note_on_c, 2, 68, 94
5, 111434, Note_on_c, 2, 68, 0
5, 111456, Note_on_c, 2, 65, 96
5, 111498, Note_on_c, 2, 65, 0
5, 111520, Note_on_c, 2, 65, 95
5, 111562, Note_on_c, 2, 65, 0
5, 111584, Note_on_c, 2, 65, 91
5, 111626, Note_on_c, 2, 65, 0
5, 111648, Note_on_c, 2, 68, 102
5, 111690, Note_on_c, 2, 68, 0
5, 111712, Note_on_c, 2, 68, 99
5, 111754, Note_on_c, 2, 68, 0
5, 111776, Note_on_c, 2, 68, 97
5, 111818, Note_on_c, 2, 68, 0
5, 111840, Note_on_c, 2, 65, 102
5, 111882, Note_on_c, 2, 65, 0
5, 111904, Note_on_c, 2, 65, 102
5, 111946, Note_on_c, 2, 65, 0
5, 111968, Note_on_c, 2, 65, 104
5, 112010, Note_on_c, 2, 65, 0
5, 112032, Note_on_c, 2, 66, 106
5, 112064, Note_on_c, 2, 66, 0
5, 112800, Note_on_c, 2, 73, 91
5, 112920, Note_on_c, 2, 73, 0
5, 112992, Note_on_c, 2, 70, 88
5, 113112, Note_on_c, 2, 70, 0
5, 113184, Note_on_c, 2, 68, 81
5, 113304, Note_on_c, 2, 68, 0
5, 113376, Note_on_c, 2, 65, 70
5, 113496, Note_on_c, 2, 65, 0
5, 113568, Note_on_c, 2, 62, 55
5, 113616, Note_on_c, 2, 62, 0
5, 113824, Note_on_c, 2, 62, 62
5, 113886, Note_on_c, 2, 62, 0
5, 113888, Note_on_c, 2, 65, 62
5, 113950, Note_on_c, 2, 65, 0
5, 113952, Note_on_c, 2, 68, 58
5, 113994, Note_on_c, 2, 68, 0
5, 114016, Note_on_c, 2, 68, 57
5, 114078, Note_on_c, 2, 68, 0
5, 114080, Note_on_c, 2, 69, 59
5, 114142, Note_on_c, 2, 69, 0
5, 114144, Note_on_c, 2, 73, 56
5, 114186, Note_on_c, 2, 73, 0
5, 114208, Note_on_c, 2, 73, 64
5, 114272, Note_on_c, 2, 73, 0
5, 114272, Note_on_c, 2, 74, 61
5, 114336, Note_on_c, 2, 74, 0
5, 114336, Note_on_c, 2, 77, 105
5, 114368, Note_on_c, 2, 77, 0
5, 114912, Note_on_c, 2, 68, 96
5, 114954, Note_on_c, 2, 68, 0
5, 114976, Note_on_c, 2, 68, 94
5, 115018, Note_on_c, 2, 68, 0
5, 115040, Note_on_c, 2, 68, 91
5, 115082, Note_on_c, 2, 68, 0
5, 115104, Note_on_c, 2, 68, 91
5, 115136, Note_on_c, 2, 68, 0
5, 115296, Note_on_c, 2, 68, 104
5, 115338, Note_on_c, 2, 68, 0
5, 115360, Note_on_c, 2, 68, 104
5, 115402, Note_on_c, 2, 68, 0
5, 115424, Note_on_c, 2, 68, 104
5, 115466, Note_on_c, 2, 68, 0
5, 115488, Note_on_c, 2, 68, 104
5, 115520, Note_on_c, 2, 68, 0
5, 116064, Note_on_c, 2, 68, 92
5, 116106, Note_on_c, 2, 68, 0
5, 116128, Note_on_c, 2, 68, 94
5, 116170, Note_on_c, 2, 68, 0
5, 116192, Note_on_c, 2, 68, 92
5, 116234, Note_on_c, 2, 68, 0
5, 116256, Note_on_c, 2, 68, 91
5, 116288, Note_on_c, 2, 68, 0
5, 116448, Note_on_c, 2, 72, 103
5, 116490, Note_on_c, 2, 72, 0
5, 116512, Note_on_c, 2, 72, 104
5, 116554, Note_on_c, 2, 72, 0
5, 116576, Note_on_c, 2, 72, 105
5, 116618, Note_on_c, 2, 72, 0
5, 116640, Note_on_c, 2, 68, 107
5, 116662, Note_on_c, 2, 68, 0
5, 116664, Note_on_c, 2, 67, 111
5, 116686, Note_on_c, 2, 67, 0
5, 116688, Note_on_c, 2, 68, 112
5, 116710, Note_on_c, 2, 68, 0
5, 116712, Note_on_c, 2, 67, 104
5, 116734, Note_on_c, 2, 67, 0
5, 116736, Note_on_c, 2, 68, 106
5, 116758, Note_on_c, 2, 68, 0
5, 116760, Note_on_c, 2, 67, 106
5, 116782, Note_on_c, 2, 67, 0
5, 116784, Note_on_c, 2, 68, 107
5, 116806, Note_on_c, 2, 68, 0
5, 116808, Note_on_c, 2, 67, 108
5, 116830, Note_on_c, 2, 67, 0
5, 116832, Note_on_c, 2, 68, 105
5, 116854, Note_on_c, 2, 68, 0
5, 116856, Note_on_c, 2, 67, 108
5, 116878, Note_on_c, 2, 67, 0
5, 116880, Note_on_c, 2, 68, 111
5, 116902, Note_on_c, 2, 68, 0
5, 116904, Note_on_c, 2, 67, 108
5, 116926, Note_on_c, 2, 67, 0
5, 116928, Note_on_c, 2, 68, 107
5, 116950, Note_on_c, 2, 68, 0
5, 116952, Note_on_c, 2, 67, 112
5, 116974, Note_on_c, 2, 67, 0
5, 116976, Note_on_c, 2, 68, 110
5, 116998, Note_on_c, 2, 68, 0
5, 117000, Note_on_c, 2, 67, 110
5, 117022, Note_on_c, 2, 67, 0
5, 117024, Note_on_c, 2, 68, 108
5, 117046, Note_on_c, 2, 68, 0
5, 117048, Note_on_c, 2, 67, 105
5, 117070, Note_on_c, 2, 67, 0
5, 117072, Note_on_c, 2, 68, 113
5, 117094, Note_on_c, 2, 68, 0
5, 117096, Note_on_c, 2, 67, 113
5, 117118, Note_on_c, 2, 67, 0
5, 117120, Note_on_c, 2, 68, 106
5, 117142, Note_on_c, 2, 68, 0
5, 117144, Note_on_c, 2, 67, 103
5, 117166, Note_on_c, 2, 67, 0
5, 117168, Note_on_c, 2, 68, 108
5, 117190, Note_on_c, 2, 68, 0
5, 117192, Note_on_c, 2, 67, 112
5, 117214, Note_on_c, 2, 67, 0
5, 117216, Note_on_c, 2, 68, 107
5, 117238, Note_on_c, 2, 68, 0
5, 117240, Note_on_c, 2, 67, 112
5, 117262, Note_on_c, 2, 67, 0
5, 117264, Note_on_c, 2, 68, 103
5, 117286, Note_on_c, 2, 68, 0
5, 117288, Note_on_c, 2, 67, 104
5, 117310, Note_on_c, 2, 67, 0
5, 117312, Note_on_c, 2, 68, 113
5, 117334, Note_on_c, 2, 68, 0
5, 117336, Note_on_c, 2, 67, 103
5, 117358, Note_on_c, 2, 67, 0
5, 117360, Note_on_c, 2, 68, 111
5, 117382, Note_on_c, 2, 68, 0
5, 117384, Note_on_c, 2, 67, 108
5, 117406, Note_on_c, 2, 67, 0
5, 117408, Note_on_c, 2, 68, 110
5, 117430, Note_on_c, 2, 68, 0
5, 117432, Note_on_c, 2, 67, 103
5, 117454, Note_on_c, 2, 67, 0
5, 117456, Note_on_c, 2, 68, 106
5, 117478, Note_on_c, 2, 68, 0
5, 117480, Note_on_c, 2, 67, 112
5, 117502, Note_on_c, 2, 67, 0
5, 117504, Note_on_c, 2, 68, 105
5, 117526, Note_on_c, 2, 68, 0
5, 117528, Note_on_c, 2, 67, 103
5, 117550, Note_on_c, 2, 67, 0
5, 117552, Note_on_c, 2, 68, 110
5, 117574, Note_on_c, 2, 68, 0
5, 117576, Note_on_c, 2, 67, 110
5, 117598, Note_on_c, 2, 67, 0
5, 117600, Note_on_c, 2, 68, 105
5, 117622, Note_on_c, 2, 68, 0
5, 117624, Note_on_c, 2, 67, 107
5, 117646, Note_on_c, 2, 67, 0
5, 117648, Note_on_c, 2, 68, 113
5, 117670, Note_on_c, 2, 68, 0
5, 117672, Note_on_c, 2, 67, 103
5, 117694, Note_on_c, 2, 67, 0
5, 117696, Note_on_c, 2, 68, 110
5, 117718, Note_on_c, 2, 68, 0
5, 117720, Note_on_c, 2, 67, 105
5, 117742, Note_on_c, 2, 67, 0
5, 117744, Note_on_c, 2, 68, 111
5, 117766, Note_on_c, 2, 68, 0
5, 117768, Note_on_c, 2, 67, 112
5, 117790, Note_on_c, 2, 67, 0
5, 117792, Note_on_c, 2, 68, 112
5, 117814, Note_on_c, 2, 68, 0
5, 117816, Note_on_c, 2, 67, 112
5, 117838, Note_on_c, 2, 67, 0
5, 117840, Note_on_c, 2, 68, 111
5, 117862, Note_on_c, 2, 68, 0
5, 117864, Note_on_c, 2, 67, 104
5, 117886, Note_on_c, 2, 67, 0
5, 117888, Note_on_c, 2, 68, 108
5, 117910, Note_on_c, 2, 68, 0
5, 117912, Note_on_c, 2, 67, 105
5, 117934, Note_on_c, 2, 67, 0
5, 117936, Note_on_c, 2, 68, 105
5, 117958, Note_on_c, 2, 68, 0
5, 117960, Note_on_c, 2, 67, 107
5, 117982, Note_on_c, 2, 67, 0
5, 117984, Note_on_c, 2, 68, 110
5, 118006, Note_on_c, 2, 68, 0
5, 118008, Note_on_c, 2, 67, 107
5, 118030, Note_on_c, 2, 67, 0
5, 118032, Note_on_c, 2, 68, 113
5, 118054, Note_on_c, 2, 68, 0
5, 118056, Note_on_c, 2, 67, 106
5, 118078, Note_on_c, 2, 67, 0
5, 118080, Note_on_c, 2, 68, 107
5, 118102, Note_on_c, 2, 68, 0
5, 118104, Note_on_c, 2, 67, 106
5, 118126, Note_on_c, 2, 67, 0
5, 118128, Note_on_c, 2, 68, 106
5, 118150, Note_on_c, 2, 68, 0
5, 118152, Note_on_c, 2, 67, 112
5, 118174, Note_on_c, 2, 67, 0
5, 118176, Note_on_c, 2, 68, 106
5, 118198, Note_on_c, 2, 68, 0
5, 118200, Note_on_c, 2, 67, 113
5, 118222, Note_on_c, 2, 67, 0
5, 118224, Note_on_c, 2, 68, 105
5, 118246, Note_on_c, 2, 68, 0
5, 118248, Note_on_c, 2, 67, 109
5, 118270, Note_on_c, 2, 67, 0
5, 118272, Note_on_c, 2, 68, 103
5, 118294, Note_on_c, 2, 68, 0
5, 118296, Note_on_c, 2, 67, 106
5, 118318, Note_on_c, 2, 67, 0
5, 118320, Note_on_c, 2, 68, 110
5, 118342, Note_on_c, 2, 68, 0
5, 118344, Note_on_c, 2, 67, 103
5, 118366, Note_on_c, 2, 67, 0
5, 118368, Note_on_c, 2, 68, 112
5, 118390, Note_on_c, 2, 68, 0
5, 118392, Note_on_c, 2, 67, 104
5, 118414, Note_on_c, 2, 67, 0
5, 118416, Note_on_c, 2, 68, 111
5, 118438, Note_on_c, 2, 68, 0
5, 118440, Note_on_c, 2, 67, 104
5, 118462, Note_on_c, 2, 67, 0
5, 118464, Note_on_c, 2, 68, 105
5, 118486, Note_on_c, 2, 68, 0
5, 118488, Note_on_c, 2, 67, 104
5, 118510, Note_on_c, 2, 67, 0
5, 118512, Note_on_c, 2, 68, 109
5, 118534, Note_on_c, 2, 68, 0
5, 118536, Note_on_c, 2, 67, 105
5, 118558, Note_on_c, 2, 67, 0
5, 118560, Note_on_c, 2, 68, 112
5, 118582, Note_on_c, 2, 68, 0
5, 118584, Note_on_c, 2, 67, 110
5, 118606, Note_on_c, 2, 67, 0
5, 118608, Note_on_c, 2, 68, 111
5, 118630, Note_on_c, 2, 68, 0
5, 118632, Note_on_c, 2, 67, 111
5, 118654, Note_on_c, 2, 67, 0
5, 118656, Note_on_c, 2, 68, 110
5, 118678, Note_on_c, 2, 68, 0
5, 118680, Note_on_c, 2, 67, 109
5, 118702, Note_on_c, 2, 67, 0
5, 118704, Note_on_c, 2, 68, 113
5, 118726, Note_on_c, 2, 68, 0
5, 118728, Note_on_c, 2, 67, 108
5, 118750, Note_on_c, 2, 67, 0
5, 118752, Note_on_c, 2, 68, 112
5, 118774, Note_on_c, 2, 68, 0
5, 118776, Note_on_c, 2, 67, 107
5, 118798, Note_on_c, 2, 67, 0
5, 118800, Note_on_c, 2, 68, 107
5, 118822, Note_on_c, 2, 68, 0
5, 118824, Note_on_c, 2, 67, 107
5, 118846, Note_on_c, 2, 67, 0
5, 118848, Note_on_c, 2, 68, 113
5, 118870, Note_on_c, 2, 68, 0
5, 118872, Note_on_c, 2, 67, 104
5, 118894, Note_on_c, 2, 67, 0
5, 118896, Note_on_c, 2, 68, 104
5, 118918, Note_on_c, 2, 68, 0
5, 118920, Note_on_c, 2, 67, 108
5, 118942, Note_on_c, 2, 67, 0
5, 118944, Note_on_c, 2, 68, 106
5, 118976, Note_on_c, 2, 68, 0
5, 119520, Control_c, 2, 7, 127
5, 122976, Control_c, 2, 11, 127
5, 129312, Control_c, 2, 11, 127
5, 131040, Control_c, 2, 7, 64
5, 131040, Note_on_c, 2, 65, 64
5, 131046, Control_c, 2, 7, 65
5, 131052, Control_c, 2, 7, 66
5, 131058, Control_c, 2, 7, 67
5, 131064, Control_c, 2, 7, 68
5, 131070, Control_c, 2, 7, 69
5, 131076, Control_c, 2, 7, 70
5, 131082, Control_c, 2, 7, 71
5, 131088, Control_c, 2, 7, 72
5, 131094, Control_c, 2, 7, 73
5, 131100, Control_c, 2, 7, 74
5, 131107, Control_c, 2, 7, 75
5, 131113, Control_c, 2, 7, 76
5, 131119, Control_c, 2, 7, 77
5, 131125, Control_c, 2, 7, 78
5, 131131, Control_c, 2, 7, 79
5, 131137, Control_c, 2, 7, 80
5, 131143, Control_c, 2, 7, 81
5, 131149, Control_c, 2, 7, 82
5, 131155, Control_c, 2, 7, 83
5, 131161, Control_c, 2, 7, 84
5, 131168, Control_c, 2, 7, 85
5, 131174, Control_c, 2, 7, 86
5, 131180, Control_c, 2, 7, 87
5, 131186, Control_c, 2, 7, 88
5, 131192, Control_c, 2, 7, 89
5, 131198, Control_c, 2, 7, 90
5, 131204, Control_c, 2, 7, 91
5, 131210, Control_c, 2, 7, 92
5, 131216, Control_c, 2, 7, 93
5, 131222, Control_c, 2, 7, 94
5, 131228, Control_c, 2, 7, 95
5, 131235, Control_c, 2, 7, 96
5, 131241, Control_c, 2, 7, 97
5, 131247, Control_c, 2, 7, 98
5, 131253, Control_c, 2, 7, 99
5, 131259, Control_c, 2, 7, 100
5, 131265, Control_c, 2, 7, 101
5, 131271, Control_c, 2, 7, 102
5, 131277, Control_c, 2, 7, 103
5, 131283, Control_c, 2, 7, 104
5, 131289, Control_c, 2, 7, 105
5, 131296, Control_c, 2, 7, 106
5, 131302, Control_c, 2, 7, 107
5, 131308, Control_c, 2, 7, 108
5, 131314, Control_c, 2, 7, 109
5, 131320, Control_c, 2, 7, 110
5, 131326, Control_c, 2, 7, 111
5, 131332, Control_c, 2, 7, 112
5, 131338, Control_c, 2, 7, 113
5, 131344, Control_c, 2, 7, 114
5, 131350, Control_c, 2, 7, 115
5, 131356, Control_c, 2, 7, 116
5, 131363, Control_c, 2, 7, 117
5, 131369, Control_c, 2, 7, 118
5, 131375, Control_c, 2, 7, 119
5, 131381, Control_c, 2, 7, 120
5, 131387, Control_c, 2, 7, 121
5, 131393, Control_c, 2, 7, 122
5, 131399, Control_c, 2, 7, 123
5, 131405, Control_c, 2, 7, 124
5, 131411, Control_c, 2, 7, 125
5, 131417, Control_c, 2, 7, 126
5, 131424, Control_c, 2, 7, 127
5, 132144, Note_on_c, 2, 65, 0
5, 132144, Note_on_c, 2, 67, 58
5, 132192, Note_on_c, 2, 67, 0
5, 132192, Note_on_c, 2, 65, 57
5, 132768, Control_c, 2, 11, 127
5, 132786, Control_c, 2, 11, 126
5, 132804, Control_c, 2, 11, 125
5, 132822, Control_c, 2, 11, 124
5, 132841, Control_c, 2, 11, 123
5, 132859, Control_c, 2, 11, 122
5, 132877, Control_c, 2, 11, 121
5, 132896, Control_c, 2, 11, 120
5, 132914, Control_c, 2, 11, 119
5, 132932, Control_c, 2, 11, 118
5, 132950, Control_c, 2, 11, 117
5, 132969, Control_c, 2, 11, 116
5, 132987, Control_c, 2, 11, 115
5, 133005, Control_c, 2, 11, 114
5, 133024, Control_c, 2, 11, 113
5, 133042, Control_c, 2, 11, 112
5, 133060, Control_c, 2, 11, 111
5, 133078, Control_c, 2, 11, 110
5, 133097, Control_c, 2, 11, 109
5, 133115, Control_c, 2, 11, 108
5, 133133, Control_c, 2, 11, 107
5, 133152, Control_c, 2, 11, 106
5, 133170, Control_c, 2, 11, 105
5, 133188, Control_c, 2, 11, 104
5, 133206, Control_c, 2, 11, 103
5, 133225, Control_c, 2, 11, 102
5, 133243, Control_c, 2, 11, 101
5, 133261, Control_c, 2, 11, 100
5, 133280, Control_c, 2, 11, 99
5, 133298, Control_c, 2, 11, 98
5, 133316, Control_c, 2, 11, 97
5, 133334, Control_c, 2, 11, 96
5, 133344, Note_on_c, 2, 65, 0
5, 133344, Note_on_c, 2, 69, 63
5, 133353, Control_c, 2, 11, 95
5, 133371, Control_c, 2, 11, 94
5, 133389, Control_c, 2, 11, 93
5, 133408, Control_c, 2, 11, 92
5, 133426, Control_c, 2, 11, 91
5, 133444, Control_c, 2, 11, 90
5, 133462, Control_c, 2, 11, 89
5, 133481, Control_c, 2, 11, 88
5, 133499, Control_c, 2, 11, 87
5, 133517, Control_c, 2, 11, 86
5, 133536, Control_c, 2, 11, 85
5, 133554, Control_c, 2, 11, 84
5, 133572, Control_c, 2, 11, 83
5, 133590, Control_c, 2, 11, 82
5, 133609, Control_c, 2, 11, 81
5, 133627, Control_c, 2, 11, 80
5, 133645, Control_c, 2, 11, 79
5, 133664, Control_c, 2, 11, 78
5, 133682, Control_c, 2, 11, 77
5, 133700, Control_c, 2, 11, 76
5, 133718, Control_c, 2, 11, 75
5, 133737, Control_c, 2, 11, 74
5, 133755, Control_c, 2, 11, 73
5, 133773, Control_c, 2, 11, 72
5, 133792, Control_c, 2, 11, 71
5, 133810, Control_c, 2, 11, 70
5, 133828, Control_c, 2, 11, 69
5, 133846, Control_c, 2, 11, 68
5, 133865, Control_c, 2, 11, 67
5, 133883, Control_c, 2, 11, 66
5, 133901, Control_c, 2, 11, 65
5, 133920, Note_on_c, 2, 69, 0
5, 133920, Control_c, 2, 11, 64
5, 133920, Note_on_c, 2, 73, 58
5, 134080, Note_on_c, 2, 73, 0
5, 134080, End_track
6, 0, Start_track
6, 0, Title_t, "Clarinetti I - II in La"
6, 0, MIDI_port, 0
6, 107, Control_c, 3, 0, 0
6, 108, Control_c, 3, 32, 0
6, 109, Program_c, 3, 71
6, 110, Control_c, 3, 7, 127
6, 111, Control_c, 3, 10, 74
6, 112, Control_c, 3, 91, 64
6, 1152, Control_c, 3, 11, 64
6, 1152, Note_on_c, 3, 57, 44
6, 1152, Note_on_c, 3, 61, 44
6, 1161, Control_c, 3, 11, 65
6, 1170, Control_c, 3, 11, 66
6, 1179, Control_c, 3, 11, 67
6, 1188, Control_c, 3, 11, 68
6, 1197, Control_c, 3, 11, 69
6, 1206, Control_c, 3, 11, 70
6, 1216, Control_c, 3, 11, 71
6, 1225, Control_c, 3, 11, 72
6, 1234, Control_c, 3, 11, 73
6, 1243, Control_c, 3, 11, 74
6, 1252, Control_c, 3, 11, 75
6, 1261, Control_c, 3, 11, 76
6, 1270, Control_c, 3, 11, 77
6, 1280, Control_c, 3, 11, 78
6, 1289, Control_c, 3, 11, 79
6, 1298, Control_c, 3, 11, 80
6, 1307, Control_c, 3, 11, 81
6, 1316, Control_c, 3, 11, 82
6, 1325, Control_c, 3, 11, 83
6, 1334, Control_c, 3, 11, 84
6, 1344, Control_c, 3, 11, 85
6, 1353, Control_c, 3, 11, 86
6, 1362, Control_c, 3, 11, 87
6, 1371, Control_c, 3, 11, 88
6, 1380, Control_c, 3, 11, 89
6, 1389, Control_c, 3, 11, 90
6, 1398, Control_c, 3, 11, 91
6, 1408, Control_c, 3, 11, 92
6, 1417, Control_c, 3, 11, 93
6, 1426, Control_c, 3, 11, 94
6, 1435, Control_c, 3, 11, 95
6, 1444, Control_c, 3, 11, 96
6, 1453, Control_c, 3, 11, 97
6, 1462, Control_c, 3, 11, 98
6, 1472, Control_c, 3, 11, 99
6, 1481, Control_c, 3, 11, 100
6, 1490, Control_c, 3, 11, 101
6, 1499, Control_c, 3, 11, 102
6, 1508, Control_c, 3, 11, 103
6, 1517, Control_c, 3, 11, 104
6, 1526, Control_c, 3, 11, 105
6, 1536, Control_c, 3, 11, 106
6, 1545, Control_c, 3, 11, 107
6, 1554, Control_c, 3, 11, 108
6, 1563, Control_c, 3, 11, 109
6, 1572, Control_c, 3, 11, 110
6, 1581, Control_c, 3, 11, 111
6, 1590, Control_c, 3, 11, 112
6, 1600, Control_c, 3, 11, 113
6, 1609, Control_c, 3, 11, 114
6, 1618, Control_c, 3, 11, 115
6, 1627, Control_c, 3, 11, 116
6, 1636, Control_c, 3, 11, 117
6, 1645, Control_c, 3, 11, 118
6, 1654, Control_c, 3, 11, 119
6, 1664, Control_c, 3, 11, 120
6, 1673, Control_c, 3, 11, 121
6, 1682, Control_c, 3, 11, 122
6, 1691, Control_c, 3, 11, 123
6, 1700, Control_c, 3, 11, 124
6, 1709, Control_c, 3, 11, 125
6, 1718, Control_c, 3, 11, 126
6, 1728, Control_c, 3, 11, 127
6, 1888, Note_on_c, 3, 57, 0
6, 1888, Note_on_c, 3, 61, 0
6, 2304, Control_c, 3, 11, 64
6, 2304, Note_on_c, 3, 57, 45
6, 2304, Note_on_c, 3, 61, 46
6, 2313, Control_c, 3, 11, 65
6, 2322, Control_c, 3, 11, 66
6, 2331, Control_c, 3, 11, 67
6, 2340, Control_c, 3, 11, 68
6, 2349, Control_c, 3, 11, 69
6, 2358, Control_c, 3, 11, 70
6, 2368, Control_c, 3, 11, 71
6, 2377, Control_c, 3, 11, 72
6, 2386, Control_c, 3, 11, 73
6, 2395, Control_c, 3, 11, 74
6, 2404, Control_c, 3, 11, 75
6, 2413, Control_c, 3, 11, 76
6, 2422, Control_c, 3, 11, 77
6, 2432, Control_c, 3, 11, 78
6, 2441, Control_c, 3, 11, 79
6, 2450, Control_c, 3, 11, 80
6, 2459, Control_c, 3, 11, 81
6, 2468, Control_c, 3, 11, 82
6, 2477, Control_c, 3, 11, 83
6, 2486, Control_c, 3, 11, 84
6, 2496, Control_c, 3, 11, 85
6, 2505, Control_c, 3, 11, 86
6, 2514, Control_c, 3, 11, 87
6, 2523, Control_c, 3, 11, 88
6, 2532, Control_c, 3, 11, 89
6, 2541, Control_c, 3, 11, 90
6, 2550, Control_c, 3, 11, 91
6, 2560, Control_c, 3, 11, 92
6, 2569, Control_c, 3, 11, 93
6, 2578, Control_c, 3, 11, 94
6, 2587, Control_c, 3, 11, 95
6, 2596, Control_c, 3, 11, 96
6, 2605, Control_c, 3, 11, 97
6, 2614, Control_c, 3, 11, 98
6, 2624, Control_c, 3, 11, 99
6, 2633, Control_c, 3, 11, 100
6, 2642, Control_c, 3, 11, 101
6, 2651, Control_c, 3, 11, 102
6, 2660, Control_c, 3, 11, 103
6, 2669, Control_c, 3, 11, 104
6, 2678, Control_c, 3, 11, 105
6, 2688, Control_c, 3, 11, 106
6, 2697, Control_c, 3, 11, 107
6, 2706, Control_c, 3, 11, 108
6, 2715, Control_c, 3, 11, 109
6, 2724, Control_c, 3, 11, 110
6, 2733, Control_c, 3, 11, 111
6, 2742, Control_c, 3, 11, 112
6, 2752, Control_c, 3, 11, 113
6, 2761, Control_c, 3, 11, 114
6, 2770, Control_c, 3, 11, 115
6, 2779, Control_c, 3, 11, 116
6, 2788, Control_c, 3, 11, 117
6, 2797, Control_c, 3, 11, 118
6, 2806, Control_c, 3, 11, 119
6, 2816, Control_c, 3, 11, 120
6, 2825, Control_c, 3, 11, 121
6, 2834, Control_c, 3, 11, 122
6, 2843, Control_c, 3, 11, 123
6, 2852, Control_c, 3, 11, 124
6, 2861, Control_c, 3, 11, 125
6, 2870, Control_c, 3, 11, 126
6, 2880, Control_c, 3, 11, 127
6, 3040, Note_on_c, 3, 57, 0
6, 3040, Note_on_c, 3, 61, 0
6, 4032, Note_on_c, 3, 62, 45
6, 4032, Note_on_c, 3, 66, 49
6, 4078, Note_on_c, 3, 62, 0
6, 4078, Note_on_c, 3, 66, 0
6, 4080, Note_on_c, 3, 61, 48
6, 4080, Note_on_c, 3, 65, 49
6, 4126, Note_on_c, 3, 61, 0
6, 4126, Note_on_c, 3, 65, 0
6, 4128, Note_on_c, 3, 60, 50
6, 4128, Note_on_c, 3, 64, 50
6, 4174, Note_on_c, 3, 60, 0
6, 4174, Note_on_c, 3, 64, 0
6, 4176, Note_on_c, 3, 57, 45
6, 4176, Note_on_c, 3, 60, 51
6, 4270, Note_on_c, 3, 57, 0
6, 4270, Note_on_c, 3, 60, 0
6, 4272, Note_on_c, 3, 60, 57
6, 4272, Note_on_c, 3, 64, 59
6, 4318, Note_on_c, 3, 60, 0
6, 4318, Note_on_c, 3, 64, 0
6, 4320, Note_on_c, 3, 61, 52
6, 4320, Note_on_c, 3, 65, 56
6, 4366, Note_on_c, 3, 61, 0
6, 4366, Note_on_c, 3, 65, 0
6, 4368, Note_on_c, 3, 62, 55
6, 4368, Note_on_c, 3, 66, 58
6, 4462, Note_on_c, 3, 62, 0
6, 4462, Note_on_c, 3, 66, 0
6, 4464, Note_on_c, 3, 61, 57
6, 4464, Note_on_c, 3, 65, 58
6, 4510, Note_on_c, 3, 61, 0
6, 4510, Note_on_c, 3, 65, 0
6, 4512, Note_on_c, 3, 60, 53
6, 4512, Note_on_c, 3, 64, 51
6, 4558, Note_on_c, 3, 60, 0
6, 4558, Note_on_c, 3, 64, 0
6, 4560, Note_on_c, 3, 57, 50
6, 4560, Note_on_c, 3, 60, 47
6, 4606, Note_on_c, 3, 57, 0
6, 4606, Note_on_c, 3, 60, 0
6, 4608, Note_on_c, 3, 54, 49
6, 4608, Note_on_c, 3, 57, 43
6, 4630, Note_on_c, 3, 57, 0
6, 4632, Note_on_c, 3, 59, 46
6, 4654, Note_on_c, 3, 59, 0
6, 4656, Note_on_c, 3, 57, 46
6, 4678, Note_on_c, 3, 57, 0
6, 4680, Note_on_c, 3, 59, 43
6, 4702, Note_on_c, 3, 54, 0
6, 4702, Note_on_c, 3, 59, 0
6, 4704, Note_on_c, 3, 57, 50
6, 4726, Note_on_c, 3, 57, 0
6, 4728, Note_on_c, 3, 59, 44
6, 4750, Note_on_c, 3, 59, 0
6, 4752, Note_on_c, 3, 57, 50
6, 4774, Note_on_c, 3, 57, 0
6, 4776, Note_on_c, 3, 59, 47
6, 4798, Note_on_c, 3, 59, 0
6, 4800, Note_on_c, 3, 57, 52
6, 4822, Note_on_c, 3, 57, 0
6, 4824, Note_on_c, 3, 59, 49
6, 4846, Note_on_c, 3, 59, 0
6, 4848, Note_on_c, 3, 57, 59
6, 4870, Note_on_c, 3, 57, 0
6, 4872, Note_on_c, 3, 59, 59
6, 4894, Note_on_c, 3, 59, 0
6, 4896, Note_on_c, 3, 57, 60
6, 4918, Note_on_c, 3, 57, 0
6, 4920, Note_on_c, 3, 59, 52
6, 4942, Note_on_c, 3, 59, 0
6, 4944, Note_on_c, 3, 57, 59
6, 4966, Note_on_c, 3, 57, 0
6, 4968, Note_on_c, 3, 59, 60
6, 4990, Note_on_c, 3, 59, 0
6, 4992, Note_on_c, 3, 57, 42
6, 5014, Note_on_c, 3, 57, 0
6, 5016, Note_on_c, 3, 59, 47
6, 5038, Note_on_c, 3, 59, 0
6, 5040, Note_on_c, 3, 57, 39
6, 5062, Note_on_c, 3, 57, 0
6, 5064, Note_on_c, 3, 59, 38
6, 5086, Note_on_c, 3, 59, 0
6, 5088, Note_on_c, 3, 57, 39
6, 5110, Note_on_c, 3, 57, 0
6, 5112, Note_on_c, 3, 59, 32
6, 5134, Note_on_c, 3, 59, 0
6, 5136, Note_on_c, 3, 57, 32
6, 5158, Note_on_c, 3, 57, 0
6, 5160, Note_on_c, 3, 59, 38
6, 5182, Note_on_c, 3, 59, 0
6, 5184, Note_on_c, 3, 57, 31
6, 5216, Note_on_c, 3, 57, 0
6, 10656, Note_on_c, 3, 54, 44
6, 10656, Note_on_c, 3, 58, 45
6, 11040, Note_on_c, 3, 58, 0
6, 11040, Note_on_c, 3, 57, 41
6, 11200, Note_on_c, 3, 54, 0
6, 11200, Note_on_c, 3, 57, 0
6, 11232, Control_c, 3, 7, 92
6, 11520, Note_on_c, 3, 80, 89
6, 11520, Note_on_c, 3, 84, 88
6, 11566, Note_on_c, 3, 80, 0
6, 11566, Note_on_c, 3, 84, 0
6, 11568, Note_on_c, 3, 77, 87
6, 11568, Note_on_c, 3, 80, 88
6, 11578, Note_on_c, 3, 77, 0
6, 11578, Note_on_c, 3, 80, 0
6, 11584, Note_on_c, 3, 74, 94
6, 11584, Note_on_c, 3, 77, 96
6, 11605, Note_on_c, 3, 74, 0
6, 11605, Note_on_c, 3, 77, 0
6, 11616, Note_on_c, 3, 68, 100
6, 11616, Note_on_c, 3, 72, 97
6, 11637, Note_on_c, 3, 68, 0
6, 11637, Note_on_c, 3, 72, 0
6, 11648, Note_on_c, 3, 65, 101
6, 11648, Note_on_c, 3, 68, 98
6, 11669, Note_on_c, 3, 65, 0
6, 11669, Note_on_c, 3, 68, 0
6, 11680, Note_on_c, 3, 62, 109
6, 11680, Note_on_c, 3, 65, 103
6, 11701, Note_on_c, 3, 62, 0
6, 11701, Note_on_c, 3, 65, 0
6, 12096, Note_on_c, 3, 80, 97
6, 12096, Note_on_c, 3, 84, 94
6, 12142, Note_on_c, 3, 80, 0
6, 12142, Note_on_c, 3, 84, 0
6, 12144, Note_on_c, 3, 77, 96
6, 12144, Note_on_c, 3, 80, 95
6, 12154, Note_on_c, 3, 77, 0
6, 12154, Note_on_c, 3, 80, 0
6, 12160, Note_on_c, 3, 74, 89
6, 12160, Note_on_c, 3, 77, 91
6, 12181, Note_on_c, 3, 74, 0
6, 12181, Note_on_c, 3, 77, 0
6, 12192, Note_on_c, 3, 68, 95
6, 12192, Note_on_c, 3, 72, 100
6, 12213, Note_on_c, 3, 68, 0
6, 12213, Note_on_c, 3, 72, 0
6, 12224, Note_on_c, 3, 65, 108
6, 12224, Note_on_c, 3, 68, 100
6, 12245, Note_on_c, 3, 65, 0
6, 12245, Note_on_c, 3, 68, 0
6, 12256, Note_on_c, 3, 62, 103
6, 12256, Note_on_c, 3, 65, 110
6, 12277, Note_on_c, 3, 62, 0
6, 12277, Note_on_c, 3, 65, 0
6, 13536, Control_c, 3, 11, 92
6, 13536, Note_on_c, 3, 64, 60
6, 13536, Note_on_c, 3, 68, 55
6, 13541, Control_c, 3, 11, 93
6, 13546, Control_c, 3, 11, 94
6, 13552, Control_c, 3, 11, 95
6, 13557, Control_c, 3, 11, 96
6, 13563, Control_c, 3, 11, 97
6, 13568, Control_c, 3, 11, 98
6, 13574, Control_c, 3, 11, 99
6, 13579, Control_c, 3, 11, 100
6, 13585, Control_c, 3, 11, 101
6, 13590, Control_c, 3, 11, 102
6, 13596, Control_c, 3, 11, 103
6, 13601, Control_c, 3, 11, 104
6, 13607, Control_c, 3, 11, 105
6, 13612, Control_c, 3, 11, 106
6, 13618, Control_c, 3, 11, 107
6, 13623, Control_c, 3, 11, 108
6, 13629, Control_c, 3, 11, 109
6, 13634, Control_c, 3, 11, 110
6, 13640, Control_c, 3, 11, 111
6, 13645, Control_c, 3, 11, 112
6, 13651, Control_c, 3, 11, 113
6, 13656, Control_c, 3, 11, 114
6, 13662, Control_c, 3, 11, 115
6, 13667, Control_c, 3, 11, 116
6, 13673, Control_c, 3, 11, 117
6, 13678, Note_on_c, 3, 68, 0
6, 13678, Control_c, 3, 11, 118
6, 13680, Note_on_c, 3, 67, 65
6, 13684, Control_c, 3, 11, 119
6, 13689, Control_c, 3, 11, 120
6, 13695, Control_c, 3, 11, 121
6, 13700, Control_c, 3, 11, 122
6, 13706, Control_c, 3, 11, 123
6, 13711, Control_c, 3, 11, 124
6, 13717, Control_c, 3, 11, 125
6, 13722, Control_c, 3, 11, 126
6, 13726, Note_on_c, 3, 67, 0
6, 13728, Control_c, 3, 11, 127
6, 13728, Note_on_c, 3, 68, 64
6, 14064, Note_on_c, 3, 64, 0
6, 14064, Note_on_c, 3, 68, 0
6, 14112, Control_c, 3, 11, 92
6, 14112, Note_on_c, 3, 64, 57
6, 14112, Note_on_c, 3, 68, 59
6, 14117, Control_c, 3, 11, 93
6, 14122, Control_c, 3, 11, 94
6, 14128, Control_c, 3, 11, 95
6, 14133, Control_c, 3, 11, 96
6, 14139, Control_c, 3, 11, 97
6, 14144, Control_c, 3, 11, 98
6, 14150, Control_c, 3, 11, 99
6, 14155, Control_c, 3, 11, 100
6, 14161, Control_c, 3, 11, 101
6, 14166, Control_c, 3, 11, 102
6, 14172, Control_c, 3, 11, 103
6, 14177, Control_c, 3, 11, 104
6, 14183, Control_c, 3, 11, 105
6, 14188, Control_c, 3, 11, 106
6, 14194, Control_c, 3, 11, 107
6, 14199, Control_c, 3, 11, 108
6, 14205, Control_c, 3, 11, 109
6, 14210, Control_c, 3, 11, 110
6, 14216, Control_c, 3, 11, 111
6, 14221, Control_c, 3, 11, 112
6, 14227, Control_c, 3, 11, 113
6, 14232, Control_c, 3, 11, 114
6, 14238, Control_c, 3, 11, 115
6, 14243, Control_c, 3, 11, 116
6, 14249, Control_c, 3, 11, 117
6, 14254, Note_on_c, 3, 68, 0
6, 14254, Control_c, 3, 11, 118
6, 14256, Note_on_c, 3, 67, 58
6, 14260, Control_c, 3, 11, 119
6, 14265, Control_c, 3, 11, 120
6, 14271, Control_c, 3, 11, 121
6, 14276, Control_c, 3, 11, 122
6, 14282, Control_c, 3, 11, 123
6, 14287, Control_c, 3, 11, 124
6, 14293, Control_c, 3, 11, 125
6, 14298, Control_c, 3, 11, 126
6, 14302, Note_on_c, 3, 67, 0
6, 14304, Control_c, 3, 11, 127
6, 14304, Note_on_c, 3, 68, 64
6, 14640, Note_on_c, 3, 64, 0
6, 14640, Note_on_c, 3, 68, 0
6, 14688, Note_on_c, 3, 64, 43
6, 14688, Note_on_c, 3, 68, 40
6, 15264, Note_on_c, 3, 64, 0
6, 15264, Note_on_c, 3, 68, 0
6, 15264, Note_on_c, 3, 59, 46
6, 15264, Note_on_c, 3, 64, 44
6, 15648, Note_on_c, 3, 59, 0
6, 15648, Note_on_c, 3, 64, 0
6, 15648, Note_on_c, 3, 64, 46
6, 15648, Note_on_c, 3, 68, 43
6, 15808, Note_on_c, 3, 64, 0
6, 15808, Note_on_c, 3, 68, 0
6, 15840, Control_c, 3, 11, 92
6, 15840, Note_on_c, 3, 68, 60
6, 15840, Note_on_c, 3, 72, 61
6, 15845, Control_c, 3, 11, 93
6, 15850, Control_c, 3, 11, 94
6, 15856, Control_c, 3, 11, 95
6, 15861, Control_c, 3, 11, 96
6, 15867, Control_c, 3, 11, 97
6, 15872, Control_c, 3, 11, 98
6, 15878, Control_c, 3, 11, 99
6, 15883, Control_c, 3, 11, 100
6, 15889, Control_c, 3, 11, 101
6, 15894, Control_c, 3, 11, 102
6, 15900, Control_c, 3, 11, 103
6, 15905, Control_c, 3, 11, 104
6, 15911, Control_c, 3, 11, 105
6, 15916, Control_c, 3, 11, 106
6, 15922, Control_c, 3, 11, 107
6, 15927, Control_c, 3, 11, 108
6, 15933, Control_c, 3, 11, 109
6, 15938, Control_c, 3, 11, 110
6, 15944, Control_c, 3, 11, 111
6, 15949, Control_c, 3, 11, 112
6, 15955, Control_c, 3, 11, 113
6, 15960, Control_c, 3, 11, 114
6, 15966, Control_c, 3, 11, 115
6, 15971, Control_c, 3, 11, 116
6, 15977, Control_c, 3, 11, 117
6, 15982, Note_on_c, 3, 68, 0
6, 15982, Control_c, 3, 11, 118
6, 15984, Note_on_c, 3, 67, 65
6, 15988, Control_c, 3, 11, 119
6, 15993, Control_c, 3, 11, 120
6, 15999, Control_c, 3, 11, 121
6, 16004, Control_c, 3, 11, 122
6, 16010, Control_c, 3, 11, 123
6, 16015, Control_c, 3, 11, 124
6, 16021, Control_c, 3, 11, 125
6, 16026, Control_c, 3, 11, 126
6, 16030, Note_on_c, 3, 67, 0
6, 16032, Control_c, 3, 11, 127
6, 16032, Note_on_c, 3, 68, 56
6, 16368, Note_on_c, 3, 72, 0
6, 16368, Note_on_c, 3, 68, 0
6, 16416, Control_c, 3, 11, 92
6, 16416, Note_on_c, 3, 68, 55
6, 16416, Note_on_c, 3, 72, 60
6, 16421, Control_c, 3, 11, 93
6, 16426, Control_c, 3, 11, 94
6, 16432, Control_c, 3, 11, 95
6, 16437, Control_c, 3, 11, 96
6, 16443, Control_c, 3, 11, 97
6, 16448, Control_c, 3, 11, 98
6, 16454, Control_c, 3, 11, 99
6, 16459, Control_c, 3, 11, 100
6, 16465, Control_c, 3, 11, 101
6, 16470, Control_c, 3, 11, 102
6, 16476, Control_c, 3, 11, 103
6, 16481, Control_c, 3, 11, 104
6, 16487, Control_c, 3, 11, 105
6, 16492, Control_c, 3, 11, 106
6, 16498, Control_c, 3, 11, 107
6, 16503, Control_c, 3, 11, 108
6, 16509, Control_c, 3, 11, 109
6, 16514, Control_c, 3, 11, 110
6, 16520, Control_c, 3, 11, 111
6, 16525, Control_c, 3, 11, 112
6, 16531, Control_c, 3, 11, 113
6, 16536, Control_c, 3, 11, 114
6, 16542, Control_c, 3, 11, 115
6, 16547, Control_c, 3, 11, 116
6, 16553, Control_c, 3, 11, 117
6, 16558, Note_on_c, 3, 68, 0
6, 16558, Control_c, 3, 11, 118
6, 16560, Note_on_c, 3, 67, 62
6, 16564, Control_c, 3, 11, 119
6, 16569, Control_c, 3, 11, 120
6, 16575, Control_c, 3, 11, 121
6, 16580, Control_c, 3, 11, 122
6, 16586, Control_c, 3, 11, 123
6, 16591, Control_c, 3, 11, 124
6, 16597, Control_c, 3, 11, 125
6, 16602, Control_c, 3, 11, 126
6, 16606, Note_on_c, 3, 67, 0
6, 16608, Control_c, 3, 11, 127
6, 16608, Note_on_c, 3, 68, 58
6, 16944, Note_on_c, 3, 72, 0
6, 16944, Note_on_c, 3, 68, 0
6, 16992, Note_on_c, 3, 64, 40
6, 16992, Note_on_c, 3, 68, 48
6, 17568, Note_on_c, 3, 64, 0
6, 17568, Note_on_c, 3, 68, 0
6, 17568, Note_on_c, 3, 59, 45
6, 17568, Note_on_c, 3, 64, 46
6, 17952, Note_on_c, 3, 59, 0
6, 17952, Note_on_c, 3, 64, 0
6, 17952, Note_on_c, 3, 64, 47
6, 17952, Note_on_c, 3, 68, 41
6, 18112, Note_on_c, 3, 64, 0
6, 18112, Note_on_c, 3, 68, 0
6, 18144, Control_c, 3, 7, 127
6, 19296, Note_on_c, 3, 68, 48
6, 19338, Note_on_c, 3, 68, 0
6, 19360, Note_on_c, 3, 71, 42
6, 19402, Note_on_c, 3, 71, 0
6, 19424, Note_on_c, 3, 70, 51
6, 19466, Note_on_c, 3, 70, 0
6, 19488, Note_on_c, 3, 70, 49
6, 19530, Note_on_c, 3, 70, 0
6, 19552, Note_on_c, 3, 68, 53
6, 19594, Note_on_c, 3, 68, 0
6, 19616, Note_on_c, 3, 68, 47
6, 19658, Note_on_c, 3, 68, 0
6, 19680, Note_on_c, 3, 68, 52
6, 19722, Note_on_c, 3, 68, 0
6, 19744, Note_on_c, 3, 73, 57
6, 19786, Note_on_c, 3, 73, 0
6, 19808, Note_on_c, 3, 71, 59
6, 19850, Note_on_c, 3, 71, 0
6, 19872, Note_on_c, 3, 71, 63
6, 19882, Note_on_c, 3, 71, 0
6, 19888, Note_on_c, 3, 70, 57
6, 19920, Note_on_c, 3, 70, 0
6, 19936, Note_on_c, 3, 68, 57
6, 19978, Note_on_c, 3, 68, 0
6, 20000, Note_on_c, 3, 68, 58
6, 20042, Note_on_c, 3, 68, 0
6, 20064, Note_on_c, 3, 68, 69
6, 20106, Note_on_c, 3, 68, 0
6, 20128, Note_on_c, 3, 71, 62
6, 20170, Note_on_c, 3, 71, 0
6, 20192, Note_on_c, 3, 68, 69
6, 20234, Note_on_c, 3, 68, 0
6, 20256, Note_on_c, 3, 66, 68
6, 20298, Note_on_c, 3, 66, 0
6, 20320, Note_on_c, 3, 65, 73
6, 20362, Note_on_c, 3, 65, 0
6, 20384, Note_on_c, 3, 62, 70
6, 20426, Note_on_c, 3, 62, 0
6, 25056, Note_on_c, 3, 71, 41
6, 25150, Note_on_c, 3, 71, 0
6, 25152, Note_on_c, 3, 73, 44
6, 25182, Note_on_c, 3, 73, 0
6, 25184, Note_on_c, 3, 71, 49
6, 25214, Note_on_c, 3, 71, 0
6, 25216, Note_on_c, 3, 73, 46
6, 25246, Note_on_c, 3, 73, 0
6, 25248, Note_on_c, 3, 71, 43
6, 25278, Note_on_c, 3, 71, 0
6, 25280, Note_on_c, 3, 73, 48
6, 25310, Note_on_c, 3, 73, 0
6, 25312, Note_on_c, 3, 71, 47
6, 25342, Note_on_c, 3, 71, 0
6, 25344, Note_on_c, 3, 73, 48
6, 25374, Note_on_c, 3, 73, 0
6, 25376, Note_on_c, 3, 71, 42
6, 25406, Note_on_c, 3, 71, 0
6, 25408, Note_on_c, 3, 73, 50
6, 25438, Note_on_c, 3, 73, 0
6, 25440, Note_on_c, 3, 71, 50
6, 25470, Note_on_c, 3, 71, 0
6, 25472, Note_on_c, 3, 73, 47
6, 25502, Note_on_c, 3, 73, 0
6, 25504, Note_on_c, 3, 71, 48
6, 25534, Note_on_c, 3, 71, 0
6, 25536, Note_on_c, 3, 73, 48
6, 25566, Note_on_c, 3, 73, 0
6, 25568, Note_on_c, 3, 71, 49
6, 25598, Note_on_c, 3, 71, 0
6, 25600, Note_on_c, 3, 73, 44
6, 25630, Note_on_c, 3, 73, 0
6, 25632, Note_on_c, 3, 71, 53
6, 25662, Note_on_c, 3, 71, 0
6, 25664, Note_on_c, 3, 73, 44
6, 25694, Note_on_c, 3, 73, 0
6, 25696, Note_on_c, 3, 71, 50
6, 25726, Note_on_c, 3, 71, 0
6, 25728, Note_on_c, 3, 73, 47
6, 25758, Note_on_c, 3, 73, 0
6, 25760, Note_on_c, 3, 71, 53
6, 25790, Note_on_c, 3, 71, 0
6, 25792, Note_on_c, 3, 73, 53
6, 25822, Note_on_c, 3, 73, 0
6, 25824, Note_on_c, 3, 71, 58
6, 25854, Note_on_c, 3, 71, 0
6, 25856, Note_on_c, 3, 73, 58
6, 25886, Note_on_c, 3, 73, 0
6, 25888, Note_on_c, 3, 71, 61
6, 25918, Note_on_c, 3, 71, 0
6, 25920, Note_on_c, 3, 73, 58
6, 25950, Note_on_c, 3, 73, 0
6, 25952, Note_on_c, 3, 71, 59
6, 25982, Note_on_c, 3, 71, 0
6, 25984, Note_on_c, 3, 73, 59
6, 26014, Note_on_c, 3, 73, 0
6, 26016, Note_on_c, 3, 69, 61
6, 26046, Note_on_c, 3, 69, 0
6, 26048, Note_on_c, 3, 71, 63
6, 26078, Note_on_c, 3, 71, 0
6, 26080, Note_on_c, 3, 69, 58
6, 26110, Note_on_c, 3, 69, 0
6, 26112, Note_on_c, 3, 66, 52
6, 26142, Note_on_c, 3, 66, 0
6, 26144, Note_on_c, 3, 68, 48
6, 26174, Note_on_c, 3, 68, 0
6, 26176, Note_on_c, 3, 66, 52
6, 26206, Note_on_c, 3, 66, 0
6, 26208, Note_on_c, 3, 63, 41
6, 26302, Note_on_c, 3, 63, 0
6, 26784, Control_c, 3, 11, 127
6, 27360, Note_on_c, 3, 70, 43
6, 27360, Note_on_c, 3, 73, 49
6, 27392, Note_on_c, 3, 70, 0
6, 27392, Note_on_c, 3, 73, 0
6, 27456, Note_on_c, 3, 70, 41
6, 27456, Note_on_c, 3, 73, 44
6, 27477, Note_on_c, 3, 70, 0
6, 27477, Note_on_c, 3, 73, 0
6, 27488, Note_on_c, 3, 70, 41
6, 27488, Note_on_c, 3, 73, 44
6, 27509, Note_on_c, 3, 70, 0
6, 27509, Note_on_c, 3, 73, 0
6, 27520, Note_on_c, 3, 70, 48
6, 27520, Note_on_c, 3, 73, 40
6, 27541, Note_on_c, 3, 70, 0
6, 27541, Note_on_c, 3, 73, 0
6, 27552, Note_on_c, 3, 70, 46
6, 27552, Note_on_c, 3, 73, 47
6, 27584, Note_on_c, 3, 70, 0
6, 27584, Note_on_c, 3, 73, 0
6, 27648, Note_on_c, 3, 70, 47
6, 27648, Note_on_c, 3, 73, 48
6, 27669, Note_on_c, 3, 70, 0
6, 27669, Note_on_c, 3, 73, 0
6, 27680, Note_on_c, 3, 70, 43
6, 27680, Note_on_c, 3, 73, 44
6, 27701, Note_on_c, 3, 70, 0
6, 27701, Note_on_c, 3, 73, 0
6, 27712, Note_on_c, 3, 70, 41
6, 27712, Note_on_c, 3, 73, 47
6, 27733, Note_on_c, 3, 70, 0
6, 27733, Note_on_c, 3, 73, 0
6, 27744, Note_on_c, 3, 70, 48
6, 27744, Note_on_c, 3, 73, 47
6, 27765, Note_on_c, 3, 70, 0
6, 27765, Note_on_c, 3, 73, 0
6, 27776, Note_on_c, 3, 70, 41
6, 27776, Note_on_c, 3, 73, 44
6, 27797, Note_on_c, 3, 70, 0
6, 27797, Note_on_c, 3, 73, 0
6, 27808, Note_on_c, 3, 70, 50
6, 27808, Note_on_c, 3, 73, 46
6, 27829, Note_on_c, 3, 70, 0
6, 27829, Note_on_c, 3, 73, 0
6, 27840, Note_on_c, 3, 70, 45
6, 27840, Note_on_c, 3, 73, 47
6, 27861, Note_on_c, 3, 70, 0
6, 27861, Note_on_c, 3, 73, 0
6, 27872, Note_on_c, 3, 70, 44
6, 27872, Note_on_c, 3, 73, 44
6, 27893, Note_on_c, 3, 70, 0
6, 27893, Note_on_c, 3, 73, 0
6, 27904, Note_on_c, 3, 70, 47
6, 27904, Note_on_c, 3, 73, 47
6, 27925, Note_on_c, 3, 70, 0
6, 27925, Note_on_c, 3, 73, 0
6, 27936, Note_on_c, 3, 70, 48
6, 27936, Note_on_c, 3, 73, 44
6, 27968, Note_on_c, 3, 70, 0
6, 27968, Note_on_c, 3, 73, 0
6, 28032, Note_on_c, 3, 70, 43
6, 28032, Note_on_c, 3, 73, 50
6, 28053, Note_on_c, 3, 70, 0
6, 28053, Note_on_c, 3, 73, 0
6, 28064, Note_on_c, 3, 70, 47
6, 28064, Note_on_c, 3, 73, 50
6, 28085, Note_on_c, 3, 70, 0
6, 28085, Note_on_c, 3, 73, 0
6, 28096, Note_on_c, 3, 70, 41
6, 28096, Note_on_c, 3, 73, 47
6, 28117, Note_on_c, 3, 70, 0
6, 28117, Note_on_c, 3, 73, 0
6, 28128, Note_on_c, 3, 70, 43
6, 28128, Note_on_c, 3, 73, 50
6, 28160, Note_on_c, 3, 70, 0
6, 28160, Note_on_c, 3, 73, 0
6, 28224, Note_on_c, 3, 70, 48
6, 28224, Note_on_c, 3, 73, 49
6, 28245, Note_on_c, 3, 70, 0
6, 28245, Note_on_c, 3, 73, 0
6, 28256, Note_on_c, 3, 70, 50
6, 28256, Note_on_c, 3, 73, 47
6, 28277, Note_on_c, 3, 70, 0
6, 28277, Note_on_c, 3, 73, 0
6, 28288, Note_on_c, 3, 70, 46
6, 28288, Note_on_c, 3, 73, 48
6, 28309, Note_on_c, 3, 70, 0
6, 28309, Note_on_c, 3, 73, 0
6, 28320, Note_on_c, 3, 70, 42
6, 28320, Note_on_c, 3, 73, 41
6, 28341, Note_on_c, 3, 70, 0
6, 28341, Note_on_c, 3, 73, 0
6, 28352, Note_on_c, 3, 70, 49
6, 28352, Note_on_c, 3, 73, 45
6, 28373, Note_on_c, 3, 70, 0
6, 28373, Note_on_c, 3, 73, 0
6, 28384, Note_on_c, 3, 70, 46
6, 28384, Note_on_c, 3, 73, 48
6, 28405, Note_on_c, 3, 70, 0
6, 28405, Note_on_c, 3, 73, 0
6, 28416, Note_on_c, 3, 70, 45
6, 28416, Note_on_c, 3, 73, 40
6, 28437, Note_on_c, 3, 70, 0
6, 28437, Note_on_c, 3, 73, 0
6, 28448, Note_on_c, 3, 70, 46
6, 28448, Note_on_c, 3, 73, 49
6, 28469, Note_on_c, 3, 70, 0
6, 28469, Note_on_c, 3, 73, 0
6, 28480, Note_on_c, 3, 70, 49
6, 28480, Note_on_c, 3, 73, 46
6, 28501, Note_on_c, 3, 70, 0
6, 28501, Note_on_c, 3, 73, 0
6, 28512, Note_on_c, 3, 70, 43
6, 28512, Note_on_c, 3, 73, 48
6, 28544, Note_on_c, 3, 70, 0
6, 28544, Note_on_c, 3, 73, 0
6, 28608, Note_on_c, 3, 70, 44
6, 28608, Note_on_c, 3, 73, 47
6, 28629, Note_on_c, 3, 70, 0
6, 28629, Note_on_c, 3, 73, 0
6, 28640, Note_on_c, 3, 70, 43
6, 28640, Note_on_c, 3, 73, 40
6, 28661, Note_on_c, 3, 70, 0
6, 28661, Note_on_c, 3, 73, 0
6, 28672, Note_on_c, 3, 70, 42
6, 28672, Note_on_c, 3, 73, 50
6, 28693, Note_on_c, 3, 70, 0
6, 28693, Note_on_c, 3, 73, 0
6, 28704, Note_on_c, 3, 70, 43
6, 28704, Note_on_c, 3, 73, 48
6, 28736, Note_on_c, 3, 70, 0
6, 28736, Note_on_c, 3, 73, 0
6, 28800, Note_on_c, 3, 70, 49
6, 28800, Note_on_c, 3, 73, 46
6, 28821, Note_on_c, 3, 70, 0
6, 28821, Note_on_c, 3, 73, 0
6, 28832, Note_on_c, 3, 70, 40
6, 28832, Note_on_c, 3, 73, 50
6, 28853, Note_on_c, 3, 70, 0
6, 28853, Note_on_c, 3, 73, 0
6, 28864, Note_on_c, 3, 70, 44
6, 28864, Note_on_c, 3, 73, 48
6, 28885, Note_on_c, 3, 70, 0
6, 28885, Note_on_c, 3, 73, 0
6, 28896, Note_on_c, 3, 70, 49
6, 28896, Note_on_c, 3, 73, 45
6, 28917, Note_on_c, 3, 70, 0
6, 28917, Note_on_c, 3, 73, 0
6, 28928, Note_on_c, 3, 70, 49
6, 28928, Note_on_c, 3, 73, 48
6, 28949, Note_on_c, 3, 70, 0
6, 28949, Note_on_c, 3, 73, 0
6, 28960, Note_on_c, 3, 70, 41
6, 28960, Note_on_c, 3, 73, 42
6, 28981, Note_on_c, 3, 70, 0
6, 28981, Note_on_c, 3, 73, 0
6, 28992, Note_on_c, 3, 70, 44
6, 28992, Note_on_c, 3, 73, 49
6, 29013, Note_on_c, 3, 70, 0
6, 29013, Note_on_c, 3, 73, 0
6, 29024, Note_on_c, 3, 70, 47
6, 29024, Note_on_c, 3, 73, 50
6, 29045, Note_on_c, 3, 70, 0
6, 29045, Note_on_c, 3, 73, 0
6, 29056, Note_on_c, 3, 70, 43
6, 29056, Note_on_c, 3, 73, 40
6, 29077, Note_on_c, 3, 70, 0
6, 29077, Note_on_c, 3, 73, 0
6, 29088, Note_on_c, 3, 70, 48
6, 29088, Note_on_c, 3, 73, 41
6, 29120, Note_on_c, 3, 70, 0
6, 29120, Note_on_c, 3, 73, 0
6, 29184, Note_on_c, 3, 70, 45
6, 29184, Note_on_c, 3, 73, 46
6, 29205, Note_on_c, 3, 70, 0
6, 29205, Note_on_c, 3, 73, 0
6, 29216, Note_on_c, 3, 70, 49
6, 29216, Note_on_c, 3, 73, 47
6, 29237, Note_on_c, 3, 70, 0
6, 29237, Note_on_c, 3, 73, 0
6, 29248, Note_on_c, 3, 70, 42
6, 29248, Note_on_c, 3, 73, 45
6, 29269, Note_on_c, 3, 70, 0
6, 29269, Note_on_c, 3, 73, 0
6, 29280, Note_on_c, 3, 70, 50
6, 29280, Note_on_c, 3, 73, 44
6, 29312, Note_on_c, 3, 70, 0
6, 29312, Note_on_c, 3, 73, 0
6, 29376, Note_on_c, 3, 70, 44
6, 29376, Note_on_c, 3, 73, 45
6, 29397, Note_on_c, 3, 70, 0
6, 29397, Note_on_c, 3, 73, 0
6, 29408, Note_on_c, 3, 70, 44
6, 29408, Note_on_c, 3, 73, 49
6, 29429, Note_on_c, 3, 70, 0
6, 29429, Note_on_c, 3, 73, 0
6, 29440, Note_on_c, 3, 70, 49
6, 29440, Note_on_c, 3, 73, 46
6, 29461, Note_on_c, 3, 70, 0
6, 29461, Note_on_c, 3, 73, 0
6, 29472, Note_on_c, 3, 70, 42
6, 29472, Note_on_c, 3, 73, 48
6, 29493, Note_on_c, 3, 70, 0
6, 29493, Note_on_c, 3, 73, 0
6, 29504, Note_on_c, 3, 70, 50
6, 29504, Note_on_c, 3, 73, 42
6, 29525, Note_on_c, 3, 70, 0
6, 29525, Note_on_c, 3, 73, 0
6, 29536, Note_on_c, 3, 70, 44
6, 29536, Note_on_c, 3, 73, 42
6, 29557, Note_on_c, 3, 70, 0
6, 29557, Note_on_c, 3, 73, 0
6, 29568, Note_on_c, 3, 70, 45
6, 29568, Note_on_c, 3, 73, 40
6, 29589, Note_on_c, 3, 70, 0
6, 29589, Note_on_c, 3, 73, 0
6, 29600, Note_on_c, 3, 70, 45
6, 29600, Note_on_c, 3, 73, 48
6, 29621, Note_on_c, 3, 70, 0
6, 29621, Note_on_c, 3, 73, 0
6, 29632, Note_on_c, 3, 70, 47
6, 29632, Note_on_c, 3, 73, 48
6, 29653, Note_on_c, 3, 70, 0
6, 29653, Note_on_c, 3, 73, 0
6, 29664, Note_on_c, 3, 70, 42
6, 29664, Note_on_c, 3, 73, 41
6, 29696, Note_on_c, 3, 70, 0
6, 29696, Note_on_c, 3, 73, 0
6, 29760, Note_on_c, 3, 70, 46
6, 29760, Note_on_c, 3, 73, 45
6, 29781, Note_on_c, 3, 70, 0
6, 29781, Note_on_c, 3, 73, 0
6, 29792, Note_on_c, 3, 70, 50
6, 29792, Note_on_c, 3, 73, 43
6, 29813, Note_on_c, 3, 70, 0
6, 29813, Note_on_c, 3, 73, 0
6, 29824, Note_on_c, 3, 70, 48
6, 29824, Note_on_c, 3, 73, 43
6, 29845, Note_on_c, 3, 70, 0
6, 29845, Note_on_c, 3, 73, 0
6, 29856, Note_on_c, 3, 70, 49
6, 29856, Note_on_c, 3, 73, 50
6, 29888, Note_on_c, 3, 70, 0
6, 29888, Note_on_c, 3, 73, 0
6, 29952, Note_on_c, 3, 70, 42
6, 29952, Note_on_c, 3, 73, 50
6, 29973, Note_on_c, 3, 70, 0
6, 29973, Note_on_c, 3, 73, 0
6, 29984, Note_on_c, 3, 70, 41
6, 29984, Note_on_c, 3, 73, 47
6, 30005, Note_on_c, 3, 70, 0
6, 30005, Note_on_c, 3, 73, 0
6, 30016, Note_on_c, 3, 70, 49
6, 30016, Note_on_c, 3, 73, 44
6, 30037, Note_on_c, 3, 70, 0
6, 30037, Note_on_c, 3, 73, 0
6, 30048, Note_on_c, 3, 70, 43
6, 30048, Note_on_c, 3, 73, 47
6, 30069, Note_on_c, 3, 70, 0
6, 30069, Note_on_c, 3, 73, 0
6, 30080, Note_on_c, 3, 70, 43
6, 30080, Note_on_c, 3, 73, 42
6, 30101, Note_on_c, 3, 70, 0
6, 30101, Note_on_c, 3, 73, 0
6, 30112, Note_on_c, 3, 70, 44
6, 30112, Note_on_c, 3, 73, 48
6, 30133, Note_on_c, 3, 70, 0
6, 30133, Note_on_c, 3, 73, 0
6, 30144, Note_on_c, 3, 70, 49
6, 30144, Note_on_c, 3, 73, 48
6, 30165, Note_on_c, 3, 70, 0
6, 30165, Note_on_c, 3, 73, 0
6, 30176, Note_on_c, 3, 70, 45
6, 30176, Note_on_c, 3, 73, 44
6, 30197, Note_on_c, 3, 70, 0
6, 30197, Note_on_c, 3, 73, 0
6, 30208, Note_on_c, 3, 70, 50
6, 30208, Note_on_c, 3, 73, 42
6, 30229, Note_on_c, 3, 70, 0
6, 30229, Note_on_c, 3, 73, 0
6, 30240, Note_on_c, 3, 70, 43
6, 30240, Note_on_c, 3, 73, 47
6, 30272, Note_on_c, 3, 70, 0
6, 30272, Note_on_c, 3, 73, 0
6, 30336, Note_on_c, 3, 70, 41
6, 30336, Note_on_c, 3, 73, 49
6, 30357, Note_on_c, 3, 70, 0
6, 30357, Note_on_c, 3, 73, 0
6, 30368, Note_on_c, 3, 70, 49
6, 30368, Note_on_c, 3, 73, 43
6, 30389, Note_on_c, 3, 70, 0
6, 30389, Note_on_c, 3, 73, 0
6, 30400, Note_on_c, 3, 70, 41
6, 30400, Note_on_c, 3, 73, 41
6, 30421, Note_on_c, 3, 70, 0
6, 30421, Note_on_c, 3, 73, 0
6, 30432, Note_on_c, 3, 70, 46
6, 30432, Note_on_c, 3, 73, 44
6, 30464, Note_on_c, 3, 70, 0
6, 30464, Note_on_c, 3, 73, 0
6, 30528, Note_on_c, 3, 70, 48
6, 30528, Note_on_c, 3, 73, 47
6, 30549, Note_on_c, 3, 70, 0
6, 30549, Note_on_c, 3, 73, 0
6, 30560, Note_on_c, 3, 70, 47
6, 30560, Note_on_c, 3, 73, 41
6, 30581, Note_on_c, 3, 70, 0
6, 30581, Note_on_c, 3, 73, 0
6, 30592, Note_on_c, 3, 70, 49
6, 30592, Note_on_c, 3, 73, 46
6, 30613, Note_on_c, 3, 70, 0
6, 30613, Note_on_c, 3, 73, 0
6, 30624, Note_on_c, 3, 70, 50
6, 30624, Note_on_c, 3, 73, 44
6, 30645, Note_on_c, 3, 70, 0
6, 30645, Note_on_c, 3, 73, 0
6, 30656, Note_on_c, 3, 70, 47
6, 30656, Note_on_c, 3, 73, 45
6, 30677, Note_on_c, 3, 70, 0
6, 30677, Note_on_c, 3, 73, 0
6, 30688, Note_on_c, 3, 70, 40
6, 30688, Note_on_c, 3, 73, 48
6, 30709, Note_on_c, 3, 70, 0
6, 30709, Note_on_c, 3, 73, 0
6, 30720, Note_on_c, 3, 70, 40
6, 30720, Note_on_c, 3, 73, 46
6, 30741, Note_on_c, 3, 70, 0
6, 30741, Note_on_c, 3, 73, 0
6, 30752, Note_on_c, 3, 70, 49
6, 30752, Note_on_c, 3, 73, 41
6, 30773, Note_on_c, 3, 70, 0
6, 30773, Note_on_c, 3, 73, 0
6, 30784, Note_on_c, 3, 70, 46
6, 30784, Note_on_c, 3, 73, 45
6, 30805, Note_on_c, 3, 70, 0
6, 30805, Note_on_c, 3, 73, 0
6, 30816, Note_on_c, 3, 70, 50
6, 30816, Note_on_c, 3, 73, 40
6, 30848, Note_on_c, 3, 70, 0
6, 30848, Note_on_c, 3, 73, 0
6, 30912, Note_on_c, 3, 70, 48
6, 30912, Note_on_c, 3, 73, 46
6, 30933, Note_on_c, 3, 70, 0
6, 30933, Note_on_c, 3, 73, 0
6, 30944, Note_on_c, 3, 70, 49
6, 30944, Note_on_c, 3, 73, 42
6, 30965, Note_on_c, 3, 70, 0
6, 30965, Note_on_c, 3, 73, 0
6, 30976, Note_on_c, 3, 70, 49
6, 30976, Note_on_c, 3, 73, 45
6, 30997, Note_on_c, 3, 70, 0
6, 30997, Note_on_c, 3, 73, 0
6, 31008, Note_on_c, 3, 70, 46
6, 31008, Note_on_c, 3, 73, 44
6, 31040, Note_on_c, 3, 70, 0
6, 31040, Note_on_c, 3, 73, 0
6, 31104, Note_on_c, 3, 70, 42
6, 31104, Note_on_c, 3, 73, 44
6, 31125, Note_on_c, 3, 70, 0
6, 31125, Note_on_c, 3, 73, 0
6, 31136, Note_on_c, 3, 70, 42
6, 31136, Note_on_c, 3, 73, 43
6, 31157, Note_on_c, 3, 70, 0
6, 31157, Note_on_c, 3, 73, 0
6, 31168, Note_on_c, 3, 70, 40
6, 31168, Note_on_c, 3, 73, 44
6, 31189, Note_on_c, 3, 70, 0
6, 31189, Note_on_c, 3, 73, 0
6, 31200, Note_on_c, 3, 70, 40
6, 31200, Note_on_c, 3, 73, 42
6, 31221, Note_on_c, 3, 70, 0
6, 31221, Note_on_c, 3, 73, 0
6, 31232, Note_on_c, 3, 70, 48
6, 31232, Note_on_c, 3, 73, 49
6, 31253, Note_on_c, 3, 70, 0
6, 31253, Note_on_c, 3, 73, 0
6, 31264, Note_on_c, 3, 70, 42
6, 31264, Note_on_c, 3, 73, 44
6, 31285, Note_on_c, 3, 70, 0
6, 31285, Note_on_c, 3, 73, 0
6, 31296, Note_on_c, 3, 70, 47
6, 31296, Note_on_c, 3, 73, 42
6, 31317, Note_on_c, 3, 70, 0
6, 31317, Note_on_c, 3, 73, 0
6, 31328, Note_on_c, 3, 70, 45
6, 31328, Note_on_c, 3, 73, 43
6, 31349, Note_on_c, 3, 70, 0
6, 31349, Note_on_c, 3, 73, 0
6, 31360, Note_on_c, 3, 70, 46
6, 31360, Note_on_c, 3, 73, 43
6, 31381, Note_on_c, 3, 70, 0
6, 31381, Note_on_c, 3, 73, 0
6, 31392, Note_on_c, 3, 70, 50
6, 31392, Note_on_c, 3, 73, 50
6, 31424, Note_on_c, 3, 70, 0
6, 31424, Note_on_c, 3, 73, 0
6, 31488, Note_on_c, 3, 70, 50
6, 31488, Note_on_c, 3, 73, 45
6, 31509, Note_on_c, 3, 70, 0
6, 31509, Note_on_c, 3, 73, 0
6, 31520, Note_on_c, 3, 70, 41
6, 31520, Note_on_c, 3, 73, 47
6, 31541, Note_on_c, 3, 70, 0
6, 31541, Note_on_c, 3, 73, 0
6, 31552, Note_on_c, 3, 70, 44
6, 31552, Note_on_c, 3, 73, 43
6, 31573, Note_on_c, 3, 70, 0
6, 31573, Note_on_c, 3, 73, 0
6, 31584, Note_on_c, 3, 70, 47
6, 31584, Note_on_c, 3, 73, 50
6, 31616, Note_on_c, 3, 70, 0
6, 31616, Note_on_c, 3, 73, 0
6, 31680, Note_on_c, 3, 70, 43
6, 31680, Note_on_c, 3, 73, 47
6, 31701, Note_on_c, 3, 70, 0
6, 31701, Note_on_c, 3, 73, 0
6, 31712, Note_on_c, 3, 70, 47
6, 31712, Note_on_c, 3, 73, 41
6, 31733, Note_on_c, 3, 70, 0
6, 31733, Note_on_c, 3, 73, 0
6, 31744, Note_on_c, 3, 70, 49
6, 31744, Note_on_c, 3, 73, 46
6, 31765, Note_on_c, 3, 70, 0
6, 31765, Note_on_c, 3, 73, 0
6, 31776, Note_on_c, 3, 70, 50
6, 31776, Note_on_c, 3, 73, 42
6, 31806, Note_on_c, 3, 70, 0
6, 31806, Note_on_c, 3, 73, 0
6, 31808, Note_on_c, 3, 72, 48
6, 31808, Note_on_c, 3, 75, 42
6, 31838, Note_on_c, 3, 72, 0
6, 31838, Note_on_c, 3, 75, 0
6, 31840, Note_on_c, 3, 70, 44
6, 31840, Note_on_c, 3, 73, 54
6, 31870, Note_on_c, 3, 70, 0
6, 31870, Note_on_c, 3, 73, 0
6, 31872, Note_on_c, 3, 69, 50
6, 31872, Note_on_c, 3, 73, 51
6, 31902, Note_on_c, 3, 69, 0
6, 31902, Note_on_c, 3, 73, 0
6, 31904, Note_on_c, 3, 71, 58
6, 31904, Note_on_c, 3, 74, 51
6, 31934, Note_on_c, 3, 71, 0
6, 31934, Note_on_c, 3, 74, 0
6, 31936, Note_on_c, 3, 69, 56
6, 31936, Note_on_c, 3, 73, 61
6, 31966, Note_on_c, 3, 69, 0
6, 31966, Note_on_c, 3, 73, 0
6, 31968, Note_on_c, 3, 68, 57
6, 31968, Note_on_c, 3, 71, 62
6, 32000, Note_on_c, 3, 68, 0
6, 32000, Note_on_c, 3, 71, 0
6, 33696, Control_c, 3, 7, 92
6, 33792, Note_on_c, 3, 63, 93
6, 33792, Note_on_c, 3, 70, 90
6, 33822, Note_on_c, 3, 63, 0
6, 33822, Note_on_c, 3, 70, 0
6, 33824, Note_on_c, 3, 66, 96
6, 33824, Note_on_c, 3, 73, 94
6, 33854, Note_on_c, 3, 66, 0
6, 33854, Note_on_c, 3, 73, 0
6, 33856, Note_on_c, 3, 70, 91
6, 33856, Note_on_c, 3, 75, 88
6, 33886, Note_on_c, 3, 70, 0
6, 33886, Note_on_c, 3, 75, 0
6, 33888, Note_on_c, 3, 73, 95
6, 33888, Note_on_c, 3, 78, 87
6, 33920, Note_on_c, 3, 73, 0
6, 33920, Note_on_c, 3, 78, 0
6, 33984, Note_on_c, 3, 63, 92
6, 33984, Note_on_c, 3, 70, 92
6, 34014, Note_on_c, 3, 63, 0
6, 34014, Note_on_c, 3, 70, 0
6, 34016, Note_on_c, 3, 66, 95
6, 34016, Note_on_c, 3, 73, 87
6, 34046, Note_on_c, 3, 66, 0
6, 34046, Note_on_c, 3, 73, 0
6, 34048, Note_on_c, 3, 70, 87
6, 34048, Note_on_c, 3, 75, 89
6, 34078, Note_on_c, 3, 70, 0
6, 34078, Note_on_c, 3, 75, 0
6, 34080, Note_on_c, 3, 73, 94
6, 34080, Note_on_c, 3, 78, 91
6, 34112, Note_on_c, 3, 73, 0
6, 34112, Note_on_c, 3, 78, 0
6, 34176, Note_on_c, 3, 70, 92
6, 34176, Note_on_c, 3, 75, 90
6, 34206, Note_on_c, 3, 70, 0
6, 34206, Note_on_c, 3, 75, 0
6, 34208, Note_on_c, 3, 73, 95
6, 34208, Note_on_c, 3, 78, 95
6, 34238, Note_on_c, 3, 73, 0
6, 34238, Note_on_c, 3, 78, 0
6, 34240, Note_on_c, 3, 75, 92
6, 34240, Note_on_c, 3, 80, 97
6, 34270, Note_on_c, 3, 75, 0
6, 34270, Note_on_c, 3, 80, 0
6, 34272, Note_on_c, 3, 77, 96
6, 34272, Note_on_c, 3, 83, 96
6, 34294, Note_on_c, 3, 83, 0
6, 34296, Note_on_c, 3, 81, 91
6, 34318, Note_on_c, 3, 81, 0
6, 34320, Note_on_c, 3, 79, 91
6, 34342, Note_on_c, 3, 79, 0
6, 34344, Note_on_c, 3, 77, 91
6, 34366, Note_on_c, 3, 77, 0
6, 34366, Note_on_c, 3, 77, 0
6, 34368, Note_on_c, 3, 74, 94
6, 34400, Note_on_c, 3, 74, 0
6, 34416, Note_on_c, 3, 76, 104
6, 34448, Note_on_c, 3, 76, 0
6, 34464, Note_on_c, 3, 74, 104
6, 34494, Note_on_c, 3, 74, 0
6, 34496, Note_on_c, 3, 76, 113
6, 34526, Note_on_c, 3, 76, 0
6, 34528, Note_on_c, 3, 74, 106
6, 34558, Note_on_c, 3, 74, 0
6, 34560, Note_on_c, 3, 76, 112
6, 34590, Note_on_c, 3, 76, 0
6, 34592, Note_on_c, 3, 74, 108
6, 34622, Note_on_c, 3, 74, 0
6, 34624, Note_on_c, 3, 76, 107
6, 34654, Note_on_c, 3, 76, 0
6, 34656, Note_on_c, 3, 74, 103
6, 34678, Note_on_c, 3, 74, 0
6, 34680, Note_on_c, 3, 76, 91
6, 34702, Note_on_c, 3, 76, 0
6, 34704, Note_on_c, 3, 74, 79
6, 34726, Note_on_c, 3, 74, 0
6, 34728, Note_on_c, 3, 76, 76
6, 34750, Note_on_c, 3, 76, 0
6, 34752, Note_on_c, 3, 74, 55
6, 34784, Note_on_c, 3, 74, 0
6, 34848, Note_on_c, 3, 83, 94
6, 34870, Note_on_c, 3, 83, 0
6, 34872, Note_on_c, 3, 81, 90
6, 34894, Note_on_c, 3, 81, 0
6, 34896, Note_on_c, 3, 79, 91
6, 34918, Note_on_c, 3, 79, 0
6, 34920, Note_on_c, 3, 77, 89
6, 34942, Note_on_c, 3, 77, 0
6, 34944, Note_on_c, 3, 74, 94
6, 34976, Note_on_c, 3, 74, 0
6, 34992, Note_on_c, 3, 76, 102
6, 35024, Note_on_c, 3, 76, 0
6, 35040, Note_on_c, 3, 74, 111
6, 35070, Note_on_c, 3, 74, 0
6, 35072, Note_on_c, 3, 76, 113
6, 35102, Note_on_c, 3, 76, 0
6, 35104, Note_on_c, 3, 74, 107
6, 35134, Note_on_c, 3, 74, 0
6, 35136, Note_on_c, 3, 76, 110
6, 35166, Note_on_c, 3, 76, 0
6, 35168, Note_on_c, 3, 74, 109
6, 35198, Note_on_c, 3, 74, 0
6, 35200, Note_on_c, 3, 76, 103
6, 35230, Note_on_c, 3, 76, 0
6, 35232, Note_on_c, 3, 74, 111
6, 35254, Note_on_c, 3, 74, 0
6, 35256, Note_on_c, 3, 76, 99
6, 35278, Note_on_c, 3, 76, 0
6, 35280, Note_on_c, 3, 74, 82
6, 35302, Note_on_c, 3, 74, 0
6, 35304, Note_on_c, 3, 76, 74
6, 35326, Note_on_c, 3, 76, 0
6, 35328, Note_on_c, 3, 74, 61
6, 35360, Note_on_c, 3, 74, 0
6, 36000, Control_c, 3, 7, 127
6, 36576, Note_on_c, 3, 74, 40
6, 36670, Note_on_c, 3, 74, 0
6, 36672, Note_on_c, 3, 76, 43
6, 36704, Note_on_c, 3, 76, 0
6, 36704, Note_on_c, 3, 74, 42
6, 36736, Note_on_c, 3, 74, 0
6, 36736, Note_on_c, 3, 73, 46
6, 36768, Note_on_c, 3, 73, 0
6, 36768, Note_on_c, 3, 72, 48
6, 36862, Note_on_c, 3, 72, 0
6, 36864, Control_c, 3, 11, 75
6, 36864, Note_on_c, 3, 73, 80
6, 36869, Control_c, 3, 11, 76
6, 36875, Control_c, 3, 11, 77
6, 36880, Control_c, 3, 11, 78
6, 36886, Control_c, 3, 11, 79
6, 36891, Control_c, 3, 11, 80
6, 36897, Control_c, 3, 11, 81
6, 36902, Control_c, 3, 11, 82
6, 36908, Control_c, 3, 11, 83
6, 36913, Control_c, 3, 11, 84
6, 36919, Control_c, 3, 11, 85
6, 36924, Control_c, 3, 11, 86
6, 36930, Control_c, 3, 11, 87
6, 36936, Control_c, 3, 11, 88
6, 36941, Control_c, 3, 11, 89
6, 36947, Control_c, 3, 11, 90
6, 36952, Control_c, 3, 11, 91
6, 36958, Control_c, 3, 11, 92
6, 36963, Control_c, 3, 11, 93
6, 36969, Control_c, 3, 11, 94
6, 36974, Control_c, 3, 11, 95
6, 36980, Control_c, 3, 11, 96
6, 36985, Control_c, 3, 11, 97
6, 36991, Control_c, 3, 11, 98
6, 36996, Control_c, 3, 11, 99
6, 37002, Control_c, 3, 11, 100
6, 37008, Control_c, 3, 11, 101
6, 37013, Control_c, 3, 11, 102
6, 37019, Control_c, 3, 11, 103
6, 37024, Control_c, 3, 11, 104
6, 37030, Control_c, 3, 11, 105
6, 37035, Control_c, 3, 11, 106
6, 37041, Control_c, 3, 11, 107
6, 37046, Control_c, 3, 11, 108
6, 37052, Control_c, 3, 11, 109
6, 37056, Note_on_c, 3, 73, 0
6, 37056, Note_on_c, 3, 76, 73
6, 37057, Control_c, 3, 11, 110
6, 37063, Control_c, 3, 11, 111
6, 37068, Control_c, 3, 11, 112
6, 37074, Control_c, 3, 11, 113
6, 37080, Control_c, 3, 11, 114
6, 37085, Control_c, 3, 11, 115
6, 37091, Control_c, 3, 11, 116
6, 37096, Control_c, 3, 11, 117
6, 37102, Control_c, 3, 11, 118
6, 37107, Control_c, 3, 11, 119
6, 37113, Control_c, 3, 11, 120
6, 37118, Control_c, 3, 11, 121
6, 37124, Control_c, 3, 11, 122
6, 37129, Control_c, 3, 11, 123
6, 37135, Control_c, 3, 11, 124
6, 37140, Control_c, 3, 11, 125
6, 37146, Control_c, 3, 11, 126
6, 37152, Note_on_c, 3, 76, 0
6, 37152, Control_c, 3, 11, 127
6, 37152, Note_on_c, 3, 74, 77
6, 37159, Control_c, 3, 11, 126
6, 37166, Control_c, 3, 11, 125
6, 37174, Control_c, 3, 11, 124
6, 37181, Control_c, 3, 11, 123
6, 37188, Control_c, 3, 11, 122
6, 37196, Control_c, 3, 11, 121
6, 37203, Control_c, 3, 11, 120
6, 37211, Control_c, 3, 11, 119
6, 37218, Control_c, 3, 11, 118
6, 37225, Control_c, 3, 11, 117
6, 37233, Control_c, 3, 11, 116
6, 37240, Control_c, 3, 11, 115
6, 37248, Control_c, 3, 11, 114
6, 37255, Control_c, 3, 11, 113
6, 37262, Control_c, 3, 11, 112
6, 37270, Control_c, 3, 11, 111
6, 37277, Control_c, 3, 11, 110
6, 37284, Control_c, 3, 11, 109
6, 37292, Control_c, 3, 11, 108
6, 37299, Control_c, 3, 11, 107
6, 37307, Control_c, 3, 11, 106
6, 37314, Control_c, 3, 11, 105
6, 37321, Control_c, 3, 11, 104
6, 37329, Control_c, 3, 11, 103
6, 37336, Control_c, 3, 11, 102
6, 37344, Control_c, 3, 11, 101
6, 37351, Control_c, 3, 11, 100
6, 37358, Control_c, 3, 11, 99
6, 37366, Control_c, 3, 11, 98
6, 37373, Control_c, 3, 11, 97
6, 37380, Control_c, 3, 11, 96
6, 37388, Control_c, 3, 11, 95
6, 37395, Control_c, 3, 11, 94
6, 37403, Control_c, 3, 11, 93
6, 37410, Control_c, 3, 11, 92
6, 37417, Control_c, 3, 11, 91
6, 37425, Control_c, 3, 11, 90
6, 37432, Control_c, 3, 11, 89
6, 37440, Control_c, 3, 11, 88
6, 37447, Control_c, 3, 11, 87
6, 37454, Control_c, 3, 11, 86
6, 37462, Control_c, 3, 11, 85
6, 37469, Control_c, 3, 11, 84
6, 37476, Control_c, 3, 11, 83
6, 37484, Control_c, 3, 11, 82
6, 37488, Note_on_c, 3, 74, 0
6, 37491, Control_c, 3, 11, 81
6, 37499, Control_c, 3, 11, 80
6, 37506, Control_c, 3, 11, 79
6, 37513, Control_c, 3, 11, 78
6, 37521, Control_c, 3, 11, 77
6, 37528, Control_c, 3, 11, 76
6, 37536, Control_c, 3, 11, 75
6, 37728, Control_c, 3, 11, 127
6, 37728, Note_on_c, 3, 74, 41
6, 37824, Note_on_c, 3, 74, 0
6, 37824, Note_on_c, 3, 76, 45
6, 37856, Note_on_c, 3, 76, 0
6, 37856, Note_on_c, 3, 74, 48
6, 37888, Note_on_c, 3, 74, 0
6, 37888, Note_on_c, 3, 73, 44
6, 37920, Note_on_c, 3, 73, 0
6, 37920, Note_on_c, 3, 72, 49
6, 38014, Note_on_c, 3, 72, 0
6, 38016, Note_on_c, 3, 73, 48
6, 38208, Note_on_c, 3, 73, 0
6, 38208, Note_on_c, 3, 76, 50
6, 38302, Note_on_c, 3, 76, 0
6, 38304, Note_on_c, 3, 69, 35
6, 38304, Note_on_c, 3, 75, 29
6, 38346, Note_on_c, 3, 69, 0
6, 38346, Note_on_c, 3, 75, 0
6, 38368, Note_on_c, 3, 69, 27
6, 38368, Note_on_c, 3, 75, 32
6, 38410, Note_on_c, 3, 69, 0
6, 38410, Note_on_c, 3, 75, 0
6, 38432, Note_on_c, 3, 68, 29
6, 38432, Note_on_c, 3, 74, 26
6, 38474, Note_on_c, 3, 68, 0
6, 38474, Note_on_c, 3, 74, 0
6, 38496, Note_on_c, 3, 67, 21
6, 38496, Note_on_c, 3, 73, 25
6, 38832, Note_on_c, 3, 67, 0
6, 38832, Note_on_c, 3, 73, 0
6, 39456, Note_on_c, 3, 86, 26
6, 39478, Note_on_c, 3, 86, 0
6, 39480, Note_on_c, 3, 84, 30
6, 39502, Note_on_c, 3, 84, 0
6, 39504, Note_on_c, 3, 82, 28
6, 39526, Note_on_c, 3, 82, 0
6, 39528, Note_on_c, 3, 80, 37
6, 39550, Note_on_c, 3, 80, 0
6, 39552, Note_on_c, 3, 74, 37
6, 39574, Note_on_c, 3, 74, 0
6, 39576, Note_on_c, 3, 72, 37
6, 39598, Note_on_c, 3, 72, 0
6, 39600, Note_on_c, 3, 70, 40
6, 39622, Note_on_c, 3, 70, 0
6, 39624, Note_on_c, 3, 68, 37
6, 39646, Note_on_c, 3, 68, 0
6, 39648, Note_on_c, 3, 62, 50
6, 39680, Note_on_c, 3, 62, 0
6, 39840, Note_on_c, 3, 62, 43
6, 39862, Note_on_c, 3, 62, 0
6, 39864, Note_on_c, 3, 68, 47
6, 39886, Note_on_c, 3, 68, 0
6, 39888, Note_on_c, 3, 70, 44
6, 39910, Note_on_c, 3, 70, 0
6, 39912, Note_on_c, 3, 72, 43
6, 39934, Note_on_c, 3, 72, 0
6, 39936, Note_on_c, 3, 74, 34
6, 39958, Note_on_c, 3, 74, 0
6, 39960, Note_on_c, 3, 80, 37
6, 39982, Note_on_c, 3, 80, 0
6, 39984, Note_on_c, 3, 82, 29
6, 40006, Note_on_c, 3, 82, 0
6, 40008, Note_on_c, 3, 84, 32
6, 40030, Note_on_c, 3, 84, 0
6, 40032, Note_on_c, 3, 86, 32
6, 40064, Note_on_c, 3, 86, 0
6, 42336, Note_on_c, 3, 66, 46
6, 42368, Note_on_c, 3, 66, 0
6, 42432, Note_on_c, 3, 66, 43
6, 42453, Note_on_c, 3, 66, 0
6, 42464, Note_on_c, 3, 66, 48
6, 42485, Note_on_c, 3, 66, 0
6, 42496, Note_on_c, 3, 66, 47
6, 42517, Note_on_c, 3, 66, 0
6, 42528, Note_on_c, 3, 66, 41
6, 42560, Note_on_c, 3, 66, 0
6, 42624, Note_on_c, 3, 66, 47
6, 42645, Note_on_c, 3, 66, 0
6, 42656, Note_on_c, 3, 66, 40
6, 42677, Note_on_c, 3, 66, 0
6, 42688, Note_on_c, 3, 66, 45
6, 42709, Note_on_c, 3, 66, 0
6, 42720, Note_on_c, 3, 66, 41
6, 42741, Note_on_c, 3, 66, 0
6, 42752, Note_on_c, 3, 66, 48
6, 42773, Note_on_c, 3, 66, 0
6, 42784, Note_on_c, 3, 66, 50
6, 42805, Note_on_c, 3, 66, 0
6, 42816, Note_on_c, 3, 66, 49
6, 42837, Note_on_c, 3, 66, 0
6, 42848, Note_on_c, 3, 66, 46
6, 42869, Note_on_c, 3, 66, 0
6, 42880, Note_on_c, 3, 66, 50
6, 42901, Note_on_c, 3, 66, 0
6, 42912, Note_on_c, 3, 59, 42
6, 42912, Note_on_c, 3, 66, 42
6, 42944, Note_on_c, 3, 59, 0
6, 42944, Note_on_c, 3, 66, 0
6, 43008, Note_on_c, 3, 59, 49
6, 43008, Note_on_c, 3, 66, 49
6, 43029, Note_on_c, 3, 59, 0
6, 43029, Note_on_c, 3, 66, 0
6, 43040, Note_on_c, 3, 59, 44
6, 43040, Note_on_c, 3, 66, 41
6, 43061, Note_on_c, 3, 59, 0
6, 43061, Note_on_c, 3, 66, 0
6, 43072, Note_on_c, 3, 59, 45
6, 43072, Note_on_c, 3, 66, 45
6, 43093, Note_on_c, 3, 59, 0
6, 43093, Note_on_c, 3, 66, 0
6, 43104, Note_on_c, 3, 59, 42
6, 43104, Note_on_c, 3, 66, 43
6, 43136, Note_on_c, 3, 59, 0
6, 43136, Note_on_c, 3, 66, 0
6, 43200, Note_on_c, 3, 59, 41
6, 43200, Note_on_c, 3, 66, 43
6, 43221, Note_on_c, 3, 59, 0
6, 43221, Note_on_c, 3, 66, 0
6, 43232, Note_on_c, 3, 59, 45
6, 43232, Note_on_c, 3, 66, 41
6, 43253, Note_on_c, 3, 59, 0
6, 43253, Note_on_c, 3, 66, 0
6, 43264, Note_on_c, 3, 59, 50
6, 43264, Note_on_c, 3, 66, 47
6, 43285, Note_on_c, 3, 59, 0
6, 43285, Note_on_c, 3, 66, 0
6, 43296, Note_on_c, 3, 59, 50
6, 43296, Note_on_c, 3, 66, 49
6, 43317, Note_on_c, 3, 59, 0
6, 43317, Note_on_c, 3, 66, 0
6, 43328, Note_on_c, 3, 59, 45
6, 43328, Note_on_c, 3, 66, 41
6, 43349, Note_on_c, 3, 59, 0
6, 43349, Note_on_c, 3, 66, 0
6, 43360, Note_on_c, 3, 59, 41
6, 43360, Note_on_c, 3, 66, 48
6, 43381, Note_on_c, 3, 59, 0
6, 43381, Note_on_c, 3, 66, 0
6, 43392, Note_on_c, 3, 59, 41
6, 43392, Note_on_c, 3, 66, 47
6, 43413, Note_on_c, 3, 59, 0
6, 43413, Note_on_c, 3, 66, 0
6, 43424, Note_on_c, 3, 59, 41
6, 43424, Note_on_c, 3, 66, 46
6, 43445, Note_on_c, 3, 59, 0
6, 43445, Note_on_c, 3, 66, 0
6, 43456, Note_on_c, 3, 59, 46
6, 43456, Note_on_c, 3, 66, 48
6, 43477, Note_on_c, 3, 59, 0
6, 43477, Note_on_c, 3, 66, 0
6, 43680, Control_c, 3, 11, 92
6, 43680, Note_on_c, 3, 56, 58
6, 43680, Note_on_c, 3, 62, 57
6, 43685, Control_c, 3, 11, 93
6, 43690, Control_c, 3, 11, 94
6, 43696, Control_c, 3, 11, 95
6, 43701, Control_c, 3, 11, 96
6, 43707, Control_c, 3, 11, 97
6, 43712, Control_c, 3, 11, 98
6, 43718, Control_c, 3, 11, 99
6, 43723, Control_c, 3, 11, 100
6, 43729, Control_c, 3, 11, 101
6, 43734, Control_c, 3, 11, 102
6, 43740, Control_c, 3, 11, 103
6, 43745, Control_c, 3, 11, 104
6, 43751, Control_c, 3, 11, 105
6, 43756, Control_c, 3, 11, 106
6, 43762, Control_c, 3, 11, 107
6, 43767, Control_c, 3, 11, 108
6, 43773, Control_c, 3, 11, 109
6, 43778, Control_c, 3, 11, 110
6, 43784, Control_c, 3, 11, 111
6, 43789, Control_c, 3, 11, 112
6, 43795, Control_c, 3, 11, 113
6, 43800, Control_c, 3, 11, 114
6, 43806, Control_c, 3, 11, 115
6, 43811, Control_c, 3, 11, 116
6, 43817, Control_c, 3, 11, 117
6, 43822, Control_c, 3, 11, 118
6, 43828, Control_c, 3, 11, 119
6, 43833, Control_c, 3, 11, 120
6, 43839, Control_c, 3, 11, 121
6, 43844, Control_c, 3, 11, 122
6, 43850, Control_c, 3, 11, 123
6, 43855, Control_c, 3, 11, 124
6, 43861, Control_c, 3, 11, 125
6, 43866, Control_c, 3, 11, 126
6, 43872, Note_on_c, 3, 56, 0
6, 43872, Note_on_c, 3, 62, 0
6, 43872, Control_c, 3, 11, 127
6, 43872, Note_on_c, 3, 60, 64
6, 43872, Note_on_c, 3, 66, 64
6, 43966, Note_on_c, 3, 60, 0
6, 43966, Note_on_c, 3, 66, 0
6, 44256, Control_c, 3, 11, 92
6, 44256, Note_on_c, 3, 56, 57
6, 44256, Note_on_c, 3, 62, 60
6, 44261, Control_c, 3, 11, 93
6, 44266, Control_c, 3, 11, 94
6, 44272, Control_c, 3, 11, 95
6, 44277, Control_c, 3, 11, 96
6, 44283, Control_c, 3, 11, 97
6, 44288, Control_c, 3, 11, 98
6, 44294, Control_c, 3, 11, 99
6, 44299, Control_c, 3, 11, 100
6, 44305, Control_c, 3, 11, 101
6, 44310, Control_c, 3, 11, 102
6, 44316, Control_c, 3, 11, 103
6, 44321, Control_c, 3, 11, 104
6, 44327, Control_c, 3, 11, 105
6, 44332, Control_c, 3, 11, 106
6, 44338, Control_c, 3, 11, 107
6, 44343, Control_c, 3, 11, 108
6, 44349, Control_c, 3, 11, 109
6, 44354, Control_c, 3, 11, 110
6, 44360, Control_c, 3, 11, 111
6, 44365, Control_c, 3, 11, 112
6, 44371, Control_c, 3, 11, 113
6, 44376, Control_c, 3, 11, 114
6, 44382, Control_c, 3, 11, 115
6, 44387, Control_c, 3, 11, 116
6, 44393, Control_c, 3, 11, 117
6, 44398, Control_c, 3, 11, 118
6, 44404, Control_c, 3, 11, 119
6, 44409, Control_c, 3, 11, 120
6, 44415, Control_c, 3, 11, 121
6, 44420, Control_c, 3, 11, 122
6, 44426, Control_c, 3, 11, 123
6, 44431, Control_c, 3, 11, 124
6, 44437, Control_c, 3, 11, 125
6, 44442, Control_c, 3, 11, 126
6, 44448, Note_on_c, 3, 56, 0
6, 44448, Note_on_c, 3, 62, 0
6, 44448, Control_c, 3, 11, 127
6, 44448, Note_on_c, 3, 60, 58
6, 44448, Note_on_c, 3, 66, 65
6, 44542, Note_on_c, 3, 60, 0
6, 44542, Note_on_c, 3, 66, 0
6, 45216, Note_on_c, 3, 62, 74
6, 45216, Note_on_c, 3, 65, 70
6, 45237, Note_on_c, 3, 62, 0
6, 45237, Note_on_c, 3, 65, 0
6, 45248, Note_on_c, 3, 62, 74
6, 45248, Note_on_c, 3, 65, 78
6, 45269, Note_on_c, 3, 62, 0
6, 45269, Note_on_c, 3, 65, 0
6, 45280, Note_on_c, 3, 62, 78
6, 45280, Note_on_c, 3, 65, 76
6, 45301, Note_on_c, 3, 62, 0
6, 45301, Note_on_c, 3, 65, 0
6, 45312, Note_on_c, 3, 65, 75
6, 45312, Note_on_c, 3, 68, 72
6, 45333, Note_on_c, 3, 65, 0
6, 45333, Note_on_c, 3, 68, 0
6, 45344, Note_on_c, 3, 65, 83
6, 45344, Note_on_c, 3, 68, 80
6, 45365, Note_on_c, 3, 65, 0
6, 45365, Note_on_c, 3, 68, 0
6, 45376, Note_on_c, 3, 65, 74
6, 45376, Note_on_c, 3, 68, 77
6, 45397, Note_on_c, 3, 65, 0
6, 45397, Note_on_c, 3, 68, 0
6, 45408, Note_on_c, 3, 65, 85
6, 45408, Note_on_c, 3, 70, 79
6, 45429, Note_on_c, 3, 65, 0
6, 45429, Note_on_c, 3, 70, 0
6, 45440, Note_on_c, 3, 65, 78
6, 45440, Note_on_c, 3, 70, 76
6, 45461, Note_on_c, 3, 65, 0
6, 45461, Note_on_c, 3, 70, 0
6, 45472, Note_on_c, 3, 65, 85
6, 45472, Note_on_c, 3, 70, 82
6, 45493, Note_on_c, 3, 65, 0
6, 45493, Note_on_c, 3, 70, 0
6, 45504, Note_on_c, 3, 70, 80
6, 45504, Note_on_c, 3, 74, 82
6, 45525, Note_on_c, 3, 70, 0
6, 45525, Note_on_c, 3, 74, 0
6, 45536, Note_on_c, 3, 70, 81
6, 45536, Note_on_c, 3, 74, 88
6, 45557, Note_on_c, 3, 70, 0
6, 45557, Note_on_c, 3, 74, 0
6, 45568, Note_on_c, 3, 70, 80
6, 45568, Note_on_c, 3, 74, 80
6, 45589, Note_on_c, 3, 70, 0
6, 45589, Note_on_c, 3, 74, 0
6, 45600, Note_on_c, 3, 71, 91
6, 45600, Note_on_c, 3, 77, 87
6, 45621, Note_on_c, 3, 71, 0
6, 45621, Note_on_c, 3, 77, 0
6, 45632, Note_on_c, 3, 71, 88
6, 45632, Note_on_c, 3, 77, 92
6, 45653, Note_on_c, 3, 71, 0
6, 45653, Note_on_c, 3, 77, 0
6, 45664, Note_on_c, 3, 71, 84
6, 45664, Note_on_c, 3, 77, 91
6, 45685, Note_on_c, 3, 71, 0
6, 45685, Note_on_c, 3, 77, 0
6, 45696, Note_on_c, 3, 77, 92
6, 45696, Note_on_c, 3, 80, 84
6, 45717, Note_on_c, 3, 77, 0
6, 45717, Note_on_c, 3, 80, 0
6, 45728, Note_on_c, 3, 77, 87
6, 45728, Note_on_c, 3, 80, 94
6, 45749, Note_on_c, 3, 77, 0
6, 45749, Note_on_c, 3, 80, 0
6, 45760, Note_on_c, 3, 77, 88
6, 45760, Note_on_c, 3, 80, 88
6, 45781, Note_on_c, 3, 77, 0
6, 45781, Note_on_c, 3, 80, 0
6, 45792, Note_on_c, 3, 76, 27
6, 45792, Note_on_c, 3, 81, 28
6, 45886, Note_on_c, 3, 76, 0
6, 45886, Note_on_c, 3, 81, 0
6, 47520, Note_on_c, 3, 73, 26
6, 47520, Note_on_c, 3, 80, 35
6, 48096, Control_c, 3, 11, 127
6, 48102, Control_c, 3, 11, 126
6, 48108, Control_c, 3, 11, 125
6, 48114, Control_c, 3, 11, 124
6, 48120, Control_c, 3, 11, 123
6, 48126, Control_c, 3, 11, 122
6, 48132, Control_c, 3, 11, 121
6, 48138, Control_c, 3, 11, 120
6, 48144, Control_c, 3, 11, 119
6, 48150, Control_c, 3, 11, 118
6, 48156, Control_c, 3, 11, 117
6, 48163, Control_c, 3, 11, 116
6, 48169, Control_c, 3, 11, 115
6, 48175, Control_c, 3, 11, 114
6, 48181, Control_c, 3, 11, 113
6, 48187, Control_c, 3, 11, 112
6, 48193, Control_c, 3, 11, 111
6, 48199, Control_c, 3, 11, 110
6, 48205, Control_c, 3, 11, 109
6, 48211, Control_c, 3, 11, 108
6, 48217, Control_c, 3, 11, 107
6, 48224, Control_c, 3, 11, 106
6, 48230, Control_c, 3, 11, 105
6, 48236, Control_c, 3, 11, 104
6, 48242, Control_c, 3, 11, 103
6, 48248, Control_c, 3, 11, 102
6, 48254, Control_c, 3, 11, 101
6, 48260, Control_c, 3, 11, 100
6, 48266, Control_c, 3, 11, 99
6, 48272, Control_c, 3, 11, 98
6, 48278, Control_c, 3, 11, 97
6, 48284, Control_c, 3, 11, 96
6, 48291, Control_c, 3, 11, 95
6, 48297, Control_c, 3, 11, 94
6, 48303, Control_c, 3, 11, 93
6, 48309, Control_c, 3, 11, 92
6, 48315, Control_c, 3, 11, 91
6, 48321, Control_c, 3, 11, 90
6, 48327, Control_c, 3, 11, 89
6, 48333, Control_c, 3, 11, 88
6, 48339, Control_c, 3, 11, 87
6, 48345, Control_c, 3, 11, 86
6, 48352, Control_c, 3, 11, 85
6, 48358, Control_c, 3, 11, 84
6, 48364, Control_c, 3, 11, 83
6, 48370, Control_c, 3, 11, 82
6, 48376, Control_c, 3, 11, 81
6, 48382, Control_c, 3, 11, 80
6, 48388, Control_c, 3, 11, 79
6, 48394, Control_c, 3, 11, 78
6, 48400, Control_c, 3, 11, 77
6, 48406, Control_c, 3, 11, 76
6, 48412, Control_c, 3, 11, 75
6, 48419, Control_c, 3, 11, 74
6, 48425, Control_c, 3, 11, 73
6, 48431, Control_c, 3, 11, 72
6, 48432, Note_on_c, 3, 73, 0
6, 48432, Note_on_c, 3, 80, 0
6, 48437, Control_c, 3, 11, 71
6, 48443, Control_c, 3, 11, 70
6, 48449, Control_c, 3, 11, 69
6, 48455, Control_c, 3, 11, 68
6, 48461, Control_c, 3, 11, 67
6, 48467, Control_c, 3, 11, 66
6, 48473, Control_c, 3, 11, 65
6, 48480, Control_c, 3, 11, 64
6, 50400, Control_c, 3, 11, 127
6, 58464, Note_on_c, 3, 68, 71
6, 58485, Note_on_c, 3, 68, 0
6, 58496, Note_on_c, 3, 68, 73
6, 58517, Note_on_c, 3, 68, 0
6, 58528, Note_on_c, 3, 68, 75
6, 58549, Note_on_c, 3, 68, 0
6, 58560, Note_on_c, 3, 66, 74
6, 58581, Note_on_c, 3, 66, 0
6, 58592, Note_on_c, 3, 66, 82
6, 58613, Note_on_c, 3, 66, 0
6, 58624, Note_on_c, 3, 66, 79
6, 58645, Note_on_c, 3, 66, 0
6, 58656, Note_on_c, 3, 71, 75
6, 58677, Note_on_c, 3, 71, 0
6, 58688, Note_on_c, 3, 71, 78
6, 58709, Note_on_c, 3, 71, 0
6, 58720, Note_on_c, 3, 71, 84
6, 58741, Note_on_c, 3, 71, 0
6, 58752, Note_on_c, 3, 69, 85
6, 58773, Note_on_c, 3, 69, 0
6, 58784, Note_on_c, 3, 69, 89
6, 58805, Note_on_c, 3, 69, 0
6, 58816, Note_on_c, 3, 69, 87
6, 58837, Note_on_c, 3, 69, 0
6, 58848, Note_on_c, 3, 68, 86
6, 58869, Note_on_c, 3, 68, 0
6, 58880, Note_on_c, 3, 68, 89
6, 58901, Note_on_c, 3, 68, 0
6, 58912, Note_on_c, 3, 68, 90
6, 58933, Note_on_c, 3, 68, 0
6, 58944, Note_on_c, 3, 66, 90
6, 58965, Note_on_c, 3, 66, 0
6, 58976, Note_on_c, 3, 66, 90
6, 58997, Note_on_c, 3, 66, 0
6, 59008, Note_on_c, 3, 66, 88
6, 59029, Note_on_c, 3, 66, 0
6, 59040, Note_on_c, 3, 68, 90
6, 59040, Note_on_c, 3, 71, 95
6, 59061, Note_on_c, 3, 68, 0
6, 59061, Note_on_c, 3, 71, 0
6, 59072, Note_on_c, 3, 68, 92
6, 59072, Note_on_c, 3, 71, 91
6, 59093, Note_on_c, 3, 68, 0
6, 59093, Note_on_c, 3, 71, 0
6, 59104, Note_on_c, 3, 68, 88
6, 59104, Note_on_c, 3, 71, 92
6, 59125, Note_on_c, 3, 68, 0
6, 59125, Note_on_c, 3, 71, 0
6, 59136, Note_on_c, 3, 66, 90
6, 59136, Note_on_c, 3, 69, 90
6, 59157, Note_on_c, 3, 66, 0
6, 59157, Note_on_c, 3, 69, 0
6, 59168, Note_on_c, 3, 66, 87
6, 59168, Note_on_c, 3, 69, 90
6, 59189, Note_on_c, 3, 66, 0
6, 59189, Note_on_c, 3, 69, 0
6, 59200, Note_on_c, 3, 66, 91
6, 59200, Note_on_c, 3, 69, 93
6, 59221, Note_on_c, 3, 66, 0
6, 59221, Note_on_c, 3, 69, 0
6, 59232, Note_on_c, 3, 64, 89
6, 59232, Note_on_c, 3, 68, 96
6, 59253, Note_on_c, 3, 64, 0
6, 59253, Note_on_c, 3, 68, 0
6, 59264, Note_on_c, 3, 64, 94
6, 59264, Note_on_c, 3, 68, 97
6, 59285, Note_on_c, 3, 64, 0
6, 59285, Note_on_c, 3, 68, 0
6, 59296, Note_on_c, 3, 64, 96
6, 59296, Note_on_c, 3, 68, 92
6, 59317, Note_on_c, 3, 64, 0
6, 59317, Note_on_c, 3, 68, 0
6, 59328, Note_on_c, 3, 62, 87
6, 59328, Note_on_c, 3, 66, 95
6, 59349, Note_on_c, 3, 62, 0
6, 59349, Note_on_c, 3, 66, 0
6, 59360, Note_on_c, 3, 62, 97
6, 59360, Note_on_c, 3, 66, 90
6, 59381, Note_on_c, 3, 62, 0
6, 59381, Note_on_c, 3, 66, 0
6, 59392, Note_on_c, 3, 62, 93
6, 59392, Note_on_c, 3, 66, 87
6, 59413, Note_on_c, 3, 62, 0
6, 59413, Note_on_c, 3, 66, 0
6, 59424, Note_on_c, 3, 68, 92
6, 59424, Note_on_c, 3, 71, 94
6, 59445, Note_on_c, 3, 68, 0
6, 59445, Note_on_c, 3, 71, 0
6, 59456, Note_on_c, 3, 68, 91
6, 59456, Note_on_c, 3, 71, 95
6, 59477, Note_on_c, 3, 68, 0
6, 59477, Note_on_c, 3, 71, 0
6, 59488, Note_on_c, 3, 68, 94
6, 59488, Note_on_c, 3, 71, 96
6, 59509, Note_on_c, 3, 68, 0
6, 59509, Note_on_c, 3, 71, 0
6, 59520, Note_on_c, 3, 66, 92
6, 59520, Note_on_c, 3, 69, 95
6, 59541, Note_on_c, 3, 66, 0
6, 59541, Note_on_c, 3, 69, 0
6, 59552, Note_on_c, 3, 66, 90
6, 59552, Note_on_c, 3, 69, 87
6, 59573, Note_on_c, 3, 66, 0
6, 59573, Note_on_c, 3, 69, 0
6, 59584, Note_on_c, 3, 66, 91
6, 59584, Note_on_c, 3, 69, 89
6, 59605, Note_on_c, 3, 66, 0
6, 59605, Note_on_c, 3, 69, 0
6, 60768, Control_c, 3, 11, 92
6, 60864, Note_on_c, 3, 69, 59
6, 60896, Note_on_c, 3, 69, 0
6, 60896, Note_on_c, 3, 71, 60
6, 60928, Note_on_c, 3, 71, 0
6, 60928, Note_on_c, 3, 73, 60
6, 60960, Note_on_c, 3, 73, 0
6, 60960, Note_on_c, 3, 75, 60
6, 61344, Control_c, 3, 11, 92
6, 61349, Control_c, 3, 11, 93
6, 61354, Control_c, 3, 11, 94
6, 61360, Control_c, 3, 11, 95
6, 61365, Control_c, 3, 11, 96
6, 61371, Control_c, 3, 11, 97
6, 61376, Note_on_c, 3, 75, 0
6, 61376, Control_c, 3, 11, 98
6, 61376, Note_on_c, 3, 76, 65
6, 61382, Control_c, 3, 11, 99
6, 61387, Control_c, 3, 11, 100
6, 61393, Control_c, 3, 11, 101
6, 61398, Control_c, 3, 11, 102
6, 61404, Control_c, 3, 11, 103
6, 61408, Note_on_c, 3, 76, 0
6, 61408, Note_on_c, 3, 78, 61
6, 61409, Control_c, 3, 11, 104
6, 61415, Control_c, 3, 11, 105
6, 61420, Control_c, 3, 11, 106
6, 61426, Control_c, 3, 11, 107
6, 61431, Control_c, 3, 11, 108
6, 61432, Note_on_c, 3, 78, 0
6, 61432, Note_on_c, 3, 78, 58
6, 61437, Control_c, 3, 11, 109
6, 61440, Note_on_c, 3, 78, 0
6, 61440, Note_on_c, 3, 76, 58
6, 61442, Control_c, 3, 11, 110
6, 61448, Control_c, 3, 11, 111
6, 61453, Control_c, 3, 11, 112
6, 61459, Control_c, 3, 11, 113
6, 61464, Control_c, 3, 11, 114
6, 61470, Control_c, 3, 11, 115
6, 61475, Control_c, 3, 11, 116
6, 61481, Control_c, 3, 11, 117
6, 61486, Control_c, 3, 11, 118
6, 61488, Note_on_c, 3, 76, 0
6, 61488, Note_on_c, 3, 75, 57
6, 61492, Control_c, 3, 11, 119
6, 61497, Control_c, 3, 11, 120
6, 61503, Control_c, 3, 11, 121
6, 61508, Control_c, 3, 11, 122
6, 61514, Control_c, 3, 11, 123
6, 61519, Control_c, 3, 11, 124
6, 61525, Control_c, 3, 11, 125
6, 61530, Control_c, 3, 11, 126
6, 61536, Note_on_c, 3, 75, 0
6, 61536, Control_c, 3, 11, 127
6, 61536, Note_on_c, 3, 75, 64
6, 61546, Control_c, 3, 11, 126
6, 61557, Control_c, 3, 11, 125
6, 61568, Control_c, 3, 11, 124
6, 61579, Control_c, 3, 11, 123
6, 61590, Control_c, 3, 11, 122
6, 61601, Control_c, 3, 11, 121
6, 61612, Control_c, 3, 11, 120
6, 61623, Control_c, 3, 11, 119
6, 61634, Control_c, 3, 11, 118
6, 61645, Control_c, 3, 11, 117
6, 61656, Control_c, 3, 11, 116
6, 61667, Control_c, 3, 11, 115
6, 61678, Control_c, 3, 11, 114
6, 61689, Control_c, 3, 11, 113
6, 61700, Control_c, 3, 11, 112
6, 61711, Control_c, 3, 11, 111
6, 61722, Control_c, 3, 11, 110
6, 61733, Control_c, 3, 11, 109
6, 61744, Control_c, 3, 11, 108
6, 61755, Control_c, 3, 11, 107
6, 61766, Control_c, 3, 11, 106
6, 61777, Control_c, 3, 11, 105
6, 61788, Control_c, 3, 11, 104
6, 61799, Control_c, 3, 11, 103
6, 61810, Control_c, 3, 11, 102
6, 61821, Control_c, 3, 11, 101
6, 61832, Control_c, 3, 11, 100
6, 61843, Control_c, 3, 11, 99
6, 61854, Control_c, 3, 11, 98
6, 61865, Control_c, 3, 11, 97
6, 61876, Control_c, 3, 11, 96
6, 61887, Control_c, 3, 11, 95
6, 61898, Control_c, 3, 11, 94
6, 61909, Control_c, 3, 11, 93
6, 61920, Control_c, 3, 11, 92
6, 61952, Note_on_c, 3, 75, 0
6, 61952, Note_on_c, 3, 76, 64
6, 61984, Note_on_c, 3, 76, 0
6, 61984, Note_on_c, 3, 78, 64
6, 62008, Note_on_c, 3, 78, 0
6, 62008, Note_on_c, 3, 78, 64
6, 62016, Note_on_c, 3, 78, 0
6, 62016, Note_on_c, 3, 76, 58
6, 62064, Note_on_c, 3, 76, 0
6, 62064, Note_on_c, 3, 75, 55
6, 62112, Note_on_c, 3, 75, 0
6, 62112, Note_on_c, 3, 75, 56
6, 62688, Note_on_c, 3, 75, 0
6, 62688, Note_on_c, 3, 76, 64
6, 62880, Note_on_c, 3, 76, 0
6, 62880, Note_on_c, 3, 78, 62
6, 63040, Note_on_c, 3, 78, 0
6, 63072, Note_on_c, 3, 73, 33
6, 63072, Note_on_c, 3, 79, 33
6, 63808, Note_on_c, 3, 73, 0
6, 63808, Note_on_c, 3, 79, 0
6, 64224, Control_c, 3, 11, 75
6, 64224, Note_on_c, 3, 69, 59
6, 64231, Control_c, 3, 11, 76
6, 64238, Control_c, 3, 11, 77
6, 64246, Control_c, 3, 11, 78
6, 64253, Control_c, 3, 11, 79
6, 64260, Control_c, 3, 11, 80
6, 64268, Control_c, 3, 11, 81
6, 64275, Control_c, 3, 11, 82
6, 64283, Control_c, 3, 11, 83
6, 64290, Control_c, 3, 11, 84
6, 64297, Control_c, 3, 11, 85
6, 64305, Control_c, 3, 11, 86
6, 64312, Control_c, 3, 11, 87
6, 64320, Control_c, 3, 11, 88
6, 64327, Control_c, 3, 11, 89
6, 64334, Control_c, 3, 11, 90
6, 64342, Control_c, 3, 11, 91
6, 64349, Control_c, 3, 11, 92
6, 64356, Control_c, 3, 11, 93
6, 64364, Control_c, 3, 11, 94
6, 64371, Control_c, 3, 11, 95
6, 64379, Control_c, 3, 11, 96
6, 64386, Control_c, 3, 11, 97
6, 64393, Control_c, 3, 11, 98
6, 64401, Control_c, 3, 11, 99
6, 64408, Control_c, 3, 11, 100
6, 64416, Control_c, 3, 11, 101
6, 64423, Control_c, 3, 11, 102
6, 64430, Control_c, 3, 11, 103
6, 64438, Control_c, 3, 11, 104
6, 64445, Control_c, 3, 11, 105
6, 64452, Control_c, 3, 11, 106
6, 64460, Control_c, 3, 11, 107
6, 64467, Control_c, 3, 11, 108
6, 64475, Control_c, 3, 11, 109
6, 64482, Control_c, 3, 11, 110
6, 64489, Control_c, 3, 11, 111
6, 64497, Control_c, 3, 11, 112
6, 64504, Control_c, 3, 11, 113
6, 64512, Control_c, 3, 11, 114
6, 64519, Control_c, 3, 11, 115
6, 64526, Control_c, 3, 11, 116
6, 64534, Control_c, 3, 11, 117
6, 64541, Control_c, 3, 11, 118
6, 64548, Control_c, 3, 11, 119
6, 64556, Control_c, 3, 11, 120
6, 64563, Control_c, 3, 11, 121
6, 64571, Control_c, 3, 11, 122
6, 64578, Control_c, 3, 11, 123
6, 64585, Control_c, 3, 11, 124
6, 64593, Control_c, 3, 11, 125
6, 64600, Control_c, 3, 11, 126
6, 64608, Note_on_c, 3, 69, 0
6, 64608, Control_c, 3, 11, 127
6, 64608, Note_on_c, 3, 70, 55
6, 64608, Note_on_c, 3, 73, 55
6, 64768, Note_on_c, 3, 70, 0
6, 64768, Note_on_c, 3, 73, 0
6, 64800, Control_c, 3, 11, 75
6, 64800, Note_on_c, 3, 70, 96
6, 64800, Note_on_c, 3, 76, 87
6, 64807, Control_c, 3, 11, 76
6, 64814, Control_c, 3, 11, 77
6, 64822, Control_c, 3, 11, 78
6, 64829, Control_c, 3, 11, 79
6, 64836, Control_c, 3, 11, 80
6, 64844, Control_c, 3, 11, 81
6, 64851, Control_c, 3, 11, 82
6, 64859, Control_c, 3, 11, 83
6, 64866, Control_c, 3, 11, 84
6, 64873, Control_c, 3, 11, 85
6, 64881, Control_c, 3, 11, 86
6, 64888, Control_c, 3, 11, 87
6, 64896, Control_c, 3, 11, 88
6, 64903, Control_c, 3, 11, 89
6, 64910, Control_c, 3, 11, 90
6, 64918, Control_c, 3, 11, 91
6, 64925, Control_c, 3, 11, 92
6, 64932, Control_c, 3, 11, 93
6, 64940, Control_c, 3, 11, 94
6, 64947, Control_c, 3, 11, 95
6, 64955, Control_c, 3, 11, 96
6, 64962, Control_c, 3, 11, 97
6, 64969, Control_c, 3, 11, 98
6, 64977, Control_c, 3, 11, 99
6, 64984, Control_c, 3, 11, 100
6, 64992, Control_c, 3, 11, 101
6, 64999, Control_c, 3, 11, 102
6, 65006, Control_c, 3, 11, 103
6, 65014, Control_c, 3, 11, 104
6, 65021, Control_c, 3, 11, 105
6, 65028, Control_c, 3, 11, 106
6, 65036, Control_c, 3, 11, 107
6, 65043, Control_c, 3, 11, 108
6, 65051, Control_c, 3, 11, 109
6, 65058, Control_c, 3, 11, 110
6, 65065, Control_c, 3, 11, 111
6, 65073, Control_c, 3, 11, 112
6, 65080, Control_c, 3, 11, 113
6, 65088, Control_c, 3, 11, 114
6, 65095, Control_c, 3, 11, 115
6, 65102, Control_c, 3, 11, 116
6, 65110, Control_c, 3, 11, 117
6, 65117, Control_c, 3, 11, 118
6, 65124, Control_c, 3, 11, 119
6, 65132, Control_c, 3, 11, 120
6, 65139, Control_c, 3, 11, 121
6, 65147, Control_c, 3, 11, 122
6, 65154, Control_c, 3, 11, 123
6, 65161, Control_c, 3, 11, 124
6, 65169, Control_c, 3, 11, 125
6, 65176, Control_c, 3, 11, 126
6, 65184, Note_on_c, 3, 70, 0
6, 65184, Note_on_c, 3, 76, 0
6, 65184, Control_c, 3, 11, 127
6, 65184, Note_on_c, 3, 75, 96
6, 65216, Note_on_c, 3, 75, 0
6, 65280, Control_c, 3, 7, 92
6, 65376, Note_on_c, 3, 68, 95
6, 65376, Note_on_c, 3, 75, 97
6, 65470, Note_on_c, 3, 68, 0
6, 65470, Note_on_c, 3, 75, 0
6, 65568, Control_c, 3, 11, 75
6, 65568, Note_on_c, 3, 71, 110
6, 65568, Note_on_c, 3, 75, 106
6, 65571, Control_c, 3, 11, 76
6, 65575, Control_c, 3, 11, 77
6, 65579, Control_c, 3, 11, 78
6, 65582, Control_c, 3, 11, 79
6, 65586, Control_c, 3, 11, 80
6, 65590, Control_c, 3, 11, 81
6, 65593, Control_c, 3, 11, 82
6, 65597, Control_c, 3, 11, 83
6, 65601, Control_c, 3, 11, 84
6, 65604, Control_c, 3, 11, 85
6, 65608, Control_c, 3, 11, 86
6, 65612, Control_c, 3, 11, 87
6, 65616, Control_c, 3, 11, 88
6, 65619, Control_c, 3, 11, 89
6, 65623, Control_c, 3, 11, 90
6, 65627, Control_c, 3, 11, 91
6, 65630, Control_c, 3, 11, 92
6, 65634, Control_c, 3, 11, 93
6, 65638, Control_c, 3, 11, 94
6, 65641, Control_c, 3, 11, 95
6, 65645, Control_c, 3, 11, 96
6, 65649, Control_c, 3, 11, 97
6, 65652, Control_c, 3, 11, 98
6, 65656, Control_c, 3, 11, 99
6, 65660, Control_c, 3, 11, 100
6, 65664, Control_c, 3, 11, 101
6, 65667, Control_c, 3, 11, 102
6, 65671, Control_c, 3, 11, 103
6, 65675, Control_c, 3, 11, 104
6, 65678, Control_c, 3, 11, 105
6, 65682, Control_c, 3, 11, 106
6, 65686, Control_c, 3, 11, 107
6, 65689, Control_c, 3, 11, 108
6, 65693, Control_c, 3, 11, 109
6, 65697, Control_c, 3, 11, 110
6, 65700, Control_c, 3, 11, 111
6, 65704, Control_c, 3, 11, 112
6, 65708, Control_c, 3, 11, 113
6, 65712, Control_c, 3, 11, 114
6, 65715, Control_c, 3, 11, 115
6, 65719, Control_c, 3, 11, 116
6, 65723, Control_c, 3, 11, 117
6, 65726, Control_c, 3, 11, 118
6, 65730, Control_c, 3, 11, 119
6, 65734, Control_c, 3, 11, 120
6, 65737, Control_c, 3, 11, 121
6, 65741, Control_c, 3, 11, 122
6, 65745, Control_c, 3, 11, 123
6, 65748, Control_c, 3, 11, 124
6, 65752, Control_c, 3, 11, 125
6, 65756, Control_c, 3, 11, 126
6, 65760, Control_c, 3, 11, 127
6, 65952, Control_c, 3, 11, 127
6, 65962, Control_c, 3, 11, 126
6, 65973, Control_c, 3, 11, 125
6, 65984, Control_c, 3, 11, 124
6, 65995, Control_c, 3, 11, 123
6, 66005, Control_c, 3, 11, 122
6, 66016, Control_c, 3, 11, 121
6, 66027, Control_c, 3, 11, 120
6, 66038, Control_c, 3, 11, 119
6, 66048, Control_c, 3, 11, 118
6, 66059, Control_c, 3, 11, 117
6, 66070, Control_c, 3, 11, 116
6, 66081, Control_c, 3, 11, 115
6, 66091, Control_c, 3, 11, 114
6, 66102, Control_c, 3, 11, 113
6, 66113, Control_c, 3, 11, 112
6, 66124, Control_c, 3, 11, 111
6, 66135, Control_c, 3, 11, 110
6, 66145, Control_c, 3, 11, 109
6, 66156, Control_c, 3, 11, 108
6, 66167, Control_c, 3, 11, 107
6, 66178, Control_c, 3, 11, 106
6, 66188, Control_c, 3, 11, 105
6, 66199, Control_c, 3, 11, 104
6, 66210, Control_c, 3, 11, 103
6, 66221, Control_c, 3, 11, 102
6, 66231, Control_c, 3, 11, 101
6, 66242, Control_c, 3, 11, 100
6, 66253, Control_c, 3, 11, 99
6, 66264, Control_c, 3, 11, 98
6, 66274, Control_c, 3, 11, 97
6, 66285, Control_c, 3, 11, 96
6, 66296, Control_c, 3, 11, 95
6, 66307, Control_c, 3, 11, 94
6, 66318, Control_c, 3, 11, 93
6, 66328, Control_c, 3, 11, 92
6, 66339, Control_c, 3, 11, 91
6, 66350, Control_c, 3, 11, 90
6, 66361, Control_c, 3, 11, 89
6, 66371, Control_c, 3, 11, 88
6, 66382, Control_c, 3, 11, 87
6, 66393, Control_c, 3, 11, 86
6, 66404, Control_c, 3, 11, 85
6, 66414, Control_c, 3, 11, 84
6, 66425, Control_c, 3, 11, 83
6, 66436, Control_c, 3, 11, 82
6, 66447, Control_c, 3, 11, 81
6, 66458, Control_c, 3, 11, 80
6, 66468, Control_c, 3, 11, 79
6, 66479, Control_c, 3, 11, 78
6, 66490, Control_c, 3, 11, 77
6, 66501, Control_c, 3, 11, 76
6, 66511, Control_c, 3, 11, 75
6, 66522, Control_c, 3, 11, 74
6, 66533, Control_c, 3, 11, 73
6, 66544, Control_c, 3, 11, 72
6, 66554, Control_c, 3, 11, 71
6, 66565, Control_c, 3, 11, 70
6, 66576, Control_c, 3, 11, 69
6, 66587, Control_c, 3, 11, 68
6, 66597, Control_c, 3, 11, 67
6, 66608, Control_c, 3, 11, 66
6, 66619, Control_c, 3, 11, 65
6, 66630, Control_c, 3, 11, 64
6, 66641, Control_c, 3, 11, 63
6, 66651, Control_c, 3, 11, 62
6, 66662, Control_c, 3, 11, 61
6, 66673, Control_c, 3, 11, 60
6, 66684, Control_c, 3, 11, 59
6, 66694, Control_c, 3, 11, 58
6, 66705, Control_c, 3, 11, 57
6, 66716, Control_c, 3, 11, 56
6, 66727, Control_c, 3, 11, 55
6, 66737, Control_c, 3, 11, 54
6, 66748, Control_c, 3, 11, 53
6, 66759, Control_c, 3, 11, 52
6, 66770, Control_c, 3, 11, 51
6, 66781, Control_c, 3, 11, 50
6, 66791, Control_c, 3, 11, 49
6, 66802, Control_c, 3, 11, 48
6, 66813, Control_c, 3, 11, 47
6, 66824, Control_c, 3, 11, 46
6, 66834, Control_c, 3, 11, 45
6, 66845, Control_c, 3, 11, 44
6, 66856, Control_c, 3, 11, 43
6, 66867, Control_c, 3, 11, 42
6, 66877, Control_c, 3, 11, 41
6, 66888, Control_c, 3, 11, 40
6, 66899, Control_c, 3, 11, 39
6, 66910, Control_c, 3, 11, 38
6, 66920, Control_c, 3, 11, 37
6, 66931, Control_c, 3, 11, 36
6, 66942, Control_c, 3, 11, 35
6, 66953, Control_c, 3, 11, 34
6, 66964, Control_c, 3, 11, 33
6, 66974, Control_c, 3, 11, 32
6, 66985, Control_c, 3, 11, 31
6, 66996, Control_c, 3, 11, 30
6, 67007, Control_c, 3, 11, 29
6, 67017, Control_c, 3, 11, 28
6, 67028, Control_c, 3, 11, 27
6, 67039, Control_c, 3, 11, 26
6, 67050, Control_c, 3, 11, 25
6, 67060, Control_c, 3, 11, 24
6, 67071, Control_c, 3, 11, 23
6, 67082, Control_c, 3, 11, 22
6, 67093, Control_c, 3, 11, 21
6, 67104, Control_c, 3, 11, 20
6, 67264, Note_on_c, 3, 71, 0
6, 67264, Note_on_c, 3, 75, 0
6, 67680, Control_c, 3, 7, 127
6, 67680, Control_c, 3, 11, 127
6, 69408, Control_c, 3, 11, 127
6, 69984, Note_on_c, 3, 62, 49
6, 70006, Note_on_c, 3, 62, 0
6, 70008, Note_on_c, 3, 64, 40
6, 70030, Note_on_c, 3, 64, 0
6, 70032, Note_on_c, 3, 62, 44
6, 70054, Note_on_c, 3, 62, 0
6, 70056, Note_on_c, 3, 64, 42
6, 70078, Note_on_c, 3, 64, 0
6, 70080, Note_on_c, 3, 62, 43
6, 70102, Note_on_c, 3, 62, 0
6, 70104, Note_on_c, 3, 64, 45
6, 70126, Note_on_c, 3, 64, 0
6, 70128, Note_on_c, 3, 62, 50
6, 70150, Note_on_c, 3, 62, 0
6, 70152, Note_on_c, 3, 64, 46
6, 70174, Note_on_c, 3, 64, 0
6, 70176, Note_on_c, 3, 61, 45
6, 70198, Note_on_c, 3, 61, 0
6, 70200, Note_on_c, 3, 63, 47
6, 70222, Note_on_c, 3, 63, 0
6, 70224, Note_on_c, 3, 61, 45
6, 70246, Note_on_c, 3, 61, 0
6, 70248, Note_on_c, 3, 63, 47
6, 70270, Note_on_c, 3, 63, 0
6, 70272, Note_on_c, 3, 61, 44
6, 70294, Note_on_c, 3, 61, 0
6, 70296, Note_on_c, 3, 63, 43
6, 70318, Note_on_c, 3, 63, 0
6, 70320, Note_on_c, 3, 61, 47
6, 70342, Note_on_c, 3, 61, 0
6, 70344, Note_on_c, 3, 63, 44
6, 70366, Note_on_c, 3, 63, 0
6, 70368, Note_on_c, 3, 60, 59
6, 70400, Note_on_c, 3, 60, 0
6, 70464, Note_on_c, 3, 64, 80
6, 70496, Note_on_c, 3, 64, 0
6, 70560, Note_on_c, 3, 62, 75
6, 70582, Note_on_c, 3, 62, 0
6, 70584, Note_on_c, 3, 64, 75
6, 70606, Note_on_c, 3, 64, 0
6, 70608, Note_on_c, 3, 62, 73
6, 70630, Note_on_c, 3, 62, 0
6, 70632, Note_on_c, 3, 64, 62
6, 70654, Note_on_c, 3, 64, 0
6, 70656, Note_on_c, 3, 61, 58
6, 70678, Note_on_c, 3, 61, 0
6, 70680, Note_on_c, 3, 63, 52
6, 70702, Note_on_c, 3, 63, 0
6, 70704, Note_on_c, 3, 61, 49
6, 70726, Note_on_c, 3, 61, 0
6, 70728, Note_on_c, 3, 63, 46
6, 70750, Note_on_c, 3, 63, 0
6, 70752, Note_on_c, 3, 60, 44
6, 70944, Note_on_c, 3, 60, 0
6, 70944, Note_on_c, 3, 64, 49
6, 71136, Note_on_c, 3, 64, 0
6, 71136, Note_on_c, 3, 67, 41
6, 71230, Note_on_c, 3, 67, 0
6, 73440, Note_on_c, 3, 62, 48
6, 73462, Note_on_c, 3, 62, 0
6, 73464, Note_on_c, 3, 64, 44
6, 73486, Note_on_c, 3, 64, 0
6, 73488, Note_on_c, 3, 62, 40
6, 73510, Note_on_c, 3, 62, 0
6, 73512, Note_on_c, 3, 64, 40
6, 73534, Note_on_c, 3, 64, 0
6, 73536, Note_on_c, 3, 62, 49
6, 73558, Note_on_c, 3, 62, 0
6, 73560, Note_on_c, 3, 64, 48
6, 73582, Note_on_c, 3, 64, 0
6, 73584, Note_on_c, 3, 62, 47
6, 73606, Note_on_c, 3, 62, 0
6, 73608, Note_on_c, 3, 64, 50
6, 73630, Note_on_c, 3, 64, 0
6, 73632, Note_on_c, 3, 61, 48
6, 73654, Note_on_c, 3, 61, 0
6, 73656, Note_on_c, 3, 63, 45
6, 73678, Note_on_c, 3, 63, 0
6, 73680, Note_on_c, 3, 61, 47
6, 73702, Note_on_c, 3, 61, 0
6, 73704, Note_on_c, 3, 63, 43
6, 73726, Note_on_c, 3, 63, 0
6, 73728, Note_on_c, 3, 61, 40
6, 73750, Note_on_c, 3, 61, 0
6, 73752, Note_on_c, 3, 63, 40
6, 73774, Note_on_c, 3, 63, 0
6, 73776, Note_on_c, 3, 61, 43
6, 73798, Note_on_c, 3, 61, 0
6, 73800, Note_on_c, 3, 63, 47
6, 73822, Note_on_c, 3, 63, 0
6, 73824, Note_on_c, 3, 60, 57
6, 73856, Note_on_c, 3, 60, 0
6, 73920, Note_on_c, 3, 64, 76
6, 73952, Note_on_c, 3, 64, 0
6, 74016, Note_on_c, 3, 62, 71
6, 74040, Note_on_c, 3, 62, 0
6, 74040, Note_on_c, 3, 64, 75
6, 74064, Note_on_c, 3, 64, 0
6, 74064, Note_on_c, 3, 62, 74
6, 74088, Note_on_c, 3, 62, 0
6, 74088, Note_on_c, 3, 64, 63
6, 74112, Note_on_c, 3, 64, 0
6, 74112, Note_on_c, 3, 61, 66
6, 74136, Note_on_c, 3, 61, 0
6, 74136, Note_on_c, 3, 63, 56
6, 74160, Note_on_c, 3, 63, 0
6, 74160, Note_on_c, 3, 61, 56
6, 74184, Note_on_c, 3, 61, 0
6, 74184, Note_on_c, 3, 63, 46
6, 74208, Note_on_c, 3, 63, 0
6, 74208, Note_on_c, 3, 60, 43
6, 74400, Note_on_c, 3, 60, 0
6, 74400, Note_on_c, 3, 64, 40
6, 74560, Note_on_c, 3, 64, 0
6, 74592, Control_c, 3, 11, 127
6, 75168, Note_on_c, 3, 69, 35
6, 75168, Note_on_c, 3, 73, 31
6, 75200, Note_on_c, 3, 69, 0
6, 75200, Note_on_c, 3, 73, 0
6, 75264, Note_on_c, 3, 69, 33
6, 75264, Note_on_c, 3, 73, 32
6, 75294, Note_on_c, 3, 69, 0
6, 75294, Note_on_c, 3, 73, 0
6, 75296, Note_on_c, 3, 67, 30
6, 75296, Note_on_c, 3, 71, 28
6, 75326, Note_on_c, 3, 67, 0
6, 75326, Note_on_c, 3, 71, 0
6, 75328, Note_on_c, 3, 70, 34
6, 75328, Note_on_c, 3, 74, 27
6, 75358, Note_on_c, 3, 70, 0
6, 75358, Note_on_c, 3, 74, 0
6, 75360, Note_on_c, 3, 69, 27
6, 75360, Note_on_c, 3, 73, 25
6, 75454, Note_on_c, 3, 69, 0
6, 75454, Note_on_c, 3, 73, 0
6, 75456, Note_on_c, 3, 68, 33
6, 75456, Note_on_c, 3, 72, 42
6, 75486, Note_on_c, 3, 68, 0
6, 75486, Note_on_c, 3, 72, 0
6, 75488, Note_on_c, 3, 67, 44
6, 75488, Note_on_c, 3, 71, 38
6, 75518, Note_on_c, 3, 67, 0
6, 75518, Note_on_c, 3, 71, 0
6, 75520, Note_on_c, 3, 70, 38
6, 75520, Note_on_c, 3, 74, 43
6, 75550, Note_on_c, 3, 70, 0
6, 75550, Note_on_c, 3, 74, 0
6, 75552, Note_on_c, 3, 69, 43
6, 75552, Note_on_c, 3, 73, 40
6, 75584, Note_on_c, 3, 69, 0
6, 75584, Note_on_c, 3, 73, 0
6, 75648, Note_on_c, 3, 73, 47
6, 75648, Note_on_c, 3, 77, 47
6, 75680, Note_on_c, 3, 73, 0
6, 75680, Note_on_c, 3, 77, 0
6, 76320, Note_on_c, 3, 69, 50
6, 76320, Note_on_c, 3, 73, 45
6, 76352, Note_on_c, 3, 69, 0
6, 76352, Note_on_c, 3, 73, 0
6, 76416, Note_on_c, 3, 72, 44
6, 76416, Note_on_c, 3, 76, 50
6, 76446, Note_on_c, 3, 72, 0
6, 76446, Note_on_c, 3, 76, 0
6, 76448, Note_on_c, 3, 71, 44
6, 76448, Note_on_c, 3, 75, 48
6, 76478, Note_on_c, 3, 71, 0
6, 76478, Note_on_c, 3, 75, 0
6, 76480, Note_on_c, 3, 70, 49
6, 76480, Note_on_c, 3, 74, 45
6, 76510, Note_on_c, 3, 70, 0
6, 76510, Note_on_c, 3, 74, 0
6, 76512, Note_on_c, 3, 69, 49
6, 76512, Note_on_c, 3, 73, 55
6, 76544, Note_on_c, 3, 69, 0
6, 76544, Note_on_c, 3, 73, 0
6, 76608, Note_on_c, 3, 72, 61
6, 76608, Note_on_c, 3, 76, 58
6, 76638, Note_on_c, 3, 72, 0
6, 76638, Note_on_c, 3, 76, 0
6, 76640, Note_on_c, 3, 70, 59
6, 76640, Note_on_c, 3, 75, 61
6, 76670, Note_on_c, 3, 70, 0
6, 76670, Note_on_c, 3, 75, 0
6, 76672, Note_on_c, 3, 70, 65
6, 76672, Note_on_c, 3, 74, 55
6, 76702, Note_on_c, 3, 70, 0
6, 76702, Note_on_c, 3, 74, 0
6, 76896, Note_on_c, 3, 67, 46
6, 76896, Note_on_c, 3, 72, 41
6, 76926, Note_on_c, 3, 67, 0
6, 76926, Note_on_c, 3, 72, 0
6, 76928, Note_on_c, 3, 64, 41
6, 76928, Note_on_c, 3, 67, 45
6, 76958, Note_on_c, 3, 64, 0
6, 76958, Note_on_c, 3, 67, 0
6, 76960, Note_on_c, 3, 67, 46
6, 76960, Note_on_c, 3, 72, 41
6, 76990, Note_on_c, 3, 67, 0
6, 76990, Note_on_c, 3, 72, 0
6, 76992, Note_on_c, 3, 64, 41
6, 76992, Note_on_c, 3, 67, 43
6, 77022, Note_on_c, 3, 64, 0
6, 77022, Note_on_c, 3, 67, 0
6, 77024, Note_on_c, 3, 60, 45
6, 77024, Note_on_c, 3, 64, 43
6, 77054, Note_on_c, 3, 60, 0
6, 77054, Note_on_c, 3, 64, 0
6, 77056, Note_on_c, 3, 64, 37
6, 77056, Note_on_c, 3, 67, 33
6, 77086, Note_on_c, 3, 64, 0
6, 77086, Note_on_c, 3, 67, 0
6, 77280, Note_on_c, 3, 67, 50
6, 77280, Note_on_c, 3, 72, 45
6, 77310, Note_on_c, 3, 67, 0
6, 77310, Note_on_c, 3, 72, 0
6, 77312, Note_on_c, 3, 64, 45
6, 77312, Note_on_c, 3, 67, 49
6, 77342, Note_on_c, 3, 64, 0
6, 77342, Note_on_c, 3, 67, 0
6, 77344, Note_on_c, 3, 67, 49
6, 77344, Note_on_c, 3, 72, 39
6, 77374, Note_on_c, 3, 67, 0
6, 77374, Note_on_c, 3, 72, 0
6, 77376, Note_on_c, 3, 64, 38
6, 77376, Note_on_c, 3, 67, 45
6, 77406, Note_on_c, 3, 64, 0
6, 77406, Note_on_c, 3, 67, 0
6, 77408, Note_on_c, 3, 60, 40
6, 77408, Note_on_c, 3, 64, 35
6, 77438, Note_on_c, 3, 60, 0
6, 77438, Note_on_c, 3, 64, 0
6, 77440, Note_on_c, 3, 64, 41
6, 77440, Note_on_c, 3, 67, 34
6, 77470, Note_on_c, 3, 64, 0
6, 77470, Note_on_c, 3, 67, 0
6, 77856, Note_on_c, 3, 61, 40
6, 77856, Note_on_c, 3, 67, 49
6, 77886, Note_on_c, 3, 61, 0
6, 77886, Note_on_c, 3, 67, 0
6, 77888, Note_on_c, 3, 65, 45
6, 77888, Note_on_c, 3, 70, 47
6, 77918, Note_on_c, 3, 65, 0
6, 77918, Note_on_c, 3, 70, 0
6, 77920, Note_on_c, 3, 67, 53
6, 77920, Note_on_c, 3, 72, 48
6, 77950, Note_on_c, 3, 67, 0
6, 77950, Note_on_c, 3, 72, 0
6, 77952, Note_on_c, 3, 68, 48
6, 77952, Note_on_c, 3, 73, 55
6, 77982, Note_on_c, 3, 68, 0
6, 77982, Note_on_c, 3, 73, 0
6, 77984, Note_on_c, 3, 70, 58
6, 77984, Note_on_c, 3, 75, 55
6, 78014, Note_on_c, 3, 70, 0
6, 78014, Note_on_c, 3, 75, 0
6, 78016, Note_on_c, 3, 72, 58
6, 78016, Note_on_c, 3, 77, 58
6, 78046, Note_on_c, 3, 72, 0
6, 78046, Note_on_c, 3, 77, 0
6, 78048, Note_on_c, 3, 73, 33
6, 78048, Note_on_c, 3, 79, 34
6, 78080, Note_on_c, 3, 73, 0
6, 78080, Note_on_c, 3, 79, 0
6, 78432, Note_on_c, 3, 61, 50
6, 78432, Note_on_c, 3, 67, 50
6, 78462, Note_on_c, 3, 61, 0
6, 78462, Note_on_c, 3, 67, 0
6, 78464, Note_on_c, 3, 65, 50
6, 78464, Note_on_c, 3, 70, 40
6, 78494, Note_on_c, 3, 65, 0
6, 78494, Note_on_c, 3, 70, 0
6, 78496, Note_on_c, 3, 67, 51
6, 78496, Note_on_c, 3, 72, 46
6, 78526, Note_on_c, 3, 67, 0
6, 78526, Note_on_c, 3, 72, 0
6, 78528, Note_on_c, 3, 68, 52
6, 78528, Note_on_c, 3, 73, 57
6, 78558, Note_on_c, 3, 68, 0
6, 78558, Note_on_c, 3, 73, 0
6, 78560, Note_on_c, 3, 70, 55
6, 78560, Note_on_c, 3, 75, 57
6, 78590, Note_on_c, 3, 70, 0
6, 78590, Note_on_c, 3, 75, 0
6, 78592, Note_on_c, 3, 72, 59
6, 78592, Note_on_c, 3, 77, 58
6, 78622, Note_on_c, 3, 72, 0
6, 78622, Note_on_c, 3, 77, 0
6, 78624, Note_on_c, 3, 74, 28
6, 78624, Note_on_c, 3, 79, 26
6, 78656, Note_on_c, 3, 74, 0
6, 78656, Note_on_c, 3, 79, 0
6, 79008, Note_on_c, 3, 61, 43
6, 79008, Note_on_c, 3, 67, 42
6, 79038, Note_on_c, 3, 61, 0
6, 79038, Note_on_c, 3, 67, 0
6, 79040, Note_on_c, 3, 65, 40
6, 79040, Note_on_c, 3, 70, 41
6, 79070, Note_on_c, 3, 65, 0
6, 79070, Note_on_c, 3, 70, 0
6, 79072, Note_on_c, 3, 67, 54
6, 79072, Note_on_c, 3, 72, 51
6, 79102, Note_on_c, 3, 67, 0
6, 79102, Note_on_c, 3, 72, 0
6, 79104, Note_on_c, 3, 68, 52
6, 79104, Note_on_c, 3, 73, 60
6, 79134, Note_on_c, 3, 68, 0
6, 79134, Note_on_c, 3, 73, 0
6, 79136, Note_on_c, 3, 70, 58
6, 79136, Note_on_c, 3, 75, 58
6, 79166, Note_on_c, 3, 70, 0
6, 79166, Note_on_c, 3, 75, 0
6, 79168, Note_on_c, 3, 72, 70
6, 79168, Note_on_c, 3, 77, 71
6, 79198, Note_on_c, 3, 72, 0
6, 79198, Note_on_c, 3, 77, 0
6, 79200, Note_on_c, 3, 74, 75
6, 79200, Note_on_c, 3, 79, 73
6, 79232, Note_on_c, 3, 74, 0
6, 79232, Note_on_c, 3, 79, 0
6, 79584, Note_on_c, 3, 61, 40
6, 79584, Note_on_c, 3, 67, 43
6, 79614, Note_on_c, 3, 61, 0
6, 79614, Note_on_c, 3, 67, 0
6, 79616, Note_on_c, 3, 65, 49
6, 79616, Note_on_c, 3, 70, 47
6, 79646, Note_on_c, 3, 65, 0
6, 79646, Note_on_c, 3, 70, 0
6, 79648, Note_on_c, 3, 67, 50
6, 79648, Note_on_c, 3, 72, 52
6, 79678, Note_on_c, 3, 67, 0
6, 79678, Note_on_c, 3, 72, 0
6, 79680, Note_on_c, 3, 68, 55
6, 79680, Note_on_c, 3, 73, 56
6, 79710, Note_on_c, 3, 68, 0
6, 79710, Note_on_c, 3, 73, 0
6, 79712, Note_on_c, 3, 70, 66
6, 79712, Note_on_c, 3, 75, 66
6, 79742, Note_on_c, 3, 70, 0
6, 79742, Note_on_c, 3, 75, 0
6, 79744, Note_on_c, 3, 72, 79
6, 79744, Note_on_c, 3, 77, 72
6, 79774, Note_on_c, 3, 72, 0
6, 79774, Note_on_c, 3, 77, 0
6, 79776, Note_on_c, 3, 74, 45
6, 79776, Note_on_c, 3, 79, 45
6, 79808, Note_on_c, 3, 74, 0
6, 79808, Note_on_c, 3, 79, 0
6, 80160, Note_on_c, 3, 61, 48
6, 80160, Note_on_c, 3, 67, 44
6, 80190, Note_on_c, 3, 61, 0
6, 80190, Note_on_c, 3, 67, 0
6, 80192, Note_on_c, 3, 65, 48
6, 80192, Note_on_c, 3, 70, 42
6, 80222, Note_on_c, 3, 65, 0
6, 80222, Note_on_c, 3, 70, 0
6, 80224, Note_on_c, 3, 67, 44
6, 80224, Note_on_c, 3, 72, 45
6, 80254, Note_on_c, 3, 67, 0
6, 80254, Note_on_c, 3, 72, 0
6, 80256, Note_on_c, 3, 68, 48
6, 80256, Note_on_c, 3, 73, 45
6, 80286, Note_on_c, 3, 68, 0
6, 80286, Note_on_c, 3, 73, 0
6, 80288, Note_on_c, 3, 70, 46
6, 80288, Note_on_c, 3, 75, 48
6, 80318, Note_on_c, 3, 70, 0
6, 80318, Note_on_c, 3, 75, 0
6, 80320, Note_on_c, 3, 72, 48
6, 80320, Note_on_c, 3, 77, 48
6, 80350, Note_on_c, 3, 72, 0
6, 80350, Note_on_c, 3, 77, 0
6, 80352, Note_on_c, 3, 74, 57
6, 80352, Note_on_c, 3, 79, 51
6, 80384, Note_on_c, 3, 74, 0
6, 80384, Note_on_c, 3, 79, 0
6, 80544, Control_c, 3, 7, 92
6, 80736, Note_on_c, 3, 61, 76
6, 80736, Note_on_c, 3, 67, 79
6, 80766, Note_on_c, 3, 61, 0
6, 80766, Note_on_c, 3, 67, 0
6, 80768, Note_on_c, 3, 65, 82
6, 80768, Note_on_c, 3, 70, 80
6, 80798, Note_on_c, 3, 65, 0
6, 80798, Note_on_c, 3, 70, 0
6, 80800, Note_on_c, 3, 67, 83
6, 80800, Note_on_c, 3, 72, 80
6, 80830, Note_on_c, 3, 67, 0
6, 80830, Note_on_c, 3, 72, 0
6, 80832, Note_on_c, 3, 68, 90
6, 80832, Note_on_c, 3, 73, 88
6, 80862, Note_on_c, 3, 68, 0
6, 80862, Note_on_c, 3, 73, 0
6, 80864, Note_on_c, 3, 70, 92
6, 80864, Note_on_c, 3, 75, 83
6, 80894, Note_on_c, 3, 70, 0
6, 80894, Note_on_c, 3, 75, 0
6, 80896, Note_on_c, 3, 72, 85
6, 80896, Note_on_c, 3, 77, 87
6, 80926, Note_on_c, 3, 72, 0
6, 80926, Note_on_c, 3, 77, 0
6, 81120, Control_c, 3, 11, 92
6, 81120, Note_on_c, 3, 74, 112
6, 81120, Note_on_c, 3, 78, 105
6, 81144, Note_on_c, 3, 74, 0
6, 81144, Note_on_c, 3, 78, 0
6, 81144, Note_on_c, 3, 72, 112
6, 81144, Note_on_c, 3, 76, 108
6, 81504, Control_c, 3, 11, 92
6, 81525, Control_c, 3, 11, 93
6, 81547, Control_c, 3, 11, 94
6, 81569, Control_c, 3, 11, 95
6, 81591, Control_c, 3, 11, 96
6, 81613, Control_c, 3, 11, 97
6, 81635, Control_c, 3, 11, 98
6, 81657, Control_c, 3, 11, 99
6, 81679, Control_c, 3, 11, 100
6, 81701, Control_c, 3, 11, 101
6, 81723, Control_c, 3, 11, 102
6, 81745, Control_c, 3, 11, 103
6, 81767, Control_c, 3, 11, 104
6, 81789, Control_c, 3, 11, 105
6, 81811, Control_c, 3, 11, 106
6, 81833, Control_c, 3, 11, 107
6, 81855, Control_c, 3, 11, 108
6, 81877, Control_c, 3, 11, 109
6, 81898, Control_c, 3, 11, 110
6, 81920, Control_c, 3, 11, 111
6, 81942, Control_c, 3, 11, 112
6, 81964, Control_c, 3, 11, 113
6, 81986, Control_c, 3, 11, 114
6, 82008, Control_c, 3, 11, 115
6, 82030, Control_c, 3, 11, 116
6, 82032, Note_on_c, 3, 72, 0
6, 82032, Note_on_c, 3, 76, 0
6, 82052, Control_c, 3, 11, 117
6, 82074, Control_c, 3, 11, 118
6, 82080, Note_on_c, 3, 70, 104
6, 82080, Note_on_c, 3, 74, 112
6, 82096, Control_c, 3, 11, 119
6, 82104, Note_on_c, 3, 70, 0
6, 82104, Note_on_c, 3, 74, 0
6, 82104, Note_on_c, 3, 68, 110
6, 82104, Note_on_c, 3, 72, 105
6, 82118, Control_c, 3, 11, 120
6, 82140, Control_c, 3, 11, 121
6, 82162, Control_c, 3, 11, 122
6, 82184, Control_c, 3, 11, 123
6, 82206, Control_c, 3, 11, 124
6, 82228, Control_c, 3, 11, 125
6, 82250, Control_c, 3, 11, 126
6, 82272, Control_c, 3, 11, 127
6, 82992, Note_on_c, 3, 68, 0
6, 82992, Note_on_c, 3, 72, 0
6, 83424, Control_c, 3, 11, 92
6, 83424, Note_on_c, 3, 74, 108
6, 83424, Note_on_c, 3, 78, 105
6, 83448, Note_on_c, 3, 74, 0
6, 83448, Note_on_c, 3, 78, 0
6, 83448, Note_on_c, 3, 72, 110
6, 83448, Note_on_c, 3, 76, 112
6, 83808, Control_c, 3, 11, 92
6, 83829, Control_c, 3, 11, 93
6, 83851, Control_c, 3, 11, 94
6, 83873, Control_c, 3, 11, 95
6, 83895, Control_c, 3, 11, 96
6, 83917, Control_c, 3, 11, 97
6, 83939, Control_c, 3, 11, 98
6, 83961, Control_c, 3, 11, 99
6, 83983, Control_c, 3, 11, 100
6, 84005, Control_c, 3, 11, 101
6, 84027, Control_c, 3, 11, 102
6, 84049, Control_c, 3, 11, 103
6, 84071, Control_c, 3, 11, 104
6, 84093, Control_c, 3, 11, 105
6, 84115, Control_c, 3, 11, 106
6, 84137, Control_c, 3, 11, 107
6, 84159, Control_c, 3, 11, 108
6, 84181, Control_c, 3, 11, 109
6, 84202, Control_c, 3, 11, 110
6, 84224, Control_c, 3, 11, 111
6, 84246, Control_c, 3, 11, 112
6, 84268, Control_c, 3, 11, 113
6, 84290, Control_c, 3, 11, 114
6, 84312, Control_c, 3, 11, 115
6, 84334, Control_c, 3, 11, 116
6, 84336, Note_on_c, 3, 72, 0
6, 84336, Note_on_c, 3, 76, 0
6, 84356, Control_c, 3, 11, 117
6, 84378, Control_c, 3, 11, 118
6, 84384, Note_on_c, 3, 70, 106
6, 84384, Note_on_c, 3, 74, 107
6, 84400, Control_c, 3, 11, 119
6, 84408, Note_on_c, 3, 70, 0
6, 84408, Note_on_c, 3, 74, 0
6, 84408, Note_on_c, 3, 68, 110
6, 84408, Note_on_c, 3, 72, 111
6, 84422, Control_c, 3, 11, 120
6, 84444, Control_c, 3, 11, 121
6, 84466, Control_c, 3, 11, 122
6, 84488, Control_c, 3, 11, 123
6, 84510, Control_c, 3, 11, 124
6, 84532, Control_c, 3, 11, 125
6, 84554, Control_c, 3, 11, 126
6, 84576, Control_c, 3, 11, 127
6, 84960, Control_c, 3, 11, 127
6, 84969, Control_c, 3, 11, 126
6, 84978, Control_c, 3, 11, 125
6, 84988, Control_c, 3, 11, 124
6, 84997, Control_c, 3, 11, 123
6, 85006, Control_c, 3, 11, 122
6, 85016, Control_c, 3, 11, 121
6, 85025, Control_c, 3, 11, 120
6, 85034, Control_c, 3, 11, 119
6, 85044, Control_c, 3, 11, 118
6, 85053, Control_c, 3, 11, 117
6, 85063, Control_c, 3, 11, 116
6, 85072, Control_c, 3, 11, 115
6, 85081, Control_c, 3, 11, 114
6, 85091, Control_c, 3, 11, 113
6, 85100, Control_c, 3, 11, 112
6, 85109, Control_c, 3, 11, 111
6, 85119, Control_c, 3, 11, 110
6, 85128, Control_c, 3, 11, 109
6, 85137, Control_c, 3, 11, 108
6, 85147, Control_c, 3, 11, 107
6, 85156, Control_c, 3, 11, 106
6, 85166, Control_c, 3, 11, 105
6, 85175, Control_c, 3, 11, 104
6, 85184, Control_c, 3, 11, 103
6, 85194, Control_c, 3, 11, 102
6, 85203, Control_c, 3, 11, 101
6, 85212, Control_c, 3, 11, 100
6, 85222, Control_c, 3, 11, 99
6, 85231, Control_c, 3, 11, 98
6, 85240, Control_c, 3, 11, 97
6, 85250, Control_c, 3, 11, 96
6, 85259, Control_c, 3, 11, 95
6, 85269, Control_c, 3, 11, 94
6, 85278, Control_c, 3, 11, 93
6, 85287, Control_c, 3, 11, 92
6, 85297, Control_c, 3, 11, 91
6, 85306, Control_c, 3, 11, 90
6, 85315, Control_c, 3, 11, 89
6, 85325, Control_c, 3, 11, 88
6, 85334, Control_c, 3, 11, 87
6, 85343, Control_c, 3, 11, 86
6, 85353, Control_c, 3, 11, 85
6, 85362, Control_c, 3, 11, 84
6, 85372, Control_c, 3, 11, 83
6, 85381, Control_c, 3, 11, 82
6, 85390, Control_c, 3, 11, 81
6, 85400, Control_c, 3, 11, 80
6, 85409, Control_c, 3, 11, 79
6, 85418, Control_c, 3, 11, 78
6, 85428, Control_c, 3, 11, 77
6, 85437, Control_c, 3, 11, 76
6, 85447, Control_c, 3, 11, 75
6, 85456, Control_c, 3, 11, 74
6, 85465, Control_c, 3, 11, 73
6, 85475, Control_c, 3, 11, 72
6, 85484, Control_c, 3, 11, 71
6, 85493, Control_c, 3, 11, 70
6, 85503, Control_c, 3, 11, 69
6, 85512, Control_c, 3, 11, 68
6, 85521, Control_c, 3, 11, 67
6, 85531, Control_c, 3, 11, 66
6, 85540, Control_c, 3, 11, 65
6, 85550, Control_c, 3, 11, 64
6, 85559, Control_c, 3, 11, 63
6, 85568, Control_c, 3, 11, 62
6, 85578, Control_c, 3, 11, 61
6, 85587, Control_c, 3, 11, 60
6, 85596, Control_c, 3, 11, 59
6, 85606, Control_c, 3, 11, 58
6, 85615, Control_c, 3, 11, 57
6, 85624, Control_c, 3, 11, 56
6, 85634, Control_c, 3, 11, 55
6, 85643, Control_c, 3, 11, 54
6, 85653, Control_c, 3, 11, 53
6, 85662, Control_c, 3, 11, 52
6, 85671, Control_c, 3, 11, 51
6, 85681, Control_c, 3, 11, 50
6, 85690, Control_c, 3, 11, 49
6, 85696, Note_on_c, 3, 68, 0
6, 85696, Note_on_c, 3, 72, 0
6, 85699, Control_c, 3, 11, 48
6, 85709, Control_c, 3, 11, 47
6, 85718, Control_c, 3, 11, 46
6, 85728, Control_c, 3, 11, 45
6, 85920, Control_c, 3, 7, 127
6, 86112, Control_c, 3, 11, 127
6, 86112, Note_on_c, 3, 70, 47
6, 86112, Note_on_c, 3, 74, 46
6, 86127, Control_c, 3, 11, 126
6, 86142, Control_c, 3, 11, 125
6, 86157, Control_c, 3, 11, 124
6, 86172, Control_c, 3, 11, 123
6, 86188, Control_c, 3, 11, 122
6, 86203, Control_c, 3, 11, 121
6, 86218, Control_c, 3, 11, 120
6, 86233, Control_c, 3, 11, 119
6, 86249, Control_c, 3, 11, 118
6, 86264, Control_c, 3, 11, 117
6, 86279, Control_c, 3, 11, 116
6, 86294, Control_c, 3, 11, 115
6, 86310, Control_c, 3, 11, 114
6, 86325, Control_c, 3, 11, 113
6, 86340, Control_c, 3, 11, 112
6, 86355, Control_c, 3, 11, 111
6, 86371, Control_c, 3, 11, 110
6, 86386, Control_c, 3, 11, 109
6, 86401, Control_c, 3, 11, 108
6, 86416, Control_c, 3, 11, 107
6, 86432, Control_c, 3, 11, 106
6, 86447, Control_c, 3, 11, 105
6, 86462, Control_c, 3, 11, 104
6, 86477, Control_c, 3, 11, 103
6, 86492, Control_c, 3, 11, 102
6, 86508, Control_c, 3, 11, 101
6, 86523, Control_c, 3, 11, 100
6, 86538, Control_c, 3, 11, 99
6, 86553, Control_c, 3, 11, 98
6, 86569, Control_c, 3, 11, 97
6, 86584, Control_c, 3, 11, 96
6, 86599, Control_c, 3, 11, 95
6, 86614, Control_c, 3, 11, 94
6, 86630, Control_c, 3, 11, 93
6, 86645, Control_c, 3, 11, 92
6, 86660, Control_c, 3, 11, 91
6, 86675, Control_c, 3, 11, 90
6, 86688, Note_on_c, 3, 70, 0
6, 86688, Note_on_c, 3, 74, 0
6, 86688, Note_on_c, 3, 68, 47
6, 86688, Note_on_c, 3, 72, 48
6, 86691, Control_c, 3, 11, 89
6, 86706, Control_c, 3, 11, 88
6, 86721, Control_c, 3, 11, 87
6, 86736, Control_c, 3, 11, 86
6, 86752, Control_c, 3, 11, 85
6, 86767, Control_c, 3, 11, 84
6, 86782, Control_c, 3, 11, 83
6, 86797, Control_c, 3, 11, 82
6, 86812, Control_c, 3, 11, 81
6, 86828, Control_c, 3, 11, 80
6, 86843, Control_c, 3, 11, 79
6, 86858, Control_c, 3, 11, 78
6, 86873, Control_c, 3, 11, 77
6, 86889, Control_c, 3, 11, 76
6, 86904, Control_c, 3, 11, 75
6, 86919, Control_c, 3, 11, 74
6, 86934, Control_c, 3, 11, 73
6, 86950, Control_c, 3, 11, 72
6, 86965, Control_c, 3, 11, 71
6, 86974, Note_on_c, 3, 68, 0
6, 86974, Note_on_c, 3, 72, 0
6, 86980, Control_c, 3, 11, 70
6, 86995, Control_c, 3, 11, 69
6, 87011, Control_c, 3, 11, 68
6, 87026, Control_c, 3, 11, 67
6, 87041, Control_c, 3, 11, 66
6, 87056, Control_c, 3, 11, 65
6, 87072, Control_c, 3, 11, 64
6, 87264, Control_c, 3, 11, 127
6, 87264, Note_on_c, 3, 68, 35
6, 87264, Note_on_c, 3, 72, 25
6, 87267, Control_c, 3, 11, 126
6, 87270, Control_c, 3, 11, 125
6, 87273, Control_c, 3, 11, 124
6, 87276, Control_c, 3, 11, 123
6, 87279, Control_c, 3, 11, 122
6, 87282, Control_c, 3, 11, 121
6, 87285, Control_c, 3, 11, 120
6, 87288, Control_c, 3, 11, 119
6, 87291, Control_c, 3, 11, 118
6, 87294, Control_c, 3, 11, 117
6, 87297, Control_c, 3, 11, 116
6, 87300, Control_c, 3, 11, 115
6, 87303, Control_c, 3, 11, 114
6, 87306, Control_c, 3, 11, 113
6, 87309, Control_c, 3, 11, 112
6, 87312, Control_c, 3, 11, 111
6, 87315, Control_c, 3, 11, 110
6, 87318, Control_c, 3, 11, 109
6, 87321, Control_c, 3, 11, 108
6, 87324, Control_c, 3, 11, 107
6, 87328, Control_c, 3, 11, 106
6, 87331, Control_c, 3, 11, 105
6, 87334, Control_c, 3, 11, 104
6, 87337, Control_c, 3, 11, 103
6, 87340, Control_c, 3, 11, 102
6, 87343, Control_c, 3, 11, 101
6, 87346, Control_c, 3, 11, 100
6, 87349, Control_c, 3, 11, 99
6, 87352, Control_c, 3, 11, 98
6, 87355, Control_c, 3, 11, 97
6, 87358, Control_c, 3, 11, 96
6, 87361, Control_c, 3, 11, 95
6, 87364, Control_c, 3, 11, 94
6, 87367, Control_c, 3, 11, 93
6, 87370, Control_c, 3, 11, 92
6, 87373, Control_c, 3, 11, 91
6, 87376, Control_c, 3, 11, 90
6, 87379, Control_c, 3, 11, 89
6, 87382, Control_c, 3, 11, 88
6, 87385, Control_c, 3, 11, 87
6, 87388, Control_c, 3, 11, 86
6, 87392, Control_c, 3, 11, 85
6, 87395, Control_c, 3, 11, 84
6, 87398, Control_c, 3, 11, 83
6, 87401, Control_c, 3, 11, 82
6, 87404, Control_c, 3, 11, 81
6, 87407, Control_c, 3, 11, 80
6, 87410, Control_c, 3, 11, 79
6, 87413, Control_c, 3, 11, 78
6, 87416, Control_c, 3, 11, 77
6, 87419, Control_c, 3, 11, 76
6, 87422, Control_c, 3, 11, 75
6, 87425, Control_c, 3, 11, 74
6, 87428, Control_c, 3, 11, 73
6, 87431, Control_c, 3, 11, 72
6, 87434, Control_c, 3, 11, 71
6, 87437, Control_c, 3, 11, 70
6, 87440, Control_c, 3, 11, 69
6, 87443, Control_c, 3, 11, 68
6, 87446, Control_c, 3, 11, 67
6, 87449, Control_c, 3, 11, 66
6, 87452, Control_c, 3, 11, 65
6, 87456, Control_c, 3, 11, 64
6, 87550, Note_on_c, 3, 68, 0
6, 87550, Note_on_c, 3, 72, 0
6, 87840, Control_c, 3, 11, 127
6, 87840, Note_on_c, 3, 68, 32
6, 87840, Note_on_c, 3, 72, 25
6, 87843, Control_c, 3, 11, 126
6, 87846, Control_c, 3, 11, 125
6, 87849, Control_c, 3, 11, 124
6, 87852, Control_c, 3, 11, 123
6, 87855, Control_c, 3, 11, 122
6, 87858, Control_c, 3, 11, 121
6, 87861, Control_c, 3, 11, 120
6, 87864, Control_c, 3, 11, 119
6, 87867, Control_c, 3, 11, 118
6, 87870, Control_c, 3, 11, 117
6, 87873, Control_c, 3, 11, 116
6, 87876, Control_c, 3, 11, 115
6, 87879, Control_c, 3, 11, 114
6, 87882, Control_c, 3, 11, 113
6, 87885, Control_c, 3, 11, 112
6, 87888, Control_c, 3, 11, 111
6, 87891, Control_c, 3, 11, 110
6, 87894, Control_c, 3, 11, 109
6, 87897, Control_c, 3, 11, 108
6, 87900, Control_c, 3, 11, 107
6, 87904, Control_c, 3, 11, 106
6, 87907, Control_c, 3, 11, 105
6, 87910, Control_c, 3, 11, 104
6, 87913, Control_c, 3, 11, 103
6, 87916, Control_c, 3, 11, 102
6, 87919, Control_c, 3, 11, 101
6, 87922, Control_c, 3, 11, 100
6, 87925, Control_c, 3, 11, 99
6, 87928, Control_c, 3, 11, 98
6, 87931, Control_c, 3, 11, 97
6, 87934, Control_c, 3, 11, 96
6, 87937, Control_c, 3, 11, 95
6, 87940, Control_c, 3, 11, 94
6, 87943, Control_c, 3, 11, 93
6, 87946, Control_c, 3, 11, 92
6, 87949, Control_c, 3, 11, 91
6, 87952, Control_c, 3, 11, 90
6, 87955, Control_c, 3, 11, 89
6, 87958, Control_c, 3, 11, 88
6, 87961, Control_c, 3, 11, 87
6, 87964, Control_c, 3, 11, 86
6, 87968, Control_c, 3, 11, 85
6, 87971, Control_c, 3, 11, 84
6, 87974, Control_c, 3, 11, 83
6, 87977, Control_c, 3, 11, 82
6, 87980, Control_c, 3, 11, 81
6, 87983, Control_c, 3, 11, 80
6, 87986, Control_c, 3, 11, 79
6, 87989, Control_c, 3, 11, 78
6, 87992, Control_c, 3, 11, 77
6, 87995, Control_c, 3, 11, 76
6, 87998, Control_c, 3, 11, 75
6, 88001, Control_c, 3, 11, 74
6, 88004, Control_c, 3, 11, 73
6, 88007, Control_c, 3, 11, 72
6, 88010, Control_c, 3, 11, 71
6, 88013, Control_c, 3, 11, 70
6, 88016, Control_c, 3, 11, 69
6, 88019, Control_c, 3, 11, 68
6, 88022, Control_c, 3, 11, 67
6, 88025, Control_c, 3, 11, 66
6, 88028, Control_c, 3, 11, 65
6, 88032, Control_c, 3, 11, 64
6, 88126, Note_on_c, 3, 68, 0
6, 88126, Note_on_c, 3, 72, 0
6, 88416, Control_c, 3, 11, 92
6, 88416, Note_on_c, 3, 64, 64
6, 88416, Note_on_c, 3, 68, 58
6, 88432, Control_c, 3, 11, 93
6, 88448, Control_c, 3, 11, 94
6, 88465, Control_c, 3, 11, 95
6, 88481, Control_c, 3, 11, 96
6, 88498, Control_c, 3, 11, 97
6, 88514, Control_c, 3, 11, 98
6, 88531, Control_c, 3, 11, 99
6, 88547, Control_c, 3, 11, 100
6, 88564, Control_c, 3, 11, 101
6, 88580, Control_c, 3, 11, 102
6, 88597, Control_c, 3, 11, 103
6, 88613, Control_c, 3, 11, 104
6, 88629, Control_c, 3, 11, 105
6, 88646, Control_c, 3, 11, 106
6, 88662, Control_c, 3, 11, 107
6, 88679, Control_c, 3, 11, 108
6, 88695, Control_c, 3, 11, 109
6, 88712, Control_c, 3, 11, 110
6, 88728, Control_c, 3, 11, 111
6, 88745, Control_c, 3, 11, 112
6, 88761, Control_c, 3, 11, 113
6, 88778, Control_c, 3, 11, 114
6, 88794, Control_c, 3, 11, 115
6, 88810, Control_c, 3, 11, 116
6, 88827, Control_c, 3, 11, 117
6, 88843, Control_c, 3, 11, 118
6, 88860, Control_c, 3, 11, 119
6, 88876, Control_c, 3, 11, 120
6, 88893, Control_c, 3, 11, 121
6, 88909, Control_c, 3, 11, 122
6, 88926, Control_c, 3, 11, 123
6, 88942, Control_c, 3, 11, 124
6, 88944, Note_on_c, 3, 64, 0
6, 88944, Note_on_c, 3, 68, 0
6, 88959, Control_c, 3, 11, 125
6, 88975, Control_c, 3, 11, 126
6, 88992, Control_c, 3, 11, 127
6, 88992, Control_c, 3, 11, 127
6, 88992, Note_on_c, 3, 68, 29
6, 88992, Note_on_c, 3, 72, 30
6, 89008, Control_c, 3, 11, 126
6, 89024, Control_c, 3, 11, 125
6, 89041, Control_c, 3, 11, 124
6, 89057, Control_c, 3, 11, 123
6, 89074, Control_c, 3, 11, 122
6, 89090, Control_c, 3, 11, 121
6, 89107, Control_c, 3, 11, 120
6, 89123, Control_c, 3, 11, 119
6, 89140, Control_c, 3, 11, 118
6, 89156, Control_c, 3, 11, 117
6, 89173, Control_c, 3, 11, 116
6, 89189, Control_c, 3, 11, 115
6, 89205, Control_c, 3, 11, 114
6, 89222, Control_c, 3, 11, 113
6, 89238, Control_c, 3, 11, 112
6, 89255, Control_c, 3, 11, 111
6, 89271, Control_c, 3, 11, 110
6, 89278, Note_on_c, 3, 68, 0
6, 89278, Note_on_c, 3, 72, 0
6, 89288, Control_c, 3, 11, 109
6, 89304, Control_c, 3, 11, 108
6, 89321, Control_c, 3, 11, 107
6, 89337, Control_c, 3, 11, 106
6, 89354, Control_c, 3, 11, 105
6, 89370, Control_c, 3, 11, 104
6, 89386, Control_c, 3, 11, 103
6, 89403, Control_c, 3, 11, 102
6, 89419, Control_c, 3, 11, 101
6, 89436, Control_c, 3, 11, 100
6, 89452, Control_c, 3, 11, 99
6, 89469, Control_c, 3, 11, 98
6, 89485, Control_c, 3, 11, 97
6, 89502, Control_c, 3, 11, 96
6, 89518, Control_c, 3, 11, 95
6, 89535, Control_c, 3, 11, 94
6, 89551, Control_c, 3, 11, 93
6, 89568, Control_c, 3, 11, 92
6, 89568, Control_c, 3, 11, 127
6, 89568, Note_on_c, 3, 68, 27
6, 89568, Note_on_c, 3, 72, 31
6, 89584, Control_c, 3, 11, 126
6, 89600, Control_c, 3, 11, 125
6, 89617, Control_c, 3, 11, 124
6, 89633, Control_c, 3, 11, 123
6, 89650, Control_c, 3, 11, 122
6, 89666, Control_c, 3, 11, 121
6, 89683, Control_c, 3, 11, 120
6, 89699, Control_c, 3, 11, 119
6, 89716, Control_c, 3, 11, 118
6, 89732, Control_c, 3, 11, 117
6, 89749, Control_c, 3, 11, 116
6, 89765, Control_c, 3, 11, 115
6, 89781, Control_c, 3, 11, 114
6, 89798, Control_c, 3, 11, 113
6, 89814, Control_c, 3, 11, 112
6, 89831, Control_c, 3, 11, 111
6, 89847, Control_c, 3, 11, 110
6, 89854, Note_on_c, 3, 68, 0
6, 89854, Note_on_c, 3, 72, 0
6, 89864, Control_c, 3, 11, 109
6, 89880, Control_c, 3, 11, 108
6, 89897, Control_c, 3, 11, 107
6, 89913, Control_c, 3, 11, 106
6, 89930, Control_c, 3, 11, 105
6, 89946, Control_c, 3, 11, 104
6, 89962, Control_c, 3, 11, 103
6, 89979, Control_c, 3, 11, 102
6, 89995, Control_c, 3, 11, 101
6, 90012, Control_c, 3, 11, 100
6, 90028, Control_c, 3, 11, 99
6, 90045, Control_c, 3, 11, 98
6, 90061, Control_c, 3, 11, 97
6, 90078, Control_c, 3, 11, 96
6, 90094, Control_c, 3, 11, 95
6, 90111, Control_c, 3, 11, 94
6, 90127, Control_c, 3, 11, 93
6, 90144, Control_c, 3, 11, 92
6, 90144, Control_c, 3, 11, 127
6, 90144, Note_on_c, 3, 68, 30
6, 90144, Note_on_c, 3, 72, 32
6, 90160, Control_c, 3, 11, 126
6, 90176, Control_c, 3, 11, 125
6, 90193, Control_c, 3, 11, 124
6, 90209, Control_c, 3, 11, 123
6, 90226, Control_c, 3, 11, 122
6, 90242, Control_c, 3, 11, 121
6, 90259, Control_c, 3, 11, 120
6, 90275, Control_c, 3, 11, 119
6, 90292, Control_c, 3, 11, 118
6, 90308, Control_c, 3, 11, 117
6, 90325, Control_c, 3, 11, 116
6, 90341, Control_c, 3, 11, 115
6, 90357, Control_c, 3, 11, 114
6, 90374, Control_c, 3, 11, 113
6, 90390, Control_c, 3, 11, 112
6, 90407, Control_c, 3, 11, 111
6, 90423, Control_c, 3, 11, 110
6, 90430, Note_on_c, 3, 68, 0
6, 90430, Note_on_c, 3, 72, 0
6, 90440, Control_c, 3, 11, 109
6, 90456, Control_c, 3, 11, 108
6, 90473, Control_c, 3, 11, 107
6, 90489, Control_c, 3, 11, 106
6, 90506, Control_c, 3, 11, 105
6, 90522, Control_c, 3, 11, 104
6, 90538, Control_c, 3, 11, 103
6, 90555, Control_c, 3, 11, 102
6, 90571, Control_c, 3, 11, 101
6, 90588, Control_c, 3, 11, 100
6, 90604, Control_c, 3, 11, 99
6, 90621, Control_c, 3, 11, 98
6, 90637, Control_c, 3, 11, 97
6, 90654, Control_c, 3, 11, 96
6, 90670, Control_c, 3, 11, 95
6, 90687, Control_c, 3, 11, 94
6, 90703, Control_c, 3, 11, 93
6, 90720, Control_c, 3, 11, 92
6, 90720, Control_c, 3, 11, 127
6, 90720, Note_on_c, 3, 64, 40
6, 90720, Note_on_c, 3, 68, 50
6, 91296, Note_on_c, 3, 64, 0
6, 91296, Note_on_c, 3, 68, 0
6, 91296, Note_on_c, 3, 63, 40
6, 91296, Note_on_c, 3, 68, 42
6, 91390, Note_on_c, 3, 63, 0
6, 91390, Note_on_c, 3, 68, 0
6, 92448, Control_c, 3, 11, 92
6, 92448, Note_on_c, 3, 56, 58
6, 92448, Note_on_c, 3, 63, 62
6, 93024, Control_c, 3, 11, 92
6, 93040, Control_c, 3, 11, 93
6, 93056, Control_c, 3, 11, 94
6, 93073, Control_c, 3, 11, 95
6, 93089, Control_c, 3, 11, 96
6, 93106, Control_c, 3, 11, 97
6, 93122, Control_c, 3, 11, 98
6, 93139, Control_c, 3, 11, 99
6, 93155, Control_c, 3, 11, 100
6, 93172, Control_c, 3, 11, 101
6, 93188, Control_c, 3, 11, 102
6, 93205, Control_c, 3, 11, 103
6, 93221, Control_c, 3, 11, 104
6, 93237, Control_c, 3, 11, 105
6, 93254, Control_c, 3, 11, 106
6, 93270, Control_c, 3, 11, 107
6, 93287, Control_c, 3, 11, 108
6, 93303, Control_c, 3, 11, 109
6, 93320, Control_c, 3, 11, 110
6, 93336, Control_c, 3, 11, 111
6, 93353, Control_c, 3, 11, 112
6, 93369, Control_c, 3, 11, 113
6, 93386, Control_c, 3, 11, 114
6, 93402, Control_c, 3, 11, 115
6, 93418, Control_c, 3, 11, 116
6, 93435, Control_c, 3, 11, 117
6, 93451, Control_c, 3, 11, 118
6, 93468, Control_c, 3, 11, 119
6, 93484, Control_c, 3, 11, 120
6, 93501, Control_c, 3, 11, 121
6, 93517, Control_c, 3, 11, 122
6, 93534, Control_c, 3, 11, 123
6, 93550, Control_c, 3, 11, 124
6, 93552, Note_on_c, 3, 56, 0
6, 93552, Note_on_c, 3, 63, 0
6, 93567, Control_c, 3, 11, 125
6, 93583, Control_c, 3, 11, 126
6, 93600, Control_c, 3, 11, 127
6, 94560, Control_c, 3, 11, 92
6, 94560, Note_on_c, 3, 66, 55
6, 94752, Control_c, 3, 11, 92
6, 94757, Control_c, 3, 11, 93
6, 94762, Control_c, 3, 11, 94
6, 94768, Control_c, 3, 11, 95
6, 94773, Control_c, 3, 11, 96
6, 94779, Control_c, 3, 11, 97
6, 94784, Control_c, 3, 11, 98
6, 94790, Control_c, 3, 11, 99
6, 94795, Control_c, 3, 11, 100
6, 94801, Control_c, 3, 11, 101
6, 94806, Control_c, 3, 11, 102
6, 94812, Control_c, 3, 11, 103
6, 94817, Control_c, 3, 11, 104
6, 94823, Control_c, 3, 11, 105
6, 94828, Control_c, 3, 11, 106
6, 94834, Control_c, 3, 11, 107
6, 94839, Control_c, 3, 11, 108
6, 94845, Control_c, 3, 11, 109
6, 94850, Control_c, 3, 11, 110
6, 94856, Control_c, 3, 11, 111
6, 94861, Control_c, 3, 11, 112
6, 94867, Control_c, 3, 11, 113
6, 94872, Control_c, 3, 11, 114
6, 94878, Control_c, 3, 11, 115
6, 94883, Control_c, 3, 11, 116
6, 94889, Control_c, 3, 11, 117
6, 94894, Control_c, 3, 11, 118
6, 94900, Control_c, 3, 11, 119
6, 94905, Control_c, 3, 11, 120
6, 94911, Control_c, 3, 11, 121
6, 94916, Control_c, 3, 11, 122
6, 94922, Control_c, 3, 11, 123
6, 94927, Control_c, 3, 11, 124
6, 94933, Control_c, 3, 11, 125
6, 94938, Control_c, 3, 11, 126
6, 94944, Note_on_c, 3, 66, 0
6, 94944, Control_c, 3, 11, 127
6, 94944, Note_on_c, 3, 71, 60
6, 95232, Note_on_c, 3, 71, 0
6, 95232, Note_on_c, 3, 69, 57
6, 95326, Note_on_c, 3, 69, 0
6, 95328, Control_c, 3, 11, 92
6, 95328, Note_on_c, 3, 66, 56
6, 95333, Control_c, 3, 11, 93
6, 95338, Control_c, 3, 11, 94
6, 95344, Control_c, 3, 11, 95
6, 95349, Control_c, 3, 11, 96
6, 95355, Control_c, 3, 11, 97
6, 95360, Control_c, 3, 11, 98
6, 95366, Control_c, 3, 11, 99
6, 95371, Control_c, 3, 11, 100
6, 95377, Control_c, 3, 11, 101
6, 95382, Control_c, 3, 11, 102
6, 95388, Control_c, 3, 11, 103
6, 95393, Control_c, 3, 11, 104
6, 95399, Control_c, 3, 11, 105
6, 95404, Control_c, 3, 11, 106
6, 95410, Control_c, 3, 11, 107
6, 95415, Control_c, 3, 11, 108
6, 95421, Control_c, 3, 11, 109
6, 95426, Control_c, 3, 11, 110
6, 95432, Control_c, 3, 11, 111
6, 95437, Control_c, 3, 11, 112
6, 95443, Control_c, 3, 11, 113
6, 95448, Control_c, 3, 11, 114
6, 95454, Control_c, 3, 11, 115
6, 95459, Control_c, 3, 11, 116
6, 95465, Control_c, 3, 11, 117
6, 95470, Control_c, 3, 11, 118
6, 95476, Control_c, 3, 11, 119
6, 95481, Control_c, 3, 11, 120
6, 95487, Control_c, 3, 11, 121
6, 95492, Control_c, 3, 11, 122
6, 95498, Control_c, 3, 11, 123
6, 95503, Control_c, 3, 11, 124
6, 95509, Control_c, 3, 11, 125
6, 95514, Control_c, 3, 11, 126
6, 95520, Note_on_c, 3, 66, 0
6, 95520, Control_c, 3, 11, 127
6, 95520, Note_on_c, 3, 71, 63
6, 95808, Note_on_c, 3, 71, 0
6, 95808, Note_on_c, 3, 69, 62
6, 95902, Note_on_c, 3, 69, 0
6, 95904, Note_on_c, 3, 67, 48
6, 95904, Note_on_c, 3, 70, 50
6, 96320, Note_on_c, 3, 67, 0
6, 96320, Note_on_c, 3, 70, 0
6, 96480, Note_on_c, 3, 67, 42
6, 96480, Note_on_c, 3, 70, 45
6, 96958, Note_on_c, 3, 67, 0
6, 96958, Note_on_c, 3, 70, 0
6, 97056, Note_on_c, 3, 68, 40
6, 97056, Note_on_c, 3, 71, 43
6, 97584, Note_on_c, 3, 68, 0
6, 97584, Note_on_c, 3, 71, 0
6, 97632, Note_on_c, 3, 64, 44
6, 97632, Note_on_c, 3, 68, 47
6, 98160, Note_on_c, 3, 64, 0
6, 98160, Note_on_c, 3, 68, 0
6, 98208, Note_on_c, 3, 67, 47
6, 98208, Note_on_c, 3, 70, 44
6, 98686, Note_on_c, 3, 67, 0
6, 98686, Note_on_c, 3, 70, 0
6, 98784, Note_on_c, 3, 67, 47
6, 98784, Note_on_c, 3, 70, 50
6, 99262, Note_on_c, 3, 67, 0
6, 99262, Note_on_c, 3, 70, 0
6, 99360, Note_on_c, 3, 68, 48
6, 99360, Note_on_c, 3, 71, 46
6, 99888, Note_on_c, 3, 68, 0
6, 99888, Note_on_c, 3, 71, 0
6, 99936, Note_on_c, 3, 64, 40
6, 99936, Note_on_c, 3, 68, 45
6, 100464, Note_on_c, 3, 64, 0
6, 100464, Note_on_c, 3, 68, 0
6, 101088, Control_c, 3, 11, 127
6, 101664, Note_on_c, 3, 66, 46
6, 101664, Note_on_c, 3, 69, 42
6, 101726, Note_on_c, 3, 66, 0
6, 101726, Note_on_c, 3, 69, 0
6, 101728, Note_on_c, 3, 68, 54
6, 101728, Note_on_c, 3, 71, 55
6, 101790, Note_on_c, 3, 68, 0
6, 101790, Note_on_c, 3, 71, 0
6, 101792, Note_on_c, 3, 69, 62
6, 101792, Note_on_c, 3, 73, 68
6, 101854, Note_on_c, 3, 69, 0
6, 101854, Note_on_c, 3, 73, 0
6, 101856, Note_on_c, 3, 75, 76
6, 101856, Note_on_c, 3, 80, 73
6, 101888, Note_on_c, 3, 75, 0
6, 101888, Note_on_c, 3, 80, 0
6, 102240, Note_on_c, 3, 69, 43
6, 102240, Note_on_c, 3, 73, 47
6, 102302, Note_on_c, 3, 69, 0
6, 102302, Note_on_c, 3, 73, 0
6, 102304, Note_on_c, 3, 71, 52
6, 102304, Note_on_c, 3, 75, 57
6, 102366, Note_on_c, 3, 71, 0
6, 102366, Note_on_c, 3, 75, 0
6, 102368, Note_on_c, 3, 73, 67
6, 102368, Note_on_c, 3, 76, 63
6, 102430, Note_on_c, 3, 73, 0
6, 102430, Note_on_c, 3, 76, 0
6, 102432, Note_on_c, 3, 78, 72
6, 102432, Note_on_c, 3, 83, 71
6, 102464, Note_on_c, 3, 78, 0
6, 102464, Note_on_c, 3, 83, 0
6, 104544, Note_on_c, 3, 78, 40
6, 104544, Note_on_c, 3, 81, 44
6, 104586, Note_on_c, 3, 78, 0
6, 104586, Note_on_c, 3, 81, 0
6, 104608, Note_on_c, 3, 76, 50
6, 104608, Note_on_c, 3, 80, 48
6, 104650, Note_on_c, 3, 76, 0
6, 104650, Note_on_c, 3, 80, 0
6, 104672, Note_on_c, 3, 74, 48
6, 104672, Note_on_c, 3, 78, 51
6, 104714, Note_on_c, 3, 74, 0
6, 104714, Note_on_c, 3, 78, 0
6, 104736, Note_on_c, 3, 73, 54
6, 104736, Note_on_c, 3, 76, 47
6, 104778, Note_on_c, 3, 73, 0
6, 104778, Note_on_c, 3, 76, 0
6, 104800, Note_on_c, 3, 71, 54
6, 104800, Note_on_c, 3, 74, 57
6, 104842, Note_on_c, 3, 71, 0
6, 104842, Note_on_c, 3, 74, 0
6, 104864, Note_on_c, 3, 69, 57
6, 104864, Note_on_c, 3, 73, 58
6, 104906, Note_on_c, 3, 69, 0
6, 104906, Note_on_c, 3, 73, 0
6, 104928, Note_on_c, 3, 68, 62
6, 104928, Note_on_c, 3, 71, 58
6, 104970, Note_on_c, 3, 68, 0
6, 104970, Note_on_c, 3, 71, 0
6, 104992, Note_on_c, 3, 66, 70
6, 104992, Note_on_c, 3, 69, 64
6, 105034, Note_on_c, 3, 66, 0
6, 105034, Note_on_c, 3, 69, 0
6, 105056, Note_on_c, 3, 64, 71
6, 105056, Note_on_c, 3, 68, 74
6, 105098, Note_on_c, 3, 64, 0
6, 105098, Note_on_c, 3, 68, 0
6, 105120, Note_on_c, 3, 62, 79
6, 105120, Note_on_c, 3, 66, 78
6, 105152, Note_on_c, 3, 62, 0
6, 105152, Note_on_c, 3, 66, 0
6, 106848, Note_on_c, 3, 78, 47
6, 106848, Note_on_c, 3, 81, 48
6, 106890, Note_on_c, 3, 78, 0
6, 106890, Note_on_c, 3, 81, 0
6, 106912, Note_on_c, 3, 76, 43
6, 106912, Note_on_c, 3, 80, 40
6, 106954, Note_on_c, 3, 76, 0
6, 106954, Note_on_c, 3, 80, 0
6, 106976, Note_on_c, 3, 74, 44
6, 106976, Note_on_c, 3, 78, 50
6, 107018, Note_on_c, 3, 74, 0
6, 107018, Note_on_c, 3, 78, 0
6, 107040, Note_on_c, 3, 73, 50
6, 107040, Note_on_c, 3, 76, 49
6, 107082, Note_on_c, 3, 73, 0
6, 107082, Note_on_c, 3, 76, 0
6, 107104, Note_on_c, 3, 71, 59
6, 107104, Note_on_c, 3, 74, 54
6, 107146, Note_on_c, 3, 71, 0
6, 107146, Note_on_c, 3, 74, 0
6, 107168, Note_on_c, 3, 69, 59
6, 107168, Note_on_c, 3, 73, 60
6, 107210, Note_on_c, 3, 69, 0
6, 107210, Note_on_c, 3, 73, 0
6, 107232, Note_on_c, 3, 68, 58
6, 107232, Note_on_c, 3, 71, 66
6, 107274, Note_on_c, 3, 68, 0
6, 107274, Note_on_c, 3, 71, 0
6, 107296, Note_on_c, 3, 66, 64
6, 107296, Note_on_c, 3, 69, 67
6, 107338, Note_on_c, 3, 66, 0
6, 107338, Note_on_c, 3, 69, 0
6, 107360, Note_on_c, 3, 64, 66
6, 107360, Note_on_c, 3, 68, 76
6, 107402, Note_on_c, 3, 64, 0
6, 107402, Note_on_c, 3, 68, 0
6, 107424, Note_on_c, 3, 63, 77
6, 107424, Note_on_c, 3, 66, 79
6, 107456, Note_on_c, 3, 63, 0
6, 107456, Note_on_c, 3, 66, 0
6, 108192, Note_on_c, 3, 65, 78
6, 108192, Note_on_c, 3, 68, 79
6, 108312, Note_on_c, 3, 65, 0
6, 108312, Note_on_c, 3, 68, 0
6, 108384, Note_on_c, 3, 61, 75
6, 108384, Note_on_c, 3, 65, 71
6, 108504, Note_on_c, 3, 61, 0
6, 108504, Note_on_c, 3, 65, 0
6, 108576, Note_on_c, 3, 60, 70
6, 108576, Note_on_c, 3, 63, 64
6, 108696, Note_on_c, 3, 60, 0
6, 108696, Note_on_c, 3, 63, 0
6, 108768, Note_on_c, 3, 56, 54
6, 108768, Note_on_c, 3, 60, 50
6, 108888, Note_on_c, 3, 56, 0
6, 108888, Note_on_c, 3, 60, 0
6, 108960, Note_on_c, 3, 54, 42
6, 108960, Note_on_c, 3, 58, 47
6, 109008, Note_on_c, 3, 54, 0
6, 109008, Note_on_c, 3, 58, 0
6, 109216, Note_on_c, 3, 54, 75
6, 109216, Note_on_c, 3, 58, 70
6, 109280, Note_on_c, 3, 54, 0
6, 109280, Note_on_c, 3, 58, 0
6, 109280, Note_on_c, 3, 56, 74
6, 109280, Note_on_c, 3, 60, 76
6, 109344, Note_on_c, 3, 56, 0
6, 109344, Note_on_c, 3, 60, 0
6, 109344, Note_on_c, 3, 60, 72
6, 109344, Note_on_c, 3, 63, 82
6, 109386, Note_on_c, 3, 60, 0
6, 109386, Note_on_c, 3, 63, 0
6, 109408, Note_on_c, 3, 60, 75
6, 109408, Note_on_c, 3, 63, 80
6, 109472, Note_on_c, 3, 60, 0
6, 109472, Note_on_c, 3, 63, 0
6, 109472, Note_on_c, 3, 61, 77
6, 109472, Note_on_c, 3, 65, 81
6, 109536, Note_on_c, 3, 61, 0
6, 109536, Note_on_c, 3, 65, 0
6, 109536, Note_on_c, 3, 65, 81
6, 109536, Note_on_c, 3, 68, 85
6, 109578, Note_on_c, 3, 65, 0
6, 109578, Note_on_c, 3, 68, 0
6, 109600, Note_on_c, 3, 65, 90
6, 109600, Note_on_c, 3, 68, 82
6, 109664, Note_on_c, 3, 65, 0
6, 109664, Note_on_c, 3, 68, 0
6, 109664, Note_on_c, 3, 67, 85
6, 109664, Note_on_c, 3, 70, 93
6, 109728, Note_on_c, 3, 67, 0
6, 109728, Note_on_c, 3, 70, 0
6, 109728, Note_on_c, 3, 68, 91
6, 109728, Note_on_c, 3, 71, 96
6, 109760, Note_on_c, 3, 68, 0
6, 109760, Note_on_c, 3, 71, 0
6, 109920, Control_c, 3, 7, 92
6, 110112, Note_on_c, 3, 68, 96
6, 110112, Note_on_c, 3, 71, 92
6, 110154, Note_on_c, 3, 68, 0
6, 110154, Note_on_c, 3, 71, 0
6, 110176, Note_on_c, 3, 68, 93
6, 110176, Note_on_c, 3, 71, 97
6, 110218, Note_on_c, 3, 68, 0
6, 110218, Note_on_c, 3, 71, 0
6, 110240, Note_on_c, 3, 68, 99
6, 110240, Note_on_c, 3, 71, 96
6, 110282, Note_on_c, 3, 68, 0
6, 110282, Note_on_c, 3, 71, 0
6, 110304, Note_on_c, 3, 68, 96
6, 110304, Note_on_c, 3, 71, 97
6, 110346, Note_on_c, 3, 68, 0
6, 110346, Note_on_c, 3, 71, 0
6, 110368, Note_on_c, 3, 68, 105
6, 110368, Note_on_c, 3, 71, 105
6, 110410, Note_on_c, 3, 68, 0
6, 110410, Note_on_c, 3, 71, 0
6, 110432, Note_on_c, 3, 68, 106
6, 110432, Note_on_c, 3, 71, 107
6, 110474, Note_on_c, 3, 68, 0
6, 110474, Note_on_c, 3, 71, 0
6, 110496, Note_on_c, 3, 65, 105
6, 110496, Note_on_c, 3, 68, 103
6, 110528, Note_on_c, 3, 65, 0
6, 110528, Note_on_c, 3, 68, 0
6, 111264, Note_on_c, 3, 72, 94
6, 111264, Note_on_c, 3, 74, 90
6, 111306, Note_on_c, 3, 72, 0
6, 111306, Note_on_c, 3, 74, 0
6, 111328, Note_on_c, 3, 72, 94
6, 111328, Note_on_c, 3, 74, 92
6, 111370, Note_on_c, 3, 72, 0
6, 111370, Note_on_c, 3, 74, 0
6, 111392, Note_on_c, 3, 72, 98
6, 111392, Note_on_c, 3, 74, 96
6, 111434, Note_on_c, 3, 72, 0
6, 111434, Note_on_c, 3, 74, 0
6, 111456, Note_on_c, 3, 71, 90
6, 111456, Note_on_c, 3, 74, 96
6, 111498, Note_on_c, 3, 71, 0
6, 111498, Note_on_c, 3, 74, 0
6, 111520, Note_on_c, 3, 71, 93
6, 111520, Note_on_c, 3, 74, 96
6, 111562, Note_on_c, 3, 71, 0
6, 111562, Note_on_c, 3, 74, 0
6, 111584, Note_on_c, 3, 71, 101
6, 111584, Note_on_c, 3, 74, 91
6, 111626, Note_on_c, 3, 71, 0
6, 111626, Note_on_c, 3, 74, 0
6, 111648, Note_on_c, 3, 71, 92
6, 111648, Note_on_c, 3, 74, 100
6, 111690, Note_on_c, 3, 71, 0
6, 111690, Note_on_c, 3, 74, 0
6, 111712, Note_on_c, 3, 71, 93
6, 111712, Note_on_c, 3, 74, 93
6, 111754, Note_on_c, 3, 71, 0
6, 111754, Note_on_c, 3, 74, 0
6, 111776, Note_on_c, 3, 71, 98
6, 111776, Note_on_c, 3, 74, 100
6, 111818, Note_on_c, 3, 71, 0
6, 111818, Note_on_c, 3, 74, 0
6, 111840, Note_on_c, 3, 71, 107
6, 111840, Note_on_c, 3, 74, 105
6, 111882, Note_on_c, 3, 71, 0
6, 111882, Note_on_c, 3, 74, 0
6, 111904, Note_on_c, 3, 71, 107
6, 111904, Note_on_c, 3, 74, 104
6, 111946, Note_on_c, 3, 71, 0
6, 111946, Note_on_c, 3, 74, 0
6, 111968, Note_on_c, 3, 71, 104
6, 111968, Note_on_c, 3, 74, 110
6, 112010, Note_on_c, 3, 71, 0
6, 112010, Note_on_c, 3, 74, 0
6, 112032, Note_on_c, 3, 70, 107
6, 112032, Note_on_c, 3, 75, 110
6, 112064, Note_on_c, 3, 70, 0
6, 112064, Note_on_c, 3, 75, 0
6, 112224, Note_on_c, 3, 72, 88
6, 112224, Note_on_c, 3, 75, 94
6, 112480, Note_on_c, 3, 72, 0
6, 112480, Note_on_c, 3, 75, 0
6, 112512, Note_on_c, 3, 68, 94
6, 112512, Note_on_c, 3, 72, 90
6, 112606, Note_on_c, 3, 68, 0
6, 112606, Note_on_c, 3, 72, 0
6, 112608, Note_on_c, 3, 66, 91
6, 112608, Note_on_c, 3, 70, 91
6, 112728, Note_on_c, 3, 66, 0
6, 112728, Note_on_c, 3, 70, 0
6, 112800, Note_on_c, 3, 65, 84
6, 112800, Note_on_c, 3, 68, 86
6, 112920, Note_on_c, 3, 65, 0
6, 112920, Note_on_c, 3, 68, 0
6, 112992, Note_on_c, 3, 61, 76
6, 112992, Note_on_c, 3, 65, 75
6, 113112, Note_on_c, 3, 61, 0
6, 113112, Note_on_c, 3, 65, 0
6, 113184, Note_on_c, 3, 60, 71
6, 113184, Note_on_c, 3, 63, 77
6, 113304, Note_on_c, 3, 60, 0
6, 113304, Note_on_c, 3, 63, 0
6, 113376, Note_on_c, 3, 56, 64
6, 113376, Note_on_c, 3, 60, 70
6, 113496, Note_on_c, 3, 56, 0
6, 113496, Note_on_c, 3, 60, 0
6, 113568, Note_on_c, 3, 54, 65
6, 113568, Note_on_c, 3, 58, 56
6, 113616, Note_on_c, 3, 54, 0
6, 113616, Note_on_c, 3, 58, 0
6, 113824, Note_on_c, 3, 54, 89
6, 113824, Note_on_c, 3, 58, 97
6, 113888, Note_on_c, 3, 54, 0
6, 113888, Note_on_c, 3, 58, 0
6, 113888, Note_on_c, 3, 56, 97
6, 113888, Note_on_c, 3, 60, 90
6, 113952, Note_on_c, 3, 56, 0
6, 113952, Note_on_c, 3, 60, 0
6, 113952, Note_on_c, 3, 60, 90
6, 113952, Note_on_c, 3, 63, 91
6, 113994, Note_on_c, 3, 60, 0
6, 113994, Note_on_c, 3, 63, 0
6, 114016, Note_on_c, 3, 60, 98
6, 114016, Note_on_c, 3, 63, 95
6, 114080, Note_on_c, 3, 60, 0
6, 114080, Note_on_c, 3, 63, 0
6, 114080, Note_on_c, 3, 61, 98
6, 114080, Note_on_c, 3, 65, 97
6, 114144, Note_on_c, 3, 61, 0
6, 114144, Note_on_c, 3, 65, 0
6, 114144, Note_on_c, 3, 65, 96
6, 114144, Note_on_c, 3, 68, 98
6, 114186, Note_on_c, 3, 65, 0
6, 114186, Note_on_c, 3, 68, 0
6, 114208, Note_on_c, 3, 65, 107
6, 114208, Note_on_c, 3, 68, 100
6, 114272, Note_on_c, 3, 65, 0
6, 114272, Note_on_c, 3, 68, 0
6, 114272, Note_on_c, 3, 67, 102
6, 114272, Note_on_c, 3, 70, 108
6, 114336, Note_on_c, 3, 67, 0
6, 114336, Note_on_c, 3, 70, 0
6, 114336, Note_on_c, 3, 68, 113
6, 114336, Note_on_c, 3, 72, 112
6, 114368, Note_on_c, 3, 68, 0
6, 114368, Note_on_c, 3, 72, 0
6, 114912, Note_on_c, 3, 72, 93
6, 114912, Note_on_c, 3, 74, 92
6, 114954, Note_on_c, 3, 72, 0
6, 114954, Note_on_c, 3, 74, 0
6, 114976, Note_on_c, 3, 72, 94
6, 114976, Note_on_c, 3, 74, 90
6, 115018, Note_on_c, 3, 72, 0
6, 115018, Note_on_c, 3, 74, 0
6, 115040, Note_on_c, 3, 72, 98
6, 115040, Note_on_c, 3, 74, 97
6, 115082, Note_on_c, 3, 72, 0
6, 115082, Note_on_c, 3, 74, 0
6, 115104, Note_on_c, 3, 72, 96
6, 115104, Note_on_c, 3, 74, 92
6, 115136, Note_on_c, 3, 72, 0
6, 115136, Note_on_c, 3, 74, 0
6, 115296, Note_on_c, 3, 72, 107
6, 115296, Note_on_c, 3, 74, 106
6, 115338, Note_on_c, 3, 72, 0
6, 115338, Note_on_c, 3, 74, 0
6, 115360, Note_on_c, 3, 72, 103
6, 115360, Note_on_c, 3, 74, 105
6, 115402, Note_on_c, 3, 72, 0
6, 115402, Note_on_c, 3, 74, 0
6, 115424, Note_on_c, 3, 72, 104
6, 115424, Note_on_c, 3, 74, 103
6, 115466, Note_on_c, 3, 72, 0
6, 115466, Note_on_c, 3, 74, 0
6, 115488, Note_on_c, 3, 70, 112
6, 115488, Note_on_c, 3, 74, 104
6, 115520, Note_on_c, 3, 70, 0
6, 115520, Note_on_c, 3, 74, 0
6, 116064, Note_on_c, 3, 72, 96
6, 116064, Note_on_c, 3, 74, 91
6, 116106, Note_on_c, 3, 72, 0
6, 116106, Note_on_c, 3, 74, 0
6, 116128, Note_on_c, 3, 72, 89
6, 116128, Note_on_c, 3, 74, 97
6, 116170, Note_on_c, 3, 72, 0
6, 116170, Note_on_c, 3, 74, 0
6, 116192, Note_on_c, 3, 72, 89
6, 116192, Note_on_c, 3, 74, 95
6, 116234, Note_on_c, 3, 72, 0
6, 116234, Note_on_c, 3, 74, 0
6, 116256, Note_on_c, 3, 72, 95
6, 116256, Note_on_c, 3, 74, 94
6, 116288, Note_on_c, 3, 72, 0
6, 116288, Note_on_c, 3, 74, 0
6, 116448, Note_on_c, 3, 74, 100
6, 116448, Note_on_c, 3, 77, 99
6, 116490, Note_on_c, 3, 74, 0
6, 116490, Note_on_c, 3, 77, 0
6, 116512, Note_on_c, 3, 74, 103
6, 116512, Note_on_c, 3, 77, 103
6, 116554, Note_on_c, 3, 74, 0
6, 116554, Note_on_c, 3, 77, 0
6, 116576, Note_on_c, 3, 74, 109
6, 116576, Note_on_c, 3, 77, 102
6, 116618, Note_on_c, 3, 74, 0
6, 116618, Note_on_c, 3, 77, 0
6, 116640, Note_on_c, 3, 68, 108
6, 116640, Note_on_c, 3, 77, 103
6, 116662, Note_on_c, 3, 68, 0
6, 116662, Note_on_c, 3, 77, 0
6, 116664, Note_on_c, 3, 67, 113
6, 116664, Note_on_c, 3, 76, 112
6, 116686, Note_on_c, 3, 67, 0
6, 116686, Note_on_c, 3, 76, 0
6, 116688, Note_on_c, 3, 68, 110
6, 116688, Note_on_c, 3, 77, 106
6, 116710, Note_on_c, 3, 68, 0
6, 116710, Note_on_c, 3, 77, 0
6, 116712, Note_on_c, 3, 67, 103
6, 116712, Note_on_c, 3, 76, 108
6, 116734, Note_on_c, 3, 67, 0
6, 116734, Note_on_c, 3, 76, 0
6, 116736, Note_on_c, 3, 68, 105
6, 116736, Note_on_c, 3, 77, 105
6, 116758, Note_on_c, 3, 68, 0
6, 116758, Note_on_c, 3, 77, 0
6, 116760, Note_on_c, 3, 67, 104
6, 116760, Note_on_c, 3, 76, 111
6, 116782, Note_on_c, 3, 67, 0
6, 116782, Note_on_c, 3, 76, 0
6, 116784, Note_on_c, 3, 68, 111
6, 116784, Note_on_c, 3, 77, 113
6, 116806, Note_on_c, 3, 68, 0
6, 116806, Note_on_c, 3, 77, 0
6, 116808, Note_on_c, 3, 67, 110
6, 116808, Note_on_c, 3, 76, 106
6, 116830, Note_on_c, 3, 67, 0
6, 116830, Note_on_c, 3, 76, 0
6, 116832, Note_on_c, 3, 68, 110
6, 116832, Note_on_c, 3, 77, 110
6, 116854, Note_on_c, 3, 68, 0
6, 116854, Note_on_c, 3, 77, 0
6, 116856, Note_on_c, 3, 67, 110
6, 116856, Note_on_c, 3, 76, 108
6, 116878, Note_on_c, 3, 67, 0
6, 116878, Note_on_c, 3, 76, 0
6, 116880, Note_on_c, 3, 68, 106
6, 116880, Note_on_c, 3, 77, 106
6, 116902, Note_on_c, 3, 68, 0
6, 116902, Note_on_c, 3, 77, 0
6, 116904, Note_on_c, 3, 67, 109
6, 116904, Note_on_c, 3, 76, 110
6, 116926, Note_on_c, 3, 67, 0
6, 116926, Note_on_c, 3, 76, 0
6, 116928, Note_on_c, 3, 68, 111
6, 116928, Note_on_c, 3, 77, 112
6, 116950, Note_on_c, 3, 68, 0
6, 116950, Note_on_c, 3, 77, 0
6, 116952, Note_on_c, 3, 67, 110
6, 116952, Note_on_c, 3, 76, 111
6, 116974, Note_on_c, 3, 67, 0
6, 116974, Note_on_c, 3, 76, 0
6, 116976, Note_on_c, 3, 68, 109
6, 116976, Note_on_c, 3, 77, 113
6, 116998, Note_on_c, 3, 68, 0
6, 116998, Note_on_c, 3, 77, 0
6, 117000, Note_on_c, 3, 67, 112
6, 117000, Note_on_c, 3, 76, 113
6, 117022, Note_on_c, 3, 67, 0
6, 117022, Note_on_c, 3, 76, 0
6, 117024, Note_on_c, 3, 68, 112
6, 117024, Note_on_c, 3, 77, 106
6, 117046, Note_on_c, 3, 68, 0
6, 117046, Note_on_c, 3, 77, 0
6, 117048, Note_on_c, 3, 67, 106
6, 117048, Note_on_c, 3, 76, 113
6, 117070, Note_on_c, 3, 67, 0
6, 117070, Note_on_c, 3, 76, 0
6, 117072, Note_on_c, 3, 68, 112
6, 117072, Note_on_c, 3, 77, 111
6, 117094, Note_on_c, 3, 68, 0
6, 117094, Note_on_c, 3, 77, 0
6, 117096, Note_on_c, 3, 67, 109
6, 117096, Note_on_c, 3, 76, 105
6, 117118, Note_on_c, 3, 67, 0
6, 117118, Note_on_c, 3, 76, 0
6, 117120, Note_on_c, 3, 68, 108
6, 117120, Note_on_c, 3, 77, 105
6, 117142, Note_on_c, 3, 68, 0
6, 117142, Note_on_c, 3, 77, 0
6, 117144, Note_on_c, 3, 67, 107
6, 117144, Note_on_c, 3, 76, 108
6, 117166, Note_on_c, 3, 67, 0
6, 117166, Note_on_c, 3, 76, 0
6, 117168, Note_on_c, 3, 68, 113
6, 117168, Note_on_c, 3, 77, 111
6, 117190, Note_on_c, 3, 68, 0
6, 117190, Note_on_c, 3, 77, 0
6, 117192, Note_on_c, 3, 67, 103
6, 117192, Note_on_c, 3, 76, 103
6, 117214, Note_on_c, 3, 67, 0
6, 117214, Note_on_c, 3, 76, 0
6, 117216, Note_on_c, 3, 68, 113
6, 117216, Note_on_c, 3, 77, 109
6, 117238, Note_on_c, 3, 68, 0
6, 117238, Note_on_c, 3, 77, 0
6, 117240, Note_on_c, 3, 67, 107
6, 117240, Note_on_c, 3, 76, 105
6, 117262, Note_on_c, 3, 67, 0
6, 117262, Note_on_c, 3, 76, 0
6, 117264, Note_on_c, 3, 68, 105
6, 117264, Note_on_c, 3, 77, 113
6, 117286, Note_on_c, 3, 68, 0
6, 117286, Note_on_c, 3, 77, 0
6, 117288, Note_on_c, 3, 67, 111
6, 117288, Note_on_c, 3, 76, 112
6, 117310, Note_on_c, 3, 67, 0
6, 117310, Note_on_c, 3, 76, 0
6, 117312, Note_on_c, 3, 68, 107
6, 117312, Note_on_c, 3, 77, 106
6, 117334, Note_on_c, 3, 68, 0
6, 117334, Note_on_c, 3, 77, 0
6, 117336, Note_on_c, 3, 67, 108
6, 117336, Note_on_c, 3, 76, 108
6, 117358, Note_on_c, 3, 67, 0
6, 117358, Note_on_c, 3, 76, 0
6, 117360, Note_on_c, 3, 68, 113
6, 117360, Note_on_c, 3, 77, 108
6, 117382, Note_on_c, 3, 68, 0
6, 117382, Note_on_c, 3, 77, 0
6, 117384, Note_on_c, 3, 67, 103
6, 117384, Note_on_c, 3, 76, 108
6, 117406, Note_on_c, 3, 67, 0
6, 117406, Note_on_c, 3, 76, 0
6, 117408, Note_on_c, 3, 68, 103
6, 117408, Note_on_c, 3, 77, 108
6, 117430, Note_on_c, 3, 68, 0
6, 117430, Note_on_c, 3, 77, 0
6, 117432, Note_on_c, 3, 67, 113
6, 117432, Note_on_c, 3, 76, 113
6, 117454, Note_on_c, 3, 67, 0
6, 117454, Note_on_c, 3, 76, 0
6, 117456, Note_on_c, 3, 68, 105
6, 117456, Note_on_c, 3, 77, 112
6, 117478, Note_on_c, 3, 68, 0
6, 117478, Note_on_c, 3, 77, 0
6, 117480, Note_on_c, 3, 67, 104
6, 117480, Note_on_c, 3, 76, 106
6, 117502, Note_on_c, 3, 67, 0
6, 117502, Note_on_c, 3, 76, 0
6, 117504, Note_on_c, 3, 68, 104
6, 117504, Note_on_c, 3, 77, 104
6, 117526, Note_on_c, 3, 68, 0
6, 117526, Note_on_c, 3, 77, 0
6, 117528, Note_on_c, 3, 67, 107
6, 117528, Note_on_c, 3, 76, 103
6, 117550, Note_on_c, 3, 67, 0
6, 117550, Note_on_c, 3, 76, 0
6, 117552, Note_on_c, 3, 68, 105
6, 117552, Note_on_c, 3, 77, 106
6, 117574, Note_on_c, 3, 68, 0
6, 117574, Note_on_c, 3, 77, 0
6, 117576, Note_on_c, 3, 67, 113
6, 117576, Note_on_c, 3, 76, 109
6, 117598, Note_on_c, 3, 67, 0
6, 117598, Note_on_c, 3, 76, 0
6, 117600, Note_on_c, 3, 68, 108
6, 117600, Note_on_c, 3, 77, 111
6, 117622, Note_on_c, 3, 68, 0
6, 117622, Note_on_c, 3, 77, 0
6, 117624, Note_on_c, 3, 67, 108
6, 117624, Note_on_c, 3, 76, 107
6, 117646, Note_on_c, 3, 67, 0
6, 117646, Note_on_c, 3, 76, 0
6, 117648, Note_on_c, 3, 68, 103
6, 117648, Note_on_c, 3, 77, 106
6, 117670, Note_on_c, 3, 68, 0
6, 117670, Note_on_c, 3, 77, 0
6, 117672, Note_on_c, 3, 67, 111
6, 117672, Note_on_c, 3, 76, 103
6, 117694, Note_on_c, 3, 67, 0
6, 117694, Note_on_c, 3, 76, 0
6, 117696, Note_on_c, 3, 68, 106
6, 117696, Note_on_c, 3, 77, 107
6, 117718, Note_on_c, 3, 68, 0
6, 117718, Note_on_c, 3, 77, 0
6, 117720, Note_on_c, 3, 67, 107
6, 117720, Note_on_c, 3, 76, 109
6, 117742, Note_on_c, 3, 67, 0
6, 117742, Note_on_c, 3, 76, 0
6, 117744, Note_on_c, 3, 68, 106
6, 117744, Note_on_c, 3, 77, 103
6, 117766, Note_on_c, 3, 68, 0
6, 117766, Note_on_c, 3, 77, 0
6, 117768, Note_on_c, 3, 67, 111
6, 117768, Note_on_c, 3, 76, 110
6, 117790, Note_on_c, 3, 67, 0
6, 117790, Note_on_c, 3, 76, 0
6, 117792, Note_on_c, 3, 68, 106
6, 117792, Note_on_c, 3, 77, 104
6, 117814, Note_on_c, 3, 68, 0
6, 117814, Note_on_c, 3, 77, 0
6, 117816, Note_on_c, 3, 67, 107
6, 117816, Note_on_c, 3, 76, 103
6, 117838, Note_on_c, 3, 67, 0
6, 117838, Note_on_c, 3, 76, 0
6, 117840, Note_on_c, 3, 68, 104
6, 117840, Note_on_c, 3, 77, 103
6, 117862, Note_on_c, 3, 68, 0
6, 117862, Note_on_c, 3, 77, 0
6, 117864, Note_on_c, 3, 67, 111
6, 117864, Note_on_c, 3, 76, 113
6, 117886, Note_on_c, 3, 67, 0
6, 117886, Note_on_c, 3, 76, 0
6, 117888, Note_on_c, 3, 68, 104
6, 117888, Note_on_c, 3, 77, 112
6, 117910, Note_on_c, 3, 68, 0
6, 117910, Note_on_c, 3, 77, 0
6, 117912, Note_on_c, 3, 67, 105
6, 117912, Note_on_c, 3, 76, 104
6, 117934, Note_on_c, 3, 67, 0
6, 117934, Note_on_c, 3, 76, 0
6, 117936, Note_on_c, 3, 68, 103
6, 117936, Note_on_c, 3, 77, 107
6, 117958, Note_on_c, 3, 68, 0
6, 117958, Note_on_c, 3, 77, 0
6, 117960, Note_on_c, 3, 67, 112
6, 117960, Note_on_c, 3, 76, 105
6, 117982, Note_on_c, 3, 67, 0
6, 117982, Note_on_c, 3, 76, 0
6, 117984, Note_on_c, 3, 68, 110
6, 117984, Note_on_c, 3, 77, 108
6, 118006, Note_on_c, 3, 68, 0
6, 118006, Note_on_c, 3, 77, 0
6, 118008, Note_on_c, 3, 67, 105
6, 118008, Note_on_c, 3, 76, 107
6, 118030, Note_on_c, 3, 67, 0
6, 118030, Note_on_c, 3, 76, 0
6, 118032, Note_on_c, 3, 68, 107
6, 118032, Note_on_c, 3, 77, 106
6, 118054, Note_on_c, 3, 68, 0
6, 118054, Note_on_c, 3, 77, 0
6, 118056, Note_on_c, 3, 67, 107
6, 118056, Note_on_c, 3, 76, 105
6, 118078, Note_on_c, 3, 67, 0
6, 118078, Note_on_c, 3, 76, 0
6, 118080, Note_on_c, 3, 68, 108
6, 118080, Note_on_c, 3, 77, 108
6, 118102, Note_on_c, 3, 68, 0
6, 118102, Note_on_c, 3, 77, 0
6, 118104, Note_on_c, 3, 67, 104
6, 118104, Note_on_c, 3, 76, 107
6, 118126, Note_on_c, 3, 67, 0
6, 118126, Note_on_c, 3, 76, 0
6, 118128, Note_on_c, 3, 68, 103
6, 118128, Note_on_c, 3, 77, 105
6, 118150, Note_on_c, 3, 68, 0
6, 118150, Note_on_c, 3, 77, 0
6, 118152, Note_on_c, 3, 67, 109
6, 118152, Note_on_c, 3, 76, 105
6, 118174, Note_on_c, 3, 67, 0
6, 118174, Note_on_c, 3, 76, 0
6, 118176, Note_on_c, 3, 68, 107
6, 118176, Note_on_c, 3, 77, 112
6, 118198, Note_on_c, 3, 68, 0
6, 118198, Note_on_c, 3, 77, 0
6, 118200, Note_on_c, 3, 67, 109
6, 118200, Note_on_c, 3, 76, 103
6, 118222, Note_on_c, 3, 67, 0
6, 118222, Note_on_c, 3, 76, 0
6, 118224, Note_on_c, 3, 68, 108
6, 118224, Note_on_c, 3, 77, 110
6, 118246, Note_on_c, 3, 68, 0
6, 118246, Note_on_c, 3, 77, 0
6, 118248, Note_on_c, 3, 67, 108
6, 118248, Note_on_c, 3, 76, 106
6, 118270, Note_on_c, 3, 67, 0
6, 118270, Note_on_c, 3, 76, 0
6, 118272, Note_on_c, 3, 68, 107
6, 118272, Note_on_c, 3, 77, 109
6, 118294, Note_on_c, 3, 68, 0
6, 118294, Note_on_c, 3, 77, 0
6, 118296, Note_on_c, 3, 67, 112
6, 118296, Note_on_c, 3, 76, 105
6, 118318, Note_on_c, 3, 67, 0
6, 118318, Note_on_c, 3, 76, 0
6, 118320, Note_on_c, 3, 68, 110
6, 118320, Note_on_c, 3, 77, 107
6, 118342, Note_on_c, 3, 68, 0
6, 118342, Note_on_c, 3, 77, 0
6, 118344, Note_on_c, 3, 67, 111
6, 118344, Note_on_c, 3, 76, 111
6, 118366, Note_on_c, 3, 67, 0
6, 118366, Note_on_c, 3, 76, 0
6, 118368, Note_on_c, 3, 68, 103
6, 118368, Note_on_c, 3, 77, 103
6, 118390, Note_on_c, 3, 68, 0
6, 118390, Note_on_c, 3, 77, 0
6, 118392, Note_on_c, 3, 67, 108
6, 118392, Note_on_c, 3, 76, 112
6, 118414, Note_on_c, 3, 67, 0
6, 118414, Note_on_c, 3, 76, 0
6, 118416, Note_on_c, 3, 68, 106
6, 118416, Note_on_c, 3, 77, 106
6, 118438, Note_on_c, 3, 68, 0
6, 118438, Note_on_c, 3, 77, 0
6, 118440, Note_on_c, 3, 67, 112
6, 118440, Note_on_c, 3, 76, 103
6, 118462, Note_on_c, 3, 67, 0
6, 118462, Note_on_c, 3, 76, 0
6, 118464, Note_on_c, 3, 68, 109
6, 118464, Note_on_c, 3, 77, 107
6, 118486, Note_on_c, 3, 68, 0
6, 118486, Note_on_c, 3, 77, 0
6, 118488, Note_on_c, 3, 67, 110
6, 118488, Note_on_c, 3, 76, 109
6, 118510, Note_on_c, 3, 67, 0
6, 118510, Note_on_c, 3, 76, 0
6, 118512, Note_on_c, 3, 68, 103
6, 118512, Note_on_c, 3, 77, 108
6, 118534, Note_on_c, 3, 68, 0
6, 118534, Note_on_c, 3, 77, 0
6, 118536, Note_on_c, 3, 67, 109
6, 118536, Note_on_c, 3, 76, 103
6, 118558, Note_on_c, 3, 67, 0
6, 118558, Note_on_c, 3, 76, 0
6, 118560, Note_on_c, 3, 68, 108
6, 118560, Note_on_c, 3, 77, 108
6, 118582, Note_on_c, 3, 68, 0
6, 118582, Note_on_c, 3, 77, 0
6, 118584, Note_on_c, 3, 67, 110
6, 118584, Note_on_c, 3, 76, 103
6, 118606, Note_on_c, 3, 67, 0
6, 118606, Note_on_c, 3, 76, 0
6, 118608, Note_on_c, 3, 68, 109
6, 118608, Note_on_c, 3, 77, 108
6, 118630, Note_on_c, 3, 68, 0
6, 118630, Note_on_c, 3, 77, 0
6, 118632, Note_on_c, 3, 67, 111
6, 118632, Note_on_c, 3, 76, 103
6, 118654, Note_on_c, 3, 67, 0
6, 118654, Note_on_c, 3, 76, 0
6, 118656, Note_on_c, 3, 68, 111
6, 118656, Note_on_c, 3, 77, 109
6, 118678, Note_on_c, 3, 68, 0
6, 118678, Note_on_c, 3, 77, 0
6, 118680, Note_on_c, 3, 67, 111
6, 118680, Note_on_c, 3, 76, 111
6, 118702, Note_on_c, 3, 67, 0
6, 118702, Note_on_c, 3, 76, 0
6, 118704, Note_on_c, 3, 68, 109
6, 118704, Note_on_c, 3, 77, 108
6, 118726, Note_on_c, 3, 68, 0
6, 118726, Note_on_c, 3, 77, 0
6, 118728, Note_on_c, 3, 67, 107
6, 118728, Note_on_c, 3, 76, 106
6, 118750, Note_on_c, 3, 67, 0
6, 118750, Note_on_c, 3, 76, 0
6, 118752, Note_on_c, 3, 68, 103
6, 118752, Note_on_c, 3, 77, 110
6, 118774, Note_on_c, 3, 68, 0
6, 118774, Note_on_c, 3, 77, 0
6, 118776, Note_on_c, 3, 67, 113
6, 118776, Note_on_c, 3, 76, 110
6, 118798, Note_on_c, 3, 67, 0
6, 118798, Note_on_c, 3, 76, 0
6, 118800, Note_on_c, 3, 68, 108
6, 118800, Note_on_c, 3, 77, 109
6, 118822, Note_on_c, 3, 68, 0
6, 118822, Note_on_c, 3, 77, 0
6, 118824, Note_on_c, 3, 67, 112
6, 118824, Note_on_c, 3, 76, 112
6, 118846, Note_on_c, 3, 67, 0
6, 118846, Note_on_c, 3, 76, 0
6, 118848, Note_on_c, 3, 68, 109
6, 118848, Note_on_c, 3, 77, 108
6, 118870, Note_on_c, 3, 68, 0
6, 118870, Note_on_c, 3, 77, 0
6, 118872, Note_on_c, 3, 67, 104
6, 118872, Note_on_c, 3, 76, 103
6, 118894, Note_on_c, 3, 67, 0
6, 118894, Note_on_c, 3, 76, 0
6, 118896, Note_on_c, 3, 68, 108
6, 118896, Note_on_c, 3, 77, 107
6, 118918, Note_on_c, 3, 68, 0
6, 118918, Note_on_c, 3, 77, 0
6, 118920, Note_on_c, 3, 67, 113
6, 118920, Note_on_c, 3, 76, 108
6, 118942, Note_on_c, 3, 67, 0
6, 118942, Note_on_c, 3, 76, 0
6, 118944, Note_on_c, 3, 68, 108
6, 118944, Note_on_c, 3, 77, 104
6, 118976, Note_on_c, 3, 68, 0
6, 118976, Note_on_c, 3, 77, 0
6, 119520, Control_c, 3, 7, 127
6, 122976, Control_c, 3, 11, 127
6, 123744, Note_on_c, 3, 66, 62
6, 123808, Note_on_c, 3, 66, 0
6, 123808, Note_on_c, 3, 67, 60
6, 123872, Note_on_c, 3, 67, 0
6, 123872, Note_on_c, 3, 69, 56
6, 123936, Note_on_c, 3, 69, 0
6, 123936, Note_on_c, 3, 70, 64
6, 124128, Control_c, 3, 11, 127
6, 124137, Control_c, 3, 11, 126
6, 124146, Control_c, 3, 11, 125
6, 124155, Control_c, 3, 11, 124
6, 124164, Control_c, 3, 11, 123
6, 124173, Control_c, 3, 11, 122
6, 124182, Control_c, 3, 11, 121
6, 124192, Control_c, 3, 11, 120
6, 124201, Control_c, 3, 11, 119
6, 124210, Control_c, 3, 11, 118
6, 124219, Control_c, 3, 11, 117
6, 124228, Control_c, 3, 11, 116
6, 124237, Control_c, 3, 11, 115
6, 124246, Control_c, 3, 11, 114
6, 124256, Control_c, 3, 11, 113
6, 124265, Control_c, 3, 11, 112
6, 124274, Control_c, 3, 11, 111
6, 124283, Control_c, 3, 11, 110
6, 124292, Control_c, 3, 11, 109
6, 124301, Control_c, 3, 11, 108
6, 124310, Control_c, 3, 11, 107
6, 124320, Note_on_c, 3, 70, 0
6, 124320, Control_c, 3, 11, 106
6, 124320, Note_on_c, 3, 72, 56
6, 124329, Control_c, 3, 11, 105
6, 124338, Control_c, 3, 11, 104
6, 124347, Control_c, 3, 11, 103
6, 124356, Control_c, 3, 11, 102
6, 124365, Control_c, 3, 11, 101
6, 124374, Control_c, 3, 11, 100
6, 124384, Control_c, 3, 11, 99
6, 124393, Control_c, 3, 11, 98
6, 124402, Control_c, 3, 11, 97
6, 124411, Control_c, 3, 11, 96
6, 124420, Control_c, 3, 11, 95
6, 124429, Control_c, 3, 11, 94
6, 124438, Control_c, 3, 11, 93
6, 124448, Control_c, 3, 11, 92
6, 124457, Control_c, 3, 11, 91
6, 124466, Control_c, 3, 11, 90
6, 124475, Control_c, 3, 11, 89
6, 124484, Control_c, 3, 11, 88
6, 124493, Control_c, 3, 11, 87
6, 124502, Control_c, 3, 11, 86
6, 124512, Control_c, 3, 11, 85
6, 124521, Control_c, 3, 11, 84
6, 124530, Control_c, 3, 11, 83
6, 124539, Control_c, 3, 11, 82
6, 124548, Control_c, 3, 11, 81
6, 124557, Control_c, 3, 11, 80
6, 124566, Control_c, 3, 11, 79
6, 124576, Control_c, 3, 11, 78
6, 124585, Control_c, 3, 11, 77
6, 124594, Control_c, 3, 11, 76
6, 124603, Control_c, 3, 11, 75
6, 124606, Note_on_c, 3, 72, 0
6, 124612, Control_c, 3, 11, 74
6, 124621, Control_c, 3, 11, 73
6, 124630, Control_c, 3, 11, 72
6, 124640, Control_c, 3, 11, 71
6, 124649, Control_c, 3, 11, 70
6, 124658, Control_c, 3, 11, 69
6, 124667, Control_c, 3, 11, 68
6, 124676, Control_c, 3, 11, 67
6, 124685, Control_c, 3, 11, 66
6, 124694, Control_c, 3, 11, 65
6, 124704, Control_c, 3, 11, 64
6, 125280, Control_c, 3, 11, 127
6, 128736, Control_c, 3, 11, 92
6, 128736, Note_on_c, 3, 60, 56
6, 128736, Note_on_c, 3, 64, 64
6, 128752, Control_c, 3, 11, 93
6, 128768, Control_c, 3, 11, 94
6, 128785, Control_c, 3, 11, 95
6, 128801, Control_c, 3, 11, 96
6, 128818, Control_c, 3, 11, 97
6, 128834, Control_c, 3, 11, 98
6, 128851, Control_c, 3, 11, 99
6, 128867, Control_c, 3, 11, 100
6, 128884, Control_c, 3, 11, 101
6, 128900, Control_c, 3, 11, 102
6, 128917, Control_c, 3, 11, 103
6, 128933, Control_c, 3, 11, 104
6, 128949, Control_c, 3, 11, 105
6, 128966, Control_c, 3, 11, 106
6, 128982, Control_c, 3, 11, 107
6, 128999, Control_c, 3, 11, 108
6, 129015, Control_c, 3, 11, 109
6, 129032, Control_c, 3, 11, 110
6, 129048, Control_c, 3, 11, 111
6, 129065, Control_c, 3, 11, 112
6, 129081, Control_c, 3, 11, 113
6, 129098, Control_c, 3, 11, 114
6, 129114, Control_c, 3, 11, 115
6, 129120, Note_on_c, 3, 60, 0
6, 129120, Note_on_c, 3, 64, 0
6, 129120, Note_on_c, 3, 61, 55
6, 129120, Note_on_c, 3, 65, 59
6, 129130, Control_c, 3, 11, 116
6, 129147, Control_c, 3, 11, 117
6, 129163, Control_c, 3, 11, 118
6, 129180, Control_c, 3, 11, 119
6, 129196, Control_c, 3, 11, 120
6, 129213, Control_c, 3, 11, 121
6, 129216, Note_on_c, 3, 61, 0
6, 129216, Note_on_c, 3, 65, 0
6, 129216, Note_on_c, 3, 62, 56
6, 129216, Note_on_c, 3, 66, 64
6, 129229, Control_c, 3, 11, 122
6, 129246, Control_c, 3, 11, 123
6, 129262, Control_c, 3, 11, 124
6, 129279, Control_c, 3, 11, 125
6, 129295, Control_c, 3, 11, 126
6, 129310, Note_on_c, 3, 62, 0
6, 129310, Note_on_c, 3, 66, 0
6, 129312, Control_c, 3, 11, 127
6, 129888, Control_c, 3, 11, 127
6, 129888, End_track
7, 0, Start_track
7, 0, Title_t, "Fagotti I - II - III"
7, 0, MIDI_port, 0
7, 114, Control_c, 4, 0, 0
7, 115, Control_c, 4, 32, 0
7, 116, Program_c, 4, 70
7, 117, Control_c, 4, 7, 127
7, 118, Control_c, 4, 10, 84
7, 119, Control_c, 4, 91, 64
7, 1152, Control_c, 4, 11, 64
7, 1152, Note_on_c, 4, 49, 48
7, 1152, Note_on_c, 4, 56, 45
7, 1161, Control_c, 4, 11, 65
7, 1170, Control_c, 4, 11, 66
7, 1179, Control_c, 4, 11, 67
7, 1188, Control_c, 4, 11, 68
7, 1197, Control_c, 4, 11, 69
7, 1206, Control_c, 4, 11, 70
7, 1216, Control_c, 4, 11, 71
7, 1225, Control_c, 4, 11, 72
7, 1234, Control_c, 4, 11, 73
7, 1243, Control_c, 4, 11, 74
7, 1252, Control_c, 4, 11, 75
7, 1261, Control_c, 4, 11, 76
7, 1270, Control_c, 4, 11, 77
7, 1280, Control_c, 4, 11, 78
7, 1289, Control_c, 4, 11, 79
7, 1298, Control_c, 4, 11, 80
7, 1307, Control_c, 4, 11, 81
7, 1316, Control_c, 4, 11, 82
7, 1325, Control_c, 4, 11, 83
7, 1334, Control_c, 4, 11, 84
7, 1344, Control_c, 4, 11, 85
7, 1353, Control_c, 4, 11, 86
7, 1362, Control_c, 4, 11, 87
7, 1371, Control_c, 4, 11, 88
7, 1380, Control_c, 4, 11, 89
7, 1389, Control_c, 4, 11, 90
7, 1398, Control_c, 4, 11, 91
7, 1408, Control_c, 4, 11, 92
7, 1417, Control_c, 4, 11, 93
7, 1426, Control_c, 4, 11, 94
7, 1435, Control_c, 4, 11, 95
7, 1444, Control_c, 4, 11, 96
7, 1453, Control_c, 4, 11, 97
7, 1462, Control_c, 4, 11, 98
7, 1472, Control_c, 4, 11, 99
7, 1481, Control_c, 4, 11, 100
7, 1490, Control_c, 4, 11, 101
7, 1499, Control_c, 4, 11, 102
7, 1508, Control_c, 4, 11, 103
7, 1517, Control_c, 4, 11, 104
7, 1526, Control_c, 4, 11, 105
7, 1536, Control_c, 4, 11, 106
7, 1545, Control_c, 4, 11, 107
7, 1554, Control_c, 4, 11, 108
7, 1563, Control_c, 4, 11, 109
7, 1572, Control_c, 4, 11, 110
7, 1581, Control_c, 4, 11, 111
7, 1590, Control_c, 4, 11, 112
7, 1600, Control_c, 4, 11, 113
7, 1609, Control_c, 4, 11, 114
7, 1618, Control_c, 4, 11, 115
7, 1627, Control_c, 4, 11, 116
7, 1636, Control_c, 4, 11, 117
7, 1645, Control_c, 4, 11, 118
7, 1654, Control_c, 4, 11, 119
7, 1664, Control_c, 4, 11, 120
7, 1673, Control_c, 4, 11, 121
7, 1682, Control_c, 4, 11, 122
7, 1691, Control_c, 4, 11, 123
7, 1700, Control_c, 4, 11, 124
7, 1709, Control_c, 4, 11, 125
7, 1718, Control_c, 4, 11, 126
7, 1728, Control_c, 4, 11, 127
7, 1744, Control_c, 4, 11, 126
7, 1760, Control_c, 4, 11, 125
7, 1777, Control_c, 4, 11, 124
7, 1793, Control_c, 4, 11, 123
7, 1810, Control_c, 4, 11, 122
7, 1826, Control_c, 4, 11, 121
7, 1843, Control_c, 4, 11, 120
7, 1859, Control_c, 4, 11, 119
7, 1876, Control_c, 4, 11, 118
7, 1892, Control_c, 4, 11, 117
7, 1909, Control_c, 4, 11, 116
7, 1925, Control_c, 4, 11, 115
7, 1941, Control_c, 4, 11, 114
7, 1958, Control_c, 4, 11, 113
7, 1974, Control_c, 4, 11, 112
7, 1991, Control_c, 4, 11, 111
7, 2007, Control_c, 4, 11, 110
7, 2024, Control_c, 4, 11, 109
7, 2040, Control_c, 4, 11, 108
7, 2057, Control_c, 4, 11, 107
7, 2073, Control_c, 4, 11, 106
7, 2090, Control_c, 4, 11, 105
7, 2106, Control_c, 4, 11, 104
7, 2122, Control_c, 4, 11, 103
7, 2139, Control_c, 4, 11, 102
7, 2155, Control_c, 4, 11, 101
7, 2172, Control_c, 4, 11, 100
7, 2188, Control_c, 4, 11, 99
7, 2205, Control_c, 4, 11, 98
7, 2221, Control_c, 4, 11, 97
7, 2238, Control_c, 4, 11, 96
7, 2254, Control_c, 4, 11, 95
7, 2256, Note_on_c, 4, 49, 0
7, 2256, Note_on_c, 4, 56, 0
7, 2271, Control_c, 4, 11, 94
7, 2287, Control_c, 4, 11, 93
7, 2304, Control_c, 4, 11, 92
7, 2304, Control_c, 4, 11, 64
7, 2304, Note_on_c, 4, 49, 46
7, 2304, Note_on_c, 4, 56, 41
7, 2313, Control_c, 4, 11, 65
7, 2322, Control_c, 4, 11, 66
7, 2331, Control_c, 4, 11, 67
7, 2340, Control_c, 4, 11, 68
7, 2349, Control_c, 4, 11, 69
7, 2358, Control_c, 4, 11, 70
7, 2368, Control_c, 4, 11, 71
7, 2377, Control_c, 4, 11, 72
7, 2386, Control_c, 4, 11, 73
7, 2395, Control_c, 4, 11, 74
7, 2404, Control_c, 4, 11, 75
7, 2413, Control_c, 4, 11, 76
7, 2422, Control_c, 4, 11, 77
7, 2432, Control_c, 4, 11, 78
7, 2441, Control_c, 4, 11, 79
7, 2450, Control_c, 4, 11, 80
7, 2459, Control_c, 4, 11, 81
7, 2468, Control_c, 4, 11, 82
7, 2477, Control_c, 4, 11, 83
7, 2486, Control_c, 4, 11, 84
7, 2496, Control_c, 4, 11, 85
7, 2505, Control_c, 4, 11, 86
7, 2514, Control_c, 4, 11, 87
7, 2523, Control_c, 4, 11, 88
7, 2532, Control_c, 4, 11, 89
7, 2541, Control_c, 4, 11, 90
7, 2550, Control_c, 4, 11, 91
7, 2560, Control_c, 4, 11, 92
7, 2569, Control_c, 4, 11, 93
7, 2578, Control_c, 4, 11, 94
7, 2587, Control_c, 4, 11, 95
7, 2596, Control_c, 4, 11, 96
7, 2605, Control_c, 4, 11, 97
7, 2614, Control_c, 4, 11, 98
7, 2624, Control_c, 4, 11, 99
7, 2633, Control_c, 4, 11, 100
7, 2642, Control_c, 4, 11, 101
7, 2651, Control_c, 4, 11, 102
7, 2660, Control_c, 4, 11, 103
7, 2669, Control_c, 4, 11, 104
7, 2678, Control_c, 4, 11, 105
7, 2688, Control_c, 4, 11, 106
7, 2697, Control_c, 4, 11, 107
7, 2706, Control_c, 4, 11, 108
7, 2715, Control_c, 4, 11, 109
7, 2724, Control_c, 4, 11, 110
7, 2733, Control_c, 4, 11, 111
7, 2742, Control_c, 4, 11, 112
7, 2752, Control_c, 4, 11, 113
7, 2761, Control_c, 4, 11, 114
7, 2770, Control_c, 4, 11, 115
7, 2779, Control_c, 4, 11, 116
7, 2788, Control_c, 4, 11, 117
7, 2797, Control_c, 4, 11, 118
7, 2806, Control_c, 4, 11, 119
7, 2816, Control_c, 4, 11, 120
7, 2825, Control_c, 4, 11, 121
7, 2834, Control_c, 4, 11, 122
7, 2843, Control_c, 4, 11, 123
7, 2852, Control_c, 4, 11, 124
7, 2861, Control_c, 4, 11, 125
7, 2870, Control_c, 4, 11, 126
7, 2880, Control_c, 4, 11, 127
7, 2896, Control_c, 4, 11, 126
7, 2912, Control_c, 4, 11, 125
7, 2929, Control_c, 4, 11, 124
7, 2945, Control_c, 4, 11, 123
7, 2962, Control_c, 4, 11, 122
7, 2978, Control_c, 4, 11, 121
7, 2995, Control_c, 4, 11, 120
7, 3011, Control_c, 4, 11, 119
7, 3028, Control_c, 4, 11, 118
7, 3044, Control_c, 4, 11, 117
7, 3061, Control_c, 4, 11, 116
7, 3077, Control_c, 4, 11, 115
7, 3093, Control_c, 4, 11, 114
7, 3110, Control_c, 4, 11, 113
7, 3126, Control_c, 4, 11, 112
7, 3143, Control_c, 4, 11, 111
7, 3159, Control_c, 4, 11, 110
7, 3176, Control_c, 4, 11, 109
7, 3192, Control_c, 4, 11, 108
7, 3209, Control_c, 4, 11, 107
7, 3225, Control_c, 4, 11, 106
7, 3242, Control_c, 4, 11, 105
7, 3258, Control_c, 4, 11, 104
7, 3274, Control_c, 4, 11, 103
7, 3291, Control_c, 4, 11, 102
7, 3307, Control_c, 4, 11, 101
7, 3324, Control_c, 4, 11, 100
7, 3340, Control_c, 4, 11, 99
7, 3357, Control_c, 4, 11, 98
7, 3373, Control_c, 4, 11, 97
7, 3390, Control_c, 4, 11, 96
7, 3406, Control_c, 4, 11, 95
7, 3408, Note_on_c, 4, 49, 0
7, 3408, Note_on_c, 4, 56, 0
7, 3423, Control_c, 4, 11, 94
7, 3439, Control_c, 4, 11, 93
7, 3456, Control_c, 4, 11, 92
7, 4608, Control_c, 4, 11, 127
7, 4608, Note_on_c, 4, 42, 41
7, 4619, Control_c, 4, 11, 126
7, 4630, Control_c, 4, 11, 125
7, 4641, Control_c, 4, 11, 124
7, 4652, Control_c, 4, 11, 123
7, 4663, Control_c, 4, 11, 122
7, 4674, Control_c, 4, 11, 121
7, 4685, Control_c, 4, 11, 120
7, 4696, Control_c, 4, 11, 119
7, 4707, Control_c, 4, 11, 118
7, 4718, Control_c, 4, 11, 117
7, 4729, Control_c, 4, 11, 116
7, 4740, Control_c, 4, 11, 115
7, 4752, Control_c, 4, 11, 114
7, 4763, Control_c, 4, 11, 113
7, 4774, Control_c, 4, 11, 112
7, 4785, Control_c, 4, 11, 111
7, 4796, Control_c, 4, 11, 110
7, 4807, Control_c, 4, 11, 109
7, 4818, Control_c, 4, 11, 108
7, 4829, Control_c, 4, 11, 107
7, 4840, Control_c, 4, 11, 106
7, 4851, Control_c, 4, 11, 105
7, 4862, Control_c, 4, 11, 104
7, 4873, Control_c, 4, 11, 103
7, 4884, Control_c, 4, 11, 102
7, 4896, Control_c, 4, 11, 101
7, 4907, Control_c, 4, 11, 100
7, 4918, Control_c, 4, 11, 99
7, 4929, Control_c, 4, 11, 98
7, 4940, Control_c, 4, 11, 97
7, 4951, Control_c, 4, 11, 96
7, 4962, Control_c, 4, 11, 95
7, 4973, Control_c, 4, 11, 94
7, 4984, Control_c, 4, 11, 93
7, 4992, Note_on_c, 4, 42, 0
7, 4992, Note_on_c, 4, 48, 48
7, 4995, Control_c, 4, 11, 92
7, 5006, Control_c, 4, 11, 91
7, 5017, Control_c, 4, 11, 90
7, 5028, Control_c, 4, 11, 89
7, 5040, Control_c, 4, 11, 88
7, 5051, Control_c, 4, 11, 87
7, 5062, Control_c, 4, 11, 86
7, 5073, Control_c, 4, 11, 85
7, 5084, Control_c, 4, 11, 84
7, 5095, Control_c, 4, 11, 83
7, 5106, Control_c, 4, 11, 82
7, 5117, Control_c, 4, 11, 81
7, 5128, Control_c, 4, 11, 80
7, 5139, Control_c, 4, 11, 79
7, 5150, Control_c, 4, 11, 78
7, 5161, Control_c, 4, 11, 77
7, 5172, Control_c, 4, 11, 76
7, 5184, Note_on_c, 4, 48, 0
7, 5184, Control_c, 4, 11, 75
7, 5184, Note_on_c, 4, 36, 47
7, 5184, Note_on_c, 4, 48, 48
7, 5344, Note_on_c, 4, 48, 0
7, 5520, Note_on_c, 4, 36, 0
7, 10656, Note_on_c, 4, 70, 49
7, 10750, Note_on_c, 4, 70, 0
7, 10752, Note_on_c, 4, 68, 48
7, 10846, Note_on_c, 4, 68, 0
7, 10848, Note_on_c, 4, 66, 47
7, 11038, Note_on_c, 4, 66, 0
7, 11040, Note_on_c, 4, 65, 47
7, 11134, Note_on_c, 4, 65, 0
7, 11136, Note_on_c, 4, 63, 45
7, 11230, Note_on_c, 4, 63, 0
7, 15840, Control_c, 4, 11, 92
7, 15840, Note_on_c, 4, 60, 57
7, 15840, Note_on_c, 4, 64, 61
7, 15845, Control_c, 4, 11, 93
7, 15850, Control_c, 4, 11, 94
7, 15856, Control_c, 4, 11, 95
7, 15861, Control_c, 4, 11, 96
7, 15867, Control_c, 4, 11, 97
7, 15872, Control_c, 4, 11, 98
7, 15878, Control_c, 4, 11, 99
7, 15883, Control_c, 4, 11, 100
7, 15889, Control_c, 4, 11, 101
7, 15894, Control_c, 4, 11, 102
7, 15900, Control_c, 4, 11, 103
7, 15905, Control_c, 4, 11, 104
7, 15911, Control_c, 4, 11, 105
7, 15916, Control_c, 4, 11, 106
7, 15922, Control_c, 4, 11, 107
7, 15927, Control_c, 4, 11, 108
7, 15933, Control_c, 4, 11, 109
7, 15938, Control_c, 4, 11, 110
7, 15944, Control_c, 4, 11, 111
7, 15949, Control_c, 4, 11, 112
7, 15955, Control_c, 4, 11, 113
7, 15960, Control_c, 4, 11, 114
7, 15966, Control_c, 4, 11, 115
7, 15971, Control_c, 4, 11, 116
7, 15977, Control_c, 4, 11, 117
7, 15982, Control_c, 4, 11, 118
7, 15988, Control_c, 4, 11, 119
7, 15993, Control_c, 4, 11, 120
7, 15999, Control_c, 4, 11, 121
7, 16004, Control_c, 4, 11, 122
7, 16010, Control_c, 4, 11, 123
7, 16015, Control_c, 4, 11, 124
7, 16021, Control_c, 4, 11, 125
7, 16026, Control_c, 4, 11, 126
7, 16032, Control_c, 4, 11, 127
7, 16368, Note_on_c, 4, 60, 0
7, 16368, Note_on_c, 4, 64, 0
7, 16416, Control_c, 4, 11, 92
7, 16416, Note_on_c, 4, 60, 63
7, 16416, Note_on_c, 4, 64, 55
7, 16421, Control_c, 4, 11, 93
7, 16426, Control_c, 4, 11, 94
7, 16432, Control_c, 4, 11, 95
7, 16437, Control_c, 4, 11, 96
7, 16443, Control_c, 4, 11, 97
7, 16448, Control_c, 4, 11, 98
7, 16454, Control_c, 4, 11, 99
7, 16459, Control_c, 4, 11, 100
7, 16465, Control_c, 4, 11, 101
7, 16470, Control_c, 4, 11, 102
7, 16476, Control_c, 4, 11, 103
7, 16481, Control_c, 4, 11, 104
7, 16487, Control_c, 4, 11, 105
7, 16492, Control_c, 4, 11, 106
7, 16498, Control_c, 4, 11, 107
7, 16503, Control_c, 4, 11, 108
7, 16509, Control_c, 4, 11, 109
7, 16514, Control_c, 4, 11, 110
7, 16520, Control_c, 4, 11, 111
7, 16525, Control_c, 4, 11, 112
7, 16531, Control_c, 4, 11, 113
7, 16536, Control_c, 4, 11, 114
7, 16542, Control_c, 4, 11, 115
7, 16547, Control_c, 4, 11, 116
7, 16553, Control_c, 4, 11, 117
7, 16558, Control_c, 4, 11, 118
7, 16564, Control_c, 4, 11, 119
7, 16569, Control_c, 4, 11, 120
7, 16575, Control_c, 4, 11, 121
7, 16580, Control_c, 4, 11, 122
7, 16586, Control_c, 4, 11, 123
7, 16591, Control_c, 4, 11, 124
7, 16597, Control_c, 4, 11, 125
7, 16602, Control_c, 4, 11, 126
7, 16608, Control_c, 4, 11, 127
7, 16944, Note_on_c, 4, 60, 0
7, 16944, Note_on_c, 4, 64, 0
7, 16992, Note_on_c, 4, 60, 44
7, 17184, Note_on_c, 4, 60, 0
7, 17184, Note_on_c, 4, 59, 50
7, 17376, Note_on_c, 4, 59, 0
7, 17376, Note_on_c, 4, 56, 43
7, 17568, Note_on_c, 4, 56, 0
7, 17568, Note_on_c, 4, 55, 43
7, 17760, Note_on_c, 4, 55, 0
7, 17760, Note_on_c, 4, 56, 48
7, 17952, Note_on_c, 4, 56, 0
7, 17952, Note_on_c, 4, 59, 46
7, 18112, Note_on_c, 4, 59, 0
7, 18144, Control_c, 4, 7, 127
7, 19296, Control_c, 4, 11, 92
7, 19296, Note_on_c, 4, 59, 55
7, 19328, Control_c, 4, 11, 93
7, 19361, Control_c, 4, 11, 94
7, 19394, Control_c, 4, 11, 95
7, 19427, Control_c, 4, 11, 96
7, 19460, Control_c, 4, 11, 97
7, 19493, Control_c, 4, 11, 98
7, 19526, Control_c, 4, 11, 99
7, 19559, Control_c, 4, 11, 100
7, 19592, Control_c, 4, 11, 101
7, 19625, Control_c, 4, 11, 102
7, 19658, Control_c, 4, 11, 103
7, 19690, Control_c, 4, 11, 104
7, 19723, Control_c, 4, 11, 105
7, 19756, Control_c, 4, 11, 106
7, 19789, Control_c, 4, 11, 107
7, 19822, Control_c, 4, 11, 108
7, 19855, Control_c, 4, 11, 109
7, 19872, Note_on_c, 4, 59, 0
7, 19872, Note_on_c, 4, 58, 59
7, 19872, Note_on_c, 4, 62, 62
7, 19888, Control_c, 4, 11, 110
7, 19921, Control_c, 4, 11, 111
7, 19954, Control_c, 4, 11, 112
7, 19987, Control_c, 4, 11, 113
7, 20020, Control_c, 4, 11, 114
7, 20053, Control_c, 4, 11, 115
7, 20064, Note_on_c, 4, 58, 0
7, 20064, Note_on_c, 4, 59, 62
7, 20085, Control_c, 4, 11, 116
7, 20118, Control_c, 4, 11, 117
7, 20151, Control_c, 4, 11, 118
7, 20184, Control_c, 4, 11, 119
7, 20217, Control_c, 4, 11, 120
7, 20250, Control_c, 4, 11, 121
7, 20256, Note_on_c, 4, 59, 0
7, 20256, Note_on_c, 4, 60, 58
7, 20283, Control_c, 4, 11, 122
7, 20316, Control_c, 4, 11, 123
7, 20349, Control_c, 4, 11, 124
7, 20382, Control_c, 4, 11, 125
7, 20400, Note_on_c, 4, 62, 0
7, 20415, Control_c, 4, 11, 126
7, 20416, Note_on_c, 4, 60, 0
7, 20448, Control_c, 4, 11, 127
7, 25056, Note_on_c, 4, 59, 46
7, 25150, Note_on_c, 4, 59, 0
7, 25152, Note_on_c, 4, 61, 49
7, 25182, Note_on_c, 4, 61, 0
7, 25184, Note_on_c, 4, 59, 49
7, 25214, Note_on_c, 4, 59, 0
7, 25216, Note_on_c, 4, 61, 41
7, 25246, Note_on_c, 4, 61, 0
7, 25248, Note_on_c, 4, 59, 47
7, 25278, Note_on_c, 4, 59, 0
7, 25280, Note_on_c, 4, 61, 47
7, 25310, Note_on_c, 4, 61, 0
7, 25312, Note_on_c, 4, 59, 40
7, 25342, Note_on_c, 4, 59, 0
7, 25344, Note_on_c, 4, 61, 44
7, 25374, Note_on_c, 4, 61, 0
7, 25376, Note_on_c, 4, 59, 47
7, 25406, Note_on_c, 4, 59, 0
7, 25408, Note_on_c, 4, 61, 46
7, 25438, Note_on_c, 4, 61, 0
7, 25440, Note_on_c, 4, 59, 43
7, 25470, Note_on_c, 4, 59, 0
7, 25472, Note_on_c, 4, 61, 42
7, 25502, Note_on_c, 4, 61, 0
7, 25504, Note_on_c, 4, 59, 41
7, 25534, Note_on_c, 4, 59, 0
7, 25536, Note_on_c, 4, 61, 45
7, 25566, Note_on_c, 4, 61, 0
7, 25568, Note_on_c, 4, 59, 46
7, 25598, Note_on_c, 4, 59, 0
7, 25600, Note_on_c, 4, 61, 49
7, 25630, Note_on_c, 4, 61, 0
7, 25632, Note_on_c, 4, 59, 48
7, 25662, Note_on_c, 4, 59, 0
7, 25664, Note_on_c, 4, 61, 46
7, 25694, Note_on_c, 4, 61, 0
7, 25696, Note_on_c, 4, 59, 49
7, 25726, Note_on_c, 4, 59, 0
7, 25728, Note_on_c, 4, 61, 55
7, 25758, Note_on_c, 4, 61, 0
7, 25760, Note_on_c, 4, 59, 53
7, 25790, Note_on_c, 4, 59, 0
7, 25792, Note_on_c, 4, 61, 53
7, 25822, Note_on_c, 4, 61, 0
7, 25824, Note_on_c, 4, 59, 52
7, 25854, Note_on_c, 4, 59, 0
7, 25856, Note_on_c, 4, 61, 55
7, 25886, Note_on_c, 4, 61, 0
7, 25888, Note_on_c, 4, 59, 53
7, 25918, Note_on_c, 4, 59, 0
7, 25920, Note_on_c, 4, 61, 56
7, 25950, Note_on_c, 4, 61, 0
7, 25952, Note_on_c, 4, 59, 58
7, 25982, Note_on_c, 4, 59, 0
7, 25984, Note_on_c, 4, 61, 54
7, 26014, Note_on_c, 4, 61, 0
7, 26016, Note_on_c, 4, 57, 59
7, 26046, Note_on_c, 4, 57, 0
7, 26048, Note_on_c, 4, 59, 63
7, 26078, Note_on_c, 4, 59, 0
7, 26080, Note_on_c, 4, 57, 57
7, 26110, Note_on_c, 4, 57, 0
7, 26112, Note_on_c, 4, 54, 59
7, 26142, Note_on_c, 4, 54, 0
7, 26144, Note_on_c, 4, 56, 53
7, 26174, Note_on_c, 4, 56, 0
7, 26176, Note_on_c, 4, 54, 53
7, 26206, Note_on_c, 4, 54, 0
7, 26208, Note_on_c, 4, 51, 43
7, 26302, Note_on_c, 4, 51, 0
7, 30240, Control_c, 4, 11, 127
7, 30816, Note_on_c, 4, 53, 49
7, 30816, Note_on_c, 4, 55, 48
7, 31728, Note_on_c, 4, 53, 0
7, 31728, Note_on_c, 4, 55, 0
7, 33120, Note_on_c, 4, 44, 96
7, 33406, Note_on_c, 4, 44, 0
7, 33696, Control_c, 4, 7, 92
7, 33792, Note_on_c, 4, 51, 87
7, 33792, Note_on_c, 4, 58, 91
7, 33822, Note_on_c, 4, 51, 0
7, 33822, Note_on_c, 4, 58, 0
7, 33824, Note_on_c, 4, 54, 90
7, 33824, Note_on_c, 4, 61, 97
7, 33854, Note_on_c, 4, 54, 0
7, 33854, Note_on_c, 4, 61, 0
7, 33856, Note_on_c, 4, 56, 95
7, 33856, Note_on_c, 4, 63, 88
7, 33886, Note_on_c, 4, 56, 0
7, 33886, Note_on_c, 4, 63, 0
7, 33888, Note_on_c, 4, 61, 93
7, 33888, Note_on_c, 4, 66, 89
7, 33920, Note_on_c, 4, 61, 0
7, 33920, Note_on_c, 4, 66, 0
7, 33984, Note_on_c, 4, 51, 92
7, 33984, Note_on_c, 4, 58, 89
7, 34014, Note_on_c, 4, 51, 0
7, 34014, Note_on_c, 4, 58, 0
7, 34016, Note_on_c, 4, 54, 88
7, 34016, Note_on_c, 4, 61, 89
7, 34046, Note_on_c, 4, 54, 0
7, 34046, Note_on_c, 4, 61, 0
7, 34048, Note_on_c, 4, 56, 87
7, 34048, Note_on_c, 4, 63, 95
7, 34078, Note_on_c, 4, 56, 0
7, 34078, Note_on_c, 4, 63, 0
7, 34080, Note_on_c, 4, 61, 93
7, 34080, Note_on_c, 4, 66, 90
7, 34112, Note_on_c, 4, 61, 0
7, 34112, Note_on_c, 4, 66, 0
7, 34176, Note_on_c, 4, 58, 91
7, 34176, Note_on_c, 4, 63, 92
7, 34206, Note_on_c, 4, 58, 0
7, 34206, Note_on_c, 4, 63, 0
7, 34208, Note_on_c, 4, 61, 90
7, 34208, Note_on_c, 4, 66, 89
7, 34238, Note_on_c, 4, 61, 0
7, 34238, Note_on_c, 4, 66, 0
7, 34240, Note_on_c, 4, 63, 94
7, 34240, Note_on_c, 4, 68, 92
7, 34270, Note_on_c, 4, 63, 0
7, 34270, Note_on_c, 4, 68, 0
7, 34272, Note_on_c, 4, 65, 87
7, 34366, Note_on_c, 4, 65, 0
7, 35808, Note_on_c, 4, 54, 47
7, 35830, Note_on_c, 4, 54, 0
7, 35832, Note_on_c, 4, 56, 50
7, 35854, Note_on_c, 4, 56, 0
7, 35856, Note_on_c, 4, 58, 44
7, 35878, Note_on_c, 4, 58, 0
7, 35880, Note_on_c, 4, 60, 46
7, 35902, Note_on_c, 4, 60, 0
7, 35904, Note_on_c, 4, 61, 35
7, 35926, Note_on_c, 4, 61, 0
7, 35928, Note_on_c, 4, 63, 35
7, 35950, Note_on_c, 4, 63, 0
7, 35952, Note_on_c, 4, 65, 39
7, 35974, Note_on_c, 4, 65, 0
7, 35976, Note_on_c, 4, 66, 29
7, 35998, Note_on_c, 4, 66, 0
7, 36576, Control_c, 4, 7, 127
7, 38880, Control_c, 4, 11, 75
7, 38880, Note_on_c, 4, 54, 62
7, 38880, Note_on_c, 4, 60, 59
7, 38912, Note_on_c, 4, 54, 0
7, 38912, Note_on_c, 4, 60, 0
7, 38928, Note_on_c, 4, 54, 59
7, 38928, Note_on_c, 4, 60, 55
7, 38976, Note_on_c, 4, 54, 0
7, 38976, Note_on_c, 4, 60, 0
7, 39072, Control_c, 4, 11, 75
7, 39072, Note_on_c, 4, 54, 63
7, 39072, Note_on_c, 4, 60, 59
7, 39077, Control_c, 4, 11, 76
7, 39083, Control_c, 4, 11, 77
7, 39088, Control_c, 4, 11, 78
7, 39094, Control_c, 4, 11, 79
7, 39099, Control_c, 4, 11, 80
7, 39105, Control_c, 4, 11, 81
7, 39110, Control_c, 4, 11, 82
7, 39116, Control_c, 4, 11, 83
7, 39121, Control_c, 4, 11, 84
7, 39127, Control_c, 4, 11, 85
7, 39132, Control_c, 4, 11, 86
7, 39138, Control_c, 4, 11, 87
7, 39144, Control_c, 4, 11, 88
7, 39149, Control_c, 4, 11, 89
7, 39155, Control_c, 4, 11, 90
7, 39160, Control_c, 4, 11, 91
7, 39166, Control_c, 4, 11, 92
7, 39171, Control_c, 4, 11, 93
7, 39177, Control_c, 4, 11, 94
7, 39182, Control_c, 4, 11, 95
7, 39188, Control_c, 4, 11, 96
7, 39193, Control_c, 4, 11, 97
7, 39199, Control_c, 4, 11, 98
7, 39204, Control_c, 4, 11, 99
7, 39210, Control_c, 4, 11, 100
7, 39216, Control_c, 4, 11, 101
7, 39221, Control_c, 4, 11, 102
7, 39227, Control_c, 4, 11, 103
7, 39232, Control_c, 4, 11, 104
7, 39238, Control_c, 4, 11, 105
7, 39243, Control_c, 4, 11, 106
7, 39249, Control_c, 4, 11, 107
7, 39254, Control_c, 4, 11, 108
7, 39260, Control_c, 4, 11, 109
7, 39265, Control_c, 4, 11, 110
7, 39271, Control_c, 4, 11, 111
7, 39276, Control_c, 4, 11, 112
7, 39282, Control_c, 4, 11, 113
7, 39288, Control_c, 4, 11, 114
7, 39293, Control_c, 4, 11, 115
7, 39299, Control_c, 4, 11, 116
7, 39304, Control_c, 4, 11, 117
7, 39310, Control_c, 4, 11, 118
7, 39315, Control_c, 4, 11, 119
7, 39321, Control_c, 4, 11, 120
7, 39326, Control_c, 4, 11, 121
7, 39332, Control_c, 4, 11, 122
7, 39337, Control_c, 4, 11, 123
7, 39343, Control_c, 4, 11, 124
7, 39348, Control_c, 4, 11, 125
7, 39354, Control_c, 4, 11, 126
7, 39360, Note_on_c, 4, 54, 0
7, 39360, Note_on_c, 4, 60, 0
7, 39360, Control_c, 4, 11, 127
7, 39360, Note_on_c, 4, 54, 57
7, 39360, Note_on_c, 4, 60, 57
7, 39392, Note_on_c, 4, 54, 0
7, 39392, Note_on_c, 4, 60, 0
7, 39456, Control_c, 4, 11, 75
7, 39456, Note_on_c, 4, 54, 62
7, 39456, Note_on_c, 4, 60, 58
7, 39488, Note_on_c, 4, 54, 0
7, 39488, Note_on_c, 4, 60, 0
7, 39504, Note_on_c, 4, 54, 58
7, 39504, Note_on_c, 4, 60, 61
7, 39552, Note_on_c, 4, 54, 0
7, 39552, Note_on_c, 4, 60, 0
7, 39648, Control_c, 4, 11, 75
7, 39648, Note_on_c, 4, 54, 61
7, 39648, Note_on_c, 4, 60, 59
7, 39653, Control_c, 4, 11, 76
7, 39659, Control_c, 4, 11, 77
7, 39664, Control_c, 4, 11, 78
7, 39670, Control_c, 4, 11, 79
7, 39675, Control_c, 4, 11, 80
7, 39681, Control_c, 4, 11, 81
7, 39686, Control_c, 4, 11, 82
7, 39692, Control_c, 4, 11, 83
7, 39697, Control_c, 4, 11, 84
7, 39703, Control_c, 4, 11, 85
7, 39708, Control_c, 4, 11, 86
7, 39714, Control_c, 4, 11, 87
7, 39720, Control_c, 4, 11, 88
7, 39725, Control_c, 4, 11, 89
7, 39731, Control_c, 4, 11, 90
7, 39736, Control_c, 4, 11, 91
7, 39742, Control_c, 4, 11, 92
7, 39747, Control_c, 4, 11, 93
7, 39753, Control_c, 4, 11, 94
7, 39758, Control_c, 4, 11, 95
7, 39764, Control_c, 4, 11, 96
7, 39769, Control_c, 4, 11, 97
7, 39775, Control_c, 4, 11, 98
7, 39780, Control_c, 4, 11, 99
7, 39786, Control_c, 4, 11, 100
7, 39792, Control_c, 4, 11, 101
7, 39797, Control_c, 4, 11, 102
7, 39803, Control_c, 4, 11, 103
7, 39808, Control_c, 4, 11, 104
7, 39814, Control_c, 4, 11, 105
7, 39819, Control_c, 4, 11, 106
7, 39825, Control_c, 4, 11, 107
7, 39830, Control_c, 4, 11, 108
7, 39836, Control_c, 4, 11, 109
7, 39841, Control_c, 4, 11, 110
7, 39847, Control_c, 4, 11, 111
7, 39852, Control_c, 4, 11, 112
7, 39858, Control_c, 4, 11, 113
7, 39864, Control_c, 4, 11, 114
7, 39869, Control_c, 4, 11, 115
7, 39875, Control_c, 4, 11, 116
7, 39880, Control_c, 4, 11, 117
7, 39886, Control_c, 4, 11, 118
7, 39891, Control_c, 4, 11, 119
7, 39897, Control_c, 4, 11, 120
7, 39902, Control_c, 4, 11, 121
7, 39908, Control_c, 4, 11, 122
7, 39913, Control_c, 4, 11, 123
7, 39919, Control_c, 4, 11, 124
7, 39924, Control_c, 4, 11, 125
7, 39930, Control_c, 4, 11, 126
7, 39936, Note_on_c, 4, 54, 0
7, 39936, Note_on_c, 4, 60, 0
7, 39936, Control_c, 4, 11, 127
7, 39936, Note_on_c, 4, 54, 65
7, 39936, Note_on_c, 4, 60, 58
7, 39968, Note_on_c, 4, 54, 0
7, 39968, Note_on_c, 4, 60, 0
7, 42336, Note_on_c, 4, 56, 44
7, 42336, Note_on_c, 4, 60, 40
7, 42368, Note_on_c, 4, 56, 0
7, 42368, Note_on_c, 4, 60, 0
7, 42432, Note_on_c, 4, 56, 49
7, 42432, Note_on_c, 4, 60, 42
7, 42453, Note_on_c, 4, 56, 0
7, 42453, Note_on_c, 4, 60, 0
7, 42464, Note_on_c, 4, 56, 42
7, 42464, Note_on_c, 4, 60, 44
7, 42485, Note_on_c, 4, 56, 0
7, 42485, Note_on_c, 4, 60, 0
7, 42496, Note_on_c, 4, 56, 48
7, 42496, Note_on_c, 4, 60, 40
7, 42517, Note_on_c, 4, 56, 0
7, 42517, Note_on_c, 4, 60, 0
7, 42528, Note_on_c, 4, 56, 43
7, 42528, Note_on_c, 4, 60, 45
7, 42560, Note_on_c, 4, 56, 0
7, 42560, Note_on_c, 4, 60, 0
7, 42624, Note_on_c, 4, 56, 41
7, 42624, Note_on_c, 4, 60, 40
7, 42645, Note_on_c, 4, 56, 0
7, 42645, Note_on_c, 4, 60, 0
7, 42656, Note_on_c, 4, 56, 48
7, 42656, Note_on_c, 4, 60, 46
7, 42677, Note_on_c, 4, 56, 0
7, 42677, Note_on_c, 4, 60, 0
7, 42688, Note_on_c, 4, 56, 40
7, 42688, Note_on_c, 4, 60, 48
7, 42709, Note_on_c, 4, 56, 0
7, 42709, Note_on_c, 4, 60, 0
7, 42720, Note_on_c, 4, 56, 48
7, 42720, Note_on_c, 4, 60, 45
7, 42741, Note_on_c, 4, 56, 0
7, 42741, Note_on_c, 4, 60, 0
7, 42752, Note_on_c, 4, 56, 43
7, 42752, Note_on_c, 4, 60, 47
7, 42773, Note_on_c, 4, 56, 0
7, 42773, Note_on_c, 4, 60, 0
7, 42784, Note_on_c, 4, 56, 44
7, 42784, Note_on_c, 4, 60, 50
7, 42805, Note_on_c, 4, 56, 0
7, 42805, Note_on_c, 4, 60, 0
7, 42816, Note_on_c, 4, 56, 44
7, 42816, Note_on_c, 4, 60, 42
7, 42837, Note_on_c, 4, 56, 0
7, 42837, Note_on_c, 4, 60, 0
7, 42848, Note_on_c, 4, 56, 47
7, 42848, Note_on_c, 4, 60, 41
7, 42869, Note_on_c, 4, 56, 0
7, 42869, Note_on_c, 4, 60, 0
7, 42880, Note_on_c, 4, 56, 46
7, 42880, Note_on_c, 4, 60, 44
7, 42901, Note_on_c, 4, 56, 0
7, 42901, Note_on_c, 4, 60, 0
7, 42912, Note_on_c, 4, 56, 44
7, 42912, Note_on_c, 4, 60, 48
7, 42944, Note_on_c, 4, 56, 0
7, 42944, Note_on_c, 4, 60, 0
7, 43008, Note_on_c, 4, 56, 48
7, 43008, Note_on_c, 4, 60, 46
7, 43029, Note_on_c, 4, 56, 0
7, 43029, Note_on_c, 4, 60, 0
7, 43040, Note_on_c, 4, 56, 48
7, 43040, Note_on_c, 4, 60, 49
7, 43061, Note_on_c, 4, 56, 0
7, 43061, Note_on_c, 4, 60, 0
7, 43072, Note_on_c, 4, 56, 43
7, 43072, Note_on_c, 4, 60, 45
7, 43093, Note_on_c, 4, 56, 0
7, 43093, Note_on_c, 4, 60, 0
7, 43104, Note_on_c, 4, 56, 46
7, 43104, Note_on_c, 4, 60, 43
7, 43136, Note_on_c, 4, 56, 0
7, 43136, Note_on_c, 4, 60, 0
7, 43200, Note_on_c, 4, 56, 49
7, 43200, Note_on_c, 4, 60, 49
7, 43221, Note_on_c, 4, 56, 0
7, 43221, Note_on_c, 4, 60, 0
7, 43232, Note_on_c, 4, 56, 49
7, 43232, Note_on_c, 4, 60, 40
7, 43253, Note_on_c, 4, 56, 0
7, 43253, Note_on_c, 4, 60, 0
7, 43264, Note_on_c, 4, 56, 45
7, 43264, Note_on_c, 4, 60, 44
7, 43285, Note_on_c, 4, 56, 0
7, 43285, Note_on_c, 4, 60, 0
7, 43296, Note_on_c, 4, 56, 50
7, 43296, Note_on_c, 4, 60, 45
7, 43317, Note_on_c, 4, 56, 0
7, 43317, Note_on_c, 4, 60, 0
7, 43328, Note_on_c, 4, 56, 42
7, 43328, Note_on_c, 4, 60, 44
7, 43349, Note_on_c, 4, 56, 0
7, 43349, Note_on_c, 4, 60, 0
7, 43360, Note_on_c, 4, 56, 46
7, 43360, Note_on_c, 4, 60, 41
7, 43381, Note_on_c, 4, 56, 0
7, 43381, Note_on_c, 4, 60, 0
7, 43392, Note_on_c, 4, 56, 40
7, 43392, Note_on_c, 4, 60, 50
7, 43413, Note_on_c, 4, 56, 0
7, 43413, Note_on_c, 4, 60, 0
7, 43424, Note_on_c, 4, 56, 47
7, 43424, Note_on_c, 4, 60, 49
7, 43445, Note_on_c, 4, 56, 0
7, 43445, Note_on_c, 4, 60, 0
7, 43456, Note_on_c, 4, 56, 50
7, 43456, Note_on_c, 4, 60, 45
7, 43477, Note_on_c, 4, 56, 0
7, 43477, Note_on_c, 4, 60, 0
7, 43680, Control_c, 4, 11, 92
7, 43680, Note_on_c, 4, 52, 57
7, 43685, Control_c, 4, 11, 93
7, 43690, Control_c, 4, 11, 94
7, 43696, Control_c, 4, 11, 95
7, 43701, Control_c, 4, 11, 96
7, 43707, Control_c, 4, 11, 97
7, 43712, Control_c, 4, 11, 98
7, 43718, Control_c, 4, 11, 99
7, 43723, Control_c, 4, 11, 100
7, 43729, Control_c, 4, 11, 101
7, 43734, Control_c, 4, 11, 102
7, 43740, Control_c, 4, 11, 103
7, 43745, Control_c, 4, 11, 104
7, 43751, Control_c, 4, 11, 105
7, 43756, Control_c, 4, 11, 106
7, 43762, Control_c, 4, 11, 107
7, 43767, Control_c, 4, 11, 108
7, 43773, Control_c, 4, 11, 109
7, 43778, Control_c, 4, 11, 110
7, 43784, Control_c, 4, 11, 111
7, 43789, Control_c, 4, 11, 112
7, 43795, Control_c, 4, 11, 113
7, 43800, Control_c, 4, 11, 114
7, 43806, Control_c, 4, 11, 115
7, 43811, Control_c, 4, 11, 116
7, 43817, Control_c, 4, 11, 117
7, 43822, Control_c, 4, 11, 118
7, 43828, Control_c, 4, 11, 119
7, 43833, Control_c, 4, 11, 120
7, 43839, Control_c, 4, 11, 121
7, 43844, Control_c, 4, 11, 122
7, 43850, Control_c, 4, 11, 123
7, 43855, Control_c, 4, 11, 124
7, 43861, Control_c, 4, 11, 125
7, 43866, Control_c, 4, 11, 126
7, 43872, Note_on_c, 4, 52, 0
7, 43872, Control_c, 4, 11, 127
7, 43872, Note_on_c, 4, 56, 59
7, 43966, Note_on_c, 4, 56, 0
7, 44256, Control_c, 4, 11, 92
7, 44256, Note_on_c, 4, 52, 59
7, 44261, Control_c, 4, 11, 93
7, 44266, Control_c, 4, 11, 94
7, 44272, Control_c, 4, 11, 95
7, 44277, Control_c, 4, 11, 96
7, 44283, Control_c, 4, 11, 97
7, 44288, Control_c, 4, 11, 98
7, 44294, Control_c, 4, 11, 99
7, 44299, Control_c, 4, 11, 100
7, 44305, Control_c, 4, 11, 101
7, 44310, Control_c, 4, 11, 102
7, 44316, Control_c, 4, 11, 103
7, 44321, Control_c, 4, 11, 104
7, 44327, Control_c, 4, 11, 105
7, 44332, Control_c, 4, 11, 106
7, 44338, Control_c, 4, 11, 107
7, 44343, Control_c, 4, 11, 108
7, 44349, Control_c, 4, 11, 109
7, 44354, Control_c, 4, 11, 110
7, 44360, Control_c, 4, 11, 111
7, 44365, Control_c, 4, 11, 112
7, 44371, Control_c, 4, 11, 113
7, 44376, Control_c, 4, 11, 114
7, 44382, Control_c, 4, 11, 115
7, 44387, Control_c, 4, 11, 116
7, 44393, Control_c, 4, 11, 117
7, 44398, Control_c, 4, 11, 118
7, 44404, Control_c, 4, 11, 119
7, 44409, Control_c, 4, 11, 120
7, 44415, Control_c, 4, 11, 121
7, 44420, Control_c, 4, 11, 122
7, 44426, Control_c, 4, 11, 123
7, 44431, Control_c, 4, 11, 124
7, 44437, Control_c, 4, 11, 125
7, 44442, Control_c, 4, 11, 126
7, 44448, Note_on_c, 4, 52, 0
7, 44448, Control_c, 4, 11, 127
7, 44448, Note_on_c, 4, 56, 58
7, 44542, Note_on_c, 4, 56, 0
7, 45216, Note_on_c, 4, 53, 79
7, 45237, Note_on_c, 4, 53, 0
7, 45248, Note_on_c, 4, 53, 74
7, 45269, Note_on_c, 4, 53, 0
7, 45280, Note_on_c, 4, 53, 72
7, 45301, Note_on_c, 4, 53, 0
7, 45312, Note_on_c, 4, 56, 73
7, 45333, Note_on_c, 4, 56, 0
7, 45344, Note_on_c, 4, 56, 82
7, 45365, Note_on_c, 4, 56, 0
7, 45376, Note_on_c, 4, 56, 75
7, 45397, Note_on_c, 4, 56, 0
7, 45408, Note_on_c, 4, 58, 75
7, 45429, Note_on_c, 4, 58, 0
7, 45440, Note_on_c, 4, 58, 81
7, 45461, Note_on_c, 4, 58, 0
7, 45472, Note_on_c, 4, 58, 81
7, 45493, Note_on_c, 4, 58, 0
7, 45504, Note_on_c, 4, 62, 79
7, 45525, Note_on_c, 4, 62, 0
7, 45536, Note_on_c, 4, 62, 86
7, 45557, Note_on_c, 4, 62, 0
7, 45568, Note_on_c, 4, 62, 89
7, 45589, Note_on_c, 4, 62, 0
7, 45600, Note_on_c, 4, 65, 81
7, 45621, Note_on_c, 4, 65, 0
7, 45632, Note_on_c, 4, 65, 92
7, 45653, Note_on_c, 4, 65, 0
7, 45664, Note_on_c, 4, 65, 93
7, 45685, Note_on_c, 4, 65, 0
7, 45696, Note_on_c, 4, 68, 85
7, 45717, Note_on_c, 4, 68, 0
7, 45728, Note_on_c, 4, 68, 95
7, 45749, Note_on_c, 4, 68, 0
7, 45760, Note_on_c, 4, 68, 89
7, 45781, Note_on_c, 4, 68, 0
7, 45792, Note_on_c, 4, 69, 31
7, 45824, Note_on_c, 4, 69, 0
7, 50400, Control_c, 4, 11, 127
7, 57312, Note_on_c, 4, 61, 64
7, 57312, Note_on_c, 4, 62, 62
7, 57888, Note_on_c, 4, 62, 0
7, 57888, Note_on_c, 4, 64, 65
7, 58416, Note_on_c, 4, 61, 0
7, 58416, Note_on_c, 4, 64, 0
7, 58464, Control_c, 4, 11, 92
7, 58464, Note_on_c, 4, 61, 93
7, 58464, Note_on_c, 4, 62, 89
7, 58480, Control_c, 4, 11, 93
7, 58496, Control_c, 4, 11, 94
7, 58513, Control_c, 4, 11, 95
7, 58529, Control_c, 4, 11, 96
7, 58546, Control_c, 4, 11, 97
7, 58562, Control_c, 4, 11, 98
7, 58579, Control_c, 4, 11, 99
7, 58595, Control_c, 4, 11, 100
7, 58612, Control_c, 4, 11, 101
7, 58628, Control_c, 4, 11, 102
7, 58645, Control_c, 4, 11, 103
7, 58661, Control_c, 4, 11, 104
7, 58677, Control_c, 4, 11, 105
7, 58694, Control_c, 4, 11, 106
7, 58710, Control_c, 4, 11, 107
7, 58727, Control_c, 4, 11, 108
7, 58743, Control_c, 4, 11, 109
7, 58760, Control_c, 4, 11, 110
7, 58776, Control_c, 4, 11, 111
7, 58793, Control_c, 4, 11, 112
7, 58809, Control_c, 4, 11, 113
7, 58826, Control_c, 4, 11, 114
7, 58842, Control_c, 4, 11, 115
7, 58858, Control_c, 4, 11, 116
7, 58875, Control_c, 4, 11, 117
7, 58891, Control_c, 4, 11, 118
7, 58908, Control_c, 4, 11, 119
7, 58924, Control_c, 4, 11, 120
7, 58941, Control_c, 4, 11, 121
7, 58957, Control_c, 4, 11, 122
7, 58974, Control_c, 4, 11, 123
7, 58990, Control_c, 4, 11, 124
7, 59007, Control_c, 4, 11, 125
7, 59023, Control_c, 4, 11, 126
7, 59040, Note_on_c, 4, 61, 0
7, 59040, Note_on_c, 4, 62, 0
7, 59040, Control_c, 4, 11, 127
7, 59040, Note_on_c, 4, 61, 94
7, 59040, Note_on_c, 4, 64, 95
7, 59616, Note_on_c, 4, 61, 0
7, 59616, Note_on_c, 4, 64, 0
7, 59616, Control_c, 4, 11, 127
7, 59616, Note_on_c, 4, 62, 90
7, 59616, Note_on_c, 4, 66, 95
7, 59623, Control_c, 4, 11, 126
7, 59630, Control_c, 4, 11, 125
7, 59637, Control_c, 4, 11, 124
7, 59644, Control_c, 4, 11, 123
7, 59651, Control_c, 4, 11, 122
7, 59658, Control_c, 4, 11, 121
7, 59665, Control_c, 4, 11, 120
7, 59672, Control_c, 4, 11, 119
7, 59679, Control_c, 4, 11, 118
7, 59686, Control_c, 4, 11, 117
7, 59693, Control_c, 4, 11, 116
7, 59700, Control_c, 4, 11, 115
7, 59707, Control_c, 4, 11, 114
7, 59712, Note_on_c, 4, 62, 0
7, 59712, Note_on_c, 4, 66, 0
7, 59712, Note_on_c, 4, 61, 95
7, 59712, Note_on_c, 4, 64, 96
7, 59714, Control_c, 4, 11, 113
7, 59721, Control_c, 4, 11, 112
7, 59728, Control_c, 4, 11, 111
7, 59735, Control_c, 4, 11, 110
7, 59742, Control_c, 4, 11, 109
7, 59749, Control_c, 4, 11, 108
7, 59756, Control_c, 4, 11, 107
7, 59763, Control_c, 4, 11, 106
7, 59770, Control_c, 4, 11, 105
7, 59777, Control_c, 4, 11, 104
7, 59784, Control_c, 4, 11, 103
7, 59791, Control_c, 4, 11, 102
7, 59798, Control_c, 4, 11, 101
7, 59805, Control_c, 4, 11, 100
7, 59808, Note_on_c, 4, 61, 0
7, 59808, Note_on_c, 4, 64, 0
7, 59808, Note_on_c, 4, 59, 95
7, 59808, Note_on_c, 4, 62, 95
7, 59812, Control_c, 4, 11, 99
7, 59819, Control_c, 4, 11, 98
7, 59826, Control_c, 4, 11, 97
7, 59833, Control_c, 4, 11, 96
7, 59840, Control_c, 4, 11, 95
7, 59847, Control_c, 4, 11, 94
7, 59854, Control_c, 4, 11, 93
7, 59861, Control_c, 4, 11, 92
7, 59868, Control_c, 4, 11, 91
7, 59875, Control_c, 4, 11, 90
7, 59882, Control_c, 4, 11, 89
7, 59889, Control_c, 4, 11, 88
7, 59896, Control_c, 4, 11, 87
7, 59903, Control_c, 4, 11, 86
7, 59904, Note_on_c, 4, 59, 0
7, 59904, Note_on_c, 4, 62, 0
7, 59904, Note_on_c, 4, 57, 89
7, 59904, Note_on_c, 4, 61, 93
7, 59911, Control_c, 4, 11, 85
7, 59918, Control_c, 4, 11, 84
7, 59925, Control_c, 4, 11, 83
7, 59932, Control_c, 4, 11, 82
7, 59939, Control_c, 4, 11, 81
7, 59946, Control_c, 4, 11, 80
7, 59953, Control_c, 4, 11, 79
7, 59960, Control_c, 4, 11, 78
7, 59967, Control_c, 4, 11, 77
7, 59974, Control_c, 4, 11, 76
7, 59981, Control_c, 4, 11, 75
7, 59988, Control_c, 4, 11, 74
7, 59995, Control_c, 4, 11, 73
7, 60000, Note_on_c, 4, 57, 0
7, 60000, Note_on_c, 4, 61, 0
7, 60000, Note_on_c, 4, 62, 95
7, 60000, Note_on_c, 4, 66, 94
7, 60002, Control_c, 4, 11, 72
7, 60009, Control_c, 4, 11, 71
7, 60016, Control_c, 4, 11, 70
7, 60023, Control_c, 4, 11, 69
7, 60030, Control_c, 4, 11, 68
7, 60037, Control_c, 4, 11, 67
7, 60044, Control_c, 4, 11, 66
7, 60051, Control_c, 4, 11, 65
7, 60058, Control_c, 4, 11, 64
7, 60065, Control_c, 4, 11, 63
7, 60072, Control_c, 4, 11, 62
7, 60079, Control_c, 4, 11, 61
7, 60086, Control_c, 4, 11, 60
7, 60093, Control_c, 4, 11, 59
7, 60096, Note_on_c, 4, 62, 0
7, 60096, Note_on_c, 4, 66, 0
7, 60096, Note_on_c, 4, 61, 96
7, 60096, Note_on_c, 4, 64, 94
7, 60100, Control_c, 4, 11, 58
7, 60107, Control_c, 4, 11, 57
7, 60114, Control_c, 4, 11, 56
7, 60121, Control_c, 4, 11, 55
7, 60128, Control_c, 4, 11, 54
7, 60135, Control_c, 4, 11, 53
7, 60142, Control_c, 4, 11, 52
7, 60149, Control_c, 4, 11, 51
7, 60156, Control_c, 4, 11, 50
7, 60163, Control_c, 4, 11, 49
7, 60170, Control_c, 4, 11, 48
7, 60177, Control_c, 4, 11, 47
7, 60184, Control_c, 4, 11, 46
7, 60190, Note_on_c, 4, 61, 0
7, 60190, Note_on_c, 4, 64, 0
7, 60192, Control_c, 4, 11, 45
7, 64224, Control_c, 4, 11, 75
7, 64224, Note_on_c, 4, 64, 57
7, 64231, Control_c, 4, 11, 76
7, 64238, Control_c, 4, 11, 77
7, 64246, Control_c, 4, 11, 78
7, 64253, Control_c, 4, 11, 79
7, 64260, Control_c, 4, 11, 80
7, 64268, Control_c, 4, 11, 81
7, 64275, Control_c, 4, 11, 82
7, 64283, Control_c, 4, 11, 83
7, 64290, Control_c, 4, 11, 84
7, 64297, Control_c, 4, 11, 85
7, 64305, Control_c, 4, 11, 86
7, 64312, Control_c, 4, 11, 87
7, 64320, Control_c, 4, 11, 88
7, 64327, Control_c, 4, 11, 89
7, 64334, Control_c, 4, 11, 90
7, 64342, Control_c, 4, 11, 91
7, 64349, Control_c, 4, 11, 92
7, 64356, Control_c, 4, 11, 93
7, 64364, Control_c, 4, 11, 94
7, 64371, Control_c, 4, 11, 95
7, 64379, Control_c, 4, 11, 96
7, 64386, Control_c, 4, 11, 97
7, 64393, Control_c, 4, 11, 98
7, 64401, Control_c, 4, 11, 99
7, 64408, Control_c, 4, 11, 100
7, 64416, Control_c, 4, 11, 101
7, 64423, Control_c, 4, 11, 102
7, 64430, Control_c, 4, 11, 103
7, 64438, Control_c, 4, 11, 104
7, 64445, Control_c, 4, 11, 105
7, 64452, Control_c, 4, 11, 106
7, 64460, Control_c, 4, 11, 107
7, 64467, Control_c, 4, 11, 108
7, 64475, Control_c, 4, 11, 109
7, 64482, Control_c, 4, 11, 110
7, 64489, Control_c, 4, 11, 111
7, 64497, Control_c, 4, 11, 112
7, 64504, Control_c, 4, 11, 113
7, 64512, Control_c, 4, 11, 114
7, 64519, Control_c, 4, 11, 115
7, 64526, Control_c, 4, 11, 116
7, 64534, Control_c, 4, 11, 117
7, 64541, Control_c, 4, 11, 118
7, 64548, Control_c, 4, 11, 119
7, 64556, Control_c, 4, 11, 120
7, 64563, Control_c, 4, 11, 121
7, 64571, Control_c, 4, 11, 122
7, 64578, Control_c, 4, 11, 123
7, 64585, Control_c, 4, 11, 124
7, 64593, Control_c, 4, 11, 125
7, 64600, Control_c, 4, 11, 126
7, 64608, Note_on_c, 4, 64, 0
7, 64608, Control_c, 4, 11, 127
7, 64608, Note_on_c, 4, 62, 57
7, 64768, Note_on_c, 4, 62, 0
7, 64800, Control_c, 4, 11, 75
7, 64800, Note_on_c, 4, 61, 92
7, 64807, Control_c, 4, 11, 76
7, 64814, Control_c, 4, 11, 77
7, 64822, Control_c, 4, 11, 78
7, 64829, Control_c, 4, 11, 79
7, 64836, Control_c, 4, 11, 80
7, 64844, Control_c, 4, 11, 81
7, 64851, Control_c, 4, 11, 82
7, 64859, Control_c, 4, 11, 83
7, 64866, Control_c, 4, 11, 84
7, 64873, Control_c, 4, 11, 85
7, 64881, Control_c, 4, 11, 86
7, 64888, Control_c, 4, 11, 87
7, 64896, Control_c, 4, 11, 88
7, 64903, Control_c, 4, 11, 89
7, 64910, Control_c, 4, 11, 90
7, 64918, Control_c, 4, 11, 91
7, 64925, Control_c, 4, 11, 92
7, 64932, Control_c, 4, 11, 93
7, 64940, Control_c, 4, 11, 94
7, 64947, Control_c, 4, 11, 95
7, 64955, Control_c, 4, 11, 96
7, 64962, Control_c, 4, 11, 97
7, 64969, Control_c, 4, 11, 98
7, 64977, Control_c, 4, 11, 99
7, 64984, Control_c, 4, 11, 100
7, 64992, Control_c, 4, 11, 101
7, 64999, Control_c, 4, 11, 102
7, 65006, Control_c, 4, 11, 103
7, 65014, Control_c, 4, 11, 104
7, 65021, Control_c, 4, 11, 105
7, 65028, Control_c, 4, 11, 106
7, 65036, Control_c, 4, 11, 107
7, 65043, Control_c, 4, 11, 108
7, 65051, Control_c, 4, 11, 109
7, 65058, Control_c, 4, 11, 110
7, 65065, Control_c, 4, 11, 111
7, 65073, Control_c, 4, 11, 112
7, 65080, Control_c, 4, 11, 113
7, 65088, Control_c, 4, 11, 114
7, 65095, Control_c, 4, 11, 115
7, 65102, Control_c, 4, 11, 116
7, 65110, Control_c, 4, 11, 117
7, 65117, Control_c, 4, 11, 118
7, 65124, Control_c, 4, 11, 119
7, 65132, Control_c, 4, 11, 120
7, 65139, Control_c, 4, 11, 121
7, 65147, Control_c, 4, 11, 122
7, 65154, Control_c, 4, 11, 123
7, 65161, Control_c, 4, 11, 124
7, 65169, Control_c, 4, 11, 125
7, 65176, Control_c, 4, 11, 126
7, 65184, Note_on_c, 4, 61, 0
7, 65184, Control_c, 4, 11, 127
7, 65184, Note_on_c, 4, 58, 92
7, 65216, Note_on_c, 4, 58, 0
7, 65280, Control_c, 4, 7, 92
7, 65376, Note_on_c, 4, 50, 95
7, 65470, Note_on_c, 4, 50, 0
7, 65568, Control_c, 4, 11, 75
7, 65568, Note_on_c, 4, 44, 104
7, 65568, Note_on_c, 4, 56, 104
7, 65571, Control_c, 4, 11, 76
7, 65575, Control_c, 4, 11, 77
7, 65579, Control_c, 4, 11, 78
7, 65582, Control_c, 4, 11, 79
7, 65586, Control_c, 4, 11, 80
7, 65590, Control_c, 4, 11, 81
7, 65593, Control_c, 4, 11, 82
7, 65597, Control_c, 4, 11, 83
7, 65601, Control_c, 4, 11, 84
7, 65604, Control_c, 4, 11, 85
7, 65608, Control_c, 4, 11, 86
7, 65612, Control_c, 4, 11, 87
7, 65616, Control_c, 4, 11, 88
7, 65619, Control_c, 4, 11, 89
7, 65623, Control_c, 4, 11, 90
7, 65627, Control_c, 4, 11, 91
7, 65630, Control_c, 4, 11, 92
7, 65634, Control_c, 4, 11, 93
7, 65638, Control_c, 4, 11, 94
7, 65641, Control_c, 4, 11, 95
7, 65645, Control_c, 4, 11, 96
7, 65649, Control_c, 4, 11, 97
7, 65652, Control_c, 4, 11, 98
7, 65656, Control_c, 4, 11, 99
7, 65660, Control_c, 4, 11, 100
7, 65664, Control_c, 4, 11, 101
7, 65667, Control_c, 4, 11, 102
7, 65671, Control_c, 4, 11, 103
7, 65675, Control_c, 4, 11, 104
7, 65678, Control_c, 4, 11, 105
7, 65682, Control_c, 4, 11, 106
7, 65686, Control_c, 4, 11, 107
7, 65689, Control_c, 4, 11, 108
7, 65693, Control_c, 4, 11, 109
7, 65697, Control_c, 4, 11, 110
7, 65700, Control_c, 4, 11, 111
7, 65704, Control_c, 4, 11, 112
7, 65708, Control_c, 4, 11, 113
7, 65712, Control_c, 4, 11, 114
7, 65715, Control_c, 4, 11, 115
7, 65719, Control_c, 4, 11, 116
7, 65723, Control_c, 4, 11, 117
7, 65726, Control_c, 4, 11, 118
7, 65730, Control_c, 4, 11, 119
7, 65734, Control_c, 4, 11, 120
7, 65737, Control_c, 4, 11, 121
7, 65741, Control_c, 4, 11, 122
7, 65745, Control_c, 4, 11, 123
7, 65748, Control_c, 4, 11, 124
7, 65752, Control_c, 4, 11, 125
7, 65756, Control_c, 4, 11, 126
7, 65760, Control_c, 4, 11, 127
7, 65952, Control_c, 4, 11, 127
7, 65962, Control_c, 4, 11, 126
7, 65973, Control_c, 4, 11, 125
7, 65984, Control_c, 4, 11, 124
7, 65995, Control_c, 4, 11, 123
7, 66005, Control_c, 4, 11, 122
7, 66016, Control_c, 4, 11, 121
7, 66027, Control_c, 4, 11, 120
7, 66038, Control_c, 4, 11, 119
7, 66048, Control_c, 4, 11, 118
7, 66059, Control_c, 4, 11, 117
7, 66070, Control_c, 4, 11, 116
7, 66081, Control_c, 4, 11, 115
7, 66091, Control_c, 4, 11, 114
7, 66102, Control_c, 4, 11, 113
7, 66113, Control_c, 4, 11, 112
7, 66124, Control_c, 4, 11, 111
7, 66135, Control_c, 4, 11, 110
7, 66145, Control_c, 4, 11, 109
7, 66156, Control_c, 4, 11, 108
7, 66167, Control_c, 4, 11, 107
7, 66178, Control_c, 4, 11, 106
7, 66188, Control_c, 4, 11, 105
7, 66199, Control_c, 4, 11, 104
7, 66210, Control_c, 4, 11, 103
7, 66221, Control_c, 4, 11, 102
7, 66231, Control_c, 4, 11, 101
7, 66242, Control_c, 4, 11, 100
7, 66253, Control_c, 4, 11, 99
7, 66264, Control_c, 4, 11, 98
7, 66274, Control_c, 4, 11, 97
7, 66285, Control_c, 4, 11, 96
7, 66296, Control_c, 4, 11, 95
7, 66307, Control_c, 4, 11, 94
7, 66318, Control_c, 4, 11, 93
7, 66328, Control_c, 4, 11, 92
7, 66339, Control_c, 4, 11, 91
7, 66350, Control_c, 4, 11, 90
7, 66361, Control_c, 4, 11, 89
7, 66371, Control_c, 4, 11, 88
7, 66382, Control_c, 4, 11, 87
7, 66393, Control_c, 4, 11, 86
7, 66404, Control_c, 4, 11, 85
7, 66414, Control_c, 4, 11, 84
7, 66425, Control_c, 4, 11, 83
7, 66436, Control_c, 4, 11, 82
7, 66447, Control_c, 4, 11, 81
7, 66458, Control_c, 4, 11, 80
7, 66468, Control_c, 4, 11, 79
7, 66479, Control_c, 4, 11, 78
7, 66490, Control_c, 4, 11, 77
7, 66501, Control_c, 4, 11, 76
7, 66511, Control_c, 4, 11, 75
7, 66522, Control_c, 4, 11, 74
7, 66533, Control_c, 4, 11, 73
7, 66544, Control_c, 4, 11, 72
7, 66554, Control_c, 4, 11, 71
7, 66565, Control_c, 4, 11, 70
7, 66576, Control_c, 4, 11, 69
7, 66587, Control_c, 4, 11, 68
7, 66597, Control_c, 4, 11, 67
7, 66608, Control_c, 4, 11, 66
7, 66619, Control_c, 4, 11, 65
7, 66630, Control_c, 4, 11, 64
7, 66641, Control_c, 4, 11, 63
7, 66651, Control_c, 4, 11, 62
7, 66662, Control_c, 4, 11, 61
7, 66673, Control_c, 4, 11, 60
7, 66684, Control_c, 4, 11, 59
7, 66694, Control_c, 4, 11, 58
7, 66705, Control_c, 4, 11, 57
7, 66716, Control_c, 4, 11, 56
7, 66727, Control_c, 4, 11, 55
7, 66737, Control_c, 4, 11, 54
7, 66748, Control_c, 4, 11, 53
7, 66759, Control_c, 4, 11, 52
7, 66770, Control_c, 4, 11, 51
7, 66781, Control_c, 4, 11, 50
7, 66791, Control_c, 4, 11, 49
7, 66802, Control_c, 4, 11, 48
7, 66813, Control_c, 4, 11, 47
7, 66824, Control_c, 4, 11, 46
7, 66834, Control_c, 4, 11, 45
7, 66845, Control_c, 4, 11, 44
7, 66856, Control_c, 4, 11, 43
7, 66867, Control_c, 4, 11, 42
7, 66877, Control_c, 4, 11, 41
7, 66888, Control_c, 4, 11, 40
7, 66899, Control_c, 4, 11, 39
7, 66910, Control_c, 4, 11, 38
7, 66920, Control_c, 4, 11, 37
7, 66931, Control_c, 4, 11, 36
7, 66942, Control_c, 4, 11, 35
7, 66953, Control_c, 4, 11, 34
7, 66964, Control_c, 4, 11, 33
7, 66974, Control_c, 4, 11, 32
7, 66985, Control_c, 4, 11, 31
7, 66996, Control_c, 4, 11, 30
7, 67007, Control_c, 4, 11, 29
7, 67017, Control_c, 4, 11, 28
7, 67028, Control_c, 4, 11, 27
7, 67039, Control_c, 4, 11, 26
7, 67050, Control_c, 4, 11, 25
7, 67060, Control_c, 4, 11, 24
7, 67071, Control_c, 4, 11, 23
7, 67082, Control_c, 4, 11, 22
7, 67093, Control_c, 4, 11, 21
7, 67104, Control_c, 4, 11, 20
7, 67264, Note_on_c, 4, 44, 0
7, 67264, Note_on_c, 4, 56, 0
7, 67680, Control_c, 4, 7, 127
7, 67680, Control_c, 4, 11, 127
7, 70752, Control_c, 4, 11, 127
7, 70752, Note_on_c, 4, 68, 45
7, 70762, Control_c, 4, 11, 126
7, 70773, Control_c, 4, 11, 125
7, 70784, Control_c, 4, 11, 124
7, 70795, Control_c, 4, 11, 123
7, 70806, Control_c, 4, 11, 122
7, 70817, Control_c, 4, 11, 121
7, 70828, Control_c, 4, 11, 120
7, 70839, Control_c, 4, 11, 119
7, 70850, Control_c, 4, 11, 118
7, 70861, Control_c, 4, 11, 117
7, 70872, Control_c, 4, 11, 116
7, 70883, Control_c, 4, 11, 115
7, 70894, Control_c, 4, 11, 114
7, 70905, Control_c, 4, 11, 113
7, 70916, Control_c, 4, 11, 112
7, 70927, Control_c, 4, 11, 111
7, 70938, Control_c, 4, 11, 110
7, 70949, Control_c, 4, 11, 109
7, 70960, Control_c, 4, 11, 108
7, 70971, Control_c, 4, 11, 107
7, 70982, Control_c, 4, 11, 106
7, 70993, Control_c, 4, 11, 105
7, 71004, Control_c, 4, 11, 104
7, 71015, Control_c, 4, 11, 103
7, 71026, Control_c, 4, 11, 102
7, 71037, Control_c, 4, 11, 101
7, 71048, Control_c, 4, 11, 100
7, 71059, Control_c, 4, 11, 99
7, 71070, Control_c, 4, 11, 98
7, 71081, Control_c, 4, 11, 97
7, 71092, Control_c, 4, 11, 96
7, 71103, Control_c, 4, 11, 95
7, 71114, Control_c, 4, 11, 94
7, 71125, Control_c, 4, 11, 93
7, 71136, Note_on_c, 4, 68, 0
7, 71136, Control_c, 4, 11, 92
7, 71136, Note_on_c, 4, 64, 50
7, 72240, Note_on_c, 4, 64, 0
7, 74592, Control_c, 4, 11, 127
7, 76896, Note_on_c, 4, 60, 46
7, 76917, Note_on_c, 4, 60, 0
7, 76928, Note_on_c, 4, 55, 46
7, 76949, Note_on_c, 4, 55, 0
7, 76960, Note_on_c, 4, 60, 43
7, 76981, Note_on_c, 4, 60, 0
7, 76992, Note_on_c, 4, 55, 40
7, 77013, Note_on_c, 4, 55, 0
7, 77024, Note_on_c, 4, 60, 41
7, 77045, Note_on_c, 4, 60, 0
7, 77056, Note_on_c, 4, 64, 36
7, 77077, Note_on_c, 4, 64, 0
7, 77280, Note_on_c, 4, 60, 41
7, 77301, Note_on_c, 4, 60, 0
7, 77312, Note_on_c, 4, 55, 45
7, 77333, Note_on_c, 4, 55, 0
7, 77344, Note_on_c, 4, 60, 49
7, 77365, Note_on_c, 4, 60, 0
7, 77376, Note_on_c, 4, 55, 41
7, 77397, Note_on_c, 4, 55, 0
7, 77408, Note_on_c, 4, 60, 40
7, 77429, Note_on_c, 4, 60, 0
7, 77440, Note_on_c, 4, 64, 33
7, 77461, Note_on_c, 4, 64, 0
7, 79776, Note_on_c, 4, 46, 47
7, 79806, Note_on_c, 4, 46, 0
7, 79808, Note_on_c, 4, 48, 42
7, 79838, Note_on_c, 4, 48, 0
7, 79840, Note_on_c, 4, 50, 40
7, 79870, Note_on_c, 4, 50, 0
7, 79872, Note_on_c, 4, 52, 49
7, 80110, Note_on_c, 4, 52, 0
7, 80112, Note_on_c, 4, 53, 47
7, 80158, Note_on_c, 4, 53, 0
7, 80160, Note_on_c, 4, 55, 52
7, 80320, Note_on_c, 4, 55, 0
7, 80352, Note_on_c, 4, 46, 61
7, 80382, Note_on_c, 4, 46, 0
7, 80384, Note_on_c, 4, 48, 54
7, 80414, Note_on_c, 4, 48, 0
7, 80416, Note_on_c, 4, 50, 57
7, 80446, Note_on_c, 4, 50, 0
7, 80448, Note_on_c, 4, 52, 62
7, 80686, Note_on_c, 4, 52, 0
7, 80688, Note_on_c, 4, 53, 67
7, 80734, Note_on_c, 4, 53, 0
7, 80736, Note_on_c, 4, 55, 64
7, 80896, Note_on_c, 4, 55, 0
7, 80928, Control_c, 4, 7, 92
7, 82080, Note_on_c, 4, 34, 112
7, 82080, Note_on_c, 4, 46, 113
7, 82080, Note_on_c, 4, 53, 106
7, 82992, Note_on_c, 4, 34, 0
7, 82992, Note_on_c, 4, 46, 0
7, 82992, Note_on_c, 4, 53, 0
7, 84384, Note_on_c, 4, 34, 106
7, 84384, Note_on_c, 4, 46, 111
7, 84384, Note_on_c, 4, 53, 111
7, 84960, Control_c, 4, 11, 127
7, 84969, Control_c, 4, 11, 126
7, 84978, Control_c, 4, 11, 125
7, 84988, Control_c, 4, 11, 124
7, 84997, Control_c, 4, 11, 123
7, 85006, Control_c, 4, 11, 122
7, 85016, Control_c, 4, 11, 121
7, 85025, Control_c, 4, 11, 120
7, 85034, Control_c, 4, 11, 119
7, 85044, Control_c, 4, 11, 118
7, 85053, Control_c, 4, 11, 117
7, 85063, Control_c, 4, 11, 116
7, 85072, Control_c, 4, 11, 115
7, 85081, Control_c, 4, 11, 114
7, 85091, Control_c, 4, 11, 113
7, 85100, Control_c, 4, 11, 112
7, 85109, Control_c, 4, 11, 111
7, 85119, Control_c, 4, 11, 110
7, 85128, Control_c, 4, 11, 109
7, 85137, Control_c, 4, 11, 108
7, 85147, Control_c, 4, 11, 107
7, 85156, Control_c, 4, 11, 106
7, 85166, Control_c, 4, 11, 105
7, 85175, Control_c, 4, 11, 104
7, 85184, Control_c, 4, 11, 103
7, 85194, Control_c, 4, 11, 102
7, 85203, Control_c, 4, 11, 101
7, 85212, Control_c, 4, 11, 100
7, 85222, Control_c, 4, 11, 99
7, 85231, Control_c, 4, 11, 98
7, 85240, Control_c, 4, 11, 97
7, 85250, Control_c, 4, 11, 96
7, 85259, Control_c, 4, 11, 95
7, 85269, Control_c, 4, 11, 94
7, 85278, Control_c, 4, 11, 93
7, 85287, Control_c, 4, 11, 92
7, 85297, Control_c, 4, 11, 91
7, 85306, Control_c, 4, 11, 90
7, 85315, Control_c, 4, 11, 89
7, 85325, Control_c, 4, 11, 88
7, 85334, Control_c, 4, 11, 87
7, 85343, Control_c, 4, 11, 86
7, 85353, Control_c, 4, 11, 85
7, 85362, Control_c, 4, 11, 84
7, 85372, Control_c, 4, 11, 83
7, 85381, Control_c, 4, 11, 82
7, 85390, Control_c, 4, 11, 81
7, 85400, Control_c, 4, 11, 80
7, 85409, Control_c, 4, 11, 79
7, 85418, Control_c, 4, 11, 78
7, 85428, Control_c, 4, 11, 77
7, 85437, Control_c, 4, 11, 76
7, 85447, Control_c, 4, 11, 75
7, 85456, Control_c, 4, 11, 74
7, 85465, Control_c, 4, 11, 73
7, 85475, Control_c, 4, 11, 72
7, 85484, Control_c, 4, 11, 71
7, 85493, Control_c, 4, 11, 70
7, 85503, Control_c, 4, 11, 69
7, 85512, Control_c, 4, 11, 68
7, 85521, Control_c, 4, 11, 67
7, 85531, Control_c, 4, 11, 66
7, 85540, Control_c, 4, 11, 65
7, 85550, Control_c, 4, 11, 64
7, 85559, Control_c, 4, 11, 63
7, 85568, Control_c, 4, 11, 62
7, 85578, Control_c, 4, 11, 61
7, 85587, Control_c, 4, 11, 60
7, 85596, Control_c, 4, 11, 59
7, 85606, Control_c, 4, 11, 58
7, 85615, Control_c, 4, 11, 57
7, 85624, Control_c, 4, 11, 56
7, 85634, Control_c, 4, 11, 55
7, 85643, Control_c, 4, 11, 54
7, 85653, Control_c, 4, 11, 53
7, 85662, Control_c, 4, 11, 52
7, 85671, Control_c, 4, 11, 51
7, 85681, Control_c, 4, 11, 50
7, 85690, Control_c, 4, 11, 49
7, 85696, Note_on_c, 4, 34, 0
7, 85696, Note_on_c, 4, 46, 0
7, 85696, Note_on_c, 4, 53, 0
7, 85699, Control_c, 4, 11, 48
7, 85709, Control_c, 4, 11, 47
7, 85718, Control_c, 4, 11, 46
7, 85728, Control_c, 4, 11, 45
7, 85920, Control_c, 4, 7, 127
7, 86112, Control_c, 4, 11, 127
7, 87072, Control_c, 4, 11, 127
7, 87072, Note_on_c, 4, 56, 27
7, 87072, Note_on_c, 4, 60, 26
7, 87077, Control_c, 4, 11, 126
7, 87082, Control_c, 4, 11, 125
7, 87088, Control_c, 4, 11, 124
7, 87093, Control_c, 4, 11, 123
7, 87099, Control_c, 4, 11, 122
7, 87104, Control_c, 4, 11, 121
7, 87110, Control_c, 4, 11, 120
7, 87115, Control_c, 4, 11, 119
7, 87121, Control_c, 4, 11, 118
7, 87126, Control_c, 4, 11, 117
7, 87132, Control_c, 4, 11, 116
7, 87137, Control_c, 4, 11, 115
7, 87143, Control_c, 4, 11, 114
7, 87148, Control_c, 4, 11, 113
7, 87154, Control_c, 4, 11, 112
7, 87159, Control_c, 4, 11, 111
7, 87165, Control_c, 4, 11, 110
7, 87170, Control_c, 4, 11, 109
7, 87176, Control_c, 4, 11, 108
7, 87181, Control_c, 4, 11, 107
7, 87187, Control_c, 4, 11, 106
7, 87192, Control_c, 4, 11, 105
7, 87198, Control_c, 4, 11, 104
7, 87203, Control_c, 4, 11, 103
7, 87209, Control_c, 4, 11, 102
7, 87214, Control_c, 4, 11, 101
7, 87220, Control_c, 4, 11, 100
7, 87225, Control_c, 4, 11, 99
7, 87231, Control_c, 4, 11, 98
7, 87236, Control_c, 4, 11, 97
7, 87242, Control_c, 4, 11, 96
7, 87247, Control_c, 4, 11, 95
7, 87253, Control_c, 4, 11, 94
7, 87258, Control_c, 4, 11, 93
7, 87264, Control_c, 4, 11, 92
7, 87358, Note_on_c, 4, 56, 0
7, 87358, Note_on_c, 4, 60, 0
7, 87648, Control_c, 4, 11, 127
7, 87648, Note_on_c, 4, 56, 31
7, 87648, Note_on_c, 4, 60, 30
7, 87653, Control_c, 4, 11, 126
7, 87658, Control_c, 4, 11, 125
7, 87664, Control_c, 4, 11, 124
7, 87669, Control_c, 4, 11, 123
7, 87675, Control_c, 4, 11, 122
7, 87680, Control_c, 4, 11, 121
7, 87686, Control_c, 4, 11, 120
7, 87691, Control_c, 4, 11, 119
7, 87697, Control_c, 4, 11, 118
7, 87702, Control_c, 4, 11, 117
7, 87708, Control_c, 4, 11, 116
7, 87713, Control_c, 4, 11, 115
7, 87719, Control_c, 4, 11, 114
7, 87724, Control_c, 4, 11, 113
7, 87730, Control_c, 4, 11, 112
7, 87735, Control_c, 4, 11, 111
7, 87741, Control_c, 4, 11, 110
7, 87746, Control_c, 4, 11, 109
7, 87752, Control_c, 4, 11, 108
7, 87757, Control_c, 4, 11, 107
7, 87763, Control_c, 4, 11, 106
7, 87768, Control_c, 4, 11, 105
7, 87774, Control_c, 4, 11, 104
7, 87779, Control_c, 4, 11, 103
7, 87785, Control_c, 4, 11, 102
7, 87790, Control_c, 4, 11, 101
7, 87796, Control_c, 4, 11, 100
7, 87801, Control_c, 4, 11, 99
7, 87807, Control_c, 4, 11, 98
7, 87812, Control_c, 4, 11, 97
7, 87818, Control_c, 4, 11, 96
7, 87823, Control_c, 4, 11, 95
7, 87829, Control_c, 4, 11, 94
7, 87834, Control_c, 4, 11, 93
7, 87840, Control_c, 4, 11, 92
7, 87934, Note_on_c, 4, 56, 0
7, 87934, Note_on_c, 4, 60, 0
7, 88416, Control_c, 4, 11, 92
7, 88416, Note_on_c, 4, 49, 56
7, 88416, Note_on_c, 4, 56, 56
7, 88432, Control_c, 4, 11, 93
7, 88448, Control_c, 4, 11, 94
7, 88465, Control_c, 4, 11, 95
7, 88481, Control_c, 4, 11, 96
7, 88498, Control_c, 4, 11, 97
7, 88514, Control_c, 4, 11, 98
7, 88531, Control_c, 4, 11, 99
7, 88547, Control_c, 4, 11, 100
7, 88564, Control_c, 4, 11, 101
7, 88580, Control_c, 4, 11, 102
7, 88597, Control_c, 4, 11, 103
7, 88613, Control_c, 4, 11, 104
7, 88629, Control_c, 4, 11, 105
7, 88646, Control_c, 4, 11, 106
7, 88662, Control_c, 4, 11, 107
7, 88679, Control_c, 4, 11, 108
7, 88695, Control_c, 4, 11, 109
7, 88712, Control_c, 4, 11, 110
7, 88728, Control_c, 4, 11, 111
7, 88745, Control_c, 4, 11, 112
7, 88761, Control_c, 4, 11, 113
7, 88778, Control_c, 4, 11, 114
7, 88794, Control_c, 4, 11, 115
7, 88810, Control_c, 4, 11, 116
7, 88827, Control_c, 4, 11, 117
7, 88843, Control_c, 4, 11, 118
7, 88860, Control_c, 4, 11, 119
7, 88876, Control_c, 4, 11, 120
7, 88893, Control_c, 4, 11, 121
7, 88909, Control_c, 4, 11, 122
7, 88926, Control_c, 4, 11, 123
7, 88942, Control_c, 4, 11, 124
7, 88944, Note_on_c, 4, 49, 0
7, 88944, Note_on_c, 4, 56, 0
7, 88959, Control_c, 4, 11, 125
7, 88975, Control_c, 4, 11, 126
7, 88992, Control_c, 4, 11, 127
7, 89376, Control_c, 4, 11, 127
7, 89376, Note_on_c, 4, 56, 35
7, 89376, Note_on_c, 4, 60, 28
7, 89381, Control_c, 4, 11, 126
7, 89386, Control_c, 4, 11, 125
7, 89392, Control_c, 4, 11, 124
7, 89397, Control_c, 4, 11, 123
7, 89403, Control_c, 4, 11, 122
7, 89408, Control_c, 4, 11, 121
7, 89414, Control_c, 4, 11, 120
7, 89419, Control_c, 4, 11, 119
7, 89425, Control_c, 4, 11, 118
7, 89430, Control_c, 4, 11, 117
7, 89436, Control_c, 4, 11, 116
7, 89441, Control_c, 4, 11, 115
7, 89447, Control_c, 4, 11, 114
7, 89452, Control_c, 4, 11, 113
7, 89458, Control_c, 4, 11, 112
7, 89463, Control_c, 4, 11, 111
7, 89469, Control_c, 4, 11, 110
7, 89474, Control_c, 4, 11, 109
7, 89480, Control_c, 4, 11, 108
7, 89485, Control_c, 4, 11, 107
7, 89491, Control_c, 4, 11, 106
7, 89496, Control_c, 4, 11, 105
7, 89502, Control_c, 4, 11, 104
7, 89507, Control_c, 4, 11, 103
7, 89513, Control_c, 4, 11, 102
7, 89518, Control_c, 4, 11, 101
7, 89524, Control_c, 4, 11, 100
7, 89529, Control_c, 4, 11, 99
7, 89535, Control_c, 4, 11, 98
7, 89540, Control_c, 4, 11, 97
7, 89546, Control_c, 4, 11, 96
7, 89551, Control_c, 4, 11, 95
7, 89557, Control_c, 4, 11, 94
7, 89562, Control_c, 4, 11, 93
7, 89568, Control_c, 4, 11, 92
7, 89662, Note_on_c, 4, 56, 0
7, 89662, Note_on_c, 4, 60, 0
7, 89952, Control_c, 4, 11, 127
7, 89952, Note_on_c, 4, 56, 26
7, 89952, Note_on_c, 4, 60, 30
7, 89957, Control_c, 4, 11, 126
7, 89962, Control_c, 4, 11, 125
7, 89968, Control_c, 4, 11, 124
7, 89973, Control_c, 4, 11, 123
7, 89979, Control_c, 4, 11, 122
7, 89984, Control_c, 4, 11, 121
7, 89990, Control_c, 4, 11, 120
7, 89995, Control_c, 4, 11, 119
7, 90001, Control_c, 4, 11, 118
7, 90006, Control_c, 4, 11, 117
7, 90012, Control_c, 4, 11, 116
7, 90017, Control_c, 4, 11, 115
7, 90023, Control_c, 4, 11, 114
7, 90028, Control_c, 4, 11, 113
7, 90034, Control_c, 4, 11, 112
7, 90039, Control_c, 4, 11, 111
7, 90045, Control_c, 4, 11, 110
7, 90050, Control_c, 4, 11, 109
7, 90056, Control_c, 4, 11, 108
7, 90061, Control_c, 4, 11, 107
7, 90067, Control_c, 4, 11, 106
7, 90072, Control_c, 4, 11, 105
7, 90078, Control_c, 4, 11, 104
7, 90083, Control_c, 4, 11, 103
7, 90089, Control_c, 4, 11, 102
7, 90094, Control_c, 4, 11, 101
7, 90100, Control_c, 4, 11, 100
7, 90105, Control_c, 4, 11, 99
7, 90111, Control_c, 4, 11, 98
7, 90116, Control_c, 4, 11, 97
7, 90122, Control_c, 4, 11, 96
7, 90127, Control_c, 4, 11, 95
7, 90133, Control_c, 4, 11, 94
7, 90138, Control_c, 4, 11, 93
7, 90144, Control_c, 4, 11, 92
7, 90238, Note_on_c, 4, 56, 0
7, 90238, Note_on_c, 4, 60, 0
7, 90720, Control_c, 4, 11, 127
7, 90720, Note_on_c, 4, 49, 41
7, 90720, Note_on_c, 4, 56, 49
7, 90736, Control_c, 4, 11, 126
7, 90752, Control_c, 4, 11, 125
7, 90769, Control_c, 4, 11, 124
7, 90785, Control_c, 4, 11, 123
7, 90802, Control_c, 4, 11, 122
7, 90818, Control_c, 4, 11, 121
7, 90835, Control_c, 4, 11, 120
7, 90851, Control_c, 4, 11, 119
7, 90868, Control_c, 4, 11, 118
7, 90884, Control_c, 4, 11, 117
7, 90901, Control_c, 4, 11, 116
7, 90917, Control_c, 4, 11, 115
7, 90933, Control_c, 4, 11, 114
7, 90950, Control_c, 4, 11, 113
7, 90966, Control_c, 4, 11, 112
7, 90983, Control_c, 4, 11, 111
7, 90999, Control_c, 4, 11, 110
7, 91016, Control_c, 4, 11, 109
7, 91032, Control_c, 4, 11, 108
7, 91049, Control_c, 4, 11, 107
7, 91065, Control_c, 4, 11, 106
7, 91082, Control_c, 4, 11, 105
7, 91098, Control_c, 4, 11, 104
7, 91114, Control_c, 4, 11, 103
7, 91131, Control_c, 4, 11, 102
7, 91147, Control_c, 4, 11, 101
7, 91164, Control_c, 4, 11, 100
7, 91180, Control_c, 4, 11, 99
7, 91197, Control_c, 4, 11, 98
7, 91213, Control_c, 4, 11, 97
7, 91230, Control_c, 4, 11, 96
7, 91246, Control_c, 4, 11, 95
7, 91248, Note_on_c, 4, 49, 0
7, 91248, Note_on_c, 4, 56, 0
7, 91263, Control_c, 4, 11, 94
7, 91279, Control_c, 4, 11, 93
7, 91296, Control_c, 4, 11, 92
7, 91296, Control_c, 4, 11, 127
7, 91296, Note_on_c, 4, 56, 41
7, 91296, Note_on_c, 4, 59, 50
7, 92400, Note_on_c, 4, 56, 0
7, 92400, Note_on_c, 4, 59, 0
7, 92448, Control_c, 4, 11, 92
7, 92448, Note_on_c, 4, 52, 61
7, 92448, Note_on_c, 4, 59, 65
7, 93024, Control_c, 4, 11, 92
7, 93040, Control_c, 4, 11, 93
7, 93056, Control_c, 4, 11, 94
7, 93073, Control_c, 4, 11, 95
7, 93089, Control_c, 4, 11, 96
7, 93106, Control_c, 4, 11, 97
7, 93122, Control_c, 4, 11, 98
7, 93139, Control_c, 4, 11, 99
7, 93155, Control_c, 4, 11, 100
7, 93172, Control_c, 4, 11, 101
7, 93188, Control_c, 4, 11, 102
7, 93205, Control_c, 4, 11, 103
7, 93221, Control_c, 4, 11, 104
7, 93237, Control_c, 4, 11, 105
7, 93254, Control_c, 4, 11, 106
7, 93270, Control_c, 4, 11, 107
7, 93287, Control_c, 4, 11, 108
7, 93303, Control_c, 4, 11, 109
7, 93320, Control_c, 4, 11, 110
7, 93336, Control_c, 4, 11, 111
7, 93353, Control_c, 4, 11, 112
7, 93369, Control_c, 4, 11, 113
7, 93386, Control_c, 4, 11, 114
7, 93402, Control_c, 4, 11, 115
7, 93418, Control_c, 4, 11, 116
7, 93435, Control_c, 4, 11, 117
7, 93451, Control_c, 4, 11, 118
7, 93468, Control_c, 4, 11, 119
7, 93484, Control_c, 4, 11, 120
7, 93501, Control_c, 4, 11, 121
7, 93517, Control_c, 4, 11, 122
7, 93534, Control_c, 4, 11, 123
7, 93550, Control_c, 4, 11, 124
7, 93552, Note_on_c, 4, 52, 0
7, 93552, Note_on_c, 4, 59, 0
7, 93567, Control_c, 4, 11, 125
7, 93583, Control_c, 4, 11, 126
7, 93600, Control_c, 4, 11, 127
7, 93600, Control_c, 4, 11, 127
7, 93600, Note_on_c, 4, 56, 44
7, 93600, Note_on_c, 4, 59, 47
7, 94704, Note_on_c, 4, 56, 0
7, 94704, Note_on_c, 4, 59, 0
7, 94752, Control_c, 4, 11, 92
7, 94752, Note_on_c, 4, 59, 59
7, 94752, Note_on_c, 4, 62, 62
7, 94757, Control_c, 4, 11, 93
7, 94762, Control_c, 4, 11, 94
7, 94768, Control_c, 4, 11, 95
7, 94773, Control_c, 4, 11, 96
7, 94779, Control_c, 4, 11, 97
7, 94784, Control_c, 4, 11, 98
7, 94790, Control_c, 4, 11, 99
7, 94795, Control_c, 4, 11, 100
7, 94801, Control_c, 4, 11, 101
7, 94806, Control_c, 4, 11, 102
7, 94812, Control_c, 4, 11, 103
7, 94817, Control_c, 4, 11, 104
7, 94823, Control_c, 4, 11, 105
7, 94828, Control_c, 4, 11, 106
7, 94834, Control_c, 4, 11, 107
7, 94839, Control_c, 4, 11, 108
7, 94845, Control_c, 4, 11, 109
7, 94850, Control_c, 4, 11, 110
7, 94856, Control_c, 4, 11, 111
7, 94861, Control_c, 4, 11, 112
7, 94867, Control_c, 4, 11, 113
7, 94872, Control_c, 4, 11, 114
7, 94878, Control_c, 4, 11, 115
7, 94883, Control_c, 4, 11, 116
7, 94889, Control_c, 4, 11, 117
7, 94894, Control_c, 4, 11, 118
7, 94900, Control_c, 4, 11, 119
7, 94905, Control_c, 4, 11, 120
7, 94911, Control_c, 4, 11, 121
7, 94916, Control_c, 4, 11, 122
7, 94922, Control_c, 4, 11, 123
7, 94927, Control_c, 4, 11, 124
7, 94933, Control_c, 4, 11, 125
7, 94938, Control_c, 4, 11, 126
7, 94944, Note_on_c, 4, 59, 0
7, 94944, Note_on_c, 4, 62, 0
7, 94944, Control_c, 4, 11, 127
7, 94944, Note_on_c, 4, 60, 61
7, 94944, Note_on_c, 4, 63, 62
7, 95280, Note_on_c, 4, 60, 0
7, 95280, Note_on_c, 4, 63, 0
7, 95328, Control_c, 4, 11, 92
7, 95328, Note_on_c, 4, 59, 64
7, 95328, Note_on_c, 4, 62, 57
7, 95333, Control_c, 4, 11, 93
7, 95338, Control_c, 4, 11, 94
7, 95344, Control_c, 4, 11, 95
7, 95349, Control_c, 4, 11, 96
7, 95355, Control_c, 4, 11, 97
7, 95360, Control_c, 4, 11, 98
7, 95366, Control_c, 4, 11, 99
7, 95371, Control_c, 4, 11, 100
7, 95377, Control_c, 4, 11, 101
7, 95382, Control_c, 4, 11, 102
7, 95388, Control_c, 4, 11, 103
7, 95393, Control_c, 4, 11, 104
7, 95399, Control_c, 4, 11, 105
7, 95404, Control_c, 4, 11, 106
7, 95410, Control_c, 4, 11, 107
7, 95415, Control_c, 4, 11, 108
7, 95421, Control_c, 4, 11, 109
7, 95426, Control_c, 4, 11, 110
7, 95432, Control_c, 4, 11, 111
7, 95437, Control_c, 4, 11, 112
7, 95443, Control_c, 4, 11, 113
7, 95448, Control_c, 4, 11, 114
7, 95454, Control_c, 4, 11, 115
7, 95459, Control_c, 4, 11, 116
7, 95465, Control_c, 4, 11, 117
7, 95470, Control_c, 4, 11, 118
7, 95476, Control_c, 4, 11, 119
7, 95481, Control_c, 4, 11, 120
7, 95487, Control_c, 4, 11, 121
7, 95492, Control_c, 4, 11, 122
7, 95498, Control_c, 4, 11, 123
7, 95503, Control_c, 4, 11, 124
7, 95509, Control_c, 4, 11, 125
7, 95514, Control_c, 4, 11, 126
7, 95520, Note_on_c, 4, 59, 0
7, 95520, Note_on_c, 4, 62, 0
7, 95520, Control_c, 4, 11, 127
7, 95520, Note_on_c, 4, 60, 62
7, 95520, Note_on_c, 4, 63, 58
7, 95856, Note_on_c, 4, 60, 0
7, 95856, Note_on_c, 4, 63, 0
7, 95904, Note_on_c, 4, 63, 40
7, 95934, Note_on_c, 4, 63, 0
7, 95936, Note_on_c, 4, 64, 47
7, 95966, Note_on_c, 4, 64, 0
7, 95968, Note_on_c, 4, 63, 45
7, 95998, Note_on_c, 4, 63, 0
7, 96000, Note_on_c, 4, 64, 43
7, 96030, Note_on_c, 4, 64, 0
7, 96032, Note_on_c, 4, 63, 47
7, 96062, Note_on_c, 4, 63, 0
7, 96064, Note_on_c, 4, 64, 42
7, 96094, Note_on_c, 4, 64, 0
7, 96096, Note_on_c, 4, 63, 45
7, 96126, Note_on_c, 4, 63, 0
7, 96128, Note_on_c, 4, 64, 44
7, 96158, Note_on_c, 4, 64, 0
7, 96160, Note_on_c, 4, 63, 41
7, 96190, Note_on_c, 4, 63, 0
7, 96192, Note_on_c, 4, 64, 40
7, 96222, Note_on_c, 4, 64, 0
7, 96224, Note_on_c, 4, 63, 50
7, 96254, Note_on_c, 4, 63, 0
7, 96256, Note_on_c, 4, 64, 58
7, 96286, Note_on_c, 4, 64, 0
7, 96288, Note_on_c, 4, 62, 59
7, 96334, Note_on_c, 4, 62, 0
7, 96336, Note_on_c, 4, 63, 76
7, 96384, Note_on_c, 4, 63, 0
7, 96480, Note_on_c, 4, 63, 45
7, 96510, Note_on_c, 4, 63, 0
7, 96512, Note_on_c, 4, 64, 41
7, 96542, Note_on_c, 4, 64, 0
7, 96544, Note_on_c, 4, 63, 41
7, 96574, Note_on_c, 4, 63, 0
7, 96576, Note_on_c, 4, 64, 49
7, 96606, Note_on_c, 4, 64, 0
7, 96608, Note_on_c, 4, 63, 44
7, 96638, Note_on_c, 4, 63, 0
7, 96640, Note_on_c, 4, 64, 42
7, 96670, Note_on_c, 4, 64, 0
7, 96672, Note_on_c, 4, 63, 50
7, 96702, Note_on_c, 4, 63, 0
7, 96704, Note_on_c, 4, 64, 40
7, 96734, Note_on_c, 4, 64, 0
7, 96736, Note_on_c, 4, 63, 43
7, 96766, Note_on_c, 4, 63, 0
7, 96768, Note_on_c, 4, 64, 50
7, 96798, Note_on_c, 4, 64, 0
7, 96800, Note_on_c, 4, 63, 52
7, 96830, Note_on_c, 4, 63, 0
7, 96832, Note_on_c, 4, 64, 61
7, 96862, Note_on_c, 4, 64, 0
7, 96864, Note_on_c, 4, 62, 65
7, 96910, Note_on_c, 4, 62, 0
7, 96912, Note_on_c, 4, 63, 78
7, 96960, Note_on_c, 4, 63, 0
7, 97056, Note_on_c, 4, 63, 41
7, 97310, Note_on_c, 4, 63, 0
7, 97312, Note_on_c, 4, 64, 52
7, 97374, Note_on_c, 4, 64, 0
7, 97376, Note_on_c, 4, 66, 52
7, 97418, Note_on_c, 4, 66, 0
7, 97440, Note_on_c, 4, 66, 55
7, 97482, Note_on_c, 4, 66, 0
7, 97504, Note_on_c, 4, 64, 56
7, 97566, Note_on_c, 4, 64, 0
7, 97568, Note_on_c, 4, 63, 56
7, 97630, Note_on_c, 4, 63, 0
7, 97632, Note_on_c, 4, 63, 62
7, 97646, Note_on_c, 4, 63, 0
7, 97648, Note_on_c, 4, 61, 57
7, 97694, Note_on_c, 4, 61, 0
7, 97696, Note_on_c, 4, 59, 58
7, 97738, Note_on_c, 4, 59, 0
7, 97760, Note_on_c, 4, 59, 56
7, 97802, Note_on_c, 4, 59, 0
7, 97824, Note_on_c, 4, 59, 59
7, 97886, Note_on_c, 4, 59, 0
7, 97888, Note_on_c, 4, 58, 68
7, 97930, Note_on_c, 4, 58, 0
7, 97952, Note_on_c, 4, 58, 67
7, 97994, Note_on_c, 4, 58, 0
7, 98016, Note_on_c, 4, 56, 74
7, 98030, Note_on_c, 4, 56, 0
7, 98032, Note_on_c, 4, 58, 68
7, 98078, Note_on_c, 4, 58, 0
7, 98080, Note_on_c, 4, 59, 75
7, 98142, Note_on_c, 4, 59, 0
7, 98144, Note_on_c, 4, 61, 71
7, 98206, Note_on_c, 4, 61, 0
7, 98208, Note_on_c, 4, 63, 49
7, 98238, Note_on_c, 4, 63, 0
7, 98240, Note_on_c, 4, 64, 41
7, 98270, Note_on_c, 4, 64, 0
7, 98272, Note_on_c, 4, 63, 46
7, 98302, Note_on_c, 4, 63, 0
7, 98304, Note_on_c, 4, 64, 45
7, 98334, Note_on_c, 4, 64, 0
7, 98336, Note_on_c, 4, 63, 45
7, 98366, Note_on_c, 4, 63, 0
7, 98368, Note_on_c, 4, 64, 45
7, 98398, Note_on_c, 4, 64, 0
7, 98400, Note_on_c, 4, 63, 41
7, 98430, Note_on_c, 4, 63, 0
7, 98432, Note_on_c, 4, 64, 48
7, 98462, Note_on_c, 4, 64, 0
7, 98464, Note_on_c, 4, 63, 48
7, 98494, Note_on_c, 4, 63, 0
7, 98496, Note_on_c, 4, 64, 43
7, 98526, Note_on_c, 4, 64, 0
7, 98528, Note_on_c, 4, 63, 50
7, 98558, Note_on_c, 4, 63, 0
7, 98560, Note_on_c, 4, 64, 58
7, 98590, Note_on_c, 4, 64, 0
7, 98592, Note_on_c, 4, 62, 60
7, 98638, Note_on_c, 4, 62, 0
7, 98640, Note_on_c, 4, 63, 74
7, 98688, Note_on_c, 4, 63, 0
7, 98784, Note_on_c, 4, 63, 43
7, 98814, Note_on_c, 4, 63, 0
7, 98816, Note_on_c, 4, 64, 40
7, 98846, Note_on_c, 4, 64, 0
7, 98848, Note_on_c, 4, 63, 41
7, 98878, Note_on_c, 4, 63, 0
7, 98880, Note_on_c, 4, 64, 44
7, 98910, Note_on_c, 4, 64, 0
7, 98912, Note_on_c, 4, 63, 41
7, 98942, Note_on_c, 4, 63, 0
7, 98944, Note_on_c, 4, 64, 42
7, 98974, Note_on_c, 4, 64, 0
7, 98976, Note_on_c, 4, 63, 46
7, 99006, Note_on_c, 4, 63, 0
7, 99008, Note_on_c, 4, 64, 50
7, 99038, Note_on_c, 4, 64, 0
7, 99040, Note_on_c, 4, 63, 41
7, 99070, Note_on_c, 4, 63, 0
7, 99072, Note_on_c, 4, 64, 49
7, 99102, Note_on_c, 4, 64, 0
7, 99104, Note_on_c, 4, 63, 50
7, 99134, Note_on_c, 4, 63, 0
7, 99136, Note_on_c, 4, 64, 60
7, 99166, Note_on_c, 4, 64, 0
7, 99168, Note_on_c, 4, 62, 69
7, 99214, Note_on_c, 4, 62, 0
7, 99216, Note_on_c, 4, 63, 79
7, 99264, Note_on_c, 4, 63, 0
7, 99360, Note_on_c, 4, 63, 47
7, 99614, Note_on_c, 4, 63, 0
7, 99616, Note_on_c, 4, 64, 48
7, 99678, Note_on_c, 4, 64, 0
7, 99680, Note_on_c, 4, 66, 54
7, 99722, Note_on_c, 4, 66, 0
7, 99744, Note_on_c, 4, 66, 55
7, 99786, Note_on_c, 4, 66, 0
7, 99808, Note_on_c, 4, 64, 50
7, 99870, Note_on_c, 4, 64, 0
7, 99872, Note_on_c, 4, 63, 53
7, 99934, Note_on_c, 4, 63, 0
7, 99936, Note_on_c, 4, 63, 54
7, 99950, Note_on_c, 4, 63, 0
7, 99952, Note_on_c, 4, 61, 52
7, 99998, Note_on_c, 4, 61, 0
7, 100000, Note_on_c, 4, 59, 56
7, 100042, Note_on_c, 4, 59, 0
7, 100064, Note_on_c, 4, 59, 61
7, 100106, Note_on_c, 4, 59, 0
7, 100128, Note_on_c, 4, 59, 57
7, 100190, Note_on_c, 4, 59, 0
7, 100192, Note_on_c, 4, 58, 69
7, 100234, Note_on_c, 4, 58, 0
7, 100256, Note_on_c, 4, 58, 69
7, 100298, Note_on_c, 4, 58, 0
7, 100320, Note_on_c, 4, 56, 70
7, 100334, Note_on_c, 4, 56, 0
7, 100336, Note_on_c, 4, 58, 73
7, 100382, Note_on_c, 4, 58, 0
7, 100384, Note_on_c, 4, 59, 67
7, 100446, Note_on_c, 4, 59, 0
7, 100448, Note_on_c, 4, 61, 74
7, 100510, Note_on_c, 4, 61, 0
7, 101088, Control_c, 4, 11, 127
7, 101664, Note_on_c, 4, 61, 50
7, 101664, Note_on_c, 4, 64, 46
7, 101726, Note_on_c, 4, 61, 0
7, 101726, Note_on_c, 4, 64, 0
7, 101728, Note_on_c, 4, 63, 54
7, 101728, Note_on_c, 4, 66, 60
7, 101790, Note_on_c, 4, 63, 0
7, 101790, Note_on_c, 4, 66, 0
7, 101792, Note_on_c, 4, 64, 64
7, 101792, Note_on_c, 4, 68, 67
7, 101854, Note_on_c, 4, 64, 0
7, 101854, Note_on_c, 4, 68, 0
7, 101856, Note_on_c, 4, 66, 71
7, 101856, Note_on_c, 4, 69, 74
7, 101888, Note_on_c, 4, 66, 0
7, 101888, Note_on_c, 4, 69, 0
7, 102240, Note_on_c, 4, 64, 47
7, 102240, Note_on_c, 4, 68, 43
7, 102302, Note_on_c, 4, 64, 0
7, 102302, Note_on_c, 4, 68, 0
7, 102304, Note_on_c, 4, 66, 60
7, 102304, Note_on_c, 4, 69, 57
7, 102366, Note_on_c, 4, 66, 0
7, 102366, Note_on_c, 4, 69, 0
7, 102368, Note_on_c, 4, 68, 62
7, 102368, Note_on_c, 4, 71, 61
7, 102430, Note_on_c, 4, 68, 0
7, 102430, Note_on_c, 4, 71, 0
7, 102432, Note_on_c, 4, 69, 79
7, 102432, Note_on_c, 4, 73, 76
7, 102464, Note_on_c, 4, 69, 0
7, 102464, Note_on_c, 4, 73, 0
7, 107424, Note_on_c, 4, 63, 88
7, 107808, Note_on_c, 4, 63, 0
7, 107808, Note_on_c, 4, 66, 93
7, 108192, Note_on_c, 4, 66, 0
7, 108192, Note_on_c, 4, 65, 88
7, 108528, Note_on_c, 4, 65, 0
7, 108576, Note_on_c, 4, 63, 89
7, 108960, Note_on_c, 4, 63, 0
7, 108960, Note_on_c, 4, 68, 91
7, 109344, Note_on_c, 4, 68, 0
7, 109344, Note_on_c, 4, 66, 89
7, 109680, Note_on_c, 4, 66, 0
7, 109728, Note_on_c, 4, 65, 91
7, 110832, Note_on_c, 4, 65, 0
7, 110880, Note_on_c, 4, 62, 92
7, 111408, Note_on_c, 4, 62, 0
7, 111456, Note_on_c, 4, 65, 95
7, 111984, Note_on_c, 4, 65, 0
7, 112032, Note_on_c, 4, 63, 97
7, 112416, Note_on_c, 4, 63, 0
7, 112416, Note_on_c, 4, 66, 91
7, 112800, Note_on_c, 4, 66, 0
7, 112800, Note_on_c, 4, 65, 93
7, 113136, Note_on_c, 4, 65, 0
7, 113184, Note_on_c, 4, 63, 88
7, 113568, Note_on_c, 4, 63, 0
7, 113568, Note_on_c, 4, 68, 92
7, 113952, Note_on_c, 4, 68, 0
7, 113952, Note_on_c, 4, 66, 91
7, 114288, Note_on_c, 4, 66, 0
7, 114336, Note_on_c, 4, 65, 93
7, 115440, Note_on_c, 4, 65, 0
7, 115488, Control_c, 4, 11, 75
7, 115488, Note_on_c, 4, 62, 104
7, 115510, Control_c, 4, 11, 76
7, 115532, Control_c, 4, 11, 77
7, 115554, Control_c, 4, 11, 78
7, 115576, Control_c, 4, 11, 79
7, 115598, Control_c, 4, 11, 80
7, 115620, Control_c, 4, 11, 81
7, 115643, Control_c, 4, 11, 82
7, 115665, Control_c, 4, 11, 83
7, 115687, Control_c, 4, 11, 84
7, 115709, Control_c, 4, 11, 85
7, 115731, Control_c, 4, 11, 86
7, 115753, Control_c, 4, 11, 87
7, 115776, Control_c, 4, 11, 88
7, 115798, Control_c, 4, 11, 89
7, 115820, Control_c, 4, 11, 90
7, 115842, Control_c, 4, 11, 91
7, 115864, Control_c, 4, 11, 92
7, 115886, Control_c, 4, 11, 93
7, 115908, Control_c, 4, 11, 94
7, 115931, Control_c, 4, 11, 95
7, 115953, Control_c, 4, 11, 96
7, 115975, Control_c, 4, 11, 97
7, 115997, Control_c, 4, 11, 98
7, 116016, Note_on_c, 4, 62, 0
7, 116019, Control_c, 4, 11, 99
7, 116041, Control_c, 4, 11, 100
7, 116064, Control_c, 4, 11, 101
7, 116064, Note_on_c, 4, 65, 107
7, 116086, Control_c, 4, 11, 102
7, 116108, Control_c, 4, 11, 103
7, 116130, Control_c, 4, 11, 104
7, 116152, Control_c, 4, 11, 105
7, 116174, Control_c, 4, 11, 106
7, 116196, Control_c, 4, 11, 107
7, 116219, Control_c, 4, 11, 108
7, 116241, Control_c, 4, 11, 109
7, 116263, Control_c, 4, 11, 110
7, 116285, Control_c, 4, 11, 111
7, 116307, Control_c, 4, 11, 112
7, 116329, Control_c, 4, 11, 113
7, 116352, Control_c, 4, 11, 114
7, 116374, Control_c, 4, 11, 115
7, 116396, Control_c, 4, 11, 116
7, 116418, Control_c, 4, 11, 117
7, 116440, Control_c, 4, 11, 118
7, 116462, Control_c, 4, 11, 119
7, 116484, Control_c, 4, 11, 120
7, 116507, Control_c, 4, 11, 121
7, 116529, Control_c, 4, 11, 122
7, 116551, Control_c, 4, 11, 123
7, 116573, Control_c, 4, 11, 124
7, 116592, Note_on_c, 4, 65, 0
7, 116595, Control_c, 4, 11, 125
7, 116617, Control_c, 4, 11, 126
7, 116640, Control_c, 4, 11, 127
7, 116640, Control_c, 4, 7, 92
7, 116640, Note_on_c, 4, 34, 113
7, 116640, Note_on_c, 4, 46, 105
7, 116640, Note_on_c, 4, 53, 103
7, 118896, Note_on_c, 4, 34, 0
7, 118896, Note_on_c, 4, 46, 0
7, 118896, Note_on_c, 4, 53, 0
7, 118944, Control_c, 4, 7, 127
7, 118944, Note_on_c, 4, 44, 96
7, 120096, Note_on_c, 4, 44, 0
7, 120096, Control_c, 4, 11, 127
7, 120096, Note_on_c, 4, 41, 91
7, 120119, Control_c, 4, 11, 126
7, 120143, Control_c, 4, 11, 125
7, 120167, Control_c, 4, 11, 124
7, 120191, Control_c, 4, 11, 123
7, 120214, Control_c, 4, 11, 122
7, 120238, Control_c, 4, 11, 121
7, 120262, Control_c, 4, 11, 120
7, 120286, Control_c, 4, 11, 119
7, 120309, Control_c, 4, 11, 118
7, 120333, Control_c, 4, 11, 117
7, 120357, Control_c, 4, 11, 116
7, 120381, Control_c, 4, 11, 115
7, 120404, Control_c, 4, 11, 114
7, 120428, Control_c, 4, 11, 113
7, 120452, Control_c, 4, 11, 112
7, 120476, Control_c, 4, 11, 111
7, 120499, Control_c, 4, 11, 110
7, 120523, Control_c, 4, 11, 109
7, 120547, Control_c, 4, 11, 108
7, 120571, Control_c, 4, 11, 107
7, 120594, Control_c, 4, 11, 106
7, 120618, Control_c, 4, 11, 105
7, 120642, Control_c, 4, 11, 104
7, 120666, Control_c, 4, 11, 103
7, 120689, Control_c, 4, 11, 102
7, 120713, Control_c, 4, 11, 101
7, 120737, Control_c, 4, 11, 100
7, 120761, Control_c, 4, 11, 99
7, 120784, Control_c, 4, 11, 98
7, 120808, Control_c, 4, 11, 97
7, 120832, Control_c, 4, 11, 96
7, 120856, Control_c, 4, 11, 95
7, 120879, Control_c, 4, 11, 94
7, 120903, Control_c, 4, 11, 93
7, 120927, Control_c, 4, 11, 92
7, 120951, Control_c, 4, 11, 91
7, 120974, Control_c, 4, 11, 90
7, 120998, Control_c, 4, 11, 89
7, 121022, Control_c, 4, 11, 88
7, 121046, Control_c, 4, 11, 87
7, 121069, Control_c, 4, 11, 86
7, 121093, Control_c, 4, 11, 85
7, 121117, Control_c, 4, 11, 84
7, 121141, Control_c, 4, 11, 83
7, 121164, Control_c, 4, 11, 82
7, 121188, Control_c, 4, 11, 81
7, 121200, Note_on_c, 4, 41, 0
7, 121212, Control_c, 4, 11, 80
7, 121236, Control_c, 4, 11, 79
7, 121248, Note_on_c, 4, 44, 87
7, 121259, Control_c, 4, 11, 78
7, 121283, Control_c, 4, 11, 77
7, 121307, Control_c, 4, 11, 76
7, 121331, Control_c, 4, 11, 75
7, 121354, Control_c, 4, 11, 74
7, 121378, Control_c, 4, 11, 73
7, 121402, Control_c, 4, 11, 72
7, 121426, Control_c, 4, 11, 71
7, 121449, Control_c, 4, 11, 70
7, 121473, Control_c, 4, 11, 69
7, 121497, Control_c, 4, 11, 68
7, 121521, Control_c, 4, 11, 67
7, 121544, Control_c, 4, 11, 66
7, 121568, Control_c, 4, 11, 65
7, 121592, Control_c, 4, 11, 64
7, 121616, Control_c, 4, 11, 63
7, 121639, Control_c, 4, 11, 62
7, 121663, Control_c, 4, 11, 61
7, 121687, Control_c, 4, 11, 60
7, 121711, Control_c, 4, 11, 59
7, 121734, Control_c, 4, 11, 58
7, 121758, Control_c, 4, 11, 57
7, 121782, Control_c, 4, 11, 56
7, 121806, Control_c, 4, 11, 55
7, 121824, Note_on_c, 4, 44, 0
7, 121824, Note_on_c, 4, 41, 91
7, 121829, Control_c, 4, 11, 54
7, 121853, Control_c, 4, 11, 53
7, 121877, Control_c, 4, 11, 52
7, 121901, Control_c, 4, 11, 51
7, 121924, Control_c, 4, 11, 50
7, 121948, Control_c, 4, 11, 49
7, 121972, Control_c, 4, 11, 48
7, 121996, Control_c, 4, 11, 47
7, 122019, Control_c, 4, 11, 46
7, 122043, Control_c, 4, 11, 45
7, 122067, Control_c, 4, 11, 44
7, 122091, Control_c, 4, 11, 43
7, 122114, Control_c, 4, 11, 42
7, 122138, Control_c, 4, 11, 41
7, 122162, Control_c, 4, 11, 40
7, 122186, Control_c, 4, 11, 39
7, 122209, Control_c, 4, 11, 38
7, 122233, Control_c, 4, 11, 37
7, 122257, Control_c, 4, 11, 36
7, 122281, Control_c, 4, 11, 35
7, 122304, Control_c, 4, 11, 34
7, 122328, Control_c, 4, 11, 33
7, 122352, Control_c, 4, 11, 32
7, 122376, Control_c, 4, 11, 31
7, 122400, Note_on_c, 4, 41, 0
7, 122400, Control_c, 4, 11, 30
7, 122400, Note_on_c, 4, 40, 87
7, 122560, Note_on_c, 4, 40, 0
7, 122976, Control_c, 4, 11, 127
7, 126432, Control_c, 4, 11, 127
7, 126432, Note_on_c, 4, 53, 43
7, 126432, Note_on_c, 4, 57, 40
7, 126448, Control_c, 4, 11, 126
7, 126464, Control_c, 4, 11, 125
7, 126481, Control_c, 4, 11, 124
7, 126497, Control_c, 4, 11, 123
7, 126514, Control_c, 4, 11, 122
7, 126530, Control_c, 4, 11, 121
7, 126547, Control_c, 4, 11, 120
7, 126563, Control_c, 4, 11, 119
7, 126580, Control_c, 4, 11, 118
7, 126596, Control_c, 4, 11, 117
7, 126613, Control_c, 4, 11, 116
7, 126629, Control_c, 4, 11, 115
7, 126645, Control_c, 4, 11, 114
7, 126662, Control_c, 4, 11, 113
7, 126678, Control_c, 4, 11, 112
7, 126695, Control_c, 4, 11, 111
7, 126711, Control_c, 4, 11, 110
7, 126728, Control_c, 4, 11, 109
7, 126744, Control_c, 4, 11, 108
7, 126761, Control_c, 4, 11, 107
7, 126777, Control_c, 4, 11, 106
7, 126794, Control_c, 4, 11, 105
7, 126810, Control_c, 4, 11, 104
7, 126816, Note_on_c, 4, 53, 0
7, 126816, Note_on_c, 4, 57, 0
7, 126816, Note_on_c, 4, 52, 44
7, 126816, Note_on_c, 4, 56, 42
7, 126826, Control_c, 4, 11, 103
7, 126843, Control_c, 4, 11, 102
7, 126859, Control_c, 4, 11, 101
7, 126876, Control_c, 4, 11, 100
7, 126892, Control_c, 4, 11, 99
7, 126909, Control_c, 4, 11, 98
7, 126912, Note_on_c, 4, 52, 0
7, 126912, Note_on_c, 4, 56, 0
7, 126912, Note_on_c, 4, 51, 40
7, 126912, Note_on_c, 4, 55, 40
7, 126925, Control_c, 4, 11, 97
7, 126942, Control_c, 4, 11, 96
7, 126958, Control_c, 4, 11, 95
7, 126975, Control_c, 4, 11, 94
7, 126991, Control_c, 4, 11, 93
7, 127008, Note_on_c, 4, 51, 0
7, 127008, Note_on_c, 4, 55, 0
7, 127008, Control_c, 4, 11, 92
7, 127008, Note_on_c, 4, 50, 45
7, 127008, Note_on_c, 4, 54, 41
7, 127102, Note_on_c, 4, 50, 0
7, 127102, Note_on_c, 4, 54, 0
7, 129888, Control_c, 4, 11, 127
7, 129888, End_track
8, 0, Start_track
8, 0, Title_t, "Corni I - II"
8, 0, MIDI_port, 0
8, 121, Control_c, 5, 0, 0
8, 122, Control_c, 5, 32, 0
8, 123, Program_c, 5, 60
8, 124, Control_c, 5, 7, 127
8, 125, Control_c, 5, 10, 44
8, 126, Control_c, 5, 91, 96
8, 5280, Note_on_c, 5, 57, 33
8, 5280, Note_on_c, 5, 66, 30
8, 5302, Note_on_c, 5, 57, 0
8, 5302, Note_on_c, 5, 66, 0
8, 5304, Note_on_c, 5, 55, 31
8, 5304, Note_on_c, 5, 64, 26
8, 5470, Note_on_c, 5, 55, 0
8, 5470, Note_on_c, 5, 64, 0
8, 6144, Control_c, 5, 11, 127
8, 6144, Note_on_c, 5, 57, 26
8, 6144, Note_on_c, 5, 66, 33
8, 6146, Control_c, 5, 11, 126
8, 6149, Control_c, 5, 11, 125
8, 6152, Control_c, 5, 11, 124
8, 6154, Control_c, 5, 11, 123
8, 6157, Control_c, 5, 11, 122
8, 6160, Control_c, 5, 11, 121
8, 6163, Control_c, 5, 11, 120
8, 6165, Control_c, 5, 11, 119
8, 6166, Note_on_c, 5, 57, 0
8, 6166, Note_on_c, 5, 66, 0
8, 6168, Control_c, 5, 11, 118
8, 6168, Note_on_c, 5, 55, 32
8, 6168, Note_on_c, 5, 64, 33
8, 6171, Control_c, 5, 11, 117
8, 6174, Control_c, 5, 11, 116
8, 6176, Control_c, 5, 11, 115
8, 6179, Control_c, 5, 11, 114
8, 6182, Control_c, 5, 11, 113
8, 6185, Control_c, 5, 11, 112
8, 6187, Control_c, 5, 11, 111
8, 6190, Control_c, 5, 11, 110
8, 6193, Control_c, 5, 11, 109
8, 6196, Control_c, 5, 11, 108
8, 6198, Control_c, 5, 11, 107
8, 6201, Control_c, 5, 11, 106
8, 6204, Control_c, 5, 11, 105
8, 6207, Control_c, 5, 11, 104
8, 6209, Control_c, 5, 11, 103
8, 6212, Control_c, 5, 11, 102
8, 6215, Control_c, 5, 11, 101
8, 6218, Control_c, 5, 11, 100
8, 6220, Control_c, 5, 11, 99
8, 6223, Control_c, 5, 11, 98
8, 6226, Control_c, 5, 11, 97
8, 6229, Control_c, 5, 11, 96
8, 6231, Control_c, 5, 11, 95
8, 6234, Control_c, 5, 11, 94
8, 6237, Control_c, 5, 11, 93
8, 6240, Control_c, 5, 11, 92
8, 6334, Note_on_c, 5, 55, 0
8, 6334, Note_on_c, 5, 64, 0
8, 6720, Control_c, 5, 11, 127
8, 6720, Note_on_c, 5, 57, 34
8, 6720, Note_on_c, 5, 66, 33
8, 6722, Control_c, 5, 11, 126
8, 6725, Control_c, 5, 11, 125
8, 6728, Control_c, 5, 11, 124
8, 6730, Control_c, 5, 11, 123
8, 6733, Control_c, 5, 11, 122
8, 6736, Control_c, 5, 11, 121
8, 6739, Control_c, 5, 11, 120
8, 6741, Control_c, 5, 11, 119
8, 6742, Note_on_c, 5, 57, 0
8, 6742, Note_on_c, 5, 66, 0
8, 6744, Control_c, 5, 11, 118
8, 6744, Note_on_c, 5, 55, 32
8, 6744, Note_on_c, 5, 64, 32
8, 6747, Control_c, 5, 11, 117
8, 6750, Control_c, 5, 11, 116
8, 6752, Control_c, 5, 11, 115
8, 6755, Control_c, 5, 11, 114
8, 6758, Control_c, 5, 11, 113
8, 6761, Control_c, 5, 11, 112
8, 6763, Control_c, 5, 11, 111
8, 6766, Control_c, 5, 11, 110
8, 6769, Control_c, 5, 11, 109
8, 6772, Control_c, 5, 11, 108
8, 6774, Control_c, 5, 11, 107
8, 6777, Control_c, 5, 11, 106
8, 6780, Control_c, 5, 11, 105
8, 6783, Control_c, 5, 11, 104
8, 6785, Control_c, 5, 11, 103
8, 6788, Control_c, 5, 11, 102
8, 6791, Control_c, 5, 11, 101
8, 6794, Control_c, 5, 11, 100
8, 6796, Control_c, 5, 11, 99
8, 6799, Control_c, 5, 11, 98
8, 6802, Control_c, 5, 11, 97
8, 6805, Control_c, 5, 11, 96
8, 6807, Control_c, 5, 11, 95
8, 6810, Control_c, 5, 11, 94
8, 6813, Control_c, 5, 11, 93
8, 6816, Control_c, 5, 11, 92
8, 6910, Note_on_c, 5, 55, 0
8, 6910, Note_on_c, 5, 64, 0
8, 7200, Control_c, 5, 11, 127
8, 8352, Note_on_c, 5, 65, 30
8, 8734, Note_on_c, 5, 65, 0
8, 8928, Note_on_c, 5, 65, 27
8, 9310, Note_on_c, 5, 65, 0
8, 11232, Control_c, 5, 11, 127
8, 11232, Note_on_c, 5, 64, 93
8, 11326, Note_on_c, 5, 64, 0
8, 11328, Note_on_c, 5, 63, 95
8, 11422, Note_on_c, 5, 63, 0
8, 11424, Note_on_c, 5, 62, 103
8, 11424, Note_on_c, 5, 68, 107
8, 11680, Note_on_c, 5, 62, 0
8, 11680, Note_on_c, 5, 68, 0
8, 11808, Note_on_c, 5, 64, 113
8, 11902, Note_on_c, 5, 64, 0
8, 11904, Note_on_c, 5, 63, 106
8, 11998, Note_on_c, 5, 63, 0
8, 12000, Note_on_c, 5, 62, 106
8, 12000, Note_on_c, 5, 68, 111
8, 12256, Note_on_c, 5, 62, 0
8, 12256, Note_on_c, 5, 68, 0
8, 14112, Control_c, 5, 11, 127
8, 14688, Note_on_c, 5, 28, 46
8, 15792, Note_on_c, 5, 28, 0
8, 16992, Note_on_c, 5, 28, 40
8, 18096, Note_on_c, 5, 28, 0
8, 21600, Control_c, 5, 11, 127
8, 21696, Note_on_c, 5, 53, 44
8, 21696, Note_on_c, 5, 61, 47
8, 21888, Note_on_c, 5, 53, 0
8, 21888, Note_on_c, 5, 61, 0
8, 21888, Note_on_c, 5, 55, 47
8, 21888, Note_on_c, 5, 63, 43
8, 21984, Note_on_c, 5, 55, 0
8, 21984, Note_on_c, 5, 63, 0
8, 21984, Note_on_c, 5, 57, 46
8, 21984, Note_on_c, 5, 65, 49
8, 22080, Note_on_c, 5, 57, 0
8, 22080, Note_on_c, 5, 65, 0
8, 22080, Note_on_c, 5, 55, 49
8, 22080, Note_on_c, 5, 63, 41
8, 22176, Note_on_c, 5, 55, 0
8, 22176, Note_on_c, 5, 63, 0
8, 22176, Note_on_c, 5, 54, 47
8, 22176, Note_on_c, 5, 62, 47
8, 22272, Note_on_c, 5, 54, 0
8, 22272, Note_on_c, 5, 62, 0
8, 22272, Note_on_c, 5, 53, 47
8, 22272, Note_on_c, 5, 61, 51
8, 22368, Note_on_c, 5, 53, 0
8, 22368, Note_on_c, 5, 61, 0
8, 22368, Note_on_c, 5, 56, 61
8, 22368, Note_on_c, 5, 64, 60
8, 22560, Note_on_c, 5, 56, 0
8, 22560, Note_on_c, 5, 64, 0
8, 22560, Note_on_c, 5, 59, 73
8, 22560, Note_on_c, 5, 67, 72
8, 22720, Note_on_c, 5, 59, 0
8, 22720, Note_on_c, 5, 67, 0
8, 24000, Note_on_c, 5, 53, 41
8, 24000, Note_on_c, 5, 61, 45
8, 24192, Note_on_c, 5, 53, 0
8, 24192, Note_on_c, 5, 61, 0
8, 24192, Note_on_c, 5, 55, 45
8, 24192, Note_on_c, 5, 63, 47
8, 24288, Note_on_c, 5, 55, 0
8, 24288, Note_on_c, 5, 63, 0
8, 24288, Note_on_c, 5, 57, 45
8, 24288, Note_on_c, 5, 65, 42
8, 24384, Note_on_c, 5, 57, 0
8, 24384, Note_on_c, 5, 65, 0
8, 24384, Note_on_c, 5, 55, 44
8, 24384, Note_on_c, 5, 63, 49
8, 24480, Note_on_c, 5, 55, 0
8, 24480, Note_on_c, 5, 63, 0
8, 24480, Note_on_c, 5, 54, 46
8, 24480, Note_on_c, 5, 62, 45
8, 24576, Note_on_c, 5, 54, 0
8, 24576, Note_on_c, 5, 62, 0
8, 24576, Note_on_c, 5, 53, 50
8, 24576, Note_on_c, 5, 61, 52
8, 24672, Note_on_c, 5, 53, 0
8, 24672, Note_on_c, 5, 61, 0
8, 24672, Note_on_c, 5, 56, 56
8, 24672, Note_on_c, 5, 64, 58
8, 24864, Note_on_c, 5, 56, 0
8, 24864, Note_on_c, 5, 64, 0
8, 24864, Note_on_c, 5, 59, 75
8, 24864, Note_on_c, 5, 67, 70
8, 25024, Note_on_c, 5, 59, 0
8, 25024, Note_on_c, 5, 67, 0
8, 25056, Control_c, 5, 11, 92
8, 25056, Note_on_c, 5, 63, 91
8, 25056, Note_on_c, 5, 73, 95
8, 25083, Control_c, 5, 11, 93
8, 25110, Control_c, 5, 11, 94
8, 25138, Control_c, 5, 11, 95
8, 25165, Control_c, 5, 11, 96
8, 25193, Control_c, 5, 11, 97
8, 25220, Control_c, 5, 11, 98
8, 25248, Control_c, 5, 11, 99
8, 25275, Control_c, 5, 11, 100
8, 25302, Control_c, 5, 11, 101
8, 25330, Control_c, 5, 11, 102
8, 25344, Note_on_c, 5, 63, 0
8, 25344, Note_on_c, 5, 73, 0
8, 25344, Note_on_c, 5, 62, 92
8, 25344, Note_on_c, 5, 71, 97
8, 25357, Control_c, 5, 11, 103
8, 25385, Control_c, 5, 11, 104
8, 25412, Control_c, 5, 11, 105
8, 25440, Note_on_c, 5, 62, 0
8, 25440, Note_on_c, 5, 71, 0
8, 25440, Control_c, 5, 11, 106
8, 25440, Note_on_c, 5, 61, 94
8, 25440, Note_on_c, 5, 68, 97
8, 25467, Control_c, 5, 11, 107
8, 25494, Control_c, 5, 11, 108
8, 25522, Control_c, 5, 11, 109
8, 25536, Note_on_c, 5, 61, 0
8, 25536, Note_on_c, 5, 68, 0
8, 25536, Note_on_c, 5, 62, 90
8, 25536, Note_on_c, 5, 71, 96
8, 25549, Control_c, 5, 11, 110
8, 25577, Control_c, 5, 11, 111
8, 25604, Control_c, 5, 11, 112
8, 25632, Note_on_c, 5, 62, 0
8, 25632, Note_on_c, 5, 71, 0
8, 25632, Control_c, 5, 11, 113
8, 25632, Note_on_c, 5, 63, 95
8, 25632, Note_on_c, 5, 73, 96
8, 25659, Control_c, 5, 11, 114
8, 25686, Control_c, 5, 11, 115
8, 25714, Control_c, 5, 11, 116
8, 25728, Note_on_c, 5, 63, 0
8, 25728, Note_on_c, 5, 73, 0
8, 25728, Note_on_c, 5, 62, 87
8, 25728, Note_on_c, 5, 71, 91
8, 25741, Control_c, 5, 11, 117
8, 25769, Control_c, 5, 11, 118
8, 25796, Control_c, 5, 11, 119
8, 25824, Note_on_c, 5, 62, 0
8, 25824, Note_on_c, 5, 71, 0
8, 25824, Control_c, 5, 11, 120
8, 25824, Note_on_c, 5, 61, 90
8, 25824, Note_on_c, 5, 68, 97
8, 25851, Control_c, 5, 11, 121
8, 25878, Control_c, 5, 11, 122
8, 25906, Control_c, 5, 11, 123
8, 25933, Control_c, 5, 11, 124
8, 25961, Control_c, 5, 11, 125
8, 25988, Control_c, 5, 11, 126
8, 26016, Note_on_c, 5, 61, 0
8, 26016, Note_on_c, 5, 68, 0
8, 26016, Control_c, 5, 11, 127
8, 26016, Note_on_c, 5, 60, 95
8, 26016, Note_on_c, 5, 69, 88
8, 26021, Control_c, 5, 11, 126
8, 26026, Control_c, 5, 11, 125
8, 26032, Control_c, 5, 11, 124
8, 26037, Control_c, 5, 11, 123
8, 26043, Control_c, 5, 11, 122
8, 26048, Control_c, 5, 11, 121
8, 26054, Control_c, 5, 11, 120
8, 26059, Control_c, 5, 11, 119
8, 26065, Control_c, 5, 11, 118
8, 26070, Control_c, 5, 11, 117
8, 26076, Control_c, 5, 11, 116
8, 26081, Control_c, 5, 11, 115
8, 26087, Control_c, 5, 11, 114
8, 26092, Control_c, 5, 11, 113
8, 26098, Control_c, 5, 11, 112
8, 26103, Control_c, 5, 11, 111
8, 26109, Control_c, 5, 11, 110
8, 26114, Control_c, 5, 11, 109
8, 26120, Control_c, 5, 11, 108
8, 26125, Control_c, 5, 11, 107
8, 26131, Control_c, 5, 11, 106
8, 26136, Control_c, 5, 11, 105
8, 26142, Control_c, 5, 11, 104
8, 26147, Control_c, 5, 11, 103
8, 26153, Control_c, 5, 11, 102
8, 26158, Control_c, 5, 11, 101
8, 26164, Control_c, 5, 11, 100
8, 26169, Control_c, 5, 11, 99
8, 26175, Control_c, 5, 11, 98
8, 26176, Note_on_c, 5, 60, 0
8, 26176, Note_on_c, 5, 69, 0
8, 26180, Control_c, 5, 11, 97
8, 26186, Control_c, 5, 11, 96
8, 26191, Control_c, 5, 11, 95
8, 26197, Control_c, 5, 11, 94
8, 26202, Control_c, 5, 11, 93
8, 26208, Control_c, 5, 11, 92
8, 26208, Note_on_c, 5, 58, 93
8, 26208, Note_on_c, 5, 66, 89
8, 26232, Control_c, 5, 11, 91
8, 26257, Control_c, 5, 11, 90
8, 26282, Control_c, 5, 11, 89
8, 26307, Control_c, 5, 11, 88
8, 26332, Control_c, 5, 11, 87
8, 26357, Control_c, 5, 11, 86
8, 26382, Control_c, 5, 11, 85
8, 26407, Control_c, 5, 11, 84
8, 26432, Control_c, 5, 11, 83
8, 26457, Control_c, 5, 11, 82
8, 26482, Control_c, 5, 11, 81
8, 26496, Note_on_c, 5, 58, 0
8, 26496, Note_on_c, 5, 66, 0
8, 26496, Note_on_c, 5, 53, 92
8, 26496, Note_on_c, 5, 65, 89
8, 26507, Control_c, 5, 11, 80
8, 26532, Control_c, 5, 11, 79
8, 26557, Control_c, 5, 11, 78
8, 26582, Control_c, 5, 11, 77
8, 26592, Note_on_c, 5, 53, 0
8, 26592, Note_on_c, 5, 65, 0
8, 26592, Note_on_c, 5, 54, 88
8, 26592, Note_on_c, 5, 61, 89
8, 26606, Control_c, 5, 11, 76
8, 26631, Control_c, 5, 11, 75
8, 26656, Control_c, 5, 11, 74
8, 26681, Control_c, 5, 11, 73
8, 26688, Note_on_c, 5, 54, 0
8, 26688, Note_on_c, 5, 61, 0
8, 26688, Note_on_c, 5, 55, 87
8, 26688, Note_on_c, 5, 66, 95
8, 26706, Control_c, 5, 11, 72
8, 26731, Control_c, 5, 11, 71
8, 26756, Control_c, 5, 11, 70
8, 26781, Control_c, 5, 11, 69
8, 26782, Note_on_c, 5, 55, 0
8, 26782, Note_on_c, 5, 66, 0
8, 26784, Note_on_c, 5, 58, 93
8, 26784, Note_on_c, 5, 66, 90
8, 26806, Control_c, 5, 11, 68
8, 26831, Control_c, 5, 11, 67
8, 26856, Control_c, 5, 11, 66
8, 26881, Control_c, 5, 11, 65
8, 26906, Control_c, 5, 11, 64
8, 26931, Control_c, 5, 11, 63
8, 26956, Control_c, 5, 11, 62
8, 26980, Control_c, 5, 11, 61
8, 27005, Control_c, 5, 11, 60
8, 27030, Control_c, 5, 11, 59
8, 27055, Control_c, 5, 11, 58
8, 27072, Note_on_c, 5, 58, 0
8, 27072, Note_on_c, 5, 66, 0
8, 27072, Note_on_c, 5, 53, 91
8, 27072, Note_on_c, 5, 65, 92
8, 27080, Control_c, 5, 11, 57
8, 27105, Control_c, 5, 11, 56
8, 27130, Control_c, 5, 11, 55
8, 27155, Control_c, 5, 11, 54
8, 27168, Note_on_c, 5, 53, 0
8, 27168, Note_on_c, 5, 65, 0
8, 27168, Note_on_c, 5, 54, 90
8, 27168, Note_on_c, 5, 61, 89
8, 27180, Control_c, 5, 11, 53
8, 27205, Control_c, 5, 11, 52
8, 27230, Control_c, 5, 11, 51
8, 27255, Control_c, 5, 11, 50
8, 27264, Note_on_c, 5, 54, 0
8, 27264, Note_on_c, 5, 61, 0
8, 27264, Note_on_c, 5, 57, 94
8, 27264, Note_on_c, 5, 65, 92
8, 27280, Control_c, 5, 11, 49
8, 27305, Control_c, 5, 11, 48
8, 27330, Control_c, 5, 11, 47
8, 27355, Control_c, 5, 11, 46
8, 27358, Note_on_c, 5, 57, 0
8, 27358, Note_on_c, 5, 65, 0
8, 27360, Note_on_c, 5, 53, 87
8, 27360, Note_on_c, 5, 61, 94
8, 27379, Control_c, 5, 11, 45
8, 27404, Control_c, 5, 11, 44
8, 27429, Control_c, 5, 11, 43
8, 27454, Control_c, 5, 11, 42
8, 27479, Control_c, 5, 11, 41
8, 27504, Control_c, 5, 11, 40
8, 27529, Control_c, 5, 11, 39
8, 27554, Control_c, 5, 11, 38
8, 27579, Control_c, 5, 11, 37
8, 27604, Control_c, 5, 11, 36
8, 27629, Control_c, 5, 11, 35
8, 27654, Control_c, 5, 11, 34
8, 27679, Control_c, 5, 11, 33
8, 27704, Control_c, 5, 11, 32
8, 27729, Control_c, 5, 11, 31
8, 27753, Control_c, 5, 11, 30
8, 27778, Control_c, 5, 11, 29
8, 27803, Control_c, 5, 11, 28
8, 27828, Control_c, 5, 11, 27
8, 27853, Control_c, 5, 11, 26
8, 27878, Control_c, 5, 11, 25
8, 27903, Control_c, 5, 11, 24
8, 27928, Control_c, 5, 11, 23
8, 27953, Control_c, 5, 11, 22
8, 27978, Control_c, 5, 11, 21
8, 28003, Control_c, 5, 11, 20
8, 28028, Control_c, 5, 11, 19
8, 28053, Control_c, 5, 11, 18
8, 28078, Control_c, 5, 11, 17
8, 28103, Control_c, 5, 11, 16
8, 28128, Control_c, 5, 11, 15
8, 28464, Note_on_c, 5, 53, 0
8, 28464, Note_on_c, 5, 61, 0
8, 28512, Control_c, 5, 11, 127
8, 29664, Note_on_c, 5, 54, 35
8, 29664, Note_on_c, 5, 64, 31
8, 30768, Note_on_c, 5, 54, 0
8, 30768, Note_on_c, 5, 64, 0
8, 30816, Control_c, 5, 11, 75
8, 30816, Note_on_c, 5, 70, 97
8, 30838, Control_c, 5, 11, 76
8, 30860, Control_c, 5, 11, 77
8, 30882, Control_c, 5, 11, 78
8, 30904, Control_c, 5, 11, 79
8, 30926, Control_c, 5, 11, 80
8, 30948, Control_c, 5, 11, 81
8, 30971, Control_c, 5, 11, 82
8, 30993, Control_c, 5, 11, 83
8, 31015, Control_c, 5, 11, 84
8, 31037, Control_c, 5, 11, 85
8, 31059, Control_c, 5, 11, 86
8, 31081, Control_c, 5, 11, 87
8, 31104, Note_on_c, 5, 70, 0
8, 31104, Control_c, 5, 11, 88
8, 31104, Note_on_c, 5, 69, 88
8, 31126, Control_c, 5, 11, 89
8, 31148, Control_c, 5, 11, 90
8, 31170, Control_c, 5, 11, 91
8, 31192, Control_c, 5, 11, 92
8, 31200, Note_on_c, 5, 69, 0
8, 31200, Note_on_c, 5, 67, 90
8, 31214, Control_c, 5, 11, 93
8, 31236, Control_c, 5, 11, 94
8, 31259, Control_c, 5, 11, 95
8, 31281, Control_c, 5, 11, 96
8, 31296, Note_on_c, 5, 67, 0
8, 31296, Note_on_c, 5, 65, 96
8, 31303, Control_c, 5, 11, 97
8, 31325, Control_c, 5, 11, 98
8, 31347, Control_c, 5, 11, 99
8, 31369, Control_c, 5, 11, 100
8, 31392, Note_on_c, 5, 65, 0
8, 31392, Control_c, 5, 11, 101
8, 31392, Note_on_c, 5, 70, 88
8, 31414, Control_c, 5, 11, 102
8, 31436, Control_c, 5, 11, 103
8, 31458, Control_c, 5, 11, 104
8, 31480, Control_c, 5, 11, 105
8, 31488, Note_on_c, 5, 70, 0
8, 31488, Note_on_c, 5, 69, 94
8, 31502, Control_c, 5, 11, 106
8, 31524, Control_c, 5, 11, 107
8, 31547, Control_c, 5, 11, 108
8, 31569, Control_c, 5, 11, 109
8, 31584, Note_on_c, 5, 69, 0
8, 31584, Note_on_c, 5, 67, 91
8, 31591, Control_c, 5, 11, 110
8, 31613, Control_c, 5, 11, 111
8, 31635, Control_c, 5, 11, 112
8, 31657, Control_c, 5, 11, 113
8, 31680, Control_c, 5, 11, 114
8, 31702, Control_c, 5, 11, 115
8, 31724, Control_c, 5, 11, 116
8, 31746, Control_c, 5, 11, 117
8, 31768, Control_c, 5, 11, 118
8, 31776, Note_on_c, 5, 67, 0
8, 31776, Note_on_c, 5, 70, 91
8, 31790, Control_c, 5, 11, 119
8, 31812, Control_c, 5, 11, 120
8, 31835, Control_c, 5, 11, 121
8, 31857, Control_c, 5, 11, 122
8, 31872, Note_on_c, 5, 70, 0
8, 31872, Note_on_c, 5, 69, 87
8, 31879, Control_c, 5, 11, 123
8, 31901, Control_c, 5, 11, 124
8, 31923, Control_c, 5, 11, 125
8, 31945, Control_c, 5, 11, 126
8, 31966, Note_on_c, 5, 69, 0
8, 31968, Control_c, 5, 11, 127
8, 31968, Control_c, 5, 11, 75
8, 31968, Note_on_c, 5, 66, 95
8, 31990, Control_c, 5, 11, 76
8, 32012, Control_c, 5, 11, 77
8, 32034, Control_c, 5, 11, 78
8, 32056, Control_c, 5, 11, 79
8, 32078, Control_c, 5, 11, 80
8, 32100, Control_c, 5, 11, 81
8, 32123, Control_c, 5, 11, 82
8, 32145, Control_c, 5, 11, 83
8, 32167, Control_c, 5, 11, 84
8, 32189, Control_c, 5, 11, 85
8, 32211, Control_c, 5, 11, 86
8, 32233, Control_c, 5, 11, 87
8, 32256, Note_on_c, 5, 66, 0
8, 32256, Control_c, 5, 11, 88
8, 32256, Note_on_c, 5, 65, 91
8, 32278, Control_c, 5, 11, 89
8, 32300, Control_c, 5, 11, 90
8, 32322, Control_c, 5, 11, 91
8, 32344, Control_c, 5, 11, 92
8, 32352, Note_on_c, 5, 65, 0
8, 32352, Note_on_c, 5, 63, 89
8, 32366, Control_c, 5, 11, 93
8, 32388, Control_c, 5, 11, 94
8, 32411, Control_c, 5, 11, 95
8, 32433, Control_c, 5, 11, 96
8, 32448, Note_on_c, 5, 63, 0
8, 32448, Note_on_c, 5, 62, 89
8, 32455, Control_c, 5, 11, 97
8, 32477, Control_c, 5, 11, 98
8, 32499, Control_c, 5, 11, 99
8, 32521, Control_c, 5, 11, 100
8, 32544, Note_on_c, 5, 62, 0
8, 32544, Control_c, 5, 11, 101
8, 32544, Note_on_c, 5, 57, 94
8, 32566, Control_c, 5, 11, 102
8, 32588, Control_c, 5, 11, 103
8, 32610, Control_c, 5, 11, 104
8, 32632, Control_c, 5, 11, 105
8, 32654, Control_c, 5, 11, 106
8, 32676, Control_c, 5, 11, 107
8, 32699, Control_c, 5, 11, 108
8, 32721, Control_c, 5, 11, 109
8, 32736, Note_on_c, 5, 57, 0
8, 32736, Note_on_c, 5, 60, 90
8, 32743, Control_c, 5, 11, 110
8, 32765, Control_c, 5, 11, 111
8, 32787, Control_c, 5, 11, 112
8, 32809, Control_c, 5, 11, 113
8, 32832, Control_c, 5, 11, 114
8, 32854, Control_c, 5, 11, 115
8, 32876, Control_c, 5, 11, 116
8, 32898, Control_c, 5, 11, 117
8, 32920, Control_c, 5, 11, 118
8, 32928, Note_on_c, 5, 60, 0
8, 32928, Note_on_c, 5, 63, 90
8, 32942, Control_c, 5, 11, 119
8, 32964, Control_c, 5, 11, 120
8, 32987, Control_c, 5, 11, 121
8, 33009, Control_c, 5, 11, 122
8, 33031, Control_c, 5, 11, 123
8, 33053, Control_c, 5, 11, 124
8, 33075, Control_c, 5, 11, 125
8, 33088, Note_on_c, 5, 63, 0
8, 33097, Control_c, 5, 11, 126
8, 33120, Control_c, 5, 11, 127
8, 33120, Note_on_c, 5, 51, 93
8, 33120, Note_on_c, 5, 65, 93
8, 33406, Note_on_c, 5, 51, 0
8, 33406, Note_on_c, 5, 65, 0
8, 33768, Note_on_c, 5, 68, 91
8, 33790, Note_on_c, 5, 68, 0
8, 33792, Note_on_c, 5, 66, 97
8, 33886, Note_on_c, 5, 66, 0
8, 33960, Note_on_c, 5, 68, 90
8, 33982, Note_on_c, 5, 68, 0
8, 33984, Note_on_c, 5, 66, 91
8, 34078, Note_on_c, 5, 66, 0
8, 34152, Note_on_c, 5, 68, 87
8, 34174, Note_on_c, 5, 68, 0
8, 34176, Note_on_c, 5, 66, 96
8, 34270, Note_on_c, 5, 66, 0
8, 34368, Note_on_c, 5, 62, 89
8, 34400, Note_on_c, 5, 62, 0
8, 34416, Note_on_c, 5, 64, 97
8, 34448, Note_on_c, 5, 64, 0
8, 34464, Note_on_c, 5, 62, 107
8, 34750, Note_on_c, 5, 62, 0
8, 34944, Note_on_c, 5, 62, 95
8, 34976, Note_on_c, 5, 62, 0
8, 34992, Note_on_c, 5, 64, 95
8, 35024, Note_on_c, 5, 64, 0
8, 35040, Note_on_c, 5, 62, 106
8, 35326, Note_on_c, 5, 62, 0
8, 35520, Note_on_c, 5, 62, 75
8, 35552, Note_on_c, 5, 62, 0
8, 35568, Note_on_c, 5, 64, 64
8, 35600, Note_on_c, 5, 64, 0
8, 35616, Note_on_c, 5, 62, 55
8, 35776, Note_on_c, 5, 62, 0
8, 37152, Note_on_c, 5, 60, 33
8, 37152, Note_on_c, 5, 62, 31
8, 37344, Note_on_c, 5, 62, 0
8, 37344, Note_on_c, 5, 64, 25
8, 37536, Note_on_c, 5, 64, 0
8, 37536, Note_on_c, 5, 66, 33
8, 37728, Note_on_c, 5, 66, 0
8, 37728, Note_on_c, 5, 62, 33
8, 37822, Note_on_c, 5, 60, 0
8, 37822, Note_on_c, 5, 62, 0
8, 38880, Control_c, 5, 11, 75
8, 38880, Note_on_c, 5, 62, 60
8, 38912, Note_on_c, 5, 62, 0
8, 38928, Note_on_c, 5, 62, 58
8, 38976, Note_on_c, 5, 62, 0
8, 39072, Control_c, 5, 11, 75
8, 39072, Note_on_c, 5, 62, 62
8, 39077, Control_c, 5, 11, 76
8, 39083, Control_c, 5, 11, 77
8, 39088, Control_c, 5, 11, 78
8, 39094, Control_c, 5, 11, 79
8, 39099, Control_c, 5, 11, 80
8, 39105, Control_c, 5, 11, 81
8, 39110, Control_c, 5, 11, 82
8, 39116, Control_c, 5, 11, 83
8, 39121, Control_c, 5, 11, 84
8, 39127, Control_c, 5, 11, 85
8, 39132, Control_c, 5, 11, 86
8, 39138, Control_c, 5, 11, 87
8, 39144, Control_c, 5, 11, 88
8, 39149, Control_c, 5, 11, 89
8, 39155, Control_c, 5, 11, 90
8, 39160, Control_c, 5, 11, 91
8, 39166, Control_c, 5, 11, 92
8, 39171, Control_c, 5, 11, 93
8, 39177, Control_c, 5, 11, 94
8, 39182, Control_c, 5, 11, 95
8, 39188, Control_c, 5, 11, 96
8, 39193, Control_c, 5, 11, 97
8, 39199, Control_c, 5, 11, 98
8, 39204, Control_c, 5, 11, 99
8, 39210, Control_c, 5, 11, 100
8, 39216, Control_c, 5, 11, 101
8, 39221, Control_c, 5, 11, 102
8, 39227, Control_c, 5, 11, 103
8, 39232, Control_c, 5, 11, 104
8, 39238, Control_c, 5, 11, 105
8, 39243, Control_c, 5, 11, 106
8, 39249, Control_c, 5, 11, 107
8, 39254, Control_c, 5, 11, 108
8, 39260, Control_c, 5, 11, 109
8, 39265, Control_c, 5, 11, 110
8, 39271, Control_c, 5, 11, 111
8, 39276, Control_c, 5, 11, 112
8, 39282, Control_c, 5, 11, 113
8, 39288, Control_c, 5, 11, 114
8, 39293, Control_c, 5, 11, 115
8, 39299, Control_c, 5, 11, 116
8, 39304, Control_c, 5, 11, 117
8, 39310, Control_c, 5, 11, 118
8, 39315, Control_c, 5, 11, 119
8, 39321, Control_c, 5, 11, 120
8, 39326, Control_c, 5, 11, 121
8, 39332, Control_c, 5, 11, 122
8, 39337, Control_c, 5, 11, 123
8, 39343, Control_c, 5, 11, 124
8, 39348, Control_c, 5, 11, 125
8, 39354, Control_c, 5, 11, 126
8, 39360, Note_on_c, 5, 62, 0
8, 39360, Control_c, 5, 11, 127
8, 39360, Note_on_c, 5, 64, 59
8, 39392, Note_on_c, 5, 64, 0
8, 39456, Control_c, 5, 11, 75
8, 39456, Note_on_c, 5, 62, 65
8, 39488, Note_on_c, 5, 62, 0
8, 39504, Note_on_c, 5, 62, 59
8, 39552, Note_on_c, 5, 62, 0
8, 39648, Control_c, 5, 11, 75
8, 39648, Note_on_c, 5, 62, 57
8, 39653, Control_c, 5, 11, 76
8, 39659, Control_c, 5, 11, 77
8, 39664, Control_c, 5, 11, 78
8, 39670, Control_c, 5, 11, 79
8, 39675, Control_c, 5, 11, 80
8, 39681, Control_c, 5, 11, 81
8, 39686, Control_c, 5, 11, 82
8, 39692, Control_c, 5, 11, 83
8, 39697, Control_c, 5, 11, 84
8, 39703, Control_c, 5, 11, 85
8, 39708, Control_c, 5, 11, 86
8, 39714, Control_c, 5, 11, 87
8, 39720, Control_c, 5, 11, 88
8, 39725, Control_c, 5, 11, 89
8, 39731, Control_c, 5, 11, 90
8, 39736, Control_c, 5, 11, 91
8, 39742, Control_c, 5, 11, 92
8, 39747, Control_c, 5, 11, 93
8, 39753, Control_c, 5, 11, 94
8, 39758, Control_c, 5, 11, 95
8, 39764, Control_c, 5, 11, 96
8, 39769, Control_c, 5, 11, 97
8, 39775, Control_c, 5, 11, 98
8, 39780, Control_c, 5, 11, 99
8, 39786, Control_c, 5, 11, 100
8, 39792, Control_c, 5, 11, 101
8, 39797, Control_c, 5, 11, 102
8, 39803, Control_c, 5, 11, 103
8, 39808, Control_c, 5, 11, 104
8, 39814, Control_c, 5, 11, 105
8, 39819, Control_c, 5, 11, 106
8, 39825, Control_c, 5, 11, 107
8, 39830, Control_c, 5, 11, 108
8, 39836, Control_c, 5, 11, 109
8, 39841, Control_c, 5, 11, 110
8, 39847, Control_c, 5, 11, 111
8, 39852, Control_c, 5, 11, 112
8, 39858, Control_c, 5, 11, 113
8, 39864, Control_c, 5, 11, 114
8, 39869, Control_c, 5, 11, 115
8, 39875, Control_c, 5, 11, 116
8, 39880, Control_c, 5, 11, 117
8, 39886, Control_c, 5, 11, 118
8, 39891, Control_c, 5, 11, 119
8, 39897, Control_c, 5, 11, 120
8, 39902, Control_c, 5, 11, 121
8, 39908, Control_c, 5, 11, 122
8, 39913, Control_c, 5, 11, 123
8, 39919, Control_c, 5, 11, 124
8, 39924, Control_c, 5, 11, 125
8, 39930, Control_c, 5, 11, 126
8, 39936, Note_on_c, 5, 62, 0
8, 39936, Control_c, 5, 11, 127
8, 39936, Note_on_c, 5, 64, 62
8, 39968, Note_on_c, 5, 64, 0
8, 41760, Control_c, 5, 11, 92
8, 42336, Note_on_c, 5, 70, 88
8, 42432, Note_on_c, 5, 70, 0
8, 42432, Note_on_c, 5, 69, 93
8, 42464, Note_on_c, 5, 69, 0
8, 42464, Note_on_c, 5, 70, 91
8, 42496, Note_on_c, 5, 70, 0
8, 42496, Note_on_c, 5, 69, 91
8, 42528, Note_on_c, 5, 69, 0
8, 42528, Note_on_c, 5, 66, 95
8, 42720, Note_on_c, 5, 66, 0
8, 42720, Note_on_c, 5, 70, 95
8, 42912, Note_on_c, 5, 70, 0
8, 42912, Control_c, 5, 11, 92
8, 42912, Note_on_c, 5, 69, 93
8, 42928, Control_c, 5, 11, 93
8, 42944, Control_c, 5, 11, 94
8, 42961, Control_c, 5, 11, 95
8, 42977, Control_c, 5, 11, 96
8, 42994, Control_c, 5, 11, 97
8, 43010, Control_c, 5, 11, 98
8, 43027, Control_c, 5, 11, 99
8, 43043, Control_c, 5, 11, 100
8, 43060, Control_c, 5, 11, 101
8, 43076, Control_c, 5, 11, 102
8, 43093, Control_c, 5, 11, 103
8, 43109, Control_c, 5, 11, 104
8, 43125, Control_c, 5, 11, 105
8, 43142, Control_c, 5, 11, 106
8, 43158, Control_c, 5, 11, 107
8, 43175, Control_c, 5, 11, 108
8, 43191, Control_c, 5, 11, 109
8, 43208, Control_c, 5, 11, 110
8, 43224, Control_c, 5, 11, 111
8, 43241, Control_c, 5, 11, 112
8, 43257, Control_c, 5, 11, 113
8, 43274, Control_c, 5, 11, 114
8, 43290, Control_c, 5, 11, 115
8, 43296, Note_on_c, 5, 69, 0
8, 43296, Note_on_c, 5, 66, 95
8, 43306, Control_c, 5, 11, 116
8, 43323, Control_c, 5, 11, 117
8, 43339, Control_c, 5, 11, 118
8, 43356, Control_c, 5, 11, 119
8, 43372, Control_c, 5, 11, 120
8, 43389, Control_c, 5, 11, 121
8, 43392, Note_on_c, 5, 66, 0
8, 43392, Note_on_c, 5, 69, 96
8, 43405, Control_c, 5, 11, 122
8, 43422, Control_c, 5, 11, 123
8, 43438, Control_c, 5, 11, 124
8, 43455, Control_c, 5, 11, 125
8, 43471, Control_c, 5, 11, 126
8, 43488, Note_on_c, 5, 69, 0
8, 43488, Control_c, 5, 11, 127
8, 43488, Note_on_c, 5, 70, 90
8, 43496, Control_c, 5, 11, 126
8, 43504, Control_c, 5, 11, 125
8, 43512, Control_c, 5, 11, 124
8, 43520, Control_c, 5, 11, 123
8, 43529, Control_c, 5, 11, 122
8, 43537, Control_c, 5, 11, 121
8, 43545, Control_c, 5, 11, 120
8, 43553, Control_c, 5, 11, 119
8, 43562, Control_c, 5, 11, 118
8, 43570, Control_c, 5, 11, 117
8, 43578, Control_c, 5, 11, 116
8, 43586, Control_c, 5, 11, 115
8, 43594, Control_c, 5, 11, 114
8, 43603, Control_c, 5, 11, 113
8, 43611, Control_c, 5, 11, 112
8, 43619, Control_c, 5, 11, 111
8, 43627, Control_c, 5, 11, 110
8, 43636, Control_c, 5, 11, 109
8, 43644, Control_c, 5, 11, 108
8, 43652, Control_c, 5, 11, 107
8, 43660, Control_c, 5, 11, 106
8, 43669, Control_c, 5, 11, 105
8, 43677, Control_c, 5, 11, 104
8, 43685, Control_c, 5, 11, 103
8, 43693, Control_c, 5, 11, 102
8, 43701, Control_c, 5, 11, 101
8, 43710, Control_c, 5, 11, 100
8, 43718, Control_c, 5, 11, 99
8, 43726, Control_c, 5, 11, 98
8, 43734, Control_c, 5, 11, 97
8, 43743, Control_c, 5, 11, 96
8, 43751, Control_c, 5, 11, 95
8, 43759, Control_c, 5, 11, 94
8, 43767, Control_c, 5, 11, 93
8, 43774, Note_on_c, 5, 70, 0
8, 43776, Control_c, 5, 11, 92
8, 44064, Control_c, 5, 11, 127
8, 44640, Note_on_c, 5, 62, 45
8, 44640, Note_on_c, 5, 70, 46
8, 44734, Note_on_c, 5, 62, 0
8, 44734, Note_on_c, 5, 70, 0
8, 44736, Note_on_c, 5, 58, 43
8, 44736, Note_on_c, 5, 65, 49
8, 44768, Note_on_c, 5, 58, 0
8, 44768, Note_on_c, 5, 65, 0
8, 44784, Note_on_c, 5, 60, 49
8, 44784, Note_on_c, 5, 68, 49
8, 44816, Note_on_c, 5, 60, 0
8, 44816, Note_on_c, 5, 68, 0
8, 44832, Note_on_c, 5, 62, 40
8, 44832, Note_on_c, 5, 70, 45
8, 44864, Note_on_c, 5, 62, 0
8, 44864, Note_on_c, 5, 70, 0
8, 44880, Note_on_c, 5, 62, 44
8, 44880, Note_on_c, 5, 70, 50
8, 44912, Note_on_c, 5, 62, 0
8, 44912, Note_on_c, 5, 70, 0
8, 44928, Note_on_c, 5, 58, 45
8, 44928, Note_on_c, 5, 65, 42
8, 44960, Note_on_c, 5, 58, 0
8, 44960, Note_on_c, 5, 65, 0
8, 44976, Note_on_c, 5, 62, 44
8, 44976, Note_on_c, 5, 70, 46
8, 45008, Note_on_c, 5, 62, 0
8, 45008, Note_on_c, 5, 70, 0
8, 45024, Note_on_c, 5, 62, 41
8, 45024, Note_on_c, 5, 67, 40
8, 45118, Note_on_c, 5, 62, 0
8, 45118, Note_on_c, 5, 67, 0
8, 45216, Note_on_c, 5, 62, 80
8, 45216, Note_on_c, 5, 70, 77
8, 45310, Note_on_c, 5, 62, 0
8, 45310, Note_on_c, 5, 70, 0
8, 45312, Note_on_c, 5, 58, 79
8, 45312, Note_on_c, 5, 65, 80
8, 45344, Note_on_c, 5, 58, 0
8, 45344, Note_on_c, 5, 65, 0
8, 45360, Note_on_c, 5, 60, 77
8, 45360, Note_on_c, 5, 68, 74
8, 45392, Note_on_c, 5, 60, 0
8, 45392, Note_on_c, 5, 68, 0
8, 45408, Note_on_c, 5, 62, 79
8, 45408, Note_on_c, 5, 70, 79
8, 45440, Note_on_c, 5, 62, 0
8, 45440, Note_on_c, 5, 70, 0
8, 45456, Note_on_c, 5, 62, 81
8, 45456, Note_on_c, 5, 70, 87
8, 45488, Note_on_c, 5, 62, 0
8, 45488, Note_on_c, 5, 70, 0
8, 45504, Note_on_c, 5, 58, 85
8, 45504, Note_on_c, 5, 65, 82
8, 45536, Note_on_c, 5, 58, 0
8, 45536, Note_on_c, 5, 65, 0
8, 45552, Note_on_c, 5, 62, 85
8, 45552, Note_on_c, 5, 70, 93
8, 45584, Note_on_c, 5, 62, 0
8, 45584, Note_on_c, 5, 70, 0
8, 45600, Note_on_c, 5, 62, 88
8, 45600, Note_on_c, 5, 68, 87
8, 45694, Note_on_c, 5, 62, 0
8, 45694, Note_on_c, 5, 68, 0
8, 45792, Control_c, 5, 11, 92
8, 45792, Note_on_c, 5, 69, 45
8, 45888, Note_on_c, 5, 69, 0
8, 45888, Note_on_c, 5, 68, 44
8, 45984, Note_on_c, 5, 68, 0
8, 45984, Note_on_c, 5, 67, 41
8, 46176, Note_on_c, 5, 67, 0
8, 46176, Note_on_c, 5, 66, 47
8, 46368, Note_on_c, 5, 66, 0
8, 46368, Note_on_c, 5, 65, 49
8, 46464, Note_on_c, 5, 65, 0
8, 46464, Note_on_c, 5, 65, 40
8, 46656, Note_on_c, 5, 65, 0
8, 46656, Control_c, 5, 11, 92
8, 46656, Note_on_c, 5, 67, 50
8, 46664, Control_c, 5, 11, 93
8, 46672, Control_c, 5, 11, 94
8, 46680, Control_c, 5, 11, 95
8, 46688, Control_c, 5, 11, 96
8, 46697, Control_c, 5, 11, 97
8, 46705, Control_c, 5, 11, 98
8, 46713, Control_c, 5, 11, 99
8, 46721, Control_c, 5, 11, 100
8, 46730, Control_c, 5, 11, 101
8, 46738, Control_c, 5, 11, 102
8, 46746, Control_c, 5, 11, 103
8, 46754, Control_c, 5, 11, 104
8, 46762, Control_c, 5, 11, 105
8, 46771, Control_c, 5, 11, 106
8, 46779, Control_c, 5, 11, 107
8, 46787, Control_c, 5, 11, 108
8, 46795, Control_c, 5, 11, 109
8, 46804, Control_c, 5, 11, 110
8, 46812, Control_c, 5, 11, 111
8, 46820, Control_c, 5, 11, 112
8, 46828, Control_c, 5, 11, 113
8, 46837, Control_c, 5, 11, 114
8, 46845, Control_c, 5, 11, 115
8, 46848, Note_on_c, 5, 67, 0
8, 46848, Note_on_c, 5, 69, 50
8, 46853, Control_c, 5, 11, 116
8, 46861, Control_c, 5, 11, 117
8, 46869, Control_c, 5, 11, 118
8, 46878, Control_c, 5, 11, 119
8, 46886, Control_c, 5, 11, 120
8, 46894, Control_c, 5, 11, 121
8, 46902, Control_c, 5, 11, 122
8, 46911, Control_c, 5, 11, 123
8, 46919, Control_c, 5, 11, 124
8, 46927, Control_c, 5, 11, 125
8, 46935, Control_c, 5, 11, 126
8, 46942, Note_on_c, 5, 69, 0
8, 46944, Control_c, 5, 11, 127
8, 46944, Control_c, 5, 11, 92
8, 46944, Note_on_c, 5, 65, 41
8, 46960, Control_c, 5, 11, 93
8, 46976, Control_c, 5, 11, 94
8, 46993, Control_c, 5, 11, 95
8, 47009, Control_c, 5, 11, 96
8, 47026, Control_c, 5, 11, 97
8, 47040, Note_on_c, 5, 65, 0
8, 47040, Note_on_c, 5, 66, 50
8, 47042, Control_c, 5, 11, 98
8, 47059, Control_c, 5, 11, 99
8, 47075, Control_c, 5, 11, 100
8, 47092, Control_c, 5, 11, 101
8, 47108, Control_c, 5, 11, 102
8, 47125, Control_c, 5, 11, 103
8, 47141, Control_c, 5, 11, 104
8, 47157, Control_c, 5, 11, 105
8, 47174, Control_c, 5, 11, 106
8, 47190, Control_c, 5, 11, 107
8, 47207, Control_c, 5, 11, 108
8, 47223, Control_c, 5, 11, 109
8, 47232, Note_on_c, 5, 66, 0
8, 47232, Note_on_c, 5, 67, 42
8, 47240, Control_c, 5, 11, 110
8, 47256, Control_c, 5, 11, 111
8, 47273, Control_c, 5, 11, 112
8, 47289, Control_c, 5, 11, 113
8, 47306, Control_c, 5, 11, 114
8, 47322, Control_c, 5, 11, 115
8, 47338, Control_c, 5, 11, 116
8, 47355, Control_c, 5, 11, 117
8, 47371, Control_c, 5, 11, 118
8, 47388, Control_c, 5, 11, 119
8, 47404, Control_c, 5, 11, 120
8, 47421, Control_c, 5, 11, 121
8, 47424, Note_on_c, 5, 67, 0
8, 47424, Note_on_c, 5, 69, 46
8, 47437, Control_c, 5, 11, 122
8, 47454, Control_c, 5, 11, 123
8, 47470, Control_c, 5, 11, 124
8, 47487, Control_c, 5, 11, 125
8, 47503, Control_c, 5, 11, 126
8, 47518, Note_on_c, 5, 69, 0
8, 47520, Control_c, 5, 11, 127
8, 47520, Note_on_c, 5, 67, 49
8, 47520, Note_on_c, 5, 71, 47
8, 47712, Note_on_c, 5, 67, 0
8, 47712, Note_on_c, 5, 71, 0
8, 47712, Note_on_c, 5, 64, 50
8, 47712, Note_on_c, 5, 69, 46
8, 47904, Note_on_c, 5, 64, 0
8, 47904, Note_on_c, 5, 69, 0
8, 47904, Note_on_c, 5, 57, 42
8, 47904, Note_on_c, 5, 64, 47
8, 48096, Note_on_c, 5, 57, 0
8, 48096, Note_on_c, 5, 64, 0
8, 48096, Note_on_c, 5, 61, 48
8, 48096, Note_on_c, 5, 67, 43
8, 48624, Note_on_c, 5, 61, 0
8, 48624, Note_on_c, 5, 67, 0
8, 48672, Control_c, 5, 11, 92
8, 48672, Note_on_c, 5, 59, 63
8, 49632, Note_on_c, 5, 59, 0
8, 49632, Note_on_c, 5, 58, 63
8, 49792, Note_on_c, 5, 58, 0
8, 49824, Control_c, 5, 11, 92
8, 49824, Note_on_c, 5, 59, 64
8, 49840, Control_c, 5, 11, 93
8, 49856, Control_c, 5, 11, 94
8, 49873, Control_c, 5, 11, 95
8, 49889, Control_c, 5, 11, 96
8, 49906, Control_c, 5, 11, 97
8, 49922, Control_c, 5, 11, 98
8, 49939, Control_c, 5, 11, 99
8, 49955, Control_c, 5, 11, 100
8, 49972, Control_c, 5, 11, 101
8, 49988, Control_c, 5, 11, 102
8, 50005, Control_c, 5, 11, 103
8, 50016, Note_on_c, 5, 59, 0
8, 50016, Note_on_c, 5, 60, 63
8, 50021, Control_c, 5, 11, 104
8, 50037, Control_c, 5, 11, 105
8, 50054, Control_c, 5, 11, 106
8, 50070, Control_c, 5, 11, 107
8, 50087, Control_c, 5, 11, 108
8, 50103, Control_c, 5, 11, 109
8, 50120, Control_c, 5, 11, 110
8, 50136, Control_c, 5, 11, 111
8, 50153, Control_c, 5, 11, 112
8, 50169, Control_c, 5, 11, 113
8, 50186, Control_c, 5, 11, 114
8, 50202, Control_c, 5, 11, 115
8, 50208, Note_on_c, 5, 60, 0
8, 50208, Note_on_c, 5, 61, 63
8, 50218, Control_c, 5, 11, 116
8, 50235, Control_c, 5, 11, 117
8, 50251, Control_c, 5, 11, 118
8, 50268, Control_c, 5, 11, 119
8, 50284, Control_c, 5, 11, 120
8, 50301, Control_c, 5, 11, 121
8, 50317, Control_c, 5, 11, 122
8, 50334, Control_c, 5, 11, 123
8, 50350, Control_c, 5, 11, 124
8, 50367, Control_c, 5, 11, 125
8, 50368, Note_on_c, 5, 61, 0
8, 50383, Control_c, 5, 11, 126
8, 50400, Control_c, 5, 11, 127
8, 50400, Note_on_c, 5, 64, 57
8, 50412, Control_c, 5, 11, 126
8, 50424, Control_c, 5, 11, 125
8, 50436, Control_c, 5, 11, 124
8, 50448, Control_c, 5, 11, 123
8, 50460, Control_c, 5, 11, 122
8, 50473, Control_c, 5, 11, 121
8, 50485, Control_c, 5, 11, 120
8, 50497, Control_c, 5, 11, 119
8, 50509, Control_c, 5, 11, 118
8, 50521, Control_c, 5, 11, 117
8, 50534, Control_c, 5, 11, 116
8, 50546, Control_c, 5, 11, 115
8, 50558, Control_c, 5, 11, 114
8, 50570, Control_c, 5, 11, 113
8, 50582, Control_c, 5, 11, 112
8, 50595, Control_c, 5, 11, 111
8, 50607, Control_c, 5, 11, 110
8, 50619, Control_c, 5, 11, 109
8, 50631, Control_c, 5, 11, 108
8, 50643, Control_c, 5, 11, 107
8, 50656, Control_c, 5, 11, 106
8, 50668, Control_c, 5, 11, 105
8, 50680, Control_c, 5, 11, 104
8, 50692, Control_c, 5, 11, 103
8, 50704, Control_c, 5, 11, 102
8, 50716, Control_c, 5, 11, 101
8, 50729, Control_c, 5, 11, 100
8, 50741, Control_c, 5, 11, 99
8, 50753, Control_c, 5, 11, 98
8, 50765, Control_c, 5, 11, 97
8, 50777, Control_c, 5, 11, 96
8, 50790, Control_c, 5, 11, 95
8, 50802, Control_c, 5, 11, 94
8, 50814, Control_c, 5, 11, 93
8, 50826, Control_c, 5, 11, 92
8, 50838, Control_c, 5, 11, 91
8, 50851, Control_c, 5, 11, 90
8, 50863, Control_c, 5, 11, 89
8, 50875, Control_c, 5, 11, 88
8, 50887, Control_c, 5, 11, 87
8, 50899, Control_c, 5, 11, 86
8, 50912, Control_c, 5, 11, 85
8, 50924, Control_c, 5, 11, 84
8, 50936, Control_c, 5, 11, 83
8, 50948, Control_c, 5, 11, 82
8, 50960, Control_c, 5, 11, 81
8, 50972, Control_c, 5, 11, 80
8, 50976, Note_on_c, 5, 64, 0
8, 50976, Note_on_c, 5, 66, 61
8, 50985, Control_c, 5, 11, 79
8, 50997, Control_c, 5, 11, 78
8, 51009, Control_c, 5, 11, 77
8, 51021, Control_c, 5, 11, 76
8, 51033, Control_c, 5, 11, 75
8, 51046, Control_c, 5, 11, 74
8, 51058, Control_c, 5, 11, 73
8, 51070, Control_c, 5, 11, 72
8, 51082, Control_c, 5, 11, 71
8, 51094, Control_c, 5, 11, 70
8, 51107, Control_c, 5, 11, 69
8, 51119, Control_c, 5, 11, 68
8, 51131, Control_c, 5, 11, 67
8, 51136, Note_on_c, 5, 66, 0
8, 51143, Control_c, 5, 11, 66
8, 51155, Control_c, 5, 11, 65
8, 51168, Control_c, 5, 11, 64
8, 51552, Control_c, 5, 11, 127
8, 51552, Note_on_c, 5, 67, 53
8, 51564, Control_c, 5, 11, 126
8, 51576, Control_c, 5, 11, 125
8, 51588, Control_c, 5, 11, 124
8, 51600, Control_c, 5, 11, 123
8, 51612, Control_c, 5, 11, 122
8, 51625, Control_c, 5, 11, 121
8, 51637, Control_c, 5, 11, 120
8, 51649, Control_c, 5, 11, 119
8, 51661, Control_c, 5, 11, 118
8, 51673, Control_c, 5, 11, 117
8, 51686, Control_c, 5, 11, 116
8, 51698, Control_c, 5, 11, 115
8, 51710, Control_c, 5, 11, 114
8, 51722, Control_c, 5, 11, 113
8, 51734, Control_c, 5, 11, 112
8, 51747, Control_c, 5, 11, 111
8, 51759, Control_c, 5, 11, 110
8, 51771, Control_c, 5, 11, 109
8, 51783, Control_c, 5, 11, 108
8, 51795, Control_c, 5, 11, 107
8, 51808, Control_c, 5, 11, 106
8, 51820, Control_c, 5, 11, 105
8, 51832, Control_c, 5, 11, 104
8, 51844, Control_c, 5, 11, 103
8, 51856, Control_c, 5, 11, 102
8, 51868, Control_c, 5, 11, 101
8, 51881, Control_c, 5, 11, 100
8, 51893, Control_c, 5, 11, 99
8, 51905, Control_c, 5, 11, 98
8, 51917, Control_c, 5, 11, 97
8, 51929, Control_c, 5, 11, 96
8, 51942, Control_c, 5, 11, 95
8, 51954, Control_c, 5, 11, 94
8, 51966, Control_c, 5, 11, 93
8, 51978, Control_c, 5, 11, 92
8, 51990, Control_c, 5, 11, 91
8, 52003, Control_c, 5, 11, 90
8, 52015, Control_c, 5, 11, 89
8, 52027, Control_c, 5, 11, 88
8, 52039, Control_c, 5, 11, 87
8, 52051, Control_c, 5, 11, 86
8, 52064, Control_c, 5, 11, 85
8, 52076, Control_c, 5, 11, 84
8, 52088, Control_c, 5, 11, 83
8, 52100, Control_c, 5, 11, 82
8, 52112, Control_c, 5, 11, 81
8, 52124, Control_c, 5, 11, 80
8, 52128, Note_on_c, 5, 67, 0
8, 52128, Note_on_c, 5, 69, 52
8, 52137, Control_c, 5, 11, 79
8, 52149, Control_c, 5, 11, 78
8, 52161, Control_c, 5, 11, 77
8, 52173, Control_c, 5, 11, 76
8, 52185, Control_c, 5, 11, 75
8, 52198, Control_c, 5, 11, 74
8, 52210, Control_c, 5, 11, 73
8, 52222, Control_c, 5, 11, 72
8, 52234, Control_c, 5, 11, 71
8, 52246, Control_c, 5, 11, 70
8, 52259, Control_c, 5, 11, 69
8, 52271, Control_c, 5, 11, 68
8, 52283, Control_c, 5, 11, 67
8, 52288, Note_on_c, 5, 69, 0
8, 52295, Control_c, 5, 11, 66
8, 52307, Control_c, 5, 11, 65
8, 52320, Control_c, 5, 11, 64
8, 52704, Control_c, 5, 11, 127
8, 52704, Note_on_c, 5, 64, 96
8, 52736, Note_on_c, 5, 64, 0
8, 52800, Note_on_c, 5, 64, 94
8, 52821, Note_on_c, 5, 64, 0
8, 52832, Note_on_c, 5, 64, 89
8, 52853, Note_on_c, 5, 64, 0
8, 52864, Note_on_c, 5, 64, 89
8, 52885, Note_on_c, 5, 64, 0
8, 52896, Note_on_c, 5, 64, 92
8, 52928, Note_on_c, 5, 64, 0
8, 53088, Note_on_c, 5, 64, 45
8, 53109, Note_on_c, 5, 64, 0
8, 53120, Note_on_c, 5, 64, 48
8, 53141, Note_on_c, 5, 64, 0
8, 53152, Note_on_c, 5, 64, 41
8, 53173, Note_on_c, 5, 64, 0
8, 53184, Note_on_c, 5, 64, 41
8, 53205, Note_on_c, 5, 64, 0
8, 53216, Note_on_c, 5, 64, 45
8, 53237, Note_on_c, 5, 64, 0
8, 53248, Note_on_c, 5, 64, 50
8, 53269, Note_on_c, 5, 64, 0
8, 53280, Note_on_c, 5, 64, 46
8, 53312, Note_on_c, 5, 64, 0
8, 53376, Note_on_c, 5, 64, 44
8, 53397, Note_on_c, 5, 64, 0
8, 53408, Note_on_c, 5, 64, 42
8, 53429, Note_on_c, 5, 64, 0
8, 53440, Note_on_c, 5, 64, 41
8, 53461, Note_on_c, 5, 64, 0
8, 53472, Note_on_c, 5, 64, 43
8, 53504, Note_on_c, 5, 64, 0
8, 53664, Note_on_c, 5, 64, 34
8, 53685, Note_on_c, 5, 64, 0
8, 53696, Note_on_c, 5, 64, 31
8, 53717, Note_on_c, 5, 64, 0
8, 53728, Note_on_c, 5, 64, 34
8, 53749, Note_on_c, 5, 64, 0
8, 53760, Note_on_c, 5, 64, 38
8, 53781, Note_on_c, 5, 64, 0
8, 53792, Note_on_c, 5, 64, 31
8, 53813, Note_on_c, 5, 64, 0
8, 53824, Note_on_c, 5, 64, 31
8, 53845, Note_on_c, 5, 64, 0
8, 53856, Note_on_c, 5, 70, 25
8, 53888, Note_on_c, 5, 70, 0
8, 53952, Note_on_c, 5, 70, 32
8, 53973, Note_on_c, 5, 70, 0
8, 53984, Note_on_c, 5, 70, 27
8, 54005, Note_on_c, 5, 70, 0
8, 54016, Note_on_c, 5, 70, 25
8, 54037, Note_on_c, 5, 70, 0
8, 54048, Note_on_c, 5, 70, 34
8, 54080, Note_on_c, 5, 70, 0
8, 54432, Note_on_c, 5, 70, 26
8, 54464, Note_on_c, 5, 70, 0
8, 54528, Note_on_c, 5, 70, 30
8, 54549, Note_on_c, 5, 70, 0
8, 54560, Note_on_c, 5, 70, 34
8, 54581, Note_on_c, 5, 70, 0
8, 54592, Note_on_c, 5, 70, 27
8, 54613, Note_on_c, 5, 70, 0
8, 54624, Note_on_c, 5, 70, 30
8, 54656, Note_on_c, 5, 70, 0
8, 55008, Note_on_c, 5, 70, 35
8, 55040, Note_on_c, 5, 70, 0
8, 55104, Note_on_c, 5, 70, 33
8, 55125, Note_on_c, 5, 70, 0
8, 55136, Note_on_c, 5, 70, 29
8, 55157, Note_on_c, 5, 70, 0
8, 55168, Note_on_c, 5, 70, 34
8, 55189, Note_on_c, 5, 70, 0
8, 55200, Note_on_c, 5, 70, 35
8, 55232, Note_on_c, 5, 70, 0
8, 55584, Note_on_c, 5, 70, 28
8, 55616, Note_on_c, 5, 70, 0
8, 55680, Note_on_c, 5, 70, 28
8, 55701, Note_on_c, 5, 70, 0
8, 55712, Note_on_c, 5, 70, 33
8, 55733, Note_on_c, 5, 70, 0
8, 55744, Note_on_c, 5, 70, 33
8, 55765, Note_on_c, 5, 70, 0
8, 55776, Note_on_c, 5, 70, 27
8, 55808, Note_on_c, 5, 70, 0
8, 56160, Note_on_c, 5, 70, 26
8, 56192, Note_on_c, 5, 70, 0
8, 56256, Note_on_c, 5, 70, 31
8, 56277, Note_on_c, 5, 70, 0
8, 56288, Note_on_c, 5, 70, 30
8, 56309, Note_on_c, 5, 70, 0
8, 56320, Note_on_c, 5, 70, 26
8, 56341, Note_on_c, 5, 70, 0
8, 56352, Note_on_c, 5, 70, 26
8, 56384, Note_on_c, 5, 70, 0
8, 56736, Note_on_c, 5, 70, 35
8, 56768, Note_on_c, 5, 70, 0
8, 56832, Note_on_c, 5, 70, 28
8, 56853, Note_on_c, 5, 70, 0
8, 56864, Note_on_c, 5, 70, 26
8, 56885, Note_on_c, 5, 70, 0
8, 56896, Note_on_c, 5, 70, 30
8, 56917, Note_on_c, 5, 70, 0
8, 56928, Note_on_c, 5, 70, 26
8, 56960, Note_on_c, 5, 70, 0
8, 57312, Note_on_c, 5, 62, 49
8, 58080, Note_on_c, 5, 62, 0
8, 58080, Note_on_c, 5, 64, 41
8, 58368, Note_on_c, 5, 64, 0
8, 58368, Note_on_c, 5, 61, 50
8, 58462, Note_on_c, 5, 61, 0
8, 58464, Control_c, 5, 11, 92
8, 58464, Note_on_c, 5, 62, 93
8, 58480, Control_c, 5, 11, 93
8, 58496, Control_c, 5, 11, 94
8, 58513, Control_c, 5, 11, 95
8, 58529, Control_c, 5, 11, 96
8, 58546, Control_c, 5, 11, 97
8, 58562, Control_c, 5, 11, 98
8, 58579, Control_c, 5, 11, 99
8, 58595, Control_c, 5, 11, 100
8, 58612, Control_c, 5, 11, 101
8, 58628, Control_c, 5, 11, 102
8, 58645, Control_c, 5, 11, 103
8, 58661, Control_c, 5, 11, 104
8, 58677, Control_c, 5, 11, 105
8, 58694, Control_c, 5, 11, 106
8, 58710, Control_c, 5, 11, 107
8, 58727, Control_c, 5, 11, 108
8, 58743, Control_c, 5, 11, 109
8, 58752, Note_on_c, 5, 64, 97
8, 58760, Control_c, 5, 11, 110
8, 58776, Control_c, 5, 11, 111
8, 58793, Control_c, 5, 11, 112
8, 58809, Control_c, 5, 11, 113
8, 58826, Control_c, 5, 11, 114
8, 58842, Control_c, 5, 11, 115
8, 58846, Note_on_c, 5, 64, 0
8, 58848, Note_on_c, 5, 66, 91
8, 58858, Control_c, 5, 11, 116
8, 58875, Control_c, 5, 11, 117
8, 58891, Control_c, 5, 11, 118
8, 58908, Control_c, 5, 11, 119
8, 58924, Control_c, 5, 11, 120
8, 58941, Control_c, 5, 11, 121
8, 58942, Note_on_c, 5, 66, 0
8, 58944, Note_on_c, 5, 68, 94
8, 58957, Control_c, 5, 11, 122
8, 58974, Control_c, 5, 11, 123
8, 58990, Control_c, 5, 11, 124
8, 58992, Note_on_c, 5, 62, 0
8, 59007, Control_c, 5, 11, 125
8, 59023, Control_c, 5, 11, 126
8, 59038, Note_on_c, 5, 68, 0
8, 59040, Control_c, 5, 11, 127
8, 59040, Note_on_c, 5, 62, 91
8, 59040, Note_on_c, 5, 71, 94
8, 59134, Note_on_c, 5, 71, 0
8, 59136, Note_on_c, 5, 69, 93
8, 59200, Note_on_c, 5, 62, 0
8, 59230, Note_on_c, 5, 69, 0
8, 59232, Note_on_c, 5, 64, 94
8, 59232, Note_on_c, 5, 68, 96
8, 59326, Note_on_c, 5, 68, 0
8, 59328, Note_on_c, 5, 66, 89
8, 59392, Note_on_c, 5, 64, 0
8, 59422, Note_on_c, 5, 66, 0
8, 59424, Note_on_c, 5, 61, 94
8, 59424, Note_on_c, 5, 71, 90
8, 59518, Note_on_c, 5, 71, 0
8, 59520, Note_on_c, 5, 69, 87
8, 59584, Note_on_c, 5, 61, 0
8, 59614, Note_on_c, 5, 69, 0
8, 59616, Control_c, 5, 11, 127
8, 59616, Note_on_c, 5, 62, 94
8, 59623, Control_c, 5, 11, 126
8, 59630, Control_c, 5, 11, 125
8, 59637, Control_c, 5, 11, 124
8, 59644, Control_c, 5, 11, 123
8, 59651, Control_c, 5, 11, 122
8, 59658, Control_c, 5, 11, 121
8, 59665, Control_c, 5, 11, 120
8, 59672, Control_c, 5, 11, 119
8, 59679, Control_c, 5, 11, 118
8, 59686, Control_c, 5, 11, 117
8, 59693, Control_c, 5, 11, 116
8, 59700, Control_c, 5, 11, 115
8, 59707, Control_c, 5, 11, 114
8, 59714, Control_c, 5, 11, 113
8, 59721, Control_c, 5, 11, 112
8, 59728, Control_c, 5, 11, 111
8, 59735, Control_c, 5, 11, 110
8, 59742, Control_c, 5, 11, 109
8, 59749, Control_c, 5, 11, 108
8, 59756, Control_c, 5, 11, 107
8, 59763, Control_c, 5, 11, 106
8, 59770, Control_c, 5, 11, 105
8, 59777, Control_c, 5, 11, 104
8, 59784, Control_c, 5, 11, 103
8, 59791, Control_c, 5, 11, 102
8, 59798, Control_c, 5, 11, 101
8, 59805, Control_c, 5, 11, 100
8, 59808, Note_on_c, 5, 62, 0
8, 59808, Note_on_c, 5, 64, 92
8, 59812, Control_c, 5, 11, 99
8, 59819, Control_c, 5, 11, 98
8, 59826, Control_c, 5, 11, 97
8, 59833, Control_c, 5, 11, 96
8, 59840, Control_c, 5, 11, 95
8, 59847, Control_c, 5, 11, 94
8, 59854, Control_c, 5, 11, 93
8, 59861, Control_c, 5, 11, 92
8, 59868, Control_c, 5, 11, 91
8, 59875, Control_c, 5, 11, 90
8, 59882, Control_c, 5, 11, 89
8, 59889, Control_c, 5, 11, 88
8, 59896, Control_c, 5, 11, 87
8, 59903, Control_c, 5, 11, 86
8, 59911, Control_c, 5, 11, 85
8, 59918, Control_c, 5, 11, 84
8, 59925, Control_c, 5, 11, 83
8, 59932, Control_c, 5, 11, 82
8, 59939, Control_c, 5, 11, 81
8, 59946, Control_c, 5, 11, 80
8, 59953, Control_c, 5, 11, 79
8, 59960, Control_c, 5, 11, 78
8, 59967, Control_c, 5, 11, 77
8, 59974, Control_c, 5, 11, 76
8, 59981, Control_c, 5, 11, 75
8, 59988, Control_c, 5, 11, 74
8, 59995, Control_c, 5, 11, 73
8, 60000, Note_on_c, 5, 64, 0
8, 60000, Note_on_c, 5, 62, 90
8, 60002, Control_c, 5, 11, 72
8, 60009, Control_c, 5, 11, 71
8, 60016, Control_c, 5, 11, 70
8, 60023, Control_c, 5, 11, 69
8, 60030, Control_c, 5, 11, 68
8, 60037, Control_c, 5, 11, 67
8, 60044, Control_c, 5, 11, 66
8, 60051, Control_c, 5, 11, 65
8, 60058, Control_c, 5, 11, 64
8, 60065, Control_c, 5, 11, 63
8, 60072, Control_c, 5, 11, 62
8, 60079, Control_c, 5, 11, 61
8, 60086, Control_c, 5, 11, 60
8, 60093, Control_c, 5, 11, 59
8, 60100, Control_c, 5, 11, 58
8, 60107, Control_c, 5, 11, 57
8, 60114, Control_c, 5, 11, 56
8, 60121, Control_c, 5, 11, 55
8, 60128, Control_c, 5, 11, 54
8, 60135, Control_c, 5, 11, 53
8, 60142, Control_c, 5, 11, 52
8, 60149, Control_c, 5, 11, 51
8, 60156, Control_c, 5, 11, 50
8, 60163, Control_c, 5, 11, 49
8, 60170, Control_c, 5, 11, 48
8, 60177, Control_c, 5, 11, 47
8, 60184, Control_c, 5, 11, 46
8, 60192, Control_c, 5, 11, 45
8, 60384, Note_on_c, 5, 62, 0
8, 60384, Note_on_c, 5, 64, 94
8, 60408, Note_on_c, 5, 64, 0
8, 60408, Note_on_c, 5, 62, 89
8, 60670, Note_on_c, 5, 62, 0
8, 60960, Control_c, 5, 11, 92
8, 60960, Note_on_c, 5, 57, 45
8, 60965, Control_c, 5, 11, 93
8, 60970, Control_c, 5, 11, 94
8, 60976, Control_c, 5, 11, 95
8, 60981, Control_c, 5, 11, 96
8, 60987, Control_c, 5, 11, 97
8, 60992, Control_c, 5, 11, 98
8, 60998, Control_c, 5, 11, 99
8, 61003, Control_c, 5, 11, 100
8, 61009, Control_c, 5, 11, 101
8, 61014, Control_c, 5, 11, 102
8, 61020, Control_c, 5, 11, 103
8, 61025, Control_c, 5, 11, 104
8, 61031, Control_c, 5, 11, 105
8, 61036, Control_c, 5, 11, 106
8, 61042, Control_c, 5, 11, 107
8, 61047, Control_c, 5, 11, 108
8, 61053, Control_c, 5, 11, 109
8, 61058, Control_c, 5, 11, 110
8, 61064, Control_c, 5, 11, 111
8, 61069, Control_c, 5, 11, 112
8, 61075, Control_c, 5, 11, 113
8, 61080, Control_c, 5, 11, 114
8, 61086, Control_c, 5, 11, 115
8, 61091, Control_c, 5, 11, 116
8, 61097, Control_c, 5, 11, 117
8, 61102, Control_c, 5, 11, 118
8, 61108, Control_c, 5, 11, 119
8, 61113, Control_c, 5, 11, 120
8, 61119, Control_c, 5, 11, 121
8, 61124, Control_c, 5, 11, 122
8, 61130, Control_c, 5, 11, 123
8, 61135, Control_c, 5, 11, 124
8, 61141, Control_c, 5, 11, 125
8, 61146, Control_c, 5, 11, 126
8, 61152, Note_on_c, 5, 57, 0
8, 61152, Control_c, 5, 11, 127
8, 61152, Note_on_c, 5, 61, 44
8, 61152, Note_on_c, 5, 69, 41
8, 61312, Note_on_c, 5, 61, 0
8, 61312, Note_on_c, 5, 69, 0
8, 62688, Control_c, 5, 11, 92
8, 62688, Note_on_c, 5, 57, 40
8, 62698, Control_c, 5, 11, 93
8, 62709, Control_c, 5, 11, 94
8, 62720, Control_c, 5, 11, 95
8, 62731, Control_c, 5, 11, 96
8, 62742, Control_c, 5, 11, 97
8, 62753, Control_c, 5, 11, 98
8, 62764, Control_c, 5, 11, 99
8, 62775, Control_c, 5, 11, 100
8, 62786, Control_c, 5, 11, 101
8, 62797, Control_c, 5, 11, 102
8, 62808, Control_c, 5, 11, 103
8, 62819, Control_c, 5, 11, 104
8, 62830, Control_c, 5, 11, 105
8, 62841, Control_c, 5, 11, 106
8, 62852, Control_c, 5, 11, 107
8, 62863, Control_c, 5, 11, 108
8, 62874, Control_c, 5, 11, 109
8, 62880, Note_on_c, 5, 57, 0
8, 62880, Note_on_c, 5, 61, 44
8, 62880, Note_on_c, 5, 73, 46
8, 62885, Control_c, 5, 11, 110
8, 62896, Control_c, 5, 11, 111
8, 62907, Control_c, 5, 11, 112
8, 62918, Control_c, 5, 11, 113
8, 62929, Control_c, 5, 11, 114
8, 62940, Control_c, 5, 11, 115
8, 62951, Control_c, 5, 11, 116
8, 62962, Control_c, 5, 11, 117
8, 62973, Control_c, 5, 11, 118
8, 62984, Control_c, 5, 11, 119
8, 62995, Control_c, 5, 11, 120
8, 63006, Control_c, 5, 11, 121
8, 63017, Control_c, 5, 11, 122
8, 63028, Control_c, 5, 11, 123
8, 63039, Control_c, 5, 11, 124
8, 63050, Control_c, 5, 11, 125
8, 63061, Control_c, 5, 11, 126
8, 63072, Note_on_c, 5, 73, 0
8, 63072, Control_c, 5, 11, 127
8, 63072, Note_on_c, 5, 71, 40
8, 63264, Note_on_c, 5, 71, 0
8, 63264, Note_on_c, 5, 69, 46
8, 63456, Note_on_c, 5, 69, 0
8, 63456, Note_on_c, 5, 64, 45
8, 63600, Note_on_c, 5, 61, 0
8, 63648, Note_on_c, 5, 64, 0
8, 63648, Note_on_c, 5, 59, 41
8, 63648, Note_on_c, 5, 67, 41
8, 63840, Note_on_c, 5, 59, 0
8, 63840, Note_on_c, 5, 57, 49
8, 64032, Note_on_c, 5, 57, 0
8, 64032, Note_on_c, 5, 52, 44
8, 64176, Note_on_c, 5, 67, 0
8, 64192, Note_on_c, 5, 52, 0
8, 64224, Control_c, 5, 11, 75
8, 64224, Note_on_c, 5, 57, 57
8, 64224, Note_on_c, 5, 67, 65
8, 64231, Control_c, 5, 11, 76
8, 64238, Control_c, 5, 11, 77
8, 64246, Control_c, 5, 11, 78
8, 64253, Control_c, 5, 11, 79
8, 64260, Control_c, 5, 11, 80
8, 64268, Control_c, 5, 11, 81
8, 64275, Control_c, 5, 11, 82
8, 64283, Control_c, 5, 11, 83
8, 64290, Control_c, 5, 11, 84
8, 64297, Control_c, 5, 11, 85
8, 64305, Control_c, 5, 11, 86
8, 64312, Control_c, 5, 11, 87
8, 64320, Control_c, 5, 11, 88
8, 64327, Control_c, 5, 11, 89
8, 64334, Control_c, 5, 11, 90
8, 64342, Control_c, 5, 11, 91
8, 64349, Control_c, 5, 11, 92
8, 64356, Control_c, 5, 11, 93
8, 64364, Control_c, 5, 11, 94
8, 64371, Control_c, 5, 11, 95
8, 64379, Control_c, 5, 11, 96
8, 64386, Control_c, 5, 11, 97
8, 64393, Control_c, 5, 11, 98
8, 64401, Control_c, 5, 11, 99
8, 64408, Control_c, 5, 11, 100
8, 64416, Control_c, 5, 11, 101
8, 64423, Control_c, 5, 11, 102
8, 64430, Control_c, 5, 11, 103
8, 64438, Control_c, 5, 11, 104
8, 64445, Control_c, 5, 11, 105
8, 64452, Control_c, 5, 11, 106
8, 64460, Control_c, 5, 11, 107
8, 64467, Control_c, 5, 11, 108
8, 64475, Control_c, 5, 11, 109
8, 64482, Control_c, 5, 11, 110
8, 64489, Control_c, 5, 11, 111
8, 64497, Control_c, 5, 11, 112
8, 64504, Control_c, 5, 11, 113
8, 64512, Control_c, 5, 11, 114
8, 64519, Control_c, 5, 11, 115
8, 64526, Control_c, 5, 11, 116
8, 64534, Control_c, 5, 11, 117
8, 64541, Control_c, 5, 11, 118
8, 64548, Control_c, 5, 11, 119
8, 64556, Control_c, 5, 11, 120
8, 64563, Control_c, 5, 11, 121
8, 64571, Control_c, 5, 11, 122
8, 64578, Control_c, 5, 11, 123
8, 64585, Control_c, 5, 11, 124
8, 64593, Control_c, 5, 11, 125
8, 64600, Control_c, 5, 11, 126
8, 64608, Note_on_c, 5, 57, 0
8, 64608, Note_on_c, 5, 67, 0
8, 64608, Control_c, 5, 11, 127
8, 64608, Note_on_c, 5, 58, 55
8, 64608, Note_on_c, 5, 65, 58
8, 64768, Note_on_c, 5, 58, 0
8, 64768, Note_on_c, 5, 65, 0
8, 64800, Control_c, 5, 11, 75
8, 64800, Note_on_c, 5, 54, 97
8, 64800, Note_on_c, 5, 64, 93
8, 64807, Control_c, 5, 11, 76
8, 64814, Control_c, 5, 11, 77
8, 64822, Control_c, 5, 11, 78
8, 64829, Control_c, 5, 11, 79
8, 64836, Control_c, 5, 11, 80
8, 64844, Control_c, 5, 11, 81
8, 64851, Control_c, 5, 11, 82
8, 64859, Control_c, 5, 11, 83
8, 64866, Control_c, 5, 11, 84
8, 64873, Control_c, 5, 11, 85
8, 64881, Control_c, 5, 11, 86
8, 64888, Control_c, 5, 11, 87
8, 64896, Control_c, 5, 11, 88
8, 64903, Control_c, 5, 11, 89
8, 64910, Control_c, 5, 11, 90
8, 64918, Control_c, 5, 11, 91
8, 64925, Control_c, 5, 11, 92
8, 64932, Control_c, 5, 11, 93
8, 64940, Control_c, 5, 11, 94
8, 64947, Control_c, 5, 11, 95
8, 64955, Control_c, 5, 11, 96
8, 64962, Control_c, 5, 11, 97
8, 64969, Control_c, 5, 11, 98
8, 64977, Control_c, 5, 11, 99
8, 64984, Control_c, 5, 11, 100
8, 64992, Control_c, 5, 11, 101
8, 64999, Control_c, 5, 11, 102
8, 65006, Control_c, 5, 11, 103
8, 65014, Control_c, 5, 11, 104
8, 65021, Control_c, 5, 11, 105
8, 65028, Control_c, 5, 11, 106
8, 65036, Control_c, 5, 11, 107
8, 65043, Control_c, 5, 11, 108
8, 65051, Control_c, 5, 11, 109
8, 65058, Control_c, 5, 11, 110
8, 65065, Control_c, 5, 11, 111
8, 65073, Control_c, 5, 11, 112
8, 65080, Control_c, 5, 11, 113
8, 65088, Control_c, 5, 11, 114
8, 65095, Control_c, 5, 11, 115
8, 65102, Control_c, 5, 11, 116
8, 65110, Control_c, 5, 11, 117
8, 65117, Control_c, 5, 11, 118
8, 65124, Control_c, 5, 11, 119
8, 65132, Control_c, 5, 11, 120
8, 65139, Control_c, 5, 11, 121
8, 65147, Control_c, 5, 11, 122
8, 65154, Control_c, 5, 11, 123
8, 65161, Control_c, 5, 11, 124
8, 65169, Control_c, 5, 11, 125
8, 65176, Control_c, 5, 11, 126
8, 65184, Note_on_c, 5, 54, 0
8, 65184, Note_on_c, 5, 64, 0
8, 65184, Control_c, 5, 11, 127
8, 65184, Note_on_c, 5, 58, 96
8, 65184, Note_on_c, 5, 67, 93
8, 65216, Note_on_c, 5, 58, 0
8, 65216, Note_on_c, 5, 67, 0
8, 65376, Note_on_c, 5, 59, 95
8, 65376, Note_on_c, 5, 63, 88
8, 65470, Note_on_c, 5, 59, 0
8, 65470, Note_on_c, 5, 63, 0
8, 65568, Control_c, 5, 11, 75
8, 65568, Note_on_c, 5, 59, 113
8, 65568, Note_on_c, 5, 66, 111
8, 65571, Control_c, 5, 11, 76
8, 65575, Control_c, 5, 11, 77
8, 65579, Control_c, 5, 11, 78
8, 65582, Control_c, 5, 11, 79
8, 65586, Control_c, 5, 11, 80
8, 65590, Control_c, 5, 11, 81
8, 65593, Control_c, 5, 11, 82
8, 65597, Control_c, 5, 11, 83
8, 65601, Control_c, 5, 11, 84
8, 65604, Control_c, 5, 11, 85
8, 65608, Control_c, 5, 11, 86
8, 65612, Control_c, 5, 11, 87
8, 65616, Control_c, 5, 11, 88
8, 65619, Control_c, 5, 11, 89
8, 65623, Control_c, 5, 11, 90
8, 65627, Control_c, 5, 11, 91
8, 65630, Control_c, 5, 11, 92
8, 65634, Control_c, 5, 11, 93
8, 65638, Control_c, 5, 11, 94
8, 65641, Control_c, 5, 11, 95
8, 65645, Control_c, 5, 11, 96
8, 65649, Control_c, 5, 11, 97
8, 65652, Control_c, 5, 11, 98
8, 65656, Control_c, 5, 11, 99
8, 65660, Control_c, 5, 11, 100
8, 65664, Control_c, 5, 11, 101
8, 65667, Control_c, 5, 11, 102
8, 65671, Control_c, 5, 11, 103
8, 65675, Control_c, 5, 11, 104
8, 65678, Control_c, 5, 11, 105
8, 65682, Control_c, 5, 11, 106
8, 65686, Control_c, 5, 11, 107
8, 65689, Control_c, 5, 11, 108
8, 65693, Control_c, 5, 11, 109
8, 65697, Control_c, 5, 11, 110
8, 65700, Control_c, 5, 11, 111
8, 65704, Control_c, 5, 11, 112
8, 65708, Control_c, 5, 11, 113
8, 65712, Control_c, 5, 11, 114
8, 65715, Control_c, 5, 11, 115
8, 65719, Control_c, 5, 11, 116
8, 65723, Control_c, 5, 11, 117
8, 65726, Control_c, 5, 11, 118
8, 65730, Control_c, 5, 11, 119
8, 65734, Control_c, 5, 11, 120
8, 65737, Control_c, 5, 11, 121
8, 65741, Control_c, 5, 11, 122
8, 65745, Control_c, 5, 11, 123
8, 65748, Control_c, 5, 11, 124
8, 65752, Control_c, 5, 11, 125
8, 65756, Control_c, 5, 11, 126
8, 65760, Control_c, 5, 11, 127
8, 65952, Control_c, 5, 11, 127
8, 65962, Control_c, 5, 11, 126
8, 65973, Control_c, 5, 11, 125
8, 65984, Control_c, 5, 11, 124
8, 65995, Control_c, 5, 11, 123
8, 66005, Control_c, 5, 11, 122
8, 66016, Control_c, 5, 11, 121
8, 66027, Control_c, 5, 11, 120
8, 66038, Control_c, 5, 11, 119
8, 66048, Control_c, 5, 11, 118
8, 66059, Control_c, 5, 11, 117
8, 66070, Control_c, 5, 11, 116
8, 66081, Control_c, 5, 11, 115
8, 66091, Control_c, 5, 11, 114
8, 66102, Control_c, 5, 11, 113
8, 66113, Control_c, 5, 11, 112
8, 66124, Control_c, 5, 11, 111
8, 66135, Control_c, 5, 11, 110
8, 66145, Control_c, 5, 11, 109
8, 66156, Control_c, 5, 11, 108
8, 66167, Control_c, 5, 11, 107
8, 66178, Control_c, 5, 11, 106
8, 66188, Control_c, 5, 11, 105
8, 66199, Control_c, 5, 11, 104
8, 66210, Control_c, 5, 11, 103
8, 66221, Control_c, 5, 11, 102
8, 66231, Control_c, 5, 11, 101
8, 66242, Control_c, 5, 11, 100
8, 66253, Control_c, 5, 11, 99
8, 66264, Control_c, 5, 11, 98
8, 66274, Control_c, 5, 11, 97
8, 66285, Control_c, 5, 11, 96
8, 66296, Control_c, 5, 11, 95
8, 66307, Control_c, 5, 11, 94
8, 66318, Control_c, 5, 11, 93
8, 66328, Control_c, 5, 11, 92
8, 66339, Control_c, 5, 11, 91
8, 66350, Control_c, 5, 11, 90
8, 66361, Control_c, 5, 11, 89
8, 66371, Control_c, 5, 11, 88
8, 66382, Control_c, 5, 11, 87
8, 66393, Control_c, 5, 11, 86
8, 66404, Control_c, 5, 11, 85
8, 66414, Control_c, 5, 11, 84
8, 66425, Control_c, 5, 11, 83
8, 66436, Control_c, 5, 11, 82
8, 66447, Control_c, 5, 11, 81
8, 66458, Control_c, 5, 11, 80
8, 66468, Control_c, 5, 11, 79
8, 66479, Control_c, 5, 11, 78
8, 66490, Control_c, 5, 11, 77
8, 66501, Control_c, 5, 11, 76
8, 66511, Control_c, 5, 11, 75
8, 66522, Control_c, 5, 11, 74
8, 66533, Control_c, 5, 11, 73
8, 66544, Control_c, 5, 11, 72
8, 66554, Control_c, 5, 11, 71
8, 66565, Control_c, 5, 11, 70
8, 66576, Control_c, 5, 11, 69
8, 66587, Control_c, 5, 11, 68
8, 66597, Control_c, 5, 11, 67
8, 66608, Control_c, 5, 11, 66
8, 66619, Control_c, 5, 11, 65
8, 66630, Control_c, 5, 11, 64
8, 66641, Control_c, 5, 11, 63
8, 66651, Control_c, 5, 11, 62
8, 66662, Control_c, 5, 11, 61
8, 66673, Control_c, 5, 11, 60
8, 66684, Control_c, 5, 11, 59
8, 66694, Control_c, 5, 11, 58
8, 66705, Control_c, 5, 11, 57
8, 66716, Control_c, 5, 11, 56
8, 66727, Control_c, 5, 11, 55
8, 66737, Control_c, 5, 11, 54
8, 66748, Control_c, 5, 11, 53
8, 66759, Control_c, 5, 11, 52
8, 66770, Control_c, 5, 11, 51
8, 66781, Control_c, 5, 11, 50
8, 66791, Control_c, 5, 11, 49
8, 66802, Control_c, 5, 11, 48
8, 66813, Control_c, 5, 11, 47
8, 66824, Control_c, 5, 11, 46
8, 66834, Control_c, 5, 11, 45
8, 66845, Control_c, 5, 11, 44
8, 66856, Control_c, 5, 11, 43
8, 66867, Control_c, 5, 11, 42
8, 66877, Control_c, 5, 11, 41
8, 66888, Control_c, 5, 11, 40
8, 66899, Control_c, 5, 11, 39
8, 66910, Control_c, 5, 11, 38
8, 66920, Control_c, 5, 11, 37
8, 66931, Control_c, 5, 11, 36
8, 66942, Control_c, 5, 11, 35
8, 66953, Control_c, 5, 11, 34
8, 66964, Control_c, 5, 11, 33
8, 66974, Control_c, 5, 11, 32
8, 66985, Control_c, 5, 11, 31
8, 66996, Control_c, 5, 11, 30
8, 67007, Control_c, 5, 11, 29
8, 67017, Control_c, 5, 11, 28
8, 67028, Control_c, 5, 11, 27
8, 67039, Control_c, 5, 11, 26
8, 67050, Control_c, 5, 11, 25
8, 67060, Control_c, 5, 11, 24
8, 67071, Control_c, 5, 11, 23
8, 67082, Control_c, 5, 11, 22
8, 67093, Control_c, 5, 11, 21
8, 67104, Control_c, 5, 11, 20
8, 67264, Note_on_c, 5, 59, 0
8, 67264, Note_on_c, 5, 66, 0
8, 67680, Control_c, 5, 11, 127
8, 68064, Note_on_c, 5, 62, 64
8, 68224, Note_on_c, 5, 62, 0
8, 68448, Note_on_c, 5, 62, 63
8, 68608, Note_on_c, 5, 62, 0
8, 69024, Note_on_c, 5, 62, 61
8, 69184, Note_on_c, 5, 62, 0
8, 69600, Note_on_c, 5, 62, 50
8, 69760, Note_on_c, 5, 62, 0
8, 72480, Note_on_c, 5, 62, 92
8, 72640, Note_on_c, 5, 62, 0
8, 73056, Note_on_c, 5, 62, 45
8, 73216, Note_on_c, 5, 62, 0
8, 74592, Control_c, 5, 11, 127
8, 75168, Note_on_c, 5, 65, 26
8, 75190, Note_on_c, 5, 65, 0
8, 75192, Note_on_c, 5, 67, 27
8, 75214, Note_on_c, 5, 67, 0
8, 75216, Note_on_c, 5, 65, 34
8, 75238, Note_on_c, 5, 65, 0
8, 75240, Note_on_c, 5, 67, 31
8, 75262, Note_on_c, 5, 67, 0
8, 75264, Note_on_c, 5, 65, 35
8, 75286, Note_on_c, 5, 65, 0
8, 75288, Note_on_c, 5, 67, 29
8, 75310, Note_on_c, 5, 67, 0
8, 75312, Note_on_c, 5, 65, 34
8, 75334, Note_on_c, 5, 65, 0
8, 75336, Note_on_c, 5, 67, 26
8, 75358, Note_on_c, 5, 67, 0
8, 75360, Note_on_c, 5, 65, 34
8, 75382, Note_on_c, 5, 65, 0
8, 75384, Note_on_c, 5, 67, 26
8, 75406, Note_on_c, 5, 67, 0
8, 75408, Note_on_c, 5, 65, 31
8, 75430, Note_on_c, 5, 65, 0
8, 75432, Note_on_c, 5, 67, 30
8, 75454, Note_on_c, 5, 67, 0
8, 75456, Note_on_c, 5, 65, 30
8, 75478, Note_on_c, 5, 65, 0
8, 75480, Note_on_c, 5, 67, 30
8, 75502, Note_on_c, 5, 67, 0
8, 75504, Note_on_c, 5, 65, 26
8, 75526, Note_on_c, 5, 65, 0
8, 75528, Note_on_c, 5, 67, 33
8, 75550, Note_on_c, 5, 67, 0
8, 75552, Note_on_c, 5, 65, 33
8, 75574, Note_on_c, 5, 65, 0
8, 75576, Note_on_c, 5, 67, 28
8, 75598, Note_on_c, 5, 67, 0
8, 75600, Note_on_c, 5, 65, 29
8, 75622, Note_on_c, 5, 65, 0
8, 75624, Note_on_c, 5, 67, 31
8, 75646, Note_on_c, 5, 67, 0
8, 75648, Note_on_c, 5, 65, 26
8, 75670, Note_on_c, 5, 65, 0
8, 75672, Note_on_c, 5, 67, 29
8, 75694, Note_on_c, 5, 67, 0
8, 75696, Note_on_c, 5, 62, 28
8, 75718, Note_on_c, 5, 62, 0
8, 75720, Note_on_c, 5, 65, 40
8, 75742, Note_on_c, 5, 65, 0
8, 75744, Note_on_c, 5, 56, 26
8, 75864, Note_on_c, 5, 56, 0
8, 75936, Note_on_c, 5, 59, 29
8, 76056, Note_on_c, 5, 59, 0
8, 76128, Note_on_c, 5, 62, 26
8, 76248, Note_on_c, 5, 62, 0
8, 76320, Note_on_c, 5, 65, 27
8, 76352, Note_on_c, 5, 65, 0
8, 76512, Note_on_c, 5, 65, 31
8, 76512, Note_on_c, 5, 73, 35
8, 76606, Note_on_c, 5, 65, 0
8, 76606, Note_on_c, 5, 73, 0
8, 77856, Note_on_c, 5, 63, 26
8, 77880, Note_on_c, 5, 63, 0
8, 77880, Note_on_c, 5, 65, 34
8, 78046, Note_on_c, 5, 65, 0
8, 78048, Note_on_c, 5, 60, 29
8, 78072, Note_on_c, 5, 60, 0
8, 78072, Note_on_c, 5, 62, 33
8, 78238, Note_on_c, 5, 62, 0
8, 78432, Note_on_c, 5, 63, 35
8, 78456, Note_on_c, 5, 63, 0
8, 78456, Note_on_c, 5, 65, 34
8, 78622, Note_on_c, 5, 65, 0
8, 78624, Control_c, 5, 11, 92
8, 78624, Note_on_c, 5, 60, 62
8, 78634, Control_c, 5, 11, 93
8, 78645, Control_c, 5, 11, 94
8, 78648, Note_on_c, 5, 60, 0
8, 78648, Note_on_c, 5, 62, 61
8, 78656, Control_c, 5, 11, 95
8, 78667, Control_c, 5, 11, 96
8, 78678, Control_c, 5, 11, 97
8, 78689, Control_c, 5, 11, 98
8, 78700, Control_c, 5, 11, 99
8, 78711, Control_c, 5, 11, 100
8, 78720, Note_on_c, 5, 58, 65
8, 78722, Control_c, 5, 11, 101
8, 78733, Control_c, 5, 11, 102
8, 78744, Control_c, 5, 11, 103
8, 78750, Note_on_c, 5, 58, 0
8, 78752, Note_on_c, 5, 60, 64
8, 78755, Control_c, 5, 11, 104
8, 78766, Control_c, 5, 11, 105
8, 78777, Control_c, 5, 11, 106
8, 78782, Note_on_c, 5, 60, 0
8, 78784, Note_on_c, 5, 62, 57
8, 78788, Control_c, 5, 11, 107
8, 78799, Control_c, 5, 11, 108
8, 78810, Control_c, 5, 11, 109
8, 78814, Note_on_c, 5, 62, 0
8, 78814, Note_on_c, 5, 62, 0
8, 78816, Note_on_c, 5, 64, 58
8, 78821, Control_c, 5, 11, 110
8, 78832, Control_c, 5, 11, 111
8, 78843, Control_c, 5, 11, 112
8, 78854, Control_c, 5, 11, 113
8, 78865, Control_c, 5, 11, 114
8, 78876, Control_c, 5, 11, 115
8, 78887, Control_c, 5, 11, 116
8, 78898, Control_c, 5, 11, 117
8, 78909, Control_c, 5, 11, 118
8, 78920, Control_c, 5, 11, 119
8, 78931, Control_c, 5, 11, 120
8, 78942, Control_c, 5, 11, 121
8, 78953, Control_c, 5, 11, 122
8, 78958, Note_on_c, 5, 64, 0
8, 78960, Note_on_c, 5, 65, 57
8, 78964, Control_c, 5, 11, 123
8, 78975, Control_c, 5, 11, 124
8, 78986, Control_c, 5, 11, 125
8, 78997, Control_c, 5, 11, 126
8, 79006, Note_on_c, 5, 65, 0
8, 79008, Control_c, 5, 11, 127
8, 79008, Note_on_c, 5, 63, 55
8, 79032, Note_on_c, 5, 63, 0
8, 79032, Note_on_c, 5, 61, 58
8, 79032, Note_on_c, 5, 65, 61
8, 79198, Note_on_c, 5, 61, 0
8, 79198, Note_on_c, 5, 65, 0
8, 79200, Control_c, 5, 11, 92
8, 79200, Note_on_c, 5, 60, 55
8, 79210, Control_c, 5, 11, 93
8, 79221, Control_c, 5, 11, 94
8, 79224, Note_on_c, 5, 60, 0
8, 79224, Note_on_c, 5, 62, 65
8, 79232, Control_c, 5, 11, 95
8, 79243, Control_c, 5, 11, 96
8, 79254, Control_c, 5, 11, 97
8, 79265, Control_c, 5, 11, 98
8, 79276, Control_c, 5, 11, 99
8, 79287, Control_c, 5, 11, 100
8, 79296, Note_on_c, 5, 58, 63
8, 79298, Control_c, 5, 11, 101
8, 79309, Control_c, 5, 11, 102
8, 79320, Control_c, 5, 11, 103
8, 79326, Note_on_c, 5, 58, 0
8, 79328, Note_on_c, 5, 60, 61
8, 79331, Control_c, 5, 11, 104
8, 79342, Control_c, 5, 11, 105
8, 79353, Control_c, 5, 11, 106
8, 79358, Note_on_c, 5, 60, 0
8, 79360, Note_on_c, 5, 62, 64
8, 79364, Control_c, 5, 11, 107
8, 79375, Control_c, 5, 11, 108
8, 79386, Control_c, 5, 11, 109
8, 79390, Note_on_c, 5, 62, 0
8, 79390, Note_on_c, 5, 62, 0
8, 79392, Note_on_c, 5, 64, 56
8, 79397, Control_c, 5, 11, 110
8, 79408, Control_c, 5, 11, 111
8, 79419, Control_c, 5, 11, 112
8, 79430, Control_c, 5, 11, 113
8, 79441, Control_c, 5, 11, 114
8, 79452, Control_c, 5, 11, 115
8, 79463, Control_c, 5, 11, 116
8, 79474, Control_c, 5, 11, 117
8, 79485, Control_c, 5, 11, 118
8, 79496, Control_c, 5, 11, 119
8, 79507, Control_c, 5, 11, 120
8, 79518, Control_c, 5, 11, 121
8, 79529, Control_c, 5, 11, 122
8, 79534, Note_on_c, 5, 64, 0
8, 79536, Note_on_c, 5, 65, 59
8, 79540, Control_c, 5, 11, 123
8, 79551, Control_c, 5, 11, 124
8, 79562, Control_c, 5, 11, 125
8, 79573, Control_c, 5, 11, 126
8, 79582, Note_on_c, 5, 65, 0
8, 79584, Control_c, 5, 11, 127
8, 79584, Note_on_c, 5, 63, 65
8, 79608, Note_on_c, 5, 63, 0
8, 79608, Note_on_c, 5, 61, 61
8, 79608, Note_on_c, 5, 65, 59
8, 79774, Note_on_c, 5, 61, 0
8, 79774, Note_on_c, 5, 65, 0
8, 79776, Note_on_c, 5, 60, 65
8, 79800, Note_on_c, 5, 60, 0
8, 79800, Note_on_c, 5, 62, 59
8, 79872, Note_on_c, 5, 58, 62
8, 79902, Note_on_c, 5, 58, 0
8, 79904, Note_on_c, 5, 60, 56
8, 79934, Note_on_c, 5, 60, 0
8, 79936, Note_on_c, 5, 62, 59
8, 79966, Note_on_c, 5, 62, 0
8, 79966, Note_on_c, 5, 62, 0
8, 79968, Note_on_c, 5, 64, 62
8, 80110, Note_on_c, 5, 64, 0
8, 80112, Note_on_c, 5, 65, 61
8, 80158, Note_on_c, 5, 65, 0
8, 80160, Note_on_c, 5, 63, 69
8, 80184, Note_on_c, 5, 63, 0
8, 80184, Note_on_c, 5, 61, 66
8, 80184, Note_on_c, 5, 65, 61
8, 80350, Note_on_c, 5, 61, 0
8, 80350, Note_on_c, 5, 65, 0
8, 80352, Note_on_c, 5, 60, 64
8, 80376, Note_on_c, 5, 60, 0
8, 80376, Note_on_c, 5, 62, 72
8, 80448, Note_on_c, 5, 58, 71
8, 80478, Note_on_c, 5, 58, 0
8, 80480, Note_on_c, 5, 60, 66
8, 80510, Note_on_c, 5, 60, 0
8, 80512, Note_on_c, 5, 62, 71
8, 80542, Note_on_c, 5, 62, 0
8, 80542, Note_on_c, 5, 62, 0
8, 80544, Note_on_c, 5, 64, 66
8, 80686, Note_on_c, 5, 64, 0
8, 80688, Note_on_c, 5, 65, 70
8, 80734, Note_on_c, 5, 65, 0
8, 80736, Note_on_c, 5, 63, 73
8, 80760, Note_on_c, 5, 63, 0
8, 80760, Note_on_c, 5, 61, 71
8, 80760, Note_on_c, 5, 65, 73
8, 80926, Note_on_c, 5, 61, 0
8, 80926, Note_on_c, 5, 65, 0
8, 82080, Note_on_c, 5, 60, 108
8, 82104, Note_on_c, 5, 60, 0
8, 82104, Note_on_c, 5, 62, 111
8, 82992, Note_on_c, 5, 62, 0
8, 84384, Note_on_c, 5, 60, 113
8, 84408, Note_on_c, 5, 60, 0
8, 84408, Note_on_c, 5, 62, 107
8, 84960, Control_c, 5, 11, 127
8, 84969, Control_c, 5, 11, 126
8, 84978, Control_c, 5, 11, 125
8, 84988, Control_c, 5, 11, 124
8, 84997, Control_c, 5, 11, 123
8, 85006, Control_c, 5, 11, 122
8, 85016, Control_c, 5, 11, 121
8, 85025, Control_c, 5, 11, 120
8, 85034, Control_c, 5, 11, 119
8, 85044, Control_c, 5, 11, 118
8, 85053, Control_c, 5, 11, 117
8, 85063, Control_c, 5, 11, 116
8, 85072, Control_c, 5, 11, 115
8, 85081, Control_c, 5, 11, 114
8, 85091, Control_c, 5, 11, 113
8, 85100, Control_c, 5, 11, 112
8, 85109, Control_c, 5, 11, 111
8, 85119, Control_c, 5, 11, 110
8, 85128, Control_c, 5, 11, 109
8, 85137, Control_c, 5, 11, 108
8, 85147, Control_c, 5, 11, 107
8, 85156, Control_c, 5, 11, 106
8, 85166, Control_c, 5, 11, 105
8, 85175, Control_c, 5, 11, 104
8, 85184, Control_c, 5, 11, 103
8, 85194, Control_c, 5, 11, 102
8, 85203, Control_c, 5, 11, 101
8, 85212, Control_c, 5, 11, 100
8, 85222, Control_c, 5, 11, 99
8, 85231, Control_c, 5, 11, 98
8, 85240, Control_c, 5, 11, 97
8, 85250, Control_c, 5, 11, 96
8, 85259, Control_c, 5, 11, 95
8, 85269, Control_c, 5, 11, 94
8, 85278, Control_c, 5, 11, 93
8, 85287, Control_c, 5, 11, 92
8, 85297, Control_c, 5, 11, 91
8, 85306, Control_c, 5, 11, 90
8, 85315, Control_c, 5, 11, 89
8, 85325, Control_c, 5, 11, 88
8, 85334, Control_c, 5, 11, 87
8, 85343, Control_c, 5, 11, 86
8, 85353, Control_c, 5, 11, 85
8, 85362, Control_c, 5, 11, 84
8, 85372, Control_c, 5, 11, 83
8, 85381, Control_c, 5, 11, 82
8, 85390, Control_c, 5, 11, 81
8, 85400, Control_c, 5, 11, 80
8, 85409, Control_c, 5, 11, 79
8, 85418, Control_c, 5, 11, 78
8, 85428, Control_c, 5, 11, 77
8, 85437, Control_c, 5, 11, 76
8, 85447, Control_c, 5, 11, 75
8, 85456, Control_c, 5, 11, 74
8, 85465, Control_c, 5, 11, 73
8, 85475, Control_c, 5, 11, 72
8, 85484, Control_c, 5, 11, 71
8, 85493, Control_c, 5, 11, 70
8, 85503, Control_c, 5, 11, 69
8, 85512, Control_c, 5, 11, 68
8, 85521, Control_c, 5, 11, 67
8, 85531, Control_c, 5, 11, 66
8, 85540, Control_c, 5, 11, 65
8, 85550, Control_c, 5, 11, 64
8, 85559, Control_c, 5, 11, 63
8, 85568, Control_c, 5, 11, 62
8, 85578, Control_c, 5, 11, 61
8, 85587, Control_c, 5, 11, 60
8, 85596, Control_c, 5, 11, 59
8, 85606, Control_c, 5, 11, 58
8, 85615, Control_c, 5, 11, 57
8, 85624, Control_c, 5, 11, 56
8, 85634, Control_c, 5, 11, 55
8, 85643, Control_c, 5, 11, 54
8, 85653, Control_c, 5, 11, 53
8, 85662, Control_c, 5, 11, 52
8, 85671, Control_c, 5, 11, 51
8, 85681, Control_c, 5, 11, 50
8, 85690, Control_c, 5, 11, 49
8, 85696, Note_on_c, 5, 62, 0
8, 85699, Control_c, 5, 11, 48
8, 85709, Control_c, 5, 11, 47
8, 85718, Control_c, 5, 11, 46
8, 85728, Control_c, 5, 11, 45
8, 86112, Control_c, 5, 11, 127
8, 86688, Note_on_c, 5, 28, 31
8, 88368, Note_on_c, 5, 28, 0
8, 88992, Note_on_c, 5, 28, 26
8, 90672, Note_on_c, 5, 28, 0
8, 94176, Control_c, 5, 11, 92
8, 94560, Note_on_c, 5, 54, 60
8, 94752, Control_c, 5, 11, 92
8, 94757, Control_c, 5, 11, 93
8, 94762, Control_c, 5, 11, 94
8, 94768, Control_c, 5, 11, 95
8, 94773, Control_c, 5, 11, 96
8, 94779, Control_c, 5, 11, 97
8, 94784, Control_c, 5, 11, 98
8, 94790, Control_c, 5, 11, 99
8, 94795, Control_c, 5, 11, 100
8, 94801, Control_c, 5, 11, 101
8, 94806, Control_c, 5, 11, 102
8, 94812, Control_c, 5, 11, 103
8, 94817, Control_c, 5, 11, 104
8, 94823, Control_c, 5, 11, 105
8, 94828, Control_c, 5, 11, 106
8, 94834, Control_c, 5, 11, 107
8, 94839, Control_c, 5, 11, 108
8, 94845, Control_c, 5, 11, 109
8, 94850, Control_c, 5, 11, 110
8, 94856, Control_c, 5, 11, 111
8, 94861, Control_c, 5, 11, 112
8, 94867, Control_c, 5, 11, 113
8, 94872, Control_c, 5, 11, 114
8, 94878, Control_c, 5, 11, 115
8, 94883, Control_c, 5, 11, 116
8, 94889, Control_c, 5, 11, 117
8, 94894, Control_c, 5, 11, 118
8, 94900, Control_c, 5, 11, 119
8, 94905, Control_c, 5, 11, 120
8, 94911, Control_c, 5, 11, 121
8, 94916, Control_c, 5, 11, 122
8, 94922, Control_c, 5, 11, 123
8, 94927, Control_c, 5, 11, 124
8, 94933, Control_c, 5, 11, 125
8, 94938, Control_c, 5, 11, 126
8, 94944, Note_on_c, 5, 54, 0
8, 94944, Control_c, 5, 11, 127
8, 94944, Note_on_c, 5, 59, 59
8, 95232, Note_on_c, 5, 59, 0
8, 95232, Note_on_c, 5, 57, 61
8, 95326, Note_on_c, 5, 57, 0
8, 95328, Control_c, 5, 11, 92
8, 95328, Note_on_c, 5, 54, 56
8, 95333, Control_c, 5, 11, 93
8, 95338, Control_c, 5, 11, 94
8, 95344, Control_c, 5, 11, 95
8, 95349, Control_c, 5, 11, 96
8, 95355, Control_c, 5, 11, 97
8, 95360, Control_c, 5, 11, 98
8, 95366, Control_c, 5, 11, 99
8, 95371, Control_c, 5, 11, 100
8, 95377, Control_c, 5, 11, 101
8, 95382, Control_c, 5, 11, 102
8, 95388, Control_c, 5, 11, 103
8, 95393, Control_c, 5, 11, 104
8, 95399, Control_c, 5, 11, 105
8, 95404, Control_c, 5, 11, 106
8, 95410, Control_c, 5, 11, 107
8, 95415, Control_c, 5, 11, 108
8, 95421, Control_c, 5, 11, 109
8, 95426, Control_c, 5, 11, 110
8, 95432, Control_c, 5, 11, 111
8, 95437, Control_c, 5, 11, 112
8, 95443, Control_c, 5, 11, 113
8, 95448, Control_c, 5, 11, 114
8, 95454, Control_c, 5, 11, 115
8, 95459, Control_c, 5, 11, 116
8, 95465, Control_c, 5, 11, 117
8, 95470, Control_c, 5, 11, 118
8, 95476, Control_c, 5, 11, 119
8, 95481, Control_c, 5, 11, 120
8, 95487, Control_c, 5, 11, 121
8, 95492, Control_c, 5, 11, 122
8, 95498, Control_c, 5, 11, 123
8, 95503, Control_c, 5, 11, 124
8, 95509, Control_c, 5, 11, 125
8, 95514, Control_c, 5, 11, 126
8, 95520, Note_on_c, 5, 54, 0
8, 95520, Control_c, 5, 11, 127
8, 95520, Note_on_c, 5, 59, 59
8, 95808, Note_on_c, 5, 59, 0
8, 95808, Note_on_c, 5, 57, 65
8, 95902, Note_on_c, 5, 57, 0
8, 95904, Note_on_c, 5, 55, 42
8, 96382, Note_on_c, 5, 55, 0
8, 96480, Note_on_c, 5, 55, 40
8, 96958, Note_on_c, 5, 55, 0
8, 97056, Control_c, 5, 11, 64
8, 97056, Note_on_c, 5, 56, 79
8, 97074, Control_c, 5, 11, 65
8, 97092, Control_c, 5, 11, 66
8, 97110, Control_c, 5, 11, 67
8, 97129, Control_c, 5, 11, 68
8, 97147, Control_c, 5, 11, 69
8, 97165, Control_c, 5, 11, 70
8, 97184, Control_c, 5, 11, 71
8, 97202, Control_c, 5, 11, 72
8, 97220, Control_c, 5, 11, 73
8, 97238, Control_c, 5, 11, 74
8, 97257, Control_c, 5, 11, 75
8, 97275, Control_c, 5, 11, 76
8, 97293, Control_c, 5, 11, 77
8, 97312, Control_c, 5, 11, 78
8, 97330, Control_c, 5, 11, 79
8, 97348, Control_c, 5, 11, 80
8, 97366, Control_c, 5, 11, 81
8, 97385, Control_c, 5, 11, 82
8, 97403, Control_c, 5, 11, 83
8, 97421, Control_c, 5, 11, 84
8, 97440, Control_c, 5, 11, 85
8, 97458, Control_c, 5, 11, 86
8, 97476, Control_c, 5, 11, 87
8, 97494, Control_c, 5, 11, 88
8, 97513, Control_c, 5, 11, 89
8, 97531, Control_c, 5, 11, 90
8, 97549, Control_c, 5, 11, 91
8, 97568, Control_c, 5, 11, 92
8, 97586, Control_c, 5, 11, 93
8, 97604, Control_c, 5, 11, 94
8, 97622, Control_c, 5, 11, 95
8, 97632, Note_on_c, 5, 56, 0
8, 97632, Note_on_c, 5, 52, 74
8, 97641, Control_c, 5, 11, 96
8, 97659, Control_c, 5, 11, 97
8, 97677, Control_c, 5, 11, 98
8, 97696, Control_c, 5, 11, 99
8, 97714, Control_c, 5, 11, 100
8, 97732, Control_c, 5, 11, 101
8, 97750, Control_c, 5, 11, 102
8, 97769, Control_c, 5, 11, 103
8, 97787, Control_c, 5, 11, 104
8, 97805, Control_c, 5, 11, 105
8, 97824, Control_c, 5, 11, 106
8, 97842, Control_c, 5, 11, 107
8, 97860, Control_c, 5, 11, 108
8, 97878, Control_c, 5, 11, 109
8, 97897, Control_c, 5, 11, 110
8, 97915, Control_c, 5, 11, 111
8, 97933, Control_c, 5, 11, 112
8, 97952, Control_c, 5, 11, 113
8, 97970, Control_c, 5, 11, 114
8, 97988, Control_c, 5, 11, 115
8, 98006, Control_c, 5, 11, 116
8, 98025, Control_c, 5, 11, 117
8, 98043, Control_c, 5, 11, 118
8, 98061, Control_c, 5, 11, 119
8, 98080, Control_c, 5, 11, 120
8, 98098, Control_c, 5, 11, 121
8, 98116, Control_c, 5, 11, 122
8, 98134, Control_c, 5, 11, 123
8, 98153, Control_c, 5, 11, 124
8, 98160, Note_on_c, 5, 52, 0
8, 98171, Control_c, 5, 11, 125
8, 98189, Control_c, 5, 11, 126
8, 98208, Control_c, 5, 11, 127
8, 98208, Control_c, 5, 11, 92
8, 98208, Note_on_c, 5, 55, 55
8, 98400, Control_c, 5, 11, 92
8, 98405, Control_c, 5, 11, 93
8, 98410, Control_c, 5, 11, 94
8, 98416, Control_c, 5, 11, 95
8, 98421, Control_c, 5, 11, 96
8, 98427, Control_c, 5, 11, 97
8, 98432, Control_c, 5, 11, 98
8, 98438, Control_c, 5, 11, 99
8, 98443, Control_c, 5, 11, 100
8, 98449, Control_c, 5, 11, 101
8, 98454, Control_c, 5, 11, 102
8, 98460, Control_c, 5, 11, 103
8, 98465, Control_c, 5, 11, 104
8, 98471, Control_c, 5, 11, 105
8, 98476, Control_c, 5, 11, 106
8, 98482, Control_c, 5, 11, 107
8, 98487, Control_c, 5, 11, 108
8, 98493, Control_c, 5, 11, 109
8, 98498, Control_c, 5, 11, 110
8, 98504, Control_c, 5, 11, 111
8, 98509, Control_c, 5, 11, 112
8, 98515, Control_c, 5, 11, 113
8, 98520, Control_c, 5, 11, 114
8, 98526, Control_c, 5, 11, 115
8, 98531, Control_c, 5, 11, 116
8, 98537, Control_c, 5, 11, 117
8, 98542, Control_c, 5, 11, 118
8, 98548, Control_c, 5, 11, 119
8, 98553, Control_c, 5, 11, 120
8, 98559, Control_c, 5, 11, 121
8, 98564, Control_c, 5, 11, 122
8, 98570, Control_c, 5, 11, 123
8, 98575, Control_c, 5, 11, 124
8, 98581, Control_c, 5, 11, 125
8, 98586, Control_c, 5, 11, 126
8, 98592, Control_c, 5, 11, 127
8, 98686, Note_on_c, 5, 55, 0
8, 98784, Control_c, 5, 11, 92
8, 98784, Note_on_c, 5, 55, 59
8, 98976, Control_c, 5, 11, 92
8, 98981, Control_c, 5, 11, 93
8, 98986, Control_c, 5, 11, 94
8, 98992, Control_c, 5, 11, 95
8, 98997, Control_c, 5, 11, 96
8, 99003, Control_c, 5, 11, 97
8, 99008, Control_c, 5, 11, 98
8, 99014, Control_c, 5, 11, 99
8, 99019, Control_c, 5, 11, 100
8, 99025, Control_c, 5, 11, 101
8, 99030, Control_c, 5, 11, 102
8, 99036, Control_c, 5, 11, 103
8, 99041, Control_c, 5, 11, 104
8, 99047, Control_c, 5, 11, 105
8, 99052, Control_c, 5, 11, 106
8, 99058, Control_c, 5, 11, 107
8, 99063, Control_c, 5, 11, 108
8, 99069, Control_c, 5, 11, 109
8, 99074, Control_c, 5, 11, 110
8, 99080, Control_c, 5, 11, 111
8, 99085, Control_c, 5, 11, 112
8, 99091, Control_c, 5, 11, 113
8, 99096, Control_c, 5, 11, 114
8, 99102, Control_c, 5, 11, 115
8, 99107, Control_c, 5, 11, 116
8, 99113, Control_c, 5, 11, 117
8, 99118, Control_c, 5, 11, 118
8, 99124, Control_c, 5, 11, 119
8, 99129, Control_c, 5, 11, 120
8, 99135, Control_c, 5, 11, 121
8, 99140, Control_c, 5, 11, 122
8, 99146, Control_c, 5, 11, 123
8, 99151, Control_c, 5, 11, 124
8, 99157, Control_c, 5, 11, 125
8, 99162, Control_c, 5, 11, 126
8, 99168, Control_c, 5, 11, 127
8, 99262, Note_on_c, 5, 55, 0
8, 99360, Control_c, 5, 11, 64
8, 99360, Note_on_c, 5, 56, 70
8, 99378, Control_c, 5, 11, 65
8, 99396, Control_c, 5, 11, 66
8, 99414, Control_c, 5, 11, 67
8, 99433, Control_c, 5, 11, 68
8, 99451, Control_c, 5, 11, 69
8, 99469, Control_c, 5, 11, 70
8, 99488, Control_c, 5, 11, 71
8, 99506, Control_c, 5, 11, 72
8, 99524, Control_c, 5, 11, 73
8, 99542, Control_c, 5, 11, 74
8, 99561, Control_c, 5, 11, 75
8, 99579, Control_c, 5, 11, 76
8, 99597, Control_c, 5, 11, 77
8, 99616, Control_c, 5, 11, 78
8, 99634, Control_c, 5, 11, 79
8, 99652, Control_c, 5, 11, 80
8, 99670, Control_c, 5, 11, 81
8, 99689, Control_c, 5, 11, 82
8, 99707, Control_c, 5, 11, 83
8, 99725, Control_c, 5, 11, 84
8, 99744, Control_c, 5, 11, 85
8, 99762, Control_c, 5, 11, 86
8, 99780, Control_c, 5, 11, 87
8, 99798, Control_c, 5, 11, 88
8, 99817, Control_c, 5, 11, 89
8, 99835, Control_c, 5, 11, 90
8, 99853, Control_c, 5, 11, 91
8, 99872, Control_c, 5, 11, 92
8, 99890, Control_c, 5, 11, 93
8, 99908, Control_c, 5, 11, 94
8, 99926, Control_c, 5, 11, 95
8, 99936, Note_on_c, 5, 56, 0
8, 99936, Note_on_c, 5, 52, 73
8, 99945, Control_c, 5, 11, 96
8, 99963, Control_c, 5, 11, 97
8, 99981, Control_c, 5, 11, 98
8, 100000, Control_c, 5, 11, 99
8, 100018, Control_c, 5, 11, 100
8, 100036, Control_c, 5, 11, 101
8, 100054, Control_c, 5, 11, 102
8, 100073, Control_c, 5, 11, 103
8, 100091, Control_c, 5, 11, 104
8, 100109, Control_c, 5, 11, 105
8, 100128, Control_c, 5, 11, 106
8, 100146, Control_c, 5, 11, 107
8, 100164, Control_c, 5, 11, 108
8, 100182, Control_c, 5, 11, 109
8, 100201, Control_c, 5, 11, 110
8, 100219, Control_c, 5, 11, 111
8, 100237, Control_c, 5, 11, 112
8, 100256, Control_c, 5, 11, 113
8, 100274, Control_c, 5, 11, 114
8, 100292, Control_c, 5, 11, 115
8, 100310, Control_c, 5, 11, 116
8, 100329, Control_c, 5, 11, 117
8, 100347, Control_c, 5, 11, 118
8, 100365, Control_c, 5, 11, 119
8, 100384, Control_c, 5, 11, 120
8, 100402, Control_c, 5, 11, 121
8, 100420, Control_c, 5, 11, 122
8, 100438, Control_c, 5, 11, 123
8, 100457, Control_c, 5, 11, 124
8, 100464, Note_on_c, 5, 52, 0
8, 100475, Control_c, 5, 11, 125
8, 100493, Control_c, 5, 11, 126
8, 100512, Control_c, 5, 11, 127
8, 101088, Control_c, 5, 11, 127
8, 102816, Control_c, 5, 11, 92
8, 102816, Note_on_c, 5, 54, 40
8, 102816, Note_on_c, 5, 62, 44
8, 102821, Control_c, 5, 11, 93
8, 102826, Control_c, 5, 11, 94
8, 102832, Control_c, 5, 11, 95
8, 102837, Control_c, 5, 11, 96
8, 102843, Control_c, 5, 11, 97
8, 102848, Control_c, 5, 11, 98
8, 102854, Control_c, 5, 11, 99
8, 102859, Control_c, 5, 11, 100
8, 102865, Control_c, 5, 11, 101
8, 102870, Control_c, 5, 11, 102
8, 102876, Control_c, 5, 11, 103
8, 102881, Control_c, 5, 11, 104
8, 102887, Control_c, 5, 11, 105
8, 102892, Control_c, 5, 11, 106
8, 102898, Control_c, 5, 11, 107
8, 102903, Control_c, 5, 11, 108
8, 102909, Control_c, 5, 11, 109
8, 102914, Control_c, 5, 11, 110
8, 102920, Control_c, 5, 11, 111
8, 102925, Control_c, 5, 11, 112
8, 102931, Control_c, 5, 11, 113
8, 102936, Control_c, 5, 11, 114
8, 102942, Control_c, 5, 11, 115
8, 102947, Control_c, 5, 11, 116
8, 102953, Control_c, 5, 11, 117
8, 102958, Control_c, 5, 11, 118
8, 102964, Control_c, 5, 11, 119
8, 102969, Control_c, 5, 11, 120
8, 102975, Control_c, 5, 11, 121
8, 102976, Note_on_c, 5, 54, 0
8, 102976, Note_on_c, 5, 62, 0
8, 102980, Control_c, 5, 11, 122
8, 102986, Control_c, 5, 11, 123
8, 102991, Control_c, 5, 11, 124
8, 102997, Control_c, 5, 11, 125
8, 103002, Control_c, 5, 11, 126
8, 103008, Control_c, 5, 11, 127
8, 103008, Note_on_c, 5, 56, 42
8, 103008, Note_on_c, 5, 64, 40
8, 103018, Control_c, 5, 11, 126
8, 103029, Control_c, 5, 11, 125
8, 103040, Control_c, 5, 11, 124
8, 103051, Control_c, 5, 11, 123
8, 103062, Control_c, 5, 11, 122
8, 103073, Control_c, 5, 11, 121
8, 103084, Control_c, 5, 11, 120
8, 103095, Control_c, 5, 11, 119
8, 103106, Control_c, 5, 11, 118
8, 103117, Control_c, 5, 11, 117
8, 103128, Control_c, 5, 11, 116
8, 103139, Control_c, 5, 11, 115
8, 103150, Control_c, 5, 11, 114
8, 103161, Control_c, 5, 11, 113
8, 103172, Control_c, 5, 11, 112
8, 103183, Control_c, 5, 11, 111
8, 103194, Control_c, 5, 11, 110
8, 103205, Control_c, 5, 11, 109
8, 103216, Control_c, 5, 11, 108
8, 103227, Control_c, 5, 11, 107
8, 103238, Control_c, 5, 11, 106
8, 103249, Control_c, 5, 11, 105
8, 103260, Control_c, 5, 11, 104
8, 103271, Control_c, 5, 11, 103
8, 103282, Control_c, 5, 11, 102
8, 103293, Control_c, 5, 11, 101
8, 103304, Control_c, 5, 11, 100
8, 103315, Control_c, 5, 11, 99
8, 103326, Control_c, 5, 11, 98
8, 103337, Control_c, 5, 11, 97
8, 103344, Note_on_c, 5, 56, 0
8, 103344, Note_on_c, 5, 64, 0
8, 103348, Control_c, 5, 11, 96
8, 103359, Control_c, 5, 11, 95
8, 103370, Control_c, 5, 11, 94
8, 103381, Control_c, 5, 11, 93
8, 103392, Control_c, 5, 11, 92
8, 103392, Note_on_c, 5, 54, 40
8, 103392, Note_on_c, 5, 62, 45
8, 103552, Note_on_c, 5, 54, 0
8, 103552, Note_on_c, 5, 62, 0
8, 105120, Control_c, 5, 11, 92
8, 105120, Note_on_c, 5, 54, 41
8, 105120, Note_on_c, 5, 62, 44
8, 105125, Control_c, 5, 11, 93
8, 105130, Control_c, 5, 11, 94
8, 105136, Control_c, 5, 11, 95
8, 105141, Control_c, 5, 11, 96
8, 105147, Control_c, 5, 11, 97
8, 105152, Control_c, 5, 11, 98
8, 105158, Control_c, 5, 11, 99
8, 105163, Control_c, 5, 11, 100
8, 105169, Control_c, 5, 11, 101
8, 105174, Control_c, 5, 11, 102
8, 105180, Control_c, 5, 11, 103
8, 105185, Control_c, 5, 11, 104
8, 105191, Control_c, 5, 11, 105
8, 105196, Control_c, 5, 11, 106
8, 105202, Control_c, 5, 11, 107
8, 105207, Control_c, 5, 11, 108
8, 105213, Control_c, 5, 11, 109
8, 105218, Control_c, 5, 11, 110
8, 105224, Control_c, 5, 11, 111
8, 105229, Control_c, 5, 11, 112
8, 105235, Control_c, 5, 11, 113
8, 105240, Control_c, 5, 11, 114
8, 105246, Control_c, 5, 11, 115
8, 105251, Control_c, 5, 11, 116
8, 105257, Control_c, 5, 11, 117
8, 105262, Control_c, 5, 11, 118
8, 105268, Control_c, 5, 11, 119
8, 105273, Control_c, 5, 11, 120
8, 105279, Control_c, 5, 11, 121
8, 105280, Note_on_c, 5, 54, 0
8, 105280, Note_on_c, 5, 62, 0
8, 105284, Control_c, 5, 11, 122
8, 105290, Control_c, 5, 11, 123
8, 105295, Control_c, 5, 11, 124
8, 105301, Control_c, 5, 11, 125
8, 105306, Control_c, 5, 11, 126
8, 105312, Control_c, 5, 11, 127
8, 105312, Note_on_c, 5, 56, 50
8, 105312, Note_on_c, 5, 64, 50
8, 105322, Control_c, 5, 11, 126
8, 105333, Control_c, 5, 11, 125
8, 105344, Control_c, 5, 11, 124
8, 105355, Control_c, 5, 11, 123
8, 105366, Control_c, 5, 11, 122
8, 105377, Control_c, 5, 11, 121
8, 105388, Control_c, 5, 11, 120
8, 105399, Control_c, 5, 11, 119
8, 105410, Control_c, 5, 11, 118
8, 105421, Control_c, 5, 11, 117
8, 105432, Control_c, 5, 11, 116
8, 105443, Control_c, 5, 11, 115
8, 105454, Control_c, 5, 11, 114
8, 105465, Control_c, 5, 11, 113
8, 105476, Control_c, 5, 11, 112
8, 105487, Control_c, 5, 11, 111
8, 105498, Control_c, 5, 11, 110
8, 105509, Control_c, 5, 11, 109
8, 105520, Control_c, 5, 11, 108
8, 105531, Control_c, 5, 11, 107
8, 105542, Control_c, 5, 11, 106
8, 105553, Control_c, 5, 11, 105
8, 105564, Control_c, 5, 11, 104
8, 105575, Control_c, 5, 11, 103
8, 105586, Control_c, 5, 11, 102
8, 105597, Control_c, 5, 11, 101
8, 105608, Control_c, 5, 11, 100
8, 105619, Control_c, 5, 11, 99
8, 105630, Control_c, 5, 11, 98
8, 105641, Control_c, 5, 11, 97
8, 105648, Note_on_c, 5, 56, 0
8, 105648, Note_on_c, 5, 64, 0
8, 105652, Control_c, 5, 11, 96
8, 105663, Control_c, 5, 11, 95
8, 105674, Control_c, 5, 11, 94
8, 105685, Control_c, 5, 11, 93
8, 105696, Control_c, 5, 11, 92
8, 105696, Note_on_c, 5, 54, 47
8, 105696, Note_on_c, 5, 62, 50
8, 105856, Note_on_c, 5, 54, 0
8, 105856, Note_on_c, 5, 62, 0
8, 107424, Note_on_c, 5, 54, 75
8, 107424, Note_on_c, 5, 63, 76
8, 107616, Note_on_c, 5, 54, 0
8, 107616, Note_on_c, 5, 63, 0
8, 107616, Note_on_c, 5, 60, 74
8, 107616, Note_on_c, 5, 68, 80
8, 107904, Note_on_c, 5, 60, 0
8, 107904, Note_on_c, 5, 68, 0
8, 107904, Note_on_c, 5, 56, 70
8, 107904, Note_on_c, 5, 66, 72
8, 108000, Note_on_c, 5, 56, 0
8, 108000, Note_on_c, 5, 66, 0
8, 108000, Note_on_c, 5, 54, 78
8, 108000, Note_on_c, 5, 63, 72
8, 108160, Note_on_c, 5, 54, 0
8, 108160, Note_on_c, 5, 63, 0
8, 109728, Note_on_c, 5, 56, 94
8, 109728, Note_on_c, 5, 62, 97
8, 109888, Note_on_c, 5, 56, 0
8, 109888, Note_on_c, 5, 62, 0
8, 109920, Note_on_c, 5, 56, 96
8, 109920, Note_on_c, 5, 62, 89
8, 109962, Note_on_c, 5, 56, 0
8, 109962, Note_on_c, 5, 62, 0
8, 109984, Note_on_c, 5, 56, 90
8, 109984, Note_on_c, 5, 62, 90
8, 110026, Note_on_c, 5, 56, 0
8, 110026, Note_on_c, 5, 62, 0
8, 110048, Note_on_c, 5, 56, 94
8, 110048, Note_on_c, 5, 62, 93
8, 110090, Note_on_c, 5, 56, 0
8, 110090, Note_on_c, 5, 62, 0
8, 110112, Note_on_c, 5, 56, 87
8, 110112, Note_on_c, 5, 62, 92
8, 110272, Note_on_c, 5, 56, 0
8, 110272, Note_on_c, 5, 62, 0
8, 110304, Note_on_c, 5, 56, 95
8, 110304, Note_on_c, 5, 62, 95
8, 110346, Note_on_c, 5, 56, 0
8, 110346, Note_on_c, 5, 62, 0
8, 110368, Note_on_c, 5, 56, 99
8, 110368, Note_on_c, 5, 62, 93
8, 110410, Note_on_c, 5, 56, 0
8, 110410, Note_on_c, 5, 62, 0
8, 110432, Note_on_c, 5, 56, 93
8, 110432, Note_on_c, 5, 62, 94
8, 110474, Note_on_c, 5, 56, 0
8, 110474, Note_on_c, 5, 62, 0
8, 110496, Note_on_c, 5, 56, 103
8, 110496, Note_on_c, 5, 62, 97
8, 110656, Note_on_c, 5, 56, 0
8, 110656, Note_on_c, 5, 62, 0
8, 110688, Note_on_c, 5, 56, 102
8, 110688, Note_on_c, 5, 62, 97
8, 110730, Note_on_c, 5, 56, 0
8, 110730, Note_on_c, 5, 62, 0
8, 110752, Note_on_c, 5, 56, 103
8, 110752, Note_on_c, 5, 62, 96
8, 110794, Note_on_c, 5, 56, 0
8, 110794, Note_on_c, 5, 62, 0
8, 110816, Note_on_c, 5, 56, 97
8, 110816, Note_on_c, 5, 62, 103
8, 110858, Note_on_c, 5, 56, 0
8, 110858, Note_on_c, 5, 62, 0
8, 110880, Note_on_c, 5, 56, 99
8, 110880, Note_on_c, 5, 60, 100
8, 111040, Note_on_c, 5, 56, 0
8, 111040, Note_on_c, 5, 60, 0
8, 111072, Note_on_c, 5, 56, 95
8, 111072, Note_on_c, 5, 60, 103
8, 111114, Note_on_c, 5, 56, 0
8, 111114, Note_on_c, 5, 60, 0
8, 111136, Note_on_c, 5, 56, 105
8, 111136, Note_on_c, 5, 60, 96
8, 111178, Note_on_c, 5, 56, 0
8, 111178, Note_on_c, 5, 60, 0
8, 111200, Note_on_c, 5, 56, 97
8, 111200, Note_on_c, 5, 60, 100
8, 111242, Note_on_c, 5, 56, 0
8, 111242, Note_on_c, 5, 60, 0
8, 111264, Note_on_c, 5, 56, 100
8, 111264, Note_on_c, 5, 60, 99
8, 111424, Note_on_c, 5, 56, 0
8, 111424, Note_on_c, 5, 60, 0
8, 111456, Note_on_c, 5, 56, 89
8, 111456, Note_on_c, 5, 62, 91
8, 111498, Note_on_c, 5, 56, 0
8, 111498, Note_on_c, 5, 62, 0
8, 111520, Note_on_c, 5, 56, 95
8, 111520, Note_on_c, 5, 62, 95
8, 111562, Note_on_c, 5, 56, 0
8, 111562, Note_on_c, 5, 62, 0
8, 111584, Note_on_c, 5, 56, 90
8, 111584, Note_on_c, 5, 62, 89
8, 111626, Note_on_c, 5, 56, 0
8, 111626, Note_on_c, 5, 62, 0
8, 111648, Note_on_c, 5, 56, 95
8, 111648, Note_on_c, 5, 62, 97
8, 111808, Note_on_c, 5, 56, 0
8, 111808, Note_on_c, 5, 62, 0
8, 111840, Note_on_c, 5, 56, 106
8, 111840, Note_on_c, 5, 62, 102
8, 111882, Note_on_c, 5, 56, 0
8, 111882, Note_on_c, 5, 62, 0
8, 111904, Note_on_c, 5, 56, 103
8, 111904, Note_on_c, 5, 62, 100
8, 111946, Note_on_c, 5, 56, 0
8, 111946, Note_on_c, 5, 62, 0
8, 111968, Note_on_c, 5, 56, 102
8, 111968, Note_on_c, 5, 62, 108
8, 112010, Note_on_c, 5, 56, 0
8, 112010, Note_on_c, 5, 62, 0
8, 112032, Control_c, 5, 11, 92
8, 112032, Note_on_c, 5, 54, 111
8, 112032, Note_on_c, 5, 63, 113
8, 112037, Control_c, 5, 11, 93
8, 112042, Control_c, 5, 11, 94
8, 112048, Control_c, 5, 11, 95
8, 112053, Control_c, 5, 11, 96
8, 112059, Control_c, 5, 11, 97
8, 112064, Control_c, 5, 11, 98
8, 112070, Control_c, 5, 11, 99
8, 112075, Control_c, 5, 11, 100
8, 112081, Control_c, 5, 11, 101
8, 112086, Control_c, 5, 11, 102
8, 112092, Control_c, 5, 11, 103
8, 112097, Control_c, 5, 11, 104
8, 112103, Control_c, 5, 11, 105
8, 112108, Control_c, 5, 11, 106
8, 112114, Control_c, 5, 11, 107
8, 112119, Control_c, 5, 11, 108
8, 112125, Control_c, 5, 11, 109
8, 112130, Control_c, 5, 11, 110
8, 112136, Control_c, 5, 11, 111
8, 112141, Control_c, 5, 11, 112
8, 112147, Control_c, 5, 11, 113
8, 112152, Control_c, 5, 11, 114
8, 112158, Control_c, 5, 11, 115
8, 112163, Control_c, 5, 11, 116
8, 112169, Control_c, 5, 11, 117
8, 112174, Control_c, 5, 11, 118
8, 112180, Control_c, 5, 11, 119
8, 112185, Control_c, 5, 11, 120
8, 112191, Control_c, 5, 11, 121
8, 112196, Control_c, 5, 11, 122
8, 112202, Control_c, 5, 11, 123
8, 112207, Control_c, 5, 11, 124
8, 112213, Control_c, 5, 11, 125
8, 112218, Control_c, 5, 11, 126
8, 112224, Note_on_c, 5, 54, 0
8, 112224, Note_on_c, 5, 63, 0
8, 112224, Control_c, 5, 11, 127
8, 112224, Note_on_c, 5, 60, 113
8, 112224, Note_on_c, 5, 68, 112
8, 112480, Note_on_c, 5, 60, 0
8, 112480, Note_on_c, 5, 68, 0
8, 112512, Control_c, 5, 11, 127
8, 112512, Note_on_c, 5, 56, 110
8, 112512, Note_on_c, 5, 65, 113
8, 112514, Control_c, 5, 11, 126
8, 112517, Control_c, 5, 11, 125
8, 112520, Control_c, 5, 11, 124
8, 112522, Control_c, 5, 11, 123
8, 112525, Control_c, 5, 11, 122
8, 112528, Control_c, 5, 11, 121
8, 112531, Control_c, 5, 11, 120
8, 112533, Control_c, 5, 11, 119
8, 112536, Control_c, 5, 11, 118
8, 112539, Control_c, 5, 11, 117
8, 112542, Control_c, 5, 11, 116
8, 112544, Control_c, 5, 11, 115
8, 112547, Control_c, 5, 11, 114
8, 112550, Control_c, 5, 11, 113
8, 112553, Control_c, 5, 11, 112
8, 112555, Control_c, 5, 11, 111
8, 112558, Control_c, 5, 11, 110
8, 112561, Control_c, 5, 11, 109
8, 112564, Control_c, 5, 11, 108
8, 112566, Control_c, 5, 11, 107
8, 112569, Control_c, 5, 11, 106
8, 112572, Control_c, 5, 11, 105
8, 112575, Control_c, 5, 11, 104
8, 112577, Control_c, 5, 11, 103
8, 112580, Control_c, 5, 11, 102
8, 112583, Control_c, 5, 11, 101
8, 112586, Control_c, 5, 11, 100
8, 112588, Control_c, 5, 11, 99
8, 112591, Control_c, 5, 11, 98
8, 112594, Control_c, 5, 11, 97
8, 112597, Control_c, 5, 11, 96
8, 112599, Control_c, 5, 11, 95
8, 112602, Control_c, 5, 11, 94
8, 112605, Control_c, 5, 11, 93
8, 112608, Note_on_c, 5, 56, 0
8, 112608, Note_on_c, 5, 65, 0
8, 112608, Control_c, 5, 11, 92
8, 112608, Note_on_c, 5, 54, 104
8, 112608, Note_on_c, 5, 63, 104
8, 112768, Note_on_c, 5, 54, 0
8, 112768, Note_on_c, 5, 63, 0
8, 114336, Note_on_c, 5, 60, 111
8, 114336, Note_on_c, 5, 65, 112
8, 114912, Control_c, 5, 11, 92
8, 114928, Control_c, 5, 11, 93
8, 114944, Control_c, 5, 11, 94
8, 114961, Control_c, 5, 11, 95
8, 114977, Control_c, 5, 11, 96
8, 114994, Control_c, 5, 11, 97
8, 115010, Control_c, 5, 11, 98
8, 115027, Control_c, 5, 11, 99
8, 115043, Control_c, 5, 11, 100
8, 115060, Control_c, 5, 11, 101
8, 115076, Control_c, 5, 11, 102
8, 115093, Control_c, 5, 11, 103
8, 115109, Control_c, 5, 11, 104
8, 115125, Control_c, 5, 11, 105
8, 115142, Control_c, 5, 11, 106
8, 115158, Control_c, 5, 11, 107
8, 115175, Control_c, 5, 11, 108
8, 115191, Control_c, 5, 11, 109
8, 115208, Control_c, 5, 11, 110
8, 115224, Control_c, 5, 11, 111
8, 115241, Control_c, 5, 11, 112
8, 115257, Control_c, 5, 11, 113
8, 115274, Control_c, 5, 11, 114
8, 115290, Control_c, 5, 11, 115
8, 115306, Control_c, 5, 11, 116
8, 115323, Control_c, 5, 11, 117
8, 115339, Control_c, 5, 11, 118
8, 115356, Control_c, 5, 11, 119
8, 115372, Control_c, 5, 11, 120
8, 115389, Control_c, 5, 11, 121
8, 115405, Control_c, 5, 11, 122
8, 115422, Control_c, 5, 11, 123
8, 115438, Control_c, 5, 11, 124
8, 115440, Note_on_c, 5, 60, 0
8, 115440, Note_on_c, 5, 65, 0
8, 115455, Control_c, 5, 11, 125
8, 115471, Control_c, 5, 11, 126
8, 115488, Control_c, 5, 11, 127
8, 115488, Control_c, 5, 11, 92
8, 115488, Note_on_c, 5, 56, 112
8, 115488, Note_on_c, 5, 62, 107
8, 115504, Control_c, 5, 11, 93
8, 115520, Control_c, 5, 11, 94
8, 115537, Control_c, 5, 11, 95
8, 115553, Control_c, 5, 11, 96
8, 115570, Control_c, 5, 11, 97
8, 115586, Control_c, 5, 11, 98
8, 115603, Control_c, 5, 11, 99
8, 115619, Control_c, 5, 11, 100
8, 115636, Control_c, 5, 11, 101
8, 115652, Control_c, 5, 11, 102
8, 115669, Control_c, 5, 11, 103
8, 115685, Control_c, 5, 11, 104
8, 115701, Control_c, 5, 11, 105
8, 115718, Control_c, 5, 11, 106
8, 115734, Control_c, 5, 11, 107
8, 115751, Control_c, 5, 11, 108
8, 115767, Control_c, 5, 11, 109
8, 115784, Control_c, 5, 11, 110
8, 115800, Control_c, 5, 11, 111
8, 115817, Control_c, 5, 11, 112
8, 115833, Control_c, 5, 11, 113
8, 115850, Control_c, 5, 11, 114
8, 115866, Control_c, 5, 11, 115
8, 115882, Control_c, 5, 11, 116
8, 115899, Control_c, 5, 11, 117
8, 115915, Control_c, 5, 11, 118
8, 115932, Control_c, 5, 11, 119
8, 115948, Control_c, 5, 11, 120
8, 115965, Control_c, 5, 11, 121
8, 115981, Control_c, 5, 11, 122
8, 115998, Control_c, 5, 11, 123
8, 116014, Control_c, 5, 11, 124
8, 116016, Note_on_c, 5, 56, 0
8, 116016, Note_on_c, 5, 62, 0
8, 116031, Control_c, 5, 11, 125
8, 116047, Control_c, 5, 11, 126
8, 116064, Control_c, 5, 11, 127
8, 116064, Note_on_c, 5, 60, 108
8, 116064, Note_on_c, 5, 65, 106
8, 116592, Note_on_c, 5, 60, 0
8, 116592, Note_on_c, 5, 65, 0
8, 116640, Note_on_c, 5, 60, 111
8, 116640, Note_on_c, 5, 68, 108
8, 117166, Note_on_c, 5, 68, 0
8, 117168, Note_on_c, 5, 70, 113
8, 117214, Note_on_c, 5, 70, 0
8, 117216, Note_on_c, 5, 68, 111
8, 118896, Note_on_c, 5, 60, 0
8, 118896, Note_on_c, 5, 68, 0
8, 122400, Control_c, 5, 11, 127
8, 122976, Control_c, 5, 11, 127
8, 122976, Note_on_c, 5, 53, 48
8, 122976, Note_on_c, 5, 61, 49
8, 123552, Note_on_c, 5, 53, 0
8, 123552, Note_on_c, 5, 61, 0
8, 123552, Note_on_c, 5, 55, 50
8, 123552, Note_on_c, 5, 62, 47
8, 124128, Control_c, 5, 11, 64
8, 124656, Note_on_c, 5, 55, 0
8, 124656, Note_on_c, 5, 62, 0
8, 126432, Control_c, 5, 11, 127
8, 126432, Note_on_c, 5, 63, 44
8, 126437, Control_c, 5, 11, 126
8, 126442, Control_c, 5, 11, 125
8, 126448, Control_c, 5, 11, 124
8, 126453, Control_c, 5, 11, 123
8, 126459, Control_c, 5, 11, 122
8, 126464, Control_c, 5, 11, 121
8, 126470, Control_c, 5, 11, 120
8, 126475, Control_c, 5, 11, 119
8, 126481, Control_c, 5, 11, 118
8, 126486, Control_c, 5, 11, 117
8, 126492, Control_c, 5, 11, 116
8, 126497, Control_c, 5, 11, 115
8, 126503, Control_c, 5, 11, 114
8, 126508, Control_c, 5, 11, 113
8, 126514, Control_c, 5, 11, 112
8, 126519, Control_c, 5, 11, 111
8, 126525, Control_c, 5, 11, 110
8, 126530, Control_c, 5, 11, 109
8, 126536, Control_c, 5, 11, 108
8, 126541, Control_c, 5, 11, 107
8, 126547, Control_c, 5, 11, 106
8, 126552, Control_c, 5, 11, 105
8, 126558, Control_c, 5, 11, 104
8, 126563, Control_c, 5, 11, 103
8, 126569, Control_c, 5, 11, 102
8, 126574, Control_c, 5, 11, 101
8, 126580, Control_c, 5, 11, 100
8, 126585, Control_c, 5, 11, 99
8, 126591, Control_c, 5, 11, 98
8, 126596, Control_c, 5, 11, 97
8, 126602, Control_c, 5, 11, 96
8, 126607, Control_c, 5, 11, 95
8, 126613, Control_c, 5, 11, 94
8, 126618, Control_c, 5, 11, 93
8, 126624, Control_c, 5, 11, 92
8, 126718, Note_on_c, 5, 63, 0
8, 127584, Control_c, 5, 11, 127
8, 127584, Note_on_c, 5, 63, 50
8, 127589, Control_c, 5, 11, 126
8, 127594, Control_c, 5, 11, 125
8, 127600, Control_c, 5, 11, 124
8, 127605, Control_c, 5, 11, 123
8, 127611, Control_c, 5, 11, 122
8, 127616, Control_c, 5, 11, 121
8, 127622, Control_c, 5, 11, 120
8, 127627, Control_c, 5, 11, 119
8, 127633, Control_c, 5, 11, 118
8, 127638, Control_c, 5, 11, 117
8, 127644, Control_c, 5, 11, 116
8, 127649, Control_c, 5, 11, 115
8, 127655, Control_c, 5, 11, 114
8, 127660, Control_c, 5, 11, 113
8, 127666, Control_c, 5, 11, 112
8, 127671, Control_c, 5, 11, 111
8, 127677, Control_c, 5, 11, 110
8, 127682, Control_c, 5, 11, 109
8, 127688, Control_c, 5, 11, 108
8, 127693, Control_c, 5, 11, 107
8, 127699, Control_c, 5, 11, 106
8, 127704, Control_c, 5, 11, 105
8, 127710, Control_c, 5, 11, 104
8, 127715, Control_c, 5, 11, 103
8, 127721, Control_c, 5, 11, 102
8, 127726, Control_c, 5, 11, 101
8, 127732, Control_c, 5, 11, 100
8, 127737, Control_c, 5, 11, 99
8, 127743, Control_c, 5, 11, 98
8, 127748, Control_c, 5, 11, 97
8, 127754, Control_c, 5, 11, 96
8, 127759, Control_c, 5, 11, 95
8, 127765, Control_c, 5, 11, 94
8, 127770, Control_c, 5, 11, 93
8, 127776, Control_c, 5, 11, 92
8, 127870, Note_on_c, 5, 63, 0
8, 128160, Control_c, 5, 11, 92
8, 128160, Note_on_c, 5, 67, 63
8, 128192, Control_c, 5, 11, 93
8, 128225, Control_c, 5, 11, 94
8, 128258, Control_c, 5, 11, 95
8, 128291, Control_c, 5, 11, 96
8, 128324, Control_c, 5, 11, 97
8, 128357, Control_c, 5, 11, 98
8, 128390, Control_c, 5, 11, 99
8, 128423, Control_c, 5, 11, 100
8, 128456, Control_c, 5, 11, 101
8, 128489, Control_c, 5, 11, 102
8, 128522, Control_c, 5, 11, 103
8, 128554, Control_c, 5, 11, 104
8, 128587, Control_c, 5, 11, 105
8, 128620, Control_c, 5, 11, 106
8, 128653, Control_c, 5, 11, 107
8, 128686, Control_c, 5, 11, 108
8, 128719, Control_c, 5, 11, 109
8, 128736, Note_on_c, 5, 67, 0
8, 128736, Note_on_c, 5, 70, 55
8, 128752, Control_c, 5, 11, 110
8, 128785, Control_c, 5, 11, 111
8, 128818, Control_c, 5, 11, 112
8, 128851, Control_c, 5, 11, 113
8, 128884, Control_c, 5, 11, 114
8, 128917, Control_c, 5, 11, 115
8, 128949, Control_c, 5, 11, 116
8, 128982, Control_c, 5, 11, 117
8, 129015, Control_c, 5, 11, 118
8, 129048, Control_c, 5, 11, 119
8, 129081, Control_c, 5, 11, 120
8, 129114, Control_c, 5, 11, 121
8, 129147, Control_c, 5, 11, 122
8, 129180, Control_c, 5, 11, 123
8, 129213, Control_c, 5, 11, 124
8, 129246, Control_c, 5, 11, 125
8, 129279, Control_c, 5, 11, 126
8, 129312, Note_on_c, 5, 70, 0
8, 129312, Control_c, 5, 11, 127
8, 129312, Note_on_c, 5, 73, 27
8, 131568, Note_on_c, 5, 73, 0
8, 131616, Note_on_c, 5, 73, 30
8, 134080, Note_on_c, 5, 73, 0
8, 134080, End_track
9, 0, Start_track
9, 0, Title_t, "Corni III - IV"
9, 0, MIDI_port, 0
9, 128, Control_c, 6, 0, 0
9, 129, Control_c, 6, 32, 0
9, 130, Program_c, 6, 60
9, 131, Control_c, 6, 7, 127
9, 132, Control_c, 6, 91, 96
9, 5280, Note_on_c, 6, 62, 25
9, 5302, Note_on_c, 6, 62, 0
9, 5304, Note_on_c, 6, 60, 32
9, 5470, Note_on_c, 6, 60, 0
9, 6144, Control_c, 6, 11, 127
9, 6144, Note_on_c, 6, 62, 31
9, 6146, Control_c, 6, 11, 126
9, 6149, Control_c, 6, 11, 125
9, 6152, Control_c, 6, 11, 124
9, 6154, Control_c, 6, 11, 123
9, 6157, Control_c, 6, 11, 122
9, 6160, Control_c, 6, 11, 121
9, 6163, Control_c, 6, 11, 120
9, 6165, Control_c, 6, 11, 119
9, 6166, Note_on_c, 6, 62, 0
9, 6168, Control_c, 6, 11, 118
9, 6168, Note_on_c, 6, 60, 33
9, 6171, Control_c, 6, 11, 117
9, 6174, Control_c, 6, 11, 116
9, 6176, Control_c, 6, 11, 115
9, 6179, Control_c, 6, 11, 114
9, 6182, Control_c, 6, 11, 113
9, 6185, Control_c, 6, 11, 112
9, 6187, Control_c, 6, 11, 111
9, 6190, Control_c, 6, 11, 110
9, 6193, Control_c, 6, 11, 109
9, 6196, Control_c, 6, 11, 108
9, 6198, Control_c, 6, 11, 107
9, 6201, Control_c, 6, 11, 106
9, 6204, Control_c, 6, 11, 105
9, 6207, Control_c, 6, 11, 104
9, 6209, Control_c, 6, 11, 103
9, 6212, Control_c, 6, 11, 102
9, 6215, Control_c, 6, 11, 101
9, 6218, Control_c, 6, 11, 100
9, 6220, Control_c, 6, 11, 99
9, 6223, Control_c, 6, 11, 98
9, 6226, Control_c, 6, 11, 97
9, 6229, Control_c, 6, 11, 96
9, 6231, Control_c, 6, 11, 95
9, 6234, Control_c, 6, 11, 94
9, 6237, Control_c, 6, 11, 93
9, 6240, Control_c, 6, 11, 92
9, 6334, Note_on_c, 6, 60, 0
9, 6720, Control_c, 6, 11, 127
9, 6720, Note_on_c, 6, 62, 34
9, 6722, Control_c, 6, 11, 126
9, 6725, Control_c, 6, 11, 125
9, 6728, Control_c, 6, 11, 124
9, 6730, Control_c, 6, 11, 123
9, 6733, Control_c, 6, 11, 122
9, 6736, Control_c, 6, 11, 121
9, 6739, Control_c, 6, 11, 120
9, 6741, Control_c, 6, 11, 119
9, 6742, Note_on_c, 6, 62, 0
9, 6744, Control_c, 6, 11, 118
9, 6744, Note_on_c, 6, 60, 33
9, 6747, Control_c, 6, 11, 117
9, 6750, Control_c, 6, 11, 116
9, 6752, Control_c, 6, 11, 115
9, 6755, Control_c, 6, 11, 114
9, 6758, Control_c, 6, 11, 113
9, 6761, Control_c, 6, 11, 112
9, 6763, Control_c, 6, 11, 111
9, 6766, Control_c, 6, 11, 110
9, 6769, Control_c, 6, 11, 109
9, 6772, Control_c, 6, 11, 108
9, 6774, Control_c, 6, 11, 107
9, 6777, Control_c, 6, 11, 106
9, 6780, Control_c, 6, 11, 105
9, 6783, Control_c, 6, 11, 104
9, 6785, Control_c, 6, 11, 103
9, 6788, Control_c, 6, 11, 102
9, 6791, Control_c, 6, 11, 101
9, 6794, Control_c, 6, 11, 100
9, 6796, Control_c, 6, 11, 99
9, 6799, Control_c, 6, 11, 98
9, 6802, Control_c, 6, 11, 97
9, 6805, Control_c, 6, 11, 96
9, 6807, Control_c, 6, 11, 95
9, 6810, Control_c, 6, 11, 94
9, 6813, Control_c, 6, 11, 93
9, 6816, Control_c, 6, 11, 92
9, 6910, Note_on_c, 6, 60, 0
9, 6912, Control_c, 6, 11, 127
9, 6912, Note_on_c, 6, 48, 32
9, 8320, Note_on_c, 6, 48, 0
9, 8352, Note_on_c, 6, 54, 31
9, 8352, Note_on_c, 6, 58, 35
9, 8734, Note_on_c, 6, 54, 0
9, 8734, Note_on_c, 6, 58, 0
9, 8928, Note_on_c, 6, 54, 34
9, 8928, Note_on_c, 6, 58, 27
9, 9952, Note_on_c, 6, 54, 0
9, 9952, Note_on_c, 6, 58, 0
9, 11232, Control_c, 6, 11, 127
9, 11232, Note_on_c, 6, 60, 94
9, 11326, Note_on_c, 6, 60, 0
9, 11328, Note_on_c, 6, 59, 87
9, 11422, Note_on_c, 6, 59, 0
9, 11424, Note_on_c, 6, 58, 108
9, 11424, Note_on_c, 6, 65, 103
9, 11680, Note_on_c, 6, 58, 0
9, 11680, Note_on_c, 6, 65, 0
9, 11808, Note_on_c, 6, 60, 103
9, 11902, Note_on_c, 6, 60, 0
9, 11904, Note_on_c, 6, 59, 104
9, 11998, Note_on_c, 6, 59, 0
9, 12000, Note_on_c, 6, 58, 108
9, 12000, Note_on_c, 6, 65, 106
9, 12256, Note_on_c, 6, 58, 0
9, 12256, Note_on_c, 6, 65, 0
9, 21600, Control_c, 6, 11, 127
9, 21696, Note_on_c, 6, 57, 50
9, 21888, Note_on_c, 6, 57, 0
9, 21888, Note_on_c, 6, 59, 41
9, 21984, Note_on_c, 6, 59, 0
9, 21984, Note_on_c, 6, 61, 41
9, 22080, Note_on_c, 6, 61, 0
9, 22080, Note_on_c, 6, 59, 47
9, 22176, Note_on_c, 6, 59, 0
9, 22176, Note_on_c, 6, 58, 49
9, 22272, Note_on_c, 6, 58, 0
9, 22272, Note_on_c, 6, 57, 57
9, 22368, Note_on_c, 6, 57, 0
9, 22368, Note_on_c, 6, 60, 54
9, 22560, Note_on_c, 6, 60, 0
9, 22560, Note_on_c, 6, 63, 80
9, 22720, Note_on_c, 6, 63, 0
9, 24000, Note_on_c, 6, 57, 41
9, 24192, Note_on_c, 6, 57, 0
9, 24192, Note_on_c, 6, 59, 40
9, 24288, Note_on_c, 6, 59, 0
9, 24288, Note_on_c, 6, 61, 41
9, 24384, Note_on_c, 6, 61, 0
9, 24384, Note_on_c, 6, 59, 47
9, 24480, Note_on_c, 6, 59, 0
9, 24480, Note_on_c, 6, 58, 47
9, 24576, Note_on_c, 6, 58, 0
9, 24576, Note_on_c, 6, 57, 49
9, 24672, Note_on_c, 6, 57, 0
9, 24672, Note_on_c, 6, 60, 62
9, 24864, Note_on_c, 6, 60, 0
9, 24864, Note_on_c, 6, 63, 79
9, 25024, Note_on_c, 6, 63, 0
9, 25056, Control_c, 6, 11, 92
9, 25056, Note_on_c, 6, 57, 87
9, 25056, Note_on_c, 6, 67, 93
9, 25083, Control_c, 6, 11, 93
9, 25110, Control_c, 6, 11, 94
9, 25138, Control_c, 6, 11, 95
9, 25165, Control_c, 6, 11, 96
9, 25193, Control_c, 6, 11, 97
9, 25220, Control_c, 6, 11, 98
9, 25248, Control_c, 6, 11, 99
9, 25275, Control_c, 6, 11, 100
9, 25302, Control_c, 6, 11, 101
9, 25330, Control_c, 6, 11, 102
9, 25344, Note_on_c, 6, 57, 0
9, 25344, Note_on_c, 6, 67, 0
9, 25344, Note_on_c, 6, 56, 91
9, 25344, Note_on_c, 6, 66, 93
9, 25357, Control_c, 6, 11, 103
9, 25385, Control_c, 6, 11, 104
9, 25412, Control_c, 6, 11, 105
9, 25440, Note_on_c, 6, 56, 0
9, 25440, Note_on_c, 6, 66, 0
9, 25440, Control_c, 6, 11, 106
9, 25440, Note_on_c, 6, 59, 96
9, 25440, Note_on_c, 6, 65, 95
9, 25467, Control_c, 6, 11, 107
9, 25494, Control_c, 6, 11, 108
9, 25522, Control_c, 6, 11, 109
9, 25536, Note_on_c, 6, 59, 0
9, 25536, Note_on_c, 6, 65, 0
9, 25536, Note_on_c, 6, 56, 97
9, 25536, Note_on_c, 6, 66, 89
9, 25549, Control_c, 6, 11, 110
9, 25577, Control_c, 6, 11, 111
9, 25604, Control_c, 6, 11, 112
9, 25632, Note_on_c, 6, 56, 0
9, 25632, Note_on_c, 6, 66, 0
9, 25632, Control_c, 6, 11, 113
9, 25632, Note_on_c, 6, 57, 89
9, 25632, Note_on_c, 6, 67, 93
9, 25659, Control_c, 6, 11, 114
9, 25686, Control_c, 6, 11, 115
9, 25714, Control_c, 6, 11, 116
9, 25728, Note_on_c, 6, 57, 0
9, 25728, Note_on_c, 6, 67, 0
9, 25728, Note_on_c, 6, 56, 96
9, 25728, Note_on_c, 6, 66, 94
9, 25741, Control_c, 6, 11, 117
9, 25769, Control_c, 6, 11, 118
9, 25796, Control_c, 6, 11, 119
9, 25824, Note_on_c, 6, 56, 0
9, 25824, Note_on_c, 6, 66, 0
9, 25824, Control_c, 6, 11, 120
9, 25824, Note_on_c, 6, 59, 93
9, 25824, Note_on_c, 6, 65, 87
9, 25851, Control_c, 6, 11, 121
9, 25878, Control_c, 6, 11, 122
9, 25906, Control_c, 6, 11, 123
9, 25933, Control_c, 6, 11, 124
9, 25961, Control_c, 6, 11, 125
9, 25988, Control_c, 6, 11, 126
9, 26016, Note_on_c, 6, 59, 0
9, 26016, Note_on_c, 6, 65, 0
9, 26016, Control_c, 6, 11, 127
9, 26016, Note_on_c, 6, 54, 91
9, 26016, Note_on_c, 6, 64, 91
9, 26021, Control_c, 6, 11, 126
9, 26026, Control_c, 6, 11, 125
9, 26032, Control_c, 6, 11, 124
9, 26037, Control_c, 6, 11, 123
9, 26043, Control_c, 6, 11, 122
9, 26048, Control_c, 6, 11, 121
9, 26054, Control_c, 6, 11, 120
9, 26059, Control_c, 6, 11, 119
9, 26065, Control_c, 6, 11, 118
9, 26070, Control_c, 6, 11, 117
9, 26076, Control_c, 6, 11, 116
9, 26081, Control_c, 6, 11, 115
9, 26087, Control_c, 6, 11, 114
9, 26092, Control_c, 6, 11, 113
9, 26098, Control_c, 6, 11, 112
9, 26103, Control_c, 6, 11, 111
9, 26109, Control_c, 6, 11, 110
9, 26114, Control_c, 6, 11, 109
9, 26120, Control_c, 6, 11, 108
9, 26125, Control_c, 6, 11, 107
9, 26131, Control_c, 6, 11, 106
9, 26136, Control_c, 6, 11, 105
9, 26142, Control_c, 6, 11, 104
9, 26147, Control_c, 6, 11, 103
9, 26153, Control_c, 6, 11, 102
9, 26158, Control_c, 6, 11, 101
9, 26164, Control_c, 6, 11, 100
9, 26169, Control_c, 6, 11, 99
9, 26175, Control_c, 6, 11, 98
9, 26176, Note_on_c, 6, 54, 0
9, 26176, Note_on_c, 6, 64, 0
9, 26180, Control_c, 6, 11, 97
9, 26186, Control_c, 6, 11, 96
9, 26191, Control_c, 6, 11, 95
9, 26197, Control_c, 6, 11, 94
9, 26202, Control_c, 6, 11, 93
9, 26208, Control_c, 6, 11, 92
9, 26208, Note_on_c, 6, 60, 92
9, 26232, Control_c, 6, 11, 91
9, 26257, Control_c, 6, 11, 90
9, 26282, Control_c, 6, 11, 89
9, 26307, Control_c, 6, 11, 88
9, 26332, Control_c, 6, 11, 87
9, 26357, Control_c, 6, 11, 86
9, 26382, Control_c, 6, 11, 85
9, 26407, Control_c, 6, 11, 84
9, 26432, Control_c, 6, 11, 83
9, 26457, Control_c, 6, 11, 82
9, 26482, Control_c, 6, 11, 81
9, 26496, Note_on_c, 6, 60, 0
9, 26496, Note_on_c, 6, 59, 90
9, 26507, Control_c, 6, 11, 80
9, 26532, Control_c, 6, 11, 79
9, 26557, Control_c, 6, 11, 78
9, 26582, Control_c, 6, 11, 77
9, 26592, Note_on_c, 6, 59, 0
9, 26592, Note_on_c, 6, 58, 93
9, 26606, Control_c, 6, 11, 76
9, 26631, Control_c, 6, 11, 75
9, 26656, Control_c, 6, 11, 74
9, 26681, Control_c, 6, 11, 73
9, 26688, Note_on_c, 6, 58, 0
9, 26688, Note_on_c, 6, 59, 97
9, 26706, Control_c, 6, 11, 72
9, 26731, Control_c, 6, 11, 71
9, 26756, Control_c, 6, 11, 70
9, 26781, Control_c, 6, 11, 69
9, 26782, Note_on_c, 6, 59, 0
9, 26784, Note_on_c, 6, 60, 87
9, 26806, Control_c, 6, 11, 68
9, 26831, Control_c, 6, 11, 67
9, 26856, Control_c, 6, 11, 66
9, 26881, Control_c, 6, 11, 65
9, 26906, Control_c, 6, 11, 64
9, 26931, Control_c, 6, 11, 63
9, 26956, Control_c, 6, 11, 62
9, 26980, Control_c, 6, 11, 61
9, 27005, Control_c, 6, 11, 60
9, 27030, Control_c, 6, 11, 59
9, 27055, Control_c, 6, 11, 58
9, 27072, Note_on_c, 6, 60, 0
9, 27072, Note_on_c, 6, 59, 94
9, 27080, Control_c, 6, 11, 57
9, 27105, Control_c, 6, 11, 56
9, 27130, Control_c, 6, 11, 55
9, 27155, Control_c, 6, 11, 54
9, 27168, Note_on_c, 6, 59, 0
9, 27168, Note_on_c, 6, 58, 87
9, 27180, Control_c, 6, 11, 53
9, 27205, Control_c, 6, 11, 52
9, 27230, Control_c, 6, 11, 51
9, 27255, Control_c, 6, 11, 50
9, 27264, Note_on_c, 6, 58, 0
9, 27264, Note_on_c, 6, 63, 90
9, 27280, Control_c, 6, 11, 49
9, 27305, Control_c, 6, 11, 48
9, 27330, Control_c, 6, 11, 47
9, 27355, Control_c, 6, 11, 46
9, 27358, Note_on_c, 6, 63, 0
9, 27360, Note_on_c, 6, 55, 90
9, 27379, Control_c, 6, 11, 45
9, 27404, Control_c, 6, 11, 44
9, 27429, Control_c, 6, 11, 43
9, 27454, Control_c, 6, 11, 42
9, 27479, Control_c, 6, 11, 41
9, 27504, Control_c, 6, 11, 40
9, 27529, Control_c, 6, 11, 39
9, 27554, Control_c, 6, 11, 38
9, 27579, Control_c, 6, 11, 37
9, 27604, Control_c, 6, 11, 36
9, 27629, Control_c, 6, 11, 35
9, 27654, Control_c, 6, 11, 34
9, 27679, Control_c, 6, 11, 33
9, 27704, Control_c, 6, 11, 32
9, 27729, Control_c, 6, 11, 31
9, 27753, Control_c, 6, 11, 30
9, 27778, Control_c, 6, 11, 29
9, 27803, Control_c, 6, 11, 28
9, 27828, Control_c, 6, 11, 27
9, 27853, Control_c, 6, 11, 26
9, 27878, Control_c, 6, 11, 25
9, 27903, Control_c, 6, 11, 24
9, 27928, Control_c, 6, 11, 23
9, 27953, Control_c, 6, 11, 22
9, 27978, Control_c, 6, 11, 21
9, 28003, Control_c, 6, 11, 20
9, 28028, Control_c, 6, 11, 19
9, 28053, Control_c, 6, 11, 18
9, 28078, Control_c, 6, 11, 17
9, 28103, Control_c, 6, 11, 16
9, 28128, Control_c, 6, 11, 15
9, 28464, Note_on_c, 6, 55, 0
9, 28512, Control_c, 6, 11, 127
9, 29664, Note_on_c, 6, 61, 34
9, 30768, Note_on_c, 6, 61, 0
9, 31968, Control_c, 6, 11, 75
9, 31990, Control_c, 6, 11, 76
9, 32012, Control_c, 6, 11, 77
9, 32034, Control_c, 6, 11, 78
9, 32056, Control_c, 6, 11, 79
9, 32078, Control_c, 6, 11, 80
9, 32100, Control_c, 6, 11, 81
9, 32123, Control_c, 6, 11, 82
9, 32145, Control_c, 6, 11, 83
9, 32160, Note_on_c, 6, 59, 95
9, 32167, Control_c, 6, 11, 84
9, 32189, Control_c, 6, 11, 85
9, 32211, Control_c, 6, 11, 86
9, 32233, Control_c, 6, 11, 87
9, 32256, Control_c, 6, 11, 88
9, 32278, Control_c, 6, 11, 89
9, 32300, Control_c, 6, 11, 90
9, 32322, Control_c, 6, 11, 91
9, 32344, Control_c, 6, 11, 92
9, 32366, Control_c, 6, 11, 93
9, 32388, Control_c, 6, 11, 94
9, 32411, Control_c, 6, 11, 95
9, 32433, Control_c, 6, 11, 96
9, 32448, Note_on_c, 6, 59, 0
9, 32448, Note_on_c, 6, 60, 93
9, 32455, Control_c, 6, 11, 97
9, 32477, Control_c, 6, 11, 98
9, 32499, Control_c, 6, 11, 99
9, 32521, Control_c, 6, 11, 100
9, 32544, Note_on_c, 6, 60, 0
9, 32544, Control_c, 6, 11, 101
9, 32544, Note_on_c, 6, 61, 87
9, 32566, Control_c, 6, 11, 102
9, 32588, Control_c, 6, 11, 103
9, 32610, Control_c, 6, 11, 104
9, 32632, Control_c, 6, 11, 105
9, 32654, Control_c, 6, 11, 106
9, 32676, Control_c, 6, 11, 107
9, 32699, Control_c, 6, 11, 108
9, 32721, Control_c, 6, 11, 109
9, 32736, Note_on_c, 6, 61, 0
9, 32736, Note_on_c, 6, 54, 93
9, 32743, Control_c, 6, 11, 110
9, 32765, Control_c, 6, 11, 111
9, 32787, Control_c, 6, 11, 112
9, 32809, Control_c, 6, 11, 113
9, 32832, Control_c, 6, 11, 114
9, 32854, Control_c, 6, 11, 115
9, 32876, Control_c, 6, 11, 116
9, 32898, Control_c, 6, 11, 117
9, 32920, Control_c, 6, 11, 118
9, 32928, Note_on_c, 6, 54, 0
9, 32928, Note_on_c, 6, 57, 96
9, 32942, Control_c, 6, 11, 119
9, 32964, Control_c, 6, 11, 120
9, 32987, Control_c, 6, 11, 121
9, 33009, Control_c, 6, 11, 122
9, 33031, Control_c, 6, 11, 123
9, 33053, Control_c, 6, 11, 124
9, 33075, Control_c, 6, 11, 125
9, 33088, Note_on_c, 6, 57, 0
9, 33097, Control_c, 6, 11, 126
9, 33120, Control_c, 6, 11, 127
9, 33120, Note_on_c, 6, 51, 91
9, 33120, Note_on_c, 6, 61, 96
9, 33406, Note_on_c, 6, 51, 0
9, 33406, Note_on_c, 6, 61, 0
9, 33768, Note_on_c, 6, 68, 94
9, 33790, Note_on_c, 6, 68, 0
9, 33792, Note_on_c, 6, 66, 96
9, 33886, Note_on_c, 6, 66, 0
9, 33960, Note_on_c, 6, 68, 89
9, 33982, Note_on_c, 6, 68, 0
9, 33984, Note_on_c, 6, 66, 87
9, 34078, Note_on_c, 6, 66, 0
9, 34152, Note_on_c, 6, 68, 91
9, 34174, Note_on_c, 6, 68, 0
9, 34176, Note_on_c, 6, 66, 90
9, 34270, Note_on_c, 6, 66, 0
9, 34368, Control_c, 6, 11, 92
9, 34368, Note_on_c, 6, 60, 110
9, 34370, Control_c, 6, 11, 93
9, 34373, Control_c, 6, 11, 94
9, 34376, Control_c, 6, 11, 95
9, 34378, Control_c, 6, 11, 96
9, 34381, Control_c, 6, 11, 97
9, 34384, Control_c, 6, 11, 98
9, 34387, Control_c, 6, 11, 99
9, 34389, Control_c, 6, 11, 100
9, 34392, Control_c, 6, 11, 101
9, 34395, Control_c, 6, 11, 102
9, 34398, Control_c, 6, 11, 103
9, 34400, Control_c, 6, 11, 104
9, 34403, Control_c, 6, 11, 105
9, 34406, Control_c, 6, 11, 106
9, 34409, Control_c, 6, 11, 107
9, 34411, Control_c, 6, 11, 108
9, 34414, Control_c, 6, 11, 109
9, 34417, Control_c, 6, 11, 110
9, 34420, Control_c, 6, 11, 111
9, 34422, Control_c, 6, 11, 112
9, 34425, Control_c, 6, 11, 113
9, 34428, Control_c, 6, 11, 114
9, 34431, Control_c, 6, 11, 115
9, 34433, Control_c, 6, 11, 116
9, 34436, Control_c, 6, 11, 117
9, 34439, Control_c, 6, 11, 118
9, 34442, Control_c, 6, 11, 119
9, 34444, Control_c, 6, 11, 120
9, 34447, Control_c, 6, 11, 121
9, 34450, Control_c, 6, 11, 122
9, 34453, Control_c, 6, 11, 123
9, 34455, Control_c, 6, 11, 124
9, 34458, Control_c, 6, 11, 125
9, 34461, Control_c, 6, 11, 126
9, 34464, Control_c, 6, 11, 127
9, 34750, Note_on_c, 6, 60, 0
9, 34944, Control_c, 6, 11, 92
9, 34944, Note_on_c, 6, 60, 107
9, 34946, Control_c, 6, 11, 93
9, 34949, Control_c, 6, 11, 94
9, 34952, Control_c, 6, 11, 95
9, 34954, Control_c, 6, 11, 96
9, 34957, Control_c, 6, 11, 97
9, 34960, Control_c, 6, 11, 98
9, 34963, Control_c, 6, 11, 99
9, 34965, Control_c, 6, 11, 100
9, 34968, Control_c, 6, 11, 101
9, 34971, Control_c, 6, 11, 102
9, 34974, Control_c, 6, 11, 103
9, 34976, Control_c, 6, 11, 104
9, 34979, Control_c, 6, 11, 105
9, 34982, Control_c, 6, 11, 106
9, 34985, Control_c, 6, 11, 107
9, 34987, Control_c, 6, 11, 108
9, 34990, Control_c, 6, 11, 109
9, 34993, Control_c, 6, 11, 110
9, 34996, Control_c, 6, 11, 111
9, 34998, Control_c, 6, 11, 112
9, 35001, Control_c, 6, 11, 113
9, 35004, Control_c, 6, 11, 114
9, 35007, Control_c, 6, 11, 115
9, 35009, Control_c, 6, 11, 116
9, 35012, Control_c, 6, 11, 117
9, 35015, Control_c, 6, 11, 118
9, 35018, Control_c, 6, 11, 119
9, 35020, Control_c, 6, 11, 120
9, 35023, Control_c, 6, 11, 121
9, 35026, Control_c, 6, 11, 122
9, 35029, Control_c, 6, 11, 123
9, 35031, Control_c, 6, 11, 124
9, 35034, Control_c, 6, 11, 125
9, 35037, Control_c, 6, 11, 126
9, 35040, Control_c, 6, 11, 127
9, 35326, Note_on_c, 6, 60, 0
9, 35520, Control_c, 6, 11, 127
9, 35520, Note_on_c, 6, 60, 76
9, 35522, Control_c, 6, 11, 126
9, 35525, Control_c, 6, 11, 125
9, 35528, Control_c, 6, 11, 124
9, 35530, Control_c, 6, 11, 123
9, 35533, Control_c, 6, 11, 122
9, 35536, Control_c, 6, 11, 121
9, 35539, Control_c, 6, 11, 120
9, 35541, Control_c, 6, 11, 119
9, 35544, Control_c, 6, 11, 118
9, 35547, Control_c, 6, 11, 117
9, 35550, Control_c, 6, 11, 116
9, 35552, Control_c, 6, 11, 115
9, 35555, Control_c, 6, 11, 114
9, 35558, Control_c, 6, 11, 113
9, 35561, Control_c, 6, 11, 112
9, 35563, Control_c, 6, 11, 111
9, 35566, Control_c, 6, 11, 110
9, 35569, Control_c, 6, 11, 109
9, 35572, Control_c, 6, 11, 108
9, 35574, Control_c, 6, 11, 107
9, 35577, Control_c, 6, 11, 106
9, 35580, Control_c, 6, 11, 105
9, 35583, Control_c, 6, 11, 104
9, 35585, Control_c, 6, 11, 103
9, 35588, Control_c, 6, 11, 102
9, 35591, Control_c, 6, 11, 101
9, 35594, Control_c, 6, 11, 100
9, 35596, Control_c, 6, 11, 99
9, 35599, Control_c, 6, 11, 98
9, 35602, Control_c, 6, 11, 97
9, 35605, Control_c, 6, 11, 96
9, 35607, Control_c, 6, 11, 95
9, 35610, Control_c, 6, 11, 94
9, 35613, Control_c, 6, 11, 93
9, 35616, Control_c, 6, 11, 92
9, 35776, Note_on_c, 6, 60, 0
9, 36000, Control_c, 6, 11, 127
9, 38880, Control_c, 6, 11, 75
9, 38880, Note_on_c, 6, 56, 65
9, 38912, Note_on_c, 6, 56, 0
9, 38928, Note_on_c, 6, 56, 64
9, 38976, Note_on_c, 6, 56, 0
9, 39072, Control_c, 6, 11, 75
9, 39072, Note_on_c, 6, 56, 60
9, 39077, Control_c, 6, 11, 76
9, 39083, Control_c, 6, 11, 77
9, 39088, Control_c, 6, 11, 78
9, 39094, Control_c, 6, 11, 79
9, 39099, Control_c, 6, 11, 80
9, 39105, Control_c, 6, 11, 81
9, 39110, Control_c, 6, 11, 82
9, 39116, Control_c, 6, 11, 83
9, 39121, Control_c, 6, 11, 84
9, 39127, Control_c, 6, 11, 85
9, 39132, Control_c, 6, 11, 86
9, 39138, Control_c, 6, 11, 87
9, 39144, Control_c, 6, 11, 88
9, 39149, Control_c, 6, 11, 89
9, 39155, Control_c, 6, 11, 90
9, 39160, Control_c, 6, 11, 91
9, 39166, Control_c, 6, 11, 92
9, 39171, Control_c, 6, 11, 93
9, 39177, Control_c, 6, 11, 94
9, 39182, Control_c, 6, 11, 95
9, 39188, Control_c, 6, 11, 96
9, 39193, Control_c, 6, 11, 97
9, 39199, Control_c, 6, 11, 98
9, 39204, Control_c, 6, 11, 99
9, 39210, Control_c, 6, 11, 100
9, 39216, Control_c, 6, 11, 101
9, 39221, Control_c, 6, 11, 102
9, 39227, Control_c, 6, 11, 103
9, 39232, Control_c, 6, 11, 104
9, 39238, Control_c, 6, 11, 105
9, 39243, Control_c, 6, 11, 106
9, 39249, Control_c, 6, 11, 107
9, 39254, Control_c, 6, 11, 108
9, 39260, Control_c, 6, 11, 109
9, 39265, Control_c, 6, 11, 110
9, 39271, Control_c, 6, 11, 111
9, 39276, Control_c, 6, 11, 112
9, 39282, Control_c, 6, 11, 113
9, 39288, Control_c, 6, 11, 114
9, 39293, Control_c, 6, 11, 115
9, 39299, Control_c, 6, 11, 116
9, 39304, Control_c, 6, 11, 117
9, 39310, Control_c, 6, 11, 118
9, 39315, Control_c, 6, 11, 119
9, 39321, Control_c, 6, 11, 120
9, 39326, Control_c, 6, 11, 121
9, 39332, Control_c, 6, 11, 122
9, 39337, Control_c, 6, 11, 123
9, 39343, Control_c, 6, 11, 124
9, 39348, Control_c, 6, 11, 125
9, 39354, Control_c, 6, 11, 126
9, 39360, Note_on_c, 6, 56, 0
9, 39360, Control_c, 6, 11, 127
9, 39360, Note_on_c, 6, 56, 58
9, 39392, Note_on_c, 6, 56, 0
9, 39456, Control_c, 6, 11, 75
9, 39456, Note_on_c, 6, 56, 59
9, 39488, Note_on_c, 6, 56, 0
9, 39504, Note_on_c, 6, 56, 60
9, 39552, Note_on_c, 6, 56, 0
9, 39648, Control_c, 6, 11, 75
9, 39648, Note_on_c, 6, 56, 63
9, 39653, Control_c, 6, 11, 76
9, 39659, Control_c, 6, 11, 77
9, 39664, Control_c, 6, 11, 78
9, 39670, Control_c, 6, 11, 79
9, 39675, Control_c, 6, 11, 80
9, 39681, Control_c, 6, 11, 81
9, 39686, Control_c, 6, 11, 82
9, 39692, Control_c, 6, 11, 83
9, 39697, Control_c, 6, 11, 84
9, 39703, Control_c, 6, 11, 85
9, 39708, Control_c, 6, 11, 86
9, 39714, Control_c, 6, 11, 87
9, 39720, Control_c, 6, 11, 88
9, 39725, Control_c, 6, 11, 89
9, 39731, Control_c, 6, 11, 90
9, 39736, Control_c, 6, 11, 91
9, 39742, Control_c, 6, 11, 92
9, 39747, Control_c, 6, 11, 93
9, 39753, Control_c, 6, 11, 94
9, 39758, Control_c, 6, 11, 95
9, 39764, Control_c, 6, 11, 96
9, 39769, Control_c, 6, 11, 97
9, 39775, Control_c, 6, 11, 98
9, 39780, Control_c, 6, 11, 99
9, 39786, Control_c, 6, 11, 100
9, 39792, Control_c, 6, 11, 101
9, 39797, Control_c, 6, 11, 102
9, 39803, Control_c, 6, 11, 103
9, 39808, Control_c, 6, 11, 104
9, 39814, Control_c, 6, 11, 105
9, 39819, Control_c, 6, 11, 106
9, 39825, Control_c, 6, 11, 107
9, 39830, Control_c, 6, 11, 108
9, 39836, Control_c, 6, 11, 109
9, 39841, Control_c, 6, 11, 110
9, 39847, Control_c, 6, 11, 111
9, 39852, Control_c, 6, 11, 112
9, 39858, Control_c, 6, 11, 113
9, 39864, Control_c, 6, 11, 114
9, 39869, Control_c, 6, 11, 115
9, 39875, Control_c, 6, 11, 116
9, 39880, Control_c, 6, 11, 117
9, 39886, Control_c, 6, 11, 118
9, 39891, Control_c, 6, 11, 119
9, 39897, Control_c, 6, 11, 120
9, 39902, Control_c, 6, 11, 121
9, 39908, Control_c, 6, 11, 122
9, 39913, Control_c, 6, 11, 123
9, 39919, Control_c, 6, 11, 124
9, 39924, Control_c, 6, 11, 125
9, 39930, Control_c, 6, 11, 126
9, 39936, Note_on_c, 6, 56, 0
9, 39936, Control_c, 6, 11, 127
9, 39936, Note_on_c, 6, 56, 61
9, 39968, Note_on_c, 6, 56, 0
9, 41760, Control_c, 6, 11, 92
9, 42336, Note_on_c, 6, 70, 87
9, 42432, Note_on_c, 6, 70, 0
9, 42432, Note_on_c, 6, 69, 89
9, 42464, Note_on_c, 6, 69, 0
9, 42464, Note_on_c, 6, 70, 91
9, 42496, Note_on_c, 6, 70, 0
9, 42496, Note_on_c, 6, 69, 95
9, 42528, Note_on_c, 6, 69, 0
9, 42528, Note_on_c, 6, 66, 96
9, 42720, Note_on_c, 6, 66, 0
9, 42720, Note_on_c, 6, 70, 94
9, 42912, Note_on_c, 6, 70, 0
9, 42912, Control_c, 6, 11, 92
9, 42912, Note_on_c, 6, 69, 96
9, 42928, Control_c, 6, 11, 93
9, 42944, Control_c, 6, 11, 94
9, 42961, Control_c, 6, 11, 95
9, 42977, Control_c, 6, 11, 96
9, 42994, Control_c, 6, 11, 97
9, 43010, Control_c, 6, 11, 98
9, 43027, Control_c, 6, 11, 99
9, 43043, Control_c, 6, 11, 100
9, 43060, Control_c, 6, 11, 101
9, 43076, Control_c, 6, 11, 102
9, 43093, Control_c, 6, 11, 103
9, 43109, Control_c, 6, 11, 104
9, 43125, Control_c, 6, 11, 105
9, 43142, Control_c, 6, 11, 106
9, 43158, Control_c, 6, 11, 107
9, 43175, Control_c, 6, 11, 108
9, 43191, Control_c, 6, 11, 109
9, 43208, Control_c, 6, 11, 110
9, 43224, Control_c, 6, 11, 111
9, 43241, Control_c, 6, 11, 112
9, 43257, Control_c, 6, 11, 113
9, 43274, Control_c, 6, 11, 114
9, 43290, Control_c, 6, 11, 115
9, 43296, Note_on_c, 6, 69, 0
9, 43296, Note_on_c, 6, 66, 92
9, 43306, Control_c, 6, 11, 116
9, 43323, Control_c, 6, 11, 117
9, 43339, Control_c, 6, 11, 118
9, 43356, Control_c, 6, 11, 119
9, 43372, Control_c, 6, 11, 120
9, 43389, Control_c, 6, 11, 121
9, 43392, Note_on_c, 6, 66, 0
9, 43392, Note_on_c, 6, 69, 90
9, 43405, Control_c, 6, 11, 122
9, 43422, Control_c, 6, 11, 123
9, 43438, Control_c, 6, 11, 124
9, 43455, Control_c, 6, 11, 125
9, 43471, Control_c, 6, 11, 126
9, 43488, Note_on_c, 6, 69, 0
9, 43488, Control_c, 6, 11, 127
9, 43488, Note_on_c, 6, 70, 93
9, 43496, Control_c, 6, 11, 126
9, 43504, Control_c, 6, 11, 125
9, 43512, Control_c, 6, 11, 124
9, 43520, Control_c, 6, 11, 123
9, 43529, Control_c, 6, 11, 122
9, 43537, Control_c, 6, 11, 121
9, 43545, Control_c, 6, 11, 120
9, 43553, Control_c, 6, 11, 119
9, 43562, Control_c, 6, 11, 118
9, 43570, Control_c, 6, 11, 117
9, 43578, Control_c, 6, 11, 116
9, 43586, Control_c, 6, 11, 115
9, 43594, Control_c, 6, 11, 114
9, 43603, Control_c, 6, 11, 113
9, 43611, Control_c, 6, 11, 112
9, 43619, Control_c, 6, 11, 111
9, 43627, Control_c, 6, 11, 110
9, 43636, Control_c, 6, 11, 109
9, 43644, Control_c, 6, 11, 108
9, 43652, Control_c, 6, 11, 107
9, 43660, Control_c, 6, 11, 106
9, 43669, Control_c, 6, 11, 105
9, 43677, Control_c, 6, 11, 104
9, 43685, Control_c, 6, 11, 103
9, 43693, Control_c, 6, 11, 102
9, 43701, Control_c, 6, 11, 101
9, 43710, Control_c, 6, 11, 100
9, 43718, Control_c, 6, 11, 99
9, 43726, Control_c, 6, 11, 98
9, 43734, Control_c, 6, 11, 97
9, 43743, Control_c, 6, 11, 96
9, 43751, Control_c, 6, 11, 95
9, 43759, Control_c, 6, 11, 94
9, 43767, Control_c, 6, 11, 93
9, 43774, Note_on_c, 6, 70, 0
9, 43776, Control_c, 6, 11, 92
9, 44064, Control_c, 6, 11, 127
9, 44640, Note_on_c, 6, 58, 47
9, 44640, Note_on_c, 6, 65, 48
9, 44734, Note_on_c, 6, 58, 0
9, 44734, Note_on_c, 6, 65, 0
9, 44736, Note_on_c, 6, 53, 48
9, 44736, Note_on_c, 6, 62, 45
9, 44768, Note_on_c, 6, 53, 0
9, 44768, Note_on_c, 6, 62, 0
9, 44784, Note_on_c, 6, 56, 48
9, 44784, Note_on_c, 6, 65, 44
9, 44816, Note_on_c, 6, 56, 0
9, 44816, Note_on_c, 6, 65, 0
9, 44832, Note_on_c, 6, 58, 41
9, 44832, Note_on_c, 6, 65, 43
9, 44864, Note_on_c, 6, 58, 0
9, 44864, Note_on_c, 6, 65, 0
9, 44880, Note_on_c, 6, 58, 47
9, 44880, Note_on_c, 6, 65, 42
9, 44912, Note_on_c, 6, 58, 0
9, 44912, Note_on_c, 6, 65, 0
9, 44928, Note_on_c, 6, 53, 45
9, 44928, Note_on_c, 6, 62, 44
9, 44960, Note_on_c, 6, 53, 0
9, 44960, Note_on_c, 6, 62, 0
9, 44976, Note_on_c, 6, 58, 47
9, 44976, Note_on_c, 6, 65, 44
9, 45008, Note_on_c, 6, 58, 0
9, 45008, Note_on_c, 6, 65, 0
9, 45024, Note_on_c, 6, 59, 43
9, 45024, Note_on_c, 6, 65, 47
9, 45118, Note_on_c, 6, 59, 0
9, 45118, Note_on_c, 6, 65, 0
9, 45216, Note_on_c, 6, 58, 76
9, 45216, Note_on_c, 6, 65, 80
9, 45310, Note_on_c, 6, 58, 0
9, 45310, Note_on_c, 6, 65, 0
9, 45312, Note_on_c, 6, 53, 70
9, 45312, Note_on_c, 6, 62, 72
9, 45344, Note_on_c, 6, 53, 0
9, 45344, Note_on_c, 6, 62, 0
9, 45360, Note_on_c, 6, 56, 74
9, 45360, Note_on_c, 6, 65, 73
9, 45392, Note_on_c, 6, 56, 0
9, 45392, Note_on_c, 6, 65, 0
9, 45408, Note_on_c, 6, 58, 74
9, 45408, Note_on_c, 6, 65, 79
9, 45440, Note_on_c, 6, 58, 0
9, 45440, Note_on_c, 6, 65, 0
9, 45456, Note_on_c, 6, 58, 72
9, 45456, Note_on_c, 6, 65, 75
9, 45488, Note_on_c, 6, 58, 0
9, 45488, Note_on_c, 6, 65, 0
9, 45504, Note_on_c, 6, 53, 72
9, 45504, Note_on_c, 6, 62, 75
9, 45536, Note_on_c, 6, 53, 0
9, 45536, Note_on_c, 6, 62, 0
9, 45552, Note_on_c, 6, 58, 72
9, 45552, Note_on_c, 6, 65, 80
9, 45584, Note_on_c, 6, 58, 0
9, 45584, Note_on_c, 6, 65, 0
9, 45600, Note_on_c, 6, 59, 72
9, 45600, Note_on_c, 6, 65, 72
9, 45694, Note_on_c, 6, 59, 0
9, 45694, Note_on_c, 6, 65, 0
9, 49824, Control_c, 6, 11, 92
9, 49824, Note_on_c, 6, 63, 62
9, 49840, Control_c, 6, 11, 93
9, 49856, Control_c, 6, 11, 94
9, 49873, Control_c, 6, 11, 95
9, 49889, Control_c, 6, 11, 96
9, 49906, Control_c, 6, 11, 97
9, 49922, Control_c, 6, 11, 98
9, 49939, Control_c, 6, 11, 99
9, 49955, Control_c, 6, 11, 100
9, 49972, Control_c, 6, 11, 101
9, 49988, Control_c, 6, 11, 102
9, 50005, Control_c, 6, 11, 103
9, 50016, Note_on_c, 6, 63, 0
9, 50016, Note_on_c, 6, 64, 57
9, 50021, Control_c, 6, 11, 104
9, 50037, Control_c, 6, 11, 105
9, 50054, Control_c, 6, 11, 106
9, 50070, Control_c, 6, 11, 107
9, 50087, Control_c, 6, 11, 108
9, 50103, Control_c, 6, 11, 109
9, 50120, Control_c, 6, 11, 110
9, 50136, Control_c, 6, 11, 111
9, 50153, Control_c, 6, 11, 112
9, 50169, Control_c, 6, 11, 113
9, 50186, Control_c, 6, 11, 114
9, 50202, Control_c, 6, 11, 115
9, 50208, Note_on_c, 6, 64, 0
9, 50208, Note_on_c, 6, 65, 65
9, 50218, Control_c, 6, 11, 116
9, 50235, Control_c, 6, 11, 117
9, 50251, Control_c, 6, 11, 118
9, 50268, Control_c, 6, 11, 119
9, 50284, Control_c, 6, 11, 120
9, 50301, Control_c, 6, 11, 121
9, 50317, Control_c, 6, 11, 122
9, 50334, Control_c, 6, 11, 123
9, 50350, Control_c, 6, 11, 124
9, 50367, Control_c, 6, 11, 125
9, 50368, Note_on_c, 6, 65, 0
9, 50383, Control_c, 6, 11, 126
9, 50400, Control_c, 6, 11, 127
9, 52704, Control_c, 6, 11, 127
9, 52704, Note_on_c, 6, 67, 89
9, 52736, Note_on_c, 6, 67, 0
9, 52800, Note_on_c, 6, 67, 96
9, 52821, Note_on_c, 6, 67, 0
9, 52832, Note_on_c, 6, 67, 87
9, 52853, Note_on_c, 6, 67, 0
9, 52864, Note_on_c, 6, 67, 95
9, 52885, Note_on_c, 6, 67, 0
9, 52896, Note_on_c, 6, 67, 96
9, 52928, Note_on_c, 6, 67, 0
9, 53088, Note_on_c, 6, 67, 43
9, 53109, Note_on_c, 6, 67, 0
9, 53120, Note_on_c, 6, 67, 46
9, 53141, Note_on_c, 6, 67, 0
9, 53152, Note_on_c, 6, 67, 47
9, 53173, Note_on_c, 6, 67, 0
9, 53184, Note_on_c, 6, 67, 43
9, 53205, Note_on_c, 6, 67, 0
9, 53216, Note_on_c, 6, 67, 49
9, 53237, Note_on_c, 6, 67, 0
9, 53248, Note_on_c, 6, 67, 48
9, 53269, Note_on_c, 6, 67, 0
9, 53280, Note_on_c, 6, 67, 48
9, 53312, Note_on_c, 6, 67, 0
9, 53376, Note_on_c, 6, 67, 38
9, 53397, Note_on_c, 6, 67, 0
9, 53408, Note_on_c, 6, 67, 41
9, 53429, Note_on_c, 6, 67, 0
9, 53440, Note_on_c, 6, 67, 44
9, 53461, Note_on_c, 6, 67, 0
9, 53472, Note_on_c, 6, 67, 37
9, 53504, Note_on_c, 6, 67, 0
9, 53664, Note_on_c, 6, 67, 39
9, 53685, Note_on_c, 6, 67, 0
9, 53696, Note_on_c, 6, 67, 39
9, 53717, Note_on_c, 6, 67, 0
9, 53728, Note_on_c, 6, 67, 39
9, 53749, Note_on_c, 6, 67, 0
9, 53760, Note_on_c, 6, 67, 35
9, 53781, Note_on_c, 6, 67, 0
9, 53792, Note_on_c, 6, 67, 28
9, 53813, Note_on_c, 6, 67, 0
9, 53824, Note_on_c, 6, 67, 28
9, 53845, Note_on_c, 6, 67, 0
9, 53856, Note_on_c, 6, 67, 26
9, 53888, Note_on_c, 6, 67, 0
9, 53952, Note_on_c, 6, 67, 34
9, 53973, Note_on_c, 6, 67, 0
9, 53984, Note_on_c, 6, 67, 30
9, 54005, Note_on_c, 6, 67, 0
9, 54016, Note_on_c, 6, 67, 33
9, 54037, Note_on_c, 6, 67, 0
9, 54048, Note_on_c, 6, 67, 32
9, 54080, Note_on_c, 6, 67, 0
9, 54432, Note_on_c, 6, 67, 34
9, 54464, Note_on_c, 6, 67, 0
9, 54528, Note_on_c, 6, 67, 35
9, 54549, Note_on_c, 6, 67, 0
9, 54560, Note_on_c, 6, 67, 26
9, 54581, Note_on_c, 6, 67, 0
9, 54592, Note_on_c, 6, 67, 25
9, 54613, Note_on_c, 6, 67, 0
9, 54624, Note_on_c, 6, 67, 25
9, 54656, Note_on_c, 6, 67, 0
9, 55008, Note_on_c, 6, 67, 34
9, 55040, Note_on_c, 6, 67, 0
9, 55104, Note_on_c, 6, 67, 33
9, 55125, Note_on_c, 6, 67, 0
9, 55136, Note_on_c, 6, 67, 29
9, 55157, Note_on_c, 6, 67, 0
9, 55168, Note_on_c, 6, 67, 31
9, 55189, Note_on_c, 6, 67, 0
9, 55200, Note_on_c, 6, 67, 30
9, 55232, Note_on_c, 6, 67, 0
9, 55584, Note_on_c, 6, 67, 29
9, 55616, Note_on_c, 6, 67, 0
9, 55680, Note_on_c, 6, 67, 27
9, 55701, Note_on_c, 6, 67, 0
9, 55712, Note_on_c, 6, 67, 34
9, 55733, Note_on_c, 6, 67, 0
9, 55744, Note_on_c, 6, 67, 27
9, 55765, Note_on_c, 6, 67, 0
9, 55776, Note_on_c, 6, 67, 30
9, 55808, Note_on_c, 6, 67, 0
9, 56160, Note_on_c, 6, 67, 29
9, 56192, Note_on_c, 6, 67, 0
9, 56256, Note_on_c, 6, 67, 32
9, 56277, Note_on_c, 6, 67, 0
9, 56288, Note_on_c, 6, 67, 26
9, 56309, Note_on_c, 6, 67, 0
9, 56320, Note_on_c, 6, 67, 30
9, 56341, Note_on_c, 6, 67, 0
9, 56352, Note_on_c, 6, 67, 33
9, 56384, Note_on_c, 6, 67, 0
9, 56736, Note_on_c, 6, 67, 31
9, 56768, Note_on_c, 6, 67, 0
9, 56832, Note_on_c, 6, 67, 33
9, 56853, Note_on_c, 6, 67, 0
9, 56864, Note_on_c, 6, 67, 26
9, 56885, Note_on_c, 6, 67, 0
9, 56896, Note_on_c, 6, 67, 29
9, 56917, Note_on_c, 6, 67, 0
9, 56928, Note_on_c, 6, 67, 28
9, 56960, Note_on_c, 6, 67, 0
9, 58464, Control_c, 6, 11, 92
9, 58464, Note_on_c, 6, 62, 92
9, 58480, Control_c, 6, 11, 93
9, 58496, Control_c, 6, 11, 94
9, 58513, Control_c, 6, 11, 95
9, 58529, Control_c, 6, 11, 96
9, 58546, Control_c, 6, 11, 97
9, 58562, Control_c, 6, 11, 98
9, 58579, Control_c, 6, 11, 99
9, 58595, Control_c, 6, 11, 100
9, 58612, Control_c, 6, 11, 101
9, 58628, Control_c, 6, 11, 102
9, 58645, Control_c, 6, 11, 103
9, 58661, Control_c, 6, 11, 104
9, 58677, Control_c, 6, 11, 105
9, 58694, Control_c, 6, 11, 106
9, 58710, Control_c, 6, 11, 107
9, 58727, Control_c, 6, 11, 108
9, 58743, Control_c, 6, 11, 109
9, 58760, Control_c, 6, 11, 110
9, 58776, Control_c, 6, 11, 111
9, 58793, Control_c, 6, 11, 112
9, 58809, Control_c, 6, 11, 113
9, 58826, Control_c, 6, 11, 114
9, 58842, Control_c, 6, 11, 115
9, 58858, Control_c, 6, 11, 116
9, 58875, Control_c, 6, 11, 117
9, 58891, Control_c, 6, 11, 118
9, 58908, Control_c, 6, 11, 119
9, 58924, Control_c, 6, 11, 120
9, 58941, Control_c, 6, 11, 121
9, 58957, Control_c, 6, 11, 122
9, 58974, Control_c, 6, 11, 123
9, 58990, Control_c, 6, 11, 124
9, 58992, Note_on_c, 6, 62, 0
9, 59007, Control_c, 6, 11, 125
9, 59023, Control_c, 6, 11, 126
9, 59040, Control_c, 6, 11, 127
9, 59040, Note_on_c, 6, 62, 87
9, 59040, Note_on_c, 6, 68, 90
9, 59134, Note_on_c, 6, 68, 0
9, 59136, Note_on_c, 6, 66, 90
9, 59200, Note_on_c, 6, 62, 0
9, 59230, Note_on_c, 6, 66, 0
9, 59232, Note_on_c, 6, 64, 88
9, 59328, Note_on_c, 6, 62, 87
9, 59392, Note_on_c, 6, 64, 0
9, 59422, Note_on_c, 6, 62, 0
9, 59424, Note_on_c, 6, 61, 95
9, 59424, Note_on_c, 6, 68, 92
9, 59518, Note_on_c, 6, 68, 0
9, 59520, Note_on_c, 6, 66, 90
9, 59584, Note_on_c, 6, 61, 0
9, 59614, Note_on_c, 6, 66, 0
9, 59616, Control_c, 6, 11, 127
9, 59616, Note_on_c, 6, 62, 93
9, 59623, Control_c, 6, 11, 126
9, 59630, Control_c, 6, 11, 125
9, 59637, Control_c, 6, 11, 124
9, 59644, Control_c, 6, 11, 123
9, 59651, Control_c, 6, 11, 122
9, 59658, Control_c, 6, 11, 121
9, 59665, Control_c, 6, 11, 120
9, 59672, Control_c, 6, 11, 119
9, 59679, Control_c, 6, 11, 118
9, 59686, Control_c, 6, 11, 117
9, 59693, Control_c, 6, 11, 116
9, 59700, Control_c, 6, 11, 115
9, 59707, Control_c, 6, 11, 114
9, 59714, Control_c, 6, 11, 113
9, 59721, Control_c, 6, 11, 112
9, 59728, Control_c, 6, 11, 111
9, 59735, Control_c, 6, 11, 110
9, 59742, Control_c, 6, 11, 109
9, 59749, Control_c, 6, 11, 108
9, 59756, Control_c, 6, 11, 107
9, 59763, Control_c, 6, 11, 106
9, 59770, Control_c, 6, 11, 105
9, 59777, Control_c, 6, 11, 104
9, 59784, Control_c, 6, 11, 103
9, 59791, Control_c, 6, 11, 102
9, 59798, Control_c, 6, 11, 101
9, 59805, Control_c, 6, 11, 100
9, 59808, Note_on_c, 6, 62, 0
9, 59808, Note_on_c, 6, 64, 97
9, 59812, Control_c, 6, 11, 99
9, 59819, Control_c, 6, 11, 98
9, 59826, Control_c, 6, 11, 97
9, 59833, Control_c, 6, 11, 96
9, 59840, Control_c, 6, 11, 95
9, 59847, Control_c, 6, 11, 94
9, 59854, Control_c, 6, 11, 93
9, 59861, Control_c, 6, 11, 92
9, 59868, Control_c, 6, 11, 91
9, 59875, Control_c, 6, 11, 90
9, 59882, Control_c, 6, 11, 89
9, 59889, Control_c, 6, 11, 88
9, 59896, Control_c, 6, 11, 87
9, 59903, Control_c, 6, 11, 86
9, 59911, Control_c, 6, 11, 85
9, 59918, Control_c, 6, 11, 84
9, 59925, Control_c, 6, 11, 83
9, 59932, Control_c, 6, 11, 82
9, 59939, Control_c, 6, 11, 81
9, 59946, Control_c, 6, 11, 80
9, 59953, Control_c, 6, 11, 79
9, 59960, Control_c, 6, 11, 78
9, 59967, Control_c, 6, 11, 77
9, 59974, Control_c, 6, 11, 76
9, 59981, Control_c, 6, 11, 75
9, 59988, Control_c, 6, 11, 74
9, 59995, Control_c, 6, 11, 73
9, 60000, Note_on_c, 6, 64, 0
9, 60000, Note_on_c, 6, 62, 89
9, 60002, Control_c, 6, 11, 72
9, 60009, Control_c, 6, 11, 71
9, 60016, Control_c, 6, 11, 70
9, 60023, Control_c, 6, 11, 69
9, 60030, Control_c, 6, 11, 68
9, 60037, Control_c, 6, 11, 67
9, 60044, Control_c, 6, 11, 66
9, 60051, Control_c, 6, 11, 65
9, 60058, Control_c, 6, 11, 64
9, 60065, Control_c, 6, 11, 63
9, 60072, Control_c, 6, 11, 62
9, 60079, Control_c, 6, 11, 61
9, 60086, Control_c, 6, 11, 60
9, 60093, Control_c, 6, 11, 59
9, 60100, Control_c, 6, 11, 58
9, 60107, Control_c, 6, 11, 57
9, 60114, Control_c, 6, 11, 56
9, 60121, Control_c, 6, 11, 55
9, 60128, Control_c, 6, 11, 54
9, 60135, Control_c, 6, 11, 53
9, 60142, Control_c, 6, 11, 52
9, 60149, Control_c, 6, 11, 51
9, 60156, Control_c, 6, 11, 50
9, 60163, Control_c, 6, 11, 49
9, 60170, Control_c, 6, 11, 48
9, 60177, Control_c, 6, 11, 47
9, 60184, Control_c, 6, 11, 46
9, 60192, Control_c, 6, 11, 45
9, 60352, Note_on_c, 6, 62, 0
9, 60960, Control_c, 6, 11, 92
9, 60960, Note_on_c, 6, 64, 43
9, 60965, Control_c, 6, 11, 93
9, 60970, Control_c, 6, 11, 94
9, 60976, Control_c, 6, 11, 95
9, 60981, Control_c, 6, 11, 96
9, 60987, Control_c, 6, 11, 97
9, 60992, Control_c, 6, 11, 98
9, 60998, Control_c, 6, 11, 99
9, 61003, Control_c, 6, 11, 100
9, 61009, Control_c, 6, 11, 101
9, 61014, Control_c, 6, 11, 102
9, 61020, Control_c, 6, 11, 103
9, 61025, Control_c, 6, 11, 104
9, 61031, Control_c, 6, 11, 105
9, 61036, Control_c, 6, 11, 106
9, 61042, Control_c, 6, 11, 107
9, 61047, Control_c, 6, 11, 108
9, 61053, Control_c, 6, 11, 109
9, 61058, Control_c, 6, 11, 110
9, 61064, Control_c, 6, 11, 111
9, 61069, Control_c, 6, 11, 112
9, 61075, Control_c, 6, 11, 113
9, 61080, Control_c, 6, 11, 114
9, 61086, Control_c, 6, 11, 115
9, 61091, Control_c, 6, 11, 116
9, 61097, Control_c, 6, 11, 117
9, 61102, Control_c, 6, 11, 118
9, 61108, Control_c, 6, 11, 119
9, 61113, Control_c, 6, 11, 120
9, 61119, Control_c, 6, 11, 121
9, 61124, Control_c, 6, 11, 122
9, 61130, Control_c, 6, 11, 123
9, 61135, Control_c, 6, 11, 124
9, 61141, Control_c, 6, 11, 125
9, 61146, Control_c, 6, 11, 126
9, 61152, Note_on_c, 6, 64, 0
9, 61152, Control_c, 6, 11, 127
9, 61152, Note_on_c, 6, 66, 48
9, 61312, Note_on_c, 6, 66, 0
9, 62688, Control_c, 6, 11, 92
9, 62688, Note_on_c, 6, 64, 44
9, 62698, Control_c, 6, 11, 93
9, 62709, Control_c, 6, 11, 94
9, 62720, Control_c, 6, 11, 95
9, 62731, Control_c, 6, 11, 96
9, 62742, Control_c, 6, 11, 97
9, 62753, Control_c, 6, 11, 98
9, 62764, Control_c, 6, 11, 99
9, 62775, Control_c, 6, 11, 100
9, 62786, Control_c, 6, 11, 101
9, 62797, Control_c, 6, 11, 102
9, 62808, Control_c, 6, 11, 103
9, 62819, Control_c, 6, 11, 104
9, 62830, Control_c, 6, 11, 105
9, 62841, Control_c, 6, 11, 106
9, 62852, Control_c, 6, 11, 107
9, 62863, Control_c, 6, 11, 108
9, 62874, Control_c, 6, 11, 109
9, 62880, Note_on_c, 6, 64, 0
9, 62880, Note_on_c, 6, 66, 46
9, 62885, Control_c, 6, 11, 110
9, 62896, Control_c, 6, 11, 111
9, 62907, Control_c, 6, 11, 112
9, 62918, Control_c, 6, 11, 113
9, 62929, Control_c, 6, 11, 114
9, 62940, Control_c, 6, 11, 115
9, 62951, Control_c, 6, 11, 116
9, 62962, Control_c, 6, 11, 117
9, 62973, Control_c, 6, 11, 118
9, 62984, Control_c, 6, 11, 119
9, 62995, Control_c, 6, 11, 120
9, 63006, Control_c, 6, 11, 121
9, 63017, Control_c, 6, 11, 122
9, 63028, Control_c, 6, 11, 123
9, 63039, Control_c, 6, 11, 124
9, 63050, Control_c, 6, 11, 125
9, 63061, Control_c, 6, 11, 126
9, 63072, Note_on_c, 6, 66, 0
9, 63072, Control_c, 6, 11, 127
9, 63072, Note_on_c, 6, 67, 46
9, 63264, Note_on_c, 6, 67, 0
9, 63264, Note_on_c, 6, 64, 48
9, 63456, Note_on_c, 6, 64, 0
9, 63456, Note_on_c, 6, 57, 50
9, 63648, Note_on_c, 6, 57, 0
9, 63648, Note_on_c, 6, 61, 49
9, 64176, Note_on_c, 6, 61, 0
9, 64224, Control_c, 6, 11, 75
9, 64224, Note_on_c, 6, 61, 65
9, 64231, Control_c, 6, 11, 76
9, 64238, Control_c, 6, 11, 77
9, 64246, Control_c, 6, 11, 78
9, 64253, Control_c, 6, 11, 79
9, 64260, Control_c, 6, 11, 80
9, 64268, Control_c, 6, 11, 81
9, 64275, Control_c, 6, 11, 82
9, 64283, Control_c, 6, 11, 83
9, 64290, Control_c, 6, 11, 84
9, 64297, Control_c, 6, 11, 85
9, 64305, Control_c, 6, 11, 86
9, 64312, Control_c, 6, 11, 87
9, 64320, Control_c, 6, 11, 88
9, 64327, Control_c, 6, 11, 89
9, 64334, Control_c, 6, 11, 90
9, 64342, Control_c, 6, 11, 91
9, 64349, Control_c, 6, 11, 92
9, 64356, Control_c, 6, 11, 93
9, 64364, Control_c, 6, 11, 94
9, 64371, Control_c, 6, 11, 95
9, 64379, Control_c, 6, 11, 96
9, 64386, Control_c, 6, 11, 97
9, 64393, Control_c, 6, 11, 98
9, 64401, Control_c, 6, 11, 99
9, 64408, Control_c, 6, 11, 100
9, 64416, Control_c, 6, 11, 101
9, 64423, Control_c, 6, 11, 102
9, 64430, Control_c, 6, 11, 103
9, 64438, Control_c, 6, 11, 104
9, 64445, Control_c, 6, 11, 105
9, 64452, Control_c, 6, 11, 106
9, 64460, Control_c, 6, 11, 107
9, 64467, Control_c, 6, 11, 108
9, 64475, Control_c, 6, 11, 109
9, 64482, Control_c, 6, 11, 110
9, 64489, Control_c, 6, 11, 111
9, 64497, Control_c, 6, 11, 112
9, 64504, Control_c, 6, 11, 113
9, 64512, Control_c, 6, 11, 114
9, 64519, Control_c, 6, 11, 115
9, 64526, Control_c, 6, 11, 116
9, 64534, Control_c, 6, 11, 117
9, 64541, Control_c, 6, 11, 118
9, 64548, Control_c, 6, 11, 119
9, 64556, Control_c, 6, 11, 120
9, 64563, Control_c, 6, 11, 121
9, 64571, Control_c, 6, 11, 122
9, 64578, Control_c, 6, 11, 123
9, 64585, Control_c, 6, 11, 124
9, 64593, Control_c, 6, 11, 125
9, 64600, Control_c, 6, 11, 126
9, 64608, Note_on_c, 6, 61, 0
9, 64608, Control_c, 6, 11, 127
9, 64608, Note_on_c, 6, 61, 58
9, 64768, Note_on_c, 6, 61, 0
9, 64800, Control_c, 6, 11, 75
9, 64800, Note_on_c, 6, 61, 91
9, 64807, Control_c, 6, 11, 76
9, 64814, Control_c, 6, 11, 77
9, 64822, Control_c, 6, 11, 78
9, 64829, Control_c, 6, 11, 79
9, 64836, Control_c, 6, 11, 80
9, 64844, Control_c, 6, 11, 81
9, 64851, Control_c, 6, 11, 82
9, 64859, Control_c, 6, 11, 83
9, 64866, Control_c, 6, 11, 84
9, 64873, Control_c, 6, 11, 85
9, 64881, Control_c, 6, 11, 86
9, 64888, Control_c, 6, 11, 87
9, 64896, Control_c, 6, 11, 88
9, 64903, Control_c, 6, 11, 89
9, 64910, Control_c, 6, 11, 90
9, 64918, Control_c, 6, 11, 91
9, 64925, Control_c, 6, 11, 92
9, 64932, Control_c, 6, 11, 93
9, 64940, Control_c, 6, 11, 94
9, 64947, Control_c, 6, 11, 95
9, 64955, Control_c, 6, 11, 96
9, 64962, Control_c, 6, 11, 97
9, 64969, Control_c, 6, 11, 98
9, 64977, Control_c, 6, 11, 99
9, 64984, Control_c, 6, 11, 100
9, 64992, Control_c, 6, 11, 101
9, 64999, Control_c, 6, 11, 102
9, 65006, Control_c, 6, 11, 103
9, 65014, Control_c, 6, 11, 104
9, 65021, Control_c, 6, 11, 105
9, 65028, Control_c, 6, 11, 106
9, 65036, Control_c, 6, 11, 107
9, 65043, Control_c, 6, 11, 108
9, 65051, Control_c, 6, 11, 109
9, 65058, Control_c, 6, 11, 110
9, 65065, Control_c, 6, 11, 111
9, 65073, Control_c, 6, 11, 112
9, 65080, Control_c, 6, 11, 113
9, 65088, Control_c, 6, 11, 114
9, 65095, Control_c, 6, 11, 115
9, 65102, Control_c, 6, 11, 116
9, 65110, Control_c, 6, 11, 117
9, 65117, Control_c, 6, 11, 118
9, 65124, Control_c, 6, 11, 119
9, 65132, Control_c, 6, 11, 120
9, 65139, Control_c, 6, 11, 121
9, 65147, Control_c, 6, 11, 122
9, 65154, Control_c, 6, 11, 123
9, 65161, Control_c, 6, 11, 124
9, 65169, Control_c, 6, 11, 125
9, 65176, Control_c, 6, 11, 126
9, 65184, Note_on_c, 6, 61, 0
9, 65184, Control_c, 6, 11, 127
9, 65184, Note_on_c, 6, 63, 93
9, 65216, Note_on_c, 6, 63, 0
9, 65376, Note_on_c, 6, 56, 94
9, 65470, Note_on_c, 6, 56, 0
9, 65568, Control_c, 6, 11, 75
9, 65568, Note_on_c, 6, 56, 103
9, 65568, Note_on_c, 6, 63, 109
9, 65571, Control_c, 6, 11, 76
9, 65575, Control_c, 6, 11, 77
9, 65579, Control_c, 6, 11, 78
9, 65582, Control_c, 6, 11, 79
9, 65586, Control_c, 6, 11, 80
9, 65590, Control_c, 6, 11, 81
9, 65593, Control_c, 6, 11, 82
9, 65597, Control_c, 6, 11, 83
9, 65601, Control_c, 6, 11, 84
9, 65604, Control_c, 6, 11, 85
9, 65608, Control_c, 6, 11, 86
9, 65612, Control_c, 6, 11, 87
9, 65616, Control_c, 6, 11, 88
9, 65619, Control_c, 6, 11, 89
9, 65623, Control_c, 6, 11, 90
9, 65627, Control_c, 6, 11, 91
9, 65630, Control_c, 6, 11, 92
9, 65634, Control_c, 6, 11, 93
9, 65638, Control_c, 6, 11, 94
9, 65641, Control_c, 6, 11, 95
9, 65645, Control_c, 6, 11, 96
9, 65649, Control_c, 6, 11, 97
9, 65652, Control_c, 6, 11, 98
9, 65656, Control_c, 6, 11, 99
9, 65660, Control_c, 6, 11, 100
9, 65664, Control_c, 6, 11, 101
9, 65667, Control_c, 6, 11, 102
9, 65671, Control_c, 6, 11, 103
9, 65675, Control_c, 6, 11, 104
9, 65678, Control_c, 6, 11, 105
9, 65682, Control_c, 6, 11, 106
9, 65686, Control_c, 6, 11, 107
9, 65689, Control_c, 6, 11, 108
9, 65693, Control_c, 6, 11, 109
9, 65697, Control_c, 6, 11, 110
9, 65700, Control_c, 6, 11, 111
9, 65704, Control_c, 6, 11, 112
9, 65708, Control_c, 6, 11, 113
9, 65712, Control_c, 6, 11, 114
9, 65715, Control_c, 6, 11, 115
9, 65719, Control_c, 6, 11, 116
9, 65723, Control_c, 6, 11, 117
9, 65726, Control_c, 6, 11, 118
9, 65730, Control_c, 6, 11, 119
9, 65734, Control_c, 6, 11, 120
9, 65737, Control_c, 6, 11, 121
9, 65741, Control_c, 6, 11, 122
9, 65745, Control_c, 6, 11, 123
9, 65748, Control_c, 6, 11, 124
9, 65752, Control_c, 6, 11, 125
9, 65756, Control_c, 6, 11, 126
9, 65760, Control_c, 6, 11, 127
9, 65952, Control_c, 6, 11, 127
9, 65962, Control_c, 6, 11, 126
9, 65973, Control_c, 6, 11, 125
9, 65984, Control_c, 6, 11, 124
9, 65995, Control_c, 6, 11, 123
9, 66005, Control_c, 6, 11, 122
9, 66016, Control_c, 6, 11, 121
9, 66027, Control_c, 6, 11, 120
9, 66038, Control_c, 6, 11, 119
9, 66048, Control_c, 6, 11, 118
9, 66059, Control_c, 6, 11, 117
9, 66070, Control_c, 6, 11, 116
9, 66081, Control_c, 6, 11, 115
9, 66091, Control_c, 6, 11, 114
9, 66102, Control_c, 6, 11, 113
9, 66113, Control_c, 6, 11, 112
9, 66124, Control_c, 6, 11, 111
9, 66135, Control_c, 6, 11, 110
9, 66145, Control_c, 6, 11, 109
9, 66156, Control_c, 6, 11, 108
9, 66167, Control_c, 6, 11, 107
9, 66178, Control_c, 6, 11, 106
9, 66188, Control_c, 6, 11, 105
9, 66199, Control_c, 6, 11, 104
9, 66210, Control_c, 6, 11, 103
9, 66221, Control_c, 6, 11, 102
9, 66231, Control_c, 6, 11, 101
9, 66242, Control_c, 6, 11, 100
9, 66253, Control_c, 6, 11, 99
9, 66264, Control_c, 6, 11, 98
9, 66274, Control_c, 6, 11, 97
9, 66285, Control_c, 6, 11, 96
9, 66296, Control_c, 6, 11, 95
9, 66307, Control_c, 6, 11, 94
9, 66318, Control_c, 6, 11, 93
9, 66328, Control_c, 6, 11, 92
9, 66339, Control_c, 6, 11, 91
9, 66350, Control_c, 6, 11, 90
9, 66361, Control_c, 6, 11, 89
9, 66371, Control_c, 6, 11, 88
9, 66382, Control_c, 6, 11, 87
9, 66393, Control_c, 6, 11, 86
9, 66404, Control_c, 6, 11, 85
9, 66414, Control_c, 6, 11, 84
9, 66425, Control_c, 6, 11, 83
9, 66436, Control_c, 6, 11, 82
9, 66447, Control_c, 6, 11, 81
9, 66458, Control_c, 6, 11, 80
9, 66468, Control_c, 6, 11, 79
9, 66479, Control_c, 6, 11, 78
9, 66490, Control_c, 6, 11, 77
9, 66501, Control_c, 6, 11, 76
9, 66511, Control_c, 6, 11, 75
9, 66522, Control_c, 6, 11, 74
9, 66533, Control_c, 6, 11, 73
9, 66544, Control_c, 6, 11, 72
9, 66554, Control_c, 6, 11, 71
9, 66565, Control_c, 6, 11, 70
9, 66576, Control_c, 6, 11, 69
9, 66587, Control_c, 6, 11, 68
9, 66597, Control_c, 6, 11, 67
9, 66608, Control_c, 6, 11, 66
9, 66619, Control_c, 6, 11, 65
9, 66630, Control_c, 6, 11, 64
9, 66641, Control_c, 6, 11, 63
9, 66651, Control_c, 6, 11, 62
9, 66662, Control_c, 6, 11, 61
9, 66673, Control_c, 6, 11, 60
9, 66684, Control_c, 6, 11, 59
9, 66694, Control_c, 6, 11, 58
9, 66705, Control_c, 6, 11, 57
9, 66716, Control_c, 6, 11, 56
9, 66727, Control_c, 6, 11, 55
9, 66737, Control_c, 6, 11, 54
9, 66748, Control_c, 6, 11, 53
9, 66759, Control_c, 6, 11, 52
9, 66770, Control_c, 6, 11, 51
9, 66781, Control_c, 6, 11, 50
9, 66791, Control_c, 6, 11, 49
9, 66802, Control_c, 6, 11, 48
9, 66813, Control_c, 6, 11, 47
9, 66824, Control_c, 6, 11, 46
9, 66834, Control_c, 6, 11, 45
9, 66845, Control_c, 6, 11, 44
9, 66856, Control_c, 6, 11, 43
9, 66867, Control_c, 6, 11, 42
9, 66877, Control_c, 6, 11, 41
9, 66888, Control_c, 6, 11, 40
9, 66899, Control_c, 6, 11, 39
9, 66910, Control_c, 6, 11, 38
9, 66920, Control_c, 6, 11, 37
9, 66931, Control_c, 6, 11, 36
9, 66942, Control_c, 6, 11, 35
9, 66953, Control_c, 6, 11, 34
9, 66964, Control_c, 6, 11, 33
9, 66974, Control_c, 6, 11, 32
9, 66985, Control_c, 6, 11, 31
9, 66996, Control_c, 6, 11, 30
9, 67007, Control_c, 6, 11, 29
9, 67017, Control_c, 6, 11, 28
9, 67028, Control_c, 6, 11, 27
9, 67039, Control_c, 6, 11, 26
9, 67050, Control_c, 6, 11, 25
9, 67060, Control_c, 6, 11, 24
9, 67071, Control_c, 6, 11, 23
9, 67082, Control_c, 6, 11, 22
9, 67093, Control_c, 6, 11, 21
9, 67104, Control_c, 6, 11, 20
9, 67264, Note_on_c, 6, 56, 0
9, 67264, Note_on_c, 6, 63, 0
9, 67680, Control_c, 6, 11, 127
9, 68064, Note_on_c, 6, 62, 56
9, 68224, Note_on_c, 6, 62, 0
9, 68448, Note_on_c, 6, 62, 56
9, 68608, Note_on_c, 6, 62, 0
9, 69024, Note_on_c, 6, 62, 63
9, 69184, Note_on_c, 6, 62, 0
9, 69600, Note_on_c, 6, 62, 45
9, 69760, Note_on_c, 6, 62, 0
9, 72480, Note_on_c, 6, 62, 89
9, 72640, Note_on_c, 6, 62, 0
9, 73056, Note_on_c, 6, 62, 44
9, 73216, Note_on_c, 6, 62, 0
9, 74592, Control_c, 6, 11, 127
9, 75744, Note_on_c, 6, 52, 27
9, 75744, Note_on_c, 6, 60, 30
9, 75864, Note_on_c, 6, 52, 0
9, 75864, Note_on_c, 6, 60, 0
9, 75936, Note_on_c, 6, 55, 33
9, 75936, Note_on_c, 6, 63, 27
9, 76056, Note_on_c, 6, 55, 0
9, 76056, Note_on_c, 6, 63, 0
9, 76128, Note_on_c, 6, 59, 31
9, 76128, Note_on_c, 6, 66, 28
9, 76248, Note_on_c, 6, 59, 0
9, 76248, Note_on_c, 6, 66, 0
9, 76320, Note_on_c, 6, 61, 25
9, 76320, Note_on_c, 6, 69, 33
9, 76352, Note_on_c, 6, 61, 0
9, 76352, Note_on_c, 6, 69, 0
9, 76512, Note_on_c, 6, 69, 28
9, 76606, Note_on_c, 6, 69, 0
9, 77856, Note_on_c, 6, 61, 30
9, 77880, Note_on_c, 6, 61, 0
9, 77880, Note_on_c, 6, 58, 34
9, 78046, Note_on_c, 6, 58, 0
9, 78048, Note_on_c, 6, 58, 31
9, 78072, Note_on_c, 6, 58, 0
9, 78072, Note_on_c, 6, 55, 35
9, 78238, Note_on_c, 6, 55, 0
9, 78432, Note_on_c, 6, 61, 35
9, 78456, Note_on_c, 6, 61, 0
9, 78456, Note_on_c, 6, 58, 30
9, 78622, Note_on_c, 6, 58, 0
9, 78624, Note_on_c, 6, 58, 58
9, 78648, Note_on_c, 6, 58, 0
9, 78648, Note_on_c, 6, 55, 57
9, 78814, Note_on_c, 6, 55, 0
9, 79008, Note_on_c, 6, 61, 63
9, 79032, Note_on_c, 6, 61, 0
9, 79032, Note_on_c, 6, 58, 62
9, 79198, Note_on_c, 6, 58, 0
9, 79200, Control_c, 6, 11, 92
9, 79200, Note_on_c, 6, 55, 56
9, 79210, Control_c, 6, 11, 93
9, 79221, Control_c, 6, 11, 94
9, 79232, Control_c, 6, 11, 95
9, 79243, Control_c, 6, 11, 96
9, 79254, Control_c, 6, 11, 97
9, 79265, Control_c, 6, 11, 98
9, 79276, Control_c, 6, 11, 99
9, 79287, Control_c, 6, 11, 100
9, 79296, Note_on_c, 6, 58, 61
9, 79298, Control_c, 6, 11, 101
9, 79309, Control_c, 6, 11, 102
9, 79320, Control_c, 6, 11, 103
9, 79326, Note_on_c, 6, 58, 0
9, 79328, Note_on_c, 6, 60, 56
9, 79331, Control_c, 6, 11, 104
9, 79342, Control_c, 6, 11, 105
9, 79353, Control_c, 6, 11, 106
9, 79358, Note_on_c, 6, 60, 0
9, 79360, Note_on_c, 6, 55, 0
9, 79360, Note_on_c, 6, 62, 60
9, 79364, Control_c, 6, 11, 107
9, 79375, Control_c, 6, 11, 108
9, 79386, Control_c, 6, 11, 109
9, 79390, Note_on_c, 6, 62, 0
9, 79392, Note_on_c, 6, 64, 64
9, 79397, Control_c, 6, 11, 110
9, 79408, Control_c, 6, 11, 111
9, 79419, Control_c, 6, 11, 112
9, 79430, Control_c, 6, 11, 113
9, 79441, Control_c, 6, 11, 114
9, 79452, Control_c, 6, 11, 115
9, 79463, Control_c, 6, 11, 116
9, 79474, Control_c, 6, 11, 117
9, 79485, Control_c, 6, 11, 118
9, 79496, Control_c, 6, 11, 119
9, 79507, Control_c, 6, 11, 120
9, 79518, Control_c, 6, 11, 121
9, 79529, Control_c, 6, 11, 122
9, 79534, Note_on_c, 6, 64, 0
9, 79536, Note_on_c, 6, 65, 65
9, 79540, Control_c, 6, 11, 123
9, 79551, Control_c, 6, 11, 124
9, 79562, Control_c, 6, 11, 125
9, 79573, Control_c, 6, 11, 126
9, 79582, Note_on_c, 6, 65, 0
9, 79584, Control_c, 6, 11, 127
9, 79584, Note_on_c, 6, 61, 55
9, 79608, Note_on_c, 6, 61, 0
9, 79608, Note_on_c, 6, 58, 61
9, 79608, Note_on_c, 6, 61, 60
9, 79774, Note_on_c, 6, 58, 0
9, 79774, Note_on_c, 6, 61, 0
9, 79776, Note_on_c, 6, 58, 55
9, 79800, Note_on_c, 6, 58, 0
9, 79800, Note_on_c, 6, 55, 60
9, 79872, Note_on_c, 6, 58, 59
9, 79902, Note_on_c, 6, 58, 0
9, 79904, Note_on_c, 6, 60, 65
9, 79934, Note_on_c, 6, 60, 0
9, 79936, Note_on_c, 6, 62, 64
9, 79966, Note_on_c, 6, 55, 0
9, 79966, Note_on_c, 6, 62, 0
9, 79968, Note_on_c, 6, 64, 65
9, 80110, Note_on_c, 6, 64, 0
9, 80112, Note_on_c, 6, 65, 63
9, 80158, Note_on_c, 6, 65, 0
9, 80160, Note_on_c, 6, 61, 68
9, 80184, Note_on_c, 6, 61, 0
9, 80184, Note_on_c, 6, 58, 61
9, 80184, Note_on_c, 6, 61, 67
9, 80350, Note_on_c, 6, 58, 0
9, 80350, Note_on_c, 6, 61, 0
9, 80352, Note_on_c, 6, 58, 68
9, 80376, Note_on_c, 6, 58, 0
9, 80376, Note_on_c, 6, 55, 70
9, 80448, Note_on_c, 6, 58, 74
9, 80478, Note_on_c, 6, 58, 0
9, 80480, Note_on_c, 6, 60, 75
9, 80510, Note_on_c, 6, 60, 0
9, 80512, Note_on_c, 6, 62, 73
9, 80542, Note_on_c, 6, 55, 0
9, 80542, Note_on_c, 6, 62, 0
9, 80544, Note_on_c, 6, 64, 73
9, 80686, Note_on_c, 6, 64, 0
9, 80688, Note_on_c, 6, 65, 74
9, 80734, Note_on_c, 6, 65, 0
9, 80736, Note_on_c, 6, 61, 74
9, 80760, Note_on_c, 6, 61, 0
9, 80760, Note_on_c, 6, 58, 78
9, 80760, Note_on_c, 6, 61, 70
9, 80926, Note_on_c, 6, 58, 0
9, 80926, Note_on_c, 6, 61, 0
9, 82080, Note_on_c, 6, 56, 109
9, 82104, Note_on_c, 6, 56, 0
9, 82104, Note_on_c, 6, 58, 103
9, 82992, Note_on_c, 6, 58, 0
9, 84384, Note_on_c, 6, 56, 108
9, 84408, Note_on_c, 6, 56, 0
9, 84408, Note_on_c, 6, 58, 112
9, 84960, Control_c, 6, 11, 127
9, 84969, Control_c, 6, 11, 126
9, 84978, Control_c, 6, 11, 125
9, 84988, Control_c, 6, 11, 124
9, 84997, Control_c, 6, 11, 123
9, 85006, Control_c, 6, 11, 122
9, 85016, Control_c, 6, 11, 121
9, 85025, Control_c, 6, 11, 120
9, 85034, Control_c, 6, 11, 119
9, 85044, Control_c, 6, 11, 118
9, 85053, Control_c, 6, 11, 117
9, 85063, Control_c, 6, 11, 116
9, 85072, Control_c, 6, 11, 115
9, 85081, Control_c, 6, 11, 114
9, 85091, Control_c, 6, 11, 113
9, 85100, Control_c, 6, 11, 112
9, 85109, Control_c, 6, 11, 111
9, 85119, Control_c, 6, 11, 110
9, 85128, Control_c, 6, 11, 109
9, 85137, Control_c, 6, 11, 108
9, 85147, Control_c, 6, 11, 107
9, 85156, Control_c, 6, 11, 106
9, 85166, Control_c, 6, 11, 105
9, 85175, Control_c, 6, 11, 104
9, 85184, Control_c, 6, 11, 103
9, 85194, Control_c, 6, 11, 102
9, 85203, Control_c, 6, 11, 101
9, 85212, Control_c, 6, 11, 100
9, 85222, Control_c, 6, 11, 99
9, 85231, Control_c, 6, 11, 98
9, 85240, Control_c, 6, 11, 97
9, 85250, Control_c, 6, 11, 96
9, 85259, Control_c, 6, 11, 95
9, 85269, Control_c, 6, 11, 94
9, 85278, Control_c, 6, 11, 93
9, 85287, Control_c, 6, 11, 92
9, 85297, Control_c, 6, 11, 91
9, 85306, Control_c, 6, 11, 90
9, 85315, Control_c, 6, 11, 89
9, 85325, Control_c, 6, 11, 88
9, 85334, Control_c, 6, 11, 87
9, 85343, Control_c, 6, 11, 86
9, 85353, Control_c, 6, 11, 85
9, 85362, Control_c, 6, 11, 84
9, 85372, Control_c, 6, 11, 83
9, 85381, Control_c, 6, 11, 82
9, 85390, Control_c, 6, 11, 81
9, 85400, Control_c, 6, 11, 80
9, 85409, Control_c, 6, 11, 79
9, 85418, Control_c, 6, 11, 78
9, 85428, Control_c, 6, 11, 77
9, 85437, Control_c, 6, 11, 76
9, 85447, Control_c, 6, 11, 75
9, 85456, Control_c, 6, 11, 74
9, 85465, Control_c, 6, 11, 73
9, 85475, Control_c, 6, 11, 72
9, 85484, Control_c, 6, 11, 71
9, 85493, Control_c, 6, 11, 70
9, 85503, Control_c, 6, 11, 69
9, 85512, Control_c, 6, 11, 68
9, 85521, Control_c, 6, 11, 67
9, 85531, Control_c, 6, 11, 66
9, 85540, Control_c, 6, 11, 65
9, 85550, Control_c, 6, 11, 64
9, 85559, Control_c, 6, 11, 63
9, 85568, Control_c, 6, 11, 62
9, 85578, Control_c, 6, 11, 61
9, 85587, Control_c, 6, 11, 60
9, 85596, Control_c, 6, 11, 59
9, 85606, Control_c, 6, 11, 58
9, 85615, Control_c, 6, 11, 57
9, 85624, Control_c, 6, 11, 56
9, 85634, Control_c, 6, 11, 55
9, 85643, Control_c, 6, 11, 54
9, 85653, Control_c, 6, 11, 53
9, 85662, Control_c, 6, 11, 52
9, 85671, Control_c, 6, 11, 51
9, 85681, Control_c, 6, 11, 50
9, 85690, Control_c, 6, 11, 49
9, 85696, Note_on_c, 6, 58, 0
9, 85699, Control_c, 6, 11, 48
9, 85709, Control_c, 6, 11, 47
9, 85718, Control_c, 6, 11, 46
9, 85728, Control_c, 6, 11, 45
9, 86112, Control_c, 6, 11, 127
9, 86688, Note_on_c, 6, 28, 35
9, 88368, Note_on_c, 6, 28, 0
9, 88992, Note_on_c, 6, 28, 34
9, 90672, Note_on_c, 6, 28, 0
9, 95904, Note_on_c, 6, 58, 47
9, 96382, Note_on_c, 6, 58, 0
9, 96480, Note_on_c, 6, 58, 45
9, 96958, Note_on_c, 6, 58, 0
9, 97056, Control_c, 6, 11, 64
9, 97056, Note_on_c, 6, 59, 71
9, 97074, Control_c, 6, 11, 65
9, 97092, Control_c, 6, 11, 66
9, 97110, Control_c, 6, 11, 67
9, 97129, Control_c, 6, 11, 68
9, 97147, Control_c, 6, 11, 69
9, 97165, Control_c, 6, 11, 70
9, 97184, Control_c, 6, 11, 71
9, 97202, Control_c, 6, 11, 72
9, 97220, Control_c, 6, 11, 73
9, 97238, Control_c, 6, 11, 74
9, 97257, Control_c, 6, 11, 75
9, 97275, Control_c, 6, 11, 76
9, 97293, Control_c, 6, 11, 77
9, 97312, Control_c, 6, 11, 78
9, 97330, Control_c, 6, 11, 79
9, 97348, Control_c, 6, 11, 80
9, 97366, Control_c, 6, 11, 81
9, 97385, Control_c, 6, 11, 82
9, 97403, Control_c, 6, 11, 83
9, 97421, Control_c, 6, 11, 84
9, 97440, Control_c, 6, 11, 85
9, 97458, Control_c, 6, 11, 86
9, 97476, Control_c, 6, 11, 87
9, 97494, Control_c, 6, 11, 88
9, 97513, Control_c, 6, 11, 89
9, 97531, Control_c, 6, 11, 90
9, 97549, Control_c, 6, 11, 91
9, 97568, Control_c, 6, 11, 92
9, 97586, Control_c, 6, 11, 93
9, 97604, Control_c, 6, 11, 94
9, 97622, Control_c, 6, 11, 95
9, 97632, Note_on_c, 6, 59, 0
9, 97632, Note_on_c, 6, 56, 78
9, 97641, Control_c, 6, 11, 96
9, 97659, Control_c, 6, 11, 97
9, 97677, Control_c, 6, 11, 98
9, 97696, Control_c, 6, 11, 99
9, 97714, Control_c, 6, 11, 100
9, 97732, Control_c, 6, 11, 101
9, 97750, Control_c, 6, 11, 102
9, 97769, Control_c, 6, 11, 103
9, 97787, Control_c, 6, 11, 104
9, 97805, Control_c, 6, 11, 105
9, 97824, Control_c, 6, 11, 106
9, 97842, Control_c, 6, 11, 107
9, 97860, Control_c, 6, 11, 108
9, 97878, Control_c, 6, 11, 109
9, 97897, Control_c, 6, 11, 110
9, 97915, Control_c, 6, 11, 111
9, 97933, Control_c, 6, 11, 112
9, 97952, Control_c, 6, 11, 113
9, 97970, Control_c, 6, 11, 114
9, 97988, Control_c, 6, 11, 115
9, 98006, Control_c, 6, 11, 116
9, 98025, Control_c, 6, 11, 117
9, 98043, Control_c, 6, 11, 118
9, 98061, Control_c, 6, 11, 119
9, 98080, Control_c, 6, 11, 120
9, 98098, Control_c, 6, 11, 121
9, 98116, Control_c, 6, 11, 122
9, 98134, Control_c, 6, 11, 123
9, 98153, Control_c, 6, 11, 124
9, 98160, Note_on_c, 6, 56, 0
9, 98171, Control_c, 6, 11, 125
9, 98189, Control_c, 6, 11, 126
9, 98208, Control_c, 6, 11, 127
9, 98208, Control_c, 6, 11, 92
9, 98208, Note_on_c, 6, 58, 64
9, 98400, Control_c, 6, 11, 92
9, 98405, Control_c, 6, 11, 93
9, 98410, Control_c, 6, 11, 94
9, 98416, Control_c, 6, 11, 95
9, 98421, Control_c, 6, 11, 96
9, 98427, Control_c, 6, 11, 97
9, 98432, Control_c, 6, 11, 98
9, 98438, Control_c, 6, 11, 99
9, 98443, Control_c, 6, 11, 100
9, 98449, Control_c, 6, 11, 101
9, 98454, Control_c, 6, 11, 102
9, 98460, Control_c, 6, 11, 103
9, 98465, Control_c, 6, 11, 104
9, 98471, Control_c, 6, 11, 105
9, 98476, Control_c, 6, 11, 106
9, 98482, Control_c, 6, 11, 107
9, 98487, Control_c, 6, 11, 108
9, 98493, Control_c, 6, 11, 109
9, 98498, Control_c, 6, 11, 110
9, 98504, Control_c, 6, 11, 111
9, 98509, Control_c, 6, 11, 112
9, 98515, Control_c, 6, 11, 113
9, 98520, Control_c, 6, 11, 114
9, 98526, Control_c, 6, 11, 115
9, 98531, Control_c, 6, 11, 116
9, 98537, Control_c, 6, 11, 117
9, 98542, Control_c, 6, 11, 118
9, 98548, Control_c, 6, 11, 119
9, 98553, Control_c, 6, 11, 120
9, 98559, Control_c, 6, 11, 121
9, 98564, Control_c, 6, 11, 122
9, 98570, Control_c, 6, 11, 123
9, 98575, Control_c, 6, 11, 124
9, 98581, Control_c, 6, 11, 125
9, 98586, Control_c, 6, 11, 126
9, 98592, Control_c, 6, 11, 127
9, 98686, Note_on_c, 6, 58, 0
9, 98784, Control_c, 6, 11, 92
9, 98784, Note_on_c, 6, 58, 63
9, 98976, Control_c, 6, 11, 92
9, 98981, Control_c, 6, 11, 93
9, 98986, Control_c, 6, 11, 94
9, 98992, Control_c, 6, 11, 95
9, 98997, Control_c, 6, 11, 96
9, 99003, Control_c, 6, 11, 97
9, 99008, Control_c, 6, 11, 98
9, 99014, Control_c, 6, 11, 99
9, 99019, Control_c, 6, 11, 100
9, 99025, Control_c, 6, 11, 101
9, 99030, Control_c, 6, 11, 102
9, 99036, Control_c, 6, 11, 103
9, 99041, Control_c, 6, 11, 104
9, 99047, Control_c, 6, 11, 105
9, 99052, Control_c, 6, 11, 106
9, 99058, Control_c, 6, 11, 107
9, 99063, Control_c, 6, 11, 108
9, 99069, Control_c, 6, 11, 109
9, 99074, Control_c, 6, 11, 110
9, 99080, Control_c, 6, 11, 111
9, 99085, Control_c, 6, 11, 112
9, 99091, Control_c, 6, 11, 113
9, 99096, Control_c, 6, 11, 114
9, 99102, Control_c, 6, 11, 115
9, 99107, Control_c, 6, 11, 116
9, 99113, Control_c, 6, 11, 117
9, 99118, Control_c, 6, 11, 118
9, 99124, Control_c, 6, 11, 119
9, 99129, Control_c, 6, 11, 120
9, 99135, Control_c, 6, 11, 121
9, 99140, Control_c, 6, 11, 122
9, 99146, Control_c, 6, 11, 123
9, 99151, Control_c, 6, 11, 124
9, 99157, Control_c, 6, 11, 125
9, 99162, Control_c, 6, 11, 126
9, 99168, Control_c, 6, 11, 127
9, 99262, Note_on_c, 6, 58, 0
9, 99360, Control_c, 6, 11, 64
9, 99360, Note_on_c, 6, 59, 76
9, 99378, Control_c, 6, 11, 65
9, 99396, Control_c, 6, 11, 66
9, 99414, Control_c, 6, 11, 67
9, 99433, Control_c, 6, 11, 68
9, 99451, Control_c, 6, 11, 69
9, 99469, Control_c, 6, 11, 70
9, 99488, Control_c, 6, 11, 71
9, 99506, Control_c, 6, 11, 72
9, 99524, Control_c, 6, 11, 73
9, 99542, Control_c, 6, 11, 74
9, 99561, Control_c, 6, 11, 75
9, 99579, Control_c, 6, 11, 76
9, 99597, Control_c, 6, 11, 77
9, 99616, Control_c, 6, 11, 78
9, 99634, Control_c, 6, 11, 79
9, 99652, Control_c, 6, 11, 80
9, 99670, Control_c, 6, 11, 81
9, 99689, Control_c, 6, 11, 82
9, 99707, Control_c, 6, 11, 83
9, 99725, Control_c, 6, 11, 84
9, 99744, Control_c, 6, 11, 85
9, 99762, Control_c, 6, 11, 86
9, 99780, Control_c, 6, 11, 87
9, 99798, Control_c, 6, 11, 88
9, 99817, Control_c, 6, 11, 89
9, 99835, Control_c, 6, 11, 90
9, 99853, Control_c, 6, 11, 91
9, 99872, Control_c, 6, 11, 92
9, 99890, Control_c, 6, 11, 93
9, 99908, Control_c, 6, 11, 94
9, 99926, Control_c, 6, 11, 95
9, 99936, Note_on_c, 6, 59, 0
9, 99936, Note_on_c, 6, 56, 78
9, 99945, Control_c, 6, 11, 96
9, 99963, Control_c, 6, 11, 97
9, 99981, Control_c, 6, 11, 98
9, 100000, Control_c, 6, 11, 99
9, 100018, Control_c, 6, 11, 100
9, 100036, Control_c, 6, 11, 101
9, 100054, Control_c, 6, 11, 102
9, 100073, Control_c, 6, 11, 103
9, 100091, Control_c, 6, 11, 104
9, 100109, Control_c, 6, 11, 105
9, 100128, Control_c, 6, 11, 106
9, 100146, Control_c, 6, 11, 107
9, 100164, Control_c, 6, 11, 108
9, 100182, Control_c, 6, 11, 109
9, 100201, Control_c, 6, 11, 110
9, 100219, Control_c, 6, 11, 111
9, 100237, Control_c, 6, 11, 112
9, 100256, Control_c, 6, 11, 113
9, 100274, Control_c, 6, 11, 114
9, 100292, Control_c, 6, 11, 115
9, 100310, Control_c, 6, 11, 116
9, 100329, Control_c, 6, 11, 117
9, 100347, Control_c, 6, 11, 118
9, 100365, Control_c, 6, 11, 119
9, 100384, Control_c, 6, 11, 120
9, 100402, Control_c, 6, 11, 121
9, 100420, Control_c, 6, 11, 122
9, 100438, Control_c, 6, 11, 123
9, 100457, Control_c, 6, 11, 124
9, 100464, Note_on_c, 6, 56, 0
9, 100475, Control_c, 6, 11, 125
9, 100493, Control_c, 6, 11, 126
9, 100512, Control_c, 6, 11, 127
9, 101088, Control_c, 6, 11, 127
9, 102816, Control_c, 6, 11, 92
9, 102816, Note_on_c, 6, 57, 46
9, 102821, Control_c, 6, 11, 93
9, 102826, Control_c, 6, 11, 94
9, 102832, Control_c, 6, 11, 95
9, 102837, Control_c, 6, 11, 96
9, 102843, Control_c, 6, 11, 97
9, 102848, Control_c, 6, 11, 98
9, 102854, Control_c, 6, 11, 99
9, 102859, Control_c, 6, 11, 100
9, 102865, Control_c, 6, 11, 101
9, 102870, Control_c, 6, 11, 102
9, 102876, Control_c, 6, 11, 103
9, 102881, Control_c, 6, 11, 104
9, 102887, Control_c, 6, 11, 105
9, 102892, Control_c, 6, 11, 106
9, 102898, Control_c, 6, 11, 107
9, 102903, Control_c, 6, 11, 108
9, 102909, Control_c, 6, 11, 109
9, 102914, Control_c, 6, 11, 110
9, 102920, Control_c, 6, 11, 111
9, 102925, Control_c, 6, 11, 112
9, 102931, Control_c, 6, 11, 113
9, 102936, Control_c, 6, 11, 114
9, 102942, Control_c, 6, 11, 115
9, 102947, Control_c, 6, 11, 116
9, 102953, Control_c, 6, 11, 117
9, 102958, Control_c, 6, 11, 118
9, 102964, Control_c, 6, 11, 119
9, 102969, Control_c, 6, 11, 120
9, 102975, Control_c, 6, 11, 121
9, 102976, Note_on_c, 6, 57, 0
9, 102980, Control_c, 6, 11, 122
9, 102986, Control_c, 6, 11, 123
9, 102991, Control_c, 6, 11, 124
9, 102997, Control_c, 6, 11, 125
9, 103002, Control_c, 6, 11, 126
9, 103008, Control_c, 6, 11, 127
9, 103008, Note_on_c, 6, 59, 45
9, 103018, Control_c, 6, 11, 126
9, 103029, Control_c, 6, 11, 125
9, 103040, Control_c, 6, 11, 124
9, 103051, Control_c, 6, 11, 123
9, 103062, Control_c, 6, 11, 122
9, 103073, Control_c, 6, 11, 121
9, 103084, Control_c, 6, 11, 120
9, 103095, Control_c, 6, 11, 119
9, 103106, Control_c, 6, 11, 118
9, 103117, Control_c, 6, 11, 117
9, 103128, Control_c, 6, 11, 116
9, 103139, Control_c, 6, 11, 115
9, 103150, Control_c, 6, 11, 114
9, 103161, Control_c, 6, 11, 113
9, 103172, Control_c, 6, 11, 112
9, 103183, Control_c, 6, 11, 111
9, 103194, Control_c, 6, 11, 110
9, 103205, Control_c, 6, 11, 109
9, 103216, Control_c, 6, 11, 108
9, 103227, Control_c, 6, 11, 107
9, 103238, Control_c, 6, 11, 106
9, 103249, Control_c, 6, 11, 105
9, 103260, Control_c, 6, 11, 104
9, 103271, Control_c, 6, 11, 103
9, 103282, Control_c, 6, 11, 102
9, 103293, Control_c, 6, 11, 101
9, 103304, Control_c, 6, 11, 100
9, 103315, Control_c, 6, 11, 99
9, 103326, Control_c, 6, 11, 98
9, 103337, Control_c, 6, 11, 97
9, 103344, Note_on_c, 6, 59, 0
9, 103348, Control_c, 6, 11, 96
9, 103359, Control_c, 6, 11, 95
9, 103370, Control_c, 6, 11, 94
9, 103381, Control_c, 6, 11, 93
9, 103392, Control_c, 6, 11, 92
9, 103392, Note_on_c, 6, 57, 49
9, 103552, Note_on_c, 6, 57, 0
9, 105120, Control_c, 6, 11, 92
9, 105120, Note_on_c, 6, 57, 45
9, 105125, Control_c, 6, 11, 93
9, 105130, Control_c, 6, 11, 94
9, 105136, Control_c, 6, 11, 95
9, 105141, Control_c, 6, 11, 96
9, 105147, Control_c, 6, 11, 97
9, 105152, Control_c, 6, 11, 98
9, 105158, Control_c, 6, 11, 99
9, 105163, Control_c, 6, 11, 100
9, 105169, Control_c, 6, 11, 101
9, 105174, Control_c, 6, 11, 102
9, 105180, Control_c, 6, 11, 103
9, 105185, Control_c, 6, 11, 104
9, 105191, Control_c, 6, 11, 105
9, 105196, Control_c, 6, 11, 106
9, 105202, Control_c, 6, 11, 107
9, 105207, Control_c, 6, 11, 108
9, 105213, Control_c, 6, 11, 109
9, 105218, Control_c, 6, 11, 110
9, 105224, Control_c, 6, 11, 111
9, 105229, Control_c, 6, 11, 112
9, 105235, Control_c, 6, 11, 113
9, 105240, Control_c, 6, 11, 114
9, 105246, Control_c, 6, 11, 115
9, 105251, Control_c, 6, 11, 116
9, 105257, Control_c, 6, 11, 117
9, 105262, Control_c, 6, 11, 118
9, 105268, Control_c, 6, 11, 119
9, 105273, Control_c, 6, 11, 120
9, 105279, Control_c, 6, 11, 121
9, 105280, Note_on_c, 6, 57, 0
9, 105284, Control_c, 6, 11, 122
9, 105290, Control_c, 6, 11, 123
9, 105295, Control_c, 6, 11, 124
9, 105301, Control_c, 6, 11, 125
9, 105306, Control_c, 6, 11, 126
9, 105312, Control_c, 6, 11, 127
9, 105312, Note_on_c, 6, 59, 43
9, 105322, Control_c, 6, 11, 126
9, 105333, Control_c, 6, 11, 125
9, 105344, Control_c, 6, 11, 124
9, 105355, Control_c, 6, 11, 123
9, 105366, Control_c, 6, 11, 122
9, 105377, Control_c, 6, 11, 121
9, 105388, Control_c, 6, 11, 120
9, 105399, Control_c, 6, 11, 119
9, 105410, Control_c, 6, 11, 118
9, 105421, Control_c, 6, 11, 117
9, 105432, Control_c, 6, 11, 116
9, 105443, Control_c, 6, 11, 115
9, 105454, Control_c, 6, 11, 114
9, 105465, Control_c, 6, 11, 113
9, 105476, Control_c, 6, 11, 112
9, 105487, Control_c, 6, 11, 111
9, 105498, Control_c, 6, 11, 110
9, 105509, Control_c, 6, 11, 109
9, 105520, Control_c, 6, 11, 108
9, 105531, Control_c, 6, 11, 107
9, 105542, Control_c, 6, 11, 106
9, 105553, Control_c, 6, 11, 105
9, 105564, Control_c, 6, 11, 104
9, 105575, Control_c, 6, 11, 103
9, 105586, Control_c, 6, 11, 102
9, 105597, Control_c, 6, 11, 101
9, 105608, Control_c, 6, 11, 100
9, 105619, Control_c, 6, 11, 99
9, 105630, Control_c, 6, 11, 98
9, 105641, Control_c, 6, 11, 97
9, 105648, Note_on_c, 6, 59, 0
9, 105652, Control_c, 6, 11, 96
9, 105663, Control_c, 6, 11, 95
9, 105674, Control_c, 6, 11, 94
9, 105685, Control_c, 6, 11, 93
9, 105696, Control_c, 6, 11, 92
9, 105696, Note_on_c, 6, 57, 40
9, 105856, Note_on_c, 6, 57, 0
9, 107424, Note_on_c, 6, 58, 76
9, 107616, Note_on_c, 6, 58, 0
9, 107616, Note_on_c, 6, 63, 76
9, 107904, Note_on_c, 6, 63, 0
9, 107904, Note_on_c, 6, 60, 72
9, 108000, Note_on_c, 6, 60, 0
9, 108000, Note_on_c, 6, 58, 75
9, 108048, Note_on_c, 6, 58, 0
9, 109728, Note_on_c, 6, 59, 95
9, 109888, Note_on_c, 6, 59, 0
9, 109920, Note_on_c, 6, 59, 92
9, 109962, Note_on_c, 6, 59, 0
9, 109984, Note_on_c, 6, 59, 95
9, 110026, Note_on_c, 6, 59, 0
9, 110048, Note_on_c, 6, 59, 97
9, 110090, Note_on_c, 6, 59, 0
9, 110112, Note_on_c, 6, 59, 95
9, 110272, Note_on_c, 6, 59, 0
9, 110304, Note_on_c, 6, 59, 92
9, 110346, Note_on_c, 6, 59, 0
9, 110368, Note_on_c, 6, 59, 99
9, 110410, Note_on_c, 6, 59, 0
9, 110432, Note_on_c, 6, 59, 92
9, 110474, Note_on_c, 6, 59, 0
9, 110496, Note_on_c, 6, 59, 105
9, 110656, Note_on_c, 6, 59, 0
9, 110688, Note_on_c, 6, 59, 100
9, 110730, Note_on_c, 6, 59, 0
9, 110752, Note_on_c, 6, 59, 96
9, 110794, Note_on_c, 6, 59, 0
9, 110816, Note_on_c, 6, 59, 100
9, 110858, Note_on_c, 6, 59, 0
9, 110880, Note_on_c, 6, 54, 102
9, 111040, Note_on_c, 6, 54, 0
9, 111072, Note_on_c, 6, 54, 100
9, 111114, Note_on_c, 6, 54, 0
9, 111136, Note_on_c, 6, 54, 101
9, 111178, Note_on_c, 6, 54, 0
9, 111200, Note_on_c, 6, 54, 98
9, 111242, Note_on_c, 6, 54, 0
9, 111264, Note_on_c, 6, 54, 102
9, 111424, Note_on_c, 6, 54, 0
9, 111456, Note_on_c, 6, 59, 97
9, 111498, Note_on_c, 6, 59, 0
9, 111520, Note_on_c, 6, 59, 97
9, 111562, Note_on_c, 6, 59, 0
9, 111584, Note_on_c, 6, 59, 94
9, 111626, Note_on_c, 6, 59, 0
9, 111648, Note_on_c, 6, 59, 101
9, 111808, Note_on_c, 6, 59, 0
9, 111840, Note_on_c, 6, 59, 97
9, 111882, Note_on_c, 6, 59, 0
9, 111904, Note_on_c, 6, 59, 103
9, 111946, Note_on_c, 6, 59, 0
9, 111968, Note_on_c, 6, 59, 104
9, 112010, Note_on_c, 6, 59, 0
9, 112032, Control_c, 6, 11, 92
9, 112032, Note_on_c, 6, 58, 105
9, 112037, Control_c, 6, 11, 93
9, 112042, Control_c, 6, 11, 94
9, 112048, Control_c, 6, 11, 95
9, 112053, Control_c, 6, 11, 96
9, 112059, Control_c, 6, 11, 97
9, 112064, Control_c, 6, 11, 98
9, 112070, Control_c, 6, 11, 99
9, 112075, Control_c, 6, 11, 100
9, 112081, Control_c, 6, 11, 101
9, 112086, Control_c, 6, 11, 102
9, 112092, Control_c, 6, 11, 103
9, 112097, Control_c, 6, 11, 104
9, 112103, Control_c, 6, 11, 105
9, 112108, Control_c, 6, 11, 106
9, 112114, Control_c, 6, 11, 107
9, 112119, Control_c, 6, 11, 108
9, 112125, Control_c, 6, 11, 109
9, 112130, Control_c, 6, 11, 110
9, 112136, Control_c, 6, 11, 111
9, 112141, Control_c, 6, 11, 112
9, 112147, Control_c, 6, 11, 113
9, 112152, Control_c, 6, 11, 114
9, 112158, Control_c, 6, 11, 115
9, 112163, Control_c, 6, 11, 116
9, 112169, Control_c, 6, 11, 117
9, 112174, Control_c, 6, 11, 118
9, 112180, Control_c, 6, 11, 119
9, 112185, Control_c, 6, 11, 120
9, 112191, Control_c, 6, 11, 121
9, 112196, Control_c, 6, 11, 122
9, 112202, Control_c, 6, 11, 123
9, 112207, Control_c, 6, 11, 124
9, 112213, Control_c, 6, 11, 125
9, 112218, Control_c, 6, 11, 126
9, 112224, Note_on_c, 6, 58, 0
9, 112224, Control_c, 6, 11, 127
9, 112224, Note_on_c, 6, 63, 112
9, 112480, Note_on_c, 6, 63, 0
9, 112512, Control_c, 6, 11, 127
9, 112512, Note_on_c, 6, 60, 106
9, 112514, Control_c, 6, 11, 126
9, 112517, Control_c, 6, 11, 125
9, 112520, Control_c, 6, 11, 124
9, 112522, Control_c, 6, 11, 123
9, 112525, Control_c, 6, 11, 122
9, 112528, Control_c, 6, 11, 121
9, 112531, Control_c, 6, 11, 120
9, 112533, Control_c, 6, 11, 119
9, 112536, Control_c, 6, 11, 118
9, 112539, Control_c, 6, 11, 117
9, 112542, Control_c, 6, 11, 116
9, 112544, Control_c, 6, 11, 115
9, 112547, Control_c, 6, 11, 114
9, 112550, Control_c, 6, 11, 113
9, 112553, Control_c, 6, 11, 112
9, 112555, Control_c, 6, 11, 111
9, 112558, Control_c, 6, 11, 110
9, 112561, Control_c, 6, 11, 109
9, 112564, Control_c, 6, 11, 108
9, 112566, Control_c, 6, 11, 107
9, 112569, Control_c, 6, 11, 106
9, 112572, Control_c, 6, 11, 105
9, 112575, Control_c, 6, 11, 104
9, 112577, Control_c, 6, 11, 103
9, 112580, Control_c, 6, 11, 102
9, 112583, Control_c, 6, 11, 101
9, 112586, Control_c, 6, 11, 100
9, 112588, Control_c, 6, 11, 99
9, 112591, Control_c, 6, 11, 98
9, 112594, Control_c, 6, 11, 97
9, 112597, Control_c, 6, 11, 96
9, 112599, Control_c, 6, 11, 95
9, 112602, Control_c, 6, 11, 94
9, 112605, Control_c, 6, 11, 93
9, 112608, Note_on_c, 6, 60, 0
9, 112608, Control_c, 6, 11, 92
9, 112608, Note_on_c, 6, 58, 111
9, 112768, Note_on_c, 6, 58, 0
9, 114336, Note_on_c, 6, 56, 113
9, 114336, Note_on_c, 6, 62, 112
9, 114912, Control_c, 6, 11, 92
9, 114928, Control_c, 6, 11, 93
9, 114944, Control_c, 6, 11, 94
9, 114961, Control_c, 6, 11, 95
9, 114977, Control_c, 6, 11, 96
9, 114994, Control_c, 6, 11, 97
9, 115010, Control_c, 6, 11, 98
9, 115027, Control_c, 6, 11, 99
9, 115043, Control_c, 6, 11, 100
9, 115060, Control_c, 6, 11, 101
9, 115076, Control_c, 6, 11, 102
9, 115093, Control_c, 6, 11, 103
9, 115109, Control_c, 6, 11, 104
9, 115125, Control_c, 6, 11, 105
9, 115142, Control_c, 6, 11, 106
9, 115158, Control_c, 6, 11, 107
9, 115175, Control_c, 6, 11, 108
9, 115191, Control_c, 6, 11, 109
9, 115208, Control_c, 6, 11, 110
9, 115224, Control_c, 6, 11, 111
9, 115241, Control_c, 6, 11, 112
9, 115257, Control_c, 6, 11, 113
9, 115274, Control_c, 6, 11, 114
9, 115290, Control_c, 6, 11, 115
9, 115306, Control_c, 6, 11, 116
9, 115323, Control_c, 6, 11, 117
9, 115339, Control_c, 6, 11, 118
9, 115356, Control_c, 6, 11, 119
9, 115372, Control_c, 6, 11, 120
9, 115389, Control_c, 6, 11, 121
9, 115405, Control_c, 6, 11, 122
9, 115422, Control_c, 6, 11, 123
9, 115438, Control_c, 6, 11, 124
9, 115440, Note_on_c, 6, 56, 0
9, 115440, Note_on_c, 6, 62, 0
9, 115455, Control_c, 6, 11, 125
9, 115471, Control_c, 6, 11, 126
9, 115488, Control_c, 6, 11, 127
9, 115488, Control_c, 6, 11, 92
9, 115488, Note_on_c, 6, 53, 105
9, 115488, Note_on_c, 6, 58, 107
9, 115504, Control_c, 6, 11, 93
9, 115520, Control_c, 6, 11, 94
9, 115537, Control_c, 6, 11, 95
9, 115553, Control_c, 6, 11, 96
9, 115570, Control_c, 6, 11, 97
9, 115586, Control_c, 6, 11, 98
9, 115603, Control_c, 6, 11, 99
9, 115619, Control_c, 6, 11, 100
9, 115636, Control_c, 6, 11, 101
9, 115652, Control_c, 6, 11, 102
9, 115669, Control_c, 6, 11, 103
9, 115685, Control_c, 6, 11, 104
9, 115701, Control_c, 6, 11, 105
9, 115718, Control_c, 6, 11, 106
9, 115734, Control_c, 6, 11, 107
9, 115751, Control_c, 6, 11, 108
9, 115767, Control_c, 6, 11, 109
9, 115784, Control_c, 6, 11, 110
9, 115800, Control_c, 6, 11, 111
9, 115817, Control_c, 6, 11, 112
9, 115833, Control_c, 6, 11, 113
9, 115850, Control_c, 6, 11, 114
9, 115866, Control_c, 6, 11, 115
9, 115882, Control_c, 6, 11, 116
9, 115899, Control_c, 6, 11, 117
9, 115915, Control_c, 6, 11, 118
9, 115932, Control_c, 6, 11, 119
9, 115948, Control_c, 6, 11, 120
9, 115965, Control_c, 6, 11, 121
9, 115981, Control_c, 6, 11, 122
9, 115998, Control_c, 6, 11, 123
9, 116014, Control_c, 6, 11, 124
9, 116016, Note_on_c, 6, 53, 0
9, 116016, Note_on_c, 6, 58, 0
9, 116031, Control_c, 6, 11, 125
9, 116047, Control_c, 6, 11, 126
9, 116064, Control_c, 6, 11, 127
9, 116064, Note_on_c, 6, 56, 110
9, 116064, Note_on_c, 6, 62, 107
9, 116592, Note_on_c, 6, 56, 0
9, 116592, Note_on_c, 6, 62, 0
9, 116640, Note_on_c, 6, 58, 110
9, 116640, Note_on_c, 6, 68, 111
9, 117166, Note_on_c, 6, 68, 0
9, 117168, Note_on_c, 6, 70, 106
9, 117214, Note_on_c, 6, 70, 0
9, 117216, Note_on_c, 6, 68, 111
9, 118896, Note_on_c, 6, 58, 0
9, 118896, Note_on_c, 6, 68, 0
9, 122400, Control_c, 6, 11, 127
9, 122976, Control_c, 6, 11, 127
9, 122976, Note_on_c, 6, 57, 43
9, 123552, Note_on_c, 6, 57, 0
9, 123552, Note_on_c, 6, 58, 45
9, 124128, Control_c, 6, 11, 64
9, 124656, Note_on_c, 6, 58, 0
9, 125856, Control_c, 6, 11, 92
9, 125856, Note_on_c, 6, 60, 58
9, 125872, Control_c, 6, 11, 93
9, 125888, Control_c, 6, 11, 94
9, 125905, Control_c, 6, 11, 95
9, 125921, Control_c, 6, 11, 96
9, 125938, Control_c, 6, 11, 97
9, 125954, Control_c, 6, 11, 98
9, 125971, Control_c, 6, 11, 99
9, 125987, Control_c, 6, 11, 100
9, 126004, Control_c, 6, 11, 101
9, 126020, Control_c, 6, 11, 102
9, 126037, Control_c, 6, 11, 103
9, 126053, Control_c, 6, 11, 104
9, 126069, Control_c, 6, 11, 105
9, 126086, Control_c, 6, 11, 106
9, 126102, Control_c, 6, 11, 107
9, 126119, Control_c, 6, 11, 108
9, 126135, Control_c, 6, 11, 109
9, 126152, Control_c, 6, 11, 110
9, 126168, Control_c, 6, 11, 111
9, 126185, Control_c, 6, 11, 112
9, 126201, Control_c, 6, 11, 113
9, 126218, Control_c, 6, 11, 114
9, 126234, Control_c, 6, 11, 115
9, 126250, Control_c, 6, 11, 116
9, 126267, Control_c, 6, 11, 117
9, 126283, Control_c, 6, 11, 118
9, 126300, Control_c, 6, 11, 119
9, 126316, Control_c, 6, 11, 120
9, 126333, Control_c, 6, 11, 121
9, 126349, Control_c, 6, 11, 122
9, 126366, Control_c, 6, 11, 123
9, 126382, Control_c, 6, 11, 124
9, 126399, Control_c, 6, 11, 125
9, 126415, Control_c, 6, 11, 126
9, 126432, Note_on_c, 6, 60, 0
9, 126432, Control_c, 6, 11, 127
9, 126432, Note_on_c, 6, 63, 59
9, 126448, Control_c, 6, 11, 126
9, 126464, Control_c, 6, 11, 125
9, 126481, Control_c, 6, 11, 124
9, 126497, Control_c, 6, 11, 123
9, 126514, Control_c, 6, 11, 122
9, 126530, Control_c, 6, 11, 121
9, 126547, Control_c, 6, 11, 120
9, 126563, Control_c, 6, 11, 119
9, 126580, Control_c, 6, 11, 118
9, 126596, Control_c, 6, 11, 117
9, 126613, Control_c, 6, 11, 116
9, 126629, Control_c, 6, 11, 115
9, 126645, Control_c, 6, 11, 114
9, 126662, Control_c, 6, 11, 113
9, 126678, Control_c, 6, 11, 112
9, 126695, Control_c, 6, 11, 111
9, 126711, Control_c, 6, 11, 110
9, 126728, Control_c, 6, 11, 109
9, 126744, Control_c, 6, 11, 108
9, 126761, Control_c, 6, 11, 107
9, 126777, Control_c, 6, 11, 106
9, 126794, Control_c, 6, 11, 105
9, 126810, Control_c, 6, 11, 104
9, 126826, Control_c, 6, 11, 103
9, 126843, Control_c, 6, 11, 102
9, 126859, Control_c, 6, 11, 101
9, 126876, Control_c, 6, 11, 100
9, 126892, Control_c, 6, 11, 99
9, 126909, Control_c, 6, 11, 98
9, 126925, Control_c, 6, 11, 97
9, 126942, Control_c, 6, 11, 96
9, 126958, Control_c, 6, 11, 95
9, 126960, Note_on_c, 6, 63, 0
9, 126975, Control_c, 6, 11, 94
9, 126991, Control_c, 6, 11, 93
9, 127008, Control_c, 6, 11, 92
9, 127008, Control_c, 6, 11, 92
9, 127008, Note_on_c, 6, 60, 63
9, 127024, Control_c, 6, 11, 93
9, 127040, Control_c, 6, 11, 94
9, 127057, Control_c, 6, 11, 95
9, 127073, Control_c, 6, 11, 96
9, 127090, Control_c, 6, 11, 97
9, 127106, Control_c, 6, 11, 98
9, 127123, Control_c, 6, 11, 99
9, 127139, Control_c, 6, 11, 100
9, 127156, Control_c, 6, 11, 101
9, 127172, Control_c, 6, 11, 102
9, 127189, Control_c, 6, 11, 103
9, 127205, Control_c, 6, 11, 104
9, 127221, Control_c, 6, 11, 105
9, 127238, Control_c, 6, 11, 106
9, 127254, Control_c, 6, 11, 107
9, 127271, Control_c, 6, 11, 108
9, 127287, Control_c, 6, 11, 109
9, 127304, Control_c, 6, 11, 110
9, 127320, Control_c, 6, 11, 111
9, 127337, Control_c, 6, 11, 112
9, 127353, Control_c, 6, 11, 113
9, 127370, Control_c, 6, 11, 114
9, 127386, Control_c, 6, 11, 115
9, 127402, Control_c, 6, 11, 116
9, 127419, Control_c, 6, 11, 117
9, 127435, Control_c, 6, 11, 118
9, 127452, Control_c, 6, 11, 119
9, 127468, Control_c, 6, 11, 120
9, 127485, Control_c, 6, 11, 121
9, 127501, Control_c, 6, 11, 122
9, 127518, Control_c, 6, 11, 123
9, 127534, Control_c, 6, 11, 124
9, 127551, Control_c, 6, 11, 125
9, 127567, Control_c, 6, 11, 126
9, 127584, Note_on_c, 6, 60, 0
9, 127584, Control_c, 6, 11, 127
9, 127584, Note_on_c, 6, 63, 65
9, 127600, Control_c, 6, 11, 126
9, 127616, Control_c, 6, 11, 125
9, 127633, Control_c, 6, 11, 124
9, 127649, Control_c, 6, 11, 123
9, 127666, Control_c, 6, 11, 122
9, 127682, Control_c, 6, 11, 121
9, 127699, Control_c, 6, 11, 120
9, 127715, Control_c, 6, 11, 119
9, 127732, Control_c, 6, 11, 118
9, 127748, Control_c, 6, 11, 117
9, 127765, Control_c, 6, 11, 116
9, 127781, Control_c, 6, 11, 115
9, 127797, Control_c, 6, 11, 114
9, 127814, Control_c, 6, 11, 113
9, 127830, Control_c, 6, 11, 112
9, 127847, Control_c, 6, 11, 111
9, 127863, Control_c, 6, 11, 110
9, 127880, Control_c, 6, 11, 109
9, 127896, Control_c, 6, 11, 108
9, 127913, Control_c, 6, 11, 107
9, 127929, Control_c, 6, 11, 106
9, 127946, Control_c, 6, 11, 105
9, 127962, Control_c, 6, 11, 104
9, 127978, Control_c, 6, 11, 103
9, 127995, Control_c, 6, 11, 102
9, 128011, Control_c, 6, 11, 101
9, 128028, Control_c, 6, 11, 100
9, 128044, Control_c, 6, 11, 99
9, 128061, Control_c, 6, 11, 98
9, 128077, Control_c, 6, 11, 97
9, 128094, Control_c, 6, 11, 96
9, 128110, Control_c, 6, 11, 95
9, 128112, Note_on_c, 6, 63, 0
9, 128127, Control_c, 6, 11, 94
9, 128143, Control_c, 6, 11, 93
9, 128160, Control_c, 6, 11, 92
9, 129312, Note_on_c, 6, 35, 35
9, 131568, Note_on_c, 6, 35, 0
9, 131616, Note_on_c, 6, 35, 30
9, 134080, Note_on_c, 6, 35, 0
9, 134080, End_track
10, 0, Start_track
10, 0, Title_t, "Trombe I - II - III"
10, 0, MIDI_port, 0
10, 134, Control_c, 7, 0, 0
10, 135, Control_c, 7, 32, 0
10, 136, Program_c, 7, 56
10, 137, Control_c, 7, 7, 127
10, 138, Control_c, 7, 10, 74
10, 139, Control_c, 7, 91, 127
10, 4608, Program_c, 7, 59
10, 5184, Note_on_c, 7, 60, 41
10, 5205, Note_on_c, 7, 60, 0
10, 5216, Note_on_c, 7, 60, 42
10, 5237, Note_on_c, 7, 60, 0
10, 5248, Note_on_c, 7, 60, 48
10, 5269, Note_on_c, 7, 60, 0
10, 5280, Note_on_c, 7, 60, 56
10, 5301, Note_on_c, 7, 60, 0
10, 5312, Note_on_c, 7, 60, 58
10, 5333, Note_on_c, 7, 60, 0
10, 5344, Note_on_c, 7, 60, 64
10, 5365, Note_on_c, 7, 60, 0
10, 5376, Note_on_c, 7, 60, 49
10, 5397, Note_on_c, 7, 60, 0
10, 5408, Note_on_c, 7, 60, 40
10, 5429, Note_on_c, 7, 60, 0
10, 5440, Note_on_c, 7, 60, 50
10, 5461, Note_on_c, 7, 60, 0
10, 5472, Note_on_c, 7, 60, 54
10, 5493, Note_on_c, 7, 60, 0
10, 5504, Note_on_c, 7, 60, 58
10, 5525, Note_on_c, 7, 60, 0
10, 5536, Note_on_c, 7, 60, 62
10, 5557, Note_on_c, 7, 60, 0
10, 5568, Note_on_c, 7, 60, 40
10, 5589, Note_on_c, 7, 60, 0
10, 5600, Note_on_c, 7, 60, 47
10, 5621, Note_on_c, 7, 60, 0
10, 5632, Note_on_c, 7, 60, 48
10, 5653, Note_on_c, 7, 60, 0
10, 5664, Note_on_c, 7, 60, 49
10, 5685, Note_on_c, 7, 60, 0
10, 5696, Note_on_c, 7, 60, 61
10, 5717, Note_on_c, 7, 60, 0
10, 5728, Note_on_c, 7, 60, 57
10, 5749, Note_on_c, 7, 60, 0
10, 5760, Note_on_c, 7, 60, 65
10, 5854, Note_on_c, 7, 60, 0
10, 11712, Note_on_c, 7, 61, 112
10, 11712, Note_on_c, 7, 64, 111
10, 11712, Note_on_c, 7, 68, 113
10, 11733, Note_on_c, 7, 61, 0
10, 11733, Note_on_c, 7, 64, 0
10, 11733, Note_on_c, 7, 68, 0
10, 11744, Note_on_c, 7, 64, 109
10, 11744, Note_on_c, 7, 68, 110
10, 11744, Note_on_c, 7, 73, 105
10, 11765, Note_on_c, 7, 64, 0
10, 11765, Note_on_c, 7, 68, 0
10, 11765, Note_on_c, 7, 73, 0
10, 11776, Note_on_c, 7, 68, 127
10, 11776, Note_on_c, 7, 73, 125
10, 11776, Note_on_c, 7, 76, 127
10, 11797, Note_on_c, 7, 68, 0
10, 11797, Note_on_c, 7, 73, 0
10, 11797, Note_on_c, 7, 76, 0
10, 12288, Note_on_c, 7, 60, 109
10, 12288, Note_on_c, 7, 64, 106
10, 12288, Note_on_c, 7, 68, 105
10, 12309, Note_on_c, 7, 60, 0
10, 12309, Note_on_c, 7, 64, 0
10, 12309, Note_on_c, 7, 68, 0
10, 12320, Note_on_c, 7, 64, 113
10, 12320, Note_on_c, 7, 68, 110
10, 12320, Note_on_c, 7, 72, 105
10, 12341, Note_on_c, 7, 64, 0
10, 12341, Note_on_c, 7, 68, 0
10, 12341, Note_on_c, 7, 72, 0
10, 12352, Note_on_c, 7, 68, 125
10, 12352, Note_on_c, 7, 72, 125
10, 12352, Note_on_c, 7, 76, 127
10, 12373, Note_on_c, 7, 68, 0
10, 12373, Note_on_c, 7, 72, 0
10, 12373, Note_on_c, 7, 76, 0
10, 34368, Control_c, 7, 11, 92
10, 34368, Note_on_c, 7, 72, 103
10, 34368, Note_on_c, 7, 74, 111
10, 34370, Control_c, 7, 11, 93
10, 34373, Control_c, 7, 11, 94
10, 34376, Control_c, 7, 11, 95
10, 34378, Control_c, 7, 11, 96
10, 34381, Control_c, 7, 11, 97
10, 34384, Control_c, 7, 11, 98
10, 34387, Control_c, 7, 11, 99
10, 34389, Control_c, 7, 11, 100
10, 34392, Control_c, 7, 11, 101
10, 34395, Control_c, 7, 11, 102
10, 34398, Control_c, 7, 11, 103
10, 34400, Note_on_c, 7, 74, 0
10, 34400, Control_c, 7, 11, 104
10, 34403, Control_c, 7, 11, 105
10, 34406, Control_c, 7, 11, 106
10, 34409, Control_c, 7, 11, 107
10, 34411, Control_c, 7, 11, 108
10, 34414, Control_c, 7, 11, 109
10, 34416, Note_on_c, 7, 76, 111
10, 34417, Control_c, 7, 11, 110
10, 34420, Control_c, 7, 11, 111
10, 34422, Control_c, 7, 11, 112
10, 34425, Control_c, 7, 11, 113
10, 34428, Control_c, 7, 11, 114
10, 34431, Control_c, 7, 11, 115
10, 34433, Control_c, 7, 11, 116
10, 34436, Control_c, 7, 11, 117
10, 34439, Control_c, 7, 11, 118
10, 34442, Control_c, 7, 11, 119
10, 34444, Control_c, 7, 11, 120
10, 34447, Control_c, 7, 11, 121
10, 34448, Note_on_c, 7, 76, 0
10, 34450, Control_c, 7, 11, 122
10, 34453, Control_c, 7, 11, 123
10, 34455, Control_c, 7, 11, 124
10, 34458, Control_c, 7, 11, 125
10, 34461, Control_c, 7, 11, 126
10, 34464, Control_c, 7, 11, 127
10, 34464, Note_on_c, 7, 74, 113
10, 34750, Note_on_c, 7, 72, 0
10, 34750, Note_on_c, 7, 74, 0
10, 34944, Control_c, 7, 11, 92
10, 34944, Note_on_c, 7, 72, 111
10, 34944, Note_on_c, 7, 74, 112
10, 34946, Control_c, 7, 11, 93
10, 34949, Control_c, 7, 11, 94
10, 34952, Control_c, 7, 11, 95
10, 34954, Control_c, 7, 11, 96
10, 34957, Control_c, 7, 11, 97
10, 34960, Control_c, 7, 11, 98
10, 34963, Control_c, 7, 11, 99
10, 34965, Control_c, 7, 11, 100
10, 34968, Control_c, 7, 11, 101
10, 34971, Control_c, 7, 11, 102
10, 34974, Control_c, 7, 11, 103
10, 34976, Note_on_c, 7, 74, 0
10, 34976, Control_c, 7, 11, 104
10, 34979, Control_c, 7, 11, 105
10, 34982, Control_c, 7, 11, 106
10, 34985, Control_c, 7, 11, 107
10, 34987, Control_c, 7, 11, 108
10, 34990, Control_c, 7, 11, 109
10, 34992, Note_on_c, 7, 76, 109
10, 34993, Control_c, 7, 11, 110
10, 34996, Control_c, 7, 11, 111
10, 34998, Control_c, 7, 11, 112
10, 35001, Control_c, 7, 11, 113
10, 35004, Control_c, 7, 11, 114
10, 35007, Control_c, 7, 11, 115
10, 35009, Control_c, 7, 11, 116
10, 35012, Control_c, 7, 11, 117
10, 35015, Control_c, 7, 11, 118
10, 35018, Control_c, 7, 11, 119
10, 35020, Control_c, 7, 11, 120
10, 35023, Control_c, 7, 11, 121
10, 35024, Note_on_c, 7, 76, 0
10, 35026, Control_c, 7, 11, 122
10, 35029, Control_c, 7, 11, 123
10, 35031, Control_c, 7, 11, 124
10, 35034, Control_c, 7, 11, 125
10, 35037, Control_c, 7, 11, 126
10, 35040, Control_c, 7, 11, 127
10, 35040, Note_on_c, 7, 74, 104
10, 35326, Note_on_c, 7, 72, 0
10, 35326, Note_on_c, 7, 74, 0
10, 45792, Program_c, 7, 56
10, 45792, Note_on_c, 7, 73, 34
10, 47472, Note_on_c, 7, 73, 0
10, 47520, Note_on_c, 7, 73, 32
10, 48048, Note_on_c, 7, 73, 0
10, 52896, Control_c, 7, 11, 127
10, 52896, Note_on_c, 7, 76, 93
10, 52896, Note_on_c, 7, 79, 91
10, 52928, Note_on_c, 7, 76, 0
10, 52928, Note_on_c, 7, 79, 0
10, 52992, Note_on_c, 7, 76, 95
10, 52992, Note_on_c, 7, 79, 91
10, 53013, Note_on_c, 7, 76, 0
10, 53013, Note_on_c, 7, 79, 0
10, 53024, Note_on_c, 7, 76, 92
10, 53024, Note_on_c, 7, 79, 87
10, 53045, Note_on_c, 7, 76, 0
10, 53045, Note_on_c, 7, 79, 0
10, 53056, Note_on_c, 7, 76, 87
10, 53056, Note_on_c, 7, 79, 94
10, 53077, Note_on_c, 7, 76, 0
10, 53077, Note_on_c, 7, 79, 0
10, 53088, Note_on_c, 7, 76, 87
10, 53088, Note_on_c, 7, 79, 97
10, 53120, Note_on_c, 7, 76, 0
10, 53120, Note_on_c, 7, 79, 0
10, 53472, Note_on_c, 7, 76, 43
10, 53472, Note_on_c, 7, 79, 49
10, 53504, Note_on_c, 7, 76, 0
10, 53504, Note_on_c, 7, 79, 0
10, 53568, Note_on_c, 7, 76, 42
10, 53568, Note_on_c, 7, 79, 43
10, 53589, Note_on_c, 7, 76, 0
10, 53589, Note_on_c, 7, 79, 0
10, 53600, Note_on_c, 7, 76, 45
10, 53600, Note_on_c, 7, 79, 48
10, 53621, Note_on_c, 7, 76, 0
10, 53621, Note_on_c, 7, 79, 0
10, 53632, Note_on_c, 7, 76, 43
10, 53632, Note_on_c, 7, 79, 42
10, 53653, Note_on_c, 7, 76, 0
10, 53653, Note_on_c, 7, 79, 0
10, 53664, Note_on_c, 7, 76, 50
10, 53664, Note_on_c, 7, 79, 43
10, 53696, Note_on_c, 7, 76, 0
10, 53696, Note_on_c, 7, 79, 0
10, 54240, Note_on_c, 7, 67, 29
10, 54240, Note_on_c, 7, 70, 29
10, 54261, Note_on_c, 7, 67, 0
10, 54261, Note_on_c, 7, 70, 0
10, 54272, Note_on_c, 7, 67, 26
10, 54272, Note_on_c, 7, 70, 31
10, 54293, Note_on_c, 7, 67, 0
10, 54293, Note_on_c, 7, 70, 0
10, 54304, Note_on_c, 7, 69, 26
10, 54304, Note_on_c, 7, 72, 32
10, 54325, Note_on_c, 7, 69, 0
10, 54325, Note_on_c, 7, 72, 0
10, 54336, Note_on_c, 7, 70, 28
10, 54336, Note_on_c, 7, 74, 31
10, 54357, Note_on_c, 7, 70, 0
10, 54357, Note_on_c, 7, 74, 0
10, 54368, Note_on_c, 7, 70, 27
10, 54368, Note_on_c, 7, 74, 19
10, 54389, Note_on_c, 7, 70, 0
10, 54389, Note_on_c, 7, 74, 0
10, 54400, Note_on_c, 7, 72, 24
10, 54400, Note_on_c, 7, 77, 16
10, 54421, Note_on_c, 7, 72, 0
10, 54421, Note_on_c, 7, 77, 0
10, 54816, Note_on_c, 7, 67, 27
10, 54816, Note_on_c, 7, 70, 26
10, 54837, Note_on_c, 7, 67, 0
10, 54837, Note_on_c, 7, 70, 0
10, 54848, Note_on_c, 7, 67, 27
10, 54848, Note_on_c, 7, 70, 29
10, 54869, Note_on_c, 7, 67, 0
10, 54869, Note_on_c, 7, 70, 0
10, 54880, Note_on_c, 7, 69, 24
10, 54880, Note_on_c, 7, 72, 29
10, 54901, Note_on_c, 7, 69, 0
10, 54901, Note_on_c, 7, 72, 0
10, 54912, Note_on_c, 7, 70, 26
10, 54912, Note_on_c, 7, 74, 26
10, 54933, Note_on_c, 7, 70, 0
10, 54933, Note_on_c, 7, 74, 0
10, 54944, Note_on_c, 7, 70, 24
10, 54944, Note_on_c, 7, 74, 27
10, 54965, Note_on_c, 7, 70, 0
10, 54965, Note_on_c, 7, 74, 0
10, 54976, Note_on_c, 7, 72, 19
10, 54976, Note_on_c, 7, 77, 21
10, 54997, Note_on_c, 7, 72, 0
10, 54997, Note_on_c, 7, 77, 0
10, 55392, Note_on_c, 7, 67, 28
10, 55392, Note_on_c, 7, 70, 26
10, 55413, Note_on_c, 7, 67, 0
10, 55413, Note_on_c, 7, 70, 0
10, 55424, Note_on_c, 7, 67, 34
10, 55424, Note_on_c, 7, 70, 35
10, 55445, Note_on_c, 7, 67, 0
10, 55445, Note_on_c, 7, 70, 0
10, 55456, Note_on_c, 7, 68, 30
10, 55456, Note_on_c, 7, 72, 37
10, 55477, Note_on_c, 7, 68, 0
10, 55477, Note_on_c, 7, 72, 0
10, 55488, Note_on_c, 7, 70, 39
10, 55488, Note_on_c, 7, 73, 33
10, 55509, Note_on_c, 7, 70, 0
10, 55509, Note_on_c, 7, 73, 0
10, 55520, Note_on_c, 7, 70, 44
10, 55520, Note_on_c, 7, 73, 40
10, 55541, Note_on_c, 7, 70, 0
10, 55541, Note_on_c, 7, 73, 0
10, 55552, Note_on_c, 7, 72, 41
10, 55552, Note_on_c, 7, 75, 48
10, 55573, Note_on_c, 7, 72, 0
10, 55573, Note_on_c, 7, 75, 0
10, 55968, Note_on_c, 7, 67, 26
10, 55968, Note_on_c, 7, 70, 26
10, 55989, Note_on_c, 7, 67, 0
10, 55989, Note_on_c, 7, 70, 0
10, 56000, Note_on_c, 7, 67, 25
10, 56000, Note_on_c, 7, 70, 26
10, 56021, Note_on_c, 7, 67, 0
10, 56021, Note_on_c, 7, 70, 0
10, 56032, Note_on_c, 7, 68, 32
10, 56032, Note_on_c, 7, 72, 37
10, 56053, Note_on_c, 7, 68, 0
10, 56053, Note_on_c, 7, 72, 0
10, 56064, Note_on_c, 7, 70, 34
10, 56064, Note_on_c, 7, 73, 41
10, 56085, Note_on_c, 7, 70, 0
10, 56085, Note_on_c, 7, 73, 0
10, 56096, Note_on_c, 7, 70, 43
10, 56096, Note_on_c, 7, 73, 37
10, 56117, Note_on_c, 7, 70, 0
10, 56117, Note_on_c, 7, 73, 0
10, 56128, Note_on_c, 7, 72, 41
10, 56128, Note_on_c, 7, 75, 47
10, 56149, Note_on_c, 7, 72, 0
10, 56149, Note_on_c, 7, 75, 0
10, 56544, Note_on_c, 7, 67, 32
10, 56544, Note_on_c, 7, 70, 26
10, 56565, Note_on_c, 7, 67, 0
10, 56565, Note_on_c, 7, 70, 0
10, 56576, Note_on_c, 7, 67, 25
10, 56576, Note_on_c, 7, 70, 31
10, 56597, Note_on_c, 7, 67, 0
10, 56597, Note_on_c, 7, 70, 0
10, 56608, Note_on_c, 7, 69, 31
10, 56608, Note_on_c, 7, 72, 26
10, 56629, Note_on_c, 7, 69, 0
10, 56629, Note_on_c, 7, 72, 0
10, 56640, Note_on_c, 7, 70, 28
10, 56640, Note_on_c, 7, 74, 32
10, 56661, Note_on_c, 7, 70, 0
10, 56661, Note_on_c, 7, 74, 0
10, 56672, Note_on_c, 7, 70, 35
10, 56672, Note_on_c, 7, 74, 26
10, 56693, Note_on_c, 7, 70, 0
10, 56693, Note_on_c, 7, 74, 0
10, 56704, Note_on_c, 7, 72, 35
10, 56704, Note_on_c, 7, 76, 26
10, 56725, Note_on_c, 7, 72, 0
10, 56725, Note_on_c, 7, 76, 0
10, 57120, Note_on_c, 7, 67, 35
10, 57120, Note_on_c, 7, 70, 34
10, 57141, Note_on_c, 7, 67, 0
10, 57141, Note_on_c, 7, 70, 0
10, 57152, Note_on_c, 7, 67, 32
10, 57152, Note_on_c, 7, 70, 34
10, 57173, Note_on_c, 7, 67, 0
10, 57173, Note_on_c, 7, 70, 0
10, 57184, Note_on_c, 7, 69, 27
10, 57184, Note_on_c, 7, 72, 33
10, 57205, Note_on_c, 7, 69, 0
10, 57205, Note_on_c, 7, 72, 0
10, 57216, Note_on_c, 7, 70, 31
10, 57216, Note_on_c, 7, 74, 25
10, 57237, Note_on_c, 7, 70, 0
10, 57237, Note_on_c, 7, 74, 0
10, 57248, Note_on_c, 7, 70, 34
10, 57248, Note_on_c, 7, 74, 29
10, 57269, Note_on_c, 7, 70, 0
10, 57269, Note_on_c, 7, 74, 0
10, 57280, Note_on_c, 7, 72, 33
10, 57280, Note_on_c, 7, 76, 31
10, 57301, Note_on_c, 7, 72, 0
10, 57301, Note_on_c, 7, 76, 0
10, 64032, Control_c, 7, 11, 75
10, 64032, Note_on_c, 7, 73, 97
10, 64057, Control_c, 7, 11, 76
10, 64083, Control_c, 7, 11, 77
10, 64109, Control_c, 7, 11, 78
10, 64135, Control_c, 7, 11, 79
10, 64161, Control_c, 7, 11, 80
10, 64187, Control_c, 7, 11, 81
10, 64212, Control_c, 7, 11, 82
10, 64238, Control_c, 7, 11, 83
10, 64264, Control_c, 7, 11, 84
10, 64290, Control_c, 7, 11, 85
10, 64316, Control_c, 7, 11, 86
10, 64342, Control_c, 7, 11, 87
10, 64367, Control_c, 7, 11, 88
10, 64368, Note_on_c, 7, 73, 0
10, 64368, Note_on_c, 7, 75, 92
10, 64393, Control_c, 7, 11, 89
10, 64416, Note_on_c, 7, 75, 0
10, 64416, Note_on_c, 7, 73, 94
10, 64419, Control_c, 7, 11, 90
10, 64445, Control_c, 7, 11, 91
10, 64471, Control_c, 7, 11, 92
10, 64497, Control_c, 7, 11, 93
10, 64523, Control_c, 7, 11, 94
10, 64548, Control_c, 7, 11, 95
10, 64574, Control_c, 7, 11, 96
10, 64600, Control_c, 7, 11, 97
10, 64608, Note_on_c, 7, 73, 0
10, 64608, Note_on_c, 7, 77, 89
10, 64626, Control_c, 7, 11, 98
10, 64652, Control_c, 7, 11, 99
10, 64678, Control_c, 7, 11, 100
10, 64703, Control_c, 7, 11, 101
10, 64729, Control_c, 7, 11, 102
10, 64755, Control_c, 7, 11, 103
10, 64768, Note_on_c, 7, 77, 0
10, 64781, Control_c, 7, 11, 104
10, 64800, Note_on_c, 7, 80, 93
10, 64807, Control_c, 7, 11, 105
10, 64833, Control_c, 7, 11, 106
10, 64859, Control_c, 7, 11, 107
10, 64884, Control_c, 7, 11, 108
10, 64910, Control_c, 7, 11, 109
10, 64936, Control_c, 7, 11, 110
10, 64962, Control_c, 7, 11, 111
10, 64988, Control_c, 7, 11, 112
10, 65014, Control_c, 7, 11, 113
10, 65039, Control_c, 7, 11, 114
10, 65056, Note_on_c, 7, 80, 0
10, 65065, Control_c, 7, 11, 115
10, 65088, Note_on_c, 7, 76, 94
10, 65091, Control_c, 7, 11, 116
10, 65117, Control_c, 7, 11, 117
10, 65120, Note_on_c, 7, 76, 0
10, 65143, Control_c, 7, 11, 118
10, 65169, Control_c, 7, 11, 119
10, 65184, Note_on_c, 7, 75, 90
10, 65195, Control_c, 7, 11, 120
10, 65216, Note_on_c, 7, 75, 0
10, 65220, Control_c, 7, 11, 121
10, 65246, Control_c, 7, 11, 122
10, 65272, Control_c, 7, 11, 123
10, 65280, Note_on_c, 7, 73, 97
10, 65298, Control_c, 7, 11, 124
10, 65312, Note_on_c, 7, 73, 0
10, 65324, Control_c, 7, 11, 125
10, 65350, Control_c, 7, 11, 126
10, 65376, Control_c, 7, 11, 127
10, 65376, Note_on_c, 7, 71, 90
10, 65422, Note_on_c, 7, 71, 0
10, 65424, Note_on_c, 7, 68, 92
10, 65458, Note_on_c, 7, 68, 0
10, 65460, Note_on_c, 7, 71, 98
10, 65494, Note_on_c, 7, 71, 0
10, 65496, Note_on_c, 7, 73, 103
10, 65530, Note_on_c, 7, 73, 0
10, 65532, Note_on_c, 7, 75, 100
10, 65566, Note_on_c, 7, 75, 0
10, 65568, Note_on_c, 7, 77, 106
10, 65952, Control_c, 7, 11, 127
10, 65962, Control_c, 7, 11, 126
10, 65973, Control_c, 7, 11, 125
10, 65984, Control_c, 7, 11, 124
10, 65995, Control_c, 7, 11, 123
10, 66005, Control_c, 7, 11, 122
10, 66016, Control_c, 7, 11, 121
10, 66027, Control_c, 7, 11, 120
10, 66038, Control_c, 7, 11, 119
10, 66048, Control_c, 7, 11, 118
10, 66059, Control_c, 7, 11, 117
10, 66070, Control_c, 7, 11, 116
10, 66081, Control_c, 7, 11, 115
10, 66091, Control_c, 7, 11, 114
10, 66102, Control_c, 7, 11, 113
10, 66113, Control_c, 7, 11, 112
10, 66124, Control_c, 7, 11, 111
10, 66135, Control_c, 7, 11, 110
10, 66145, Control_c, 7, 11, 109
10, 66156, Control_c, 7, 11, 108
10, 66167, Control_c, 7, 11, 107
10, 66178, Control_c, 7, 11, 106
10, 66188, Control_c, 7, 11, 105
10, 66199, Control_c, 7, 11, 104
10, 66210, Control_c, 7, 11, 103
10, 66221, Control_c, 7, 11, 102
10, 66231, Control_c, 7, 11, 101
10, 66242, Control_c, 7, 11, 100
10, 66253, Control_c, 7, 11, 99
10, 66264, Control_c, 7, 11, 98
10, 66274, Control_c, 7, 11, 97
10, 66285, Control_c, 7, 11, 96
10, 66296, Control_c, 7, 11, 95
10, 66307, Control_c, 7, 11, 94
10, 66318, Control_c, 7, 11, 93
10, 66328, Control_c, 7, 11, 92
10, 66339, Control_c, 7, 11, 91
10, 66350, Control_c, 7, 11, 90
10, 66361, Control_c, 7, 11, 89
10, 66371, Control_c, 7, 11, 88
10, 66382, Control_c, 7, 11, 87
10, 66393, Control_c, 7, 11, 86
10, 66404, Control_c, 7, 11, 85
10, 66414, Control_c, 7, 11, 84
10, 66425, Control_c, 7, 11, 83
10, 66436, Control_c, 7, 11, 82
10, 66447, Control_c, 7, 11, 81
10, 66458, Control_c, 7, 11, 80
10, 66468, Control_c, 7, 11, 79
10, 66479, Control_c, 7, 11, 78
10, 66490, Control_c, 7, 11, 77
10, 66501, Control_c, 7, 11, 76
10, 66511, Control_c, 7, 11, 75
10, 66522, Control_c, 7, 11, 74
10, 66533, Control_c, 7, 11, 73
10, 66544, Control_c, 7, 11, 72
10, 66554, Control_c, 7, 11, 71
10, 66565, Control_c, 7, 11, 70
10, 66576, Control_c, 7, 11, 69
10, 66587, Control_c, 7, 11, 68
10, 66597, Control_c, 7, 11, 67
10, 66608, Control_c, 7, 11, 66
10, 66619, Control_c, 7, 11, 65
10, 66630, Control_c, 7, 11, 64
10, 66641, Control_c, 7, 11, 63
10, 66651, Control_c, 7, 11, 62
10, 66662, Control_c, 7, 11, 61
10, 66673, Control_c, 7, 11, 60
10, 66684, Control_c, 7, 11, 59
10, 66694, Control_c, 7, 11, 58
10, 66705, Control_c, 7, 11, 57
10, 66716, Control_c, 7, 11, 56
10, 66727, Control_c, 7, 11, 55
10, 66737, Control_c, 7, 11, 54
10, 66748, Control_c, 7, 11, 53
10, 66759, Control_c, 7, 11, 52
10, 66770, Control_c, 7, 11, 51
10, 66781, Control_c, 7, 11, 50
10, 66791, Control_c, 7, 11, 49
10, 66802, Control_c, 7, 11, 48
10, 66813, Control_c, 7, 11, 47
10, 66824, Control_c, 7, 11, 46
10, 66834, Control_c, 7, 11, 45
10, 66845, Control_c, 7, 11, 44
10, 66856, Control_c, 7, 11, 43
10, 66867, Control_c, 7, 11, 42
10, 66877, Control_c, 7, 11, 41
10, 66888, Control_c, 7, 11, 40
10, 66899, Control_c, 7, 11, 39
10, 66910, Control_c, 7, 11, 38
10, 66920, Control_c, 7, 11, 37
10, 66931, Control_c, 7, 11, 36
10, 66942, Control_c, 7, 11, 35
10, 66953, Control_c, 7, 11, 34
10, 66964, Control_c, 7, 11, 33
10, 66974, Control_c, 7, 11, 32
10, 66985, Control_c, 7, 11, 31
10, 66996, Control_c, 7, 11, 30
10, 67007, Control_c, 7, 11, 29
10, 67017, Control_c, 7, 11, 28
10, 67028, Control_c, 7, 11, 27
10, 67039, Control_c, 7, 11, 26
10, 67050, Control_c, 7, 11, 25
10, 67060, Control_c, 7, 11, 24
10, 67071, Control_c, 7, 11, 23
10, 67082, Control_c, 7, 11, 22
10, 67093, Control_c, 7, 11, 21
10, 67104, Control_c, 7, 11, 20
10, 67264, Note_on_c, 7, 77, 0
10, 67680, Control_c, 7, 11, 127
10, 71136, Control_c, 7, 11, 127
10, 71328, Note_on_c, 7, 72, 61
10, 71712, Control_c, 7, 11, 127
10, 71724, Control_c, 7, 11, 126
10, 71736, Control_c, 7, 11, 125
10, 71748, Control_c, 7, 11, 124
10, 71760, Control_c, 7, 11, 123
10, 71772, Control_c, 7, 11, 122
10, 71785, Control_c, 7, 11, 121
10, 71797, Control_c, 7, 11, 120
10, 71809, Control_c, 7, 11, 119
10, 71821, Control_c, 7, 11, 118
10, 71833, Control_c, 7, 11, 117
10, 71846, Control_c, 7, 11, 116
10, 71856, Note_on_c, 7, 72, 0
10, 71856, Note_on_c, 7, 74, 55
10, 71858, Control_c, 7, 11, 115
10, 71870, Control_c, 7, 11, 114
10, 71882, Control_c, 7, 11, 113
10, 71894, Control_c, 7, 11, 112
10, 71904, Note_on_c, 7, 74, 0
10, 71904, Note_on_c, 7, 72, 55
10, 71907, Control_c, 7, 11, 111
10, 71919, Control_c, 7, 11, 110
10, 71931, Control_c, 7, 11, 109
10, 71943, Control_c, 7, 11, 108
10, 71955, Control_c, 7, 11, 107
10, 71968, Control_c, 7, 11, 106
10, 71980, Control_c, 7, 11, 105
10, 71992, Control_c, 7, 11, 104
10, 72004, Control_c, 7, 11, 103
10, 72016, Control_c, 7, 11, 102
10, 72028, Control_c, 7, 11, 101
10, 72041, Control_c, 7, 11, 100
10, 72053, Control_c, 7, 11, 99
10, 72065, Control_c, 7, 11, 98
10, 72077, Control_c, 7, 11, 97
10, 72089, Control_c, 7, 11, 96
10, 72096, Note_on_c, 7, 72, 0
10, 72096, Note_on_c, 7, 76, 65
10, 72102, Control_c, 7, 11, 95
10, 72114, Control_c, 7, 11, 94
10, 72126, Control_c, 7, 11, 93
10, 72138, Control_c, 7, 11, 92
10, 72150, Control_c, 7, 11, 91
10, 72163, Control_c, 7, 11, 90
10, 72175, Control_c, 7, 11, 89
10, 72187, Control_c, 7, 11, 88
10, 72199, Control_c, 7, 11, 87
10, 72211, Control_c, 7, 11, 86
10, 72224, Control_c, 7, 11, 85
10, 72236, Control_c, 7, 11, 84
10, 72248, Control_c, 7, 11, 83
10, 72256, Note_on_c, 7, 76, 0
10, 72260, Control_c, 7, 11, 82
10, 72272, Control_c, 7, 11, 81
10, 72284, Control_c, 7, 11, 80
10, 72288, Note_on_c, 7, 79, 64
10, 72297, Control_c, 7, 11, 79
10, 72309, Control_c, 7, 11, 78
10, 72321, Control_c, 7, 11, 77
10, 72333, Control_c, 7, 11, 76
10, 72345, Control_c, 7, 11, 75
10, 72358, Control_c, 7, 11, 74
10, 72370, Control_c, 7, 11, 73
10, 72382, Control_c, 7, 11, 72
10, 72394, Control_c, 7, 11, 71
10, 72406, Control_c, 7, 11, 70
10, 72419, Control_c, 7, 11, 69
10, 72431, Control_c, 7, 11, 68
10, 72443, Control_c, 7, 11, 67
10, 72455, Control_c, 7, 11, 66
10, 72467, Control_c, 7, 11, 65
10, 72480, Control_c, 7, 11, 64
10, 72574, Note_on_c, 7, 79, 0
10, 76704, Control_c, 7, 11, 75
10, 76704, Note_on_c, 7, 72, 77
10, 76718, Control_c, 7, 11, 76
10, 76733, Control_c, 7, 11, 77
10, 76748, Control_c, 7, 11, 78
10, 76763, Control_c, 7, 11, 79
10, 76777, Control_c, 7, 11, 80
10, 76792, Control_c, 7, 11, 81
10, 76807, Control_c, 7, 11, 82
10, 76822, Control_c, 7, 11, 83
10, 76836, Control_c, 7, 11, 84
10, 76851, Control_c, 7, 11, 85
10, 76866, Control_c, 7, 11, 86
10, 76881, Control_c, 7, 11, 87
10, 76896, Control_c, 7, 11, 88
10, 76910, Control_c, 7, 11, 89
10, 76925, Control_c, 7, 11, 90
10, 76940, Control_c, 7, 11, 91
10, 76955, Control_c, 7, 11, 92
10, 76969, Control_c, 7, 11, 93
10, 76984, Control_c, 7, 11, 94
10, 76999, Control_c, 7, 11, 95
10, 77014, Control_c, 7, 11, 96
10, 77028, Control_c, 7, 11, 97
10, 77040, Note_on_c, 7, 72, 0
10, 77040, Note_on_c, 7, 74, 73
10, 77043, Control_c, 7, 11, 98
10, 77058, Control_c, 7, 11, 99
10, 77073, Control_c, 7, 11, 100
10, 77088, Note_on_c, 7, 74, 0
10, 77088, Control_c, 7, 11, 101
10, 77088, Note_on_c, 7, 72, 74
10, 77102, Control_c, 7, 11, 102
10, 77117, Control_c, 7, 11, 103
10, 77132, Control_c, 7, 11, 104
10, 77147, Control_c, 7, 11, 105
10, 77161, Control_c, 7, 11, 106
10, 77176, Control_c, 7, 11, 107
10, 77191, Control_c, 7, 11, 108
10, 77206, Control_c, 7, 11, 109
10, 77220, Control_c, 7, 11, 110
10, 77235, Control_c, 7, 11, 111
10, 77250, Control_c, 7, 11, 112
10, 77265, Control_c, 7, 11, 113
10, 77280, Note_on_c, 7, 72, 0
10, 77280, Control_c, 7, 11, 114
10, 77280, Note_on_c, 7, 76, 77
10, 77294, Control_c, 7, 11, 115
10, 77309, Control_c, 7, 11, 116
10, 77324, Control_c, 7, 11, 117
10, 77339, Control_c, 7, 11, 118
10, 77353, Control_c, 7, 11, 119
10, 77368, Control_c, 7, 11, 120
10, 77383, Control_c, 7, 11, 121
10, 77398, Control_c, 7, 11, 122
10, 77412, Control_c, 7, 11, 123
10, 77427, Control_c, 7, 11, 124
10, 77442, Control_c, 7, 11, 125
10, 77457, Control_c, 7, 11, 126
10, 77472, Note_on_c, 7, 76, 0
10, 77472, Control_c, 7, 11, 127
10, 77472, Note_on_c, 7, 79, 77
10, 77566, Note_on_c, 7, 79, 0
10, 81120, Control_c, 7, 11, 92
10, 81120, Note_on_c, 7, 74, 106
10, 81120, Note_on_c, 7, 78, 112
10, 81142, Note_on_c, 7, 74, 0
10, 81142, Note_on_c, 7, 78, 0
10, 81144, Note_on_c, 7, 72, 111
10, 81144, Note_on_c, 7, 76, 106
10, 81504, Control_c, 7, 11, 92
10, 81525, Control_c, 7, 11, 93
10, 81547, Control_c, 7, 11, 94
10, 81569, Control_c, 7, 11, 95
10, 81591, Control_c, 7, 11, 96
10, 81613, Control_c, 7, 11, 97
10, 81635, Control_c, 7, 11, 98
10, 81657, Control_c, 7, 11, 99
10, 81679, Control_c, 7, 11, 100
10, 81701, Control_c, 7, 11, 101
10, 81723, Control_c, 7, 11, 102
10, 81745, Control_c, 7, 11, 103
10, 81767, Control_c, 7, 11, 104
10, 81789, Control_c, 7, 11, 105
10, 81811, Control_c, 7, 11, 106
10, 81833, Control_c, 7, 11, 107
10, 81855, Control_c, 7, 11, 108
10, 81877, Control_c, 7, 11, 109
10, 81898, Control_c, 7, 11, 110
10, 81920, Control_c, 7, 11, 111
10, 81942, Control_c, 7, 11, 112
10, 81964, Control_c, 7, 11, 113
10, 81986, Control_c, 7, 11, 114
10, 82008, Control_c, 7, 11, 115
10, 82030, Control_c, 7, 11, 116
10, 82032, Note_on_c, 7, 72, 0
10, 82032, Note_on_c, 7, 76, 0
10, 82052, Control_c, 7, 11, 117
10, 82074, Control_c, 7, 11, 118
10, 82080, Note_on_c, 7, 70, 105
10, 82080, Note_on_c, 7, 74, 113
10, 82096, Control_c, 7, 11, 119
10, 82104, Note_on_c, 7, 70, 0
10, 82104, Note_on_c, 7, 74, 0
10, 82104, Note_on_c, 7, 68, 103
10, 82104, Note_on_c, 7, 72, 104
10, 82118, Control_c, 7, 11, 120
10, 82140, Control_c, 7, 11, 121
10, 82162, Control_c, 7, 11, 122
10, 82184, Control_c, 7, 11, 123
10, 82206, Control_c, 7, 11, 124
10, 82228, Control_c, 7, 11, 125
10, 82250, Control_c, 7, 11, 126
10, 82272, Control_c, 7, 11, 127
10, 82992, Note_on_c, 7, 68, 0
10, 82992, Note_on_c, 7, 72, 0
10, 83424, Control_c, 7, 11, 92
10, 83424, Note_on_c, 7, 74, 105
10, 83424, Note_on_c, 7, 78, 106
10, 83446, Note_on_c, 7, 74, 0
10, 83446, Note_on_c, 7, 78, 0
10, 83448, Note_on_c, 7, 72, 107
10, 83448, Note_on_c, 7, 76, 103
10, 83808, Control_c, 7, 11, 92
10, 83829, Control_c, 7, 11, 93
10, 83851, Control_c, 7, 11, 94
10, 83873, Control_c, 7, 11, 95
10, 83895, Control_c, 7, 11, 96
10, 83917, Control_c, 7, 11, 97
10, 83939, Control_c, 7, 11, 98
10, 83961, Control_c, 7, 11, 99
10, 83983, Control_c, 7, 11, 100
10, 84005, Control_c, 7, 11, 101
10, 84027, Control_c, 7, 11, 102
10, 84049, Control_c, 7, 11, 103
10, 84071, Control_c, 7, 11, 104
10, 84093, Control_c, 7, 11, 105
10, 84115, Control_c, 7, 11, 106
10, 84137, Control_c, 7, 11, 107
10, 84159, Control_c, 7, 11, 108
10, 84181, Control_c, 7, 11, 109
10, 84202, Control_c, 7, 11, 110
10, 84224, Control_c, 7, 11, 111
10, 84246, Control_c, 7, 11, 112
10, 84268, Control_c, 7, 11, 113
10, 84290, Control_c, 7, 11, 114
10, 84312, Control_c, 7, 11, 115
10, 84334, Control_c, 7, 11, 116
10, 84336, Note_on_c, 7, 72, 0
10, 84336, Note_on_c, 7, 76, 0
10, 84356, Control_c, 7, 11, 117
10, 84378, Control_c, 7, 11, 118
10, 84384, Note_on_c, 7, 70, 106
10, 84384, Note_on_c, 7, 74, 103
10, 84400, Control_c, 7, 11, 119
10, 84408, Note_on_c, 7, 70, 0
10, 84408, Note_on_c, 7, 74, 0
10, 84408, Note_on_c, 7, 68, 108
10, 84408, Note_on_c, 7, 72, 111
10, 84422, Control_c, 7, 11, 120
10, 84444, Control_c, 7, 11, 121
10, 84466, Control_c, 7, 11, 122
10, 84488, Control_c, 7, 11, 123
10, 84510, Control_c, 7, 11, 124
10, 84532, Control_c, 7, 11, 125
10, 84554, Control_c, 7, 11, 126
10, 84576, Control_c, 7, 11, 127
10, 84960, Control_c, 7, 11, 127
10, 84969, Control_c, 7, 11, 126
10, 84978, Control_c, 7, 11, 125
10, 84988, Control_c, 7, 11, 124
10, 84997, Control_c, 7, 11, 123
10, 85006, Control_c, 7, 11, 122
10, 85016, Control_c, 7, 11, 121
10, 85025, Control_c, 7, 11, 120
10, 85034, Control_c, 7, 11, 119
10, 85044, Control_c, 7, 11, 118
10, 85053, Control_c, 7, 11, 117
10, 85063, Control_c, 7, 11, 116
10, 85072, Control_c, 7, 11, 115
10, 85081, Control_c, 7, 11, 114
10, 85091, Control_c, 7, 11, 113
10, 85100, Control_c, 7, 11, 112
10, 85109, Control_c, 7, 11, 111
10, 85119, Control_c, 7, 11, 110
10, 85128, Control_c, 7, 11, 109
10, 85137, Control_c, 7, 11, 108
10, 85147, Control_c, 7, 11, 107
10, 85156, Control_c, 7, 11, 106
10, 85166, Control_c, 7, 11, 105
10, 85175, Control_c, 7, 11, 104
10, 85184, Control_c, 7, 11, 103
10, 85194, Control_c, 7, 11, 102
10, 85203, Control_c, 7, 11, 101
10, 85212, Control_c, 7, 11, 100
10, 85222, Control_c, 7, 11, 99
10, 85231, Control_c, 7, 11, 98
10, 85240, Control_c, 7, 11, 97
10, 85250, Control_c, 7, 11, 96
10, 85259, Control_c, 7, 11, 95
10, 85269, Control_c, 7, 11, 94
10, 85278, Control_c, 7, 11, 93
10, 85287, Control_c, 7, 11, 92
10, 85297, Control_c, 7, 11, 91
10, 85306, Control_c, 7, 11, 90
10, 85315, Control_c, 7, 11, 89
10, 85325, Control_c, 7, 11, 88
10, 85334, Control_c, 7, 11, 87
10, 85343, Control_c, 7, 11, 86
10, 85353, Control_c, 7, 11, 85
10, 85362, Control_c, 7, 11, 84
10, 85372, Control_c, 7, 11, 83
10, 85381, Control_c, 7, 11, 82
10, 85390, Control_c, 7, 11, 81
10, 85400, Control_c, 7, 11, 80
10, 85409, Control_c, 7, 11, 79
10, 85418, Control_c, 7, 11, 78
10, 85428, Control_c, 7, 11, 77
10, 85437, Control_c, 7, 11, 76
10, 85447, Control_c, 7, 11, 75
10, 85456, Control_c, 7, 11, 74
10, 85465, Control_c, 7, 11, 73
10, 85475, Control_c, 7, 11, 72
10, 85484, Control_c, 7, 11, 71
10, 85493, Control_c, 7, 11, 70
10, 85503, Control_c, 7, 11, 69
10, 85512, Control_c, 7, 11, 68
10, 85521, Control_c, 7, 11, 67
10, 85531, Control_c, 7, 11, 66
10, 85540, Control_c, 7, 11, 65
10, 85550, Control_c, 7, 11, 64
10, 85559, Control_c, 7, 11, 63
10, 85568, Control_c, 7, 11, 62
10, 85578, Control_c, 7, 11, 61
10, 85587, Control_c, 7, 11, 60
10, 85596, Control_c, 7, 11, 59
10, 85606, Control_c, 7, 11, 58
10, 85615, Control_c, 7, 11, 57
10, 85624, Control_c, 7, 11, 56
10, 85634, Control_c, 7, 11, 55
10, 85643, Control_c, 7, 11, 54
10, 85653, Control_c, 7, 11, 53
10, 85662, Control_c, 7, 11, 52
10, 85671, Control_c, 7, 11, 51
10, 85681, Control_c, 7, 11, 50
10, 85690, Control_c, 7, 11, 49
10, 85696, Note_on_c, 7, 68, 0
10, 85696, Note_on_c, 7, 72, 0
10, 85699, Control_c, 7, 11, 48
10, 85709, Control_c, 7, 11, 47
10, 85718, Control_c, 7, 11, 46
10, 85728, Control_c, 7, 11, 45
10, 86112, Control_c, 7, 11, 127
10, 97056, Control_c, 7, 11, 64
10, 97056, Note_on_c, 7, 64, 78
10, 97074, Control_c, 7, 11, 65
10, 97092, Control_c, 7, 11, 66
10, 97110, Control_c, 7, 11, 67
10, 97129, Control_c, 7, 11, 68
10, 97147, Control_c, 7, 11, 69
10, 97165, Control_c, 7, 11, 70
10, 97184, Control_c, 7, 11, 71
10, 97202, Control_c, 7, 11, 72
10, 97220, Control_c, 7, 11, 73
10, 97238, Control_c, 7, 11, 74
10, 97257, Control_c, 7, 11, 75
10, 97275, Control_c, 7, 11, 76
10, 97293, Control_c, 7, 11, 77
10, 97312, Control_c, 7, 11, 78
10, 97330, Control_c, 7, 11, 79
10, 97348, Control_c, 7, 11, 80
10, 97366, Control_c, 7, 11, 81
10, 97385, Control_c, 7, 11, 82
10, 97392, Note_on_c, 7, 64, 0
10, 97392, Note_on_c, 7, 66, 77
10, 97403, Control_c, 7, 11, 83
10, 97421, Control_c, 7, 11, 84
10, 97440, Note_on_c, 7, 66, 0
10, 97440, Control_c, 7, 11, 85
10, 97440, Note_on_c, 7, 64, 75
10, 97458, Control_c, 7, 11, 86
10, 97476, Control_c, 7, 11, 87
10, 97494, Control_c, 7, 11, 88
10, 97513, Control_c, 7, 11, 89
10, 97531, Control_c, 7, 11, 90
10, 97549, Control_c, 7, 11, 91
10, 97568, Control_c, 7, 11, 92
10, 97586, Control_c, 7, 11, 93
10, 97604, Control_c, 7, 11, 94
10, 97622, Control_c, 7, 11, 95
10, 97641, Control_c, 7, 11, 96
10, 97659, Control_c, 7, 11, 97
10, 97677, Control_c, 7, 11, 98
10, 97696, Control_c, 7, 11, 99
10, 97714, Control_c, 7, 11, 100
10, 97732, Control_c, 7, 11, 101
10, 97750, Control_c, 7, 11, 102
10, 97769, Control_c, 7, 11, 103
10, 97787, Control_c, 7, 11, 104
10, 97805, Control_c, 7, 11, 105
10, 97824, Note_on_c, 7, 64, 0
10, 97824, Control_c, 7, 11, 106
10, 97824, Note_on_c, 7, 68, 73
10, 97842, Control_c, 7, 11, 107
10, 97860, Control_c, 7, 11, 108
10, 97878, Control_c, 7, 11, 109
10, 97897, Control_c, 7, 11, 110
10, 97915, Control_c, 7, 11, 111
10, 97933, Control_c, 7, 11, 112
10, 97952, Control_c, 7, 11, 113
10, 97970, Control_c, 7, 11, 114
10, 97988, Control_c, 7, 11, 115
10, 98006, Control_c, 7, 11, 116
10, 98025, Control_c, 7, 11, 117
10, 98043, Control_c, 7, 11, 118
10, 98061, Control_c, 7, 11, 119
10, 98080, Control_c, 7, 11, 120
10, 98098, Control_c, 7, 11, 121
10, 98116, Control_c, 7, 11, 122
10, 98134, Control_c, 7, 11, 123
10, 98153, Control_c, 7, 11, 124
10, 98171, Control_c, 7, 11, 125
10, 98189, Control_c, 7, 11, 126
10, 98208, Note_on_c, 7, 68, 0
10, 98208, Control_c, 7, 11, 127
10, 98208, Note_on_c, 7, 70, 42
10, 98368, Note_on_c, 7, 70, 0
10, 99360, Control_c, 7, 11, 64
10, 99360, Note_on_c, 7, 64, 80
10, 99378, Control_c, 7, 11, 65
10, 99396, Control_c, 7, 11, 66
10, 99414, Control_c, 7, 11, 67
10, 99433, Control_c, 7, 11, 68
10, 99451, Control_c, 7, 11, 69
10, 99469, Control_c, 7, 11, 70
10, 99488, Control_c, 7, 11, 71
10, 99506, Control_c, 7, 11, 72
10, 99524, Control_c, 7, 11, 73
10, 99542, Control_c, 7, 11, 74
10, 99561, Control_c, 7, 11, 75
10, 99579, Control_c, 7, 11, 76
10, 99597, Control_c, 7, 11, 77
10, 99616, Control_c, 7, 11, 78
10, 99634, Control_c, 7, 11, 79
10, 99652, Control_c, 7, 11, 80
10, 99670, Control_c, 7, 11, 81
10, 99689, Control_c, 7, 11, 82
10, 99696, Note_on_c, 7, 64, 0
10, 99696, Note_on_c, 7, 66, 74
10, 99707, Control_c, 7, 11, 83
10, 99725, Control_c, 7, 11, 84
10, 99744, Note_on_c, 7, 66, 0
10, 99744, Control_c, 7, 11, 85
10, 99744, Note_on_c, 7, 64, 76
10, 99762, Control_c, 7, 11, 86
10, 99780, Control_c, 7, 11, 87
10, 99798, Control_c, 7, 11, 88
10, 99817, Control_c, 7, 11, 89
10, 99835, Control_c, 7, 11, 90
10, 99853, Control_c, 7, 11, 91
10, 99872, Control_c, 7, 11, 92
10, 99890, Control_c, 7, 11, 93
10, 99908, Control_c, 7, 11, 94
10, 99926, Control_c, 7, 11, 95
10, 99945, Control_c, 7, 11, 96
10, 99963, Control_c, 7, 11, 97
10, 99981, Control_c, 7, 11, 98
10, 100000, Control_c, 7, 11, 99
10, 100018, Control_c, 7, 11, 100
10, 100036, Control_c, 7, 11, 101
10, 100054, Control_c, 7, 11, 102
10, 100073, Control_c, 7, 11, 103
10, 100091, Control_c, 7, 11, 104
10, 100109, Control_c, 7, 11, 105
10, 100128, Note_on_c, 7, 64, 0
10, 100128, Control_c, 7, 11, 106
10, 100128, Note_on_c, 7, 68, 77
10, 100146, Control_c, 7, 11, 107
10, 100164, Control_c, 7, 11, 108
10, 100182, Control_c, 7, 11, 109
10, 100201, Control_c, 7, 11, 110
10, 100219, Control_c, 7, 11, 111
10, 100237, Control_c, 7, 11, 112
10, 100256, Control_c, 7, 11, 113
10, 100274, Control_c, 7, 11, 114
10, 100292, Control_c, 7, 11, 115
10, 100310, Control_c, 7, 11, 116
10, 100329, Control_c, 7, 11, 117
10, 100347, Control_c, 7, 11, 118
10, 100365, Control_c, 7, 11, 119
10, 100384, Control_c, 7, 11, 120
10, 100402, Control_c, 7, 11, 121
10, 100420, Control_c, 7, 11, 122
10, 100438, Control_c, 7, 11, 123
10, 100457, Control_c, 7, 11, 124
10, 100464, Note_on_c, 7, 68, 0
10, 100475, Control_c, 7, 11, 125
10, 100493, Control_c, 7, 11, 126
10, 100512, Control_c, 7, 11, 127
10, 101088, Control_c, 7, 11, 127
10, 103968, Control_c, 7, 11, 64
10, 103968, Note_on_c, 7, 71, 77
10, 103986, Control_c, 7, 11, 65
10, 104004, Control_c, 7, 11, 66
10, 104022, Control_c, 7, 11, 67
10, 104041, Control_c, 7, 11, 68
10, 104059, Control_c, 7, 11, 69
10, 104077, Control_c, 7, 11, 70
10, 104096, Control_c, 7, 11, 71
10, 104114, Control_c, 7, 11, 72
10, 104132, Control_c, 7, 11, 73
10, 104150, Control_c, 7, 11, 74
10, 104169, Control_c, 7, 11, 75
10, 104187, Control_c, 7, 11, 76
10, 104205, Control_c, 7, 11, 77
10, 104224, Control_c, 7, 11, 78
10, 104242, Control_c, 7, 11, 79
10, 104260, Control_c, 7, 11, 80
10, 104278, Control_c, 7, 11, 81
10, 104297, Control_c, 7, 11, 82
10, 104304, Note_on_c, 7, 71, 0
10, 104304, Note_on_c, 7, 73, 78
10, 104315, Control_c, 7, 11, 83
10, 104333, Control_c, 7, 11, 84
10, 104352, Note_on_c, 7, 73, 0
10, 104352, Control_c, 7, 11, 85
10, 104352, Note_on_c, 7, 71, 79
10, 104370, Control_c, 7, 11, 86
10, 104388, Control_c, 7, 11, 87
10, 104406, Control_c, 7, 11, 88
10, 104425, Control_c, 7, 11, 89
10, 104443, Control_c, 7, 11, 90
10, 104461, Control_c, 7, 11, 91
10, 104480, Control_c, 7, 11, 92
10, 104498, Control_c, 7, 11, 93
10, 104516, Control_c, 7, 11, 94
10, 104534, Control_c, 7, 11, 95
10, 104553, Control_c, 7, 11, 96
10, 104571, Control_c, 7, 11, 97
10, 104589, Control_c, 7, 11, 98
10, 104608, Control_c, 7, 11, 99
10, 104626, Control_c, 7, 11, 100
10, 104644, Control_c, 7, 11, 101
10, 104662, Control_c, 7, 11, 102
10, 104681, Control_c, 7, 11, 103
10, 104699, Control_c, 7, 11, 104
10, 104717, Control_c, 7, 11, 105
10, 104736, Note_on_c, 7, 71, 0
10, 104736, Control_c, 7, 11, 106
10, 104736, Note_on_c, 7, 74, 77
10, 104754, Control_c, 7, 11, 107
10, 104772, Control_c, 7, 11, 108
10, 104790, Control_c, 7, 11, 109
10, 104809, Control_c, 7, 11, 110
10, 104827, Control_c, 7, 11, 111
10, 104845, Control_c, 7, 11, 112
10, 104864, Control_c, 7, 11, 113
10, 104882, Control_c, 7, 11, 114
10, 104900, Control_c, 7, 11, 115
10, 104918, Control_c, 7, 11, 116
10, 104937, Control_c, 7, 11, 117
10, 104955, Control_c, 7, 11, 118
10, 104973, Control_c, 7, 11, 119
10, 104992, Control_c, 7, 11, 120
10, 105010, Control_c, 7, 11, 121
10, 105028, Control_c, 7, 11, 122
10, 105046, Control_c, 7, 11, 123
10, 105065, Control_c, 7, 11, 124
10, 105083, Control_c, 7, 11, 125
10, 105101, Control_c, 7, 11, 126
10, 105120, Note_on_c, 7, 74, 0
10, 105120, Control_c, 7, 11, 127
10, 105120, Note_on_c, 7, 78, 79
10, 105280, Note_on_c, 7, 78, 0
10, 106272, Control_c, 7, 11, 64
10, 106272, Note_on_c, 7, 71, 75
10, 106290, Control_c, 7, 11, 65
10, 106308, Control_c, 7, 11, 66
10, 106326, Control_c, 7, 11, 67
10, 106345, Control_c, 7, 11, 68
10, 106363, Control_c, 7, 11, 69
10, 106381, Control_c, 7, 11, 70
10, 106400, Control_c, 7, 11, 71
10, 106418, Control_c, 7, 11, 72
10, 106436, Control_c, 7, 11, 73
10, 106454, Control_c, 7, 11, 74
10, 106473, Control_c, 7, 11, 75
10, 106491, Control_c, 7, 11, 76
10, 106509, Control_c, 7, 11, 77
10, 106528, Control_c, 7, 11, 78
10, 106546, Control_c, 7, 11, 79
10, 106564, Control_c, 7, 11, 80
10, 106582, Control_c, 7, 11, 81
10, 106601, Control_c, 7, 11, 82
10, 106608, Note_on_c, 7, 71, 0
10, 106608, Note_on_c, 7, 73, 75
10, 106619, Control_c, 7, 11, 83
10, 106637, Control_c, 7, 11, 84
10, 106656, Note_on_c, 7, 73, 0
10, 106656, Control_c, 7, 11, 85
10, 106656, Note_on_c, 7, 71, 70
10, 106674, Control_c, 7, 11, 86
10, 106692, Control_c, 7, 11, 87
10, 106710, Control_c, 7, 11, 88
10, 106729, Control_c, 7, 11, 89
10, 106747, Control_c, 7, 11, 90
10, 106765, Control_c, 7, 11, 91
10, 106784, Control_c, 7, 11, 92
10, 106802, Control_c, 7, 11, 93
10, 106820, Control_c, 7, 11, 94
10, 106838, Control_c, 7, 11, 95
10, 106857, Control_c, 7, 11, 96
10, 106875, Control_c, 7, 11, 97
10, 106893, Control_c, 7, 11, 98
10, 106912, Control_c, 7, 11, 99
10, 106930, Control_c, 7, 11, 100
10, 106948, Control_c, 7, 11, 101
10, 106966, Control_c, 7, 11, 102
10, 106985, Control_c, 7, 11, 103
10, 107003, Control_c, 7, 11, 104
10, 107021, Control_c, 7, 11, 105
10, 107040, Note_on_c, 7, 71, 0
10, 107040, Control_c, 7, 11, 106
10, 107040, Note_on_c, 7, 74, 78
10, 107058, Control_c, 7, 11, 107
10, 107076, Control_c, 7, 11, 108
10, 107094, Control_c, 7, 11, 109
10, 107113, Control_c, 7, 11, 110
10, 107131, Control_c, 7, 11, 111
10, 107149, Control_c, 7, 11, 112
10, 107168, Control_c, 7, 11, 113
10, 107186, Control_c, 7, 11, 114
10, 107204, Control_c, 7, 11, 115
10, 107222, Control_c, 7, 11, 116
10, 107241, Control_c, 7, 11, 117
10, 107259, Control_c, 7, 11, 118
10, 107277, Control_c, 7, 11, 119
10, 107296, Control_c, 7, 11, 120
10, 107314, Control_c, 7, 11, 121
10, 107332, Control_c, 7, 11, 122
10, 107350, Control_c, 7, 11, 123
10, 107369, Control_c, 7, 11, 124
10, 107387, Control_c, 7, 11, 125
10, 107405, Control_c, 7, 11, 126
10, 107424, Note_on_c, 7, 74, 0
10, 107424, Control_c, 7, 11, 127
10, 107424, Note_on_c, 7, 78, 78
10, 107518, Note_on_c, 7, 78, 0
10, 116640, Note_on_c, 7, 68, 103
10, 117166, Note_on_c, 7, 68, 0
10, 117168, Note_on_c, 7, 70, 110
10, 117214, Note_on_c, 7, 70, 0
10, 117216, Note_on_c, 7, 68, 108
10, 118896, Note_on_c, 7, 68, 0
10, 122400, Control_c, 7, 11, 127
10, 132768, Control_c, 7, 7, 127
10, 133344, Program_c, 7, 59
10, 133920, Control_c, 7, 11, 127
10, 133920, Note_on_c, 7, 63, 45
10, 133925, Control_c, 7, 11, 126
10, 133930, Control_c, 7, 11, 125
10, 133936, Control_c, 7, 11, 124
10, 133941, Control_c, 7, 11, 123
10, 133947, Control_c, 7, 11, 122
10, 133952, Control_c, 7, 11, 121
10, 133958, Control_c, 7, 11, 120
10, 133963, Control_c, 7, 11, 119
10, 133969, Control_c, 7, 11, 118
10, 133974, Control_c, 7, 11, 117
10, 133980, Control_c, 7, 11, 116
10, 133984, Note_on_c, 7, 63, 0
10, 133984, Note_on_c, 7, 64, 46
10, 133985, Control_c, 7, 11, 115
10, 133991, Control_c, 7, 11, 114
10, 133996, Control_c, 7, 11, 113
10, 134002, Control_c, 7, 11, 112
10, 134007, Control_c, 7, 11, 111
10, 134013, Control_c, 7, 11, 110
10, 134018, Control_c, 7, 11, 109
10, 134024, Control_c, 7, 11, 108
10, 134029, Control_c, 7, 11, 107
10, 134035, Control_c, 7, 11, 106
10, 134040, Control_c, 7, 11, 105
10, 134046, Control_c, 7, 11, 104
10, 134048, Note_on_c, 7, 64, 0
10, 134048, Note_on_c, 7, 66, 48
10, 134051, Control_c, 7, 11, 103
10, 134057, Control_c, 7, 11, 102
10, 134062, Control_c, 7, 11, 101
10, 134068, Control_c, 7, 11, 100
10, 134073, Control_c, 7, 11, 99
10, 134079, Control_c, 7, 11, 98
10, 134084, Control_c, 7, 11, 97
10, 134090, Control_c, 7, 11, 96
10, 134095, Control_c, 7, 11, 95
10, 134101, Control_c, 7, 11, 94
10, 134106, Control_c, 7, 11, 93
10, 134112, Note_on_c, 7, 66, 0
10, 134112, Control_c, 7, 11, 92
10, 134112, Note_on_c, 7, 68, 45
10, 134590, Note_on_c, 7, 68, 0
10, 136224, Control_c, 7, 11, 127
10, 136224, Note_on_c, 7, 63, 44
10, 136229, Control_c, 7, 11, 126
10, 136234, Control_c, 7, 11, 125
10, 136240, Control_c, 7, 11, 124
10, 136245, Control_c, 7, 11, 123
10, 136251, Control_c, 7, 11, 122
10, 136256, Control_c, 7, 11, 121
10, 136262, Control_c, 7, 11, 120
10, 136267, Control_c, 7, 11, 119
10, 136273, Control_c, 7, 11, 118
10, 136278, Control_c, 7, 11, 117
10, 136284, Control_c, 7, 11, 116
10, 136288, Note_on_c, 7, 63, 0
10, 136288, Note_on_c, 7, 64, 44
10, 136289, Control_c, 7, 11, 115
10, 136295, Control_c, 7, 11, 114
10, 136300, Control_c, 7, 11, 113
10, 136306, Control_c, 7, 11, 112
10, 136311, Control_c, 7, 11, 111
10, 136317, Control_c, 7, 11, 110
10, 136322, Control_c, 7, 11, 109
10, 136328, Control_c, 7, 11, 108
10, 136333, Control_c, 7, 11, 107
10, 136339, Control_c, 7, 11, 106
10, 136344, Control_c, 7, 11, 105
10, 136350, Control_c, 7, 11, 104
10, 136352, Note_on_c, 7, 64, 0
10, 136352, Note_on_c, 7, 66, 43
10, 136355, Control_c, 7, 11, 103
10, 136361, Control_c, 7, 11, 102
10, 136366, Control_c, 7, 11, 101
10, 136372, Control_c, 7, 11, 100
10, 136377, Control_c, 7, 11, 99
10, 136383, Control_c, 7, 11, 98
10, 136388, Control_c, 7, 11, 97
10, 136394, Control_c, 7, 11, 96
10, 136399, Control_c, 7, 11, 95
10, 136405, Control_c, 7, 11, 94
10, 136410, Control_c, 7, 11, 93
10, 136416, Note_on_c, 7, 66, 0
10, 136416, Control_c, 7, 11, 92
10, 136416, Note_on_c, 7, 68, 49
10, 136894, Note_on_c, 7, 68, 0
10, 136894, End_track
11, 0, Start_track
11, 0, Title_t, "Piatti"
11, 0, MIDI_port, 0
11, 2112, Note_on_c, 9, 57, 26
11, 2206, Note_on_c, 9, 57, 0
11, 3264, Note_on_c, 9, 57, 27
11, 3358, Note_on_c, 9, 57, 0
11, 4992, Note_on_c, 9, 57, 30
11, 5086, Note_on_c, 9, 57, 0
11, 8352, Note_on_c, 9, 57, 34
11, 8446, Note_on_c, 9, 57, 0
11, 8928, Note_on_c, 9, 57, 32
11, 9022, Note_on_c, 9, 57, 0
11, 11424, Note_on_c, 9, 57, 96
11, 11518, Note_on_c, 9, 57, 0
11, 12000, Note_on_c, 9, 57, 96
11, 12094, Note_on_c, 9, 57, 0
11, 27840, Note_on_c, 9, 57, 40
11, 27934, Note_on_c, 9, 57, 0
11, 28416, Note_on_c, 9, 57, 47
11, 28510, Note_on_c, 9, 57, 0
11, 28992, Note_on_c, 9, 57, 47
11, 29086, Note_on_c, 9, 57, 0
11, 29472, Note_on_c, 9, 81, 47
11, 29566, Note_on_c, 9, 81, 0
11, 29568, Note_on_c, 9, 57, 47
11, 29662, Note_on_c, 9, 57, 0
11, 30144, Note_on_c, 9, 57, 40
11, 30238, Note_on_c, 9, 57, 0
11, 30720, Note_on_c, 9, 57, 47
11, 30814, Note_on_c, 9, 57, 0
11, 31296, Note_on_c, 9, 57, 45
11, 31390, Note_on_c, 9, 57, 0
11, 31872, Note_on_c, 9, 57, 42
11, 31966, Note_on_c, 9, 57, 0
11, 53184, Note_on_c, 9, 57, 50
11, 53278, Note_on_c, 9, 57, 0
11, 53760, Note_on_c, 9, 57, 42
11, 53854, Note_on_c, 9, 57, 0
11, 54336, Note_on_c, 9, 57, 35
11, 54430, Note_on_c, 9, 57, 0
11, 54912, Note_on_c, 9, 57, 34
11, 55006, Note_on_c, 9, 57, 0
11, 55488, Note_on_c, 9, 57, 33
11, 55582, Note_on_c, 9, 57, 0
11, 56064, Note_on_c, 9, 57, 35
11, 56158, Note_on_c, 9, 57, 0
11, 56640, Note_on_c, 9, 57, 31
11, 56734, Note_on_c, 9, 57, 0
11, 57216, Note_on_c, 9, 57, 32
11, 57310, Note_on_c, 9, 57, 0
11, 60768, Note_on_c, 9, 57, 27
11, 60862, Note_on_c, 9, 57, 0
11, 65568, Note_on_c, 9, 57, 112
11, 65590, Note_on_c, 9, 57, 0
11, 65592, Note_on_c, 9, 57, 106
11, 65614, Note_on_c, 9, 57, 0
11, 65616, Note_on_c, 9, 57, 110
11, 65638, Note_on_c, 9, 57, 0
11, 65640, Note_on_c, 9, 57, 109
11, 65662, Note_on_c, 9, 57, 0
11, 65664, Note_on_c, 9, 57, 106
11, 65686, Note_on_c, 9, 57, 0
11, 65688, Note_on_c, 9, 57, 105
11, 65710, Note_on_c, 9, 57, 0
11, 65712, Note_on_c, 9, 57, 113
11, 65734, Note_on_c, 9, 57, 0
11, 65736, Note_on_c, 9, 57, 110
11, 65758, Note_on_c, 9, 57, 0
11, 65760, Note_on_c, 9, 57, 105
11, 65782, Note_on_c, 9, 57, 0
11, 65784, Note_on_c, 9, 57, 106
11, 65806, Note_on_c, 9, 57, 0
11, 65808, Note_on_c, 9, 57, 106
11, 65830, Note_on_c, 9, 57, 0
11, 65832, Note_on_c, 9, 57, 113
11, 65854, Note_on_c, 9, 57, 0
11, 65856, Note_on_c, 9, 57, 103
11, 65878, Note_on_c, 9, 57, 0
11, 65880, Note_on_c, 9, 57, 111
11, 65902, Note_on_c, 9, 57, 0
11, 65904, Note_on_c, 9, 57, 111
11, 65926, Note_on_c, 9, 57, 0
11, 65928, Note_on_c, 9, 57, 113
11, 65950, Note_on_c, 9, 57, 0
11, 65952, Note_on_c, 9, 57, 111
11, 65974, Note_on_c, 9, 57, 0
11, 65976, Note_on_c, 9, 57, 110
11, 65998, Note_on_c, 9, 57, 0
11, 66000, Note_on_c, 9, 57, 105
11, 66022, Note_on_c, 9, 57, 0
11, 66024, Note_on_c, 9, 57, 98
11, 66046, Note_on_c, 9, 57, 0
11, 66048, Note_on_c, 9, 57, 104
11, 66070, Note_on_c, 9, 57, 0
11, 66072, Note_on_c, 9, 57, 100
11, 66094, Note_on_c, 9, 57, 0
11, 66096, Note_on_c, 9, 57, 97
11, 66118, Note_on_c, 9, 57, 0
11, 66120, Note_on_c, 9, 57, 93
11, 66142, Note_on_c, 9, 57, 0
11, 66144, Note_on_c, 9, 57, 95
11, 66166, Note_on_c, 9, 57, 0
11, 66168, Note_on_c, 9, 57, 89
11, 66190, Note_on_c, 9, 57, 0
11, 66192, Note_on_c, 9, 57, 87
11, 66214, Note_on_c, 9, 57, 0
11, 66216, Note_on_c, 9, 57, 79
11, 66238, Note_on_c, 9, 57, 0
11, 66240, Note_on_c, 9, 57, 76
11, 66262, Note_on_c, 9, 57, 0
11, 66264, Note_on_c, 9, 57, 80
11, 66286, Note_on_c, 9, 57, 0
11, 66288, Note_on_c, 9, 57, 70
11, 66310, Note_on_c, 9, 57, 0
11, 66312, Note_on_c, 9, 57, 77
11, 66334, Note_on_c, 9, 57, 0
11, 66336, Note_on_c, 9, 57, 67
11, 66358, Note_on_c, 9, 57, 0
11, 66360, Note_on_c, 9, 57, 70
11, 66382, Note_on_c, 9, 57, 0
11, 66384, Note_on_c, 9, 57, 60
11, 66406, Note_on_c, 9, 57, 0
11, 66408, Note_on_c, 9, 57, 58
11, 66430, Note_on_c, 9, 57, 0
11, 66432, Note_on_c, 9, 57, 57
11, 66454, Note_on_c, 9, 57, 0
11, 66456, Note_on_c, 9, 57, 57
11, 66478, Note_on_c, 9, 57, 0
11, 66480, Note_on_c, 9, 57, 49
11, 66502, Note_on_c, 9, 57, 0
11, 66504, Note_on_c, 9, 57, 45
11, 66526, Note_on_c, 9, 57, 0
11, 66528, Note_on_c, 9, 57, 50
11, 66550, Note_on_c, 9, 57, 0
11, 66552, Note_on_c, 9, 57, 43
11, 66574, Note_on_c, 9, 57, 0
11, 66576, Note_on_c, 9, 57, 44
11, 66598, Note_on_c, 9, 57, 0
11, 66600, Note_on_c, 9, 57, 44
11, 66622, Note_on_c, 9, 57, 0
11, 66624, Note_on_c, 9, 57, 41
11, 66646, Note_on_c, 9, 57, 0
11, 66648, Note_on_c, 9, 57, 46
11, 66670, Note_on_c, 9, 57, 0
11, 66672, Note_on_c, 9, 57, 43
11, 66694, Note_on_c, 9, 57, 0
11, 66696, Note_on_c, 9, 57, 49
11, 66718, Note_on_c, 9, 57, 0
11, 66720, Note_on_c, 9, 57, 47
11, 66742, Note_on_c, 9, 57, 0
11, 66744, Note_on_c, 9, 57, 50
11, 66766, Note_on_c, 9, 57, 0
11, 66768, Note_on_c, 9, 57, 48
11, 66790, Note_on_c, 9, 57, 0
11, 66792, Note_on_c, 9, 57, 39
11, 66814, Note_on_c, 9, 57, 0
11, 66816, Note_on_c, 9, 57, 46
11, 66838, Note_on_c, 9, 57, 0
11, 66840, Note_on_c, 9, 57, 37
11, 66862, Note_on_c, 9, 57, 0
11, 66864, Note_on_c, 9, 57, 37
11, 66886, Note_on_c, 9, 57, 0
11, 66888, Note_on_c, 9, 57, 35
11, 66910, Note_on_c, 9, 57, 0
11, 66912, Note_on_c, 9, 57, 35
11, 66934, Note_on_c, 9, 57, 0
11, 66936, Note_on_c, 9, 57, 36
11, 66958, Note_on_c, 9, 57, 0
11, 66960, Note_on_c, 9, 57, 32
11, 66982, Note_on_c, 9, 57, 0
11, 66984, Note_on_c, 9, 57, 36
11, 67006, Note_on_c, 9, 57, 0
11, 67008, Note_on_c, 9, 57, 34
11, 67030, Note_on_c, 9, 57, 0
11, 67032, Note_on_c, 9, 57, 33
11, 67054, Note_on_c, 9, 57, 0
11, 67056, Note_on_c, 9, 57, 33
11, 67078, Note_on_c, 9, 57, 0
11, 67080, Note_on_c, 9, 57, 35
11, 67102, Note_on_c, 9, 57, 0
11, 67104, Note_on_c, 9, 57, 29
11, 67126, Note_on_c, 9, 57, 0
11, 67128, Note_on_c, 9, 57, 31
11, 67150, Note_on_c, 9, 57, 0
11, 67152, Note_on_c, 9, 57, 28
11, 67174, Note_on_c, 9, 57, 0
11, 67176, Note_on_c, 9, 57, 26
11, 67198, Note_on_c, 9, 57, 0
11, 67200, Note_on_c, 9, 57, 34
11, 67222, Note_on_c, 9, 57, 0
11, 67224, Note_on_c, 9, 57, 35
11, 67246, Note_on_c, 9, 57, 0
11, 67248, Note_on_c, 9, 57, 27
11, 67270, Note_on_c, 9, 57, 0
11, 67272, Note_on_c, 9, 57, 34
11, 67294, Note_on_c, 9, 57, 0
11, 67296, Note_on_c, 9, 57, 32
11, 67318, Note_on_c, 9, 57, 0
11, 67320, Note_on_c, 9, 57, 26
11, 67342, Note_on_c, 9, 57, 0
11, 67344, Note_on_c, 9, 57, 33
11, 67366, Note_on_c, 9, 57, 0
11, 67368, Note_on_c, 9, 57, 29
11, 67390, Note_on_c, 9, 57, 0
11, 67392, Note_on_c, 9, 57, 26
11, 67414, Note_on_c, 9, 57, 0
11, 67416, Note_on_c, 9, 57, 33
11, 67438, Note_on_c, 9, 57, 0
11, 67440, Note_on_c, 9, 57, 26
11, 67462, Note_on_c, 9, 57, 0
11, 67464, Note_on_c, 9, 57, 26
11, 67486, Note_on_c, 9, 57, 0
11, 67488, Note_on_c, 9, 57, 25
11, 67510, Note_on_c, 9, 57, 0
11, 67512, Note_on_c, 9, 57, 26
11, 67534, Note_on_c, 9, 57, 0
11, 67536, Note_on_c, 9, 57, 29
11, 67558, Note_on_c, 9, 57, 0
11, 67560, Note_on_c, 9, 57, 34
11, 67582, Note_on_c, 9, 57, 0
11, 67584, Note_on_c, 9, 57, 27
11, 67606, Note_on_c, 9, 57, 0
11, 67608, Note_on_c, 9, 57, 34
11, 67630, Note_on_c, 9, 57, 0
11, 67632, Note_on_c, 9, 57, 32
11, 67654, Note_on_c, 9, 57, 0
11, 67656, Note_on_c, 9, 57, 26
11, 67678, Note_on_c, 9, 57, 0
11, 67680, Note_on_c, 9, 57, 26
11, 67702, Note_on_c, 9, 57, 0
11, 67704, Note_on_c, 9, 57, 32
11, 67726, Note_on_c, 9, 57, 0
11, 67728, Note_on_c, 9, 57, 32
11, 67750, Note_on_c, 9, 57, 0
11, 67752, Note_on_c, 9, 57, 26
11, 67774, Note_on_c, 9, 57, 0
11, 67776, Note_on_c, 9, 57, 25
11, 67798, Note_on_c, 9, 57, 0
11, 67800, Note_on_c, 9, 57, 31
11, 67822, Note_on_c, 9, 57, 0
11, 67824, Note_on_c, 9, 57, 31
11, 67846, Note_on_c, 9, 57, 0
11, 67848, Note_on_c, 9, 57, 26
11, 67870, Note_on_c, 9, 57, 0
11, 67872, Note_on_c, 9, 57, 28
11, 67894, Note_on_c, 9, 57, 0
11, 67896, Note_on_c, 9, 57, 32
11, 67918, Note_on_c, 9, 57, 0
11, 67920, Note_on_c, 9, 57, 35
11, 67942, Note_on_c, 9, 57, 0
11, 67944, Note_on_c, 9, 57, 26
11, 67966, Note_on_c, 9, 57, 0
11, 67968, Note_on_c, 9, 57, 35
11, 67990, Note_on_c, 9, 57, 0
11, 67992, Note_on_c, 9, 57, 26
11, 68014, Note_on_c, 9, 57, 0
11, 68016, Note_on_c, 9, 57, 35
11, 68038, Note_on_c, 9, 57, 0
11, 68040, Note_on_c, 9, 57, 34
11, 68062, Note_on_c, 9, 57, 0
11, 68064, Note_on_c, 9, 57, 32
11, 68086, Note_on_c, 9, 57, 0
11, 68088, Note_on_c, 9, 57, 34
11, 68110, Note_on_c, 9, 57, 0
11, 68112, Note_on_c, 9, 57, 27
11, 68134, Note_on_c, 9, 57, 0
11, 68136, Note_on_c, 9, 57, 33
11, 68158, Note_on_c, 9, 57, 0
11, 68160, Note_on_c, 9, 57, 31
11, 68182, Note_on_c, 9, 57, 0
11, 68184, Note_on_c, 9, 57, 25
11, 68206, Note_on_c, 9, 57, 0
11, 68208, Note_on_c, 9, 57, 34
11, 68230, Note_on_c, 9, 57, 0
11, 68232, Note_on_c, 9, 57, 29
11, 68254, Note_on_c, 9, 57, 0
11, 68256, Note_on_c, 9, 57, 33
11, 68278, Note_on_c, 9, 57, 0
11, 68280, Note_on_c, 9, 57, 31
11, 68302, Note_on_c, 9, 57, 0
11, 68304, Note_on_c, 9, 57, 35
11, 68326, Note_on_c, 9, 57, 0
11, 68328, Note_on_c, 9, 57, 30
11, 68350, Note_on_c, 9, 57, 0
11, 68352, Note_on_c, 9, 57, 32
11, 68374, Note_on_c, 9, 57, 0
11, 68376, Note_on_c, 9, 57, 27
11, 68398, Note_on_c, 9, 57, 0
11, 68400, Note_on_c, 9, 57, 31
11, 68422, Note_on_c, 9, 57, 0
11, 68424, Note_on_c, 9, 57, 32
11, 68446, Note_on_c, 9, 57, 0
11, 68448, Note_on_c, 9, 57, 28
11, 68470, Note_on_c, 9, 57, 0
11, 68472, Note_on_c, 9, 57, 35
11, 68494, Note_on_c, 9, 57, 0
11, 68496, Note_on_c, 9, 57, 28
11, 68518, Note_on_c, 9, 57, 0
11, 68520, Note_on_c, 9, 57, 30
11, 68542, Note_on_c, 9, 57, 0
11, 68544, Note_on_c, 9, 57, 32
11, 68566, Note_on_c, 9, 57, 0
11, 68568, Note_on_c, 9, 57, 33
11, 68590, Note_on_c, 9, 57, 0
11, 68592, Note_on_c, 9, 57, 26
11, 68614, Note_on_c, 9, 57, 0
11, 68616, Note_on_c, 9, 57, 28
11, 68638, Note_on_c, 9, 57, 0
11, 68640, Note_on_c, 9, 57, 31
11, 68662, Note_on_c, 9, 57, 0
11, 68664, Note_on_c, 9, 57, 25
11, 68686, Note_on_c, 9, 57, 0
11, 68688, Note_on_c, 9, 57, 25
11, 68710, Note_on_c, 9, 57, 0
11, 68712, Note_on_c, 9, 57, 35
11, 68734, Note_on_c, 9, 57, 0
11, 68736, Note_on_c, 9, 57, 34
11, 68758, Note_on_c, 9, 57, 0
11, 68760, Note_on_c, 9, 57, 32
11, 68782, Note_on_c, 9, 57, 0
11, 68784, Note_on_c, 9, 57, 28
11, 68806, Note_on_c, 9, 57, 0
11, 68808, Note_on_c, 9, 57, 29
11, 68830, Note_on_c, 9, 57, 0
11, 71136, Note_on_c, 9, 57, 32
11, 71158, Note_on_c, 9, 57, 0
11, 71160, Note_on_c, 9, 57, 32
11, 71182, Note_on_c, 9, 57, 0
11, 71184, Note_on_c, 9, 57, 28
11, 71206, Note_on_c, 9, 57, 0
11, 71208, Note_on_c, 9, 57, 34
11, 71230, Note_on_c, 9, 57, 0
11, 71232, Note_on_c, 9, 57, 33
11, 71254, Note_on_c, 9, 57, 0
11, 71256, Note_on_c, 9, 57, 28
11, 71278, Note_on_c, 9, 57, 0
11, 71280, Note_on_c, 9, 57, 27
11, 71302, Note_on_c, 9, 57, 0
11, 71304, Note_on_c, 9, 57, 35
11, 71326, Note_on_c, 9, 57, 0
11, 71328, Note_on_c, 9, 57, 25
11, 71350, Note_on_c, 9, 57, 0
11, 71352, Note_on_c, 9, 57, 26
11, 71374, Note_on_c, 9, 57, 0
11, 71376, Note_on_c, 9, 57, 27
11, 71398, Note_on_c, 9, 57, 0
11, 71400, Note_on_c, 9, 57, 28
11, 71422, Note_on_c, 9, 57, 0
11, 71424, Note_on_c, 9, 57, 29
11, 71446, Note_on_c, 9, 57, 0
11, 71448, Note_on_c, 9, 57, 25
11, 71470, Note_on_c, 9, 57, 0
11, 71472, Note_on_c, 9, 57, 28
11, 71494, Note_on_c, 9, 57, 0
11, 71496, Note_on_c, 9, 57, 25
11, 71518, Note_on_c, 9, 57, 0
11, 71520, Note_on_c, 9, 57, 30
11, 71542, Note_on_c, 9, 57, 0
11, 71544, Note_on_c, 9, 57, 33
11, 71566, Note_on_c, 9, 57, 0
11, 71568, Note_on_c, 9, 57, 33
11, 71590, Note_on_c, 9, 57, 0
11, 71592, Note_on_c, 9, 57, 32
11, 71614, Note_on_c, 9, 57, 0
11, 71616, Note_on_c, 9, 57, 30
11, 71638, Note_on_c, 9, 57, 0
11, 71640, Note_on_c, 9, 57, 28
11, 71662, Note_on_c, 9, 57, 0
11, 71664, Note_on_c, 9, 57, 27
11, 71686, Note_on_c, 9, 57, 0
11, 71688, Note_on_c, 9, 57, 35
11, 71710, Note_on_c, 9, 57, 0
11, 71712, Note_on_c, 9, 57, 29
11, 71734, Note_on_c, 9, 57, 0
11, 71736, Note_on_c, 9, 57, 31
11, 71758, Note_on_c, 9, 57, 0
11, 71760, Note_on_c, 9, 57, 32
11, 71782, Note_on_c, 9, 57, 0
11, 71784, Note_on_c, 9, 57, 32
11, 71806, Note_on_c, 9, 57, 0
11, 71808, Note_on_c, 9, 57, 33
11, 71830, Note_on_c, 9, 57, 0
11, 71832, Note_on_c, 9, 57, 34
11, 71854, Note_on_c, 9, 57, 0
11, 71856, Note_on_c, 9, 57, 32
11, 71878, Note_on_c, 9, 57, 0
11, 71880, Note_on_c, 9, 57, 34
11, 71902, Note_on_c, 9, 57, 0
11, 71904, Note_on_c, 9, 57, 30
11, 71926, Note_on_c, 9, 57, 0
11, 71928, Note_on_c, 9, 57, 30
11, 71950, Note_on_c, 9, 57, 0
11, 71952, Note_on_c, 9, 57, 25
11, 71974, Note_on_c, 9, 57, 0
11, 71976, Note_on_c, 9, 57, 33
11, 71998, Note_on_c, 9, 57, 0
11, 72000, Note_on_c, 9, 57, 33
11, 72022, Note_on_c, 9, 57, 0
11, 72024, Note_on_c, 9, 57, 25
11, 72046, Note_on_c, 9, 57, 0
11, 72048, Note_on_c, 9, 57, 32
11, 72070, Note_on_c, 9, 57, 0
11, 72072, Note_on_c, 9, 57, 30
11, 72094, Note_on_c, 9, 57, 0
11, 72096, Note_on_c, 9, 57, 30
11, 72118, Note_on_c, 9, 57, 0
11, 72120, Note_on_c, 9, 57, 31
11, 72142, Note_on_c, 9, 57, 0
11, 72144, Note_on_c, 9, 57, 33
11, 72166, Note_on_c, 9, 57, 0
11, 72168, Note_on_c, 9, 57, 30
11, 72190, Note_on_c, 9, 57, 0
11, 72192, Note_on_c, 9, 57, 29
11, 72214, Note_on_c, 9, 57, 0
11, 72216, Note_on_c, 9, 57, 29
11, 72238, Note_on_c, 9, 57, 0
11, 72240, Note_on_c, 9, 57, 28
11, 72262, Note_on_c, 9, 57, 0
11, 72264, Note_on_c, 9, 57, 34
11, 72286, Note_on_c, 9, 57, 0
11, 74592, Note_on_c, 9, 57, 27
11, 74614, Note_on_c, 9, 57, 0
11, 74616, Note_on_c, 9, 57, 30
11, 74638, Note_on_c, 9, 57, 0
11, 74640, Note_on_c, 9, 57, 25
11, 74662, Note_on_c, 9, 57, 0
11, 74664, Note_on_c, 9, 57, 31
11, 74686, Note_on_c, 9, 57, 0
11, 74688, Note_on_c, 9, 57, 26
11, 74710, Note_on_c, 9, 57, 0
11, 74712, Note_on_c, 9, 57, 33
11, 74734, Note_on_c, 9, 57, 0
11, 74736, Note_on_c, 9, 57, 34
11, 74758, Note_on_c, 9, 57, 0
11, 74760, Note_on_c, 9, 57, 29
11, 74782, Note_on_c, 9, 57, 0
11, 74784, Note_on_c, 9, 57, 34
11, 74806, Note_on_c, 9, 57, 0
11, 74808, Note_on_c, 9, 57, 36
11, 74830, Note_on_c, 9, 57, 0
11, 74832, Note_on_c, 9, 57, 32
11, 74854, Note_on_c, 9, 57, 0
11, 74856, Note_on_c, 9, 57, 32
11, 74878, Note_on_c, 9, 57, 0
11, 74880, Note_on_c, 9, 57, 37
11, 74902, Note_on_c, 9, 57, 0
11, 74904, Note_on_c, 9, 57, 37
11, 74926, Note_on_c, 9, 57, 0
11, 74928, Note_on_c, 9, 57, 33
11, 74950, Note_on_c, 9, 57, 0
11, 74952, Note_on_c, 9, 57, 41
11, 74974, Note_on_c, 9, 57, 0
11, 74976, Note_on_c, 9, 57, 37
11, 74998, Note_on_c, 9, 57, 0
11, 75000, Note_on_c, 9, 57, 34
11, 75022, Note_on_c, 9, 57, 0
11, 75024, Note_on_c, 9, 57, 42
11, 75046, Note_on_c, 9, 57, 0
11, 75048, Note_on_c, 9, 57, 45
11, 75070, Note_on_c, 9, 57, 0
11, 75072, Note_on_c, 9, 57, 42
11, 75094, Note_on_c, 9, 57, 0
11, 75096, Note_on_c, 9, 57, 48
11, 75118, Note_on_c, 9, 57, 0
11, 75120, Note_on_c, 9, 57, 45
11, 75142, Note_on_c, 9, 57, 0
11, 75144, Note_on_c, 9, 57, 44
11, 75166, Note_on_c, 9, 57, 0
11, 75168, Note_on_c, 9, 57, 29
11, 75190, Note_on_c, 9, 57, 0
11, 75192, Note_on_c, 9, 57, 31
11, 75214, Note_on_c, 9, 57, 0
11, 75216, Note_on_c, 9, 57, 29
11, 75238, Note_on_c, 9, 57, 0
11, 75240, Note_on_c, 9, 57, 27
11, 75262, Note_on_c, 9, 57, 0
11, 75264, Note_on_c, 9, 57, 28
11, 75286, Note_on_c, 9, 57, 0
11, 75288, Note_on_c, 9, 57, 34
11, 75310, Note_on_c, 9, 57, 0
11, 75312, Note_on_c, 9, 57, 35
11, 75334, Note_on_c, 9, 57, 0
11, 75336, Note_on_c, 9, 57, 29
11, 75358, Note_on_c, 9, 57, 0
11, 75360, Note_on_c, 9, 57, 33
11, 75382, Note_on_c, 9, 57, 0
11, 75384, Note_on_c, 9, 57, 30
11, 75406, Note_on_c, 9, 57, 0
11, 75408, Note_on_c, 9, 57, 27
11, 75430, Note_on_c, 9, 57, 0
11, 75432, Note_on_c, 9, 57, 33
11, 75454, Note_on_c, 9, 57, 0
11, 75456, Note_on_c, 9, 57, 39
11, 75478, Note_on_c, 9, 57, 0
11, 75480, Note_on_c, 9, 57, 40
11, 75502, Note_on_c, 9, 57, 0
11, 75504, Note_on_c, 9, 57, 34
11, 75526, Note_on_c, 9, 57, 0
11, 75528, Note_on_c, 9, 57, 38
11, 75550, Note_on_c, 9, 57, 0
11, 75552, Note_on_c, 9, 57, 39
11, 75574, Note_on_c, 9, 57, 0
11, 75576, Note_on_c, 9, 57, 42
11, 75598, Note_on_c, 9, 57, 0
11, 75600, Note_on_c, 9, 57, 43
11, 75622, Note_on_c, 9, 57, 0
11, 75624, Note_on_c, 9, 57, 38
11, 75646, Note_on_c, 9, 57, 0
11, 75648, Note_on_c, 9, 57, 41
11, 75670, Note_on_c, 9, 57, 0
11, 75672, Note_on_c, 9, 57, 47
11, 75694, Note_on_c, 9, 57, 0
11, 75696, Note_on_c, 9, 57, 46
11, 75718, Note_on_c, 9, 57, 0
11, 75720, Note_on_c, 9, 57, 48
11, 75742, Note_on_c, 9, 57, 0
11, 75744, Note_on_c, 9, 57, 28
11, 75766, Note_on_c, 9, 57, 0
11, 75768, Note_on_c, 9, 57, 35
11, 75790, Note_on_c, 9, 57, 0
11, 75792, Note_on_c, 9, 57, 26
11, 75814, Note_on_c, 9, 57, 0
11, 75816, Note_on_c, 9, 57, 29
11, 75838, Note_on_c, 9, 57, 0
11, 75840, Note_on_c, 9, 57, 35
11, 75862, Note_on_c, 9, 57, 0
11, 75864, Note_on_c, 9, 57, 27
11, 75886, Note_on_c, 9, 57, 0
11, 75888, Note_on_c, 9, 57, 34
11, 75910, Note_on_c, 9, 57, 0
11, 75912, Note_on_c, 9, 57, 34
11, 75934, Note_on_c, 9, 57, 0
11, 75936, Note_on_c, 9, 57, 35
11, 75958, Note_on_c, 9, 57, 0
11, 75960, Note_on_c, 9, 57, 32
11, 75982, Note_on_c, 9, 57, 0
11, 75984, Note_on_c, 9, 57, 28
11, 76006, Note_on_c, 9, 57, 0
11, 76008, Note_on_c, 9, 57, 27
11, 76030, Note_on_c, 9, 57, 0
11, 76032, Note_on_c, 9, 57, 32
11, 76054, Note_on_c, 9, 57, 0
11, 76056, Note_on_c, 9, 57, 35
11, 76078, Note_on_c, 9, 57, 0
11, 76080, Note_on_c, 9, 57, 33
11, 76102, Note_on_c, 9, 57, 0
11, 76104, Note_on_c, 9, 57, 29
11, 76126, Note_on_c, 9, 57, 0
11, 76128, Note_on_c, 9, 57, 34
11, 76150, Note_on_c, 9, 57, 0
11, 76152, Note_on_c, 9, 57, 29
11, 76174, Note_on_c, 9, 57, 0
11, 76176, Note_on_c, 9, 57, 30
11, 76198, Note_on_c, 9, 57, 0
11, 76200, Note_on_c, 9, 57, 30
11, 76222, Note_on_c, 9, 57, 0
11, 76224, Note_on_c, 9, 57, 34
11, 76246, Note_on_c, 9, 57, 0
11, 76248, Note_on_c, 9, 57, 28
11, 76270, Note_on_c, 9, 57, 0
11, 76272, Note_on_c, 9, 57, 28
11, 76294, Note_on_c, 9, 57, 0
11, 76296, Note_on_c, 9, 57, 25
11, 76318, Note_on_c, 9, 57, 0
11, 76320, Note_on_c, 9, 57, 27
11, 76342, Note_on_c, 9, 57, 0
11, 76344, Note_on_c, 9, 57, 29
11, 76366, Note_on_c, 9, 57, 0
11, 76368, Note_on_c, 9, 57, 35
11, 76390, Note_on_c, 9, 57, 0
11, 76392, Note_on_c, 9, 57, 30
11, 76414, Note_on_c, 9, 57, 0
11, 76416, Note_on_c, 9, 57, 35
11, 76438, Note_on_c, 9, 57, 0
11, 76440, Note_on_c, 9, 57, 32
11, 76462, Note_on_c, 9, 57, 0
11, 76464, Note_on_c, 9, 57, 32
11, 76486, Note_on_c, 9, 57, 0
11, 76488, Note_on_c, 9, 57, 35
11, 76510, Note_on_c, 9, 57, 0
11, 76512, Note_on_c, 9, 57, 32
11, 76534, Note_on_c, 9, 57, 0
11, 76536, Note_on_c, 9, 57, 42
11, 76558, Note_on_c, 9, 57, 0
11, 76560, Note_on_c, 9, 57, 41
11, 76582, Note_on_c, 9, 57, 0
11, 76584, Note_on_c, 9, 57, 38
11, 76606, Note_on_c, 9, 57, 0
11, 76608, Note_on_c, 9, 57, 45
11, 76630, Note_on_c, 9, 57, 0
11, 76632, Note_on_c, 9, 57, 37
11, 76654, Note_on_c, 9, 57, 0
11, 76656, Note_on_c, 9, 57, 46
11, 76678, Note_on_c, 9, 57, 0
11, 76680, Note_on_c, 9, 57, 49
11, 76702, Note_on_c, 9, 57, 0
11, 76704, Note_on_c, 9, 57, 50
11, 76798, Note_on_c, 9, 57, 0
11, 77280, Note_on_c, 9, 57, 40
11, 77374, Note_on_c, 9, 57, 0
11, 77856, Note_on_c, 9, 57, 46
11, 77950, Note_on_c, 9, 57, 0
11, 78432, Note_on_c, 9, 57, 49
11, 78526, Note_on_c, 9, 57, 0
11, 79008, Note_on_c, 9, 57, 44
11, 79102, Note_on_c, 9, 57, 0
11, 79584, Note_on_c, 9, 57, 40
11, 79678, Note_on_c, 9, 57, 0
11, 80160, Note_on_c, 9, 57, 79
11, 80254, Note_on_c, 9, 57, 0
11, 80736, Note_on_c, 9, 57, 77
11, 80830, Note_on_c, 9, 57, 0
11, 82080, Note_on_c, 9, 57, 105
11, 82816, Note_on_c, 9, 57, 0
11, 84384, Note_on_c, 9, 57, 107
11, 85696, Note_on_c, 9, 57, 0
11, 122400, Note_on_c, 9, 57, 29
11, 122422, Note_on_c, 9, 57, 0
11, 122424, Note_on_c, 9, 57, 25
11, 122446, Note_on_c, 9, 57, 0
11, 122448, Note_on_c, 9, 57, 35
11, 122470, Note_on_c, 9, 57, 0
11, 122472, Note_on_c, 9, 57, 28
11, 122494, Note_on_c, 9, 57, 0
11, 122496, Note_on_c, 9, 57, 35
11, 122518, Note_on_c, 9, 57, 0
11, 122520, Note_on_c, 9, 57, 33
11, 122542, Note_on_c, 9, 57, 0
11, 122544, Note_on_c, 9, 57, 32
11, 122566, Note_on_c, 9, 57, 0
11, 122568, Note_on_c, 9, 57, 26
11, 122590, Note_on_c, 9, 57, 0
11, 122592, Note_on_c, 9, 57, 35
11, 122614, Note_on_c, 9, 57, 0
11, 122616, Note_on_c, 9, 57, 26
11, 122638, Note_on_c, 9, 57, 0
11, 122640, Note_on_c, 9, 57, 29
11, 122662, Note_on_c, 9, 57, 0
11, 122664, Note_on_c, 9, 57, 31
11, 122686, Note_on_c, 9, 57, 0
11, 122688, Note_on_c, 9, 57, 27
11, 122710, Note_on_c, 9, 57, 0
11, 122712, Note_on_c, 9, 57, 30
11, 122734, Note_on_c, 9, 57, 0
11, 122736, Note_on_c, 9, 57, 26
11, 122758, Note_on_c, 9, 57, 0
11, 122760, Note_on_c, 9, 57, 35
11, 122782, Note_on_c, 9, 57, 0
11, 122784, Note_on_c, 9, 57, 26
11, 122806, Note_on_c, 9, 57, 0
11, 122808, Note_on_c, 9, 57, 33
11, 122830, Note_on_c, 9, 57, 0
11, 122832, Note_on_c, 9, 57, 32
11, 122854, Note_on_c, 9, 57, 0
11, 122856, Note_on_c, 9, 57, 30
11, 122878, Note_on_c, 9, 57, 0
11, 122880, Note_on_c, 9, 57, 33
11, 122902, Note_on_c, 9, 57, 0
11, 122904, Note_on_c, 9, 57, 28
11, 122926, Note_on_c, 9, 57, 0
11, 122928, Note_on_c, 9, 57, 33
11, 122950, Note_on_c, 9, 57, 0
11, 122952, Note_on_c, 9, 57, 34
11, 122974, Note_on_c, 9, 57, 0
11, 123552, Note_on_c, 9, 57, 29
11, 123646, Note_on_c, 9, 57, 0
11, 124704, Note_on_c, 9, 57, 34
11, 124726, Note_on_c, 9, 57, 0
11, 124728, Note_on_c, 9, 57, 30
11, 124750, Note_on_c, 9, 57, 0
11, 124752, Note_on_c, 9, 57, 32
11, 124774, Note_on_c, 9, 57, 0
11, 124776, Note_on_c, 9, 57, 34
11, 124798, Note_on_c, 9, 57, 0
11, 124800, Note_on_c, 9, 57, 34
11, 124822, Note_on_c, 9, 57, 0
11, 124824, Note_on_c, 9, 57, 26
11, 124846, Note_on_c, 9, 57, 0
11, 124848, Note_on_c, 9, 57, 29
11, 124870, Note_on_c, 9, 57, 0
11, 124872, Note_on_c, 9, 57, 28
11, 124894, Note_on_c, 9, 57, 0
11, 124896, Note_on_c, 9, 57, 29
11, 124918, Note_on_c, 9, 57, 0
11, 124920, Note_on_c, 9, 57, 29
11, 124942, Note_on_c, 9, 57, 0
11, 124944, Note_on_c, 9, 57, 35
11, 124966, Note_on_c, 9, 57, 0
11, 124968, Note_on_c, 9, 57, 26
11, 124990, Note_on_c, 9, 57, 0
11, 124992, Note_on_c, 9, 57, 32
11, 125014, Note_on_c, 9, 57, 0
11, 125016, Note_on_c, 9, 57, 27
11, 125038, Note_on_c, 9, 57, 0
11, 125040, Note_on_c, 9, 57, 34
11, 125062, Note_on_c, 9, 57, 0
11, 125064, Note_on_c, 9, 57, 30
11, 125086, Note_on_c, 9, 57, 0
11, 125088, Note_on_c, 9, 57, 25
11, 125110, Note_on_c, 9, 57, 0
11, 125112, Note_on_c, 9, 57, 33
11, 125134, Note_on_c, 9, 57, 0
11, 125136, Note_on_c, 9, 57, 33
11, 125158, Note_on_c, 9, 57, 0
11, 125160, Note_on_c, 9, 57, 35
11, 125182, Note_on_c, 9, 57, 0
11, 125184, Note_on_c, 9, 57, 33
11, 125206, Note_on_c, 9, 57, 0
11, 125208, Note_on_c, 9, 57, 33
11, 125230, Note_on_c, 9, 57, 0
11, 125232, Note_on_c, 9, 57, 29
11, 125254, Note_on_c, 9, 57, 0
11, 125256, Note_on_c, 9, 57, 33
11, 125278, Note_on_c, 9, 57, 0
11, 138528, Note_on_c, 9, 57, 34
11, 138688, Note_on_c, 9, 57, 0
11, 139296, Note_on_c, 9, 57, 30
11, 139456, Note_on_c, 9, 57, 0
11, 140640, Note_on_c, 9, 57, 30
11, 140800, Note_on_c, 9, 57, 0
11, 141792, Note_on_c, 9, 57, 17
11, 141952, Note_on_c, 9, 57, 0
11, 142944, Note_on_c, 9, 57, 18
11, 143104, Note_on_c, 9, 57, 0
11, 143104, End_track
12, 0, Start_track
12, 0, Title_t, "Triangolo"
12, 0, MIDI_port, 0
12, 147, Control_c, 9, 0, 127
12, 148, Control_c, 9, 32, 0
12, 149, Program_c, 9, 48
12, 150, Control_c, 9, 7, 127
12, 151, Control_c, 9, 91, 127
12, 152, Control_c, 9, 99, 22
12, 153, Control_c, 9, 98, 57
12, 154, Control_c, 9, 6, 0
12, 155, Control_c, 9, 99, 23
12, 156, Control_c, 9, 98, 57
12, 157, Control_c, 9, 6, 48
12, 158, Control_c, 9, 99, 24
12, 159, Control_c, 9, 98, 57
12, 160, Control_c, 9, 6, 61
12, 161, Control_c, 9, 101, 127
12, 162, Control_c, 9, 100, 127
12, 11712, Note_on_c, 9, 81, 96
12, 11806, Note_on_c, 9, 81, 0
12, 12288, Note_on_c, 9, 81, 87
12, 12382, Note_on_c, 9, 81, 0
12, 21000, Note_on_c, 9, 81, 91
12, 21022, Note_on_c, 9, 81, 0
12, 21024, Note_on_c, 9, 81, 89
12, 21184, Note_on_c, 9, 81, 0
12, 23304, Note_on_c, 9, 81, 87
12, 23326, Note_on_c, 9, 81, 0
12, 23328, Note_on_c, 9, 81, 95
12, 23488, Note_on_c, 9, 81, 0
12, 28896, Note_on_c, 9, 81, 49
12, 28990, Note_on_c, 9, 81, 0
12, 29472, Note_on_c, 9, 81, 41
12, 29566, Note_on_c, 9, 81, 0
12, 30048, Note_on_c, 9, 81, 46
12, 30142, Note_on_c, 9, 81, 0
12, 30624, Note_on_c, 9, 81, 46
12, 30718, Note_on_c, 9, 81, 0
12, 31200, Note_on_c, 9, 81, 41
12, 31294, Note_on_c, 9, 81, 0
12, 31776, Note_on_c, 9, 81, 46
12, 31870, Note_on_c, 9, 81, 0
12, 52896, Note_on_c, 9, 81, 91
12, 52990, Note_on_c, 9, 81, 0
12, 53472, Note_on_c, 9, 81, 45
12, 53566, Note_on_c, 9, 81, 0
12, 54048, Note_on_c, 9, 81, 25
12, 54142, Note_on_c, 9, 81, 0
12, 54624, Note_on_c, 9, 81, 35
12, 54718, Note_on_c, 9, 81, 0
12, 55200, Note_on_c, 9, 81, 34
12, 55294, Note_on_c, 9, 81, 0
12, 55776, Note_on_c, 9, 81, 27
12, 55870, Note_on_c, 9, 81, 0
12, 56352, Note_on_c, 9, 81, 30
12, 56446, Note_on_c, 9, 81, 0
12, 56928, Note_on_c, 9, 81, 28
12, 57022, Note_on_c, 9, 81, 0
12, 76704, Note_on_c, 9, 81, 49
12, 76798, Note_on_c, 9, 81, 0
12, 77088, Note_on_c, 9, 81, 45
12, 77182, Note_on_c, 9, 81, 0
12, 77664, Note_on_c, 9, 81, 31
12, 77758, Note_on_c, 9, 81, 0
12, 78240, Note_on_c, 9, 81, 35
12, 78334, Note_on_c, 9, 81, 0
12, 78720, Note_on_c, 9, 81, 32
12, 78814, Note_on_c, 9, 81, 0
12, 78912, Note_on_c, 9, 81, 30
12, 79006, Note_on_c, 9, 81, 0
12, 79296, Note_on_c, 9, 81, 26
12, 79390, Note_on_c, 9, 81, 0
12, 79488, Note_on_c, 9, 81, 33
12, 79582, Note_on_c, 9, 81, 0
12, 79872, Note_on_c, 9, 81, 26
12, 79966, Note_on_c, 9, 81, 0
12, 80064, Note_on_c, 9, 81, 30
12, 80158, Note_on_c, 9, 81, 0
12, 80448, Note_on_c, 9, 81, 42
12, 80542, Note_on_c, 9, 81, 0
12, 80640, Note_on_c, 9, 81, 45
12, 80734, Note_on_c, 9, 81, 0
12, 82272, Note_on_c, 9, 81, 88
12, 82294, Note_on_c, 9, 81, 0
12, 82296, Note_on_c, 9, 81, 87
12, 82318, Note_on_c, 9, 81, 0
12, 82320, Note_on_c, 9, 81, 90
12, 82342, Note_on_c, 9, 81, 0
12, 82344, Note_on_c, 9, 81, 95
12, 82366, Note_on_c, 9, 81, 0
12, 82368, Note_on_c, 9, 81, 87
12, 82390, Note_on_c, 9, 81, 0
12, 82392, Note_on_c, 9, 81, 89
12, 82414, Note_on_c, 9, 81, 0
12, 82416, Note_on_c, 9, 81, 92
12, 82438, Note_on_c, 9, 81, 0
12, 82440, Note_on_c, 9, 81, 88
12, 82462, Note_on_c, 9, 81, 0
12, 82464, Note_on_c, 9, 81, 90
12, 82486, Note_on_c, 9, 81, 0
12, 82488, Note_on_c, 9, 81, 91
12, 82510, Note_on_c, 9, 81, 0
12, 82512, Note_on_c, 9, 81, 87
12, 82534, Note_on_c, 9, 81, 0
12, 82536, Note_on_c, 9, 81, 87
12, 82558, Note_on_c, 9, 81, 0
12, 82560, Note_on_c, 9, 81, 98
12, 82582, Note_on_c, 9, 81, 0
12, 82584, Note_on_c, 9, 81, 90
12, 82606, Note_on_c, 9, 81, 0
12, 82608, Note_on_c, 9, 81, 94
12, 82630, Note_on_c, 9, 81, 0
12, 82632, Note_on_c, 9, 81, 101
12, 82654, Note_on_c, 9, 81, 0
12, 82656, Note_on_c, 9, 81, 102
12, 82678, Note_on_c, 9, 81, 0
12, 82680, Note_on_c, 9, 81, 102
12, 82702, Note_on_c, 9, 81, 0
12, 82704, Note_on_c, 9, 81, 99
12, 82726, Note_on_c, 9, 81, 0
12, 82728, Note_on_c, 9, 81, 101
12, 82750, Note_on_c, 9, 81, 0
12, 82752, Note_on_c, 9, 81, 106
12, 82774, Note_on_c, 9, 81, 0
12, 82776, Note_on_c, 9, 81, 105
12, 82798, Note_on_c, 9, 81, 0
12, 82800, Note_on_c, 9, 81, 100
12, 82822, Note_on_c, 9, 81, 0
12, 82824, Note_on_c, 9, 81, 99
12, 82846, Note_on_c, 9, 81, 0
12, 82848, Note_on_c, 9, 81, 107
12, 82870, Note_on_c, 9, 81, 0
12, 82872, Note_on_c, 9, 81, 101
12, 82894, Note_on_c, 9, 81, 0
12, 82896, Note_on_c, 9, 81, 103
12, 82918, Note_on_c, 9, 81, 0
12, 82920, Note_on_c, 9, 81, 112
12, 82942, Note_on_c, 9, 81, 0
12, 122976, Note_on_c, 9, 81, 26
12, 123070, Note_on_c, 9, 81, 0
12, 125280, Note_on_c, 9, 81, 32
12, 125374, Note_on_c, 9, 81, 0
12, 125374, End_track
13, 0, Start_track
13, 0, Title_t, "Glockenspiel & Violino"
13, 0, MIDI_port, 0
13, 141, Control_c, 8, 0, 0
13, 142, Control_c, 8, 32, 0
13, 143, Program_c, 8, 9
13, 144, Control_c, 8, 7, 127
13, 145, Control_c, 8, 91, 127
13, 1728, Note_on_c, 8, 80, 49
13, 1822, Note_on_c, 8, 80, 0
13, 1824, Note_on_c, 8, 73, 40
13, 1918, Note_on_c, 8, 73, 0
13, 2880, Note_on_c, 8, 80, 44
13, 2974, Note_on_c, 8, 80, 0
13, 2976, Note_on_c, 8, 73, 42
13, 3070, Note_on_c, 8, 73, 0
13, 6096, Note_on_c, 8, 72, 25
13, 6142, Note_on_c, 8, 72, 0
13, 6144, Note_on_c, 8, 84, 33
13, 6270, Note_on_c, 8, 84, 0
13, 6272, Note_on_c, 8, 72, 34
13, 6302, Note_on_c, 8, 72, 0
13, 6304, Note_on_c, 8, 84, 26
13, 6334, Note_on_c, 8, 84, 0
13, 6336, Note_on_c, 8, 72, 31
13, 6430, Note_on_c, 8, 72, 0
13, 6672, Note_on_c, 8, 72, 31
13, 6718, Note_on_c, 8, 72, 0
13, 6720, Note_on_c, 8, 84, 26
13, 6846, Note_on_c, 8, 84, 0
13, 6848, Note_on_c, 8, 72, 31
13, 6878, Note_on_c, 8, 72, 0
13, 6880, Note_on_c, 8, 84, 29
13, 6910, Note_on_c, 8, 84, 0
13, 6912, Note_on_c, 8, 72, 30
13, 7006, Note_on_c, 8, 72, 0
13, 7392, Note_on_c, 8, 72, 40
13, 7438, Note_on_c, 8, 72, 0
13, 7440, Note_on_c, 8, 81, 50
13, 7486, Note_on_c, 8, 81, 0
13, 7488, Note_on_c, 8, 71, 72
13, 7534, Note_on_c, 8, 71, 0
13, 7536, Note_on_c, 8, 83, 89
13, 7582, Note_on_c, 8, 83, 0
13, 7968, Note_on_c, 8, 72, 45
13, 8014, Note_on_c, 8, 72, 0
13, 8016, Note_on_c, 8, 81, 43
13, 8062, Note_on_c, 8, 81, 0
13, 8064, Note_on_c, 8, 71, 72
13, 8110, Note_on_c, 8, 71, 0
13, 8112, Note_on_c, 8, 83, 92
13, 8158, Note_on_c, 8, 83, 0
13, 8928, Note_on_c, 8, 70, 31
13, 8958, Note_on_c, 8, 70, 0
13, 8960, Note_on_c, 8, 82, 35
13, 8990, Note_on_c, 8, 82, 0
13, 8992, Note_on_c, 8, 70, 32
13, 9022, Note_on_c, 8, 70, 0
13, 9504, Note_on_c, 8, 70, 30
13, 9534, Note_on_c, 8, 70, 0
13, 9536, Note_on_c, 8, 82, 26
13, 9566, Note_on_c, 8, 82, 0
13, 9568, Note_on_c, 8, 70, 33
13, 9598, Note_on_c, 8, 70, 0
13, 9792, Note_on_c, 8, 70, 26
13, 9822, Note_on_c, 8, 70, 0
13, 9824, Note_on_c, 8, 82, 26
13, 9854, Note_on_c, 8, 82, 0
13, 9856, Note_on_c, 8, 70, 29
13, 9886, Note_on_c, 8, 70, 0
13, 10656, Note_on_c, 8, 82, 43
13, 10702, Note_on_c, 8, 82, 0
13, 10704, Note_on_c, 8, 80, 41
13, 10750, Note_on_c, 8, 80, 0
13, 10752, Note_on_c, 8, 80, 43
13, 10798, Note_on_c, 8, 80, 0
13, 10800, Note_on_c, 8, 78, 49
13, 10846, Note_on_c, 8, 78, 0
13, 10848, Note_on_c, 8, 80, 57
13, 10894, Note_on_c, 8, 80, 0
13, 10896, Note_on_c, 8, 82, 52
13, 10942, Note_on_c, 8, 82, 0
13, 10944, Note_on_c, 8, 78, 57
13, 10990, Note_on_c, 8, 78, 0
13, 10992, Note_on_c, 8, 77, 63
13, 11038, Note_on_c, 8, 77, 0
13, 11040, Note_on_c, 8, 77, 62
13, 11086, Note_on_c, 8, 77, 0
13, 11088, Note_on_c, 8, 75, 67
13, 11134, Note_on_c, 8, 75, 0
13, 11136, Note_on_c, 8, 77, 71
13, 11182, Note_on_c, 8, 77, 0
13, 11184, Note_on_c, 8, 78, 70
13, 11230, Note_on_c, 8, 78, 0
13, 11520, Note_on_c, 8, 84, 87
13, 11566, Note_on_c, 8, 84, 0
13, 11568, Note_on_c, 8, 80, 97
13, 11578, Note_on_c, 8, 80, 0
13, 11584, Note_on_c, 8, 77, 88
13, 11605, Note_on_c, 8, 77, 0
13, 11616, Note_on_c, 8, 72, 91
13, 11637, Note_on_c, 8, 72, 0
13, 11648, Note_on_c, 8, 68, 97
13, 11669, Note_on_c, 8, 68, 0
13, 11680, Note_on_c, 8, 65, 97
13, 11701, Note_on_c, 8, 65, 0
13, 12096, Note_on_c, 8, 84, 96
13, 12142, Note_on_c, 8, 84, 0
13, 12144, Note_on_c, 8, 80, 92
13, 12154, Note_on_c, 8, 80, 0
13, 12160, Note_on_c, 8, 77, 93
13, 12181, Note_on_c, 8, 77, 0
13, 12192, Note_on_c, 8, 72, 97
13, 12213, Note_on_c, 8, 72, 0
13, 12224, Note_on_c, 8, 68, 95
13, 12245, Note_on_c, 8, 68, 0
13, 12256, Note_on_c, 8, 65, 89
13, 12277, Note_on_c, 8, 65, 0
13, 27648, Note_on_c, 8, 85, 40
13, 27694, Note_on_c, 8, 85, 0
13, 27696, Note_on_c, 8, 82, 44
13, 27742, Note_on_c, 8, 82, 0
13, 27744, Note_on_c, 8, 73, 33
13, 27790, Note_on_c, 8, 73, 0
13, 27792, Note_on_c, 8, 70, 30
13, 27838, Note_on_c, 8, 70, 0
13, 28224, Note_on_c, 8, 85, 49
13, 28270, Note_on_c, 8, 85, 0
13, 28272, Note_on_c, 8, 82, 38
13, 28318, Note_on_c, 8, 82, 0
13, 28320, Note_on_c, 8, 73, 40
13, 28366, Note_on_c, 8, 73, 0
13, 28368, Note_on_c, 8, 70, 35
13, 28414, Note_on_c, 8, 70, 0
13, 28800, Note_on_c, 8, 85, 40
13, 28846, Note_on_c, 8, 85, 0
13, 28848, Note_on_c, 8, 82, 41
13, 28894, Note_on_c, 8, 82, 0
13, 28896, Note_on_c, 8, 73, 43
13, 28942, Note_on_c, 8, 73, 0
13, 28944, Note_on_c, 8, 70, 39
13, 28990, Note_on_c, 8, 70, 0
13, 29376, Note_on_c, 8, 85, 50
13, 29422, Note_on_c, 8, 85, 0
13, 29424, Note_on_c, 8, 82, 47
13, 29470, Note_on_c, 8, 82, 0
13, 29472, Note_on_c, 8, 73, 35
13, 29518, Note_on_c, 8, 73, 0
13, 29520, Note_on_c, 8, 70, 29
13, 29566, Note_on_c, 8, 70, 0
13, 29952, Note_on_c, 8, 85, 45
13, 29998, Note_on_c, 8, 85, 0
13, 30000, Note_on_c, 8, 82, 40
13, 30046, Note_on_c, 8, 82, 0
13, 30048, Note_on_c, 8, 73, 45
13, 30094, Note_on_c, 8, 73, 0
13, 30096, Note_on_c, 8, 70, 46
13, 30142, Note_on_c, 8, 70, 0
13, 30528, Note_on_c, 8, 85, 47
13, 30574, Note_on_c, 8, 85, 0
13, 30576, Note_on_c, 8, 82, 43
13, 30622, Note_on_c, 8, 82, 0
13, 30624, Note_on_c, 8, 73, 34
13, 30670, Note_on_c, 8, 73, 0
13, 30672, Note_on_c, 8, 70, 31
13, 30718, Note_on_c, 8, 70, 0
13, 31104, Note_on_c, 8, 85, 44
13, 31150, Note_on_c, 8, 85, 0
13, 31152, Note_on_c, 8, 82, 44
13, 31198, Note_on_c, 8, 82, 0
13, 31200, Note_on_c, 8, 73, 42
13, 31246, Note_on_c, 8, 73, 0
13, 31248, Note_on_c, 8, 70, 43
13, 31294, Note_on_c, 8, 70, 0
13, 31680, Note_on_c, 8, 85, 49
13, 31726, Note_on_c, 8, 85, 0
13, 31728, Note_on_c, 8, 82, 39
13, 31774, Note_on_c, 8, 82, 0
13, 31776, Note_on_c, 8, 73, 38
13, 31822, Note_on_c, 8, 73, 0
13, 31824, Note_on_c, 8, 70, 39
13, 31870, Note_on_c, 8, 70, 0
13, 39456, Program_c, 8, 40
13, 39456, Control_c, 8, 1, 64
13, 40032, Note_on_c, 8, 76, 48
13, 40128, Note_on_c, 8, 76, 0
13, 40128, Note_on_c, 8, 78, 41
13, 40160, Note_on_c, 8, 78, 0
13, 40160, Note_on_c, 8, 76, 44
13, 40192, Note_on_c, 8, 76, 0
13, 40192, Note_on_c, 8, 75, 50
13, 40224, Note_on_c, 8, 75, 0
13, 40224, Note_on_c, 8, 74, 40
13, 40416, Note_on_c, 8, 74, 0
13, 40416, Note_on_c, 8, 75, 48
13, 40512, Note_on_c, 8, 75, 0
13, 40512, Note_on_c, 8, 78, 47
13, 40606, Note_on_c, 8, 78, 0
13, 40608, Note_on_c, 8, 76, 47
13, 40702, Note_on_c, 8, 76, 0
13, 40704, Note_on_c, 8, 78, 43
13, 40734, Note_on_c, 8, 78, 0
13, 40736, Note_on_c, 8, 79, 43
13, 40766, Note_on_c, 8, 79, 0
13, 40768, Note_on_c, 8, 81, 47
13, 40798, Note_on_c, 8, 81, 0
13, 40800, Note_on_c, 8, 82, 40
13, 40832, Note_on_c, 8, 82, 0
13, 40848, Note_on_c, 8, 84, 51
13, 40880, Note_on_c, 8, 84, 0
13, 40896, Note_on_c, 8, 86, 55
13, 40928, Note_on_c, 8, 86, 0
13, 40944, Note_on_c, 8, 87, 71
13, 40968, Note_on_c, 8, 87, 0
13, 40980, Note_on_c, 8, 87, 78
13, 40990, Note_on_c, 8, 87, 0
13, 40992, Note_on_c, 8, 90, 76
13, 41040, Note_on_c, 8, 90, 0
13, 41040, Note_on_c, 8, 88, 80
13, 41072, Note_on_c, 8, 88, 0
13, 41088, Note_on_c, 8, 86, 61
13, 41120, Note_on_c, 8, 86, 0
13, 41136, Note_on_c, 8, 85, 50
13, 41168, Note_on_c, 8, 85, 0
13, 41184, Note_on_c, 8, 82, 40
13, 41216, Note_on_c, 8, 82, 0
13, 41280, Note_on_c, 8, 81, 50
13, 41310, Note_on_c, 8, 81, 0
13, 41312, Note_on_c, 8, 82, 47
13, 41342, Note_on_c, 8, 82, 0
13, 41344, Note_on_c, 8, 81, 50
13, 41374, Note_on_c, 8, 81, 0
13, 41376, Note_on_c, 8, 77, 46
13, 41408, Note_on_c, 8, 77, 0
13, 41472, Note_on_c, 8, 76, 57
13, 41502, Note_on_c, 8, 76, 0
13, 41504, Note_on_c, 8, 77, 58
13, 41534, Note_on_c, 8, 77, 0
13, 41536, Note_on_c, 8, 76, 60
13, 41566, Note_on_c, 8, 76, 0
13, 41568, Note_on_c, 8, 73, 60
13, 41600, Note_on_c, 8, 73, 0
13, 41616, Note_on_c, 8, 77, 61
13, 41648, Note_on_c, 8, 77, 0
13, 41664, Note_on_c, 8, 80, 74
13, 41696, Note_on_c, 8, 80, 0
13, 41712, Note_on_c, 8, 81, 68
13, 41744, Note_on_c, 8, 81, 0
13, 41760, Note_on_c, 8, 82, 71
13, 41856, Note_on_c, 8, 82, 0
13, 41856, Note_on_c, 8, 81, 77
13, 41888, Note_on_c, 8, 81, 0
13, 41888, Note_on_c, 8, 82, 72
13, 41920, Note_on_c, 8, 82, 0
13, 41920, Note_on_c, 8, 81, 73
13, 41952, Note_on_c, 8, 81, 0
13, 41952, Note_on_c, 8, 77, 73
13, 42048, Note_on_c, 8, 77, 0
13, 42048, Note_on_c, 8, 76, 60
13, 42080, Note_on_c, 8, 76, 0
13, 42080, Note_on_c, 8, 77, 62
13, 42112, Note_on_c, 8, 77, 0
13, 42112, Note_on_c, 8, 76, 58
13, 42144, Note_on_c, 8, 76, 0
13, 42144, Note_on_c, 8, 73, 57
13, 42240, Note_on_c, 8, 73, 0
13, 42240, Note_on_c, 8, 72, 50
13, 42272, Note_on_c, 8, 72, 0
13, 42272, Note_on_c, 8, 73, 49
13, 42304, Note_on_c, 8, 73, 0
13, 42304, Note_on_c, 8, 72, 42
13, 42336, Note_on_c, 8, 72, 0
13, 42336, Note_on_c, 8, 70, 47
13, 42430, Note_on_c, 8, 70, 0
13, 42912, Control_c, 8, 11, 64
13, 42912, Note_on_c, 8, 83, 75
13, 42921, Control_c, 8, 11, 65
13, 42930, Control_c, 8, 11, 66
13, 42939, Control_c, 8, 11, 67
13, 42948, Control_c, 8, 11, 68
13, 42957, Control_c, 8, 11, 69
13, 42966, Control_c, 8, 11, 70
13, 42976, Control_c, 8, 11, 71
13, 42985, Control_c, 8, 11, 72
13, 42994, Control_c, 8, 11, 73
13, 43003, Control_c, 8, 11, 74
13, 43008, Note_on_c, 8, 83, 0
13, 43008, Note_on_c, 8, 85, 71
13, 43012, Control_c, 8, 11, 75
13, 43021, Control_c, 8, 11, 76
13, 43030, Control_c, 8, 11, 77
13, 43040, Control_c, 8, 11, 78
13, 43049, Control_c, 8, 11, 79
13, 43058, Control_c, 8, 11, 80
13, 43067, Control_c, 8, 11, 81
13, 43076, Control_c, 8, 11, 82
13, 43085, Control_c, 8, 11, 83
13, 43094, Control_c, 8, 11, 84
13, 43104, Note_on_c, 8, 85, 0
13, 43104, Control_c, 8, 11, 85
13, 43104, Note_on_c, 8, 87, 70
13, 43113, Control_c, 8, 11, 86
13, 43122, Control_c, 8, 11, 87
13, 43131, Control_c, 8, 11, 88
13, 43140, Control_c, 8, 11, 89
13, 43149, Control_c, 8, 11, 90
13, 43158, Control_c, 8, 11, 91
13, 43168, Control_c, 8, 11, 92
13, 43177, Control_c, 8, 11, 93
13, 43186, Control_c, 8, 11, 94
13, 43195, Control_c, 8, 11, 95
13, 43200, Note_on_c, 8, 87, 0
13, 43200, Note_on_c, 8, 90, 71
13, 43204, Control_c, 8, 11, 96
13, 43213, Control_c, 8, 11, 97
13, 43222, Control_c, 8, 11, 98
13, 43232, Control_c, 8, 11, 99
13, 43241, Control_c, 8, 11, 100
13, 43250, Control_c, 8, 11, 101
13, 43259, Control_c, 8, 11, 102
13, 43268, Control_c, 8, 11, 103
13, 43277, Control_c, 8, 11, 104
13, 43286, Control_c, 8, 11, 105
13, 43296, Note_on_c, 8, 90, 0
13, 43296, Control_c, 8, 11, 106
13, 43296, Note_on_c, 8, 92, 70
13, 43305, Control_c, 8, 11, 107
13, 43314, Control_c, 8, 11, 108
13, 43323, Control_c, 8, 11, 109
13, 43332, Control_c, 8, 11, 110
13, 43341, Control_c, 8, 11, 111
13, 43350, Control_c, 8, 11, 112
13, 43360, Note_on_c, 8, 92, 0
13, 43360, Control_c, 8, 11, 113
13, 43360, Note_on_c, 8, 90, 78
13, 43369, Control_c, 8, 11, 114
13, 43378, Control_c, 8, 11, 115
13, 43387, Control_c, 8, 11, 116
13, 43396, Control_c, 8, 11, 117
13, 43405, Control_c, 8, 11, 118
13, 43414, Control_c, 8, 11, 119
13, 43424, Note_on_c, 8, 90, 0
13, 43424, Control_c, 8, 11, 120
13, 43424, Note_on_c, 8, 87, 72
13, 43433, Control_c, 8, 11, 121
13, 43442, Control_c, 8, 11, 122
13, 43451, Control_c, 8, 11, 123
13, 43460, Control_c, 8, 11, 124
13, 43469, Control_c, 8, 11, 125
13, 43478, Control_c, 8, 11, 126
13, 43488, Note_on_c, 8, 87, 0
13, 43488, Control_c, 8, 11, 127
13, 43488, Note_on_c, 8, 82, 77
13, 43582, Note_on_c, 8, 82, 0
13, 45216, Control_c, 8, 1, 0
13, 45792, Program_c, 8, 9
13, 47520, Note_on_c, 8, 79, 41
13, 47566, Note_on_c, 8, 79, 0
13, 47568, Note_on_c, 8, 78, 44
13, 47600, Note_on_c, 8, 78, 0
13, 47616, Note_on_c, 8, 78, 50
13, 47662, Note_on_c, 8, 78, 0
13, 47664, Note_on_c, 8, 76, 50
13, 47696, Note_on_c, 8, 76, 0
13, 47712, Note_on_c, 8, 76, 47
13, 47758, Note_on_c, 8, 76, 0
13, 47760, Note_on_c, 8, 75, 40
13, 47792, Note_on_c, 8, 75, 0
13, 47808, Note_on_c, 8, 75, 50
13, 47854, Note_on_c, 8, 75, 0
13, 47856, Note_on_c, 8, 73, 47
13, 47888, Note_on_c, 8, 73, 0
13, 47904, Note_on_c, 8, 73, 50
13, 47950, Note_on_c, 8, 73, 0
13, 47952, Note_on_c, 8, 75, 47
13, 47984, Note_on_c, 8, 75, 0
13, 48000, Note_on_c, 8, 76, 50
13, 48046, Note_on_c, 8, 76, 0
13, 48048, Note_on_c, 8, 78, 47
13, 48080, Note_on_c, 8, 78, 0
13, 48096, Note_on_c, 8, 79, 41
13, 48142, Note_on_c, 8, 79, 0
13, 48144, Note_on_c, 8, 78, 45
13, 48176, Note_on_c, 8, 78, 0
13, 48192, Note_on_c, 8, 78, 46
13, 48238, Note_on_c, 8, 78, 0
13, 48240, Note_on_c, 8, 76, 49
13, 48272, Note_on_c, 8, 76, 0
13, 48288, Note_on_c, 8, 76, 48
13, 48334, Note_on_c, 8, 76, 0
13, 48336, Note_on_c, 8, 75, 50
13, 48368, Note_on_c, 8, 75, 0
13, 48384, Note_on_c, 8, 75, 42
13, 48430, Note_on_c, 8, 75, 0
13, 48432, Note_on_c, 8, 73, 44
13, 48464, Note_on_c, 8, 73, 0
13, 48480, Note_on_c, 8, 73, 49
13, 48526, Note_on_c, 8, 73, 0
13, 48528, Note_on_c, 8, 75, 43
13, 48560, Note_on_c, 8, 75, 0
13, 48576, Note_on_c, 8, 76, 49
13, 48622, Note_on_c, 8, 76, 0
13, 48624, Note_on_c, 8, 78, 45
13, 48656, Note_on_c, 8, 78, 0
13, 80160, Note_on_c, 8, 67, 44
13, 80190, Note_on_c, 8, 67, 0
13, 80192, Note_on_c, 8, 70, 50
13, 80222, Note_on_c, 8, 70, 0
13, 80224, Note_on_c, 8, 72, 51
13, 80254, Note_on_c, 8, 72, 0
13, 80256, Note_on_c, 8, 73, 61
13, 80286, Note_on_c, 8, 73, 0
13, 80288, Note_on_c, 8, 75, 59
13, 80318, Note_on_c, 8, 75, 0
13, 80320, Note_on_c, 8, 77, 68
13, 80350, Note_on_c, 8, 77, 0
13, 80352, Note_on_c, 8, 79, 74
13, 80446, Note_on_c, 8, 79, 0
13, 80736, Note_on_c, 8, 67, 72
13, 80766, Note_on_c, 8, 67, 0
13, 80768, Note_on_c, 8, 70, 72
13, 80798, Note_on_c, 8, 70, 0
13, 80800, Note_on_c, 8, 72, 80
13, 80830, Note_on_c, 8, 72, 0
13, 80832, Note_on_c, 8, 73, 79
13, 80862, Note_on_c, 8, 73, 0
13, 80864, Note_on_c, 8, 75, 88
13, 80894, Note_on_c, 8, 75, 0
13, 80896, Note_on_c, 8, 77, 88
13, 80926, Note_on_c, 8, 77, 0
13, 80928, Note_on_c, 8, 80, 95
13, 81022, Note_on_c, 8, 80, 0
13, 88800, Note_on_c, 8, 73, 40
13, 88846, Note_on_c, 8, 73, 0
13, 88848, Note_on_c, 8, 75, 46
13, 88894, Note_on_c, 8, 75, 0
13, 88896, Note_on_c, 8, 76, 55
13, 88942, Note_on_c, 8, 76, 0
13, 88944, Note_on_c, 8, 78, 62
13, 88990, Note_on_c, 8, 78, 0
13, 88992, Note_on_c, 8, 80, 33
13, 89086, Note_on_c, 8, 80, 0
13, 91104, Note_on_c, 8, 73, 50
13, 91150, Note_on_c, 8, 73, 0
13, 91152, Note_on_c, 8, 75, 45
13, 91198, Note_on_c, 8, 75, 0
13, 91200, Note_on_c, 8, 76, 51
13, 91246, Note_on_c, 8, 76, 0
13, 91248, Note_on_c, 8, 78, 64
13, 91294, Note_on_c, 8, 78, 0
13, 91296, Note_on_c, 8, 80, 76
13, 91390, Note_on_c, 8, 80, 0
13, 129312, Note_on_c, 8, 87, 25
13, 129472, Note_on_c, 8, 87, 0
13, 129888, Note_on_c, 8, 73, 26
13, 130048, Note_on_c, 8, 73, 0
13, 130464, Note_on_c, 8, 87, 33
13, 130624, Note_on_c, 8, 87, 0
13, 131040, Note_on_c, 8, 73, 31
13, 131200, Note_on_c, 8, 73, 0
13, 131712, Note_on_c, 8, 65, 34
13, 131808, Note_on_c, 8, 65, 0
13, 131808, Note_on_c, 8, 67, 35
13, 132096, Note_on_c, 8, 67, 0
13, 132096, Note_on_c, 8, 65, 26
13, 132192, Note_on_c, 8, 65, 0
13, 132192, Note_on_c, 8, 67, 32
13, 132480, Note_on_c, 8, 67, 0
13, 132480, Note_on_c, 8, 65, 30
13, 132576, Note_on_c, 8, 65, 0
13, 132576, Note_on_c, 8, 67, 34
13, 132736, Note_on_c, 8, 67, 0
13, 132864, Note_on_c, 8, 65, 26
13, 132960, Note_on_c, 8, 65, 0
13, 132960, Note_on_c, 8, 67, 27
13, 133248, Note_on_c, 8, 67, 0
13, 133248, Note_on_c, 8, 65, 29
13, 133344, Note_on_c, 8, 65, 0
13, 133344, Note_on_c, 8, 67, 28
13, 133632, Note_on_c, 8, 67, 0
13, 133632, Note_on_c, 8, 65, 29
13, 133728, Note_on_c, 8, 65, 0
13, 133728, Note_on_c, 8, 67, 27
13, 133888, Note_on_c, 8, 67, 0
13, 141408, Note_on_c, 8, 71, 33
13, 141470, Note_on_c, 8, 71, 0
13, 141472, Note_on_c, 8, 73, 25
13, 141534, Note_on_c, 8, 73, 0
13, 141536, Note_on_c, 8, 83, 29
13, 141598, Note_on_c, 8, 83, 0
13, 141600, Note_on_c, 8, 85, 25
13, 141760, Note_on_c, 8, 85, 0
13, 141760, End_track
14, 0, Start_track
14, 0, Title_t, "Arpe I - II"
14, 0, MIDI_port, 0
14, 164, Control_c, 10, 0, 0
14, 165, Control_c, 10, 32, 0
14, 166, Program_c, 10, 46
14, 167, Control_c, 10, 7, 127
14, 168, Control_c, 10, 91, 64
14, 1920, Note_on_c, 10, 68, 40
14, 1966, Note_on_c, 10, 68, 0
14, 1968, Note_on_c, 10, 61, 47
14, 2014, Note_on_c, 10, 61, 0
14, 2016, Note_on_c, 10, 57, 44
14, 2062, Note_on_c, 10, 57, 0
14, 2064, Note_on_c, 10, 56, 44
14, 2110, Note_on_c, 10, 56, 0
14, 2112, Note_on_c, 10, 49, 43
14, 2158, Note_on_c, 10, 49, 0
14, 2160, Note_on_c, 10, 56, 40
14, 2206, Note_on_c, 10, 56, 0
14, 2208, Note_on_c, 10, 57, 37
14, 2254, Note_on_c, 10, 57, 0
14, 2256, Note_on_c, 10, 61, 34
14, 2302, Note_on_c, 10, 61, 0
14, 3072, Note_on_c, 10, 47, 50
14, 3118, Note_on_c, 10, 47, 0
14, 3120, Note_on_c, 10, 40, 49
14, 3166, Note_on_c, 10, 40, 0
14, 3168, Note_on_c, 10, 57, 40
14, 3214, Note_on_c, 10, 57, 0
14, 3216, Note_on_c, 10, 56, 43
14, 3262, Note_on_c, 10, 56, 0
14, 3264, Note_on_c, 10, 49, 34
14, 3310, Note_on_c, 10, 49, 0
14, 3312, Note_on_c, 10, 56, 37
14, 3358, Note_on_c, 10, 56, 0
14, 3360, Note_on_c, 10, 57, 30
14, 3406, Note_on_c, 10, 57, 0
14, 3408, Note_on_c, 10, 61, 28
14, 3454, Note_on_c, 10, 61, 0
14, 5760, Note_on_c, 10, 35, 26
14, 5790, Note_on_c, 10, 35, 0
14, 5792, Note_on_c, 10, 40, 30
14, 5822, Note_on_c, 10, 40, 0
14, 5824, Note_on_c, 10, 43, 28
14, 5854, Note_on_c, 10, 43, 0
14, 5856, Note_on_c, 10, 50, 35
14, 5950, Note_on_c, 10, 50, 0
14, 6336, Note_on_c, 10, 35, 26
14, 6366, Note_on_c, 10, 35, 0
14, 6368, Note_on_c, 10, 40, 26
14, 6398, Note_on_c, 10, 40, 0
14, 6400, Note_on_c, 10, 43, 32
14, 6430, Note_on_c, 10, 43, 0
14, 6432, Note_on_c, 10, 50, 34
14, 6526, Note_on_c, 10, 50, 0
14, 7200, Note_on_c, 10, 49, 50
14, 7294, Note_on_c, 10, 49, 0
14, 7296, Note_on_c, 10, 50, 55
14, 7390, Note_on_c, 10, 50, 0
14, 7392, Note_on_c, 10, 49, 50
14, 7486, Note_on_c, 10, 49, 0
14, 7488, Note_on_c, 10, 50, 56
14, 7582, Note_on_c, 10, 50, 0
14, 7584, Note_on_c, 10, 49, 40
14, 7678, Note_on_c, 10, 49, 0
14, 7680, Note_on_c, 10, 50, 56
14, 7774, Note_on_c, 10, 50, 0
14, 7776, Note_on_c, 10, 49, 47
14, 7870, Note_on_c, 10, 49, 0
14, 7872, Note_on_c, 10, 50, 62
14, 7966, Note_on_c, 10, 50, 0
14, 7968, Note_on_c, 10, 49, 42
14, 8062, Note_on_c, 10, 49, 0
14, 8064, Note_on_c, 10, 50, 63
14, 8158, Note_on_c, 10, 50, 0
14, 8160, Note_on_c, 10, 49, 49
14, 8254, Note_on_c, 10, 49, 0
14, 8256, Note_on_c, 10, 50, 55
14, 8350, Note_on_c, 10, 50, 0
14, 8640, Note_on_c, 10, 44, 31
14, 8670, Note_on_c, 10, 44, 0
14, 8672, Note_on_c, 10, 51, 29
14, 8702, Note_on_c, 10, 51, 0
14, 8704, Note_on_c, 10, 54, 31
14, 8734, Note_on_c, 10, 54, 0
14, 8736, Note_on_c, 10, 58, 34
14, 8766, Note_on_c, 10, 58, 0
14, 8768, Note_on_c, 10, 65, 33
14, 8798, Note_on_c, 10, 65, 0
14, 8800, Note_on_c, 10, 66, 35
14, 8830, Note_on_c, 10, 66, 0
14, 8832, Note_on_c, 10, 70, 27
14, 8862, Note_on_c, 10, 70, 0
14, 8864, Note_on_c, 10, 77, 27
14, 8894, Note_on_c, 10, 77, 0
14, 8896, Note_on_c, 10, 78, 31
14, 8926, Note_on_c, 10, 78, 0
14, 9216, Note_on_c, 10, 65, 34
14, 9246, Note_on_c, 10, 65, 0
14, 9248, Note_on_c, 10, 72, 32
14, 9278, Note_on_c, 10, 72, 0
14, 9280, Note_on_c, 10, 75, 31
14, 9310, Note_on_c, 10, 75, 0
14, 9312, Note_on_c, 10, 58, 25
14, 9342, Note_on_c, 10, 58, 0
14, 9344, Note_on_c, 10, 65, 29
14, 9374, Note_on_c, 10, 65, 0
14, 9376, Note_on_c, 10, 66, 29
14, 9406, Note_on_c, 10, 66, 0
14, 9408, Note_on_c, 10, 70, 30
14, 9438, Note_on_c, 10, 70, 0
14, 9440, Note_on_c, 10, 77, 28
14, 9470, Note_on_c, 10, 77, 0
14, 9472, Note_on_c, 10, 78, 31
14, 9502, Note_on_c, 10, 78, 0
14, 10656, Note_on_c, 10, 44, 40
14, 10656, Note_on_c, 10, 32, 40
14, 10798, Note_on_c, 10, 44, 0
14, 10798, Note_on_c, 10, 32, 0
14, 10800, Note_on_c, 10, 39, 47
14, 10800, Note_on_c, 10, 51, 47
14, 10942, Note_on_c, 10, 39, 0
14, 10942, Note_on_c, 10, 51, 0
14, 10944, Note_on_c, 10, 56, 61
14, 10944, Note_on_c, 10, 44, 61
14, 11086, Note_on_c, 10, 56, 0
14, 11086, Note_on_c, 10, 44, 0
14, 11088, Note_on_c, 10, 51, 78
14, 11088, Note_on_c, 10, 63, 78
14, 11230, Note_on_c, 10, 51, 0
14, 11230, Note_on_c, 10, 63, 0
14, 11424, Note_on_c, 10, 72, 94
14, 11424, Note_on_c, 10, 58, 96
14, 11424, Note_on_c, 10, 65, 97
14, 11424, Note_on_c, 10, 68, 87
14, 11424, Note_on_c, 10, 62, 95
14, 11614, Note_on_c, 10, 72, 0
14, 11614, Note_on_c, 10, 58, 0
14, 11614, Note_on_c, 10, 65, 0
14, 11614, Note_on_c, 10, 68, 0
14, 11614, Note_on_c, 10, 62, 0
14, 12000, Note_on_c, 10, 68, 90
14, 12000, Note_on_c, 10, 58, 94
14, 12000, Note_on_c, 10, 72, 90
14, 12000, Note_on_c, 10, 62, 93
14, 12000, Note_on_c, 10, 65, 87
14, 12190, Note_on_c, 10, 68, 0
14, 12190, Note_on_c, 10, 58, 0
14, 12190, Note_on_c, 10, 72, 0
14, 12190, Note_on_c, 10, 62, 0
14, 12190, Note_on_c, 10, 65, 0
14, 12672, Note_on_c, 10, 46, 97
14, 12960, Note_on_c, 10, 46, 0
14, 12960, Note_on_c, 10, 44, 73
14, 13248, Note_on_c, 10, 44, 0
14, 13248, Note_on_c, 10, 42, 42
14, 13504, Note_on_c, 10, 42, 0
14, 20448, Note_on_c, 10, 57, 48
14, 20448, Note_on_c, 10, 61, 46
14, 20448, Note_on_c, 10, 53, 49
14, 20478, Note_on_c, 10, 57, 0
14, 20478, Note_on_c, 10, 61, 0
14, 20478, Note_on_c, 10, 53, 0
14, 20480, Note_on_c, 10, 61, 49
14, 20480, Note_on_c, 10, 55, 40
14, 20480, Note_on_c, 10, 59, 46
14, 20510, Note_on_c, 10, 61, 0
14, 20510, Note_on_c, 10, 55, 0
14, 20510, Note_on_c, 10, 59, 0
14, 20512, Note_on_c, 10, 57, 45
14, 20512, Note_on_c, 10, 61, 50
14, 20512, Note_on_c, 10, 63, 48
14, 20542, Note_on_c, 10, 57, 0
14, 20542, Note_on_c, 10, 61, 0
14, 20542, Note_on_c, 10, 63, 0
14, 20544, Note_on_c, 10, 65, 42
14, 20544, Note_on_c, 10, 59, 51
14, 20544, Note_on_c, 10, 61, 44
14, 20574, Note_on_c, 10, 65, 0
14, 20574, Note_on_c, 10, 59, 0
14, 20574, Note_on_c, 10, 61, 0
14, 20576, Note_on_c, 10, 61, 47
14, 20576, Note_on_c, 10, 63, 46
14, 20576, Note_on_c, 10, 67, 50
14, 20606, Note_on_c, 10, 61, 0
14, 20606, Note_on_c, 10, 63, 0
14, 20606, Note_on_c, 10, 67, 0
14, 20608, Note_on_c, 10, 65, 50
14, 20608, Note_on_c, 10, 69, 54
14, 20608, Note_on_c, 10, 61, 48
14, 20638, Note_on_c, 10, 65, 0
14, 20638, Note_on_c, 10, 69, 0
14, 20638, Note_on_c, 10, 61, 0
14, 20640, Note_on_c, 10, 67, 51
14, 20640, Note_on_c, 10, 71, 49
14, 20640, Note_on_c, 10, 63, 55
14, 20670, Note_on_c, 10, 67, 0
14, 20670, Note_on_c, 10, 71, 0
14, 20670, Note_on_c, 10, 63, 0
14, 20672, Note_on_c, 10, 69, 53
14, 20672, Note_on_c, 10, 65, 52
14, 20672, Note_on_c, 10, 73, 56
14, 20702, Note_on_c, 10, 69, 0
14, 20702, Note_on_c, 10, 65, 0
14, 20702, Note_on_c, 10, 73, 0
14, 20704, Note_on_c, 10, 67, 56
14, 20704, Note_on_c, 10, 71, 50
14, 20704, Note_on_c, 10, 73, 52
14, 20734, Note_on_c, 10, 67, 0
14, 20734, Note_on_c, 10, 71, 0
14, 20734, Note_on_c, 10, 73, 0
14, 20736, Note_on_c, 10, 75, 61
14, 20736, Note_on_c, 10, 73, 60
14, 20736, Note_on_c, 10, 69, 56
14, 20758, Note_on_c, 10, 75, 0
14, 20758, Note_on_c, 10, 73, 0
14, 20758, Note_on_c, 10, 69, 0
14, 20760, Note_on_c, 10, 71, 60
14, 20760, Note_on_c, 10, 77, 58
14, 20760, Note_on_c, 10, 73, 62
14, 20782, Note_on_c, 10, 71, 0
14, 20782, Note_on_c, 10, 77, 0
14, 20782, Note_on_c, 10, 73, 0
14, 20784, Note_on_c, 10, 79, 61
14, 20784, Note_on_c, 10, 75, 60
14, 20784, Note_on_c, 10, 73, 57
14, 20806, Note_on_c, 10, 79, 0
14, 20806, Note_on_c, 10, 75, 0
14, 20806, Note_on_c, 10, 73, 0
14, 20808, Note_on_c, 10, 73, 63
14, 20808, Note_on_c, 10, 77, 63
14, 20808, Note_on_c, 10, 81, 60
14, 20830, Note_on_c, 10, 73, 0
14, 20830, Note_on_c, 10, 77, 0
14, 20830, Note_on_c, 10, 81, 0
14, 20832, Note_on_c, 10, 75, 64
14, 20832, Note_on_c, 10, 83, 57
14, 20832, Note_on_c, 10, 79, 60
14, 20854, Note_on_c, 10, 75, 0
14, 20854, Note_on_c, 10, 83, 0
14, 20854, Note_on_c, 10, 79, 0
14, 20856, Note_on_c, 10, 85, 59
14, 20856, Note_on_c, 10, 77, 60
14, 20856, Note_on_c, 10, 81, 64
14, 20878, Note_on_c, 10, 85, 0
14, 20878, Note_on_c, 10, 77, 0
14, 20878, Note_on_c, 10, 81, 0
14, 20880, Note_on_c, 10, 83, 62
14, 20880, Note_on_c, 10, 85, 65
14, 20880, Note_on_c, 10, 79, 63
14, 20902, Note_on_c, 10, 83, 0
14, 20902, Note_on_c, 10, 85, 0
14, 20902, Note_on_c, 10, 79, 0
14, 20904, Note_on_c, 10, 87, 67
14, 20904, Note_on_c, 10, 81, 64
14, 20904, Note_on_c, 10, 85, 63
14, 20926, Note_on_c, 10, 87, 0
14, 20926, Note_on_c, 10, 81, 0
14, 20926, Note_on_c, 10, 85, 0
14, 20928, Note_on_c, 10, 83, 68
14, 20928, Note_on_c, 10, 85, 72
14, 20928, Note_on_c, 10, 89, 62
14, 20950, Note_on_c, 10, 83, 0
14, 20950, Note_on_c, 10, 85, 0
14, 20950, Note_on_c, 10, 89, 0
14, 20952, Note_on_c, 10, 85, 66
14, 20952, Note_on_c, 10, 91, 67
14, 20952, Note_on_c, 10, 87, 68
14, 20974, Note_on_c, 10, 85, 0
14, 20974, Note_on_c, 10, 91, 0
14, 20974, Note_on_c, 10, 87, 0
14, 20976, Note_on_c, 10, 93, 68
14, 20976, Note_on_c, 10, 85, 70
14, 20976, Note_on_c, 10, 89, 75
14, 20998, Note_on_c, 10, 93, 0
14, 20998, Note_on_c, 10, 85, 0
14, 20998, Note_on_c, 10, 89, 0
14, 21000, Note_on_c, 10, 91, 70
14, 21000, Note_on_c, 10, 95, 73
14, 21000, Note_on_c, 10, 87, 73
14, 21022, Note_on_c, 10, 91, 0
14, 21022, Note_on_c, 10, 95, 0
14, 21022, Note_on_c, 10, 87, 0
14, 21024, Note_on_c, 10, 95, 78
14, 21024, Note_on_c, 10, 91, 79
14, 21024, Note_on_c, 10, 89, 72
14, 21024, Note_on_c, 10, 93, 80
14, 21024, Note_on_c, 10, 97, 72
14, 21024, Note_on_c, 10, 97, 77
14, 21054, Note_on_c, 10, 95, 0
14, 21054, Note_on_c, 10, 91, 0
14, 21054, Note_on_c, 10, 89, 0
14, 21054, Note_on_c, 10, 93, 0
14, 21054, Note_on_c, 10, 97, 0
14, 21054, Note_on_c, 10, 97, 0
14, 21056, Note_on_c, 10, 95, 77
14, 21056, Note_on_c, 10, 91, 72
14, 21056, Note_on_c, 10, 89, 76
14, 21056, Note_on_c, 10, 97, 72
14, 21056, Note_on_c, 10, 97, 79
14, 21056, Note_on_c, 10, 93, 80
14, 21086, Note_on_c, 10, 95, 0
14, 21086, Note_on_c, 10, 91, 0
14, 21086, Note_on_c, 10, 89, 0
14, 21086, Note_on_c, 10, 97, 0
14, 21086, Note_on_c, 10, 97, 0
14, 21086, Note_on_c, 10, 93, 0
14, 21088, Note_on_c, 10, 87, 71
14, 21088, Note_on_c, 10, 95, 69
14, 21088, Note_on_c, 10, 91, 76
14, 21118, Note_on_c, 10, 87, 0
14, 21118, Note_on_c, 10, 95, 0
14, 21118, Note_on_c, 10, 91, 0
14, 21120, Note_on_c, 10, 93, 68
14, 21120, Note_on_c, 10, 85, 73
14, 21120, Note_on_c, 10, 89, 68
14, 21150, Note_on_c, 10, 93, 0
14, 21150, Note_on_c, 10, 85, 0
14, 21150, Note_on_c, 10, 89, 0
14, 21152, Note_on_c, 10, 87, 72
14, 21152, Note_on_c, 10, 85, 68
14, 21152, Note_on_c, 10, 91, 70
14, 21182, Note_on_c, 10, 87, 0
14, 21182, Note_on_c, 10, 85, 0
14, 21182, Note_on_c, 10, 91, 0
14, 21184, Note_on_c, 10, 83, 76
14, 21184, Note_on_c, 10, 89, 67
14, 21184, Note_on_c, 10, 85, 67
14, 21214, Note_on_c, 10, 83, 0
14, 21214, Note_on_c, 10, 89, 0
14, 21214, Note_on_c, 10, 85, 0
14, 21216, Note_on_c, 10, 81, 71
14, 21216, Note_on_c, 10, 87, 74
14, 21216, Note_on_c, 10, 85, 73
14, 21246, Note_on_c, 10, 81, 0
14, 21246, Note_on_c, 10, 87, 0
14, 21246, Note_on_c, 10, 85, 0
14, 21248, Note_on_c, 10, 85, 63
14, 21248, Note_on_c, 10, 79, 62
14, 21248, Note_on_c, 10, 83, 72
14, 21278, Note_on_c, 10, 85, 0
14, 21278, Note_on_c, 10, 79, 0
14, 21278, Note_on_c, 10, 83, 0
14, 21280, Note_on_c, 10, 77, 60
14, 21280, Note_on_c, 10, 85, 67
14, 21280, Note_on_c, 10, 81, 61
14, 21310, Note_on_c, 10, 77, 0
14, 21310, Note_on_c, 10, 85, 0
14, 21310, Note_on_c, 10, 81, 0
14, 21312, Note_on_c, 10, 79, 66
14, 21312, Note_on_c, 10, 73, 65
14, 21312, Note_on_c, 10, 75, 60
14, 21342, Note_on_c, 10, 79, 0
14, 21342, Note_on_c, 10, 73, 0
14, 21342, Note_on_c, 10, 75, 0
14, 21344, Note_on_c, 10, 73, 56
14, 21344, Note_on_c, 10, 71, 65
14, 21344, Note_on_c, 10, 77, 62
14, 21374, Note_on_c, 10, 73, 0
14, 21374, Note_on_c, 10, 71, 0
14, 21374, Note_on_c, 10, 77, 0
14, 21376, Note_on_c, 10, 75, 63
14, 21376, Note_on_c, 10, 69, 58
14, 21376, Note_on_c, 10, 73, 60
14, 21406, Note_on_c, 10, 75, 0
14, 21406, Note_on_c, 10, 69, 0
14, 21406, Note_on_c, 10, 73, 0
14, 21408, Note_on_c, 10, 73, 54
14, 21408, Note_on_c, 10, 67, 60
14, 21408, Note_on_c, 10, 71, 62
14, 21438, Note_on_c, 10, 73, 0
14, 21438, Note_on_c, 10, 67, 0
14, 21438, Note_on_c, 10, 71, 0
14, 21440, Note_on_c, 10, 65, 52
14, 21440, Note_on_c, 10, 69, 56
14, 21440, Note_on_c, 10, 73, 59
14, 21470, Note_on_c, 10, 65, 0
14, 21470, Note_on_c, 10, 69, 0
14, 21470, Note_on_c, 10, 73, 0
14, 21472, Note_on_c, 10, 63, 55
14, 21472, Note_on_c, 10, 67, 54
14, 21472, Note_on_c, 10, 71, 48
14, 21502, Note_on_c, 10, 63, 0
14, 21502, Note_on_c, 10, 67, 0
14, 21502, Note_on_c, 10, 71, 0
14, 21504, Note_on_c, 10, 61, 50
14, 21504, Note_on_c, 10, 65, 50
14, 21504, Note_on_c, 10, 69, 51
14, 21526, Note_on_c, 10, 61, 0
14, 21526, Note_on_c, 10, 65, 0
14, 21526, Note_on_c, 10, 69, 0
14, 21528, Note_on_c, 10, 61, 48
14, 21528, Note_on_c, 10, 63, 51
14, 21528, Note_on_c, 10, 67, 55
14, 21550, Note_on_c, 10, 61, 0
14, 21550, Note_on_c, 10, 63, 0
14, 21550, Note_on_c, 10, 67, 0
14, 21552, Note_on_c, 10, 59, 44
14, 21552, Note_on_c, 10, 61, 51
14, 21552, Note_on_c, 10, 65, 44
14, 21574, Note_on_c, 10, 59, 0
14, 21574, Note_on_c, 10, 61, 0
14, 21574, Note_on_c, 10, 65, 0
14, 21576, Note_on_c, 10, 57, 45
14, 21576, Note_on_c, 10, 61, 45
14, 21576, Note_on_c, 10, 63, 51
14, 21598, Note_on_c, 10, 57, 0
14, 21598, Note_on_c, 10, 61, 0
14, 21598, Note_on_c, 10, 63, 0
14, 21600, Note_on_c, 10, 55, 48
14, 21600, Note_on_c, 10, 59, 46
14, 21600, Note_on_c, 10, 61, 40
14, 21630, Note_on_c, 10, 55, 0
14, 21630, Note_on_c, 10, 59, 0
14, 21630, Note_on_c, 10, 61, 0
14, 21632, Note_on_c, 10, 53, 46
14, 21632, Note_on_c, 10, 57, 49
14, 21632, Note_on_c, 10, 61, 44
14, 21662, Note_on_c, 10, 53, 0
14, 21662, Note_on_c, 10, 57, 0
14, 21662, Note_on_c, 10, 61, 0
14, 22752, Note_on_c, 10, 57, 42
14, 22752, Note_on_c, 10, 61, 49
14, 22752, Note_on_c, 10, 53, 50
14, 22782, Note_on_c, 10, 57, 0
14, 22782, Note_on_c, 10, 61, 0
14, 22782, Note_on_c, 10, 53, 0
14, 22784, Note_on_c, 10, 55, 40
14, 22784, Note_on_c, 10, 61, 49
14, 22784, Note_on_c, 10, 59, 48
14, 22814, Note_on_c, 10, 55, 0
14, 22814, Note_on_c, 10, 61, 0
14, 22814, Note_on_c, 10, 59, 0
14, 22816, Note_on_c, 10, 61, 47
14, 22816, Note_on_c, 10, 57, 44
14, 22816, Note_on_c, 10, 63, 48
14, 22846, Note_on_c, 10, 61, 0
14, 22846, Note_on_c, 10, 57, 0
14, 22846, Note_on_c, 10, 63, 0
14, 22848, Note_on_c, 10, 65, 50
14, 22848, Note_on_c, 10, 61, 51
14, 22848, Note_on_c, 10, 59, 45
14, 22878, Note_on_c, 10, 65, 0
14, 22878, Note_on_c, 10, 61, 0
14, 22878, Note_on_c, 10, 59, 0
14, 22880, Note_on_c, 10, 61, 51
14, 22880, Note_on_c, 10, 63, 43
14, 22880, Note_on_c, 10, 67, 46
14, 22910, Note_on_c, 10, 61, 0
14, 22910, Note_on_c, 10, 63, 0
14, 22910, Note_on_c, 10, 67, 0
14, 22912, Note_on_c, 10, 69, 52
14, 22912, Note_on_c, 10, 65, 44
14, 22912, Note_on_c, 10, 61, 50
14, 22942, Note_on_c, 10, 69, 0
14, 22942, Note_on_c, 10, 65, 0
14, 22942, Note_on_c, 10, 61, 0
14, 22944, Note_on_c, 10, 67, 56
14, 22944, Note_on_c, 10, 71, 53
14, 22944, Note_on_c, 10, 63, 55
14, 22974, Note_on_c, 10, 67, 0
14, 22974, Note_on_c, 10, 71, 0
14, 22974, Note_on_c, 10, 63, 0
14, 22976, Note_on_c, 10, 69, 50
14, 22976, Note_on_c, 10, 65, 49
14, 22976, Note_on_c, 10, 73, 49
14, 23006, Note_on_c, 10, 69, 0
14, 23006, Note_on_c, 10, 65, 0
14, 23006, Note_on_c, 10, 73, 0
14, 23008, Note_on_c, 10, 71, 55
14, 23008, Note_on_c, 10, 67, 59
14, 23008, Note_on_c, 10, 73, 58
14, 23038, Note_on_c, 10, 71, 0
14, 23038, Note_on_c, 10, 67, 0
14, 23038, Note_on_c, 10, 73, 0
14, 23040, Note_on_c, 10, 69, 59
14, 23040, Note_on_c, 10, 73, 61
14, 23040, Note_on_c, 10, 75, 62
14, 23062, Note_on_c, 10, 69, 0
14, 23062, Note_on_c, 10, 73, 0
14, 23062, Note_on_c, 10, 75, 0
14, 23064, Note_on_c, 10, 77, 53
14, 23064, Note_on_c, 10, 73, 53
14, 23064, Note_on_c, 10, 71, 54
14, 23086, Note_on_c, 10, 77, 0
14, 23086, Note_on_c, 10, 73, 0
14, 23086, Note_on_c, 10, 71, 0
14, 23088, Note_on_c, 10, 75, 62
14, 23088, Note_on_c, 10, 79, 58
14, 23088, Note_on_c, 10, 73, 63
14, 23110, Note_on_c, 10, 75, 0
14, 23110, Note_on_c, 10, 79, 0
14, 23110, Note_on_c, 10, 73, 0
14, 23112, Note_on_c, 10, 73, 61
14, 23112, Note_on_c, 10, 77, 60
14, 23112, Note_on_c, 10, 81, 59
14, 23134, Note_on_c, 10, 73, 0
14, 23134, Note_on_c, 10, 77, 0
14, 23134, Note_on_c, 10, 81, 0
14, 23136, Note_on_c, 10, 83, 58
14, 23136, Note_on_c, 10, 75, 58
14, 23136, Note_on_c, 10, 79, 65
14, 23158, Note_on_c, 10, 83, 0
14, 23158, Note_on_c, 10, 75, 0
14, 23158, Note_on_c, 10, 79, 0
14, 23160, Note_on_c, 10, 81, 61
14, 23160, Note_on_c, 10, 77, 62
14, 23160, Note_on_c, 10, 85, 64
14, 23182, Note_on_c, 10, 81, 0
14, 23182, Note_on_c, 10, 77, 0
14, 23182, Note_on_c, 10, 85, 0
14, 23184, Note_on_c, 10, 79, 59
14, 23184, Note_on_c, 10, 85, 66
14, 23184, Note_on_c, 10, 83, 63
14, 23206, Note_on_c, 10, 79, 0
14, 23206, Note_on_c, 10, 85, 0
14, 23206, Note_on_c, 10, 83, 0
14, 23208, Note_on_c, 10, 81, 66
14, 23208, Note_on_c, 10, 87, 61
14, 23208, Note_on_c, 10, 85, 68
14, 23230, Note_on_c, 10, 81, 0
14, 23230, Note_on_c, 10, 87, 0
14, 23230, Note_on_c, 10, 85, 0
14, 23232, Note_on_c, 10, 85, 65
14, 23232, Note_on_c, 10, 83, 66
14, 23232, Note_on_c, 10, 89, 67
14, 23254, Note_on_c, 10, 85, 0
14, 23254, Note_on_c, 10, 83, 0
14, 23254, Note_on_c, 10, 89, 0
14, 23256, Note_on_c, 10, 85, 64
14, 23256, Note_on_c, 10, 91, 67
14, 23256, Note_on_c, 10, 87, 67
14, 23278, Note_on_c, 10, 85, 0
14, 23278, Note_on_c, 10, 91, 0
14, 23278, Note_on_c, 10, 87, 0
14, 23280, Note_on_c, 10, 89, 66
14, 23280, Note_on_c, 10, 85, 67
14, 23280, Note_on_c, 10, 93, 74
14, 23302, Note_on_c, 10, 89, 0
14, 23302, Note_on_c, 10, 85, 0
14, 23302, Note_on_c, 10, 93, 0
14, 23304, Note_on_c, 10, 95, 74
14, 23304, Note_on_c, 10, 91, 71
14, 23304, Note_on_c, 10, 87, 73
14, 23326, Note_on_c, 10, 95, 0
14, 23326, Note_on_c, 10, 91, 0
14, 23326, Note_on_c, 10, 87, 0
14, 23328, Note_on_c, 10, 93, 72
14, 23328, Note_on_c, 10, 97, 73
14, 23328, Note_on_c, 10, 89, 80
14, 23328, Note_on_c, 10, 91, 79
14, 23328, Note_on_c, 10, 95, 77
14, 23328, Note_on_c, 10, 97, 79
14, 23358, Note_on_c, 10, 93, 0
14, 23358, Note_on_c, 10, 97, 0
14, 23358, Note_on_c, 10, 89, 0
14, 23358, Note_on_c, 10, 91, 0
14, 23358, Note_on_c, 10, 95, 0
14, 23358, Note_on_c, 10, 97, 0
14, 23360, Note_on_c, 10, 89, 72
14, 23360, Note_on_c, 10, 97, 76
14, 23360, Note_on_c, 10, 95, 74
14, 23360, Note_on_c, 10, 91, 78
14, 23360, Note_on_c, 10, 93, 70
14, 23360, Note_on_c, 10, 97, 74
14, 23390, Note_on_c, 10, 89, 0
14, 23390, Note_on_c, 10, 97, 0
14, 23390, Note_on_c, 10, 95, 0
14, 23390, Note_on_c, 10, 91, 0
14, 23390, Note_on_c, 10, 93, 0
14, 23390, Note_on_c, 10, 97, 0
14, 23392, Note_on_c, 10, 95, 73
14, 23392, Note_on_c, 10, 91, 76
14, 23392, Note_on_c, 10, 87, 72
14, 23422, Note_on_c, 10, 95, 0
14, 23422, Note_on_c, 10, 91, 0
14, 23422, Note_on_c, 10, 87, 0
14, 23424, Note_on_c, 10, 85, 74
14, 23424, Note_on_c, 10, 89, 78
14, 23424, Note_on_c, 10, 93, 77
14, 23454, Note_on_c, 10, 85, 0
14, 23454, Note_on_c, 10, 89, 0
14, 23454, Note_on_c, 10, 93, 0
14, 23456, Note_on_c, 10, 87, 70
14, 23456, Note_on_c, 10, 91, 71
14, 23456, Note_on_c, 10, 85, 72
14, 23486, Note_on_c, 10, 87, 0
14, 23486, Note_on_c, 10, 91, 0
14, 23486, Note_on_c, 10, 85, 0
14, 23488, Note_on_c, 10, 83, 71
14, 23488, Note_on_c, 10, 85, 74
14, 23488, Note_on_c, 10, 89, 72
14, 23518, Note_on_c, 10, 83, 0
14, 23518, Note_on_c, 10, 85, 0
14, 23518, Note_on_c, 10, 89, 0
14, 23520, Note_on_c, 10, 85, 66
14, 23520, Note_on_c, 10, 87, 68
14, 23520, Note_on_c, 10, 81, 64
14, 23550, Note_on_c, 10, 85, 0
14, 23550, Note_on_c, 10, 87, 0
14, 23550, Note_on_c, 10, 81, 0
14, 23552, Note_on_c, 10, 79, 70
14, 23552, Note_on_c, 10, 85, 69
14, 23552, Note_on_c, 10, 83, 71
14, 23582, Note_on_c, 10, 79, 0
14, 23582, Note_on_c, 10, 85, 0
14, 23582, Note_on_c, 10, 83, 0
14, 23584, Note_on_c, 10, 77, 69
14, 23584, Note_on_c, 10, 81, 65
14, 23584, Note_on_c, 10, 85, 63
14, 23614, Note_on_c, 10, 77, 0
14, 23614, Note_on_c, 10, 81, 0
14, 23614, Note_on_c, 10, 85, 0
14, 23616, Note_on_c, 10, 79, 66
14, 23616, Note_on_c, 10, 73, 64
14, 23616, Note_on_c, 10, 75, 65
14, 23646, Note_on_c, 10, 79, 0
14, 23646, Note_on_c, 10, 73, 0
14, 23646, Note_on_c, 10, 75, 0
14, 23648, Note_on_c, 10, 73, 61
14, 23648, Note_on_c, 10, 77, 64
14, 23648, Note_on_c, 10, 71, 64
14, 23678, Note_on_c, 10, 73, 0
14, 23678, Note_on_c, 10, 77, 0
14, 23678, Note_on_c, 10, 71, 0
14, 23680, Note_on_c, 10, 75, 57
14, 23680, Note_on_c, 10, 69, 58
14, 23680, Note_on_c, 10, 73, 55
14, 23710, Note_on_c, 10, 75, 0
14, 23710, Note_on_c, 10, 69, 0
14, 23710, Note_on_c, 10, 73, 0
14, 23712, Note_on_c, 10, 67, 59
14, 23712, Note_on_c, 10, 71, 54
14, 23712, Note_on_c, 10, 73, 57
14, 23742, Note_on_c, 10, 67, 0
14, 23742, Note_on_c, 10, 71, 0
14, 23742, Note_on_c, 10, 73, 0
14, 23744, Note_on_c, 10, 73, 54
14, 23744, Note_on_c, 10, 65, 54
14, 23744, Note_on_c, 10, 69, 57
14, 23774, Note_on_c, 10, 73, 0
14, 23774, Note_on_c, 10, 65, 0
14, 23774, Note_on_c, 10, 69, 0
14, 23776, Note_on_c, 10, 63, 51
14, 23776, Note_on_c, 10, 67, 55
14, 23776, Note_on_c, 10, 71, 54
14, 23806, Note_on_c, 10, 63, 0
14, 23806, Note_on_c, 10, 67, 0
14, 23806, Note_on_c, 10, 71, 0
14, 23808, Note_on_c, 10, 65, 46
14, 23808, Note_on_c, 10, 61, 56
14, 23808, Note_on_c, 10, 69, 48
14, 23830, Note_on_c, 10, 65, 0
14, 23830, Note_on_c, 10, 61, 0
14, 23830, Note_on_c, 10, 69, 0
14, 23832, Note_on_c, 10, 61, 49
14, 23832, Note_on_c, 10, 67, 49
14, 23832, Note_on_c, 10, 63, 48
14, 23854, Note_on_c, 10, 61, 0
14, 23854, Note_on_c, 10, 67, 0
14, 23854, Note_on_c, 10, 63, 0
14, 23856, Note_on_c, 10, 59, 53
14, 23856, Note_on_c, 10, 65, 49
14, 23856, Note_on_c, 10, 61, 46
14, 23878, Note_on_c, 10, 59, 0
14, 23878, Note_on_c, 10, 65, 0
14, 23878, Note_on_c, 10, 61, 0
14, 23880, Note_on_c, 10, 63, 44
14, 23880, Note_on_c, 10, 57, 44
14, 23880, Note_on_c, 10, 61, 47
14, 23902, Note_on_c, 10, 63, 0
14, 23902, Note_on_c, 10, 57, 0
14, 23902, Note_on_c, 10, 61, 0
14, 23904, Note_on_c, 10, 55, 50
14, 23904, Note_on_c, 10, 61, 42
14, 23904, Note_on_c, 10, 59, 42
14, 23934, Note_on_c, 10, 55, 0
14, 23934, Note_on_c, 10, 61, 0
14, 23934, Note_on_c, 10, 59, 0
14, 23936, Note_on_c, 10, 61, 50
14, 23936, Note_on_c, 10, 53, 47
14, 23936, Note_on_c, 10, 57, 42
14, 23966, Note_on_c, 10, 61, 0
14, 23966, Note_on_c, 10, 53, 0
14, 23966, Note_on_c, 10, 57, 0
14, 27840, Note_on_c, 10, 73, 31
14, 27886, Note_on_c, 10, 73, 0
14, 27888, Note_on_c, 10, 70, 31
14, 27934, Note_on_c, 10, 70, 0
14, 27936, Note_on_c, 10, 61, 31
14, 27982, Note_on_c, 10, 61, 0
14, 27984, Note_on_c, 10, 58, 27
14, 28030, Note_on_c, 10, 58, 0
14, 28416, Note_on_c, 10, 73, 35
14, 28462, Note_on_c, 10, 73, 0
14, 28464, Note_on_c, 10, 70, 26
14, 28510, Note_on_c, 10, 70, 0
14, 28512, Note_on_c, 10, 61, 25
14, 28558, Note_on_c, 10, 61, 0
14, 28560, Note_on_c, 10, 58, 24
14, 28606, Note_on_c, 10, 58, 0
14, 28992, Note_on_c, 10, 73, 32
14, 29038, Note_on_c, 10, 73, 0
14, 29040, Note_on_c, 10, 70, 23
14, 29086, Note_on_c, 10, 70, 0
14, 29088, Note_on_c, 10, 61, 27
14, 29134, Note_on_c, 10, 61, 0
14, 29136, Note_on_c, 10, 58, 19
14, 29182, Note_on_c, 10, 58, 0
14, 29568, Note_on_c, 10, 73, 26
14, 29614, Note_on_c, 10, 73, 0
14, 29616, Note_on_c, 10, 70, 31
14, 29662, Note_on_c, 10, 70, 0
14, 29664, Note_on_c, 10, 61, 26
14, 29710, Note_on_c, 10, 61, 0
14, 29712, Note_on_c, 10, 58, 20
14, 29758, Note_on_c, 10, 58, 0
14, 30144, Note_on_c, 10, 73, 29
14, 30190, Note_on_c, 10, 73, 0
14, 30192, Note_on_c, 10, 70, 25
14, 30238, Note_on_c, 10, 70, 0
14, 30240, Note_on_c, 10, 61, 26
14, 30286, Note_on_c, 10, 61, 0
14, 30288, Note_on_c, 10, 58, 26
14, 30334, Note_on_c, 10, 58, 0
14, 30720, Note_on_c, 10, 73, 27
14, 30766, Note_on_c, 10, 73, 0
14, 30768, Note_on_c, 10, 70, 29
14, 30814, Note_on_c, 10, 70, 0
14, 30816, Note_on_c, 10, 61, 24
14, 30862, Note_on_c, 10, 61, 0
14, 30864, Note_on_c, 10, 58, 18
14, 30910, Note_on_c, 10, 58, 0
14, 31296, Note_on_c, 10, 73, 33
14, 31342, Note_on_c, 10, 73, 0
14, 31344, Note_on_c, 10, 70, 26
14, 31390, Note_on_c, 10, 70, 0
14, 31392, Note_on_c, 10, 61, 26
14, 31438, Note_on_c, 10, 61, 0
14, 31440, Note_on_c, 10, 58, 27
14, 31486, Note_on_c, 10, 58, 0
14, 39072, Note_on_c, 10, 62, 46
14, 39094, Note_on_c, 10, 62, 0
14, 39096, Note_on_c, 10, 60, 50
14, 39118, Note_on_c, 10, 60, 0
14, 39120, Note_on_c, 10, 58, 50
14, 39142, Note_on_c, 10, 58, 0
14, 39144, Note_on_c, 10, 56, 45
14, 39166, Note_on_c, 10, 56, 0
14, 39168, Note_on_c, 10, 31, 47
14, 39168, Note_on_c, 10, 54, 43
14, 39168, Note_on_c, 10, 43, 40
14, 39190, Note_on_c, 10, 54, 0
14, 39192, Note_on_c, 10, 56, 41
14, 39214, Note_on_c, 10, 56, 0
14, 39216, Note_on_c, 10, 58, 45
14, 39238, Note_on_c, 10, 58, 0
14, 39240, Note_on_c, 10, 60, 42
14, 39262, Note_on_c, 10, 60, 0
14, 39264, Note_on_c, 10, 62, 34
14, 39358, Note_on_c, 10, 62, 0
14, 39424, Note_on_c, 10, 31, 0
14, 39424, Note_on_c, 10, 43, 0
14, 39648, Note_on_c, 10, 62, 46
14, 39670, Note_on_c, 10, 62, 0
14, 39672, Note_on_c, 10, 60, 41
14, 39694, Note_on_c, 10, 60, 0
14, 39696, Note_on_c, 10, 58, 45
14, 39718, Note_on_c, 10, 58, 0
14, 39720, Note_on_c, 10, 56, 49
14, 39742, Note_on_c, 10, 56, 0
14, 39744, Note_on_c, 10, 31, 45
14, 39744, Note_on_c, 10, 43, 40
14, 39744, Note_on_c, 10, 54, 50
14, 39766, Note_on_c, 10, 54, 0
14, 39768, Note_on_c, 10, 56, 39
14, 39790, Note_on_c, 10, 56, 0
14, 39792, Note_on_c, 10, 58, 43
14, 39814, Note_on_c, 10, 58, 0
14, 39816, Note_on_c, 10, 60, 40
14, 39838, Note_on_c, 10, 60, 0
14, 39840, Note_on_c, 10, 62, 33
14, 39934, Note_on_c, 10, 62, 0
14, 40000, Note_on_c, 10, 31, 0
14, 40000, Note_on_c, 10, 43, 0
14, 43584, Note_on_c, 10, 46, 40
14, 43840, Note_on_c, 10, 46, 0
14, 43872, Note_on_c, 10, 58, 45
14, 43902, Note_on_c, 10, 58, 0
14, 43904, Note_on_c, 10, 60, 44
14, 43934, Note_on_c, 10, 60, 0
14, 43936, Note_on_c, 10, 62, 56
14, 43966, Note_on_c, 10, 62, 0
14, 43968, Note_on_c, 10, 64, 61
14, 43998, Note_on_c, 10, 64, 0
14, 44000, Note_on_c, 10, 66, 68
14, 44030, Note_on_c, 10, 66, 0
14, 44032, Note_on_c, 10, 68, 69
14, 44062, Note_on_c, 10, 68, 0
14, 44160, Note_on_c, 10, 46, 41
14, 44416, Note_on_c, 10, 46, 0
14, 44448, Note_on_c, 10, 58, 49
14, 44478, Note_on_c, 10, 58, 0
14, 44480, Note_on_c, 10, 60, 42
14, 44510, Note_on_c, 10, 60, 0
14, 44512, Note_on_c, 10, 62, 54
14, 44542, Note_on_c, 10, 62, 0
14, 44544, Note_on_c, 10, 64, 57
14, 44574, Note_on_c, 10, 64, 0
14, 44576, Note_on_c, 10, 66, 65
14, 44606, Note_on_c, 10, 66, 0
14, 44608, Note_on_c, 10, 68, 73
14, 44638, Note_on_c, 10, 68, 0
14, 47520, Note_on_c, 10, 64, 50
14, 47520, Note_on_c, 10, 73, 46
14, 47520, Note_on_c, 10, 67, 48
14, 47520, Note_on_c, 10, 61, 45
14, 47520, Note_on_c, 10, 69, 48
14, 47582, Note_on_c, 10, 64, 0
14, 47582, Note_on_c, 10, 73, 0
14, 47582, Note_on_c, 10, 67, 0
14, 47582, Note_on_c, 10, 61, 0
14, 47582, Note_on_c, 10, 69, 0
14, 47584, Note_on_c, 10, 71, 45
14, 47584, Note_on_c, 10, 59, 43
14, 47646, Note_on_c, 10, 71, 0
14, 47646, Note_on_c, 10, 59, 0
14, 47648, Note_on_c, 10, 69, 49
14, 47648, Note_on_c, 10, 57, 50
14, 47710, Note_on_c, 10, 69, 0
14, 47710, Note_on_c, 10, 57, 0
14, 47712, Note_on_c, 10, 67, 41
14, 47712, Note_on_c, 10, 55, 41
14, 47806, Note_on_c, 10, 67, 0
14, 47806, Note_on_c, 10, 55, 0
14, 47808, Note_on_c, 10, 52, 41
14, 47808, Note_on_c, 10, 64, 46
14, 47902, Note_on_c, 10, 52, 0
14, 47902, Note_on_c, 10, 64, 0
14, 47904, Note_on_c, 10, 67, 40
14, 47904, Note_on_c, 10, 55, 47
14, 47966, Note_on_c, 10, 67, 0
14, 47966, Note_on_c, 10, 55, 0
14, 47968, Note_on_c, 10, 69, 45
14, 47968, Note_on_c, 10, 57, 49
14, 48030, Note_on_c, 10, 69, 0
14, 48030, Note_on_c, 10, 57, 0
14, 48032, Note_on_c, 10, 59, 50
14, 48032, Note_on_c, 10, 71, 49
14, 48094, Note_on_c, 10, 59, 0
14, 48094, Note_on_c, 10, 71, 0
14, 48096, Note_on_c, 10, 69, 47
14, 48096, Note_on_c, 10, 64, 50
14, 48096, Note_on_c, 10, 73, 45
14, 48096, Note_on_c, 10, 61, 40
14, 48096, Note_on_c, 10, 67, 49
14, 48158, Note_on_c, 10, 69, 0
14, 48158, Note_on_c, 10, 64, 0
14, 48158, Note_on_c, 10, 73, 0
14, 48158, Note_on_c, 10, 61, 0
14, 48158, Note_on_c, 10, 67, 0
14, 48160, Note_on_c, 10, 59, 50
14, 48160, Note_on_c, 10, 71, 41
14, 48222, Note_on_c, 10, 59, 0
14, 48222, Note_on_c, 10, 71, 0
14, 48224, Note_on_c, 10, 69, 48
14, 48224, Note_on_c, 10, 57, 41
14, 48286, Note_on_c, 10, 69, 0
14, 48286, Note_on_c, 10, 57, 0
14, 48288, Note_on_c, 10, 55, 40
14, 48288, Note_on_c, 10, 67, 49
14, 48382, Note_on_c, 10, 55, 0
14, 48382, Note_on_c, 10, 67, 0
14, 48384, Note_on_c, 10, 52, 41
14, 48384, Note_on_c, 10, 64, 48
14, 48478, Note_on_c, 10, 52, 0
14, 48478, Note_on_c, 10, 64, 0
14, 48480, Note_on_c, 10, 55, 47
14, 48480, Note_on_c, 10, 67, 46
14, 48542, Note_on_c, 10, 55, 0
14, 48542, Note_on_c, 10, 67, 0
14, 48544, Note_on_c, 10, 57, 47
14, 48544, Note_on_c, 10, 69, 48
14, 48606, Note_on_c, 10, 57, 0
14, 48606, Note_on_c, 10, 69, 0
14, 48608, Note_on_c, 10, 59, 42
14, 48608, Note_on_c, 10, 71, 46
14, 48670, Note_on_c, 10, 59, 0
14, 48670, Note_on_c, 10, 71, 0
14, 50400, Note_on_c, 10, 30, 33
14, 50424, Note_on_c, 10, 42, 34
14, 50592, Note_on_c, 10, 30, 0
14, 50592, Note_on_c, 10, 42, 0
14, 50592, Note_on_c, 10, 33, 25
14, 50616, Note_on_c, 10, 45, 31
14, 50784, Note_on_c, 10, 33, 0
14, 50784, Note_on_c, 10, 45, 0
14, 50784, Note_on_c, 10, 37, 29
14, 50808, Note_on_c, 10, 49, 31
14, 50974, Note_on_c, 10, 37, 0
14, 50974, Note_on_c, 10, 49, 0
14, 50976, Note_on_c, 10, 54, 34
14, 51006, Note_on_c, 10, 54, 0
14, 51008, Note_on_c, 10, 56, 30
14, 51038, Note_on_c, 10, 56, 0
14, 51040, Note_on_c, 10, 62, 29
14, 51070, Note_on_c, 10, 62, 0
14, 51072, Note_on_c, 10, 66, 17
14, 51166, Note_on_c, 10, 66, 0
14, 51552, Note_on_c, 10, 33, 27
14, 51576, Note_on_c, 10, 45, 31
14, 51744, Note_on_c, 10, 33, 0
14, 51744, Note_on_c, 10, 45, 0
14, 51744, Note_on_c, 10, 36, 34
14, 51768, Note_on_c, 10, 48, 32
14, 51936, Note_on_c, 10, 36, 0
14, 51936, Note_on_c, 10, 48, 0
14, 51936, Note_on_c, 10, 40, 31
14, 51960, Note_on_c, 10, 52, 25
14, 52126, Note_on_c, 10, 40, 0
14, 52126, Note_on_c, 10, 52, 0
14, 52128, Note_on_c, 10, 57, 29
14, 52158, Note_on_c, 10, 57, 0
14, 52160, Note_on_c, 10, 59, 26
14, 52190, Note_on_c, 10, 59, 0
14, 52192, Note_on_c, 10, 65, 24
14, 52222, Note_on_c, 10, 65, 0
14, 52224, Note_on_c, 10, 69, 18
14, 52318, Note_on_c, 10, 69, 0
14, 53856, Note_on_c, 10, 67, 45
14, 53880, Note_on_c, 10, 70, 49
14, 53950, Note_on_c, 10, 67, 0
14, 53950, Note_on_c, 10, 70, 0
14, 54048, Note_on_c, 10, 79, 45
14, 54072, Note_on_c, 10, 82, 43
14, 54142, Note_on_c, 10, 79, 0
14, 54142, Note_on_c, 10, 82, 0
14, 54240, Note_on_c, 10, 67, 40
14, 54264, Note_on_c, 10, 70, 46
14, 54334, Note_on_c, 10, 67, 0
14, 54334, Note_on_c, 10, 70, 0
14, 54432, Note_on_c, 10, 67, 46
14, 54456, Note_on_c, 10, 70, 42
14, 54526, Note_on_c, 10, 67, 0
14, 54526, Note_on_c, 10, 70, 0
14, 54624, Note_on_c, 10, 79, 45
14, 54648, Note_on_c, 10, 82, 48
14, 54718, Note_on_c, 10, 79, 0
14, 54718, Note_on_c, 10, 82, 0
14, 54816, Note_on_c, 10, 67, 45
14, 54840, Note_on_c, 10, 70, 48
14, 54910, Note_on_c, 10, 67, 0
14, 54910, Note_on_c, 10, 70, 0
14, 55008, Note_on_c, 10, 67, 50
14, 55032, Note_on_c, 10, 70, 48
14, 55102, Note_on_c, 10, 67, 0
14, 55102, Note_on_c, 10, 70, 0
14, 55200, Note_on_c, 10, 79, 45
14, 55224, Note_on_c, 10, 82, 50
14, 55294, Note_on_c, 10, 79, 0
14, 55294, Note_on_c, 10, 82, 0
14, 55392, Note_on_c, 10, 67, 40
14, 55416, Note_on_c, 10, 70, 50
14, 55486, Note_on_c, 10, 67, 0
14, 55486, Note_on_c, 10, 70, 0
14, 55584, Note_on_c, 10, 67, 45
14, 55608, Note_on_c, 10, 70, 41
14, 55678, Note_on_c, 10, 67, 0
14, 55678, Note_on_c, 10, 70, 0
14, 55776, Note_on_c, 10, 79, 45
14, 55800, Note_on_c, 10, 82, 47
14, 55870, Note_on_c, 10, 79, 0
14, 55870, Note_on_c, 10, 82, 0
14, 55968, Note_on_c, 10, 67, 45
14, 55992, Note_on_c, 10, 70, 46
14, 56062, Note_on_c, 10, 67, 0
14, 56062, Note_on_c, 10, 70, 0
14, 56160, Note_on_c, 10, 67, 43
14, 56184, Note_on_c, 10, 70, 47
14, 56254, Note_on_c, 10, 67, 0
14, 56254, Note_on_c, 10, 70, 0
14, 56352, Note_on_c, 10, 79, 50
14, 56376, Note_on_c, 10, 82, 50
14, 56446, Note_on_c, 10, 79, 0
14, 56446, Note_on_c, 10, 82, 0
14, 56544, Note_on_c, 10, 67, 45
14, 56568, Note_on_c, 10, 70, 50
14, 56638, Note_on_c, 10, 67, 0
14, 56638, Note_on_c, 10, 70, 0
14, 56736, Note_on_c, 10, 67, 40
14, 56760, Note_on_c, 10, 70, 44
14, 56830, Note_on_c, 10, 67, 0
14, 56830, Note_on_c, 10, 70, 0
14, 56928, Note_on_c, 10, 79, 43
14, 56952, Note_on_c, 10, 82, 42
14, 57022, Note_on_c, 10, 79, 0
14, 57022, Note_on_c, 10, 82, 0
14, 57120, Note_on_c, 10, 67, 49
14, 57144, Note_on_c, 10, 70, 43
14, 57214, Note_on_c, 10, 67, 0
14, 57214, Note_on_c, 10, 70, 0
14, 57888, Note_on_c, 10, 45, 93
14, 57912, Note_on_c, 10, 57, 97
14, 58240, Note_on_c, 10, 45, 0
14, 58240, Note_on_c, 10, 57, 0
14, 59040, Note_on_c, 10, 45, 87
14, 59064, Note_on_c, 10, 57, 94
14, 59392, Note_on_c, 10, 45, 0
14, 59392, Note_on_c, 10, 57, 0
14, 59616, Note_on_c, 10, 52, 87
14, 59808, Note_on_c, 10, 52, 0
14, 59808, Note_on_c, 10, 50, 81
14, 60000, Note_on_c, 10, 50, 0
14, 60000, Note_on_c, 10, 47, 72
14, 60192, Note_on_c, 10, 47, 0
14, 60192, Note_on_c, 10, 45, 69
14, 60384, Note_on_c, 10, 45, 0
14, 60384, Note_on_c, 10, 40, 58
14, 60576, Note_on_c, 10, 40, 0
14, 60576, Note_on_c, 10, 38, 46
14, 60768, Note_on_c, 10, 38, 0
14, 60768, Note_on_c, 10, 33, 25
14, 60928, Note_on_c, 10, 33, 0
14, 61536, Note_on_c, 10, 57, 48
14, 61560, Note_on_c, 10, 57, 0
14, 61560, Note_on_c, 10, 64, 50
14, 61726, Note_on_c, 10, 64, 0
14, 61728, Note_on_c, 10, 69, 49
14, 61750, Note_on_c, 10, 69, 0
14, 61752, Note_on_c, 10, 61, 42
14, 61822, Note_on_c, 10, 61, 0
14, 61920, Note_on_c, 10, 33, 31
14, 62080, Note_on_c, 10, 33, 0
14, 62688, Note_on_c, 10, 57, 44
14, 62712, Note_on_c, 10, 57, 0
14, 62712, Note_on_c, 10, 64, 47
14, 62878, Note_on_c, 10, 64, 0
14, 62880, Note_on_c, 10, 69, 44
14, 62902, Note_on_c, 10, 69, 0
14, 62904, Note_on_c, 10, 61, 47
14, 62974, Note_on_c, 10, 61, 0
14, 63036, Note_on_c, 10, 64, 48
14, 63048, Note_on_c, 10, 67, 43
14, 63060, Note_on_c, 10, 69, 48
14, 63072, Note_on_c, 10, 73, 43
14, 63072, Note_on_c, 10, 61, 49
14, 63134, Note_on_c, 10, 64, 0
14, 63134, Note_on_c, 10, 67, 0
14, 63134, Note_on_c, 10, 69, 0
14, 63134, Note_on_c, 10, 73, 0
14, 63134, Note_on_c, 10, 61, 0
14, 63136, Note_on_c, 10, 71, 45
14, 63136, Note_on_c, 10, 59, 44
14, 63198, Note_on_c, 10, 71, 0
14, 63198, Note_on_c, 10, 59, 0
14, 63200, Note_on_c, 10, 57, 55
14, 63200, Note_on_c, 10, 69, 49
14, 63262, Note_on_c, 10, 57, 0
14, 63262, Note_on_c, 10, 69, 0
14, 63264, Note_on_c, 10, 55, 59
14, 63264, Note_on_c, 10, 67, 56
14, 63358, Note_on_c, 10, 55, 0
14, 63358, Note_on_c, 10, 67, 0
14, 63360, Note_on_c, 10, 52, 70
14, 63360, Note_on_c, 10, 64, 69
14, 63454, Note_on_c, 10, 52, 0
14, 63454, Note_on_c, 10, 64, 0
14, 63456, Note_on_c, 10, 55, 72
14, 63456, Note_on_c, 10, 67, 80
14, 63518, Note_on_c, 10, 55, 0
14, 63518, Note_on_c, 10, 67, 0
14, 63520, Note_on_c, 10, 69, 65
14, 63520, Note_on_c, 10, 57, 55
14, 63582, Note_on_c, 10, 69, 0
14, 63582, Note_on_c, 10, 57, 0
14, 63584, Note_on_c, 10, 59, 44
14, 63584, Note_on_c, 10, 71, 50
14, 63622, Note_on_c, 10, 71, 0
14, 63624, Note_on_c, 10, 64, 45
14, 63632, Note_on_c, 10, 67, 43
14, 63640, Note_on_c, 10, 69, 40
14, 63646, Note_on_c, 10, 59, 0
14, 63648, Note_on_c, 10, 61, 43
14, 63648, Note_on_c, 10, 73, 46
14, 63710, Note_on_c, 10, 64, 0
14, 63710, Note_on_c, 10, 67, 0
14, 63710, Note_on_c, 10, 69, 0
14, 63710, Note_on_c, 10, 61, 0
14, 63710, Note_on_c, 10, 73, 0
14, 63712, Note_on_c, 10, 71, 41
14, 63712, Note_on_c, 10, 59, 47
14, 63774, Note_on_c, 10, 71, 0
14, 63774, Note_on_c, 10, 59, 0
14, 63776, Note_on_c, 10, 69, 50
14, 63776, Note_on_c, 10, 57, 48
14, 63838, Note_on_c, 10, 69, 0
14, 63838, Note_on_c, 10, 57, 0
14, 63840, Note_on_c, 10, 55, 54
14, 63840, Note_on_c, 10, 67, 48
14, 63934, Note_on_c, 10, 55, 0
14, 63934, Note_on_c, 10, 67, 0
14, 63936, Note_on_c, 10, 52, 64
14, 63936, Note_on_c, 10, 64, 55
14, 64030, Note_on_c, 10, 52, 0
14, 64030, Note_on_c, 10, 64, 0
14, 64032, Note_on_c, 10, 55, 69
14, 64032, Note_on_c, 10, 67, 60
14, 64094, Note_on_c, 10, 55, 0
14, 64094, Note_on_c, 10, 67, 0
14, 64096, Note_on_c, 10, 57, 70
14, 64096, Note_on_c, 10, 69, 69
14, 64158, Note_on_c, 10, 57, 0
14, 64158, Note_on_c, 10, 69, 0
14, 64160, Note_on_c, 10, 59, 73
14, 64160, Note_on_c, 10, 71, 70
14, 64222, Note_on_c, 10, 59, 0
14, 64222, Note_on_c, 10, 71, 0
14, 64224, Note_on_c, 10, 45, 44
14, 64236, Note_on_c, 10, 52, 45
14, 64248, Note_on_c, 10, 57, 48
14, 64260, Note_on_c, 10, 64, 44
14, 64272, Note_on_c, 10, 67, 50
14, 64284, Note_on_c, 10, 69, 47
14, 64296, Note_on_c, 10, 73, 48
14, 64318, Note_on_c, 10, 45, 0
14, 64318, Note_on_c, 10, 52, 0
14, 64318, Note_on_c, 10, 57, 0
14, 64318, Note_on_c, 10, 64, 0
14, 64318, Note_on_c, 10, 67, 0
14, 64318, Note_on_c, 10, 69, 0
14, 64318, Note_on_c, 10, 73, 0
14, 65568, Note_on_c, 10, 82, 105
14, 65592, Note_on_c, 10, 94, 109
14, 65662, Note_on_c, 10, 82, 0
14, 65662, Note_on_c, 10, 94, 0
14, 65760, Note_on_c, 10, 82, 103
14, 65784, Note_on_c, 10, 94, 108
14, 65854, Note_on_c, 10, 82, 0
14, 65854, Note_on_c, 10, 94, 0
14, 65952, Note_on_c, 10, 82, 107
14, 65976, Note_on_c, 10, 94, 113
14, 66046, Note_on_c, 10, 82, 0
14, 66046, Note_on_c, 10, 94, 0
14, 66144, Note_on_c, 10, 82, 86
14, 66168, Note_on_c, 10, 94, 87
14, 66238, Note_on_c, 10, 82, 0
14, 66238, Note_on_c, 10, 94, 0
14, 66336, Note_on_c, 10, 82, 64
14, 66360, Note_on_c, 10, 94, 70
14, 66430, Note_on_c, 10, 82, 0
14, 66430, Note_on_c, 10, 94, 0
14, 66528, Note_on_c, 10, 82, 46
14, 66552, Note_on_c, 10, 94, 49
14, 66622, Note_on_c, 10, 82, 0
14, 66622, Note_on_c, 10, 94, 0
14, 66720, Note_on_c, 10, 82, 39
14, 66744, Note_on_c, 10, 94, 39
14, 66814, Note_on_c, 10, 82, 0
14, 66814, Note_on_c, 10, 94, 0
14, 66912, Note_on_c, 10, 82, 39
14, 66936, Note_on_c, 10, 94, 31
14, 67006, Note_on_c, 10, 82, 0
14, 67006, Note_on_c, 10, 94, 0
14, 67104, Note_on_c, 10, 82, 26
14, 67128, Note_on_c, 10, 94, 29
14, 67198, Note_on_c, 10, 82, 0
14, 67198, Note_on_c, 10, 94, 0
14, 67296, Note_on_c, 10, 82, 28
14, 67320, Note_on_c, 10, 94, 29
14, 67390, Note_on_c, 10, 82, 0
14, 67390, Note_on_c, 10, 94, 0
14, 67488, Note_on_c, 10, 82, 32
14, 67512, Note_on_c, 10, 94, 26
14, 67582, Note_on_c, 10, 82, 0
14, 67582, Note_on_c, 10, 94, 0
14, 67680, Note_on_c, 10, 82, 27
14, 67704, Note_on_c, 10, 94, 28
14, 67774, Note_on_c, 10, 82, 0
14, 67774, Note_on_c, 10, 94, 0
14, 67872, Note_on_c, 10, 82, 25
14, 67896, Note_on_c, 10, 94, 26
14, 67966, Note_on_c, 10, 82, 0
14, 67966, Note_on_c, 10, 94, 0
14, 68064, Note_on_c, 10, 82, 28
14, 68088, Note_on_c, 10, 94, 31
14, 68158, Note_on_c, 10, 82, 0
14, 68158, Note_on_c, 10, 94, 0
14, 68256, Note_on_c, 10, 82, 26
14, 68280, Note_on_c, 10, 94, 35
14, 68350, Note_on_c, 10, 82, 0
14, 68350, Note_on_c, 10, 94, 0
14, 68448, Note_on_c, 10, 82, 26
14, 68472, Note_on_c, 10, 94, 30
14, 68542, Note_on_c, 10, 82, 0
14, 68542, Note_on_c, 10, 94, 0
14, 68640, Note_on_c, 10, 82, 29
14, 68664, Note_on_c, 10, 94, 32
14, 68734, Note_on_c, 10, 82, 0
14, 68734, Note_on_c, 10, 94, 0
14, 68832, Note_on_c, 10, 82, 28
14, 68856, Note_on_c, 10, 94, 25
14, 68926, Note_on_c, 10, 82, 0
14, 68926, Note_on_c, 10, 94, 0
14, 69024, Note_on_c, 10, 82, 30
14, 69048, Note_on_c, 10, 94, 35
14, 69118, Note_on_c, 10, 82, 0
14, 69118, Note_on_c, 10, 94, 0
14, 69216, Note_on_c, 10, 82, 30
14, 69240, Note_on_c, 10, 94, 33
14, 69310, Note_on_c, 10, 82, 0
14, 69310, Note_on_c, 10, 94, 0
14, 69408, Note_on_c, 10, 82, 25
14, 69432, Note_on_c, 10, 94, 30
14, 69502, Note_on_c, 10, 82, 0
14, 69502, Note_on_c, 10, 94, 0
14, 69600, Note_on_c, 10, 82, 30
14, 69624, Note_on_c, 10, 94, 26
14, 69694, Note_on_c, 10, 82, 0
14, 69694, Note_on_c, 10, 94, 0
14, 69792, Note_on_c, 10, 82, 33
14, 69816, Note_on_c, 10, 94, 34
14, 69886, Note_on_c, 10, 82, 0
14, 69886, Note_on_c, 10, 94, 0
14, 69984, Note_on_c, 10, 82, 32
14, 70008, Note_on_c, 10, 94, 27
14, 70078, Note_on_c, 10, 82, 0
14, 70078, Note_on_c, 10, 94, 0
14, 70176, Note_on_c, 10, 70, 33
14, 70200, Note_on_c, 10, 82, 27
14, 70270, Note_on_c, 10, 70, 0
14, 70270, Note_on_c, 10, 82, 0
14, 70368, Note_on_c, 10, 82, 35
14, 70392, Note_on_c, 10, 94, 26
14, 70462, Note_on_c, 10, 82, 0
14, 70462, Note_on_c, 10, 94, 0
14, 70560, Note_on_c, 10, 70, 31
14, 70584, Note_on_c, 10, 82, 25
14, 70654, Note_on_c, 10, 70, 0
14, 70654, Note_on_c, 10, 82, 0
14, 70752, Note_on_c, 10, 82, 32
14, 70776, Note_on_c, 10, 94, 35
14, 70846, Note_on_c, 10, 82, 0
14, 70846, Note_on_c, 10, 94, 0
14, 70944, Note_on_c, 10, 70, 26
14, 70968, Note_on_c, 10, 82, 30
14, 71038, Note_on_c, 10, 70, 0
14, 71038, Note_on_c, 10, 82, 0
14, 72288, Note_on_c, 10, 82, 34
14, 72312, Note_on_c, 10, 94, 26
14, 72382, Note_on_c, 10, 82, 0
14, 72382, Note_on_c, 10, 94, 0
14, 72480, Note_on_c, 10, 82, 32
14, 72504, Note_on_c, 10, 94, 32
14, 72574, Note_on_c, 10, 82, 0
14, 72574, Note_on_c, 10, 94, 0
14, 72672, Note_on_c, 10, 82, 30
14, 72696, Note_on_c, 10, 94, 25
14, 72766, Note_on_c, 10, 82, 0
14, 72766, Note_on_c, 10, 94, 0
14, 72864, Note_on_c, 10, 82, 28
14, 72888, Note_on_c, 10, 94, 29
14, 72958, Note_on_c, 10, 82, 0
14, 72958, Note_on_c, 10, 94, 0
14, 73056, Note_on_c, 10, 82, 33
14, 73080, Note_on_c, 10, 94, 28
14, 73150, Note_on_c, 10, 82, 0
14, 73150, Note_on_c, 10, 94, 0
14, 73248, Note_on_c, 10, 82, 31
14, 73272, Note_on_c, 10, 94, 35
14, 73342, Note_on_c, 10, 82, 0
14, 73342, Note_on_c, 10, 94, 0
14, 73440, Note_on_c, 10, 82, 27
14, 73464, Note_on_c, 10, 94, 35
14, 73534, Note_on_c, 10, 82, 0
14, 73534, Note_on_c, 10, 94, 0
14, 73632, Note_on_c, 10, 70, 32
14, 73656, Note_on_c, 10, 82, 25
14, 73726, Note_on_c, 10, 70, 0
14, 73726, Note_on_c, 10, 82, 0
14, 73824, Note_on_c, 10, 82, 28
14, 73848, Note_on_c, 10, 94, 25
14, 73918, Note_on_c, 10, 82, 0
14, 73918, Note_on_c, 10, 94, 0
14, 74016, Note_on_c, 10, 70, 34
14, 74040, Note_on_c, 10, 82, 27
14, 74110, Note_on_c, 10, 70, 0
14, 74110, Note_on_c, 10, 82, 0
14, 74208, Note_on_c, 10, 82, 26
14, 74232, Note_on_c, 10, 94, 26
14, 74302, Note_on_c, 10, 82, 0
14, 74302, Note_on_c, 10, 94, 0
14, 74400, Note_on_c, 10, 70, 27
14, 74424, Note_on_c, 10, 82, 32
14, 74494, Note_on_c, 10, 70, 0
14, 74494, Note_on_c, 10, 82, 0
14, 79584, Note_on_c, 10, 73, 40
14, 79614, Note_on_c, 10, 73, 0
14, 79616, Note_on_c, 10, 75, 50
14, 79646, Note_on_c, 10, 75, 0
14, 79648, Note_on_c, 10, 85, 45
14, 79678, Note_on_c, 10, 85, 0
14, 79680, Note_on_c, 10, 87, 41
14, 79710, Note_on_c, 10, 87, 0
14, 79712, Note_on_c, 10, 97, 50
14, 79742, Note_on_c, 10, 97, 0
14, 79744, Note_on_c, 10, 99, 49
14, 79774, Note_on_c, 10, 99, 0
14, 79776, Note_on_c, 10, 70, 50
14, 79806, Note_on_c, 10, 70, 0
14, 79808, Note_on_c, 10, 72, 43
14, 79838, Note_on_c, 10, 72, 0
14, 79840, Note_on_c, 10, 82, 43
14, 79870, Note_on_c, 10, 82, 0
14, 79872, Note_on_c, 10, 84, 41
14, 79902, Note_on_c, 10, 84, 0
14, 79904, Note_on_c, 10, 94, 51
14, 79934, Note_on_c, 10, 94, 0
14, 79936, Note_on_c, 10, 95, 44
14, 79966, Note_on_c, 10, 95, 0
14, 80160, Note_on_c, 10, 73, 62
14, 80190, Note_on_c, 10, 73, 0
14, 80192, Note_on_c, 10, 75, 53
14, 80222, Note_on_c, 10, 75, 0
14, 80224, Note_on_c, 10, 85, 56
14, 80254, Note_on_c, 10, 85, 0
14, 80256, Note_on_c, 10, 87, 65
14, 80286, Note_on_c, 10, 87, 0
14, 80288, Note_on_c, 10, 97, 62
14, 80318, Note_on_c, 10, 97, 0
14, 80320, Note_on_c, 10, 99, 60
14, 80350, Note_on_c, 10, 99, 0
14, 80352, Note_on_c, 10, 70, 60
14, 80382, Note_on_c, 10, 70, 0
14, 80384, Note_on_c, 10, 72, 69
14, 80414, Note_on_c, 10, 72, 0
14, 80416, Note_on_c, 10, 82, 61
14, 80446, Note_on_c, 10, 82, 0
14, 80448, Note_on_c, 10, 84, 61
14, 80478, Note_on_c, 10, 84, 0
14, 80480, Note_on_c, 10, 94, 69
14, 80510, Note_on_c, 10, 94, 0
14, 80512, Note_on_c, 10, 95, 67
14, 80542, Note_on_c, 10, 95, 0
14, 80736, Note_on_c, 10, 73, 78
14, 80766, Note_on_c, 10, 73, 0
14, 80768, Note_on_c, 10, 75, 82
14, 80798, Note_on_c, 10, 75, 0
14, 80800, Note_on_c, 10, 85, 87
14, 80830, Note_on_c, 10, 85, 0
14, 80832, Note_on_c, 10, 87, 84
14, 80862, Note_on_c, 10, 87, 0
14, 80864, Note_on_c, 10, 97, 94
14, 80894, Note_on_c, 10, 97, 0
14, 80896, Note_on_c, 10, 99, 89
14, 80926, Note_on_c, 10, 99, 0
14, 82080, Note_on_c, 10, 35, 105
14, 82110, Note_on_c, 10, 35, 0
14, 82112, Note_on_c, 10, 41, 108
14, 82142, Note_on_c, 10, 41, 0
14, 82144, Note_on_c, 10, 46, 107
14, 82174, Note_on_c, 10, 46, 0
14, 82176, Note_on_c, 10, 50, 107
14, 82206, Note_on_c, 10, 50, 0
14, 82208, Note_on_c, 10, 53, 109
14, 82238, Note_on_c, 10, 53, 0
14, 82240, Note_on_c, 10, 56, 110
14, 82270, Note_on_c, 10, 56, 0
14, 82272, Note_on_c, 10, 58, 117
14, 82302, Note_on_c, 10, 58, 0
14, 82304, Note_on_c, 10, 60, 109
14, 82334, Note_on_c, 10, 60, 0
14, 82336, Note_on_c, 10, 62, 112
14, 82366, Note_on_c, 10, 62, 0
14, 82368, Note_on_c, 10, 65, 113
14, 82398, Note_on_c, 10, 65, 0
14, 82400, Note_on_c, 10, 68, 118
14, 82430, Note_on_c, 10, 68, 0
14, 82432, Note_on_c, 10, 70, 113
14, 82462, Note_on_c, 10, 70, 0
14, 82464, Note_on_c, 10, 72, 122
14, 82494, Note_on_c, 10, 72, 0
14, 82496, Note_on_c, 10, 74, 122
14, 82526, Note_on_c, 10, 74, 0
14, 82528, Note_on_c, 10, 77, 115
14, 82558, Note_on_c, 10, 77, 0
14, 82560, Note_on_c, 10, 80, 121
14, 82590, Note_on_c, 10, 80, 0
14, 82592, Note_on_c, 10, 82, 123
14, 82622, Note_on_c, 10, 82, 0
14, 82624, Note_on_c, 10, 84, 126
14, 82654, Note_on_c, 10, 84, 0
14, 82656, Note_on_c, 10, 86, 127
14, 82678, Note_on_c, 10, 86, 0
14, 82680, Note_on_c, 10, 89, 121
14, 82702, Note_on_c, 10, 89, 0
14, 82704, Note_on_c, 10, 92, 126
14, 82726, Note_on_c, 10, 92, 0
14, 82728, Note_on_c, 10, 94, 127
14, 82750, Note_on_c, 10, 94, 0
14, 82752, Note_on_c, 10, 96, 123
14, 82846, Note_on_c, 10, 96, 0
14, 84384, Note_on_c, 10, 35, 110
14, 84414, Note_on_c, 10, 35, 0
14, 84416, Note_on_c, 10, 41, 103
14, 84446, Note_on_c, 10, 41, 0
14, 84448, Note_on_c, 10, 46, 110
14, 84478, Note_on_c, 10, 46, 0
14, 84480, Note_on_c, 10, 50, 105
14, 84510, Note_on_c, 10, 50, 0
14, 84512, Note_on_c, 10, 53, 110
14, 84542, Note_on_c, 10, 53, 0
14, 84544, Note_on_c, 10, 56, 108
14, 84574, Note_on_c, 10, 56, 0
14, 84576, Note_on_c, 10, 58, 116
14, 84606, Note_on_c, 10, 58, 0
14, 84608, Note_on_c, 10, 60, 110
14, 84638, Note_on_c, 10, 60, 0
14, 84640, Note_on_c, 10, 62, 112
14, 84670, Note_on_c, 10, 62, 0
14, 84672, Note_on_c, 10, 65, 110
14, 84702, Note_on_c, 10, 65, 0
14, 84704, Note_on_c, 10, 68, 111
14, 84734, Note_on_c, 10, 68, 0
14, 84736, Note_on_c, 10, 70, 118
14, 84766, Note_on_c, 10, 70, 0
14, 84768, Note_on_c, 10, 72, 123
14, 84798, Note_on_c, 10, 72, 0
14, 84800, Note_on_c, 10, 74, 122
14, 84830, Note_on_c, 10, 74, 0
14, 84832, Note_on_c, 10, 77, 120
14, 84862, Note_on_c, 10, 77, 0
14, 84864, Note_on_c, 10, 80, 116
14, 84894, Note_on_c, 10, 80, 0
14, 84896, Note_on_c, 10, 82, 127
14, 84926, Note_on_c, 10, 82, 0
14, 84928, Note_on_c, 10, 84, 127
14, 84958, Note_on_c, 10, 84, 0
14, 84960, Note_on_c, 10, 86, 120
14, 84982, Note_on_c, 10, 86, 0
14, 84984, Note_on_c, 10, 89, 127
14, 85006, Note_on_c, 10, 89, 0
14, 85008, Note_on_c, 10, 92, 127
14, 85030, Note_on_c, 10, 92, 0
14, 85032, Note_on_c, 10, 94, 126
14, 85054, Note_on_c, 10, 94, 0
14, 85056, Note_on_c, 10, 96, 124
14, 85150, Note_on_c, 10, 96, 0
14, 88608, Note_on_c, 10, 80, 48
14, 88654, Note_on_c, 10, 80, 0
14, 88656, Note_on_c, 10, 78, 41
14, 88702, Note_on_c, 10, 78, 0
14, 88704, Note_on_c, 10, 76, 51
14, 88750, Note_on_c, 10, 76, 0
14, 88752, Note_on_c, 10, 75, 53
14, 88798, Note_on_c, 10, 75, 0
14, 88800, Note_on_c, 10, 73, 56
14, 88846, Note_on_c, 10, 73, 0
14, 88848, Note_on_c, 10, 75, 53
14, 88894, Note_on_c, 10, 75, 0
14, 88896, Note_on_c, 10, 76, 59
14, 88942, Note_on_c, 10, 76, 0
14, 88944, Note_on_c, 10, 78, 61
14, 88990, Note_on_c, 10, 78, 0
14, 88992, Note_on_c, 10, 80, 35
14, 89152, Note_on_c, 10, 80, 0
14, 90912, Note_on_c, 10, 80, 40
14, 90958, Note_on_c, 10, 80, 0
14, 90960, Note_on_c, 10, 78, 46
14, 91006, Note_on_c, 10, 78, 0
14, 91008, Note_on_c, 10, 76, 47
14, 91054, Note_on_c, 10, 76, 0
14, 91056, Note_on_c, 10, 75, 46
14, 91102, Note_on_c, 10, 75, 0
14, 91104, Note_on_c, 10, 73, 48
14, 91150, Note_on_c, 10, 73, 0
14, 91152, Note_on_c, 10, 75, 54
14, 91198, Note_on_c, 10, 75, 0
14, 91200, Note_on_c, 10, 76, 62
14, 91246, Note_on_c, 10, 76, 0
14, 91248, Note_on_c, 10, 78, 63
14, 91294, Note_on_c, 10, 78, 0
14, 91296, Note_on_c, 10, 32, 31
14, 91296, Note_on_c, 10, 80, 35
14, 91390, Note_on_c, 10, 32, 0
14, 91392, Note_on_c, 10, 44, 25
14, 91456, Note_on_c, 10, 80, 0
14, 91486, Note_on_c, 10, 44, 0
14, 91488, Note_on_c, 10, 51, 27
14, 91550, Note_on_c, 10, 51, 0
14, 91552, Note_on_c, 10, 56, 29
14, 91614, Note_on_c, 10, 56, 0
14, 91616, Note_on_c, 10, 63, 33
14, 91678, Note_on_c, 10, 63, 0
14, 91680, Note_on_c, 10, 59, 34
14, 91774, Note_on_c, 10, 59, 0
14, 91776, Note_on_c, 10, 53, 32
14, 91870, Note_on_c, 10, 53, 0
14, 91872, Note_on_c, 10, 32, 34
14, 91966, Note_on_c, 10, 32, 0
14, 91968, Note_on_c, 10, 44, 30
14, 92062, Note_on_c, 10, 44, 0
14, 92064, Note_on_c, 10, 51, 28
14, 92126, Note_on_c, 10, 51, 0
14, 92128, Note_on_c, 10, 56, 31
14, 92190, Note_on_c, 10, 56, 0
14, 92192, Note_on_c, 10, 63, 32
14, 92254, Note_on_c, 10, 63, 0
14, 92256, Note_on_c, 10, 59, 33
14, 92350, Note_on_c, 10, 59, 0
14, 92352, Note_on_c, 10, 51, 33
14, 92446, Note_on_c, 10, 51, 0
14, 92448, Note_on_c, 10, 32, 45
14, 92510, Note_on_c, 10, 32, 0
14, 92512, Note_on_c, 10, 44, 48
14, 92574, Note_on_c, 10, 44, 0
14, 92576, Note_on_c, 10, 52, 45
14, 92638, Note_on_c, 10, 52, 0
14, 92640, Note_on_c, 10, 59, 43
14, 92702, Note_on_c, 10, 59, 0
14, 92704, Note_on_c, 10, 62, 47
14, 92766, Note_on_c, 10, 62, 0
14, 92768, Note_on_c, 10, 66, 53
14, 92830, Note_on_c, 10, 66, 0
14, 92832, Note_on_c, 10, 59, 50
14, 92926, Note_on_c, 10, 59, 0
14, 92928, Note_on_c, 10, 52, 56
14, 93022, Note_on_c, 10, 52, 0
14, 93024, Note_on_c, 10, 32, 58
14, 93086, Note_on_c, 10, 32, 0
14, 93088, Note_on_c, 10, 44, 63
14, 93150, Note_on_c, 10, 44, 0
14, 93152, Note_on_c, 10, 52, 62
14, 93214, Note_on_c, 10, 52, 0
14, 93216, Note_on_c, 10, 59, 63
14, 93278, Note_on_c, 10, 59, 0
14, 93280, Note_on_c, 10, 62, 69
14, 93342, Note_on_c, 10, 62, 0
14, 93344, Note_on_c, 10, 66, 70
14, 93406, Note_on_c, 10, 66, 0
14, 93408, Note_on_c, 10, 59, 76
14, 93502, Note_on_c, 10, 59, 0
14, 93504, Note_on_c, 10, 52, 70
14, 93598, Note_on_c, 10, 52, 0
14, 93600, Note_on_c, 10, 32, 27
14, 93694, Note_on_c, 10, 32, 0
14, 93696, Note_on_c, 10, 44, 29
14, 93790, Note_on_c, 10, 44, 0
14, 93792, Note_on_c, 10, 51, 28
14, 93854, Note_on_c, 10, 51, 0
14, 93856, Note_on_c, 10, 56, 29
14, 93918, Note_on_c, 10, 56, 0
14, 93920, Note_on_c, 10, 63, 34
14, 93982, Note_on_c, 10, 63, 0
14, 93984, Note_on_c, 10, 59, 27
14, 94078, Note_on_c, 10, 59, 0
14, 94080, Note_on_c, 10, 53, 30
14, 94174, Note_on_c, 10, 53, 0
14, 94176, Note_on_c, 10, 32, 27
14, 94270, Note_on_c, 10, 32, 0
14, 94272, Note_on_c, 10, 44, 30
14, 94366, Note_on_c, 10, 44, 0
14, 94368, Note_on_c, 10, 47, 27
14, 94430, Note_on_c, 10, 47, 0
14, 94432, Note_on_c, 10, 56, 35
14, 94494, Note_on_c, 10, 56, 0
14, 94496, Note_on_c, 10, 63, 27
14, 94558, Note_on_c, 10, 63, 0
14, 94560, Note_on_c, 10, 59, 27
14, 94654, Note_on_c, 10, 59, 0
14, 94656, Note_on_c, 10, 51, 32
14, 94750, Note_on_c, 10, 51, 0
14, 94752, Note_on_c, 10, 32, 42
14, 94814, Note_on_c, 10, 32, 0
14, 94816, Note_on_c, 10, 44, 50
14, 94878, Note_on_c, 10, 44, 0
14, 94880, Note_on_c, 10, 54, 49
14, 94942, Note_on_c, 10, 54, 0
14, 94944, Note_on_c, 10, 60, 64
14, 94944, Note_on_c, 10, 63, 55
14, 95104, Note_on_c, 10, 60, 0
14, 95104, Note_on_c, 10, 63, 0
14, 95328, Note_on_c, 10, 32, 48
14, 95390, Note_on_c, 10, 32, 0
14, 95392, Note_on_c, 10, 44, 49
14, 95454, Note_on_c, 10, 44, 0
14, 95456, Note_on_c, 10, 54, 50
14, 95518, Note_on_c, 10, 54, 0
14, 95520, Note_on_c, 10, 63, 62
14, 95520, Note_on_c, 10, 60, 61
14, 95680, Note_on_c, 10, 63, 0
14, 95680, Note_on_c, 10, 60, 0
14, 95904, Note_on_c, 10, 32, 28
14, 95998, Note_on_c, 10, 32, 0
14, 96000, Note_on_c, 10, 44, 34
14, 96094, Note_on_c, 10, 44, 0
14, 96096, Note_on_c, 10, 52, 33
14, 96190, Note_on_c, 10, 52, 0
14, 96192, Note_on_c, 10, 58, 33
14, 96448, Note_on_c, 10, 58, 0
14, 96480, Note_on_c, 10, 32, 25
14, 96574, Note_on_c, 10, 32, 0
14, 96576, Note_on_c, 10, 44, 28
14, 96670, Note_on_c, 10, 44, 0
14, 96672, Note_on_c, 10, 52, 31
14, 96766, Note_on_c, 10, 52, 0
14, 96768, Note_on_c, 10, 58, 25
14, 97024, Note_on_c, 10, 58, 0
14, 97056, Note_on_c, 10, 32, 48
14, 97150, Note_on_c, 10, 32, 0
14, 97152, Note_on_c, 10, 44, 49
14, 97246, Note_on_c, 10, 44, 0
14, 97248, Note_on_c, 10, 52, 60
14, 97342, Note_on_c, 10, 52, 0
14, 97344, Note_on_c, 10, 59, 67
14, 97438, Note_on_c, 10, 59, 0
14, 97440, Note_on_c, 10, 61, 71
14, 97600, Note_on_c, 10, 61, 0
14, 97632, Note_on_c, 10, 32, 42
14, 97726, Note_on_c, 10, 32, 0
14, 97728, Note_on_c, 10, 44, 41
14, 97822, Note_on_c, 10, 44, 0
14, 97824, Note_on_c, 10, 52, 59
14, 97918, Note_on_c, 10, 52, 0
14, 97920, Note_on_c, 10, 59, 65
14, 98014, Note_on_c, 10, 59, 0
14, 98016, Note_on_c, 10, 61, 78
14, 98176, Note_on_c, 10, 61, 0
14, 98208, Note_on_c, 10, 32, 32
14, 98302, Note_on_c, 10, 32, 0
14, 98304, Note_on_c, 10, 44, 34
14, 98398, Note_on_c, 10, 44, 0
14, 98400, Note_on_c, 10, 52, 35
14, 98494, Note_on_c, 10, 52, 0
14, 98496, Note_on_c, 10, 58, 26
14, 98752, Note_on_c, 10, 58, 0
14, 98784, Note_on_c, 10, 32, 25
14, 98878, Note_on_c, 10, 32, 0
14, 98880, Note_on_c, 10, 44, 25
14, 98974, Note_on_c, 10, 44, 0
14, 98976, Note_on_c, 10, 52, 34
14, 99070, Note_on_c, 10, 52, 0
14, 99072, Note_on_c, 10, 58, 33
14, 99328, Note_on_c, 10, 58, 0
14, 99360, Note_on_c, 10, 32, 44
14, 99454, Note_on_c, 10, 32, 0
14, 99456, Note_on_c, 10, 44, 46
14, 99550, Note_on_c, 10, 44, 0
14, 99552, Note_on_c, 10, 52, 55
14, 99646, Note_on_c, 10, 52, 0
14, 99648, Note_on_c, 10, 59, 64
14, 99742, Note_on_c, 10, 59, 0
14, 99744, Note_on_c, 10, 61, 72
14, 99904, Note_on_c, 10, 61, 0
14, 99936, Note_on_c, 10, 32, 49
14, 100030, Note_on_c, 10, 32, 0
14, 100032, Note_on_c, 10, 44, 42
14, 100126, Note_on_c, 10, 44, 0
14, 100128, Note_on_c, 10, 52, 55
14, 100222, Note_on_c, 10, 52, 0
14, 100224, Note_on_c, 10, 59, 64
14, 100318, Note_on_c, 10, 59, 0
14, 100320, Note_on_c, 10, 61, 77
14, 100480, Note_on_c, 10, 61, 0
14, 100512, Note_on_c, 10, 44, 41
14, 100606, Note_on_c, 10, 44, 0
14, 100608, Note_on_c, 10, 56, 45
14, 100702, Note_on_c, 10, 56, 0
14, 100704, Note_on_c, 10, 45, 55
14, 100798, Note_on_c, 10, 45, 0
14, 100800, Note_on_c, 10, 57, 60
14, 100894, Note_on_c, 10, 57, 0
14, 100896, Note_on_c, 10, 47, 70
14, 100990, Note_on_c, 10, 47, 0
14, 100992, Note_on_c, 10, 59, 71
14, 101086, Note_on_c, 10, 59, 0
14, 101088, Note_on_c, 10, 49, 44
14, 101182, Note_on_c, 10, 49, 0
14, 101184, Note_on_c, 10, 61, 43
14, 101278, Note_on_c, 10, 61, 0
14, 101280, Note_on_c, 10, 51, 45
14, 101374, Note_on_c, 10, 51, 0
14, 101376, Note_on_c, 10, 63, 40
14, 101470, Note_on_c, 10, 63, 0
14, 101472, Note_on_c, 10, 52, 43
14, 101566, Note_on_c, 10, 52, 0
14, 101568, Note_on_c, 10, 64, 43
14, 101662, Note_on_c, 10, 64, 0
14, 101664, Note_on_c, 10, 54, 41
14, 101758, Note_on_c, 10, 54, 0
14, 101760, Note_on_c, 10, 66, 42
14, 101854, Note_on_c, 10, 66, 0
14, 101856, Note_on_c, 10, 56, 52
14, 101950, Note_on_c, 10, 56, 0
14, 101952, Note_on_c, 10, 69, 51
14, 102046, Note_on_c, 10, 69, 0
14, 102048, Note_on_c, 10, 57, 52
14, 102142, Note_on_c, 10, 57, 0
14, 102144, Note_on_c, 10, 71, 58
14, 102238, Note_on_c, 10, 71, 0
14, 102240, Note_on_c, 10, 59, 65
14, 102334, Note_on_c, 10, 59, 0
14, 102336, Note_on_c, 10, 71, 60
14, 102430, Note_on_c, 10, 71, 0
14, 102432, Note_on_c, 10, 61, 64
14, 102526, Note_on_c, 10, 61, 0
14, 102528, Note_on_c, 10, 73, 72
14, 102622, Note_on_c, 10, 73, 0
14, 102624, Note_on_c, 10, 64, 71
14, 102718, Note_on_c, 10, 64, 0
14, 102720, Note_on_c, 10, 76, 76
14, 102814, Note_on_c, 10, 76, 0
14, 102816, Note_on_c, 10, 64, 46
14, 102910, Note_on_c, 10, 64, 0
14, 102912, Note_on_c, 10, 76, 48
14, 103006, Note_on_c, 10, 76, 0
14, 103008, Note_on_c, 10, 66, 50
14, 103102, Note_on_c, 10, 66, 0
14, 103104, Note_on_c, 10, 78, 49
14, 103198, Note_on_c, 10, 78, 0
14, 103200, Note_on_c, 10, 68, 50
14, 103294, Note_on_c, 10, 68, 0
14, 103296, Note_on_c, 10, 80, 43
14, 103390, Note_on_c, 10, 80, 0
14, 103392, Note_on_c, 10, 69, 44
14, 103486, Note_on_c, 10, 69, 0
14, 103488, Note_on_c, 10, 81, 46
14, 103582, Note_on_c, 10, 81, 0
14, 103584, Note_on_c, 10, 71, 47
14, 103678, Note_on_c, 10, 71, 0
14, 103680, Note_on_c, 10, 83, 40
14, 103774, Note_on_c, 10, 83, 0
14, 103776, Note_on_c, 10, 73, 46
14, 103870, Note_on_c, 10, 73, 0
14, 103872, Note_on_c, 10, 85, 41
14, 103966, Note_on_c, 10, 85, 0
14, 103968, Note_on_c, 10, 52, 41
14, 103968, Note_on_c, 10, 66, 47
14, 104062, Note_on_c, 10, 66, 0
14, 104064, Note_on_c, 10, 78, 45
14, 104158, Note_on_c, 10, 78, 0
14, 104160, Note_on_c, 10, 68, 43
14, 104254, Note_on_c, 10, 68, 0
14, 104256, Note_on_c, 10, 80, 47
14, 104304, Note_on_c, 10, 52, 0
14, 104350, Note_on_c, 10, 80, 0
14, 104352, Note_on_c, 10, 69, 42
14, 104446, Note_on_c, 10, 69, 0
14, 104448, Note_on_c, 10, 81, 44
14, 104542, Note_on_c, 10, 81, 0
14, 104544, Note_on_c, 10, 71, 49
14, 104544, Note_on_c, 10, 52, 48
14, 104638, Note_on_c, 10, 71, 0
14, 104640, Note_on_c, 10, 83, 47
14, 104734, Note_on_c, 10, 83, 0
14, 104736, Note_on_c, 10, 73, 40
14, 104830, Note_on_c, 10, 73, 0
14, 104832, Note_on_c, 10, 85, 40
14, 104880, Note_on_c, 10, 52, 0
14, 104926, Note_on_c, 10, 85, 0
14, 104928, Note_on_c, 10, 74, 44
14, 105022, Note_on_c, 10, 74, 0
14, 105024, Note_on_c, 10, 86, 46
14, 105118, Note_on_c, 10, 86, 0
14, 105120, Note_on_c, 10, 64, 45
14, 105214, Note_on_c, 10, 64, 0
14, 105216, Note_on_c, 10, 76, 42
14, 105310, Note_on_c, 10, 76, 0
14, 105312, Note_on_c, 10, 66, 44
14, 105406, Note_on_c, 10, 66, 0
14, 105408, Note_on_c, 10, 78, 42
14, 105502, Note_on_c, 10, 78, 0
14, 105504, Note_on_c, 10, 68, 45
14, 105598, Note_on_c, 10, 68, 0
14, 105600, Note_on_c, 10, 80, 48
14, 105694, Note_on_c, 10, 80, 0
14, 105696, Note_on_c, 10, 69, 42
14, 105790, Note_on_c, 10, 69, 0
14, 105792, Note_on_c, 10, 81, 46
14, 105886, Note_on_c, 10, 81, 0
14, 105888, Note_on_c, 10, 71, 43
14, 105982, Note_on_c, 10, 71, 0
14, 105984, Note_on_c, 10, 83, 40
14, 106078, Note_on_c, 10, 83, 0
14, 106080, Note_on_c, 10, 73, 48
14, 106174, Note_on_c, 10, 73, 0
14, 106176, Note_on_c, 10, 85, 43
14, 106270, Note_on_c, 10, 85, 0
14, 106272, Note_on_c, 10, 66, 44
14, 106272, Note_on_c, 10, 52, 45
14, 106366, Note_on_c, 10, 66, 0
14, 106368, Note_on_c, 10, 78, 43
14, 106462, Note_on_c, 10, 78, 0
14, 106464, Note_on_c, 10, 68, 47
14, 106558, Note_on_c, 10, 68, 0
14, 106560, Note_on_c, 10, 80, 42
14, 106608, Note_on_c, 10, 52, 0
14, 106654, Note_on_c, 10, 80, 0
14, 106656, Note_on_c, 10, 69, 40
14, 106750, Note_on_c, 10, 69, 0
14, 106752, Note_on_c, 10, 81, 43
14, 106846, Note_on_c, 10, 81, 0
14, 106848, Note_on_c, 10, 71, 48
14, 106848, Note_on_c, 10, 52, 49
14, 106942, Note_on_c, 10, 71, 0
14, 106944, Note_on_c, 10, 83, 50
14, 107038, Note_on_c, 10, 83, 0
14, 107040, Note_on_c, 10, 73, 44
14, 107134, Note_on_c, 10, 73, 0
14, 107136, Note_on_c, 10, 85, 44
14, 107184, Note_on_c, 10, 52, 0
14, 107230, Note_on_c, 10, 85, 0
14, 107232, Note_on_c, 10, 74, 44
14, 107326, Note_on_c, 10, 74, 0
14, 107328, Note_on_c, 10, 86, 50
14, 107422, Note_on_c, 10, 86, 0
14, 107424, Note_on_c, 10, 52, 46
14, 107424, Note_on_c, 10, 78, 48
14, 107424, Note_on_c, 10, 90, 47
14, 107584, Note_on_c, 10, 52, 0
14, 107584, Note_on_c, 10, 78, 0
14, 107584, Note_on_c, 10, 90, 0
14, 109728, Note_on_c, 10, 95, 107
14, 109728, Note_on_c, 10, 80, 113
14, 109750, Note_on_c, 10, 95, 0
14, 109750, Note_on_c, 10, 80, 0
14, 109752, Note_on_c, 10, 77, 113
14, 109752, Note_on_c, 10, 92, 104
14, 109774, Note_on_c, 10, 77, 0
14, 109774, Note_on_c, 10, 92, 0
14, 109776, Note_on_c, 10, 89, 113
14, 109776, Note_on_c, 10, 74, 108
14, 109798, Note_on_c, 10, 89, 0
14, 109798, Note_on_c, 10, 74, 0
14, 109800, Note_on_c, 10, 86, 107
14, 109800, Note_on_c, 10, 71, 106
14, 109822, Note_on_c, 10, 86, 0
14, 109822, Note_on_c, 10, 71, 0
14, 109824, Note_on_c, 10, 68, 105
14, 109824, Note_on_c, 10, 83, 113
14, 109846, Note_on_c, 10, 68, 0
14, 109846, Note_on_c, 10, 83, 0
14, 109848, Note_on_c, 10, 86, 103
14, 109848, Note_on_c, 10, 65, 111
14, 109870, Note_on_c, 10, 86, 0
14, 109870, Note_on_c, 10, 65, 0
14, 109872, Note_on_c, 10, 68, 110
14, 109872, Note_on_c, 10, 89, 111
14, 109894, Note_on_c, 10, 68, 0
14, 109894, Note_on_c, 10, 89, 0
14, 109896, Note_on_c, 10, 71, 104
14, 109896, Note_on_c, 10, 92, 105
14, 109918, Note_on_c, 10, 71, 0
14, 109918, Note_on_c, 10, 92, 0
14, 109920, Note_on_c, 10, 95, 104
14, 109920, Note_on_c, 10, 74, 109
14, 109942, Note_on_c, 10, 95, 0
14, 109942, Note_on_c, 10, 74, 0
14, 109944, Note_on_c, 10, 77, 104
14, 109944, Note_on_c, 10, 92, 106
14, 109966, Note_on_c, 10, 77, 0
14, 109966, Note_on_c, 10, 92, 0
14, 109968, Note_on_c, 10, 89, 110
14, 109968, Note_on_c, 10, 80, 108
14, 109990, Note_on_c, 10, 89, 0
14, 109990, Note_on_c, 10, 80, 0
14, 109992, Note_on_c, 10, 77, 112
14, 109992, Note_on_c, 10, 86, 105
14, 110014, Note_on_c, 10, 77, 0
14, 110014, Note_on_c, 10, 86, 0
14, 110016, Note_on_c, 10, 74, 113
14, 110016, Note_on_c, 10, 83, 109
14, 110038, Note_on_c, 10, 74, 0
14, 110038, Note_on_c, 10, 83, 0
14, 110040, Note_on_c, 10, 86, 107
14, 110040, Note_on_c, 10, 71, 103
14, 110062, Note_on_c, 10, 86, 0
14, 110062, Note_on_c, 10, 71, 0
14, 110064, Note_on_c, 10, 68, 109
14, 110064, Note_on_c, 10, 89, 104
14, 110086, Note_on_c, 10, 68, 0
14, 110086, Note_on_c, 10, 89, 0
14, 110088, Note_on_c, 10, 65, 108
14, 110088, Note_on_c, 10, 92, 113
14, 110110, Note_on_c, 10, 65, 0
14, 110110, Note_on_c, 10, 92, 0
14, 110112, Note_on_c, 10, 95, 111
14, 110112, Note_on_c, 10, 68, 103
14, 110134, Note_on_c, 10, 95, 0
14, 110134, Note_on_c, 10, 68, 0
14, 110136, Note_on_c, 10, 71, 108
14, 110136, Note_on_c, 10, 92, 108
14, 110158, Note_on_c, 10, 71, 0
14, 110158, Note_on_c, 10, 92, 0
14, 110160, Note_on_c, 10, 89, 104
14, 110160, Note_on_c, 10, 74, 107
14, 110182, Note_on_c, 10, 89, 0
14, 110182, Note_on_c, 10, 74, 0
14, 110184, Note_on_c, 10, 86, 109
14, 110184, Note_on_c, 10, 77, 113
14, 110206, Note_on_c, 10, 86, 0
14, 110206, Note_on_c, 10, 77, 0
14, 110208, Note_on_c, 10, 80, 112
14, 110208, Note_on_c, 10, 83, 110
14, 110230, Note_on_c, 10, 80, 0
14, 110230, Note_on_c, 10, 83, 0
14, 110232, Note_on_c, 10, 86, 111
14, 110232, Note_on_c, 10, 77, 113
14, 110254, Note_on_c, 10, 86, 0
14, 110254, Note_on_c, 10, 77, 0
14, 110256, Note_on_c, 10, 89, 105
14, 110256, Note_on_c, 10, 74, 108
14, 110278, Note_on_c, 10, 89, 0
14, 110278, Note_on_c, 10, 74, 0
14, 110280, Note_on_c, 10, 71, 112
14, 110280, Note_on_c, 10, 92, 110
14, 110302, Note_on_c, 10, 71, 0
14, 110302, Note_on_c, 10, 92, 0
14, 110304, Note_on_c, 10, 95, 108
14, 110304, Note_on_c, 10, 68, 105
14, 110326, Note_on_c, 10, 95, 0
14, 110326, Note_on_c, 10, 68, 0
14, 110328, Note_on_c, 10, 92, 108
14, 110328, Note_on_c, 10, 65, 111
14, 110350, Note_on_c, 10, 92, 0
14, 110350, Note_on_c, 10, 65, 0
14, 110352, Note_on_c, 10, 89, 104
14, 110352, Note_on_c, 10, 68, 108
14, 110374, Note_on_c, 10, 89, 0
14, 110374, Note_on_c, 10, 68, 0
14, 110376, Note_on_c, 10, 71, 110
14, 110376, Note_on_c, 10, 86, 103
14, 110398, Note_on_c, 10, 71, 0
14, 110398, Note_on_c, 10, 86, 0
14, 110400, Note_on_c, 10, 74, 112
14, 110400, Note_on_c, 10, 83, 113
14, 110422, Note_on_c, 10, 74, 0
14, 110422, Note_on_c, 10, 83, 0
14, 110424, Note_on_c, 10, 86, 111
14, 110424, Note_on_c, 10, 77, 113
14, 110446, Note_on_c, 10, 86, 0
14, 110446, Note_on_c, 10, 77, 0
14, 110448, Note_on_c, 10, 89, 103
14, 110448, Note_on_c, 10, 80, 111
14, 110470, Note_on_c, 10, 89, 0
14, 110470, Note_on_c, 10, 80, 0
14, 110472, Note_on_c, 10, 77, 111
14, 110472, Note_on_c, 10, 92, 108
14, 110494, Note_on_c, 10, 77, 0
14, 110494, Note_on_c, 10, 92, 0
14, 110496, Note_on_c, 10, 74, 109
14, 110496, Note_on_c, 10, 95, 111
14, 110518, Note_on_c, 10, 74, 0
14, 110518, Note_on_c, 10, 95, 0
14, 110520, Note_on_c, 10, 92, 105
14, 110520, Note_on_c, 10, 71, 108
14, 110542, Note_on_c, 10, 92, 0
14, 110542, Note_on_c, 10, 71, 0
14, 110544, Note_on_c, 10, 68, 112
14, 110544, Note_on_c, 10, 89, 112
14, 110566, Note_on_c, 10, 68, 0
14, 110566, Note_on_c, 10, 89, 0
14, 110568, Note_on_c, 10, 86, 107
14, 110568, Note_on_c, 10, 65, 104
14, 110590, Note_on_c, 10, 86, 0
14, 110590, Note_on_c, 10, 65, 0
14, 110592, Note_on_c, 10, 68, 109
14, 110592, Note_on_c, 10, 83, 107
14, 110614, Note_on_c, 10, 68, 0
14, 110614, Note_on_c, 10, 83, 0
14, 110616, Note_on_c, 10, 86, 110
14, 110616, Note_on_c, 10, 71, 103
14, 110638, Note_on_c, 10, 86, 0
14, 110638, Note_on_c, 10, 71, 0
14, 110640, Note_on_c, 10, 74, 108
14, 110640, Note_on_c, 10, 89, 113
14, 110662, Note_on_c, 10, 74, 0
14, 110662, Note_on_c, 10, 89, 0
14, 110664, Note_on_c, 10, 92, 112
14, 110664, Note_on_c, 10, 77, 112
14, 110686, Note_on_c, 10, 92, 0
14, 110686, Note_on_c, 10, 77, 0
14, 110688, Note_on_c, 10, 95, 109
14, 110688, Note_on_c, 10, 80, 113
14, 110710, Note_on_c, 10, 95, 0
14, 110710, Note_on_c, 10, 80, 0
14, 110712, Note_on_c, 10, 92, 113
14, 110712, Note_on_c, 10, 77, 112
14, 110734, Note_on_c, 10, 92, 0
14, 110734, Note_on_c, 10, 77, 0
14, 110736, Note_on_c, 10, 89, 113
14, 110736, Note_on_c, 10, 74, 110
14, 110758, Note_on_c, 10, 89, 0
14, 110758, Note_on_c, 10, 74, 0
14, 110760, Note_on_c, 10, 86, 109
14, 110760, Note_on_c, 10, 71, 108
14, 110782, Note_on_c, 10, 86, 0
14, 110782, Note_on_c, 10, 71, 0
14, 110784, Note_on_c, 10, 68, 104
14, 110784, Note_on_c, 10, 83, 113
14, 110806, Note_on_c, 10, 68, 0
14, 110806, Note_on_c, 10, 83, 0
14, 110808, Note_on_c, 10, 86, 113
14, 110808, Note_on_c, 10, 65, 111
14, 110830, Note_on_c, 10, 86, 0
14, 110830, Note_on_c, 10, 65, 0
14, 110832, Note_on_c, 10, 68, 112
14, 110832, Note_on_c, 10, 89, 110
14, 110854, Note_on_c, 10, 68, 0
14, 110854, Note_on_c, 10, 89, 0
14, 110856, Note_on_c, 10, 71, 111
14, 110856, Note_on_c, 10, 92, 107
14, 110878, Note_on_c, 10, 71, 0
14, 110878, Note_on_c, 10, 92, 0
14, 110880, Note_on_c, 10, 44, 95
14, 110880, Note_on_c, 10, 32, 93
14, 111040, Note_on_c, 10, 44, 0
14, 111040, Note_on_c, 10, 32, 0
14, 111456, Note_on_c, 10, 80, 109
14, 111456, Note_on_c, 10, 95, 104
14, 111478, Note_on_c, 10, 80, 0
14, 111478, Note_on_c, 10, 95, 0
14, 111480, Note_on_c, 10, 92, 105
14, 111480, Note_on_c, 10, 77, 108
14, 111502, Note_on_c, 10, 92, 0
14, 111502, Note_on_c, 10, 77, 0
14, 111504, Note_on_c, 10, 74, 112
14, 111504, Note_on_c, 10, 89, 108
14, 111526, Note_on_c, 10, 74, 0
14, 111526, Note_on_c, 10, 89, 0
14, 111528, Note_on_c, 10, 71, 108
14, 111528, Note_on_c, 10, 86, 108
14, 111550, Note_on_c, 10, 71, 0
14, 111550, Note_on_c, 10, 86, 0
14, 111552, Note_on_c, 10, 83, 104
14, 111552, Note_on_c, 10, 68, 106
14, 111574, Note_on_c, 10, 83, 0
14, 111574, Note_on_c, 10, 68, 0
14, 111576, Note_on_c, 10, 65, 103
14, 111576, Note_on_c, 10, 86, 105
14, 111598, Note_on_c, 10, 65, 0
14, 111598, Note_on_c, 10, 86, 0
14, 111600, Note_on_c, 10, 89, 109
14, 111600, Note_on_c, 10, 68, 109
14, 111622, Note_on_c, 10, 89, 0
14, 111622, Note_on_c, 10, 68, 0
14, 111624, Note_on_c, 10, 92, 113
14, 111624, Note_on_c, 10, 71, 109
14, 111646, Note_on_c, 10, 92, 0
14, 111646, Note_on_c, 10, 71, 0
14, 111648, Note_on_c, 10, 74, 105
14, 111648, Note_on_c, 10, 95, 106
14, 111670, Note_on_c, 10, 74, 0
14, 111670, Note_on_c, 10, 95, 0
14, 111672, Note_on_c, 10, 92, 108
14, 111672, Note_on_c, 10, 77, 108
14, 111694, Note_on_c, 10, 92, 0
14, 111694, Note_on_c, 10, 77, 0
14, 111696, Note_on_c, 10, 89, 112
14, 111696, Note_on_c, 10, 80, 111
14, 111718, Note_on_c, 10, 89, 0
14, 111718, Note_on_c, 10, 80, 0
14, 111720, Note_on_c, 10, 86, 109
14, 111720, Note_on_c, 10, 77, 108
14, 111742, Note_on_c, 10, 86, 0
14, 111742, Note_on_c, 10, 77, 0
14, 111744, Note_on_c, 10, 74, 111
14, 111744, Note_on_c, 10, 83, 108
14, 111766, Note_on_c, 10, 74, 0
14, 111766, Note_on_c, 10, 83, 0
14, 111768, Note_on_c, 10, 86, 110
14, 111768, Note_on_c, 10, 71, 113
14, 111790, Note_on_c, 10, 86, 0
14, 111790, Note_on_c, 10, 71, 0
14, 111792, Note_on_c, 10, 68, 111
14, 111792, Note_on_c, 10, 89, 113
14, 111814, Note_on_c, 10, 68, 0
14, 111814, Note_on_c, 10, 89, 0
14, 111816, Note_on_c, 10, 65, 108
14, 111816, Note_on_c, 10, 92, 111
14, 111838, Note_on_c, 10, 65, 0
14, 111838, Note_on_c, 10, 92, 0
14, 111840, Note_on_c, 10, 95, 104
14, 111840, Note_on_c, 10, 68, 113
14, 111862, Note_on_c, 10, 95, 0
14, 111862, Note_on_c, 10, 68, 0
14, 111864, Note_on_c, 10, 71, 103
14, 111864, Note_on_c, 10, 92, 106
14, 111886, Note_on_c, 10, 71, 0
14, 111886, Note_on_c, 10, 92, 0
14, 111888, Note_on_c, 10, 89, 105
14, 111888, Note_on_c, 10, 74, 113
14, 111910, Note_on_c, 10, 89, 0
14, 111910, Note_on_c, 10, 74, 0
14, 111912, Note_on_c, 10, 86, 111
14, 111912, Note_on_c, 10, 77, 108
14, 111934, Note_on_c, 10, 86, 0
14, 111934, Note_on_c, 10, 77, 0
14, 111936, Note_on_c, 10, 80, 104
14, 111936, Note_on_c, 10, 83, 105
14, 111958, Note_on_c, 10, 80, 0
14, 111958, Note_on_c, 10, 83, 0
14, 111960, Note_on_c, 10, 86, 110
14, 111960, Note_on_c, 10, 77, 108
14, 111982, Note_on_c, 10, 86, 0
14, 111982, Note_on_c, 10, 77, 0
14, 111984, Note_on_c, 10, 74, 110
14, 111984, Note_on_c, 10, 89, 113
14, 112006, Note_on_c, 10, 74, 0
14, 112006, Note_on_c, 10, 89, 0
14, 112008, Note_on_c, 10, 92, 109
14, 112008, Note_on_c, 10, 71, 108
14, 112030, Note_on_c, 10, 92, 0
14, 112030, Note_on_c, 10, 71, 0
14, 112032, Note_on_c, 10, 32, 93
14, 112032, Note_on_c, 10, 44, 90
14, 112192, Note_on_c, 10, 32, 0
14, 112192, Note_on_c, 10, 44, 0
14, 112224, Note_on_c, 10, 44, 110
14, 112224, Note_on_c, 10, 56, 113
14, 112384, Note_on_c, 10, 44, 0
14, 112384, Note_on_c, 10, 56, 0
14, 112800, Note_on_c, 10, 44, 92
14, 112800, Note_on_c, 10, 32, 97
14, 112960, Note_on_c, 10, 44, 0
14, 112960, Note_on_c, 10, 32, 0
14, 112992, Note_on_c, 10, 44, 113
14, 112992, Note_on_c, 10, 56, 103
14, 113152, Note_on_c, 10, 44, 0
14, 113152, Note_on_c, 10, 56, 0
14, 113376, Note_on_c, 10, 44, 90
14, 113376, Note_on_c, 10, 32, 91
14, 113536, Note_on_c, 10, 44, 0
14, 113536, Note_on_c, 10, 32, 0
14, 113568, Note_on_c, 10, 56, 112
14, 113568, Note_on_c, 10, 44, 105
14, 113728, Note_on_c, 10, 56, 0
14, 113728, Note_on_c, 10, 44, 0
14, 113760, Note_on_c, 10, 66, 107
14, 113760, Note_on_c, 10, 54, 106
14, 113776, Note_on_c, 10, 70, 110
14, 113784, Note_on_c, 10, 58, 111
14, 113792, Note_on_c, 10, 75, 109
14, 113808, Note_on_c, 10, 78, 111
14, 113808, Note_on_c, 10, 63, 113
14, 113950, Note_on_c, 10, 66, 0
14, 113950, Note_on_c, 10, 54, 0
14, 113950, Note_on_c, 10, 70, 0
14, 113950, Note_on_c, 10, 58, 0
14, 113950, Note_on_c, 10, 75, 0
14, 113950, Note_on_c, 10, 78, 0
14, 113950, Note_on_c, 10, 63, 0
14, 113952, Note_on_c, 10, 51, 105
14, 113952, Note_on_c, 10, 39, 112
14, 114112, Note_on_c, 10, 51, 0
14, 114112, Note_on_c, 10, 39, 0
14, 114144, Note_on_c, 10, 44, 110
14, 114144, Note_on_c, 10, 32, 107
14, 114304, Note_on_c, 10, 44, 0
14, 114304, Note_on_c, 10, 32, 0
14, 114528, Note_on_c, 10, 89, 104
14, 114528, Note_on_c, 10, 77, 107
14, 114560, Note_on_c, 10, 89, 0
14, 114560, Note_on_c, 10, 77, 0
14, 114624, Note_on_c, 10, 80, 110
14, 114624, Note_on_c, 10, 92, 109
14, 114656, Note_on_c, 10, 80, 0
14, 114656, Note_on_c, 10, 92, 0
14, 114720, Note_on_c, 10, 82, 111
14, 114720, Note_on_c, 10, 94, 110
14, 114752, Note_on_c, 10, 82, 0
14, 114752, Note_on_c, 10, 94, 0
14, 114816, Note_on_c, 10, 80, 106
14, 114816, Note_on_c, 10, 92, 112
14, 114848, Note_on_c, 10, 80, 0
14, 114848, Note_on_c, 10, 92, 0
14, 114912, Note_on_c, 10, 77, 111
14, 114912, Note_on_c, 10, 89, 106
14, 114944, Note_on_c, 10, 77, 0
14, 114944, Note_on_c, 10, 89, 0
14, 115008, Note_on_c, 10, 92, 113
14, 115008, Note_on_c, 10, 80, 106
14, 115040, Note_on_c, 10, 92, 0
14, 115040, Note_on_c, 10, 80, 0
14, 115104, Note_on_c, 10, 82, 108
14, 115104, Note_on_c, 10, 94, 111
14, 115136, Note_on_c, 10, 82, 0
14, 115136, Note_on_c, 10, 94, 0
14, 115200, Note_on_c, 10, 92, 107
14, 115200, Note_on_c, 10, 80, 106
14, 115232, Note_on_c, 10, 92, 0
14, 115232, Note_on_c, 10, 80, 0
14, 115296, Note_on_c, 10, 89, 103
14, 115296, Note_on_c, 10, 77, 107
14, 115328, Note_on_c, 10, 89, 0
14, 115328, Note_on_c, 10, 77, 0
14, 115392, Note_on_c, 10, 80, 111
14, 115392, Note_on_c, 10, 92, 108
14, 115424, Note_on_c, 10, 80, 0
14, 115424, Note_on_c, 10, 92, 0
14, 115488, Note_on_c, 10, 94, 110
14, 115488, Note_on_c, 10, 82, 113
14, 115520, Note_on_c, 10, 94, 0
14, 115520, Note_on_c, 10, 82, 0
14, 115584, Note_on_c, 10, 80, 113
14, 115584, Note_on_c, 10, 92, 105
14, 115616, Note_on_c, 10, 80, 0
14, 115616, Note_on_c, 10, 92, 0
14, 115680, Note_on_c, 10, 88, 103
14, 115680, Note_on_c, 10, 76, 113
14, 115712, Note_on_c, 10, 88, 0
14, 115712, Note_on_c, 10, 76, 0
14, 115776, Note_on_c, 10, 80, 108
14, 115776, Note_on_c, 10, 92, 110
14, 115808, Note_on_c, 10, 80, 0
14, 115808, Note_on_c, 10, 92, 0
14, 115872, Note_on_c, 10, 82, 106
14, 115872, Note_on_c, 10, 94, 110
14, 115904, Note_on_c, 10, 82, 0
14, 115904, Note_on_c, 10, 94, 0
14, 115968, Note_on_c, 10, 92, 105
14, 115968, Note_on_c, 10, 80, 103
14, 116000, Note_on_c, 10, 92, 0
14, 116000, Note_on_c, 10, 80, 0
14, 116064, Note_on_c, 10, 77, 109
14, 116064, Note_on_c, 10, 89, 108
14, 116096, Note_on_c, 10, 77, 0
14, 116096, Note_on_c, 10, 89, 0
14, 116160, Note_on_c, 10, 92, 104
14, 116160, Note_on_c, 10, 80, 104
14, 116192, Note_on_c, 10, 92, 0
14, 116192, Note_on_c, 10, 80, 0
14, 116256, Note_on_c, 10, 82, 109
14, 116256, Note_on_c, 10, 94, 110
14, 116288, Note_on_c, 10, 82, 0
14, 116288, Note_on_c, 10, 94, 0
14, 116352, Note_on_c, 10, 80, 103
14, 116352, Note_on_c, 10, 92, 106
14, 116384, Note_on_c, 10, 80, 0
14, 116384, Note_on_c, 10, 92, 0
14, 116448, Note_on_c, 10, 77, 104
14, 116448, Note_on_c, 10, 89, 108
14, 116480, Note_on_c, 10, 77, 0
14, 116480, Note_on_c, 10, 89, 0
14, 116544, Note_on_c, 10, 92, 107
14, 116544, Note_on_c, 10, 80, 103
14, 116576, Note_on_c, 10, 92, 0
14, 116576, Note_on_c, 10, 80, 0
14, 116640, Note_on_c, 10, 94, 110
14, 116640, Note_on_c, 10, 82, 107
14, 116672, Note_on_c, 10, 94, 0
14, 116672, Note_on_c, 10, 82, 0
14, 116736, Note_on_c, 10, 92, 103
14, 116736, Note_on_c, 10, 80, 103
14, 116768, Note_on_c, 10, 92, 0
14, 116768, Note_on_c, 10, 80, 0
14, 116832, Note_on_c, 10, 76, 107
14, 116832, Note_on_c, 10, 88, 104
14, 116864, Note_on_c, 10, 76, 0
14, 116864, Note_on_c, 10, 88, 0
14, 116928, Note_on_c, 10, 92, 106
14, 116928, Note_on_c, 10, 80, 113
14, 116960, Note_on_c, 10, 92, 0
14, 116960, Note_on_c, 10, 80, 0
14, 117024, Note_on_c, 10, 94, 104
14, 117024, Note_on_c, 10, 82, 110
14, 117056, Note_on_c, 10, 94, 0
14, 117056, Note_on_c, 10, 82, 0
14, 117120, Note_on_c, 10, 92, 110
14, 117120, Note_on_c, 10, 80, 111
14, 117152, Note_on_c, 10, 92, 0
14, 117152, Note_on_c, 10, 80, 0
14, 117216, Note_on_c, 10, 77, 105
14, 117216, Note_on_c, 10, 89, 103
14, 117248, Note_on_c, 10, 77, 0
14, 117248, Note_on_c, 10, 89, 0
14, 117312, Note_on_c, 10, 80, 109
14, 117312, Note_on_c, 10, 92, 107
14, 117344, Note_on_c, 10, 80, 0
14, 117344, Note_on_c, 10, 92, 0
14, 117408, Note_on_c, 10, 94, 111
14, 117408, Note_on_c, 10, 82, 103
14, 117440, Note_on_c, 10, 94, 0
14, 117440, Note_on_c, 10, 82, 0
14, 117504, Note_on_c, 10, 80, 108
14, 117504, Note_on_c, 10, 92, 108
14, 117536, Note_on_c, 10, 80, 0
14, 117536, Note_on_c, 10, 92, 0
14, 117600, Note_on_c, 10, 77, 107
14, 117600, Note_on_c, 10, 89, 110
14, 117632, Note_on_c, 10, 77, 0
14, 117632, Note_on_c, 10, 89, 0
14, 117696, Note_on_c, 10, 92, 106
14, 117696, Note_on_c, 10, 80, 113
14, 117728, Note_on_c, 10, 92, 0
14, 117728, Note_on_c, 10, 80, 0
14, 122400, Note_on_c, 10, 53, 41
14, 122400, Note_on_c, 10, 57, 49
14, 122400, Note_on_c, 10, 61, 43
14, 122430, Note_on_c, 10, 53, 0
14, 122430, Note_on_c, 10, 57, 0
14, 122430, Note_on_c, 10, 61, 0
14, 122432, Note_on_c, 10, 59, 40
14, 122432, Note_on_c, 10, 55, 47
14, 122432, Note_on_c, 10, 61, 44
14, 122462, Note_on_c, 10, 59, 0
14, 122462, Note_on_c, 10, 55, 0
14, 122462, Note_on_c, 10, 61, 0
14, 122464, Note_on_c, 10, 57, 48
14, 122464, Note_on_c, 10, 61, 46
14, 122464, Note_on_c, 10, 63, 43
14, 122494, Note_on_c, 10, 57, 0
14, 122494, Note_on_c, 10, 61, 0
14, 122494, Note_on_c, 10, 63, 0
14, 122496, Note_on_c, 10, 59, 44
14, 122496, Note_on_c, 10, 65, 49
14, 122496, Note_on_c, 10, 61, 52
14, 122526, Note_on_c, 10, 59, 0
14, 122526, Note_on_c, 10, 65, 0
14, 122526, Note_on_c, 10, 61, 0
14, 122528, Note_on_c, 10, 61, 44
14, 122528, Note_on_c, 10, 63, 43
14, 122528, Note_on_c, 10, 67, 51
14, 122558, Note_on_c, 10, 61, 0
14, 122558, Note_on_c, 10, 63, 0
14, 122558, Note_on_c, 10, 67, 0
14, 122560, Note_on_c, 10, 65, 48
14, 122560, Note_on_c, 10, 69, 46
14, 122560, Note_on_c, 10, 61, 48
14, 122590, Note_on_c, 10, 65, 0
14, 122590, Note_on_c, 10, 69, 0
14, 122590, Note_on_c, 10, 61, 0
14, 122592, Note_on_c, 10, 63, 53
14, 122592, Note_on_c, 10, 71, 52
14, 122592, Note_on_c, 10, 67, 55
14, 122622, Note_on_c, 10, 63, 0
14, 122622, Note_on_c, 10, 71, 0
14, 122622, Note_on_c, 10, 67, 0
14, 122624, Note_on_c, 10, 65, 49
14, 122624, Note_on_c, 10, 69, 48
14, 122624, Note_on_c, 10, 73, 56
14, 122654, Note_on_c, 10, 65, 0
14, 122654, Note_on_c, 10, 69, 0
14, 122654, Note_on_c, 10, 73, 0
14, 122656, Note_on_c, 10, 67, 55
14, 122656, Note_on_c, 10, 73, 60
14, 122656, Note_on_c, 10, 71, 60
14, 122686, Note_on_c, 10, 67, 0
14, 122686, Note_on_c, 10, 73, 0
14, 122686, Note_on_c, 10, 71, 0
14, 122688, Note_on_c, 10, 73, 57
14, 122688, Note_on_c, 10, 69, 61
14, 122688, Note_on_c, 10, 75, 62
14, 122710, Note_on_c, 10, 73, 0
14, 122710, Note_on_c, 10, 69, 0
14, 122710, Note_on_c, 10, 75, 0
14, 122712, Note_on_c, 10, 71, 61
14, 122712, Note_on_c, 10, 77, 54
14, 122712, Note_on_c, 10, 73, 57
14, 122734, Note_on_c, 10, 71, 0
14, 122734, Note_on_c, 10, 77, 0
14, 122734, Note_on_c, 10, 73, 0
14, 122736, Note_on_c, 10, 75, 63
14, 122736, Note_on_c, 10, 73, 60
14, 122736, Note_on_c, 10, 79, 59
14, 122758, Note_on_c, 10, 75, 0
14, 122758, Note_on_c, 10, 73, 0
14, 122758, Note_on_c, 10, 79, 0
14, 122760, Note_on_c, 10, 77, 61
14, 122760, Note_on_c, 10, 73, 64
14, 122760, Note_on_c, 10, 81, 64
14, 122782, Note_on_c, 10, 77, 0
14, 122782, Note_on_c, 10, 73, 0
14, 122782, Note_on_c, 10, 81, 0
14, 122784, Note_on_c, 10, 75, 60
14, 122784, Note_on_c, 10, 83, 64
14, 122784, Note_on_c, 10, 79, 57
14, 122806, Note_on_c, 10, 75, 0
14, 122806, Note_on_c, 10, 83, 0
14, 122806, Note_on_c, 10, 79, 0
14, 122808, Note_on_c, 10, 77, 65
14, 122808, Note_on_c, 10, 85, 60
14, 122808, Note_on_c, 10, 81, 59
14, 122830, Note_on_c, 10, 77, 0
14, 122830, Note_on_c, 10, 85, 0
14, 122830, Note_on_c, 10, 81, 0
14, 122832, Note_on_c, 10, 83, 64
14, 122832, Note_on_c, 10, 85, 61
14, 122832, Note_on_c, 10, 79, 65
14, 122854, Note_on_c, 10, 83, 0
14, 122854, Note_on_c, 10, 85, 0
14, 122854, Note_on_c, 10, 79, 0
14, 122856, Note_on_c, 10, 85, 64
14, 122856, Note_on_c, 10, 87, 65
14, 122856, Note_on_c, 10, 81, 63
14, 122878, Note_on_c, 10, 85, 0
14, 122878, Note_on_c, 10, 87, 0
14, 122878, Note_on_c, 10, 81, 0
14, 122880, Note_on_c, 10, 83, 67
14, 122880, Note_on_c, 10, 85, 72
14, 122880, Note_on_c, 10, 89, 62
14, 122902, Note_on_c, 10, 83, 0
14, 122902, Note_on_c, 10, 85, 0
14, 122902, Note_on_c, 10, 89, 0
14, 122904, Note_on_c, 10, 85, 71
14, 122904, Note_on_c, 10, 87, 66
14, 122904, Note_on_c, 10, 91, 74
14, 122926, Note_on_c, 10, 85, 0
14, 122926, Note_on_c, 10, 87, 0
14, 122926, Note_on_c, 10, 91, 0
14, 122928, Note_on_c, 10, 89, 72
14, 122928, Note_on_c, 10, 85, 72
14, 122928, Note_on_c, 10, 93, 75
14, 122950, Note_on_c, 10, 89, 0
14, 122950, Note_on_c, 10, 85, 0
14, 122950, Note_on_c, 10, 93, 0
14, 122952, Note_on_c, 10, 95, 78
14, 122952, Note_on_c, 10, 91, 76
14, 122952, Note_on_c, 10, 87, 71
14, 122974, Note_on_c, 10, 95, 0
14, 122974, Note_on_c, 10, 91, 0
14, 122974, Note_on_c, 10, 87, 0
14, 122976, Note_on_c, 10, 95, 79
14, 122976, Note_on_c, 10, 97, 70
14, 122976, Note_on_c, 10, 93, 74
14, 122976, Note_on_c, 10, 91, 72
14, 122976, Note_on_c, 10, 89, 71
14, 122976, Note_on_c, 10, 97, 71
14, 123006, Note_on_c, 10, 95, 0
14, 123006, Note_on_c, 10, 97, 0
14, 123006, Note_on_c, 10, 93, 0
14, 123006, Note_on_c, 10, 91, 0
14, 123006, Note_on_c, 10, 89, 0
14, 123006, Note_on_c, 10, 97, 0
14, 123008, Note_on_c, 10, 97, 73
14, 123008, Note_on_c, 10, 93, 79
14, 123008, Note_on_c, 10, 89, 78
14, 123008, Note_on_c, 10, 97, 70
14, 123008, Note_on_c, 10, 91, 70
14, 123008, Note_on_c, 10, 95, 78
14, 123038, Note_on_c, 10, 97, 0
14, 123038, Note_on_c, 10, 93, 0
14, 123038, Note_on_c, 10, 89, 0
14, 123038, Note_on_c, 10, 97, 0
14, 123038, Note_on_c, 10, 91, 0
14, 123038, Note_on_c, 10, 95, 0
14, 123040, Note_on_c, 10, 91, 76
14, 123040, Note_on_c, 10, 87, 75
14, 123040, Note_on_c, 10, 95, 72
14, 123070, Note_on_c, 10, 91, 0
14, 123070, Note_on_c, 10, 87, 0
14, 123070, Note_on_c, 10, 95, 0
14, 123072, Note_on_c, 10, 89, 76
14, 123072, Note_on_c, 10, 85, 77
14, 123072, Note_on_c, 10, 93, 76
14, 123102, Note_on_c, 10, 89, 0
14, 123102, Note_on_c, 10, 85, 0
14, 123102, Note_on_c, 10, 93, 0
14, 123104, Note_on_c, 10, 85, 67
14, 123104, Note_on_c, 10, 91, 73
14, 123104, Note_on_c, 10, 87, 70
14, 123134, Note_on_c, 10, 85, 0
14, 123134, Note_on_c, 10, 91, 0
14, 123134, Note_on_c, 10, 87, 0
14, 123136, Note_on_c, 10, 85, 73
14, 123136, Note_on_c, 10, 83, 65
14, 123136, Note_on_c, 10, 89, 74
14, 123166, Note_on_c, 10, 85, 0
14, 123166, Note_on_c, 10, 83, 0
14, 123166, Note_on_c, 10, 89, 0
14, 123168, Note_on_c, 10, 81, 73
14, 123168, Note_on_c, 10, 87, 64
14, 123168, Note_on_c, 10, 85, 70
14, 123198, Note_on_c, 10, 81, 0
14, 123198, Note_on_c, 10, 87, 0
14, 123198, Note_on_c, 10, 85, 0
14, 123200, Note_on_c, 10, 79, 63
14, 123200, Note_on_c, 10, 85, 70
14, 123200, Note_on_c, 10, 83, 62
14, 123230, Note_on_c, 10, 79, 0
14, 123230, Note_on_c, 10, 85, 0
14, 123230, Note_on_c, 10, 83, 0
14, 123232, Note_on_c, 10, 85, 66
14, 123232, Note_on_c, 10, 77, 64
14, 123232, Note_on_c, 10, 81, 67
14, 123262, Note_on_c, 10, 85, 0
14, 123262, Note_on_c, 10, 77, 0
14, 123262, Note_on_c, 10, 81, 0
14, 123264, Note_on_c, 10, 75, 67
14, 123264, Note_on_c, 10, 73, 66
14, 123264, Note_on_c, 10, 79, 58
14, 123294, Note_on_c, 10, 75, 0
14, 123294, Note_on_c, 10, 73, 0
14, 123294, Note_on_c, 10, 79, 0
14, 123296, Note_on_c, 10, 71, 55
14, 123296, Note_on_c, 10, 77, 64
14, 123296, Note_on_c, 10, 73, 55
14, 123326, Note_on_c, 10, 71, 0
14, 123326, Note_on_c, 10, 77, 0
14, 123326, Note_on_c, 10, 73, 0
14, 123328, Note_on_c, 10, 69, 61
14, 123328, Note_on_c, 10, 75, 59
14, 123328, Note_on_c, 10, 73, 57
14, 123358, Note_on_c, 10, 69, 0
14, 123358, Note_on_c, 10, 75, 0
14, 123358, Note_on_c, 10, 73, 0
14, 123360, Note_on_c, 10, 73, 53
14, 123360, Note_on_c, 10, 67, 56
14, 123360, Note_on_c, 10, 71, 55
14, 123390, Note_on_c, 10, 73, 0
14, 123390, Note_on_c, 10, 67, 0
14, 123390, Note_on_c, 10, 71, 0
14, 123392, Note_on_c, 10, 65, 58
14, 123392, Note_on_c, 10, 73, 54
14, 123392, Note_on_c, 10, 69, 51
14, 123422, Note_on_c, 10, 65, 0
14, 123422, Note_on_c, 10, 73, 0
14, 123422, Note_on_c, 10, 69, 0
14, 123424, Note_on_c, 10, 71, 48
14, 123424, Note_on_c, 10, 63, 51
14, 123424, Note_on_c, 10, 67, 54
14, 123454, Note_on_c, 10, 71, 0
14, 123454, Note_on_c, 10, 63, 0
14, 123454, Note_on_c, 10, 67, 0
14, 123456, Note_on_c, 10, 65, 53
14, 123456, Note_on_c, 10, 61, 50
14, 123456, Note_on_c, 10, 69, 51
14, 123478, Note_on_c, 10, 65, 0
14, 123478, Note_on_c, 10, 61, 0
14, 123478, Note_on_c, 10, 69, 0
14, 123480, Note_on_c, 10, 67, 48
14, 123480, Note_on_c, 10, 61, 52
14, 123480, Note_on_c, 10, 63, 45
14, 123502, Note_on_c, 10, 67, 0
14, 123502, Note_on_c, 10, 61, 0
14, 123502, Note_on_c, 10, 63, 0
14, 123504, Note_on_c, 10, 61, 47
14, 123504, Note_on_c, 10, 59, 45
14, 123504, Note_on_c, 10, 65, 42
14, 123526, Note_on_c, 10, 61, 0
14, 123526, Note_on_c, 10, 59, 0
14, 123526, Note_on_c, 10, 65, 0
14, 123528, Note_on_c, 10, 57, 43
14, 123528, Note_on_c, 10, 63, 41
14, 123528, Note_on_c, 10, 61, 43
14, 123550, Note_on_c, 10, 57, 0
14, 123550, Note_on_c, 10, 63, 0
14, 123550, Note_on_c, 10, 61, 0
14, 124704, Note_on_c, 10, 53, 45
14, 124704, Note_on_c, 10, 61, 50
14, 124704, Note_on_c, 10, 57, 40
14, 124734, Note_on_c, 10, 53, 0
14, 124734, Note_on_c, 10, 61, 0
14, 124734, Note_on_c, 10, 57, 0
14, 124736, Note_on_c, 10, 59, 41
14, 124736, Note_on_c, 10, 61, 48
14, 124736, Note_on_c, 10, 55, 46
14, 124766, Note_on_c, 10, 59, 0
14, 124766, Note_on_c, 10, 61, 0
14, 124766, Note_on_c, 10, 55, 0
14, 124768, Note_on_c, 10, 63, 49
14, 124768, Note_on_c, 10, 61, 47
14, 124768, Note_on_c, 10, 57, 44
14, 124798, Note_on_c, 10, 63, 0
14, 124798, Note_on_c, 10, 61, 0
14, 124798, Note_on_c, 10, 57, 0
14, 124800, Note_on_c, 10, 65, 42
14, 124800, Note_on_c, 10, 59, 50
14, 124800, Note_on_c, 10, 61, 43
14, 124830, Note_on_c, 10, 65, 0
14, 124830, Note_on_c, 10, 59, 0
14, 124830, Note_on_c, 10, 61, 0
14, 124832, Note_on_c, 10, 61, 50
14, 124832, Note_on_c, 10, 63, 51
14, 124832, Note_on_c, 10, 67, 53
14, 124862, Note_on_c, 10, 61, 0
14, 124862, Note_on_c, 10, 63, 0
14, 124862, Note_on_c, 10, 67, 0
14, 124864, Note_on_c, 10, 69, 54
14, 124864, Note_on_c, 10, 65, 46
14, 124864, Note_on_c, 10, 61, 54
14, 124894, Note_on_c, 10, 69, 0
14, 124894, Note_on_c, 10, 65, 0
14, 124894, Note_on_c, 10, 61, 0
14, 124896, Note_on_c, 10, 63, 50
14, 124896, Note_on_c, 10, 71, 56
14, 124896, Note_on_c, 10, 67, 48
14, 124926, Note_on_c, 10, 63, 0
14, 124926, Note_on_c, 10, 71, 0
14, 124926, Note_on_c, 10, 67, 0
14, 124928, Note_on_c, 10, 69, 51
14, 124928, Note_on_c, 10, 65, 53
14, 124928, Note_on_c, 10, 73, 58
14, 124958, Note_on_c, 10, 69, 0
14, 124958, Note_on_c, 10, 65, 0
14, 124958, Note_on_c, 10, 73, 0
14, 124960, Note_on_c, 10, 71, 50
14, 124960, Note_on_c, 10, 73, 52
14, 124960, Note_on_c, 10, 67, 55
14, 124990, Note_on_c, 10, 71, 0
14, 124990, Note_on_c, 10, 73, 0
14, 124990, Note_on_c, 10, 67, 0
14, 124992, Note_on_c, 10, 73, 52
14, 124992, Note_on_c, 10, 75, 56
14, 124992, Note_on_c, 10, 69, 56
14, 125014, Note_on_c, 10, 73, 0
14, 125014, Note_on_c, 10, 75, 0
14, 125014, Note_on_c, 10, 69, 0
14, 125016, Note_on_c, 10, 73, 56
14, 125016, Note_on_c, 10, 71, 60
14, 125016, Note_on_c, 10, 77, 53
14, 125038, Note_on_c, 10, 73, 0
14, 125038, Note_on_c, 10, 71, 0
14, 125038, Note_on_c, 10, 77, 0
14, 125040, Note_on_c, 10, 73, 62
14, 125040, Note_on_c, 10, 79, 54
14, 125040, Note_on_c, 10, 75, 63
14, 125062, Note_on_c, 10, 73, 0
14, 125062, Note_on_c, 10, 79, 0
14, 125062, Note_on_c, 10, 75, 0
14, 125064, Note_on_c, 10, 73, 65
14, 125064, Note_on_c, 10, 77, 60
14, 125064, Note_on_c, 10, 81, 55
14, 125086, Note_on_c, 10, 73, 0
14, 125086, Note_on_c, 10, 77, 0
14, 125086, Note_on_c, 10, 81, 0
14, 125088, Note_on_c, 10, 75, 61
14, 125088, Note_on_c, 10, 83, 62
14, 125088, Note_on_c, 10, 79, 66
14, 125110, Note_on_c, 10, 75, 0
14, 125110, Note_on_c, 10, 83, 0
14, 125110, Note_on_c, 10, 79, 0
14, 125112, Note_on_c, 10, 77, 67
14, 125112, Note_on_c, 10, 81, 61
14, 125112, Note_on_c, 10, 85, 61
14, 125134, Note_on_c, 10, 77, 0
14, 125134, Note_on_c, 10, 81, 0
14, 125134, Note_on_c, 10, 85, 0
14, 125136, Note_on_c, 10, 79, 63
14, 125136, Note_on_c, 10, 83, 61
14, 125136, Note_on_c, 10, 85, 66
14, 125158, Note_on_c, 10, 79, 0
14, 125158, Note_on_c, 10, 83, 0
14, 125158, Note_on_c, 10, 85, 0
14, 125160, Note_on_c, 10, 87, 66
14, 125160, Note_on_c, 10, 85, 65
14, 125160, Note_on_c, 10, 81, 68
14, 125182, Note_on_c, 10, 87, 0
14, 125182, Note_on_c, 10, 85, 0
14, 125182, Note_on_c, 10, 81, 0
14, 125184, Note_on_c, 10, 89, 72
14, 125184, Note_on_c, 10, 83, 62
14, 125184, Note_on_c, 10, 85, 71
14, 125206, Note_on_c, 10, 89, 0
14, 125206, Note_on_c, 10, 83, 0
14, 125206, Note_on_c, 10, 85, 0
14, 125208, Note_on_c, 10, 87, 65
14, 125208, Note_on_c, 10, 85, 70
14, 125208, Note_on_c, 10, 91, 70
14, 125230, Note_on_c, 10, 87, 0
14, 125230, Note_on_c, 10, 85, 0
14, 125230, Note_on_c, 10, 91, 0
14, 125232, Note_on_c, 10, 85, 74
14, 125232, Note_on_c, 10, 89, 74
14, 125232, Note_on_c, 10, 93, 68
14, 125254, Note_on_c, 10, 85, 0
14, 125254, Note_on_c, 10, 89, 0
14, 125254, Note_on_c, 10, 93, 0
14, 125256, Note_on_c, 10, 91, 76
14, 125256, Note_on_c, 10, 95, 76
14, 125256, Note_on_c, 10, 87, 74
14, 125278, Note_on_c, 10, 91, 0
14, 125278, Note_on_c, 10, 95, 0
14, 125278, Note_on_c, 10, 87, 0
14, 125280, Note_on_c, 10, 93, 76
14, 125280, Note_on_c, 10, 95, 78
14, 125280, Note_on_c, 10, 89, 71
14, 125280, Note_on_c, 10, 97, 74
14, 125280, Note_on_c, 10, 91, 70
14, 125280, Note_on_c, 10, 97, 75
14, 125310, Note_on_c, 10, 93, 0
14, 125310, Note_on_c, 10, 95, 0
14, 125310, Note_on_c, 10, 89, 0
14, 125310, Note_on_c, 10, 97, 0
14, 125310, Note_on_c, 10, 91, 0
14, 125310, Note_on_c, 10, 97, 0
14, 125312, Note_on_c, 10, 97, 72
14, 125312, Note_on_c, 10, 93, 76
14, 125312, Note_on_c, 10, 97, 80
14, 125312, Note_on_c, 10, 91, 80
14, 125312, Note_on_c, 10, 95, 80
14, 125312, Note_on_c, 10, 89, 73
14, 125342, Note_on_c, 10, 97, 0
14, 125342, Note_on_c, 10, 93, 0
14, 125342, Note_on_c, 10, 97, 0
14, 125342, Note_on_c, 10, 91, 0
14, 125342, Note_on_c, 10, 95, 0
14, 125342, Note_on_c, 10, 89, 0
14, 125344, Note_on_c, 10, 87, 71
14, 125344, Note_on_c, 10, 95, 77
14, 125344, Note_on_c, 10, 91, 72
14, 125374, Note_on_c, 10, 87, 0
14, 125374, Note_on_c, 10, 95, 0
14, 125374, Note_on_c, 10, 91, 0
14, 125376, Note_on_c, 10, 85, 72
14, 125376, Note_on_c, 10, 89, 74
14, 125376, Note_on_c, 10, 93, 74
14, 125406, Note_on_c, 10, 85, 0
14, 125406, Note_on_c, 10, 89, 0
14, 125406, Note_on_c, 10, 93, 0
14, 125408, Note_on_c, 10, 91, 76
14, 125408, Note_on_c, 10, 85, 75
14, 125408, Note_on_c, 10, 87, 77
14, 125438, Note_on_c, 10, 91, 0
14, 125438, Note_on_c, 10, 85, 0
14, 125438, Note_on_c, 10, 87, 0
14, 125440, Note_on_c, 10, 85, 68
14, 125440, Note_on_c, 10, 83, 75
14, 125440, Note_on_c, 10, 89, 69
14, 125470, Note_on_c, 10, 85, 0
14, 125470, Note_on_c, 10, 83, 0
14, 125470, Note_on_c, 10, 89, 0
14, 125472, Note_on_c, 10, 85, 70
14, 125472, Note_on_c, 10, 81, 69
14, 125472, Note_on_c, 10, 87, 63
14, 125502, Note_on_c, 10, 85, 0
14, 125502, Note_on_c, 10, 81, 0
14, 125502, Note_on_c, 10, 87, 0
14, 125504, Note_on_c, 10, 79, 67
14, 125504, Note_on_c, 10, 85, 62
14, 125504, Note_on_c, 10, 83, 62
14, 125534, Note_on_c, 10, 79, 0
14, 125534, Note_on_c, 10, 85, 0
14, 125534, Note_on_c, 10, 83, 0
14, 125536, Note_on_c, 10, 77, 67
14, 125536, Note_on_c, 10, 81, 64
14, 125536, Note_on_c, 10, 85, 61
14, 125566, Note_on_c, 10, 77, 0
14, 125566, Note_on_c, 10, 81, 0
14, 125566, Note_on_c, 10, 85, 0
14, 125568, Note_on_c, 10, 79, 62
14, 125568, Note_on_c, 10, 75, 59
14, 125568, Note_on_c, 10, 73, 61
14, 125598, Note_on_c, 10, 79, 0
14, 125598, Note_on_c, 10, 75, 0
14, 125598, Note_on_c, 10, 73, 0
14, 125600, Note_on_c, 10, 71, 63
14, 125600, Note_on_c, 10, 73, 57
14, 125600, Note_on_c, 10, 77, 61
14, 125630, Note_on_c, 10, 71, 0
14, 125630, Note_on_c, 10, 73, 0
14, 125630, Note_on_c, 10, 77, 0
14, 125632, Note_on_c, 10, 73, 53
14, 125632, Note_on_c, 10, 75, 61
14, 125632, Note_on_c, 10, 69, 56
14, 125662, Note_on_c, 10, 73, 0
14, 125662, Note_on_c, 10, 75, 0
14, 125662, Note_on_c, 10, 69, 0
14, 125664, Note_on_c, 10, 67, 54
14, 125664, Note_on_c, 10, 71, 56
14, 125664, Note_on_c, 10, 73, 60
14, 125694, Note_on_c, 10, 67, 0
14, 125694, Note_on_c, 10, 71, 0
14, 125694, Note_on_c, 10, 73, 0
14, 125696, Note_on_c, 10, 69, 59
14, 125696, Note_on_c, 10, 73, 59
14, 125696, Note_on_c, 10, 65, 55
14, 125726, Note_on_c, 10, 69, 0
14, 125726, Note_on_c, 10, 73, 0
14, 125726, Note_on_c, 10, 65, 0
14, 125728, Note_on_c, 10, 63, 52
14, 125728, Note_on_c, 10, 71, 49
14, 125728, Note_on_c, 10, 67, 50
14, 125758, Note_on_c, 10, 63, 0
14, 125758, Note_on_c, 10, 71, 0
14, 125758, Note_on_c, 10, 67, 0
14, 125760, Note_on_c, 10, 61, 53
14, 125760, Note_on_c, 10, 65, 52
14, 125760, Note_on_c, 10, 69, 46
14, 125782, Note_on_c, 10, 61, 0
14, 125782, Note_on_c, 10, 65, 0
14, 125782, Note_on_c, 10, 69, 0
14, 125784, Note_on_c, 10, 67, 49
14, 125784, Note_on_c, 10, 61, 50
14, 125784, Note_on_c, 10, 63, 45
14, 125806, Note_on_c, 10, 67, 0
14, 125806, Note_on_c, 10, 61, 0
14, 125806, Note_on_c, 10, 63, 0
14, 125808, Note_on_c, 10, 61, 52
14, 125808, Note_on_c, 10, 65, 42
14, 125808, Note_on_c, 10, 59, 51
14, 125830, Note_on_c, 10, 61, 0
14, 125830, Note_on_c, 10, 65, 0
14, 125830, Note_on_c, 10, 59, 0
14, 125832, Note_on_c, 10, 63, 40
14, 125832, Note_on_c, 10, 57, 46
14, 125832, Note_on_c, 10, 61, 45
14, 125854, Note_on_c, 10, 63, 0
14, 125854, Note_on_c, 10, 57, 0
14, 125854, Note_on_c, 10, 61, 0
14, 129312, Note_on_c, 10, 49, 45
14, 129312, Note_on_c, 10, 87, 25
14, 129432, Note_on_c, 10, 87, 0
14, 129504, Note_on_c, 10, 67, 44
14, 129504, Note_on_c, 10, 79, 28
14, 129624, Note_on_c, 10, 67, 0
14, 129624, Note_on_c, 10, 79, 0
14, 129696, Note_on_c, 10, 77, 31
14, 129696, Note_on_c, 10, 65, 50
14, 129744, Note_on_c, 10, 65, 0
14, 129816, Note_on_c, 10, 77, 0
14, 129840, Note_on_c, 10, 49, 0
14, 129888, Note_on_c, 10, 49, 49
14, 129888, Note_on_c, 10, 73, 31
14, 130008, Note_on_c, 10, 73, 0
14, 130080, Note_on_c, 10, 77, 32
14, 130080, Note_on_c, 10, 65, 50
14, 130200, Note_on_c, 10, 77, 0
14, 130200, Note_on_c, 10, 65, 0
14, 130272, Note_on_c, 10, 79, 28
14, 130272, Note_on_c, 10, 67, 45
14, 130320, Note_on_c, 10, 67, 0
14, 130392, Note_on_c, 10, 79, 0
14, 130416, Note_on_c, 10, 49, 0
14, 130464, Note_on_c, 10, 87, 31
14, 130464, Note_on_c, 10, 49, 49
14, 130584, Note_on_c, 10, 87, 0
14, 130656, Note_on_c, 10, 79, 29
14, 130656, Note_on_c, 10, 67, 42
14, 130776, Note_on_c, 10, 79, 0
14, 130776, Note_on_c, 10, 67, 0
14, 130848, Note_on_c, 10, 65, 48
14, 130848, Note_on_c, 10, 77, 25
14, 130896, Note_on_c, 10, 65, 0
14, 130968, Note_on_c, 10, 77, 0
14, 130992, Note_on_c, 10, 49, 0
14, 131040, Note_on_c, 10, 73, 29
14, 131040, Note_on_c, 10, 49, 45
14, 131160, Note_on_c, 10, 73, 0
14, 131232, Note_on_c, 10, 65, 47
14, 131232, Note_on_c, 10, 77, 35
14, 131352, Note_on_c, 10, 65, 0
14, 131352, Note_on_c, 10, 77, 0
14, 131424, Note_on_c, 10, 67, 49
14, 131424, Note_on_c, 10, 79, 32
14, 131472, Note_on_c, 10, 67, 0
14, 131472, Note_on_c, 10, 79, 0
14, 131568, Note_on_c, 10, 49, 0
14, 131616, Note_on_c, 10, 61, 35
14, 131616, Note_on_c, 10, 87, 27
14, 131710, Note_on_c, 10, 61, 0
14, 131710, Note_on_c, 10, 87, 0
14, 131712, Note_on_c, 10, 63, 33
14, 131712, Note_on_c, 10, 79, 29
14, 131806, Note_on_c, 10, 63, 0
14, 131806, Note_on_c, 10, 79, 0
14, 131808, Note_on_c, 10, 77, 34
14, 131808, Note_on_c, 10, 65, 33
14, 131902, Note_on_c, 10, 77, 0
14, 131902, Note_on_c, 10, 65, 0
14, 131904, Note_on_c, 10, 67, 31
14, 131904, Note_on_c, 10, 75, 28
14, 131998, Note_on_c, 10, 67, 0
14, 131998, Note_on_c, 10, 75, 0
14, 132000, Note_on_c, 10, 73, 29
14, 132000, Note_on_c, 10, 75, 30
14, 132094, Note_on_c, 10, 73, 0
14, 132094, Note_on_c, 10, 75, 0
14, 132096, Note_on_c, 10, 67, 34
14, 132096, Note_on_c, 10, 75, 27
14, 132190, Note_on_c, 10, 67, 0
14, 132190, Note_on_c, 10, 75, 0
14, 132192, Note_on_c, 10, 77, 34
14, 132192, Note_on_c, 10, 65, 26
14, 132286, Note_on_c, 10, 77, 0
14, 132286, Note_on_c, 10, 65, 0
14, 132288, Note_on_c, 10, 63, 31
14, 132288, Note_on_c, 10, 79, 27
14, 132382, Note_on_c, 10, 63, 0
14, 132382, Note_on_c, 10, 79, 0
14, 132384, Note_on_c, 10, 87, 35
14, 132384, Note_on_c, 10, 61, 25
14, 132478, Note_on_c, 10, 87, 0
14, 132478, Note_on_c, 10, 61, 0
14, 132480, Note_on_c, 10, 63, 30
14, 132480, Note_on_c, 10, 79, 32
14, 132574, Note_on_c, 10, 63, 0
14, 132574, Note_on_c, 10, 79, 0
14, 132576, Note_on_c, 10, 65, 34
14, 132576, Note_on_c, 10, 77, 35
14, 132670, Note_on_c, 10, 65, 0
14, 132670, Note_on_c, 10, 77, 0
14, 132672, Note_on_c, 10, 67, 35
14, 132672, Note_on_c, 10, 75, 35
14, 132766, Note_on_c, 10, 67, 0
14, 132766, Note_on_c, 10, 75, 0
14, 132768, Note_on_c, 10, 75, 34
14, 132768, Note_on_c, 10, 73, 35
14, 132862, Note_on_c, 10, 75, 0
14, 132862, Note_on_c, 10, 73, 0
14, 132864, Note_on_c, 10, 75, 32
14, 132864, Note_on_c, 10, 67, 32
14, 132958, Note_on_c, 10, 75, 0
14, 132958, Note_on_c, 10, 67, 0
14, 132960, Note_on_c, 10, 65, 30
14, 132960, Note_on_c, 10, 77, 32
14, 133054, Note_on_c, 10, 65, 0
14, 133054, Note_on_c, 10, 77, 0
14, 133056, Note_on_c, 10, 63, 26
14, 133056, Note_on_c, 10, 79, 31
14, 133150, Note_on_c, 10, 63, 0
14, 133150, Note_on_c, 10, 79, 0
14, 133152, Note_on_c, 10, 87, 30
14, 133152, Note_on_c, 10, 61, 33
14, 133246, Note_on_c, 10, 87, 0
14, 133246, Note_on_c, 10, 61, 0
14, 133248, Note_on_c, 10, 63, 34
14, 133248, Note_on_c, 10, 79, 35
14, 133342, Note_on_c, 10, 63, 0
14, 133342, Note_on_c, 10, 79, 0
14, 133344, Note_on_c, 10, 77, 27
14, 133344, Note_on_c, 10, 65, 33
14, 133438, Note_on_c, 10, 77, 0
14, 133438, Note_on_c, 10, 65, 0
14, 133440, Note_on_c, 10, 67, 31
14, 133440, Note_on_c, 10, 75, 26
14, 133534, Note_on_c, 10, 67, 0
14, 133534, Note_on_c, 10, 75, 0
14, 133536, Note_on_c, 10, 75, 33
14, 133536, Note_on_c, 10, 73, 27
14, 133630, Note_on_c, 10, 75, 0
14, 133630, Note_on_c, 10, 73, 0
14, 133632, Note_on_c, 10, 75, 29
14, 133632, Note_on_c, 10, 67, 31
14, 133726, Note_on_c, 10, 75, 0
14, 133726, Note_on_c, 10, 67, 0
14, 133728, Note_on_c, 10, 65, 30
14, 133728, Note_on_c, 10, 77, 35
14, 133822, Note_on_c, 10, 65, 0
14, 133822, Note_on_c, 10, 77, 0
14, 133824, Note_on_c, 10, 63, 34
14, 133824, Note_on_c, 10, 79, 33
14, 133918, Note_on_c, 10, 63, 0
14, 133918, Note_on_c, 10, 79, 0
14, 135264, Note_on_c, 10, 75, 29
14, 135358, Note_on_c, 10, 75, 0
14, 135360, Note_on_c, 10, 68, 28
14, 135454, Note_on_c, 10, 68, 0
14, 135456, Note_on_c, 10, 66, 31
14, 135550, Note_on_c, 10, 66, 0
14, 135552, Note_on_c, 10, 63, 29
14, 135646, Note_on_c, 10, 63, 0
14, 135648, Note_on_c, 10, 61, 31
14, 135742, Note_on_c, 10, 61, 0
14, 135744, Note_on_c, 10, 63, 32
14, 135838, Note_on_c, 10, 63, 0
14, 135840, Note_on_c, 10, 56, 28
14, 135934, Note_on_c, 10, 56, 0
14, 135936, Note_on_c, 10, 54, 29
14, 136030, Note_on_c, 10, 54, 0
14, 136032, Note_on_c, 10, 51, 26
14, 136126, Note_on_c, 10, 51, 0
14, 136128, Note_on_c, 10, 49, 30
14, 136222, Note_on_c, 10, 49, 0
14, 137568, Note_on_c, 10, 75, 28
14, 137662, Note_on_c, 10, 75, 0
14, 137664, Note_on_c, 10, 68, 29
14, 137758, Note_on_c, 10, 68, 0
14, 137760, Note_on_c, 10, 66, 29
14, 137854, Note_on_c, 10, 66, 0
14, 137856, Note_on_c, 10, 63, 29
14, 137950, Note_on_c, 10, 63, 0
14, 137952, Note_on_c, 10, 61, 35
14, 138046, Note_on_c, 10, 61, 0
14, 138048, Note_on_c, 10, 63, 34
14, 138142, Note_on_c, 10, 63, 0
14, 138144, Note_on_c, 10, 56, 31
14, 138238, Note_on_c, 10, 56, 0
14, 138240, Note_on_c, 10, 54, 34
14, 138334, Note_on_c, 10, 54, 0
14, 138336, Note_on_c, 10, 51, 27
14, 138430, Note_on_c, 10, 51, 0
14, 138432, Note_on_c, 10, 49, 27
14, 138622, Note_on_c, 10, 49, 0
14, 138624, Note_on_c, 10, 51, 40
14, 138718, Note_on_c, 10, 51, 0
14, 138720, Note_on_c, 10, 54, 39
14, 138814, Note_on_c, 10, 54, 0
14, 138816, Note_on_c, 10, 56, 48
14, 138910, Note_on_c, 10, 56, 0
14, 138912, Note_on_c, 10, 61, 56
14, 139006, Note_on_c, 10, 61, 0
14, 139008, Note_on_c, 10, 63, 56
14, 139102, Note_on_c, 10, 63, 0
14, 139104, Note_on_c, 10, 66, 52
14, 139198, Note_on_c, 10, 66, 0
14, 139200, Note_on_c, 10, 68, 42
14, 139294, Note_on_c, 10, 68, 0
14, 139872, Note_on_c, 10, 49, 29
14, 139966, Note_on_c, 10, 49, 0
14, 139968, Note_on_c, 10, 51, 28
14, 140062, Note_on_c, 10, 51, 0
14, 140064, Note_on_c, 10, 54, 29
14, 140158, Note_on_c, 10, 54, 0
14, 140160, Note_on_c, 10, 56, 32
14, 140254, Note_on_c, 10, 56, 0
14, 140256, Note_on_c, 10, 61, 26
14, 140350, Note_on_c, 10, 61, 0
14, 140352, Note_on_c, 10, 63, 30
14, 140446, Note_on_c, 10, 63, 0
14, 140448, Note_on_c, 10, 66, 35
14, 140542, Note_on_c, 10, 66, 0
14, 140544, Note_on_c, 10, 68, 34
14, 140638, Note_on_c, 10, 68, 0
14, 141408, Note_on_c, 10, 59, 26
14, 141568, Note_on_c, 10, 59, 0
14, 142560, Note_on_c, 10, 59, 17
14, 142720, Note_on_c, 10, 59, 0
14, 142720, End_track
15, 0, Start_track
15, 0, Title_t, "Violini I - a"
15, 0, MIDI_port, 0
15, 1536, Program_c, 11, 44
15, 1536, Control_c, 11, 11, 92
15, 1536, Note_on_c, 11, 80, 57
15, 1541, Control_c, 11, 11, 93
15, 1546, Control_c, 11, 11, 94
15, 1552, Control_c, 11, 11, 95
15, 1557, Control_c, 11, 11, 96
15, 1563, Control_c, 11, 11, 97
15, 1568, Control_c, 11, 11, 98
15, 1574, Control_c, 11, 11, 99
15, 1579, Control_c, 11, 11, 100
15, 1585, Control_c, 11, 11, 101
15, 1590, Control_c, 11, 11, 102
15, 1596, Control_c, 11, 11, 103
15, 1601, Control_c, 11, 11, 104
15, 1607, Control_c, 11, 11, 105
15, 1612, Control_c, 11, 11, 106
15, 1618, Control_c, 11, 11, 107
15, 1623, Control_c, 11, 11, 108
15, 1629, Control_c, 11, 11, 109
15, 1634, Control_c, 11, 11, 110
15, 1640, Control_c, 11, 11, 111
15, 1645, Control_c, 11, 11, 112
15, 1651, Control_c, 11, 11, 113
15, 1656, Control_c, 11, 11, 114
15, 1662, Control_c, 11, 11, 115
15, 1667, Control_c, 11, 11, 116
15, 1673, Control_c, 11, 11, 117
15, 1678, Control_c, 11, 11, 118
15, 1684, Control_c, 11, 11, 119
15, 1689, Control_c, 11, 11, 120
15, 1695, Control_c, 11, 11, 121
15, 1700, Control_c, 11, 11, 122
15, 1706, Control_c, 11, 11, 123
15, 1711, Control_c, 11, 11, 124
15, 1717, Control_c, 11, 11, 125
15, 1722, Control_c, 11, 11, 126
15, 1728, Control_c, 11, 11, 127
15, 1733, Control_c, 11, 11, 126
15, 1738, Control_c, 11, 11, 125
15, 1744, Control_c, 11, 11, 124
15, 1749, Control_c, 11, 11, 123
15, 1755, Control_c, 11, 11, 122
15, 1760, Control_c, 11, 11, 121
15, 1766, Control_c, 11, 11, 120
15, 1771, Control_c, 11, 11, 119
15, 1777, Control_c, 11, 11, 118
15, 1782, Control_c, 11, 11, 117
15, 1788, Control_c, 11, 11, 116
15, 1793, Control_c, 11, 11, 115
15, 1799, Control_c, 11, 11, 114
15, 1804, Control_c, 11, 11, 113
15, 1810, Control_c, 11, 11, 112
15, 1815, Control_c, 11, 11, 111
15, 1821, Control_c, 11, 11, 110
15, 1826, Control_c, 11, 11, 109
15, 1832, Control_c, 11, 11, 108
15, 1837, Control_c, 11, 11, 107
15, 1843, Control_c, 11, 11, 106
15, 1848, Control_c, 11, 11, 105
15, 1854, Control_c, 11, 11, 104
15, 1859, Control_c, 11, 11, 103
15, 1865, Control_c, 11, 11, 102
15, 1870, Control_c, 11, 11, 101
15, 1876, Control_c, 11, 11, 100
15, 1881, Control_c, 11, 11, 99
15, 1887, Control_c, 11, 11, 98
15, 1892, Control_c, 11, 11, 97
15, 1898, Control_c, 11, 11, 96
15, 1903, Control_c, 11, 11, 95
15, 1909, Control_c, 11, 11, 94
15, 1914, Control_c, 11, 11, 93
15, 1920, Note_on_c, 11, 80, 0
15, 1920, Control_c, 11, 11, 92
15, 2688, Control_c, 11, 11, 92
15, 2688, Note_on_c, 11, 80, 63
15, 2693, Control_c, 11, 11, 93
15, 2698, Control_c, 11, 11, 94
15, 2704, Control_c, 11, 11, 95
15, 2709, Control_c, 11, 11, 96
15, 2715, Control_c, 11, 11, 97
15, 2720, Control_c, 11, 11, 98
15, 2726, Control_c, 11, 11, 99
15, 2731, Control_c, 11, 11, 100
15, 2737, Control_c, 11, 11, 101
15, 2742, Control_c, 11, 11, 102
15, 2748, Control_c, 11, 11, 103
15, 2753, Control_c, 11, 11, 104
15, 2759, Control_c, 11, 11, 105
15, 2764, Control_c, 11, 11, 106
15, 2770, Control_c, 11, 11, 107
15, 2775, Control_c, 11, 11, 108
15, 2781, Control_c, 11, 11, 109
15, 2786, Control_c, 11, 11, 110
15, 2792, Control_c, 11, 11, 111
15, 2797, Control_c, 11, 11, 112
15, 2803, Control_c, 11, 11, 113
15, 2808, Control_c, 11, 11, 114
15, 2814, Control_c, 11, 11, 115
15, 2819, Control_c, 11, 11, 116
15, 2825, Control_c, 11, 11, 117
15, 2830, Control_c, 11, 11, 118
15, 2836, Control_c, 11, 11, 119
15, 2841, Control_c, 11, 11, 120
15, 2847, Control_c, 11, 11, 121
15, 2852, Control_c, 11, 11, 122
15, 2858, Control_c, 11, 11, 123
15, 2863, Control_c, 11, 11, 124
15, 2869, Control_c, 11, 11, 125
15, 2874, Control_c, 11, 11, 126
15, 2880, Control_c, 11, 11, 127
15, 3072, Note_on_c, 11, 80, 0
15, 5184, Program_c, 11, 45
15, 5184, Control_c, 11, 11, 127
15, 5184, Note_on_c, 11, 60, 27
15, 5280, Note_on_c, 11, 60, 0
15, 5376, Note_on_c, 11, 60, 35
15, 5472, Note_on_c, 11, 60, 0
15, 5568, Note_on_c, 11, 60, 31
15, 5664, Note_on_c, 11, 60, 0
15, 5760, Program_c, 11, 44
15, 5760, Note_on_c, 11, 71, 34
15, 7200, Note_on_c, 11, 71, 0
15, 7200, Program_c, 11, 48
15, 7488, Control_c, 11, 11, 127
15, 7776, Note_on_c, 11, 70, 35
15, 7797, Note_on_c, 11, 70, 0
15, 7808, Note_on_c, 11, 70, 28
15, 7829, Note_on_c, 11, 70, 0
15, 7840, Note_on_c, 11, 70, 28
15, 7861, Note_on_c, 11, 70, 0
15, 7872, Note_on_c, 11, 71, 30
15, 7893, Note_on_c, 11, 71, 0
15, 7904, Note_on_c, 11, 71, 27
15, 7925, Note_on_c, 11, 71, 0
15, 7936, Note_on_c, 11, 71, 34
15, 7957, Note_on_c, 11, 71, 0
15, 7968, Note_on_c, 11, 70, 39
15, 7989, Note_on_c, 11, 70, 0
15, 8000, Note_on_c, 11, 70, 40
15, 8021, Note_on_c, 11, 70, 0
15, 8032, Note_on_c, 11, 70, 40
15, 8053, Note_on_c, 11, 70, 0
15, 8064, Note_on_c, 11, 71, 37
15, 8085, Note_on_c, 11, 71, 0
15, 8096, Note_on_c, 11, 71, 40
15, 8117, Note_on_c, 11, 71, 0
15, 8128, Note_on_c, 11, 71, 44
15, 8149, Note_on_c, 11, 71, 0
15, 8160, Note_on_c, 11, 70, 42
15, 8181, Note_on_c, 11, 70, 0
15, 8192, Note_on_c, 11, 70, 45
15, 8213, Note_on_c, 11, 70, 0
15, 8224, Note_on_c, 11, 70, 40
15, 8245, Note_on_c, 11, 70, 0
15, 8256, Note_on_c, 11, 71, 46
15, 8277, Note_on_c, 11, 71, 0
15, 8288, Note_on_c, 11, 71, 44
15, 8309, Note_on_c, 11, 71, 0
15, 8320, Note_on_c, 11, 71, 45
15, 8341, Note_on_c, 11, 71, 0
15, 8352, Program_c, 11, 44
15, 8352, Note_on_c, 11, 77, 30
15, 9504, Control_c, 11, 11, 92
15, 9512, Control_c, 11, 11, 93
15, 9520, Control_c, 11, 11, 94
15, 9528, Control_c, 11, 11, 95
15, 9536, Control_c, 11, 11, 96
15, 9545, Control_c, 11, 11, 97
15, 9553, Control_c, 11, 11, 98
15, 9561, Control_c, 11, 11, 99
15, 9569, Control_c, 11, 11, 100
15, 9578, Control_c, 11, 11, 101
15, 9586, Control_c, 11, 11, 102
15, 9594, Control_c, 11, 11, 103
15, 9602, Control_c, 11, 11, 104
15, 9610, Control_c, 11, 11, 105
15, 9619, Control_c, 11, 11, 106
15, 9627, Control_c, 11, 11, 107
15, 9635, Control_c, 11, 11, 108
15, 9643, Control_c, 11, 11, 109
15, 9652, Control_c, 11, 11, 110
15, 9660, Control_c, 11, 11, 111
15, 9668, Control_c, 11, 11, 112
15, 9676, Control_c, 11, 11, 113
15, 9685, Control_c, 11, 11, 114
15, 9693, Control_c, 11, 11, 115
15, 9701, Control_c, 11, 11, 116
15, 9709, Control_c, 11, 11, 117
15, 9717, Control_c, 11, 11, 118
15, 9726, Control_c, 11, 11, 119
15, 9734, Control_c, 11, 11, 120
15, 9742, Control_c, 11, 11, 121
15, 9750, Control_c, 11, 11, 122
15, 9759, Control_c, 11, 11, 123
15, 9767, Control_c, 11, 11, 124
15, 9775, Control_c, 11, 11, 125
15, 9783, Control_c, 11, 11, 126
15, 9792, Control_c, 11, 11, 127
15, 9800, Control_c, 11, 11, 126
15, 9808, Control_c, 11, 11, 125
15, 9816, Control_c, 11, 11, 124
15, 9824, Control_c, 11, 11, 123
15, 9833, Control_c, 11, 11, 122
15, 9841, Control_c, 11, 11, 121
15, 9849, Control_c, 11, 11, 120
15, 9857, Control_c, 11, 11, 119
15, 9866, Control_c, 11, 11, 118
15, 9874, Control_c, 11, 11, 117
15, 9882, Control_c, 11, 11, 116
15, 9890, Control_c, 11, 11, 115
15, 9898, Control_c, 11, 11, 114
15, 9907, Control_c, 11, 11, 113
15, 9915, Control_c, 11, 11, 112
15, 9923, Control_c, 11, 11, 111
15, 9931, Control_c, 11, 11, 110
15, 9940, Control_c, 11, 11, 109
15, 9948, Control_c, 11, 11, 108
15, 9956, Control_c, 11, 11, 107
15, 9964, Control_c, 11, 11, 106
15, 9973, Control_c, 11, 11, 105
15, 9981, Control_c, 11, 11, 104
15, 9989, Control_c, 11, 11, 103
15, 9997, Control_c, 11, 11, 102
15, 10005, Control_c, 11, 11, 101
15, 10014, Control_c, 11, 11, 100
15, 10022, Control_c, 11, 11, 99
15, 10030, Control_c, 11, 11, 98
15, 10038, Control_c, 11, 11, 97
15, 10047, Control_c, 11, 11, 96
15, 10055, Control_c, 11, 11, 95
15, 10063, Control_c, 11, 11, 94
15, 10071, Control_c, 11, 11, 93
15, 10080, Control_c, 11, 11, 92
15, 10176, Note_on_c, 11, 77, 0
15, 10176, Note_on_c, 11, 76, 48
15, 10272, Note_on_c, 11, 76, 0
15, 10272, Note_on_c, 11, 75, 47
15, 10368, Note_on_c, 11, 75, 0
15, 10368, Note_on_c, 11, 74, 41
15, 10464, Note_on_c, 11, 74, 0
15, 10464, Note_on_c, 11, 73, 41
15, 10560, Note_on_c, 11, 73, 0
15, 10560, Note_on_c, 11, 72, 46
15, 10656, Note_on_c, 11, 72, 0
15, 10656, Control_c, 11, 11, 92
15, 10656, Note_on_c, 11, 77, 62
15, 10672, Control_c, 11, 11, 93
15, 10688, Control_c, 11, 11, 94
15, 10705, Control_c, 11, 11, 95
15, 10721, Control_c, 11, 11, 96
15, 10738, Control_c, 11, 11, 97
15, 10752, Note_on_c, 11, 77, 0
15, 10752, Note_on_c, 11, 76, 57
15, 10754, Control_c, 11, 11, 98
15, 10771, Control_c, 11, 11, 99
15, 10787, Control_c, 11, 11, 100
15, 10804, Control_c, 11, 11, 101
15, 10820, Control_c, 11, 11, 102
15, 10837, Control_c, 11, 11, 103
15, 10848, Note_on_c, 11, 76, 0
15, 10848, Note_on_c, 11, 75, 56
15, 10853, Control_c, 11, 11, 104
15, 10869, Control_c, 11, 11, 105
15, 10886, Control_c, 11, 11, 106
15, 10902, Control_c, 11, 11, 107
15, 10919, Control_c, 11, 11, 108
15, 10935, Control_c, 11, 11, 109
15, 10944, Note_on_c, 11, 75, 0
15, 10944, Note_on_c, 11, 74, 63
15, 10952, Control_c, 11, 11, 110
15, 10968, Control_c, 11, 11, 111
15, 10985, Control_c, 11, 11, 112
15, 11001, Control_c, 11, 11, 113
15, 11018, Control_c, 11, 11, 114
15, 11034, Control_c, 11, 11, 115
15, 11040, Note_on_c, 11, 74, 0
15, 11040, Note_on_c, 11, 73, 61
15, 11050, Control_c, 11, 11, 116
15, 11067, Control_c, 11, 11, 117
15, 11083, Control_c, 11, 11, 118
15, 11100, Control_c, 11, 11, 119
15, 11116, Control_c, 11, 11, 120
15, 11133, Control_c, 11, 11, 121
15, 11136, Note_on_c, 11, 73, 0
15, 11136, Note_on_c, 11, 72, 60
15, 11149, Control_c, 11, 11, 122
15, 11166, Control_c, 11, 11, 123
15, 11182, Control_c, 11, 11, 124
15, 11199, Control_c, 11, 11, 125
15, 11215, Control_c, 11, 11, 126
15, 11232, Note_on_c, 11, 72, 0
15, 11232, Control_c, 11, 11, 127
15, 11232, Program_c, 11, 45
15, 11712, Note_on_c, 11, 68, 89
15, 11744, Note_on_c, 11, 68, 0
15, 11760, Note_on_c, 11, 76, 110
15, 11792, Note_on_c, 11, 76, 0
15, 12288, Note_on_c, 11, 68, 97
15, 12336, Note_on_c, 11, 68, 0
15, 12336, Note_on_c, 11, 76, 111
15, 12384, Note_on_c, 11, 76, 0
15, 12384, Program_c, 11, 48
15, 13248, Program_c, 11, 48
15, 13536, Control_c, 11, 11, 92
15, 13536, Note_on_c, 11, 87, 56
15, 13546, Control_c, 11, 11, 93
15, 13557, Control_c, 11, 11, 94
15, 13568, Note_on_c, 11, 87, 0
15, 13568, Control_c, 11, 11, 95
15, 13568, Note_on_c, 11, 88, 62
15, 13579, Control_c, 11, 11, 96
15, 13590, Control_c, 11, 11, 97
15, 13600, Note_on_c, 11, 88, 0
15, 13600, Note_on_c, 11, 87, 59
15, 13601, Control_c, 11, 11, 98
15, 13612, Control_c, 11, 11, 99
15, 13623, Control_c, 11, 11, 100
15, 13632, Note_on_c, 11, 87, 0
15, 13632, Note_on_c, 11, 88, 64
15, 13634, Control_c, 11, 11, 101
15, 13645, Control_c, 11, 11, 102
15, 13656, Control_c, 11, 11, 103
15, 13664, Note_on_c, 11, 88, 0
15, 13664, Note_on_c, 11, 87, 61
15, 13667, Control_c, 11, 11, 104
15, 13678, Control_c, 11, 11, 105
15, 13689, Control_c, 11, 11, 106
15, 13696, Note_on_c, 11, 87, 0
15, 13696, Note_on_c, 11, 88, 64
15, 13700, Control_c, 11, 11, 107
15, 13711, Control_c, 11, 11, 108
15, 13722, Control_c, 11, 11, 109
15, 13728, Note_on_c, 11, 88, 0
15, 13728, Note_on_c, 11, 87, 63
15, 13733, Control_c, 11, 11, 110
15, 13744, Control_c, 11, 11, 111
15, 13755, Control_c, 11, 11, 112
15, 13760, Note_on_c, 11, 87, 0
15, 13760, Note_on_c, 11, 88, 61
15, 13766, Control_c, 11, 11, 113
15, 13777, Control_c, 11, 11, 114
15, 13788, Control_c, 11, 11, 115
15, 13792, Note_on_c, 11, 88, 0
15, 13792, Note_on_c, 11, 87, 63
15, 13799, Control_c, 11, 11, 116
15, 13810, Control_c, 11, 11, 117
15, 13821, Control_c, 11, 11, 118
15, 13824, Note_on_c, 11, 87, 0
15, 13824, Note_on_c, 11, 88, 56
15, 13832, Control_c, 11, 11, 119
15, 13843, Control_c, 11, 11, 120
15, 13854, Control_c, 11, 11, 121
15, 13865, Control_c, 11, 11, 122
15, 13872, Note_on_c, 11, 88, 0
15, 13872, Note_on_c, 11, 86, 60
15, 13876, Control_c, 11, 11, 123
15, 13887, Control_c, 11, 11, 124
15, 13898, Control_c, 11, 11, 125
15, 13909, Control_c, 11, 11, 126
15, 13920, Note_on_c, 11, 86, 0
15, 13920, Control_c, 11, 11, 127
15, 13920, Note_on_c, 11, 87, 61
15, 13968, Note_on_c, 11, 87, 0
15, 14112, Control_c, 11, 11, 92
15, 14112, Note_on_c, 11, 87, 64
15, 14122, Control_c, 11, 11, 93
15, 14133, Control_c, 11, 11, 94
15, 14144, Note_on_c, 11, 87, 0
15, 14144, Control_c, 11, 11, 95
15, 14144, Note_on_c, 11, 88, 59
15, 14155, Control_c, 11, 11, 96
15, 14166, Control_c, 11, 11, 97
15, 14176, Note_on_c, 11, 88, 0
15, 14176, Note_on_c, 11, 87, 58
15, 14177, Control_c, 11, 11, 98
15, 14188, Control_c, 11, 11, 99
15, 14199, Control_c, 11, 11, 100
15, 14208, Note_on_c, 11, 87, 0
15, 14208, Note_on_c, 11, 88, 55
15, 14210, Control_c, 11, 11, 101
15, 14221, Control_c, 11, 11, 102
15, 14232, Control_c, 11, 11, 103
15, 14240, Note_on_c, 11, 88, 0
15, 14240, Note_on_c, 11, 87, 57
15, 14243, Control_c, 11, 11, 104
15, 14254, Control_c, 11, 11, 105
15, 14265, Control_c, 11, 11, 106
15, 14272, Note_on_c, 11, 87, 0
15, 14272, Note_on_c, 11, 88, 60
15, 14276, Control_c, 11, 11, 107
15, 14287, Control_c, 11, 11, 108
15, 14298, Control_c, 11, 11, 109
15, 14304, Note_on_c, 11, 88, 0
15, 14304, Note_on_c, 11, 87, 61
15, 14309, Control_c, 11, 11, 110
15, 14320, Control_c, 11, 11, 111
15, 14331, Control_c, 11, 11, 112
15, 14336, Note_on_c, 11, 87, 0
15, 14336, Note_on_c, 11, 88, 56
15, 14342, Control_c, 11, 11, 113
15, 14353, Control_c, 11, 11, 114
15, 14364, Control_c, 11, 11, 115
15, 14368, Note_on_c, 11, 88, 0
15, 14368, Note_on_c, 11, 87, 63
15, 14375, Control_c, 11, 11, 116
15, 14386, Control_c, 11, 11, 117
15, 14397, Control_c, 11, 11, 118
15, 14400, Note_on_c, 11, 87, 0
15, 14400, Note_on_c, 11, 88, 57
15, 14408, Control_c, 11, 11, 119
15, 14419, Control_c, 11, 11, 120
15, 14430, Control_c, 11, 11, 121
15, 14441, Control_c, 11, 11, 122
15, 14448, Note_on_c, 11, 88, 0
15, 14448, Note_on_c, 11, 86, 56
15, 14452, Control_c, 11, 11, 123
15, 14463, Control_c, 11, 11, 124
15, 14474, Control_c, 11, 11, 125
15, 14485, Control_c, 11, 11, 126
15, 14496, Note_on_c, 11, 86, 0
15, 14496, Control_c, 11, 11, 127
15, 14496, Note_on_c, 11, 87, 61
15, 14501, Control_c, 11, 11, 126
15, 14506, Control_c, 11, 11, 125
15, 14512, Control_c, 11, 11, 124
15, 14517, Control_c, 11, 11, 123
15, 14523, Control_c, 11, 11, 122
15, 14528, Control_c, 11, 11, 121
15, 14534, Control_c, 11, 11, 120
15, 14539, Control_c, 11, 11, 119
15, 14545, Control_c, 11, 11, 118
15, 14550, Control_c, 11, 11, 117
15, 14556, Control_c, 11, 11, 116
15, 14561, Control_c, 11, 11, 115
15, 14567, Control_c, 11, 11, 114
15, 14572, Control_c, 11, 11, 113
15, 14578, Control_c, 11, 11, 112
15, 14583, Control_c, 11, 11, 111
15, 14589, Control_c, 11, 11, 110
15, 14594, Control_c, 11, 11, 109
15, 14600, Control_c, 11, 11, 108
15, 14605, Control_c, 11, 11, 107
15, 14611, Control_c, 11, 11, 106
15, 14616, Control_c, 11, 11, 105
15, 14622, Control_c, 11, 11, 104
15, 14627, Control_c, 11, 11, 103
15, 14633, Control_c, 11, 11, 102
15, 14638, Control_c, 11, 11, 101
15, 14644, Control_c, 11, 11, 100
15, 14649, Control_c, 11, 11, 99
15, 14655, Control_c, 11, 11, 98
15, 14660, Control_c, 11, 11, 97
15, 14666, Control_c, 11, 11, 96
15, 14671, Control_c, 11, 11, 95
15, 14677, Control_c, 11, 11, 94
15, 14682, Control_c, 11, 11, 93
15, 14688, Control_c, 11, 11, 92
15, 14944, Note_on_c, 11, 87, 0
15, 14944, Note_on_c, 11, 88, 65
15, 14986, Note_on_c, 11, 88, 0
15, 15008, Note_on_c, 11, 90, 55
15, 15050, Note_on_c, 11, 90, 0
15, 15072, Note_on_c, 11, 90, 58
15, 15114, Note_on_c, 11, 90, 0
15, 15136, Note_on_c, 11, 88, 65
15, 15178, Note_on_c, 11, 88, 0
15, 15200, Note_on_c, 11, 87, 57
15, 15242, Note_on_c, 11, 87, 0
15, 15264, Note_on_c, 11, 87, 59
15, 15274, Note_on_c, 11, 87, 0
15, 15280, Note_on_c, 11, 85, 64
15, 15312, Note_on_c, 11, 85, 0
15, 15328, Note_on_c, 11, 83, 62
15, 15370, Note_on_c, 11, 83, 0
15, 15392, Note_on_c, 11, 83, 58
15, 15434, Note_on_c, 11, 83, 0
15, 15456, Note_on_c, 11, 83, 55
15, 15498, Note_on_c, 11, 83, 0
15, 15520, Note_on_c, 11, 82, 56
15, 15562, Note_on_c, 11, 82, 0
15, 15584, Note_on_c, 11, 82, 58
15, 15626, Note_on_c, 11, 82, 0
15, 15648, Control_c, 11, 11, 92
15, 15648, Note_on_c, 11, 80, 61
15, 15653, Control_c, 11, 11, 93
15, 15658, Note_on_c, 11, 80, 0
15, 15658, Control_c, 11, 11, 94
15, 15664, Control_c, 11, 11, 95
15, 15664, Note_on_c, 11, 82, 62
15, 15669, Control_c, 11, 11, 96
15, 15675, Control_c, 11, 11, 97
15, 15680, Control_c, 11, 11, 98
15, 15686, Control_c, 11, 11, 99
15, 15691, Control_c, 11, 11, 100
15, 15696, Note_on_c, 11, 82, 0
15, 15697, Control_c, 11, 11, 101
15, 15702, Control_c, 11, 11, 102
15, 15708, Control_c, 11, 11, 103
15, 15712, Note_on_c, 11, 83, 59
15, 15713, Control_c, 11, 11, 104
15, 15719, Control_c, 11, 11, 105
15, 15724, Control_c, 11, 11, 106
15, 15730, Control_c, 11, 11, 107
15, 15735, Control_c, 11, 11, 108
15, 15741, Control_c, 11, 11, 109
15, 15746, Control_c, 11, 11, 110
15, 15752, Control_c, 11, 11, 111
15, 15754, Note_on_c, 11, 83, 0
15, 15757, Control_c, 11, 11, 112
15, 15763, Control_c, 11, 11, 113
15, 15768, Control_c, 11, 11, 114
15, 15774, Control_c, 11, 11, 115
15, 15776, Note_on_c, 11, 85, 64
15, 15779, Control_c, 11, 11, 116
15, 15785, Control_c, 11, 11, 117
15, 15790, Control_c, 11, 11, 118
15, 15796, Control_c, 11, 11, 119
15, 15801, Control_c, 11, 11, 120
15, 15807, Control_c, 11, 11, 121
15, 15812, Control_c, 11, 11, 122
15, 15818, Note_on_c, 11, 85, 0
15, 15818, Control_c, 11, 11, 123
15, 15823, Control_c, 11, 11, 124
15, 15829, Control_c, 11, 11, 125
15, 15834, Control_c, 11, 11, 126
15, 15840, Control_c, 11, 11, 127
15, 15840, Control_c, 11, 11, 92
15, 15840, Note_on_c, 11, 87, 65
15, 15850, Control_c, 11, 11, 93
15, 15861, Control_c, 11, 11, 94
15, 15872, Note_on_c, 11, 87, 0
15, 15872, Control_c, 11, 11, 95
15, 15872, Note_on_c, 11, 88, 56
15, 15883, Control_c, 11, 11, 96
15, 15894, Control_c, 11, 11, 97
15, 15904, Note_on_c, 11, 88, 0
15, 15904, Note_on_c, 11, 87, 57
15, 15905, Control_c, 11, 11, 98
15, 15916, Control_c, 11, 11, 99
15, 15927, Control_c, 11, 11, 100
15, 15936, Note_on_c, 11, 87, 0
15, 15936, Note_on_c, 11, 88, 59
15, 15938, Control_c, 11, 11, 101
15, 15949, Control_c, 11, 11, 102
15, 15960, Control_c, 11, 11, 103
15, 15968, Note_on_c, 11, 88, 0
15, 15968, Note_on_c, 11, 87, 60
15, 15971, Control_c, 11, 11, 104
15, 15982, Control_c, 11, 11, 105
15, 15993, Control_c, 11, 11, 106
15, 16000, Note_on_c, 11, 87, 0
15, 16000, Note_on_c, 11, 88, 64
15, 16004, Control_c, 11, 11, 107
15, 16015, Control_c, 11, 11, 108
15, 16026, Control_c, 11, 11, 109
15, 16032, Note_on_c, 11, 88, 0
15, 16032, Note_on_c, 11, 87, 63
15, 16037, Control_c, 11, 11, 110
15, 16048, Control_c, 11, 11, 111
15, 16059, Control_c, 11, 11, 112
15, 16064, Note_on_c, 11, 87, 0
15, 16064, Note_on_c, 11, 88, 64
15, 16070, Control_c, 11, 11, 113
15, 16081, Control_c, 11, 11, 114
15, 16092, Control_c, 11, 11, 115
15, 16096, Note_on_c, 11, 88, 0
15, 16096, Note_on_c, 11, 87, 65
15, 16103, Control_c, 11, 11, 116
15, 16114, Control_c, 11, 11, 117
15, 16125, Control_c, 11, 11, 118
15, 16128, Note_on_c, 11, 87, 0
15, 16128, Note_on_c, 11, 88, 56
15, 16136, Control_c, 11, 11, 119
15, 16147, Control_c, 11, 11, 120
15, 16158, Control_c, 11, 11, 121
15, 16169, Control_c, 11, 11, 122
15, 16176, Note_on_c, 11, 88, 0
15, 16176, Note_on_c, 11, 86, 61
15, 16180, Control_c, 11, 11, 123
15, 16191, Control_c, 11, 11, 124
15, 16202, Control_c, 11, 11, 125
15, 16213, Control_c, 11, 11, 126
15, 16224, Note_on_c, 11, 86, 0
15, 16224, Control_c, 11, 11, 127
15, 16224, Note_on_c, 11, 87, 62
15, 16272, Note_on_c, 11, 87, 0
15, 16416, Control_c, 11, 11, 92
15, 16416, Note_on_c, 11, 87, 64
15, 16426, Control_c, 11, 11, 93
15, 16437, Control_c, 11, 11, 94
15, 16448, Note_on_c, 11, 87, 0
15, 16448, Control_c, 11, 11, 95
15, 16448, Note_on_c, 11, 88, 59
15, 16459, Control_c, 11, 11, 96
15, 16470, Control_c, 11, 11, 97
15, 16480, Note_on_c, 11, 88, 0
15, 16480, Note_on_c, 11, 87, 56
15, 16481, Control_c, 11, 11, 98
15, 16492, Control_c, 11, 11, 99
15, 16503, Control_c, 11, 11, 100
15, 16512, Note_on_c, 11, 87, 0
15, 16512, Note_on_c, 11, 88, 62
15, 16514, Control_c, 11, 11, 101
15, 16525, Control_c, 11, 11, 102
15, 16536, Control_c, 11, 11, 103
15, 16544, Note_on_c, 11, 88, 0
15, 16544, Note_on_c, 11, 87, 55
15, 16547, Control_c, 11, 11, 104
15, 16558, Control_c, 11, 11, 105
15, 16569, Control_c, 11, 11, 106
15, 16576, Note_on_c, 11, 87, 0
15, 16576, Note_on_c, 11, 88, 62
15, 16580, Control_c, 11, 11, 107
15, 16591, Control_c, 11, 11, 108
15, 16602, Control_c, 11, 11, 109
15, 16608, Note_on_c, 11, 88, 0
15, 16608, Note_on_c, 11, 87, 62
15, 16613, Control_c, 11, 11, 110
15, 16624, Control_c, 11, 11, 111
15, 16635, Control_c, 11, 11, 112
15, 16640, Note_on_c, 11, 87, 0
15, 16640, Note_on_c, 11, 88, 61
15, 16646, Control_c, 11, 11, 113
15, 16657, Control_c, 11, 11, 114
15, 16668, Control_c, 11, 11, 115
15, 16672, Note_on_c, 11, 88, 0
15, 16672, Note_on_c, 11, 87, 60
15, 16679, Control_c, 11, 11, 116
15, 16690, Control_c, 11, 11, 117
15, 16701, Control_c, 11, 11, 118
15, 16704, Note_on_c, 11, 87, 0
15, 16704, Note_on_c, 11, 88, 57
15, 16712, Control_c, 11, 11, 119
15, 16723, Control_c, 11, 11, 120
15, 16734, Control_c, 11, 11, 121
15, 16745, Control_c, 11, 11, 122
15, 16752, Note_on_c, 11, 88, 0
15, 16752, Note_on_c, 11, 86, 58
15, 16756, Control_c, 11, 11, 123
15, 16767, Control_c, 11, 11, 124
15, 16778, Control_c, 11, 11, 125
15, 16789, Control_c, 11, 11, 126
15, 16800, Note_on_c, 11, 86, 0
15, 16800, Control_c, 11, 11, 127
15, 16800, Note_on_c, 11, 87, 62
15, 16805, Control_c, 11, 11, 126
15, 16810, Control_c, 11, 11, 125
15, 16816, Control_c, 11, 11, 124
15, 16821, Control_c, 11, 11, 123
15, 16827, Control_c, 11, 11, 122
15, 16832, Control_c, 11, 11, 121
15, 16838, Control_c, 11, 11, 120
15, 16843, Control_c, 11, 11, 119
15, 16849, Control_c, 11, 11, 118
15, 16854, Control_c, 11, 11, 117
15, 16860, Control_c, 11, 11, 116
15, 16865, Control_c, 11, 11, 115
15, 16871, Control_c, 11, 11, 114
15, 16876, Control_c, 11, 11, 113
15, 16882, Control_c, 11, 11, 112
15, 16887, Control_c, 11, 11, 111
15, 16893, Control_c, 11, 11, 110
15, 16898, Control_c, 11, 11, 109
15, 16904, Control_c, 11, 11, 108
15, 16909, Control_c, 11, 11, 107
15, 16915, Control_c, 11, 11, 106
15, 16920, Control_c, 11, 11, 105
15, 16926, Control_c, 11, 11, 104
15, 16931, Control_c, 11, 11, 103
15, 16937, Control_c, 11, 11, 102
15, 16942, Control_c, 11, 11, 101
15, 16948, Control_c, 11, 11, 100
15, 16953, Control_c, 11, 11, 99
15, 16959, Control_c, 11, 11, 98
15, 16964, Control_c, 11, 11, 97
15, 16970, Control_c, 11, 11, 96
15, 16975, Control_c, 11, 11, 95
15, 16981, Control_c, 11, 11, 94
15, 16986, Control_c, 11, 11, 93
15, 16992, Control_c, 11, 11, 92
15, 17248, Note_on_c, 11, 87, 0
15, 17248, Note_on_c, 11, 88, 64
15, 17290, Note_on_c, 11, 88, 0
15, 17312, Note_on_c, 11, 90, 59
15, 17354, Note_on_c, 11, 90, 0
15, 17376, Note_on_c, 11, 90, 63
15, 17418, Note_on_c, 11, 90, 0
15, 17440, Note_on_c, 11, 88, 57
15, 17482, Note_on_c, 11, 88, 0
15, 17504, Note_on_c, 11, 87, 56
15, 17546, Note_on_c, 11, 87, 0
15, 17568, Note_on_c, 11, 87, 56
15, 17578, Note_on_c, 11, 87, 0
15, 17584, Note_on_c, 11, 85, 55
15, 17616, Note_on_c, 11, 85, 0
15, 17632, Note_on_c, 11, 83, 63
15, 17674, Note_on_c, 11, 83, 0
15, 17696, Note_on_c, 11, 83, 57
15, 17738, Note_on_c, 11, 83, 0
15, 17760, Note_on_c, 11, 83, 55
15, 17802, Note_on_c, 11, 83, 0
15, 17824, Note_on_c, 11, 82, 55
15, 17866, Note_on_c, 11, 82, 0
15, 17888, Note_on_c, 11, 82, 65
15, 17930, Note_on_c, 11, 82, 0
15, 17952, Note_on_c, 11, 82, 65
15, 17962, Note_on_c, 11, 82, 0
15, 17968, Note_on_c, 11, 80, 62
15, 18000, Note_on_c, 11, 80, 0
15, 18016, Note_on_c, 11, 78, 57
15, 18058, Note_on_c, 11, 78, 0
15, 18080, Note_on_c, 11, 76, 55
15, 18122, Note_on_c, 11, 76, 0
15, 18144, Control_c, 11, 11, 92
15, 18144, Note_on_c, 11, 75, 48
15, 18165, Control_c, 11, 11, 93
15, 18187, Control_c, 11, 11, 94
15, 18209, Control_c, 11, 11, 95
15, 18231, Control_c, 11, 11, 96
15, 18253, Control_c, 11, 11, 97
15, 18275, Control_c, 11, 11, 98
15, 18297, Control_c, 11, 11, 99
15, 18319, Control_c, 11, 11, 100
15, 18336, Note_on_c, 11, 75, 0
15, 18336, Note_on_c, 11, 74, 45
15, 18341, Control_c, 11, 11, 101
15, 18363, Control_c, 11, 11, 102
15, 18385, Control_c, 11, 11, 103
15, 18407, Control_c, 11, 11, 104
15, 18429, Control_c, 11, 11, 105
15, 18451, Control_c, 11, 11, 106
15, 18473, Control_c, 11, 11, 107
15, 18495, Control_c, 11, 11, 108
15, 18517, Control_c, 11, 11, 109
15, 18528, Note_on_c, 11, 74, 0
15, 18528, Note_on_c, 11, 71, 50
15, 18538, Control_c, 11, 11, 110
15, 18560, Control_c, 11, 11, 111
15, 18582, Control_c, 11, 11, 112
15, 18604, Control_c, 11, 11, 113
15, 18626, Control_c, 11, 11, 114
15, 18648, Control_c, 11, 11, 115
15, 18670, Control_c, 11, 11, 116
15, 18692, Control_c, 11, 11, 117
15, 18714, Control_c, 11, 11, 118
15, 18720, Note_on_c, 11, 71, 0
15, 18720, Note_on_c, 11, 78, 46
15, 18736, Control_c, 11, 11, 119
15, 18758, Control_c, 11, 11, 120
15, 18780, Control_c, 11, 11, 121
15, 18802, Control_c, 11, 11, 122
15, 18824, Control_c, 11, 11, 123
15, 18846, Control_c, 11, 11, 124
15, 18868, Control_c, 11, 11, 125
15, 18890, Control_c, 11, 11, 126
15, 18912, Note_on_c, 11, 78, 0
15, 18912, Control_c, 11, 11, 127
15, 18912, Note_on_c, 11, 77, 44
15, 18922, Control_c, 11, 11, 126
15, 18933, Control_c, 11, 11, 125
15, 18944, Control_c, 11, 11, 124
15, 18955, Control_c, 11, 11, 123
15, 18966, Control_c, 11, 11, 122
15, 18977, Control_c, 11, 11, 121
15, 18988, Control_c, 11, 11, 120
15, 18999, Control_c, 11, 11, 119
15, 19010, Control_c, 11, 11, 118
15, 19021, Control_c, 11, 11, 117
15, 19032, Control_c, 11, 11, 116
15, 19043, Control_c, 11, 11, 115
15, 19054, Control_c, 11, 11, 114
15, 19065, Control_c, 11, 11, 113
15, 19076, Control_c, 11, 11, 112
15, 19087, Control_c, 11, 11, 111
15, 19098, Control_c, 11, 11, 110
15, 19104, Note_on_c, 11, 77, 0
15, 19104, Note_on_c, 11, 78, 47
15, 19109, Control_c, 11, 11, 109
15, 19120, Control_c, 11, 11, 108
15, 19131, Control_c, 11, 11, 107
15, 19142, Control_c, 11, 11, 106
15, 19153, Control_c, 11, 11, 105
15, 19164, Control_c, 11, 11, 104
15, 19175, Control_c, 11, 11, 103
15, 19186, Control_c, 11, 11, 102
15, 19197, Control_c, 11, 11, 101
15, 19208, Control_c, 11, 11, 100
15, 19219, Control_c, 11, 11, 99
15, 19230, Control_c, 11, 11, 98
15, 19241, Control_c, 11, 11, 97
15, 19252, Control_c, 11, 11, 96
15, 19263, Control_c, 11, 11, 95
15, 19274, Control_c, 11, 11, 94
15, 19285, Control_c, 11, 11, 93
15, 19296, Note_on_c, 11, 78, 0
15, 19296, Control_c, 11, 11, 92
15, 19296, Control_c, 11, 11, 92
15, 19296, Note_on_c, 11, 75, 55
15, 19328, Control_c, 11, 11, 93
15, 19361, Control_c, 11, 11, 94
15, 19394, Control_c, 11, 11, 95
15, 19427, Control_c, 11, 11, 96
15, 19460, Control_c, 11, 11, 97
15, 19488, Note_on_c, 11, 75, 0
15, 19488, Note_on_c, 11, 74, 59
15, 19493, Control_c, 11, 11, 98
15, 19526, Control_c, 11, 11, 99
15, 19559, Control_c, 11, 11, 100
15, 19592, Control_c, 11, 11, 101
15, 19625, Control_c, 11, 11, 102
15, 19658, Control_c, 11, 11, 103
15, 19680, Note_on_c, 11, 74, 0
15, 19680, Note_on_c, 11, 71, 60
15, 19690, Control_c, 11, 11, 104
15, 19723, Control_c, 11, 11, 105
15, 19756, Control_c, 11, 11, 106
15, 19789, Control_c, 11, 11, 107
15, 19822, Control_c, 11, 11, 108
15, 19855, Control_c, 11, 11, 109
15, 19872, Note_on_c, 11, 71, 0
15, 19872, Note_on_c, 11, 78, 59
15, 19888, Control_c, 11, 11, 110
15, 19921, Control_c, 11, 11, 111
15, 19954, Control_c, 11, 11, 112
15, 19987, Control_c, 11, 11, 113
15, 20020, Control_c, 11, 11, 114
15, 20053, Control_c, 11, 11, 115
15, 20064, Note_on_c, 11, 78, 0
15, 20064, Note_on_c, 11, 77, 60
15, 20085, Control_c, 11, 11, 116
15, 20118, Control_c, 11, 11, 117
15, 20151, Control_c, 11, 11, 118
15, 20184, Control_c, 11, 11, 119
15, 20217, Control_c, 11, 11, 120
15, 20250, Control_c, 11, 11, 121
15, 20256, Note_on_c, 11, 77, 0
15, 20256, Note_on_c, 11, 74, 60
15, 20283, Control_c, 11, 11, 122
15, 20316, Control_c, 11, 11, 123
15, 20349, Control_c, 11, 11, 124
15, 20382, Control_c, 11, 11, 125
15, 20415, Control_c, 11, 11, 126
15, 20448, Note_on_c, 11, 74, 0
15, 20448, Control_c, 11, 11, 127
15, 20448, Note_on_c, 11, 73, 61
15, 20544, Note_on_c, 11, 73, 0
15, 21024, Program_c, 11, 45
15, 21600, Note_on_c, 11, 57, 43
15, 21696, Note_on_c, 11, 57, 0
15, 22752, Note_on_c, 11, 57, 41
15, 22800, Note_on_c, 11, 57, 0
15, 23904, Note_on_c, 11, 57, 46
15, 24000, Note_on_c, 11, 57, 0
15, 27936, Control_c, 11, 11, 127
15, 28704, Program_c, 11, 45
15, 28704, Note_on_c, 11, 85, 28
15, 28800, Note_on_c, 11, 85, 0
15, 28896, Program_c, 11, 48
15, 28896, Note_on_c, 11, 85, 34
15, 28928, Note_on_c, 11, 85, 0
15, 28928, Note_on_c, 11, 87, 32
15, 28960, Note_on_c, 11, 87, 0
15, 28960, Note_on_c, 11, 85, 26
15, 28992, Note_on_c, 11, 85, 0
15, 28992, Note_on_c, 11, 87, 29
15, 29024, Note_on_c, 11, 87, 0
15, 29024, Note_on_c, 11, 85, 32
15, 29056, Note_on_c, 11, 85, 0
15, 29056, Note_on_c, 11, 87, 28
15, 29088, Note_on_c, 11, 87, 0
15, 29088, Note_on_c, 11, 85, 34
15, 29120, Note_on_c, 11, 85, 0
15, 29120, Note_on_c, 11, 87, 33
15, 29152, Note_on_c, 11, 87, 0
15, 29152, Note_on_c, 11, 85, 29
15, 29184, Note_on_c, 11, 85, 0
15, 29280, Program_c, 11, 45
15, 29280, Note_on_c, 11, 85, 25
15, 29376, Note_on_c, 11, 85, 0
15, 29472, Program_c, 11, 48
15, 29472, Note_on_c, 11, 85, 31
15, 29504, Note_on_c, 11, 85, 0
15, 29504, Note_on_c, 11, 87, 35
15, 29536, Note_on_c, 11, 87, 0
15, 29536, Note_on_c, 11, 85, 32
15, 29568, Note_on_c, 11, 85, 0
15, 29568, Note_on_c, 11, 87, 27
15, 29600, Note_on_c, 11, 87, 0
15, 29600, Note_on_c, 11, 85, 25
15, 29632, Note_on_c, 11, 85, 0
15, 29632, Note_on_c, 11, 87, 31
15, 29664, Note_on_c, 11, 87, 0
15, 29664, Note_on_c, 11, 85, 27
15, 29696, Note_on_c, 11, 85, 0
15, 29696, Note_on_c, 11, 87, 31
15, 29728, Note_on_c, 11, 87, 0
15, 29728, Note_on_c, 11, 85, 29
15, 29760, Note_on_c, 11, 85, 0
15, 29856, Program_c, 11, 45
15, 29856, Note_on_c, 11, 85, 28
15, 29952, Note_on_c, 11, 85, 0
15, 30048, Program_c, 11, 48
15, 30048, Note_on_c, 11, 85, 34
15, 30080, Note_on_c, 11, 85, 0
15, 30080, Note_on_c, 11, 87, 28
15, 30112, Note_on_c, 11, 87, 0
15, 30112, Note_on_c, 11, 85, 30
15, 30144, Note_on_c, 11, 85, 0
15, 30144, Note_on_c, 11, 87, 33
15, 30176, Note_on_c, 11, 87, 0
15, 30176, Note_on_c, 11, 85, 29
15, 30208, Note_on_c, 11, 85, 0
15, 30208, Note_on_c, 11, 87, 29
15, 30240, Note_on_c, 11, 87, 0
15, 30240, Note_on_c, 11, 85, 35
15, 30272, Note_on_c, 11, 85, 0
15, 30272, Note_on_c, 11, 87, 29
15, 30304, Note_on_c, 11, 87, 0
15, 30304, Note_on_c, 11, 85, 25
15, 30336, Note_on_c, 11, 85, 0
15, 30432, Program_c, 11, 45
15, 30432, Note_on_c, 11, 85, 25
15, 30528, Note_on_c, 11, 85, 0
15, 30624, Program_c, 11, 48
15, 30624, Note_on_c, 11, 85, 25
15, 30656, Note_on_c, 11, 85, 0
15, 30656, Note_on_c, 11, 87, 31
15, 30688, Note_on_c, 11, 87, 0
15, 30688, Note_on_c, 11, 85, 27
15, 30720, Note_on_c, 11, 85, 0
15, 30720, Note_on_c, 11, 87, 35
15, 30752, Note_on_c, 11, 87, 0
15, 30752, Note_on_c, 11, 85, 25
15, 30784, Note_on_c, 11, 85, 0
15, 30784, Note_on_c, 11, 87, 26
15, 30816, Note_on_c, 11, 87, 0
15, 30816, Note_on_c, 11, 85, 26
15, 30848, Note_on_c, 11, 85, 0
15, 30848, Note_on_c, 11, 87, 35
15, 30880, Note_on_c, 11, 87, 0
15, 30880, Note_on_c, 11, 85, 25
15, 30912, Note_on_c, 11, 85, 0
15, 31008, Program_c, 11, 45
15, 31008, Note_on_c, 11, 85, 29
15, 31104, Note_on_c, 11, 85, 0
15, 31200, Program_c, 11, 48
15, 31200, Note_on_c, 11, 85, 28
15, 31232, Note_on_c, 11, 85, 0
15, 31232, Note_on_c, 11, 87, 32
15, 31264, Note_on_c, 11, 87, 0
15, 31264, Note_on_c, 11, 85, 29
15, 31296, Note_on_c, 11, 85, 0
15, 31296, Note_on_c, 11, 87, 35
15, 31328, Note_on_c, 11, 87, 0
15, 31328, Note_on_c, 11, 85, 33
15, 31360, Note_on_c, 11, 85, 0
15, 31360, Note_on_c, 11, 87, 35
15, 31392, Note_on_c, 11, 87, 0
15, 31392, Note_on_c, 11, 85, 28
15, 31424, Note_on_c, 11, 85, 0
15, 31424, Note_on_c, 11, 87, 31
15, 31456, Note_on_c, 11, 87, 0
15, 31456, Note_on_c, 11, 85, 29
15, 31488, Note_on_c, 11, 85, 0
15, 31584, Program_c, 11, 45
15, 31584, Note_on_c, 11, 73, 35
15, 31680, Note_on_c, 11, 73, 0
15, 31776, Program_c, 11, 48
15, 31776, Note_on_c, 11, 58, 28
15, 31800, Note_on_c, 11, 58, 0
15, 31800, Note_on_c, 11, 59, 37
15, 31824, Note_on_c, 11, 59, 0
15, 31824, Note_on_c, 11, 60, 44
15, 31848, Note_on_c, 11, 60, 0
15, 31848, Note_on_c, 11, 61, 45
15, 31872, Note_on_c, 11, 61, 0
15, 31872, Note_on_c, 11, 62, 53
15, 31896, Note_on_c, 11, 62, 0
15, 31896, Note_on_c, 11, 63, 61
15, 31920, Note_on_c, 11, 63, 0
15, 31920, Note_on_c, 11, 64, 66
15, 31944, Note_on_c, 11, 64, 0
15, 31944, Note_on_c, 11, 65, 71
15, 31968, Note_on_c, 11, 65, 0
15, 31968, Note_on_c, 11, 66, 72
15, 32256, Note_on_c, 11, 66, 0
15, 32256, Note_on_c, 11, 65, 71
15, 32352, Note_on_c, 11, 65, 0
15, 32352, Note_on_c, 11, 63, 79
15, 32448, Note_on_c, 11, 63, 0
15, 32448, Note_on_c, 11, 62, 75
15, 32544, Note_on_c, 11, 62, 0
15, 32544, Note_on_c, 11, 66, 75
15, 32736, Note_on_c, 11, 66, 0
15, 32736, Note_on_c, 11, 70, 77
15, 32928, Note_on_c, 11, 70, 0
15, 32928, Note_on_c, 11, 73, 81
15, 33120, Note_on_c, 11, 73, 0
15, 33120, Note_on_c, 11, 77, 89
15, 33408, Note_on_c, 11, 77, 0
15, 33408, Note_on_c, 11, 73, 89
15, 33504, Note_on_c, 11, 73, 0
15, 33504, Note_on_c, 11, 70, 92
15, 33600, Note_on_c, 11, 70, 0
15, 33600, Note_on_c, 11, 73, 89
15, 33696, Note_on_c, 11, 73, 0
15, 33696, Note_on_c, 11, 77, 88
15, 33728, Note_on_c, 11, 77, 0
15, 33792, Note_on_c, 11, 73, 94
15, 33824, Note_on_c, 11, 73, 0
15, 33888, Note_on_c, 11, 77, 91
15, 33920, Note_on_c, 11, 77, 0
15, 33984, Note_on_c, 11, 73, 97
15, 34016, Note_on_c, 11, 73, 0
15, 34080, Note_on_c, 11, 77, 105
15, 34112, Note_on_c, 11, 77, 0
15, 34176, Note_on_c, 11, 78, 102
15, 34208, Note_on_c, 11, 78, 0
15, 34272, Program_c, 11, 45
15, 34272, Note_on_c, 11, 69, 110
15, 34272, Note_on_c, 11, 77, 103
15, 34272, Note_on_c, 11, 84, 103
15, 34368, Note_on_c, 11, 69, 0
15, 34368, Note_on_c, 11, 77, 0
15, 34368, Note_on_c, 11, 84, 0
15, 34560, Note_on_c, 11, 74, 108
15, 34656, Note_on_c, 11, 74, 0
15, 34848, Note_on_c, 11, 69, 107
15, 34848, Note_on_c, 11, 77, 112
15, 34848, Note_on_c, 11, 84, 110
15, 34944, Note_on_c, 11, 69, 0
15, 34944, Note_on_c, 11, 77, 0
15, 34944, Note_on_c, 11, 84, 0
15, 35136, Note_on_c, 11, 74, 109
15, 35232, Note_on_c, 11, 74, 0
15, 35424, Program_c, 11, 48
15, 35424, Note_on_c, 11, 83, 91
15, 35448, Note_on_c, 11, 83, 0
15, 35448, Note_on_c, 11, 81, 90
15, 35472, Note_on_c, 11, 81, 0
15, 35472, Note_on_c, 11, 79, 91
15, 35496, Note_on_c, 11, 79, 0
15, 35496, Note_on_c, 11, 77, 89
15, 35520, Note_on_c, 11, 77, 0
15, 35520, Note_on_c, 11, 83, 88
15, 35544, Note_on_c, 11, 83, 0
15, 35544, Note_on_c, 11, 81, 97
15, 35568, Note_on_c, 11, 81, 0
15, 35568, Note_on_c, 11, 79, 91
15, 35592, Note_on_c, 11, 79, 0
15, 35592, Note_on_c, 11, 77, 90
15, 35616, Note_on_c, 11, 77, 0
15, 35616, Note_on_c, 11, 83, 95
15, 35640, Note_on_c, 11, 83, 0
15, 35640, Note_on_c, 11, 81, 91
15, 35664, Note_on_c, 11, 81, 0
15, 35664, Note_on_c, 11, 79, 93
15, 35688, Note_on_c, 11, 79, 0
15, 35688, Note_on_c, 11, 77, 88
15, 35712, Note_on_c, 11, 77, 0
15, 35712, Note_on_c, 11, 83, 88
15, 35736, Note_on_c, 11, 83, 0
15, 35736, Note_on_c, 11, 81, 89
15, 35760, Note_on_c, 11, 81, 0
15, 35760, Note_on_c, 11, 79, 88
15, 35784, Note_on_c, 11, 79, 0
15, 35784, Note_on_c, 11, 77, 88
15, 35808, Note_on_c, 11, 77, 0
15, 36000, Note_on_c, 11, 83, 90
15, 36024, Note_on_c, 11, 83, 0
15, 36024, Note_on_c, 11, 81, 88
15, 36048, Note_on_c, 11, 81, 0
15, 36048, Note_on_c, 11, 79, 93
15, 36072, Note_on_c, 11, 79, 0
15, 36072, Note_on_c, 11, 77, 83
15, 36096, Note_on_c, 11, 77, 0
15, 36096, Note_on_c, 11, 83, 89
15, 36120, Note_on_c, 11, 83, 0
15, 36120, Note_on_c, 11, 81, 88
15, 36144, Note_on_c, 11, 81, 0
15, 36144, Note_on_c, 11, 79, 78
15, 36168, Note_on_c, 11, 79, 0
15, 36168, Note_on_c, 11, 77, 75
15, 36192, Note_on_c, 11, 77, 0
15, 36192, Note_on_c, 11, 83, 79
15, 36216, Note_on_c, 11, 83, 0
15, 36216, Note_on_c, 11, 81, 76
15, 36240, Note_on_c, 11, 81, 0
15, 36240, Note_on_c, 11, 79, 69
15, 36264, Note_on_c, 11, 79, 0
15, 36264, Note_on_c, 11, 77, 73
15, 36288, Note_on_c, 11, 77, 0
15, 36288, Note_on_c, 11, 83, 66
15, 36312, Note_on_c, 11, 83, 0
15, 36312, Note_on_c, 11, 81, 71
15, 36336, Note_on_c, 11, 81, 0
15, 36336, Note_on_c, 11, 79, 68
15, 36360, Note_on_c, 11, 79, 0
15, 36360, Note_on_c, 11, 77, 60
15, 36384, Note_on_c, 11, 77, 0
15, 36576, Note_on_c, 11, 84, 31
15, 36600, Note_on_c, 11, 84, 0
15, 36600, Note_on_c, 11, 82, 29
15, 36624, Note_on_c, 11, 82, 0
15, 36624, Note_on_c, 11, 80, 27
15, 36648, Note_on_c, 11, 80, 0
15, 36648, Note_on_c, 11, 78, 30
15, 36672, Note_on_c, 11, 78, 0
15, 36672, Note_on_c, 11, 84, 30
15, 36696, Note_on_c, 11, 84, 0
15, 36696, Note_on_c, 11, 82, 35
15, 36720, Note_on_c, 11, 82, 0
15, 36720, Note_on_c, 11, 80, 27
15, 36744, Note_on_c, 11, 80, 0
15, 36744, Note_on_c, 11, 78, 31
15, 36768, Note_on_c, 11, 78, 0
15, 36768, Note_on_c, 11, 84, 30
15, 36792, Note_on_c, 11, 84, 0
15, 36792, Note_on_c, 11, 82, 26
15, 36816, Note_on_c, 11, 82, 0
15, 36816, Note_on_c, 11, 80, 28
15, 36840, Note_on_c, 11, 80, 0
15, 36840, Note_on_c, 11, 78, 27
15, 36864, Note_on_c, 11, 78, 0
15, 36864, Note_on_c, 11, 84, 31
15, 36888, Note_on_c, 11, 84, 0
15, 36888, Note_on_c, 11, 82, 28
15, 36912, Note_on_c, 11, 82, 0
15, 36912, Note_on_c, 11, 80, 30
15, 36936, Note_on_c, 11, 80, 0
15, 36936, Note_on_c, 11, 78, 33
15, 36960, Note_on_c, 11, 78, 0
15, 36960, Note_on_c, 11, 84, 31
15, 36984, Note_on_c, 11, 84, 0
15, 36984, Note_on_c, 11, 82, 33
15, 37008, Note_on_c, 11, 82, 0
15, 37008, Note_on_c, 11, 80, 31
15, 37032, Note_on_c, 11, 80, 0
15, 37032, Note_on_c, 11, 78, 29
15, 37056, Note_on_c, 11, 78, 0
15, 37056, Note_on_c, 11, 84, 27
15, 37080, Note_on_c, 11, 84, 0
15, 37080, Note_on_c, 11, 82, 33
15, 37104, Note_on_c, 11, 82, 0
15, 37104, Note_on_c, 11, 80, 35
15, 37128, Note_on_c, 11, 80, 0
15, 37128, Note_on_c, 11, 78, 29
15, 37152, Note_on_c, 11, 78, 0
15, 37152, Note_on_c, 11, 84, 27
15, 37176, Note_on_c, 11, 84, 0
15, 37176, Note_on_c, 11, 82, 27
15, 37200, Note_on_c, 11, 82, 0
15, 37200, Note_on_c, 11, 80, 26
15, 37224, Note_on_c, 11, 80, 0
15, 37224, Note_on_c, 11, 78, 32
15, 37248, Note_on_c, 11, 78, 0
15, 37248, Note_on_c, 11, 84, 31
15, 37272, Note_on_c, 11, 84, 0
15, 37272, Note_on_c, 11, 82, 25
15, 37296, Note_on_c, 11, 82, 0
15, 37296, Note_on_c, 11, 80, 34
15, 37320, Note_on_c, 11, 80, 0
15, 37320, Note_on_c, 11, 78, 26
15, 37344, Note_on_c, 11, 78, 0
15, 37728, Note_on_c, 11, 84, 35
15, 37752, Note_on_c, 11, 84, 0
15, 37752, Note_on_c, 11, 82, 25
15, 37776, Note_on_c, 11, 82, 0
15, 37776, Note_on_c, 11, 80, 26
15, 37800, Note_on_c, 11, 80, 0
15, 37800, Note_on_c, 11, 78, 33
15, 37824, Note_on_c, 11, 78, 0
15, 37824, Note_on_c, 11, 84, 29
15, 37848, Note_on_c, 11, 84, 0
15, 37848, Note_on_c, 11, 82, 28
15, 37872, Note_on_c, 11, 82, 0
15, 37872, Note_on_c, 11, 80, 34
15, 37896, Note_on_c, 11, 80, 0
15, 37896, Note_on_c, 11, 78, 30
15, 37920, Note_on_c, 11, 78, 0
15, 37920, Note_on_c, 11, 84, 25
15, 37944, Note_on_c, 11, 84, 0
15, 37944, Note_on_c, 11, 82, 33
15, 37968, Note_on_c, 11, 82, 0
15, 37968, Note_on_c, 11, 80, 26
15, 37992, Note_on_c, 11, 80, 0
15, 37992, Note_on_c, 11, 78, 31
15, 38016, Note_on_c, 11, 78, 0
15, 38016, Note_on_c, 11, 84, 30
15, 38040, Note_on_c, 11, 84, 0
15, 38040, Note_on_c, 11, 82, 31
15, 38064, Note_on_c, 11, 82, 0
15, 38064, Note_on_c, 11, 80, 30
15, 38088, Note_on_c, 11, 80, 0
15, 38088, Note_on_c, 11, 78, 31
15, 38112, Note_on_c, 11, 78, 0
15, 38112, Note_on_c, 11, 84, 25
15, 38136, Note_on_c, 11, 84, 0
15, 38136, Note_on_c, 11, 82, 26
15, 38160, Note_on_c, 11, 82, 0
15, 38160, Note_on_c, 11, 80, 34
15, 38184, Note_on_c, 11, 80, 0
15, 38184, Note_on_c, 11, 78, 27
15, 38208, Note_on_c, 11, 78, 0
15, 38208, Note_on_c, 11, 84, 29
15, 38232, Note_on_c, 11, 84, 0
15, 38232, Note_on_c, 11, 82, 30
15, 38256, Note_on_c, 11, 82, 0
15, 38256, Note_on_c, 11, 80, 30
15, 38280, Note_on_c, 11, 80, 0
15, 38280, Note_on_c, 11, 78, 34
15, 38304, Note_on_c, 11, 78, 0
15, 38304, Note_on_c, 11, 83, 27
15, 38328, Note_on_c, 11, 83, 0
15, 38328, Note_on_c, 11, 81, 31
15, 38352, Note_on_c, 11, 81, 0
15, 38352, Note_on_c, 11, 79, 29
15, 38376, Note_on_c, 11, 79, 0
15, 38376, Note_on_c, 11, 77, 31
15, 38400, Note_on_c, 11, 77, 0
15, 38400, Note_on_c, 11, 84, 32
15, 38424, Note_on_c, 11, 84, 0
15, 38424, Note_on_c, 11, 82, 26
15, 38448, Note_on_c, 11, 82, 0
15, 38448, Note_on_c, 11, 80, 30
15, 38472, Note_on_c, 11, 80, 0
15, 38472, Note_on_c, 11, 78, 35
15, 38496, Note_on_c, 11, 78, 0
15, 38496, Note_on_c, 11, 85, 30
15, 38520, Note_on_c, 11, 85, 0
15, 38520, Note_on_c, 11, 83, 30
15, 38544, Note_on_c, 11, 83, 0
15, 38544, Note_on_c, 11, 81, 32
15, 38568, Note_on_c, 11, 81, 0
15, 38568, Note_on_c, 11, 79, 32
15, 38592, Note_on_c, 11, 79, 0
15, 38592, Note_on_c, 11, 85, 30
15, 38616, Note_on_c, 11, 85, 0
15, 38616, Note_on_c, 11, 83, 32
15, 38640, Note_on_c, 11, 83, 0
15, 38640, Note_on_c, 11, 81, 27
15, 38664, Note_on_c, 11, 81, 0
15, 38664, Note_on_c, 11, 79, 35
15, 38688, Note_on_c, 11, 79, 0
15, 38688, Note_on_c, 11, 85, 33
15, 38712, Note_on_c, 11, 85, 0
15, 38712, Note_on_c, 11, 83, 26
15, 38736, Note_on_c, 11, 83, 0
15, 38736, Note_on_c, 11, 81, 30
15, 38760, Note_on_c, 11, 81, 0
15, 38760, Note_on_c, 11, 79, 26
15, 38784, Note_on_c, 11, 79, 0
15, 38784, Note_on_c, 11, 85, 26
15, 38808, Note_on_c, 11, 85, 0
15, 38808, Note_on_c, 11, 83, 33
15, 38832, Note_on_c, 11, 83, 0
15, 38832, Note_on_c, 11, 81, 30
15, 38856, Note_on_c, 11, 81, 0
15, 38856, Note_on_c, 11, 79, 31
15, 38880, Note_on_c, 11, 79, 0
15, 39648, Program_c, 11, 44
15, 39648, Note_on_c, 11, 72, 33
15, 39696, Note_on_c, 11, 72, 0
15, 39696, Note_on_c, 11, 74, 30
15, 39744, Note_on_c, 11, 74, 0
15, 39744, Note_on_c, 11, 76, 34
15, 39792, Note_on_c, 11, 76, 0
15, 39792, Note_on_c, 11, 78, 32
15, 39840, Note_on_c, 11, 78, 0
15, 39840, Note_on_c, 11, 80, 26
15, 39888, Note_on_c, 11, 80, 0
15, 39888, Note_on_c, 11, 82, 26
15, 39936, Note_on_c, 11, 82, 0
15, 39936, Note_on_c, 11, 84, 27
15, 39984, Note_on_c, 11, 84, 0
15, 39984, Note_on_c, 11, 86, 33
15, 40032, Note_on_c, 11, 86, 0
15, 40032, Note_on_c, 11, 86, 34
15, 40128, Note_on_c, 11, 86, 0
15, 40128, Note_on_c, 11, 85, 34
15, 40224, Note_on_c, 11, 85, 0
15, 40224, Note_on_c, 11, 84, 29
15, 40416, Note_on_c, 11, 84, 0
15, 40416, Note_on_c, 11, 83, 27
15, 40608, Note_on_c, 11, 83, 0
15, 40608, Note_on_c, 11, 86, 25
15, 40704, Note_on_c, 11, 86, 0
15, 40704, Note_on_c, 11, 85, 28
15, 40800, Note_on_c, 11, 85, 0
15, 40800, Note_on_c, 11, 84, 27
15, 40992, Note_on_c, 11, 84, 0
15, 40992, Note_on_c, 11, 83, 27
15, 41184, Note_on_c, 11, 83, 0
15, 41184, Control_c, 11, 11, 75
15, 41184, Note_on_c, 11, 86, 64
15, 41195, Control_c, 11, 11, 76
15, 41206, Control_c, 11, 11, 77
15, 41217, Control_c, 11, 11, 78
15, 41228, Control_c, 11, 11, 79
15, 41239, Control_c, 11, 11, 80
15, 41250, Control_c, 11, 11, 81
15, 41261, Control_c, 11, 11, 82
15, 41272, Control_c, 11, 11, 83
15, 41280, Note_on_c, 11, 86, 0
15, 41280, Note_on_c, 11, 85, 55
15, 41283, Control_c, 11, 11, 84
15, 41294, Control_c, 11, 11, 85
15, 41305, Control_c, 11, 11, 86
15, 41316, Control_c, 11, 11, 87
15, 41328, Control_c, 11, 11, 88
15, 41339, Control_c, 11, 11, 89
15, 41350, Control_c, 11, 11, 90
15, 41361, Control_c, 11, 11, 91
15, 41372, Control_c, 11, 11, 92
15, 41376, Note_on_c, 11, 85, 0
15, 41376, Note_on_c, 11, 84, 62
15, 41383, Control_c, 11, 11, 93
15, 41394, Control_c, 11, 11, 94
15, 41405, Control_c, 11, 11, 95
15, 41416, Control_c, 11, 11, 96
15, 41427, Control_c, 11, 11, 97
15, 41438, Control_c, 11, 11, 98
15, 41449, Control_c, 11, 11, 99
15, 41460, Control_c, 11, 11, 100
15, 41472, Control_c, 11, 11, 101
15, 41483, Control_c, 11, 11, 102
15, 41494, Control_c, 11, 11, 103
15, 41505, Control_c, 11, 11, 104
15, 41516, Control_c, 11, 11, 105
15, 41527, Control_c, 11, 11, 106
15, 41538, Control_c, 11, 11, 107
15, 41549, Control_c, 11, 11, 108
15, 41560, Control_c, 11, 11, 109
15, 41568, Note_on_c, 11, 84, 0
15, 41568, Note_on_c, 11, 87, 58
15, 41571, Control_c, 11, 11, 110
15, 41582, Control_c, 11, 11, 111
15, 41593, Control_c, 11, 11, 112
15, 41604, Control_c, 11, 11, 113
15, 41616, Control_c, 11, 11, 114
15, 41627, Control_c, 11, 11, 115
15, 41638, Control_c, 11, 11, 116
15, 41649, Control_c, 11, 11, 117
15, 41660, Control_c, 11, 11, 118
15, 41671, Control_c, 11, 11, 119
15, 41682, Control_c, 11, 11, 120
15, 41693, Control_c, 11, 11, 121
15, 41704, Control_c, 11, 11, 122
15, 41715, Control_c, 11, 11, 123
15, 41726, Control_c, 11, 11, 124
15, 41737, Control_c, 11, 11, 125
15, 41748, Control_c, 11, 11, 126
15, 41760, Note_on_c, 11, 87, 0
15, 41760, Control_c, 11, 11, 127
15, 41760, Note_on_c, 11, 86, 56
15, 41771, Control_c, 11, 11, 126
15, 41782, Control_c, 11, 11, 125
15, 41793, Control_c, 11, 11, 124
15, 41804, Control_c, 11, 11, 123
15, 41815, Control_c, 11, 11, 122
15, 41826, Control_c, 11, 11, 121
15, 41837, Control_c, 11, 11, 120
15, 41848, Control_c, 11, 11, 119
15, 41856, Note_on_c, 11, 86, 0
15, 41856, Note_on_c, 11, 85, 61
15, 41859, Control_c, 11, 11, 118
15, 41870, Control_c, 11, 11, 117
15, 41881, Control_c, 11, 11, 116
15, 41892, Control_c, 11, 11, 115
15, 41904, Control_c, 11, 11, 114
15, 41915, Control_c, 11, 11, 113
15, 41926, Control_c, 11, 11, 112
15, 41937, Control_c, 11, 11, 111
15, 41948, Control_c, 11, 11, 110
15, 41952, Note_on_c, 11, 85, 0
15, 41952, Note_on_c, 11, 84, 58
15, 41959, Control_c, 11, 11, 109
15, 41970, Control_c, 11, 11, 108
15, 41981, Control_c, 11, 11, 107
15, 41992, Control_c, 11, 11, 106
15, 42003, Control_c, 11, 11, 105
15, 42014, Control_c, 11, 11, 104
15, 42025, Control_c, 11, 11, 103
15, 42036, Control_c, 11, 11, 102
15, 42048, Control_c, 11, 11, 101
15, 42059, Control_c, 11, 11, 100
15, 42070, Control_c, 11, 11, 99
15, 42081, Control_c, 11, 11, 98
15, 42092, Control_c, 11, 11, 97
15, 42103, Control_c, 11, 11, 96
15, 42114, Control_c, 11, 11, 95
15, 42125, Control_c, 11, 11, 94
15, 42136, Control_c, 11, 11, 93
15, 42144, Note_on_c, 11, 84, 0
15, 42144, Note_on_c, 11, 83, 58
15, 42147, Control_c, 11, 11, 92
15, 42158, Control_c, 11, 11, 91
15, 42169, Control_c, 11, 11, 90
15, 42180, Control_c, 11, 11, 89
15, 42192, Control_c, 11, 11, 88
15, 42203, Control_c, 11, 11, 87
15, 42214, Control_c, 11, 11, 86
15, 42225, Control_c, 11, 11, 85
15, 42236, Control_c, 11, 11, 84
15, 42247, Control_c, 11, 11, 83
15, 42258, Control_c, 11, 11, 82
15, 42269, Control_c, 11, 11, 81
15, 42280, Control_c, 11, 11, 80
15, 42291, Control_c, 11, 11, 79
15, 42302, Control_c, 11, 11, 78
15, 42313, Control_c, 11, 11, 77
15, 42324, Control_c, 11, 11, 76
15, 42336, Note_on_c, 11, 83, 0
15, 42336, Control_c, 11, 11, 75
15, 42336, Program_c, 11, 48
15, 42336, Note_on_c, 11, 82, 58
15, 42912, Note_on_c, 11, 82, 0
15, 42912, Control_c, 11, 11, 75
15, 42912, Note_on_c, 11, 83, 58
15, 42923, Control_c, 11, 11, 76
15, 42934, Control_c, 11, 11, 77
15, 42945, Control_c, 11, 11, 78
15, 42956, Control_c, 11, 11, 79
15, 42967, Control_c, 11, 11, 80
15, 42978, Control_c, 11, 11, 81
15, 42989, Control_c, 11, 11, 82
15, 43000, Control_c, 11, 11, 83
15, 43008, Note_on_c, 11, 83, 0
15, 43008, Note_on_c, 11, 85, 59
15, 43011, Control_c, 11, 11, 84
15, 43022, Control_c, 11, 11, 85
15, 43033, Control_c, 11, 11, 86
15, 43044, Control_c, 11, 11, 87
15, 43056, Control_c, 11, 11, 88
15, 43067, Control_c, 11, 11, 89
15, 43078, Control_c, 11, 11, 90
15, 43089, Control_c, 11, 11, 91
15, 43100, Control_c, 11, 11, 92
15, 43104, Note_on_c, 11, 85, 0
15, 43104, Note_on_c, 11, 87, 59
15, 43111, Control_c, 11, 11, 93
15, 43122, Control_c, 11, 11, 94
15, 43133, Control_c, 11, 11, 95
15, 43144, Control_c, 11, 11, 96
15, 43155, Control_c, 11, 11, 97
15, 43166, Control_c, 11, 11, 98
15, 43177, Control_c, 11, 11, 99
15, 43188, Control_c, 11, 11, 100
15, 43200, Note_on_c, 11, 87, 0
15, 43200, Control_c, 11, 11, 101
15, 43200, Note_on_c, 11, 90, 60
15, 43211, Control_c, 11, 11, 102
15, 43222, Control_c, 11, 11, 103
15, 43233, Control_c, 11, 11, 104
15, 43244, Control_c, 11, 11, 105
15, 43255, Control_c, 11, 11, 106
15, 43266, Control_c, 11, 11, 107
15, 43277, Control_c, 11, 11, 108
15, 43288, Control_c, 11, 11, 109
15, 43296, Note_on_c, 11, 90, 0
15, 43296, Note_on_c, 11, 92, 62
15, 43299, Control_c, 11, 11, 110
15, 43310, Control_c, 11, 11, 111
15, 43321, Control_c, 11, 11, 112
15, 43332, Control_c, 11, 11, 113
15, 43344, Control_c, 11, 11, 114
15, 43355, Control_c, 11, 11, 115
15, 43360, Note_on_c, 11, 92, 0
15, 43360, Note_on_c, 11, 90, 61
15, 43366, Control_c, 11, 11, 116
15, 43377, Control_c, 11, 11, 117
15, 43388, Control_c, 11, 11, 118
15, 43399, Control_c, 11, 11, 119
15, 43410, Control_c, 11, 11, 120
15, 43421, Control_c, 11, 11, 121
15, 43424, Note_on_c, 11, 90, 0
15, 43424, Note_on_c, 11, 87, 56
15, 43432, Control_c, 11, 11, 122
15, 43443, Control_c, 11, 11, 123
15, 43454, Control_c, 11, 11, 124
15, 43465, Control_c, 11, 11, 125
15, 43476, Control_c, 11, 11, 126
15, 43488, Note_on_c, 11, 87, 0
15, 43488, Control_c, 11, 11, 127
15, 43488, Note_on_c, 11, 82, 58
15, 43584, Note_on_c, 11, 82, 0
15, 43872, Note_on_c, 11, 74, 42
15, 43904, Note_on_c, 11, 74, 0
15, 43920, Note_on_c, 11, 76, 44
15, 43952, Note_on_c, 11, 76, 0
15, 43968, Note_on_c, 11, 78, 57
15, 44000, Note_on_c, 11, 78, 0
15, 44016, Note_on_c, 11, 80, 71
15, 44048, Note_on_c, 11, 80, 0
15, 44448, Note_on_c, 11, 76, 43
15, 44480, Note_on_c, 11, 76, 0
15, 44496, Note_on_c, 11, 78, 50
15, 44528, Note_on_c, 11, 78, 0
15, 44544, Note_on_c, 11, 80, 53
15, 44576, Note_on_c, 11, 80, 0
15, 44592, Note_on_c, 11, 82, 67
15, 44624, Note_on_c, 11, 82, 0
15, 44640, Note_on_c, 11, 86, 76
15, 44736, Note_on_c, 11, 86, 0
15, 44736, Note_on_c, 11, 84, 77
15, 44768, Note_on_c, 11, 84, 0
15, 44768, Note_on_c, 11, 86, 70
15, 44800, Note_on_c, 11, 86, 0
15, 44800, Note_on_c, 11, 84, 77
15, 44832, Note_on_c, 11, 84, 0
15, 44832, Note_on_c, 11, 86, 71
15, 44928, Note_on_c, 11, 86, 0
15, 44928, Note_on_c, 11, 84, 76
15, 44960, Note_on_c, 11, 84, 0
15, 44960, Note_on_c, 11, 86, 77
15, 44992, Note_on_c, 11, 86, 0
15, 44992, Note_on_c, 11, 84, 80
15, 45024, Note_on_c, 11, 84, 0
15, 45024, Note_on_c, 11, 86, 81
15, 45056, Note_on_c, 11, 86, 0
15, 45072, Note_on_c, 11, 87, 81
15, 45104, Note_on_c, 11, 87, 0
15, 45120, Note_on_c, 11, 88, 76
15, 45152, Note_on_c, 11, 88, 0
15, 45168, Note_on_c, 11, 89, 75
15, 45200, Note_on_c, 11, 89, 0
15, 45216, Note_on_c, 11, 86, 82
15, 45312, Note_on_c, 11, 86, 0
15, 45312, Note_on_c, 11, 84, 85
15, 45344, Note_on_c, 11, 84, 0
15, 45344, Note_on_c, 11, 86, 78
15, 45376, Note_on_c, 11, 86, 0
15, 45376, Note_on_c, 11, 84, 85
15, 45408, Note_on_c, 11, 84, 0
15, 45408, Note_on_c, 11, 86, 78
15, 45504, Note_on_c, 11, 86, 0
15, 45504, Note_on_c, 11, 84, 85
15, 45536, Note_on_c, 11, 84, 0
15, 45536, Note_on_c, 11, 86, 81
15, 45568, Note_on_c, 11, 86, 0
15, 45568, Note_on_c, 11, 84, 87
15, 45600, Note_on_c, 11, 84, 0
15, 45600, Note_on_c, 11, 86, 89
15, 45632, Note_on_c, 11, 86, 0
15, 45648, Note_on_c, 11, 87, 93
15, 45680, Note_on_c, 11, 87, 0
15, 45696, Note_on_c, 11, 88, 87
15, 45728, Note_on_c, 11, 88, 0
15, 45744, Note_on_c, 11, 89, 94
15, 45776, Note_on_c, 11, 89, 0
15, 45792, Program_c, 11, 44
15, 45792, Control_c, 11, 11, 92
15, 45792, Note_on_c, 11, 85, 47
15, 46368, Control_c, 11, 11, 92
15, 46384, Control_c, 11, 11, 93
15, 46400, Control_c, 11, 11, 94
15, 46417, Control_c, 11, 11, 95
15, 46433, Control_c, 11, 11, 96
15, 46450, Control_c, 11, 11, 97
15, 46466, Control_c, 11, 11, 98
15, 46483, Control_c, 11, 11, 99
15, 46499, Control_c, 11, 11, 100
15, 46516, Control_c, 11, 11, 101
15, 46532, Control_c, 11, 11, 102
15, 46549, Control_c, 11, 11, 103
15, 46565, Control_c, 11, 11, 104
15, 46581, Control_c, 11, 11, 105
15, 46598, Control_c, 11, 11, 106
15, 46614, Control_c, 11, 11, 107
15, 46631, Control_c, 11, 11, 108
15, 46647, Control_c, 11, 11, 109
15, 46664, Control_c, 11, 11, 110
15, 46680, Control_c, 11, 11, 111
15, 46697, Control_c, 11, 11, 112
15, 46713, Control_c, 11, 11, 113
15, 46730, Control_c, 11, 11, 114
15, 46746, Control_c, 11, 11, 115
15, 46762, Control_c, 11, 11, 116
15, 46779, Control_c, 11, 11, 117
15, 46795, Control_c, 11, 11, 118
15, 46812, Control_c, 11, 11, 119
15, 46828, Control_c, 11, 11, 120
15, 46845, Control_c, 11, 11, 121
15, 46861, Control_c, 11, 11, 122
15, 46878, Control_c, 11, 11, 123
15, 46894, Control_c, 11, 11, 124
15, 46911, Control_c, 11, 11, 125
15, 46927, Control_c, 11, 11, 126
15, 46944, Control_c, 11, 11, 127
15, 46944, Control_c, 11, 11, 92
15, 46960, Control_c, 11, 11, 93
15, 46976, Control_c, 11, 11, 94
15, 46993, Control_c, 11, 11, 95
15, 47009, Control_c, 11, 11, 96
15, 47026, Control_c, 11, 11, 97
15, 47042, Control_c, 11, 11, 98
15, 47059, Control_c, 11, 11, 99
15, 47075, Control_c, 11, 11, 100
15, 47092, Control_c, 11, 11, 101
15, 47108, Control_c, 11, 11, 102
15, 47125, Control_c, 11, 11, 103
15, 47141, Control_c, 11, 11, 104
15, 47157, Control_c, 11, 11, 105
15, 47174, Control_c, 11, 11, 106
15, 47190, Control_c, 11, 11, 107
15, 47207, Control_c, 11, 11, 108
15, 47223, Control_c, 11, 11, 109
15, 47240, Control_c, 11, 11, 110
15, 47256, Control_c, 11, 11, 111
15, 47273, Control_c, 11, 11, 112
15, 47289, Control_c, 11, 11, 113
15, 47306, Control_c, 11, 11, 114
15, 47322, Control_c, 11, 11, 115
15, 47338, Control_c, 11, 11, 116
15, 47355, Control_c, 11, 11, 117
15, 47371, Control_c, 11, 11, 118
15, 47388, Control_c, 11, 11, 119
15, 47404, Control_c, 11, 11, 120
15, 47421, Control_c, 11, 11, 121
15, 47437, Control_c, 11, 11, 122
15, 47454, Control_c, 11, 11, 123
15, 47470, Control_c, 11, 11, 124
15, 47487, Control_c, 11, 11, 125
15, 47503, Control_c, 11, 11, 126
15, 47520, Note_on_c, 11, 85, 0
15, 47520, Control_c, 11, 11, 127
15, 47520, Control_c, 11, 11, 127
15, 47520, Note_on_c, 11, 95, 35
15, 47712, Note_on_c, 11, 95, 0
15, 47712, Note_on_c, 11, 93, 33
15, 47904, Note_on_c, 11, 93, 0
15, 47904, Note_on_c, 11, 88, 25
15, 48096, Note_on_c, 11, 88, 0
15, 48096, Note_on_c, 11, 83, 27
15, 48288, Note_on_c, 11, 83, 0
15, 48288, Note_on_c, 11, 81, 34
15, 48480, Note_on_c, 11, 81, 0
15, 48480, Note_on_c, 11, 76, 29
15, 48672, Note_on_c, 11, 76, 0
15, 48672, Program_c, 11, 48
15, 48672, Control_c, 11, 11, 75
15, 48672, Note_on_c, 11, 74, 50
15, 48679, Control_c, 11, 11, 76
15, 48686, Control_c, 11, 11, 77
15, 48694, Control_c, 11, 11, 78
15, 48701, Control_c, 11, 11, 79
15, 48708, Control_c, 11, 11, 80
15, 48716, Control_c, 11, 11, 81
15, 48723, Control_c, 11, 11, 82
15, 48731, Control_c, 11, 11, 83
15, 48738, Control_c, 11, 11, 84
15, 48745, Control_c, 11, 11, 85
15, 48753, Control_c, 11, 11, 86
15, 48760, Control_c, 11, 11, 87
15, 48768, Control_c, 11, 11, 88
15, 48775, Control_c, 11, 11, 89
15, 48782, Control_c, 11, 11, 90
15, 48790, Control_c, 11, 11, 91
15, 48797, Control_c, 11, 11, 92
15, 48804, Control_c, 11, 11, 93
15, 48812, Control_c, 11, 11, 94
15, 48819, Control_c, 11, 11, 95
15, 48827, Control_c, 11, 11, 96
15, 48834, Control_c, 11, 11, 97
15, 48841, Control_c, 11, 11, 98
15, 48849, Control_c, 11, 11, 99
15, 48856, Control_c, 11, 11, 100
15, 48864, Control_c, 11, 11, 101
15, 48871, Control_c, 11, 11, 102
15, 48878, Control_c, 11, 11, 103
15, 48886, Control_c, 11, 11, 104
15, 48893, Control_c, 11, 11, 105
15, 48900, Control_c, 11, 11, 106
15, 48908, Control_c, 11, 11, 107
15, 48915, Control_c, 11, 11, 108
15, 48923, Control_c, 11, 11, 109
15, 48930, Control_c, 11, 11, 110
15, 48937, Control_c, 11, 11, 111
15, 48945, Control_c, 11, 11, 112
15, 48952, Control_c, 11, 11, 113
15, 48960, Control_c, 11, 11, 114
15, 48967, Control_c, 11, 11, 115
15, 48974, Control_c, 11, 11, 116
15, 48982, Control_c, 11, 11, 117
15, 48989, Control_c, 11, 11, 118
15, 48996, Control_c, 11, 11, 119
15, 49004, Control_c, 11, 11, 120
15, 49011, Control_c, 11, 11, 121
15, 49019, Control_c, 11, 11, 122
15, 49026, Control_c, 11, 11, 123
15, 49033, Control_c, 11, 11, 124
15, 49041, Control_c, 11, 11, 125
15, 49048, Control_c, 11, 11, 126
15, 49056, Control_c, 11, 11, 127
15, 49440, Note_on_c, 11, 74, 0
15, 49440, Note_on_c, 11, 76, 43
15, 49504, Note_on_c, 11, 76, 0
15, 49504, Note_on_c, 11, 74, 40
15, 49568, Note_on_c, 11, 74, 0
15, 49568, Note_on_c, 11, 73, 44
15, 49632, Note_on_c, 11, 73, 0
15, 49632, Note_on_c, 11, 72, 40
15, 49696, Note_on_c, 11, 72, 0
15, 49696, Note_on_c, 11, 73, 49
15, 49760, Note_on_c, 11, 73, 0
15, 49760, Note_on_c, 11, 76, 44
15, 49824, Note_on_c, 11, 76, 0
15, 49824, Control_c, 11, 11, 75
15, 49824, Note_on_c, 11, 80, 65
15, 49835, Control_c, 11, 11, 76
15, 49846, Control_c, 11, 11, 77
15, 49857, Control_c, 11, 11, 78
15, 49868, Control_c, 11, 11, 79
15, 49879, Control_c, 11, 11, 80
15, 49890, Control_c, 11, 11, 81
15, 49901, Control_c, 11, 11, 82
15, 49912, Control_c, 11, 11, 83
15, 49923, Control_c, 11, 11, 84
15, 49934, Control_c, 11, 11, 85
15, 49945, Control_c, 11, 11, 86
15, 49956, Control_c, 11, 11, 87
15, 49968, Control_c, 11, 11, 88
15, 49979, Control_c, 11, 11, 89
15, 49990, Control_c, 11, 11, 90
15, 50001, Control_c, 11, 11, 91
15, 50012, Control_c, 11, 11, 92
15, 50016, Note_on_c, 11, 80, 0
15, 50016, Note_on_c, 11, 83, 60
15, 50023, Control_c, 11, 11, 93
15, 50034, Control_c, 11, 11, 94
15, 50045, Control_c, 11, 11, 95
15, 50056, Control_c, 11, 11, 96
15, 50067, Control_c, 11, 11, 97
15, 50078, Control_c, 11, 11, 98
15, 50089, Control_c, 11, 11, 99
15, 50100, Control_c, 11, 11, 100
15, 50112, Control_c, 11, 11, 101
15, 50123, Control_c, 11, 11, 102
15, 50134, Control_c, 11, 11, 103
15, 50145, Control_c, 11, 11, 104
15, 50156, Control_c, 11, 11, 105
15, 50167, Control_c, 11, 11, 106
15, 50178, Control_c, 11, 11, 107
15, 50189, Control_c, 11, 11, 108
15, 50200, Control_c, 11, 11, 109
15, 50208, Note_on_c, 11, 83, 0
15, 50208, Note_on_c, 11, 81, 62
15, 50211, Control_c, 11, 11, 110
15, 50222, Control_c, 11, 11, 111
15, 50233, Control_c, 11, 11, 112
15, 50244, Control_c, 11, 11, 113
15, 50256, Control_c, 11, 11, 114
15, 50267, Control_c, 11, 11, 115
15, 50278, Control_c, 11, 11, 116
15, 50289, Control_c, 11, 11, 117
15, 50300, Control_c, 11, 11, 118
15, 50311, Control_c, 11, 11, 119
15, 50322, Control_c, 11, 11, 120
15, 50333, Control_c, 11, 11, 121
15, 50344, Control_c, 11, 11, 122
15, 50355, Control_c, 11, 11, 123
15, 50366, Control_c, 11, 11, 124
15, 50377, Control_c, 11, 11, 125
15, 50388, Control_c, 11, 11, 126
15, 50400, Note_on_c, 11, 81, 0
15, 50400, Control_c, 11, 11, 127
15, 50400, Program_c, 11, 40
15, 50400, Control_c, 11, 1, 64
15, 50400, Control_c, 11, 11, 92
15, 50400, Note_on_c, 11, 76, 32
15, 50405, Control_c, 11, 11, 93
15, 50410, Control_c, 11, 11, 94
15, 50416, Control_c, 11, 11, 95
15, 50421, Control_c, 11, 11, 96
15, 50427, Control_c, 11, 11, 97
15, 50432, Control_c, 11, 11, 98
15, 50438, Control_c, 11, 11, 99
15, 50443, Control_c, 11, 11, 100
15, 50449, Control_c, 11, 11, 101
15, 50454, Control_c, 11, 11, 102
15, 50460, Control_c, 11, 11, 103
15, 50465, Control_c, 11, 11, 104
15, 50471, Control_c, 11, 11, 105
15, 50476, Control_c, 11, 11, 106
15, 50482, Control_c, 11, 11, 107
15, 50487, Control_c, 11, 11, 108
15, 50493, Control_c, 11, 11, 109
15, 50498, Control_c, 11, 11, 110
15, 50504, Control_c, 11, 11, 111
15, 50509, Control_c, 11, 11, 112
15, 50515, Control_c, 11, 11, 113
15, 50520, Control_c, 11, 11, 114
15, 50526, Control_c, 11, 11, 115
15, 50531, Control_c, 11, 11, 116
15, 50537, Control_c, 11, 11, 117
15, 50542, Control_c, 11, 11, 118
15, 50548, Control_c, 11, 11, 119
15, 50553, Control_c, 11, 11, 120
15, 50559, Control_c, 11, 11, 121
15, 50564, Control_c, 11, 11, 122
15, 50570, Control_c, 11, 11, 123
15, 50575, Control_c, 11, 11, 124
15, 50581, Control_c, 11, 11, 125
15, 50586, Control_c, 11, 11, 126
15, 50592, Note_on_c, 11, 76, 0
15, 50592, Control_c, 11, 11, 127
15, 50592, Note_on_c, 11, 73, 25
15, 50601, Control_c, 11, 11, 126
15, 50610, Control_c, 11, 11, 125
15, 50619, Control_c, 11, 11, 124
15, 50628, Control_c, 11, 11, 123
15, 50637, Control_c, 11, 11, 122
15, 50646, Control_c, 11, 11, 121
15, 50656, Control_c, 11, 11, 120
15, 50665, Control_c, 11, 11, 119
15, 50674, Control_c, 11, 11, 118
15, 50683, Control_c, 11, 11, 117
15, 50692, Control_c, 11, 11, 116
15, 50701, Control_c, 11, 11, 115
15, 50710, Control_c, 11, 11, 114
15, 50720, Control_c, 11, 11, 113
15, 50729, Control_c, 11, 11, 112
15, 50738, Control_c, 11, 11, 111
15, 50747, Control_c, 11, 11, 110
15, 50756, Control_c, 11, 11, 109
15, 50765, Control_c, 11, 11, 108
15, 50774, Control_c, 11, 11, 107
15, 50784, Note_on_c, 11, 73, 0
15, 50784, Control_c, 11, 11, 106
15, 50784, Note_on_c, 11, 68, 33
15, 50793, Control_c, 11, 11, 105
15, 50802, Control_c, 11, 11, 104
15, 50811, Control_c, 11, 11, 103
15, 50820, Control_c, 11, 11, 102
15, 50829, Control_c, 11, 11, 101
15, 50838, Control_c, 11, 11, 100
15, 50848, Control_c, 11, 11, 99
15, 50857, Control_c, 11, 11, 98
15, 50866, Control_c, 11, 11, 97
15, 50875, Control_c, 11, 11, 96
15, 50884, Control_c, 11, 11, 95
15, 50893, Control_c, 11, 11, 94
15, 50902, Control_c, 11, 11, 93
15, 50912, Control_c, 11, 11, 92
15, 50921, Control_c, 11, 11, 91
15, 50930, Control_c, 11, 11, 90
15, 50939, Control_c, 11, 11, 89
15, 50948, Control_c, 11, 11, 88
15, 50957, Control_c, 11, 11, 87
15, 50966, Control_c, 11, 11, 86
15, 50976, Note_on_c, 11, 68, 0
15, 50976, Control_c, 11, 11, 85
15, 50976, Note_on_c, 11, 66, 33
15, 50985, Control_c, 11, 11, 84
15, 50994, Control_c, 11, 11, 83
15, 51003, Control_c, 11, 11, 82
15, 51012, Control_c, 11, 11, 81
15, 51021, Control_c, 11, 11, 80
15, 51030, Control_c, 11, 11, 79
15, 51040, Control_c, 11, 11, 78
15, 51049, Control_c, 11, 11, 77
15, 51058, Control_c, 11, 11, 76
15, 51067, Control_c, 11, 11, 75
15, 51076, Control_c, 11, 11, 74
15, 51085, Control_c, 11, 11, 73
15, 51094, Control_c, 11, 11, 72
15, 51104, Control_c, 11, 11, 71
15, 51113, Control_c, 11, 11, 70
15, 51122, Control_c, 11, 11, 69
15, 51131, Control_c, 11, 11, 68
15, 51140, Control_c, 11, 11, 67
15, 51149, Control_c, 11, 11, 66
15, 51158, Control_c, 11, 11, 65
15, 51168, Control_c, 11, 11, 64
15, 51456, Note_on_c, 11, 66, 0
15, 51552, Control_c, 11, 11, 92
15, 51552, Note_on_c, 11, 79, 25
15, 51557, Control_c, 11, 11, 93
15, 51562, Control_c, 11, 11, 94
15, 51568, Control_c, 11, 11, 95
15, 51573, Control_c, 11, 11, 96
15, 51579, Control_c, 11, 11, 97
15, 51584, Control_c, 11, 11, 98
15, 51590, Control_c, 11, 11, 99
15, 51595, Control_c, 11, 11, 100
15, 51601, Control_c, 11, 11, 101
15, 51606, Control_c, 11, 11, 102
15, 51612, Control_c, 11, 11, 103
15, 51617, Control_c, 11, 11, 104
15, 51623, Control_c, 11, 11, 105
15, 51628, Control_c, 11, 11, 106
15, 51634, Control_c, 11, 11, 107
15, 51639, Control_c, 11, 11, 108
15, 51645, Control_c, 11, 11, 109
15, 51650, Control_c, 11, 11, 110
15, 51656, Control_c, 11, 11, 111
15, 51661, Control_c, 11, 11, 112
15, 51667, Control_c, 11, 11, 113
15, 51672, Control_c, 11, 11, 114
15, 51678, Control_c, 11, 11, 115
15, 51683, Control_c, 11, 11, 116
15, 51689, Control_c, 11, 11, 117
15, 51694, Control_c, 11, 11, 118
15, 51700, Control_c, 11, 11, 119
15, 51705, Control_c, 11, 11, 120
15, 51711, Control_c, 11, 11, 121
15, 51716, Control_c, 11, 11, 122
15, 51722, Control_c, 11, 11, 123
15, 51727, Control_c, 11, 11, 124
15, 51733, Control_c, 11, 11, 125
15, 51738, Control_c, 11, 11, 126
15, 51744, Note_on_c, 11, 79, 0
15, 51744, Control_c, 11, 11, 127
15, 51744, Note_on_c, 11, 76, 29
15, 51753, Control_c, 11, 11, 126
15, 51762, Control_c, 11, 11, 125
15, 51771, Control_c, 11, 11, 124
15, 51780, Control_c, 11, 11, 123
15, 51789, Control_c, 11, 11, 122
15, 51798, Control_c, 11, 11, 121
15, 51808, Control_c, 11, 11, 120
15, 51817, Control_c, 11, 11, 119
15, 51826, Control_c, 11, 11, 118
15, 51835, Control_c, 11, 11, 117
15, 51844, Control_c, 11, 11, 116
15, 51853, Control_c, 11, 11, 115
15, 51862, Control_c, 11, 11, 114
15, 51872, Control_c, 11, 11, 113
15, 51881, Control_c, 11, 11, 112
15, 51890, Control_c, 11, 11, 111
15, 51899, Control_c, 11, 11, 110
15, 51908, Control_c, 11, 11, 109
15, 51917, Control_c, 11, 11, 108
15, 51926, Control_c, 11, 11, 107
15, 51936, Note_on_c, 11, 76, 0
15, 51936, Control_c, 11, 11, 106
15, 51936, Note_on_c, 11, 71, 35
15, 51945, Control_c, 11, 11, 105
15, 51954, Control_c, 11, 11, 104
15, 51963, Control_c, 11, 11, 103
15, 51972, Control_c, 11, 11, 102
15, 51981, Control_c, 11, 11, 101
15, 51990, Control_c, 11, 11, 100
15, 52000, Control_c, 11, 11, 99
15, 52009, Control_c, 11, 11, 98
15, 52018, Control_c, 11, 11, 97
15, 52027, Control_c, 11, 11, 96
15, 52036, Control_c, 11, 11, 95
15, 52045, Control_c, 11, 11, 94
15, 52054, Control_c, 11, 11, 93
15, 52064, Control_c, 11, 11, 92
15, 52073, Control_c, 11, 11, 91
15, 52082, Control_c, 11, 11, 90
15, 52091, Control_c, 11, 11, 89
15, 52100, Control_c, 11, 11, 88
15, 52109, Control_c, 11, 11, 87
15, 52118, Control_c, 11, 11, 86
15, 52128, Note_on_c, 11, 71, 0
15, 52128, Control_c, 11, 11, 85
15, 52128, Note_on_c, 11, 69, 32
15, 52137, Control_c, 11, 11, 84
15, 52146, Control_c, 11, 11, 83
15, 52155, Control_c, 11, 11, 82
15, 52164, Control_c, 11, 11, 81
15, 52173, Control_c, 11, 11, 80
15, 52182, Control_c, 11, 11, 79
15, 52192, Control_c, 11, 11, 78
15, 52201, Control_c, 11, 11, 77
15, 52210, Control_c, 11, 11, 76
15, 52219, Control_c, 11, 11, 75
15, 52228, Control_c, 11, 11, 74
15, 52237, Control_c, 11, 11, 73
15, 52246, Control_c, 11, 11, 72
15, 52256, Control_c, 11, 11, 71
15, 52265, Control_c, 11, 11, 70
15, 52274, Control_c, 11, 11, 69
15, 52283, Control_c, 11, 11, 68
15, 52292, Control_c, 11, 11, 67
15, 52301, Control_c, 11, 11, 66
15, 52310, Control_c, 11, 11, 65
15, 52320, Control_c, 11, 11, 64
15, 52704, Note_on_c, 11, 69, 0
15, 52704, Control_c, 11, 11, 127
15, 52704, Program_c, 11, 45
15, 52704, Control_c, 11, 1, 0
15, 52704, Note_on_c, 11, 67, 74
15, 52800, Note_on_c, 11, 67, 0
15, 52800, Note_on_c, 11, 62, 91
15, 52824, Note_on_c, 11, 70, 90
15, 52848, Note_on_c, 11, 76, 93
15, 52896, Note_on_c, 11, 62, 0
15, 52896, Note_on_c, 11, 70, 0
15, 52896, Note_on_c, 11, 76, 0
15, 53856, Program_c, 11, 48
15, 54048, Note_on_c, 11, 82, 33
15, 54072, Note_on_c, 11, 82, 0
15, 54072, Note_on_c, 11, 84, 34
15, 54096, Note_on_c, 11, 84, 0
15, 54096, Note_on_c, 11, 82, 30
15, 54120, Note_on_c, 11, 82, 0
15, 54120, Note_on_c, 11, 81, 28
15, 54144, Note_on_c, 11, 81, 0
15, 54144, Note_on_c, 11, 81, 34
15, 54168, Note_on_c, 11, 81, 0
15, 54168, Note_on_c, 11, 82, 30
15, 54192, Note_on_c, 11, 82, 0
15, 54192, Note_on_c, 11, 82, 34
15, 54216, Note_on_c, 11, 82, 0
15, 54216, Note_on_c, 11, 79, 35
15, 54240, Note_on_c, 11, 79, 0
15, 54624, Note_on_c, 11, 82, 34
15, 54648, Note_on_c, 11, 82, 0
15, 54648, Note_on_c, 11, 84, 27
15, 54672, Note_on_c, 11, 84, 0
15, 54672, Note_on_c, 11, 82, 28
15, 54696, Note_on_c, 11, 82, 0
15, 54696, Note_on_c, 11, 81, 31
15, 54720, Note_on_c, 11, 81, 0
15, 54720, Note_on_c, 11, 81, 32
15, 54744, Note_on_c, 11, 81, 0
15, 54744, Note_on_c, 11, 82, 32
15, 54768, Note_on_c, 11, 82, 0
15, 54768, Note_on_c, 11, 82, 26
15, 54792, Note_on_c, 11, 82, 0
15, 54792, Note_on_c, 11, 79, 28
15, 54816, Note_on_c, 11, 79, 0
15, 55200, Note_on_c, 11, 82, 25
15, 55224, Note_on_c, 11, 82, 0
15, 55224, Note_on_c, 11, 84, 32
15, 55248, Note_on_c, 11, 84, 0
15, 55248, Note_on_c, 11, 82, 28
15, 55272, Note_on_c, 11, 82, 0
15, 55272, Note_on_c, 11, 81, 33
15, 55296, Note_on_c, 11, 81, 0
15, 55296, Note_on_c, 11, 81, 27
15, 55320, Note_on_c, 11, 81, 0
15, 55320, Note_on_c, 11, 82, 25
15, 55344, Note_on_c, 11, 82, 0
15, 55344, Note_on_c, 11, 82, 33
15, 55368, Note_on_c, 11, 82, 0
15, 55368, Note_on_c, 11, 79, 34
15, 55392, Note_on_c, 11, 79, 0
15, 55776, Note_on_c, 11, 82, 25
15, 55800, Note_on_c, 11, 82, 0
15, 55800, Note_on_c, 11, 84, 28
15, 55824, Note_on_c, 11, 84, 0
15, 55824, Note_on_c, 11, 82, 32
15, 55848, Note_on_c, 11, 82, 0
15, 55848, Note_on_c, 11, 81, 27
15, 55872, Note_on_c, 11, 81, 0
15, 55872, Note_on_c, 11, 81, 26
15, 55896, Note_on_c, 11, 81, 0
15, 55896, Note_on_c, 11, 82, 30
15, 55920, Note_on_c, 11, 82, 0
15, 55920, Note_on_c, 11, 82, 32
15, 55944, Note_on_c, 11, 82, 0
15, 55944, Note_on_c, 11, 79, 32
15, 55968, Note_on_c, 11, 79, 0
15, 56352, Note_on_c, 11, 82, 29
15, 56376, Note_on_c, 11, 82, 0
15, 56376, Note_on_c, 11, 84, 28
15, 56400, Note_on_c, 11, 84, 0
15, 56400, Note_on_c, 11, 82, 30
15, 56424, Note_on_c, 11, 82, 0
15, 56424, Note_on_c, 11, 81, 34
15, 56448, Note_on_c, 11, 81, 0
15, 56448, Note_on_c, 11, 81, 26
15, 56472, Note_on_c, 11, 81, 0
15, 56472, Note_on_c, 11, 82, 34
15, 56496, Note_on_c, 11, 82, 0
15, 56496, Note_on_c, 11, 82, 35
15, 56520, Note_on_c, 11, 82, 0
15, 56520, Note_on_c, 11, 79, 31
15, 56544, Note_on_c, 11, 79, 0
15, 56928, Note_on_c, 11, 82, 31
15, 56952, Note_on_c, 11, 82, 0
15, 56952, Note_on_c, 11, 84, 25
15, 56976, Note_on_c, 11, 84, 0
15, 56976, Note_on_c, 11, 82, 34
15, 57000, Note_on_c, 11, 82, 0
15, 57000, Note_on_c, 11, 81, 27
15, 57024, Note_on_c, 11, 81, 0
15, 57024, Note_on_c, 11, 81, 35
15, 57048, Note_on_c, 11, 81, 0
15, 57048, Note_on_c, 11, 82, 35
15, 57072, Note_on_c, 11, 82, 0
15, 57072, Note_on_c, 11, 82, 29
15, 57096, Note_on_c, 11, 82, 0
15, 57096, Note_on_c, 11, 79, 26
15, 57120, Note_on_c, 11, 79, 0
15, 58656, Note_on_c, 11, 83, 79
15, 58677, Note_on_c, 11, 83, 0
15, 58688, Note_on_c, 11, 83, 74
15, 58709, Note_on_c, 11, 83, 0
15, 58720, Note_on_c, 11, 83, 81
15, 58741, Note_on_c, 11, 83, 0
15, 58752, Note_on_c, 11, 81, 80
15, 58773, Note_on_c, 11, 81, 0
15, 58784, Note_on_c, 11, 81, 77
15, 58805, Note_on_c, 11, 81, 0
15, 58816, Note_on_c, 11, 81, 78
15, 58837, Note_on_c, 11, 81, 0
15, 58848, Note_on_c, 11, 81, 75
15, 58869, Note_on_c, 11, 81, 0
15, 58880, Note_on_c, 11, 81, 86
15, 58901, Note_on_c, 11, 81, 0
15, 58912, Note_on_c, 11, 81, 87
15, 58933, Note_on_c, 11, 81, 0
15, 58944, Note_on_c, 11, 78, 88
15, 58965, Note_on_c, 11, 78, 0
15, 58976, Note_on_c, 11, 78, 92
15, 58997, Note_on_c, 11, 78, 0
15, 59008, Note_on_c, 11, 78, 95
15, 59029, Note_on_c, 11, 78, 0
15, 59040, Note_on_c, 11, 83, 95
15, 59061, Note_on_c, 11, 83, 0
15, 59072, Note_on_c, 11, 83, 92
15, 59093, Note_on_c, 11, 83, 0
15, 59104, Note_on_c, 11, 83, 93
15, 59125, Note_on_c, 11, 83, 0
15, 59136, Note_on_c, 11, 81, 92
15, 59157, Note_on_c, 11, 81, 0
15, 59168, Note_on_c, 11, 81, 90
15, 59189, Note_on_c, 11, 81, 0
15, 59200, Note_on_c, 11, 81, 94
15, 59221, Note_on_c, 11, 81, 0
15, 59232, Note_on_c, 11, 80, 91
15, 59253, Note_on_c, 11, 80, 0
15, 59264, Note_on_c, 11, 80, 96
15, 59285, Note_on_c, 11, 80, 0
15, 59296, Note_on_c, 11, 80, 91
15, 59317, Note_on_c, 11, 80, 0
15, 59328, Note_on_c, 11, 78, 94
15, 59349, Note_on_c, 11, 78, 0
15, 59360, Note_on_c, 11, 78, 90
15, 59381, Note_on_c, 11, 78, 0
15, 59392, Note_on_c, 11, 78, 92
15, 59413, Note_on_c, 11, 78, 0
15, 59424, Note_on_c, 11, 83, 94
15, 59445, Note_on_c, 11, 83, 0
15, 59456, Note_on_c, 11, 83, 97
15, 59477, Note_on_c, 11, 83, 0
15, 59488, Note_on_c, 11, 83, 97
15, 59509, Note_on_c, 11, 83, 0
15, 59520, Note_on_c, 11, 81, 97
15, 59541, Note_on_c, 11, 81, 0
15, 59552, Note_on_c, 11, 81, 89
15, 59573, Note_on_c, 11, 81, 0
15, 59584, Note_on_c, 11, 81, 88
15, 59605, Note_on_c, 11, 81, 0
15, 61344, Program_c, 11, 44
15, 61536, Control_c, 11, 11, 92
15, 61536, Note_on_c, 11, 88, 46
15, 61541, Control_c, 11, 11, 93
15, 61546, Control_c, 11, 11, 94
15, 61552, Control_c, 11, 11, 95
15, 61557, Control_c, 11, 11, 96
15, 61563, Control_c, 11, 11, 97
15, 61568, Control_c, 11, 11, 98
15, 61574, Control_c, 11, 11, 99
15, 61579, Control_c, 11, 11, 100
15, 61585, Control_c, 11, 11, 101
15, 61590, Control_c, 11, 11, 102
15, 61596, Control_c, 11, 11, 103
15, 61601, Control_c, 11, 11, 104
15, 61607, Control_c, 11, 11, 105
15, 61612, Control_c, 11, 11, 106
15, 61618, Control_c, 11, 11, 107
15, 61623, Control_c, 11, 11, 108
15, 61629, Control_c, 11, 11, 109
15, 61634, Control_c, 11, 11, 110
15, 61640, Control_c, 11, 11, 111
15, 61645, Control_c, 11, 11, 112
15, 61651, Control_c, 11, 11, 113
15, 61656, Control_c, 11, 11, 114
15, 61662, Control_c, 11, 11, 115
15, 61667, Control_c, 11, 11, 116
15, 61673, Control_c, 11, 11, 117
15, 61678, Control_c, 11, 11, 118
15, 61684, Control_c, 11, 11, 119
15, 61689, Control_c, 11, 11, 120
15, 61695, Control_c, 11, 11, 121
15, 61700, Control_c, 11, 11, 122
15, 61706, Control_c, 11, 11, 123
15, 61711, Control_c, 11, 11, 124
15, 61717, Control_c, 11, 11, 125
15, 61722, Control_c, 11, 11, 126
15, 61728, Note_on_c, 11, 88, 0
15, 61728, Control_c, 11, 11, 127
15, 61728, Note_on_c, 11, 90, 43
15, 61920, Note_on_c, 11, 90, 0
15, 62688, Control_c, 11, 11, 92
15, 62688, Note_on_c, 11, 88, 42
15, 62693, Control_c, 11, 11, 93
15, 62698, Control_c, 11, 11, 94
15, 62704, Control_c, 11, 11, 95
15, 62709, Control_c, 11, 11, 96
15, 62715, Control_c, 11, 11, 97
15, 62720, Control_c, 11, 11, 98
15, 62726, Control_c, 11, 11, 99
15, 62731, Control_c, 11, 11, 100
15, 62737, Control_c, 11, 11, 101
15, 62742, Control_c, 11, 11, 102
15, 62748, Control_c, 11, 11, 103
15, 62753, Control_c, 11, 11, 104
15, 62759, Control_c, 11, 11, 105
15, 62764, Control_c, 11, 11, 106
15, 62770, Control_c, 11, 11, 107
15, 62775, Control_c, 11, 11, 108
15, 62781, Control_c, 11, 11, 109
15, 62786, Control_c, 11, 11, 110
15, 62792, Control_c, 11, 11, 111
15, 62797, Control_c, 11, 11, 112
15, 62803, Control_c, 11, 11, 113
15, 62808, Control_c, 11, 11, 114
15, 62814, Control_c, 11, 11, 115
15, 62819, Control_c, 11, 11, 116
15, 62825, Control_c, 11, 11, 117
15, 62830, Control_c, 11, 11, 118
15, 62836, Control_c, 11, 11, 119
15, 62841, Control_c, 11, 11, 120
15, 62847, Control_c, 11, 11, 121
15, 62852, Control_c, 11, 11, 122
15, 62858, Control_c, 11, 11, 123
15, 62863, Control_c, 11, 11, 124
15, 62869, Control_c, 11, 11, 125
15, 62874, Control_c, 11, 11, 126
15, 62880, Note_on_c, 11, 88, 0
15, 62880, Control_c, 11, 11, 127
15, 62880, Note_on_c, 11, 90, 42
15, 63072, Note_on_c, 11, 90, 0
15, 63072, Note_on_c, 11, 95, 29
15, 63264, Note_on_c, 11, 95, 0
15, 63264, Note_on_c, 11, 93, 32
15, 63456, Note_on_c, 11, 93, 0
15, 63456, Note_on_c, 11, 88, 32
15, 63648, Note_on_c, 11, 88, 0
15, 63648, Note_on_c, 11, 83, 25
15, 63840, Note_on_c, 11, 83, 0
15, 63840, Note_on_c, 11, 81, 30
15, 64032, Note_on_c, 11, 81, 0
15, 64032, Note_on_c, 11, 76, 32
15, 64224, Note_on_c, 11, 76, 0
15, 64224, Program_c, 11, 48
15, 64224, Note_on_c, 11, 57, 45
15, 64248, Note_on_c, 11, 57, 0
15, 64248, Note_on_c, 11, 59, 43
15, 64272, Note_on_c, 11, 59, 0
15, 64272, Note_on_c, 11, 57, 45
15, 64296, Note_on_c, 11, 57, 0
15, 64296, Note_on_c, 11, 59, 47
15, 64320, Note_on_c, 11, 59, 0
15, 64320, Note_on_c, 11, 57, 55
15, 64344, Note_on_c, 11, 57, 0
15, 64344, Note_on_c, 11, 59, 50
15, 64368, Note_on_c, 11, 59, 0
15, 64368, Note_on_c, 11, 57, 59
15, 64392, Note_on_c, 11, 57, 0
15, 64392, Note_on_c, 11, 59, 58
15, 64416, Note_on_c, 11, 59, 0
15, 64416, Note_on_c, 11, 61, 64
15, 64440, Note_on_c, 11, 61, 0
15, 64440, Note_on_c, 11, 63, 65
15, 64464, Note_on_c, 11, 63, 0
15, 64464, Note_on_c, 11, 61, 68
15, 64488, Note_on_c, 11, 61, 0
15, 64488, Note_on_c, 11, 63, 60
15, 64512, Note_on_c, 11, 63, 0
15, 64512, Note_on_c, 11, 61, 63
15, 64536, Note_on_c, 11, 61, 0
15, 64536, Note_on_c, 11, 63, 67
15, 64560, Note_on_c, 11, 63, 0
15, 64560, Note_on_c, 11, 61, 67
15, 64584, Note_on_c, 11, 61, 0
15, 64584, Note_on_c, 11, 63, 68
15, 64608, Note_on_c, 11, 63, 0
15, 64608, Note_on_c, 11, 65, 79
15, 64704, Note_on_c, 11, 65, 0
15, 64800, Program_c, 11, 45
15, 64800, Note_on_c, 11, 68, 79
15, 64896, Note_on_c, 11, 68, 0
15, 65184, Note_on_c, 11, 63, 79
15, 65280, Note_on_c, 11, 63, 0
15, 65376, Program_c, 11, 48
15, 65376, Note_on_c, 11, 80, 97
15, 65400, Note_on_c, 11, 80, 0
15, 65400, Note_on_c, 11, 82, 90
15, 65424, Note_on_c, 11, 82, 0
15, 65424, Note_on_c, 11, 83, 89
15, 65448, Note_on_c, 11, 83, 0
15, 65448, Note_on_c, 11, 85, 94
15, 65472, Note_on_c, 11, 85, 0
15, 65472, Note_on_c, 11, 87, 97
15, 65496, Note_on_c, 11, 87, 0
15, 65496, Note_on_c, 11, 89, 96
15, 65520, Note_on_c, 11, 89, 0
15, 65520, Note_on_c, 11, 90, 102
15, 65544, Note_on_c, 11, 90, 0
15, 65544, Note_on_c, 11, 92, 110
15, 65568, Note_on_c, 11, 92, 0
15, 65568, Note_on_c, 11, 94, 103
15, 65952, Control_c, 11, 11, 127
15, 65962, Control_c, 11, 11, 126
15, 65973, Control_c, 11, 11, 125
15, 65984, Control_c, 11, 11, 124
15, 65995, Control_c, 11, 11, 123
15, 66005, Control_c, 11, 11, 122
15, 66016, Control_c, 11, 11, 121
15, 66027, Control_c, 11, 11, 120
15, 66038, Control_c, 11, 11, 119
15, 66048, Control_c, 11, 11, 118
15, 66059, Control_c, 11, 11, 117
15, 66070, Control_c, 11, 11, 116
15, 66081, Control_c, 11, 11, 115
15, 66091, Control_c, 11, 11, 114
15, 66102, Control_c, 11, 11, 113
15, 66113, Control_c, 11, 11, 112
15, 66124, Control_c, 11, 11, 111
15, 66135, Control_c, 11, 11, 110
15, 66145, Control_c, 11, 11, 109
15, 66156, Control_c, 11, 11, 108
15, 66167, Control_c, 11, 11, 107
15, 66178, Control_c, 11, 11, 106
15, 66188, Control_c, 11, 11, 105
15, 66199, Control_c, 11, 11, 104
15, 66210, Control_c, 11, 11, 103
15, 66221, Control_c, 11, 11, 102
15, 66231, Control_c, 11, 11, 101
15, 66242, Control_c, 11, 11, 100
15, 66253, Control_c, 11, 11, 99
15, 66264, Control_c, 11, 11, 98
15, 66274, Control_c, 11, 11, 97
15, 66285, Control_c, 11, 11, 96
15, 66296, Control_c, 11, 11, 95
15, 66307, Control_c, 11, 11, 94
15, 66318, Control_c, 11, 11, 93
15, 66328, Control_c, 11, 11, 92
15, 66339, Control_c, 11, 11, 91
15, 66350, Control_c, 11, 11, 90
15, 66361, Control_c, 11, 11, 89
15, 66371, Control_c, 11, 11, 88
15, 66382, Control_c, 11, 11, 87
15, 66393, Control_c, 11, 11, 86
15, 66404, Control_c, 11, 11, 85
15, 66414, Control_c, 11, 11, 84
15, 66425, Control_c, 11, 11, 83
15, 66436, Control_c, 11, 11, 82
15, 66447, Control_c, 11, 11, 81
15, 66458, Control_c, 11, 11, 80
15, 66468, Control_c, 11, 11, 79
15, 66479, Control_c, 11, 11, 78
15, 66490, Control_c, 11, 11, 77
15, 66501, Control_c, 11, 11, 76
15, 66511, Control_c, 11, 11, 75
15, 66522, Control_c, 11, 11, 74
15, 66533, Control_c, 11, 11, 73
15, 66544, Control_c, 11, 11, 72
15, 66554, Control_c, 11, 11, 71
15, 66565, Control_c, 11, 11, 70
15, 66576, Control_c, 11, 11, 69
15, 66587, Control_c, 11, 11, 68
15, 66597, Control_c, 11, 11, 67
15, 66608, Control_c, 11, 11, 66
15, 66619, Control_c, 11, 11, 65
15, 66630, Control_c, 11, 11, 64
15, 66641, Control_c, 11, 11, 63
15, 66651, Control_c, 11, 11, 62
15, 66662, Control_c, 11, 11, 61
15, 66673, Control_c, 11, 11, 60
15, 66684, Control_c, 11, 11, 59
15, 66694, Control_c, 11, 11, 58
15, 66705, Control_c, 11, 11, 57
15, 66716, Control_c, 11, 11, 56
15, 66727, Control_c, 11, 11, 55
15, 66737, Control_c, 11, 11, 54
15, 66748, Control_c, 11, 11, 53
15, 66759, Control_c, 11, 11, 52
15, 66770, Control_c, 11, 11, 51
15, 66781, Control_c, 11, 11, 50
15, 66791, Control_c, 11, 11, 49
15, 66802, Control_c, 11, 11, 48
15, 66813, Control_c, 11, 11, 47
15, 66824, Control_c, 11, 11, 46
15, 66834, Control_c, 11, 11, 45
15, 66845, Control_c, 11, 11, 44
15, 66856, Control_c, 11, 11, 43
15, 66867, Control_c, 11, 11, 42
15, 66877, Control_c, 11, 11, 41
15, 66888, Control_c, 11, 11, 40
15, 66899, Control_c, 11, 11, 39
15, 66910, Control_c, 11, 11, 38
15, 66920, Control_c, 11, 11, 37
15, 66931, Control_c, 11, 11, 36
15, 66942, Control_c, 11, 11, 35
15, 66953, Control_c, 11, 11, 34
15, 66964, Control_c, 11, 11, 33
15, 66974, Control_c, 11, 11, 32
15, 66985, Control_c, 11, 11, 31
15, 66996, Control_c, 11, 11, 30
15, 67007, Control_c, 11, 11, 29
15, 67017, Control_c, 11, 11, 28
15, 67028, Control_c, 11, 11, 27
15, 67039, Control_c, 11, 11, 26
15, 67050, Control_c, 11, 11, 25
15, 67060, Control_c, 11, 11, 24
15, 67071, Control_c, 11, 11, 23
15, 67082, Control_c, 11, 11, 22
15, 67093, Control_c, 11, 11, 21
15, 67104, Control_c, 11, 11, 20
15, 67296, Note_on_c, 11, 94, 0
15, 67680, Program_c, 11, 45
15, 67680, Control_c, 11, 11, 127
15, 68064, Program_c, 11, 45
15, 68064, Note_on_c, 11, 62, 92
15, 68256, Note_on_c, 11, 62, 0
15, 68448, Note_on_c, 11, 62, 87
15, 68640, Note_on_c, 11, 62, 0
15, 69024, Note_on_c, 11, 62, 71
15, 69216, Note_on_c, 11, 62, 0
15, 69600, Note_on_c, 11, 62, 40
15, 69792, Note_on_c, 11, 62, 0
15, 71136, Program_c, 11, 44
15, 71136, Note_on_c, 11, 91, 31
15, 71328, Note_on_c, 11, 91, 0
15, 71328, Note_on_c, 11, 88, 32
15, 71520, Note_on_c, 11, 88, 0
15, 71520, Note_on_c, 11, 91, 31
15, 71712, Note_on_c, 11, 91, 0
15, 71712, Note_on_c, 11, 88, 33
15, 71904, Note_on_c, 11, 88, 0
15, 71904, Note_on_c, 11, 91, 33
15, 72096, Note_on_c, 11, 91, 0
15, 72096, Note_on_c, 11, 93, 28
15, 72288, Note_on_c, 11, 93, 0
15, 72288, Program_c, 11, 45
15, 72480, Note_on_c, 11, 62, 91
15, 72672, Note_on_c, 11, 62, 0
15, 73056, Note_on_c, 11, 62, 49
15, 73248, Note_on_c, 11, 62, 0
15, 74016, Program_c, 11, 48
15, 74592, Note_on_c, 11, 88, 30
15, 74616, Note_on_c, 11, 88, 0
15, 74616, Note_on_c, 11, 90, 33
15, 74640, Note_on_c, 11, 90, 0
15, 74640, Note_on_c, 11, 88, 30
15, 74664, Note_on_c, 11, 88, 0
15, 74664, Note_on_c, 11, 90, 28
15, 74688, Note_on_c, 11, 90, 0
15, 74688, Note_on_c, 11, 88, 30
15, 74712, Note_on_c, 11, 88, 0
15, 74712, Note_on_c, 11, 90, 26
15, 74736, Note_on_c, 11, 90, 0
15, 74736, Note_on_c, 11, 88, 30
15, 74760, Note_on_c, 11, 88, 0
15, 74760, Note_on_c, 11, 90, 33
15, 74784, Note_on_c, 11, 90, 0
15, 74784, Note_on_c, 11, 87, 28
15, 74808, Note_on_c, 11, 87, 0
15, 74808, Note_on_c, 11, 89, 29
15, 74832, Note_on_c, 11, 89, 0
15, 74832, Note_on_c, 11, 87, 33
15, 74856, Note_on_c, 11, 87, 0
15, 74856, Note_on_c, 11, 89, 34
15, 74880, Note_on_c, 11, 89, 0
15, 74880, Note_on_c, 11, 87, 25
15, 74904, Note_on_c, 11, 87, 0
15, 74904, Note_on_c, 11, 89, 28
15, 74928, Note_on_c, 11, 89, 0
15, 74928, Note_on_c, 11, 87, 27
15, 74952, Note_on_c, 11, 87, 0
15, 74952, Note_on_c, 11, 89, 32
15, 74976, Note_on_c, 11, 89, 0
15, 74976, Note_on_c, 11, 86, 29
15, 75008, Note_on_c, 11, 86, 0
15, 75072, Note_on_c, 11, 90, 34
15, 75104, Note_on_c, 11, 90, 0
15, 75168, Note_on_c, 11, 85, 29
15, 75264, Note_on_c, 11, 85, 0
15, 75360, Program_c, 11, 45
15, 75360, Note_on_c, 11, 65, 34
15, 75360, Note_on_c, 11, 73, 33
15, 75360, Note_on_c, 11, 81, 25
15, 75456, Note_on_c, 11, 65, 0
15, 75456, Note_on_c, 11, 73, 0
15, 75456, Note_on_c, 11, 81, 0
15, 75744, Program_c, 11, 48
15, 75744, Note_on_c, 11, 88, 31
15, 75768, Note_on_c, 11, 88, 0
15, 75768, Note_on_c, 11, 90, 30
15, 75792, Note_on_c, 11, 90, 0
15, 75792, Note_on_c, 11, 88, 33
15, 75816, Note_on_c, 11, 88, 0
15, 75816, Note_on_c, 11, 90, 29
15, 75840, Note_on_c, 11, 90, 0
15, 75840, Note_on_c, 11, 88, 32
15, 75864, Note_on_c, 11, 88, 0
15, 75864, Note_on_c, 11, 90, 35
15, 75888, Note_on_c, 11, 90, 0
15, 75888, Note_on_c, 11, 88, 30
15, 75912, Note_on_c, 11, 88, 0
15, 75912, Note_on_c, 11, 90, 29
15, 75936, Note_on_c, 11, 90, 0
15, 75936, Note_on_c, 11, 87, 26
15, 75960, Note_on_c, 11, 87, 0
15, 75960, Note_on_c, 11, 89, 34
15, 75984, Note_on_c, 11, 89, 0
15, 75984, Note_on_c, 11, 87, 25
15, 76008, Note_on_c, 11, 87, 0
15, 76008, Note_on_c, 11, 89, 33
15, 76032, Note_on_c, 11, 89, 0
15, 76032, Note_on_c, 11, 87, 25
15, 76056, Note_on_c, 11, 87, 0
15, 76056, Note_on_c, 11, 89, 33
15, 76080, Note_on_c, 11, 89, 0
15, 76080, Note_on_c, 11, 87, 28
15, 76104, Note_on_c, 11, 87, 0
15, 76104, Note_on_c, 11, 89, 27
15, 76128, Note_on_c, 11, 89, 0
15, 76128, Note_on_c, 11, 86, 31
15, 76160, Note_on_c, 11, 86, 0
15, 76224, Note_on_c, 11, 90, 26
15, 76256, Note_on_c, 11, 90, 0
15, 76320, Note_on_c, 11, 81, 29
15, 76320, Note_on_c, 11, 85, 28
15, 76352, Note_on_c, 11, 81, 0
15, 76352, Note_on_c, 11, 85, 0
15, 76416, Note_on_c, 11, 80, 26
15, 76416, Note_on_c, 11, 84, 26
15, 76448, Note_on_c, 11, 80, 0
15, 76448, Note_on_c, 11, 84, 0
15, 76448, Note_on_c, 11, 79, 33
15, 76448, Note_on_c, 11, 83, 30
15, 76480, Note_on_c, 11, 79, 0
15, 76480, Note_on_c, 11, 83, 0
15, 76480, Note_on_c, 11, 82, 32
15, 76480, Note_on_c, 11, 86, 25
15, 76512, Note_on_c, 11, 82, 0
15, 76512, Note_on_c, 11, 86, 0
15, 76512, Note_on_c, 11, 81, 29
15, 76512, Note_on_c, 11, 85, 30
15, 76544, Note_on_c, 11, 81, 0
15, 76544, Note_on_c, 11, 85, 0
15, 76704, Program_c, 11, 45
15, 76704, Note_on_c, 11, 76, 42
15, 76704, Note_on_c, 11, 80, 42
15, 76800, Note_on_c, 11, 76, 0
15, 76800, Note_on_c, 11, 80, 0
15, 76800, Note_on_c, 11, 72, 56
15, 76800, Note_on_c, 11, 76, 62
15, 76896, Note_on_c, 11, 72, 0
15, 76896, Note_on_c, 11, 76, 0
15, 77088, Note_on_c, 11, 64, 48
15, 77088, Note_on_c, 11, 68, 40
15, 77184, Note_on_c, 11, 64, 0
15, 77184, Note_on_c, 11, 68, 0
15, 77184, Note_on_c, 11, 60, 55
15, 77184, Note_on_c, 11, 64, 60
15, 77280, Note_on_c, 11, 60, 0
15, 77280, Note_on_c, 11, 64, 0
15, 77472, Program_c, 11, 48
15, 78624, Note_on_c, 11, 82, 26
15, 78624, Note_on_c, 11, 86, 28
15, 78624, Note_on_c, 11, 91, 34
15, 78656, Note_on_c, 11, 82, 0
15, 78656, Note_on_c, 11, 86, 0
15, 78656, Note_on_c, 11, 91, 0
15, 78656, Note_on_c, 11, 84, 35
15, 78656, Note_on_c, 11, 88, 31
15, 78656, Note_on_c, 11, 93, 30
15, 78688, Note_on_c, 11, 84, 0
15, 78688, Note_on_c, 11, 88, 0
15, 78688, Note_on_c, 11, 93, 0
15, 78688, Note_on_c, 11, 82, 33
15, 78688, Note_on_c, 11, 86, 32
15, 78688, Note_on_c, 11, 91, 33
15, 78720, Note_on_c, 11, 82, 0
15, 78720, Note_on_c, 11, 86, 0
15, 78720, Note_on_c, 11, 91, 0
15, 78720, Note_on_c, 11, 79, 27
15, 78720, Note_on_c, 11, 82, 26
15, 78720, Note_on_c, 11, 88, 31
15, 78752, Note_on_c, 11, 79, 0
15, 78752, Note_on_c, 11, 82, 0
15, 78752, Note_on_c, 11, 88, 0
15, 78752, Note_on_c, 11, 81, 23
15, 78752, Note_on_c, 11, 84, 30
15, 78752, Note_on_c, 11, 89, 28
15, 78784, Note_on_c, 11, 81, 0
15, 78784, Note_on_c, 11, 84, 0
15, 78784, Note_on_c, 11, 89, 0
15, 78784, Note_on_c, 11, 79, 31
15, 78784, Note_on_c, 11, 82, 32
15, 78784, Note_on_c, 11, 88, 30
15, 78816, Note_on_c, 11, 79, 0
15, 78816, Note_on_c, 11, 82, 0
15, 78816, Note_on_c, 11, 88, 0
15, 78816, Note_on_c, 11, 77, 28
15, 78816, Note_on_c, 11, 81, 29
15, 78816, Note_on_c, 11, 86, 25
15, 78848, Note_on_c, 11, 77, 0
15, 78848, Note_on_c, 11, 81, 0
15, 78848, Note_on_c, 11, 86, 0
15, 78848, Note_on_c, 11, 79, 30
15, 78848, Note_on_c, 11, 82, 26
15, 78848, Note_on_c, 11, 88, 28
15, 78880, Note_on_c, 11, 79, 0
15, 78880, Note_on_c, 11, 82, 0
15, 78880, Note_on_c, 11, 88, 0
15, 78880, Note_on_c, 11, 77, 20
15, 78880, Note_on_c, 11, 81, 20
15, 78880, Note_on_c, 11, 86, 22
15, 78912, Note_on_c, 11, 77, 0
15, 78912, Note_on_c, 11, 81, 0
15, 78912, Note_on_c, 11, 86, 0
15, 78912, Note_on_c, 11, 74, 20
15, 78912, Note_on_c, 11, 77, 21
15, 78912, Note_on_c, 11, 82, 23
15, 78944, Note_on_c, 11, 74, 0
15, 78944, Note_on_c, 11, 77, 0
15, 78944, Note_on_c, 11, 82, 0
15, 78944, Note_on_c, 11, 76, 22
15, 78944, Note_on_c, 11, 79, 19
15, 78944, Note_on_c, 11, 84, 22
15, 78976, Note_on_c, 11, 76, 0
15, 78976, Note_on_c, 11, 79, 0
15, 78976, Note_on_c, 11, 84, 0
15, 78976, Note_on_c, 11, 74, 25
15, 78976, Note_on_c, 11, 77, 20
15, 78976, Note_on_c, 11, 82, 17
15, 79008, Note_on_c, 11, 74, 0
15, 79008, Note_on_c, 11, 77, 0
15, 79008, Note_on_c, 11, 82, 0
15, 79008, Note_on_c, 11, 70, 23
15, 79008, Note_on_c, 11, 73, 25
15, 79008, Note_on_c, 11, 79, 19
15, 79104, Note_on_c, 11, 70, 0
15, 79104, Note_on_c, 11, 73, 0
15, 79104, Note_on_c, 11, 79, 0
15, 79200, Note_on_c, 11, 82, 45
15, 79200, Note_on_c, 11, 86, 44
15, 79200, Note_on_c, 11, 91, 42
15, 79232, Note_on_c, 11, 82, 0
15, 79232, Note_on_c, 11, 86, 0
15, 79232, Note_on_c, 11, 91, 0
15, 79232, Note_on_c, 11, 84, 47
15, 79232, Note_on_c, 11, 88, 42
15, 79232, Note_on_c, 11, 93, 45
15, 79264, Note_on_c, 11, 84, 0
15, 79264, Note_on_c, 11, 88, 0
15, 79264, Note_on_c, 11, 93, 0
15, 79264, Note_on_c, 11, 82, 44
15, 79264, Note_on_c, 11, 86, 43
15, 79264, Note_on_c, 11, 91, 46
15, 79296, Note_on_c, 11, 82, 0
15, 79296, Note_on_c, 11, 86, 0
15, 79296, Note_on_c, 11, 91, 0
15, 79296, Note_on_c, 11, 79, 42
15, 79296, Note_on_c, 11, 82, 38
15, 79296, Note_on_c, 11, 88, 45
15, 79328, Note_on_c, 11, 79, 0
15, 79328, Note_on_c, 11, 82, 0
15, 79328, Note_on_c, 11, 88, 0
15, 79328, Note_on_c, 11, 81, 42
15, 79328, Note_on_c, 11, 84, 45
15, 79328, Note_on_c, 11, 89, 41
15, 79360, Note_on_c, 11, 81, 0
15, 79360, Note_on_c, 11, 84, 0
15, 79360, Note_on_c, 11, 89, 0
15, 79360, Note_on_c, 11, 79, 42
15, 79360, Note_on_c, 11, 82, 39
15, 79360, Note_on_c, 11, 88, 41
15, 79392, Note_on_c, 11, 79, 0
15, 79392, Note_on_c, 11, 82, 0
15, 79392, Note_on_c, 11, 88, 0
15, 79392, Note_on_c, 11, 77, 43
15, 79392, Note_on_c, 11, 81, 36
15, 79392, Note_on_c, 11, 86, 35
15, 79424, Note_on_c, 11, 77, 0
15, 79424, Note_on_c, 11, 81, 0
15, 79424, Note_on_c, 11, 86, 0
15, 79424, Note_on_c, 11, 79, 36
15, 79424, Note_on_c, 11, 82, 35
15, 79424, Note_on_c, 11, 88, 40
15, 79456, Note_on_c, 11, 79, 0
15, 79456, Note_on_c, 11, 82, 0
15, 79456, Note_on_c, 11, 88, 0
15, 79456, Note_on_c, 11, 77, 39
15, 79456, Note_on_c, 11, 81, 41
15, 79456, Note_on_c, 11, 86, 35
15, 79488, Note_on_c, 11, 77, 0
15, 79488, Note_on_c, 11, 81, 0
15, 79488, Note_on_c, 11, 86, 0
15, 79488, Note_on_c, 11, 74, 34
15, 79488, Note_on_c, 11, 77, 32
15, 79488, Note_on_c, 11, 82, 33
15, 79520, Note_on_c, 11, 74, 0
15, 79520, Note_on_c, 11, 77, 0
15, 79520, Note_on_c, 11, 82, 0
15, 79520, Note_on_c, 11, 76, 29
15, 79520, Note_on_c, 11, 79, 35
15, 79520, Note_on_c, 11, 84, 36
15, 79552, Note_on_c, 11, 76, 0
15, 79552, Note_on_c, 11, 79, 0
15, 79552, Note_on_c, 11, 84, 0
15, 79552, Note_on_c, 11, 74, 32
15, 79552, Note_on_c, 11, 77, 33
15, 79552, Note_on_c, 11, 82, 31
15, 79584, Note_on_c, 11, 74, 0
15, 79584, Note_on_c, 11, 77, 0
15, 79584, Note_on_c, 11, 82, 0
15, 79584, Note_on_c, 11, 70, 31
15, 79584, Note_on_c, 11, 73, 28
15, 79584, Note_on_c, 11, 79, 27
15, 79680, Note_on_c, 11, 70, 0
15, 79680, Note_on_c, 11, 73, 0
15, 79680, Note_on_c, 11, 79, 0
15, 79776, Note_on_c, 11, 82, 42
15, 79776, Note_on_c, 11, 86, 45
15, 79776, Note_on_c, 11, 91, 46
15, 79808, Note_on_c, 11, 82, 0
15, 79808, Note_on_c, 11, 86, 0
15, 79808, Note_on_c, 11, 91, 0
15, 79808, Note_on_c, 11, 84, 45
15, 79808, Note_on_c, 11, 88, 43
15, 79808, Note_on_c, 11, 93, 45
15, 79840, Note_on_c, 11, 84, 0
15, 79840, Note_on_c, 11, 88, 0
15, 79840, Note_on_c, 11, 93, 0
15, 79840, Note_on_c, 11, 82, 45
15, 79840, Note_on_c, 11, 86, 41
15, 79840, Note_on_c, 11, 91, 44
15, 79872, Note_on_c, 11, 82, 0
15, 79872, Note_on_c, 11, 86, 0
15, 79872, Note_on_c, 11, 91, 0
15, 79872, Note_on_c, 11, 79, 45
15, 79872, Note_on_c, 11, 82, 51
15, 79872, Note_on_c, 11, 88, 46
15, 79904, Note_on_c, 11, 79, 0
15, 79904, Note_on_c, 11, 82, 0
15, 79904, Note_on_c, 11, 88, 0
15, 79904, Note_on_c, 11, 81, 51
15, 79904, Note_on_c, 11, 84, 44
15, 79904, Note_on_c, 11, 89, 52
15, 79936, Note_on_c, 11, 81, 0
15, 79936, Note_on_c, 11, 84, 0
15, 79936, Note_on_c, 11, 89, 0
15, 79936, Note_on_c, 11, 79, 54
15, 79936, Note_on_c, 11, 82, 50
15, 79936, Note_on_c, 11, 88, 46
15, 79968, Note_on_c, 11, 79, 0
15, 79968, Note_on_c, 11, 82, 0
15, 79968, Note_on_c, 11, 88, 0
15, 79968, Note_on_c, 11, 77, 47
15, 79968, Note_on_c, 11, 81, 49
15, 79968, Note_on_c, 11, 86, 50
15, 80000, Note_on_c, 11, 77, 0
15, 80000, Note_on_c, 11, 81, 0
15, 80000, Note_on_c, 11, 86, 0
15, 80000, Note_on_c, 11, 79, 54
15, 80000, Note_on_c, 11, 82, 55
15, 80000, Note_on_c, 11, 88, 47
15, 80032, Note_on_c, 11, 79, 0
15, 80032, Note_on_c, 11, 82, 0
15, 80032, Note_on_c, 11, 88, 0
15, 80032, Note_on_c, 11, 77, 51
15, 80032, Note_on_c, 11, 81, 47
15, 80032, Note_on_c, 11, 86, 50
15, 80064, Note_on_c, 11, 77, 0
15, 80064, Note_on_c, 11, 81, 0
15, 80064, Note_on_c, 11, 86, 0
15, 80064, Note_on_c, 11, 74, 56
15, 80064, Note_on_c, 11, 77, 50
15, 80064, Note_on_c, 11, 82, 52
15, 80096, Note_on_c, 11, 74, 0
15, 80096, Note_on_c, 11, 77, 0
15, 80096, Note_on_c, 11, 82, 0
15, 80096, Note_on_c, 11, 76, 57
15, 80096, Note_on_c, 11, 79, 58
15, 80096, Note_on_c, 11, 84, 57
15, 80128, Note_on_c, 11, 76, 0
15, 80128, Note_on_c, 11, 79, 0
15, 80128, Note_on_c, 11, 84, 0
15, 80128, Note_on_c, 11, 74, 56
15, 80128, Note_on_c, 11, 77, 55
15, 80128, Note_on_c, 11, 82, 56
15, 80160, Note_on_c, 11, 74, 0
15, 80160, Note_on_c, 11, 77, 0
15, 80160, Note_on_c, 11, 82, 0
15, 80160, Note_on_c, 11, 70, 59
15, 80160, Note_on_c, 11, 73, 58
15, 80160, Note_on_c, 11, 79, 55
15, 80256, Note_on_c, 11, 70, 0
15, 80256, Note_on_c, 11, 73, 0
15, 80256, Note_on_c, 11, 79, 0
15, 80352, Note_on_c, 11, 82, 68
15, 80352, Note_on_c, 11, 86, 68
15, 80352, Note_on_c, 11, 91, 61
15, 80384, Note_on_c, 11, 82, 0
15, 80384, Note_on_c, 11, 86, 0
15, 80384, Note_on_c, 11, 91, 0
15, 80384, Note_on_c, 11, 84, 67
15, 80384, Note_on_c, 11, 88, 67
15, 80384, Note_on_c, 11, 93, 66
15, 80416, Note_on_c, 11, 84, 0
15, 80416, Note_on_c, 11, 88, 0
15, 80416, Note_on_c, 11, 93, 0
15, 80416, Note_on_c, 11, 82, 67
15, 80416, Note_on_c, 11, 86, 63
15, 80416, Note_on_c, 11, 91, 62
15, 80448, Note_on_c, 11, 82, 0
15, 80448, Note_on_c, 11, 86, 0
15, 80448, Note_on_c, 11, 91, 0
15, 80448, Note_on_c, 11, 79, 67
15, 80448, Note_on_c, 11, 82, 71
15, 80448, Note_on_c, 11, 88, 68
15, 80480, Note_on_c, 11, 79, 0
15, 80480, Note_on_c, 11, 82, 0
15, 80480, Note_on_c, 11, 88, 0
15, 80480, Note_on_c, 11, 81, 67
15, 80480, Note_on_c, 11, 84, 69
15, 80480, Note_on_c, 11, 89, 72
15, 80512, Note_on_c, 11, 81, 0
15, 80512, Note_on_c, 11, 84, 0
15, 80512, Note_on_c, 11, 89, 0
15, 80512, Note_on_c, 11, 79, 65
15, 80512, Note_on_c, 11, 82, 69
15, 80512, Note_on_c, 11, 88, 64
15, 80544, Note_on_c, 11, 79, 0
15, 80544, Note_on_c, 11, 82, 0
15, 80544, Note_on_c, 11, 88, 0
15, 80544, Note_on_c, 11, 77, 70
15, 80544, Note_on_c, 11, 81, 70
15, 80544, Note_on_c, 11, 86, 68
15, 80576, Note_on_c, 11, 77, 0
15, 80576, Note_on_c, 11, 81, 0
15, 80576, Note_on_c, 11, 86, 0
15, 80576, Note_on_c, 11, 79, 73
15, 80576, Note_on_c, 11, 82, 74
15, 80576, Note_on_c, 11, 88, 72
15, 80608, Note_on_c, 11, 79, 0
15, 80608, Note_on_c, 11, 82, 0
15, 80608, Note_on_c, 11, 88, 0
15, 80608, Note_on_c, 11, 77, 70
15, 80608, Note_on_c, 11, 81, 76
15, 80608, Note_on_c, 11, 86, 72
15, 80640, Note_on_c, 11, 77, 0
15, 80640, Note_on_c, 11, 81, 0
15, 80640, Note_on_c, 11, 86, 0
15, 80640, Note_on_c, 11, 74, 74
15, 80640, Note_on_c, 11, 77, 77
15, 80640, Note_on_c, 11, 82, 71
15, 80672, Note_on_c, 11, 74, 0
15, 80672, Note_on_c, 11, 77, 0
15, 80672, Note_on_c, 11, 82, 0
15, 80672, Note_on_c, 11, 76, 81
15, 80672, Note_on_c, 11, 79, 76
15, 80672, Note_on_c, 11, 84, 81
15, 80704, Note_on_c, 11, 76, 0
15, 80704, Note_on_c, 11, 79, 0
15, 80704, Note_on_c, 11, 84, 0
15, 80704, Note_on_c, 11, 74, 78
15, 80704, Note_on_c, 11, 77, 81
15, 80704, Note_on_c, 11, 82, 77
15, 80736, Note_on_c, 11, 74, 0
15, 80736, Note_on_c, 11, 77, 0
15, 80736, Note_on_c, 11, 82, 0
15, 80736, Note_on_c, 11, 70, 82
15, 80736, Note_on_c, 11, 73, 75
15, 80736, Note_on_c, 11, 79, 75
15, 80832, Note_on_c, 11, 70, 0
15, 80832, Note_on_c, 11, 73, 0
15, 80832, Note_on_c, 11, 79, 0
15, 80928, Note_on_c, 11, 92, 94
15, 80952, Note_on_c, 11, 92, 0
15, 80952, Note_on_c, 11, 93, 89
15, 80976, Note_on_c, 11, 93, 0
15, 80976, Note_on_c, 11, 92, 90
15, 81000, Note_on_c, 11, 92, 0
15, 81000, Note_on_c, 11, 93, 87
15, 81024, Note_on_c, 11, 93, 0
15, 81024, Note_on_c, 11, 92, 91
15, 81048, Note_on_c, 11, 92, 0
15, 81048, Note_on_c, 11, 93, 92
15, 81072, Note_on_c, 11, 93, 0
15, 81072, Note_on_c, 11, 92, 88
15, 81096, Note_on_c, 11, 92, 0
15, 81096, Note_on_c, 11, 93, 87
15, 81120, Note_on_c, 11, 93, 0
15, 81120, Note_on_c, 11, 92, 95
15, 81144, Note_on_c, 11, 92, 0
15, 81144, Note_on_c, 11, 93, 89
15, 81168, Note_on_c, 11, 93, 0
15, 81168, Note_on_c, 11, 92, 97
15, 81192, Note_on_c, 11, 92, 0
15, 81192, Note_on_c, 11, 93, 94
15, 81216, Note_on_c, 11, 93, 0
15, 81216, Note_on_c, 11, 92, 91
15, 81240, Note_on_c, 11, 92, 0
15, 81240, Note_on_c, 11, 93, 94
15, 81264, Note_on_c, 11, 93, 0
15, 81264, Note_on_c, 11, 92, 87
15, 81288, Note_on_c, 11, 92, 0
15, 81288, Note_on_c, 11, 93, 87
15, 81312, Note_on_c, 11, 93, 0
15, 81312, Note_on_c, 11, 92, 97
15, 81336, Note_on_c, 11, 92, 0
15, 81336, Note_on_c, 11, 93, 96
15, 81360, Note_on_c, 11, 93, 0
15, 81360, Note_on_c, 11, 92, 96
15, 81384, Note_on_c, 11, 92, 0
15, 81384, Note_on_c, 11, 93, 88
15, 81408, Note_on_c, 11, 93, 0
15, 81408, Note_on_c, 11, 92, 90
15, 81432, Note_on_c, 11, 92, 0
15, 81432, Note_on_c, 11, 93, 96
15, 81456, Note_on_c, 11, 93, 0
15, 81456, Note_on_c, 11, 92, 91
15, 81480, Note_on_c, 11, 92, 0
15, 81480, Note_on_c, 11, 93, 92
15, 81504, Note_on_c, 11, 93, 0
15, 81504, Note_on_c, 11, 92, 96
15, 81528, Note_on_c, 11, 92, 0
15, 81528, Note_on_c, 11, 93, 94
15, 81552, Note_on_c, 11, 93, 0
15, 81552, Note_on_c, 11, 92, 95
15, 81576, Note_on_c, 11, 92, 0
15, 81576, Note_on_c, 11, 93, 88
15, 81600, Note_on_c, 11, 93, 0
15, 81600, Note_on_c, 11, 92, 91
15, 81624, Note_on_c, 11, 92, 0
15, 81624, Note_on_c, 11, 93, 90
15, 81648, Note_on_c, 11, 93, 0
15, 81648, Note_on_c, 11, 92, 89
15, 81672, Note_on_c, 11, 92, 0
15, 81672, Note_on_c, 11, 93, 90
15, 81696, Note_on_c, 11, 93, 0
15, 81696, Note_on_c, 11, 92, 97
15, 81720, Note_on_c, 11, 92, 0
15, 81720, Note_on_c, 11, 93, 92
15, 81744, Note_on_c, 11, 93, 0
15, 81744, Note_on_c, 11, 92, 91
15, 81768, Note_on_c, 11, 92, 0
15, 81768, Note_on_c, 11, 93, 90
15, 81792, Note_on_c, 11, 93, 0
15, 81792, Note_on_c, 11, 92, 91
15, 81816, Note_on_c, 11, 92, 0
15, 81816, Note_on_c, 11, 93, 100
15, 81840, Note_on_c, 11, 93, 0
15, 81840, Note_on_c, 11, 92, 93
15, 81864, Note_on_c, 11, 92, 0
15, 81864, Note_on_c, 11, 93, 103
15, 81888, Note_on_c, 11, 93, 0
15, 81888, Note_on_c, 11, 92, 97
15, 81912, Note_on_c, 11, 92, 0
15, 81912, Note_on_c, 11, 93, 97
15, 81936, Note_on_c, 11, 93, 0
15, 81936, Note_on_c, 11, 92, 104
15, 81960, Note_on_c, 11, 92, 0
15, 81960, Note_on_c, 11, 93, 101
15, 81984, Note_on_c, 11, 93, 0
15, 81984, Note_on_c, 11, 92, 102
15, 82008, Note_on_c, 11, 92, 0
15, 82008, Note_on_c, 11, 93, 104
15, 82032, Note_on_c, 11, 93, 0
15, 82032, Note_on_c, 11, 92, 111
15, 82056, Note_on_c, 11, 92, 0
15, 82056, Note_on_c, 11, 93, 104
15, 82080, Note_on_c, 11, 93, 0
15, 82080, Note_on_c, 11, 92, 105
15, 82104, Note_on_c, 11, 92, 0
15, 82104, Note_on_c, 11, 94, 109
15, 82128, Note_on_c, 11, 94, 0
15, 82128, Note_on_c, 11, 92, 109
15, 82152, Note_on_c, 11, 92, 0
15, 82152, Note_on_c, 11, 94, 110
15, 82176, Note_on_c, 11, 94, 0
15, 82176, Note_on_c, 11, 92, 103
15, 82200, Note_on_c, 11, 92, 0
15, 82200, Note_on_c, 11, 94, 107
15, 82224, Note_on_c, 11, 94, 0
15, 82224, Note_on_c, 11, 92, 109
15, 82248, Note_on_c, 11, 92, 0
15, 82248, Note_on_c, 11, 94, 103
15, 82272, Note_on_c, 11, 94, 0
15, 82272, Note_on_c, 11, 92, 103
15, 82296, Note_on_c, 11, 92, 0
15, 82296, Note_on_c, 11, 94, 112
15, 82320, Note_on_c, 11, 94, 0
15, 82320, Note_on_c, 11, 92, 109
15, 82344, Note_on_c, 11, 92, 0
15, 82344, Note_on_c, 11, 94, 110
15, 82368, Note_on_c, 11, 94, 0
15, 82368, Note_on_c, 11, 92, 113
15, 82392, Note_on_c, 11, 92, 0
15, 82392, Note_on_c, 11, 94, 103
15, 82416, Note_on_c, 11, 94, 0
15, 82416, Note_on_c, 11, 92, 111
15, 82440, Note_on_c, 11, 92, 0
15, 82440, Note_on_c, 11, 94, 109
15, 82464, Note_on_c, 11, 94, 0
15, 82464, Note_on_c, 11, 92, 109
15, 82488, Note_on_c, 11, 92, 0
15, 82488, Note_on_c, 11, 94, 107
15, 82512, Note_on_c, 11, 94, 0
15, 82512, Note_on_c, 11, 92, 110
15, 82536, Note_on_c, 11, 92, 0
15, 82536, Note_on_c, 11, 94, 104
15, 82560, Note_on_c, 11, 94, 0
15, 82560, Note_on_c, 11, 92, 104
15, 82584, Note_on_c, 11, 92, 0
15, 82584, Note_on_c, 11, 94, 109
15, 82608, Note_on_c, 11, 94, 0
15, 82608, Note_on_c, 11, 92, 104
15, 82632, Note_on_c, 11, 92, 0
15, 82632, Note_on_c, 11, 94, 107
15, 82656, Note_on_c, 11, 94, 0
15, 82656, Note_on_c, 11, 92, 107
15, 82680, Note_on_c, 11, 92, 0
15, 82680, Note_on_c, 11, 94, 108
15, 82704, Note_on_c, 11, 94, 0
15, 82704, Note_on_c, 11, 92, 105
15, 82728, Note_on_c, 11, 92, 0
15, 82728, Note_on_c, 11, 94, 108
15, 82752, Note_on_c, 11, 94, 0
15, 82752, Note_on_c, 11, 92, 111
15, 82776, Note_on_c, 11, 92, 0
15, 82776, Note_on_c, 11, 94, 107
15, 82800, Note_on_c, 11, 94, 0
15, 82800, Note_on_c, 11, 92, 105
15, 82824, Note_on_c, 11, 92, 0
15, 82824, Note_on_c, 11, 94, 107
15, 82848, Note_on_c, 11, 94, 0
15, 82848, Note_on_c, 11, 92, 110
15, 82872, Note_on_c, 11, 92, 0
15, 82872, Note_on_c, 11, 94, 103
15, 82896, Note_on_c, 11, 94, 0
15, 82896, Note_on_c, 11, 92, 105
15, 82920, Note_on_c, 11, 92, 0
15, 82920, Note_on_c, 11, 94, 112
15, 82944, Note_on_c, 11, 94, 0
15, 82944, Note_on_c, 11, 92, 110
15, 82968, Note_on_c, 11, 92, 0
15, 82968, Note_on_c, 11, 94, 109
15, 82992, Note_on_c, 11, 94, 0
15, 82992, Note_on_c, 11, 92, 104
15, 83016, Note_on_c, 11, 92, 0
15, 83016, Note_on_c, 11, 94, 110
15, 83040, Note_on_c, 11, 94, 0
15, 83040, Note_on_c, 11, 92, 104
15, 83064, Note_on_c, 11, 92, 0
15, 83064, Note_on_c, 11, 94, 105
15, 83088, Note_on_c, 11, 94, 0
15, 83088, Note_on_c, 11, 92, 112
15, 83112, Note_on_c, 11, 92, 0
15, 83112, Note_on_c, 11, 94, 105
15, 83136, Note_on_c, 11, 94, 0
15, 83136, Note_on_c, 11, 92, 109
15, 83160, Note_on_c, 11, 92, 0
15, 83160, Note_on_c, 11, 94, 109
15, 83184, Note_on_c, 11, 94, 0
15, 83184, Note_on_c, 11, 92, 105
15, 83208, Note_on_c, 11, 92, 0
15, 83208, Note_on_c, 11, 94, 108
15, 83232, Note_on_c, 11, 94, 0
15, 83232, Note_on_c, 11, 92, 89
15, 83256, Note_on_c, 11, 92, 0
15, 83256, Note_on_c, 11, 93, 93
15, 83280, Note_on_c, 11, 93, 0
15, 83280, Note_on_c, 11, 92, 90
15, 83304, Note_on_c, 11, 92, 0
15, 83304, Note_on_c, 11, 93, 97
15, 83328, Note_on_c, 11, 93, 0
15, 83328, Note_on_c, 11, 92, 88
15, 83352, Note_on_c, 11, 92, 0
15, 83352, Note_on_c, 11, 93, 89
15, 83376, Note_on_c, 11, 93, 0
15, 83376, Note_on_c, 11, 92, 88
15, 83400, Note_on_c, 11, 92, 0
15, 83400, Note_on_c, 11, 93, 87
15, 83424, Note_on_c, 11, 93, 0
15, 83424, Note_on_c, 11, 92, 92
15, 83448, Note_on_c, 11, 92, 0
15, 83448, Note_on_c, 11, 93, 87
15, 83472, Note_on_c, 11, 93, 0
15, 83472, Note_on_c, 11, 92, 94
15, 83496, Note_on_c, 11, 92, 0
15, 83496, Note_on_c, 11, 93, 95
15, 83520, Note_on_c, 11, 93, 0
15, 83520, Note_on_c, 11, 92, 96
15, 83544, Note_on_c, 11, 92, 0
15, 83544, Note_on_c, 11, 93, 89
15, 83568, Note_on_c, 11, 93, 0
15, 83568, Note_on_c, 11, 92, 89
15, 83592, Note_on_c, 11, 92, 0
15, 83592, Note_on_c, 11, 93, 88
15, 83616, Note_on_c, 11, 93, 0
15, 83616, Note_on_c, 11, 92, 94
15, 83640, Note_on_c, 11, 92, 0
15, 83640, Note_on_c, 11, 93, 91
15, 83664, Note_on_c, 11, 93, 0
15, 83664, Note_on_c, 11, 92, 97
15, 83688, Note_on_c, 11, 92, 0
15, 83688, Note_on_c, 11, 93, 94
15, 83712, Note_on_c, 11, 93, 0
15, 83712, Note_on_c, 11, 92, 88
15, 83736, Note_on_c, 11, 92, 0
15, 83736, Note_on_c, 11, 93, 87
15, 83760, Note_on_c, 11, 93, 0
15, 83760, Note_on_c, 11, 92, 95
15, 83784, Note_on_c, 11, 92, 0
15, 83784, Note_on_c, 11, 93, 90
15, 83808, Note_on_c, 11, 93, 0
15, 83808, Note_on_c, 11, 92, 92
15, 83832, Note_on_c, 11, 92, 0
15, 83832, Note_on_c, 11, 93, 87
15, 83856, Note_on_c, 11, 93, 0
15, 83856, Note_on_c, 11, 92, 94
15, 83880, Note_on_c, 11, 92, 0
15, 83880, Note_on_c, 11, 93, 97
15, 83904, Note_on_c, 11, 93, 0
15, 83904, Note_on_c, 11, 92, 91
15, 83928, Note_on_c, 11, 92, 0
15, 83928, Note_on_c, 11, 93, 87
15, 83952, Note_on_c, 11, 93, 0
15, 83952, Note_on_c, 11, 92, 94
15, 83976, Note_on_c, 11, 92, 0
15, 83976, Note_on_c, 11, 93, 97
15, 84000, Note_on_c, 11, 93, 0
15, 84000, Note_on_c, 11, 92, 89
15, 84024, Note_on_c, 11, 92, 0
15, 84024, Note_on_c, 11, 93, 98
15, 84048, Note_on_c, 11, 93, 0
15, 84048, Note_on_c, 11, 92, 89
15, 84072, Note_on_c, 11, 92, 0
15, 84072, Note_on_c, 11, 93, 99
15, 84096, Note_on_c, 11, 93, 0
15, 84096, Note_on_c, 11, 92, 94
15, 84120, Note_on_c, 11, 92, 0
15, 84120, Note_on_c, 11, 93, 96
15, 84144, Note_on_c, 11, 93, 0
15, 84144, Note_on_c, 11, 92, 94
15, 84168, Note_on_c, 11, 92, 0
15, 84168, Note_on_c, 11, 93, 101
15, 84192, Note_on_c, 11, 93, 0
15, 84192, Note_on_c, 11, 92, 97
15, 84216, Note_on_c, 11, 92, 0
15, 84216, Note_on_c, 11, 93, 99
15, 84240, Note_on_c, 11, 93, 0
15, 84240, Note_on_c, 11, 92, 100
15, 84264, Note_on_c, 11, 92, 0
15, 84264, Note_on_c, 11, 93, 98
15, 84288, Note_on_c, 11, 93, 0
15, 84288, Note_on_c, 11, 92, 99
15, 84312, Note_on_c, 11, 92, 0
15, 84312, Note_on_c, 11, 93, 110
15, 84336, Note_on_c, 11, 93, 0
15, 84336, Note_on_c, 11, 92, 110
15, 84360, Note_on_c, 11, 92, 0
15, 84360, Note_on_c, 11, 93, 102
15, 84384, Note_on_c, 11, 93, 0
15, 84384, Note_on_c, 11, 92, 107
15, 84408, Note_on_c, 11, 92, 0
15, 84408, Note_on_c, 11, 94, 105
15, 84432, Note_on_c, 11, 94, 0
15, 84432, Note_on_c, 11, 92, 106
15, 84456, Note_on_c, 11, 92, 0
15, 84456, Note_on_c, 11, 94, 105
15, 84480, Note_on_c, 11, 94, 0
15, 84480, Note_on_c, 11, 92, 105
15, 84504, Note_on_c, 11, 92, 0
15, 84504, Note_on_c, 11, 94, 113
15, 84528, Note_on_c, 11, 94, 0
15, 84528, Note_on_c, 11, 92, 106
15, 84552, Note_on_c, 11, 92, 0
15, 84552, Note_on_c, 11, 94, 104
15, 84576, Note_on_c, 11, 94, 0
15, 84576, Note_on_c, 11, 92, 104
15, 84600, Note_on_c, 11, 92, 0
15, 84600, Note_on_c, 11, 94, 112
15, 84624, Note_on_c, 11, 94, 0
15, 84624, Note_on_c, 11, 92, 109
15, 84648, Note_on_c, 11, 92, 0
15, 84648, Note_on_c, 11, 94, 108
15, 84672, Note_on_c, 11, 94, 0
15, 84672, Note_on_c, 11, 92, 111
15, 84696, Note_on_c, 11, 92, 0
15, 84696, Note_on_c, 11, 94, 104
15, 84720, Note_on_c, 11, 94, 0
15, 84720, Note_on_c, 11, 92, 105
15, 84744, Note_on_c, 11, 92, 0
15, 84744, Note_on_c, 11, 94, 105
15, 84768, Note_on_c, 11, 94, 0
15, 84768, Note_on_c, 11, 92, 106
15, 84792, Note_on_c, 11, 92, 0
15, 84792, Note_on_c, 11, 94, 104
15, 84816, Note_on_c, 11, 94, 0
15, 84816, Note_on_c, 11, 92, 103
15, 84840, Note_on_c, 11, 92, 0
15, 84840, Note_on_c, 11, 94, 105
15, 84864, Note_on_c, 11, 94, 0
15, 84864, Note_on_c, 11, 92, 105
15, 84888, Note_on_c, 11, 92, 0
15, 84888, Note_on_c, 11, 94, 108
15, 84912, Note_on_c, 11, 94, 0
15, 84912, Note_on_c, 11, 92, 103
15, 84936, Note_on_c, 11, 92, 0
15, 84936, Note_on_c, 11, 94, 104
15, 84960, Note_on_c, 11, 94, 0
15, 84960, Note_on_c, 11, 92, 112
15, 84984, Note_on_c, 11, 92, 0
15, 84984, Note_on_c, 11, 94, 110
15, 85008, Note_on_c, 11, 94, 0
15, 85008, Note_on_c, 11, 92, 110
15, 85032, Note_on_c, 11, 92, 0
15, 85032, Note_on_c, 11, 94, 105
15, 85056, Note_on_c, 11, 94, 0
15, 85056, Note_on_c, 11, 92, 108
15, 85080, Note_on_c, 11, 92, 0
15, 85080, Note_on_c, 11, 94, 108
15, 85104, Note_on_c, 11, 94, 0
15, 85104, Note_on_c, 11, 92, 113
15, 85128, Note_on_c, 11, 92, 0
15, 85128, Note_on_c, 11, 94, 108
15, 85152, Note_on_c, 11, 94, 0
15, 85152, Note_on_c, 11, 92, 105
15, 85176, Note_on_c, 11, 92, 0
15, 85176, Note_on_c, 11, 94, 105
15, 85200, Note_on_c, 11, 94, 0
15, 85200, Note_on_c, 11, 92, 113
15, 85224, Note_on_c, 11, 92, 0
15, 85224, Note_on_c, 11, 94, 104
15, 85248, Note_on_c, 11, 94, 0
15, 85248, Note_on_c, 11, 92, 113
15, 85272, Note_on_c, 11, 92, 0
15, 85272, Note_on_c, 11, 94, 109
15, 85296, Note_on_c, 11, 94, 0
15, 85296, Note_on_c, 11, 92, 113
15, 85320, Note_on_c, 11, 92, 0
15, 85320, Note_on_c, 11, 94, 111
15, 85344, Note_on_c, 11, 94, 0
15, 85344, Note_on_c, 11, 92, 110
15, 85368, Note_on_c, 11, 92, 0
15, 85368, Note_on_c, 11, 94, 105
15, 85392, Note_on_c, 11, 94, 0
15, 85392, Note_on_c, 11, 92, 104
15, 85416, Note_on_c, 11, 92, 0
15, 85416, Note_on_c, 11, 94, 107
15, 85440, Note_on_c, 11, 94, 0
15, 85440, Note_on_c, 11, 92, 112
15, 85464, Note_on_c, 11, 92, 0
15, 85464, Note_on_c, 11, 94, 113
15, 85488, Note_on_c, 11, 94, 0
15, 85488, Note_on_c, 11, 92, 107
15, 85512, Note_on_c, 11, 92, 0
15, 85512, Note_on_c, 11, 94, 112
15, 85536, Note_on_c, 11, 94, 0
15, 85536, Note_on_c, 11, 92, 109
15, 85560, Note_on_c, 11, 92, 0
15, 85560, Note_on_c, 11, 94, 102
15, 85584, Note_on_c, 11, 94, 0
15, 85584, Note_on_c, 11, 92, 105
15, 85608, Note_on_c, 11, 92, 0
15, 85608, Note_on_c, 11, 94, 109
15, 85632, Note_on_c, 11, 94, 0
15, 85632, Note_on_c, 11, 92, 100
15, 85656, Note_on_c, 11, 92, 0
15, 85656, Note_on_c, 11, 94, 103
15, 85680, Note_on_c, 11, 94, 0
15, 85680, Note_on_c, 11, 92, 104
15, 85704, Note_on_c, 11, 92, 0
15, 85704, Note_on_c, 11, 94, 97
15, 85728, Note_on_c, 11, 94, 0
15, 85728, Note_on_c, 11, 92, 96
15, 85752, Note_on_c, 11, 92, 0
15, 85752, Note_on_c, 11, 94, 98
15, 85776, Note_on_c, 11, 94, 0
15, 85776, Note_on_c, 11, 92, 98
15, 85800, Note_on_c, 11, 92, 0
15, 85800, Note_on_c, 11, 94, 102
15, 85824, Note_on_c, 11, 94, 0
15, 85824, Note_on_c, 11, 92, 95
15, 85848, Note_on_c, 11, 92, 0
15, 85848, Note_on_c, 11, 94, 100
15, 85872, Note_on_c, 11, 94, 0
15, 85872, Note_on_c, 11, 92, 89
15, 85896, Note_on_c, 11, 92, 0
15, 85896, Note_on_c, 11, 94, 97
15, 85920, Note_on_c, 11, 94, 0
15, 85920, Note_on_c, 11, 92, 97
15, 85944, Note_on_c, 11, 92, 0
15, 85944, Note_on_c, 11, 94, 96
15, 85968, Note_on_c, 11, 94, 0
15, 85968, Note_on_c, 11, 92, 93
15, 85992, Note_on_c, 11, 92, 0
15, 85992, Note_on_c, 11, 94, 89
15, 86016, Note_on_c, 11, 94, 0
15, 86016, Note_on_c, 11, 92, 85
15, 86040, Note_on_c, 11, 92, 0
15, 86040, Note_on_c, 11, 94, 82
15, 86064, Note_on_c, 11, 94, 0
15, 86064, Note_on_c, 11, 92, 89
15, 86088, Note_on_c, 11, 92, 0
15, 86088, Note_on_c, 11, 94, 89
15, 86112, Note_on_c, 11, 94, 0
15, 86112, Note_on_c, 11, 80, 79
15, 86112, Note_on_c, 11, 92, 89
15, 86136, Note_on_c, 11, 80, 0
15, 86136, Note_on_c, 11, 92, 0
15, 86136, Note_on_c, 11, 82, 80
15, 86136, Note_on_c, 11, 94, 78
15, 86160, Note_on_c, 11, 82, 0
15, 86160, Note_on_c, 11, 94, 0
15, 86160, Note_on_c, 11, 80, 87
15, 86160, Note_on_c, 11, 92, 84
15, 86184, Note_on_c, 11, 80, 0
15, 86184, Note_on_c, 11, 92, 0
15, 86184, Note_on_c, 11, 82, 81
15, 86184, Note_on_c, 11, 94, 84
15, 86208, Note_on_c, 11, 82, 0
15, 86208, Note_on_c, 11, 94, 0
15, 86208, Note_on_c, 11, 80, 84
15, 86208, Note_on_c, 11, 92, 81
15, 86232, Note_on_c, 11, 80, 0
15, 86232, Note_on_c, 11, 92, 0
15, 86232, Note_on_c, 11, 82, 83
15, 86232, Note_on_c, 11, 94, 83
15, 86256, Note_on_c, 11, 82, 0
15, 86256, Note_on_c, 11, 94, 0
15, 86256, Note_on_c, 11, 80, 76
15, 86256, Note_on_c, 11, 92, 81
15, 86280, Note_on_c, 11, 80, 0
15, 86280, Note_on_c, 11, 92, 0
15, 86280, Note_on_c, 11, 82, 76
15, 86280, Note_on_c, 11, 94, 74
15, 86304, Note_on_c, 11, 82, 0
15, 86304, Note_on_c, 11, 94, 0
15, 86304, Note_on_c, 11, 80, 70
15, 86304, Note_on_c, 11, 92, 80
15, 86328, Note_on_c, 11, 80, 0
15, 86328, Note_on_c, 11, 92, 0
15, 86328, Note_on_c, 11, 82, 76
15, 86328, Note_on_c, 11, 94, 70
15, 86352, Note_on_c, 11, 82, 0
15, 86352, Note_on_c, 11, 94, 0
15, 86352, Note_on_c, 11, 80, 66
15, 86352, Note_on_c, 11, 92, 72
15, 86376, Note_on_c, 11, 80, 0
15, 86376, Note_on_c, 11, 92, 0
15, 86376, Note_on_c, 11, 82, 67
15, 86376, Note_on_c, 11, 94, 66
15, 86400, Note_on_c, 11, 82, 0
15, 86400, Note_on_c, 11, 94, 0
15, 86400, Note_on_c, 11, 80, 65
15, 86400, Note_on_c, 11, 92, 64
15, 86424, Note_on_c, 11, 80, 0
15, 86424, Note_on_c, 11, 92, 0
15, 86424, Note_on_c, 11, 82, 61
15, 86424, Note_on_c, 11, 94, 66
15, 86448, Note_on_c, 11, 82, 0
15, 86448, Note_on_c, 11, 94, 0
15, 86448, Note_on_c, 11, 80, 63
15, 86448, Note_on_c, 11, 92, 64
15, 86472, Note_on_c, 11, 80, 0
15, 86472, Note_on_c, 11, 92, 0
15, 86472, Note_on_c, 11, 82, 62
15, 86472, Note_on_c, 11, 94, 65
15, 86496, Note_on_c, 11, 82, 0
15, 86496, Note_on_c, 11, 94, 0
15, 86496, Note_on_c, 11, 80, 59
15, 86496, Note_on_c, 11, 92, 62
15, 86520, Note_on_c, 11, 80, 0
15, 86520, Note_on_c, 11, 92, 0
15, 86520, Note_on_c, 11, 82, 61
15, 86520, Note_on_c, 11, 94, 62
15, 86544, Note_on_c, 11, 82, 0
15, 86544, Note_on_c, 11, 94, 0
15, 86544, Note_on_c, 11, 80, 52
15, 86544, Note_on_c, 11, 92, 55
15, 86568, Note_on_c, 11, 80, 0
15, 86568, Note_on_c, 11, 92, 0
15, 86568, Note_on_c, 11, 82, 54
15, 86568, Note_on_c, 11, 94, 52
15, 86592, Note_on_c, 11, 82, 0
15, 86592, Note_on_c, 11, 94, 0
15, 86592, Note_on_c, 11, 80, 47
15, 86592, Note_on_c, 11, 92, 47
15, 86616, Note_on_c, 11, 80, 0
15, 86616, Note_on_c, 11, 92, 0
15, 86616, Note_on_c, 11, 82, 45
15, 86616, Note_on_c, 11, 94, 52
15, 86640, Note_on_c, 11, 82, 0
15, 86640, Note_on_c, 11, 94, 0
15, 86640, Note_on_c, 11, 80, 44
15, 86640, Note_on_c, 11, 92, 47
15, 86664, Note_on_c, 11, 80, 0
15, 86664, Note_on_c, 11, 92, 0
15, 86664, Note_on_c, 11, 82, 44
15, 86664, Note_on_c, 11, 94, 48
15, 86688, Note_on_c, 11, 82, 0
15, 86688, Note_on_c, 11, 94, 0
15, 86688, Note_on_c, 11, 92, 30
15, 86712, Note_on_c, 11, 92, 0
15, 86712, Note_on_c, 11, 93, 26
15, 86736, Note_on_c, 11, 93, 0
15, 86736, Note_on_c, 11, 92, 30
15, 86760, Note_on_c, 11, 92, 0
15, 86760, Note_on_c, 11, 93, 25
15, 86784, Note_on_c, 11, 93, 0
15, 86784, Note_on_c, 11, 92, 30
15, 86808, Note_on_c, 11, 92, 0
15, 86808, Note_on_c, 11, 93, 30
15, 86832, Note_on_c, 11, 93, 0
15, 86832, Note_on_c, 11, 92, 31
15, 86856, Note_on_c, 11, 92, 0
15, 86856, Note_on_c, 11, 93, 30
15, 86880, Note_on_c, 11, 93, 0
15, 86880, Note_on_c, 11, 92, 34
15, 86904, Note_on_c, 11, 92, 0
15, 86904, Note_on_c, 11, 93, 35
15, 86928, Note_on_c, 11, 93, 0
15, 86928, Note_on_c, 11, 92, 26
15, 86952, Note_on_c, 11, 92, 0
15, 86952, Note_on_c, 11, 93, 25
15, 86976, Note_on_c, 11, 93, 0
15, 86976, Note_on_c, 11, 92, 35
15, 87000, Note_on_c, 11, 92, 0
15, 87000, Note_on_c, 11, 93, 33
15, 87024, Note_on_c, 11, 93, 0
15, 87024, Note_on_c, 11, 92, 32
15, 87048, Note_on_c, 11, 92, 0
15, 87048, Note_on_c, 11, 93, 26
15, 87072, Note_on_c, 11, 93, 0
15, 87072, Note_on_c, 11, 92, 35
15, 87096, Note_on_c, 11, 92, 0
15, 87096, Note_on_c, 11, 93, 33
15, 87120, Note_on_c, 11, 93, 0
15, 87120, Note_on_c, 11, 92, 30
15, 87144, Note_on_c, 11, 92, 0
15, 87144, Note_on_c, 11, 93, 35
15, 87168, Note_on_c, 11, 93, 0
15, 87168, Note_on_c, 11, 92, 33
15, 87192, Note_on_c, 11, 92, 0
15, 87192, Note_on_c, 11, 93, 33
15, 87216, Note_on_c, 11, 93, 0
15, 87216, Note_on_c, 11, 92, 32
15, 87240, Note_on_c, 11, 92, 0
15, 87240, Note_on_c, 11, 93, 25
15, 87264, Note_on_c, 11, 93, 0
15, 87264, Note_on_c, 11, 92, 26
15, 87288, Note_on_c, 11, 92, 0
15, 87288, Note_on_c, 11, 93, 30
15, 87312, Note_on_c, 11, 93, 0
15, 87312, Note_on_c, 11, 92, 26
15, 87336, Note_on_c, 11, 92, 0
15, 87336, Note_on_c, 11, 93, 28
15, 87360, Note_on_c, 11, 93, 0
15, 87360, Note_on_c, 11, 92, 35
15, 87384, Note_on_c, 11, 92, 0
15, 87384, Note_on_c, 11, 93, 30
15, 87408, Note_on_c, 11, 93, 0
15, 87408, Note_on_c, 11, 92, 28
15, 87432, Note_on_c, 11, 92, 0
15, 87432, Note_on_c, 11, 93, 35
15, 87456, Note_on_c, 11, 93, 0
15, 87456, Note_on_c, 11, 92, 29
15, 87480, Note_on_c, 11, 92, 0
15, 87480, Note_on_c, 11, 93, 28
15, 87504, Note_on_c, 11, 93, 0
15, 87504, Note_on_c, 11, 92, 29
15, 87528, Note_on_c, 11, 92, 0
15, 87528, Note_on_c, 11, 93, 25
15, 87552, Note_on_c, 11, 93, 0
15, 87552, Note_on_c, 11, 92, 35
15, 87576, Note_on_c, 11, 92, 0
15, 87576, Note_on_c, 11, 93, 26
15, 87600, Note_on_c, 11, 93, 0
15, 87600, Note_on_c, 11, 92, 33
15, 87624, Note_on_c, 11, 92, 0
15, 87624, Note_on_c, 11, 93, 30
15, 87648, Note_on_c, 11, 93, 0
15, 87648, Note_on_c, 11, 92, 25
15, 87672, Note_on_c, 11, 92, 0
15, 87672, Note_on_c, 11, 93, 26
15, 87696, Note_on_c, 11, 93, 0
15, 87696, Note_on_c, 11, 92, 30
15, 87720, Note_on_c, 11, 92, 0
15, 87720, Note_on_c, 11, 93, 35
15, 87744, Note_on_c, 11, 93, 0
15, 87744, Note_on_c, 11, 92, 26
15, 87768, Note_on_c, 11, 92, 0
15, 87768, Note_on_c, 11, 93, 25
15, 87792, Note_on_c, 11, 93, 0
15, 87792, Note_on_c, 11, 92, 31
15, 87816, Note_on_c, 11, 92, 0
15, 87816, Note_on_c, 11, 93, 31
15, 87840, Note_on_c, 11, 93, 0
15, 87840, Note_on_c, 11, 92, 33
15, 87864, Note_on_c, 11, 92, 0
15, 87864, Note_on_c, 11, 93, 32
15, 87888, Note_on_c, 11, 93, 0
15, 87888, Note_on_c, 11, 92, 31
15, 87912, Note_on_c, 11, 92, 0
15, 87912, Note_on_c, 11, 93, 27
15, 87936, Note_on_c, 11, 93, 0
15, 87936, Note_on_c, 11, 92, 32
15, 87960, Note_on_c, 11, 92, 0
15, 87960, Note_on_c, 11, 93, 34
15, 87984, Note_on_c, 11, 93, 0
15, 87984, Note_on_c, 11, 92, 26
15, 88008, Note_on_c, 11, 92, 0
15, 88008, Note_on_c, 11, 93, 26
15, 88032, Note_on_c, 11, 93, 0
15, 88032, Note_on_c, 11, 92, 34
15, 88056, Note_on_c, 11, 92, 0
15, 88056, Note_on_c, 11, 93, 27
15, 88080, Note_on_c, 11, 93, 0
15, 88080, Note_on_c, 11, 92, 26
15, 88104, Note_on_c, 11, 92, 0
15, 88104, Note_on_c, 11, 93, 33
15, 88128, Note_on_c, 11, 93, 0
15, 88128, Note_on_c, 11, 92, 33
15, 88152, Note_on_c, 11, 92, 0
15, 88152, Note_on_c, 11, 93, 35
15, 88176, Note_on_c, 11, 93, 0
15, 88176, Note_on_c, 11, 92, 25
15, 88200, Note_on_c, 11, 92, 0
15, 88200, Note_on_c, 11, 93, 34
15, 88224, Note_on_c, 11, 93, 0
15, 88224, Note_on_c, 11, 92, 28
15, 88248, Note_on_c, 11, 92, 0
15, 88248, Note_on_c, 11, 93, 32
15, 88272, Note_on_c, 11, 93, 0
15, 88272, Note_on_c, 11, 92, 34
15, 88296, Note_on_c, 11, 92, 0
15, 88296, Note_on_c, 11, 93, 26
15, 88320, Note_on_c, 11, 93, 0
15, 88320, Note_on_c, 11, 92, 29
15, 88344, Note_on_c, 11, 92, 0
15, 88344, Note_on_c, 11, 93, 25
15, 88368, Note_on_c, 11, 93, 0
15, 88368, Note_on_c, 11, 92, 25
15, 88392, Note_on_c, 11, 92, 0
15, 88392, Note_on_c, 11, 93, 25
15, 88416, Note_on_c, 11, 93, 0
15, 88416, Note_on_c, 11, 92, 33
15, 88440, Note_on_c, 11, 92, 0
15, 88440, Note_on_c, 11, 93, 33
15, 88464, Note_on_c, 11, 93, 0
15, 88464, Note_on_c, 11, 92, 25
15, 88488, Note_on_c, 11, 92, 0
15, 88488, Note_on_c, 11, 93, 29
15, 88512, Note_on_c, 11, 93, 0
15, 88512, Note_on_c, 11, 92, 33
15, 88536, Note_on_c, 11, 92, 0
15, 88536, Note_on_c, 11, 93, 35
15, 88560, Note_on_c, 11, 93, 0
15, 88560, Note_on_c, 11, 92, 34
15, 88584, Note_on_c, 11, 92, 0
15, 88584, Note_on_c, 11, 93, 30
15, 88608, Note_on_c, 11, 93, 0
15, 88608, Note_on_c, 11, 92, 32
15, 88656, Note_on_c, 11, 92, 0
15, 88656, Note_on_c, 11, 90, 37
15, 88704, Note_on_c, 11, 90, 0
15, 88704, Note_on_c, 11, 88, 41
15, 88752, Note_on_c, 11, 88, 0
15, 88752, Note_on_c, 11, 87, 40
15, 88800, Note_on_c, 11, 87, 0
15, 88800, Note_on_c, 11, 85, 42
15, 88848, Note_on_c, 11, 85, 0
15, 88848, Note_on_c, 11, 87, 47
15, 88896, Note_on_c, 11, 87, 0
15, 88896, Note_on_c, 11, 88, 50
15, 88944, Note_on_c, 11, 88, 0
15, 88944, Note_on_c, 11, 90, 62
15, 88992, Note_on_c, 11, 90, 0
15, 88992, Note_on_c, 11, 92, 35
15, 89016, Note_on_c, 11, 92, 0
15, 89016, Note_on_c, 11, 93, 29
15, 89040, Note_on_c, 11, 93, 0
15, 89040, Note_on_c, 11, 92, 30
15, 89064, Note_on_c, 11, 92, 0
15, 89064, Note_on_c, 11, 93, 32
15, 89088, Note_on_c, 11, 93, 0
15, 89088, Note_on_c, 11, 92, 35
15, 89112, Note_on_c, 11, 92, 0
15, 89112, Note_on_c, 11, 93, 35
15, 89136, Note_on_c, 11, 93, 0
15, 89136, Note_on_c, 11, 92, 30
15, 89160, Note_on_c, 11, 92, 0
15, 89160, Note_on_c, 11, 93, 30
15, 89184, Note_on_c, 11, 93, 0
15, 89184, Note_on_c, 11, 92, 29
15, 89208, Note_on_c, 11, 92, 0
15, 89208, Note_on_c, 11, 93, 34
15, 89232, Note_on_c, 11, 93, 0
15, 89232, Note_on_c, 11, 92, 33
15, 89256, Note_on_c, 11, 92, 0
15, 89256, Note_on_c, 11, 93, 29
15, 89280, Note_on_c, 11, 93, 0
15, 89280, Note_on_c, 11, 92, 25
15, 89304, Note_on_c, 11, 92, 0
15, 89304, Note_on_c, 11, 93, 33
15, 89328, Note_on_c, 11, 93, 0
15, 89328, Note_on_c, 11, 92, 30
15, 89352, Note_on_c, 11, 92, 0
15, 89352, Note_on_c, 11, 93, 28
15, 89376, Note_on_c, 11, 93, 0
15, 89376, Note_on_c, 11, 92, 27
15, 89400, Note_on_c, 11, 92, 0
15, 89400, Note_on_c, 11, 93, 35
15, 89424, Note_on_c, 11, 93, 0
15, 89424, Note_on_c, 11, 92, 32
15, 89448, Note_on_c, 11, 92, 0
15, 89448, Note_on_c, 11, 93, 29
15, 89472, Note_on_c, 11, 93, 0
15, 89472, Note_on_c, 11, 92, 30
15, 89496, Note_on_c, 11, 92, 0
15, 89496, Note_on_c, 11, 93, 28
15, 89520, Note_on_c, 11, 93, 0
15, 89520, Note_on_c, 11, 92, 29
15, 89544, Note_on_c, 11, 92, 0
15, 89544, Note_on_c, 11, 93, 29
15, 89568, Note_on_c, 11, 93, 0
15, 89568, Note_on_c, 11, 92, 25
15, 89592, Note_on_c, 11, 92, 0
15, 89592, Note_on_c, 11, 93, 25
15, 89616, Note_on_c, 11, 93, 0
15, 89616, Note_on_c, 11, 92, 35
15, 89640, Note_on_c, 11, 92, 0
15, 89640, Note_on_c, 11, 93, 28
15, 89664, Note_on_c, 11, 93, 0
15, 89664, Note_on_c, 11, 92, 35
15, 89688, Note_on_c, 11, 92, 0
15, 89688, Note_on_c, 11, 93, 32
15, 89712, Note_on_c, 11, 93, 0
15, 89712, Note_on_c, 11, 92, 30
15, 89736, Note_on_c, 11, 92, 0
15, 89736, Note_on_c, 11, 93, 30
15, 89760, Note_on_c, 11, 93, 0
15, 89760, Note_on_c, 11, 92, 28
15, 89784, Note_on_c, 11, 92, 0
15, 89784, Note_on_c, 11, 93, 34
15, 89808, Note_on_c, 11, 93, 0
15, 89808, Note_on_c, 11, 92, 34
15, 89832, Note_on_c, 11, 92, 0
15, 89832, Note_on_c, 11, 93, 34
15, 89856, Note_on_c, 11, 93, 0
15, 89856, Note_on_c, 11, 92, 30
15, 89880, Note_on_c, 11, 92, 0
15, 89880, Note_on_c, 11, 93, 32
15, 89904, Note_on_c, 11, 93, 0
15, 89904, Note_on_c, 11, 92, 35
15, 89928, Note_on_c, 11, 92, 0
15, 89928, Note_on_c, 11, 93, 29
15, 89952, Note_on_c, 11, 93, 0
15, 89952, Note_on_c, 11, 92, 26
15, 89976, Note_on_c, 11, 92, 0
15, 89976, Note_on_c, 11, 93, 25
15, 90000, Note_on_c, 11, 93, 0
15, 90000, Note_on_c, 11, 92, 28
15, 90024, Note_on_c, 11, 92, 0
15, 90024, Note_on_c, 11, 93, 30
15, 90048, Note_on_c, 11, 93, 0
15, 90048, Note_on_c, 11, 92, 34
15, 90072, Note_on_c, 11, 92, 0
15, 90072, Note_on_c, 11, 93, 34
15, 90096, Note_on_c, 11, 93, 0
15, 90096, Note_on_c, 11, 92, 35
15, 90120, Note_on_c, 11, 92, 0
15, 90120, Note_on_c, 11, 93, 34
15, 90144, Note_on_c, 11, 93, 0
15, 90144, Note_on_c, 11, 92, 27
15, 90168, Note_on_c, 11, 92, 0
15, 90168, Note_on_c, 11, 93, 27
15, 90192, Note_on_c, 11, 93, 0
15, 90192, Note_on_c, 11, 92, 32
15, 90216, Note_on_c, 11, 92, 0
15, 90216, Note_on_c, 11, 93, 34
15, 90240, Note_on_c, 11, 93, 0
15, 90240, Note_on_c, 11, 92, 26
15, 90264, Note_on_c, 11, 92, 0
15, 90264, Note_on_c, 11, 93, 34
15, 90288, Note_on_c, 11, 93, 0
15, 90288, Note_on_c, 11, 92, 30
15, 90312, Note_on_c, 11, 92, 0
15, 90312, Note_on_c, 11, 93, 28
15, 90336, Note_on_c, 11, 93, 0
15, 90336, Note_on_c, 11, 92, 32
15, 90360, Note_on_c, 11, 92, 0
15, 90360, Note_on_c, 11, 93, 26
15, 90384, Note_on_c, 11, 93, 0
15, 90384, Note_on_c, 11, 92, 30
15, 90408, Note_on_c, 11, 92, 0
15, 90408, Note_on_c, 11, 93, 26
15, 90432, Note_on_c, 11, 93, 0
15, 90432, Note_on_c, 11, 92, 31
15, 90456, Note_on_c, 11, 92, 0
15, 90456, Note_on_c, 11, 93, 32
15, 90480, Note_on_c, 11, 93, 0
15, 90480, Note_on_c, 11, 92, 26
15, 90504, Note_on_c, 11, 92, 0
15, 90504, Note_on_c, 11, 93, 29
15, 90528, Note_on_c, 11, 93, 0
15, 90528, Note_on_c, 11, 92, 30
15, 90552, Note_on_c, 11, 92, 0
15, 90552, Note_on_c, 11, 93, 33
15, 90576, Note_on_c, 11, 93, 0
15, 90576, Note_on_c, 11, 92, 35
15, 90600, Note_on_c, 11, 92, 0
15, 90600, Note_on_c, 11, 93, 29
15, 90624, Note_on_c, 11, 93, 0
15, 90624, Note_on_c, 11, 92, 33
15, 90648, Note_on_c, 11, 92, 0
15, 90648, Note_on_c, 11, 93, 32
15, 90672, Note_on_c, 11, 93, 0
15, 90672, Note_on_c, 11, 92, 25
15, 90696, Note_on_c, 11, 92, 0
15, 90696, Note_on_c, 11, 93, 27
15, 90720, Note_on_c, 11, 93, 0
15, 90720, Note_on_c, 11, 80, 29
15, 90744, Note_on_c, 11, 80, 0
15, 90744, Note_on_c, 11, 81, 25
15, 90768, Note_on_c, 11, 81, 0
15, 90768, Note_on_c, 11, 80, 31
15, 90792, Note_on_c, 11, 80, 0
15, 90792, Note_on_c, 11, 81, 29
15, 90816, Note_on_c, 11, 81, 0
15, 90816, Note_on_c, 11, 80, 34
15, 90840, Note_on_c, 11, 80, 0
15, 90840, Note_on_c, 11, 81, 25
15, 90864, Note_on_c, 11, 81, 0
15, 90864, Note_on_c, 11, 80, 35
15, 90888, Note_on_c, 11, 80, 0
15, 90888, Note_on_c, 11, 81, 34
15, 90912, Note_on_c, 11, 81, 0
15, 90912, Note_on_c, 11, 80, 34
15, 90960, Note_on_c, 11, 80, 0
15, 90960, Note_on_c, 11, 78, 35
15, 91008, Note_on_c, 11, 78, 0
15, 91008, Note_on_c, 11, 76, 39
15, 91056, Note_on_c, 11, 76, 0
15, 91056, Note_on_c, 11, 75, 37
15, 91104, Note_on_c, 11, 75, 0
15, 91104, Note_on_c, 11, 73, 42
15, 91152, Note_on_c, 11, 73, 0
15, 91152, Note_on_c, 11, 75, 51
15, 91200, Note_on_c, 11, 75, 0
15, 91200, Note_on_c, 11, 76, 52
15, 91248, Note_on_c, 11, 76, 0
15, 91248, Note_on_c, 11, 78, 59
15, 91296, Note_on_c, 11, 78, 0
15, 91296, Note_on_c, 11, 80, 45
15, 91360, Note_on_c, 11, 80, 0
15, 91360, Note_on_c, 11, 83, 50
15, 91402, Note_on_c, 11, 83, 0
15, 91424, Note_on_c, 11, 82, 48
15, 91466, Note_on_c, 11, 82, 0
15, 91488, Note_on_c, 11, 83, 47
15, 91504, Note_on_c, 11, 83, 0
15, 91504, Note_on_c, 11, 82, 46
15, 91552, Note_on_c, 11, 82, 0
15, 91552, Note_on_c, 11, 80, 41
15, 91594, Note_on_c, 11, 80, 0
15, 91616, Note_on_c, 11, 80, 45
15, 91658, Note_on_c, 11, 80, 0
15, 91680, Note_on_c, 11, 80, 50
15, 91722, Note_on_c, 11, 80, 0
15, 91744, Note_on_c, 11, 85, 43
15, 91786, Note_on_c, 11, 85, 0
15, 91808, Note_on_c, 11, 83, 40
15, 91850, Note_on_c, 11, 83, 0
15, 91872, Note_on_c, 11, 83, 41
15, 91888, Note_on_c, 11, 83, 0
15, 91888, Note_on_c, 11, 82, 40
15, 91936, Note_on_c, 11, 82, 0
15, 91936, Note_on_c, 11, 80, 48
15, 91978, Note_on_c, 11, 80, 0
15, 92000, Note_on_c, 11, 80, 41
15, 92042, Note_on_c, 11, 80, 0
15, 92064, Note_on_c, 11, 80, 41
15, 92106, Note_on_c, 11, 80, 0
15, 92128, Note_on_c, 11, 83, 45
15, 92170, Note_on_c, 11, 83, 0
15, 92192, Note_on_c, 11, 82, 47
15, 92234, Note_on_c, 11, 82, 0
15, 92256, Note_on_c, 11, 80, 42
15, 92320, Note_on_c, 11, 80, 0
15, 92320, Note_on_c, 11, 81, 42
15, 92384, Note_on_c, 11, 81, 0
15, 92384, Note_on_c, 11, 83, 43
15, 92448, Note_on_c, 11, 83, 0
15, 92448, Note_on_c, 11, 86, 40
15, 92472, Note_on_c, 11, 86, 0
15, 92472, Note_on_c, 11, 88, 42
15, 92496, Note_on_c, 11, 88, 0
15, 92496, Note_on_c, 11, 86, 48
15, 92520, Note_on_c, 11, 86, 0
15, 92520, Note_on_c, 11, 88, 42
15, 92544, Note_on_c, 11, 88, 0
15, 92544, Note_on_c, 11, 86, 49
15, 92568, Note_on_c, 11, 86, 0
15, 92568, Note_on_c, 11, 88, 48
15, 92592, Note_on_c, 11, 88, 0
15, 92592, Note_on_c, 11, 86, 50
15, 92616, Note_on_c, 11, 86, 0
15, 92616, Note_on_c, 11, 88, 49
15, 92640, Note_on_c, 11, 88, 0
15, 92640, Note_on_c, 11, 86, 41
15, 92664, Note_on_c, 11, 86, 0
15, 92664, Note_on_c, 11, 88, 43
15, 92688, Note_on_c, 11, 88, 0
15, 92688, Note_on_c, 11, 86, 44
15, 92712, Note_on_c, 11, 86, 0
15, 92712, Note_on_c, 11, 88, 41
15, 92736, Note_on_c, 11, 88, 0
15, 92736, Note_on_c, 11, 86, 46
15, 92760, Note_on_c, 11, 86, 0
15, 92760, Note_on_c, 11, 88, 44
15, 92784, Note_on_c, 11, 88, 0
15, 92784, Note_on_c, 11, 86, 42
15, 92808, Note_on_c, 11, 86, 0
15, 92808, Note_on_c, 11, 88, 47
15, 92832, Note_on_c, 11, 88, 0
15, 92832, Note_on_c, 11, 86, 41
15, 92856, Note_on_c, 11, 86, 0
15, 92856, Note_on_c, 11, 88, 49
15, 92880, Note_on_c, 11, 88, 0
15, 92880, Note_on_c, 11, 86, 44
15, 92904, Note_on_c, 11, 86, 0
15, 92904, Note_on_c, 11, 88, 48
15, 92928, Note_on_c, 11, 88, 0
15, 92928, Note_on_c, 11, 86, 46
15, 92952, Note_on_c, 11, 86, 0
15, 92952, Note_on_c, 11, 88, 45
15, 92976, Note_on_c, 11, 88, 0
15, 92976, Note_on_c, 11, 86, 48
15, 93000, Note_on_c, 11, 86, 0
15, 93000, Note_on_c, 11, 88, 51
15, 93024, Note_on_c, 11, 88, 0
15, 93024, Note_on_c, 11, 83, 51
15, 93048, Note_on_c, 11, 83, 0
15, 93048, Note_on_c, 11, 85, 55
15, 93072, Note_on_c, 11, 85, 0
15, 93072, Note_on_c, 11, 83, 54
15, 93096, Note_on_c, 11, 83, 0
15, 93096, Note_on_c, 11, 85, 54
15, 93120, Note_on_c, 11, 85, 0
15, 93120, Note_on_c, 11, 83, 60
15, 93144, Note_on_c, 11, 83, 0
15, 93144, Note_on_c, 11, 85, 58
15, 93168, Note_on_c, 11, 85, 0
15, 93168, Note_on_c, 11, 83, 60
15, 93192, Note_on_c, 11, 83, 0
15, 93192, Note_on_c, 11, 85, 62
15, 93216, Note_on_c, 11, 85, 0
15, 93216, Note_on_c, 11, 83, 56
15, 93240, Note_on_c, 11, 83, 0
15, 93240, Note_on_c, 11, 85, 59
15, 93264, Note_on_c, 11, 85, 0
15, 93264, Note_on_c, 11, 83, 60
15, 93288, Note_on_c, 11, 83, 0
15, 93288, Note_on_c, 11, 85, 66
15, 93312, Note_on_c, 11, 85, 0
15, 93312, Note_on_c, 11, 83, 63
15, 93336, Note_on_c, 11, 83, 0
15, 93336, Note_on_c, 11, 85, 59
15, 93360, Note_on_c, 11, 85, 0
15, 93360, Note_on_c, 11, 83, 69
15, 93384, Note_on_c, 11, 83, 0
15, 93384, Note_on_c, 11, 85, 63
15, 93408, Note_on_c, 11, 85, 0
15, 93408, Note_on_c, 11, 83, 69
15, 93432, Note_on_c, 11, 83, 0
15, 93432, Note_on_c, 11, 85, 65
15, 93456, Note_on_c, 11, 85, 0
15, 93456, Note_on_c, 11, 83, 69
15, 93480, Note_on_c, 11, 83, 0
15, 93480, Note_on_c, 11, 85, 74
15, 93504, Note_on_c, 11, 85, 0
15, 93504, Note_on_c, 11, 83, 73
15, 93528, Note_on_c, 11, 83, 0
15, 93528, Note_on_c, 11, 85, 73
15, 93552, Note_on_c, 11, 85, 0
15, 93552, Note_on_c, 11, 83, 76
15, 93576, Note_on_c, 11, 83, 0
15, 93576, Note_on_c, 11, 85, 75
15, 93600, Note_on_c, 11, 85, 0
15, 93600, Note_on_c, 11, 80, 40
15, 93664, Note_on_c, 11, 80, 0
15, 93664, Note_on_c, 11, 83, 50
15, 93706, Note_on_c, 11, 83, 0
15, 93728, Note_on_c, 11, 82, 48
15, 93770, Note_on_c, 11, 82, 0
15, 93792, Note_on_c, 11, 83, 49
15, 93808, Note_on_c, 11, 83, 0
15, 93808, Note_on_c, 11, 82, 46
15, 93856, Note_on_c, 11, 82, 0
15, 93856, Note_on_c, 11, 80, 44
15, 93898, Note_on_c, 11, 80, 0
15, 93920, Note_on_c, 11, 80, 43
15, 93962, Note_on_c, 11, 80, 0
15, 93984, Note_on_c, 11, 80, 42
15, 94048, Note_on_c, 11, 80, 0
15, 94048, Note_on_c, 11, 85, 40
15, 94090, Note_on_c, 11, 85, 0
15, 94112, Note_on_c, 11, 83, 41
15, 94154, Note_on_c, 11, 83, 0
15, 94176, Note_on_c, 11, 83, 50
15, 94192, Note_on_c, 11, 83, 0
15, 94192, Note_on_c, 11, 82, 42
15, 94240, Note_on_c, 11, 82, 0
15, 94240, Note_on_c, 11, 80, 45
15, 94282, Note_on_c, 11, 80, 0
15, 94304, Note_on_c, 11, 80, 40
15, 94346, Note_on_c, 11, 80, 0
15, 94368, Note_on_c, 11, 80, 44
15, 94410, Note_on_c, 11, 80, 0
15, 94432, Note_on_c, 11, 83, 50
15, 94474, Note_on_c, 11, 83, 0
15, 94496, Note_on_c, 11, 82, 45
15, 94538, Note_on_c, 11, 82, 0
15, 94560, Note_on_c, 11, 80, 45
15, 94624, Note_on_c, 11, 80, 0
15, 94624, Note_on_c, 11, 81, 43
15, 94688, Note_on_c, 11, 81, 0
15, 94688, Note_on_c, 11, 83, 46
15, 94752, Note_on_c, 11, 83, 0
15, 94752, Note_on_c, 11, 86, 43
15, 94816, Note_on_c, 11, 86, 0
15, 94816, Note_on_c, 11, 90, 43
15, 94858, Note_on_c, 11, 90, 0
15, 94880, Note_on_c, 11, 88, 43
15, 94922, Note_on_c, 11, 88, 0
15, 94944, Note_on_c, 11, 90, 48
15, 94960, Note_on_c, 11, 90, 0
15, 94960, Note_on_c, 11, 88, 46
15, 95008, Note_on_c, 11, 88, 0
15, 95008, Note_on_c, 11, 87, 49
15, 95050, Note_on_c, 11, 87, 0
15, 95072, Note_on_c, 11, 87, 52
15, 95114, Note_on_c, 11, 87, 0
15, 95136, Note_on_c, 11, 87, 52
15, 95200, Note_on_c, 11, 87, 0
15, 95200, Note_on_c, 11, 92, 56
15, 95242, Note_on_c, 11, 92, 0
15, 95264, Note_on_c, 11, 90, 56
15, 95306, Note_on_c, 11, 90, 0
15, 95328, Note_on_c, 11, 86, 58
15, 95392, Note_on_c, 11, 86, 0
15, 95392, Note_on_c, 11, 90, 63
15, 95434, Note_on_c, 11, 90, 0
15, 95456, Note_on_c, 11, 88, 60
15, 95498, Note_on_c, 11, 88, 0
15, 95520, Note_on_c, 11, 90, 62
15, 95536, Note_on_c, 11, 90, 0
15, 95536, Note_on_c, 11, 88, 61
15, 95584, Note_on_c, 11, 88, 0
15, 95584, Note_on_c, 11, 87, 65
15, 95626, Note_on_c, 11, 87, 0
15, 95648, Note_on_c, 11, 87, 63
15, 95690, Note_on_c, 11, 87, 0
15, 95712, Note_on_c, 11, 87, 65
15, 95776, Note_on_c, 11, 87, 0
15, 95776, Note_on_c, 11, 92, 75
15, 95818, Note_on_c, 11, 92, 0
15, 95840, Note_on_c, 11, 90, 76
15, 95882, Note_on_c, 11, 90, 0
15, 96480, Control_c, 11, 11, 64
15, 96480, Note_on_c, 11, 79, 75
15, 97056, Note_on_c, 11, 79, 0
15, 97056, Control_c, 11, 11, 64
15, 97056, Note_on_c, 11, 80, 79
15, 97074, Control_c, 11, 11, 65
15, 97092, Control_c, 11, 11, 66
15, 97110, Control_c, 11, 11, 67
15, 97129, Control_c, 11, 11, 68
15, 97147, Control_c, 11, 11, 69
15, 97165, Control_c, 11, 11, 70
15, 97184, Control_c, 11, 11, 71
15, 97202, Control_c, 11, 11, 72
15, 97220, Control_c, 11, 11, 73
15, 97238, Control_c, 11, 11, 74
15, 97248, Note_on_c, 11, 80, 0
15, 97248, Note_on_c, 11, 83, 71
15, 97257, Control_c, 11, 11, 75
15, 97275, Control_c, 11, 11, 76
15, 97293, Control_c, 11, 11, 77
15, 97312, Control_c, 11, 11, 78
15, 97330, Control_c, 11, 11, 79
15, 97348, Control_c, 11, 11, 80
15, 97366, Control_c, 11, 11, 81
15, 97385, Control_c, 11, 11, 82
15, 97403, Control_c, 11, 11, 83
15, 97421, Control_c, 11, 11, 84
15, 97440, Control_c, 11, 11, 85
15, 97458, Control_c, 11, 11, 86
15, 97476, Control_c, 11, 11, 87
15, 97494, Control_c, 11, 11, 88
15, 97513, Control_c, 11, 11, 89
15, 97531, Control_c, 11, 11, 90
15, 97536, Note_on_c, 11, 83, 0
15, 97536, Note_on_c, 11, 82, 78
15, 97549, Control_c, 11, 11, 91
15, 97568, Control_c, 11, 11, 92
15, 97586, Control_c, 11, 11, 93
15, 97604, Control_c, 11, 11, 94
15, 97622, Control_c, 11, 11, 95
15, 97632, Note_on_c, 11, 82, 0
15, 97632, Note_on_c, 11, 80, 72
15, 97641, Control_c, 11, 11, 96
15, 97659, Control_c, 11, 11, 97
15, 97677, Control_c, 11, 11, 98
15, 97696, Control_c, 11, 11, 99
15, 97714, Control_c, 11, 11, 100
15, 97732, Control_c, 11, 11, 101
15, 97750, Control_c, 11, 11, 102
15, 97769, Control_c, 11, 11, 103
15, 97787, Control_c, 11, 11, 104
15, 97805, Control_c, 11, 11, 105
15, 97824, Note_on_c, 11, 80, 0
15, 97824, Control_c, 11, 11, 106
15, 97824, Note_on_c, 11, 85, 74
15, 97842, Control_c, 11, 11, 107
15, 97860, Control_c, 11, 11, 108
15, 97878, Control_c, 11, 11, 109
15, 97897, Control_c, 11, 11, 110
15, 97915, Control_c, 11, 11, 111
15, 97933, Control_c, 11, 11, 112
15, 97952, Control_c, 11, 11, 113
15, 97970, Control_c, 11, 11, 114
15, 97988, Control_c, 11, 11, 115
15, 98006, Control_c, 11, 11, 116
15, 98016, Note_on_c, 11, 85, 0
15, 98016, Note_on_c, 11, 83, 70
15, 98025, Control_c, 11, 11, 117
15, 98043, Control_c, 11, 11, 118
15, 98061, Control_c, 11, 11, 119
15, 98080, Control_c, 11, 11, 120
15, 98098, Control_c, 11, 11, 121
15, 98116, Control_c, 11, 11, 122
15, 98134, Control_c, 11, 11, 123
15, 98153, Control_c, 11, 11, 124
15, 98171, Control_c, 11, 11, 125
15, 98189, Control_c, 11, 11, 126
15, 98208, Note_on_c, 11, 83, 0
15, 98208, Control_c, 11, 11, 127
15, 98784, Control_c, 11, 11, 64
15, 98784, Note_on_c, 11, 79, 79
15, 99360, Note_on_c, 11, 79, 0
15, 99360, Control_c, 11, 11, 64
15, 99360, Note_on_c, 11, 80, 76
15, 99378, Control_c, 11, 11, 65
15, 99396, Control_c, 11, 11, 66
15, 99414, Control_c, 11, 11, 67
15, 99433, Control_c, 11, 11, 68
15, 99451, Control_c, 11, 11, 69
15, 99469, Control_c, 11, 11, 70
15, 99488, Control_c, 11, 11, 71
15, 99506, Control_c, 11, 11, 72
15, 99524, Control_c, 11, 11, 73
15, 99542, Control_c, 11, 11, 74
15, 99552, Note_on_c, 11, 80, 0
15, 99552, Note_on_c, 11, 83, 76
15, 99561, Control_c, 11, 11, 75
15, 99579, Control_c, 11, 11, 76
15, 99597, Control_c, 11, 11, 77
15, 99616, Control_c, 11, 11, 78
15, 99634, Control_c, 11, 11, 79
15, 99652, Control_c, 11, 11, 80
15, 99670, Control_c, 11, 11, 81
15, 99689, Control_c, 11, 11, 82
15, 99707, Control_c, 11, 11, 83
15, 99725, Control_c, 11, 11, 84
15, 99744, Control_c, 11, 11, 85
15, 99762, Control_c, 11, 11, 86
15, 99780, Control_c, 11, 11, 87
15, 99798, Control_c, 11, 11, 88
15, 99817, Control_c, 11, 11, 89
15, 99835, Control_c, 11, 11, 90
15, 99840, Note_on_c, 11, 83, 0
15, 99840, Note_on_c, 11, 82, 71
15, 99853, Control_c, 11, 11, 91
15, 99872, Control_c, 11, 11, 92
15, 99890, Control_c, 11, 11, 93
15, 99908, Control_c, 11, 11, 94
15, 99926, Control_c, 11, 11, 95
15, 99936, Note_on_c, 11, 82, 0
15, 99936, Note_on_c, 11, 80, 78
15, 99945, Control_c, 11, 11, 96
15, 99963, Control_c, 11, 11, 97
15, 99981, Control_c, 11, 11, 98
15, 100000, Control_c, 11, 11, 99
15, 100018, Control_c, 11, 11, 100
15, 100036, Control_c, 11, 11, 101
15, 100054, Control_c, 11, 11, 102
15, 100073, Control_c, 11, 11, 103
15, 100091, Control_c, 11, 11, 104
15, 100109, Control_c, 11, 11, 105
15, 100128, Note_on_c, 11, 80, 0
15, 100128, Control_c, 11, 11, 106
15, 100128, Note_on_c, 11, 85, 73
15, 100146, Control_c, 11, 11, 107
15, 100164, Control_c, 11, 11, 108
15, 100182, Control_c, 11, 11, 109
15, 100201, Control_c, 11, 11, 110
15, 100219, Control_c, 11, 11, 111
15, 100237, Control_c, 11, 11, 112
15, 100256, Control_c, 11, 11, 113
15, 100274, Control_c, 11, 11, 114
15, 100292, Control_c, 11, 11, 115
15, 100310, Control_c, 11, 11, 116
15, 100320, Note_on_c, 11, 85, 0
15, 100320, Note_on_c, 11, 83, 80
15, 100329, Control_c, 11, 11, 117
15, 100347, Control_c, 11, 11, 118
15, 100365, Control_c, 11, 11, 119
15, 100384, Control_c, 11, 11, 120
15, 100402, Control_c, 11, 11, 121
15, 100420, Control_c, 11, 11, 122
15, 100438, Control_c, 11, 11, 123
15, 100457, Control_c, 11, 11, 124
15, 100475, Control_c, 11, 11, 125
15, 100493, Control_c, 11, 11, 126
15, 100512, Note_on_c, 11, 83, 0
15, 100512, Control_c, 11, 11, 127
15, 100512, Control_c, 11, 11, 92
15, 100512, Note_on_c, 11, 81, 60
15, 100517, Control_c, 11, 11, 93
15, 100522, Control_c, 11, 11, 94
15, 100528, Control_c, 11, 11, 95
15, 100533, Control_c, 11, 11, 96
15, 100539, Control_c, 11, 11, 97
15, 100544, Control_c, 11, 11, 98
15, 100550, Control_c, 11, 11, 99
15, 100555, Control_c, 11, 11, 100
15, 100561, Control_c, 11, 11, 101
15, 100566, Control_c, 11, 11, 102
15, 100572, Control_c, 11, 11, 103
15, 100577, Control_c, 11, 11, 104
15, 100583, Control_c, 11, 11, 105
15, 100588, Control_c, 11, 11, 106
15, 100594, Control_c, 11, 11, 107
15, 100599, Control_c, 11, 11, 108
15, 100605, Control_c, 11, 11, 109
15, 100610, Control_c, 11, 11, 110
15, 100616, Control_c, 11, 11, 111
15, 100621, Control_c, 11, 11, 112
15, 100627, Control_c, 11, 11, 113
15, 100632, Control_c, 11, 11, 114
15, 100638, Control_c, 11, 11, 115
15, 100643, Control_c, 11, 11, 116
15, 100649, Control_c, 11, 11, 117
15, 100654, Control_c, 11, 11, 118
15, 100660, Control_c, 11, 11, 119
15, 100665, Control_c, 11, 11, 120
15, 100671, Control_c, 11, 11, 121
15, 100676, Control_c, 11, 11, 122
15, 100682, Control_c, 11, 11, 123
15, 100687, Control_c, 11, 11, 124
15, 100693, Control_c, 11, 11, 125
15, 100698, Control_c, 11, 11, 126
15, 100704, Note_on_c, 11, 81, 0
15, 100704, Control_c, 11, 11, 127
15, 100704, Note_on_c, 11, 87, 63
15, 100992, Note_on_c, 11, 87, 0
15, 100992, Note_on_c, 11, 85, 62
15, 101088, Note_on_c, 11, 85, 0
15, 101088, Note_on_c, 11, 81, 59
15, 101280, Note_on_c, 11, 81, 0
15, 101280, Control_c, 11, 11, 127
15, 101280, Note_on_c, 11, 80, 56
15, 101290, Control_c, 11, 11, 126
15, 101301, Control_c, 11, 11, 125
15, 101312, Control_c, 11, 11, 124
15, 101322, Note_on_c, 11, 80, 0
15, 101323, Control_c, 11, 11, 123
15, 101334, Control_c, 11, 11, 122
15, 101344, Note_on_c, 11, 80, 65
15, 101345, Control_c, 11, 11, 121
15, 101356, Control_c, 11, 11, 120
15, 101367, Control_c, 11, 11, 119
15, 101378, Control_c, 11, 11, 118
15, 101386, Note_on_c, 11, 80, 0
15, 101389, Control_c, 11, 11, 117
15, 101400, Control_c, 11, 11, 116
15, 101408, Note_on_c, 11, 80, 60
15, 101411, Control_c, 11, 11, 115
15, 101422, Control_c, 11, 11, 114
15, 101433, Control_c, 11, 11, 113
15, 101444, Control_c, 11, 11, 112
15, 101450, Note_on_c, 11, 80, 0
15, 101455, Control_c, 11, 11, 111
15, 101466, Control_c, 11, 11, 110
15, 101472, Note_on_c, 11, 76, 64
15, 101477, Control_c, 11, 11, 109
15, 101488, Control_c, 11, 11, 108
15, 101499, Control_c, 11, 11, 107
15, 101510, Control_c, 11, 11, 106
15, 101514, Note_on_c, 11, 76, 0
15, 101521, Control_c, 11, 11, 105
15, 101532, Control_c, 11, 11, 104
15, 101536, Note_on_c, 11, 76, 60
15, 101543, Control_c, 11, 11, 103
15, 101554, Control_c, 11, 11, 102
15, 101565, Control_c, 11, 11, 101
15, 101576, Control_c, 11, 11, 100
15, 101578, Note_on_c, 11, 76, 0
15, 101587, Control_c, 11, 11, 99
15, 101598, Control_c, 11, 11, 98
15, 101600, Note_on_c, 11, 76, 59
15, 101609, Control_c, 11, 11, 97
15, 101620, Control_c, 11, 11, 96
15, 101631, Control_c, 11, 11, 95
15, 101642, Note_on_c, 11, 76, 0
15, 101642, Control_c, 11, 11, 94
15, 101653, Control_c, 11, 11, 93
15, 101664, Control_c, 11, 11, 92
15, 101664, Note_on_c, 11, 78, 63
15, 101669, Control_c, 11, 11, 93
15, 101674, Control_c, 11, 11, 94
15, 101680, Control_c, 11, 11, 95
15, 101685, Control_c, 11, 11, 96
15, 101691, Control_c, 11, 11, 97
15, 101696, Control_c, 11, 11, 98
15, 101702, Control_c, 11, 11, 99
15, 101707, Control_c, 11, 11, 100
15, 101713, Control_c, 11, 11, 101
15, 101718, Control_c, 11, 11, 102
15, 101724, Control_c, 11, 11, 103
15, 101729, Control_c, 11, 11, 104
15, 101735, Control_c, 11, 11, 105
15, 101740, Control_c, 11, 11, 106
15, 101746, Control_c, 11, 11, 107
15, 101751, Control_c, 11, 11, 108
15, 101757, Control_c, 11, 11, 109
15, 101762, Control_c, 11, 11, 110
15, 101768, Control_c, 11, 11, 111
15, 101773, Control_c, 11, 11, 112
15, 101779, Control_c, 11, 11, 113
15, 101784, Control_c, 11, 11, 114
15, 101790, Control_c, 11, 11, 115
15, 101795, Control_c, 11, 11, 116
15, 101801, Control_c, 11, 11, 117
15, 101806, Control_c, 11, 11, 118
15, 101812, Control_c, 11, 11, 119
15, 101817, Control_c, 11, 11, 120
15, 101823, Control_c, 11, 11, 121
15, 101828, Control_c, 11, 11, 122
15, 101834, Control_c, 11, 11, 123
15, 101839, Control_c, 11, 11, 124
15, 101845, Control_c, 11, 11, 125
15, 101850, Control_c, 11, 11, 126
15, 101856, Note_on_c, 11, 78, 0
15, 101856, Control_c, 11, 11, 127
15, 101856, Note_on_c, 11, 83, 57
15, 101898, Note_on_c, 11, 83, 0
15, 101920, Note_on_c, 11, 83, 55
15, 101962, Note_on_c, 11, 83, 0
15, 101984, Note_on_c, 11, 83, 61
15, 102026, Note_on_c, 11, 83, 0
15, 102048, Note_on_c, 11, 81, 65
15, 102090, Note_on_c, 11, 81, 0
15, 102112, Note_on_c, 11, 81, 63
15, 102154, Note_on_c, 11, 81, 0
15, 102176, Note_on_c, 11, 81, 61
15, 102240, Control_c, 11, 11, 92
15, 102245, Control_c, 11, 11, 93
15, 102250, Control_c, 11, 11, 94
15, 102256, Control_c, 11, 11, 95
15, 102261, Control_c, 11, 11, 96
15, 102267, Control_c, 11, 11, 97
15, 102272, Control_c, 11, 11, 98
15, 102278, Control_c, 11, 11, 99
15, 102283, Control_c, 11, 11, 100
15, 102289, Control_c, 11, 11, 101
15, 102294, Control_c, 11, 11, 102
15, 102300, Control_c, 11, 11, 103
15, 102305, Control_c, 11, 11, 104
15, 102311, Control_c, 11, 11, 105
15, 102316, Control_c, 11, 11, 106
15, 102322, Control_c, 11, 11, 107
15, 102327, Control_c, 11, 11, 108
15, 102333, Control_c, 11, 11, 109
15, 102338, Control_c, 11, 11, 110
15, 102344, Control_c, 11, 11, 111
15, 102349, Control_c, 11, 11, 112
15, 102355, Control_c, 11, 11, 113
15, 102360, Control_c, 11, 11, 114
15, 102366, Control_c, 11, 11, 115
15, 102371, Control_c, 11, 11, 116
15, 102377, Control_c, 11, 11, 117
15, 102382, Control_c, 11, 11, 118
15, 102388, Control_c, 11, 11, 119
15, 102393, Control_c, 11, 11, 120
15, 102399, Control_c, 11, 11, 121
15, 102404, Control_c, 11, 11, 122
15, 102410, Control_c, 11, 11, 123
15, 102415, Control_c, 11, 11, 124
15, 102421, Control_c, 11, 11, 125
15, 102426, Control_c, 11, 11, 126
15, 102432, Note_on_c, 11, 81, 0
15, 102432, Control_c, 11, 11, 127
15, 102432, Note_on_c, 11, 87, 61
15, 102474, Note_on_c, 11, 87, 0
15, 102496, Note_on_c, 11, 87, 63
15, 102538, Note_on_c, 11, 87, 0
15, 102560, Note_on_c, 11, 87, 65
15, 102602, Note_on_c, 11, 87, 0
15, 102624, Note_on_c, 11, 85, 57
15, 102666, Note_on_c, 11, 85, 0
15, 102688, Note_on_c, 11, 85, 64
15, 102730, Note_on_c, 11, 85, 0
15, 102752, Note_on_c, 11, 85, 60
15, 102794, Note_on_c, 11, 85, 0
15, 102816, Control_c, 11, 11, 92
15, 102816, Note_on_c, 11, 90, 76
15, 102821, Control_c, 11, 11, 93
15, 102826, Control_c, 11, 11, 94
15, 102832, Control_c, 11, 11, 95
15, 102837, Control_c, 11, 11, 96
15, 102843, Control_c, 11, 11, 97
15, 102848, Control_c, 11, 11, 98
15, 102854, Control_c, 11, 11, 99
15, 102859, Control_c, 11, 11, 100
15, 102865, Control_c, 11, 11, 101
15, 102870, Control_c, 11, 11, 102
15, 102876, Control_c, 11, 11, 103
15, 102881, Control_c, 11, 11, 104
15, 102887, Control_c, 11, 11, 105
15, 102892, Control_c, 11, 11, 106
15, 102898, Control_c, 11, 11, 107
15, 102903, Control_c, 11, 11, 108
15, 102909, Control_c, 11, 11, 109
15, 102914, Control_c, 11, 11, 110
15, 102920, Control_c, 11, 11, 111
15, 102925, Control_c, 11, 11, 112
15, 102931, Control_c, 11, 11, 113
15, 102936, Control_c, 11, 11, 114
15, 102942, Control_c, 11, 11, 115
15, 102947, Control_c, 11, 11, 116
15, 102953, Control_c, 11, 11, 117
15, 102958, Control_c, 11, 11, 118
15, 102964, Control_c, 11, 11, 119
15, 102969, Control_c, 11, 11, 120
15, 102975, Control_c, 11, 11, 121
15, 102980, Control_c, 11, 11, 122
15, 102986, Control_c, 11, 11, 123
15, 102991, Control_c, 11, 11, 124
15, 102997, Control_c, 11, 11, 125
15, 103002, Control_c, 11, 11, 126
15, 103008, Note_on_c, 11, 90, 0
15, 103008, Control_c, 11, 11, 127
15, 103008, Note_on_c, 11, 95, 72
15, 103296, Note_on_c, 11, 95, 0
15, 103296, Note_on_c, 11, 92, 74
15, 103392, Note_on_c, 11, 92, 0
15, 103392, Note_on_c, 11, 90, 74
15, 103584, Note_on_c, 11, 90, 0
15, 103584, Control_c, 11, 11, 127
15, 103584, Note_on_c, 11, 88, 79
15, 103599, Control_c, 11, 11, 126
15, 103614, Control_c, 11, 11, 125
15, 103626, Note_on_c, 11, 88, 0
15, 103629, Control_c, 11, 11, 124
15, 103644, Control_c, 11, 11, 123
15, 103648, Note_on_c, 11, 88, 80
15, 103660, Control_c, 11, 11, 122
15, 103675, Control_c, 11, 11, 121
15, 103690, Note_on_c, 11, 88, 0
15, 103690, Control_c, 11, 11, 120
15, 103705, Control_c, 11, 11, 119
15, 103712, Note_on_c, 11, 88, 79
15, 103721, Control_c, 11, 11, 118
15, 103736, Control_c, 11, 11, 117
15, 103751, Control_c, 11, 11, 116
15, 103754, Note_on_c, 11, 88, 0
15, 103766, Control_c, 11, 11, 115
15, 103776, Note_on_c, 11, 85, 73
15, 103782, Control_c, 11, 11, 114
15, 103797, Control_c, 11, 11, 113
15, 103812, Control_c, 11, 11, 112
15, 103818, Note_on_c, 11, 85, 0
15, 103827, Control_c, 11, 11, 111
15, 103840, Note_on_c, 11, 85, 72
15, 103843, Control_c, 11, 11, 110
15, 103858, Control_c, 11, 11, 109
15, 103873, Control_c, 11, 11, 108
15, 103882, Note_on_c, 11, 85, 0
15, 103888, Control_c, 11, 11, 107
15, 103904, Control_c, 11, 11, 106
15, 103904, Note_on_c, 11, 85, 71
15, 103919, Control_c, 11, 11, 105
15, 103934, Control_c, 11, 11, 104
15, 103946, Note_on_c, 11, 85, 0
15, 103949, Control_c, 11, 11, 103
15, 103964, Control_c, 11, 11, 102
15, 103968, Note_on_c, 11, 83, 78
15, 103980, Control_c, 11, 11, 101
15, 103995, Control_c, 11, 11, 100
15, 104010, Note_on_c, 11, 83, 0
15, 104010, Control_c, 11, 11, 99
15, 104025, Control_c, 11, 11, 98
15, 104032, Note_on_c, 11, 83, 80
15, 104041, Control_c, 11, 11, 97
15, 104056, Control_c, 11, 11, 96
15, 104071, Control_c, 11, 11, 95
15, 104074, Note_on_c, 11, 83, 0
15, 104086, Control_c, 11, 11, 94
15, 104096, Note_on_c, 11, 83, 72
15, 104102, Control_c, 11, 11, 93
15, 104117, Control_c, 11, 11, 92
15, 104132, Control_c, 11, 11, 91
15, 104138, Note_on_c, 11, 83, 0
15, 104147, Control_c, 11, 11, 90
15, 104160, Note_on_c, 11, 80, 73
15, 104163, Control_c, 11, 11, 89
15, 104178, Control_c, 11, 11, 88
15, 104193, Control_c, 11, 11, 87
15, 104202, Note_on_c, 11, 80, 0
15, 104208, Control_c, 11, 11, 86
15, 104224, Control_c, 11, 11, 85
15, 104224, Note_on_c, 11, 80, 80
15, 104239, Control_c, 11, 11, 84
15, 104254, Control_c, 11, 11, 83
15, 104266, Note_on_c, 11, 80, 0
15, 104269, Control_c, 11, 11, 82
15, 104284, Control_c, 11, 11, 81
15, 104288, Note_on_c, 11, 80, 79
15, 104300, Control_c, 11, 11, 80
15, 104315, Control_c, 11, 11, 79
15, 104330, Note_on_c, 11, 80, 0
15, 104330, Control_c, 11, 11, 78
15, 104345, Control_c, 11, 11, 77
15, 104352, Note_on_c, 11, 78, 75
15, 104361, Control_c, 11, 11, 76
15, 104376, Control_c, 11, 11, 75
15, 104391, Control_c, 11, 11, 74
15, 104394, Note_on_c, 11, 78, 0
15, 104406, Control_c, 11, 11, 73
15, 104416, Note_on_c, 11, 78, 75
15, 104422, Control_c, 11, 11, 72
15, 104437, Control_c, 11, 11, 71
15, 104452, Control_c, 11, 11, 70
15, 104458, Note_on_c, 11, 78, 0
15, 104467, Control_c, 11, 11, 69
15, 104480, Note_on_c, 11, 78, 77
15, 104483, Control_c, 11, 11, 68
15, 104498, Control_c, 11, 11, 67
15, 104513, Control_c, 11, 11, 66
15, 104528, Control_c, 11, 11, 65
15, 104544, Control_c, 11, 11, 64
15, 104553, Control_c, 11, 11, 65
15, 104562, Control_c, 11, 11, 66
15, 104571, Control_c, 11, 11, 67
15, 104580, Control_c, 11, 11, 68
15, 104589, Control_c, 11, 11, 69
15, 104598, Control_c, 11, 11, 70
15, 104608, Control_c, 11, 11, 71
15, 104617, Control_c, 11, 11, 72
15, 104626, Control_c, 11, 11, 73
15, 104635, Control_c, 11, 11, 74
15, 104640, Note_on_c, 11, 78, 0
15, 104640, Note_on_c, 11, 80, 72
15, 104644, Control_c, 11, 11, 75
15, 104653, Control_c, 11, 11, 76
15, 104662, Control_c, 11, 11, 77
15, 104672, Control_c, 11, 11, 78
15, 104681, Control_c, 11, 11, 79
15, 104690, Control_c, 11, 11, 80
15, 104699, Control_c, 11, 11, 81
15, 104708, Control_c, 11, 11, 82
15, 104717, Control_c, 11, 11, 83
15, 104726, Control_c, 11, 11, 84
15, 104736, Note_on_c, 11, 80, 0
15, 104736, Control_c, 11, 11, 85
15, 104736, Note_on_c, 11, 83, 70
15, 104745, Control_c, 11, 11, 86
15, 104754, Control_c, 11, 11, 87
15, 104763, Control_c, 11, 11, 88
15, 104772, Control_c, 11, 11, 89
15, 104781, Control_c, 11, 11, 90
15, 104790, Control_c, 11, 11, 91
15, 104800, Control_c, 11, 11, 92
15, 104809, Control_c, 11, 11, 93
15, 104818, Control_c, 11, 11, 94
15, 104827, Control_c, 11, 11, 95
15, 104832, Note_on_c, 11, 83, 0
15, 104832, Note_on_c, 11, 85, 70
15, 104836, Control_c, 11, 11, 96
15, 104845, Control_c, 11, 11, 97
15, 104854, Control_c, 11, 11, 98
15, 104864, Control_c, 11, 11, 99
15, 104873, Control_c, 11, 11, 100
15, 104882, Control_c, 11, 11, 101
15, 104891, Control_c, 11, 11, 102
15, 104900, Control_c, 11, 11, 103
15, 104909, Control_c, 11, 11, 104
15, 104918, Control_c, 11, 11, 105
15, 104928, Note_on_c, 11, 85, 0
15, 104928, Control_c, 11, 11, 106
15, 104928, Note_on_c, 11, 88, 71
15, 104937, Control_c, 11, 11, 107
15, 104946, Control_c, 11, 11, 108
15, 104955, Control_c, 11, 11, 109
15, 104964, Control_c, 11, 11, 110
15, 104973, Control_c, 11, 11, 111
15, 104982, Control_c, 11, 11, 112
15, 104992, Control_c, 11, 11, 113
15, 105001, Control_c, 11, 11, 114
15, 105010, Control_c, 11, 11, 115
15, 105019, Control_c, 11, 11, 116
15, 105024, Note_on_c, 11, 88, 0
15, 105024, Note_on_c, 11, 90, 72
15, 105028, Control_c, 11, 11, 117
15, 105037, Control_c, 11, 11, 118
15, 105046, Control_c, 11, 11, 119
15, 105056, Control_c, 11, 11, 120
15, 105065, Control_c, 11, 11, 121
15, 105074, Control_c, 11, 11, 122
15, 105083, Control_c, 11, 11, 123
15, 105092, Control_c, 11, 11, 124
15, 105101, Control_c, 11, 11, 125
15, 105110, Control_c, 11, 11, 126
15, 105120, Note_on_c, 11, 90, 0
15, 105120, Control_c, 11, 11, 127
15, 105120, Control_c, 11, 11, 92
15, 105120, Note_on_c, 11, 90, 72
15, 105125, Control_c, 11, 11, 93
15, 105130, Control_c, 11, 11, 94
15, 105136, Control_c, 11, 11, 95
15, 105141, Control_c, 11, 11, 96
15, 105147, Control_c, 11, 11, 97
15, 105152, Control_c, 11, 11, 98
15, 105158, Control_c, 11, 11, 99
15, 105163, Control_c, 11, 11, 100
15, 105169, Control_c, 11, 11, 101
15, 105174, Control_c, 11, 11, 102
15, 105180, Control_c, 11, 11, 103
15, 105185, Control_c, 11, 11, 104
15, 105191, Control_c, 11, 11, 105
15, 105196, Control_c, 11, 11, 106
15, 105202, Control_c, 11, 11, 107
15, 105207, Control_c, 11, 11, 108
15, 105213, Control_c, 11, 11, 109
15, 105218, Control_c, 11, 11, 110
15, 105224, Control_c, 11, 11, 111
15, 105229, Control_c, 11, 11, 112
15, 105235, Control_c, 11, 11, 113
15, 105240, Control_c, 11, 11, 114
15, 105246, Control_c, 11, 11, 115
15, 105251, Control_c, 11, 11, 116
15, 105257, Control_c, 11, 11, 117
15, 105262, Control_c, 11, 11, 118
15, 105268, Control_c, 11, 11, 119
15, 105273, Control_c, 11, 11, 120
15, 105279, Control_c, 11, 11, 121
15, 105284, Control_c, 11, 11, 122
15, 105290, Control_c, 11, 11, 123
15, 105295, Control_c, 11, 11, 124
15, 105301, Control_c, 11, 11, 125
15, 105306, Control_c, 11, 11, 126
15, 105312, Note_on_c, 11, 90, 0
15, 105312, Control_c, 11, 11, 127
15, 105312, Note_on_c, 11, 95, 79
15, 105600, Note_on_c, 11, 95, 0
15, 105600, Note_on_c, 11, 92, 76
15, 105696, Note_on_c, 11, 92, 0
15, 105696, Note_on_c, 11, 90, 78
15, 105888, Note_on_c, 11, 90, 0
15, 105888, Control_c, 11, 11, 127
15, 105888, Note_on_c, 11, 88, 72
15, 105903, Control_c, 11, 11, 126
15, 105918, Control_c, 11, 11, 125
15, 105930, Note_on_c, 11, 88, 0
15, 105933, Control_c, 11, 11, 124
15, 105948, Control_c, 11, 11, 123
15, 105952, Note_on_c, 11, 88, 75
15, 105964, Control_c, 11, 11, 122
15, 105979, Control_c, 11, 11, 121
15, 105994, Note_on_c, 11, 88, 0
15, 105994, Control_c, 11, 11, 120
15, 106009, Control_c, 11, 11, 119
15, 106016, Note_on_c, 11, 88, 71
15, 106025, Control_c, 11, 11, 118
15, 106040, Control_c, 11, 11, 117
15, 106055, Control_c, 11, 11, 116
15, 106058, Note_on_c, 11, 88, 0
15, 106070, Control_c, 11, 11, 115
15, 106080, Note_on_c, 11, 85, 80
15, 106086, Control_c, 11, 11, 114
15, 106101, Control_c, 11, 11, 113
15, 106116, Control_c, 11, 11, 112
15, 106122, Note_on_c, 11, 85, 0
15, 106131, Control_c, 11, 11, 111
15, 106144, Note_on_c, 11, 85, 70
15, 106147, Control_c, 11, 11, 110
15, 106162, Control_c, 11, 11, 109
15, 106177, Control_c, 11, 11, 108
15, 106186, Note_on_c, 11, 85, 0
15, 106192, Control_c, 11, 11, 107
15, 106208, Control_c, 11, 11, 106
15, 106208, Note_on_c, 11, 85, 74
15, 106223, Control_c, 11, 11, 105
15, 106238, Control_c, 11, 11, 104
15, 106250, Note_on_c, 11, 85, 0
15, 106253, Control_c, 11, 11, 103
15, 106268, Control_c, 11, 11, 102
15, 106272, Note_on_c, 11, 83, 73
15, 106284, Control_c, 11, 11, 101
15, 106299, Control_c, 11, 11, 100
15, 106314, Note_on_c, 11, 83, 0
15, 106314, Control_c, 11, 11, 99
15, 106329, Control_c, 11, 11, 98
15, 106336, Note_on_c, 11, 83, 77
15, 106345, Control_c, 11, 11, 97
15, 106360, Control_c, 11, 11, 96
15, 106375, Control_c, 11, 11, 95
15, 106378, Note_on_c, 11, 83, 0
15, 106390, Control_c, 11, 11, 94
15, 106400, Note_on_c, 11, 83, 79
15, 106406, Control_c, 11, 11, 93
15, 106421, Control_c, 11, 11, 92
15, 106436, Control_c, 11, 11, 91
15, 106442, Note_on_c, 11, 83, 0
15, 106451, Control_c, 11, 11, 90
15, 106464, Note_on_c, 11, 80, 75
15, 106467, Control_c, 11, 11, 89
15, 106482, Control_c, 11, 11, 88
15, 106497, Control_c, 11, 11, 87
15, 106506, Note_on_c, 11, 80, 0
15, 106512, Control_c, 11, 11, 86
15, 106528, Control_c, 11, 11, 85
15, 106528, Note_on_c, 11, 80, 73
15, 106543, Control_c, 11, 11, 84
15, 106558, Control_c, 11, 11, 83
15, 106570, Note_on_c, 11, 80, 0
15, 106573, Control_c, 11, 11, 82
15, 106588, Control_c, 11, 11, 81
15, 106592, Note_on_c, 11, 80, 70
15, 106604, Control_c, 11, 11, 80
15, 106619, Control_c, 11, 11, 79
15, 106634, Note_on_c, 11, 80, 0
15, 106634, Control_c, 11, 11, 78
15, 106649, Control_c, 11, 11, 77
15, 106656, Note_on_c, 11, 78, 76
15, 106665, Control_c, 11, 11, 76
15, 106680, Control_c, 11, 11, 75
15, 106695, Control_c, 11, 11, 74
15, 106698, Note_on_c, 11, 78, 0
15, 106710, Control_c, 11, 11, 73
15, 106720, Note_on_c, 11, 78, 80
15, 106726, Control_c, 11, 11, 72
15, 106741, Control_c, 11, 11, 71
15, 106756, Control_c, 11, 11, 70
15, 106762, Note_on_c, 11, 78, 0
15, 106771, Control_c, 11, 11, 69
15, 106784, Note_on_c, 11, 78, 70
15, 106787, Control_c, 11, 11, 68
15, 106802, Control_c, 11, 11, 67
15, 106817, Control_c, 11, 11, 66
15, 106832, Control_c, 11, 11, 65
15, 106848, Control_c, 11, 11, 64
15, 106857, Control_c, 11, 11, 65
15, 106866, Control_c, 11, 11, 66
15, 106875, Control_c, 11, 11, 67
15, 106884, Control_c, 11, 11, 68
15, 106893, Control_c, 11, 11, 69
15, 106902, Control_c, 11, 11, 70
15, 106912, Control_c, 11, 11, 71
15, 106921, Control_c, 11, 11, 72
15, 106930, Control_c, 11, 11, 73
15, 106939, Control_c, 11, 11, 74
15, 106944, Note_on_c, 11, 78, 0
15, 106944, Note_on_c, 11, 80, 77
15, 106948, Control_c, 11, 11, 75
15, 106957, Control_c, 11, 11, 76
15, 106966, Control_c, 11, 11, 77
15, 106976, Control_c, 11, 11, 78
15, 106985, Control_c, 11, 11, 79
15, 106994, Control_c, 11, 11, 80
15, 107003, Control_c, 11, 11, 81
15, 107012, Control_c, 11, 11, 82
15, 107021, Control_c, 11, 11, 83
15, 107030, Control_c, 11, 11, 84
15, 107040, Note_on_c, 11, 80, 0
15, 107040, Control_c, 11, 11, 85
15, 107040, Note_on_c, 11, 83, 74
15, 107049, Control_c, 11, 11, 86
15, 107058, Control_c, 11, 11, 87
15, 107067, Control_c, 11, 11, 88
15, 107076, Control_c, 11, 11, 89
15, 107085, Control_c, 11, 11, 90
15, 107094, Control_c, 11, 11, 91
15, 107104, Control_c, 11, 11, 92
15, 107113, Control_c, 11, 11, 93
15, 107122, Control_c, 11, 11, 94
15, 107131, Control_c, 11, 11, 95
15, 107136, Note_on_c, 11, 83, 0
15, 107136, Note_on_c, 11, 85, 78
15, 107140, Control_c, 11, 11, 96
15, 107149, Control_c, 11, 11, 97
15, 107158, Control_c, 11, 11, 98
15, 107168, Control_c, 11, 11, 99
15, 107177, Control_c, 11, 11, 100
15, 107186, Control_c, 11, 11, 101
15, 107195, Control_c, 11, 11, 102
15, 107204, Control_c, 11, 11, 103
15, 107213, Control_c, 11, 11, 104
15, 107222, Control_c, 11, 11, 105
15, 107232, Note_on_c, 11, 85, 0
15, 107232, Control_c, 11, 11, 106
15, 107232, Note_on_c, 11, 88, 70
15, 107241, Control_c, 11, 11, 107
15, 107250, Control_c, 11, 11, 108
15, 107259, Control_c, 11, 11, 109
15, 107268, Control_c, 11, 11, 110
15, 107277, Control_c, 11, 11, 111
15, 107286, Control_c, 11, 11, 112
15, 107296, Control_c, 11, 11, 113
15, 107305, Control_c, 11, 11, 114
15, 107314, Control_c, 11, 11, 115
15, 107323, Control_c, 11, 11, 116
15, 107328, Note_on_c, 11, 88, 0
15, 107328, Note_on_c, 11, 90, 77
15, 107332, Control_c, 11, 11, 117
15, 107341, Control_c, 11, 11, 118
15, 107350, Control_c, 11, 11, 119
15, 107360, Control_c, 11, 11, 120
15, 107369, Control_c, 11, 11, 121
15, 107378, Control_c, 11, 11, 122
15, 107387, Control_c, 11, 11, 123
15, 107396, Control_c, 11, 11, 124
15, 107405, Control_c, 11, 11, 125
15, 107414, Control_c, 11, 11, 126
15, 107424, Note_on_c, 11, 90, 0
15, 107424, Control_c, 11, 11, 127
15, 107424, Control_c, 11, 11, 92
15, 107424, Note_on_c, 11, 90, 87
15, 107429, Control_c, 11, 11, 93
15, 107434, Control_c, 11, 11, 94
15, 107440, Control_c, 11, 11, 95
15, 107445, Control_c, 11, 11, 96
15, 107451, Control_c, 11, 11, 97
15, 107456, Control_c, 11, 11, 98
15, 107462, Control_c, 11, 11, 99
15, 107467, Control_c, 11, 11, 100
15, 107473, Control_c, 11, 11, 101
15, 107478, Control_c, 11, 11, 102
15, 107484, Control_c, 11, 11, 103
15, 107489, Control_c, 11, 11, 104
15, 107495, Control_c, 11, 11, 105
15, 107500, Control_c, 11, 11, 106
15, 107506, Control_c, 11, 11, 107
15, 107511, Control_c, 11, 11, 108
15, 107517, Control_c, 11, 11, 109
15, 107522, Control_c, 11, 11, 110
15, 107528, Control_c, 11, 11, 111
15, 107533, Control_c, 11, 11, 112
15, 107539, Control_c, 11, 11, 113
15, 107544, Control_c, 11, 11, 114
15, 107550, Control_c, 11, 11, 115
15, 107555, Control_c, 11, 11, 116
15, 107561, Control_c, 11, 11, 117
15, 107566, Control_c, 11, 11, 118
15, 107572, Control_c, 11, 11, 119
15, 107577, Control_c, 11, 11, 120
15, 107583, Control_c, 11, 11, 121
15, 107588, Control_c, 11, 11, 122
15, 107594, Control_c, 11, 11, 123
15, 107599, Control_c, 11, 11, 124
15, 107605, Control_c, 11, 11, 125
15, 107610, Control_c, 11, 11, 126
15, 107616, Note_on_c, 11, 90, 0
15, 107616, Control_c, 11, 11, 127
15, 107616, Note_on_c, 11, 96, 88
15, 107904, Note_on_c, 11, 96, 0
15, 107904, Note_on_c, 11, 92, 91
15, 108000, Note_on_c, 11, 92, 0
15, 108000, Note_on_c, 11, 90, 92
15, 108192, Note_on_c, 11, 90, 0
15, 108192, Note_on_c, 11, 89, 94
15, 108234, Note_on_c, 11, 89, 0
15, 108256, Note_on_c, 11, 89, 84
15, 108298, Note_on_c, 11, 89, 0
15, 108320, Note_on_c, 11, 89, 89
15, 108362, Note_on_c, 11, 89, 0
15, 108384, Note_on_c, 11, 85, 91
15, 108426, Note_on_c, 11, 85, 0
15, 108448, Note_on_c, 11, 85, 91
15, 108490, Note_on_c, 11, 85, 0
15, 108512, Note_on_c, 11, 85, 80
15, 108554, Note_on_c, 11, 85, 0
15, 108576, Note_on_c, 11, 84, 89
15, 108618, Note_on_c, 11, 84, 0
15, 108640, Note_on_c, 11, 84, 82
15, 108682, Note_on_c, 11, 84, 0
15, 108704, Note_on_c, 11, 84, 83
15, 108746, Note_on_c, 11, 84, 0
15, 108768, Note_on_c, 11, 80, 81
15, 108810, Note_on_c, 11, 80, 0
15, 108832, Note_on_c, 11, 80, 77
15, 108874, Note_on_c, 11, 80, 0
15, 108896, Note_on_c, 11, 80, 74
15, 108938, Note_on_c, 11, 80, 0
15, 108960, Note_on_c, 11, 78, 80
15, 109002, Note_on_c, 11, 78, 0
15, 109024, Note_on_c, 11, 78, 77
15, 109066, Note_on_c, 11, 78, 0
15, 109088, Note_on_c, 11, 78, 81
15, 109248, Note_on_c, 11, 78, 0
15, 109248, Note_on_c, 11, 80, 74
15, 109280, Note_on_c, 11, 80, 0
15, 109344, Note_on_c, 11, 84, 82
15, 109440, Note_on_c, 11, 84, 0
15, 109440, Note_on_c, 11, 85, 80
15, 109536, Note_on_c, 11, 85, 0
15, 109536, Note_on_c, 11, 89, 88
15, 109632, Note_on_c, 11, 89, 0
15, 109632, Note_on_c, 11, 90, 85
15, 109728, Note_on_c, 11, 90, 0
15, 109728, Note_on_c, 11, 92, 90
15, 109770, Note_on_c, 11, 92, 0
15, 109792, Note_on_c, 11, 92, 87
15, 109834, Note_on_c, 11, 92, 0
15, 109856, Note_on_c, 11, 92, 92
15, 109898, Note_on_c, 11, 92, 0
15, 109920, Note_on_c, 11, 89, 91
15, 109962, Note_on_c, 11, 89, 0
15, 109984, Note_on_c, 11, 89, 93
15, 110026, Note_on_c, 11, 89, 0
15, 110048, Note_on_c, 11, 89, 92
15, 110090, Note_on_c, 11, 89, 0
15, 110112, Note_on_c, 11, 92, 94
15, 110154, Note_on_c, 11, 92, 0
15, 110176, Note_on_c, 11, 92, 91
15, 110218, Note_on_c, 11, 92, 0
15, 110240, Note_on_c, 11, 92, 97
15, 110400, Note_on_c, 11, 92, 0
15, 110496, Note_on_c, 11, 89, 87
15, 110538, Note_on_c, 11, 89, 0
15, 110560, Note_on_c, 11, 89, 91
15, 110602, Note_on_c, 11, 89, 0
15, 110624, Note_on_c, 11, 89, 90
15, 110666, Note_on_c, 11, 89, 0
15, 110688, Note_on_c, 11, 92, 89
15, 110730, Note_on_c, 11, 92, 0
15, 110752, Note_on_c, 11, 92, 92
15, 110794, Note_on_c, 11, 92, 0
15, 110816, Note_on_c, 11, 92, 94
15, 110858, Note_on_c, 11, 92, 0
15, 110880, Note_on_c, 11, 92, 87
15, 110922, Note_on_c, 11, 92, 0
15, 110944, Note_on_c, 11, 92, 96
15, 110986, Note_on_c, 11, 92, 0
15, 111008, Note_on_c, 11, 92, 95
15, 111050, Note_on_c, 11, 92, 0
15, 111072, Note_on_c, 11, 89, 96
15, 111114, Note_on_c, 11, 89, 0
15, 111136, Note_on_c, 11, 89, 94
15, 111178, Note_on_c, 11, 89, 0
15, 111200, Note_on_c, 11, 89, 90
15, 111242, Note_on_c, 11, 89, 0
15, 111264, Note_on_c, 11, 92, 94
15, 111360, Note_on_c, 11, 92, 0
15, 111456, Note_on_c, 11, 71, 74
15, 111488, Note_on_c, 11, 71, 0
15, 111504, Note_on_c, 11, 71, 74
15, 111536, Note_on_c, 11, 71, 0
15, 111552, Note_on_c, 11, 74, 72
15, 111584, Note_on_c, 11, 74, 0
15, 111600, Note_on_c, 11, 74, 78
15, 111632, Note_on_c, 11, 74, 0
15, 111648, Note_on_c, 11, 77, 74
15, 111680, Note_on_c, 11, 77, 0
15, 111696, Note_on_c, 11, 77, 75
15, 111728, Note_on_c, 11, 77, 0
15, 111744, Note_on_c, 11, 80, 78
15, 111776, Note_on_c, 11, 80, 0
15, 111792, Note_on_c, 11, 80, 88
15, 111824, Note_on_c, 11, 80, 0
15, 111840, Note_on_c, 11, 83, 88
15, 111872, Note_on_c, 11, 83, 0
15, 111888, Note_on_c, 11, 83, 90
15, 111920, Note_on_c, 11, 83, 0
15, 111936, Note_on_c, 11, 86, 90
15, 111968, Note_on_c, 11, 86, 0
15, 111984, Note_on_c, 11, 86, 92
15, 112016, Note_on_c, 11, 86, 0
15, 112032, Control_c, 11, 11, 92
15, 112032, Note_on_c, 11, 90, 103
15, 112037, Control_c, 11, 11, 93
15, 112042, Control_c, 11, 11, 94
15, 112048, Control_c, 11, 11, 95
15, 112053, Control_c, 11, 11, 96
15, 112059, Control_c, 11, 11, 97
15, 112064, Control_c, 11, 11, 98
15, 112070, Control_c, 11, 11, 99
15, 112075, Control_c, 11, 11, 100
15, 112081, Control_c, 11, 11, 101
15, 112086, Control_c, 11, 11, 102
15, 112092, Control_c, 11, 11, 103
15, 112097, Control_c, 11, 11, 104
15, 112103, Control_c, 11, 11, 105
15, 112108, Control_c, 11, 11, 106
15, 112114, Control_c, 11, 11, 107
15, 112119, Control_c, 11, 11, 108
15, 112125, Control_c, 11, 11, 109
15, 112130, Control_c, 11, 11, 110
15, 112136, Control_c, 11, 11, 111
15, 112141, Control_c, 11, 11, 112
15, 112147, Control_c, 11, 11, 113
15, 112152, Control_c, 11, 11, 114
15, 112158, Control_c, 11, 11, 115
15, 112163, Control_c, 11, 11, 116
15, 112169, Control_c, 11, 11, 117
15, 112174, Control_c, 11, 11, 118
15, 112180, Control_c, 11, 11, 119
15, 112185, Control_c, 11, 11, 120
15, 112191, Control_c, 11, 11, 121
15, 112196, Control_c, 11, 11, 122
15, 112202, Control_c, 11, 11, 123
15, 112207, Control_c, 11, 11, 124
15, 112213, Control_c, 11, 11, 125
15, 112218, Control_c, 11, 11, 126
15, 112224, Note_on_c, 11, 90, 0
15, 112224, Control_c, 11, 11, 127
15, 112224, Note_on_c, 11, 96, 106
15, 112512, Note_on_c, 11, 96, 0
15, 112512, Note_on_c, 11, 92, 107
15, 112608, Note_on_c, 11, 92, 0
15, 112608, Note_on_c, 11, 90, 107
15, 112800, Note_on_c, 11, 90, 0
15, 112800, Note_on_c, 11, 89, 104
15, 112842, Note_on_c, 11, 89, 0
15, 112864, Note_on_c, 11, 89, 104
15, 112906, Note_on_c, 11, 89, 0
15, 112928, Note_on_c, 11, 89, 103
15, 112970, Note_on_c, 11, 89, 0
15, 112992, Note_on_c, 11, 85, 110
15, 113034, Note_on_c, 11, 85, 0
15, 113056, Note_on_c, 11, 85, 103
15, 113098, Note_on_c, 11, 85, 0
15, 113120, Note_on_c, 11, 85, 108
15, 113162, Note_on_c, 11, 85, 0
15, 113184, Note_on_c, 11, 84, 111
15, 113226, Note_on_c, 11, 84, 0
15, 113248, Note_on_c, 11, 84, 107
15, 113290, Note_on_c, 11, 84, 0
15, 113312, Note_on_c, 11, 84, 107
15, 113354, Note_on_c, 11, 84, 0
15, 113376, Note_on_c, 11, 80, 108
15, 113418, Note_on_c, 11, 80, 0
15, 113440, Note_on_c, 11, 80, 111
15, 113482, Note_on_c, 11, 80, 0
15, 113504, Note_on_c, 11, 80, 113
15, 113546, Note_on_c, 11, 80, 0
15, 113568, Note_on_c, 11, 78, 109
15, 113610, Note_on_c, 11, 78, 0
15, 113632, Note_on_c, 11, 78, 107
15, 113674, Note_on_c, 11, 78, 0
15, 113696, Note_on_c, 11, 78, 107
15, 113856, Note_on_c, 11, 78, 0
15, 113856, Note_on_c, 11, 80, 107
15, 113952, Note_on_c, 11, 80, 0
15, 113952, Note_on_c, 11, 84, 111
15, 114048, Note_on_c, 11, 84, 0
15, 114048, Note_on_c, 11, 85, 104
15, 114144, Note_on_c, 11, 85, 0
15, 114144, Note_on_c, 11, 89, 108
15, 114240, Note_on_c, 11, 89, 0
15, 114240, Note_on_c, 11, 90, 110
15, 114336, Note_on_c, 11, 90, 0
15, 114336, Note_on_c, 11, 92, 111
15, 114378, Note_on_c, 11, 92, 0
15, 114400, Note_on_c, 11, 92, 110
15, 114442, Note_on_c, 11, 92, 0
15, 114464, Note_on_c, 11, 92, 109
15, 114506, Note_on_c, 11, 92, 0
15, 114528, Note_on_c, 11, 89, 113
15, 114560, Note_on_c, 11, 89, 0
15, 114624, Note_on_c, 11, 92, 107
15, 114656, Note_on_c, 11, 92, 0
15, 114720, Note_on_c, 11, 94, 112
15, 114752, Note_on_c, 11, 94, 0
15, 114816, Note_on_c, 11, 92, 105
15, 114848, Note_on_c, 11, 92, 0
15, 114912, Note_on_c, 11, 89, 111
15, 114954, Note_on_c, 11, 89, 0
15, 114976, Note_on_c, 11, 89, 109
15, 115018, Note_on_c, 11, 89, 0
15, 115040, Note_on_c, 11, 92, 115
15, 115082, Note_on_c, 11, 92, 0
15, 115104, Note_on_c, 11, 94, 114
15, 115146, Note_on_c, 11, 94, 0
15, 115168, Note_on_c, 11, 92, 120
15, 115210, Note_on_c, 11, 92, 0
15, 115232, Note_on_c, 11, 92, 118
15, 115274, Note_on_c, 11, 92, 0
15, 115296, Note_on_c, 11, 89, 118
15, 115338, Note_on_c, 11, 89, 0
15, 115360, Note_on_c, 11, 89, 127
15, 115402, Note_on_c, 11, 89, 0
15, 115424, Note_on_c, 11, 94, 125
15, 115466, Note_on_c, 11, 94, 0
15, 115488, Note_on_c, 11, 92, 103
15, 115530, Note_on_c, 11, 92, 0
15, 115552, Note_on_c, 11, 92, 109
15, 115594, Note_on_c, 11, 92, 0
15, 115616, Note_on_c, 11, 92, 103
15, 115658, Note_on_c, 11, 92, 0
15, 115680, Note_on_c, 11, 89, 110
15, 115712, Note_on_c, 11, 89, 0
15, 115776, Note_on_c, 11, 92, 107
15, 115808, Note_on_c, 11, 92, 0
15, 115872, Note_on_c, 11, 94, 106
15, 115904, Note_on_c, 11, 94, 0
15, 115968, Note_on_c, 11, 92, 111
15, 116000, Note_on_c, 11, 92, 0
15, 116064, Note_on_c, 11, 89, 106
15, 116106, Note_on_c, 11, 89, 0
15, 116128, Note_on_c, 11, 89, 111
15, 116170, Note_on_c, 11, 89, 0
15, 116192, Note_on_c, 11, 92, 107
15, 116234, Note_on_c, 11, 92, 0
15, 116256, Note_on_c, 11, 94, 106
15, 116298, Note_on_c, 11, 94, 0
15, 116320, Note_on_c, 11, 92, 107
15, 116362, Note_on_c, 11, 92, 0
15, 116384, Note_on_c, 11, 92, 108
15, 116426, Note_on_c, 11, 92, 0
15, 116448, Note_on_c, 11, 89, 113
15, 116490, Note_on_c, 11, 89, 0
15, 116512, Note_on_c, 11, 89, 110
15, 116554, Note_on_c, 11, 89, 0
15, 116576, Note_on_c, 11, 92, 108
15, 116618, Note_on_c, 11, 92, 0
15, 116640, Note_on_c, 11, 96, 124
15, 116682, Note_on_c, 11, 96, 0
15, 116704, Note_on_c, 11, 96, 127
15, 116746, Note_on_c, 11, 96, 0
15, 116768, Note_on_c, 11, 96, 127
15, 116810, Note_on_c, 11, 96, 0
15, 116832, Note_on_c, 11, 95, 125
15, 116874, Note_on_c, 11, 95, 0
15, 116896, Note_on_c, 11, 95, 127
15, 116938, Note_on_c, 11, 95, 0
15, 116960, Note_on_c, 11, 95, 127
15, 117002, Note_on_c, 11, 95, 0
15, 117024, Note_on_c, 11, 94, 127
15, 117066, Note_on_c, 11, 94, 0
15, 117088, Note_on_c, 11, 94, 126
15, 117130, Note_on_c, 11, 94, 0
15, 117152, Note_on_c, 11, 94, 123
15, 117194, Note_on_c, 11, 94, 0
15, 117216, Note_on_c, 11, 84, 124
15, 117258, Note_on_c, 11, 84, 0
15, 117280, Note_on_c, 11, 84, 127
15, 117322, Note_on_c, 11, 84, 0
15, 117344, Note_on_c, 11, 84, 125
15, 117386, Note_on_c, 11, 84, 0
15, 117408, Note_on_c, 11, 83, 127
15, 117450, Note_on_c, 11, 83, 0
15, 117472, Note_on_c, 11, 83, 127
15, 117514, Note_on_c, 11, 83, 0
15, 117536, Note_on_c, 11, 83, 123
15, 117578, Note_on_c, 11, 83, 0
15, 117600, Note_on_c, 11, 82, 127
15, 117632, Note_on_c, 11, 82, 0
15, 117696, Note_on_c, 11, 86, 126
15, 117728, Note_on_c, 11, 86, 0
15, 117792, Note_on_c, 11, 72, 126
15, 117834, Note_on_c, 11, 72, 0
15, 117856, Note_on_c, 11, 72, 127
15, 117898, Note_on_c, 11, 72, 0
15, 117920, Note_on_c, 11, 72, 127
15, 117962, Note_on_c, 11, 72, 0
15, 117984, Note_on_c, 11, 71, 125
15, 118026, Note_on_c, 11, 71, 0
15, 118048, Note_on_c, 11, 71, 124
15, 118090, Note_on_c, 11, 71, 0
15, 118112, Note_on_c, 11, 71, 127
15, 118154, Note_on_c, 11, 71, 0
15, 118176, Note_on_c, 11, 70, 125
15, 118208, Note_on_c, 11, 70, 0
15, 118272, Note_on_c, 11, 74, 124
15, 118304, Note_on_c, 11, 74, 0
15, 118368, Note_on_c, 11, 60, 126
15, 118410, Note_on_c, 11, 60, 0
15, 118432, Note_on_c, 11, 60, 125
15, 118474, Note_on_c, 11, 60, 0
15, 118496, Note_on_c, 11, 60, 126
15, 118538, Note_on_c, 11, 60, 0
15, 118560, Note_on_c, 11, 59, 125
15, 118602, Note_on_c, 11, 59, 0
15, 118624, Note_on_c, 11, 59, 123
15, 118666, Note_on_c, 11, 59, 0
15, 118688, Note_on_c, 11, 59, 127
15, 118730, Note_on_c, 11, 59, 0
15, 118752, Note_on_c, 11, 58, 127
15, 118784, Note_on_c, 11, 58, 0
15, 118848, Note_on_c, 11, 62, 124
15, 118880, Note_on_c, 11, 62, 0
15, 118944, Program_c, 11, 45
15, 119136, Note_on_c, 11, 58, 95
15, 119232, Note_on_c, 11, 58, 0
15, 119232, Note_on_c, 11, 62, 98
15, 119328, Note_on_c, 11, 62, 0
15, 119712, Note_on_c, 11, 60, 93
15, 119808, Note_on_c, 11, 60, 0
15, 119808, Note_on_c, 11, 59, 96
15, 119904, Note_on_c, 11, 59, 0
15, 124704, Program_c, 11, 48
15, 129312, Control_c, 11, 11, 127
15, 133920, Control_c, 11, 11, 64
15, 133920, Note_on_c, 11, 85, 28
15, 133920, Note_on_c, 11, 92, 27
15, 133920, Note_on_c, 11, 97, 25
15, 133926, Control_c, 11, 11, 65
15, 133932, Control_c, 11, 11, 66
15, 133938, Control_c, 11, 11, 67
15, 133944, Control_c, 11, 11, 68
15, 133950, Control_c, 11, 11, 69
15, 133956, Control_c, 11, 11, 70
15, 133962, Control_c, 11, 11, 71
15, 133968, Control_c, 11, 11, 72
15, 133974, Control_c, 11, 11, 73
15, 133980, Control_c, 11, 11, 74
15, 133987, Control_c, 11, 11, 75
15, 133993, Control_c, 11, 11, 76
15, 133999, Control_c, 11, 11, 77
15, 134005, Control_c, 11, 11, 78
15, 134011, Control_c, 11, 11, 79
15, 134017, Control_c, 11, 11, 80
15, 134023, Control_c, 11, 11, 81
15, 134029, Control_c, 11, 11, 82
15, 134035, Control_c, 11, 11, 83
15, 134041, Control_c, 11, 11, 84
15, 134048, Control_c, 11, 11, 85
15, 134054, Control_c, 11, 11, 86
15, 134060, Control_c, 11, 11, 87
15, 134066, Control_c, 11, 11, 88
15, 134072, Control_c, 11, 11, 89
15, 134078, Control_c, 11, 11, 90
15, 134084, Control_c, 11, 11, 91
15, 134090, Control_c, 11, 11, 92
15, 134096, Control_c, 11, 11, 93
15, 134102, Control_c, 11, 11, 94
15, 134108, Control_c, 11, 11, 95
15, 134115, Control_c, 11, 11, 96
15, 134121, Control_c, 11, 11, 97
15, 134127, Control_c, 11, 11, 98
15, 134133, Control_c, 11, 11, 99
15, 134139, Control_c, 11, 11, 100
15, 134145, Control_c, 11, 11, 101
15, 134151, Control_c, 11, 11, 102
15, 134157, Control_c, 11, 11, 103
15, 134163, Control_c, 11, 11, 104
15, 134169, Control_c, 11, 11, 105
15, 134176, Control_c, 11, 11, 106
15, 134182, Control_c, 11, 11, 107
15, 134188, Control_c, 11, 11, 108
15, 134194, Control_c, 11, 11, 109
15, 134200, Control_c, 11, 11, 110
15, 134206, Control_c, 11, 11, 111
15, 134212, Control_c, 11, 11, 112
15, 134218, Control_c, 11, 11, 113
15, 134224, Control_c, 11, 11, 114
15, 134230, Control_c, 11, 11, 115
15, 134236, Control_c, 11, 11, 116
15, 134243, Control_c, 11, 11, 117
15, 134249, Control_c, 11, 11, 118
15, 134255, Control_c, 11, 11, 119
15, 134261, Control_c, 11, 11, 120
15, 134267, Control_c, 11, 11, 121
15, 134273, Control_c, 11, 11, 122
15, 134279, Control_c, 11, 11, 123
15, 134285, Control_c, 11, 11, 124
15, 134291, Control_c, 11, 11, 125
15, 134297, Control_c, 11, 11, 126
15, 134304, Control_c, 11, 11, 127
15, 135072, Note_on_c, 11, 85, 0
15, 135072, Note_on_c, 11, 92, 0
15, 135072, Note_on_c, 11, 97, 0
15, 136224, Control_c, 11, 11, 64
15, 136224, Note_on_c, 11, 85, 26
15, 136224, Note_on_c, 11, 92, 28
15, 136224, Note_on_c, 11, 97, 21
15, 136230, Control_c, 11, 11, 65
15, 136236, Control_c, 11, 11, 66
15, 136242, Control_c, 11, 11, 67
15, 136248, Control_c, 11, 11, 68
15, 136254, Control_c, 11, 11, 69
15, 136260, Control_c, 11, 11, 70
15, 136266, Control_c, 11, 11, 71
15, 136272, Control_c, 11, 11, 72
15, 136278, Control_c, 11, 11, 73
15, 136284, Control_c, 11, 11, 74
15, 136291, Control_c, 11, 11, 75
15, 136297, Control_c, 11, 11, 76
15, 136303, Control_c, 11, 11, 77
15, 136309, Control_c, 11, 11, 78
15, 136315, Control_c, 11, 11, 79
15, 136321, Control_c, 11, 11, 80
15, 136327, Control_c, 11, 11, 81
15, 136333, Control_c, 11, 11, 82
15, 136339, Control_c, 11, 11, 83
15, 136345, Control_c, 11, 11, 84
15, 136352, Control_c, 11, 11, 85
15, 136358, Control_c, 11, 11, 86
15, 136364, Control_c, 11, 11, 87
15, 136370, Control_c, 11, 11, 88
15, 136376, Control_c, 11, 11, 89
15, 136382, Control_c, 11, 11, 90
15, 136388, Control_c, 11, 11, 91
15, 136394, Control_c, 11, 11, 92
15, 136400, Control_c, 11, 11, 93
15, 136406, Control_c, 11, 11, 94
15, 136412, Control_c, 11, 11, 95
15, 136419, Control_c, 11, 11, 96
15, 136425, Control_c, 11, 11, 97
15, 136431, Control_c, 11, 11, 98
15, 136437, Control_c, 11, 11, 99
15, 136443, Control_c, 11, 11, 100
15, 136449, Control_c, 11, 11, 101
15, 136455, Control_c, 11, 11, 102
15, 136461, Control_c, 11, 11, 103
15, 136467, Control_c, 11, 11, 104
15, 136473, Control_c, 11, 11, 105
15, 136480, Control_c, 11, 11, 106
15, 136486, Control_c, 11, 11, 107
15, 136492, Control_c, 11, 11, 108
15, 136498, Control_c, 11, 11, 109
15, 136504, Control_c, 11, 11, 110
15, 136510, Control_c, 11, 11, 111
15, 136516, Control_c, 11, 11, 112
15, 136522, Control_c, 11, 11, 113
15, 136528, Control_c, 11, 11, 114
15, 136534, Control_c, 11, 11, 115
15, 136540, Control_c, 11, 11, 116
15, 136547, Control_c, 11, 11, 117
15, 136553, Control_c, 11, 11, 118
15, 136559, Control_c, 11, 11, 119
15, 136565, Control_c, 11, 11, 120
15, 136571, Control_c, 11, 11, 121
15, 136577, Control_c, 11, 11, 122
15, 136583, Control_c, 11, 11, 123
15, 136589, Control_c, 11, 11, 124
15, 136595, Control_c, 11, 11, 125
15, 136601, Control_c, 11, 11, 126
15, 136608, Control_c, 11, 11, 127
15, 137376, Note_on_c, 11, 85, 0
15, 137376, Note_on_c, 11, 92, 0
15, 137376, Note_on_c, 11, 97, 0
15, 141408, Control_c, 11, 11, 64
15, 141408, Note_on_c, 11, 83, 28
15, 141408, Note_on_c, 11, 95, 27
15, 141414, Control_c, 11, 11, 65
15, 141420, Control_c, 11, 11, 66
15, 141426, Control_c, 11, 11, 67
15, 141432, Control_c, 11, 11, 68
15, 141438, Control_c, 11, 11, 69
15, 141444, Control_c, 11, 11, 70
15, 141450, Control_c, 11, 11, 71
15, 141456, Control_c, 11, 11, 72
15, 141462, Control_c, 11, 11, 73
15, 141468, Control_c, 11, 11, 74
15, 141475, Control_c, 11, 11, 75
15, 141481, Control_c, 11, 11, 76
15, 141487, Control_c, 11, 11, 77
15, 141493, Control_c, 11, 11, 78
15, 141499, Control_c, 11, 11, 79
15, 141505, Control_c, 11, 11, 80
15, 141511, Control_c, 11, 11, 81
15, 141517, Control_c, 11, 11, 82
15, 141523, Control_c, 11, 11, 83
15, 141529, Control_c, 11, 11, 84
15, 141536, Control_c, 11, 11, 85
15, 141542, Control_c, 11, 11, 86
15, 141548, Control_c, 11, 11, 87
15, 141554, Control_c, 11, 11, 88
15, 141560, Control_c, 11, 11, 89
15, 141566, Control_c, 11, 11, 90
15, 141572, Control_c, 11, 11, 91
15, 141578, Control_c, 11, 11, 92
15, 141584, Control_c, 11, 11, 93
15, 141590, Control_c, 11, 11, 94
15, 141596, Control_c, 11, 11, 95
15, 141603, Control_c, 11, 11, 96
15, 141609, Control_c, 11, 11, 97
15, 141615, Control_c, 11, 11, 98
15, 141621, Control_c, 11, 11, 99
15, 141627, Control_c, 11, 11, 100
15, 141633, Control_c, 11, 11, 101
15, 141639, Control_c, 11, 11, 102
15, 141645, Control_c, 11, 11, 103
15, 141651, Control_c, 11, 11, 104
15, 141657, Control_c, 11, 11, 105
15, 141664, Control_c, 11, 11, 106
15, 141670, Control_c, 11, 11, 107
15, 141676, Control_c, 11, 11, 108
15, 141682, Control_c, 11, 11, 109
15, 141688, Control_c, 11, 11, 110
15, 141694, Control_c, 11, 11, 111
15, 141700, Control_c, 11, 11, 112
15, 141706, Control_c, 11, 11, 113
15, 141712, Control_c, 11, 11, 114
15, 141718, Control_c, 11, 11, 115
15, 141724, Control_c, 11, 11, 116
15, 141731, Control_c, 11, 11, 117
15, 141737, Control_c, 11, 11, 118
15, 141743, Control_c, 11, 11, 119
15, 141749, Control_c, 11, 11, 120
15, 141755, Control_c, 11, 11, 121
15, 141761, Control_c, 11, 11, 122
15, 141767, Control_c, 11, 11, 123
15, 141773, Control_c, 11, 11, 124
15, 141779, Control_c, 11, 11, 125
15, 141785, Control_c, 11, 11, 126
15, 141792, Control_c, 11, 11, 127
15, 141804, Control_c, 11, 11, 126
15, 141816, Control_c, 11, 11, 125
15, 141828, Control_c, 11, 11, 124
15, 141840, Control_c, 11, 11, 123
15, 141852, Control_c, 11, 11, 122
15, 141864, Control_c, 11, 11, 121
15, 141876, Control_c, 11, 11, 120
15, 141888, Control_c, 11, 11, 119
15, 141900, Control_c, 11, 11, 118
15, 141912, Control_c, 11, 11, 117
15, 141925, Control_c, 11, 11, 116
15, 141937, Control_c, 11, 11, 115
15, 141949, Control_c, 11, 11, 114
15, 141961, Control_c, 11, 11, 113
15, 141973, Control_c, 11, 11, 112
15, 141985, Control_c, 11, 11, 111
15, 141997, Control_c, 11, 11, 110
15, 142009, Control_c, 11, 11, 109
15, 142021, Control_c, 11, 11, 108
15, 142033, Control_c, 11, 11, 107
15, 142045, Control_c, 11, 11, 106
15, 142058, Control_c, 11, 11, 105
15, 142070, Control_c, 11, 11, 104
15, 142082, Control_c, 11, 11, 103
15, 142094, Control_c, 11, 11, 102
15, 142106, Control_c, 11, 11, 101
15, 142118, Control_c, 11, 11, 100
15, 142130, Control_c, 11, 11, 99
15, 142142, Control_c, 11, 11, 98
15, 142154, Control_c, 11, 11, 97
15, 142166, Control_c, 11, 11, 96
15, 142179, Control_c, 11, 11, 95
15, 142191, Control_c, 11, 11, 94
15, 142203, Control_c, 11, 11, 93
15, 142215, Control_c, 11, 11, 92
15, 142227, Control_c, 11, 11, 91
15, 142239, Control_c, 11, 11, 90
15, 142251, Control_c, 11, 11, 89
15, 142263, Control_c, 11, 11, 88
15, 142275, Control_c, 11, 11, 87
15, 142287, Control_c, 11, 11, 86
15, 142299, Control_c, 11, 11, 85
15, 142312, Control_c, 11, 11, 84
15, 142324, Control_c, 11, 11, 83
15, 142336, Control_c, 11, 11, 82
15, 142348, Control_c, 11, 11, 81
15, 142360, Control_c, 11, 11, 80
15, 142372, Control_c, 11, 11, 79
15, 142384, Control_c, 11, 11, 78
15, 142396, Control_c, 11, 11, 77
15, 142408, Control_c, 11, 11, 76
15, 142420, Control_c, 11, 11, 75
15, 142433, Control_c, 11, 11, 74
15, 142445, Control_c, 11, 11, 73
15, 142457, Control_c, 11, 11, 72
15, 142469, Control_c, 11, 11, 71
15, 142481, Control_c, 11, 11, 70
15, 142493, Control_c, 11, 11, 69
15, 142505, Control_c, 11, 11, 68
15, 142517, Control_c, 11, 11, 67
15, 142529, Control_c, 11, 11, 66
15, 142541, Control_c, 11, 11, 65
15, 142553, Control_c, 11, 11, 64
15, 142566, Control_c, 11, 11, 63
15, 142578, Control_c, 11, 11, 62
15, 142590, Control_c, 11, 11, 61
15, 142602, Control_c, 11, 11, 60
15, 142614, Control_c, 11, 11, 59
15, 142626, Control_c, 11, 11, 58
15, 142638, Control_c, 11, 11, 57
15, 142650, Control_c, 11, 11, 56
15, 142662, Control_c, 11, 11, 55
15, 142674, Control_c, 11, 11, 54
15, 142686, Control_c, 11, 11, 53
15, 142699, Control_c, 11, 11, 52
15, 142711, Control_c, 11, 11, 51
15, 142723, Control_c, 11, 11, 50
15, 142735, Control_c, 11, 11, 49
15, 142747, Control_c, 11, 11, 48
15, 142759, Control_c, 11, 11, 47
15, 142771, Control_c, 11, 11, 46
15, 142783, Control_c, 11, 11, 45
15, 142795, Control_c, 11, 11, 44
15, 142807, Control_c, 11, 11, 43
15, 142820, Control_c, 11, 11, 42
15, 142832, Control_c, 11, 11, 41
15, 142844, Control_c, 11, 11, 40
15, 142856, Control_c, 11, 11, 39
15, 142868, Control_c, 11, 11, 38
15, 142880, Control_c, 11, 11, 37
15, 142892, Control_c, 11, 11, 36
15, 142904, Control_c, 11, 11, 35
15, 142916, Control_c, 11, 11, 34
15, 142928, Control_c, 11, 11, 33
15, 142940, Control_c, 11, 11, 32
15, 142953, Control_c, 11, 11, 31
15, 142965, Control_c, 11, 11, 30
15, 142977, Control_c, 11, 11, 29
15, 142989, Control_c, 11, 11, 28
15, 143001, Control_c, 11, 11, 27
15, 143013, Control_c, 11, 11, 26
15, 143025, Control_c, 11, 11, 25
15, 143037, Control_c, 11, 11, 24
15, 143049, Control_c, 11, 11, 23
15, 143061, Control_c, 11, 11, 22
15, 143074, Control_c, 11, 11, 21
15, 143086, Control_c, 11, 11, 20
15, 143098, Control_c, 11, 11, 19
15, 143110, Control_c, 11, 11, 18
15, 143122, Control_c, 11, 11, 17
15, 143134, Control_c, 11, 11, 16
15, 143146, Control_c, 11, 11, 15
15, 143158, Control_c, 11, 11, 14
15, 143170, Control_c, 11, 11, 13
15, 143182, Control_c, 11, 11, 12
15, 143194, Control_c, 11, 11, 11
15, 143207, Control_c, 11, 11, 10
15, 143219, Control_c, 11, 11, 9
15, 143231, Control_c, 11, 11, 8
15, 143243, Control_c, 11, 11, 7
15, 143255, Control_c, 11, 11, 6
15, 143267, Control_c, 11, 11, 5
15, 143279, Control_c, 11, 11, 4
15, 143291, Control_c, 11, 11, 3
15, 143303, Control_c, 11, 11, 2
15, 143315, Control_c, 11, 11, 1
15, 143328, Note_on_c, 11, 83, 0
15, 143328, Note_on_c, 11, 95, 0
15, 143328, Control_c, 11, 11, 0
15, 143328, End_track
16, 0, Start_track
16, 0, Title_t, "Violini I - b"
16, 0, MIDI_port, 0
16, 170, Control_c, 11, 0, 0
16, 171, Control_c, 11, 32, 0
16, 172, Program_c, 11, 48
16, 173, Control_c, 11, 7, 127
16, 174, Control_c, 11, 10, 44
16, 175, Control_c, 11, 91, 127
16, 1536, Note_on_c, 11, 73, 57
16, 1920, Note_on_c, 11, 73, 0
16, 2688, Note_on_c, 11, 73, 63
16, 3072, Note_on_c, 11, 73, 0
16, 5184, Program_c, 11, 45
16, 8352, Note_on_c, 11, 66, 27
16, 8352, Note_on_c, 11, 70, 35
16, 10464, Note_on_c, 11, 66, 0
16, 10464, Note_on_c, 11, 70, 0
16, 10464, Note_on_c, 11, 66, 46
16, 10464, Note_on_c, 11, 69, 49
16, 10656, Note_on_c, 11, 69, 0
16, 10656, Note_on_c, 11, 70, 65
16, 11040, Note_on_c, 11, 66, 0
16, 11040, Note_on_c, 11, 70, 0
16, 11040, Note_on_c, 11, 66, 58
16, 11040, Note_on_c, 11, 69, 58
16, 11232, Note_on_c, 11, 66, 0
16, 11232, Note_on_c, 11, 69, 0
16, 18144, Note_on_c, 11, 63, 44
16, 18336, Note_on_c, 11, 63, 0
16, 18336, Note_on_c, 11, 62, 40
16, 18528, Note_on_c, 11, 62, 0
16, 18528, Note_on_c, 11, 59, 46
16, 18720, Note_on_c, 11, 59, 0
16, 18720, Note_on_c, 11, 66, 50
16, 18912, Note_on_c, 11, 66, 0
16, 18912, Note_on_c, 11, 65, 50
16, 19104, Note_on_c, 11, 65, 0
16, 19104, Note_on_c, 11, 66, 49
16, 19296, Note_on_c, 11, 66, 0
16, 28704, Note_on_c, 11, 82, 30
16, 28800, Note_on_c, 11, 82, 0
16, 28896, Note_on_c, 11, 82, 32
16, 28928, Note_on_c, 11, 82, 0
16, 28928, Note_on_c, 11, 83, 35
16, 28960, Note_on_c, 11, 83, 0
16, 28960, Note_on_c, 11, 82, 32
16, 28992, Note_on_c, 11, 82, 0
16, 28992, Note_on_c, 11, 83, 34
16, 29024, Note_on_c, 11, 83, 0
16, 29024, Note_on_c, 11, 82, 28
16, 29056, Note_on_c, 11, 82, 0
16, 29056, Note_on_c, 11, 83, 33
16, 29088, Note_on_c, 11, 83, 0
16, 29088, Note_on_c, 11, 82, 30
16, 29120, Note_on_c, 11, 82, 0
16, 29120, Note_on_c, 11, 83, 30
16, 29152, Note_on_c, 11, 83, 0
16, 29152, Note_on_c, 11, 82, 30
16, 29184, Note_on_c, 11, 82, 0
16, 29280, Note_on_c, 11, 82, 33
16, 29376, Note_on_c, 11, 82, 0
16, 29472, Note_on_c, 11, 82, 32
16, 29504, Note_on_c, 11, 82, 0
16, 29504, Note_on_c, 11, 83, 26
16, 29536, Note_on_c, 11, 83, 0
16, 29536, Note_on_c, 11, 82, 26
16, 29568, Note_on_c, 11, 82, 0
16, 29568, Note_on_c, 11, 83, 31
16, 29600, Note_on_c, 11, 83, 0
16, 29600, Note_on_c, 11, 82, 32
16, 29632, Note_on_c, 11, 82, 0
16, 29632, Note_on_c, 11, 83, 27
16, 29664, Note_on_c, 11, 83, 0
16, 29664, Note_on_c, 11, 82, 26
16, 29696, Note_on_c, 11, 82, 0
16, 29696, Note_on_c, 11, 83, 33
16, 29728, Note_on_c, 11, 83, 0
16, 29728, Note_on_c, 11, 82, 31
16, 29760, Note_on_c, 11, 82, 0
16, 29856, Note_on_c, 11, 82, 30
16, 29952, Note_on_c, 11, 82, 0
16, 30048, Note_on_c, 11, 82, 27
16, 30080, Note_on_c, 11, 82, 0
16, 30080, Note_on_c, 11, 83, 32
16, 30112, Note_on_c, 11, 83, 0
16, 30112, Note_on_c, 11, 82, 35
16, 30144, Note_on_c, 11, 82, 0
16, 30144, Note_on_c, 11, 83, 33
16, 30176, Note_on_c, 11, 83, 0
16, 30176, Note_on_c, 11, 82, 26
16, 30208, Note_on_c, 11, 82, 0
16, 30208, Note_on_c, 11, 83, 32
16, 30240, Note_on_c, 11, 83, 0
16, 30240, Note_on_c, 11, 82, 29
16, 30272, Note_on_c, 11, 82, 0
16, 30272, Note_on_c, 11, 83, 34
16, 30304, Note_on_c, 11, 83, 0
16, 30304, Note_on_c, 11, 82, 31
16, 30336, Note_on_c, 11, 82, 0
16, 30432, Note_on_c, 11, 82, 34
16, 30528, Note_on_c, 11, 82, 0
16, 30624, Note_on_c, 11, 82, 33
16, 30656, Note_on_c, 11, 82, 0
16, 30656, Note_on_c, 11, 83, 31
16, 30688, Note_on_c, 11, 83, 0
16, 30688, Note_on_c, 11, 82, 33
16, 30720, Note_on_c, 11, 82, 0
16, 30720, Note_on_c, 11, 83, 26
16, 30752, Note_on_c, 11, 83, 0
16, 30752, Note_on_c, 11, 82, 30
16, 30784, Note_on_c, 11, 82, 0
16, 30784, Note_on_c, 11, 83, 31
16, 30816, Note_on_c, 11, 83, 0
16, 30816, Note_on_c, 11, 82, 34
16, 30848, Note_on_c, 11, 82, 0
16, 30848, Note_on_c, 11, 83, 29
16, 30880, Note_on_c, 11, 83, 0
16, 30880, Note_on_c, 11, 82, 28
16, 30912, Note_on_c, 11, 82, 0
16, 31008, Note_on_c, 11, 82, 25
16, 31104, Note_on_c, 11, 82, 0
16, 31200, Note_on_c, 11, 82, 27
16, 31232, Note_on_c, 11, 82, 0
16, 31232, Note_on_c, 11, 83, 30
16, 31264, Note_on_c, 11, 83, 0
16, 31264, Note_on_c, 11, 82, 31
16, 31296, Note_on_c, 11, 82, 0
16, 31296, Note_on_c, 11, 83, 26
16, 31328, Note_on_c, 11, 83, 0
16, 31328, Note_on_c, 11, 82, 33
16, 31360, Note_on_c, 11, 82, 0
16, 31360, Note_on_c, 11, 83, 27
16, 31392, Note_on_c, 11, 83, 0
16, 31392, Note_on_c, 11, 82, 26
16, 31424, Note_on_c, 11, 82, 0
16, 31424, Note_on_c, 11, 83, 31
16, 31456, Note_on_c, 11, 83, 0
16, 31456, Note_on_c, 11, 82, 35
16, 31488, Note_on_c, 11, 82, 0
16, 31584, Note_on_c, 11, 70, 25
16, 31680, Note_on_c, 11, 70, 0
16, 40032, Note_on_c, 11, 74, 28
16, 40128, Note_on_c, 11, 74, 0
16, 40128, Note_on_c, 11, 73, 35
16, 40224, Note_on_c, 11, 73, 0
16, 40224, Note_on_c, 11, 72, 27
16, 40416, Note_on_c, 11, 72, 0
16, 40416, Note_on_c, 11, 71, 29
16, 40608, Note_on_c, 11, 71, 0
16, 40608, Note_on_c, 11, 74, 34
16, 40704, Note_on_c, 11, 74, 0
16, 40704, Note_on_c, 11, 73, 32
16, 40800, Note_on_c, 11, 73, 0
16, 40800, Note_on_c, 11, 72, 28
16, 40992, Note_on_c, 11, 72, 0
16, 40992, Note_on_c, 11, 71, 25
16, 41184, Note_on_c, 11, 71, 0
16, 41184, Note_on_c, 11, 74, 56
16, 41280, Note_on_c, 11, 74, 0
16, 41280, Note_on_c, 11, 73, 58
16, 41376, Note_on_c, 11, 73, 0
16, 41376, Note_on_c, 11, 72, 61
16, 41568, Note_on_c, 11, 72, 0
16, 41568, Note_on_c, 11, 75, 62
16, 41760, Note_on_c, 11, 75, 0
16, 41760, Note_on_c, 11, 74, 59
16, 41856, Note_on_c, 11, 74, 0
16, 41856, Note_on_c, 11, 73, 64
16, 41952, Note_on_c, 11, 73, 0
16, 41952, Note_on_c, 11, 72, 65
16, 42144, Note_on_c, 11, 72, 0
16, 42144, Note_on_c, 11, 71, 56
16, 42336, Note_on_c, 11, 71, 0
16, 42336, Note_on_c, 11, 70, 57
16, 42912, Note_on_c, 11, 70, 0
16, 42912, Note_on_c, 11, 71, 59
16, 43008, Note_on_c, 11, 71, 0
16, 43008, Note_on_c, 11, 73, 60
16, 43104, Note_on_c, 11, 73, 0
16, 43104, Note_on_c, 11, 75, 64
16, 43200, Note_on_c, 11, 75, 0
16, 43200, Note_on_c, 11, 78, 63
16, 43296, Note_on_c, 11, 78, 0
16, 43296, Note_on_c, 11, 80, 64
16, 43360, Note_on_c, 11, 80, 0
16, 43360, Note_on_c, 11, 78, 65
16, 43424, Note_on_c, 11, 78, 0
16, 43424, Note_on_c, 11, 75, 56
16, 43488, Note_on_c, 11, 75, 0
16, 43488, Note_on_c, 11, 70, 61
16, 43584, Note_on_c, 11, 70, 0
16, 43872, Note_on_c, 11, 70, 47
16, 43904, Note_on_c, 11, 70, 0
16, 43920, Note_on_c, 11, 72, 49
16, 43952, Note_on_c, 11, 72, 0
16, 43968, Note_on_c, 11, 74, 59
16, 44000, Note_on_c, 11, 74, 0
16, 44016, Note_on_c, 11, 76, 71
16, 44048, Note_on_c, 11, 76, 0
16, 44448, Note_on_c, 11, 72, 47
16, 44480, Note_on_c, 11, 72, 0
16, 44496, Note_on_c, 11, 74, 40
16, 44528, Note_on_c, 11, 74, 0
16, 44544, Note_on_c, 11, 76, 57
16, 44576, Note_on_c, 11, 76, 0
16, 44592, Note_on_c, 11, 78, 67
16, 44624, Note_on_c, 11, 78, 0
16, 44640, Note_on_c, 11, 82, 76
16, 44736, Note_on_c, 11, 82, 0
16, 44736, Note_on_c, 11, 80, 75
16, 44768, Note_on_c, 11, 80, 0
16, 44768, Note_on_c, 11, 82, 72
16, 44800, Note_on_c, 11, 82, 0
16, 44800, Note_on_c, 11, 80, 73
16, 44832, Note_on_c, 11, 80, 0
16, 44832, Note_on_c, 11, 82, 77
16, 44928, Note_on_c, 11, 82, 0
16, 44928, Note_on_c, 11, 80, 80
16, 44960, Note_on_c, 11, 80, 0
16, 44960, Note_on_c, 11, 82, 75
16, 44992, Note_on_c, 11, 82, 0
16, 44992, Note_on_c, 11, 80, 79
16, 45024, Note_on_c, 11, 80, 0
16, 45024, Note_on_c, 11, 83, 73
16, 45056, Note_on_c, 11, 83, 0
16, 45072, Note_on_c, 11, 83, 73
16, 45104, Note_on_c, 11, 83, 0
16, 45120, Note_on_c, 11, 83, 74
16, 45152, Note_on_c, 11, 83, 0
16, 45168, Note_on_c, 11, 83, 74
16, 45200, Note_on_c, 11, 83, 0
16, 45216, Note_on_c, 11, 82, 83
16, 45312, Note_on_c, 11, 82, 0
16, 45312, Note_on_c, 11, 80, 79
16, 45344, Note_on_c, 11, 80, 0
16, 45344, Note_on_c, 11, 82, 77
16, 45376, Note_on_c, 11, 82, 0
16, 45376, Note_on_c, 11, 80, 77
16, 45408, Note_on_c, 11, 80, 0
16, 45408, Note_on_c, 11, 82, 87
16, 45504, Note_on_c, 11, 82, 0
16, 45504, Note_on_c, 11, 80, 89
16, 45536, Note_on_c, 11, 80, 0
16, 45536, Note_on_c, 11, 82, 87
16, 45568, Note_on_c, 11, 82, 0
16, 45568, Note_on_c, 11, 80, 83
16, 45600, Note_on_c, 11, 80, 0
16, 45600, Note_on_c, 11, 83, 82
16, 45632, Note_on_c, 11, 83, 0
16, 45648, Note_on_c, 11, 83, 91
16, 45680, Note_on_c, 11, 83, 0
16, 45696, Note_on_c, 11, 80, 90
16, 45728, Note_on_c, 11, 80, 0
16, 45744, Note_on_c, 11, 80, 97
16, 45776, Note_on_c, 11, 80, 0
16, 45792, Note_on_c, 11, 81, 46
16, 47520, Note_on_c, 11, 81, 0
16, 54240, Note_on_c, 11, 70, 29
16, 54264, Note_on_c, 11, 70, 0
16, 54264, Note_on_c, 11, 72, 32
16, 54288, Note_on_c, 11, 72, 0
16, 54288, Note_on_c, 11, 70, 24
16, 54312, Note_on_c, 11, 70, 0
16, 54312, Note_on_c, 11, 69, 27
16, 54336, Note_on_c, 11, 69, 0
16, 54336, Note_on_c, 11, 69, 26
16, 54360, Note_on_c, 11, 69, 0
16, 54360, Note_on_c, 11, 70, 23
16, 54384, Note_on_c, 11, 70, 0
16, 54384, Note_on_c, 11, 70, 22
16, 54408, Note_on_c, 11, 70, 0
16, 54408, Note_on_c, 11, 67, 20
16, 54432, Note_on_c, 11, 67, 0
16, 54816, Note_on_c, 11, 70, 31
16, 54840, Note_on_c, 11, 70, 0
16, 54840, Note_on_c, 11, 72, 28
16, 54864, Note_on_c, 11, 72, 0
16, 54864, Note_on_c, 11, 70, 25
16, 54888, Note_on_c, 11, 70, 0
16, 54888, Note_on_c, 11, 69, 29
16, 54912, Note_on_c, 11, 69, 0
16, 54912, Note_on_c, 11, 69, 24
16, 54936, Note_on_c, 11, 69, 0
16, 54936, Note_on_c, 11, 70, 28
16, 54960, Note_on_c, 11, 70, 0
16, 54960, Note_on_c, 11, 70, 24
16, 54984, Note_on_c, 11, 70, 0
16, 54984, Note_on_c, 11, 67, 16
16, 55008, Note_on_c, 11, 67, 0
16, 55392, Note_on_c, 11, 70, 44
16, 55416, Note_on_c, 11, 70, 0
16, 55416, Note_on_c, 11, 72, 47
16, 55440, Note_on_c, 11, 72, 0
16, 55440, Note_on_c, 11, 70, 43
16, 55464, Note_on_c, 11, 70, 0
16, 55464, Note_on_c, 11, 69, 49
16, 55488, Note_on_c, 11, 69, 0
16, 55488, Note_on_c, 11, 69, 48
16, 55512, Note_on_c, 11, 69, 0
16, 55512, Note_on_c, 11, 70, 44
16, 55536, Note_on_c, 11, 70, 0
16, 55536, Note_on_c, 11, 70, 40
16, 55560, Note_on_c, 11, 70, 0
16, 55560, Note_on_c, 11, 67, 46
16, 55584, Note_on_c, 11, 67, 0
16, 55968, Note_on_c, 11, 70, 50
16, 55992, Note_on_c, 11, 70, 0
16, 55992, Note_on_c, 11, 72, 47
16, 56016, Note_on_c, 11, 72, 0
16, 56016, Note_on_c, 11, 70, 42
16, 56040, Note_on_c, 11, 70, 0
16, 56040, Note_on_c, 11, 69, 40
16, 56064, Note_on_c, 11, 69, 0
16, 56064, Note_on_c, 11, 69, 46
16, 56088, Note_on_c, 11, 69, 0
16, 56088, Note_on_c, 11, 70, 42
16, 56112, Note_on_c, 11, 70, 0
16, 56112, Note_on_c, 11, 70, 46
16, 56136, Note_on_c, 11, 70, 0
16, 56136, Note_on_c, 11, 67, 44
16, 56160, Note_on_c, 11, 67, 0
16, 56544, Note_on_c, 11, 70, 43
16, 56568, Note_on_c, 11, 70, 0
16, 56568, Note_on_c, 11, 72, 49
16, 56592, Note_on_c, 11, 72, 0
16, 56592, Note_on_c, 11, 70, 43
16, 56616, Note_on_c, 11, 70, 0
16, 56616, Note_on_c, 11, 69, 45
16, 56640, Note_on_c, 11, 69, 0
16, 56640, Note_on_c, 11, 69, 48
16, 56664, Note_on_c, 11, 69, 0
16, 56664, Note_on_c, 11, 70, 44
16, 56688, Note_on_c, 11, 70, 0
16, 56688, Note_on_c, 11, 70, 44
16, 56712, Note_on_c, 11, 70, 0
16, 56712, Note_on_c, 11, 67, 50
16, 56736, Note_on_c, 11, 67, 0
16, 57120, Note_on_c, 11, 70, 44
16, 57144, Note_on_c, 11, 70, 0
16, 57144, Note_on_c, 11, 72, 40
16, 57168, Note_on_c, 11, 72, 0
16, 57168, Note_on_c, 11, 70, 40
16, 57192, Note_on_c, 11, 70, 0
16, 57192, Note_on_c, 11, 67, 40
16, 57216, Note_on_c, 11, 67, 0
16, 57216, Note_on_c, 11, 66, 46
16, 57240, Note_on_c, 11, 66, 0
16, 57240, Note_on_c, 11, 65, 42
16, 57264, Note_on_c, 11, 65, 0
16, 57264, Note_on_c, 11, 64, 50
16, 57288, Note_on_c, 11, 64, 0
16, 57288, Note_on_c, 11, 63, 40
16, 57312, Note_on_c, 11, 63, 0
16, 57312, Note_on_c, 11, 62, 41
16, 57408, Note_on_c, 11, 62, 0
16, 61536, Note_on_c, 11, 81, 41
16, 61728, Note_on_c, 11, 81, 0
16, 61728, Note_on_c, 11, 85, 50
16, 61920, Note_on_c, 11, 85, 0
16, 62688, Note_on_c, 11, 81, 40
16, 62880, Note_on_c, 11, 81, 0
16, 62880, Note_on_c, 11, 85, 44
16, 63072, Note_on_c, 11, 85, 0
16, 67680, Program_c, 11, 45
16, 71136, Note_on_c, 11, 79, 28
16, 71136, Note_on_c, 11, 86, 32
16, 71328, Note_on_c, 11, 79, 0
16, 71328, Note_on_c, 11, 86, 0
16, 71328, Note_on_c, 11, 76, 29
16, 71328, Note_on_c, 11, 84, 35
16, 71520, Note_on_c, 11, 76, 0
16, 71520, Note_on_c, 11, 84, 0
16, 71520, Note_on_c, 11, 79, 33
16, 71520, Note_on_c, 11, 86, 35
16, 71712, Note_on_c, 11, 79, 0
16, 71712, Note_on_c, 11, 86, 0
16, 71712, Note_on_c, 11, 76, 28
16, 71712, Note_on_c, 11, 84, 31
16, 71904, Note_on_c, 11, 76, 0
16, 71904, Note_on_c, 11, 84, 0
16, 71904, Note_on_c, 11, 79, 29
16, 71904, Note_on_c, 11, 86, 35
16, 72096, Note_on_c, 11, 79, 0
16, 72096, Note_on_c, 11, 86, 0
16, 72096, Note_on_c, 11, 81, 28
16, 72096, Note_on_c, 11, 88, 32
16, 72288, Note_on_c, 11, 81, 0
16, 72288, Note_on_c, 11, 88, 0
16, 74592, Note_on_c, 11, 80, 34
16, 74592, Note_on_c, 11, 84, 30
16, 74784, Note_on_c, 11, 80, 0
16, 74784, Note_on_c, 11, 84, 0
16, 74784, Note_on_c, 11, 79, 32
16, 74784, Note_on_c, 11, 83, 34
16, 74976, Note_on_c, 11, 79, 0
16, 74976, Note_on_c, 11, 83, 0
16, 74976, Note_on_c, 11, 78, 33
16, 74976, Note_on_c, 11, 82, 32
16, 75008, Note_on_c, 11, 78, 0
16, 75008, Note_on_c, 11, 82, 0
16, 75072, Note_on_c, 11, 82, 27
16, 75072, Note_on_c, 11, 86, 26
16, 75104, Note_on_c, 11, 82, 0
16, 75104, Note_on_c, 11, 86, 0
16, 75168, Note_on_c, 11, 77, 34
16, 75168, Note_on_c, 11, 81, 30
16, 75264, Note_on_c, 11, 77, 0
16, 75264, Note_on_c, 11, 81, 0
16, 75744, Note_on_c, 11, 80, 30
16, 75744, Note_on_c, 11, 84, 27
16, 75936, Note_on_c, 11, 80, 0
16, 75936, Note_on_c, 11, 84, 0
16, 75936, Note_on_c, 11, 79, 25
16, 75936, Note_on_c, 11, 83, 27
16, 76128, Note_on_c, 11, 79, 0
16, 76128, Note_on_c, 11, 83, 0
16, 76128, Note_on_c, 11, 78, 27
16, 76128, Note_on_c, 11, 82, 30
16, 76160, Note_on_c, 11, 78, 0
16, 76160, Note_on_c, 11, 82, 0
16, 76224, Note_on_c, 11, 82, 27
16, 76224, Note_on_c, 11, 86, 26
16, 76256, Note_on_c, 11, 82, 0
16, 76256, Note_on_c, 11, 86, 0
16, 76320, Note_on_c, 11, 77, 30
16, 76352, Note_on_c, 11, 77, 0
16, 76416, Note_on_c, 11, 76, 25
16, 76448, Note_on_c, 11, 76, 0
16, 76448, Note_on_c, 11, 75, 28
16, 76480, Note_on_c, 11, 75, 0
16, 76480, Note_on_c, 11, 80, 33
16, 76512, Note_on_c, 11, 80, 0
16, 76512, Note_on_c, 11, 77, 27
16, 76544, Note_on_c, 11, 77, 0
16, 76704, Note_on_c, 11, 72, 47
16, 76800, Note_on_c, 11, 72, 0
16, 76800, Note_on_c, 11, 68, 55
16, 76896, Note_on_c, 11, 68, 0
16, 77088, Note_on_c, 11, 60, 40
16, 77184, Note_on_c, 11, 60, 0
16, 77184, Note_on_c, 11, 56, 60
16, 77280, Note_on_c, 11, 56, 0
16, 86688, Note_on_c, 11, 80, 29
16, 86712, Note_on_c, 11, 80, 0
16, 86712, Note_on_c, 11, 81, 34
16, 86736, Note_on_c, 11, 81, 0
16, 86736, Note_on_c, 11, 80, 32
16, 86760, Note_on_c, 11, 80, 0
16, 86760, Note_on_c, 11, 81, 31
16, 86784, Note_on_c, 11, 81, 0
16, 86784, Note_on_c, 11, 80, 29
16, 86808, Note_on_c, 11, 80, 0
16, 86808, Note_on_c, 11, 81, 28
16, 86832, Note_on_c, 11, 81, 0
16, 86832, Note_on_c, 11, 80, 29
16, 86856, Note_on_c, 11, 80, 0
16, 86856, Note_on_c, 11, 81, 27
16, 86880, Note_on_c, 11, 81, 0
16, 86880, Note_on_c, 11, 80, 26
16, 86904, Note_on_c, 11, 80, 0
16, 86904, Note_on_c, 11, 81, 35
16, 86928, Note_on_c, 11, 81, 0
16, 86928, Note_on_c, 11, 80, 29
16, 86952, Note_on_c, 11, 80, 0
16, 86952, Note_on_c, 11, 81, 28
16, 86976, Note_on_c, 11, 81, 0
16, 86976, Note_on_c, 11, 80, 33
16, 87000, Note_on_c, 11, 80, 0
16, 87000, Note_on_c, 11, 81, 29
16, 87024, Note_on_c, 11, 81, 0
16, 87024, Note_on_c, 11, 80, 31
16, 87048, Note_on_c, 11, 80, 0
16, 87048, Note_on_c, 11, 81, 26
16, 87072, Note_on_c, 11, 81, 0
16, 87072, Note_on_c, 11, 80, 26
16, 87096, Note_on_c, 11, 80, 0
16, 87096, Note_on_c, 11, 81, 27
16, 87120, Note_on_c, 11, 81, 0
16, 87120, Note_on_c, 11, 80, 26
16, 87144, Note_on_c, 11, 80, 0
16, 87144, Note_on_c, 11, 81, 26
16, 87168, Note_on_c, 11, 81, 0
16, 87168, Note_on_c, 11, 80, 28
16, 87192, Note_on_c, 11, 80, 0
16, 87192, Note_on_c, 11, 81, 26
16, 87216, Note_on_c, 11, 81, 0
16, 87216, Note_on_c, 11, 80, 33
16, 87240, Note_on_c, 11, 80, 0
16, 87240, Note_on_c, 11, 81, 25
16, 87264, Note_on_c, 11, 81, 0
16, 87264, Note_on_c, 11, 80, 33
16, 87288, Note_on_c, 11, 80, 0
16, 87288, Note_on_c, 11, 81, 34
16, 87312, Note_on_c, 11, 81, 0
16, 87312, Note_on_c, 11, 80, 26
16, 87336, Note_on_c, 11, 80, 0
16, 87336, Note_on_c, 11, 81, 25
16, 87360, Note_on_c, 11, 81, 0
16, 87360, Note_on_c, 11, 80, 31
16, 87384, Note_on_c, 11, 80, 0
16, 87384, Note_on_c, 11, 81, 30
16, 87408, Note_on_c, 11, 81, 0
16, 87408, Note_on_c, 11, 80, 25
16, 87432, Note_on_c, 11, 80, 0
16, 87432, Note_on_c, 11, 81, 31
16, 87456, Note_on_c, 11, 81, 0
16, 87456, Note_on_c, 11, 80, 26
16, 87480, Note_on_c, 11, 80, 0
16, 87480, Note_on_c, 11, 81, 33
16, 87504, Note_on_c, 11, 81, 0
16, 87504, Note_on_c, 11, 80, 32
16, 87528, Note_on_c, 11, 80, 0
16, 87528, Note_on_c, 11, 81, 27
16, 87552, Note_on_c, 11, 81, 0
16, 87552, Note_on_c, 11, 80, 31
16, 87576, Note_on_c, 11, 80, 0
16, 87576, Note_on_c, 11, 81, 29
16, 87600, Note_on_c, 11, 81, 0
16, 87600, Note_on_c, 11, 80, 27
16, 87624, Note_on_c, 11, 80, 0
16, 87624, Note_on_c, 11, 81, 30
16, 87648, Note_on_c, 11, 81, 0
16, 87648, Note_on_c, 11, 80, 30
16, 87672, Note_on_c, 11, 80, 0
16, 87672, Note_on_c, 11, 81, 35
16, 87696, Note_on_c, 11, 81, 0
16, 87696, Note_on_c, 11, 80, 27
16, 87720, Note_on_c, 11, 80, 0
16, 87720, Note_on_c, 11, 81, 31
16, 87744, Note_on_c, 11, 81, 0
16, 87744, Note_on_c, 11, 80, 30
16, 87768, Note_on_c, 11, 80, 0
16, 87768, Note_on_c, 11, 81, 26
16, 87792, Note_on_c, 11, 81, 0
16, 87792, Note_on_c, 11, 80, 28
16, 87816, Note_on_c, 11, 80, 0
16, 87816, Note_on_c, 11, 81, 27
16, 87840, Note_on_c, 11, 81, 0
16, 87840, Note_on_c, 11, 80, 31
16, 87864, Note_on_c, 11, 80, 0
16, 87864, Note_on_c, 11, 81, 28
16, 87888, Note_on_c, 11, 81, 0
16, 87888, Note_on_c, 11, 80, 30
16, 87912, Note_on_c, 11, 80, 0
16, 87912, Note_on_c, 11, 81, 33
16, 87936, Note_on_c, 11, 81, 0
16, 87936, Note_on_c, 11, 80, 31
16, 87960, Note_on_c, 11, 80, 0
16, 87960, Note_on_c, 11, 81, 33
16, 87984, Note_on_c, 11, 81, 0
16, 87984, Note_on_c, 11, 80, 31
16, 88008, Note_on_c, 11, 80, 0
16, 88008, Note_on_c, 11, 81, 29
16, 88032, Note_on_c, 11, 81, 0
16, 88032, Note_on_c, 11, 80, 27
16, 88056, Note_on_c, 11, 80, 0
16, 88056, Note_on_c, 11, 81, 33
16, 88080, Note_on_c, 11, 81, 0
16, 88080, Note_on_c, 11, 80, 35
16, 88104, Note_on_c, 11, 80, 0
16, 88104, Note_on_c, 11, 81, 29
16, 88128, Note_on_c, 11, 81, 0
16, 88128, Note_on_c, 11, 80, 27
16, 88152, Note_on_c, 11, 80, 0
16, 88152, Note_on_c, 11, 81, 27
16, 88176, Note_on_c, 11, 81, 0
16, 88176, Note_on_c, 11, 80, 26
16, 88200, Note_on_c, 11, 80, 0
16, 88200, Note_on_c, 11, 81, 32
16, 88224, Note_on_c, 11, 81, 0
16, 88224, Note_on_c, 11, 80, 31
16, 88248, Note_on_c, 11, 80, 0
16, 88248, Note_on_c, 11, 81, 25
16, 88272, Note_on_c, 11, 81, 0
16, 88272, Note_on_c, 11, 80, 34
16, 88296, Note_on_c, 11, 80, 0
16, 88296, Note_on_c, 11, 81, 26
16, 88320, Note_on_c, 11, 81, 0
16, 88320, Note_on_c, 11, 80, 35
16, 88344, Note_on_c, 11, 80, 0
16, 88344, Note_on_c, 11, 81, 25
16, 88368, Note_on_c, 11, 81, 0
16, 88368, Note_on_c, 11, 80, 26
16, 88392, Note_on_c, 11, 80, 0
16, 88392, Note_on_c, 11, 81, 33
16, 88416, Note_on_c, 11, 81, 0
16, 88416, Note_on_c, 11, 80, 29
16, 88440, Note_on_c, 11, 80, 0
16, 88440, Note_on_c, 11, 81, 28
16, 88464, Note_on_c, 11, 81, 0
16, 88464, Note_on_c, 11, 80, 34
16, 88488, Note_on_c, 11, 80, 0
16, 88488, Note_on_c, 11, 81, 30
16, 88512, Note_on_c, 11, 81, 0
16, 88512, Note_on_c, 11, 80, 25
16, 88536, Note_on_c, 11, 80, 0
16, 88536, Note_on_c, 11, 81, 33
16, 88560, Note_on_c, 11, 81, 0
16, 88560, Note_on_c, 11, 80, 26
16, 88584, Note_on_c, 11, 80, 0
16, 88584, Note_on_c, 11, 81, 31
16, 88608, Note_on_c, 11, 81, 0
16, 88608, Note_on_c, 11, 80, 30
16, 88656, Note_on_c, 11, 80, 0
16, 88656, Note_on_c, 11, 78, 35
16, 88704, Note_on_c, 11, 78, 0
16, 88704, Note_on_c, 11, 76, 38
16, 88752, Note_on_c, 11, 76, 0
16, 88752, Note_on_c, 11, 75, 43
16, 88800, Note_on_c, 11, 75, 0
16, 88800, Note_on_c, 11, 73, 41
16, 88848, Note_on_c, 11, 73, 0
16, 88848, Note_on_c, 11, 75, 46
16, 88896, Note_on_c, 11, 75, 0
16, 88896, Note_on_c, 11, 76, 59
16, 88944, Note_on_c, 11, 76, 0
16, 88944, Note_on_c, 11, 78, 57
16, 88992, Note_on_c, 11, 78, 0
16, 88992, Note_on_c, 11, 80, 29
16, 89016, Note_on_c, 11, 80, 0
16, 89016, Note_on_c, 11, 81, 30
16, 89040, Note_on_c, 11, 81, 0
16, 89040, Note_on_c, 11, 80, 30
16, 89064, Note_on_c, 11, 80, 0
16, 89064, Note_on_c, 11, 81, 34
16, 89088, Note_on_c, 11, 81, 0
16, 89088, Note_on_c, 11, 80, 27
16, 89112, Note_on_c, 11, 80, 0
16, 89112, Note_on_c, 11, 81, 31
16, 89136, Note_on_c, 11, 81, 0
16, 89136, Note_on_c, 11, 80, 29
16, 89160, Note_on_c, 11, 80, 0
16, 89160, Note_on_c, 11, 81, 31
16, 89184, Note_on_c, 11, 81, 0
16, 89184, Note_on_c, 11, 80, 32
16, 89208, Note_on_c, 11, 80, 0
16, 89208, Note_on_c, 11, 81, 26
16, 89232, Note_on_c, 11, 81, 0
16, 89232, Note_on_c, 11, 80, 30
16, 89256, Note_on_c, 11, 80, 0
16, 89256, Note_on_c, 11, 81, 35
16, 89280, Note_on_c, 11, 81, 0
16, 89280, Note_on_c, 11, 80, 30
16, 89304, Note_on_c, 11, 80, 0
16, 89304, Note_on_c, 11, 81, 30
16, 89328, Note_on_c, 11, 81, 0
16, 89328, Note_on_c, 11, 80, 32
16, 89352, Note_on_c, 11, 80, 0
16, 89352, Note_on_c, 11, 81, 32
16, 89376, Note_on_c, 11, 81, 0
16, 89376, Note_on_c, 11, 80, 30
16, 89400, Note_on_c, 11, 80, 0
16, 89400, Note_on_c, 11, 81, 32
16, 89424, Note_on_c, 11, 81, 0
16, 89424, Note_on_c, 11, 80, 27
16, 89448, Note_on_c, 11, 80, 0
16, 89448, Note_on_c, 11, 81, 35
16, 89472, Note_on_c, 11, 81, 0
16, 89472, Note_on_c, 11, 80, 33
16, 89496, Note_on_c, 11, 80, 0
16, 89496, Note_on_c, 11, 81, 26
16, 89520, Note_on_c, 11, 81, 0
16, 89520, Note_on_c, 11, 80, 30
16, 89544, Note_on_c, 11, 80, 0
16, 89544, Note_on_c, 11, 81, 26
16, 89568, Note_on_c, 11, 81, 0
16, 89568, Note_on_c, 11, 80, 27
16, 89592, Note_on_c, 11, 80, 0
16, 89592, Note_on_c, 11, 81, 35
16, 89616, Note_on_c, 11, 81, 0
16, 89616, Note_on_c, 11, 80, 33
16, 89640, Note_on_c, 11, 80, 0
16, 89640, Note_on_c, 11, 81, 35
16, 89664, Note_on_c, 11, 81, 0
16, 89664, Note_on_c, 11, 80, 33
16, 89688, Note_on_c, 11, 80, 0
16, 89688, Note_on_c, 11, 81, 30
16, 89712, Note_on_c, 11, 81, 0
16, 89712, Note_on_c, 11, 80, 34
16, 89736, Note_on_c, 11, 80, 0
16, 89736, Note_on_c, 11, 81, 32
16, 89760, Note_on_c, 11, 81, 0
16, 89760, Note_on_c, 11, 80, 26
16, 89784, Note_on_c, 11, 80, 0
16, 89784, Note_on_c, 11, 81, 26
16, 89808, Note_on_c, 11, 81, 0
16, 89808, Note_on_c, 11, 80, 27
16, 89832, Note_on_c, 11, 80, 0
16, 89832, Note_on_c, 11, 81, 33
16, 89856, Note_on_c, 11, 81, 0
16, 89856, Note_on_c, 11, 80, 34
16, 89880, Note_on_c, 11, 80, 0
16, 89880, Note_on_c, 11, 81, 34
16, 89904, Note_on_c, 11, 81, 0
16, 89904, Note_on_c, 11, 80, 29
16, 89928, Note_on_c, 11, 80, 0
16, 89928, Note_on_c, 11, 81, 27
16, 89952, Note_on_c, 11, 81, 0
16, 89952, Note_on_c, 11, 80, 25
16, 89976, Note_on_c, 11, 80, 0
16, 89976, Note_on_c, 11, 81, 28
16, 90000, Note_on_c, 11, 81, 0
16, 90000, Note_on_c, 11, 80, 27
16, 90024, Note_on_c, 11, 80, 0
16, 90024, Note_on_c, 11, 81, 27
16, 90048, Note_on_c, 11, 81, 0
16, 90048, Note_on_c, 11, 80, 34
16, 90072, Note_on_c, 11, 80, 0
16, 90072, Note_on_c, 11, 81, 25
16, 90096, Note_on_c, 11, 81, 0
16, 90096, Note_on_c, 11, 80, 32
16, 90120, Note_on_c, 11, 80, 0
16, 90120, Note_on_c, 11, 81, 28
16, 90144, Note_on_c, 11, 81, 0
16, 90144, Note_on_c, 11, 80, 26
16, 90168, Note_on_c, 11, 80, 0
16, 90168, Note_on_c, 11, 81, 31
16, 90192, Note_on_c, 11, 81, 0
16, 90192, Note_on_c, 11, 80, 28
16, 90216, Note_on_c, 11, 80, 0
16, 90216, Note_on_c, 11, 81, 28
16, 90240, Note_on_c, 11, 81, 0
16, 90240, Note_on_c, 11, 80, 28
16, 90264, Note_on_c, 11, 80, 0
16, 90264, Note_on_c, 11, 81, 28
16, 90288, Note_on_c, 11, 81, 0
16, 90288, Note_on_c, 11, 80, 29
16, 90312, Note_on_c, 11, 80, 0
16, 90312, Note_on_c, 11, 81, 29
16, 90336, Note_on_c, 11, 81, 0
16, 90336, Note_on_c, 11, 80, 30
16, 90360, Note_on_c, 11, 80, 0
16, 90360, Note_on_c, 11, 81, 32
16, 90384, Note_on_c, 11, 81, 0
16, 90384, Note_on_c, 11, 80, 31
16, 90408, Note_on_c, 11, 80, 0
16, 90408, Note_on_c, 11, 81, 26
16, 90432, Note_on_c, 11, 81, 0
16, 90432, Note_on_c, 11, 80, 28
16, 90456, Note_on_c, 11, 80, 0
16, 90456, Note_on_c, 11, 81, 27
16, 90480, Note_on_c, 11, 81, 0
16, 90480, Note_on_c, 11, 80, 29
16, 90504, Note_on_c, 11, 80, 0
16, 90504, Note_on_c, 11, 81, 27
16, 90528, Note_on_c, 11, 81, 0
16, 90528, Note_on_c, 11, 80, 26
16, 90552, Note_on_c, 11, 80, 0
16, 90552, Note_on_c, 11, 81, 28
16, 90576, Note_on_c, 11, 81, 0
16, 90576, Note_on_c, 11, 80, 35
16, 90600, Note_on_c, 11, 80, 0
16, 90600, Note_on_c, 11, 81, 28
16, 90624, Note_on_c, 11, 81, 0
16, 90624, Note_on_c, 11, 80, 32
16, 90648, Note_on_c, 11, 80, 0
16, 90648, Note_on_c, 11, 81, 31
16, 90672, Note_on_c, 11, 81, 0
16, 90672, Note_on_c, 11, 80, 32
16, 90696, Note_on_c, 11, 80, 0
16, 90696, Note_on_c, 11, 81, 25
16, 90720, Note_on_c, 11, 81, 0
16, 90720, Note_on_c, 11, 68, 32
16, 90744, Note_on_c, 11, 68, 0
16, 90744, Note_on_c, 11, 69, 26
16, 90768, Note_on_c, 11, 69, 0
16, 90768, Note_on_c, 11, 68, 30
16, 90792, Note_on_c, 11, 68, 0
16, 90792, Note_on_c, 11, 69, 31
16, 90816, Note_on_c, 11, 69, 0
16, 90816, Note_on_c, 11, 68, 34
16, 90840, Note_on_c, 11, 68, 0
16, 90840, Note_on_c, 11, 69, 35
16, 90864, Note_on_c, 11, 69, 0
16, 90864, Note_on_c, 11, 68, 34
16, 90888, Note_on_c, 11, 68, 0
16, 90888, Note_on_c, 11, 69, 28
16, 90912, Note_on_c, 11, 69, 0
16, 90912, Note_on_c, 11, 68, 26
16, 90960, Note_on_c, 11, 68, 0
16, 90960, Note_on_c, 11, 66, 36
16, 91008, Note_on_c, 11, 66, 0
16, 91008, Note_on_c, 11, 64, 41
16, 91056, Note_on_c, 11, 64, 0
16, 91056, Note_on_c, 11, 63, 38
16, 91104, Note_on_c, 11, 63, 0
16, 91104, Note_on_c, 11, 61, 49
16, 91152, Note_on_c, 11, 61, 0
16, 91152, Note_on_c, 11, 63, 46
16, 91200, Note_on_c, 11, 63, 0
16, 91200, Note_on_c, 11, 64, 56
16, 91248, Note_on_c, 11, 64, 0
16, 91248, Note_on_c, 11, 66, 56
16, 91296, Note_on_c, 11, 66, 0
16, 91296, Note_on_c, 11, 68, 46
16, 91360, Note_on_c, 11, 68, 0
16, 91360, Note_on_c, 11, 71, 47
16, 91402, Note_on_c, 11, 71, 0
16, 91424, Note_on_c, 11, 70, 50
16, 91466, Note_on_c, 11, 70, 0
16, 91488, Note_on_c, 11, 71, 42
16, 91504, Note_on_c, 11, 71, 0
16, 91504, Note_on_c, 11, 70, 47
16, 91552, Note_on_c, 11, 70, 0
16, 91552, Note_on_c, 11, 68, 47
16, 91594, Note_on_c, 11, 68, 0
16, 91616, Note_on_c, 11, 68, 50
16, 91658, Note_on_c, 11, 68, 0
16, 91680, Note_on_c, 11, 68, 48
16, 91722, Note_on_c, 11, 68, 0
16, 91744, Note_on_c, 11, 73, 40
16, 91786, Note_on_c, 11, 73, 0
16, 91808, Note_on_c, 11, 71, 42
16, 91850, Note_on_c, 11, 71, 0
16, 91872, Note_on_c, 11, 71, 49
16, 91888, Note_on_c, 11, 71, 0
16, 91888, Note_on_c, 11, 70, 44
16, 91936, Note_on_c, 11, 70, 0
16, 91936, Note_on_c, 11, 68, 50
16, 91978, Note_on_c, 11, 68, 0
16, 92000, Note_on_c, 11, 68, 43
16, 92042, Note_on_c, 11, 68, 0
16, 92064, Note_on_c, 11, 68, 40
16, 92106, Note_on_c, 11, 68, 0
16, 92128, Note_on_c, 11, 71, 44
16, 92170, Note_on_c, 11, 71, 0
16, 92192, Note_on_c, 11, 70, 40
16, 92234, Note_on_c, 11, 70, 0
16, 92256, Note_on_c, 11, 68, 49
16, 92320, Note_on_c, 11, 68, 0
16, 92320, Note_on_c, 11, 69, 44
16, 92384, Note_on_c, 11, 69, 0
16, 92384, Note_on_c, 11, 71, 50
16, 92448, Note_on_c, 11, 71, 0
16, 92448, Note_on_c, 11, 74, 45
16, 92472, Note_on_c, 11, 74, 0
16, 92472, Note_on_c, 11, 76, 47
16, 92496, Note_on_c, 11, 76, 0
16, 92496, Note_on_c, 11, 74, 47
16, 92520, Note_on_c, 11, 74, 0
16, 92520, Note_on_c, 11, 76, 40
16, 92544, Note_on_c, 11, 76, 0
16, 92544, Note_on_c, 11, 74, 48
16, 92568, Note_on_c, 11, 74, 0
16, 92568, Note_on_c, 11, 76, 48
16, 92592, Note_on_c, 11, 76, 0
16, 92592, Note_on_c, 11, 74, 40
16, 92616, Note_on_c, 11, 74, 0
16, 92616, Note_on_c, 11, 76, 44
16, 92640, Note_on_c, 11, 76, 0
16, 92640, Note_on_c, 11, 74, 50
16, 92664, Note_on_c, 11, 74, 0
16, 92664, Note_on_c, 11, 76, 47
16, 92688, Note_on_c, 11, 76, 0
16, 92688, Note_on_c, 11, 74, 44
16, 92712, Note_on_c, 11, 74, 0
16, 92712, Note_on_c, 11, 76, 44
16, 92736, Note_on_c, 11, 76, 0
16, 92736, Note_on_c, 11, 74, 43
16, 92760, Note_on_c, 11, 74, 0
16, 92760, Note_on_c, 11, 76, 46
16, 92784, Note_on_c, 11, 76, 0
16, 92784, Note_on_c, 11, 74, 48
16, 92808, Note_on_c, 11, 74, 0
16, 92808, Note_on_c, 11, 76, 49
16, 92832, Note_on_c, 11, 76, 0
16, 92832, Note_on_c, 11, 74, 45
16, 92856, Note_on_c, 11, 74, 0
16, 92856, Note_on_c, 11, 76, 43
16, 92880, Note_on_c, 11, 76, 0
16, 92880, Note_on_c, 11, 74, 50
16, 92904, Note_on_c, 11, 74, 0
16, 92904, Note_on_c, 11, 76, 46
16, 92928, Note_on_c, 11, 76, 0
16, 92928, Note_on_c, 11, 74, 51
16, 92952, Note_on_c, 11, 74, 0
16, 92952, Note_on_c, 11, 76, 53
16, 92976, Note_on_c, 11, 76, 0
16, 92976, Note_on_c, 11, 74, 53
16, 93000, Note_on_c, 11, 74, 0
16, 93000, Note_on_c, 11, 76, 47
16, 93024, Note_on_c, 11, 76, 0
16, 93024, Note_on_c, 11, 71, 49
16, 93048, Note_on_c, 11, 71, 0
16, 93048, Note_on_c, 11, 73, 53
16, 93072, Note_on_c, 11, 73, 0
16, 93072, Note_on_c, 11, 71, 55
16, 93096, Note_on_c, 11, 71, 0
16, 93096, Note_on_c, 11, 73, 56
16, 93120, Note_on_c, 11, 73, 0
16, 93120, Note_on_c, 11, 71, 51
16, 93144, Note_on_c, 11, 71, 0
16, 93144, Note_on_c, 11, 73, 54
16, 93168, Note_on_c, 11, 73, 0
16, 93168, Note_on_c, 11, 71, 52
16, 93192, Note_on_c, 11, 71, 0
16, 93192, Note_on_c, 11, 73, 60
16, 93216, Note_on_c, 11, 73, 0
16, 93216, Note_on_c, 11, 71, 57
16, 93240, Note_on_c, 11, 71, 0
16, 93240, Note_on_c, 11, 73, 63
16, 93264, Note_on_c, 11, 73, 0
16, 93264, Note_on_c, 11, 71, 58
16, 93288, Note_on_c, 11, 71, 0
16, 93288, Note_on_c, 11, 73, 57
16, 93312, Note_on_c, 11, 73, 0
16, 93312, Note_on_c, 11, 71, 66
16, 93336, Note_on_c, 11, 71, 0
16, 93336, Note_on_c, 11, 73, 68
16, 93360, Note_on_c, 11, 73, 0
16, 93360, Note_on_c, 11, 71, 60
16, 93384, Note_on_c, 11, 71, 0
16, 93384, Note_on_c, 11, 73, 64
16, 93408, Note_on_c, 11, 73, 0
16, 93408, Note_on_c, 11, 71, 69
16, 93432, Note_on_c, 11, 71, 0
16, 93432, Note_on_c, 11, 73, 65
16, 93456, Note_on_c, 11, 73, 0
16, 93456, Note_on_c, 11, 71, 65
16, 93480, Note_on_c, 11, 71, 0
16, 93480, Note_on_c, 11, 73, 70
16, 93504, Note_on_c, 11, 73, 0
16, 93504, Note_on_c, 11, 71, 73
16, 93528, Note_on_c, 11, 71, 0
16, 93528, Note_on_c, 11, 73, 74
16, 93552, Note_on_c, 11, 73, 0
16, 93552, Note_on_c, 11, 71, 72
16, 93576, Note_on_c, 11, 71, 0
16, 93576, Note_on_c, 11, 73, 73
16, 93600, Note_on_c, 11, 73, 0
16, 93600, Note_on_c, 11, 68, 45
16, 93664, Note_on_c, 11, 68, 0
16, 93664, Note_on_c, 11, 71, 49
16, 93706, Note_on_c, 11, 71, 0
16, 93728, Note_on_c, 11, 70, 41
16, 93770, Note_on_c, 11, 70, 0
16, 93792, Note_on_c, 11, 71, 49
16, 93808, Note_on_c, 11, 71, 0
16, 93808, Note_on_c, 11, 70, 50
16, 93856, Note_on_c, 11, 70, 0
16, 93856, Note_on_c, 11, 68, 46
16, 93898, Note_on_c, 11, 68, 0
16, 93920, Note_on_c, 11, 68, 46
16, 93962, Note_on_c, 11, 68, 0
16, 93984, Note_on_c, 11, 68, 40
16, 94048, Note_on_c, 11, 68, 0
16, 94048, Note_on_c, 11, 73, 49
16, 94090, Note_on_c, 11, 73, 0
16, 94112, Note_on_c, 11, 71, 42
16, 94154, Note_on_c, 11, 71, 0
16, 94176, Note_on_c, 11, 71, 50
16, 94192, Note_on_c, 11, 71, 0
16, 94192, Note_on_c, 11, 70, 50
16, 94240, Note_on_c, 11, 70, 0
16, 94240, Note_on_c, 11, 68, 44
16, 94282, Note_on_c, 11, 68, 0
16, 94304, Note_on_c, 11, 68, 41
16, 94346, Note_on_c, 11, 68, 0
16, 94368, Note_on_c, 11, 68, 49
16, 94410, Note_on_c, 11, 68, 0
16, 94432, Note_on_c, 11, 71, 44
16, 94474, Note_on_c, 11, 71, 0
16, 94496, Note_on_c, 11, 70, 50
16, 94538, Note_on_c, 11, 70, 0
16, 94560, Note_on_c, 11, 68, 48
16, 94624, Note_on_c, 11, 68, 0
16, 94624, Note_on_c, 11, 69, 44
16, 94688, Note_on_c, 11, 69, 0
16, 94688, Note_on_c, 11, 71, 44
16, 94752, Note_on_c, 11, 71, 0
16, 94752, Note_on_c, 11, 74, 40
16, 94816, Note_on_c, 11, 74, 0
16, 94816, Note_on_c, 11, 78, 49
16, 94858, Note_on_c, 11, 78, 0
16, 94880, Note_on_c, 11, 76, 49
16, 94922, Note_on_c, 11, 76, 0
16, 94944, Note_on_c, 11, 78, 49
16, 94960, Note_on_c, 11, 78, 0
16, 94960, Note_on_c, 11, 76, 51
16, 95008, Note_on_c, 11, 76, 0
16, 95008, Note_on_c, 11, 75, 53
16, 95050, Note_on_c, 11, 75, 0
16, 95072, Note_on_c, 11, 75, 53
16, 95114, Note_on_c, 11, 75, 0
16, 95136, Note_on_c, 11, 75, 52
16, 95200, Note_on_c, 11, 75, 0
16, 95200, Note_on_c, 11, 80, 55
16, 95242, Note_on_c, 11, 80, 0
16, 95264, Note_on_c, 11, 78, 56
16, 95306, Note_on_c, 11, 78, 0
16, 95328, Note_on_c, 11, 74, 56
16, 95392, Note_on_c, 11, 74, 0
16, 95392, Note_on_c, 11, 78, 62
16, 95434, Note_on_c, 11, 78, 0
16, 95456, Note_on_c, 11, 76, 61
16, 95498, Note_on_c, 11, 76, 0
16, 95520, Note_on_c, 11, 78, 68
16, 95536, Note_on_c, 11, 78, 0
16, 95536, Note_on_c, 11, 76, 63
16, 95584, Note_on_c, 11, 76, 0
16, 95584, Note_on_c, 11, 75, 67
16, 95626, Note_on_c, 11, 75, 0
16, 95648, Note_on_c, 11, 75, 65
16, 95690, Note_on_c, 11, 75, 0
16, 95712, Note_on_c, 11, 75, 69
16, 95776, Note_on_c, 11, 75, 0
16, 95776, Note_on_c, 11, 80, 74
16, 95818, Note_on_c, 11, 80, 0
16, 95840, Note_on_c, 11, 78, 80
16, 95882, Note_on_c, 11, 78, 0
16, 100512, Note_on_c, 11, 78, 65
16, 100704, Note_on_c, 11, 78, 0
16, 100704, Note_on_c, 11, 83, 65
16, 100992, Note_on_c, 11, 83, 0
16, 100992, Note_on_c, 11, 81, 57
16, 101088, Note_on_c, 11, 81, 0
16, 101088, Note_on_c, 11, 78, 56
16, 101280, Note_on_c, 11, 78, 0
16, 101280, Note_on_c, 11, 76, 61
16, 101322, Note_on_c, 11, 76, 0
16, 101344, Note_on_c, 11, 76, 58
16, 101386, Note_on_c, 11, 76, 0
16, 101408, Note_on_c, 11, 76, 57
16, 101450, Note_on_c, 11, 76, 0
16, 101472, Note_on_c, 11, 73, 57
16, 101514, Note_on_c, 11, 73, 0
16, 101536, Note_on_c, 11, 73, 59
16, 101578, Note_on_c, 11, 73, 0
16, 101600, Note_on_c, 11, 73, 62
16, 101642, Note_on_c, 11, 73, 0
16, 101664, Note_on_c, 11, 75, 62
16, 101856, Note_on_c, 11, 75, 0
16, 101856, Note_on_c, 11, 80, 55
16, 101898, Note_on_c, 11, 80, 0
16, 101920, Note_on_c, 11, 80, 60
16, 101962, Note_on_c, 11, 80, 0
16, 101984, Note_on_c, 11, 80, 62
16, 102026, Note_on_c, 11, 80, 0
16, 102048, Note_on_c, 11, 78, 60
16, 102090, Note_on_c, 11, 78, 0
16, 102112, Note_on_c, 11, 78, 58
16, 102154, Note_on_c, 11, 78, 0
16, 102176, Note_on_c, 11, 78, 58
16, 102432, Note_on_c, 11, 78, 0
16, 102432, Note_on_c, 11, 83, 58
16, 102474, Note_on_c, 11, 83, 0
16, 102496, Note_on_c, 11, 83, 64
16, 102538, Note_on_c, 11, 83, 0
16, 102560, Note_on_c, 11, 83, 57
16, 102602, Note_on_c, 11, 83, 0
16, 102624, Note_on_c, 11, 81, 64
16, 102666, Note_on_c, 11, 81, 0
16, 102688, Note_on_c, 11, 81, 61
16, 102730, Note_on_c, 11, 81, 0
16, 102752, Note_on_c, 11, 81, 65
16, 102794, Note_on_c, 11, 81, 0
16, 102816, Note_on_c, 11, 86, 79
16, 103008, Note_on_c, 11, 86, 0
16, 103008, Note_on_c, 11, 92, 80
16, 103296, Note_on_c, 11, 92, 0
16, 103296, Note_on_c, 11, 88, 70
16, 103392, Note_on_c, 11, 88, 0
16, 103392, Note_on_c, 11, 86, 71
16, 103584, Note_on_c, 11, 86, 0
16, 103584, Note_on_c, 11, 85, 73
16, 103626, Note_on_c, 11, 85, 0
16, 103648, Note_on_c, 11, 85, 71
16, 103690, Note_on_c, 11, 85, 0
16, 103712, Note_on_c, 11, 85, 70
16, 103754, Note_on_c, 11, 85, 0
16, 103776, Note_on_c, 11, 81, 79
16, 103818, Note_on_c, 11, 81, 0
16, 103840, Note_on_c, 11, 81, 79
16, 103882, Note_on_c, 11, 81, 0
16, 103904, Note_on_c, 11, 81, 79
16, 103946, Note_on_c, 11, 81, 0
16, 103968, Note_on_c, 11, 80, 80
16, 104010, Note_on_c, 11, 80, 0
16, 104032, Note_on_c, 11, 80, 73
16, 104074, Note_on_c, 11, 80, 0
16, 104096, Note_on_c, 11, 80, 70
16, 104138, Note_on_c, 11, 80, 0
16, 104160, Note_on_c, 11, 76, 73
16, 104202, Note_on_c, 11, 76, 0
16, 104224, Note_on_c, 11, 76, 74
16, 104266, Note_on_c, 11, 76, 0
16, 104288, Note_on_c, 11, 76, 71
16, 104330, Note_on_c, 11, 76, 0
16, 104352, Note_on_c, 11, 74, 75
16, 104394, Note_on_c, 11, 74, 0
16, 104416, Note_on_c, 11, 74, 80
16, 104458, Note_on_c, 11, 74, 0
16, 104480, Note_on_c, 11, 74, 70
16, 104640, Note_on_c, 11, 74, 0
16, 104640, Note_on_c, 11, 76, 75
16, 104736, Note_on_c, 11, 76, 0
16, 104736, Note_on_c, 11, 80, 70
16, 104832, Note_on_c, 11, 80, 0
16, 104832, Note_on_c, 11, 81, 71
16, 104928, Note_on_c, 11, 81, 0
16, 104928, Note_on_c, 11, 85, 70
16, 105024, Note_on_c, 11, 85, 0
16, 105024, Note_on_c, 11, 86, 76
16, 105120, Note_on_c, 11, 86, 0
16, 105120, Note_on_c, 11, 86, 77
16, 105312, Note_on_c, 11, 86, 0
16, 105312, Note_on_c, 11, 92, 76
16, 105600, Note_on_c, 11, 92, 0
16, 105600, Note_on_c, 11, 88, 78
16, 105696, Note_on_c, 11, 88, 0
16, 105696, Note_on_c, 11, 86, 78
16, 105888, Note_on_c, 11, 86, 0
16, 105888, Note_on_c, 11, 85, 73
16, 105930, Note_on_c, 11, 85, 0
16, 105952, Note_on_c, 11, 85, 74
16, 105994, Note_on_c, 11, 85, 0
16, 106016, Note_on_c, 11, 85, 79
16, 106058, Note_on_c, 11, 85, 0
16, 106080, Note_on_c, 11, 81, 75
16, 106122, Note_on_c, 11, 81, 0
16, 106144, Note_on_c, 11, 81, 78
16, 106186, Note_on_c, 11, 81, 0
16, 106208, Note_on_c, 11, 81, 75
16, 106250, Note_on_c, 11, 81, 0
16, 106272, Note_on_c, 11, 80, 73
16, 106314, Note_on_c, 11, 80, 0
16, 106336, Note_on_c, 11, 80, 75
16, 106378, Note_on_c, 11, 80, 0
16, 106400, Note_on_c, 11, 80, 71
16, 106442, Note_on_c, 11, 80, 0
16, 106464, Note_on_c, 11, 76, 75
16, 106506, Note_on_c, 11, 76, 0
16, 106528, Note_on_c, 11, 76, 78
16, 106570, Note_on_c, 11, 76, 0
16, 106592, Note_on_c, 11, 76, 73
16, 106634, Note_on_c, 11, 76, 0
16, 106656, Note_on_c, 11, 74, 74
16, 106698, Note_on_c, 11, 74, 0
16, 106720, Note_on_c, 11, 74, 78
16, 106762, Note_on_c, 11, 74, 0
16, 106784, Note_on_c, 11, 74, 79
16, 106944, Note_on_c, 11, 74, 0
16, 106944, Note_on_c, 11, 76, 70
16, 107040, Note_on_c, 11, 76, 0
16, 107040, Note_on_c, 11, 80, 73
16, 107136, Note_on_c, 11, 80, 0
16, 107136, Note_on_c, 11, 81, 72
16, 107232, Note_on_c, 11, 81, 0
16, 107232, Note_on_c, 11, 85, 77
16, 107328, Note_on_c, 11, 85, 0
16, 107328, Note_on_c, 11, 86, 74
16, 107424, Note_on_c, 11, 86, 0
16, 107424, Note_on_c, 11, 82, 96
16, 107616, Note_on_c, 11, 82, 0
16, 107616, Note_on_c, 11, 87, 91
16, 107904, Note_on_c, 11, 87, 0
16, 107904, Note_on_c, 11, 84, 96
16, 108000, Note_on_c, 11, 84, 0
16, 108000, Note_on_c, 11, 82, 95
16, 108192, Note_on_c, 11, 82, 0
16, 108192, Note_on_c, 11, 80, 85
16, 108234, Note_on_c, 11, 80, 0
16, 108256, Note_on_c, 11, 80, 90
16, 108298, Note_on_c, 11, 80, 0
16, 108320, Note_on_c, 11, 80, 88
16, 108362, Note_on_c, 11, 80, 0
16, 108384, Note_on_c, 11, 77, 90
16, 108426, Note_on_c, 11, 77, 0
16, 108448, Note_on_c, 11, 77, 85
16, 108490, Note_on_c, 11, 77, 0
16, 108512, Note_on_c, 11, 77, 87
16, 108554, Note_on_c, 11, 77, 0
16, 108576, Note_on_c, 11, 75, 89
16, 108618, Note_on_c, 11, 75, 0
16, 108640, Note_on_c, 11, 75, 83
16, 108682, Note_on_c, 11, 75, 0
16, 108704, Note_on_c, 11, 75, 81
16, 108746, Note_on_c, 11, 75, 0
16, 108768, Note_on_c, 11, 72, 77
16, 108810, Note_on_c, 11, 72, 0
16, 108832, Note_on_c, 11, 72, 84
16, 108874, Note_on_c, 11, 72, 0
16, 108896, Note_on_c, 11, 72, 74
16, 108938, Note_on_c, 11, 72, 0
16, 108960, Note_on_c, 11, 70, 81
16, 109002, Note_on_c, 11, 70, 0
16, 109024, Note_on_c, 11, 70, 72
16, 109066, Note_on_c, 11, 70, 0
16, 109088, Note_on_c, 11, 70, 79
16, 109248, Note_on_c, 11, 70, 0
16, 109248, Note_on_c, 11, 72, 73
16, 109280, Note_on_c, 11, 72, 0
16, 109344, Note_on_c, 11, 75, 75
16, 109440, Note_on_c, 11, 75, 0
16, 109440, Note_on_c, 11, 77, 82
16, 109536, Note_on_c, 11, 77, 0
16, 109536, Note_on_c, 11, 80, 80
16, 109632, Note_on_c, 11, 80, 0
16, 109632, Note_on_c, 11, 82, 87
16, 109728, Note_on_c, 11, 82, 0
16, 109728, Note_on_c, 11, 86, 90
16, 109770, Note_on_c, 11, 86, 0
16, 109792, Note_on_c, 11, 86, 88
16, 109834, Note_on_c, 11, 86, 0
16, 109856, Note_on_c, 11, 86, 88
16, 109898, Note_on_c, 11, 86, 0
16, 109920, Note_on_c, 11, 83, 95
16, 109962, Note_on_c, 11, 83, 0
16, 109984, Note_on_c, 11, 83, 92
16, 110026, Note_on_c, 11, 83, 0
16, 110048, Note_on_c, 11, 83, 94
16, 110090, Note_on_c, 11, 83, 0
16, 110112, Note_on_c, 11, 86, 87
16, 110154, Note_on_c, 11, 86, 0
16, 110176, Note_on_c, 11, 86, 91
16, 110218, Note_on_c, 11, 86, 0
16, 110240, Note_on_c, 11, 86, 92
16, 110400, Note_on_c, 11, 86, 0
16, 110496, Note_on_c, 11, 83, 89
16, 110538, Note_on_c, 11, 83, 0
16, 110560, Note_on_c, 11, 83, 89
16, 110602, Note_on_c, 11, 83, 0
16, 110624, Note_on_c, 11, 83, 88
16, 110666, Note_on_c, 11, 83, 0
16, 110688, Note_on_c, 11, 86, 94
16, 110730, Note_on_c, 11, 86, 0
16, 110752, Note_on_c, 11, 86, 95
16, 110794, Note_on_c, 11, 86, 0
16, 110816, Note_on_c, 11, 86, 87
16, 110858, Note_on_c, 11, 86, 0
16, 110880, Note_on_c, 11, 86, 87
16, 110922, Note_on_c, 11, 86, 0
16, 110944, Note_on_c, 11, 86, 92
16, 110986, Note_on_c, 11, 86, 0
16, 111008, Note_on_c, 11, 86, 88
16, 111050, Note_on_c, 11, 86, 0
16, 111072, Note_on_c, 11, 86, 90
16, 111114, Note_on_c, 11, 86, 0
16, 111136, Note_on_c, 11, 86, 96
16, 111178, Note_on_c, 11, 86, 0
16, 111200, Note_on_c, 11, 86, 97
16, 111242, Note_on_c, 11, 86, 0
16, 111264, Note_on_c, 11, 86, 93
16, 111360, Note_on_c, 11, 86, 0
16, 112032, Note_on_c, 11, 82, 108
16, 112224, Note_on_c, 11, 82, 0
16, 112224, Note_on_c, 11, 87, 111
16, 112512, Note_on_c, 11, 87, 0
16, 112512, Note_on_c, 11, 84, 110
16, 112608, Note_on_c, 11, 84, 0
16, 112608, Note_on_c, 11, 82, 111
16, 112800, Note_on_c, 11, 82, 0
16, 112800, Note_on_c, 11, 80, 106
16, 112842, Note_on_c, 11, 80, 0
16, 112864, Note_on_c, 11, 80, 105
16, 112906, Note_on_c, 11, 80, 0
16, 112928, Note_on_c, 11, 80, 110
16, 112970, Note_on_c, 11, 80, 0
16, 112992, Note_on_c, 11, 77, 103
16, 113034, Note_on_c, 11, 77, 0
16, 113056, Note_on_c, 11, 77, 110
16, 113098, Note_on_c, 11, 77, 0
16, 113120, Note_on_c, 11, 77, 108
16, 113162, Note_on_c, 11, 77, 0
16, 113184, Note_on_c, 11, 75, 112
16, 113226, Note_on_c, 11, 75, 0
16, 113248, Note_on_c, 11, 75, 113
16, 113290, Note_on_c, 11, 75, 0
16, 113312, Note_on_c, 11, 75, 111
16, 113354, Note_on_c, 11, 75, 0
16, 113376, Note_on_c, 11, 72, 110
16, 113418, Note_on_c, 11, 72, 0
16, 113440, Note_on_c, 11, 72, 111
16, 113482, Note_on_c, 11, 72, 0
16, 113504, Note_on_c, 11, 72, 107
16, 113546, Note_on_c, 11, 72, 0
16, 113568, Note_on_c, 11, 70, 113
16, 113610, Note_on_c, 11, 70, 0
16, 113632, Note_on_c, 11, 70, 109
16, 113674, Note_on_c, 11, 70, 0
16, 113696, Note_on_c, 11, 70, 111
16, 113856, Note_on_c, 11, 70, 0
16, 113856, Note_on_c, 11, 72, 104
16, 113952, Note_on_c, 11, 72, 0
16, 113952, Note_on_c, 11, 75, 104
16, 114048, Note_on_c, 11, 75, 0
16, 114048, Note_on_c, 11, 77, 106
16, 114144, Note_on_c, 11, 77, 0
16, 114144, Note_on_c, 11, 80, 105
16, 114240, Note_on_c, 11, 80, 0
16, 114240, Note_on_c, 11, 82, 106
16, 114336, Note_on_c, 11, 82, 0
16, 114336, Note_on_c, 11, 84, 108
16, 114378, Note_on_c, 11, 84, 0
16, 114400, Note_on_c, 11, 84, 108
16, 114442, Note_on_c, 11, 84, 0
16, 114464, Note_on_c, 11, 84, 105
16, 114506, Note_on_c, 11, 84, 0
16, 114528, Note_on_c, 11, 84, 108
16, 114560, Note_on_c, 11, 84, 0
16, 114624, Note_on_c, 11, 84, 112
16, 114656, Note_on_c, 11, 84, 0
16, 114720, Note_on_c, 11, 84, 107
16, 114752, Note_on_c, 11, 84, 0
16, 114816, Note_on_c, 11, 84, 104
16, 114848, Note_on_c, 11, 84, 0
16, 114912, Note_on_c, 11, 84, 111
16, 114954, Note_on_c, 11, 84, 0
16, 114976, Note_on_c, 11, 84, 115
16, 115018, Note_on_c, 11, 84, 0
16, 115040, Note_on_c, 11, 84, 111
16, 115082, Note_on_c, 11, 84, 0
16, 115104, Note_on_c, 11, 84, 114
16, 115146, Note_on_c, 11, 84, 0
16, 115168, Note_on_c, 11, 84, 115
16, 115210, Note_on_c, 11, 84, 0
16, 115232, Note_on_c, 11, 84, 115
16, 115274, Note_on_c, 11, 84, 0
16, 115296, Note_on_c, 11, 84, 123
16, 115338, Note_on_c, 11, 84, 0
16, 115360, Note_on_c, 11, 84, 121
16, 115402, Note_on_c, 11, 84, 0
16, 115424, Note_on_c, 11, 84, 127
16, 115466, Note_on_c, 11, 84, 0
16, 115488, Note_on_c, 11, 82, 108
16, 115530, Note_on_c, 11, 82, 0
16, 115552, Note_on_c, 11, 82, 107
16, 115594, Note_on_c, 11, 82, 0
16, 115616, Note_on_c, 11, 82, 110
16, 115658, Note_on_c, 11, 82, 0
16, 115680, Note_on_c, 11, 82, 107
16, 115712, Note_on_c, 11, 82, 0
16, 115776, Note_on_c, 11, 82, 103
16, 115808, Note_on_c, 11, 82, 0
16, 115872, Note_on_c, 11, 82, 110
16, 115904, Note_on_c, 11, 82, 0
16, 115968, Note_on_c, 11, 82, 108
16, 116000, Note_on_c, 11, 82, 0
16, 116064, Note_on_c, 11, 84, 111
16, 116106, Note_on_c, 11, 84, 0
16, 116128, Note_on_c, 11, 84, 107
16, 116170, Note_on_c, 11, 84, 0
16, 116192, Note_on_c, 11, 84, 109
16, 116234, Note_on_c, 11, 84, 0
16, 116256, Note_on_c, 11, 84, 106
16, 116298, Note_on_c, 11, 84, 0
16, 116320, Note_on_c, 11, 84, 108
16, 116362, Note_on_c, 11, 84, 0
16, 116384, Note_on_c, 11, 84, 111
16, 116426, Note_on_c, 11, 84, 0
16, 116448, Note_on_c, 11, 84, 104
16, 116490, Note_on_c, 11, 84, 0
16, 116512, Note_on_c, 11, 84, 103
16, 116554, Note_on_c, 11, 84, 0
16, 116576, Note_on_c, 11, 84, 105
16, 116618, Note_on_c, 11, 84, 0
16, 133920, Note_on_c, 11, 85, 26
16, 135072, Note_on_c, 11, 85, 0
16, 136224, Note_on_c, 11, 85, 26
16, 137376, Note_on_c, 11, 85, 0
16, 137376, End_track
17, 0, Start_track
17, 0, Title_t, "Violini II - a"
17, 0, MIDI_port, 0
17, 1344, Program_c, 12, 44
17, 1344, Note_on_c, 12, 68, 46
17, 1536, Note_on_c, 12, 68, 0
17, 1920, Control_c, 12, 11, 127
17, 1920, Note_on_c, 12, 68, 49
17, 1925, Control_c, 12, 11, 126
17, 1930, Control_c, 12, 11, 125
17, 1936, Control_c, 12, 11, 124
17, 1941, Control_c, 12, 11, 123
17, 1947, Control_c, 12, 11, 122
17, 1952, Control_c, 12, 11, 121
17, 1958, Control_c, 12, 11, 120
17, 1963, Control_c, 12, 11, 119
17, 1969, Control_c, 12, 11, 118
17, 1974, Control_c, 12, 11, 117
17, 1980, Control_c, 12, 11, 116
17, 1985, Control_c, 12, 11, 115
17, 1991, Control_c, 12, 11, 114
17, 1996, Control_c, 12, 11, 113
17, 2002, Control_c, 12, 11, 112
17, 2007, Control_c, 12, 11, 111
17, 2013, Control_c, 12, 11, 110
17, 2018, Control_c, 12, 11, 109
17, 2024, Control_c, 12, 11, 108
17, 2029, Control_c, 12, 11, 107
17, 2035, Control_c, 12, 11, 106
17, 2040, Control_c, 12, 11, 105
17, 2046, Control_c, 12, 11, 104
17, 2051, Control_c, 12, 11, 103
17, 2057, Control_c, 12, 11, 102
17, 2062, Control_c, 12, 11, 101
17, 2068, Control_c, 12, 11, 100
17, 2073, Control_c, 12, 11, 99
17, 2079, Control_c, 12, 11, 98
17, 2084, Control_c, 12, 11, 97
17, 2090, Control_c, 12, 11, 96
17, 2095, Control_c, 12, 11, 95
17, 2101, Control_c, 12, 11, 94
17, 2106, Control_c, 12, 11, 93
17, 2112, Note_on_c, 12, 68, 0
17, 2112, Control_c, 12, 11, 92
17, 2496, Control_c, 12, 11, 92
17, 2496, Note_on_c, 12, 68, 58
17, 2501, Control_c, 12, 11, 93
17, 2506, Control_c, 12, 11, 94
17, 2512, Control_c, 12, 11, 95
17, 2517, Control_c, 12, 11, 96
17, 2523, Control_c, 12, 11, 97
17, 2528, Control_c, 12, 11, 98
17, 2534, Control_c, 12, 11, 99
17, 2539, Control_c, 12, 11, 100
17, 2545, Control_c, 12, 11, 101
17, 2550, Control_c, 12, 11, 102
17, 2556, Control_c, 12, 11, 103
17, 2561, Control_c, 12, 11, 104
17, 2567, Control_c, 12, 11, 105
17, 2572, Control_c, 12, 11, 106
17, 2578, Control_c, 12, 11, 107
17, 2583, Control_c, 12, 11, 108
17, 2589, Control_c, 12, 11, 109
17, 2594, Control_c, 12, 11, 110
17, 2600, Control_c, 12, 11, 111
17, 2605, Control_c, 12, 11, 112
17, 2611, Control_c, 12, 11, 113
17, 2616, Control_c, 12, 11, 114
17, 2622, Control_c, 12, 11, 115
17, 2627, Control_c, 12, 11, 116
17, 2633, Control_c, 12, 11, 117
17, 2638, Control_c, 12, 11, 118
17, 2644, Control_c, 12, 11, 119
17, 2649, Control_c, 12, 11, 120
17, 2655, Control_c, 12, 11, 121
17, 2660, Control_c, 12, 11, 122
17, 2666, Control_c, 12, 11, 123
17, 2671, Control_c, 12, 11, 124
17, 2677, Control_c, 12, 11, 125
17, 2682, Control_c, 12, 11, 126
17, 2688, Note_on_c, 12, 68, 0
17, 2688, Control_c, 12, 11, 127
17, 3072, Note_on_c, 12, 68, 61
17, 3264, Note_on_c, 12, 68, 0
17, 3456, Control_c, 12, 11, 92
17, 3456, Note_on_c, 12, 68, 28
17, 3466, Control_c, 12, 11, 93
17, 3477, Control_c, 12, 11, 94
17, 3488, Control_c, 12, 11, 95
17, 3499, Control_c, 12, 11, 96
17, 3510, Control_c, 12, 11, 97
17, 3521, Control_c, 12, 11, 98
17, 3532, Control_c, 12, 11, 99
17, 3543, Control_c, 12, 11, 100
17, 3554, Control_c, 12, 11, 101
17, 3565, Control_c, 12, 11, 102
17, 3576, Control_c, 12, 11, 103
17, 3587, Control_c, 12, 11, 104
17, 3598, Control_c, 12, 11, 105
17, 3609, Control_c, 12, 11, 106
17, 3620, Control_c, 12, 11, 107
17, 3631, Control_c, 12, 11, 108
17, 3642, Control_c, 12, 11, 109
17, 3653, Control_c, 12, 11, 110
17, 3664, Control_c, 12, 11, 111
17, 3675, Control_c, 12, 11, 112
17, 3686, Control_c, 12, 11, 113
17, 3697, Control_c, 12, 11, 114
17, 3708, Control_c, 12, 11, 115
17, 3719, Control_c, 12, 11, 116
17, 3730, Control_c, 12, 11, 117
17, 3741, Control_c, 12, 11, 118
17, 3752, Control_c, 12, 11, 119
17, 3763, Control_c, 12, 11, 120
17, 3774, Control_c, 12, 11, 121
17, 3785, Control_c, 12, 11, 122
17, 3796, Control_c, 12, 11, 123
17, 3807, Control_c, 12, 11, 124
17, 3818, Control_c, 12, 11, 125
17, 3829, Control_c, 12, 11, 126
17, 3840, Note_on_c, 12, 68, 0
17, 3840, Control_c, 12, 11, 127
17, 3840, Note_on_c, 12, 66, 33
17, 3845, Control_c, 12, 11, 126
17, 3850, Control_c, 12, 11, 125
17, 3856, Control_c, 12, 11, 124
17, 3861, Control_c, 12, 11, 123
17, 3867, Control_c, 12, 11, 122
17, 3872, Control_c, 12, 11, 121
17, 3878, Control_c, 12, 11, 120
17, 3883, Control_c, 12, 11, 119
17, 3889, Control_c, 12, 11, 118
17, 3894, Control_c, 12, 11, 117
17, 3900, Control_c, 12, 11, 116
17, 3905, Control_c, 12, 11, 115
17, 3911, Control_c, 12, 11, 114
17, 3916, Control_c, 12, 11, 113
17, 3922, Control_c, 12, 11, 112
17, 3927, Control_c, 12, 11, 111
17, 3933, Control_c, 12, 11, 110
17, 3938, Control_c, 12, 11, 109
17, 3944, Control_c, 12, 11, 108
17, 3949, Control_c, 12, 11, 107
17, 3955, Control_c, 12, 11, 106
17, 3960, Control_c, 12, 11, 105
17, 3966, Control_c, 12, 11, 104
17, 3971, Control_c, 12, 11, 103
17, 3977, Control_c, 12, 11, 102
17, 3982, Control_c, 12, 11, 101
17, 3988, Control_c, 12, 11, 100
17, 3993, Control_c, 12, 11, 99
17, 3999, Control_c, 12, 11, 98
17, 4004, Control_c, 12, 11, 97
17, 4010, Control_c, 12, 11, 96
17, 4015, Control_c, 12, 11, 95
17, 4021, Control_c, 12, 11, 94
17, 4026, Control_c, 12, 11, 93
17, 4032, Note_on_c, 12, 66, 0
17, 4032, Control_c, 12, 11, 92
17, 5184, Control_c, 12, 11, 127
17, 5184, Note_on_c, 12, 66, 35
17, 5208, Note_on_c, 12, 66, 0
17, 5208, Note_on_c, 12, 64, 27
17, 5232, Note_on_c, 12, 64, 0
17, 5232, Note_on_c, 12, 66, 30
17, 5256, Note_on_c, 12, 66, 0
17, 5256, Note_on_c, 12, 64, 30
17, 5280, Note_on_c, 12, 64, 0
17, 5280, Note_on_c, 12, 66, 31
17, 5304, Note_on_c, 12, 66, 0
17, 5304, Note_on_c, 12, 64, 31
17, 5328, Note_on_c, 12, 64, 0
17, 5328, Note_on_c, 12, 66, 32
17, 5352, Note_on_c, 12, 66, 0
17, 5352, Note_on_c, 12, 64, 26
17, 5376, Note_on_c, 12, 64, 0
17, 5376, Note_on_c, 12, 66, 29
17, 5400, Note_on_c, 12, 66, 0
17, 5400, Note_on_c, 12, 64, 33
17, 5424, Note_on_c, 12, 64, 0
17, 5424, Note_on_c, 12, 66, 33
17, 5448, Note_on_c, 12, 66, 0
17, 5448, Note_on_c, 12, 64, 26
17, 5472, Note_on_c, 12, 64, 0
17, 5472, Note_on_c, 12, 66, 26
17, 5496, Note_on_c, 12, 66, 0
17, 5496, Note_on_c, 12, 64, 31
17, 5520, Note_on_c, 12, 64, 0
17, 5520, Note_on_c, 12, 66, 25
17, 5544, Note_on_c, 12, 66, 0
17, 5544, Note_on_c, 12, 64, 26
17, 5568, Note_on_c, 12, 64, 0
17, 5568, Note_on_c, 12, 66, 31
17, 5592, Note_on_c, 12, 66, 0
17, 5592, Note_on_c, 12, 64, 28
17, 5616, Note_on_c, 12, 64, 0
17, 5616, Note_on_c, 12, 66, 25
17, 5640, Note_on_c, 12, 66, 0
17, 5640, Note_on_c, 12, 64, 27
17, 5664, Note_on_c, 12, 64, 0
17, 5664, Note_on_c, 12, 66, 35
17, 5688, Note_on_c, 12, 66, 0
17, 5688, Note_on_c, 12, 64, 35
17, 5712, Note_on_c, 12, 64, 0
17, 5712, Note_on_c, 12, 66, 32
17, 5736, Note_on_c, 12, 66, 0
17, 5736, Note_on_c, 12, 64, 34
17, 5760, Note_on_c, 12, 64, 0
17, 5760, Program_c, 12, 44
17, 5760, Note_on_c, 12, 64, 31
17, 7776, Control_c, 12, 11, 92
17, 7792, Control_c, 12, 11, 93
17, 7808, Control_c, 12, 11, 94
17, 7825, Control_c, 12, 11, 95
17, 7841, Control_c, 12, 11, 96
17, 7858, Control_c, 12, 11, 97
17, 7874, Control_c, 12, 11, 98
17, 7891, Control_c, 12, 11, 99
17, 7907, Control_c, 12, 11, 100
17, 7924, Control_c, 12, 11, 101
17, 7940, Control_c, 12, 11, 102
17, 7957, Control_c, 12, 11, 103
17, 7973, Control_c, 12, 11, 104
17, 7989, Control_c, 12, 11, 105
17, 8006, Control_c, 12, 11, 106
17, 8022, Control_c, 12, 11, 107
17, 8039, Control_c, 12, 11, 108
17, 8055, Control_c, 12, 11, 109
17, 8072, Control_c, 12, 11, 110
17, 8088, Control_c, 12, 11, 111
17, 8105, Control_c, 12, 11, 112
17, 8121, Control_c, 12, 11, 113
17, 8138, Control_c, 12, 11, 114
17, 8154, Control_c, 12, 11, 115
17, 8170, Control_c, 12, 11, 116
17, 8187, Control_c, 12, 11, 117
17, 8203, Control_c, 12, 11, 118
17, 8220, Control_c, 12, 11, 119
17, 8236, Control_c, 12, 11, 120
17, 8253, Control_c, 12, 11, 121
17, 8269, Control_c, 12, 11, 122
17, 8286, Control_c, 12, 11, 123
17, 8302, Control_c, 12, 11, 124
17, 8319, Control_c, 12, 11, 125
17, 8335, Control_c, 12, 11, 126
17, 8352, Note_on_c, 12, 64, 0
17, 8352, Control_c, 12, 11, 127
17, 8352, Note_on_c, 12, 65, 33
17, 9504, Control_c, 12, 11, 92
17, 9512, Control_c, 12, 11, 93
17, 9520, Control_c, 12, 11, 94
17, 9528, Control_c, 12, 11, 95
17, 9536, Control_c, 12, 11, 96
17, 9545, Control_c, 12, 11, 97
17, 9553, Control_c, 12, 11, 98
17, 9561, Control_c, 12, 11, 99
17, 9569, Control_c, 12, 11, 100
17, 9578, Control_c, 12, 11, 101
17, 9586, Control_c, 12, 11, 102
17, 9594, Control_c, 12, 11, 103
17, 9602, Control_c, 12, 11, 104
17, 9610, Control_c, 12, 11, 105
17, 9619, Control_c, 12, 11, 106
17, 9627, Control_c, 12, 11, 107
17, 9635, Control_c, 12, 11, 108
17, 9643, Control_c, 12, 11, 109
17, 9652, Control_c, 12, 11, 110
17, 9660, Control_c, 12, 11, 111
17, 9668, Control_c, 12, 11, 112
17, 9676, Control_c, 12, 11, 113
17, 9685, Control_c, 12, 11, 114
17, 9693, Control_c, 12, 11, 115
17, 9701, Control_c, 12, 11, 116
17, 9709, Control_c, 12, 11, 117
17, 9717, Control_c, 12, 11, 118
17, 9726, Control_c, 12, 11, 119
17, 9734, Control_c, 12, 11, 120
17, 9742, Control_c, 12, 11, 121
17, 9750, Control_c, 12, 11, 122
17, 9759, Control_c, 12, 11, 123
17, 9767, Control_c, 12, 11, 124
17, 9775, Control_c, 12, 11, 125
17, 9783, Control_c, 12, 11, 126
17, 9792, Control_c, 12, 11, 127
17, 9800, Control_c, 12, 11, 126
17, 9808, Control_c, 12, 11, 125
17, 9816, Control_c, 12, 11, 124
17, 9824, Control_c, 12, 11, 123
17, 9833, Control_c, 12, 11, 122
17, 9841, Control_c, 12, 11, 121
17, 9849, Control_c, 12, 11, 120
17, 9857, Control_c, 12, 11, 119
17, 9866, Control_c, 12, 11, 118
17, 9874, Control_c, 12, 11, 117
17, 9882, Control_c, 12, 11, 116
17, 9890, Control_c, 12, 11, 115
17, 9898, Control_c, 12, 11, 114
17, 9907, Control_c, 12, 11, 113
17, 9915, Control_c, 12, 11, 112
17, 9923, Control_c, 12, 11, 111
17, 9931, Control_c, 12, 11, 110
17, 9940, Control_c, 12, 11, 109
17, 9948, Control_c, 12, 11, 108
17, 9956, Control_c, 12, 11, 107
17, 9964, Control_c, 12, 11, 106
17, 9973, Control_c, 12, 11, 105
17, 9981, Control_c, 12, 11, 104
17, 9989, Control_c, 12, 11, 103
17, 9997, Control_c, 12, 11, 102
17, 10005, Control_c, 12, 11, 101
17, 10014, Control_c, 12, 11, 100
17, 10022, Control_c, 12, 11, 99
17, 10030, Control_c, 12, 11, 98
17, 10038, Control_c, 12, 11, 97
17, 10047, Control_c, 12, 11, 96
17, 10055, Control_c, 12, 11, 95
17, 10063, Control_c, 12, 11, 94
17, 10071, Control_c, 12, 11, 93
17, 10080, Control_c, 12, 11, 92
17, 10272, Note_on_c, 12, 65, 0
17, 10272, Note_on_c, 12, 63, 47
17, 10368, Note_on_c, 12, 63, 0
17, 10368, Note_on_c, 12, 63, 49
17, 10464, Note_on_c, 12, 63, 0
17, 10464, Note_on_c, 12, 61, 45
17, 10560, Note_on_c, 12, 61, 0
17, 10560, Note_on_c, 12, 60, 41
17, 10656, Note_on_c, 12, 60, 0
17, 10656, Control_c, 12, 11, 92
17, 10656, Note_on_c, 12, 65, 55
17, 10672, Control_c, 12, 11, 93
17, 10688, Control_c, 12, 11, 94
17, 10705, Control_c, 12, 11, 95
17, 10721, Control_c, 12, 11, 96
17, 10738, Control_c, 12, 11, 97
17, 10754, Control_c, 12, 11, 98
17, 10771, Control_c, 12, 11, 99
17, 10787, Control_c, 12, 11, 100
17, 10804, Control_c, 12, 11, 101
17, 10820, Control_c, 12, 11, 102
17, 10837, Control_c, 12, 11, 103
17, 10848, Note_on_c, 12, 65, 0
17, 10848, Note_on_c, 12, 63, 60
17, 10853, Control_c, 12, 11, 104
17, 10869, Control_c, 12, 11, 105
17, 10886, Control_c, 12, 11, 106
17, 10902, Control_c, 12, 11, 107
17, 10919, Control_c, 12, 11, 108
17, 10935, Control_c, 12, 11, 109
17, 10944, Note_on_c, 12, 63, 0
17, 10944, Note_on_c, 12, 62, 57
17, 10952, Control_c, 12, 11, 110
17, 10968, Control_c, 12, 11, 111
17, 10985, Control_c, 12, 11, 112
17, 11001, Control_c, 12, 11, 113
17, 11018, Control_c, 12, 11, 114
17, 11034, Control_c, 12, 11, 115
17, 11040, Note_on_c, 12, 62, 0
17, 11040, Note_on_c, 12, 61, 60
17, 11050, Control_c, 12, 11, 116
17, 11067, Control_c, 12, 11, 117
17, 11083, Control_c, 12, 11, 118
17, 11100, Control_c, 12, 11, 119
17, 11116, Control_c, 12, 11, 120
17, 11133, Control_c, 12, 11, 121
17, 11136, Note_on_c, 12, 61, 0
17, 11136, Note_on_c, 12, 60, 62
17, 11149, Control_c, 12, 11, 122
17, 11166, Control_c, 12, 11, 123
17, 11182, Control_c, 12, 11, 124
17, 11199, Control_c, 12, 11, 125
17, 11215, Control_c, 12, 11, 126
17, 11232, Note_on_c, 12, 60, 0
17, 11232, Control_c, 12, 11, 127
17, 11232, Program_c, 12, 45
17, 11712, Note_on_c, 12, 64, 87
17, 11760, Note_on_c, 12, 64, 0
17, 11760, Note_on_c, 12, 73, 105
17, 11808, Note_on_c, 12, 73, 0
17, 12288, Note_on_c, 12, 64, 91
17, 12336, Note_on_c, 12, 64, 0
17, 12336, Note_on_c, 12, 73, 111
17, 12384, Note_on_c, 12, 73, 0
17, 12384, Program_c, 12, 48
17, 13248, Program_c, 12, 48
17, 13536, Control_c, 12, 11, 92
17, 13536, Note_on_c, 12, 75, 60
17, 13546, Control_c, 12, 11, 93
17, 13557, Control_c, 12, 11, 94
17, 13568, Note_on_c, 12, 75, 0
17, 13568, Control_c, 12, 11, 95
17, 13568, Note_on_c, 12, 76, 55
17, 13579, Control_c, 12, 11, 96
17, 13590, Control_c, 12, 11, 97
17, 13600, Note_on_c, 12, 76, 0
17, 13600, Note_on_c, 12, 75, 57
17, 13601, Control_c, 12, 11, 98
17, 13612, Control_c, 12, 11, 99
17, 13623, Control_c, 12, 11, 100
17, 13632, Note_on_c, 12, 75, 0
17, 13632, Note_on_c, 12, 76, 58
17, 13634, Control_c, 12, 11, 101
17, 13645, Control_c, 12, 11, 102
17, 13656, Control_c, 12, 11, 103
17, 13664, Note_on_c, 12, 76, 0
17, 13664, Note_on_c, 12, 75, 65
17, 13667, Control_c, 12, 11, 104
17, 13678, Control_c, 12, 11, 105
17, 13689, Control_c, 12, 11, 106
17, 13696, Note_on_c, 12, 75, 0
17, 13696, Note_on_c, 12, 76, 59
17, 13700, Control_c, 12, 11, 107
17, 13711, Control_c, 12, 11, 108
17, 13722, Control_c, 12, 11, 109
17, 13728, Note_on_c, 12, 76, 0
17, 13728, Note_on_c, 12, 75, 61
17, 13733, Control_c, 12, 11, 110
17, 13744, Control_c, 12, 11, 111
17, 13755, Control_c, 12, 11, 112
17, 13760, Note_on_c, 12, 75, 0
17, 13760, Note_on_c, 12, 76, 65
17, 13766, Control_c, 12, 11, 113
17, 13777, Control_c, 12, 11, 114
17, 13788, Control_c, 12, 11, 115
17, 13792, Note_on_c, 12, 76, 0
17, 13792, Note_on_c, 12, 75, 61
17, 13799, Control_c, 12, 11, 116
17, 13810, Control_c, 12, 11, 117
17, 13821, Control_c, 12, 11, 118
17, 13824, Note_on_c, 12, 75, 0
17, 13824, Note_on_c, 12, 76, 63
17, 13832, Control_c, 12, 11, 119
17, 13843, Control_c, 12, 11, 120
17, 13854, Control_c, 12, 11, 121
17, 13865, Control_c, 12, 11, 122
17, 13872, Note_on_c, 12, 76, 0
17, 13872, Note_on_c, 12, 74, 55
17, 13876, Control_c, 12, 11, 123
17, 13887, Control_c, 12, 11, 124
17, 13898, Control_c, 12, 11, 125
17, 13909, Control_c, 12, 11, 126
17, 13920, Note_on_c, 12, 74, 0
17, 13920, Control_c, 12, 11, 127
17, 13920, Note_on_c, 12, 75, 59
17, 13968, Note_on_c, 12, 75, 0
17, 14112, Control_c, 12, 11, 92
17, 14112, Note_on_c, 12, 75, 62
17, 14122, Control_c, 12, 11, 93
17, 14133, Control_c, 12, 11, 94
17, 14144, Note_on_c, 12, 75, 0
17, 14144, Control_c, 12, 11, 95
17, 14144, Note_on_c, 12, 76, 58
17, 14155, Control_c, 12, 11, 96
17, 14166, Control_c, 12, 11, 97
17, 14176, Note_on_c, 12, 76, 0
17, 14176, Note_on_c, 12, 75, 60
17, 14177, Control_c, 12, 11, 98
17, 14188, Control_c, 12, 11, 99
17, 14199, Control_c, 12, 11, 100
17, 14208, Note_on_c, 12, 75, 0
17, 14208, Note_on_c, 12, 76, 65
17, 14210, Control_c, 12, 11, 101
17, 14221, Control_c, 12, 11, 102
17, 14232, Control_c, 12, 11, 103
17, 14240, Note_on_c, 12, 76, 0
17, 14240, Note_on_c, 12, 75, 65
17, 14243, Control_c, 12, 11, 104
17, 14254, Control_c, 12, 11, 105
17, 14265, Control_c, 12, 11, 106
17, 14272, Note_on_c, 12, 75, 0
17, 14272, Note_on_c, 12, 76, 59
17, 14276, Control_c, 12, 11, 107
17, 14287, Control_c, 12, 11, 108
17, 14298, Control_c, 12, 11, 109
17, 14304, Note_on_c, 12, 76, 0
17, 14304, Note_on_c, 12, 75, 64
17, 14309, Control_c, 12, 11, 110
17, 14320, Control_c, 12, 11, 111
17, 14331, Control_c, 12, 11, 112
17, 14336, Note_on_c, 12, 75, 0
17, 14336, Note_on_c, 12, 76, 62
17, 14342, Control_c, 12, 11, 113
17, 14353, Control_c, 12, 11, 114
17, 14364, Control_c, 12, 11, 115
17, 14368, Note_on_c, 12, 76, 0
17, 14368, Note_on_c, 12, 75, 55
17, 14375, Control_c, 12, 11, 116
17, 14386, Control_c, 12, 11, 117
17, 14397, Control_c, 12, 11, 118
17, 14400, Note_on_c, 12, 75, 0
17, 14400, Note_on_c, 12, 76, 62
17, 14408, Control_c, 12, 11, 119
17, 14419, Control_c, 12, 11, 120
17, 14430, Control_c, 12, 11, 121
17, 14441, Control_c, 12, 11, 122
17, 14448, Note_on_c, 12, 76, 0
17, 14448, Note_on_c, 12, 74, 59
17, 14452, Control_c, 12, 11, 123
17, 14463, Control_c, 12, 11, 124
17, 14474, Control_c, 12, 11, 125
17, 14485, Control_c, 12, 11, 126
17, 14496, Note_on_c, 12, 74, 0
17, 14496, Control_c, 12, 11, 127
17, 14496, Note_on_c, 12, 75, 61
17, 14501, Control_c, 12, 11, 126
17, 14506, Control_c, 12, 11, 125
17, 14512, Control_c, 12, 11, 124
17, 14517, Control_c, 12, 11, 123
17, 14523, Control_c, 12, 11, 122
17, 14528, Control_c, 12, 11, 121
17, 14534, Control_c, 12, 11, 120
17, 14539, Control_c, 12, 11, 119
17, 14545, Control_c, 12, 11, 118
17, 14550, Control_c, 12, 11, 117
17, 14556, Control_c, 12, 11, 116
17, 14561, Control_c, 12, 11, 115
17, 14567, Control_c, 12, 11, 114
17, 14572, Control_c, 12, 11, 113
17, 14578, Control_c, 12, 11, 112
17, 14583, Control_c, 12, 11, 111
17, 14589, Control_c, 12, 11, 110
17, 14594, Control_c, 12, 11, 109
17, 14600, Control_c, 12, 11, 108
17, 14605, Control_c, 12, 11, 107
17, 14611, Control_c, 12, 11, 106
17, 14616, Control_c, 12, 11, 105
17, 14622, Control_c, 12, 11, 104
17, 14627, Control_c, 12, 11, 103
17, 14633, Control_c, 12, 11, 102
17, 14638, Control_c, 12, 11, 101
17, 14644, Control_c, 12, 11, 100
17, 14649, Control_c, 12, 11, 99
17, 14655, Control_c, 12, 11, 98
17, 14660, Control_c, 12, 11, 97
17, 14666, Control_c, 12, 11, 96
17, 14671, Control_c, 12, 11, 95
17, 14677, Control_c, 12, 11, 94
17, 14682, Control_c, 12, 11, 93
17, 14688, Control_c, 12, 11, 92
17, 14944, Note_on_c, 12, 75, 0
17, 14944, Note_on_c, 12, 76, 58
17, 14986, Note_on_c, 12, 76, 0
17, 15008, Note_on_c, 12, 78, 59
17, 15050, Note_on_c, 12, 78, 0
17, 15072, Note_on_c, 12, 78, 60
17, 15114, Note_on_c, 12, 78, 0
17, 15136, Note_on_c, 12, 76, 56
17, 15178, Note_on_c, 12, 76, 0
17, 15200, Note_on_c, 12, 75, 58
17, 15242, Note_on_c, 12, 75, 0
17, 15264, Note_on_c, 12, 75, 59
17, 15274, Note_on_c, 12, 75, 0
17, 15280, Note_on_c, 12, 73, 60
17, 15312, Note_on_c, 12, 73, 0
17, 15328, Note_on_c, 12, 71, 55
17, 15370, Note_on_c, 12, 71, 0
17, 15392, Note_on_c, 12, 71, 59
17, 15434, Note_on_c, 12, 71, 0
17, 15456, Note_on_c, 12, 71, 58
17, 15498, Note_on_c, 12, 71, 0
17, 15520, Note_on_c, 12, 70, 61
17, 15562, Note_on_c, 12, 70, 0
17, 15584, Note_on_c, 12, 70, 62
17, 15626, Note_on_c, 12, 70, 0
17, 15648, Control_c, 12, 11, 92
17, 15648, Note_on_c, 12, 68, 57
17, 15653, Control_c, 12, 11, 93
17, 15658, Note_on_c, 12, 68, 0
17, 15658, Control_c, 12, 11, 94
17, 15664, Control_c, 12, 11, 95
17, 15664, Note_on_c, 12, 70, 58
17, 15669, Control_c, 12, 11, 96
17, 15675, Control_c, 12, 11, 97
17, 15680, Control_c, 12, 11, 98
17, 15686, Control_c, 12, 11, 99
17, 15691, Control_c, 12, 11, 100
17, 15696, Note_on_c, 12, 70, 0
17, 15697, Control_c, 12, 11, 101
17, 15702, Control_c, 12, 11, 102
17, 15708, Control_c, 12, 11, 103
17, 15712, Note_on_c, 12, 71, 61
17, 15713, Control_c, 12, 11, 104
17, 15719, Control_c, 12, 11, 105
17, 15724, Control_c, 12, 11, 106
17, 15730, Control_c, 12, 11, 107
17, 15735, Control_c, 12, 11, 108
17, 15741, Control_c, 12, 11, 109
17, 15746, Control_c, 12, 11, 110
17, 15752, Control_c, 12, 11, 111
17, 15754, Note_on_c, 12, 71, 0
17, 15757, Control_c, 12, 11, 112
17, 15763, Control_c, 12, 11, 113
17, 15768, Control_c, 12, 11, 114
17, 15774, Control_c, 12, 11, 115
17, 15776, Note_on_c, 12, 73, 64
17, 15779, Control_c, 12, 11, 116
17, 15785, Control_c, 12, 11, 117
17, 15790, Control_c, 12, 11, 118
17, 15796, Control_c, 12, 11, 119
17, 15801, Control_c, 12, 11, 120
17, 15807, Control_c, 12, 11, 121
17, 15812, Control_c, 12, 11, 122
17, 15818, Note_on_c, 12, 73, 0
17, 15818, Control_c, 12, 11, 123
17, 15823, Control_c, 12, 11, 124
17, 15829, Control_c, 12, 11, 125
17, 15834, Control_c, 12, 11, 126
17, 15840, Control_c, 12, 11, 127
17, 15840, Control_c, 12, 11, 92
17, 15840, Note_on_c, 12, 75, 62
17, 15850, Control_c, 12, 11, 93
17, 15861, Control_c, 12, 11, 94
17, 15872, Note_on_c, 12, 75, 0
17, 15872, Control_c, 12, 11, 95
17, 15872, Note_on_c, 12, 76, 58
17, 15883, Control_c, 12, 11, 96
17, 15894, Control_c, 12, 11, 97
17, 15904, Note_on_c, 12, 76, 0
17, 15904, Note_on_c, 12, 75, 64
17, 15905, Control_c, 12, 11, 98
17, 15916, Control_c, 12, 11, 99
17, 15927, Control_c, 12, 11, 100
17, 15936, Note_on_c, 12, 75, 0
17, 15936, Note_on_c, 12, 76, 60
17, 15938, Control_c, 12, 11, 101
17, 15949, Control_c, 12, 11, 102
17, 15960, Control_c, 12, 11, 103
17, 15968, Note_on_c, 12, 76, 0
17, 15968, Note_on_c, 12, 75, 57
17, 15971, Control_c, 12, 11, 104
17, 15982, Control_c, 12, 11, 105
17, 15993, Control_c, 12, 11, 106
17, 16000, Note_on_c, 12, 75, 0
17, 16000, Note_on_c, 12, 76, 58
17, 16004, Control_c, 12, 11, 107
17, 16015, Control_c, 12, 11, 108
17, 16026, Control_c, 12, 11, 109
17, 16032, Note_on_c, 12, 76, 0
17, 16032, Note_on_c, 12, 75, 64
17, 16037, Control_c, 12, 11, 110
17, 16048, Control_c, 12, 11, 111
17, 16059, Control_c, 12, 11, 112
17, 16064, Note_on_c, 12, 75, 0
17, 16064, Note_on_c, 12, 76, 57
17, 16070, Control_c, 12, 11, 113
17, 16081, Control_c, 12, 11, 114
17, 16092, Control_c, 12, 11, 115
17, 16096, Note_on_c, 12, 76, 0
17, 16096, Note_on_c, 12, 75, 60
17, 16103, Control_c, 12, 11, 116
17, 16114, Control_c, 12, 11, 117
17, 16125, Control_c, 12, 11, 118
17, 16128, Note_on_c, 12, 75, 0
17, 16128, Note_on_c, 12, 76, 59
17, 16136, Control_c, 12, 11, 119
17, 16147, Control_c, 12, 11, 120
17, 16158, Control_c, 12, 11, 121
17, 16169, Control_c, 12, 11, 122
17, 16176, Note_on_c, 12, 76, 0
17, 16176, Note_on_c, 12, 74, 60
17, 16180, Control_c, 12, 11, 123
17, 16191, Control_c, 12, 11, 124
17, 16202, Control_c, 12, 11, 125
17, 16213, Control_c, 12, 11, 126
17, 16224, Note_on_c, 12, 74, 0
17, 16224, Control_c, 12, 11, 127
17, 16224, Note_on_c, 12, 75, 61
17, 16272, Note_on_c, 12, 75, 0
17, 16416, Control_c, 12, 11, 92
17, 16416, Note_on_c, 12, 75, 61
17, 16426, Control_c, 12, 11, 93
17, 16437, Control_c, 12, 11, 94
17, 16448, Note_on_c, 12, 75, 0
17, 16448, Control_c, 12, 11, 95
17, 16448, Note_on_c, 12, 76, 64
17, 16459, Control_c, 12, 11, 96
17, 16470, Control_c, 12, 11, 97
17, 16480, Note_on_c, 12, 76, 0
17, 16480, Note_on_c, 12, 75, 55
17, 16481, Control_c, 12, 11, 98
17, 16492, Control_c, 12, 11, 99
17, 16503, Control_c, 12, 11, 100
17, 16512, Note_on_c, 12, 75, 0
17, 16512, Note_on_c, 12, 76, 64
17, 16514, Control_c, 12, 11, 101
17, 16525, Control_c, 12, 11, 102
17, 16536, Control_c, 12, 11, 103
17, 16544, Note_on_c, 12, 76, 0
17, 16544, Note_on_c, 12, 75, 60
17, 16547, Control_c, 12, 11, 104
17, 16558, Control_c, 12, 11, 105
17, 16569, Control_c, 12, 11, 106
17, 16576, Note_on_c, 12, 75, 0
17, 16576, Note_on_c, 12, 76, 56
17, 16580, Control_c, 12, 11, 107
17, 16591, Control_c, 12, 11, 108
17, 16602, Control_c, 12, 11, 109
17, 16608, Note_on_c, 12, 76, 0
17, 16608, Note_on_c, 12, 75, 56
17, 16613, Control_c, 12, 11, 110
17, 16624, Control_c, 12, 11, 111
17, 16635, Control_c, 12, 11, 112
17, 16640, Note_on_c, 12, 75, 0
17, 16640, Note_on_c, 12, 76, 64
17, 16646, Control_c, 12, 11, 113
17, 16657, Control_c, 12, 11, 114
17, 16668, Control_c, 12, 11, 115
17, 16672, Note_on_c, 12, 76, 0
17, 16672, Note_on_c, 12, 75, 58
17, 16679, Control_c, 12, 11, 116
17, 16690, Control_c, 12, 11, 117
17, 16701, Control_c, 12, 11, 118
17, 16704, Note_on_c, 12, 75, 0
17, 16704, Note_on_c, 12, 76, 65
17, 16712, Control_c, 12, 11, 119
17, 16723, Control_c, 12, 11, 120
17, 16734, Control_c, 12, 11, 121
17, 16745, Control_c, 12, 11, 122
17, 16752, Note_on_c, 12, 76, 0
17, 16752, Note_on_c, 12, 74, 62
17, 16756, Control_c, 12, 11, 123
17, 16767, Control_c, 12, 11, 124
17, 16778, Control_c, 12, 11, 125
17, 16789, Control_c, 12, 11, 126
17, 16800, Note_on_c, 12, 74, 0
17, 16800, Control_c, 12, 11, 127
17, 16800, Note_on_c, 12, 75, 56
17, 16805, Control_c, 12, 11, 126
17, 16810, Control_c, 12, 11, 125
17, 16816, Control_c, 12, 11, 124
17, 16821, Control_c, 12, 11, 123
17, 16827, Control_c, 12, 11, 122
17, 16832, Control_c, 12, 11, 121
17, 16838, Control_c, 12, 11, 120
17, 16843, Control_c, 12, 11, 119
17, 16849, Control_c, 12, 11, 118
17, 16854, Control_c, 12, 11, 117
17, 16860, Control_c, 12, 11, 116
17, 16865, Control_c, 12, 11, 115
17, 16871, Control_c, 12, 11, 114
17, 16876, Control_c, 12, 11, 113
17, 16882, Control_c, 12, 11, 112
17, 16887, Control_c, 12, 11, 111
17, 16893, Control_c, 12, 11, 110
17, 16898, Control_c, 12, 11, 109
17, 16904, Control_c, 12, 11, 108
17, 16909, Control_c, 12, 11, 107
17, 16915, Control_c, 12, 11, 106
17, 16920, Control_c, 12, 11, 105
17, 16926, Control_c, 12, 11, 104
17, 16931, Control_c, 12, 11, 103
17, 16937, Control_c, 12, 11, 102
17, 16942, Control_c, 12, 11, 101
17, 16948, Control_c, 12, 11, 100
17, 16953, Control_c, 12, 11, 99
17, 16959, Control_c, 12, 11, 98
17, 16964, Control_c, 12, 11, 97
17, 16970, Control_c, 12, 11, 96
17, 16975, Control_c, 12, 11, 95
17, 16981, Control_c, 12, 11, 94
17, 16986, Control_c, 12, 11, 93
17, 16992, Control_c, 12, 11, 92
17, 17248, Note_on_c, 12, 75, 0
17, 17248, Note_on_c, 12, 76, 63
17, 17290, Note_on_c, 12, 76, 0
17, 17312, Note_on_c, 12, 78, 58
17, 17354, Note_on_c, 12, 78, 0
17, 17376, Note_on_c, 12, 78, 59
17, 17418, Note_on_c, 12, 78, 0
17, 17440, Note_on_c, 12, 76, 64
17, 17482, Note_on_c, 12, 76, 0
17, 17504, Note_on_c, 12, 75, 63
17, 17546, Note_on_c, 12, 75, 0
17, 17568, Note_on_c, 12, 75, 57
17, 17578, Note_on_c, 12, 75, 0
17, 17584, Note_on_c, 12, 73, 61
17, 17616, Note_on_c, 12, 73, 0
17, 17632, Note_on_c, 12, 71, 55
17, 17674, Note_on_c, 12, 71, 0
17, 17696, Note_on_c, 12, 71, 63
17, 17738, Note_on_c, 12, 71, 0
17, 17760, Note_on_c, 12, 71, 62
17, 17802, Note_on_c, 12, 71, 0
17, 17824, Note_on_c, 12, 70, 60
17, 17866, Note_on_c, 12, 70, 0
17, 17888, Note_on_c, 12, 70, 56
17, 17930, Note_on_c, 12, 70, 0
17, 17952, Note_on_c, 12, 70, 60
17, 17962, Note_on_c, 12, 70, 0
17, 17968, Note_on_c, 12, 68, 63
17, 18000, Note_on_c, 12, 68, 0
17, 18016, Note_on_c, 12, 66, 63
17, 18058, Note_on_c, 12, 66, 0
17, 18080, Note_on_c, 12, 64, 58
17, 18122, Note_on_c, 12, 64, 0
17, 21024, Program_c, 12, 45
17, 21600, Note_on_c, 12, 61, 41
17, 21696, Note_on_c, 12, 61, 0
17, 22752, Note_on_c, 12, 61, 48
17, 22800, Note_on_c, 12, 61, 0
17, 23904, Note_on_c, 12, 61, 49
17, 24000, Note_on_c, 12, 61, 0
17, 27936, Control_c, 12, 11, 127
17, 28512, Program_c, 12, 45
17, 28608, Note_on_c, 12, 73, 34
17, 28704, Note_on_c, 12, 73, 0
17, 28800, Note_on_c, 12, 73, 30
17, 28896, Note_on_c, 12, 73, 0
17, 28992, Note_on_c, 12, 73, 28
17, 29088, Note_on_c, 12, 73, 0
17, 29184, Note_on_c, 12, 73, 26
17, 29280, Note_on_c, 12, 73, 0
17, 29376, Note_on_c, 12, 73, 25
17, 29472, Note_on_c, 12, 73, 0
17, 29568, Note_on_c, 12, 73, 32
17, 29664, Note_on_c, 12, 73, 0
17, 29760, Note_on_c, 12, 73, 25
17, 29856, Note_on_c, 12, 73, 0
17, 29952, Note_on_c, 12, 73, 28
17, 30048, Note_on_c, 12, 73, 0
17, 30144, Note_on_c, 12, 73, 32
17, 30240, Note_on_c, 12, 73, 0
17, 30336, Note_on_c, 12, 73, 33
17, 30432, Note_on_c, 12, 73, 0
17, 30528, Note_on_c, 12, 73, 25
17, 30624, Note_on_c, 12, 73, 0
17, 30720, Note_on_c, 12, 73, 29
17, 30816, Note_on_c, 12, 73, 0
17, 30912, Note_on_c, 12, 73, 33
17, 31008, Note_on_c, 12, 73, 0
17, 31104, Note_on_c, 12, 73, 25
17, 31200, Note_on_c, 12, 73, 0
17, 31296, Note_on_c, 12, 73, 32
17, 31392, Note_on_c, 12, 73, 0
17, 31488, Note_on_c, 12, 73, 29
17, 31584, Note_on_c, 12, 73, 0
17, 31680, Note_on_c, 12, 61, 32
17, 31776, Note_on_c, 12, 61, 0
17, 31776, Program_c, 12, 48
17, 31776, Note_on_c, 12, 61, 32
17, 31808, Note_on_c, 12, 61, 0
17, 31808, Note_on_c, 12, 63, 42
17, 31840, Note_on_c, 12, 63, 0
17, 31840, Note_on_c, 12, 61, 40
17, 31872, Note_on_c, 12, 61, 0
17, 31872, Note_on_c, 12, 60, 50
17, 31904, Note_on_c, 12, 60, 0
17, 31904, Note_on_c, 12, 62, 61
17, 31936, Note_on_c, 12, 62, 0
17, 31936, Note_on_c, 12, 60, 63
17, 31968, Note_on_c, 12, 60, 0
17, 31968, Note_on_c, 12, 59, 74
17, 32448, Note_on_c, 12, 59, 0
17, 32448, Note_on_c, 12, 60, 79
17, 32544, Note_on_c, 12, 60, 0
17, 32544, Note_on_c, 12, 61, 73
17, 32736, Note_on_c, 12, 61, 0
17, 32736, Note_on_c, 12, 64, 75
17, 32928, Note_on_c, 12, 64, 0
17, 32928, Note_on_c, 12, 66, 87
17, 33120, Note_on_c, 12, 66, 0
17, 33120, Note_on_c, 12, 70, 92
17, 33408, Note_on_c, 12, 70, 0
17, 33408, Note_on_c, 12, 66, 97
17, 33504, Note_on_c, 12, 66, 0
17, 33504, Note_on_c, 12, 63, 96
17, 33600, Note_on_c, 12, 63, 0
17, 33600, Note_on_c, 12, 66, 92
17, 33696, Note_on_c, 12, 66, 0
17, 33696, Note_on_c, 12, 70, 90
17, 33728, Note_on_c, 12, 70, 0
17, 33792, Note_on_c, 12, 66, 99
17, 33824, Note_on_c, 12, 66, 0
17, 33888, Note_on_c, 12, 70, 92
17, 33920, Note_on_c, 12, 70, 0
17, 33984, Note_on_c, 12, 66, 102
17, 34016, Note_on_c, 12, 66, 0
17, 34080, Note_on_c, 12, 70, 106
17, 34112, Note_on_c, 12, 70, 0
17, 34176, Note_on_c, 12, 73, 110
17, 34208, Note_on_c, 12, 73, 0
17, 34272, Program_c, 12, 45
17, 34272, Note_on_c, 12, 72, 111
17, 34272, Note_on_c, 12, 81, 107
17, 34368, Note_on_c, 12, 72, 0
17, 34368, Note_on_c, 12, 81, 0
17, 34560, Note_on_c, 12, 72, 107
17, 34656, Note_on_c, 12, 72, 0
17, 34848, Note_on_c, 12, 72, 112
17, 34848, Note_on_c, 12, 81, 111
17, 34944, Note_on_c, 12, 72, 0
17, 34944, Note_on_c, 12, 81, 0
17, 35136, Note_on_c, 12, 72, 104
17, 35232, Note_on_c, 12, 72, 0
17, 35424, Program_c, 12, 48
17, 35424, Note_on_c, 12, 71, 89
17, 35448, Note_on_c, 12, 71, 0
17, 35448, Note_on_c, 12, 69, 96
17, 35472, Note_on_c, 12, 69, 0
17, 35472, Note_on_c, 12, 67, 94
17, 35496, Note_on_c, 12, 67, 0
17, 35496, Note_on_c, 12, 65, 92
17, 35520, Note_on_c, 12, 65, 0
17, 35520, Note_on_c, 12, 71, 87
17, 35544, Note_on_c, 12, 71, 0
17, 35544, Note_on_c, 12, 69, 87
17, 35568, Note_on_c, 12, 69, 0
17, 35568, Note_on_c, 12, 67, 91
17, 35592, Note_on_c, 12, 67, 0
17, 35592, Note_on_c, 12, 65, 92
17, 35616, Note_on_c, 12, 65, 0
17, 35616, Note_on_c, 12, 71, 96
17, 35640, Note_on_c, 12, 71, 0
17, 35640, Note_on_c, 12, 69, 95
17, 35664, Note_on_c, 12, 69, 0
17, 35664, Note_on_c, 12, 67, 91
17, 35688, Note_on_c, 12, 67, 0
17, 35688, Note_on_c, 12, 65, 93
17, 35712, Note_on_c, 12, 65, 0
17, 35712, Note_on_c, 12, 71, 87
17, 35736, Note_on_c, 12, 71, 0
17, 35736, Note_on_c, 12, 69, 95
17, 35760, Note_on_c, 12, 69, 0
17, 35760, Note_on_c, 12, 67, 88
17, 35784, Note_on_c, 12, 67, 0
17, 35784, Note_on_c, 12, 65, 91
17, 35808, Note_on_c, 12, 65, 0
17, 36000, Note_on_c, 12, 71, 90
17, 36024, Note_on_c, 12, 71, 0
17, 36024, Note_on_c, 12, 69, 92
17, 36048, Note_on_c, 12, 69, 0
17, 36048, Note_on_c, 12, 67, 91
17, 36072, Note_on_c, 12, 67, 0
17, 36072, Note_on_c, 12, 65, 89
17, 36096, Note_on_c, 12, 65, 0
17, 36096, Note_on_c, 12, 71, 90
17, 36120, Note_on_c, 12, 71, 0
17, 36120, Note_on_c, 12, 69, 83
17, 36144, Note_on_c, 12, 69, 0
17, 36144, Note_on_c, 12, 67, 87
17, 36168, Note_on_c, 12, 67, 0
17, 36168, Note_on_c, 12, 65, 80
17, 36192, Note_on_c, 12, 65, 0
17, 36192, Note_on_c, 12, 71, 76
17, 36216, Note_on_c, 12, 71, 0
17, 36216, Note_on_c, 12, 69, 81
17, 36240, Note_on_c, 12, 69, 0
17, 36240, Note_on_c, 12, 67, 71
17, 36264, Note_on_c, 12, 67, 0
17, 36264, Note_on_c, 12, 65, 76
17, 36288, Note_on_c, 12, 65, 0
17, 36288, Note_on_c, 12, 71, 68
17, 36312, Note_on_c, 12, 71, 0
17, 36312, Note_on_c, 12, 69, 64
17, 36336, Note_on_c, 12, 69, 0
17, 36336, Note_on_c, 12, 67, 64
17, 36360, Note_on_c, 12, 67, 0
17, 36360, Note_on_c, 12, 65, 66
17, 36384, Note_on_c, 12, 65, 0
17, 36576, Note_on_c, 12, 72, 27
17, 36600, Note_on_c, 12, 72, 0
17, 36600, Note_on_c, 12, 70, 32
17, 36624, Note_on_c, 12, 70, 0
17, 36624, Note_on_c, 12, 68, 28
17, 36648, Note_on_c, 12, 68, 0
17, 36648, Note_on_c, 12, 66, 33
17, 36672, Note_on_c, 12, 66, 0
17, 36672, Note_on_c, 12, 72, 35
17, 36696, Note_on_c, 12, 72, 0
17, 36696, Note_on_c, 12, 70, 31
17, 36720, Note_on_c, 12, 70, 0
17, 36720, Note_on_c, 12, 68, 29
17, 36744, Note_on_c, 12, 68, 0
17, 36744, Note_on_c, 12, 66, 34
17, 36768, Note_on_c, 12, 66, 0
17, 36768, Note_on_c, 12, 72, 25
17, 36792, Note_on_c, 12, 72, 0
17, 36792, Note_on_c, 12, 70, 33
17, 36816, Note_on_c, 12, 70, 0
17, 36816, Note_on_c, 12, 68, 34
17, 36840, Note_on_c, 12, 68, 0
17, 36840, Note_on_c, 12, 66, 25
17, 36864, Note_on_c, 12, 66, 0
17, 36864, Note_on_c, 12, 72, 33
17, 36888, Note_on_c, 12, 72, 0
17, 36888, Note_on_c, 12, 70, 31
17, 36912, Note_on_c, 12, 70, 0
17, 36912, Note_on_c, 12, 68, 29
17, 36936, Note_on_c, 12, 68, 0
17, 36936, Note_on_c, 12, 66, 27
17, 36960, Note_on_c, 12, 66, 0
17, 36960, Note_on_c, 12, 72, 26
17, 36984, Note_on_c, 12, 72, 0
17, 36984, Note_on_c, 12, 70, 34
17, 37008, Note_on_c, 12, 70, 0
17, 37008, Note_on_c, 12, 68, 33
17, 37032, Note_on_c, 12, 68, 0
17, 37032, Note_on_c, 12, 66, 28
17, 37056, Note_on_c, 12, 66, 0
17, 37056, Note_on_c, 12, 72, 25
17, 37080, Note_on_c, 12, 72, 0
17, 37080, Note_on_c, 12, 70, 29
17, 37104, Note_on_c, 12, 70, 0
17, 37104, Note_on_c, 12, 68, 35
17, 37128, Note_on_c, 12, 68, 0
17, 37128, Note_on_c, 12, 66, 33
17, 37152, Note_on_c, 12, 66, 0
17, 37152, Note_on_c, 12, 72, 34
17, 37176, Note_on_c, 12, 72, 0
17, 37176, Note_on_c, 12, 70, 29
17, 37200, Note_on_c, 12, 70, 0
17, 37200, Note_on_c, 12, 68, 29
17, 37224, Note_on_c, 12, 68, 0
17, 37224, Note_on_c, 12, 66, 28
17, 37248, Note_on_c, 12, 66, 0
17, 37248, Note_on_c, 12, 72, 26
17, 37272, Note_on_c, 12, 72, 0
17, 37272, Note_on_c, 12, 70, 31
17, 37296, Note_on_c, 12, 70, 0
17, 37296, Note_on_c, 12, 68, 27
17, 37320, Note_on_c, 12, 68, 0
17, 37320, Note_on_c, 12, 66, 34
17, 37344, Note_on_c, 12, 66, 0
17, 37728, Note_on_c, 12, 72, 27
17, 37752, Note_on_c, 12, 72, 0
17, 37752, Note_on_c, 12, 70, 27
17, 37776, Note_on_c, 12, 70, 0
17, 37776, Note_on_c, 12, 68, 33
17, 37800, Note_on_c, 12, 68, 0
17, 37800, Note_on_c, 12, 66, 33
17, 37824, Note_on_c, 12, 66, 0
17, 37824, Note_on_c, 12, 72, 28
17, 37848, Note_on_c, 12, 72, 0
17, 37848, Note_on_c, 12, 70, 30
17, 37872, Note_on_c, 12, 70, 0
17, 37872, Note_on_c, 12, 68, 35
17, 37896, Note_on_c, 12, 68, 0
17, 37896, Note_on_c, 12, 66, 33
17, 37920, Note_on_c, 12, 66, 0
17, 37920, Note_on_c, 12, 72, 27
17, 37944, Note_on_c, 12, 72, 0
17, 37944, Note_on_c, 12, 70, 35
17, 37968, Note_on_c, 12, 70, 0
17, 37968, Note_on_c, 12, 68, 32
17, 37992, Note_on_c, 12, 68, 0
17, 37992, Note_on_c, 12, 66, 26
17, 38016, Note_on_c, 12, 66, 0
17, 38016, Note_on_c, 12, 72, 28
17, 38040, Note_on_c, 12, 72, 0
17, 38040, Note_on_c, 12, 70, 28
17, 38064, Note_on_c, 12, 70, 0
17, 38064, Note_on_c, 12, 68, 28
17, 38088, Note_on_c, 12, 68, 0
17, 38088, Note_on_c, 12, 66, 29
17, 38112, Note_on_c, 12, 66, 0
17, 38112, Note_on_c, 12, 72, 33
17, 38136, Note_on_c, 12, 72, 0
17, 38136, Note_on_c, 12, 70, 29
17, 38160, Note_on_c, 12, 70, 0
17, 38160, Note_on_c, 12, 68, 33
17, 38184, Note_on_c, 12, 68, 0
17, 38184, Note_on_c, 12, 66, 27
17, 38208, Note_on_c, 12, 66, 0
17, 38208, Note_on_c, 12, 72, 31
17, 38232, Note_on_c, 12, 72, 0
17, 38232, Note_on_c, 12, 70, 29
17, 38256, Note_on_c, 12, 70, 0
17, 38256, Note_on_c, 12, 68, 33
17, 38280, Note_on_c, 12, 68, 0
17, 38280, Note_on_c, 12, 66, 33
17, 38304, Note_on_c, 12, 66, 0
17, 38304, Note_on_c, 12, 71, 34
17, 38328, Note_on_c, 12, 71, 0
17, 38328, Note_on_c, 12, 69, 25
17, 38352, Note_on_c, 12, 69, 0
17, 38352, Note_on_c, 12, 67, 28
17, 38376, Note_on_c, 12, 67, 0
17, 38376, Note_on_c, 12, 65, 33
17, 38400, Note_on_c, 12, 65, 0
17, 38400, Note_on_c, 12, 72, 35
17, 38424, Note_on_c, 12, 72, 0
17, 38424, Note_on_c, 12, 70, 34
17, 38448, Note_on_c, 12, 70, 0
17, 38448, Note_on_c, 12, 68, 34
17, 38472, Note_on_c, 12, 68, 0
17, 38472, Note_on_c, 12, 66, 25
17, 38496, Note_on_c, 12, 66, 0
17, 38496, Note_on_c, 12, 73, 26
17, 38520, Note_on_c, 12, 73, 0
17, 38520, Note_on_c, 12, 71, 32
17, 38544, Note_on_c, 12, 71, 0
17, 38544, Note_on_c, 12, 69, 29
17, 38568, Note_on_c, 12, 69, 0
17, 38568, Note_on_c, 12, 67, 34
17, 38592, Note_on_c, 12, 67, 0
17, 38592, Note_on_c, 12, 73, 35
17, 38616, Note_on_c, 12, 73, 0
17, 38616, Note_on_c, 12, 71, 29
17, 38640, Note_on_c, 12, 71, 0
17, 38640, Note_on_c, 12, 69, 26
17, 38664, Note_on_c, 12, 69, 0
17, 38664, Note_on_c, 12, 67, 33
17, 38688, Note_on_c, 12, 67, 0
17, 38688, Note_on_c, 12, 73, 25
17, 38712, Note_on_c, 12, 73, 0
17, 38712, Note_on_c, 12, 71, 25
17, 38736, Note_on_c, 12, 71, 0
17, 38736, Note_on_c, 12, 69, 26
17, 38760, Note_on_c, 12, 69, 0
17, 38760, Note_on_c, 12, 67, 27
17, 38784, Note_on_c, 12, 67, 0
17, 38784, Note_on_c, 12, 73, 28
17, 38808, Note_on_c, 12, 73, 0
17, 38808, Note_on_c, 12, 71, 24
17, 38832, Note_on_c, 12, 71, 0
17, 38832, Note_on_c, 12, 69, 25
17, 38856, Note_on_c, 12, 69, 0
17, 38856, Note_on_c, 12, 67, 24
17, 38880, Note_on_c, 12, 67, 0
17, 39072, Program_c, 12, 44
17, 39072, Note_on_c, 12, 60, 29
17, 39120, Note_on_c, 12, 60, 0
17, 39120, Note_on_c, 12, 62, 28
17, 39168, Note_on_c, 12, 62, 0
17, 39168, Note_on_c, 12, 64, 27
17, 39216, Note_on_c, 12, 64, 0
17, 39216, Note_on_c, 12, 66, 34
17, 39264, Note_on_c, 12, 66, 0
17, 39264, Note_on_c, 12, 68, 32
17, 39312, Note_on_c, 12, 68, 0
17, 39312, Note_on_c, 12, 70, 31
17, 39360, Note_on_c, 12, 70, 0
17, 39360, Note_on_c, 12, 72, 26
17, 39408, Note_on_c, 12, 72, 0
17, 39408, Note_on_c, 12, 74, 26
17, 39456, Note_on_c, 12, 74, 0
17, 40032, Note_on_c, 12, 82, 30
17, 40128, Note_on_c, 12, 82, 0
17, 40128, Note_on_c, 12, 81, 33
17, 40224, Note_on_c, 12, 81, 0
17, 40224, Note_on_c, 12, 80, 33
17, 40416, Note_on_c, 12, 80, 0
17, 40416, Note_on_c, 12, 79, 29
17, 40608, Note_on_c, 12, 79, 0
17, 40608, Note_on_c, 12, 82, 35
17, 40704, Note_on_c, 12, 82, 0
17, 40704, Note_on_c, 12, 81, 33
17, 40800, Note_on_c, 12, 81, 0
17, 40800, Note_on_c, 12, 80, 33
17, 40992, Note_on_c, 12, 80, 0
17, 40992, Note_on_c, 12, 79, 28
17, 41184, Note_on_c, 12, 79, 0
17, 41184, Control_c, 12, 11, 75
17, 41184, Note_on_c, 12, 82, 65
17, 41195, Control_c, 12, 11, 76
17, 41206, Control_c, 12, 11, 77
17, 41217, Control_c, 12, 11, 78
17, 41228, Control_c, 12, 11, 79
17, 41239, Control_c, 12, 11, 80
17, 41250, Control_c, 12, 11, 81
17, 41261, Control_c, 12, 11, 82
17, 41272, Control_c, 12, 11, 83
17, 41280, Note_on_c, 12, 82, 0
17, 41280, Note_on_c, 12, 81, 64
17, 41283, Control_c, 12, 11, 84
17, 41294, Control_c, 12, 11, 85
17, 41305, Control_c, 12, 11, 86
17, 41316, Control_c, 12, 11, 87
17, 41328, Control_c, 12, 11, 88
17, 41339, Control_c, 12, 11, 89
17, 41350, Control_c, 12, 11, 90
17, 41361, Control_c, 12, 11, 91
17, 41372, Control_c, 12, 11, 92
17, 41376, Note_on_c, 12, 81, 0
17, 41376, Note_on_c, 12, 80, 61
17, 41383, Control_c, 12, 11, 93
17, 41394, Control_c, 12, 11, 94
17, 41405, Control_c, 12, 11, 95
17, 41416, Control_c, 12, 11, 96
17, 41427, Control_c, 12, 11, 97
17, 41438, Control_c, 12, 11, 98
17, 41449, Control_c, 12, 11, 99
17, 41460, Control_c, 12, 11, 100
17, 41472, Control_c, 12, 11, 101
17, 41483, Control_c, 12, 11, 102
17, 41494, Control_c, 12, 11, 103
17, 41505, Control_c, 12, 11, 104
17, 41516, Control_c, 12, 11, 105
17, 41527, Control_c, 12, 11, 106
17, 41538, Control_c, 12, 11, 107
17, 41549, Control_c, 12, 11, 108
17, 41560, Control_c, 12, 11, 109
17, 41568, Note_on_c, 12, 80, 0
17, 41568, Note_on_c, 12, 83, 56
17, 41571, Control_c, 12, 11, 110
17, 41582, Control_c, 12, 11, 111
17, 41593, Control_c, 12, 11, 112
17, 41604, Control_c, 12, 11, 113
17, 41616, Control_c, 12, 11, 114
17, 41627, Control_c, 12, 11, 115
17, 41638, Control_c, 12, 11, 116
17, 41649, Control_c, 12, 11, 117
17, 41660, Control_c, 12, 11, 118
17, 41671, Control_c, 12, 11, 119
17, 41682, Control_c, 12, 11, 120
17, 41693, Control_c, 12, 11, 121
17, 41704, Control_c, 12, 11, 122
17, 41715, Control_c, 12, 11, 123
17, 41726, Control_c, 12, 11, 124
17, 41737, Control_c, 12, 11, 125
17, 41748, Control_c, 12, 11, 126
17, 41760, Note_on_c, 12, 83, 0
17, 41760, Control_c, 12, 11, 127
17, 41760, Note_on_c, 12, 82, 57
17, 41771, Control_c, 12, 11, 126
17, 41782, Control_c, 12, 11, 125
17, 41793, Control_c, 12, 11, 124
17, 41804, Control_c, 12, 11, 123
17, 41815, Control_c, 12, 11, 122
17, 41826, Control_c, 12, 11, 121
17, 41837, Control_c, 12, 11, 120
17, 41848, Control_c, 12, 11, 119
17, 41856, Note_on_c, 12, 82, 0
17, 41856, Note_on_c, 12, 81, 59
17, 41859, Control_c, 12, 11, 118
17, 41870, Control_c, 12, 11, 117
17, 41881, Control_c, 12, 11, 116
17, 41892, Control_c, 12, 11, 115
17, 41904, Control_c, 12, 11, 114
17, 41915, Control_c, 12, 11, 113
17, 41926, Control_c, 12, 11, 112
17, 41937, Control_c, 12, 11, 111
17, 41948, Control_c, 12, 11, 110
17, 41952, Note_on_c, 12, 81, 0
17, 41952, Note_on_c, 12, 80, 56
17, 41959, Control_c, 12, 11, 109
17, 41970, Control_c, 12, 11, 108
17, 41981, Control_c, 12, 11, 107
17, 41992, Control_c, 12, 11, 106
17, 42003, Control_c, 12, 11, 105
17, 42014, Control_c, 12, 11, 104
17, 42025, Control_c, 12, 11, 103
17, 42036, Control_c, 12, 11, 102
17, 42048, Control_c, 12, 11, 101
17, 42059, Control_c, 12, 11, 100
17, 42070, Control_c, 12, 11, 99
17, 42081, Control_c, 12, 11, 98
17, 42092, Control_c, 12, 11, 97
17, 42103, Control_c, 12, 11, 96
17, 42114, Control_c, 12, 11, 95
17, 42125, Control_c, 12, 11, 94
17, 42136, Control_c, 12, 11, 93
17, 42144, Note_on_c, 12, 80, 0
17, 42144, Note_on_c, 12, 79, 56
17, 42147, Control_c, 12, 11, 92
17, 42158, Control_c, 12, 11, 91
17, 42169, Control_c, 12, 11, 90
17, 42180, Control_c, 12, 11, 89
17, 42192, Control_c, 12, 11, 88
17, 42203, Control_c, 12, 11, 87
17, 42214, Control_c, 12, 11, 86
17, 42225, Control_c, 12, 11, 85
17, 42236, Control_c, 12, 11, 84
17, 42247, Control_c, 12, 11, 83
17, 42258, Control_c, 12, 11, 82
17, 42269, Control_c, 12, 11, 81
17, 42280, Control_c, 12, 11, 80
17, 42291, Control_c, 12, 11, 79
17, 42302, Control_c, 12, 11, 78
17, 42313, Control_c, 12, 11, 77
17, 42324, Control_c, 12, 11, 76
17, 42336, Note_on_c, 12, 79, 0
17, 42336, Control_c, 12, 11, 75
17, 42336, Program_c, 12, 48
17, 42336, Note_on_c, 12, 78, 60
17, 42432, Note_on_c, 12, 78, 0
17, 43872, Note_on_c, 12, 62, 43
17, 43904, Note_on_c, 12, 62, 0
17, 43920, Note_on_c, 12, 64, 47
17, 43952, Note_on_c, 12, 64, 0
17, 43968, Note_on_c, 12, 66, 44
17, 44000, Note_on_c, 12, 66, 0
17, 44016, Note_on_c, 12, 68, 70
17, 44048, Note_on_c, 12, 68, 0
17, 44448, Note_on_c, 12, 64, 44
17, 44480, Note_on_c, 12, 64, 0
17, 44496, Note_on_c, 12, 66, 40
17, 44528, Note_on_c, 12, 66, 0
17, 44544, Note_on_c, 12, 68, 60
17, 44576, Note_on_c, 12, 68, 0
17, 44592, Note_on_c, 12, 70, 68
17, 44624, Note_on_c, 12, 70, 0
17, 44640, Note_on_c, 12, 74, 78
17, 44736, Note_on_c, 12, 74, 0
17, 44736, Note_on_c, 12, 72, 77
17, 44768, Note_on_c, 12, 72, 0
17, 44768, Note_on_c, 12, 74, 76
17, 44800, Note_on_c, 12, 74, 0
17, 44800, Note_on_c, 12, 72, 78
17, 44832, Note_on_c, 12, 72, 0
17, 44832, Note_on_c, 12, 74, 75
17, 44928, Note_on_c, 12, 74, 0
17, 44928, Note_on_c, 12, 72, 79
17, 44960, Note_on_c, 12, 72, 0
17, 44960, Note_on_c, 12, 74, 78
17, 44992, Note_on_c, 12, 74, 0
17, 44992, Note_on_c, 12, 72, 71
17, 45024, Note_on_c, 12, 72, 0
17, 45024, Note_on_c, 12, 74, 71
17, 45056, Note_on_c, 12, 74, 0
17, 45072, Note_on_c, 12, 75, 77
17, 45104, Note_on_c, 12, 75, 0
17, 45120, Note_on_c, 12, 76, 77
17, 45152, Note_on_c, 12, 76, 0
17, 45168, Note_on_c, 12, 77, 84
17, 45200, Note_on_c, 12, 77, 0
17, 45216, Note_on_c, 12, 74, 85
17, 45312, Note_on_c, 12, 74, 0
17, 45312, Note_on_c, 12, 72, 82
17, 45344, Note_on_c, 12, 72, 0
17, 45344, Note_on_c, 12, 74, 82
17, 45376, Note_on_c, 12, 74, 0
17, 45376, Note_on_c, 12, 72, 78
17, 45408, Note_on_c, 12, 72, 0
17, 45408, Note_on_c, 12, 74, 86
17, 45504, Note_on_c, 12, 74, 0
17, 45504, Note_on_c, 12, 72, 87
17, 45536, Note_on_c, 12, 72, 0
17, 45536, Note_on_c, 12, 74, 84
17, 45568, Note_on_c, 12, 74, 0
17, 45568, Note_on_c, 12, 72, 88
17, 45600, Note_on_c, 12, 72, 0
17, 45600, Note_on_c, 12, 74, 83
17, 45632, Note_on_c, 12, 74, 0
17, 45648, Note_on_c, 12, 75, 85
17, 45680, Note_on_c, 12, 75, 0
17, 45696, Note_on_c, 12, 76, 91
17, 45728, Note_on_c, 12, 76, 0
17, 45744, Note_on_c, 12, 77, 95
17, 45776, Note_on_c, 12, 77, 0
17, 45792, Program_c, 12, 44
17, 45792, Control_c, 12, 11, 92
17, 45792, Note_on_c, 12, 73, 44
17, 46944, Control_c, 12, 11, 92
17, 46960, Control_c, 12, 11, 93
17, 46976, Control_c, 12, 11, 94
17, 46993, Control_c, 12, 11, 95
17, 47009, Control_c, 12, 11, 96
17, 47026, Control_c, 12, 11, 97
17, 47042, Control_c, 12, 11, 98
17, 47059, Control_c, 12, 11, 99
17, 47075, Control_c, 12, 11, 100
17, 47092, Control_c, 12, 11, 101
17, 47108, Control_c, 12, 11, 102
17, 47125, Control_c, 12, 11, 103
17, 47141, Control_c, 12, 11, 104
17, 47157, Control_c, 12, 11, 105
17, 47174, Control_c, 12, 11, 106
17, 47190, Control_c, 12, 11, 107
17, 47207, Control_c, 12, 11, 108
17, 47223, Control_c, 12, 11, 109
17, 47240, Control_c, 12, 11, 110
17, 47256, Control_c, 12, 11, 111
17, 47273, Control_c, 12, 11, 112
17, 47289, Control_c, 12, 11, 113
17, 47306, Control_c, 12, 11, 114
17, 47322, Control_c, 12, 11, 115
17, 47338, Control_c, 12, 11, 116
17, 47355, Control_c, 12, 11, 117
17, 47371, Control_c, 12, 11, 118
17, 47388, Control_c, 12, 11, 119
17, 47404, Control_c, 12, 11, 120
17, 47421, Control_c, 12, 11, 121
17, 47437, Control_c, 12, 11, 122
17, 47454, Control_c, 12, 11, 123
17, 47470, Control_c, 12, 11, 124
17, 47487, Control_c, 12, 11, 125
17, 47503, Control_c, 12, 11, 126
17, 47520, Note_on_c, 12, 73, 0
17, 47520, Control_c, 12, 11, 127
17, 47520, Control_c, 12, 11, 127
17, 47520, Note_on_c, 12, 83, 34
17, 47712, Note_on_c, 12, 83, 0
17, 47712, Note_on_c, 12, 81, 27
17, 47904, Note_on_c, 12, 81, 0
17, 47904, Note_on_c, 12, 76, 32
17, 48096, Note_on_c, 12, 76, 0
17, 48096, Note_on_c, 12, 71, 35
17, 48288, Note_on_c, 12, 71, 0
17, 48288, Note_on_c, 12, 69, 25
17, 48480, Note_on_c, 12, 69, 0
17, 48480, Note_on_c, 12, 64, 25
17, 48672, Note_on_c, 12, 64, 0
17, 48672, Program_c, 12, 48
17, 48672, Control_c, 12, 11, 75
17, 48672, Note_on_c, 12, 68, 42
17, 48679, Control_c, 12, 11, 76
17, 48686, Control_c, 12, 11, 77
17, 48694, Control_c, 12, 11, 78
17, 48701, Control_c, 12, 11, 79
17, 48708, Control_c, 12, 11, 80
17, 48716, Control_c, 12, 11, 81
17, 48723, Control_c, 12, 11, 82
17, 48731, Control_c, 12, 11, 83
17, 48738, Control_c, 12, 11, 84
17, 48745, Control_c, 12, 11, 85
17, 48753, Control_c, 12, 11, 86
17, 48760, Control_c, 12, 11, 87
17, 48768, Control_c, 12, 11, 88
17, 48775, Control_c, 12, 11, 89
17, 48782, Control_c, 12, 11, 90
17, 48790, Control_c, 12, 11, 91
17, 48797, Control_c, 12, 11, 92
17, 48804, Control_c, 12, 11, 93
17, 48812, Control_c, 12, 11, 94
17, 48819, Control_c, 12, 11, 95
17, 48827, Control_c, 12, 11, 96
17, 48834, Control_c, 12, 11, 97
17, 48841, Control_c, 12, 11, 98
17, 48849, Control_c, 12, 11, 99
17, 48856, Control_c, 12, 11, 100
17, 48864, Control_c, 12, 11, 101
17, 48871, Control_c, 12, 11, 102
17, 48878, Control_c, 12, 11, 103
17, 48886, Control_c, 12, 11, 104
17, 48893, Control_c, 12, 11, 105
17, 48900, Control_c, 12, 11, 106
17, 48908, Control_c, 12, 11, 107
17, 48915, Control_c, 12, 11, 108
17, 48923, Control_c, 12, 11, 109
17, 48930, Control_c, 12, 11, 110
17, 48937, Control_c, 12, 11, 111
17, 48945, Control_c, 12, 11, 112
17, 48952, Control_c, 12, 11, 113
17, 48960, Control_c, 12, 11, 114
17, 48967, Control_c, 12, 11, 115
17, 48974, Control_c, 12, 11, 116
17, 48982, Control_c, 12, 11, 117
17, 48989, Control_c, 12, 11, 118
17, 48996, Control_c, 12, 11, 119
17, 49004, Control_c, 12, 11, 120
17, 49011, Control_c, 12, 11, 121
17, 49019, Control_c, 12, 11, 122
17, 49026, Control_c, 12, 11, 123
17, 49033, Control_c, 12, 11, 124
17, 49041, Control_c, 12, 11, 125
17, 49048, Control_c, 12, 11, 126
17, 49056, Control_c, 12, 11, 127
17, 49248, Note_on_c, 12, 68, 0
17, 49248, Note_on_c, 12, 66, 50
17, 49440, Note_on_c, 12, 66, 0
17, 49440, Note_on_c, 12, 71, 40
17, 49632, Note_on_c, 12, 71, 0
17, 49632, Note_on_c, 12, 64, 49
17, 49824, Note_on_c, 12, 64, 0
17, 49824, Control_c, 12, 11, 75
17, 49824, Note_on_c, 12, 75, 62
17, 49835, Control_c, 12, 11, 76
17, 49846, Control_c, 12, 11, 77
17, 49857, Control_c, 12, 11, 78
17, 49868, Control_c, 12, 11, 79
17, 49879, Control_c, 12, 11, 80
17, 49890, Control_c, 12, 11, 81
17, 49901, Control_c, 12, 11, 82
17, 49912, Control_c, 12, 11, 83
17, 49923, Control_c, 12, 11, 84
17, 49934, Control_c, 12, 11, 85
17, 49945, Control_c, 12, 11, 86
17, 49956, Control_c, 12, 11, 87
17, 49968, Control_c, 12, 11, 88
17, 49979, Control_c, 12, 11, 89
17, 49990, Control_c, 12, 11, 90
17, 50001, Control_c, 12, 11, 91
17, 50012, Control_c, 12, 11, 92
17, 50016, Note_on_c, 12, 75, 0
17, 50016, Note_on_c, 12, 76, 58
17, 50023, Control_c, 12, 11, 93
17, 50034, Control_c, 12, 11, 94
17, 50045, Control_c, 12, 11, 95
17, 50056, Control_c, 12, 11, 96
17, 50067, Control_c, 12, 11, 97
17, 50078, Control_c, 12, 11, 98
17, 50089, Control_c, 12, 11, 99
17, 50100, Control_c, 12, 11, 100
17, 50112, Control_c, 12, 11, 101
17, 50123, Control_c, 12, 11, 102
17, 50134, Control_c, 12, 11, 103
17, 50145, Control_c, 12, 11, 104
17, 50156, Control_c, 12, 11, 105
17, 50167, Control_c, 12, 11, 106
17, 50178, Control_c, 12, 11, 107
17, 50189, Control_c, 12, 11, 108
17, 50200, Control_c, 12, 11, 109
17, 50208, Note_on_c, 12, 76, 0
17, 50208, Note_on_c, 12, 77, 59
17, 50211, Control_c, 12, 11, 110
17, 50222, Control_c, 12, 11, 111
17, 50233, Control_c, 12, 11, 112
17, 50244, Control_c, 12, 11, 113
17, 50256, Control_c, 12, 11, 114
17, 50267, Control_c, 12, 11, 115
17, 50278, Control_c, 12, 11, 116
17, 50289, Control_c, 12, 11, 117
17, 50300, Control_c, 12, 11, 118
17, 50311, Control_c, 12, 11, 119
17, 50322, Control_c, 12, 11, 120
17, 50333, Control_c, 12, 11, 121
17, 50344, Control_c, 12, 11, 122
17, 50355, Control_c, 12, 11, 123
17, 50366, Control_c, 12, 11, 124
17, 50377, Control_c, 12, 11, 125
17, 50388, Control_c, 12, 11, 126
17, 50400, Note_on_c, 12, 77, 0
17, 50400, Control_c, 12, 11, 127
17, 50400, Program_c, 12, 40
17, 50400, Control_c, 12, 1, 64
17, 50400, Control_c, 12, 11, 92
17, 50400, Note_on_c, 12, 73, 30
17, 50405, Control_c, 12, 11, 93
17, 50410, Control_c, 12, 11, 94
17, 50416, Control_c, 12, 11, 95
17, 50421, Control_c, 12, 11, 96
17, 50427, Control_c, 12, 11, 97
17, 50432, Control_c, 12, 11, 98
17, 50438, Control_c, 12, 11, 99
17, 50443, Control_c, 12, 11, 100
17, 50449, Control_c, 12, 11, 101
17, 50454, Control_c, 12, 11, 102
17, 50460, Control_c, 12, 11, 103
17, 50465, Control_c, 12, 11, 104
17, 50471, Control_c, 12, 11, 105
17, 50476, Control_c, 12, 11, 106
17, 50482, Control_c, 12, 11, 107
17, 50487, Control_c, 12, 11, 108
17, 50493, Control_c, 12, 11, 109
17, 50498, Control_c, 12, 11, 110
17, 50504, Control_c, 12, 11, 111
17, 50509, Control_c, 12, 11, 112
17, 50515, Control_c, 12, 11, 113
17, 50520, Control_c, 12, 11, 114
17, 50526, Control_c, 12, 11, 115
17, 50531, Control_c, 12, 11, 116
17, 50537, Control_c, 12, 11, 117
17, 50542, Control_c, 12, 11, 118
17, 50548, Control_c, 12, 11, 119
17, 50553, Control_c, 12, 11, 120
17, 50559, Control_c, 12, 11, 121
17, 50564, Control_c, 12, 11, 122
17, 50570, Control_c, 12, 11, 123
17, 50575, Control_c, 12, 11, 124
17, 50581, Control_c, 12, 11, 125
17, 50586, Control_c, 12, 11, 126
17, 50592, Note_on_c, 12, 73, 0
17, 50592, Control_c, 12, 11, 127
17, 50592, Note_on_c, 12, 68, 30
17, 50601, Control_c, 12, 11, 126
17, 50610, Control_c, 12, 11, 125
17, 50619, Control_c, 12, 11, 124
17, 50628, Control_c, 12, 11, 123
17, 50637, Control_c, 12, 11, 122
17, 50646, Control_c, 12, 11, 121
17, 50656, Control_c, 12, 11, 120
17, 50665, Control_c, 12, 11, 119
17, 50674, Control_c, 12, 11, 118
17, 50683, Control_c, 12, 11, 117
17, 50692, Control_c, 12, 11, 116
17, 50701, Control_c, 12, 11, 115
17, 50710, Control_c, 12, 11, 114
17, 50720, Control_c, 12, 11, 113
17, 50729, Control_c, 12, 11, 112
17, 50738, Control_c, 12, 11, 111
17, 50747, Control_c, 12, 11, 110
17, 50756, Control_c, 12, 11, 109
17, 50765, Control_c, 12, 11, 108
17, 50774, Control_c, 12, 11, 107
17, 50784, Note_on_c, 12, 68, 0
17, 50784, Control_c, 12, 11, 106
17, 50784, Note_on_c, 12, 64, 33
17, 50793, Control_c, 12, 11, 105
17, 50802, Control_c, 12, 11, 104
17, 50811, Control_c, 12, 11, 103
17, 50820, Control_c, 12, 11, 102
17, 50829, Control_c, 12, 11, 101
17, 50838, Control_c, 12, 11, 100
17, 50848, Control_c, 12, 11, 99
17, 50857, Control_c, 12, 11, 98
17, 50866, Control_c, 12, 11, 97
17, 50875, Control_c, 12, 11, 96
17, 50884, Control_c, 12, 11, 95
17, 50893, Control_c, 12, 11, 94
17, 50902, Control_c, 12, 11, 93
17, 50912, Control_c, 12, 11, 92
17, 50921, Control_c, 12, 11, 91
17, 50930, Control_c, 12, 11, 90
17, 50939, Control_c, 12, 11, 89
17, 50948, Control_c, 12, 11, 88
17, 50957, Control_c, 12, 11, 87
17, 50966, Control_c, 12, 11, 86
17, 50976, Note_on_c, 12, 64, 0
17, 50976, Control_c, 12, 11, 85
17, 50976, Note_on_c, 12, 62, 29
17, 50985, Control_c, 12, 11, 84
17, 50994, Control_c, 12, 11, 83
17, 51003, Control_c, 12, 11, 82
17, 51012, Control_c, 12, 11, 81
17, 51021, Control_c, 12, 11, 80
17, 51030, Control_c, 12, 11, 79
17, 51040, Control_c, 12, 11, 78
17, 51049, Control_c, 12, 11, 77
17, 51058, Control_c, 12, 11, 76
17, 51067, Control_c, 12, 11, 75
17, 51076, Control_c, 12, 11, 74
17, 51085, Control_c, 12, 11, 73
17, 51094, Control_c, 12, 11, 72
17, 51104, Control_c, 12, 11, 71
17, 51113, Control_c, 12, 11, 70
17, 51122, Control_c, 12, 11, 69
17, 51131, Control_c, 12, 11, 68
17, 51140, Control_c, 12, 11, 67
17, 51149, Control_c, 12, 11, 66
17, 51158, Control_c, 12, 11, 65
17, 51168, Control_c, 12, 11, 64
17, 51456, Note_on_c, 12, 62, 0
17, 51552, Control_c, 12, 11, 92
17, 51552, Note_on_c, 12, 76, 29
17, 51557, Control_c, 12, 11, 93
17, 51562, Control_c, 12, 11, 94
17, 51568, Control_c, 12, 11, 95
17, 51573, Control_c, 12, 11, 96
17, 51579, Control_c, 12, 11, 97
17, 51584, Control_c, 12, 11, 98
17, 51590, Control_c, 12, 11, 99
17, 51595, Control_c, 12, 11, 100
17, 51601, Control_c, 12, 11, 101
17, 51606, Control_c, 12, 11, 102
17, 51612, Control_c, 12, 11, 103
17, 51617, Control_c, 12, 11, 104
17, 51623, Control_c, 12, 11, 105
17, 51628, Control_c, 12, 11, 106
17, 51634, Control_c, 12, 11, 107
17, 51639, Control_c, 12, 11, 108
17, 51645, Control_c, 12, 11, 109
17, 51650, Control_c, 12, 11, 110
17, 51656, Control_c, 12, 11, 111
17, 51661, Control_c, 12, 11, 112
17, 51667, Control_c, 12, 11, 113
17, 51672, Control_c, 12, 11, 114
17, 51678, Control_c, 12, 11, 115
17, 51683, Control_c, 12, 11, 116
17, 51689, Control_c, 12, 11, 117
17, 51694, Control_c, 12, 11, 118
17, 51700, Control_c, 12, 11, 119
17, 51705, Control_c, 12, 11, 120
17, 51711, Control_c, 12, 11, 121
17, 51716, Control_c, 12, 11, 122
17, 51722, Control_c, 12, 11, 123
17, 51727, Control_c, 12, 11, 124
17, 51733, Control_c, 12, 11, 125
17, 51738, Control_c, 12, 11, 126
17, 51744, Note_on_c, 12, 76, 0
17, 51744, Control_c, 12, 11, 127
17, 51744, Note_on_c, 12, 73, 33
17, 51753, Control_c, 12, 11, 126
17, 51762, Control_c, 12, 11, 125
17, 51771, Control_c, 12, 11, 124
17, 51780, Control_c, 12, 11, 123
17, 51789, Control_c, 12, 11, 122
17, 51798, Control_c, 12, 11, 121
17, 51808, Control_c, 12, 11, 120
17, 51817, Control_c, 12, 11, 119
17, 51826, Control_c, 12, 11, 118
17, 51835, Control_c, 12, 11, 117
17, 51844, Control_c, 12, 11, 116
17, 51853, Control_c, 12, 11, 115
17, 51862, Control_c, 12, 11, 114
17, 51872, Control_c, 12, 11, 113
17, 51881, Control_c, 12, 11, 112
17, 51890, Control_c, 12, 11, 111
17, 51899, Control_c, 12, 11, 110
17, 51908, Control_c, 12, 11, 109
17, 51917, Control_c, 12, 11, 108
17, 51926, Control_c, 12, 11, 107
17, 51936, Note_on_c, 12, 73, 0
17, 51936, Control_c, 12, 11, 106
17, 51936, Note_on_c, 12, 67, 25
17, 51945, Control_c, 12, 11, 105
17, 51954, Control_c, 12, 11, 104
17, 51963, Control_c, 12, 11, 103
17, 51972, Control_c, 12, 11, 102
17, 51981, Control_c, 12, 11, 101
17, 51990, Control_c, 12, 11, 100
17, 52000, Control_c, 12, 11, 99
17, 52009, Control_c, 12, 11, 98
17, 52018, Control_c, 12, 11, 97
17, 52027, Control_c, 12, 11, 96
17, 52036, Control_c, 12, 11, 95
17, 52045, Control_c, 12, 11, 94
17, 52054, Control_c, 12, 11, 93
17, 52064, Control_c, 12, 11, 92
17, 52073, Control_c, 12, 11, 91
17, 52082, Control_c, 12, 11, 90
17, 52091, Control_c, 12, 11, 89
17, 52100, Control_c, 12, 11, 88
17, 52109, Control_c, 12, 11, 87
17, 52118, Control_c, 12, 11, 86
17, 52128, Note_on_c, 12, 67, 0
17, 52128, Control_c, 12, 11, 85
17, 52128, Note_on_c, 12, 65, 33
17, 52137, Control_c, 12, 11, 84
17, 52146, Control_c, 12, 11, 83
17, 52155, Control_c, 12, 11, 82
17, 52164, Control_c, 12, 11, 81
17, 52173, Control_c, 12, 11, 80
17, 52182, Control_c, 12, 11, 79
17, 52192, Control_c, 12, 11, 78
17, 52201, Control_c, 12, 11, 77
17, 52210, Control_c, 12, 11, 76
17, 52219, Control_c, 12, 11, 75
17, 52228, Control_c, 12, 11, 74
17, 52237, Control_c, 12, 11, 73
17, 52246, Control_c, 12, 11, 72
17, 52256, Control_c, 12, 11, 71
17, 52265, Control_c, 12, 11, 70
17, 52274, Control_c, 12, 11, 69
17, 52283, Control_c, 12, 11, 68
17, 52292, Control_c, 12, 11, 67
17, 52301, Control_c, 12, 11, 66
17, 52310, Control_c, 12, 11, 65
17, 52320, Control_c, 12, 11, 64
17, 52704, Note_on_c, 12, 65, 0
17, 52704, Control_c, 12, 11, 127
17, 52704, Program_c, 12, 45
17, 52704, Control_c, 12, 1, 0
17, 52704, Note_on_c, 12, 55, 73
17, 52704, Note_on_c, 12, 62, 75
17, 52800, Note_on_c, 12, 55, 0
17, 52800, Note_on_c, 12, 62, 0
17, 52800, Note_on_c, 12, 67, 89
17, 52824, Note_on_c, 12, 74, 94
17, 52896, Note_on_c, 12, 67, 0
17, 52896, Note_on_c, 12, 74, 0
17, 53856, Program_c, 12, 48
17, 53856, Note_on_c, 12, 58, 25
17, 55008, Note_on_c, 12, 58, 0
17, 55008, Note_on_c, 12, 61, 29
17, 56160, Note_on_c, 12, 61, 0
17, 56160, Note_on_c, 12, 58, 29
17, 57312, Note_on_c, 12, 58, 0
17, 57312, Note_on_c, 12, 56, 50
17, 57333, Note_on_c, 12, 56, 0
17, 57344, Note_on_c, 12, 56, 40
17, 57365, Note_on_c, 12, 56, 0
17, 57376, Note_on_c, 12, 56, 46
17, 57397, Note_on_c, 12, 56, 0
17, 57408, Note_on_c, 12, 57, 43
17, 57429, Note_on_c, 12, 57, 0
17, 57440, Note_on_c, 12, 57, 42
17, 57461, Note_on_c, 12, 57, 0
17, 57472, Note_on_c, 12, 57, 43
17, 57493, Note_on_c, 12, 57, 0
17, 57504, Note_on_c, 12, 59, 47
17, 57525, Note_on_c, 12, 59, 0
17, 57536, Note_on_c, 12, 59, 44
17, 57557, Note_on_c, 12, 59, 0
17, 57568, Note_on_c, 12, 59, 42
17, 57589, Note_on_c, 12, 59, 0
17, 57600, Note_on_c, 12, 61, 50
17, 57621, Note_on_c, 12, 61, 0
17, 57632, Note_on_c, 12, 61, 47
17, 57653, Note_on_c, 12, 61, 0
17, 57664, Note_on_c, 12, 61, 43
17, 57685, Note_on_c, 12, 61, 0
17, 57696, Note_on_c, 12, 62, 45
17, 57717, Note_on_c, 12, 62, 0
17, 57728, Note_on_c, 12, 62, 53
17, 57749, Note_on_c, 12, 62, 0
17, 57760, Note_on_c, 12, 62, 52
17, 57781, Note_on_c, 12, 62, 0
17, 57792, Note_on_c, 12, 64, 51
17, 57813, Note_on_c, 12, 64, 0
17, 57824, Note_on_c, 12, 64, 58
17, 57845, Note_on_c, 12, 64, 0
17, 57856, Note_on_c, 12, 64, 55
17, 57877, Note_on_c, 12, 64, 0
17, 57888, Note_on_c, 12, 66, 55
17, 57909, Note_on_c, 12, 66, 0
17, 57920, Note_on_c, 12, 66, 52
17, 57941, Note_on_c, 12, 66, 0
17, 57952, Note_on_c, 12, 66, 53
17, 57973, Note_on_c, 12, 66, 0
17, 57984, Note_on_c, 12, 68, 56
17, 58005, Note_on_c, 12, 68, 0
17, 58016, Note_on_c, 12, 68, 64
17, 58037, Note_on_c, 12, 68, 0
17, 58048, Note_on_c, 12, 68, 64
17, 58069, Note_on_c, 12, 68, 0
17, 58080, Note_on_c, 12, 69, 62
17, 58101, Note_on_c, 12, 69, 0
17, 58112, Note_on_c, 12, 69, 66
17, 58133, Note_on_c, 12, 69, 0
17, 58144, Note_on_c, 12, 69, 68
17, 58165, Note_on_c, 12, 69, 0
17, 58176, Note_on_c, 12, 71, 61
17, 58197, Note_on_c, 12, 71, 0
17, 58208, Note_on_c, 12, 71, 68
17, 58229, Note_on_c, 12, 71, 0
17, 58240, Note_on_c, 12, 71, 66
17, 58261, Note_on_c, 12, 71, 0
17, 58272, Note_on_c, 12, 73, 68
17, 58293, Note_on_c, 12, 73, 0
17, 58304, Note_on_c, 12, 73, 63
17, 58325, Note_on_c, 12, 73, 0
17, 58336, Note_on_c, 12, 73, 69
17, 58357, Note_on_c, 12, 73, 0
17, 58368, Note_on_c, 12, 74, 70
17, 58389, Note_on_c, 12, 74, 0
17, 58400, Note_on_c, 12, 74, 73
17, 58421, Note_on_c, 12, 74, 0
17, 58432, Note_on_c, 12, 74, 76
17, 58453, Note_on_c, 12, 74, 0
17, 58464, Note_on_c, 12, 76, 74
17, 58485, Note_on_c, 12, 76, 0
17, 58496, Note_on_c, 12, 76, 75
17, 58517, Note_on_c, 12, 76, 0
17, 58528, Note_on_c, 12, 76, 75
17, 58549, Note_on_c, 12, 76, 0
17, 58560, Note_on_c, 12, 78, 75
17, 58581, Note_on_c, 12, 78, 0
17, 58592, Note_on_c, 12, 78, 76
17, 58613, Note_on_c, 12, 78, 0
17, 58624, Note_on_c, 12, 78, 81
17, 58645, Note_on_c, 12, 78, 0
17, 58656, Note_on_c, 12, 80, 82
17, 58677, Note_on_c, 12, 80, 0
17, 58688, Note_on_c, 12, 80, 85
17, 58709, Note_on_c, 12, 80, 0
17, 58720, Note_on_c, 12, 80, 76
17, 58741, Note_on_c, 12, 80, 0
17, 58752, Note_on_c, 12, 78, 80
17, 58773, Note_on_c, 12, 78, 0
17, 58784, Note_on_c, 12, 78, 88
17, 58805, Note_on_c, 12, 78, 0
17, 58816, Note_on_c, 12, 78, 87
17, 58837, Note_on_c, 12, 78, 0
17, 58848, Note_on_c, 12, 78, 85
17, 58869, Note_on_c, 12, 78, 0
17, 58880, Note_on_c, 12, 78, 87
17, 58901, Note_on_c, 12, 78, 0
17, 58912, Note_on_c, 12, 78, 89
17, 58933, Note_on_c, 12, 78, 0
17, 58944, Note_on_c, 12, 74, 85
17, 58965, Note_on_c, 12, 74, 0
17, 58976, Note_on_c, 12, 74, 84
17, 58997, Note_on_c, 12, 74, 0
17, 59008, Note_on_c, 12, 74, 95
17, 59029, Note_on_c, 12, 74, 0
17, 59040, Note_on_c, 12, 80, 89
17, 59061, Note_on_c, 12, 80, 0
17, 59072, Note_on_c, 12, 80, 96
17, 59093, Note_on_c, 12, 80, 0
17, 59104, Note_on_c, 12, 80, 94
17, 59125, Note_on_c, 12, 80, 0
17, 59136, Note_on_c, 12, 78, 90
17, 59157, Note_on_c, 12, 78, 0
17, 59168, Note_on_c, 12, 78, 91
17, 59189, Note_on_c, 12, 78, 0
17, 59200, Note_on_c, 12, 78, 91
17, 59221, Note_on_c, 12, 78, 0
17, 59232, Note_on_c, 12, 76, 87
17, 59253, Note_on_c, 12, 76, 0
17, 59264, Note_on_c, 12, 76, 93
17, 59285, Note_on_c, 12, 76, 0
17, 59296, Note_on_c, 12, 76, 88
17, 59317, Note_on_c, 12, 76, 0
17, 59328, Note_on_c, 12, 74, 95
17, 59349, Note_on_c, 12, 74, 0
17, 59360, Note_on_c, 12, 74, 93
17, 59381, Note_on_c, 12, 74, 0
17, 59392, Note_on_c, 12, 74, 90
17, 59413, Note_on_c, 12, 74, 0
17, 59424, Note_on_c, 12, 80, 95
17, 59445, Note_on_c, 12, 80, 0
17, 59456, Note_on_c, 12, 80, 96
17, 59477, Note_on_c, 12, 80, 0
17, 59488, Note_on_c, 12, 80, 92
17, 59509, Note_on_c, 12, 80, 0
17, 59520, Note_on_c, 12, 78, 88
17, 59541, Note_on_c, 12, 78, 0
17, 59552, Note_on_c, 12, 78, 89
17, 59573, Note_on_c, 12, 78, 0
17, 59584, Note_on_c, 12, 78, 94
17, 59605, Note_on_c, 12, 78, 0
17, 60768, Program_c, 12, 44
17, 61152, Control_c, 12, 11, 92
17, 61152, Note_on_c, 12, 76, 46
17, 61157, Control_c, 12, 11, 93
17, 61162, Control_c, 12, 11, 94
17, 61168, Control_c, 12, 11, 95
17, 61173, Control_c, 12, 11, 96
17, 61179, Control_c, 12, 11, 97
17, 61184, Control_c, 12, 11, 98
17, 61190, Control_c, 12, 11, 99
17, 61195, Control_c, 12, 11, 100
17, 61201, Control_c, 12, 11, 101
17, 61206, Control_c, 12, 11, 102
17, 61212, Control_c, 12, 11, 103
17, 61217, Control_c, 12, 11, 104
17, 61223, Control_c, 12, 11, 105
17, 61228, Control_c, 12, 11, 106
17, 61234, Control_c, 12, 11, 107
17, 61239, Control_c, 12, 11, 108
17, 61245, Control_c, 12, 11, 109
17, 61250, Control_c, 12, 11, 110
17, 61256, Control_c, 12, 11, 111
17, 61261, Control_c, 12, 11, 112
17, 61267, Control_c, 12, 11, 113
17, 61272, Control_c, 12, 11, 114
17, 61278, Control_c, 12, 11, 115
17, 61283, Control_c, 12, 11, 116
17, 61289, Control_c, 12, 11, 117
17, 61294, Control_c, 12, 11, 118
17, 61300, Control_c, 12, 11, 119
17, 61305, Control_c, 12, 11, 120
17, 61311, Control_c, 12, 11, 121
17, 61316, Control_c, 12, 11, 122
17, 61322, Control_c, 12, 11, 123
17, 61327, Control_c, 12, 11, 124
17, 61333, Control_c, 12, 11, 125
17, 61338, Control_c, 12, 11, 126
17, 61344, Note_on_c, 12, 76, 0
17, 61344, Control_c, 12, 11, 127
17, 61344, Note_on_c, 12, 78, 45
17, 61536, Note_on_c, 12, 78, 0
17, 61536, Control_c, 12, 11, 92
17, 61536, Note_on_c, 12, 76, 43
17, 61541, Control_c, 12, 11, 93
17, 61546, Control_c, 12, 11, 94
17, 61552, Control_c, 12, 11, 95
17, 61557, Control_c, 12, 11, 96
17, 61563, Control_c, 12, 11, 97
17, 61568, Control_c, 12, 11, 98
17, 61574, Control_c, 12, 11, 99
17, 61579, Control_c, 12, 11, 100
17, 61585, Control_c, 12, 11, 101
17, 61590, Control_c, 12, 11, 102
17, 61596, Control_c, 12, 11, 103
17, 61601, Control_c, 12, 11, 104
17, 61607, Control_c, 12, 11, 105
17, 61612, Control_c, 12, 11, 106
17, 61618, Control_c, 12, 11, 107
17, 61623, Control_c, 12, 11, 108
17, 61629, Control_c, 12, 11, 109
17, 61634, Control_c, 12, 11, 110
17, 61640, Control_c, 12, 11, 111
17, 61645, Control_c, 12, 11, 112
17, 61651, Control_c, 12, 11, 113
17, 61656, Control_c, 12, 11, 114
17, 61662, Control_c, 12, 11, 115
17, 61667, Control_c, 12, 11, 116
17, 61673, Control_c, 12, 11, 117
17, 61678, Control_c, 12, 11, 118
17, 61684, Control_c, 12, 11, 119
17, 61689, Control_c, 12, 11, 120
17, 61695, Control_c, 12, 11, 121
17, 61700, Control_c, 12, 11, 122
17, 61706, Control_c, 12, 11, 123
17, 61711, Control_c, 12, 11, 124
17, 61717, Control_c, 12, 11, 125
17, 61722, Control_c, 12, 11, 126
17, 61728, Note_on_c, 12, 76, 0
17, 61728, Control_c, 12, 11, 127
17, 61728, Note_on_c, 12, 78, 50
17, 61920, Note_on_c, 12, 78, 0
17, 62304, Control_c, 12, 11, 92
17, 62304, Note_on_c, 12, 76, 46
17, 62309, Control_c, 12, 11, 93
17, 62314, Control_c, 12, 11, 94
17, 62320, Control_c, 12, 11, 95
17, 62325, Control_c, 12, 11, 96
17, 62331, Control_c, 12, 11, 97
17, 62336, Control_c, 12, 11, 98
17, 62342, Control_c, 12, 11, 99
17, 62347, Control_c, 12, 11, 100
17, 62353, Control_c, 12, 11, 101
17, 62358, Control_c, 12, 11, 102
17, 62364, Control_c, 12, 11, 103
17, 62369, Control_c, 12, 11, 104
17, 62375, Control_c, 12, 11, 105
17, 62380, Control_c, 12, 11, 106
17, 62386, Control_c, 12, 11, 107
17, 62391, Control_c, 12, 11, 108
17, 62397, Control_c, 12, 11, 109
17, 62402, Control_c, 12, 11, 110
17, 62408, Control_c, 12, 11, 111
17, 62413, Control_c, 12, 11, 112
17, 62419, Control_c, 12, 11, 113
17, 62424, Control_c, 12, 11, 114
17, 62430, Control_c, 12, 11, 115
17, 62435, Control_c, 12, 11, 116
17, 62441, Control_c, 12, 11, 117
17, 62446, Control_c, 12, 11, 118
17, 62452, Control_c, 12, 11, 119
17, 62457, Control_c, 12, 11, 120
17, 62463, Control_c, 12, 11, 121
17, 62468, Control_c, 12, 11, 122
17, 62474, Control_c, 12, 11, 123
17, 62479, Control_c, 12, 11, 124
17, 62485, Control_c, 12, 11, 125
17, 62490, Control_c, 12, 11, 126
17, 62496, Note_on_c, 12, 76, 0
17, 62496, Control_c, 12, 11, 127
17, 62496, Note_on_c, 12, 78, 48
17, 62688, Note_on_c, 12, 78, 0
17, 62688, Control_c, 12, 11, 92
17, 62688, Note_on_c, 12, 76, 47
17, 62693, Control_c, 12, 11, 93
17, 62698, Control_c, 12, 11, 94
17, 62704, Control_c, 12, 11, 95
17, 62709, Control_c, 12, 11, 96
17, 62715, Control_c, 12, 11, 97
17, 62720, Control_c, 12, 11, 98
17, 62726, Control_c, 12, 11, 99
17, 62731, Control_c, 12, 11, 100
17, 62737, Control_c, 12, 11, 101
17, 62742, Control_c, 12, 11, 102
17, 62748, Control_c, 12, 11, 103
17, 62753, Control_c, 12, 11, 104
17, 62759, Control_c, 12, 11, 105
17, 62764, Control_c, 12, 11, 106
17, 62770, Control_c, 12, 11, 107
17, 62775, Control_c, 12, 11, 108
17, 62781, Control_c, 12, 11, 109
17, 62786, Control_c, 12, 11, 110
17, 62792, Control_c, 12, 11, 111
17, 62797, Control_c, 12, 11, 112
17, 62803, Control_c, 12, 11, 113
17, 62808, Control_c, 12, 11, 114
17, 62814, Control_c, 12, 11, 115
17, 62819, Control_c, 12, 11, 116
17, 62825, Control_c, 12, 11, 117
17, 62830, Control_c, 12, 11, 118
17, 62836, Control_c, 12, 11, 119
17, 62841, Control_c, 12, 11, 120
17, 62847, Control_c, 12, 11, 121
17, 62852, Control_c, 12, 11, 122
17, 62858, Control_c, 12, 11, 123
17, 62863, Control_c, 12, 11, 124
17, 62869, Control_c, 12, 11, 125
17, 62874, Control_c, 12, 11, 126
17, 62880, Note_on_c, 12, 76, 0
17, 62880, Control_c, 12, 11, 127
17, 62880, Note_on_c, 12, 78, 40
17, 63072, Note_on_c, 12, 78, 0
17, 63072, Note_on_c, 12, 83, 26
17, 63264, Note_on_c, 12, 83, 0
17, 63264, Note_on_c, 12, 81, 26
17, 63456, Note_on_c, 12, 81, 0
17, 63456, Note_on_c, 12, 76, 33
17, 63648, Note_on_c, 12, 76, 0
17, 63648, Note_on_c, 12, 71, 27
17, 63840, Note_on_c, 12, 71, 0
17, 63840, Note_on_c, 12, 69, 33
17, 64032, Note_on_c, 12, 69, 0
17, 64032, Note_on_c, 12, 64, 34
17, 64224, Note_on_c, 12, 64, 0
17, 64224, Program_c, 12, 48
17, 64224, Note_on_c, 12, 55, 45
17, 64248, Note_on_c, 12, 55, 0
17, 64248, Note_on_c, 12, 57, 47
17, 64272, Note_on_c, 12, 57, 0
17, 64272, Note_on_c, 12, 55, 43
17, 64296, Note_on_c, 12, 55, 0
17, 64296, Note_on_c, 12, 57, 47
17, 64320, Note_on_c, 12, 57, 0
17, 64320, Note_on_c, 12, 55, 49
17, 64344, Note_on_c, 12, 55, 0
17, 64344, Note_on_c, 12, 57, 56
17, 64368, Note_on_c, 12, 57, 0
17, 64368, Note_on_c, 12, 55, 51
17, 64392, Note_on_c, 12, 55, 0
17, 64392, Note_on_c, 12, 57, 61
17, 64416, Note_on_c, 12, 57, 0
17, 64416, Note_on_c, 12, 57, 62
17, 64440, Note_on_c, 12, 57, 0
17, 64440, Note_on_c, 12, 59, 58
17, 64464, Note_on_c, 12, 59, 0
17, 64464, Note_on_c, 12, 57, 67
17, 64488, Note_on_c, 12, 57, 0
17, 64488, Note_on_c, 12, 59, 61
17, 64512, Note_on_c, 12, 59, 0
17, 64512, Note_on_c, 12, 57, 62
17, 64536, Note_on_c, 12, 57, 0
17, 64536, Note_on_c, 12, 59, 64
17, 64560, Note_on_c, 12, 59, 0
17, 64560, Note_on_c, 12, 57, 67
17, 64584, Note_on_c, 12, 57, 0
17, 64584, Note_on_c, 12, 59, 70
17, 64608, Note_on_c, 12, 59, 0
17, 64608, Note_on_c, 12, 61, 78
17, 64704, Note_on_c, 12, 61, 0
17, 64800, Program_c, 12, 45
17, 64800, Note_on_c, 12, 68, 76
17, 64896, Note_on_c, 12, 68, 0
17, 65184, Note_on_c, 12, 63, 77
17, 65280, Note_on_c, 12, 63, 0
17, 65376, Program_c, 12, 48
17, 65376, Note_on_c, 12, 68, 95
17, 65400, Note_on_c, 12, 68, 0
17, 65400, Note_on_c, 12, 70, 97
17, 65424, Note_on_c, 12, 70, 0
17, 65424, Note_on_c, 12, 71, 98
17, 65448, Note_on_c, 12, 71, 0
17, 65448, Note_on_c, 12, 73, 94
17, 65472, Note_on_c, 12, 73, 0
17, 65472, Note_on_c, 12, 75, 100
17, 65496, Note_on_c, 12, 75, 0
17, 65496, Note_on_c, 12, 77, 103
17, 65520, Note_on_c, 12, 77, 0
17, 65520, Note_on_c, 12, 78, 97
17, 65544, Note_on_c, 12, 78, 0
17, 65544, Note_on_c, 12, 80, 100
17, 65568, Note_on_c, 12, 80, 0
17, 65568, Note_on_c, 12, 82, 104
17, 65952, Control_c, 12, 11, 127
17, 65962, Control_c, 12, 11, 126
17, 65973, Control_c, 12, 11, 125
17, 65984, Control_c, 12, 11, 124
17, 65995, Control_c, 12, 11, 123
17, 66005, Control_c, 12, 11, 122
17, 66016, Control_c, 12, 11, 121
17, 66027, Control_c, 12, 11, 120
17, 66038, Control_c, 12, 11, 119
17, 66048, Control_c, 12, 11, 118
17, 66059, Control_c, 12, 11, 117
17, 66070, Control_c, 12, 11, 116
17, 66081, Control_c, 12, 11, 115
17, 66091, Control_c, 12, 11, 114
17, 66102, Control_c, 12, 11, 113
17, 66113, Control_c, 12, 11, 112
17, 66124, Control_c, 12, 11, 111
17, 66135, Control_c, 12, 11, 110
17, 66145, Control_c, 12, 11, 109
17, 66156, Control_c, 12, 11, 108
17, 66167, Control_c, 12, 11, 107
17, 66178, Control_c, 12, 11, 106
17, 66188, Control_c, 12, 11, 105
17, 66199, Control_c, 12, 11, 104
17, 66210, Control_c, 12, 11, 103
17, 66221, Control_c, 12, 11, 102
17, 66231, Control_c, 12, 11, 101
17, 66242, Control_c, 12, 11, 100
17, 66253, Control_c, 12, 11, 99
17, 66264, Control_c, 12, 11, 98
17, 66274, Control_c, 12, 11, 97
17, 66285, Control_c, 12, 11, 96
17, 66296, Control_c, 12, 11, 95
17, 66307, Control_c, 12, 11, 94
17, 66318, Control_c, 12, 11, 93
17, 66328, Control_c, 12, 11, 92
17, 66339, Control_c, 12, 11, 91
17, 66350, Control_c, 12, 11, 90
17, 66361, Control_c, 12, 11, 89
17, 66371, Control_c, 12, 11, 88
17, 66382, Control_c, 12, 11, 87
17, 66393, Control_c, 12, 11, 86
17, 66404, Control_c, 12, 11, 85
17, 66414, Control_c, 12, 11, 84
17, 66425, Control_c, 12, 11, 83
17, 66436, Control_c, 12, 11, 82
17, 66447, Control_c, 12, 11, 81
17, 66458, Control_c, 12, 11, 80
17, 66468, Control_c, 12, 11, 79
17, 66479, Control_c, 12, 11, 78
17, 66490, Control_c, 12, 11, 77
17, 66501, Control_c, 12, 11, 76
17, 66511, Control_c, 12, 11, 75
17, 66522, Control_c, 12, 11, 74
17, 66533, Control_c, 12, 11, 73
17, 66544, Control_c, 12, 11, 72
17, 66554, Control_c, 12, 11, 71
17, 66565, Control_c, 12, 11, 70
17, 66576, Control_c, 12, 11, 69
17, 66587, Control_c, 12, 11, 68
17, 66597, Control_c, 12, 11, 67
17, 66608, Control_c, 12, 11, 66
17, 66619, Control_c, 12, 11, 65
17, 66630, Control_c, 12, 11, 64
17, 66641, Control_c, 12, 11, 63
17, 66651, Control_c, 12, 11, 62
17, 66662, Control_c, 12, 11, 61
17, 66673, Control_c, 12, 11, 60
17, 66684, Control_c, 12, 11, 59
17, 66694, Control_c, 12, 11, 58
17, 66705, Control_c, 12, 11, 57
17, 66716, Control_c, 12, 11, 56
17, 66727, Control_c, 12, 11, 55
17, 66737, Control_c, 12, 11, 54
17, 66748, Control_c, 12, 11, 53
17, 66759, Control_c, 12, 11, 52
17, 66770, Control_c, 12, 11, 51
17, 66781, Control_c, 12, 11, 50
17, 66791, Control_c, 12, 11, 49
17, 66802, Control_c, 12, 11, 48
17, 66813, Control_c, 12, 11, 47
17, 66824, Control_c, 12, 11, 46
17, 66834, Control_c, 12, 11, 45
17, 66845, Control_c, 12, 11, 44
17, 66856, Control_c, 12, 11, 43
17, 66867, Control_c, 12, 11, 42
17, 66877, Control_c, 12, 11, 41
17, 66888, Control_c, 12, 11, 40
17, 66899, Control_c, 12, 11, 39
17, 66910, Control_c, 12, 11, 38
17, 66920, Control_c, 12, 11, 37
17, 66931, Control_c, 12, 11, 36
17, 66942, Control_c, 12, 11, 35
17, 66953, Control_c, 12, 11, 34
17, 66964, Control_c, 12, 11, 33
17, 66974, Control_c, 12, 11, 32
17, 66985, Control_c, 12, 11, 31
17, 66996, Control_c, 12, 11, 30
17, 67007, Control_c, 12, 11, 29
17, 67017, Control_c, 12, 11, 28
17, 67028, Control_c, 12, 11, 27
17, 67039, Control_c, 12, 11, 26
17, 67050, Control_c, 12, 11, 25
17, 67060, Control_c, 12, 11, 24
17, 67071, Control_c, 12, 11, 23
17, 67082, Control_c, 12, 11, 22
17, 67093, Control_c, 12, 11, 21
17, 67104, Control_c, 12, 11, 20
17, 67296, Note_on_c, 12, 82, 0
17, 67680, Program_c, 12, 45
17, 67680, Control_c, 12, 11, 127
17, 68064, Program_c, 12, 45
17, 68064, Note_on_c, 12, 62, 95
17, 68256, Note_on_c, 12, 62, 0
17, 68448, Note_on_c, 12, 62, 96
17, 68640, Note_on_c, 12, 62, 0
17, 69024, Note_on_c, 12, 62, 80
17, 69216, Note_on_c, 12, 62, 0
17, 69600, Note_on_c, 12, 62, 41
17, 69792, Note_on_c, 12, 62, 0
17, 71136, Program_c, 12, 44
17, 71136, Note_on_c, 12, 74, 28
17, 71328, Note_on_c, 12, 74, 0
17, 71328, Note_on_c, 12, 72, 35
17, 71520, Note_on_c, 12, 72, 0
17, 71520, Note_on_c, 12, 74, 25
17, 71712, Note_on_c, 12, 74, 0
17, 71712, Note_on_c, 12, 72, 28
17, 71904, Note_on_c, 12, 72, 0
17, 71904, Note_on_c, 12, 74, 25
17, 72096, Note_on_c, 12, 74, 0
17, 72096, Note_on_c, 12, 76, 33
17, 72288, Note_on_c, 12, 76, 0
17, 72288, Program_c, 12, 45
17, 72480, Note_on_c, 12, 62, 89
17, 72672, Note_on_c, 12, 62, 0
17, 73056, Note_on_c, 12, 62, 49
17, 73248, Note_on_c, 12, 62, 0
17, 74016, Program_c, 12, 48
17, 74592, Note_on_c, 12, 76, 27
17, 74616, Note_on_c, 12, 76, 0
17, 74616, Note_on_c, 12, 78, 26
17, 74640, Note_on_c, 12, 78, 0
17, 74640, Note_on_c, 12, 76, 25
17, 74664, Note_on_c, 12, 76, 0
17, 74664, Note_on_c, 12, 78, 29
17, 74688, Note_on_c, 12, 78, 0
17, 74688, Note_on_c, 12, 76, 35
17, 74712, Note_on_c, 12, 76, 0
17, 74712, Note_on_c, 12, 78, 29
17, 74736, Note_on_c, 12, 78, 0
17, 74736, Note_on_c, 12, 76, 26
17, 74760, Note_on_c, 12, 76, 0
17, 74760, Note_on_c, 12, 78, 32
17, 74784, Note_on_c, 12, 78, 0
17, 74784, Note_on_c, 12, 75, 25
17, 74808, Note_on_c, 12, 75, 0
17, 74808, Note_on_c, 12, 77, 33
17, 74832, Note_on_c, 12, 77, 0
17, 74832, Note_on_c, 12, 75, 35
17, 74856, Note_on_c, 12, 75, 0
17, 74856, Note_on_c, 12, 77, 32
17, 74880, Note_on_c, 12, 77, 0
17, 74880, Note_on_c, 12, 75, 32
17, 74904, Note_on_c, 12, 75, 0
17, 74904, Note_on_c, 12, 77, 34
17, 74928, Note_on_c, 12, 77, 0
17, 74928, Note_on_c, 12, 75, 26
17, 74952, Note_on_c, 12, 75, 0
17, 74952, Note_on_c, 12, 77, 33
17, 74976, Note_on_c, 12, 77, 0
17, 74976, Note_on_c, 12, 74, 25
17, 75008, Note_on_c, 12, 74, 0
17, 75072, Note_on_c, 12, 78, 25
17, 75104, Note_on_c, 12, 78, 0
17, 75168, Note_on_c, 12, 73, 30
17, 75264, Note_on_c, 12, 73, 0
17, 75360, Program_c, 12, 45
17, 75360, Note_on_c, 12, 65, 31
17, 75360, Note_on_c, 12, 73, 35
17, 75360, Note_on_c, 12, 81, 31
17, 75456, Note_on_c, 12, 65, 0
17, 75456, Note_on_c, 12, 73, 0
17, 75456, Note_on_c, 12, 81, 0
17, 75744, Program_c, 12, 48
17, 75744, Note_on_c, 12, 76, 31
17, 75768, Note_on_c, 12, 76, 0
17, 75768, Note_on_c, 12, 78, 31
17, 75792, Note_on_c, 12, 78, 0
17, 75792, Note_on_c, 12, 76, 28
17, 75816, Note_on_c, 12, 76, 0
17, 75816, Note_on_c, 12, 78, 35
17, 75840, Note_on_c, 12, 78, 0
17, 75840, Note_on_c, 12, 76, 31
17, 75864, Note_on_c, 12, 76, 0
17, 75864, Note_on_c, 12, 78, 30
17, 75888, Note_on_c, 12, 78, 0
17, 75888, Note_on_c, 12, 76, 34
17, 75912, Note_on_c, 12, 76, 0
17, 75912, Note_on_c, 12, 78, 31
17, 75936, Note_on_c, 12, 78, 0
17, 75936, Note_on_c, 12, 75, 26
17, 75960, Note_on_c, 12, 75, 0
17, 75960, Note_on_c, 12, 77, 33
17, 75984, Note_on_c, 12, 77, 0
17, 75984, Note_on_c, 12, 75, 34
17, 76008, Note_on_c, 12, 75, 0
17, 76008, Note_on_c, 12, 77, 26
17, 76032, Note_on_c, 12, 77, 0
17, 76032, Note_on_c, 12, 75, 25
17, 76056, Note_on_c, 12, 75, 0
17, 76056, Note_on_c, 12, 77, 29
17, 76080, Note_on_c, 12, 77, 0
17, 76080, Note_on_c, 12, 75, 29
17, 76104, Note_on_c, 12, 75, 0
17, 76104, Note_on_c, 12, 77, 27
17, 76128, Note_on_c, 12, 77, 0
17, 76128, Note_on_c, 12, 74, 25
17, 76160, Note_on_c, 12, 74, 0
17, 76224, Note_on_c, 12, 78, 27
17, 76256, Note_on_c, 12, 78, 0
17, 76320, Note_on_c, 12, 69, 32
17, 76320, Note_on_c, 12, 73, 32
17, 76352, Note_on_c, 12, 69, 0
17, 76352, Note_on_c, 12, 73, 0
17, 76416, Note_on_c, 12, 72, 32
17, 76416, Note_on_c, 12, 76, 29
17, 76448, Note_on_c, 12, 72, 0
17, 76448, Note_on_c, 12, 76, 0
17, 76448, Note_on_c, 12, 71, 35
17, 76448, Note_on_c, 12, 75, 32
17, 76480, Note_on_c, 12, 71, 0
17, 76480, Note_on_c, 12, 75, 0
17, 76480, Note_on_c, 12, 70, 30
17, 76480, Note_on_c, 12, 74, 25
17, 76512, Note_on_c, 12, 70, 0
17, 76512, Note_on_c, 12, 74, 0
17, 76512, Note_on_c, 12, 69, 26
17, 76512, Note_on_c, 12, 73, 27
17, 76544, Note_on_c, 12, 69, 0
17, 76544, Note_on_c, 12, 73, 0
17, 76896, Program_c, 12, 45
17, 76896, Note_on_c, 12, 67, 50
17, 76896, Note_on_c, 12, 72, 40
17, 76992, Note_on_c, 12, 67, 0
17, 76992, Note_on_c, 12, 72, 0
17, 76992, Note_on_c, 12, 64, 37
17, 76992, Note_on_c, 12, 67, 41
17, 77088, Note_on_c, 12, 64, 0
17, 77088, Note_on_c, 12, 67, 0
17, 77472, Program_c, 12, 48
17, 77472, Note_on_c, 12, 79, 27
17, 77504, Note_on_c, 12, 79, 0
17, 77504, Note_on_c, 12, 81, 28
17, 77536, Note_on_c, 12, 81, 0
17, 77536, Note_on_c, 12, 79, 32
17, 77568, Note_on_c, 12, 79, 0
17, 77568, Note_on_c, 12, 76, 28
17, 77600, Note_on_c, 12, 76, 0
17, 77600, Note_on_c, 12, 77, 24
17, 77632, Note_on_c, 12, 77, 0
17, 77632, Note_on_c, 12, 76, 31
17, 77664, Note_on_c, 12, 76, 0
17, 77664, Note_on_c, 12, 74, 30
17, 77696, Note_on_c, 12, 74, 0
17, 77696, Note_on_c, 12, 76, 25
17, 77728, Note_on_c, 12, 76, 0
17, 77728, Note_on_c, 12, 74, 21
17, 77760, Note_on_c, 12, 74, 0
17, 77760, Note_on_c, 12, 70, 28
17, 77792, Note_on_c, 12, 70, 0
17, 77792, Note_on_c, 12, 72, 26
17, 77824, Note_on_c, 12, 72, 0
17, 77824, Note_on_c, 12, 70, 24
17, 77856, Note_on_c, 12, 70, 0
17, 77856, Note_on_c, 12, 67, 23
17, 77952, Note_on_c, 12, 67, 0
17, 78048, Note_on_c, 12, 79, 26
17, 78080, Note_on_c, 12, 79, 0
17, 78080, Note_on_c, 12, 81, 28
17, 78112, Note_on_c, 12, 81, 0
17, 78112, Note_on_c, 12, 79, 33
17, 78144, Note_on_c, 12, 79, 0
17, 78144, Note_on_c, 12, 76, 29
17, 78176, Note_on_c, 12, 76, 0
17, 78176, Note_on_c, 12, 77, 28
17, 78208, Note_on_c, 12, 77, 0
17, 78208, Note_on_c, 12, 76, 24
17, 78240, Note_on_c, 12, 76, 0
17, 78240, Note_on_c, 12, 74, 30
17, 78272, Note_on_c, 12, 74, 0
17, 78272, Note_on_c, 12, 76, 21
17, 78304, Note_on_c, 12, 76, 0
17, 78304, Note_on_c, 12, 74, 26
17, 78336, Note_on_c, 12, 74, 0
17, 78336, Note_on_c, 12, 70, 23
17, 78368, Note_on_c, 12, 70, 0
17, 78368, Note_on_c, 12, 72, 24
17, 78400, Note_on_c, 12, 72, 0
17, 78400, Note_on_c, 12, 70, 26
17, 78432, Note_on_c, 12, 70, 0
17, 78432, Note_on_c, 12, 67, 22
17, 78528, Note_on_c, 12, 67, 0
17, 78624, Note_on_c, 12, 70, 30
17, 78624, Note_on_c, 12, 74, 30
17, 78624, Note_on_c, 12, 79, 35
17, 78656, Note_on_c, 12, 70, 0
17, 78656, Note_on_c, 12, 74, 0
17, 78656, Note_on_c, 12, 79, 0
17, 78656, Note_on_c, 12, 72, 33
17, 78656, Note_on_c, 12, 76, 25
17, 78656, Note_on_c, 12, 81, 35
17, 78688, Note_on_c, 12, 72, 0
17, 78688, Note_on_c, 12, 76, 0
17, 78688, Note_on_c, 12, 81, 0
17, 78688, Note_on_c, 12, 70, 25
17, 78688, Note_on_c, 12, 74, 25
17, 78688, Note_on_c, 12, 79, 33
17, 78720, Note_on_c, 12, 70, 0
17, 78720, Note_on_c, 12, 74, 0
17, 78720, Note_on_c, 12, 79, 0
17, 78720, Note_on_c, 12, 67, 32
17, 78720, Note_on_c, 12, 70, 34
17, 78720, Note_on_c, 12, 76, 32
17, 78752, Note_on_c, 12, 67, 0
17, 78752, Note_on_c, 12, 70, 0
17, 78752, Note_on_c, 12, 76, 0
17, 78752, Note_on_c, 12, 69, 24
17, 78752, Note_on_c, 12, 72, 27
17, 78752, Note_on_c, 12, 77, 28
17, 78784, Note_on_c, 12, 69, 0
17, 78784, Note_on_c, 12, 72, 0
17, 78784, Note_on_c, 12, 77, 0
17, 78784, Note_on_c, 12, 67, 27
17, 78784, Note_on_c, 12, 70, 28
17, 78784, Note_on_c, 12, 76, 29
17, 78816, Note_on_c, 12, 67, 0
17, 78816, Note_on_c, 12, 70, 0
17, 78816, Note_on_c, 12, 76, 0
17, 78816, Note_on_c, 12, 65, 22
17, 78816, Note_on_c, 12, 69, 24
17, 78816, Note_on_c, 12, 74, 29
17, 78848, Note_on_c, 12, 65, 0
17, 78848, Note_on_c, 12, 69, 0
17, 78848, Note_on_c, 12, 74, 0
17, 78848, Note_on_c, 12, 67, 22
17, 78848, Note_on_c, 12, 70, 21
17, 78848, Note_on_c, 12, 76, 21
17, 78880, Note_on_c, 12, 67, 0
17, 78880, Note_on_c, 12, 70, 0
17, 78880, Note_on_c, 12, 76, 0
17, 78880, Note_on_c, 12, 65, 28
17, 78880, Note_on_c, 12, 69, 26
17, 78880, Note_on_c, 12, 74, 26
17, 78912, Note_on_c, 12, 65, 0
17, 78912, Note_on_c, 12, 69, 0
17, 78912, Note_on_c, 12, 74, 0
17, 78912, Note_on_c, 12, 62, 27
17, 78912, Note_on_c, 12, 65, 25
17, 78912, Note_on_c, 12, 70, 21
17, 78944, Note_on_c, 12, 62, 0
17, 78944, Note_on_c, 12, 65, 0
17, 78944, Note_on_c, 12, 70, 0
17, 78944, Note_on_c, 12, 64, 26
17, 78944, Note_on_c, 12, 67, 27
17, 78944, Note_on_c, 12, 72, 21
17, 78976, Note_on_c, 12, 64, 0
17, 78976, Note_on_c, 12, 67, 0
17, 78976, Note_on_c, 12, 72, 0
17, 78976, Note_on_c, 12, 62, 18
17, 78976, Note_on_c, 12, 65, 26
17, 78976, Note_on_c, 12, 70, 24
17, 79008, Note_on_c, 12, 62, 0
17, 79008, Note_on_c, 12, 65, 0
17, 79008, Note_on_c, 12, 70, 0
17, 79008, Note_on_c, 12, 58, 19
17, 79008, Note_on_c, 12, 61, 20
17, 79008, Note_on_c, 12, 67, 25
17, 79104, Note_on_c, 12, 58, 0
17, 79104, Note_on_c, 12, 61, 0
17, 79104, Note_on_c, 12, 67, 0
17, 79200, Note_on_c, 12, 70, 43
17, 79200, Note_on_c, 12, 74, 44
17, 79200, Note_on_c, 12, 79, 42
17, 79232, Note_on_c, 12, 70, 0
17, 79232, Note_on_c, 12, 74, 0
17, 79232, Note_on_c, 12, 79, 0
17, 79232, Note_on_c, 12, 72, 46
17, 79232, Note_on_c, 12, 76, 47
17, 79232, Note_on_c, 12, 81, 43
17, 79264, Note_on_c, 12, 72, 0
17, 79264, Note_on_c, 12, 76, 0
17, 79264, Note_on_c, 12, 81, 0
17, 79264, Note_on_c, 12, 70, 48
17, 79264, Note_on_c, 12, 74, 45
17, 79264, Note_on_c, 12, 79, 43
17, 79296, Note_on_c, 12, 70, 0
17, 79296, Note_on_c, 12, 74, 0
17, 79296, Note_on_c, 12, 79, 0
17, 79296, Note_on_c, 12, 67, 47
17, 79296, Note_on_c, 12, 70, 42
17, 79296, Note_on_c, 12, 76, 42
17, 79328, Note_on_c, 12, 67, 0
17, 79328, Note_on_c, 12, 70, 0
17, 79328, Note_on_c, 12, 76, 0
17, 79328, Note_on_c, 12, 69, 37
17, 79328, Note_on_c, 12, 72, 37
17, 79328, Note_on_c, 12, 77, 42
17, 79360, Note_on_c, 12, 69, 0
17, 79360, Note_on_c, 12, 72, 0
17, 79360, Note_on_c, 12, 77, 0
17, 79360, Note_on_c, 12, 67, 37
17, 79360, Note_on_c, 12, 70, 39
17, 79360, Note_on_c, 12, 76, 46
17, 79392, Note_on_c, 12, 67, 0
17, 79392, Note_on_c, 12, 70, 0
17, 79392, Note_on_c, 12, 76, 0
17, 79392, Note_on_c, 12, 65, 40
17, 79392, Note_on_c, 12, 69, 35
17, 79392, Note_on_c, 12, 74, 38
17, 79424, Note_on_c, 12, 65, 0
17, 79424, Note_on_c, 12, 69, 0
17, 79424, Note_on_c, 12, 74, 0
17, 79424, Note_on_c, 12, 67, 39
17, 79424, Note_on_c, 12, 70, 42
17, 79424, Note_on_c, 12, 76, 44
17, 79456, Note_on_c, 12, 67, 0
17, 79456, Note_on_c, 12, 70, 0
17, 79456, Note_on_c, 12, 76, 0
17, 79456, Note_on_c, 12, 65, 39
17, 79456, Note_on_c, 12, 69, 33
17, 79456, Note_on_c, 12, 74, 34
17, 79488, Note_on_c, 12, 65, 0
17, 79488, Note_on_c, 12, 69, 0
17, 79488, Note_on_c, 12, 74, 0
17, 79488, Note_on_c, 12, 62, 38
17, 79488, Note_on_c, 12, 65, 41
17, 79488, Note_on_c, 12, 70, 32
17, 79520, Note_on_c, 12, 62, 0
17, 79520, Note_on_c, 12, 65, 0
17, 79520, Note_on_c, 12, 70, 0
17, 79520, Note_on_c, 12, 64, 35
17, 79520, Note_on_c, 12, 67, 31
17, 79520, Note_on_c, 12, 72, 37
17, 79552, Note_on_c, 12, 64, 0
17, 79552, Note_on_c, 12, 67, 0
17, 79552, Note_on_c, 12, 72, 0
17, 79552, Note_on_c, 12, 62, 33
17, 79552, Note_on_c, 12, 65, 31
17, 79552, Note_on_c, 12, 70, 32
17, 79584, Note_on_c, 12, 62, 0
17, 79584, Note_on_c, 12, 65, 0
17, 79584, Note_on_c, 12, 70, 0
17, 79584, Note_on_c, 12, 58, 31
17, 79584, Note_on_c, 12, 61, 25
17, 79584, Note_on_c, 12, 67, 31
17, 79680, Note_on_c, 12, 58, 0
17, 79680, Note_on_c, 12, 61, 0
17, 79680, Note_on_c, 12, 67, 0
17, 79776, Note_on_c, 12, 70, 47
17, 79776, Note_on_c, 12, 74, 46
17, 79776, Note_on_c, 12, 79, 47
17, 79808, Note_on_c, 12, 70, 0
17, 79808, Note_on_c, 12, 74, 0
17, 79808, Note_on_c, 12, 79, 0
17, 79808, Note_on_c, 12, 72, 44
17, 79808, Note_on_c, 12, 76, 49
17, 79808, Note_on_c, 12, 81, 46
17, 79840, Note_on_c, 12, 72, 0
17, 79840, Note_on_c, 12, 76, 0
17, 79840, Note_on_c, 12, 81, 0
17, 79840, Note_on_c, 12, 70, 50
17, 79840, Note_on_c, 12, 74, 51
17, 79840, Note_on_c, 12, 79, 42
17, 79872, Note_on_c, 12, 70, 0
17, 79872, Note_on_c, 12, 74, 0
17, 79872, Note_on_c, 12, 79, 0
17, 79872, Note_on_c, 12, 67, 50
17, 79872, Note_on_c, 12, 70, 47
17, 79872, Note_on_c, 12, 76, 52
17, 79904, Note_on_c, 12, 67, 0
17, 79904, Note_on_c, 12, 70, 0
17, 79904, Note_on_c, 12, 76, 0
17, 79904, Note_on_c, 12, 69, 49
17, 79904, Note_on_c, 12, 72, 52
17, 79904, Note_on_c, 12, 77, 46
17, 79936, Note_on_c, 12, 69, 0
17, 79936, Note_on_c, 12, 72, 0
17, 79936, Note_on_c, 12, 77, 0
17, 79936, Note_on_c, 12, 67, 51
17, 79936, Note_on_c, 12, 70, 54
17, 79936, Note_on_c, 12, 76, 48
17, 79968, Note_on_c, 12, 67, 0
17, 79968, Note_on_c, 12, 70, 0
17, 79968, Note_on_c, 12, 76, 0
17, 79968, Note_on_c, 12, 65, 50
17, 79968, Note_on_c, 12, 69, 49
17, 79968, Note_on_c, 12, 74, 54
17, 80000, Note_on_c, 12, 65, 0
17, 80000, Note_on_c, 12, 69, 0
17, 80000, Note_on_c, 12, 74, 0
17, 80000, Note_on_c, 12, 67, 51
17, 80000, Note_on_c, 12, 70, 51
17, 80000, Note_on_c, 12, 76, 55
17, 80032, Note_on_c, 12, 67, 0
17, 80032, Note_on_c, 12, 70, 0
17, 80032, Note_on_c, 12, 76, 0
17, 80032, Note_on_c, 12, 65, 47
17, 80032, Note_on_c, 12, 69, 56
17, 80032, Note_on_c, 12, 74, 57
17, 80064, Note_on_c, 12, 65, 0
17, 80064, Note_on_c, 12, 69, 0
17, 80064, Note_on_c, 12, 74, 0
17, 80064, Note_on_c, 12, 62, 55
17, 80064, Note_on_c, 12, 65, 53
17, 80064, Note_on_c, 12, 70, 52
17, 80096, Note_on_c, 12, 62, 0
17, 80096, Note_on_c, 12, 65, 0
17, 80096, Note_on_c, 12, 70, 0
17, 80096, Note_on_c, 12, 64, 57
17, 80096, Note_on_c, 12, 67, 59
17, 80096, Note_on_c, 12, 72, 53
17, 80128, Note_on_c, 12, 64, 0
17, 80128, Note_on_c, 12, 67, 0
17, 80128, Note_on_c, 12, 72, 0
17, 80128, Note_on_c, 12, 62, 58
17, 80128, Note_on_c, 12, 65, 55
17, 80128, Note_on_c, 12, 70, 51
17, 80160, Note_on_c, 12, 62, 0
17, 80160, Note_on_c, 12, 65, 0
17, 80160, Note_on_c, 12, 70, 0
17, 80160, Note_on_c, 12, 58, 57
17, 80160, Note_on_c, 12, 61, 60
17, 80160, Note_on_c, 12, 67, 53
17, 80256, Note_on_c, 12, 58, 0
17, 80256, Note_on_c, 12, 61, 0
17, 80256, Note_on_c, 12, 67, 0
17, 80352, Note_on_c, 12, 70, 62
17, 80352, Note_on_c, 12, 74, 63
17, 80352, Note_on_c, 12, 79, 64
17, 80384, Note_on_c, 12, 70, 0
17, 80384, Note_on_c, 12, 74, 0
17, 80384, Note_on_c, 12, 79, 0
17, 80384, Note_on_c, 12, 72, 64
17, 80384, Note_on_c, 12, 76, 61
17, 80384, Note_on_c, 12, 81, 63
17, 80416, Note_on_c, 12, 72, 0
17, 80416, Note_on_c, 12, 76, 0
17, 80416, Note_on_c, 12, 81, 0
17, 80416, Note_on_c, 12, 70, 61
17, 80416, Note_on_c, 12, 74, 69
17, 80416, Note_on_c, 12, 79, 61
17, 80448, Note_on_c, 12, 70, 0
17, 80448, Note_on_c, 12, 74, 0
17, 80448, Note_on_c, 12, 79, 0
17, 80448, Note_on_c, 12, 67, 68
17, 80448, Note_on_c, 12, 70, 67
17, 80448, Note_on_c, 12, 76, 67
17, 80480, Note_on_c, 12, 67, 0
17, 80480, Note_on_c, 12, 70, 0
17, 80480, Note_on_c, 12, 76, 0
17, 80480, Note_on_c, 12, 69, 72
17, 80480, Note_on_c, 12, 72, 67
17, 80480, Note_on_c, 12, 77, 71
17, 80512, Note_on_c, 12, 69, 0
17, 80512, Note_on_c, 12, 72, 0
17, 80512, Note_on_c, 12, 77, 0
17, 80512, Note_on_c, 12, 67, 74
17, 80512, Note_on_c, 12, 70, 68
17, 80512, Note_on_c, 12, 76, 73
17, 80544, Note_on_c, 12, 67, 0
17, 80544, Note_on_c, 12, 70, 0
17, 80544, Note_on_c, 12, 76, 0
17, 80544, Note_on_c, 12, 65, 74
17, 80544, Note_on_c, 12, 69, 66
17, 80544, Note_on_c, 12, 74, 66
17, 80576, Note_on_c, 12, 65, 0
17, 80576, Note_on_c, 12, 69, 0
17, 80576, Note_on_c, 12, 74, 0
17, 80576, Note_on_c, 12, 67, 68
17, 80576, Note_on_c, 12, 70, 70
17, 80576, Note_on_c, 12, 76, 76
17, 80608, Note_on_c, 12, 67, 0
17, 80608, Note_on_c, 12, 70, 0
17, 80608, Note_on_c, 12, 76, 0
17, 80608, Note_on_c, 12, 65, 75
17, 80608, Note_on_c, 12, 69, 70
17, 80608, Note_on_c, 12, 74, 74
17, 80640, Note_on_c, 12, 65, 0
17, 80640, Note_on_c, 12, 69, 0
17, 80640, Note_on_c, 12, 74, 0
17, 80640, Note_on_c, 12, 62, 70
17, 80640, Note_on_c, 12, 65, 70
17, 80640, Note_on_c, 12, 70, 71
17, 80672, Note_on_c, 12, 62, 0
17, 80672, Note_on_c, 12, 65, 0
17, 80672, Note_on_c, 12, 70, 0
17, 80672, Note_on_c, 12, 64, 72
17, 80672, Note_on_c, 12, 67, 78
17, 80672, Note_on_c, 12, 72, 72
17, 80704, Note_on_c, 12, 64, 0
17, 80704, Note_on_c, 12, 67, 0
17, 80704, Note_on_c, 12, 72, 0
17, 80704, Note_on_c, 12, 62, 82
17, 80704, Note_on_c, 12, 65, 77
17, 80704, Note_on_c, 12, 70, 77
17, 80736, Note_on_c, 12, 62, 0
17, 80736, Note_on_c, 12, 65, 0
17, 80736, Note_on_c, 12, 70, 0
17, 80736, Note_on_c, 12, 58, 78
17, 80736, Note_on_c, 12, 61, 82
17, 80736, Note_on_c, 12, 67, 76
17, 80832, Note_on_c, 12, 58, 0
17, 80832, Note_on_c, 12, 61, 0
17, 80832, Note_on_c, 12, 67, 0
17, 80928, Note_on_c, 12, 80, 94
17, 80952, Note_on_c, 12, 80, 0
17, 80952, Note_on_c, 12, 81, 91
17, 80976, Note_on_c, 12, 81, 0
17, 80976, Note_on_c, 12, 80, 97
17, 81000, Note_on_c, 12, 80, 0
17, 81000, Note_on_c, 12, 81, 87
17, 81024, Note_on_c, 12, 81, 0
17, 81024, Note_on_c, 12, 80, 95
17, 81048, Note_on_c, 12, 80, 0
17, 81048, Note_on_c, 12, 81, 93
17, 81072, Note_on_c, 12, 81, 0
17, 81072, Note_on_c, 12, 80, 89
17, 81096, Note_on_c, 12, 80, 0
17, 81096, Note_on_c, 12, 81, 93
17, 81120, Note_on_c, 12, 81, 0
17, 81120, Note_on_c, 12, 80, 90
17, 81144, Note_on_c, 12, 80, 0
17, 81144, Note_on_c, 12, 81, 94
17, 81168, Note_on_c, 12, 81, 0
17, 81168, Note_on_c, 12, 80, 96
17, 81192, Note_on_c, 12, 80, 0
17, 81192, Note_on_c, 12, 81, 96
17, 81216, Note_on_c, 12, 81, 0
17, 81216, Note_on_c, 12, 80, 92
17, 81240, Note_on_c, 12, 80, 0
17, 81240, Note_on_c, 12, 81, 89
17, 81264, Note_on_c, 12, 81, 0
17, 81264, Note_on_c, 12, 80, 94
17, 81288, Note_on_c, 12, 80, 0
17, 81288, Note_on_c, 12, 81, 95
17, 81312, Note_on_c, 12, 81, 0
17, 81312, Note_on_c, 12, 80, 93
17, 81336, Note_on_c, 12, 80, 0
17, 81336, Note_on_c, 12, 81, 89
17, 81360, Note_on_c, 12, 81, 0
17, 81360, Note_on_c, 12, 80, 88
17, 81384, Note_on_c, 12, 80, 0
17, 81384, Note_on_c, 12, 81, 96
17, 81408, Note_on_c, 12, 81, 0
17, 81408, Note_on_c, 12, 80, 92
17, 81432, Note_on_c, 12, 80, 0
17, 81432, Note_on_c, 12, 81, 95
17, 81456, Note_on_c, 12, 81, 0
17, 81456, Note_on_c, 12, 80, 87
17, 81480, Note_on_c, 12, 80, 0
17, 81480, Note_on_c, 12, 81, 97
17, 81504, Note_on_c, 12, 81, 0
17, 81504, Note_on_c, 12, 80, 97
17, 81528, Note_on_c, 12, 80, 0
17, 81528, Note_on_c, 12, 81, 97
17, 81552, Note_on_c, 12, 81, 0
17, 81552, Note_on_c, 12, 80, 97
17, 81576, Note_on_c, 12, 80, 0
17, 81576, Note_on_c, 12, 81, 97
17, 81600, Note_on_c, 12, 81, 0
17, 81600, Note_on_c, 12, 80, 87
17, 81624, Note_on_c, 12, 80, 0
17, 81624, Note_on_c, 12, 81, 87
17, 81648, Note_on_c, 12, 81, 0
17, 81648, Note_on_c, 12, 80, 96
17, 81672, Note_on_c, 12, 80, 0
17, 81672, Note_on_c, 12, 81, 91
17, 81696, Note_on_c, 12, 81, 0
17, 81696, Note_on_c, 12, 80, 94
17, 81720, Note_on_c, 12, 80, 0
17, 81720, Note_on_c, 12, 81, 96
17, 81744, Note_on_c, 12, 81, 0
17, 81744, Note_on_c, 12, 80, 98
17, 81768, Note_on_c, 12, 80, 0
17, 81768, Note_on_c, 12, 81, 95
17, 81792, Note_on_c, 12, 81, 0
17, 81792, Note_on_c, 12, 80, 99
17, 81816, Note_on_c, 12, 80, 0
17, 81816, Note_on_c, 12, 81, 95
17, 81840, Note_on_c, 12, 81, 0
17, 81840, Note_on_c, 12, 80, 96
17, 81864, Note_on_c, 12, 80, 0
17, 81864, Note_on_c, 12, 81, 100
17, 81888, Note_on_c, 12, 81, 0
17, 81888, Note_on_c, 12, 80, 102
17, 81912, Note_on_c, 12, 80, 0
17, 81912, Note_on_c, 12, 81, 103
17, 81936, Note_on_c, 12, 81, 0
17, 81936, Note_on_c, 12, 80, 106
17, 81960, Note_on_c, 12, 80, 0
17, 81960, Note_on_c, 12, 81, 101
17, 81984, Note_on_c, 12, 81, 0
17, 81984, Note_on_c, 12, 80, 103
17, 82008, Note_on_c, 12, 80, 0
17, 82008, Note_on_c, 12, 81, 103
17, 82032, Note_on_c, 12, 81, 0
17, 82032, Note_on_c, 12, 80, 108
17, 82056, Note_on_c, 12, 80, 0
17, 82056, Note_on_c, 12, 81, 109
17, 82080, Note_on_c, 12, 81, 0
17, 82080, Note_on_c, 12, 80, 112
17, 82104, Note_on_c, 12, 80, 0
17, 82104, Note_on_c, 12, 82, 104
17, 82128, Note_on_c, 12, 82, 0
17, 82128, Note_on_c, 12, 80, 110
17, 82152, Note_on_c, 12, 80, 0
17, 82152, Note_on_c, 12, 82, 109
17, 82176, Note_on_c, 12, 82, 0
17, 82176, Note_on_c, 12, 80, 105
17, 82200, Note_on_c, 12, 80, 0
17, 82200, Note_on_c, 12, 82, 108
17, 82224, Note_on_c, 12, 82, 0
17, 82224, Note_on_c, 12, 80, 112
17, 82248, Note_on_c, 12, 80, 0
17, 82248, Note_on_c, 12, 82, 103
17, 82272, Note_on_c, 12, 82, 0
17, 82272, Note_on_c, 12, 80, 113
17, 82296, Note_on_c, 12, 80, 0
17, 82296, Note_on_c, 12, 82, 104
17, 82320, Note_on_c, 12, 82, 0
17, 82320, Note_on_c, 12, 80, 111
17, 82344, Note_on_c, 12, 80, 0
17, 82344, Note_on_c, 12, 82, 107
17, 82368, Note_on_c, 12, 82, 0
17, 82368, Note_on_c, 12, 80, 109
17, 82392, Note_on_c, 12, 80, 0
17, 82392, Note_on_c, 12, 82, 106
17, 82416, Note_on_c, 12, 82, 0
17, 82416, Note_on_c, 12, 80, 111
17, 82440, Note_on_c, 12, 80, 0
17, 82440, Note_on_c, 12, 82, 109
17, 82464, Note_on_c, 12, 82, 0
17, 82464, Note_on_c, 12, 80, 105
17, 82488, Note_on_c, 12, 80, 0
17, 82488, Note_on_c, 12, 82, 109
17, 82512, Note_on_c, 12, 82, 0
17, 82512, Note_on_c, 12, 80, 108
17, 82536, Note_on_c, 12, 80, 0
17, 82536, Note_on_c, 12, 82, 111
17, 82560, Note_on_c, 12, 82, 0
17, 82560, Note_on_c, 12, 80, 104
17, 82584, Note_on_c, 12, 80, 0
17, 82584, Note_on_c, 12, 82, 104
17, 82608, Note_on_c, 12, 82, 0
17, 82608, Note_on_c, 12, 80, 113
17, 82632, Note_on_c, 12, 80, 0
17, 82632, Note_on_c, 12, 82, 103
17, 82656, Note_on_c, 12, 82, 0
17, 82656, Note_on_c, 12, 80, 111
17, 82680, Note_on_c, 12, 80, 0
17, 82680, Note_on_c, 12, 82, 112
17, 82704, Note_on_c, 12, 82, 0
17, 82704, Note_on_c, 12, 80, 105
17, 82728, Note_on_c, 12, 80, 0
17, 82728, Note_on_c, 12, 82, 111
17, 82752, Note_on_c, 12, 82, 0
17, 82752, Note_on_c, 12, 80, 110
17, 82776, Note_on_c, 12, 80, 0
17, 82776, Note_on_c, 12, 82, 109
17, 82800, Note_on_c, 12, 82, 0
17, 82800, Note_on_c, 12, 80, 105
17, 82824, Note_on_c, 12, 80, 0
17, 82824, Note_on_c, 12, 82, 108
17, 82848, Note_on_c, 12, 82, 0
17, 82848, Note_on_c, 12, 80, 107
17, 82872, Note_on_c, 12, 80, 0
17, 82872, Note_on_c, 12, 82, 111
17, 82896, Note_on_c, 12, 82, 0
17, 82896, Note_on_c, 12, 80, 113
17, 82920, Note_on_c, 12, 80, 0
17, 82920, Note_on_c, 12, 82, 106
17, 82944, Note_on_c, 12, 82, 0
17, 82944, Note_on_c, 12, 80, 104
17, 82968, Note_on_c, 12, 80, 0
17, 82968, Note_on_c, 12, 82, 109
17, 82992, Note_on_c, 12, 82, 0
17, 82992, Note_on_c, 12, 80, 104
17, 83016, Note_on_c, 12, 80, 0
17, 83016, Note_on_c, 12, 82, 105
17, 83040, Note_on_c, 12, 82, 0
17, 83040, Note_on_c, 12, 80, 106
17, 83064, Note_on_c, 12, 80, 0
17, 83064, Note_on_c, 12, 82, 105
17, 83088, Note_on_c, 12, 82, 0
17, 83088, Note_on_c, 12, 80, 113
17, 83112, Note_on_c, 12, 80, 0
17, 83112, Note_on_c, 12, 82, 111
17, 83136, Note_on_c, 12, 82, 0
17, 83136, Note_on_c, 12, 80, 110
17, 83160, Note_on_c, 12, 80, 0
17, 83160, Note_on_c, 12, 82, 108
17, 83184, Note_on_c, 12, 82, 0
17, 83184, Note_on_c, 12, 78, 107
17, 83208, Note_on_c, 12, 78, 0
17, 83208, Note_on_c, 12, 80, 103
17, 83232, Note_on_c, 12, 80, 0
17, 83232, Note_on_c, 12, 80, 90
17, 83256, Note_on_c, 12, 80, 0
17, 83256, Note_on_c, 12, 81, 96
17, 83280, Note_on_c, 12, 81, 0
17, 83280, Note_on_c, 12, 80, 87
17, 83304, Note_on_c, 12, 80, 0
17, 83304, Note_on_c, 12, 81, 93
17, 83328, Note_on_c, 12, 81, 0
17, 83328, Note_on_c, 12, 80, 93
17, 83352, Note_on_c, 12, 80, 0
17, 83352, Note_on_c, 12, 81, 93
17, 83376, Note_on_c, 12, 81, 0
17, 83376, Note_on_c, 12, 80, 90
17, 83400, Note_on_c, 12, 80, 0
17, 83400, Note_on_c, 12, 81, 87
17, 83424, Note_on_c, 12, 81, 0
17, 83424, Note_on_c, 12, 80, 89
17, 83448, Note_on_c, 12, 80, 0
17, 83448, Note_on_c, 12, 81, 89
17, 83472, Note_on_c, 12, 81, 0
17, 83472, Note_on_c, 12, 80, 97
17, 83496, Note_on_c, 12, 80, 0
17, 83496, Note_on_c, 12, 81, 88
17, 83520, Note_on_c, 12, 81, 0
17, 83520, Note_on_c, 12, 80, 92
17, 83544, Note_on_c, 12, 80, 0
17, 83544, Note_on_c, 12, 81, 88
17, 83568, Note_on_c, 12, 81, 0
17, 83568, Note_on_c, 12, 80, 93
17, 83592, Note_on_c, 12, 80, 0
17, 83592, Note_on_c, 12, 81, 94
17, 83616, Note_on_c, 12, 81, 0
17, 83616, Note_on_c, 12, 80, 88
17, 83640, Note_on_c, 12, 80, 0
17, 83640, Note_on_c, 12, 81, 93
17, 83664, Note_on_c, 12, 81, 0
17, 83664, Note_on_c, 12, 80, 93
17, 83688, Note_on_c, 12, 80, 0
17, 83688, Note_on_c, 12, 81, 91
17, 83712, Note_on_c, 12, 81, 0
17, 83712, Note_on_c, 12, 80, 90
17, 83736, Note_on_c, 12, 80, 0
17, 83736, Note_on_c, 12, 81, 90
17, 83760, Note_on_c, 12, 81, 0
17, 83760, Note_on_c, 12, 80, 96
17, 83784, Note_on_c, 12, 80, 0
17, 83784, Note_on_c, 12, 81, 96
17, 83808, Note_on_c, 12, 81, 0
17, 83808, Note_on_c, 12, 80, 94
17, 83832, Note_on_c, 12, 80, 0
17, 83832, Note_on_c, 12, 81, 92
17, 83856, Note_on_c, 12, 81, 0
17, 83856, Note_on_c, 12, 80, 96
17, 83880, Note_on_c, 12, 80, 0
17, 83880, Note_on_c, 12, 81, 87
17, 83904, Note_on_c, 12, 81, 0
17, 83904, Note_on_c, 12, 80, 87
17, 83928, Note_on_c, 12, 80, 0
17, 83928, Note_on_c, 12, 81, 95
17, 83952, Note_on_c, 12, 81, 0
17, 83952, Note_on_c, 12, 80, 88
17, 83976, Note_on_c, 12, 80, 0
17, 83976, Note_on_c, 12, 81, 87
17, 84000, Note_on_c, 12, 81, 0
17, 84000, Note_on_c, 12, 80, 92
17, 84024, Note_on_c, 12, 80, 0
17, 84024, Note_on_c, 12, 81, 98
17, 84048, Note_on_c, 12, 81, 0
17, 84048, Note_on_c, 12, 80, 97
17, 84072, Note_on_c, 12, 80, 0
17, 84072, Note_on_c, 12, 81, 91
17, 84096, Note_on_c, 12, 81, 0
17, 84096, Note_on_c, 12, 80, 100
17, 84120, Note_on_c, 12, 80, 0
17, 84120, Note_on_c, 12, 81, 100
17, 84144, Note_on_c, 12, 81, 0
17, 84144, Note_on_c, 12, 80, 100
17, 84168, Note_on_c, 12, 80, 0
17, 84168, Note_on_c, 12, 81, 99
17, 84192, Note_on_c, 12, 81, 0
17, 84192, Note_on_c, 12, 80, 99
17, 84216, Note_on_c, 12, 80, 0
17, 84216, Note_on_c, 12, 81, 96
17, 84240, Note_on_c, 12, 81, 0
17, 84240, Note_on_c, 12, 80, 102
17, 84264, Note_on_c, 12, 80, 0
17, 84264, Note_on_c, 12, 81, 103
17, 84288, Note_on_c, 12, 81, 0
17, 84288, Note_on_c, 12, 80, 104
17, 84312, Note_on_c, 12, 80, 0
17, 84312, Note_on_c, 12, 81, 101
17, 84336, Note_on_c, 12, 81, 0
17, 84336, Note_on_c, 12, 80, 111
17, 84360, Note_on_c, 12, 80, 0
17, 84360, Note_on_c, 12, 81, 105
17, 84384, Note_on_c, 12, 81, 0
17, 84384, Note_on_c, 12, 80, 107
17, 84408, Note_on_c, 12, 80, 0
17, 84408, Note_on_c, 12, 82, 113
17, 84432, Note_on_c, 12, 82, 0
17, 84432, Note_on_c, 12, 80, 103
17, 84456, Note_on_c, 12, 80, 0
17, 84456, Note_on_c, 12, 82, 110
17, 84480, Note_on_c, 12, 82, 0
17, 84480, Note_on_c, 12, 80, 105
17, 84504, Note_on_c, 12, 80, 0
17, 84504, Note_on_c, 12, 82, 104
17, 84528, Note_on_c, 12, 82, 0
17, 84528, Note_on_c, 12, 80, 111
17, 84552, Note_on_c, 12, 80, 0
17, 84552, Note_on_c, 12, 82, 104
17, 84576, Note_on_c, 12, 82, 0
17, 84576, Note_on_c, 12, 80, 106
17, 84600, Note_on_c, 12, 80, 0
17, 84600, Note_on_c, 12, 82, 107
17, 84624, Note_on_c, 12, 82, 0
17, 84624, Note_on_c, 12, 80, 105
17, 84648, Note_on_c, 12, 80, 0
17, 84648, Note_on_c, 12, 82, 104
17, 84672, Note_on_c, 12, 82, 0
17, 84672, Note_on_c, 12, 80, 112
17, 84696, Note_on_c, 12, 80, 0
17, 84696, Note_on_c, 12, 82, 105
17, 84720, Note_on_c, 12, 82, 0
17, 84720, Note_on_c, 12, 80, 103
17, 84744, Note_on_c, 12, 80, 0
17, 84744, Note_on_c, 12, 82, 108
17, 84768, Note_on_c, 12, 82, 0
17, 84768, Note_on_c, 12, 80, 107
17, 84792, Note_on_c, 12, 80, 0
17, 84792, Note_on_c, 12, 82, 110
17, 84816, Note_on_c, 12, 82, 0
17, 84816, Note_on_c, 12, 80, 103
17, 84840, Note_on_c, 12, 80, 0
17, 84840, Note_on_c, 12, 82, 112
17, 84864, Note_on_c, 12, 82, 0
17, 84864, Note_on_c, 12, 80, 105
17, 84888, Note_on_c, 12, 80, 0
17, 84888, Note_on_c, 12, 82, 106
17, 84912, Note_on_c, 12, 82, 0
17, 84912, Note_on_c, 12, 80, 108
17, 84936, Note_on_c, 12, 80, 0
17, 84936, Note_on_c, 12, 82, 109
17, 84960, Note_on_c, 12, 82, 0
17, 84960, Note_on_c, 12, 80, 110
17, 84984, Note_on_c, 12, 80, 0
17, 84984, Note_on_c, 12, 82, 106
17, 85008, Note_on_c, 12, 82, 0
17, 85008, Note_on_c, 12, 80, 104
17, 85032, Note_on_c, 12, 80, 0
17, 85032, Note_on_c, 12, 82, 103
17, 85056, Note_on_c, 12, 82, 0
17, 85056, Note_on_c, 12, 80, 107
17, 85080, Note_on_c, 12, 80, 0
17, 85080, Note_on_c, 12, 82, 112
17, 85104, Note_on_c, 12, 82, 0
17, 85104, Note_on_c, 12, 80, 109
17, 85128, Note_on_c, 12, 80, 0
17, 85128, Note_on_c, 12, 82, 105
17, 85152, Note_on_c, 12, 82, 0
17, 85152, Note_on_c, 12, 80, 111
17, 85176, Note_on_c, 12, 80, 0
17, 85176, Note_on_c, 12, 82, 106
17, 85200, Note_on_c, 12, 82, 0
17, 85200, Note_on_c, 12, 80, 106
17, 85224, Note_on_c, 12, 80, 0
17, 85224, Note_on_c, 12, 82, 103
17, 85248, Note_on_c, 12, 82, 0
17, 85248, Note_on_c, 12, 80, 110
17, 85272, Note_on_c, 12, 80, 0
17, 85272, Note_on_c, 12, 82, 104
17, 85296, Note_on_c, 12, 82, 0
17, 85296, Note_on_c, 12, 80, 113
17, 85320, Note_on_c, 12, 80, 0
17, 85320, Note_on_c, 12, 82, 111
17, 85344, Note_on_c, 12, 82, 0
17, 85344, Note_on_c, 12, 80, 109
17, 85368, Note_on_c, 12, 80, 0
17, 85368, Note_on_c, 12, 82, 106
17, 85392, Note_on_c, 12, 82, 0
17, 85392, Note_on_c, 12, 80, 110
17, 85416, Note_on_c, 12, 80, 0
17, 85416, Note_on_c, 12, 82, 110
17, 85440, Note_on_c, 12, 82, 0
17, 85440, Note_on_c, 12, 80, 110
17, 85464, Note_on_c, 12, 80, 0
17, 85464, Note_on_c, 12, 82, 104
17, 85488, Note_on_c, 12, 82, 0
17, 85488, Note_on_c, 12, 80, 109
17, 85512, Note_on_c, 12, 80, 0
17, 85512, Note_on_c, 12, 82, 104
17, 85536, Note_on_c, 12, 82, 0
17, 85536, Note_on_c, 12, 80, 112
17, 85560, Note_on_c, 12, 80, 0
17, 85560, Note_on_c, 12, 82, 107
17, 85584, Note_on_c, 12, 82, 0
17, 85584, Note_on_c, 12, 80, 105
17, 85608, Note_on_c, 12, 80, 0
17, 85608, Note_on_c, 12, 82, 102
17, 85632, Note_on_c, 12, 82, 0
17, 85632, Note_on_c, 12, 80, 107
17, 85656, Note_on_c, 12, 80, 0
17, 85656, Note_on_c, 12, 82, 104
17, 85680, Note_on_c, 12, 82, 0
17, 85680, Note_on_c, 12, 80, 96
17, 85704, Note_on_c, 12, 80, 0
17, 85704, Note_on_c, 12, 82, 99
17, 85728, Note_on_c, 12, 82, 0
17, 85728, Note_on_c, 12, 80, 90
17, 85752, Note_on_c, 12, 80, 0
17, 85752, Note_on_c, 12, 82, 89
17, 85776, Note_on_c, 12, 82, 0
17, 85776, Note_on_c, 12, 80, 90
17, 85800, Note_on_c, 12, 80, 0
17, 85800, Note_on_c, 12, 82, 88
17, 85824, Note_on_c, 12, 82, 0
17, 85824, Note_on_c, 12, 80, 85
17, 85848, Note_on_c, 12, 80, 0
17, 85848, Note_on_c, 12, 82, 83
17, 85872, Note_on_c, 12, 82, 0
17, 85872, Note_on_c, 12, 80, 77
17, 85896, Note_on_c, 12, 80, 0
17, 85896, Note_on_c, 12, 82, 83
17, 85920, Note_on_c, 12, 82, 0
17, 85920, Note_on_c, 12, 80, 74
17, 85944, Note_on_c, 12, 80, 0
17, 85944, Note_on_c, 12, 82, 79
17, 85968, Note_on_c, 12, 82, 0
17, 85968, Note_on_c, 12, 80, 77
17, 85992, Note_on_c, 12, 80, 0
17, 85992, Note_on_c, 12, 82, 74
17, 86016, Note_on_c, 12, 82, 0
17, 86016, Note_on_c, 12, 80, 65
17, 86040, Note_on_c, 12, 80, 0
17, 86040, Note_on_c, 12, 82, 69
17, 86064, Note_on_c, 12, 82, 0
17, 86064, Note_on_c, 12, 80, 65
17, 86088, Note_on_c, 12, 80, 0
17, 86088, Note_on_c, 12, 82, 63
17, 86112, Note_on_c, 12, 82, 0
17, 86112, Note_on_c, 12, 80, 61
17, 86136, Note_on_c, 12, 80, 0
17, 86136, Note_on_c, 12, 82, 62
17, 86160, Note_on_c, 12, 82, 0
17, 86160, Note_on_c, 12, 80, 63
17, 86184, Note_on_c, 12, 80, 0
17, 86184, Note_on_c, 12, 82, 54
17, 86208, Note_on_c, 12, 82, 0
17, 86208, Note_on_c, 12, 80, 54
17, 86232, Note_on_c, 12, 80, 0
17, 86232, Note_on_c, 12, 82, 50
17, 86256, Note_on_c, 12, 82, 0
17, 86256, Note_on_c, 12, 80, 47
17, 86280, Note_on_c, 12, 80, 0
17, 86280, Note_on_c, 12, 82, 46
17, 86304, Note_on_c, 12, 82, 0
17, 86304, Note_on_c, 12, 80, 47
17, 86400, Note_on_c, 12, 80, 0
17, 86688, Note_on_c, 12, 68, 26
17, 86720, Note_on_c, 12, 68, 0
17, 86736, Note_on_c, 12, 68, 28
17, 86768, Note_on_c, 12, 68, 0
17, 86784, Note_on_c, 12, 67, 27
17, 86816, Note_on_c, 12, 67, 0
17, 86832, Note_on_c, 12, 67, 26
17, 86864, Note_on_c, 12, 67, 0
17, 86880, Note_on_c, 12, 66, 28
17, 86912, Note_on_c, 12, 66, 0
17, 86928, Note_on_c, 12, 66, 32
17, 86960, Note_on_c, 12, 66, 0
17, 86976, Note_on_c, 12, 65, 33
17, 87008, Note_on_c, 12, 65, 0
17, 87024, Note_on_c, 12, 65, 33
17, 87056, Note_on_c, 12, 65, 0
17, 87072, Note_on_c, 12, 64, 32
17, 87104, Note_on_c, 12, 64, 0
17, 87120, Note_on_c, 12, 64, 26
17, 87152, Note_on_c, 12, 64, 0
17, 87168, Note_on_c, 12, 67, 30
17, 87200, Note_on_c, 12, 67, 0
17, 87216, Note_on_c, 12, 67, 28
17, 87248, Note_on_c, 12, 67, 0
17, 87264, Note_on_c, 12, 68, 33
17, 87296, Note_on_c, 12, 68, 0
17, 87312, Note_on_c, 12, 68, 31
17, 87344, Note_on_c, 12, 68, 0
17, 87360, Note_on_c, 12, 67, 27
17, 87392, Note_on_c, 12, 67, 0
17, 87408, Note_on_c, 12, 67, 35
17, 87440, Note_on_c, 12, 67, 0
17, 87456, Note_on_c, 12, 66, 35
17, 87488, Note_on_c, 12, 66, 0
17, 87504, Note_on_c, 12, 66, 31
17, 87536, Note_on_c, 12, 66, 0
17, 87552, Note_on_c, 12, 65, 27
17, 87584, Note_on_c, 12, 65, 0
17, 87600, Note_on_c, 12, 65, 30
17, 87632, Note_on_c, 12, 65, 0
17, 87648, Note_on_c, 12, 64, 34
17, 87680, Note_on_c, 12, 64, 0
17, 87696, Note_on_c, 12, 64, 27
17, 87728, Note_on_c, 12, 64, 0
17, 87744, Note_on_c, 12, 67, 29
17, 87776, Note_on_c, 12, 67, 0
17, 87792, Note_on_c, 12, 67, 32
17, 87824, Note_on_c, 12, 67, 0
17, 87840, Note_on_c, 12, 68, 29
17, 87872, Note_on_c, 12, 68, 0
17, 87888, Note_on_c, 12, 68, 35
17, 87920, Note_on_c, 12, 68, 0
17, 87936, Note_on_c, 12, 67, 32
17, 87968, Note_on_c, 12, 67, 0
17, 87984, Note_on_c, 12, 67, 29
17, 88016, Note_on_c, 12, 67, 0
17, 88032, Note_on_c, 12, 66, 26
17, 88064, Note_on_c, 12, 66, 0
17, 88080, Note_on_c, 12, 66, 29
17, 88112, Note_on_c, 12, 66, 0
17, 88128, Note_on_c, 12, 65, 25
17, 88160, Note_on_c, 12, 65, 0
17, 88176, Note_on_c, 12, 65, 27
17, 88208, Note_on_c, 12, 65, 0
17, 88224, Note_on_c, 12, 64, 35
17, 88256, Note_on_c, 12, 64, 0
17, 88272, Note_on_c, 12, 64, 32
17, 88304, Note_on_c, 12, 64, 0
17, 88320, Note_on_c, 12, 67, 32
17, 88352, Note_on_c, 12, 67, 0
17, 88368, Note_on_c, 12, 67, 32
17, 88400, Note_on_c, 12, 67, 0
17, 88416, Note_on_c, 12, 68, 44
17, 88448, Note_on_c, 12, 68, 0
17, 88464, Note_on_c, 12, 68, 44
17, 88496, Note_on_c, 12, 68, 0
17, 88512, Note_on_c, 12, 66, 46
17, 88544, Note_on_c, 12, 66, 0
17, 88560, Note_on_c, 12, 66, 48
17, 88592, Note_on_c, 12, 66, 0
17, 88608, Note_on_c, 12, 64, 43
17, 88640, Note_on_c, 12, 64, 0
17, 88656, Note_on_c, 12, 64, 51
17, 88688, Note_on_c, 12, 64, 0
17, 88704, Note_on_c, 12, 63, 55
17, 88736, Note_on_c, 12, 63, 0
17, 88752, Note_on_c, 12, 63, 55
17, 88784, Note_on_c, 12, 63, 0
17, 88800, Note_on_c, 12, 61, 49
17, 88832, Note_on_c, 12, 61, 0
17, 88848, Note_on_c, 12, 61, 61
17, 88880, Note_on_c, 12, 61, 0
17, 88896, Note_on_c, 12, 64, 60
17, 88928, Note_on_c, 12, 64, 0
17, 88944, Note_on_c, 12, 64, 65
17, 88976, Note_on_c, 12, 64, 0
17, 88992, Note_on_c, 12, 68, 33
17, 89024, Note_on_c, 12, 68, 0
17, 89040, Note_on_c, 12, 68, 31
17, 89072, Note_on_c, 12, 68, 0
17, 89088, Note_on_c, 12, 67, 25
17, 89120, Note_on_c, 12, 67, 0
17, 89136, Note_on_c, 12, 67, 26
17, 89168, Note_on_c, 12, 67, 0
17, 89184, Note_on_c, 12, 66, 35
17, 89216, Note_on_c, 12, 66, 0
17, 89232, Note_on_c, 12, 66, 33
17, 89264, Note_on_c, 12, 66, 0
17, 89280, Note_on_c, 12, 65, 32
17, 89312, Note_on_c, 12, 65, 0
17, 89328, Note_on_c, 12, 65, 27
17, 89360, Note_on_c, 12, 65, 0
17, 89376, Note_on_c, 12, 64, 26
17, 89408, Note_on_c, 12, 64, 0
17, 89424, Note_on_c, 12, 64, 34
17, 89456, Note_on_c, 12, 64, 0
17, 89472, Note_on_c, 12, 67, 35
17, 89504, Note_on_c, 12, 67, 0
17, 89520, Note_on_c, 12, 67, 25
17, 89552, Note_on_c, 12, 67, 0
17, 89568, Note_on_c, 12, 68, 30
17, 89600, Note_on_c, 12, 68, 0
17, 89616, Note_on_c, 12, 68, 35
17, 89648, Note_on_c, 12, 68, 0
17, 89664, Note_on_c, 12, 67, 27
17, 89696, Note_on_c, 12, 67, 0
17, 89712, Note_on_c, 12, 67, 34
17, 89744, Note_on_c, 12, 67, 0
17, 89760, Note_on_c, 12, 66, 31
17, 89792, Note_on_c, 12, 66, 0
17, 89808, Note_on_c, 12, 66, 34
17, 89840, Note_on_c, 12, 66, 0
17, 89856, Note_on_c, 12, 65, 34
17, 89888, Note_on_c, 12, 65, 0
17, 89904, Note_on_c, 12, 65, 31
17, 89936, Note_on_c, 12, 65, 0
17, 89952, Note_on_c, 12, 64, 31
17, 89984, Note_on_c, 12, 64, 0
17, 90000, Note_on_c, 12, 64, 26
17, 90032, Note_on_c, 12, 64, 0
17, 90048, Note_on_c, 12, 67, 25
17, 90080, Note_on_c, 12, 67, 0
17, 90096, Note_on_c, 12, 67, 35
17, 90128, Note_on_c, 12, 67, 0
17, 90144, Note_on_c, 12, 68, 34
17, 90176, Note_on_c, 12, 68, 0
17, 90192, Note_on_c, 12, 68, 34
17, 90224, Note_on_c, 12, 68, 0
17, 90240, Note_on_c, 12, 67, 25
17, 90272, Note_on_c, 12, 67, 0
17, 90288, Note_on_c, 12, 67, 26
17, 90320, Note_on_c, 12, 67, 0
17, 90336, Note_on_c, 12, 66, 27
17, 90368, Note_on_c, 12, 66, 0
17, 90384, Note_on_c, 12, 66, 33
17, 90416, Note_on_c, 12, 66, 0
17, 90432, Note_on_c, 12, 65, 32
17, 90464, Note_on_c, 12, 65, 0
17, 90480, Note_on_c, 12, 65, 34
17, 90512, Note_on_c, 12, 65, 0
17, 90528, Note_on_c, 12, 64, 33
17, 90560, Note_on_c, 12, 64, 0
17, 90576, Note_on_c, 12, 64, 33
17, 90608, Note_on_c, 12, 64, 0
17, 90624, Note_on_c, 12, 67, 25
17, 90656, Note_on_c, 12, 67, 0
17, 90672, Note_on_c, 12, 67, 26
17, 90704, Note_on_c, 12, 67, 0
17, 90720, Note_on_c, 12, 68, 50
17, 90752, Note_on_c, 12, 68, 0
17, 90768, Note_on_c, 12, 68, 43
17, 90800, Note_on_c, 12, 68, 0
17, 90816, Note_on_c, 12, 66, 49
17, 90848, Note_on_c, 12, 66, 0
17, 90864, Note_on_c, 12, 66, 48
17, 90896, Note_on_c, 12, 66, 0
17, 90912, Note_on_c, 12, 64, 53
17, 90944, Note_on_c, 12, 64, 0
17, 90960, Note_on_c, 12, 64, 48
17, 90992, Note_on_c, 12, 64, 0
17, 91008, Note_on_c, 12, 63, 50
17, 91040, Note_on_c, 12, 63, 0
17, 91056, Note_on_c, 12, 63, 49
17, 91088, Note_on_c, 12, 63, 0
17, 91104, Note_on_c, 12, 61, 52
17, 91136, Note_on_c, 12, 61, 0
17, 91152, Note_on_c, 12, 61, 56
17, 91184, Note_on_c, 12, 61, 0
17, 91200, Note_on_c, 12, 64, 54
17, 91232, Note_on_c, 12, 64, 0
17, 91248, Note_on_c, 12, 64, 64
17, 91280, Note_on_c, 12, 64, 0
17, 91296, Control_c, 12, 11, 92
17, 91296, Note_on_c, 12, 63, 72
17, 91301, Control_c, 12, 11, 93
17, 91306, Control_c, 12, 11, 94
17, 91312, Control_c, 12, 11, 95
17, 91317, Control_c, 12, 11, 96
17, 91323, Control_c, 12, 11, 97
17, 91328, Control_c, 12, 11, 98
17, 91334, Control_c, 12, 11, 99
17, 91339, Control_c, 12, 11, 100
17, 91345, Control_c, 12, 11, 101
17, 91350, Control_c, 12, 11, 102
17, 91356, Control_c, 12, 11, 103
17, 91361, Control_c, 12, 11, 104
17, 91367, Control_c, 12, 11, 105
17, 91372, Control_c, 12, 11, 106
17, 91378, Control_c, 12, 11, 107
17, 91383, Control_c, 12, 11, 108
17, 91389, Control_c, 12, 11, 109
17, 91394, Control_c, 12, 11, 110
17, 91400, Control_c, 12, 11, 111
17, 91405, Control_c, 12, 11, 112
17, 91411, Control_c, 12, 11, 113
17, 91416, Control_c, 12, 11, 114
17, 91422, Control_c, 12, 11, 115
17, 91427, Control_c, 12, 11, 116
17, 91433, Control_c, 12, 11, 117
17, 91438, Control_c, 12, 11, 118
17, 91444, Control_c, 12, 11, 119
17, 91449, Control_c, 12, 11, 120
17, 91455, Control_c, 12, 11, 121
17, 91460, Control_c, 12, 11, 122
17, 91466, Control_c, 12, 11, 123
17, 91471, Control_c, 12, 11, 124
17, 91477, Control_c, 12, 11, 125
17, 91482, Control_c, 12, 11, 126
17, 91488, Note_on_c, 12, 63, 0
17, 91488, Control_c, 12, 11, 127
17, 91488, Note_on_c, 12, 66, 80
17, 91776, Note_on_c, 12, 66, 0
17, 91776, Note_on_c, 12, 65, 73
17, 91872, Note_on_c, 12, 65, 0
17, 91872, Control_c, 12, 11, 92
17, 91872, Note_on_c, 12, 63, 71
17, 91877, Control_c, 12, 11, 93
17, 91882, Control_c, 12, 11, 94
17, 91888, Control_c, 12, 11, 95
17, 91893, Control_c, 12, 11, 96
17, 91899, Control_c, 12, 11, 97
17, 91904, Control_c, 12, 11, 98
17, 91910, Control_c, 12, 11, 99
17, 91915, Control_c, 12, 11, 100
17, 91921, Control_c, 12, 11, 101
17, 91926, Control_c, 12, 11, 102
17, 91932, Control_c, 12, 11, 103
17, 91937, Control_c, 12, 11, 104
17, 91943, Control_c, 12, 11, 105
17, 91948, Control_c, 12, 11, 106
17, 91954, Control_c, 12, 11, 107
17, 91959, Control_c, 12, 11, 108
17, 91965, Control_c, 12, 11, 109
17, 91970, Control_c, 12, 11, 110
17, 91976, Control_c, 12, 11, 111
17, 91981, Control_c, 12, 11, 112
17, 91987, Control_c, 12, 11, 113
17, 91992, Control_c, 12, 11, 114
17, 91998, Control_c, 12, 11, 115
17, 92003, Control_c, 12, 11, 116
17, 92009, Control_c, 12, 11, 117
17, 92014, Control_c, 12, 11, 118
17, 92020, Control_c, 12, 11, 119
17, 92025, Control_c, 12, 11, 120
17, 92031, Control_c, 12, 11, 121
17, 92036, Control_c, 12, 11, 122
17, 92042, Control_c, 12, 11, 123
17, 92047, Control_c, 12, 11, 124
17, 92053, Control_c, 12, 11, 125
17, 92058, Control_c, 12, 11, 126
17, 92064, Note_on_c, 12, 63, 0
17, 92064, Control_c, 12, 11, 127
17, 92064, Note_on_c, 12, 68, 75
17, 92256, Note_on_c, 12, 68, 0
17, 92256, Note_on_c, 12, 66, 79
17, 92448, Note_on_c, 12, 66, 0
17, 92448, Control_c, 12, 11, 63
17, 92448, Note_on_c, 12, 64, 76
17, 92466, Control_c, 12, 11, 64
17, 92484, Control_c, 12, 11, 65
17, 92502, Control_c, 12, 11, 66
17, 92520, Control_c, 12, 11, 67
17, 92538, Control_c, 12, 11, 68
17, 92556, Control_c, 12, 11, 69
17, 92574, Control_c, 12, 11, 70
17, 92592, Control_c, 12, 11, 71
17, 92610, Control_c, 12, 11, 72
17, 92628, Control_c, 12, 11, 73
17, 92646, Control_c, 12, 11, 74
17, 92664, Control_c, 12, 11, 75
17, 92682, Control_c, 12, 11, 76
17, 92700, Control_c, 12, 11, 77
17, 92718, Control_c, 12, 11, 78
17, 92736, Control_c, 12, 11, 79
17, 92754, Control_c, 12, 11, 80
17, 92772, Control_c, 12, 11, 81
17, 92790, Control_c, 12, 11, 82
17, 92808, Control_c, 12, 11, 83
17, 92826, Control_c, 12, 11, 84
17, 92832, Note_on_c, 12, 64, 0
17, 92832, Note_on_c, 12, 59, 75
17, 92844, Control_c, 12, 11, 85
17, 92862, Control_c, 12, 11, 86
17, 92880, Control_c, 12, 11, 87
17, 92898, Control_c, 12, 11, 88
17, 92916, Control_c, 12, 11, 89
17, 92934, Control_c, 12, 11, 90
17, 92952, Control_c, 12, 11, 91
17, 92970, Control_c, 12, 11, 92
17, 92988, Control_c, 12, 11, 93
17, 93006, Control_c, 12, 11, 94
17, 93024, Control_c, 12, 11, 95
17, 93042, Control_c, 12, 11, 96
17, 93060, Control_c, 12, 11, 97
17, 93078, Control_c, 12, 11, 98
17, 93096, Control_c, 12, 11, 99
17, 93114, Control_c, 12, 11, 100
17, 93132, Control_c, 12, 11, 101
17, 93150, Control_c, 12, 11, 102
17, 93168, Control_c, 12, 11, 103
17, 93186, Control_c, 12, 11, 104
17, 93204, Control_c, 12, 11, 105
17, 93216, Note_on_c, 12, 59, 0
17, 93216, Note_on_c, 12, 62, 74
17, 93222, Control_c, 12, 11, 106
17, 93240, Control_c, 12, 11, 107
17, 93258, Control_c, 12, 11, 108
17, 93276, Control_c, 12, 11, 109
17, 93294, Control_c, 12, 11, 110
17, 93312, Control_c, 12, 11, 111
17, 93330, Control_c, 12, 11, 112
17, 93348, Control_c, 12, 11, 113
17, 93366, Control_c, 12, 11, 114
17, 93384, Control_c, 12, 11, 115
17, 93402, Control_c, 12, 11, 116
17, 93420, Control_c, 12, 11, 117
17, 93438, Control_c, 12, 11, 118
17, 93456, Control_c, 12, 11, 119
17, 93474, Control_c, 12, 11, 120
17, 93492, Control_c, 12, 11, 121
17, 93510, Control_c, 12, 11, 122
17, 93528, Control_c, 12, 11, 123
17, 93546, Control_c, 12, 11, 124
17, 93564, Control_c, 12, 11, 125
17, 93582, Control_c, 12, 11, 126
17, 93600, Note_on_c, 12, 62, 0
17, 93600, Control_c, 12, 11, 127
17, 93600, Control_c, 12, 11, 92
17, 93600, Note_on_c, 12, 63, 77
17, 93605, Control_c, 12, 11, 93
17, 93610, Control_c, 12, 11, 94
17, 93616, Control_c, 12, 11, 95
17, 93621, Control_c, 12, 11, 96
17, 93627, Control_c, 12, 11, 97
17, 93632, Control_c, 12, 11, 98
17, 93638, Control_c, 12, 11, 99
17, 93643, Control_c, 12, 11, 100
17, 93649, Control_c, 12, 11, 101
17, 93654, Control_c, 12, 11, 102
17, 93660, Control_c, 12, 11, 103
17, 93665, Control_c, 12, 11, 104
17, 93671, Control_c, 12, 11, 105
17, 93676, Control_c, 12, 11, 106
17, 93682, Control_c, 12, 11, 107
17, 93687, Control_c, 12, 11, 108
17, 93693, Control_c, 12, 11, 109
17, 93698, Control_c, 12, 11, 110
17, 93704, Control_c, 12, 11, 111
17, 93709, Control_c, 12, 11, 112
17, 93715, Control_c, 12, 11, 113
17, 93720, Control_c, 12, 11, 114
17, 93726, Control_c, 12, 11, 115
17, 93731, Control_c, 12, 11, 116
17, 93737, Control_c, 12, 11, 117
17, 93742, Control_c, 12, 11, 118
17, 93748, Control_c, 12, 11, 119
17, 93753, Control_c, 12, 11, 120
17, 93759, Control_c, 12, 11, 121
17, 93764, Control_c, 12, 11, 122
17, 93770, Control_c, 12, 11, 123
17, 93775, Control_c, 12, 11, 124
17, 93781, Control_c, 12, 11, 125
17, 93786, Control_c, 12, 11, 126
17, 93792, Note_on_c, 12, 63, 0
17, 93792, Control_c, 12, 11, 127
17, 93792, Note_on_c, 12, 66, 70
17, 94080, Note_on_c, 12, 66, 0
17, 94080, Note_on_c, 12, 65, 80
17, 94176, Note_on_c, 12, 65, 0
17, 94176, Control_c, 12, 11, 92
17, 94176, Note_on_c, 12, 63, 73
17, 94181, Control_c, 12, 11, 93
17, 94186, Control_c, 12, 11, 94
17, 94192, Control_c, 12, 11, 95
17, 94197, Control_c, 12, 11, 96
17, 94203, Control_c, 12, 11, 97
17, 94208, Control_c, 12, 11, 98
17, 94214, Control_c, 12, 11, 99
17, 94219, Control_c, 12, 11, 100
17, 94225, Control_c, 12, 11, 101
17, 94230, Control_c, 12, 11, 102
17, 94236, Control_c, 12, 11, 103
17, 94241, Control_c, 12, 11, 104
17, 94247, Control_c, 12, 11, 105
17, 94252, Control_c, 12, 11, 106
17, 94258, Control_c, 12, 11, 107
17, 94263, Control_c, 12, 11, 108
17, 94269, Control_c, 12, 11, 109
17, 94274, Control_c, 12, 11, 110
17, 94280, Control_c, 12, 11, 111
17, 94285, Control_c, 12, 11, 112
17, 94291, Control_c, 12, 11, 113
17, 94296, Control_c, 12, 11, 114
17, 94302, Control_c, 12, 11, 115
17, 94307, Control_c, 12, 11, 116
17, 94313, Control_c, 12, 11, 117
17, 94318, Control_c, 12, 11, 118
17, 94324, Control_c, 12, 11, 119
17, 94329, Control_c, 12, 11, 120
17, 94335, Control_c, 12, 11, 121
17, 94340, Control_c, 12, 11, 122
17, 94346, Control_c, 12, 11, 123
17, 94351, Control_c, 12, 11, 124
17, 94357, Control_c, 12, 11, 125
17, 94362, Control_c, 12, 11, 126
17, 94368, Note_on_c, 12, 63, 0
17, 94368, Control_c, 12, 11, 127
17, 94368, Note_on_c, 12, 68, 70
17, 94560, Note_on_c, 12, 68, 0
17, 94560, Note_on_c, 12, 66, 77
17, 94752, Control_c, 12, 11, 92
17, 94757, Control_c, 12, 11, 93
17, 94762, Control_c, 12, 11, 94
17, 94768, Control_c, 12, 11, 95
17, 94773, Control_c, 12, 11, 96
17, 94779, Control_c, 12, 11, 97
17, 94784, Control_c, 12, 11, 98
17, 94790, Control_c, 12, 11, 99
17, 94795, Control_c, 12, 11, 100
17, 94801, Control_c, 12, 11, 101
17, 94806, Control_c, 12, 11, 102
17, 94812, Control_c, 12, 11, 103
17, 94817, Control_c, 12, 11, 104
17, 94823, Control_c, 12, 11, 105
17, 94828, Control_c, 12, 11, 106
17, 94834, Control_c, 12, 11, 107
17, 94839, Control_c, 12, 11, 108
17, 94845, Control_c, 12, 11, 109
17, 94850, Control_c, 12, 11, 110
17, 94856, Control_c, 12, 11, 111
17, 94861, Control_c, 12, 11, 112
17, 94867, Control_c, 12, 11, 113
17, 94872, Control_c, 12, 11, 114
17, 94878, Control_c, 12, 11, 115
17, 94883, Control_c, 12, 11, 116
17, 94889, Control_c, 12, 11, 117
17, 94894, Control_c, 12, 11, 118
17, 94900, Control_c, 12, 11, 119
17, 94905, Control_c, 12, 11, 120
17, 94911, Control_c, 12, 11, 121
17, 94916, Control_c, 12, 11, 122
17, 94922, Control_c, 12, 11, 123
17, 94927, Control_c, 12, 11, 124
17, 94933, Control_c, 12, 11, 125
17, 94938, Control_c, 12, 11, 126
17, 94944, Note_on_c, 12, 66, 0
17, 94944, Control_c, 12, 11, 127
17, 94944, Note_on_c, 12, 71, 74
17, 95232, Note_on_c, 12, 71, 0
17, 95232, Note_on_c, 12, 69, 80
17, 95328, Note_on_c, 12, 69, 0
17, 95328, Control_c, 12, 11, 92
17, 95328, Note_on_c, 12, 66, 74
17, 95333, Control_c, 12, 11, 93
17, 95338, Control_c, 12, 11, 94
17, 95344, Control_c, 12, 11, 95
17, 95349, Control_c, 12, 11, 96
17, 95355, Control_c, 12, 11, 97
17, 95360, Control_c, 12, 11, 98
17, 95366, Control_c, 12, 11, 99
17, 95371, Control_c, 12, 11, 100
17, 95377, Control_c, 12, 11, 101
17, 95382, Control_c, 12, 11, 102
17, 95388, Control_c, 12, 11, 103
17, 95393, Control_c, 12, 11, 104
17, 95399, Control_c, 12, 11, 105
17, 95404, Control_c, 12, 11, 106
17, 95410, Control_c, 12, 11, 107
17, 95415, Control_c, 12, 11, 108
17, 95421, Control_c, 12, 11, 109
17, 95426, Control_c, 12, 11, 110
17, 95432, Control_c, 12, 11, 111
17, 95437, Control_c, 12, 11, 112
17, 95443, Control_c, 12, 11, 113
17, 95448, Control_c, 12, 11, 114
17, 95454, Control_c, 12, 11, 115
17, 95459, Control_c, 12, 11, 116
17, 95465, Control_c, 12, 11, 117
17, 95470, Control_c, 12, 11, 118
17, 95476, Control_c, 12, 11, 119
17, 95481, Control_c, 12, 11, 120
17, 95487, Control_c, 12, 11, 121
17, 95492, Control_c, 12, 11, 122
17, 95498, Control_c, 12, 11, 123
17, 95503, Control_c, 12, 11, 124
17, 95509, Control_c, 12, 11, 125
17, 95514, Control_c, 12, 11, 126
17, 95520, Note_on_c, 12, 66, 0
17, 95520, Control_c, 12, 11, 127
17, 95520, Note_on_c, 12, 71, 74
17, 95808, Note_on_c, 12, 71, 0
17, 95808, Note_on_c, 12, 69, 70
17, 95904, Note_on_c, 12, 69, 0
17, 95904, Note_on_c, 12, 70, 40
17, 95936, Note_on_c, 12, 70, 0
17, 95952, Note_on_c, 12, 70, 43
17, 95984, Note_on_c, 12, 70, 0
17, 96000, Note_on_c, 12, 67, 45
17, 96032, Note_on_c, 12, 67, 0
17, 96048, Note_on_c, 12, 67, 43
17, 96080, Note_on_c, 12, 67, 0
17, 96096, Note_on_c, 12, 64, 40
17, 96128, Note_on_c, 12, 64, 0
17, 96144, Note_on_c, 12, 64, 41
17, 96176, Note_on_c, 12, 64, 0
17, 96192, Note_on_c, 12, 67, 47
17, 96224, Note_on_c, 12, 67, 0
17, 96240, Note_on_c, 12, 67, 44
17, 96272, Note_on_c, 12, 67, 0
17, 96288, Note_on_c, 12, 70, 48
17, 96320, Note_on_c, 12, 70, 0
17, 96336, Note_on_c, 12, 70, 49
17, 96368, Note_on_c, 12, 70, 0
17, 96384, Note_on_c, 12, 67, 44
17, 96416, Note_on_c, 12, 67, 0
17, 96432, Note_on_c, 12, 67, 41
17, 96464, Note_on_c, 12, 67, 0
17, 96480, Note_on_c, 12, 64, 48
17, 96512, Note_on_c, 12, 64, 0
17, 96528, Note_on_c, 12, 64, 49
17, 96560, Note_on_c, 12, 64, 0
17, 96576, Note_on_c, 12, 67, 47
17, 96608, Note_on_c, 12, 67, 0
17, 96624, Note_on_c, 12, 67, 41
17, 96656, Note_on_c, 12, 67, 0
17, 96672, Note_on_c, 12, 70, 50
17, 96704, Note_on_c, 12, 70, 0
17, 96720, Note_on_c, 12, 70, 45
17, 96752, Note_on_c, 12, 70, 0
17, 96768, Note_on_c, 12, 67, 50
17, 96800, Note_on_c, 12, 67, 0
17, 96816, Note_on_c, 12, 67, 47
17, 96848, Note_on_c, 12, 67, 0
17, 96864, Note_on_c, 12, 64, 45
17, 96896, Note_on_c, 12, 64, 0
17, 96912, Note_on_c, 12, 64, 40
17, 96944, Note_on_c, 12, 64, 0
17, 96960, Note_on_c, 12, 67, 49
17, 96992, Note_on_c, 12, 67, 0
17, 97008, Note_on_c, 12, 67, 41
17, 97040, Note_on_c, 12, 67, 0
17, 97056, Note_on_c, 12, 71, 43
17, 97088, Note_on_c, 12, 71, 0
17, 97104, Note_on_c, 12, 71, 45
17, 97136, Note_on_c, 12, 71, 0
17, 97152, Note_on_c, 12, 68, 49
17, 97184, Note_on_c, 12, 68, 0
17, 97200, Note_on_c, 12, 68, 53
17, 97232, Note_on_c, 12, 68, 0
17, 97248, Note_on_c, 12, 71, 51
17, 97280, Note_on_c, 12, 71, 0
17, 97296, Note_on_c, 12, 71, 52
17, 97328, Note_on_c, 12, 71, 0
17, 97344, Note_on_c, 12, 68, 49
17, 97376, Note_on_c, 12, 68, 0
17, 97392, Note_on_c, 12, 68, 54
17, 97424, Note_on_c, 12, 68, 0
17, 97440, Note_on_c, 12, 71, 51
17, 97472, Note_on_c, 12, 71, 0
17, 97488, Note_on_c, 12, 71, 51
17, 97520, Note_on_c, 12, 71, 0
17, 97536, Note_on_c, 12, 68, 58
17, 97568, Note_on_c, 12, 68, 0
17, 97584, Note_on_c, 12, 68, 56
17, 97616, Note_on_c, 12, 68, 0
17, 97632, Note_on_c, 12, 71, 58
17, 97664, Note_on_c, 12, 71, 0
17, 97680, Note_on_c, 12, 71, 63
17, 97712, Note_on_c, 12, 71, 0
17, 97728, Note_on_c, 12, 68, 56
17, 97760, Note_on_c, 12, 68, 0
17, 97776, Note_on_c, 12, 68, 55
17, 97808, Note_on_c, 12, 68, 0
17, 97824, Note_on_c, 12, 71, 63
17, 97856, Note_on_c, 12, 71, 0
17, 97872, Note_on_c, 12, 71, 58
17, 97904, Note_on_c, 12, 71, 0
17, 97920, Note_on_c, 12, 68, 67
17, 97952, Note_on_c, 12, 68, 0
17, 97968, Note_on_c, 12, 68, 67
17, 98000, Note_on_c, 12, 68, 0
17, 98016, Note_on_c, 12, 71, 66
17, 98048, Note_on_c, 12, 71, 0
17, 98064, Note_on_c, 12, 71, 73
17, 98096, Note_on_c, 12, 71, 0
17, 98112, Note_on_c, 12, 68, 77
17, 98144, Note_on_c, 12, 68, 0
17, 98160, Note_on_c, 12, 68, 76
17, 98192, Note_on_c, 12, 68, 0
17, 98208, Note_on_c, 12, 70, 43
17, 98240, Note_on_c, 12, 70, 0
17, 98256, Note_on_c, 12, 70, 42
17, 98288, Note_on_c, 12, 70, 0
17, 98304, Note_on_c, 12, 67, 47
17, 98336, Note_on_c, 12, 67, 0
17, 98352, Note_on_c, 12, 67, 45
17, 98384, Note_on_c, 12, 67, 0
17, 98400, Note_on_c, 12, 64, 40
17, 98432, Note_on_c, 12, 64, 0
17, 98448, Note_on_c, 12, 64, 40
17, 98480, Note_on_c, 12, 64, 0
17, 98496, Note_on_c, 12, 67, 40
17, 98528, Note_on_c, 12, 67, 0
17, 98544, Note_on_c, 12, 67, 40
17, 98576, Note_on_c, 12, 67, 0
17, 98592, Note_on_c, 12, 70, 41
17, 98624, Note_on_c, 12, 70, 0
17, 98640, Note_on_c, 12, 70, 40
17, 98672, Note_on_c, 12, 70, 0
17, 98688, Note_on_c, 12, 67, 45
17, 98720, Note_on_c, 12, 67, 0
17, 98736, Note_on_c, 12, 67, 48
17, 98768, Note_on_c, 12, 67, 0
17, 98784, Note_on_c, 12, 64, 48
17, 98816, Note_on_c, 12, 64, 0
17, 98832, Note_on_c, 12, 64, 49
17, 98864, Note_on_c, 12, 64, 0
17, 98880, Note_on_c, 12, 67, 42
17, 98912, Note_on_c, 12, 67, 0
17, 98928, Note_on_c, 12, 67, 44
17, 98960, Note_on_c, 12, 67, 0
17, 98976, Note_on_c, 12, 70, 49
17, 99008, Note_on_c, 12, 70, 0
17, 99024, Note_on_c, 12, 70, 49
17, 99056, Note_on_c, 12, 70, 0
17, 99072, Note_on_c, 12, 67, 45
17, 99104, Note_on_c, 12, 67, 0
17, 99120, Note_on_c, 12, 67, 44
17, 99152, Note_on_c, 12, 67, 0
17, 99168, Note_on_c, 12, 64, 47
17, 99200, Note_on_c, 12, 64, 0
17, 99216, Note_on_c, 12, 64, 44
17, 99248, Note_on_c, 12, 64, 0
17, 99264, Note_on_c, 12, 67, 41
17, 99296, Note_on_c, 12, 67, 0
17, 99312, Note_on_c, 12, 67, 41
17, 99344, Note_on_c, 12, 67, 0
17, 99360, Note_on_c, 12, 71, 49
17, 99392, Note_on_c, 12, 71, 0
17, 99408, Note_on_c, 12, 71, 42
17, 99440, Note_on_c, 12, 71, 0
17, 99456, Note_on_c, 12, 68, 51
17, 99488, Note_on_c, 12, 68, 0
17, 99504, Note_on_c, 12, 68, 51
17, 99536, Note_on_c, 12, 68, 0
17, 99552, Note_on_c, 12, 71, 46
17, 99584, Note_on_c, 12, 71, 0
17, 99600, Note_on_c, 12, 71, 49
17, 99632, Note_on_c, 12, 71, 0
17, 99648, Note_on_c, 12, 68, 55
17, 99680, Note_on_c, 12, 68, 0
17, 99696, Note_on_c, 12, 68, 57
17, 99728, Note_on_c, 12, 68, 0
17, 99744, Note_on_c, 12, 71, 48
17, 99776, Note_on_c, 12, 71, 0
17, 99792, Note_on_c, 12, 71, 51
17, 99824, Note_on_c, 12, 71, 0
17, 99840, Note_on_c, 12, 68, 60
17, 99872, Note_on_c, 12, 68, 0
17, 99888, Note_on_c, 12, 68, 53
17, 99920, Note_on_c, 12, 68, 0
17, 99936, Note_on_c, 12, 71, 60
17, 99968, Note_on_c, 12, 71, 0
17, 99984, Note_on_c, 12, 71, 61
17, 100016, Note_on_c, 12, 71, 0
17, 100032, Note_on_c, 12, 68, 62
17, 100064, Note_on_c, 12, 68, 0
17, 100080, Note_on_c, 12, 68, 57
17, 100112, Note_on_c, 12, 68, 0
17, 100128, Note_on_c, 12, 71, 62
17, 100160, Note_on_c, 12, 71, 0
17, 100176, Note_on_c, 12, 71, 66
17, 100208, Note_on_c, 12, 71, 0
17, 100224, Note_on_c, 12, 68, 68
17, 100256, Note_on_c, 12, 68, 0
17, 100272, Note_on_c, 12, 68, 71
17, 100304, Note_on_c, 12, 68, 0
17, 100320, Note_on_c, 12, 71, 72
17, 100352, Note_on_c, 12, 71, 0
17, 100368, Note_on_c, 12, 71, 72
17, 100400, Note_on_c, 12, 71, 0
17, 100416, Note_on_c, 12, 68, 68
17, 100448, Note_on_c, 12, 68, 0
17, 100464, Note_on_c, 12, 68, 76
17, 100496, Note_on_c, 12, 68, 0
17, 100512, Control_c, 12, 11, 92
17, 100512, Note_on_c, 12, 73, 61
17, 100517, Control_c, 12, 11, 93
17, 100522, Control_c, 12, 11, 94
17, 100528, Control_c, 12, 11, 95
17, 100533, Control_c, 12, 11, 96
17, 100539, Control_c, 12, 11, 97
17, 100544, Control_c, 12, 11, 98
17, 100550, Control_c, 12, 11, 99
17, 100555, Control_c, 12, 11, 100
17, 100561, Control_c, 12, 11, 101
17, 100566, Control_c, 12, 11, 102
17, 100572, Control_c, 12, 11, 103
17, 100577, Control_c, 12, 11, 104
17, 100583, Control_c, 12, 11, 105
17, 100588, Control_c, 12, 11, 106
17, 100594, Control_c, 12, 11, 107
17, 100599, Control_c, 12, 11, 108
17, 100605, Control_c, 12, 11, 109
17, 100610, Control_c, 12, 11, 110
17, 100616, Control_c, 12, 11, 111
17, 100621, Control_c, 12, 11, 112
17, 100627, Control_c, 12, 11, 113
17, 100632, Control_c, 12, 11, 114
17, 100638, Control_c, 12, 11, 115
17, 100643, Control_c, 12, 11, 116
17, 100649, Control_c, 12, 11, 117
17, 100654, Control_c, 12, 11, 118
17, 100660, Control_c, 12, 11, 119
17, 100665, Control_c, 12, 11, 120
17, 100671, Control_c, 12, 11, 121
17, 100676, Control_c, 12, 11, 122
17, 100682, Control_c, 12, 11, 123
17, 100687, Control_c, 12, 11, 124
17, 100693, Control_c, 12, 11, 125
17, 100698, Control_c, 12, 11, 126
17, 100704, Note_on_c, 12, 73, 0
17, 100704, Control_c, 12, 11, 127
17, 100704, Note_on_c, 12, 78, 63
17, 100992, Note_on_c, 12, 78, 0
17, 100992, Note_on_c, 12, 76, 58
17, 101088, Note_on_c, 12, 76, 0
17, 101088, Note_on_c, 12, 73, 65
17, 101280, Note_on_c, 12, 73, 0
17, 101280, Control_c, 12, 11, 127
17, 101280, Note_on_c, 12, 71, 58
17, 101290, Control_c, 12, 11, 126
17, 101301, Control_c, 12, 11, 125
17, 101312, Control_c, 12, 11, 124
17, 101322, Note_on_c, 12, 71, 0
17, 101323, Control_c, 12, 11, 123
17, 101334, Control_c, 12, 11, 122
17, 101344, Note_on_c, 12, 71, 64
17, 101345, Control_c, 12, 11, 121
17, 101356, Control_c, 12, 11, 120
17, 101367, Control_c, 12, 11, 119
17, 101378, Control_c, 12, 11, 118
17, 101386, Note_on_c, 12, 71, 0
17, 101389, Control_c, 12, 11, 117
17, 101400, Control_c, 12, 11, 116
17, 101408, Note_on_c, 12, 71, 60
17, 101411, Control_c, 12, 11, 115
17, 101422, Control_c, 12, 11, 114
17, 101433, Control_c, 12, 11, 113
17, 101444, Control_c, 12, 11, 112
17, 101450, Note_on_c, 12, 71, 0
17, 101455, Control_c, 12, 11, 111
17, 101466, Control_c, 12, 11, 110
17, 101472, Note_on_c, 12, 68, 55
17, 101477, Control_c, 12, 11, 109
17, 101488, Control_c, 12, 11, 108
17, 101499, Control_c, 12, 11, 107
17, 101510, Control_c, 12, 11, 106
17, 101514, Note_on_c, 12, 68, 0
17, 101521, Control_c, 12, 11, 105
17, 101532, Control_c, 12, 11, 104
17, 101536, Note_on_c, 12, 68, 58
17, 101543, Control_c, 12, 11, 103
17, 101554, Control_c, 12, 11, 102
17, 101565, Control_c, 12, 11, 101
17, 101576, Control_c, 12, 11, 100
17, 101578, Note_on_c, 12, 68, 0
17, 101587, Control_c, 12, 11, 99
17, 101598, Control_c, 12, 11, 98
17, 101600, Note_on_c, 12, 68, 55
17, 101609, Control_c, 12, 11, 97
17, 101620, Control_c, 12, 11, 96
17, 101631, Control_c, 12, 11, 95
17, 101642, Note_on_c, 12, 68, 0
17, 101642, Control_c, 12, 11, 94
17, 101653, Control_c, 12, 11, 93
17, 101664, Control_c, 12, 11, 92
17, 101664, Note_on_c, 12, 69, 56
17, 101669, Control_c, 12, 11, 93
17, 101674, Control_c, 12, 11, 94
17, 101680, Control_c, 12, 11, 95
17, 101685, Control_c, 12, 11, 96
17, 101691, Control_c, 12, 11, 97
17, 101696, Control_c, 12, 11, 98
17, 101702, Control_c, 12, 11, 99
17, 101707, Control_c, 12, 11, 100
17, 101713, Control_c, 12, 11, 101
17, 101718, Control_c, 12, 11, 102
17, 101724, Control_c, 12, 11, 103
17, 101729, Control_c, 12, 11, 104
17, 101735, Control_c, 12, 11, 105
17, 101740, Control_c, 12, 11, 106
17, 101746, Control_c, 12, 11, 107
17, 101751, Control_c, 12, 11, 108
17, 101757, Control_c, 12, 11, 109
17, 101762, Control_c, 12, 11, 110
17, 101768, Control_c, 12, 11, 111
17, 101773, Control_c, 12, 11, 112
17, 101779, Control_c, 12, 11, 113
17, 101784, Control_c, 12, 11, 114
17, 101790, Control_c, 12, 11, 115
17, 101795, Control_c, 12, 11, 116
17, 101801, Control_c, 12, 11, 117
17, 101806, Control_c, 12, 11, 118
17, 101812, Control_c, 12, 11, 119
17, 101817, Control_c, 12, 11, 120
17, 101823, Control_c, 12, 11, 121
17, 101828, Control_c, 12, 11, 122
17, 101834, Control_c, 12, 11, 123
17, 101839, Control_c, 12, 11, 124
17, 101845, Control_c, 12, 11, 125
17, 101850, Control_c, 12, 11, 126
17, 101856, Note_on_c, 12, 69, 0
17, 101856, Control_c, 12, 11, 127
17, 101856, Note_on_c, 12, 75, 59
17, 101898, Note_on_c, 12, 75, 0
17, 101920, Note_on_c, 12, 75, 64
17, 101962, Note_on_c, 12, 75, 0
17, 101984, Note_on_c, 12, 75, 59
17, 102026, Note_on_c, 12, 75, 0
17, 102048, Note_on_c, 12, 73, 57
17, 102090, Note_on_c, 12, 73, 0
17, 102112, Note_on_c, 12, 73, 65
17, 102154, Note_on_c, 12, 73, 0
17, 102176, Note_on_c, 12, 73, 63
17, 102240, Control_c, 12, 11, 92
17, 102245, Control_c, 12, 11, 93
17, 102250, Control_c, 12, 11, 94
17, 102256, Control_c, 12, 11, 95
17, 102261, Control_c, 12, 11, 96
17, 102267, Control_c, 12, 11, 97
17, 102272, Control_c, 12, 11, 98
17, 102278, Control_c, 12, 11, 99
17, 102283, Control_c, 12, 11, 100
17, 102289, Control_c, 12, 11, 101
17, 102294, Control_c, 12, 11, 102
17, 102300, Control_c, 12, 11, 103
17, 102305, Control_c, 12, 11, 104
17, 102311, Control_c, 12, 11, 105
17, 102316, Control_c, 12, 11, 106
17, 102322, Control_c, 12, 11, 107
17, 102327, Control_c, 12, 11, 108
17, 102333, Control_c, 12, 11, 109
17, 102338, Control_c, 12, 11, 110
17, 102344, Control_c, 12, 11, 111
17, 102349, Control_c, 12, 11, 112
17, 102355, Control_c, 12, 11, 113
17, 102360, Control_c, 12, 11, 114
17, 102366, Control_c, 12, 11, 115
17, 102371, Control_c, 12, 11, 116
17, 102377, Control_c, 12, 11, 117
17, 102382, Control_c, 12, 11, 118
17, 102388, Control_c, 12, 11, 119
17, 102393, Control_c, 12, 11, 120
17, 102399, Control_c, 12, 11, 121
17, 102404, Control_c, 12, 11, 122
17, 102410, Control_c, 12, 11, 123
17, 102415, Control_c, 12, 11, 124
17, 102421, Control_c, 12, 11, 125
17, 102426, Control_c, 12, 11, 126
17, 102432, Note_on_c, 12, 73, 0
17, 102432, Control_c, 12, 11, 127
17, 102432, Note_on_c, 12, 78, 61
17, 102474, Note_on_c, 12, 78, 0
17, 102496, Note_on_c, 12, 78, 62
17, 102538, Note_on_c, 12, 78, 0
17, 102560, Note_on_c, 12, 78, 61
17, 102602, Note_on_c, 12, 78, 0
17, 102624, Note_on_c, 12, 76, 64
17, 102666, Note_on_c, 12, 76, 0
17, 102688, Note_on_c, 12, 76, 60
17, 102730, Note_on_c, 12, 76, 0
17, 102752, Note_on_c, 12, 76, 57
17, 102794, Note_on_c, 12, 76, 0
17, 102816, Control_c, 12, 11, 92
17, 102816, Note_on_c, 12, 81, 77
17, 102821, Control_c, 12, 11, 93
17, 102826, Control_c, 12, 11, 94
17, 102832, Control_c, 12, 11, 95
17, 102837, Control_c, 12, 11, 96
17, 102843, Control_c, 12, 11, 97
17, 102848, Control_c, 12, 11, 98
17, 102854, Control_c, 12, 11, 99
17, 102859, Control_c, 12, 11, 100
17, 102865, Control_c, 12, 11, 101
17, 102870, Control_c, 12, 11, 102
17, 102876, Control_c, 12, 11, 103
17, 102881, Control_c, 12, 11, 104
17, 102887, Control_c, 12, 11, 105
17, 102892, Control_c, 12, 11, 106
17, 102898, Control_c, 12, 11, 107
17, 102903, Control_c, 12, 11, 108
17, 102909, Control_c, 12, 11, 109
17, 102914, Control_c, 12, 11, 110
17, 102920, Control_c, 12, 11, 111
17, 102925, Control_c, 12, 11, 112
17, 102931, Control_c, 12, 11, 113
17, 102936, Control_c, 12, 11, 114
17, 102942, Control_c, 12, 11, 115
17, 102947, Control_c, 12, 11, 116
17, 102953, Control_c, 12, 11, 117
17, 102958, Control_c, 12, 11, 118
17, 102964, Control_c, 12, 11, 119
17, 102969, Control_c, 12, 11, 120
17, 102975, Control_c, 12, 11, 121
17, 102980, Control_c, 12, 11, 122
17, 102986, Control_c, 12, 11, 123
17, 102991, Control_c, 12, 11, 124
17, 102997, Control_c, 12, 11, 125
17, 103002, Control_c, 12, 11, 126
17, 103008, Note_on_c, 12, 81, 0
17, 103008, Control_c, 12, 11, 127
17, 103008, Note_on_c, 12, 86, 77
17, 103296, Note_on_c, 12, 86, 0
17, 103296, Note_on_c, 12, 83, 80
17, 103392, Note_on_c, 12, 83, 0
17, 103392, Note_on_c, 12, 81, 78
17, 103584, Note_on_c, 12, 81, 0
17, 103584, Control_c, 12, 11, 127
17, 103584, Note_on_c, 12, 80, 75
17, 103599, Control_c, 12, 11, 126
17, 103614, Control_c, 12, 11, 125
17, 103626, Note_on_c, 12, 80, 0
17, 103629, Control_c, 12, 11, 124
17, 103644, Control_c, 12, 11, 123
17, 103648, Note_on_c, 12, 80, 72
17, 103660, Control_c, 12, 11, 122
17, 103675, Control_c, 12, 11, 121
17, 103690, Note_on_c, 12, 80, 0
17, 103690, Control_c, 12, 11, 120
17, 103705, Control_c, 12, 11, 119
17, 103712, Note_on_c, 12, 80, 80
17, 103721, Control_c, 12, 11, 118
17, 103736, Control_c, 12, 11, 117
17, 103751, Control_c, 12, 11, 116
17, 103754, Note_on_c, 12, 80, 0
17, 103766, Control_c, 12, 11, 115
17, 103776, Note_on_c, 12, 76, 76
17, 103782, Control_c, 12, 11, 114
17, 103797, Control_c, 12, 11, 113
17, 103812, Control_c, 12, 11, 112
17, 103818, Note_on_c, 12, 76, 0
17, 103827, Control_c, 12, 11, 111
17, 103840, Note_on_c, 12, 76, 74
17, 103843, Control_c, 12, 11, 110
17, 103858, Control_c, 12, 11, 109
17, 103873, Control_c, 12, 11, 108
17, 103882, Note_on_c, 12, 76, 0
17, 103888, Control_c, 12, 11, 107
17, 103904, Control_c, 12, 11, 106
17, 103904, Note_on_c, 12, 76, 75
17, 103919, Control_c, 12, 11, 105
17, 103934, Control_c, 12, 11, 104
17, 103946, Note_on_c, 12, 76, 0
17, 103949, Control_c, 12, 11, 103
17, 103964, Control_c, 12, 11, 102
17, 103968, Note_on_c, 12, 74, 79
17, 103980, Control_c, 12, 11, 101
17, 103995, Control_c, 12, 11, 100
17, 104010, Note_on_c, 12, 74, 0
17, 104010, Control_c, 12, 11, 99
17, 104025, Control_c, 12, 11, 98
17, 104032, Note_on_c, 12, 74, 76
17, 104041, Control_c, 12, 11, 97
17, 104056, Control_c, 12, 11, 96
17, 104071, Control_c, 12, 11, 95
17, 104074, Note_on_c, 12, 74, 0
17, 104086, Control_c, 12, 11, 94
17, 104096, Note_on_c, 12, 74, 80
17, 104102, Control_c, 12, 11, 93
17, 104117, Control_c, 12, 11, 92
17, 104132, Control_c, 12, 11, 91
17, 104138, Note_on_c, 12, 74, 0
17, 104147, Control_c, 12, 11, 90
17, 104160, Note_on_c, 12, 71, 80
17, 104163, Control_c, 12, 11, 89
17, 104178, Control_c, 12, 11, 88
17, 104193, Control_c, 12, 11, 87
17, 104202, Note_on_c, 12, 71, 0
17, 104208, Control_c, 12, 11, 86
17, 104224, Control_c, 12, 11, 85
17, 104224, Note_on_c, 12, 71, 71
17, 104239, Control_c, 12, 11, 84
17, 104254, Control_c, 12, 11, 83
17, 104266, Note_on_c, 12, 71, 0
17, 104269, Control_c, 12, 11, 82
17, 104284, Control_c, 12, 11, 81
17, 104288, Note_on_c, 12, 71, 78
17, 104300, Control_c, 12, 11, 80
17, 104315, Control_c, 12, 11, 79
17, 104330, Note_on_c, 12, 71, 0
17, 104330, Control_c, 12, 11, 78
17, 104345, Control_c, 12, 11, 77
17, 104352, Note_on_c, 12, 69, 72
17, 104361, Control_c, 12, 11, 76
17, 104376, Control_c, 12, 11, 75
17, 104391, Control_c, 12, 11, 74
17, 104394, Note_on_c, 12, 69, 0
17, 104406, Control_c, 12, 11, 73
17, 104416, Note_on_c, 12, 69, 80
17, 104422, Control_c, 12, 11, 72
17, 104437, Control_c, 12, 11, 71
17, 104452, Control_c, 12, 11, 70
17, 104458, Note_on_c, 12, 69, 0
17, 104467, Control_c, 12, 11, 69
17, 104480, Note_on_c, 12, 69, 71
17, 104483, Control_c, 12, 11, 68
17, 104498, Control_c, 12, 11, 67
17, 104513, Control_c, 12, 11, 66
17, 104528, Control_c, 12, 11, 65
17, 104544, Control_c, 12, 11, 64
17, 104553, Control_c, 12, 11, 65
17, 104562, Control_c, 12, 11, 66
17, 104571, Control_c, 12, 11, 67
17, 104580, Control_c, 12, 11, 68
17, 104589, Control_c, 12, 11, 69
17, 104598, Control_c, 12, 11, 70
17, 104608, Control_c, 12, 11, 71
17, 104617, Control_c, 12, 11, 72
17, 104626, Control_c, 12, 11, 73
17, 104635, Control_c, 12, 11, 74
17, 104640, Note_on_c, 12, 69, 0
17, 104640, Note_on_c, 12, 71, 78
17, 104644, Control_c, 12, 11, 75
17, 104653, Control_c, 12, 11, 76
17, 104662, Control_c, 12, 11, 77
17, 104672, Control_c, 12, 11, 78
17, 104681, Control_c, 12, 11, 79
17, 104690, Control_c, 12, 11, 80
17, 104699, Control_c, 12, 11, 81
17, 104708, Control_c, 12, 11, 82
17, 104717, Control_c, 12, 11, 83
17, 104726, Control_c, 12, 11, 84
17, 104736, Note_on_c, 12, 71, 0
17, 104736, Control_c, 12, 11, 85
17, 104736, Note_on_c, 12, 74, 80
17, 104745, Control_c, 12, 11, 86
17, 104754, Control_c, 12, 11, 87
17, 104763, Control_c, 12, 11, 88
17, 104772, Control_c, 12, 11, 89
17, 104781, Control_c, 12, 11, 90
17, 104790, Control_c, 12, 11, 91
17, 104800, Control_c, 12, 11, 92
17, 104809, Control_c, 12, 11, 93
17, 104818, Control_c, 12, 11, 94
17, 104827, Control_c, 12, 11, 95
17, 104832, Note_on_c, 12, 74, 0
17, 104832, Note_on_c, 12, 76, 77
17, 104836, Control_c, 12, 11, 96
17, 104845, Control_c, 12, 11, 97
17, 104854, Control_c, 12, 11, 98
17, 104864, Control_c, 12, 11, 99
17, 104873, Control_c, 12, 11, 100
17, 104882, Control_c, 12, 11, 101
17, 104891, Control_c, 12, 11, 102
17, 104900, Control_c, 12, 11, 103
17, 104909, Control_c, 12, 11, 104
17, 104918, Control_c, 12, 11, 105
17, 104928, Note_on_c, 12, 76, 0
17, 104928, Control_c, 12, 11, 106
17, 104928, Note_on_c, 12, 80, 78
17, 104937, Control_c, 12, 11, 107
17, 104946, Control_c, 12, 11, 108
17, 104955, Control_c, 12, 11, 109
17, 104964, Control_c, 12, 11, 110
17, 104973, Control_c, 12, 11, 111
17, 104982, Control_c, 12, 11, 112
17, 104992, Control_c, 12, 11, 113
17, 105001, Control_c, 12, 11, 114
17, 105010, Control_c, 12, 11, 115
17, 105019, Control_c, 12, 11, 116
17, 105024, Note_on_c, 12, 80, 0
17, 105024, Note_on_c, 12, 81, 73
17, 105028, Control_c, 12, 11, 117
17, 105037, Control_c, 12, 11, 118
17, 105046, Control_c, 12, 11, 119
17, 105056, Control_c, 12, 11, 120
17, 105065, Control_c, 12, 11, 121
17, 105074, Control_c, 12, 11, 122
17, 105083, Control_c, 12, 11, 123
17, 105092, Control_c, 12, 11, 124
17, 105101, Control_c, 12, 11, 125
17, 105110, Control_c, 12, 11, 126
17, 105120, Note_on_c, 12, 81, 0
17, 105120, Control_c, 12, 11, 127
17, 105120, Control_c, 12, 11, 92
17, 105120, Note_on_c, 12, 81, 77
17, 105125, Control_c, 12, 11, 93
17, 105130, Control_c, 12, 11, 94
17, 105136, Control_c, 12, 11, 95
17, 105141, Control_c, 12, 11, 96
17, 105147, Control_c, 12, 11, 97
17, 105152, Control_c, 12, 11, 98
17, 105158, Control_c, 12, 11, 99
17, 105163, Control_c, 12, 11, 100
17, 105169, Control_c, 12, 11, 101
17, 105174, Control_c, 12, 11, 102
17, 105180, Control_c, 12, 11, 103
17, 105185, Control_c, 12, 11, 104
17, 105191, Control_c, 12, 11, 105
17, 105196, Control_c, 12, 11, 106
17, 105202, Control_c, 12, 11, 107
17, 105207, Control_c, 12, 11, 108
17, 105213, Control_c, 12, 11, 109
17, 105218, Control_c, 12, 11, 110
17, 105224, Control_c, 12, 11, 111
17, 105229, Control_c, 12, 11, 112
17, 105235, Control_c, 12, 11, 113
17, 105240, Control_c, 12, 11, 114
17, 105246, Control_c, 12, 11, 115
17, 105251, Control_c, 12, 11, 116
17, 105257, Control_c, 12, 11, 117
17, 105262, Control_c, 12, 11, 118
17, 105268, Control_c, 12, 11, 119
17, 105273, Control_c, 12, 11, 120
17, 105279, Control_c, 12, 11, 121
17, 105284, Control_c, 12, 11, 122
17, 105290, Control_c, 12, 11, 123
17, 105295, Control_c, 12, 11, 124
17, 105301, Control_c, 12, 11, 125
17, 105306, Control_c, 12, 11, 126
17, 105312, Note_on_c, 12, 81, 0
17, 105312, Control_c, 12, 11, 127
17, 105312, Note_on_c, 12, 86, 80
17, 105600, Note_on_c, 12, 86, 0
17, 105600, Note_on_c, 12, 83, 79
17, 105696, Note_on_c, 12, 83, 0
17, 105696, Note_on_c, 12, 81, 76
17, 105888, Note_on_c, 12, 81, 0
17, 105888, Control_c, 12, 11, 127
17, 105888, Note_on_c, 12, 80, 74
17, 105903, Control_c, 12, 11, 126
17, 105918, Control_c, 12, 11, 125
17, 105930, Note_on_c, 12, 80, 0
17, 105933, Control_c, 12, 11, 124
17, 105948, Control_c, 12, 11, 123
17, 105952, Note_on_c, 12, 80, 77
17, 105964, Control_c, 12, 11, 122
17, 105979, Control_c, 12, 11, 121
17, 105994, Note_on_c, 12, 80, 0
17, 105994, Control_c, 12, 11, 120
17, 106009, Control_c, 12, 11, 119
17, 106016, Note_on_c, 12, 80, 75
17, 106025, Control_c, 12, 11, 118
17, 106040, Control_c, 12, 11, 117
17, 106055, Control_c, 12, 11, 116
17, 106058, Note_on_c, 12, 80, 0
17, 106070, Control_c, 12, 11, 115
17, 106080, Note_on_c, 12, 76, 80
17, 106086, Control_c, 12, 11, 114
17, 106101, Control_c, 12, 11, 113
17, 106116, Control_c, 12, 11, 112
17, 106122, Note_on_c, 12, 76, 0
17, 106131, Control_c, 12, 11, 111
17, 106144, Note_on_c, 12, 76, 77
17, 106147, Control_c, 12, 11, 110
17, 106162, Control_c, 12, 11, 109
17, 106177, Control_c, 12, 11, 108
17, 106186, Note_on_c, 12, 76, 0
17, 106192, Control_c, 12, 11, 107
17, 106208, Control_c, 12, 11, 106
17, 106208, Note_on_c, 12, 76, 70
17, 106223, Control_c, 12, 11, 105
17, 106238, Control_c, 12, 11, 104
17, 106250, Note_on_c, 12, 76, 0
17, 106253, Control_c, 12, 11, 103
17, 106268, Control_c, 12, 11, 102
17, 106272, Note_on_c, 12, 74, 79
17, 106284, Control_c, 12, 11, 101
17, 106299, Control_c, 12, 11, 100
17, 106314, Note_on_c, 12, 74, 0
17, 106314, Control_c, 12, 11, 99
17, 106329, Control_c, 12, 11, 98
17, 106336, Note_on_c, 12, 74, 73
17, 106345, Control_c, 12, 11, 97
17, 106360, Control_c, 12, 11, 96
17, 106375, Control_c, 12, 11, 95
17, 106378, Note_on_c, 12, 74, 0
17, 106390, Control_c, 12, 11, 94
17, 106400, Note_on_c, 12, 74, 73
17, 106406, Control_c, 12, 11, 93
17, 106421, Control_c, 12, 11, 92
17, 106436, Control_c, 12, 11, 91
17, 106442, Note_on_c, 12, 74, 0
17, 106451, Control_c, 12, 11, 90
17, 106464, Note_on_c, 12, 71, 78
17, 106467, Control_c, 12, 11, 89
17, 106482, Control_c, 12, 11, 88
17, 106497, Control_c, 12, 11, 87
17, 106506, Note_on_c, 12, 71, 0
17, 106512, Control_c, 12, 11, 86
17, 106528, Control_c, 12, 11, 85
17, 106528, Note_on_c, 12, 71, 80
17, 106543, Control_c, 12, 11, 84
17, 106558, Control_c, 12, 11, 83
17, 106570, Note_on_c, 12, 71, 0
17, 106573, Control_c, 12, 11, 82
17, 106588, Control_c, 12, 11, 81
17, 106592, Note_on_c, 12, 71, 80
17, 106604, Control_c, 12, 11, 80
17, 106619, Control_c, 12, 11, 79
17, 106634, Note_on_c, 12, 71, 0
17, 106634, Control_c, 12, 11, 78
17, 106649, Control_c, 12, 11, 77
17, 106656, Note_on_c, 12, 69, 70
17, 106665, Control_c, 12, 11, 76
17, 106680, Control_c, 12, 11, 75
17, 106695, Control_c, 12, 11, 74
17, 106698, Note_on_c, 12, 69, 0
17, 106710, Control_c, 12, 11, 73
17, 106720, Note_on_c, 12, 69, 76
17, 106726, Control_c, 12, 11, 72
17, 106741, Control_c, 12, 11, 71
17, 106756, Control_c, 12, 11, 70
17, 106762, Note_on_c, 12, 69, 0
17, 106771, Control_c, 12, 11, 69
17, 106784, Note_on_c, 12, 69, 79
17, 106787, Control_c, 12, 11, 68
17, 106802, Control_c, 12, 11, 67
17, 106817, Control_c, 12, 11, 66
17, 106832, Control_c, 12, 11, 65
17, 106848, Control_c, 12, 11, 64
17, 106857, Control_c, 12, 11, 65
17, 106866, Control_c, 12, 11, 66
17, 106875, Control_c, 12, 11, 67
17, 106884, Control_c, 12, 11, 68
17, 106893, Control_c, 12, 11, 69
17, 106902, Control_c, 12, 11, 70
17, 106912, Control_c, 12, 11, 71
17, 106921, Control_c, 12, 11, 72
17, 106930, Control_c, 12, 11, 73
17, 106939, Control_c, 12, 11, 74
17, 106944, Note_on_c, 12, 69, 0
17, 106944, Note_on_c, 12, 71, 71
17, 106948, Control_c, 12, 11, 75
17, 106957, Control_c, 12, 11, 76
17, 106966, Control_c, 12, 11, 77
17, 106976, Control_c, 12, 11, 78
17, 106985, Control_c, 12, 11, 79
17, 106994, Control_c, 12, 11, 80
17, 107003, Control_c, 12, 11, 81
17, 107012, Control_c, 12, 11, 82
17, 107021, Control_c, 12, 11, 83
17, 107030, Control_c, 12, 11, 84
17, 107040, Note_on_c, 12, 71, 0
17, 107040, Control_c, 12, 11, 85
17, 107040, Note_on_c, 12, 74, 80
17, 107049, Control_c, 12, 11, 86
17, 107058, Control_c, 12, 11, 87
17, 107067, Control_c, 12, 11, 88
17, 107076, Control_c, 12, 11, 89
17, 107085, Control_c, 12, 11, 90
17, 107094, Control_c, 12, 11, 91
17, 107104, Control_c, 12, 11, 92
17, 107113, Control_c, 12, 11, 93
17, 107122, Control_c, 12, 11, 94
17, 107131, Control_c, 12, 11, 95
17, 107136, Note_on_c, 12, 74, 0
17, 107136, Note_on_c, 12, 76, 72
17, 107140, Control_c, 12, 11, 96
17, 107149, Control_c, 12, 11, 97
17, 107158, Control_c, 12, 11, 98
17, 107168, Control_c, 12, 11, 99
17, 107177, Control_c, 12, 11, 100
17, 107186, Control_c, 12, 11, 101
17, 107195, Control_c, 12, 11, 102
17, 107204, Control_c, 12, 11, 103
17, 107213, Control_c, 12, 11, 104
17, 107222, Control_c, 12, 11, 105
17, 107232, Note_on_c, 12, 76, 0
17, 107232, Control_c, 12, 11, 106
17, 107232, Note_on_c, 12, 80, 74
17, 107241, Control_c, 12, 11, 107
17, 107250, Control_c, 12, 11, 108
17, 107259, Control_c, 12, 11, 109
17, 107268, Control_c, 12, 11, 110
17, 107277, Control_c, 12, 11, 111
17, 107286, Control_c, 12, 11, 112
17, 107296, Control_c, 12, 11, 113
17, 107305, Control_c, 12, 11, 114
17, 107314, Control_c, 12, 11, 115
17, 107323, Control_c, 12, 11, 116
17, 107328, Note_on_c, 12, 80, 0
17, 107328, Note_on_c, 12, 81, 75
17, 107332, Control_c, 12, 11, 117
17, 107341, Control_c, 12, 11, 118
17, 107350, Control_c, 12, 11, 119
17, 107360, Control_c, 12, 11, 120
17, 107369, Control_c, 12, 11, 121
17, 107378, Control_c, 12, 11, 122
17, 107387, Control_c, 12, 11, 123
17, 107396, Control_c, 12, 11, 124
17, 107405, Control_c, 12, 11, 125
17, 107414, Control_c, 12, 11, 126
17, 107424, Note_on_c, 12, 81, 0
17, 107424, Control_c, 12, 11, 127
17, 107424, Control_c, 12, 11, 92
17, 107424, Note_on_c, 12, 87, 95
17, 107429, Control_c, 12, 11, 93
17, 107434, Control_c, 12, 11, 94
17, 107440, Control_c, 12, 11, 95
17, 107445, Control_c, 12, 11, 96
17, 107451, Control_c, 12, 11, 97
17, 107456, Control_c, 12, 11, 98
17, 107462, Control_c, 12, 11, 99
17, 107467, Control_c, 12, 11, 100
17, 107473, Control_c, 12, 11, 101
17, 107478, Control_c, 12, 11, 102
17, 107484, Control_c, 12, 11, 103
17, 107489, Control_c, 12, 11, 104
17, 107495, Control_c, 12, 11, 105
17, 107500, Control_c, 12, 11, 106
17, 107506, Control_c, 12, 11, 107
17, 107511, Control_c, 12, 11, 108
17, 107517, Control_c, 12, 11, 109
17, 107522, Control_c, 12, 11, 110
17, 107528, Control_c, 12, 11, 111
17, 107533, Control_c, 12, 11, 112
17, 107539, Control_c, 12, 11, 113
17, 107544, Control_c, 12, 11, 114
17, 107550, Control_c, 12, 11, 115
17, 107555, Control_c, 12, 11, 116
17, 107561, Control_c, 12, 11, 117
17, 107566, Control_c, 12, 11, 118
17, 107572, Control_c, 12, 11, 119
17, 107577, Control_c, 12, 11, 120
17, 107583, Control_c, 12, 11, 121
17, 107588, Control_c, 12, 11, 122
17, 107594, Control_c, 12, 11, 123
17, 107599, Control_c, 12, 11, 124
17, 107605, Control_c, 12, 11, 125
17, 107610, Control_c, 12, 11, 126
17, 107616, Note_on_c, 12, 87, 0
17, 107616, Control_c, 12, 11, 127
17, 107616, Note_on_c, 12, 92, 91
17, 107904, Note_on_c, 12, 92, 0
17, 107904, Note_on_c, 12, 89, 94
17, 108000, Note_on_c, 12, 89, 0
17, 108000, Note_on_c, 12, 87, 93
17, 108192, Note_on_c, 12, 87, 0
17, 108192, Note_on_c, 12, 85, 90
17, 108234, Note_on_c, 12, 85, 0
17, 108256, Note_on_c, 12, 85, 92
17, 108298, Note_on_c, 12, 85, 0
17, 108320, Note_on_c, 12, 85, 85
17, 108362, Note_on_c, 12, 85, 0
17, 108384, Note_on_c, 12, 82, 82
17, 108426, Note_on_c, 12, 82, 0
17, 108448, Note_on_c, 12, 82, 87
17, 108490, Note_on_c, 12, 82, 0
17, 108512, Note_on_c, 12, 82, 89
17, 108554, Note_on_c, 12, 82, 0
17, 108576, Note_on_c, 12, 80, 83
17, 108618, Note_on_c, 12, 80, 0
17, 108640, Note_on_c, 12, 80, 79
17, 108682, Note_on_c, 12, 80, 0
17, 108704, Note_on_c, 12, 80, 79
17, 108746, Note_on_c, 12, 80, 0
17, 108768, Note_on_c, 12, 77, 80
17, 108810, Note_on_c, 12, 77, 0
17, 108832, Note_on_c, 12, 77, 79
17, 108874, Note_on_c, 12, 77, 0
17, 108896, Note_on_c, 12, 77, 80
17, 108938, Note_on_c, 12, 77, 0
17, 108960, Note_on_c, 12, 75, 82
17, 109002, Note_on_c, 12, 75, 0
17, 109024, Note_on_c, 12, 75, 78
17, 109066, Note_on_c, 12, 75, 0
17, 109088, Note_on_c, 12, 75, 79
17, 109248, Note_on_c, 12, 75, 0
17, 109248, Note_on_c, 12, 77, 73
17, 109280, Note_on_c, 12, 77, 0
17, 109344, Note_on_c, 12, 80, 83
17, 109440, Note_on_c, 12, 80, 0
17, 109440, Note_on_c, 12, 82, 86
17, 109536, Note_on_c, 12, 82, 0
17, 109536, Note_on_c, 12, 85, 81
17, 109632, Note_on_c, 12, 85, 0
17, 109632, Note_on_c, 12, 87, 91
17, 109728, Note_on_c, 12, 87, 0
17, 109728, Note_on_c, 12, 83, 87
17, 109770, Note_on_c, 12, 83, 0
17, 109792, Note_on_c, 12, 83, 94
17, 109834, Note_on_c, 12, 83, 0
17, 109856, Note_on_c, 12, 83, 87
17, 109898, Note_on_c, 12, 83, 0
17, 109920, Note_on_c, 12, 80, 96
17, 109962, Note_on_c, 12, 80, 0
17, 109984, Note_on_c, 12, 80, 94
17, 110026, Note_on_c, 12, 80, 0
17, 110048, Note_on_c, 12, 80, 90
17, 110090, Note_on_c, 12, 80, 0
17, 110112, Note_on_c, 12, 83, 95
17, 110154, Note_on_c, 12, 83, 0
17, 110176, Note_on_c, 12, 83, 92
17, 110218, Note_on_c, 12, 83, 0
17, 110240, Note_on_c, 12, 83, 96
17, 110400, Note_on_c, 12, 83, 0
17, 110496, Note_on_c, 12, 80, 93
17, 110538, Note_on_c, 12, 80, 0
17, 110560, Note_on_c, 12, 80, 87
17, 110602, Note_on_c, 12, 80, 0
17, 110624, Note_on_c, 12, 80, 88
17, 110666, Note_on_c, 12, 80, 0
17, 110688, Note_on_c, 12, 83, 89
17, 110730, Note_on_c, 12, 83, 0
17, 110752, Note_on_c, 12, 83, 93
17, 110794, Note_on_c, 12, 83, 0
17, 110816, Note_on_c, 12, 83, 97
17, 110858, Note_on_c, 12, 83, 0
17, 110880, Note_on_c, 12, 84, 88
17, 110922, Note_on_c, 12, 84, 0
17, 110944, Note_on_c, 12, 84, 91
17, 110986, Note_on_c, 12, 84, 0
17, 111008, Note_on_c, 12, 84, 89
17, 111050, Note_on_c, 12, 84, 0
17, 111072, Note_on_c, 12, 84, 95
17, 111114, Note_on_c, 12, 84, 0
17, 111136, Note_on_c, 12, 84, 90
17, 111178, Note_on_c, 12, 84, 0
17, 111200, Note_on_c, 12, 84, 91
17, 111242, Note_on_c, 12, 84, 0
17, 111264, Note_on_c, 12, 84, 92
17, 111360, Note_on_c, 12, 84, 0
17, 111456, Note_on_c, 12, 63, 74
17, 111488, Note_on_c, 12, 63, 0
17, 111504, Note_on_c, 12, 63, 71
17, 111536, Note_on_c, 12, 63, 0
17, 111552, Note_on_c, 12, 66, 73
17, 111584, Note_on_c, 12, 66, 0
17, 111600, Note_on_c, 12, 66, 73
17, 111632, Note_on_c, 12, 66, 0
17, 111648, Note_on_c, 12, 68, 74
17, 111680, Note_on_c, 12, 68, 0
17, 111696, Note_on_c, 12, 68, 75
17, 111728, Note_on_c, 12, 68, 0
17, 111744, Note_on_c, 12, 71, 87
17, 111776, Note_on_c, 12, 71, 0
17, 111792, Note_on_c, 12, 71, 89
17, 111824, Note_on_c, 12, 71, 0
17, 111840, Note_on_c, 12, 74, 87
17, 111872, Note_on_c, 12, 74, 0
17, 111888, Note_on_c, 12, 74, 86
17, 111920, Note_on_c, 12, 74, 0
17, 111936, Note_on_c, 12, 77, 89
17, 111968, Note_on_c, 12, 77, 0
17, 111984, Note_on_c, 12, 77, 95
17, 112016, Note_on_c, 12, 77, 0
17, 112032, Control_c, 12, 11, 92
17, 112032, Note_on_c, 12, 87, 106
17, 112037, Control_c, 12, 11, 93
17, 112042, Control_c, 12, 11, 94
17, 112048, Control_c, 12, 11, 95
17, 112053, Control_c, 12, 11, 96
17, 112059, Control_c, 12, 11, 97
17, 112064, Control_c, 12, 11, 98
17, 112070, Control_c, 12, 11, 99
17, 112075, Control_c, 12, 11, 100
17, 112081, Control_c, 12, 11, 101
17, 112086, Control_c, 12, 11, 102
17, 112092, Control_c, 12, 11, 103
17, 112097, Control_c, 12, 11, 104
17, 112103, Control_c, 12, 11, 105
17, 112108, Control_c, 12, 11, 106
17, 112114, Control_c, 12, 11, 107
17, 112119, Control_c, 12, 11, 108
17, 112125, Control_c, 12, 11, 109
17, 112130, Control_c, 12, 11, 110
17, 112136, Control_c, 12, 11, 111
17, 112141, Control_c, 12, 11, 112
17, 112147, Control_c, 12, 11, 113
17, 112152, Control_c, 12, 11, 114
17, 112158, Control_c, 12, 11, 115
17, 112163, Control_c, 12, 11, 116
17, 112169, Control_c, 12, 11, 117
17, 112174, Control_c, 12, 11, 118
17, 112180, Control_c, 12, 11, 119
17, 112185, Control_c, 12, 11, 120
17, 112191, Control_c, 12, 11, 121
17, 112196, Control_c, 12, 11, 122
17, 112202, Control_c, 12, 11, 123
17, 112207, Control_c, 12, 11, 124
17, 112213, Control_c, 12, 11, 125
17, 112218, Control_c, 12, 11, 126
17, 112224, Note_on_c, 12, 87, 0
17, 112224, Control_c, 12, 11, 127
17, 112224, Note_on_c, 12, 92, 105
17, 112512, Note_on_c, 12, 92, 0
17, 112512, Note_on_c, 12, 89, 106
17, 112608, Note_on_c, 12, 89, 0
17, 112608, Note_on_c, 12, 87, 104
17, 112800, Note_on_c, 12, 87, 0
17, 112800, Note_on_c, 12, 85, 112
17, 112842, Note_on_c, 12, 85, 0
17, 112864, Note_on_c, 12, 85, 109
17, 112906, Note_on_c, 12, 85, 0
17, 112928, Note_on_c, 12, 85, 108
17, 112970, Note_on_c, 12, 85, 0
17, 112992, Note_on_c, 12, 82, 105
17, 113034, Note_on_c, 12, 82, 0
17, 113056, Note_on_c, 12, 82, 110
17, 113098, Note_on_c, 12, 82, 0
17, 113120, Note_on_c, 12, 82, 109
17, 113162, Note_on_c, 12, 82, 0
17, 113184, Note_on_c, 12, 80, 113
17, 113226, Note_on_c, 12, 80, 0
17, 113248, Note_on_c, 12, 80, 104
17, 113290, Note_on_c, 12, 80, 0
17, 113312, Note_on_c, 12, 80, 112
17, 113354, Note_on_c, 12, 80, 0
17, 113376, Note_on_c, 12, 77, 104
17, 113418, Note_on_c, 12, 77, 0
17, 113440, Note_on_c, 12, 77, 106
17, 113482, Note_on_c, 12, 77, 0
17, 113504, Note_on_c, 12, 77, 103
17, 113546, Note_on_c, 12, 77, 0
17, 113568, Note_on_c, 12, 75, 109
17, 113610, Note_on_c, 12, 75, 0
17, 113632, Note_on_c, 12, 75, 103
17, 113674, Note_on_c, 12, 75, 0
17, 113696, Note_on_c, 12, 75, 106
17, 113856, Note_on_c, 12, 75, 0
17, 113856, Note_on_c, 12, 77, 112
17, 113952, Note_on_c, 12, 77, 0
17, 113952, Note_on_c, 12, 80, 109
17, 114048, Note_on_c, 12, 80, 0
17, 114048, Note_on_c, 12, 82, 110
17, 114144, Note_on_c, 12, 82, 0
17, 114144, Note_on_c, 12, 85, 105
17, 114240, Note_on_c, 12, 85, 0
17, 114240, Note_on_c, 12, 87, 106
17, 114336, Note_on_c, 12, 87, 0
17, 114336, Note_on_c, 12, 80, 107
17, 114378, Note_on_c, 12, 80, 0
17, 114400, Note_on_c, 12, 80, 109
17, 114442, Note_on_c, 12, 80, 0
17, 114464, Note_on_c, 12, 80, 111
17, 114506, Note_on_c, 12, 80, 0
17, 114528, Note_on_c, 12, 77, 109
17, 114560, Note_on_c, 12, 77, 0
17, 114624, Note_on_c, 12, 80, 110
17, 114656, Note_on_c, 12, 80, 0
17, 114720, Note_on_c, 12, 82, 109
17, 114752, Note_on_c, 12, 82, 0
17, 114816, Note_on_c, 12, 80, 106
17, 114848, Note_on_c, 12, 80, 0
17, 114912, Note_on_c, 12, 77, 109
17, 114954, Note_on_c, 12, 77, 0
17, 114976, Note_on_c, 12, 77, 115
17, 115018, Note_on_c, 12, 77, 0
17, 115040, Note_on_c, 12, 80, 112
17, 115082, Note_on_c, 12, 80, 0
17, 115104, Note_on_c, 12, 82, 110
17, 115146, Note_on_c, 12, 82, 0
17, 115168, Note_on_c, 12, 80, 119
17, 115210, Note_on_c, 12, 80, 0
17, 115232, Note_on_c, 12, 80, 120
17, 115274, Note_on_c, 12, 80, 0
17, 115296, Note_on_c, 12, 77, 120
17, 115338, Note_on_c, 12, 77, 0
17, 115360, Note_on_c, 12, 77, 122
17, 115402, Note_on_c, 12, 77, 0
17, 115424, Note_on_c, 12, 82, 122
17, 115466, Note_on_c, 12, 82, 0
17, 115488, Note_on_c, 12, 80, 106
17, 115530, Note_on_c, 12, 80, 0
17, 115552, Note_on_c, 12, 80, 104
17, 115594, Note_on_c, 12, 80, 0
17, 115616, Note_on_c, 12, 80, 109
17, 115658, Note_on_c, 12, 80, 0
17, 115680, Note_on_c, 12, 77, 111
17, 115712, Note_on_c, 12, 77, 0
17, 115776, Note_on_c, 12, 80, 107
17, 115808, Note_on_c, 12, 80, 0
17, 115872, Note_on_c, 12, 82, 107
17, 115904, Note_on_c, 12, 82, 0
17, 115968, Note_on_c, 12, 80, 112
17, 116000, Note_on_c, 12, 80, 0
17, 116064, Note_on_c, 12, 77, 113
17, 116106, Note_on_c, 12, 77, 0
17, 116128, Note_on_c, 12, 77, 109
17, 116170, Note_on_c, 12, 77, 0
17, 116192, Note_on_c, 12, 80, 111
17, 116234, Note_on_c, 12, 80, 0
17, 116256, Note_on_c, 12, 82, 103
17, 116298, Note_on_c, 12, 82, 0
17, 116320, Note_on_c, 12, 80, 112
17, 116362, Note_on_c, 12, 80, 0
17, 116384, Note_on_c, 12, 80, 105
17, 116426, Note_on_c, 12, 80, 0
17, 116448, Note_on_c, 12, 77, 109
17, 116490, Note_on_c, 12, 77, 0
17, 116512, Note_on_c, 12, 77, 107
17, 116554, Note_on_c, 12, 77, 0
17, 116576, Note_on_c, 12, 80, 112
17, 116618, Note_on_c, 12, 80, 0
17, 116640, Note_on_c, 12, 84, 124
17, 116682, Note_on_c, 12, 84, 0
17, 116704, Note_on_c, 12, 84, 127
17, 116746, Note_on_c, 12, 84, 0
17, 116768, Note_on_c, 12, 84, 126
17, 116810, Note_on_c, 12, 84, 0
17, 116832, Note_on_c, 12, 83, 123
17, 116874, Note_on_c, 12, 83, 0
17, 116896, Note_on_c, 12, 83, 127
17, 116938, Note_on_c, 12, 83, 0
17, 116960, Note_on_c, 12, 83, 127
17, 117002, Note_on_c, 12, 83, 0
17, 117024, Note_on_c, 12, 82, 127
17, 117066, Note_on_c, 12, 82, 0
17, 117088, Note_on_c, 12, 82, 123
17, 117130, Note_on_c, 12, 82, 0
17, 117152, Note_on_c, 12, 82, 123
17, 117194, Note_on_c, 12, 82, 0
17, 117216, Note_on_c, 12, 72, 127
17, 117258, Note_on_c, 12, 72, 0
17, 117280, Note_on_c, 12, 72, 122
17, 117322, Note_on_c, 12, 72, 0
17, 117344, Note_on_c, 12, 72, 127
17, 117386, Note_on_c, 12, 72, 0
17, 117408, Note_on_c, 12, 71, 124
17, 117450, Note_on_c, 12, 71, 0
17, 117472, Note_on_c, 12, 71, 124
17, 117514, Note_on_c, 12, 71, 0
17, 117536, Note_on_c, 12, 71, 127
17, 117578, Note_on_c, 12, 71, 0
17, 117600, Note_on_c, 12, 70, 127
17, 117632, Note_on_c, 12, 70, 0
17, 117696, Note_on_c, 12, 74, 127
17, 117728, Note_on_c, 12, 74, 0
17, 117792, Note_on_c, 12, 72, 125
17, 117834, Note_on_c, 12, 72, 0
17, 117856, Note_on_c, 12, 72, 127
17, 117898, Note_on_c, 12, 72, 0
17, 117920, Note_on_c, 12, 72, 127
17, 117962, Note_on_c, 12, 72, 0
17, 117984, Note_on_c, 12, 71, 126
17, 118026, Note_on_c, 12, 71, 0
17, 118048, Note_on_c, 12, 71, 125
17, 118090, Note_on_c, 12, 71, 0
17, 118112, Note_on_c, 12, 71, 127
17, 118154, Note_on_c, 12, 71, 0
17, 118176, Note_on_c, 12, 70, 122
17, 118208, Note_on_c, 12, 70, 0
17, 118272, Note_on_c, 12, 74, 127
17, 118304, Note_on_c, 12, 74, 0
17, 118368, Note_on_c, 12, 60, 127
17, 118410, Note_on_c, 12, 60, 0
17, 118432, Note_on_c, 12, 60, 127
17, 118474, Note_on_c, 12, 60, 0
17, 118496, Note_on_c, 12, 60, 127
17, 118538, Note_on_c, 12, 60, 0
17, 118560, Note_on_c, 12, 59, 127
17, 118602, Note_on_c, 12, 59, 0
17, 118624, Note_on_c, 12, 59, 127
17, 118666, Note_on_c, 12, 59, 0
17, 118688, Note_on_c, 12, 59, 127
17, 118730, Note_on_c, 12, 59, 0
17, 118752, Note_on_c, 12, 58, 127
17, 118784, Note_on_c, 12, 58, 0
17, 118848, Note_on_c, 12, 62, 127
17, 118880, Note_on_c, 12, 62, 0
17, 118944, Program_c, 12, 45
17, 119136, Note_on_c, 12, 58, 94
17, 119232, Note_on_c, 12, 58, 0
17, 119232, Note_on_c, 12, 62, 95
17, 119328, Note_on_c, 12, 62, 0
17, 119904, Note_on_c, 12, 58, 97
17, 120000, Note_on_c, 12, 58, 0
17, 120000, Note_on_c, 12, 62, 104
17, 120096, Note_on_c, 12, 62, 0
17, 120288, Note_on_c, 12, 58, 92
17, 120384, Note_on_c, 12, 58, 0
17, 120480, Note_on_c, 12, 62, 80
17, 120576, Note_on_c, 12, 62, 0
17, 120864, Note_on_c, 12, 60, 60
17, 120960, Note_on_c, 12, 60, 0
17, 121056, Note_on_c, 12, 58, 54
17, 121152, Note_on_c, 12, 58, 0
17, 124704, Program_c, 12, 48
17, 129312, Control_c, 12, 11, 64
17, 129312, Note_on_c, 12, 67, 33
17, 129318, Control_c, 12, 11, 65
17, 129324, Control_c, 12, 11, 66
17, 129330, Control_c, 12, 11, 67
17, 129336, Control_c, 12, 11, 68
17, 129342, Control_c, 12, 11, 69
17, 129348, Control_c, 12, 11, 70
17, 129354, Control_c, 12, 11, 71
17, 129360, Control_c, 12, 11, 72
17, 129366, Control_c, 12, 11, 73
17, 129372, Control_c, 12, 11, 74
17, 129379, Control_c, 12, 11, 75
17, 129385, Control_c, 12, 11, 76
17, 129391, Control_c, 12, 11, 77
17, 129397, Control_c, 12, 11, 78
17, 129403, Control_c, 12, 11, 79
17, 129409, Control_c, 12, 11, 80
17, 129415, Control_c, 12, 11, 81
17, 129421, Control_c, 12, 11, 82
17, 129427, Control_c, 12, 11, 83
17, 129433, Control_c, 12, 11, 84
17, 129440, Control_c, 12, 11, 85
17, 129446, Control_c, 12, 11, 86
17, 129452, Control_c, 12, 11, 87
17, 129458, Control_c, 12, 11, 88
17, 129464, Control_c, 12, 11, 89
17, 129470, Control_c, 12, 11, 90
17, 129476, Control_c, 12, 11, 91
17, 129482, Control_c, 12, 11, 92
17, 129488, Control_c, 12, 11, 93
17, 129494, Control_c, 12, 11, 94
17, 129500, Control_c, 12, 11, 95
17, 129507, Control_c, 12, 11, 96
17, 129513, Control_c, 12, 11, 97
17, 129519, Control_c, 12, 11, 98
17, 129525, Control_c, 12, 11, 99
17, 129531, Control_c, 12, 11, 100
17, 129537, Control_c, 12, 11, 101
17, 129543, Control_c, 12, 11, 102
17, 129549, Control_c, 12, 11, 103
17, 129555, Control_c, 12, 11, 104
17, 129561, Control_c, 12, 11, 105
17, 129568, Control_c, 12, 11, 106
17, 129574, Control_c, 12, 11, 107
17, 129580, Control_c, 12, 11, 108
17, 129586, Control_c, 12, 11, 109
17, 129592, Control_c, 12, 11, 110
17, 129598, Control_c, 12, 11, 111
17, 129604, Control_c, 12, 11, 112
17, 129610, Control_c, 12, 11, 113
17, 129616, Control_c, 12, 11, 114
17, 129622, Control_c, 12, 11, 115
17, 129628, Control_c, 12, 11, 116
17, 129635, Control_c, 12, 11, 117
17, 129641, Control_c, 12, 11, 118
17, 129647, Control_c, 12, 11, 119
17, 129653, Control_c, 12, 11, 120
17, 129659, Control_c, 12, 11, 121
17, 129665, Control_c, 12, 11, 122
17, 129671, Control_c, 12, 11, 123
17, 129677, Control_c, 12, 11, 124
17, 129683, Control_c, 12, 11, 125
17, 129689, Control_c, 12, 11, 126
17, 129696, Control_c, 12, 11, 127
17, 131616, Note_on_c, 12, 67, 0
17, 131616, Note_on_c, 12, 67, 25
17, 133920, Note_on_c, 12, 67, 0
17, 133920, Control_c, 12, 11, 64
17, 133920, Note_on_c, 12, 68, 31
17, 133926, Control_c, 12, 11, 65
17, 133932, Control_c, 12, 11, 66
17, 133938, Control_c, 12, 11, 67
17, 133944, Control_c, 12, 11, 68
17, 133950, Control_c, 12, 11, 69
17, 133956, Control_c, 12, 11, 70
17, 133962, Control_c, 12, 11, 71
17, 133968, Control_c, 12, 11, 72
17, 133974, Control_c, 12, 11, 73
17, 133980, Control_c, 12, 11, 74
17, 133987, Control_c, 12, 11, 75
17, 133993, Control_c, 12, 11, 76
17, 133999, Control_c, 12, 11, 77
17, 134005, Control_c, 12, 11, 78
17, 134011, Control_c, 12, 11, 79
17, 134017, Control_c, 12, 11, 80
17, 134023, Control_c, 12, 11, 81
17, 134029, Control_c, 12, 11, 82
17, 134035, Control_c, 12, 11, 83
17, 134041, Control_c, 12, 11, 84
17, 134048, Control_c, 12, 11, 85
17, 134054, Control_c, 12, 11, 86
17, 134060, Control_c, 12, 11, 87
17, 134066, Control_c, 12, 11, 88
17, 134072, Control_c, 12, 11, 89
17, 134078, Control_c, 12, 11, 90
17, 134084, Control_c, 12, 11, 91
17, 134090, Control_c, 12, 11, 92
17, 134096, Control_c, 12, 11, 93
17, 134102, Control_c, 12, 11, 94
17, 134108, Control_c, 12, 11, 95
17, 134115, Control_c, 12, 11, 96
17, 134121, Control_c, 12, 11, 97
17, 134127, Control_c, 12, 11, 98
17, 134133, Control_c, 12, 11, 99
17, 134139, Control_c, 12, 11, 100
17, 134145, Control_c, 12, 11, 101
17, 134151, Control_c, 12, 11, 102
17, 134157, Control_c, 12, 11, 103
17, 134163, Control_c, 12, 11, 104
17, 134169, Control_c, 12, 11, 105
17, 134176, Control_c, 12, 11, 106
17, 134182, Control_c, 12, 11, 107
17, 134188, Control_c, 12, 11, 108
17, 134194, Control_c, 12, 11, 109
17, 134200, Control_c, 12, 11, 110
17, 134206, Control_c, 12, 11, 111
17, 134212, Control_c, 12, 11, 112
17, 134218, Control_c, 12, 11, 113
17, 134224, Control_c, 12, 11, 114
17, 134230, Control_c, 12, 11, 115
17, 134236, Control_c, 12, 11, 116
17, 134243, Control_c, 12, 11, 117
17, 134249, Control_c, 12, 11, 118
17, 134255, Control_c, 12, 11, 119
17, 134261, Control_c, 12, 11, 120
17, 134267, Control_c, 12, 11, 121
17, 134273, Control_c, 12, 11, 122
17, 134279, Control_c, 12, 11, 123
17, 134285, Control_c, 12, 11, 124
17, 134291, Control_c, 12, 11, 125
17, 134297, Control_c, 12, 11, 126
17, 134304, Control_c, 12, 11, 127
17, 135072, Note_on_c, 12, 68, 0
17, 136224, Control_c, 12, 11, 64
17, 136224, Note_on_c, 12, 68, 26
17, 136230, Control_c, 12, 11, 65
17, 136236, Control_c, 12, 11, 66
17, 136242, Control_c, 12, 11, 67
17, 136248, Control_c, 12, 11, 68
17, 136254, Control_c, 12, 11, 69
17, 136260, Control_c, 12, 11, 70
17, 136266, Control_c, 12, 11, 71
17, 136272, Control_c, 12, 11, 72
17, 136278, Control_c, 12, 11, 73
17, 136284, Control_c, 12, 11, 74
17, 136291, Control_c, 12, 11, 75
17, 136297, Control_c, 12, 11, 76
17, 136303, Control_c, 12, 11, 77
17, 136309, Control_c, 12, 11, 78
17, 136315, Control_c, 12, 11, 79
17, 136321, Control_c, 12, 11, 80
17, 136327, Control_c, 12, 11, 81
17, 136333, Control_c, 12, 11, 82
17, 136339, Control_c, 12, 11, 83
17, 136345, Control_c, 12, 11, 84
17, 136352, Control_c, 12, 11, 85
17, 136358, Control_c, 12, 11, 86
17, 136364, Control_c, 12, 11, 87
17, 136370, Control_c, 12, 11, 88
17, 136376, Control_c, 12, 11, 89
17, 136382, Control_c, 12, 11, 90
17, 136388, Control_c, 12, 11, 91
17, 136394, Control_c, 12, 11, 92
17, 136400, Control_c, 12, 11, 93
17, 136406, Control_c, 12, 11, 94
17, 136412, Control_c, 12, 11, 95
17, 136419, Control_c, 12, 11, 96
17, 136425, Control_c, 12, 11, 97
17, 136431, Control_c, 12, 11, 98
17, 136437, Control_c, 12, 11, 99
17, 136443, Control_c, 12, 11, 100
17, 136449, Control_c, 12, 11, 101
17, 136455, Control_c, 12, 11, 102
17, 136461, Control_c, 12, 11, 103
17, 136467, Control_c, 12, 11, 104
17, 136473, Control_c, 12, 11, 105
17, 136480, Control_c, 12, 11, 106
17, 136486, Control_c, 12, 11, 107
17, 136492, Control_c, 12, 11, 108
17, 136498, Control_c, 12, 11, 109
17, 136504, Control_c, 12, 11, 110
17, 136510, Control_c, 12, 11, 111
17, 136516, Control_c, 12, 11, 112
17, 136522, Control_c, 12, 11, 113
17, 136528, Control_c, 12, 11, 114
17, 136534, Control_c, 12, 11, 115
17, 136540, Control_c, 12, 11, 116
17, 136547, Control_c, 12, 11, 117
17, 136553, Control_c, 12, 11, 118
17, 136559, Control_c, 12, 11, 119
17, 136565, Control_c, 12, 11, 120
17, 136571, Control_c, 12, 11, 121
17, 136577, Control_c, 12, 11, 122
17, 136583, Control_c, 12, 11, 123
17, 136589, Control_c, 12, 11, 124
17, 136595, Control_c, 12, 11, 125
17, 136601, Control_c, 12, 11, 126
17, 136608, Control_c, 12, 11, 127
17, 137376, Note_on_c, 12, 68, 0
17, 137376, End_track
18, 0, Start_track
18, 0, Title_t, "Violini II - b"
18, 0, MIDI_port, 0
18, 177, Control_c, 12, 0, 0
18, 178, Control_c, 12, 32, 0
18, 179, Program_c, 12, 48
18, 180, Control_c, 12, 7, 127
18, 181, Control_c, 12, 10, 54
18, 182, Control_c, 12, 91, 127
18, 1344, Note_on_c, 12, 61, 40
18, 1536, Note_on_c, 12, 61, 0
18, 1920, Note_on_c, 12, 61, 40
18, 2112, Note_on_c, 12, 61, 0
18, 2496, Note_on_c, 12, 61, 65
18, 2688, Note_on_c, 12, 61, 0
18, 3072, Note_on_c, 12, 61, 59
18, 3264, Note_on_c, 12, 61, 0
18, 3456, Note_on_c, 12, 61, 32
18, 3840, Note_on_c, 12, 61, 0
18, 3840, Note_on_c, 12, 62, 35
18, 4032, Note_on_c, 12, 62, 0
18, 5184, Note_on_c, 12, 62, 25
18, 5208, Note_on_c, 12, 62, 0
18, 5208, Note_on_c, 12, 60, 33
18, 5232, Note_on_c, 12, 60, 0
18, 5232, Note_on_c, 12, 62, 35
18, 5256, Note_on_c, 12, 62, 0
18, 5256, Note_on_c, 12, 60, 27
18, 5280, Note_on_c, 12, 60, 0
18, 5280, Note_on_c, 12, 62, 33
18, 5304, Note_on_c, 12, 62, 0
18, 5304, Note_on_c, 12, 60, 31
18, 5328, Note_on_c, 12, 60, 0
18, 5328, Note_on_c, 12, 62, 28
18, 5352, Note_on_c, 12, 62, 0
18, 5352, Note_on_c, 12, 60, 35
18, 5376, Note_on_c, 12, 60, 0
18, 5376, Note_on_c, 12, 62, 34
18, 5400, Note_on_c, 12, 62, 0
18, 5400, Note_on_c, 12, 60, 31
18, 5424, Note_on_c, 12, 60, 0
18, 5424, Note_on_c, 12, 62, 29
18, 5448, Note_on_c, 12, 62, 0
18, 5448, Note_on_c, 12, 60, 33
18, 5472, Note_on_c, 12, 60, 0
18, 5472, Note_on_c, 12, 62, 35
18, 5496, Note_on_c, 12, 62, 0
18, 5496, Note_on_c, 12, 60, 27
18, 5520, Note_on_c, 12, 60, 0
18, 5520, Note_on_c, 12, 62, 25
18, 5544, Note_on_c, 12, 62, 0
18, 5544, Note_on_c, 12, 60, 26
18, 5568, Note_on_c, 12, 60, 0
18, 5568, Note_on_c, 12, 62, 29
18, 5592, Note_on_c, 12, 62, 0
18, 5592, Note_on_c, 12, 60, 32
18, 5616, Note_on_c, 12, 60, 0
18, 5616, Note_on_c, 12, 62, 27
18, 5640, Note_on_c, 12, 62, 0
18, 5640, Note_on_c, 12, 60, 28
18, 5664, Note_on_c, 12, 60, 0
18, 5664, Note_on_c, 12, 62, 35
18, 5688, Note_on_c, 12, 62, 0
18, 5688, Note_on_c, 12, 60, 33
18, 5712, Note_on_c, 12, 60, 0
18, 5712, Note_on_c, 12, 62, 27
18, 5736, Note_on_c, 12, 62, 0
18, 5736, Note_on_c, 12, 60, 32
18, 5760, Note_on_c, 12, 60, 0
18, 5760, Note_on_c, 12, 60, 30
18, 8352, Note_on_c, 12, 60, 0
18, 28608, Note_on_c, 12, 70, 34
18, 28704, Note_on_c, 12, 70, 0
18, 28800, Note_on_c, 12, 70, 27
18, 28896, Note_on_c, 12, 70, 0
18, 28992, Note_on_c, 12, 70, 26
18, 29088, Note_on_c, 12, 70, 0
18, 29184, Note_on_c, 12, 70, 26
18, 29280, Note_on_c, 12, 70, 0
18, 29376, Note_on_c, 12, 70, 26
18, 29472, Note_on_c, 12, 70, 0
18, 29568, Note_on_c, 12, 70, 32
18, 29664, Note_on_c, 12, 70, 0
18, 29760, Note_on_c, 12, 70, 31
18, 29856, Note_on_c, 12, 70, 0
18, 29952, Note_on_c, 12, 70, 33
18, 30048, Note_on_c, 12, 70, 0
18, 30144, Note_on_c, 12, 70, 26
18, 30240, Note_on_c, 12, 70, 0
18, 30336, Note_on_c, 12, 70, 33
18, 30432, Note_on_c, 12, 70, 0
18, 30528, Note_on_c, 12, 70, 25
18, 30624, Note_on_c, 12, 70, 0
18, 30720, Note_on_c, 12, 70, 26
18, 30816, Note_on_c, 12, 70, 0
18, 30912, Note_on_c, 12, 70, 30
18, 31008, Note_on_c, 12, 70, 0
18, 31104, Note_on_c, 12, 70, 34
18, 31200, Note_on_c, 12, 70, 0
18, 31296, Note_on_c, 12, 70, 26
18, 31392, Note_on_c, 12, 70, 0
18, 31488, Note_on_c, 12, 70, 29
18, 31584, Note_on_c, 12, 70, 0
18, 31680, Note_on_c, 12, 58, 35
18, 31776, Note_on_c, 12, 58, 0
18, 40032, Note_on_c, 12, 70, 31
18, 40128, Note_on_c, 12, 70, 0
18, 40128, Note_on_c, 12, 69, 31
18, 40224, Note_on_c, 12, 69, 0
18, 40224, Note_on_c, 12, 68, 30
18, 40416, Note_on_c, 12, 68, 0
18, 40416, Note_on_c, 12, 69, 31
18, 40608, Note_on_c, 12, 69, 0
18, 40608, Note_on_c, 12, 70, 30
18, 40704, Note_on_c, 12, 70, 0
18, 40704, Note_on_c, 12, 69, 32
18, 40800, Note_on_c, 12, 69, 0
18, 40800, Note_on_c, 12, 68, 31
18, 40992, Note_on_c, 12, 68, 0
18, 40992, Note_on_c, 12, 67, 25
18, 41184, Note_on_c, 12, 67, 0
18, 41184, Note_on_c, 12, 70, 58
18, 41280, Note_on_c, 12, 70, 0
18, 41280, Note_on_c, 12, 69, 60
18, 41376, Note_on_c, 12, 69, 0
18, 41376, Note_on_c, 12, 68, 59
18, 41568, Note_on_c, 12, 68, 0
18, 41568, Note_on_c, 12, 71, 61
18, 41760, Note_on_c, 12, 71, 0
18, 41760, Note_on_c, 12, 70, 57
18, 41856, Note_on_c, 12, 70, 0
18, 41856, Note_on_c, 12, 69, 56
18, 41952, Note_on_c, 12, 69, 0
18, 41952, Note_on_c, 12, 68, 55
18, 42144, Note_on_c, 12, 68, 0
18, 42144, Note_on_c, 12, 67, 61
18, 42336, Note_on_c, 12, 67, 0
18, 42336, Note_on_c, 12, 66, 64
18, 42432, Note_on_c, 12, 66, 0
18, 45792, Note_on_c, 12, 69, 41
18, 47520, Note_on_c, 12, 69, 0
18, 55008, Note_on_c, 12, 58, 50
18, 56160, Note_on_c, 12, 58, 0
18, 61152, Note_on_c, 12, 69, 49
18, 61344, Note_on_c, 12, 69, 0
18, 61344, Note_on_c, 12, 73, 45
18, 61536, Note_on_c, 12, 73, 0
18, 61536, Note_on_c, 12, 69, 49
18, 61728, Note_on_c, 12, 69, 0
18, 61728, Note_on_c, 12, 73, 46
18, 61920, Note_on_c, 12, 73, 0
18, 62304, Note_on_c, 12, 69, 40
18, 62496, Note_on_c, 12, 69, 0
18, 62496, Note_on_c, 12, 73, 50
18, 62688, Note_on_c, 12, 73, 0
18, 62688, Note_on_c, 12, 69, 41
18, 62880, Note_on_c, 12, 69, 0
18, 62880, Note_on_c, 12, 73, 40
18, 63072, Note_on_c, 12, 73, 0
18, 67680, Program_c, 12, 45
18, 71136, Note_on_c, 12, 67, 31
18, 71136, Note_on_c, 12, 70, 32
18, 71328, Note_on_c, 12, 67, 0
18, 71328, Note_on_c, 12, 70, 0
18, 71328, Note_on_c, 12, 64, 34
18, 71328, Note_on_c, 12, 69, 33
18, 71520, Note_on_c, 12, 64, 0
18, 71520, Note_on_c, 12, 69, 0
18, 71520, Note_on_c, 12, 67, 32
18, 71520, Note_on_c, 12, 70, 35
18, 71712, Note_on_c, 12, 67, 0
18, 71712, Note_on_c, 12, 70, 0
18, 71712, Note_on_c, 12, 64, 35
18, 71712, Note_on_c, 12, 69, 26
18, 71904, Note_on_c, 12, 64, 0
18, 71904, Note_on_c, 12, 69, 0
18, 71904, Note_on_c, 12, 67, 29
18, 71904, Note_on_c, 12, 70, 26
18, 72096, Note_on_c, 12, 67, 0
18, 72096, Note_on_c, 12, 70, 0
18, 72096, Note_on_c, 12, 64, 28
18, 72096, Note_on_c, 12, 69, 28
18, 72288, Note_on_c, 12, 64, 0
18, 72288, Note_on_c, 12, 69, 0
18, 74592, Note_on_c, 12, 68, 28
18, 74592, Note_on_c, 12, 72, 28
18, 74784, Note_on_c, 12, 68, 0
18, 74784, Note_on_c, 12, 72, 0
18, 74784, Note_on_c, 12, 67, 32
18, 74784, Note_on_c, 12, 71, 35
18, 74976, Note_on_c, 12, 67, 0
18, 74976, Note_on_c, 12, 71, 0
18, 74976, Note_on_c, 12, 66, 34
18, 74976, Note_on_c, 12, 70, 26
18, 75008, Note_on_c, 12, 66, 0
18, 75008, Note_on_c, 12, 70, 0
18, 75072, Note_on_c, 12, 70, 33
18, 75072, Note_on_c, 12, 74, 27
18, 75104, Note_on_c, 12, 70, 0
18, 75104, Note_on_c, 12, 74, 0
18, 75168, Note_on_c, 12, 65, 28
18, 75168, Note_on_c, 12, 69, 31
18, 75264, Note_on_c, 12, 65, 0
18, 75264, Note_on_c, 12, 69, 0
18, 75744, Note_on_c, 12, 68, 31
18, 75744, Note_on_c, 12, 72, 27
18, 75936, Note_on_c, 12, 68, 0
18, 75936, Note_on_c, 12, 72, 0
18, 75936, Note_on_c, 12, 67, 26
18, 75936, Note_on_c, 12, 71, 29
18, 76128, Note_on_c, 12, 67, 0
18, 76128, Note_on_c, 12, 71, 0
18, 76128, Note_on_c, 12, 66, 35
18, 76128, Note_on_c, 12, 70, 25
18, 76160, Note_on_c, 12, 66, 0
18, 76160, Note_on_c, 12, 70, 0
18, 76224, Note_on_c, 12, 70, 31
18, 76224, Note_on_c, 12, 74, 31
18, 76256, Note_on_c, 12, 70, 0
18, 76256, Note_on_c, 12, 74, 0
18, 76320, Note_on_c, 12, 65, 35
18, 76352, Note_on_c, 12, 65, 0
18, 76416, Note_on_c, 12, 68, 29
18, 76448, Note_on_c, 12, 68, 0
18, 76448, Note_on_c, 12, 67, 30
18, 76480, Note_on_c, 12, 67, 0
18, 76480, Note_on_c, 12, 66, 32
18, 76512, Note_on_c, 12, 66, 0
18, 76512, Note_on_c, 12, 65, 28
18, 76544, Note_on_c, 12, 65, 0
18, 76896, Note_on_c, 12, 64, 50
18, 76992, Note_on_c, 12, 64, 0
18, 76992, Note_on_c, 12, 60, 35
18, 77088, Note_on_c, 12, 60, 0
18, 77472, Program_c, 12, 48
18, 77472, Note_on_c, 12, 74, 35
18, 77504, Note_on_c, 12, 74, 0
18, 77504, Note_on_c, 12, 76, 30
18, 77536, Note_on_c, 12, 76, 0
18, 77536, Note_on_c, 12, 74, 26
18, 77568, Note_on_c, 12, 74, 0
18, 77568, Note_on_c, 12, 70, 32
18, 77600, Note_on_c, 12, 70, 0
18, 77600, Note_on_c, 12, 72, 31
18, 77632, Note_on_c, 12, 72, 0
18, 77632, Note_on_c, 12, 70, 23
18, 77664, Note_on_c, 12, 70, 0
18, 77664, Note_on_c, 12, 69, 26
18, 77696, Note_on_c, 12, 69, 0
18, 77696, Note_on_c, 12, 70, 29
18, 77728, Note_on_c, 12, 70, 0
18, 77728, Note_on_c, 12, 69, 28
18, 77760, Note_on_c, 12, 69, 0
18, 77760, Note_on_c, 12, 65, 25
18, 77792, Note_on_c, 12, 65, 0
18, 77792, Note_on_c, 12, 67, 18
18, 77824, Note_on_c, 12, 67, 0
18, 77824, Note_on_c, 12, 65, 18
18, 77856, Note_on_c, 12, 65, 0
18, 77856, Note_on_c, 12, 61, 21
18, 77952, Note_on_c, 12, 61, 0
18, 78048, Note_on_c, 12, 74, 35
18, 78080, Note_on_c, 12, 74, 0
18, 78080, Note_on_c, 12, 76, 28
18, 78112, Note_on_c, 12, 76, 0
18, 78112, Note_on_c, 12, 74, 27
18, 78144, Note_on_c, 12, 74, 0
18, 78144, Note_on_c, 12, 70, 31
18, 78176, Note_on_c, 12, 70, 0
18, 78176, Note_on_c, 12, 72, 33
18, 78208, Note_on_c, 12, 72, 0
18, 78208, Note_on_c, 12, 70, 24
18, 78240, Note_on_c, 12, 70, 0
18, 78240, Note_on_c, 12, 69, 25
18, 78272, Note_on_c, 12, 69, 0
18, 78272, Note_on_c, 12, 70, 30
18, 78304, Note_on_c, 12, 70, 0
18, 78304, Note_on_c, 12, 69, 27
18, 78336, Note_on_c, 12, 69, 0
18, 78336, Note_on_c, 12, 65, 20
18, 78368, Note_on_c, 12, 65, 0
18, 78368, Note_on_c, 12, 67, 21
18, 78400, Note_on_c, 12, 67, 0
18, 78400, Note_on_c, 12, 65, 24
18, 78432, Note_on_c, 12, 65, 0
18, 78432, Note_on_c, 12, 61, 25
18, 78528, Note_on_c, 12, 61, 0
18, 100512, Note_on_c, 12, 69, 61
18, 100704, Note_on_c, 12, 69, 0
18, 100704, Note_on_c, 12, 75, 56
18, 100992, Note_on_c, 12, 75, 0
18, 100992, Note_on_c, 12, 73, 63
18, 101088, Note_on_c, 12, 73, 0
18, 101088, Note_on_c, 12, 69, 57
18, 101280, Note_on_c, 12, 69, 0
18, 101280, Note_on_c, 12, 68, 58
18, 101322, Note_on_c, 12, 68, 0
18, 101344, Note_on_c, 12, 68, 59
18, 101386, Note_on_c, 12, 68, 0
18, 101408, Note_on_c, 12, 68, 64
18, 101450, Note_on_c, 12, 68, 0
18, 101472, Note_on_c, 12, 64, 59
18, 101514, Note_on_c, 12, 64, 0
18, 101536, Note_on_c, 12, 64, 57
18, 101578, Note_on_c, 12, 64, 0
18, 101600, Note_on_c, 12, 64, 59
18, 101642, Note_on_c, 12, 64, 0
18, 101664, Note_on_c, 12, 66, 64
18, 101856, Note_on_c, 12, 66, 0
18, 101856, Note_on_c, 12, 71, 62
18, 101898, Note_on_c, 12, 71, 0
18, 101920, Note_on_c, 12, 71, 55
18, 101962, Note_on_c, 12, 71, 0
18, 101984, Note_on_c, 12, 71, 61
18, 102026, Note_on_c, 12, 71, 0
18, 102048, Note_on_c, 12, 69, 60
18, 102090, Note_on_c, 12, 69, 0
18, 102112, Note_on_c, 12, 69, 64
18, 102154, Note_on_c, 12, 69, 0
18, 102176, Note_on_c, 12, 69, 61
18, 102432, Note_on_c, 12, 69, 0
18, 102432, Note_on_c, 12, 75, 60
18, 102474, Note_on_c, 12, 75, 0
18, 102496, Note_on_c, 12, 75, 59
18, 102538, Note_on_c, 12, 75, 0
18, 102560, Note_on_c, 12, 75, 65
18, 102602, Note_on_c, 12, 75, 0
18, 102624, Note_on_c, 12, 73, 61
18, 102666, Note_on_c, 12, 73, 0
18, 102688, Note_on_c, 12, 73, 63
18, 102730, Note_on_c, 12, 73, 0
18, 102752, Note_on_c, 12, 73, 62
18, 102794, Note_on_c, 12, 73, 0
18, 102816, Note_on_c, 12, 78, 78
18, 103008, Note_on_c, 12, 78, 0
18, 103008, Note_on_c, 12, 83, 74
18, 103296, Note_on_c, 12, 83, 0
18, 103296, Note_on_c, 12, 80, 77
18, 103392, Note_on_c, 12, 80, 0
18, 103392, Note_on_c, 12, 78, 74
18, 103584, Note_on_c, 12, 78, 0
18, 103584, Note_on_c, 12, 76, 74
18, 103626, Note_on_c, 12, 76, 0
18, 103648, Note_on_c, 12, 76, 70
18, 103690, Note_on_c, 12, 76, 0
18, 103712, Note_on_c, 12, 76, 75
18, 103754, Note_on_c, 12, 76, 0
18, 103776, Note_on_c, 12, 73, 75
18, 103818, Note_on_c, 12, 73, 0
18, 103840, Note_on_c, 12, 73, 79
18, 103882, Note_on_c, 12, 73, 0
18, 103904, Note_on_c, 12, 73, 73
18, 103946, Note_on_c, 12, 73, 0
18, 103968, Note_on_c, 12, 71, 78
18, 104010, Note_on_c, 12, 71, 0
18, 104032, Note_on_c, 12, 71, 80
18, 104074, Note_on_c, 12, 71, 0
18, 104096, Note_on_c, 12, 71, 70
18, 104138, Note_on_c, 12, 71, 0
18, 104160, Note_on_c, 12, 68, 73
18, 104202, Note_on_c, 12, 68, 0
18, 104224, Note_on_c, 12, 68, 73
18, 104266, Note_on_c, 12, 68, 0
18, 104288, Note_on_c, 12, 68, 71
18, 104330, Note_on_c, 12, 68, 0
18, 104352, Note_on_c, 12, 66, 75
18, 104394, Note_on_c, 12, 66, 0
18, 104416, Note_on_c, 12, 66, 70
18, 104458, Note_on_c, 12, 66, 0
18, 104480, Note_on_c, 12, 66, 79
18, 104640, Note_on_c, 12, 66, 0
18, 104640, Note_on_c, 12, 68, 73
18, 104736, Note_on_c, 12, 68, 0
18, 104736, Note_on_c, 12, 71, 71
18, 104832, Note_on_c, 12, 71, 0
18, 104832, Note_on_c, 12, 73, 72
18, 104928, Note_on_c, 12, 73, 0
18, 104928, Note_on_c, 12, 76, 73
18, 105024, Note_on_c, 12, 76, 0
18, 105024, Note_on_c, 12, 78, 78
18, 105120, Note_on_c, 12, 78, 0
18, 105120, Note_on_c, 12, 78, 73
18, 105312, Note_on_c, 12, 78, 0
18, 105312, Note_on_c, 12, 83, 71
18, 105600, Note_on_c, 12, 83, 0
18, 105600, Note_on_c, 12, 80, 79
18, 105696, Note_on_c, 12, 80, 0
18, 105696, Note_on_c, 12, 78, 79
18, 105888, Note_on_c, 12, 78, 0
18, 105888, Note_on_c, 12, 76, 74
18, 105930, Note_on_c, 12, 76, 0
18, 105952, Note_on_c, 12, 76, 79
18, 105994, Note_on_c, 12, 76, 0
18, 106016, Note_on_c, 12, 76, 77
18, 106058, Note_on_c, 12, 76, 0
18, 106080, Note_on_c, 12, 73, 79
18, 106122, Note_on_c, 12, 73, 0
18, 106144, Note_on_c, 12, 73, 75
18, 106186, Note_on_c, 12, 73, 0
18, 106208, Note_on_c, 12, 73, 76
18, 106250, Note_on_c, 12, 73, 0
18, 106272, Note_on_c, 12, 71, 70
18, 106314, Note_on_c, 12, 71, 0
18, 106336, Note_on_c, 12, 71, 73
18, 106378, Note_on_c, 12, 71, 0
18, 106400, Note_on_c, 12, 71, 71
18, 106442, Note_on_c, 12, 71, 0
18, 106464, Note_on_c, 12, 68, 80
18, 106506, Note_on_c, 12, 68, 0
18, 106528, Note_on_c, 12, 68, 80
18, 106570, Note_on_c, 12, 68, 0
18, 106592, Note_on_c, 12, 68, 78
18, 106634, Note_on_c, 12, 68, 0
18, 106656, Note_on_c, 12, 66, 74
18, 106698, Note_on_c, 12, 66, 0
18, 106720, Note_on_c, 12, 66, 78
18, 106762, Note_on_c, 12, 66, 0
18, 106784, Note_on_c, 12, 66, 71
18, 106944, Note_on_c, 12, 66, 0
18, 106944, Note_on_c, 12, 68, 79
18, 107040, Note_on_c, 12, 68, 0
18, 107040, Note_on_c, 12, 71, 78
18, 107136, Note_on_c, 12, 71, 0
18, 107136, Note_on_c, 12, 73, 78
18, 107232, Note_on_c, 12, 73, 0
18, 107232, Note_on_c, 12, 76, 74
18, 107328, Note_on_c, 12, 76, 0
18, 107328, Note_on_c, 12, 78, 73
18, 107424, Note_on_c, 12, 78, 0
18, 107424, Note_on_c, 12, 78, 89
18, 107616, Note_on_c, 12, 78, 0
18, 107616, Note_on_c, 12, 84, 94
18, 107904, Note_on_c, 12, 84, 0
18, 107904, Note_on_c, 12, 80, 96
18, 108000, Note_on_c, 12, 80, 0
18, 108000, Note_on_c, 12, 78, 91
18, 108192, Note_on_c, 12, 78, 0
18, 108192, Note_on_c, 12, 77, 87
18, 108234, Note_on_c, 12, 77, 0
18, 108256, Note_on_c, 12, 77, 88
18, 108298, Note_on_c, 12, 77, 0
18, 108320, Note_on_c, 12, 77, 90
18, 108362, Note_on_c, 12, 77, 0
18, 108384, Note_on_c, 12, 73, 92
18, 108426, Note_on_c, 12, 73, 0
18, 108448, Note_on_c, 12, 73, 84
18, 108490, Note_on_c, 12, 73, 0
18, 108512, Note_on_c, 12, 73, 87
18, 108554, Note_on_c, 12, 73, 0
18, 108576, Note_on_c, 12, 72, 88
18, 108618, Note_on_c, 12, 72, 0
18, 108640, Note_on_c, 12, 72, 88
18, 108682, Note_on_c, 12, 72, 0
18, 108704, Note_on_c, 12, 72, 83
18, 108746, Note_on_c, 12, 72, 0
18, 108768, Note_on_c, 12, 68, 86
18, 108810, Note_on_c, 12, 68, 0
18, 108832, Note_on_c, 12, 68, 76
18, 108874, Note_on_c, 12, 68, 0
18, 108896, Note_on_c, 12, 68, 80
18, 108938, Note_on_c, 12, 68, 0
18, 108960, Note_on_c, 12, 66, 73
18, 109002, Note_on_c, 12, 66, 0
18, 109024, Note_on_c, 12, 66, 75
18, 109066, Note_on_c, 12, 66, 0
18, 109088, Note_on_c, 12, 66, 78
18, 109248, Note_on_c, 12, 66, 0
18, 109248, Note_on_c, 12, 68, 77
18, 109280, Note_on_c, 12, 68, 0
18, 109344, Note_on_c, 12, 72, 76
18, 109440, Note_on_c, 12, 72, 0
18, 109440, Note_on_c, 12, 73, 80
18, 109536, Note_on_c, 12, 73, 0
18, 109536, Note_on_c, 12, 77, 84
18, 109632, Note_on_c, 12, 77, 0
18, 109632, Note_on_c, 12, 78, 89
18, 109728, Note_on_c, 12, 78, 0
18, 109728, Note_on_c, 12, 80, 93
18, 109770, Note_on_c, 12, 80, 0
18, 109792, Note_on_c, 12, 80, 90
18, 109834, Note_on_c, 12, 80, 0
18, 109856, Note_on_c, 12, 80, 88
18, 109898, Note_on_c, 12, 80, 0
18, 109920, Note_on_c, 12, 77, 91
18, 109962, Note_on_c, 12, 77, 0
18, 109984, Note_on_c, 12, 77, 97
18, 110026, Note_on_c, 12, 77, 0
18, 110048, Note_on_c, 12, 77, 95
18, 110090, Note_on_c, 12, 77, 0
18, 110112, Note_on_c, 12, 80, 91
18, 110154, Note_on_c, 12, 80, 0
18, 110176, Note_on_c, 12, 80, 93
18, 110218, Note_on_c, 12, 80, 0
18, 110240, Note_on_c, 12, 80, 91
18, 110400, Note_on_c, 12, 80, 0
18, 110496, Note_on_c, 12, 77, 91
18, 110538, Note_on_c, 12, 77, 0
18, 110560, Note_on_c, 12, 77, 91
18, 110602, Note_on_c, 12, 77, 0
18, 110624, Note_on_c, 12, 77, 87
18, 110666, Note_on_c, 12, 77, 0
18, 110688, Note_on_c, 12, 80, 91
18, 110730, Note_on_c, 12, 80, 0
18, 110752, Note_on_c, 12, 80, 90
18, 110794, Note_on_c, 12, 80, 0
18, 110816, Note_on_c, 12, 80, 91
18, 110858, Note_on_c, 12, 80, 0
18, 110880, Note_on_c, 12, 80, 94
18, 110922, Note_on_c, 12, 80, 0
18, 110944, Note_on_c, 12, 80, 90
18, 110986, Note_on_c, 12, 80, 0
18, 111008, Note_on_c, 12, 80, 95
18, 111050, Note_on_c, 12, 80, 0
18, 111072, Note_on_c, 12, 77, 94
18, 111114, Note_on_c, 12, 77, 0
18, 111136, Note_on_c, 12, 77, 95
18, 111178, Note_on_c, 12, 77, 0
18, 111200, Note_on_c, 12, 77, 91
18, 111242, Note_on_c, 12, 77, 0
18, 111264, Note_on_c, 12, 80, 96
18, 111360, Note_on_c, 12, 80, 0
18, 112032, Note_on_c, 12, 78, 109
18, 112224, Note_on_c, 12, 78, 0
18, 112224, Note_on_c, 12, 84, 104
18, 112512, Note_on_c, 12, 84, 0
18, 112512, Note_on_c, 12, 80, 103
18, 112608, Note_on_c, 12, 80, 0
18, 112608, Note_on_c, 12, 78, 112
18, 112800, Note_on_c, 12, 78, 0
18, 112800, Note_on_c, 12, 77, 112
18, 112842, Note_on_c, 12, 77, 0
18, 112864, Note_on_c, 12, 77, 103
18, 112906, Note_on_c, 12, 77, 0
18, 112928, Note_on_c, 12, 77, 105
18, 112970, Note_on_c, 12, 77, 0
18, 112992, Note_on_c, 12, 73, 107
18, 113034, Note_on_c, 12, 73, 0
18, 113056, Note_on_c, 12, 73, 113
18, 113098, Note_on_c, 12, 73, 0
18, 113120, Note_on_c, 12, 73, 113
18, 113162, Note_on_c, 12, 73, 0
18, 113184, Note_on_c, 12, 72, 104
18, 113226, Note_on_c, 12, 72, 0
18, 113248, Note_on_c, 12, 72, 113
18, 113290, Note_on_c, 12, 72, 0
18, 113312, Note_on_c, 12, 72, 104
18, 113354, Note_on_c, 12, 72, 0
18, 113376, Note_on_c, 12, 68, 106
18, 113418, Note_on_c, 12, 68, 0
18, 113440, Note_on_c, 12, 68, 111
18, 113482, Note_on_c, 12, 68, 0
18, 113504, Note_on_c, 12, 68, 105
18, 113546, Note_on_c, 12, 68, 0
18, 113568, Note_on_c, 12, 66, 110
18, 113610, Note_on_c, 12, 66, 0
18, 113632, Note_on_c, 12, 66, 105
18, 113674, Note_on_c, 12, 66, 0
18, 113696, Note_on_c, 12, 66, 113
18, 113856, Note_on_c, 12, 66, 0
18, 113856, Note_on_c, 12, 68, 107
18, 113952, Note_on_c, 12, 68, 0
18, 113952, Note_on_c, 12, 72, 113
18, 114048, Note_on_c, 12, 72, 0
18, 114048, Note_on_c, 12, 73, 106
18, 114144, Note_on_c, 12, 73, 0
18, 114144, Note_on_c, 12, 77, 110
18, 114240, Note_on_c, 12, 77, 0
18, 114240, Note_on_c, 12, 78, 113
18, 114336, Note_on_c, 12, 78, 0
18, 114336, Note_on_c, 12, 62, 108
18, 114336, Note_on_c, 12, 72, 106
18, 114378, Note_on_c, 12, 62, 0
18, 114378, Note_on_c, 12, 72, 0
18, 114400, Note_on_c, 12, 62, 112
18, 114400, Note_on_c, 12, 72, 110
18, 114442, Note_on_c, 12, 62, 0
18, 114442, Note_on_c, 12, 72, 0
18, 114464, Note_on_c, 12, 62, 103
18, 114464, Note_on_c, 12, 72, 106
18, 114506, Note_on_c, 12, 62, 0
18, 114506, Note_on_c, 12, 72, 0
18, 114528, Note_on_c, 12, 62, 107
18, 114528, Note_on_c, 12, 72, 113
18, 114560, Note_on_c, 12, 62, 0
18, 114560, Note_on_c, 12, 72, 0
18, 114624, Note_on_c, 12, 62, 103
18, 114624, Note_on_c, 12, 72, 113
18, 114656, Note_on_c, 12, 62, 0
18, 114656, Note_on_c, 12, 72, 0
18, 114720, Note_on_c, 12, 62, 108
18, 114720, Note_on_c, 12, 72, 107
18, 114752, Note_on_c, 12, 62, 0
18, 114752, Note_on_c, 12, 72, 0
18, 114816, Note_on_c, 12, 62, 108
18, 114816, Note_on_c, 12, 72, 108
18, 114848, Note_on_c, 12, 62, 0
18, 114848, Note_on_c, 12, 72, 0
18, 114912, Note_on_c, 12, 62, 109
18, 114912, Note_on_c, 12, 72, 109
18, 114954, Note_on_c, 12, 62, 0
18, 114954, Note_on_c, 12, 72, 0
18, 114976, Note_on_c, 12, 62, 112
18, 114976, Note_on_c, 12, 72, 110
18, 115018, Note_on_c, 12, 62, 0
18, 115018, Note_on_c, 12, 72, 0
18, 115040, Note_on_c, 12, 62, 110
18, 115040, Note_on_c, 12, 72, 117
18, 115082, Note_on_c, 12, 62, 0
18, 115082, Note_on_c, 12, 72, 0
18, 115104, Note_on_c, 12, 62, 118
18, 115104, Note_on_c, 12, 72, 113
18, 115146, Note_on_c, 12, 62, 0
18, 115146, Note_on_c, 12, 72, 0
18, 115168, Note_on_c, 12, 62, 111
18, 115168, Note_on_c, 12, 72, 120
18, 115210, Note_on_c, 12, 62, 0
18, 115210, Note_on_c, 12, 72, 0
18, 115232, Note_on_c, 12, 62, 118
18, 115232, Note_on_c, 12, 72, 118
18, 115274, Note_on_c, 12, 62, 0
18, 115274, Note_on_c, 12, 72, 0
18, 115296, Note_on_c, 12, 62, 125
18, 115296, Note_on_c, 12, 72, 124
18, 115338, Note_on_c, 12, 62, 0
18, 115338, Note_on_c, 12, 72, 0
18, 115360, Note_on_c, 12, 62, 121
18, 115360, Note_on_c, 12, 72, 119
18, 115402, Note_on_c, 12, 62, 0
18, 115402, Note_on_c, 12, 72, 0
18, 115424, Note_on_c, 12, 62, 125
18, 115424, Note_on_c, 12, 72, 122
18, 115466, Note_on_c, 12, 62, 0
18, 115466, Note_on_c, 12, 72, 0
18, 115488, Note_on_c, 12, 62, 109
18, 115488, Note_on_c, 12, 70, 105
18, 115530, Note_on_c, 12, 62, 0
18, 115530, Note_on_c, 12, 70, 0
18, 115552, Note_on_c, 12, 62, 107
18, 115552, Note_on_c, 12, 70, 106
18, 115594, Note_on_c, 12, 62, 0
18, 115594, Note_on_c, 12, 70, 0
18, 115616, Note_on_c, 12, 62, 103
18, 115616, Note_on_c, 12, 70, 108
18, 115658, Note_on_c, 12, 62, 0
18, 115658, Note_on_c, 12, 70, 0
18, 115680, Note_on_c, 12, 62, 107
18, 115680, Note_on_c, 12, 70, 111
18, 115712, Note_on_c, 12, 62, 0
18, 115712, Note_on_c, 12, 70, 0
18, 115776, Note_on_c, 12, 62, 106
18, 115776, Note_on_c, 12, 70, 104
18, 115808, Note_on_c, 12, 62, 0
18, 115808, Note_on_c, 12, 70, 0
18, 115872, Note_on_c, 12, 62, 106
18, 115872, Note_on_c, 12, 70, 112
18, 115904, Note_on_c, 12, 62, 0
18, 115904, Note_on_c, 12, 70, 0
18, 115968, Note_on_c, 12, 62, 103
18, 115968, Note_on_c, 12, 70, 106
18, 116000, Note_on_c, 12, 62, 0
18, 116000, Note_on_c, 12, 70, 0
18, 116064, Note_on_c, 12, 62, 111
18, 116064, Note_on_c, 12, 72, 109
18, 116106, Note_on_c, 12, 62, 0
18, 116106, Note_on_c, 12, 72, 0
18, 116128, Note_on_c, 12, 62, 107
18, 116128, Note_on_c, 12, 72, 107
18, 116170, Note_on_c, 12, 62, 0
18, 116170, Note_on_c, 12, 72, 0
18, 116192, Note_on_c, 12, 62, 104
18, 116192, Note_on_c, 12, 72, 113
18, 116234, Note_on_c, 12, 62, 0
18, 116234, Note_on_c, 12, 72, 0
18, 116256, Note_on_c, 12, 62, 104
18, 116256, Note_on_c, 12, 72, 106
18, 116298, Note_on_c, 12, 62, 0
18, 116298, Note_on_c, 12, 72, 0
18, 116320, Note_on_c, 12, 62, 105
18, 116320, Note_on_c, 12, 72, 104
18, 116362, Note_on_c, 12, 62, 0
18, 116362, Note_on_c, 12, 72, 0
18, 116384, Note_on_c, 12, 62, 111
18, 116384, Note_on_c, 12, 72, 111
18, 116426, Note_on_c, 12, 62, 0
18, 116426, Note_on_c, 12, 72, 0
18, 116448, Note_on_c, 12, 62, 103
18, 116448, Note_on_c, 12, 72, 103
18, 116490, Note_on_c, 12, 62, 0
18, 116490, Note_on_c, 12, 72, 0
18, 116512, Note_on_c, 12, 62, 105
18, 116512, Note_on_c, 12, 72, 107
18, 116554, Note_on_c, 12, 62, 0
18, 116554, Note_on_c, 12, 72, 0
18, 116576, Note_on_c, 12, 62, 111
18, 116576, Note_on_c, 12, 72, 107
18, 116618, Note_on_c, 12, 62, 0
18, 116618, Note_on_c, 12, 72, 0
18, 129312, Note_on_c, 12, 63, 28
18, 131616, Note_on_c, 12, 63, 0
18, 131616, Note_on_c, 12, 63, 33
18, 133920, Note_on_c, 12, 63, 0
18, 133920, Note_on_c, 12, 61, 35
18, 135072, Note_on_c, 12, 61, 0
18, 136224, Note_on_c, 12, 61, 25
18, 137376, Note_on_c, 12, 61, 0
18, 137376, End_track
19, 0, Start_track
19, 0, Title_t, "Viole I"
19, 0, MIDI_port, 0
19, 1152, Program_c, 13, 44
19, 1152, Note_on_c, 13, 56, 28
19, 1344, Note_on_c, 13, 56, 0
19, 2112, Control_c, 13, 11, 127
19, 2112, Note_on_c, 13, 56, 43
19, 2117, Control_c, 13, 11, 126
19, 2122, Control_c, 13, 11, 125
19, 2128, Control_c, 13, 11, 124
19, 2133, Control_c, 13, 11, 123
19, 2139, Control_c, 13, 11, 122
19, 2144, Control_c, 13, 11, 121
19, 2150, Control_c, 13, 11, 120
19, 2155, Control_c, 13, 11, 119
19, 2161, Control_c, 13, 11, 118
19, 2166, Control_c, 13, 11, 117
19, 2172, Control_c, 13, 11, 116
19, 2177, Control_c, 13, 11, 115
19, 2183, Control_c, 13, 11, 114
19, 2188, Control_c, 13, 11, 113
19, 2194, Control_c, 13, 11, 112
19, 2199, Control_c, 13, 11, 111
19, 2205, Control_c, 13, 11, 110
19, 2210, Control_c, 13, 11, 109
19, 2216, Control_c, 13, 11, 108
19, 2221, Control_c, 13, 11, 107
19, 2227, Control_c, 13, 11, 106
19, 2232, Control_c, 13, 11, 105
19, 2238, Control_c, 13, 11, 104
19, 2243, Control_c, 13, 11, 103
19, 2249, Control_c, 13, 11, 102
19, 2254, Control_c, 13, 11, 101
19, 2260, Control_c, 13, 11, 100
19, 2265, Control_c, 13, 11, 99
19, 2271, Control_c, 13, 11, 98
19, 2276, Control_c, 13, 11, 97
19, 2282, Control_c, 13, 11, 96
19, 2287, Control_c, 13, 11, 95
19, 2293, Control_c, 13, 11, 94
19, 2298, Control_c, 13, 11, 93
19, 2304, Control_c, 13, 11, 92
19, 2309, Control_c, 13, 11, 93
19, 2314, Control_c, 13, 11, 94
19, 2320, Control_c, 13, 11, 95
19, 2325, Control_c, 13, 11, 96
19, 2331, Control_c, 13, 11, 97
19, 2336, Control_c, 13, 11, 98
19, 2342, Control_c, 13, 11, 99
19, 2347, Control_c, 13, 11, 100
19, 2353, Control_c, 13, 11, 101
19, 2358, Control_c, 13, 11, 102
19, 2364, Control_c, 13, 11, 103
19, 2369, Control_c, 13, 11, 104
19, 2375, Control_c, 13, 11, 105
19, 2380, Control_c, 13, 11, 106
19, 2386, Control_c, 13, 11, 107
19, 2391, Control_c, 13, 11, 108
19, 2397, Control_c, 13, 11, 109
19, 2402, Control_c, 13, 11, 110
19, 2408, Control_c, 13, 11, 111
19, 2413, Control_c, 13, 11, 112
19, 2419, Control_c, 13, 11, 113
19, 2424, Control_c, 13, 11, 114
19, 2430, Control_c, 13, 11, 115
19, 2435, Control_c, 13, 11, 116
19, 2441, Control_c, 13, 11, 117
19, 2446, Control_c, 13, 11, 118
19, 2452, Control_c, 13, 11, 119
19, 2457, Control_c, 13, 11, 120
19, 2463, Control_c, 13, 11, 121
19, 2468, Control_c, 13, 11, 122
19, 2474, Control_c, 13, 11, 123
19, 2479, Control_c, 13, 11, 124
19, 2485, Control_c, 13, 11, 125
19, 2490, Control_c, 13, 11, 126
19, 2496, Note_on_c, 13, 56, 0
19, 2496, Control_c, 13, 11, 127
19, 3264, Control_c, 13, 11, 127
19, 3264, Note_on_c, 13, 56, 40
19, 3269, Control_c, 13, 11, 126
19, 3274, Control_c, 13, 11, 125
19, 3280, Control_c, 13, 11, 124
19, 3285, Control_c, 13, 11, 123
19, 3291, Control_c, 13, 11, 122
19, 3296, Control_c, 13, 11, 121
19, 3302, Control_c, 13, 11, 120
19, 3307, Control_c, 13, 11, 119
19, 3313, Control_c, 13, 11, 118
19, 3318, Control_c, 13, 11, 117
19, 3324, Control_c, 13, 11, 116
19, 3329, Control_c, 13, 11, 115
19, 3335, Control_c, 13, 11, 114
19, 3340, Control_c, 13, 11, 113
19, 3346, Control_c, 13, 11, 112
19, 3351, Control_c, 13, 11, 111
19, 3357, Control_c, 13, 11, 110
19, 3362, Control_c, 13, 11, 109
19, 3368, Control_c, 13, 11, 108
19, 3373, Control_c, 13, 11, 107
19, 3379, Control_c, 13, 11, 106
19, 3384, Control_c, 13, 11, 105
19, 3390, Control_c, 13, 11, 104
19, 3395, Control_c, 13, 11, 103
19, 3401, Control_c, 13, 11, 102
19, 3406, Control_c, 13, 11, 101
19, 3412, Control_c, 13, 11, 100
19, 3417, Control_c, 13, 11, 99
19, 3423, Control_c, 13, 11, 98
19, 3428, Control_c, 13, 11, 97
19, 3434, Control_c, 13, 11, 96
19, 3439, Control_c, 13, 11, 95
19, 3445, Control_c, 13, 11, 94
19, 3450, Control_c, 13, 11, 93
19, 3456, Note_on_c, 13, 56, 0
19, 3456, Control_c, 13, 11, 92
19, 3456, Control_c, 13, 11, 92
19, 3456, Note_on_c, 13, 57, 35
19, 3466, Control_c, 13, 11, 93
19, 3477, Control_c, 13, 11, 94
19, 3488, Control_c, 13, 11, 95
19, 3499, Control_c, 13, 11, 96
19, 3510, Control_c, 13, 11, 97
19, 3521, Control_c, 13, 11, 98
19, 3532, Control_c, 13, 11, 99
19, 3543, Control_c, 13, 11, 100
19, 3554, Control_c, 13, 11, 101
19, 3565, Control_c, 13, 11, 102
19, 3576, Control_c, 13, 11, 103
19, 3587, Control_c, 13, 11, 104
19, 3598, Control_c, 13, 11, 105
19, 3609, Control_c, 13, 11, 106
19, 3620, Control_c, 13, 11, 107
19, 3631, Control_c, 13, 11, 108
19, 3642, Control_c, 13, 11, 109
19, 3653, Control_c, 13, 11, 110
19, 3664, Control_c, 13, 11, 111
19, 3675, Control_c, 13, 11, 112
19, 3686, Control_c, 13, 11, 113
19, 3697, Control_c, 13, 11, 114
19, 3708, Control_c, 13, 11, 115
19, 3719, Control_c, 13, 11, 116
19, 3730, Control_c, 13, 11, 117
19, 3741, Control_c, 13, 11, 118
19, 3752, Control_c, 13, 11, 119
19, 3763, Control_c, 13, 11, 120
19, 3774, Control_c, 13, 11, 121
19, 3785, Control_c, 13, 11, 122
19, 3796, Control_c, 13, 11, 123
19, 3807, Control_c, 13, 11, 124
19, 3818, Control_c, 13, 11, 125
19, 3829, Control_c, 13, 11, 126
19, 3840, Control_c, 13, 11, 127
19, 3845, Control_c, 13, 11, 126
19, 3850, Control_c, 13, 11, 125
19, 3856, Control_c, 13, 11, 124
19, 3861, Control_c, 13, 11, 123
19, 3867, Control_c, 13, 11, 122
19, 3872, Control_c, 13, 11, 121
19, 3878, Control_c, 13, 11, 120
19, 3883, Control_c, 13, 11, 119
19, 3889, Control_c, 13, 11, 118
19, 3894, Control_c, 13, 11, 117
19, 3900, Control_c, 13, 11, 116
19, 3905, Control_c, 13, 11, 115
19, 3911, Control_c, 13, 11, 114
19, 3916, Control_c, 13, 11, 113
19, 3922, Control_c, 13, 11, 112
19, 3927, Control_c, 13, 11, 111
19, 3933, Control_c, 13, 11, 110
19, 3938, Control_c, 13, 11, 109
19, 3944, Control_c, 13, 11, 108
19, 3949, Control_c, 13, 11, 107
19, 3955, Control_c, 13, 11, 106
19, 3960, Control_c, 13, 11, 105
19, 3966, Control_c, 13, 11, 104
19, 3971, Control_c, 13, 11, 103
19, 3977, Control_c, 13, 11, 102
19, 3982, Control_c, 13, 11, 101
19, 3988, Control_c, 13, 11, 100
19, 3993, Control_c, 13, 11, 99
19, 3999, Control_c, 13, 11, 98
19, 4004, Control_c, 13, 11, 97
19, 4010, Control_c, 13, 11, 96
19, 4015, Control_c, 13, 11, 95
19, 4021, Control_c, 13, 11, 94
19, 4026, Control_c, 13, 11, 93
19, 4032, Control_c, 13, 11, 92
19, 4608, Note_on_c, 13, 57, 0
19, 5184, Control_c, 13, 11, 127
19, 5184, Note_on_c, 13, 57, 29
19, 5208, Note_on_c, 13, 57, 0
19, 5208, Note_on_c, 13, 55, 35
19, 5232, Note_on_c, 13, 55, 0
19, 5232, Note_on_c, 13, 57, 26
19, 5256, Note_on_c, 13, 57, 0
19, 5256, Note_on_c, 13, 55, 32
19, 5280, Note_on_c, 13, 55, 0
19, 5280, Note_on_c, 13, 57, 26
19, 5304, Note_on_c, 13, 57, 0
19, 5304, Note_on_c, 13, 55, 28
19, 5328, Note_on_c, 13, 55, 0
19, 5328, Note_on_c, 13, 57, 28
19, 5352, Note_on_c, 13, 57, 0
19, 5352, Note_on_c, 13, 55, 31
19, 5376, Note_on_c, 13, 55, 0
19, 5376, Note_on_c, 13, 57, 35
19, 5400, Note_on_c, 13, 57, 0
19, 5400, Note_on_c, 13, 55, 26
19, 5424, Note_on_c, 13, 55, 0
19, 5424, Note_on_c, 13, 57, 28
19, 5448, Note_on_c, 13, 57, 0
19, 5448, Note_on_c, 13, 55, 34
19, 5472, Note_on_c, 13, 55, 0
19, 5472, Note_on_c, 13, 57, 30
19, 5496, Note_on_c, 13, 57, 0
19, 5496, Note_on_c, 13, 55, 34
19, 5520, Note_on_c, 13, 55, 0
19, 5520, Note_on_c, 13, 57, 29
19, 5544, Note_on_c, 13, 57, 0
19, 5544, Note_on_c, 13, 55, 34
19, 5568, Note_on_c, 13, 55, 0
19, 5568, Note_on_c, 13, 57, 34
19, 5592, Note_on_c, 13, 57, 0
19, 5592, Note_on_c, 13, 55, 31
19, 5616, Note_on_c, 13, 55, 0
19, 5616, Note_on_c, 13, 57, 30
19, 5640, Note_on_c, 13, 57, 0
19, 5640, Note_on_c, 13, 55, 29
19, 5664, Note_on_c, 13, 55, 0
19, 5664, Note_on_c, 13, 57, 32
19, 5688, Note_on_c, 13, 57, 0
19, 5688, Note_on_c, 13, 55, 32
19, 5712, Note_on_c, 13, 55, 0
19, 5712, Note_on_c, 13, 57, 26
19, 5736, Note_on_c, 13, 57, 0
19, 5736, Note_on_c, 13, 55, 32
19, 5760, Note_on_c, 13, 55, 0
19, 5760, Program_c, 13, 44
19, 5760, Note_on_c, 13, 55, 33
19, 7296, Note_on_c, 13, 55, 0
19, 7296, Note_on_c, 13, 48, 35
19, 7392, Note_on_c, 13, 48, 0
19, 7392, Note_on_c, 13, 55, 28
19, 7488, Note_on_c, 13, 55, 0
19, 7488, Note_on_c, 13, 48, 30
19, 7584, Note_on_c, 13, 48, 0
19, 7584, Note_on_c, 13, 55, 32
19, 7680, Note_on_c, 13, 55, 0
19, 7680, Note_on_c, 13, 48, 27
19, 7776, Note_on_c, 13, 48, 0
19, 7776, Note_on_c, 13, 55, 25
19, 7872, Note_on_c, 13, 55, 0
19, 7872, Note_on_c, 13, 48, 33
19, 7968, Note_on_c, 13, 48, 0
19, 7968, Note_on_c, 13, 55, 30
19, 8064, Note_on_c, 13, 55, 0
19, 8064, Note_on_c, 13, 48, 28
19, 8160, Note_on_c, 13, 48, 0
19, 8160, Note_on_c, 13, 55, 25
19, 8256, Note_on_c, 13, 55, 0
19, 8256, Note_on_c, 13, 48, 34
19, 8352, Note_on_c, 13, 48, 0
19, 8352, Note_on_c, 13, 58, 28
19, 9504, Control_c, 13, 11, 92
19, 9512, Control_c, 13, 11, 93
19, 9520, Control_c, 13, 11, 94
19, 9528, Control_c, 13, 11, 95
19, 9536, Control_c, 13, 11, 96
19, 9545, Control_c, 13, 11, 97
19, 9553, Control_c, 13, 11, 98
19, 9561, Control_c, 13, 11, 99
19, 9569, Control_c, 13, 11, 100
19, 9578, Control_c, 13, 11, 101
19, 9586, Control_c, 13, 11, 102
19, 9594, Control_c, 13, 11, 103
19, 9602, Control_c, 13, 11, 104
19, 9610, Control_c, 13, 11, 105
19, 9619, Control_c, 13, 11, 106
19, 9627, Control_c, 13, 11, 107
19, 9635, Control_c, 13, 11, 108
19, 9643, Control_c, 13, 11, 109
19, 9652, Control_c, 13, 11, 110
19, 9660, Control_c, 13, 11, 111
19, 9668, Control_c, 13, 11, 112
19, 9676, Control_c, 13, 11, 113
19, 9685, Control_c, 13, 11, 114
19, 9693, Control_c, 13, 11, 115
19, 9701, Control_c, 13, 11, 116
19, 9709, Control_c, 13, 11, 117
19, 9717, Control_c, 13, 11, 118
19, 9726, Control_c, 13, 11, 119
19, 9734, Control_c, 13, 11, 120
19, 9742, Control_c, 13, 11, 121
19, 9750, Control_c, 13, 11, 122
19, 9759, Control_c, 13, 11, 123
19, 9767, Control_c, 13, 11, 124
19, 9775, Control_c, 13, 11, 125
19, 9783, Control_c, 13, 11, 126
19, 9792, Control_c, 13, 11, 127
19, 9800, Control_c, 13, 11, 126
19, 9808, Control_c, 13, 11, 125
19, 9816, Control_c, 13, 11, 124
19, 9824, Control_c, 13, 11, 123
19, 9833, Control_c, 13, 11, 122
19, 9841, Control_c, 13, 11, 121
19, 9849, Control_c, 13, 11, 120
19, 9857, Control_c, 13, 11, 119
19, 9866, Control_c, 13, 11, 118
19, 9874, Control_c, 13, 11, 117
19, 9882, Control_c, 13, 11, 116
19, 9890, Control_c, 13, 11, 115
19, 9898, Control_c, 13, 11, 114
19, 9907, Control_c, 13, 11, 113
19, 9915, Control_c, 13, 11, 112
19, 9923, Control_c, 13, 11, 111
19, 9931, Control_c, 13, 11, 110
19, 9940, Control_c, 13, 11, 109
19, 9948, Control_c, 13, 11, 108
19, 9956, Control_c, 13, 11, 107
19, 9964, Control_c, 13, 11, 106
19, 9973, Control_c, 13, 11, 105
19, 9981, Control_c, 13, 11, 104
19, 9989, Control_c, 13, 11, 103
19, 9997, Control_c, 13, 11, 102
19, 10005, Control_c, 13, 11, 101
19, 10014, Control_c, 13, 11, 100
19, 10022, Control_c, 13, 11, 99
19, 10030, Control_c, 13, 11, 98
19, 10038, Control_c, 13, 11, 97
19, 10047, Control_c, 13, 11, 96
19, 10055, Control_c, 13, 11, 95
19, 10063, Control_c, 13, 11, 94
19, 10071, Control_c, 13, 11, 93
19, 10080, Note_on_c, 13, 58, 0
19, 10080, Control_c, 13, 11, 92
19, 10080, Note_on_c, 13, 65, 45
19, 10176, Note_on_c, 13, 65, 0
19, 10176, Note_on_c, 13, 64, 50
19, 10272, Note_on_c, 13, 64, 0
19, 10272, Note_on_c, 13, 63, 41
19, 10368, Note_on_c, 13, 63, 0
19, 10368, Note_on_c, 13, 62, 40
19, 10464, Note_on_c, 13, 62, 0
19, 10464, Note_on_c, 13, 61, 49
19, 10560, Note_on_c, 13, 61, 0
19, 10560, Note_on_c, 13, 60, 48
19, 10656, Note_on_c, 13, 60, 0
19, 10656, Control_c, 13, 11, 92
19, 10656, Note_on_c, 13, 58, 61
19, 10672, Control_c, 13, 11, 93
19, 10688, Control_c, 13, 11, 94
19, 10705, Control_c, 13, 11, 95
19, 10721, Control_c, 13, 11, 96
19, 10738, Control_c, 13, 11, 97
19, 10754, Control_c, 13, 11, 98
19, 10771, Control_c, 13, 11, 99
19, 10787, Control_c, 13, 11, 100
19, 10804, Control_c, 13, 11, 101
19, 10820, Control_c, 13, 11, 102
19, 10837, Control_c, 13, 11, 103
19, 10853, Control_c, 13, 11, 104
19, 10869, Control_c, 13, 11, 105
19, 10886, Control_c, 13, 11, 106
19, 10902, Control_c, 13, 11, 107
19, 10919, Control_c, 13, 11, 108
19, 10935, Control_c, 13, 11, 109
19, 10952, Control_c, 13, 11, 110
19, 10968, Control_c, 13, 11, 111
19, 10985, Control_c, 13, 11, 112
19, 11001, Control_c, 13, 11, 113
19, 11018, Control_c, 13, 11, 114
19, 11034, Control_c, 13, 11, 115
19, 11040, Note_on_c, 13, 58, 0
19, 11040, Note_on_c, 13, 57, 57
19, 11050, Control_c, 13, 11, 116
19, 11067, Control_c, 13, 11, 117
19, 11083, Control_c, 13, 11, 118
19, 11100, Control_c, 13, 11, 119
19, 11116, Control_c, 13, 11, 120
19, 11133, Control_c, 13, 11, 121
19, 11149, Control_c, 13, 11, 122
19, 11166, Control_c, 13, 11, 123
19, 11182, Control_c, 13, 11, 124
19, 11199, Control_c, 13, 11, 125
19, 11215, Control_c, 13, 11, 126
19, 11232, Note_on_c, 13, 57, 0
19, 11232, Control_c, 13, 11, 127
19, 11232, Program_c, 13, 45
19, 11712, Note_on_c, 13, 61, 92
19, 11760, Note_on_c, 13, 61, 0
19, 11760, Note_on_c, 13, 68, 108
19, 11808, Note_on_c, 13, 68, 0
19, 12288, Note_on_c, 13, 61, 93
19, 12336, Note_on_c, 13, 61, 0
19, 12336, Note_on_c, 13, 68, 109
19, 12384, Note_on_c, 13, 68, 0
19, 12384, Program_c, 13, 48
19, 14688, Control_c, 13, 11, 127
19, 15264, Program_c, 13, 44
19, 15264, Note_on_c, 13, 52, 49
19, 15360, Note_on_c, 13, 52, 0
19, 15360, Note_on_c, 13, 59, 40
19, 15456, Note_on_c, 13, 59, 0
19, 15456, Note_on_c, 13, 68, 40
19, 15552, Note_on_c, 13, 68, 0
19, 15552, Note_on_c, 13, 59, 46
19, 15648, Note_on_c, 13, 59, 0
19, 15648, Note_on_c, 13, 52, 48
19, 15744, Note_on_c, 13, 52, 0
19, 15744, Note_on_c, 13, 59, 42
19, 15840, Note_on_c, 13, 59, 0
19, 17568, Note_on_c, 13, 52, 40
19, 17664, Note_on_c, 13, 52, 0
19, 17664, Note_on_c, 13, 59, 43
19, 17760, Note_on_c, 13, 59, 0
19, 17760, Note_on_c, 13, 68, 50
19, 17856, Note_on_c, 13, 68, 0
19, 17856, Note_on_c, 13, 59, 43
19, 17952, Note_on_c, 13, 59, 0
19, 17952, Note_on_c, 13, 52, 49
19, 18048, Note_on_c, 13, 52, 0
19, 18048, Note_on_c, 13, 59, 47
19, 18144, Note_on_c, 13, 59, 0
19, 18144, Control_c, 13, 11, 92
19, 18144, Note_on_c, 13, 59, 41
19, 18165, Control_c, 13, 11, 93
19, 18187, Control_c, 13, 11, 94
19, 18209, Control_c, 13, 11, 95
19, 18231, Control_c, 13, 11, 96
19, 18253, Control_c, 13, 11, 97
19, 18275, Control_c, 13, 11, 98
19, 18297, Control_c, 13, 11, 99
19, 18319, Control_c, 13, 11, 100
19, 18341, Control_c, 13, 11, 101
19, 18363, Control_c, 13, 11, 102
19, 18385, Control_c, 13, 11, 103
19, 18407, Control_c, 13, 11, 104
19, 18429, Control_c, 13, 11, 105
19, 18451, Control_c, 13, 11, 106
19, 18473, Control_c, 13, 11, 107
19, 18495, Control_c, 13, 11, 108
19, 18517, Control_c, 13, 11, 109
19, 18538, Control_c, 13, 11, 110
19, 18560, Control_c, 13, 11, 111
19, 18582, Control_c, 13, 11, 112
19, 18604, Control_c, 13, 11, 113
19, 18626, Control_c, 13, 11, 114
19, 18648, Control_c, 13, 11, 115
19, 18670, Control_c, 13, 11, 116
19, 18692, Control_c, 13, 11, 117
19, 18714, Control_c, 13, 11, 118
19, 18720, Note_on_c, 13, 59, 0
19, 18720, Note_on_c, 13, 62, 43
19, 18736, Control_c, 13, 11, 119
19, 18758, Control_c, 13, 11, 120
19, 18780, Control_c, 13, 11, 121
19, 18802, Control_c, 13, 11, 122
19, 18824, Control_c, 13, 11, 123
19, 18846, Control_c, 13, 11, 124
19, 18868, Control_c, 13, 11, 125
19, 18890, Control_c, 13, 11, 126
19, 18912, Control_c, 13, 11, 127
19, 18922, Control_c, 13, 11, 126
19, 18933, Control_c, 13, 11, 125
19, 18944, Control_c, 13, 11, 124
19, 18955, Control_c, 13, 11, 123
19, 18966, Control_c, 13, 11, 122
19, 18977, Control_c, 13, 11, 121
19, 18988, Control_c, 13, 11, 120
19, 18999, Control_c, 13, 11, 119
19, 19010, Control_c, 13, 11, 118
19, 19021, Control_c, 13, 11, 117
19, 19032, Control_c, 13, 11, 116
19, 19043, Control_c, 13, 11, 115
19, 19054, Control_c, 13, 11, 114
19, 19065, Control_c, 13, 11, 113
19, 19076, Control_c, 13, 11, 112
19, 19087, Control_c, 13, 11, 111
19, 19098, Control_c, 13, 11, 110
19, 19109, Control_c, 13, 11, 109
19, 19120, Control_c, 13, 11, 108
19, 19131, Control_c, 13, 11, 107
19, 19142, Control_c, 13, 11, 106
19, 19153, Control_c, 13, 11, 105
19, 19164, Control_c, 13, 11, 104
19, 19175, Control_c, 13, 11, 103
19, 19186, Control_c, 13, 11, 102
19, 19197, Control_c, 13, 11, 101
19, 19208, Control_c, 13, 11, 100
19, 19219, Control_c, 13, 11, 99
19, 19230, Control_c, 13, 11, 98
19, 19241, Control_c, 13, 11, 97
19, 19252, Control_c, 13, 11, 96
19, 19263, Control_c, 13, 11, 95
19, 19274, Control_c, 13, 11, 94
19, 19285, Control_c, 13, 11, 93
19, 19296, Note_on_c, 13, 62, 0
19, 19296, Control_c, 13, 11, 92
19, 19296, Control_c, 13, 11, 92
19, 19296, Note_on_c, 13, 59, 58
19, 19328, Control_c, 13, 11, 93
19, 19361, Control_c, 13, 11, 94
19, 19394, Control_c, 13, 11, 95
19, 19427, Control_c, 13, 11, 96
19, 19460, Control_c, 13, 11, 97
19, 19493, Control_c, 13, 11, 98
19, 19526, Control_c, 13, 11, 99
19, 19559, Control_c, 13, 11, 100
19, 19592, Control_c, 13, 11, 101
19, 19625, Control_c, 13, 11, 102
19, 19658, Control_c, 13, 11, 103
19, 19690, Control_c, 13, 11, 104
19, 19723, Control_c, 13, 11, 105
19, 19756, Control_c, 13, 11, 106
19, 19789, Control_c, 13, 11, 107
19, 19822, Control_c, 13, 11, 108
19, 19855, Control_c, 13, 11, 109
19, 19872, Note_on_c, 13, 59, 0
19, 19872, Note_on_c, 13, 62, 64
19, 19888, Control_c, 13, 11, 110
19, 19921, Control_c, 13, 11, 111
19, 19954, Control_c, 13, 11, 112
19, 19987, Control_c, 13, 11, 113
19, 20020, Control_c, 13, 11, 114
19, 20053, Control_c, 13, 11, 115
19, 20085, Control_c, 13, 11, 116
19, 20118, Control_c, 13, 11, 117
19, 20151, Control_c, 13, 11, 118
19, 20184, Control_c, 13, 11, 119
19, 20217, Control_c, 13, 11, 120
19, 20250, Control_c, 13, 11, 121
19, 20283, Control_c, 13, 11, 122
19, 20316, Control_c, 13, 11, 123
19, 20349, Control_c, 13, 11, 124
19, 20382, Control_c, 13, 11, 125
19, 20415, Control_c, 13, 11, 126
19, 20448, Note_on_c, 13, 62, 0
19, 20448, Control_c, 13, 11, 127
19, 20448, Note_on_c, 13, 61, 63
19, 20544, Note_on_c, 13, 61, 0
19, 21024, Program_c, 13, 45
19, 21600, Note_on_c, 13, 53, 42
19, 21696, Note_on_c, 13, 53, 0
19, 22752, Note_on_c, 13, 53, 50
19, 22800, Note_on_c, 13, 53, 0
19, 23904, Note_on_c, 13, 53, 48
19, 24000, Note_on_c, 13, 53, 0
19, 25056, Control_c, 13, 11, 127
19, 25632, Program_c, 13, 48
19, 26208, Note_on_c, 13, 63, 59
19, 26240, Note_on_c, 13, 63, 0
19, 26240, Note_on_c, 13, 65, 57
19, 26272, Note_on_c, 13, 65, 0
19, 26272, Note_on_c, 13, 63, 63
19, 26304, Note_on_c, 13, 63, 0
19, 26304, Note_on_c, 13, 65, 56
19, 26336, Note_on_c, 13, 65, 0
19, 26336, Note_on_c, 13, 63, 61
19, 26368, Note_on_c, 13, 63, 0
19, 26368, Note_on_c, 13, 65, 62
19, 26400, Note_on_c, 13, 65, 0
19, 26400, Note_on_c, 13, 63, 60
19, 26432, Note_on_c, 13, 63, 0
19, 26432, Note_on_c, 13, 65, 62
19, 26464, Note_on_c, 13, 65, 0
19, 26464, Note_on_c, 13, 63, 55
19, 26496, Note_on_c, 13, 63, 0
19, 26496, Note_on_c, 13, 62, 56
19, 26528, Note_on_c, 13, 62, 0
19, 26528, Note_on_c, 13, 64, 61
19, 26560, Note_on_c, 13, 64, 0
19, 26560, Note_on_c, 13, 62, 59
19, 26592, Note_on_c, 13, 62, 0
19, 26592, Note_on_c, 13, 61, 57
19, 26624, Note_on_c, 13, 61, 0
19, 26688, Note_on_c, 13, 65, 63
19, 26720, Note_on_c, 13, 65, 0
19, 26784, Note_on_c, 13, 58, 53
19, 26816, Note_on_c, 13, 58, 0
19, 26816, Note_on_c, 13, 60, 52
19, 26848, Note_on_c, 13, 60, 0
19, 26848, Note_on_c, 13, 58, 60
19, 26880, Note_on_c, 13, 58, 0
19, 26880, Note_on_c, 13, 60, 59
19, 26912, Note_on_c, 13, 60, 0
19, 26912, Note_on_c, 13, 58, 53
19, 26944, Note_on_c, 13, 58, 0
19, 26944, Note_on_c, 13, 60, 58
19, 26976, Note_on_c, 13, 60, 0
19, 26976, Note_on_c, 13, 58, 62
19, 27008, Note_on_c, 13, 58, 0
19, 27008, Note_on_c, 13, 60, 56
19, 27040, Note_on_c, 13, 60, 0
19, 27040, Note_on_c, 13, 58, 51
19, 27072, Note_on_c, 13, 58, 0
19, 27072, Note_on_c, 13, 53, 51
19, 27168, Note_on_c, 13, 53, 0
19, 27168, Note_on_c, 13, 54, 52
19, 27264, Note_on_c, 13, 54, 0
19, 27264, Note_on_c, 13, 57, 46
19, 27360, Note_on_c, 13, 57, 0
19, 27360, Note_on_c, 13, 61, 45
19, 27456, Note_on_c, 13, 61, 0
19, 27936, Control_c, 13, 11, 127
19, 28512, Note_on_c, 13, 61, 32
19, 29664, Note_on_c, 13, 61, 0
19, 29664, Program_c, 13, 45
19, 29664, Note_on_c, 13, 61, 28
19, 29664, Note_on_c, 13, 64, 34
19, 29760, Note_on_c, 13, 61, 0
19, 29760, Note_on_c, 13, 64, 0
19, 29856, Note_on_c, 13, 61, 26
19, 29856, Note_on_c, 13, 64, 31
19, 29952, Note_on_c, 13, 61, 0
19, 29952, Note_on_c, 13, 64, 0
19, 30048, Note_on_c, 13, 61, 33
19, 30048, Note_on_c, 13, 64, 30
19, 30144, Note_on_c, 13, 61, 0
19, 30144, Note_on_c, 13, 64, 0
19, 30240, Note_on_c, 13, 61, 25
19, 30240, Note_on_c, 13, 64, 31
19, 30336, Note_on_c, 13, 61, 0
19, 30336, Note_on_c, 13, 64, 0
19, 30432, Note_on_c, 13, 61, 35
19, 30432, Note_on_c, 13, 64, 27
19, 30528, Note_on_c, 13, 61, 0
19, 30528, Note_on_c, 13, 64, 0
19, 30624, Note_on_c, 13, 61, 34
19, 30624, Note_on_c, 13, 64, 30
19, 30720, Note_on_c, 13, 61, 0
19, 30720, Note_on_c, 13, 64, 0
19, 30816, Program_c, 13, 48
19, 30816, Note_on_c, 13, 61, 26
19, 31776, Note_on_c, 13, 61, 0
19, 31776, Note_on_c, 13, 58, 29
19, 31808, Note_on_c, 13, 58, 0
19, 31808, Note_on_c, 13, 60, 36
19, 31840, Note_on_c, 13, 60, 0
19, 31840, Note_on_c, 13, 58, 47
19, 31872, Note_on_c, 13, 58, 0
19, 31872, Note_on_c, 13, 57, 48
19, 31904, Note_on_c, 13, 57, 0
19, 31904, Note_on_c, 13, 59, 64
19, 31936, Note_on_c, 13, 59, 0
19, 31936, Note_on_c, 13, 57, 66
19, 31968, Note_on_c, 13, 57, 0
19, 31968, Note_on_c, 13, 56, 74
19, 32544, Note_on_c, 13, 56, 0
19, 32544, Note_on_c, 13, 57, 76
19, 32736, Note_on_c, 13, 57, 0
19, 32736, Note_on_c, 13, 60, 76
19, 32928, Note_on_c, 13, 60, 0
19, 32928, Note_on_c, 13, 63, 85
19, 33120, Note_on_c, 13, 63, 0
19, 33120, Note_on_c, 13, 66, 92
19, 33408, Note_on_c, 13, 66, 0
19, 33408, Note_on_c, 13, 63, 91
19, 33504, Note_on_c, 13, 63, 0
19, 33504, Note_on_c, 13, 61, 97
19, 33600, Note_on_c, 13, 61, 0
19, 33600, Note_on_c, 13, 63, 95
19, 33696, Note_on_c, 13, 63, 0
19, 33696, Note_on_c, 13, 66, 88
19, 33728, Note_on_c, 13, 66, 0
19, 33792, Note_on_c, 13, 63, 90
19, 33824, Note_on_c, 13, 63, 0
19, 33888, Note_on_c, 13, 66, 92
19, 33920, Note_on_c, 13, 66, 0
19, 33984, Note_on_c, 13, 63, 103
19, 34016, Note_on_c, 13, 63, 0
19, 34080, Note_on_c, 13, 66, 101
19, 34112, Note_on_c, 13, 66, 0
19, 34176, Note_on_c, 13, 70, 101
19, 34208, Note_on_c, 13, 70, 0
19, 34272, Program_c, 13, 45
19, 34272, Note_on_c, 13, 48, 105
19, 34272, Note_on_c, 13, 57, 106
19, 34272, Note_on_c, 13, 65, 103
19, 34272, Note_on_c, 13, 69, 112
19, 34368, Note_on_c, 13, 48, 0
19, 34368, Note_on_c, 13, 57, 0
19, 34368, Note_on_c, 13, 65, 0
19, 34368, Note_on_c, 13, 69, 0
19, 34560, Note_on_c, 13, 62, 113
19, 34656, Note_on_c, 13, 62, 0
19, 34848, Note_on_c, 13, 48, 107
19, 34848, Note_on_c, 13, 57, 105
19, 34848, Note_on_c, 13, 65, 109
19, 34848, Note_on_c, 13, 69, 109
19, 34944, Note_on_c, 13, 48, 0
19, 34944, Note_on_c, 13, 57, 0
19, 34944, Note_on_c, 13, 65, 0
19, 34944, Note_on_c, 13, 69, 0
19, 35136, Note_on_c, 13, 62, 103
19, 35232, Note_on_c, 13, 62, 0
19, 35616, Note_on_c, 13, 62, 96
19, 35712, Note_on_c, 13, 62, 0
19, 35808, Note_on_c, 13, 68, 93
19, 35904, Note_on_c, 13, 68, 0
19, 36192, Note_on_c, 13, 62, 88
19, 36288, Note_on_c, 13, 62, 0
19, 36384, Note_on_c, 13, 68, 82
19, 36480, Note_on_c, 13, 68, 0
19, 36576, Note_on_c, 13, 74, 44
19, 36672, Note_on_c, 13, 74, 0
19, 37152, Program_c, 13, 48
19, 37344, Note_on_c, 13, 60, 33
19, 37368, Note_on_c, 13, 60, 0
19, 37368, Note_on_c, 13, 58, 33
19, 37392, Note_on_c, 13, 58, 0
19, 37392, Note_on_c, 13, 56, 34
19, 37416, Note_on_c, 13, 56, 0
19, 37416, Note_on_c, 13, 54, 33
19, 37440, Note_on_c, 13, 54, 0
19, 37440, Note_on_c, 13, 60, 35
19, 37464, Note_on_c, 13, 60, 0
19, 37464, Note_on_c, 13, 58, 26
19, 37488, Note_on_c, 13, 58, 0
19, 37488, Note_on_c, 13, 56, 32
19, 37512, Note_on_c, 13, 56, 0
19, 37512, Note_on_c, 13, 54, 31
19, 37536, Note_on_c, 13, 54, 0
19, 38688, Note_on_c, 13, 61, 25
19, 38712, Note_on_c, 13, 61, 0
19, 38712, Note_on_c, 13, 59, 25
19, 38736, Note_on_c, 13, 59, 0
19, 38736, Note_on_c, 13, 57, 32
19, 38760, Note_on_c, 13, 57, 0
19, 38760, Note_on_c, 13, 55, 26
19, 38784, Note_on_c, 13, 55, 0
19, 38784, Note_on_c, 13, 61, 25
19, 38808, Note_on_c, 13, 61, 0
19, 38808, Note_on_c, 13, 59, 24
19, 38832, Note_on_c, 13, 59, 0
19, 38832, Note_on_c, 13, 57, 26
19, 38856, Note_on_c, 13, 57, 0
19, 38856, Note_on_c, 13, 55, 31
19, 38880, Note_on_c, 13, 55, 0
19, 38880, Note_on_c, 13, 54, 24
19, 38976, Note_on_c, 13, 54, 0
19, 39456, Program_c, 13, 44
19, 40032, Note_on_c, 13, 64, 32
19, 40128, Note_on_c, 13, 64, 0
19, 40128, Note_on_c, 13, 61, 34
19, 40224, Note_on_c, 13, 61, 0
19, 40224, Note_on_c, 13, 62, 28
19, 40416, Note_on_c, 13, 62, 0
19, 40416, Note_on_c, 13, 63, 29
19, 40608, Note_on_c, 13, 63, 0
19, 40608, Note_on_c, 13, 64, 35
19, 40704, Note_on_c, 13, 64, 0
19, 40704, Note_on_c, 13, 63, 34
19, 40800, Note_on_c, 13, 63, 0
19, 40800, Note_on_c, 13, 62, 25
19, 40992, Note_on_c, 13, 62, 0
19, 40992, Note_on_c, 13, 61, 33
19, 41184, Note_on_c, 13, 61, 0
19, 41184, Control_c, 13, 11, 75
19, 41184, Note_on_c, 13, 64, 55
19, 41195, Control_c, 13, 11, 76
19, 41206, Control_c, 13, 11, 77
19, 41217, Control_c, 13, 11, 78
19, 41228, Control_c, 13, 11, 79
19, 41239, Control_c, 13, 11, 80
19, 41250, Control_c, 13, 11, 81
19, 41261, Control_c, 13, 11, 82
19, 41272, Control_c, 13, 11, 83
19, 41280, Note_on_c, 13, 64, 0
19, 41280, Note_on_c, 13, 61, 63
19, 41283, Control_c, 13, 11, 84
19, 41294, Control_c, 13, 11, 85
19, 41305, Control_c, 13, 11, 86
19, 41316, Control_c, 13, 11, 87
19, 41328, Control_c, 13, 11, 88
19, 41339, Control_c, 13, 11, 89
19, 41350, Control_c, 13, 11, 90
19, 41361, Control_c, 13, 11, 91
19, 41372, Control_c, 13, 11, 92
19, 41376, Note_on_c, 13, 61, 0
19, 41376, Note_on_c, 13, 62, 63
19, 41383, Control_c, 13, 11, 93
19, 41394, Control_c, 13, 11, 94
19, 41405, Control_c, 13, 11, 95
19, 41416, Control_c, 13, 11, 96
19, 41427, Control_c, 13, 11, 97
19, 41438, Control_c, 13, 11, 98
19, 41449, Control_c, 13, 11, 99
19, 41460, Control_c, 13, 11, 100
19, 41472, Control_c, 13, 11, 101
19, 41483, Control_c, 13, 11, 102
19, 41494, Control_c, 13, 11, 103
19, 41505, Control_c, 13, 11, 104
19, 41516, Control_c, 13, 11, 105
19, 41527, Control_c, 13, 11, 106
19, 41538, Control_c, 13, 11, 107
19, 41549, Control_c, 13, 11, 108
19, 41560, Control_c, 13, 11, 109
19, 41568, Note_on_c, 13, 62, 0
19, 41568, Note_on_c, 13, 64, 57
19, 41571, Control_c, 13, 11, 110
19, 41582, Control_c, 13, 11, 111
19, 41593, Control_c, 13, 11, 112
19, 41604, Control_c, 13, 11, 113
19, 41616, Control_c, 13, 11, 114
19, 41627, Control_c, 13, 11, 115
19, 41638, Control_c, 13, 11, 116
19, 41649, Control_c, 13, 11, 117
19, 41660, Control_c, 13, 11, 118
19, 41671, Control_c, 13, 11, 119
19, 41682, Control_c, 13, 11, 120
19, 41693, Control_c, 13, 11, 121
19, 41704, Control_c, 13, 11, 122
19, 41715, Control_c, 13, 11, 123
19, 41726, Control_c, 13, 11, 124
19, 41737, Control_c, 13, 11, 125
19, 41748, Control_c, 13, 11, 126
19, 41760, Note_on_c, 13, 64, 0
19, 41760, Control_c, 13, 11, 127
19, 41760, Note_on_c, 13, 64, 63
19, 41771, Control_c, 13, 11, 126
19, 41782, Control_c, 13, 11, 125
19, 41793, Control_c, 13, 11, 124
19, 41804, Control_c, 13, 11, 123
19, 41815, Control_c, 13, 11, 122
19, 41826, Control_c, 13, 11, 121
19, 41837, Control_c, 13, 11, 120
19, 41848, Control_c, 13, 11, 119
19, 41856, Note_on_c, 13, 64, 0
19, 41856, Note_on_c, 13, 63, 55
19, 41859, Control_c, 13, 11, 118
19, 41870, Control_c, 13, 11, 117
19, 41881, Control_c, 13, 11, 116
19, 41892, Control_c, 13, 11, 115
19, 41904, Control_c, 13, 11, 114
19, 41915, Control_c, 13, 11, 113
19, 41926, Control_c, 13, 11, 112
19, 41937, Control_c, 13, 11, 111
19, 41948, Control_c, 13, 11, 110
19, 41952, Note_on_c, 13, 63, 0
19, 41952, Note_on_c, 13, 62, 57
19, 41959, Control_c, 13, 11, 109
19, 41970, Control_c, 13, 11, 108
19, 41981, Control_c, 13, 11, 107
19, 41992, Control_c, 13, 11, 106
19, 42003, Control_c, 13, 11, 105
19, 42014, Control_c, 13, 11, 104
19, 42025, Control_c, 13, 11, 103
19, 42036, Control_c, 13, 11, 102
19, 42048, Control_c, 13, 11, 101
19, 42059, Control_c, 13, 11, 100
19, 42070, Control_c, 13, 11, 99
19, 42081, Control_c, 13, 11, 98
19, 42092, Control_c, 13, 11, 97
19, 42103, Control_c, 13, 11, 96
19, 42114, Control_c, 13, 11, 95
19, 42125, Control_c, 13, 11, 94
19, 42136, Control_c, 13, 11, 93
19, 42144, Note_on_c, 13, 62, 0
19, 42144, Note_on_c, 13, 61, 55
19, 42147, Control_c, 13, 11, 92
19, 42158, Control_c, 13, 11, 91
19, 42169, Control_c, 13, 11, 90
19, 42180, Control_c, 13, 11, 89
19, 42192, Control_c, 13, 11, 88
19, 42203, Control_c, 13, 11, 87
19, 42214, Control_c, 13, 11, 86
19, 42225, Control_c, 13, 11, 85
19, 42236, Control_c, 13, 11, 84
19, 42247, Control_c, 13, 11, 83
19, 42258, Control_c, 13, 11, 82
19, 42269, Control_c, 13, 11, 81
19, 42280, Control_c, 13, 11, 80
19, 42291, Control_c, 13, 11, 79
19, 42302, Control_c, 13, 11, 78
19, 42313, Control_c, 13, 11, 77
19, 42324, Control_c, 13, 11, 76
19, 42336, Note_on_c, 13, 61, 0
19, 42336, Control_c, 13, 11, 75
19, 42336, Program_c, 13, 48
19, 42336, Note_on_c, 13, 60, 61
19, 42432, Note_on_c, 13, 60, 0
19, 43488, Program_c, 13, 45
19, 43488, Control_c, 13, 11, 127
19, 43872, Note_on_c, 13, 56, 45
19, 43872, Note_on_c, 13, 66, 42
19, 43968, Note_on_c, 13, 56, 0
19, 43968, Note_on_c, 13, 66, 0
19, 44448, Note_on_c, 13, 56, 45
19, 44448, Note_on_c, 13, 66, 43
19, 44544, Note_on_c, 13, 56, 0
19, 44544, Note_on_c, 13, 66, 0
19, 45024, Note_on_c, 13, 65, 68
19, 45024, Note_on_c, 13, 68, 64
19, 45120, Note_on_c, 13, 65, 0
19, 45120, Note_on_c, 13, 68, 0
19, 45216, Note_on_c, 13, 58, 70
19, 45312, Note_on_c, 13, 58, 0
19, 45312, Note_on_c, 13, 60, 80
19, 45408, Note_on_c, 13, 60, 0
19, 45408, Note_on_c, 13, 62, 81
19, 45504, Note_on_c, 13, 62, 0
19, 45504, Note_on_c, 13, 65, 86
19, 45600, Note_on_c, 13, 65, 0
19, 45600, Note_on_c, 13, 68, 82
19, 45696, Note_on_c, 13, 68, 0
19, 45696, Note_on_c, 13, 71, 96
19, 45792, Note_on_c, 13, 71, 0
19, 45792, Program_c, 13, 44
19, 45792, Control_c, 13, 11, 92
19, 45792, Note_on_c, 13, 81, 44
19, 45888, Note_on_c, 13, 81, 0
19, 45888, Note_on_c, 13, 80, 45
19, 45984, Note_on_c, 13, 80, 0
19, 45984, Note_on_c, 13, 79, 40
19, 46176, Note_on_c, 13, 79, 0
19, 46176, Note_on_c, 13, 78, 49
19, 46368, Note_on_c, 13, 78, 0
19, 46368, Control_c, 13, 11, 92
19, 46368, Note_on_c, 13, 77, 44
19, 46384, Control_c, 13, 11, 93
19, 46400, Control_c, 13, 11, 94
19, 46417, Control_c, 13, 11, 95
19, 46433, Control_c, 13, 11, 96
19, 46450, Control_c, 13, 11, 97
19, 46464, Note_on_c, 13, 77, 0
19, 46464, Note_on_c, 13, 78, 49
19, 46466, Control_c, 13, 11, 98
19, 46483, Control_c, 13, 11, 99
19, 46499, Control_c, 13, 11, 100
19, 46516, Control_c, 13, 11, 101
19, 46532, Control_c, 13, 11, 102
19, 46549, Control_c, 13, 11, 103
19, 46565, Control_c, 13, 11, 104
19, 46581, Control_c, 13, 11, 105
19, 46598, Control_c, 13, 11, 106
19, 46614, Control_c, 13, 11, 107
19, 46631, Control_c, 13, 11, 108
19, 46647, Control_c, 13, 11, 109
19, 46656, Note_on_c, 13, 78, 0
19, 46656, Note_on_c, 13, 79, 45
19, 46664, Control_c, 13, 11, 110
19, 46680, Control_c, 13, 11, 111
19, 46697, Control_c, 13, 11, 112
19, 46713, Control_c, 13, 11, 113
19, 46730, Control_c, 13, 11, 114
19, 46746, Control_c, 13, 11, 115
19, 46762, Control_c, 13, 11, 116
19, 46779, Control_c, 13, 11, 117
19, 46795, Control_c, 13, 11, 118
19, 46812, Control_c, 13, 11, 119
19, 46828, Control_c, 13, 11, 120
19, 46845, Control_c, 13, 11, 121
19, 46848, Note_on_c, 13, 79, 0
19, 46848, Note_on_c, 13, 81, 49
19, 46861, Control_c, 13, 11, 122
19, 46878, Control_c, 13, 11, 123
19, 46894, Control_c, 13, 11, 124
19, 46911, Control_c, 13, 11, 125
19, 46927, Control_c, 13, 11, 126
19, 46944, Note_on_c, 13, 81, 0
19, 46944, Control_c, 13, 11, 127
19, 46944, Control_c, 13, 11, 92
19, 46944, Note_on_c, 13, 77, 47
19, 46960, Control_c, 13, 11, 93
19, 46976, Control_c, 13, 11, 94
19, 46993, Control_c, 13, 11, 95
19, 47009, Control_c, 13, 11, 96
19, 47026, Control_c, 13, 11, 97
19, 47040, Note_on_c, 13, 77, 0
19, 47040, Note_on_c, 13, 78, 45
19, 47042, Control_c, 13, 11, 98
19, 47059, Control_c, 13, 11, 99
19, 47075, Control_c, 13, 11, 100
19, 47092, Control_c, 13, 11, 101
19, 47108, Control_c, 13, 11, 102
19, 47125, Control_c, 13, 11, 103
19, 47141, Control_c, 13, 11, 104
19, 47157, Control_c, 13, 11, 105
19, 47174, Control_c, 13, 11, 106
19, 47190, Control_c, 13, 11, 107
19, 47207, Control_c, 13, 11, 108
19, 47223, Control_c, 13, 11, 109
19, 47232, Note_on_c, 13, 78, 0
19, 47232, Note_on_c, 13, 79, 41
19, 47240, Control_c, 13, 11, 110
19, 47256, Control_c, 13, 11, 111
19, 47273, Control_c, 13, 11, 112
19, 47289, Control_c, 13, 11, 113
19, 47306, Control_c, 13, 11, 114
19, 47322, Control_c, 13, 11, 115
19, 47338, Control_c, 13, 11, 116
19, 47355, Control_c, 13, 11, 117
19, 47371, Control_c, 13, 11, 118
19, 47388, Control_c, 13, 11, 119
19, 47404, Control_c, 13, 11, 120
19, 47421, Control_c, 13, 11, 121
19, 47424, Note_on_c, 13, 79, 0
19, 47424, Note_on_c, 13, 81, 49
19, 47437, Control_c, 13, 11, 122
19, 47454, Control_c, 13, 11, 123
19, 47470, Control_c, 13, 11, 124
19, 47487, Control_c, 13, 11, 125
19, 47503, Control_c, 13, 11, 126
19, 47520, Note_on_c, 13, 81, 0
19, 47520, Control_c, 13, 11, 127
19, 47520, Control_c, 13, 11, 127
19, 47520, Note_on_c, 13, 71, 32
19, 47712, Note_on_c, 13, 71, 0
19, 47712, Note_on_c, 13, 69, 27
19, 47904, Note_on_c, 13, 69, 0
19, 47904, Note_on_c, 13, 64, 30
19, 48096, Note_on_c, 13, 64, 0
19, 48096, Note_on_c, 13, 59, 26
19, 48288, Note_on_c, 13, 59, 0
19, 48288, Note_on_c, 13, 57, 30
19, 48480, Note_on_c, 13, 57, 0
19, 48480, Note_on_c, 13, 52, 32
19, 48672, Note_on_c, 13, 52, 0
19, 48672, Program_c, 13, 48
19, 48672, Control_c, 13, 11, 75
19, 48672, Note_on_c, 13, 62, 50
19, 48679, Control_c, 13, 11, 76
19, 48686, Control_c, 13, 11, 77
19, 48694, Control_c, 13, 11, 78
19, 48701, Control_c, 13, 11, 79
19, 48708, Control_c, 13, 11, 80
19, 48716, Control_c, 13, 11, 81
19, 48723, Control_c, 13, 11, 82
19, 48731, Control_c, 13, 11, 83
19, 48738, Control_c, 13, 11, 84
19, 48745, Control_c, 13, 11, 85
19, 48753, Control_c, 13, 11, 86
19, 48760, Control_c, 13, 11, 87
19, 48768, Control_c, 13, 11, 88
19, 48775, Control_c, 13, 11, 89
19, 48782, Control_c, 13, 11, 90
19, 48790, Control_c, 13, 11, 91
19, 48797, Control_c, 13, 11, 92
19, 48804, Control_c, 13, 11, 93
19, 48812, Control_c, 13, 11, 94
19, 48819, Control_c, 13, 11, 95
19, 48827, Control_c, 13, 11, 96
19, 48834, Control_c, 13, 11, 97
19, 48841, Control_c, 13, 11, 98
19, 48849, Control_c, 13, 11, 99
19, 48856, Control_c, 13, 11, 100
19, 48864, Control_c, 13, 11, 101
19, 48871, Control_c, 13, 11, 102
19, 48878, Control_c, 13, 11, 103
19, 48886, Control_c, 13, 11, 104
19, 48893, Control_c, 13, 11, 105
19, 48900, Control_c, 13, 11, 106
19, 48908, Control_c, 13, 11, 107
19, 48915, Control_c, 13, 11, 108
19, 48923, Control_c, 13, 11, 109
19, 48930, Control_c, 13, 11, 110
19, 48937, Control_c, 13, 11, 111
19, 48945, Control_c, 13, 11, 112
19, 48952, Control_c, 13, 11, 113
19, 48960, Control_c, 13, 11, 114
19, 48967, Control_c, 13, 11, 115
19, 48974, Control_c, 13, 11, 116
19, 48982, Control_c, 13, 11, 117
19, 48989, Control_c, 13, 11, 118
19, 48996, Control_c, 13, 11, 119
19, 49004, Control_c, 13, 11, 120
19, 49011, Control_c, 13, 11, 121
19, 49019, Control_c, 13, 11, 122
19, 49026, Control_c, 13, 11, 123
19, 49033, Control_c, 13, 11, 124
19, 49041, Control_c, 13, 11, 125
19, 49048, Control_c, 13, 11, 126
19, 49056, Control_c, 13, 11, 127
19, 49440, Note_on_c, 13, 62, 0
19, 49440, Note_on_c, 13, 64, 42
19, 49504, Note_on_c, 13, 64, 0
19, 49504, Note_on_c, 13, 62, 41
19, 49568, Note_on_c, 13, 62, 0
19, 49568, Note_on_c, 13, 61, 43
19, 49632, Note_on_c, 13, 61, 0
19, 49632, Note_on_c, 13, 60, 50
19, 49696, Note_on_c, 13, 60, 0
19, 49696, Note_on_c, 13, 61, 45
19, 49760, Note_on_c, 13, 61, 0
19, 49760, Note_on_c, 13, 64, 46
19, 49824, Note_on_c, 13, 64, 0
19, 49824, Control_c, 13, 11, 75
19, 49824, Note_on_c, 13, 68, 61
19, 49835, Control_c, 13, 11, 76
19, 49846, Control_c, 13, 11, 77
19, 49857, Control_c, 13, 11, 78
19, 49868, Control_c, 13, 11, 79
19, 49879, Control_c, 13, 11, 80
19, 49890, Control_c, 13, 11, 81
19, 49901, Control_c, 13, 11, 82
19, 49912, Control_c, 13, 11, 83
19, 49923, Control_c, 13, 11, 84
19, 49934, Control_c, 13, 11, 85
19, 49945, Control_c, 13, 11, 86
19, 49956, Control_c, 13, 11, 87
19, 49968, Control_c, 13, 11, 88
19, 49979, Control_c, 13, 11, 89
19, 49990, Control_c, 13, 11, 90
19, 50001, Control_c, 13, 11, 91
19, 50012, Control_c, 13, 11, 92
19, 50016, Note_on_c, 13, 68, 0
19, 50016, Note_on_c, 13, 71, 55
19, 50023, Control_c, 13, 11, 93
19, 50034, Control_c, 13, 11, 94
19, 50045, Control_c, 13, 11, 95
19, 50056, Control_c, 13, 11, 96
19, 50067, Control_c, 13, 11, 97
19, 50078, Control_c, 13, 11, 98
19, 50089, Control_c, 13, 11, 99
19, 50100, Control_c, 13, 11, 100
19, 50112, Control_c, 13, 11, 101
19, 50123, Control_c, 13, 11, 102
19, 50134, Control_c, 13, 11, 103
19, 50145, Control_c, 13, 11, 104
19, 50156, Control_c, 13, 11, 105
19, 50167, Control_c, 13, 11, 106
19, 50178, Control_c, 13, 11, 107
19, 50189, Control_c, 13, 11, 108
19, 50200, Control_c, 13, 11, 109
19, 50208, Note_on_c, 13, 71, 0
19, 50208, Note_on_c, 13, 69, 57
19, 50211, Control_c, 13, 11, 110
19, 50222, Control_c, 13, 11, 111
19, 50233, Control_c, 13, 11, 112
19, 50244, Control_c, 13, 11, 113
19, 50256, Control_c, 13, 11, 114
19, 50267, Control_c, 13, 11, 115
19, 50278, Control_c, 13, 11, 116
19, 50289, Control_c, 13, 11, 117
19, 50300, Control_c, 13, 11, 118
19, 50311, Control_c, 13, 11, 119
19, 50322, Control_c, 13, 11, 120
19, 50333, Control_c, 13, 11, 121
19, 50344, Control_c, 13, 11, 122
19, 50355, Control_c, 13, 11, 123
19, 50366, Control_c, 13, 11, 124
19, 50377, Control_c, 13, 11, 125
19, 50388, Control_c, 13, 11, 126
19, 50400, Note_on_c, 13, 69, 0
19, 50400, Control_c, 13, 11, 127
19, 50400, Program_c, 13, 41
19, 50400, Control_c, 13, 1, 64
19, 50400, Control_c, 13, 11, 92
19, 50400, Note_on_c, 13, 69, 27
19, 50405, Control_c, 13, 11, 93
19, 50410, Control_c, 13, 11, 94
19, 50416, Control_c, 13, 11, 95
19, 50421, Control_c, 13, 11, 96
19, 50427, Control_c, 13, 11, 97
19, 50432, Control_c, 13, 11, 98
19, 50438, Control_c, 13, 11, 99
19, 50443, Control_c, 13, 11, 100
19, 50449, Control_c, 13, 11, 101
19, 50454, Control_c, 13, 11, 102
19, 50460, Control_c, 13, 11, 103
19, 50465, Control_c, 13, 11, 104
19, 50471, Control_c, 13, 11, 105
19, 50476, Control_c, 13, 11, 106
19, 50482, Control_c, 13, 11, 107
19, 50487, Control_c, 13, 11, 108
19, 50493, Control_c, 13, 11, 109
19, 50498, Control_c, 13, 11, 110
19, 50504, Control_c, 13, 11, 111
19, 50509, Control_c, 13, 11, 112
19, 50515, Control_c, 13, 11, 113
19, 50520, Control_c, 13, 11, 114
19, 50526, Control_c, 13, 11, 115
19, 50531, Control_c, 13, 11, 116
19, 50537, Control_c, 13, 11, 117
19, 50542, Control_c, 13, 11, 118
19, 50548, Control_c, 13, 11, 119
19, 50553, Control_c, 13, 11, 120
19, 50559, Control_c, 13, 11, 121
19, 50564, Control_c, 13, 11, 122
19, 50570, Control_c, 13, 11, 123
19, 50575, Control_c, 13, 11, 124
19, 50581, Control_c, 13, 11, 125
19, 50586, Control_c, 13, 11, 126
19, 50592, Note_on_c, 13, 69, 0
19, 50592, Control_c, 13, 11, 127
19, 50592, Note_on_c, 13, 64, 30
19, 50601, Control_c, 13, 11, 126
19, 50610, Control_c, 13, 11, 125
19, 50619, Control_c, 13, 11, 124
19, 50628, Control_c, 13, 11, 123
19, 50637, Control_c, 13, 11, 122
19, 50646, Control_c, 13, 11, 121
19, 50656, Control_c, 13, 11, 120
19, 50665, Control_c, 13, 11, 119
19, 50674, Control_c, 13, 11, 118
19, 50683, Control_c, 13, 11, 117
19, 50692, Control_c, 13, 11, 116
19, 50701, Control_c, 13, 11, 115
19, 50710, Control_c, 13, 11, 114
19, 50720, Control_c, 13, 11, 113
19, 50729, Control_c, 13, 11, 112
19, 50738, Control_c, 13, 11, 111
19, 50747, Control_c, 13, 11, 110
19, 50756, Control_c, 13, 11, 109
19, 50765, Control_c, 13, 11, 108
19, 50774, Control_c, 13, 11, 107
19, 50784, Note_on_c, 13, 64, 0
19, 50784, Control_c, 13, 11, 106
19, 50784, Note_on_c, 13, 59, 30
19, 50793, Control_c, 13, 11, 105
19, 50802, Control_c, 13, 11, 104
19, 50811, Control_c, 13, 11, 103
19, 50820, Control_c, 13, 11, 102
19, 50829, Control_c, 13, 11, 101
19, 50838, Control_c, 13, 11, 100
19, 50848, Control_c, 13, 11, 99
19, 50857, Control_c, 13, 11, 98
19, 50866, Control_c, 13, 11, 97
19, 50875, Control_c, 13, 11, 96
19, 50884, Control_c, 13, 11, 95
19, 50893, Control_c, 13, 11, 94
19, 50902, Control_c, 13, 11, 93
19, 50912, Control_c, 13, 11, 92
19, 50921, Control_c, 13, 11, 91
19, 50930, Control_c, 13, 11, 90
19, 50939, Control_c, 13, 11, 89
19, 50948, Control_c, 13, 11, 88
19, 50957, Control_c, 13, 11, 87
19, 50966, Control_c, 13, 11, 86
19, 50976, Note_on_c, 13, 59, 0
19, 50976, Control_c, 13, 11, 85
19, 50976, Note_on_c, 13, 56, 33
19, 50985, Control_c, 13, 11, 84
19, 50994, Control_c, 13, 11, 83
19, 51003, Control_c, 13, 11, 82
19, 51012, Control_c, 13, 11, 81
19, 51021, Control_c, 13, 11, 80
19, 51030, Control_c, 13, 11, 79
19, 51040, Control_c, 13, 11, 78
19, 51049, Control_c, 13, 11, 77
19, 51058, Control_c, 13, 11, 76
19, 51067, Control_c, 13, 11, 75
19, 51076, Control_c, 13, 11, 74
19, 51085, Control_c, 13, 11, 73
19, 51094, Control_c, 13, 11, 72
19, 51104, Control_c, 13, 11, 71
19, 51113, Control_c, 13, 11, 70
19, 51122, Control_c, 13, 11, 69
19, 51131, Control_c, 13, 11, 68
19, 51140, Control_c, 13, 11, 67
19, 51149, Control_c, 13, 11, 66
19, 51158, Control_c, 13, 11, 65
19, 51168, Control_c, 13, 11, 64
19, 51456, Note_on_c, 13, 56, 0
19, 51552, Control_c, 13, 11, 92
19, 51552, Note_on_c, 13, 72, 25
19, 51557, Control_c, 13, 11, 93
19, 51562, Control_c, 13, 11, 94
19, 51568, Control_c, 13, 11, 95
19, 51573, Control_c, 13, 11, 96
19, 51579, Control_c, 13, 11, 97
19, 51584, Control_c, 13, 11, 98
19, 51590, Control_c, 13, 11, 99
19, 51595, Control_c, 13, 11, 100
19, 51601, Control_c, 13, 11, 101
19, 51606, Control_c, 13, 11, 102
19, 51612, Control_c, 13, 11, 103
19, 51617, Control_c, 13, 11, 104
19, 51623, Control_c, 13, 11, 105
19, 51628, Control_c, 13, 11, 106
19, 51634, Control_c, 13, 11, 107
19, 51639, Control_c, 13, 11, 108
19, 51645, Control_c, 13, 11, 109
19, 51650, Control_c, 13, 11, 110
19, 51656, Control_c, 13, 11, 111
19, 51661, Control_c, 13, 11, 112
19, 51667, Control_c, 13, 11, 113
19, 51672, Control_c, 13, 11, 114
19, 51678, Control_c, 13, 11, 115
19, 51683, Control_c, 13, 11, 116
19, 51689, Control_c, 13, 11, 117
19, 51694, Control_c, 13, 11, 118
19, 51700, Control_c, 13, 11, 119
19, 51705, Control_c, 13, 11, 120
19, 51711, Control_c, 13, 11, 121
19, 51716, Control_c, 13, 11, 122
19, 51722, Control_c, 13, 11, 123
19, 51727, Control_c, 13, 11, 124
19, 51733, Control_c, 13, 11, 125
19, 51738, Control_c, 13, 11, 126
19, 51744, Note_on_c, 13, 72, 0
19, 51744, Control_c, 13, 11, 127
19, 51744, Note_on_c, 13, 67, 33
19, 51753, Control_c, 13, 11, 126
19, 51762, Control_c, 13, 11, 125
19, 51771, Control_c, 13, 11, 124
19, 51780, Control_c, 13, 11, 123
19, 51789, Control_c, 13, 11, 122
19, 51798, Control_c, 13, 11, 121
19, 51808, Control_c, 13, 11, 120
19, 51817, Control_c, 13, 11, 119
19, 51826, Control_c, 13, 11, 118
19, 51835, Control_c, 13, 11, 117
19, 51844, Control_c, 13, 11, 116
19, 51853, Control_c, 13, 11, 115
19, 51862, Control_c, 13, 11, 114
19, 51872, Control_c, 13, 11, 113
19, 51881, Control_c, 13, 11, 112
19, 51890, Control_c, 13, 11, 111
19, 51899, Control_c, 13, 11, 110
19, 51908, Control_c, 13, 11, 109
19, 51917, Control_c, 13, 11, 108
19, 51926, Control_c, 13, 11, 107
19, 51936, Note_on_c, 13, 67, 0
19, 51936, Control_c, 13, 11, 106
19, 51936, Note_on_c, 13, 62, 29
19, 51945, Control_c, 13, 11, 105
19, 51954, Control_c, 13, 11, 104
19, 51963, Control_c, 13, 11, 103
19, 51972, Control_c, 13, 11, 102
19, 51981, Control_c, 13, 11, 101
19, 51990, Control_c, 13, 11, 100
19, 52000, Control_c, 13, 11, 99
19, 52009, Control_c, 13, 11, 98
19, 52018, Control_c, 13, 11, 97
19, 52027, Control_c, 13, 11, 96
19, 52036, Control_c, 13, 11, 95
19, 52045, Control_c, 13, 11, 94
19, 52054, Control_c, 13, 11, 93
19, 52064, Control_c, 13, 11, 92
19, 52073, Control_c, 13, 11, 91
19, 52082, Control_c, 13, 11, 90
19, 52091, Control_c, 13, 11, 89
19, 52100, Control_c, 13, 11, 88
19, 52109, Control_c, 13, 11, 87
19, 52118, Control_c, 13, 11, 86
19, 52128, Note_on_c, 13, 62, 0
19, 52128, Control_c, 13, 11, 85
19, 52128, Note_on_c, 13, 59, 26
19, 52137, Control_c, 13, 11, 84
19, 52146, Control_c, 13, 11, 83
19, 52155, Control_c, 13, 11, 82
19, 52164, Control_c, 13, 11, 81
19, 52173, Control_c, 13, 11, 80
19, 52182, Control_c, 13, 11, 79
19, 52192, Control_c, 13, 11, 78
19, 52201, Control_c, 13, 11, 77
19, 52210, Control_c, 13, 11, 76
19, 52219, Control_c, 13, 11, 75
19, 52228, Control_c, 13, 11, 74
19, 52237, Control_c, 13, 11, 73
19, 52246, Control_c, 13, 11, 72
19, 52256, Control_c, 13, 11, 71
19, 52265, Control_c, 13, 11, 70
19, 52274, Control_c, 13, 11, 69
19, 52283, Control_c, 13, 11, 68
19, 52292, Control_c, 13, 11, 67
19, 52301, Control_c, 13, 11, 66
19, 52310, Control_c, 13, 11, 65
19, 52320, Control_c, 13, 11, 64
19, 52704, Note_on_c, 13, 59, 0
19, 52704, Control_c, 13, 11, 127
19, 52704, Program_c, 13, 45
19, 52704, Control_c, 13, 1, 0
19, 52704, Note_on_c, 13, 58, 77
19, 52800, Note_on_c, 13, 58, 0
19, 52800, Note_on_c, 13, 55, 95
19, 52824, Note_on_c, 13, 64, 97
19, 52848, Note_on_c, 13, 70, 93
19, 52896, Note_on_c, 13, 55, 0
19, 52896, Note_on_c, 13, 64, 0
19, 52896, Note_on_c, 13, 70, 0
19, 53856, Program_c, 13, 48
19, 53856, Note_on_c, 13, 52, 35
19, 55008, Note_on_c, 13, 52, 0
19, 55008, Note_on_c, 13, 51, 29
19, 56160, Note_on_c, 13, 51, 0
19, 56160, Note_on_c, 13, 52, 35
19, 57312, Note_on_c, 13, 52, 0
19, 57312, Control_c, 13, 11, 64
19, 57312, Note_on_c, 13, 62, 95
19, 57339, Control_c, 13, 11, 65
19, 57366, Control_c, 13, 11, 66
19, 57394, Control_c, 13, 11, 67
19, 57421, Control_c, 13, 11, 68
19, 57449, Control_c, 13, 11, 69
19, 57476, Control_c, 13, 11, 70
19, 57504, Control_c, 13, 11, 71
19, 57531, Control_c, 13, 11, 72
19, 57558, Control_c, 13, 11, 73
19, 57586, Control_c, 13, 11, 74
19, 57600, Note_on_c, 13, 62, 0
19, 57600, Note_on_c, 13, 64, 88
19, 57613, Control_c, 13, 11, 75
19, 57641, Control_c, 13, 11, 76
19, 57668, Control_c, 13, 11, 77
19, 57696, Note_on_c, 13, 64, 0
19, 57696, Control_c, 13, 11, 78
19, 57696, Note_on_c, 13, 66, 88
19, 57723, Control_c, 13, 11, 79
19, 57750, Control_c, 13, 11, 80
19, 57778, Control_c, 13, 11, 81
19, 57792, Note_on_c, 13, 66, 0
19, 57792, Note_on_c, 13, 68, 87
19, 57805, Control_c, 13, 11, 82
19, 57833, Control_c, 13, 11, 83
19, 57860, Control_c, 13, 11, 84
19, 57888, Note_on_c, 13, 68, 0
19, 57888, Control_c, 13, 11, 85
19, 57888, Note_on_c, 13, 68, 87
19, 57915, Control_c, 13, 11, 86
19, 57942, Control_c, 13, 11, 87
19, 57970, Control_c, 13, 11, 88
19, 57997, Control_c, 13, 11, 89
19, 58025, Control_c, 13, 11, 90
19, 58052, Control_c, 13, 11, 91
19, 58080, Note_on_c, 13, 68, 0
19, 58080, Control_c, 13, 11, 92
19, 58080, Note_on_c, 13, 66, 88
19, 58107, Control_c, 13, 11, 93
19, 58134, Control_c, 13, 11, 94
19, 58162, Control_c, 13, 11, 95
19, 58189, Control_c, 13, 11, 96
19, 58217, Control_c, 13, 11, 97
19, 58244, Control_c, 13, 11, 98
19, 58272, Control_c, 13, 11, 99
19, 58299, Control_c, 13, 11, 100
19, 58326, Control_c, 13, 11, 101
19, 58354, Control_c, 13, 11, 102
19, 58368, Note_on_c, 13, 66, 0
19, 58368, Note_on_c, 13, 68, 94
19, 58381, Control_c, 13, 11, 103
19, 58409, Control_c, 13, 11, 104
19, 58436, Control_c, 13, 11, 105
19, 58464, Note_on_c, 13, 68, 0
19, 58464, Control_c, 13, 11, 106
19, 58464, Note_on_c, 13, 62, 97
19, 58491, Control_c, 13, 11, 107
19, 58518, Control_c, 13, 11, 108
19, 58546, Control_c, 13, 11, 109
19, 58573, Control_c, 13, 11, 110
19, 58601, Control_c, 13, 11, 111
19, 58628, Control_c, 13, 11, 112
19, 58656, Control_c, 13, 11, 113
19, 58683, Control_c, 13, 11, 114
19, 58710, Control_c, 13, 11, 115
19, 58738, Control_c, 13, 11, 116
19, 58752, Note_on_c, 13, 62, 0
19, 58752, Note_on_c, 13, 64, 97
19, 58765, Control_c, 13, 11, 117
19, 58793, Control_c, 13, 11, 118
19, 58820, Control_c, 13, 11, 119
19, 58848, Note_on_c, 13, 64, 0
19, 58848, Control_c, 13, 11, 120
19, 58848, Note_on_c, 13, 66, 96
19, 58875, Control_c, 13, 11, 121
19, 58902, Control_c, 13, 11, 122
19, 58930, Control_c, 13, 11, 123
19, 58944, Note_on_c, 13, 66, 0
19, 58944, Note_on_c, 13, 68, 96
19, 58957, Control_c, 13, 11, 124
19, 58985, Control_c, 13, 11, 125
19, 59012, Control_c, 13, 11, 126
19, 59040, Note_on_c, 13, 68, 0
19, 59040, Control_c, 13, 11, 127
19, 59040, Note_on_c, 13, 71, 97
19, 59136, Note_on_c, 13, 71, 0
19, 59136, Note_on_c, 13, 69, 92
19, 59232, Note_on_c, 13, 69, 0
19, 59232, Note_on_c, 13, 68, 95
19, 59328, Note_on_c, 13, 68, 0
19, 59328, Note_on_c, 13, 66, 97
19, 59424, Note_on_c, 13, 66, 0
19, 59424, Note_on_c, 13, 71, 91
19, 59520, Note_on_c, 13, 71, 0
19, 59520, Note_on_c, 13, 69, 91
19, 59616, Note_on_c, 13, 69, 0
19, 59616, Note_on_c, 13, 59, 90
19, 59637, Note_on_c, 13, 59, 0
19, 59648, Note_on_c, 13, 59, 89
19, 59669, Note_on_c, 13, 59, 0
19, 59680, Note_on_c, 13, 59, 90
19, 59701, Note_on_c, 13, 59, 0
19, 59712, Note_on_c, 13, 57, 89
19, 59733, Note_on_c, 13, 57, 0
19, 59744, Note_on_c, 13, 57, 83
19, 59765, Note_on_c, 13, 57, 0
19, 59776, Note_on_c, 13, 57, 86
19, 59797, Note_on_c, 13, 57, 0
19, 59808, Note_on_c, 13, 56, 83
19, 59829, Note_on_c, 13, 56, 0
19, 59840, Note_on_c, 13, 56, 84
19, 59861, Note_on_c, 13, 56, 0
19, 59872, Note_on_c, 13, 56, 84
19, 59893, Note_on_c, 13, 56, 0
19, 59904, Note_on_c, 13, 54, 81
19, 59925, Note_on_c, 13, 54, 0
19, 59936, Note_on_c, 13, 54, 84
19, 59957, Note_on_c, 13, 54, 0
19, 59968, Note_on_c, 13, 54, 78
19, 59989, Note_on_c, 13, 54, 0
19, 60000, Note_on_c, 13, 59, 78
19, 60021, Note_on_c, 13, 59, 0
19, 60032, Note_on_c, 13, 59, 84
19, 60053, Note_on_c, 13, 59, 0
19, 60064, Note_on_c, 13, 59, 81
19, 60085, Note_on_c, 13, 59, 0
19, 60096, Note_on_c, 13, 57, 72
19, 60117, Note_on_c, 13, 57, 0
19, 60128, Note_on_c, 13, 57, 71
19, 60149, Note_on_c, 13, 57, 0
19, 60160, Note_on_c, 13, 57, 80
19, 60181, Note_on_c, 13, 57, 0
19, 60192, Note_on_c, 13, 56, 76
19, 60213, Note_on_c, 13, 56, 0
19, 60224, Note_on_c, 13, 56, 74
19, 60245, Note_on_c, 13, 56, 0
19, 60256, Note_on_c, 13, 56, 70
19, 60277, Note_on_c, 13, 56, 0
19, 60288, Note_on_c, 13, 54, 66
19, 60309, Note_on_c, 13, 54, 0
19, 60320, Note_on_c, 13, 54, 70
19, 60341, Note_on_c, 13, 54, 0
19, 60352, Note_on_c, 13, 54, 74
19, 60373, Note_on_c, 13, 54, 0
19, 60384, Note_on_c, 13, 59, 62
19, 60405, Note_on_c, 13, 59, 0
19, 60416, Note_on_c, 13, 59, 61
19, 60437, Note_on_c, 13, 59, 0
19, 60448, Note_on_c, 13, 59, 67
19, 60469, Note_on_c, 13, 59, 0
19, 60480, Note_on_c, 13, 57, 58
19, 60501, Note_on_c, 13, 57, 0
19, 60512, Note_on_c, 13, 57, 57
19, 60533, Note_on_c, 13, 57, 0
19, 60544, Note_on_c, 13, 57, 60
19, 60565, Note_on_c, 13, 57, 0
19, 60576, Note_on_c, 13, 56, 55
19, 60597, Note_on_c, 13, 56, 0
19, 60608, Note_on_c, 13, 56, 58
19, 60629, Note_on_c, 13, 56, 0
19, 60640, Note_on_c, 13, 56, 47
19, 60661, Note_on_c, 13, 56, 0
19, 60672, Note_on_c, 13, 54, 47
19, 60693, Note_on_c, 13, 54, 0
19, 60704, Note_on_c, 13, 54, 49
19, 60725, Note_on_c, 13, 54, 0
19, 60736, Note_on_c, 13, 54, 49
19, 60757, Note_on_c, 13, 54, 0
19, 60768, Program_c, 13, 44
19, 60768, Note_on_c, 13, 64, 43
19, 60960, Note_on_c, 13, 64, 0
19, 60960, Note_on_c, 13, 66, 49
19, 61152, Note_on_c, 13, 66, 0
19, 61152, Note_on_c, 13, 64, 47
19, 61344, Note_on_c, 13, 64, 0
19, 61344, Note_on_c, 13, 66, 42
19, 61536, Note_on_c, 13, 66, 0
19, 61536, Note_on_c, 13, 64, 45
19, 61728, Note_on_c, 13, 64, 0
19, 61728, Note_on_c, 13, 66, 40
19, 61920, Note_on_c, 13, 66, 0
19, 61920, Note_on_c, 13, 64, 44
19, 62112, Note_on_c, 13, 64, 0
19, 62112, Note_on_c, 13, 66, 41
19, 62304, Note_on_c, 13, 66, 0
19, 62304, Note_on_c, 13, 64, 46
19, 62496, Note_on_c, 13, 64, 0
19, 62496, Note_on_c, 13, 66, 43
19, 62688, Note_on_c, 13, 66, 0
19, 62688, Note_on_c, 13, 64, 48
19, 62880, Note_on_c, 13, 64, 0
19, 62880, Note_on_c, 13, 66, 46
19, 63072, Note_on_c, 13, 66, 0
19, 63072, Note_on_c, 13, 71, 29
19, 63264, Note_on_c, 13, 71, 0
19, 63264, Note_on_c, 13, 69, 27
19, 63456, Note_on_c, 13, 69, 0
19, 63456, Note_on_c, 13, 64, 34
19, 63648, Note_on_c, 13, 64, 0
19, 63648, Note_on_c, 13, 59, 29
19, 63840, Note_on_c, 13, 59, 0
19, 63840, Note_on_c, 13, 57, 29
19, 64032, Note_on_c, 13, 57, 0
19, 64032, Note_on_c, 13, 52, 28
19, 64224, Note_on_c, 13, 52, 0
19, 64224, Program_c, 13, 48
19, 64224, Note_on_c, 13, 55, 41
19, 64248, Note_on_c, 13, 55, 0
19, 64248, Note_on_c, 13, 52, 44
19, 64272, Note_on_c, 13, 52, 0
19, 64272, Note_on_c, 13, 55, 46
19, 64296, Note_on_c, 13, 55, 0
19, 64296, Note_on_c, 13, 52, 50
19, 64320, Note_on_c, 13, 52, 0
19, 64320, Note_on_c, 13, 55, 53
19, 64344, Note_on_c, 13, 55, 0
19, 64344, Note_on_c, 13, 52, 58
19, 64368, Note_on_c, 13, 52, 0
19, 64368, Note_on_c, 13, 55, 60
19, 64392, Note_on_c, 13, 55, 0
19, 64392, Note_on_c, 13, 52, 60
19, 64416, Note_on_c, 13, 52, 0
19, 64416, Note_on_c, 13, 57, 61
19, 64440, Note_on_c, 13, 57, 0
19, 64440, Note_on_c, 13, 55, 64
19, 64464, Note_on_c, 13, 55, 0
19, 64464, Note_on_c, 13, 57, 60
19, 64488, Note_on_c, 13, 57, 0
19, 64488, Note_on_c, 13, 55, 64
19, 64512, Note_on_c, 13, 55, 0
19, 64512, Note_on_c, 13, 57, 64
19, 64536, Note_on_c, 13, 57, 0
19, 64536, Note_on_c, 13, 55, 68
19, 64560, Note_on_c, 13, 55, 0
19, 64560, Note_on_c, 13, 57, 74
19, 64584, Note_on_c, 13, 57, 0
19, 64584, Note_on_c, 13, 55, 75
19, 64608, Note_on_c, 13, 55, 0
19, 64608, Note_on_c, 13, 58, 76
19, 64704, Note_on_c, 13, 58, 0
19, 64800, Program_c, 13, 45
19, 64800, Note_on_c, 13, 58, 75
19, 64896, Note_on_c, 13, 58, 0
19, 65184, Program_c, 13, 48
19, 65184, Note_on_c, 13, 67, 93
19, 65208, Note_on_c, 13, 67, 0
19, 65208, Note_on_c, 13, 68, 87
19, 65232, Note_on_c, 13, 68, 0
19, 65232, Note_on_c, 13, 70, 89
19, 65256, Note_on_c, 13, 70, 0
19, 65256, Note_on_c, 13, 71, 96
19, 65280, Note_on_c, 13, 71, 0
19, 65280, Note_on_c, 13, 73, 95
19, 65304, Note_on_c, 13, 73, 0
19, 65304, Note_on_c, 13, 75, 98
19, 65328, Note_on_c, 13, 75, 0
19, 65328, Note_on_c, 13, 77, 98
19, 65352, Note_on_c, 13, 77, 0
19, 65352, Note_on_c, 13, 79, 93
19, 65376, Note_on_c, 13, 79, 0
19, 65376, Note_on_c, 13, 80, 99
19, 65472, Note_on_c, 13, 80, 0
19, 65568, Note_on_c, 13, 49, 106
19, 65952, Control_c, 13, 11, 127
19, 65962, Control_c, 13, 11, 126
19, 65973, Control_c, 13, 11, 125
19, 65984, Control_c, 13, 11, 124
19, 65995, Control_c, 13, 11, 123
19, 66005, Control_c, 13, 11, 122
19, 66016, Control_c, 13, 11, 121
19, 66027, Control_c, 13, 11, 120
19, 66038, Control_c, 13, 11, 119
19, 66048, Control_c, 13, 11, 118
19, 66059, Control_c, 13, 11, 117
19, 66070, Control_c, 13, 11, 116
19, 66081, Control_c, 13, 11, 115
19, 66091, Control_c, 13, 11, 114
19, 66102, Control_c, 13, 11, 113
19, 66113, Control_c, 13, 11, 112
19, 66124, Control_c, 13, 11, 111
19, 66135, Control_c, 13, 11, 110
19, 66145, Control_c, 13, 11, 109
19, 66156, Control_c, 13, 11, 108
19, 66167, Control_c, 13, 11, 107
19, 66178, Control_c, 13, 11, 106
19, 66188, Control_c, 13, 11, 105
19, 66199, Control_c, 13, 11, 104
19, 66210, Control_c, 13, 11, 103
19, 66221, Control_c, 13, 11, 102
19, 66231, Control_c, 13, 11, 101
19, 66242, Control_c, 13, 11, 100
19, 66253, Control_c, 13, 11, 99
19, 66264, Control_c, 13, 11, 98
19, 66274, Control_c, 13, 11, 97
19, 66285, Control_c, 13, 11, 96
19, 66296, Control_c, 13, 11, 95
19, 66307, Control_c, 13, 11, 94
19, 66318, Control_c, 13, 11, 93
19, 66328, Control_c, 13, 11, 92
19, 66339, Control_c, 13, 11, 91
19, 66350, Control_c, 13, 11, 90
19, 66361, Control_c, 13, 11, 89
19, 66371, Control_c, 13, 11, 88
19, 66382, Control_c, 13, 11, 87
19, 66393, Control_c, 13, 11, 86
19, 66404, Control_c, 13, 11, 85
19, 66414, Control_c, 13, 11, 84
19, 66425, Control_c, 13, 11, 83
19, 66436, Control_c, 13, 11, 82
19, 66447, Control_c, 13, 11, 81
19, 66458, Control_c, 13, 11, 80
19, 66468, Control_c, 13, 11, 79
19, 66479, Control_c, 13, 11, 78
19, 66490, Control_c, 13, 11, 77
19, 66501, Control_c, 13, 11, 76
19, 66511, Control_c, 13, 11, 75
19, 66522, Control_c, 13, 11, 74
19, 66533, Control_c, 13, 11, 73
19, 66544, Control_c, 13, 11, 72
19, 66554, Control_c, 13, 11, 71
19, 66565, Control_c, 13, 11, 70
19, 66576, Control_c, 13, 11, 69
19, 66587, Control_c, 13, 11, 68
19, 66597, Control_c, 13, 11, 67
19, 66608, Control_c, 13, 11, 66
19, 66619, Control_c, 13, 11, 65
19, 66630, Control_c, 13, 11, 64
19, 66641, Control_c, 13, 11, 63
19, 66651, Control_c, 13, 11, 62
19, 66662, Control_c, 13, 11, 61
19, 66673, Control_c, 13, 11, 60
19, 66684, Control_c, 13, 11, 59
19, 66694, Control_c, 13, 11, 58
19, 66705, Control_c, 13, 11, 57
19, 66716, Control_c, 13, 11, 56
19, 66727, Control_c, 13, 11, 55
19, 66737, Control_c, 13, 11, 54
19, 66748, Control_c, 13, 11, 53
19, 66759, Control_c, 13, 11, 52
19, 66770, Control_c, 13, 11, 51
19, 66781, Control_c, 13, 11, 50
19, 66791, Control_c, 13, 11, 49
19, 66802, Control_c, 13, 11, 48
19, 66813, Control_c, 13, 11, 47
19, 66824, Control_c, 13, 11, 46
19, 66834, Control_c, 13, 11, 45
19, 66845, Control_c, 13, 11, 44
19, 66856, Control_c, 13, 11, 43
19, 66867, Control_c, 13, 11, 42
19, 66877, Control_c, 13, 11, 41
19, 66888, Control_c, 13, 11, 40
19, 66899, Control_c, 13, 11, 39
19, 66910, Control_c, 13, 11, 38
19, 66920, Control_c, 13, 11, 37
19, 66931, Control_c, 13, 11, 36
19, 66942, Control_c, 13, 11, 35
19, 66953, Control_c, 13, 11, 34
19, 66964, Control_c, 13, 11, 33
19, 66974, Control_c, 13, 11, 32
19, 66985, Control_c, 13, 11, 31
19, 66996, Control_c, 13, 11, 30
19, 67007, Control_c, 13, 11, 29
19, 67017, Control_c, 13, 11, 28
19, 67028, Control_c, 13, 11, 27
19, 67039, Control_c, 13, 11, 26
19, 67050, Control_c, 13, 11, 25
19, 67060, Control_c, 13, 11, 24
19, 67071, Control_c, 13, 11, 23
19, 67082, Control_c, 13, 11, 22
19, 67093, Control_c, 13, 11, 21
19, 67104, Control_c, 13, 11, 20
19, 67296, Note_on_c, 13, 49, 0
19, 67680, Control_c, 13, 11, 127
19, 68256, Note_on_c, 13, 58, 41
19, 69984, Note_on_c, 13, 58, 0
19, 69984, Program_c, 13, 45
19, 70368, Note_on_c, 13, 60, 25
19, 70400, Note_on_c, 13, 60, 0
19, 70464, Note_on_c, 13, 64, 26
19, 70496, Note_on_c, 13, 64, 0
19, 70560, Note_on_c, 13, 62, 37
19, 70592, Note_on_c, 13, 62, 0
19, 70656, Note_on_c, 13, 61, 47
19, 70688, Note_on_c, 13, 61, 0
19, 70752, Note_on_c, 13, 60, 65
19, 70784, Note_on_c, 13, 60, 0
19, 70944, Note_on_c, 13, 64, 48
19, 70976, Note_on_c, 13, 64, 0
19, 71136, Note_on_c, 13, 67, 29
19, 71168, Note_on_c, 13, 67, 0
19, 71712, Program_c, 13, 48
19, 72672, Control_c, 13, 11, 127
19, 72672, Note_on_c, 13, 58, 29
19, 72677, Control_c, 13, 11, 126
19, 72682, Control_c, 13, 11, 125
19, 72688, Control_c, 13, 11, 124
19, 72693, Control_c, 13, 11, 123
19, 72699, Control_c, 13, 11, 122
19, 72704, Control_c, 13, 11, 121
19, 72710, Control_c, 13, 11, 120
19, 72715, Control_c, 13, 11, 119
19, 72721, Control_c, 13, 11, 118
19, 72726, Control_c, 13, 11, 117
19, 72732, Control_c, 13, 11, 116
19, 72737, Control_c, 13, 11, 115
19, 72743, Control_c, 13, 11, 114
19, 72748, Control_c, 13, 11, 113
19, 72754, Control_c, 13, 11, 112
19, 72759, Control_c, 13, 11, 111
19, 72765, Control_c, 13, 11, 110
19, 72770, Control_c, 13, 11, 109
19, 72776, Control_c, 13, 11, 108
19, 72781, Control_c, 13, 11, 107
19, 72787, Control_c, 13, 11, 106
19, 72792, Control_c, 13, 11, 105
19, 72798, Control_c, 13, 11, 104
19, 72803, Control_c, 13, 11, 103
19, 72809, Control_c, 13, 11, 102
19, 72814, Control_c, 13, 11, 101
19, 72820, Control_c, 13, 11, 100
19, 72825, Control_c, 13, 11, 99
19, 72831, Control_c, 13, 11, 98
19, 72836, Control_c, 13, 11, 97
19, 72842, Control_c, 13, 11, 96
19, 72847, Control_c, 13, 11, 95
19, 72853, Control_c, 13, 11, 94
19, 72858, Control_c, 13, 11, 93
19, 72864, Control_c, 13, 11, 92
19, 73440, Note_on_c, 13, 58, 0
19, 73440, Control_c, 13, 11, 127
19, 73440, Program_c, 13, 45
19, 73440, Note_on_c, 13, 62, 29
19, 73536, Note_on_c, 13, 62, 0
19, 73632, Note_on_c, 13, 61, 31
19, 73728, Note_on_c, 13, 61, 0
19, 73824, Note_on_c, 13, 60, 49
19, 73920, Note_on_c, 13, 60, 0
19, 73920, Note_on_c, 13, 64, 52
19, 74016, Note_on_c, 13, 64, 0
19, 74016, Note_on_c, 13, 62, 60
19, 74112, Note_on_c, 13, 62, 0
19, 74112, Note_on_c, 13, 61, 63
19, 74208, Note_on_c, 13, 61, 0
19, 74208, Note_on_c, 13, 60, 51
19, 74304, Note_on_c, 13, 60, 0
19, 74400, Note_on_c, 13, 64, 29
19, 74496, Note_on_c, 13, 64, 0
19, 74592, Program_c, 13, 48
19, 74592, Note_on_c, 13, 68, 28
19, 74616, Note_on_c, 13, 68, 0
19, 74616, Note_on_c, 13, 70, 34
19, 74640, Note_on_c, 13, 70, 0
19, 74640, Note_on_c, 13, 68, 34
19, 74664, Note_on_c, 13, 68, 0
19, 74664, Note_on_c, 13, 70, 26
19, 74688, Note_on_c, 13, 70, 0
19, 74688, Note_on_c, 13, 68, 27
19, 74712, Note_on_c, 13, 68, 0
19, 74712, Note_on_c, 13, 70, 33
19, 74736, Note_on_c, 13, 70, 0
19, 74736, Note_on_c, 13, 68, 32
19, 74760, Note_on_c, 13, 68, 0
19, 74760, Note_on_c, 13, 68, 28
19, 74784, Note_on_c, 13, 68, 0
19, 74784, Note_on_c, 13, 67, 25
19, 74808, Note_on_c, 13, 67, 0
19, 74808, Note_on_c, 13, 69, 32
19, 74832, Note_on_c, 13, 69, 0
19, 74832, Note_on_c, 13, 67, 35
19, 74856, Note_on_c, 13, 67, 0
19, 74856, Note_on_c, 13, 69, 26
19, 74880, Note_on_c, 13, 69, 0
19, 74880, Note_on_c, 13, 67, 28
19, 74904, Note_on_c, 13, 67, 0
19, 74904, Note_on_c, 13, 69, 31
19, 74928, Note_on_c, 13, 69, 0
19, 74928, Note_on_c, 13, 66, 28
19, 74952, Note_on_c, 13, 66, 0
19, 74952, Note_on_c, 13, 67, 34
19, 74976, Note_on_c, 13, 67, 0
19, 74976, Note_on_c, 13, 66, 28
19, 75000, Note_on_c, 13, 66, 0
19, 75000, Note_on_c, 13, 68, 28
19, 75024, Note_on_c, 13, 68, 0
19, 75024, Note_on_c, 13, 66, 25
19, 75048, Note_on_c, 13, 66, 0
19, 75048, Note_on_c, 13, 68, 28
19, 75072, Note_on_c, 13, 68, 0
19, 75072, Note_on_c, 13, 66, 33
19, 75096, Note_on_c, 13, 66, 0
19, 75096, Note_on_c, 13, 68, 27
19, 75120, Note_on_c, 13, 68, 0
19, 75120, Note_on_c, 13, 66, 29
19, 75144, Note_on_c, 13, 66, 0
19, 75144, Note_on_c, 13, 66, 27
19, 75168, Note_on_c, 13, 66, 0
19, 75168, Note_on_c, 13, 65, 27
19, 75264, Note_on_c, 13, 65, 0
19, 75360, Program_c, 13, 45
19, 75360, Note_on_c, 13, 60, 31
19, 75360, Note_on_c, 13, 69, 26
19, 75456, Note_on_c, 13, 60, 0
19, 75456, Note_on_c, 13, 69, 0
19, 75744, Program_c, 13, 48
19, 75744, Note_on_c, 13, 68, 31
19, 75768, Note_on_c, 13, 68, 0
19, 75768, Note_on_c, 13, 70, 26
19, 75792, Note_on_c, 13, 70, 0
19, 75792, Note_on_c, 13, 68, 35
19, 75816, Note_on_c, 13, 68, 0
19, 75816, Note_on_c, 13, 70, 25
19, 75840, Note_on_c, 13, 70, 0
19, 75840, Note_on_c, 13, 68, 30
19, 75864, Note_on_c, 13, 68, 0
19, 75864, Note_on_c, 13, 70, 30
19, 75888, Note_on_c, 13, 70, 0
19, 75888, Note_on_c, 13, 68, 33
19, 75912, Note_on_c, 13, 68, 0
19, 75912, Note_on_c, 13, 68, 31
19, 75936, Note_on_c, 13, 68, 0
19, 75936, Note_on_c, 13, 67, 34
19, 75960, Note_on_c, 13, 67, 0
19, 75960, Note_on_c, 13, 69, 30
19, 75984, Note_on_c, 13, 69, 0
19, 75984, Note_on_c, 13, 67, 31
19, 76008, Note_on_c, 13, 67, 0
19, 76008, Note_on_c, 13, 69, 30
19, 76032, Note_on_c, 13, 69, 0
19, 76032, Note_on_c, 13, 67, 25
19, 76056, Note_on_c, 13, 67, 0
19, 76056, Note_on_c, 13, 69, 26
19, 76080, Note_on_c, 13, 69, 0
19, 76080, Note_on_c, 13, 66, 27
19, 76104, Note_on_c, 13, 66, 0
19, 76104, Note_on_c, 13, 67, 32
19, 76128, Note_on_c, 13, 67, 0
19, 76128, Note_on_c, 13, 66, 35
19, 76152, Note_on_c, 13, 66, 0
19, 76152, Note_on_c, 13, 68, 29
19, 76176, Note_on_c, 13, 68, 0
19, 76176, Note_on_c, 13, 66, 31
19, 76200, Note_on_c, 13, 66, 0
19, 76200, Note_on_c, 13, 68, 27
19, 76224, Note_on_c, 13, 68, 0
19, 76224, Note_on_c, 13, 66, 34
19, 76248, Note_on_c, 13, 66, 0
19, 76248, Note_on_c, 13, 68, 34
19, 76272, Note_on_c, 13, 68, 0
19, 76272, Note_on_c, 13, 66, 26
19, 76296, Note_on_c, 13, 66, 0
19, 76296, Note_on_c, 13, 66, 35
19, 76320, Note_on_c, 13, 66, 0
19, 76320, Note_on_c, 13, 65, 32
19, 76344, Note_on_c, 13, 65, 0
19, 76344, Note_on_c, 13, 68, 33
19, 76368, Note_on_c, 13, 68, 0
19, 76368, Note_on_c, 13, 65, 37
19, 76392, Note_on_c, 13, 65, 0
19, 76392, Note_on_c, 13, 68, 36
19, 76416, Note_on_c, 13, 68, 0
19, 76416, Note_on_c, 13, 65, 41
19, 76440, Note_on_c, 13, 65, 0
19, 76440, Note_on_c, 13, 68, 37
19, 76464, Note_on_c, 13, 68, 0
19, 76464, Note_on_c, 13, 62, 39
19, 76488, Note_on_c, 13, 62, 0
19, 76488, Note_on_c, 13, 65, 43
19, 76512, Note_on_c, 13, 65, 0
19, 76512, Note_on_c, 13, 65, 47
19, 76608, Note_on_c, 13, 65, 0
19, 76608, Note_on_c, 13, 68, 53
19, 76632, Note_on_c, 13, 68, 0
19, 76632, Note_on_c, 13, 69, 54
19, 76656, Note_on_c, 13, 69, 0
19, 76656, Note_on_c, 13, 70, 56
19, 76680, Note_on_c, 13, 70, 0
19, 76680, Note_on_c, 13, 71, 61
19, 76704, Note_on_c, 13, 71, 0
19, 76704, Note_on_c, 13, 72, 55
19, 76800, Note_on_c, 13, 72, 0
19, 77280, Program_c, 13, 45
19, 77280, Note_on_c, 13, 60, 46
19, 77376, Note_on_c, 13, 60, 0
19, 77376, Note_on_c, 13, 55, 38
19, 77472, Note_on_c, 13, 55, 0
19, 77472, Program_c, 13, 48
19, 77472, Note_on_c, 13, 70, 34
19, 77504, Note_on_c, 13, 70, 0
19, 77504, Note_on_c, 13, 72, 29
19, 77536, Note_on_c, 13, 72, 0
19, 77536, Note_on_c, 13, 70, 31
19, 77568, Note_on_c, 13, 70, 0
19, 77568, Note_on_c, 13, 67, 30
19, 77600, Note_on_c, 13, 67, 0
19, 77600, Note_on_c, 13, 69, 31
19, 77632, Note_on_c, 13, 69, 0
19, 77632, Note_on_c, 13, 67, 23
19, 77664, Note_on_c, 13, 67, 0
19, 77664, Note_on_c, 13, 65, 30
19, 77696, Note_on_c, 13, 65, 0
19, 77696, Note_on_c, 13, 67, 26
19, 77728, Note_on_c, 13, 67, 0
19, 77728, Note_on_c, 13, 65, 21
19, 77760, Note_on_c, 13, 65, 0
19, 77760, Note_on_c, 13, 62, 19
19, 77792, Note_on_c, 13, 62, 0
19, 77792, Note_on_c, 13, 64, 18
19, 77824, Note_on_c, 13, 64, 0
19, 77824, Note_on_c, 13, 62, 16
19, 77856, Note_on_c, 13, 62, 0
19, 77856, Note_on_c, 13, 58, 17
19, 77952, Note_on_c, 13, 58, 0
19, 78048, Note_on_c, 13, 70, 34
19, 78080, Note_on_c, 13, 70, 0
19, 78080, Note_on_c, 13, 72, 34
19, 78112, Note_on_c, 13, 72, 0
19, 78112, Note_on_c, 13, 70, 35
19, 78144, Note_on_c, 13, 70, 0
19, 78144, Note_on_c, 13, 67, 31
19, 78176, Note_on_c, 13, 67, 0
19, 78176, Note_on_c, 13, 69, 27
19, 78208, Note_on_c, 13, 69, 0
19, 78208, Note_on_c, 13, 67, 26
19, 78240, Note_on_c, 13, 67, 0
19, 78240, Note_on_c, 13, 65, 28
19, 78272, Note_on_c, 13, 65, 0
19, 78272, Note_on_c, 13, 67, 24
19, 78304, Note_on_c, 13, 67, 0
19, 78304, Note_on_c, 13, 65, 26
19, 78336, Note_on_c, 13, 65, 0
19, 78336, Note_on_c, 13, 62, 28
19, 78368, Note_on_c, 13, 62, 0
19, 78368, Note_on_c, 13, 64, 20
19, 78400, Note_on_c, 13, 64, 0
19, 78400, Note_on_c, 13, 62, 17
19, 78432, Note_on_c, 13, 62, 0
19, 78432, Note_on_c, 13, 58, 15
19, 78528, Note_on_c, 13, 58, 0
19, 79200, Program_c, 13, 45
19, 79776, Note_on_c, 13, 70, 49
19, 79872, Note_on_c, 13, 70, 0
19, 79872, Note_on_c, 13, 67, 40
19, 79968, Note_on_c, 13, 67, 0
19, 79968, Note_on_c, 13, 64, 46
19, 80064, Note_on_c, 13, 64, 0
19, 80064, Note_on_c, 13, 62, 49
19, 80160, Note_on_c, 13, 62, 0
19, 80160, Note_on_c, 13, 58, 62
19, 80256, Note_on_c, 13, 58, 0
19, 80256, Note_on_c, 13, 55, 62
19, 80352, Note_on_c, 13, 55, 0
19, 80352, Note_on_c, 13, 70, 60
19, 80448, Note_on_c, 13, 70, 0
19, 80448, Note_on_c, 13, 67, 66
19, 80544, Note_on_c, 13, 67, 0
19, 80544, Note_on_c, 13, 64, 75
19, 80640, Note_on_c, 13, 64, 0
19, 80640, Note_on_c, 13, 62, 75
19, 80736, Note_on_c, 13, 62, 0
19, 80736, Note_on_c, 13, 58, 81
19, 80832, Note_on_c, 13, 58, 0
19, 80832, Note_on_c, 13, 55, 84
19, 80928, Note_on_c, 13, 55, 0
19, 80928, Program_c, 13, 48
19, 80928, Note_on_c, 13, 68, 91
19, 80952, Note_on_c, 13, 68, 0
19, 80952, Note_on_c, 13, 69, 87
19, 80976, Note_on_c, 13, 69, 0
19, 80976, Note_on_c, 13, 68, 87
19, 81000, Note_on_c, 13, 68, 0
19, 81000, Note_on_c, 13, 69, 96
19, 81024, Note_on_c, 13, 69, 0
19, 81024, Note_on_c, 13, 68, 93
19, 81048, Note_on_c, 13, 68, 0
19, 81048, Note_on_c, 13, 69, 88
19, 81072, Note_on_c, 13, 69, 0
19, 81072, Note_on_c, 13, 68, 95
19, 81096, Note_on_c, 13, 68, 0
19, 81096, Note_on_c, 13, 69, 97
19, 81120, Note_on_c, 13, 69, 0
19, 81120, Note_on_c, 13, 68, 87
19, 81144, Note_on_c, 13, 68, 0
19, 81144, Note_on_c, 13, 69, 88
19, 81168, Note_on_c, 13, 69, 0
19, 81168, Note_on_c, 13, 68, 94
19, 81192, Note_on_c, 13, 68, 0
19, 81192, Note_on_c, 13, 69, 94
19, 81216, Note_on_c, 13, 69, 0
19, 81216, Note_on_c, 13, 68, 95
19, 81240, Note_on_c, 13, 68, 0
19, 81240, Note_on_c, 13, 69, 87
19, 81264, Note_on_c, 13, 69, 0
19, 81264, Note_on_c, 13, 68, 95
19, 81288, Note_on_c, 13, 68, 0
19, 81288, Note_on_c, 13, 69, 89
19, 81312, Note_on_c, 13, 69, 0
19, 81312, Note_on_c, 13, 68, 90
19, 81336, Note_on_c, 13, 68, 0
19, 81336, Note_on_c, 13, 69, 90
19, 81360, Note_on_c, 13, 69, 0
19, 81360, Note_on_c, 13, 68, 96
19, 81384, Note_on_c, 13, 68, 0
19, 81384, Note_on_c, 13, 69, 93
19, 81408, Note_on_c, 13, 69, 0
19, 81408, Note_on_c, 13, 68, 91
19, 81432, Note_on_c, 13, 68, 0
19, 81432, Note_on_c, 13, 69, 95
19, 81456, Note_on_c, 13, 69, 0
19, 81456, Note_on_c, 13, 68, 90
19, 81480, Note_on_c, 13, 68, 0
19, 81480, Note_on_c, 13, 69, 88
19, 81504, Note_on_c, 13, 69, 0
19, 81504, Note_on_c, 13, 68, 89
19, 81528, Note_on_c, 13, 68, 0
19, 81528, Note_on_c, 13, 69, 90
19, 81552, Note_on_c, 13, 69, 0
19, 81552, Note_on_c, 13, 68, 87
19, 81576, Note_on_c, 13, 68, 0
19, 81576, Note_on_c, 13, 69, 88
19, 81600, Note_on_c, 13, 69, 0
19, 81600, Note_on_c, 13, 68, 92
19, 81624, Note_on_c, 13, 68, 0
19, 81624, Note_on_c, 13, 69, 89
19, 81648, Note_on_c, 13, 69, 0
19, 81648, Note_on_c, 13, 68, 90
19, 81672, Note_on_c, 13, 68, 0
19, 81672, Note_on_c, 13, 69, 95
19, 81696, Note_on_c, 13, 69, 0
19, 81696, Note_on_c, 13, 68, 87
19, 81720, Note_on_c, 13, 68, 0
19, 81720, Note_on_c, 13, 69, 94
19, 81744, Note_on_c, 13, 69, 0
19, 81744, Note_on_c, 13, 68, 96
19, 81768, Note_on_c, 13, 68, 0
19, 81768, Note_on_c, 13, 69, 97
19, 81792, Note_on_c, 13, 69, 0
19, 81792, Note_on_c, 13, 68, 91
19, 81816, Note_on_c, 13, 68, 0
19, 81816, Note_on_c, 13, 69, 96
19, 81840, Note_on_c, 13, 69, 0
19, 81840, Note_on_c, 13, 68, 97
19, 81864, Note_on_c, 13, 68, 0
19, 81864, Note_on_c, 13, 69, 99
19, 81888, Note_on_c, 13, 69, 0
19, 81888, Note_on_c, 13, 68, 99
19, 81912, Note_on_c, 13, 68, 0
19, 81912, Note_on_c, 13, 69, 106
19, 81936, Note_on_c, 13, 69, 0
19, 81936, Note_on_c, 13, 68, 97
19, 81960, Note_on_c, 13, 68, 0
19, 81960, Note_on_c, 13, 69, 100
19, 81984, Note_on_c, 13, 69, 0
19, 81984, Note_on_c, 13, 68, 102
19, 82008, Note_on_c, 13, 68, 0
19, 82008, Note_on_c, 13, 69, 101
19, 82032, Note_on_c, 13, 69, 0
19, 82032, Note_on_c, 13, 68, 110
19, 82056, Note_on_c, 13, 68, 0
19, 82056, Note_on_c, 13, 69, 112
19, 82080, Note_on_c, 13, 69, 0
19, 82080, Note_on_c, 13, 68, 111
19, 82104, Note_on_c, 13, 68, 0
19, 82104, Note_on_c, 13, 70, 109
19, 82128, Note_on_c, 13, 70, 0
19, 82128, Note_on_c, 13, 68, 103
19, 82152, Note_on_c, 13, 68, 0
19, 82152, Note_on_c, 13, 70, 109
19, 82176, Note_on_c, 13, 70, 0
19, 82176, Note_on_c, 13, 68, 113
19, 82200, Note_on_c, 13, 68, 0
19, 82200, Note_on_c, 13, 70, 112
19, 82224, Note_on_c, 13, 70, 0
19, 82224, Note_on_c, 13, 68, 112
19, 82248, Note_on_c, 13, 68, 0
19, 82248, Note_on_c, 13, 70, 105
19, 82272, Note_on_c, 13, 70, 0
19, 82272, Note_on_c, 13, 68, 108
19, 82296, Note_on_c, 13, 68, 0
19, 82296, Note_on_c, 13, 70, 104
19, 82320, Note_on_c, 13, 70, 0
19, 82320, Note_on_c, 13, 68, 111
19, 82344, Note_on_c, 13, 68, 0
19, 82344, Note_on_c, 13, 70, 110
19, 82368, Note_on_c, 13, 70, 0
19, 82368, Note_on_c, 13, 68, 110
19, 82392, Note_on_c, 13, 68, 0
19, 82392, Note_on_c, 13, 70, 109
19, 82416, Note_on_c, 13, 70, 0
19, 82416, Note_on_c, 13, 68, 108
19, 82440, Note_on_c, 13, 68, 0
19, 82440, Note_on_c, 13, 70, 103
19, 82464, Note_on_c, 13, 70, 0
19, 82464, Note_on_c, 13, 68, 113
19, 82488, Note_on_c, 13, 68, 0
19, 82488, Note_on_c, 13, 70, 103
19, 82512, Note_on_c, 13, 70, 0
19, 82512, Note_on_c, 13, 68, 106
19, 82536, Note_on_c, 13, 68, 0
19, 82536, Note_on_c, 13, 70, 103
19, 82560, Note_on_c, 13, 70, 0
19, 82560, Note_on_c, 13, 68, 104
19, 82584, Note_on_c, 13, 68, 0
19, 82584, Note_on_c, 13, 70, 104
19, 82608, Note_on_c, 13, 70, 0
19, 82608, Note_on_c, 13, 68, 113
19, 82632, Note_on_c, 13, 68, 0
19, 82632, Note_on_c, 13, 70, 107
19, 82656, Note_on_c, 13, 70, 0
19, 82656, Note_on_c, 13, 68, 113
19, 82680, Note_on_c, 13, 68, 0
19, 82680, Note_on_c, 13, 70, 105
19, 82704, Note_on_c, 13, 70, 0
19, 82704, Note_on_c, 13, 68, 112
19, 82728, Note_on_c, 13, 68, 0
19, 82728, Note_on_c, 13, 70, 105
19, 82752, Note_on_c, 13, 70, 0
19, 82752, Note_on_c, 13, 68, 112
19, 82776, Note_on_c, 13, 68, 0
19, 82776, Note_on_c, 13, 70, 105
19, 82800, Note_on_c, 13, 70, 0
19, 82800, Note_on_c, 13, 68, 107
19, 82824, Note_on_c, 13, 68, 0
19, 82824, Note_on_c, 13, 70, 106
19, 82848, Note_on_c, 13, 70, 0
19, 82848, Note_on_c, 13, 68, 109
19, 82872, Note_on_c, 13, 68, 0
19, 82872, Note_on_c, 13, 70, 112
19, 82896, Note_on_c, 13, 70, 0
19, 82896, Note_on_c, 13, 68, 112
19, 82920, Note_on_c, 13, 68, 0
19, 82920, Note_on_c, 13, 70, 106
19, 82944, Note_on_c, 13, 70, 0
19, 82944, Note_on_c, 13, 68, 104
19, 82968, Note_on_c, 13, 68, 0
19, 82968, Note_on_c, 13, 70, 103
19, 82992, Note_on_c, 13, 70, 0
19, 82992, Note_on_c, 13, 68, 105
19, 83016, Note_on_c, 13, 68, 0
19, 83016, Note_on_c, 13, 70, 104
19, 83040, Note_on_c, 13, 70, 0
19, 83040, Note_on_c, 13, 68, 109
19, 83064, Note_on_c, 13, 68, 0
19, 83064, Note_on_c, 13, 70, 113
19, 83088, Note_on_c, 13, 70, 0
19, 83088, Note_on_c, 13, 68, 113
19, 83112, Note_on_c, 13, 68, 0
19, 83112, Note_on_c, 13, 70, 107
19, 83136, Note_on_c, 13, 70, 0
19, 83136, Note_on_c, 13, 68, 107
19, 83160, Note_on_c, 13, 68, 0
19, 83160, Note_on_c, 13, 70, 110
19, 83184, Note_on_c, 13, 70, 0
19, 83184, Note_on_c, 13, 68, 103
19, 83208, Note_on_c, 13, 68, 0
19, 83208, Note_on_c, 13, 70, 111
19, 83232, Note_on_c, 13, 70, 0
19, 83232, Note_on_c, 13, 68, 94
19, 83256, Note_on_c, 13, 68, 0
19, 83256, Note_on_c, 13, 69, 91
19, 83280, Note_on_c, 13, 69, 0
19, 83280, Note_on_c, 13, 68, 97
19, 83304, Note_on_c, 13, 68, 0
19, 83304, Note_on_c, 13, 69, 89
19, 83328, Note_on_c, 13, 69, 0
19, 83328, Note_on_c, 13, 68, 92
19, 83352, Note_on_c, 13, 68, 0
19, 83352, Note_on_c, 13, 69, 91
19, 83376, Note_on_c, 13, 69, 0
19, 83376, Note_on_c, 13, 68, 91
19, 83400, Note_on_c, 13, 68, 0
19, 83400, Note_on_c, 13, 69, 89
19, 83424, Note_on_c, 13, 69, 0
19, 83424, Note_on_c, 13, 68, 95
19, 83448, Note_on_c, 13, 68, 0
19, 83448, Note_on_c, 13, 69, 89
19, 83472, Note_on_c, 13, 69, 0
19, 83472, Note_on_c, 13, 68, 92
19, 83496, Note_on_c, 13, 68, 0
19, 83496, Note_on_c, 13, 69, 94
19, 83520, Note_on_c, 13, 69, 0
19, 83520, Note_on_c, 13, 68, 95
19, 83544, Note_on_c, 13, 68, 0
19, 83544, Note_on_c, 13, 69, 89
19, 83568, Note_on_c, 13, 69, 0
19, 83568, Note_on_c, 13, 68, 89
19, 83592, Note_on_c, 13, 68, 0
19, 83592, Note_on_c, 13, 69, 90
19, 83616, Note_on_c, 13, 69, 0
19, 83616, Note_on_c, 13, 68, 91
19, 83640, Note_on_c, 13, 68, 0
19, 83640, Note_on_c, 13, 69, 96
19, 83664, Note_on_c, 13, 69, 0
19, 83664, Note_on_c, 13, 68, 92
19, 83688, Note_on_c, 13, 68, 0
19, 83688, Note_on_c, 13, 69, 91
19, 83712, Note_on_c, 13, 69, 0
19, 83712, Note_on_c, 13, 68, 90
19, 83736, Note_on_c, 13, 68, 0
19, 83736, Note_on_c, 13, 69, 95
19, 83760, Note_on_c, 13, 69, 0
19, 83760, Note_on_c, 13, 68, 89
19, 83784, Note_on_c, 13, 68, 0
19, 83784, Note_on_c, 13, 69, 89
19, 83808, Note_on_c, 13, 69, 0
19, 83808, Note_on_c, 13, 68, 88
19, 83832, Note_on_c, 13, 68, 0
19, 83832, Note_on_c, 13, 69, 92
19, 83856, Note_on_c, 13, 69, 0
19, 83856, Note_on_c, 13, 68, 88
19, 83880, Note_on_c, 13, 68, 0
19, 83880, Note_on_c, 13, 69, 96
19, 83904, Note_on_c, 13, 69, 0
19, 83904, Note_on_c, 13, 68, 92
19, 83928, Note_on_c, 13, 68, 0
19, 83928, Note_on_c, 13, 69, 89
19, 83952, Note_on_c, 13, 69, 0
19, 83952, Note_on_c, 13, 68, 97
19, 83976, Note_on_c, 13, 68, 0
19, 83976, Note_on_c, 13, 69, 90
19, 84000, Note_on_c, 13, 69, 0
19, 84000, Note_on_c, 13, 68, 96
19, 84024, Note_on_c, 13, 68, 0
19, 84024, Note_on_c, 13, 69, 93
19, 84048, Note_on_c, 13, 69, 0
19, 84048, Note_on_c, 13, 68, 97
19, 84072, Note_on_c, 13, 68, 0
19, 84072, Note_on_c, 13, 69, 98
19, 84096, Note_on_c, 13, 69, 0
19, 84096, Note_on_c, 13, 68, 96
19, 84120, Note_on_c, 13, 68, 0
19, 84120, Note_on_c, 13, 69, 95
19, 84144, Note_on_c, 13, 69, 0
19, 84144, Note_on_c, 13, 68, 97
19, 84168, Note_on_c, 13, 68, 0
19, 84168, Note_on_c, 13, 69, 95
19, 84192, Note_on_c, 13, 69, 0
19, 84192, Note_on_c, 13, 68, 100
19, 84216, Note_on_c, 13, 68, 0
19, 84216, Note_on_c, 13, 69, 99
19, 84240, Note_on_c, 13, 69, 0
19, 84240, Note_on_c, 13, 68, 97
19, 84264, Note_on_c, 13, 68, 0
19, 84264, Note_on_c, 13, 69, 104
19, 84288, Note_on_c, 13, 69, 0
19, 84288, Note_on_c, 13, 68, 105
19, 84312, Note_on_c, 13, 68, 0
19, 84312, Note_on_c, 13, 69, 101
19, 84336, Note_on_c, 13, 69, 0
19, 84336, Note_on_c, 13, 66, 105
19, 84360, Note_on_c, 13, 66, 0
19, 84360, Note_on_c, 13, 68, 108
19, 84384, Note_on_c, 13, 68, 0
19, 84384, Note_on_c, 13, 68, 104
19, 84408, Note_on_c, 13, 68, 0
19, 84408, Note_on_c, 13, 70, 103
19, 84432, Note_on_c, 13, 70, 0
19, 84432, Note_on_c, 13, 68, 111
19, 84456, Note_on_c, 13, 68, 0
19, 84456, Note_on_c, 13, 70, 104
19, 84480, Note_on_c, 13, 70, 0
19, 84480, Note_on_c, 13, 68, 110
19, 84504, Note_on_c, 13, 68, 0
19, 84504, Note_on_c, 13, 70, 110
19, 84528, Note_on_c, 13, 70, 0
19, 84528, Note_on_c, 13, 68, 104
19, 84552, Note_on_c, 13, 68, 0
19, 84552, Note_on_c, 13, 70, 107
19, 84576, Note_on_c, 13, 70, 0
19, 84576, Note_on_c, 13, 68, 106
19, 84600, Note_on_c, 13, 68, 0
19, 84600, Note_on_c, 13, 70, 104
19, 84624, Note_on_c, 13, 70, 0
19, 84624, Note_on_c, 13, 68, 104
19, 84648, Note_on_c, 13, 68, 0
19, 84648, Note_on_c, 13, 70, 110
19, 84672, Note_on_c, 13, 70, 0
19, 84672, Note_on_c, 13, 68, 111
19, 84696, Note_on_c, 13, 68, 0
19, 84696, Note_on_c, 13, 70, 105
19, 84720, Note_on_c, 13, 70, 0
19, 84720, Note_on_c, 13, 68, 108
19, 84744, Note_on_c, 13, 68, 0
19, 84744, Note_on_c, 13, 70, 109
19, 84768, Note_on_c, 13, 70, 0
19, 84768, Note_on_c, 13, 68, 110
19, 84792, Note_on_c, 13, 68, 0
19, 84792, Note_on_c, 13, 70, 104
19, 84816, Note_on_c, 13, 70, 0
19, 84816, Note_on_c, 13, 68, 110
19, 84840, Note_on_c, 13, 68, 0
19, 84840, Note_on_c, 13, 70, 105
19, 84864, Note_on_c, 13, 70, 0
19, 84864, Note_on_c, 13, 68, 110
19, 84888, Note_on_c, 13, 68, 0
19, 84888, Note_on_c, 13, 70, 113
19, 84912, Note_on_c, 13, 70, 0
19, 84912, Note_on_c, 13, 68, 111
19, 84936, Note_on_c, 13, 68, 0
19, 84936, Note_on_c, 13, 70, 110
19, 84960, Note_on_c, 13, 70, 0
19, 84960, Note_on_c, 13, 68, 108
19, 84984, Note_on_c, 13, 68, 0
19, 84984, Note_on_c, 13, 70, 108
19, 85008, Note_on_c, 13, 70, 0
19, 85008, Note_on_c, 13, 68, 110
19, 85032, Note_on_c, 13, 68, 0
19, 85032, Note_on_c, 13, 70, 107
19, 85056, Note_on_c, 13, 70, 0
19, 85056, Note_on_c, 13, 68, 105
19, 85080, Note_on_c, 13, 68, 0
19, 85080, Note_on_c, 13, 70, 111
19, 85104, Note_on_c, 13, 70, 0
19, 85104, Note_on_c, 13, 68, 105
19, 85128, Note_on_c, 13, 68, 0
19, 85128, Note_on_c, 13, 70, 107
19, 85152, Note_on_c, 13, 70, 0
19, 85152, Note_on_c, 13, 68, 111
19, 85176, Note_on_c, 13, 68, 0
19, 85176, Note_on_c, 13, 70, 112
19, 85200, Note_on_c, 13, 70, 0
19, 85200, Note_on_c, 13, 68, 113
19, 85224, Note_on_c, 13, 68, 0
19, 85224, Note_on_c, 13, 70, 107
19, 85248, Note_on_c, 13, 70, 0
19, 85248, Note_on_c, 13, 68, 103
19, 85272, Note_on_c, 13, 68, 0
19, 85272, Note_on_c, 13, 70, 104
19, 85296, Note_on_c, 13, 70, 0
19, 85296, Note_on_c, 13, 68, 110
19, 85320, Note_on_c, 13, 68, 0
19, 85320, Note_on_c, 13, 70, 103
19, 85344, Note_on_c, 13, 70, 0
19, 85344, Note_on_c, 13, 68, 107
19, 85368, Note_on_c, 13, 68, 0
19, 85368, Note_on_c, 13, 70, 113
19, 85392, Note_on_c, 13, 70, 0
19, 85392, Note_on_c, 13, 68, 109
19, 85416, Note_on_c, 13, 68, 0
19, 85416, Note_on_c, 13, 70, 111
19, 85440, Note_on_c, 13, 70, 0
19, 85440, Note_on_c, 13, 68, 108
19, 85464, Note_on_c, 13, 68, 0
19, 85464, Note_on_c, 13, 70, 106
19, 85488, Note_on_c, 13, 70, 0
19, 85488, Note_on_c, 13, 68, 106
19, 85512, Note_on_c, 13, 68, 0
19, 85512, Note_on_c, 13, 70, 103
19, 85536, Note_on_c, 13, 70, 0
19, 85536, Note_on_c, 13, 68, 104
19, 85560, Note_on_c, 13, 68, 0
19, 85560, Note_on_c, 13, 70, 109
19, 85584, Note_on_c, 13, 70, 0
19, 85584, Note_on_c, 13, 68, 111
19, 85608, Note_on_c, 13, 68, 0
19, 85608, Note_on_c, 13, 70, 104
19, 85632, Note_on_c, 13, 70, 0
19, 85632, Note_on_c, 13, 68, 101
19, 85656, Note_on_c, 13, 68, 0
19, 85656, Note_on_c, 13, 70, 107
19, 85680, Note_on_c, 13, 70, 0
19, 85680, Note_on_c, 13, 68, 98
19, 85704, Note_on_c, 13, 68, 0
19, 85704, Note_on_c, 13, 70, 99
19, 85728, Note_on_c, 13, 70, 0
19, 85728, Note_on_c, 13, 68, 105
19, 85752, Note_on_c, 13, 68, 0
19, 85752, Note_on_c, 13, 70, 104
19, 85776, Note_on_c, 13, 70, 0
19, 85776, Note_on_c, 13, 68, 101
19, 85800, Note_on_c, 13, 68, 0
19, 85800, Note_on_c, 13, 70, 96
19, 85824, Note_on_c, 13, 70, 0
19, 85824, Note_on_c, 13, 68, 95
19, 85848, Note_on_c, 13, 68, 0
19, 85848, Note_on_c, 13, 70, 97
19, 85872, Note_on_c, 13, 70, 0
19, 85872, Note_on_c, 13, 68, 99
19, 85896, Note_on_c, 13, 68, 0
19, 85896, Note_on_c, 13, 70, 94
19, 85920, Note_on_c, 13, 70, 0
19, 85920, Note_on_c, 13, 68, 95
19, 85944, Note_on_c, 13, 68, 0
19, 85944, Note_on_c, 13, 70, 87
19, 85968, Note_on_c, 13, 70, 0
19, 85968, Note_on_c, 13, 68, 85
19, 85992, Note_on_c, 13, 68, 0
19, 85992, Note_on_c, 13, 70, 92
19, 86016, Note_on_c, 13, 70, 0
19, 86016, Note_on_c, 13, 68, 91
19, 86040, Note_on_c, 13, 68, 0
19, 86040, Note_on_c, 13, 70, 85
19, 86064, Note_on_c, 13, 70, 0
19, 86064, Note_on_c, 13, 68, 82
19, 86088, Note_on_c, 13, 68, 0
19, 86088, Note_on_c, 13, 70, 83
19, 86112, Note_on_c, 13, 70, 0
19, 86112, Note_on_c, 13, 68, 85
19, 86136, Note_on_c, 13, 68, 0
19, 86136, Note_on_c, 13, 70, 82
19, 86160, Note_on_c, 13, 70, 0
19, 86160, Note_on_c, 13, 68, 78
19, 86184, Note_on_c, 13, 68, 0
19, 86184, Note_on_c, 13, 70, 77
19, 86208, Note_on_c, 13, 70, 0
19, 86208, Note_on_c, 13, 68, 84
19, 86232, Note_on_c, 13, 68, 0
19, 86232, Note_on_c, 13, 70, 75
19, 86256, Note_on_c, 13, 70, 0
19, 86256, Note_on_c, 13, 68, 79
19, 86280, Note_on_c, 13, 68, 0
19, 86280, Note_on_c, 13, 70, 81
19, 86304, Note_on_c, 13, 70, 0
19, 86304, Note_on_c, 13, 68, 77
19, 86328, Note_on_c, 13, 68, 0
19, 86328, Note_on_c, 13, 70, 72
19, 86352, Note_on_c, 13, 70, 0
19, 86352, Note_on_c, 13, 68, 69
19, 86376, Note_on_c, 13, 68, 0
19, 86376, Note_on_c, 13, 70, 64
19, 86400, Note_on_c, 13, 70, 0
19, 86400, Note_on_c, 13, 68, 62
19, 86424, Note_on_c, 13, 68, 0
19, 86424, Note_on_c, 13, 70, 67
19, 86448, Note_on_c, 13, 70, 0
19, 86448, Note_on_c, 13, 68, 61
19, 86472, Note_on_c, 13, 68, 0
19, 86472, Note_on_c, 13, 70, 65
19, 86496, Note_on_c, 13, 70, 0
19, 86496, Note_on_c, 13, 68, 59
19, 86520, Note_on_c, 13, 68, 0
19, 86520, Note_on_c, 13, 70, 53
19, 86544, Note_on_c, 13, 70, 0
19, 86544, Note_on_c, 13, 68, 50
19, 86568, Note_on_c, 13, 68, 0
19, 86568, Note_on_c, 13, 70, 58
19, 86592, Note_on_c, 13, 70, 0
19, 86592, Note_on_c, 13, 68, 52
19, 86616, Note_on_c, 13, 68, 0
19, 86616, Note_on_c, 13, 70, 45
19, 86640, Note_on_c, 13, 70, 0
19, 86640, Note_on_c, 13, 68, 49
19, 86664, Note_on_c, 13, 68, 0
19, 86664, Note_on_c, 13, 70, 46
19, 86688, Note_on_c, 13, 70, 0
19, 86688, Note_on_c, 13, 60, 28
19, 86720, Note_on_c, 13, 60, 0
19, 86736, Note_on_c, 13, 60, 27
19, 86768, Note_on_c, 13, 60, 0
19, 86784, Note_on_c, 13, 56, 34
19, 86816, Note_on_c, 13, 56, 0
19, 86832, Note_on_c, 13, 56, 26
19, 86864, Note_on_c, 13, 56, 0
19, 86880, Note_on_c, 13, 60, 26
19, 86912, Note_on_c, 13, 60, 0
19, 86928, Note_on_c, 13, 60, 26
19, 86960, Note_on_c, 13, 60, 0
19, 86976, Note_on_c, 13, 56, 25
19, 87008, Note_on_c, 13, 56, 0
19, 87024, Note_on_c, 13, 56, 25
19, 87056, Note_on_c, 13, 56, 0
19, 87072, Note_on_c, 13, 60, 33
19, 87104, Note_on_c, 13, 60, 0
19, 87120, Note_on_c, 13, 60, 26
19, 87152, Note_on_c, 13, 60, 0
19, 87168, Note_on_c, 13, 56, 29
19, 87200, Note_on_c, 13, 56, 0
19, 87216, Note_on_c, 13, 56, 29
19, 87248, Note_on_c, 13, 56, 0
19, 87264, Note_on_c, 13, 60, 29
19, 87296, Note_on_c, 13, 60, 0
19, 87312, Note_on_c, 13, 60, 33
19, 87344, Note_on_c, 13, 60, 0
19, 87360, Note_on_c, 13, 56, 26
19, 87392, Note_on_c, 13, 56, 0
19, 87408, Note_on_c, 13, 56, 33
19, 87440, Note_on_c, 13, 56, 0
19, 87456, Note_on_c, 13, 60, 34
19, 87488, Note_on_c, 13, 60, 0
19, 87504, Note_on_c, 13, 60, 30
19, 87536, Note_on_c, 13, 60, 0
19, 87552, Note_on_c, 13, 56, 34
19, 87584, Note_on_c, 13, 56, 0
19, 87600, Note_on_c, 13, 56, 25
19, 87632, Note_on_c, 13, 56, 0
19, 87648, Note_on_c, 13, 60, 31
19, 87680, Note_on_c, 13, 60, 0
19, 87696, Note_on_c, 13, 60, 35
19, 87728, Note_on_c, 13, 60, 0
19, 87744, Note_on_c, 13, 56, 34
19, 87776, Note_on_c, 13, 56, 0
19, 87792, Note_on_c, 13, 56, 34
19, 87824, Note_on_c, 13, 56, 0
19, 87840, Note_on_c, 13, 60, 32
19, 87872, Note_on_c, 13, 60, 0
19, 87888, Note_on_c, 13, 60, 26
19, 87920, Note_on_c, 13, 60, 0
19, 87936, Note_on_c, 13, 56, 34
19, 87968, Note_on_c, 13, 56, 0
19, 87984, Note_on_c, 13, 56, 32
19, 88016, Note_on_c, 13, 56, 0
19, 88032, Note_on_c, 13, 60, 33
19, 88064, Note_on_c, 13, 60, 0
19, 88080, Note_on_c, 13, 60, 32
19, 88112, Note_on_c, 13, 60, 0
19, 88128, Note_on_c, 13, 56, 31
19, 88160, Note_on_c, 13, 56, 0
19, 88176, Note_on_c, 13, 56, 27
19, 88208, Note_on_c, 13, 56, 0
19, 88224, Note_on_c, 13, 60, 29
19, 88256, Note_on_c, 13, 60, 0
19, 88272, Note_on_c, 13, 60, 33
19, 88304, Note_on_c, 13, 60, 0
19, 88320, Note_on_c, 13, 56, 29
19, 88352, Note_on_c, 13, 56, 0
19, 88368, Note_on_c, 13, 56, 30
19, 88400, Note_on_c, 13, 56, 0
19, 88416, Note_on_c, 13, 61, 42
19, 88448, Note_on_c, 13, 61, 0
19, 88464, Note_on_c, 13, 61, 45
19, 88496, Note_on_c, 13, 61, 0
19, 88512, Note_on_c, 13, 56, 49
19, 88544, Note_on_c, 13, 56, 0
19, 88560, Note_on_c, 13, 56, 45
19, 88592, Note_on_c, 13, 56, 0
19, 88608, Note_on_c, 13, 61, 50
19, 88640, Note_on_c, 13, 61, 0
19, 88656, Note_on_c, 13, 61, 47
19, 88688, Note_on_c, 13, 61, 0
19, 88704, Note_on_c, 13, 56, 54
19, 88736, Note_on_c, 13, 56, 0
19, 88752, Note_on_c, 13, 56, 57
19, 88784, Note_on_c, 13, 56, 0
19, 88800, Note_on_c, 13, 61, 58
19, 88832, Note_on_c, 13, 61, 0
19, 88848, Note_on_c, 13, 61, 58
19, 88880, Note_on_c, 13, 61, 0
19, 88896, Note_on_c, 13, 56, 54
19, 88928, Note_on_c, 13, 56, 0
19, 88944, Note_on_c, 13, 56, 55
19, 88976, Note_on_c, 13, 56, 0
19, 88992, Note_on_c, 13, 60, 31
19, 89024, Note_on_c, 13, 60, 0
19, 89040, Note_on_c, 13, 60, 27
19, 89072, Note_on_c, 13, 60, 0
19, 89088, Note_on_c, 13, 56, 30
19, 89120, Note_on_c, 13, 56, 0
19, 89136, Note_on_c, 13, 56, 29
19, 89168, Note_on_c, 13, 56, 0
19, 89184, Note_on_c, 13, 60, 30
19, 89216, Note_on_c, 13, 60, 0
19, 89232, Note_on_c, 13, 60, 35
19, 89264, Note_on_c, 13, 60, 0
19, 89280, Note_on_c, 13, 56, 32
19, 89312, Note_on_c, 13, 56, 0
19, 89328, Note_on_c, 13, 56, 27
19, 89360, Note_on_c, 13, 56, 0
19, 89376, Note_on_c, 13, 60, 26
19, 89408, Note_on_c, 13, 60, 0
19, 89424, Note_on_c, 13, 60, 35
19, 89456, Note_on_c, 13, 60, 0
19, 89472, Note_on_c, 13, 56, 26
19, 89504, Note_on_c, 13, 56, 0
19, 89520, Note_on_c, 13, 56, 26
19, 89552, Note_on_c, 13, 56, 0
19, 89568, Note_on_c, 13, 60, 26
19, 89600, Note_on_c, 13, 60, 0
19, 89616, Note_on_c, 13, 60, 27
19, 89648, Note_on_c, 13, 60, 0
19, 89664, Note_on_c, 13, 56, 35
19, 89696, Note_on_c, 13, 56, 0
19, 89712, Note_on_c, 13, 56, 29
19, 89744, Note_on_c, 13, 56, 0
19, 89760, Note_on_c, 13, 60, 33
19, 89792, Note_on_c, 13, 60, 0
19, 89808, Note_on_c, 13, 60, 31
19, 89840, Note_on_c, 13, 60, 0
19, 89856, Note_on_c, 13, 56, 32
19, 89888, Note_on_c, 13, 56, 0
19, 89904, Note_on_c, 13, 56, 35
19, 89936, Note_on_c, 13, 56, 0
19, 89952, Note_on_c, 13, 60, 31
19, 89984, Note_on_c, 13, 60, 0
19, 90000, Note_on_c, 13, 60, 26
19, 90032, Note_on_c, 13, 60, 0
19, 90048, Note_on_c, 13, 56, 34
19, 90080, Note_on_c, 13, 56, 0
19, 90096, Note_on_c, 13, 56, 27
19, 90128, Note_on_c, 13, 56, 0
19, 90144, Note_on_c, 13, 60, 32
19, 90176, Note_on_c, 13, 60, 0
19, 90192, Note_on_c, 13, 60, 27
19, 90224, Note_on_c, 13, 60, 0
19, 90240, Note_on_c, 13, 56, 25
19, 90272, Note_on_c, 13, 56, 0
19, 90288, Note_on_c, 13, 56, 35
19, 90320, Note_on_c, 13, 56, 0
19, 90336, Note_on_c, 13, 60, 29
19, 90368, Note_on_c, 13, 60, 0
19, 90384, Note_on_c, 13, 60, 33
19, 90416, Note_on_c, 13, 60, 0
19, 90432, Note_on_c, 13, 56, 35
19, 90464, Note_on_c, 13, 56, 0
19, 90480, Note_on_c, 13, 56, 31
19, 90512, Note_on_c, 13, 56, 0
19, 90528, Note_on_c, 13, 60, 33
19, 90560, Note_on_c, 13, 60, 0
19, 90576, Note_on_c, 13, 60, 26
19, 90608, Note_on_c, 13, 60, 0
19, 90624, Note_on_c, 13, 56, 25
19, 90656, Note_on_c, 13, 56, 0
19, 90672, Note_on_c, 13, 56, 25
19, 90704, Note_on_c, 13, 56, 0
19, 90720, Note_on_c, 13, 61, 42
19, 90752, Note_on_c, 13, 61, 0
19, 90768, Note_on_c, 13, 61, 49
19, 90800, Note_on_c, 13, 61, 0
19, 90816, Note_on_c, 13, 56, 41
19, 90848, Note_on_c, 13, 56, 0
19, 90864, Note_on_c, 13, 56, 50
19, 90896, Note_on_c, 13, 56, 0
19, 90912, Note_on_c, 13, 61, 45
19, 90944, Note_on_c, 13, 61, 0
19, 90960, Note_on_c, 13, 61, 47
19, 90992, Note_on_c, 13, 61, 0
19, 91008, Note_on_c, 13, 56, 54
19, 91040, Note_on_c, 13, 56, 0
19, 91056, Note_on_c, 13, 56, 48
19, 91088, Note_on_c, 13, 56, 0
19, 91104, Note_on_c, 13, 61, 59
19, 91136, Note_on_c, 13, 61, 0
19, 91152, Note_on_c, 13, 61, 60
19, 91184, Note_on_c, 13, 61, 0
19, 91200, Note_on_c, 13, 56, 60
19, 91232, Note_on_c, 13, 56, 0
19, 91248, Note_on_c, 13, 56, 56
19, 91280, Note_on_c, 13, 56, 0
19, 91296, Note_on_c, 13, 63, 47
19, 91338, Note_on_c, 13, 63, 0
19, 91360, Note_on_c, 13, 56, 41
19, 91402, Note_on_c, 13, 56, 0
19, 91424, Note_on_c, 13, 63, 44
19, 91466, Note_on_c, 13, 63, 0
19, 91488, Note_on_c, 13, 56, 43
19, 91530, Note_on_c, 13, 56, 0
19, 91552, Note_on_c, 13, 63, 48
19, 91594, Note_on_c, 13, 63, 0
19, 91616, Note_on_c, 13, 56, 47
19, 91658, Note_on_c, 13, 56, 0
19, 91680, Note_on_c, 13, 63, 42
19, 91722, Note_on_c, 13, 63, 0
19, 91744, Note_on_c, 13, 56, 50
19, 91786, Note_on_c, 13, 56, 0
19, 91808, Note_on_c, 13, 63, 49
19, 91850, Note_on_c, 13, 63, 0
19, 91872, Note_on_c, 13, 63, 49
19, 91914, Note_on_c, 13, 63, 0
19, 91936, Note_on_c, 13, 56, 45
19, 91978, Note_on_c, 13, 56, 0
19, 92000, Note_on_c, 13, 63, 45
19, 92042, Note_on_c, 13, 63, 0
19, 92064, Note_on_c, 13, 56, 50
19, 92106, Note_on_c, 13, 56, 0
19, 92128, Note_on_c, 13, 63, 50
19, 92170, Note_on_c, 13, 63, 0
19, 92192, Note_on_c, 13, 56, 49
19, 92234, Note_on_c, 13, 56, 0
19, 92256, Note_on_c, 13, 63, 50
19, 92298, Note_on_c, 13, 63, 0
19, 92320, Note_on_c, 13, 56, 48
19, 92362, Note_on_c, 13, 56, 0
19, 92384, Note_on_c, 13, 63, 41
19, 92426, Note_on_c, 13, 63, 0
19, 92448, Program_c, 13, 44
19, 92448, Control_c, 13, 11, 92
19, 92448, Note_on_c, 13, 56, 59
19, 92448, Note_on_c, 13, 62, 58
19, 92480, Control_c, 13, 11, 93
19, 92513, Control_c, 13, 11, 94
19, 92546, Control_c, 13, 11, 95
19, 92579, Control_c, 13, 11, 96
19, 92612, Control_c, 13, 11, 97
19, 92640, Note_on_c, 13, 56, 0
19, 92640, Note_on_c, 13, 62, 0
19, 92640, Note_on_c, 13, 59, 58
19, 92645, Control_c, 13, 11, 98
19, 92678, Control_c, 13, 11, 99
19, 92711, Control_c, 13, 11, 100
19, 92744, Control_c, 13, 11, 101
19, 92777, Control_c, 13, 11, 102
19, 92810, Control_c, 13, 11, 103
19, 92832, Note_on_c, 13, 59, 0
19, 92832, Note_on_c, 13, 56, 59
19, 92832, Note_on_c, 13, 62, 63
19, 92842, Control_c, 13, 11, 104
19, 92875, Control_c, 13, 11, 105
19, 92908, Control_c, 13, 11, 106
19, 92941, Control_c, 13, 11, 107
19, 92974, Control_c, 13, 11, 108
19, 93007, Control_c, 13, 11, 109
19, 93024, Note_on_c, 13, 56, 0
19, 93024, Note_on_c, 13, 62, 0
19, 93024, Note_on_c, 13, 56, 65
19, 93024, Note_on_c, 13, 62, 57
19, 93040, Control_c, 13, 11, 110
19, 93073, Control_c, 13, 11, 111
19, 93106, Control_c, 13, 11, 112
19, 93139, Control_c, 13, 11, 113
19, 93172, Control_c, 13, 11, 114
19, 93205, Control_c, 13, 11, 115
19, 93216, Note_on_c, 13, 56, 0
19, 93216, Note_on_c, 13, 62, 0
19, 93216, Note_on_c, 13, 59, 55
19, 93237, Control_c, 13, 11, 116
19, 93270, Control_c, 13, 11, 117
19, 93303, Control_c, 13, 11, 118
19, 93336, Control_c, 13, 11, 119
19, 93369, Control_c, 13, 11, 120
19, 93402, Control_c, 13, 11, 121
19, 93408, Note_on_c, 13, 59, 0
19, 93408, Note_on_c, 13, 56, 57
19, 93435, Control_c, 13, 11, 122
19, 93468, Control_c, 13, 11, 123
19, 93501, Control_c, 13, 11, 124
19, 93534, Control_c, 13, 11, 125
19, 93567, Control_c, 13, 11, 126
19, 93600, Note_on_c, 13, 56, 0
19, 93600, Control_c, 13, 11, 127
19, 93600, Program_c, 13, 48
19, 93600, Note_on_c, 13, 63, 45
19, 93642, Note_on_c, 13, 63, 0
19, 93664, Note_on_c, 13, 56, 47
19, 93706, Note_on_c, 13, 56, 0
19, 93728, Note_on_c, 13, 63, 43
19, 93770, Note_on_c, 13, 63, 0
19, 93792, Note_on_c, 13, 56, 40
19, 93834, Note_on_c, 13, 56, 0
19, 93856, Note_on_c, 13, 63, 42
19, 93898, Note_on_c, 13, 63, 0
19, 93920, Note_on_c, 13, 56, 45
19, 93962, Note_on_c, 13, 56, 0
19, 93984, Note_on_c, 13, 63, 49
19, 94026, Note_on_c, 13, 63, 0
19, 94048, Note_on_c, 13, 56, 45
19, 94090, Note_on_c, 13, 56, 0
19, 94112, Note_on_c, 13, 63, 40
19, 94154, Note_on_c, 13, 63, 0
19, 94176, Note_on_c, 13, 63, 47
19, 94218, Note_on_c, 13, 63, 0
19, 94240, Note_on_c, 13, 56, 43
19, 94282, Note_on_c, 13, 56, 0
19, 94304, Note_on_c, 13, 63, 48
19, 94346, Note_on_c, 13, 63, 0
19, 94368, Note_on_c, 13, 56, 48
19, 94410, Note_on_c, 13, 56, 0
19, 94432, Note_on_c, 13, 63, 49
19, 94474, Note_on_c, 13, 63, 0
19, 94496, Note_on_c, 13, 56, 50
19, 94538, Note_on_c, 13, 56, 0
19, 94560, Note_on_c, 13, 63, 46
19, 94602, Note_on_c, 13, 63, 0
19, 94624, Note_on_c, 13, 56, 40
19, 94666, Note_on_c, 13, 56, 0
19, 94688, Note_on_c, 13, 63, 42
19, 94730, Note_on_c, 13, 63, 0
19, 94752, Program_c, 13, 44
19, 94752, Control_c, 13, 11, 92
19, 94752, Note_on_c, 13, 59, 64
19, 94752, Note_on_c, 13, 62, 60
19, 94757, Control_c, 13, 11, 93
19, 94762, Control_c, 13, 11, 94
19, 94768, Control_c, 13, 11, 95
19, 94773, Control_c, 13, 11, 96
19, 94779, Control_c, 13, 11, 97
19, 94784, Control_c, 13, 11, 98
19, 94790, Control_c, 13, 11, 99
19, 94795, Control_c, 13, 11, 100
19, 94801, Control_c, 13, 11, 101
19, 94806, Control_c, 13, 11, 102
19, 94812, Control_c, 13, 11, 103
19, 94817, Control_c, 13, 11, 104
19, 94823, Control_c, 13, 11, 105
19, 94828, Control_c, 13, 11, 106
19, 94834, Control_c, 13, 11, 107
19, 94839, Control_c, 13, 11, 108
19, 94845, Control_c, 13, 11, 109
19, 94850, Control_c, 13, 11, 110
19, 94856, Control_c, 13, 11, 111
19, 94861, Control_c, 13, 11, 112
19, 94867, Control_c, 13, 11, 113
19, 94872, Control_c, 13, 11, 114
19, 94878, Control_c, 13, 11, 115
19, 94883, Control_c, 13, 11, 116
19, 94889, Control_c, 13, 11, 117
19, 94894, Control_c, 13, 11, 118
19, 94900, Control_c, 13, 11, 119
19, 94905, Control_c, 13, 11, 120
19, 94911, Control_c, 13, 11, 121
19, 94916, Control_c, 13, 11, 122
19, 94922, Control_c, 13, 11, 123
19, 94927, Control_c, 13, 11, 124
19, 94933, Control_c, 13, 11, 125
19, 94938, Control_c, 13, 11, 126
19, 94944, Note_on_c, 13, 59, 0
19, 94944, Note_on_c, 13, 62, 0
19, 94944, Control_c, 13, 11, 127
19, 94944, Note_on_c, 13, 60, 57
19, 94944, Note_on_c, 13, 63, 56
19, 95328, Note_on_c, 13, 60, 0
19, 95328, Note_on_c, 13, 63, 0
19, 95328, Control_c, 13, 11, 92
19, 95328, Note_on_c, 13, 59, 62
19, 95328, Note_on_c, 13, 62, 61
19, 95333, Control_c, 13, 11, 93
19, 95338, Control_c, 13, 11, 94
19, 95344, Control_c, 13, 11, 95
19, 95349, Control_c, 13, 11, 96
19, 95355, Control_c, 13, 11, 97
19, 95360, Control_c, 13, 11, 98
19, 95366, Control_c, 13, 11, 99
19, 95371, Control_c, 13, 11, 100
19, 95377, Control_c, 13, 11, 101
19, 95382, Control_c, 13, 11, 102
19, 95388, Control_c, 13, 11, 103
19, 95393, Control_c, 13, 11, 104
19, 95399, Control_c, 13, 11, 105
19, 95404, Control_c, 13, 11, 106
19, 95410, Control_c, 13, 11, 107
19, 95415, Control_c, 13, 11, 108
19, 95421, Control_c, 13, 11, 109
19, 95426, Control_c, 13, 11, 110
19, 95432, Control_c, 13, 11, 111
19, 95437, Control_c, 13, 11, 112
19, 95443, Control_c, 13, 11, 113
19, 95448, Control_c, 13, 11, 114
19, 95454, Control_c, 13, 11, 115
19, 95459, Control_c, 13, 11, 116
19, 95465, Control_c, 13, 11, 117
19, 95470, Control_c, 13, 11, 118
19, 95476, Control_c, 13, 11, 119
19, 95481, Control_c, 13, 11, 120
19, 95487, Control_c, 13, 11, 121
19, 95492, Control_c, 13, 11, 122
19, 95498, Control_c, 13, 11, 123
19, 95503, Control_c, 13, 11, 124
19, 95509, Control_c, 13, 11, 125
19, 95514, Control_c, 13, 11, 126
19, 95520, Note_on_c, 13, 59, 0
19, 95520, Note_on_c, 13, 62, 0
19, 95520, Control_c, 13, 11, 127
19, 95520, Note_on_c, 13, 60, 59
19, 95520, Note_on_c, 13, 63, 60
19, 95904, Note_on_c, 13, 60, 0
19, 95904, Note_on_c, 13, 63, 0
19, 95904, Program_c, 13, 48
19, 95904, Note_on_c, 13, 67, 46
19, 95936, Note_on_c, 13, 67, 0
19, 95952, Note_on_c, 13, 67, 42
19, 95984, Note_on_c, 13, 67, 0
19, 96000, Note_on_c, 13, 64, 42
19, 96032, Note_on_c, 13, 64, 0
19, 96048, Note_on_c, 13, 64, 40
19, 96080, Note_on_c, 13, 64, 0
19, 96096, Note_on_c, 13, 58, 45
19, 96128, Note_on_c, 13, 58, 0
19, 96144, Note_on_c, 13, 58, 49
19, 96176, Note_on_c, 13, 58, 0
19, 96192, Note_on_c, 13, 64, 49
19, 96224, Note_on_c, 13, 64, 0
19, 96240, Note_on_c, 13, 64, 45
19, 96272, Note_on_c, 13, 64, 0
19, 96288, Note_on_c, 13, 67, 43
19, 96320, Note_on_c, 13, 67, 0
19, 96336, Note_on_c, 13, 67, 48
19, 96368, Note_on_c, 13, 67, 0
19, 96384, Note_on_c, 13, 64, 40
19, 96416, Note_on_c, 13, 64, 0
19, 96432, Note_on_c, 13, 64, 48
19, 96464, Note_on_c, 13, 64, 0
19, 96480, Note_on_c, 13, 58, 49
19, 96512, Note_on_c, 13, 58, 0
19, 96528, Note_on_c, 13, 58, 47
19, 96560, Note_on_c, 13, 58, 0
19, 96576, Note_on_c, 13, 64, 43
19, 96608, Note_on_c, 13, 64, 0
19, 96624, Note_on_c, 13, 64, 44
19, 96656, Note_on_c, 13, 64, 0
19, 96672, Note_on_c, 13, 67, 46
19, 96704, Note_on_c, 13, 67, 0
19, 96720, Note_on_c, 13, 67, 42
19, 96752, Note_on_c, 13, 67, 0
19, 96768, Note_on_c, 13, 64, 43
19, 96800, Note_on_c, 13, 64, 0
19, 96816, Note_on_c, 13, 64, 46
19, 96848, Note_on_c, 13, 64, 0
19, 96864, Note_on_c, 13, 58, 42
19, 96896, Note_on_c, 13, 58, 0
19, 96912, Note_on_c, 13, 58, 49
19, 96944, Note_on_c, 13, 58, 0
19, 96960, Note_on_c, 13, 64, 40
19, 96992, Note_on_c, 13, 64, 0
19, 97008, Note_on_c, 13, 64, 48
19, 97040, Note_on_c, 13, 64, 0
19, 97056, Note_on_c, 13, 64, 43
19, 97088, Note_on_c, 13, 64, 0
19, 97104, Note_on_c, 13, 64, 47
19, 97136, Note_on_c, 13, 64, 0
19, 97152, Note_on_c, 13, 59, 52
19, 97184, Note_on_c, 13, 59, 0
19, 97200, Note_on_c, 13, 59, 46
19, 97232, Note_on_c, 13, 59, 0
19, 97248, Note_on_c, 13, 64, 47
19, 97280, Note_on_c, 13, 64, 0
19, 97296, Note_on_c, 13, 64, 46
19, 97328, Note_on_c, 13, 64, 0
19, 97344, Note_on_c, 13, 59, 52
19, 97376, Note_on_c, 13, 59, 0
19, 97392, Note_on_c, 13, 59, 53
19, 97424, Note_on_c, 13, 59, 0
19, 97440, Note_on_c, 13, 64, 49
19, 97472, Note_on_c, 13, 64, 0
19, 97488, Note_on_c, 13, 64, 50
19, 97520, Note_on_c, 13, 64, 0
19, 97536, Note_on_c, 13, 59, 53
19, 97568, Note_on_c, 13, 59, 0
19, 97584, Note_on_c, 13, 59, 54
19, 97616, Note_on_c, 13, 59, 0
19, 97632, Note_on_c, 13, 64, 54
19, 97664, Note_on_c, 13, 64, 0
19, 97680, Note_on_c, 13, 64, 62
19, 97712, Note_on_c, 13, 64, 0
19, 97728, Note_on_c, 13, 59, 60
19, 97760, Note_on_c, 13, 59, 0
19, 97776, Note_on_c, 13, 59, 63
19, 97808, Note_on_c, 13, 59, 0
19, 97824, Note_on_c, 13, 64, 59
19, 97856, Note_on_c, 13, 64, 0
19, 97872, Note_on_c, 13, 64, 61
19, 97904, Note_on_c, 13, 64, 0
19, 97920, Note_on_c, 13, 59, 66
19, 97952, Note_on_c, 13, 59, 0
19, 97968, Note_on_c, 13, 59, 66
19, 98000, Note_on_c, 13, 59, 0
19, 98016, Note_on_c, 13, 64, 69
19, 98048, Note_on_c, 13, 64, 0
19, 98064, Note_on_c, 13, 64, 66
19, 98096, Note_on_c, 13, 64, 0
19, 98112, Note_on_c, 13, 59, 75
19, 98144, Note_on_c, 13, 59, 0
19, 98160, Note_on_c, 13, 59, 73
19, 98192, Note_on_c, 13, 59, 0
19, 98208, Note_on_c, 13, 67, 42
19, 98240, Note_on_c, 13, 67, 0
19, 98256, Note_on_c, 13, 67, 42
19, 98288, Note_on_c, 13, 67, 0
19, 98304, Note_on_c, 13, 64, 49
19, 98336, Note_on_c, 13, 64, 0
19, 98352, Note_on_c, 13, 64, 49
19, 98384, Note_on_c, 13, 64, 0
19, 98400, Note_on_c, 13, 58, 42
19, 98432, Note_on_c, 13, 58, 0
19, 98448, Note_on_c, 13, 58, 48
19, 98480, Note_on_c, 13, 58, 0
19, 98496, Note_on_c, 13, 64, 40
19, 98528, Note_on_c, 13, 64, 0
19, 98544, Note_on_c, 13, 64, 43
19, 98576, Note_on_c, 13, 64, 0
19, 98592, Note_on_c, 13, 67, 46
19, 98624, Note_on_c, 13, 67, 0
19, 98640, Note_on_c, 13, 67, 49
19, 98672, Note_on_c, 13, 67, 0
19, 98688, Note_on_c, 13, 64, 46
19, 98720, Note_on_c, 13, 64, 0
19, 98736, Note_on_c, 13, 64, 46
19, 98768, Note_on_c, 13, 64, 0
19, 98784, Note_on_c, 13, 58, 41
19, 98816, Note_on_c, 13, 58, 0
19, 98832, Note_on_c, 13, 58, 49
19, 98864, Note_on_c, 13, 58, 0
19, 98880, Note_on_c, 13, 64, 44
19, 98912, Note_on_c, 13, 64, 0
19, 98928, Note_on_c, 13, 64, 40
19, 98960, Note_on_c, 13, 64, 0
19, 98976, Note_on_c, 13, 67, 43
19, 99008, Note_on_c, 13, 67, 0
19, 99024, Note_on_c, 13, 67, 48
19, 99056, Note_on_c, 13, 67, 0
19, 99072, Note_on_c, 13, 64, 42
19, 99104, Note_on_c, 13, 64, 0
19, 99120, Note_on_c, 13, 64, 44
19, 99152, Note_on_c, 13, 64, 0
19, 99168, Note_on_c, 13, 58, 43
19, 99200, Note_on_c, 13, 58, 0
19, 99216, Note_on_c, 13, 58, 41
19, 99248, Note_on_c, 13, 58, 0
19, 99264, Note_on_c, 13, 64, 46
19, 99296, Note_on_c, 13, 64, 0
19, 99312, Note_on_c, 13, 64, 44
19, 99344, Note_on_c, 13, 64, 0
19, 99360, Note_on_c, 13, 64, 46
19, 99392, Note_on_c, 13, 64, 0
19, 99408, Note_on_c, 13, 64, 43
19, 99440, Note_on_c, 13, 64, 0
19, 99456, Note_on_c, 13, 59, 48
19, 99488, Note_on_c, 13, 59, 0
19, 99504, Note_on_c, 13, 59, 45
19, 99536, Note_on_c, 13, 59, 0
19, 99552, Note_on_c, 13, 64, 46
19, 99584, Note_on_c, 13, 64, 0
19, 99600, Note_on_c, 13, 64, 45
19, 99632, Note_on_c, 13, 64, 0
19, 99648, Note_on_c, 13, 59, 51
19, 99680, Note_on_c, 13, 59, 0
19, 99696, Note_on_c, 13, 59, 55
19, 99728, Note_on_c, 13, 59, 0
19, 99744, Note_on_c, 13, 64, 53
19, 99776, Note_on_c, 13, 64, 0
19, 99792, Note_on_c, 13, 64, 56
19, 99824, Note_on_c, 13, 64, 0
19, 99840, Note_on_c, 13, 59, 51
19, 99872, Note_on_c, 13, 59, 0
19, 99888, Note_on_c, 13, 59, 60
19, 99920, Note_on_c, 13, 59, 0
19, 99936, Note_on_c, 13, 64, 56
19, 99968, Note_on_c, 13, 64, 0
19, 99984, Note_on_c, 13, 64, 57
19, 100016, Note_on_c, 13, 64, 0
19, 100032, Note_on_c, 13, 59, 60
19, 100064, Note_on_c, 13, 59, 0
19, 100080, Note_on_c, 13, 59, 65
19, 100112, Note_on_c, 13, 59, 0
19, 100128, Note_on_c, 13, 64, 66
19, 100160, Note_on_c, 13, 64, 0
19, 100176, Note_on_c, 13, 64, 60
19, 100208, Note_on_c, 13, 64, 0
19, 100224, Note_on_c, 13, 59, 69
19, 100256, Note_on_c, 13, 59, 0
19, 100272, Note_on_c, 13, 59, 69
19, 100304, Note_on_c, 13, 59, 0
19, 100320, Note_on_c, 13, 64, 67
19, 100352, Note_on_c, 13, 64, 0
19, 100368, Note_on_c, 13, 64, 72
19, 100400, Note_on_c, 13, 64, 0
19, 100416, Note_on_c, 13, 59, 73
19, 100448, Note_on_c, 13, 59, 0
19, 100464, Note_on_c, 13, 59, 78
19, 100496, Note_on_c, 13, 59, 0
19, 100512, Control_c, 13, 11, 92
19, 100512, Note_on_c, 13, 61, 63
19, 100512, Note_on_c, 13, 66, 63
19, 100517, Control_c, 13, 11, 93
19, 100522, Control_c, 13, 11, 94
19, 100528, Control_c, 13, 11, 95
19, 100533, Control_c, 13, 11, 96
19, 100539, Control_c, 13, 11, 97
19, 100544, Control_c, 13, 11, 98
19, 100550, Control_c, 13, 11, 99
19, 100555, Control_c, 13, 11, 100
19, 100561, Control_c, 13, 11, 101
19, 100566, Control_c, 13, 11, 102
19, 100572, Control_c, 13, 11, 103
19, 100577, Control_c, 13, 11, 104
19, 100583, Control_c, 13, 11, 105
19, 100588, Control_c, 13, 11, 106
19, 100594, Control_c, 13, 11, 107
19, 100599, Control_c, 13, 11, 108
19, 100605, Control_c, 13, 11, 109
19, 100610, Control_c, 13, 11, 110
19, 100616, Control_c, 13, 11, 111
19, 100621, Control_c, 13, 11, 112
19, 100627, Control_c, 13, 11, 113
19, 100632, Control_c, 13, 11, 114
19, 100638, Control_c, 13, 11, 115
19, 100643, Control_c, 13, 11, 116
19, 100649, Control_c, 13, 11, 117
19, 100654, Control_c, 13, 11, 118
19, 100660, Control_c, 13, 11, 119
19, 100665, Control_c, 13, 11, 120
19, 100671, Control_c, 13, 11, 121
19, 100676, Control_c, 13, 11, 122
19, 100682, Control_c, 13, 11, 123
19, 100687, Control_c, 13, 11, 124
19, 100693, Control_c, 13, 11, 125
19, 100698, Control_c, 13, 11, 126
19, 100704, Note_on_c, 13, 61, 0
19, 100704, Note_on_c, 13, 66, 0
19, 100704, Control_c, 13, 11, 127
19, 100704, Note_on_c, 13, 66, 61
19, 100704, Note_on_c, 13, 71, 57
19, 100992, Note_on_c, 13, 66, 0
19, 100992, Note_on_c, 13, 71, 0
19, 100992, Note_on_c, 13, 64, 64
19, 100992, Note_on_c, 13, 69, 60
19, 101088, Note_on_c, 13, 64, 0
19, 101088, Note_on_c, 13, 69, 0
19, 101088, Note_on_c, 13, 61, 65
19, 101088, Note_on_c, 13, 66, 58
19, 101280, Note_on_c, 13, 61, 0
19, 101280, Note_on_c, 13, 66, 0
19, 101280, Control_c, 13, 11, 127
19, 101280, Note_on_c, 13, 59, 60
19, 101280, Note_on_c, 13, 64, 62
19, 101290, Control_c, 13, 11, 126
19, 101301, Control_c, 13, 11, 125
19, 101312, Control_c, 13, 11, 124
19, 101322, Note_on_c, 13, 59, 0
19, 101322, Note_on_c, 13, 64, 0
19, 101323, Control_c, 13, 11, 123
19, 101334, Control_c, 13, 11, 122
19, 101344, Note_on_c, 13, 59, 65
19, 101344, Note_on_c, 13, 64, 62
19, 101345, Control_c, 13, 11, 121
19, 101356, Control_c, 13, 11, 120
19, 101367, Control_c, 13, 11, 119
19, 101378, Control_c, 13, 11, 118
19, 101386, Note_on_c, 13, 59, 0
19, 101386, Note_on_c, 13, 64, 0
19, 101389, Control_c, 13, 11, 117
19, 101400, Control_c, 13, 11, 116
19, 101408, Note_on_c, 13, 59, 59
19, 101408, Note_on_c, 13, 64, 59
19, 101411, Control_c, 13, 11, 115
19, 101422, Control_c, 13, 11, 114
19, 101433, Control_c, 13, 11, 113
19, 101444, Control_c, 13, 11, 112
19, 101450, Note_on_c, 13, 59, 0
19, 101450, Note_on_c, 13, 64, 0
19, 101455, Control_c, 13, 11, 111
19, 101466, Control_c, 13, 11, 110
19, 101472, Note_on_c, 13, 56, 58
19, 101472, Note_on_c, 13, 61, 63
19, 101477, Control_c, 13, 11, 109
19, 101488, Control_c, 13, 11, 108
19, 101499, Control_c, 13, 11, 107
19, 101510, Control_c, 13, 11, 106
19, 101514, Note_on_c, 13, 56, 0
19, 101514, Note_on_c, 13, 61, 0
19, 101521, Control_c, 13, 11, 105
19, 101532, Control_c, 13, 11, 104
19, 101536, Note_on_c, 13, 56, 64
19, 101536, Note_on_c, 13, 61, 55
19, 101543, Control_c, 13, 11, 103
19, 101554, Control_c, 13, 11, 102
19, 101565, Control_c, 13, 11, 101
19, 101576, Control_c, 13, 11, 100
19, 101578, Note_on_c, 13, 56, 0
19, 101578, Note_on_c, 13, 61, 0
19, 101587, Control_c, 13, 11, 99
19, 101598, Control_c, 13, 11, 98
19, 101600, Note_on_c, 13, 56, 61
19, 101600, Note_on_c, 13, 61, 55
19, 101609, Control_c, 13, 11, 97
19, 101620, Control_c, 13, 11, 96
19, 101631, Control_c, 13, 11, 95
19, 101642, Note_on_c, 13, 56, 0
19, 101642, Note_on_c, 13, 61, 0
19, 101642, Control_c, 13, 11, 94
19, 101653, Control_c, 13, 11, 93
19, 101664, Control_c, 13, 11, 92
19, 101664, Note_on_c, 13, 57, 64
19, 101664, Note_on_c, 13, 63, 59
19, 101669, Control_c, 13, 11, 93
19, 101674, Control_c, 13, 11, 94
19, 101680, Control_c, 13, 11, 95
19, 101685, Control_c, 13, 11, 96
19, 101691, Control_c, 13, 11, 97
19, 101696, Control_c, 13, 11, 98
19, 101702, Control_c, 13, 11, 99
19, 101707, Control_c, 13, 11, 100
19, 101713, Control_c, 13, 11, 101
19, 101718, Control_c, 13, 11, 102
19, 101724, Control_c, 13, 11, 103
19, 101729, Control_c, 13, 11, 104
19, 101735, Control_c, 13, 11, 105
19, 101740, Control_c, 13, 11, 106
19, 101746, Control_c, 13, 11, 107
19, 101751, Control_c, 13, 11, 108
19, 101757, Control_c, 13, 11, 109
19, 101762, Control_c, 13, 11, 110
19, 101768, Control_c, 13, 11, 111
19, 101773, Control_c, 13, 11, 112
19, 101779, Control_c, 13, 11, 113
19, 101784, Control_c, 13, 11, 114
19, 101790, Control_c, 13, 11, 115
19, 101795, Control_c, 13, 11, 116
19, 101801, Control_c, 13, 11, 117
19, 101806, Control_c, 13, 11, 118
19, 101812, Control_c, 13, 11, 119
19, 101817, Control_c, 13, 11, 120
19, 101823, Control_c, 13, 11, 121
19, 101828, Control_c, 13, 11, 122
19, 101834, Control_c, 13, 11, 123
19, 101839, Control_c, 13, 11, 124
19, 101845, Control_c, 13, 11, 125
19, 101850, Control_c, 13, 11, 126
19, 101856, Note_on_c, 13, 57, 0
19, 101856, Note_on_c, 13, 63, 0
19, 101856, Control_c, 13, 11, 127
19, 101856, Note_on_c, 13, 63, 60
19, 101856, Note_on_c, 13, 68, 56
19, 101898, Note_on_c, 13, 63, 0
19, 101898, Note_on_c, 13, 68, 0
19, 101920, Note_on_c, 13, 63, 59
19, 101920, Note_on_c, 13, 68, 56
19, 101962, Note_on_c, 13, 63, 0
19, 101962, Note_on_c, 13, 68, 0
19, 101984, Note_on_c, 13, 63, 59
19, 101984, Note_on_c, 13, 68, 59
19, 102026, Note_on_c, 13, 63, 0
19, 102026, Note_on_c, 13, 68, 0
19, 102048, Note_on_c, 13, 61, 61
19, 102048, Note_on_c, 13, 66, 65
19, 102090, Note_on_c, 13, 61, 0
19, 102090, Note_on_c, 13, 66, 0
19, 102112, Note_on_c, 13, 61, 56
19, 102112, Note_on_c, 13, 66, 64
19, 102154, Note_on_c, 13, 61, 0
19, 102154, Note_on_c, 13, 66, 0
19, 102176, Note_on_c, 13, 61, 60
19, 102176, Note_on_c, 13, 66, 58
19, 102240, Control_c, 13, 11, 92
19, 102245, Control_c, 13, 11, 93
19, 102250, Control_c, 13, 11, 94
19, 102256, Control_c, 13, 11, 95
19, 102261, Control_c, 13, 11, 96
19, 102267, Control_c, 13, 11, 97
19, 102272, Control_c, 13, 11, 98
19, 102278, Control_c, 13, 11, 99
19, 102283, Control_c, 13, 11, 100
19, 102289, Control_c, 13, 11, 101
19, 102294, Control_c, 13, 11, 102
19, 102300, Control_c, 13, 11, 103
19, 102305, Control_c, 13, 11, 104
19, 102311, Control_c, 13, 11, 105
19, 102316, Control_c, 13, 11, 106
19, 102322, Control_c, 13, 11, 107
19, 102327, Control_c, 13, 11, 108
19, 102333, Control_c, 13, 11, 109
19, 102338, Control_c, 13, 11, 110
19, 102344, Control_c, 13, 11, 111
19, 102349, Control_c, 13, 11, 112
19, 102355, Control_c, 13, 11, 113
19, 102360, Control_c, 13, 11, 114
19, 102366, Control_c, 13, 11, 115
19, 102371, Control_c, 13, 11, 116
19, 102377, Control_c, 13, 11, 117
19, 102382, Control_c, 13, 11, 118
19, 102388, Control_c, 13, 11, 119
19, 102393, Control_c, 13, 11, 120
19, 102399, Control_c, 13, 11, 121
19, 102404, Control_c, 13, 11, 122
19, 102410, Control_c, 13, 11, 123
19, 102415, Control_c, 13, 11, 124
19, 102421, Control_c, 13, 11, 125
19, 102426, Control_c, 13, 11, 126
19, 102432, Note_on_c, 13, 61, 0
19, 102432, Note_on_c, 13, 66, 0
19, 102432, Control_c, 13, 11, 127
19, 102432, Note_on_c, 13, 66, 61
19, 102432, Note_on_c, 13, 71, 64
19, 102474, Note_on_c, 13, 66, 0
19, 102474, Note_on_c, 13, 71, 0
19, 102496, Note_on_c, 13, 66, 62
19, 102496, Note_on_c, 13, 71, 62
19, 102538, Note_on_c, 13, 66, 0
19, 102538, Note_on_c, 13, 71, 0
19, 102560, Note_on_c, 13, 66, 57
19, 102560, Note_on_c, 13, 71, 60
19, 102602, Note_on_c, 13, 66, 0
19, 102602, Note_on_c, 13, 71, 0
19, 102624, Note_on_c, 13, 64, 65
19, 102624, Note_on_c, 13, 69, 60
19, 102666, Note_on_c, 13, 64, 0
19, 102666, Note_on_c, 13, 69, 0
19, 102688, Note_on_c, 13, 64, 61
19, 102688, Note_on_c, 13, 69, 57
19, 102730, Note_on_c, 13, 64, 0
19, 102730, Note_on_c, 13, 69, 0
19, 102752, Note_on_c, 13, 64, 55
19, 102752, Note_on_c, 13, 69, 55
19, 102794, Note_on_c, 13, 64, 0
19, 102794, Note_on_c, 13, 69, 0
19, 102816, Control_c, 13, 11, 92
19, 102816, Note_on_c, 13, 69, 70
19, 102816, Note_on_c, 13, 74, 80
19, 102821, Control_c, 13, 11, 93
19, 102826, Control_c, 13, 11, 94
19, 102832, Control_c, 13, 11, 95
19, 102837, Control_c, 13, 11, 96
19, 102843, Control_c, 13, 11, 97
19, 102848, Control_c, 13, 11, 98
19, 102854, Control_c, 13, 11, 99
19, 102859, Control_c, 13, 11, 100
19, 102865, Control_c, 13, 11, 101
19, 102870, Control_c, 13, 11, 102
19, 102876, Control_c, 13, 11, 103
19, 102881, Control_c, 13, 11, 104
19, 102887, Control_c, 13, 11, 105
19, 102892, Control_c, 13, 11, 106
19, 102898, Control_c, 13, 11, 107
19, 102903, Control_c, 13, 11, 108
19, 102909, Control_c, 13, 11, 109
19, 102914, Control_c, 13, 11, 110
19, 102920, Control_c, 13, 11, 111
19, 102925, Control_c, 13, 11, 112
19, 102931, Control_c, 13, 11, 113
19, 102936, Control_c, 13, 11, 114
19, 102942, Control_c, 13, 11, 115
19, 102947, Control_c, 13, 11, 116
19, 102953, Control_c, 13, 11, 117
19, 102958, Control_c, 13, 11, 118
19, 102964, Control_c, 13, 11, 119
19, 102969, Control_c, 13, 11, 120
19, 102975, Control_c, 13, 11, 121
19, 102980, Control_c, 13, 11, 122
19, 102986, Control_c, 13, 11, 123
19, 102991, Control_c, 13, 11, 124
19, 102997, Control_c, 13, 11, 125
19, 103002, Control_c, 13, 11, 126
19, 103008, Note_on_c, 13, 69, 0
19, 103008, Note_on_c, 13, 74, 0
19, 103008, Control_c, 13, 11, 127
19, 103008, Note_on_c, 13, 74, 72
19, 103008, Note_on_c, 13, 80, 73
19, 103296, Note_on_c, 13, 74, 0
19, 103296, Note_on_c, 13, 80, 0
19, 103296, Note_on_c, 13, 71, 75
19, 103296, Note_on_c, 13, 76, 72
19, 103392, Note_on_c, 13, 71, 0
19, 103392, Note_on_c, 13, 76, 0
19, 103392, Note_on_c, 13, 69, 78
19, 103392, Note_on_c, 13, 74, 80
19, 103584, Note_on_c, 13, 69, 0
19, 103584, Note_on_c, 13, 74, 0
19, 103584, Control_c, 13, 11, 127
19, 103584, Note_on_c, 13, 68, 77
19, 103584, Note_on_c, 13, 73, 73
19, 103599, Control_c, 13, 11, 126
19, 103614, Control_c, 13, 11, 125
19, 103626, Note_on_c, 13, 68, 0
19, 103626, Note_on_c, 13, 73, 0
19, 103629, Control_c, 13, 11, 124
19, 103644, Control_c, 13, 11, 123
19, 103648, Note_on_c, 13, 68, 71
19, 103648, Note_on_c, 13, 73, 75
19, 103660, Control_c, 13, 11, 122
19, 103675, Control_c, 13, 11, 121
19, 103690, Note_on_c, 13, 68, 0
19, 103690, Note_on_c, 13, 73, 0
19, 103690, Control_c, 13, 11, 120
19, 103705, Control_c, 13, 11, 119
19, 103712, Note_on_c, 13, 68, 70
19, 103712, Note_on_c, 13, 73, 80
19, 103721, Control_c, 13, 11, 118
19, 103736, Control_c, 13, 11, 117
19, 103751, Control_c, 13, 11, 116
19, 103754, Note_on_c, 13, 68, 0
19, 103754, Note_on_c, 13, 73, 0
19, 103766, Control_c, 13, 11, 115
19, 103776, Note_on_c, 13, 64, 71
19, 103776, Note_on_c, 13, 69, 77
19, 103782, Control_c, 13, 11, 114
19, 103797, Control_c, 13, 11, 113
19, 103812, Control_c, 13, 11, 112
19, 103818, Note_on_c, 13, 64, 0
19, 103818, Note_on_c, 13, 69, 0
19, 103827, Control_c, 13, 11, 111
19, 103840, Note_on_c, 13, 64, 75
19, 103840, Note_on_c, 13, 69, 79
19, 103843, Control_c, 13, 11, 110
19, 103858, Control_c, 13, 11, 109
19, 103873, Control_c, 13, 11, 108
19, 103882, Note_on_c, 13, 64, 0
19, 103882, Note_on_c, 13, 69, 0
19, 103888, Control_c, 13, 11, 107
19, 103904, Control_c, 13, 11, 106
19, 103904, Note_on_c, 13, 64, 75
19, 103904, Note_on_c, 13, 69, 71
19, 103919, Control_c, 13, 11, 105
19, 103934, Control_c, 13, 11, 104
19, 103946, Note_on_c, 13, 64, 0
19, 103946, Note_on_c, 13, 69, 0
19, 103949, Control_c, 13, 11, 103
19, 103964, Control_c, 13, 11, 102
19, 103968, Note_on_c, 13, 62, 72
19, 103968, Note_on_c, 13, 68, 75
19, 103980, Control_c, 13, 11, 101
19, 103995, Control_c, 13, 11, 100
19, 104010, Note_on_c, 13, 62, 0
19, 104010, Note_on_c, 13, 68, 0
19, 104010, Control_c, 13, 11, 99
19, 104025, Control_c, 13, 11, 98
19, 104032, Note_on_c, 13, 62, 76
19, 104032, Note_on_c, 13, 68, 77
19, 104041, Control_c, 13, 11, 97
19, 104056, Control_c, 13, 11, 96
19, 104071, Control_c, 13, 11, 95
19, 104074, Note_on_c, 13, 62, 0
19, 104074, Note_on_c, 13, 68, 0
19, 104086, Control_c, 13, 11, 94
19, 104096, Note_on_c, 13, 62, 77
19, 104096, Note_on_c, 13, 68, 76
19, 104102, Control_c, 13, 11, 93
19, 104117, Control_c, 13, 11, 92
19, 104132, Control_c, 13, 11, 91
19, 104138, Note_on_c, 13, 62, 0
19, 104138, Note_on_c, 13, 68, 0
19, 104147, Control_c, 13, 11, 90
19, 104160, Note_on_c, 13, 59, 79
19, 104160, Note_on_c, 13, 64, 78
19, 104163, Control_c, 13, 11, 89
19, 104178, Control_c, 13, 11, 88
19, 104193, Control_c, 13, 11, 87
19, 104202, Note_on_c, 13, 59, 0
19, 104202, Note_on_c, 13, 64, 0
19, 104208, Control_c, 13, 11, 86
19, 104224, Control_c, 13, 11, 85
19, 104224, Note_on_c, 13, 59, 79
19, 104224, Note_on_c, 13, 64, 73
19, 104239, Control_c, 13, 11, 84
19, 104254, Control_c, 13, 11, 83
19, 104266, Note_on_c, 13, 59, 0
19, 104266, Note_on_c, 13, 64, 0
19, 104269, Control_c, 13, 11, 82
19, 104284, Control_c, 13, 11, 81
19, 104288, Note_on_c, 13, 59, 70
19, 104288, Note_on_c, 13, 64, 74
19, 104300, Control_c, 13, 11, 80
19, 104315, Control_c, 13, 11, 79
19, 104330, Note_on_c, 13, 59, 0
19, 104330, Note_on_c, 13, 64, 0
19, 104330, Control_c, 13, 11, 78
19, 104345, Control_c, 13, 11, 77
19, 104352, Note_on_c, 13, 57, 72
19, 104352, Note_on_c, 13, 62, 77
19, 104361, Control_c, 13, 11, 76
19, 104376, Control_c, 13, 11, 75
19, 104391, Control_c, 13, 11, 74
19, 104394, Note_on_c, 13, 57, 0
19, 104394, Note_on_c, 13, 62, 0
19, 104406, Control_c, 13, 11, 73
19, 104416, Note_on_c, 13, 57, 79
19, 104416, Note_on_c, 13, 62, 77
19, 104422, Control_c, 13, 11, 72
19, 104437, Control_c, 13, 11, 71
19, 104452, Control_c, 13, 11, 70
19, 104458, Note_on_c, 13, 57, 0
19, 104458, Note_on_c, 13, 62, 0
19, 104467, Control_c, 13, 11, 69
19, 104480, Note_on_c, 13, 57, 72
19, 104480, Note_on_c, 13, 62, 70
19, 104483, Control_c, 13, 11, 68
19, 104498, Control_c, 13, 11, 67
19, 104513, Control_c, 13, 11, 66
19, 104528, Control_c, 13, 11, 65
19, 104544, Control_c, 13, 11, 64
19, 104553, Control_c, 13, 11, 65
19, 104562, Control_c, 13, 11, 66
19, 104571, Control_c, 13, 11, 67
19, 104580, Control_c, 13, 11, 68
19, 104589, Control_c, 13, 11, 69
19, 104598, Control_c, 13, 11, 70
19, 104608, Control_c, 13, 11, 71
19, 104617, Control_c, 13, 11, 72
19, 104626, Control_c, 13, 11, 73
19, 104635, Control_c, 13, 11, 74
19, 104640, Note_on_c, 13, 57, 0
19, 104640, Note_on_c, 13, 62, 0
19, 104640, Note_on_c, 13, 59, 80
19, 104640, Note_on_c, 13, 64, 73
19, 104644, Control_c, 13, 11, 75
19, 104653, Control_c, 13, 11, 76
19, 104662, Control_c, 13, 11, 77
19, 104672, Control_c, 13, 11, 78
19, 104681, Control_c, 13, 11, 79
19, 104690, Control_c, 13, 11, 80
19, 104699, Control_c, 13, 11, 81
19, 104708, Control_c, 13, 11, 82
19, 104717, Control_c, 13, 11, 83
19, 104726, Control_c, 13, 11, 84
19, 104736, Note_on_c, 13, 59, 0
19, 104736, Note_on_c, 13, 64, 0
19, 104736, Control_c, 13, 11, 85
19, 104736, Note_on_c, 13, 62, 80
19, 104736, Note_on_c, 13, 68, 73
19, 104745, Control_c, 13, 11, 86
19, 104754, Control_c, 13, 11, 87
19, 104763, Control_c, 13, 11, 88
19, 104772, Control_c, 13, 11, 89
19, 104781, Control_c, 13, 11, 90
19, 104790, Control_c, 13, 11, 91
19, 104800, Control_c, 13, 11, 92
19, 104809, Control_c, 13, 11, 93
19, 104818, Control_c, 13, 11, 94
19, 104827, Control_c, 13, 11, 95
19, 104832, Note_on_c, 13, 62, 0
19, 104832, Note_on_c, 13, 68, 0
19, 104832, Note_on_c, 13, 64, 77
19, 104832, Note_on_c, 13, 69, 76
19, 104836, Control_c, 13, 11, 96
19, 104845, Control_c, 13, 11, 97
19, 104854, Control_c, 13, 11, 98
19, 104864, Control_c, 13, 11, 99
19, 104873, Control_c, 13, 11, 100
19, 104882, Control_c, 13, 11, 101
19, 104891, Control_c, 13, 11, 102
19, 104900, Control_c, 13, 11, 103
19, 104909, Control_c, 13, 11, 104
19, 104918, Control_c, 13, 11, 105
19, 104928, Note_on_c, 13, 64, 0
19, 104928, Note_on_c, 13, 69, 0
19, 104928, Control_c, 13, 11, 106
19, 104928, Note_on_c, 13, 68, 77
19, 104928, Note_on_c, 13, 73, 73
19, 104937, Control_c, 13, 11, 107
19, 104946, Control_c, 13, 11, 108
19, 104955, Control_c, 13, 11, 109
19, 104964, Control_c, 13, 11, 110
19, 104973, Control_c, 13, 11, 111
19, 104982, Control_c, 13, 11, 112
19, 104992, Control_c, 13, 11, 113
19, 105001, Control_c, 13, 11, 114
19, 105010, Control_c, 13, 11, 115
19, 105019, Control_c, 13, 11, 116
19, 105024, Note_on_c, 13, 68, 0
19, 105024, Note_on_c, 13, 73, 0
19, 105024, Note_on_c, 13, 69, 71
19, 105024, Note_on_c, 13, 74, 75
19, 105028, Control_c, 13, 11, 117
19, 105037, Control_c, 13, 11, 118
19, 105046, Control_c, 13, 11, 119
19, 105056, Control_c, 13, 11, 120
19, 105065, Control_c, 13, 11, 121
19, 105074, Control_c, 13, 11, 122
19, 105083, Control_c, 13, 11, 123
19, 105092, Control_c, 13, 11, 124
19, 105101, Control_c, 13, 11, 125
19, 105110, Control_c, 13, 11, 126
19, 105120, Note_on_c, 13, 69, 0
19, 105120, Note_on_c, 13, 74, 0
19, 105120, Control_c, 13, 11, 127
19, 105120, Control_c, 13, 11, 92
19, 105120, Note_on_c, 13, 69, 71
19, 105120, Note_on_c, 13, 74, 80
19, 105125, Control_c, 13, 11, 93
19, 105130, Control_c, 13, 11, 94
19, 105136, Control_c, 13, 11, 95
19, 105141, Control_c, 13, 11, 96
19, 105147, Control_c, 13, 11, 97
19, 105152, Control_c, 13, 11, 98
19, 105158, Control_c, 13, 11, 99
19, 105163, Control_c, 13, 11, 100
19, 105169, Control_c, 13, 11, 101
19, 105174, Control_c, 13, 11, 102
19, 105180, Control_c, 13, 11, 103
19, 105185, Control_c, 13, 11, 104
19, 105191, Control_c, 13, 11, 105
19, 105196, Control_c, 13, 11, 106
19, 105202, Control_c, 13, 11, 107
19, 105207, Control_c, 13, 11, 108
19, 105213, Control_c, 13, 11, 109
19, 105218, Control_c, 13, 11, 110
19, 105224, Control_c, 13, 11, 111
19, 105229, Control_c, 13, 11, 112
19, 105235, Control_c, 13, 11, 113
19, 105240, Control_c, 13, 11, 114
19, 105246, Control_c, 13, 11, 115
19, 105251, Control_c, 13, 11, 116
19, 105257, Control_c, 13, 11, 117
19, 105262, Control_c, 13, 11, 118
19, 105268, Control_c, 13, 11, 119
19, 105273, Control_c, 13, 11, 120
19, 105279, Control_c, 13, 11, 121
19, 105284, Control_c, 13, 11, 122
19, 105290, Control_c, 13, 11, 123
19, 105295, Control_c, 13, 11, 124
19, 105301, Control_c, 13, 11, 125
19, 105306, Control_c, 13, 11, 126
19, 105312, Note_on_c, 13, 69, 0
19, 105312, Note_on_c, 13, 74, 0
19, 105312, Control_c, 13, 11, 127
19, 105312, Note_on_c, 13, 74, 79
19, 105312, Note_on_c, 13, 80, 72
19, 105600, Note_on_c, 13, 74, 0
19, 105600, Note_on_c, 13, 80, 0
19, 105600, Note_on_c, 13, 71, 78
19, 105600, Note_on_c, 13, 76, 76
19, 105696, Note_on_c, 13, 71, 0
19, 105696, Note_on_c, 13, 76, 0
19, 105696, Note_on_c, 13, 69, 70
19, 105696, Note_on_c, 13, 74, 71
19, 105888, Note_on_c, 13, 69, 0
19, 105888, Note_on_c, 13, 74, 0
19, 105888, Control_c, 13, 11, 127
19, 105888, Note_on_c, 13, 68, 76
19, 105888, Note_on_c, 13, 73, 80
19, 105903, Control_c, 13, 11, 126
19, 105918, Control_c, 13, 11, 125
19, 105930, Note_on_c, 13, 68, 0
19, 105930, Note_on_c, 13, 73, 0
19, 105933, Control_c, 13, 11, 124
19, 105948, Control_c, 13, 11, 123
19, 105952, Note_on_c, 13, 68, 79
19, 105952, Note_on_c, 13, 73, 80
19, 105964, Control_c, 13, 11, 122
19, 105979, Control_c, 13, 11, 121
19, 105994, Note_on_c, 13, 68, 0
19, 105994, Note_on_c, 13, 73, 0
19, 105994, Control_c, 13, 11, 120
19, 106009, Control_c, 13, 11, 119
19, 106016, Note_on_c, 13, 68, 77
19, 106016, Note_on_c, 13, 73, 71
19, 106025, Control_c, 13, 11, 118
19, 106040, Control_c, 13, 11, 117
19, 106055, Control_c, 13, 11, 116
19, 106058, Note_on_c, 13, 68, 0
19, 106058, Note_on_c, 13, 73, 0
19, 106070, Control_c, 13, 11, 115
19, 106080, Note_on_c, 13, 64, 73
19, 106080, Note_on_c, 13, 69, 73
19, 106086, Control_c, 13, 11, 114
19, 106101, Control_c, 13, 11, 113
19, 106116, Control_c, 13, 11, 112
19, 106122, Note_on_c, 13, 64, 0
19, 106122, Note_on_c, 13, 69, 0
19, 106131, Control_c, 13, 11, 111
19, 106144, Note_on_c, 13, 64, 77
19, 106144, Note_on_c, 13, 69, 74
19, 106147, Control_c, 13, 11, 110
19, 106162, Control_c, 13, 11, 109
19, 106177, Control_c, 13, 11, 108
19, 106186, Note_on_c, 13, 64, 0
19, 106186, Note_on_c, 13, 69, 0
19, 106192, Control_c, 13, 11, 107
19, 106208, Control_c, 13, 11, 106
19, 106208, Note_on_c, 13, 64, 71
19, 106208, Note_on_c, 13, 69, 72
19, 106223, Control_c, 13, 11, 105
19, 106238, Control_c, 13, 11, 104
19, 106250, Note_on_c, 13, 64, 0
19, 106250, Note_on_c, 13, 69, 0
19, 106253, Control_c, 13, 11, 103
19, 106268, Control_c, 13, 11, 102
19, 106272, Note_on_c, 13, 62, 70
19, 106272, Note_on_c, 13, 68, 77
19, 106284, Control_c, 13, 11, 101
19, 106299, Control_c, 13, 11, 100
19, 106314, Note_on_c, 13, 62, 0
19, 106314, Note_on_c, 13, 68, 0
19, 106314, Control_c, 13, 11, 99
19, 106329, Control_c, 13, 11, 98
19, 106336, Note_on_c, 13, 62, 72
19, 106336, Note_on_c, 13, 68, 77
19, 106345, Control_c, 13, 11, 97
19, 106360, Control_c, 13, 11, 96
19, 106375, Control_c, 13, 11, 95
19, 106378, Note_on_c, 13, 62, 0
19, 106378, Note_on_c, 13, 68, 0
19, 106390, Control_c, 13, 11, 94
19, 106400, Note_on_c, 13, 62, 73
19, 106400, Note_on_c, 13, 68, 78
19, 106406, Control_c, 13, 11, 93
19, 106421, Control_c, 13, 11, 92
19, 106436, Control_c, 13, 11, 91
19, 106442, Note_on_c, 13, 62, 0
19, 106442, Note_on_c, 13, 68, 0
19, 106451, Control_c, 13, 11, 90
19, 106464, Note_on_c, 13, 59, 79
19, 106464, Note_on_c, 13, 64, 72
19, 106467, Control_c, 13, 11, 89
19, 106482, Control_c, 13, 11, 88
19, 106497, Control_c, 13, 11, 87
19, 106506, Note_on_c, 13, 59, 0
19, 106506, Note_on_c, 13, 64, 0
19, 106512, Control_c, 13, 11, 86
19, 106528, Control_c, 13, 11, 85
19, 106528, Note_on_c, 13, 59, 74
19, 106528, Note_on_c, 13, 64, 74
19, 106543, Control_c, 13, 11, 84
19, 106558, Control_c, 13, 11, 83
19, 106570, Note_on_c, 13, 59, 0
19, 106570, Note_on_c, 13, 64, 0
19, 106573, Control_c, 13, 11, 82
19, 106588, Control_c, 13, 11, 81
19, 106592, Note_on_c, 13, 59, 74
19, 106592, Note_on_c, 13, 64, 79
19, 106604, Control_c, 13, 11, 80
19, 106619, Control_c, 13, 11, 79
19, 106634, Note_on_c, 13, 59, 0
19, 106634, Note_on_c, 13, 64, 0
19, 106634, Control_c, 13, 11, 78
19, 106649, Control_c, 13, 11, 77
19, 106656, Note_on_c, 13, 57, 80
19, 106656, Note_on_c, 13, 62, 71
19, 106665, Control_c, 13, 11, 76
19, 106680, Control_c, 13, 11, 75
19, 106695, Control_c, 13, 11, 74
19, 106698, Note_on_c, 13, 57, 0
19, 106698, Note_on_c, 13, 62, 0
19, 106710, Control_c, 13, 11, 73
19, 106720, Note_on_c, 13, 57, 71
19, 106720, Note_on_c, 13, 62, 72
19, 106726, Control_c, 13, 11, 72
19, 106741, Control_c, 13, 11, 71
19, 106756, Control_c, 13, 11, 70
19, 106762, Note_on_c, 13, 57, 0
19, 106762, Note_on_c, 13, 62, 0
19, 106771, Control_c, 13, 11, 69
19, 106784, Note_on_c, 13, 57, 71
19, 106784, Note_on_c, 13, 62, 80
19, 106787, Control_c, 13, 11, 68
19, 106802, Control_c, 13, 11, 67
19, 106817, Control_c, 13, 11, 66
19, 106832, Control_c, 13, 11, 65
19, 106848, Control_c, 13, 11, 64
19, 106857, Control_c, 13, 11, 65
19, 106866, Control_c, 13, 11, 66
19, 106875, Control_c, 13, 11, 67
19, 106884, Control_c, 13, 11, 68
19, 106893, Control_c, 13, 11, 69
19, 106902, Control_c, 13, 11, 70
19, 106912, Control_c, 13, 11, 71
19, 106921, Control_c, 13, 11, 72
19, 106930, Control_c, 13, 11, 73
19, 106939, Control_c, 13, 11, 74
19, 106944, Note_on_c, 13, 57, 0
19, 106944, Note_on_c, 13, 62, 0
19, 106944, Note_on_c, 13, 59, 78
19, 106944, Note_on_c, 13, 64, 77
19, 106948, Control_c, 13, 11, 75
19, 106957, Control_c, 13, 11, 76
19, 106966, Control_c, 13, 11, 77
19, 106976, Control_c, 13, 11, 78
19, 106985, Control_c, 13, 11, 79
19, 106994, Control_c, 13, 11, 80
19, 107003, Control_c, 13, 11, 81
19, 107012, Control_c, 13, 11, 82
19, 107021, Control_c, 13, 11, 83
19, 107030, Control_c, 13, 11, 84
19, 107040, Note_on_c, 13, 59, 0
19, 107040, Note_on_c, 13, 64, 0
19, 107040, Control_c, 13, 11, 85
19, 107040, Note_on_c, 13, 62, 77
19, 107040, Note_on_c, 13, 68, 74
19, 107049, Control_c, 13, 11, 86
19, 107058, Control_c, 13, 11, 87
19, 107067, Control_c, 13, 11, 88
19, 107076, Control_c, 13, 11, 89
19, 107085, Control_c, 13, 11, 90
19, 107094, Control_c, 13, 11, 91
19, 107104, Control_c, 13, 11, 92
19, 107113, Control_c, 13, 11, 93
19, 107122, Control_c, 13, 11, 94
19, 107131, Control_c, 13, 11, 95
19, 107136, Note_on_c, 13, 62, 0
19, 107136, Note_on_c, 13, 68, 0
19, 107136, Note_on_c, 13, 64, 76
19, 107136, Note_on_c, 13, 69, 72
19, 107140, Control_c, 13, 11, 96
19, 107149, Control_c, 13, 11, 97
19, 107158, Control_c, 13, 11, 98
19, 107168, Control_c, 13, 11, 99
19, 107177, Control_c, 13, 11, 100
19, 107186, Control_c, 13, 11, 101
19, 107195, Control_c, 13, 11, 102
19, 107204, Control_c, 13, 11, 103
19, 107213, Control_c, 13, 11, 104
19, 107222, Control_c, 13, 11, 105
19, 107232, Note_on_c, 13, 64, 0
19, 107232, Note_on_c, 13, 69, 0
19, 107232, Control_c, 13, 11, 106
19, 107232, Note_on_c, 13, 68, 75
19, 107232, Note_on_c, 13, 73, 78
19, 107241, Control_c, 13, 11, 107
19, 107250, Control_c, 13, 11, 108
19, 107259, Control_c, 13, 11, 109
19, 107268, Control_c, 13, 11, 110
19, 107277, Control_c, 13, 11, 111
19, 107286, Control_c, 13, 11, 112
19, 107296, Control_c, 13, 11, 113
19, 107305, Control_c, 13, 11, 114
19, 107314, Control_c, 13, 11, 115
19, 107323, Control_c, 13, 11, 116
19, 107328, Note_on_c, 13, 68, 0
19, 107328, Note_on_c, 13, 73, 0
19, 107328, Note_on_c, 13, 69, 73
19, 107328, Note_on_c, 13, 74, 70
19, 107332, Control_c, 13, 11, 117
19, 107341, Control_c, 13, 11, 118
19, 107350, Control_c, 13, 11, 119
19, 107360, Control_c, 13, 11, 120
19, 107369, Control_c, 13, 11, 121
19, 107378, Control_c, 13, 11, 122
19, 107387, Control_c, 13, 11, 123
19, 107396, Control_c, 13, 11, 124
19, 107405, Control_c, 13, 11, 125
19, 107414, Control_c, 13, 11, 126
19, 107424, Note_on_c, 13, 69, 0
19, 107424, Note_on_c, 13, 74, 0
19, 107424, Control_c, 13, 11, 127
19, 107424, Control_c, 13, 11, 92
19, 107424, Note_on_c, 13, 70, 94
19, 107424, Note_on_c, 13, 75, 94
19, 107429, Control_c, 13, 11, 93
19, 107434, Control_c, 13, 11, 94
19, 107440, Control_c, 13, 11, 95
19, 107445, Control_c, 13, 11, 96
19, 107451, Control_c, 13, 11, 97
19, 107456, Control_c, 13, 11, 98
19, 107462, Control_c, 13, 11, 99
19, 107467, Control_c, 13, 11, 100
19, 107473, Control_c, 13, 11, 101
19, 107478, Control_c, 13, 11, 102
19, 107484, Control_c, 13, 11, 103
19, 107489, Control_c, 13, 11, 104
19, 107495, Control_c, 13, 11, 105
19, 107500, Control_c, 13, 11, 106
19, 107506, Control_c, 13, 11, 107
19, 107511, Control_c, 13, 11, 108
19, 107517, Control_c, 13, 11, 109
19, 107522, Control_c, 13, 11, 110
19, 107528, Control_c, 13, 11, 111
19, 107533, Control_c, 13, 11, 112
19, 107539, Control_c, 13, 11, 113
19, 107544, Control_c, 13, 11, 114
19, 107550, Control_c, 13, 11, 115
19, 107555, Control_c, 13, 11, 116
19, 107561, Control_c, 13, 11, 117
19, 107566, Control_c, 13, 11, 118
19, 107572, Control_c, 13, 11, 119
19, 107577, Control_c, 13, 11, 120
19, 107583, Control_c, 13, 11, 121
19, 107588, Control_c, 13, 11, 122
19, 107594, Control_c, 13, 11, 123
19, 107599, Control_c, 13, 11, 124
19, 107605, Control_c, 13, 11, 125
19, 107610, Control_c, 13, 11, 126
19, 107616, Note_on_c, 13, 70, 0
19, 107616, Note_on_c, 13, 75, 0
19, 107616, Control_c, 13, 11, 127
19, 107616, Note_on_c, 13, 75, 88
19, 107616, Note_on_c, 13, 80, 87
19, 107904, Note_on_c, 13, 75, 0
19, 107904, Note_on_c, 13, 80, 0
19, 107904, Note_on_c, 13, 72, 96
19, 107904, Note_on_c, 13, 77, 91
19, 108000, Note_on_c, 13, 72, 0
19, 108000, Note_on_c, 13, 77, 0
19, 108000, Note_on_c, 13, 70, 89
19, 108000, Note_on_c, 13, 75, 92
19, 108192, Note_on_c, 13, 70, 0
19, 108192, Note_on_c, 13, 75, 0
19, 108192, Note_on_c, 13, 68, 95
19, 108192, Note_on_c, 13, 73, 86
19, 108234, Note_on_c, 13, 68, 0
19, 108234, Note_on_c, 13, 73, 0
19, 108256, Note_on_c, 13, 68, 85
19, 108256, Note_on_c, 13, 73, 92
19, 108298, Note_on_c, 13, 68, 0
19, 108298, Note_on_c, 13, 73, 0
19, 108320, Note_on_c, 13, 68, 83
19, 108320, Note_on_c, 13, 73, 88
19, 108362, Note_on_c, 13, 68, 0
19, 108362, Note_on_c, 13, 73, 0
19, 108384, Note_on_c, 13, 65, 92
19, 108384, Note_on_c, 13, 70, 86
19, 108426, Note_on_c, 13, 65, 0
19, 108426, Note_on_c, 13, 70, 0
19, 108448, Note_on_c, 13, 65, 91
19, 108448, Note_on_c, 13, 70, 82
19, 108490, Note_on_c, 13, 65, 0
19, 108490, Note_on_c, 13, 70, 0
19, 108512, Note_on_c, 13, 65, 90
19, 108512, Note_on_c, 13, 70, 82
19, 108554, Note_on_c, 13, 65, 0
19, 108554, Note_on_c, 13, 70, 0
19, 108576, Note_on_c, 13, 63, 82
19, 108576, Note_on_c, 13, 68, 83
19, 108618, Note_on_c, 13, 63, 0
19, 108618, Note_on_c, 13, 68, 0
19, 108640, Note_on_c, 13, 63, 84
19, 108640, Note_on_c, 13, 68, 80
19, 108682, Note_on_c, 13, 63, 0
19, 108682, Note_on_c, 13, 68, 0
19, 108704, Note_on_c, 13, 63, 84
19, 108704, Note_on_c, 13, 68, 79
19, 108746, Note_on_c, 13, 63, 0
19, 108746, Note_on_c, 13, 68, 0
19, 108768, Note_on_c, 13, 60, 82
19, 108768, Note_on_c, 13, 65, 77
19, 108810, Note_on_c, 13, 60, 0
19, 108810, Note_on_c, 13, 65, 0
19, 108832, Note_on_c, 13, 60, 82
19, 108832, Note_on_c, 13, 65, 78
19, 108874, Note_on_c, 13, 60, 0
19, 108874, Note_on_c, 13, 65, 0
19, 108896, Note_on_c, 13, 60, 83
19, 108896, Note_on_c, 13, 65, 80
19, 108938, Note_on_c, 13, 60, 0
19, 108938, Note_on_c, 13, 65, 0
19, 108960, Note_on_c, 13, 58, 83
19, 108960, Note_on_c, 13, 63, 75
19, 109002, Note_on_c, 13, 58, 0
19, 109002, Note_on_c, 13, 63, 0
19, 109024, Note_on_c, 13, 58, 82
19, 109024, Note_on_c, 13, 63, 82
19, 109066, Note_on_c, 13, 58, 0
19, 109066, Note_on_c, 13, 63, 0
19, 109088, Note_on_c, 13, 58, 71
19, 109088, Note_on_c, 13, 63, 79
19, 109248, Note_on_c, 13, 58, 0
19, 109248, Note_on_c, 13, 63, 0
19, 109248, Note_on_c, 13, 60, 70
19, 109248, Note_on_c, 13, 65, 77
19, 109280, Note_on_c, 13, 60, 0
19, 109280, Note_on_c, 13, 65, 0
19, 109344, Note_on_c, 13, 63, 73
19, 109344, Note_on_c, 13, 68, 81
19, 109440, Note_on_c, 13, 63, 0
19, 109440, Note_on_c, 13, 68, 0
19, 109440, Note_on_c, 13, 66, 84
19, 109440, Note_on_c, 13, 70, 77
19, 109536, Note_on_c, 13, 66, 0
19, 109536, Note_on_c, 13, 70, 0
19, 109536, Note_on_c, 13, 68, 80
19, 109536, Note_on_c, 13, 73, 79
19, 109632, Note_on_c, 13, 68, 0
19, 109632, Note_on_c, 13, 73, 0
19, 109632, Note_on_c, 13, 70, 85
19, 109632, Note_on_c, 13, 75, 89
19, 109728, Note_on_c, 13, 70, 0
19, 109728, Note_on_c, 13, 75, 0
19, 109728, Note_on_c, 13, 71, 92
19, 109728, Note_on_c, 13, 74, 93
19, 109770, Note_on_c, 13, 71, 0
19, 109770, Note_on_c, 13, 74, 0
19, 109792, Note_on_c, 13, 71, 95
19, 109792, Note_on_c, 13, 74, 92
19, 109834, Note_on_c, 13, 71, 0
19, 109834, Note_on_c, 13, 74, 0
19, 109856, Note_on_c, 13, 71, 87
19, 109856, Note_on_c, 13, 74, 87
19, 109898, Note_on_c, 13, 71, 0
19, 109898, Note_on_c, 13, 74, 0
19, 109920, Note_on_c, 13, 68, 88
19, 109920, Note_on_c, 13, 71, 88
19, 109962, Note_on_c, 13, 68, 0
19, 109962, Note_on_c, 13, 71, 0
19, 109984, Note_on_c, 13, 68, 89
19, 109984, Note_on_c, 13, 71, 91
19, 110026, Note_on_c, 13, 68, 0
19, 110026, Note_on_c, 13, 71, 0
19, 110048, Note_on_c, 13, 68, 95
19, 110048, Note_on_c, 13, 71, 94
19, 110090, Note_on_c, 13, 68, 0
19, 110090, Note_on_c, 13, 71, 0
19, 110112, Note_on_c, 13, 71, 95
19, 110112, Note_on_c, 13, 74, 93
19, 110154, Note_on_c, 13, 71, 0
19, 110154, Note_on_c, 13, 74, 0
19, 110176, Note_on_c, 13, 71, 96
19, 110176, Note_on_c, 13, 74, 87
19, 110218, Note_on_c, 13, 71, 0
19, 110218, Note_on_c, 13, 74, 0
19, 110240, Note_on_c, 13, 71, 96
19, 110240, Note_on_c, 13, 74, 90
19, 110400, Note_on_c, 13, 71, 0
19, 110400, Note_on_c, 13, 74, 0
19, 110496, Note_on_c, 13, 68, 90
19, 110496, Note_on_c, 13, 71, 90
19, 110538, Note_on_c, 13, 68, 0
19, 110538, Note_on_c, 13, 71, 0
19, 110560, Note_on_c, 13, 68, 93
19, 110560, Note_on_c, 13, 71, 93
19, 110602, Note_on_c, 13, 68, 0
19, 110602, Note_on_c, 13, 71, 0
19, 110624, Note_on_c, 13, 68, 92
19, 110624, Note_on_c, 13, 71, 92
19, 110666, Note_on_c, 13, 68, 0
19, 110666, Note_on_c, 13, 71, 0
19, 110688, Note_on_c, 13, 71, 96
19, 110688, Note_on_c, 13, 74, 89
19, 110730, Note_on_c, 13, 71, 0
19, 110730, Note_on_c, 13, 74, 0
19, 110752, Note_on_c, 13, 71, 96
19, 110752, Note_on_c, 13, 74, 90
19, 110794, Note_on_c, 13, 71, 0
19, 110794, Note_on_c, 13, 74, 0
19, 110816, Note_on_c, 13, 71, 93
19, 110816, Note_on_c, 13, 74, 95
19, 110858, Note_on_c, 13, 71, 0
19, 110858, Note_on_c, 13, 74, 0
19, 110880, Note_on_c, 13, 72, 97
19, 110880, Note_on_c, 13, 74, 88
19, 110922, Note_on_c, 13, 72, 0
19, 110922, Note_on_c, 13, 74, 0
19, 110944, Note_on_c, 13, 72, 91
19, 110944, Note_on_c, 13, 74, 92
19, 110986, Note_on_c, 13, 72, 0
19, 110986, Note_on_c, 13, 74, 0
19, 111008, Note_on_c, 13, 72, 94
19, 111008, Note_on_c, 13, 74, 90
19, 111050, Note_on_c, 13, 72, 0
19, 111050, Note_on_c, 13, 74, 0
19, 111072, Note_on_c, 13, 72, 93
19, 111072, Note_on_c, 13, 74, 89
19, 111114, Note_on_c, 13, 72, 0
19, 111114, Note_on_c, 13, 74, 0
19, 111136, Note_on_c, 13, 72, 95
19, 111136, Note_on_c, 13, 74, 91
19, 111178, Note_on_c, 13, 72, 0
19, 111178, Note_on_c, 13, 74, 0
19, 111200, Note_on_c, 13, 72, 89
19, 111200, Note_on_c, 13, 74, 92
19, 111242, Note_on_c, 13, 72, 0
19, 111242, Note_on_c, 13, 74, 0
19, 111264, Note_on_c, 13, 72, 92
19, 111264, Note_on_c, 13, 74, 90
19, 111360, Note_on_c, 13, 72, 0
19, 111360, Note_on_c, 13, 74, 0
19, 111456, Note_on_c, 13, 56, 71
19, 111488, Note_on_c, 13, 56, 0
19, 111504, Note_on_c, 13, 56, 72
19, 111536, Note_on_c, 13, 56, 0
19, 111552, Note_on_c, 13, 59, 79
19, 111584, Note_on_c, 13, 59, 0
19, 111600, Note_on_c, 13, 59, 73
19, 111632, Note_on_c, 13, 59, 0
19, 111648, Note_on_c, 13, 62, 79
19, 111680, Note_on_c, 13, 62, 0
19, 111696, Note_on_c, 13, 62, 75
19, 111728, Note_on_c, 13, 62, 0
19, 111744, Note_on_c, 13, 65, 77
19, 111776, Note_on_c, 13, 65, 0
19, 111792, Note_on_c, 13, 65, 87
19, 111824, Note_on_c, 13, 65, 0
19, 111840, Note_on_c, 13, 68, 81
19, 111872, Note_on_c, 13, 68, 0
19, 111888, Note_on_c, 13, 68, 90
19, 111920, Note_on_c, 13, 68, 0
19, 111936, Note_on_c, 13, 71, 88
19, 111968, Note_on_c, 13, 71, 0
19, 111984, Note_on_c, 13, 71, 88
19, 112016, Note_on_c, 13, 71, 0
19, 112032, Control_c, 13, 11, 92
19, 112032, Note_on_c, 13, 70, 111
19, 112032, Note_on_c, 13, 75, 106
19, 112037, Control_c, 13, 11, 93
19, 112042, Control_c, 13, 11, 94
19, 112048, Control_c, 13, 11, 95
19, 112053, Control_c, 13, 11, 96
19, 112059, Control_c, 13, 11, 97
19, 112064, Control_c, 13, 11, 98
19, 112070, Control_c, 13, 11, 99
19, 112075, Control_c, 13, 11, 100
19, 112081, Control_c, 13, 11, 101
19, 112086, Control_c, 13, 11, 102
19, 112092, Control_c, 13, 11, 103
19, 112097, Control_c, 13, 11, 104
19, 112103, Control_c, 13, 11, 105
19, 112108, Control_c, 13, 11, 106
19, 112114, Control_c, 13, 11, 107
19, 112119, Control_c, 13, 11, 108
19, 112125, Control_c, 13, 11, 109
19, 112130, Control_c, 13, 11, 110
19, 112136, Control_c, 13, 11, 111
19, 112141, Control_c, 13, 11, 112
19, 112147, Control_c, 13, 11, 113
19, 112152, Control_c, 13, 11, 114
19, 112158, Control_c, 13, 11, 115
19, 112163, Control_c, 13, 11, 116
19, 112169, Control_c, 13, 11, 117
19, 112174, Control_c, 13, 11, 118
19, 112180, Control_c, 13, 11, 119
19, 112185, Control_c, 13, 11, 120
19, 112191, Control_c, 13, 11, 121
19, 112196, Control_c, 13, 11, 122
19, 112202, Control_c, 13, 11, 123
19, 112207, Control_c, 13, 11, 124
19, 112213, Control_c, 13, 11, 125
19, 112218, Control_c, 13, 11, 126
19, 112224, Note_on_c, 13, 70, 0
19, 112224, Note_on_c, 13, 75, 0
19, 112224, Control_c, 13, 11, 127
19, 112224, Note_on_c, 13, 75, 111
19, 112224, Note_on_c, 13, 80, 104
19, 112512, Note_on_c, 13, 75, 0
19, 112512, Note_on_c, 13, 80, 0
19, 112512, Note_on_c, 13, 72, 104
19, 112512, Note_on_c, 13, 77, 108
19, 112608, Note_on_c, 13, 72, 0
19, 112608, Note_on_c, 13, 77, 0
19, 112608, Note_on_c, 13, 70, 104
19, 112608, Note_on_c, 13, 75, 106
19, 112800, Note_on_c, 13, 70, 0
19, 112800, Note_on_c, 13, 75, 0
19, 112800, Note_on_c, 13, 68, 104
19, 112800, Note_on_c, 13, 73, 111
19, 112842, Note_on_c, 13, 68, 0
19, 112842, Note_on_c, 13, 73, 0
19, 112864, Note_on_c, 13, 68, 113
19, 112864, Note_on_c, 13, 73, 103
19, 112906, Note_on_c, 13, 68, 0
19, 112906, Note_on_c, 13, 73, 0
19, 112928, Note_on_c, 13, 68, 113
19, 112928, Note_on_c, 13, 73, 109
19, 112970, Note_on_c, 13, 68, 0
19, 112970, Note_on_c, 13, 73, 0
19, 112992, Note_on_c, 13, 65, 112
19, 112992, Note_on_c, 13, 70, 107
19, 113034, Note_on_c, 13, 65, 0
19, 113034, Note_on_c, 13, 70, 0
19, 113056, Note_on_c, 13, 65, 108
19, 113056, Note_on_c, 13, 70, 105
19, 113098, Note_on_c, 13, 65, 0
19, 113098, Note_on_c, 13, 70, 0
19, 113120, Note_on_c, 13, 65, 109
19, 113120, Note_on_c, 13, 70, 113
19, 113162, Note_on_c, 13, 65, 0
19, 113162, Note_on_c, 13, 70, 0
19, 113184, Note_on_c, 13, 63, 110
19, 113184, Note_on_c, 13, 68, 106
19, 113226, Note_on_c, 13, 63, 0
19, 113226, Note_on_c, 13, 68, 0
19, 113248, Note_on_c, 13, 63, 107
19, 113248, Note_on_c, 13, 68, 107
19, 113290, Note_on_c, 13, 63, 0
19, 113290, Note_on_c, 13, 68, 0
19, 113312, Note_on_c, 13, 63, 107
19, 113312, Note_on_c, 13, 68, 103
19, 113354, Note_on_c, 13, 63, 0
19, 113354, Note_on_c, 13, 68, 0
19, 113376, Note_on_c, 13, 60, 107
19, 113376, Note_on_c, 13, 65, 107
19, 113418, Note_on_c, 13, 60, 0
19, 113418, Note_on_c, 13, 65, 0
19, 113440, Note_on_c, 13, 60, 110
19, 113440, Note_on_c, 13, 65, 106
19, 113482, Note_on_c, 13, 60, 0
19, 113482, Note_on_c, 13, 65, 0
19, 113504, Note_on_c, 13, 60, 111
19, 113504, Note_on_c, 13, 65, 108
19, 113546, Note_on_c, 13, 60, 0
19, 113546, Note_on_c, 13, 65, 0
19, 113568, Note_on_c, 13, 58, 106
19, 113568, Note_on_c, 13, 63, 106
19, 113610, Note_on_c, 13, 58, 0
19, 113610, Note_on_c, 13, 63, 0
19, 113632, Note_on_c, 13, 58, 112
19, 113632, Note_on_c, 13, 63, 112
19, 113674, Note_on_c, 13, 58, 0
19, 113674, Note_on_c, 13, 63, 0
19, 113696, Note_on_c, 13, 58, 113
19, 113696, Note_on_c, 13, 63, 106
19, 113856, Note_on_c, 13, 58, 0
19, 113856, Note_on_c, 13, 63, 0
19, 113856, Note_on_c, 13, 60, 106
19, 113856, Note_on_c, 13, 65, 111
19, 113952, Note_on_c, 13, 60, 0
19, 113952, Note_on_c, 13, 65, 0
19, 113952, Note_on_c, 13, 63, 105
19, 113952, Note_on_c, 13, 68, 103
19, 114048, Note_on_c, 13, 63, 0
19, 114048, Note_on_c, 13, 68, 0
19, 114048, Note_on_c, 13, 65, 108
19, 114048, Note_on_c, 13, 70, 109
19, 114144, Note_on_c, 13, 65, 0
19, 114144, Note_on_c, 13, 70, 0
19, 114144, Note_on_c, 13, 68, 106
19, 114144, Note_on_c, 13, 73, 112
19, 114240, Note_on_c, 13, 68, 0
19, 114240, Note_on_c, 13, 73, 0
19, 114240, Note_on_c, 13, 70, 109
19, 114240, Note_on_c, 13, 75, 111
19, 114336, Note_on_c, 13, 70, 0
19, 114336, Note_on_c, 13, 75, 0
19, 114336, Note_on_c, 13, 68, 106
19, 114378, Note_on_c, 13, 68, 0
19, 114400, Note_on_c, 13, 68, 106
19, 114442, Note_on_c, 13, 68, 0
19, 114464, Note_on_c, 13, 68, 112
19, 114506, Note_on_c, 13, 68, 0
19, 114528, Note_on_c, 13, 65, 104
19, 114560, Note_on_c, 13, 65, 0
19, 114624, Note_on_c, 13, 68, 103
19, 114656, Note_on_c, 13, 68, 0
19, 114720, Note_on_c, 13, 70, 103
19, 114752, Note_on_c, 13, 70, 0
19, 114816, Note_on_c, 13, 68, 112
19, 114848, Note_on_c, 13, 68, 0
19, 114912, Note_on_c, 13, 65, 106
19, 114954, Note_on_c, 13, 65, 0
19, 114976, Note_on_c, 13, 65, 113
19, 115018, Note_on_c, 13, 65, 0
19, 115040, Note_on_c, 13, 68, 117
19, 115082, Note_on_c, 13, 68, 0
19, 115104, Note_on_c, 13, 70, 109
19, 115146, Note_on_c, 13, 70, 0
19, 115168, Note_on_c, 13, 70, 112
19, 115210, Note_on_c, 13, 70, 0
19, 115232, Note_on_c, 13, 68, 115
19, 115274, Note_on_c, 13, 68, 0
19, 115296, Note_on_c, 13, 65, 124
19, 115338, Note_on_c, 13, 65, 0
19, 115360, Note_on_c, 13, 65, 122
19, 115402, Note_on_c, 13, 65, 0
19, 115424, Note_on_c, 13, 70, 127
19, 115466, Note_on_c, 13, 70, 0
19, 115488, Note_on_c, 13, 68, 113
19, 115530, Note_on_c, 13, 68, 0
19, 115552, Note_on_c, 13, 68, 103
19, 115594, Note_on_c, 13, 68, 0
19, 115616, Note_on_c, 13, 68, 104
19, 115658, Note_on_c, 13, 68, 0
19, 115680, Note_on_c, 13, 65, 113
19, 115712, Note_on_c, 13, 65, 0
19, 115776, Note_on_c, 13, 68, 112
19, 115808, Note_on_c, 13, 68, 0
19, 115872, Note_on_c, 13, 70, 109
19, 115904, Note_on_c, 13, 70, 0
19, 115968, Note_on_c, 13, 68, 105
19, 116000, Note_on_c, 13, 68, 0
19, 116064, Note_on_c, 13, 65, 112
19, 116106, Note_on_c, 13, 65, 0
19, 116128, Note_on_c, 13, 65, 112
19, 116170, Note_on_c, 13, 65, 0
19, 116192, Note_on_c, 13, 68, 109
19, 116234, Note_on_c, 13, 68, 0
19, 116256, Note_on_c, 13, 70, 103
19, 116298, Note_on_c, 13, 70, 0
19, 116320, Note_on_c, 13, 70, 104
19, 116362, Note_on_c, 13, 70, 0
19, 116384, Note_on_c, 13, 68, 105
19, 116426, Note_on_c, 13, 68, 0
19, 116448, Note_on_c, 13, 65, 103
19, 116490, Note_on_c, 13, 65, 0
19, 116512, Note_on_c, 13, 65, 112
19, 116554, Note_on_c, 13, 65, 0
19, 116576, Note_on_c, 13, 69, 104
19, 116618, Note_on_c, 13, 69, 0
19, 116640, Note_on_c, 13, 72, 127
19, 116682, Note_on_c, 13, 72, 0
19, 116704, Note_on_c, 13, 72, 125
19, 116746, Note_on_c, 13, 72, 0
19, 116768, Note_on_c, 13, 72, 127
19, 116810, Note_on_c, 13, 72, 0
19, 116832, Note_on_c, 13, 71, 127
19, 116874, Note_on_c, 13, 71, 0
19, 116896, Note_on_c, 13, 71, 123
19, 116938, Note_on_c, 13, 71, 0
19, 116960, Note_on_c, 13, 71, 127
19, 117002, Note_on_c, 13, 71, 0
19, 117024, Note_on_c, 13, 70, 127
19, 117066, Note_on_c, 13, 70, 0
19, 117088, Note_on_c, 13, 70, 127
19, 117130, Note_on_c, 13, 70, 0
19, 117152, Note_on_c, 13, 70, 125
19, 117194, Note_on_c, 13, 70, 0
19, 117216, Note_on_c, 13, 72, 127
19, 117258, Note_on_c, 13, 72, 0
19, 117280, Note_on_c, 13, 72, 127
19, 117322, Note_on_c, 13, 72, 0
19, 117344, Note_on_c, 13, 72, 127
19, 117386, Note_on_c, 13, 72, 0
19, 117408, Note_on_c, 13, 71, 124
19, 117450, Note_on_c, 13, 71, 0
19, 117472, Note_on_c, 13, 71, 127
19, 117514, Note_on_c, 13, 71, 0
19, 117536, Note_on_c, 13, 71, 127
19, 117578, Note_on_c, 13, 71, 0
19, 117600, Note_on_c, 13, 70, 127
19, 117632, Note_on_c, 13, 70, 0
19, 117696, Note_on_c, 13, 74, 127
19, 117728, Note_on_c, 13, 74, 0
19, 117792, Note_on_c, 13, 60, 126
19, 117834, Note_on_c, 13, 60, 0
19, 117856, Note_on_c, 13, 60, 124
19, 117898, Note_on_c, 13, 60, 0
19, 117920, Note_on_c, 13, 60, 127
19, 117962, Note_on_c, 13, 60, 0
19, 117984, Note_on_c, 13, 59, 124
19, 118026, Note_on_c, 13, 59, 0
19, 118048, Note_on_c, 13, 59, 127
19, 118090, Note_on_c, 13, 59, 0
19, 118112, Note_on_c, 13, 59, 122
19, 118154, Note_on_c, 13, 59, 0
19, 118176, Note_on_c, 13, 58, 127
19, 118208, Note_on_c, 13, 58, 0
19, 118272, Note_on_c, 13, 62, 127
19, 118304, Note_on_c, 13, 62, 0
19, 118368, Note_on_c, 13, 60, 126
19, 118410, Note_on_c, 13, 60, 0
19, 118432, Note_on_c, 13, 60, 125
19, 118474, Note_on_c, 13, 60, 0
19, 118496, Note_on_c, 13, 60, 127
19, 118538, Note_on_c, 13, 60, 0
19, 118560, Note_on_c, 13, 59, 127
19, 118602, Note_on_c, 13, 59, 0
19, 118624, Note_on_c, 13, 59, 126
19, 118666, Note_on_c, 13, 59, 0
19, 118688, Note_on_c, 13, 59, 127
19, 118730, Note_on_c, 13, 59, 0
19, 118752, Note_on_c, 13, 58, 127
19, 118784, Note_on_c, 13, 58, 0
19, 118848, Note_on_c, 13, 62, 126
19, 118880, Note_on_c, 13, 62, 0
19, 118944, Note_on_c, 13, 60, 87
19, 118976, Note_on_c, 13, 60, 0
19, 118992, Note_on_c, 13, 60, 89
19, 119024, Note_on_c, 13, 60, 0
19, 119040, Note_on_c, 13, 59, 94
19, 119072, Note_on_c, 13, 59, 0
19, 119088, Note_on_c, 13, 59, 95
19, 119120, Note_on_c, 13, 59, 0
19, 119136, Note_on_c, 13, 58, 90
19, 119168, Note_on_c, 13, 58, 0
19, 119184, Note_on_c, 13, 58, 91
19, 119216, Note_on_c, 13, 58, 0
19, 119232, Note_on_c, 13, 62, 87
19, 119264, Note_on_c, 13, 62, 0
19, 119280, Note_on_c, 13, 62, 92
19, 119312, Note_on_c, 13, 62, 0
19, 119328, Note_on_c, 13, 60, 90
19, 119360, Note_on_c, 13, 60, 0
19, 119376, Note_on_c, 13, 60, 90
19, 119408, Note_on_c, 13, 60, 0
19, 119424, Note_on_c, 13, 59, 89
19, 119456, Note_on_c, 13, 59, 0
19, 119472, Note_on_c, 13, 59, 90
19, 119504, Note_on_c, 13, 59, 0
19, 119520, Note_on_c, 13, 58, 89
19, 119552, Note_on_c, 13, 58, 0
19, 119568, Note_on_c, 13, 58, 97
19, 119600, Note_on_c, 13, 58, 0
19, 119616, Note_on_c, 13, 62, 88
19, 119648, Note_on_c, 13, 62, 0
19, 119664, Note_on_c, 13, 62, 95
19, 119696, Note_on_c, 13, 62, 0
19, 119712, Note_on_c, 13, 60, 96
19, 119744, Note_on_c, 13, 60, 0
19, 119760, Note_on_c, 13, 60, 90
19, 119792, Note_on_c, 13, 60, 0
19, 119808, Note_on_c, 13, 59, 91
19, 119840, Note_on_c, 13, 59, 0
19, 119856, Note_on_c, 13, 59, 97
19, 119888, Note_on_c, 13, 59, 0
19, 119904, Note_on_c, 13, 58, 96
19, 119936, Note_on_c, 13, 58, 0
19, 119952, Note_on_c, 13, 58, 87
19, 119984, Note_on_c, 13, 58, 0
19, 120000, Note_on_c, 13, 62, 90
19, 120032, Note_on_c, 13, 62, 0
19, 120048, Note_on_c, 13, 62, 96
19, 120080, Note_on_c, 13, 62, 0
19, 120096, Note_on_c, 13, 60, 90
19, 120128, Note_on_c, 13, 60, 0
19, 120144, Note_on_c, 13, 60, 92
19, 120176, Note_on_c, 13, 60, 0
19, 120192, Note_on_c, 13, 59, 85
19, 120224, Note_on_c, 13, 59, 0
19, 120240, Note_on_c, 13, 59, 82
19, 120272, Note_on_c, 13, 59, 0
19, 120288, Note_on_c, 13, 58, 84
19, 120320, Note_on_c, 13, 58, 0
19, 120336, Note_on_c, 13, 58, 80
19, 120368, Note_on_c, 13, 58, 0
19, 120384, Note_on_c, 13, 62, 80
19, 120416, Note_on_c, 13, 62, 0
19, 120432, Note_on_c, 13, 62, 78
19, 120464, Note_on_c, 13, 62, 0
19, 120480, Note_on_c, 13, 60, 77
19, 120512, Note_on_c, 13, 60, 0
19, 120528, Note_on_c, 13, 60, 72
19, 120560, Note_on_c, 13, 60, 0
19, 120576, Note_on_c, 13, 59, 72
19, 120608, Note_on_c, 13, 59, 0
19, 120624, Note_on_c, 13, 59, 68
19, 120656, Note_on_c, 13, 59, 0
19, 120672, Note_on_c, 13, 58, 68
19, 120704, Note_on_c, 13, 58, 0
19, 120720, Note_on_c, 13, 58, 65
19, 120752, Note_on_c, 13, 58, 0
19, 120768, Note_on_c, 13, 62, 68
19, 120800, Note_on_c, 13, 62, 0
19, 120816, Note_on_c, 13, 62, 58
19, 120848, Note_on_c, 13, 62, 0
19, 120864, Note_on_c, 13, 60, 61
19, 120896, Note_on_c, 13, 60, 0
19, 120912, Note_on_c, 13, 60, 54
19, 120944, Note_on_c, 13, 60, 0
19, 120960, Note_on_c, 13, 59, 56
19, 120992, Note_on_c, 13, 59, 0
19, 121008, Note_on_c, 13, 59, 54
19, 121040, Note_on_c, 13, 59, 0
19, 121056, Note_on_c, 13, 58, 48
19, 121088, Note_on_c, 13, 58, 0
19, 121104, Note_on_c, 13, 58, 56
19, 121136, Note_on_c, 13, 58, 0
19, 121152, Note_on_c, 13, 62, 45
19, 121184, Note_on_c, 13, 62, 0
19, 121200, Note_on_c, 13, 62, 47
19, 121232, Note_on_c, 13, 62, 0
19, 123552, Program_c, 13, 45
19, 123552, Note_on_c, 13, 55, 31
19, 123552, Note_on_c, 13, 62, 31
19, 123648, Note_on_c, 13, 55, 0
19, 123648, Note_on_c, 13, 62, 0
19, 125280, Program_c, 13, 48
19, 125856, Control_c, 13, 11, 92
19, 125856, Note_on_c, 13, 54, 61
19, 125872, Control_c, 13, 11, 93
19, 125888, Note_on_c, 13, 54, 0
19, 125888, Control_c, 13, 11, 94
19, 125904, Note_on_c, 13, 54, 64
19, 125905, Control_c, 13, 11, 95
19, 125921, Control_c, 13, 11, 96
19, 125936, Note_on_c, 13, 54, 0
19, 125938, Control_c, 13, 11, 97
19, 125952, Note_on_c, 13, 54, 61
19, 125954, Control_c, 13, 11, 98
19, 125971, Control_c, 13, 11, 99
19, 125984, Note_on_c, 13, 54, 0
19, 125987, Control_c, 13, 11, 100
19, 126000, Note_on_c, 13, 54, 57
19, 126004, Control_c, 13, 11, 101
19, 126020, Control_c, 13, 11, 102
19, 126032, Note_on_c, 13, 54, 0
19, 126037, Control_c, 13, 11, 103
19, 126048, Note_on_c, 13, 55, 60
19, 126053, Control_c, 13, 11, 104
19, 126069, Control_c, 13, 11, 105
19, 126080, Note_on_c, 13, 55, 0
19, 126086, Control_c, 13, 11, 106
19, 126096, Note_on_c, 13, 55, 59
19, 126102, Control_c, 13, 11, 107
19, 126119, Control_c, 13, 11, 108
19, 126128, Note_on_c, 13, 55, 0
19, 126135, Control_c, 13, 11, 109
19, 126144, Note_on_c, 13, 55, 64
19, 126152, Control_c, 13, 11, 110
19, 126168, Control_c, 13, 11, 111
19, 126176, Note_on_c, 13, 55, 0
19, 126185, Control_c, 13, 11, 112
19, 126192, Note_on_c, 13, 55, 59
19, 126201, Control_c, 13, 11, 113
19, 126218, Control_c, 13, 11, 114
19, 126224, Note_on_c, 13, 55, 0
19, 126234, Control_c, 13, 11, 115
19, 126240, Note_on_c, 13, 56, 59
19, 126250, Control_c, 13, 11, 116
19, 126267, Control_c, 13, 11, 117
19, 126272, Note_on_c, 13, 56, 0
19, 126283, Control_c, 13, 11, 118
19, 126288, Note_on_c, 13, 56, 55
19, 126300, Control_c, 13, 11, 119
19, 126316, Control_c, 13, 11, 120
19, 126320, Note_on_c, 13, 56, 0
19, 126333, Control_c, 13, 11, 121
19, 126336, Note_on_c, 13, 56, 61
19, 126349, Control_c, 13, 11, 122
19, 126366, Control_c, 13, 11, 123
19, 126368, Note_on_c, 13, 56, 0
19, 126382, Control_c, 13, 11, 124
19, 126384, Note_on_c, 13, 56, 62
19, 126399, Control_c, 13, 11, 125
19, 126415, Control_c, 13, 11, 126
19, 126416, Note_on_c, 13, 56, 0
19, 126432, Control_c, 13, 11, 127
19, 126432, Note_on_c, 13, 57, 58
19, 126448, Control_c, 13, 11, 126
19, 126464, Note_on_c, 13, 57, 0
19, 126464, Control_c, 13, 11, 125
19, 126480, Note_on_c, 13, 57, 64
19, 126481, Control_c, 13, 11, 124
19, 126497, Control_c, 13, 11, 123
19, 126512, Note_on_c, 13, 57, 0
19, 126514, Control_c, 13, 11, 122
19, 126528, Note_on_c, 13, 57, 57
19, 126530, Control_c, 13, 11, 121
19, 126547, Control_c, 13, 11, 120
19, 126560, Note_on_c, 13, 57, 0
19, 126563, Control_c, 13, 11, 119
19, 126576, Note_on_c, 13, 57, 63
19, 126580, Control_c, 13, 11, 118
19, 126596, Control_c, 13, 11, 117
19, 126608, Note_on_c, 13, 57, 0
19, 126613, Control_c, 13, 11, 116
19, 126624, Note_on_c, 13, 57, 63
19, 126629, Control_c, 13, 11, 115
19, 126645, Control_c, 13, 11, 114
19, 126656, Note_on_c, 13, 57, 0
19, 126662, Control_c, 13, 11, 113
19, 126672, Note_on_c, 13, 57, 58
19, 126678, Control_c, 13, 11, 112
19, 126695, Control_c, 13, 11, 111
19, 126704, Note_on_c, 13, 57, 0
19, 126711, Control_c, 13, 11, 110
19, 126720, Note_on_c, 13, 57, 56
19, 126728, Control_c, 13, 11, 109
19, 126744, Control_c, 13, 11, 108
19, 126752, Note_on_c, 13, 57, 0
19, 126761, Control_c, 13, 11, 107
19, 126768, Note_on_c, 13, 57, 64
19, 126777, Control_c, 13, 11, 106
19, 126794, Control_c, 13, 11, 105
19, 126800, Note_on_c, 13, 57, 0
19, 126810, Control_c, 13, 11, 104
19, 126816, Note_on_c, 13, 56, 60
19, 126826, Control_c, 13, 11, 103
19, 126843, Control_c, 13, 11, 102
19, 126848, Note_on_c, 13, 56, 0
19, 126859, Control_c, 13, 11, 101
19, 126864, Note_on_c, 13, 56, 65
19, 126876, Control_c, 13, 11, 100
19, 126892, Control_c, 13, 11, 99
19, 126896, Note_on_c, 13, 56, 0
19, 126909, Control_c, 13, 11, 98
19, 126912, Note_on_c, 13, 55, 59
19, 126925, Control_c, 13, 11, 97
19, 126942, Control_c, 13, 11, 96
19, 126944, Note_on_c, 13, 55, 0
19, 126958, Control_c, 13, 11, 95
19, 126960, Note_on_c, 13, 55, 63
19, 126975, Control_c, 13, 11, 94
19, 126991, Control_c, 13, 11, 93
19, 126992, Note_on_c, 13, 55, 0
19, 127008, Control_c, 13, 11, 92
19, 127008, Note_on_c, 13, 54, 63
19, 127040, Note_on_c, 13, 54, 0
19, 127056, Note_on_c, 13, 54, 59
19, 127088, Note_on_c, 13, 54, 0
19, 127104, Note_on_c, 13, 54, 60
19, 127136, Note_on_c, 13, 54, 0
19, 127152, Note_on_c, 13, 54, 62
19, 127184, Note_on_c, 13, 54, 0
19, 127200, Note_on_c, 13, 55, 65
19, 127232, Note_on_c, 13, 55, 0
19, 127248, Note_on_c, 13, 55, 62
19, 127280, Note_on_c, 13, 55, 0
19, 127296, Note_on_c, 13, 55, 58
19, 127328, Note_on_c, 13, 55, 0
19, 127344, Note_on_c, 13, 55, 58
19, 127376, Note_on_c, 13, 55, 0
19, 127392, Note_on_c, 13, 56, 58
19, 127424, Note_on_c, 13, 56, 0
19, 127440, Note_on_c, 13, 56, 65
19, 127472, Note_on_c, 13, 56, 0
19, 127488, Note_on_c, 13, 56, 57
19, 127520, Note_on_c, 13, 56, 0
19, 127536, Note_on_c, 13, 56, 63
19, 127568, Note_on_c, 13, 56, 0
19, 127584, Note_on_c, 13, 57, 62
19, 127616, Note_on_c, 13, 57, 0
19, 127632, Note_on_c, 13, 57, 60
19, 127664, Note_on_c, 13, 57, 0
19, 127680, Note_on_c, 13, 57, 56
19, 127712, Note_on_c, 13, 57, 0
19, 127728, Note_on_c, 13, 57, 63
19, 127760, Note_on_c, 13, 57, 0
19, 127776, Note_on_c, 13, 57, 56
19, 127808, Note_on_c, 13, 57, 0
19, 127824, Note_on_c, 13, 57, 64
19, 127856, Note_on_c, 13, 57, 0
19, 127872, Note_on_c, 13, 57, 65
19, 127904, Note_on_c, 13, 57, 0
19, 127920, Note_on_c, 13, 57, 63
19, 127952, Note_on_c, 13, 57, 0
19, 127968, Note_on_c, 13, 58, 65
19, 128000, Note_on_c, 13, 58, 0
19, 128016, Note_on_c, 13, 58, 58
19, 128048, Note_on_c, 13, 58, 0
19, 128064, Note_on_c, 13, 59, 58
19, 128096, Note_on_c, 13, 59, 0
19, 128112, Note_on_c, 13, 59, 56
19, 128144, Note_on_c, 13, 59, 0
19, 128160, Note_on_c, 13, 60, 63
19, 128192, Note_on_c, 13, 60, 0
19, 128208, Note_on_c, 13, 60, 62
19, 128240, Note_on_c, 13, 60, 0
19, 128256, Note_on_c, 13, 60, 64
19, 128288, Note_on_c, 13, 60, 0
19, 128304, Note_on_c, 13, 60, 64
19, 128336, Note_on_c, 13, 60, 0
19, 128352, Note_on_c, 13, 60, 59
19, 128384, Note_on_c, 13, 60, 0
19, 128400, Note_on_c, 13, 60, 64
19, 128432, Note_on_c, 13, 60, 0
19, 128448, Note_on_c, 13, 60, 58
19, 128480, Note_on_c, 13, 60, 0
19, 128496, Note_on_c, 13, 60, 57
19, 128528, Note_on_c, 13, 60, 0
19, 128544, Note_on_c, 13, 60, 59
19, 128576, Note_on_c, 13, 60, 0
19, 128592, Note_on_c, 13, 60, 57
19, 128624, Note_on_c, 13, 60, 0
19, 128640, Note_on_c, 13, 60, 56
19, 128672, Note_on_c, 13, 60, 0
19, 128688, Note_on_c, 13, 60, 60
19, 128720, Note_on_c, 13, 60, 0
19, 128736, Note_on_c, 13, 54, 59
19, 128768, Note_on_c, 13, 54, 0
19, 128784, Note_on_c, 13, 54, 58
19, 128816, Note_on_c, 13, 54, 0
19, 128832, Note_on_c, 13, 54, 64
19, 128864, Note_on_c, 13, 54, 0
19, 128880, Note_on_c, 13, 54, 59
19, 128912, Note_on_c, 13, 54, 0
19, 128928, Note_on_c, 13, 54, 65
19, 128960, Note_on_c, 13, 54, 0
19, 128976, Note_on_c, 13, 54, 55
19, 129008, Note_on_c, 13, 54, 0
19, 129024, Note_on_c, 13, 54, 57
19, 129056, Note_on_c, 13, 54, 0
19, 129072, Note_on_c, 13, 54, 65
19, 129104, Note_on_c, 13, 54, 0
19, 129120, Note_on_c, 13, 55, 55
19, 129152, Note_on_c, 13, 55, 0
19, 129168, Note_on_c, 13, 55, 56
19, 129200, Note_on_c, 13, 55, 0
19, 129216, Note_on_c, 13, 56, 55
19, 129248, Note_on_c, 13, 56, 0
19, 129264, Note_on_c, 13, 56, 64
19, 129296, Note_on_c, 13, 56, 0
19, 129312, Control_c, 13, 11, 64
19, 129312, Note_on_c, 13, 57, 26
19, 129318, Control_c, 13, 11, 65
19, 129324, Control_c, 13, 11, 66
19, 129330, Control_c, 13, 11, 67
19, 129336, Control_c, 13, 11, 68
19, 129342, Control_c, 13, 11, 69
19, 129348, Control_c, 13, 11, 70
19, 129354, Control_c, 13, 11, 71
19, 129360, Control_c, 13, 11, 72
19, 129366, Control_c, 13, 11, 73
19, 129372, Control_c, 13, 11, 74
19, 129379, Control_c, 13, 11, 75
19, 129385, Control_c, 13, 11, 76
19, 129391, Control_c, 13, 11, 77
19, 129397, Control_c, 13, 11, 78
19, 129403, Control_c, 13, 11, 79
19, 129409, Control_c, 13, 11, 80
19, 129415, Control_c, 13, 11, 81
19, 129421, Control_c, 13, 11, 82
19, 129427, Control_c, 13, 11, 83
19, 129433, Control_c, 13, 11, 84
19, 129440, Control_c, 13, 11, 85
19, 129446, Control_c, 13, 11, 86
19, 129452, Control_c, 13, 11, 87
19, 129458, Control_c, 13, 11, 88
19, 129464, Control_c, 13, 11, 89
19, 129470, Control_c, 13, 11, 90
19, 129476, Control_c, 13, 11, 91
19, 129482, Control_c, 13, 11, 92
19, 129488, Control_c, 13, 11, 93
19, 129494, Control_c, 13, 11, 94
19, 129500, Control_c, 13, 11, 95
19, 129507, Control_c, 13, 11, 96
19, 129513, Control_c, 13, 11, 97
19, 129519, Control_c, 13, 11, 98
19, 129525, Control_c, 13, 11, 99
19, 129531, Control_c, 13, 11, 100
19, 129537, Control_c, 13, 11, 101
19, 129543, Control_c, 13, 11, 102
19, 129549, Control_c, 13, 11, 103
19, 129555, Control_c, 13, 11, 104
19, 129561, Control_c, 13, 11, 105
19, 129568, Control_c, 13, 11, 106
19, 129574, Control_c, 13, 11, 107
19, 129580, Control_c, 13, 11, 108
19, 129586, Control_c, 13, 11, 109
19, 129592, Control_c, 13, 11, 110
19, 129598, Control_c, 13, 11, 111
19, 129604, Control_c, 13, 11, 112
19, 129610, Control_c, 13, 11, 113
19, 129616, Control_c, 13, 11, 114
19, 129622, Control_c, 13, 11, 115
19, 129628, Control_c, 13, 11, 116
19, 129635, Control_c, 13, 11, 117
19, 129641, Control_c, 13, 11, 118
19, 129647, Control_c, 13, 11, 119
19, 129653, Control_c, 13, 11, 120
19, 129659, Control_c, 13, 11, 121
19, 129665, Control_c, 13, 11, 122
19, 129671, Control_c, 13, 11, 123
19, 129677, Control_c, 13, 11, 124
19, 129683, Control_c, 13, 11, 125
19, 129689, Control_c, 13, 11, 126
19, 129696, Control_c, 13, 11, 127
19, 131616, Note_on_c, 13, 57, 0
19, 131616, Note_on_c, 13, 57, 25
19, 133920, Note_on_c, 13, 57, 0
19, 133920, Control_c, 13, 11, 64
19, 133920, Note_on_c, 13, 59, 31
19, 133926, Control_c, 13, 11, 65
19, 133932, Control_c, 13, 11, 66
19, 133938, Control_c, 13, 11, 67
19, 133944, Control_c, 13, 11, 68
19, 133950, Control_c, 13, 11, 69
19, 133956, Control_c, 13, 11, 70
19, 133962, Control_c, 13, 11, 71
19, 133968, Control_c, 13, 11, 72
19, 133974, Control_c, 13, 11, 73
19, 133980, Control_c, 13, 11, 74
19, 133987, Control_c, 13, 11, 75
19, 133993, Control_c, 13, 11, 76
19, 133999, Control_c, 13, 11, 77
19, 134005, Control_c, 13, 11, 78
19, 134011, Control_c, 13, 11, 79
19, 134017, Control_c, 13, 11, 80
19, 134023, Control_c, 13, 11, 81
19, 134029, Control_c, 13, 11, 82
19, 134035, Control_c, 13, 11, 83
19, 134041, Control_c, 13, 11, 84
19, 134048, Control_c, 13, 11, 85
19, 134054, Control_c, 13, 11, 86
19, 134060, Control_c, 13, 11, 87
19, 134066, Control_c, 13, 11, 88
19, 134072, Control_c, 13, 11, 89
19, 134078, Control_c, 13, 11, 90
19, 134084, Control_c, 13, 11, 91
19, 134090, Control_c, 13, 11, 92
19, 134096, Control_c, 13, 11, 93
19, 134102, Control_c, 13, 11, 94
19, 134108, Control_c, 13, 11, 95
19, 134115, Control_c, 13, 11, 96
19, 134121, Control_c, 13, 11, 97
19, 134127, Control_c, 13, 11, 98
19, 134133, Control_c, 13, 11, 99
19, 134139, Control_c, 13, 11, 100
19, 134145, Control_c, 13, 11, 101
19, 134151, Control_c, 13, 11, 102
19, 134157, Control_c, 13, 11, 103
19, 134163, Control_c, 13, 11, 104
19, 134169, Control_c, 13, 11, 105
19, 134176, Control_c, 13, 11, 106
19, 134182, Control_c, 13, 11, 107
19, 134188, Control_c, 13, 11, 108
19, 134194, Control_c, 13, 11, 109
19, 134200, Control_c, 13, 11, 110
19, 134206, Control_c, 13, 11, 111
19, 134212, Control_c, 13, 11, 112
19, 134218, Control_c, 13, 11, 113
19, 134224, Control_c, 13, 11, 114
19, 134230, Control_c, 13, 11, 115
19, 134236, Control_c, 13, 11, 116
19, 134243, Control_c, 13, 11, 117
19, 134249, Control_c, 13, 11, 118
19, 134255, Control_c, 13, 11, 119
19, 134261, Control_c, 13, 11, 120
19, 134267, Control_c, 13, 11, 121
19, 134273, Control_c, 13, 11, 122
19, 134279, Control_c, 13, 11, 123
19, 134285, Control_c, 13, 11, 124
19, 134291, Control_c, 13, 11, 125
19, 134297, Control_c, 13, 11, 126
19, 134304, Control_c, 13, 11, 127
19, 135072, Note_on_c, 13, 59, 0
19, 136224, Control_c, 13, 11, 64
19, 136224, Note_on_c, 13, 59, 23
19, 136230, Control_c, 13, 11, 65
19, 136236, Control_c, 13, 11, 66
19, 136242, Control_c, 13, 11, 67
19, 136248, Control_c, 13, 11, 68
19, 136254, Control_c, 13, 11, 69
19, 136260, Control_c, 13, 11, 70
19, 136266, Control_c, 13, 11, 71
19, 136272, Control_c, 13, 11, 72
19, 136278, Control_c, 13, 11, 73
19, 136284, Control_c, 13, 11, 74
19, 136291, Control_c, 13, 11, 75
19, 136297, Control_c, 13, 11, 76
19, 136303, Control_c, 13, 11, 77
19, 136309, Control_c, 13, 11, 78
19, 136315, Control_c, 13, 11, 79
19, 136321, Control_c, 13, 11, 80
19, 136327, Control_c, 13, 11, 81
19, 136333, Control_c, 13, 11, 82
19, 136339, Control_c, 13, 11, 83
19, 136345, Control_c, 13, 11, 84
19, 136352, Control_c, 13, 11, 85
19, 136358, Control_c, 13, 11, 86
19, 136364, Control_c, 13, 11, 87
19, 136370, Control_c, 13, 11, 88
19, 136376, Control_c, 13, 11, 89
19, 136382, Control_c, 13, 11, 90
19, 136388, Control_c, 13, 11, 91
19, 136394, Control_c, 13, 11, 92
19, 136400, Control_c, 13, 11, 93
19, 136406, Control_c, 13, 11, 94
19, 136412, Control_c, 13, 11, 95
19, 136419, Control_c, 13, 11, 96
19, 136425, Control_c, 13, 11, 97
19, 136431, Control_c, 13, 11, 98
19, 136437, Control_c, 13, 11, 99
19, 136443, Control_c, 13, 11, 100
19, 136449, Control_c, 13, 11, 101
19, 136455, Control_c, 13, 11, 102
19, 136461, Control_c, 13, 11, 103
19, 136467, Control_c, 13, 11, 104
19, 136473, Control_c, 13, 11, 105
19, 136480, Control_c, 13, 11, 106
19, 136486, Control_c, 13, 11, 107
19, 136492, Control_c, 13, 11, 108
19, 136498, Control_c, 13, 11, 109
19, 136504, Control_c, 13, 11, 110
19, 136510, Control_c, 13, 11, 111
19, 136516, Control_c, 13, 11, 112
19, 136522, Control_c, 13, 11, 113
19, 136528, Control_c, 13, 11, 114
19, 136534, Control_c, 13, 11, 115
19, 136540, Control_c, 13, 11, 116
19, 136547, Control_c, 13, 11, 117
19, 136553, Control_c, 13, 11, 118
19, 136559, Control_c, 13, 11, 119
19, 136565, Control_c, 13, 11, 120
19, 136571, Control_c, 13, 11, 121
19, 136577, Control_c, 13, 11, 122
19, 136583, Control_c, 13, 11, 123
19, 136589, Control_c, 13, 11, 124
19, 136595, Control_c, 13, 11, 125
19, 136601, Control_c, 13, 11, 126
19, 136608, Control_c, 13, 11, 127
19, 137376, Note_on_c, 13, 59, 0
19, 137376, End_track
20, 0, Start_track
20, 0, Title_t, "Viole II"
20, 0, MIDI_port, 0
20, 184, Control_c, 13, 0, 0
20, 185, Control_c, 13, 32, 0
20, 186, Program_c, 13, 48
20, 187, Control_c, 13, 7, 127
20, 188, Control_c, 13, 91, 127
20, 1152, Note_on_c, 13, 49, 28
20, 1344, Note_on_c, 13, 49, 0
20, 2112, Note_on_c, 13, 49, 43
20, 2496, Note_on_c, 13, 49, 0
20, 3264, Note_on_c, 13, 49, 40
20, 3840, Note_on_c, 13, 49, 0
20, 3840, Note_on_c, 13, 50, 35
20, 4608, Note_on_c, 13, 50, 0
20, 5184, Note_on_c, 13, 48, 29
20, 5208, Note_on_c, 13, 48, 0
20, 5208, Note_on_c, 13, 50, 35
20, 5232, Note_on_c, 13, 50, 0
20, 5232, Note_on_c, 13, 48, 26
20, 5256, Note_on_c, 13, 48, 0
20, 5256, Note_on_c, 13, 50, 32
20, 5280, Note_on_c, 13, 50, 0
20, 5280, Note_on_c, 13, 48, 26
20, 5304, Note_on_c, 13, 48, 0
20, 5304, Note_on_c, 13, 50, 28
20, 5328, Note_on_c, 13, 50, 0
20, 5328, Note_on_c, 13, 48, 28
20, 5352, Note_on_c, 13, 48, 0
20, 5352, Note_on_c, 13, 50, 31
20, 5376, Note_on_c, 13, 50, 0
20, 5376, Note_on_c, 13, 48, 35
20, 5400, Note_on_c, 13, 48, 0
20, 5400, Note_on_c, 13, 50, 26
20, 5424, Note_on_c, 13, 50, 0
20, 5424, Note_on_c, 13, 48, 28
20, 5448, Note_on_c, 13, 48, 0
20, 5448, Note_on_c, 13, 50, 34
20, 5472, Note_on_c, 13, 50, 0
20, 5472, Note_on_c, 13, 48, 30
20, 5496, Note_on_c, 13, 48, 0
20, 5496, Note_on_c, 13, 50, 34
20, 5520, Note_on_c, 13, 50, 0
20, 5520, Note_on_c, 13, 48, 29
20, 5544, Note_on_c, 13, 48, 0
20, 5544, Note_on_c, 13, 50, 34
20, 5568, Note_on_c, 13, 50, 0
20, 5568, Note_on_c, 13, 48, 34
20, 5592, Note_on_c, 13, 48, 0
20, 5592, Note_on_c, 13, 50, 31
20, 5616, Note_on_c, 13, 50, 0
20, 5616, Note_on_c, 13, 48, 30
20, 5640, Note_on_c, 13, 48, 0
20, 5640, Note_on_c, 13, 50, 29
20, 5664, Note_on_c, 13, 50, 0
20, 5664, Note_on_c, 13, 48, 32
20, 5688, Note_on_c, 13, 48, 0
20, 5688, Note_on_c, 13, 50, 32
20, 5712, Note_on_c, 13, 50, 0
20, 5712, Note_on_c, 13, 48, 26
20, 5736, Note_on_c, 13, 48, 0
20, 5736, Note_on_c, 13, 50, 32
20, 5760, Note_on_c, 13, 50, 0
20, 5760, Note_on_c, 13, 48, 33
20, 7200, Note_on_c, 13, 48, 0
20, 8352, Note_on_c, 13, 54, 35
20, 10080, Note_on_c, 13, 58, 43
20, 10464, Note_on_c, 13, 54, 0
20, 10464, Note_on_c, 13, 58, 0
20, 10464, Note_on_c, 13, 54, 45
20, 10464, Note_on_c, 13, 57, 47
20, 10656, Note_on_c, 13, 54, 0
20, 10656, Note_on_c, 13, 57, 0
20, 10656, Note_on_c, 13, 54, 57
20, 11040, Note_on_c, 13, 54, 0
20, 11040, Note_on_c, 13, 54, 55
20, 11232, Note_on_c, 13, 54, 0
20, 18144, Note_on_c, 13, 52, 48
20, 18720, Note_on_c, 13, 52, 0
20, 18720, Note_on_c, 13, 59, 45
20, 19296, Note_on_c, 13, 59, 0
20, 19296, Note_on_c, 13, 52, 58
20, 19872, Note_on_c, 13, 52, 0
20, 19872, Note_on_c, 13, 58, 55
20, 20064, Note_on_c, 13, 58, 0
20, 20064, Note_on_c, 13, 59, 64
20, 20256, Note_on_c, 13, 59, 0
20, 20256, Note_on_c, 13, 60, 58
20, 20448, Note_on_c, 13, 60, 0
20, 28512, Note_on_c, 13, 53, 30
20, 28512, Note_on_c, 13, 55, 35
20, 29664, Note_on_c, 13, 53, 0
20, 29664, Note_on_c, 13, 55, 0
20, 29664, Note_on_c, 13, 54, 26
20, 29760, Note_on_c, 13, 54, 0
20, 29856, Note_on_c, 13, 54, 25
20, 29952, Note_on_c, 13, 54, 0
20, 30048, Note_on_c, 13, 54, 34
20, 30144, Note_on_c, 13, 54, 0
20, 30240, Note_on_c, 13, 54, 33
20, 30336, Note_on_c, 13, 54, 0
20, 30432, Note_on_c, 13, 54, 31
20, 30528, Note_on_c, 13, 54, 0
20, 30624, Note_on_c, 13, 54, 27
20, 30720, Note_on_c, 13, 54, 0
20, 40032, Note_on_c, 13, 60, 30
20, 40128, Note_on_c, 13, 60, 0
20, 40128, Note_on_c, 13, 57, 30
20, 40224, Note_on_c, 13, 57, 0
20, 40224, Note_on_c, 13, 58, 31
20, 40416, Note_on_c, 13, 58, 0
20, 40416, Note_on_c, 13, 59, 31
20, 40608, Note_on_c, 13, 59, 0
20, 40608, Note_on_c, 13, 60, 34
20, 40704, Note_on_c, 13, 60, 0
20, 40704, Note_on_c, 13, 59, 25
20, 40800, Note_on_c, 13, 59, 0
20, 40800, Note_on_c, 13, 58, 25
20, 40992, Note_on_c, 13, 58, 0
20, 40992, Note_on_c, 13, 57, 31
20, 41184, Note_on_c, 13, 57, 0
20, 41184, Note_on_c, 13, 60, 63
20, 41280, Note_on_c, 13, 60, 0
20, 41280, Note_on_c, 13, 57, 57
20, 41376, Note_on_c, 13, 57, 0
20, 41376, Note_on_c, 13, 58, 55
20, 41568, Note_on_c, 13, 58, 0
20, 41568, Note_on_c, 13, 61, 58
20, 41760, Note_on_c, 13, 61, 0
20, 41760, Note_on_c, 13, 60, 65
20, 41856, Note_on_c, 13, 60, 0
20, 41856, Note_on_c, 13, 59, 58
20, 41952, Note_on_c, 13, 59, 0
20, 41952, Note_on_c, 13, 58, 64
20, 42144, Note_on_c, 13, 58, 0
20, 42144, Note_on_c, 13, 57, 62
20, 42336, Note_on_c, 13, 57, 0
20, 42336, Note_on_c, 13, 56, 56
20, 42432, Note_on_c, 13, 56, 0
20, 43872, Note_on_c, 13, 60, 43
20, 43968, Note_on_c, 13, 60, 0
20, 44448, Note_on_c, 13, 60, 43
20, 44544, Note_on_c, 13, 60, 0
20, 45024, Note_on_c, 13, 59, 67
20, 45024, Note_on_c, 13, 62, 66
20, 45120, Note_on_c, 13, 59, 0
20, 45120, Note_on_c, 13, 62, 0
20, 53856, Note_on_c, 13, 50, 27
20, 55008, Note_on_c, 13, 50, 0
20, 56160, Note_on_c, 13, 50, 35
20, 57312, Note_on_c, 13, 50, 0
20, 59040, Note_on_c, 13, 68, 95
20, 59136, Note_on_c, 13, 68, 0
20, 59136, Note_on_c, 13, 66, 91
20, 59232, Note_on_c, 13, 66, 0
20, 59232, Note_on_c, 13, 64, 89
20, 59328, Note_on_c, 13, 64, 0
20, 59328, Note_on_c, 13, 62, 95
20, 59424, Note_on_c, 13, 62, 0
20, 59424, Note_on_c, 13, 68, 88
20, 59520, Note_on_c, 13, 68, 0
20, 59520, Note_on_c, 13, 66, 93
20, 59616, Note_on_c, 13, 66, 0
20, 59616, Note_on_c, 13, 56, 94
20, 59637, Note_on_c, 13, 56, 0
20, 59648, Note_on_c, 13, 56, 91
20, 59669, Note_on_c, 13, 56, 0
20, 59680, Note_on_c, 13, 56, 92
20, 59701, Note_on_c, 13, 56, 0
20, 59712, Note_on_c, 13, 54, 84
20, 59733, Note_on_c, 13, 54, 0
20, 59744, Note_on_c, 13, 54, 84
20, 59765, Note_on_c, 13, 54, 0
20, 59776, Note_on_c, 13, 54, 88
20, 59797, Note_on_c, 13, 54, 0
20, 59808, Note_on_c, 13, 52, 85
20, 59829, Note_on_c, 13, 52, 0
20, 59840, Note_on_c, 13, 52, 82
20, 59861, Note_on_c, 13, 52, 0
20, 59872, Note_on_c, 13, 52, 88
20, 59893, Note_on_c, 13, 52, 0
20, 59904, Note_on_c, 13, 50, 79
20, 59925, Note_on_c, 13, 50, 0
20, 59936, Note_on_c, 13, 50, 77
20, 59957, Note_on_c, 13, 50, 0
20, 59968, Note_on_c, 13, 50, 84
20, 59989, Note_on_c, 13, 50, 0
20, 60000, Note_on_c, 13, 56, 82
20, 60021, Note_on_c, 13, 56, 0
20, 60032, Note_on_c, 13, 56, 75
20, 60053, Note_on_c, 13, 56, 0
20, 60064, Note_on_c, 13, 56, 79
20, 60085, Note_on_c, 13, 56, 0
20, 60096, Note_on_c, 13, 54, 82
20, 60117, Note_on_c, 13, 54, 0
20, 60128, Note_on_c, 13, 54, 76
20, 60149, Note_on_c, 13, 54, 0
20, 60160, Note_on_c, 13, 54, 71
20, 60181, Note_on_c, 13, 54, 0
20, 60192, Note_on_c, 13, 52, 71
20, 60213, Note_on_c, 13, 52, 0
20, 60224, Note_on_c, 13, 52, 74
20, 60245, Note_on_c, 13, 52, 0
20, 60256, Note_on_c, 13, 52, 70
20, 60277, Note_on_c, 13, 52, 0
20, 60288, Note_on_c, 13, 50, 71
20, 60309, Note_on_c, 13, 50, 0
20, 60320, Note_on_c, 13, 50, 72
20, 60341, Note_on_c, 13, 50, 0
20, 60352, Note_on_c, 13, 50, 67
20, 60373, Note_on_c, 13, 50, 0
20, 60384, Note_on_c, 13, 56, 71
20, 60405, Note_on_c, 13, 56, 0
20, 60416, Note_on_c, 13, 56, 61
20, 60437, Note_on_c, 13, 56, 0
20, 60448, Note_on_c, 13, 56, 64
20, 60469, Note_on_c, 13, 56, 0
20, 60480, Note_on_c, 13, 54, 64
20, 60501, Note_on_c, 13, 54, 0
20, 60512, Note_on_c, 13, 54, 59
20, 60533, Note_on_c, 13, 54, 0
20, 60544, Note_on_c, 13, 54, 52
20, 60565, Note_on_c, 13, 54, 0
20, 60576, Note_on_c, 13, 52, 56
20, 60597, Note_on_c, 13, 52, 0
20, 60608, Note_on_c, 13, 52, 58
20, 60629, Note_on_c, 13, 52, 0
20, 60640, Note_on_c, 13, 52, 48
20, 60661, Note_on_c, 13, 52, 0
20, 60672, Note_on_c, 13, 50, 53
20, 60693, Note_on_c, 13, 50, 0
20, 60704, Note_on_c, 13, 50, 47
20, 60725, Note_on_c, 13, 50, 0
20, 60736, Note_on_c, 13, 50, 41
20, 60757, Note_on_c, 13, 50, 0
20, 60768, Control_c, 13, 11, 92
20, 60768, Note_on_c, 13, 57, 44
20, 60773, Control_c, 13, 11, 93
20, 60778, Control_c, 13, 11, 94
20, 60784, Control_c, 13, 11, 95
20, 60789, Control_c, 13, 11, 96
20, 60795, Control_c, 13, 11, 97
20, 60800, Control_c, 13, 11, 98
20, 60806, Control_c, 13, 11, 99
20, 60811, Control_c, 13, 11, 100
20, 60817, Control_c, 13, 11, 101
20, 60822, Control_c, 13, 11, 102
20, 60828, Control_c, 13, 11, 103
20, 60833, Control_c, 13, 11, 104
20, 60839, Control_c, 13, 11, 105
20, 60844, Control_c, 13, 11, 106
20, 60850, Control_c, 13, 11, 107
20, 60855, Control_c, 13, 11, 108
20, 60861, Control_c, 13, 11, 109
20, 60866, Control_c, 13, 11, 110
20, 60872, Control_c, 13, 11, 111
20, 60877, Control_c, 13, 11, 112
20, 60883, Control_c, 13, 11, 113
20, 60888, Control_c, 13, 11, 114
20, 60894, Control_c, 13, 11, 115
20, 60899, Control_c, 13, 11, 116
20, 60905, Control_c, 13, 11, 117
20, 60910, Control_c, 13, 11, 118
20, 60916, Control_c, 13, 11, 119
20, 60921, Control_c, 13, 11, 120
20, 60927, Control_c, 13, 11, 121
20, 60932, Control_c, 13, 11, 122
20, 60938, Control_c, 13, 11, 123
20, 60943, Control_c, 13, 11, 124
20, 60949, Control_c, 13, 11, 125
20, 60954, Control_c, 13, 11, 126
20, 60960, Note_on_c, 13, 57, 0
20, 60960, Control_c, 13, 11, 127
20, 60960, Note_on_c, 13, 61, 44
20, 61152, Note_on_c, 13, 61, 0
20, 61152, Note_on_c, 13, 57, 48
20, 61344, Note_on_c, 13, 57, 0
20, 61344, Note_on_c, 13, 61, 42
20, 61536, Note_on_c, 13, 61, 0
20, 61536, Note_on_c, 13, 57, 50
20, 61728, Note_on_c, 13, 57, 0
20, 61728, Note_on_c, 13, 61, 44
20, 61920, Note_on_c, 13, 61, 0
20, 61920, Control_c, 13, 11, 92
20, 61920, Note_on_c, 13, 57, 44
20, 61925, Control_c, 13, 11, 93
20, 61930, Control_c, 13, 11, 94
20, 61936, Control_c, 13, 11, 95
20, 61941, Control_c, 13, 11, 96
20, 61947, Control_c, 13, 11, 97
20, 61952, Control_c, 13, 11, 98
20, 61958, Control_c, 13, 11, 99
20, 61963, Control_c, 13, 11, 100
20, 61969, Control_c, 13, 11, 101
20, 61974, Control_c, 13, 11, 102
20, 61980, Control_c, 13, 11, 103
20, 61985, Control_c, 13, 11, 104
20, 61991, Control_c, 13, 11, 105
20, 61996, Control_c, 13, 11, 106
20, 62002, Control_c, 13, 11, 107
20, 62007, Control_c, 13, 11, 108
20, 62013, Control_c, 13, 11, 109
20, 62018, Control_c, 13, 11, 110
20, 62024, Control_c, 13, 11, 111
20, 62029, Control_c, 13, 11, 112
20, 62035, Control_c, 13, 11, 113
20, 62040, Control_c, 13, 11, 114
20, 62046, Control_c, 13, 11, 115
20, 62051, Control_c, 13, 11, 116
20, 62057, Control_c, 13, 11, 117
20, 62062, Control_c, 13, 11, 118
20, 62068, Control_c, 13, 11, 119
20, 62073, Control_c, 13, 11, 120
20, 62079, Control_c, 13, 11, 121
20, 62084, Control_c, 13, 11, 122
20, 62090, Control_c, 13, 11, 123
20, 62095, Control_c, 13, 11, 124
20, 62101, Control_c, 13, 11, 125
20, 62106, Control_c, 13, 11, 126
20, 62112, Note_on_c, 13, 57, 0
20, 62112, Control_c, 13, 11, 127
20, 62112, Note_on_c, 13, 61, 46
20, 62304, Note_on_c, 13, 61, 0
20, 62304, Note_on_c, 13, 57, 41
20, 62496, Note_on_c, 13, 57, 0
20, 62496, Note_on_c, 13, 61, 44
20, 62688, Note_on_c, 13, 61, 0
20, 62688, Note_on_c, 13, 57, 45
20, 62880, Note_on_c, 13, 57, 0
20, 62880, Note_on_c, 13, 61, 44
20, 63072, Note_on_c, 13, 61, 0
20, 68256, Note_on_c, 13, 55, 50
20, 69984, Note_on_c, 13, 55, 0
20, 72672, Note_on_c, 13, 55, 33
20, 73440, Note_on_c, 13, 55, 0
20, 73440, Program_c, 13, 45
20, 77280, Note_on_c, 13, 55, 41
20, 77376, Note_on_c, 13, 55, 0
20, 77376, Note_on_c, 13, 52, 34
20, 77472, Note_on_c, 13, 52, 0
20, 100512, Note_on_c, 13, 57, 56
20, 100704, Note_on_c, 13, 57, 0
20, 100704, Note_on_c, 13, 63, 64
20, 100992, Note_on_c, 13, 63, 0
20, 100992, Note_on_c, 13, 61, 59
20, 101088, Note_on_c, 13, 61, 0
20, 101088, Note_on_c, 13, 57, 56
20, 101280, Note_on_c, 13, 57, 0
20, 101280, Note_on_c, 13, 56, 57
20, 101322, Note_on_c, 13, 56, 0
20, 101344, Note_on_c, 13, 56, 58
20, 101386, Note_on_c, 13, 56, 0
20, 101408, Note_on_c, 13, 56, 55
20, 101450, Note_on_c, 13, 56, 0
20, 101472, Note_on_c, 13, 52, 64
20, 101514, Note_on_c, 13, 52, 0
20, 101536, Note_on_c, 13, 52, 65
20, 101578, Note_on_c, 13, 52, 0
20, 101600, Note_on_c, 13, 52, 59
20, 101642, Note_on_c, 13, 52, 0
20, 101664, Note_on_c, 13, 54, 57
20, 101856, Note_on_c, 13, 54, 0
20, 101856, Note_on_c, 13, 59, 61
20, 101898, Note_on_c, 13, 59, 0
20, 101920, Note_on_c, 13, 59, 61
20, 101962, Note_on_c, 13, 59, 0
20, 101984, Note_on_c, 13, 59, 55
20, 102026, Note_on_c, 13, 59, 0
20, 102048, Note_on_c, 13, 57, 64
20, 102090, Note_on_c, 13, 57, 0
20, 102112, Note_on_c, 13, 57, 61
20, 102154, Note_on_c, 13, 57, 0
20, 102176, Note_on_c, 13, 57, 56
20, 102432, Note_on_c, 13, 57, 0
20, 102432, Note_on_c, 13, 63, 65
20, 102474, Note_on_c, 13, 63, 0
20, 102496, Note_on_c, 13, 63, 59
20, 102538, Note_on_c, 13, 63, 0
20, 102560, Note_on_c, 13, 63, 63
20, 102602, Note_on_c, 13, 63, 0
20, 102624, Note_on_c, 13, 61, 63
20, 102666, Note_on_c, 13, 61, 0
20, 102688, Note_on_c, 13, 61, 64
20, 102730, Note_on_c, 13, 61, 0
20, 102752, Note_on_c, 13, 61, 63
20, 102794, Note_on_c, 13, 61, 0
20, 102816, Note_on_c, 13, 66, 80
20, 103008, Note_on_c, 13, 66, 0
20, 103008, Note_on_c, 13, 71, 71
20, 103296, Note_on_c, 13, 71, 0
20, 103296, Note_on_c, 13, 68, 77
20, 103392, Note_on_c, 13, 68, 0
20, 103392, Note_on_c, 13, 66, 76
20, 103584, Note_on_c, 13, 66, 0
20, 103584, Note_on_c, 13, 64, 70
20, 103626, Note_on_c, 13, 64, 0
20, 103648, Note_on_c, 13, 64, 70
20, 103690, Note_on_c, 13, 64, 0
20, 103712, Note_on_c, 13, 64, 77
20, 103754, Note_on_c, 13, 64, 0
20, 103776, Note_on_c, 13, 61, 71
20, 103818, Note_on_c, 13, 61, 0
20, 103840, Note_on_c, 13, 61, 71
20, 103882, Note_on_c, 13, 61, 0
20, 103904, Note_on_c, 13, 61, 71
20, 103946, Note_on_c, 13, 61, 0
20, 103968, Note_on_c, 13, 59, 74
20, 104010, Note_on_c, 13, 59, 0
20, 104032, Note_on_c, 13, 59, 80
20, 104074, Note_on_c, 13, 59, 0
20, 104096, Note_on_c, 13, 59, 74
20, 104138, Note_on_c, 13, 59, 0
20, 104160, Note_on_c, 13, 56, 77
20, 104202, Note_on_c, 13, 56, 0
20, 104224, Note_on_c, 13, 56, 79
20, 104266, Note_on_c, 13, 56, 0
20, 104288, Note_on_c, 13, 56, 73
20, 104330, Note_on_c, 13, 56, 0
20, 104352, Note_on_c, 13, 54, 74
20, 104394, Note_on_c, 13, 54, 0
20, 104416, Note_on_c, 13, 54, 80
20, 104458, Note_on_c, 13, 54, 0
20, 104480, Note_on_c, 13, 54, 79
20, 104640, Note_on_c, 13, 54, 0
20, 104640, Note_on_c, 13, 56, 70
20, 104736, Note_on_c, 13, 56, 0
20, 104736, Note_on_c, 13, 59, 78
20, 104832, Note_on_c, 13, 59, 0
20, 104832, Note_on_c, 13, 61, 70
20, 104928, Note_on_c, 13, 61, 0
20, 104928, Note_on_c, 13, 64, 78
20, 105024, Note_on_c, 13, 64, 0
20, 105024, Note_on_c, 13, 66, 78
20, 105120, Note_on_c, 13, 66, 0
20, 105120, Note_on_c, 13, 66, 72
20, 105312, Note_on_c, 13, 66, 0
20, 105312, Note_on_c, 13, 71, 78
20, 105600, Note_on_c, 13, 71, 0
20, 105600, Note_on_c, 13, 68, 70
20, 105696, Note_on_c, 13, 68, 0
20, 105696, Note_on_c, 13, 66, 72
20, 105888, Note_on_c, 13, 66, 0
20, 105888, Note_on_c, 13, 64, 70
20, 105930, Note_on_c, 13, 64, 0
20, 105952, Note_on_c, 13, 64, 76
20, 105994, Note_on_c, 13, 64, 0
20, 106016, Note_on_c, 13, 64, 75
20, 106058, Note_on_c, 13, 64, 0
20, 106080, Note_on_c, 13, 61, 72
20, 106122, Note_on_c, 13, 61, 0
20, 106144, Note_on_c, 13, 61, 75
20, 106186, Note_on_c, 13, 61, 0
20, 106208, Note_on_c, 13, 61, 73
20, 106250, Note_on_c, 13, 61, 0
20, 106272, Note_on_c, 13, 59, 80
20, 106314, Note_on_c, 13, 59, 0
20, 106336, Note_on_c, 13, 59, 76
20, 106378, Note_on_c, 13, 59, 0
20, 106400, Note_on_c, 13, 59, 70
20, 106442, Note_on_c, 13, 59, 0
20, 106464, Note_on_c, 13, 56, 80
20, 106506, Note_on_c, 13, 56, 0
20, 106528, Note_on_c, 13, 56, 77
20, 106570, Note_on_c, 13, 56, 0
20, 106592, Note_on_c, 13, 56, 78
20, 106634, Note_on_c, 13, 56, 0
20, 106656, Note_on_c, 13, 54, 70
20, 106698, Note_on_c, 13, 54, 0
20, 106720, Note_on_c, 13, 54, 79
20, 106762, Note_on_c, 13, 54, 0
20, 106784, Note_on_c, 13, 54, 74
20, 106944, Note_on_c, 13, 54, 0
20, 106944, Note_on_c, 13, 56, 75
20, 107040, Note_on_c, 13, 56, 0
20, 107040, Note_on_c, 13, 59, 70
20, 107136, Note_on_c, 13, 59, 0
20, 107136, Note_on_c, 13, 61, 79
20, 107232, Note_on_c, 13, 61, 0
20, 107232, Note_on_c, 13, 66, 74
20, 107328, Note_on_c, 13, 66, 0
20, 107328, Note_on_c, 13, 68, 79
20, 107424, Note_on_c, 13, 68, 0
20, 107424, Note_on_c, 13, 68, 92
20, 107616, Note_on_c, 13, 68, 0
20, 107616, Note_on_c, 13, 72, 96
20, 107904, Note_on_c, 13, 72, 0
20, 107904, Note_on_c, 13, 68, 94
20, 108000, Note_on_c, 13, 68, 0
20, 108000, Note_on_c, 13, 66, 92
20, 108192, Note_on_c, 13, 66, 0
20, 108192, Note_on_c, 13, 65, 86
20, 108234, Note_on_c, 13, 65, 0
20, 108256, Note_on_c, 13, 65, 93
20, 108298, Note_on_c, 13, 65, 0
20, 108320, Note_on_c, 13, 65, 90
20, 108362, Note_on_c, 13, 65, 0
20, 108384, Note_on_c, 13, 61, 84
20, 108426, Note_on_c, 13, 61, 0
20, 108448, Note_on_c, 13, 61, 86
20, 108490, Note_on_c, 13, 61, 0
20, 108512, Note_on_c, 13, 61, 81
20, 108554, Note_on_c, 13, 61, 0
20, 108576, Note_on_c, 13, 60, 84
20, 108618, Note_on_c, 13, 60, 0
20, 108640, Note_on_c, 13, 60, 85
20, 108682, Note_on_c, 13, 60, 0
20, 108704, Note_on_c, 13, 60, 87
20, 108746, Note_on_c, 13, 60, 0
20, 108768, Note_on_c, 13, 56, 78
20, 108810, Note_on_c, 13, 56, 0
20, 108832, Note_on_c, 13, 56, 76
20, 108874, Note_on_c, 13, 56, 0
20, 108896, Note_on_c, 13, 56, 77
20, 108938, Note_on_c, 13, 56, 0
20, 108960, Note_on_c, 13, 54, 83
20, 109002, Note_on_c, 13, 54, 0
20, 109024, Note_on_c, 13, 54, 77
20, 109066, Note_on_c, 13, 54, 0
20, 109088, Note_on_c, 13, 54, 77
20, 109248, Note_on_c, 13, 54, 0
20, 109248, Note_on_c, 13, 56, 76
20, 109280, Note_on_c, 13, 56, 0
20, 109344, Note_on_c, 13, 60, 73
20, 109440, Note_on_c, 13, 60, 0
20, 109440, Note_on_c, 13, 61, 78
20, 109536, Note_on_c, 13, 61, 0
20, 109536, Note_on_c, 13, 65, 81
20, 109632, Note_on_c, 13, 65, 0
20, 109632, Note_on_c, 13, 66, 88
20, 109728, Note_on_c, 13, 66, 0
20, 109728, Note_on_c, 13, 68, 92
20, 109770, Note_on_c, 13, 68, 0
20, 109792, Note_on_c, 13, 68, 95
20, 109834, Note_on_c, 13, 68, 0
20, 109856, Note_on_c, 13, 68, 87
20, 109898, Note_on_c, 13, 68, 0
20, 109920, Note_on_c, 13, 65, 95
20, 109962, Note_on_c, 13, 65, 0
20, 109984, Note_on_c, 13, 65, 91
20, 110026, Note_on_c, 13, 65, 0
20, 110048, Note_on_c, 13, 65, 88
20, 110090, Note_on_c, 13, 65, 0
20, 110112, Note_on_c, 13, 68, 94
20, 110154, Note_on_c, 13, 68, 0
20, 110176, Note_on_c, 13, 68, 95
20, 110218, Note_on_c, 13, 68, 0
20, 110240, Note_on_c, 13, 68, 97
20, 110400, Note_on_c, 13, 68, 0
20, 110496, Note_on_c, 13, 65, 93
20, 110538, Note_on_c, 13, 65, 0
20, 110560, Note_on_c, 13, 65, 97
20, 110602, Note_on_c, 13, 65, 0
20, 110624, Note_on_c, 13, 65, 91
20, 110666, Note_on_c, 13, 65, 0
20, 110688, Note_on_c, 13, 68, 97
20, 110730, Note_on_c, 13, 68, 0
20, 110752, Note_on_c, 13, 68, 95
20, 110794, Note_on_c, 13, 68, 0
20, 110816, Note_on_c, 13, 68, 88
20, 110858, Note_on_c, 13, 68, 0
20, 110880, Note_on_c, 13, 68, 88
20, 110922, Note_on_c, 13, 68, 0
20, 110944, Note_on_c, 13, 68, 87
20, 110986, Note_on_c, 13, 68, 0
20, 111008, Note_on_c, 13, 68, 87
20, 111050, Note_on_c, 13, 68, 0
20, 111072, Note_on_c, 13, 65, 88
20, 111114, Note_on_c, 13, 65, 0
20, 111136, Note_on_c, 13, 65, 94
20, 111178, Note_on_c, 13, 65, 0
20, 111200, Note_on_c, 13, 65, 97
20, 111242, Note_on_c, 13, 65, 0
20, 111264, Note_on_c, 13, 68, 97
20, 111360, Note_on_c, 13, 68, 0
20, 112032, Note_on_c, 13, 66, 112
20, 112224, Note_on_c, 13, 66, 0
20, 112224, Note_on_c, 13, 72, 112
20, 112512, Note_on_c, 13, 72, 0
20, 112512, Note_on_c, 13, 68, 113
20, 112608, Note_on_c, 13, 68, 0
20, 112608, Note_on_c, 13, 66, 108
20, 112800, Note_on_c, 13, 66, 0
20, 112800, Note_on_c, 13, 65, 111
20, 112842, Note_on_c, 13, 65, 0
20, 112864, Note_on_c, 13, 65, 113
20, 112906, Note_on_c, 13, 65, 0
20, 112928, Note_on_c, 13, 65, 107
20, 112970, Note_on_c, 13, 65, 0
20, 112992, Note_on_c, 13, 61, 107
20, 113034, Note_on_c, 13, 61, 0
20, 113056, Note_on_c, 13, 61, 106
20, 113098, Note_on_c, 13, 61, 0
20, 113120, Note_on_c, 13, 61, 106
20, 113162, Note_on_c, 13, 61, 0
20, 113184, Note_on_c, 13, 60, 108
20, 113226, Note_on_c, 13, 60, 0
20, 113248, Note_on_c, 13, 60, 108
20, 113290, Note_on_c, 13, 60, 0
20, 113312, Note_on_c, 13, 60, 103
20, 113354, Note_on_c, 13, 60, 0
20, 113376, Note_on_c, 13, 56, 107
20, 113418, Note_on_c, 13, 56, 0
20, 113440, Note_on_c, 13, 56, 105
20, 113482, Note_on_c, 13, 56, 0
20, 113504, Note_on_c, 13, 56, 107
20, 113546, Note_on_c, 13, 56, 0
20, 113568, Note_on_c, 13, 54, 108
20, 113610, Note_on_c, 13, 54, 0
20, 113632, Note_on_c, 13, 54, 106
20, 113674, Note_on_c, 13, 54, 0
20, 113696, Note_on_c, 13, 54, 110
20, 113856, Note_on_c, 13, 54, 0
20, 113856, Note_on_c, 13, 56, 105
20, 113952, Note_on_c, 13, 56, 0
20, 113952, Note_on_c, 13, 60, 106
20, 114048, Note_on_c, 13, 60, 0
20, 114048, Note_on_c, 13, 61, 113
20, 114144, Note_on_c, 13, 61, 0
20, 114144, Note_on_c, 13, 65, 111
20, 114240, Note_on_c, 13, 65, 0
20, 114240, Note_on_c, 13, 66, 103
20, 114336, Note_on_c, 13, 66, 0
20, 123552, Note_on_c, 13, 58, 25
20, 123648, Note_on_c, 13, 58, 0
20, 125856, Note_on_c, 13, 50, 65
20, 125888, Note_on_c, 13, 50, 0
20, 125904, Note_on_c, 13, 50, 62
20, 125936, Note_on_c, 13, 50, 0
20, 125952, Note_on_c, 13, 50, 61
20, 125984, Note_on_c, 13, 50, 0
20, 126000, Note_on_c, 13, 50, 58
20, 126032, Note_on_c, 13, 50, 0
20, 126048, Note_on_c, 13, 51, 55
20, 126080, Note_on_c, 13, 51, 0
20, 126096, Note_on_c, 13, 51, 60
20, 126128, Note_on_c, 13, 51, 0
20, 126144, Note_on_c, 13, 51, 65
20, 126176, Note_on_c, 13, 51, 0
20, 126192, Note_on_c, 13, 51, 55
20, 126224, Note_on_c, 13, 51, 0
20, 126240, Note_on_c, 13, 52, 56
20, 126272, Note_on_c, 13, 52, 0
20, 126288, Note_on_c, 13, 52, 64
20, 126320, Note_on_c, 13, 52, 0
20, 126336, Note_on_c, 13, 52, 57
20, 126368, Note_on_c, 13, 52, 0
20, 126384, Note_on_c, 13, 52, 58
20, 126416, Note_on_c, 13, 52, 0
20, 126432, Note_on_c, 13, 53, 63
20, 126464, Note_on_c, 13, 53, 0
20, 126480, Note_on_c, 13, 53, 60
20, 126512, Note_on_c, 13, 53, 0
20, 126528, Note_on_c, 13, 53, 65
20, 126560, Note_on_c, 13, 53, 0
20, 126576, Note_on_c, 13, 53, 56
20, 126608, Note_on_c, 13, 53, 0
20, 126624, Note_on_c, 13, 53, 58
20, 126656, Note_on_c, 13, 53, 0
20, 126672, Note_on_c, 13, 53, 62
20, 126704, Note_on_c, 13, 53, 0
20, 126720, Note_on_c, 13, 53, 64
20, 126752, Note_on_c, 13, 53, 0
20, 126768, Note_on_c, 13, 53, 58
20, 126800, Note_on_c, 13, 53, 0
20, 126816, Note_on_c, 13, 52, 64
20, 126848, Note_on_c, 13, 52, 0
20, 126864, Note_on_c, 13, 52, 62
20, 126896, Note_on_c, 13, 52, 0
20, 126912, Note_on_c, 13, 51, 57
20, 126944, Note_on_c, 13, 51, 0
20, 126960, Note_on_c, 13, 51, 60
20, 126992, Note_on_c, 13, 51, 0
20, 127008, Note_on_c, 13, 50, 55
20, 127040, Note_on_c, 13, 50, 0
20, 127056, Note_on_c, 13, 50, 59
20, 127088, Note_on_c, 13, 50, 0
20, 127104, Note_on_c, 13, 50, 56
20, 127136, Note_on_c, 13, 50, 0
20, 127152, Note_on_c, 13, 50, 61
20, 127184, Note_on_c, 13, 50, 0
20, 127200, Note_on_c, 13, 51, 58
20, 127232, Note_on_c, 13, 51, 0
20, 127248, Note_on_c, 13, 51, 63
20, 127280, Note_on_c, 13, 51, 0
20, 127296, Note_on_c, 13, 51, 61
20, 127328, Note_on_c, 13, 51, 0
20, 127344, Note_on_c, 13, 51, 59
20, 127376, Note_on_c, 13, 51, 0
20, 127392, Note_on_c, 13, 52, 57
20, 127424, Note_on_c, 13, 52, 0
20, 127440, Note_on_c, 13, 52, 64
20, 127472, Note_on_c, 13, 52, 0
20, 127488, Note_on_c, 13, 52, 59
20, 127520, Note_on_c, 13, 52, 0
20, 127536, Note_on_c, 13, 52, 59
20, 127568, Note_on_c, 13, 52, 0
20, 127584, Note_on_c, 13, 53, 58
20, 127616, Note_on_c, 13, 53, 0
20, 127632, Note_on_c, 13, 53, 56
20, 127664, Note_on_c, 13, 53, 0
20, 127680, Note_on_c, 13, 53, 59
20, 127712, Note_on_c, 13, 53, 0
20, 127728, Note_on_c, 13, 53, 59
20, 127760, Note_on_c, 13, 53, 0
20, 127776, Note_on_c, 13, 53, 61
20, 127808, Note_on_c, 13, 53, 0
20, 127824, Note_on_c, 13, 53, 62
20, 127856, Note_on_c, 13, 53, 0
20, 127872, Note_on_c, 13, 53, 65
20, 127904, Note_on_c, 13, 53, 0
20, 127920, Note_on_c, 13, 53, 65
20, 127952, Note_on_c, 13, 53, 0
20, 127968, Note_on_c, 13, 54, 63
20, 128000, Note_on_c, 13, 54, 0
20, 128016, Note_on_c, 13, 54, 62
20, 128048, Note_on_c, 13, 54, 0
20, 128064, Note_on_c, 13, 55, 63
20, 128096, Note_on_c, 13, 55, 0
20, 128112, Note_on_c, 13, 55, 57
20, 128144, Note_on_c, 13, 55, 0
20, 128160, Note_on_c, 13, 56, 59
20, 128192, Note_on_c, 13, 56, 0
20, 128208, Note_on_c, 13, 56, 57
20, 128240, Note_on_c, 13, 56, 0
20, 128256, Note_on_c, 13, 56, 59
20, 128288, Note_on_c, 13, 56, 0
20, 128304, Note_on_c, 13, 56, 63
20, 128336, Note_on_c, 13, 56, 0
20, 128352, Note_on_c, 13, 56, 62
20, 128384, Note_on_c, 13, 56, 0
20, 128400, Note_on_c, 13, 56, 61
20, 128432, Note_on_c, 13, 56, 0
20, 128448, Note_on_c, 13, 56, 60
20, 128480, Note_on_c, 13, 56, 0
20, 128496, Note_on_c, 13, 56, 61
20, 128528, Note_on_c, 13, 56, 0
20, 128544, Note_on_c, 13, 56, 55
20, 128576, Note_on_c, 13, 56, 0
20, 128592, Note_on_c, 13, 56, 56
20, 128624, Note_on_c, 13, 56, 0
20, 128640, Note_on_c, 13, 56, 62
20, 128672, Note_on_c, 13, 56, 0
20, 128688, Note_on_c, 13, 56, 60
20, 128720, Note_on_c, 13, 56, 0
20, 129312, Note_on_c, 13, 53, 32
20, 131616, Note_on_c, 13, 53, 0
20, 131616, Note_on_c, 13, 53, 31
20, 133920, Note_on_c, 13, 53, 0
20, 133920, Note_on_c, 13, 52, 25
20, 135072, Note_on_c, 13, 52, 0
20, 136224, Note_on_c, 13, 52, 25
20, 137376, Note_on_c, 13, 52, 0
20, 137376, End_track
21, 0, Start_track
21, 0, Title_t, "Violoncelli I"
21, 0, MIDI_port, 0
21, 1248, Program_c, 14, 45
21, 1344, Note_on_c, 14, 42, 32
21, 1536, Note_on_c, 14, 42, 0
21, 2496, Note_on_c, 14, 42, 29
21, 2688, Note_on_c, 14, 42, 0
21, 2880, Program_c, 14, 48
21, 3456, Note_on_c, 14, 42, 26
21, 4608, Note_on_c, 14, 42, 0
21, 4608, Control_c, 14, 11, 92
21, 4608, Note_on_c, 14, 50, 62
21, 4618, Control_c, 14, 11, 93
21, 4629, Control_c, 14, 11, 94
21, 4632, Note_on_c, 14, 50, 0
21, 4632, Note_on_c, 14, 49, 56
21, 4640, Control_c, 14, 11, 95
21, 4651, Control_c, 14, 11, 96
21, 4656, Note_on_c, 14, 49, 0
21, 4656, Note_on_c, 14, 50, 64
21, 4662, Control_c, 14, 11, 97
21, 4673, Control_c, 14, 11, 98
21, 4680, Note_on_c, 14, 50, 0
21, 4680, Note_on_c, 14, 49, 55
21, 4684, Control_c, 14, 11, 99
21, 4695, Control_c, 14, 11, 100
21, 4704, Note_on_c, 14, 49, 0
21, 4704, Note_on_c, 14, 50, 61
21, 4706, Control_c, 14, 11, 101
21, 4717, Control_c, 14, 11, 102
21, 4728, Note_on_c, 14, 50, 0
21, 4728, Control_c, 14, 11, 103
21, 4728, Note_on_c, 14, 49, 56
21, 4739, Control_c, 14, 11, 104
21, 4750, Control_c, 14, 11, 105
21, 4752, Note_on_c, 14, 49, 0
21, 4752, Note_on_c, 14, 50, 59
21, 4761, Control_c, 14, 11, 106
21, 4772, Control_c, 14, 11, 107
21, 4776, Note_on_c, 14, 50, 0
21, 4776, Note_on_c, 14, 49, 64
21, 4783, Control_c, 14, 11, 108
21, 4794, Control_c, 14, 11, 109
21, 4800, Note_on_c, 14, 49, 0
21, 4800, Note_on_c, 14, 50, 61
21, 4805, Control_c, 14, 11, 110
21, 4816, Control_c, 14, 11, 111
21, 4824, Note_on_c, 14, 50, 0
21, 4824, Note_on_c, 14, 49, 61
21, 4827, Control_c, 14, 11, 112
21, 4838, Control_c, 14, 11, 113
21, 4848, Note_on_c, 14, 49, 0
21, 4848, Note_on_c, 14, 50, 59
21, 4849, Control_c, 14, 11, 114
21, 4860, Control_c, 14, 11, 115
21, 4871, Control_c, 14, 11, 116
21, 4872, Note_on_c, 14, 50, 0
21, 4872, Note_on_c, 14, 49, 64
21, 4882, Control_c, 14, 11, 117
21, 4893, Control_c, 14, 11, 118
21, 4896, Note_on_c, 14, 49, 0
21, 4896, Note_on_c, 14, 50, 55
21, 4904, Control_c, 14, 11, 119
21, 4915, Control_c, 14, 11, 120
21, 4920, Note_on_c, 14, 50, 0
21, 4920, Note_on_c, 14, 49, 61
21, 4926, Control_c, 14, 11, 121
21, 4937, Control_c, 14, 11, 122
21, 4944, Note_on_c, 14, 49, 0
21, 4944, Note_on_c, 14, 50, 64
21, 4948, Control_c, 14, 11, 123
21, 4959, Control_c, 14, 11, 124
21, 4968, Note_on_c, 14, 50, 0
21, 4968, Note_on_c, 14, 49, 63
21, 4970, Control_c, 14, 11, 125
21, 4981, Control_c, 14, 11, 126
21, 4992, Note_on_c, 14, 49, 0
21, 4992, Control_c, 14, 11, 127
21, 4992, Note_on_c, 14, 48, 61
21, 4997, Control_c, 14, 11, 126
21, 5002, Control_c, 14, 11, 125
21, 5008, Control_c, 14, 11, 124
21, 5013, Control_c, 14, 11, 123
21, 5016, Note_on_c, 14, 48, 0
21, 5016, Note_on_c, 14, 47, 62
21, 5019, Control_c, 14, 11, 122
21, 5024, Control_c, 14, 11, 121
21, 5030, Control_c, 14, 11, 120
21, 5035, Control_c, 14, 11, 119
21, 5040, Note_on_c, 14, 47, 0
21, 5040, Note_on_c, 14, 48, 65
21, 5041, Control_c, 14, 11, 118
21, 5046, Control_c, 14, 11, 117
21, 5052, Control_c, 14, 11, 116
21, 5057, Control_c, 14, 11, 115
21, 5063, Control_c, 14, 11, 114
21, 5064, Note_on_c, 14, 48, 0
21, 5064, Note_on_c, 14, 47, 59
21, 5068, Control_c, 14, 11, 113
21, 5074, Control_c, 14, 11, 112
21, 5079, Control_c, 14, 11, 111
21, 5085, Control_c, 14, 11, 110
21, 5088, Note_on_c, 14, 47, 0
21, 5088, Note_on_c, 14, 48, 56
21, 5090, Control_c, 14, 11, 109
21, 5096, Control_c, 14, 11, 108
21, 5101, Control_c, 14, 11, 107
21, 5107, Control_c, 14, 11, 106
21, 5112, Note_on_c, 14, 48, 0
21, 5112, Control_c, 14, 11, 105
21, 5112, Note_on_c, 14, 47, 58
21, 5118, Control_c, 14, 11, 104
21, 5123, Control_c, 14, 11, 103
21, 5129, Control_c, 14, 11, 102
21, 5134, Control_c, 14, 11, 101
21, 5136, Note_on_c, 14, 47, 0
21, 5136, Note_on_c, 14, 48, 55
21, 5140, Control_c, 14, 11, 100
21, 5145, Control_c, 14, 11, 99
21, 5151, Control_c, 14, 11, 98
21, 5156, Control_c, 14, 11, 97
21, 5160, Note_on_c, 14, 48, 0
21, 5160, Note_on_c, 14, 47, 58
21, 5162, Control_c, 14, 11, 96
21, 5167, Control_c, 14, 11, 95
21, 5173, Control_c, 14, 11, 94
21, 5178, Control_c, 14, 11, 93
21, 5184, Note_on_c, 14, 47, 0
21, 5184, Control_c, 14, 11, 92
21, 5184, Note_on_c, 14, 48, 59
21, 5280, Note_on_c, 14, 48, 0
21, 5376, Control_c, 14, 11, 127
21, 5760, Program_c, 14, 45
21, 5760, Note_on_c, 14, 36, 27
21, 5772, Note_on_c, 14, 43, 26
21, 5784, Note_on_c, 14, 55, 26
21, 5856, Note_on_c, 14, 36, 0
21, 5856, Note_on_c, 14, 43, 0
21, 5856, Note_on_c, 14, 55, 0
21, 6336, Note_on_c, 14, 36, 26
21, 6348, Note_on_c, 14, 43, 26
21, 6360, Note_on_c, 14, 55, 29
21, 6432, Note_on_c, 14, 36, 0
21, 6432, Note_on_c, 14, 43, 0
21, 6432, Note_on_c, 14, 55, 0
21, 7200, Note_on_c, 14, 36, 34
21, 7212, Note_on_c, 14, 43, 28
21, 7224, Note_on_c, 14, 55, 29
21, 7296, Note_on_c, 14, 36, 0
21, 7296, Note_on_c, 14, 43, 0
21, 7296, Note_on_c, 14, 55, 0
21, 7392, Note_on_c, 14, 36, 26
21, 7404, Note_on_c, 14, 43, 28
21, 7416, Note_on_c, 14, 55, 30
21, 7488, Note_on_c, 14, 36, 0
21, 7488, Note_on_c, 14, 43, 0
21, 7488, Note_on_c, 14, 55, 0
21, 7584, Note_on_c, 14, 36, 34
21, 7596, Note_on_c, 14, 43, 35
21, 7608, Note_on_c, 14, 55, 33
21, 7680, Note_on_c, 14, 36, 0
21, 7680, Note_on_c, 14, 43, 0
21, 7680, Note_on_c, 14, 55, 0
21, 7776, Note_on_c, 14, 36, 32
21, 7788, Note_on_c, 14, 43, 27
21, 7800, Note_on_c, 14, 55, 30
21, 7872, Note_on_c, 14, 36, 0
21, 7872, Note_on_c, 14, 43, 0
21, 7872, Note_on_c, 14, 55, 0
21, 7968, Note_on_c, 14, 36, 26
21, 7980, Note_on_c, 14, 43, 27
21, 7992, Note_on_c, 14, 55, 32
21, 8064, Note_on_c, 14, 36, 0
21, 8064, Note_on_c, 14, 43, 0
21, 8064, Note_on_c, 14, 55, 0
21, 8160, Note_on_c, 14, 36, 28
21, 8172, Note_on_c, 14, 43, 31
21, 8184, Note_on_c, 14, 55, 31
21, 8256, Note_on_c, 14, 36, 0
21, 8256, Note_on_c, 14, 43, 0
21, 8256, Note_on_c, 14, 55, 0
21, 8640, Program_c, 14, 44
21, 8640, Note_on_c, 14, 51, 32
21, 8928, Note_on_c, 14, 51, 0
21, 9216, Note_on_c, 14, 51, 25
21, 9504, Note_on_c, 14, 51, 0
21, 10080, Program_c, 14, 45
21, 10368, Note_on_c, 14, 44, 29
21, 10512, Note_on_c, 14, 44, 0
21, 10512, Note_on_c, 14, 51, 40
21, 10656, Note_on_c, 14, 51, 0
21, 10656, Program_c, 14, 44
21, 10656, Control_c, 14, 11, 92
21, 10656, Note_on_c, 14, 65, 63
21, 10672, Control_c, 14, 11, 93
21, 10688, Control_c, 14, 11, 94
21, 10705, Control_c, 14, 11, 95
21, 10721, Control_c, 14, 11, 96
21, 10738, Control_c, 14, 11, 97
21, 10752, Note_on_c, 14, 65, 0
21, 10752, Note_on_c, 14, 64, 65
21, 10754, Control_c, 14, 11, 98
21, 10771, Control_c, 14, 11, 99
21, 10787, Control_c, 14, 11, 100
21, 10804, Control_c, 14, 11, 101
21, 10820, Control_c, 14, 11, 102
21, 10837, Control_c, 14, 11, 103
21, 10848, Note_on_c, 14, 64, 0
21, 10848, Note_on_c, 14, 63, 65
21, 10853, Control_c, 14, 11, 104
21, 10869, Control_c, 14, 11, 105
21, 10886, Control_c, 14, 11, 106
21, 10902, Control_c, 14, 11, 107
21, 10919, Control_c, 14, 11, 108
21, 10935, Control_c, 14, 11, 109
21, 10944, Note_on_c, 14, 63, 0
21, 10944, Note_on_c, 14, 62, 59
21, 10952, Control_c, 14, 11, 110
21, 10968, Control_c, 14, 11, 111
21, 10985, Control_c, 14, 11, 112
21, 11001, Control_c, 14, 11, 113
21, 11018, Control_c, 14, 11, 114
21, 11034, Control_c, 14, 11, 115
21, 11040, Note_on_c, 14, 62, 0
21, 11040, Note_on_c, 14, 61, 60
21, 11050, Control_c, 14, 11, 116
21, 11067, Control_c, 14, 11, 117
21, 11083, Control_c, 14, 11, 118
21, 11100, Control_c, 14, 11, 119
21, 11116, Control_c, 14, 11, 120
21, 11133, Control_c, 14, 11, 121
21, 11136, Note_on_c, 14, 61, 0
21, 11136, Note_on_c, 14, 60, 62
21, 11149, Control_c, 14, 11, 122
21, 11166, Control_c, 14, 11, 123
21, 11182, Control_c, 14, 11, 124
21, 11199, Control_c, 14, 11, 125
21, 11215, Control_c, 14, 11, 126
21, 11232, Note_on_c, 14, 60, 0
21, 11232, Control_c, 14, 11, 127
21, 11232, Program_c, 14, 45
21, 11712, Note_on_c, 14, 61, 93
21, 11808, Note_on_c, 14, 61, 0
21, 12096, Program_c, 14, 48
21, 12288, Note_on_c, 14, 58, 87
21, 12312, Note_on_c, 14, 58, 0
21, 12312, Note_on_c, 14, 60, 91
21, 12336, Note_on_c, 14, 60, 0
21, 12336, Note_on_c, 14, 58, 88
21, 12360, Note_on_c, 14, 58, 0
21, 12360, Note_on_c, 14, 60, 93
21, 12384, Note_on_c, 14, 60, 0
21, 12384, Note_on_c, 14, 58, 96
21, 12408, Note_on_c, 14, 58, 0
21, 12408, Note_on_c, 14, 60, 90
21, 12432, Note_on_c, 14, 60, 0
21, 12432, Note_on_c, 14, 58, 93
21, 12456, Note_on_c, 14, 58, 0
21, 12456, Note_on_c, 14, 60, 95
21, 12480, Note_on_c, 14, 60, 0
21, 12480, Note_on_c, 14, 54, 96
21, 12504, Note_on_c, 14, 54, 0
21, 12504, Note_on_c, 14, 56, 92
21, 12528, Note_on_c, 14, 56, 0
21, 12528, Note_on_c, 14, 54, 92
21, 12552, Note_on_c, 14, 54, 0
21, 12552, Note_on_c, 14, 56, 89
21, 12576, Note_on_c, 14, 56, 0
21, 12576, Note_on_c, 14, 54, 93
21, 12600, Note_on_c, 14, 54, 0
21, 12600, Note_on_c, 14, 56, 88
21, 12624, Note_on_c, 14, 56, 0
21, 12624, Note_on_c, 14, 54, 83
21, 12648, Note_on_c, 14, 54, 0
21, 12648, Note_on_c, 14, 56, 86
21, 12672, Note_on_c, 14, 56, 0
21, 12672, Note_on_c, 14, 46, 82
21, 12696, Note_on_c, 14, 46, 0
21, 12696, Note_on_c, 14, 48, 83
21, 12720, Note_on_c, 14, 48, 0
21, 12720, Note_on_c, 14, 46, 78
21, 12744, Note_on_c, 14, 46, 0
21, 12744, Note_on_c, 14, 48, 78
21, 12768, Note_on_c, 14, 48, 0
21, 12768, Note_on_c, 14, 46, 84
21, 12792, Note_on_c, 14, 46, 0
21, 12792, Note_on_c, 14, 48, 82
21, 12816, Note_on_c, 14, 48, 0
21, 12816, Note_on_c, 14, 46, 73
21, 12840, Note_on_c, 14, 46, 0
21, 12840, Note_on_c, 14, 48, 77
21, 12864, Note_on_c, 14, 48, 0
21, 12864, Note_on_c, 14, 46, 72
21, 12888, Note_on_c, 14, 46, 0
21, 12888, Note_on_c, 14, 48, 76
21, 12912, Note_on_c, 14, 48, 0
21, 12912, Note_on_c, 14, 46, 78
21, 12936, Note_on_c, 14, 46, 0
21, 12936, Note_on_c, 14, 48, 71
21, 12960, Note_on_c, 14, 48, 0
21, 12960, Note_on_c, 14, 44, 69
21, 12984, Note_on_c, 14, 44, 0
21, 12984, Note_on_c, 14, 46, 76
21, 13008, Note_on_c, 14, 46, 0
21, 13008, Note_on_c, 14, 44, 65
21, 13032, Note_on_c, 14, 44, 0
21, 13032, Note_on_c, 14, 46, 72
21, 13056, Note_on_c, 14, 46, 0
21, 13056, Note_on_c, 14, 44, 73
21, 13080, Note_on_c, 14, 44, 0
21, 13080, Note_on_c, 14, 46, 70
21, 13104, Note_on_c, 14, 46, 0
21, 13104, Note_on_c, 14, 44, 68
21, 13128, Note_on_c, 14, 44, 0
21, 13128, Note_on_c, 14, 46, 64
21, 13152, Note_on_c, 14, 46, 0
21, 13152, Note_on_c, 14, 44, 68
21, 13176, Note_on_c, 14, 44, 0
21, 13176, Note_on_c, 14, 46, 68
21, 13200, Note_on_c, 14, 46, 0
21, 13200, Note_on_c, 14, 44, 63
21, 13224, Note_on_c, 14, 44, 0
21, 13224, Note_on_c, 14, 46, 63
21, 13248, Note_on_c, 14, 46, 0
21, 13248, Note_on_c, 14, 42, 62
21, 13272, Note_on_c, 14, 42, 0
21, 13272, Note_on_c, 14, 44, 61
21, 13296, Note_on_c, 14, 44, 0
21, 13296, Note_on_c, 14, 42, 60
21, 13320, Note_on_c, 14, 42, 0
21, 13320, Note_on_c, 14, 44, 58
21, 13344, Note_on_c, 14, 44, 0
21, 13344, Note_on_c, 14, 42, 55
21, 13368, Note_on_c, 14, 42, 0
21, 13368, Note_on_c, 14, 44, 54
21, 13392, Note_on_c, 14, 44, 0
21, 13392, Note_on_c, 14, 42, 56
21, 13416, Note_on_c, 14, 42, 0
21, 13416, Note_on_c, 14, 44, 53
21, 13440, Note_on_c, 14, 44, 0
21, 13440, Note_on_c, 14, 42, 52
21, 13464, Note_on_c, 14, 42, 0
21, 13464, Note_on_c, 14, 44, 47
21, 13488, Note_on_c, 14, 44, 0
21, 13488, Note_on_c, 14, 42, 53
21, 13512, Note_on_c, 14, 42, 0
21, 13512, Note_on_c, 14, 44, 49
21, 13536, Note_on_c, 14, 44, 0
21, 13536, Control_c, 14, 11, 92
21, 13536, Note_on_c, 14, 40, 49
21, 14688, Note_on_c, 14, 40, 0
21, 14688, Program_c, 14, 44
21, 14688, Note_on_c, 14, 40, 49
21, 14784, Note_on_c, 14, 40, 0
21, 14784, Note_on_c, 14, 47, 44
21, 14880, Note_on_c, 14, 47, 0
21, 14880, Note_on_c, 14, 56, 43
21, 14976, Note_on_c, 14, 56, 0
21, 14976, Note_on_c, 14, 47, 50
21, 15072, Note_on_c, 14, 47, 0
21, 15072, Note_on_c, 14, 40, 49
21, 15168, Note_on_c, 14, 40, 0
21, 15168, Note_on_c, 14, 47, 47
21, 15264, Note_on_c, 14, 47, 0
21, 15840, Note_on_c, 14, 40, 40
21, 16992, Note_on_c, 14, 40, 0
21, 16992, Program_c, 14, 44
21, 16992, Note_on_c, 14, 40, 45
21, 17088, Note_on_c, 14, 40, 0
21, 17088, Note_on_c, 14, 47, 45
21, 17184, Note_on_c, 14, 47, 0
21, 17184, Note_on_c, 14, 56, 49
21, 17280, Note_on_c, 14, 56, 0
21, 17280, Note_on_c, 14, 47, 47
21, 17376, Note_on_c, 14, 47, 0
21, 17376, Note_on_c, 14, 40, 43
21, 17472, Note_on_c, 14, 40, 0
21, 17472, Note_on_c, 14, 47, 46
21, 17568, Note_on_c, 14, 47, 0
21, 18144, Program_c, 14, 45
21, 18144, Note_on_c, 14, 40, 41
21, 18432, Note_on_c, 14, 40, 0
21, 18432, Note_on_c, 14, 47, 49
21, 18720, Note_on_c, 14, 47, 0
21, 18720, Note_on_c, 14, 49, 59
21, 19008, Note_on_c, 14, 49, 0
21, 19008, Note_on_c, 14, 56, 49
21, 19296, Note_on_c, 14, 56, 0
21, 19296, Note_on_c, 14, 40, 45
21, 19584, Note_on_c, 14, 40, 0
21, 19584, Note_on_c, 14, 47, 42
21, 19872, Note_on_c, 14, 47, 0
21, 19872, Note_on_c, 14, 49, 55
21, 20160, Note_on_c, 14, 49, 0
21, 20160, Note_on_c, 14, 56, 75
21, 20448, Note_on_c, 14, 56, 0
21, 20448, Program_c, 14, 48
21, 20448, Note_on_c, 14, 47, 49
21, 21600, Note_on_c, 14, 47, 0
21, 21600, Note_on_c, 14, 47, 41
21, 22176, Note_on_c, 14, 47, 0
21, 22176, Note_on_c, 14, 48, 46
21, 22272, Note_on_c, 14, 48, 0
21, 22272, Note_on_c, 14, 49, 53
21, 22368, Note_on_c, 14, 49, 0
21, 22368, Note_on_c, 14, 50, 64
21, 22560, Note_on_c, 14, 50, 0
21, 22560, Note_on_c, 14, 53, 78
21, 22752, Note_on_c, 14, 53, 0
21, 22752, Note_on_c, 14, 47, 47
21, 23904, Note_on_c, 14, 47, 0
21, 23904, Control_c, 14, 11, 92
21, 23904, Note_on_c, 14, 47, 78
21, 23936, Control_c, 14, 11, 93
21, 23969, Control_c, 14, 11, 94
21, 24002, Control_c, 14, 11, 95
21, 24035, Control_c, 14, 11, 96
21, 24068, Control_c, 14, 11, 97
21, 24101, Control_c, 14, 11, 98
21, 24134, Control_c, 14, 11, 99
21, 24167, Control_c, 14, 11, 100
21, 24200, Control_c, 14, 11, 101
21, 24233, Control_c, 14, 11, 102
21, 24266, Control_c, 14, 11, 103
21, 24298, Control_c, 14, 11, 104
21, 24331, Control_c, 14, 11, 105
21, 24364, Control_c, 14, 11, 106
21, 24397, Control_c, 14, 11, 107
21, 24430, Control_c, 14, 11, 108
21, 24463, Control_c, 14, 11, 109
21, 24480, Note_on_c, 14, 47, 0
21, 24480, Note_on_c, 14, 48, 79
21, 24496, Control_c, 14, 11, 110
21, 24529, Control_c, 14, 11, 111
21, 24562, Control_c, 14, 11, 112
21, 24576, Note_on_c, 14, 48, 0
21, 24576, Note_on_c, 14, 49, 70
21, 24595, Control_c, 14, 11, 113
21, 24628, Control_c, 14, 11, 114
21, 24661, Control_c, 14, 11, 115
21, 24672, Note_on_c, 14, 49, 0
21, 24672, Note_on_c, 14, 50, 75
21, 24693, Control_c, 14, 11, 116
21, 24726, Control_c, 14, 11, 117
21, 24759, Control_c, 14, 11, 118
21, 24792, Control_c, 14, 11, 119
21, 24825, Control_c, 14, 11, 120
21, 24858, Control_c, 14, 11, 121
21, 24864, Note_on_c, 14, 50, 0
21, 24864, Note_on_c, 14, 54, 80
21, 24891, Control_c, 14, 11, 122
21, 24924, Control_c, 14, 11, 123
21, 24957, Control_c, 14, 11, 124
21, 24990, Control_c, 14, 11, 125
21, 25023, Control_c, 14, 11, 126
21, 25056, Note_on_c, 14, 54, 0
21, 25056, Control_c, 14, 11, 127
21, 25056, Control_c, 14, 11, 92
21, 25056, Note_on_c, 14, 47, 94
21, 25088, Control_c, 14, 11, 93
21, 25121, Control_c, 14, 11, 94
21, 25154, Control_c, 14, 11, 95
21, 25187, Control_c, 14, 11, 96
21, 25220, Control_c, 14, 11, 97
21, 25253, Control_c, 14, 11, 98
21, 25286, Control_c, 14, 11, 99
21, 25319, Control_c, 14, 11, 100
21, 25352, Control_c, 14, 11, 101
21, 25385, Control_c, 14, 11, 102
21, 25418, Control_c, 14, 11, 103
21, 25450, Control_c, 14, 11, 104
21, 25483, Control_c, 14, 11, 105
21, 25516, Control_c, 14, 11, 106
21, 25549, Control_c, 14, 11, 107
21, 25582, Control_c, 14, 11, 108
21, 25615, Control_c, 14, 11, 109
21, 25648, Control_c, 14, 11, 110
21, 25681, Control_c, 14, 11, 111
21, 25714, Control_c, 14, 11, 112
21, 25747, Control_c, 14, 11, 113
21, 25780, Control_c, 14, 11, 114
21, 25813, Control_c, 14, 11, 115
21, 25845, Control_c, 14, 11, 116
21, 25878, Control_c, 14, 11, 117
21, 25911, Control_c, 14, 11, 118
21, 25944, Control_c, 14, 11, 119
21, 25977, Control_c, 14, 11, 120
21, 26010, Control_c, 14, 11, 121
21, 26016, Note_on_c, 14, 47, 0
21, 26016, Note_on_c, 14, 50, 93
21, 26043, Control_c, 14, 11, 122
21, 26076, Control_c, 14, 11, 123
21, 26109, Control_c, 14, 11, 124
21, 26142, Control_c, 14, 11, 125
21, 26175, Control_c, 14, 11, 126
21, 26208, Note_on_c, 14, 50, 0
21, 26208, Control_c, 14, 11, 127
21, 26208, Note_on_c, 14, 51, 57
21, 26496, Note_on_c, 14, 51, 0
21, 26496, Note_on_c, 14, 50, 55
21, 26592, Note_on_c, 14, 50, 0
21, 26592, Note_on_c, 14, 49, 54
21, 26688, Note_on_c, 14, 49, 0
21, 26688, Note_on_c, 14, 50, 59
21, 26784, Note_on_c, 14, 50, 0
21, 26784, Note_on_c, 14, 51, 62
21, 27072, Note_on_c, 14, 51, 0
21, 27072, Note_on_c, 14, 50, 55
21, 27168, Note_on_c, 14, 50, 0
21, 27168, Note_on_c, 14, 49, 54
21, 27264, Note_on_c, 14, 49, 0
21, 27264, Note_on_c, 14, 48, 47
21, 27360, Note_on_c, 14, 48, 0
21, 27360, Note_on_c, 14, 46, 46
21, 28512, Note_on_c, 14, 46, 0
21, 28512, Note_on_c, 14, 46, 33
21, 29664, Note_on_c, 14, 46, 0
21, 29664, Note_on_c, 14, 46, 31
21, 30816, Note_on_c, 14, 46, 0
21, 30816, Note_on_c, 14, 46, 35
21, 31776, Note_on_c, 14, 46, 0
21, 31776, Note_on_c, 14, 51, 27
21, 31968, Note_on_c, 14, 51, 0
21, 31968, Note_on_c, 14, 50, 75
21, 32160, Note_on_c, 14, 50, 0
21, 32160, Note_on_c, 14, 49, 72
21, 32448, Note_on_c, 14, 49, 0
21, 32448, Note_on_c, 14, 51, 75
21, 32544, Note_on_c, 14, 51, 0
21, 32544, Note_on_c, 14, 51, 73
21, 32688, Note_on_c, 14, 51, 0
21, 32688, Note_on_c, 14, 52, 74
21, 32712, Note_on_c, 14, 52, 0
21, 32712, Note_on_c, 14, 53, 74
21, 32736, Note_on_c, 14, 53, 0
21, 32736, Note_on_c, 14, 54, 81
21, 32880, Note_on_c, 14, 54, 0
21, 32880, Note_on_c, 14, 55, 88
21, 32904, Note_on_c, 14, 55, 0
21, 32904, Note_on_c, 14, 56, 79
21, 32928, Note_on_c, 14, 56, 0
21, 32928, Note_on_c, 14, 57, 85
21, 32976, Note_on_c, 14, 57, 0
21, 32976, Note_on_c, 14, 58, 87
21, 33024, Note_on_c, 14, 58, 0
21, 33024, Note_on_c, 14, 59, 84
21, 33072, Note_on_c, 14, 59, 0
21, 33072, Note_on_c, 14, 60, 88
21, 33120, Note_on_c, 14, 60, 0
21, 33120, Note_on_c, 14, 61, 96
21, 33408, Note_on_c, 14, 61, 0
21, 33408, Note_on_c, 14, 58, 91
21, 33440, Note_on_c, 14, 58, 0
21, 33440, Note_on_c, 14, 61, 89
21, 33472, Note_on_c, 14, 61, 0
21, 33472, Note_on_c, 14, 58, 88
21, 33504, Note_on_c, 14, 58, 0
21, 33504, Note_on_c, 14, 54, 97
21, 33600, Note_on_c, 14, 54, 0
21, 33600, Note_on_c, 14, 51, 87
21, 33632, Note_on_c, 14, 51, 0
21, 33632, Note_on_c, 14, 54, 96
21, 33664, Note_on_c, 14, 54, 0
21, 33664, Note_on_c, 14, 58, 94
21, 33696, Note_on_c, 14, 58, 0
21, 33696, Note_on_c, 14, 61, 96
21, 33728, Note_on_c, 14, 61, 0
21, 33792, Note_on_c, 14, 58, 95
21, 33824, Note_on_c, 14, 58, 0
21, 33888, Note_on_c, 14, 61, 92
21, 33920, Note_on_c, 14, 61, 0
21, 33984, Note_on_c, 14, 58, 97
21, 34016, Note_on_c, 14, 58, 0
21, 34080, Note_on_c, 14, 61, 103
21, 34112, Note_on_c, 14, 61, 0
21, 34176, Note_on_c, 14, 63, 101
21, 34208, Note_on_c, 14, 63, 0
21, 34272, Program_c, 14, 45
21, 34272, Note_on_c, 14, 41, 109
21, 34272, Note_on_c, 14, 48, 112
21, 34272, Note_on_c, 14, 57, 109
21, 34272, Note_on_c, 14, 65, 104
21, 34368, Note_on_c, 14, 41, 0
21, 34368, Note_on_c, 14, 48, 0
21, 34368, Note_on_c, 14, 57, 0
21, 34368, Note_on_c, 14, 65, 0
21, 34560, Note_on_c, 14, 60, 110
21, 34656, Note_on_c, 14, 60, 0
21, 34848, Note_on_c, 14, 41, 110
21, 34848, Note_on_c, 14, 48, 103
21, 34848, Note_on_c, 14, 57, 111
21, 34848, Note_on_c, 14, 65, 111
21, 34944, Note_on_c, 14, 41, 0
21, 34944, Note_on_c, 14, 48, 0
21, 34944, Note_on_c, 14, 57, 0
21, 34944, Note_on_c, 14, 65, 0
21, 35136, Note_on_c, 14, 60, 103
21, 35232, Note_on_c, 14, 60, 0
21, 35616, Note_on_c, 14, 60, 94
21, 35712, Note_on_c, 14, 60, 0
21, 35808, Note_on_c, 14, 66, 87
21, 35904, Note_on_c, 14, 66, 0
21, 36192, Note_on_c, 14, 60, 88
21, 36288, Note_on_c, 14, 60, 0
21, 36384, Note_on_c, 14, 66, 73
21, 36480, Note_on_c, 14, 66, 0
21, 36576, Note_on_c, 14, 72, 46
21, 36672, Note_on_c, 14, 72, 0
21, 37152, Program_c, 14, 48
21, 37536, Note_on_c, 14, 48, 35
21, 37560, Note_on_c, 14, 48, 0
21, 37560, Note_on_c, 14, 46, 35
21, 37584, Note_on_c, 14, 46, 0
21, 37584, Note_on_c, 14, 44, 27
21, 37608, Note_on_c, 14, 44, 0
21, 37608, Note_on_c, 14, 42, 34
21, 37632, Note_on_c, 14, 42, 0
21, 37632, Note_on_c, 14, 48, 32
21, 37656, Note_on_c, 14, 48, 0
21, 37656, Note_on_c, 14, 46, 33
21, 37680, Note_on_c, 14, 46, 0
21, 37680, Note_on_c, 14, 44, 23
21, 37704, Note_on_c, 14, 44, 0
21, 37704, Note_on_c, 14, 42, 28
21, 37728, Note_on_c, 14, 42, 0
21, 38304, Program_c, 14, 45
21, 38688, Note_on_c, 14, 51, 22
21, 38784, Note_on_c, 14, 51, 0
21, 38880, Note_on_c, 14, 44, 26
21, 38976, Note_on_c, 14, 44, 0
21, 39456, Note_on_c, 14, 44, 27
21, 39552, Note_on_c, 14, 44, 0
21, 41184, Control_c, 14, 11, 127
21, 42336, Program_c, 14, 48
21, 42336, Note_on_c, 14, 50, 46
21, 42912, Note_on_c, 14, 50, 0
21, 42912, Note_on_c, 14, 47, 42
21, 43200, Note_on_c, 14, 47, 0
21, 43488, Control_c, 14, 11, 92
21, 43488, Note_on_c, 14, 40, 57
21, 43584, Note_on_c, 14, 40, 0
21, 43584, Note_on_c, 14, 46, 57
21, 43680, Control_c, 14, 11, 92
21, 43685, Control_c, 14, 11, 93
21, 43690, Control_c, 14, 11, 94
21, 43696, Control_c, 14, 11, 95
21, 43701, Control_c, 14, 11, 96
21, 43707, Control_c, 14, 11, 97
21, 43712, Control_c, 14, 11, 98
21, 43718, Control_c, 14, 11, 99
21, 43723, Control_c, 14, 11, 100
21, 43729, Control_c, 14, 11, 101
21, 43734, Control_c, 14, 11, 102
21, 43740, Control_c, 14, 11, 103
21, 43745, Control_c, 14, 11, 104
21, 43751, Control_c, 14, 11, 105
21, 43756, Control_c, 14, 11, 106
21, 43762, Control_c, 14, 11, 107
21, 43767, Control_c, 14, 11, 108
21, 43773, Control_c, 14, 11, 109
21, 43778, Control_c, 14, 11, 110
21, 43784, Control_c, 14, 11, 111
21, 43789, Control_c, 14, 11, 112
21, 43795, Control_c, 14, 11, 113
21, 43800, Control_c, 14, 11, 114
21, 43806, Control_c, 14, 11, 115
21, 43811, Control_c, 14, 11, 116
21, 43817, Control_c, 14, 11, 117
21, 43822, Control_c, 14, 11, 118
21, 43828, Control_c, 14, 11, 119
21, 43833, Control_c, 14, 11, 120
21, 43839, Control_c, 14, 11, 121
21, 43844, Control_c, 14, 11, 122
21, 43850, Control_c, 14, 11, 123
21, 43855, Control_c, 14, 11, 124
21, 43861, Control_c, 14, 11, 125
21, 43866, Control_c, 14, 11, 126
21, 43872, Note_on_c, 14, 46, 0
21, 43872, Control_c, 14, 11, 127
21, 43872, Note_on_c, 14, 49, 60
21, 43920, Note_on_c, 14, 49, 0
21, 44064, Control_c, 14, 11, 92
21, 44064, Note_on_c, 14, 40, 62
21, 44160, Note_on_c, 14, 40, 0
21, 44160, Note_on_c, 14, 46, 56
21, 44256, Control_c, 14, 11, 92
21, 44261, Control_c, 14, 11, 93
21, 44266, Control_c, 14, 11, 94
21, 44272, Control_c, 14, 11, 95
21, 44277, Control_c, 14, 11, 96
21, 44283, Control_c, 14, 11, 97
21, 44288, Control_c, 14, 11, 98
21, 44294, Control_c, 14, 11, 99
21, 44299, Control_c, 14, 11, 100
21, 44305, Control_c, 14, 11, 101
21, 44310, Control_c, 14, 11, 102
21, 44316, Control_c, 14, 11, 103
21, 44321, Control_c, 14, 11, 104
21, 44327, Control_c, 14, 11, 105
21, 44332, Control_c, 14, 11, 106
21, 44338, Control_c, 14, 11, 107
21, 44343, Control_c, 14, 11, 108
21, 44349, Control_c, 14, 11, 109
21, 44354, Control_c, 14, 11, 110
21, 44360, Control_c, 14, 11, 111
21, 44365, Control_c, 14, 11, 112
21, 44371, Control_c, 14, 11, 113
21, 44376, Control_c, 14, 11, 114
21, 44382, Control_c, 14, 11, 115
21, 44387, Control_c, 14, 11, 116
21, 44393, Control_c, 14, 11, 117
21, 44398, Control_c, 14, 11, 118
21, 44404, Control_c, 14, 11, 119
21, 44409, Control_c, 14, 11, 120
21, 44415, Control_c, 14, 11, 121
21, 44420, Control_c, 14, 11, 122
21, 44426, Control_c, 14, 11, 123
21, 44431, Control_c, 14, 11, 124
21, 44437, Control_c, 14, 11, 125
21, 44442, Control_c, 14, 11, 126
21, 44448, Note_on_c, 14, 46, 0
21, 44448, Control_c, 14, 11, 127
21, 44448, Note_on_c, 14, 49, 58
21, 44496, Note_on_c, 14, 49, 0
21, 44640, Program_c, 14, 45
21, 44640, Note_on_c, 14, 41, 40
21, 44736, Note_on_c, 14, 41, 0
21, 44736, Note_on_c, 14, 44, 43
21, 44832, Note_on_c, 14, 44, 0
21, 44832, Note_on_c, 14, 46, 54
21, 44928, Note_on_c, 14, 46, 0
21, 44928, Note_on_c, 14, 50, 68
21, 45024, Note_on_c, 14, 50, 0
21, 45024, Note_on_c, 14, 53, 73
21, 45120, Note_on_c, 14, 53, 0
21, 45216, Note_on_c, 14, 53, 80
21, 45312, Note_on_c, 14, 53, 0
21, 45312, Note_on_c, 14, 56, 79
21, 45408, Note_on_c, 14, 56, 0
21, 45408, Note_on_c, 14, 58, 83
21, 45504, Note_on_c, 14, 58, 0
21, 45504, Note_on_c, 14, 62, 82
21, 45600, Note_on_c, 14, 62, 0
21, 45600, Note_on_c, 14, 65, 89
21, 45696, Note_on_c, 14, 65, 0
21, 45696, Note_on_c, 14, 68, 94
21, 45792, Note_on_c, 14, 68, 0
21, 45792, Note_on_c, 14, 69, 28
21, 45888, Note_on_c, 14, 69, 0
21, 46368, Note_on_c, 14, 65, 25
21, 46464, Note_on_c, 14, 65, 0
21, 46464, Note_on_c, 14, 66, 41
21, 46560, Note_on_c, 14, 66, 0
21, 46752, Note_on_c, 14, 67, 67
21, 46848, Note_on_c, 14, 67, 0
21, 46944, Note_on_c, 14, 65, 32
21, 47040, Note_on_c, 14, 65, 0
21, 47040, Note_on_c, 14, 66, 32
21, 47136, Note_on_c, 14, 66, 0
21, 47328, Note_on_c, 14, 67, 67
21, 47424, Note_on_c, 14, 67, 0
21, 47520, Program_c, 14, 44
21, 47520, Control_c, 14, 11, 127
21, 47520, Note_on_c, 14, 52, 33
21, 47712, Note_on_c, 14, 52, 0
21, 47712, Note_on_c, 14, 55, 28
21, 47904, Note_on_c, 14, 55, 0
21, 47904, Note_on_c, 14, 57, 29
21, 48096, Note_on_c, 14, 57, 0
21, 48096, Note_on_c, 14, 52, 32
21, 48288, Note_on_c, 14, 52, 0
21, 48288, Note_on_c, 14, 55, 29
21, 48480, Note_on_c, 14, 55, 0
21, 48480, Note_on_c, 14, 57, 35
21, 48672, Note_on_c, 14, 57, 0
21, 48672, Program_c, 14, 48
21, 48672, Control_c, 14, 11, 75
21, 48672, Note_on_c, 14, 54, 46
21, 48679, Control_c, 14, 11, 76
21, 48686, Control_c, 14, 11, 77
21, 48694, Control_c, 14, 11, 78
21, 48701, Control_c, 14, 11, 79
21, 48708, Control_c, 14, 11, 80
21, 48716, Control_c, 14, 11, 81
21, 48723, Control_c, 14, 11, 82
21, 48731, Control_c, 14, 11, 83
21, 48738, Control_c, 14, 11, 84
21, 48745, Control_c, 14, 11, 85
21, 48753, Control_c, 14, 11, 86
21, 48760, Control_c, 14, 11, 87
21, 48768, Control_c, 14, 11, 88
21, 48775, Control_c, 14, 11, 89
21, 48782, Control_c, 14, 11, 90
21, 48790, Control_c, 14, 11, 91
21, 48797, Control_c, 14, 11, 92
21, 48804, Control_c, 14, 11, 93
21, 48812, Control_c, 14, 11, 94
21, 48819, Control_c, 14, 11, 95
21, 48827, Control_c, 14, 11, 96
21, 48834, Control_c, 14, 11, 97
21, 48841, Control_c, 14, 11, 98
21, 48849, Control_c, 14, 11, 99
21, 48856, Control_c, 14, 11, 100
21, 48864, Note_on_c, 14, 54, 0
21, 48864, Control_c, 14, 11, 101
21, 48864, Note_on_c, 14, 53, 42
21, 48871, Control_c, 14, 11, 102
21, 48878, Control_c, 14, 11, 103
21, 48886, Control_c, 14, 11, 104
21, 48893, Control_c, 14, 11, 105
21, 48900, Control_c, 14, 11, 106
21, 48908, Control_c, 14, 11, 107
21, 48915, Control_c, 14, 11, 108
21, 48923, Control_c, 14, 11, 109
21, 48930, Control_c, 14, 11, 110
21, 48937, Control_c, 14, 11, 111
21, 48945, Control_c, 14, 11, 112
21, 48952, Control_c, 14, 11, 113
21, 48960, Control_c, 14, 11, 114
21, 48967, Control_c, 14, 11, 115
21, 48974, Control_c, 14, 11, 116
21, 48982, Control_c, 14, 11, 117
21, 48989, Control_c, 14, 11, 118
21, 48996, Control_c, 14, 11, 119
21, 49004, Control_c, 14, 11, 120
21, 49011, Control_c, 14, 11, 121
21, 49019, Control_c, 14, 11, 122
21, 49026, Control_c, 14, 11, 123
21, 49033, Control_c, 14, 11, 124
21, 49041, Control_c, 14, 11, 125
21, 49048, Control_c, 14, 11, 126
21, 49056, Note_on_c, 14, 53, 0
21, 49056, Control_c, 14, 11, 127
21, 49056, Note_on_c, 14, 47, 50
21, 49248, Note_on_c, 14, 47, 0
21, 49248, Note_on_c, 14, 57, 42
21, 49440, Note_on_c, 14, 57, 0
21, 49440, Note_on_c, 14, 56, 44
21, 49632, Note_on_c, 14, 56, 0
21, 49632, Note_on_c, 14, 55, 50
21, 49824, Note_on_c, 14, 55, 0
21, 49824, Control_c, 14, 11, 75
21, 49824, Note_on_c, 14, 53, 55
21, 49835, Control_c, 14, 11, 76
21, 49846, Control_c, 14, 11, 77
21, 49857, Control_c, 14, 11, 78
21, 49868, Control_c, 14, 11, 79
21, 49879, Control_c, 14, 11, 80
21, 49890, Control_c, 14, 11, 81
21, 49901, Control_c, 14, 11, 82
21, 49912, Control_c, 14, 11, 83
21, 49923, Control_c, 14, 11, 84
21, 49934, Control_c, 14, 11, 85
21, 49945, Control_c, 14, 11, 86
21, 49956, Control_c, 14, 11, 87
21, 49968, Control_c, 14, 11, 88
21, 49979, Control_c, 14, 11, 89
21, 49990, Control_c, 14, 11, 90
21, 50001, Control_c, 14, 11, 91
21, 50012, Control_c, 14, 11, 92
21, 50016, Note_on_c, 14, 53, 0
21, 50016, Note_on_c, 14, 54, 58
21, 50023, Control_c, 14, 11, 93
21, 50034, Control_c, 14, 11, 94
21, 50045, Control_c, 14, 11, 95
21, 50056, Control_c, 14, 11, 96
21, 50067, Control_c, 14, 11, 97
21, 50078, Control_c, 14, 11, 98
21, 50089, Control_c, 14, 11, 99
21, 50100, Control_c, 14, 11, 100
21, 50112, Control_c, 14, 11, 101
21, 50123, Control_c, 14, 11, 102
21, 50134, Control_c, 14, 11, 103
21, 50145, Control_c, 14, 11, 104
21, 50156, Control_c, 14, 11, 105
21, 50167, Control_c, 14, 11, 106
21, 50178, Control_c, 14, 11, 107
21, 50189, Control_c, 14, 11, 108
21, 50200, Control_c, 14, 11, 109
21, 50208, Note_on_c, 14, 54, 0
21, 50208, Note_on_c, 14, 55, 65
21, 50211, Control_c, 14, 11, 110
21, 50222, Control_c, 14, 11, 111
21, 50233, Control_c, 14, 11, 112
21, 50244, Control_c, 14, 11, 113
21, 50256, Control_c, 14, 11, 114
21, 50267, Control_c, 14, 11, 115
21, 50278, Control_c, 14, 11, 116
21, 50289, Control_c, 14, 11, 117
21, 50300, Control_c, 14, 11, 118
21, 50311, Control_c, 14, 11, 119
21, 50322, Control_c, 14, 11, 120
21, 50333, Control_c, 14, 11, 121
21, 50344, Control_c, 14, 11, 122
21, 50355, Control_c, 14, 11, 123
21, 50366, Control_c, 14, 11, 124
21, 50377, Control_c, 14, 11, 125
21, 50388, Control_c, 14, 11, 126
21, 50400, Note_on_c, 14, 55, 0
21, 50400, Control_c, 14, 11, 127
21, 50400, Program_c, 14, 42
21, 50400, Control_c, 14, 1, 64
21, 50400, Control_c, 14, 11, 92
21, 50400, Note_on_c, 14, 64, 25
21, 50405, Control_c, 14, 11, 93
21, 50410, Control_c, 14, 11, 94
21, 50416, Control_c, 14, 11, 95
21, 50421, Control_c, 14, 11, 96
21, 50427, Control_c, 14, 11, 97
21, 50432, Control_c, 14, 11, 98
21, 50438, Control_c, 14, 11, 99
21, 50443, Control_c, 14, 11, 100
21, 50449, Control_c, 14, 11, 101
21, 50454, Control_c, 14, 11, 102
21, 50460, Control_c, 14, 11, 103
21, 50465, Control_c, 14, 11, 104
21, 50471, Control_c, 14, 11, 105
21, 50476, Control_c, 14, 11, 106
21, 50482, Control_c, 14, 11, 107
21, 50487, Control_c, 14, 11, 108
21, 50493, Control_c, 14, 11, 109
21, 50498, Control_c, 14, 11, 110
21, 50504, Control_c, 14, 11, 111
21, 50509, Control_c, 14, 11, 112
21, 50515, Control_c, 14, 11, 113
21, 50520, Control_c, 14, 11, 114
21, 50526, Control_c, 14, 11, 115
21, 50531, Control_c, 14, 11, 116
21, 50537, Control_c, 14, 11, 117
21, 50542, Control_c, 14, 11, 118
21, 50548, Control_c, 14, 11, 119
21, 50553, Control_c, 14, 11, 120
21, 50559, Control_c, 14, 11, 121
21, 50564, Control_c, 14, 11, 122
21, 50570, Control_c, 14, 11, 123
21, 50575, Control_c, 14, 11, 124
21, 50581, Control_c, 14, 11, 125
21, 50586, Control_c, 14, 11, 126
21, 50592, Note_on_c, 14, 64, 0
21, 50592, Control_c, 14, 11, 127
21, 50592, Note_on_c, 14, 61, 27
21, 50601, Control_c, 14, 11, 126
21, 50610, Control_c, 14, 11, 125
21, 50619, Control_c, 14, 11, 124
21, 50628, Control_c, 14, 11, 123
21, 50637, Control_c, 14, 11, 122
21, 50646, Control_c, 14, 11, 121
21, 50656, Control_c, 14, 11, 120
21, 50665, Control_c, 14, 11, 119
21, 50674, Control_c, 14, 11, 118
21, 50683, Control_c, 14, 11, 117
21, 50692, Control_c, 14, 11, 116
21, 50701, Control_c, 14, 11, 115
21, 50710, Control_c, 14, 11, 114
21, 50720, Control_c, 14, 11, 113
21, 50729, Control_c, 14, 11, 112
21, 50738, Control_c, 14, 11, 111
21, 50747, Control_c, 14, 11, 110
21, 50756, Control_c, 14, 11, 109
21, 50765, Control_c, 14, 11, 108
21, 50774, Control_c, 14, 11, 107
21, 50784, Note_on_c, 14, 61, 0
21, 50784, Control_c, 14, 11, 106
21, 50784, Note_on_c, 14, 56, 33
21, 50793, Control_c, 14, 11, 105
21, 50802, Control_c, 14, 11, 104
21, 50811, Control_c, 14, 11, 103
21, 50820, Control_c, 14, 11, 102
21, 50829, Control_c, 14, 11, 101
21, 50838, Control_c, 14, 11, 100
21, 50848, Control_c, 14, 11, 99
21, 50857, Control_c, 14, 11, 98
21, 50866, Control_c, 14, 11, 97
21, 50875, Control_c, 14, 11, 96
21, 50884, Control_c, 14, 11, 95
21, 50893, Control_c, 14, 11, 94
21, 50902, Control_c, 14, 11, 93
21, 50912, Control_c, 14, 11, 92
21, 50921, Control_c, 14, 11, 91
21, 50930, Control_c, 14, 11, 90
21, 50939, Control_c, 14, 11, 89
21, 50948, Control_c, 14, 11, 88
21, 50957, Control_c, 14, 11, 87
21, 50966, Control_c, 14, 11, 86
21, 50976, Note_on_c, 14, 56, 0
21, 50976, Control_c, 14, 11, 85
21, 50976, Note_on_c, 14, 40, 26
21, 50976, Note_on_c, 14, 47, 28
21, 50976, Note_on_c, 14, 54, 25
21, 50985, Control_c, 14, 11, 84
21, 50994, Control_c, 14, 11, 83
21, 51003, Control_c, 14, 11, 82
21, 51012, Control_c, 14, 11, 81
21, 51021, Control_c, 14, 11, 80
21, 51030, Control_c, 14, 11, 79
21, 51040, Control_c, 14, 11, 78
21, 51049, Control_c, 14, 11, 77
21, 51058, Control_c, 14, 11, 76
21, 51067, Control_c, 14, 11, 75
21, 51076, Control_c, 14, 11, 74
21, 51085, Control_c, 14, 11, 73
21, 51094, Control_c, 14, 11, 72
21, 51104, Control_c, 14, 11, 71
21, 51113, Control_c, 14, 11, 70
21, 51122, Control_c, 14, 11, 69
21, 51131, Control_c, 14, 11, 68
21, 51140, Control_c, 14, 11, 67
21, 51149, Control_c, 14, 11, 66
21, 51158, Control_c, 14, 11, 65
21, 51168, Control_c, 14, 11, 64
21, 51456, Note_on_c, 14, 40, 0
21, 51456, Note_on_c, 14, 47, 0
21, 51456, Note_on_c, 14, 54, 0
21, 51552, Control_c, 14, 11, 92
21, 51552, Note_on_c, 14, 67, 32
21, 51557, Control_c, 14, 11, 93
21, 51562, Control_c, 14, 11, 94
21, 51568, Control_c, 14, 11, 95
21, 51573, Control_c, 14, 11, 96
21, 51579, Control_c, 14, 11, 97
21, 51584, Control_c, 14, 11, 98
21, 51590, Control_c, 14, 11, 99
21, 51595, Control_c, 14, 11, 100
21, 51601, Control_c, 14, 11, 101
21, 51606, Control_c, 14, 11, 102
21, 51612, Control_c, 14, 11, 103
21, 51617, Control_c, 14, 11, 104
21, 51623, Control_c, 14, 11, 105
21, 51628, Control_c, 14, 11, 106
21, 51634, Control_c, 14, 11, 107
21, 51639, Control_c, 14, 11, 108
21, 51645, Control_c, 14, 11, 109
21, 51650, Control_c, 14, 11, 110
21, 51656, Control_c, 14, 11, 111
21, 51661, Control_c, 14, 11, 112
21, 51667, Control_c, 14, 11, 113
21, 51672, Control_c, 14, 11, 114
21, 51678, Control_c, 14, 11, 115
21, 51683, Control_c, 14, 11, 116
21, 51689, Control_c, 14, 11, 117
21, 51694, Control_c, 14, 11, 118
21, 51700, Control_c, 14, 11, 119
21, 51705, Control_c, 14, 11, 120
21, 51711, Control_c, 14, 11, 121
21, 51716, Control_c, 14, 11, 122
21, 51722, Control_c, 14, 11, 123
21, 51727, Control_c, 14, 11, 124
21, 51733, Control_c, 14, 11, 125
21, 51738, Control_c, 14, 11, 126
21, 51744, Note_on_c, 14, 67, 0
21, 51744, Control_c, 14, 11, 127
21, 51744, Note_on_c, 14, 64, 27
21, 51753, Control_c, 14, 11, 126
21, 51762, Control_c, 14, 11, 125
21, 51771, Control_c, 14, 11, 124
21, 51780, Control_c, 14, 11, 123
21, 51789, Control_c, 14, 11, 122
21, 51798, Control_c, 14, 11, 121
21, 51808, Control_c, 14, 11, 120
21, 51817, Control_c, 14, 11, 119
21, 51826, Control_c, 14, 11, 118
21, 51835, Control_c, 14, 11, 117
21, 51844, Control_c, 14, 11, 116
21, 51853, Control_c, 14, 11, 115
21, 51862, Control_c, 14, 11, 114
21, 51872, Control_c, 14, 11, 113
21, 51881, Control_c, 14, 11, 112
21, 51890, Control_c, 14, 11, 111
21, 51899, Control_c, 14, 11, 110
21, 51908, Control_c, 14, 11, 109
21, 51917, Control_c, 14, 11, 108
21, 51926, Control_c, 14, 11, 107
21, 51936, Note_on_c, 14, 64, 0
21, 51936, Control_c, 14, 11, 106
21, 51936, Note_on_c, 14, 59, 32
21, 51945, Control_c, 14, 11, 105
21, 51954, Control_c, 14, 11, 104
21, 51963, Control_c, 14, 11, 103
21, 51972, Control_c, 14, 11, 102
21, 51981, Control_c, 14, 11, 101
21, 51990, Control_c, 14, 11, 100
21, 52000, Control_c, 14, 11, 99
21, 52009, Control_c, 14, 11, 98
21, 52018, Control_c, 14, 11, 97
21, 52027, Control_c, 14, 11, 96
21, 52036, Control_c, 14, 11, 95
21, 52045, Control_c, 14, 11, 94
21, 52054, Control_c, 14, 11, 93
21, 52064, Control_c, 14, 11, 92
21, 52073, Control_c, 14, 11, 91
21, 52082, Control_c, 14, 11, 90
21, 52091, Control_c, 14, 11, 89
21, 52100, Control_c, 14, 11, 88
21, 52109, Control_c, 14, 11, 87
21, 52118, Control_c, 14, 11, 86
21, 52128, Note_on_c, 14, 59, 0
21, 52128, Control_c, 14, 11, 85
21, 52128, Note_on_c, 14, 43, 30
21, 52128, Note_on_c, 14, 50, 29
21, 52128, Note_on_c, 14, 57, 33
21, 52137, Control_c, 14, 11, 84
21, 52146, Control_c, 14, 11, 83
21, 52155, Control_c, 14, 11, 82
21, 52164, Control_c, 14, 11, 81
21, 52173, Control_c, 14, 11, 80
21, 52182, Control_c, 14, 11, 79
21, 52192, Control_c, 14, 11, 78
21, 52201, Control_c, 14, 11, 77
21, 52210, Control_c, 14, 11, 76
21, 52219, Control_c, 14, 11, 75
21, 52228, Control_c, 14, 11, 74
21, 52237, Control_c, 14, 11, 73
21, 52246, Control_c, 14, 11, 72
21, 52256, Control_c, 14, 11, 71
21, 52265, Control_c, 14, 11, 70
21, 52274, Control_c, 14, 11, 69
21, 52283, Control_c, 14, 11, 68
21, 52292, Control_c, 14, 11, 67
21, 52301, Control_c, 14, 11, 66
21, 52310, Control_c, 14, 11, 65
21, 52320, Control_c, 14, 11, 64
21, 52704, Note_on_c, 14, 43, 0
21, 52704, Note_on_c, 14, 50, 0
21, 52704, Note_on_c, 14, 57, 0
21, 52704, Control_c, 14, 11, 127
21, 52704, Program_c, 14, 45
21, 52704, Control_c, 14, 1, 0
21, 52704, Note_on_c, 14, 36, 79
21, 52704, Note_on_c, 14, 43, 75
21, 52704, Note_on_c, 14, 52, 78
21, 52800, Note_on_c, 14, 36, 0
21, 52800, Note_on_c, 14, 43, 0
21, 52800, Note_on_c, 14, 52, 0
21, 52800, Note_on_c, 14, 48, 91
21, 52824, Note_on_c, 14, 55, 94
21, 52848, Note_on_c, 14, 62, 93
21, 52896, Note_on_c, 14, 48, 0
21, 52896, Note_on_c, 14, 55, 0
21, 52896, Note_on_c, 14, 62, 0
21, 53856, Program_c, 14, 48
21, 53856, Control_c, 14, 11, 92
21, 53856, Note_on_c, 14, 67, 64
21, 53861, Control_c, 14, 11, 93
21, 53866, Control_c, 14, 11, 94
21, 53872, Control_c, 14, 11, 95
21, 53877, Control_c, 14, 11, 96
21, 53883, Control_c, 14, 11, 97
21, 53888, Control_c, 14, 11, 98
21, 53894, Control_c, 14, 11, 99
21, 53899, Control_c, 14, 11, 100
21, 53905, Control_c, 14, 11, 101
21, 53910, Control_c, 14, 11, 102
21, 53916, Control_c, 14, 11, 103
21, 53921, Control_c, 14, 11, 104
21, 53927, Control_c, 14, 11, 105
21, 53932, Control_c, 14, 11, 106
21, 53938, Control_c, 14, 11, 107
21, 53943, Control_c, 14, 11, 108
21, 53949, Control_c, 14, 11, 109
21, 53954, Control_c, 14, 11, 110
21, 53960, Control_c, 14, 11, 111
21, 53965, Control_c, 14, 11, 112
21, 53971, Control_c, 14, 11, 113
21, 53976, Control_c, 14, 11, 114
21, 53982, Control_c, 14, 11, 115
21, 53987, Control_c, 14, 11, 116
21, 53993, Control_c, 14, 11, 117
21, 53998, Control_c, 14, 11, 118
21, 54004, Control_c, 14, 11, 119
21, 54009, Control_c, 14, 11, 120
21, 54015, Control_c, 14, 11, 121
21, 54020, Control_c, 14, 11, 122
21, 54026, Control_c, 14, 11, 123
21, 54031, Control_c, 14, 11, 124
21, 54037, Control_c, 14, 11, 125
21, 54042, Control_c, 14, 11, 126
21, 54048, Control_c, 14, 11, 127
21, 54144, Note_on_c, 14, 67, 0
21, 54144, Note_on_c, 14, 66, 59
21, 54240, Note_on_c, 14, 66, 0
21, 54240, Note_on_c, 14, 64, 65
21, 54336, Note_on_c, 14, 64, 0
21, 54336, Note_on_c, 14, 62, 61
21, 54432, Note_on_c, 14, 62, 0
21, 54432, Note_on_c, 14, 67, 65
21, 54528, Note_on_c, 14, 67, 0
21, 54528, Note_on_c, 14, 66, 65
21, 54624, Note_on_c, 14, 66, 0
21, 54624, Note_on_c, 14, 64, 63
21, 54816, Note_on_c, 14, 64, 0
21, 54816, Note_on_c, 14, 67, 61
21, 54912, Note_on_c, 14, 67, 0
21, 54912, Note_on_c, 14, 66, 56
21, 55008, Note_on_c, 14, 66, 0
21, 55008, Control_c, 14, 11, 75
21, 55008, Note_on_c, 14, 63, 78
21, 55030, Control_c, 14, 11, 76
21, 55052, Control_c, 14, 11, 77
21, 55074, Control_c, 14, 11, 78
21, 55096, Control_c, 14, 11, 79
21, 55118, Control_c, 14, 11, 80
21, 55140, Control_c, 14, 11, 81
21, 55163, Control_c, 14, 11, 82
21, 55185, Control_c, 14, 11, 83
21, 55207, Control_c, 14, 11, 84
21, 55229, Control_c, 14, 11, 85
21, 55251, Control_c, 14, 11, 86
21, 55273, Control_c, 14, 11, 87
21, 55296, Note_on_c, 14, 63, 0
21, 55296, Control_c, 14, 11, 88
21, 55296, Note_on_c, 14, 61, 70
21, 55318, Control_c, 14, 11, 89
21, 55340, Control_c, 14, 11, 90
21, 55362, Control_c, 14, 11, 91
21, 55384, Control_c, 14, 11, 92
21, 55392, Note_on_c, 14, 61, 0
21, 55392, Note_on_c, 14, 60, 73
21, 55406, Control_c, 14, 11, 93
21, 55428, Control_c, 14, 11, 94
21, 55451, Control_c, 14, 11, 95
21, 55473, Control_c, 14, 11, 96
21, 55488, Note_on_c, 14, 60, 0
21, 55488, Note_on_c, 14, 58, 76
21, 55495, Control_c, 14, 11, 97
21, 55517, Control_c, 14, 11, 98
21, 55539, Control_c, 14, 11, 99
21, 55561, Control_c, 14, 11, 100
21, 55584, Note_on_c, 14, 58, 0
21, 55584, Control_c, 14, 11, 101
21, 55584, Note_on_c, 14, 60, 80
21, 55606, Control_c, 14, 11, 102
21, 55628, Control_c, 14, 11, 103
21, 55650, Control_c, 14, 11, 104
21, 55672, Control_c, 14, 11, 105
21, 55680, Note_on_c, 14, 60, 0
21, 55680, Note_on_c, 14, 61, 71
21, 55694, Control_c, 14, 11, 106
21, 55716, Control_c, 14, 11, 107
21, 55739, Control_c, 14, 11, 108
21, 55761, Control_c, 14, 11, 109
21, 55776, Note_on_c, 14, 61, 0
21, 55776, Note_on_c, 14, 63, 70
21, 55783, Control_c, 14, 11, 110
21, 55805, Control_c, 14, 11, 111
21, 55827, Control_c, 14, 11, 112
21, 55849, Control_c, 14, 11, 113
21, 55872, Note_on_c, 14, 63, 0
21, 55872, Control_c, 14, 11, 114
21, 55872, Note_on_c, 14, 65, 73
21, 55894, Control_c, 14, 11, 115
21, 55916, Control_c, 14, 11, 116
21, 55938, Control_c, 14, 11, 117
21, 55960, Control_c, 14, 11, 118
21, 55982, Control_c, 14, 11, 119
21, 56004, Control_c, 14, 11, 120
21, 56027, Control_c, 14, 11, 121
21, 56049, Control_c, 14, 11, 122
21, 56064, Note_on_c, 14, 65, 0
21, 56064, Note_on_c, 14, 70, 77
21, 56071, Control_c, 14, 11, 123
21, 56093, Control_c, 14, 11, 124
21, 56115, Control_c, 14, 11, 125
21, 56137, Control_c, 14, 11, 126
21, 56160, Note_on_c, 14, 70, 0
21, 56160, Control_c, 14, 11, 127
21, 56160, Note_on_c, 14, 67, 64
21, 56448, Note_on_c, 14, 67, 0
21, 56448, Note_on_c, 14, 66, 56
21, 56544, Note_on_c, 14, 66, 0
21, 56544, Note_on_c, 14, 64, 60
21, 56640, Note_on_c, 14, 64, 0
21, 56640, Note_on_c, 14, 62, 60
21, 56736, Note_on_c, 14, 62, 0
21, 56736, Note_on_c, 14, 67, 57
21, 56832, Note_on_c, 14, 67, 0
21, 56832, Note_on_c, 14, 66, 57
21, 56928, Note_on_c, 14, 66, 0
21, 56928, Note_on_c, 14, 64, 57
21, 57120, Note_on_c, 14, 64, 0
21, 57120, Note_on_c, 14, 67, 62
21, 57216, Note_on_c, 14, 67, 0
21, 57216, Note_on_c, 14, 66, 58
21, 57312, Note_on_c, 14, 66, 0
21, 57312, Control_c, 14, 11, 64
21, 57312, Note_on_c, 14, 62, 90
21, 57339, Control_c, 14, 11, 65
21, 57366, Control_c, 14, 11, 66
21, 57394, Control_c, 14, 11, 67
21, 57421, Control_c, 14, 11, 68
21, 57449, Control_c, 14, 11, 69
21, 57476, Control_c, 14, 11, 70
21, 57504, Control_c, 14, 11, 71
21, 57531, Control_c, 14, 11, 72
21, 57558, Control_c, 14, 11, 73
21, 57586, Control_c, 14, 11, 74
21, 57600, Note_on_c, 14, 62, 0
21, 57600, Note_on_c, 14, 64, 97
21, 57613, Control_c, 14, 11, 75
21, 57641, Control_c, 14, 11, 76
21, 57668, Control_c, 14, 11, 77
21, 57696, Note_on_c, 14, 64, 0
21, 57696, Control_c, 14, 11, 78
21, 57696, Note_on_c, 14, 66, 94
21, 57723, Control_c, 14, 11, 79
21, 57750, Control_c, 14, 11, 80
21, 57778, Control_c, 14, 11, 81
21, 57792, Note_on_c, 14, 66, 0
21, 57792, Note_on_c, 14, 68, 88
21, 57805, Control_c, 14, 11, 82
21, 57833, Control_c, 14, 11, 83
21, 57860, Control_c, 14, 11, 84
21, 57888, Note_on_c, 14, 68, 0
21, 57888, Control_c, 14, 11, 85
21, 57888, Note_on_c, 14, 68, 93
21, 57915, Control_c, 14, 11, 86
21, 57942, Control_c, 14, 11, 87
21, 57970, Control_c, 14, 11, 88
21, 57997, Control_c, 14, 11, 89
21, 58025, Control_c, 14, 11, 90
21, 58052, Control_c, 14, 11, 91
21, 58080, Note_on_c, 14, 68, 0
21, 58080, Control_c, 14, 11, 92
21, 58080, Note_on_c, 14, 66, 93
21, 58107, Control_c, 14, 11, 93
21, 58134, Control_c, 14, 11, 94
21, 58162, Control_c, 14, 11, 95
21, 58189, Control_c, 14, 11, 96
21, 58217, Control_c, 14, 11, 97
21, 58244, Control_c, 14, 11, 98
21, 58272, Control_c, 14, 11, 99
21, 58299, Control_c, 14, 11, 100
21, 58326, Control_c, 14, 11, 101
21, 58354, Control_c, 14, 11, 102
21, 58368, Note_on_c, 14, 66, 0
21, 58368, Note_on_c, 14, 68, 97
21, 58381, Control_c, 14, 11, 103
21, 58409, Control_c, 14, 11, 104
21, 58436, Control_c, 14, 11, 105
21, 58464, Note_on_c, 14, 68, 0
21, 58464, Control_c, 14, 11, 106
21, 58464, Note_on_c, 14, 62, 94
21, 58491, Control_c, 14, 11, 107
21, 58518, Control_c, 14, 11, 108
21, 58546, Control_c, 14, 11, 109
21, 58573, Control_c, 14, 11, 110
21, 58601, Control_c, 14, 11, 111
21, 58628, Control_c, 14, 11, 112
21, 58656, Control_c, 14, 11, 113
21, 58683, Control_c, 14, 11, 114
21, 58710, Control_c, 14, 11, 115
21, 58738, Control_c, 14, 11, 116
21, 58752, Note_on_c, 14, 62, 0
21, 58752, Note_on_c, 14, 64, 88
21, 58765, Control_c, 14, 11, 117
21, 58793, Control_c, 14, 11, 118
21, 58820, Control_c, 14, 11, 119
21, 58848, Note_on_c, 14, 64, 0
21, 58848, Control_c, 14, 11, 120
21, 58848, Note_on_c, 14, 66, 97
21, 58875, Control_c, 14, 11, 121
21, 58902, Control_c, 14, 11, 122
21, 58930, Control_c, 14, 11, 123
21, 58944, Note_on_c, 14, 66, 0
21, 58944, Note_on_c, 14, 68, 96
21, 58957, Control_c, 14, 11, 124
21, 58985, Control_c, 14, 11, 125
21, 59012, Control_c, 14, 11, 126
21, 59040, Note_on_c, 14, 68, 0
21, 59040, Control_c, 14, 11, 127
21, 59040, Note_on_c, 14, 71, 91
21, 59136, Note_on_c, 14, 71, 0
21, 59136, Note_on_c, 14, 69, 87
21, 59232, Note_on_c, 14, 69, 0
21, 59232, Note_on_c, 14, 68, 87
21, 59328, Note_on_c, 14, 68, 0
21, 59328, Note_on_c, 14, 66, 97
21, 59424, Note_on_c, 14, 66, 0
21, 59424, Note_on_c, 14, 71, 95
21, 59520, Note_on_c, 14, 71, 0
21, 59520, Note_on_c, 14, 69, 87
21, 59616, Note_on_c, 14, 69, 0
21, 59616, Control_c, 14, 11, 127
21, 59616, Note_on_c, 14, 52, 96
21, 59630, Control_c, 14, 11, 126
21, 59644, Control_c, 14, 11, 125
21, 59658, Control_c, 14, 11, 124
21, 59672, Control_c, 14, 11, 123
21, 59686, Control_c, 14, 11, 122
21, 59700, Control_c, 14, 11, 121
21, 59714, Control_c, 14, 11, 120
21, 59728, Control_c, 14, 11, 119
21, 59742, Control_c, 14, 11, 118
21, 59756, Control_c, 14, 11, 117
21, 59770, Control_c, 14, 11, 116
21, 59784, Control_c, 14, 11, 115
21, 59798, Control_c, 14, 11, 114
21, 59808, Note_on_c, 14, 52, 0
21, 59808, Note_on_c, 14, 50, 97
21, 59812, Control_c, 14, 11, 113
21, 59826, Control_c, 14, 11, 112
21, 59840, Control_c, 14, 11, 111
21, 59854, Control_c, 14, 11, 110
21, 59868, Control_c, 14, 11, 109
21, 59882, Control_c, 14, 11, 108
21, 59896, Control_c, 14, 11, 107
21, 59911, Control_c, 14, 11, 106
21, 59925, Control_c, 14, 11, 105
21, 59939, Control_c, 14, 11, 104
21, 59953, Control_c, 14, 11, 103
21, 59967, Control_c, 14, 11, 102
21, 59981, Control_c, 14, 11, 101
21, 59995, Control_c, 14, 11, 100
21, 60000, Note_on_c, 14, 50, 0
21, 60000, Note_on_c, 14, 47, 87
21, 60009, Control_c, 14, 11, 99
21, 60023, Control_c, 14, 11, 98
21, 60037, Control_c, 14, 11, 97
21, 60051, Control_c, 14, 11, 96
21, 60065, Control_c, 14, 11, 95
21, 60079, Control_c, 14, 11, 94
21, 60093, Control_c, 14, 11, 93
21, 60107, Control_c, 14, 11, 92
21, 60121, Control_c, 14, 11, 91
21, 60135, Control_c, 14, 11, 90
21, 60149, Control_c, 14, 11, 89
21, 60163, Control_c, 14, 11, 88
21, 60177, Control_c, 14, 11, 87
21, 60191, Control_c, 14, 11, 86
21, 60192, Note_on_c, 14, 47, 0
21, 60192, Note_on_c, 14, 45, 92
21, 60206, Control_c, 14, 11, 85
21, 60220, Control_c, 14, 11, 84
21, 60234, Control_c, 14, 11, 83
21, 60248, Control_c, 14, 11, 82
21, 60262, Control_c, 14, 11, 81
21, 60276, Control_c, 14, 11, 80
21, 60290, Control_c, 14, 11, 79
21, 60304, Control_c, 14, 11, 78
21, 60318, Control_c, 14, 11, 77
21, 60332, Control_c, 14, 11, 76
21, 60346, Control_c, 14, 11, 75
21, 60360, Control_c, 14, 11, 74
21, 60374, Control_c, 14, 11, 73
21, 60388, Control_c, 14, 11, 72
21, 60402, Control_c, 14, 11, 71
21, 60416, Control_c, 14, 11, 70
21, 60430, Control_c, 14, 11, 69
21, 60444, Control_c, 14, 11, 68
21, 60458, Control_c, 14, 11, 67
21, 60472, Control_c, 14, 11, 66
21, 60487, Control_c, 14, 11, 65
21, 60501, Control_c, 14, 11, 64
21, 60515, Control_c, 14, 11, 63
21, 60529, Control_c, 14, 11, 62
21, 60543, Control_c, 14, 11, 61
21, 60557, Control_c, 14, 11, 60
21, 60571, Control_c, 14, 11, 59
21, 60585, Control_c, 14, 11, 58
21, 60599, Control_c, 14, 11, 57
21, 60613, Control_c, 14, 11, 56
21, 60627, Control_c, 14, 11, 55
21, 60641, Control_c, 14, 11, 54
21, 60655, Control_c, 14, 11, 53
21, 60669, Control_c, 14, 11, 52
21, 60683, Control_c, 14, 11, 51
21, 60697, Control_c, 14, 11, 50
21, 60711, Control_c, 14, 11, 49
21, 60725, Control_c, 14, 11, 48
21, 60739, Control_c, 14, 11, 47
21, 60753, Control_c, 14, 11, 46
21, 60768, Note_on_c, 14, 45, 0
21, 60768, Control_c, 14, 11, 45
21, 60768, Program_c, 14, 44
21, 60768, Note_on_c, 14, 52, 41
21, 60960, Note_on_c, 14, 52, 0
21, 60960, Note_on_c, 14, 54, 45
21, 61152, Note_on_c, 14, 54, 0
21, 61152, Note_on_c, 14, 52, 45
21, 61344, Note_on_c, 14, 52, 0
21, 61344, Note_on_c, 14, 54, 48
21, 61536, Note_on_c, 14, 54, 0
21, 61920, Note_on_c, 14, 52, 49
21, 62112, Note_on_c, 14, 52, 0
21, 62112, Note_on_c, 14, 54, 40
21, 62304, Note_on_c, 14, 54, 0
21, 62304, Note_on_c, 14, 52, 43
21, 62496, Note_on_c, 14, 52, 0
21, 62496, Note_on_c, 14, 54, 40
21, 62688, Note_on_c, 14, 54, 0
21, 63072, Note_on_c, 14, 52, 25
21, 63264, Note_on_c, 14, 52, 0
21, 63264, Note_on_c, 14, 55, 34
21, 63456, Note_on_c, 14, 55, 0
21, 63456, Note_on_c, 14, 54, 25
21, 63648, Note_on_c, 14, 54, 0
21, 63648, Note_on_c, 14, 52, 27
21, 63840, Note_on_c, 14, 52, 0
21, 63840, Note_on_c, 14, 55, 34
21, 64032, Note_on_c, 14, 55, 0
21, 64032, Note_on_c, 14, 57, 25
21, 64224, Note_on_c, 14, 57, 0
21, 64224, Program_c, 14, 45
21, 64416, Note_on_c, 14, 45, 25
21, 64512, Note_on_c, 14, 45, 0
21, 64608, Note_on_c, 14, 43, 39
21, 64704, Note_on_c, 14, 43, 0
21, 64800, Note_on_c, 14, 42, 56
21, 64800, Note_on_c, 14, 49, 63
21, 64896, Note_on_c, 14, 42, 0
21, 64896, Note_on_c, 14, 49, 0
21, 64992, Program_c, 14, 48
21, 65184, Note_on_c, 14, 55, 91
21, 65208, Note_on_c, 14, 55, 0
21, 65208, Note_on_c, 14, 56, 89
21, 65232, Note_on_c, 14, 56, 0
21, 65232, Note_on_c, 14, 58, 98
21, 65256, Note_on_c, 14, 58, 0
21, 65256, Note_on_c, 14, 59, 89
21, 65280, Note_on_c, 14, 59, 0
21, 65280, Note_on_c, 14, 61, 93
21, 65304, Note_on_c, 14, 61, 0
21, 65304, Note_on_c, 14, 63, 99
21, 65328, Note_on_c, 14, 63, 0
21, 65328, Note_on_c, 14, 65, 102
21, 65352, Note_on_c, 14, 65, 0
21, 65352, Note_on_c, 14, 67, 95
21, 65376, Note_on_c, 14, 67, 0
21, 65376, Note_on_c, 14, 68, 103
21, 65472, Note_on_c, 14, 68, 0
21, 65568, Note_on_c, 14, 37, 105
21, 65952, Control_c, 14, 11, 127
21, 65962, Control_c, 14, 11, 126
21, 65973, Control_c, 14, 11, 125
21, 65984, Control_c, 14, 11, 124
21, 65995, Control_c, 14, 11, 123
21, 66005, Control_c, 14, 11, 122
21, 66016, Control_c, 14, 11, 121
21, 66027, Control_c, 14, 11, 120
21, 66038, Control_c, 14, 11, 119
21, 66048, Control_c, 14, 11, 118
21, 66059, Control_c, 14, 11, 117
21, 66070, Control_c, 14, 11, 116
21, 66081, Control_c, 14, 11, 115
21, 66091, Control_c, 14, 11, 114
21, 66102, Control_c, 14, 11, 113
21, 66113, Control_c, 14, 11, 112
21, 66124, Control_c, 14, 11, 111
21, 66135, Control_c, 14, 11, 110
21, 66145, Control_c, 14, 11, 109
21, 66156, Control_c, 14, 11, 108
21, 66167, Control_c, 14, 11, 107
21, 66178, Control_c, 14, 11, 106
21, 66188, Control_c, 14, 11, 105
21, 66199, Control_c, 14, 11, 104
21, 66210, Control_c, 14, 11, 103
21, 66221, Control_c, 14, 11, 102
21, 66231, Control_c, 14, 11, 101
21, 66242, Control_c, 14, 11, 100
21, 66253, Control_c, 14, 11, 99
21, 66264, Control_c, 14, 11, 98
21, 66274, Control_c, 14, 11, 97
21, 66285, Control_c, 14, 11, 96
21, 66296, Control_c, 14, 11, 95
21, 66307, Control_c, 14, 11, 94
21, 66318, Control_c, 14, 11, 93
21, 66328, Control_c, 14, 11, 92
21, 66339, Control_c, 14, 11, 91
21, 66350, Control_c, 14, 11, 90
21, 66361, Control_c, 14, 11, 89
21, 66371, Control_c, 14, 11, 88
21, 66382, Control_c, 14, 11, 87
21, 66393, Control_c, 14, 11, 86
21, 66404, Control_c, 14, 11, 85
21, 66414, Control_c, 14, 11, 84
21, 66425, Control_c, 14, 11, 83
21, 66436, Control_c, 14, 11, 82
21, 66447, Control_c, 14, 11, 81
21, 66458, Control_c, 14, 11, 80
21, 66468, Control_c, 14, 11, 79
21, 66479, Control_c, 14, 11, 78
21, 66490, Control_c, 14, 11, 77
21, 66501, Control_c, 14, 11, 76
21, 66511, Control_c, 14, 11, 75
21, 66522, Control_c, 14, 11, 74
21, 66533, Control_c, 14, 11, 73
21, 66544, Control_c, 14, 11, 72
21, 66554, Control_c, 14, 11, 71
21, 66565, Control_c, 14, 11, 70
21, 66576, Control_c, 14, 11, 69
21, 66587, Control_c, 14, 11, 68
21, 66597, Control_c, 14, 11, 67
21, 66608, Control_c, 14, 11, 66
21, 66619, Control_c, 14, 11, 65
21, 66630, Control_c, 14, 11, 64
21, 66641, Control_c, 14, 11, 63
21, 66651, Control_c, 14, 11, 62
21, 66662, Control_c, 14, 11, 61
21, 66673, Control_c, 14, 11, 60
21, 66684, Control_c, 14, 11, 59
21, 66694, Control_c, 14, 11, 58
21, 66705, Control_c, 14, 11, 57
21, 66716, Control_c, 14, 11, 56
21, 66727, Control_c, 14, 11, 55
21, 66737, Control_c, 14, 11, 54
21, 66748, Control_c, 14, 11, 53
21, 66759, Control_c, 14, 11, 52
21, 66770, Control_c, 14, 11, 51
21, 66781, Control_c, 14, 11, 50
21, 66791, Control_c, 14, 11, 49
21, 66802, Control_c, 14, 11, 48
21, 66813, Control_c, 14, 11, 47
21, 66824, Control_c, 14, 11, 46
21, 66834, Control_c, 14, 11, 45
21, 66845, Control_c, 14, 11, 44
21, 66856, Control_c, 14, 11, 43
21, 66867, Control_c, 14, 11, 42
21, 66877, Control_c, 14, 11, 41
21, 66888, Control_c, 14, 11, 40
21, 66899, Control_c, 14, 11, 39
21, 66910, Control_c, 14, 11, 38
21, 66920, Control_c, 14, 11, 37
21, 66931, Control_c, 14, 11, 36
21, 66942, Control_c, 14, 11, 35
21, 66953, Control_c, 14, 11, 34
21, 66964, Control_c, 14, 11, 33
21, 66974, Control_c, 14, 11, 32
21, 66985, Control_c, 14, 11, 31
21, 66996, Control_c, 14, 11, 30
21, 67007, Control_c, 14, 11, 29
21, 67017, Control_c, 14, 11, 28
21, 67028, Control_c, 14, 11, 27
21, 67039, Control_c, 14, 11, 26
21, 67050, Control_c, 14, 11, 25
21, 67060, Control_c, 14, 11, 24
21, 67071, Control_c, 14, 11, 23
21, 67082, Control_c, 14, 11, 22
21, 67093, Control_c, 14, 11, 21
21, 67104, Control_c, 14, 11, 20
21, 67296, Note_on_c, 14, 37, 0
21, 67680, Control_c, 14, 11, 127
21, 68256, Note_on_c, 14, 50, 40
21, 69984, Note_on_c, 14, 50, 0
21, 72672, Control_c, 14, 11, 127
21, 72672, Note_on_c, 14, 50, 26
21, 72677, Control_c, 14, 11, 126
21, 72682, Control_c, 14, 11, 125
21, 72688, Control_c, 14, 11, 124
21, 72693, Control_c, 14, 11, 123
21, 72699, Control_c, 14, 11, 122
21, 72704, Control_c, 14, 11, 121
21, 72710, Control_c, 14, 11, 120
21, 72715, Control_c, 14, 11, 119
21, 72721, Control_c, 14, 11, 118
21, 72726, Control_c, 14, 11, 117
21, 72732, Control_c, 14, 11, 116
21, 72737, Control_c, 14, 11, 115
21, 72743, Control_c, 14, 11, 114
21, 72748, Control_c, 14, 11, 113
21, 72754, Control_c, 14, 11, 112
21, 72759, Control_c, 14, 11, 111
21, 72765, Control_c, 14, 11, 110
21, 72770, Control_c, 14, 11, 109
21, 72776, Control_c, 14, 11, 108
21, 72781, Control_c, 14, 11, 107
21, 72787, Control_c, 14, 11, 106
21, 72792, Control_c, 14, 11, 105
21, 72798, Control_c, 14, 11, 104
21, 72803, Control_c, 14, 11, 103
21, 72809, Control_c, 14, 11, 102
21, 72814, Control_c, 14, 11, 101
21, 72820, Control_c, 14, 11, 100
21, 72825, Control_c, 14, 11, 99
21, 72831, Control_c, 14, 11, 98
21, 72836, Control_c, 14, 11, 97
21, 72842, Control_c, 14, 11, 96
21, 72847, Control_c, 14, 11, 95
21, 72853, Control_c, 14, 11, 94
21, 72858, Control_c, 14, 11, 93
21, 72864, Control_c, 14, 11, 92
21, 73440, Note_on_c, 14, 50, 0
21, 73440, Control_c, 14, 11, 127
21, 74016, Program_c, 14, 45
21, 74592, Note_on_c, 14, 44, 28
21, 74784, Note_on_c, 14, 44, 0
21, 74784, Note_on_c, 14, 47, 35
21, 74976, Note_on_c, 14, 47, 0
21, 74976, Note_on_c, 14, 50, 25
21, 75168, Note_on_c, 14, 50, 0
21, 75360, Note_on_c, 14, 53, 44
21, 75360, Note_on_c, 14, 57, 43
21, 75456, Note_on_c, 14, 53, 0
21, 75456, Note_on_c, 14, 57, 0
21, 75744, Note_on_c, 14, 44, 47
21, 75936, Note_on_c, 14, 44, 0
21, 75936, Note_on_c, 14, 47, 49
21, 76128, Note_on_c, 14, 47, 0
21, 76128, Note_on_c, 14, 50, 48
21, 76320, Note_on_c, 14, 50, 0
21, 77280, Note_on_c, 14, 52, 42
21, 77376, Note_on_c, 14, 52, 0
21, 77376, Note_on_c, 14, 48, 42
21, 77472, Note_on_c, 14, 48, 0
21, 77472, Note_on_c, 14, 40, 25
21, 77568, Note_on_c, 14, 40, 0
21, 77568, Note_on_c, 14, 43, 27
21, 77664, Note_on_c, 14, 43, 0
21, 77664, Note_on_c, 14, 46, 33
21, 77760, Note_on_c, 14, 46, 0
21, 77760, Note_on_c, 14, 50, 30
21, 77856, Note_on_c, 14, 50, 0
21, 77856, Note_on_c, 14, 51, 31
21, 77952, Note_on_c, 14, 51, 0
21, 77952, Note_on_c, 14, 45, 25
21, 78048, Note_on_c, 14, 45, 0
21, 78048, Note_on_c, 14, 40, 28
21, 78144, Note_on_c, 14, 40, 0
21, 78144, Note_on_c, 14, 43, 35
21, 78240, Note_on_c, 14, 43, 0
21, 78240, Note_on_c, 14, 46, 34
21, 78336, Note_on_c, 14, 46, 0
21, 78336, Note_on_c, 14, 50, 26
21, 78432, Note_on_c, 14, 50, 0
21, 78432, Note_on_c, 14, 51, 28
21, 78528, Note_on_c, 14, 51, 0
21, 78528, Note_on_c, 14, 45, 29
21, 78624, Note_on_c, 14, 45, 0
21, 78624, Note_on_c, 14, 40, 31
21, 78720, Note_on_c, 14, 40, 0
21, 78720, Note_on_c, 14, 43, 30
21, 78816, Note_on_c, 14, 43, 0
21, 78816, Note_on_c, 14, 46, 35
21, 78912, Note_on_c, 14, 46, 0
21, 78912, Note_on_c, 14, 50, 35
21, 79008, Note_on_c, 14, 50, 0
21, 79008, Note_on_c, 14, 51, 33
21, 79104, Note_on_c, 14, 51, 0
21, 79104, Note_on_c, 14, 45, 33
21, 79200, Note_on_c, 14, 45, 0
21, 79200, Note_on_c, 14, 40, 44
21, 79296, Note_on_c, 14, 40, 0
21, 79296, Note_on_c, 14, 43, 44
21, 79392, Note_on_c, 14, 43, 0
21, 79392, Note_on_c, 14, 46, 44
21, 79488, Note_on_c, 14, 46, 0
21, 79488, Note_on_c, 14, 50, 41
21, 79584, Note_on_c, 14, 50, 0
21, 79584, Note_on_c, 14, 51, 45
21, 79680, Note_on_c, 14, 51, 0
21, 79680, Note_on_c, 14, 45, 43
21, 79776, Note_on_c, 14, 45, 0
21, 79776, Note_on_c, 14, 40, 43
21, 79872, Note_on_c, 14, 40, 0
21, 79872, Note_on_c, 14, 43, 50
21, 79968, Note_on_c, 14, 43, 0
21, 79968, Note_on_c, 14, 46, 44
21, 80064, Note_on_c, 14, 46, 0
21, 80064, Note_on_c, 14, 50, 52
21, 80160, Note_on_c, 14, 50, 0
21, 80160, Note_on_c, 14, 51, 55
21, 80256, Note_on_c, 14, 51, 0
21, 80256, Note_on_c, 14, 45, 51
21, 80352, Note_on_c, 14, 45, 0
21, 80352, Note_on_c, 14, 40, 57
21, 80448, Note_on_c, 14, 40, 0
21, 80448, Note_on_c, 14, 43, 61
21, 80544, Note_on_c, 14, 43, 0
21, 80544, Note_on_c, 14, 46, 65
21, 80640, Note_on_c, 14, 46, 0
21, 80640, Note_on_c, 14, 50, 63
21, 80736, Note_on_c, 14, 50, 0
21, 80736, Note_on_c, 14, 51, 63
21, 80832, Note_on_c, 14, 51, 0
21, 80832, Note_on_c, 14, 45, 67
21, 80928, Note_on_c, 14, 45, 0
21, 81504, Program_c, 14, 45
21, 82080, Note_on_c, 14, 46, 112
21, 82080, Note_on_c, 14, 53, 109
21, 82272, Note_on_c, 14, 46, 0
21, 82272, Note_on_c, 14, 53, 0
21, 84384, Note_on_c, 14, 46, 109
21, 84384, Note_on_c, 14, 53, 105
21, 84576, Note_on_c, 14, 46, 0
21, 84576, Note_on_c, 14, 53, 0
21, 86688, Program_c, 14, 48
21, 86688, Note_on_c, 14, 40, 31
21, 86720, Note_on_c, 14, 40, 0
21, 86736, Note_on_c, 14, 40, 27
21, 86768, Note_on_c, 14, 40, 0
21, 86784, Note_on_c, 14, 48, 27
21, 86816, Note_on_c, 14, 48, 0
21, 86832, Note_on_c, 14, 48, 26
21, 86864, Note_on_c, 14, 48, 0
21, 86880, Note_on_c, 14, 52, 26
21, 86912, Note_on_c, 14, 52, 0
21, 86928, Note_on_c, 14, 52, 31
21, 86960, Note_on_c, 14, 52, 0
21, 86976, Note_on_c, 14, 48, 29
21, 87008, Note_on_c, 14, 48, 0
21, 87024, Note_on_c, 14, 48, 26
21, 87056, Note_on_c, 14, 48, 0
21, 87072, Note_on_c, 14, 40, 34
21, 87104, Note_on_c, 14, 40, 0
21, 87120, Note_on_c, 14, 40, 25
21, 87152, Note_on_c, 14, 40, 0
21, 87168, Note_on_c, 14, 48, 35
21, 87200, Note_on_c, 14, 48, 0
21, 87216, Note_on_c, 14, 48, 32
21, 87248, Note_on_c, 14, 48, 0
21, 87264, Note_on_c, 14, 40, 31
21, 87296, Note_on_c, 14, 40, 0
21, 87312, Note_on_c, 14, 40, 33
21, 87344, Note_on_c, 14, 40, 0
21, 87360, Note_on_c, 14, 48, 29
21, 87392, Note_on_c, 14, 48, 0
21, 87408, Note_on_c, 14, 48, 34
21, 87440, Note_on_c, 14, 48, 0
21, 87456, Note_on_c, 14, 52, 28
21, 87488, Note_on_c, 14, 52, 0
21, 87504, Note_on_c, 14, 52, 30
21, 87536, Note_on_c, 14, 52, 0
21, 87552, Note_on_c, 14, 48, 25
21, 87584, Note_on_c, 14, 48, 0
21, 87600, Note_on_c, 14, 48, 27
21, 87632, Note_on_c, 14, 48, 0
21, 87648, Note_on_c, 14, 40, 30
21, 87680, Note_on_c, 14, 40, 0
21, 87696, Note_on_c, 14, 40, 25
21, 87728, Note_on_c, 14, 40, 0
21, 87744, Note_on_c, 14, 48, 25
21, 87776, Note_on_c, 14, 48, 0
21, 87792, Note_on_c, 14, 48, 27
21, 87824, Note_on_c, 14, 48, 0
21, 87840, Note_on_c, 14, 40, 31
21, 87872, Note_on_c, 14, 40, 0
21, 87888, Note_on_c, 14, 40, 27
21, 87920, Note_on_c, 14, 40, 0
21, 87936, Note_on_c, 14, 48, 29
21, 87968, Note_on_c, 14, 48, 0
21, 87984, Note_on_c, 14, 48, 28
21, 88016, Note_on_c, 14, 48, 0
21, 88032, Note_on_c, 14, 52, 27
21, 88064, Note_on_c, 14, 52, 0
21, 88080, Note_on_c, 14, 52, 26
21, 88112, Note_on_c, 14, 52, 0
21, 88128, Note_on_c, 14, 48, 31
21, 88160, Note_on_c, 14, 48, 0
21, 88176, Note_on_c, 14, 48, 25
21, 88208, Note_on_c, 14, 48, 0
21, 88224, Note_on_c, 14, 40, 29
21, 88256, Note_on_c, 14, 40, 0
21, 88272, Note_on_c, 14, 40, 35
21, 88304, Note_on_c, 14, 40, 0
21, 88320, Note_on_c, 14, 48, 27
21, 88352, Note_on_c, 14, 48, 0
21, 88368, Note_on_c, 14, 48, 34
21, 88400, Note_on_c, 14, 48, 0
21, 88416, Note_on_c, 14, 37, 49
21, 88448, Note_on_c, 14, 37, 0
21, 88464, Note_on_c, 14, 37, 47
21, 88496, Note_on_c, 14, 37, 0
21, 88512, Note_on_c, 14, 49, 42
21, 88544, Note_on_c, 14, 49, 0
21, 88560, Note_on_c, 14, 49, 50
21, 88592, Note_on_c, 14, 49, 0
21, 88608, Note_on_c, 14, 56, 46
21, 88640, Note_on_c, 14, 56, 0
21, 88656, Note_on_c, 14, 56, 47
21, 88688, Note_on_c, 14, 56, 0
21, 88704, Note_on_c, 14, 49, 50
21, 88736, Note_on_c, 14, 49, 0
21, 88752, Note_on_c, 14, 49, 54
21, 88784, Note_on_c, 14, 49, 0
21, 88800, Note_on_c, 14, 56, 58
21, 88832, Note_on_c, 14, 56, 0
21, 88848, Note_on_c, 14, 56, 55
21, 88880, Note_on_c, 14, 56, 0
21, 88896, Note_on_c, 14, 49, 53
21, 88928, Note_on_c, 14, 49, 0
21, 88944, Note_on_c, 14, 49, 63
21, 88976, Note_on_c, 14, 49, 0
21, 88992, Note_on_c, 14, 40, 32
21, 89024, Note_on_c, 14, 40, 0
21, 89040, Note_on_c, 14, 40, 26
21, 89072, Note_on_c, 14, 40, 0
21, 89088, Note_on_c, 14, 48, 34
21, 89120, Note_on_c, 14, 48, 0
21, 89136, Note_on_c, 14, 48, 34
21, 89168, Note_on_c, 14, 48, 0
21, 89184, Note_on_c, 14, 52, 25
21, 89216, Note_on_c, 14, 52, 0
21, 89232, Note_on_c, 14, 52, 30
21, 89264, Note_on_c, 14, 52, 0
21, 89280, Note_on_c, 14, 48, 35
21, 89312, Note_on_c, 14, 48, 0
21, 89328, Note_on_c, 14, 48, 29
21, 89360, Note_on_c, 14, 48, 0
21, 89376, Note_on_c, 14, 40, 35
21, 89408, Note_on_c, 14, 40, 0
21, 89424, Note_on_c, 14, 40, 35
21, 89456, Note_on_c, 14, 40, 0
21, 89472, Note_on_c, 14, 48, 35
21, 89504, Note_on_c, 14, 48, 0
21, 89520, Note_on_c, 14, 48, 32
21, 89552, Note_on_c, 14, 48, 0
21, 89568, Note_on_c, 14, 40, 26
21, 89600, Note_on_c, 14, 40, 0
21, 89616, Note_on_c, 14, 40, 28
21, 89648, Note_on_c, 14, 40, 0
21, 89664, Note_on_c, 14, 48, 27
21, 89696, Note_on_c, 14, 48, 0
21, 89712, Note_on_c, 14, 48, 25
21, 89744, Note_on_c, 14, 48, 0
21, 89760, Note_on_c, 14, 52, 28
21, 89792, Note_on_c, 14, 52, 0
21, 89808, Note_on_c, 14, 52, 30
21, 89840, Note_on_c, 14, 52, 0
21, 89856, Note_on_c, 14, 48, 33
21, 89888, Note_on_c, 14, 48, 0
21, 89904, Note_on_c, 14, 48, 26
21, 89936, Note_on_c, 14, 48, 0
21, 89952, Note_on_c, 14, 40, 29
21, 89984, Note_on_c, 14, 40, 0
21, 90000, Note_on_c, 14, 40, 27
21, 90032, Note_on_c, 14, 40, 0
21, 90048, Note_on_c, 14, 48, 25
21, 90080, Note_on_c, 14, 48, 0
21, 90096, Note_on_c, 14, 48, 32
21, 90128, Note_on_c, 14, 48, 0
21, 90144, Note_on_c, 14, 40, 26
21, 90176, Note_on_c, 14, 40, 0
21, 90192, Note_on_c, 14, 40, 34
21, 90224, Note_on_c, 14, 40, 0
21, 90240, Note_on_c, 14, 48, 30
21, 90272, Note_on_c, 14, 48, 0
21, 90288, Note_on_c, 14, 48, 33
21, 90320, Note_on_c, 14, 48, 0
21, 90336, Note_on_c, 14, 52, 31
21, 90368, Note_on_c, 14, 52, 0
21, 90384, Note_on_c, 14, 52, 30
21, 90416, Note_on_c, 14, 52, 0
21, 90432, Note_on_c, 14, 48, 28
21, 90464, Note_on_c, 14, 48, 0
21, 90480, Note_on_c, 14, 48, 31
21, 90512, Note_on_c, 14, 48, 0
21, 90528, Note_on_c, 14, 40, 26
21, 90560, Note_on_c, 14, 40, 0
21, 90576, Note_on_c, 14, 40, 26
21, 90608, Note_on_c, 14, 40, 0
21, 90624, Note_on_c, 14, 48, 29
21, 90656, Note_on_c, 14, 48, 0
21, 90672, Note_on_c, 14, 48, 26
21, 90704, Note_on_c, 14, 48, 0
21, 90720, Note_on_c, 14, 37, 40
21, 90752, Note_on_c, 14, 37, 0
21, 90768, Note_on_c, 14, 37, 48
21, 90800, Note_on_c, 14, 37, 0
21, 90816, Note_on_c, 14, 49, 47
21, 90848, Note_on_c, 14, 49, 0
21, 90864, Note_on_c, 14, 49, 48
21, 90896, Note_on_c, 14, 49, 0
21, 90912, Note_on_c, 14, 56, 45
21, 90944, Note_on_c, 14, 56, 0
21, 90960, Note_on_c, 14, 56, 51
21, 90992, Note_on_c, 14, 56, 0
21, 91008, Note_on_c, 14, 49, 51
21, 91040, Note_on_c, 14, 49, 0
21, 91056, Note_on_c, 14, 49, 49
21, 91088, Note_on_c, 14, 49, 0
21, 91104, Note_on_c, 14, 56, 52
21, 91136, Note_on_c, 14, 56, 0
21, 91152, Note_on_c, 14, 56, 52
21, 91184, Note_on_c, 14, 56, 0
21, 91200, Note_on_c, 14, 49, 62
21, 91232, Note_on_c, 14, 49, 0
21, 91248, Note_on_c, 14, 49, 65
21, 91280, Note_on_c, 14, 49, 0
21, 91296, Control_c, 14, 11, 92
21, 91296, Note_on_c, 14, 51, 79
21, 91301, Control_c, 14, 11, 93
21, 91306, Control_c, 14, 11, 94
21, 91312, Control_c, 14, 11, 95
21, 91317, Control_c, 14, 11, 96
21, 91323, Control_c, 14, 11, 97
21, 91328, Control_c, 14, 11, 98
21, 91334, Control_c, 14, 11, 99
21, 91339, Control_c, 14, 11, 100
21, 91345, Control_c, 14, 11, 101
21, 91350, Control_c, 14, 11, 102
21, 91356, Control_c, 14, 11, 103
21, 91361, Control_c, 14, 11, 104
21, 91367, Control_c, 14, 11, 105
21, 91372, Control_c, 14, 11, 106
21, 91378, Control_c, 14, 11, 107
21, 91383, Control_c, 14, 11, 108
21, 91389, Control_c, 14, 11, 109
21, 91394, Control_c, 14, 11, 110
21, 91400, Control_c, 14, 11, 111
21, 91405, Control_c, 14, 11, 112
21, 91411, Control_c, 14, 11, 113
21, 91416, Control_c, 14, 11, 114
21, 91422, Control_c, 14, 11, 115
21, 91427, Control_c, 14, 11, 116
21, 91433, Control_c, 14, 11, 117
21, 91438, Control_c, 14, 11, 118
21, 91444, Control_c, 14, 11, 119
21, 91449, Control_c, 14, 11, 120
21, 91455, Control_c, 14, 11, 121
21, 91460, Control_c, 14, 11, 122
21, 91466, Control_c, 14, 11, 123
21, 91471, Control_c, 14, 11, 124
21, 91477, Control_c, 14, 11, 125
21, 91482, Control_c, 14, 11, 126
21, 91488, Note_on_c, 14, 51, 0
21, 91488, Control_c, 14, 11, 127
21, 91488, Note_on_c, 14, 54, 73
21, 91776, Note_on_c, 14, 54, 0
21, 91776, Note_on_c, 14, 53, 72
21, 91872, Note_on_c, 14, 53, 0
21, 91872, Control_c, 14, 11, 92
21, 91872, Note_on_c, 14, 51, 79
21, 91877, Control_c, 14, 11, 93
21, 91882, Control_c, 14, 11, 94
21, 91888, Control_c, 14, 11, 95
21, 91893, Control_c, 14, 11, 96
21, 91899, Control_c, 14, 11, 97
21, 91904, Control_c, 14, 11, 98
21, 91910, Control_c, 14, 11, 99
21, 91915, Control_c, 14, 11, 100
21, 91921, Control_c, 14, 11, 101
21, 91926, Control_c, 14, 11, 102
21, 91932, Control_c, 14, 11, 103
21, 91937, Control_c, 14, 11, 104
21, 91943, Control_c, 14, 11, 105
21, 91948, Control_c, 14, 11, 106
21, 91954, Control_c, 14, 11, 107
21, 91959, Control_c, 14, 11, 108
21, 91965, Control_c, 14, 11, 109
21, 91970, Control_c, 14, 11, 110
21, 91976, Control_c, 14, 11, 111
21, 91981, Control_c, 14, 11, 112
21, 91987, Control_c, 14, 11, 113
21, 91992, Control_c, 14, 11, 114
21, 91998, Control_c, 14, 11, 115
21, 92003, Control_c, 14, 11, 116
21, 92009, Control_c, 14, 11, 117
21, 92014, Control_c, 14, 11, 118
21, 92020, Control_c, 14, 11, 119
21, 92025, Control_c, 14, 11, 120
21, 92031, Control_c, 14, 11, 121
21, 92036, Control_c, 14, 11, 122
21, 92042, Control_c, 14, 11, 123
21, 92047, Control_c, 14, 11, 124
21, 92053, Control_c, 14, 11, 125
21, 92058, Control_c, 14, 11, 126
21, 92064, Note_on_c, 14, 51, 0
21, 92064, Control_c, 14, 11, 127
21, 92064, Note_on_c, 14, 56, 77
21, 92256, Note_on_c, 14, 56, 0
21, 92256, Note_on_c, 14, 54, 73
21, 92448, Note_on_c, 14, 54, 0
21, 92448, Control_c, 14, 11, 63
21, 92448, Note_on_c, 14, 52, 77
21, 92466, Control_c, 14, 11, 64
21, 92484, Control_c, 14, 11, 65
21, 92502, Control_c, 14, 11, 66
21, 92520, Control_c, 14, 11, 67
21, 92538, Control_c, 14, 11, 68
21, 92556, Control_c, 14, 11, 69
21, 92574, Control_c, 14, 11, 70
21, 92592, Control_c, 14, 11, 71
21, 92610, Control_c, 14, 11, 72
21, 92628, Control_c, 14, 11, 73
21, 92646, Control_c, 14, 11, 74
21, 92664, Control_c, 14, 11, 75
21, 92682, Control_c, 14, 11, 76
21, 92700, Control_c, 14, 11, 77
21, 92718, Control_c, 14, 11, 78
21, 92736, Control_c, 14, 11, 79
21, 92754, Control_c, 14, 11, 80
21, 92772, Control_c, 14, 11, 81
21, 92790, Control_c, 14, 11, 82
21, 92808, Control_c, 14, 11, 83
21, 92826, Control_c, 14, 11, 84
21, 92832, Note_on_c, 14, 52, 0
21, 92832, Note_on_c, 14, 47, 72
21, 92844, Control_c, 14, 11, 85
21, 92862, Control_c, 14, 11, 86
21, 92880, Control_c, 14, 11, 87
21, 92898, Control_c, 14, 11, 88
21, 92916, Control_c, 14, 11, 89
21, 92934, Control_c, 14, 11, 90
21, 92952, Control_c, 14, 11, 91
21, 92970, Control_c, 14, 11, 92
21, 92988, Control_c, 14, 11, 93
21, 93006, Control_c, 14, 11, 94
21, 93024, Control_c, 14, 11, 95
21, 93042, Control_c, 14, 11, 96
21, 93060, Control_c, 14, 11, 97
21, 93078, Control_c, 14, 11, 98
21, 93096, Control_c, 14, 11, 99
21, 93114, Control_c, 14, 11, 100
21, 93132, Control_c, 14, 11, 101
21, 93150, Control_c, 14, 11, 102
21, 93168, Control_c, 14, 11, 103
21, 93186, Control_c, 14, 11, 104
21, 93204, Control_c, 14, 11, 105
21, 93216, Note_on_c, 14, 47, 0
21, 93216, Note_on_c, 14, 50, 79
21, 93222, Control_c, 14, 11, 106
21, 93240, Control_c, 14, 11, 107
21, 93258, Control_c, 14, 11, 108
21, 93276, Control_c, 14, 11, 109
21, 93294, Control_c, 14, 11, 110
21, 93312, Control_c, 14, 11, 111
21, 93330, Control_c, 14, 11, 112
21, 93348, Control_c, 14, 11, 113
21, 93366, Control_c, 14, 11, 114
21, 93384, Control_c, 14, 11, 115
21, 93402, Control_c, 14, 11, 116
21, 93420, Control_c, 14, 11, 117
21, 93438, Control_c, 14, 11, 118
21, 93456, Control_c, 14, 11, 119
21, 93474, Control_c, 14, 11, 120
21, 93492, Control_c, 14, 11, 121
21, 93510, Control_c, 14, 11, 122
21, 93528, Control_c, 14, 11, 123
21, 93546, Control_c, 14, 11, 124
21, 93564, Control_c, 14, 11, 125
21, 93582, Control_c, 14, 11, 126
21, 93600, Note_on_c, 14, 50, 0
21, 93600, Control_c, 14, 11, 127
21, 93600, Control_c, 14, 11, 92
21, 93600, Note_on_c, 14, 51, 72
21, 93605, Control_c, 14, 11, 93
21, 93610, Control_c, 14, 11, 94
21, 93616, Control_c, 14, 11, 95
21, 93621, Control_c, 14, 11, 96
21, 93627, Control_c, 14, 11, 97
21, 93632, Control_c, 14, 11, 98
21, 93638, Control_c, 14, 11, 99
21, 93643, Control_c, 14, 11, 100
21, 93649, Control_c, 14, 11, 101
21, 93654, Control_c, 14, 11, 102
21, 93660, Control_c, 14, 11, 103
21, 93665, Control_c, 14, 11, 104
21, 93671, Control_c, 14, 11, 105
21, 93676, Control_c, 14, 11, 106
21, 93682, Control_c, 14, 11, 107
21, 93687, Control_c, 14, 11, 108
21, 93693, Control_c, 14, 11, 109
21, 93698, Control_c, 14, 11, 110
21, 93704, Control_c, 14, 11, 111
21, 93709, Control_c, 14, 11, 112
21, 93715, Control_c, 14, 11, 113
21, 93720, Control_c, 14, 11, 114
21, 93726, Control_c, 14, 11, 115
21, 93731, Control_c, 14, 11, 116
21, 93737, Control_c, 14, 11, 117
21, 93742, Control_c, 14, 11, 118
21, 93748, Control_c, 14, 11, 119
21, 93753, Control_c, 14, 11, 120
21, 93759, Control_c, 14, 11, 121
21, 93764, Control_c, 14, 11, 122
21, 93770, Control_c, 14, 11, 123
21, 93775, Control_c, 14, 11, 124
21, 93781, Control_c, 14, 11, 125
21, 93786, Control_c, 14, 11, 126
21, 93792, Note_on_c, 14, 51, 0
21, 93792, Control_c, 14, 11, 127
21, 93792, Note_on_c, 14, 54, 80
21, 94080, Note_on_c, 14, 54, 0
21, 94080, Note_on_c, 14, 53, 77
21, 94176, Note_on_c, 14, 53, 0
21, 94176, Control_c, 14, 11, 92
21, 94176, Note_on_c, 14, 51, 75
21, 94181, Control_c, 14, 11, 93
21, 94186, Control_c, 14, 11, 94
21, 94192, Control_c, 14, 11, 95
21, 94197, Control_c, 14, 11, 96
21, 94203, Control_c, 14, 11, 97
21, 94208, Control_c, 14, 11, 98
21, 94214, Control_c, 14, 11, 99
21, 94219, Control_c, 14, 11, 100
21, 94225, Control_c, 14, 11, 101
21, 94230, Control_c, 14, 11, 102
21, 94236, Control_c, 14, 11, 103
21, 94241, Control_c, 14, 11, 104
21, 94247, Control_c, 14, 11, 105
21, 94252, Control_c, 14, 11, 106
21, 94258, Control_c, 14, 11, 107
21, 94263, Control_c, 14, 11, 108
21, 94269, Control_c, 14, 11, 109
21, 94274, Control_c, 14, 11, 110
21, 94280, Control_c, 14, 11, 111
21, 94285, Control_c, 14, 11, 112
21, 94291, Control_c, 14, 11, 113
21, 94296, Control_c, 14, 11, 114
21, 94302, Control_c, 14, 11, 115
21, 94307, Control_c, 14, 11, 116
21, 94313, Control_c, 14, 11, 117
21, 94318, Control_c, 14, 11, 118
21, 94324, Control_c, 14, 11, 119
21, 94329, Control_c, 14, 11, 120
21, 94335, Control_c, 14, 11, 121
21, 94340, Control_c, 14, 11, 122
21, 94346, Control_c, 14, 11, 123
21, 94351, Control_c, 14, 11, 124
21, 94357, Control_c, 14, 11, 125
21, 94362, Control_c, 14, 11, 126
21, 94368, Note_on_c, 14, 51, 0
21, 94368, Control_c, 14, 11, 127
21, 94368, Note_on_c, 14, 56, 71
21, 94560, Note_on_c, 14, 56, 0
21, 94560, Note_on_c, 14, 54, 72
21, 94752, Control_c, 14, 11, 92
21, 94757, Control_c, 14, 11, 93
21, 94762, Control_c, 14, 11, 94
21, 94768, Control_c, 14, 11, 95
21, 94773, Control_c, 14, 11, 96
21, 94779, Control_c, 14, 11, 97
21, 94784, Control_c, 14, 11, 98
21, 94790, Control_c, 14, 11, 99
21, 94795, Control_c, 14, 11, 100
21, 94801, Control_c, 14, 11, 101
21, 94806, Control_c, 14, 11, 102
21, 94812, Control_c, 14, 11, 103
21, 94817, Control_c, 14, 11, 104
21, 94823, Control_c, 14, 11, 105
21, 94828, Control_c, 14, 11, 106
21, 94834, Control_c, 14, 11, 107
21, 94839, Control_c, 14, 11, 108
21, 94845, Control_c, 14, 11, 109
21, 94850, Control_c, 14, 11, 110
21, 94856, Control_c, 14, 11, 111
21, 94861, Control_c, 14, 11, 112
21, 94867, Control_c, 14, 11, 113
21, 94872, Control_c, 14, 11, 114
21, 94878, Control_c, 14, 11, 115
21, 94883, Control_c, 14, 11, 116
21, 94889, Control_c, 14, 11, 117
21, 94894, Control_c, 14, 11, 118
21, 94900, Control_c, 14, 11, 119
21, 94905, Control_c, 14, 11, 120
21, 94911, Control_c, 14, 11, 121
21, 94916, Control_c, 14, 11, 122
21, 94922, Control_c, 14, 11, 123
21, 94927, Control_c, 14, 11, 124
21, 94933, Control_c, 14, 11, 125
21, 94938, Control_c, 14, 11, 126
21, 94944, Note_on_c, 14, 54, 0
21, 94944, Control_c, 14, 11, 127
21, 94944, Note_on_c, 14, 59, 78
21, 95232, Note_on_c, 14, 59, 0
21, 95232, Note_on_c, 14, 57, 78
21, 95328, Note_on_c, 14, 57, 0
21, 95328, Control_c, 14, 11, 92
21, 95328, Note_on_c, 14, 54, 70
21, 95333, Control_c, 14, 11, 93
21, 95338, Control_c, 14, 11, 94
21, 95344, Control_c, 14, 11, 95
21, 95349, Control_c, 14, 11, 96
21, 95355, Control_c, 14, 11, 97
21, 95360, Control_c, 14, 11, 98
21, 95366, Control_c, 14, 11, 99
21, 95371, Control_c, 14, 11, 100
21, 95377, Control_c, 14, 11, 101
21, 95382, Control_c, 14, 11, 102
21, 95388, Control_c, 14, 11, 103
21, 95393, Control_c, 14, 11, 104
21, 95399, Control_c, 14, 11, 105
21, 95404, Control_c, 14, 11, 106
21, 95410, Control_c, 14, 11, 107
21, 95415, Control_c, 14, 11, 108
21, 95421, Control_c, 14, 11, 109
21, 95426, Control_c, 14, 11, 110
21, 95432, Control_c, 14, 11, 111
21, 95437, Control_c, 14, 11, 112
21, 95443, Control_c, 14, 11, 113
21, 95448, Control_c, 14, 11, 114
21, 95454, Control_c, 14, 11, 115
21, 95459, Control_c, 14, 11, 116
21, 95465, Control_c, 14, 11, 117
21, 95470, Control_c, 14, 11, 118
21, 95476, Control_c, 14, 11, 119
21, 95481, Control_c, 14, 11, 120
21, 95487, Control_c, 14, 11, 121
21, 95492, Control_c, 14, 11, 122
21, 95498, Control_c, 14, 11, 123
21, 95503, Control_c, 14, 11, 124
21, 95509, Control_c, 14, 11, 125
21, 95514, Control_c, 14, 11, 126
21, 95520, Note_on_c, 14, 54, 0
21, 95520, Control_c, 14, 11, 127
21, 95520, Note_on_c, 14, 59, 74
21, 95808, Note_on_c, 14, 59, 0
21, 95808, Note_on_c, 14, 57, 71
21, 95904, Note_on_c, 14, 57, 0
21, 95904, Note_on_c, 14, 44, 50
21, 95936, Note_on_c, 14, 44, 0
21, 95952, Note_on_c, 14, 44, 49
21, 95984, Note_on_c, 14, 44, 0
21, 96000, Note_on_c, 14, 52, 47
21, 96032, Note_on_c, 14, 52, 0
21, 96048, Note_on_c, 14, 52, 46
21, 96080, Note_on_c, 14, 52, 0
21, 96096, Note_on_c, 14, 61, 50
21, 96128, Note_on_c, 14, 61, 0
21, 96144, Note_on_c, 14, 61, 49
21, 96176, Note_on_c, 14, 61, 0
21, 96192, Note_on_c, 14, 52, 40
21, 96224, Note_on_c, 14, 52, 0
21, 96240, Note_on_c, 14, 52, 46
21, 96272, Note_on_c, 14, 52, 0
21, 96288, Note_on_c, 14, 44, 48
21, 96320, Note_on_c, 14, 44, 0
21, 96336, Note_on_c, 14, 44, 40
21, 96368, Note_on_c, 14, 44, 0
21, 96384, Note_on_c, 14, 52, 46
21, 96416, Note_on_c, 14, 52, 0
21, 96432, Note_on_c, 14, 52, 46
21, 96464, Note_on_c, 14, 52, 0
21, 96480, Note_on_c, 14, 61, 48
21, 96512, Note_on_c, 14, 61, 0
21, 96528, Note_on_c, 14, 61, 41
21, 96560, Note_on_c, 14, 61, 0
21, 96576, Note_on_c, 14, 52, 49
21, 96608, Note_on_c, 14, 52, 0
21, 96624, Note_on_c, 14, 52, 49
21, 96656, Note_on_c, 14, 52, 0
21, 96672, Note_on_c, 14, 44, 46
21, 96704, Note_on_c, 14, 44, 0
21, 96720, Note_on_c, 14, 44, 48
21, 96752, Note_on_c, 14, 44, 0
21, 96768, Note_on_c, 14, 52, 49
21, 96800, Note_on_c, 14, 52, 0
21, 96816, Note_on_c, 14, 52, 45
21, 96848, Note_on_c, 14, 52, 0
21, 96864, Note_on_c, 14, 61, 50
21, 96896, Note_on_c, 14, 61, 0
21, 96912, Note_on_c, 14, 61, 46
21, 96944, Note_on_c, 14, 61, 0
21, 96960, Note_on_c, 14, 52, 43
21, 96992, Note_on_c, 14, 52, 0
21, 97008, Note_on_c, 14, 52, 41
21, 97040, Note_on_c, 14, 52, 0
21, 97056, Note_on_c, 14, 44, 40
21, 97088, Note_on_c, 14, 44, 0
21, 97104, Note_on_c, 14, 44, 46
21, 97136, Note_on_c, 14, 44, 0
21, 97152, Note_on_c, 14, 52, 49
21, 97184, Note_on_c, 14, 52, 0
21, 97200, Note_on_c, 14, 52, 53
21, 97232, Note_on_c, 14, 52, 0
21, 97248, Note_on_c, 14, 44, 53
21, 97280, Note_on_c, 14, 44, 0
21, 97296, Note_on_c, 14, 44, 54
21, 97328, Note_on_c, 14, 44, 0
21, 97344, Note_on_c, 14, 52, 55
21, 97376, Note_on_c, 14, 52, 0
21, 97392, Note_on_c, 14, 52, 50
21, 97424, Note_on_c, 14, 52, 0
21, 97440, Note_on_c, 14, 44, 57
21, 97472, Note_on_c, 14, 44, 0
21, 97488, Note_on_c, 14, 44, 56
21, 97520, Note_on_c, 14, 44, 0
21, 97536, Note_on_c, 14, 52, 54
21, 97568, Note_on_c, 14, 52, 0
21, 97584, Note_on_c, 14, 52, 58
21, 97616, Note_on_c, 14, 52, 0
21, 97632, Note_on_c, 14, 44, 60
21, 97664, Note_on_c, 14, 44, 0
21, 97680, Note_on_c, 14, 44, 53
21, 97712, Note_on_c, 14, 44, 0
21, 97728, Note_on_c, 14, 52, 64
21, 97760, Note_on_c, 14, 52, 0
21, 97776, Note_on_c, 14, 52, 59
21, 97808, Note_on_c, 14, 52, 0
21, 97824, Note_on_c, 14, 56, 64
21, 97856, Note_on_c, 14, 56, 0
21, 97872, Note_on_c, 14, 56, 63
21, 97904, Note_on_c, 14, 56, 0
21, 97920, Note_on_c, 14, 52, 67
21, 97952, Note_on_c, 14, 52, 0
21, 97968, Note_on_c, 14, 52, 69
21, 98000, Note_on_c, 14, 52, 0
21, 98016, Note_on_c, 14, 44, 72
21, 98048, Note_on_c, 14, 44, 0
21, 98064, Note_on_c, 14, 44, 68
21, 98096, Note_on_c, 14, 44, 0
21, 98112, Note_on_c, 14, 52, 69
21, 98144, Note_on_c, 14, 52, 0
21, 98160, Note_on_c, 14, 52, 80
21, 98192, Note_on_c, 14, 52, 0
21, 98208, Note_on_c, 14, 44, 42
21, 98240, Note_on_c, 14, 44, 0
21, 98256, Note_on_c, 14, 44, 44
21, 98288, Note_on_c, 14, 44, 0
21, 98304, Note_on_c, 14, 52, 50
21, 98336, Note_on_c, 14, 52, 0
21, 98352, Note_on_c, 14, 52, 42
21, 98384, Note_on_c, 14, 52, 0
21, 98400, Note_on_c, 14, 61, 40
21, 98432, Note_on_c, 14, 61, 0
21, 98448, Note_on_c, 14, 61, 42
21, 98480, Note_on_c, 14, 61, 0
21, 98496, Note_on_c, 14, 52, 45
21, 98528, Note_on_c, 14, 52, 0
21, 98544, Note_on_c, 14, 52, 50
21, 98576, Note_on_c, 14, 52, 0
21, 98592, Note_on_c, 14, 44, 47
21, 98624, Note_on_c, 14, 44, 0
21, 98640, Note_on_c, 14, 44, 43
21, 98672, Note_on_c, 14, 44, 0
21, 98688, Note_on_c, 14, 52, 44
21, 98720, Note_on_c, 14, 52, 0
21, 98736, Note_on_c, 14, 52, 46
21, 98768, Note_on_c, 14, 52, 0
21, 98784, Note_on_c, 14, 61, 49
21, 98816, Note_on_c, 14, 61, 0
21, 98832, Note_on_c, 14, 61, 40
21, 98864, Note_on_c, 14, 61, 0
21, 98880, Note_on_c, 14, 52, 44
21, 98912, Note_on_c, 14, 52, 0
21, 98928, Note_on_c, 14, 52, 42
21, 98960, Note_on_c, 14, 52, 0
21, 98976, Note_on_c, 14, 44, 49
21, 99008, Note_on_c, 14, 44, 0
21, 99024, Note_on_c, 14, 44, 50
21, 99056, Note_on_c, 14, 44, 0
21, 99072, Note_on_c, 14, 52, 42
21, 99104, Note_on_c, 14, 52, 0
21, 99120, Note_on_c, 14, 52, 49
21, 99152, Note_on_c, 14, 52, 0
21, 99168, Note_on_c, 14, 61, 47
21, 99200, Note_on_c, 14, 61, 0
21, 99216, Note_on_c, 14, 61, 44
21, 99248, Note_on_c, 14, 61, 0
21, 99264, Note_on_c, 14, 52, 50
21, 99296, Note_on_c, 14, 52, 0
21, 99312, Note_on_c, 14, 52, 47
21, 99344, Note_on_c, 14, 52, 0
21, 99360, Note_on_c, 14, 44, 44
21, 99392, Note_on_c, 14, 44, 0
21, 99408, Note_on_c, 14, 44, 51
21, 99440, Note_on_c, 14, 44, 0
21, 99456, Note_on_c, 14, 52, 51
21, 99488, Note_on_c, 14, 52, 0
21, 99504, Note_on_c, 14, 52, 47
21, 99536, Note_on_c, 14, 52, 0
21, 99552, Note_on_c, 14, 44, 54
21, 99584, Note_on_c, 14, 44, 0
21, 99600, Note_on_c, 14, 44, 45
21, 99632, Note_on_c, 14, 44, 0
21, 99648, Note_on_c, 14, 52, 56
21, 99680, Note_on_c, 14, 52, 0
21, 99696, Note_on_c, 14, 52, 49
21, 99728, Note_on_c, 14, 52, 0
21, 99744, Note_on_c, 14, 44, 51
21, 99776, Note_on_c, 14, 44, 0
21, 99792, Note_on_c, 14, 44, 59
21, 99824, Note_on_c, 14, 44, 0
21, 99840, Note_on_c, 14, 52, 59
21, 99872, Note_on_c, 14, 52, 0
21, 99888, Note_on_c, 14, 52, 57
21, 99920, Note_on_c, 14, 52, 0
21, 99936, Note_on_c, 14, 44, 56
21, 99968, Note_on_c, 14, 44, 0
21, 99984, Note_on_c, 14, 44, 62
21, 100016, Note_on_c, 14, 44, 0
21, 100032, Note_on_c, 14, 52, 63
21, 100064, Note_on_c, 14, 52, 0
21, 100080, Note_on_c, 14, 52, 55
21, 100112, Note_on_c, 14, 52, 0
21, 100128, Note_on_c, 14, 56, 59
21, 100160, Note_on_c, 14, 56, 0
21, 100176, Note_on_c, 14, 56, 62
21, 100208, Note_on_c, 14, 56, 0
21, 100224, Note_on_c, 14, 52, 63
21, 100256, Note_on_c, 14, 52, 0
21, 100272, Note_on_c, 14, 52, 70
21, 100304, Note_on_c, 14, 52, 0
21, 100320, Note_on_c, 14, 44, 68
21, 100352, Note_on_c, 14, 44, 0
21, 100368, Note_on_c, 14, 44, 68
21, 100400, Note_on_c, 14, 44, 0
21, 100416, Note_on_c, 14, 52, 76
21, 100448, Note_on_c, 14, 52, 0
21, 100464, Note_on_c, 14, 52, 72
21, 100496, Note_on_c, 14, 52, 0
21, 100512, Note_on_c, 14, 44, 70
21, 100704, Note_on_c, 14, 44, 0
21, 100704, Program_c, 14, 45
21, 100704, Note_on_c, 14, 45, 41
21, 100896, Note_on_c, 14, 45, 0
21, 100896, Note_on_c, 14, 47, 43
21, 101088, Note_on_c, 14, 47, 0
21, 101088, Note_on_c, 14, 49, 47
21, 101280, Note_on_c, 14, 49, 0
21, 101280, Note_on_c, 14, 51, 47
21, 101472, Note_on_c, 14, 51, 0
21, 101472, Note_on_c, 14, 52, 43
21, 101664, Note_on_c, 14, 52, 0
21, 101664, Note_on_c, 14, 54, 46
21, 101856, Note_on_c, 14, 54, 0
21, 101856, Note_on_c, 14, 56, 50
21, 102048, Note_on_c, 14, 56, 0
21, 102048, Note_on_c, 14, 57, 59
21, 102240, Note_on_c, 14, 57, 0
21, 102240, Note_on_c, 14, 59, 62
21, 102432, Note_on_c, 14, 59, 0
21, 102432, Note_on_c, 14, 61, 71
21, 102624, Note_on_c, 14, 61, 0
21, 102624, Note_on_c, 14, 64, 77
21, 102816, Note_on_c, 14, 64, 0
21, 102816, Note_on_c, 14, 44, 47
21, 103008, Note_on_c, 14, 44, 0
21, 103008, Note_on_c, 14, 45, 44
21, 103200, Note_on_c, 14, 45, 0
21, 103200, Note_on_c, 14, 47, 49
21, 103392, Note_on_c, 14, 47, 0
21, 103392, Note_on_c, 14, 49, 48
21, 103584, Note_on_c, 14, 49, 0
21, 103584, Note_on_c, 14, 50, 44
21, 103776, Note_on_c, 14, 50, 0
21, 103776, Note_on_c, 14, 52, 48
21, 103968, Note_on_c, 14, 52, 0
21, 103968, Note_on_c, 14, 54, 48
21, 104160, Note_on_c, 14, 54, 0
21, 104160, Note_on_c, 14, 56, 51
21, 104352, Note_on_c, 14, 56, 0
21, 104352, Note_on_c, 14, 57, 55
21, 104544, Note_on_c, 14, 57, 0
21, 104544, Note_on_c, 14, 59, 66
21, 104736, Note_on_c, 14, 59, 0
21, 104736, Note_on_c, 14, 61, 64
21, 104928, Note_on_c, 14, 61, 0
21, 104928, Note_on_c, 14, 62, 74
21, 105120, Note_on_c, 14, 62, 0
21, 105120, Note_on_c, 14, 44, 49
21, 105312, Note_on_c, 14, 44, 0
21, 105312, Note_on_c, 14, 45, 43
21, 105504, Note_on_c, 14, 45, 0
21, 105504, Note_on_c, 14, 47, 41
21, 105696, Note_on_c, 14, 47, 0
21, 105696, Note_on_c, 14, 49, 50
21, 105888, Note_on_c, 14, 49, 0
21, 105888, Note_on_c, 14, 50, 45
21, 106080, Note_on_c, 14, 50, 0
21, 106080, Note_on_c, 14, 52, 43
21, 106272, Note_on_c, 14, 52, 0
21, 106272, Note_on_c, 14, 54, 47
21, 106464, Note_on_c, 14, 54, 0
21, 106464, Note_on_c, 14, 56, 47
21, 106656, Note_on_c, 14, 56, 0
21, 106656, Note_on_c, 14, 57, 54
21, 106848, Note_on_c, 14, 57, 0
21, 106848, Note_on_c, 14, 59, 66
21, 107040, Note_on_c, 14, 59, 0
21, 107040, Note_on_c, 14, 61, 65
21, 107232, Note_on_c, 14, 61, 0
21, 107232, Note_on_c, 14, 62, 72
21, 107424, Note_on_c, 14, 62, 0
21, 107424, Program_c, 14, 48
21, 107424, Note_on_c, 14, 63, 89
21, 107808, Note_on_c, 14, 63, 0
21, 107808, Note_on_c, 14, 66, 90
21, 108192, Note_on_c, 14, 66, 0
21, 108192, Note_on_c, 14, 65, 91
21, 108576, Note_on_c, 14, 65, 0
21, 108576, Note_on_c, 14, 63, 92
21, 108960, Note_on_c, 14, 63, 0
21, 108960, Note_on_c, 14, 68, 87
21, 109344, Note_on_c, 14, 68, 0
21, 109344, Note_on_c, 14, 66, 97
21, 109728, Note_on_c, 14, 66, 0
21, 109728, Note_on_c, 14, 65, 94
21, 110880, Note_on_c, 14, 65, 0
21, 110880, Note_on_c, 14, 62, 96
21, 111456, Note_on_c, 14, 62, 0
21, 111456, Note_on_c, 14, 65, 91
21, 112032, Note_on_c, 14, 65, 0
21, 112032, Note_on_c, 14, 63, 92
21, 112416, Note_on_c, 14, 63, 0
21, 112416, Note_on_c, 14, 66, 95
21, 112800, Note_on_c, 14, 66, 0
21, 112800, Note_on_c, 14, 65, 95
21, 113184, Note_on_c, 14, 65, 0
21, 113184, Note_on_c, 14, 63, 90
21, 113568, Note_on_c, 14, 63, 0
21, 113568, Note_on_c, 14, 68, 91
21, 113952, Note_on_c, 14, 68, 0
21, 113952, Note_on_c, 14, 66, 93
21, 114336, Note_on_c, 14, 66, 0
21, 114336, Note_on_c, 14, 65, 105
21, 115488, Note_on_c, 14, 65, 0
21, 115488, Control_c, 14, 11, 92
21, 115488, Note_on_c, 14, 62, 127
21, 115520, Control_c, 14, 11, 93
21, 115553, Control_c, 14, 11, 94
21, 115586, Control_c, 14, 11, 95
21, 115619, Control_c, 14, 11, 96
21, 115652, Control_c, 14, 11, 97
21, 115685, Control_c, 14, 11, 98
21, 115718, Control_c, 14, 11, 99
21, 115751, Control_c, 14, 11, 100
21, 115784, Control_c, 14, 11, 101
21, 115817, Control_c, 14, 11, 102
21, 115850, Control_c, 14, 11, 103
21, 115882, Control_c, 14, 11, 104
21, 115915, Control_c, 14, 11, 105
21, 115948, Control_c, 14, 11, 106
21, 115981, Control_c, 14, 11, 107
21, 116014, Control_c, 14, 11, 108
21, 116047, Control_c, 14, 11, 109
21, 116064, Note_on_c, 14, 62, 0
21, 116064, Note_on_c, 14, 65, 127
21, 116080, Control_c, 14, 11, 110
21, 116113, Control_c, 14, 11, 111
21, 116146, Control_c, 14, 11, 112
21, 116179, Control_c, 14, 11, 113
21, 116212, Control_c, 14, 11, 114
21, 116245, Control_c, 14, 11, 115
21, 116277, Control_c, 14, 11, 116
21, 116310, Control_c, 14, 11, 117
21, 116343, Control_c, 14, 11, 118
21, 116376, Control_c, 14, 11, 119
21, 116409, Control_c, 14, 11, 120
21, 116442, Control_c, 14, 11, 121
21, 116475, Control_c, 14, 11, 122
21, 116508, Control_c, 14, 11, 123
21, 116541, Control_c, 14, 11, 124
21, 116574, Control_c, 14, 11, 125
21, 116607, Control_c, 14, 11, 126
21, 116640, Note_on_c, 14, 65, 0
21, 116640, Control_c, 14, 11, 127
21, 116640, Note_on_c, 14, 46, 127
21, 116640, Note_on_c, 14, 53, 123
21, 118944, Note_on_c, 14, 46, 0
21, 118944, Note_on_c, 14, 53, 0
21, 118944, Note_on_c, 14, 48, 93
21, 118976, Note_on_c, 14, 48, 0
21, 118992, Note_on_c, 14, 48, 92
21, 119024, Note_on_c, 14, 48, 0
21, 119040, Note_on_c, 14, 47, 95
21, 119072, Note_on_c, 14, 47, 0
21, 119088, Note_on_c, 14, 47, 93
21, 119120, Note_on_c, 14, 47, 0
21, 119136, Note_on_c, 14, 46, 88
21, 119168, Note_on_c, 14, 46, 0
21, 119184, Note_on_c, 14, 46, 95
21, 119216, Note_on_c, 14, 46, 0
21, 119232, Note_on_c, 14, 50, 95
21, 119264, Note_on_c, 14, 50, 0
21, 119280, Note_on_c, 14, 50, 93
21, 119312, Note_on_c, 14, 50, 0
21, 119328, Note_on_c, 14, 48, 95
21, 119360, Note_on_c, 14, 48, 0
21, 119376, Note_on_c, 14, 48, 88
21, 119408, Note_on_c, 14, 48, 0
21, 119424, Note_on_c, 14, 47, 95
21, 119456, Note_on_c, 14, 47, 0
21, 119472, Note_on_c, 14, 47, 90
21, 119504, Note_on_c, 14, 47, 0
21, 119520, Note_on_c, 14, 46, 95
21, 119552, Note_on_c, 14, 46, 0
21, 119568, Note_on_c, 14, 46, 94
21, 119600, Note_on_c, 14, 46, 0
21, 119616, Note_on_c, 14, 50, 89
21, 119648, Note_on_c, 14, 50, 0
21, 119664, Note_on_c, 14, 50, 90
21, 119696, Note_on_c, 14, 50, 0
21, 119712, Note_on_c, 14, 48, 97
21, 119744, Note_on_c, 14, 48, 0
21, 119760, Note_on_c, 14, 48, 90
21, 119792, Note_on_c, 14, 48, 0
21, 119808, Note_on_c, 14, 47, 90
21, 119840, Note_on_c, 14, 47, 0
21, 119856, Note_on_c, 14, 47, 96
21, 119888, Note_on_c, 14, 47, 0
21, 119904, Note_on_c, 14, 46, 97
21, 119936, Note_on_c, 14, 46, 0
21, 119952, Note_on_c, 14, 46, 96
21, 119984, Note_on_c, 14, 46, 0
21, 120000, Note_on_c, 14, 50, 87
21, 120032, Note_on_c, 14, 50, 0
21, 120048, Note_on_c, 14, 50, 93
21, 120080, Note_on_c, 14, 50, 0
21, 120096, Note_on_c, 14, 48, 89
21, 120128, Note_on_c, 14, 48, 0
21, 120144, Note_on_c, 14, 48, 94
21, 120176, Note_on_c, 14, 48, 0
21, 120192, Note_on_c, 14, 47, 89
21, 120224, Note_on_c, 14, 47, 0
21, 120240, Note_on_c, 14, 47, 92
21, 120272, Note_on_c, 14, 47, 0
21, 120288, Note_on_c, 14, 46, 81
21, 120320, Note_on_c, 14, 46, 0
21, 120336, Note_on_c, 14, 46, 81
21, 120368, Note_on_c, 14, 46, 0
21, 120384, Note_on_c, 14, 50, 76
21, 120416, Note_on_c, 14, 50, 0
21, 120432, Note_on_c, 14, 50, 79
21, 120464, Note_on_c, 14, 50, 0
21, 120480, Note_on_c, 14, 48, 79
21, 120512, Note_on_c, 14, 48, 0
21, 120528, Note_on_c, 14, 48, 70
21, 120560, Note_on_c, 14, 48, 0
21, 120576, Note_on_c, 14, 47, 77
21, 120608, Note_on_c, 14, 47, 0
21, 120624, Note_on_c, 14, 47, 68
21, 120656, Note_on_c, 14, 47, 0
21, 120672, Note_on_c, 14, 46, 73
21, 120704, Note_on_c, 14, 46, 0
21, 120720, Note_on_c, 14, 46, 66
21, 120752, Note_on_c, 14, 46, 0
21, 120768, Note_on_c, 14, 50, 69
21, 120800, Note_on_c, 14, 50, 0
21, 120816, Note_on_c, 14, 50, 64
21, 120848, Note_on_c, 14, 50, 0
21, 120864, Note_on_c, 14, 48, 57
21, 120896, Note_on_c, 14, 48, 0
21, 120912, Note_on_c, 14, 48, 55
21, 120944, Note_on_c, 14, 48, 0
21, 120960, Note_on_c, 14, 47, 58
21, 120992, Note_on_c, 14, 47, 0
21, 121008, Note_on_c, 14, 47, 52
21, 121040, Note_on_c, 14, 47, 0
21, 121056, Note_on_c, 14, 46, 49
21, 121088, Note_on_c, 14, 46, 0
21, 121104, Note_on_c, 14, 46, 55
21, 121136, Note_on_c, 14, 46, 0
21, 121152, Note_on_c, 14, 50, 44
21, 121184, Note_on_c, 14, 50, 0
21, 121200, Note_on_c, 14, 50, 51
21, 121232, Note_on_c, 14, 50, 0
21, 121248, Note_on_c, 14, 48, 42
21, 121280, Note_on_c, 14, 48, 0
21, 121296, Note_on_c, 14, 48, 42
21, 121328, Note_on_c, 14, 48, 0
21, 121344, Note_on_c, 14, 47, 41
21, 121376, Note_on_c, 14, 47, 0
21, 121392, Note_on_c, 14, 47, 43
21, 121424, Note_on_c, 14, 47, 0
21, 121440, Note_on_c, 14, 46, 43
21, 121472, Note_on_c, 14, 46, 0
21, 121488, Note_on_c, 14, 46, 44
21, 121520, Note_on_c, 14, 46, 0
21, 121536, Note_on_c, 14, 50, 48
21, 121568, Note_on_c, 14, 50, 0
21, 121584, Note_on_c, 14, 50, 45
21, 121616, Note_on_c, 14, 50, 0
21, 121632, Note_on_c, 14, 48, 46
21, 121664, Note_on_c, 14, 48, 0
21, 121680, Note_on_c, 14, 48, 50
21, 121712, Note_on_c, 14, 48, 0
21, 121728, Note_on_c, 14, 47, 41
21, 121760, Note_on_c, 14, 47, 0
21, 121776, Note_on_c, 14, 47, 44
21, 121808, Note_on_c, 14, 47, 0
21, 121824, Note_on_c, 14, 46, 48
21, 121856, Note_on_c, 14, 46, 0
21, 121872, Note_on_c, 14, 46, 41
21, 121904, Note_on_c, 14, 46, 0
21, 121920, Note_on_c, 14, 50, 50
21, 121952, Note_on_c, 14, 50, 0
21, 121968, Note_on_c, 14, 50, 46
21, 122000, Note_on_c, 14, 50, 0
21, 122016, Note_on_c, 14, 48, 40
21, 122048, Note_on_c, 14, 48, 0
21, 122064, Note_on_c, 14, 48, 42
21, 122096, Note_on_c, 14, 48, 0
21, 122112, Note_on_c, 14, 47, 40
21, 122144, Note_on_c, 14, 47, 0
21, 122160, Note_on_c, 14, 47, 42
21, 122192, Note_on_c, 14, 47, 0
21, 122208, Note_on_c, 14, 46, 37
21, 122240, Note_on_c, 14, 46, 0
21, 122256, Note_on_c, 14, 46, 36
21, 122288, Note_on_c, 14, 46, 0
21, 122304, Note_on_c, 14, 50, 37
21, 122336, Note_on_c, 14, 50, 0
21, 122352, Note_on_c, 14, 50, 43
21, 122384, Note_on_c, 14, 50, 0
21, 122400, Control_c, 14, 11, 127
21, 122400, Note_on_c, 14, 51, 34
21, 122432, Control_c, 14, 11, 126
21, 122465, Control_c, 14, 11, 125
21, 122498, Control_c, 14, 11, 124
21, 122531, Control_c, 14, 11, 123
21, 122564, Control_c, 14, 11, 122
21, 122597, Control_c, 14, 11, 121
21, 122630, Control_c, 14, 11, 120
21, 122663, Control_c, 14, 11, 119
21, 122696, Control_c, 14, 11, 118
21, 122729, Control_c, 14, 11, 117
21, 122762, Control_c, 14, 11, 116
21, 122794, Control_c, 14, 11, 115
21, 122827, Control_c, 14, 11, 114
21, 122860, Control_c, 14, 11, 113
21, 122893, Control_c, 14, 11, 112
21, 122926, Control_c, 14, 11, 111
21, 122959, Control_c, 14, 11, 110
21, 122976, Note_on_c, 14, 51, 0
21, 122976, Note_on_c, 14, 49, 42
21, 122992, Control_c, 14, 11, 109
21, 123025, Control_c, 14, 11, 108
21, 123058, Control_c, 14, 11, 107
21, 123091, Control_c, 14, 11, 106
21, 123124, Control_c, 14, 11, 105
21, 123157, Control_c, 14, 11, 104
21, 123189, Control_c, 14, 11, 103
21, 123222, Control_c, 14, 11, 102
21, 123255, Control_c, 14, 11, 101
21, 123288, Control_c, 14, 11, 100
21, 123321, Control_c, 14, 11, 99
21, 123354, Control_c, 14, 11, 98
21, 123387, Control_c, 14, 11, 97
21, 123420, Control_c, 14, 11, 96
21, 123453, Control_c, 14, 11, 95
21, 123486, Control_c, 14, 11, 94
21, 123519, Control_c, 14, 11, 93
21, 123552, Note_on_c, 14, 49, 0
21, 123552, Control_c, 14, 11, 92
21, 123552, Note_on_c, 14, 48, 40
21, 124704, Note_on_c, 14, 48, 0
21, 124704, Control_c, 14, 11, 92
21, 124704, Note_on_c, 14, 51, 41
21, 124745, Control_c, 14, 11, 91
21, 124786, Control_c, 14, 11, 90
21, 124827, Control_c, 14, 11, 89
21, 124868, Control_c, 14, 11, 88
21, 124909, Control_c, 14, 11, 87
21, 124950, Control_c, 14, 11, 86
21, 124991, Control_c, 14, 11, 85
21, 125033, Control_c, 14, 11, 84
21, 125074, Control_c, 14, 11, 83
21, 125115, Control_c, 14, 11, 82
21, 125156, Control_c, 14, 11, 81
21, 125197, Control_c, 14, 11, 80
21, 125238, Control_c, 14, 11, 79
21, 125279, Control_c, 14, 11, 78
21, 125280, Note_on_c, 14, 51, 0
21, 125280, Note_on_c, 14, 49, 36
21, 125321, Control_c, 14, 11, 77
21, 125362, Control_c, 14, 11, 76
21, 125403, Control_c, 14, 11, 75
21, 125444, Control_c, 14, 11, 74
21, 125485, Control_c, 14, 11, 73
21, 125526, Control_c, 14, 11, 72
21, 125567, Control_c, 14, 11, 71
21, 125609, Control_c, 14, 11, 70
21, 125650, Control_c, 14, 11, 69
21, 125691, Control_c, 14, 11, 68
21, 125732, Control_c, 14, 11, 67
21, 125773, Control_c, 14, 11, 66
21, 125814, Control_c, 14, 11, 65
21, 125856, Note_on_c, 14, 49, 0
21, 125856, Control_c, 14, 11, 64
21, 125856, Control_c, 14, 11, 92
21, 125856, Note_on_c, 14, 44, 59
21, 125872, Control_c, 14, 11, 93
21, 125888, Note_on_c, 14, 44, 0
21, 125888, Control_c, 14, 11, 94
21, 125904, Note_on_c, 14, 44, 63
21, 125905, Control_c, 14, 11, 95
21, 125921, Control_c, 14, 11, 96
21, 125936, Note_on_c, 14, 44, 0
21, 125938, Control_c, 14, 11, 97
21, 125952, Note_on_c, 14, 44, 60
21, 125954, Control_c, 14, 11, 98
21, 125971, Control_c, 14, 11, 99
21, 125984, Note_on_c, 14, 44, 0
21, 125987, Control_c, 14, 11, 100
21, 126000, Note_on_c, 14, 44, 64
21, 126004, Control_c, 14, 11, 101
21, 126020, Control_c, 14, 11, 102
21, 126032, Note_on_c, 14, 44, 0
21, 126037, Control_c, 14, 11, 103
21, 126048, Note_on_c, 14, 45, 57
21, 126053, Control_c, 14, 11, 104
21, 126069, Control_c, 14, 11, 105
21, 126080, Note_on_c, 14, 45, 0
21, 126086, Control_c, 14, 11, 106
21, 126096, Note_on_c, 14, 45, 59
21, 126102, Control_c, 14, 11, 107
21, 126119, Control_c, 14, 11, 108
21, 126128, Note_on_c, 14, 45, 0
21, 126135, Control_c, 14, 11, 109
21, 126144, Note_on_c, 14, 45, 61
21, 126152, Control_c, 14, 11, 110
21, 126168, Control_c, 14, 11, 111
21, 126176, Note_on_c, 14, 45, 0
21, 126185, Control_c, 14, 11, 112
21, 126192, Note_on_c, 14, 45, 59
21, 126201, Control_c, 14, 11, 113
21, 126218, Control_c, 14, 11, 114
21, 126224, Note_on_c, 14, 45, 0
21, 126234, Control_c, 14, 11, 115
21, 126240, Note_on_c, 14, 46, 58
21, 126250, Control_c, 14, 11, 116
21, 126267, Control_c, 14, 11, 117
21, 126272, Note_on_c, 14, 46, 0
21, 126283, Control_c, 14, 11, 118
21, 126288, Note_on_c, 14, 46, 64
21, 126300, Control_c, 14, 11, 119
21, 126316, Control_c, 14, 11, 120
21, 126320, Note_on_c, 14, 46, 0
21, 126333, Control_c, 14, 11, 121
21, 126336, Note_on_c, 14, 46, 65
21, 126349, Control_c, 14, 11, 122
21, 126366, Control_c, 14, 11, 123
21, 126368, Note_on_c, 14, 46, 0
21, 126382, Control_c, 14, 11, 124
21, 126384, Note_on_c, 14, 46, 61
21, 126399, Control_c, 14, 11, 125
21, 126415, Control_c, 14, 11, 126
21, 126416, Note_on_c, 14, 46, 0
21, 126432, Control_c, 14, 11, 127
21, 126432, Note_on_c, 14, 47, 55
21, 126448, Control_c, 14, 11, 126
21, 126464, Note_on_c, 14, 47, 0
21, 126464, Control_c, 14, 11, 125
21, 126480, Note_on_c, 14, 47, 63
21, 126481, Control_c, 14, 11, 124
21, 126497, Control_c, 14, 11, 123
21, 126512, Note_on_c, 14, 47, 0
21, 126514, Control_c, 14, 11, 122
21, 126528, Note_on_c, 14, 47, 59
21, 126530, Control_c, 14, 11, 121
21, 126547, Control_c, 14, 11, 120
21, 126560, Note_on_c, 14, 47, 0
21, 126563, Control_c, 14, 11, 119
21, 126576, Note_on_c, 14, 47, 64
21, 126580, Control_c, 14, 11, 118
21, 126596, Control_c, 14, 11, 117
21, 126608, Note_on_c, 14, 47, 0
21, 126613, Control_c, 14, 11, 116
21, 126624, Note_on_c, 14, 47, 61
21, 126629, Control_c, 14, 11, 115
21, 126645, Control_c, 14, 11, 114
21, 126656, Note_on_c, 14, 47, 0
21, 126662, Control_c, 14, 11, 113
21, 126672, Note_on_c, 14, 47, 61
21, 126678, Control_c, 14, 11, 112
21, 126695, Control_c, 14, 11, 111
21, 126704, Note_on_c, 14, 47, 0
21, 126711, Control_c, 14, 11, 110
21, 126720, Note_on_c, 14, 47, 56
21, 126728, Control_c, 14, 11, 109
21, 126744, Control_c, 14, 11, 108
21, 126752, Note_on_c, 14, 47, 0
21, 126761, Control_c, 14, 11, 107
21, 126768, Note_on_c, 14, 47, 58
21, 126777, Control_c, 14, 11, 106
21, 126794, Control_c, 14, 11, 105
21, 126800, Note_on_c, 14, 47, 0
21, 126810, Control_c, 14, 11, 104
21, 126816, Note_on_c, 14, 46, 65
21, 126826, Control_c, 14, 11, 103
21, 126843, Control_c, 14, 11, 102
21, 126848, Note_on_c, 14, 46, 0
21, 126859, Control_c, 14, 11, 101
21, 126864, Note_on_c, 14, 46, 57
21, 126876, Control_c, 14, 11, 100
21, 126892, Control_c, 14, 11, 99
21, 126896, Note_on_c, 14, 46, 0
21, 126909, Control_c, 14, 11, 98
21, 126912, Note_on_c, 14, 45, 56
21, 126925, Control_c, 14, 11, 97
21, 126942, Control_c, 14, 11, 96
21, 126944, Note_on_c, 14, 45, 0
21, 126958, Control_c, 14, 11, 95
21, 126960, Note_on_c, 14, 45, 62
21, 126975, Control_c, 14, 11, 94
21, 126991, Control_c, 14, 11, 93
21, 126992, Note_on_c, 14, 45, 0
21, 127008, Control_c, 14, 11, 92
21, 127008, Note_on_c, 14, 44, 57
21, 127040, Note_on_c, 14, 44, 0
21, 127056, Note_on_c, 14, 44, 62
21, 127088, Note_on_c, 14, 44, 0
21, 127104, Note_on_c, 14, 44, 62
21, 127136, Note_on_c, 14, 44, 0
21, 127152, Note_on_c, 14, 44, 60
21, 127184, Note_on_c, 14, 44, 0
21, 127200, Note_on_c, 14, 45, 55
21, 127232, Note_on_c, 14, 45, 0
21, 127248, Note_on_c, 14, 45, 58
21, 127280, Note_on_c, 14, 45, 0
21, 127296, Note_on_c, 14, 45, 62
21, 127328, Note_on_c, 14, 45, 0
21, 127344, Note_on_c, 14, 45, 60
21, 127376, Note_on_c, 14, 45, 0
21, 127392, Note_on_c, 14, 46, 61
21, 127424, Note_on_c, 14, 46, 0
21, 127440, Note_on_c, 14, 46, 63
21, 127472, Note_on_c, 14, 46, 0
21, 127488, Note_on_c, 14, 46, 64
21, 127520, Note_on_c, 14, 46, 0
21, 127536, Note_on_c, 14, 46, 56
21, 127568, Note_on_c, 14, 46, 0
21, 127584, Note_on_c, 14, 47, 62
21, 127616, Note_on_c, 14, 47, 0
21, 127632, Note_on_c, 14, 47, 64
21, 127664, Note_on_c, 14, 47, 0
21, 127680, Note_on_c, 14, 47, 56
21, 127712, Note_on_c, 14, 47, 0
21, 127728, Note_on_c, 14, 47, 65
21, 127760, Note_on_c, 14, 47, 0
21, 127776, Note_on_c, 14, 47, 57
21, 127808, Note_on_c, 14, 47, 0
21, 127824, Note_on_c, 14, 47, 61
21, 127856, Note_on_c, 14, 47, 0
21, 127872, Note_on_c, 14, 47, 64
21, 127904, Note_on_c, 14, 47, 0
21, 127920, Note_on_c, 14, 47, 61
21, 127952, Note_on_c, 14, 47, 0
21, 127968, Note_on_c, 14, 48, 58
21, 128000, Note_on_c, 14, 48, 0
21, 128016, Note_on_c, 14, 48, 55
21, 128048, Note_on_c, 14, 48, 0
21, 128064, Note_on_c, 14, 49, 56
21, 128096, Note_on_c, 14, 49, 0
21, 128112, Note_on_c, 14, 49, 64
21, 128144, Note_on_c, 14, 49, 0
21, 128160, Note_on_c, 14, 50, 62
21, 128192, Note_on_c, 14, 50, 0
21, 128208, Note_on_c, 14, 50, 61
21, 128240, Note_on_c, 14, 50, 0
21, 128256, Note_on_c, 14, 50, 58
21, 128288, Note_on_c, 14, 50, 0
21, 128304, Note_on_c, 14, 50, 63
21, 128336, Note_on_c, 14, 50, 0
21, 128352, Note_on_c, 14, 48, 65
21, 128384, Note_on_c, 14, 48, 0
21, 128400, Note_on_c, 14, 48, 62
21, 128432, Note_on_c, 14, 48, 0
21, 128448, Note_on_c, 14, 48, 65
21, 128480, Note_on_c, 14, 48, 0
21, 128496, Note_on_c, 14, 48, 61
21, 128528, Note_on_c, 14, 48, 0
21, 128544, Note_on_c, 14, 46, 61
21, 128576, Note_on_c, 14, 46, 0
21, 128592, Note_on_c, 14, 46, 62
21, 128624, Note_on_c, 14, 46, 0
21, 128640, Note_on_c, 14, 46, 65
21, 128672, Note_on_c, 14, 46, 0
21, 128688, Note_on_c, 14, 46, 58
21, 128720, Note_on_c, 14, 46, 0
21, 128736, Note_on_c, 14, 44, 58
21, 128768, Note_on_c, 14, 44, 0
21, 128784, Note_on_c, 14, 44, 60
21, 128816, Note_on_c, 14, 44, 0
21, 128832, Note_on_c, 14, 44, 65
21, 128864, Note_on_c, 14, 44, 0
21, 128880, Note_on_c, 14, 44, 57
21, 128912, Note_on_c, 14, 44, 0
21, 128928, Note_on_c, 14, 44, 63
21, 128960, Note_on_c, 14, 44, 0
21, 128976, Note_on_c, 14, 44, 57
21, 129008, Note_on_c, 14, 44, 0
21, 129024, Note_on_c, 14, 44, 58
21, 129056, Note_on_c, 14, 44, 0
21, 129072, Note_on_c, 14, 44, 58
21, 129104, Note_on_c, 14, 44, 0
21, 129120, Note_on_c, 14, 44, 63
21, 129152, Note_on_c, 14, 44, 0
21, 129168, Note_on_c, 14, 44, 60
21, 129200, Note_on_c, 14, 44, 0
21, 129216, Note_on_c, 14, 44, 63
21, 129248, Note_on_c, 14, 44, 0
21, 129264, Note_on_c, 14, 44, 58
21, 129296, Note_on_c, 14, 44, 0
21, 129312, Program_c, 14, 45
21, 129312, Control_c, 14, 11, 127
21, 129312, Note_on_c, 14, 47, 35
21, 129504, Note_on_c, 14, 47, 0
21, 129504, Note_on_c, 14, 41, 33
21, 129696, Note_on_c, 14, 41, 0
21, 130080, Note_on_c, 14, 47, 30
21, 130272, Note_on_c, 14, 47, 0
21, 130464, Note_on_c, 14, 47, 35
21, 130656, Note_on_c, 14, 47, 0
21, 130656, Note_on_c, 14, 41, 32
21, 130848, Note_on_c, 14, 41, 0
21, 131232, Note_on_c, 14, 47, 25
21, 131424, Note_on_c, 14, 47, 0
21, 131616, Note_on_c, 14, 47, 34
21, 131808, Note_on_c, 14, 47, 0
21, 131808, Note_on_c, 14, 41, 27
21, 132000, Note_on_c, 14, 41, 0
21, 132384, Note_on_c, 14, 47, 28
21, 132576, Note_on_c, 14, 47, 0
21, 132768, Note_on_c, 14, 47, 28
21, 132960, Note_on_c, 14, 47, 0
21, 132960, Note_on_c, 14, 41, 32
21, 133152, Note_on_c, 14, 41, 0
21, 133536, Note_on_c, 14, 47, 30
21, 133728, Note_on_c, 14, 47, 0
21, 133920, Program_c, 14, 48
21, 133920, Control_c, 14, 11, 64
21, 133920, Note_on_c, 14, 47, 34
21, 133926, Control_c, 14, 11, 65
21, 133932, Control_c, 14, 11, 66
21, 133938, Control_c, 14, 11, 67
21, 133944, Control_c, 14, 11, 68
21, 133950, Control_c, 14, 11, 69
21, 133956, Control_c, 14, 11, 70
21, 133962, Control_c, 14, 11, 71
21, 133968, Control_c, 14, 11, 72
21, 133974, Control_c, 14, 11, 73
21, 133980, Control_c, 14, 11, 74
21, 133987, Control_c, 14, 11, 75
21, 133993, Control_c, 14, 11, 76
21, 133999, Control_c, 14, 11, 77
21, 134005, Control_c, 14, 11, 78
21, 134011, Control_c, 14, 11, 79
21, 134017, Control_c, 14, 11, 80
21, 134023, Control_c, 14, 11, 81
21, 134029, Control_c, 14, 11, 82
21, 134035, Control_c, 14, 11, 83
21, 134041, Control_c, 14, 11, 84
21, 134048, Control_c, 14, 11, 85
21, 134054, Control_c, 14, 11, 86
21, 134060, Control_c, 14, 11, 87
21, 134066, Control_c, 14, 11, 88
21, 134072, Control_c, 14, 11, 89
21, 134078, Control_c, 14, 11, 90
21, 134084, Control_c, 14, 11, 91
21, 134090, Control_c, 14, 11, 92
21, 134096, Control_c, 14, 11, 93
21, 134102, Control_c, 14, 11, 94
21, 134108, Control_c, 14, 11, 95
21, 134115, Control_c, 14, 11, 96
21, 134121, Control_c, 14, 11, 97
21, 134127, Control_c, 14, 11, 98
21, 134133, Control_c, 14, 11, 99
21, 134139, Control_c, 14, 11, 100
21, 134145, Control_c, 14, 11, 101
21, 134151, Control_c, 14, 11, 102
21, 134157, Control_c, 14, 11, 103
21, 134163, Control_c, 14, 11, 104
21, 134169, Control_c, 14, 11, 105
21, 134176, Control_c, 14, 11, 106
21, 134182, Control_c, 14, 11, 107
21, 134188, Control_c, 14, 11, 108
21, 134194, Control_c, 14, 11, 109
21, 134200, Control_c, 14, 11, 110
21, 134206, Control_c, 14, 11, 111
21, 134212, Control_c, 14, 11, 112
21, 134218, Control_c, 14, 11, 113
21, 134224, Control_c, 14, 11, 114
21, 134230, Control_c, 14, 11, 115
21, 134236, Control_c, 14, 11, 116
21, 134243, Control_c, 14, 11, 117
21, 134249, Control_c, 14, 11, 118
21, 134255, Control_c, 14, 11, 119
21, 134261, Control_c, 14, 11, 120
21, 134267, Control_c, 14, 11, 121
21, 134273, Control_c, 14, 11, 122
21, 134279, Control_c, 14, 11, 123
21, 134285, Control_c, 14, 11, 124
21, 134291, Control_c, 14, 11, 125
21, 134297, Control_c, 14, 11, 126
21, 134304, Control_c, 14, 11, 127
21, 136224, Note_on_c, 14, 47, 0
21, 136224, Control_c, 14, 11, 64
21, 136224, Note_on_c, 14, 47, 24
21, 136230, Control_c, 14, 11, 65
21, 136236, Control_c, 14, 11, 66
21, 136242, Control_c, 14, 11, 67
21, 136248, Control_c, 14, 11, 68
21, 136254, Control_c, 14, 11, 69
21, 136260, Control_c, 14, 11, 70
21, 136266, Control_c, 14, 11, 71
21, 136272, Control_c, 14, 11, 72
21, 136278, Control_c, 14, 11, 73
21, 136284, Control_c, 14, 11, 74
21, 136291, Control_c, 14, 11, 75
21, 136297, Control_c, 14, 11, 76
21, 136303, Control_c, 14, 11, 77
21, 136309, Control_c, 14, 11, 78
21, 136315, Control_c, 14, 11, 79
21, 136321, Control_c, 14, 11, 80
21, 136327, Control_c, 14, 11, 81
21, 136333, Control_c, 14, 11, 82
21, 136339, Control_c, 14, 11, 83
21, 136345, Control_c, 14, 11, 84
21, 136352, Control_c, 14, 11, 85
21, 136358, Control_c, 14, 11, 86
21, 136364, Control_c, 14, 11, 87
21, 136370, Control_c, 14, 11, 88
21, 136376, Control_c, 14, 11, 89
21, 136382, Control_c, 14, 11, 90
21, 136388, Control_c, 14, 11, 91
21, 136394, Control_c, 14, 11, 92
21, 136400, Control_c, 14, 11, 93
21, 136406, Control_c, 14, 11, 94
21, 136412, Control_c, 14, 11, 95
21, 136419, Control_c, 14, 11, 96
21, 136425, Control_c, 14, 11, 97
21, 136431, Control_c, 14, 11, 98
21, 136437, Control_c, 14, 11, 99
21, 136443, Control_c, 14, 11, 100
21, 136449, Control_c, 14, 11, 101
21, 136455, Control_c, 14, 11, 102
21, 136461, Control_c, 14, 11, 103
21, 136467, Control_c, 14, 11, 104
21, 136473, Control_c, 14, 11, 105
21, 136480, Control_c, 14, 11, 106
21, 136486, Control_c, 14, 11, 107
21, 136492, Control_c, 14, 11, 108
21, 136498, Control_c, 14, 11, 109
21, 136504, Control_c, 14, 11, 110
21, 136510, Control_c, 14, 11, 111
21, 136516, Control_c, 14, 11, 112
21, 136522, Control_c, 14, 11, 113
21, 136528, Control_c, 14, 11, 114
21, 136534, Control_c, 14, 11, 115
21, 136540, Control_c, 14, 11, 116
21, 136547, Control_c, 14, 11, 117
21, 136553, Control_c, 14, 11, 118
21, 136559, Control_c, 14, 11, 119
21, 136565, Control_c, 14, 11, 120
21, 136571, Control_c, 14, 11, 121
21, 136577, Control_c, 14, 11, 122
21, 136583, Control_c, 14, 11, 123
21, 136589, Control_c, 14, 11, 124
21, 136595, Control_c, 14, 11, 125
21, 136601, Control_c, 14, 11, 126
21, 136608, Control_c, 14, 11, 127
21, 137376, Note_on_c, 14, 47, 0
21, 137376, Control_c, 14, 11, 64
21, 137376, Note_on_c, 14, 47, 30
21, 137382, Control_c, 14, 11, 65
21, 137388, Control_c, 14, 11, 66
21, 137394, Control_c, 14, 11, 67
21, 137400, Control_c, 14, 11, 68
21, 137406, Control_c, 14, 11, 69
21, 137412, Control_c, 14, 11, 70
21, 137418, Control_c, 14, 11, 71
21, 137424, Control_c, 14, 11, 72
21, 137430, Control_c, 14, 11, 73
21, 137436, Control_c, 14, 11, 74
21, 137443, Control_c, 14, 11, 75
21, 137449, Control_c, 14, 11, 76
21, 137455, Control_c, 14, 11, 77
21, 137461, Control_c, 14, 11, 78
21, 137467, Control_c, 14, 11, 79
21, 137473, Control_c, 14, 11, 80
21, 137479, Control_c, 14, 11, 81
21, 137485, Control_c, 14, 11, 82
21, 137491, Control_c, 14, 11, 83
21, 137497, Control_c, 14, 11, 84
21, 137504, Control_c, 14, 11, 85
21, 137510, Control_c, 14, 11, 86
21, 137516, Control_c, 14, 11, 87
21, 137522, Control_c, 14, 11, 88
21, 137528, Control_c, 14, 11, 89
21, 137534, Control_c, 14, 11, 90
21, 137540, Control_c, 14, 11, 91
21, 137546, Control_c, 14, 11, 92
21, 137552, Control_c, 14, 11, 93
21, 137558, Control_c, 14, 11, 94
21, 137564, Control_c, 14, 11, 95
21, 137571, Control_c, 14, 11, 96
21, 137577, Control_c, 14, 11, 97
21, 137583, Control_c, 14, 11, 98
21, 137589, Control_c, 14, 11, 99
21, 137595, Control_c, 14, 11, 100
21, 137601, Control_c, 14, 11, 101
21, 137607, Control_c, 14, 11, 102
21, 137613, Control_c, 14, 11, 103
21, 137619, Control_c, 14, 11, 104
21, 137625, Control_c, 14, 11, 105
21, 137632, Control_c, 14, 11, 106
21, 137638, Control_c, 14, 11, 107
21, 137644, Control_c, 14, 11, 108
21, 137650, Control_c, 14, 11, 109
21, 137656, Control_c, 14, 11, 110
21, 137662, Control_c, 14, 11, 111
21, 137668, Control_c, 14, 11, 112
21, 137674, Control_c, 14, 11, 113
21, 137680, Control_c, 14, 11, 114
21, 137686, Control_c, 14, 11, 115
21, 137692, Control_c, 14, 11, 116
21, 137699, Control_c, 14, 11, 117
21, 137705, Control_c, 14, 11, 118
21, 137711, Control_c, 14, 11, 119
21, 137717, Control_c, 14, 11, 120
21, 137723, Control_c, 14, 11, 121
21, 137729, Control_c, 14, 11, 122
21, 137735, Control_c, 14, 11, 123
21, 137741, Control_c, 14, 11, 124
21, 137747, Control_c, 14, 11, 125
21, 137753, Control_c, 14, 11, 126
21, 137760, Control_c, 14, 11, 127
21, 139680, Note_on_c, 14, 47, 0
21, 139680, End_track
22, 0, Start_track
22, 0, Title_t, "Violoncelli II"
22, 0, MIDI_port, 0
22, 190, Control_c, 14, 0, 0
22, 191, Control_c, 14, 32, 0
22, 192, Program_c, 14, 48
22, 193, Control_c, 14, 7, 127
22, 194, Control_c, 14, 10, 74
22, 195, Control_c, 14, 91, 127
22, 4608, Note_on_c, 14, 42, 64
22, 5184, Note_on_c, 14, 42, 0
22, 5184, Note_on_c, 14, 36, 55
22, 5278, Note_on_c, 14, 36, 0
22, 8640, Note_on_c, 14, 44, 29
22, 8896, Note_on_c, 14, 44, 0
22, 9216, Note_on_c, 14, 44, 27
22, 9472, Note_on_c, 14, 44, 0
22, 26208, Note_on_c, 14, 44, 55
22, 26496, Note_on_c, 14, 44, 0
22, 26496, Note_on_c, 14, 43, 63
22, 26592, Note_on_c, 14, 43, 0
22, 26592, Note_on_c, 14, 42, 63
22, 26688, Note_on_c, 14, 42, 0
22, 26688, Note_on_c, 14, 43, 54
22, 26782, Note_on_c, 14, 43, 0
22, 26784, Note_on_c, 14, 44, 58
22, 27040, Note_on_c, 14, 44, 0
22, 27072, Note_on_c, 14, 43, 52
22, 27168, Note_on_c, 14, 43, 0
22, 27168, Note_on_c, 14, 42, 45
22, 27264, Note_on_c, 14, 42, 0
22, 27264, Note_on_c, 14, 41, 48
22, 27358, Note_on_c, 14, 41, 0
22, 27360, Note_on_c, 14, 39, 44
22, 28464, Note_on_c, 14, 39, 0
22, 28512, Note_on_c, 14, 39, 30
22, 29616, Note_on_c, 14, 39, 0
22, 30816, Note_on_c, 14, 39, 25
22, 31920, Note_on_c, 14, 39, 0
22, 59040, Note_on_c, 14, 68, 97
22, 59136, Note_on_c, 14, 68, 0
22, 59136, Note_on_c, 14, 66, 96
22, 59232, Note_on_c, 14, 66, 0
22, 59232, Note_on_c, 14, 64, 89
22, 59328, Note_on_c, 14, 64, 0
22, 59328, Note_on_c, 14, 62, 92
22, 59424, Note_on_c, 14, 62, 0
22, 59424, Note_on_c, 14, 68, 90
22, 59520, Note_on_c, 14, 68, 0
22, 59520, Note_on_c, 14, 66, 96
22, 59614, Note_on_c, 14, 66, 0
22, 60768, Control_c, 14, 11, 92
22, 60768, Note_on_c, 14, 45, 45
22, 60773, Control_c, 14, 11, 93
22, 60778, Control_c, 14, 11, 94
22, 60784, Control_c, 14, 11, 95
22, 60789, Control_c, 14, 11, 96
22, 60795, Control_c, 14, 11, 97
22, 60800, Control_c, 14, 11, 98
22, 60806, Control_c, 14, 11, 99
22, 60811, Control_c, 14, 11, 100
22, 60817, Control_c, 14, 11, 101
22, 60822, Control_c, 14, 11, 102
22, 60828, Control_c, 14, 11, 103
22, 60833, Control_c, 14, 11, 104
22, 60839, Control_c, 14, 11, 105
22, 60844, Control_c, 14, 11, 106
22, 60850, Control_c, 14, 11, 107
22, 60855, Control_c, 14, 11, 108
22, 60861, Control_c, 14, 11, 109
22, 60866, Control_c, 14, 11, 110
22, 60872, Control_c, 14, 11, 111
22, 60877, Control_c, 14, 11, 112
22, 60883, Control_c, 14, 11, 113
22, 60888, Control_c, 14, 11, 114
22, 60894, Control_c, 14, 11, 115
22, 60899, Control_c, 14, 11, 116
22, 60905, Control_c, 14, 11, 117
22, 60910, Control_c, 14, 11, 118
22, 60916, Control_c, 14, 11, 119
22, 60921, Control_c, 14, 11, 120
22, 60927, Control_c, 14, 11, 121
22, 60932, Control_c, 14, 11, 122
22, 60938, Control_c, 14, 11, 123
22, 60943, Control_c, 14, 11, 124
22, 60949, Control_c, 14, 11, 125
22, 60954, Control_c, 14, 11, 126
22, 60960, Note_on_c, 14, 45, 0
22, 60960, Control_c, 14, 11, 127
22, 60960, Note_on_c, 14, 49, 46
22, 61120, Note_on_c, 14, 49, 0
22, 61152, Note_on_c, 14, 45, 50
22, 61344, Note_on_c, 14, 45, 0
22, 61344, Note_on_c, 14, 49, 47
22, 61504, Note_on_c, 14, 49, 0
22, 61920, Control_c, 14, 11, 92
22, 61920, Note_on_c, 14, 45, 45
22, 61925, Control_c, 14, 11, 93
22, 61930, Control_c, 14, 11, 94
22, 61936, Control_c, 14, 11, 95
22, 61941, Control_c, 14, 11, 96
22, 61947, Control_c, 14, 11, 97
22, 61952, Control_c, 14, 11, 98
22, 61958, Control_c, 14, 11, 99
22, 61963, Control_c, 14, 11, 100
22, 61969, Control_c, 14, 11, 101
22, 61974, Control_c, 14, 11, 102
22, 61980, Control_c, 14, 11, 103
22, 61985, Control_c, 14, 11, 104
22, 61991, Control_c, 14, 11, 105
22, 61996, Control_c, 14, 11, 106
22, 62002, Control_c, 14, 11, 107
22, 62007, Control_c, 14, 11, 108
22, 62013, Control_c, 14, 11, 109
22, 62018, Control_c, 14, 11, 110
22, 62024, Control_c, 14, 11, 111
22, 62029, Control_c, 14, 11, 112
22, 62035, Control_c, 14, 11, 113
22, 62040, Control_c, 14, 11, 114
22, 62046, Control_c, 14, 11, 115
22, 62051, Control_c, 14, 11, 116
22, 62057, Control_c, 14, 11, 117
22, 62062, Control_c, 14, 11, 118
22, 62068, Control_c, 14, 11, 119
22, 62073, Control_c, 14, 11, 120
22, 62079, Control_c, 14, 11, 121
22, 62084, Control_c, 14, 11, 122
22, 62090, Control_c, 14, 11, 123
22, 62095, Control_c, 14, 11, 124
22, 62101, Control_c, 14, 11, 125
22, 62106, Control_c, 14, 11, 126
22, 62112, Note_on_c, 14, 45, 0
22, 62112, Control_c, 14, 11, 127
22, 62112, Note_on_c, 14, 49, 41
22, 62272, Note_on_c, 14, 49, 0
22, 62304, Note_on_c, 14, 45, 48
22, 62496, Note_on_c, 14, 45, 0
22, 62496, Note_on_c, 14, 49, 41
22, 62656, Note_on_c, 14, 49, 0
22, 64992, Program_c, 14, 48
22, 68256, Note_on_c, 14, 43, 41
22, 69936, Note_on_c, 14, 43, 0
22, 72672, Note_on_c, 14, 43, 29
22, 73392, Note_on_c, 14, 43, 0
22, 107424, Note_on_c, 14, 32, 73
22, 109680, Note_on_c, 14, 32, 0
22, 109728, Note_on_c, 14, 32, 80
22, 111984, Note_on_c, 14, 32, 0
22, 112032, Note_on_c, 14, 32, 91
22, 112560, Note_on_c, 14, 32, 0
22, 112608, Note_on_c, 14, 32, 97
22, 113136, Note_on_c, 14, 32, 0
22, 113184, Note_on_c, 14, 32, 106
22, 113712, Note_on_c, 14, 32, 0
22, 113760, Note_on_c, 14, 32, 102
22, 114288, Note_on_c, 14, 32, 0
22, 114336, Note_on_c, 14, 32, 108
22, 114864, Note_on_c, 14, 32, 0
22, 114912, Note_on_c, 14, 32, 115
22, 115440, Note_on_c, 14, 32, 0
22, 115488, Note_on_c, 14, 32, 115
22, 116016, Note_on_c, 14, 32, 0
22, 116064, Note_on_c, 14, 32, 121
22, 116592, Note_on_c, 14, 32, 0
22, 125856, Note_on_c, 14, 38, 59
22, 126432, Note_on_c, 14, 38, 0
22, 126432, Note_on_c, 14, 37, 55
22, 126960, Note_on_c, 14, 37, 0
22, 127008, Note_on_c, 14, 38, 55
22, 127584, Note_on_c, 14, 38, 0
22, 127584, Note_on_c, 14, 37, 65
22, 128112, Note_on_c, 14, 37, 0
22, 133920, Note_on_c, 14, 40, 26
22, 136176, Note_on_c, 14, 40, 0
22, 136224, Note_on_c, 14, 40, 24
22, 137328, Note_on_c, 14, 40, 0
22, 137376, Note_on_c, 14, 40, 30
22, 140784, Note_on_c, 14, 40, 0
22, 140784, End_track
23, 0, Start_track
23, 0, Title_t, "Contrabbassi I"
23, 0, MIDI_port, 0
23, 1248, Program_c, 15, 45
23, 1344, Note_on_c, 15, 30, 34
23, 1536, Note_on_c, 15, 30, 0
23, 2496, Note_on_c, 15, 30, 25
23, 2688, Note_on_c, 15, 30, 0
23, 8064, Program_c, 15, 43
23, 8352, Program_c, 15, 48
23, 8352, Note_on_c, 15, 32, 29
23, 8928, Note_on_c, 15, 32, 0
23, 8928, Note_on_c, 15, 32, 27
23, 9792, Note_on_c, 15, 32, 0
23, 9792, Note_on_c, 15, 36, 25
23, 10080, Note_on_c, 15, 36, 0
23, 10080, Program_c, 15, 45
23, 10080, Note_on_c, 15, 32, 33
23, 10224, Note_on_c, 15, 32, 0
23, 10224, Note_on_c, 15, 39, 49
23, 10368, Note_on_c, 15, 39, 0
23, 10368, Program_c, 15, 48
23, 10656, Control_c, 15, 11, 92
23, 10656, Note_on_c, 15, 32, 56
23, 10672, Control_c, 15, 11, 93
23, 10688, Control_c, 15, 11, 94
23, 10705, Control_c, 15, 11, 95
23, 10721, Control_c, 15, 11, 96
23, 10738, Control_c, 15, 11, 97
23, 10754, Control_c, 15, 11, 98
23, 10771, Control_c, 15, 11, 99
23, 10787, Control_c, 15, 11, 100
23, 10804, Control_c, 15, 11, 101
23, 10820, Control_c, 15, 11, 102
23, 10837, Control_c, 15, 11, 103
23, 10853, Control_c, 15, 11, 104
23, 10869, Control_c, 15, 11, 105
23, 10886, Control_c, 15, 11, 106
23, 10902, Control_c, 15, 11, 107
23, 10919, Control_c, 15, 11, 108
23, 10935, Control_c, 15, 11, 109
23, 10952, Control_c, 15, 11, 110
23, 10968, Control_c, 15, 11, 111
23, 10985, Control_c, 15, 11, 112
23, 11001, Control_c, 15, 11, 113
23, 11018, Control_c, 15, 11, 114
23, 11034, Control_c, 15, 11, 115
23, 11050, Control_c, 15, 11, 116
23, 11067, Control_c, 15, 11, 117
23, 11083, Control_c, 15, 11, 118
23, 11100, Control_c, 15, 11, 119
23, 11116, Control_c, 15, 11, 120
23, 11133, Control_c, 15, 11, 121
23, 11149, Control_c, 15, 11, 122
23, 11166, Control_c, 15, 11, 123
23, 11182, Control_c, 15, 11, 124
23, 11199, Control_c, 15, 11, 125
23, 11215, Control_c, 15, 11, 126
23, 11232, Note_on_c, 15, 32, 0
23, 11232, Control_c, 15, 11, 127
23, 12960, Program_c, 15, 45
23, 13248, Control_c, 15, 11, 92
23, 13536, Program_c, 15, 45
23, 13536, Note_on_c, 15, 28, 46
23, 13632, Note_on_c, 15, 28, 0
23, 14688, Note_on_c, 15, 28, 31
23, 14784, Note_on_c, 15, 28, 0
23, 18144, Program_c, 15, 45
23, 18720, Note_on_c, 15, 37, 41
23, 19008, Note_on_c, 15, 37, 0
23, 19008, Note_on_c, 15, 44, 46
23, 19296, Note_on_c, 15, 44, 0
23, 19872, Note_on_c, 15, 37, 44
23, 20160, Note_on_c, 15, 37, 0
23, 20160, Note_on_c, 15, 44, 60
23, 20448, Note_on_c, 15, 44, 0
23, 20448, Note_on_c, 15, 35, 40
23, 20544, Note_on_c, 15, 35, 0
23, 22752, Note_on_c, 15, 35, 50
23, 22800, Note_on_c, 15, 35, 0
23, 29664, Note_on_c, 15, 34, 49
23, 30816, Note_on_c, 15, 34, 0
23, 31968, Control_c, 15, 11, 92
23, 31968, Note_on_c, 15, 32, 89
23, 32544, Control_c, 15, 11, 92
23, 32560, Control_c, 15, 11, 93
23, 32576, Control_c, 15, 11, 94
23, 32593, Control_c, 15, 11, 95
23, 32609, Control_c, 15, 11, 96
23, 32626, Control_c, 15, 11, 97
23, 32642, Control_c, 15, 11, 98
23, 32659, Control_c, 15, 11, 99
23, 32675, Control_c, 15, 11, 100
23, 32692, Control_c, 15, 11, 101
23, 32708, Control_c, 15, 11, 102
23, 32725, Control_c, 15, 11, 103
23, 32741, Control_c, 15, 11, 104
23, 32757, Control_c, 15, 11, 105
23, 32774, Control_c, 15, 11, 106
23, 32790, Control_c, 15, 11, 107
23, 32807, Control_c, 15, 11, 108
23, 32823, Control_c, 15, 11, 109
23, 32840, Control_c, 15, 11, 110
23, 32856, Control_c, 15, 11, 111
23, 32873, Control_c, 15, 11, 112
23, 32889, Control_c, 15, 11, 113
23, 32906, Control_c, 15, 11, 114
23, 32922, Control_c, 15, 11, 115
23, 32938, Control_c, 15, 11, 116
23, 32955, Control_c, 15, 11, 117
23, 32971, Control_c, 15, 11, 118
23, 32988, Control_c, 15, 11, 119
23, 33004, Control_c, 15, 11, 120
23, 33021, Control_c, 15, 11, 121
23, 33037, Control_c, 15, 11, 122
23, 33054, Control_c, 15, 11, 123
23, 33070, Control_c, 15, 11, 124
23, 33087, Control_c, 15, 11, 125
23, 33103, Control_c, 15, 11, 126
23, 33120, Note_on_c, 15, 32, 0
23, 33120, Control_c, 15, 11, 127
23, 33120, Note_on_c, 15, 32, 92
23, 33888, Note_on_c, 15, 32, 0
23, 34272, Program_c, 15, 45
23, 34272, Note_on_c, 15, 29, 106
23, 34368, Note_on_c, 15, 29, 0
23, 34848, Note_on_c, 15, 29, 112
23, 34944, Note_on_c, 15, 29, 0
23, 37728, Note_on_c, 15, 32, 30
23, 37824, Note_on_c, 15, 32, 0
23, 41184, Control_c, 15, 11, 127
23, 42336, Note_on_c, 15, 38, 46
23, 42912, Note_on_c, 15, 38, 0
23, 42912, Note_on_c, 15, 35, 50
23, 43200, Note_on_c, 15, 35, 0
23, 43488, Note_on_c, 15, 28, 47
23, 44064, Note_on_c, 15, 28, 0
23, 44064, Note_on_c, 15, 28, 45
23, 44640, Note_on_c, 15, 28, 0
23, 44640, Program_c, 15, 45
23, 44640, Note_on_c, 15, 29, 41
23, 44736, Note_on_c, 15, 29, 0
23, 44736, Note_on_c, 15, 32, 48
23, 44832, Note_on_c, 15, 32, 0
23, 44832, Note_on_c, 15, 34, 51
23, 44928, Note_on_c, 15, 34, 0
23, 44928, Note_on_c, 15, 38, 61
23, 45024, Note_on_c, 15, 38, 0
23, 45024, Note_on_c, 15, 41, 74
23, 45120, Note_on_c, 15, 41, 0
23, 47520, Program_c, 15, 43
23, 47520, Program_c, 15, 48
23, 47520, Note_on_c, 15, 33, 28
23, 48864, Note_on_c, 15, 33, 0
23, 50400, Control_c, 15, 11, 127
23, 50976, Program_c, 15, 45
23, 50976, Note_on_c, 15, 40, 26
23, 51072, Note_on_c, 15, 40, 0
23, 52128, Note_on_c, 15, 31, 25
23, 52224, Note_on_c, 15, 31, 0
23, 52704, Note_on_c, 15, 36, 90
23, 52800, Note_on_c, 15, 36, 0
23, 53856, Program_c, 15, 48
23, 53856, Note_on_c, 15, 43, 33
23, 55008, Note_on_c, 15, 43, 0
23, 55008, Note_on_c, 15, 43, 25
23, 56160, Note_on_c, 15, 43, 0
23, 56160, Note_on_c, 15, 43, 27
23, 57312, Note_on_c, 15, 43, 0
23, 57312, Control_c, 15, 11, 64
23, 57312, Note_on_c, 15, 47, 92
23, 57339, Control_c, 15, 11, 65
23, 57366, Control_c, 15, 11, 66
23, 57394, Control_c, 15, 11, 67
23, 57421, Control_c, 15, 11, 68
23, 57449, Control_c, 15, 11, 69
23, 57476, Control_c, 15, 11, 70
23, 57504, Control_c, 15, 11, 71
23, 57531, Control_c, 15, 11, 72
23, 57558, Control_c, 15, 11, 73
23, 57586, Control_c, 15, 11, 74
23, 57613, Control_c, 15, 11, 75
23, 57641, Control_c, 15, 11, 76
23, 57668, Control_c, 15, 11, 77
23, 57696, Control_c, 15, 11, 78
23, 57723, Control_c, 15, 11, 79
23, 57750, Control_c, 15, 11, 80
23, 57778, Control_c, 15, 11, 81
23, 57805, Control_c, 15, 11, 82
23, 57833, Control_c, 15, 11, 83
23, 57860, Control_c, 15, 11, 84
23, 57888, Note_on_c, 15, 47, 0
23, 57888, Control_c, 15, 11, 85
23, 57888, Note_on_c, 15, 45, 88
23, 57915, Control_c, 15, 11, 86
23, 57942, Control_c, 15, 11, 87
23, 57970, Control_c, 15, 11, 88
23, 57997, Control_c, 15, 11, 89
23, 58025, Control_c, 15, 11, 90
23, 58052, Control_c, 15, 11, 91
23, 58080, Control_c, 15, 11, 92
23, 58107, Control_c, 15, 11, 93
23, 58134, Control_c, 15, 11, 94
23, 58162, Control_c, 15, 11, 95
23, 58189, Control_c, 15, 11, 96
23, 58217, Control_c, 15, 11, 97
23, 58244, Control_c, 15, 11, 98
23, 58272, Control_c, 15, 11, 99
23, 58299, Control_c, 15, 11, 100
23, 58326, Control_c, 15, 11, 101
23, 58354, Control_c, 15, 11, 102
23, 58381, Control_c, 15, 11, 103
23, 58409, Control_c, 15, 11, 104
23, 58436, Control_c, 15, 11, 105
23, 58464, Note_on_c, 15, 45, 0
23, 58464, Control_c, 15, 11, 106
23, 58464, Note_on_c, 15, 47, 90
23, 58491, Control_c, 15, 11, 107
23, 58518, Control_c, 15, 11, 108
23, 58546, Control_c, 15, 11, 109
23, 58573, Control_c, 15, 11, 110
23, 58601, Control_c, 15, 11, 111
23, 58628, Control_c, 15, 11, 112
23, 58656, Control_c, 15, 11, 113
23, 58683, Control_c, 15, 11, 114
23, 58710, Control_c, 15, 11, 115
23, 58738, Control_c, 15, 11, 116
23, 58765, Control_c, 15, 11, 117
23, 58793, Control_c, 15, 11, 118
23, 58820, Control_c, 15, 11, 119
23, 58848, Control_c, 15, 11, 120
23, 58875, Control_c, 15, 11, 121
23, 58902, Control_c, 15, 11, 122
23, 58930, Control_c, 15, 11, 123
23, 58957, Control_c, 15, 11, 124
23, 58985, Control_c, 15, 11, 125
23, 59012, Control_c, 15, 11, 126
23, 59040, Note_on_c, 15, 47, 0
23, 59040, Control_c, 15, 11, 127
23, 59040, Note_on_c, 15, 45, 91
23, 59616, Note_on_c, 15, 45, 0
23, 60768, Program_c, 15, 44
23, 60768, Note_on_c, 15, 40, 40
23, 60960, Note_on_c, 15, 40, 0
23, 60960, Note_on_c, 15, 42, 40
23, 61152, Note_on_c, 15, 42, 0
23, 61920, Note_on_c, 15, 40, 50
23, 62112, Note_on_c, 15, 40, 0
23, 62112, Note_on_c, 15, 42, 41
23, 62304, Note_on_c, 15, 42, 0
23, 63072, Note_on_c, 15, 33, 44
23, 64224, Note_on_c, 15, 33, 0
23, 64224, Program_c, 15, 45
23, 64416, Note_on_c, 15, 33, 50
23, 64512, Note_on_c, 15, 33, 0
23, 64608, Note_on_c, 15, 31, 61
23, 64704, Note_on_c, 15, 31, 0
23, 64800, Note_on_c, 15, 30, 72
23, 64896, Note_on_c, 15, 30, 0
23, 65184, Note_on_c, 15, 39, 92
23, 65376, Note_on_c, 15, 39, 0
23, 65376, Note_on_c, 15, 32, 93
23, 65472, Note_on_c, 15, 32, 0
23, 65568, Note_on_c, 15, 37, 113
23, 65664, Note_on_c, 15, 37, 0
23, 67680, Control_c, 15, 11, 127
23, 68256, Note_on_c, 15, 38, 48
23, 69984, Note_on_c, 15, 38, 0
23, 72672, Control_c, 15, 11, 127
23, 72672, Note_on_c, 15, 38, 27
23, 72677, Control_c, 15, 11, 126
23, 72682, Control_c, 15, 11, 125
23, 72688, Control_c, 15, 11, 124
23, 72693, Control_c, 15, 11, 123
23, 72699, Control_c, 15, 11, 122
23, 72704, Control_c, 15, 11, 121
23, 72710, Control_c, 15, 11, 120
23, 72715, Control_c, 15, 11, 119
23, 72721, Control_c, 15, 11, 118
23, 72726, Control_c, 15, 11, 117
23, 72732, Control_c, 15, 11, 116
23, 72737, Control_c, 15, 11, 115
23, 72743, Control_c, 15, 11, 114
23, 72748, Control_c, 15, 11, 113
23, 72754, Control_c, 15, 11, 112
23, 72759, Control_c, 15, 11, 111
23, 72765, Control_c, 15, 11, 110
23, 72770, Control_c, 15, 11, 109
23, 72776, Control_c, 15, 11, 108
23, 72781, Control_c, 15, 11, 107
23, 72787, Control_c, 15, 11, 106
23, 72792, Control_c, 15, 11, 105
23, 72798, Control_c, 15, 11, 104
23, 72803, Control_c, 15, 11, 103
23, 72809, Control_c, 15, 11, 102
23, 72814, Control_c, 15, 11, 101
23, 72820, Control_c, 15, 11, 100
23, 72825, Control_c, 15, 11, 99
23, 72831, Control_c, 15, 11, 98
23, 72836, Control_c, 15, 11, 97
23, 72842, Control_c, 15, 11, 96
23, 72847, Control_c, 15, 11, 95
23, 72853, Control_c, 15, 11, 94
23, 72858, Control_c, 15, 11, 93
23, 72864, Control_c, 15, 11, 92
23, 73440, Note_on_c, 15, 38, 0
23, 73440, Control_c, 15, 11, 127
23, 74016, Program_c, 15, 45
23, 74592, Note_on_c, 15, 32, 25
23, 74784, Note_on_c, 15, 32, 0
23, 74784, Note_on_c, 15, 35, 32
23, 74976, Note_on_c, 15, 35, 0
23, 74976, Note_on_c, 15, 38, 25
23, 75168, Note_on_c, 15, 38, 0
23, 75744, Note_on_c, 15, 32, 26
23, 75936, Note_on_c, 15, 32, 0
23, 75936, Note_on_c, 15, 35, 34
23, 76128, Note_on_c, 15, 35, 0
23, 76128, Note_on_c, 15, 38, 26
23, 76320, Note_on_c, 15, 38, 0
23, 77472, Note_on_c, 15, 28, 32
23, 77568, Note_on_c, 15, 28, 0
23, 77568, Note_on_c, 15, 31, 31
23, 77664, Note_on_c, 15, 31, 0
23, 77664, Note_on_c, 15, 34, 25
23, 77760, Note_on_c, 15, 34, 0
23, 77760, Note_on_c, 15, 38, 29
23, 77856, Note_on_c, 15, 38, 0
23, 77856, Note_on_c, 15, 39, 35
23, 77952, Note_on_c, 15, 39, 0
23, 77952, Note_on_c, 15, 33, 35
23, 78048, Note_on_c, 15, 33, 0
23, 78048, Note_on_c, 15, 28, 35
23, 78144, Note_on_c, 15, 28, 0
23, 78144, Note_on_c, 15, 31, 35
23, 78240, Note_on_c, 15, 31, 0
23, 78240, Note_on_c, 15, 34, 27
23, 78336, Note_on_c, 15, 34, 0
23, 78336, Note_on_c, 15, 38, 25
23, 78432, Note_on_c, 15, 38, 0
23, 78432, Note_on_c, 15, 39, 30
23, 78528, Note_on_c, 15, 39, 0
23, 78528, Note_on_c, 15, 33, 25
23, 78624, Note_on_c, 15, 33, 0
23, 78624, Note_on_c, 15, 28, 30
23, 78720, Note_on_c, 15, 28, 0
23, 78720, Note_on_c, 15, 31, 31
23, 78816, Note_on_c, 15, 31, 0
23, 78816, Note_on_c, 15, 34, 32
23, 78912, Note_on_c, 15, 34, 0
23, 78912, Note_on_c, 15, 38, 31
23, 79008, Note_on_c, 15, 38, 0
23, 79008, Note_on_c, 15, 39, 26
23, 79104, Note_on_c, 15, 39, 0
23, 79104, Note_on_c, 15, 33, 27
23, 79200, Note_on_c, 15, 33, 0
23, 79200, Note_on_c, 15, 28, 44
23, 79296, Note_on_c, 15, 28, 0
23, 79296, Note_on_c, 15, 31, 44
23, 79392, Note_on_c, 15, 31, 0
23, 79392, Note_on_c, 15, 34, 42
23, 79488, Note_on_c, 15, 34, 0
23, 79488, Note_on_c, 15, 38, 43
23, 79584, Note_on_c, 15, 38, 0
23, 79584, Note_on_c, 15, 39, 49
23, 79680, Note_on_c, 15, 39, 0
23, 79680, Note_on_c, 15, 33, 42
23, 79776, Note_on_c, 15, 33, 0
23, 79776, Note_on_c, 15, 28, 45
23, 79872, Note_on_c, 15, 28, 0
23, 79872, Note_on_c, 15, 31, 50
23, 79968, Note_on_c, 15, 31, 0
23, 79968, Note_on_c, 15, 34, 50
23, 80064, Note_on_c, 15, 34, 0
23, 80064, Note_on_c, 15, 38, 45
23, 80160, Note_on_c, 15, 38, 0
23, 80160, Note_on_c, 15, 39, 50
23, 80256, Note_on_c, 15, 39, 0
23, 80256, Note_on_c, 15, 33, 58
23, 80352, Note_on_c, 15, 33, 0
23, 80352, Note_on_c, 15, 28, 50
23, 80448, Note_on_c, 15, 28, 0
23, 80448, Note_on_c, 15, 31, 60
23, 80544, Note_on_c, 15, 31, 0
23, 80544, Note_on_c, 15, 34, 62
23, 80640, Note_on_c, 15, 34, 0
23, 80640, Note_on_c, 15, 38, 65
23, 80736, Note_on_c, 15, 38, 0
23, 80736, Note_on_c, 15, 39, 64
23, 80832, Note_on_c, 15, 39, 0
23, 80832, Note_on_c, 15, 33, 67
23, 80928, Note_on_c, 15, 33, 0
23, 81504, Program_c, 15, 45
23, 82080, Note_on_c, 15, 34, 110
23, 82272, Note_on_c, 15, 34, 0
23, 84384, Note_on_c, 15, 34, 103
23, 84576, Note_on_c, 15, 34, 0
23, 88416, Program_c, 15, 48
23, 88416, Note_on_c, 15, 33, 44
23, 88512, Note_on_c, 15, 33, 0
23, 90720, Note_on_c, 15, 37, 41
23, 90816, Note_on_c, 15, 37, 0
23, 91296, Note_on_c, 15, 32, 34
23, 93600, Note_on_c, 15, 32, 0
23, 93600, Note_on_c, 15, 32, 35
23, 95904, Note_on_c, 15, 32, 0
23, 95904, Program_c, 15, 45
23, 95904, Note_on_c, 15, 32, 46
23, 96096, Note_on_c, 15, 32, 0
23, 96480, Note_on_c, 15, 32, 50
23, 96672, Note_on_c, 15, 32, 0
23, 97056, Note_on_c, 15, 32, 41
23, 97248, Note_on_c, 15, 32, 0
23, 97632, Note_on_c, 15, 32, 40
23, 97824, Note_on_c, 15, 32, 0
23, 98208, Note_on_c, 15, 32, 40
23, 98400, Note_on_c, 15, 32, 0
23, 98784, Note_on_c, 15, 32, 50
23, 98976, Note_on_c, 15, 32, 0
23, 99360, Note_on_c, 15, 32, 45
23, 99552, Note_on_c, 15, 32, 0
23, 99936, Note_on_c, 15, 32, 46
23, 100128, Note_on_c, 15, 32, 0
23, 100512, Program_c, 15, 48
23, 100512, Control_c, 15, 11, 64
23, 100512, Note_on_c, 15, 32, 70
23, 101664, Control_c, 15, 11, 64
23, 101682, Control_c, 15, 11, 65
23, 101700, Control_c, 15, 11, 66
23, 101718, Control_c, 15, 11, 67
23, 101737, Control_c, 15, 11, 68
23, 101755, Control_c, 15, 11, 69
23, 101773, Control_c, 15, 11, 70
23, 101792, Control_c, 15, 11, 71
23, 101810, Control_c, 15, 11, 72
23, 101828, Control_c, 15, 11, 73
23, 101846, Control_c, 15, 11, 74
23, 101865, Control_c, 15, 11, 75
23, 101883, Control_c, 15, 11, 76
23, 101901, Control_c, 15, 11, 77
23, 101920, Control_c, 15, 11, 78
23, 101938, Control_c, 15, 11, 79
23, 101956, Control_c, 15, 11, 80
23, 101974, Control_c, 15, 11, 81
23, 101993, Control_c, 15, 11, 82
23, 102011, Control_c, 15, 11, 83
23, 102029, Control_c, 15, 11, 84
23, 102048, Control_c, 15, 11, 85
23, 102066, Control_c, 15, 11, 86
23, 102084, Control_c, 15, 11, 87
23, 102102, Control_c, 15, 11, 88
23, 102121, Control_c, 15, 11, 89
23, 102139, Control_c, 15, 11, 90
23, 102157, Control_c, 15, 11, 91
23, 102176, Control_c, 15, 11, 92
23, 102194, Control_c, 15, 11, 93
23, 102212, Control_c, 15, 11, 94
23, 102230, Control_c, 15, 11, 95
23, 102249, Control_c, 15, 11, 96
23, 102267, Control_c, 15, 11, 97
23, 102285, Control_c, 15, 11, 98
23, 102304, Control_c, 15, 11, 99
23, 102322, Control_c, 15, 11, 100
23, 102340, Control_c, 15, 11, 101
23, 102358, Control_c, 15, 11, 102
23, 102377, Control_c, 15, 11, 103
23, 102395, Control_c, 15, 11, 104
23, 102413, Control_c, 15, 11, 105
23, 102432, Control_c, 15, 11, 106
23, 102450, Control_c, 15, 11, 107
23, 102468, Control_c, 15, 11, 108
23, 102486, Control_c, 15, 11, 109
23, 102505, Control_c, 15, 11, 110
23, 102523, Control_c, 15, 11, 111
23, 102541, Control_c, 15, 11, 112
23, 102560, Control_c, 15, 11, 113
23, 102578, Control_c, 15, 11, 114
23, 102596, Control_c, 15, 11, 115
23, 102614, Control_c, 15, 11, 116
23, 102633, Control_c, 15, 11, 117
23, 102651, Control_c, 15, 11, 118
23, 102669, Control_c, 15, 11, 119
23, 102688, Control_c, 15, 11, 120
23, 102706, Control_c, 15, 11, 121
23, 102724, Control_c, 15, 11, 122
23, 102742, Control_c, 15, 11, 123
23, 102761, Control_c, 15, 11, 124
23, 102779, Control_c, 15, 11, 125
23, 102797, Control_c, 15, 11, 126
23, 102816, Note_on_c, 15, 32, 0
23, 102816, Control_c, 15, 11, 127
23, 102816, Note_on_c, 15, 32, 45
23, 105120, Note_on_c, 15, 32, 0
23, 105120, Note_on_c, 15, 32, 44
23, 107424, Note_on_c, 15, 32, 0
23, 116640, Note_on_c, 15, 34, 126
23, 118944, Note_on_c, 15, 34, 0
23, 118944, Note_on_c, 15, 32, 89
23, 120096, Note_on_c, 15, 32, 0
23, 120096, Control_c, 15, 11, 127
23, 120096, Note_on_c, 15, 29, 87
23, 120119, Control_c, 15, 11, 126
23, 120143, Control_c, 15, 11, 125
23, 120167, Control_c, 15, 11, 124
23, 120191, Control_c, 15, 11, 123
23, 120214, Control_c, 15, 11, 122
23, 120238, Control_c, 15, 11, 121
23, 120262, Control_c, 15, 11, 120
23, 120286, Control_c, 15, 11, 119
23, 120309, Control_c, 15, 11, 118
23, 120333, Control_c, 15, 11, 117
23, 120357, Control_c, 15, 11, 116
23, 120381, Control_c, 15, 11, 115
23, 120404, Control_c, 15, 11, 114
23, 120428, Control_c, 15, 11, 113
23, 120452, Control_c, 15, 11, 112
23, 120476, Control_c, 15, 11, 111
23, 120499, Control_c, 15, 11, 110
23, 120523, Control_c, 15, 11, 109
23, 120547, Control_c, 15, 11, 108
23, 120571, Control_c, 15, 11, 107
23, 120594, Control_c, 15, 11, 106
23, 120618, Control_c, 15, 11, 105
23, 120642, Control_c, 15, 11, 104
23, 120666, Control_c, 15, 11, 103
23, 120689, Control_c, 15, 11, 102
23, 120713, Control_c, 15, 11, 101
23, 120737, Control_c, 15, 11, 100
23, 120761, Control_c, 15, 11, 99
23, 120784, Control_c, 15, 11, 98
23, 120808, Control_c, 15, 11, 97
23, 120832, Control_c, 15, 11, 96
23, 120856, Control_c, 15, 11, 95
23, 120879, Control_c, 15, 11, 94
23, 120903, Control_c, 15, 11, 93
23, 120927, Control_c, 15, 11, 92
23, 120951, Control_c, 15, 11, 91
23, 120974, Control_c, 15, 11, 90
23, 120998, Control_c, 15, 11, 89
23, 121022, Control_c, 15, 11, 88
23, 121046, Control_c, 15, 11, 87
23, 121069, Control_c, 15, 11, 86
23, 121093, Control_c, 15, 11, 85
23, 121117, Control_c, 15, 11, 84
23, 121141, Control_c, 15, 11, 83
23, 121164, Control_c, 15, 11, 82
23, 121188, Control_c, 15, 11, 81
23, 121212, Control_c, 15, 11, 80
23, 121236, Control_c, 15, 11, 79
23, 121248, Note_on_c, 15, 29, 0
23, 121248, Note_on_c, 15, 32, 97
23, 121259, Control_c, 15, 11, 78
23, 121283, Control_c, 15, 11, 77
23, 121307, Control_c, 15, 11, 76
23, 121331, Control_c, 15, 11, 75
23, 121354, Control_c, 15, 11, 74
23, 121378, Control_c, 15, 11, 73
23, 121402, Control_c, 15, 11, 72
23, 121426, Control_c, 15, 11, 71
23, 121449, Control_c, 15, 11, 70
23, 121473, Control_c, 15, 11, 69
23, 121497, Control_c, 15, 11, 68
23, 121521, Control_c, 15, 11, 67
23, 121544, Control_c, 15, 11, 66
23, 121568, Control_c, 15, 11, 65
23, 121592, Control_c, 15, 11, 64
23, 121616, Control_c, 15, 11, 63
23, 121639, Control_c, 15, 11, 62
23, 121663, Control_c, 15, 11, 61
23, 121687, Control_c, 15, 11, 60
23, 121711, Control_c, 15, 11, 59
23, 121734, Control_c, 15, 11, 58
23, 121758, Control_c, 15, 11, 57
23, 121782, Control_c, 15, 11, 56
23, 121806, Control_c, 15, 11, 55
23, 121824, Note_on_c, 15, 32, 0
23, 121824, Note_on_c, 15, 29, 88
23, 121829, Control_c, 15, 11, 54
23, 121853, Control_c, 15, 11, 53
23, 121877, Control_c, 15, 11, 52
23, 121901, Control_c, 15, 11, 51
23, 121924, Control_c, 15, 11, 50
23, 121948, Control_c, 15, 11, 49
23, 121972, Control_c, 15, 11, 48
23, 121996, Control_c, 15, 11, 47
23, 122019, Control_c, 15, 11, 46
23, 122043, Control_c, 15, 11, 45
23, 122067, Control_c, 15, 11, 44
23, 122091, Control_c, 15, 11, 43
23, 122114, Control_c, 15, 11, 42
23, 122138, Control_c, 15, 11, 41
23, 122162, Control_c, 15, 11, 40
23, 122186, Control_c, 15, 11, 39
23, 122209, Control_c, 15, 11, 38
23, 122233, Control_c, 15, 11, 37
23, 122257, Control_c, 15, 11, 36
23, 122281, Control_c, 15, 11, 35
23, 122304, Control_c, 15, 11, 34
23, 122328, Control_c, 15, 11, 33
23, 122352, Control_c, 15, 11, 32
23, 122376, Control_c, 15, 11, 31
23, 122400, Note_on_c, 15, 29, 0
23, 122400, Control_c, 15, 11, 30
23, 122400, Note_on_c, 15, 28, 88
23, 124704, Note_on_c, 15, 28, 0
23, 124704, Note_on_c, 15, 28, 94
23, 125856, Note_on_c, 15, 28, 0
23, 126432, Program_c, 15, 45
23, 126432, Note_on_c, 15, 37, 91
23, 126624, Note_on_c, 15, 37, 0
23, 128160, Program_c, 15, 48
23, 128160, Control_c, 15, 11, 92
23, 128160, Note_on_c, 15, 34, 47
23, 128192, Control_c, 15, 11, 93
23, 128225, Control_c, 15, 11, 94
23, 128258, Control_c, 15, 11, 95
23, 128291, Control_c, 15, 11, 96
23, 128324, Control_c, 15, 11, 97
23, 128357, Control_c, 15, 11, 98
23, 128390, Control_c, 15, 11, 99
23, 128423, Control_c, 15, 11, 100
23, 128456, Control_c, 15, 11, 101
23, 128489, Control_c, 15, 11, 102
23, 128522, Control_c, 15, 11, 103
23, 128554, Control_c, 15, 11, 104
23, 128587, Control_c, 15, 11, 105
23, 128620, Control_c, 15, 11, 106
23, 128653, Control_c, 15, 11, 107
23, 128686, Control_c, 15, 11, 108
23, 128719, Control_c, 15, 11, 109
23, 128736, Note_on_c, 15, 34, 0
23, 128736, Note_on_c, 15, 32, 49
23, 128752, Control_c, 15, 11, 110
23, 128785, Control_c, 15, 11, 111
23, 128818, Control_c, 15, 11, 112
23, 128851, Control_c, 15, 11, 113
23, 128884, Control_c, 15, 11, 114
23, 128917, Control_c, 15, 11, 115
23, 128949, Control_c, 15, 11, 116
23, 128982, Control_c, 15, 11, 117
23, 129015, Control_c, 15, 11, 118
23, 129048, Control_c, 15, 11, 119
23, 129081, Control_c, 15, 11, 120
23, 129114, Control_c, 15, 11, 121
23, 129147, Control_c, 15, 11, 122
23, 129180, Control_c, 15, 11, 123
23, 129213, Control_c, 15, 11, 124
23, 129246, Control_c, 15, 11, 125
23, 129279, Control_c, 15, 11, 126
23, 129312, Note_on_c, 15, 32, 0
23, 129312, Control_c, 15, 11, 127
23, 129312, Control_c, 15, 11, 64
23, 129312, Note_on_c, 15, 35, 27
23, 129318, Control_c, 15, 11, 65
23, 129324, Control_c, 15, 11, 66
23, 129330, Control_c, 15, 11, 67
23, 129336, Control_c, 15, 11, 68
23, 129342, Control_c, 15, 11, 69
23, 129348, Control_c, 15, 11, 70
23, 129354, Control_c, 15, 11, 71
23, 129360, Control_c, 15, 11, 72
23, 129366, Control_c, 15, 11, 73
23, 129372, Control_c, 15, 11, 74
23, 129379, Control_c, 15, 11, 75
23, 129385, Control_c, 15, 11, 76
23, 129391, Control_c, 15, 11, 77
23, 129397, Control_c, 15, 11, 78
23, 129403, Control_c, 15, 11, 79
23, 129409, Control_c, 15, 11, 80
23, 129415, Control_c, 15, 11, 81
23, 129421, Control_c, 15, 11, 82
23, 129427, Control_c, 15, 11, 83
23, 129433, Control_c, 15, 11, 84
23, 129440, Control_c, 15, 11, 85
23, 129446, Control_c, 15, 11, 86
23, 129452, Control_c, 15, 11, 87
23, 129458, Control_c, 15, 11, 88
23, 129464, Control_c, 15, 11, 89
23, 129470, Control_c, 15, 11, 90
23, 129476, Control_c, 15, 11, 91
23, 129482, Control_c, 15, 11, 92
23, 129488, Control_c, 15, 11, 93
23, 129494, Control_c, 15, 11, 94
23, 129500, Control_c, 15, 11, 95
23, 129507, Control_c, 15, 11, 96
23, 129513, Control_c, 15, 11, 97
23, 129519, Control_c, 15, 11, 98
23, 129525, Control_c, 15, 11, 99
23, 129531, Control_c, 15, 11, 100
23, 129537, Control_c, 15, 11, 101
23, 129543, Control_c, 15, 11, 102
23, 129549, Control_c, 15, 11, 103
23, 129555, Control_c, 15, 11, 104
23, 129561, Control_c, 15, 11, 105
23, 129568, Control_c, 15, 11, 106
23, 129574, Control_c, 15, 11, 107
23, 129580, Control_c, 15, 11, 108
23, 129586, Control_c, 15, 11, 109
23, 129592, Control_c, 15, 11, 110
23, 129598, Control_c, 15, 11, 111
23, 129604, Control_c, 15, 11, 112
23, 129610, Control_c, 15, 11, 113
23, 129616, Control_c, 15, 11, 114
23, 129622, Control_c, 15, 11, 115
23, 129628, Control_c, 15, 11, 116
23, 129635, Control_c, 15, 11, 117
23, 129641, Control_c, 15, 11, 118
23, 129647, Control_c, 15, 11, 119
23, 129653, Control_c, 15, 11, 120
23, 129659, Control_c, 15, 11, 121
23, 129665, Control_c, 15, 11, 122
23, 129671, Control_c, 15, 11, 123
23, 129677, Control_c, 15, 11, 124
23, 129683, Control_c, 15, 11, 125
23, 129689, Control_c, 15, 11, 126
23, 129696, Control_c, 15, 11, 127
23, 131616, Note_on_c, 15, 35, 0
23, 131616, Note_on_c, 15, 35, 31
23, 133920, Note_on_c, 15, 35, 0
23, 133920, Control_c, 15, 11, 64
23, 133920, Note_on_c, 15, 28, 29
23, 133926, Control_c, 15, 11, 65
23, 133932, Control_c, 15, 11, 66
23, 133938, Control_c, 15, 11, 67
23, 133944, Control_c, 15, 11, 68
23, 133950, Control_c, 15, 11, 69
23, 133956, Control_c, 15, 11, 70
23, 133962, Control_c, 15, 11, 71
23, 133968, Control_c, 15, 11, 72
23, 133974, Control_c, 15, 11, 73
23, 133980, Control_c, 15, 11, 74
23, 133987, Control_c, 15, 11, 75
23, 133993, Control_c, 15, 11, 76
23, 133999, Control_c, 15, 11, 77
23, 134005, Control_c, 15, 11, 78
23, 134011, Control_c, 15, 11, 79
23, 134017, Control_c, 15, 11, 80
23, 134023, Control_c, 15, 11, 81
23, 134029, Control_c, 15, 11, 82
23, 134035, Control_c, 15, 11, 83
23, 134041, Control_c, 15, 11, 84
23, 134048, Control_c, 15, 11, 85
23, 134054, Control_c, 15, 11, 86
23, 134060, Control_c, 15, 11, 87
23, 134066, Control_c, 15, 11, 88
23, 134072, Control_c, 15, 11, 89
23, 134078, Control_c, 15, 11, 90
23, 134084, Control_c, 15, 11, 91
23, 134090, Control_c, 15, 11, 92
23, 134096, Control_c, 15, 11, 93
23, 134102, Control_c, 15, 11, 94
23, 134108, Control_c, 15, 11, 95
23, 134115, Control_c, 15, 11, 96
23, 134121, Control_c, 15, 11, 97
23, 134127, Control_c, 15, 11, 98
23, 134133, Control_c, 15, 11, 99
23, 134139, Control_c, 15, 11, 100
23, 134145, Control_c, 15, 11, 101
23, 134151, Control_c, 15, 11, 102
23, 134157, Control_c, 15, 11, 103
23, 134163, Control_c, 15, 11, 104
23, 134169, Control_c, 15, 11, 105
23, 134176, Control_c, 15, 11, 106
23, 134182, Control_c, 15, 11, 107
23, 134188, Control_c, 15, 11, 108
23, 134194, Control_c, 15, 11, 109
23, 134200, Control_c, 15, 11, 110
23, 134206, Control_c, 15, 11, 111
23, 134212, Control_c, 15, 11, 112
23, 134218, Control_c, 15, 11, 113
23, 134224, Control_c, 15, 11, 114
23, 134230, Control_c, 15, 11, 115
23, 134236, Control_c, 15, 11, 116
23, 134243, Control_c, 15, 11, 117
23, 134249, Control_c, 15, 11, 118
23, 134255, Control_c, 15, 11, 119
23, 134261, Control_c, 15, 11, 120
23, 134267, Control_c, 15, 11, 121
23, 134273, Control_c, 15, 11, 122
23, 134279, Control_c, 15, 11, 123
23, 134285, Control_c, 15, 11, 124
23, 134291, Control_c, 15, 11, 125
23, 134297, Control_c, 15, 11, 126
23, 134304, Control_c, 15, 11, 127
23, 136224, Note_on_c, 15, 28, 0
23, 136224, Control_c, 15, 11, 64
23, 136224, Note_on_c, 15, 28, 25
23, 136230, Control_c, 15, 11, 65
23, 136236, Control_c, 15, 11, 66
23, 136242, Control_c, 15, 11, 67
23, 136248, Control_c, 15, 11, 68
23, 136254, Control_c, 15, 11, 69
23, 136260, Control_c, 15, 11, 70
23, 136266, Control_c, 15, 11, 71
23, 136272, Control_c, 15, 11, 72
23, 136278, Control_c, 15, 11, 73
23, 136284, Control_c, 15, 11, 74
23, 136291, Control_c, 15, 11, 75
23, 136297, Control_c, 15, 11, 76
23, 136303, Control_c, 15, 11, 77
23, 136309, Control_c, 15, 11, 78
23, 136315, Control_c, 15, 11, 79
23, 136321, Control_c, 15, 11, 80
23, 136327, Control_c, 15, 11, 81
23, 136333, Control_c, 15, 11, 82
23, 136339, Control_c, 15, 11, 83
23, 136345, Control_c, 15, 11, 84
23, 136352, Control_c, 15, 11, 85
23, 136358, Control_c, 15, 11, 86
23, 136364, Control_c, 15, 11, 87
23, 136370, Control_c, 15, 11, 88
23, 136376, Control_c, 15, 11, 89
23, 136382, Control_c, 15, 11, 90
23, 136388, Control_c, 15, 11, 91
23, 136394, Control_c, 15, 11, 92
23, 136400, Control_c, 15, 11, 93
23, 136406, Control_c, 15, 11, 94
23, 136412, Control_c, 15, 11, 95
23, 136419, Control_c, 15, 11, 96
23, 136425, Control_c, 15, 11, 97
23, 136431, Control_c, 15, 11, 98
23, 136437, Control_c, 15, 11, 99
23, 136443, Control_c, 15, 11, 100
23, 136449, Control_c, 15, 11, 101
23, 136455, Control_c, 15, 11, 102
23, 136461, Control_c, 15, 11, 103
23, 136467, Control_c, 15, 11, 104
23, 136473, Control_c, 15, 11, 105
23, 136480, Control_c, 15, 11, 106
23, 136486, Control_c, 15, 11, 107
23, 136492, Control_c, 15, 11, 108
23, 136498, Control_c, 15, 11, 109
23, 136504, Control_c, 15, 11, 110
23, 136510, Control_c, 15, 11, 111
23, 136516, Control_c, 15, 11, 112
23, 136522, Control_c, 15, 11, 113
23, 136528, Control_c, 15, 11, 114
23, 136534, Control_c, 15, 11, 115
23, 136540, Control_c, 15, 11, 116
23, 136547, Control_c, 15, 11, 117
23, 136553, Control_c, 15, 11, 118
23, 136559, Control_c, 15, 11, 119
23, 136565, Control_c, 15, 11, 120
23, 136571, Control_c, 15, 11, 121
23, 136577, Control_c, 15, 11, 122
23, 136583, Control_c, 15, 11, 123
23, 136589, Control_c, 15, 11, 124
23, 136595, Control_c, 15, 11, 125
23, 136601, Control_c, 15, 11, 126
23, 136608, Control_c, 15, 11, 127
23, 137376, Note_on_c, 15, 28, 0
23, 137376, Control_c, 15, 11, 64
23, 137376, Note_on_c, 15, 28, 24
23, 137382, Control_c, 15, 11, 65
23, 137388, Control_c, 15, 11, 66
23, 137394, Control_c, 15, 11, 67
23, 137400, Control_c, 15, 11, 68
23, 137406, Control_c, 15, 11, 69
23, 137412, Control_c, 15, 11, 70
23, 137418, Control_c, 15, 11, 71
23, 137424, Control_c, 15, 11, 72
23, 137430, Control_c, 15, 11, 73
23, 137436, Control_c, 15, 11, 74
23, 137443, Control_c, 15, 11, 75
23, 137449, Control_c, 15, 11, 76
23, 137455, Control_c, 15, 11, 77
23, 137461, Control_c, 15, 11, 78
23, 137467, Control_c, 15, 11, 79
23, 137473, Control_c, 15, 11, 80
23, 137479, Control_c, 15, 11, 81
23, 137485, Control_c, 15, 11, 82
23, 137491, Control_c, 15, 11, 83
23, 137497, Control_c, 15, 11, 84
23, 137504, Control_c, 15, 11, 85
23, 137510, Control_c, 15, 11, 86
23, 137516, Control_c, 15, 11, 87
23, 137522, Control_c, 15, 11, 88
23, 137528, Control_c, 15, 11, 89
23, 137534, Control_c, 15, 11, 90
23, 137540, Control_c, 15, 11, 91
23, 137546, Control_c, 15, 11, 92
23, 137552, Control_c, 15, 11, 93
23, 137558, Control_c, 15, 11, 94
23, 137564, Control_c, 15, 11, 95
23, 137571, Control_c, 15, 11, 96
23, 137577, Control_c, 15, 11, 97
23, 137583, Control_c, 15, 11, 98
23, 137589, Control_c, 15, 11, 99
23, 137595, Control_c, 15, 11, 100
23, 137601, Control_c, 15, 11, 101
23, 137607, Control_c, 15, 11, 102
23, 137613, Control_c, 15, 11, 103
23, 137619, Control_c, 15, 11, 104
23, 137625, Control_c, 15, 11, 105
23, 137632, Control_c, 15, 11, 106
23, 137638, Control_c, 15, 11, 107
23, 137644, Control_c, 15, 11, 108
23, 137650, Control_c, 15, 11, 109
23, 137656, Control_c, 15, 11, 110
23, 137662, Control_c, 15, 11, 111
23, 137668, Control_c, 15, 11, 112
23, 137674, Control_c, 15, 11, 113
23, 137680, Control_c, 15, 11, 114
23, 137686, Control_c, 15, 11, 115
23, 137692, Control_c, 15, 11, 116
23, 137699, Control_c, 15, 11, 117
23, 137705, Control_c, 15, 11, 118
23, 137711, Control_c, 15, 11, 119
23, 137717, Control_c, 15, 11, 120
23, 137723, Control_c, 15, 11, 121
23, 137729, Control_c, 15, 11, 122
23, 137735, Control_c, 15, 11, 123
23, 137741, Control_c, 15, 11, 124
23, 137747, Control_c, 15, 11, 125
23, 137753, Control_c, 15, 11, 126
23, 137760, Control_c, 15, 11, 127
23, 141408, Control_c, 15, 11, 127
23, 141423, Control_c, 15, 11, 126
23, 141438, Control_c, 15, 11, 125
23, 141453, Control_c, 15, 11, 124
23, 141468, Control_c, 15, 11, 123
23, 141483, Control_c, 15, 11, 122
23, 141498, Control_c, 15, 11, 121
23, 141513, Control_c, 15, 11, 120
23, 141528, Control_c, 15, 11, 119
23, 141544, Control_c, 15, 11, 118
23, 141559, Control_c, 15, 11, 117
23, 141574, Control_c, 15, 11, 116
23, 141589, Control_c, 15, 11, 115
23, 141604, Control_c, 15, 11, 114
23, 141619, Control_c, 15, 11, 113
23, 141634, Control_c, 15, 11, 112
23, 141649, Control_c, 15, 11, 111
23, 141665, Control_c, 15, 11, 110
23, 141680, Control_c, 15, 11, 109
23, 141695, Control_c, 15, 11, 108
23, 141710, Control_c, 15, 11, 107
23, 141725, Control_c, 15, 11, 106
23, 141740, Control_c, 15, 11, 105
23, 141755, Control_c, 15, 11, 104
23, 141770, Control_c, 15, 11, 103
23, 141785, Control_c, 15, 11, 102
23, 141801, Control_c, 15, 11, 101
23, 141816, Control_c, 15, 11, 100
23, 141831, Control_c, 15, 11, 99
23, 141846, Control_c, 15, 11, 98
23, 141861, Control_c, 15, 11, 97
23, 141876, Control_c, 15, 11, 96
23, 141891, Control_c, 15, 11, 95
23, 141906, Control_c, 15, 11, 94
23, 141922, Control_c, 15, 11, 93
23, 141937, Control_c, 15, 11, 92
23, 141952, Control_c, 15, 11, 91
23, 141967, Control_c, 15, 11, 90
23, 141982, Control_c, 15, 11, 89
23, 141997, Control_c, 15, 11, 88
23, 142012, Control_c, 15, 11, 87
23, 142027, Control_c, 15, 11, 86
23, 142042, Control_c, 15, 11, 85
23, 142058, Control_c, 15, 11, 84
23, 142073, Control_c, 15, 11, 83
23, 142088, Control_c, 15, 11, 82
23, 142103, Control_c, 15, 11, 81
23, 142118, Control_c, 15, 11, 80
23, 142133, Control_c, 15, 11, 79
23, 142148, Control_c, 15, 11, 78
23, 142163, Control_c, 15, 11, 77
23, 142179, Control_c, 15, 11, 76
23, 142194, Control_c, 15, 11, 75
23, 142209, Control_c, 15, 11, 74
23, 142224, Control_c, 15, 11, 73
23, 142239, Control_c, 15, 11, 72
23, 142254, Control_c, 15, 11, 71
23, 142269, Control_c, 15, 11, 70
23, 142284, Control_c, 15, 11, 69
23, 142299, Control_c, 15, 11, 68
23, 142315, Control_c, 15, 11, 67
23, 142330, Control_c, 15, 11, 66
23, 142345, Control_c, 15, 11, 65
23, 142360, Control_c, 15, 11, 64
23, 142375, Control_c, 15, 11, 63
23, 142390, Control_c, 15, 11, 62
23, 142405, Control_c, 15, 11, 61
23, 142420, Control_c, 15, 11, 60
23, 142436, Control_c, 15, 11, 59
23, 142451, Control_c, 15, 11, 58
23, 142466, Control_c, 15, 11, 57
23, 142481, Control_c, 15, 11, 56
23, 142496, Control_c, 15, 11, 55
23, 142511, Control_c, 15, 11, 54
23, 142526, Control_c, 15, 11, 53
23, 142541, Control_c, 15, 11, 52
23, 142556, Control_c, 15, 11, 51
23, 142572, Control_c, 15, 11, 50
23, 142587, Control_c, 15, 11, 49
23, 142602, Control_c, 15, 11, 48
23, 142617, Control_c, 15, 11, 47
23, 142632, Control_c, 15, 11, 46
23, 142647, Control_c, 15, 11, 45
23, 142662, Control_c, 15, 11, 44
23, 142677, Control_c, 15, 11, 43
23, 142693, Control_c, 15, 11, 42
23, 142708, Control_c, 15, 11, 41
23, 142723, Control_c, 15, 11, 40
23, 142738, Control_c, 15, 11, 39
23, 142753, Control_c, 15, 11, 38
23, 142768, Control_c, 15, 11, 37
23, 142783, Control_c, 15, 11, 36
23, 142798, Control_c, 15, 11, 35
23, 142813, Control_c, 15, 11, 34
23, 142829, Control_c, 15, 11, 33
23, 142844, Control_c, 15, 11, 32
23, 142859, Control_c, 15, 11, 31
23, 142874, Control_c, 15, 11, 30
23, 142889, Control_c, 15, 11, 29
23, 142904, Control_c, 15, 11, 28
23, 142919, Control_c, 15, 11, 27
23, 142934, Control_c, 15, 11, 26
23, 142950, Control_c, 15, 11, 25
23, 142965, Control_c, 15, 11, 24
23, 142980, Control_c, 15, 11, 23
23, 142995, Control_c, 15, 11, 22
23, 143010, Control_c, 15, 11, 21
23, 143025, Control_c, 15, 11, 20
23, 143040, Control_c, 15, 11, 19
23, 143055, Control_c, 15, 11, 18
23, 143070, Control_c, 15, 11, 17
23, 143086, Control_c, 15, 11, 16
23, 143101, Control_c, 15, 11, 15
23, 143116, Control_c, 15, 11, 14
23, 143131, Control_c, 15, 11, 13
23, 143146, Control_c, 15, 11, 12
23, 143161, Control_c, 15, 11, 11
23, 143176, Control_c, 15, 11, 10
23, 143191, Control_c, 15, 11, 9
23, 143207, Control_c, 15, 11, 8
23, 143222, Control_c, 15, 11, 7
23, 143237, Control_c, 15, 11, 6
23, 143252, Control_c, 15, 11, 5
23, 143267, Control_c, 15, 11, 4
23, 143282, Control_c, 15, 11, 3
23, 143297, Control_c, 15, 11, 2
23, 143312, Control_c, 15, 11, 1
23, 143328, Note_on_c, 15, 28, 0
23, 143328, Control_c, 15, 11, 0
23, 143328, End_track
24, 0, Start_track
24, 0, Title_t, "Contrabbassi II"
24, 0, MIDI_port, 0
24, 197, Control_c, 15, 0, 0
24, 198, Control_c, 15, 32, 0
24, 199, Program_c, 15, 43
24, 200, Control_c, 15, 7, 127
24, 201, Control_c, 15, 10, 84
24, 202, Control_c, 15, 91, 127
24, 53856, Note_on_c, 15, 25, 32
24, 54960, Note_on_c, 15, 25, 0
24, 55008, Note_on_c, 15, 20, 29
24, 56112, Note_on_c, 15, 20, 0
24, 56160, Note_on_c, 15, 24, 26
24, 57264, Note_on_c, 15, 24, 0
24, 57312, Note_on_c, 15, 28, 94
24, 57888, Note_on_c, 15, 28, 0
24, 57888, Note_on_c, 15, 26, 88
24, 58416, Note_on_c, 15, 26, 0
24, 58464, Note_on_c, 15, 28, 96
24, 58992, Note_on_c, 15, 28, 0
24, 59040, Note_on_c, 15, 26, 87
24, 59568, Note_on_c, 15, 26, 0
24, 60768, Control_c, 15, 11, 92
24, 60768, Note_on_c, 15, 33, 46
24, 60773, Control_c, 15, 11, 93
24, 60778, Control_c, 15, 11, 94
24, 60784, Control_c, 15, 11, 95
24, 60789, Control_c, 15, 11, 96
24, 60795, Control_c, 15, 11, 97
24, 60800, Control_c, 15, 11, 98
24, 60806, Control_c, 15, 11, 99
24, 60811, Control_c, 15, 11, 100
24, 60817, Control_c, 15, 11, 101
24, 60822, Control_c, 15, 11, 102
24, 60828, Control_c, 15, 11, 103
24, 60833, Control_c, 15, 11, 104
24, 60839, Control_c, 15, 11, 105
24, 60844, Control_c, 15, 11, 106
24, 60850, Control_c, 15, 11, 107
24, 60855, Control_c, 15, 11, 108
24, 60861, Control_c, 15, 11, 109
24, 60866, Control_c, 15, 11, 110
24, 60872, Control_c, 15, 11, 111
24, 60877, Control_c, 15, 11, 112
24, 60883, Control_c, 15, 11, 113
24, 60888, Control_c, 15, 11, 114
24, 60894, Control_c, 15, 11, 115
24, 60899, Control_c, 15, 11, 116
24, 60905, Control_c, 15, 11, 117
24, 60910, Control_c, 15, 11, 118
24, 60916, Control_c, 15, 11, 119
24, 60921, Control_c, 15, 11, 120
24, 60927, Control_c, 15, 11, 121
24, 60932, Control_c, 15, 11, 122
24, 60938, Control_c, 15, 11, 123
24, 60943, Control_c, 15, 11, 124
24, 60949, Control_c, 15, 11, 125
24, 60954, Control_c, 15, 11, 126
24, 60960, Note_on_c, 15, 33, 0
24, 60960, Control_c, 15, 11, 127
24, 60960, Note_on_c, 15, 37, 41
24, 61120, Note_on_c, 15, 37, 0
24, 61920, Control_c, 15, 11, 92
24, 61920, Note_on_c, 15, 33, 44
24, 61925, Control_c, 15, 11, 93
24, 61930, Control_c, 15, 11, 94
24, 61936, Control_c, 15, 11, 95
24, 61941, Control_c, 15, 11, 96
24, 61947, Control_c, 15, 11, 97
24, 61952, Control_c, 15, 11, 98
24, 61958, Control_c, 15, 11, 99
24, 61963, Control_c, 15, 11, 100
24, 61969, Control_c, 15, 11, 101
24, 61974, Control_c, 15, 11, 102
24, 61980, Control_c, 15, 11, 103
24, 61985, Control_c, 15, 11, 104
24, 61991, Control_c, 15, 11, 105
24, 61996, Control_c, 15, 11, 106
24, 62002, Control_c, 15, 11, 107
24, 62007, Control_c, 15, 11, 108
24, 62013, Control_c, 15, 11, 109
24, 62018, Control_c, 15, 11, 110
24, 62024, Control_c, 15, 11, 111
24, 62029, Control_c, 15, 11, 112
24, 62035, Control_c, 15, 11, 113
24, 62040, Control_c, 15, 11, 114
24, 62046, Control_c, 15, 11, 115
24, 62051, Control_c, 15, 11, 116
24, 62057, Control_c, 15, 11, 117
24, 62062, Control_c, 15, 11, 118
24, 62068, Control_c, 15, 11, 119
24, 62073, Control_c, 15, 11, 120
24, 62079, Control_c, 15, 11, 121
24, 62084, Control_c, 15, 11, 122
24, 62090, Control_c, 15, 11, 123
24, 62095, Control_c, 15, 11, 124
24, 62101, Control_c, 15, 11, 125
24, 62106, Control_c, 15, 11, 126
24, 62112, Note_on_c, 15, 33, 0
24, 62112, Control_c, 15, 11, 127
24, 62112, Note_on_c, 15, 37, 49
24, 62272, Note_on_c, 15, 37, 0
24, 67680, Program_c, 15, 48
24, 68256, Note_on_c, 15, 31, 46
24, 69936, Note_on_c, 15, 31, 0
24, 72672, Note_on_c, 15, 31, 31
24, 73392, Note_on_c, 15, 31, 0
24, 107424, Program_c, 15, 45
24, 107424, Note_on_c, 15, 32, 74
24, 107518, Note_on_c, 15, 32, 0
24, 108000, Note_on_c, 15, 32, 82
24, 108094, Note_on_c, 15, 32, 0
24, 108576, Note_on_c, 15, 32, 76
24, 108670, Note_on_c, 15, 32, 0
24, 109152, Note_on_c, 15, 32, 87
24, 109246, Note_on_c, 15, 32, 0
24, 109728, Note_on_c, 15, 32, 96
24, 109822, Note_on_c, 15, 32, 0
24, 110304, Note_on_c, 15, 32, 95
24, 110398, Note_on_c, 15, 32, 0
24, 110880, Note_on_c, 15, 32, 93
24, 110974, Note_on_c, 15, 32, 0
24, 111456, Note_on_c, 15, 32, 94
24, 111550, Note_on_c, 15, 32, 0
24, 112032, Note_on_c, 15, 32, 97
24, 112126, Note_on_c, 15, 32, 0
24, 112608, Note_on_c, 15, 32, 91
24, 112702, Note_on_c, 15, 32, 0
24, 113184, Note_on_c, 15, 32, 88
24, 113278, Note_on_c, 15, 32, 0
24, 113760, Note_on_c, 15, 32, 90
24, 113854, Note_on_c, 15, 32, 0
24, 114336, Note_on_c, 15, 32, 87
24, 114430, Note_on_c, 15, 32, 0
24, 114912, Note_on_c, 15, 32, 90
24, 115006, Note_on_c, 15, 32, 0
24, 115488, Note_on_c, 15, 32, 91
24, 115582, Note_on_c, 15, 32, 0
24, 116064, Note_on_c, 15, 32, 89
24, 116158, Note_on_c, 15, 32, 0
24, 116158, End_track
25, 0, Start_track
25, 0, Title_t, "by Claude Debussy (1862-1918)"
25, 0, MIDI_port, 0
25, 0, System_exclusive, 5, 126, 127, 9, 1, 247
25, 76, System_exclusive, 8, 67, 16, 76, 0, 0, 126, 0, 247
25, 97, System_exclusive, 8, 67, 16, 76, 2, 1, 86, 0, 247
25, 105, System_exclusive, 8, 67, 16, 76, 2, 1, 90, 1, 247
25, 115, System_exclusive, 8, 67, 16, 76, 8, 0, 20, 127, 247
25, 123, System_exclusive, 8, 67, 16, 76, 8, 1, 20, 127, 247
25, 132, System_exclusive, 8, 67, 16, 76, 8, 2, 20, 127, 247
25, 140, System_exclusive, 8, 67, 16, 76, 8, 3, 20, 127, 247
25, 150, System_exclusive, 8, 67, 16, 76, 8, 4, 20, 127, 247
25, 160, System_exclusive, 8, 67, 16, 76, 8, 5, 20, 127, 247
25, 168, System_exclusive, 8, 67, 16, 76, 8, 6, 20, 127, 247
25, 176, System_exclusive, 8, 67, 16, 76, 8, 7, 20, 127, 247
25, 185, System_exclusive, 8, 67, 16, 76, 8, 8, 20, 127, 247
25, 193, System_exclusive, 8, 67, 16, 76, 8, 9, 20, 127, 247
25, 203, System_exclusive, 8, 67, 16, 76, 8, 10, 20, 127, 247
25, 211, System_exclusive, 8, 67, 16, 76, 8, 11, 20, 127, 247
25, 220, System_exclusive, 8, 67, 16, 76, 8, 12, 20, 127, 247
25, 228, System_exclusive, 8, 67, 16, 76, 8, 13, 20, 127, 247
25, 238, System_exclusive, 8, 67, 16, 76, 8, 14, 20, 127, 247
25, 246, System_exclusive, 8, 67, 16, 76, 8, 15, 20, 127, 247
25, 256, System_exclusive, 8, 67, 16, 76, 2, 1, 12, 0, 247
25, 264, System_exclusive, 9, 67, 16, 76, 2, 1, 64, 3, 0, 247
25, 273, System_exclusive, 8, 67, 16, 76, 2, 1, 86, 64, 247
25, 273, End_track
26, 0, Start_track
26, 0, Title_t, "Copyright © 2005 by Dario Galimberti"
26, 0, MIDI_port, 0
26, 0, End_track
0, 0, End_of_file
